500 0 14 0           
7 Unknown 11 ACIS 5.0 NT 24 Thu Mar 25 17:59:29 1999 
-1 9.9999999999999995e-007 1e-010 
body $-1 $14 $-1 $15 #
body $-1 $16 $-1 $17 #
body $-1 $18 $-1 $19 #
body $-1 $20 $-1 $21 #
body $-1 $22 $-1 $23 #
body $-1 $24 $-1 $25 #
body $-1 $26 $-1 $27 #
body $-1 $28 $-1 $29 #
body $-1 $30 $-1 $31 #
body $-1 $32 $-1 $33 #
body $-1 $34 $-1 $35 #
body $-1 $36 $-1 $37 #
body $-1 $38 $-1 $39 #
body $-1 $40 $-1 $41 #
lump $-1 $-1 $42 $0 #
transform $-1 1 0 0 0 1 0 0 0 1 43.436384166997286 21.989280085517471 7.5332762391425803 1 rotate no_reflect no_shear #
lump $-1 $-1 $43 $1 #
transform $-1 1 0 0 0 1 0 0 0 1 43.436384166997286 21.989280085517471 7.5332762391425803 1 rotate no_reflect no_shear #
lump $-1 $-1 $44 $2 #
transform $-1 1 0 0 0 1 0 0 0 1 43.436384166997286 21.989280085517471 7.5332762391425803 1 rotate no_reflect no_shear #
lump $-1 $-1 $45 $3 #
transform $-1 1 0 0 0 1 0 0 0 1 43.436384166997286 21.989280085517471 7.5332762391425803 1 rotate no_reflect no_shear #
lump $-1 $-1 $46 $4 #
transform $-1 1 0 0 0 1 0 0 0 1 43.436384166997286 21.989280085517471 7.5332762391425803 1 rotate no_reflect no_shear #
lump $-1 $-1 $47 $5 #
transform $-1 1 0 0 0 1 0 0 0 1 43.436384166997286 21.989280085517471 7.5332762391425803 1 rotate no_reflect no_shear #
lump $-1 $-1 $48 $6 #
transform $-1 1 0 0 0 1 0 0 0 1 43.436384166997286 21.989280085517471 7.5332762391425803 1 rotate no_reflect no_shear #
lump $-1 $-1 $49 $7 #
transform $-1 1 0 0 0 1 0 0 0 1 43.436384166997286 21.989280085517471 7.5332762391425803 1 rotate no_reflect no_shear #
lump $-1 $-1 $50 $8 #
transform $-1 1 0 0 0 1 0 0 0 1 43.436384166997286 21.989280085517471 7.5332762391425803 1 rotate no_reflect no_shear #
lump $-1 $-1 $51 $9 #
transform $-1 1 0 0 0 1 0 0 0 1 43.436384166997286 21.989280085517471 7.5332762391425803 1 rotate no_reflect no_shear #
lump $-1 $-1 $52 $10 #
transform $-1 1 0 0 0 1 0 0 0 1 43.436384166997286 21.989280085517471 7.5332762391425803 1 rotate no_reflect no_shear #
lump $-1 $-1 $53 $11 #
transform $-1 1 0 0 0 1 0 0 0 1 43.436384166997286 21.989280085517471 7.5332762391425803 1 rotate no_reflect no_shear #
lump $-1 $-1 $54 $12 #
transform $-1 1 0 0 0 1 0 0 0 1 43.436384166997286 21.989280085517471 7.5332762391425803 1 rotate no_reflect no_shear #
lump $-1 $-1 $55 $13 #
transform $-1 1 0 0 0 1 0 0 0 1 43.436384166997286 21.989280085517471 7.5332762391425803 1 rotate no_reflect no_shear #
shell $-1 $-1 $-1 $56 $-1 $14 #
shell $-1 $-1 $-1 $57 $-1 $16 #
shell $-1 $-1 $-1 $58 $-1 $18 #
shell $-1 $-1 $-1 $59 $-1 $20 #
shell $-1 $-1 $-1 $60 $-1 $22 #
shell $-1 $-1 $-1 $61 $-1 $24 #
shell $-1 $-1 $-1 $62 $-1 $26 #
shell $-1 $-1 $-1 $63 $-1 $28 #
shell $-1 $-1 $-1 $64 $-1 $30 #
shell $-1 $-1 $-1 $65 $-1 $32 #
shell $-1 $-1 $-1 $66 $-1 $34 #
shell $-1 $-1 $-1 $67 $-1 $36 #
shell $-1 $-1 $-1 $68 $-1 $38 #
shell $-1 $-1 $-1 $69 $-1 $40 #
face $-1 $70 $71 $42 $-1 $72 forward single #
face $-1 $73 $74 $43 $-1 $75 reversed single #
face $-1 $76 $77 $44 $-1 $78 reversed single #
face $-1 $79 $80 $45 $-1 $81 forward single #
face $-1 $82 $83 $46 $-1 $84 forward single #
face $-1 $85 $86 $47 $-1 $87 reversed single #
face $-1 $88 $89 $48 $-1 $90 forward single #
face $-1 $91 $92 $49 $-1 $93 forward single #
face $-1 $94 $95 $50 $-1 $96 reversed single #
face $-1 $97 $98 $51 $-1 $99 forward single #
face $-1 $100 $101 $52 $-1 $102 forward single #
face $-1 $103 $104 $53 $-1 $105 reversed single #
face $-1 $106 $107 $54 $-1 $108 forward single #
face $-1 $109 $110 $55 $-1 $111 forward single #
face $-1 $112 $113 $42 $-1 $114 reversed single #
loop $-1 $-1 $115 $56 #
plane-surface $-1 0 0 7.5332762391425803 0 0 1 1 0 0 forward_v I I I I #
face $-1 $116 $117 $43 $-1 $118 reversed single #
loop $-1 $-1 $119 $57 #
plane-surface $-1 0 -18.940203368219048 4.5332762391425803 0 0 1 1 0 0 forward_v I I I I #
face $-1 $120 $121 $44 $-1 $122 reversed single #
loop $-1 $-1 $123 $58 #
plane-surface $-1 -100.43004889900305 -5.5104767237624959 67.59550089373819 0 1 0 -0.6560590369687036 0 0.75470957328743171 forward_v I I I I #
face $-1 $124 $125 $45 $-1 $126 forward single #
loop $-1 $127 $128 $59 #
cone-surface $-1 -39.650495630025539 -3.0648900263165224 4.0675552877598804 0.6560590369687036 0 -0.75470957328743171 0.37735478664371586 0 0.3280295184843518 1 I I 0 1 0.5 forward I I I I #
face $-1 $129 $130 $46 $-1 $131 forward single #
loop $-1 $132 $133 $60 #
cone-surface $-1 -39.650495630025539 0.60349001985244399 4.0675552877598804 0.6560590369687036 0 -0.75470957328743171 0.37735478664371586 0 0.3280295184843518 1 I I 0 1 0.5 forward I I I I #
face $-1 $134 $135 $47 $-1 $136 reversed single #
loop $-1 $-1 $137 $61 #
plane-surface $-1 -100.43004889900305 13.429726644456549 67.59550089373819 0 1 0 -0.6560590369687036 0 0.75470957328743171 forward_v I I I I #
face $-1 $138 $139 $48 $-1 $140 forward single #
loop $-1 $141 $142 $62 #
cone-surface $-1 -39.650495630025539 15.875313341902526 4.0675552877598804 0.6560590369687036 0 -0.75470957328743171 0.37735478664371586 0 0.3280295184843518 1 I I 0 1 0.5 forward I I I I #
face $-1 $143 $144 $49 $-1 $145 forward single #
loop $-1 $146 $147 $63 #
cone-surface $-1 -39.650495630025539 19.543693388071496 4.0675552877598804 0.6560590369687036 0 -0.75470957328743171 0.37735478664371586 0 0.3280295184843518 1 I I 0 1 0.5 forward I I I I #
face $-1 $148 $149 $50 $-1 $150 reversed single #
loop $-1 $-1 $151 $64 #
plane-surface $-1 34.866338979356101 3.049076717298421 124.58916562574395 0 -1 0 -0.6560590369687036 0 -0.75470957328743171 forward_v I I I I #
face $-1 $152 $153 $51 $-1 $154 forward single #
loop $-1 $155 $156 $65 #
cone-surface $-1 39.650495630025539 -3.0648900263165224 4.0675552877598768 -0.6560590369687036 0 -0.75470957328743171 0.37735478664371586 0 -0.3280295184843518 1 I I 0 1 0.5 forward I I I I #
face $-1 $157 $158 $52 $-1 $159 forward single #
loop $-1 $160 $161 $66 #
cone-surface $-1 39.650495630025539 0.60349001985244399 4.0675552877598768 -0.6560590369687036 0 -0.75470957328743171 0.37735478664371586 0 -0.3280295184843518 1 I I 0 1 0.5 forward I I I I #
face $-1 $162 $163 $53 $-1 $164 reversed single #
loop $-1 $-1 $165 $67 #
plane-surface $-1 -22.127325752649668 17.709503364987008 59.025455706096992 0.6560590369687036 0 0.75470957328743171 0.75470957328743171 0 -0.6560590369687036 forward_v I I I I #
face $-1 $166 $167 $54 $-1 $168 forward single #
loop $-1 $169 $170 $68 #
cone-surface $-1 39.650495630025539 15.875313341902526 4.0675552877598768 -0.6560590369687036 0 -0.75470957328743171 0.37735478664371586 0 -0.3280295184843518 1 I I 0 1 0.5 forward I I I I #
face $-1 $171 $172 $55 $-1 $173 forward single #
loop $-1 $174 $175 $69 #
cone-surface $-1 39.650495630025539 19.543693388071496 4.0675552877598768 -0.6560590369687036 0 -0.75470957328743171 0.37735478664371586 0 -0.3280295184843518 1 I I 0 1 0.5 forward I I I I #
face $-1 $176 $177 $42 $-1 $178 reversed single #
loop $-1 $-1 $179 $70 #
plane-surface $-1 0 0 -7.5332762391425803 0 0 1 1 0 0 forward_v I I I I #
coedge $-1 $180 $181 $182 $183 forward $71 $-1 #
face $-1 $184 $185 $43 $-1 $186 reversed single #
loop $-1 $-1 $187 $73 #
plane-surface $-1 0 -15.891126650920626 6.0332762391425803 0 -1 0 0 0 -1 forward_v I I I I #
coedge $-1 $188 $189 $190 $191 reversed $74 $-1 #
face $-1 $192 $193 $44 $-1 $194 reversed single #
loop $-1 $-1 $195 $76 #
plane-surface $-1 -43.436384166997286 -1.2307000032320374 2.031790974091237 -0.6560590369687036 0 0.75470957328743171 0.75470957328743171 0 0.6560590369687036 forward_v I I I I #
coedge $-1 $196 $197 $198 $199 reversed $77 $-1 #
face $-1 $-1 $200 $45 $-1 $201 forward single #
loop $-1 $202 $203 $79 #
cone-surface $-1 -38.864959687105198 -3.0648900263165224 3.163899575580988 0.6560590369687036 0 -0.75470957328743171 0.18867739332185793 0 0.1640147592421759 1 I I -0.70710678118654746 0.70710678118654746 0.25 forward I I I I #
loop $-1 $-1 $204 $59 #
coedge $-1 $128 $128 $205 $206 reversed $80 $-1 #
face $-1 $-1 $207 $46 $-1 $208 forward single #
loop $-1 $209 $210 $82 #
cone-surface $-1 -38.864959687105198 0.60349001985244399 3.163899575580988 0.6560590369687036 0 -0.75470957328743171 0.18867739332185793 0 0.1640147592421759 1 I I -0.70710678118654746 0.70710678118654746 0.25 forward I I I I #
loop $-1 $-1 $211 $60 #
coedge $-1 $133 $133 $212 $213 reversed $83 $-1 #
face $-1 $214 $215 $47 $-1 $216 forward single #
loop $-1 $-1 $217 $85 #
plane-surface $-1 -43.436384166997286 17.709503364987008 2.031790974091237 -0.6560590369687036 0 0.75470957328743171 0.75470957328743171 0 0.6560590369687036 forward_v I I I I #
coedge $-1 $218 $219 $220 $221 reversed $86 $-1 #
face $-1 $-1 $222 $48 $-1 $223 forward single #
loop $-1 $224 $225 $88 #
cone-surface $-1 -38.864959687105198 15.875313341902526 3.163899575580988 0.6560590369687036 0 -0.75470957328743171 0.18867739332185793 0 0.1640147592421759 1 I I -0.70710678118654746 0.70710678118654746 0.25 forward I I I I #
loop $-1 $-1 $226 $62 #
coedge $-1 $142 $142 $227 $228 reversed $89 $-1 #
face $-1 $-1 $229 $49 $-1 $230 forward single #
loop $-1 $231 $232 $91 #
cone-surface $-1 -38.864959687105198 19.543693388071496 3.163899575580988 0.6560590369687036 0 -0.75470957328743171 0.18867739332185793 0 0.1640147592421759 1 I I -0.70710678118654746 0.70710678118654746 0.25 forward I I I I #
loop $-1 $-1 $233 $63 #
coedge $-1 $147 $147 $234 $235 reversed $92 $-1 #
face $-1 $236 $237 $50 $-1 $238 reversed single #
loop $-1 $-1 $239 $94 #
plane-surface $-1 -22.127325752649668 -1.2307000032320374 59.025455706096992 0.6560590369687036 0 0.75470957328743171 0.75470957328743171 0 -0.6560590369687036 forward_v I I I I #
coedge $-1 $240 $241 $242 $243 reversed $95 $-1 #
face $-1 $-1 $244 $51 $-1 $245 forward single #
loop $-1 $246 $247 $97 #
cone-surface $-1 38.864959687105198 -3.0648900263165224 3.1638995755809844 -0.6560590369687036 0 -0.75470957328743171 0.18867739332185793 0 -0.1640147592421759 1 I I -0.70710678118654746 0.70710678118654746 0.25 forward I I I I #
loop $-1 $-1 $248 $65 #
coedge $-1 $156 $156 $249 $250 reversed $98 $-1 #
face $-1 $-1 $251 $52 $-1 $252 forward single #
loop $-1 $253 $254 $100 #
cone-surface $-1 38.864959687105198 0.60349001985244399 3.1638995755809844 -0.6560590369687036 0 -0.75470957328743171 0.18867739332185793 0 -0.1640147592421759 1 I I -0.70710678118654746 0.70710678118654746 0.25 forward I I I I #
loop $-1 $-1 $255 $66 #
coedge $-1 $161 $161 $256 $257 reversed $101 $-1 #
face $-1 $258 $259 $53 $-1 $260 reversed single #
loop $-1 $-1 $261 $103 #
plane-surface $-1 34.866338979356101 13.429726644456549 124.58916562574395 0 1 0 0.6560590369687036 0 0.75470957328743171 forward_v I I I I #
coedge $-1 $262 $263 $264 $265 reversed $104 $-1 #
face $-1 $-1 $266 $54 $-1 $267 forward single #
loop $-1 $268 $269 $106 #
cone-surface $-1 38.864959687105198 15.875313341902526 3.1638995755809844 -0.6560590369687036 0 -0.75470957328743171 0.18867739332185793 0 -0.1640147592421759 1 I I -0.70710678118654746 0.70710678118654746 0.25 forward I I I I #
loop $-1 $-1 $270 $68 #
coedge $-1 $170 $170 $271 $272 reversed $107 $-1 #
face $-1 $-1 $273 $55 $-1 $274 forward single #
loop $-1 $275 $276 $109 #
cone-surface $-1 38.864959687105198 19.543693388071496 3.1638995755809844 -0.6560590369687036 0 -0.75470957328743171 0.18867739332185793 0 -0.1640147592421759 1 I I -0.70710678118654746 0.70710678118654746 0.25 forward I I I I #
loop $-1 $-1 $277 $69 #
coedge $-1 $175 $175 $278 $279 reversed $110 $-1 #
face $-1 $280 $281 $42 $-1 $282 reversed single #
loop $-1 $-1 $283 $112 #
plane-surface $-1 0 -21.989280085517471 0 0 1 0 0 0 1 forward_v I I I I #
coedge $-1 $284 $285 $286 $287 forward $113 $-1 #
coedge $-1 $288 $115 $289 $290 forward $71 $-1 #
coedge $-1 $115 $288 $291 $292 forward $71 $-1 #
coedge $-1 $293 $294 $115 $183 reversed $295 $-1 #
edge $-1 $296 -21.989280085517471 $297 21.989280085517471 $182 $298 forward 7 unknown #
face $-1 $299 $300 $43 $-1 $301 reversed single #
loop $-1 $-1 $302 $116 #
plane-surface $-1 -43.436384166997286 0 0 1 0 0 0 0 -1 forward_v I I I I #
coedge $-1 $303 $304 $305 $306 reversed $117 $-1 #
coedge $-1 $307 $119 $308 $309 reversed $74 $-1 #
coedge $-1 $119 $307 $303 $310 forward $74 $-1 #
coedge $-1 $305 $311 $119 $191 forward $312 $-1 #
edge $-1 $313 -12.519178401407947 $314 -6.4210249668111015 $190 $315 forward 7 unknown #
face $-1 $316 $317 $44 $-1 $318 forward single #
loop $-1 $-1 $319 $120 #
plane-surface $-1 -100.43004889900305 3.049076717298421 67.59550089373819 0 -1 0 0.6560590369687036 0 -0.75470957328743171 forward_v I I I I #
coedge $-1 $320 $321 $322 $323 reversed $121 $-1 #
coedge $-1 $197 $123 $324 $325 reversed $77 $-1 #
coedge $-1 $123 $196 $320 $326 reversed $77 $-1 #
coedge $-1 $322 $327 $123 $199 forward $317 $-1 #
edge $-1 $328 6.7786402825042416 $329 13.107374989091412 $198 $330 forward 7 unknown #
loop $-1 $-1 $205 $124 #
plane-surface $-1 -43.436384166997286 -1.2307000032320374 2.031790974091237 -0.6560590369687036 0 0.75470957328743171 0.75470957328743171 0 0.6560590369687036 forward_v I I I I #
loop $-1 $-1 $331 $79 #
coedge $-1 $203 $203 $204 $332 reversed $125 $-1 #
coedge $-1 $204 $204 $203 $332 forward $127 $-1 #
coedge $-1 $205 $205 $128 $206 forward $200 $-1 #
edge $-1 $333 0 $333 6.2831853071796004 $205 $334 forward 7 unknown #
loop $-1 $-1 $212 $129 #
plane-surface $-1 -43.436384166997286 -1.2307000032320374 2.031790974091237 -0.6560590369687036 0 0.75470957328743171 0.75470957328743171 0 0.6560590369687036 forward_v I I I I #
loop $-1 $-1 $335 $82 #
coedge $-1 $210 $210 $211 $336 reversed $130 $-1 #
coedge $-1 $211 $211 $210 $336 forward $132 $-1 #
coedge $-1 $212 $212 $133 $213 forward $207 $-1 #
edge $-1 $337 0 $337 6.2831853071796004 $212 $338 forward 7 unknown #
face $-1 $339 $340 $47 $-1 $341 reversed single #
loop $-1 $-1 $220 $134 #
plane-surface $-1 0 0 7.5332762391425803 0 0 1 1 0 0 forward_v I I I I #
coedge $-1 $342 $343 $344 $345 reversed $135 $-1 #
coedge $-1 $219 $137 $346 $347 reversed $86 $-1 #
coedge $-1 $137 $218 $342 $348 reversed $86 $-1 #
coedge $-1 $344 $349 $137 $221 forward $215 $-1 #
edge $-1 $350 6.7786402825042416 $351 13.107374989091412 $220 $352 forward 7 unknown #
loop $-1 $-1 $227 $138 #
plane-surface $-1 -43.436384166997286 17.709503364987008 2.031790974091237 -0.6560590369687036 0 0.75470957328743171 0.75470957328743171 0 0.6560590369687036 forward_v I I I I #
loop $-1 $-1 $353 $88 #
coedge $-1 $225 $225 $226 $354 reversed $139 $-1 #
coedge $-1 $226 $226 $225 $354 forward $141 $-1 #
coedge $-1 $227 $227 $142 $228 forward $222 $-1 #
edge $-1 $355 0 $355 6.2831853071796004 $227 $356 forward 7 unknown #
loop $-1 $-1 $234 $143 #
plane-surface $-1 -43.436384166997286 17.709503364987008 2.031790974091237 -0.6560590369687036 0 0.75470957328743171 0.75470957328743171 0 0.6560590369687036 forward_v I I I I #
loop $-1 $-1 $357 $91 #
coedge $-1 $232 $232 $233 $358 reversed $144 $-1 #
coedge $-1 $233 $233 $232 $358 forward $146 $-1 #
coedge $-1 $234 $234 $147 $235 forward $229 $-1 #
edge $-1 $359 0 $359 6.2831853071796004 $234 $360 forward 7 unknown #
face $-1 $361 $362 $50 $-1 $363 reversed single #
loop $-1 $-1 $364 $148 #
plane-surface $-1 34.866338979356101 -5.5104767237624959 124.58916562574395 0 1 0 0.6560590369687036 0 0.75470957328743171 forward_v I I I I #
coedge $-1 $365 $366 $367 $368 reversed $149 $-1 #
coedge $-1 $241 $151 $369 $370 reversed $95 $-1 #
coedge $-1 $151 $240 $365 $371 reversed $95 $-1 #
coedge $-1 $367 $372 $151 $243 forward $373 $-1 #
edge $-1 $374 -26.003214677319235 $375 -19.674479970732051 $242 $376 forward 7 unknown #
loop $-1 $-1 $249 $152 #
plane-surface $-1 -22.127325752649668 -1.2307000032320374 59.025455706096992 0.6560590369687036 0 0.75470957328743171 0.75470957328743171 0 -0.6560590369687036 forward_v I I I I #
loop $-1 $-1 $377 $97 #
coedge $-1 $247 $247 $248 $378 reversed $153 $-1 #
coedge $-1 $248 $248 $247 $378 forward $155 $-1 #
coedge $-1 $249 $249 $156 $250 forward $244 $-1 #
edge $-1 $379 0 $379 6.2831853071796004 $249 $380 forward 7 unknown #
loop $-1 $-1 $256 $157 #
plane-surface $-1 -22.127325752649668 -1.2307000032320374 59.025455706096992 0.6560590369687036 0 0.75470957328743171 0.75470957328743171 0 -0.6560590369687036 forward_v I I I I #
loop $-1 $-1 $381 $100 #
coedge $-1 $254 $254 $255 $382 reversed $158 $-1 #
coedge $-1 $255 $255 $254 $382 forward $160 $-1 #
coedge $-1 $256 $256 $161 $257 forward $251 $-1 #
edge $-1 $383 0 $383 6.2831853071796004 $256 $384 forward 7 unknown #
face $-1 $385 $386 $53 $-1 $387 forward single #
loop $-1 $-1 $388 $162 #
plane-surface $-1 43.436384166997286 0 0 -1 0 0 0 0 1 forward_v I I I I #
coedge $-1 $389 $390 $391 $392 reversed $163 $-1 #
coedge $-1 $393 $165 $394 $395 reversed $104 $-1 #
coedge $-1 $165 $393 $389 $396 forward $104 $-1 #
coedge $-1 $391 $397 $165 $265 forward $386 $-1 #
edge $-1 $398 -13.13452840302396 $399 -4.5749749619630453 $264 $400 forward 7 unknown #
loop $-1 $-1 $271 $166 #
plane-surface $-1 -22.127325752649668 17.709503364987008 59.025455706096992 0.6560590369687036 0 0.75470957328743171 0.75470957328743171 0 -0.6560590369687036 forward_v I I I I #
loop $-1 $-1 $401 $106 #
coedge $-1 $269 $269 $270 $402 reversed $167 $-1 #
coedge $-1 $270 $270 $269 $402 forward $169 $-1 #
coedge $-1 $271 $271 $170 $272 forward $266 $-1 #
edge $-1 $403 0 $403 6.2831853071796004 $271 $404 forward 7 unknown #
loop $-1 $-1 $278 $171 #
plane-surface $-1 -22.127325752649668 17.709503364987008 59.025455706096992 0.6560590369687036 0 0.75470957328743171 0.75470957328743171 0 -0.6560590369687036 forward_v I I I I #
loop $-1 $-1 $405 $109 #
coedge $-1 $276 $276 $277 $406 reversed $172 $-1 #
coedge $-1 $277 $277 $276 $406 forward $174 $-1 #
coedge $-1 $278 $278 $175 $279 forward $273 $-1 #
edge $-1 $407 0 $407 6.2831853071796004 $278 $408 forward 7 unknown #
face $-1 $409 $410 $42 $-1 $411 reversed single #
loop $-1 $-1 $412 $176 #
plane-surface $-1 -43.436384166997286 0 0 1 0 0 0 0 -1 forward_v I I I I #
coedge $-1 $413 $291 $414 $415 forward $177 $-1 #
coedge $-1 $416 $179 $413 $417 forward $113 $-1 #
coedge $-1 $179 $416 $418 $419 forward $113 $-1 #
coedge $-1 $294 $293 $179 $287 reversed $295 $-1 #
edge $-1 $420 -21.989280085517471 $421 21.989280085517471 $286 $422 forward 7 unknown #
coedge $-1 $181 $180 $423 $424 forward $71 $-1 #
coedge $-1 $425 $426 $180 $290 reversed $410 $-1 #
edge $-1 $297 -43.436384166997286 $427 43.436384166997286 $289 $428 forward 7 unknown #
coedge $-1 $283 $429 $181 $292 reversed $177 $-1 #
edge $-1 $430 -43.436384166997286 $296 43.436384166997286 $291 $431 forward 7 unknown #
coedge $-1 $286 $182 $429 $432 forward $295 $-1 #
coedge $-1 $182 $286 $425 $433 reversed $295 $-1 #
loop $-1 $-1 $293 $409 #
vertex $-1 $183 $434 #
vertex $-1 $183 $435 #
straight-curve $-1 43.436384166997286 0 7.5332762391425803 0 1 0 I I #
face $-1 $436 $437 $43 $-1 $438 forward single #
loop $-1 $-1 $308 $184 #
plane-surface $-1 0 -21.989280085517471 0 0 1 0 0 0 1 forward_v I I I I #
coedge $-1 $439 $440 $441 $442 forward $185 $-1 #
coedge $-1 $441 $187 $189 $310 reversed $117 $-1 #
coedge $-1 $187 $441 $443 $444 reversed $117 $-1 #
coedge $-1 $445 $190 $187 $306 forward $312 $-1 #
edge $-1 $314 1.5166381195712901 $446 4.5166381195712901 $305 $447 forward 7 unknown #
coedge $-1 $189 $188 $439 $448 reversed $74 $-1 #
coedge $-1 $449 $450 $188 $309 forward $300 $-1 #
edge $-1 $451 -43.436384166997286 $313 43.436384166997286 $308 $452 forward 7 unknown #
edge $-1 $453 -43.436384166997286 $314 43.436384166997286 $303 $454 forward 7 unknown #
coedge $-1 $190 $445 $449 $455 forward $312 $-1 #
loop $-1 $-1 $305 $436 #
vertex $-1 $309 $456 #
vertex $-1 $191 $457 #
straight-curve $-1 43.436384166997286 -9.4701016841095242 4.5332762391425803 0 1 0 I I #
face $-1 $-1 $458 $44 $-1 $459 reversed single #
loop $-1 $-1 $198 $192 #
plane-surface $-1 0 0 7.5332762391425803 0 0 1 1 0 0 forward_v I I I I #
coedge $-1 $460 $461 $462 $463 reversed $193 $-1 #
coedge $-1 $464 $195 $197 $326 forward $121 $-1 #
coedge $-1 $195 $464 $460 $465 forward $121 $-1 #
coedge $-1 $462 $198 $195 $323 forward $317 $-1 #
edge $-1 $329 -4.8951267221464771 $466 3.6644267189144397 $322 $467 forward 7 unknown #
coedge $-1 $468 $469 $196 $325 forward $458 $-1 #
edge $-1 $470 -31.765959472777858 $328 -26.264474207726515 $324 $471 forward 7 unknown #
edge $-1 $329 -8.38565579474486 $470 0 $197 $472 forward 7 unknown #
coedge $-1 $198 $462 $468 $473 forward $317 $-1 #
vertex $-1 $325 $474 #
vertex $-1 $199 $475 #
straight-curve $-1 -50.215024449501527 -5.5104767237624959 7.5332762391425803 1 0 0 I I #
coedge $-1 $331 $331 $-1 $476 reversed $202 $-1 #
edge $-1 $477 0 $477 6.2831853071796004 $203 $478 forward 7 unknown #
vertex $-1 $206 $479 #
ellipse-curve $-1 -40.272016813703701 -3.0648900263165224 4.7825336066169077 -0.6560590369687036 0 0.75470957328743171 0.37735478664371586 0 0.3280295184843518 1 I I #
coedge $-1 $335 $335 $-1 $480 reversed $209 $-1 #
edge $-1 $481 0 $481 6.2831853071796004 $210 $482 forward 7 unknown #
vertex $-1 $213 $483 #
ellipse-curve $-1 -40.272016813703701 0.60349001985244399 4.7825336066169077 -0.6560590369687036 0 0.75470957328743171 0.37735478664371586 0 0.3280295184843518 1 I I #
face $-1 $-1 $484 $47 $-1 $485 reversed single #
loop $-1 $-1 $486 $214 #
plane-surface $-1 0 21.989280085517471 0 0 -1 0 0 0 -1 forward_v I I I I #
coedge $-1 $487 $217 $219 $348 forward $135 $-1 #
coedge $-1 $217 $487 $486 $488 reversed $135 $-1 #
coedge $-1 $489 $220 $217 $345 forward $215 $-1 #
edge $-1 $351 4.5749749619630453 $490 13.13452840302396 $344 $491 forward 7 unknown #
coedge $-1 $492 $493 $218 $347 forward $484 $-1 #
edge $-1 $494 -31.765959472777858 $350 -26.264474207726515 $346 $495 forward 7 unknown #
edge $-1 $351 -8.38565579474486 $494 0 $219 $496 forward 7 unknown #
coedge $-1 $220 $489 $492 $497 forward $215 $-1 #
vertex $-1 $347 $498 #
vertex $-1 $221 $499 #
straight-curve $-1 -50.215024449501527 13.429726644456549 7.5332762391425803 1 0 0 I I #
coedge $-1 $353 $353 $-1 $500 reversed $224 $-1 #
edge $-1 $501 0 $501 6.2831853071796004 $225 $502 forward 7 unknown #
vertex $-1 $228 $503 #
ellipse-curve $-1 -40.272016813703701 15.875313341902526 4.7825336066169077 -0.6560590369687036 0 0.75470957328743171 0.37735478664371586 0 0.3280295184843518 1 I I #
coedge $-1 $357 $357 $-1 $504 reversed $231 $-1 #
edge $-1 $505 0 $505 6.2831853071796004 $232 $506 forward 7 unknown #
vertex $-1 $235 $507 #
ellipse-curve $-1 -40.272016813703701 19.543693388071496 4.7825336066169077 -0.6560590369687036 0 0.75470957328743171 0.37735478664371586 0 0.3280295184843518 1 I I #
face $-1 $-1 $373 $50 $-1 $508 forward single #
loop $-1 $-1 $509 $236 #
plane-surface $-1 43.436384166997286 0 0 -1 0 0 0 0 1 forward_v I I I I #
coedge $-1 $510 $511 $512 $513 reversed $237 $-1 #
coedge $-1 $514 $239 $241 $371 forward $149 $-1 #
coedge $-1 $239 $514 $510 $515 forward $149 $-1 #
coedge $-1 $512 $242 $239 $368 forward $373 $-1 #
edge $-1 $375 -3.6644267189144397 $516 4.8951267221464771 $367 $517 forward 7 unknown #
coedge $-1 $518 $519 $240 $370 forward $362 $-1 #
edge $-1 $520 -60.26279183878075 $374 -54.761306573729392 $369 $521 forward 7 unknown #
edge $-1 $375 78.487112539249694 $520 86.872768333994571 $241 $522 forward 7 unknown #
coedge $-1 $242 $512 $518 $523 forward $373 $-1 #
loop $-1 $-1 $512 $361 #
vertex $-1 $370 $524 #
vertex $-1 $243 $525 #
straight-curve $-1 17.43316948967805 3.049076717298421 7.5332762391425803 -1 0 0 I I #
coedge $-1 $377 $377 $-1 $526 reversed $246 $-1 #
edge $-1 $527 0 $527 6.2831853071796004 $247 $528 forward 7 unknown #
vertex $-1 $250 $529 #
ellipse-curve $-1 40.272016813703694 -3.0648900263165224 4.7825336066168962 0.6560590369687036 0 0.75470957328743171 0.37735478664371586 0 -0.3280295184843518 1 I I #
coedge $-1 $381 $381 $-1 $530 reversed $253 $-1 #
edge $-1 $531 0 $531 6.2831853071796004 $254 $532 forward 7 unknown #
vertex $-1 $257 $533 #
ellipse-curve $-1 40.272016813703694 0.60349001985244399 4.7825336066168962 0.6560590369687036 0 0.75470957328743171 0.37735478664371586 0 -0.3280295184843518 1 I I #
face $-1 $-1 $534 $53 $-1 $535 reversed single #
loop $-1 $-1 $391 $258 #
plane-surface $-1 0 0 7.5332762391425803 0 0 1 1 0 0 forward_v I I I I #
coedge $-1 $536 $537 $390 $538 forward $259 $-1 #
coedge $-1 $390 $261 $263 $396 reversed $163 $-1 #
coedge $-1 $261 $389 $388 $538 reversed $163 $-1 #
coedge $-1 $539 $264 $261 $392 forward $386 $-1 #
edge $-1 $399 19.674479970732051 $540 26.003214677319235 $391 $541 forward 7 unknown #
coedge $-1 $263 $262 $536 $542 reversed $104 $-1 #
coedge $-1 $543 $544 $262 $395 forward $534 $-1 #
edge $-1 $545 -59.160824232017028 $398 -50.77516843727215 $394 $546 forward 7 unknown #
edge $-1 $547 -86.872768333994571 $399 -78.487112539249694 $389 $548 forward 7 unknown #
coedge $-1 $264 $539 $543 $549 forward $386 $-1 #
vertex $-1 $395 $550 #
vertex $-1 $265 $551 #
straight-curve $-1 37.10764946041008 8.8547516824935038 7.5332762391425803 0 -1 0 I I #
coedge $-1 $401 $401 $-1 $552 reversed $268 $-1 #
edge $-1 $553 0 $553 6.2831853071796004 $269 $554 forward 7 unknown #
vertex $-1 $272 $555 #
ellipse-curve $-1 40.272016813703694 15.875313341902526 4.7825336066168962 0.6560590369687036 0 0.75470957328743171 0.37735478664371586 0 -0.3280295184843518 1 I I #
coedge $-1 $405 $405 $-1 $556 reversed $275 $-1 #
edge $-1 $557 0 $557 6.2831853071796004 $276 $558 forward 7 unknown #
vertex $-1 $279 $559 #
ellipse-curve $-1 40.272016813703694 19.543693388071496 4.7825336066168962 0.6560590369687036 0 0.75470957328743171 0.37735478664371586 0 -0.3280295184843518 1 I I #
face $-1 $-1 $295 $42 $-1 $560 reversed single #
loop $-1 $-1 $425 $280 #
plane-surface $-1 0 21.989280085517471 0 0 -1 0 0 0 -1 forward_v I I I I #
coedge $-1 $561 $423 $426 $562 forward $281 $-1 #
coedge $-1 $429 $283 $284 $417 reversed $177 $-1 #
coedge $-1 $423 $561 $283 $415 reversed $281 $-1 #
edge $-1 $430 -7.5332762391425803 $563 7.5332762391425803 $414 $564 forward 7 unknown #
coedge $-1 $285 $284 $561 $565 forward $113 $-1 #
edge $-1 $421 -43.436384166997286 $563 43.436384166997286 $413 $566 forward 7 unknown #
coedge $-1 $426 $425 $285 $419 reversed $410 $-1 #
edge $-1 $567 -43.436384166997286 $420 43.436384166997286 $418 $568 forward 7 unknown #
vertex $-1 $287 $569 #
vertex $-1 $432 $570 #
straight-curve $-1 43.436384166997286 0 -7.5332762391425803 0 -1 0 I I #
coedge $-1 $412 $414 $288 $424 reversed $281 $-1 #
edge $-1 $427 -21.989280085517471 $430 21.989280085517471 $423 $571 forward 7 unknown #
coedge $-1 $418 $289 $294 $433 forward $410 $-1 #
coedge $-1 $289 $418 $412 $562 reversed $410 $-1 #
vertex $-1 $290 $572 #
straight-curve $-1 0 21.989280085517471 7.5332762391425803 -1 0 0 I I #
coedge $-1 $291 $413 $293 $432 reversed $177 $-1 #
vertex $-1 $424 $573 #
straight-curve $-1 0 -21.989280085517471 7.5332762391425803 1 0 0 I I #
edge $-1 $296 -7.5332762391425803 $421 7.5332762391425803 $293 $574 forward 7 unknown #
edge $-1 $297 -7.5332762391425803 $420 7.5332762391425803 $294 $575 forward 7 unknown #
point $-1 43.436384166997286 -21.989280085517471 7.5332762391425803 #
point $-1 43.436384166997286 21.989280085517471 7.5332762391425803 #
face $-1 $-1 $312 $43 $-1 $576 reversed single #
loop $-1 $-1 $443 $299 #
plane-surface $-1 0 0 7.5332762391425803 0 0 1 1 0 0 forward_v I I I I #
coedge $-1 $577 $302 $307 $448 forward $185 $-1 #
coedge $-1 $302 $577 $578 $579 reversed $185 $-1 #
coedge $-1 $304 $303 $302 $442 reversed $117 $-1 #
edge $-1 $580 -4.5166381195712901 $453 -1.5166381195712901 $302 $581 forward 7 unknown #
coedge $-1 $578 $582 $304 $444 forward $437 $-1 #
edge $-1 $446 -43.436384166997286 $580 43.436384166997286 $443 $583 forward 7 unknown #
coedge $-1 $311 $305 $582 $584 reversed $312 $-1 #
vertex $-1 $306 $585 #
straight-curve $-1 43.436384166997286 -15.891126650920626 3.0166381195712901 0 0 1 I I #
edge $-1 $453 6.4210249668111015 $451 12.519178401407947 $439 $586 forward 7 unknown #
coedge $-1 $587 $308 $311 $455 reversed $300 $-1 #
coedge $-1 $308 $587 $577 $588 forward $300 $-1 #
vertex $-1 $309 $589 #
straight-curve $-1 0 -21.989280085517471 4.5332762391425803 1 0 0 I I #
vertex $-1 $448 $590 #
straight-curve $-1 0 -15.891126650920626 4.5332762391425803 1 0 0 I I #
edge $-1 $591 -7.5332762391425803 $313 -4.5332762391425803 $311 $592 forward 7 unknown #
point $-1 43.436384166997286 -21.989280085517471 4.5332762391425803 #
point $-1 43.436384166997286 -15.891126650920626 4.5332762391425803 #
loop $-1 $-1 $324 $316 #
plane-surface $-1 -43.436384166997286 0 0 1 0 0 0 0 -1 forward_v I I I I #
coedge $-1 $461 $319 $321 $465 reversed $193 $-1 #
coedge $-1 $319 $460 $593 $594 reversed $193 $-1 #
coedge $-1 $327 $322 $319 $463 forward $317 $-1 #
edge $-1 $466 -13.107374989091412 $595 -6.7786402825042416 $462 $596 forward 7 unknown #
coedge $-1 $321 $320 $469 $597 reversed $121 $-1 #
edge $-1 $598 0 $466 8.38565579474486 $460 $599 forward 7 unknown #
vertex $-1 $323 $600 #
straight-curve $-1 -37.107649460410109 -0.61535000161601872 7.533276239142582 0 1 0 I I #
coedge $-1 $593 $324 $327 $473 reversed $458 $-1 #
coedge $-1 $324 $593 $464 $597 forward $458 $-1 #
vertex $-1 $325 $601 #
straight-curve $-1 -43.436384166997286 -5.5104767237624959 33.797750446869095 0 0 1 I I #
straight-curve $-1 -43.436384166997286 -5.5104767237624959 2.031790974091237 -0.75470957328743171 0 -0.6560590369687036 I I #
edge $-1 $595 -3.049076717298421 $328 5.5104767237624959 $468 $602 forward 7 unknown #
point $-1 -43.436384166997286 -5.5104767237624959 7.5332762391425803 #
point $-1 -37.107649460410116 -5.5104767237624959 7.5332762391425803 #
edge $-1 $603 1 $603 0 $331 $-1 forward 7 unknown #
vertex $-1 $332 $604 #
ellipse-curve $-1 -39.028974446347377 -3.0648900263165224 3.352576968902846 -0.6560590369687036 0 0.75470957328743171 0.37735478664371586 0 0.3280295184843518 1 I I #
point $-1 -39.894662027059994 -3.0648900263165224 5.1105631251012671 #
edge $-1 $605 1 $605 0 $335 $-1 forward 7 unknown #
vertex $-1 $336 $606 #
ellipse-curve $-1 -39.028974446347377 0.60349001985244399 3.352576968902846 -0.6560590369687036 0 0.75470957328743171 0.37735478664371586 0 0.3280295184843518 1 I I #
point $-1 -39.894662027059994 0.60349001985244399 5.1105631251012671 #
loop $-1 $-1 $346 $339 #
plane-surface $-1 -43.436384166997286 0 0 1 0 0 0 0 -1 forward_v I I I I #
coedge $-1 $607 $608 $343 $488 forward $340 $-1 #
coedge $-1 $343 $342 $493 $609 reversed $135 $-1 #
edge $-1 $490 7.3387842702748785 $610 15.724440065019738 $486 $611 forward 7 unknown #
coedge $-1 $349 $344 $608 $612 forward $215 $-1 #
vertex $-1 $612 $613 #
straight-curve $-1 -37.107649460410109 8.8547516824935038 7.533276239142582 0 1 0 I I #
coedge $-1 $614 $346 $349 $497 reversed $484 $-1 #
coedge $-1 $346 $614 $487 $609 forward $484 $-1 #
vertex $-1 $347 $615 #
straight-curve $-1 -43.436384166997286 13.429726644456549 33.797750446869095 0 0 1 I I #
straight-curve $-1 -43.436384166997286 13.429726644456549 2.031790974091237 -0.75470957328743171 0 -0.6560590369687036 I I #
edge $-1 $616 -21.989280085517471 $350 -13.429726644456549 $492 $617 forward 7 unknown #
point $-1 -43.436384166997286 13.429726644456549 7.5332762391425803 #
point $-1 -37.107649460410116 13.429726644456549 7.5332762391425803 #
edge $-1 $618 1 $618 0 $353 $-1 forward 7 unknown #
vertex $-1 $354 $619 #
ellipse-curve $-1 -39.028974446347377 15.875313341902526 3.352576968902846 -0.6560590369687036 0 0.75470957328743171 0.37735478664371586 0 0.3280295184843518 1 I I #
point $-1 -39.894662027059994 15.875313341902526 5.1105631251012671 #
edge $-1 $620 1 $620 0 $357 $-1 forward 7 unknown #
vertex $-1 $358 $621 #
ellipse-curve $-1 -39.028974446347377 19.543693388071496 3.352576968902846 -0.6560590369687036 0 0.75470957328743171 0.37735478664371586 0 0.3280295184843518 1 I I #
point $-1 -39.894662027059994 19.543693388071496 5.1105631251012671 #
plane-surface $-1 0 0 7.5332762391425803 0 0 1 1 0 0 forward_v I I I I #
coedge $-1 $519 $518 $511 $622 forward $362 $-1 #
coedge $-1 $511 $364 $366 $515 reversed $237 $-1 #
coedge $-1 $364 $510 $509 $622 reversed $237 $-1 #
coedge $-1 $372 $367 $364 $513 forward $373 $-1 #
edge $-1 $516 19.674479970732051 $623 26.003214677319235 $512 $624 forward 7 unknown #
coedge $-1 $366 $365 $519 $625 reversed $149 $-1 #
edge $-1 $626 -86.872768333994571 $516 -78.487112539249694 $510 $627 forward 7 unknown #
vertex $-1 $368 $628 #
straight-curve $-1 37.10764946041008 -0.61535000161601872 7.5332762391425803 0 -1 0 I I #
coedge $-1 $509 $369 $372 $523 reversed $362 $-1 #
coedge $-1 $369 $509 $514 $625 forward $362 $-1 #
vertex $-1 $370 $629 #
straight-curve $-1 43.436384166997286 3.049076717298421 62.294582812871973 0 0 1 I I #
straight-curve $-1 -22.127325752649668 3.049076717298421 59.025455706096992 0.75470957328743171 0 -0.6560590369687036 I I #
edge $-1 $623 -5.5104767237624959 $374 3.049076717298421 $518 $630 forward 7 unknown #
point $-1 43.436384166997286 3.049076717298421 7.5332762391425803 #
point $-1 37.107649460410101 3.049076717298421 7.5332762391425803 #
edge $-1 $631 1 $631 0 $377 $-1 forward 7 unknown #
vertex $-1 $378 $632 #
ellipse-curve $-1 39.028974446347377 -3.0648900263165224 3.3525769689028424 0.6560590369687036 0 0.75470957328743171 0.37735478664371586 0 -0.3280295184843518 1 I I #
point $-1 40.649371600347422 -3.0648900263165224 4.454504088132559 #
edge $-1 $633 1 $633 0 $381 $-1 forward 7 unknown #
vertex $-1 $382 $634 #
ellipse-curve $-1 39.028974446347377 0.60349001985244399 3.3525769689028424 0.6560590369687036 0 0.75470957328743171 0.37735478664371586 0 -0.3280295184843518 1 I I #
point $-1 40.649371600347422 0.60349001985244399 4.454504088132559 #
loop $-1 $-1 $394 $385 #
plane-surface $-1 0 21.989280085517471 0 0 -1 0 0 0 -1 forward_v I I I I #
coedge $-1 $635 $388 $393 $542 forward $259 $-1 #
coedge $-1 $388 $635 $539 $636 reversed $259 $-1 #
edge $-1 $540 54.761306573729392 $547 60.26279183878075 $388 $637 forward 7 unknown #
coedge $-1 $397 $391 $537 $636 forward $386 $-1 #
vertex $-1 $636 $638 #
straight-curve $-1 17.43316948967805 13.429726644456549 7.5332762391425803 1 0 0 I I #
edge $-1 $547 4.5749749619630453 $545 13.13452840302396 $536 $639 forward 7 unknown #
coedge $-1 $544 $394 $397 $549 reversed $534 $-1 #
coedge $-1 $394 $543 $635 $640 forward $534 $-1 #
vertex $-1 $395 $641 #
straight-curve $-1 -1.2128562444810349 21.989280085517471 40.844784346023062 -0.75470957328743171 0 0.6560590369687036 I I #
vertex $-1 $542 $642 #
straight-curve $-1 -22.127325752649668 13.429726644456549 59.025455706096992 -0.75470957328743171 0 0.6560590369687036 I I #
edge $-1 $643 -43.436384166997286 $398 -37.107649460410101 $543 $644 forward 7 unknown #
point $-1 37.107649460410101 21.989280085517464 7.5332762391425803 #
point $-1 37.107649460410101 13.429726644456549 7.5332762391425803 #
edge $-1 $645 1 $645 0 $401 $-1 forward 7 unknown #
vertex $-1 $402 $646 #
ellipse-curve $-1 39.028974446347377 15.875313341902526 3.3525769689028424 0.6560590369687036 0 0.75470957328743171 0.37735478664371586 0 -0.3280295184843518 1 I I #
point $-1 40.649371600347422 15.875313341902526 4.454504088132559 #
edge $-1 $647 1 $647 0 $405 $-1 forward 7 unknown #
vertex $-1 $406 $648 #
ellipse-curve $-1 39.028974446347377 19.543693388071496 3.3525769689028424 0.6560590369687036 0 0.75470957328743171 0.37735478664371586 0 -0.3280295184843518 1 I I #
point $-1 40.649371600347422 19.543693388071496 4.454504088132559 #
plane-surface $-1 43.436384166997286 0 0 -1 0 0 0 0 1 forward_v I I I I #
coedge $-1 $414 $412 $416 $565 reversed $281 $-1 #
edge $-1 $427 -7.5332762391425803 $567 7.5332762391425803 $426 $649 forward 7 unknown #
vertex $-1 $565 $650 #
straight-curve $-1 -43.436384166997286 -21.989280085517471 0 0 0 -1 I I #
edge $-1 $563 -21.989280085517471 $567 21.989280085517471 $561 $651 forward 7 unknown #
straight-curve $-1 0 -21.989280085517471 -7.5332762391425803 -1 0 0 I I #
vertex $-1 $419 $652 #
straight-curve $-1 0 21.989280085517471 -7.5332762391425803 1 0 0 I I #
point $-1 43.436384166997286 21.989280085517471 -7.5332762391425803 #
point $-1 43.436384166997286 -21.989280085517471 -7.5332762391425803 #
straight-curve $-1 -43.436384166997286 0 7.5332762391425803 0 -1 0 I I #
point $-1 -43.436384166997286 21.989280085517471 7.5332762391425803 #
point $-1 -43.436384166997286 -21.989280085517471 7.5332762391425803 #
straight-curve $-1 43.436384166997286 -21.989280085517471 0 0 0 -1 I I #
straight-curve $-1 43.436384166997286 21.989280085517471 0 0 0 -1 I I #
plane-surface $-1 43.436384166997286 0 0 -1 0 0 0 0 1 forward_v I I I I #
coedge $-1 $440 $439 $450 $588 reversed $185 $-1 #
coedge $-1 $653 $443 $440 $579 forward $437 $-1 #
edge $-1 $580 15.891126650920626 $654 21.989280085517471 $440 $655 forward 7 unknown #
vertex $-1 $579 $656 #
straight-curve $-1 -43.436384166997286 -15.891126650920626 3.0166381195712901 0 0 -1 I I #
coedge $-1 $443 $653 $445 $584 forward $437 $-1 #
straight-curve $-1 0 -15.891126650920626 7.5332762391425803 -1 0 0 I I #
edge $-1 $591 -21.989280085517471 $446 -15.891126650920626 $445 $657 forward 7 unknown #
point $-1 43.436384166997286 -15.891126650920626 7.5332762391425803 #
straight-curve $-1 -43.436384166997286 -9.4701016841095242 4.5332762391425803 0 -1 0 I I #
coedge $-1 $450 $449 $653 $658 reversed $300 $-1 #
edge $-1 $654 -7.5332762391425803 $451 -4.5332762391425803 $577 $659 forward 7 unknown #
point $-1 -43.436384166997286 -21.989280085517471 4.5332762391425803 #
point $-1 -43.436384166997286 -15.891126650920626 4.5332762391425803 #
vertex $-1 $584 $660 #
straight-curve $-1 43.436384166997286 -21.989280085517471 0 0 0 -1 I I #
coedge $-1 $469 $468 $461 $594 forward $458 $-1 #
edge $-1 $595 26.264474207726515 $598 31.765959472777858 $593 $661 forward 7 unknown #
vertex $-1 $473 $662 #
straight-curve $-1 -50.215024449501527 3.049076717298421 7.5332762391425803 -1 0 0 I I #
edge $-1 $598 -3.6644267189144397 $470 4.8951267221464771 $469 $663 forward 7 unknown #
vertex $-1 $597 $664 #
straight-curve $-1 -43.436384166997286 3.049076717298421 2.031790974091237 0.75470957328743171 0 0.6560590369687036 I I #
point $-1 -37.107649460410116 3.049076717298421 7.5332762391425803 #
point $-1 -43.436384166997286 -5.5104767237624959 2.031790974091237 #
straight-curve $-1 -43.436384166997286 0 7.5332762391425803 0 -1 0 I I #
vertex $-1 $476 $665 #
point $-1 -38.651619659703655 -3.0648900263165224 3.6806064873871978 #
vertex $-1 $480 $666 #
point $-1 -38.651619659703655 0.60349001985244399 3.6806064873871978 #
coedge $-1 $608 $486 $614 $667 reversed $340 $-1 #
coedge $-1 $486 $607 $489 $612 reversed $340 $-1 #
edge $-1 $610 -13.13452840302396 $494 -4.5749749619630453 $493 $668 forward 7 unknown #
vertex $-1 $488 $669 #
straight-curve $-1 -31.568998715342445 21.989280085517471 12.347951980020186 -0.75470957328743171 0 -0.6560590369687036 I I #
edge $-1 $490 37.107649460410116 $616 43.436384166997286 $608 $670 forward 7 unknown #
point $-1 -37.107649460410116 21.989280085517464 7.5332762391425803 #
coedge $-1 $493 $492 $607 $667 forward $484 $-1 #
point $-1 -43.436384166997286 13.429726644456549 2.031790974091237 #
vertex $-1 $612 $671 #
straight-curve $-1 -43.436384166997286 0 7.5332762391425803 0 -1 0 I I #
vertex $-1 $500 $672 #
point $-1 -38.651619659703655 15.875313341902526 3.6806064873871978 #
vertex $-1 $504 $673 #
point $-1 -38.651619659703655 19.543693388071496 3.6806064873871978 #
edge $-1 $623 54.761306573729392 $626 60.26279183878075 $509 $674 forward 7 unknown #
vertex $-1 $523 $675 #
straight-curve $-1 17.43316948967805 -5.5104767237624959 7.5332762391425803 1 0 0 I I #
edge $-1 $626 -4.8951267221464771 $520 3.6644267189144397 $519 $676 forward 7 unknown #
vertex $-1 $625 $677 #
straight-curve $-1 -22.127325752649668 -5.5104767237624959 59.025455706096992 -0.75470957328743171 0 0.6560590369687036 I I #
point $-1 37.107649460410101 -5.5104767237624959 7.5332762391425803 #
point $-1 43.436384166997286 3.049076717298421 2.0317909740912228 #
straight-curve $-1 43.436384166997286 0 7.5332762391425803 0 1 0 I I #
vertex $-1 $526 $678 #
point $-1 39.406329232991091 -3.0648900263165224 3.0245474504184906 #
vertex $-1 $530 $679 #
point $-1 39.406329232991091 0.60349001985244399 3.0245474504184906 #
coedge $-1 $537 $536 $544 $640 reversed $259 $-1 #
edge $-1 $540 13.429726644456549 $643 21.989280085517471 $537 $680 forward 7 unknown #
straight-curve $-1 43.436384166997286 13.429726644456549 62.294582812871973 0 0 -1 I I #
point $-1 43.436384166997286 13.429726644456549 7.5332762391425803 #
straight-curve $-1 43.436384166997286 8.8547516824935038 2.0317909740912228 0 1 0 I I #
edge $-1 $643 -7.5332762391425803 $545 -2.0317909740912228 $635 $681 forward 7 unknown #
point $-1 43.436384166997286 21.989280085517464 2.0317909740912228 #
point $-1 43.436384166997286 13.429726644456549 2.0317909740912228 #
vertex $-1 $636 $682 #
straight-curve $-1 0 21.989280085517471 7.5332762391425803 -1 0 0 I I #
vertex $-1 $552 $683 #
point $-1 39.406329232991091 15.875313341902526 3.0245474504184906 #
vertex $-1 $556 $684 #
point $-1 39.406329232991091 19.543693388071496 3.0245474504184906 #
straight-curve $-1 -43.436384166997286 21.989280085517471 0 0 0 -1 I I #
point $-1 -43.436384166997286 -21.989280085517471 -7.5332762391425803 #
straight-curve $-1 -43.436384166997286 0 -7.5332762391425803 0 1 0 I I #
point $-1 -43.436384166997286 21.989280085517471 -7.5332762391425803 #
coedge $-1 $582 $578 $587 $658 forward $437 $-1 #
vertex $-1 $579 $685 #
straight-curve $-1 -43.436384166997286 0 7.5332762391425803 0 -1 0 I I #
point $-1 -43.436384166997286 -15.891126650920626 7.5332762391425803 #
straight-curve $-1 43.436384166997286 0 7.5332762391425803 0 1 0 I I #
edge $-1 $654 -43.436384166997286 $591 43.436384166997286 $587 $686 forward 7 unknown #
straight-curve $-1 -43.436384166997286 -21.989280085517471 0 0 0 -1 I I #
point $-1 43.436384166997286 -21.989280085517471 7.5332762391425803 #
straight-curve $-1 -43.436384166997286 3.049076717298421 33.797750446869095 0 0 -1 I I #
point $-1 -43.436384166997286 3.049076717298421 7.5332762391425803 #
straight-curve $-1 -43.436384166997286 -0.61535000161601872 2.031790974091237 0 -1 0 I I #
point $-1 -43.436384166997286 3.049076717298421 2.031790974091237 #
point $-1 -38.70094492786302 -3.0648900263165224 2.97522218225913 #
point $-1 -38.70094492786302 0.60349001985244399 2.97522218225913 #
edge $-1 $616 -7.5332762391425803 $610 -2.031790974091237 $607 $687 forward 7 unknown #
straight-curve $-1 -43.436384166997286 8.8547516824935038 2.031790974091237 0 -1 0 I I #
point $-1 -43.436384166997286 21.989280085517464 2.031790974091237 #
straight-curve $-1 0 21.989280085517471 7.5332762391425803 -1 0 0 I I #
point $-1 -43.436384166997286 21.989280085517471 7.5332762391425803 #
point $-1 -38.70094492786302 15.875313341902526 2.97522218225913 #
point $-1 -38.70094492786302 19.543693388071496 2.97522218225913 #
straight-curve $-1 43.436384166997286 -5.5104767237624959 62.294582812871973 0 0 -1 I I #
point $-1 43.436384166997286 -5.5104767237624959 7.5332762391425803 #
straight-curve $-1 43.436384166997286 -0.61535000161601872 2.0317909740912228 0 1 0 I I #
point $-1 43.436384166997286 -5.5104767237624959 2.0317909740912228 #
point $-1 38.70094492786302 -3.0648900263165224 2.9752221822591265 #
point $-1 38.70094492786302 0.60349001985244399 2.9752221822591265 #
straight-curve $-1 43.436384166997286 0 7.5332762391425803 0 1 0 I I #
straight-curve $-1 43.436384166997286 21.989280085517471 0 0 0 -1 I I #
point $-1 43.436384166997286 21.989280085517471 7.5332762391425803 #
point $-1 38.70094492786302 15.875313341902526 2.9752221822591265 #
point $-1 38.70094492786302 19.543693388071496 2.9752221822591265 #
point $-1 -43.436384166997286 -21.989280085517471 7.5332762391425803 #
straight-curve $-1 0 -21.989280085517471 7.5332762391425803 1 0 0 I I #
straight-curve $-1 -43.436384166997286 21.989280085517471 0 0 0 -1 I I #
End-of-ACIS-data 