500 0 9 0           
7 Unknown 11 ACIS 5.0 NT 24 Fri Mar 26 18:09:24 1999 
-1 9.9999999999999995e-007 1e-010 
body $-1 $9 $-1 $10 #
body $-1 $11 $-1 $12 #
body $-1 $13 $-1 $14 #
body $-1 $15 $-1 $16 #
body $-1 $17 $-1 $18 #
body $-1 $19 $-1 $20 #
body $-1 $21 $-1 $22 #
body $-1 $23 $-1 $24 #
body $-1 $25 $-1 $26 #
lump $-1 $-1 $27 $0 #
transform $-1 1 0 0 0 1 0 0 0 1 57.697073274941253 36.584033100501863 16.793798403409188 1 rotate no_reflect no_shear #
lump $-1 $-1 $28 $1 #
transform $-1 1 0 0 0 1 0 0 0 1 57.697073274941253 36.584033100501863 16.793798403409188 1 rotate no_reflect no_shear #
lump $-1 $-1 $29 $2 #
transform $-1 1 0 0 0 1 0 0 0 1 57.697073274941253 36.584033100501863 16.793798403409188 1 rotate no_reflect no_shear #
lump $-1 $-1 $30 $3 #
transform $-1 1 0 0 0 1 0 0 0 1 57.697073274941253 36.584033100501863 16.793798403409188 1 rotate no_reflect no_shear #
lump $-1 $-1 $31 $4 #
transform $-1 1 0 0 0 1 0 0 0 1 57.697073274941253 36.584033100501863 16.793798403409188 1 rotate no_reflect no_shear #
lump $-1 $-1 $32 $5 #
transform $-1 1 0 0 0 1 0 0 0 1 57.697073274941253 36.584033100501863 16.793798403409188 1 rotate no_reflect no_shear #
lump $-1 $-1 $33 $6 #
transform $-1 1 0 0 0 1 0 0 0 1 57.697073274941253 36.584033100501863 16.793798403409188 1 rotate no_reflect no_shear #
lump $-1 $-1 $34 $7 #
transform $-1 1 0 0 0 1 0 0 0 1 57.697073274941253 36.584033100501863 16.793798403409188 1 rotate no_reflect no_shear #
lump $-1 $-1 $35 $8 #
transform $-1 1 0 0 0 1 0 0 0 1 57.697073274941253 36.584033100501863 16.793798403409188 1 rotate no_reflect no_shear #
shell $-1 $-1 $-1 $36 $-1 $9 #
shell $-1 $-1 $-1 $37 $-1 $11 #
shell $-1 $-1 $-1 $38 $-1 $13 #
shell $-1 $-1 $-1 $39 $-1 $15 #
shell $-1 $-1 $-1 $40 $-1 $17 #
shell $-1 $-1 $-1 $41 $-1 $19 #
shell $-1 $-1 $-1 $42 $-1 $21 #
shell $-1 $-1 $-1 $43 $-1 $23 #
shell $-1 $-1 $-1 $44 $-1 $25 #
face $-1 $45 $46 $27 $-1 $47 forward single #
face $-1 $48 $49 $28 $-1 $50 forward single #
face $-1 $51 $52 $29 $-1 $53 forward single #
face $-1 $54 $55 $30 $-1 $56 reversed single #
face $-1 $57 $58 $31 $-1 $59 forward single #
face $-1 $60 $61 $32 $-1 $62 forward single #
face $-1 $63 $64 $33 $-1 $65 reversed single #
face $-1 $66 $67 $34 $-1 $68 forward single #
face $-1 $69 $70 $35 $-1 $71 forward single #
face $-1 $72 $73 $27 $-1 $74 reversed single #
loop $-1 $-1 $75 $36 #
plane-surface $-1 0 0 16.793798403409188 0 0 1 1 0 0 forward_v I I I I #
face $-1 $76 $77 $28 $-1 $78 reversed single #
loop $-1 $-1 $79 $37 #
plane-surface $-1 -57.697073274941253 0 0 1 0 0 0 0 -1 forward_v I I I I #
face $-1 $80 $81 $29 $-1 $82 reversed single #
loop $-1 $-1 $83 $38 #
plane-surface $-1 57.697073274941253 0 0 -1 0 0 0 0 1 forward_v I I I I #
face $-1 $84 $85 $30 $-1 $86 reversed single #
loop $-1 $-1 $87 $39 #
plane-surface $-1 -1.3746098761318635 -134.4438203041806 74.805722239805149 -1 0 0 0 -0.84804810408105047 0.52991925155115449 forward_v I I I I #
face $-1 $88 $89 $31 $-1 $90 forward single #
loop $-1 $91 $92 $40 #
cone-surface $-1 -15.026478659573876 -35.179696565242075 14.960010809282604 0 0.84804810408105047 -0.52991925155115449 0.5 0 0 1 I I 0 1 0.5 forward I I I I #
face $-1 $93 $94 $32 $-1 $95 forward single #
loop $-1 $96 $97 $41 #
cone-surface $-1 -6.8353573895086726 -35.179696565242075 14.960010809282604 0 0.84804810408105047 -0.52991925155115449 0.5 0 0 1 I I 0 1 0.5 forward I I I I #
face $-1 $98 $99 $33 $-1 $100 reversed single #
loop $-1 $-1 $101 $42 #
plane-surface $-1 23.753520796304336 86.932750227564497 135.45398010709408 1 0 0 0 -0.80901700255871778 -0.5877852410284794 forward_v I I I I #
face $-1 $102 $103 $34 $-1 $104 forward single #
loop $-1 $105 $106 $43 #
cone-surface $-1 29.375593601342509 32.353885357374132 11.746650791760366 0 -0.80901700255871778 -0.5877852410284794 1 0 0 1 I I 0 1 1 forward I I I I #
face $-1 $107 $108 $35 $-1 $109 forward single #
loop $-1 $110 $111 $44 #
cone-surface $-1 37.80870280889976 32.353885357374132 11.746650791760366 0 -0.80901700255871778 -0.5877852410284794 1 0 0 1 I I 0 1 1 forward I I I I #
face $-1 $112 $113 $27 $-1 $114 reversed single #
loop $-1 $-1 $115 $45 #
plane-surface $-1 0 0 -16.793798403409188 0 0 1 1 0 0 forward_v I I I I #
coedge $-1 $116 $117 $118 $119 forward $46 $-1 #
face $-1 $120 $121 $28 $-1 $122 forward single #
loop $-1 $-1 $123 $48 #
plane-surface $-1 0 36.584033100501863 0 0 -1 0 0 0 -1 forward_v I I I I #
coedge $-1 $124 $125 $126 $127 forward $49 $-1 #
face $-1 $128 $129 $29 $-1 $130 forward single #
loop $-1 $-1 $131 $51 #
plane-surface $-1 0 -36.584033100501863 0 0 1 0 0 0 1 forward_v I I I I #
coedge $-1 $132 $133 $134 $135 forward $52 $-1 #
face $-1 $136 $137 $30 $-1 $138 reversed single #
loop $-1 $-1 $139 $54 #
plane-surface $-1 -10.93091802454127 -36.584033100501856 13.656142466707173 0 -0.84804810408105047 0.52991925155115449 1 0 0 forward_v I I I I #
coedge $-1 $140 $141 $142 $143 reversed $55 $-1 #
face $-1 $-1 $144 $31 $-1 $145 forward single #
loop $-1 $146 $147 $57 #
cone-surface $-1 -15.026478659573876 -34.543660487181285 14.562571370619239 0 0.84804810408105047 -0.52991925155115449 0.25 0 0 1 I I -0.70710678118654746 0.70710678118654746 0.25 forward I I I I #
loop $-1 $-1 $148 $40 #
coedge $-1 $92 $92 $149 $150 reversed $58 $-1 #
face $-1 $-1 $151 $32 $-1 $152 forward single #
loop $-1 $153 $154 $60 #
cone-surface $-1 -6.8353573895086726 -34.543660487181285 14.562571370619239 0 0.84804810408105047 -0.52991925155115449 0.25 0 0 1 I I -0.70710678118654746 0.70710678118654746 0.25 forward I I I I #
loop $-1 $-1 $155 $41 #
coedge $-1 $97 $97 $156 $157 reversed $61 $-1 #
face $-1 $158 $159 $33 $-1 $160 reversed single #
loop $-1 $-1 $161 $63 #
plane-surface $-1 33.592148205121127 -6.4230763270428639 67.627003863995711 0 0.80901700255871778 0.5877852410284794 1 0 0 forward_v I I I I #
coedge $-1 $162 $163 $164 $165 reversed $64 $-1 #
face $-1 $-1 $166 $34 $-1 $167 forward single #
loop $-1 $168 $169 $66 #
cone-surface $-1 29.375593601342509 30.756541566439999 10.586112629780981 0 -0.80901700255871778 -0.5877852410284794 0.5 0 0 1 I I -0.70710678118654746 0.70710678118654746 0.5 forward I I I I #
loop $-1 $-1 $170 $43 #
coedge $-1 $106 $106 $171 $172 reversed $67 $-1 #
face $-1 $-1 $173 $35 $-1 $174 forward single #
loop $-1 $175 $176 $69 #
cone-surface $-1 37.80870280889976 30.756541566439999 10.586112629780981 0 -0.80901700255871778 -0.5877852410284794 0.5 0 0 1 I I -0.70710678118654746 0.70710678118654746 0.5 forward I I I I #
loop $-1 $-1 $177 $44 #
coedge $-1 $111 $111 $178 $179 reversed $70 $-1 #
face $-1 $180 $181 $27 $-1 $182 reversed single #
loop $-1 $-1 $183 $72 #
plane-surface $-1 0 -36.584033100501863 0 0 1 0 0 0 1 forward_v I I I I #
coedge $-1 $184 $185 $186 $187 forward $73 $-1 #
coedge $-1 $188 $75 $189 $190 forward $46 $-1 #
coedge $-1 $75 $188 $191 $192 forward $46 $-1 #
coedge $-1 $193 $194 $75 $119 reversed $195 $-1 #
edge $-1 $196 -36.584033100501863 $197 36.584033100501863 $118 $198 forward 7 unknown #
face $-1 $199 $200 $28 $-1 $201 reversed single #
loop $-1 $-1 $126 $76 #
plane-surface $-1 -64.830222105442928 0 16.293798403409188 0 0 1 1 0 0 forward_v I I I I #
coedge $-1 $202 $203 $125 $204 forward $77 $-1 #
coedge $-1 $205 $79 $206 $207 reversed $49 $-1 #
coedge $-1 $79 $205 $123 $204 reversed $49 $-1 #
coedge $-1 $208 $209 $79 $127 reversed $121 $-1 #
edge $-1 $210 -36.584033100501863 $211 36.584033100501863 $126 $212 forward 7 unknown #
face $-1 $213 $214 $29 $-1 $215 reversed single #
loop $-1 $-1 $216 $80 #
plane-surface $-1 64.830222105442914 0 16.293798403409188 0 0 1 1 0 0 forward_v I I I I #
coedge $-1 $217 $218 $133 $219 forward $81 $-1 #
coedge $-1 $220 $83 $221 $222 reversed $52 $-1 #
coedge $-1 $83 $220 $131 $219 reversed $52 $-1 #
coedge $-1 $223 $224 $83 $135 reversed $129 $-1 #
edge $-1 $225 -36.584033100501863 $226 36.584033100501863 $134 $227 forward 7 unknown #
face $-1 $228 $229 $30 $-1 $230 forward single #
loop $-1 $-1 $231 $84 #
plane-surface $-1 -20.487226172950677 -134.4438203041806 74.805722239805149 1 0 0 0 0.84804810408105047 -0.52991925155115449 forward_v I I I I #
coedge $-1 $232 $233 $234 $235 reversed $85 $-1 #
coedge $-1 $141 $87 $236 $237 reversed $55 $-1 #
coedge $-1 $87 $140 $232 $238 reversed $55 $-1 #
coedge $-1 $234 $239 $87 $143 forward $229 $-1 #
edge $-1 $240 30.63787705158844 $241 32.598502018026977 $142 $242 forward 7 unknown #
loop $-1 $-1 $149 $88 #
plane-surface $-1 -10.93091802454127 -36.584033100501856 13.656142466707173 0 -0.84804810408105047 0.52991925155115449 1 0 0 forward_v I I I I #
loop $-1 $-1 $243 $57 #
coedge $-1 $147 $147 $148 $244 reversed $89 $-1 #
coedge $-1 $148 $148 $147 $244 forward $91 $-1 #
coedge $-1 $149 $149 $92 $150 forward $144 $-1 #
edge $-1 $245 1.5080108043666962e-015 $245 6.2831853071796022 $149 $246 forward 7 unknown #
loop $-1 $-1 $156 $93 #
plane-surface $-1 -10.93091802454127 -36.584033100501856 13.656142466707173 0 -0.84804810408105047 0.52991925155115449 1 0 0 forward_v I I I I #
loop $-1 $-1 $247 $60 #
coedge $-1 $154 $154 $155 $248 reversed $94 $-1 #
coedge $-1 $155 $155 $154 $248 forward $96 $-1 #
coedge $-1 $156 $156 $97 $157 forward $151 $-1 #
edge $-1 $249 1.5080108043666962e-015 $249 6.2831853071796022 $156 $250 forward 7 unknown #
face $-1 $251 $252 $33 $-1 $253 reversed single #
loop $-1 $-1 $254 $98 #
plane-surface $-1 43.430775613937918 86.932750227564497 135.45398010709408 -1 0 0 0 0.80901700255871778 0.5877852410284794 forward_v I I I I #
coedge $-1 $255 $256 $257 $258 reversed $99 $-1 #
coedge $-1 $163 $101 $259 $260 reversed $64 $-1 #
coedge $-1 $101 $162 $255 $261 reversed $64 $-1 #
coedge $-1 $257 $262 $101 $165 forward $263 $-1 #
edge $-1 $264 6.8823420132803861 $265 12.956966920226336 $164 $266 forward 7 unknown #
loop $-1 $-1 $171 $102 #
plane-surface $-1 33.592148205121127 -6.4230763270428639 67.627003863995711 0 0.80901700255871778 0.5877852410284794 1 0 0 forward_v I I I I #
loop $-1 $-1 $267 $66 #
coedge $-1 $169 $169 $170 $268 reversed $103 $-1 #
coedge $-1 $170 $170 $169 $268 forward $105 $-1 #
coedge $-1 $171 $171 $106 $172 forward $166 $-1 #
edge $-1 $269 3.9067786818759595e-015 $269 6.283185307179604 $171 $270 forward 7 unknown #
loop $-1 $-1 $178 $107 #
plane-surface $-1 33.592148205121127 -6.4230763270428639 67.627003863995711 0 0.80901700255871778 0.5877852410284794 1 0 0 forward_v I I I I #
loop $-1 $-1 $271 $69 #
coedge $-1 $176 $176 $177 $272 reversed $108 $-1 #
coedge $-1 $177 $177 $176 $272 forward $110 $-1 #
coedge $-1 $178 $178 $111 $179 forward $173 $-1 #
edge $-1 $273 3.9067786818759595e-015 $273 6.283185307179604 $178 $274 forward 7 unknown #
face $-1 $275 $276 $27 $-1 $277 reversed single #
loop $-1 $-1 $278 $112 #
plane-surface $-1 -57.697073274941253 0 0 1 0 0 0 0 -1 forward_v I I I I #
coedge $-1 $279 $191 $280 $281 forward $113 $-1 #
coedge $-1 $282 $115 $279 $283 forward $73 $-1 #
coedge $-1 $115 $282 $284 $285 forward $73 $-1 #
coedge $-1 $194 $193 $115 $187 reversed $195 $-1 #
edge $-1 $286 -36.584033100501863 $287 36.584033100501863 $186 $288 forward 7 unknown #
coedge $-1 $117 $116 $289 $290 forward $46 $-1 #
coedge $-1 $291 $292 $116 $190 reversed $276 $-1 #
edge $-1 $197 -57.697073274941253 $293 57.697073274941253 $189 $294 forward 7 unknown #
coedge $-1 $183 $295 $117 $192 reversed $113 $-1 #
edge $-1 $296 -57.697073274941253 $196 57.697073274941253 $191 $297 forward 7 unknown #
coedge $-1 $186 $118 $295 $298 forward $195 $-1 #
coedge $-1 $118 $186 $291 $299 reversed $195 $-1 #
loop $-1 $-1 $193 $275 #
vertex $-1 $119 $300 #
vertex $-1 $119 $301 #
straight-curve $-1 57.697073274941253 0 16.793798403409188 0 1 0 I I #
face $-1 $302 $303 $28 $-1 $304 reversed single #
loop $-1 $-1 $305 $120 #
plane-surface $-1 -64.830222105442928 0 10.090543311523366 0 0 1 1 0 0 forward_v I I I I #
coedge $-1 $306 $123 $307 $308 reversed $77 $-1 #
coedge $-1 $123 $306 $208 $309 reversed $77 $-1 #
edge $-1 $210 -16.293798403409188 $310 -10.090543311523366 $123 $311 forward 7 unknown #
coedge $-1 $125 $124 $305 $312 forward $49 $-1 #
coedge $-1 $313 $314 $124 $207 forward $315 $-1 #
edge $-1 $316 10.090543311523366 $211 16.293798403409188 $206 $317 forward 7 unknown #
coedge $-1 $318 $126 $203 $309 forward $121 $-1 #
coedge $-1 $126 $318 $313 $319 forward $121 $-1 #
vertex $-1 $204 $320 #
vertex $-1 $319 $321 #
straight-curve $-1 -57.697073274941253 0 16.293798403409188 0 -1 0 I I #
face $-1 $322 $323 $29 $-1 $324 reversed single #
loop $-1 $-1 $325 $128 #
plane-surface $-1 64.830222105442914 0 10.090543311523366 0 0 1 1 0 0 forward_v I I I I #
coedge $-1 $224 $223 $326 $327 forward $129 $-1 #
coedge $-1 $328 $131 $329 $330 reversed $81 $-1 #
coedge $-1 $131 $328 $223 $331 reversed $81 $-1 #
edge $-1 $225 -16.293798403409188 $332 -10.090543311523366 $131 $333 forward 7 unknown #
coedge $-1 $133 $132 $334 $335 forward $52 $-1 #
coedge $-1 $336 $337 $132 $222 forward $338 $-1 #
edge $-1 $339 10.090543311523366 $226 16.293798403409188 $221 $340 forward 7 unknown #
coedge $-1 $216 $134 $218 $331 forward $129 $-1 #
coedge $-1 $134 $216 $336 $341 forward $129 $-1 #
vertex $-1 $219 $342 #
vertex $-1 $341 $343 #
straight-curve $-1 57.697073274941253 0 16.293798403409188 0 1 0 I I #
face $-1 $-1 $344 $30 $-1 $345 reversed single #
loop $-1 $-1 $142 $136 #
plane-surface $-1 0 0 16.793798403409188 0 0 1 1 0 0 forward_v I I I I #
coedge $-1 $346 $347 $348 $349 reversed $137 $-1 #
coedge $-1 $350 $139 $141 $238 forward $85 $-1 #
coedge $-1 $139 $350 $346 $351 forward $85 $-1 #
coedge $-1 $348 $142 $139 $235 forward $229 $-1 #
edge $-1 $241 -4.0908491361387718 $352 15.021767160680042 $234 $353 forward 7 unknown #
coedge $-1 $354 $355 $140 $237 forward $344 $-1 #
edge $-1 $356 -23.746718653195412 $240 -20.609062716493387 $236 $357 forward 7 unknown #
edge $-1 $241 -3.6998560831664093 $356 1.2803919046239758e-014 $141 $358 forward 7 unknown #
coedge $-1 $142 $348 $354 $359 forward $229 $-1 #
vertex $-1 $237 $360 #
vertex $-1 $143 $361 #
straight-curve $-1 -1.3746098761318635 -67.221910152090302 16.793798403409188 0 1 0 I I #
coedge $-1 $243 $243 $-1 $362 reversed $146 $-1 #
edge $-1 $363 0 $363 6.2831853071796004 $147 $364 forward 7 unknown #
vertex $-1 $150 $365 #
ellipse-curve $-1 -15.026478659573876 -35.60372061728259 15.224970435058177 0 -0.84804810408105047 0.52991925155115449 0.5 0 0 1 I I #
coedge $-1 $247 $247 $-1 $366 reversed $153 $-1 #
edge $-1 $367 0 $367 6.2831853071796004 $154 $368 forward 7 unknown #
vertex $-1 $157 $369 #
ellipse-curve $-1 -6.8353573895086726 -35.60372061728259 15.224970435058177 0 -0.84804810408105047 0.52991925155115449 0.5 0 0 1 I I #
face $-1 $-1 $263 $33 $-1 $370 forward single #
loop $-1 $-1 $371 $158 #
plane-surface $-1 0 36.584033100501863 0 0 -1 0 0 0 -1 forward_v I I I I #
coedge $-1 $372 $373 $374 $375 reversed $159 $-1 #
coedge $-1 $376 $161 $163 $261 forward $99 $-1 #
coedge $-1 $161 $376 $372 $377 forward $99 $-1 #
coedge $-1 $374 $164 $161 $258 forward $263 $-1 #
edge $-1 $265 6.9574466937437727 $378 26.634701511377354 $257 $379 forward 7 unknown #
coedge $-1 $380 $381 $162 $260 forward $252 $-1 #
edge $-1 $382 -59.294195790505213 $264 -50.933191650137857 $259 $383 forward 7 unknown #
edge $-1 $265 62.833296827895893 $382 73.168066201003754 $163 $384 forward 7 unknown #
coedge $-1 $164 $374 $380 $385 forward $263 $-1 #
loop $-1 $-1 $374 $251 #
vertex $-1 $260 $386 #
vertex $-1 $165 $387 #
straight-curve $-1 23.753520796304336 43.466375113782249 16.793798403409184 0 -1 0 I I #
coedge $-1 $267 $267 $-1 $388 reversed $168 $-1 #
edge $-1 $389 0 $389 6.2831853071796004 $169 $390 forward 7 unknown #
vertex $-1 $172 $391 #
ellipse-curve $-1 29.375593601342509 33.546720647028891 12.613296333225502 0 0.80901700255871778 0.5877852410284794 1 0 0 1 I I #
coedge $-1 $271 $271 $-1 $392 reversed $175 $-1 #
edge $-1 $393 0 $393 6.2831853071796004 $176 $394 forward 7 unknown #
vertex $-1 $179 $395 #
ellipse-curve $-1 37.80870280889976 33.546720647028891 12.613296333225502 0 0.80901700255871778 0.5877852410284794 1 0 0 1 I I #
face $-1 $-1 $195 $27 $-1 $396 reversed single #
loop $-1 $-1 $291 $180 #
plane-surface $-1 0 36.584033100501863 0 0 -1 0 0 0 -1 forward_v I I I I #
coedge $-1 $397 $289 $292 $398 forward $181 $-1 #
coedge $-1 $295 $183 $184 $283 reversed $113 $-1 #
coedge $-1 $289 $397 $183 $281 reversed $181 $-1 #
edge $-1 $296 -16.793798403409188 $399 16.793798403409188 $280 $400 forward 7 unknown #
coedge $-1 $185 $184 $397 $401 forward $73 $-1 #
edge $-1 $287 -57.697073274941253 $399 57.697073274941253 $279 $402 forward 7 unknown #
coedge $-1 $292 $291 $185 $285 reversed $276 $-1 #
edge $-1 $403 -57.697073274941253 $286 57.697073274941253 $284 $404 forward 7 unknown #
vertex $-1 $187 $405 #
vertex $-1 $298 $406 #
straight-curve $-1 57.697073274941253 0 -16.793798403409188 0 -1 0 I I #
coedge $-1 $278 $280 $188 $290 reversed $181 $-1 #
edge $-1 $293 -36.584033100501863 $296 36.584033100501863 $289 $407 forward 7 unknown #
coedge $-1 $284 $189 $194 $299 forward $276 $-1 #
coedge $-1 $189 $284 $278 $398 reversed $276 $-1 #
vertex $-1 $190 $408 #
straight-curve $-1 0 36.584033100501863 16.793798403409188 -1 0 0 I I #
coedge $-1 $191 $279 $193 $298 reversed $113 $-1 #
vertex $-1 $290 $409 #
straight-curve $-1 0 -36.584033100501863 16.793798403409188 1 0 0 I I #
edge $-1 $196 -16.793798403409188 $287 16.793798403409188 $193 $410 forward 7 unknown #
edge $-1 $197 -16.793798403409188 $286 16.793798403409188 $194 $411 forward 7 unknown #
point $-1 57.697073274941253 -36.584033100501863 16.793798403409188 #
point $-1 57.697073274941253 36.584033100501863 16.793798403409188 #
face $-1 $-1 $315 $28 $-1 $412 reversed single #
loop $-1 $-1 $413 $199 #
plane-surface $-1 -71.963370935944596 0 13.192170857466277 1 0 0 0 0 -1 forward_v I I I I #
coedge $-1 $414 $307 $205 $312 reversed $200 $-1 #
coedge $-1 $203 $202 $413 $415 reversed $77 $-1 #
coedge $-1 $305 $416 $202 $308 forward $200 $-1 #
edge $-1 $417 -7.1331488305016677 $310 7.1331488305016677 $202 $418 forward 7 unknown #
edge $-1 $210 -7.1331488305016677 $419 7.1331488305016677 $203 $420 forward 7 unknown #
vertex $-1 $204 $421 #
straight-curve $-1 -57.697073274941253 36.584033100501863 0 0 0 -1 I I #
edge $-1 $316 -36.584033100501863 $310 36.584033100501863 $305 $422 forward 7 unknown #
coedge $-1 $423 $206 $209 $319 reversed $315 $-1 #
coedge $-1 $206 $423 $414 $424 reversed $315 $-1 #
loop $-1 $-1 $206 $302 #
vertex $-1 $207 $425 #
straight-curve $-1 -57.697073274941253 -36.584033100501863 0 0 0 1 I I #
coedge $-1 $209 $208 $426 $427 forward $121 $-1 #
edge $-1 $428 -7.1331488305016677 $211 7.1331488305016677 $313 $429 forward 7 unknown #
point $-1 -57.69707327494126 36.584033100501863 16.293798403409188 #
point $-1 -57.69707327494126 -36.584033100501863 16.293798403409188 #
face $-1 $-1 $338 $29 $-1 $430 reversed single #
loop $-1 $-1 $431 $213 #
plane-surface $-1 71.963370935944596 0 13.192170857466277 -1 0 0 0 0 1 forward_v I I I I #
coedge $-1 $329 $432 $433 $434 forward $214 $-1 #
coedge $-1 $431 $435 $216 $327 reversed $323 $-1 #
edge $-1 $436 -36.584033100501863 $437 36.584033100501863 $326 $438 forward 7 unknown #
coedge $-1 $218 $217 $431 $439 reversed $81 $-1 #
coedge $-1 $334 $325 $217 $330 forward $214 $-1 #
edge $-1 $440 -7.1331488305016819 $332 7.1331488305016748 $217 $441 forward 7 unknown #
edge $-1 $225 -7.1331488305016748 $436 7.1331488305016819 $218 $442 forward 7 unknown #
vertex $-1 $219 $443 #
straight-curve $-1 57.697073274941253 -36.584033100501863 0 0 0 -1 I I #
coedge $-1 $432 $329 $220 $335 reversed $214 $-1 #
edge $-1 $339 -36.584033100501863 $332 36.584033100501863 $334 $444 forward 7 unknown #
coedge $-1 $445 $221 $224 $341 reversed $338 $-1 #
coedge $-1 $221 $445 $432 $446 reversed $338 $-1 #
loop $-1 $-1 $221 $322 #
vertex $-1 $222 $447 #
straight-curve $-1 57.697073274941253 36.584033100501863 0 0 0 1 I I #
edge $-1 $437 -7.1331488305016819 $226 7.1331488305016748 $336 $448 forward 7 unknown #
point $-1 57.697073274941239 -36.584033100501863 16.293798403409188 #
point $-1 57.697073274941239 36.584033100501863 16.293798403409188 #
loop $-1 $-1 $236 $228 #
plane-surface $-1 0 -36.584033100501863 0 0 1 0 0 0 1 forward_v I I I I #
coedge $-1 $347 $231 $233 $351 reversed $137 $-1 #
coedge $-1 $231 $346 $449 $450 reversed $137 $-1 #
coedge $-1 $239 $234 $231 $349 forward $229 $-1 #
edge $-1 $352 -32.598502018026977 $451 -30.63787705158844 $348 $452 forward 7 unknown #
coedge $-1 $233 $232 $355 $453 reversed $85 $-1 #
edge $-1 $454 -1.2803919046239758e-014 $352 3.6998560831664093 $346 $455 forward 7 unknown #
vertex $-1 $235 $456 #
straight-curve $-1 -5.4654590122706352 -34.623408134063325 16.793798403409188 -1 0 0 I I #
coedge $-1 $449 $236 $239 $359 reversed $344 $-1 #
coedge $-1 $236 $449 $350 $453 forward $344 $-1 #
vertex $-1 $237 $457 #
straight-curve $-1 -1.3746098761318635 -36.584033100501863 37.402861119902575 0 0 1 I I #
straight-curve $-1 -1.3746098761318635 -36.584033100501856 13.656142466707173 0 -0.52991925155115449 -0.84804810408105047 I I #
edge $-1 $451 -20.487226172950677 $240 -1.3746098761318635 $354 $458 forward 7 unknown #
point $-1 -1.3746098761318635 -36.584033100501863 16.793798403409188 #
point $-1 -1.3746098761318635 -34.623408134063325 16.793798403409188 #
edge $-1 $459 1 $459 0 $243 $-1 forward 7 unknown #
vertex $-1 $244 $460 #
ellipse-curve $-1 -15.026478659573876 -34.755672513201546 14.695051183507028 0 -0.84804810408105047 0.52991925155115449 0.5 0 0 1 I I #
point $-1 -14.526478659573876 -35.603720617282598 15.224970435058182 #
edge $-1 $461 1 $461 0 $247 $-1 forward 7 unknown #
vertex $-1 $248 $462 #
ellipse-curve $-1 -6.8353573895086726 -34.755672513201546 14.695051183507028 0 -0.84804810408105047 0.52991925155115449 0.5 0 0 1 I I #
point $-1 -6.3353573895086726 -35.603720617282598 15.224970435058182 #
plane-surface $-1 0 0 16.793798403409188 0 0 1 1 0 0 forward_v I I I I #
coedge $-1 $381 $380 $373 $463 forward $252 $-1 #
coedge $-1 $373 $254 $256 $377 reversed $159 $-1 #
coedge $-1 $254 $372 $371 $463 reversed $159 $-1 #
coedge $-1 $262 $257 $254 $375 forward $263 $-1 #
edge $-1 $378 -12.956966920226336 $464 -6.8823420132803861 $374 $465 forward 7 unknown #
coedge $-1 $256 $255 $381 $466 reversed $99 $-1 #
edge $-1 $467 -73.168066201003754 $378 -62.833296827895893 $372 $468 forward 7 unknown #
vertex $-1 $258 $469 #
straight-curve $-1 16.796074102560564 30.509408193555906 16.793798403409191 1 0 0 I I #
coedge $-1 $371 $259 $262 $385 reversed $252 $-1 #
coedge $-1 $259 $371 $376 $466 forward $252 $-1 #
vertex $-1 $260 $470 #
straight-curve $-1 23.753520796304336 36.584033100501863 67.726990053547041 0 0 1 I I #
straight-curve $-1 23.753520796304336 -6.4230763270428639 67.627003863995711 0 0.5877852410284794 -0.80901700255871778 I I #
edge $-1 $464 -43.430775613937918 $264 -23.753520796304336 $380 $471 forward 7 unknown #
point $-1 23.753520796304336 36.584033100501863 16.793798403409188 #
point $-1 23.753520796304336 30.509408193555913 16.793798403409184 #
edge $-1 $472 1 $472 0 $267 $-1 forward 7 unknown #
vertex $-1 $268 $473 #
ellipse-curve $-1 29.375593601342509 31.161050067719358 10.880005250295222 0 0.80901700255871778 0.5877852410284794 1 0 0 1 I I #
point $-1 30.375593601342509 33.546720647028913 12.613296333225513 #
edge $-1 $474 1 $474 0 $271 $-1 forward 7 unknown #
vertex $-1 $272 $475 #
ellipse-curve $-1 37.80870280889976 31.161050067719358 10.880005250295222 0 0.80901700255871778 0.5877852410284794 1 0 0 1 I I #
point $-1 38.80870280889976 33.546720647028913 12.613296333225513 #
plane-surface $-1 57.697073274941253 0 0 -1 0 0 0 0 1 forward_v I I I I #
coedge $-1 $280 $278 $282 $401 reversed $181 $-1 #
edge $-1 $293 -16.793798403409188 $403 16.793798403409188 $292 $476 forward 7 unknown #
vertex $-1 $401 $477 #
straight-curve $-1 -57.697073274941253 -36.584033100501863 0 0 0 -1 I I #
edge $-1 $399 -36.584033100501863 $403 36.584033100501863 $397 $478 forward 7 unknown #
straight-curve $-1 0 -36.584033100501863 -16.793798403409188 -1 0 0 I I #
vertex $-1 $285 $479 #
straight-curve $-1 0 36.584033100501863 -16.793798403409188 1 0 0 I I #
point $-1 57.697073274941253 36.584033100501863 -16.793798403409188 #
point $-1 57.697073274941253 -36.584033100501863 -16.793798403409188 #
straight-curve $-1 -57.697073274941253 0 16.793798403409188 0 -1 0 I I #
point $-1 -57.697073274941253 36.584033100501863 16.793798403409188 #
point $-1 -57.697073274941253 -36.584033100501863 16.793798403409188 #
straight-curve $-1 57.697073274941253 -36.584033100501863 0 0 0 -1 I I #
straight-curve $-1 57.697073274941253 36.584033100501863 0 0 0 -1 I I #
plane-surface $-1 0 -36.584033100501863 0 0 1 0 0 0 1 forward_v I I I I #
coedge $-1 $480 $426 $306 $415 forward $303 $-1 #
coedge $-1 $416 $305 $314 $424 forward $200 $-1 #
edge $-1 $419 -3.101627545942911 $417 3.101627545942911 $306 $481 forward 7 unknown #
coedge $-1 $307 $414 $480 $482 forward $200 $-1 #
vertex $-1 $308 $483 #
straight-curve $-1 -64.830222105442928 36.584033100501863 10.090543311523366 1 0 0 I I #
vertex $-1 $309 $484 #
straight-curve $-1 -64.830222105442928 36.584033100501863 16.293798403409188 -1 0 0 I I #
point $-1 -57.69707327494126 36.584033100501863 10.090543311523366 #
straight-curve $-1 -57.697073274941253 0 10.090543311523366 0 1 0 I I #
coedge $-1 $314 $313 $485 $486 forward $315 $-1 #
edge $-1 $316 -7.1331488305016677 $487 7.1331488305016677 $314 $488 forward 7 unknown #
point $-1 -57.69707327494126 -36.584033100501863 10.090543311523366 #
coedge $-1 $413 $485 $318 $427 reversed $303 $-1 #
edge $-1 $419 -36.584033100501863 $428 36.584033100501863 $426 $489 forward 7 unknown #
vertex $-1 $427 $490 #
straight-curve $-1 -64.830222105442928 -36.584033100501863 16.293798403409188 1 0 0 I I #
plane-surface $-1 0 36.584033100501863 0 0 -1 0 0 0 -1 forward_v I I I I #
coedge $-1 $433 $326 $328 $439 forward $323 $-1 #
coedge $-1 $325 $334 $337 $446 forward $214 $-1 #
coedge $-1 $435 $431 $325 $434 reversed $323 $-1 #
edge $-1 $491 -36.584033100501863 $440 36.584033100501863 $433 $492 forward 7 unknown #
coedge $-1 $326 $433 $445 $493 reversed $323 $-1 #
vertex $-1 $327 $494 #
vertex $-1 $327 $495 #
straight-curve $-1 71.963370935944596 0 16.293798403409188 0 1 0 I I #
edge $-1 $436 -3.101627545942911 $440 3.101627545942911 $431 $496 forward 7 unknown #
vertex $-1 $439 $497 #
straight-curve $-1 64.830222105442914 -36.584033100501863 10.090543311523366 -1 0 0 I I #
straight-curve $-1 64.830222105442914 -36.584033100501863 16.293798403409188 1 0 0 I I #
point $-1 57.697073274941239 -36.584033100501863 10.090543311523366 #
straight-curve $-1 57.697073274941253 0 10.090543311523366 0 -1 0 I I #
coedge $-1 $337 $336 $435 $493 forward $338 $-1 #
edge $-1 $339 -7.1331488305016748 $491 7.1331488305016819 $337 $498 forward 7 unknown #
point $-1 57.697073274941239 36.584033100501863 10.090543311523366 #
straight-curve $-1 64.830222105442914 36.584033100501863 16.293798403409188 -1 0 0 I I #
coedge $-1 $355 $354 $347 $450 forward $344 $-1 #
edge $-1 $451 20.609062716493387 $454 23.746718653195412 $449 $499 forward 7 unknown #
vertex $-1 $359 $500 #
straight-curve $-1 -20.487226172950677 -67.221910152090302 16.793798403409188 0 -1 0 I I #
edge $-1 $454 -15.021767160680042 $356 4.0908491361387718 $355 $501 forward 7 unknown #
vertex $-1 $453 $502 #
straight-curve $-1 -20.487226172950677 -36.584033100501856 13.656142466707173 0 0.52991925155115449 0.84804810408105047 I I #
point $-1 -20.487226172950677 -34.623408134063325 16.793798403409188 #
point $-1 -1.3746098761318635 -36.584033100501863 13.656142466707163 #
straight-curve $-1 0 -36.584033100501863 16.793798403409188 1 0 0 I I #
vertex $-1 $362 $503 #
point $-1 -14.526478659573876 -34.755672513201546 14.695051183507028 #
vertex $-1 $366 $504 #
point $-1 -6.3353573895086726 -34.755672513201546 14.695051183507028 #
edge $-1 $464 50.933191650137857 $467 59.294195790505213 $371 $505 forward 7 unknown #
vertex $-1 $385 $506 #
straight-curve $-1 43.430775613937918 43.466375113782249 16.793798403409184 0 1 0 I I #
edge $-1 $467 -26.634701511377354 $382 -6.9574466937437727 $381 $507 forward 7 unknown #
vertex $-1 $466 $508 #
straight-curve $-1 43.430775613937918 -6.4230763270428639 67.627003863995711 0 -0.5877852410284794 0.80901700255871778 I I #
point $-1 43.430775613937918 30.509408193555913 16.793798403409184 #
point $-1 23.753520796304336 36.584033100501863 8.4327942630418278 #
straight-curve $-1 0 36.584033100501863 16.793798403409188 -1 0 0 I I #
vertex $-1 $388 $509 #
point $-1 30.375593601342509 31.161050067719358 10.880005250295222 #
vertex $-1 $392 $510 #
point $-1 38.80870280889976 31.161050067719358 10.880005250295222 #
straight-curve $-1 -57.697073274941253 36.584033100501863 0 0 0 -1 I I #
point $-1 -57.697073274941253 -36.584033100501863 -16.793798403409188 #
straight-curve $-1 -57.697073274941253 0 -16.793798403409188 0 1 0 I I #
point $-1 -57.697073274941253 36.584033100501863 -16.793798403409188 #
coedge $-1 $485 $413 $416 $482 reversed $303 $-1 #
straight-curve $-1 -71.963370935944596 36.584033100501863 13.192170857466277 0 0 -1 I I #
edge $-1 $487 -36.584033100501863 $417 36.584033100501863 $480 $511 forward 7 unknown #
point $-1 -71.963370935944596 36.584033100501863 10.090543311523366 #
point $-1 -71.963370935944596 36.584033100501863 16.293798403409188 #
coedge $-1 $426 $480 $423 $486 reversed $303 $-1 #
edge $-1 $428 -3.101627545942911 $487 3.101627545942911 $485 $512 forward 7 unknown #
vertex $-1 $482 $513 #
straight-curve $-1 -64.830222105442928 -36.584033100501863 10.090543311523366 -1 0 0 I I #
straight-curve $-1 -71.963370935944596 0 16.293798403409188 0 -1 0 I I #
point $-1 -71.963370935944596 -36.584033100501863 16.293798403409188 #
vertex $-1 $434 $514 #
straight-curve $-1 71.963370935944596 0 10.090543311523366 0 -1 0 I I #
edge $-1 $437 -3.101627545942911 $491 3.101627545942911 $435 $515 forward 7 unknown #
point $-1 71.963370935944596 -36.584033100501863 16.293798403409188 #
point $-1 71.963370935944596 36.584033100501863 16.293798403409188 #
straight-curve $-1 71.963370935944596 -36.584033100501863 13.192170857466277 0 0 -1 I I #
point $-1 71.963370935944596 -36.584033100501863 10.090543311523366 #
straight-curve $-1 64.830222105442914 36.584033100501863 10.090543311523366 1 0 0 I I #
straight-curve $-1 -20.487226172950677 -36.584033100501863 37.402861119902575 0 0 -1 I I #
point $-1 -20.487226172950677 -36.584033100501863 16.793798403409188 #
straight-curve $-1 -5.4654590122706352 -36.584033100501863 13.656142466707156 1 0 0 I I #
point $-1 -20.487226172950677 -36.584033100501863 13.656142466707163 #
point $-1 -15.026478659573876 -34.331648461161024 14.430091557731449 #
point $-1 -6.8353573895086726 -34.331648461161024 14.430091557731449 #
straight-curve $-1 43.430775613937918 36.584033100501863 67.726990053547041 0 0 -1 I I #
point $-1 43.430775613937918 36.584033100501863 16.793798403409188 #
straight-curve $-1 16.796074102560564 36.58403310050187 8.4327942630418171 -1 0 0 I I #
point $-1 43.430775613937918 36.584033100501863 8.4327942630418278 #
point $-1 29.375593601342509 30.35203306516064 10.292220009266741 #
point $-1 37.80870280889976 30.35203306516064 10.292220009266741 #
straight-curve $-1 -71.963370935944596 0 10.090543311523366 0 1 0 I I #
straight-curve $-1 -71.963370935944596 -36.584033100501863 13.192170857466277 0 0 -1 I I #
point $-1 -71.963370935944596 -36.584033100501863 10.090543311523366 #
point $-1 71.963370935944596 36.584033100501863 10.090543311523366 #
straight-curve $-1 71.963370935944596 36.584033100501863 13.192170857466277 0 0 -1 I I #
End-of-ACIS-data 