500 0 6 0           
7 Unknown 11 ACIS 5.0 NT 24 Fri Mar 26 02:00:23 1999 
-1 9.9999999999999995e-007 1e-010 
body $-1 $6 $-1 $7 #
body $-1 $8 $-1 $9 #
body $-1 $10 $-1 $11 #
body $-1 $12 $-1 $13 #
body $-1 $14 $-1 $15 #
body $-1 $16 $-1 $17 #
lump $-1 $-1 $18 $0 #
transform $-1 1 0 0 0 1 0 0 0 1 42.435377056184578 25.083714944551598 7.1575894873365717 1 rotate no_reflect no_shear #
lump $-1 $-1 $19 $1 #
transform $-1 1 0 0 0 1 0 0 0 1 42.435377056184578 25.083714944551598 7.1575894873365717 1 rotate no_reflect no_shear #
lump $-1 $-1 $20 $2 #
transform $-1 1 0 0 0 1 0 0 0 1 42.435377056184578 25.083714944551598 7.1575894873365717 1 rotate no_reflect no_shear #
lump $-1 $-1 $21 $3 #
transform $-1 1 0 0 0 1 0 0 0 1 42.435377056184578 25.083714944551598 7.1575894873365717 1 rotate no_reflect no_shear #
lump $-1 $-1 $22 $4 #
transform $-1 1 0 0 0 1 0 0 0 1 42.435377056184578 25.083714944551598 7.1575894873365717 1 rotate no_reflect no_shear #
lump $-1 $-1 $23 $5 #
transform $-1 1 0 0 0 1 0 0 0 1 42.435377056184578 25.083714944551598 7.1575894873365717 1 rotate no_reflect no_shear #
shell $-1 $-1 $-1 $24 $-1 $6 #
shell $-1 $-1 $-1 $25 $-1 $8 #
shell $-1 $-1 $-1 $26 $-1 $10 #
shell $-1 $-1 $-1 $27 $-1 $12 #
shell $-1 $-1 $-1 $28 $-1 $14 #
shell $-1 $-1 $-1 $29 $-1 $16 #
face $-1 $30 $31 $18 $-1 $32 forward single #
face $-1 $33 $34 $19 $-1 $35 forward single #
face $-1 $36 $37 $20 $-1 $38 reversed single #
face $-1 $39 $40 $21 $-1 $41 forward single #
face $-1 $42 $43 $22 $-1 $44 reversed single #
face $-1 $45 $46 $23 $-1 $47 forward single #
face $-1 $48 $49 $18 $-1 $50 reversed single #
loop $-1 $-1 $51 $24 #
plane-surface $-1 0 0 7.1575894873365717 0 0 1 1 0 0 forward_v I I I I #
face $-1 $52 $53 $19 $-1 $54 reversed single #
loop $-1 $-1 $55 $25 #
plane-surface $-1 -39.785609773599916 0 1.2218428094088813 0 0 1 1 0 0 forward_v I I I I #
face $-1 $56 $57 $20 $-1 $58 reversed single #
loop $-1 $-1 $59 $26 #
plane-surface $-1 -37.135842491015254 -88.154977400354468 60.104955632108478 1 0 0 0 0.74314483375859142 -0.66913059716165679 forward_v I I I I #
face $-1 $60 $61 $21 $-1 $62 forward single #
loop $-1 $63 $64 $27 #
cone-surface $-1 -27.6970353162042 -22.055525341911817 4.0673788598553759 0 0.74314483375859142 -0.66913059716165679 1 0 0 1 I I 0 1 1 forward I I I I #
face $-1 $65 $66 $22 $-1 $67 reversed single #
loop $-1 $-1 $68 $28 #
plane-surface $-1 31.526298117865977 41.2071042237245 100.72315183140913 1 0 0 0 -0.64278761758704617 -0.76604443648966558 forward_v I I I I #
face $-1 $69 $70 $23 $-1 $71 forward single #
loop $-1 $72 $73 $29 #
cone-surface $-1 36.980837587025277 21.69914339929495 3.9007293709169946 0 -0.64278761758704617 -0.76604443648966558 1 0 0 1 I I 0 1 1 forward I I I I #
face $-1 $74 $75 $18 $-1 $76 reversed single #
loop $-1 $-1 $77 $30 #
plane-surface $-1 0 0 -7.1575894873365717 0 0 1 1 0 0 forward_v I I I I #
coedge $-1 $78 $79 $80 $81 forward $31 $-1 #
face $-1 $82 $83 $19 $-1 $84 reversed single #
loop $-1 $-1 $85 $33 #
plane-surface $-1 -39.785609773599916 0 -1.7781571905911195 0 0 1 1 0 0 forward_v I I I I #
coedge $-1 $86 $87 $88 $89 forward $34 $-1 #
face $-1 $90 $91 $20 $-1 $92 reversed single #
loop $-1 $-1 $93 $36 #
plane-surface $-1 -27.6970353162042 -25.083714944551602 3.315337251338768 0 -0.74314483375859142 0.66913059716165679 1 0 0 forward_v I I I I #
coedge $-1 $94 $95 $96 $97 reversed $37 $-1 #
face $-1 $-1 $98 $21 $-1 $99 forward single #
loop $-1 $100 $101 $39 #
cone-surface $-1 -27.6970353162042 -20.385553005593376 2.5637290517922553 0 0.74314483375859142 -0.66913059716165679 0.5 0 0 1 I I -0.70710678118654746 0.70710678118654746 0.5 forward I I I I #
loop $-1 $-1 $102 $27 #
coedge $-1 $64 $64 $103 $104 reversed $40 $-1 #
face $-1 $105 $106 $22 $-1 $107 forward single #
loop $-1 $-1 $108 $42 #
plane-surface $-1 36.980837587025277 -13.346765614981273 35.708382822946334 0 0.64278761758704617 0.76604443648966558 1 0 0 forward_v I I I I #
coedge $-1 $109 $110 $111 $112 reversed $43 $-1 #
face $-1 $-1 $113 $23 $-1 $114 forward single #
loop $-1 $115 $116 $45 #
cone-surface $-1 36.980837587025277 20.19566341677881 2.1089517378886145 0 -0.64278761758704617 -0.76604443648966558 0.5 0 0 1 I I -0.70710678118654746 0.70710678118654746 0.5 forward I I I I #
loop $-1 $-1 $117 $29 #
coedge $-1 $73 $73 $118 $119 reversed $46 $-1 #
face $-1 $120 $121 $18 $-1 $122 reversed single #
loop $-1 $-1 $123 $48 #
plane-surface $-1 0 -25.083714944551598 0 0 1 0 0 0 1 forward_v I I I I #
coedge $-1 $124 $125 $126 $127 forward $49 $-1 #
coedge $-1 $128 $51 $129 $130 forward $31 $-1 #
coedge $-1 $51 $128 $131 $132 forward $31 $-1 #
coedge $-1 $133 $134 $51 $81 reversed $135 $-1 #
edge $-1 $136 -25.083714944551598 $137 25.083714944551598 $80 $138 forward 7 unknown #
face $-1 $139 $140 $19 $-1 $141 reversed single #
loop $-1 $-1 $142 $52 #
plane-surface $-1 -37.135842491015254 0 -0.2781571905911191 -1 0 0 0 0 1 forward_v I I I I #
coedge $-1 $143 $144 $145 $146 forward $53 $-1 #
coedge $-1 $147 $55 $148 $149 reversed $34 $-1 #
coedge $-1 $55 $147 $150 $151 reversed $34 $-1 #
coedge $-1 $142 $152 $55 $89 reversed $83 $-1 #
edge $-1 $153 -25.083714944551598 $154 25.083714944551598 $88 $155 forward 7 unknown #
face $-1 $156 $157 $20 $-1 $158 forward single #
loop $-1 $-1 $159 $56 #
plane-surface $-1 -18.25822814139315 -88.154977400354468 60.104955632108478 -1 0 0 0 -0.74314483375859142 0.66913059716165679 forward_v I I I I #
coedge $-1 $160 $161 $162 $163 reversed $57 $-1 #
coedge $-1 $95 $59 $164 $165 reversed $37 $-1 #
coedge $-1 $59 $94 $160 $166 reversed $37 $-1 #
coedge $-1 $162 $167 $59 $97 forward $168 $-1 #
edge $-1 $169 22.894888328717666 $170 26.737140564715467 $96 $171 forward 7 unknown #
loop $-1 $-1 $103 $60 #
plane-surface $-1 -27.6970353162042 -25.083714944551602 3.315337251338768 0 -0.74314483375859142 0.66913059716165679 1 0 0 forward_v I I I I #
loop $-1 $-1 $172 $39 #
coedge $-1 $101 $101 $102 $173 reversed $61 $-1 #
coedge $-1 $102 $102 $101 $173 forward $63 $-1 #
coedge $-1 $103 $103 $64 $104 forward $98 $-1 #
edge $-1 $174 -2.6295139078390618e-016 $174 6.2831853071796004 $103 $175 forward 7 unknown #
face $-1 $176 $177 $22 $-1 $178 reversed single #
loop $-1 $-1 $111 $65 #
plane-surface $-1 0 0 7.1575894873365717 0 0 1 1 0 0 forward_v I I I I #
coedge $-1 $179 $180 $181 $182 reversed $66 $-1 #
coedge $-1 $110 $68 $183 $184 reversed $43 $-1 #
coedge $-1 $68 $109 $179 $185 reversed $43 $-1 #
coedge $-1 $181 $186 $68 $112 forward $106 $-1 #
edge $-1 $187 -4.4801628326893486 $188 -0.075192089621303637 $111 $189 forward 7 unknown #
loop $-1 $-1 $118 $69 #
plane-surface $-1 36.980837587025277 -13.346765614981273 35.708382822946334 0 0.64278761758704617 0.76604443648966558 1 0 0 forward_v I I I I #
loop $-1 $-1 $190 $45 #
coedge $-1 $116 $116 $117 $191 reversed $70 $-1 #
coedge $-1 $117 $117 $116 $191 forward $72 $-1 #
coedge $-1 $118 $118 $73 $119 forward $113 $-1 #
edge $-1 $192 1.2748340846530415e-015 $192 6.2831853071796013 $118 $193 forward 7 unknown #
face $-1 $194 $195 $18 $-1 $196 reversed single #
loop $-1 $-1 $197 $74 #
plane-surface $-1 -42.435377056184578 0 0 1 0 0 0 0 -1 forward_v I I I I #
coedge $-1 $198 $131 $199 $200 forward $75 $-1 #
coedge $-1 $201 $77 $198 $202 forward $49 $-1 #
coedge $-1 $77 $201 $203 $204 forward $49 $-1 #
coedge $-1 $134 $133 $77 $127 reversed $135 $-1 #
edge $-1 $205 -25.083714944551598 $206 25.083714944551598 $126 $207 forward 7 unknown #
coedge $-1 $79 $78 $208 $209 forward $31 $-1 #
coedge $-1 $210 $211 $78 $130 reversed $195 $-1 #
edge $-1 $137 -42.435377056184578 $212 42.435377056184578 $129 $213 forward 7 unknown #
coedge $-1 $123 $214 $79 $132 reversed $75 $-1 #
edge $-1 $215 -42.435377056184578 $136 42.435377056184578 $131 $216 forward 7 unknown #
coedge $-1 $126 $80 $214 $217 forward $135 $-1 #
coedge $-1 $80 $126 $210 $218 reversed $135 $-1 #
loop $-1 $-1 $133 $194 #
vertex $-1 $81 $219 #
vertex $-1 $81 $220 #
straight-curve $-1 42.435377056184578 0 7.1575894873365717 0 1 0 I I #
face $-1 $221 $222 $19 $-1 $223 reversed single #
loop $-1 $-1 $224 $82 #
plane-surface $-1 0 -25.083714944551598 0 0 1 0 0 0 1 forward_v I I I I #
coedge $-1 $145 $88 $225 $226 reversed $83 $-1 #
coedge $-1 $227 $85 $224 $228 reversed $53 $-1 #
coedge $-1 $85 $227 $229 $230 reversed $53 $-1 #
coedge $-1 $152 $142 $85 $146 reversed $83 $-1 #
edge $-1 $231 -25.083714944551598 $232 25.083714944551598 $145 $233 forward 7 unknown #
coedge $-1 $87 $86 $234 $235 reversed $34 $-1 #
coedge $-1 $236 $237 $86 $149 forward $238 $-1 #
edge $-1 $239 -22.54257216938462 $154 -17.243037604215296 $148 $240 forward 7 unknown #
coedge $-1 $241 $225 $87 $151 forward $140 $-1 #
edge $-1 $153 17.243037604215296 $242 22.54257216938462 $150 $243 forward 7 unknown #
coedge $-1 $88 $145 $236 $244 reversed $83 $-1 #
vertex $-1 $151 $245 #
vertex $-1 $149 $246 #
straight-curve $-1 -37.135842491015254 0 1.2218428094088813 0 1 0 I I #
face $-1 $-1 $168 $20 $-1 $247 reversed single #
loop $-1 $-1 $248 $90 #
plane-surface $-1 0 0 7.1575894873365717 0 0 1 1 0 0 forward_v I I I I #
coedge $-1 $249 $250 $251 $252 reversed $91 $-1 #
coedge $-1 $253 $93 $95 $166 forward $57 $-1 #
coedge $-1 $93 $253 $249 $254 forward $57 $-1 #
coedge $-1 $251 $96 $93 $163 forward $168 $-1 #
edge $-1 $170 -23.287324832913153 $255 -4.4097104832910503 $162 $256 forward 7 unknown #
coedge $-1 $257 $258 $94 $165 forward $157 $-1 #
edge $-1 $259 -22.453353122026897 $169 -18.993773755625636 $164 $260 forward 7 unknown #
edge $-1 $170 5.3474328436922466e-015 $259 5.1702603065473891 $95 $261 forward 7 unknown #
coedge $-1 $96 $251 $257 $262 reversed $168 $-1 #
loop $-1 $-1 $251 $156 #
vertex $-1 $262 $263 #
vertex $-1 $97 $264 #
straight-curve $-1 -37.135842491015254 -25.083714944551598 30.052477816054239 0 0 -1 I I #
coedge $-1 $172 $172 $-1 $265 reversed $100 $-1 #
edge $-1 $266 0 $266 6.2831853071796004 $101 $267 forward 7 unknown #
vertex $-1 $104 $268 #
ellipse-curve $-1 -27.6970353162042 -23.353925261350966 5.2364633693376721 0 -0.74314483375859142 0.66913059716165679 1 0 0 1 I I #
face $-1 $-1 $269 $22 $-1 $270 reversed single #
loop $-1 $-1 $271 $105 #
plane-surface $-1 42.435377056184578 0 0 -1 0 0 0 0 1 forward_v I I I I #
coedge $-1 $272 $108 $110 $185 forward $66 $-1 #
coedge $-1 $108 $272 $271 $273 reversed $66 $-1 #
coedge $-1 $274 $111 $108 $182 forward $106 $-1 #
edge $-1 $188 13.035879324353338 $275 23.944958262671939 $181 $276 forward 7 unknown #
coedge $-1 $277 $278 $109 $184 forward $269 $-1 #
edge $-1 $279 -46.900195831640048 $187 -43.20398642836799 $183 $280 forward 7 unknown #
edge $-1 $188 44.417148922044092 $279 50.167429889103204 $110 $281 forward 7 unknown #
coedge $-1 $111 $274 $277 $282 forward $106 $-1 #
vertex $-1 $184 $283 #
vertex $-1 $112 $284 #
straight-curve $-1 31.526298117865977 20.60355211186225 7.1575894873365726 0 -1 0 I I #
coedge $-1 $190 $190 $-1 $285 reversed $115 $-1 #
edge $-1 $286 0 $286 6.2831853071796004 $116 $287 forward 7 unknown #
vertex $-1 $119 $288 #
ellipse-curve $-1 36.980837587025277 22.881229573017574 5.3094847857005485 0 0.64278761758704617 0.76604443648966558 1 0 0 1 I I #
face $-1 $-1 $135 $18 $-1 $289 reversed single #
loop $-1 $-1 $210 $120 #
plane-surface $-1 0 25.083714944551598 0 0 -1 0 0 0 -1 forward_v I I I I #
coedge $-1 $290 $208 $211 $291 forward $121 $-1 #
coedge $-1 $214 $123 $124 $202 reversed $75 $-1 #
coedge $-1 $208 $290 $123 $200 reversed $121 $-1 #
edge $-1 $215 -7.1575894873365717 $292 7.1575894873365717 $199 $293 forward 7 unknown #
coedge $-1 $125 $124 $290 $294 forward $49 $-1 #
edge $-1 $206 -42.435377056184578 $292 42.435377056184578 $198 $295 forward 7 unknown #
coedge $-1 $211 $210 $125 $204 reversed $195 $-1 #
edge $-1 $296 -42.435377056184578 $205 42.435377056184578 $203 $297 forward 7 unknown #
vertex $-1 $127 $298 #
vertex $-1 $217 $299 #
straight-curve $-1 42.435377056184578 0 -7.1575894873365717 0 -1 0 I I #
coedge $-1 $197 $199 $128 $209 reversed $121 $-1 #
edge $-1 $212 -25.083714944551598 $215 25.083714944551598 $208 $300 forward 7 unknown #
coedge $-1 $203 $129 $134 $218 forward $195 $-1 #
coedge $-1 $129 $203 $197 $291 reversed $195 $-1 #
vertex $-1 $130 $301 #
straight-curve $-1 0 25.083714944551598 7.1575894873365717 -1 0 0 I I #
coedge $-1 $131 $198 $133 $217 reversed $75 $-1 #
vertex $-1 $209 $302 #
straight-curve $-1 0 -25.083714944551598 7.1575894873365717 1 0 0 I I #
edge $-1 $136 -7.1575894873365717 $206 7.1575894873365717 $133 $303 forward 7 unknown #
edge $-1 $137 -7.1575894873365717 $205 7.1575894873365717 $134 $304 forward 7 unknown #
point $-1 42.435377056184578 -25.083714944551598 7.1575894873365717 #
point $-1 42.435377056184578 25.083714944551598 7.1575894873365717 #
face $-1 $-1 $238 $19 $-1 $305 reversed single #
loop $-1 $-1 $306 $139 #
plane-surface $-1 -42.435377056184578 0 0 1 0 0 0 0 -1 forward_v I I I I #
coedge $-1 $225 $241 $143 $228 forward $140 $-1 #
coedge $-1 $150 $224 $142 $226 forward $140 $-1 #
edge $-1 $232 -1.63907859529556 $153 1.3609214047044409 $225 $307 forward 7 unknown #
coedge $-1 $144 $143 $306 $308 reversed $53 $-1 #
edge $-1 $309 -22.54257216938462 $232 -17.243037604215296 $224 $310 forward 7 unknown #
coedge $-1 $237 $236 $144 $230 forward $238 $-1 #
edge $-1 $231 17.243037604215296 $311 22.54257216938462 $229 $312 forward 7 unknown #
vertex $-1 $230 $313 #
vertex $-1 $228 $314 #
straight-curve $-1 -37.135842491015254 0 -1.7781571905911195 0 -1 0 I I #
coedge $-1 $315 $316 $147 $235 forward $222 $-1 #
edge $-1 $242 -25.083714944551598 $239 25.083714944551598 $234 $317 forward 7 unknown #
coedge $-1 $229 $148 $152 $244 forward $238 $-1 #
coedge $-1 $148 $229 $315 $318 reversed $238 $-1 #
loop $-1 $-1 $229 $221 #
vertex $-1 $318 $319 #
straight-curve $-1 -19.892804886799958 25.083714944551598 1.2218428094088813 1 0 0 I I #
coedge $-1 $224 $150 $316 $320 forward $140 $-1 #
vertex $-1 $320 $321 #
straight-curve $-1 -19.892804886799958 -25.083714944551598 1.2218428094088813 -1 0 0 I I #
edge $-1 $154 -1.3609214047044409 $231 1.63907859529556 $236 $322 forward 7 unknown #
point $-1 -37.135842491015254 -25.083714944551598 1.2218428094088813 #
point $-1 -37.135842491015254 25.083714944551598 1.2218428094088813 #
plane-surface $-1 0 -25.083714944551598 0 0 1 0 0 0 1 forward_v I I I I #
coedge $-1 $258 $257 $250 $323 forward $157 $-1 #
coedge $-1 $250 $159 $161 $254 reversed $91 $-1 #
coedge $-1 $159 $249 $248 $323 reversed $91 $-1 #
coedge $-1 $167 $162 $159 $252 forward $168 $-1 #
edge $-1 $255 -26.737140564715467 $324 -22.894888328717666 $251 $325 forward 7 unknown #
coedge $-1 $161 $160 $258 $326 reversed $57 $-1 #
edge $-1 $327 -5.1702603065473891 $255 -5.3474328436922466e-015 $249 $328 forward 7 unknown #
vertex $-1 $163 $329 #
straight-curve $-1 -13.8485176581021 -25.083714944551598 3.3153372513387742 1 0 0 I I #
coedge $-1 $248 $164 $167 $262 forward $157 $-1 #
coedge $-1 $164 $248 $253 $326 forward $157 $-1 #
vertex $-1 $165 $330 #
straight-curve $-1 -37.135842491015254 -44.077488700177234 7.1575894873365726 0 -1 0 I I #
straight-curve $-1 -37.135842491015254 -25.083714944551602 3.315337251338768 0 0.66913059716165679 0.74314483375859142 I I #
edge $-1 $169 -37.135842491015254 $324 -18.25822814139315 $167 $331 forward 7 unknown #
point $-1 -37.135842491015254 -25.083714944551598 7.1575894873365717 #
point $-1 -37.135842491015254 -25.083714944551598 3.315337251338772 #
edge $-1 $332 1 $332 0 $172 $-1 forward 7 unknown #
vertex $-1 $173 $333 #
ellipse-curve $-1 -27.6970353162042 -20.757125422472672 2.8982943503730838 0 -0.74314483375859142 0.66913059716165679 1 0 0 1 I I #
point $-1 -26.6970353162042 -23.353925261350962 5.2364633693376685 #
loop $-1 $-1 $183 $176 #
plane-surface $-1 0 25.083714944551598 0 0 -1 0 0 0 -1 forward_v I I I I #
coedge $-1 $334 $335 $180 $273 forward $177 $-1 #
coedge $-1 $180 $179 $278 $336 reversed $66 $-1 #
edge $-1 $275 27.828587988476173 $337 33.578868955535278 $271 $338 forward 7 unknown #
coedge $-1 $186 $181 $335 $339 forward $106 $-1 #
vertex $-1 $339 $340 #
straight-curve $-1 18.490418793512639 20.678744201483553 7.1575894873365762 1 0 0 I I #
coedge $-1 $341 $183 $186 $282 reversed $269 $-1 #
coedge $-1 $183 $341 $272 $336 forward $269 $-1 #
vertex $-1 $184 $342 #
straight-curve $-1 31.526298117865977 25.083714944551598 50.361575915704563 0 0 1 I I #
straight-curve $-1 31.526298117865977 -13.346765614981273 35.708382822946334 0 0.76604443648966558 -0.64278761758704617 I I #
edge $-1 $343 -42.435377056184578 $187 -31.526298117865977 $277 $344 forward 7 unknown #
point $-1 31.526298117865977 25.083714944551598 7.1575894873365717 #
point $-1 31.526298117865977 20.678744201483553 7.1575894873365726 #
edge $-1 $345 1 $345 0 $190 $-1 forward 7 unknown #
vertex $-1 $191 $346 #
ellipse-curve $-1 36.980837587025277 20.517057225572334 2.4919739561334473 0 0.64278761758704617 0.76604443648966558 1 0 0 1 I I #
point $-1 37.980837587025277 22.881229573017571 5.3094847857005423 #
plane-surface $-1 42.435377056184578 0 0 -1 0 0 0 0 1 forward_v I I I I #
coedge $-1 $199 $197 $201 $294 reversed $121 $-1 #
edge $-1 $212 -7.1575894873365717 $296 7.1575894873365717 $211 $347 forward 7 unknown #
vertex $-1 $294 $348 #
straight-curve $-1 -42.435377056184578 -25.083714944551598 0 0 0 -1 I I #
edge $-1 $292 -25.083714944551598 $296 25.083714944551598 $290 $349 forward 7 unknown #
straight-curve $-1 0 -25.083714944551598 -7.1575894873365717 -1 0 0 I I #
vertex $-1 $204 $350 #
straight-curve $-1 0 25.083714944551598 -7.1575894873365717 1 0 0 I I #
point $-1 42.435377056184578 25.083714944551598 -7.1575894873365717 #
point $-1 42.435377056184578 -25.083714944551598 -7.1575894873365717 #
straight-curve $-1 -42.435377056184578 0 7.1575894873365717 0 -1 0 I I #
point $-1 -42.435377056184578 25.083714944551598 7.1575894873365717 #
point $-1 -42.435377056184578 -25.083714944551598 7.1575894873365717 #
straight-curve $-1 42.435377056184578 -25.083714944551598 0 0 0 -1 I I #
straight-curve $-1 42.435377056184578 25.083714944551598 0 0 0 -1 I I #
plane-surface $-1 0 25.083714944551598 0 0 -1 0 0 0 -1 forward_v I I I I #
coedge $-1 $316 $315 $227 $308 forward $222 $-1 #
straight-curve $-1 -37.135842491015254 -25.083714944551598 -0.13907859529555955 0 0 1 I I #
edge $-1 $311 -25.083714944551598 $309 25.083714944551598 $306 $351 forward 7 unknown #
vertex $-1 $228 $352 #
straight-curve $-1 -19.892804886799958 -25.083714944551598 -1.7781571905911195 1 0 0 I I #
vertex $-1 $230 $353 #
straight-curve $-1 -19.892804886799958 25.083714944551598 -1.7781571905911195 -1 0 0 I I #
point $-1 -37.135842491015254 25.083714944551598 -1.7781571905911195 #
point $-1 -37.135842491015254 -25.083714944551598 -1.7781571905911195 #
coedge $-1 $306 $234 $237 $318 forward $222 $-1 #
coedge $-1 $234 $306 $241 $320 reversed $222 $-1 #
straight-curve $-1 -42.435377056184578 0 1.2218428094088813 0 1 0 I I #
edge $-1 $239 -1.2218428094088813 $311 1.7781571905911195 $237 $354 forward 7 unknown #
point $-1 -42.435377056184578 25.083714944551598 1.2218428094088813 #
edge $-1 $242 -1.2218428094088813 $309 1.7781571905911195 $316 $355 forward 7 unknown #
point $-1 -42.435377056184578 -25.083714944551598 1.2218428094088813 #
straight-curve $-1 -37.135842491015254 25.083714944551598 -0.13907859529555955 0 0 -1 I I #
edge $-1 $324 18.993773755625636 $327 22.453353122026897 $248 $356 forward 7 unknown #
vertex $-1 $323 $357 #
straight-curve $-1 -18.25822814139315 -25.083714944551598 30.052477816054239 0 0 1 I I #
edge $-1 $327 4.4097104832910503 $259 23.287324832913153 $258 $358 forward 7 unknown #
vertex $-1 $326 $359 #
straight-curve $-1 -18.25822814139315 -25.083714944551602 3.315337251338768 0 -0.66913059716165679 -0.74314483375859142 I I #
point $-1 -18.25822814139315 -25.083714944551598 3.315337251338772 #
point $-1 -37.135842491015254 -21.624135578150337 7.1575894873365726 #
straight-curve $-1 0 -25.083714944551598 7.1575894873365717 1 0 0 I I #
vertex $-1 $265 $360 #
point $-1 -26.6970353162042 -20.757125422472672 2.8982943503730838 #
coedge $-1 $335 $271 $341 $361 reversed $177 $-1 #
coedge $-1 $271 $334 $274 $339 reversed $177 $-1 #
edge $-1 $337 -23.944958262671939 $279 -13.035879324353338 $278 $362 forward 7 unknown #
vertex $-1 $273 $363 #
straight-curve $-1 42.435377056184578 -0.63919080245174964 25.045461261260662 0 0.76604443648966558 -0.64278761758704617 I I #
edge $-1 $275 20.678744201483553 $343 25.083714944551598 $335 $364 forward 7 unknown #
point $-1 42.435377056184578 20.678744201483553 7.1575894873365726 #
coedge $-1 $278 $277 $334 $361 forward $269 $-1 #
point $-1 31.526298117865977 25.083714944551595 3.4613800840645155 #
vertex $-1 $339 $365 #
straight-curve $-1 0 25.083714944551598 7.1575894873365717 -1 0 0 I I #
vertex $-1 $285 $366 #
point $-1 37.980837587025277 20.517057225572334 2.4919739561334473 #
straight-curve $-1 -42.435377056184578 25.083714944551598 0 0 0 -1 I I #
point $-1 -42.435377056184578 -25.083714944551598 -7.1575894873365717 #
straight-curve $-1 -42.435377056184578 0 -7.1575894873365717 0 1 0 I I #
point $-1 -42.435377056184578 25.083714944551598 -7.1575894873365717 #
straight-curve $-1 -42.435377056184578 0 -1.7781571905911195 0 -1 0 I I #
point $-1 -42.435377056184578 -25.083714944551598 -1.7781571905911195 #
point $-1 -42.435377056184578 25.083714944551598 -1.7781571905911195 #
straight-curve $-1 -42.435377056184578 25.083714944551598 0 0 0 -1 I I #
straight-curve $-1 -42.435377056184578 -25.083714944551598 0 0 0 -1 I I #
straight-curve $-1 -18.25822814139315 -44.077488700177234 7.1575894873365726 0 1 0 I I #
point $-1 -18.25822814139315 -25.083714944551598 7.1575894873365717 #
straight-curve $-1 -13.8485176581021 -21.624135578150337 7.1575894873365717 -1 0 0 I I #
point $-1 -18.25822814139315 -21.624135578150337 7.1575894873365726 #
point $-1 -27.6970353162042 -20.01398058871408 2.2291637532114268 #
edge $-1 $343 -7.1575894873365717 $337 -3.4613800840645155 $334 $367 forward 7 unknown #
straight-curve $-1 18.490418793512639 25.083714944551595 3.461380084064519 -1 0 0 I I #
point $-1 42.435377056184578 25.083714944551595 3.4613800840645155 #
straight-curve $-1 42.435377056184578 0 7.1575894873365717 0 1 0 I I #
point $-1 42.435377056184578 25.083714944551598 7.1575894873365717 #
point $-1 36.980837587025277 19.874269607985287 1.7259295196437816 #
straight-curve $-1 42.435377056184578 25.083714944551598 0 0 0 -1 I I #
End-of-ACIS-data 