500 0 8 0           
7 Unknown 11 ACIS 5.0 NT 24 Thu Mar 25 20:05:52 1999 
-1 9.9999999999999995e-007 1e-010 
body $-1 $8 $-1 $9 #
body $-1 $10 $-1 $11 #
body $-1 $12 $-1 $13 #
body $-1 $14 $-1 $15 #
body $-1 $16 $-1 $17 #
body $-1 $18 $-1 $19 #
body $-1 $20 $-1 $21 #
body $-1 $22 $-1 $23 #
lump $-1 $-1 $24 $0 #
transform $-1 1 0 0 0 1 0 0 0 1 56.979277932065798 34.645251196378055 9.6191931458262481 1 rotate no_reflect no_shear #
lump $-1 $-1 $25 $1 #
transform $-1 1 0 0 0 1 0 0 0 1 56.979277932065798 34.645251196378055 9.6191931458262481 1 rotate no_reflect no_shear #
lump $-1 $-1 $26 $2 #
transform $-1 1 0 0 0 1 0 0 0 1 56.979277932065798 34.645251196378055 9.6191931458262481 1 rotate no_reflect no_shear #
lump $-1 $-1 $27 $3 #
transform $-1 1 0 0 0 1 0 0 0 1 56.979277932065798 34.645251196378055 9.6191931458262481 1 rotate no_reflect no_shear #
lump $-1 $-1 $28 $4 #
transform $-1 1 0 0 0 1 0 0 0 1 56.979277932065798 34.645251196378055 9.6191931458262481 1 rotate no_reflect no_shear #
lump $-1 $-1 $29 $5 #
transform $-1 1 0 0 0 1 0 0 0 1 56.979277932065798 34.645251196378055 9.6191931458262481 1 rotate no_reflect no_shear #
lump $-1 $-1 $30 $6 #
transform $-1 1 0 0 0 1 0 0 0 1 56.979277932065798 34.645251196378055 9.6191931458262481 1 rotate no_reflect no_shear #
lump $-1 $-1 $31 $7 #
transform $-1 1 0 0 0 1 0 0 0 1 56.979277932065798 34.645251196378055 9.6191931458262481 1 rotate no_reflect no_shear #
shell $-1 $-1 $-1 $32 $-1 $8 #
shell $-1 $-1 $-1 $33 $-1 $10 #
shell $-1 $-1 $-1 $34 $-1 $12 #
shell $-1 $-1 $-1 $35 $-1 $14 #
shell $-1 $-1 $-1 $36 $-1 $16 #
shell $-1 $-1 $-1 $37 $-1 $18 #
shell $-1 $-1 $-1 $38 $-1 $20 #
shell $-1 $-1 $-1 $39 $-1 $22 #
face $-1 $40 $41 $24 $-1 $42 forward single #
face $-1 $43 $44 $25 $-1 $45 forward single #
face $-1 $46 $47 $26 $-1 $48 reversed single #
face $-1 $49 $50 $27 $-1 $51 forward single #
face $-1 $52 $53 $28 $-1 $54 forward single #
face $-1 $55 $56 $29 $-1 $57 reversed single #
face $-1 $58 $59 $30 $-1 $60 forward single #
face $-1 $61 $62 $31 $-1 $63 forward single #
face $-1 $64 $65 $24 $-1 $66 reversed single #
loop $-1 $-1 $67 $32 #
plane-surface $-1 0 0 9.6191931458262481 0 0 1 1 0 0 forward_v I I I I #
face $-1 $68 $69 $25 $-1 $70 forward single #
loop $-1 $-1 $71 $33 #
plane-surface $-1 0 -34.645251196378055 0 0 1 0 0 0 1 forward_v I I I I #
face $-1 $72 $73 $26 $-1 $74 reversed single #
loop $-1 $-1 $75 $34 #
plane-surface $-1 42.933108849516486 -4.1923867019068952 162.3934045682424 0 -1 0 -0.64278761758704617 0 -0.76604443648966558 forward_v I I I I #
face $-1 $76 $77 $27 $-1 $78 forward single #
loop $-1 $79 $80 $35 #
cone-surface $-1 50.808989940995403 -15.305458155912739 3.8993989985106614 -0.64278761758704617 0 -0.76604443648966558 1.5320888729793312 0 -1.2855752351740923 1 I I 0 1 2 forward I I I I #
face $-1 $81 $82 $28 $-1 $83 forward single #
loop $-1 $84 $85 $36 #
cone-surface $-1 50.808989940995403 -8.6376152835092306 3.8993989985106614 -0.64278761758704617 0 -0.76604443648966558 1.5320888729793312 0 -1.2855752351740923 1 I I 0 1 2 forward I I I I #
face $-1 $86 $87 $29 $-1 $88 reversed single #
loop $-1 $-1 $89 $37 #
plane-surface $-1 -130.23042655963127 -19.750686737515078 89.142255940676947 0 1 0 -0.64278761758704617 0 0.76604443648966558 forward_v I I I I #
face $-1 $90 $91 $30 $-1 $92 forward single #
loop $-1 $93 $94 $38 #
cone-surface $-1 -50.808989940995396 -15.305458155912739 3.8993989985106525 0.64278761758704617 0 -0.76604443648966558 1.5320888729793312 0 1.2855752351740923 1 I I 0 1 2 forward I I I I #
face $-1 $95 $96 $31 $-1 $97 forward single #
loop $-1 $98 $99 $39 #
cone-surface $-1 -50.808989940995396 -8.6376152835092306 3.8993989985106525 0.64278761758704617 0 -0.76604443648966558 1.5320888729793312 0 1.2855752351740923 1 I I 0 1 2 forward I I I I #
face $-1 $100 $101 $24 $-1 $102 reversed single #
loop $-1 $-1 $103 $40 #
plane-surface $-1 0 0 -9.6191931458262481 0 0 1 1 0 0 forward_v I I I I #
coedge $-1 $104 $105 $106 $107 forward $41 $-1 #
face $-1 $108 $109 $25 $-1 $110 reversed single #
loop $-1 $-1 $111 $43 #
plane-surface $-1 0 0 9.6191931458262481 0 0 1 1 0 0 forward_v I I I I #
coedge $-1 $112 $113 $114 $115 forward $44 $-1 #
face $-1 $116 $117 $26 $-1 $118 reversed single #
loop $-1 $-1 $119 $46 #
plane-surface $-1 -30.31803977804897 -11.971536719710986 75.096086858127634 0.64278761758704617 0 0.76604443648966558 0.76604443648966558 0 -0.64278761758704617 forward_v I I I I #
coedge $-1 $120 $121 $122 $123 reversed $47 $-1 #
face $-1 $-1 $124 $27 $-1 $125 forward single #
loop $-1 $126 $127 $49 #
cone-surface $-1 48.628412347815043 -15.305458155912739 1.3006878723374307 -0.64278761758704617 0 -0.76604443648966558 0.76604443648966558 0 -0.64278761758704617 1 I I -0.70710678118654746 0.70710678118654746 1 forward I I I I #
loop $-1 $-1 $128 $35 #
coedge $-1 $80 $80 $129 $130 reversed $50 $-1 #
face $-1 $-1 $131 $28 $-1 $132 forward single #
loop $-1 $133 $134 $52 #
cone-surface $-1 48.628412347815043 -8.6376152835092306 1.3006878723374307 -0.64278761758704617 0 -0.76604443648966558 0.76604443648966558 0 -0.64278761758704617 1 I I -0.70710678118654746 0.70710678118654746 1 forward I I I I #
loop $-1 $-1 $135 $36 #
coedge $-1 $85 $85 $136 $137 reversed $53 $-1 #
face $-1 $138 $139 $29 $-1 $140 reversed single #
loop $-1 $-1 $141 $55 #
plane-surface $-1 -56.979277932065813 -11.971536719710986 1.8449382305621782 -0.64278761758704617 0 0.76604443648966558 0.76604443648966558 0 0.64278761758704617 forward_v I I I I #
coedge $-1 $142 $143 $144 $145 reversed $56 $-1 #
face $-1 $-1 $146 $30 $-1 $147 forward single #
loop $-1 $148 $149 $58 #
cone-surface $-1 -48.628412347815036 -15.305458155912739 1.3006878723374218 0.64278761758704617 0 -0.76604443648966558 0.76604443648966558 0 0.64278761758704617 1 I I -0.70710678118654746 0.70710678118654746 1 forward I I I I #
loop $-1 $-1 $150 $38 #
coedge $-1 $94 $94 $151 $152 reversed $59 $-1 #
face $-1 $-1 $153 $31 $-1 $154 forward single #
loop $-1 $155 $156 $61 #
cone-surface $-1 -48.628412347815036 -8.6376152835092306 1.3006878723374218 0.64278761758704617 0 -0.76604443648966558 0.76604443648966558 0 0.64278761758704617 1 I I -0.70710678118654746 0.70710678118654746 1 forward I I I I #
loop $-1 $-1 $157 $39 #
coedge $-1 $99 $99 $158 $159 reversed $62 $-1 #
face $-1 $160 $161 $24 $-1 $162 reversed single #
loop $-1 $-1 $163 $64 #
plane-surface $-1 0 -34.645251196378055 0 0 1 0 0 0 1 forward_v I I I I #
coedge $-1 $164 $165 $166 $167 forward $65 $-1 #
coedge $-1 $168 $67 $169 $170 forward $41 $-1 #
coedge $-1 $67 $168 $171 $172 forward $41 $-1 #
coedge $-1 $173 $174 $67 $107 reversed $175 $-1 #
edge $-1 $176 -34.645251196378055 $177 34.645251196378055 $106 $178 forward 7 unknown #
face $-1 $179 $180 $25 $-1 $181 reversed single #
loop $-1 $-1 $182 $68 #
plane-surface $-1 -56.979277932065798 0 0 1 0 0 0 0 -1 forward_v I I I I #
coedge $-1 $183 $184 $185 $186 forward $69 $-1 #
coedge $-1 $185 $71 $182 $187 reversed $44 $-1 #
coedge $-1 $71 $185 $188 $189 reversed $44 $-1 #
coedge $-1 $190 $191 $71 $115 reversed $180 $-1 #
edge $-1 $192 -56.979277932065798 $193 56.979277932065798 $114 $194 forward 7 unknown #
face $-1 $195 $196 $26 $-1 $197 reversed single #
loop $-1 $-1 $198 $72 #
plane-surface $-1 42.933108849516486 -19.750686737515078 162.3934045682424 0 1 0 0.64278761758704617 0 0.76604443648966558 forward_v I I I I #
coedge $-1 $199 $200 $201 $202 reversed $73 $-1 #
coedge $-1 $121 $75 $203 $204 reversed $47 $-1 #
coedge $-1 $75 $120 $199 $205 reversed $47 $-1 #
coedge $-1 $201 $206 $75 $123 forward $207 $-1 #
edge $-1 $208 -35.512723507307555 $209 -26.247727476353376 $122 $210 forward 7 unknown #
loop $-1 $-1 $129 $76 #
plane-surface $-1 -30.31803977804897 -11.971536719710986 75.096086858127634 0.64278761758704617 0 0.76604443648966558 0.76604443648966558 0 -0.64278761758704617 forward_v I I I I #
loop $-1 $-1 $211 $49 #
coedge $-1 $127 $127 $128 $212 reversed $77 $-1 #
coedge $-1 $128 $128 $127 $212 forward $79 $-1 #
coedge $-1 $129 $129 $80 $130 forward $124 $-1 #
edge $-1 $213 0 $213 6.2831853071796004 $129 $214 forward 7 unknown #
loop $-1 $-1 $136 $81 #
plane-surface $-1 -30.31803977804897 -11.971536719710986 75.096086858127634 0.64278761758704617 0 0.76604443648966558 0.76604443648966558 0 -0.64278761758704617 forward_v I I I I #
loop $-1 $-1 $215 $52 #
coedge $-1 $134 $134 $135 $216 reversed $82 $-1 #
coedge $-1 $135 $135 $134 $216 forward $84 $-1 #
coedge $-1 $136 $136 $85 $137 forward $131 $-1 #
edge $-1 $217 0 $217 6.2831853071796004 $136 $218 forward 7 unknown #
face $-1 $219 $220 $29 $-1 $221 forward single #
loop $-1 $-1 $222 $86 #
plane-surface $-1 -130.23042655963127 -4.1923867019068952 89.142255940676947 0 -1 0 0.64278761758704617 0 -0.76604443648966558 forward_v I I I I #
coedge $-1 $223 $224 $225 $226 reversed $87 $-1 #
coedge $-1 $143 $89 $227 $228 reversed $56 $-1 #
coedge $-1 $89 $142 $223 $229 reversed $56 $-1 #
coedge $-1 $225 $230 $89 $145 forward $220 $-1 #
edge $-1 $231 8.135935347749836 $232 17.400931378704001 $144 $233 forward 7 unknown #
loop $-1 $-1 $151 $90 #
plane-surface $-1 -56.979277932065813 -11.971536719710986 1.8449382305621782 -0.64278761758704617 0 0.76604443648966558 0.76604443648966558 0 0.64278761758704617 forward_v I I I I #
loop $-1 $-1 $234 $58 #
coedge $-1 $149 $149 $150 $235 reversed $91 $-1 #
coedge $-1 $150 $150 $149 $235 forward $93 $-1 #
coedge $-1 $151 $151 $94 $152 forward $146 $-1 #
edge $-1 $236 0 $236 6.2831853071796004 $151 $237 forward 7 unknown #
loop $-1 $-1 $158 $95 #
plane-surface $-1 -56.979277932065813 -11.971536719710986 1.8449382305621782 -0.64278761758704617 0 0.76604443648966558 0.76604443648966558 0 0.64278761758704617 forward_v I I I I #
loop $-1 $-1 $238 $61 #
coedge $-1 $156 $156 $157 $239 reversed $96 $-1 #
coedge $-1 $157 $157 $156 $239 forward $98 $-1 #
coedge $-1 $158 $158 $99 $159 forward $153 $-1 #
edge $-1 $240 0 $240 6.2831853071796004 $158 $241 forward 7 unknown #
face $-1 $242 $243 $24 $-1 $244 reversed single #
loop $-1 $-1 $245 $100 #
plane-surface $-1 -56.979277932065798 0 0 1 0 0 0 0 -1 forward_v I I I I #
coedge $-1 $246 $171 $247 $248 forward $101 $-1 #
coedge $-1 $249 $103 $246 $250 forward $65 $-1 #
coedge $-1 $103 $249 $251 $252 forward $65 $-1 #
coedge $-1 $174 $173 $103 $167 reversed $175 $-1 #
edge $-1 $253 -34.645251196378055 $254 34.645251196378055 $166 $255 forward 7 unknown #
coedge $-1 $105 $104 $256 $257 forward $41 $-1 #
coedge $-1 $258 $259 $104 $170 reversed $243 $-1 #
edge $-1 $177 -56.979277932065798 $260 56.979277932065798 $169 $261 forward 7 unknown #
coedge $-1 $163 $262 $105 $172 reversed $101 $-1 #
edge $-1 $263 -56.979277932065798 $176 56.979277932065798 $171 $264 forward 7 unknown #
coedge $-1 $166 $106 $262 $265 forward $175 $-1 #
coedge $-1 $106 $166 $258 $266 reversed $175 $-1 #
loop $-1 $-1 $173 $242 #
vertex $-1 $107 $267 #
vertex $-1 $107 $268 #
straight-curve $-1 56.979277932065798 0 9.6191931458262481 0 1 0 I I #
face $-1 $269 $270 $25 $-1 $271 reversed single #
loop $-1 $-1 $190 $108 #
plane-surface $-1 0 -40.19779224481821 5.3444985117848542 0 0 1 1 0 0 forward_v I I I I #
coedge $-1 $272 $273 $112 $187 forward $109 $-1 #
coedge $-1 $274 $111 $273 $275 forward $69 $-1 #
coedge $-1 $111 $274 $276 $277 forward $69 $-1 #
coedge $-1 $113 $112 $111 $186 reversed $44 $-1 #
edge $-1 $278 -56.979277932065798 $279 56.979277932065798 $111 $280 forward 7 unknown #
edge $-1 $279 -9.6191931458262481 $193 -5.3444985117848542 $182 $281 forward 7 unknown #
coedge $-1 $276 $282 $113 $189 forward $283 $-1 #
edge $-1 $192 5.3444985117848542 $278 9.6191931458262481 $188 $284 forward 7 unknown #
coedge $-1 $285 $114 $282 $286 forward $180 $-1 #
coedge $-1 $114 $285 $272 $287 forward $180 $-1 #
vertex $-1 $189 $288 #
vertex $-1 $187 $289 #
straight-curve $-1 0 -34.645251196378055 5.3444985117848542 -1 0 0 I I #
face $-1 $-1 $207 $26 $-1 $290 forward single #
loop $-1 $-1 $291 $116 #
plane-surface $-1 56.979277932065798 0 0 -1 0 0 0 0 1 forward_v I I I I #
coedge $-1 $292 $293 $294 $295 reversed $117 $-1 #
coedge $-1 $296 $119 $121 $205 forward $73 $-1 #
coedge $-1 $119 $296 $292 $297 forward $73 $-1 #
coedge $-1 $294 $122 $119 $202 forward $207 $-1 #
edge $-1 $209 -1.7933816579485979 $298 13.764918377659585 $201 $299 forward 7 unknown #
coedge $-1 $300 $301 $120 $204 forward $196 $-1 #
edge $-1 $302 -79.351764053559023 $208 -71.577509138294957 $203 $303 forward 7 unknown #
edge $-1 $209 101.86396240502333 $302 113.9585558641316 $121 $304 forward 7 unknown #
coedge $-1 $122 $294 $300 $305 forward $207 $-1 #
loop $-1 $-1 $294 $195 #
vertex $-1 $204 $306 #
vertex $-1 $123 $307 #
straight-curve $-1 21.466554424758243 -4.1923867019068952 9.6191931458262445 -1 0 0 I I #
coedge $-1 $211 $211 $-1 $308 reversed $126 $-1 #
edge $-1 $309 0 $309 6.2831853071796004 $127 $310 forward 7 unknown #
vertex $-1 $130 $311 #
ellipse-curve $-1 52.346779916588709 -15.305458155912739 5.7320656881942122 0.64278761758704617 0 0.76604443648966558 1.5320888729793312 0 -1.2855752351740923 1 I I #
coedge $-1 $215 $215 $-1 $312 reversed $133 $-1 #
edge $-1 $313 0 $313 6.2831853071796004 $134 $314 forward 7 unknown #
vertex $-1 $137 $315 #
ellipse-curve $-1 52.346779916588709 -8.6376152835092306 5.7320656881942122 0.64278761758704617 0 0.76604443648966558 1.5320888729793312 0 -1.2855752351740923 1 I I #
face $-1 $-1 $316 $29 $-1 $317 reversed single #
loop $-1 $-1 $144 $138 #
plane-surface $-1 0 0 9.6191931458262481 0 0 1 1 0 0 forward_v I I I I #
coedge $-1 $318 $319 $320 $321 reversed $139 $-1 #
coedge $-1 $322 $141 $143 $229 forward $87 $-1 #
coedge $-1 $141 $322 $318 $323 forward $87 $-1 #
coedge $-1 $320 $144 $141 $226 forward $220 $-1 #
edge $-1 $232 -13.764918377659585 $324 1.7933816579485979 $225 $325 forward 7 unknown #
coedge $-1 $326 $327 $142 $228 forward $316 $-1 #
edge $-1 $328 -42.726189739776281 $231 -34.951934824512222 $227 $329 forward 7 unknown #
edge $-1 $232 -12.094593459108257 $328 -1.8593432412625586e-014 $143 $330 forward 7 unknown #
coedge $-1 $144 $320 $326 $331 forward $220 $-1 #
vertex $-1 $228 $332 #
vertex $-1 $145 $333 #
straight-curve $-1 -65.115213279815634 -19.750686737515078 9.6191931458262516 1 0 0 I I #
coedge $-1 $234 $234 $-1 $334 reversed $148 $-1 #
edge $-1 $335 0 $335 6.2831853071796004 $149 $336 forward 7 unknown #
vertex $-1 $152 $337 #
ellipse-curve $-1 -52.346779916588716 -15.305458155912739 5.7320656881942202 -0.64278761758704617 0 0.76604443648966558 1.5320888729793312 0 1.2855752351740923 1 I I #
coedge $-1 $238 $238 $-1 $338 reversed $155 $-1 #
edge $-1 $339 0 $339 6.2831853071796004 $156 $340 forward 7 unknown #
vertex $-1 $159 $341 #
ellipse-curve $-1 -52.346779916588716 -8.6376152835092306 5.7320656881942202 -0.64278761758704617 0 0.76604443648966558 1.5320888729793312 0 1.2855752351740923 1 I I #
face $-1 $-1 $175 $24 $-1 $342 reversed single #
loop $-1 $-1 $258 $160 #
plane-surface $-1 0 34.645251196378055 0 0 -1 0 0 0 -1 forward_v I I I I #
coedge $-1 $343 $256 $259 $344 forward $161 $-1 #
coedge $-1 $262 $163 $164 $250 reversed $101 $-1 #
coedge $-1 $256 $343 $163 $248 reversed $161 $-1 #
edge $-1 $263 -9.6191931458262481 $345 9.6191931458262481 $247 $346 forward 7 unknown #
coedge $-1 $165 $164 $343 $347 forward $65 $-1 #
edge $-1 $254 -56.979277932065798 $345 56.979277932065798 $246 $348 forward 7 unknown #
coedge $-1 $259 $258 $165 $252 reversed $243 $-1 #
edge $-1 $349 -56.979277932065798 $253 56.979277932065798 $251 $350 forward 7 unknown #
vertex $-1 $167 $351 #
vertex $-1 $265 $352 #
straight-curve $-1 56.979277932065798 0 -9.6191931458262481 0 -1 0 I I #
coedge $-1 $245 $247 $168 $257 reversed $161 $-1 #
edge $-1 $260 -34.645251196378055 $263 34.645251196378055 $256 $353 forward 7 unknown #
coedge $-1 $251 $169 $174 $266 forward $243 $-1 #
coedge $-1 $169 $251 $245 $344 reversed $243 $-1 #
vertex $-1 $170 $354 #
straight-curve $-1 0 34.645251196378055 9.6191931458262481 -1 0 0 I I #
coedge $-1 $171 $246 $173 $265 reversed $101 $-1 #
vertex $-1 $257 $355 #
straight-curve $-1 0 -34.645251196378055 9.6191931458262481 1 0 0 I I #
edge $-1 $176 -9.6191931458262481 $254 9.6191931458262481 $173 $356 forward 7 unknown #
edge $-1 $177 -9.6191931458262481 $253 9.6191931458262481 $174 $357 forward 7 unknown #
point $-1 56.979277932065798 -34.645251196378055 9.6191931458262481 #
point $-1 56.979277932065798 34.645251196378055 9.6191931458262481 #
face $-1 $-1 $283 $25 $-1 $358 reversed single #
loop $-1 $-1 $359 $179 #
plane-surface $-1 0 -45.750333293258365 7.4818458288055503 0 1 0 0 0 1 forward_v I I I I #
coedge $-1 $360 $182 $191 $287 reversed $109 $-1 #
coedge $-1 $182 $360 $183 $275 reversed $109 $-1 #
coedge $-1 $184 $183 $361 $362 forward $69 $-1 #
edge $-1 $279 34.645251196378055 $363 45.750333293258365 $273 $364 forward 7 unknown #
coedge $-1 $365 $188 $184 $277 reversed $283 $-1 #
edge $-1 $366 -45.750333293258365 $278 -34.645251196378055 $276 $367 forward 7 unknown #
vertex $-1 $189 $368 #
vertex $-1 $275 $369 #
straight-curve $-1 0 -34.645251196378055 9.6191931458262481 -1 0 0 I I #
straight-curve $-1 -56.979277932065798 -34.645251196378055 0 0 0 -1 I I #
coedge $-1 $188 $365 $190 $286 reversed $283 $-1 #
loop $-1 $-1 $188 $269 #
straight-curve $-1 56.979277932065798 -34.645251196378055 0 0 0 1 I I #
coedge $-1 $191 $190 $370 $371 forward $180 $-1 #
edge $-1 $192 -5.5525410484401547 $372 5.5525410484401547 $282 $373 forward 7 unknown #
edge $-1 $374 -5.5525410484401547 $193 5.5525410484401547 $272 $375 forward 7 unknown #
point $-1 56.979277932065798 -34.645251196378055 5.3444985117848542 #
point $-1 -56.979277932065798 -34.645251196378055 5.3444985117848542 #
plane-surface $-1 0 0 9.6191931458262481 0 0 1 1 0 0 forward_v I I I I #
coedge $-1 $301 $300 $293 $376 forward $196 $-1 #
coedge $-1 $293 $198 $200 $297 reversed $117 $-1 #
coedge $-1 $198 $292 $291 $376 reversed $117 $-1 #
coedge $-1 $206 $201 $198 $295 forward $207 $-1 #
edge $-1 $298 26.247727476353376 $377 35.512723507307555 $294 $378 forward 7 unknown #
coedge $-1 $200 $199 $301 $379 reversed $73 $-1 #
edge $-1 $380 -113.9585558641316 $298 -101.86396240502333 $292 $381 forward 7 unknown #
vertex $-1 $202 $382 #
straight-curve $-1 47.714281901111605 -5.9857683598554932 9.6191931458262516 0 -1 0 I I #
coedge $-1 $291 $203 $206 $305 reversed $196 $-1 #
coedge $-1 $203 $291 $296 $379 forward $196 $-1 #
vertex $-1 $204 $383 #
straight-curve $-1 56.979277932065798 -4.1923867019068952 81.196702284121201 0 0 1 I I #
straight-curve $-1 -30.31803977804897 -4.1923867019068952 75.096086858127634 0.76604443648966558 0 -0.64278761758704617 I I #
edge $-1 $377 -19.750686737515078 $208 -4.1923867019068952 $300 $384 forward 7 unknown #
point $-1 56.979277932065798 -4.1923867019068952 9.6191931458262481 #
point $-1 47.714281901111619 -4.1923867019068952 9.6191931458262445 #
edge $-1 $385 1 $385 0 $211 $-1 forward 7 unknown #
vertex $-1 $212 $386 #
ellipse-curve $-1 49.27119996540209 -15.305458155912739 2.0667323088270964 0.64278761758704617 0 0.76604443648966558 1.5320888729793312 0 -1.2855752351740923 1 I I #
point $-1 53.878868789568052 -15.305458155912739 4.4464904530201341 #
edge $-1 $387 1 $387 0 $215 $-1 forward 7 unknown #
vertex $-1 $216 $388 #
ellipse-curve $-1 49.27119996540209 -8.6376152835092306 2.0667323088270964 0.64278761758704617 0 0.76604443648966558 1.5320888729793312 0 -1.2855752351740923 1 I I #
point $-1 53.878868789568052 -8.6376152835092306 4.4464904530201341 #
loop $-1 $-1 $227 $219 #
plane-surface $-1 -56.979277932065798 0 0 1 0 0 0 0 -1 forward_v I I I I #
coedge $-1 $319 $222 $224 $323 reversed $139 $-1 #
coedge $-1 $222 $318 $389 $390 reversed $139 $-1 #
coedge $-1 $230 $225 $222 $321 forward $220 $-1 #
edge $-1 $324 -17.400931378704001 $391 -8.135935347749836 $320 $392 forward 7 unknown #
coedge $-1 $224 $223 $327 $393 reversed $87 $-1 #
edge $-1 $394 1.8593432412625586e-014 $324 12.094593459108257 $318 $395 forward 7 unknown #
vertex $-1 $226 $396 #
straight-curve $-1 -47.714281901111626 -5.9857683598554932 9.6191931458262498 0 1 0 I I #
coedge $-1 $389 $227 $230 $331 reversed $316 $-1 #
coedge $-1 $227 $389 $322 $393 forward $316 $-1 #
vertex $-1 $228 $397 #
straight-curve $-1 -56.979277932065798 -19.750686737515078 44.571127970338473 0 0 1 I I #
straight-curve $-1 -56.979277932065813 -19.750686737515078 1.8449382305621782 -0.76604443648966558 0 -0.64278761758704617 I I #
edge $-1 $391 4.1923867019068952 $231 19.750686737515078 $326 $398 forward 7 unknown #
point $-1 -56.979277932065798 -19.750686737515078 9.6191931458262481 #
point $-1 -47.714281901111633 -19.750686737515078 9.6191931458262481 #
edge $-1 $399 1 $399 0 $234 $-1 forward 7 unknown #
vertex $-1 $235 $400 #
ellipse-curve $-1 -49.271199965402083 -15.305458155912739 2.0667323088270875 -0.64278761758704617 0 0.76604443648966558 1.5320888729793312 0 1.2855752351740923 1 I I #
point $-1 -50.814691043609379 -15.305458155912739 7.0176409233683099 #
edge $-1 $401 1 $401 0 $238 $-1 forward 7 unknown #
vertex $-1 $239 $402 #
ellipse-curve $-1 -49.271199965402083 -8.6376152835092306 2.0667323088270875 -0.64278761758704617 0 0.76604443648966558 1.5320888729793312 0 1.2855752351740923 1 I I #
point $-1 -50.814691043609379 -8.6376152835092306 7.0176409233683099 #
plane-surface $-1 56.979277932065798 0 0 -1 0 0 0 0 1 forward_v I I I I #
coedge $-1 $247 $245 $249 $347 reversed $161 $-1 #
edge $-1 $260 -9.6191931458262481 $349 9.6191931458262481 $259 $403 forward 7 unknown #
vertex $-1 $347 $404 #
straight-curve $-1 -56.979277932065798 -34.645251196378055 0 0 0 -1 I I #
edge $-1 $345 -34.645251196378055 $349 34.645251196378055 $343 $405 forward 7 unknown #
straight-curve $-1 0 -34.645251196378055 -9.6191931458262481 -1 0 0 I I #
vertex $-1 $252 $406 #
straight-curve $-1 0 34.645251196378055 -9.6191931458262481 1 0 0 I I #
point $-1 56.979277932065798 34.645251196378055 -9.6191931458262481 #
point $-1 56.979277932065798 -34.645251196378055 -9.6191931458262481 #
straight-curve $-1 -56.979277932065798 0 9.6191931458262481 0 -1 0 I I #
point $-1 -56.979277932065798 34.645251196378055 9.6191931458262481 #
point $-1 -56.979277932065798 -34.645251196378055 9.6191931458262481 #
straight-curve $-1 56.979277932065798 -34.645251196378055 0 0 0 -1 I I #
straight-curve $-1 56.979277932065798 34.645251196378055 0 0 0 -1 I I #
plane-surface $-1 56.979277932065798 0 0 -1 0 0 0 0 1 forward_v I I I I #
coedge $-1 $370 $361 $360 $407 forward $270 $-1 #
coedge $-1 $273 $272 $359 $407 reversed $109 $-1 #
coedge $-1 $359 $408 $274 $362 reversed $270 $-1 #
edge $-1 $363 -56.979277932065798 $366 56.979277932065798 $361 $409 forward 7 unknown #
vertex $-1 $275 $410 #
straight-curve $-1 -56.979277932065798 0 9.6191931458262481 0 -1 0 I I #
coedge $-1 $282 $276 $408 $411 forward $283 $-1 #
vertex $-1 $277 $412 #
straight-curve $-1 56.979277932065798 0 9.6191931458262481 0 1 0 I I #
point $-1 56.979277932065798 -34.645251196378055 9.6191931458262481 #
point $-1 -56.979277932065798 -34.645251196378055 9.6191931458262481 #
coedge $-1 $408 $359 $285 $371 reversed $270 $-1 #
edge $-1 $372 -56.979277932065798 $374 56.979277932065798 $370 $413 forward 7 unknown #
vertex $-1 $411 $414 #
straight-curve $-1 56.979277932065798 -40.19779224481821 5.3444985117848542 0 -1 0 I I #
vertex $-1 $287 $415 #
straight-curve $-1 -56.979277932065798 -40.19779224481821 5.3444985117848542 0 1 0 I I #
edge $-1 $377 71.577509138294957 $380 79.351764053559023 $291 $416 forward 7 unknown #
vertex $-1 $305 $417 #
straight-curve $-1 21.466554424758243 -19.750686737515078 9.6191931458262445 1 0 0 I I #
edge $-1 $380 -13.764918377659585 $302 1.7933816579485979 $301 $418 forward 7 unknown #
vertex $-1 $379 $419 #
straight-curve $-1 -30.31803977804897 -19.750686737515078 75.096086858127634 -0.76604443648966558 0 0.64278761758704617 I I #
point $-1 47.714281901111619 -19.750686737515078 9.6191931458262445 #
point $-1 56.979277932065798 -4.1923867019068952 1.8449382305621782 #
straight-curve $-1 56.979277932065798 0 9.6191931458262481 0 1 0 I I #
vertex $-1 $308 $420 #
point $-1 50.80328883838142 -15.305458155912739 0.78115707365300391 #
vertex $-1 $312 $421 #
point $-1 50.80328883838142 -8.6376152835092306 0.78115707365300391 #
coedge $-1 $327 $326 $319 $390 forward $316 $-1 #
edge $-1 $391 34.951934824512222 $394 42.726189739776281 $389 $422 forward 7 unknown #
vertex $-1 $331 $423 #
straight-curve $-1 -65.115213279815634 -4.1923867019068952 9.6191931458262516 -1 0 0 I I #
edge $-1 $394 -1.7933816579485979 $328 13.764918377659585 $327 $424 forward 7 unknown #
vertex $-1 $393 $425 #
straight-curve $-1 -56.979277932065813 -4.1923867019068952 1.8449382305621782 0.76604443648966558 0 0.64278761758704617 I I #
point $-1 -47.714281901111633 -4.1923867019068952 9.6191931458262481 #
point $-1 -56.979277932065798 -19.750686737515078 1.8449382305621902 #
straight-curve $-1 -56.979277932065798 0 9.6191931458262481 0 -1 0 I I #
vertex $-1 $334 $426 #
point $-1 -47.739111092422753 -15.305458155912739 3.3523075440011798 #
vertex $-1 $338 $427 #
point $-1 -47.739111092422753 -8.6376152835092306 3.3523075440011798 #
straight-curve $-1 -56.979277932065798 34.645251196378055 0 0 0 -1 I I #
point $-1 -56.979277932065798 -34.645251196378055 -9.6191931458262481 #
straight-curve $-1 -56.979277932065798 0 -9.6191931458262481 0 1 0 I I #
point $-1 -56.979277932065798 34.645251196378055 -9.6191931458262481 #
edge $-1 $363 -2.137347317020696 $374 2.137347317020696 $360 $428 forward 7 unknown #
coedge $-1 $361 $370 $365 $411 reversed $270 $-1 #
straight-curve $-1 0 -45.750333293258365 9.6191931458262463 1 0 0 I I #
point $-1 -56.979277932065798 -45.750333293258365 9.6191931458262463 #
edge $-1 $366 -2.137347317020696 $372 2.137347317020696 $365 $429 forward 7 unknown #
point $-1 56.979277932065798 -45.750333293258365 9.6191931458262463 #
straight-curve $-1 0 -45.750333293258365 5.3444985117848542 -1 0 0 I I #
point $-1 56.979277932065798 -45.750333293258365 5.3444985117848542 #
point $-1 -56.979277932065798 -45.750333293258365 5.3444985117848542 #
straight-curve $-1 56.979277932065798 -19.750686737515078 81.196702284121201 0 0 -1 I I #
point $-1 56.979277932065798 -19.750686737515078 9.6191931458262481 #
straight-curve $-1 56.979277932065784 -5.9857683598554932 1.8449382305621853 0 1 0 I I #
point $-1 56.979277932065798 -19.750686737515078 1.8449382305621782 #
point $-1 47.985624730227997 -15.305458155912739 0.53464343584776508 #
point $-1 47.985624730227997 -8.6376152835092306 0.53464343584776508 #
straight-curve $-1 -56.979277932065798 -4.1923867019068952 44.571127970338473 0 0 -1 I I #
point $-1 -56.979277932065798 -4.1923867019068952 9.6191931458262481 #
straight-curve $-1 -56.979277932065798 -5.9857683598554932 1.8449382305621889 0 -1 0 I I #
point $-1 -56.979277932065798 -4.1923867019068952 1.8449382305621902 #
point $-1 -47.98562473022799 -15.305458155912739 0.5346434358477562 #
point $-1 -47.98562473022799 -8.6376152835092306 0.5346434358477562 #
straight-curve $-1 -56.979277932065798 -45.750333293258365 7.4818458288055503 0 0 -1 I I #
straight-curve $-1 56.979277932065798 -45.750333293258365 7.4818458288055503 0 0 -1 I I #
End-of-ACIS-data 