500 0 17 0           
7 Unknown 11 ACIS 5.0 NT 24 Thu Mar 25 17:40:53 1999 
-1 9.9999999999999995e-007 1e-010 
body $-1 $17 $-1 $18 #
body $-1 $19 $-1 $20 #
body $-1 $21 $-1 $22 #
body $-1 $23 $-1 $24 #
body $-1 $25 $-1 $26 #
body $-1 $27 $-1 $28 #
body $-1 $29 $-1 $30 #
body $-1 $31 $-1 $32 #
body $-1 $33 $-1 $34 #
body $-1 $35 $-1 $36 #
body $-1 $37 $-1 $38 #
body $-1 $39 $-1 $40 #
body $-1 $41 $-1 $42 #
body $-1 $43 $-1 $44 #
body $-1 $45 $-1 $46 #
body $-1 $47 $-1 $48 #
body $-1 $49 $-1 $50 #
lump $-1 $-1 $51 $0 #
transform $-1 1 0 0 0 1 0 0 0 1 72.276375621814623 50.091209731464957 17.893539533884621 1 rotate no_reflect no_shear #
lump $-1 $-1 $52 $1 #
transform $-1 1 0 0 0 1 0 0 0 1 72.276375621814623 50.091209731464957 17.893539533884621 1 rotate no_reflect no_shear #
lump $-1 $-1 $53 $2 #
transform $-1 1 0 0 0 1 0 0 0 1 72.276375621814623 50.091209731464957 17.893539533884621 1 rotate no_reflect no_shear #
lump $-1 $-1 $54 $3 #
transform $-1 1 0 0 0 1 0 0 0 1 72.276375621814623 50.091209731464957 17.893539533884621 1 rotate no_reflect no_shear #
lump $-1 $-1 $55 $4 #
transform $-1 1 0 0 0 1 0 0 0 1 72.276375621814623 50.091209731464957 17.893539533884621 1 rotate no_reflect no_shear #
lump $-1 $-1 $56 $5 #
transform $-1 1 0 0 0 1 0 0 0 1 72.276375621814623 50.091209731464957 17.893539533884621 1 rotate no_reflect no_shear #
lump $-1 $-1 $57 $6 #
transform $-1 1 0 0 0 1 0 0 0 1 72.276375621814623 50.091209731464957 17.893539533884621 1 rotate no_reflect no_shear #
lump $-1 $-1 $58 $7 #
transform $-1 1 0 0 0 1 0 0 0 1 72.276375621814623 50.091209731464957 17.893539533884621 1 rotate no_reflect no_shear #
lump $-1 $-1 $59 $8 #
transform $-1 1 0 0 0 1 0 0 0 1 72.276375621814623 50.091209731464957 17.893539533884621 1 rotate no_reflect no_shear #
lump $-1 $-1 $60 $9 #
transform $-1 1 0 0 0 1 0 0 0 1 72.276375621814623 50.091209731464957 17.893539533884621 1 rotate no_reflect no_shear #
lump $-1 $-1 $61 $10 #
transform $-1 1 0 0 0 1 0 0 0 1 72.276375621814623 50.091209731464957 17.893539533884621 1 rotate no_reflect no_shear #
lump $-1 $-1 $62 $11 #
transform $-1 1 0 0 0 1 0 0 0 1 72.276375621814623 50.091209731464957 17.893539533884621 1 rotate no_reflect no_shear #
lump $-1 $-1 $63 $12 #
transform $-1 1 0 0 0 1 0 0 0 1 72.276375621814623 50.091209731464957 17.893539533884621 1 rotate no_reflect no_shear #
lump $-1 $-1 $64 $13 #
transform $-1 1 0 0 0 1 0 0 0 1 72.276375621814623 50.091209731464957 17.893539533884621 1 rotate no_reflect no_shear #
lump $-1 $-1 $65 $14 #
transform $-1 1 0 0 0 1 0 0 0 1 72.276375621814623 50.091209731464957 17.893539533884621 1 rotate no_reflect no_shear #
lump $-1 $-1 $66 $15 #
transform $-1 1 0 0 0 1 0 0 0 1 72.276375621814623 50.091209731464957 17.893539533884621 1 rotate no_reflect no_shear #
lump $-1 $-1 $67 $16 #
transform $-1 1 0 0 0 1 0 0 0 1 72.276375621814623 50.091209731464957 17.893539533884621 1 rotate no_reflect no_shear #
shell $-1 $-1 $-1 $68 $-1 $17 #
shell $-1 $-1 $-1 $69 $-1 $19 #
shell $-1 $-1 $-1 $70 $-1 $21 #
shell $-1 $-1 $-1 $71 $-1 $23 #
shell $-1 $-1 $-1 $72 $-1 $25 #
shell $-1 $-1 $-1 $73 $-1 $27 #
shell $-1 $-1 $-1 $74 $-1 $29 #
shell $-1 $-1 $-1 $75 $-1 $31 #
shell $-1 $-1 $-1 $76 $-1 $33 #
shell $-1 $-1 $-1 $77 $-1 $35 #
shell $-1 $-1 $-1 $78 $-1 $37 #
shell $-1 $-1 $-1 $79 $-1 $39 #
shell $-1 $-1 $-1 $80 $-1 $41 #
shell $-1 $-1 $-1 $81 $-1 $43 #
shell $-1 $-1 $-1 $82 $-1 $45 #
shell $-1 $-1 $-1 $83 $-1 $47 #
shell $-1 $-1 $-1 $84 $-1 $49 #
face $-1 $85 $86 $51 $-1 $87 forward single #
face $-1 $88 $89 $52 $-1 $90 reversed single #
face $-1 $91 $92 $53 $-1 $93 forward single #
face $-1 $94 $95 $54 $-1 $96 forward single #
face $-1 $97 $98 $55 $-1 $99 reversed single #
face $-1 $100 $101 $56 $-1 $102 forward single #
face $-1 $103 $104 $57 $-1 $105 forward single #
face $-1 $106 $107 $58 $-1 $108 reversed single #
face $-1 $109 $110 $59 $-1 $111 forward single #
face $-1 $112 $113 $60 $-1 $114 forward single #
face $-1 $115 $116 $61 $-1 $117 reversed single #
face $-1 $118 $119 $62 $-1 $120 forward single #
face $-1 $121 $122 $63 $-1 $123 forward single #
face $-1 $124 $125 $64 $-1 $126 reversed single #
face $-1 $127 $128 $65 $-1 $129 forward single #
face $-1 $130 $131 $66 $-1 $132 forward single #
face $-1 $133 $134 $67 $-1 $135 forward single #
face $-1 $136 $137 $51 $-1 $138 reversed single #
loop $-1 $-1 $139 $68 #
plane-surface $-1 0 0 17.893539533884621 0 0 1 1 0 0 forward_v I I I I #
face $-1 $140 $141 $52 $-1 $142 reversed single #
loop $-1 $-1 $143 $69 #
plane-surface $-1 -62.281168046311635 111.03961861922623 174.32815674367862 1 0 0 0 -0.81915205242281985 -0.57357642473473569 forward_v I I I I #
face $-1 $144 $145 $53 $-1 $146 forward single #
loop $-1 $147 $148 $70 #
cone-surface $-1 -57.881954323364809 45.936619882701876 12.807478286526324 0 -0.81915205242281985 -0.57357642473473569 1 0 0 1 I I 0 1 1 forward I I I I #
face $-1 $149 $150 $54 $-1 $151 forward single #
loop $-1 $152 $153 $71 #
cone-surface $-1 -51.283133738944564 45.936619882701876 12.807478286526324 0 -0.81915205242281985 -0.57357642473473569 1 0 0 1 I I 0 1 1 forward I I I I #
face $-1 $154 $155 $55 $-1 $156 reversed single #
loop $-1 $-1 $157 $72 #
plane-surface $-1 -25.892805358875183 111.03961861922623 174.32815674367862 1 0 0 0 -0.81915205242281985 -0.57357642473473569 forward_v I I I I #
face $-1 $158 $159 $56 $-1 $160 forward single #
loop $-1 $161 $162 $73 #
cone-surface $-1 -21.493591635928347 45.936619882701876 12.807478286526324 0 -0.81915205242281985 -0.57357642473473569 1 0 0 1 I I 0 1 1 forward I I I I #
face $-1 $163 $164 $57 $-1 $165 forward single #
loop $-1 $166 $167 $74 #
cone-surface $-1 -14.894771051508101 45.936619882701876 12.807478286526324 0 -0.81915205242281985 -0.57357642473473569 1 0 0 1 I I 0 1 1 forward I I I I #
face $-1 $168 $169 $58 $-1 $170 reversed single #
loop $-1 $-1 $171 $75 #
plane-surface $-1 10.495557328561286 111.03961861922623 174.32815674367862 1 0 0 0 -0.81915205242281985 -0.57357642473473569 forward_v I I I I #
face $-1 $172 $173 $59 $-1 $174 forward single #
loop $-1 $175 $176 $76 #
cone-surface $-1 14.894771051508116 45.936619882701876 12.807478286526324 0 -0.81915205242281985 -0.57357642473473569 1 0 0 1 I I 0 1 1 forward I I I I #
face $-1 $177 $178 $60 $-1 $179 forward single #
loop $-1 $180 $181 $77 #
cone-surface $-1 21.493591635928368 45.936619882701876 12.807478286526324 0 -0.81915205242281985 -0.57357642473473569 1 0 0 1 I I 0 1 1 forward I I I I #
face $-1 $182 $183 $61 $-1 $184 reversed single #
loop $-1 $-1 $185 $78 #
plane-surface $-1 46.883920015997745 111.03961861922623 174.32815674367862 1 0 0 0 -0.81915205242281985 -0.57357642473473569 forward_v I I I I #
face $-1 $186 $187 $62 $-1 $188 forward single #
loop $-1 $189 $190 $79 #
cone-surface $-1 51.283133738944571 45.936619882701876 12.807478286526324 0 -0.81915205242281985 -0.57357642473473569 1 0 0 1 I I 0 1 1 forward I I I I #
face $-1 $191 $192 $63 $-1 $193 forward single #
loop $-1 $194 $195 $80 #
cone-surface $-1 57.881954323364823 45.936619882701876 12.807478286526324 0 -0.81915205242281985 -0.57357642473473569 1 0 0 1 I I 0 1 1 forward I I I I #
face $-1 $196 $197 $64 $-1 $198 reversed single #
loop $-1 $-1 $199 $81 #
plane-surface $-1 63.715131177680291 -50.091209731464929 4.641191814340516 0 -0.79863551827123203 0.60181501223851219 1 0 0 forward_v I I I I #
face $-1 $200 $201 $65 $-1 $202 forward single #
loop $-1 $203 $204 $82 #
cone-surface $-1 58.578384511199715 -43.590330071869822 10.131232526675756 0 0.79863551827123203 -0.60181501223851219 1 0 0 1 I I 0 1 1 forward I I I I #
face $-1 $205 $206 $66 $-1 $207 forward single #
loop $-1 $208 $209 $83 #
cone-surface $-1 63.715131177680291 -43.590330071869822 10.131232526675756 0 0.79863551827123203 -0.60181501223851219 1 0 0 1 I I 0 1 1 forward I I I I #
face $-1 $210 $211 $67 $-1 $212 forward single #
loop $-1 $213 $214 $84 #
cone-surface $-1 68.851877844160867 -43.590330071869822 10.131232526675756 0 0.79863551827123203 -0.60181501223851219 1 0 0 1 I I 0 1 1 forward I I I I #
face $-1 $215 $216 $51 $-1 $217 reversed single #
loop $-1 $-1 $218 $85 #
plane-surface $-1 0 0 -17.893539533884621 0 0 1 1 0 0 forward_v I I I I #
coedge $-1 $219 $220 $221 $222 forward $86 $-1 #
face $-1 $223 $224 $52 $-1 $225 reversed single #
loop $-1 $-1 $226 $88 #
plane-surface $-1 -54.582544031154683 -7.3710642453579851 91.416106499788143 0 0.81915205242281985 0.57357642473473569 1 0 0 forward_v I I I I #
coedge $-1 $227 $228 $229 $230 reversed $89 $-1 #
face $-1 $-1 $231 $53 $-1 $232 forward single #
loop $-1 $233 $234 $91 #
cone-surface $-1 -57.881954323364809 44.363063964012284 11.705662603720356 0 -0.81915205242281985 -0.57357642473473569 0.5 0 0 1 I I -0.70710678118654746 0.70710678118654746 0.5 forward I I I I #
loop $-1 $-1 $235 $70 #
coedge $-1 $148 $148 $236 $237 reversed $92 $-1 #
face $-1 $-1 $238 $54 $-1 $239 forward single #
loop $-1 $240 $241 $94 #
cone-surface $-1 -51.283133738944564 44.363063964012284 11.705662603720356 0 -0.81915205242281985 -0.57357642473473569 0.5 0 0 1 I I -0.70710678118654746 0.70710678118654746 0.5 forward I I I I #
loop $-1 $-1 $242 $71 #
coedge $-1 $153 $153 $243 $244 reversed $95 $-1 #
face $-1 $245 $246 $55 $-1 $247 reversed single #
loop $-1 $-1 $248 $97 #
plane-surface $-1 -18.194181343718228 -7.3710642453579851 91.416106499788143 0 0.81915205242281985 0.57357642473473569 1 0 0 forward_v I I I I #
coedge $-1 $249 $250 $251 $252 reversed $98 $-1 #
face $-1 $-1 $253 $56 $-1 $254 forward single #
loop $-1 $255 $256 $100 #
cone-surface $-1 -21.493591635928347 44.363063964012284 11.705662603720356 0 -0.81915205242281985 -0.57357642473473569 0.5 0 0 1 I I -0.70710678118654746 0.70710678118654746 0.5 forward I I I I #
loop $-1 $-1 $257 $73 #
coedge $-1 $162 $162 $258 $259 reversed $101 $-1 #
face $-1 $-1 $260 $57 $-1 $261 forward single #
loop $-1 $262 $263 $103 #
cone-surface $-1 -14.894771051508101 44.363063964012284 11.705662603720356 0 -0.81915205242281985 -0.57357642473473569 0.5 0 0 1 I I -0.70710678118654746 0.70710678118654746 0.5 forward I I I I #
loop $-1 $-1 $264 $74 #
coedge $-1 $167 $167 $265 $266 reversed $104 $-1 #
face $-1 $267 $268 $58 $-1 $269 reversed single #
loop $-1 $-1 $270 $106 #
plane-surface $-1 18.194181343718242 -7.3710642453579851 91.416106499788143 0 0.81915205242281985 0.57357642473473569 1 0 0 forward_v I I I I #
coedge $-1 $271 $272 $273 $274 reversed $107 $-1 #
face $-1 $-1 $275 $59 $-1 $276 forward single #
loop $-1 $277 $278 $109 #
cone-surface $-1 14.894771051508116 44.363063964012284 11.705662603720356 0 -0.81915205242281985 -0.57357642473473569 0.5 0 0 1 I I -0.70710678118654746 0.70710678118654746 0.5 forward I I I I #
loop $-1 $-1 $279 $76 #
coedge $-1 $176 $176 $280 $281 reversed $110 $-1 #
face $-1 $-1 $282 $60 $-1 $283 forward single #
loop $-1 $284 $285 $112 #
cone-surface $-1 21.493591635928368 44.363063964012284 11.705662603720356 0 -0.81915205242281985 -0.57357642473473569 0.5 0 0 1 I I -0.70710678118654746 0.70710678118654746 0.5 forward I I I I #
loop $-1 $-1 $286 $77 #
coedge $-1 $181 $181 $287 $288 reversed $113 $-1 #
face $-1 $289 $290 $61 $-1 $291 reversed single #
loop $-1 $-1 $292 $115 #
plane-surface $-1 54.582544031154697 -7.3710642453579851 91.416106499788143 0 0.81915205242281985 0.57357642473473569 1 0 0 forward_v I I I I #
coedge $-1 $293 $294 $295 $296 reversed $116 $-1 #
face $-1 $-1 $297 $62 $-1 $298 forward single #
loop $-1 $299 $300 $118 #
cone-surface $-1 51.283133738944571 44.363063964012284 11.705662603720356 0 -0.81915205242281985 -0.57357642473473569 0.5 0 0 1 I I -0.70710678118654746 0.70710678118654746 0.5 forward I I I I #
loop $-1 $-1 $301 $79 #
coedge $-1 $190 $190 $302 $303 reversed $119 $-1 #
face $-1 $-1 $304 $63 $-1 $305 forward single #
loop $-1 $306 $307 $121 #
cone-surface $-1 57.881954323364823 44.363063964012284 11.705662603720356 0 -0.81915205242281985 -0.57357642473473569 0.5 0 0 1 I I -0.70710678118654746 0.70710678118654746 0.5 forward I I I I #
loop $-1 $-1 $308 $80 #
coedge $-1 $195 $195 $309 $310 reversed $122 $-1 #
face $-1 $311 $312 $64 $-1 $313 reversed single #
loop $-1 $-1 $314 $124 #
plane-surface $-1 55.153886733545974 -165.53617113845326 91.635207573135858 1 0 0 0 0.79863551827123203 -0.60181501223851219 forward_v I I I I #
coedge $-1 $315 $316 $317 $318 reversed $125 $-1 #
face $-1 $-1 $319 $65 $-1 $320 forward single #
loop $-1 $321 $322 $127 #
cone-surface $-1 58.578384511199715 -41.683312659890184 8.694191873119685 0 0.79863551827123203 -0.60181501223851219 0.5 0 0 1 I I -0.70710678118654746 0.70710678118654746 0.5 forward I I I I #
loop $-1 $-1 $323 $82 #
coedge $-1 $204 $204 $324 $325 reversed $128 $-1 #
face $-1 $-1 $326 $66 $-1 $327 forward single #
loop $-1 $328 $329 $130 #
cone-surface $-1 63.715131177680291 -41.683312659890184 8.694191873119685 0 0.79863551827123203 -0.60181501223851219 0.5 0 0 1 I I -0.70710678118654746 0.70710678118654746 0.5 forward I I I I #
loop $-1 $-1 $330 $83 #
coedge $-1 $209 $209 $331 $332 reversed $131 $-1 #
face $-1 $-1 $333 $67 $-1 $334 forward single #
loop $-1 $335 $336 $133 #
cone-surface $-1 68.851877844160867 -41.683312659890184 8.694191873119685 0 0.79863551827123203 -0.60181501223851219 0.5 0 0 1 I I -0.70710678118654746 0.70710678118654746 0.5 forward I I I I #
loop $-1 $-1 $337 $84 #
coedge $-1 $214 $214 $338 $339 reversed $134 $-1 #
face $-1 $340 $341 $51 $-1 $342 reversed single #
loop $-1 $-1 $343 $136 #
plane-surface $-1 0 -50.091209731464957 0 0 1 0 0 0 1 forward_v I I I I #
coedge $-1 $344 $345 $346 $347 forward $137 $-1 #
coedge $-1 $348 $139 $349 $350 forward $86 $-1 #
coedge $-1 $139 $348 $351 $352 forward $86 $-1 #
coedge $-1 $353 $354 $139 $222 reversed $355 $-1 #
edge $-1 $356 -50.091209731464957 $357 50.091209731464957 $221 $358 forward 7 unknown #
face $-1 $359 $360 $52 $-1 $361 reversed single #
loop $-1 $-1 $362 $140 #
plane-surface $-1 -46.883920015997731 111.03961861922623 174.32815674367862 -1 0 0 0 0.81915205242281985 0.57357642473473569 forward_v I I I I #
coedge $-1 $363 $364 $365 $366 reversed $141 $-1 #
coedge $-1 $228 $143 $367 $368 reversed $89 $-1 #
coedge $-1 $143 $227 $363 $369 reversed $89 $-1 #
coedge $-1 $365 $370 $143 $230 forward $371 $-1 #
edge $-1 $372 5.4285995781481589 $373 11.409819490717943 $229 $374 forward 7 unknown #
loop $-1 $-1 $236 $144 #
plane-surface $-1 -54.582544031154683 -7.3710642453579851 91.416106499788143 0 0.81915205242281985 0.57357642473473569 1 0 0 forward_v I I I I #
loop $-1 $-1 $375 $91 #
coedge $-1 $234 $234 $235 $376 reversed $145 $-1 #
coedge $-1 $235 $235 $234 $376 forward $147 $-1 #
coedge $-1 $236 $236 $148 $237 forward $231 $-1 #
edge $-1 $377 2.8981343250492278e-016 $377 6.2831853071796004 $236 $378 forward 7 unknown #
loop $-1 $-1 $243 $149 #
plane-surface $-1 -54.582544031154683 -7.3710642453579851 91.416106499788143 0 0.81915205242281985 0.57357642473473569 1 0 0 forward_v I I I I #
loop $-1 $-1 $379 $94 #
coedge $-1 $241 $241 $242 $380 reversed $150 $-1 #
coedge $-1 $242 $242 $241 $380 forward $152 $-1 #
coedge $-1 $243 $243 $153 $244 forward $238 $-1 #
edge $-1 $381 2.8981343250492278e-016 $381 6.2831853071796004 $243 $382 forward 7 unknown #
face $-1 $383 $384 $55 $-1 $385 forward single #
loop $-1 $-1 $386 $154 #
plane-surface $-1 -10.495557328561272 111.03961861922623 174.32815674367862 -1 0 0 0 0.81915205242281985 0.57357642473473569 forward_v I I I I #
coedge $-1 $387 $388 $389 $390 reversed $155 $-1 #
coedge $-1 $250 $157 $391 $392 reversed $98 $-1 #
coedge $-1 $157 $249 $387 $393 reversed $98 $-1 #
coedge $-1 $389 $394 $157 $252 forward $384 $-1 #
edge $-1 $395 5.4285995781481589 $396 11.409819490717943 $251 $397 forward 7 unknown #
loop $-1 $-1 $258 $158 #
plane-surface $-1 -18.194181343718228 -7.3710642453579851 91.416106499788143 0 0.81915205242281985 0.57357642473473569 1 0 0 forward_v I I I I #
loop $-1 $-1 $398 $100 #
coedge $-1 $256 $256 $257 $399 reversed $159 $-1 #
coedge $-1 $257 $257 $256 $399 forward $161 $-1 #
coedge $-1 $258 $258 $162 $259 forward $253 $-1 #
edge $-1 $400 2.8981343250492278e-016 $400 6.2831853071796004 $258 $401 forward 7 unknown #
loop $-1 $-1 $265 $163 #
plane-surface $-1 -18.194181343718228 -7.3710642453579851 91.416106499788143 0 0.81915205242281985 0.57357642473473569 1 0 0 forward_v I I I I #
loop $-1 $-1 $402 $103 #
coedge $-1 $263 $263 $264 $403 reversed $164 $-1 #
coedge $-1 $264 $264 $263 $403 forward $166 $-1 #
coedge $-1 $265 $265 $167 $266 forward $260 $-1 #
edge $-1 $404 2.8981343250492278e-016 $404 6.2831853071796004 $265 $405 forward 7 unknown #
face $-1 $406 $407 $58 $-1 $408 forward single #
loop $-1 $-1 $409 $168 #
plane-surface $-1 25.892805358875197 111.03961861922623 174.32815674367862 -1 0 0 0 0.81915205242281985 0.57357642473473569 forward_v I I I I #
coedge $-1 $410 $411 $412 $413 reversed $169 $-1 #
coedge $-1 $272 $171 $414 $415 reversed $107 $-1 #
coedge $-1 $171 $271 $410 $416 reversed $107 $-1 #
coedge $-1 $412 $417 $171 $274 forward $407 $-1 #
edge $-1 $418 5.4285995781481589 $419 11.409819490717943 $273 $420 forward 7 unknown #
loop $-1 $-1 $280 $172 #
plane-surface $-1 18.194181343718242 -7.3710642453579851 91.416106499788143 0 0.81915205242281985 0.57357642473473569 1 0 0 forward_v I I I I #
loop $-1 $-1 $421 $109 #
coedge $-1 $278 $278 $279 $422 reversed $173 $-1 #
coedge $-1 $279 $279 $278 $422 forward $175 $-1 #
coedge $-1 $280 $280 $176 $281 forward $275 $-1 #
edge $-1 $423 2.8981343250492278e-016 $423 6.2831853071796004 $280 $424 forward 7 unknown #
loop $-1 $-1 $287 $177 #
plane-surface $-1 18.194181343718242 -7.3710642453579851 91.416106499788143 0 0.81915205242281985 0.57357642473473569 1 0 0 forward_v I I I I #
loop $-1 $-1 $425 $112 #
coedge $-1 $285 $285 $286 $426 reversed $178 $-1 #
coedge $-1 $286 $286 $285 $426 forward $180 $-1 #
coedge $-1 $287 $287 $181 $288 forward $282 $-1 #
edge $-1 $427 2.8981343250492278e-016 $427 6.2831853071796004 $287 $428 forward 7 unknown #
face $-1 $429 $430 $61 $-1 $431 forward single #
loop $-1 $-1 $432 $182 #
plane-surface $-1 62.281168046311649 111.03961861922623 174.32815674367862 -1 0 0 0 0.81915205242281985 0.57357642473473569 forward_v I I I I #
coedge $-1 $433 $434 $435 $436 reversed $183 $-1 #
coedge $-1 $294 $185 $437 $438 reversed $116 $-1 #
coedge $-1 $185 $293 $433 $439 reversed $116 $-1 #
coedge $-1 $435 $440 $185 $296 forward $430 $-1 #
edge $-1 $441 5.4285995781481589 $442 11.409819490717943 $295 $443 forward 7 unknown #
loop $-1 $-1 $302 $186 #
plane-surface $-1 54.582544031154697 -7.3710642453579851 91.416106499788143 0 0.81915205242281985 0.57357642473473569 1 0 0 forward_v I I I I #
loop $-1 $-1 $444 $118 #
coedge $-1 $300 $300 $301 $445 reversed $187 $-1 #
coedge $-1 $301 $301 $300 $445 forward $189 $-1 #
coedge $-1 $302 $302 $190 $303 forward $297 $-1 #
edge $-1 $446 2.8981343250492278e-016 $446 6.2831853071796004 $302 $447 forward 7 unknown #
loop $-1 $-1 $309 $191 #
plane-surface $-1 54.582544031154697 -7.3710642453579851 91.416106499788143 0 0.81915205242281985 0.57357642473473569 1 0 0 forward_v I I I I #
loop $-1 $-1 $448 $121 #
coedge $-1 $307 $307 $308 $449 reversed $192 $-1 #
coedge $-1 $308 $308 $307 $449 forward $194 $-1 #
coedge $-1 $309 $309 $195 $310 forward $304 $-1 #
edge $-1 $450 2.8981343250492278e-016 $450 6.2831853071796004 $309 $451 forward 7 unknown #
face $-1 $452 $453 $64 $-1 $454 forward single #
loop $-1 $-1 $455 $196 #
plane-surface $-1 0 -50.091209731464957 0 0 1 0 0 0 1 forward_v I I I I #
coedge $-1 $456 $457 $458 $459 reversed $197 $-1 #
coedge $-1 $460 $199 $461 $462 reversed $125 $-1 #
coedge $-1 $199 $460 $456 $463 forward $125 $-1 #
coedge $-1 $458 $464 $199 $318 forward $453 $-1 #
edge $-1 $465 -40.418810032974463 $466 -23.296321144705828 $317 $467 forward 7 unknown #
loop $-1 $-1 $324 $200 #
plane-surface $-1 63.715131177680291 -50.091209731464929 4.641191814340516 0 -0.79863551827123203 0.60181501223851219 1 0 0 forward_v I I I I #
loop $-1 $-1 $468 $127 #
coedge $-1 $322 $322 $323 $469 reversed $201 $-1 #
coedge $-1 $323 $323 $322 $469 forward $203 $-1 #
coedge $-1 $324 $324 $204 $325 forward $319 $-1 #
edge $-1 $470 -1.4791652359709833e-015 $470 6.2831853071795987 $324 $471 forward 7 unknown #
loop $-1 $-1 $331 $205 #
plane-surface $-1 63.715131177680291 -50.091209731464929 4.641191814340516 0 -0.79863551827123203 0.60181501223851219 1 0 0 forward_v I I I I #
loop $-1 $-1 $472 $130 #
coedge $-1 $329 $329 $330 $473 reversed $206 $-1 #
coedge $-1 $330 $330 $329 $473 forward $208 $-1 #
coedge $-1 $331 $331 $209 $332 forward $326 $-1 #
edge $-1 $474 -1.4791652359709833e-015 $474 6.2831853071795987 $331 $475 forward 7 unknown #
loop $-1 $-1 $338 $210 #
plane-surface $-1 63.715131177680291 -50.091209731464929 4.641191814340516 0 -0.79863551827123203 0.60181501223851219 1 0 0 forward_v I I I I #
loop $-1 $-1 $476 $133 #
coedge $-1 $336 $336 $337 $477 reversed $211 $-1 #
coedge $-1 $337 $337 $336 $477 forward $213 $-1 #
coedge $-1 $338 $338 $214 $339 forward $333 $-1 #
edge $-1 $478 -1.4791652359709833e-015 $478 6.2831853071795987 $338 $479 forward 7 unknown #
face $-1 $480 $481 $51 $-1 $482 reversed single #
loop $-1 $-1 $483 $215 #
plane-surface $-1 -72.276375621814623 0 0 1 0 0 0 0 -1 forward_v I I I I #
coedge $-1 $484 $351 $485 $486 forward $216 $-1 #
coedge $-1 $487 $218 $484 $488 forward $137 $-1 #
coedge $-1 $218 $487 $489 $490 forward $137 $-1 #
coedge $-1 $354 $353 $218 $347 reversed $355 $-1 #
edge $-1 $491 -50.091209731464957 $492 50.091209731464957 $346 $493 forward 7 unknown #
coedge $-1 $220 $219 $494 $495 forward $86 $-1 #
coedge $-1 $496 $497 $219 $350 reversed $481 $-1 #
edge $-1 $357 -72.276375621814623 $498 72.276375621814623 $349 $499 forward 7 unknown #
coedge $-1 $343 $500 $220 $352 reversed $216 $-1 #
edge $-1 $501 -72.276375621814623 $356 72.276375621814623 $351 $502 forward 7 unknown #
coedge $-1 $346 $221 $500 $503 forward $355 $-1 #
coedge $-1 $221 $346 $496 $504 reversed $355 $-1 #
loop $-1 $-1 $353 $480 #
vertex $-1 $222 $505 #
vertex $-1 $222 $506 #
straight-curve $-1 72.276375621814623 0 17.893539533884621 0 1 0 I I #
face $-1 $-1 $371 $52 $-1 $507 forward single #
loop $-1 $-1 $508 $223 #
plane-surface $-1 0 50.091209731464957 0 0 -1 0 0 0 -1 forward_v I I I I #
coedge $-1 $509 $510 $511 $512 reversed $224 $-1 #
coedge $-1 $513 $226 $228 $369 forward $141 $-1 #
coedge $-1 $226 $513 $509 $514 forward $141 $-1 #
coedge $-1 $511 $229 $226 $366 forward $371 $-1 #
edge $-1 $373 -34.989896030734293 $515 -19.59264800042039 $365 $516 forward 7 unknown #
coedge $-1 $517 $518 $227 $368 forward $360 $-1 #
edge $-1 $519 -77.812606391794063 $372 -69.270538837954689 $367 $520 forward 7 unknown #
edge $-1 $373 89.754480561264046 $519 100.18241946292993 $228 $521 forward 7 unknown #
coedge $-1 $229 $511 $517 $522 forward $371 $-1 #
loop $-1 $-1 $511 $359 #
vertex $-1 $368 $523 #
vertex $-1 $230 $524 #
straight-curve $-1 -62.281168046311635 55.519809309613116 17.893539533884621 0 -1 0 I I #
coedge $-1 $375 $375 $-1 $525 reversed $233 $-1 #
edge $-1 $526 0 $526 6.2831853071796004 $234 $527 forward 7 unknown #
vertex $-1 $237 $528 #
ellipse-curve $-1 -57.881954323364809 47.100599775180072 13.622505756964932 0 0.81915205242281985 0.57357642473473569 1 0 0 1 I I #
coedge $-1 $379 $379 $-1 $529 reversed $240 $-1 #
edge $-1 $530 0 $530 6.2831853071796004 $241 $531 forward 7 unknown #
vertex $-1 $244 $532 #
ellipse-curve $-1 -51.283133738944564 47.100599775180072 13.622505756964932 0 0.81915205242281985 0.57357642473473569 1 0 0 1 I I #
face $-1 $-1 $533 $55 $-1 $534 reversed single #
loop $-1 $-1 $251 $245 #
plane-surface $-1 0 0 17.893539533884621 0 0 1 1 0 0 forward_v I I I I #
coedge $-1 $535 $536 $537 $538 reversed $246 $-1 #
coedge $-1 $539 $248 $250 $393 forward $155 $-1 #
coedge $-1 $248 $539 $535 $540 forward $155 $-1 #
coedge $-1 $537 $251 $248 $390 forward $384 $-1 #
edge $-1 $396 -16.795714687016069 $541 -1.3984666567021584 $389 $542 forward 7 unknown #
coedge $-1 $543 $544 $249 $392 forward $533 $-1 #
edge $-1 $545 -77.812606391794063 $395 -69.270538837954689 $391 $546 forward 7 unknown #
edge $-1 $396 89.754480561264046 $545 100.18241946292993 $250 $547 forward 7 unknown #
coedge $-1 $251 $537 $543 $548 forward $384 $-1 #
vertex $-1 $252 $549 #
vertex $-1 $252 $550 #
straight-curve $-1 -25.892805358875183 55.519809309613116 17.893539533884621 0 -1 0 I I #
coedge $-1 $398 $398 $-1 $551 reversed $255 $-1 #
edge $-1 $552 0 $552 6.2831853071796004 $256 $553 forward 7 unknown #
vertex $-1 $259 $554 #
ellipse-curve $-1 -21.493591635928347 47.100599775180072 13.622505756964932 0 0.81915205242281985 0.57357642473473569 1 0 0 1 I I #
coedge $-1 $402 $402 $-1 $555 reversed $262 $-1 #
edge $-1 $556 0 $556 6.2831853071796004 $263 $557 forward 7 unknown #
vertex $-1 $266 $558 #
ellipse-curve $-1 -14.894771051508101 47.100599775180072 13.622505756964932 0 0.81915205242281985 0.57357642473473569 1 0 0 1 I I #
face $-1 $-1 $559 $58 $-1 $560 reversed single #
loop $-1 $-1 $273 $267 #
plane-surface $-1 0 0 17.893539533884621 0 0 1 1 0 0 forward_v I I I I #
coedge $-1 $561 $562 $563 $564 reversed $268 $-1 #
coedge $-1 $565 $270 $272 $416 forward $169 $-1 #
coedge $-1 $270 $565 $561 $566 forward $169 $-1 #
coedge $-1 $563 $273 $270 $413 forward $407 $-1 #
edge $-1 $419 1.3984666567021655 $567 16.795714687016076 $412 $568 forward 7 unknown #
coedge $-1 $569 $570 $271 $415 forward $559 $-1 #
edge $-1 $571 -77.812606391794063 $418 -69.270538837954689 $414 $572 forward 7 unknown #
edge $-1 $419 89.754480561264046 $571 100.18241946292993 $272 $573 forward 7 unknown #
coedge $-1 $273 $563 $569 $574 forward $407 $-1 #
vertex $-1 $274 $575 #
vertex $-1 $274 $576 #
straight-curve $-1 10.495557328561286 55.519809309613116 17.893539533884621 0 -1 0 I I #
coedge $-1 $421 $421 $-1 $577 reversed $277 $-1 #
edge $-1 $578 0 $578 6.2831853071796004 $278 $579 forward 7 unknown #
vertex $-1 $281 $580 #
ellipse-curve $-1 14.894771051508116 47.100599775180072 13.622505756964932 0 0.81915205242281985 0.57357642473473569 1 0 0 1 I I #
coedge $-1 $425 $425 $-1 $581 reversed $284 $-1 #
edge $-1 $582 0 $582 6.2831853071796004 $285 $583 forward 7 unknown #
vertex $-1 $288 $584 #
ellipse-curve $-1 21.493591635928368 47.100599775180072 13.622505756964932 0 0.81915205242281985 0.57357642473473569 1 0 0 1 I I #
face $-1 $-1 $585 $61 $-1 $586 reversed single #
loop $-1 $-1 $295 $289 #
plane-surface $-1 0 0 17.893539533884621 0 0 1 1 0 0 forward_v I I I I #
coedge $-1 $587 $588 $589 $590 reversed $290 $-1 #
coedge $-1 $591 $292 $294 $439 forward $183 $-1 #
coedge $-1 $292 $591 $587 $592 forward $183 $-1 #
coedge $-1 $589 $295 $292 $436 forward $430 $-1 #
edge $-1 $442 19.592648000420397 $593 34.9898960307343 $435 $594 forward 7 unknown #
coedge $-1 $595 $596 $293 $438 forward $585 $-1 #
edge $-1 $597 -77.812606391794063 $441 -69.270538837954689 $437 $598 forward 7 unknown #
edge $-1 $442 89.754480561264046 $597 100.18241946292993 $294 $599 forward 7 unknown #
coedge $-1 $295 $589 $595 $600 forward $430 $-1 #
vertex $-1 $296 $601 #
vertex $-1 $296 $602 #
straight-curve $-1 46.883920015997745 55.519809309613116 17.893539533884621 0 -1 0 I I #
coedge $-1 $444 $444 $-1 $603 reversed $299 $-1 #
edge $-1 $604 0 $604 6.2831853071796004 $300 $605 forward 7 unknown #
vertex $-1 $303 $606 #
ellipse-curve $-1 51.283133738944571 47.100599775180072 13.622505756964932 0 0.81915205242281985 0.57357642473473569 1 0 0 1 I I #
coedge $-1 $448 $448 $-1 $607 reversed $306 $-1 #
edge $-1 $608 0 $608 6.2831853071796004 $307 $609 forward 7 unknown #
vertex $-1 $310 $610 #
ellipse-curve $-1 57.881954323364823 47.100599775180072 13.622505756964932 0 0.81915205242281985 0.57357642473473569 1 0 0 1 I I #
face $-1 $-1 $611 $64 $-1 $612 reversed single #
loop $-1 $-1 $458 $311 #
plane-surface $-1 0 0 17.893539533884621 0 0 1 1 0 0 forward_v I I I I #
coedge $-1 $613 $614 $457 $615 forward $312 $-1 #
coedge $-1 $457 $314 $316 $463 reversed $197 $-1 #
coedge $-1 $314 $456 $455 $615 reversed $197 $-1 #
coedge $-1 $616 $317 $314 $459 forward $453 $-1 #
edge $-1 $466 -42.66323585126392 $617 -32.676875837761671 $458 $618 forward 7 unknown #
coedge $-1 $316 $315 $613 $619 reversed $125 $-1 #
coedge $-1 $620 $621 $315 $462 forward $611 $-1 #
edge $-1 $622 -13.219510683770753 $465 3.3742262792820084 $461 $623 forward 7 unknown #
edge $-1 $624 -4.6896506375148425e-014 $466 16.593736963052713 $456 $625 forward 7 unknown #
coedge $-1 $317 $616 $620 $626 forward $453 $-1 #
vertex $-1 $462 $627 #
vertex $-1 $318 $628 #
straight-curve $-1 31.857565588840146 -40.104849717962708 17.893539533884621 -1 0 0 I I #
coedge $-1 $468 $468 $-1 $629 reversed $321 $-1 #
edge $-1 $630 0 $630 6.2831853071796004 $322 $631 forward 7 unknown #
vertex $-1 $325 $632 #
ellipse-curve $-1 58.578384511199715 -45.098029724713825 11.267365674112558 0 -0.79863551827123203 0.60181501223851219 1 0 0 1 I I #
coedge $-1 $472 $472 $-1 $633 reversed $328 $-1 #
edge $-1 $634 0 $634 6.2831853071796004 $329 $635 forward 7 unknown #
vertex $-1 $332 $636 #
ellipse-curve $-1 63.715131177680291 -45.098029724713825 11.267365674112558 0 -0.79863551827123203 0.60181501223851219 1 0 0 1 I I #
coedge $-1 $476 $476 $-1 $637 reversed $335 $-1 #
edge $-1 $638 0 $638 6.2831853071796004 $336 $639 forward 7 unknown #
vertex $-1 $339 $640 #
ellipse-curve $-1 68.851877844160867 -45.098029724713825 11.267365674112558 0 -0.79863551827123203 0.60181501223851219 1 0 0 1 I I #
face $-1 $-1 $355 $51 $-1 $641 reversed single #
loop $-1 $-1 $496 $340 #
plane-surface $-1 0 50.091209731464957 0 0 -1 0 0 0 -1 forward_v I I I I #
coedge $-1 $642 $494 $497 $643 forward $341 $-1 #
coedge $-1 $500 $343 $344 $488 reversed $216 $-1 #
coedge $-1 $494 $642 $343 $486 reversed $341 $-1 #
edge $-1 $501 -17.893539533884621 $644 17.893539533884621 $485 $645 forward 7 unknown #
coedge $-1 $345 $344 $642 $646 forward $137 $-1 #
edge $-1 $492 -72.276375621814623 $644 72.276375621814623 $484 $647 forward 7 unknown #
coedge $-1 $497 $496 $345 $490 reversed $481 $-1 #
edge $-1 $648 -72.276375621814623 $491 72.276375621814623 $489 $649 forward 7 unknown #
vertex $-1 $347 $650 #
vertex $-1 $503 $651 #
straight-curve $-1 72.276375621814623 0 -17.893539533884621 0 -1 0 I I #
coedge $-1 $483 $485 $348 $495 reversed $341 $-1 #
edge $-1 $498 -50.091209731464957 $501 50.091209731464957 $494 $652 forward 7 unknown #
coedge $-1 $489 $349 $354 $504 forward $481 $-1 #
coedge $-1 $349 $489 $483 $643 reversed $481 $-1 #
vertex $-1 $350 $653 #
straight-curve $-1 0 50.091209731464957 17.893539533884621 -1 0 0 I I #
coedge $-1 $351 $484 $353 $503 reversed $216 $-1 #
vertex $-1 $495 $654 #
straight-curve $-1 0 -50.091209731464957 17.893539533884621 1 0 0 I I #
edge $-1 $356 -17.893539533884621 $492 17.893539533884621 $353 $655 forward 7 unknown #
edge $-1 $357 -17.893539533884621 $491 17.893539533884621 $354 $656 forward 7 unknown #
point $-1 72.276375621814623 -50.091209731464957 17.893539533884621 #
point $-1 72.276375621814623 50.091209731464957 17.893539533884621 #
plane-surface $-1 0 0 17.893539533884621 0 0 1 1 0 0 forward_v I I I I #
coedge $-1 $518 $517 $510 $657 forward $360 $-1 #
coedge $-1 $510 $362 $364 $514 reversed $224 $-1 #
coedge $-1 $362 $509 $508 $657 reversed $224 $-1 #
coedge $-1 $370 $365 $362 $512 forward $371 $-1 #
edge $-1 $515 -11.409819490717943 $658 -5.4285995781481589 $511 $659 forward 7 unknown #
coedge $-1 $364 $363 $518 $660 reversed $141 $-1 #
edge $-1 $661 -100.18241946292993 $515 -89.754480561264046 $509 $662 forward 7 unknown #
vertex $-1 $366 $663 #
straight-curve $-1 -27.291272015577341 44.10998981889518 17.893539533884613 1 0 0 I I #
coedge $-1 $508 $367 $370 $522 reversed $360 $-1 #
coedge $-1 $367 $508 $513 $660 forward $360 $-1 #
vertex $-1 $368 $664 #
straight-curve $-1 -62.281168046311635 50.091209731464957 87.16407837183931 0 0 1 I I #
straight-curve $-1 -62.281168046311635 -7.3710642453579851 91.416106499788143 0 0.57357642473473569 -0.81915205242281985 I I #
edge $-1 $658 46.883920015997731 $372 62.281168046311635 $517 $665 forward 7 unknown #
point $-1 -62.281168046311635 50.091209731464957 17.893539533884621 #
point $-1 -62.281168046311635 44.109989818895173 17.893539533884621 #
edge $-1 $666 1 $666 0 $375 $-1 forward 7 unknown #
vertex $-1 $376 $667 #
ellipse-curve $-1 -57.881954323364809 44.772639990223695 11.992450816087723 0 0.81915205242281985 0.57357642473473569 1 0 0 1 I I #
point $-1 -56.881954323364809 47.100599775180065 13.622505756964927 #
edge $-1 $668 1 $668 0 $379 $-1 forward 7 unknown #
vertex $-1 $380 $669 #
ellipse-curve $-1 -51.283133738944564 44.772639990223695 11.992450816087723 0 0.81915205242281985 0.57357642473473569 1 0 0 1 I I #
point $-1 -50.283133738944564 47.100599775180065 13.622505756964927 #
loop $-1 $-1 $391 $383 #
plane-surface $-1 0 50.091209731464957 0 0 -1 0 0 0 -1 forward_v I I I I #
coedge $-1 $536 $386 $388 $540 reversed $246 $-1 #
coedge $-1 $386 $535 $670 $671 reversed $246 $-1 #
coedge $-1 $394 $389 $386 $538 forward $384 $-1 #
edge $-1 $541 -11.409819490717943 $672 -5.4285995781481589 $537 $673 forward 7 unknown #
coedge $-1 $388 $387 $544 $674 reversed $155 $-1 #
edge $-1 $675 -100.18241946292993 $541 -89.754480561264046 $535 $676 forward 7 unknown #
vertex $-1 $390 $677 #
straight-curve $-1 -9.0970906718591138 44.10998981889518 17.893539533884613 1 0 0 I I #
coedge $-1 $670 $391 $394 $548 reversed $533 $-1 #
coedge $-1 $391 $670 $539 $674 forward $533 $-1 #
vertex $-1 $392 $678 #
straight-curve $-1 -25.892805358875183 50.091209731464957 87.16407837183931 0 0 1 I I #
straight-curve $-1 -25.892805358875183 -7.3710642453579851 91.416106499788143 0 0.57357642473473569 -0.81915205242281985 I I #
edge $-1 $672 10.495557328561272 $395 25.892805358875183 $543 $679 forward 7 unknown #
point $-1 -25.892805358875183 50.091209731464957 17.893539533884621 #
point $-1 -25.892805358875183 44.109989818895173 17.893539533884621 #
edge $-1 $680 1 $680 0 $398 $-1 forward 7 unknown #
vertex $-1 $399 $681 #
ellipse-curve $-1 -21.493591635928347 44.772639990223695 11.992450816087723 0 0.81915205242281985 0.57357642473473569 1 0 0 1 I I #
point $-1 -20.493591635928347 47.100599775180065 13.622505756964927 #
edge $-1 $682 1 $682 0 $402 $-1 forward 7 unknown #
vertex $-1 $403 $683 #
ellipse-curve $-1 -14.894771051508101 44.772639990223695 11.992450816087723 0 0.81915205242281985 0.57357642473473569 1 0 0 1 I I #
point $-1 -13.894771051508101 47.100599775180065 13.622505756964927 #
loop $-1 $-1 $414 $406 #
plane-surface $-1 0 50.091209731464957 0 0 -1 0 0 0 -1 forward_v I I I I #
coedge $-1 $562 $409 $411 $566 reversed $268 $-1 #
coedge $-1 $409 $561 $684 $685 reversed $268 $-1 #
coedge $-1 $417 $412 $409 $564 forward $407 $-1 #
edge $-1 $567 -11.409819490717943 $686 -5.4285995781481589 $563 $687 forward 7 unknown #
coedge $-1 $411 $410 $570 $688 reversed $169 $-1 #
edge $-1 $689 -100.18241946292993 $567 -89.754480561264046 $561 $690 forward 7 unknown #
vertex $-1 $413 $691 #
straight-curve $-1 9.0970906718591209 44.10998981889518 17.893539533884613 1 0 0 I I #
coedge $-1 $684 $414 $417 $574 reversed $559 $-1 #
coedge $-1 $414 $684 $565 $688 forward $559 $-1 #
vertex $-1 $415 $692 #
straight-curve $-1 10.495557328561286 50.091209731464957 87.16407837183931 0 0 1 I I #
straight-curve $-1 10.495557328561286 -7.3710642453579851 91.416106499788143 0 0.57357642473473569 -0.81915205242281985 I I #
edge $-1 $686 -25.892805358875197 $418 -10.495557328561286 $569 $693 forward 7 unknown #
point $-1 10.495557328561286 50.091209731464957 17.893539533884621 #
point $-1 10.495557328561286 44.109989818895173 17.893539533884621 #
edge $-1 $694 1 $694 0 $421 $-1 forward 7 unknown #
vertex $-1 $422 $695 #
ellipse-curve $-1 14.894771051508116 44.772639990223695 11.992450816087723 0 0.81915205242281985 0.57357642473473569 1 0 0 1 I I #
point $-1 15.894771051508116 47.100599775180065 13.622505756964927 #
edge $-1 $696 1 $696 0 $425 $-1 forward 7 unknown #
vertex $-1 $426 $697 #
ellipse-curve $-1 21.493591635928368 44.772639990223695 11.992450816087723 0 0.81915205242281985 0.57357642473473569 1 0 0 1 I I #
point $-1 22.493591635928368 47.100599775180065 13.622505756964927 #
loop $-1 $-1 $437 $429 #
plane-surface $-1 0 50.091209731464957 0 0 -1 0 0 0 -1 forward_v I I I I #
coedge $-1 $588 $432 $434 $592 reversed $290 $-1 #
coedge $-1 $432 $587 $698 $699 reversed $290 $-1 #
coedge $-1 $440 $435 $432 $590 forward $430 $-1 #
edge $-1 $593 -11.409819490717943 $700 -5.4285995781481589 $589 $701 forward 7 unknown #
coedge $-1 $434 $433 $596 $702 reversed $183 $-1 #
edge $-1 $703 -100.18241946292993 $593 -89.754480561264046 $587 $704 forward 7 unknown #
vertex $-1 $436 $705 #
straight-curve $-1 27.291272015577348 44.10998981889518 17.893539533884613 1 0 0 I I #
coedge $-1 $698 $437 $440 $600 reversed $585 $-1 #
coedge $-1 $437 $698 $591 $702 forward $585 $-1 #
vertex $-1 $438 $706 #
straight-curve $-1 46.883920015997745 50.091209731464957 87.16407837183931 0 0 1 I I #
straight-curve $-1 46.883920015997745 -7.3710642453579851 91.416106499788143 0 0.57357642473473569 -0.81915205242281985 I I #
edge $-1 $700 -62.281168046311649 $441 -46.883920015997745 $595 $707 forward 7 unknown #
point $-1 46.883920015997745 50.091209731464957 17.893539533884621 #
point $-1 46.883920015997745 44.109989818895173 17.893539533884621 #
edge $-1 $708 1 $708 0 $444 $-1 forward 7 unknown #
vertex $-1 $445 $709 #
ellipse-curve $-1 51.283133738944571 44.772639990223695 11.992450816087723 0 0.81915205242281985 0.57357642473473569 1 0 0 1 I I #
point $-1 52.283133738944571 47.100599775180065 13.622505756964927 #
edge $-1 $710 1 $710 0 $448 $-1 forward 7 unknown #
vertex $-1 $449 $711 #
ellipse-curve $-1 57.881954323364823 44.772639990223695 11.992450816087723 0 0.81915205242281985 0.57357642473473569 1 0 0 1 I I #
point $-1 58.881954323364823 47.100599775180065 13.622505756964927 #
loop $-1 $-1 $461 $452 #
plane-surface $-1 72.276375621814623 0 0 -1 0 0 0 0 1 forward_v I I I I #
coedge $-1 $712 $455 $460 $619 forward $312 $-1 #
coedge $-1 $455 $712 $616 $713 reversed $312 $-1 #
edge $-1 $617 27.924064252683308 $624 41.176411972227449 $455 $714 forward 7 unknown #
coedge $-1 $464 $458 $614 $713 forward $453 $-1 #
vertex $-1 $713 $715 #
straight-curve $-1 55.153886733545974 -82.768085569226628 17.893539533884621 0 -1 0 I I #
edge $-1 $624 23.296321144705828 $622 40.418810032974463 $613 $716 forward 7 unknown #
coedge $-1 $621 $461 $464 $626 reversed $611 $-1 #
coedge $-1 $461 $620 $712 $717 forward $611 $-1 #
vertex $-1 $619 $718 #
straight-curve $-1 72.276375621814623 -42.135509747524317 15.198762580565822 0 0.60181501223851219 0.79863551827123203 I I #
vertex $-1 $619 $719 #
straight-curve $-1 55.153886733545974 -50.091209731464929 4.641191814340516 0 0.60181501223851219 0.79863551827123203 I I #
edge $-1 $720 -50.091209731464957 $465 -40.104849717962708 $620 $721 forward 7 unknown #
point $-1 72.276375621814609 -40.104849717962708 17.893539533884621 #
point $-1 55.153886733545974 -40.104849717962708 17.893539533884621 #
edge $-1 $722 1 $722 0 $468 $-1 forward 7 unknown #
vertex $-1 $469 $723 #
ellipse-curve $-1 58.578384511199715 -42.082630419025797 8.9950993792389404 0 -0.79863551827123203 0.60181501223851219 1 0 0 1 I I #
point $-1 59.578384511199715 -45.098029724713847 11.267365674112572 #
edge $-1 $724 1 $724 0 $472 $-1 forward 7 unknown #
vertex $-1 $473 $725 #
ellipse-curve $-1 63.715131177680291 -42.082630419025797 8.9950993792389404 0 -0.79863551827123203 0.60181501223851219 1 0 0 1 I I #
point $-1 64.715131177680291 -45.098029724713847 11.267365674112572 #
edge $-1 $726 1 $726 0 $476 $-1 forward 7 unknown #
vertex $-1 $477 $727 #
ellipse-curve $-1 68.851877844160867 -42.082630419025797 8.9950993792389404 0 -0.79863551827123203 0.60181501223851219 1 0 0 1 I I #
point $-1 69.851877844160867 -45.098029724713847 11.267365674112572 #
plane-surface $-1 72.276375621814623 0 0 -1 0 0 0 0 1 forward_v I I I I #
coedge $-1 $485 $483 $487 $646 reversed $341 $-1 #
edge $-1 $498 -17.893539533884621 $648 17.893539533884621 $497 $728 forward 7 unknown #
vertex $-1 $646 $729 #
straight-curve $-1 -72.276375621814623 -50.091209731464957 0 0 0 -1 I I #
edge $-1 $644 -50.091209731464957 $648 50.091209731464957 $642 $730 forward 7 unknown #
straight-curve $-1 0 -50.091209731464957 -17.893539533884621 -1 0 0 I I #
vertex $-1 $490 $731 #
straight-curve $-1 0 50.091209731464957 -17.893539533884621 1 0 0 I I #
point $-1 72.276375621814623 50.091209731464957 -17.893539533884621 #
point $-1 72.276375621814623 -50.091209731464957 -17.893539533884621 #
straight-curve $-1 -72.276375621814623 0 17.893539533884621 0 -1 0 I I #
point $-1 -72.276375621814623 50.091209731464957 17.893539533884621 #
point $-1 -72.276375621814623 -50.091209731464957 17.893539533884621 #
straight-curve $-1 72.276375621814623 -50.091209731464957 0 0 0 -1 I I #
straight-curve $-1 72.276375621814623 50.091209731464957 0 0 0 -1 I I #
edge $-1 $658 69.270538837954689 $661 77.812606391794063 $508 $732 forward 7 unknown #
vertex $-1 $522 $733 #
straight-curve $-1 -46.883920015997731 55.519809309613116 17.893539533884621 0 1 0 I I #
edge $-1 $661 19.59264800042039 $519 34.989896030734293 $518 $734 forward 7 unknown #
vertex $-1 $660 $735 #
straight-curve $-1 -46.883920015997731 -7.3710642453579851 91.416106499788143 0 -0.57357642473473569 0.81915205242281985 I I #
point $-1 -46.883920015997731 44.109989818895173 17.893539533884621 #
point $-1 -62.281168046311635 50.091209731464957 9.3514719800452468 #
straight-curve $-1 0 50.091209731464957 17.893539533884621 -1 0 0 I I #
vertex $-1 $525 $736 #
point $-1 -56.881954323364809 44.772639990223695 11.992450816087723 #
vertex $-1 $529 $737 #
point $-1 -50.283133738944564 44.772639990223695 11.992450816087723 #
coedge $-1 $544 $543 $536 $671 forward $533 $-1 #
edge $-1 $672 69.270538837954689 $675 77.812606391794063 $670 $738 forward 7 unknown #
vertex $-1 $548 $739 #
straight-curve $-1 -10.495557328561272 55.519809309613116 17.893539533884621 0 1 0 I I #
edge $-1 $675 1.3984666567021584 $545 16.795714687016069 $544 $740 forward 7 unknown #
vertex $-1 $674 $741 #
straight-curve $-1 -10.495557328561272 -7.3710642453579851 91.416106499788143 0 -0.57357642473473569 0.81915205242281985 I I #
point $-1 -10.495557328561272 44.109989818895173 17.893539533884621 #
point $-1 -25.892805358875183 50.091209731464957 9.3514719800452468 #
straight-curve $-1 0 50.091209731464957 17.893539533884621 -1 0 0 I I #
vertex $-1 $551 $742 #
point $-1 -20.493591635928347 44.772639990223695 11.992450816087723 #
vertex $-1 $555 $743 #
point $-1 -13.894771051508101 44.772639990223695 11.992450816087723 #
coedge $-1 $570 $569 $562 $685 forward $559 $-1 #
edge $-1 $686 69.270538837954689 $689 77.812606391794063 $684 $744 forward 7 unknown #
vertex $-1 $574 $745 #
straight-curve $-1 25.892805358875197 55.519809309613116 17.893539533884621 0 1 0 I I #
edge $-1 $689 -16.795714687016076 $571 -1.3984666567021655 $570 $746 forward 7 unknown #
vertex $-1 $688 $747 #
straight-curve $-1 25.892805358875197 -7.3710642453579851 91.416106499788143 0 -0.57357642473473569 0.81915205242281985 I I #
point $-1 25.892805358875197 44.109989818895173 17.893539533884621 #
point $-1 10.495557328561286 50.091209731464957 9.3514719800452468 #
straight-curve $-1 0 50.091209731464957 17.893539533884621 -1 0 0 I I #
vertex $-1 $577 $748 #
point $-1 15.894771051508116 44.772639990223695 11.992450816087723 #
vertex $-1 $581 $749 #
point $-1 22.493591635928368 44.772639990223695 11.992450816087723 #
coedge $-1 $596 $595 $588 $699 forward $585 $-1 #
edge $-1 $700 69.270538837954689 $703 77.812606391794063 $698 $750 forward 7 unknown #
vertex $-1 $600 $751 #
straight-curve $-1 62.281168046311649 55.519809309613116 17.893539533884621 0 1 0 I I #
edge $-1 $703 -34.9898960307343 $597 -19.592648000420397 $596 $752 forward 7 unknown #
vertex $-1 $702 $753 #
straight-curve $-1 62.281168046311649 -7.3710642453579851 91.416106499788143 0 -0.57357642473473569 0.81915205242281985 I I #
point $-1 62.281168046311649 44.109989818895173 17.893539533884621 #
point $-1 46.883920015997745 50.091209731464957 9.3514719800452468 #
straight-curve $-1 0 50.091209731464957 17.893539533884621 -1 0 0 I I #
vertex $-1 $603 $754 #
point $-1 52.283133738944571 44.772639990223695 11.992450816087723 #
vertex $-1 $607 $755 #
point $-1 58.881954323364823 44.772639990223695 11.992450816087723 #
coedge $-1 $614 $613 $621 $717 reversed $312 $-1 #
edge $-1 $617 55.153886733545974 $720 72.276375621814623 $614 $756 forward 7 unknown #
straight-curve $-1 55.153886733545974 -50.091209731464957 45.817603786567929 0 0 -1 I I #
point $-1 55.153886733545974 -50.091209731464957 17.893539533884621 #
straight-curve $-1 31.857565588840146 -50.091209731464957 4.641191814340476 1 0 0 I I #
edge $-1 $720 -17.893539533884621 $622 -4.6411918143404787 $621 $757 forward 7 unknown #
point $-1 72.276375621814609 -50.091209731464957 4.6411918143404787 #
point $-1 55.153886733545974 -50.091209731464957 4.6411918143404787 #
vertex $-1 $626 $758 #
straight-curve $-1 72.276375621814623 0 17.893539533884621 0 1 0 I I #
vertex $-1 $629 $759 #
point $-1 59.578384511199715 -42.082630419025797 8.9950993792389404 #
vertex $-1 $633 $760 #
point $-1 64.715131177680291 -42.082630419025797 8.9950993792389404 #
vertex $-1 $637 $761 #
point $-1 69.851877844160867 -42.082630419025797 8.9950993792389404 #
straight-curve $-1 -72.276375621814623 50.091209731464957 0 0 0 -1 I I #
point $-1 -72.276375621814623 -50.091209731464957 -17.893539533884621 #
straight-curve $-1 -72.276375621814623 0 -17.893539533884621 0 1 0 I I #
point $-1 -72.276375621814623 50.091209731464957 -17.893539533884621 #
straight-curve $-1 -46.883920015997731 50.091209731464957 87.16407837183931 0 0 -1 I I #
point $-1 -46.883920015997731 50.091209731464957 17.893539533884621 #
straight-curve $-1 -27.291272015577341 50.091209731464957 9.3514719800452397 -1 0 0 I I #
point $-1 -46.883920015997731 50.091209731464957 9.3514719800452468 #
point $-1 -57.881954323364809 43.953487937800872 11.418874391352988 #
point $-1 -51.283133738944564 43.953487937800872 11.418874391352988 #
straight-curve $-1 -10.495557328561272 50.091209731464957 87.16407837183931 0 0 -1 I I #
point $-1 -10.495557328561272 50.091209731464957 17.893539533884621 #
straight-curve $-1 -9.0970906718591138 50.091209731464957 9.3514719800452397 -1 0 0 I I #
point $-1 -10.495557328561272 50.091209731464957 9.3514719800452468 #
point $-1 -21.493591635928347 43.953487937800872 11.418874391352988 #
point $-1 -14.894771051508101 43.953487937800872 11.418874391352988 #
straight-curve $-1 25.892805358875197 50.091209731464957 87.16407837183931 0 0 -1 I I #
point $-1 25.892805358875197 50.091209731464957 17.893539533884621 #
straight-curve $-1 9.0970906718591209 50.091209731464957 9.3514719800452397 -1 0 0 I I #
point $-1 25.892805358875197 50.091209731464957 9.3514719800452468 #
point $-1 14.894771051508116 43.953487937800872 11.418874391352988 #
point $-1 21.493591635928368 43.953487937800872 11.418874391352988 #
straight-curve $-1 62.281168046311649 50.091209731464957 87.16407837183931 0 0 -1 I I #
point $-1 62.281168046311649 50.091209731464957 17.893539533884621 #
straight-curve $-1 27.291272015577348 50.091209731464957 9.3514719800452397 -1 0 0 I I #
point $-1 62.281168046311649 50.091209731464957 9.3514719800452468 #
point $-1 51.283133738944571 43.953487937800872 11.418874391352988 #
point $-1 57.881954323364823 43.953487937800872 11.418874391352988 #
straight-curve $-1 0 -50.091209731464957 17.893539533884621 1 0 0 I I #
straight-curve $-1 72.276375621814623 -50.091209731464957 0 0 0 -1 I I #
point $-1 72.276375621814623 -50.091209731464957 17.893539533884621 #
point $-1 58.578384511199715 -41.283994900754571 8.3932843670004296 #
point $-1 63.715131177680291 -41.283994900754571 8.3932843670004296 #
point $-1 68.851877844160867 -41.283994900754571 8.3932843670004296 #
End-of-ACIS-data 