500 0 10 0           
7 Unknown 11 ACIS 5.0 NT 24 Fri Mar 26 17:12:07 1999 
-1 9.9999999999999995e-007 1e-010 
body $-1 $10 $-1 $11 #
body $-1 $12 $-1 $13 #
body $-1 $14 $-1 $15 #
body $-1 $16 $-1 $17 #
body $-1 $18 $-1 $19 #
body $-1 $20 $-1 $21 #
body $-1 $22 $-1 $23 #
body $-1 $24 $-1 $25 #
body $-1 $26 $-1 $27 #
body $-1 $28 $-1 $29 #
lump $-1 $-1 $30 $0 #
transform $-1 1 0 0 0 1 0 0 0 1 52.158574175237284 35.292318357232531 14.521259027554565 1 rotate no_reflect no_shear #
lump $-1 $-1 $31 $1 #
transform $-1 1 0 0 0 1 0 0 0 1 52.158574175237284 35.292318357232531 14.521259027554565 1 rotate no_reflect no_shear #
lump $-1 $-1 $32 $2 #
transform $-1 1 0 0 0 1 0 0 0 1 52.158574175237284 35.292318357232531 14.521259027554565 1 rotate no_reflect no_shear #
lump $-1 $-1 $33 $3 #
transform $-1 1 0 0 0 1 0 0 0 1 52.158574175237284 35.292318357232531 14.521259027554565 1 rotate no_reflect no_shear #
lump $-1 $-1 $34 $4 #
transform $-1 1 0 0 0 1 0 0 0 1 52.158574175237284 35.292318357232531 14.521259027554565 1 rotate no_reflect no_shear #
lump $-1 $-1 $35 $5 #
transform $-1 1 0 0 0 1 0 0 0 1 52.158574175237284 35.292318357232531 14.521259027554565 1 rotate no_reflect no_shear #
lump $-1 $-1 $36 $6 #
transform $-1 1 0 0 0 1 0 0 0 1 52.158574175237284 35.292318357232531 14.521259027554565 1 rotate no_reflect no_shear #
lump $-1 $-1 $37 $7 #
transform $-1 1 0 0 0 1 0 0 0 1 52.158574175237284 35.292318357232531 14.521259027554565 1 rotate no_reflect no_shear #
lump $-1 $-1 $38 $8 #
transform $-1 1 0 0 0 1 0 0 0 1 52.158574175237284 35.292318357232531 14.521259027554565 1 rotate no_reflect no_shear #
lump $-1 $-1 $39 $9 #
transform $-1 1 0 0 0 1 0 0 0 1 52.158574175237284 35.292318357232531 14.521259027554565 1 rotate no_reflect no_shear #
shell $-1 $-1 $-1 $40 $-1 $10 #
shell $-1 $-1 $-1 $41 $-1 $12 #
shell $-1 $-1 $-1 $42 $-1 $14 #
shell $-1 $-1 $-1 $43 $-1 $16 #
shell $-1 $-1 $-1 $44 $-1 $18 #
shell $-1 $-1 $-1 $45 $-1 $20 #
shell $-1 $-1 $-1 $46 $-1 $22 #
shell $-1 $-1 $-1 $47 $-1 $24 #
shell $-1 $-1 $-1 $48 $-1 $26 #
shell $-1 $-1 $-1 $49 $-1 $28 #
face $-1 $50 $51 $30 $-1 $52 forward single #
face $-1 $53 $54 $31 $-1 $55 reversed single #
face $-1 $56 $57 $32 $-1 $58 reversed single #
face $-1 $59 $60 $33 $-1 $61 forward single #
face $-1 $62 $63 $34 $-1 $64 forward single #
face $-1 $65 $66 $35 $-1 $67 forward single #
face $-1 $68 $69 $36 $-1 $70 reversed single #
face $-1 $71 $72 $37 $-1 $73 forward single #
face $-1 $74 $75 $38 $-1 $76 forward single #
face $-1 $77 $78 $39 $-1 $79 forward single #
face $-1 $80 $81 $30 $-1 $82 reversed single #
loop $-1 $-1 $83 $40 #
plane-surface $-1 0 0 14.521259027554565 0 0 1 1 0 0 forward_v I I I I #
face $-1 $84 $85 $31 $-1 $86 reversed single #
loop $-1 $-1 $87 $41 #
plane-surface $-1 0 -27.027418830713103 6.8935541375596419 0 0 1 1 0 0 forward_v I I I I #
face $-1 $88 $89 $32 $-1 $90 reversed single #
loop $-1 $-1 $91 $42 #
plane-surface $-1 -137.6101803494243 -8.2988251155486719 69.004943729575189 0 -1 0 0.81915205242281985 0 -0.57357642473473569 forward_v I I I I #
face $-1 $92 $93 $33 $-1 $94 forward single #
loop $-1 $95 $96 $43 #
cone-surface $-1 -49.831527714945629 -16.669780466464672 11.528326961869137 0.81915205242281985 0 -0.57357642473473569 0.28678821236736785 0 0.40957602621140993 1 I I 0 1 0.5 forward I I I I #
face $-1 $97 $98 $34 $-1 $99 forward single #
loop $-1 $100 $101 $44 #
cone-surface $-1 -49.831527714945629 -13.530672209871174 11.528326961869137 0.81915205242281985 0 -0.57357642473473569 0.28678821236736785 0 0.40957602621140993 1 I I 0 1 0.5 forward I I I I #
face $-1 $102 $103 $35 $-1 $104 forward single #
loop $-1 $105 $106 $45 #
cone-surface $-1 -49.831527714945629 -10.391563953277675 11.528326961869137 0.81915205242281985 0 -0.57357642473473569 0.28678821236736785 0 0.40957602621140993 1 I I 0 1 0.5 forward I I I I #
face $-1 $107 $108 $36 $-1 $109 reversed single #
loop $-1 $-1 $110 $46 #
plane-surface $-1 -137.6101803494243 8.264899526519434 69.004943729575189 0 1 0 -0.81915205242281985 0 0.57357642473473569 forward_v I I I I #
face $-1 $111 $112 $37 $-1 $113 forward single #
loop $-1 $114 $115 $47 #
cone-surface $-1 -49.831527714945629 10.35763836424843 11.528326961869137 0.81915205242281985 0 -0.57357642473473569 0.28678821236736785 0 0.40957602621140993 1 I I 0 1 0.5 forward I I I I #
face $-1 $116 $117 $38 $-1 $118 forward single #
loop $-1 $119 $120 $48 #
cone-surface $-1 -49.831527714945629 13.496746620841932 11.528326961869137 0.81915205242281985 0 -0.57357642473473569 0.28678821236736785 0 0.40957602621140993 1 I I 0 1 0.5 forward I I I I #
face $-1 $121 $122 $39 $-1 $123 forward single #
loop $-1 $124 $125 $49 #
cone-surface $-1 -49.831527714945629 16.635854877435428 11.528326961869137 0.81915205242281985 0 -0.57357642473473569 0.28678821236736785 0 0.40957602621140993 1 I I 0 1 0.5 forward I I I I #
face $-1 $126 $127 $30 $-1 $128 reversed single #
loop $-1 $-1 $129 $50 #
plane-surface $-1 0 0 -14.521259027554565 0 0 1 1 0 0 forward_v I I I I #
coedge $-1 $130 $131 $132 $133 forward $51 $-1 #
face $-1 $134 $135 $31 $-1 $136 reversed single #
loop $-1 $-1 $137 $53 #
plane-surface $-1 0 -18.762519304193674 10.707406582557104 0 -1 0 0 0 -1 forward_v I I I I #
coedge $-1 $138 $139 $140 $141 reversed $54 $-1 #
face $-1 $142 $143 $32 $-1 $144 forward single #
loop $-1 $-1 $145 $56 #
plane-surface $-1 -52.158574175237291 -13.53067220987117 9.1710867401869649 -0.81915205242281985 0 0.57357642473473569 0.57357642473473569 0 0.81915205242281985 forward_v I I I I #
coedge $-1 $146 $147 $148 $149 reversed $57 $-1 #
face $-1 $-1 $150 $33 $-1 $151 forward single #
loop $-1 $152 $153 $59 #
cone-surface $-1 -49.172808668181652 -16.669780466464672 11.06708693368383 0.81915205242281985 0 -0.57357642473473569 0.14339410618368392 0 0.20478801310570496 1 I I -0.70710678118654746 0.70710678118654746 0.25 forward I I I I #
loop $-1 $-1 $154 $43 #
coedge $-1 $96 $96 $155 $156 reversed $60 $-1 #
face $-1 $-1 $157 $34 $-1 $158 forward single #
loop $-1 $159 $160 $62 #
cone-surface $-1 -49.172808668181652 -13.530672209871174 11.06708693368383 0.81915205242281985 0 -0.57357642473473569 0.14339410618368392 0 0.20478801310570496 1 I I -0.70710678118654746 0.70710678118654746 0.25 forward I I I I #
loop $-1 $-1 $161 $44 #
coedge $-1 $101 $101 $162 $163 reversed $63 $-1 #
face $-1 $-1 $164 $35 $-1 $165 forward single #
loop $-1 $166 $167 $65 #
cone-surface $-1 -49.172808668181652 -10.391563953277675 11.06708693368383 0.81915205242281985 0 -0.57357642473473569 0.14339410618368392 0 0.20478801310570496 1 I I -0.70710678118654746 0.70710678118654746 0.25 forward I I I I #
loop $-1 $-1 $168 $45 #
coedge $-1 $106 $106 $169 $170 reversed $66 $-1 #
face $-1 $171 $172 $36 $-1 $173 reversed single #
loop $-1 $-1 $174 $68 #
plane-surface $-1 -52.158574175237291 13.496746620841932 9.1710867401869649 -0.81915205242281985 0 0.57357642473473569 0.57357642473473569 0 0.81915205242281985 forward_v I I I I #
coedge $-1 $175 $176 $177 $178 reversed $69 $-1 #
face $-1 $-1 $179 $37 $-1 $180 forward single #
loop $-1 $181 $182 $71 #
cone-surface $-1 -49.172808668181652 10.35763836424843 11.06708693368383 0.81915205242281985 0 -0.57357642473473569 0.14339410618368392 0 0.20478801310570496 1 I I -0.70710678118654746 0.70710678118654746 0.25 forward I I I I #
loop $-1 $-1 $183 $47 #
coedge $-1 $115 $115 $184 $185 reversed $72 $-1 #
face $-1 $-1 $186 $38 $-1 $187 forward single #
loop $-1 $188 $189 $74 #
cone-surface $-1 -49.172808668181652 13.496746620841932 11.06708693368383 0.81915205242281985 0 -0.57357642473473569 0.14339410618368392 0 0.20478801310570496 1 I I -0.70710678118654746 0.70710678118654746 0.25 forward I I I I #
loop $-1 $-1 $190 $48 #
coedge $-1 $120 $120 $191 $192 reversed $75 $-1 #
face $-1 $-1 $193 $39 $-1 $194 forward single #
loop $-1 $195 $196 $77 #
cone-surface $-1 -49.172808668181652 16.635854877435428 11.06708693368383 0.81915205242281985 0 -0.57357642473473569 0.14339410618368392 0 0.20478801310570496 1 I I -0.70710678118654746 0.70710678118654746 0.25 forward I I I I #
loop $-1 $-1 $197 $49 #
coedge $-1 $125 $125 $198 $199 reversed $78 $-1 #
face $-1 $200 $201 $30 $-1 $202 reversed single #
loop $-1 $-1 $203 $80 #
plane-surface $-1 0 -35.292318357232531 0 0 1 0 0 0 1 forward_v I I I I #
coedge $-1 $204 $205 $206 $207 forward $81 $-1 #
coedge $-1 $208 $83 $209 $210 forward $51 $-1 #
coedge $-1 $83 $208 $211 $212 forward $51 $-1 #
coedge $-1 $213 $214 $83 $133 reversed $215 $-1 #
edge $-1 $216 -35.292318357232531 $217 35.292318357232531 $132 $218 forward 7 unknown #
face $-1 $219 $220 $31 $-1 $221 reversed single #
loop $-1 $-1 $222 $84 #
plane-surface $-1 -52.158574175237284 0 0 1 0 0 0 0 -1 forward_v I I I I #
coedge $-1 $223 $224 $225 $226 reversed $85 $-1 #
coedge $-1 $227 $87 $228 $229 reversed $54 $-1 #
coedge $-1 $87 $227 $223 $230 forward $54 $-1 #
coedge $-1 $225 $231 $87 $141 forward $232 $-1 #
edge $-1 $233 -21.77860894187598 $234 -5.2488098888371226 $140 $235 forward 7 unknown #
face $-1 $236 $237 $32 $-1 $238 forward single #
loop $-1 $-1 $239 $88 #
plane-surface $-1 0 -18.762519304193674 10.707406582557104 0 -1 0 0 0 -1 forward_v I I I I #
coedge $-1 $240 $241 $242 $243 reversed $89 $-1 #
coedge $-1 $147 $91 $244 $245 reversed $57 $-1 #
coedge $-1 $91 $146 $240 $246 reversed $57 $-1 #
coedge $-1 $242 $247 $91 $149 forward $248 $-1 #
edge $-1 $249 19.981212837233031 $250 25.331385124600619 $148 $251 forward 7 unknown #
loop $-1 $-1 $155 $92 #
plane-surface $-1 -52.158574175237291 -13.53067220987117 9.1710867401869649 -0.81915205242281985 0 0.57357642473473569 0.57357642473473569 0 0.81915205242281985 forward_v I I I I #
loop $-1 $-1 $252 $59 #
coedge $-1 $153 $153 $154 $253 reversed $93 $-1 #
coedge $-1 $154 $154 $153 $253 forward $95 $-1 #
coedge $-1 $155 $155 $96 $156 forward $150 $-1 #
edge $-1 $254 0 $254 6.2831853071796004 $155 $255 forward 7 unknown #
loop $-1 $-1 $162 $97 #
plane-surface $-1 -52.158574175237291 -13.53067220987117 9.1710867401869649 -0.81915205242281985 0 0.57357642473473569 0.57357642473473569 0 0.81915205242281985 forward_v I I I I #
loop $-1 $-1 $256 $62 #
coedge $-1 $160 $160 $161 $257 reversed $98 $-1 #
coedge $-1 $161 $161 $160 $257 forward $100 $-1 #
coedge $-1 $162 $162 $101 $163 forward $157 $-1 #
edge $-1 $258 0 $258 6.2831853071796004 $162 $259 forward 7 unknown #
loop $-1 $-1 $169 $102 #
plane-surface $-1 -52.158574175237291 -13.53067220987117 9.1710867401869649 -0.81915205242281985 0 0.57357642473473569 0.57357642473473569 0 0.81915205242281985 forward_v I I I I #
loop $-1 $-1 $260 $65 #
coedge $-1 $167 $167 $168 $261 reversed $103 $-1 #
coedge $-1 $168 $168 $167 $261 forward $105 $-1 #
coedge $-1 $169 $169 $106 $170 forward $164 $-1 #
edge $-1 $262 0 $262 6.2831853071796004 $169 $263 forward 7 unknown #
face $-1 $264 $265 $36 $-1 $266 forward single #
loop $-1 $-1 $267 $107 #
plane-surface $-1 -137.6101803494243 18.728593715164429 69.004943729575189 0 -1 0 0.81915205242281985 0 -0.57357642473473569 forward_v I I I I #
coedge $-1 $268 $269 $270 $271 reversed $108 $-1 #
coedge $-1 $176 $110 $272 $273 reversed $69 $-1 #
coedge $-1 $110 $175 $268 $274 reversed $69 $-1 #
coedge $-1 $270 $275 $110 $178 forward $265 $-1 #
edge $-1 $276 16.646515999474865 $277 20.392746852741631 $177 $278 forward 7 unknown #
loop $-1 $-1 $184 $111 #
plane-surface $-1 -52.158574175237291 13.496746620841932 9.1710867401869649 -0.81915205242281985 0 0.57357642473473569 0.57357642473473569 0 0.81915205242281985 forward_v I I I I #
loop $-1 $-1 $279 $71 #
coedge $-1 $182 $182 $183 $280 reversed $112 $-1 #
coedge $-1 $183 $183 $182 $280 forward $114 $-1 #
coedge $-1 $184 $184 $115 $185 forward $179 $-1 #
edge $-1 $281 0 $281 6.2831853071796004 $184 $282 forward 7 unknown #
loop $-1 $-1 $191 $116 #
plane-surface $-1 -52.158574175237291 13.496746620841932 9.1710867401869649 -0.81915205242281985 0 0.57357642473473569 0.57357642473473569 0 0.81915205242281985 forward_v I I I I #
loop $-1 $-1 $283 $74 #
coedge $-1 $189 $189 $190 $284 reversed $117 $-1 #
coedge $-1 $190 $190 $189 $284 forward $119 $-1 #
coedge $-1 $191 $191 $120 $192 forward $186 $-1 #
edge $-1 $285 0 $285 6.2831853071796004 $191 $286 forward 7 unknown #
loop $-1 $-1 $198 $121 #
plane-surface $-1 -52.158574175237291 13.496746620841932 9.1710867401869649 -0.81915205242281985 0 0.57357642473473569 0.57357642473473569 0 0.81915205242281985 forward_v I I I I #
loop $-1 $-1 $287 $77 #
coedge $-1 $196 $196 $197 $288 reversed $122 $-1 #
coedge $-1 $197 $197 $196 $288 forward $124 $-1 #
coedge $-1 $198 $198 $125 $199 forward $193 $-1 #
edge $-1 $289 0 $289 6.2831853071796004 $198 $290 forward 7 unknown #
face $-1 $291 $292 $30 $-1 $293 reversed single #
loop $-1 $-1 $294 $126 #
plane-surface $-1 -52.158574175237284 0 0 1 0 0 0 0 -1 forward_v I I I I #
coedge $-1 $295 $211 $296 $297 forward $127 $-1 #
coedge $-1 $298 $129 $295 $299 forward $81 $-1 #
coedge $-1 $129 $298 $300 $301 forward $81 $-1 #
coedge $-1 $214 $213 $129 $207 reversed $215 $-1 #
edge $-1 $302 -35.292318357232531 $303 35.292318357232531 $206 $304 forward 7 unknown #
coedge $-1 $131 $130 $305 $306 forward $51 $-1 #
coedge $-1 $307 $308 $130 $210 reversed $292 $-1 #
edge $-1 $217 -52.158574175237284 $309 52.158574175237284 $209 $310 forward 7 unknown #
coedge $-1 $203 $311 $131 $212 reversed $127 $-1 #
edge $-1 $312 -52.158574175237284 $216 52.158574175237284 $211 $313 forward 7 unknown #
coedge $-1 $206 $132 $311 $314 forward $215 $-1 #
coedge $-1 $132 $206 $307 $315 reversed $215 $-1 #
loop $-1 $-1 $213 $291 #
vertex $-1 $133 $316 #
vertex $-1 $133 $317 #
straight-curve $-1 52.158574175237284 0 14.521259027554565 0 1 0 I I #
face $-1 $318 $319 $31 $-1 $320 forward single #
loop $-1 $-1 $228 $134 #
plane-surface $-1 0 -35.292318357232531 0 0 1 0 0 0 1 forward_v I I I I #
coedge $-1 $321 $322 $323 $324 forward $135 $-1 #
coedge $-1 $323 $137 $139 $230 reversed $85 $-1 #
coedge $-1 $137 $323 $325 $326 reversed $85 $-1 #
coedge $-1 $327 $140 $137 $226 forward $232 $-1 #
edge $-1 $234 1.53985084628109 $328 9.1675557362760145 $225 $329 forward 7 unknown #
coedge $-1 $139 $138 $321 $330 reversed $54 $-1 #
coedge $-1 $331 $332 $138 $229 forward $220 $-1 #
edge $-1 $333 -52.158574175237284 $233 52.158574175237284 $228 $334 forward 7 unknown #
edge $-1 $335 -52.158574175237284 $234 52.158574175237284 $223 $336 forward 7 unknown #
coedge $-1 $140 $327 $331 $337 forward $232 $-1 #
loop $-1 $-1 $225 $318 #
vertex $-1 $229 $338 #
vertex $-1 $141 $339 #
straight-curve $-1 52.158574175237284 -13.513709415356551 6.8935541375596419 0 1 0 I I #
face $-1 $-1 $248 $32 $-1 $340 reversed single #
loop $-1 $-1 $341 $142 #
plane-surface $-1 0 0 14.521259027554565 0 0 1 1 0 0 forward_v I I I I #
coedge $-1 $342 $343 $241 $344 forward $143 $-1 #
coedge $-1 $345 $145 $147 $246 forward $89 $-1 #
coedge $-1 $145 $345 $239 $344 reversed $89 $-1 #
coedge $-1 $346 $148 $145 $243 forward $248 $-1 #
edge $-1 $250 1.5334890106130867 $347 11.997183199258089 $242 $348 forward 7 unknown #
coedge $-1 $349 $341 $146 $245 forward $237 $-1 #
edge $-1 $350 -20.392746852741631 $249 -16.646515999474865 $244 $351 forward 7 unknown #
edge $-1 $250 1.2806143724965335e-014 $350 6.5313543090605766 $147 $352 forward 7 unknown #
coedge $-1 $148 $346 $349 $353 reversed $248 $-1 #
loop $-1 $-1 $242 $236 #
vertex $-1 $353 $354 #
vertex $-1 $149 $355 #
straight-curve $-1 -52.158574175237284 -8.2988251155486719 34.502471864787594 0 0 -1 I I #
coedge $-1 $252 $252 $-1 $356 reversed $152 $-1 #
edge $-1 $357 0 $357 6.2831853071796004 $153 $358 forward 7 unknown #
vertex $-1 $156 $359 #
ellipse-curve $-1 -50.285458748603901 -16.669780466464672 11.846172883870764 -0.81915205242281985 0 0.57357642473473569 0.28678821236736785 0 0.40957602621140993 1 I I #
coedge $-1 $256 $256 $-1 $360 reversed $159 $-1 #
edge $-1 $361 0 $361 6.2831853071796004 $160 $362 forward 7 unknown #
vertex $-1 $163 $363 #
ellipse-curve $-1 -50.285458748603901 -13.530672209871174 11.846172883870764 -0.81915205242281985 0 0.57357642473473569 0.28678821236736785 0 0.40957602621140993 1 I I #
coedge $-1 $260 $260 $-1 $364 reversed $166 $-1 #
edge $-1 $365 0 $365 6.2831853071796004 $167 $366 forward 7 unknown #
vertex $-1 $170 $367 #
ellipse-curve $-1 -50.285458748603901 -10.391563953277675 11.846172883870764 -0.81915205242281985 0 0.57357642473473569 0.28678821236736785 0 0.40957602621140993 1 I I #
face $-1 $-1 $368 $36 $-1 $369 reversed single #
loop $-1 $-1 $177 $171 #
plane-surface $-1 0 0 14.521259027554565 0 0 1 1 0 0 forward_v I I I I #
coedge $-1 $370 $371 $372 $373 reversed $172 $-1 #
coedge $-1 $374 $174 $176 $274 forward $108 $-1 #
coedge $-1 $174 $374 $370 $375 forward $108 $-1 #
coedge $-1 $372 $177 $174 $271 forward $265 $-1 #
edge $-1 $277 1.5165262160984678 $376 11.980220404743463 $270 $377 forward 7 unknown #
coedge $-1 $378 $379 $175 $273 forward $368 $-1 #
edge $-1 $380 -25.331385124600619 $276 -19.981212837233031 $272 $381 forward 7 unknown #
edge $-1 $277 -6.5313543090605766 $380 -1.2806143724965335e-014 $176 $382 forward 7 unknown #
coedge $-1 $177 $372 $378 $383 forward $265 $-1 #
vertex $-1 $178 $384 #
vertex $-1 $178 $385 #
straight-curve $-1 -68.805090174712149 8.264899526519434 14.521259027554564 1 0 0 I I #
coedge $-1 $279 $279 $-1 $386 reversed $181 $-1 #
edge $-1 $387 0 $387 6.2831853071796004 $182 $388 forward 7 unknown #
vertex $-1 $185 $389 #
ellipse-curve $-1 -50.285458748603901 10.35763836424843 11.846172883870764 -0.81915205242281985 0 0.57357642473473569 0.28678821236736785 0 0.40957602621140993 1 I I #
coedge $-1 $283 $283 $-1 $390 reversed $188 $-1 #
edge $-1 $391 0 $391 6.2831853071796004 $189 $392 forward 7 unknown #
vertex $-1 $192 $393 #
ellipse-curve $-1 -50.285458748603901 13.496746620841932 11.846172883870764 -0.81915205242281985 0 0.57357642473473569 0.28678821236736785 0 0.40957602621140993 1 I I #
coedge $-1 $287 $287 $-1 $394 reversed $195 $-1 #
edge $-1 $395 0 $395 6.2831853071796004 $196 $396 forward 7 unknown #
vertex $-1 $199 $397 #
ellipse-curve $-1 -50.285458748603901 16.635854877435428 11.846172883870764 -0.81915205242281985 0 0.57357642473473569 0.28678821236736785 0 0.40957602621140993 1 I I #
face $-1 $-1 $215 $30 $-1 $398 reversed single #
loop $-1 $-1 $307 $200 #
plane-surface $-1 0 35.292318357232531 0 0 -1 0 0 0 -1 forward_v I I I I #
coedge $-1 $399 $305 $308 $400 forward $201 $-1 #
coedge $-1 $311 $203 $204 $299 reversed $127 $-1 #
coedge $-1 $305 $399 $203 $297 reversed $201 $-1 #
edge $-1 $312 -14.521259027554565 $401 14.521259027554565 $296 $402 forward 7 unknown #
coedge $-1 $205 $204 $399 $403 forward $81 $-1 #
edge $-1 $303 -52.158574175237284 $401 52.158574175237284 $295 $404 forward 7 unknown #
coedge $-1 $308 $307 $205 $301 reversed $292 $-1 #
edge $-1 $405 -52.158574175237284 $302 52.158574175237284 $300 $406 forward 7 unknown #
vertex $-1 $207 $407 #
vertex $-1 $314 $408 #
straight-curve $-1 52.158574175237284 0 -14.521259027554565 0 -1 0 I I #
coedge $-1 $294 $296 $208 $306 reversed $201 $-1 #
edge $-1 $309 -35.292318357232531 $312 35.292318357232531 $305 $409 forward 7 unknown #
coedge $-1 $300 $209 $214 $315 forward $292 $-1 #
coedge $-1 $209 $300 $294 $400 reversed $292 $-1 #
vertex $-1 $210 $410 #
straight-curve $-1 0 35.292318357232531 14.521259027554565 -1 0 0 I I #
coedge $-1 $211 $295 $213 $314 reversed $127 $-1 #
vertex $-1 $306 $411 #
straight-curve $-1 0 -35.292318357232531 14.521259027554565 1 0 0 I I #
edge $-1 $216 -14.521259027554565 $303 14.521259027554565 $213 $412 forward 7 unknown #
edge $-1 $217 -14.521259027554565 $302 14.521259027554565 $214 $413 forward 7 unknown #
point $-1 52.158574175237284 -35.292318357232531 14.521259027554565 #
point $-1 52.158574175237284 35.292318357232531 14.521259027554565 #
face $-1 $-1 $232 $31 $-1 $414 reversed single #
loop $-1 $-1 $325 $219 #
plane-surface $-1 0 0 14.521259027554565 0 0 1 1 0 0 forward_v I I I I #
coedge $-1 $415 $222 $227 $330 forward $135 $-1 #
coedge $-1 $222 $415 $416 $417 reversed $135 $-1 #
coedge $-1 $224 $223 $222 $324 reversed $85 $-1 #
edge $-1 $418 -9.1675557362760145 $335 -1.53985084628109 $222 $419 forward 7 unknown #
coedge $-1 $416 $420 $224 $326 forward $319 $-1 #
edge $-1 $328 -52.158574175237284 $418 52.158574175237284 $325 $421 forward 7 unknown #
coedge $-1 $231 $225 $420 $422 reversed $232 $-1 #
vertex $-1 $226 $423 #
straight-curve $-1 52.158574175237284 -18.762519304193674 5.3537032912785518 0 0 1 I I #
edge $-1 $335 5.2488098888371226 $333 21.77860894187598 $321 $424 forward 7 unknown #
coedge $-1 $425 $228 $231 $337 reversed $220 $-1 #
coedge $-1 $228 $425 $415 $426 forward $220 $-1 #
vertex $-1 $229 $427 #
straight-curve $-1 0 -35.292318357232531 6.8935541375596419 1 0 0 I I #
vertex $-1 $330 $428 #
straight-curve $-1 0 -18.762519304193674 6.8935541375596419 1 0 0 I I #
edge $-1 $429 -14.521259027554565 $233 -6.8935541375596419 $231 $430 forward 7 unknown #
point $-1 52.158574175237284 -35.292318357232531 6.8935541375596419 #
point $-1 52.158574175237284 -18.762519304193674 6.8935541375596419 #
plane-surface $-1 -52.158574175237284 0 0 1 0 0 0 0 -1 forward_v I I I I #
coedge $-1 $244 $431 $345 $432 forward $237 $-1 #
coedge $-1 $343 $239 $431 $433 reversed $143 $-1 #
coedge $-1 $239 $342 $346 $434 reversed $143 $-1 #
edge $-1 $347 -15.58770402337475 $435 -9.0563497143141856 $239 $436 forward 7 unknown #
coedge $-1 $241 $240 $341 $432 reversed $89 $-1 #
coedge $-1 $247 $242 $343 $434 forward $248 $-1 #
vertex $-1 $434 $437 #
straight-curve $-1 -52.158574175237284 -6.7653361049355851 9.1710867401869844 0 -1 0 I I #
coedge $-1 $431 $244 $247 $353 forward $237 $-1 #
vertex $-1 $245 $438 #
straight-curve $-1 -68.805090174712149 -8.2988251155486719 14.521259027554564 -1 0 0 I I #
straight-curve $-1 -52.158574175237291 -8.2988251155486719 9.1710867401869649 0.57357642473473569 0 0.81915205242281985 I I #
edge $-1 $249 8.2988251155486719 $439 18.762519304193674 $247 $440 forward 7 unknown #
point $-1 -52.158574175237284 -8.2988251155486719 14.521259027554565 #
point $-1 -52.158574175237284 -8.2988251155486719 9.1710867401869756 #
edge $-1 $441 1 $441 0 $252 $-1 forward 7 unknown #
vertex $-1 $253 $442 #
ellipse-curve $-1 -49.377596681287358 -16.669780466464672 11.210481039867515 -0.81915205242281985 0 0.57357642473473569 0.28678821236736785 0 0.40957602621140993 1 I I #
point $-1 -49.998670536236524 -16.669780466464672 12.25574891008217 #
edge $-1 $443 1 $443 0 $256 $-1 forward 7 unknown #
vertex $-1 $257 $444 #
ellipse-curve $-1 -49.377596681287358 -13.530672209871174 11.210481039867515 -0.81915205242281985 0 0.57357642473473569 0.28678821236736785 0 0.40957602621140993 1 I I #
point $-1 -49.998670536236524 -13.530672209871174 12.25574891008217 #
edge $-1 $445 1 $445 0 $260 $-1 forward 7 unknown #
vertex $-1 $261 $446 #
ellipse-curve $-1 -49.377596681287358 -10.391563953277675 11.210481039867515 -0.81915205242281985 0 0.57357642473473569 0.28678821236736785 0 0.40957602621140993 1 I I #
point $-1 -49.998670536236524 -10.391563953277675 12.25574891008217 #
loop $-1 $-1 $272 $264 #
plane-surface $-1 -52.158574175237284 0 0 1 0 0 0 0 -1 forward_v I I I I #
coedge $-1 $371 $267 $269 $375 reversed $172 $-1 #
coedge $-1 $267 $370 $447 $448 reversed $172 $-1 #
coedge $-1 $275 $270 $267 $373 forward $265 $-1 #
edge $-1 $376 -20.392746852741631 $449 -16.646515999474865 $372 $450 forward 7 unknown #
coedge $-1 $269 $268 $379 $451 reversed $108 $-1 #
edge $-1 $452 1.2806143724965335e-014 $376 6.5313543090605766 $370 $453 forward 7 unknown #
vertex $-1 $271 $454 #
straight-curve $-1 -48.412343321970525 6.7483733104209662 14.521259027554565 0 1 0 I I #
coedge $-1 $447 $272 $275 $383 reversed $368 $-1 #
coedge $-1 $272 $447 $374 $451 forward $368 $-1 #
vertex $-1 $273 $455 #
straight-curve $-1 -52.158574175237284 8.264899526519434 34.502471864787594 0 0 1 I I #
straight-curve $-1 -52.158574175237291 8.264899526519434 9.1710867401869649 -0.57357642473473569 0 -0.81915205242281985 I I #
edge $-1 $449 -18.728593715164429 $276 -8.264899526519434 $378 $456 forward 7 unknown #
point $-1 -52.158574175237284 8.264899526519434 14.521259027554565 #
point $-1 -48.412343321970518 8.264899526519434 14.521259027554565 #
edge $-1 $457 1 $457 0 $279 $-1 forward 7 unknown #
vertex $-1 $280 $458 #
ellipse-curve $-1 -49.377596681287358 10.35763836424843 11.210481039867515 -0.81915205242281985 0 0.57357642473473569 0.28678821236736785 0 0.40957602621140993 1 I I #
point $-1 -49.998670536236524 10.35763836424843 12.25574891008217 #
edge $-1 $459 1 $459 0 $283 $-1 forward 7 unknown #
vertex $-1 $284 $460 #
ellipse-curve $-1 -49.377596681287358 13.496746620841932 11.210481039867515 -0.81915205242281985 0 0.57357642473473569 0.28678821236736785 0 0.40957602621140993 1 I I #
point $-1 -49.998670536236524 13.496746620841932 12.25574891008217 #
edge $-1 $461 1 $461 0 $287 $-1 forward 7 unknown #
vertex $-1 $288 $462 #
ellipse-curve $-1 -49.377596681287358 16.635854877435428 11.210481039867515 -0.81915205242281985 0 0.57357642473473569 0.28678821236736785 0 0.40957602621140993 1 I I #
point $-1 -49.998670536236524 16.635854877435428 12.25574891008217 #
plane-surface $-1 52.158574175237284 0 0 -1 0 0 0 0 1 forward_v I I I I #
coedge $-1 $296 $294 $298 $403 reversed $201 $-1 #
edge $-1 $309 -14.521259027554565 $405 14.521259027554565 $308 $463 forward 7 unknown #
vertex $-1 $403 $464 #
straight-curve $-1 -52.158574175237284 -35.292318357232531 0 0 0 -1 I I #
edge $-1 $401 -35.292318357232531 $405 35.292318357232531 $399 $465 forward 7 unknown #
straight-curve $-1 0 -35.292318357232531 -14.521259027554565 -1 0 0 I I #
vertex $-1 $301 $466 #
straight-curve $-1 0 35.292318357232531 -14.521259027554565 1 0 0 I I #
point $-1 52.158574175237284 35.292318357232531 -14.521259027554565 #
point $-1 52.158574175237284 -35.292318357232531 -14.521259027554565 #
straight-curve $-1 -52.158574175237284 0 14.521259027554565 0 -1 0 I I #
point $-1 -52.158574175237284 35.292318357232531 14.521259027554565 #
point $-1 -52.158574175237284 -35.292318357232531 14.521259027554565 #
straight-curve $-1 52.158574175237284 -35.292318357232531 0 0 0 -1 I I #
straight-curve $-1 52.158574175237284 35.292318357232531 0 0 0 -1 I I #
plane-surface $-1 52.158574175237284 0 0 -1 0 0 0 0 1 forward_v I I I I #
coedge $-1 $322 $321 $332 $426 reversed $135 $-1 #
coedge $-1 $467 $325 $322 $417 forward $319 $-1 #
edge $-1 $418 18.762519304193674 $468 35.292318357232531 $322 $469 forward 7 unknown #
vertex $-1 $417 $470 #
straight-curve $-1 -52.158574175237284 -18.762519304193674 5.3537032912785518 0 0 -1 I I #
coedge $-1 $325 $467 $327 $422 forward $319 $-1 #
straight-curve $-1 0 -18.762519304193674 14.521259027554565 -1 0 0 I I #
edge $-1 $429 -35.292318357232531 $328 -18.762519304193674 $327 $471 forward 7 unknown #
point $-1 52.158574175237284 -18.762519304193674 14.521259027554565 #
straight-curve $-1 -52.158574175237284 -13.513709415356551 6.8935541375596419 0 -1 0 I I #
coedge $-1 $332 $331 $467 $472 reversed $220 $-1 #
edge $-1 $468 -14.521259027554565 $333 -6.8935541375596419 $415 $473 forward 7 unknown #
point $-1 -52.158574175237284 -35.292318357232531 6.8935541375596419 #
point $-1 -52.158574175237284 -18.762519304193674 6.8935541375596419 #
vertex $-1 $422 $474 #
straight-curve $-1 52.158574175237284 -35.292318357232531 0 0 0 -1 I I #
coedge $-1 $341 $349 $342 $433 forward $237 $-1 #
edge $-1 $435 -11.997183199258089 $350 -1.5334890106130867 $341 $475 forward 7 unknown #
edge $-1 $439 -52.158574175237284 $435 -48.412343321970518 $431 $476 forward 7 unknown #
edge $-1 $347 3.8173834489084237 $439 9.1675557362760145 $346 $477 forward 7 unknown #
vertex $-1 $344 $478 #
straight-curve $-1 -43.217834631686742 -18.762519304193674 21.939786483493847 0.57357642473473569 0 0.81915205242281985 I I #
point $-1 -52.158574175237284 -18.762519304193674 9.1710867401869756 #
point $-1 -48.412343321970518 -8.2988251155486719 14.521259027554565 #
vertex $-1 $434 $479 #
straight-curve $-1 -52.158574175237284 0 14.521259027554565 0 -1 0 I I #
vertex $-1 $356 $480 #
point $-1 -49.090808468919988 -16.669780466464672 11.620057066078925 #
vertex $-1 $360 $481 #
point $-1 -49.090808468919988 -13.530672209871174 11.620057066078925 #
vertex $-1 $364 $482 #
point $-1 -49.090808468919988 -10.391563953277675 11.620057066078925 #
coedge $-1 $379 $378 $371 $448 forward $368 $-1 #
edge $-1 $449 19.981212837233031 $452 25.331385124600619 $447 $483 forward 7 unknown #
vertex $-1 $383 $484 #
straight-curve $-1 -68.805090174712149 18.728593715164429 14.521259027554564 -1 0 0 I I #
edge $-1 $452 -11.980220404743463 $380 -1.5165262160984678 $379 $485 forward 7 unknown #
vertex $-1 $451 $486 #
straight-curve $-1 -52.158574175237291 18.728593715164429 9.1710867401869649 0.57357642473473569 0 0.81915205242281985 I I #
point $-1 -48.412343321970518 18.728593715164429 14.521259027554565 #
point $-1 -52.158574175237284 8.264899526519434 9.1710867401869756 #
straight-curve $-1 -52.158574175237284 0 14.521259027554565 0 -1 0 I I #
vertex $-1 $386 $487 #
point $-1 -49.090808468919988 10.35763836424843 11.620057066078925 #
vertex $-1 $390 $488 #
point $-1 -49.090808468919988 13.496746620841932 11.620057066078925 #
vertex $-1 $394 $489 #
point $-1 -49.090808468919988 16.635854877435428 11.620057066078925 #
straight-curve $-1 -52.158574175237284 35.292318357232531 0 0 0 -1 I I #
point $-1 -52.158574175237284 -35.292318357232531 -14.521259027554565 #
straight-curve $-1 -52.158574175237284 0 -14.521259027554565 0 1 0 I I #
point $-1 -52.158574175237284 35.292318357232531 -14.521259027554565 #
coedge $-1 $420 $416 $425 $472 forward $319 $-1 #
vertex $-1 $417 $490 #
straight-curve $-1 -52.158574175237284 0 14.521259027554565 0 -1 0 I I #
point $-1 -52.158574175237284 -18.762519304193674 14.521259027554565 #
straight-curve $-1 52.158574175237284 0 14.521259027554565 0 1 0 I I #
edge $-1 $468 -52.158574175237284 $429 52.158574175237284 $425 $491 forward 7 unknown #
straight-curve $-1 -52.158574175237284 -35.292318357232531 0 0 0 -1 I I #
point $-1 52.158574175237284 -35.292318357232531 14.521259027554565 #
straight-curve $-1 -48.412343321970525 -6.7653361049355851 14.521259027554565 0 1 0 I I #
straight-curve $-1 0 -18.762519304193674 14.521259027554565 1 0 0 I I #
straight-curve $-1 -52.158574175237284 -18.762519304193674 5.3537032912785518 0 0 1 I I #
point $-1 -48.412343321970518 -18.762519304193674 14.521259027554565 #
point $-1 -52.158574175237284 -18.762519304193674 14.521259027554565 #
point $-1 -48.968020655075946 -16.669780466464672 10.923692827500146 #
point $-1 -48.968020655075946 -13.530672209871174 10.923692827500146 #
point $-1 -48.968020655075946 -10.391563953277675 10.923692827500146 #
straight-curve $-1 -52.158574175237284 18.728593715164429 34.502471864787594 0 0 -1 I I #
point $-1 -52.158574175237284 18.728593715164429 14.521259027554565 #
straight-curve $-1 -52.158574175237284 6.7483733104209662 9.1710867401869844 0 -1 0 I I #
point $-1 -52.158574175237284 18.728593715164429 9.1710867401869756 #
point $-1 -48.968020655075946 10.35763836424843 10.923692827500146 #
point $-1 -48.968020655075946 13.496746620841932 10.923692827500146 #
point $-1 -48.968020655075946 16.635854877435428 10.923692827500146 #
point $-1 -52.158574175237284 -35.292318357232531 14.521259027554565 #
straight-curve $-1 0 -35.292318357232531 14.521259027554565 1 0 0 I I #
End-of-ACIS-data 