500 0 13 0           
7 Unknown 11 ACIS 5.0 NT 24 Fri Mar 26 20:39:20 1999 
-1 9.9999999999999995e-007 1e-010 
body $-1 $13 $-1 $14 #
body $-1 $15 $-1 $16 #
body $-1 $17 $-1 $18 #
body $-1 $19 $-1 $20 #
body $-1 $21 $-1 $22 #
body $-1 $23 $-1 $24 #
body $-1 $25 $-1 $26 #
body $-1 $27 $-1 $28 #
body $-1 $29 $-1 $30 #
body $-1 $31 $-1 $32 #
body $-1 $33 $-1 $34 #
body $-1 $35 $-1 $36 #
body $-1 $37 $-1 $38 #
lump $-1 $-1 $39 $0 #
transform $-1 1 0 0 0 1 0 0 0 1 53.813898129215367 26.064274693133321 9.9301490040021285 1 rotate no_reflect no_shear #
lump $-1 $-1 $40 $1 #
transform $-1 1 0 0 0 1 0 0 0 1 53.813898129215367 26.064274693133321 9.9301490040021285 1 rotate no_reflect no_shear #
lump $-1 $-1 $41 $2 #
transform $-1 1 0 0 0 1 0 0 0 1 53.813898129215367 26.064274693133321 9.9301490040021285 1 rotate no_reflect no_shear #
lump $-1 $-1 $42 $3 #
transform $-1 1 0 0 0 1 0 0 0 1 53.813898129215367 26.064274693133321 9.9301490040021285 1 rotate no_reflect no_shear #
lump $-1 $-1 $43 $4 #
transform $-1 1 0 0 0 1 0 0 0 1 53.813898129215367 26.064274693133321 9.9301490040021285 1 rotate no_reflect no_shear #
lump $-1 $-1 $44 $5 #
transform $-1 1 0 0 0 1 0 0 0 1 53.813898129215367 26.064274693133321 9.9301490040021285 1 rotate no_reflect no_shear #
lump $-1 $-1 $45 $6 #
transform $-1 1 0 0 0 1 0 0 0 1 53.813898129215367 26.064274693133321 9.9301490040021285 1 rotate no_reflect no_shear #
lump $-1 $-1 $46 $7 #
transform $-1 1 0 0 0 1 0 0 0 1 53.813898129215367 26.064274693133321 9.9301490040021285 1 rotate no_reflect no_shear #
lump $-1 $-1 $47 $8 #
transform $-1 1 0 0 0 1 0 0 0 1 53.813898129215367 26.064274693133321 9.9301490040021285 1 rotate no_reflect no_shear #
lump $-1 $-1 $48 $9 #
transform $-1 1 0 0 0 1 0 0 0 1 53.813898129215367 26.064274693133321 9.9301490040021285 1 rotate no_reflect no_shear #
lump $-1 $-1 $49 $10 #
transform $-1 1 0 0 0 1 0 0 0 1 53.813898129215367 26.064274693133321 9.9301490040021285 1 rotate no_reflect no_shear #
lump $-1 $-1 $50 $11 #
transform $-1 1 0 0 0 1 0 0 0 1 53.813898129215367 26.064274693133321 9.9301490040021285 1 rotate no_reflect no_shear #
lump $-1 $-1 $51 $12 #
transform $-1 1 0 0 0 1 0 0 0 1 53.813898129215367 26.064274693133321 9.9301490040021285 1 rotate no_reflect no_shear #
shell $-1 $-1 $-1 $52 $-1 $13 #
shell $-1 $-1 $-1 $53 $-1 $15 #
shell $-1 $-1 $-1 $54 $-1 $17 #
shell $-1 $-1 $-1 $55 $-1 $19 #
shell $-1 $-1 $-1 $56 $-1 $21 #
shell $-1 $-1 $-1 $57 $-1 $23 #
shell $-1 $-1 $-1 $58 $-1 $25 #
shell $-1 $-1 $-1 $59 $-1 $27 #
shell $-1 $-1 $-1 $60 $-1 $29 #
shell $-1 $-1 $-1 $61 $-1 $31 #
shell $-1 $-1 $-1 $62 $-1 $33 #
shell $-1 $-1 $-1 $63 $-1 $35 #
shell $-1 $-1 $-1 $64 $-1 $37 #
face $-1 $65 $66 $39 $-1 $67 forward single #
face $-1 $68 $69 $40 $-1 $70 reversed single #
face $-1 $71 $72 $41 $-1 $73 forward single #
face $-1 $74 $75 $42 $-1 $76 forward single #
face $-1 $77 $78 $43 $-1 $79 forward single #
face $-1 $80 $81 $44 $-1 $82 reversed single #
face $-1 $83 $84 $45 $-1 $85 forward single #
face $-1 $86 $87 $46 $-1 $88 forward single #
face $-1 $89 $90 $47 $-1 $91 forward single #
face $-1 $92 $93 $48 $-1 $94 reversed single #
face $-1 $95 $96 $49 $-1 $97 forward single #
face $-1 $98 $99 $50 $-1 $100 forward single #
face $-1 $101 $102 $51 $-1 $103 forward single #
face $-1 $104 $105 $39 $-1 $106 reversed single #
loop $-1 $-1 $107 $52 #
plane-surface $-1 0 0 9.9301490040021285 0 0 1 1 0 0 forward_v I I I I #
face $-1 $108 $109 $40 $-1 $110 reversed single #
loop $-1 $-1 $111 $53 #
plane-surface $-1 -35.583188062844066 59.342266772424033 116.72714314306852 1 0 0 0 -0.66913061440640931 -0.74314481823134659 forward_v I I I I #
face $-1 $112 $113 $41 $-1 $114 forward single #
loop $-1 $115 $116 $54 #
cone-surface $-1 -32.019025285658998 20.791778793829604 5.0160933995359169 0 -0.66913061440640931 -0.74314481823134659 1.5 0 0 1 I I 0 1 1.5 forward I I I I #
face $-1 $117 $118 $42 $-1 $119 forward single #
loop $-1 $120 $121 $55 #
cone-surface $-1 -26.672781119881389 20.791778793829604 5.0160933995359169 0 -0.66913061440640931 -0.74314481823134659 1.5 0 0 1 I I 0 1 1.5 forward I I I I #
face $-1 $122 $123 $43 $-1 $124 forward single #
loop $-1 $125 $126 $56 #
cone-surface $-1 -21.32653695410378 20.791778793829604 5.0160933995359169 0 -0.66913061440640931 -0.74314481823134659 1.5 0 0 1 I I 0 1 1.5 forward I I I I #
face $-1 $127 $128 $44 $-1 $129 reversed single #
loop $-1 $-1 $130 $57 #
plane-surface $-1 -33.715514922766445 -79.878173543318923 93.696330763122788 -1 0 0 0 -0.50000000669873634 0.8660253999169214 forward_v I I I I #
face $-1 $131 $132 $45 $-1 $133 forward single #
loop $-1 $134 $135 $58 #
cone-surface $-1 -49.794221487925583 -17.514934307381779 4.5644803809537473 0 0.50000000669873634 -0.8660253999169214 1 0 0 1 I I 0 1 1 forward I I I I #
face $-1 $136 $137 $46 $-1 $138 forward single #
loop $-1 $139 $140 $59 #
cone-surface $-1 -43.764706525990903 -17.514934307381779 4.5644803809537473 0 0.50000000669873634 -0.8660253999169214 1 0 0 1 I I 0 1 1 forward I I I I #
face $-1 $141 $142 $47 $-1 $143 forward single #
loop $-1 $144 $145 $60 #
cone-surface $-1 -37.73519156405623 -17.514934307381779 4.5644803809537473 0 0.50000000669873634 -0.8660253999169214 1 0 0 1 I I 0 1 1 forward I I I I #
face $-1 $146 $147 $48 $-1 $148 reversed single #
loop $-1 $-1 $149 $61 #
plane-surface $-1 20.098383206448926 -79.878173543318923 93.696330763122788 -1 0 0 0 -0.50000000669873634 0.8660253999169214 forward_v I I I I #
face $-1 $150 $151 $49 $-1 $152 forward single #
loop $-1 $153 $154 $62 #
cone-surface $-1 4.0196766412897844 -17.514934307381779 4.5644803809537473 0 0.50000000669873634 -0.8660253999169214 1 0 0 1 I I 0 1 1 forward I I I I #
face $-1 $155 $156 $50 $-1 $157 forward single #
loop $-1 $158 $159 $63 #
cone-surface $-1 10.049191603224465 -17.514934307381779 4.5644803809537473 0 0.50000000669873634 -0.8660253999169214 1 0 0 1 I I 0 1 1 forward I I I I #
face $-1 $160 $161 $51 $-1 $162 forward single #
loop $-1 $163 $164 $64 #
cone-surface $-1 16.078706565159145 -17.514934307381779 4.5644803809537473 0 0.50000000669873634 -0.8660253999169214 1 0 0 1 I I 0 1 1 forward I I I I #
face $-1 $165 $166 $39 $-1 $167 reversed single #
loop $-1 $-1 $168 $65 #
plane-surface $-1 0 0 -9.9301490040021285 0 0 1 1 0 0 forward_v I I I I #
coedge $-1 $169 $170 $171 $172 forward $66 $-1 #
face $-1 $173 $174 $40 $-1 $175 reversed single #
loop $-1 $-1 $176 $68 #
plane-surface $-1 -26.672781119881392 -12.674786665187561 36.744104055956598 0 0.66913061440640931 0.74314481823134659 1 0 0 forward_v I I I I #
coedge $-1 $177 $178 $179 $180 reversed $69 $-1 #
face $-1 $-1 $181 $41 $-1 $182 forward single #
loop $-1 $183 $184 $71 #
cone-surface $-1 -32.019025285658998 19.497008910761956 3.5781057948926822 0 -0.66913061440640931 -0.74314481823134659 0.75 0 0 1 I I -0.70710678118654757 0.70710678118654757 0.75 forward I I I I #
loop $-1 $-1 $185 $54 #
coedge $-1 $116 $116 $186 $187 reversed $72 $-1 #
face $-1 $-1 $188 $42 $-1 $189 forward single #
loop $-1 $190 $191 $74 #
cone-surface $-1 -26.672781119881389 19.497008910761956 3.5781057948926822 0 -0.66913061440640931 -0.74314481823134659 0.75 0 0 1 I I -0.70710678118654757 0.70710678118654757 0.75 forward I I I I #
loop $-1 $-1 $192 $55 #
coedge $-1 $121 $121 $193 $194 reversed $75 $-1 #
face $-1 $-1 $195 $43 $-1 $196 forward single #
loop $-1 $197 $198 $77 #
cone-surface $-1 -21.32653695410378 19.497008910761956 3.5781057948926822 0 -0.66913061440640931 -0.74314481823134659 0.75 0 0 1 I I -0.70710678118654757 0.70710678118654757 0.75 forward I I I I #
loop $-1 $-1 $199 $56 #
coedge $-1 $126 $126 $200 $201 reversed $78 $-1 #
face $-1 $202 $203 $44 $-1 $204 forward single #
loop $-1 $-1 $205 $80 #
plane-surface $-1 -43.764706525990903 -26.064274693133328 0.48792546623838007 0 -0.50000000669873634 0.8660253999169214 1 0 0 forward_v I I I I #
coedge $-1 $206 $207 $208 $209 reversed $81 $-1 #
face $-1 $-1 $210 $45 $-1 $211 forward single #
loop $-1 $212 $213 $83 #
cone-surface $-1 -49.794221487925583 -16.892799224123799 3.4869108268287796 0 0.50000000669873634 -0.8660253999169214 0.5 0 0 1 I I -0.70710678118654746 0.70710678118654746 0.5 forward I I I I #
loop $-1 $-1 $214 $58 #
coedge $-1 $135 $135 $215 $216 reversed $84 $-1 #
face $-1 $-1 $217 $46 $-1 $218 forward single #
loop $-1 $219 $220 $86 #
cone-surface $-1 -43.764706525990903 -16.892799224123799 3.4869108268287796 0 0.50000000669873634 -0.8660253999169214 0.5 0 0 1 I I -0.70710678118654746 0.70710678118654746 0.5 forward I I I I #
loop $-1 $-1 $221 $59 #
coedge $-1 $140 $140 $222 $223 reversed $87 $-1 #
face $-1 $-1 $224 $47 $-1 $225 forward single #
loop $-1 $226 $227 $89 #
cone-surface $-1 -37.73519156405623 -16.892799224123799 3.4869108268287796 0 0.50000000669873634 -0.8660253999169214 0.5 0 0 1 I I -0.70710678118654746 0.70710678118654746 0.5 forward I I I I #
loop $-1 $-1 $228 $60 #
coedge $-1 $145 $145 $229 $230 reversed $90 $-1 #
face $-1 $231 $232 $48 $-1 $233 reversed single #
loop $-1 $-1 $234 $92 #
plane-surface $-1 10.049191603224465 -26.064274693133328 0.48792546623838007 0 -0.50000000669873634 0.8660253999169214 1 0 0 forward_v I I I I #
coedge $-1 $235 $236 $237 $238 reversed $93 $-1 #
face $-1 $-1 $239 $49 $-1 $240 forward single #
loop $-1 $241 $242 $95 #
cone-surface $-1 4.0196766412897844 -16.892799224123799 3.4869108268287796 0 0.50000000669873634 -0.8660253999169214 0.5 0 0 1 I I -0.70710678118654746 0.70710678118654746 0.5 forward I I I I #
loop $-1 $-1 $243 $62 #
coedge $-1 $154 $154 $244 $245 reversed $96 $-1 #
face $-1 $-1 $246 $50 $-1 $247 forward single #
loop $-1 $248 $249 $98 #
cone-surface $-1 10.049191603224465 -16.892799224123799 3.4869108268287796 0 0.50000000669873634 -0.8660253999169214 0.5 0 0 1 I I -0.70710678118654746 0.70710678118654746 0.5 forward I I I I #
loop $-1 $-1 $250 $63 #
coedge $-1 $159 $159 $251 $252 reversed $99 $-1 #
face $-1 $-1 $253 $51 $-1 $254 forward single #
loop $-1 $255 $256 $101 #
cone-surface $-1 16.078706565159145 -16.892799224123799 3.4869108268287796 0 0.50000000669873634 -0.8660253999169214 0.5 0 0 1 I I -0.70710678118654746 0.70710678118654746 0.5 forward I I I I #
loop $-1 $-1 $257 $64 #
coedge $-1 $164 $164 $258 $259 reversed $102 $-1 #
face $-1 $260 $261 $39 $-1 $262 reversed single #
loop $-1 $-1 $263 $104 #
plane-surface $-1 0 -26.064274693133321 0 0 1 0 0 0 1 forward_v I I I I #
coedge $-1 $264 $265 $266 $267 forward $105 $-1 #
coedge $-1 $268 $107 $269 $270 forward $66 $-1 #
coedge $-1 $107 $268 $271 $272 forward $66 $-1 #
coedge $-1 $273 $274 $107 $172 reversed $275 $-1 #
edge $-1 $276 -26.064274693133321 $277 26.064274693133321 $171 $278 forward 7 unknown #
face $-1 $279 $280 $40 $-1 $281 reversed single #
loop $-1 $-1 $282 $108 #
plane-surface $-1 -17.762374176918719 59.342266772424033 116.72714314306852 -1 0 0 0 0.66913061440640931 0.74314481823134659 forward_v I I I I #
coedge $-1 $283 $284 $285 $286 reversed $109 $-1 #
coedge $-1 $178 $111 $287 $288 reversed $69 $-1 #
coedge $-1 $111 $177 $283 $289 reversed $69 $-1 #
coedge $-1 $285 $290 $111 $180 forward $291 $-1 #
edge $-1 $292 3.6068586930786957 $293 12.566006647160439 $179 $294 forward 7 unknown #
loop $-1 $-1 $186 $112 #
plane-surface $-1 -26.672781119881392 -12.674786665187561 36.744104055956598 0 0.66913061440640931 0.74314481823134659 1 0 0 forward_v I I I I #
loop $-1 $-1 $295 $71 #
coedge $-1 $184 $184 $185 $296 reversed $113 $-1 #
coedge $-1 $185 $185 $184 $296 forward $115 $-1 #
coedge $-1 $186 $186 $116 $187 forward $181 $-1 #
edge $-1 $297 -3.5060169913917724e-016 $297 6.2831853071796004 $186 $298 forward 7 unknown #
loop $-1 $-1 $193 $117 #
plane-surface $-1 -26.672781119881392 -12.674786665187561 36.744104055956598 0 0.66913061440640931 0.74314481823134659 1 0 0 forward_v I I I I #
loop $-1 $-1 $299 $74 #
coedge $-1 $191 $191 $192 $300 reversed $118 $-1 #
coedge $-1 $192 $192 $191 $300 forward $120 $-1 #
coedge $-1 $193 $193 $121 $194 forward $188 $-1 #
edge $-1 $301 -3.5060169913917724e-016 $301 6.2831853071796004 $193 $302 forward 7 unknown #
loop $-1 $-1 $200 $122 #
plane-surface $-1 -26.672781119881392 -12.674786665187561 36.744104055956598 0 0.66913061440640931 0.74314481823134659 1 0 0 forward_v I I I I #
loop $-1 $-1 $303 $77 #
coedge $-1 $198 $198 $199 $304 reversed $123 $-1 #
coedge $-1 $199 $199 $198 $304 forward $125 $-1 #
coedge $-1 $200 $200 $126 $201 forward $195 $-1 #
edge $-1 $305 -3.5060169913917724e-016 $305 6.2831853071796004 $200 $306 forward 7 unknown #
face $-1 $307 $308 $44 $-1 $309 reversed single #
loop $-1 $-1 $208 $127 #
plane-surface $-1 0 0 9.9301490040021285 0 0 1 1 0 0 forward_v I I I I #
coedge $-1 $310 $311 $312 $313 reversed $128 $-1 #
coedge $-1 $207 $130 $314 $315 reversed $81 $-1 #
coedge $-1 $130 $206 $310 $316 reversed $81 $-1 #
coedge $-1 $312 $317 $130 $209 forward $203 $-1 #
edge $-1 $318 13.874812078526141 $319 30.229222690212001 $208 $320 forward 7 unknown #
loop $-1 $-1 $215 $131 #
plane-surface $-1 -43.764706525990903 -26.064274693133328 0.48792546623838007 0 -0.50000000669873634 0.8660253999169214 1 0 0 forward_v I I I I #
loop $-1 $-1 $321 $83 #
coedge $-1 $213 $213 $214 $322 reversed $132 $-1 #
coedge $-1 $214 $214 $213 $322 forward $134 $-1 #
coedge $-1 $215 $215 $135 $216 forward $210 $-1 #
edge $-1 $323 1.7444726370743141e-015 $323 6.2831853071796022 $215 $324 forward 7 unknown #
loop $-1 $-1 $222 $136 #
plane-surface $-1 -43.764706525990903 -26.064274693133328 0.48792546623838007 0 -0.50000000669873634 0.8660253999169214 1 0 0 forward_v I I I I #
loop $-1 $-1 $325 $86 #
coedge $-1 $220 $220 $221 $326 reversed $137 $-1 #
coedge $-1 $221 $221 $220 $326 forward $139 $-1 #
coedge $-1 $222 $222 $140 $223 forward $217 $-1 #
edge $-1 $327 1.7444726370743141e-015 $327 6.2831853071796022 $222 $328 forward 7 unknown #
loop $-1 $-1 $229 $141 #
plane-surface $-1 -43.764706525990903 -26.064274693133328 0.48792546623838007 0 -0.50000000669873634 0.8660253999169214 1 0 0 forward_v I I I I #
loop $-1 $-1 $329 $89 #
coedge $-1 $227 $227 $228 $330 reversed $142 $-1 #
coedge $-1 $228 $228 $227 $330 forward $144 $-1 #
coedge $-1 $229 $229 $145 $230 forward $224 $-1 #
edge $-1 $331 1.7444726370743141e-015 $331 6.2831853071796022 $229 $332 forward 7 unknown #
face $-1 $333 $334 $48 $-1 $335 reversed single #
loop $-1 $-1 $336 $146 #
plane-surface $-1 3.5527136788005009e-015 -79.878173543318923 93.696330763122788 1 0 0 0 0.50000000669873634 -0.8660253999169214 forward_v I I I I #
coedge $-1 $337 $338 $339 $340 reversed $147 $-1 #
coedge $-1 $236 $149 $341 $342 reversed $93 $-1 #
coedge $-1 $149 $235 $337 $343 reversed $93 $-1 #
coedge $-1 $339 $344 $149 $238 forward $345 $-1 #
edge $-1 $346 13.874812078526141 $347 30.229222690212001 $237 $348 forward 7 unknown #
loop $-1 $-1 $244 $150 #
plane-surface $-1 10.049191603224465 -26.064274693133328 0.48792546623838007 0 -0.50000000669873634 0.8660253999169214 1 0 0 forward_v I I I I #
loop $-1 $-1 $349 $95 #
coedge $-1 $242 $242 $243 $350 reversed $151 $-1 #
coedge $-1 $243 $243 $242 $350 forward $153 $-1 #
coedge $-1 $244 $244 $154 $245 forward $239 $-1 #
edge $-1 $351 1.7444726370743141e-015 $351 6.2831853071796022 $244 $352 forward 7 unknown #
loop $-1 $-1 $251 $155 #
plane-surface $-1 10.049191603224465 -26.064274693133328 0.48792546623838007 0 -0.50000000669873634 0.8660253999169214 1 0 0 forward_v I I I I #
loop $-1 $-1 $353 $98 #
coedge $-1 $249 $249 $250 $354 reversed $156 $-1 #
coedge $-1 $250 $250 $249 $354 forward $158 $-1 #
coedge $-1 $251 $251 $159 $252 forward $246 $-1 #
edge $-1 $355 1.7444726370743141e-015 $355 6.2831853071796022 $251 $356 forward 7 unknown #
loop $-1 $-1 $258 $160 #
plane-surface $-1 10.049191603224465 -26.064274693133328 0.48792546623838007 0 -0.50000000669873634 0.8660253999169214 1 0 0 forward_v I I I I #
loop $-1 $-1 $357 $101 #
coedge $-1 $256 $256 $257 $358 reversed $161 $-1 #
coedge $-1 $257 $257 $256 $358 forward $163 $-1 #
coedge $-1 $258 $258 $164 $259 forward $253 $-1 #
edge $-1 $359 1.7444726370743141e-015 $359 6.2831853071796022 $258 $360 forward 7 unknown #
face $-1 $361 $362 $39 $-1 $363 reversed single #
loop $-1 $-1 $364 $165 #
plane-surface $-1 -53.813898129215367 0 0 1 0 0 0 0 -1 forward_v I I I I #
coedge $-1 $365 $271 $366 $367 forward $166 $-1 #
coedge $-1 $368 $168 $365 $369 forward $105 $-1 #
coedge $-1 $168 $368 $370 $371 forward $105 $-1 #
coedge $-1 $274 $273 $168 $267 reversed $275 $-1 #
edge $-1 $372 -26.064274693133321 $373 26.064274693133321 $266 $374 forward 7 unknown #
coedge $-1 $170 $169 $375 $376 forward $66 $-1 #
coedge $-1 $377 $378 $169 $270 reversed $362 $-1 #
edge $-1 $277 -53.813898129215367 $379 53.813898129215367 $269 $380 forward 7 unknown #
coedge $-1 $263 $381 $170 $272 reversed $166 $-1 #
edge $-1 $382 -53.813898129215367 $276 53.813898129215367 $271 $383 forward 7 unknown #
coedge $-1 $266 $171 $381 $384 forward $275 $-1 #
coedge $-1 $171 $266 $377 $385 reversed $275 $-1 #
loop $-1 $-1 $273 $361 #
vertex $-1 $172 $386 #
vertex $-1 $172 $387 #
straight-curve $-1 53.813898129215367 0 9.9301490040021285 0 1 0 I I #
face $-1 $-1 $291 $40 $-1 $388 forward single #
loop $-1 $-1 $389 $173 #
plane-surface $-1 0 26.064274693133321 0 0 -1 0 0 0 -1 forward_v I I I I #
coedge $-1 $390 $391 $392 $393 reversed $174 $-1 #
coedge $-1 $394 $176 $178 $289 forward $109 $-1 #
coedge $-1 $176 $394 $390 $395 forward $109 $-1 #
coedge $-1 $392 $179 $176 $286 forward $291 $-1 #
edge $-1 $293 -22.24679750290337 $396 -4.4259836169780229 $285 $397 forward 7 unknown #
coedge $-1 $398 $399 $177 $288 forward $280 $-1 #
edge $-1 $400 -56.500275794525095 $292 -48.433422567532133 $287 $401 forward 7 unknown #
edge $-1 $293 40.072826552318674 $400 52.12854938626662 $178 $402 forward 7 unknown #
coedge $-1 $179 $392 $398 $403 forward $291 $-1 #
loop $-1 $-1 $392 $279 #
vertex $-1 $288 $404 #
vertex $-1 $180 $405 #
straight-curve $-1 -35.583188062844066 29.671133386212016 9.9301490040021321 0 -1 0 I I #
coedge $-1 $295 $295 $-1 $406 reversed $183 $-1 #
edge $-1 $407 0 $407 6.2831853071796004 $184 $408 forward 7 unknown #
vertex $-1 $187 $409 #
ellipse-curve $-1 -32.019025285658998 21.584700716092449 5.8967223905056478 0 0.66913061440640931 0.74314481823134659 1.5 0 0 1 I I #
coedge $-1 $299 $299 $-1 $410 reversed $190 $-1 #
edge $-1 $411 0 $411 6.2831853071796004 $191 $412 forward 7 unknown #
vertex $-1 $194 $413 #
ellipse-curve $-1 -26.672781119881389 21.584700716092449 5.8967223905056478 0 0.66913061440640931 0.74314481823134659 1.5 0 0 1 I I #
coedge $-1 $303 $303 $-1 $414 reversed $197 $-1 #
edge $-1 $415 0 $415 6.2831853071796004 $198 $416 forward 7 unknown #
vertex $-1 $201 $417 #
ellipse-curve $-1 -21.32653695410378 21.584700716092449 5.8967223905056478 0 0.66913061440640931 0.74314481823134659 1.5 0 0 1 I I #
face $-1 $-1 $418 $44 $-1 $419 reversed single #
loop $-1 $-1 $420 $202 #
plane-surface $-1 -53.813898129215367 0 0 1 0 0 0 0 -1 forward_v I I I I #
coedge $-1 $421 $205 $207 $316 forward $128 $-1 #
coedge $-1 $205 $421 $420 $422 reversed $128 $-1 #
coedge $-1 $423 $208 $205 $313 forward $203 $-1 #
edge $-1 $319 11.833161659770994 $424 31.931544866219909 $312 $425 forward 7 unknown #
coedge $-1 $426 $427 $206 $315 forward $418 $-1 #
edge $-1 $428 -46.360239915323007 $318 -36.918016377559269 $314 $429 forward 7 unknown #
edge $-1 $319 -18.884446822523639 $428 -8.2073931920208199e-015 $207 $430 forward 7 unknown #
coedge $-1 $208 $423 $426 $431 forward $203 $-1 #
vertex $-1 $315 $432 #
vertex $-1 $209 $433 #
straight-curve $-1 -33.715514922766445 -39.939086771659461 9.9301490040021321 0 1 0 I I #
coedge $-1 $321 $321 $-1 $434 reversed $212 $-1 #
edge $-1 $435 0 $435 6.2831853071796004 $213 $436 forward 7 unknown #
vertex $-1 $216 $437 #
ellipse-curve $-1 -49.794221487925583 -17.887069387290392 5.2090372351202561 0 -0.50000000669873634 0.8660253999169214 1 0 0 1 I I #
coedge $-1 $325 $325 $-1 $438 reversed $219 $-1 #
edge $-1 $439 0 $439 6.2831853071796004 $220 $440 forward 7 unknown #
vertex $-1 $223 $441 #
ellipse-curve $-1 -43.764706525990903 -17.887069387290392 5.2090372351202561 0 -0.50000000669873634 0.8660253999169214 1 0 0 1 I I #
coedge $-1 $329 $329 $-1 $442 reversed $226 $-1 #
edge $-1 $443 0 $443 6.2831853071796004 $227 $444 forward 7 unknown #
vertex $-1 $230 $445 #
ellipse-curve $-1 -37.73519156405623 -17.887069387290392 5.2090372351202561 0 -0.50000000669873634 0.8660253999169214 1 0 0 1 I I #
face $-1 $-1 $345 $48 $-1 $446 forward single #
loop $-1 $-1 $447 $231 #
plane-surface $-1 0 -26.064274693133321 0 0 1 0 0 0 1 forward_v I I I I #
coedge $-1 $448 $449 $450 $451 reversed $232 $-1 #
coedge $-1 $452 $234 $236 $343 forward $147 $-1 #
coedge $-1 $234 $452 $448 $453 forward $147 $-1 #
coedge $-1 $450 $237 $234 $340 forward $345 $-1 #
edge $-1 $347 -15.073787404836693 $454 5.0245958016122287 $339 $455 forward 7 unknown #
coedge $-1 $456 $457 $235 $342 forward $334 $-1 #
edge $-1 $458 -46.360239915323007 $346 -36.918016377559269 $341 $459 forward 7 unknown #
edge $-1 $347 -18.884446822523639 $458 -8.2073931920208199e-015 $236 $460 forward 7 unknown #
coedge $-1 $237 $450 $456 $461 forward $345 $-1 #
loop $-1 $-1 $450 $333 #
vertex $-1 $342 $462 #
vertex $-1 $238 $463 #
straight-curve $-1 20.098383206448926 -39.939086771659461 9.9301490040021321 0 1 0 I I #
coedge $-1 $349 $349 $-1 $464 reversed $241 $-1 #
edge $-1 $465 0 $465 6.2831853071796004 $242 $466 forward 7 unknown #
vertex $-1 $245 $467 #
ellipse-curve $-1 4.0196766412897844 -17.887069387290392 5.2090372351202561 0 -0.50000000669873634 0.8660253999169214 1 0 0 1 I I #
coedge $-1 $353 $353 $-1 $468 reversed $248 $-1 #
edge $-1 $469 0 $469 6.2831853071796004 $249 $470 forward 7 unknown #
vertex $-1 $252 $471 #
ellipse-curve $-1 10.049191603224465 -17.887069387290392 5.2090372351202561 0 -0.50000000669873634 0.8660253999169214 1 0 0 1 I I #
coedge $-1 $357 $357 $-1 $472 reversed $255 $-1 #
edge $-1 $473 0 $473 6.2831853071796004 $256 $474 forward 7 unknown #
vertex $-1 $259 $475 #
ellipse-curve $-1 16.078706565159145 -17.887069387290392 5.2090372351202561 0 -0.50000000669873634 0.8660253999169214 1 0 0 1 I I #
face $-1 $-1 $275 $39 $-1 $476 reversed single #
loop $-1 $-1 $377 $260 #
plane-surface $-1 0 26.064274693133321 0 0 -1 0 0 0 -1 forward_v I I I I #
coedge $-1 $477 $375 $378 $478 forward $261 $-1 #
coedge $-1 $381 $263 $264 $369 reversed $166 $-1 #
coedge $-1 $375 $477 $263 $367 reversed $261 $-1 #
edge $-1 $382 -9.9301490040021285 $479 9.9301490040021285 $366 $480 forward 7 unknown #
coedge $-1 $265 $264 $477 $481 forward $105 $-1 #
edge $-1 $373 -53.813898129215367 $479 53.813898129215367 $365 $482 forward 7 unknown #
coedge $-1 $378 $377 $265 $371 reversed $362 $-1 #
edge $-1 $483 -53.813898129215367 $372 53.813898129215367 $370 $484 forward 7 unknown #
vertex $-1 $267 $485 #
vertex $-1 $384 $486 #
straight-curve $-1 53.813898129215367 0 -9.9301490040021285 0 -1 0 I I #
coedge $-1 $364 $366 $268 $376 reversed $261 $-1 #
edge $-1 $379 -26.064274693133321 $382 26.064274693133321 $375 $487 forward 7 unknown #
coedge $-1 $370 $269 $274 $385 forward $362 $-1 #
coedge $-1 $269 $370 $364 $478 reversed $362 $-1 #
vertex $-1 $270 $488 #
straight-curve $-1 0 26.064274693133321 9.9301490040021285 -1 0 0 I I #
coedge $-1 $271 $365 $273 $384 reversed $166 $-1 #
vertex $-1 $376 $489 #
straight-curve $-1 0 -26.064274693133321 9.9301490040021285 1 0 0 I I #
edge $-1 $276 -9.9301490040021285 $373 9.9301490040021285 $273 $490 forward 7 unknown #
edge $-1 $277 -9.9301490040021285 $372 9.9301490040021285 $274 $491 forward 7 unknown #
point $-1 53.813898129215367 -26.064274693133321 9.9301490040021285 #
point $-1 53.813898129215367 26.064274693133321 9.9301490040021285 #
plane-surface $-1 0 0 9.9301490040021285 0 0 1 1 0 0 forward_v I I I I #
coedge $-1 $399 $398 $391 $492 forward $280 $-1 #
coedge $-1 $391 $282 $284 $395 reversed $174 $-1 #
coedge $-1 $282 $390 $389 $492 reversed $174 $-1 #
coedge $-1 $290 $285 $282 $393 forward $291 $-1 #
edge $-1 $396 -12.566006647160439 $493 -3.6068586930786957 $392 $494 forward 7 unknown #
coedge $-1 $284 $283 $399 $495 reversed $109 $-1 #
edge $-1 $496 -52.12854938626662 $396 -40.072826552318674 $390 $497 forward 7 unknown #
vertex $-1 $286 $498 #
straight-curve $-1 -13.336390559940696 17.105126739051588 9.930149004002125 1 0 0 I I #
coedge $-1 $389 $287 $290 $403 reversed $280 $-1 #
coedge $-1 $287 $389 $394 $495 forward $280 $-1 #
vertex $-1 $288 $499 #
straight-curve $-1 -35.583188062844066 26.064274693133321 58.363571571534258 0 0 1 I I #
straight-curve $-1 -35.583188062844066 -12.674786665187561 36.744104055956598 0 0.74314481823134659 -0.66913061440640931 I I #
edge $-1 $493 17.762374176918719 $292 35.583188062844066 $398 $500 forward 7 unknown #
point $-1 -35.583188062844066 26.064274693133321 9.9301490040021285 #
point $-1 -35.583188062844066 17.105126739051578 9.9301490040021321 #
edge $-1 $501 1 $501 0 $295 $-1 forward 7 unknown #
vertex $-1 $296 $502 #
ellipse-curve $-1 -32.019025285658998 19.998856871566762 4.1354644085661922 0 0.66913061440640931 0.74314481823134659 1.5 0 0 1 I I #
point $-1 -30.519025285658998 21.584700716092442 5.8967223905056407 #
edge $-1 $503 1 $503 0 $299 $-1 forward 7 unknown #
vertex $-1 $300 $504 #
ellipse-curve $-1 -26.672781119881389 19.998856871566762 4.1354644085661922 0 0.66913061440640931 0.74314481823134659 1.5 0 0 1 I I #
point $-1 -25.172781119881389 21.584700716092442 5.8967223905056407 #
edge $-1 $505 1 $505 0 $303 $-1 forward 7 unknown #
vertex $-1 $304 $506 #
ellipse-curve $-1 -21.32653695410378 19.998856871566762 4.1354644085661922 0 0.66913061440640931 0.74314481823134659 1.5 0 0 1 I I #
point $-1 -19.82653695410378 21.584700716092442 5.8967223905056407 #
loop $-1 $-1 $314 $307 #
plane-surface $-1 0 -26.064274693133321 0 0 1 0 0 0 1 forward_v I I I I #
coedge $-1 $507 $508 $311 $422 forward $308 $-1 #
coedge $-1 $311 $310 $427 $509 reversed $128 $-1 #
edge $-1 $424 -7.720266233384832 $510 11.164180589138796 $420 $511 forward 7 unknown #
coedge $-1 $317 $312 $508 $512 forward $203 $-1 #
vertex $-1 $512 $513 #
straight-curve $-1 -21.882353262995451 -9.7098640814474599 9.9301490040021285 -1 0 0 I I #
coedge $-1 $514 $314 $317 $431 reversed $418 $-1 #
coedge $-1 $314 $514 $421 $509 forward $418 $-1 #
vertex $-1 $315 $515 #
straight-curve $-1 -33.715514922766445 -26.064274693133321 46.848165381561394 0 0 1 I I #
straight-curve $-1 -33.715514922766445 -26.064274693133328 0.48792546623838007 0 -0.8660253999169214 -0.50000000669873634 I I #
edge $-1 $516 -53.813898129215367 $318 -33.715514922766445 $426 $517 forward 7 unknown #
point $-1 -33.715514922766445 -26.064274693133321 9.9301490040021285 #
point $-1 -33.715514922766445 -9.7098640814474599 9.9301490040021285 #
edge $-1 $518 1 $518 0 $321 $-1 forward 7 unknown #
vertex $-1 $322 $519 #
ellipse-curve $-1 -49.794221487925583 -17.142799227473166 3.9199235267872403 0 -0.50000000669873634 0.8660253999169214 1 0 0 1 I I #
point $-1 -48.794221487925583 -17.887069387290389 5.2090372351202534 #
edge $-1 $520 1 $520 0 $325 $-1 forward 7 unknown #
vertex $-1 $326 $521 #
ellipse-curve $-1 -43.764706525990903 -17.142799227473166 3.9199235267872403 0 -0.50000000669873634 0.8660253999169214 1 0 0 1 I I #
point $-1 -42.764706525990903 -17.887069387290389 5.2090372351202534 #
edge $-1 $522 1 $522 0 $329 $-1 forward 7 unknown #
vertex $-1 $330 $523 #
ellipse-curve $-1 -37.73519156405623 -17.142799227473166 3.9199235267872403 0 -0.50000000669873634 0.8660253999169214 1 0 0 1 I I #
point $-1 -36.73519156405623 -17.887069387290389 5.2090372351202534 #
plane-surface $-1 0 0 9.9301490040021285 0 0 1 1 0 0 forward_v I I I I #
coedge $-1 $457 $456 $449 $524 forward $334 $-1 #
coedge $-1 $449 $336 $338 $453 reversed $232 $-1 #
coedge $-1 $336 $448 $447 $524 reversed $232 $-1 #
coedge $-1 $344 $339 $336 $451 forward $345 $-1 #
edge $-1 $454 -30.229222690212001 $525 -13.874812078526141 $450 $526 forward 7 unknown #
coedge $-1 $338 $337 $457 $527 reversed $147 $-1 #
edge $-1 $528 8.2073931920208199e-015 $454 18.884446822523639 $448 $529 forward 7 unknown #
vertex $-1 $340 $530 #
straight-curve $-1 5.0245958016122323 -9.7098640814474599 9.9301490040021285 -1 0 0 I I #
coedge $-1 $447 $341 $344 $461 reversed $334 $-1 #
coedge $-1 $341 $447 $452 $527 forward $334 $-1 #
vertex $-1 $342 $531 #
straight-curve $-1 20.098383206448926 -26.064274693133321 46.848165381561394 0 0 1 I I #
straight-curve $-1 20.098383206448926 -26.064274693133328 0.48792546623838007 0 -0.8660253999169214 -0.50000000669873634 I I #
edge $-1 $525 3.5527136788005009e-015 $346 20.098383206448926 $456 $532 forward 7 unknown #
point $-1 20.098383206448926 -26.064274693133321 9.9301490040021285 #
point $-1 20.098383206448926 -9.7098640814474599 9.9301490040021285 #
edge $-1 $533 1 $533 0 $349 $-1 forward 7 unknown #
vertex $-1 $350 $534 #
ellipse-curve $-1 4.0196766412897844 -17.142799227473166 3.9199235267872403 0 -0.50000000669873634 0.8660253999169214 1 0 0 1 I I #
point $-1 5.0196766412897844 -17.887069387290389 5.2090372351202534 #
edge $-1 $535 1 $535 0 $353 $-1 forward 7 unknown #
vertex $-1 $354 $536 #
ellipse-curve $-1 10.049191603224465 -17.142799227473166 3.9199235267872403 0 -0.50000000669873634 0.8660253999169214 1 0 0 1 I I #
point $-1 11.049191603224465 -17.887069387290389 5.2090372351202534 #
edge $-1 $537 1 $537 0 $357 $-1 forward 7 unknown #
vertex $-1 $358 $538 #
ellipse-curve $-1 16.078706565159145 -17.142799227473166 3.9199235267872403 0 -0.50000000669873634 0.8660253999169214 1 0 0 1 I I #
point $-1 17.078706565159145 -17.887069387290389 5.2090372351202534 #
plane-surface $-1 53.813898129215367 0 0 -1 0 0 0 0 1 forward_v I I I I #
coedge $-1 $366 $364 $368 $481 reversed $261 $-1 #
edge $-1 $379 -9.9301490040021285 $483 9.9301490040021285 $378 $539 forward 7 unknown #
vertex $-1 $481 $540 #
straight-curve $-1 -53.813898129215367 -26.064274693133321 0 0 0 -1 I I #
edge $-1 $479 -26.064274693133321 $483 26.064274693133321 $477 $541 forward 7 unknown #
straight-curve $-1 0 -26.064274693133321 -9.9301490040021285 -1 0 0 I I #
vertex $-1 $371 $542 #
straight-curve $-1 0 26.064274693133321 -9.9301490040021285 1 0 0 I I #
point $-1 53.813898129215367 26.064274693133321 -9.9301490040021285 #
point $-1 53.813898129215367 -26.064274693133321 -9.9301490040021285 #
straight-curve $-1 -53.813898129215367 0 9.9301490040021285 0 -1 0 I I #
point $-1 -53.813898129215367 26.064274693133321 9.9301490040021285 #
point $-1 -53.813898129215367 -26.064274693133321 9.9301490040021285 #
straight-curve $-1 53.813898129215367 -26.064274693133321 0 0 0 -1 I I #
straight-curve $-1 53.813898129215367 26.064274693133321 0 0 0 -1 I I #
edge $-1 $493 48.433422567532133 $496 56.500275794525095 $389 $543 forward 7 unknown #
vertex $-1 $403 $544 #
straight-curve $-1 -17.762374176918719 29.671133386212016 9.9301490040021321 0 1 0 I I #
edge $-1 $496 4.4259836169780229 $400 22.24679750290337 $399 $545 forward 7 unknown #
vertex $-1 $495 $546 #
straight-curve $-1 -17.762374176918719 -12.674786665187561 36.744104055956598 0 -0.74314481823134659 0.66913061440640931 I I #
point $-1 -17.762374176918719 17.105126739051578 9.9301490040021321 #
point $-1 -35.583188062844066 26.064274693133321 1.8632957770091636 #
straight-curve $-1 0 26.064274693133321 9.9301490040021285 -1 0 0 I I #
vertex $-1 $406 $547 #
point $-1 -30.519025285658998 19.998856871566762 4.1354644085661922 #
vertex $-1 $410 $548 #
point $-1 -25.172781119881389 19.998856871566762 4.1354644085661922 #
vertex $-1 $414 $549 #
point $-1 -19.82653695410378 19.998856871566762 4.1354644085661922 #
coedge $-1 $508 $420 $514 $550 reversed $308 $-1 #
coedge $-1 $420 $507 $423 $512 reversed $308 $-1 #
edge $-1 $510 -31.931544866219909 $428 -11.833161659770994 $427 $551 forward 7 unknown #
vertex $-1 $422 $552 #
straight-curve $-1 -53.813898129215367 -16.395810733679664 6.0700158355936846 0 -0.8660253999169214 -0.50000000669873634 I I #
edge $-1 $424 9.7098640814474599 $516 26.064274693133321 $508 $553 forward 7 unknown #
point $-1 -53.81389812921536 -9.7098640814474599 9.9301490040021285 #
coedge $-1 $427 $426 $507 $550 forward $418 $-1 #
point $-1 -33.715514922766445 -26.064274693133321 0.48792546623838418 #
vertex $-1 $512 $554 #
straight-curve $-1 0 -26.064274693133321 9.9301490040021285 1 0 0 I I #
vertex $-1 $434 $555 #
point $-1 -48.794221487925583 -17.142799227473166 3.9199235267872403 #
vertex $-1 $438 $556 #
point $-1 -42.764706525990903 -17.142799227473166 3.9199235267872403 #
vertex $-1 $442 $557 #
point $-1 -36.73519156405623 -17.142799227473166 3.9199235267872403 #
edge $-1 $525 36.918016377559269 $528 46.360239915323007 $447 $558 forward 7 unknown #
vertex $-1 $461 $559 #
straight-curve $-1 3.5527136788005009e-015 -39.939086771659461 9.9301490040021321 0 -1 0 I I #
edge $-1 $528 -5.0245958016122287 $458 15.073787404836693 $457 $560 forward 7 unknown #
vertex $-1 $527 $561 #
straight-curve $-1 3.5527136788005009e-015 -26.064274693133328 0.48792546623838007 0 0.8660253999169214 0.50000000669873634 I I #
point $-1 3.5527136788005009e-015 -9.7098640814474599 9.9301490040021285 #
point $-1 20.098383206448926 -26.064274693133321 0.48792546623838418 #
straight-curve $-1 0 -26.064274693133321 9.9301490040021285 1 0 0 I I #
vertex $-1 $464 $562 #
point $-1 5.0196766412897844 -17.142799227473166 3.9199235267872403 #
vertex $-1 $468 $563 #
point $-1 11.049191603224465 -17.142799227473166 3.9199235267872403 #
vertex $-1 $472 $564 #
point $-1 17.078706565159145 -17.142799227473166 3.9199235267872403 #
straight-curve $-1 -53.813898129215367 26.064274693133321 0 0 0 -1 I I #
point $-1 -53.813898129215367 -26.064274693133321 -9.9301490040021285 #
straight-curve $-1 -53.813898129215367 0 -9.9301490040021285 0 1 0 I I #
point $-1 -53.813898129215367 26.064274693133321 -9.9301490040021285 #
straight-curve $-1 -17.762374176918719 26.064274693133321 58.363571571534258 0 0 -1 I I #
point $-1 -17.762374176918719 26.064274693133321 9.9301490040021285 #
straight-curve $-1 -13.336390559940696 26.064274693133321 1.8632957770091636 -1 0 0 I I #
point $-1 -17.762374176918719 26.064274693133321 1.8632957770091636 #
point $-1 -32.019025285658998 18.99516094995715 3.0207471812191722 #
point $-1 -26.672781119881389 18.99516094995715 3.0207471812191722 #
point $-1 -21.32653695410378 18.99516094995715 3.0207471812191722 #
edge $-1 $516 -9.9301490040021285 $510 -0.48792546623838418 $507 $565 forward 7 unknown #
straight-curve $-1 -21.882353262995451 -26.064274693133321 0.48792546623838379 1 0 0 I I #
point $-1 -53.81389812921536 -26.064274693133321 0.48792546623838418 #
straight-curve $-1 -53.813898129215367 0 9.9301490040021285 0 -1 0 I I #
point $-1 -53.813898129215367 -26.064274693133321 9.9301490040021285 #
point $-1 -49.794221487925583 -16.642799220774432 3.0538981268703189 #
point $-1 -43.764706525990903 -16.642799220774432 3.0538981268703189 #
point $-1 -37.73519156405623 -16.642799220774432 3.0538981268703189 #
straight-curve $-1 3.5527136788005009e-015 -26.064274693133321 46.848165381561394 0 0 -1 I I #
point $-1 3.5527136788005009e-015 -26.064274693133321 9.9301490040021285 #
straight-curve $-1 5.0245958016122323 -26.064274693133321 0.48792546623838379 1 0 0 I I #
point $-1 3.5527136788005009e-015 -26.064274693133321 0.48792546623838418 #
point $-1 4.0196766412897844 -16.642799220774432 3.0538981268703189 #
point $-1 10.049191603224465 -16.642799220774432 3.0538981268703189 #
point $-1 16.078706565159145 -16.642799220774432 3.0538981268703189 #
straight-curve $-1 -53.813898129215367 -26.064274693133321 0 0 0 -1 I I #
End-of-ACIS-data 