500 0 10 0           
7 Unknown 11 ACIS 5.0 NT 24 Fri Mar 26 20:44:55 1999 
-1 9.9999999999999995e-007 1e-010 
body $-1 $10 $-1 $11 #
body $-1 $12 $-1 $13 #
body $-1 $14 $-1 $15 #
body $-1 $16 $-1 $17 #
body $-1 $18 $-1 $19 #
body $-1 $20 $-1 $21 #
body $-1 $22 $-1 $23 #
body $-1 $24 $-1 $25 #
body $-1 $26 $-1 $27 #
body $-1 $28 $-1 $29 #
lump $-1 $-1 $30 $0 #
transform $-1 1 0 0 0 1 0 0 0 1 68.427381206701867 35.269744763824249 7.3510298437471038 1 rotate no_reflect no_shear #
lump $-1 $-1 $31 $1 #
transform $-1 1 0 0 0 1 0 0 0 1 68.427381206701867 35.269744763824249 7.3510298437471038 1 rotate no_reflect no_shear #
lump $-1 $-1 $32 $2 #
transform $-1 1 0 0 0 1 0 0 0 1 68.427381206701867 35.269744763824249 7.3510298437471038 1 rotate no_reflect no_shear #
lump $-1 $-1 $33 $3 #
transform $-1 1 0 0 0 1 0 0 0 1 68.427381206701867 35.269744763824249 7.3510298437471038 1 rotate no_reflect no_shear #
lump $-1 $-1 $34 $4 #
transform $-1 1 0 0 0 1 0 0 0 1 68.427381206701867 35.269744763824249 7.3510298437471038 1 rotate no_reflect no_shear #
lump $-1 $-1 $35 $5 #
transform $-1 1 0 0 0 1 0 0 0 1 68.427381206701867 35.269744763824249 7.3510298437471038 1 rotate no_reflect no_shear #
lump $-1 $-1 $36 $6 #
transform $-1 1 0 0 0 1 0 0 0 1 68.427381206701867 35.269744763824249 7.3510298437471038 1 rotate no_reflect no_shear #
lump $-1 $-1 $37 $7 #
transform $-1 1 0 0 0 1 0 0 0 1 68.427381206701867 35.269744763824249 7.3510298437471038 1 rotate no_reflect no_shear #
lump $-1 $-1 $38 $8 #
transform $-1 1 0 0 0 1 0 0 0 1 68.427381206701867 35.269744763824249 7.3510298437471038 1 rotate no_reflect no_shear #
lump $-1 $-1 $39 $9 #
transform $-1 1 0 0 0 1 0 0 0 1 68.427381206701867 35.269744763824249 7.3510298437471038 1 rotate no_reflect no_shear #
shell $-1 $-1 $-1 $40 $-1 $10 #
shell $-1 $-1 $-1 $41 $-1 $12 #
shell $-1 $-1 $-1 $42 $-1 $14 #
shell $-1 $-1 $-1 $43 $-1 $16 #
shell $-1 $-1 $-1 $44 $-1 $18 #
shell $-1 $-1 $-1 $45 $-1 $20 #
shell $-1 $-1 $-1 $46 $-1 $22 #
shell $-1 $-1 $-1 $47 $-1 $24 #
shell $-1 $-1 $-1 $48 $-1 $26 #
shell $-1 $-1 $-1 $49 $-1 $28 #
face $-1 $50 $51 $30 $-1 $52 forward single #
face $-1 $53 $54 $31 $-1 $55 reversed single #
face $-1 $56 $57 $32 $-1 $58 forward single #
face $-1 $59 $60 $33 $-1 $61 forward single #
face $-1 $62 $63 $34 $-1 $64 reversed single #
face $-1 $65 $66 $35 $-1 $67 forward single #
face $-1 $68 $69 $36 $-1 $70 forward single #
face $-1 $71 $72 $37 $-1 $73 reversed single #
face $-1 $74 $75 $38 $-1 $76 forward single #
face $-1 $77 $78 $39 $-1 $79 forward single #
face $-1 $80 $81 $30 $-1 $82 reversed single #
loop $-1 $-1 $83 $40 #
plane-surface $-1 0 0 7.3510298437471038 0 0 1 1 0 0 forward_v I I I I #
face $-1 $84 $85 $31 $-1 $86 reversed single #
loop $-1 $-1 $87 $41 #
plane-surface $-1 52.01061519576875 -35.269744763824249 1.3144579736702298 0 -0.77714596973225614 0.62932038083071107 1 0 0 forward_v I I I I #
face $-1 $88 $89 $32 $-1 $90 forward single #
loop $-1 $91 $92 $42 #
cone-surface $-1 44.974858333940276 -31.84655713250358 3.5399427367884169 0 0.77714596973225614 -0.62932038083071107 1 0 0 1 I I 0 1 1 forward I I I I #
face $-1 $93 $94 $33 $-1 $95 forward single #
loop $-1 $96 $97 $43 #
cone-surface $-1 59.046372057597225 -31.84655713250358 3.5399427367884169 0 0.77714596973225614 -0.62932038083071107 1 0 0 1 I I 0 1 1 forward I I I I #
face $-1 $98 $99 $34 $-1 $100 reversed single #
loop $-1 $-1 $101 $44 #
plane-surface $-1 -32.101615567309253 66.575759469065659 154.5108484100345 1 0 0 0 -0.62932039886446345 -0.77714595512881146 forward_v I I I I #
face $-1 $102 $103 $35 $-1 $104 forward single #
loop $-1 $105 $106 $45 #
cone-surface $-1 -24.558550561215441 32.009510074304053 4.2668378330595509 0 -0.62932039886446345 -0.77714595512881146 1 0 0 1 I I 0 1 1 forward I I I I #
face $-1 $107 $108 $36 $-1 $109 forward single #
loop $-1 $110 $111 $46 #
cone-surface $-1 -13.243953052074716 32.009510074304053 4.2668378330595509 0 -0.62932039886446345 -0.77714595512881146 1 0 0 1 I I 0 1 1 forward I I I I #
face $-1 $112 $113 $37 $-1 $114 reversed single #
loop $-1 $-1 $115 $47 #
plane-surface $-1 36.325765639392614 66.575759469065659 154.5108484100345 1 0 0 0 -0.62932039886446345 -0.77714595512881146 forward_v I I I I #
face $-1 $116 $117 $38 $-1 $118 forward single #
loop $-1 $119 $120 $48 #
cone-surface $-1 43.868830645486426 32.009510074304053 4.2668378330595509 0 -0.62932039886446345 -0.77714595512881146 1 0 0 1 I I 0 1 1 forward I I I I #
face $-1 $121 $122 $39 $-1 $123 forward single #
loop $-1 $124 $125 $49 #
cone-surface $-1 55.183428154627151 32.009510074304053 4.2668378330595509 0 -0.62932039886446345 -0.77714595512881146 1 0 0 1 I I 0 1 1 forward I I I I #
face $-1 $126 $127 $30 $-1 $128 reversed single #
loop $-1 $-1 $129 $50 #
plane-surface $-1 0 0 -7.3510298437471038 0 0 1 1 0 0 forward_v I I I I #
coedge $-1 $130 $131 $132 $133 forward $51 $-1 #
face $-1 $134 $135 $31 $-1 $136 reversed single #
loop $-1 $-1 $137 $53 #
plane-surface $-1 35.593849184835634 -141.62587181206641 87.439949174169953 1 0 0 0 0.77714596973225614 -0.62932038083071107 forward_v I I I I #
coedge $-1 $138 $139 $140 $141 reversed $54 $-1 #
face $-1 $-1 $142 $32 $-1 $143 forward single #
loop $-1 $144 $145 $56 #
cone-surface $-1 44.974858333940276 -30.47895620841269 2.4324813744528084 0 0.77714596973225614 -0.62932038083071107 0.5 0 0 1 I I -0.70710678118654746 0.70710678118654746 0.5 forward I I I I #
loop $-1 $-1 $146 $42 #
coedge $-1 $92 $92 $147 $148 reversed $57 $-1 #
face $-1 $-1 $149 $33 $-1 $150 forward single #
loop $-1 $151 $152 $59 #
cone-surface $-1 59.046372057597225 -30.47895620841269 2.4324813744528084 0 0.77714596973225614 -0.62932038083071107 0.5 0 0 1 I I -0.70710678118654746 0.70710678118654746 0.5 forward I I I I #
loop $-1 $-1 $153 $43 #
coedge $-1 $97 $97 $154 $155 reversed $60 $-1 #
face $-1 $156 $157 $34 $-1 $158 reversed single #
loop $-1 $-1 $159 $62 #
plane-surface $-1 -18.901251806645078 -19.549734199438959 48.154723360343283 0 0.62932039886446345 0.77714595512881146 1 0 0 forward_v I I I I #
coedge $-1 $160 $161 $162 $163 reversed $63 $-1 #
face $-1 $-1 $164 $35 $-1 $165 forward single #
loop $-1 $166 $167 $65 #
cone-surface $-1 -24.558550561215441 30.650172635099054 2.5881959291271839 0 -0.62932039886446345 -0.77714595512881146 0.5 0 0 1 I I -0.70710678118654746 0.70710678118654746 0.5 forward I I I I #
loop $-1 $-1 $168 $45 #
coedge $-1 $106 $106 $169 $170 reversed $66 $-1 #
face $-1 $-1 $171 $36 $-1 $172 forward single #
loop $-1 $173 $174 $68 #
cone-surface $-1 -13.243953052074716 30.650172635099054 2.5881959291271839 0 -0.62932039886446345 -0.77714595512881146 0.5 0 0 1 I I -0.70710678118654746 0.70710678118654746 0.5 forward I I I I #
loop $-1 $-1 $175 $46 #
coedge $-1 $111 $111 $176 $177 reversed $69 $-1 #
face $-1 $178 $179 $37 $-1 $180 reversed single #
loop $-1 $-1 $181 $71 #
plane-surface $-1 49.526129400056789 -19.549734199438959 48.154723360343283 0 0.62932039886446345 0.77714595512881146 1 0 0 forward_v I I I I #
coedge $-1 $182 $183 $184 $185 reversed $72 $-1 #
face $-1 $-1 $186 $38 $-1 $187 forward single #
loop $-1 $188 $189 $74 #
cone-surface $-1 43.868830645486426 30.650172635099054 2.5881959291271839 0 -0.62932039886446345 -0.77714595512881146 0.5 0 0 1 I I -0.70710678118654746 0.70710678118654746 0.5 forward I I I I #
loop $-1 $-1 $190 $48 #
coedge $-1 $120 $120 $191 $192 reversed $75 $-1 #
face $-1 $-1 $193 $39 $-1 $194 forward single #
loop $-1 $195 $196 $77 #
cone-surface $-1 55.183428154627151 30.650172635099054 2.5881959291271839 0 -0.62932039886446345 -0.77714595512881146 0.5 0 0 1 I I -0.70710678118654746 0.70710678118654746 0.5 forward I I I I #
loop $-1 $-1 $197 $49 #
coedge $-1 $125 $125 $198 $199 reversed $78 $-1 #
face $-1 $200 $201 $30 $-1 $202 reversed single #
loop $-1 $-1 $203 $80 #
plane-surface $-1 0 -35.269744763824249 0 0 1 0 0 0 1 forward_v I I I I #
coedge $-1 $204 $205 $206 $207 forward $81 $-1 #
coedge $-1 $208 $83 $209 $210 forward $51 $-1 #
coedge $-1 $83 $208 $211 $212 forward $51 $-1 #
coedge $-1 $213 $214 $83 $133 reversed $215 $-1 #
edge $-1 $216 -35.269744763824249 $217 35.269744763824249 $132 $218 forward 7 unknown #
face $-1 $219 $220 $31 $-1 $221 forward single #
loop $-1 $-1 $222 $84 #
plane-surface $-1 0 -35.269744763824249 0 0 1 0 0 0 1 forward_v I I I I #
coedge $-1 $223 $224 $225 $226 reversed $85 $-1 #
coedge $-1 $227 $87 $228 $229 reversed $54 $-1 #
coedge $-1 $87 $227 $223 $230 forward $54 $-1 #
coedge $-1 $225 $231 $87 $141 forward $220 $-1 #
edge $-1 $232 -42.422073608817492 $233 -9.5885415869512585 $140 $234 forward 7 unknown #
loop $-1 $-1 $147 $88 #
plane-surface $-1 52.01061519576875 -35.269744763824249 1.3144579736702298 0 -0.77714596973225614 0.62932038083071107 1 0 0 forward_v I I I I #
loop $-1 $-1 $235 $56 #
coedge $-1 $145 $145 $146 $236 reversed $89 $-1 #
coedge $-1 $146 $146 $145 $236 forward $91 $-1 #
coedge $-1 $147 $147 $92 $148 forward $142 $-1 #
edge $-1 $237 2.0707328378193497e-015 $237 6.2831853071796022 $147 $238 forward 7 unknown #
loop $-1 $-1 $154 $93 #
plane-surface $-1 52.01061519576875 -35.269744763824249 1.3144579736702298 0 -0.77714596973225614 0.62932038083071107 1 0 0 forward_v I I I I #
loop $-1 $-1 $239 $59 #
coedge $-1 $152 $152 $153 $240 reversed $94 $-1 #
coedge $-1 $153 $153 $152 $240 forward $96 $-1 #
coedge $-1 $154 $154 $97 $155 forward $149 $-1 #
edge $-1 $241 2.0707328378193497e-015 $241 6.2831853071796022 $154 $242 forward 7 unknown #
face $-1 $243 $244 $34 $-1 $245 forward single #
loop $-1 $-1 $246 $98 #
plane-surface $-1 -5.7008880459808999 66.575759469065659 154.5108484100345 -1 0 0 0 0.62932039886446345 0.77714595512881146 forward_v I I I I #
coedge $-1 $247 $248 $249 $250 reversed $99 $-1 #
coedge $-1 $161 $101 $251 $252 reversed $63 $-1 #
coedge $-1 $101 $160 $247 $253 reversed $63 $-1 #
coedge $-1 $249 $254 $101 $163 forward $244 $-1 #
edge $-1 $255 -1.9818650292914199 $256 2.4492498702035448 $162 $257 forward 7 unknown #
loop $-1 $-1 $169 $102 #
plane-surface $-1 -18.901251806645078 -19.549734199438959 48.154723360343283 0 0.62932039886446345 0.77714595512881146 1 0 0 forward_v I I I I #
loop $-1 $-1 $258 $65 #
coedge $-1 $167 $167 $168 $259 reversed $103 $-1 #
coedge $-1 $168 $168 $167 $259 forward $105 $-1 #
coedge $-1 $169 $169 $106 $170 forward $164 $-1 #
edge $-1 $260 -4.1827769536942359e-015 $260 6.283185307179596 $169 $261 forward 7 unknown #
loop $-1 $-1 $176 $107 #
plane-surface $-1 -18.901251806645078 -19.549734199438959 48.154723360343283 0 0.62932039886446345 0.77714595512881146 1 0 0 forward_v I I I I #
loop $-1 $-1 $262 $68 #
coedge $-1 $174 $174 $175 $263 reversed $108 $-1 #
coedge $-1 $175 $175 $174 $263 forward $110 $-1 #
coedge $-1 $176 $176 $111 $177 forward $171 $-1 #
edge $-1 $264 -4.1827769536942359e-015 $264 6.283185307179596 $176 $265 forward 7 unknown #
face $-1 $266 $267 $37 $-1 $268 forward single #
loop $-1 $-1 $269 $112 #
plane-surface $-1 62.726493160720963 66.575759469065659 154.5108484100345 -1 0 0 0 0.62932039886446345 0.77714595512881146 forward_v I I I I #
coedge $-1 $270 $271 $272 $273 reversed $113 $-1 #
coedge $-1 $183 $115 $274 $275 reversed $72 $-1 #
coedge $-1 $115 $182 $270 $276 reversed $72 $-1 #
coedge $-1 $272 $277 $115 $185 forward $267 $-1 #
edge $-1 $278 -1.9818650292914199 $279 2.4492498702035448 $184 $280 forward 7 unknown #
loop $-1 $-1 $191 $116 #
plane-surface $-1 49.526129400056789 -19.549734199438959 48.154723360343283 0 0.62932039886446345 0.77714595512881146 1 0 0 forward_v I I I I #
loop $-1 $-1 $281 $74 #
coedge $-1 $189 $189 $190 $282 reversed $117 $-1 #
coedge $-1 $190 $190 $189 $282 forward $119 $-1 #
coedge $-1 $191 $191 $120 $192 forward $186 $-1 #
edge $-1 $283 -4.1827769536942359e-015 $283 6.283185307179596 $191 $284 forward 7 unknown #
loop $-1 $-1 $198 $121 #
plane-surface $-1 49.526129400056789 -19.549734199438959 48.154723360343283 0 0.62932039886446345 0.77714595512881146 1 0 0 forward_v I I I I #
loop $-1 $-1 $285 $77 #
coedge $-1 $196 $196 $197 $286 reversed $122 $-1 #
coedge $-1 $197 $197 $196 $286 forward $124 $-1 #
coedge $-1 $198 $198 $125 $199 forward $193 $-1 #
edge $-1 $287 -4.1827769536942359e-015 $287 6.283185307179596 $198 $288 forward 7 unknown #
face $-1 $289 $290 $30 $-1 $291 reversed single #
loop $-1 $-1 $292 $126 #
plane-surface $-1 -68.427381206701867 0 0 1 0 0 0 0 -1 forward_v I I I I #
coedge $-1 $293 $211 $294 $295 forward $127 $-1 #
coedge $-1 $296 $129 $293 $297 forward $81 $-1 #
coedge $-1 $129 $296 $298 $299 forward $81 $-1 #
coedge $-1 $214 $213 $129 $207 reversed $215 $-1 #
edge $-1 $300 -35.269744763824249 $301 35.269744763824249 $206 $302 forward 7 unknown #
coedge $-1 $131 $130 $303 $304 forward $51 $-1 #
coedge $-1 $305 $306 $130 $210 reversed $290 $-1 #
edge $-1 $217 -68.427381206701867 $307 68.427381206701867 $209 $308 forward 7 unknown #
coedge $-1 $203 $309 $131 $212 reversed $127 $-1 #
edge $-1 $310 -68.427381206701867 $216 68.427381206701867 $211 $311 forward 7 unknown #
coedge $-1 $206 $132 $309 $312 forward $215 $-1 #
coedge $-1 $132 $206 $305 $313 reversed $215 $-1 #
loop $-1 $-1 $213 $289 #
vertex $-1 $133 $314 #
vertex $-1 $133 $315 #
straight-curve $-1 68.427381206701867 0 7.3510298437471038 0 1 0 I I #
face $-1 $-1 $316 $31 $-1 $317 reversed single #
loop $-1 $-1 $225 $134 #
plane-surface $-1 0 0 7.3510298437471038 0 0 1 1 0 0 forward_v I I I I #
coedge $-1 $318 $319 $224 $320 forward $135 $-1 #
coedge $-1 $224 $137 $139 $230 reversed $85 $-1 #
coedge $-1 $137 $223 $222 $320 reversed $85 $-1 #
coedge $-1 $321 $140 $137 $226 forward $220 $-1 #
edge $-1 $233 -40.431510526400771 $322 -35.543191142208954 $225 $323 forward 7 unknown #
coedge $-1 $139 $138 $318 $324 reversed $54 $-1 #
coedge $-1 $325 $326 $138 $229 forward $316 $-1 #
edge $-1 $327 -10.587221744975805 $232 -2.8196052286647122 $228 $328 forward 7 unknown #
edge $-1 $329 0 $233 7.767616516311092 $223 $330 forward 7 unknown #
coedge $-1 $140 $321 $325 $331 forward $220 $-1 #
vertex $-1 $229 $332 #
vertex $-1 $141 $333 #
straight-curve $-1 26.005307597884375 -30.381425379632432 7.3510298437471038 -1 0 0 I I #
coedge $-1 $235 $235 $-1 $334 reversed $144 $-1 #
edge $-1 $335 0 $335 6.2831853071796004 $145 $336 forward 7 unknown #
vertex $-1 $148 $337 #
ellipse-curve $-1 44.974858333940276 -32.825585071728341 4.3327439087086672 0 -0.77714596973225614 0.62932038083071107 1 0 0 1 I I #
coedge $-1 $239 $239 $-1 $338 reversed $151 $-1 #
edge $-1 $339 0 $339 6.2831853071796004 $152 $340 forward 7 unknown #
vertex $-1 $155 $341 #
ellipse-curve $-1 59.046372057597225 -32.825585071728341 4.3327439087086672 0 -0.77714596973225614 0.62932038083071107 1 0 0 1 I I #
face $-1 $-1 $342 $34 $-1 $343 reversed single #
loop $-1 $-1 $162 $156 #
plane-surface $-1 0 0 7.3510298437471038 0 0 1 1 0 0 forward_v I I I I #
coedge $-1 $344 $345 $346 $347 reversed $157 $-1 #
coedge $-1 $348 $159 $161 $253 forward $99 $-1 #
coedge $-1 $159 $348 $344 $349 forward $99 $-1 #
coedge $-1 $346 $162 $159 $250 forward $244 $-1 #
edge $-1 $256 -22.650989663986714 $350 3.7497378573416391 $249 $351 forward 7 unknown #
coedge $-1 $352 $353 $160 $252 forward $342 $-1 #
edge $-1 $354 -73.49264052990938 $255 -69.90439436127015 $251 $355 forward 7 unknown #
edge $-1 $256 64.837709996723078 $354 70.539489527648527 $161 $356 forward 7 unknown #
coedge $-1 $162 $346 $352 $357 forward $244 $-1 #
vertex $-1 $252 $358 #
vertex $-1 $163 $359 #
straight-curve $-1 -32.101615567309253 33.287879734532829 7.3510298437470993 0 -1 0 I I #
coedge $-1 $258 $258 $-1 $360 reversed $166 $-1 #
edge $-1 $361 0 $361 6.2831853071796004 $167 $362 forward 7 unknown #
vertex $-1 $170 $363 #
ellipse-curve $-1 -24.558550561215441 33.054187314076785 5.5569067594274708 0 0.62932039886446345 0.77714595512881146 1 0 0 1 I I #
coedge $-1 $262 $262 $-1 $364 reversed $173 $-1 #
edge $-1 $365 0 $365 6.2831853071796004 $174 $366 forward 7 unknown #
vertex $-1 $177 $367 #
ellipse-curve $-1 -13.243953052074716 33.054187314076785 5.5569067594274708 0 0.62932039886446345 0.77714595512881146 1 0 0 1 I I #
face $-1 $-1 $368 $37 $-1 $369 reversed single #
loop $-1 $-1 $184 $178 #
plane-surface $-1 0 0 7.3510298437471038 0 0 1 1 0 0 forward_v I I I I #
coedge $-1 $370 $371 $372 $373 reversed $179 $-1 #
coedge $-1 $374 $181 $183 $276 forward $113 $-1 #
coedge $-1 $181 $374 $370 $375 forward $113 $-1 #
coedge $-1 $372 $184 $181 $273 forward $267 $-1 #
edge $-1 $279 11.56270093936422 $376 37.963428460692569 $272 $377 forward 7 unknown #
coedge $-1 $378 $379 $182 $275 forward $368 $-1 #
edge $-1 $380 -73.49264052990938 $278 -69.90439436127015 $274 $381 forward 7 unknown #
edge $-1 $279 64.837709996723078 $380 70.539489527648527 $183 $382 forward 7 unknown #
coedge $-1 $184 $372 $378 $383 forward $267 $-1 #
vertex $-1 $185 $384 #
vertex $-1 $185 $385 #
straight-curve $-1 36.325765639392614 33.287879734532829 7.3510298437470993 0 -1 0 I I #
coedge $-1 $281 $281 $-1 $386 reversed $188 $-1 #
edge $-1 $387 0 $387 6.2831853071796004 $189 $388 forward 7 unknown #
vertex $-1 $192 $389 #
ellipse-curve $-1 43.868830645486426 33.054187314076785 5.5569067594274708 0 0.62932039886446345 0.77714595512881146 1 0 0 1 I I #
coedge $-1 $285 $285 $-1 $390 reversed $195 $-1 #
edge $-1 $391 0 $391 6.2831853071796004 $196 $392 forward 7 unknown #
vertex $-1 $199 $393 #
ellipse-curve $-1 55.183428154627151 33.054187314076785 5.5569067594274708 0 0.62932039886446345 0.77714595512881146 1 0 0 1 I I #
face $-1 $-1 $215 $30 $-1 $394 reversed single #
loop $-1 $-1 $305 $200 #
plane-surface $-1 0 35.269744763824249 0 0 -1 0 0 0 -1 forward_v I I I I #
coedge $-1 $395 $303 $306 $396 forward $201 $-1 #
coedge $-1 $309 $203 $204 $297 reversed $127 $-1 #
coedge $-1 $303 $395 $203 $295 reversed $201 $-1 #
edge $-1 $310 -7.3510298437471038 $397 7.3510298437471038 $294 $398 forward 7 unknown #
coedge $-1 $205 $204 $395 $399 forward $81 $-1 #
edge $-1 $301 -68.427381206701867 $397 68.427381206701867 $293 $400 forward 7 unknown #
coedge $-1 $306 $305 $205 $299 reversed $290 $-1 #
edge $-1 $401 -68.427381206701867 $300 68.427381206701867 $298 $402 forward 7 unknown #
vertex $-1 $207 $403 #
vertex $-1 $312 $404 #
straight-curve $-1 68.427381206701867 0 -7.3510298437471038 0 -1 0 I I #
coedge $-1 $292 $294 $208 $304 reversed $201 $-1 #
edge $-1 $307 -35.269744763824249 $310 35.269744763824249 $303 $405 forward 7 unknown #
coedge $-1 $298 $209 $214 $313 forward $290 $-1 #
coedge $-1 $209 $298 $292 $396 reversed $290 $-1 #
vertex $-1 $210 $406 #
straight-curve $-1 0 35.269744763824249 7.3510298437471038 -1 0 0 I I #
coedge $-1 $211 $293 $213 $312 reversed $127 $-1 #
vertex $-1 $304 $407 #
straight-curve $-1 0 -35.269744763824249 7.3510298437471038 1 0 0 I I #
edge $-1 $216 -7.3510298437471038 $301 7.3510298437471038 $213 $408 forward 7 unknown #
edge $-1 $217 -7.3510298437471038 $300 7.3510298437471038 $214 $409 forward 7 unknown #
point $-1 68.427381206701867 -35.269744763824249 7.3510298437471038 #
point $-1 68.427381206701867 35.269744763824249 7.3510298437471038 #
loop $-1 $-1 $228 $219 #
plane-surface $-1 68.427381206701867 0 0 -1 0 0 0 0 1 forward_v I I I I #
coedge $-1 $410 $222 $227 $324 forward $135 $-1 #
coedge $-1 $222 $410 $321 $411 reversed $135 $-1 #
edge $-1 $322 36.36894474333787 $329 42.405516613414747 $222 $412 forward 7 unknown #
coedge $-1 $231 $225 $319 $411 forward $220 $-1 #
vertex $-1 $411 $413 #
straight-curve $-1 35.593849184835634 -70.812935906033204 7.3510298437471064 0 -1 0 I I #
edge $-1 $329 9.5885415869512585 $327 42.422073608817492 $318 $414 forward 7 unknown #
coedge $-1 $326 $228 $231 $331 reversed $316 $-1 #
coedge $-1 $228 $325 $410 $415 forward $316 $-1 #
vertex $-1 $324 $416 #
straight-curve $-1 68.427381206701867 -28.606990343336889 9.5422746834398797 0 0.62932038083071107 0.77714596973225614 I I #
vertex $-1 $324 $417 #
straight-curve $-1 35.593849184835634 -35.269744763824249 1.3144579736702298 0 0.62932038083071107 0.77714596973225614 I I #
edge $-1 $418 -35.269744763824249 $232 -30.381425379632432 $325 $419 forward 7 unknown #
point $-1 68.427381206701867 -30.381425379632432 7.3510298437471038 #
point $-1 35.593849184835634 -30.381425379632432 7.3510298437471038 #
edge $-1 $420 1 $420 0 $235 $-1 forward 7 unknown #
vertex $-1 $236 $421 #
ellipse-curve $-1 44.974858333940276 -30.867529193278816 2.7471415648681639 0 -0.77714596973225614 0.62932038083071107 1 0 0 1 I I #
point $-1 45.974858333940276 -32.825585071728341 4.3327439087086699 #
edge $-1 $422 1 $422 0 $239 $-1 forward 7 unknown #
vertex $-1 $240 $423 #
ellipse-curve $-1 59.046372057597225 -30.867529193278816 2.7471415648681639 0 -0.77714596973225614 0.62932038083071107 1 0 0 1 I I #
point $-1 60.046372057597225 -32.825585071728341 4.3327439087086699 #
loop $-1 $-1 $251 $243 #
plane-surface $-1 0 35.269744763824249 0 0 -1 0 0 0 -1 forward_v I I I I #
coedge $-1 $345 $246 $248 $349 reversed $157 $-1 #
coedge $-1 $246 $344 $424 $425 reversed $157 $-1 #
coedge $-1 $254 $249 $246 $347 forward $244 $-1 #
edge $-1 $350 -2.4492498702035448 $426 1.9818650292914199 $346 $427 forward 7 unknown #
coedge $-1 $248 $247 $353 $428 reversed $99 $-1 #
edge $-1 $429 -70.539489527648527 $350 -64.837709996723078 $344 $430 forward 7 unknown #
vertex $-1 $250 $431 #
straight-curve $-1 -9.450625903322539 30.838629864329295 7.3510298437471029 1 0 0 I I #
coedge $-1 $424 $251 $254 $357 reversed $342 $-1 #
coedge $-1 $251 $424 $348 $428 forward $342 $-1 #
vertex $-1 $252 $432 #
straight-curve $-1 -32.101615567309253 35.269744763824249 77.255424205017249 0 0 1 I I #
straight-curve $-1 -32.101615567309253 -19.549734199438959 48.154723360343283 0 0.77714595512881146 -0.62932039886446345 I I #
edge $-1 $426 5.7008880459808999 $255 32.101615567309253 $352 $433 forward 7 unknown #
point $-1 -32.101615567309253 35.269744763824249 7.3510298437471038 #
point $-1 -32.101615567309253 30.838629864329285 7.3510298437471064 #
edge $-1 $434 1 $434 0 $258 $-1 forward 7 unknown #
vertex $-1 $259 $435 #
ellipse-curve $-1 -24.558550561215441 30.964832834531286 2.9767689066915897 0 0.62932039886446345 0.77714595512881146 1 0 0 1 I I #
point $-1 -23.558550561215441 33.054187314076813 5.5569067594275126 #
edge $-1 $436 1 $436 0 $262 $-1 forward 7 unknown #
vertex $-1 $263 $437 #
ellipse-curve $-1 -13.243953052074716 30.964832834531286 2.9767689066915897 0 0.62932039886446345 0.77714595512881146 1 0 0 1 I I #
point $-1 -12.243953052074716 33.054187314076813 5.5569067594275126 #
loop $-1 $-1 $274 $266 #
plane-surface $-1 0 35.269744763824249 0 0 -1 0 0 0 -1 forward_v I I I I #
coedge $-1 $371 $269 $271 $375 reversed $179 $-1 #
coedge $-1 $269 $370 $438 $439 reversed $179 $-1 #
coedge $-1 $277 $272 $269 $373 forward $267 $-1 #
edge $-1 $376 -2.4492498702035448 $440 1.9818650292914199 $372 $441 forward 7 unknown #
coedge $-1 $271 $270 $379 $442 reversed $113 $-1 #
edge $-1 $443 -70.539489527648527 $376 -64.837709996723078 $370 $444 forward 7 unknown #
vertex $-1 $273 $445 #
straight-curve $-1 24.763064700028394 30.838629864329295 7.3510298437471029 1 0 0 I I #
coedge $-1 $438 $274 $277 $383 reversed $368 $-1 #
coedge $-1 $274 $438 $374 $442 forward $368 $-1 #
vertex $-1 $275 $446 #
straight-curve $-1 36.325765639392614 35.269744763824249 77.255424205017249 0 0 1 I I #
straight-curve $-1 36.325765639392614 -19.549734199438959 48.154723360343283 0 0.77714595512881146 -0.62932039886446345 I I #
edge $-1 $440 -62.726493160720963 $278 -36.325765639392614 $378 $447 forward 7 unknown #
point $-1 36.325765639392614 35.269744763824249 7.3510298437471038 #
point $-1 36.325765639392614 30.838629864329285 7.3510298437471064 #
edge $-1 $448 1 $448 0 $281 $-1 forward 7 unknown #
vertex $-1 $282 $449 #
ellipse-curve $-1 43.868830645486426 30.964832834531286 2.9767689066915897 0 0.62932039886446345 0.77714595512881146 1 0 0 1 I I #
point $-1 44.868830645486426 33.054187314076813 5.5569067594275126 #
edge $-1 $450 1 $450 0 $285 $-1 forward 7 unknown #
vertex $-1 $286 $451 #
ellipse-curve $-1 55.183428154627151 30.964832834531286 2.9767689066915897 0 0.62932039886446345 0.77714595512881146 1 0 0 1 I I #
point $-1 56.183428154627151 33.054187314076813 5.5569067594275126 #
plane-surface $-1 68.427381206701867 0 0 -1 0 0 0 0 1 forward_v I I I I #
coedge $-1 $294 $292 $296 $399 reversed $201 $-1 #
edge $-1 $307 -7.3510298437471038 $401 7.3510298437471038 $306 $452 forward 7 unknown #
vertex $-1 $399 $453 #
straight-curve $-1 -68.427381206701867 -35.269744763824249 0 0 0 -1 I I #
edge $-1 $397 -35.269744763824249 $401 35.269744763824249 $395 $454 forward 7 unknown #
straight-curve $-1 0 -35.269744763824249 -7.3510298437471038 -1 0 0 I I #
vertex $-1 $299 $455 #
straight-curve $-1 0 35.269744763824249 -7.3510298437471038 1 0 0 I I #
point $-1 68.427381206701867 35.269744763824249 -7.3510298437471038 #
point $-1 68.427381206701867 -35.269744763824249 -7.3510298437471038 #
straight-curve $-1 -68.427381206701867 0 7.3510298437471038 0 -1 0 I I #
point $-1 -68.427381206701867 35.269744763824249 7.3510298437471038 #
point $-1 -68.427381206701867 -35.269744763824249 7.3510298437471038 #
straight-curve $-1 68.427381206701867 -35.269744763824249 0 0 0 -1 I I #
straight-curve $-1 68.427381206701867 35.269744763824249 0 0 0 -1 I I #
coedge $-1 $319 $318 $326 $415 reversed $135 $-1 #
edge $-1 $322 35.593849184835634 $418 68.427381206701867 $319 $456 forward 7 unknown #
straight-curve $-1 35.593849184835634 -35.269744763824249 43.719974587084977 0 0 -1 I I #
point $-1 35.593849184835634 -35.269744763824249 7.3510298437471038 #
straight-curve $-1 26.005307597884375 -35.269744763824249 1.3144579736702295 1 0 0 I I #
edge $-1 $418 -7.3510298437471038 $327 -1.3144579736702298 $326 $457 forward 7 unknown #
point $-1 68.427381206701867 -35.269744763824249 1.3144579736702298 #
point $-1 35.593849184835634 -35.269744763824249 1.3144579736702298 #
vertex $-1 $331 $458 #
straight-curve $-1 68.427381206701867 0 7.3510298437471038 0 1 0 I I #
vertex $-1 $334 $459 #
point $-1 45.974858333940276 -30.867529193278816 2.7471415648681639 #
vertex $-1 $338 $460 #
point $-1 60.046372057597225 -30.867529193278816 2.7471415648681639 #
coedge $-1 $353 $352 $345 $425 forward $342 $-1 #
edge $-1 $426 69.90439436127015 $429 73.49264052990938 $424 $461 forward 7 unknown #
vertex $-1 $357 $462 #
straight-curve $-1 -5.7008880459808999 33.287879734532829 7.3510298437470993 0 1 0 I I #
edge $-1 $429 -3.7497378573416391 $354 22.650989663986714 $353 $463 forward 7 unknown #
vertex $-1 $428 $464 #
straight-curve $-1 -5.7008880459808999 -19.549734199438959 48.154723360343283 0 -0.77714595512881146 0.62932039886446345 I I #
point $-1 -5.7008880459808999 30.838629864329285 7.3510298437471064 #
point $-1 -32.101615567309253 35.269744763824249 3.7627836751078689 #
straight-curve $-1 0 35.269744763824249 7.3510298437471038 -1 0 0 I I #
vertex $-1 $360 $465 #
point $-1 -23.558550561215441 30.964832834531286 2.9767689066915897 #
vertex $-1 $364 $466 #
point $-1 -12.243953052074716 30.964832834531286 2.9767689066915897 #
coedge $-1 $379 $378 $371 $439 forward $368 $-1 #
edge $-1 $440 69.90439436127015 $443 73.49264052990938 $438 $467 forward 7 unknown #
vertex $-1 $383 $468 #
straight-curve $-1 62.726493160720963 33.287879734532829 7.3510298437470993 0 1 0 I I #
edge $-1 $443 -37.963428460692569 $380 -11.56270093936422 $379 $469 forward 7 unknown #
vertex $-1 $442 $470 #
straight-curve $-1 62.726493160720963 -19.549734199438959 48.154723360343283 0 -0.77714595512881146 0.62932039886446345 I I #
point $-1 62.726493160720963 30.838629864329285 7.3510298437471064 #
point $-1 36.325765639392614 35.269744763824249 3.7627836751078689 #
straight-curve $-1 0 35.269744763824249 7.3510298437471038 -1 0 0 I I #
vertex $-1 $386 $471 #
point $-1 44.868830645486426 30.964832834531286 2.9767689066915897 #
vertex $-1 $390 $472 #
point $-1 56.183428154627151 30.964832834531286 2.9767689066915897 #
straight-curve $-1 -68.427381206701867 35.269744763824249 0 0 0 -1 I I #
point $-1 -68.427381206701867 -35.269744763824249 -7.3510298437471038 #
straight-curve $-1 -68.427381206701867 0 -7.3510298437471038 0 1 0 I I #
point $-1 -68.427381206701867 35.269744763824249 -7.3510298437471038 #
straight-curve $-1 0 -35.269744763824249 7.3510298437471038 1 0 0 I I #
straight-curve $-1 68.427381206701867 -35.269744763824249 0 0 0 -1 I I #
point $-1 68.427381206701867 -35.269744763824249 7.3510298437471038 #
point $-1 44.974858333940276 -30.090383223546564 2.117821184037453 #
point $-1 59.046372057597225 -30.090383223546564 2.117821184037453 #
straight-curve $-1 -5.7008880459808999 35.269744763824249 77.255424205017249 0 0 -1 I I #
point $-1 -5.7008880459808999 35.269744763824249 7.3510298437471038 #
straight-curve $-1 -9.450625903322539 35.269744763824249 3.7627836751078654 -1 0 0 I I #
point $-1 -5.7008880459808999 35.269744763824249 3.7627836751078689 #
point $-1 -24.558550561215441 30.335512435666821 2.1996229515627781 #
point $-1 -13.243953052074716 30.335512435666821 2.1996229515627781 #
straight-curve $-1 62.726493160720963 35.269744763824249 77.255424205017249 0 0 -1 I I #
point $-1 62.726493160720963 35.269744763824249 7.3510298437471038 #
straight-curve $-1 24.763064700028394 35.269744763824249 3.7627836751078654 -1 0 0 I I #
point $-1 62.726493160720963 35.269744763824249 3.7627836751078689 #
point $-1 43.868830645486426 30.335512435666821 2.1996229515627781 #
point $-1 55.183428154627151 30.335512435666821 2.1996229515627781 #
End-of-ACIS-data 