500 0 12 0           
7 Unknown 11 ACIS 5.0 NT 24 Fri Mar 26 15:10:35 1999 
-1 9.9999999999999995e-007 1e-010 
body $-1 $12 $-1 $13 #
body $-1 $14 $-1 $15 #
body $-1 $16 $-1 $17 #
body $-1 $18 $-1 $19 #
body $-1 $20 $-1 $21 #
body $-1 $22 $-1 $23 #
body $-1 $24 $-1 $25 #
body $-1 $26 $-1 $27 #
body $-1 $28 $-1 $29 #
body $-1 $30 $-1 $31 #
body $-1 $32 $-1 $33 #
body $-1 $34 $-1 $35 #
lump $-1 $-1 $36 $0 #
transform $-1 1 0 0 0 1 0 0 0 1 68.133182775353248 38.837182569093684 11.06220259266534 1 rotate no_reflect no_shear #
lump $-1 $-1 $37 $1 #
transform $-1 1 0 0 0 1 0 0 0 1 68.133182775353248 38.837182569093684 11.06220259266534 1 rotate no_reflect no_shear #
lump $-1 $-1 $38 $2 #
transform $-1 1 0 0 0 1 0 0 0 1 68.133182775353248 38.837182569093684 11.06220259266534 1 rotate no_reflect no_shear #
lump $-1 $-1 $39 $3 #
transform $-1 1 0 0 0 1 0 0 0 1 68.133182775353248 38.837182569093684 11.06220259266534 1 rotate no_reflect no_shear #
lump $-1 $-1 $40 $4 #
transform $-1 1 0 0 0 1 0 0 0 1 68.133182775353248 38.837182569093684 11.06220259266534 1 rotate no_reflect no_shear #
lump $-1 $-1 $41 $5 #
transform $-1 1 0 0 0 1 0 0 0 1 68.133182775353248 38.837182569093684 11.06220259266534 1 rotate no_reflect no_shear #
lump $-1 $-1 $42 $6 #
transform $-1 1 0 0 0 1 0 0 0 1 68.133182775353248 38.837182569093684 11.06220259266534 1 rotate no_reflect no_shear #
lump $-1 $-1 $43 $7 #
transform $-1 1 0 0 0 1 0 0 0 1 68.133182775353248 38.837182569093684 11.06220259266534 1 rotate no_reflect no_shear #
lump $-1 $-1 $44 $8 #
transform $-1 1 0 0 0 1 0 0 0 1 68.133182775353248 38.837182569093684 11.06220259266534 1 rotate no_reflect no_shear #
lump $-1 $-1 $45 $9 #
transform $-1 1 0 0 0 1 0 0 0 1 68.133182775353248 38.837182569093684 11.06220259266534 1 rotate no_reflect no_shear #
lump $-1 $-1 $46 $10 #
transform $-1 1 0 0 0 1 0 0 0 1 68.133182775353248 38.837182569093684 11.06220259266534 1 rotate no_reflect no_shear #
lump $-1 $-1 $47 $11 #
transform $-1 1 0 0 0 1 0 0 0 1 68.133182775353248 38.837182569093684 11.06220259266534 1 rotate no_reflect no_shear #
shell $-1 $-1 $-1 $48 $-1 $12 #
shell $-1 $-1 $-1 $49 $-1 $14 #
shell $-1 $-1 $-1 $50 $-1 $16 #
shell $-1 $-1 $-1 $51 $-1 $18 #
shell $-1 $-1 $-1 $52 $-1 $20 #
shell $-1 $-1 $-1 $53 $-1 $22 #
shell $-1 $-1 $-1 $54 $-1 $24 #
shell $-1 $-1 $-1 $55 $-1 $26 #
shell $-1 $-1 $-1 $56 $-1 $28 #
shell $-1 $-1 $-1 $57 $-1 $30 #
shell $-1 $-1 $-1 $58 $-1 $32 #
shell $-1 $-1 $-1 $59 $-1 $34 #
face $-1 $60 $61 $36 $-1 $62 forward single #
face $-1 $63 $64 $37 $-1 $65 reversed single #
face $-1 $66 $67 $38 $-1 $68 forward single #
face $-1 $69 $70 $39 $-1 $71 forward single #
face $-1 $72 $73 $40 $-1 $74 reversed single #
face $-1 $75 $76 $41 $-1 $77 forward single #
face $-1 $78 $79 $42 $-1 $80 forward single #
face $-1 $81 $82 $43 $-1 $83 forward single #
face $-1 $84 $85 $44 $-1 $86 reversed single #
face $-1 $87 $88 $45 $-1 $89 forward single #
face $-1 $90 $91 $46 $-1 $92 forward single #
face $-1 $93 $94 $47 $-1 $95 forward single #
face $-1 $96 $97 $36 $-1 $98 reversed single #
loop $-1 $-1 $99 $48 #
plane-surface $-1 0 0 11.06220259266534 0 0 1 1 0 0 forward_v I I I I #
face $-1 $100 $101 $37 $-1 $102 reversed single #
loop $-1 $-1 $103 $49 #
plane-surface $-1 -162.79175532920686 23.548605099116585 99.213913952388083 0 1 0 -0.69465837861970381 0 0.71933979245794832 forward_v I I I I #
face $-1 $104 $105 $38 $-1 $106 forward single #
loop $-1 $107 $108 $50 #
cone-surface $-1 -62.073446463754692 27.916770090538606 5.1440799040635179 0.69465837861970381 0 -0.71933979245794832 1.0790096886869225 0 1.0419875679295556 1 I I 0 1 1.5 forward I I I I #
face $-1 $109 $110 $39 $-1 $111 forward single #
loop $-1 $112 $113 $51 #
cone-surface $-1 -62.073446463754692 34.46901757767165 5.1440799040635179 0.69465837861970381 0 -0.71933979245794832 1.0790096886869225 0 1.0419875679295556 1 I I 0 1 1.5 forward I I I I #
face $-1 $114 $115 $40 $-1 $116 reversed single #
loop $-1 $-1 $117 $52 #
plane-surface $-1 94.953197798282901 -17.93417152460492 198.32690908838384 0 -1 0 -0.79863551827123203 0 -0.60181501223851219 forward_v I I I I #
face $-1 $118 $119 $41 $-1 $120 forward single #
loop $-1 $121 $122 $53 #
cone-surface $-1 65.287670011237466 -30.689863495447117 8.1466429304444326 -0.79863551827123203 0 -0.60181501223851219 0.60181501223851219 0 -0.79863551827123203 1 I I 0 1 1 forward I I I I #
face $-1 $123 $124 $42 $-1 $125 forward single #
loop $-1 $126 $127 $54 #
cone-surface $-1 65.287670011237466 -25.906479006381293 8.1466429304444326 -0.79863551827123203 0 -0.60181501223851219 0.60181501223851219 0 -0.79863551827123203 1 I I 0 1 1 forward I I I I #
face $-1 $128 $129 $43 $-1 $130 forward single #
loop $-1 $131 $132 $55 #
cone-surface $-1 65.287670011237466 -21.123094517315469 8.1466429304444326 -0.79863551827123203 0 -0.60181501223851219 0.60181501223851219 0 -0.79863551827123203 1 I I 0 1 1 forward I I I I #
face $-1 $133 $134 $44 $-1 $135 reversed single #
loop $-1 $-1 $136 $56 #
plane-surface $-1 94.953197798282901 20.903011044488768 198.32690908838384 0 -1 0 -0.79863551827123203 0 -0.60181501223851219 forward_v I I I I #
face $-1 $137 $138 $45 $-1 $139 forward single #
loop $-1 $140 $141 $57 #
cone-surface $-1 65.287670011237466 8.147319073646571 8.1466429304444326 -0.79863551827123203 0 -0.60181501223851219 0.60181501223851219 0 -0.79863551827123203 1 I I 0 1 1 forward I I I I #
face $-1 $142 $143 $46 $-1 $144 forward single #
loop $-1 $145 $146 $58 #
cone-surface $-1 65.287670011237466 12.930703562712395 8.1466429304444326 -0.79863551827123203 0 -0.60181501223851219 0.60181501223851219 0 -0.79863551827123203 1 I I 0 1 1 forward I I I I #
face $-1 $147 $148 $47 $-1 $149 forward single #
loop $-1 $150 $151 $59 #
cone-surface $-1 65.287670011237466 17.714088051778219 8.1466429304444326 -0.79863551827123203 0 -0.60181501223851219 0.60181501223851219 0 -0.79863551827123203 1 I I 0 1 1 forward I I I I #
face $-1 $152 $153 $36 $-1 $154 reversed single #
loop $-1 $-1 $155 $60 #
plane-surface $-1 0 0 -11.06220259266534 0 0 1 1 0 0 forward_v I I I I #
coedge $-1 $156 $157 $158 $159 forward $61 $-1 #
face $-1 $160 $161 $37 $-1 $162 forward single #
loop $-1 $-1 $163 $63 #
plane-surface $-1 -68.133182775353234 31.192893834105135 1.1920948381439587 -0.69465837861970381 0 0.71933979245794832 0.71933979245794832 0 0.69465837861970381 forward_v I I I I #
coedge $-1 $164 $165 $166 $167 reversed $64 $-1 #
face $-1 $-1 $168 $38 $-1 $169 forward single #
loop $-1 $170 $171 $66 #
cone-surface $-1 -60.603114142261759 27.916770090538606 3.6215062483789193 0.69465837861970381 0 -0.71933979245794832 0.53950484434346124 0 0.5209937839647778 1 I I -0.70710678118654757 0.70710678118654757 0.75 forward I I I I #
loop $-1 $-1 $172 $50 #
coedge $-1 $108 $108 $173 $174 reversed $67 $-1 #
face $-1 $-1 $175 $39 $-1 $176 forward single #
loop $-1 $177 $178 $69 #
cone-surface $-1 -60.603114142261759 34.46901757767165 3.6215062483789193 0.69465837861970381 0 -0.71933979245794832 0.53950484434346124 0 0.5209937839647778 1 I I -0.70710678118654757 0.70710678118654757 0.75 forward I I I I #
loop $-1 $-1 $179 $51 #
coedge $-1 $113 $113 $180 $181 reversed $70 $-1 #
face $-1 $182 $183 $40 $-1 $184 reversed single #
loop $-1 $-1 $185 $72 #
plane-surface $-1 -13.873961676242743 -25.906479006381293 116.31976463678784 0.79863551827123203 0 0.60181501223851219 0.60181501223851219 0 -0.79863551827123203 forward_v I I I I #
coedge $-1 $186 $187 $188 $189 reversed $73 $-1 #
face $-1 $-1 $190 $41 $-1 $191 forward single #
loop $-1 $192 $193 $75 #
cone-surface $-1 63.387781750205249 -30.689863495447117 6.714974477305848 -0.79863551827123203 0 -0.60181501223851219 0.3009075061192561 0 -0.39931775913561601 1 I I -0.70710678118654746 0.70710678118654746 0.5 forward I I I I #
loop $-1 $-1 $194 $53 #
coedge $-1 $122 $122 $195 $196 reversed $76 $-1 #
face $-1 $-1 $197 $42 $-1 $198 forward single #
loop $-1 $199 $200 $78 #
cone-surface $-1 63.387781750205249 -25.906479006381293 6.714974477305848 -0.79863551827123203 0 -0.60181501223851219 0.3009075061192561 0 -0.39931775913561601 1 I I -0.70710678118654746 0.70710678118654746 0.5 forward I I I I #
loop $-1 $-1 $201 $54 #
coedge $-1 $127 $127 $202 $203 reversed $79 $-1 #
face $-1 $-1 $204 $43 $-1 $205 forward single #
loop $-1 $206 $207 $81 #
cone-surface $-1 63.387781750205249 -21.123094517315469 6.714974477305848 -0.79863551827123203 0 -0.60181501223851219 0.3009075061192561 0 -0.39931775913561601 1 I I -0.70710678118654746 0.70710678118654746 0.5 forward I I I I #
loop $-1 $-1 $208 $55 #
coedge $-1 $132 $132 $209 $210 reversed $82 $-1 #
face $-1 $211 $212 $44 $-1 $213 reversed single #
loop $-1 $-1 $214 $84 #
plane-surface $-1 -13.873961676242743 12.930703562712395 116.31976463678784 0.79863551827123203 0 0.60181501223851219 0.60181501223851219 0 -0.79863551827123203 forward_v I I I I #
coedge $-1 $215 $216 $217 $218 reversed $85 $-1 #
face $-1 $-1 $219 $45 $-1 $220 forward single #
loop $-1 $221 $222 $87 #
cone-surface $-1 63.387781750205249 8.147319073646571 6.714974477305848 -0.79863551827123203 0 -0.60181501223851219 0.3009075061192561 0 -0.39931775913561601 1 I I -0.70710678118654746 0.70710678118654746 0.5 forward I I I I #
loop $-1 $-1 $223 $57 #
coedge $-1 $141 $141 $224 $225 reversed $88 $-1 #
face $-1 $-1 $226 $46 $-1 $227 forward single #
loop $-1 $228 $229 $90 #
cone-surface $-1 63.387781750205249 12.930703562712395 6.714974477305848 -0.79863551827123203 0 -0.60181501223851219 0.3009075061192561 0 -0.39931775913561601 1 I I -0.70710678118654746 0.70710678118654746 0.5 forward I I I I #
loop $-1 $-1 $230 $58 #
coedge $-1 $146 $146 $231 $232 reversed $91 $-1 #
face $-1 $-1 $233 $47 $-1 $234 forward single #
loop $-1 $235 $236 $93 #
cone-surface $-1 63.387781750205249 17.714088051778219 6.714974477305848 -0.79863551827123203 0 -0.60181501223851219 0.3009075061192561 0 -0.39931775913561601 1 I I -0.70710678118654746 0.70710678118654746 0.5 forward I I I I #
loop $-1 $-1 $237 $59 #
coedge $-1 $151 $151 $238 $239 reversed $94 $-1 #
face $-1 $240 $241 $36 $-1 $242 reversed single #
loop $-1 $-1 $243 $96 #
plane-surface $-1 0 -38.837182569093684 0 0 1 0 0 0 1 forward_v I I I I #
coedge $-1 $244 $245 $246 $247 forward $97 $-1 #
coedge $-1 $248 $99 $249 $250 forward $61 $-1 #
coedge $-1 $99 $248 $251 $252 forward $61 $-1 #
coedge $-1 $253 $254 $99 $159 reversed $255 $-1 #
edge $-1 $256 -38.837182569093684 $257 38.837182569093684 $158 $258 forward 7 unknown #
face $-1 $259 $260 $37 $-1 $261 reversed single #
loop $-1 $-1 $166 $100 #
plane-surface $-1 0 0 11.06220259266534 0 0 1 1 0 0 forward_v I I I I #
coedge $-1 $262 $263 $264 $265 reversed $101 $-1 #
coedge $-1 $165 $103 $266 $267 reversed $64 $-1 #
coedge $-1 $103 $164 $262 $268 reversed $64 $-1 #
coedge $-1 $264 $269 $103 $167 forward $161 $-1 #
edge $-1 $270 13.262694889250184 $271 23.483490437391026 $166 $272 forward 7 unknown #
loop $-1 $-1 $173 $104 #
plane-surface $-1 -68.133182775353234 31.192893834105135 1.1920948381439587 -0.69465837861970381 0 0.71933979245794832 0.71933979245794832 0 0.69465837861970381 forward_v I I I I #
loop $-1 $-1 $273 $66 #
coedge $-1 $171 $171 $172 $274 reversed $105 $-1 #
coedge $-1 $172 $172 $171 $274 forward $107 $-1 #
coedge $-1 $173 $173 $108 $174 forward $168 $-1 #
edge $-1 $275 0 $275 6.2831853071796004 $173 $276 forward 7 unknown #
loop $-1 $-1 $180 $109 #
plane-surface $-1 -68.133182775353234 31.192893834105135 1.1920948381439587 -0.69465837861970381 0 0.71933979245794832 0.71933979245794832 0 0.69465837861970381 forward_v I I I I #
loop $-1 $-1 $277 $69 #
coedge $-1 $178 $178 $179 $278 reversed $110 $-1 #
coedge $-1 $179 $179 $178 $278 forward $112 $-1 #
coedge $-1 $180 $180 $113 $181 forward $175 $-1 #
edge $-1 $279 0 $279 6.2831853071796004 $180 $280 forward 7 unknown #
face $-1 $281 $282 $40 $-1 $283 forward single #
loop $-1 $-1 $284 $114 #
plane-surface $-1 94.953197798282901 -33.878786488157665 198.32690908838384 0 1 0 0.79863551827123203 0 0.60181501223851219 forward_v I I I I #
coedge $-1 $285 $286 $287 $288 reversed $115 $-1 #
coedge $-1 $187 $117 $289 $290 reversed $73 $-1 #
coedge $-1 $117 $186 $285 $291 reversed $73 $-1 #
coedge $-1 $287 $292 $117 $189 forward $282 $-1 #
edge $-1 $293 -20.656583876211798 $294 -17.9666993517734 $188 $295 forward 7 unknown #
loop $-1 $-1 $195 $118 #
plane-surface $-1 -13.873961676242743 -25.906479006381293 116.31976463678784 0.79863551827123203 0 0.60181501223851219 0.60181501223851219 0 -0.79863551827123203 forward_v I I I I #
loop $-1 $-1 $296 $75 #
coedge $-1 $193 $193 $194 $297 reversed $119 $-1 #
coedge $-1 $194 $194 $193 $297 forward $121 $-1 #
coedge $-1 $195 $195 $122 $196 forward $190 $-1 #
edge $-1 $298 0 $298 6.2831853071796004 $195 $299 forward 7 unknown #
loop $-1 $-1 $202 $123 #
plane-surface $-1 -13.873961676242743 -25.906479006381293 116.31976463678784 0.79863551827123203 0 0.60181501223851219 0.60181501223851219 0 -0.79863551827123203 forward_v I I I I #
loop $-1 $-1 $300 $78 #
coedge $-1 $200 $200 $201 $301 reversed $124 $-1 #
coedge $-1 $201 $201 $200 $301 forward $126 $-1 #
coedge $-1 $202 $202 $127 $203 forward $197 $-1 #
edge $-1 $302 0 $302 6.2831853071796004 $202 $303 forward 7 unknown #
loop $-1 $-1 $209 $128 #
plane-surface $-1 -13.873961676242743 -25.906479006381293 116.31976463678784 0.79863551827123203 0 0.60181501223851219 0.60181501223851219 0 -0.79863551827123203 forward_v I I I I #
loop $-1 $-1 $304 $81 #
coedge $-1 $207 $207 $208 $305 reversed $129 $-1 #
coedge $-1 $208 $208 $207 $305 forward $131 $-1 #
coedge $-1 $209 $209 $132 $210 forward $204 $-1 #
edge $-1 $306 0 $306 6.2831853071796004 $209 $307 forward 7 unknown #
face $-1 $308 $309 $44 $-1 $310 reversed single #
loop $-1 $-1 $311 $133 #
plane-surface $-1 94.953197798282901 4.9583960809360228 198.32690908838384 0 1 0 0.79863551827123203 0 0.60181501223851219 forward_v I I I I #
coedge $-1 $312 $313 $314 $315 reversed $134 $-1 #
coedge $-1 $216 $136 $316 $317 reversed $85 $-1 #
coedge $-1 $136 $215 $312 $318 reversed $85 $-1 #
coedge $-1 $314 $319 $136 $218 forward $320 $-1 #
edge $-1 $321 -20.656583876211798 $322 -17.9666993517734 $217 $323 forward 7 unknown #
loop $-1 $-1 $224 $137 #
plane-surface $-1 -13.873961676242743 12.930703562712395 116.31976463678784 0.79863551827123203 0 0.60181501223851219 0.60181501223851219 0 -0.79863551827123203 forward_v I I I I #
loop $-1 $-1 $324 $87 #
coedge $-1 $222 $222 $223 $325 reversed $138 $-1 #
coedge $-1 $223 $223 $222 $325 forward $140 $-1 #
coedge $-1 $224 $224 $141 $225 forward $219 $-1 #
edge $-1 $326 0 $326 6.2831853071796004 $224 $327 forward 7 unknown #
loop $-1 $-1 $231 $142 #
plane-surface $-1 -13.873961676242743 12.930703562712395 116.31976463678784 0.79863551827123203 0 0.60181501223851219 0.60181501223851219 0 -0.79863551827123203 forward_v I I I I #
loop $-1 $-1 $328 $90 #
coedge $-1 $229 $229 $230 $329 reversed $143 $-1 #
coedge $-1 $230 $230 $229 $329 forward $145 $-1 #
coedge $-1 $231 $231 $146 $232 forward $226 $-1 #
edge $-1 $330 0 $330 6.2831853071796004 $231 $331 forward 7 unknown #
loop $-1 $-1 $238 $147 #
plane-surface $-1 -13.873961676242743 12.930703562712395 116.31976463678784 0.79863551827123203 0 0.60181501223851219 0.60181501223851219 0 -0.79863551827123203 forward_v I I I I #
loop $-1 $-1 $332 $93 #
coedge $-1 $236 $236 $237 $333 reversed $148 $-1 #
coedge $-1 $237 $237 $236 $333 forward $150 $-1 #
coedge $-1 $238 $238 $151 $239 forward $233 $-1 #
edge $-1 $334 0 $334 6.2831853071796004 $238 $335 forward 7 unknown #
face $-1 $336 $337 $36 $-1 $338 reversed single #
loop $-1 $-1 $339 $152 #
plane-surface $-1 -68.133182775353248 0 0 1 0 0 0 0 -1 forward_v I I I I #
coedge $-1 $340 $251 $341 $342 forward $153 $-1 #
coedge $-1 $343 $155 $340 $344 forward $97 $-1 #
coedge $-1 $155 $343 $345 $346 forward $97 $-1 #
coedge $-1 $254 $253 $155 $247 reversed $255 $-1 #
edge $-1 $347 -38.837182569093684 $348 38.837182569093684 $246 $349 forward 7 unknown #
coedge $-1 $157 $156 $350 $351 forward $61 $-1 #
coedge $-1 $352 $353 $156 $250 reversed $337 $-1 #
edge $-1 $257 -68.133182775353248 $354 68.133182775353248 $249 $355 forward 7 unknown #
coedge $-1 $243 $356 $157 $252 reversed $153 $-1 #
edge $-1 $357 -68.133182775353248 $256 68.133182775353248 $251 $358 forward 7 unknown #
coedge $-1 $246 $158 $356 $359 forward $255 $-1 #
coedge $-1 $158 $246 $352 $360 reversed $255 $-1 #
loop $-1 $-1 $253 $336 #
vertex $-1 $159 $361 #
vertex $-1 $159 $362 #
straight-curve $-1 68.133182775353248 0 11.06220259266534 0 1 0 I I #
face $-1 $-1 $363 $37 $-1 $364 reversed single #
loop $-1 $-1 $365 $160 #
plane-surface $-1 0 38.837182569093684 0 0 -1 0 0 0 -1 forward_v I I I I #
coedge $-1 $366 $163 $165 $268 forward $101 $-1 #
coedge $-1 $163 $366 $365 $367 reversed $101 $-1 #
coedge $-1 $368 $166 $163 $265 forward $161 $-1 #
edge $-1 $271 7.9521581820640179 $369 23.240735652041117 $264 $370 forward 7 unknown #
coedge $-1 $371 $372 $164 $267 forward $363 $-1 #
edge $-1 $373 -48.414862138050097 $270 -38.544754383528698 $266 $374 forward 7 unknown #
edge $-1 $271 -14.208577997912334 $373 1.9785632286268914e-014 $165 $375 forward 7 unknown #
coedge $-1 $166 $368 $371 $376 forward $161 $-1 #
vertex $-1 $267 $377 #
vertex $-1 $167 $378 #
straight-curve $-1 -81.395877664603432 23.548605099116585 11.062202592665336 1 0 0 I I #
coedge $-1 $273 $273 $-1 $379 reversed $170 $-1 #
edge $-1 $380 0 $380 6.2831853071796004 $171 $381 forward 7 unknown #
vertex $-1 $174 $382 #
ellipse-curve $-1 -63.022785001282827 27.916770090538606 6.1271487154046387 -0.69465837861970381 0 0.71933979245794832 1.0790096886869225 0 1.0419875679295556 1 I I #
coedge $-1 $277 $277 $-1 $383 reversed $177 $-1 #
edge $-1 $384 0 $384 6.2831853071796004 $178 $385 forward 7 unknown #
vertex $-1 $181 $386 #
ellipse-curve $-1 -63.022785001282827 34.46901757767165 6.1271487154046387 -0.69465837861970381 0 0.71933979245794832 1.0790096886869225 0 1.0419875679295556 1 I I #
face $-1 $-1 $387 $40 $-1 $388 reversed single #
loop $-1 $-1 $188 $182 #
plane-surface $-1 0 0 11.06220259266534 0 0 1 1 0 0 forward_v I I I I #
coedge $-1 $389 $390 $391 $392 reversed $183 $-1 #
coedge $-1 $393 $185 $187 $291 forward $115 $-1 #
coedge $-1 $185 $393 $389 $394 forward $115 $-1 #
coedge $-1 $391 $188 $185 $288 forward $282 $-1 #
edge $-1 $294 4.980932021414274 $395 20.925546984967021 $287 $396 forward 7 unknown #
coedge $-1 $397 $398 $186 $290 forward $387 $-1 #
edge $-1 $399 -91.670849381929699 $293 -88.101251951526578 $289 $400 forward 7 unknown #
edge $-1 $294 131.79674536886174 $399 136.26636555070647 $187 $401 forward 7 unknown #
coedge $-1 $188 $391 $397 $402 forward $282 $-1 #
vertex $-1 $290 $403 #
vertex $-1 $189 $404 #
straight-curve $-1 47.47659889914145 -17.93417152460492 11.062202592665344 -1 0 0 I I #
coedge $-1 $296 $296 $-1 $405 reversed $192 $-1 #
edge $-1 $406 0 $406 6.2831853071796004 $193 $407 forward 7 unknown #
vertex $-1 $196 $408 #
ellipse-curve $-1 66.78824051313407 -30.689863495447117 9.2774038774637688 0.79863551827123203 0 0.60181501223851219 0.60181501223851219 0 -0.79863551827123203 1 I I #
coedge $-1 $300 $300 $-1 $409 reversed $199 $-1 #
edge $-1 $410 0 $410 6.2831853071796004 $200 $411 forward 7 unknown #
vertex $-1 $203 $412 #
ellipse-curve $-1 66.78824051313407 -25.906479006381293 9.2774038774637688 0.79863551827123203 0 0.60181501223851219 0.60181501223851219 0 -0.79863551827123203 1 I I #
coedge $-1 $304 $304 $-1 $413 reversed $206 $-1 #
edge $-1 $414 0 $414 6.2831853071796004 $207 $415 forward 7 unknown #
vertex $-1 $210 $416 #
ellipse-curve $-1 66.78824051313407 -21.123094517315469 9.2774038774637688 0.79863551827123203 0 0.60181501223851219 0.60181501223851219 0 -0.79863551827123203 1 I I #
face $-1 $-1 $320 $44 $-1 $417 forward single #
loop $-1 $-1 $418 $211 #
plane-surface $-1 68.133182775353248 0 0 -1 0 0 0 0 1 forward_v I I I I #
coedge $-1 $419 $420 $421 $422 reversed $212 $-1 #
coedge $-1 $423 $214 $216 $318 forward $134 $-1 #
coedge $-1 $214 $423 $419 $424 forward $134 $-1 #
coedge $-1 $421 $217 $214 $315 forward $320 $-1 #
edge $-1 $322 -14.43765926313257 $425 1.5069557004201748 $314 $426 forward 7 unknown #
coedge $-1 $427 $428 $215 $317 forward $309 $-1 #
edge $-1 $429 -91.670849381929699 $321 -88.101251951526578 $316 $430 forward 7 unknown #
edge $-1 $322 131.79674536886174 $429 136.26636555070647 $216 $431 forward 7 unknown #
coedge $-1 $217 $421 $427 $432 forward $320 $-1 #
loop $-1 $-1 $421 $308 #
vertex $-1 $317 $433 #
vertex $-1 $218 $434 #
straight-curve $-1 47.47659889914145 20.903011044488768 11.062202592665344 -1 0 0 I I #
coedge $-1 $324 $324 $-1 $435 reversed $221 $-1 #
edge $-1 $436 0 $436 6.2831853071796004 $222 $437 forward 7 unknown #
vertex $-1 $225 $438 #
ellipse-curve $-1 66.78824051313407 8.147319073646571 9.2774038774637688 0.79863551827123203 0 0.60181501223851219 0.60181501223851219 0 -0.79863551827123203 1 I I #
coedge $-1 $328 $328 $-1 $439 reversed $228 $-1 #
edge $-1 $440 0 $440 6.2831853071796004 $229 $441 forward 7 unknown #
vertex $-1 $232 $442 #
ellipse-curve $-1 66.78824051313407 12.930703562712395 9.2774038774637688 0.79863551827123203 0 0.60181501223851219 0.60181501223851219 0 -0.79863551827123203 1 I I #
coedge $-1 $332 $332 $-1 $443 reversed $235 $-1 #
edge $-1 $444 0 $444 6.2831853071796004 $236 $445 forward 7 unknown #
vertex $-1 $239 $446 #
ellipse-curve $-1 66.78824051313407 17.714088051778219 9.2774038774637688 0.79863551827123203 0 0.60181501223851219 0.60181501223851219 0 -0.79863551827123203 1 I I #
face $-1 $-1 $255 $36 $-1 $447 reversed single #
loop $-1 $-1 $352 $240 #
plane-surface $-1 0 38.837182569093684 0 0 -1 0 0 0 -1 forward_v I I I I #
coedge $-1 $448 $350 $353 $449 forward $241 $-1 #
coedge $-1 $356 $243 $244 $344 reversed $153 $-1 #
coedge $-1 $350 $448 $243 $342 reversed $241 $-1 #
edge $-1 $357 -11.06220259266534 $450 11.06220259266534 $341 $451 forward 7 unknown #
coedge $-1 $245 $244 $448 $452 forward $97 $-1 #
edge $-1 $348 -68.133182775353248 $450 68.133182775353248 $340 $453 forward 7 unknown #
coedge $-1 $353 $352 $245 $346 reversed $337 $-1 #
edge $-1 $454 -68.133182775353248 $347 68.133182775353248 $345 $455 forward 7 unknown #
vertex $-1 $247 $456 #
vertex $-1 $359 $457 #
straight-curve $-1 68.133182775353248 0 -11.06220259266534 0 -1 0 I I #
coedge $-1 $339 $341 $248 $351 reversed $241 $-1 #
edge $-1 $354 -38.837182569093684 $357 38.837182569093684 $350 $458 forward 7 unknown #
coedge $-1 $345 $249 $254 $360 forward $337 $-1 #
coedge $-1 $249 $345 $339 $449 reversed $337 $-1 #
vertex $-1 $250 $459 #
straight-curve $-1 0 38.837182569093684 11.06220259266534 -1 0 0 I I #
coedge $-1 $251 $340 $253 $359 reversed $153 $-1 #
vertex $-1 $351 $460 #
straight-curve $-1 0 -38.837182569093684 11.06220259266534 1 0 0 I I #
edge $-1 $256 -11.06220259266534 $348 11.06220259266534 $253 $461 forward 7 unknown #
edge $-1 $257 -11.06220259266534 $347 11.06220259266534 $254 $462 forward 7 unknown #
point $-1 68.133182775353248 -38.837182569093684 11.06220259266534 #
point $-1 68.133182775353248 38.837182569093684 11.06220259266534 #
loop $-1 $-1 $266 $259 #
plane-surface $-1 -68.133182775353248 0 0 1 0 0 0 0 -1 forward_v I I I I #
coedge $-1 $463 $464 $263 $367 forward $260 $-1 #
coedge $-1 $263 $262 $372 $465 reversed $101 $-1 #
edge $-1 $369 9.8828274469356927 $466 24.091405444848046 $365 $467 forward 7 unknown #
coedge $-1 $269 $264 $464 $468 forward $161 $-1 #
vertex $-1 $468 $469 #
straight-curve $-1 -57.912387227212399 15.596446917052567 11.06220259266534 0 1 0 I I #
coedge $-1 $470 $266 $269 $376 reversed $363 $-1 #
coedge $-1 $266 $470 $366 $465 forward $363 $-1 #
vertex $-1 $267 $471 #
straight-curve $-1 -68.133182775353248 23.548605099116585 49.606956976194041 0 0 1 I I #
straight-curve $-1 -68.133182775353234 23.548605099116585 1.1920948381439587 -0.71933979245794832 0 -0.69465837861970381 I I #
edge $-1 $472 -38.837182569093684 $270 -23.548605099116585 $371 $473 forward 7 unknown #
point $-1 -68.133182775353248 23.548605099116585 11.06220259266534 #
point $-1 -57.912387227212406 23.548605099116585 11.06220259266534 #
edge $-1 $474 1 $474 0 $273 $-1 forward 7 unknown #
vertex $-1 $274 $475 #
ellipse-curve $-1 -61.124107926226536 27.916770090538606 4.1610110927223802 -0.69465837861970381 0 0.71933979245794832 1.0790096886869225 0 1.0419875679295556 1 I I #
point $-1 -61.943775312595925 27.916770090538606 7.1691362833342112 #
edge $-1 $476 1 $476 0 $277 $-1 forward 7 unknown #
vertex $-1 $278 $477 #
ellipse-curve $-1 -61.124107926226536 34.46901757767165 4.1610110927223802 -0.69465837861970381 0 0.71933979245794832 1.0790096886869225 0 1.0419875679295556 1 I I #
point $-1 -61.943775312595925 34.46901757767165 7.1691362833342112 #
loop $-1 $-1 $289 $281 #
plane-surface $-1 68.133182775353248 0 0 -1 0 0 0 0 1 forward_v I I I I #
coedge $-1 $390 $284 $286 $394 reversed $183 $-1 #
coedge $-1 $284 $389 $478 $479 reversed $183 $-1 #
coedge $-1 $292 $287 $284 $392 forward $282 $-1 #
edge $-1 $395 17.9666993517734 $480 20.656583876211798 $391 $481 forward 7 unknown #
coedge $-1 $286 $285 $398 $482 reversed $115 $-1 #
edge $-1 $483 -136.26636555070647 $395 -131.79674536886174 $389 $484 forward 7 unknown #
vertex $-1 $288 $485 #
straight-curve $-1 65.44329825091485 -12.953239503190646 11.062202592665344 0 -1 0 I I #
coedge $-1 $478 $289 $292 $402 reversed $387 $-1 #
coedge $-1 $289 $478 $393 $482 forward $387 $-1 #
vertex $-1 $290 $486 #
straight-curve $-1 68.133182775353248 -17.93417152460492 99.163454544191922 0 0 1 I I #
straight-curve $-1 -13.873961676242743 -17.93417152460492 116.31976463678784 0.60181501223851219 0 -0.79863551827123203 I I #
edge $-1 $480 -33.878786488157665 $293 -17.93417152460492 $397 $487 forward 7 unknown #
point $-1 68.133182775353248 -17.93417152460492 11.06220259266534 #
point $-1 65.44329825091485 -17.93417152460492 11.062202592665344 #
edge $-1 $488 1 $488 0 $296 $-1 forward 7 unknown #
vertex $-1 $297 $489 #
ellipse-curve $-1 63.787099509340862 -30.689863495447117 7.0158819834251043 0.79863551827123203 0 0.60181501223851219 0.60181501223851219 0 -0.79863551827123203 1 I I #
point $-1 67.390055525372574 -30.689863495447117 8.4787683591925305 #
edge $-1 $490 1 $490 0 $300 $-1 forward 7 unknown #
vertex $-1 $301 $491 #
ellipse-curve $-1 63.787099509340862 -25.906479006381293 7.0158819834251043 0.79863551827123203 0 0.60181501223851219 0.60181501223851219 0 -0.79863551827123203 1 I I #
point $-1 67.390055525372574 -25.906479006381293 8.4787683591925305 #
edge $-1 $492 1 $492 0 $304 $-1 forward 7 unknown #
vertex $-1 $305 $493 #
ellipse-curve $-1 63.787099509340862 -21.123094517315469 7.0158819834251043 0.79863551827123203 0 0.60181501223851219 0.60181501223851219 0 -0.79863551827123203 1 I I #
point $-1 67.390055525372574 -21.123094517315469 8.4787683591925305 #
plane-surface $-1 0 0 11.06220259266534 0 0 1 1 0 0 forward_v I I I I #
coedge $-1 $428 $427 $420 $494 forward $309 $-1 #
coedge $-1 $420 $311 $313 $424 reversed $212 $-1 #
coedge $-1 $311 $419 $418 $494 reversed $212 $-1 #
coedge $-1 $319 $314 $311 $422 forward $320 $-1 #
edge $-1 $425 17.9666993517734 $495 20.656583876211798 $421 $496 forward 7 unknown #
coedge $-1 $313 $312 $428 $497 reversed $134 $-1 #
edge $-1 $498 -136.26636555070647 $425 -131.79674536886174 $419 $499 forward 7 unknown #
vertex $-1 $315 $500 #
straight-curve $-1 65.44329825091485 6.4653517813561976 11.062202592665344 0 -1 0 I I #
coedge $-1 $418 $316 $319 $432 reversed $309 $-1 #
coedge $-1 $316 $418 $423 $497 forward $309 $-1 #
vertex $-1 $317 $501 #
straight-curve $-1 68.133182775353248 20.903011044488768 99.163454544191922 0 0 1 I I #
straight-curve $-1 -13.873961676242743 20.903011044488768 116.31976463678784 0.60181501223851219 0 -0.79863551827123203 I I #
edge $-1 $495 4.9583960809360228 $321 20.903011044488768 $427 $502 forward 7 unknown #
point $-1 68.133182775353248 20.903011044488768 11.06220259266534 #
point $-1 65.44329825091485 20.903011044488768 11.062202592665344 #
edge $-1 $503 1 $503 0 $324 $-1 forward 7 unknown #
vertex $-1 $325 $504 #
ellipse-curve $-1 63.787099509340862 8.147319073646571 7.0158819834251043 0.79863551827123203 0 0.60181501223851219 0.60181501223851219 0 -0.79863551827123203 1 I I #
point $-1 67.390055525372574 8.147319073646571 8.4787683591925305 #
edge $-1 $505 1 $505 0 $328 $-1 forward 7 unknown #
vertex $-1 $329 $506 #
ellipse-curve $-1 63.787099509340862 12.930703562712395 7.0158819834251043 0.79863551827123203 0 0.60181501223851219 0.60181501223851219 0 -0.79863551827123203 1 I I #
point $-1 67.390055525372574 12.930703562712395 8.4787683591925305 #
edge $-1 $507 1 $507 0 $332 $-1 forward 7 unknown #
vertex $-1 $333 $508 #
ellipse-curve $-1 63.787099509340862 17.714088051778219 7.0158819834251043 0.79863551827123203 0 0.60181501223851219 0.60181501223851219 0 -0.79863551827123203 1 I I #
point $-1 67.390055525372574 17.714088051778219 8.4787683591925305 #
plane-surface $-1 68.133182775353248 0 0 -1 0 0 0 0 1 forward_v I I I I #
coedge $-1 $341 $339 $343 $452 reversed $241 $-1 #
edge $-1 $354 -11.06220259266534 $454 11.06220259266534 $353 $509 forward 7 unknown #
vertex $-1 $452 $510 #
straight-curve $-1 -68.133182775353248 -38.837182569093684 0 0 0 -1 I I #
edge $-1 $450 -38.837182569093684 $454 38.837182569093684 $448 $511 forward 7 unknown #
straight-curve $-1 0 -38.837182569093684 -11.06220259266534 -1 0 0 I I #
vertex $-1 $346 $512 #
straight-curve $-1 0 38.837182569093684 -11.06220259266534 1 0 0 I I #
point $-1 68.133182775353248 38.837182569093684 -11.06220259266534 #
point $-1 68.133182775353248 -38.837182569093684 -11.06220259266534 #
straight-curve $-1 -68.133182775353248 0 11.06220259266534 0 -1 0 I I #
point $-1 -68.133182775353248 38.837182569093684 11.06220259266534 #
point $-1 -68.133182775353248 -38.837182569093684 11.06220259266534 #
straight-curve $-1 68.133182775353248 -38.837182569093684 0 0 0 -1 I I #
straight-curve $-1 68.133182775353248 38.837182569093684 0 0 0 -1 I I #
coedge $-1 $464 $365 $470 $513 reversed $260 $-1 #
coedge $-1 $365 $463 $368 $468 reversed $260 $-1 #
edge $-1 $466 -23.240735652041117 $373 -7.9521581820640179 $372 $514 forward 7 unknown #
vertex $-1 $367 $515 #
straight-curve $-1 -50.803276182635969 38.837182569093684 17.927391483131995 -0.71933979245794832 0 -0.69465837861970381 I I #
edge $-1 $369 57.912387227212406 $472 68.133182775353248 $464 $516 forward 7 unknown #
point $-1 -57.912387227212406 38.837182569093684 11.06220259266534 #
coedge $-1 $372 $371 $463 $513 forward $363 $-1 #
point $-1 -68.133182775353248 23.548605099116585 1.1920948381439449 #
vertex $-1 $468 $517 #
straight-curve $-1 -68.133182775353248 0 11.06220259266534 0 -1 0 I I #
vertex $-1 $379 $518 #
point $-1 -60.045098237539612 27.916770090538606 5.2029986606519358 #
vertex $-1 $383 $519 #
point $-1 -60.045098237539612 34.46901757767165 5.2029986606519358 #
coedge $-1 $398 $397 $390 $479 forward $387 $-1 #
edge $-1 $480 88.101251951526578 $483 91.670849381929699 $478 $520 forward 7 unknown #
vertex $-1 $402 $521 #
straight-curve $-1 47.47659889914145 -33.878786488157665 11.062202592665344 1 0 0 I I #
edge $-1 $483 -20.925546984967021 $399 -4.980932021414274 $398 $522 forward 7 unknown #
vertex $-1 $482 $523 #
straight-curve $-1 -13.873961676242743 -33.878786488157665 116.31976463678784 -0.60181501223851219 0 0.79863551827123203 I I #
point $-1 65.44329825091485 -33.878786488157665 11.062202592665344 #
point $-1 68.133182775353248 -17.93417152460492 7.4926051622622225 #
straight-curve $-1 68.133182775353248 0 11.06220259266534 0 1 0 I I #
vertex $-1 $405 $524 #
point $-1 64.38891452157938 -30.689863495447117 6.2172464651538721 #
vertex $-1 $409 $525 #
point $-1 64.38891452157938 -25.906479006381293 6.2172464651538721 #
vertex $-1 $413 $526 #
point $-1 64.38891452157938 -21.123094517315469 6.2172464651538721 #
edge $-1 $495 88.101251951526578 $498 91.670849381929699 $418 $527 forward 7 unknown #
vertex $-1 $432 $528 #
straight-curve $-1 47.47659889914145 4.9583960809360228 11.062202592665344 1 0 0 I I #
edge $-1 $498 -1.5069557004201748 $429 14.43765926313257 $428 $529 forward 7 unknown #
vertex $-1 $497 $530 #
straight-curve $-1 -13.873961676242743 4.9583960809360228 116.31976463678784 -0.60181501223851219 0 0.79863551827123203 I I #
point $-1 65.44329825091485 4.9583960809360228 11.062202592665344 #
point $-1 68.133182775353248 20.903011044488768 7.4926051622622225 #
straight-curve $-1 68.133182775353248 0 11.06220259266534 0 1 0 I I #
vertex $-1 $435 $531 #
point $-1 64.38891452157938 8.147319073646571 6.2172464651538721 #
vertex $-1 $439 $532 #
point $-1 64.38891452157938 12.930703562712395 6.2172464651538721 #
vertex $-1 $443 $533 #
point $-1 64.38891452157938 17.714088051778219 6.2172464651538721 #
straight-curve $-1 -68.133182775353248 38.837182569093684 0 0 0 -1 I I #
point $-1 -68.133182775353248 -38.837182569093684 -11.06220259266534 #
straight-curve $-1 -68.133182775353248 0 -11.06220259266534 0 1 0 I I #
point $-1 -68.133182775353248 38.837182569093684 -11.06220259266534 #
edge $-1 $472 -11.06220259266534 $466 -1.1920948381439449 $463 $534 forward 7 unknown #
straight-curve $-1 -68.133182775353248 15.596446917052567 1.1920948381439453 0 -1 0 I I #
point $-1 -68.133182775353248 38.837182569093684 1.1920948381439449 #
straight-curve $-1 0 38.837182569093684 11.06220259266534 -1 0 0 I I #
point $-1 -68.133182775353248 38.837182569093684 11.06220259266534 #
point $-1 -60.082120358296983 27.916770090538606 3.082001404035458 #
point $-1 -60.082120358296983 34.46901757767165 3.082001404035458 #
straight-curve $-1 68.133182775353248 -33.878786488157665 99.163454544191922 0 0 -1 I I #
point $-1 68.133182775353248 -33.878786488157665 11.06220259266534 #
straight-curve $-1 68.133182775353248 -12.953239503190646 7.4926051622622296 0 1 0 I I #
point $-1 68.133182775353248 -33.878786488157665 7.4926051622622225 #
point $-1 62.988463991069636 -30.689863495447117 6.4140669711865916 #
point $-1 62.988463991069636 -25.906479006381293 6.4140669711865916 #
point $-1 62.988463991069636 -21.123094517315469 6.4140669711865916 #
straight-curve $-1 68.133182775353248 4.9583960809360228 99.163454544191922 0 0 -1 I I #
point $-1 68.133182775353248 4.9583960809360228 11.06220259266534 #
straight-curve $-1 68.133182775353248 6.4653517813561976 7.4926051622622296 0 1 0 I I #
point $-1 68.133182775353248 4.9583960809360228 7.4926051622622225 #
point $-1 62.988463991069636 8.147319073646571 6.4140669711865916 #
point $-1 62.988463991069636 12.930703562712395 6.4140669711865916 #
point $-1 62.988463991069636 17.714088051778219 6.4140669711865916 #
straight-curve $-1 -68.133182775353248 38.837182569093684 0 0 0 -1 I I #
End-of-ACIS-data 