500 0 8 0           
7 Unknown 11 ACIS 5.0 NT 24 Fri Mar 26 17:06:18 1999 
-1 9.9999999999999995e-007 1e-010 
body $-1 $8 $-1 $9 #
body $-1 $10 $-1 $11 #
body $-1 $12 $-1 $13 #
body $-1 $14 $-1 $15 #
body $-1 $16 $-1 $17 #
body $-1 $18 $-1 $19 #
body $-1 $20 $-1 $21 #
body $-1 $22 $-1 $23 #
lump $-1 $-1 $24 $0 #
transform $-1 1 0 0 0 1 0 0 0 1 62.659382915738391 26.809465335971485 5.9961500186529326 1 rotate no_reflect no_shear #
lump $-1 $-1 $25 $1 #
transform $-1 1 0 0 0 1 0 0 0 1 62.659382915738391 26.809465335971485 5.9961500186529326 1 rotate no_reflect no_shear #
lump $-1 $-1 $26 $2 #
transform $-1 1 0 0 0 1 0 0 0 1 62.659382915738391 26.809465335971485 5.9961500186529326 1 rotate no_reflect no_shear #
lump $-1 $-1 $27 $3 #
transform $-1 1 0 0 0 1 0 0 0 1 62.659382915738391 26.809465335971485 5.9961500186529326 1 rotate no_reflect no_shear #
lump $-1 $-1 $28 $4 #
transform $-1 1 0 0 0 1 0 0 0 1 62.659382915738391 26.809465335971485 5.9961500186529326 1 rotate no_reflect no_shear #
lump $-1 $-1 $29 $5 #
transform $-1 1 0 0 0 1 0 0 0 1 62.659382915738391 26.809465335971485 5.9961500186529326 1 rotate no_reflect no_shear #
lump $-1 $-1 $30 $6 #
transform $-1 1 0 0 0 1 0 0 0 1 62.659382915738391 26.809465335971485 5.9961500186529326 1 rotate no_reflect no_shear #
lump $-1 $-1 $31 $7 #
transform $-1 1 0 0 0 1 0 0 0 1 62.659382915738391 26.809465335971485 5.9961500186529326 1 rotate no_reflect no_shear #
shell $-1 $-1 $-1 $32 $-1 $8 #
shell $-1 $-1 $-1 $33 $-1 $10 #
shell $-1 $-1 $-1 $34 $-1 $12 #
shell $-1 $-1 $-1 $35 $-1 $14 #
shell $-1 $-1 $-1 $36 $-1 $16 #
shell $-1 $-1 $-1 $37 $-1 $18 #
shell $-1 $-1 $-1 $38 $-1 $20 #
shell $-1 $-1 $-1 $39 $-1 $22 #
face $-1 $40 $41 $24 $-1 $42 forward single #
face $-1 $43 $44 $25 $-1 $45 forward single #
face $-1 $46 $47 $26 $-1 $48 reversed single #
face $-1 $49 $50 $27 $-1 $51 forward single #
face $-1 $52 $53 $28 $-1 $54 forward single #
face $-1 $55 $56 $29 $-1 $57 reversed single #
face $-1 $58 $59 $30 $-1 $60 forward single #
face $-1 $61 $62 $31 $-1 $63 forward single #
face $-1 $64 $65 $24 $-1 $66 reversed single #
loop $-1 $-1 $67 $32 #
plane-surface $-1 0 0 5.9961500186529326 0 0 1 1 0 0 forward_v I I I I #
face $-1 $68 $69 $25 $-1 $70 reversed single #
loop $-1 $-1 $71 $33 #
plane-surface $-1 0 -26.809465335971485 0 0 1 0 0 0 1 forward_v I I I I #
face $-1 $72 $73 $26 $-1 $74 reversed single #
loop $-1 $-1 $75 $34 #
plane-surface $-1 65.752431348879199 20.516397004058994 178.50313182999605 0 1 0 0.71933980857756763 0 0.69465836192734942 forward_v I I I I #
face $-1 $76 $77 $27 $-1 $78 forward single #
loop $-1 $79 $80 $35 #
cone-surface $-1 60.005667738283336 22.314416527462566 3.2752092143146259 -0.71933980857756763 0 -0.69465836192734942 0.34732918096367471 0 -0.35966990428878381 1 I I 0 1 0.5 forward I I I I #
face $-1 $81 $82 $28 $-1 $83 forward single #
loop $-1 $84 $85 $36 #
cone-surface $-1 60.005667738283336 25.011445812567917 3.2752092143146259 -0.71933980857756763 0 -0.69465836192734942 0.34732918096367471 0 -0.35966990428878381 1 I I 0 1 0.5 forward I I I I #
face $-1 $86 $87 $29 $-1 $88 reversed single #
loop $-1 $-1 $89 $37 #
plane-surface $-1 -160.05035671349094 -0.55175476542784274 81.072236044279265 0 1 0 -0.77714596973225614 0 0.62932038083071107 forward_v I I I I #
face $-1 $90 $91 $30 $-1 $92 forward single #
loop $-1 $93 $94 $38 #
cone-surface $-1 -60.736444380376724 2.0552964990278149 3.7867061219008966 0.77714596973225614 0 -0.62932038083071107 0.31466019041535553 0 0.38857298486612807 1 I I 0 1 0.5 forward I I I I #
face $-1 $95 $96 $31 $-1 $97 forward single #
loop $-1 $98 $99 $39 #
cone-surface $-1 -60.736444380376724 5.9658733957113022 3.7867061219008966 0.77714596973225614 0 -0.62932038083071107 0.31466019041535553 0 0.38857298486612807 1 I I 0 1 0.5 forward I I I I #
face $-1 $100 $101 $24 $-1 $102 reversed single #
loop $-1 $-1 $103 $40 #
plane-surface $-1 0 0 -5.9961500186529326 0 0 1 1 0 0 forward_v I I I I #
coedge $-1 $104 $105 $106 $107 forward $41 $-1 #
face $-1 $108 $109 $25 $-1 $110 reversed single #
loop $-1 $-1 $111 $43 #
plane-surface $-1 0 0 -5.9961500186529326 0 0 1 1 0 0 forward_v I I I I #
coedge $-1 $112 $113 $114 $115 forward $44 $-1 #
face $-1 $116 $117 $26 $-1 $118 forward single #
loop $-1 $-1 $119 $46 #
plane-surface $-1 -24.394345675512341 23.662931170015238 91.44940323874529 0.71933980857756763 0 0.69465836192734942 0.69465836192734942 0 -0.71933980857756763 forward_v I I I I #
coedge $-1 $120 $121 $122 $123 reversed $47 $-1 #
face $-1 $-1 $124 $27 $-1 $125 forward single #
loop $-1 $126 $127 $49 #
cone-surface $-1 59.438359180944872 22.314416527462566 2.7273657216440705 -0.71933980857756763 0 -0.69465836192734942 0.17366459048183736 0 -0.17983495214439191 1 I I -0.70710678118654746 0.70710678118654746 0.25 forward I I I I #
loop $-1 $-1 $128 $35 #
coedge $-1 $80 $80 $129 $130 reversed $50 $-1 #
face $-1 $-1 $131 $28 $-1 $132 forward single #
loop $-1 $133 $134 $52 #
cone-surface $-1 59.438359180944872 25.011445812567917 2.7273657216440705 -0.71933980857756763 0 -0.69465836192734942 0.17366459048183736 0 -0.17983495214439191 1 I I -0.70710678118654746 0.70710678118654746 0.25 forward I I I I #
loop $-1 $-1 $135 $36 #
coedge $-1 $85 $85 $136 $137 reversed $53 $-1 #
face $-1 $138 $139 $29 $-1 $140 reversed single #
loop $-1 $-1 $141 $55 #
plane-surface $-1 -62.659382915738391 4.0105849473695621 2.206582605979591 -0.77714596973225614 0 0.62932038083071107 0.62932038083071107 0 0.77714596973225614 forward_v I I I I #
coedge $-1 $142 $143 $144 $145 reversed $56 $-1 #
face $-1 $-1 $146 $30 $-1 $147 forward single #
loop $-1 $148 $149 $58 #
cone-surface $-1 -60.15358490307753 2.0552964990278149 3.3147158362778635 0.77714596973225614 0 -0.62932038083071107 0.15733009520767777 0 0.19428649243306403 1 I I -0.70710678118654746 0.70710678118654746 0.25 forward I I I I #
loop $-1 $-1 $150 $38 #
coedge $-1 $94 $94 $151 $152 reversed $59 $-1 #
face $-1 $-1 $153 $31 $-1 $154 forward single #
loop $-1 $155 $156 $61 #
cone-surface $-1 -60.15358490307753 5.9658733957113022 3.3147158362778635 0.77714596973225614 0 -0.62932038083071107 0.15733009520767777 0 0.19428649243306403 1 I I -0.70710678118654746 0.70710678118654746 0.25 forward I I I I #
loop $-1 $-1 $157 $39 #
coedge $-1 $99 $99 $158 $159 reversed $62 $-1 #
face $-1 $160 $161 $24 $-1 $162 reversed single #
loop $-1 $-1 $163 $64 #
plane-surface $-1 0 -26.809465335971485 0 0 1 0 0 0 1 forward_v I I I I #
coedge $-1 $164 $165 $166 $167 forward $65 $-1 #
coedge $-1 $168 $67 $169 $170 forward $41 $-1 #
coedge $-1 $67 $168 $171 $172 forward $41 $-1 #
coedge $-1 $173 $174 $67 $107 reversed $175 $-1 #
edge $-1 $176 -26.809465335971485 $177 26.809465335971485 $106 $178 forward 7 unknown #
face $-1 $179 $180 $25 $-1 $181 forward single #
loop $-1 $-1 $182 $68 #
plane-surface $-1 62.659382915738391 0 0 -1 0 0 0 0 1 forward_v I I I I #
coedge $-1 $183 $184 $185 $186 forward $69 $-1 #
coedge $-1 $185 $71 $182 $187 reversed $44 $-1 #
coedge $-1 $71 $185 $188 $189 reversed $44 $-1 #
coedge $-1 $190 $191 $71 $115 reversed $180 $-1 #
edge $-1 $192 -62.659382915738391 $193 62.659382915738391 $114 $194 forward 7 unknown #
face $-1 $195 $196 $26 $-1 $197 reversed single #
loop $-1 $-1 $198 $72 #
plane-surface $-1 0 0 5.9961500186529326 0 0 1 1 0 0 forward_v I I I I #
coedge $-1 $199 $200 $201 $202 reversed $73 $-1 #
coedge $-1 $121 $75 $203 $204 reversed $47 $-1 #
coedge $-1 $75 $120 $199 $205 reversed $47 $-1 #
coedge $-1 $201 $206 $75 $123 forward $207 $-1 #
edge $-1 $208 83.255415896345099 $209 87.948939700644246 $122 $210 forward 7 unknown #
loop $-1 $-1 $129 $76 #
plane-surface $-1 -24.394345675512341 23.662931170015238 91.44940323874529 0.71933980857756763 0 0.69465836192734942 0.69465836192734942 0 -0.71933980857756763 forward_v I I I I #
loop $-1 $-1 $211 $49 #
coedge $-1 $127 $127 $128 $212 reversed $77 $-1 #
coedge $-1 $128 $128 $127 $212 forward $79 $-1 #
coedge $-1 $129 $129 $80 $130 forward $124 $-1 #
edge $-1 $213 0 $213 6.2831853071796004 $129 $214 forward 7 unknown #
loop $-1 $-1 $136 $81 #
plane-surface $-1 -24.394345675512341 23.662931170015238 91.44940323874529 0.71933980857756763 0 0.69465836192734942 0.69465836192734942 0 -0.71933980857756763 forward_v I I I I #
loop $-1 $-1 $215 $52 #
coedge $-1 $134 $134 $135 $216 reversed $82 $-1 #
coedge $-1 $135 $135 $134 $216 forward $84 $-1 #
coedge $-1 $136 $136 $85 $137 forward $131 $-1 #
edge $-1 $217 0 $217 6.2831853071796004 $136 $218 forward 7 unknown #
face $-1 $219 $220 $29 $-1 $221 reversed single #
loop $-1 $-1 $222 $86 #
plane-surface $-1 -160.05035671349094 8.5729246601669669 81.072236044279265 0 -1 0 0.77714596973225614 0 -0.62932038083071107 forward_v I I I I #
coedge $-1 $223 $224 $225 $226 reversed $87 $-1 #
coedge $-1 $143 $89 $227 $228 reversed $56 $-1 #
coedge $-1 $89 $142 $223 $229 reversed $56 $-1 #
coedge $-1 $225 $230 $89 $145 forward $231 $-1 #
edge $-1 $232 17.36579544100708 $233 20.434526541998153 $144 $234 forward 7 unknown #
loop $-1 $-1 $151 $90 #
plane-surface $-1 -62.659382915738391 4.0105849473695621 2.206582605979591 -0.77714596973225614 0 0.62932038083071107 0.62932038083071107 0 0.77714596973225614 forward_v I I I I #
loop $-1 $-1 $235 $58 #
coedge $-1 $149 $149 $150 $236 reversed $91 $-1 #
coedge $-1 $150 $150 $149 $236 forward $93 $-1 #
coedge $-1 $151 $151 $94 $152 forward $146 $-1 #
edge $-1 $237 0 $237 6.2831853071796004 $151 $238 forward 7 unknown #
loop $-1 $-1 $158 $95 #
plane-surface $-1 -62.659382915738391 4.0105849473695621 2.206582605979591 -0.77714596973225614 0 0.62932038083071107 0.62932038083071107 0 0.77714596973225614 forward_v I I I I #
loop $-1 $-1 $239 $61 #
coedge $-1 $156 $156 $157 $240 reversed $96 $-1 #
coedge $-1 $157 $157 $156 $240 forward $98 $-1 #
coedge $-1 $158 $158 $99 $159 forward $153 $-1 #
edge $-1 $241 0 $241 6.2831853071796004 $158 $242 forward 7 unknown #
face $-1 $243 $244 $24 $-1 $245 reversed single #
loop $-1 $-1 $246 $100 #
plane-surface $-1 -62.659382915738391 0 0 1 0 0 0 0 -1 forward_v I I I I #
coedge $-1 $247 $171 $248 $249 forward $101 $-1 #
coedge $-1 $250 $103 $247 $251 forward $65 $-1 #
coedge $-1 $103 $250 $252 $253 forward $65 $-1 #
coedge $-1 $174 $173 $103 $167 reversed $175 $-1 #
edge $-1 $254 -26.809465335971485 $255 26.809465335971485 $166 $256 forward 7 unknown #
coedge $-1 $105 $104 $257 $258 forward $41 $-1 #
coedge $-1 $259 $260 $104 $170 reversed $244 $-1 #
edge $-1 $177 -62.659382915738391 $261 62.659382915738391 $169 $262 forward 7 unknown #
coedge $-1 $163 $263 $105 $172 reversed $101 $-1 #
edge $-1 $264 -62.659382915738391 $176 62.659382915738391 $171 $265 forward 7 unknown #
coedge $-1 $166 $106 $263 $266 forward $175 $-1 #
coedge $-1 $106 $166 $259 $267 reversed $175 $-1 #
loop $-1 $-1 $173 $243 #
vertex $-1 $107 $268 #
vertex $-1 $107 $269 #
straight-curve $-1 62.659382915738391 0 5.9961500186529326 0 1 0 I I #
face $-1 $270 $271 $25 $-1 $272 reversed single #
loop $-1 $-1 $191 $108 #
plane-surface $-1 0 -30.292577588711779 -2.4917135262302255 0 0 1 1 0 0 forward_v I I I I #
coedge $-1 $273 $274 $112 $187 forward $109 $-1 #
coedge $-1 $275 $111 $274 $276 forward $69 $-1 #
coedge $-1 $111 $275 $277 $278 forward $69 $-1 #
coedge $-1 $113 $112 $111 $186 reversed $44 $-1 #
edge $-1 $279 -62.659382915738391 $280 62.659382915738391 $111 $281 forward 7 unknown #
edge $-1 $280 -5.9961500186529326 $193 -2.4917135262302255 $182 $282 forward 7 unknown #
coedge $-1 $277 $283 $113 $189 forward $284 $-1 #
edge $-1 $192 2.4917135262302255 $279 5.9961500186529326 $188 $285 forward 7 unknown #
coedge $-1 $286 $114 $283 $287 forward $180 $-1 #
coedge $-1 $114 $286 $273 $288 forward $180 $-1 #
vertex $-1 $189 $289 #
vertex $-1 $288 $290 #
straight-curve $-1 0 -26.809465335971485 -2.4917135262302255 1 0 0 I I #
face $-1 $-1 $207 $26 $-1 $291 reversed single #
loop $-1 $-1 $292 $116 #
plane-surface $-1 0 26.809465335971485 0 0 -1 0 0 0 -1 forward_v I I I I #
coedge $-1 $203 $293 $294 $295 forward $117 $-1 #
coedge $-1 $294 $119 $121 $205 forward $73 $-1 #
coedge $-1 $119 $294 $292 $296 reversed $73 $-1 #
coedge $-1 $297 $122 $119 $202 forward $207 $-1 #
edge $-1 $209 8.6849314190513756 $298 14.977999750963866 $201 $299 forward 7 unknown #
coedge $-1 $300 $198 $120 $204 forward $117 $-1 #
edge $-1 $301 25.250684096776844 $208 29.783167241298791 $203 $302 forward 7 unknown #
edge $-1 $209 -125.31876583147677 $301 -118.79399999990102 $121 $303 forward 7 unknown #
coedge $-1 $122 $297 $300 $304 reversed $207 $-1 #
loop $-1 $-1 $201 $195 #
vertex $-1 $304 $305 #
vertex $-1 $123 $306 #
straight-curve $-1 62.659382915738391 20.516397004058994 89.251565914998025 0 0 -1 I I #
coedge $-1 $211 $211 $-1 $307 reversed $126 $-1 #
edge $-1 $308 0 $308 6.2831853071796004 $127 $309 forward 7 unknown #
vertex $-1 $130 $310 #
ellipse-curve $-1 60.393141343477417 22.314416527462566 3.6493881165033528 0.71933980857756763 0 0.69465836192734942 0.34732918096367471 0 -0.35966990428878381 1 I I #
coedge $-1 $215 $215 $-1 $311 reversed $133 $-1 #
edge $-1 $312 0 $312 6.2831853071796004 $134 $313 forward 7 unknown #
vertex $-1 $137 $314 #
ellipse-curve $-1 60.393141343477417 25.011445812567917 3.6493881165033528 0.71933980857756763 0 0.69465836192734942 0.34732918096367471 0 -0.35966990428878381 1 I I #
face $-1 $-1 $231 $29 $-1 $315 forward single #
loop $-1 $-1 $316 $138 #
plane-surface $-1 -62.659382915738391 0 0 1 0 0 0 0 -1 forward_v I I I I #
coedge $-1 $317 $318 $319 $320 reversed $139 $-1 #
coedge $-1 $321 $141 $143 $229 forward $87 $-1 #
coedge $-1 $141 $321 $317 $322 forward $87 $-1 #
coedge $-1 $319 $144 $141 $226 forward $231 $-1 #
edge $-1 $233 -2.5570472391126238 $323 6.5676321864821858 $225 $324 forward 7 unknown #
coedge $-1 $325 $326 $142 $228 forward $220 $-1 #
edge $-1 $327 -38.329535416160041 $232 -34.539968003486699 $227 $328 forward 7 unknown #
edge $-1 $233 -4.8762620669305301 $327 0 $143 $329 forward 7 unknown #
coedge $-1 $144 $319 $325 $330 forward $231 $-1 #
loop $-1 $-1 $319 $219 #
vertex $-1 $228 $331 #
vertex $-1 $145 $332 #
straight-curve $-1 -80.025178356745471 -0.55175476542784274 5.9961500186529335 1 0 0 I I #
coedge $-1 $235 $235 $-1 $333 reversed $148 $-1 #
edge $-1 $334 0 $334 6.2831853071796004 $149 $335 forward 7 unknown #
vertex $-1 $152 $336 #
ellipse-curve $-1 -61.125017365242861 2.0552964990278149 4.1013663123162569 -0.77714596973225614 0 0.62932038083071107 0.31466019041535553 0 0.38857298486612807 1 I I #
coedge $-1 $239 $239 $-1 $337 reversed $155 $-1 #
edge $-1 $338 0 $338 6.2831853071796004 $156 $339 forward 7 unknown #
vertex $-1 $159 $340 #
ellipse-curve $-1 -61.125017365242861 5.9658733957113022 4.1013663123162569 -0.77714596973225614 0 0.62932038083071107 0.31466019041535553 0 0.38857298486612807 1 I I #
face $-1 $-1 $175 $24 $-1 $341 reversed single #
loop $-1 $-1 $259 $160 #
plane-surface $-1 0 26.809465335971485 0 0 -1 0 0 0 -1 forward_v I I I I #
coedge $-1 $342 $257 $260 $343 forward $161 $-1 #
coedge $-1 $263 $163 $164 $251 reversed $101 $-1 #
coedge $-1 $257 $342 $163 $249 reversed $161 $-1 #
edge $-1 $264 -5.9961500186529326 $344 5.9961500186529326 $248 $345 forward 7 unknown #
coedge $-1 $165 $164 $342 $346 forward $65 $-1 #
edge $-1 $255 -62.659382915738391 $344 62.659382915738391 $247 $347 forward 7 unknown #
coedge $-1 $260 $259 $165 $253 reversed $244 $-1 #
edge $-1 $348 -62.659382915738391 $254 62.659382915738391 $252 $349 forward 7 unknown #
vertex $-1 $167 $350 #
vertex $-1 $266 $351 #
straight-curve $-1 62.659382915738391 0 -5.9961500186529326 0 -1 0 I I #
coedge $-1 $246 $248 $168 $258 reversed $161 $-1 #
edge $-1 $261 -26.809465335971485 $264 26.809465335971485 $257 $352 forward 7 unknown #
coedge $-1 $252 $169 $174 $267 forward $244 $-1 #
coedge $-1 $169 $252 $246 $343 reversed $244 $-1 #
vertex $-1 $170 $353 #
straight-curve $-1 0 26.809465335971485 5.9961500186529326 -1 0 0 I I #
coedge $-1 $171 $247 $173 $266 reversed $101 $-1 #
vertex $-1 $258 $354 #
straight-curve $-1 0 -26.809465335971485 5.9961500186529326 1 0 0 I I #
edge $-1 $176 -5.9961500186529326 $255 5.9961500186529326 $173 $355 forward 7 unknown #
edge $-1 $177 -5.9961500186529326 $254 5.9961500186529326 $174 $356 forward 7 unknown #
point $-1 62.659382915738391 -26.809465335971485 5.9961500186529326 #
point $-1 62.659382915738391 26.809465335971485 5.9961500186529326 #
face $-1 $-1 $284 $25 $-1 $357 reversed single #
loop $-1 $-1 $358 $179 #
plane-surface $-1 0 -33.775689841452078 -4.243931772441579 0 1 0 0 0 1 forward_v I I I I #
coedge $-1 $359 $182 $191 $288 reversed $109 $-1 #
coedge $-1 $182 $359 $183 $276 reversed $109 $-1 #
coedge $-1 $184 $183 $360 $361 forward $69 $-1 #
edge $-1 $280 26.809465335971485 $362 33.775689841452078 $274 $363 forward 7 unknown #
coedge $-1 $364 $188 $184 $278 reversed $284 $-1 #
edge $-1 $365 -33.775689841452078 $279 -26.809465335971485 $277 $366 forward 7 unknown #
vertex $-1 $189 $367 #
vertex $-1 $276 $368 #
straight-curve $-1 0 -26.809465335971485 -5.9961500186529326 1 0 0 I I #
straight-curve $-1 62.659382915738391 -26.809465335971485 0 0 0 1 I I #
coedge $-1 $188 $364 $190 $287 reversed $284 $-1 #
loop $-1 $-1 $188 $270 #
straight-curve $-1 -62.659382915738391 -26.809465335971485 0 0 0 -1 I I #
coedge $-1 $191 $190 $369 $370 forward $180 $-1 #
edge $-1 $192 -3.4831122527402947 $371 3.4831122527402982 $283 $372 forward 7 unknown #
edge $-1 $373 -3.4831122527402982 $193 3.4831122527402947 $273 $374 forward 7 unknown #
point $-1 -62.659382915738391 -26.809465335971485 -2.4917135262302255 #
point $-1 62.659382915738391 -26.809465335971485 -2.4917135262302255 #
plane-surface $-1 62.659382915738391 0 0 -1 0 0 0 0 1 forward_v I I I I #
coedge $-1 $375 $376 $200 $296 forward $196 $-1 #
coedge $-1 $198 $300 $375 $377 forward $117 $-1 #
coedge $-1 $200 $199 $198 $295 reversed $73 $-1 #
edge $-1 $378 -14.977999750963862 $301 -8.6849314190513756 $198 $379 forward 7 unknown #
edge $-1 $298 -83.954299617710376 $378 -77.429533786134641 $292 $380 forward 7 unknown #
coedge $-1 $206 $201 $376 $381 reversed $207 $-1 #
vertex $-1 $202 $382 #
straight-curve $-1 62.659382915738391 11.831465585007619 1.3026262143537721 0 1 0 I I #
coedge $-1 $293 $203 $206 $304 forward $117 $-1 #
vertex $-1 $204 $383 #
straight-curve $-1 32.876215674439599 20.516397004058994 5.9961500186529264 1 0 0 I I #
straight-curve $-1 -24.394345675512341 20.516397004058994 91.44940323874529 -0.69465836192734942 0 0.71933980857756763 I I #
edge $-1 $208 20.516397004058994 $384 26.809465335971485 $206 $385 forward 7 unknown #
point $-1 62.659382915738391 20.516397004058994 5.9961500186529326 #
point $-1 62.659382915738391 20.516397004058994 1.3026262143537792 #
edge $-1 $386 1 $386 0 $211 $-1 forward 7 unknown #
vertex $-1 $212 $387 #
ellipse-curve $-1 59.618194133089261 22.314416527462566 2.9010303121259078 0.71933980857756763 0 0.69465836192734942 0.34732918096367471 0 -0.35966990428878381 1 I I #
point $-1 60.740470524441079 22.314416527462566 3.2897182122145594 #
edge $-1 $388 1 $388 0 $215 $-1 forward 7 unknown #
vertex $-1 $216 $389 #
ellipse-curve $-1 59.618194133089261 25.011445812567917 2.9010303121259078 0.71933980857756763 0 0.69465836192734942 0.34732918096367471 0 -0.35966990428878381 1 I I #
point $-1 60.740470524441079 25.011445812567917 3.2897182122145594 #
plane-surface $-1 0 0 5.9961500186529326 0 0 1 1 0 0 forward_v I I I I #
coedge $-1 $326 $325 $318 $390 forward $220 $-1 #
coedge $-1 $318 $222 $224 $322 reversed $139 $-1 #
coedge $-1 $222 $317 $316 $390 reversed $139 $-1 #
coedge $-1 $230 $225 $222 $320 forward $231 $-1 #
edge $-1 $323 -20.434526541998153 $391 -17.36579544100708 $319 $392 forward 7 unknown #
coedge $-1 $224 $223 $326 $393 reversed $87 $-1 #
edge $-1 $394 0 $323 4.8762620669305301 $317 $395 forward 7 unknown #
vertex $-1 $226 $396 #
straight-curve $-1 -59.590651814747318 2.005292473684781 5.9961500186529335 0 1 0 I I #
coedge $-1 $316 $227 $230 $330 reversed $220 $-1 #
coedge $-1 $227 $316 $321 $393 forward $220 $-1 #
vertex $-1 $228 $397 #
straight-curve $-1 -62.659382915738391 -0.55175476542784274 40.536118022139632 0 0 1 I I #
straight-curve $-1 -62.659382915738391 -0.55175476542784274 2.206582605979591 -0.62932038083071107 0 -0.77714596973225614 I I #
edge $-1 $391 -8.5729246601669669 $232 0.55175476542784274 $325 $398 forward 7 unknown #
point $-1 -62.659382915738391 -0.55175476542784274 5.9961500186529326 #
point $-1 -59.590651814747318 -0.55175476542784274 5.9961500186529326 #
edge $-1 $399 1 $399 0 $235 $-1 forward 7 unknown #
vertex $-1 $236 $400 #
ellipse-curve $-1 -60.347871395510595 2.0552964990278149 3.4720459314855412 -0.77714596973225614 0 0.62932038083071107 0.31466019041535553 0 0.38857298486612807 1 I I #
point $-1 -60.810357174827494 2.0552964990278149 4.4899392971823806 #
edge $-1 $401 1 $401 0 $239 $-1 forward 7 unknown #
vertex $-1 $240 $402 #
ellipse-curve $-1 -60.347871395510595 5.9658733957113022 3.4720459314855412 -0.77714596973225614 0 0.62932038083071107 0.31466019041535553 0 0.38857298486612807 1 I I #
point $-1 -60.810357174827494 5.9658733957113022 4.4899392971823806 #
plane-surface $-1 62.659382915738391 0 0 -1 0 0 0 0 1 forward_v I I I I #
coedge $-1 $248 $246 $250 $346 reversed $161 $-1 #
edge $-1 $261 -5.9961500186529326 $348 5.9961500186529326 $260 $403 forward 7 unknown #
vertex $-1 $346 $404 #
straight-curve $-1 -62.659382915738391 -26.809465335971485 0 0 0 -1 I I #
edge $-1 $344 -26.809465335971485 $348 26.809465335971485 $342 $405 forward 7 unknown #
straight-curve $-1 0 -26.809465335971485 -5.9961500186529326 -1 0 0 I I #
vertex $-1 $253 $406 #
straight-curve $-1 0 26.809465335971485 -5.9961500186529326 1 0 0 I I #
point $-1 62.659382915738391 26.809465335971485 -5.9961500186529326 #
point $-1 62.659382915738391 -26.809465335971485 -5.9961500186529326 #
straight-curve $-1 -62.659382915738391 0 5.9961500186529326 0 -1 0 I I #
point $-1 -62.659382915738391 26.809465335971485 5.9961500186529326 #
point $-1 -62.659382915738391 -26.809465335971485 5.9961500186529326 #
straight-curve $-1 62.659382915738391 -26.809465335971485 0 0 0 -1 I I #
straight-curve $-1 62.659382915738391 26.809465335971485 0 0 0 -1 I I #
plane-surface $-1 -62.659382915738391 0 0 1 0 0 0 0 -1 forward_v I I I I #
coedge $-1 $360 $369 $364 $407 forward $271 $-1 #
coedge $-1 $274 $273 $408 $409 forward $109 $-1 #
coedge $-1 $408 $358 $275 $361 reversed $271 $-1 #
edge $-1 $362 -62.659382915738391 $365 62.659382915738391 $360 $410 forward 7 unknown #
vertex $-1 $409 $411 #
straight-curve $-1 62.659382915738391 0 -5.9961500186529326 0 -1 0 I I #
coedge $-1 $283 $277 $358 $407 reversed $284 $-1 #
vertex $-1 $278 $412 #
straight-curve $-1 -62.659382915738391 0 -5.9961500186529326 0 1 0 I I #
point $-1 -62.659382915738391 -26.809465335971485 -5.9961500186529326 #
point $-1 62.659382915738391 -26.809465335971485 -5.9961500186529326 #
coedge $-1 $358 $408 $286 $370 reversed $271 $-1 #
edge $-1 $371 -62.659382915738391 $373 62.659382915738391 $369 $413 forward 7 unknown #
vertex $-1 $287 $414 #
straight-curve $-1 -62.659382915738391 -30.292577588711779 -2.4917135262302255 0 -1 0 I I #
vertex $-1 $288 $415 #
straight-curve $-1 62.659382915738391 -30.292577588711779 -2.4917135262302255 0 1 0 I I #
coedge $-1 $376 $292 $293 $377 reversed $196 $-1 #
coedge $-1 $292 $375 $297 $381 forward $196 $-1 #
edge $-1 $384 -62.659382915738391 $378 -58.126899771216443 $375 $416 forward 7 unknown #
vertex $-1 $295 $417 #
straight-curve $-1 58.126899771216429 11.831465585007619 5.9961500186529406 0 -1 0 I I #
straight-curve $-1 4.3398266665417964 26.809465335971485 61.694296030621317 -0.69465836192734942 0 0.71933980857756763 I I #
edge $-1 $384 -5.9961500186529326 $298 -1.3026262143537743 $297 $418 forward 7 unknown #
point $-1 62.659382915738391 26.809465335971485 1.3026262143537743 #
point $-1 58.126899771216443 20.516397004058994 5.9961500186529264 #
vertex $-1 $304 $419 #
straight-curve $-1 62.659382915738391 0 5.9961500186529326 0 1 0 I I #
vertex $-1 $307 $420 #
point $-1 59.965523314052938 22.314416527462566 2.5413604078371241 #
vertex $-1 $311 $421 #
point $-1 59.965523314052938 25.011445812567917 2.5413604078371241 #
edge $-1 $391 34.539968003486699 $394 38.329535416160041 $316 $422 forward 7 unknown #
vertex $-1 $330 $423 #
straight-curve $-1 -80.025178356745471 8.5729246601669669 5.9961500186529335 -1 0 0 I I #
edge $-1 $394 -6.5676321864821858 $327 2.5570472391126238 $326 $424 forward 7 unknown #
vertex $-1 $393 $425 #
straight-curve $-1 -62.659382915738391 8.5729246601669669 2.206582605979591 0.62932038083071107 0 0.77714596973225614 I I #
point $-1 -59.590651814747318 8.5729246601669669 5.9961500186529326 #
point $-1 -62.659382915738391 -0.55175476542784274 2.206582605979591 #
straight-curve $-1 -62.659382915738391 0 5.9961500186529326 0 -1 0 I I #
vertex $-1 $333 $426 #
point $-1 -60.033211205095235 2.0552964990278149 3.8606189163516693 #
vertex $-1 $337 $427 #
point $-1 -60.033211205095235 5.9658733957113022 3.8606189163516693 #
straight-curve $-1 -62.659382915738391 26.809465335971485 0 0 0 -1 I I #
point $-1 -62.659382915738391 -26.809465335971485 -5.9961500186529326 #
straight-curve $-1 -62.659382915738391 0 -5.9961500186529326 0 1 0 I I #
point $-1 -62.659382915738391 26.809465335971485 -5.9961500186529326 #
edge $-1 $371 -1.7522182462113536 $365 1.7522182462113536 $364 $428 forward 7 unknown #
coedge $-1 $369 $360 $359 $409 reversed $271 $-1 #
edge $-1 $373 -1.7522182462113536 $362 1.7522182462113536 $359 $429 forward 7 unknown #
straight-curve $-1 0 -33.775689841452078 -5.9961500186529326 -1 0 0 I I #
point $-1 62.659382915738391 -33.775689841452078 -5.9961500186529326 #
point $-1 -62.659382915738391 -33.775689841452078 -5.9961500186529326 #
straight-curve $-1 0 -33.775689841452078 -2.4917135262302255 1 0 0 I I #
point $-1 -62.659382915738391 -33.775689841452078 -2.4917135262302255 #
point $-1 62.659382915738391 -33.775689841452078 -2.4917135262302255 #
straight-curve $-1 0 26.809465335971485 5.9961500186529326 -1 0 0 I I #
point $-1 58.126899771216443 26.809465335971481 5.9961500186529264 #
straight-curve $-1 62.659382915738391 26.809465335971485 0 0 0 -1 I I #
point $-1 62.659382915738391 26.809465335971485 5.9961500186529326 #
point $-1 59.258524228800482 22.314416527462566 2.5537011311622333 #
point $-1 59.258524228800482 25.011445812567917 2.5537011311622333 #
straight-curve $-1 -62.659382915738391 8.5729246601669669 40.536118022139632 0 0 -1 I I #
point $-1 -62.659382915738391 8.5729246601669669 5.9961500186529326 #
straight-curve $-1 -62.659382915738391 2.005292473684781 2.2065826059795906 0 -1 0 I I #
point $-1 -62.659382915738391 8.5729246601669669 2.206582605979591 #
point $-1 -59.959298410644465 2.0552964990278149 3.1573857410701858 #
point $-1 -59.959298410644465 5.9658733957113022 3.1573857410701858 #
straight-curve $-1 -62.659382915738391 -33.775689841452078 -4.243931772441579 0 0 -1 I I #
straight-curve $-1 62.659382915738391 -33.775689841452078 -4.243931772441579 0 0 -1 I I #
End-of-ACIS-data 