500 0 8 0           
7 Unknown 11 ACIS 5.0 NT 24 Fri Mar 26 02:26:38 1999 
-1 9.9999999999999995e-007 1e-010 
body $-1 $8 $-1 $9 #
body $-1 $10 $-1 $11 #
body $-1 $12 $-1 $13 #
body $-1 $14 $-1 $15 #
body $-1 $16 $-1 $17 #
body $-1 $18 $-1 $19 #
body $-1 $20 $-1 $21 #
body $-1 $22 $-1 $23 #
lump $-1 $-1 $24 $0 #
transform $-1 1 0 0 0 1 0 0 0 1 76.190069277016505 32.097859838273841 14.255712895303672 1 rotate no_reflect no_shear #
lump $-1 $-1 $25 $1 #
transform $-1 1 0 0 0 1 0 0 0 1 76.190069277016505 32.097859838273841 14.255712895303672 1 rotate no_reflect no_shear #
lump $-1 $-1 $26 $2 #
transform $-1 1 0 0 0 1 0 0 0 1 76.190069277016505 32.097859838273841 14.255712895303672 1 rotate no_reflect no_shear #
lump $-1 $-1 $27 $3 #
transform $-1 1 0 0 0 1 0 0 0 1 76.190069277016505 32.097859838273841 14.255712895303672 1 rotate no_reflect no_shear #
lump $-1 $-1 $28 $4 #
transform $-1 1 0 0 0 1 0 0 0 1 76.190069277016505 32.097859838273841 14.255712895303672 1 rotate no_reflect no_shear #
lump $-1 $-1 $29 $5 #
transform $-1 1 0 0 0 1 0 0 0 1 76.190069277016505 32.097859838273841 14.255712895303672 1 rotate no_reflect no_shear #
lump $-1 $-1 $30 $6 #
transform $-1 1 0 0 0 1 0 0 0 1 76.190069277016505 32.097859838273841 14.255712895303672 1 rotate no_reflect no_shear #
lump $-1 $-1 $31 $7 #
transform $-1 1 0 0 0 1 0 0 0 1 76.190069277016505 32.097859838273841 14.255712895303672 1 rotate no_reflect no_shear #
shell $-1 $-1 $-1 $32 $-1 $8 #
shell $-1 $-1 $-1 $33 $-1 $10 #
shell $-1 $-1 $-1 $34 $-1 $12 #
shell $-1 $-1 $-1 $35 $-1 $14 #
shell $-1 $-1 $-1 $36 $-1 $16 #
shell $-1 $-1 $-1 $37 $-1 $18 #
shell $-1 $-1 $-1 $38 $-1 $20 #
shell $-1 $-1 $-1 $39 $-1 $22 #
face $-1 $40 $41 $24 $-1 $42 forward single #
face $-1 $43 $44 $25 $-1 $45 forward single #
face $-1 $46 $47 $26 $-1 $48 reversed single #
face $-1 $49 $50 $27 $-1 $51 forward single #
face $-1 $52 $53 $28 $-1 $54 forward single #
face $-1 $55 $56 $29 $-1 $57 forward single #
face $-1 $58 $59 $30 $-1 $60 reversed single #
face $-1 $61 $62 $31 $-1 $63 forward single #
face $-1 $64 $65 $24 $-1 $66 reversed single #
loop $-1 $-1 $67 $32 #
plane-surface $-1 0 0 14.255712895303672 0 0 1 1 0 0 forward_v I I I I #
face $-1 $68 $69 $25 $-1 $70 forward single #
loop $-1 $-1 $71 $33 #
plane-surface $-1 0 -32.097859838273841 0 0 1 0 0 0 1 forward_v I I I I #
face $-1 $72 $73 $26 $-1 $74 reversed single #
loop $-1 $-1 $75 $34 #
plane-surface $-1 -206.80534251587093 24.50512883780026 88.462183984360763 0 1 0 -0.85716730853699208 0 0.51503806187062418 forward_v I I I I #
face $-1 $76 $77 $27 $-1 $78 forward single #
loop $-1 $79 $80 $35 #
cone-surface $-1 -74.455442889167131 26.023675037894975 11.847621270968187 0.85716730853699208 0 -0.51503806187062418 0.25751903093531209 0 0.42858365426849604 1 I I 0 1 0.5 forward I I I I #
face $-1 $81 $82 $28 $-1 $83 forward single #
loop $-1 $84 $85 $36 #
cone-surface $-1 -74.455442889167131 28.301494338037053 11.847621270968187 0.85716730853699208 0 -0.51503806187062418 0.25751903093531209 0 0.42858365426849604 1 I I 0 1 0.5 forward I I I I #
face $-1 $86 $87 $29 $-1 $88 forward single #
loop $-1 $89 $90 $37 #
cone-surface $-1 -74.455442889167131 30.57931363817913 11.847621270968187 0.85716730853699208 0 -0.51503806187062418 0.25751903093531209 0 0.42858365426849604 1 I I 0 1 0.5 forward I I I I #
face $-1 $91 $92 $30 $-1 $93 reversed single #
loop $-1 $-1 $94 $38 #
plane-surface $-1 61.157686884339057 -7.4920510690465036 216.06684443531421 0 -1 0 -0.6560590369687036 0 -0.75470957328743171 forward_v I I I I #
face $-1 $95 $96 $31 $-1 $97 forward single #
loop $-1 $98 $99 $39 #
cone-surface $-1 67.797883226018257 -11.145100328980941 6.7295542802242609 -0.6560590369687036 0 -0.75470957328743171 0.75470957328743171 0 -0.6560590369687036 1 I I 0 1 1 forward I I I I #
face $-1 $100 $101 $24 $-1 $102 reversed single #
loop $-1 $-1 $103 $40 #
plane-surface $-1 0 0 -14.255712895303672 0 0 1 1 0 0 forward_v I I I I #
coedge $-1 $104 $105 $106 $107 forward $41 $-1 #
face $-1 $108 $109 $25 $-1 $110 reversed single #
loop $-1 $-1 $111 $43 #
plane-surface $-1 0 0 14.255712895303672 0 0 1 1 0 0 forward_v I I I I #
coedge $-1 $112 $113 $114 $115 forward $44 $-1 #
face $-1 $116 $117 $26 $-1 $118 forward single #
loop $-1 $-1 $119 $46 #
plane-surface $-1 -76.190069277016505 28.301494338037053 9.9806127559144215 -0.85716730853699208 0 0.51503806187062418 0.51503806187062418 0 0.85716730853699208 forward_v I I I I #
coedge $-1 $120 $121 $122 $123 reversed $47 $-1 #
face $-1 $-1 $124 $27 $-1 $125 forward single #
loop $-1 $126 $127 $49 #
cone-surface $-1 -73.790894288006001 26.023675037894975 11.448320200859667 0.85716730853699208 0 -0.51503806187062418 0.12875951546765604 0 0.21429182713424802 1 I I -0.70710678118654746 0.70710678118654746 0.25 forward I I I I #
loop $-1 $-1 $128 $35 #
coedge $-1 $80 $80 $129 $130 reversed $50 $-1 #
face $-1 $-1 $131 $28 $-1 $132 forward single #
loop $-1 $133 $134 $52 #
cone-surface $-1 -73.790894288006001 28.301494338037053 11.448320200859667 0.85716730853699208 0 -0.51503806187062418 0.12875951546765604 0 0.21429182713424802 1 I I -0.70710678118654746 0.70710678118654746 0.25 forward I I I I #
loop $-1 $-1 $135 $36 #
coedge $-1 $85 $85 $136 $137 reversed $53 $-1 #
face $-1 $-1 $138 $29 $-1 $139 forward single #
loop $-1 $140 $141 $55 #
cone-surface $-1 -73.790894288006001 30.57931363817913 11.448320200859667 0.85716730853699208 0 -0.51503806187062418 0.12875951546765604 0 0.21429182713424802 1 I I -0.70710678118654746 0.70710678118654746 0.25 forward I I I I #
loop $-1 $-1 $142 $37 #
coedge $-1 $90 $90 $143 $144 reversed $56 $-1 #
face $-1 $145 $146 $30 $-1 $147 reversed single #
loop $-1 $-1 $148 $58 #
plane-surface $-1 -38.812680068577464 -11.145100328980941 101.06409508972024 0.6560590369687036 0 0.75470957328743171 0.75470957328743171 0 -0.6560590369687036 forward_v I I I I #
coedge $-1 $149 $150 $151 $152 reversed $59 $-1 #
face $-1 $-1 $153 $31 $-1 $154 forward single #
loop $-1 $155 $156 $61 #
cone-surface $-1 66.648233216153926 -11.145100328980941 5.4070332577511113 -0.6560590369687036 0 -0.75470957328743171 0.37735478664371586 0 -0.3280295184843518 1 I I -0.70710678118654746 0.70710678118654746 0.5 forward I I I I #
loop $-1 $-1 $157 $39 #
coedge $-1 $99 $99 $158 $159 reversed $62 $-1 #
face $-1 $160 $161 $24 $-1 $162 reversed single #
loop $-1 $-1 $163 $64 #
plane-surface $-1 0 -32.097859838273841 0 0 1 0 0 0 1 forward_v I I I I #
coedge $-1 $164 $165 $166 $167 forward $65 $-1 #
coedge $-1 $168 $67 $169 $170 forward $41 $-1 #
coedge $-1 $67 $168 $171 $172 forward $41 $-1 #
coedge $-1 $173 $174 $67 $107 reversed $175 $-1 #
edge $-1 $176 -32.097859838273841 $177 32.097859838273841 $106 $178 forward 7 unknown #
face $-1 $179 $180 $25 $-1 $181 reversed single #
loop $-1 $-1 $182 $68 #
plane-surface $-1 -76.190069277016505 0 0 1 0 0 0 0 -1 forward_v I I I I #
coedge $-1 $183 $184 $185 $186 forward $69 $-1 #
coedge $-1 $185 $71 $182 $187 reversed $44 $-1 #
coedge $-1 $71 $185 $188 $189 reversed $44 $-1 #
coedge $-1 $190 $191 $71 $115 reversed $180 $-1 #
edge $-1 $192 -76.190069277016505 $193 76.190069277016505 $114 $194 forward 7 unknown #
face $-1 $195 $196 $26 $-1 $197 reversed single #
loop $-1 $-1 $122 $72 #
plane-surface $-1 0 0 14.255712895303672 0 0 1 1 0 0 forward_v I I I I #
coedge $-1 $198 $199 $200 $201 reversed $73 $-1 #
coedge $-1 $121 $75 $202 $203 reversed $47 $-1 #
coedge $-1 $75 $120 $198 $204 reversed $47 $-1 #
coedge $-1 $200 $205 $75 $123 forward $117 $-1 #
edge $-1 $206 27.212601980918961 $207 29.781341208563987 $122 $208 forward 7 unknown #
loop $-1 $-1 $129 $76 #
plane-surface $-1 -76.190069277016505 28.301494338037053 9.9806127559144215 -0.85716730853699208 0 0.51503806187062418 0.51503806187062418 0 0.85716730853699208 forward_v I I I I #
loop $-1 $-1 $209 $49 #
coedge $-1 $127 $127 $128 $210 reversed $77 $-1 #
coedge $-1 $128 $128 $127 $210 forward $79 $-1 #
coedge $-1 $129 $129 $80 $130 forward $124 $-1 #
edge $-1 $211 0 $211 6.2831853071796004 $129 $212 forward 7 unknown #
loop $-1 $-1 $136 $81 #
plane-surface $-1 -76.190069277016505 28.301494338037053 9.9806127559144215 -0.85716730853699208 0 0.51503806187062418 0.51503806187062418 0 0.85716730853699208 forward_v I I I I #
loop $-1 $-1 $213 $52 #
coedge $-1 $134 $134 $135 $214 reversed $82 $-1 #
coedge $-1 $135 $135 $134 $214 forward $84 $-1 #
coedge $-1 $136 $136 $85 $137 forward $131 $-1 #
edge $-1 $215 0 $215 6.2831853071796004 $136 $216 forward 7 unknown #
loop $-1 $-1 $143 $86 #
plane-surface $-1 -76.190069277016505 28.301494338037053 9.9806127559144215 -0.85716730853699208 0 0.51503806187062418 0.51503806187062418 0 0.85716730853699208 forward_v I I I I #
loop $-1 $-1 $217 $55 #
coedge $-1 $141 $141 $142 $218 reversed $87 $-1 #
coedge $-1 $142 $142 $141 $218 forward $89 $-1 #
coedge $-1 $143 $143 $90 $144 forward $138 $-1 #
edge $-1 $219 0 $219 6.2831853071796004 $143 $220 forward 7 unknown #
face $-1 $221 $222 $30 $-1 $223 reversed single #
loop $-1 $-1 $224 $91 #
plane-surface $-1 61.157686884339057 -14.798149588915379 216.06684443531421 0 1 0 0.6560590369687036 0 0.75470957328743171 forward_v I I I I #
coedge $-1 $225 $226 $227 $228 reversed $92 $-1 #
coedge $-1 $150 $94 $229 $230 reversed $59 $-1 #
coedge $-1 $94 $149 $225 $231 reversed $59 $-1 #
coedge $-1 $227 $232 $94 $152 forward $233 $-1 #
edge $-1 $234 -45.611225834846977 $235 -30.470094715610458 $151 $236 forward 7 unknown #
loop $-1 $-1 $158 $95 #
plane-surface $-1 -38.812680068577464 -11.145100328980941 101.06409508972024 0.6560590369687036 0 0.75470957328743171 0.75470957328743171 0 -0.6560590369687036 forward_v I I I I #
loop $-1 $-1 $237 $61 #
coedge $-1 $156 $156 $157 $238 reversed $96 $-1 #
coedge $-1 $157 $157 $156 $238 forward $98 $-1 #
coedge $-1 $158 $158 $99 $159 forward $153 $-1 #
edge $-1 $239 0 $239 6.2831853071796004 $158 $240 forward 7 unknown #
face $-1 $241 $242 $24 $-1 $243 reversed single #
loop $-1 $-1 $244 $100 #
plane-surface $-1 -76.190069277016505 0 0 1 0 0 0 0 -1 forward_v I I I I #
coedge $-1 $245 $171 $246 $247 forward $101 $-1 #
coedge $-1 $248 $103 $245 $249 forward $65 $-1 #
coedge $-1 $103 $248 $250 $251 forward $65 $-1 #
coedge $-1 $174 $173 $103 $167 reversed $175 $-1 #
edge $-1 $252 -32.097859838273841 $253 32.097859838273841 $166 $254 forward 7 unknown #
coedge $-1 $105 $104 $255 $256 forward $41 $-1 #
coedge $-1 $257 $258 $104 $170 reversed $242 $-1 #
edge $-1 $177 -76.190069277016505 $259 76.190069277016505 $169 $260 forward 7 unknown #
coedge $-1 $163 $261 $105 $172 reversed $101 $-1 #
edge $-1 $262 -76.190069277016505 $176 76.190069277016505 $171 $263 forward 7 unknown #
coedge $-1 $166 $106 $261 $264 forward $175 $-1 #
coedge $-1 $106 $166 $257 $265 reversed $175 $-1 #
loop $-1 $-1 $173 $241 #
vertex $-1 $107 $266 #
vertex $-1 $107 $267 #
straight-curve $-1 76.190069277016505 0 14.255712895303672 0 1 0 I I #
face $-1 $268 $269 $25 $-1 $270 reversed single #
loop $-1 $-1 $190 $108 #
plane-surface $-1 0 -40.747714962953069 10.287328252119284 0 0 1 1 0 0 forward_v I I I I #
coedge $-1 $271 $272 $112 $187 forward $109 $-1 #
coedge $-1 $273 $111 $272 $274 forward $69 $-1 #
coedge $-1 $111 $273 $275 $276 forward $69 $-1 #
coedge $-1 $113 $112 $111 $186 reversed $44 $-1 #
edge $-1 $277 -76.190069277016505 $278 76.190069277016505 $111 $279 forward 7 unknown #
edge $-1 $278 -14.255712895303672 $193 -10.287328252119284 $182 $280 forward 7 unknown #
coedge $-1 $275 $281 $113 $189 forward $282 $-1 #
edge $-1 $192 10.287328252119284 $277 14.255712895303672 $188 $283 forward 7 unknown #
coedge $-1 $284 $114 $281 $285 forward $180 $-1 #
coedge $-1 $114 $284 $271 $286 forward $180 $-1 #
vertex $-1 $189 $287 #
vertex $-1 $187 $288 #
straight-curve $-1 0 -32.097859838273841 10.287328252119284 -1 0 0 I I #
face $-1 $-1 $289 $26 $-1 $290 reversed single #
loop $-1 $-1 $291 $116 #
plane-surface $-1 0 32.097859838273841 0 0 -1 0 0 0 -1 forward_v I I I I #
coedge $-1 $292 $119 $121 $204 forward $73 $-1 #
coedge $-1 $119 $292 $291 $293 reversed $73 $-1 #
coedge $-1 $294 $122 $119 $201 forward $117 $-1 #
edge $-1 $207 10.354381668781734 $295 17.947112669255322 $200 $296 forward 7 unknown #
coedge $-1 $297 $298 $120 $203 forward $289 $-1 #
edge $-1 $299 -34.25047923626596 $206 -29.975379096876708 $202 $300 forward 7 unknown #
edge $-1 $207 -4.987474553463743 $299 0 $121 $301 forward 7 unknown #
coedge $-1 $122 $294 $297 $302 forward $117 $-1 #
vertex $-1 $203 $303 #
vertex $-1 $123 $304 #
straight-curve $-1 -103.40267125793547 24.50512883780026 14.255712895303674 1 0 0 I I #
coedge $-1 $209 $209 $-1 $305 reversed $126 $-1 #
edge $-1 $306 0 $306 6.2831853071796004 $127 $307 forward 7 unknown #
vertex $-1 $130 $308 #
ellipse-curve $-1 -74.905699663194 26.023675037894975 12.118162825609042 -0.85716730853699208 0 0.51503806187062418 0.25751903093531209 0 0.42858365426849604 1 I I #
coedge $-1 $213 $213 $-1 $309 reversed $133 $-1 #
edge $-1 $310 0 $310 6.2831853071796004 $134 $311 forward 7 unknown #
vertex $-1 $137 $312 #
ellipse-curve $-1 -74.905699663194 28.301494338037053 12.118162825609042 -0.85716730853699208 0 0.51503806187062418 0.25751903093531209 0 0.42858365426849604 1 I I #
coedge $-1 $217 $217 $-1 $313 reversed $140 $-1 #
edge $-1 $314 0 $314 6.2831853071796004 $141 $315 forward 7 unknown #
vertex $-1 $144 $316 #
ellipse-curve $-1 -74.905699663194 30.57931363817913 12.118162825609042 -0.85716730853699208 0 0.51503806187062418 0.25751903093531209 0 0.42858365426849604 1 I I #
face $-1 $-1 $233 $30 $-1 $317 forward single #
loop $-1 $-1 $318 $145 #
plane-surface $-1 76.190069277016505 0 0 -1 0 0 0 0 1 forward_v I I I I #
coedge $-1 $319 $320 $321 $322 reversed $146 $-1 #
coedge $-1 $323 $148 $150 $231 forward $92 $-1 #
coedge $-1 $148 $323 $319 $324 forward $92 $-1 #
coedge $-1 $321 $151 $148 $228 forward $233 $-1 #
edge $-1 $235 1.9195009045560329 $325 9.2255994244249084 $227 $326 forward 7 unknown #
coedge $-1 $327 $328 $149 $230 forward $222 $-1 #
edge $-1 $329 -106.93969408085339 $234 -93.777709322353431 $229 $330 forward 7 unknown #
edge $-1 $235 132.31794290268675 $329 152.38013855403301 $150 $331 forward 7 unknown #
coedge $-1 $151 $321 $327 $332 forward $233 $-1 #
loop $-1 $-1 $321 $221 #
vertex $-1 $230 $333 #
vertex $-1 $152 $334 #
straight-curve $-1 30.578843442169529 -7.4920510690465036 14.255712895303674 -1 0 0 I I #
coedge $-1 $237 $237 $-1 $335 reversed $155 $-1 #
edge $-1 $336 0 $336 6.2831853071796004 $156 $337 forward 7 unknown #
vertex $-1 $159 $338 #
ellipse-curve $-1 68.619503717398246 -11.145100328980941 7.6747205160537 0.6560590369687036 0 0.75470957328743171 0.75470957328743171 0 -0.6560590369687036 1 I I #
face $-1 $-1 $175 $24 $-1 $339 reversed single #
loop $-1 $-1 $257 $160 #
plane-surface $-1 0 32.097859838273841 0 0 -1 0 0 0 -1 forward_v I I I I #
coedge $-1 $340 $255 $258 $341 forward $161 $-1 #
coedge $-1 $261 $163 $164 $249 reversed $101 $-1 #
coedge $-1 $255 $340 $163 $247 reversed $161 $-1 #
edge $-1 $262 -14.255712895303672 $342 14.255712895303672 $246 $343 forward 7 unknown #
coedge $-1 $165 $164 $340 $344 forward $65 $-1 #
edge $-1 $253 -76.190069277016505 $342 76.190069277016505 $245 $345 forward 7 unknown #
coedge $-1 $258 $257 $165 $251 reversed $242 $-1 #
edge $-1 $346 -76.190069277016505 $252 76.190069277016505 $250 $347 forward 7 unknown #
vertex $-1 $167 $348 #
vertex $-1 $264 $349 #
straight-curve $-1 76.190069277016505 0 -14.255712895303672 0 -1 0 I I #
coedge $-1 $244 $246 $168 $256 reversed $161 $-1 #
edge $-1 $259 -32.097859838273841 $262 32.097859838273841 $255 $350 forward 7 unknown #
coedge $-1 $250 $169 $174 $265 forward $242 $-1 #
coedge $-1 $169 $250 $244 $341 reversed $242 $-1 #
vertex $-1 $170 $351 #
straight-curve $-1 0 32.097859838273841 14.255712895303672 -1 0 0 I I #
coedge $-1 $171 $245 $173 $264 reversed $101 $-1 #
vertex $-1 $256 $352 #
straight-curve $-1 0 -32.097859838273841 14.255712895303672 1 0 0 I I #
edge $-1 $176 -14.255712895303672 $253 14.255712895303672 $173 $353 forward 7 unknown #
edge $-1 $177 -14.255712895303672 $252 14.255712895303672 $174 $354 forward 7 unknown #
point $-1 76.190069277016505 -32.097859838273841 14.255712895303672 #
point $-1 76.190069277016505 32.097859838273841 14.255712895303672 #
face $-1 $-1 $282 $25 $-1 $355 reversed single #
loop $-1 $-1 $356 $179 #
plane-surface $-1 0 -49.397570087632303 12.271520573711479 0 1 0 0 0 1 forward_v I I I I #
coedge $-1 $357 $182 $191 $286 reversed $109 $-1 #
coedge $-1 $182 $357 $183 $274 reversed $109 $-1 #
coedge $-1 $184 $183 $358 $359 forward $69 $-1 #
edge $-1 $278 32.097859838273841 $360 49.397570087632303 $272 $361 forward 7 unknown #
coedge $-1 $362 $188 $184 $276 reversed $282 $-1 #
edge $-1 $363 -49.397570087632303 $277 -32.097859838273841 $275 $364 forward 7 unknown #
vertex $-1 $189 $365 #
vertex $-1 $274 $366 #
straight-curve $-1 0 -32.097859838273841 14.255712895303672 -1 0 0 I I #
straight-curve $-1 -76.190069277016505 -32.097859838273841 0 0 0 -1 I I #
coedge $-1 $188 $362 $190 $285 reversed $282 $-1 #
loop $-1 $-1 $188 $268 #
straight-curve $-1 76.190069277016505 -32.097859838273841 0 0 0 1 I I #
coedge $-1 $191 $190 $367 $368 forward $180 $-1 #
edge $-1 $192 -8.6498551246792346 $369 8.6498551246792346 $281 $370 forward 7 unknown #
edge $-1 $371 -8.6498551246792346 $193 8.6498551246792346 $271 $372 forward 7 unknown #
point $-1 76.190069277016505 -32.097859838273834 10.287328252119284 #
point $-1 -76.190069277016505 -32.097859838273834 10.287328252119284 #
loop $-1 $-1 $202 $195 #
plane-surface $-1 -76.190069277016505 0 0 1 0 0 0 0 -1 forward_v I I I I #
coedge $-1 $373 $374 $199 $293 forward $196 $-1 #
coedge $-1 $199 $198 $298 $375 reversed $73 $-1 #
edge $-1 $295 10.355390766879276 $376 15.342865320343018 $291 $377 forward 7 unknown #
coedge $-1 $205 $200 $374 $378 forward $117 $-1 #
vertex $-1 $378 $379 #
straight-curve $-1 -73.62133004937148 14.150747169018526 14.255712895303672 0 1 0 I I #
coedge $-1 $380 $202 $205 $302 reversed $289 $-1 #
coedge $-1 $202 $380 $292 $375 forward $289 $-1 #
vertex $-1 $203 $381 #
straight-curve $-1 -76.190069277016505 24.50512883780026 44.231091992180382 0 0 1 I I #
straight-curve $-1 -76.190069277016505 24.50512883780026 9.9806127559144215 -0.51503806187062418 0 -0.85716730853699208 I I #
edge $-1 $382 -32.097859838273841 $206 -24.50512883780026 $297 $383 forward 7 unknown #
point $-1 -76.190069277016505 24.50512883780026 14.255712895303672 #
point $-1 -73.62133004937148 24.50512883780026 14.255712895303672 #
edge $-1 $384 1 $384 0 $209 $-1 forward 7 unknown #
vertex $-1 $210 $385 #
ellipse-curve $-1 -74.005186115140248 26.023675037894975 11.577079716327324 -0.85716730853699208 0 0.51503806187062418 0.25751903093531209 0 0.42858365426849604 1 I I #
point $-1 -74.648180632258686 26.023675037894975 12.546746479877546 #
edge $-1 $386 1 $386 0 $213 $-1 forward 7 unknown #
vertex $-1 $214 $387 #
ellipse-curve $-1 -74.005186115140248 28.301494338037053 11.577079716327324 -0.85716730853699208 0 0.51503806187062418 0.25751903093531209 0 0.42858365426849604 1 I I #
point $-1 -74.648180632258686 28.301494338037053 12.546746479877546 #
edge $-1 $388 1 $388 0 $217 $-1 forward 7 unknown #
vertex $-1 $218 $389 #
ellipse-curve $-1 -74.005186115140248 30.57931363817913 11.577079716327324 -0.85716730853699208 0 0.51503806187062418 0.25751903093531209 0 0.42858365426849604 1 I I #
point $-1 -74.648180632258686 30.57931363817913 12.546746479877546 #
plane-surface $-1 0 0 14.255712895303672 0 0 1 1 0 0 forward_v I I I I #
coedge $-1 $328 $327 $320 $390 forward $222 $-1 #
coedge $-1 $320 $224 $226 $324 reversed $146 $-1 #
coedge $-1 $224 $319 $318 $390 reversed $146 $-1 #
coedge $-1 $232 $227 $224 $322 forward $233 $-1 #
edge $-1 $325 30.470094715610458 $391 45.611225834846977 $321 $392 forward 7 unknown #
coedge $-1 $226 $225 $328 $393 reversed $92 $-1 #
edge $-1 $394 -152.38013855403301 $325 -132.31794290268675 $319 $395 forward 7 unknown #
vertex $-1 $228 $396 #
straight-curve $-1 61.048938157779986 -5.5725501644904707 14.255712895303674 0 -1 0 I I #
coedge $-1 $318 $229 $232 $332 reversed $222 $-1 #
coedge $-1 $229 $318 $323 $393 forward $222 $-1 #
vertex $-1 $230 $397 #
straight-curve $-1 76.190069277016505 -7.4920510690465036 108.0334222176571 0 0 1 I I #
straight-curve $-1 -38.812680068577464 -7.4920510690465036 101.06409508972024 0.75470957328743171 0 -0.6560590369687036 I I #
edge $-1 $391 -14.798149588915379 $234 -7.4920510690465036 $327 $398 forward 7 unknown #
point $-1 76.190069277016505 -7.4920510690465036 14.255712895303672 #
point $-1 61.048938157779986 -7.4920510690465036 14.255712895303674 #
edge $-1 $399 1 $399 0 $237 $-1 forward 7 unknown #
vertex $-1 $238 $400 #
ellipse-curve $-1 66.976262734638283 -11.145100328980941 5.7843880443948272 0.6560590369687036 0 0.75470957328743171 0.75470957328743171 0 -0.6560590369687036 1 I I #
point $-1 69.37421329068566 -11.145100328980941 7.0186614790849902 #
plane-surface $-1 76.190069277016505 0 0 -1 0 0 0 0 1 forward_v I I I I #
coedge $-1 $246 $244 $248 $344 reversed $161 $-1 #
edge $-1 $259 -14.255712895303672 $346 14.255712895303672 $258 $401 forward 7 unknown #
vertex $-1 $344 $402 #
straight-curve $-1 -76.190069277016505 -32.097859838273841 0 0 0 -1 I I #
edge $-1 $342 -32.097859838273841 $346 32.097859838273841 $340 $403 forward 7 unknown #
straight-curve $-1 0 -32.097859838273841 -14.255712895303672 -1 0 0 I I #
vertex $-1 $251 $404 #
straight-curve $-1 0 32.097859838273841 -14.255712895303672 1 0 0 I I #
point $-1 76.190069277016505 32.097859838273841 -14.255712895303672 #
point $-1 76.190069277016505 -32.097859838273841 -14.255712895303672 #
straight-curve $-1 -76.190069277016505 0 14.255712895303672 0 -1 0 I I #
point $-1 -76.190069277016505 32.097859838273841 14.255712895303672 #
point $-1 -76.190069277016505 -32.097859838273841 14.255712895303672 #
straight-curve $-1 76.190069277016505 -32.097859838273841 0 0 0 -1 I I #
straight-curve $-1 76.190069277016505 32.097859838273841 0 0 0 -1 I I #
plane-surface $-1 76.190069277016505 0 0 -1 0 0 0 0 1 forward_v I I I I #
coedge $-1 $367 $358 $357 $405 forward $269 $-1 #
coedge $-1 $272 $271 $356 $405 reversed $109 $-1 #
coedge $-1 $356 $406 $273 $359 reversed $269 $-1 #
edge $-1 $360 -76.190069277016505 $363 76.190069277016505 $358 $407 forward 7 unknown #
vertex $-1 $274 $408 #
straight-curve $-1 -76.190069277016505 0 14.255712895303672 0 -1 0 I I #
coedge $-1 $281 $275 $406 $409 forward $282 $-1 #
vertex $-1 $276 $410 #
straight-curve $-1 76.190069277016505 0 14.255712895303672 0 1 0 I I #
point $-1 76.190069277016505 -32.097859838273841 14.255712895303672 #
point $-1 -76.190069277016505 -32.097859838273841 14.255712895303672 #
coedge $-1 $406 $356 $284 $368 reversed $269 $-1 #
edge $-1 $369 -76.190069277016505 $371 76.190069277016505 $367 $411 forward 7 unknown #
vertex $-1 $409 $412 #
straight-curve $-1 76.190069277016505 -40.747714962953069 10.287328252119284 0 -1 0 I I #
vertex $-1 $286 $413 #
straight-curve $-1 -76.190069277016505 -40.747714962953069 10.287328252119284 0 1 0 I I #
coedge $-1 $374 $291 $380 $414 reversed $196 $-1 #
coedge $-1 $291 $373 $294 $378 reversed $196 $-1 #
edge $-1 $376 -17.947112669255322 $299 -10.354381668781734 $298 $415 forward 7 unknown #
vertex $-1 $293 $416 #
straight-curve $-1 -68.287909658885027 32.097859838273841 23.132015327798403 -0.51503806187062429 0 -0.85716730853699219 I I #
edge $-1 $295 73.62133004937148 $382 76.190069277016505 $374 $417 forward 7 unknown #
point $-1 -73.62133004937148 32.097859838273848 14.255712895303672 #
coedge $-1 $298 $297 $373 $414 forward $289 $-1 #
point $-1 -76.190069277016505 24.50512883780026 9.9806127559144215 #
vertex $-1 $378 $418 #
straight-curve $-1 -76.190069277016505 0 14.255712895303672 0 -1 0 I I #
vertex $-1 $305 $419 #
point $-1 -73.747667084204934 26.023675037894975 12.005663370595819 #
vertex $-1 $309 $420 #
point $-1 -73.747667084204934 28.301494338037053 12.005663370595819 #
vertex $-1 $313 $421 #
point $-1 -73.747667084204934 30.57931363817913 12.005663370595819 #
edge $-1 $391 93.777709322353431 $394 106.93969408085339 $318 $422 forward 7 unknown #
vertex $-1 $332 $423 #
straight-curve $-1 30.578843442169529 -14.798149588915379 14.255712895303674 1 0 0 I I #
edge $-1 $394 -9.2255994244249084 $329 -1.9195009045560329 $328 $424 forward 7 unknown #
vertex $-1 $393 $425 #
straight-curve $-1 -38.812680068577464 -14.798149588915379 101.06409508972024 -0.75470957328743171 0 0.6560590369687036 I I #
point $-1 61.048938157779986 -14.798149588915379 14.255712895303674 #
point $-1 76.190069277016505 -7.4920510690465036 1.0937281368037191 #
straight-curve $-1 76.190069277016505 0 14.255712895303672 0 1 0 I I #
vertex $-1 $335 $426 #
point $-1 67.730972307925711 -11.145100328980941 5.1283290074261236 #
straight-curve $-1 -76.190069277016505 32.097859838273841 0 0 0 -1 I I #
point $-1 -76.190069277016505 -32.097859838273841 -14.255712895303672 #
straight-curve $-1 -76.190069277016505 0 -14.255712895303672 0 1 0 I I #
point $-1 -76.190069277016505 32.097859838273841 -14.255712895303672 #
edge $-1 $360 -1.9841923215921948 $371 1.9841923215921948 $357 $427 forward 7 unknown #
coedge $-1 $358 $367 $362 $409 reversed $269 $-1 #
straight-curve $-1 0 -49.397570087632303 14.255712895303674 1 0 0 I I #
point $-1 -76.190069277016505 -49.397570087632303 14.255712895303674 #
edge $-1 $363 -1.9841923215921948 $369 1.9841923215921948 $362 $428 forward 7 unknown #
point $-1 76.190069277016505 -49.397570087632303 14.255712895303674 #
straight-curve $-1 0 -49.397570087632303 10.287328252119284 -1 0 0 I I #
point $-1 76.190069277016505 -49.397570087632303 10.287328252119284 #
point $-1 -76.190069277016505 -49.397570087632303 10.287328252119284 #
edge $-1 $382 -14.255712895303672 $376 -9.9806127559144215 $373 $429 forward 7 unknown #
straight-curve $-1 -76.190069277016505 14.150747169018526 9.9806127559144144 0 -1 0 I I #
point $-1 -76.190069277016505 32.097859838273848 9.9806127559144215 #
straight-curve $-1 0 32.097859838273841 14.255712895303672 -1 0 0 I I #
point $-1 -76.190069277016505 32.097859838273841 14.255712895303672 #
point $-1 -73.576602460871754 26.023675037894975 11.319560685392011 #
point $-1 -73.576602460871754 28.301494338037053 11.319560685392011 #
point $-1 -73.576602460871754 30.57931363817913 11.319560685392011 #
straight-curve $-1 76.190069277016505 -14.798149588915379 108.0334222176571 0 0 -1 I I #
point $-1 76.190069277016505 -14.798149588915379 14.255712895303672 #
straight-curve $-1 76.190069277016505 -5.5725501644904707 1.0937281368037333 0 1 0 I I #
point $-1 76.190069277016505 -14.798149588915379 1.0937281368037191 #
point $-1 66.320203697669569 -11.145100328980941 5.0296784711073954 #
straight-curve $-1 -76.190069277016505 -49.397570087632303 12.271520573711479 0 0 -1 I I #
straight-curve $-1 76.190069277016505 -49.397570087632303 12.271520573711479 0 0 -1 I I #
straight-curve $-1 -76.190069277016505 32.097859838273841 0 0 0 -1 I I #
End-of-ACIS-data 