500 0 8 0           
7 Unknown 11 ACIS 5.0 NT 24 Fri Mar 26 18:28:02 1999 
-1 9.9999999999999995e-007 1e-010 
body $-1 $8 $-1 $9 #
body $-1 $10 $-1 $11 #
body $-1 $12 $-1 $13 #
body $-1 $14 $-1 $15 #
body $-1 $16 $-1 $17 #
body $-1 $18 $-1 $19 #
body $-1 $20 $-1 $21 #
body $-1 $22 $-1 $23 #
lump $-1 $-1 $24 $0 #
transform $-1 1 0 0 0 1 0 0 0 1 77.552415540025024 49.465551608171907 23.641324227417101 1 rotate no_reflect no_shear #
lump $-1 $-1 $25 $1 #
transform $-1 1 0 0 0 1 0 0 0 1 77.552415540025024 49.465551608171907 23.641324227417101 1 rotate no_reflect no_shear #
lump $-1 $-1 $26 $2 #
transform $-1 1 0 0 0 1 0 0 0 1 77.552415540025024 49.465551608171907 23.641324227417101 1 rotate no_reflect no_shear #
lump $-1 $-1 $27 $3 #
transform $-1 1 0 0 0 1 0 0 0 1 77.552415540025024 49.465551608171907 23.641324227417101 1 rotate no_reflect no_shear #
lump $-1 $-1 $28 $4 #
transform $-1 1 0 0 0 1 0 0 0 1 77.552415540025024 49.465551608171907 23.641324227417101 1 rotate no_reflect no_shear #
lump $-1 $-1 $29 $5 #
transform $-1 1 0 0 0 1 0 0 0 1 77.552415540025024 49.465551608171907 23.641324227417101 1 rotate no_reflect no_shear #
lump $-1 $-1 $30 $6 #
transform $-1 1 0 0 0 1 0 0 0 1 77.552415540025024 49.465551608171907 23.641324227417101 1 rotate no_reflect no_shear #
lump $-1 $-1 $31 $7 #
transform $-1 1 0 0 0 1 0 0 0 1 77.552415540025024 49.465551608171907 23.641324227417101 1 rotate no_reflect no_shear #
shell $-1 $-1 $-1 $32 $-1 $8 #
shell $-1 $-1 $-1 $33 $-1 $10 #
shell $-1 $-1 $-1 $34 $-1 $12 #
shell $-1 $-1 $-1 $35 $-1 $14 #
shell $-1 $-1 $-1 $36 $-1 $16 #
shell $-1 $-1 $-1 $37 $-1 $18 #
shell $-1 $-1 $-1 $38 $-1 $20 #
shell $-1 $-1 $-1 $39 $-1 $22 #
face $-1 $40 $41 $24 $-1 $42 forward single #
face $-1 $43 $44 $25 $-1 $45 forward single #
face $-1 $46 $47 $26 $-1 $48 forward single #
face $-1 $49 $50 $27 $-1 $51 reversed single #
face $-1 $52 $53 $28 $-1 $54 forward single #
face $-1 $55 $56 $29 $-1 $57 forward single #
face $-1 $58 $59 $30 $-1 $60 reversed single #
face $-1 $61 $62 $31 $-1 $63 forward single #
face $-1 $64 $65 $24 $-1 $66 reversed single #
loop $-1 $-1 $67 $32 #
plane-surface $-1 0 0 23.641324227417101 0 0 1 1 0 0 forward_v I I I I #
face $-1 $68 $69 $25 $-1 $70 reversed single #
loop $-1 $-1 $71 $33 #
plane-surface $-1 0 -49.465551608171907 0 0 1 0 0 0 1 forward_v I I I I #
face $-1 $72 $73 $26 $-1 $74 reversed single #
loop $-1 $-1 $75 $34 #
plane-surface $-1 0 49.465551608171907 0 0 -1 0 0 0 -1 forward_v I I I I #
face $-1 $76 $77 $27 $-1 $78 reversed single #
loop $-1 $-1 $79 $35 #
plane-surface $-1 -206.14014944251147 -11.858873772181592 106.65796869776844 0 1 0 -0.82903758062907751 0 0.55919289150049634 forward_v I I I I #
face $-1 $80 $81 $28 $-1 $82 forward single #
loop $-1 $83 $84 $36 #
cone-surface $-1 -75.470048650865408 -8.3245631086882597 21.223830608286111 0.82903758062907751 0 -0.55919289150049634 0.55919289150049634 0 0.82903758062907751 1 I I 0 1 1 forward I I I I #
face $-1 $85 $86 $29 $-1 $87 forward single #
loop $-1 $88 $89 $37 #
cone-surface $-1 -75.470048650865408 -3.0230971134482729 21.223830608286111 0.82903758062907751 0 -0.55919289150049634 0.55919289150049634 0 0.82903758062907751 1 I I 0 1 1 forward I I I I #
face $-1 $90 $91 $30 $-1 $92 reversed single #
loop $-1 $-1 $93 $38 #
plane-surface $-1 43.238305565739125 4.5047090352578998 235.44951940408947 0 -1 0 -0.5877852598018023 0 -0.80901698891910034 forward_v I I I I #
face $-1 $94 $95 $31 $-1 $96 forward single #
loop $-1 $97 $98 $39 #
cone-surface $-1 72.701996700363111 -1.0021519053762091 19.130963738235277 -0.5877852598018023 0 -0.80901698891910034 1.2135254833786506 0 -0.88167788970270344 1 I I 0 1 1.5 forward I I I I #
face $-1 $99 $100 $24 $-1 $101 reversed single #
loop $-1 $-1 $102 $40 #
plane-surface $-1 0 0 -23.641324227417101 0 0 1 1 0 0 forward_v I I I I #
coedge $-1 $103 $104 $105 $106 forward $41 $-1 #
face $-1 $107 $108 $25 $-1 $109 forward single #
loop $-1 $-1 $110 $43 #
plane-surface $-1 -77.552415540025024 0 0 1 0 0 0 0 -1 forward_v I I I I #
coedge $-1 $111 $112 $113 $114 forward $44 $-1 #
face $-1 $115 $116 $26 $-1 $117 forward single #
loop $-1 $-1 $118 $46 #
plane-surface $-1 77.552415540025024 0 0 -1 0 0 0 0 1 forward_v I I I I #
coedge $-1 $119 $120 $121 $122 forward $47 $-1 #
face $-1 $123 $124 $27 $-1 $125 reversed single #
loop $-1 $-1 $126 $49 #
plane-surface $-1 -77.552415540025038 -5.6738301110682698 19.924449720419204 -0.82903758062907751 0 0.55919289150049634 0.55919289150049634 0 0.82903758062907751 forward_v I I I I #
coedge $-1 $127 $128 $129 $130 reversed $50 $-1 #
face $-1 $-1 $131 $28 $-1 $132 forward single #
loop $-1 $133 $134 $52 #
cone-surface $-1 -74.226694687851875 -8.3245631086882597 20.385177796903832 0.82903758062907751 0 -0.55919289150049634 0.27959644575024817 0 0.41451879031453875 1 I I -0.70710678118654746 0.70710678118654746 0.5 forward I I I I #
loop $-1 $-1 $135 $36 #
coedge $-1 $84 $84 $136 $137 reversed $53 $-1 #
face $-1 $-1 $138 $29 $-1 $139 forward single #
loop $-1 $140 $141 $55 #
cone-surface $-1 -74.226694687851875 -3.0230971134482729 20.385177796903832 0.82903758062907751 0 -0.55919289150049634 0.27959644575024817 0 0.41451879031453875 1 I I -0.70710678118654746 0.70710678118654746 0.5 forward I I I I #
loop $-1 $-1 $142 $37 #
coedge $-1 $89 $89 $143 $144 reversed $56 $-1 #
face $-1 $145 $146 $30 $-1 $147 reversed single #
loop $-1 $-1 $148 $58 #
plane-surface $-1 -47.93002786716275 -1.0021519053762091 109.9670759969017 0.5877852598018023 0 0.80901698891910034 0.80901698891910034 0 -0.5877852598018023 forward_v I I I I #
coedge $-1 $149 $150 $151 $152 reversed $59 $-1 #
face $-1 $-1 $153 $31 $-1 $154 forward single #
loop $-1 $155 $156 $61 #
cone-surface $-1 70.74335977576537 -1.0021519053762091 16.435131339072797 -0.5877852598018023 0 -0.80901698891910034 0.60676274168932531 0 -0.44083894485135172 1 I I -0.70710678118654757 0.70710678118654757 0.75 forward I I I I #
loop $-1 $-1 $157 $39 #
coedge $-1 $98 $98 $158 $159 reversed $62 $-1 #
face $-1 $160 $161 $24 $-1 $162 reversed single #
loop $-1 $-1 $163 $64 #
plane-surface $-1 0 -49.465551608171907 0 0 1 0 0 0 1 forward_v I I I I #
coedge $-1 $164 $165 $166 $167 forward $65 $-1 #
coedge $-1 $168 $67 $169 $170 forward $41 $-1 #
coedge $-1 $67 $168 $171 $172 forward $41 $-1 #
coedge $-1 $173 $174 $67 $106 reversed $175 $-1 #
edge $-1 $176 -49.465551608171907 $177 49.465551608171907 $105 $178 forward 7 unknown #
face $-1 $179 $180 $25 $-1 $181 reversed single #
loop $-1 $-1 $182 $68 #
plane-surface $-1 0 -63.880020595786867 12.226048909823263 0 0 1 1 0 0 forward_v I I I I #
coedge $-1 $183 $184 $112 $185 forward $69 $-1 #
coedge $-1 $186 $71 $187 $188 reversed $44 $-1 #
coedge $-1 $71 $186 $110 $185 reversed $44 $-1 #
coedge $-1 $189 $182 $71 $114 reversed $108 $-1 #
edge $-1 $190 -77.552415540025024 $191 77.552415540025024 $113 $192 forward 7 unknown #
face $-1 $193 $194 $26 $-1 $195 reversed single #
loop $-1 $-1 $196 $72 #
plane-surface $-1 0 63.88002059578686 12.226048909823263 0 0 1 1 0 0 forward_v I I I I #
coedge $-1 $197 $198 $120 $199 forward $73 $-1 #
coedge $-1 $200 $75 $201 $202 reversed $47 $-1 #
coedge $-1 $75 $200 $118 $199 reversed $47 $-1 #
coedge $-1 $196 $203 $75 $122 reversed $116 $-1 #
edge $-1 $204 -77.552415540025024 $205 77.552415540025024 $121 $206 forward 7 unknown #
face $-1 $207 $208 $27 $-1 $209 reversed single #
loop $-1 $-1 $210 $76 #
plane-surface $-1 -206.14014944251147 0.51121355004505276 106.65796869776844 0 -1 0 0.82903758062907751 0 -0.55919289150049634 forward_v I I I I #
coedge $-1 $211 $212 $213 $214 reversed $77 $-1 #
coedge $-1 $128 $79 $215 $216 reversed $50 $-1 #
coedge $-1 $79 $127 $211 $217 reversed $50 $-1 #
coedge $-1 $213 $218 $79 $130 forward $219 $-1 #
edge $-1 $220 25.517659181230712 $221 28.024722614151912 $129 $222 forward 7 unknown #
loop $-1 $-1 $136 $80 #
plane-surface $-1 -77.552415540025038 -5.6738301110682698 19.924449720419204 -0.82903758062907751 0 0.55919289150049634 0.55919289150049634 0 0.82903758062907751 forward_v I I I I #
loop $-1 $-1 $223 $52 #
coedge $-1 $134 $134 $135 $224 reversed $81 $-1 #
coedge $-1 $135 $135 $134 $224 forward $83 $-1 #
coedge $-1 $136 $136 $84 $137 forward $131 $-1 #
edge $-1 $225 0 $225 6.2831853071796004 $136 $226 forward 7 unknown #
loop $-1 $-1 $143 $85 #
plane-surface $-1 -77.552415540025038 -5.6738301110682698 19.924449720419204 -0.82903758062907751 0 0.55919289150049634 0.55919289150049634 0 0.82903758062907751 forward_v I I I I #
loop $-1 $-1 $227 $55 #
coedge $-1 $141 $141 $142 $228 reversed $86 $-1 #
coedge $-1 $142 $142 $141 $228 forward $88 $-1 #
coedge $-1 $143 $143 $89 $144 forward $138 $-1 #
edge $-1 $229 0 $229 6.2831853071796004 $143 $230 forward 7 unknown #
face $-1 $231 $232 $30 $-1 $233 forward single #
loop $-1 $-1 $234 $90 #
plane-surface $-1 43.238305565739125 -6.509012846010318 235.44951940408947 0 1 0 0.5877852598018023 0 0.80901698891910034 forward_v I I I I #
coedge $-1 $235 $236 $237 $238 reversed $91 $-1 #
coedge $-1 $150 $93 $239 $240 reversed $59 $-1 #
coedge $-1 $93 $149 $235 $241 reversed $59 $-1 #
coedge $-1 $237 $242 $93 $152 forward $232 $-1 #
edge $-1 $243 -55.933262757155461 $244 -49.268021037324445 $151 $245 forward 7 unknown #
loop $-1 $-1 $158 $94 #
plane-surface $-1 -47.93002786716275 -1.0021519053762091 109.9670759969017 0.5877852598018023 0 0.80901698891910034 0.80901698891910034 0 -0.5877852598018023 forward_v I I I I #
loop $-1 $-1 $246 $61 #
coedge $-1 $156 $156 $157 $247 reversed $95 $-1 #
coedge $-1 $157 $157 $156 $247 forward $97 $-1 #
coedge $-1 $158 $158 $98 $159 forward $153 $-1 #
edge $-1 $248 0 $248 6.2831853071796004 $158 $249 forward 7 unknown #
face $-1 $250 $251 $24 $-1 $252 reversed single #
loop $-1 $-1 $253 $99 #
plane-surface $-1 -77.552415540025024 0 0 1 0 0 0 0 -1 forward_v I I I I #
coedge $-1 $254 $171 $255 $256 forward $100 $-1 #
coedge $-1 $257 $102 $254 $258 forward $65 $-1 #
coedge $-1 $102 $257 $259 $260 forward $65 $-1 #
coedge $-1 $174 $173 $102 $167 reversed $175 $-1 #
edge $-1 $261 -49.465551608171907 $262 49.465551608171907 $166 $263 forward 7 unknown #
coedge $-1 $104 $103 $264 $265 forward $41 $-1 #
coedge $-1 $266 $267 $103 $170 reversed $251 $-1 #
edge $-1 $177 -77.552415540025024 $268 77.552415540025024 $169 $269 forward 7 unknown #
coedge $-1 $163 $270 $104 $172 reversed $100 $-1 #
edge $-1 $271 -77.552415540025024 $176 77.552415540025024 $171 $272 forward 7 unknown #
coedge $-1 $166 $105 $270 $273 forward $175 $-1 #
coedge $-1 $105 $166 $266 $274 reversed $175 $-1 #
loop $-1 $-1 $173 $250 #
vertex $-1 $106 $275 #
vertex $-1 $106 $276 #
straight-curve $-1 77.552415540025024 0 23.641324227417101 0 1 0 I I #
face $-1 $277 $278 $25 $-1 $279 reversed single #
loop $-1 $-1 $280 $107 #
plane-surface $-1 0 -63.880020595786867 3.8415209137658195 0 0 1 1 0 0 forward_v I I I I #
coedge $-1 $113 $281 $282 $283 forward $108 $-1 #
coedge $-1 $284 $110 $285 $286 reversed $69 $-1 #
coedge $-1 $110 $284 $189 $287 reversed $69 $-1 #
edge $-1 $190 -12.226048909823263 $288 -3.8415209137658195 $110 $289 forward 7 unknown #
coedge $-1 $112 $111 $290 $291 forward $44 $-1 #
coedge $-1 $282 $292 $111 $188 forward $293 $-1 #
edge $-1 $294 3.8415209137658195 $191 12.226048909823263 $187 $295 forward 7 unknown #
coedge $-1 $281 $113 $184 $287 forward $108 $-1 #
vertex $-1 $185 $296 #
vertex $-1 $283 $297 #
straight-curve $-1 0 -49.465551608171907 12.226048909823263 1 0 0 I I #
face $-1 $298 $299 $26 $-1 $300 reversed single #
loop $-1 $-1 $301 $115 #
plane-surface $-1 0 63.88002059578686 3.8415209137658195 0 0 1 1 0 0 forward_v I I I I #
coedge $-1 $302 $121 $198 $303 forward $116 $-1 #
coedge $-1 $304 $118 $301 $305 reversed $73 $-1 #
coedge $-1 $118 $304 $196 $303 reversed $73 $-1 #
edge $-1 $204 -12.226048909823263 $306 -3.8415209137658195 $118 $307 forward 7 unknown #
coedge $-1 $120 $119 $308 $309 forward $47 $-1 #
coedge $-1 $310 $311 $119 $202 forward $312 $-1 #
edge $-1 $313 3.8415209137658195 $205 12.226048909823263 $201 $314 forward 7 unknown #
coedge $-1 $121 $302 $310 $315 forward $116 $-1 #
vertex $-1 $199 $316 #
vertex $-1 $315 $317 #
straight-curve $-1 0 49.465551608171907 12.226048909823263 -1 0 0 I I #
face $-1 $-1 $219 $27 $-1 $318 forward single #
loop $-1 $-1 $319 $123 #
plane-surface $-1 -77.552415540025024 0 0 1 0 0 0 0 -1 forward_v I I I I #
coedge $-1 $320 $321 $322 $323 reversed $124 $-1 #
coedge $-1 $324 $126 $128 $217 forward $77 $-1 #
coedge $-1 $126 $324 $320 $325 forward $77 $-1 #
coedge $-1 $322 $129 $126 $214 forward $219 $-1 #
edge $-1 $221 -9.0219587166474575 $326 3.3481286055791877 $213 $327 forward 7 unknown #
coedge $-1 $328 $329 $127 $216 forward $208 $-1 #
edge $-1 $330 -33.404534628464994 $220 -29.687660121467118 $215 $331 forward 7 unknown #
edge $-1 $221 -4.4833606990138062 $330 -2.5618607856530852e-014 $128 $332 forward 7 unknown #
coedge $-1 $129 $322 $328 $333 forward $219 $-1 #
loop $-1 $-1 $322 $207 #
vertex $-1 $216 $334 #
vertex $-1 $130 $335 #
straight-curve $-1 -103.07007472125574 -11.858873772181592 23.641324227417101 1 0 0 I I #
coedge $-1 $223 $223 $-1 $336 reversed $133 $-1 #
edge $-1 $337 0 $337 6.2831853071796004 $134 $338 forward 7 unknown #
vertex $-1 $137 $339 #
ellipse-curve $-1 -76.298883823564424 -8.3245631086882597 21.782886973918156 -0.82903758062907751 0 0.55919289150049634 0.55919289150049634 0 0.82903758062907751 1 I I #
coedge $-1 $227 $227 $-1 $340 reversed $140 $-1 #
edge $-1 $341 0 $341 6.2831853071796004 $141 $342 forward 7 unknown #
vertex $-1 $144 $343 #
ellipse-curve $-1 -76.298883823564424 -3.0230971134482729 21.782886973918156 -0.82903758062907751 0 0.55919289150049634 0.55919289150049634 0 0.82903758062907751 1 I I #
face $-1 $-1 $344 $30 $-1 $345 reversed single #
loop $-1 $-1 $151 $145 #
plane-surface $-1 0 0 23.641324227417101 0 0 1 1 0 0 forward_v I I I I #
coedge $-1 $346 $347 $348 $349 reversed $146 $-1 #
coedge $-1 $350 $148 $150 $241 forward $91 $-1 #
coedge $-1 $148 $350 $346 $351 forward $91 $-1 #
coedge $-1 $348 $151 $148 $238 forward $232 $-1 #
edge $-1 $244 -5.0057849879460043 $352 6.0079368933222135 $237 $353 forward 7 unknown #
coedge $-1 $354 $355 $149 $240 forward $344 $-1 #
edge $-1 $356 -98.926017138044912 $243 -94.083435474627635 $239 $357 forward 7 unknown #
edge $-1 $244 146.86613917231122 $356 155.10483108005005 $150 $358 forward 7 unknown #
coedge $-1 $151 $348 $354 $359 forward $232 $-1 #
vertex $-1 $240 $360 #
vertex $-1 $152 $361 #
straight-curve $-1 21.619152782869563 4.5047090352578998 23.641324227417101 -1 0 0 I I #
coedge $-1 $246 $246 $-1 $362 reversed $155 $-1 #
edge $-1 $363 0 $363 6.2831853071796004 $156 $364 forward 7 unknown #
vertex $-1 $159 $365 #
ellipse-curve $-1 74.219794680109516 -1.0021519053762091 21.220033395708455 0.5877852598018023 0 0.80901698891910034 1.2135254833786506 0 -0.88167788970270344 1 I I #
face $-1 $-1 $175 $24 $-1 $366 reversed single #
loop $-1 $-1 $267 $160 #
plane-surface $-1 0 49.465551608171907 0 0 -1 0 0 0 -1 forward_v I I I I #
coedge $-1 $367 $264 $267 $368 forward $161 $-1 #
coedge $-1 $270 $163 $164 $258 reversed $100 $-1 #
coedge $-1 $264 $367 $163 $256 reversed $161 $-1 #
edge $-1 $271 -23.641324227417101 $369 23.641324227417101 $255 $370 forward 7 unknown #
coedge $-1 $165 $164 $367 $371 forward $65 $-1 #
edge $-1 $262 -77.552415540025024 $369 77.552415540025024 $254 $372 forward 7 unknown #
coedge $-1 $267 $266 $165 $260 reversed $251 $-1 #
edge $-1 $373 -77.552415540025024 $261 77.552415540025024 $259 $374 forward 7 unknown #
vertex $-1 $167 $375 #
vertex $-1 $273 $376 #
straight-curve $-1 77.552415540025024 0 -23.641324227417101 0 -1 0 I I #
coedge $-1 $253 $255 $168 $265 reversed $161 $-1 #
edge $-1 $268 -49.465551608171907 $271 49.465551608171907 $264 $377 forward 7 unknown #
coedge $-1 $259 $169 $174 $274 forward $251 $-1 #
coedge $-1 $169 $259 $253 $368 reversed $251 $-1 #
vertex $-1 $170 $378 #
straight-curve $-1 0 49.465551608171907 23.641324227417101 -1 0 0 I I #
coedge $-1 $171 $254 $173 $273 reversed $100 $-1 #
vertex $-1 $265 $379 #
straight-curve $-1 0 -49.465551608171907 23.641324227417101 1 0 0 I I #
edge $-1 $176 -23.641324227417101 $262 23.641324227417101 $173 $380 forward 7 unknown #
edge $-1 $177 -23.641324227417101 $261 23.641324227417101 $174 $381 forward 7 unknown #
point $-1 77.552415540025024 -49.465551608171907 23.641324227417101 #
point $-1 77.552415540025024 49.465551608171907 23.641324227417101 #
face $-1 $-1 $293 $25 $-1 $382 reversed single #
loop $-1 $-1 $383 $179 #
plane-surface $-1 0 -78.294489583401827 8.033784911794541 0 1 0 0 0 1 forward_v I I I I #
coedge $-1 $384 $290 $292 $385 forward $180 $-1 #
coedge $-1 $182 $189 $386 $387 forward $108 $-1 #
coedge $-1 $388 $187 $182 $283 reversed $293 $-1 #
edge $-1 $389 -14.41446898761496 $191 14.41446898761496 $282 $390 forward 7 unknown #
coedge $-1 $184 $183 $383 $391 reversed $69 $-1 #
coedge $-1 $290 $384 $183 $286 forward $180 $-1 #
edge $-1 $392 -14.41446898761496 $288 14.41446898761496 $183 $393 forward 7 unknown #
edge $-1 $190 -14.41446898761496 $394 14.41446898761496 $184 $395 forward 7 unknown #
vertex $-1 $185 $396 #
straight-curve $-1 -77.552415540025024 -49.465551608171907 0 0 0 -1 I I #
coedge $-1 $280 $285 $186 $291 reversed $180 $-1 #
edge $-1 $294 -77.552415540025024 $288 77.552415540025024 $290 $397 forward 7 unknown #
coedge $-1 $187 $388 $280 $385 reversed $293 $-1 #
loop $-1 $-1 $187 $277 #
vertex $-1 $188 $398 #
straight-curve $-1 77.552415540025024 -49.465551608171907 0 0 0 1 I I #
point $-1 -77.552415540025024 -49.465551608171907 12.226048909823263 #
point $-1 77.552415540025024 -49.465551608171907 12.226048909823263 #
face $-1 $-1 $312 $26 $-1 $399 reversed single #
loop $-1 $-1 $400 $193 #
plane-surface $-1 0 78.294489583401827 8.033784911794541 0 -1 0 0 0 -1 forward_v I I I I #
coedge $-1 $308 $401 $197 $305 forward $194 $-1 #
coedge $-1 $203 $196 $402 $403 forward $116 $-1 #
edge $-1 $204 -14.41446898761496 $404 14.414468987614967 $198 $405 forward 7 unknown #
coedge $-1 $198 $197 $400 $406 reversed $73 $-1 #
edge $-1 $407 -14.414468987614967 $306 14.41446898761496 $197 $408 forward 7 unknown #
vertex $-1 $199 $409 #
straight-curve $-1 77.552415540025024 49.465551608171907 0 0 0 -1 I I #
coedge $-1 $410 $301 $200 $309 reversed $194 $-1 #
edge $-1 $313 -77.552415540025024 $306 77.552415540025024 $308 $411 forward 7 unknown #
coedge $-1 $412 $201 $203 $315 reversed $312 $-1 #
coedge $-1 $201 $412 $410 $413 reversed $312 $-1 #
loop $-1 $-1 $201 $298 #
vertex $-1 $202 $414 #
straight-curve $-1 -77.552415540025024 49.465551608171907 0 0 0 1 I I #
edge $-1 $415 -14.414468987614967 $205 14.41446898761496 $310 $416 forward 7 unknown #
point $-1 77.552415540025024 49.4655516081719 12.226048909823263 #
point $-1 -77.552415540025024 49.4655516081719 12.226048909823263 #
plane-surface $-1 0 0 23.641324227417101 0 0 1 1 0 0 forward_v I I I I #
coedge $-1 $329 $328 $321 $417 forward $208 $-1 #
coedge $-1 $321 $210 $212 $325 reversed $124 $-1 #
coedge $-1 $210 $320 $319 $417 reversed $124 $-1 #
coedge $-1 $218 $213 $210 $323 forward $219 $-1 #
edge $-1 $326 -28.024722614151912 $418 -25.517659181230712 $322 $419 forward 7 unknown #
coedge $-1 $212 $211 $329 $420 reversed $77 $-1 #
edge $-1 $421 2.5618607856530852e-014 $326 4.4833606990138062 $320 $422 forward 7 unknown #
vertex $-1 $214 $423 #
straight-curve $-1 -75.045352107103824 -2.8369150555341349 23.641324227417101 0 1 0 I I #
coedge $-1 $319 $215 $218 $333 reversed $208 $-1 #
coedge $-1 $215 $319 $324 $420 forward $208 $-1 #
vertex $-1 $216 $424 #
straight-curve $-1 -77.552415540025024 -11.858873772181592 53.328984348884219 0 0 1 I I #
straight-curve $-1 -77.552415540025038 -11.858873772181592 19.924449720419204 -0.55919289150049634 0 -0.82903758062907751 I I #
edge $-1 $418 -0.51121355004505276 $220 11.858873772181592 $328 $425 forward 7 unknown #
point $-1 -77.552415540025024 -11.858873772181592 23.641324227417101 #
point $-1 -75.045352107103824 -11.858873772181592 23.641324227417101 #
edge $-1 $426 1 $426 0 $223 $-1 forward 7 unknown #
vertex $-1 $224 $427 #
ellipse-curve $-1 -74.641213478166421 -8.3245631086882597 20.664774242654079 -0.82903758062907751 0 0.55919289150049634 0.55919289150049634 0 0.82903758062907751 1 I I #
point $-1 -75.739690932063908 -8.3245631086882597 22.611924554547219 #
edge $-1 $428 1 $428 0 $227 $-1 forward 7 unknown #
vertex $-1 $228 $429 #
ellipse-curve $-1 -74.641213478166421 -3.0230971134482729 20.664774242654079 -0.82903758062907751 0 0.55919289150049634 0.55919289150049634 0 0.82903758062907751 1 I I #
point $-1 -75.739690932063908 -3.0230971134482729 22.611924554547219 #
loop $-1 $-1 $239 $231 #
plane-surface $-1 77.552415540025024 0 0 -1 0 0 0 0 1 forward_v I I I I #
coedge $-1 $347 $234 $236 $351 reversed $146 $-1 #
coedge $-1 $234 $346 $430 $431 reversed $146 $-1 #
coedge $-1 $242 $237 $234 $349 forward $232 $-1 #
edge $-1 $352 49.268021037324445 $432 55.933262757155461 $348 $433 forward 7 unknown #
coedge $-1 $236 $235 $355 $434 reversed $91 $-1 #
edge $-1 $435 -155.10483108005005 $352 -146.86613917231122 $346 $436 forward 7 unknown #
vertex $-1 $238 $437 #
straight-curve $-1 70.887173820194008 -0.50107595268810456 23.641324227417094 0 -1 0 I I #
coedge $-1 $430 $239 $242 $359 reversed $344 $-1 #
coedge $-1 $239 $430 $350 $434 forward $344 $-1 #
vertex $-1 $240 $438 #
straight-curve $-1 77.552415540025024 4.5047090352578998 117.72475970204474 0 0 1 I I #
straight-curve $-1 -47.93002786716275 4.5047090352578998 109.9670759969017 0.80901698891910034 0 -0.5877852598018023 I I #
edge $-1 $432 -6.509012846010318 $243 4.5047090352578998 $354 $439 forward 7 unknown #
point $-1 77.552415540025024 4.5047090352578998 23.641324227417101 #
point $-1 70.887173820194008 4.5047090352578998 23.641324227417087 #
edge $-1 $440 1 $440 0 $246 $-1 forward 7 unknown #
vertex $-1 $247 $441 #
ellipse-curve $-1 71.18419872061672 -1.0021519053762091 17.041894080762123 0.5877852598018023 0 0.80901698891910034 1.2135254833786506 0 -0.88167788970270344 1 I I #
point $-1 75.433320163488162 -1.0021519053762091 20.33835550600573 #
plane-surface $-1 77.552415540025024 0 0 -1 0 0 0 0 1 forward_v I I I I #
coedge $-1 $255 $253 $257 $371 reversed $161 $-1 #
edge $-1 $268 -23.641324227417101 $373 23.641324227417101 $267 $442 forward 7 unknown #
vertex $-1 $371 $443 #
straight-curve $-1 -77.552415540025024 -49.465551608171907 0 0 0 -1 I I #
edge $-1 $369 -49.465551608171907 $373 49.465551608171907 $367 $444 forward 7 unknown #
straight-curve $-1 0 -49.465551608171907 -23.641324227417101 -1 0 0 I I #
vertex $-1 $260 $445 #
straight-curve $-1 0 49.465551608171907 -23.641324227417101 1 0 0 I I #
point $-1 77.552415540025024 49.465551608171907 -23.641324227417101 #
point $-1 77.552415540025024 -49.465551608171907 -23.641324227417101 #
straight-curve $-1 -77.552415540025024 0 23.641324227417101 0 -1 0 I I #
point $-1 -77.552415540025024 49.465551608171907 23.641324227417101 #
point $-1 -77.552415540025024 -49.465551608171907 23.641324227417101 #
straight-curve $-1 77.552415540025024 -49.465551608171907 0 0 0 -1 I I #
straight-curve $-1 77.552415540025024 49.465551608171907 0 0 0 -1 I I #
plane-surface $-1 77.552415540025024 0 0 -1 0 0 0 0 1 forward_v I I I I #
coedge $-1 $446 $386 $284 $391 forward $278 $-1 #
coedge $-1 $285 $280 $446 $447 forward $180 $-1 #
edge $-1 $294 -14.41446898761496 $448 14.41446898761496 $292 $449 forward 7 unknown #
coedge $-1 $383 $450 $281 $387 reversed $278 $-1 #
edge $-1 $394 -77.552415540025024 $389 77.552415540025024 $386 $451 forward 7 unknown #
coedge $-1 $292 $282 $450 $452 forward $293 $-1 #
vertex $-1 $283 $453 #
straight-curve $-1 77.552415540025024 -63.880020595786867 12.226048909823263 0 1 0 I I #
edge $-1 $394 -4.1922639980287215 $392 4.1922639980287215 $284 $454 forward 7 unknown #
vertex $-1 $286 $455 #
straight-curve $-1 -77.552415540025024 -63.880020595786867 3.8415209137658195 0 1 0 I I #
vertex $-1 $287 $456 #
straight-curve $-1 -77.552415540025024 -63.880020595786867 12.226048909823263 0 -1 0 I I #
point $-1 -77.552415540025024 -49.465551608171907 3.8415209137658195 #
straight-curve $-1 0 -49.465551608171907 3.8415209137658195 -1 0 0 I I #
point $-1 77.552415540025024 -49.465551608171907 3.8415209137658195 #
plane-surface $-1 -77.552415540025024 0 0 1 0 0 0 0 -1 forward_v I I I I #
coedge $-1 $457 $402 $304 $406 forward $299 $-1 #
coedge $-1 $301 $410 $457 $458 forward $194 $-1 #
coedge $-1 $400 $459 $302 $403 reversed $299 $-1 #
edge $-1 $404 -77.552415540025024 $415 77.552415540025024 $402 $460 forward 7 unknown #
vertex $-1 $303 $461 #
straight-curve $-1 77.552415540025024 63.88002059578686 12.226048909823263 0 1 0 I I #
edge $-1 $404 -4.1922639980287215 $407 4.1922639980287215 $304 $462 forward 7 unknown #
vertex $-1 $305 $463 #
straight-curve $-1 77.552415540025024 63.88002059578686 3.8415209137658195 0 -1 0 I I #
point $-1 77.552415540025024 49.4655516081719 3.8415209137658195 #
coedge $-1 $401 $308 $311 $413 forward $194 $-1 #
straight-curve $-1 0 49.465551608171907 3.8415209137658195 1 0 0 I I #
coedge $-1 $311 $310 $459 $464 forward $312 $-1 #
edge $-1 $313 -14.41446898761496 $465 14.414468987614967 $311 $466 forward 7 unknown #
point $-1 -77.552415540025024 49.4655516081719 3.8415209137658195 #
vertex $-1 $403 $467 #
straight-curve $-1 -77.552415540025024 63.88002059578686 12.226048909823263 0 -1 0 I I #
edge $-1 $418 29.687660121467118 $421 33.404534628464994 $319 $468 forward 7 unknown #
vertex $-1 $333 $469 #
straight-curve $-1 -103.07007472125574 0.51121355004505276 23.641324227417101 -1 0 0 I I #
edge $-1 $421 -3.3481286055791877 $330 9.0219587166474575 $329 $470 forward 7 unknown #
vertex $-1 $420 $471 #
straight-curve $-1 -77.552415540025038 0.51121355004505276 19.924449720419204 0.55919289150049634 0 0.82903758062907751 I I #
point $-1 -75.045352107103824 0.51121355004505276 23.641324227417101 #
point $-1 -77.552415540025024 -11.858873772181592 19.924449720419226 #
straight-curve $-1 -77.552415540025024 0 23.641324227417101 0 -1 0 I I #
vertex $-1 $336 $472 #
point $-1 -74.082020586665919 -8.3245631086882597 21.49381182328316 #
vertex $-1 $340 $473 #
point $-1 -74.082020586665919 -3.0230971134482729 21.49381182328316 #
coedge $-1 $355 $354 $347 $431 forward $344 $-1 #
edge $-1 $432 94.083435474627635 $435 98.926017138044912 $430 $474 forward 7 unknown #
vertex $-1 $359 $475 #
straight-curve $-1 21.619152782869563 -6.509012846010318 23.641324227417101 1 0 0 I I #
edge $-1 $435 -6.0079368933222135 $356 5.0057849879460043 $355 $476 forward 7 unknown #
vertex $-1 $434 $477 #
straight-curve $-1 -47.93002786716275 -6.509012846010318 109.9670759969017 -0.80901698891910034 0 0.5877852598018023 I I #
point $-1 70.887173820194008 -6.509012846010318 23.641324227417087 #
point $-1 77.552415540025024 4.5047090352578998 18.798742563999824 #
straight-curve $-1 77.552415540025024 0 23.641324227417101 0 1 0 I I #
vertex $-1 $362 $478 #
point $-1 72.397724203995367 -1.0021519053762091 16.160216191059419 #
straight-curve $-1 -77.552415540025024 49.465551608171907 0 0 0 -1 I I #
point $-1 -77.552415540025024 -49.465551608171907 -23.641324227417101 #
straight-curve $-1 -77.552415540025024 0 -23.641324227417101 0 1 0 I I #
point $-1 -77.552415540025024 49.465551608171907 -23.641324227417101 #
coedge $-1 $450 $383 $384 $447 reversed $278 $-1 #
edge $-1 $448 -77.552415540025024 $392 77.552415540025024 $446 $479 forward 7 unknown #
vertex $-1 $452 $480 #
straight-curve $-1 77.552415540025024 -63.880020595786867 3.8415209137658195 0 -1 0 I I #
coedge $-1 $386 $446 $388 $452 reversed $278 $-1 #
straight-curve $-1 0 -78.294489583401827 12.226048909823263 1 0 0 I I #
edge $-1 $389 -4.1922639980287215 $448 4.1922639980287215 $388 $481 forward 7 unknown #
point $-1 77.552415540025024 -78.294489583401827 12.226048909823263 #
straight-curve $-1 -77.552415540025024 -78.294489583401827 8.033784911794541 0 0 -1 I I #
point $-1 -77.552415540025024 -78.294489583401827 3.8415209137658195 #
point $-1 -77.552415540025024 -78.294489583401827 12.226048909823263 #
coedge $-1 $459 $400 $401 $458 reversed $299 $-1 #
edge $-1 $465 -77.552415540025024 $407 77.552415540025024 $457 $482 forward 7 unknown #
coedge $-1 $402 $457 $412 $464 reversed $299 $-1 #
straight-curve $-1 0 78.294489583401827 12.226048909823263 -1 0 0 I I #
point $-1 77.552415540025024 78.294489583401827 12.226048909823263 #
straight-curve $-1 77.552415540025024 78.294489583401827 8.033784911794541 0 0 -1 I I #
point $-1 77.552415540025024 78.294489583401827 3.8415209137658195 #
edge $-1 $415 -4.1922639980287215 $465 4.1922639980287215 $459 $483 forward 7 unknown #
vertex $-1 $458 $484 #
straight-curve $-1 -77.552415540025024 63.88002059578686 3.8415209137658195 0 1 0 I I #
point $-1 -77.552415540025024 78.294489583401827 12.226048909823263 #
straight-curve $-1 -77.552415540025024 0.51121355004505276 53.328984348884219 0 0 -1 I I #
point $-1 -77.552415540025024 0.51121355004505276 23.641324227417101 #
straight-curve $-1 -77.552415540025024 -2.8369150555341349 19.924449720419247 0 -1 0 I I #
point $-1 -77.552415540025024 0.51121355004505276 19.924449720419226 #
point $-1 -73.81217589753733 -8.3245631086882597 20.105581351153585 #
point $-1 -73.81217589753733 -3.0230971134482729 20.105581351153585 #
straight-curve $-1 77.552415540025024 -6.509012846010318 117.72475970204474 0 0 -1 I I #
point $-1 77.552415540025024 -6.509012846010318 23.641324227417101 #
straight-curve $-1 77.552415540025024 -0.50107595268810456 18.798742563999831 0 1 0 I I #
point $-1 77.552415540025024 -6.509012846010318 18.798742563999824 #
point $-1 70.30252083091402 -1.0021519053762091 15.828368597383472 #
straight-curve $-1 0 -78.294489583401827 3.8415209137658195 -1 0 0 I I #
point $-1 77.552415540025024 -78.294489583401827 3.8415209137658195 #
straight-curve $-1 77.552415540025024 -78.294489583401827 8.033784911794541 0 0 -1 I I #
straight-curve $-1 0 78.294489583401827 3.8415209137658195 1 0 0 I I #
straight-curve $-1 -77.552415540025024 78.294489583401827 8.033784911794541 0 0 -1 I I #
point $-1 -77.552415540025024 78.294489583401827 3.8415209137658195 #
End-of-ACIS-data 