500 0 8 0           
7 Unknown 11 ACIS 5.0 NT 24 Thu Mar 25 20:09:03 1999 
-1 9.9999999999999995e-007 1e-010 
body $-1 $8 $-1 $9 #
body $-1 $10 $-1 $11 #
body $-1 $12 $-1 $13 #
body $-1 $14 $-1 $15 #
body $-1 $16 $-1 $17 #
body $-1 $18 $-1 $19 #
body $-1 $20 $-1 $21 #
body $-1 $22 $-1 $23 #
lump $-1 $-1 $24 $0 #
transform $-1 1 0 0 0 1 0 0 0 1 51.765495773186437 25.679742844726267 11.800675310051751 1 rotate no_reflect no_shear #
lump $-1 $-1 $25 $1 #
transform $-1 1 0 0 0 1 0 0 0 1 51.765495773186437 25.679742844726267 11.800675310051751 1 rotate no_reflect no_shear #
lump $-1 $-1 $26 $2 #
transform $-1 1 0 0 0 1 0 0 0 1 51.765495773186437 25.679742844726267 11.800675310051751 1 rotate no_reflect no_shear #
lump $-1 $-1 $27 $3 #
transform $-1 1 0 0 0 1 0 0 0 1 51.765495773186437 25.679742844726267 11.800675310051751 1 rotate no_reflect no_shear #
lump $-1 $-1 $28 $4 #
transform $-1 1 0 0 0 1 0 0 0 1 51.765495773186437 25.679742844726267 11.800675310051751 1 rotate no_reflect no_shear #
lump $-1 $-1 $29 $5 #
transform $-1 1 0 0 0 1 0 0 0 1 51.765495773186437 25.679742844726267 11.800675310051751 1 rotate no_reflect no_shear #
lump $-1 $-1 $30 $6 #
transform $-1 1 0 0 0 1 0 0 0 1 51.765495773186437 25.679742844726267 11.800675310051751 1 rotate no_reflect no_shear #
lump $-1 $-1 $31 $7 #
transform $-1 1 0 0 0 1 0 0 0 1 51.765495773186437 25.679742844726267 11.800675310051751 1 rotate no_reflect no_shear #
shell $-1 $-1 $-1 $32 $-1 $8 #
shell $-1 $-1 $-1 $33 $-1 $10 #
shell $-1 $-1 $-1 $34 $-1 $12 #
shell $-1 $-1 $-1 $35 $-1 $14 #
shell $-1 $-1 $-1 $36 $-1 $16 #
shell $-1 $-1 $-1 $37 $-1 $18 #
shell $-1 $-1 $-1 $38 $-1 $20 #
shell $-1 $-1 $-1 $39 $-1 $22 #
face $-1 $40 $41 $24 $-1 $42 forward single #
face $-1 $43 $44 $25 $-1 $45 reversed single #
face $-1 $46 $47 $26 $-1 $48 reversed single #
face $-1 $49 $50 $27 $-1 $51 forward single #
face $-1 $52 $53 $28 $-1 $54 forward single #
face $-1 $55 $56 $29 $-1 $57 reversed single #
face $-1 $58 $59 $30 $-1 $60 forward single #
face $-1 $61 $62 $31 $-1 $63 forward single #
face $-1 $64 $65 $24 $-1 $66 reversed single #
loop $-1 $-1 $67 $32 #
plane-surface $-1 0 0 11.800675310051751 0 0 1 1 0 0 forward_v I I I I #
face $-1 $68 $69 $25 $-1 $70 reversed single #
loop $-1 $-1 $71 $33 #
plane-surface $-1 0 -19.186360661979961 6.028583160501185 0 0 1 1 0 0 forward_v I I I I #
face $-1 $72 $73 $26 $-1 $74 reversed single #
loop $-1 $-1 $75 $34 #
plane-surface $-1 77.190184007356692 23.101977623393218 148.81744802623228 0 -1 0 -0.81915205242281985 0 -0.57357642473473569 forward_v I I I I #
face $-1 $76 $77 $27 $-1 $78 forward single #
loop $-1 $79 $80 $35 #
cone-surface $-1 48.649773988501394 17.462754107697496 7.79074992104574 -0.81915205242281985 0 -0.57357642473473569 0.28678821236736785 0 -0.40957602621140993 1 I I 0 1 0.5 forward I I I I #
face $-1 $81 $82 $28 $-1 $83 forward single #
loop $-1 $84 $85 $36 #
cone-surface $-1 48.649773988501394 20.846288217114928 7.79074992104574 -0.81915205242281985 0 -0.57357642473473569 0.28678821236736785 0 -0.40957602621140993 1 I I 0 1 0.5 forward I I I I #
face $-1 $86 $87 $29 $-1 $88 reversed single #
loop $-1 $-1 $89 $37 #
plane-surface $-1 -115.50553956988644 5.2877364393150792 87.683065168111654 0 1 0 -0.61566148304635926 0 0.78801074757464917 forward_v I I I I #
face $-1 $90 $91 $30 $-1 $92 forward single #
loop $-1 $93 $94 $38 #
cone-surface $-1 -47.133030861279472 7.3263837618793453 7.6907698381222005 0.61566148304635926 0 -0.78801074757464917 0.78801074757464917 0 0.61566148304635926 1 I I 0 1 1 forward I I I I #
face $-1 $95 $96 $31 $-1 $97 forward single #
loop $-1 $98 $99 $39 #
cone-surface $-1 -47.133030861279472 10.384354745725748 7.6907698381222005 0.61566148304635926 0 -0.78801074757464917 0.78801074757464917 0 0.61566148304635926 1 I I 0 1 1 forward I I I I #
face $-1 $100 $101 $24 $-1 $102 reversed single #
loop $-1 $-1 $103 $40 #
plane-surface $-1 0 0 -11.800675310051751 0 0 1 1 0 0 forward_v I I I I #
coedge $-1 $104 $105 $106 $107 forward $41 $-1 #
face $-1 $108 $109 $25 $-1 $110 reversed single #
loop $-1 $-1 $111 $43 #
plane-surface $-1 0 -12.692978479233656 8.9146292352764682 0 -1 0 0 0 -1 forward_v I I I I #
coedge $-1 $112 $113 $114 $115 reversed $44 $-1 #
face $-1 $116 $117 $26 $-1 $118 reversed single #
loop $-1 $-1 $119 $46 #
plane-surface $-1 -7.6174402072242628 19.154521162406208 89.434512045821577 0.81915205242281985 0 0.57357642473473569 0.57357642473473569 0 -0.81915205242281985 forward_v I I I I #
coedge $-1 $120 $121 $122 $123 reversed $47 $-1 #
face $-1 $-1 $124 $27 $-1 $125 forward single #
loop $-1 $126 $127 $49 #
cone-surface $-1 47.840834149995466 17.462754107697496 7.2243241652615993 -0.81915205242281985 0 -0.57357642473473569 0.14339410618368392 0 -0.20478801310570496 1 I I -0.70710678118654746 0.70710678118654746 0.25 forward I I I I #
loop $-1 $-1 $128 $35 #
coedge $-1 $80 $80 $129 $130 reversed $50 $-1 #
face $-1 $-1 $131 $28 $-1 $132 forward single #
loop $-1 $133 $134 $52 #
cone-surface $-1 47.840834149995466 20.846288217114928 7.2243241652615993 -0.81915205242281985 0 -0.57357642473473569 0.14339410618368392 0 -0.20478801310570496 1 I I -0.70710678118654746 0.70710678118654746 0.25 forward I I I I #
loop $-1 $-1 $135 $36 #
coedge $-1 $85 $85 $136 $137 reversed $53 $-1 #
face $-1 $138 $139 $29 $-1 $140 reversed single #
loop $-1 $-1 $141 $55 #
plane-surface $-1 -51.76549577318643 8.8553692538025466 6.0995311225096742 -0.61566148304635926 0 0.78801074757464917 0.78801074757464917 0 0.61566148304635926 forward_v I I I I #
coedge $-1 $142 $143 $144 $145 reversed $56 $-1 #
face $-1 $-1 $146 $30 $-1 $147 forward single #
loop $-1 $148 $149 $58 #
cone-surface $-1 -45.841301032550746 7.3263837618793453 6.0374310861763547 0.61566148304635926 0 -0.78801074757464917 0.39400537378732459 0 0.30783074152317963 1 I I -0.70710678118654746 0.70710678118654746 0.5 forward I I I I #
loop $-1 $-1 $150 $38 #
coedge $-1 $94 $94 $151 $152 reversed $59 $-1 #
face $-1 $-1 $153 $31 $-1 $154 forward single #
loop $-1 $155 $156 $61 #
cone-surface $-1 -45.841301032550746 10.384354745725748 6.0374310861763547 0.61566148304635926 0 -0.78801074757464917 0.39400537378732459 0 0.30783074152317963 1 I I -0.70710678118654746 0.70710678118654746 0.5 forward I I I I #
loop $-1 $-1 $157 $39 #
coedge $-1 $99 $99 $158 $159 reversed $62 $-1 #
face $-1 $160 $161 $24 $-1 $162 reversed single #
loop $-1 $-1 $163 $64 #
plane-surface $-1 0 -25.679742844726267 0 0 1 0 0 0 1 forward_v I I I I #
coedge $-1 $164 $165 $166 $167 forward $65 $-1 #
coedge $-1 $168 $67 $169 $170 forward $41 $-1 #
coedge $-1 $67 $168 $171 $172 forward $41 $-1 #
coedge $-1 $173 $174 $67 $107 reversed $175 $-1 #
edge $-1 $176 -25.679742844726267 $177 25.679742844726267 $106 $178 forward 7 unknown #
face $-1 $179 $180 $25 $-1 $181 reversed single #
loop $-1 $-1 $182 $68 #
plane-surface $-1 -51.765495773186437 0 0 1 0 0 0 0 -1 forward_v I I I I #
coedge $-1 $183 $184 $185 $186 reversed $69 $-1 #
coedge $-1 $187 $71 $188 $189 reversed $44 $-1 #
coedge $-1 $71 $187 $183 $190 forward $44 $-1 #
coedge $-1 $185 $191 $71 $115 forward $192 $-1 #
edge $-1 $193 -16.086562513736286 $194 -3.0997981482436749 $114 $195 forward 7 unknown #
face $-1 $196 $197 $26 $-1 $198 reversed single #
loop $-1 $-1 $199 $72 #
plane-surface $-1 77.190184007356692 15.207064701419199 148.81744802623228 0 1 0 0.81915205242281985 0 0.57357642473473569 forward_v I I I I #
coedge $-1 $200 $201 $202 $203 reversed $73 $-1 #
coedge $-1 $121 $75 $204 $205 reversed $47 $-1 #
coedge $-1 $75 $120 $200 $206 reversed $47 $-1 #
coedge $-1 $202 $207 $75 $123 forward $208 $-1 #
edge $-1 $209 -13.170403769508091 $210 -8.1472638509384652 $122 $211 forward 7 unknown #
loop $-1 $-1 $129 $76 #
plane-surface $-1 -7.6174402072242628 19.154521162406208 89.434512045821577 0.81915205242281985 0 0.57357642473473569 0.57357642473473569 0 -0.81915205242281985 forward_v I I I I #
loop $-1 $-1 $212 $49 #
coedge $-1 $127 $127 $128 $213 reversed $77 $-1 #
coedge $-1 $128 $128 $127 $213 forward $79 $-1 #
coedge $-1 $129 $129 $80 $130 forward $124 $-1 #
edge $-1 $214 0 $214 6.2831853071796004 $129 $215 forward 7 unknown #
loop $-1 $-1 $136 $81 #
plane-surface $-1 -7.6174402072242628 19.154521162406208 89.434512045821577 0.81915205242281985 0 0.57357642473473569 0.57357642473473569 0 -0.81915205242281985 forward_v I I I I #
loop $-1 $-1 $216 $52 #
coedge $-1 $134 $134 $135 $217 reversed $82 $-1 #
coedge $-1 $135 $135 $134 $217 forward $84 $-1 #
coedge $-1 $136 $136 $85 $137 forward $131 $-1 #
edge $-1 $218 0 $218 6.2831853071796004 $136 $219 forward 7 unknown #
face $-1 $220 $221 $29 $-1 $222 forward single #
loop $-1 $-1 $223 $86 #
plane-surface $-1 -115.50553956988644 12.423002068290014 87.683065168111654 0 -1 0 0.61566148304635926 0 -0.78801074757464917 forward_v I I I I #
coedge $-1 $224 $225 $226 $227 reversed $87 $-1 #
coedge $-1 $143 $89 $228 $229 reversed $56 $-1 #
coedge $-1 $89 $142 $224 $230 reversed $56 $-1 #
coedge $-1 $226 $231 $89 $145 forward $221 $-1 #
edge $-1 $232 5.9872740117567815 $233 13.28440566115966 $144 $234 forward 7 unknown #
loop $-1 $-1 $151 $90 #
plane-surface $-1 -51.76549577318643 8.8553692538025466 6.0995311225096742 -0.61566148304635926 0 0.78801074757464917 0.78801074757464917 0 0.61566148304635926 forward_v I I I I #
loop $-1 $-1 $235 $58 #
coedge $-1 $149 $149 $150 $236 reversed $91 $-1 #
coedge $-1 $150 $150 $149 $236 forward $93 $-1 #
coedge $-1 $151 $151 $94 $152 forward $146 $-1 #
edge $-1 $237 0 $237 6.2831853071796004 $151 $238 forward 7 unknown #
loop $-1 $-1 $158 $95 #
plane-surface $-1 -51.76549577318643 8.8553692538025466 6.0995311225096742 -0.61566148304635926 0 0.78801074757464917 0.78801074757464917 0 0.61566148304635926 forward_v I I I I #
loop $-1 $-1 $239 $61 #
coedge $-1 $156 $156 $157 $240 reversed $96 $-1 #
coedge $-1 $157 $157 $156 $240 forward $98 $-1 #
coedge $-1 $158 $158 $99 $159 forward $153 $-1 #
edge $-1 $241 0 $241 6.2831853071796004 $158 $242 forward 7 unknown #
face $-1 $243 $244 $24 $-1 $245 reversed single #
loop $-1 $-1 $246 $100 #
plane-surface $-1 -51.765495773186437 0 0 1 0 0 0 0 -1 forward_v I I I I #
coedge $-1 $247 $171 $248 $249 forward $101 $-1 #
coedge $-1 $250 $103 $247 $251 forward $65 $-1 #
coedge $-1 $103 $250 $252 $253 forward $65 $-1 #
coedge $-1 $174 $173 $103 $167 reversed $175 $-1 #
edge $-1 $254 -25.679742844726267 $255 25.679742844726267 $166 $256 forward 7 unknown #
coedge $-1 $105 $104 $257 $258 forward $41 $-1 #
coedge $-1 $259 $260 $104 $170 reversed $244 $-1 #
edge $-1 $177 -51.765495773186437 $261 51.765495773186437 $169 $262 forward 7 unknown #
coedge $-1 $163 $263 $105 $172 reversed $101 $-1 #
edge $-1 $264 -51.765495773186437 $176 51.765495773186437 $171 $265 forward 7 unknown #
coedge $-1 $166 $106 $263 $266 forward $175 $-1 #
coedge $-1 $106 $166 $259 $267 reversed $175 $-1 #
loop $-1 $-1 $173 $243 #
vertex $-1 $107 $268 #
vertex $-1 $107 $269 #
straight-curve $-1 51.765495773186437 0 11.800675310051751 0 1 0 I I #
face $-1 $270 $271 $25 $-1 $272 forward single #
loop $-1 $-1 $188 $108 #
plane-surface $-1 0 -25.679742844726267 0 0 1 0 0 0 1 forward_v I I I I #
coedge $-1 $273 $274 $275 $276 forward $109 $-1 #
coedge $-1 $275 $111 $113 $190 reversed $69 $-1 #
coedge $-1 $111 $275 $277 $278 reversed $69 $-1 #
coedge $-1 $279 $114 $111 $186 forward $192 $-1 #
edge $-1 $194 1.5712685428629509 $280 7.3433606924135173 $185 $281 forward 7 unknown #
coedge $-1 $113 $112 $273 $282 reversed $44 $-1 #
coedge $-1 $283 $284 $112 $189 forward $180 $-1 #
edge $-1 $285 -51.765495773186437 $193 51.765495773186437 $188 $286 forward 7 unknown #
edge $-1 $287 -51.765495773186437 $194 51.765495773186437 $183 $288 forward 7 unknown #
coedge $-1 $114 $279 $283 $289 forward $192 $-1 #
loop $-1 $-1 $185 $270 #
vertex $-1 $189 $290 #
vertex $-1 $115 $291 #
straight-curve $-1 51.765495773186437 -9.5931803309899806 6.028583160501185 0 1 0 I I #
face $-1 $-1 $208 $26 $-1 $292 forward single #
loop $-1 $-1 $293 $116 #
plane-surface $-1 51.765495773186437 0 0 -1 0 0 0 0 1 forward_v I I I I #
coedge $-1 $294 $295 $296 $297 reversed $117 $-1 #
coedge $-1 $298 $119 $121 $206 forward $73 $-1 #
coedge $-1 $119 $298 $294 $299 forward $73 $-1 #
coedge $-1 $296 $122 $119 $203 forward $208 $-1 #
edge $-1 $210 -13.524717042190114 $300 -5.6298041202160949 $202 $301 forward 7 unknown #
coedge $-1 $302 $303 $120 $205 forward $197 $-1 #
edge $-1 $304 -69.781836181875519 $209 -62.608048703064391 $204 $305 forward 7 unknown #
edge $-1 $210 94.773414174024126 $304 103.53099154637289 $121 $306 forward 7 unknown #
coedge $-1 $122 $296 $302 $307 forward $208 $-1 #
loop $-1 $-1 $296 $196 #
vertex $-1 $205 $308 #
vertex $-1 $123 $309 #
straight-curve $-1 38.595092003678346 23.101977623393218 11.800675310051759 -1 0 0 I I #
coedge $-1 $212 $212 $-1 $310 reversed $126 $-1 #
edge $-1 $311 0 $311 6.2831853071796004 $127 $312 forward 7 unknown #
vertex $-1 $130 $313 #
ellipse-curve $-1 49.253925813901617 17.462754107697496 8.2137815706461925 0.81915205242281985 0 0.57357642473473569 0.28678821236736785 0 -0.40957602621140993 1 I I #
coedge $-1 $216 $216 $-1 $314 reversed $133 $-1 #
edge $-1 $315 0 $315 6.2831853071796004 $134 $316 forward 7 unknown #
vertex $-1 $137 $317 #
ellipse-curve $-1 49.253925813901617 20.846288217114928 8.2137815706461925 0.81915205242281985 0 0.57357642473473569 0.28678821236736785 0 -0.40957602621140993 1 I I #
face $-1 $-1 $318 $29 $-1 $319 reversed single #
loop $-1 $-1 $144 $138 #
plane-surface $-1 0 0 11.800675310051751 0 0 1 1 0 0 forward_v I I I I #
coedge $-1 $320 $321 $322 $323 reversed $139 $-1 #
coedge $-1 $324 $141 $143 $230 forward $87 $-1 #
coedge $-1 $141 $324 $320 $325 forward $87 $-1 #
coedge $-1 $322 $144 $141 $227 forward $221 $-1 #
edge $-1 $233 0.86005181241380591 $326 7.9953174413887407 $226 $327 forward 7 unknown #
coedge $-1 $328 $329 $142 $229 forward $318 $-1 #
edge $-1 $330 -37.74200146154616 $232 -32.040857274004075 $228 $331 forward 7 unknown #
edge $-1 $233 -9.2601930517598756 $330 8.8800565823946346e-015 $143 $332 forward 7 unknown #
coedge $-1 $144 $322 $328 $333 forward $221 $-1 #
vertex $-1 $229 $334 #
vertex $-1 $145 $335 #
straight-curve $-1 -57.752769784943219 5.2877364393150792 11.800675310051751 1 0 0 I I #
coedge $-1 $235 $235 $-1 $336 reversed $148 $-1 #
edge $-1 $337 0 $337 6.2831853071796004 $149 $338 forward 7 unknown #
vertex $-1 $152 $339 #
ellipse-curve $-1 -48.116929948485001 7.3263837618793453 8.9501032162807039 -0.61566148304635926 0 0.78801074757464917 0.78801074757464917 0 0.61566148304635926 1 I I #
coedge $-1 $239 $239 $-1 $340 reversed $155 $-1 #
edge $-1 $341 0 $341 6.2831853071796004 $156 $342 forward 7 unknown #
vertex $-1 $159 $343 #
ellipse-curve $-1 -48.116929948485001 10.384354745725748 8.9501032162807039 -0.61566148304635926 0 0.78801074757464917 0.78801074757464917 0 0.61566148304635926 1 I I #
face $-1 $-1 $175 $24 $-1 $344 reversed single #
loop $-1 $-1 $259 $160 #
plane-surface $-1 0 25.679742844726267 0 0 -1 0 0 0 -1 forward_v I I I I #
coedge $-1 $345 $257 $260 $346 forward $161 $-1 #
coedge $-1 $263 $163 $164 $251 reversed $101 $-1 #
coedge $-1 $257 $345 $163 $249 reversed $161 $-1 #
edge $-1 $264 -11.800675310051751 $347 11.800675310051751 $248 $348 forward 7 unknown #
coedge $-1 $165 $164 $345 $349 forward $65 $-1 #
edge $-1 $255 -51.765495773186437 $347 51.765495773186437 $247 $350 forward 7 unknown #
coedge $-1 $260 $259 $165 $253 reversed $244 $-1 #
edge $-1 $351 -51.765495773186437 $254 51.765495773186437 $252 $352 forward 7 unknown #
vertex $-1 $167 $353 #
vertex $-1 $266 $354 #
straight-curve $-1 51.765495773186437 0 -11.800675310051751 0 -1 0 I I #
coedge $-1 $246 $248 $168 $258 reversed $161 $-1 #
edge $-1 $261 -25.679742844726267 $264 25.679742844726267 $257 $355 forward 7 unknown #
coedge $-1 $252 $169 $174 $267 forward $244 $-1 #
coedge $-1 $169 $252 $246 $346 reversed $244 $-1 #
vertex $-1 $170 $356 #
straight-curve $-1 0 25.679742844726267 11.800675310051751 -1 0 0 I I #
coedge $-1 $171 $247 $173 $266 reversed $101 $-1 #
vertex $-1 $258 $357 #
straight-curve $-1 0 -25.679742844726267 11.800675310051751 1 0 0 I I #
edge $-1 $176 -11.800675310051751 $255 11.800675310051751 $173 $358 forward 7 unknown #
edge $-1 $177 -11.800675310051751 $254 11.800675310051751 $174 $359 forward 7 unknown #
point $-1 51.765495773186437 -25.679742844726267 11.800675310051751 #
point $-1 51.765495773186437 25.679742844726267 11.800675310051751 #
face $-1 $-1 $192 $25 $-1 $360 reversed single #
loop $-1 $-1 $277 $179 #
plane-surface $-1 0 0 11.800675310051751 0 0 1 1 0 0 forward_v I I I I #
coedge $-1 $361 $182 $187 $282 forward $109 $-1 #
coedge $-1 $182 $361 $362 $363 reversed $109 $-1 #
coedge $-1 $184 $183 $182 $276 reversed $69 $-1 #
edge $-1 $364 -7.3433606924135173 $287 -1.5712685428629509 $182 $365 forward 7 unknown #
coedge $-1 $362 $366 $184 $278 forward $271 $-1 #
edge $-1 $280 -51.765495773186437 $364 51.765495773186437 $277 $367 forward 7 unknown #
coedge $-1 $191 $185 $366 $368 reversed $192 $-1 #
vertex $-1 $186 $369 #
straight-curve $-1 51.765495773186437 -12.692978479233656 4.4573146176382341 0 0 1 I I #
edge $-1 $287 3.0997981482436749 $285 16.086562513736286 $273 $370 forward 7 unknown #
coedge $-1 $371 $188 $191 $289 reversed $180 $-1 #
coedge $-1 $188 $371 $361 $372 forward $180 $-1 #
vertex $-1 $189 $373 #
straight-curve $-1 0 -25.679742844726267 6.028583160501185 1 0 0 I I #
vertex $-1 $282 $374 #
straight-curve $-1 0 -12.692978479233656 6.028583160501185 1 0 0 I I #
edge $-1 $375 -11.800675310051751 $193 -6.028583160501185 $191 $376 forward 7 unknown #
point $-1 51.765495773186437 -25.679742844726267 6.028583160501185 #
point $-1 51.765495773186437 -12.692978479233656 6.028583160501185 #
plane-surface $-1 0 0 11.800675310051751 0 0 1 1 0 0 forward_v I I I I #
coedge $-1 $303 $302 $295 $377 forward $197 $-1 #
coedge $-1 $295 $199 $201 $299 reversed $117 $-1 #
coedge $-1 $199 $294 $293 $377 reversed $117 $-1 #
coedge $-1 $207 $202 $199 $297 forward $208 $-1 #
edge $-1 $300 8.1472638509384652 $378 13.170403769508091 $296 $379 forward 7 unknown #
coedge $-1 $201 $200 $303 $380 reversed $73 $-1 #
edge $-1 $381 -103.53099154637289 $300 -94.773414174024126 $294 $382 forward 7 unknown #
vertex $-1 $203 $383 #
straight-curve $-1 46.742355854616818 9.5772605812031042 11.800675310051759 0 -1 0 I I #
coedge $-1 $293 $204 $207 $307 reversed $197 $-1 #
coedge $-1 $204 $293 $298 $380 forward $197 $-1 #
vertex $-1 $205 $384 #
straight-curve $-1 51.765495773186437 23.101977623393218 74.408724013116142 0 0 1 I I #
straight-curve $-1 -7.6174402072242628 23.101977623393218 89.434512045821577 0.57357642473473569 0 -0.81915205242281985 I I #
edge $-1 $378 15.207064701419199 $209 23.101977623393218 $302 $385 forward 7 unknown #
point $-1 51.765495773186437 23.101977623393218 11.800675310051751 #
point $-1 46.742355854616811 23.101977623393218 11.800675310051759 #
edge $-1 $386 1 $386 0 $212 $-1 forward 7 unknown #
vertex $-1 $213 $387 #
ellipse-curve $-1 48.045622163101172 17.462754107697496 7.3677182714452831 0.81915205242281985 0 0.57357642473473569 0.28678821236736785 0 -0.40957602621140993 1 I I #
point $-1 49.540714026268986 17.462754107697496 7.8042055444347875 #
edge $-1 $388 1 $388 0 $216 $-1 forward 7 unknown #
vertex $-1 $217 $389 #
ellipse-curve $-1 48.045622163101172 20.846288217114928 7.3677182714452831 0.81915205242281985 0 0.57357642473473569 0.28678821236736785 0 -0.40957602621140993 1 I I #
point $-1 49.540714026268986 20.846288217114928 7.8042055444347875 #
loop $-1 $-1 $228 $220 #
plane-surface $-1 -51.765495773186437 0 0 1 0 0 0 0 -1 forward_v I I I I #
coedge $-1 $321 $223 $225 $325 reversed $139 $-1 #
coedge $-1 $223 $320 $390 $391 reversed $139 $-1 #
coedge $-1 $231 $226 $223 $323 forward $221 $-1 #
edge $-1 $326 -13.28440566115966 $392 -5.9872740117567815 $322 $393 forward 7 unknown #
coedge $-1 $225 $224 $329 $394 reversed $87 $-1 #
edge $-1 $395 -8.8800565823946346e-015 $326 9.2601930517598756 $320 $396 forward 7 unknown #
vertex $-1 $227 $397 #
straight-curve $-1 -44.468364123783559 4.4276846269012733 11.800675310051751 0 1 0 I I #
coedge $-1 $390 $228 $231 $333 reversed $318 $-1 #
coedge $-1 $228 $390 $324 $394 forward $318 $-1 #
vertex $-1 $229 $398 #
straight-curve $-1 -51.765495773186437 5.2877364393150792 43.841532584055827 0 0 1 I I #
straight-curve $-1 -51.76549577318643 5.2877364393150792 6.0995311225096742 -0.78801074757464917 0 -0.61566148304635926 I I #
edge $-1 $392 -12.423002068290014 $232 -5.2877364393150792 $328 $399 forward 7 unknown #
point $-1 -51.765495773186437 5.2877364393150792 11.800675310051751 #
point $-1 -44.468364123783559 5.2877364393150792 11.800675310051751 #
edge $-1 $400 1 $400 0 $235 $-1 forward 7 unknown #
vertex $-1 $236 $401 #
ellipse-curve $-1 -46.149131774073922 7.3263837618793453 6.4314364599636793 -0.61566148304635926 0 0.78801074757464917 0.78801074757464917 0 0.61566148304635926 1 I I #
point $-1 -47.32891920091037 7.3263837618793453 9.5657646993270813 #
edge $-1 $402 1 $402 0 $239 $-1 forward 7 unknown #
vertex $-1 $240 $403 #
ellipse-curve $-1 -46.149131774073922 10.384354745725748 6.4314364599636793 -0.61566148304635926 0 0.78801074757464917 0.78801074757464917 0 0.61566148304635926 1 I I #
point $-1 -47.32891920091037 10.384354745725748 9.5657646993270813 #
plane-surface $-1 51.765495773186437 0 0 -1 0 0 0 0 1 forward_v I I I I #
coedge $-1 $248 $246 $250 $349 reversed $161 $-1 #
edge $-1 $261 -11.800675310051751 $351 11.800675310051751 $260 $404 forward 7 unknown #
vertex $-1 $349 $405 #
straight-curve $-1 -51.765495773186437 -25.679742844726267 0 0 0 -1 I I #
edge $-1 $347 -25.679742844726267 $351 25.679742844726267 $345 $406 forward 7 unknown #
straight-curve $-1 0 -25.679742844726267 -11.800675310051751 -1 0 0 I I #
vertex $-1 $253 $407 #
straight-curve $-1 0 25.679742844726267 -11.800675310051751 1 0 0 I I #
point $-1 51.765495773186437 25.679742844726267 -11.800675310051751 #
point $-1 51.765495773186437 -25.679742844726267 -11.800675310051751 #
straight-curve $-1 -51.765495773186437 0 11.800675310051751 0 -1 0 I I #
point $-1 -51.765495773186437 25.679742844726267 11.800675310051751 #
point $-1 -51.765495773186437 -25.679742844726267 11.800675310051751 #
straight-curve $-1 51.765495773186437 -25.679742844726267 0 0 0 -1 I I #
straight-curve $-1 51.765495773186437 25.679742844726267 0 0 0 -1 I I #
plane-surface $-1 51.765495773186437 0 0 -1 0 0 0 0 1 forward_v I I I I #
coedge $-1 $274 $273 $284 $372 reversed $109 $-1 #
coedge $-1 $408 $277 $274 $363 forward $271 $-1 #
edge $-1 $364 12.692978479233656 $409 25.679742844726267 $274 $410 forward 7 unknown #
vertex $-1 $363 $411 #
straight-curve $-1 -51.765495773186437 -12.692978479233656 4.4573146176382341 0 0 -1 I I #
coedge $-1 $277 $408 $279 $368 forward $271 $-1 #
straight-curve $-1 0 -12.692978479233656 11.800675310051751 -1 0 0 I I #
edge $-1 $375 -25.679742844726267 $280 -12.692978479233656 $279 $412 forward 7 unknown #
point $-1 51.765495773186437 -12.692978479233656 11.800675310051751 #
straight-curve $-1 -51.765495773186437 -9.5931803309899806 6.028583160501185 0 -1 0 I I #
coedge $-1 $284 $283 $408 $413 reversed $180 $-1 #
edge $-1 $409 -11.800675310051751 $285 -6.028583160501185 $361 $414 forward 7 unknown #
point $-1 -51.765495773186437 -25.679742844726267 6.028583160501185 #
point $-1 -51.765495773186437 -12.692978479233656 6.028583160501185 #
vertex $-1 $368 $415 #
straight-curve $-1 51.765495773186437 -25.679742844726267 0 0 0 -1 I I #
edge $-1 $378 62.608048703064391 $381 69.781836181875519 $293 $416 forward 7 unknown #
vertex $-1 $307 $417 #
straight-curve $-1 38.595092003678346 15.207064701419199 11.800675310051759 1 0 0 I I #
edge $-1 $381 5.6298041202160949 $304 13.524717042190114 $303 $418 forward 7 unknown #
vertex $-1 $380 $419 #
straight-curve $-1 -7.6174402072242628 15.207064701419199 89.434512045821577 -0.57357642473473569 0 0.81915205242281985 I I #
point $-1 46.742355854616811 15.207064701419199 11.800675310051759 #
point $-1 51.765495773186437 23.101977623393218 4.626887831240623 #
straight-curve $-1 51.765495773186437 0 11.800675310051751 0 1 0 I I #
vertex $-1 $310 $420 #
point $-1 48.332410375468541 17.462754107697496 6.9581422452338728 #
vertex $-1 $314 $421 #
point $-1 48.332410375468541 20.846288217114928 6.9581422452338728 #
coedge $-1 $329 $328 $321 $391 forward $318 $-1 #
edge $-1 $392 32.040857274004075 $395 37.74200146154616 $390 $422 forward 7 unknown #
vertex $-1 $333 $423 #
straight-curve $-1 -57.752769784943219 12.423002068290014 11.800675310051751 -1 0 0 I I #
edge $-1 $395 -7.9953174413887407 $330 -0.86005181241380591 $329 $424 forward 7 unknown #
vertex $-1 $394 $425 #
straight-curve $-1 -51.76549577318643 12.423002068290014 6.0995311225096742 0.78801074757464917 0 0.61566148304635926 I I #
point $-1 -44.468364123783559 12.423002068290014 11.800675310051751 #
point $-1 -51.765495773186437 5.2877364393150792 6.0995311225096689 #
straight-curve $-1 -51.765495773186437 0 11.800675310051751 0 -1 0 I I #
vertex $-1 $336 $426 #
point $-1 -45.361121026499276 7.3263837618793453 7.0470979430100389 #
vertex $-1 $340 $427 #
point $-1 -45.361121026499276 10.384354745725748 7.0470979430100389 #
straight-curve $-1 -51.765495773186437 25.679742844726267 0 0 0 -1 I I #
point $-1 -51.765495773186437 -25.679742844726267 -11.800675310051751 #
straight-curve $-1 -51.765495773186437 0 -11.800675310051751 0 1 0 I I #
point $-1 -51.765495773186437 25.679742844726267 -11.800675310051751 #
coedge $-1 $366 $362 $371 $413 forward $271 $-1 #
vertex $-1 $363 $428 #
straight-curve $-1 -51.765495773186437 0 11.800675310051751 0 -1 0 I I #
point $-1 -51.765495773186437 -12.692978479233656 11.800675310051751 #
straight-curve $-1 51.765495773186437 0 11.800675310051751 0 1 0 I I #
edge $-1 $409 -51.765495773186437 $375 51.765495773186437 $371 $429 forward 7 unknown #
straight-curve $-1 -51.765495773186437 -25.679742844726267 0 0 0 -1 I I #
point $-1 51.765495773186437 -25.679742844726267 11.800675310051751 #
straight-curve $-1 51.765495773186437 15.207064701419199 74.408724013116142 0 0 -1 I I #
point $-1 51.765495773186437 15.207064701419199 11.800675310051751 #
straight-curve $-1 51.765495773186444 9.5772605812031042 4.6268878312406159 0 1 0 I I #
point $-1 51.765495773186437 15.207064701419199 4.626887831240623 #
point $-1 47.63604613688976 17.462754107697496 7.0809300590779154 #
point $-1 47.63604613688976 20.846288217114928 7.0809300590779154 #
straight-curve $-1 -51.765495773186437 12.423002068290014 43.841532584055827 0 0 -1 I I #
point $-1 -51.765495773186437 12.423002068290014 11.800675310051751 #
straight-curve $-1 -51.765495773186437 4.4276846269012733 6.0995311225096671 0 -1 0 I I #
point $-1 -51.765495773186437 12.423002068290014 6.0995311225096689 #
point $-1 -45.533470291027569 7.3263837618793453 5.6434257123890301 #
point $-1 -45.533470291027569 10.384354745725748 5.6434257123890301 #
point $-1 -51.765495773186437 -25.679742844726267 11.800675310051751 #
straight-curve $-1 0 -25.679742844726267 11.800675310051751 1 0 0 I I #
End-of-ACIS-data 