500 0 12 0           
7 Unknown 11 ACIS 5.0 NT 24 Thu Mar 25 20:28:27 1999 
-1 9.9999999999999995e-007 1e-010 
body $-1 $12 $-1 $13 #
body $-1 $14 $-1 $15 #
body $-1 $16 $-1 $17 #
body $-1 $18 $-1 $19 #
body $-1 $20 $-1 $21 #
body $-1 $22 $-1 $23 #
body $-1 $24 $-1 $25 #
body $-1 $26 $-1 $27 #
body $-1 $28 $-1 $29 #
body $-1 $30 $-1 $31 #
body $-1 $32 $-1 $33 #
body $-1 $34 $-1 $35 #
lump $-1 $-1 $36 $0 #
transform $-1 1 0 0 0 1 0 0 0 1 44.957426679280985 18.084638365335088 5.5311386549235104 1 rotate no_reflect no_shear #
lump $-1 $-1 $37 $1 #
transform $-1 1 0 0 0 1 0 0 0 1 44.957426679280985 18.084638365335088 5.5311386549235104 1 rotate no_reflect no_shear #
lump $-1 $-1 $38 $2 #
transform $-1 1 0 0 0 1 0 0 0 1 44.957426679280985 18.084638365335088 5.5311386549235104 1 rotate no_reflect no_shear #
lump $-1 $-1 $39 $3 #
transform $-1 1 0 0 0 1 0 0 0 1 44.957426679280985 18.084638365335088 5.5311386549235104 1 rotate no_reflect no_shear #
lump $-1 $-1 $40 $4 #
transform $-1 1 0 0 0 1 0 0 0 1 44.957426679280985 18.084638365335088 5.5311386549235104 1 rotate no_reflect no_shear #
lump $-1 $-1 $41 $5 #
transform $-1 1 0 0 0 1 0 0 0 1 44.957426679280985 18.084638365335088 5.5311386549235104 1 rotate no_reflect no_shear #
lump $-1 $-1 $42 $6 #
transform $-1 1 0 0 0 1 0 0 0 1 44.957426679280985 18.084638365335088 5.5311386549235104 1 rotate no_reflect no_shear #
lump $-1 $-1 $43 $7 #
transform $-1 1 0 0 0 1 0 0 0 1 44.957426679280985 18.084638365335088 5.5311386549235104 1 rotate no_reflect no_shear #
lump $-1 $-1 $44 $8 #
transform $-1 1 0 0 0 1 0 0 0 1 44.957426679280985 18.084638365335088 5.5311386549235104 1 rotate no_reflect no_shear #
lump $-1 $-1 $45 $9 #
transform $-1 1 0 0 0 1 0 0 0 1 44.957426679280985 18.084638365335088 5.5311386549235104 1 rotate no_reflect no_shear #
lump $-1 $-1 $46 $10 #
transform $-1 1 0 0 0 1 0 0 0 1 44.957426679280985 18.084638365335088 5.5311386549235104 1 rotate no_reflect no_shear #
lump $-1 $-1 $47 $11 #
transform $-1 1 0 0 0 1 0 0 0 1 44.957426679280985 18.084638365335088 5.5311386549235104 1 rotate no_reflect no_shear #
shell $-1 $-1 $-1 $48 $-1 $12 #
shell $-1 $-1 $-1 $49 $-1 $14 #
shell $-1 $-1 $-1 $50 $-1 $16 #
shell $-1 $-1 $-1 $51 $-1 $18 #
shell $-1 $-1 $-1 $52 $-1 $20 #
shell $-1 $-1 $-1 $53 $-1 $22 #
shell $-1 $-1 $-1 $54 $-1 $24 #
shell $-1 $-1 $-1 $55 $-1 $26 #
shell $-1 $-1 $-1 $56 $-1 $28 #
shell $-1 $-1 $-1 $57 $-1 $30 #
shell $-1 $-1 $-1 $58 $-1 $32 #
shell $-1 $-1 $-1 $59 $-1 $34 #
face $-1 $60 $61 $36 $-1 $62 forward single #
face $-1 $63 $64 $37 $-1 $65 forward single #
face $-1 $66 $67 $38 $-1 $68 reversed single #
face $-1 $69 $70 $39 $-1 $71 reversed single #
face $-1 $72 $73 $40 $-1 $74 forward single #
face $-1 $75 $76 $41 $-1 $77 forward single #
face $-1 $78 $79 $42 $-1 $80 reversed single #
face $-1 $81 $82 $43 $-1 $83 forward single #
face $-1 $84 $85 $44 $-1 $86 forward single #
face $-1 $87 $88 $45 $-1 $89 reversed single #
face $-1 $90 $91 $46 $-1 $92 forward single #
face $-1 $93 $94 $47 $-1 $95 forward single #
face $-1 $96 $97 $36 $-1 $98 reversed single #
loop $-1 $-1 $99 $48 #
plane-surface $-1 0 0 5.5311386549235104 0 0 1 1 0 0 forward_v I I I I #
face $-1 $100 $101 $37 $-1 $102 reversed single #
loop $-1 $-1 $103 $49 #
plane-surface $-1 -44.957426679280985 0 0 1 0 0 0 0 -1 forward_v I I I I #
face $-1 $104 $105 $38 $-1 $106 reversed single #
loop $-1 $-1 $107 $50 #
plane-surface $-1 41.61742884421875 -14.374470221923021 0 0 1 0 0 0 1 forward_v I I I I #
face $-1 $108 $109 $39 $-1 $110 reversed single #
loop $-1 $-1 $111 $51 #
plane-surface $-1 -18.002514803773309 40.029543407266374 95.332996516353433 1 0 0 0 -0.57357644374324357 -0.81915203911291934 forward_v I I I I #
face $-1 $112 $113 $40 $-1 $114 forward single #
loop $-1 $115 $116 $52 #
cone-surface $-1 -12.891375193937129 14.382808992968332 2.6343940439691398 0 -0.57357644374324357 -0.81915203911291934 1 0 0 1 I I 0 1 1 forward I I I I #
face $-1 $117 $118 $41 $-1 $119 forward single #
loop $-1 $120 $121 $53 #
cone-surface $-1 -5.2246657791828568 14.382808992968332 2.6343940439691398 0 -0.57357644374324357 -0.81915203911291934 1 0 0 1 I I 0 1 1 forward I I I I #
face $-1 $122 $123 $42 $-1 $124 reversed single #
loop $-1 $-1 $125 $54 #
plane-surface $-1 -9.0580204865599896 -11.543498421832844 21.679061041148273 0 0.57357644374324357 0.81915203911291934 1 0 0 forward_v I I I I #
face $-1 $126 $127 $43 $-1 $128 forward single #
loop $-1 $129 $130 $55 #
cone-surface $-1 4.9976134404895163 14.382808992968332 2.6343940439691398 0 -0.57357644374324357 -0.81915203911291934 1 0 0 1 I I 0 1 1 forward I I I I #
face $-1 $131 $132 $44 $-1 $133 forward single #
loop $-1 $134 $135 $56 #
cone-surface $-1 12.664322855243789 14.382808992968332 2.6343940439691398 0 -0.57357644374324357 -0.81915203911291934 1 0 0 1 I I 0 1 1 forward I I I I #
face $-1 $136 $137 $45 $-1 $138 reversed single #
loop $-1 $-1 $139 $57 #
plane-surface $-1 1.0043193134309796 -85.944240344633698 59.112967808772822 -1 0 0 0 -0.75470958851134928 0.65605901945558964 forward_v I I I I #
face $-1 $140 $141 $46 $-1 $142 forward single #
loop $-1 $143 $144 $58 #
cone-surface $-1 -13.112708276637832 -13.616575749213643 0.9864604361478051 0 0.75470958851134928 -0.65605901945558964 1.5 0 0 1 I I 0 1 1.5 forward I I I I #
face $-1 $145 $146 $47 $-1 $147 forward single #
loop $-1 $148 $149 $59 #
cone-surface $-1 -4.6424917225965459 -13.616575749213643 0.9864604361478051 0 0.75470958851134928 -0.65605901945558964 1.5 0 0 1 I I 0 1 1.5 forward I I I I #
face $-1 $150 $151 $36 $-1 $152 reversed single #
loop $-1 $-1 $153 $60 #
plane-surface $-1 0 0 -5.5311386549235104 0 0 1 1 0 0 forward_v I I I I #
coedge $-1 $154 $155 $156 $157 forward $61 $-1 #
face $-1 $158 $159 $37 $-1 $160 forward single #
loop $-1 $-1 $161 $63 #
plane-surface $-1 0 18.084638365335088 0 0 -1 0 0 0 -1 forward_v I I I I #
coedge $-1 $162 $163 $164 $165 forward $64 $-1 #
face $-1 $166 $167 $38 $-1 $168 reversed single #
loop $-1 $-1 $169 $66 #
plane-surface $-1 38.277431009156508 -12.874470221923021 0 1 0 0 0 0 -1 forward_v I I I I #
coedge $-1 $170 $171 $172 $173 forward $67 $-1 #
face $-1 $174 $175 $39 $-1 $176 reversed single #
loop $-1 $-1 $177 $69 #
plane-surface $-1 -9.0580204865599896 -11.543498421832844 21.679061041148273 0 0.57357644374324357 0.81915203911291934 1 0 0 forward_v I I I I #
coedge $-1 $178 $179 $180 $181 reversed $70 $-1 #
face $-1 $-1 $182 $40 $-1 $183 forward single #
loop $-1 $184 $185 $72 #
cone-surface $-1 -12.891375193937129 13.677448429326379 1.6270347803174579 0 -0.57357644374324357 -0.81915203911291934 0.5 0 0 1 I I -0.70710678118654746 0.70710678118654746 0.5 forward I I I I #
loop $-1 $-1 $186 $52 #
coedge $-1 $116 $116 $187 $188 reversed $73 $-1 #
face $-1 $-1 $189 $41 $-1 $190 forward single #
loop $-1 $191 $192 $75 #
cone-surface $-1 -5.2246657791828568 13.677448429326379 1.6270347803174579 0 -0.57357644374324357 -0.81915203911291934 0.5 0 0 1 I I -0.70710678118654746 0.70710678118654746 0.5 forward I I I I #
loop $-1 $-1 $193 $53 #
coedge $-1 $121 $121 $194 $195 reversed $76 $-1 #
face $-1 $196 $197 $42 $-1 $198 forward single #
loop $-1 $-1 $199 $78 #
plane-surface $-1 17.775462465079976 40.029543407266374 95.332996516353433 -1 0 0 0 0.57357644374324357 0.81915203911291934 forward_v I I I I #
coedge $-1 $200 $201 $202 $203 reversed $79 $-1 #
face $-1 $-1 $204 $43 $-1 $205 forward single #
loop $-1 $206 $207 $81 #
cone-surface $-1 4.9976134404895163 13.677448429326379 1.6270347803174579 0 -0.57357644374324357 -0.81915203911291934 0.5 0 0 1 I I -0.70710678118654746 0.70710678118654746 0.5 forward I I I I #
loop $-1 $-1 $208 $55 #
coedge $-1 $130 $130 $209 $210 reversed $82 $-1 #
face $-1 $-1 $211 $44 $-1 $212 forward single #
loop $-1 $213 $214 $84 #
cone-surface $-1 12.664322855243789 13.677448429326379 1.6270347803174579 0 -0.57357644374324357 -0.81915203911291934 0.5 0 0 1 I I -0.70710678118654746 0.70710678118654746 0.5 forward I I I I #
loop $-1 $-1 $215 $56 #
coedge $-1 $135 $135 $216 $217 reversed $85 $-1 #
face $-1 $218 $219 $45 $-1 $220 reversed single #
loop $-1 $-1 $221 $87 #
plane-surface $-1 -8.877599999617189 -18.084638365335081 0.12351727986152383 0 -0.75470958851134928 0.65605901945558964 1 0 0 forward_v I I I I #
coedge $-1 $222 $223 $224 $225 reversed $88 $-1 #
face $-1 $-1 $226 $46 $-1 $227 forward single #
loop $-1 $228 $229 $90 #
cone-surface $-1 -13.112708276637832 -10.932867653972448 -1.3464513596886016 0 0.75470958851134928 -0.65605901945558964 0.75 0 0 1 I I -0.70710678118654757 0.70710678118654757 0.75 forward I I I I #
loop $-1 $-1 $230 $58 #
coedge $-1 $144 $144 $231 $232 reversed $91 $-1 #
face $-1 $-1 $233 $47 $-1 $234 forward single #
loop $-1 $235 $236 $93 #
cone-surface $-1 -4.6424917225965459 -10.932867653972448 -1.3464513596886016 0 0.75470958851134928 -0.65605901945558964 0.75 0 0 1 I I -0.70710678118654757 0.70710678118654757 0.75 forward I I I I #
loop $-1 $-1 $237 $59 #
coedge $-1 $149 $149 $238 $239 reversed $94 $-1 #
face $-1 $240 $241 $36 $-1 $242 reversed single #
loop $-1 $-1 $243 $96 #
plane-surface $-1 0 -18.084638365335088 0 0 1 0 0 0 1 forward_v I I I I #
coedge $-1 $244 $245 $246 $247 forward $97 $-1 #
coedge $-1 $248 $99 $249 $250 forward $61 $-1 #
coedge $-1 $99 $248 $251 $252 forward $61 $-1 #
coedge $-1 $253 $254 $99 $157 reversed $255 $-1 #
edge $-1 $256 -18.084638365335088 $257 18.084638365335088 $156 $258 forward 7 unknown #
face $-1 $259 $260 $37 $-1 $261 reversed single #
loop $-1 $-1 $164 $100 #
plane-surface $-1 -48.183898344996557 0 -2.5311386549235104 0 0 1 1 0 0 forward_v I I I I #
coedge $-1 $262 $263 $163 $264 forward $101 $-1 #
coedge $-1 $265 $103 $266 $267 reversed $64 $-1 #
coedge $-1 $103 $265 $161 $264 reversed $64 $-1 #
coedge $-1 $268 $269 $103 $165 reversed $159 $-1 #
edge $-1 $270 -18.084638365335088 $271 18.084638365335088 $164 $272 forward 7 unknown #
face $-1 $273 $274 $38 $-1 $275 forward single #
loop $-1 $-1 $276 $104 #
plane-surface $-1 41.61742884421875 -11.374470221923021 0 0 -1 0 0 0 -1 forward_v I I I I #
coedge $-1 $277 $278 $279 $280 forward $105 $-1 #
coedge $-1 $281 $107 $282 $283 reversed $67 $-1 #
coedge $-1 $107 $281 $284 $285 reversed $67 $-1 #
coedge $-1 $278 $277 $107 $173 reversed $105 $-1 #
edge $-1 $286 -5.5311386549235104 $287 5.5311386549235104 $172 $288 forward 7 unknown #
face $-1 $289 $290 $39 $-1 $291 forward single #
loop $-1 $-1 $292 $108 #
plane-surface $-1 -0.11352616934666848 40.029543407266374 95.332996516353433 -1 0 0 0 0.57357644374324357 0.81915203911291934 forward_v I I I I #
coedge $-1 $293 $294 $295 $296 reversed $109 $-1 #
coedge $-1 $179 $111 $297 $298 reversed $70 $-1 #
coedge $-1 $111 $178 $293 $299 reversed $70 $-1 #
coedge $-1 $295 $300 $111 $181 forward $290 $-1 #
edge $-1 $301 1.9301333382980985 $302 8.4966473994909144 $180 $303 forward 7 unknown #
loop $-1 $-1 $187 $112 #
plane-surface $-1 -9.0580204865599896 -11.543498421832844 21.679061041148273 0 0.57357644374324357 0.81915203911291934 1 0 0 forward_v I I I I #
loop $-1 $-1 $304 $72 #
coedge $-1 $185 $185 $186 $305 reversed $113 $-1 #
coedge $-1 $186 $186 $185 $305 forward $115 $-1 #
coedge $-1 $187 $187 $116 $188 forward $182 $-1 #
edge $-1 $306 -8.3434556271445129e-016 $306 6.2831853071795996 $187 $307 forward 7 unknown #
loop $-1 $-1 $194 $117 #
plane-surface $-1 -9.0580204865599896 -11.543498421832844 21.679061041148273 0 0.57357644374324357 0.81915203911291934 1 0 0 forward_v I I I I #
loop $-1 $-1 $308 $75 #
coedge $-1 $192 $192 $193 $309 reversed $118 $-1 #
coedge $-1 $193 $193 $192 $309 forward $120 $-1 #
coedge $-1 $194 $194 $121 $195 forward $189 $-1 #
edge $-1 $310 -8.3434556271445129e-016 $310 6.2831853071795996 $194 $311 forward 7 unknown #
face $-1 $312 $313 $42 $-1 $314 forward single #
loop $-1 $-1 $315 $122 #
plane-surface $-1 0 0 5.5311386549235104 0 0 1 1 0 0 forward_v I I I I #
coedge $-1 $316 $317 $318 $319 reversed $123 $-1 #
coedge $-1 $320 $125 $321 $322 reversed $79 $-1 #
coedge $-1 $125 $320 $315 $323 reversed $79 $-1 #
coedge $-1 $324 $325 $125 $203 forward $313 $-1 #
edge $-1 $326 -36.16927673067017 $327 -28.153043177368069 $202 $328 forward 7 unknown #
loop $-1 $-1 $209 $126 #
plane-surface $-1 -9.0580204865599896 -11.543498421832844 21.679061041148273 0 0.57357644374324357 0.81915203911291934 1 0 0 forward_v I I I I #
loop $-1 $-1 $329 $81 #
coedge $-1 $207 $207 $208 $330 reversed $127 $-1 #
coedge $-1 $208 $208 $207 $330 forward $129 $-1 #
coedge $-1 $209 $209 $130 $210 forward $204 $-1 #
edge $-1 $331 -8.3434556271445129e-016 $331 6.2831853071795996 $209 $332 forward 7 unknown #
loop $-1 $-1 $216 $131 #
plane-surface $-1 -9.0580204865599896 -11.543498421832844 21.679061041148273 0 0.57357644374324357 0.81915203911291934 1 0 0 forward_v I I I I #
loop $-1 $-1 $333 $84 #
coedge $-1 $214 $214 $215 $334 reversed $132 $-1 #
coedge $-1 $215 $215 $214 $334 forward $134 $-1 #
coedge $-1 $216 $216 $135 $217 forward $211 $-1 #
edge $-1 $335 -8.3434556271445129e-016 $335 6.2831853071795996 $216 $336 forward 7 unknown #
face $-1 $337 $338 $45 $-1 $339 reversed single #
loop $-1 $-1 $340 $136 #
plane-surface $-1 -18.759519312665358 -85.944240344633698 59.112967808772822 1 0 0 0 0.75470958851134928 -0.65605901945558964 forward_v I I I I #
coedge $-1 $341 $342 $343 $344 reversed $137 $-1 #
coedge $-1 $223 $139 $345 $346 reversed $88 $-1 #
coedge $-1 $139 $222 $341 $347 reversed $88 $-1 #
coedge $-1 $343 $348 $139 $225 forward $349 $-1 #
edge $-1 $350 24.887481806981761 $351 29.588255231509294 $224 $352 forward 7 unknown #
loop $-1 $-1 $231 $140 #
plane-surface $-1 -8.877599999617189 -18.084638365335081 0.12351727986152383 0 -0.75470958851134928 0.65605901945558964 1 0 0 forward_v I I I I #
loop $-1 $-1 $353 $90 #
coedge $-1 $229 $229 $230 $354 reversed $141 $-1 #
coedge $-1 $230 $230 $229 $354 forward $143 $-1 #
coedge $-1 $231 $231 $144 $232 forward $226 $-1 #
edge $-1 $355 -4.264527247342554e-016 $355 6.2831853071796004 $231 $356 forward 7 unknown #
loop $-1 $-1 $238 $145 #
plane-surface $-1 -8.877599999617189 -18.084638365335081 0.12351727986152383 0 -0.75470958851134928 0.65605901945558964 1 0 0 forward_v I I I I #
loop $-1 $-1 $357 $93 #
coedge $-1 $236 $236 $237 $358 reversed $146 $-1 #
coedge $-1 $237 $237 $236 $358 forward $148 $-1 #
coedge $-1 $238 $238 $149 $239 forward $233 $-1 #
edge $-1 $359 -4.264527247342554e-016 $359 6.2831853071796004 $238 $360 forward 7 unknown #
face $-1 $361 $362 $36 $-1 $363 reversed single #
loop $-1 $-1 $364 $150 #
plane-surface $-1 -44.957426679280985 0 0 1 0 0 0 0 -1 forward_v I I I I #
coedge $-1 $365 $251 $366 $367 forward $151 $-1 #
coedge $-1 $368 $153 $365 $369 forward $97 $-1 #
coedge $-1 $153 $368 $370 $371 forward $97 $-1 #
coedge $-1 $254 $253 $153 $247 reversed $255 $-1 #
edge $-1 $372 -18.084638365335088 $373 18.084638365335088 $246 $374 forward 7 unknown #
coedge $-1 $155 $154 $375 $376 forward $61 $-1 #
coedge $-1 $377 $378 $154 $250 reversed $362 $-1 #
edge $-1 $257 -44.957426679280985 $379 44.957426679280985 $249 $380 forward 7 unknown #
coedge $-1 $243 $381 $155 $252 reversed $151 $-1 #
edge $-1 $382 -44.957426679280985 $256 44.957426679280985 $251 $383 forward 7 unknown #
coedge $-1 $246 $156 $381 $384 forward $255 $-1 #
coedge $-1 $156 $246 $377 $385 reversed $255 $-1 #
loop $-1 $-1 $253 $361 #
vertex $-1 $157 $386 #
vertex $-1 $157 $387 #
straight-curve $-1 44.957426679280985 0 5.5311386549235104 0 1 0 I I #
face $-1 $388 $389 $37 $-1 $390 reversed single #
loop $-1 $-1 $391 $158 #
plane-surface $-1 -51.410370010712128 0 -4.0311386549235104 1 0 0 0 0 -1 forward_v I I I I #
coedge $-1 $392 $161 $393 $394 reversed $101 $-1 #
coedge $-1 $161 $392 $268 $395 reversed $101 $-1 #
edge $-1 $270 2.5311386549235104 $396 5.5311386549235104 $161 $397 forward 7 unknown #
coedge $-1 $163 $162 $398 $399 reversed $64 $-1 #
coedge $-1 $400 $401 $162 $267 forward $402 $-1 #
edge $-1 $403 -5.5311386549235104 $271 -2.5311386549235104 $266 $404 forward 7 unknown #
coedge $-1 $405 $164 $263 $395 forward $159 $-1 #
coedge $-1 $164 $405 $400 $406 forward $159 $-1 #
vertex $-1 $264 $407 #
vertex $-1 $406 $408 #
straight-curve $-1 -44.957426679280985 0 -2.5311386549235104 0 -1 0 I I #
face $-1 $409 $410 $38 $-1 $411 reversed single #
loop $-1 $-1 $412 $166 #
plane-surface $-1 0 0 5.5311386549235104 0 0 1 1 0 0 forward_v I I I I #
coedge $-1 $413 $414 $415 $416 reversed $167 $-1 #
coedge $-1 $172 $169 $417 $418 reversed $105 $-1 #
coedge $-1 $169 $172 $419 $420 reversed $105 $-1 #
coedge $-1 $414 $413 $169 $280 reversed $167 $-1 #
edge $-1 $421 -5.5311386549235104 $422 5.5311386549235104 $279 $423 forward 7 unknown #
coedge $-1 $171 $170 $424 $425 reversed $67 $-1 #
coedge $-1 $417 $426 $170 $283 forward $410 $-1 #
edge $-1 $427 -24.148712257171617 $287 -17.468716587047133 $282 $428 forward 7 unknown #
coedge $-1 $429 $419 $171 $285 forward $274 $-1 #
edge $-1 $286 17.468716587047133 $430 24.148712257171617 $284 $431 forward 7 unknown #
vertex $-1 $285 $432 #
vertex $-1 $283 $433 #
straight-curve $-1 38.277431009156508 -14.374470221923021 0 0 0 -1 I I #
face $-1 $-1 $434 $39 $-1 $435 reversed single #
loop $-1 $-1 $180 $174 #
plane-surface $-1 0 0 5.5311386549235104 0 0 1 1 0 0 forward_v I I I I #
coedge $-1 $436 $437 $438 $439 reversed $175 $-1 #
coedge $-1 $440 $177 $179 $299 forward $109 $-1 #
coedge $-1 $177 $440 $436 $441 forward $109 $-1 #
coedge $-1 $438 $180 $177 $296 forward $290 $-1 #
edge $-1 $302 -13.473504560493314 $442 4.4154840739333263 $295 $443 forward 7 unknown #
coedge $-1 $444 $445 $178 $298 forward $434 $-1 #
edge $-1 $446 -46.733282336971492 $301 -42.135359603253207 $297 $447 forward 7 unknown #
edge $-1 $302 28.153043177368069 $446 36.16927673067017 $179 $448 forward 7 unknown #
coedge $-1 $180 $438 $444 $449 forward $290 $-1 #
vertex $-1 $298 $450 #
vertex $-1 $181 $451 #
straight-curve $-1 -18.002514803773309 20.014771703633187 5.5311386549235095 0 -1 0 I I #
coedge $-1 $304 $304 $-1 $452 reversed $184 $-1 #
edge $-1 $453 0 $453 6.2831853071796004 $185 $454 forward 7 unknown #
vertex $-1 $188 $455 #
ellipse-curve $-1 -12.891375193937129 14.801381334738673 3.2321772880643751 0 0.57357644374324357 0.81915203911291934 1 0 0 1 I I #
coedge $-1 $308 $308 $-1 $456 reversed $191 $-1 #
edge $-1 $457 0 $457 6.2831853071796004 $192 $458 forward 7 unknown #
vertex $-1 $195 $459 #
ellipse-curve $-1 -5.2246657791828568 14.801381334738673 3.2321772880643751 0 0.57357644374324357 0.81915203911291934 1 0 0 1 I I #
face $-1 $-1 $460 $42 $-1 $461 reversed single #
loop $-1 $-1 $324 $196 #
plane-surface $-1 -0.11352616934666848 40.029543407266374 95.332996516353433 -1 0 0 0 0.57357644374324357 0.81915203911291934 forward_v I I I I #
coedge $-1 $318 $462 $201 $323 forward $197 $-1 #
coedge $-1 $317 $199 $320 $463 reversed $123 $-1 #
coedge $-1 $199 $316 $464 $465 reversed $123 $-1 #
coedge $-1 $466 $315 $199 $319 forward $197 $-1 #
edge $-1 $467 -8.4966473994909144 $468 -1.9301333382980985 $318 $469 forward 7 unknown #
coedge $-1 $201 $200 $316 $463 forward $79 $-1 #
coedge $-1 $470 $464 $200 $322 forward $460 $-1 #
edge $-1 $471 -22.30447270835997 $326 -4.4154840739333263 $321 $472 forward 7 unknown #
edge $-1 $327 4.4154840739333263 $467 22.30447270835997 $315 $473 forward 7 unknown #
coedge $-1 $325 $202 $462 $474 reversed $313 $-1 #
coedge $-1 $202 $324 $470 $475 reversed $313 $-1 #
vertex $-1 $322 $476 #
vertex $-1 $323 $477 #
straight-curve $-1 -0.11352616934666848 -11.543498421832844 21.679061041148273 0 -0.81915203911291934 0.57357644374324357 I I #
coedge $-1 $329 $329 $-1 $478 reversed $206 $-1 #
edge $-1 $479 0 $479 6.2831853071796004 $207 $480 forward 7 unknown #
vertex $-1 $210 $481 #
ellipse-curve $-1 4.9976134404895163 14.801381334738673 3.2321772880643751 0 0.57357644374324357 0.81915203911291934 1 0 0 1 I I #
coedge $-1 $333 $333 $-1 $482 reversed $213 $-1 #
edge $-1 $483 0 $483 6.2831853071796004 $214 $484 forward 7 unknown #
vertex $-1 $217 $485 #
ellipse-curve $-1 12.664322855243789 14.801381334738673 3.2321772880643751 0 0.57357644374324357 0.81915203911291934 1 0 0 1 I I #
face $-1 $-1 $349 $45 $-1 $486 forward single #
loop $-1 $-1 $487 $218 #
plane-surface $-1 0 -18.084638365335088 0 0 1 0 0 0 1 forward_v I I I I #
coedge $-1 $488 $489 $490 $491 reversed $219 $-1 #
coedge $-1 $492 $221 $223 $347 forward $137 $-1 #
coedge $-1 $221 $492 $488 $493 forward $137 $-1 #
coedge $-1 $490 $224 $221 $344 forward $349 $-1 #
edge $-1 $351 -5.4431193132395741 $494 14.320719312856763 $343 $495 forward 7 unknown #
coedge $-1 $496 $497 $222 $346 forward $338 $-1 #
edge $-1 $498 -29.432966624524894 $350 -24.025345249462902 $345 $499 forward 7 unknown #
edge $-1 $351 -7.1651685063766317 $498 1.0830588725786001e-014 $223 $500 forward 7 unknown #
coedge $-1 $224 $490 $496 $501 forward $349 $-1 #
loop $-1 $-1 $490 $337 #
vertex $-1 $346 $502 #
vertex $-1 $225 $503 #
straight-curve $-1 1.0043193134309796 -42.972120172316849 5.5311386549235095 0 1 0 I I #
coedge $-1 $353 $353 $-1 $504 reversed $228 $-1 #
edge $-1 $505 0 $505 6.2831853071796004 $229 $506 forward 7 unknown #
vertex $-1 $232 $507 #
ellipse-curve $-1 -13.112708276637832 -15.734251653071322 2.827327967392514 0 -0.75470958851134928 0.65605901945558964 1.5 0 0 1 I I #
coedge $-1 $357 $357 $-1 $508 reversed $235 $-1 #
edge $-1 $509 0 $509 6.2831853071796004 $236 $510 forward 7 unknown #
vertex $-1 $239 $511 #
ellipse-curve $-1 -4.6424917225965459 -15.734251653071322 2.827327967392514 0 -0.75470958851134928 0.65605901945558964 1.5 0 0 1 I I #
face $-1 $-1 $255 $36 $-1 $512 reversed single #
loop $-1 $-1 $377 $240 #
plane-surface $-1 0 18.084638365335088 0 0 -1 0 0 0 -1 forward_v I I I I #
coedge $-1 $513 $375 $378 $514 forward $241 $-1 #
coedge $-1 $381 $243 $244 $369 reversed $151 $-1 #
coedge $-1 $375 $513 $243 $367 reversed $241 $-1 #
edge $-1 $382 -5.5311386549235104 $515 5.5311386549235104 $366 $516 forward 7 unknown #
coedge $-1 $245 $244 $513 $517 forward $97 $-1 #
edge $-1 $373 -44.957426679280985 $515 44.957426679280985 $365 $518 forward 7 unknown #
coedge $-1 $378 $377 $245 $371 reversed $362 $-1 #
edge $-1 $519 -44.957426679280985 $372 44.957426679280985 $370 $520 forward 7 unknown #
vertex $-1 $247 $521 #
vertex $-1 $384 $522 #
straight-curve $-1 44.957426679280985 0 -5.5311386549235104 0 -1 0 I I #
coedge $-1 $364 $366 $248 $376 reversed $241 $-1 #
edge $-1 $379 -18.084638365335088 $382 18.084638365335088 $375 $523 forward 7 unknown #
coedge $-1 $370 $249 $254 $385 forward $362 $-1 #
coedge $-1 $249 $370 $364 $514 reversed $362 $-1 #
vertex $-1 $250 $524 #
straight-curve $-1 0 18.084638365335088 5.5311386549235104 -1 0 0 I I #
coedge $-1 $251 $365 $253 $384 reversed $151 $-1 #
vertex $-1 $376 $525 #
straight-curve $-1 0 -18.084638365335088 5.5311386549235104 1 0 0 I I #
edge $-1 $256 -5.5311386549235104 $373 5.5311386549235104 $253 $526 forward 7 unknown #
edge $-1 $257 -5.5311386549235104 $372 5.5311386549235104 $254 $527 forward 7 unknown #
point $-1 44.957426679280985 -18.084638365335088 5.5311386549235104 #
point $-1 44.957426679280985 18.084638365335088 5.5311386549235104 #
face $-1 $-1 $402 $37 $-1 $528 reversed single #
loop $-1 $-1 $398 $259 #
plane-surface $-1 0 0 -5.5311386549235104 0 0 1 1 0 0 forward_v I I I I #
coedge $-1 $529 $530 $392 $531 forward $260 $-1 #
coedge $-1 $263 $262 $391 $531 reversed $101 $-1 #
coedge $-1 $398 $532 $262 $394 forward $389 $-1 #
edge $-1 $533 -51.410370010712128 $396 -44.957426679280985 $262 $534 forward 7 unknown #
edge $-1 $270 -3.2264716657155716 $535 3.2264716657155716 $263 $536 forward 7 unknown #
vertex $-1 $264 $537 #
straight-curve $-1 -44.957426679280985 18.084638365335088 0 0 0 -1 I I #
coedge $-1 $538 $393 $265 $399 forward $389 $-1 #
edge $-1 $396 -18.084638365335088 $403 18.084638365335088 $398 $539 forward 7 unknown #
coedge $-1 $540 $266 $269 $406 reversed $402 $-1 #
coedge $-1 $266 $540 $538 $541 reversed $402 $-1 #
loop $-1 $-1 $266 $388 #
vertex $-1 $541 $542 #
straight-curve $-1 -44.957426679280985 -18.084638365335088 0 0 0 1 I I #
coedge $-1 $269 $268 $530 $543 forward $159 $-1 #
edge $-1 $544 -3.2264716657155716 $271 3.2264716657155716 $400 $545 forward 7 unknown #
point $-1 -44.957426679280985 18.084638365335088 -2.5311386549235104 #
point $-1 -44.957426679280985 -18.084638365335088 -2.5311386549235104 #
face $-1 $-1 $546 $38 $-1 $547 reversed single #
loop $-1 $-1 $548 $273 #
plane-surface $-1 0 0 -5.5311386549235104 0 0 1 1 0 0 forward_v I I I I #
coedge $-1 $419 $429 $414 $549 forward $274 $-1 #
coedge $-1 $279 $276 $548 $550 reversed $167 $-1 #
coedge $-1 $276 $279 $412 $549 reversed $167 $-1 #
coedge $-1 $551 $552 $276 $416 forward $546 $-1 #
edge $-1 $553 -5.5311386549235104 $554 5.5311386549235104 $415 $555 forward 7 unknown #
coedge $-1 $548 $282 $277 $418 forward $410 $-1 #
edge $-1 $287 -7.9372351109615105 $422 -4.9372351109615105 $417 $556 forward 7 unknown #
coedge $-1 $284 $412 $278 $420 forward $274 $-1 #
edge $-1 $421 4.9372351109615105 $286 7.9372351109615105 $419 $557 forward 7 unknown #
vertex $-1 $420 $558 #
vertex $-1 $418 $559 #
straight-curve $-1 38.277431009156508 -11.374470221923021 0 0 0 -1 I I #
coedge $-1 $552 $551 $281 $425 forward $546 $-1 #
edge $-1 $430 -5.5311386549235104 $427 5.5311386549235104 $424 $560 forward 7 unknown #
coedge $-1 $282 $548 $552 $561 forward $410 $-1 #
vertex $-1 $425 $562 #
straight-curve $-1 20.808714422109375 -14.374470221923021 -5.5311386549235104 -1 0 0 I I #
coedge $-1 $412 $284 $551 $563 forward $274 $-1 #
vertex $-1 $563 $564 #
straight-curve $-1 20.808714422109375 -14.374470221923021 5.5311386549235104 1 0 0 I I #
point $-1 38.277431009156508 -14.374470221923021 5.5311386549235104 #
point $-1 38.277431009156508 -14.374470221923021 -5.5311386549235104 #
loop $-1 $-1 $297 $289 #
plane-surface $-1 0 18.084638365335088 0 0 -1 0 0 0 -1 forward_v I I I I #
coedge $-1 $437 $292 $294 $441 reversed $175 $-1 #
coedge $-1 $292 $436 $565 $566 reversed $175 $-1 #
coedge $-1 $300 $295 $292 $439 forward $290 $-1 #
edge $-1 $442 -8.4966473994909144 $567 -1.9301333382980985 $438 $568 forward 7 unknown #
coedge $-1 $294 $293 $445 $569 reversed $109 $-1 #
edge $-1 $570 -36.16927673067017 $442 -28.153043177368069 $436 $571 forward 7 unknown #
vertex $-1 $296 $572 #
straight-curve $-1 -4.5290102432799948 11.518124304142269 5.5311386549235113 1 0 0 I I #
coedge $-1 $565 $297 $300 $449 reversed $434 $-1 #
coedge $-1 $297 $565 $440 $569 forward $434 $-1 #
vertex $-1 $298 $573 #
straight-curve $-1 -18.002514803773309 18.084638365335088 47.666498258176716 0 0 1 I I #
straight-curve $-1 -18.002514803773309 -11.543498421832844 21.679061041148273 0 0.81915203911291934 -0.57357644374324357 I I #
edge $-1 $567 0.11352616934666848 $301 18.002514803773309 $444 $574 forward 7 unknown #
point $-1 -18.002514803773309 18.084638365335088 5.5311386549235104 #
point $-1 -18.002514803773309 11.518124304142273 5.5311386549235095 #
edge $-1 $575 1 $575 0 $304 $-1 forward 7 unknown #
vertex $-1 $305 $576 #
ellipse-curve $-1 -12.891375193937129 13.964236651198 2.0366107998739174 0 0.57357644374324357 0.81915203911291934 1 0 0 1 I I #
point $-1 -11.891375193937129 14.801381334738663 3.2321772880643613 #
edge $-1 $577 1 $577 0 $308 $-1 forward 7 unknown #
vertex $-1 $309 $578 #
ellipse-curve $-1 -5.2246657791828568 13.964236651198 2.0366107998739174 0 0.57357644374324357 0.81915203911291934 1 0 0 1 I I #
point $-1 -4.2246657791828568 14.801381334738663 3.2321772880643613 #
loop $-1 $-1 $321 $312 #
plane-surface $-1 0 18.084638365335088 0 0 -1 0 0 0 -1 forward_v I I I I #
coedge $-1 $315 $466 $324 $474 forward $197 $-1 #
edge $-1 $471 -36.16927673067017 $467 -28.153043177368069 $316 $579 forward 7 unknown #
coedge $-1 $321 $580 $317 $465 forward $460 $-1 #
edge $-1 $468 42.135359603253207 $471 46.733282336971492 $464 $581 forward 7 unknown #
coedge $-1 $462 $318 $580 $582 forward $197 $-1 #
vertex $-1 $319 $583 #
vertex $-1 $582 $584 #
straight-curve $-1 17.775462465079976 20.014771703633187 5.5311386549235095 0 1 0 I I #
coedge $-1 $580 $321 $325 $475 forward $460 $-1 #
vertex $-1 $465 $585 #
straight-curve $-1 -4.5290102432799948 18.084638365335092 0.93321592120522645 -1 0 0 I I #
straight-curve $-1 -4.5290102432799948 11.518124304142269 5.5311386549235113 1 0 0 I I #
edge $-1 $586 1.9301333382980985 $327 8.4966473994909144 $462 $587 forward 7 unknown #
edge $-1 $326 -46.733282336971492 $586 -42.135359603253207 $470 $588 forward 7 unknown #
point $-1 -0.11352616934666848 18.084638365335092 0.93321592120522467 #
point $-1 -0.11352616934666848 11.518124304142273 5.5311386549235095 #
edge $-1 $589 1 $589 0 $329 $-1 forward 7 unknown #
vertex $-1 $330 $590 #
ellipse-curve $-1 4.9976134404895163 13.964236651198 2.0366107998739174 0 0.57357644374324357 0.81915203911291934 1 0 0 1 I I #
point $-1 5.9976134404895163 14.801381334738663 3.2321772880643613 #
edge $-1 $591 1 $591 0 $333 $-1 forward 7 unknown #
vertex $-1 $334 $592 #
ellipse-curve $-1 12.664322855243789 13.964236651198 2.0366107998739174 0 0.57357644374324357 0.81915203911291934 1 0 0 1 I I #
point $-1 13.664322855243789 14.801381334738663 3.2321772880643613 #
plane-surface $-1 0 0 5.5311386549235104 0 0 1 1 0 0 forward_v I I I I #
coedge $-1 $497 $496 $489 $593 forward $338 $-1 #
coedge $-1 $489 $340 $342 $493 reversed $219 $-1 #
coedge $-1 $340 $488 $487 $593 reversed $219 $-1 #
coedge $-1 $348 $343 $340 $491 forward $349 $-1 #
edge $-1 $494 -29.588255231509294 $594 -24.887481806981761 $490 $595 forward 7 unknown #
coedge $-1 $342 $341 $497 $596 reversed $137 $-1 #
edge $-1 $597 -1.0830588725786001e-014 $494 7.1651685063766317 $488 $598 forward 7 unknown #
vertex $-1 $344 $599 #
straight-curve $-1 -4.4387999998085945 -13.383864940807557 5.5311386549235104 -1 0 0 I I #
coedge $-1 $487 $345 $348 $501 reversed $338 $-1 #
coedge $-1 $345 $487 $492 $596 forward $338 $-1 #
vertex $-1 $346 $600 #
straight-curve $-1 1.0043193134309796 -18.084638365335088 29.556483904386411 0 0 1 I I #
straight-curve $-1 1.0043193134309796 -18.084638365335081 0.12351727986152383 0 -0.65605901945558964 -0.75470958851134928 I I #
edge $-1 $594 -18.759519312665358 $350 1.0043193134309796 $496 $601 forward 7 unknown #
point $-1 1.0043193134309796 -18.084638365335088 5.5311386549235104 #
point $-1 1.0043193134309796 -13.383864940807557 5.5311386549235104 #
edge $-1 $602 1 $602 0 $353 $-1 forward 7 unknown #
vertex $-1 $354 $603 #
ellipse-curve $-1 -13.112708276637832 -11.498899845355959 -0.85440709509690937 0 -0.75470958851134928 0.65605901945558964 1.5 0 0 1 I I #
point $-1 -11.612708276637832 -15.734251653071329 2.8273279673925193 #
edge $-1 $604 1 $604 0 $357 $-1 forward 7 unknown #
vertex $-1 $358 $605 #
ellipse-curve $-1 -4.6424917225965459 -11.498899845355959 -0.85440709509690937 0 -0.75470958851134928 0.65605901945558964 1.5 0 0 1 I I #
point $-1 -3.1424917225965459 -15.734251653071329 2.8273279673925193 #
plane-surface $-1 44.957426679280985 0 0 -1 0 0 0 0 1 forward_v I I I I #
coedge $-1 $366 $364 $368 $517 reversed $241 $-1 #
edge $-1 $379 -5.5311386549235104 $519 5.5311386549235104 $378 $606 forward 7 unknown #
vertex $-1 $517 $607 #
straight-curve $-1 -44.957426679280985 -18.084638365335088 0 0 0 -1 I I #
edge $-1 $515 -18.084638365335088 $519 18.084638365335088 $513 $608 forward 7 unknown #
straight-curve $-1 0 -18.084638365335088 -5.5311386549235104 -1 0 0 I I #
vertex $-1 $371 $609 #
straight-curve $-1 0 18.084638365335088 -5.5311386549235104 1 0 0 I I #
point $-1 44.957426679280985 18.084638365335088 -5.5311386549235104 #
point $-1 44.957426679280985 -18.084638365335088 -5.5311386549235104 #
straight-curve $-1 -44.957426679280985 0 5.5311386549235104 0 -1 0 I I #
point $-1 -44.957426679280985 18.084638365335088 5.5311386549235104 #
point $-1 -44.957426679280985 -18.084638365335088 5.5311386549235104 #
straight-curve $-1 44.957426679280985 -18.084638365335088 0 0 0 -1 I I #
straight-curve $-1 44.957426679280985 18.084638365335088 0 0 0 -1 I I #
plane-surface $-1 0 -18.084638365335088 0 0 1 0 0 0 1 forward_v I I I I #
coedge $-1 $610 $391 $532 $611 reversed $260 $-1 #
coedge $-1 $391 $610 $405 $543 reversed $260 $-1 #
edge $-1 $535 -1.5 $533 1.5 $392 $612 forward 7 unknown #
coedge $-1 $393 $538 $529 $611 forward $389 $-1 #
vertex $-1 $394 $613 #
straight-curve $-1 0 18.084638365335088 -5.5311386549235104 1 0 0 I I #
vertex $-1 $395 $614 #
straight-curve $-1 -48.183898344996557 18.084638365335088 -2.5311386549235104 -1 0 0 I I #
point $-1 -44.957426679280985 18.084638365335088 -5.5311386549235104 #
coedge $-1 $532 $398 $401 $541 forward $389 $-1 #
straight-curve $-1 -44.957426679280985 0 -5.5311386549235104 0 -1 0 I I #
coedge $-1 $401 $400 $610 $615 forward $402 $-1 #
edge $-1 $403 -3.2264716657155716 $616 3.2264716657155716 $401 $617 forward 7 unknown #
point $-1 -44.957426679280985 -18.084638365335088 -5.5311386549235104 #
edge $-1 $535 -18.084638365335088 $544 18.084638365335088 $530 $618 forward 7 unknown #
vertex $-1 $543 $619 #
straight-curve $-1 -48.183898344996557 -18.084638365335088 -2.5311386549235104 1 0 0 I I #
loop $-1 $-1 $415 $409 #
plane-surface $-1 44.957426679280985 0 0 -1 0 0 0 0 1 forward_v I I I I #
coedge $-1 $426 $417 $413 $550 forward $410 $-1 #
edge $-1 $554 -24.148712257171617 $421 -17.468716587047133 $412 $620 forward 7 unknown #
edge $-1 $422 17.468716587047133 $553 24.148712257171617 $548 $621 forward 7 unknown #
coedge $-1 $424 $415 $429 $563 reversed $546 $-1 #
coedge $-1 $415 $424 $426 $561 reversed $546 $-1 #
vertex $-1 $561 $622 #
vertex $-1 $416 $623 #
straight-curve $-1 44.957426679280985 -11.374470221923021 0 0 0 1 I I #
straight-curve $-1 38.277431009156508 -6.4372351109615105 -5.5311386549235104 0 1 0 I I #
straight-curve $-1 38.277431009156508 -6.4372351109615105 5.5311386549235104 0 -1 0 I I #
point $-1 38.277431009156508 -11.374470221923021 5.5311386549235104 #
point $-1 38.277431009156508 -11.374470221923021 -5.5311386549235104 #
straight-curve $-1 44.957426679280985 -14.374470221923021 0 0 0 -1 I I #
edge $-1 $553 11.374470221923021 $427 14.374470221923021 $552 $624 forward 7 unknown #
point $-1 44.957426679280992 -14.374470221923021 -5.5311386549235104 #
edge $-1 $430 -14.374470221923021 $554 -11.374470221923021 $551 $625 forward 7 unknown #
point $-1 44.957426679280992 -14.374470221923021 5.5311386549235104 #
coedge $-1 $445 $444 $437 $566 forward $434 $-1 #
edge $-1 $567 42.135359603253207 $570 46.733282336971492 $565 $626 forward 7 unknown #
vertex $-1 $449 $627 #
straight-curve $-1 -0.11352616934666848 20.014771703633187 5.5311386549235095 0 1 0 I I #
edge $-1 $570 -4.4154840739333263 $446 13.473504560493314 $445 $628 forward 7 unknown #
vertex $-1 $569 $629 #
straight-curve $-1 -0.11352616934666848 -11.543498421832844 21.679061041148273 0 -0.81915203911291934 0.57357644374324357 I I #
point $-1 -0.11352616934666848 11.518124304142273 5.5311386549235095 #
point $-1 -18.002514803773309 18.084638365335092 0.93321592120522467 #
straight-curve $-1 0 18.084638365335088 5.5311386549235104 -1 0 0 I I #
vertex $-1 $452 $630 #
point $-1 -11.891375193937129 13.964236651198 2.0366107998739174 #
vertex $-1 $456 $631 #
point $-1 -4.2246657791828568 13.964236651198 2.0366107998739174 #
straight-curve $-1 17.775462465079976 -11.543498421832844 21.679061041148273 0 -0.81915203911291934 0.57357644374324357 I I #
coedge $-1 $464 $470 $466 $582 reversed $460 $-1 #
straight-curve $-1 17.775462465079976 18.084638365335088 47.666498258176716 0 0 -1 I I #
edge $-1 $468 -17.775462465079976 $586 0.11352616934666848 $580 $632 forward 7 unknown #
point $-1 17.775462465079976 11.518124304142273 5.5311386549235095 #
point $-1 17.775462465079976 18.084638365335088 5.5311386549235104 #
point $-1 17.775462465079976 18.084638365335092 0.93321592120522467 #
vertex $-1 $475 $633 #
straight-curve $-1 -0.11352616934666848 20.014771703633187 5.5311386549235095 0 -1 0 I I #
straight-curve $-1 -0.11352616934666848 18.084638365335088 47.666498258176716 0 0 1 I I #
vertex $-1 $478 $634 #
point $-1 5.9976134404895163 13.964236651198 2.0366107998739174 #
vertex $-1 $482 $635 #
point $-1 13.664322855243789 13.964236651198 2.0366107998739174 #
edge $-1 $594 24.025345249462902 $597 29.432966624524894 $487 $636 forward 7 unknown #
vertex $-1 $501 $637 #
straight-curve $-1 -18.759519312665358 -42.972120172316849 5.5311386549235095 0 -1 0 I I #
edge $-1 $597 -14.320719312856763 $498 5.4431193132395741 $497 $638 forward 7 unknown #
vertex $-1 $596 $639 #
straight-curve $-1 -18.759519312665358 -18.084638365335081 0.12351727986152383 0 0.65605901945558964 0.75470958851134928 I I #
point $-1 -18.759519312665358 -13.383864940807557 5.5311386549235104 #
point $-1 1.0043193134309796 -18.084638365335088 0.12351727986151566 #
straight-curve $-1 0 -18.084638365335088 5.5311386549235104 1 0 0 I I #
vertex $-1 $504 $640 #
point $-1 -11.612708276637832 -11.498899845355959 -0.85440709509690937 #
vertex $-1 $508 $641 #
point $-1 -3.1424917225965459 -11.498899845355959 -0.85440709509690937 #
straight-curve $-1 -44.957426679280985 18.084638365335088 0 0 0 -1 I I #
point $-1 -44.957426679280985 -18.084638365335088 -5.5311386549235104 #
straight-curve $-1 -44.957426679280985 0 -5.5311386549235104 0 1 0 I I #
point $-1 -44.957426679280985 18.084638365335088 -5.5311386549235104 #
coedge $-1 $530 $529 $540 $615 reversed $260 $-1 #
edge $-1 $616 -18.084638365335088 $533 18.084638365335088 $529 $642 forward 7 unknown #
straight-curve $-1 -51.410370010712128 18.084638365335088 -4.0311386549235104 0 0 -1 I I #
point $-1 -51.410370010712128 18.084638365335088 -5.5311386549235104 #
point $-1 -51.410370010712128 18.084638365335088 -2.5311386549235104 #
edge $-1 $544 -1.5 $616 1.5 $610 $643 forward 7 unknown #
vertex $-1 $611 $644 #
straight-curve $-1 -48.183898344996557 -18.084638365335088 -5.5311386549235104 -1 0 0 I I #
straight-curve $-1 -51.410370010712128 0 -2.5311386549235104 0 -1 0 I I #
point $-1 -51.410370010712128 -18.084638365335088 -2.5311386549235104 #
straight-curve $-1 20.808714422109375 -11.374470221923021 5.5311386549235104 -1 0 0 I I #
straight-curve $-1 20.808714422109375 -11.374470221923021 -5.5311386549235104 1 0 0 I I #
point $-1 44.957426679280992 -11.374470221923021 -5.5311386549235104 #
point $-1 44.957426679280992 -11.374470221923021 5.5311386549235104 #
straight-curve $-1 44.957426679280985 0 -5.5311386549235104 0 -1 0 I I #
straight-curve $-1 44.957426679280985 0 5.5311386549235104 0 1 0 I I #
straight-curve $-1 -0.11352616934666848 18.084638365335088 47.666498258176716 0 0 -1 I I #
point $-1 -0.11352616934666848 18.084638365335088 5.5311386549235104 #
straight-curve $-1 -4.5290102432799948 18.084638365335092 0.93321592120522645 -1 0 0 I I #
point $-1 -0.11352616934666848 18.084638365335092 0.93321592120522467 #
point $-1 -12.891375193937129 13.390660207454758 1.2174587607609981 #
point $-1 -5.2246657791828568 13.390660207454758 1.2174587607609981 #
straight-curve $-1 0 18.084638365335088 5.5311386549235104 -1 0 0 I I #
point $-1 -0.11352616934666848 18.084638365335088 5.5311386549235104 #
point $-1 4.9976134404895163 13.390660207454758 1.2174587607609981 #
point $-1 12.664322855243789 13.390660207454758 1.2174587607609981 #
straight-curve $-1 -18.759519312665358 -18.084638365335088 29.556483904386411 0 0 -1 I I #
point $-1 -18.759519312665358 -18.084638365335088 5.5311386549235104 #
straight-curve $-1 -4.4387999998085945 -18.084638365335088 0.12351727986151495 1 0 0 I I #
point $-1 -18.759519312665358 -18.084638365335088 0.12351727986151566 #
point $-1 -13.112708276637832 -10.366835462588936 -1.8384956242802939 #
point $-1 -4.6424917225965459 -10.366835462588936 -1.8384956242802939 #
straight-curve $-1 -51.410370010712128 0 -5.5311386549235104 0 1 0 I I #
straight-curve $-1 -51.410370010712128 -18.084638365335088 -4.0311386549235104 0 0 -1 I I #
point $-1 -51.410370010712128 -18.084638365335088 -5.5311386549235104 #
End-of-ACIS-data 