500 0 12 0           
7 Unknown 11 ACIS 5.0 NT 24 Thu Mar 25 18:11:38 1999 
-1 9.9999999999999995e-007 1e-010 
body $-1 $12 $-1 $13 #
body $-1 $14 $-1 $15 #
body $-1 $16 $-1 $17 #
body $-1 $18 $-1 $19 #
body $-1 $20 $-1 $21 #
body $-1 $22 $-1 $23 #
body $-1 $24 $-1 $25 #
body $-1 $26 $-1 $27 #
body $-1 $28 $-1 $29 #
body $-1 $30 $-1 $31 #
body $-1 $32 $-1 $33 #
body $-1 $34 $-1 $35 #
lump $-1 $-1 $36 $0 #
transform $-1 1 0 0 0 1 0 0 0 1 60.30701620532853 24.80525655717447 11.174212805235173 1 rotate no_reflect no_shear #
lump $-1 $-1 $37 $1 #
transform $-1 1 0 0 0 1 0 0 0 1 60.30701620532853 24.80525655717447 11.174212805235173 1 rotate no_reflect no_shear #
lump $-1 $-1 $38 $2 #
transform $-1 1 0 0 0 1 0 0 0 1 60.30701620532853 24.80525655717447 11.174212805235173 1 rotate no_reflect no_shear #
lump $-1 $-1 $39 $3 #
transform $-1 1 0 0 0 1 0 0 0 1 60.30701620532853 24.80525655717447 11.174212805235173 1 rotate no_reflect no_shear #
lump $-1 $-1 $40 $4 #
transform $-1 1 0 0 0 1 0 0 0 1 60.30701620532853 24.80525655717447 11.174212805235173 1 rotate no_reflect no_shear #
lump $-1 $-1 $41 $5 #
transform $-1 1 0 0 0 1 0 0 0 1 60.30701620532853 24.80525655717447 11.174212805235173 1 rotate no_reflect no_shear #
lump $-1 $-1 $42 $6 #
transform $-1 1 0 0 0 1 0 0 0 1 60.30701620532853 24.80525655717447 11.174212805235173 1 rotate no_reflect no_shear #
lump $-1 $-1 $43 $7 #
transform $-1 1 0 0 0 1 0 0 0 1 60.30701620532853 24.80525655717447 11.174212805235173 1 rotate no_reflect no_shear #
lump $-1 $-1 $44 $8 #
transform $-1 1 0 0 0 1 0 0 0 1 60.30701620532853 24.80525655717447 11.174212805235173 1 rotate no_reflect no_shear #
lump $-1 $-1 $45 $9 #
transform $-1 1 0 0 0 1 0 0 0 1 60.30701620532853 24.80525655717447 11.174212805235173 1 rotate no_reflect no_shear #
lump $-1 $-1 $46 $10 #
transform $-1 1 0 0 0 1 0 0 0 1 60.30701620532853 24.80525655717447 11.174212805235173 1 rotate no_reflect no_shear #
lump $-1 $-1 $47 $11 #
transform $-1 1 0 0 0 1 0 0 0 1 60.30701620532853 24.80525655717447 11.174212805235173 1 rotate no_reflect no_shear #
shell $-1 $-1 $-1 $48 $-1 $12 #
shell $-1 $-1 $-1 $49 $-1 $14 #
shell $-1 $-1 $-1 $50 $-1 $16 #
shell $-1 $-1 $-1 $51 $-1 $18 #
shell $-1 $-1 $-1 $52 $-1 $20 #
shell $-1 $-1 $-1 $53 $-1 $22 #
shell $-1 $-1 $-1 $54 $-1 $24 #
shell $-1 $-1 $-1 $55 $-1 $26 #
shell $-1 $-1 $-1 $56 $-1 $28 #
shell $-1 $-1 $-1 $57 $-1 $30 #
shell $-1 $-1 $-1 $58 $-1 $32 #
shell $-1 $-1 $-1 $59 $-1 $34 #
face $-1 $60 $61 $36 $-1 $62 forward single #
face $-1 $63 $64 $37 $-1 $65 forward single #
face $-1 $66 $67 $38 $-1 $68 reversed single #
face $-1 $69 $70 $39 $-1 $71 forward single #
face $-1 $72 $73 $40 $-1 $74 forward single #
face $-1 $75 $76 $41 $-1 $77 reversed single #
face $-1 $78 $79 $42 $-1 $80 forward single #
face $-1 $81 $82 $43 $-1 $83 forward single #
face $-1 $84 $85 $44 $-1 $86 reversed single #
face $-1 $87 $88 $45 $-1 $89 forward single #
face $-1 $90 $91 $46 $-1 $92 forward single #
face $-1 $93 $94 $47 $-1 $95 forward single #
face $-1 $96 $97 $36 $-1 $98 reversed single #
loop $-1 $-1 $99 $48 #
plane-surface $-1 0 0 11.174212805235173 0 0 1 1 0 0 forward_v I I I I #
face $-1 $100 $101 $37 $-1 $102 reversed single #
loop $-1 $-1 $103 $49 #
plane-surface $-1 -56.457473123829942 0 7.3183938401154718 0 0 1 1 0 0 forward_v I I I I #
face $-1 $104 $105 $38 $-1 $106 reversed single #
loop $-1 $-1 $107 $50 #
plane-surface $-1 -18.65298216477148 -118.53996573827234 76.211211573495646 1 0 0 0 0.77714596973225614 -0.62932038083071107 forward_v I I I I #
face $-1 $108 $109 $39 $-1 $110 forward single #
loop $-1 $111 $112 $51 #
cone-surface $-1 -12.223689237265745 -18.375877273728516 4.0971729159262633 0 0.77714596973225614 -0.62932038083071107 2 0 0 1 I I 0 1 2 forward I I I I #
face $-1 $113 $114 $40 $-1 $115 forward single #
loop $-1 $116 $117 $52 #
cone-surface $-1 -2.5797498460071395 -18.375877273728516 4.0971729159262633 0 0.77714596973225614 -0.62932038083071107 2 0 0 1 I I 0 1 2 forward I I I I #
face $-1 $118 $119 $41 $-1 $120 reversed single #
loop $-1 $-1 $121 $53 #
plane-surface $-1 37.804490959058462 -118.53996573827234 76.211211573495646 1 0 0 0 0.77714596973225614 -0.62932038083071107 forward_v I I I I #
face $-1 $122 $123 $42 $-1 $124 forward single #
loop $-1 $125 $126 $54 #
cone-surface $-1 44.23378388656419 -18.375877273728516 4.0971729159262633 0 0.77714596973225614 -0.62932038083071107 2 0 0 1 I I 0 1 2 forward I I I I #
face $-1 $127 $128 $43 $-1 $129 forward single #
loop $-1 $130 $131 $55 #
cone-surface $-1 53.877723277822803 -18.375877273728516 4.0971729159262633 0 0.77714596973225614 -0.62932038083071107 2 0 0 1 I I 0 1 2 forward I I I I #
face $-1 $132 $133 $44 $-1 $134 reversed single #
loop $-1 $-1 $135 $56 #
plane-surface $-1 -49.028908203861121 98.940875208920531 112.87152870107271 1 0 0 0 -0.83867057594974714 -0.54463902268945019 forward_v I I I I #
face $-1 $136 $137 $45 $-1 $138 forward single #
loop $-1 $139 $140 $57 #
cone-surface $-1 -46.267907403282798 22.279687638645214 7.9147399218146948 0 -0.83867057594974714 -0.54463902268945019 1 0 0 1 I I 0 1 1 forward I I I I #
face $-1 $141 $142 $46 $-1 $143 forward single #
loop $-1 $144 $145 $58 #
cone-surface $-1 -42.126406202415311 22.279687638645214 7.9147399218146948 0 -0.83867057594974714 -0.54463902268945019 1 0 0 1 I I 0 1 1 forward I I I I #
face $-1 $146 $147 $47 $-1 $148 forward single #
loop $-1 $149 $150 $59 #
cone-surface $-1 -37.984905001547816 22.279687638645214 7.9147399218146948 0 -0.83867057594974714 -0.54463902268945019 1 0 0 1 I I 0 1 1 forward I I I I #
face $-1 $151 $152 $36 $-1 $153 reversed single #
loop $-1 $-1 $154 $60 #
plane-surface $-1 0 0 -11.174212805235173 0 0 1 1 0 0 forward_v I I I I #
coedge $-1 $155 $156 $157 $158 forward $61 $-1 #
face $-1 $159 $160 $37 $-1 $161 reversed single #
loop $-1 $-1 $162 $63 #
plane-surface $-1 -56.457473123829942 0 3.9461803098609929 0 0 1 1 0 0 forward_v I I I I #
coedge $-1 $163 $164 $165 $166 forward $64 $-1 #
face $-1 $167 $168 $38 $-1 $169 reversed single #
loop $-1 $-1 $170 $66 #
plane-surface $-1 -7.4017195416364459 -24.805256557174488 0.30634276329321608 0 -0.77714596973225614 0.62932038083071107 1 0 0 forward_v I I I I #
coedge $-1 $171 $172 $173 $174 reversed $67 $-1 #
face $-1 $-1 $175 $39 $-1 $176 forward single #
loop $-1 $177 $178 $69 #
cone-surface $-1 -12.223689237265745 -15.569665719642064 1.8247476667576219 0 0.77714596973225614 -0.62932038083071107 1 0 0 1 I I -0.70710678118654746 0.70710678118654746 1 forward I I I I #
loop $-1 $-1 $179 $51 #
coedge $-1 $112 $112 $180 $181 reversed $70 $-1 #
face $-1 $-1 $182 $40 $-1 $183 forward single #
loop $-1 $184 $185 $72 #
cone-surface $-1 -2.5797498460071395 -15.569665719642064 1.8247476667576219 0 0.77714596973225614 -0.62932038083071107 1 0 0 1 I I -0.70710678118654746 0.70710678118654746 1 forward I I I I #
loop $-1 $-1 $186 $52 #
coedge $-1 $117 $117 $187 $188 reversed $73 $-1 #
face $-1 $189 $190 $41 $-1 $191 reversed single #
loop $-1 $-1 $192 $75 #
plane-surface $-1 49.055753582193496 -24.805256557174488 0.30634276329321608 0 -0.77714596973225614 0.62932038083071107 1 0 0 forward_v I I I I #
coedge $-1 $193 $194 $195 $196 reversed $76 $-1 #
face $-1 $-1 $197 $42 $-1 $198 forward single #
loop $-1 $199 $200 $78 #
cone-surface $-1 44.23378388656419 -15.569665719642064 1.8247476667576219 0 0.77714596973225614 -0.62932038083071107 1 0 0 1 I I -0.70710678118654746 0.70710678118654746 1 forward I I I I #
loop $-1 $-1 $201 $54 #
coedge $-1 $126 $126 $202 $203 reversed $79 $-1 #
face $-1 $-1 $204 $43 $-1 $205 forward single #
loop $-1 $206 $207 $81 #
cone-surface $-1 53.877723277822803 -15.569665719642064 1.8247476667576219 0 0.77714596973225614 -0.62932038083071107 1 0 0 1 I I -0.70710678118654746 0.70710678118654746 1 forward I I I I #
loop $-1 $-1 $208 $55 #
coedge $-1 $131 $131 $209 $210 reversed $82 $-1 #
face $-1 $211 $212 $44 $-1 $213 reversed single #
loop $-1 $-1 $214 $84 #
plane-surface $-1 -42.126406202415303 -2.2145648205466983 47.180419966298771 0 0.83867057594974714 0.54463902268945019 1 0 0 forward_v I I I I #
coedge $-1 $215 $216 $217 $218 reversed $85 $-1 #
face $-1 $-1 $219 $45 $-1 $220 forward single #
loop $-1 $221 $222 $87 #
cone-surface $-1 -46.267907403282798 21.153342330849792 7.1832827499044409 0 -0.83867057594974714 -0.54463902268945019 0.5 0 0 1 I I -0.70710678118654746 0.70710678118654746 0.5 forward I I I I #
loop $-1 $-1 $223 $57 #
coedge $-1 $140 $140 $224 $225 reversed $88 $-1 #
face $-1 $-1 $226 $46 $-1 $227 forward single #
loop $-1 $228 $229 $90 #
cone-surface $-1 -42.126406202415311 21.153342330849792 7.1832827499044409 0 -0.83867057594974714 -0.54463902268945019 0.5 0 0 1 I I -0.70710678118654746 0.70710678118654746 0.5 forward I I I I #
loop $-1 $-1 $230 $58 #
coedge $-1 $145 $145 $231 $232 reversed $91 $-1 #
face $-1 $-1 $233 $47 $-1 $234 forward single #
loop $-1 $235 $236 $93 #
cone-surface $-1 -37.984905001547816 21.153342330849792 7.1832827499044409 0 -0.83867057594974714 -0.54463902268945019 0.5 0 0 1 I I -0.70710678118654746 0.70710678118654746 0.5 forward I I I I #
loop $-1 $-1 $237 $59 #
coedge $-1 $150 $150 $238 $239 reversed $94 $-1 #
face $-1 $240 $241 $36 $-1 $242 reversed single #
loop $-1 $-1 $243 $96 #
plane-surface $-1 0 -24.80525655717447 0 0 1 0 0 0 1 forward_v I I I I #
coedge $-1 $244 $245 $246 $247 forward $97 $-1 #
coedge $-1 $248 $99 $249 $250 forward $61 $-1 #
coedge $-1 $99 $248 $251 $252 forward $61 $-1 #
coedge $-1 $253 $254 $99 $158 reversed $255 $-1 #
edge $-1 $256 -24.80525655717447 $257 24.80525655717447 $157 $258 forward 7 unknown #
face $-1 $259 $260 $37 $-1 $261 reversed single #
loop $-1 $-1 $262 $100 #
plane-surface $-1 -52.607930042331354 0 5.6322870749882323 -1 0 0 0 0 1 forward_v I I I I #
coedge $-1 $263 $264 $265 $266 forward $101 $-1 #
coedge $-1 $267 $103 $268 $269 reversed $64 $-1 #
coedge $-1 $103 $267 $270 $271 reversed $64 $-1 #
coedge $-1 $262 $272 $103 $166 reversed $160 $-1 #
edge $-1 $273 -24.80525655717447 $274 24.80525655717447 $165 $275 forward 7 unknown #
face $-1 $276 $277 $38 $-1 $278 forward single #
loop $-1 $-1 $279 $104 #
plane-surface $-1 3.849543081498588 -118.53996573827234 76.211211573495646 -1 0 0 0 -0.77714596973225614 0.62932038083071107 forward_v I I I I #
coedge $-1 $280 $281 $282 $283 reversed $105 $-1 #
coedge $-1 $172 $107 $284 $285 reversed $67 $-1 #
coedge $-1 $107 $171 $280 $286 reversed $67 $-1 #
coedge $-1 $282 $287 $107 $174 forward $288 $-1 #
edge $-1 $289 26.931392981512651 $290 37.799263023454586 $173 $291 forward 7 unknown #
loop $-1 $-1 $180 $108 #
plane-surface $-1 -7.4017195416364459 -24.805256557174488 0.30634276329321608 0 -0.77714596973225614 0.62932038083071107 1 0 0 forward_v I I I I #
loop $-1 $-1 $292 $69 #
coedge $-1 $178 $178 $179 $293 reversed $109 $-1 #
coedge $-1 $179 $179 $178 $293 forward $111 $-1 #
coedge $-1 $180 $180 $112 $181 forward $175 $-1 #
edge $-1 $294 -9.7528708377771695e-017 $294 6.2831853071796004 $180 $295 forward 7 unknown #
loop $-1 $-1 $187 $113 #
plane-surface $-1 -7.4017195416364459 -24.805256557174488 0.30634276329321608 0 -0.77714596973225614 0.62932038083071107 1 0 0 forward_v I I I I #
loop $-1 $-1 $296 $72 #
coedge $-1 $185 $185 $186 $297 reversed $114 $-1 #
coedge $-1 $186 $186 $185 $297 forward $116 $-1 #
coedge $-1 $187 $187 $117 $188 forward $182 $-1 #
edge $-1 $298 -9.7528708377771695e-017 $298 6.2831853071796004 $187 $299 forward 7 unknown #
face $-1 $300 $301 $41 $-1 $302 forward single #
loop $-1 $-1 $195 $118 #
plane-surface $-1 0 -24.80525655717447 0 0 1 0 0 0 1 forward_v I I I I #
coedge $-1 $303 $304 $305 $306 reversed $119 $-1 #
coedge $-1 $194 $121 $307 $308 reversed $76 $-1 #
coedge $-1 $121 $193 $303 $309 reversed $76 $-1 #
coedge $-1 $305 $310 $121 $196 forward $190 $-1 #
edge $-1 $311 26.931392981512651 $312 37.799263023454586 $195 $313 forward 7 unknown #
loop $-1 $-1 $202 $122 #
plane-surface $-1 49.055753582193496 -24.805256557174488 0.30634276329321608 0 -0.77714596973225614 0.62932038083071107 1 0 0 forward_v I I I I #
loop $-1 $-1 $314 $78 #
coedge $-1 $200 $200 $201 $315 reversed $123 $-1 #
coedge $-1 $201 $201 $200 $315 forward $125 $-1 #
coedge $-1 $202 $202 $126 $203 forward $197 $-1 #
edge $-1 $316 -9.7528708377771695e-017 $316 6.2831853071796004 $202 $317 forward 7 unknown #
loop $-1 $-1 $209 $127 #
plane-surface $-1 49.055753582193496 -24.805256557174488 0.30634276329321608 0 -0.77714596973225614 0.62932038083071107 1 0 0 forward_v I I I I #
loop $-1 $-1 $318 $81 #
coedge $-1 $207 $207 $208 $319 reversed $128 $-1 #
coedge $-1 $208 $208 $207 $319 forward $130 $-1 #
coedge $-1 $209 $209 $131 $210 forward $204 $-1 #
edge $-1 $320 -9.7528708377771695e-017 $320 6.2831853071796004 $209 $321 forward 7 unknown #
face $-1 $322 $323 $44 $-1 $324 reversed single #
loop $-1 $-1 $325 $132 #
plane-surface $-1 -35.223904200969486 98.940875208920531 112.87152870107271 -1 0 0 0 0.83867057594974714 0.54463902268945019 forward_v I I I I #
coedge $-1 $326 $327 $328 $329 reversed $133 $-1 #
coedge $-1 $216 $135 $330 $331 reversed $85 $-1 #
coedge $-1 $135 $215 $326 $332 reversed $85 $-1 #
coedge $-1 $328 $333 $135 $218 forward $334 $-1 #
edge $-1 $335 24.665181047285795 $336 28.302298844703213 $217 $337 forward 7 unknown #
loop $-1 $-1 $224 $136 #
plane-surface $-1 -42.126406202415303 -2.2145648205466983 47.180419966298771 0 0.83867057594974714 0.54463902268945019 1 0 0 forward_v I I I I #
loop $-1 $-1 $338 $87 #
coedge $-1 $222 $222 $223 $339 reversed $137 $-1 #
coedge $-1 $223 $223 $222 $339 forward $139 $-1 #
coedge $-1 $224 $224 $140 $225 forward $219 $-1 #
edge $-1 $340 4.4516829232526574e-016 $340 6.2831853071796013 $224 $341 forward 7 unknown #
loop $-1 $-1 $231 $141 #
plane-surface $-1 -42.126406202415303 -2.2145648205466983 47.180419966298771 0 0.83867057594974714 0.54463902268945019 1 0 0 forward_v I I I I #
loop $-1 $-1 $342 $90 #
coedge $-1 $229 $229 $230 $343 reversed $142 $-1 #
coedge $-1 $230 $230 $229 $343 forward $144 $-1 #
coedge $-1 $231 $231 $145 $232 forward $226 $-1 #
edge $-1 $344 4.4516829232526574e-016 $344 6.2831853071796013 $231 $345 forward 7 unknown #
loop $-1 $-1 $238 $146 #
plane-surface $-1 -42.126406202415303 -2.2145648205466983 47.180419966298771 0 0.83867057594974714 0.54463902268945019 1 0 0 forward_v I I I I #
loop $-1 $-1 $346 $93 #
coedge $-1 $236 $236 $237 $347 reversed $147 $-1 #
coedge $-1 $237 $237 $236 $347 forward $149 $-1 #
coedge $-1 $238 $238 $150 $239 forward $233 $-1 #
edge $-1 $348 4.4516829232526574e-016 $348 6.2831853071796013 $238 $349 forward 7 unknown #
face $-1 $350 $351 $36 $-1 $352 reversed single #
loop $-1 $-1 $353 $151 #
plane-surface $-1 -60.30701620532853 0 0 1 0 0 0 0 -1 forward_v I I I I #
coedge $-1 $354 $251 $355 $356 forward $152 $-1 #
coedge $-1 $357 $154 $354 $358 forward $97 $-1 #
coedge $-1 $154 $357 $359 $360 forward $97 $-1 #
coedge $-1 $254 $253 $154 $247 reversed $255 $-1 #
edge $-1 $361 -24.80525655717447 $362 24.80525655717447 $246 $363 forward 7 unknown #
coedge $-1 $156 $155 $364 $365 forward $61 $-1 #
coedge $-1 $366 $367 $155 $250 reversed $351 $-1 #
edge $-1 $257 -60.30701620532853 $368 60.30701620532853 $249 $369 forward 7 unknown #
coedge $-1 $243 $370 $156 $252 reversed $152 $-1 #
edge $-1 $371 -60.30701620532853 $256 60.30701620532853 $251 $372 forward 7 unknown #
coedge $-1 $246 $157 $370 $373 forward $255 $-1 #
coedge $-1 $157 $246 $366 $374 reversed $255 $-1 #
loop $-1 $-1 $253 $350 #
vertex $-1 $158 $375 #
vertex $-1 $158 $376 #
straight-curve $-1 60.30701620532853 0 11.174212805235173 0 1 0 I I #
face $-1 $377 $378 $37 $-1 $379 reversed single #
loop $-1 $-1 $380 $159 #
plane-surface $-1 0 -24.80525655717447 0 0 1 0 0 0 1 forward_v I I I I #
coedge $-1 $265 $165 $381 $382 reversed $160 $-1 #
coedge $-1 $383 $162 $380 $384 reversed $101 $-1 #
coedge $-1 $162 $383 $385 $386 reversed $101 $-1 #
coedge $-1 $272 $262 $162 $266 reversed $160 $-1 #
edge $-1 $387 -24.80525655717447 $388 24.80525655717447 $265 $389 forward 7 unknown #
coedge $-1 $164 $163 $390 $391 reversed $64 $-1 #
coedge $-1 $392 $393 $163 $269 forward $394 $-1 #
edge $-1 $395 -32.078279643413559 $274 -24.379193480416383 $268 $396 forward 7 unknown #
coedge $-1 $397 $381 $164 $271 forward $260 $-1 #
edge $-1 $273 24.379193480416383 $398 32.078279643413559 $270 $399 forward 7 unknown #
coedge $-1 $165 $265 $392 $400 reversed $160 $-1 #
vertex $-1 $271 $401 #
vertex $-1 $269 $402 #
straight-curve $-1 -52.607930042331354 0 7.3183938401154718 0 1 0 I I #
face $-1 $-1 $288 $38 $-1 $403 reversed single #
loop $-1 $-1 $404 $167 #
plane-surface $-1 0 0 11.174212805235173 0 0 1 1 0 0 forward_v I I I I #
coedge $-1 $405 $406 $407 $408 reversed $168 $-1 #
coedge $-1 $409 $170 $172 $286 forward $105 $-1 #
coedge $-1 $170 $409 $405 $410 forward $105 $-1 #
coedge $-1 $407 $173 $170 $283 forward $288 $-1 #
edge $-1 $290 -14.952122393953257 $411 7.550402852316811 $282 $412 forward 7 unknown #
coedge $-1 $413 $414 $171 $285 forward $277 $-1 #
edge $-1 $415 -43.265353710145199 $289 -34.464726311961698 $284 $416 forward 7 unknown #
edge $-1 $290 2.8219381271181106e-014 $415 13.984335588443157 $172 $417 forward 7 unknown #
coedge $-1 $173 $407 $413 $418 reversed $288 $-1 #
loop $-1 $-1 $407 $276 #
vertex $-1 $418 $419 #
vertex $-1 $174 $420 #
straight-curve $-1 -18.65298216477148 -24.805256557174474 38.105605786747823 0 0 -1 I I #
coedge $-1 $292 $292 $-1 $421 reversed $177 $-1 #
edge $-1 $422 0 $422 6.2831853071796004 $178 $423 forward 7 unknown #
vertex $-1 $181 $424 #
ellipse-curve $-1 -12.223689237265745 -20.404942858082723 5.7402777842642037 0 -0.77714596973225614 0.62932038083071107 2 0 0 1 I I #
coedge $-1 $296 $296 $-1 $425 reversed $184 $-1 #
edge $-1 $426 0 $426 6.2831853071796004 $185 $427 forward 7 unknown #
vertex $-1 $188 $428 #
ellipse-curve $-1 -2.5797498460071395 -20.404942858082723 5.7402777842642037 0 -0.77714596973225614 0.62932038083071107 2 0 0 1 I I #
face $-1 $-1 $429 $41 $-1 $430 reversed single #
loop $-1 $-1 $307 $189 #
plane-surface $-1 0 0 11.174212805235173 0 0 1 1 0 0 forward_v I I I I #
coedge $-1 $431 $192 $194 $309 forward $119 $-1 #
coedge $-1 $192 $431 $432 $433 reversed $119 $-1 #
coedge $-1 $434 $195 $192 $306 forward $190 $-1 #
edge $-1 $312 13.276614167961714 $435 35.779139414231778 $305 $436 forward 7 unknown #
coedge $-1 $437 $438 $193 $308 forward $301 $-1 #
edge $-1 $439 -43.265353710145199 $311 -34.464726311961698 $307 $440 forward 7 unknown #
edge $-1 $312 2.8219381271181106e-014 $439 13.984335588443157 $194 $441 forward 7 unknown #
coedge $-1 $195 $434 $437 $442 reversed $190 $-1 #
vertex $-1 $442 $443 #
vertex $-1 $196 $444 #
straight-curve $-1 37.804490959058462 -24.805256557174474 38.105605786747823 0 0 -1 I I #
coedge $-1 $314 $314 $-1 $445 reversed $199 $-1 #
edge $-1 $446 0 $446 6.2831853071796004 $200 $447 forward 7 unknown #
vertex $-1 $203 $448 #
ellipse-curve $-1 44.23378388656419 -20.404942858082723 5.7402777842642037 0 -0.77714596973225614 0.62932038083071107 2 0 0 1 I I #
coedge $-1 $318 $318 $-1 $449 reversed $206 $-1 #
edge $-1 $450 0 $450 6.2831853071796004 $207 $451 forward 7 unknown #
vertex $-1 $210 $452 #
ellipse-curve $-1 53.877723277822803 -20.404942858082723 5.7402777842642037 0 -0.77714596973225614 0.62932038083071107 2 0 0 1 I I #
face $-1 $-1 $334 $44 $-1 $453 forward single #
loop $-1 $-1 $454 $211 #
plane-surface $-1 0 24.80525655717447 0 0 -1 0 0 0 -1 forward_v I I I I #
coedge $-1 $455 $456 $457 $458 reversed $212 $-1 #
coedge $-1 $459 $214 $216 $332 forward $133 $-1 #
coedge $-1 $214 $459 $455 $460 forward $133 $-1 #
coedge $-1 $457 $217 $214 $329 forward $334 $-1 #
edge $-1 $336 -27.96570510265347 $461 -14.160701099761834 $328 $462 forward 7 unknown #
coedge $-1 $463 $464 $215 $331 forward $323 $-1 #
edge $-1 $465 -50.862221991011111 $335 -45.261551545301181 $330 $466 forward 7 unknown #
edge $-1 $336 42.932479323348858 $465 49.610513114348961 $216 $467 forward 7 unknown #
coedge $-1 $217 $457 $463 $468 forward $334 $-1 #
loop $-1 $-1 $457 $322 #
vertex $-1 $331 $469 #
vertex $-1 $218 $470 #
straight-curve $-1 -49.028908203861121 49.470437604460265 11.174212805235172 0 -1 0 I I #
coedge $-1 $338 $338 $-1 $471 reversed $221 $-1 #
edge $-1 $472 0 $472 6.2831853071796004 $222 $473 forward 7 unknown #
vertex $-1 $225 $474 #
ellipse-curve $-1 -46.267907403282798 22.986697658465754 8.3738775823802207 0 0.83867057594974714 0.54463902268945019 1 0 0 1 I I #
coedge $-1 $342 $342 $-1 $475 reversed $228 $-1 #
edge $-1 $476 0 $476 6.2831853071796004 $229 $477 forward 7 unknown #
vertex $-1 $232 $478 #
ellipse-curve $-1 -42.126406202415311 22.986697658465754 8.3738775823802207 0 0.83867057594974714 0.54463902268945019 1 0 0 1 I I #
coedge $-1 $346 $346 $-1 $479 reversed $235 $-1 #
edge $-1 $480 0 $480 6.2831853071796004 $236 $481 forward 7 unknown #
vertex $-1 $239 $482 #
ellipse-curve $-1 -37.984905001547816 22.986697658465754 8.3738775823802207 0 0.83867057594974714 0.54463902268945019 1 0 0 1 I I #
face $-1 $-1 $255 $36 $-1 $483 reversed single #
loop $-1 $-1 $366 $240 #
plane-surface $-1 0 24.80525655717447 0 0 -1 0 0 0 -1 forward_v I I I I #
coedge $-1 $484 $364 $367 $485 forward $241 $-1 #
coedge $-1 $370 $243 $244 $358 reversed $152 $-1 #
coedge $-1 $364 $484 $243 $356 reversed $241 $-1 #
edge $-1 $371 -11.174212805235173 $486 11.174212805235173 $355 $487 forward 7 unknown #
coedge $-1 $245 $244 $484 $488 forward $97 $-1 #
edge $-1 $362 -60.30701620532853 $486 60.30701620532853 $354 $489 forward 7 unknown #
coedge $-1 $367 $366 $245 $360 reversed $351 $-1 #
edge $-1 $490 -60.30701620532853 $361 60.30701620532853 $359 $491 forward 7 unknown #
vertex $-1 $247 $492 #
vertex $-1 $373 $493 #
straight-curve $-1 60.30701620532853 0 -11.174212805235173 0 -1 0 I I #
coedge $-1 $353 $355 $248 $365 reversed $241 $-1 #
edge $-1 $368 -24.80525655717447 $371 24.80525655717447 $364 $494 forward 7 unknown #
coedge $-1 $359 $249 $254 $374 forward $351 $-1 #
coedge $-1 $249 $359 $353 $485 reversed $351 $-1 #
vertex $-1 $250 $495 #
straight-curve $-1 0 24.80525655717447 11.174212805235173 -1 0 0 I I #
coedge $-1 $251 $354 $253 $373 reversed $152 $-1 #
vertex $-1 $365 $496 #
straight-curve $-1 0 -24.80525655717447 11.174212805235173 1 0 0 I I #
edge $-1 $256 -11.174212805235173 $362 11.174212805235173 $253 $497 forward 7 unknown #
edge $-1 $257 -11.174212805235173 $361 11.174212805235173 $254 $498 forward 7 unknown #
point $-1 60.30701620532853 -24.80525655717447 11.174212805235173 #
point $-1 60.30701620532853 24.80525655717447 11.174212805235173 #
face $-1 $-1 $394 $37 $-1 $499 reversed single #
loop $-1 $-1 $500 $259 #
plane-surface $-1 -60.30701620532853 0 0 1 0 0 0 0 -1 forward_v I I I I #
coedge $-1 $381 $397 $263 $384 forward $260 $-1 #
coedge $-1 $270 $380 $262 $382 forward $260 $-1 #
edge $-1 $388 1.1300367723668767 $273 4.5022503026213556 $381 $501 forward 7 unknown #
coedge $-1 $264 $263 $500 $502 reversed $101 $-1 #
edge $-1 $503 -32.078279643413559 $388 -24.379193480416383 $380 $504 forward 7 unknown #
coedge $-1 $393 $392 $264 $386 forward $394 $-1 #
edge $-1 $387 24.379193480416383 $505 32.078279643413559 $385 $506 forward 7 unknown #
vertex $-1 $386 $507 #
vertex $-1 $384 $508 #
straight-curve $-1 -52.607930042331354 0 3.9461803098609929 0 -1 0 I I #
coedge $-1 $509 $510 $267 $391 forward $378 $-1 #
edge $-1 $398 -24.80525655717447 $395 24.80525655717447 $390 $511 forward 7 unknown #
coedge $-1 $385 $268 $272 $400 forward $394 $-1 #
coedge $-1 $268 $385 $509 $512 reversed $394 $-1 #
loop $-1 $-1 $385 $377 #
vertex $-1 $512 $513 #
straight-curve $-1 -28.228736561914971 24.80525655717447 7.3183938401154718 1 0 0 I I #
coedge $-1 $380 $270 $510 $514 forward $260 $-1 #
vertex $-1 $514 $515 #
straight-curve $-1 -28.228736561914971 -24.80525655717447 7.3183938401154718 -1 0 0 I I #
edge $-1 $274 -4.5022503026213556 $387 -1.1300367723668767 $392 $516 forward 7 unknown #
point $-1 -52.607930042331354 -24.80525655717447 7.3183938401154718 #
point $-1 -52.607930042331354 24.80525655717447 7.3183938401154718 #
plane-surface $-1 0 -24.80525655717447 0 0 1 0 0 0 1 forward_v I I I I #
coedge $-1 $414 $413 $406 $517 forward $277 $-1 #
coedge $-1 $406 $279 $281 $410 reversed $168 $-1 #
coedge $-1 $279 $405 $404 $517 reversed $168 $-1 #
coedge $-1 $287 $282 $279 $408 forward $288 $-1 #
edge $-1 $411 -37.799263023454586 $518 -26.931392981512651 $407 $519 forward 7 unknown #
coedge $-1 $281 $280 $414 $520 reversed $105 $-1 #
edge $-1 $521 -13.984335588443157 $411 -2.8219381271181106e-014 $405 $522 forward 7 unknown #
vertex $-1 $283 $523 #
straight-curve $-1 -3.7008597708182229 -24.80525655717447 0.30634276329324062 1 0 0 I I #
coedge $-1 $404 $284 $287 $418 forward $277 $-1 #
coedge $-1 $284 $404 $409 $520 forward $277 $-1 #
vertex $-1 $285 $524 #
straight-curve $-1 -18.65298216477148 -59.269982869136172 11.174212805235172 0 -1 0 I I #
straight-curve $-1 -18.65298216477148 -24.805256557174488 0.30634276329321608 0 0.62932038083071107 0.77714596973225614 I I #
edge $-1 $289 -18.65298216477148 $518 3.849543081498588 $287 $525 forward 7 unknown #
point $-1 -18.65298216477148 -24.80525655717447 11.174212805235173 #
point $-1 -18.65298216477148 -24.80525655717447 0.30634276329323801 #
edge $-1 $526 1 $526 0 $292 $-1 forward 7 unknown #
vertex $-1 $293 $527 #
ellipse-curve $-1 -12.223689237265745 -16.34681168937432 2.4540680475883327 0 -0.77714596973225614 0.62932038083071107 2 0 0 1 I I #
point $-1 -10.223689237265745 -20.404942858082713 5.7402777842641948 #
edge $-1 $528 1 $528 0 $296 $-1 forward 7 unknown #
vertex $-1 $297 $529 #
ellipse-curve $-1 -2.5797498460071395 -16.34681168937432 2.4540680475883327 0 -0.77714596973225614 0.62932038083071107 2 0 0 1 I I #
point $-1 -0.57974984600713952 -20.404942858082713 5.7402777842641948 #
loop $-1 $-1 $432 $300 #
plane-surface $-1 60.30701620532853 0 0 -1 0 0 0 0 1 forward_v I I I I #
coedge $-1 $304 $303 $438 $530 reversed $119 $-1 #
coedge $-1 $531 $532 $304 $433 forward $429 $-1 #
edge $-1 $435 -7.6861902296572602 $533 6.2981453587858685 $432 $534 forward 7 unknown #
coedge $-1 $310 $305 $532 $535 reversed $190 $-1 #
vertex $-1 $306 $536 #
straight-curve $-1 24.527876791096748 -24.80525655717447 0.30634276329324062 1 0 0 I I #
coedge $-1 $537 $307 $310 $442 forward $301 $-1 #
coedge $-1 $307 $537 $431 $530 forward $301 $-1 #
vertex $-1 $308 $538 #
straight-curve $-1 37.804490959058462 -59.269982869136172 11.174212805235172 0 -1 0 I I #
straight-curve $-1 37.804490959058462 -24.805256557174488 0.30634276329321608 0 0.62932038083071107 0.77714596973225614 I I #
edge $-1 $311 37.804490959058462 $539 60.30701620532853 $310 $540 forward 7 unknown #
point $-1 37.804490959058462 -24.80525655717447 11.174212805235173 #
point $-1 37.804490959058462 -24.80525655717447 0.30634276329323801 #
edge $-1 $541 1 $541 0 $314 $-1 forward 7 unknown #
vertex $-1 $315 $542 #
ellipse-curve $-1 44.23378388656419 -16.34681168937432 2.4540680475883327 0 -0.77714596973225614 0.62932038083071107 2 0 0 1 I I #
point $-1 46.23378388656419 -20.404942858082713 5.7402777842641948 #
edge $-1 $543 1 $543 0 $318 $-1 forward 7 unknown #
vertex $-1 $319 $544 #
ellipse-curve $-1 53.877723277822803 -16.34681168937432 2.4540680475883327 0 -0.77714596973225614 0.62932038083071107 2 0 0 1 I I #
point $-1 55.877723277822803 -20.404942858082713 5.7402777842641948 #
plane-surface $-1 0 0 11.174212805235173 0 0 1 1 0 0 forward_v I I I I #
coedge $-1 $464 $463 $456 $545 forward $323 $-1 #
coedge $-1 $456 $325 $327 $460 reversed $212 $-1 #
coedge $-1 $325 $455 $454 $545 reversed $212 $-1 #
coedge $-1 $333 $328 $325 $458 forward $334 $-1 #
edge $-1 $461 -28.302298844703213 $546 -24.665181047285795 $457 $547 forward 7 unknown #
coedge $-1 $327 $326 $464 $548 reversed $133 $-1 #
edge $-1 $549 -49.610513114348961 $461 -42.932479323348858 $455 $550 forward 7 unknown #
vertex $-1 $329 $551 #
straight-curve $-1 -21.063203101207652 21.168138759757049 11.174212805235175 1 0 0 I I #
coedge $-1 $454 $330 $333 $468 reversed $323 $-1 #
coedge $-1 $330 $454 $459 $548 forward $323 $-1 #
vertex $-1 $331 $552 #
straight-curve $-1 -49.028908203861121 24.805256557174474 56.435764350536353 0 0 1 I I #
straight-curve $-1 -49.028908203861121 -2.2145648205466983 47.180419966298771 0 0.54463902268945019 -0.83867057594974714 I I #
edge $-1 $546 35.223904200969486 $335 49.028908203861121 $463 $553 forward 7 unknown #
point $-1 -49.028908203861121 24.80525655717447 11.174212805235173 #
point $-1 -49.028908203861121 21.168138759757053 11.174212805235172 #
edge $-1 $554 1 $554 0 $338 $-1 forward 7 unknown #
vertex $-1 $339 $555 #
ellipse-curve $-1 -46.267907403282798 21.572677618824667 7.4556022612491661 0 0.83867057594974714 0.54463902268945019 1 0 0 1 I I #
point $-1 -45.267907403282798 22.986697658465758 8.3738775823802225 #
edge $-1 $556 1 $556 0 $342 $-1 forward 7 unknown #
vertex $-1 $343 $557 #
ellipse-curve $-1 -42.126406202415311 21.572677618824667 7.4556022612491661 0 0.83867057594974714 0.54463902268945019 1 0 0 1 I I #
point $-1 -41.126406202415311 22.986697658465758 8.3738775823802225 #
edge $-1 $558 1 $558 0 $346 $-1 forward 7 unknown #
vertex $-1 $347 $559 #
ellipse-curve $-1 -37.984905001547816 21.572677618824667 7.4556022612491661 0 0.83867057594974714 0.54463902268945019 1 0 0 1 I I #
point $-1 -36.984905001547816 22.986697658465758 8.3738775823802225 #
plane-surface $-1 60.30701620532853 0 0 -1 0 0 0 0 1 forward_v I I I I #
coedge $-1 $355 $353 $357 $488 reversed $241 $-1 #
edge $-1 $368 -11.174212805235173 $490 11.174212805235173 $367 $560 forward 7 unknown #
vertex $-1 $488 $561 #
straight-curve $-1 -60.30701620532853 -24.80525655717447 0 0 0 -1 I I #
edge $-1 $486 -24.80525655717447 $490 24.80525655717447 $484 $562 forward 7 unknown #
straight-curve $-1 0 -24.80525655717447 -11.174212805235173 -1 0 0 I I #
vertex $-1 $360 $563 #
straight-curve $-1 0 24.80525655717447 -11.174212805235173 1 0 0 I I #
point $-1 60.30701620532853 24.80525655717447 -11.174212805235173 #
point $-1 60.30701620532853 -24.80525655717447 -11.174212805235173 #
straight-curve $-1 -60.30701620532853 0 11.174212805235173 0 -1 0 I I #
point $-1 -60.30701620532853 24.80525655717447 11.174212805235173 #
point $-1 -60.30701620532853 -24.80525655717447 11.174212805235173 #
straight-curve $-1 60.30701620532853 -24.80525655717447 0 0 0 -1 I I #
straight-curve $-1 60.30701620532853 24.80525655717447 0 0 0 -1 I I #
plane-surface $-1 0 24.80525655717447 0 0 -1 0 0 0 -1 forward_v I I I I #
coedge $-1 $510 $509 $383 $502 forward $378 $-1 #
straight-curve $-1 -52.607930042331354 -24.80525655717447 2.8161435374941162 0 0 1 I I #
edge $-1 $505 -24.80525655717447 $503 24.80525655717447 $500 $564 forward 7 unknown #
vertex $-1 $384 $565 #
straight-curve $-1 -28.228736561914971 -24.80525655717447 3.9461803098609929 1 0 0 I I #
vertex $-1 $386 $566 #
straight-curve $-1 -28.228736561914971 24.80525655717447 3.9461803098609929 -1 0 0 I I #
point $-1 -52.607930042331354 24.80525655717447 3.9461803098609929 #
point $-1 -52.607930042331354 -24.80525655717447 3.9461803098609929 #
coedge $-1 $500 $390 $393 $512 forward $378 $-1 #
coedge $-1 $390 $500 $397 $514 reversed $378 $-1 #
straight-curve $-1 -60.30701620532853 0 7.3183938401154718 0 1 0 I I #
edge $-1 $395 -7.3183938401154718 $505 -3.9461803098609929 $393 $567 forward 7 unknown #
point $-1 -60.30701620532853 24.80525655717447 7.3183938401154718 #
edge $-1 $398 -7.3183938401154718 $503 -3.9461803098609929 $510 $568 forward 7 unknown #
point $-1 -60.30701620532853 -24.80525655717447 7.3183938401154718 #
straight-curve $-1 -52.607930042331354 24.80525655717447 2.8161435374941162 0 0 -1 I I #
edge $-1 $518 34.464726311961698 $521 43.265353710145199 $404 $569 forward 7 unknown #
vertex $-1 $517 $570 #
straight-curve $-1 3.849543081498588 -24.805256557174474 38.105605786747823 0 0 1 I I #
edge $-1 $521 -7.550402852316811 $415 14.952122393953257 $414 $571 forward 7 unknown #
vertex $-1 $520 $572 #
straight-curve $-1 3.849543081498588 -24.805256557174488 0.30634276329321608 0 -0.62932038083071107 -0.77714596973225614 I I #
point $-1 3.849543081498588 -24.80525655717447 0.30634276329323801 #
point $-1 -18.65298216477148 -16.004629158990973 11.174212805235173 #
straight-curve $-1 0 -24.80525655717447 11.174212805235173 1 0 0 I I #
vertex $-1 $421 $573 #
point $-1 -10.223689237265745 -16.34681168937432 2.4540680475883327 #
vertex $-1 $425 $574 #
point $-1 -0.57974984600713952 -16.34681168937432 2.4540680475883327 #
edge $-1 $533 -35.779139414231778 $439 -13.276614167961714 $438 $575 forward 7 unknown #
coedge $-1 $532 $432 $537 $576 reversed $429 $-1 #
coedge $-1 $432 $531 $434 $535 forward $429 $-1 #
vertex $-1 $433 $577 #
straight-curve $-1 60.30701620532853 -19.968180394709272 6.2796345228668216 0 0.62932038083071107 0.77714596973225614 I I #
edge $-1 $539 -11.174212805235173 $435 -0.30634276329323801 $532 $578 forward 7 unknown #
point $-1 60.30701620532853 -24.80525655717447 0.30634276329323801 #
coedge $-1 $438 $437 $531 $576 forward $301 $-1 #
point $-1 37.804490959058462 -16.004629158990973 11.174212805235173 #
vertex $-1 $576 $579 #
straight-curve $-1 0 -24.80525655717447 11.174212805235173 1 0 0 I I #
vertex $-1 $445 $580 #
point $-1 46.23378388656419 -16.34681168937432 2.4540680475883327 #
vertex $-1 $449 $581 #
point $-1 55.877723277822803 -16.34681168937432 2.4540680475883327 #
edge $-1 $546 45.261551545301181 $549 50.862221991011111 $454 $582 forward 7 unknown #
vertex $-1 $468 $583 #
straight-curve $-1 -35.223904200969486 49.470437604460265 11.174212805235172 0 1 0 I I #
edge $-1 $549 14.160701099761834 $465 27.96570510265347 $464 $584 forward 7 unknown #
vertex $-1 $548 $585 #
straight-curve $-1 -35.223904200969486 -2.2145648205466983 47.180419966298771 0 -0.54463902268945019 0.83867057594974714 I I #
point $-1 -35.223904200969486 21.168138759757053 11.174212805235172 #
point $-1 -49.028908203861121 24.805256557174474 5.5735423595252414 #
straight-curve $-1 0 24.80525655717447 11.174212805235173 -1 0 0 I I #
vertex $-1 $471 $586 #
point $-1 -45.267907403282798 21.572677618824667 7.4556022612491661 #
vertex $-1 $475 $587 #
point $-1 -41.126406202415311 21.572677618824667 7.4556022612491661 #
vertex $-1 $479 $588 #
point $-1 -36.984905001547816 21.572677618824667 7.4556022612491661 #
straight-curve $-1 -60.30701620532853 24.80525655717447 0 0 0 -1 I I #
point $-1 -60.30701620532853 -24.80525655717447 -11.174212805235173 #
straight-curve $-1 -60.30701620532853 0 -11.174212805235173 0 1 0 I I #
point $-1 -60.30701620532853 24.80525655717447 -11.174212805235173 #
straight-curve $-1 -60.30701620532853 0 3.9461803098609929 0 -1 0 I I #
point $-1 -60.30701620532853 -24.80525655717447 3.9461803098609929 #
point $-1 -60.30701620532853 24.80525655717447 3.9461803098609929 #
straight-curve $-1 -60.30701620532853 24.80525655717447 0 0 0 -1 I I #
straight-curve $-1 -60.30701620532853 -24.80525655717447 0 0 0 -1 I I #
straight-curve $-1 3.849543081498588 -59.269982869136172 11.174212805235172 0 1 0 I I #
point $-1 3.849543081498588 -24.80525655717447 11.174212805235173 #
straight-curve $-1 -3.7008597708182229 -16.004629158990976 11.174212805235173 -1 0 0 I I #
point $-1 3.849543081498588 -16.004629158990973 11.174212805235173 #
point $-1 -12.223689237265745 -14.792519749909808 1.1954272859269108 #
point $-1 -2.5797498460071395 -14.792519749909808 1.1954272859269108 #
straight-curve $-1 24.527876791096748 -16.004629158990976 11.174212805235173 -1 0 0 I I #
edge $-1 $539 -24.80525655717447 $533 -16.004629158990973 $531 $589 forward 7 unknown #
point $-1 60.30701620532853 -16.004629158990973 11.174212805235173 #
straight-curve $-1 60.30701620532853 -24.80525655717447 0 0 0 -1 I I #
point $-1 60.30701620532853 -24.80525655717447 11.174212805235173 #
point $-1 44.23378388656419 -14.792519749909808 1.1954272859269108 #
point $-1 53.877723277822803 -14.792519749909808 1.1954272859269108 #
straight-curve $-1 -35.223904200969486 24.805256557174474 56.435764350536353 0 0 -1 I I #
point $-1 -35.223904200969486 24.80525655717447 11.174212805235173 #
straight-curve $-1 -21.063203101207652 24.80525655717447 5.573542359525252 -1 0 0 I I #
point $-1 -35.223904200969486 24.805256557174474 5.5735423595252414 #
point $-1 -46.267907403282798 20.734007042874918 6.9109632385597157 #
point $-1 -42.126406202415311 20.734007042874918 6.9109632385597157 #
point $-1 -37.984905001547816 20.734007042874918 6.9109632385597157 #
straight-curve $-1 60.30701620532853 0 11.174212805235173 0 1 0 I I #
End-of-ACIS-data 