500 0 5 0           
7 Unknown 11 ACIS 5.0 NT 24 Thu Mar 25 23:50:59 1999 
-1 9.9999999999999995e-007 1e-010 
body $-1 $5 $-1 $6 #
body $-1 $7 $-1 $8 #
body $-1 $9 $-1 $10 #
body $-1 $11 $-1 $12 #
body $-1 $13 $-1 $14 #
lump $-1 $-1 $15 $0 #
transform $-1 1 0 0 0 1 0 0 0 1 60.883205664235362 30.389019601419179 11.190804926313808 1 rotate no_reflect no_shear #
lump $-1 $-1 $16 $1 #
transform $-1 1 0 0 0 1 0 0 0 1 60.883205664235362 30.389019601419179 11.190804926313808 1 rotate no_reflect no_shear #
lump $-1 $-1 $17 $2 #
transform $-1 1 0 0 0 1 0 0 0 1 60.883205664235362 30.389019601419179 11.190804926313808 1 rotate no_reflect no_shear #
lump $-1 $-1 $18 $3 #
transform $-1 1 0 0 0 1 0 0 0 1 60.883205664235362 30.389019601419179 11.190804926313808 1 rotate no_reflect no_shear #
lump $-1 $-1 $19 $4 #
transform $-1 1 0 0 0 1 0 0 0 1 60.883205664235362 30.389019601419179 11.190804926313808 1 rotate no_reflect no_shear #
shell $-1 $-1 $-1 $20 $-1 $5 #
shell $-1 $-1 $-1 $21 $-1 $7 #
shell $-1 $-1 $-1 $22 $-1 $9 #
shell $-1 $-1 $-1 $23 $-1 $11 #
shell $-1 $-1 $-1 $24 $-1 $13 #
face $-1 $25 $26 $15 $-1 $27 forward single #
face $-1 $28 $29 $16 $-1 $30 forward single #
face $-1 $31 $32 $17 $-1 $33 reversed single #
face $-1 $34 $35 $18 $-1 $36 forward single #
face $-1 $37 $38 $19 $-1 $39 forward single #
face $-1 $40 $41 $15 $-1 $42 reversed single #
loop $-1 $-1 $43 $20 #
plane-surface $-1 0 0 11.190804926313808 0 0 1 1 0 0 forward_v I I I I #
face $-1 $44 $45 $16 $-1 $46 forward single #
loop $-1 $-1 $47 $21 #
plane-surface $-1 -60.883205664235362 0 0 1 0 0 0 0 -1 forward_v I I I I #
face $-1 $48 $49 $17 $-1 $50 reversed single #
loop $-1 $-1 $51 $22 #
plane-surface $-1 -40.26098762033709 -94.915387552918958 111.27434849209098 -1 0 0 0 -0.52991927123019833 0.84804809178421925 forward_v I I I I #
face $-1 $52 $53 $18 $-1 $54 forward single #
loop $-1 $55 $56 $23 #
cone-surface $-1 -49.022832793126071 -27.169335299630106 8.5205140747057193 0 0.52991927123019833 -0.84804809178421925 1.5 0 0 1 I I 0 1 1.5 forward I I I I #
face $-1 $57 $58 $19 $-1 $59 forward single #
loop $-1 $60 $61 $24 #
cone-surface $-1 -43.76572568945268 -27.169335299630106 8.5205140747057193 0 0.52991927123019833 -0.84804809178421925 1.5 0 0 1 I I 0 1 1.5 forward I I I I #
face $-1 $62 $63 $15 $-1 $64 reversed single #
loop $-1 $-1 $65 $25 #
plane-surface $-1 0 0 -11.190804926313808 0 0 1 1 0 0 forward_v I I I I #
coedge $-1 $66 $67 $68 $69 forward $26 $-1 #
face $-1 $70 $71 $16 $-1 $72 reversed single #
loop $-1 $-1 $73 $28 #
plane-surface $-1 0 0 11.190804926313808 0 0 1 1 0 0 forward_v I I I I #
coedge $-1 $74 $75 $76 $77 forward $29 $-1 #
face $-1 $78 $79 $17 $-1 $80 reversed single #
loop $-1 $-1 $81 $31 #
plane-surface $-1 -46.394279241289375 -30.389019601419179 8.0105757215690403 0 -0.52991927123019833 0.84804809178421925 1 0 0 forward_v I I I I #
coedge $-1 $82 $83 $84 $85 reversed $32 $-1 #
face $-1 $-1 $86 $18 $-1 $87 forward single #
loop $-1 $88 $89 $34 #
cone-surface $-1 -49.022832793126071 -26.096926801007605 6.8043017566318564 0 0.52991927123019833 -0.84804809178421925 0.75 0 0 1 I I -0.70710678118654713 0.70710678118654802 0.75 forward I I I I #
loop $-1 $-1 $90 $23 #
coedge $-1 $56 $56 $91 $92 reversed $35 $-1 #
face $-1 $-1 $93 $19 $-1 $94 forward single #
loop $-1 $95 $96 $37 #
cone-surface $-1 -43.76572568945268 -26.096926801007605 6.8043017566318564 0 0.52991927123019833 -0.84804809178421925 0.75 0 0 1 I I -0.70710678118654713 0.70710678118654802 0.75 forward I I I I #
loop $-1 $-1 $97 $24 #
coedge $-1 $61 $61 $98 $99 reversed $38 $-1 #
face $-1 $100 $101 $15 $-1 $102 reversed single #
loop $-1 $-1 $103 $40 #
plane-surface $-1 0 -30.389019601419179 0 0 1 0 0 0 1 forward_v I I I I #
coedge $-1 $104 $105 $106 $107 forward $41 $-1 #
coedge $-1 $108 $43 $109 $110 forward $26 $-1 #
coedge $-1 $43 $108 $111 $112 forward $26 $-1 #
coedge $-1 $113 $114 $43 $69 reversed $115 $-1 #
edge $-1 $116 -30.389019601419179 $117 30.389019601419179 $68 $118 forward 7 unknown #
face $-1 $119 $120 $16 $-1 $121 reversed single #
loop $-1 $-1 $122 $44 #
plane-surface $-1 -69.23884046622905 -27.163539119056267 0 1 0 0 0 0 -1 forward_v I I I I #
coedge $-1 $123 $124 $74 $125 forward $45 $-1 #
coedge $-1 $126 $47 $73 $125 reversed $29 $-1 #
coedge $-1 $47 $126 $127 $128 reversed $29 $-1 #
coedge $-1 $129 $130 $47 $77 reversed $120 $-1 #
edge $-1 $131 -11.190804926313808 $132 11.190804926313808 $76 $133 forward 7 unknown #
face $-1 $134 $135 $17 $-1 $136 forward single #
loop $-1 $-1 $137 $48 #
plane-surface $-1 -52.52757086224166 -94.915387552918958 111.27434849209098 1 0 0 0 0.52991927123019833 -0.84804809178421925 forward_v I I I I #
coedge $-1 $138 $139 $140 $141 reversed $49 $-1 #
coedge $-1 $83 $51 $142 $143 reversed $32 $-1 #
coedge $-1 $51 $82 $138 $144 reversed $32 $-1 #
coedge $-1 $140 $145 $51 $85 forward $135 $-1 #
edge $-1 $146 17.0686741750403 $147 22.158104688218724 $84 $148 forward 7 unknown #
loop $-1 $-1 $91 $52 #
plane-surface $-1 -46.394279241289375 -30.389019601419179 8.0105757215690403 0 -0.52991927123019833 0.84804809178421925 1 0 0 forward_v I I I I #
loop $-1 $-1 $149 $34 #
coedge $-1 $89 $89 $90 $150 reversed $53 $-1 #
coedge $-1 $90 $90 $89 $150 forward $55 $-1 #
coedge $-1 $91 $91 $56 $92 forward $86 $-1 #
edge $-1 $151 -5.0162055410438546e-016 $151 6.2831853071795996 $91 $152 forward 7 unknown #
loop $-1 $-1 $98 $57 #
plane-surface $-1 -46.394279241289375 -30.389019601419179 8.0105757215690403 0 -0.52991927123019833 0.84804809178421925 1 0 0 forward_v I I I I #
loop $-1 $-1 $153 $37 #
coedge $-1 $96 $96 $97 $154 reversed $58 $-1 #
coedge $-1 $97 $97 $96 $154 forward $60 $-1 #
coedge $-1 $98 $98 $61 $99 forward $93 $-1 #
edge $-1 $155 -5.0162055410438546e-016 $155 6.2831853071795996 $98 $156 forward 7 unknown #
face $-1 $157 $158 $15 $-1 $159 reversed single #
loop $-1 $-1 $160 $62 #
plane-surface $-1 -60.883205664235362 0 0 1 0 0 0 0 -1 forward_v I I I I #
coedge $-1 $161 $111 $162 $163 forward $63 $-1 #
coedge $-1 $164 $65 $161 $165 forward $41 $-1 #
coedge $-1 $65 $164 $166 $167 forward $41 $-1 #
coedge $-1 $114 $113 $65 $107 reversed $115 $-1 #
edge $-1 $168 -30.389019601419179 $169 30.389019601419179 $106 $170 forward 7 unknown #
coedge $-1 $67 $66 $160 $171 forward $26 $-1 #
coedge $-1 $172 $173 $66 $110 reversed $158 $-1 #
edge $-1 $117 -60.883205664235362 $174 60.883205664235362 $109 $175 forward 7 unknown #
coedge $-1 $103 $176 $67 $112 reversed $63 $-1 #
edge $-1 $177 -60.883205664235362 $116 60.883205664235362 $111 $178 forward 7 unknown #
coedge $-1 $106 $68 $176 $179 forward $115 $-1 #
coedge $-1 $68 $106 $172 $180 reversed $115 $-1 #
loop $-1 $-1 $113 $157 #
vertex $-1 $69 $181 #
vertex $-1 $69 $182 #
straight-curve $-1 60.883205664235362 0 11.190804926313808 0 1 0 I I #
face $-1 $183 $184 $16 $-1 $185 reversed single #
loop $-1 $-1 $76 $70 #
plane-surface $-1 -65.061023065232206 -23.938058636693356 0 0 -1 0 0 0 -1 forward_v I I I I #
coedge $-1 $186 $187 $188 $189 forward $71 $-1 #
coedge $-1 $190 $73 $130 $191 forward $45 $-1 #
coedge $-1 $73 $190 $192 $193 forward $45 $-1 #
edge $-1 $194 -30.389019601419179 $132 -23.938058636693356 $73 $195 forward 7 unknown #
coedge $-1 $75 $74 $196 $197 reversed $29 $-1 #
coedge $-1 $198 $199 $75 $128 forward $184 $-1 #
edge $-1 $131 23.938058636693356 $200 30.389019601419179 $127 $201 forward 7 unknown #
coedge $-1 $188 $76 $199 $202 reversed $120 $-1 #
coedge $-1 $76 $188 $123 $191 reversed $120 $-1 #
vertex $-1 $128 $203 #
vertex $-1 $191 $204 #
straight-curve $-1 -60.883205664235362 -23.938058636693356 0 0 0 1 I I #
face $-1 $-1 $205 $17 $-1 $206 reversed single #
loop $-1 $-1 $84 $78 #
plane-surface $-1 0 0 11.190804926313808 0 0 1 1 0 0 forward_v I I I I #
coedge $-1 $207 $208 $209 $210 reversed $79 $-1 #
coedge $-1 $211 $81 $83 $144 forward $49 $-1 #
coedge $-1 $81 $211 $207 $212 forward $49 $-1 #
coedge $-1 $209 $84 $81 $141 forward $135 $-1 #
edge $-1 $147 17.063847999692403 $213 29.330431241596973 $140 $214 forward 7 unknown #
coedge $-1 $215 $216 $82 $143 forward $205 $-1 #
edge $-1 $217 -47.626598524476449 $146 -44.44636931973168 $142 $218 forward 7 unknown #
edge $-1 $147 -6.0013465774926829 $217 0 $83 $219 forward 7 unknown #
coedge $-1 $84 $209 $215 $220 forward $135 $-1 #
vertex $-1 $85 $221 #
vertex $-1 $85 $222 #
straight-curve $-1 -40.26098762033709 -47.457693776459479 11.19080492631381 0 1 0 I I #
coedge $-1 $149 $149 $-1 $223 reversed $88 $-1 #
edge $-1 $224 0 $224 6.2831853071796004 $89 $225 forward 7 unknown #
vertex $-1 $92 $226 #
ellipse-curve $-1 -49.022832793126071 -27.844304344829961 9.6006903239414267 0 -0.52991927123019833 0.84804809178421925 1.5 0 0 1 I I #
coedge $-1 $153 $153 $-1 $227 reversed $95 $-1 #
edge $-1 $228 0 $228 6.2831853071796004 $96 $229 forward 7 unknown #
vertex $-1 $99 $230 #
ellipse-curve $-1 -43.76572568945268 -27.844304344829961 9.6006903239414267 0 -0.52991927123019833 0.84804809178421925 1.5 0 0 1 I I #
face $-1 $-1 $115 $15 $-1 $231 reversed single #
loop $-1 $-1 $172 $100 #
plane-surface $-1 0 30.389019601419179 0 0 -1 0 0 0 -1 forward_v I I I I #
coedge $-1 $232 $162 $108 $171 reversed $101 $-1 #
coedge $-1 $176 $103 $104 $165 reversed $63 $-1 #
coedge $-1 $160 $233 $103 $163 reversed $101 $-1 #
edge $-1 $177 -11.190804926313808 $234 11.190804926313808 $162 $235 forward 7 unknown #
coedge $-1 $105 $104 $233 $236 forward $41 $-1 #
edge $-1 $169 -60.883205664235362 $234 60.883205664235362 $161 $237 forward 7 unknown #
coedge $-1 $173 $172 $105 $167 reversed $158 $-1 #
edge $-1 $238 -60.883205664235362 $168 60.883205664235362 $166 $239 forward 7 unknown #
vertex $-1 $107 $240 #
vertex $-1 $179 $241 #
straight-curve $-1 60.883205664235362 0 -11.190804926313808 0 -1 0 I I #
edge $-1 $174 -30.389019601419179 $177 30.389019601419179 $160 $242 forward 7 unknown #
coedge $-1 $166 $109 $114 $180 forward $158 $-1 #
coedge $-1 $109 $166 $232 $243 reversed $158 $-1 #
vertex $-1 $110 $244 #
straight-curve $-1 0 30.389019601419179 11.190804926313808 -1 0 0 I I #
coedge $-1 $111 $161 $113 $179 reversed $63 $-1 #
vertex $-1 $171 $245 #
straight-curve $-1 0 -30.389019601419179 11.190804926313808 1 0 0 I I #
edge $-1 $116 -11.190804926313808 $169 11.190804926313808 $113 $246 forward 7 unknown #
edge $-1 $117 -11.190804926313808 $168 11.190804926313808 $114 $247 forward 7 unknown #
point $-1 60.883205664235362 -30.389019601419179 11.190804926313808 #
point $-1 60.883205664235362 30.389019601419179 11.190804926313808 #
face $-1 $-1 $248 $16 $-1 $249 reversed single #
loop $-1 $-1 $127 $119 #
plane-surface $-1 0 0 -11.190804926313808 0 0 1 1 0 0 forward_v I I I I #
coedge $-1 $250 $122 $251 $252 reversed $71 $-1 #
coedge $-1 $122 $250 $190 $253 reversed $71 $-1 #
coedge $-1 $130 $129 $122 $189 reversed $120 $-1 #
edge $-1 $254 -11.190804926313808 $255 11.190804926313808 $188 $256 forward 7 unknown #
coedge $-1 $124 $123 $187 $253 forward $45 $-1 #
edge $-1 $132 -4.1778174009968509 $254 4.1778174009968438 $130 $257 forward 7 unknown #
coedge $-1 $258 $196 $124 $193 reversed $248 $-1 #
edge $-1 $259 -69.23884046622905 $194 -60.883205664235362 $192 $260 forward 7 unknown #
vertex $-1 $197 $261 #
straight-curve $-1 -60.883205664235362 0 11.190804926313808 0 1 0 I I #
coedge $-1 $192 $262 $126 $197 forward $248 $-1 #
edge $-1 $200 -11.190804926313808 $194 11.190804926313808 $196 $263 forward 7 unknown #
coedge $-1 $251 $127 $262 $264 forward $184 $-1 #
coedge $-1 $127 $251 $129 $202 forward $184 $-1 #
vertex $-1 $264 $265 #
straight-curve $-1 -60.883205664235362 0 -11.190804926313808 0 -1 0 I I #
edge $-1 $255 -4.1778174009968438 $131 4.1778174009968509 $129 $266 forward 7 unknown #
point $-1 -60.883205664235355 -23.938058636693356 -11.190804926313808 #
point $-1 -60.883205664235355 -23.938058636693356 11.190804926313808 #
loop $-1 $-1 $142 $134 #
plane-surface $-1 0 -30.389019601419179 0 0 1 0 0 0 1 forward_v I I I I #
coedge $-1 $208 $137 $139 $212 reversed $79 $-1 #
coedge $-1 $137 $207 $267 $268 reversed $79 $-1 #
coedge $-1 $145 $140 $137 $210 forward $135 $-1 #
edge $-1 $213 -22.158104688218724 $269 -17.0686741750403 $209 $270 forward 7 unknown #
coedge $-1 $139 $138 $216 $271 reversed $49 $-1 #
edge $-1 $272 0 $213 6.0013465774926829 $207 $273 forward 7 unknown #
vertex $-1 $141 $274 #
straight-curve $-1 -23.197139620644688 -25.299589088240754 11.190804926313808 -1 0 0 I I #
coedge $-1 $267 $142 $145 $220 reversed $205 $-1 #
coedge $-1 $142 $267 $211 $271 forward $205 $-1 #
vertex $-1 $143 $275 #
straight-curve $-1 -40.26098762033709 -30.389019601419179 55.63717424604549 0 0 1 I I #
straight-curve $-1 -40.26098762033709 -30.389019601419179 8.0105757215690403 0 -0.84804809178421925 -0.52991927123019833 I I #
edge $-1 $269 -52.52757086224166 $146 -40.26098762033709 $215 $276 forward 7 unknown #
point $-1 -40.26098762033709 -30.389019601419179 11.190804926313808 #
point $-1 -40.26098762033709 -25.299589088240754 11.190804926313808 #
edge $-1 $277 1 $277 0 $149 $-1 forward 7 unknown #
vertex $-1 $150 $278 #
ellipse-curve $-1 -49.022832793126071 -26.494366254430254 7.4403378254700216 0 -0.52991927123019833 0.84804809178421925 1.5 0 0 1 I I #
point $-1 -47.522832793126071 -27.844304344829958 9.6006903239414196 #
edge $-1 $279 1 $279 0 $153 $-1 forward 7 unknown #
vertex $-1 $154 $280 #
ellipse-curve $-1 -43.76572568945268 -26.494366254430254 7.4403378254700216 0 -0.52991927123019833 0.84804809178421925 1.5 0 0 1 I I #
point $-1 -42.26572568945268 -27.844304344829958 9.6006903239414196 #
plane-surface $-1 60.883205664235362 0 0 -1 0 0 0 0 1 forward_v I I I I #
coedge $-1 $233 $160 $173 $243 forward $101 $-1 #
coedge $-1 $162 $232 $164 $236 reversed $101 $-1 #
vertex $-1 $236 $281 #
straight-curve $-1 -60.883205664235362 -30.389019601419179 0 0 0 -1 I I #
edge $-1 $234 -30.389019601419179 $238 30.389019601419179 $233 $282 forward 7 unknown #
straight-curve $-1 0 -30.389019601419179 -11.190804926313808 -1 0 0 I I #
vertex $-1 $167 $283 #
straight-curve $-1 0 30.389019601419179 -11.190804926313808 1 0 0 I I #
point $-1 60.883205664235362 30.389019601419179 -11.190804926313808 #
point $-1 60.883205664235362 -30.389019601419179 -11.190804926313808 #
straight-curve $-1 -60.883205664235362 0 11.190804926313808 0 -1 0 I I #
edge $-1 $174 -11.190804926313808 $238 11.190804926313808 $173 $284 forward 7 unknown #
point $-1 -60.883205664235362 30.389019601419179 11.190804926313808 #
point $-1 -60.883205664235362 -30.389019601419179 11.190804926313808 #
straight-curve $-1 60.883205664235362 -30.389019601419179 0 0 0 -1 I I #
straight-curve $-1 60.883205664235362 30.389019601419179 0 0 0 -1 I I #
loop $-1 $-1 $196 $183 #
plane-surface $-1 0 -30.389019601419179 0 0 1 0 0 0 1 forward_v I I I I #
coedge $-1 $187 $186 $258 $285 reversed $71 $-1 #
coedge $-1 $199 $198 $186 $252 forward $184 $-1 #
edge $-1 $286 -3.2254804823629115 $255 3.2254804823629115 $186 $287 forward 7 unknown #
edge $-1 $254 -3.2254804823629115 $259 3.2254804823629115 $187 $288 forward 7 unknown #
vertex $-1 $191 $289 #
vertex $-1 $202 $290 #
straight-curve $-1 -69.23884046622905 -23.938058636693356 0 0 0 -1 I I #
straight-curve $-1 -65.061023065232206 -23.938058636693356 11.190804926313808 -1 0 0 I I #
coedge $-1 $262 $192 $250 $285 forward $248 $-1 #
vertex $-1 $253 $291 #
straight-curve $-1 0 -30.389019601419179 11.190804926313808 1 0 0 I I #
point $-1 -60.883205664235362 -30.389019601419179 11.190804926313808 #
coedge $-1 $196 $258 $198 $264 reversed $248 $-1 #
straight-curve $-1 -60.883205664235362 -30.389019601419179 0 0 0 1 I I #
edge $-1 $200 -4.1778174009968438 $286 4.1778174009968438 $262 $292 forward 7 unknown #
point $-1 -60.883205664235362 -30.389019601419179 -11.190804926313808 #
straight-curve $-1 -65.061023065232206 -23.938058636693356 -11.190804926313808 1 0 0 I I #
coedge $-1 $216 $215 $208 $268 forward $205 $-1 #
edge $-1 $269 44.44636931973168 $272 47.626598524476449 $267 $293 forward 7 unknown #
vertex $-1 $220 $294 #
straight-curve $-1 -52.52757086224166 -47.457693776459479 11.19080492631381 0 -1 0 I I #
edge $-1 $272 -29.330431241596973 $217 -17.063847999692403 $216 $295 forward 7 unknown #
vertex $-1 $271 $296 #
straight-curve $-1 -52.52757086224166 -30.389019601419179 8.0105757215690403 0 0.84804809178421925 0.52991927123019833 I I #
point $-1 -52.52757086224166 -25.299589088240754 11.190804926313808 #
point $-1 -40.26098762033709 -30.389019601419179 8.0105757215690403 #
straight-curve $-1 0 -30.389019601419179 11.190804926313808 1 0 0 I I #
vertex $-1 $223 $297 #
point $-1 -47.522832793126071 -26.494366254430254 7.4403378254700216 #
vertex $-1 $227 $298 #
point $-1 -42.26572568945268 -26.494366254430254 7.4403378254700216 #
point $-1 -60.883205664235362 -30.389019601419179 -11.190804926313808 #
straight-curve $-1 -60.883205664235362 0 -11.190804926313808 0 1 0 I I #
point $-1 -60.883205664235362 30.389019601419179 -11.190804926313808 #
straight-curve $-1 -60.883205664235362 30.389019601419179 0 0 0 -1 I I #
edge $-1 $259 -11.190804926313808 $286 11.190804926313808 $250 $299 forward 7 unknown #
vertex $-1 $252 $300 #
straight-curve $-1 -69.23884046622905 -27.163539119056267 -11.190804926313808 0 1 0 I I #
straight-curve $-1 -69.23884046622905 -27.163539119056267 11.190804926313808 0 -1 0 I I #
point $-1 -69.23884046622905 -23.938058636693356 11.190804926313808 #
point $-1 -69.23884046622905 -23.938058636693356 -11.190804926313808 #
point $-1 -69.23884046622905 -30.389019601419179 11.190804926313808 #
straight-curve $-1 -65.061023065232206 -30.389019601419179 -11.190804926313808 -1 0 0 I I #
straight-curve $-1 -52.52757086224166 -30.389019601419179 55.63717424604549 0 0 -1 I I #
point $-1 -52.52757086224166 -30.389019601419179 11.190804926313808 #
straight-curve $-1 -23.197139620644688 -30.389019601419179 8.0105757215690385 1 0 0 I I #
point $-1 -52.52757086224166 -30.389019601419179 8.0105757215690403 #
point $-1 -49.022832793126071 -25.699487347584956 6.1682656877936912 #
point $-1 -43.76572568945268 -25.699487347584956 6.1682656877936912 #
straight-curve $-1 -69.23884046622905 -30.389019601419179 0 0 0 -1 I I #
point $-1 -69.23884046622905 -30.389019601419179 -11.190804926313808 #
End-of-ACIS-data 