500 0 14 0           
7 Unknown 11 ACIS 5.0 NT 24 Fri Mar 26 19:03:38 1999 
-1 9.9999999999999995e-007 1e-010 
body $-1 $14 $-1 $15 #
body $-1 $16 $-1 $17 #
body $-1 $18 $-1 $19 #
body $-1 $20 $-1 $21 #
body $-1 $22 $-1 $23 #
body $-1 $24 $-1 $25 #
body $-1 $26 $-1 $27 #
body $-1 $28 $-1 $29 #
body $-1 $30 $-1 $31 #
body $-1 $32 $-1 $33 #
body $-1 $34 $-1 $35 #
body $-1 $36 $-1 $37 #
body $-1 $38 $-1 $39 #
body $-1 $40 $-1 $41 #
lump $-1 $-1 $42 $0 #
transform $-1 1 0 0 0 1 0 0 0 1 44.421521652882475 29.841197992591603 8.8683920386992341 1 rotate no_reflect no_shear #
lump $-1 $-1 $43 $1 #
transform $-1 1 0 0 0 1 0 0 0 1 44.421521652882475 29.841197992591603 8.8683920386992341 1 rotate no_reflect no_shear #
lump $-1 $-1 $44 $2 #
transform $-1 1 0 0 0 1 0 0 0 1 44.421521652882475 29.841197992591603 8.8683920386992341 1 rotate no_reflect no_shear #
lump $-1 $-1 $45 $3 #
transform $-1 1 0 0 0 1 0 0 0 1 44.421521652882475 29.841197992591603 8.8683920386992341 1 rotate no_reflect no_shear #
lump $-1 $-1 $46 $4 #
transform $-1 1 0 0 0 1 0 0 0 1 44.421521652882475 29.841197992591603 8.8683920386992341 1 rotate no_reflect no_shear #
lump $-1 $-1 $47 $5 #
transform $-1 1 0 0 0 1 0 0 0 1 44.421521652882475 29.841197992591603 8.8683920386992341 1 rotate no_reflect no_shear #
lump $-1 $-1 $48 $6 #
transform $-1 1 0 0 0 1 0 0 0 1 44.421521652882475 29.841197992591603 8.8683920386992341 1 rotate no_reflect no_shear #
lump $-1 $-1 $49 $7 #
transform $-1 1 0 0 0 1 0 0 0 1 44.421521652882475 29.841197992591603 8.8683920386992341 1 rotate no_reflect no_shear #
lump $-1 $-1 $50 $8 #
transform $-1 1 0 0 0 1 0 0 0 1 44.421521652882475 29.841197992591603 8.8683920386992341 1 rotate no_reflect no_shear #
lump $-1 $-1 $51 $9 #
transform $-1 1 0 0 0 1 0 0 0 1 44.421521652882475 29.841197992591603 8.8683920386992341 1 rotate no_reflect no_shear #
lump $-1 $-1 $52 $10 #
transform $-1 1 0 0 0 1 0 0 0 1 44.421521652882475 29.841197992591603 8.8683920386992341 1 rotate no_reflect no_shear #
lump $-1 $-1 $53 $11 #
transform $-1 1 0 0 0 1 0 0 0 1 44.421521652882475 29.841197992591603 8.8683920386992341 1 rotate no_reflect no_shear #
lump $-1 $-1 $54 $12 #
transform $-1 1 0 0 0 1 0 0 0 1 44.421521652882475 29.841197992591603 8.8683920386992341 1 rotate no_reflect no_shear #
lump $-1 $-1 $55 $13 #
transform $-1 1 0 0 0 1 0 0 0 1 44.421521652882475 29.841197992591603 8.8683920386992341 1 rotate no_reflect no_shear #
shell $-1 $-1 $-1 $56 $-1 $14 #
shell $-1 $-1 $-1 $57 $-1 $16 #
shell $-1 $-1 $-1 $58 $-1 $18 #
shell $-1 $-1 $-1 $59 $-1 $20 #
shell $-1 $-1 $-1 $60 $-1 $22 #
shell $-1 $-1 $-1 $61 $-1 $24 #
shell $-1 $-1 $-1 $62 $-1 $26 #
shell $-1 $-1 $-1 $63 $-1 $28 #
shell $-1 $-1 $-1 $64 $-1 $30 #
shell $-1 $-1 $-1 $65 $-1 $32 #
shell $-1 $-1 $-1 $66 $-1 $34 #
shell $-1 $-1 $-1 $67 $-1 $36 #
shell $-1 $-1 $-1 $68 $-1 $38 #
shell $-1 $-1 $-1 $69 $-1 $40 #
face $-1 $70 $71 $42 $-1 $72 forward single #
face $-1 $73 $74 $43 $-1 $75 forward single #
face $-1 $76 $77 $44 $-1 $78 reversed single #
face $-1 $79 $80 $45 $-1 $81 forward single #
face $-1 $82 $83 $46 $-1 $84 forward single #
face $-1 $85 $86 $47 $-1 $87 forward single #
face $-1 $88 $89 $48 $-1 $90 reversed single #
face $-1 $91 $92 $49 $-1 $93 forward single #
face $-1 $94 $95 $50 $-1 $96 reversed single #
face $-1 $97 $98 $51 $-1 $99 forward single #
face $-1 $100 $101 $52 $-1 $102 reversed single #
face $-1 $103 $104 $53 $-1 $105 forward single #
face $-1 $106 $107 $54 $-1 $108 reversed single #
face $-1 $109 $110 $55 $-1 $111 forward single #
face $-1 $112 $113 $42 $-1 $114 reversed single #
loop $-1 $-1 $115 $56 #
plane-surface $-1 0 0 8.8683920386992341 0 0 1 1 0 0 forward_v I I I I #
face $-1 $116 $117 $43 $-1 $118 reversed single #
loop $-1 $-1 $119 $57 #
plane-surface $-1 0 -25.434776087167926 -1.8970107083661534 0 0 1 1 0 0 forward_v I I I I #
face $-1 $120 $121 $44 $-1 $122 reversed single #
loop $-1 $-1 $123 $58 #
plane-surface $-1 59.733557718913588 9.5304010019581256 126.47829507741321 0 1 0 0.78801076186113728 0 0.61566146476048833 forward_v I I I I #
face $-1 $124 $125 $45 $-1 $126 forward single #
loop $-1 $127 $128 $59 #
cone-surface $-1 41.25527689653152 11.201428520379842 5.0122566172536906 -0.78801076186113728 0 -0.61566146476048833 0.30783073238024417 0 -0.39400538093056864 1 I I 0 1 0.5 forward I I I I #
face $-1 $129 $130 $46 $-1 $131 forward single #
loop $-1 $132 $133 $60 #
cone-surface $-1 41.25527689653152 13.707969798012421 5.0122566172536906 -0.78801076186113728 0 -0.61566146476048833 0.30783073238024417 0 -0.39400538093056864 1 I I 0 1 0.5 forward I I I I #
face $-1 $134 $135 $47 $-1 $136 forward single #
loop $-1 $137 $138 $61 #
cone-surface $-1 41.25527689653152 16.214511075644999 5.0122566172536906 -0.78801076186113728 0 -0.61566146476048833 0.30783073238024417 0 -0.39400538093056864 1 I I 0 1 0.5 forward I I I I #
face $-1 $139 $140 $48 $-1 $141 reversed single #
loop $-1 $-1 $142 $62 #
plane-surface $-1 -116.29705424630681 -21.028354181744248 56.538958088929199 0 1 0 -0.80901700255871778 0 0.5877852410284794 forward_v I I I I #
face $-1 $143 $144 $49 $-1 $145 forward single #
loop $-1 $146 $147 $63 #
cone-surface $-1 -41.400159145556863 -17.570535623603277 5.5991193733928313 0.80901700255871778 0 -0.5877852410284794 0.5877852410284794 0 0.80901700255871778 1 I I 0 1 1 forward I I I I #
face $-1 $148 $149 $50 $-1 $150 reversed single #
loop $-1 $-1 $151 $64 #
plane-surface $-1 -116.29705424630681 -8.3109661381602908 56.538958088929199 0 1 0 -0.80901700255871778 0 0.5877852410284794 forward_v I I I I #
face $-1 $152 $153 $51 $-1 $154 forward single #
loop $-1 $155 $156 $65 #
cone-surface $-1 -41.400159145556863 -4.8531475800193178 5.5991193733928313 0.80901700255871778 0 -0.5877852410284794 0.5877852410284794 0 0.80901700255871778 1 I I 0 1 1 forward I I I I #
face $-1 $157 $158 $52 $-1 $159 reversed single #
loop $-1 $-1 $160 $66 #
plane-surface $-1 -116.29705424630681 4.4064219054236684 56.538958088929199 0 1 0 -0.80901700255871778 0 0.5877852410284794 forward_v I I I I #
face $-1 $161 $162 $53 $-1 $163 forward single #
loop $-1 $164 $165 $67 #
cone-surface $-1 -41.400159145556863 7.8642404635646415 5.5991193733928313 0.80901700255871778 0 -0.5877852410284794 0.5877852410284794 0 0.80901700255871778 1 I I 0 1 1 forward I I I I #
face $-1 $166 $167 $54 $-1 $168 reversed single #
loop $-1 $-1 $169 $68 #
plane-surface $-1 -116.29705424630681 17.123809949007637 56.538958088929199 0 1 0 -0.80901700255871778 0 0.5877852410284794 forward_v I I I I #
face $-1 $170 $171 $55 $-1 $172 forward single #
loop $-1 $173 $174 $69 #
cone-surface $-1 -41.400159145556863 20.581628507148608 5.5991193733928313 0.80901700255871778 0 -0.5877852410284794 0.5877852410284794 0 0.80901700255871778 1 I I 0 1 1 forward I I I I #
face $-1 $175 $176 $42 $-1 $177 reversed single #
loop $-1 $-1 $178 $70 #
plane-surface $-1 0 0 -8.8683920386992341 0 0 1 1 0 0 forward_v I I I I #
coedge $-1 $179 $180 $181 $182 forward $71 $-1 #
face $-1 $183 $184 $43 $-1 $185 reversed single #
loop $-1 $-1 $186 $73 #
plane-surface $-1 0 -25.434776087167926 -5.5395822313019583 0 0 1 1 0 0 forward_v I I I I #
coedge $-1 $187 $188 $189 $190 reversed $74 $-1 #
face $-1 $191 $192 $44 $-1 $193 reversed single #
loop $-1 $-1 $194 $76 #
plane-surface $-1 -10.275716522524263 13.707969798012421 71.781056902006469 0.78801076186113728 0 0.61566146476048833 0.61566146476048833 0 -0.78801076186113728 forward_v I I I I #
coedge $-1 $195 $196 $197 $198 reversed $77 $-1 #
face $-1 $-1 $199 $45 $-1 $200 forward single #
loop $-1 $201 $202 $79 #
cone-surface $-1 40.664268825135665 11.201428520379842 4.5505105186833248 -0.78801076186113728 0 -0.61566146476048833 0.15391536619012208 0 -0.19700269046528432 1 I I -0.70710678118654746 0.70710678118654746 0.25 forward I I I I #
loop $-1 $-1 $203 $59 #
coedge $-1 $128 $128 $204 $205 reversed $80 $-1 #
face $-1 $-1 $206 $46 $-1 $207 forward single #
loop $-1 $208 $209 $82 #
cone-surface $-1 40.664268825135665 13.707969798012421 4.5505105186833248 -0.78801076186113728 0 -0.61566146476048833 0.15391536619012208 0 -0.19700269046528432 1 I I -0.70710678118654746 0.70710678118654746 0.25 forward I I I I #
loop $-1 $-1 $210 $60 #
coedge $-1 $133 $133 $211 $212 reversed $83 $-1 #
face $-1 $-1 $213 $47 $-1 $214 forward single #
loop $-1 $215 $216 $85 #
cone-surface $-1 40.664268825135665 16.214511075644999 4.5505105186833248 -0.78801076186113728 0 -0.61566146476048833 0.15391536619012208 0 -0.19700269046528432 1 I I -0.70710678118654746 0.70710678118654746 0.25 forward I I I I #
loop $-1 $-1 $217 $61 #
coedge $-1 $138 $138 $218 $219 reversed $86 $-1 #
face $-1 $220 $221 $48 $-1 $222 reversed single #
loop $-1 $-1 $223 $88 #
plane-surface $-1 -44.42152165288249 -17.570535623603277 4.3183284657465109 -0.80901700255871778 0 0.5877852410284794 0.5877852410284794 0 0.80901700255871778 forward_v I I I I #
coedge $-1 $224 $225 $226 $227 reversed $89 $-1 #
face $-1 $-1 $228 $49 $-1 $229 forward single #
loop $-1 $230 $231 $91 #
cone-surface $-1 -39.627195433995261 -17.570535623603277 4.3109858740485496 0.80901700255871778 0 -0.5877852410284794 0.2938926205142397 0 0.40450850127935889 1 I I -0.70710678118654746 0.70710678118654746 0.5 forward I I I I #
loop $-1 $-1 $232 $63 #
coedge $-1 $147 $147 $233 $234 reversed $92 $-1 #
face $-1 $235 $236 $50 $-1 $237 reversed single #
loop $-1 $-1 $238 $94 #
plane-surface $-1 -44.42152165288249 -4.8531475800193178 4.3183284657465109 -0.80901700255871778 0 0.5877852410284794 0.5877852410284794 0 0.80901700255871778 forward_v I I I I #
coedge $-1 $239 $240 $241 $242 reversed $95 $-1 #
face $-1 $-1 $243 $51 $-1 $244 forward single #
loop $-1 $245 $246 $97 #
cone-surface $-1 -39.627195433995261 -4.8531475800193178 4.3109858740485496 0.80901700255871778 0 -0.5877852410284794 0.2938926205142397 0 0.40450850127935889 1 I I -0.70710678118654746 0.70710678118654746 0.5 forward I I I I #
loop $-1 $-1 $247 $65 #
coedge $-1 $156 $156 $248 $249 reversed $98 $-1 #
face $-1 $250 $251 $52 $-1 $252 reversed single #
loop $-1 $-1 $253 $100 #
plane-surface $-1 -44.42152165288249 7.8642404635646415 4.3183284657465109 -0.80901700255871778 0 0.5877852410284794 0.5877852410284794 0 0.80901700255871778 forward_v I I I I #
coedge $-1 $254 $255 $256 $257 reversed $101 $-1 #
face $-1 $-1 $258 $53 $-1 $259 forward single #
loop $-1 $260 $261 $103 #
cone-surface $-1 -39.627195433995261 7.8642404635646415 4.3109858740485496 0.80901700255871778 0 -0.5877852410284794 0.2938926205142397 0 0.40450850127935889 1 I I -0.70710678118654746 0.70710678118654746 0.5 forward I I I I #
loop $-1 $-1 $262 $67 #
coedge $-1 $165 $165 $263 $264 reversed $104 $-1 #
face $-1 $265 $266 $54 $-1 $267 reversed single #
loop $-1 $-1 $268 $106 #
plane-surface $-1 -44.42152165288249 20.581628507148608 4.3183284657465109 -0.80901700255871778 0 0.5877852410284794 0.5877852410284794 0 0.80901700255871778 forward_v I I I I #
coedge $-1 $269 $270 $271 $272 reversed $107 $-1 #
face $-1 $-1 $273 $55 $-1 $274 forward single #
loop $-1 $275 $276 $109 #
cone-surface $-1 -39.627195433995261 20.581628507148608 4.3109858740485496 0.80901700255871778 0 -0.5877852410284794 0.2938926205142397 0 0.40450850127935889 1 I I -0.70710678118654746 0.70710678118654746 0.5 forward I I I I #
loop $-1 $-1 $277 $69 #
coedge $-1 $174 $174 $278 $279 reversed $110 $-1 #
face $-1 $280 $281 $42 $-1 $282 reversed single #
loop $-1 $-1 $283 $112 #
plane-surface $-1 0 -29.841197992591603 0 0 1 0 0 0 1 forward_v I I I I #
coedge $-1 $284 $285 $286 $287 forward $113 $-1 #
coedge $-1 $288 $115 $289 $290 forward $71 $-1 #
coedge $-1 $115 $288 $291 $292 forward $71 $-1 #
coedge $-1 $293 $294 $115 $182 reversed $295 $-1 #
edge $-1 $296 -29.841197992591603 $297 29.841197992591603 $181 $298 forward 7 unknown #
face $-1 $299 $300 $43 $-1 $301 reversed single #
loop $-1 $-1 $302 $116 #
plane-surface $-1 0 -21.028354181744248 -3.7182964698340557 0 -1 0 0 0 -1 forward_v I I I I #
coedge $-1 $303 $304 $305 $306 reversed $117 $-1 #
coedge $-1 $307 $119 $308 $309 forward $74 $-1 #
coedge $-1 $119 $307 $310 $311 reversed $74 $-1 #
coedge $-1 $312 $313 $119 $190 forward $314 $-1 #
edge $-1 $315 8.3109661381602855 $316 17.12380994900764 $189 $317 forward 7 unknown #
face $-1 $318 $319 $44 $-1 $320 forward single #
loop $-1 $-1 $321 $120 #
plane-surface $-1 59.733557718913588 17.885538594066716 126.47829507741321 0 -1 0 -0.78801076186113728 0 -0.61566146476048833 forward_v I I I I #
coedge $-1 $322 $323 $324 $325 reversed $121 $-1 #
coedge $-1 $196 $123 $326 $327 reversed $77 $-1 #
coedge $-1 $123 $195 $322 $328 reversed $77 $-1 #
coedge $-1 $324 $329 $123 $198 forward $330 $-1 #
edge $-1 $331 54.37075550000737 $332 61.467364878137971 $197 $333 forward 7 unknown #
loop $-1 $-1 $204 $124 #
plane-surface $-1 -10.275716522524263 13.707969798012421 71.781056902006469 0.78801076186113728 0 0.61566146476048833 0.61566146476048833 0 -0.78801076186113728 forward_v I I I I #
loop $-1 $-1 $334 $79 #
coedge $-1 $202 $202 $203 $335 reversed $125 $-1 #
coedge $-1 $203 $203 $202 $335 forward $127 $-1 #
coedge $-1 $204 $204 $128 $205 forward $199 $-1 #
edge $-1 $336 0 $336 6.2831853071796004 $204 $337 forward 7 unknown #
loop $-1 $-1 $211 $129 #
plane-surface $-1 -10.275716522524263 13.707969798012421 71.781056902006469 0.78801076186113728 0 0.61566146476048833 0.61566146476048833 0 -0.78801076186113728 forward_v I I I I #
loop $-1 $-1 $338 $82 #
coedge $-1 $209 $209 $210 $339 reversed $130 $-1 #
coedge $-1 $210 $210 $209 $339 forward $132 $-1 #
coedge $-1 $211 $211 $133 $212 forward $206 $-1 #
edge $-1 $340 0 $340 6.2831853071796004 $211 $341 forward 7 unknown #
loop $-1 $-1 $218 $134 #
plane-surface $-1 -10.275716522524263 13.707969798012421 71.781056902006469 0.78801076186113728 0 0.61566146476048833 0.61566146476048833 0 -0.78801076186113728 forward_v I I I I #
loop $-1 $-1 $342 $85 #
coedge $-1 $216 $216 $217 $343 reversed $135 $-1 #
coedge $-1 $217 $217 $216 $343 forward $137 $-1 #
coedge $-1 $218 $218 $138 $219 forward $213 $-1 #
edge $-1 $344 0 $344 6.2831853071796004 $218 $345 forward 7 unknown #
face $-1 $346 $347 $48 $-1 $348 reversed single #
loop $-1 $-1 $349 $139 #
plane-surface $-1 -116.29705424630681 -14.112717065462304 56.538958088929199 0 -1 0 0.80901700255871778 0 -0.5877852410284794 forward_v I I I I #
coedge $-1 $350 $351 $352 $353 reversed $140 $-1 #
coedge $-1 $225 $142 $354 $355 reversed $89 $-1 #
coedge $-1 $142 $224 $350 $356 reversed $89 $-1 #
coedge $-1 $352 $357 $142 $227 forward $358 $-1 #
edge $-1 $359 13.727005470270932 $360 17.032820064357658 $226 $361 forward 7 unknown #
loop $-1 $-1 $233 $143 #
plane-surface $-1 -44.42152165288249 -17.570535623603277 4.3183284657465109 -0.80901700255871778 0 0.5877852410284794 0.5877852410284794 0 0.80901700255871778 forward_v I I I I #
loop $-1 $-1 $362 $91 #
coedge $-1 $231 $231 $232 $363 reversed $144 $-1 #
coedge $-1 $232 $232 $231 $363 forward $146 $-1 #
coedge $-1 $233 $233 $147 $234 forward $228 $-1 #
edge $-1 $364 0 $364 6.2831853071796004 $233 $365 forward 7 unknown #
face $-1 $366 $367 $50 $-1 $368 forward single #
loop $-1 $-1 $369 $148 #
plane-surface $-1 -116.29705424630681 -1.3953290218783447 56.538958088929199 0 -1 0 0.80901700255871778 0 -0.5877852410284794 forward_v I I I I #
coedge $-1 $370 $371 $372 $373 reversed $149 $-1 #
coedge $-1 $240 $151 $374 $375 reversed $95 $-1 #
coedge $-1 $151 $239 $370 $376 reversed $95 $-1 #
coedge $-1 $372 $377 $151 $242 forward $367 $-1 #
edge $-1 $378 13.727005470270932 $379 17.032820064357658 $241 $380 forward 7 unknown #
loop $-1 $-1 $248 $152 #
plane-surface $-1 -44.42152165288249 -4.8531475800193178 4.3183284657465109 -0.80901700255871778 0 0.5877852410284794 0.5877852410284794 0 0.80901700255871778 forward_v I I I I #
loop $-1 $-1 $381 $97 #
coedge $-1 $246 $246 $247 $382 reversed $153 $-1 #
coedge $-1 $247 $247 $246 $382 forward $155 $-1 #
coedge $-1 $248 $248 $156 $249 forward $243 $-1 #
edge $-1 $383 0 $383 6.2831853071796004 $248 $384 forward 7 unknown #
face $-1 $385 $386 $52 $-1 $387 forward single #
loop $-1 $-1 $388 $157 #
plane-surface $-1 -116.29705424630681 11.322059021705615 56.538958088929199 0 -1 0 0.80901700255871778 0 -0.5877852410284794 forward_v I I I I #
coedge $-1 $389 $390 $391 $392 reversed $158 $-1 #
coedge $-1 $255 $160 $393 $394 reversed $101 $-1 #
coedge $-1 $160 $254 $389 $395 reversed $101 $-1 #
coedge $-1 $391 $396 $160 $257 forward $386 $-1 #
edge $-1 $397 13.727005470270932 $398 17.032820064357658 $256 $399 forward 7 unknown #
loop $-1 $-1 $263 $161 #
plane-surface $-1 -44.42152165288249 7.8642404635646415 4.3183284657465109 -0.80901700255871778 0 0.5877852410284794 0.5877852410284794 0 0.80901700255871778 forward_v I I I I #
loop $-1 $-1 $400 $103 #
coedge $-1 $261 $261 $262 $401 reversed $162 $-1 #
coedge $-1 $262 $262 $261 $401 forward $164 $-1 #
coedge $-1 $263 $263 $165 $264 forward $258 $-1 #
edge $-1 $402 0 $402 6.2831853071796004 $263 $403 forward 7 unknown #
face $-1 $404 $405 $54 $-1 $406 forward single #
loop $-1 $-1 $407 $166 #
plane-surface $-1 -116.29705424630681 24.039447065289579 56.538958088929199 0 -1 0 0.80901700255871778 0 -0.5877852410284794 forward_v I I I I #
coedge $-1 $408 $409 $410 $411 reversed $167 $-1 #
coedge $-1 $270 $169 $412 $413 reversed $107 $-1 #
coedge $-1 $169 $269 $408 $414 reversed $107 $-1 #
coedge $-1 $410 $415 $169 $272 forward $405 $-1 #
edge $-1 $416 13.727005470270932 $417 17.032820064357658 $271 $418 forward 7 unknown #
loop $-1 $-1 $278 $170 #
plane-surface $-1 -44.42152165288249 20.581628507148608 4.3183284657465109 -0.80901700255871778 0 0.5877852410284794 0.5877852410284794 0 0.80901700255871778 forward_v I I I I #
loop $-1 $-1 $419 $109 #
coedge $-1 $276 $276 $277 $420 reversed $171 $-1 #
coedge $-1 $277 $277 $276 $420 forward $173 $-1 #
coedge $-1 $278 $278 $174 $279 forward $273 $-1 #
edge $-1 $421 0 $421 6.2831853071796004 $278 $422 forward 7 unknown #
face $-1 $423 $424 $42 $-1 $425 reversed single #
loop $-1 $-1 $426 $175 #
plane-surface $-1 -44.421521652882475 0 0 1 0 0 0 0 -1 forward_v I I I I #
coedge $-1 $427 $291 $428 $429 forward $176 $-1 #
coedge $-1 $430 $178 $427 $431 forward $113 $-1 #
coedge $-1 $178 $430 $432 $433 forward $113 $-1 #
coedge $-1 $294 $293 $178 $287 reversed $295 $-1 #
edge $-1 $434 -29.841197992591603 $435 29.841197992591603 $286 $436 forward 7 unknown #
coedge $-1 $180 $179 $437 $438 forward $71 $-1 #
coedge $-1 $439 $440 $179 $290 reversed $424 $-1 #
edge $-1 $297 -44.421521652882475 $441 44.421521652882475 $289 $442 forward 7 unknown #
coedge $-1 $283 $443 $180 $292 reversed $176 $-1 #
edge $-1 $444 -44.421521652882475 $296 44.421521652882475 $291 $445 forward 7 unknown #
coedge $-1 $286 $181 $443 $446 forward $295 $-1 #
coedge $-1 $181 $286 $439 $447 reversed $295 $-1 #
loop $-1 $-1 $293 $423 #
vertex $-1 $182 $448 #
vertex $-1 $182 $449 #
straight-curve $-1 44.421521652882475 0 8.8683920386992341 0 1 0 I I #
face $-1 $450 $451 $43 $-1 $452 reversed single #
loop $-1 $-1 $453 $183 #
plane-surface $-1 -44.421521652882475 0 0 1 0 0 0 0 -1 forward_v I I I I #
coedge $-1 $454 $308 $313 $455 reversed $184 $-1 #
coedge $-1 $456 $186 $457 $458 reversed $117 $-1 #
coedge $-1 $186 $456 $454 $459 forward $117 $-1 #
coedge $-1 $313 $312 $186 $306 forward $314 $-1 #
edge $-1 $460 -17.12380994900764 $461 -8.3109661381602855 $305 $462 forward 7 unknown #
coedge $-1 $188 $187 $453 $463 reversed $74 $-1 #
coedge $-1 $302 $464 $187 $309 reversed $184 $-1 #
edge $-1 $315 -44.421521652882475 $465 44.421521652882475 $308 $466 forward 7 unknown #
coedge $-1 $467 $468 $188 $311 forward $451 $-1 #
edge $-1 $316 -44.421521652882475 $469 44.421521652882475 $310 $470 forward 7 unknown #
coedge $-1 $305 $189 $468 $471 forward $314 $-1 #
coedge $-1 $189 $305 $302 $455 forward $314 $-1 #
loop $-1 $-1 $189 $450 #
vertex $-1 $190 $472 #
vertex $-1 $471 $473 #
straight-curve $-1 44.421521652882475 -12.717388043583963 -1.8970107083661534 0 -1 0 I I #
face $-1 $-1 $330 $44 $-1 $474 reversed single #
loop $-1 $-1 $475 $191 #
plane-surface $-1 0 0 8.8683920386992341 0 0 1 1 0 0 forward_v I I I I #
coedge $-1 $476 $477 $478 $479 reversed $192 $-1 #
coedge $-1 $480 $194 $196 $328 forward $121 $-1 #
coedge $-1 $194 $480 $476 $481 forward $121 $-1 #
coedge $-1 $478 $197 $194 $325 forward $330 $-1 #
edge $-1 $332 2.6764161029519151 $482 11.031553695060506 $324 $483 forward 7 unknown #
coedge $-1 $484 $485 $195 $327 forward $319 $-1 #
edge $-1 $486 9.0102640425849359 $331 14.554742793425682 $326 $487 forward 7 unknown #
edge $-1 $332 -88.843043305764937 $486 -79.837316833997335 $196 $488 forward 7 unknown #
coedge $-1 $197 $478 $484 $489 reversed $330 $-1 #
loop $-1 $-1 $478 $318 #
vertex $-1 $489 $490 #
vertex $-1 $198 $491 #
straight-curve $-1 44.421521652882475 9.5304010019581256 63.239147538706604 0 0 -1 I I #
coedge $-1 $334 $334 $-1 $492 reversed $201 $-1 #
edge $-1 $493 0 $493 6.2831853071796004 $202 $494 forward 7 unknown #
vertex $-1 $205 $495 #
ellipse-curve $-1 41.649282277462092 11.201428520379842 5.3200873496339396 0.78801076186113728 0 0.61566146476048833 0.30783073238024417 0 -0.39400538093056864 1 I I #
coedge $-1 $338 $338 $-1 $496 reversed $208 $-1 #
edge $-1 $497 0 $497 6.2831853071796004 $209 $498 forward 7 unknown #
vertex $-1 $212 $499 #
ellipse-curve $-1 41.649282277462092 13.707969798012421 5.3200873496339396 0.78801076186113728 0 0.61566146476048833 0.30783073238024417 0 -0.39400538093056864 1 I I #
coedge $-1 $342 $342 $-1 $500 reversed $215 $-1 #
edge $-1 $501 0 $501 6.2831853071796004 $216 $502 forward 7 unknown #
vertex $-1 $219 $503 #
ellipse-curve $-1 41.649282277462092 16.214511075644999 5.3200873496339396 0.78801076186113728 0 0.61566146476048833 0.30783073238024417 0 -0.39400538093056864 1 I I #
face $-1 $-1 $358 $48 $-1 $504 forward single #
loop $-1 $-1 $505 $220 #
plane-surface $-1 -44.421521652882475 0 0 1 0 0 0 0 -1 forward_v I I I I #
coedge $-1 $506 $507 $508 $509 reversed $221 $-1 #
coedge $-1 $510 $223 $225 $356 forward $140 $-1 #
coedge $-1 $223 $510 $506 $511 forward $140 $-1 #
coedge $-1 $508 $226 $223 $353 forward $358 $-1 #
edge $-1 $360 -12.24308636994261 $512 -5.3274492536606655 $352 $513 forward 7 unknown #
coedge $-1 $514 $515 $224 $355 forward $347 $-1 #
edge $-1 $516 -23.951150578718071 $359 -19.401087005765365 $354 $517 forward 7 unknown #
edge $-1 $360 -5.6241878212225611 $516 -2.4161062406544664e-014 $225 $518 forward 7 unknown #
coedge $-1 $226 $508 $514 $519 forward $358 $-1 #
loop $-1 $-1 $508 $346 #
vertex $-1 $355 $520 #
vertex $-1 $227 $521 #
straight-curve $-1 -58.148527123153407 -21.028354181744248 8.8683920386992341 1 0 0 I I #
coedge $-1 $362 $362 $-1 $522 reversed $230 $-1 #
edge $-1 $523 0 $523 6.2831853071796004 $231 $524 forward 7 unknown #
vertex $-1 $234 $525 #
ellipse-curve $-1 -42.768614355839112 -17.570535623603277 6.5933602522228796 -0.80901700255871778 0 0.5877852410284794 0.5877852410284794 0 0.80901700255871778 1 I I #
face $-1 $-1 $526 $50 $-1 $527 reversed single #
loop $-1 $-1 $241 $235 #
plane-surface $-1 0 0 8.8683920386992341 0 0 1 1 0 0 forward_v I I I I #
coedge $-1 $528 $529 $530 $531 reversed $236 $-1 #
coedge $-1 $532 $238 $240 $376 forward $149 $-1 #
coedge $-1 $238 $532 $528 $533 forward $149 $-1 #
coedge $-1 $530 $241 $238 $373 forward $367 $-1 #
edge $-1 $379 -5.8843923481506319 $534 1.0312447681313142 $372 $535 forward 7 unknown #
coedge $-1 $536 $537 $239 $375 forward $526 $-1 #
edge $-1 $538 -23.951150578718071 $378 -19.401087005765365 $374 $539 forward 7 unknown #
edge $-1 $379 -5.6241878212225611 $538 -2.4161062406544664e-014 $240 $540 forward 7 unknown #
coedge $-1 $241 $530 $536 $541 forward $367 $-1 #
vertex $-1 $242 $542 #
vertex $-1 $242 $543 #
straight-curve $-1 -58.148527123153407 -8.3109661381602908 8.8683920386992341 1 0 0 I I #
coedge $-1 $381 $381 $-1 $544 reversed $245 $-1 #
edge $-1 $545 0 $545 6.2831853071796004 $246 $546 forward 7 unknown #
vertex $-1 $249 $547 #
ellipse-curve $-1 -42.768614355839112 -4.8531475800193178 6.5933602522228796 -0.80901700255871778 0 0.5877852410284794 0.5877852410284794 0 0.80901700255871778 1 I I #
face $-1 $-1 $548 $52 $-1 $549 reversed single #
loop $-1 $-1 $256 $250 #
plane-surface $-1 0 0 8.8683920386992341 0 0 1 1 0 0 forward_v I I I I #
coedge $-1 $550 $551 $552 $553 reversed $251 $-1 #
coedge $-1 $554 $253 $255 $395 forward $158 $-1 #
coedge $-1 $253 $554 $550 $555 forward $158 $-1 #
coedge $-1 $552 $256 $253 $392 forward $386 $-1 #
edge $-1 $398 0.47430167364134768 $556 7.3899387899232938 $391 $557 forward 7 unknown #
coedge $-1 $558 $559 $254 $394 forward $548 $-1 #
edge $-1 $560 -23.951150578718071 $397 -19.401087005765365 $393 $561 forward 7 unknown #
edge $-1 $398 -5.6241878212225611 $560 -2.4161062406544664e-014 $255 $562 forward 7 unknown #
coedge $-1 $256 $552 $558 $563 forward $386 $-1 #
vertex $-1 $257 $564 #
vertex $-1 $257 $565 #
straight-curve $-1 -58.148527123153407 4.4064219054236684 8.8683920386992341 1 0 0 I I #
coedge $-1 $400 $400 $-1 $566 reversed $260 $-1 #
edge $-1 $567 0 $567 6.2831853071796004 $261 $568 forward 7 unknown #
vertex $-1 $264 $569 #
ellipse-curve $-1 -42.768614355839112 7.8642404635646415 6.5933602522228796 -0.80901700255871778 0 0.5877852410284794 0.5877852410284794 0 0.80901700255871778 1 I I #
face $-1 $-1 $570 $54 $-1 $571 reversed single #
loop $-1 $-1 $271 $265 #
plane-surface $-1 0 0 8.8683920386992341 0 0 1 1 0 0 forward_v I I I I #
coedge $-1 $572 $573 $574 $575 reversed $266 $-1 #
coedge $-1 $576 $268 $270 $414 forward $167 $-1 #
coedge $-1 $268 $576 $572 $577 forward $167 $-1 #
coedge $-1 $574 $271 $268 $411 forward $405 $-1 #
edge $-1 $417 6.8329956954333326 $578 13.748632811715275 $410 $579 forward 7 unknown #
coedge $-1 $580 $581 $269 $413 forward $570 $-1 #
edge $-1 $582 -23.951150578718071 $416 -19.401087005765365 $412 $583 forward 7 unknown #
edge $-1 $417 -5.6241878212225611 $582 -2.4161062406544664e-014 $270 $584 forward 7 unknown #
coedge $-1 $271 $574 $580 $585 forward $405 $-1 #
vertex $-1 $272 $586 #
vertex $-1 $272 $587 #
straight-curve $-1 -58.148527123153407 17.123809949007637 8.8683920386992341 1 0 0 I I #
coedge $-1 $419 $419 $-1 $588 reversed $275 $-1 #
edge $-1 $589 0 $589 6.2831853071796004 $276 $590 forward 7 unknown #
vertex $-1 $279 $591 #
ellipse-curve $-1 -42.768614355839112 20.581628507148608 6.5933602522228796 -0.80901700255871778 0 0.5877852410284794 0.5877852410284794 0 0.80901700255871778 1 I I #
face $-1 $-1 $295 $42 $-1 $592 reversed single #
loop $-1 $-1 $439 $280 #
plane-surface $-1 0 29.841197992591603 0 0 -1 0 0 0 -1 forward_v I I I I #
coedge $-1 $593 $437 $440 $594 forward $281 $-1 #
coedge $-1 $443 $283 $284 $431 reversed $176 $-1 #
coedge $-1 $437 $593 $283 $429 reversed $281 $-1 #
edge $-1 $444 -8.8683920386992341 $595 8.8683920386992341 $428 $596 forward 7 unknown #
coedge $-1 $285 $284 $593 $597 forward $113 $-1 #
edge $-1 $435 -44.421521652882475 $595 44.421521652882475 $427 $598 forward 7 unknown #
coedge $-1 $440 $439 $285 $433 reversed $424 $-1 #
edge $-1 $599 -44.421521652882475 $434 44.421521652882475 $432 $600 forward 7 unknown #
vertex $-1 $287 $601 #
vertex $-1 $446 $602 #
straight-curve $-1 44.421521652882475 0 -8.8683920386992341 0 -1 0 I I #
coedge $-1 $426 $428 $288 $438 reversed $281 $-1 #
edge $-1 $441 -29.841197992591603 $444 29.841197992591603 $437 $603 forward 7 unknown #
coedge $-1 $432 $289 $294 $447 forward $424 $-1 #
coedge $-1 $289 $432 $426 $594 reversed $424 $-1 #
vertex $-1 $290 $604 #
straight-curve $-1 0 29.841197992591603 8.8683920386992341 -1 0 0 I I #
coedge $-1 $291 $427 $293 $446 reversed $176 $-1 #
vertex $-1 $438 $605 #
straight-curve $-1 0 -29.841197992591603 8.8683920386992341 1 0 0 I I #
edge $-1 $296 -8.8683920386992341 $435 8.8683920386992341 $293 $606 forward 7 unknown #
edge $-1 $297 -8.8683920386992341 $434 8.8683920386992341 $294 $607 forward 7 unknown #
point $-1 44.421521652882475 -29.841197992591603 8.8683920386992341 #
point $-1 44.421521652882475 29.841197992591603 8.8683920386992341 #
face $-1 $-1 $314 $43 $-1 $608 reversed single #
loop $-1 $-1 $310 $299 #
plane-surface $-1 0 -29.841197992591603 0 0 1 0 0 0 1 forward_v I I I I #
coedge $-1 $609 $610 $307 $463 forward $300 $-1 #
coedge $-1 $464 $302 $304 $459 reversed $184 $-1 #
edge $-1 $461 -3.6804339963849304 $315 -0.037862473449125522 $313 $611 forward 7 unknown #
coedge $-1 $304 $303 $612 $613 reversed $117 $-1 #
coedge $-1 $468 $467 $303 $458 forward $451 $-1 #
edge $-1 $614 -44.421521652882475 $460 44.421521652882475 $457 $615 forward 7 unknown #
edge $-1 $616 -44.421521652882475 $461 44.421521652882475 $454 $617 forward 7 unknown #
vertex $-1 $458 $618 #
vertex $-1 $306 $619 #
straight-curve $-1 44.421521652882475 -12.717388043583963 -5.5395822313019583 0 1 0 I I #
edge $-1 $469 -17.12380994900764 $465 -8.3109661381602855 $453 $620 forward 7 unknown #
coedge $-1 $308 $454 $609 $621 reversed $184 $-1 #
vertex $-1 $463 $622 #
straight-curve $-1 0 -21.028354181744248 -1.8970107083661534 -1 0 0 I I #
coedge $-1 $457 $310 $610 $623 forward $451 $-1 #
coedge $-1 $310 $457 $312 $471 reversed $451 $-1 #
vertex $-1 $623 $624 #
straight-curve $-1 0 -29.841197992591603 -1.8970107083661534 -1 0 0 I I #
edge $-1 $316 1.8970107083661534 $460 5.5395822313019583 $312 $625 forward 7 unknown #
point $-1 44.421521652882475 -21.028354181744248 -1.8970107083661534 #
point $-1 44.421521652882475 -29.841197992591603 -1.8970107083661534 #
plane-surface $-1 44.421521652882475 0 0 -1 0 0 0 0 1 forward_v I I I I #
coedge $-1 $485 $484 $477 $626 forward $319 $-1 #
coedge $-1 $477 $321 $323 $481 reversed $192 $-1 #
coedge $-1 $321 $476 $475 $626 reversed $192 $-1 #
coedge $-1 $329 $324 $321 $479 forward $330 $-1 #
edge $-1 $482 -61.467364878137971 $627 -54.37075550000737 $478 $628 forward 7 unknown #
coedge $-1 $323 $322 $485 $629 reversed $121 $-1 #
edge $-1 $630 79.837316833997335 $482 88.843043305764937 $476 $631 forward 7 unknown #
vertex $-1 $325 $632 #
straight-curve $-1 44.421521652882475 6.8539848990062104 1.7717826605686255 0 1 0 I I #
coedge $-1 $475 $326 $329 $489 forward $319 $-1 #
coedge $-1 $326 $475 $480 $629 forward $319 $-1 #
vertex $-1 $327 $633 #
straight-curve $-1 29.866778859456794 9.5304010019581256 8.8683920386992341 1 0 0 I I #
straight-curve $-1 -10.275716522524263 9.5304010019581256 71.781056902006469 -0.61566146476048833 0 0.78801076186113728 I I #
edge $-1 $331 9.5304010019581256 $627 17.885538594066716 $329 $634 forward 7 unknown #
point $-1 44.421521652882475 9.5304010019581256 8.8683920386992341 #
point $-1 44.421521652882475 9.5304010019581256 1.7717826605686327 #
edge $-1 $635 1 $635 0 $334 $-1 forward 7 unknown #
vertex $-1 $335 $636 #
ellipse-curve $-1 40.861271515600947 11.201428520379842 4.704425884873447 0.78801076186113728 0 0.61566146476048833 0.30783073238024417 0 -0.39400538093056864 1 I I #
point $-1 41.957113009842331 11.201428520379842 4.9260819687033663 #
edge $-1 $637 1 $637 0 $338 $-1 forward 7 unknown #
vertex $-1 $339 $638 #
ellipse-curve $-1 40.861271515600947 13.707969798012421 4.704425884873447 0.78801076186113728 0 0.61566146476048833 0.30783073238024417 0 -0.39400538093056864 1 I I #
point $-1 41.957113009842331 13.707969798012421 4.9260819687033663 #
edge $-1 $639 1 $639 0 $342 $-1 forward 7 unknown #
vertex $-1 $343 $640 #
ellipse-curve $-1 40.861271515600947 16.214511075644999 4.704425884873447 0.78801076186113728 0 0.61566146476048833 0.30783073238024417 0 -0.39400538093056864 1 I I #
point $-1 41.957113009842331 16.214511075644999 4.9260819687033663 #
plane-surface $-1 0 0 8.8683920386992341 0 0 1 1 0 0 forward_v I I I I #
coedge $-1 $515 $514 $507 $641 forward $347 $-1 #
coedge $-1 $507 $349 $351 $511 reversed $221 $-1 #
coedge $-1 $349 $506 $505 $641 reversed $221 $-1 #
coedge $-1 $357 $352 $349 $509 forward $358 $-1 #
edge $-1 $512 -17.032820064357658 $642 -13.727005470270932 $508 $643 forward 7 unknown #
coedge $-1 $351 $350 $515 $644 reversed $140 $-1 #
edge $-1 $645 2.4161062406544664e-014 $512 5.6241878212225611 $506 $646 forward 7 unknown #
vertex $-1 $353 $647 #
straight-curve $-1 -41.115707058795749 -8.7852678118016385 8.8683920386992341 0 1 0 I I #
coedge $-1 $505 $354 $357 $519 reversed $347 $-1 #
coedge $-1 $354 $505 $510 $644 forward $347 $-1 #
vertex $-1 $355 $648 #
straight-curve $-1 -44.421521652882475 -21.028354181744248 28.2694790444646 0 0 1 I I #
straight-curve $-1 -44.42152165288249 -21.028354181744248 4.3183284657465109 -0.5877852410284794 0 -0.80901700255871778 I I #
edge $-1 $642 14.112717065462304 $359 21.028354181744248 $514 $649 forward 7 unknown #
point $-1 -44.421521652882475 -21.028354181744248 8.8683920386992341 #
point $-1 -41.115707058795749 -21.028354181744248 8.8683920386992341 #
edge $-1 $650 1 $650 0 $362 $-1 forward 7 unknown #
vertex $-1 $363 $651 #
ellipse-curve $-1 -40.031703935274621 -17.570535623603277 4.6048784945627892 -0.80901700255871778 0 0.5877852410284794 0.5877852410284794 0 0.80901700255871778 1 I I #
point $-1 -42.180829114810621 -17.570535623603277 7.4023772547815909 #
loop $-1 $-1 $374 $366 #
plane-surface $-1 -44.421521652882475 0 0 1 0 0 0 0 -1 forward_v I I I I #
coedge $-1 $529 $369 $371 $533 reversed $236 $-1 #
coedge $-1 $369 $528 $652 $653 reversed $236 $-1 #
coedge $-1 $377 $372 $369 $531 forward $367 $-1 #
edge $-1 $534 -17.032820064357658 $654 -13.727005470270932 $530 $655 forward 7 unknown #
coedge $-1 $371 $370 $537 $656 reversed $149 $-1 #
edge $-1 $657 2.4161062406544664e-014 $534 5.6241878212225611 $528 $658 forward 7 unknown #
vertex $-1 $373 $659 #
straight-curve $-1 -41.115707058795749 -2.4265737900096589 8.8683920386992341 0 1 0 I I #
coedge $-1 $652 $374 $377 $541 reversed $526 $-1 #
coedge $-1 $374 $652 $532 $656 forward $526 $-1 #
vertex $-1 $375 $660 #
straight-curve $-1 -44.421521652882475 -8.3109661381602908 28.2694790444646 0 0 1 I I #
straight-curve $-1 -44.42152165288249 -8.3109661381602908 4.3183284657465109 -0.5877852410284794 0 -0.80901700255871778 I I #
edge $-1 $654 1.3953290218783447 $378 8.3109661381602908 $536 $661 forward 7 unknown #
point $-1 -44.421521652882475 -8.3109661381602908 8.8683920386992341 #
point $-1 -41.115707058795749 -8.3109661381602908 8.8683920386992341 #
edge $-1 $662 1 $662 0 $381 $-1 forward 7 unknown #
vertex $-1 $382 $663 #
ellipse-curve $-1 -40.031703935274621 -4.8531475800193178 4.6048784945627892 -0.80901700255871778 0 0.5877852410284794 0.5877852410284794 0 0.80901700255871778 1 I I #
point $-1 -42.180829114810621 -4.8531475800193178 7.4023772547815909 #
loop $-1 $-1 $393 $385 #
plane-surface $-1 -44.421521652882475 0 0 1 0 0 0 0 -1 forward_v I I I I #
coedge $-1 $551 $388 $390 $555 reversed $251 $-1 #
coedge $-1 $388 $550 $664 $665 reversed $251 $-1 #
coedge $-1 $396 $391 $388 $553 forward $386 $-1 #
edge $-1 $556 -17.032820064357658 $666 -13.727005470270932 $552 $667 forward 7 unknown #
coedge $-1 $390 $389 $559 $668 reversed $158 $-1 #
edge $-1 $669 2.4161062406544664e-014 $556 5.6241878212225611 $550 $670 forward 7 unknown #
vertex $-1 $392 $671 #
straight-curve $-1 -41.115707058795749 3.9321202317823207 8.8683920386992341 0 1 0 I I #
coedge $-1 $664 $393 $396 $563 reversed $548 $-1 #
coedge $-1 $393 $664 $554 $668 forward $548 $-1 #
vertex $-1 $394 $672 #
straight-curve $-1 -44.421521652882475 4.4064219054236684 28.2694790444646 0 0 1 I I #
straight-curve $-1 -44.42152165288249 4.4064219054236684 4.3183284657465109 -0.5877852410284794 0 -0.80901700255871778 I I #
edge $-1 $666 -11.322059021705615 $397 -4.4064219054236684 $558 $673 forward 7 unknown #
point $-1 -44.421521652882475 4.4064219054236684 8.8683920386992341 #
point $-1 -41.115707058795749 4.4064219054236684 8.8683920386992341 #
edge $-1 $674 1 $674 0 $400 $-1 forward 7 unknown #
vertex $-1 $401 $675 #
ellipse-curve $-1 -40.031703935274621 7.8642404635646415 4.6048784945627892 -0.80901700255871778 0 0.5877852410284794 0.5877852410284794 0 0.80901700255871778 1 I I #
point $-1 -42.180829114810621 7.8642404635646415 7.4023772547815909 #
loop $-1 $-1 $412 $404 #
plane-surface $-1 -44.421521652882475 0 0 1 0 0 0 0 -1 forward_v I I I I #
coedge $-1 $573 $407 $409 $577 reversed $266 $-1 #
coedge $-1 $407 $572 $676 $677 reversed $266 $-1 #
coedge $-1 $415 $410 $407 $575 forward $405 $-1 #
edge $-1 $578 -17.032820064357658 $678 -13.727005470270932 $574 $679 forward 7 unknown #
coedge $-1 $409 $408 $581 $680 reversed $167 $-1 #
edge $-1 $681 2.4161062406544664e-014 $578 5.6241878212225611 $572 $682 forward 7 unknown #
vertex $-1 $411 $683 #
straight-curve $-1 -41.115707058795749 10.290814253574304 8.8683920386992341 0 1 0 I I #
coedge $-1 $676 $412 $415 $585 reversed $570 $-1 #
coedge $-1 $412 $676 $576 $680 forward $570 $-1 #
vertex $-1 $413 $684 #
straight-curve $-1 -44.421521652882475 17.123809949007637 28.2694790444646 0 0 1 I I #
straight-curve $-1 -44.42152165288249 17.123809949007637 4.3183284657465109 -0.5877852410284794 0 -0.80901700255871778 I I #
edge $-1 $678 -24.039447065289579 $416 -17.123809949007637 $580 $685 forward 7 unknown #
point $-1 -44.421521652882475 17.123809949007637 8.8683920386992341 #
point $-1 -41.115707058795749 17.123809949007637 8.8683920386992341 #
edge $-1 $686 1 $686 0 $419 $-1 forward 7 unknown #
vertex $-1 $420 $687 #
ellipse-curve $-1 -40.031703935274621 20.581628507148608 4.6048784945627892 -0.80901700255871778 0 0.5877852410284794 0.5877852410284794 0 0.80901700255871778 1 I I #
point $-1 -42.180829114810621 20.581628507148608 7.4023772547815909 #
plane-surface $-1 44.421521652882475 0 0 -1 0 0 0 0 1 forward_v I I I I #
coedge $-1 $428 $426 $430 $597 reversed $281 $-1 #
edge $-1 $441 -8.8683920386992341 $599 8.8683920386992341 $440 $688 forward 7 unknown #
vertex $-1 $597 $689 #
straight-curve $-1 -44.421521652882475 -29.841197992591603 0 0 0 -1 I I #
edge $-1 $595 -29.841197992591603 $599 29.841197992591603 $593 $690 forward 7 unknown #
straight-curve $-1 0 -29.841197992591603 -8.8683920386992341 -1 0 0 I I #
vertex $-1 $433 $691 #
straight-curve $-1 0 29.841197992591603 -8.8683920386992341 1 0 0 I I #
point $-1 44.421521652882475 29.841197992591603 -8.8683920386992341 #
point $-1 44.421521652882475 -29.841197992591603 -8.8683920386992341 #
straight-curve $-1 -44.421521652882475 0 8.8683920386992341 0 -1 0 I I #
point $-1 -44.421521652882475 29.841197992591603 8.8683920386992341 #
point $-1 -44.421521652882475 -29.841197992591603 8.8683920386992341 #
straight-curve $-1 44.421521652882475 -29.841197992591603 0 0 0 -1 I I #
straight-curve $-1 44.421521652882475 29.841197992591603 0 0 0 -1 I I #
plane-surface $-1 44.421521652882475 0 0 -1 0 0 0 0 1 forward_v I I I I #
coedge $-1 $612 $453 $464 $621 forward $300 $-1 #
coedge $-1 $453 $612 $467 $623 reversed $300 $-1 #
straight-curve $-1 44.421521652882475 -21.028354181744248 -1.8591482349170279 0 0 1 I I #
coedge $-1 $610 $609 $456 $613 forward $300 $-1 #
edge $-1 $616 8.3109661381602855 $614 17.12380994900764 $612 $692 forward 7 unknown #
vertex $-1 $458 $693 #
straight-curve $-1 0 -29.841197992591603 -5.5395822313019583 1 0 0 I I #
vertex $-1 $613 $694 #
straight-curve $-1 0 -21.028354181744248 -5.5395822313019583 1 0 0 I I #
point $-1 44.421521652882475 -29.841197992591603 -5.5395822313019583 #
point $-1 44.421521652882475 -21.028354181744248 -5.5395822313019583 #
straight-curve $-1 -44.421521652882475 -12.717388043583963 -1.8970107083661534 0 1 0 I I #
edge $-1 $465 0.037862473449125522 $616 3.6804339963849304 $609 $695 forward 7 unknown #
point $-1 -44.421521652882475 -21.028354181744248 -1.8970107083661534 #
edge $-1 $469 1.8970107083661534 $614 5.5395822313019583 $610 $696 forward 7 unknown #
point $-1 -44.421521652882475 -29.841197992591603 -1.8970107083661534 #
straight-curve $-1 44.421521652882475 -29.841197992591603 0 0 0 -1 I I #
edge $-1 $627 -14.554742793425682 $630 -9.0102640425849359 $475 $697 forward 7 unknown #
vertex $-1 $626 $698 #
straight-curve $-1 44.421521652882475 17.885538594066716 63.239147538706604 0 0 1 I I #
edge $-1 $630 -11.031553695060506 $486 -2.6764161029519151 $485 $699 forward 7 unknown #
vertex $-1 $629 $700 #
straight-curve $-1 -10.275716522524263 17.885538594066716 71.781056902006469 0.61566146476048833 0 -0.78801076186113728 I I #
point $-1 44.421521652882475 17.885538594066716 1.7717826605686327 #
point $-1 38.87704290204173 9.5304010019581256 8.868392038699227 #
straight-curve $-1 44.421521652882475 0 8.8683920386992341 0 1 0 I I #
vertex $-1 $492 $701 #
point $-1 41.169102247981193 11.201428520379842 4.3104205039428782 #
vertex $-1 $496 $702 #
point $-1 41.169102247981193 13.707969798012421 4.3104205039428782 #
vertex $-1 $500 $703 #
point $-1 41.169102247981193 16.214511075644999 4.3104205039428782 #
edge $-1 $642 19.401087005765365 $645 23.951150578718071 $505 $704 forward 7 unknown #
vertex $-1 $519 $705 #
straight-curve $-1 -58.148527123153407 -14.112717065462304 8.8683920386992341 -1 0 0 I I #
edge $-1 $645 5.3274492536606655 $516 12.24308636994261 $515 $706 forward 7 unknown #
vertex $-1 $644 $707 #
straight-curve $-1 -44.42152165288249 -14.112717065462304 4.3183284657465109 0.5877852410284794 0 0.80901700255871778 I I #
point $-1 -41.115707058795749 -14.112717065462304 8.8683920386992341 #
point $-1 -44.421521652882475 -21.028354181744248 4.3183284657465304 #
straight-curve $-1 -44.421521652882475 0 8.8683920386992341 0 -1 0 I I #
vertex $-1 $522 $708 #
point $-1 -39.443918694246143 -17.570535623603277 5.4138954971215068 #
coedge $-1 $537 $536 $529 $653 forward $526 $-1 #
edge $-1 $654 19.401087005765365 $657 23.951150578718071 $652 $709 forward 7 unknown #
vertex $-1 $541 $710 #
straight-curve $-1 -58.148527123153407 -1.3953290218783447 8.8683920386992341 -1 0 0 I I #
edge $-1 $657 -1.0312447681313142 $538 5.8843923481506319 $537 $711 forward 7 unknown #
vertex $-1 $656 $712 #
straight-curve $-1 -44.42152165288249 -1.3953290218783447 4.3183284657465109 0.5877852410284794 0 0.80901700255871778 I I #
point $-1 -41.115707058795749 -1.3953290218783447 8.8683920386992341 #
point $-1 -44.421521652882475 -8.3109661381602908 4.3183284657465304 #
straight-curve $-1 -44.421521652882475 0 8.8683920386992341 0 -1 0 I I #
vertex $-1 $544 $713 #
point $-1 -39.443918694246143 -4.8531475800193178 5.4138954971215068 #
coedge $-1 $559 $558 $551 $665 forward $548 $-1 #
edge $-1 $666 19.401087005765365 $669 23.951150578718071 $664 $714 forward 7 unknown #
vertex $-1 $563 $715 #
straight-curve $-1 -58.148527123153407 11.322059021705615 8.8683920386992341 -1 0 0 I I #
edge $-1 $669 -7.3899387899232938 $560 -0.47430167364134768 $559 $716 forward 7 unknown #
vertex $-1 $668 $717 #
straight-curve $-1 -44.42152165288249 11.322059021705615 4.3183284657465109 0.5877852410284794 0 0.80901700255871778 I I #
point $-1 -41.115707058795749 11.322059021705615 8.8683920386992341 #
point $-1 -44.421521652882475 4.4064219054236684 4.3183284657465304 #
straight-curve $-1 -44.421521652882475 0 8.8683920386992341 0 -1 0 I I #
vertex $-1 $566 $718 #
point $-1 -39.443918694246143 7.8642404635646415 5.4138954971215068 #
coedge $-1 $581 $580 $573 $677 forward $570 $-1 #
edge $-1 $678 19.401087005765365 $681 23.951150578718071 $676 $719 forward 7 unknown #
vertex $-1 $585 $720 #
straight-curve $-1 -58.148527123153407 24.039447065289579 8.8683920386992341 -1 0 0 I I #
edge $-1 $681 -13.748632811715275 $582 -6.8329956954333326 $581 $721 forward 7 unknown #
vertex $-1 $680 $722 #
straight-curve $-1 -44.42152165288249 24.039447065289579 4.3183284657465109 0.5877852410284794 0 0.80901700255871778 I I #
point $-1 -41.115707058795749 24.039447065289579 8.8683920386992341 #
point $-1 -44.421521652882475 17.123809949007637 4.3183284657465304 #
straight-curve $-1 -44.421521652882475 0 8.8683920386992341 0 -1 0 I I #
vertex $-1 $588 $723 #
point $-1 -39.443918694246143 20.581628507148608 5.4138954971215068 #
straight-curve $-1 -44.421521652882475 29.841197992591603 0 0 0 -1 I I #
point $-1 -44.421521652882475 -29.841197992591603 -8.8683920386992341 #
straight-curve $-1 -44.421521652882475 0 -8.8683920386992341 0 1 0 I I #
point $-1 -44.421521652882475 29.841197992591603 -8.8683920386992341 #
straight-curve $-1 -44.421521652882475 -12.717388043583963 -5.5395822313019583 0 -1 0 I I #
point $-1 -44.421521652882475 -29.841197992591603 -5.5395822313019583 #
point $-1 -44.421521652882475 -21.028354181744248 -5.5395822313019583 #
straight-curve $-1 -44.421521652882475 -21.028354181744248 -1.8591482349170279 0 0 -1 I I #
straight-curve $-1 -44.421521652882475 -29.841197992591603 0 0 0 -1 I I #
straight-curve $-1 29.866778859456794 17.885538594066716 8.8683920386992341 -1 0 0 I I #
point $-1 44.421521652882475 17.885538594066716 8.8683920386992341 #
straight-curve $-1 38.877042902041723 6.8539848990062104 8.8683920386992341 0 -1 0 I I #
point $-1 38.87704290204173 17.885538594066716 8.868392038699227 #
point $-1 40.467266134670382 11.201428520379842 4.3965951524932025 #
point $-1 40.467266134670382 13.707969798012421 4.3965951524932025 #
point $-1 40.467266134670382 16.214511075644999 4.3965951524932025 #
straight-curve $-1 -44.421521652882475 -14.112717065462304 28.2694790444646 0 0 -1 I I #
point $-1 -44.421521652882475 -14.112717065462304 8.8683920386992341 #
straight-curve $-1 -44.421521652882475 -8.7852678118016385 4.3183284657465313 0 -1 0 I I #
point $-1 -44.421521652882475 -14.112717065462304 4.3183284657465304 #
point $-1 -39.222686932715902 -17.570535623603277 4.01709325353431 #
straight-curve $-1 -44.421521652882475 -1.3953290218783447 28.2694790444646 0 0 -1 I I #
point $-1 -44.421521652882475 -1.3953290218783447 8.8683920386992341 #
straight-curve $-1 -44.421521652882475 -2.4265737900096589 4.3183284657465313 0 -1 0 I I #
point $-1 -44.421521652882475 -1.3953290218783447 4.3183284657465304 #
point $-1 -39.222686932715902 -4.8531475800193178 4.01709325353431 #
straight-curve $-1 -44.421521652882475 11.322059021705615 28.2694790444646 0 0 -1 I I #
point $-1 -44.421521652882475 11.322059021705615 8.8683920386992341 #
straight-curve $-1 -44.421521652882475 3.9321202317823207 4.3183284657465313 0 -1 0 I I #
point $-1 -44.421521652882475 11.322059021705615 4.3183284657465304 #
point $-1 -39.222686932715902 7.8642404635646415 4.01709325353431 #
straight-curve $-1 -44.421521652882475 24.039447065289579 28.2694790444646 0 0 -1 I I #
point $-1 -44.421521652882475 24.039447065289579 8.8683920386992341 #
straight-curve $-1 -44.421521652882475 10.290814253574304 4.3183284657465313 0 -1 0 I I #
point $-1 -44.421521652882475 24.039447065289579 4.3183284657465304 #
point $-1 -39.222686932715902 20.581628507148608 4.01709325353431 #
End-of-ACIS-data 