500 0 10 0           
7 Unknown 11 ACIS 5.0 NT 24 Fri Mar 26 15:40:56 1999 
-1 9.9999999999999995e-007 1e-010 
body $-1 $10 $-1 $11 #
body $-1 $12 $-1 $13 #
body $-1 $14 $-1 $15 #
body $-1 $16 $-1 $17 #
body $-1 $18 $-1 $19 #
body $-1 $20 $-1 $21 #
body $-1 $22 $-1 $23 #
body $-1 $24 $-1 $25 #
body $-1 $26 $-1 $27 #
body $-1 $28 $-1 $29 #
lump $-1 $-1 $30 $0 #
transform $-1 1 0 0 0 1 0 0 0 1 63.086642048402354 30.886405155585958 6.5980608175319864 1 rotate no_reflect no_shear #
lump $-1 $-1 $31 $1 #
transform $-1 1 0 0 0 1 0 0 0 1 63.086642048402354 30.886405155585958 6.5980608175319864 1 rotate no_reflect no_shear #
lump $-1 $-1 $32 $2 #
transform $-1 1 0 0 0 1 0 0 0 1 63.086642048402354 30.886405155585958 6.5980608175319864 1 rotate no_reflect no_shear #
lump $-1 $-1 $33 $3 #
transform $-1 1 0 0 0 1 0 0 0 1 63.086642048402354 30.886405155585958 6.5980608175319864 1 rotate no_reflect no_shear #
lump $-1 $-1 $34 $4 #
transform $-1 1 0 0 0 1 0 0 0 1 63.086642048402354 30.886405155585958 6.5980608175319864 1 rotate no_reflect no_shear #
lump $-1 $-1 $35 $5 #
transform $-1 1 0 0 0 1 0 0 0 1 63.086642048402354 30.886405155585958 6.5980608175319864 1 rotate no_reflect no_shear #
lump $-1 $-1 $36 $6 #
transform $-1 1 0 0 0 1 0 0 0 1 63.086642048402354 30.886405155585958 6.5980608175319864 1 rotate no_reflect no_shear #
lump $-1 $-1 $37 $7 #
transform $-1 1 0 0 0 1 0 0 0 1 63.086642048402354 30.886405155585958 6.5980608175319864 1 rotate no_reflect no_shear #
lump $-1 $-1 $38 $8 #
transform $-1 1 0 0 0 1 0 0 0 1 63.086642048402354 30.886405155585958 6.5980608175319864 1 rotate no_reflect no_shear #
lump $-1 $-1 $39 $9 #
transform $-1 1 0 0 0 1 0 0 0 1 63.086642048402354 30.886405155585958 6.5980608175319864 1 rotate no_reflect no_shear #
shell $-1 $-1 $-1 $40 $-1 $10 #
shell $-1 $-1 $-1 $41 $-1 $12 #
shell $-1 $-1 $-1 $42 $-1 $14 #
shell $-1 $-1 $-1 $43 $-1 $16 #
shell $-1 $-1 $-1 $44 $-1 $18 #
shell $-1 $-1 $-1 $45 $-1 $20 #
shell $-1 $-1 $-1 $46 $-1 $22 #
shell $-1 $-1 $-1 $47 $-1 $24 #
shell $-1 $-1 $-1 $48 $-1 $26 #
shell $-1 $-1 $-1 $49 $-1 $28 #
face $-1 $50 $51 $30 $-1 $52 forward single #
face $-1 $53 $54 $31 $-1 $55 forward single #
face $-1 $56 $57 $32 $-1 $58 forward single #
face $-1 $59 $60 $33 $-1 $61 reversed single #
face $-1 $62 $63 $34 $-1 $64 forward single #
face $-1 $65 $66 $35 $-1 $67 reversed single #
face $-1 $68 $69 $36 $-1 $70 forward single #
face $-1 $71 $72 $37 $-1 $73 reversed single #
face $-1 $74 $75 $38 $-1 $76 forward single #
face $-1 $77 $78 $39 $-1 $79 forward single #
face $-1 $80 $81 $30 $-1 $82 reversed single #
loop $-1 $-1 $83 $40 #
plane-surface $-1 0 0 6.5980608175319864 0 0 1 1 0 0 forward_v I I I I #
face $-1 $84 $85 $31 $-1 $86 reversed single #
loop $-1 $-1 $87 $41 #
plane-surface $-1 0 -28.247551336459278 1.1174159504894821 0 0 1 1 0 0 forward_v I I I I #
face $-1 $88 $89 $32 $-1 $90 reversed single #
loop $-1 $-1 $91 $42 #
plane-surface $-1 0 28.247551336459278 1.1174159504894821 0 0 1 1 0 0 forward_v I I I I #
face $-1 $92 $93 $33 $-1 $94 reversed single #
loop $-1 $-1 $95 $43 #
plane-surface $-1 -161.14170127211713 3.5527136788005009e-015 82.542924091619085 0 -1 0 0.77714596973225614 0 -0.62932038083071107 forward_v I I I I #
face $-1 $96 $97 $34 $-1 $98 forward single #
loop $-1 $99 $100 $44 #
cone-surface $-1 -61.131059764537042 -4.034970373033623 4.4191578635679569 0.77714596973225614 0 -0.62932038083071107 0.31466019041535553 0 0.38857298486612807 1 I I 0 1 0.5 forward I I I I #
face $-1 $101 $102 $35 $-1 $103 reversed single #
loop $-1 $-1 $104 $45 #
plane-surface $-1 -63.086642048402382 -4.034970373033623 3.1395048931564418 -0.77714596973225614 0 0.62932038083071107 0.62932038083071107 0 0.77714596973225614 forward_v I I I I #
face $-1 $105 $106 $36 $-1 $107 forward single #
loop $-1 $108 $109 $46 #
cone-surface $-1 -61.131059764537042 4.0349703730336337 4.4191578635679569 0.77714596973225614 0 -0.62932038083071107 0.31466019041535553 0 0.38857298486612807 1 I I 0 1 0.5 forward I I I I #
face $-1 $110 $111 $37 $-1 $112 reversed single #
loop $-1 $-1 $113 $47 #
plane-surface $-1 100.18556875133854 1.1485843796947499 175.87636591143212 0 -1 0 -0.83867057594974714 0 -0.54463902268945019 forward_v I I I I #
face $-1 $114 $115 $38 $-1 $116 forward single #
loop $-1 $117 $118 $48 #
cone-surface $-1 60.585407466387522 -3.6422014412908368 3.4533503091993158 -0.83867057594974714 0 -0.54463902268945019 0.2723195113447251 0 -0.41933528797487357 1 I I 0 1 0.5 forward I I I I #
face $-1 $119 $120 $39 $-1 $121 forward single #
loop $-1 $122 $123 $49 #
cone-surface $-1 60.585407466387522 -0.76772994869948619 3.4533503091993158 -0.83867057594974714 0 -0.54463902268945019 0.2723195113447251 0 -0.41933528797487357 1 I I 0 1 0.5 forward I I I I #
face $-1 $124 $125 $30 $-1 $126 reversed single #
loop $-1 $-1 $127 $50 #
plane-surface $-1 0 0 -6.5980608175319864 0 0 1 1 0 0 forward_v I I I I #
coedge $-1 $128 $129 $130 $131 forward $51 $-1 #
face $-1 $132 $133 $31 $-1 $134 reversed single #
loop $-1 $-1 $135 $53 #
plane-surface $-1 0 -28.247551336459278 -1.8825840495105179 0 0 1 1 0 0 forward_v I I I I #
coedge $-1 $136 $137 $138 $139 reversed $54 $-1 #
face $-1 $140 $141 $32 $-1 $142 reversed single #
loop $-1 $-1 $143 $56 #
plane-surface $-1 0 28.247551336459278 -1.8825840495105179 0 0 1 1 0 0 forward_v I I I I #
coedge $-1 $144 $145 $146 $147 reversed $57 $-1 #
face $-1 $148 $149 $33 $-1 $150 reversed single #
loop $-1 $-1 $151 $59 #
plane-surface $-1 -63.086642048402382 -4.034970373033623 3.1395048931564418 -0.77714596973225614 0 0.62932038083071107 0.62932038083071107 0 0.77714596973225614 forward_v I I I I #
coedge $-1 $152 $153 $154 $155 reversed $60 $-1 #
face $-1 $-1 $156 $34 $-1 $157 forward single #
loop $-1 $158 $159 $62 #
cone-surface $-1 -60.381532633323822 -4.034970373033623 3.8122027765840238 0.77714596973225614 0 -0.62932038083071107 0.15733009520767777 0 0.19428649243306403 1 I I -0.70710678118654746 0.70710678118654746 0.25 forward I I I I #
loop $-1 $-1 $160 $44 #
coedge $-1 $100 $100 $161 $162 reversed $63 $-1 #
face $-1 $163 $164 $35 $-1 $165 reversed single #
loop $-1 $-1 $166 $65 #
plane-surface $-1 -161.14170127211713 8.0699407460672603 82.542924091619085 0 -1 0 0.77714596973225614 0 -0.62932038083071107 forward_v I I I I #
coedge $-1 $167 $168 $169 $170 reversed $66 $-1 #
face $-1 $-1 $171 $36 $-1 $172 forward single #
loop $-1 $173 $174 $68 #
cone-surface $-1 -60.381532633323822 4.0349703730336337 3.8122027765840238 0.77714596973225614 0 -0.62932038083071107 0.15733009520767777 0 0.19428649243306403 1 I I -0.70710678118654746 0.70710678118654746 0.25 forward I I I I #
loop $-1 $-1 $175 $46 #
coedge $-1 $109 $109 $176 $177 reversed $69 $-1 #
face $-1 $178 $179 $37 $-1 $180 reversed single #
loop $-1 $-1 $181 $71 #
plane-surface $-1 -5.6322520915997245 -2.2049656949951597 107.15747177143007 0.83867057594974714 0 0.54463902268945019 0.54463902268945019 0 -0.83867057594974714 forward_v I I I I #
coedge $-1 $182 $183 $184 $185 reversed $72 $-1 #
face $-1 $-1 $186 $38 $-1 $187 forward single #
loop $-1 $188 $189 $74 #
cone-surface $-1 59.581930840493001 -3.6422014412908368 2.8016849897143894 -0.83867057594974714 0 -0.54463902268945019 0.13615975567236255 0 -0.20966764398743679 1 I I -0.70710678118654746 0.70710678118654746 0.25 forward I I I I #
loop $-1 $-1 $190 $48 #
coedge $-1 $118 $118 $191 $192 reversed $75 $-1 #
face $-1 $-1 $193 $39 $-1 $194 forward single #
loop $-1 $195 $196 $77 #
cone-surface $-1 59.581930840493001 -0.76772994869948619 2.8016849897143894 -0.83867057594974714 0 -0.54463902268945019 0.13615975567236255 0 -0.20966764398743679 1 I I -0.70710678118654746 0.70710678118654746 0.25 forward I I I I #
loop $-1 $-1 $197 $49 #
coedge $-1 $123 $123 $198 $199 reversed $78 $-1 #
face $-1 $200 $201 $30 $-1 $202 reversed single #
loop $-1 $-1 $203 $80 #
plane-surface $-1 0 -30.886405155585958 0 0 1 0 0 0 1 forward_v I I I I #
coedge $-1 $204 $205 $206 $207 forward $81 $-1 #
coedge $-1 $208 $83 $209 $210 forward $51 $-1 #
coedge $-1 $83 $208 $211 $212 forward $51 $-1 #
coedge $-1 $213 $214 $83 $131 reversed $215 $-1 #
edge $-1 $216 -30.886405155585958 $217 30.886405155585958 $130 $218 forward 7 unknown #
face $-1 $219 $220 $31 $-1 $221 reversed single #
loop $-1 $-1 $222 $84 #
plane-surface $-1 0 -25.608697517332597 -0.38258404951051794 0 -1 0 0 0 -1 forward_v I I I I #
coedge $-1 $223 $224 $225 $226 reversed $85 $-1 #
coedge $-1 $227 $87 $228 $229 forward $54 $-1 #
coedge $-1 $87 $227 $230 $231 reversed $54 $-1 #
coedge $-1 $232 $233 $87 $139 forward $234 $-1 #
edge $-1 $235 11.484921849102959 $236 16.762629487356321 $138 $237 forward 7 unknown #
face $-1 $238 $239 $32 $-1 $240 reversed single #
loop $-1 $-1 $241 $88 #
plane-surface $-1 0 25.608697517332597 -0.38258404951051794 0 1 0 0 0 1 forward_v I I I I #
coedge $-1 $242 $243 $244 $245 reversed $89 $-1 #
coedge $-1 $246 $91 $247 $248 reversed $57 $-1 #
coedge $-1 $91 $246 $249 $250 forward $57 $-1 #
coedge $-1 $251 $252 $91 $147 forward $239 $-1 #
edge $-1 $253 -16.762629487356321 $254 -11.484921849102959 $146 $255 forward 7 unknown #
face $-1 $256 $257 $33 $-1 $258 reversed single #
loop $-1 $-1 $259 $92 #
plane-surface $-1 -161.14170127211713 -8.0699407460672496 82.542924091619085 0 1 0 -0.77714596973225614 0 0.62932038083071107 forward_v I I I I #
coedge $-1 $260 $261 $262 $263 reversed $93 $-1 #
coedge $-1 $153 $95 $264 $265 reversed $60 $-1 #
coedge $-1 $95 $152 $260 $266 reversed $60 $-1 #
coedge $-1 $262 $267 $95 $155 forward $257 $-1 #
edge $-1 $268 34.673401228277555 $269 38.131957152653065 $154 $270 forward 7 unknown #
loop $-1 $-1 $161 $96 #
plane-surface $-1 -63.086642048402382 -4.034970373033623 3.1395048931564418 -0.77714596973225614 0 0.62932038083071107 0.62932038083071107 0 0.77714596973225614 forward_v I I I I #
loop $-1 $-1 $271 $62 #
coedge $-1 $159 $159 $160 $272 reversed $97 $-1 #
coedge $-1 $160 $160 $159 $272 forward $99 $-1 #
coedge $-1 $161 $161 $100 $162 forward $156 $-1 #
edge $-1 $273 0 $273 6.2831853071796004 $161 $274 forward 7 unknown #
face $-1 $275 $276 $35 $-1 $277 forward single #
loop $-1 $-1 $278 $101 #
plane-surface $-1 -63.086642048402354 0 0 1 0 0 0 0 -1 forward_v I I I I #
coedge $-1 $279 $280 $281 $282 reversed $102 $-1 #
coedge $-1 $283 $104 $284 $285 reversed $66 $-1 #
coedge $-1 $104 $283 $286 $287 reversed $66 $-1 #
coedge $-1 $288 $289 $104 $170 forward $276 $-1 #
edge $-1 $290 4.5151010033889764e-014 $291 4.4503298724782567 $169 $292 forward 7 unknown #
loop $-1 $-1 $176 $105 #
plane-surface $-1 -63.086642048402382 -4.034970373033623 3.1395048931564418 -0.77714596973225614 0 0.62932038083071107 0.62932038083071107 0 0.77714596973225614 forward_v I I I I #
loop $-1 $-1 $293 $68 #
coedge $-1 $174 $174 $175 $294 reversed $106 $-1 #
coedge $-1 $175 $175 $174 $294 forward $108 $-1 #
coedge $-1 $176 $176 $109 $177 forward $171 $-1 #
edge $-1 $295 0 $295 6.2831853071796004 $176 $296 forward 7 unknown #
face $-1 $297 $298 $37 $-1 $299 forward single #
loop $-1 $-1 $300 $110 #
plane-surface $-1 100.18556875133854 -5.5585157696850693 175.87636591143212 0 1 0 0.83867057594974714 0 0.54463902268945019 forward_v I I I I #
coedge $-1 $301 $302 $303 $304 reversed $111 $-1 #
coedge $-1 $183 $113 $305 $306 reversed $72 $-1 #
coedge $-1 $113 $182 $301 $307 reversed $72 $-1 #
coedge $-1 $303 $308 $113 $185 forward $298 $-1 #
edge $-1 $309 -12.993857672733085 $310 -9.5790064725176052 $184 $311 forward 7 unknown #
loop $-1 $-1 $191 $114 #
plane-surface $-1 -5.6322520915997245 -2.2049656949951597 107.15747177143007 0.83867057594974714 0 0.54463902268945019 0.54463902268945019 0 -0.83867057594974714 forward_v I I I I #
loop $-1 $-1 $312 $74 #
coedge $-1 $189 $189 $190 $313 reversed $115 $-1 #
coedge $-1 $190 $190 $189 $313 forward $117 $-1 #
coedge $-1 $191 $191 $118 $192 forward $186 $-1 #
edge $-1 $314 0 $314 6.2831853071796004 $191 $315 forward 7 unknown #
loop $-1 $-1 $198 $119 #
plane-surface $-1 -5.6322520915997245 -2.2049656949951597 107.15747177143007 0.83867057594974714 0 0.54463902268945019 0.54463902268945019 0 -0.83867057594974714 forward_v I I I I #
loop $-1 $-1 $316 $77 #
coedge $-1 $196 $196 $197 $317 reversed $120 $-1 #
coedge $-1 $197 $197 $196 $317 forward $122 $-1 #
coedge $-1 $198 $198 $123 $199 forward $193 $-1 #
edge $-1 $318 0 $318 6.2831853071796004 $198 $319 forward 7 unknown #
face $-1 $320 $321 $30 $-1 $322 reversed single #
loop $-1 $-1 $323 $124 #
plane-surface $-1 -63.086642048402354 0 0 1 0 0 0 0 -1 forward_v I I I I #
coedge $-1 $324 $211 $325 $326 forward $125 $-1 #
coedge $-1 $327 $127 $324 $328 forward $81 $-1 #
coedge $-1 $127 $327 $329 $330 forward $81 $-1 #
coedge $-1 $214 $213 $127 $207 reversed $215 $-1 #
edge $-1 $331 -30.886405155585958 $332 30.886405155585958 $206 $333 forward 7 unknown #
coedge $-1 $129 $128 $334 $335 forward $51 $-1 #
coedge $-1 $336 $337 $128 $210 reversed $321 $-1 #
edge $-1 $217 -63.086642048402354 $338 63.086642048402354 $209 $339 forward 7 unknown #
coedge $-1 $203 $340 $129 $212 reversed $125 $-1 #
edge $-1 $341 -63.086642048402354 $216 63.086642048402354 $211 $342 forward 7 unknown #
coedge $-1 $206 $130 $340 $343 forward $215 $-1 #
coedge $-1 $130 $206 $336 $344 reversed $215 $-1 #
loop $-1 $-1 $213 $320 #
vertex $-1 $131 $345 #
vertex $-1 $131 $346 #
straight-curve $-1 63.086642048402354 0 6.5980608175319864 0 1 0 I I #
face $-1 $347 $348 $31 $-1 $349 reversed single #
loop $-1 $-1 $350 $132 #
plane-surface $-1 -63.086642048402354 0 0 1 0 0 0 0 -1 forward_v I I I I #
coedge $-1 $351 $228 $233 $352 reversed $133 $-1 #
coedge $-1 $353 $135 $354 $355 reversed $85 $-1 #
coedge $-1 $135 $353 $351 $356 forward $85 $-1 #
coedge $-1 $233 $232 $135 $226 forward $234 $-1 #
edge $-1 $357 -16.762629487356321 $358 -11.484921849102959 $225 $359 forward 7 unknown #
coedge $-1 $137 $136 $350 $360 reversed $54 $-1 #
coedge $-1 $222 $361 $136 $229 reversed $133 $-1 #
edge $-1 $235 -63.086642048402354 $362 63.086642048402354 $228 $363 forward 7 unknown #
coedge $-1 $364 $365 $137 $231 forward $348 $-1 #
edge $-1 $236 -63.086642048402354 $366 63.086642048402354 $230 $367 forward 7 unknown #
coedge $-1 $225 $138 $365 $368 forward $234 $-1 #
coedge $-1 $138 $225 $222 $352 forward $234 $-1 #
loop $-1 $-1 $138 $347 #
vertex $-1 $139 $369 #
vertex $-1 $368 $370 #
straight-curve $-1 63.086642048402354 -14.123775668229639 1.1174159504894821 0 -1 0 I I #
face $-1 $371 $372 $32 $-1 $373 reversed single #
loop $-1 $-1 $146 $140 #
plane-surface $-1 63.086642048402354 0 0 -1 0 0 0 0 1 forward_v I I I I #
coedge $-1 $374 $249 $375 $376 reversed $141 $-1 #
coedge $-1 $377 $143 $374 $378 forward $89 $-1 #
coedge $-1 $143 $377 $379 $380 reversed $89 $-1 #
coedge $-1 $252 $251 $143 $245 forward $239 $-1 #
edge $-1 $381 11.484921849102959 $382 16.762629487356321 $244 $383 forward 7 unknown #
coedge $-1 $145 $144 $384 $385 reversed $57 $-1 #
coedge $-1 $386 $387 $144 $248 forward $388 $-1 #
edge $-1 $389 -63.086642048402354 $253 63.086642048402354 $247 $390 forward 7 unknown #
coedge $-1 $241 $391 $145 $250 reversed $141 $-1 #
edge $-1 $392 -63.086642048402354 $254 63.086642048402354 $249 $393 forward 7 unknown #
coedge $-1 $244 $146 $391 $394 forward $239 $-1 #
coedge $-1 $146 $244 $386 $395 reversed $239 $-1 #
vertex $-1 $395 $396 #
vertex $-1 $147 $397 #
straight-curve $-1 63.086642048402354 14.123775668229639 1.1174159504894821 0 -1 0 I I #
face $-1 $-1 $398 $33 $-1 $399 forward single #
loop $-1 $-1 $154 $148 #
plane-surface $-1 -63.086642048402354 0 0 1 0 0 0 0 -1 forward_v I I I I #
coedge $-1 $400 $401 $402 $403 reversed $149 $-1 #
coedge $-1 $404 $151 $153 $266 forward $93 $-1 #
coedge $-1 $151 $404 $400 $405 forward $93 $-1 #
coedge $-1 $402 $154 $151 $263 forward $257 $-1 #
edge $-1 $269 -2.0174851865168151 $406 6.0524555595504381 $262 $407 forward 7 unknown #
coedge $-1 $408 $409 $152 $265 forward $398 $-1 #
edge $-1 $410 -20.284891877826489 $268 -17.484208587656212 $264 $411 forward 7 unknown #
edge $-1 $269 4.5151010033889764e-014 $410 4.4503298724782567 $153 $412 forward 7 unknown #
coedge $-1 $154 $402 $408 $413 reversed $257 $-1 #
vertex $-1 $413 $414 #
vertex $-1 $155 $415 #
straight-curve $-1 -63.086642048402354 3.5527136788005009e-015 41.271462045809542 0 0 -1 I I #
coedge $-1 $271 $271 $-1 $416 reversed $158 $-1 #
edge $-1 $417 0 $417 6.2831853071796004 $159 $418 forward 7 unknown #
vertex $-1 $162 $419 #
ellipse-curve $-1 -61.686300403317219 -4.034970373033623 4.8687828553442269 -0.77714596973225614 0 0.62932038083071107 0.31466019041535553 0 0.38857298486612807 1 I I #
face $-1 $-1 $420 $35 $-1 $421 forward single #
loop $-1 $-1 $289 $163 #
plane-surface $-1 -161.14170127211713 3.5527136788005009e-015 82.542924091619085 0 -1 0 0.77714596973225614 0 -0.62932038083071107 forward_v I I I I #
coedge $-1 $284 $422 $280 $423 forward $164 $-1 #
coedge $-1 $280 $166 $283 $424 reversed $102 $-1 #
coedge $-1 $166 $279 $278 $423 reversed $102 $-1 #
coedge $-1 $425 $286 $166 $282 forward $420 $-1 #
edge $-1 $426 -20.284891877826489 $427 -17.484208587656212 $281 $428 forward 7 unknown #
coedge $-1 $168 $167 $279 $424 forward $66 $-1 #
coedge $-1 $429 $278 $167 $285 forward $164 $-1 #
edge $-1 $430 -10.087425932584072 $290 -2.0174851865168151 $284 $431 forward 7 unknown #
coedge $-1 $281 $432 $168 $287 forward $420 $-1 #
edge $-1 $291 2.0174851865168151 $426 10.087425932584072 $286 $433 forward 7 unknown #
coedge $-1 $289 $169 $432 $434 reversed $276 $-1 #
coedge $-1 $169 $288 $429 $435 reversed $276 $-1 #
vertex $-1 $285 $436 #
vertex $-1 $287 $437 #
straight-curve $-1 -63.086642048402382 3.5527136788005009e-015 3.1395048931564418 0.62932038083071107 0 0.77714596973225614 I I #
coedge $-1 $293 $293 $-1 $438 reversed $173 $-1 #
edge $-1 $439 0 $439 6.2831853071796004 $174 $440 forward 7 unknown #
vertex $-1 $177 $441 #
ellipse-curve $-1 -61.686300403317219 4.0349703730336337 4.8687828553442269 -0.77714596973225614 0 0.62932038083071107 0.31466019041535553 0 0.38857298486612807 1 I I #
face $-1 $-1 $442 $37 $-1 $443 reversed single #
loop $-1 $-1 $184 $178 #
plane-surface $-1 0 0 6.5980608175319864 0 0 1 1 0 0 forward_v I I I I #
coedge $-1 $444 $445 $446 $447 reversed $179 $-1 #
coedge $-1 $448 $181 $183 $307 forward $111 $-1 #
coedge $-1 $181 $448 $444 $449 forward $111 $-1 #
coedge $-1 $446 $184 $181 $304 forward $298 $-1 #
edge $-1 $310 -2.2510672271923298 $450 4.4560329221874895 $303 $451 forward 7 unknown #
coedge $-1 $452 $453 $182 $306 forward $442 $-1 #
edge $-1 $454 -86.598532027224294 $309 -81.340122138184071 $305 $455 forward 7 unknown #
edge $-1 $310 119.90334922626828 $454 126.17328409680474 $183 $456 forward 7 unknown #
coedge $-1 $184 $446 $452 $457 forward $298 $-1 #
vertex $-1 $185 $458 #
vertex $-1 $185 $459 #
straight-curve $-1 50.092784375669268 1.1485843796947499 6.5980608175319873 -1 0 0 I I #
coedge $-1 $312 $312 $-1 $460 reversed $188 $-1 #
edge $-1 $461 0 $461 6.2831853071796004 $189 $462 forward 7 unknown #
vertex $-1 $192 $463 #
ellipse-curve $-1 61.379216448294606 -3.6422014412908368 3.9688558730118806 0.83867057594974714 0 0.54463902268945019 0.2723195113447251 0 -0.41933528797487357 1 I I #
coedge $-1 $316 $316 $-1 $464 reversed $195 $-1 #
edge $-1 $465 0 $465 6.2831853071796004 $196 $466 forward 7 unknown #
vertex $-1 $199 $467 #
ellipse-curve $-1 61.379216448294606 -0.76772994869948619 3.9688558730118806 0.83867057594974714 0 0.54463902268945019 0.2723195113447251 0 -0.41933528797487357 1 I I #
face $-1 $-1 $215 $30 $-1 $468 reversed single #
loop $-1 $-1 $336 $200 #
plane-surface $-1 0 30.886405155585958 0 0 -1 0 0 0 -1 forward_v I I I I #
coedge $-1 $469 $334 $337 $470 forward $201 $-1 #
coedge $-1 $340 $203 $204 $328 reversed $125 $-1 #
coedge $-1 $334 $469 $203 $326 reversed $201 $-1 #
edge $-1 $341 -6.5980608175319864 $471 6.5980608175319864 $325 $472 forward 7 unknown #
coedge $-1 $205 $204 $469 $473 forward $81 $-1 #
edge $-1 $332 -63.086642048402354 $471 63.086642048402354 $324 $474 forward 7 unknown #
coedge $-1 $337 $336 $205 $330 reversed $321 $-1 #
edge $-1 $475 -63.086642048402354 $331 63.086642048402354 $329 $476 forward 7 unknown #
vertex $-1 $207 $477 #
vertex $-1 $343 $478 #
straight-curve $-1 63.086642048402354 0 -6.5980608175319864 0 -1 0 I I #
coedge $-1 $323 $325 $208 $335 reversed $201 $-1 #
edge $-1 $338 -30.886405155585958 $341 30.886405155585958 $334 $479 forward 7 unknown #
coedge $-1 $329 $209 $214 $344 forward $321 $-1 #
coedge $-1 $209 $329 $323 $470 reversed $321 $-1 #
vertex $-1 $210 $480 #
straight-curve $-1 0 30.886405155585958 6.5980608175319864 -1 0 0 I I #
coedge $-1 $211 $324 $213 $343 reversed $125 $-1 #
vertex $-1 $335 $481 #
straight-curve $-1 0 -30.886405155585958 6.5980608175319864 1 0 0 I I #
edge $-1 $216 -6.5980608175319864 $332 6.5980608175319864 $213 $482 forward 7 unknown #
edge $-1 $217 -6.5980608175319864 $331 6.5980608175319864 $214 $483 forward 7 unknown #
point $-1 63.086642048402354 -30.886405155585958 6.5980608175319864 #
point $-1 63.086642048402354 30.886405155585958 6.5980608175319864 #
face $-1 $-1 $234 $31 $-1 $484 reversed single #
loop $-1 $-1 $230 $219 #
plane-surface $-1 0 -30.886405155585958 0 0 1 0 0 0 1 forward_v I I I I #
coedge $-1 $485 $486 $227 $360 forward $220 $-1 #
coedge $-1 $361 $222 $224 $356 reversed $133 $-1 #
edge $-1 $358 -1.691292024755259 $235 1.308707975244741 $233 $487 forward 7 unknown #
coedge $-1 $224 $223 $488 $489 reversed $85 $-1 #
coedge $-1 $365 $364 $223 $355 forward $348 $-1 #
edge $-1 $490 -63.086642048402354 $357 63.086642048402354 $354 $491 forward 7 unknown #
edge $-1 $492 -63.086642048402354 $358 63.086642048402354 $351 $493 forward 7 unknown #
vertex $-1 $355 $494 #
vertex $-1 $226 $495 #
straight-curve $-1 63.086642048402354 -14.123775668229639 -1.8825840495105179 0 1 0 I I #
edge $-1 $366 -16.762629487356321 $362 -11.484921849102959 $350 $496 forward 7 unknown #
coedge $-1 $228 $351 $485 $497 reversed $133 $-1 #
vertex $-1 $360 $498 #
straight-curve $-1 0 -25.608697517332597 1.1174159504894821 -1 0 0 I I #
coedge $-1 $354 $230 $486 $499 forward $348 $-1 #
coedge $-1 $230 $354 $232 $368 reversed $348 $-1 #
vertex $-1 $499 $500 #
straight-curve $-1 0 -30.886405155585958 1.1174159504894821 -1 0 0 I I #
edge $-1 $236 -1.1174159504894821 $357 1.8825840495105179 $232 $501 forward 7 unknown #
point $-1 63.086642048402354 -25.608697517332597 1.1174159504894821 #
point $-1 63.086642048402354 -30.886405155585958 1.1174159504894821 #
face $-1 $-1 $388 $32 $-1 $502 reversed single #
loop $-1 $-1 $384 $238 #
plane-surface $-1 -63.086642048402354 0 0 1 0 0 0 0 -1 forward_v I I I I #
coedge $-1 $391 $241 $242 $378 reversed $141 $-1 #
coedge $-1 $384 $503 $241 $376 forward $372 $-1 #
edge $-1 $504 -1.691292024755259 $392 1.308707975244741 $375 $505 forward 7 unknown #
coedge $-1 $243 $242 $503 $506 reversed $89 $-1 #
edge $-1 $381 -63.086642048402354 $504 63.086642048402354 $374 $507 forward 7 unknown #
coedge $-1 $387 $386 $243 $380 forward $388 $-1 #
edge $-1 $382 -63.086642048402354 $508 63.086642048402354 $379 $509 forward 7 unknown #
vertex $-1 $245 $510 #
vertex $-1 $380 $511 #
straight-curve $-1 63.086642048402354 14.123775668229639 -1.8825840495105179 0 1 0 I I #
coedge $-1 $512 $375 $246 $385 forward $372 $-1 #
edge $-1 $392 11.484921849102959 $389 16.762629487356321 $384 $513 forward 7 unknown #
coedge $-1 $379 $247 $252 $395 forward $388 $-1 #
coedge $-1 $247 $379 $512 $514 reversed $388 $-1 #
loop $-1 $-1 $247 $371 #
vertex $-1 $514 $515 #
straight-curve $-1 0 30.886405155585958 1.1174159504894821 1 0 0 I I #
coedge $-1 $249 $374 $251 $394 reversed $141 $-1 #
vertex $-1 $385 $516 #
straight-curve $-1 0 25.608697517332597 1.1174159504894821 1 0 0 I I #
edge $-1 $254 -1.308707975244741 $381 1.691292024755259 $251 $517 forward 7 unknown #
edge $-1 $253 -1.1174159504894821 $382 1.8825840495105179 $252 $518 forward 7 unknown #
point $-1 63.086642048402354 30.886405155585958 1.1174159504894821 #
point $-1 63.086642048402354 25.608697517332597 1.1174159504894821 #
loop $-1 $-1 $264 $256 #
plane-surface $-1 0 0 6.5980608175319864 0 0 1 1 0 0 forward_v I I I I #
coedge $-1 $401 $259 $261 $405 reversed $149 $-1 #
coedge $-1 $259 $400 $519 $520 reversed $149 $-1 #
coedge $-1 $267 $262 $259 $403 forward $257 $-1 #
edge $-1 $406 -38.131957152653065 $521 -34.673401228277555 $402 $522 forward 7 unknown #
coedge $-1 $261 $260 $409 $523 reversed $93 $-1 #
edge $-1 $524 -4.4503298724782567 $406 -4.5151010033889764e-014 $400 $525 forward 7 unknown #
vertex $-1 $263 $526 #
straight-curve $-1 -63.086642048402354 -2.0174851865168115 3.1395048931564733 0 -1 0 I I #
coedge $-1 $519 $264 $267 $413 forward $398 $-1 #
coedge $-1 $264 $519 $404 $523 forward $398 $-1 #
vertex $-1 $265 $527 #
straight-curve $-1 -80.570850636058566 3.5527136788005009e-015 6.5980608175319873 -1 0 0 I I #
straight-curve $-1 -63.086642048402382 3.5527136788005009e-015 3.1395048931564418 0.62932038083071107 0 0.77714596973225614 I I #
edge $-1 $268 -3.5527136788005009e-015 $521 8.0699407460672496 $267 $528 forward 7 unknown #
point $-1 -63.086642048402354 3.5527136788005009e-015 6.5980608175319864 #
point $-1 -63.086642048402354 3.5527136788005009e-015 3.1395048931564769 #
edge $-1 $529 1 $529 0 $271 $-1 forward 7 unknown #
vertex $-1 $272 $530 #
ellipse-curve $-1 -60.575819125756887 -4.034970373033623 3.9695328717917016 -0.77714596973225614 0 0.62932038083071107 0.31466019041535553 0 0.38857298486612807 1 I I #
point $-1 -61.371640212901845 -4.034970373033623 5.2573558402103409 #
loop $-1 $-1 $281 $275 #
plane-surface $-1 0 0 6.5980608175319864 0 0 1 1 0 0 forward_v I I I I #
coedge $-1 $278 $429 $425 $531 reversed $164 $-1 #
edge $-1 $427 34.673401228277555 $430 38.131957152653065 $278 $532 forward 7 unknown #
edge $-1 $430 4.5151010033889764e-014 $426 4.4503298724782567 $279 $533 forward 7 unknown #
coedge $-1 $432 $281 $422 $531 forward $420 $-1 #
vertex $-1 $282 $534 #
vertex $-1 $531 $535 #
straight-curve $-1 -80.570850636058566 8.0699407460672603 6.5980608175319873 -1 0 0 I I #
coedge $-1 $422 $284 $289 $435 forward $164 $-1 #
vertex $-1 $423 $536 #
straight-curve $-1 -63.086642048402354 -2.0174851865168115 3.1395048931564733 0 -1 0 I I #
coedge $-1 $286 $425 $288 $434 forward $420 $-1 #
straight-curve $-1 -60.28595875823207 -2.0174851865168115 6.5980608175319873 0 1 0 I I #
edge $-1 $537 17.484208587656212 $291 20.284891877826489 $432 $538 forward 7 unknown #
edge $-1 $290 -38.131957152653065 $537 -34.673401228277555 $429 $539 forward 7 unknown #
point $-1 -63.086642048402354 3.5527136788005009e-015 3.1395048931564769 #
point $-1 -60.285958758232077 3.5527136788005009e-015 6.5980608175319864 #
edge $-1 $540 1 $540 0 $293 $-1 forward 7 unknown #
vertex $-1 $294 $541 #
ellipse-curve $-1 -60.575819125756887 4.0349703730336337 3.9695328717917016 -0.77714596973225614 0 0.62932038083071107 0.31466019041535553 0 0.38857298486612807 1 I I #
point $-1 -61.371640212901845 4.0349703730336337 5.2573558402103409 #
loop $-1 $-1 $305 $297 #
plane-surface $-1 63.086642048402354 0 0 -1 0 0 0 0 1 forward_v I I I I #
coedge $-1 $445 $300 $302 $449 reversed $179 $-1 #
coedge $-1 $300 $444 $542 $543 reversed $179 $-1 #
coedge $-1 $308 $303 $300 $447 forward $298 $-1 #
edge $-1 $450 9.5790064725176052 $544 12.993857672733085 $446 $545 forward 7 unknown #
coedge $-1 $302 $301 $453 $546 reversed $111 $-1 #
edge $-1 $547 -126.17328409680474 $450 -119.90334922626828 $444 $548 forward 7 unknown #
vertex $-1 $304 $549 #
straight-curve $-1 59.671790848186873 -1.1024828474975799 6.5980608175319873 0 -1 0 I I #
coedge $-1 $542 $305 $308 $457 reversed $442 $-1 #
coedge $-1 $305 $542 $448 $546 forward $442 $-1 #
vertex $-1 $306 $550 #
straight-curve $-1 63.086642048402354 1.1485843796947499 87.938182955716059 0 0 1 I I #
straight-curve $-1 -5.6322520915997245 1.1485843796947499 107.15747177143007 0.54463902268945019 0 -0.83867057594974714 I I #
edge $-1 $544 -5.5585157696850693 $309 1.1485843796947499 $452 $551 forward 7 unknown #
point $-1 63.086642048402354 1.1485843796947499 6.5980608175319864 #
point $-1 59.671790848186873 1.1485843796947499 6.5980608175319873 #
edge $-1 $552 1 $552 0 $312 $-1 forward 7 unknown #
vertex $-1 $313 $553 #
ellipse-curve $-1 59.791598484480438 -3.6422014412908368 2.937844745386752 0.83867057594974714 0 0.54463902268945019 0.2723195113447251 0 -0.41933528797487357 1 I I #
point $-1 61.651535959639332 -3.6422014412908368 3.5495205850370062 #
edge $-1 $554 1 $554 0 $316 $-1 forward 7 unknown #
vertex $-1 $317 $555 #
ellipse-curve $-1 59.791598484480438 -0.76772994869948619 2.937844745386752 0.83867057594974714 0 0.54463902268945019 0.2723195113447251 0 -0.41933528797487357 1 I I #
point $-1 61.651535959639332 -0.76772994869948619 3.5495205850370062 #
plane-surface $-1 63.086642048402354 0 0 -1 0 0 0 0 1 forward_v I I I I #
coedge $-1 $325 $323 $327 $473 reversed $201 $-1 #
edge $-1 $338 -6.5980608175319864 $475 6.5980608175319864 $337 $556 forward 7 unknown #
vertex $-1 $473 $557 #
straight-curve $-1 -63.086642048402354 -30.886405155585958 0 0 0 -1 I I #
edge $-1 $471 -30.886405155585958 $475 30.886405155585958 $469 $558 forward 7 unknown #
straight-curve $-1 0 -30.886405155585958 -6.5980608175319864 -1 0 0 I I #
vertex $-1 $330 $559 #
straight-curve $-1 0 30.886405155585958 -6.5980608175319864 1 0 0 I I #
point $-1 63.086642048402354 30.886405155585958 -6.5980608175319864 #
point $-1 63.086642048402354 -30.886405155585958 -6.5980608175319864 #
straight-curve $-1 -63.086642048402354 0 6.5980608175319864 0 -1 0 I I #
point $-1 -63.086642048402354 30.886405155585958 6.5980608175319864 #
point $-1 -63.086642048402354 -30.886405155585958 6.5980608175319864 #
straight-curve $-1 63.086642048402354 -30.886405155585958 0 0 0 -1 I I #
straight-curve $-1 63.086642048402354 30.886405155585958 0 0 0 -1 I I #
plane-surface $-1 63.086642048402354 0 0 -1 0 0 0 0 1 forward_v I I I I #
coedge $-1 $488 $350 $361 $497 forward $220 $-1 #
coedge $-1 $350 $488 $364 $499 reversed $220 $-1 #
straight-curve $-1 63.086642048402354 -25.608697517332597 -0.19129202475525897 0 0 1 I I #
coedge $-1 $486 $485 $353 $489 forward $220 $-1 #
edge $-1 $492 11.484921849102959 $490 16.762629487356321 $488 $560 forward 7 unknown #
vertex $-1 $355 $561 #
straight-curve $-1 0 -30.886405155585958 -1.8825840495105179 1 0 0 I I #
vertex $-1 $489 $562 #
straight-curve $-1 0 -25.608697517332597 -1.8825840495105179 1 0 0 I I #
point $-1 63.086642048402354 -30.886405155585958 -1.8825840495105179 #
point $-1 63.086642048402354 -25.608697517332597 -1.8825840495105179 #
straight-curve $-1 -63.086642048402354 -14.123775668229639 1.1174159504894821 0 1 0 I I #
edge $-1 $362 -1.308707975244741 $492 1.691292024755259 $485 $563 forward 7 unknown #
point $-1 -63.086642048402354 -25.608697517332597 1.1174159504894821 #
edge $-1 $366 -1.1174159504894821 $490 1.8825840495105179 $486 $564 forward 7 unknown #
point $-1 -63.086642048402354 -30.886405155585958 1.1174159504894821 #
straight-curve $-1 63.086642048402354 -30.886405155585958 0 0 0 -1 I I #
plane-surface $-1 0 30.886405155585958 0 0 -1 0 0 0 -1 forward_v I I I I #
coedge $-1 $375 $512 $377 $506 forward $372 $-1 #
vertex $-1 $506 $565 #
straight-curve $-1 -63.086642048402354 25.608697517332597 -0.19129202475525897 0 0 1 I I #
edge $-1 $508 -16.762629487356321 $504 -11.484921849102959 $503 $566 forward 7 unknown #
straight-curve $-1 0 25.608697517332597 -1.8825840495105179 -1 0 0 I I #
vertex $-1 $380 $567 #
straight-curve $-1 0 30.886405155585958 -1.8825840495105179 -1 0 0 I I #
point $-1 63.086642048402354 25.608697517332597 -1.8825840495105179 #
point $-1 63.086642048402354 30.886405155585958 -1.8825840495105179 #
coedge $-1 $503 $384 $387 $514 forward $372 $-1 #
straight-curve $-1 -63.086642048402354 14.123775668229639 1.1174159504894821 0 1 0 I I #
edge $-1 $389 -1.1174159504894821 $508 1.8825840495105179 $387 $568 forward 7 unknown #
point $-1 -63.086642048402354 30.886405155585958 1.1174159504894821 #
point $-1 -63.086642048402354 25.608697517332597 1.1174159504894821 #
straight-curve $-1 63.086642048402354 25.608697517332597 -0.19129202475525897 0 0 -1 I I #
straight-curve $-1 63.086642048402354 30.886405155585958 0 0 0 -1 I I #
coedge $-1 $409 $408 $401 $520 forward $398 $-1 #
edge $-1 $521 17.484208587656212 $524 20.284891877826489 $519 $569 forward 7 unknown #
vertex $-1 $520 $570 #
straight-curve $-1 -63.086642048402354 -8.0699407460672496 41.271462045809542 0 0 1 I I #
edge $-1 $524 -6.0524555595504381 $410 2.0174851865168151 $409 $571 forward 7 unknown #
vertex $-1 $523 $572 #
straight-curve $-1 -63.086642048402382 -8.0699407460672496 3.1395048931564418 -0.62932038083071107 0 -0.77714596973225614 I I #
point $-1 -63.086642048402354 -8.0699407460672496 3.1395048931564769 #
point $-1 -60.285958758232077 3.5527136788005009e-015 6.5980608175319864 #
straight-curve $-1 -63.086642048402354 0 6.5980608175319864 0 -1 0 I I #
vertex $-1 $416 $573 #
point $-1 -60.261158935341527 -4.034970373033623 4.3581058566578292 #
edge $-1 $427 -8.0699407460672603 $537 -3.5527136788005009e-015 $422 $574 forward 7 unknown #
straight-curve $-1 -63.086642048402354 8.0699407460672603 41.271462045809542 0 0 -1 I I #
straight-curve $-1 -63.086642048402382 8.0699407460672603 3.1395048931564418 0.62932038083071107 0 0.77714596973225614 I I #
point $-1 -60.285958758232077 8.0699407460672603 6.5980608175319864 #
point $-1 -63.086642048402354 8.0699407460672603 6.5980608175319864 #
point $-1 -63.086642048402354 8.0699407460672603 3.1395048931564769 #
vertex $-1 $434 $575 #
straight-curve $-1 -80.570850636058566 3.5527136788005009e-015 6.5980608175319873 1 0 0 I I #
straight-curve $-1 -63.086642048402354 3.5527136788005009e-015 41.271462045809542 0 0 1 I I #
vertex $-1 $438 $576 #
point $-1 -60.261158935341527 4.0349703730336337 4.3581058566578292 #
coedge $-1 $453 $452 $445 $543 forward $442 $-1 #
edge $-1 $544 81.340122138184071 $547 86.598532027224294 $542 $577 forward 7 unknown #
vertex $-1 $457 $578 #
straight-curve $-1 50.092784375669268 -5.5585157696850693 6.5980608175319873 1 0 0 I I #
edge $-1 $547 -4.4560329221874895 $454 2.2510672271923298 $453 $579 forward 7 unknown #
vertex $-1 $546 $580 #
straight-curve $-1 -5.6322520915997245 -5.5585157696850693 107.15747177143007 -0.54463902268945019 0 0.83867057594974714 I I #
point $-1 59.671790848186873 -5.5585157696850693 6.5980608175319873 #
point $-1 63.086642048402354 1.1485843796947499 1.3396509284917641 #
straight-curve $-1 63.086642048402354 0 6.5980608175319864 0 1 0 I I #
vertex $-1 $460 $581 #
point $-1 60.063917995825165 -3.6422014412908368 2.5185094574118785 #
vertex $-1 $464 $582 #
point $-1 60.063917995825165 -0.76772994869948619 2.5185094574118785 #
straight-curve $-1 -63.086642048402354 30.886405155585958 0 0 0 -1 I I #
point $-1 -63.086642048402354 -30.886405155585958 -6.5980608175319864 #
straight-curve $-1 -63.086642048402354 0 -6.5980608175319864 0 1 0 I I #
point $-1 -63.086642048402354 30.886405155585958 -6.5980608175319864 #
straight-curve $-1 -63.086642048402354 -14.123775668229639 -1.8825840495105179 0 -1 0 I I #
point $-1 -63.086642048402354 -30.886405155585958 -1.8825840495105179 #
point $-1 -63.086642048402354 -25.608697517332597 -1.8825840495105179 #
straight-curve $-1 -63.086642048402354 -25.608697517332597 -0.19129202475525897 0 0 -1 I I #
straight-curve $-1 -63.086642048402354 -30.886405155585958 0 0 0 -1 I I #
point $-1 -63.086642048402354 25.608697517332597 -1.8825840495105179 #
straight-curve $-1 -63.086642048402354 14.123775668229639 -1.8825840495105179 0 -1 0 I I #
point $-1 -63.086642048402354 30.886405155585958 -1.8825840495105179 #
straight-curve $-1 -63.086642048402354 30.886405155585958 0 0 0 -1 I I #
straight-curve $-1 -80.570850636058566 -8.0699407460672496 6.5980608175319873 1 0 0 I I #
point $-1 -63.086642048402354 -8.0699407460672496 6.5980608175319864 #
straight-curve $-1 -60.28595875823207 -2.0174851865168115 6.5980608175319873 0 1 0 I I #
point $-1 -60.285958758232077 -8.0699407460672496 6.5980608175319864 #
point $-1 -60.187246140890757 -4.034970373033623 3.6548726813763461 #
straight-curve $-1 -63.086642048402354 0 6.5980608175319864 0 -1 0 I I #
point $-1 -63.086642048402354 3.5527136788005009e-015 6.5980608175319864 #
point $-1 -60.187246140890757 4.0349703730336337 3.6548726813763461 #
straight-curve $-1 63.086642048402354 -5.5585157696850693 87.938182955716059 0 0 -1 I I #
point $-1 63.086642048402354 -5.5585157696850693 6.5980608175319864 #
straight-curve $-1 63.086642048402354 -1.1024828474975799 1.3396509284917713 0 1 0 I I #
point $-1 63.086642048402354 -5.5585157696850693 1.3396509284917641 #
point $-1 59.372263196505564 -3.6422014412908368 2.6655252340420268 #
point $-1 59.372263196505564 -0.76772994869948619 2.6655252340420268 #
End-of-ACIS-data 