500 0 10 0           
7 Unknown 11 ACIS 5.0 NT 24 Thu Mar 25 19:54:08 1999 
-1 9.9999999999999995e-007 1e-010 
body $-1 $10 $-1 $11 #
body $-1 $12 $-1 $13 #
body $-1 $14 $-1 $15 #
body $-1 $16 $-1 $17 #
body $-1 $18 $-1 $19 #
body $-1 $20 $-1 $21 #
body $-1 $22 $-1 $23 #
body $-1 $24 $-1 $25 #
body $-1 $26 $-1 $27 #
body $-1 $28 $-1 $29 #
lump $-1 $-1 $30 $0 #
transform $-1 1 0 0 0 1 0 0 0 1 57.66289254432813 25.071840460472345 5.1945621418531056 1 rotate no_reflect no_shear #
lump $-1 $-1 $31 $1 #
transform $-1 1 0 0 0 1 0 0 0 1 57.66289254432813 25.071840460472345 5.1945621418531056 1 rotate no_reflect no_shear #
lump $-1 $-1 $32 $2 #
transform $-1 1 0 0 0 1 0 0 0 1 57.66289254432813 25.071840460472345 5.1945621418531056 1 rotate no_reflect no_shear #
lump $-1 $-1 $33 $3 #
transform $-1 1 0 0 0 1 0 0 0 1 57.66289254432813 25.071840460472345 5.1945621418531056 1 rotate no_reflect no_shear #
lump $-1 $-1 $34 $4 #
transform $-1 1 0 0 0 1 0 0 0 1 57.66289254432813 25.071840460472345 5.1945621418531056 1 rotate no_reflect no_shear #
lump $-1 $-1 $35 $5 #
transform $-1 1 0 0 0 1 0 0 0 1 57.66289254432813 25.071840460472345 5.1945621418531056 1 rotate no_reflect no_shear #
lump $-1 $-1 $36 $6 #
transform $-1 1 0 0 0 1 0 0 0 1 57.66289254432813 25.071840460472345 5.1945621418531056 1 rotate no_reflect no_shear #
lump $-1 $-1 $37 $7 #
transform $-1 1 0 0 0 1 0 0 0 1 57.66289254432813 25.071840460472345 5.1945621418531056 1 rotate no_reflect no_shear #
lump $-1 $-1 $38 $8 #
transform $-1 1 0 0 0 1 0 0 0 1 57.66289254432813 25.071840460472345 5.1945621418531056 1 rotate no_reflect no_shear #
lump $-1 $-1 $39 $9 #
transform $-1 1 0 0 0 1 0 0 0 1 57.66289254432813 25.071840460472345 5.1945621418531056 1 rotate no_reflect no_shear #
shell $-1 $-1 $-1 $40 $-1 $10 #
shell $-1 $-1 $-1 $41 $-1 $12 #
shell $-1 $-1 $-1 $42 $-1 $14 #
shell $-1 $-1 $-1 $43 $-1 $16 #
shell $-1 $-1 $-1 $44 $-1 $18 #
shell $-1 $-1 $-1 $45 $-1 $20 #
shell $-1 $-1 $-1 $46 $-1 $22 #
shell $-1 $-1 $-1 $47 $-1 $24 #
shell $-1 $-1 $-1 $48 $-1 $26 #
shell $-1 $-1 $-1 $49 $-1 $28 #
face $-1 $50 $51 $30 $-1 $52 forward single #
face $-1 $53 $54 $31 $-1 $55 forward single #
face $-1 $56 $57 $32 $-1 $58 reversed single #
face $-1 $59 $60 $33 $-1 $61 forward single #
face $-1 $62 $63 $34 $-1 $64 forward single #
face $-1 $65 $66 $35 $-1 $67 forward single #
face $-1 $68 $69 $36 $-1 $70 reversed single #
face $-1 $71 $72 $37 $-1 $73 forward single #
face $-1 $74 $75 $38 $-1 $76 forward single #
face $-1 $77 $78 $39 $-1 $79 forward single #
face $-1 $80 $81 $30 $-1 $82 reversed single #
loop $-1 $-1 $83 $40 #
plane-surface $-1 0 0 5.1945621418531056 0 0 1 1 0 0 forward_v I I I I #
face $-1 $84 $85 $31 $-1 $86 reversed single #
loop $-1 $-1 $87 $41 #
plane-surface $-1 -57.66289254432813 0 0 1 0 0 0 0 -1 forward_v I I I I #
face $-1 $88 $89 $32 $-1 $90 reversed single #
loop $-1 $-1 $91 $42 #
plane-surface $-1 51.112369524760211 -25.07184046047233 0.11660306677345034 0 -0.75470958851134928 0.65605901945558964 1 0 0 forward_v I I I I #
face $-1 $92 $93 $33 $-1 $94 forward single #
loop $-1 $95 $96 $43 #
cone-surface $-1 47.182055713019466 -22.298574648317871 2.1634232135470333 0 0.75470958851134928 -0.65605901945558964 1 0 0 1 I I 0 1 1 forward I I I I #
face $-1 $97 $98 $34 $-1 $99 forward single #
loop $-1 $100 $101 $44 #
cone-surface $-1 51.112369524760211 -22.298574648317871 2.1634232135470333 0 0.75470958851134928 -0.65605901945558964 1 0 0 1 I I 0 1 1 forward I I I I #
face $-1 $102 $103 $35 $-1 $104 forward single #
loop $-1 $105 $106 $45 #
cone-surface $-1 55.042683336500957 -22.298574648317871 2.1634232135470333 0 0.75470958851134928 -0.65605901945558964 1 0 0 1 I I 0 1 1 forward I I I I #
face $-1 $107 $108 $36 $-1 $109 reversed single #
loop $-1 $-1 $110 $46 #
plane-surface $-1 51.112369524760211 -7.8253736764166035 37.960519861064014 0 0.75470958851134928 0.65605901945558964 1 0 0 forward_v I I I I #
face $-1 $111 $112 $37 $-1 $113 forward single #
loop $-1 $114 $115 $47 #
cone-surface $-1 47.182055713019466 22.298574648317871 2.1634232135470439 0 -0.75470958851134928 -0.65605901945558964 1 0 0 1 I I 0 1 1 forward I I I I #
face $-1 $116 $117 $38 $-1 $118 forward single #
loop $-1 $119 $120 $48 #
cone-surface $-1 51.112369524760211 22.298574648317871 2.1634232135470439 0 -0.75470958851134928 -0.65605901945558964 1 0 0 1 I I 0 1 1 forward I I I I #
face $-1 $121 $122 $39 $-1 $123 forward single #
loop $-1 $124 $125 $49 #
cone-surface $-1 55.042683336500957 22.298574648317871 2.1634232135470439 0 -0.75470958851134928 -0.65605901945558964 1 0 0 1 I I 0 1 1 forward I I I I #
face $-1 $126 $127 $30 $-1 $128 reversed single #
loop $-1 $-1 $129 $50 #
plane-surface $-1 0 0 -5.1945621418531056 0 0 1 1 0 0 forward_v I I I I #
coedge $-1 $130 $131 $132 $133 forward $51 $-1 #
face $-1 $134 $135 $31 $-1 $136 reversed single #
loop $-1 $-1 $137 $53 #
plane-surface $-1 0 25.071840460472345 0 0 -1 0 0 0 -1 forward_v I I I I #
coedge $-1 $138 $139 $140 $141 forward $54 $-1 #
face $-1 $142 $143 $32 $-1 $144 reversed single #
loop $-1 $-1 $145 $56 #
plane-surface $-1 44.561846505192293 -112.1093162694804 75.777124549983341 1 0 0 0 0.75470958851134928 -0.65605901945558964 forward_v I I I I #
coedge $-1 $146 $147 $148 $149 reversed $57 $-1 #
face $-1 $-1 $150 $33 $-1 $151 forward single #
loop $-1 $152 $153 $59 #
cone-surface $-1 47.182055713019466 -21.355055225161244 1.3432343130529842 0 0.75470958851134928 -0.65605901945558964 0.5 0 0 1 I I -0.70710678118654746 0.70710678118654746 0.5 forward I I I I #
loop $-1 $-1 $154 $43 #
coedge $-1 $96 $96 $155 $156 reversed $60 $-1 #
face $-1 $-1 $157 $34 $-1 $158 forward single #
loop $-1 $159 $160 $62 #
cone-surface $-1 51.112369524760211 -21.355055225161244 1.3432343130529842 0 0.75470958851134928 -0.65605901945558964 0.5 0 0 1 I I -0.70710678118654746 0.70710678118654746 0.5 forward I I I I #
loop $-1 $-1 $161 $44 #
coedge $-1 $101 $101 $162 $163 reversed $63 $-1 #
face $-1 $-1 $164 $35 $-1 $165 forward single #
loop $-1 $166 $167 $65 #
cone-surface $-1 55.042683336500957 -21.355055225161244 1.3432343130529842 0 0.75470958851134928 -0.65605901945558964 0.5 0 0 1 I I -0.70710678118654746 0.70710678118654746 0.5 forward I I I I #
loop $-1 $-1 $168 $45 #
coedge $-1 $106 $106 $169 $170 reversed $66 $-1 #
face $-1 $171 $172 $36 $-1 $173 forward single #
loop $-1 $-1 $174 $68 #
plane-surface $-1 44.561846505192293 79.212102132591468 113.62104134427391 1 0 0 0 -0.75470958851134928 -0.65605901945558964 forward_v I I I I #
coedge $-1 $175 $176 $177 $178 reversed $69 $-1 #
face $-1 $-1 $179 $37 $-1 $180 forward single #
loop $-1 $181 $182 $71 #
cone-surface $-1 47.182055713019466 21.355055225161244 1.3432343130529949 0 -0.75470958851134928 -0.65605901945558964 0.5 0 0 1 I I -0.70710678118654746 0.70710678118654746 0.5 forward I I I I #
loop $-1 $-1 $183 $47 #
coedge $-1 $115 $115 $184 $185 reversed $72 $-1 #
face $-1 $-1 $186 $38 $-1 $187 forward single #
loop $-1 $188 $189 $74 #
cone-surface $-1 51.112369524760211 21.355055225161244 1.3432343130529949 0 -0.75470958851134928 -0.65605901945558964 0.5 0 0 1 I I -0.70710678118654746 0.70710678118654746 0.5 forward I I I I #
loop $-1 $-1 $190 $48 #
coedge $-1 $120 $120 $191 $192 reversed $75 $-1 #
face $-1 $-1 $193 $39 $-1 $194 forward single #
loop $-1 $195 $196 $77 #
cone-surface $-1 55.042683336500957 21.355055225161244 1.3432343130529949 0 -0.75470958851134928 -0.65605901945558964 0.5 0 0 1 I I -0.70710678118654746 0.70710678118654746 0.5 forward I I I I #
loop $-1 $-1 $197 $49 #
coedge $-1 $125 $125 $198 $199 reversed $78 $-1 #
face $-1 $200 $201 $30 $-1 $202 reversed single #
loop $-1 $-1 $203 $80 #
plane-surface $-1 0 -25.071840460472345 0 0 1 0 0 0 1 forward_v I I I I #
coedge $-1 $204 $205 $206 $207 forward $81 $-1 #
coedge $-1 $208 $83 $209 $210 forward $51 $-1 #
coedge $-1 $83 $208 $211 $212 forward $51 $-1 #
coedge $-1 $213 $214 $83 $133 reversed $215 $-1 #
edge $-1 $216 -25.071840460472345 $217 25.071840460472345 $132 $218 forward 7 unknown #
face $-1 $219 $220 $31 $-1 $221 reversed single #
loop $-1 $-1 $140 $84 #
plane-surface $-1 -60.027321148895339 0 2.1945621418531056 0 0 1 1 0 0 forward_v I I I I #
coedge $-1 $222 $223 $138 $224 forward $85 $-1 #
coedge $-1 $225 $87 $137 $224 reversed $54 $-1 #
coedge $-1 $87 $225 $226 $227 reversed $54 $-1 #
coedge $-1 $228 $229 $87 $141 reversed $135 $-1 #
edge $-1 $230 -25.071840460472345 $231 25.071840460472345 $140 $232 forward 7 unknown #
face $-1 $233 $234 $32 $-1 $235 forward single #
loop $-1 $-1 $236 $88 #
plane-surface $-1 57.66289254432813 0 0 -1 0 0 0 0 1 forward_v I I I I #
coedge $-1 $237 $238 $239 $240 reversed $89 $-1 #
coedge $-1 $241 $91 $236 $242 reversed $57 $-1 #
coedge $-1 $91 $241 $237 $243 forward $57 $-1 #
coedge $-1 $239 $244 $91 $149 forward $234 $-1 #
edge $-1 $245 -32.106707781948025 $246 -19.005661742812187 $148 $247 forward 7 unknown #
loop $-1 $-1 $155 $92 #
plane-surface $-1 51.112369524760211 -25.07184046047233 0.11660306677345034 0 -0.75470958851134928 0.65605901945558964 1 0 0 forward_v I I I I #
loop $-1 $-1 $248 $59 #
coedge $-1 $153 $153 $154 $249 reversed $93 $-1 #
coedge $-1 $154 $154 $153 $249 forward $95 $-1 #
coedge $-1 $155 $155 $96 $156 forward $150 $-1 #
edge $-1 $250 4.1175259121616878e-016 $250 6.2831853071796004 $155 $251 forward 7 unknown #
loop $-1 $-1 $162 $97 #
plane-surface $-1 51.112369524760211 -25.07184046047233 0.11660306677345034 0 -0.75470958851134928 0.65605901945558964 1 0 0 forward_v I I I I #
loop $-1 $-1 $252 $62 #
coedge $-1 $160 $160 $161 $253 reversed $98 $-1 #
coedge $-1 $161 $161 $160 $253 forward $100 $-1 #
coedge $-1 $162 $162 $101 $163 forward $157 $-1 #
edge $-1 $254 4.1175259121616878e-016 $254 6.2831853071796004 $162 $255 forward 7 unknown #
loop $-1 $-1 $169 $102 #
plane-surface $-1 51.112369524760211 -25.07184046047233 0.11660306677345034 0 -0.75470958851134928 0.65605901945558964 1 0 0 forward_v I I I I #
loop $-1 $-1 $256 $65 #
coedge $-1 $167 $167 $168 $257 reversed $103 $-1 #
coedge $-1 $168 $168 $167 $257 forward $105 $-1 #
coedge $-1 $169 $169 $106 $170 forward $164 $-1 #
edge $-1 $258 4.1175259121616878e-016 $258 6.2831853071796004 $169 $259 forward 7 unknown #
face $-1 $260 $261 $36 $-1 $262 reversed single #
loop $-1 $-1 $263 $107 #
plane-surface $-1 0 0 5.1945621418531056 0 0 1 1 0 0 forward_v I I I I #
coedge $-1 $264 $265 $266 $267 reversed $108 $-1 #
coedge $-1 $268 $110 $269 $270 reversed $69 $-1 #
coedge $-1 $110 $268 $264 $271 forward $69 $-1 #
coedge $-1 $266 $272 $110 $178 forward $273 $-1 #
edge $-1 $274 -32.106707781948025 $275 -19.005661742812187 $177 $276 forward 7 unknown #
loop $-1 $-1 $184 $111 #
plane-surface $-1 51.112369524760211 -7.8253736764166035 37.960519861064014 0 0.75470958851134928 0.65605901945558964 1 0 0 forward_v I I I I #
loop $-1 $-1 $277 $71 #
coedge $-1 $182 $182 $183 $278 reversed $112 $-1 #
coedge $-1 $183 $183 $182 $278 forward $114 $-1 #
coedge $-1 $184 $184 $115 $185 forward $179 $-1 #
edge $-1 $279 -1.7677049718068321e-015 $279 6.2831853071795987 $184 $280 forward 7 unknown #
loop $-1 $-1 $191 $116 #
plane-surface $-1 51.112369524760211 -7.8253736764166035 37.960519861064014 0 0.75470958851134928 0.65605901945558964 1 0 0 forward_v I I I I #
loop $-1 $-1 $281 $74 #
coedge $-1 $189 $189 $190 $282 reversed $117 $-1 #
coedge $-1 $190 $190 $189 $282 forward $119 $-1 #
coedge $-1 $191 $191 $120 $192 forward $186 $-1 #
edge $-1 $283 -1.7677049718068321e-015 $283 6.2831853071795987 $191 $284 forward 7 unknown #
loop $-1 $-1 $198 $121 #
plane-surface $-1 51.112369524760211 -7.8253736764166035 37.960519861064014 0 0.75470958851134928 0.65605901945558964 1 0 0 forward_v I I I I #
loop $-1 $-1 $285 $77 #
coedge $-1 $196 $196 $197 $286 reversed $122 $-1 #
coedge $-1 $197 $197 $196 $286 forward $124 $-1 #
coedge $-1 $198 $198 $125 $199 forward $193 $-1 #
edge $-1 $287 -1.7677049718068321e-015 $287 6.2831853071795987 $198 $288 forward 7 unknown #
face $-1 $289 $290 $30 $-1 $291 reversed single #
loop $-1 $-1 $292 $126 #
plane-surface $-1 -57.66289254432813 0 0 1 0 0 0 0 -1 forward_v I I I I #
coedge $-1 $293 $211 $294 $295 forward $127 $-1 #
coedge $-1 $296 $129 $293 $297 forward $81 $-1 #
coedge $-1 $129 $296 $298 $299 forward $81 $-1 #
coedge $-1 $214 $213 $129 $207 reversed $215 $-1 #
edge $-1 $300 -25.071840460472345 $301 25.071840460472345 $206 $302 forward 7 unknown #
coedge $-1 $131 $130 $303 $304 forward $51 $-1 #
coedge $-1 $305 $306 $130 $210 reversed $290 $-1 #
edge $-1 $217 -57.66289254432813 $307 57.66289254432813 $209 $308 forward 7 unknown #
coedge $-1 $203 $309 $131 $212 reversed $127 $-1 #
edge $-1 $310 -57.66289254432813 $216 57.66289254432813 $211 $311 forward 7 unknown #
coedge $-1 $206 $132 $309 $312 forward $215 $-1 #
coedge $-1 $132 $206 $305 $313 reversed $215 $-1 #
loop $-1 $-1 $213 $289 #
vertex $-1 $133 $314 #
vertex $-1 $133 $315 #
straight-curve $-1 57.66289254432813 0 5.1945621418531056 0 1 0 I I #
face $-1 $316 $317 $31 $-1 $318 forward single #
loop $-1 $-1 $319 $134 #
plane-surface $-1 -62.391749753462548 0 3.6945621418531056 1 0 0 0 0 -1 forward_v I I I I #
coedge $-1 $320 $137 $229 $321 reversed $85 $-1 #
coedge $-1 $137 $320 $322 $323 reversed $85 $-1 #
edge $-1 $324 -5.1945621418531056 $231 -2.1945621418531056 $137 $325 forward 7 unknown #
coedge $-1 $139 $138 $326 $327 reversed $54 $-1 #
coedge $-1 $328 $329 $139 $227 forward $330 $-1 #
edge $-1 $230 2.1945621418531056 $331 5.1945621418531056 $226 $332 forward 7 unknown #
coedge $-1 $333 $140 $329 $334 forward $135 $-1 #
coedge $-1 $140 $333 $222 $321 forward $135 $-1 #
vertex $-1 $227 $335 #
vertex $-1 $224 $336 #
straight-curve $-1 -57.66289254432813 0 2.1945621418531056 0 1 0 I I #
face $-1 $-1 $337 $32 $-1 $338 reversed single #
loop $-1 $-1 $148 $142 #
plane-surface $-1 0 0 5.1945621418531056 0 0 1 1 0 0 forward_v I I I I #
coedge $-1 $339 $340 $146 $242 forward $143 $-1 #
coedge $-1 $238 $145 $147 $243 reversed $89 $-1 #
coedge $-1 $145 $237 $341 $342 reversed $89 $-1 #
coedge $-1 $343 $148 $145 $240 forward $234 $-1 #
edge $-1 $246 -35.397020040774933 $344 -30.982817674267856 $239 $345 forward 7 unknown #
coedge $-1 $147 $146 $346 $347 reversed $57 $-1 #
edge $-1 $348 -8.1803028079503761 $245 -1.4519411276703456 $236 $349 forward 7 unknown #
edge $-1 $350 -2.1661177451572001e-014 $246 6.7283616802800088 $237 $351 forward 7 unknown #
coedge $-1 $148 $343 $339 $352 forward $234 $-1 #
vertex $-1 $149 $353 #
vertex $-1 $149 $354 #
straight-curve $-1 25.556184762380106 -20.657638093965264 5.1945621418531056 -1 0 0 I I #
coedge $-1 $248 $248 $-1 $355 reversed $152 $-1 #
edge $-1 $356 0 $356 6.2831853071796004 $153 $357 forward 7 unknown #
vertex $-1 $156 $358 #
ellipse-curve $-1 47.182055713019466 -22.864739277218803 2.6555826043132713 0 -0.75470958851134928 0.65605901945558964 1 0 0 1 I I #
coedge $-1 $252 $252 $-1 $359 reversed $159 $-1 #
edge $-1 $360 0 $360 6.2831853071796004 $160 $361 forward 7 unknown #
vertex $-1 $163 $362 #
ellipse-curve $-1 51.112369524760211 -22.864739277218803 2.6555826043132713 0 -0.75470958851134928 0.65605901945558964 1 0 0 1 I I #
coedge $-1 $256 $256 $-1 $363 reversed $166 $-1 #
edge $-1 $364 0 $364 6.2831853071796004 $167 $365 forward 7 unknown #
vertex $-1 $170 $366 #
ellipse-curve $-1 55.042683336500957 -22.864739277218803 2.6555826043132713 0 -0.75470958851134928 0.65605901945558964 1 0 0 1 I I #
face $-1 $-1 $273 $36 $-1 $367 reversed single #
loop $-1 $-1 $269 $171 #
plane-surface $-1 57.66289254432813 0 0 -1 0 0 0 0 1 forward_v I I I I #
coedge $-1 $368 $369 $265 $370 forward $172 $-1 #
coedge $-1 $265 $174 $176 $271 reversed $108 $-1 #
coedge $-1 $174 $264 $263 $370 reversed $108 $-1 #
coedge $-1 $371 $177 $174 $267 forward $273 $-1 #
edge $-1 $275 -56.693917605363517 $372 -51.615958530283848 $266 $373 forward 7 unknown #
coedge $-1 $176 $175 $368 $374 reversed $69 $-1 #
coedge $-1 $375 $376 $175 $270 forward $261 $-1 #
edge $-1 $377 26.523781588142697 $274 33.252143268422728 $269 $378 forward 7 unknown #
edge $-1 $379 43.415319240664694 $275 50.143680920944725 $264 $380 forward 7 unknown #
coedge $-1 $177 $371 $375 $381 forward $273 $-1 #
loop $-1 $-1 $266 $260 #
vertex $-1 $270 $382 #
vertex $-1 $178 $383 #
straight-curve $-1 25.556184762380106 25.071840460472345 0.11660306677343613 -1 0 0 I I #
coedge $-1 $277 $277 $-1 $384 reversed $181 $-1 #
edge $-1 $385 0 $385 6.2831853071796004 $182 $386 forward 7 unknown #
vertex $-1 $185 $387 #
ellipse-curve $-1 47.182055713019466 22.864739277218799 2.6555826043132771 0 0.75470958851134928 0.65605901945558964 1 0 0 1 I I #
coedge $-1 $281 $281 $-1 $388 reversed $188 $-1 #
edge $-1 $389 0 $389 6.2831853071796004 $189 $390 forward 7 unknown #
vertex $-1 $192 $391 #
ellipse-curve $-1 51.112369524760211 22.864739277218799 2.6555826043132771 0 0.75470958851134928 0.65605901945558964 1 0 0 1 I I #
coedge $-1 $285 $285 $-1 $392 reversed $195 $-1 #
edge $-1 $393 0 $393 6.2831853071796004 $196 $394 forward 7 unknown #
vertex $-1 $199 $395 #
ellipse-curve $-1 55.042683336500957 22.864739277218799 2.6555826043132771 0 0.75470958851134928 0.65605901945558964 1 0 0 1 I I #
face $-1 $-1 $215 $30 $-1 $396 reversed single #
loop $-1 $-1 $305 $200 #
plane-surface $-1 0 25.071840460472345 0 0 -1 0 0 0 -1 forward_v I I I I #
coedge $-1 $397 $303 $306 $398 forward $201 $-1 #
coedge $-1 $309 $203 $204 $297 reversed $127 $-1 #
coedge $-1 $303 $397 $203 $295 reversed $201 $-1 #
edge $-1 $310 -5.1945621418531056 $399 5.1945621418531056 $294 $400 forward 7 unknown #
coedge $-1 $205 $204 $397 $401 forward $81 $-1 #
edge $-1 $301 -57.66289254432813 $399 57.66289254432813 $293 $402 forward 7 unknown #
coedge $-1 $306 $305 $205 $299 reversed $290 $-1 #
edge $-1 $403 -57.66289254432813 $300 57.66289254432813 $298 $404 forward 7 unknown #
vertex $-1 $207 $405 #
vertex $-1 $312 $406 #
straight-curve $-1 57.66289254432813 0 -5.1945621418531056 0 -1 0 I I #
coedge $-1 $292 $294 $208 $304 reversed $201 $-1 #
edge $-1 $307 -25.071840460472345 $310 25.071840460472345 $303 $407 forward 7 unknown #
coedge $-1 $298 $209 $214 $313 forward $290 $-1 #
coedge $-1 $209 $298 $292 $398 reversed $290 $-1 #
vertex $-1 $210 $408 #
straight-curve $-1 0 25.071840460472345 5.1945621418531056 -1 0 0 I I #
coedge $-1 $211 $293 $213 $312 reversed $127 $-1 #
vertex $-1 $304 $409 #
straight-curve $-1 0 -25.071840460472345 5.1945621418531056 1 0 0 I I #
edge $-1 $216 -5.1945621418531056 $301 5.1945621418531056 $213 $410 forward 7 unknown #
edge $-1 $217 -5.1945621418531056 $300 5.1945621418531056 $214 $411 forward 7 unknown #
point $-1 57.66289254432813 -25.071840460472345 5.1945621418531056 #
point $-1 57.66289254432813 25.071840460472345 5.1945621418531056 #
face $-1 $-1 $330 $31 $-1 $412 reversed single #
loop $-1 $-1 $326 $219 #
plane-surface $-1 0 0 5.1945621418531056 0 0 1 1 0 0 forward_v I I I I #
coedge $-1 $413 $414 $320 $415 forward $220 $-1 #
coedge $-1 $223 $222 $319 $415 reversed $85 $-1 #
edge $-1 $416 -2.3644286045672089 $231 2.3644286045672089 $222 $417 forward 7 unknown #
coedge $-1 $418 $326 $223 $323 forward $317 $-1 #
edge $-1 $324 57.66289254432813 $419 62.391749753462548 $223 $420 forward 7 unknown #
vertex $-1 $323 $421 #
straight-curve $-1 -57.66289254432813 25.071840460472345 0 0 0 -1 I I #
coedge $-1 $322 $422 $225 $327 forward $317 $-1 #
edge $-1 $331 -25.071840460472345 $324 25.071840460472345 $326 $423 forward 7 unknown #
coedge $-1 $424 $226 $422 $425 reversed $330 $-1 #
coedge $-1 $226 $424 $228 $334 reversed $330 $-1 #
loop $-1 $-1 $226 $316 #
vertex $-1 $227 $426 #
straight-curve $-1 -57.66289254432813 -25.071840460472345 0 0 0 1 I I #
coedge $-1 $229 $228 $413 $427 forward $135 $-1 #
edge $-1 $230 -2.3644286045672089 $428 2.3644286045672089 $329 $429 forward 7 unknown #
point $-1 -57.66289254432813 -25.071840460472345 2.1945621418531056 #
point $-1 -57.66289254432813 25.071840460472345 2.1945621418531056 #
loop $-1 $-1 $346 $233 #
plane-surface $-1 0 -25.071840460472345 0 0 1 0 0 0 1 forward_v I I I I #
coedge $-1 $340 $236 $244 $352 reversed $143 $-1 #
coedge $-1 $236 $339 $430 $431 forward $143 $-1 #
coedge $-1 $346 $432 $238 $342 forward $337 $-1 #
edge $-1 $344 32.694000133138566 $350 37.771959208218234 $341 $433 forward 7 unknown #
coedge $-1 $244 $239 $432 $434 forward $234 $-1 #
vertex $-1 $434 $435 #
straight-curve $-1 44.561846505192293 -56.054658134740201 5.1945621418531047 0 -1 0 I I #
coedge $-1 $430 $341 $241 $347 forward $337 $-1 #
edge $-1 $350 19.005661742812187 $348 32.106707781948025 $346 $436 forward 7 unknown #
vertex $-1 $347 $437 #
straight-curve $-1 57.66289254432813 -19.705079021438614 6.2903560328598962 0 0.65605901945558975 0.75470958851134939 I I #
vertex $-1 $347 $438 #
straight-curve $-1 44.561846505192293 -25.07184046047233 0.11660306677345034 0 0.65605901945558964 0.75470958851134928 I I #
edge $-1 $439 -25.071840460472345 $245 -20.657638093965264 $339 $440 forward 7 unknown #
point $-1 57.66289254432813 -20.657638093965264 5.1945621418531056 #
point $-1 44.561846505192293 -20.657638093965264 5.1945621418531056 #
edge $-1 $441 1 $441 0 $248 $-1 forward 7 unknown #
vertex $-1 $249 $442 #
ellipse-curve $-1 47.182055713019466 -21.732410019416918 1.671263822780779 0 -0.75470958851134928 0.65605901945558964 1 0 0 1 I I #
point $-1 48.182055713019466 -22.86473927721882 2.6555826043132873 #
edge $-1 $443 1 $443 0 $252 $-1 forward 7 unknown #
vertex $-1 $253 $444 #
ellipse-curve $-1 51.112369524760211 -21.732410019416918 1.671263822780779 0 -0.75470958851134928 0.65605901945558964 1 0 0 1 I I #
point $-1 52.112369524760211 -22.86473927721882 2.6555826043132873 #
edge $-1 $445 1 $445 0 $256 $-1 forward 7 unknown #
vertex $-1 $257 $446 #
ellipse-curve $-1 55.042683336500957 -21.732410019416918 1.671263822780779 0 -0.75470958851134928 0.65605901945558964 1 0 0 1 I I #
point $-1 56.042683336500957 -22.86473927721882 2.6555826043132873 #
plane-surface $-1 0 25.071840460472345 0 0 -1 0 0 0 -1 forward_v I I I I #
coedge $-1 $447 $263 $268 $374 forward $172 $-1 #
coedge $-1 $263 $447 $371 $448 forward $172 $-1 #
edge $-1 $372 14.53421060582339 $379 18.94841297233047 $263 $449 forward 7 unknown #
coedge $-1 $272 $266 $369 $448 reversed $273 $-1 #
vertex $-1 $370 $450 #
straight-curve $-1 44.561846505192293 25.071840460472345 56.810520672136953 0 0 1 I I #
edge $-1 $379 19.005661742812187 $377 32.106707781948025 $368 $451 forward 7 unknown #
coedge $-1 $376 $269 $272 $381 reversed $261 $-1 #
coedge $-1 $269 $375 $447 $452 reversed $261 $-1 #
vertex $-1 $452 $453 #
straight-curve $-1 57.66289254432813 3.256471952994147 25.212314430005179 0 0.65605901945558975 -0.75470958851134939 I I #
vertex $-1 $374 $454 #
straight-curve $-1 44.561846505192293 -7.8253736764166035 37.960519861064014 0 0.65605901945558964 -0.75470958851134928 I I #
edge $-1 $455 -5.1945621418531056 $274 -0.11660306677343651 $375 $456 forward 7 unknown #
point $-1 57.66289254432813 25.071840460472345 0.11660306677343651 #
point $-1 44.561846505192293 25.071840460472345 0.11660306677343613 #
edge $-1 $457 1 $457 0 $277 $-1 forward 7 unknown #
vertex $-1 $278 $458 #
ellipse-curve $-1 47.182055713019466 21.732410019416918 1.6712638227807897 0 0.75470958851134928 0.65605901945558964 1 0 0 1 I I #
point $-1 48.182055713019466 22.86473927721882 2.655582604313298 #
edge $-1 $459 1 $459 0 $281 $-1 forward 7 unknown #
vertex $-1 $282 $460 #
ellipse-curve $-1 51.112369524760211 21.732410019416918 1.6712638227807897 0 0.75470958851134928 0.65605901945558964 1 0 0 1 I I #
point $-1 52.112369524760211 22.86473927721882 2.655582604313298 #
edge $-1 $461 1 $461 0 $285 $-1 forward 7 unknown #
vertex $-1 $286 $462 #
ellipse-curve $-1 55.042683336500957 21.732410019416918 1.6712638227807897 0 0.75470958851134928 0.65605901945558964 1 0 0 1 I I #
point $-1 56.042683336500957 22.86473927721882 2.655582604313298 #
plane-surface $-1 57.66289254432813 0 0 -1 0 0 0 0 1 forward_v I I I I #
coedge $-1 $294 $292 $296 $401 reversed $201 $-1 #
edge $-1 $307 -5.1945621418531056 $403 5.1945621418531056 $306 $463 forward 7 unknown #
vertex $-1 $401 $464 #
straight-curve $-1 -57.66289254432813 -25.071840460472345 0 0 0 -1 I I #
edge $-1 $399 -25.071840460472345 $403 25.071840460472345 $397 $465 forward 7 unknown #
straight-curve $-1 0 -25.071840460472345 -5.1945621418531056 -1 0 0 I I #
vertex $-1 $299 $466 #
straight-curve $-1 0 25.071840460472345 -5.1945621418531056 1 0 0 I I #
point $-1 57.66289254432813 25.071840460472345 -5.1945621418531056 #
point $-1 57.66289254432813 -25.071840460472345 -5.1945621418531056 #
straight-curve $-1 -57.66289254432813 0 5.1945621418531056 0 -1 0 I I #
point $-1 -57.66289254432813 25.071840460472345 5.1945621418531056 #
point $-1 -57.66289254432813 -25.071840460472345 5.1945621418531056 #
straight-curve $-1 57.66289254432813 -25.071840460472345 0 0 0 -1 I I #
straight-curve $-1 57.66289254432813 25.071840460472345 0 0 0 -1 I I #
plane-surface $-1 0 -25.071840460472345 0 0 1 0 0 0 1 forward_v I I I I #
coedge $-1 $467 $319 $333 $427 reversed $220 $-1 #
coedge $-1 $319 $467 $418 $468 reversed $220 $-1 #
edge $-1 $419 -1.5 $416 1.5 $320 $469 forward 7 unknown #
vertex $-1 $321 $470 #
straight-curve $-1 -60.027321148895339 25.071840460472345 2.1945621418531056 1 0 0 I I #
coedge $-1 $422 $322 $414 $468 forward $317 $-1 #
vertex $-1 $323 $471 #
straight-curve $-1 0 25.071840460472345 5.1945621418531056 -1 0 0 I I #
point $-1 -57.66289254432813 25.071840460472345 5.1945621418531056 #
coedge $-1 $326 $418 $328 $425 forward $317 $-1 #
straight-curve $-1 -57.66289254432813 0 5.1945621418531056 0 1 0 I I #
coedge $-1 $329 $328 $467 $472 forward $330 $-1 #
edge $-1 $473 -62.391749753462548 $331 -57.66289254432813 $328 $474 forward 7 unknown #
point $-1 -57.66289254432813 -25.071840460472345 5.1945621418531056 #
edge $-1 $428 -25.071840460472345 $416 25.071840460472345 $413 $475 forward 7 unknown #
vertex $-1 $427 $476 #
straight-curve $-1 -60.027321148895339 -25.071840460472345 2.1945621418531056 -1 0 0 I I #
coedge $-1 $432 $346 $340 $431 reversed $337 $-1 #
edge $-1 $439 -5.1945621418531056 $348 -0.11660306677343399 $340 $477 forward 7 unknown #
coedge $-1 $341 $430 $343 $434 reversed $337 $-1 #
straight-curve $-1 44.561846505192293 -25.071840460472345 37.888562274991671 0 0 -1 I I #
edge $-1 $344 44.561846505192293 $439 57.66289254432813 $432 $478 forward 7 unknown #
point $-1 44.561846505192293 -25.071840460472345 5.1945621418531056 #
straight-curve $-1 25.556184762380106 -25.071840460472345 0.11660306677343299 1 0 0 I I #
point $-1 57.66289254432813 -25.071840460472345 0.11660306677343399 #
point $-1 44.561846505192293 -25.071840460472345 0.11660306677343399 #
vertex $-1 $352 $479 #
straight-curve $-1 57.66289254432813 0 5.1945621418531056 0 1 0 I I #
vertex $-1 $355 $480 #
point $-1 48.182055713019466 -21.732410019416918 1.671263822780779 #
vertex $-1 $359 $481 #
point $-1 52.112369524760211 -21.732410019416918 1.671263822780779 #
vertex $-1 $363 $482 #
point $-1 56.042683336500957 -21.732410019416918 1.671263822780779 #
coedge $-1 $369 $368 $376 $452 forward $172 $-1 #
edge $-1 $455 -57.66289254432813 $372 -44.561846505192293 $371 $483 forward 7 unknown #
straight-curve $-1 44.561846505192293 39.606051066295734 5.1945621418531047 0 -1 0 I I #
point $-1 44.561846505192293 25.071840460472345 5.1945621418531056 #
straight-curve $-1 25.556184762380106 20.657638093965261 5.1945621418531047 1 0 0 I I #
edge $-1 $377 20.657638093965264 $455 25.071840460472345 $376 $484 forward 7 unknown #
point $-1 57.66289254432813 20.657638093965264 5.1945621418531047 #
point $-1 44.561846505192293 20.657638093965264 5.1945621418531047 #
vertex $-1 $452 $485 #
straight-curve $-1 57.66289254432813 25.071840460472345 0 0 0 -1 I I #
vertex $-1 $384 $486 #
point $-1 48.182055713019466 21.732410019416918 1.6712638227807897 #
vertex $-1 $388 $487 #
point $-1 52.112369524760211 21.732410019416918 1.6712638227807897 #
vertex $-1 $392 $488 #
point $-1 56.042683336500957 21.732410019416918 1.6712638227807897 #
straight-curve $-1 -57.66289254432813 25.071840460472345 0 0 0 -1 I I #
point $-1 -57.66289254432813 -25.071840460472345 -5.1945621418531056 #
straight-curve $-1 -57.66289254432813 0 -5.1945621418531056 0 1 0 I I #
point $-1 -57.66289254432813 25.071840460472345 -5.1945621418531056 #
coedge $-1 $414 $413 $424 $472 reversed $220 $-1 #
edge $-1 $419 -25.071840460472345 $473 25.071840460472345 $414 $489 forward 7 unknown #
straight-curve $-1 -62.391749753462548 25.071840460472345 3.6945621418531056 0 0 -1 I I #
point $-1 -62.391749753462548 25.071840460472345 2.1945621418531056 #
point $-1 -62.391749753462548 25.071840460472345 5.1945621418531056 #
edge $-1 $473 -1.5 $428 1.5 $467 $490 forward 7 unknown #
vertex $-1 $468 $491 #
straight-curve $-1 0 -25.071840460472345 5.1945621418531056 1 0 0 I I #
straight-curve $-1 -62.391749753462548 0 2.1945621418531056 0 1 0 I I #
point $-1 -62.391749753462548 -25.071840460472345 2.1945621418531056 #
straight-curve $-1 57.66289254432813 -25.071840460472345 0 0 0 -1 I I #
straight-curve $-1 0 -25.071840460472345 5.1945621418531056 1 0 0 I I #
point $-1 57.66289254432813 -25.071840460472345 5.1945621418531056 #
point $-1 47.182055713019466 -20.977700430905571 1.0152048033251895 #
point $-1 51.112369524760211 -20.977700430905571 1.0152048033251895 #
point $-1 55.042683336500957 -20.977700430905571 1.0152048033251895 #
straight-curve $-1 0 25.071840460472345 5.1945621418531056 -1 0 0 I I #
straight-curve $-1 57.66289254432813 0 5.1945621418531056 0 1 0 I I #
point $-1 57.66289254432813 25.071840460472345 5.1945621418531056 #
point $-1 47.182055713019466 20.977700430905571 1.0152048033252001 #
point $-1 51.112369524760211 20.977700430905571 1.0152048033252001 #
point $-1 55.042683336500957 20.977700430905571 1.0152048033252001 #
straight-curve $-1 -62.391749753462548 0 5.1945621418531056 0 -1 0 I I #
straight-curve $-1 -62.391749753462548 -25.071840460472345 3.6945621418531056 0 0 -1 I I #
point $-1 -62.391749753462548 -25.071840460472345 5.1945621418531056 #
End-of-ACIS-data 