500 0 5 0           
7 Unknown 11 ACIS 5.0 NT 24 Fri Mar 26 03:01:58 1999 
-1 9.9999999999999995e-007 1e-010 
body $-1 $5 $-1 $6 #
body $-1 $7 $-1 $8 #
body $-1 $9 $-1 $10 #
body $-1 $11 $-1 $12 #
body $-1 $13 $-1 $14 #
lump $-1 $-1 $15 $0 #
transform $-1 1 0 0 0 1 0 0 0 1 43.055513168736837 20.293394296984424 8.4379198968423914 1 rotate no_reflect no_shear #
lump $-1 $-1 $16 $1 #
transform $-1 1 0 0 0 1 0 0 0 1 43.055513168736837 20.293394296984424 8.4379198968423914 1 rotate no_reflect no_shear #
lump $-1 $-1 $17 $2 #
transform $-1 1 0 0 0 1 0 0 0 1 43.055513168736837 20.293394296984424 8.4379198968423914 1 rotate no_reflect no_shear #
lump $-1 $-1 $18 $3 #
transform $-1 1 0 0 0 1 0 0 0 1 43.055513168736837 20.293394296984424 8.4379198968423914 1 rotate no_reflect no_shear #
lump $-1 $-1 $19 $4 #
transform $-1 1 0 0 0 1 0 0 0 1 43.055513168736837 20.293394296984424 8.4379198968423914 1 rotate no_reflect no_shear #
shell $-1 $-1 $-1 $20 $-1 $5 #
shell $-1 $-1 $-1 $21 $-1 $7 #
shell $-1 $-1 $-1 $22 $-1 $9 #
shell $-1 $-1 $-1 $23 $-1 $11 #
shell $-1 $-1 $-1 $24 $-1 $13 #
face $-1 $25 $26 $15 $-1 $27 forward single #
face $-1 $28 $29 $16 $-1 $30 reversed single #
face $-1 $31 $32 $17 $-1 $33 reversed single #
face $-1 $34 $35 $18 $-1 $36 forward single #
face $-1 $37 $38 $19 $-1 $39 forward single #
face $-1 $40 $41 $15 $-1 $42 reversed single #
loop $-1 $-1 $43 $20 #
plane-surface $-1 0 0 8.4379198968423914 0 0 1 1 0 0 forward_v I I I I #
face $-1 $44 $45 $16 $-1 $46 reversed single #
loop $-1 $-1 $47 $21 #
plane-surface $-1 -40.106309906107604 -8.0991875886774309 0 0 1 0 0 0 1 forward_v I I I I #
face $-1 $48 $49 $17 $-1 $50 reversed single #
loop $-1 $-1 $51 $22 #
plane-surface $-1 19.818912810141512 18.173992259809133 119.75221907218618 0 -1 0 -0.55919291073839883 0 -0.82903756765294845 forward_v I I I I #
face $-1 $52 $53 $18 $-1 $54 forward single #
loop $-1 $55 $56 $23 #
cone-surface $-1 36.622265873297344 10.671269702796945 3.828548633824159 -0.55919291073839883 0 -0.82903756765294845 0.82903756765294845 0 -0.55919291073839883 1 I I 0 1 1 forward I I I I #
face $-1 $57 $58 $19 $-1 $59 forward single #
loop $-1 $60 $61 $24 #
cone-surface $-1 36.622265873297344 15.172903237004256 3.828548633824159 -0.55919291073839883 0 -0.82903756765294845 0.82903756765294845 0 -0.55919291073839883 1 I I 0 1 1 forward I I I I #
face $-1 $62 $63 $15 $-1 $64 reversed single #
loop $-1 $-1 $65 $25 #
plane-surface $-1 0 0 -8.4379198968423914 0 0 1 1 0 0 forward_v I I I I #
coedge $-1 $66 $67 $68 $69 forward $26 $-1 #
face $-1 $70 $71 $16 $-1 $72 reversed single #
loop $-1 $-1 $73 $28 #
plane-surface $-1 -40.106309906107604 -3.4175545032996411 0 0 -1 0 0 0 -1 forward_v I I I I #
coedge $-1 $74 $75 $76 $77 reversed $29 $-1 #
face $-1 $78 $79 $17 $-1 $80 reversed single #
loop $-1 $-1 $81 $31 #
plane-surface $-1 -28.333762654181314 12.922086469900599 48.362943249268028 0.55919291073839883 0 0.82903756765294845 0.82903756765294845 0 -0.55919291073839883 forward_v I I I I #
coedge $-1 $82 $83 $84 $85 reversed $32 $-1 #
face $-1 $-1 $86 $18 $-1 $87 forward single #
loop $-1 $88 $89 $34 #
cone-surface $-1 36.008419948958689 10.671269702796945 2.9184846429280533 -0.55919291073839883 0 -0.82903756765294845 0.41451878382647422 0 -0.27959645536919941 1 I I -0.70710678118654746 0.70710678118654746 0.5 forward I I I I #
loop $-1 $-1 $90 $23 #
coedge $-1 $56 $56 $91 $92 reversed $35 $-1 #
face $-1 $-1 $93 $19 $-1 $94 forward single #
loop $-1 $95 $96 $37 #
cone-surface $-1 36.008419948958689 15.172903237004256 2.9184846429280533 -0.55919291073839883 0 -0.82903756765294845 0.41451878382647422 0 -0.27959645536919941 1 I I -0.70710678118654746 0.70710678118654746 0.5 forward I I I I #
loop $-1 $-1 $97 $24 #
coedge $-1 $61 $61 $98 $99 reversed $38 $-1 #
face $-1 $100 $101 $15 $-1 $102 reversed single #
loop $-1 $-1 $103 $40 #
plane-surface $-1 0 -20.293394296984424 0 0 1 0 0 0 1 forward_v I I I I #
coedge $-1 $104 $105 $106 $107 forward $41 $-1 #
coedge $-1 $108 $43 $109 $110 forward $26 $-1 #
coedge $-1 $43 $108 $111 $112 forward $26 $-1 #
coedge $-1 $113 $114 $43 $69 reversed $115 $-1 #
edge $-1 $116 -20.293394296984424 $117 20.293394296984424 $68 $118 forward 7 unknown #
face $-1 $119 $120 $16 $-1 $121 reversed single #
loop $-1 $-1 $122 $44 #
plane-surface $-1 -37.157106643478372 -5.758371045988536 0 -1 0 0 0 0 1 forward_v I I I I #
coedge $-1 $123 $124 $125 $126 forward $45 $-1 #
coedge $-1 $127 $47 $128 $129 reversed $29 $-1 #
coedge $-1 $47 $127 $130 $131 reversed $29 $-1 #
coedge $-1 $132 $133 $47 $77 forward $134 $-1 #
edge $-1 $135 -8.4379198968423914 $136 8.4379198968423914 $76 $137 forward 7 unknown #
face $-1 $138 $139 $17 $-1 $140 reversed single #
loop $-1 $-1 $141 $48 #
plane-surface $-1 19.818912810141512 7.6701806799920664 119.75221907218618 0 1 0 0.55919291073839883 0 0.82903756765294845 forward_v I I I I #
coedge $-1 $142 $143 $144 $145 reversed $49 $-1 #
coedge $-1 $83 $51 $146 $147 reversed $32 $-1 #
coedge $-1 $51 $82 $142 $148 reversed $32 $-1 #
coedge $-1 $144 $149 $51 $85 forward $150 $-1 #
edge $-1 $151 -33.146056763666081 $152 -20.948061110726023 $84 $153 forward 7 unknown #
loop $-1 $-1 $91 $52 #
plane-surface $-1 -28.333762654181314 12.922086469900599 48.362943249268028 0.55919291073839883 0 0.82903756765294845 0.82903756765294845 0 -0.55919291073839883 forward_v I I I I #
loop $-1 $-1 $154 $34 #
coedge $-1 $89 $89 $90 $155 reversed $53 $-1 #
coedge $-1 $90 $90 $89 $155 forward $55 $-1 #
coedge $-1 $91 $91 $56 $92 forward $86 $-1 #
edge $-1 $156 0 $156 6.2831853071796004 $91 $157 forward 7 unknown #
loop $-1 $-1 $98 $57 #
plane-surface $-1 -28.333762654181314 12.922086469900599 48.362943249268028 0.55919291073839883 0 0.82903756765294845 0.82903756765294845 0 -0.55919291073839883 forward_v I I I I #
loop $-1 $-1 $158 $37 #
coedge $-1 $96 $96 $97 $159 reversed $58 $-1 #
coedge $-1 $97 $97 $96 $159 forward $60 $-1 #
coedge $-1 $98 $98 $61 $99 forward $93 $-1 #
edge $-1 $160 0 $160 6.2831853071796004 $98 $161 forward 7 unknown #
face $-1 $162 $163 $15 $-1 $164 reversed single #
loop $-1 $-1 $165 $62 #
plane-surface $-1 -43.055513168736837 0 0 1 0 0 0 0 -1 forward_v I I I I #
coedge $-1 $166 $111 $167 $168 forward $63 $-1 #
coedge $-1 $169 $65 $166 $170 forward $41 $-1 #
coedge $-1 $65 $169 $171 $172 forward $41 $-1 #
coedge $-1 $114 $113 $65 $107 reversed $115 $-1 #
edge $-1 $173 -20.293394296984424 $174 20.293394296984424 $106 $175 forward 7 unknown #
coedge $-1 $67 $66 $176 $177 forward $26 $-1 #
coedge $-1 $178 $179 $66 $110 reversed $163 $-1 #
edge $-1 $117 -43.055513168736837 $180 43.055513168736837 $109 $181 forward 7 unknown #
coedge $-1 $103 $182 $67 $112 reversed $63 $-1 #
edge $-1 $183 -43.055513168736837 $116 43.055513168736837 $111 $184 forward 7 unknown #
coedge $-1 $106 $68 $182 $185 forward $115 $-1 #
coedge $-1 $68 $106 $178 $186 reversed $115 $-1 #
loop $-1 $-1 $113 $162 #
vertex $-1 $69 $187 #
vertex $-1 $69 $188 #
straight-curve $-1 43.055513168736837 0 8.4379198968423914 0 1 0 I I #
face $-1 $189 $190 $16 $-1 $191 forward single #
loop $-1 $-1 $192 $70 #
plane-surface $-1 0 0 -8.4379198968423914 0 0 1 1 0 0 forward_v I I I I #
coedge $-1 $193 $194 $127 $195 forward $71 $-1 #
coedge $-1 $196 $73 $192 $197 reversed $45 $-1 #
coedge $-1 $73 $196 $198 $199 reversed $45 $-1 #
coedge $-1 $194 $193 $73 $126 reversed $71 $-1 #
edge $-1 $200 -8.4379198968423914 $201 8.4379198968423914 $125 $202 forward 7 unknown #
coedge $-1 $75 $74 $122 $195 reversed $29 $-1 #
coedge $-1 $203 $204 $74 $129 forward $120 $-1 #
edge $-1 $205 17.103951690424569 $135 23.002358215683035 $128 $206 forward 7 unknown #
coedge $-1 $207 $208 $75 $131 forward $190 $-1 #
edge $-1 $136 -23.002358215683035 $209 -17.103951690424569 $130 $210 forward 7 unknown #
coedge $-1 $211 $76 $208 $212 reversed $134 $-1 #
coedge $-1 $76 $211 $203 $213 reversed $134 $-1 #
loop $-1 $-1 $211 $189 #
vertex $-1 $213 $214 #
vertex $-1 $77 $215 #
straight-curve $-1 -43.055513168736837 -8.0991875886774309 0 0 0 1 I I #
face $-1 $-1 $150 $17 $-1 $216 forward single #
loop $-1 $-1 $217 $78 #
plane-surface $-1 43.055513168736837 0 0 -1 0 0 0 0 1 forward_v I I I I #
coedge $-1 $218 $219 $220 $221 reversed $79 $-1 #
coedge $-1 $222 $81 $83 $148 forward $49 $-1 #
coedge $-1 $81 $222 $218 $223 forward $49 $-1 #
coedge $-1 $220 $84 $81 $145 forward $150 $-1 #
edge $-1 $152 -11.712949024858833 $224 -1.2091374450417671 $144 $225 forward 7 unknown #
coedge $-1 $226 $227 $82 $147 forward $139 $-1 #
edge $-1 $228 -59.66584175114788 $151 -51.438189639250695 $146 $229 forward 7 unknown #
edge $-1 $152 71.39758495812427 $228 86.11102633747366 $83 $230 forward 7 unknown #
coedge $-1 $84 $220 $226 $231 forward $150 $-1 #
loop $-1 $-1 $220 $138 #
vertex $-1 $147 $232 #
vertex $-1 $85 $233 #
straight-curve $-1 9.9094564050707561 18.173992259809133 8.4379198968423879 -1 0 0 I I #
coedge $-1 $154 $154 $-1 $234 reversed $88 $-1 #
edge $-1 $235 0 $235 6.2831853071796004 $89 $236 forward 7 unknown #
vertex $-1 $92 $237 #
ellipse-curve $-1 36.956515342266812 10.671269702796945 4.3240938408938066 0.55919291073839883 0 0.82903756765294845 0.82903756765294845 0 -0.55919291073839883 1 I I #
coedge $-1 $158 $158 $-1 $238 reversed $95 $-1 #
edge $-1 $239 0 $239 6.2831853071796004 $96 $240 forward 7 unknown #
vertex $-1 $99 $241 #
ellipse-curve $-1 36.956515342266812 15.172903237004256 4.3240938408938066 0.55919291073839883 0 0.82903756765294845 0.82903756765294845 0 -0.55919291073839883 1 I I #
face $-1 $-1 $115 $15 $-1 $242 reversed single #
loop $-1 $-1 $178 $100 #
plane-surface $-1 0 20.293394296984424 0 0 -1 0 0 0 -1 forward_v I I I I #
coedge $-1 $243 $176 $179 $244 forward $101 $-1 #
coedge $-1 $182 $103 $104 $170 reversed $63 $-1 #
coedge $-1 $176 $243 $103 $168 reversed $101 $-1 #
edge $-1 $183 -8.4379198968423914 $245 8.4379198968423914 $167 $246 forward 7 unknown #
coedge $-1 $105 $104 $243 $247 forward $41 $-1 #
edge $-1 $174 -43.055513168736837 $245 43.055513168736837 $166 $248 forward 7 unknown #
coedge $-1 $179 $178 $105 $172 reversed $163 $-1 #
edge $-1 $249 -43.055513168736837 $173 43.055513168736837 $171 $250 forward 7 unknown #
vertex $-1 $107 $251 #
vertex $-1 $185 $252 #
straight-curve $-1 43.055513168736837 0 -8.4379198968423914 0 -1 0 I I #
coedge $-1 $165 $167 $108 $177 reversed $101 $-1 #
edge $-1 $180 -20.293394296984424 $183 20.293394296984424 $176 $253 forward 7 unknown #
coedge $-1 $171 $109 $114 $186 forward $163 $-1 #
coedge $-1 $109 $171 $165 $244 reversed $163 $-1 #
vertex $-1 $110 $254 #
straight-curve $-1 0 20.293394296984424 8.4379198968423914 -1 0 0 I I #
coedge $-1 $111 $166 $113 $185 reversed $63 $-1 #
vertex $-1 $177 $255 #
straight-curve $-1 0 -20.293394296984424 8.4379198968423914 1 0 0 I I #
edge $-1 $116 -8.4379198968423914 $174 8.4379198968423914 $113 $256 forward 7 unknown #
edge $-1 $117 -8.4379198968423914 $173 8.4379198968423914 $114 $257 forward 7 unknown #
point $-1 43.055513168736837 -20.293394296984424 8.4379198968423914 #
point $-1 43.055513168736837 20.293394296984424 8.4379198968423914 #
face $-1 $-1 $134 $16 $-1 $258 reversed single #
loop $-1 $-1 $198 $119 #
plane-surface $-1 0 0 8.4379198968423914 0 0 1 1 0 0 forward_v I I I I #
coedge $-1 $204 $203 $123 $197 forward $120 $-1 #
coedge $-1 $125 $122 $204 $259 reversed $71 $-1 #
coedge $-1 $122 $125 $207 $260 reversed $71 $-1 #
edge $-1 $209 -8.4379198968423914 $205 8.4379198968423914 $122 $261 forward 7 unknown #
coedge $-1 $124 $123 $211 $262 reversed $45 $-1 #
edge $-1 $263 -23.002358215683035 $201 -17.103951690424569 $192 $264 forward 7 unknown #
coedge $-1 $208 $207 $124 $199 forward $190 $-1 #
edge $-1 $200 17.103951690424569 $265 23.002358215683035 $198 $266 forward 7 unknown #
vertex $-1 $199 $267 #
vertex $-1 $197 $268 #
straight-curve $-1 -37.157106643478372 -3.4175545032996411 0 0 0 -1 I I #
coedge $-1 $192 $128 $133 $213 forward $120 $-1 #
coedge $-1 $128 $192 $193 $259 forward $120 $-1 #
vertex $-1 $129 $269 #
straight-curve $-1 -20.053154953053802 -8.0991875886774309 -8.4379198968423914 -1 0 0 I I #
coedge $-1 $198 $130 $194 $260 forward $190 $-1 #
coedge $-1 $130 $198 $132 $212 forward $190 $-1 #
vertex $-1 $131 $270 #
straight-curve $-1 -20.053154953053802 -8.0991875886774309 8.4379198968423914 1 0 0 I I #
coedge $-1 $133 $132 $196 $262 forward $134 $-1 #
edge $-1 $265 3.4175545032996411 $136 8.0991875886774309 $132 $271 forward 7 unknown #
edge $-1 $135 -8.0991875886774309 $263 -3.4175545032996411 $133 $272 forward 7 unknown #
point $-1 -43.055513168736837 -8.0991875886774309 -8.4379198968423914 #
point $-1 -43.055513168736837 -8.0991875886774309 8.4379198968423914 #
plane-surface $-1 0 0 8.4379198968423914 0 0 1 1 0 0 forward_v I I I I #
coedge $-1 $227 $226 $219 $273 forward $139 $-1 #
coedge $-1 $219 $141 $143 $223 reversed $79 $-1 #
coedge $-1 $141 $218 $217 $273 reversed $79 $-1 #
coedge $-1 $149 $144 $141 $221 forward $150 $-1 #
edge $-1 $224 20.948061110726023 $274 33.146056763666081 $220 $275 forward 7 unknown #
coedge $-1 $143 $142 $227 $276 reversed $49 $-1 #
edge $-1 $277 -86.11102633747366 $224 -71.39758495812427 $218 $278 forward 7 unknown #
vertex $-1 $145 $279 #
straight-curve $-1 30.857517515796786 6.4610432349502993 8.4379198968423879 0 -1 0 I I #
coedge $-1 $217 $146 $149 $231 reversed $139 $-1 #
coedge $-1 $146 $217 $222 $276 forward $139 $-1 #
vertex $-1 $147 $280 #
straight-curve $-1 43.055513168736837 18.173992259809133 59.87610953609309 0 0 1 I I #
straight-curve $-1 -28.333762654181314 18.173992259809133 48.362943249268028 0.82903756765294845 0 -0.55919291073839883 I I #
edge $-1 $274 7.6701806799920664 $151 18.173992259809133 $226 $281 forward 7 unknown #
point $-1 43.055513168736837 18.173992259809133 8.4379198968423914 #
point $-1 30.857517515796779 18.173992259809133 8.4379198968423879 #
edge $-1 $282 1 $282 0 $154 $-1 forward 7 unknown #
vertex $-1 $155 $283 #
ellipse-curve $-1 36.288016404327891 10.671269702796945 3.3330034267545274 0.55919291073839883 0 0.82903756765294845 0.82903756765294845 0 -0.55919291073839883 1 I I #
point $-1 37.785552909919758 10.671269702796945 3.7649009301553926 #
edge $-1 $284 1 $284 0 $158 $-1 forward 7 unknown #
vertex $-1 $159 $285 #
ellipse-curve $-1 36.288016404327891 15.172903237004256 3.3330034267545274 0.55919291073839883 0 0.82903756765294845 0.82903756765294845 0 -0.55919291073839883 1 I I #
point $-1 37.785552909919758 15.172903237004256 3.7649009301553926 #
plane-surface $-1 43.055513168736837 0 0 -1 0 0 0 0 1 forward_v I I I I #
coedge $-1 $167 $165 $169 $247 reversed $101 $-1 #
edge $-1 $180 -8.4379198968423914 $249 8.4379198968423914 $179 $286 forward 7 unknown #
vertex $-1 $247 $287 #
straight-curve $-1 -43.055513168736837 -20.293394296984424 0 0 0 -1 I I #
edge $-1 $245 -20.293394296984424 $249 20.293394296984424 $243 $288 forward 7 unknown #
straight-curve $-1 0 -20.293394296984424 -8.4379198968423914 -1 0 0 I I #
vertex $-1 $172 $289 #
straight-curve $-1 0 20.293394296984424 -8.4379198968423914 1 0 0 I I #
point $-1 43.055513168736837 20.293394296984424 -8.4379198968423914 #
point $-1 43.055513168736837 -20.293394296984424 -8.4379198968423914 #
straight-curve $-1 -43.055513168736837 0 8.4379198968423914 0 -1 0 I I #
point $-1 -43.055513168736837 20.293394296984424 8.4379198968423914 #
point $-1 -43.055513168736837 -20.293394296984424 8.4379198968423914 #
straight-curve $-1 43.055513168736837 -20.293394296984424 0 0 0 -1 I I #
straight-curve $-1 43.055513168736837 20.293394296984424 0 0 0 -1 I I #
plane-surface $-1 -43.055513168736837 0 0 1 0 0 0 0 -1 forward_v I I I I #
edge $-1 $201 0.53836898030537306 $205 5.2200020656831629 $204 $290 forward 7 unknown #
edge $-1 $209 -5.2200020656831629 $200 -0.53836898030537306 $207 $291 forward 7 unknown #
straight-curve $-1 -37.157106643478372 -8.0991875886774309 0 0 0 -1 I I #
edge $-1 $265 -8.4379198968423914 $263 8.4379198968423914 $211 $292 forward 7 unknown #
vertex $-1 $262 $293 #
straight-curve $-1 -20.053154953053802 -3.4175545032996411 -8.4379198968423914 1 0 0 I I #
vertex $-1 $212 $294 #
straight-curve $-1 -20.053154953053802 -3.4175545032996411 8.4379198968423914 -1 0 0 I I #
point $-1 -37.157106643478372 -3.4175545032996411 8.4379198968423914 #
point $-1 -37.157106643478372 -3.4175545032996411 -8.4379198968423914 #
point $-1 -37.157106643478372 -8.0991875886774309 -8.4379198968423914 #
point $-1 -37.157106643478372 -8.0991875886774309 8.4379198968423914 #
straight-curve $-1 -43.055513168736837 0 8.4379198968423914 0 -1 0 I I #
straight-curve $-1 -43.055513168736837 0 -8.4379198968423914 0 1 0 I I #
edge $-1 $274 51.438189639250695 $277 59.66584175114788 $217 $295 forward 7 unknown #
vertex $-1 $231 $296 #
straight-curve $-1 9.9094564050707561 7.6701806799920664 8.4379198968423879 1 0 0 I I #
edge $-1 $277 1.2091374450417671 $228 11.712949024858833 $227 $297 forward 7 unknown #
vertex $-1 $276 $298 #
straight-curve $-1 -28.333762654181314 7.6701806799920664 48.362943249268028 -0.82903756765294845 0 0.55919291073839883 I I #
point $-1 30.857517515796779 7.6701806799920664 8.4379198968423879 #
point $-1 43.055513168736837 18.173992259809133 0.21026778494520926 #
straight-curve $-1 43.055513168736837 0 8.4379198968423914 0 1 0 I I #
vertex $-1 $234 $299 #
point $-1 37.117053971980837 10.671269702796945 2.7738105160161286 #
vertex $-1 $238 $300 #
point $-1 37.117053971980837 15.172903237004256 2.7738105160161286 #
straight-curve $-1 -43.055513168736837 20.293394296984424 0 0 0 -1 I I #
point $-1 -43.055513168736837 -20.293394296984424 -8.4379198968423914 #
straight-curve $-1 -43.055513168736837 0 -8.4379198968423914 0 1 0 I I #
point $-1 -43.055513168736837 20.293394296984424 -8.4379198968423914 #
straight-curve $-1 -37.157106643478372 -2.879185522994268 -8.4379198968423914 0 -1 0 I I #
straight-curve $-1 -37.157106643478372 -2.879185522994268 8.4379198968423914 0 1 0 I I #
straight-curve $-1 -43.055513168736837 -3.4175545032996411 0 0 0 -1 I I #
point $-1 -43.055513168736837 -3.4175545032996411 -8.4379198968423914 #
point $-1 -43.055513168736837 -3.4175545032996411 8.4379198968423914 #
straight-curve $-1 43.055513168736837 7.6701806799920664 59.87610953609309 0 0 -1 I I #
point $-1 43.055513168736837 7.6701806799920664 8.4379198968423914 #
straight-curve $-1 43.055513168736837 6.4610432349502993 0.2102677849452057 0 1 0 I I #
point $-1 43.055513168736837 7.6701806799920664 0.21026778494520926 #
point $-1 35.728823493589488 10.671269702796945 2.5039658591015792 #
point $-1 35.728823493589488 15.172903237004256 2.5039658591015792 #
End-of-ACIS-data 