500 0 8 0           
7 Unknown 11 ACIS 5.0 NT 24 Thu Mar 25 22:46:52 1999 
-1 9.9999999999999995e-007 1e-010 
body $-1 $8 $-1 $9 #
body $-1 $10 $-1 $11 #
body $-1 $12 $-1 $13 #
body $-1 $14 $-1 $15 #
body $-1 $16 $-1 $17 #
body $-1 $18 $-1 $19 #
body $-1 $20 $-1 $21 #
body $-1 $22 $-1 $23 #
lump $-1 $-1 $24 $0 #
transform $-1 1 0 0 0 1 0 0 0 1 40.98635822626423 19.475743773270569 5.3918929781060614 1 rotate no_reflect no_shear #
lump $-1 $-1 $25 $1 #
transform $-1 1 0 0 0 1 0 0 0 1 40.98635822626423 19.475743773270569 5.3918929781060614 1 rotate no_reflect no_shear #
lump $-1 $-1 $26 $2 #
transform $-1 1 0 0 0 1 0 0 0 1 40.98635822626423 19.475743773270569 5.3918929781060614 1 rotate no_reflect no_shear #
lump $-1 $-1 $27 $3 #
transform $-1 1 0 0 0 1 0 0 0 1 40.98635822626423 19.475743773270569 5.3918929781060614 1 rotate no_reflect no_shear #
lump $-1 $-1 $28 $4 #
transform $-1 1 0 0 0 1 0 0 0 1 40.98635822626423 19.475743773270569 5.3918929781060614 1 rotate no_reflect no_shear #
lump $-1 $-1 $29 $5 #
transform $-1 1 0 0 0 1 0 0 0 1 40.98635822626423 19.475743773270569 5.3918929781060614 1 rotate no_reflect no_shear #
lump $-1 $-1 $30 $6 #
transform $-1 1 0 0 0 1 0 0 0 1 40.98635822626423 19.475743773270569 5.3918929781060614 1 rotate no_reflect no_shear #
lump $-1 $-1 $31 $7 #
transform $-1 1 0 0 0 1 0 0 0 1 40.98635822626423 19.475743773270569 5.3918929781060614 1 rotate no_reflect no_shear #
shell $-1 $-1 $-1 $32 $-1 $8 #
shell $-1 $-1 $-1 $33 $-1 $10 #
shell $-1 $-1 $-1 $34 $-1 $12 #
shell $-1 $-1 $-1 $35 $-1 $14 #
shell $-1 $-1 $-1 $36 $-1 $16 #
shell $-1 $-1 $-1 $37 $-1 $18 #
shell $-1 $-1 $-1 $38 $-1 $20 #
shell $-1 $-1 $-1 $39 $-1 $22 #
face $-1 $40 $41 $24 $-1 $42 forward single #
face $-1 $43 $44 $25 $-1 $45 reversed single #
face $-1 $46 $47 $26 $-1 $48 reversed single #
face $-1 $49 $50 $27 $-1 $51 forward single #
face $-1 $52 $53 $28 $-1 $54 forward single #
face $-1 $55 $56 $29 $-1 $57 reversed single #
face $-1 $58 $59 $30 $-1 $60 forward single #
face $-1 $61 $62 $31 $-1 $63 forward single #
face $-1 $64 $65 $24 $-1 $66 reversed single #
loop $-1 $-1 $67 $32 #
plane-surface $-1 0 0 5.3918929781060614 0 0 1 1 0 0 forward_v I I I I #
face $-1 $68 $69 $25 $-1 $70 reversed single #
loop $-1 $-1 $71 $33 #
plane-surface $-1 -33.202572270052109 -16.855004375703288 0 1 0 0 0 0 -1 forward_v I I I I #
face $-1 $72 $73 $26 $-1 $74 reversed single #
loop $-1 $-1 $75 $34 #
plane-surface $-1 51.09005717286901 11.889387769361669 116.89397555492502 0 1 0 0.7660444514056185 0 0.64278759981090561 forward_v I I I I #
face $-1 $76 $77 $27 $-1 $78 forward single #
loop $-1 $79 $80 $35 #
cone-surface $-1 38.819124031251732 14.056918056192789 2.983954464593443 -0.7660444514056185 0 -0.64278759981090561 0.64278759981090561 0 -0.7660444514056185 1 I I 0 1 1 forward I I I I #
face $-1 $81 $82 $28 $-1 $83 forward single #
loop $-1 $84 $85 $36 #
cone-surface $-1 38.819124031251732 17.30821348643946 2.983954464593443 -0.7660444514056185 0 -0.64278759981090561 0.64278759981090561 0 -0.7660444514056185 1 I I 0 1 1 forward I I I I #
face $-1 $86 $87 $29 $-1 $88 reversed single #
loop $-1 $-1 $89 $37 #
plane-surface $-1 -103.78110283136971 11.889387769361669 54.099230949819521 0 1 0 -0.7660444514056185 0 0.64278759981090561 forward_v I I I I #
face $-1 $90 $91 $30 $-1 $92 forward single #
loop $-1 $93 $94 $38 #
cone-surface $-1 -38.819124031251732 14.056918056192789 2.9839544645934457 0.7660444514056185 0 -0.64278759981090561 0.64278759981090561 0 0.7660444514056185 1 I I 0 1 1 forward I I I I #
face $-1 $95 $96 $31 $-1 $97 forward single #
loop $-1 $98 $99 $39 #
cone-surface $-1 -38.819124031251732 17.30821348643946 2.9839544645934457 0.7660444514056185 0 -0.64278759981090561 0.64278759981090561 0 0.7660444514056185 1 I I 0 1 1 forward I I I I #
face $-1 $100 $101 $24 $-1 $102 reversed single #
loop $-1 $-1 $103 $40 #
plane-surface $-1 0 0 -5.3918929781060614 0 0 1 1 0 0 forward_v I I I I #
coedge $-1 $104 $105 $106 $107 forward $41 $-1 #
face $-1 $108 $109 $25 $-1 $110 reversed single #
loop $-1 $-1 $111 $43 #
plane-surface $-1 -31.702572270052109 -14.234264978136007 0 0 -1 0 0 0 -1 forward_v I I I I #
coedge $-1 $112 $113 $114 $115 forward $44 $-1 #
face $-1 $116 $117 $26 $-1 $118 reversed single #
loop $-1 $-1 $119 $46 #
plane-surface $-1 -11.704687432236469 15.682565771316117 64.202929896424322 0.7660444514056185 0 0.64278759981090561 0.64278759981090561 0 -0.7660444514056185 forward_v I I I I #
coedge $-1 $120 $121 $122 $123 reversed $47 $-1 #
face $-1 $-1 $124 $27 $-1 $125 forward single #
loop $-1 $126 $127 $49 #
cone-surface $-1 37.940231392128752 14.056918056192789 2.2464759945689918 -0.7660444514056185 0 -0.64278759981090561 0.3213937999054528 0 -0.38302222570280925 1 I I -0.70710678118654746 0.70710678118654746 0.5 forward I I I I #
loop $-1 $-1 $128 $35 #
coedge $-1 $80 $80 $129 $130 reversed $50 $-1 #
face $-1 $-1 $131 $28 $-1 $132 forward single #
loop $-1 $133 $134 $52 #
cone-surface $-1 37.940231392128752 17.30821348643946 2.2464759945689918 -0.7660444514056185 0 -0.64278759981090561 0.3213937999054528 0 -0.38302222570280925 1 I I -0.70710678118654746 0.70710678118654746 0.5 forward I I I I #
loop $-1 $-1 $135 $36 #
coedge $-1 $85 $85 $136 $137 reversed $53 $-1 #
face $-1 $138 $139 $29 $-1 $140 forward single #
loop $-1 $-1 $141 $55 #
plane-surface $-1 -40.98635822626423 15.682565771316117 1.4081852913188229 -0.7660444514056185 0 0.64278759981090561 0.64278759981090561 0 0.7660444514056185 forward_v I I I I #
coedge $-1 $142 $143 $144 $145 reversed $56 $-1 #
face $-1 $-1 $146 $30 $-1 $147 forward single #
loop $-1 $148 $149 $58 #
cone-surface $-1 -37.940231392128752 14.056918056192789 2.2464759945689945 0.7660444514056185 0 -0.64278759981090561 0.3213937999054528 0 0.38302222570280925 1 I I -0.70710678118654746 0.70710678118654746 0.5 forward I I I I #
loop $-1 $-1 $150 $38 #
coedge $-1 $94 $94 $151 $152 reversed $59 $-1 #
face $-1 $-1 $153 $31 $-1 $154 forward single #
loop $-1 $155 $156 $61 #
cone-surface $-1 -37.940231392128752 17.30821348643946 2.2464759945689945 0.7660444514056185 0 -0.64278759981090561 0.3213937999054528 0 0.38302222570280925 1 I I -0.70710678118654746 0.70710678118654746 0.5 forward I I I I #
loop $-1 $-1 $157 $39 #
coedge $-1 $99 $99 $158 $159 reversed $62 $-1 #
face $-1 $160 $161 $24 $-1 $162 reversed single #
loop $-1 $-1 $163 $64 #
plane-surface $-1 0 -19.475743773270569 0 0 1 0 0 0 1 forward_v I I I I #
coedge $-1 $164 $165 $166 $167 forward $65 $-1 #
coedge $-1 $168 $67 $169 $170 forward $41 $-1 #
coedge $-1 $67 $168 $171 $172 forward $41 $-1 #
coedge $-1 $173 $174 $67 $107 reversed $175 $-1 #
edge $-1 $176 -19.475743773270569 $177 19.475743773270569 $106 $178 forward 7 unknown #
face $-1 $179 $180 $25 $-1 $181 forward single #
loop $-1 $-1 $182 $68 #
plane-surface $-1 -30.202572270052109 -16.855004375703288 0 -1 0 0 0 0 1 forward_v I I I I #
coedge $-1 $183 $184 $185 $186 forward $69 $-1 #
coedge $-1 $187 $71 $188 $189 reversed $44 $-1 #
coedge $-1 $71 $187 $190 $191 reversed $44 $-1 #
coedge $-1 $184 $183 $71 $115 reversed $69 $-1 #
edge $-1 $192 -5.3918929781060614 $193 5.3918929781060614 $114 $194 forward 7 unknown #
face $-1 $195 $196 $26 $-1 $197 reversed single #
loop $-1 $-1 $122 $72 #
plane-surface $-1 40.98635822626423 0 0 -1 0 0 0 0 1 forward_v I I I I #
coedge $-1 $198 $199 $200 $201 reversed $73 $-1 #
coedge $-1 $121 $75 $202 $203 reversed $47 $-1 #
coedge $-1 $75 $120 $198 $204 reversed $47 $-1 #
coedge $-1 $200 $205 $75 $123 forward $117 $-1 #
edge $-1 $206 53.055094799356446 $207 57.038802486143666 $122 $208 forward 7 unknown #
loop $-1 $-1 $129 $76 #
plane-surface $-1 -11.704687432236469 15.682565771316117 64.202929896424322 0.7660444514056185 0 0.64278759981090561 0.64278759981090561 0 -0.7660444514056185 forward_v I I I I #
loop $-1 $-1 $209 $49 #
coedge $-1 $127 $127 $128 $210 reversed $77 $-1 #
coedge $-1 $128 $128 $127 $210 forward $79 $-1 #
coedge $-1 $129 $129 $80 $130 forward $124 $-1 #
edge $-1 $211 0 $211 6.2831853071796004 $129 $212 forward 7 unknown #
loop $-1 $-1 $136 $81 #
plane-surface $-1 -11.704687432236469 15.682565771316117 64.202929896424322 0.7660444514056185 0 0.64278759981090561 0.64278759981090561 0 -0.7660444514056185 forward_v I I I I #
loop $-1 $-1 $213 $52 #
coedge $-1 $134 $134 $135 $214 reversed $82 $-1 #
coedge $-1 $135 $135 $134 $214 forward $84 $-1 #
coedge $-1 $136 $136 $85 $137 forward $131 $-1 #
edge $-1 $215 0 $215 6.2831853071796004 $136 $216 forward 7 unknown #
face $-1 $217 $218 $29 $-1 $219 reversed single #
loop $-1 $-1 $144 $86 #
plane-surface $-1 0 0 5.3918929781060614 0 0 1 1 0 0 forward_v I I I I #
coedge $-1 $220 $221 $222 $223 reversed $87 $-1 #
coedge $-1 $143 $89 $224 $225 reversed $56 $-1 #
coedge $-1 $89 $142 $220 $226 reversed $56 $-1 #
coedge $-1 $222 $227 $89 $145 forward $139 $-1 #
edge $-1 $228 10.904193189420624 $229 14.24692075260527 $144 $230 forward 7 unknown #
loop $-1 $-1 $151 $90 #
plane-surface $-1 -40.98635822626423 15.682565771316117 1.4081852913188229 -0.7660444514056185 0 0.64278759981090561 0.64278759981090561 0 0.7660444514056185 forward_v I I I I #
loop $-1 $-1 $231 $58 #
coedge $-1 $149 $149 $150 $232 reversed $91 $-1 #
coedge $-1 $150 $150 $149 $232 forward $93 $-1 #
coedge $-1 $151 $151 $94 $152 forward $146 $-1 #
edge $-1 $233 0 $233 6.2831853071796004 $151 $234 forward 7 unknown #
loop $-1 $-1 $158 $95 #
plane-surface $-1 -40.98635822626423 15.682565771316117 1.4081852913188229 -0.7660444514056185 0 0.64278759981090561 0.64278759981090561 0 0.7660444514056185 forward_v I I I I #
loop $-1 $-1 $235 $61 #
coedge $-1 $156 $156 $157 $236 reversed $96 $-1 #
coedge $-1 $157 $157 $156 $236 forward $98 $-1 #
coedge $-1 $158 $158 $99 $159 forward $153 $-1 #
edge $-1 $237 0 $237 6.2831853071796004 $158 $238 forward 7 unknown #
face $-1 $239 $240 $24 $-1 $241 reversed single #
loop $-1 $-1 $242 $100 #
plane-surface $-1 -40.98635822626423 0 0 1 0 0 0 0 -1 forward_v I I I I #
coedge $-1 $243 $171 $244 $245 forward $101 $-1 #
coedge $-1 $246 $103 $243 $247 forward $65 $-1 #
coedge $-1 $103 $246 $248 $249 forward $65 $-1 #
coedge $-1 $174 $173 $103 $167 reversed $175 $-1 #
edge $-1 $250 -19.475743773270569 $251 19.475743773270569 $166 $252 forward 7 unknown #
coedge $-1 $105 $104 $253 $254 forward $41 $-1 #
coedge $-1 $255 $256 $104 $170 reversed $240 $-1 #
edge $-1 $177 -40.98635822626423 $257 40.98635822626423 $169 $258 forward 7 unknown #
coedge $-1 $163 $259 $105 $172 reversed $101 $-1 #
edge $-1 $260 -40.98635822626423 $176 40.98635822626423 $171 $261 forward 7 unknown #
coedge $-1 $166 $106 $259 $262 forward $175 $-1 #
coedge $-1 $106 $166 $255 $263 reversed $175 $-1 #
loop $-1 $-1 $173 $239 #
vertex $-1 $107 $264 #
vertex $-1 $107 $265 #
straight-curve $-1 40.98635822626423 0 5.3918929781060614 0 1 0 I I #
face $-1 $266 $267 $25 $-1 $268 reversed single #
loop $-1 $-1 $269 $108 #
plane-surface $-1 0 0 5.3918929781060614 0 0 1 1 0 0 forward_v I I I I #
coedge $-1 $270 $271 $272 $273 reversed $109 $-1 #
coedge $-1 $114 $111 $274 $275 reversed $69 $-1 #
coedge $-1 $111 $114 $276 $277 reversed $69 $-1 #
coedge $-1 $271 $270 $111 $186 reversed $109 $-1 #
edge $-1 $278 -5.3918929781060614 $279 5.3918929781060614 $185 $280 forward 7 unknown #
coedge $-1 $113 $112 $281 $282 reversed $44 $-1 #
coedge $-1 $274 $283 $112 $189 forward $267 $-1 #
edge $-1 $284 -11.048241585418925 $193 -5.8067627902843633 $188 $285 forward 7 unknown #
coedge $-1 $286 $276 $113 $191 forward $180 $-1 #
edge $-1 $192 5.8067627902843633 $287 11.048241585418925 $190 $288 forward 7 unknown #
vertex $-1 $191 $289 #
vertex $-1 $189 $290 #
straight-curve $-1 -33.202572270052109 -14.234264978136007 0 0 0 -1 I I #
face $-1 $-1 $291 $26 $-1 $292 forward single #
loop $-1 $-1 $293 $116 #
plane-surface $-1 0 19.475743773270569 0 0 -1 0 0 0 -1 forward_v I I I I #
coedge $-1 $294 $119 $121 $204 forward $73 $-1 #
coedge $-1 $119 $294 $293 $295 reversed $73 $-1 #
coedge $-1 $296 $122 $119 $201 forward $117 $-1 #
edge $-1 $207 4.0481048837036102 $297 11.63446088761251 $200 $298 forward 7 unknown #
coedge $-1 $299 $300 $120 $203 forward $291 $-1 #
edge $-1 $301 12.098602076645093 $206 15.441329639829725 $202 $302 forward 7 unknown #
edge $-1 $207 -81.972716452528473 $301 -76.772355455882007 $121 $303 forward 7 unknown #
coedge $-1 $122 $296 $299 $304 reversed $117 $-1 #
vertex $-1 $304 $305 #
vertex $-1 $123 $306 #
straight-curve $-1 40.98635822626423 11.889387769361669 58.44698777746251 0 0 -1 I I #
coedge $-1 $209 $209 $-1 $307 reversed $126 $-1 #
edge $-1 $308 0 $308 6.2831853071796004 $127 $309 forward 7 unknown #
vertex $-1 $130 $310 #
ellipse-curve $-1 39.314994444671918 14.056918056192789 3.4000391347124479 0.7660444514056185 0 0.64278759981090561 0.64278759981090561 0 -0.7660444514056185 1 I I #
coedge $-1 $213 $213 $-1 $311 reversed $133 $-1 #
edge $-1 $312 0 $312 6.2831853071796004 $134 $313 forward 7 unknown #
vertex $-1 $137 $314 #
ellipse-curve $-1 39.314994444671918 17.30821348643946 3.4000391347124479 0.7660444514056185 0 0.64278759981090561 0.64278759981090561 0 -0.7660444514056185 1 I I #
face $-1 $-1 $315 $29 $-1 $316 reversed single #
loop $-1 $-1 $317 $138 #
plane-surface $-1 0 19.475743773270569 0 0 -1 0 0 0 -1 forward_v I I I I #
coedge $-1 $318 $141 $143 $226 forward $87 $-1 #
coedge $-1 $141 $318 $317 $319 reversed $87 $-1 #
coedge $-1 $320 $144 $141 $223 forward $139 $-1 #
edge $-1 $229 4.0481048837036102 $321 11.634460887612507 $222 $322 forward 7 unknown #
coedge $-1 $323 $324 $142 $225 forward $315 $-1 #
edge $-1 $325 -25.641430183590938 $228 -21.6577224968037 $224 $326 forward 7 unknown #
edge $-1 $229 -5.2003609966464923 $325 0 $143 $327 forward 7 unknown #
coedge $-1 $144 $320 $323 $328 forward $139 $-1 #
vertex $-1 $225 $329 #
vertex $-1 $145 $330 #
straight-curve $-1 -51.890551415684854 11.889387769361669 5.3918929781060605 1 0 0 I I #
coedge $-1 $231 $231 $-1 $331 reversed $148 $-1 #
edge $-1 $332 0 $332 6.2831853071796004 $149 $333 forward 7 unknown #
vertex $-1 $152 $334 #
ellipse-curve $-1 -39.314994444671903 14.056918056192789 3.4000391347124421 -0.7660444514056185 0 0.64278759981090561 0.64278759981090561 0 0.7660444514056185 1 I I #
coedge $-1 $235 $235 $-1 $335 reversed $155 $-1 #
edge $-1 $336 0 $336 6.2831853071796004 $156 $337 forward 7 unknown #
vertex $-1 $159 $338 #
ellipse-curve $-1 -39.314994444671903 17.30821348643946 3.4000391347124421 -0.7660444514056185 0 0.64278759981090561 0.64278759981090561 0 0.7660444514056185 1 I I #
face $-1 $-1 $175 $24 $-1 $339 reversed single #
loop $-1 $-1 $255 $160 #
plane-surface $-1 0 19.475743773270569 0 0 -1 0 0 0 -1 forward_v I I I I #
coedge $-1 $340 $253 $256 $341 forward $161 $-1 #
coedge $-1 $259 $163 $164 $247 reversed $101 $-1 #
coedge $-1 $253 $340 $163 $245 reversed $161 $-1 #
edge $-1 $260 -5.3918929781060614 $342 5.3918929781060614 $244 $343 forward 7 unknown #
coedge $-1 $165 $164 $340 $344 forward $65 $-1 #
edge $-1 $251 -40.98635822626423 $342 40.98635822626423 $243 $345 forward 7 unknown #
coedge $-1 $256 $255 $165 $249 reversed $240 $-1 #
edge $-1 $346 -40.98635822626423 $250 40.98635822626423 $248 $347 forward 7 unknown #
vertex $-1 $167 $348 #
vertex $-1 $262 $349 #
straight-curve $-1 40.98635822626423 0 -5.3918929781060614 0 -1 0 I I #
coedge $-1 $242 $244 $168 $254 reversed $161 $-1 #
edge $-1 $257 -19.475743773270569 $260 19.475743773270569 $253 $350 forward 7 unknown #
coedge $-1 $248 $169 $174 $263 forward $240 $-1 #
coedge $-1 $169 $248 $242 $341 reversed $240 $-1 #
vertex $-1 $170 $351 #
straight-curve $-1 0 19.475743773270569 5.3918929781060614 -1 0 0 I I #
coedge $-1 $171 $243 $173 $262 reversed $101 $-1 #
vertex $-1 $254 $352 #
straight-curve $-1 0 -19.475743773270569 5.3918929781060614 1 0 0 I I #
edge $-1 $176 -5.3918929781060614 $251 5.3918929781060614 $173 $353 forward 7 unknown #
edge $-1 $177 -5.3918929781060614 $250 5.3918929781060614 $174 $354 forward 7 unknown #
point $-1 40.98635822626423 -19.475743773270569 5.3918929781060614 #
point $-1 40.98635822626423 19.475743773270569 5.3918929781060614 #
face $-1 $-1 $355 $25 $-1 $356 reversed single #
loop $-1 $-1 $357 $179 #
plane-surface $-1 0 0 -5.3918929781060614 0 0 1 1 0 0 forward_v I I I I #
coedge $-1 $276 $286 $271 $358 forward $180 $-1 #
coedge $-1 $185 $182 $357 $359 reversed $109 $-1 #
coedge $-1 $182 $185 $269 $358 reversed $109 $-1 #
coedge $-1 $360 $361 $182 $273 forward $355 $-1 #
edge $-1 $362 -5.3918929781060614 $363 5.3918929781060614 $272 $364 forward 7 unknown #
coedge $-1 $357 $188 $183 $275 forward $267 $-1 #
edge $-1 $193 -17.351286135026054 $279 -14.351286135026054 $274 $365 forward 7 unknown #
coedge $-1 $190 $269 $184 $277 forward $180 $-1 #
edge $-1 $278 14.351286135026054 $192 17.351286135026054 $276 $366 forward 7 unknown #
vertex $-1 $277 $367 #
vertex $-1 $275 $368 #
straight-curve $-1 -30.202572270052109 -14.234264978136007 0 0 0 -1 I I #
coedge $-1 $361 $360 $187 $282 forward $355 $-1 #
edge $-1 $287 -5.3918929781060614 $284 5.3918929781060614 $281 $369 forward 7 unknown #
coedge $-1 $188 $357 $361 $370 forward $267 $-1 #
vertex $-1 $189 $371 #
straight-curve $-1 -33.202572270052109 -8.4275021878516441 -5.3918929781060614 0 1 0 I I #
coedge $-1 $269 $190 $360 $372 forward $180 $-1 #
vertex $-1 $372 $373 #
straight-curve $-1 -33.202572270052109 -8.4275021878516441 5.3918929781060614 0 -1 0 I I #
point $-1 -33.202572270052109 -14.234264978136007 5.3918929781060614 #
point $-1 -33.202572270052109 -14.234264978136007 -5.3918929781060614 #
loop $-1 $-1 $202 $195 #
plane-surface $-1 0 0 5.3918929781060614 0 0 1 1 0 0 forward_v I I I I #
coedge $-1 $374 $375 $199 $295 forward $196 $-1 #
coedge $-1 $199 $198 $300 $376 reversed $73 $-1 #
edge $-1 $297 -53.6197533764065 $377 -48.419392379760041 $293 $378 forward 7 unknown #
coedge $-1 $205 $200 $375 $379 reversed $117 $-1 #
vertex $-1 $295 $380 #
straight-curve $-1 40.98635822626423 7.8412828856580585 1.4081852913188513 0 1 0 I I #
coedge $-1 $381 $202 $205 $304 forward $291 $-1 #
coedge $-1 $202 $381 $294 $376 forward $291 $-1 #
vertex $-1 $203 $382 #
straight-curve $-1 25.545028586434505 11.889387769361669 5.391892978106064 1 0 0 I I #
straight-curve $-1 -11.704687432236469 11.889387769361669 64.202929896424322 -0.64278759981090561 0 0.7660444514056185 I I #
edge $-1 $206 11.889387769361669 $383 19.475743773270569 $205 $384 forward 7 unknown #
point $-1 40.98635822626423 11.889387769361669 5.3918929781060614 #
point $-1 40.98635822626423 11.889387769361669 1.4081852913188442 #
edge $-1 $385 1 $385 0 $209 $-1 forward 7 unknown #
vertex $-1 $210 $386 #
ellipse-curve $-1 38.323253617831561 14.056918056192789 2.5678697944744444 0.7660444514056185 0 0.64278759981090561 0.64278759981090561 0 -0.7660444514056185 1 I I #
point $-1 39.957782044482819 14.056918056192789 2.6339946833068226 #
edge $-1 $387 1 $387 0 $213 $-1 forward 7 unknown #
vertex $-1 $214 $388 #
ellipse-curve $-1 38.323253617831561 17.30821348643946 2.5678697944744444 0.7660444514056185 0 0.64278759981090561 0.64278759981090561 0 -0.7660444514056185 1 I I #
point $-1 39.957782044482819 17.30821348643946 2.6339946833068226 #
loop $-1 $-1 $224 $217 #
plane-surface $-1 -40.98635822626423 0 0 1 0 0 0 0 -1 forward_v I I I I #
coedge $-1 $389 $390 $221 $319 forward $218 $-1 #
coedge $-1 $221 $220 $324 $391 reversed $87 $-1 #
edge $-1 $321 7.4330341534957913 $392 12.633395150142285 $317 $393 forward 7 unknown #
coedge $-1 $227 $222 $390 $394 forward $139 $-1 #
vertex $-1 $394 $395 #
straight-curve $-1 -37.643630663079577 7.8412828856580585 5.3918929781060614 0 1 0 I I #
coedge $-1 $396 $224 $227 $328 reversed $315 $-1 #
coedge $-1 $224 $396 $318 $391 forward $315 $-1 #
vertex $-1 $225 $397 #
straight-curve $-1 -40.98635822626423 11.889387769361669 27.049615474909761 0 0 1 I I #
straight-curve $-1 -40.98635822626423 11.889387769361669 1.4081852913188229 -0.64278759981090561 0 -0.7660444514056185 I I #
edge $-1 $398 -19.475743773270569 $228 -11.889387769361669 $323 $399 forward 7 unknown #
point $-1 -40.98635822626423 11.889387769361669 5.3918929781060614 #
point $-1 -37.643630663079584 11.889387769361669 5.3918929781060605 #
edge $-1 $400 1 $400 0 $231 $-1 forward 7 unknown #
vertex $-1 $232 $401 #
ellipse-curve $-1 -38.323253617831561 14.056918056192789 2.5678697944744471 -0.7660444514056185 0 0.64278759981090561 0.64278759981090561 0 0.7660444514056185 1 I I #
point $-1 -38.672206844861009 14.056918056192789 4.166083586118063 #
edge $-1 $402 1 $402 0 $235 $-1 forward 7 unknown #
vertex $-1 $236 $403 #
ellipse-curve $-1 -38.323253617831561 17.30821348643946 2.5678697944744471 -0.7660444514056185 0 0.64278759981090561 0.64278759981090561 0 0.7660444514056185 1 I I #
point $-1 -38.672206844861009 17.30821348643946 4.166083586118063 #
plane-surface $-1 40.98635822626423 0 0 -1 0 0 0 0 1 forward_v I I I I #
coedge $-1 $244 $242 $246 $344 reversed $161 $-1 #
edge $-1 $257 -5.3918929781060614 $346 5.3918929781060614 $256 $404 forward 7 unknown #
vertex $-1 $344 $405 #
straight-curve $-1 -40.98635822626423 -19.475743773270569 0 0 0 -1 I I #
edge $-1 $342 -19.475743773270569 $346 19.475743773270569 $340 $406 forward 7 unknown #
straight-curve $-1 0 -19.475743773270569 -5.3918929781060614 -1 0 0 I I #
vertex $-1 $249 $407 #
straight-curve $-1 0 19.475743773270569 -5.3918929781060614 1 0 0 I I #
point $-1 40.98635822626423 19.475743773270569 -5.3918929781060614 #
point $-1 40.98635822626423 -19.475743773270569 -5.3918929781060614 #
straight-curve $-1 -40.98635822626423 0 5.3918929781060614 0 -1 0 I I #
point $-1 -40.98635822626423 19.475743773270569 5.3918929781060614 #
point $-1 -40.98635822626423 -19.475743773270569 5.3918929781060614 #
straight-curve $-1 40.98635822626423 -19.475743773270569 0 0 0 -1 I I #
straight-curve $-1 40.98635822626423 19.475743773270569 0 0 0 -1 I I #
loop $-1 $-1 $272 $266 #
plane-surface $-1 0 -19.475743773270569 0 0 1 0 0 0 1 forward_v I I I I #
coedge $-1 $283 $274 $270 $359 forward $267 $-1 #
edge $-1 $363 -11.048241585418925 $278 -5.8067627902843633 $269 $408 forward 7 unknown #
edge $-1 $279 5.8067627902843633 $362 11.048241585418925 $357 $409 forward 7 unknown #
coedge $-1 $281 $272 $286 $372 reversed $355 $-1 #
coedge $-1 $272 $281 $283 $370 reversed $355 $-1 #
vertex $-1 $370 $410 #
vertex $-1 $273 $411 #
straight-curve $-1 -30.202572270052109 -19.475743773270569 0 0 0 1 I I #
straight-curve $-1 -15.851286135026054 -14.234264978136007 -5.3918929781060614 1 0 0 I I #
straight-curve $-1 -15.851286135026054 -14.234264978136007 5.3918929781060614 -1 0 0 I I #
point $-1 -30.202572270052109 -14.234264978136007 5.3918929781060614 #
point $-1 -30.202572270052109 -14.234264978136007 -5.3918929781060614 #
straight-curve $-1 -33.202572270052109 -19.475743773270569 0 0 0 -1 I I #
edge $-1 $362 30.202572270052109 $284 33.202572270052109 $361 $412 forward 7 unknown #
point $-1 -33.202572270052109 -19.475743773270569 -5.3918929781060614 #
edge $-1 $287 -33.202572270052109 $363 -30.202572270052109 $360 $413 forward 7 unknown #
point $-1 -33.202572270052109 -19.475743773270569 5.3918929781060614 #
coedge $-1 $375 $293 $381 $414 reversed $196 $-1 #
coedge $-1 $293 $374 $296 $379 forward $196 $-1 #
edge $-1 $377 -11.634460887612507 $301 -4.0481048837036102 $300 $415 forward 7 unknown #
vertex $-1 $295 $416 #
straight-curve $-1 6.5202456509911944 19.475743773270569 42.48329985105272 -0.64278759981090572 0 0.76604445140561861 I I #
edge $-1 $383 -5.3918929781060614 $297 -1.4081852913188517 $296 $417 forward 7 unknown #
point $-1 40.98635822626423 19.475743773270569 1.4081852913188517 #
coedge $-1 $300 $299 $374 $414 forward $291 $-1 #
point $-1 37.643630663079598 11.889387769361669 5.391892978106064 #
vertex $-1 $304 $418 #
straight-curve $-1 40.98635822626423 0 5.3918929781060614 0 1 0 I I #
vertex $-1 $307 $419 #
point $-1 38.96604121764247 14.056918056192789 1.8018253430688262 #
vertex $-1 $311 $420 #
point $-1 38.96604121764247 17.30821348643946 1.8018253430688262 #
coedge $-1 $390 $317 $396 $421 reversed $218 $-1 #
coedge $-1 $317 $389 $320 $394 reversed $218 $-1 #
edge $-1 $392 -11.634460887612507 $325 -4.0481048837036102 $324 $422 forward 7 unknown #
vertex $-1 $319 $423 #
straight-curve $-1 -32.865768480241535 19.475743773270569 11.085927548499967 -0.64278759981090572 0 -0.76604445140561861 I I #
edge $-1 $321 37.643630663079584 $398 40.98635822626423 $390 $424 forward 7 unknown #
point $-1 -37.643630663079584 19.475743773270565 5.3918929781060605 #
coedge $-1 $324 $323 $389 $421 forward $315 $-1 #
point $-1 -40.98635822626423 11.889387769361669 1.4081852913188229 #
vertex $-1 $394 $425 #
straight-curve $-1 -40.98635822626423 0 5.3918929781060614 0 -1 0 I I #
vertex $-1 $331 $426 #
point $-1 -37.680466018020653 14.056918056192789 3.3339142458800657 #
vertex $-1 $335 $427 #
point $-1 -37.680466018020653 17.30821348643946 3.3339142458800657 #
straight-curve $-1 -40.98635822626423 19.475743773270569 0 0 0 -1 I I #
point $-1 -40.98635822626423 -19.475743773270569 -5.3918929781060614 #
straight-curve $-1 -40.98635822626423 0 -5.3918929781060614 0 1 0 I I #
point $-1 -40.98635822626423 19.475743773270569 -5.3918929781060614 #
straight-curve $-1 -30.202572270052109 -8.4275021878516441 5.3918929781060614 0 1 0 I I #
straight-curve $-1 -30.202572270052109 -8.4275021878516441 -5.3918929781060614 0 -1 0 I I #
point $-1 -30.202572270052109 -19.475743773270569 -5.3918929781060614 #
point $-1 -30.202572270052109 -19.475743773270569 5.3918929781060614 #
straight-curve $-1 0 -19.475743773270569 -5.3918929781060614 -1 0 0 I I #
straight-curve $-1 0 -19.475743773270569 5.3918929781060614 1 0 0 I I #
edge $-1 $383 -40.98635822626423 $377 -37.643630663079598 $374 $428 forward 7 unknown #
straight-curve $-1 37.643630663079598 7.8412828856580585 5.391892978106064 0 -1 0 I I #
point $-1 37.643630663079598 19.475743773270565 5.391892978106064 #
straight-curve $-1 40.98635822626423 19.475743773270569 0 0 0 -1 I I #
point $-1 40.98635822626423 19.475743773270569 5.3918929781060614 #
point $-1 37.557209166425942 14.056918056192789 1.925082194663539 #
point $-1 37.557209166425942 17.30821348643946 1.925082194663539 #
edge $-1 $398 -5.3918929781060614 $392 -1.4081852913188229 $389 $429 forward 7 unknown #
straight-curve $-1 -40.98635822626423 7.8412828856580585 1.4081852913188206 0 -1 0 I I #
point $-1 -40.98635822626423 19.475743773270565 1.4081852913188229 #
straight-curve $-1 0 19.475743773270569 5.3918929781060614 -1 0 0 I I #
point $-1 -40.98635822626423 19.475743773270569 5.3918929781060614 #
point $-1 -37.557209166425942 14.056918056192789 1.9250821946635417 #
point $-1 -37.557209166425942 17.30821348643946 1.9250821946635417 #
straight-curve $-1 0 19.475743773270569 5.3918929781060614 -1 0 0 I I #
straight-curve $-1 -40.98635822626423 19.475743773270569 0 0 0 -1 I I #
End-of-ACIS-data 