500 0 12 0           
7 Unknown 11 ACIS 5.0 NT 24 Thu Mar 25 16:25:10 1999 
-1 9.9999999999999995e-007 1e-010 
body $-1 $12 $-1 $13 #
body $-1 $14 $-1 $15 #
body $-1 $16 $-1 $17 #
body $-1 $18 $-1 $19 #
body $-1 $20 $-1 $21 #
body $-1 $22 $-1 $23 #
body $-1 $24 $-1 $25 #
body $-1 $26 $-1 $27 #
body $-1 $28 $-1 $29 #
body $-1 $30 $-1 $31 #
body $-1 $32 $-1 $33 #
body $-1 $34 $-1 $35 #
lump $-1 $-1 $36 $0 #
transform $-1 1 0 0 0 1 0 0 0 1 59.288918729209264 39.843376546801991 19.757533610666592 1 rotate no_reflect no_shear #
lump $-1 $-1 $37 $1 #
transform $-1 1 0 0 0 1 0 0 0 1 59.288918729209264 39.843376546801991 19.757533610666592 1 rotate no_reflect no_shear #
lump $-1 $-1 $38 $2 #
transform $-1 1 0 0 0 1 0 0 0 1 59.288918729209264 39.843376546801991 19.757533610666592 1 rotate no_reflect no_shear #
lump $-1 $-1 $39 $3 #
transform $-1 1 0 0 0 1 0 0 0 1 59.288918729209264 39.843376546801991 19.757533610666592 1 rotate no_reflect no_shear #
lump $-1 $-1 $40 $4 #
transform $-1 1 0 0 0 1 0 0 0 1 59.288918729209264 39.843376546801991 19.757533610666592 1 rotate no_reflect no_shear #
lump $-1 $-1 $41 $5 #
transform $-1 1 0 0 0 1 0 0 0 1 59.288918729209264 39.843376546801991 19.757533610666592 1 rotate no_reflect no_shear #
lump $-1 $-1 $42 $6 #
transform $-1 1 0 0 0 1 0 0 0 1 59.288918729209264 39.843376546801991 19.757533610666592 1 rotate no_reflect no_shear #
lump $-1 $-1 $43 $7 #
transform $-1 1 0 0 0 1 0 0 0 1 59.288918729209264 39.843376546801991 19.757533610666592 1 rotate no_reflect no_shear #
lump $-1 $-1 $44 $8 #
transform $-1 1 0 0 0 1 0 0 0 1 59.288918729209264 39.843376546801991 19.757533610666592 1 rotate no_reflect no_shear #
lump $-1 $-1 $45 $9 #
transform $-1 1 0 0 0 1 0 0 0 1 59.288918729209264 39.843376546801991 19.757533610666592 1 rotate no_reflect no_shear #
lump $-1 $-1 $46 $10 #
transform $-1 1 0 0 0 1 0 0 0 1 59.288918729209264 39.843376546801991 19.757533610666592 1 rotate no_reflect no_shear #
lump $-1 $-1 $47 $11 #
transform $-1 1 0 0 0 1 0 0 0 1 59.288918729209264 39.843376546801991 19.757533610666592 1 rotate no_reflect no_shear #
shell $-1 $-1 $-1 $48 $-1 $12 #
shell $-1 $-1 $-1 $49 $-1 $14 #
shell $-1 $-1 $-1 $50 $-1 $16 #
shell $-1 $-1 $-1 $51 $-1 $18 #
shell $-1 $-1 $-1 $52 $-1 $20 #
shell $-1 $-1 $-1 $53 $-1 $22 #
shell $-1 $-1 $-1 $54 $-1 $24 #
shell $-1 $-1 $-1 $55 $-1 $26 #
shell $-1 $-1 $-1 $56 $-1 $28 #
shell $-1 $-1 $-1 $57 $-1 $30 #
shell $-1 $-1 $-1 $58 $-1 $32 #
shell $-1 $-1 $-1 $59 $-1 $34 #
face $-1 $60 $61 $36 $-1 $62 forward single #
face $-1 $63 $64 $37 $-1 $65 reversed single #
face $-1 $66 $67 $38 $-1 $68 forward single #
face $-1 $69 $70 $39 $-1 $71 reversed single #
face $-1 $72 $73 $40 $-1 $74 forward single #
face $-1 $75 $76 $41 $-1 $77 reversed single #
face $-1 $78 $79 $42 $-1 $80 forward single #
face $-1 $81 $82 $43 $-1 $83 reversed single #
face $-1 $84 $85 $44 $-1 $86 forward single #
face $-1 $87 $88 $45 $-1 $89 reversed single #
face $-1 $90 $91 $46 $-1 $92 forward single #
face $-1 $93 $94 $47 $-1 $95 forward single #
face $-1 $96 $97 $36 $-1 $98 reversed single #
loop $-1 $-1 $99 $48 #
plane-surface $-1 0 0 19.757533610666592 0 0 1 1 0 0 forward_v I I I I #
face $-1 $100 $101 $37 $-1 $102 reversed single #
loop $-1 $-1 $103 $49 #
plane-surface $-1 -49.46626823757677 93.588594152858761 147.43952682561689 1 0 0 0 -0.82903758062907751 -0.55919289150049634 forward_v I I I I #
face $-1 $104 $105 $38 $-1 $106 forward single #
loop $-1 $107 $108 $50 #
cone-surface $-1 -39.555363801090699 36.900096867461428 16.494368714794845 0 -0.82903758062907751 -0.55919289150049634 1 0 0 1 I I 0 1 1 forward I I I I #
face $-1 $109 $110 $39 $-1 $111 reversed single #
loop $-1 $-1 $112 $51 #
plane-surface $-1 -19.821808872972142 93.588594152858761 147.43952682561689 1 0 0 0 -0.82903758062907751 -0.55919289150049634 forward_v I I I I #
face $-1 $113 $114 $40 $-1 $115 forward single #
loop $-1 $116 $117 $52 #
cone-surface $-1 -9.9109044364860708 36.900096867461428 16.494368714794845 0 -0.82903758062907751 -0.55919289150049634 1 0 0 1 I I 0 1 1 forward I I I I #
face $-1 $118 $119 $41 $-1 $120 reversed single #
loop $-1 $-1 $121 $53 #
plane-surface $-1 9.8226504916324888 93.588594152858761 147.43952682561689 1 0 0 0 -0.82903758062907751 -0.55919289150049634 forward_v I I I I #
face $-1 $122 $123 $42 $-1 $124 forward single #
loop $-1 $125 $126 $54 #
cone-surface $-1 19.733554928118558 36.900096867461428 16.494368714794845 0 -0.82903758062907751 -0.55919289150049634 1 0 0 1 I I 0 1 1 forward I I I I #
face $-1 $127 $128 $43 $-1 $129 reversed single #
loop $-1 $-1 $130 $55 #
plane-surface $-1 39.467109856237116 93.588594152858761 147.43952682561689 1 0 0 0 -0.82903758062907751 -0.55919289150049634 forward_v I I I I #
face $-1 $131 $132 $44 $-1 $133 forward single #
loop $-1 $134 $135 $56 #
cone-surface $-1 49.378014292723186 36.900096867461428 16.494368714794845 0 -0.82903758062907751 -0.55919289150049634 1 0 0 1 I I 0 1 1 forward I I I I #
face $-1 $136 $137 $45 $-1 $138 reversed single #
loop $-1 $-1 $139 $57 #
plane-surface $-1 9.1483760116819113 -131.99566502717852 75.840105989399518 -1 0 0 0 -0.77714596973225614 0.62932038083071107 forward_v I I I I #
face $-1 $140 $141 $46 $-1 $142 forward single #
loop $-1 $143 $144 $58 #
cone-surface $-1 -9.0323114343937689 -31.752183275480007 10.014067481022654 0 0.77714596973225614 -0.62932038083071107 1.5 0 0 1 I I 0 1 1.5 forward I I I I #
face $-1 $145 $146 $47 $-1 $147 forward single #
loop $-1 $148 $149 $59 #
cone-surface $-1 1.8761010332516435 -31.752183275480007 10.014067481022654 0 0.77714596973225614 -0.62932038083071107 1.5 0 0 1 I I 0 1 1.5 forward I I I I #
face $-1 $150 $151 $36 $-1 $152 reversed single #
loop $-1 $-1 $153 $60 #
plane-surface $-1 0 0 -19.757533610666592 0 0 1 1 0 0 forward_v I I I I #
coedge $-1 $154 $155 $156 $157 forward $61 $-1 #
face $-1 $158 $159 $37 $-1 $160 reversed single #
loop $-1 $-1 $161 $63 #
plane-surface $-1 -39.555363801090699 -4.7168893298965315 81.131643029367979 0 0.82903758062907751 0.55919289150049634 1 0 0 forward_v I I I I #
coedge $-1 $162 $163 $164 $165 reversed $64 $-1 #
face $-1 $-1 $166 $38 $-1 $167 forward single #
loop $-1 $168 $169 $66 #
cone-surface $-1 -39.555363801090699 35.123752222556604 15.296209160276199 0 -0.82903758062907751 -0.55919289150049634 0.5 0 0 1 I I -0.70710678118654746 0.70710678118654746 0.5 forward I I I I #
loop $-1 $-1 $170 $50 #
coedge $-1 $108 $108 $171 $172 reversed $67 $-1 #
face $-1 $173 $174 $39 $-1 $175 reversed single #
loop $-1 $-1 $176 $69 #
plane-surface $-1 -9.9109044364860708 -4.7168893298965315 81.131643029367979 0 0.82903758062907751 0.55919289150049634 1 0 0 forward_v I I I I #
coedge $-1 $177 $178 $179 $180 reversed $70 $-1 #
face $-1 $-1 $181 $40 $-1 $182 forward single #
loop $-1 $183 $184 $72 #
cone-surface $-1 -9.9109044364860708 35.123752222556604 15.296209160276199 0 -0.82903758062907751 -0.55919289150049634 0.5 0 0 1 I I -0.70710678118654746 0.70710678118654746 0.5 forward I I I I #
loop $-1 $-1 $185 $52 #
coedge $-1 $117 $117 $186 $187 reversed $73 $-1 #
face $-1 $188 $189 $41 $-1 $190 reversed single #
loop $-1 $-1 $191 $75 #
plane-surface $-1 19.733554928118558 -4.7168893298965315 81.131643029367979 0 0.82903758062907751 0.55919289150049634 1 0 0 forward_v I I I I #
coedge $-1 $192 $193 $194 $195 reversed $76 $-1 #
face $-1 $-1 $196 $42 $-1 $197 forward single #
loop $-1 $198 $199 $78 #
cone-surface $-1 19.733554928118558 35.123752222556604 15.296209160276199 0 -0.82903758062907751 -0.55919289150049634 0.5 0 0 1 I I -0.70710678118654746 0.70710678118654746 0.5 forward I I I I #
loop $-1 $-1 $200 $54 #
coedge $-1 $126 $126 $201 $202 reversed $79 $-1 #
face $-1 $203 $204 $43 $-1 $205 forward single #
loop $-1 $-1 $206 $81 #
plane-surface $-1 49.378014292723186 -4.7168893298965315 81.131643029367979 0 0.82903758062907751 0.55919289150049634 1 0 0 forward_v I I I I #
coedge $-1 $207 $208 $209 $210 reversed $82 $-1 #
face $-1 $-1 $211 $44 $-1 $212 forward single #
loop $-1 $213 $214 $84 #
cone-surface $-1 49.378014292723186 35.123752222556604 15.296209160276199 0 -0.82903758062907751 -0.55919289150049634 0.5 0 0 1 I I -0.70710678118654746 0.70710678118654746 0.5 forward I I I I #
loop $-1 $-1 $215 $56 #
coedge $-1 $135 $135 $216 $217 reversed $85 $-1 #
face $-1 $218 $219 $45 $-1 $220 reversed single #
loop $-1 $-1 $221 $87 #
plane-surface $-1 -3.5781052005710663 -39.843376546802006 1.2166561619854122 0 -0.77714596973225614 0.62932038083071107 1 0 0 forward_v I I I I #
coedge $-1 $222 $223 $224 $225 reversed $88 $-1 #
face $-1 $-1 $226 $46 $-1 $227 forward single #
loop $-1 $228 $229 $90 #
cone-surface $-1 -9.0323114343937689 -30.585183584702982 9.0690497900962725 0 0.77714596973225614 -0.62932038083071107 0.75 0 0 1 I I -0.70710678118654757 0.70710678118654757 0.75 forward I I I I #
loop $-1 $-1 $230 $58 #
coedge $-1 $144 $144 $231 $232 reversed $91 $-1 #
face $-1 $-1 $233 $47 $-1 $234 forward single #
loop $-1 $235 $236 $93 #
cone-surface $-1 1.8761010332516435 -30.585183584702982 9.0690497900962725 0 0.77714596973225614 -0.62932038083071107 0.75 0 0 1 I I -0.70710678118654757 0.70710678118654757 0.75 forward I I I I #
loop $-1 $-1 $237 $59 #
coedge $-1 $149 $149 $238 $239 reversed $94 $-1 #
face $-1 $240 $241 $36 $-1 $242 reversed single #
loop $-1 $-1 $243 $96 #
plane-surface $-1 0 -39.843376546801991 0 0 1 0 0 0 1 forward_v I I I I #
coedge $-1 $244 $245 $246 $247 forward $97 $-1 #
coedge $-1 $248 $99 $249 $250 forward $61 $-1 #
coedge $-1 $99 $248 $251 $252 forward $61 $-1 #
coedge $-1 $253 $254 $99 $157 reversed $255 $-1 #
edge $-1 $256 -39.843376546801991 $257 39.843376546801991 $156 $258 forward 7 unknown #
face $-1 $259 $260 $37 $-1 $261 reversed single #
loop $-1 $-1 $262 $100 #
plane-surface $-1 -29.644459364604629 93.588594152858761 147.43952682561689 -1 0 0 0 0.82903758062907751 0.55919289150049634 forward_v I I I I #
coedge $-1 $263 $264 $265 $266 reversed $101 $-1 #
coedge $-1 $163 $103 $267 $268 reversed $64 $-1 #
coedge $-1 $103 $162 $263 $269 reversed $64 $-1 #
coedge $-1 $265 $270 $103 $165 forward $271 $-1 #
edge $-1 $272 6.950920529627389 $273 10.113828179127907 $164 $274 forward 7 unknown #
loop $-1 $-1 $171 $104 #
plane-surface $-1 -39.555363801090699 -4.7168893298965315 81.131643029367979 0 0.82903758062907751 0.55919289150049634 1 0 0 forward_v I I I I #
loop $-1 $-1 $275 $66 #
coedge $-1 $169 $169 $170 $276 reversed $105 $-1 #
coedge $-1 $170 $170 $169 $276 forward $107 $-1 #
coedge $-1 $171 $171 $108 $172 forward $166 $-1 #
edge $-1 $277 -1.0279713165030387e-015 $277 6.2831853071795996 $171 $278 forward 7 unknown #
face $-1 $279 $280 $39 $-1 $281 forward single #
loop $-1 $-1 $282 $109 #
plane-surface $-1 -1.7763568394002505e-015 93.588594152858761 147.43952682561689 -1 0 0 0 0.82903758062907751 0.55919289150049634 forward_v I I I I #
coedge $-1 $283 $284 $285 $286 reversed $110 $-1 #
coedge $-1 $178 $112 $287 $288 reversed $70 $-1 #
coedge $-1 $112 $177 $283 $289 reversed $70 $-1 #
coedge $-1 $285 $290 $112 $180 forward $280 $-1 #
edge $-1 $291 6.950920529627389 $292 10.113828179127907 $179 $293 forward 7 unknown #
loop $-1 $-1 $186 $113 #
plane-surface $-1 -9.9109044364860708 -4.7168893298965315 81.131643029367979 0 0.82903758062907751 0.55919289150049634 1 0 0 forward_v I I I I #
loop $-1 $-1 $294 $72 #
coedge $-1 $184 $184 $185 $295 reversed $114 $-1 #
coedge $-1 $185 $185 $184 $295 forward $116 $-1 #
coedge $-1 $186 $186 $117 $187 forward $181 $-1 #
edge $-1 $296 -1.0279713165030387e-015 $296 6.2831853071795996 $186 $297 forward 7 unknown #
face $-1 $298 $299 $41 $-1 $300 forward single #
loop $-1 $-1 $301 $118 #
plane-surface $-1 29.644459364604629 93.588594152858761 147.43952682561689 -1 0 0 0 0.82903758062907751 0.55919289150049634 forward_v I I I I #
coedge $-1 $302 $303 $304 $305 reversed $119 $-1 #
coedge $-1 $193 $121 $306 $307 reversed $76 $-1 #
coedge $-1 $121 $192 $302 $308 reversed $76 $-1 #
coedge $-1 $304 $309 $121 $195 forward $299 $-1 #
edge $-1 $310 6.950920529627389 $311 10.113828179127907 $194 $312 forward 7 unknown #
loop $-1 $-1 $201 $122 #
plane-surface $-1 19.733554928118558 -4.7168893298965315 81.131643029367979 0 0.82903758062907751 0.55919289150049634 1 0 0 forward_v I I I I #
loop $-1 $-1 $313 $78 #
coedge $-1 $199 $199 $200 $314 reversed $123 $-1 #
coedge $-1 $200 $200 $199 $314 forward $125 $-1 #
coedge $-1 $201 $201 $126 $202 forward $196 $-1 #
edge $-1 $315 -1.0279713165030387e-015 $315 6.2831853071795996 $201 $316 forward 7 unknown #
face $-1 $317 $318 $43 $-1 $319 reversed single #
loop $-1 $-1 $209 $127 #
plane-surface $-1 0 0 19.757533610666592 0 0 1 1 0 0 forward_v I I I I #
coedge $-1 $320 $321 $322 $323 reversed $128 $-1 #
coedge $-1 $208 $130 $324 $325 reversed $82 $-1 #
coedge $-1 $130 $207 $320 $326 reversed $82 $-1 #
coedge $-1 $322 $327 $130 $210 forward $204 $-1 #
edge $-1 $328 6.950920529627389 $329 10.113828179127907 $209 $330 forward 7 unknown #
loop $-1 $-1 $216 $131 #
plane-surface $-1 49.378014292723186 -4.7168893298965315 81.131643029367979 0 0.82903758062907751 0.55919289150049634 1 0 0 forward_v I I I I #
loop $-1 $-1 $331 $84 #
coedge $-1 $214 $214 $215 $332 reversed $132 $-1 #
coedge $-1 $215 $215 $214 $332 forward $134 $-1 #
coedge $-1 $216 $216 $135 $217 forward $211 $-1 #
edge $-1 $333 -1.0279713165030387e-015 $333 6.2831853071795996 $216 $334 forward 7 unknown #
face $-1 $335 $336 $45 $-1 $337 reversed single #
loop $-1 $-1 $338 $136 #
plane-surface $-1 -16.304586412824044 -131.99566502717852 75.840105989399518 1 0 0 0 0.77714596973225614 -0.62932038083071107 forward_v I I I I #
coedge $-1 $339 $340 $341 $342 reversed $137 $-1 #
coedge $-1 $223 $139 $343 $344 reversed $88 $-1 #
coedge $-1 $139 $222 $339 $345 reversed $88 $-1 #
coedge $-1 $341 $346 $139 $225 forward $347 $-1 #
edge $-1 $348 26.154455966787268 $349 41.168562082475553 $224 $350 forward 7 unknown #
loop $-1 $-1 $231 $140 #
plane-surface $-1 -3.5781052005710663 -39.843376546802006 1.2166561619854122 0 -0.77714596973225614 0.62932038083071107 1 0 0 forward_v I I I I #
loop $-1 $-1 $351 $90 #
coedge $-1 $229 $229 $230 $352 reversed $141 $-1 #
coedge $-1 $230 $230 $229 $352 forward $143 $-1 #
coedge $-1 $231 $231 $144 $232 forward $226 $-1 #
edge $-1 $353 2.2808175114105988e-015 $353 6.2831853071796031 $231 $354 forward 7 unknown #
loop $-1 $-1 $238 $145 #
plane-surface $-1 -3.5781052005710663 -39.843376546802006 1.2166561619854122 0 -0.77714596973225614 0.62932038083071107 1 0 0 forward_v I I I I #
loop $-1 $-1 $355 $93 #
coedge $-1 $236 $236 $237 $356 reversed $146 $-1 #
coedge $-1 $237 $237 $236 $356 forward $148 $-1 #
coedge $-1 $238 $238 $149 $239 forward $233 $-1 #
edge $-1 $357 2.2808175114105988e-015 $357 6.2831853071796031 $238 $358 forward 7 unknown #
face $-1 $359 $360 $36 $-1 $361 reversed single #
loop $-1 $-1 $362 $150 #
plane-surface $-1 -59.288918729209264 0 0 1 0 0 0 0 -1 forward_v I I I I #
coedge $-1 $363 $251 $364 $365 forward $151 $-1 #
coedge $-1 $366 $153 $363 $367 forward $97 $-1 #
coedge $-1 $153 $366 $368 $369 forward $97 $-1 #
coedge $-1 $254 $253 $153 $247 reversed $255 $-1 #
edge $-1 $370 -39.843376546801991 $371 39.843376546801991 $246 $372 forward 7 unknown #
coedge $-1 $155 $154 $373 $374 forward $61 $-1 #
coedge $-1 $375 $376 $154 $250 reversed $360 $-1 #
edge $-1 $257 -59.288918729209264 $377 59.288918729209264 $249 $378 forward 7 unknown #
coedge $-1 $243 $379 $155 $252 reversed $151 $-1 #
edge $-1 $380 -59.288918729209264 $256 59.288918729209264 $251 $381 forward 7 unknown #
coedge $-1 $246 $156 $379 $382 forward $255 $-1 #
coedge $-1 $156 $246 $375 $383 reversed $255 $-1 #
loop $-1 $-1 $253 $359 #
vertex $-1 $157 $384 #
vertex $-1 $157 $385 #
straight-curve $-1 59.288918729209264 0 19.757533610666592 0 1 0 I I #
face $-1 $-1 $271 $37 $-1 $386 forward single #
loop $-1 $-1 $387 $158 #
plane-surface $-1 0 39.843376546801991 0 0 -1 0 0 0 -1 forward_v I I I I #
coedge $-1 $388 $389 $390 $391 reversed $159 $-1 #
coedge $-1 $392 $161 $163 $269 forward $101 $-1 #
coedge $-1 $161 $392 $388 $393 forward $101 $-1 #
coedge $-1 $390 $164 $161 $266 forward $271 $-1 #
edge $-1 $273 -29.68858633703142 $394 -9.8667774640592789 $265 $395 forward 7 unknown #
coedge $-1 $396 $397 $162 $268 forward $260 $-1 #
edge $-1 $398 -58.651433376348564 $272 -53.962229802141856 $267 $399 forward 7 unknown #
edge $-1 $273 74.030551633293186 $398 79.686753093603983 $163 $400 forward 7 unknown #
coedge $-1 $164 $390 $396 $401 forward $271 $-1 #
loop $-1 $-1 $390 $259 #
vertex $-1 $268 $402 #
vertex $-1 $165 $403 #
straight-curve $-1 -49.46626823757677 46.79429707642938 19.757533610666592 0 -1 0 I I #
coedge $-1 $275 $275 $-1 $404 reversed $168 $-1 #
edge $-1 $405 0 $405 6.2831853071796004 $169 $406 forward 7 unknown #
vertex $-1 $172 $407 #
ellipse-curve $-1 -39.555363801090699 38.261922722051729 17.412931823563252 0 0.82903758062907751 0.55919289150049634 1 0 0 1 I I #
face $-1 $-1 $408 $39 $-1 $409 reversed single #
loop $-1 $-1 $179 $173 #
plane-surface $-1 0 0 19.757533610666592 0 0 1 1 0 0 forward_v I I I I #
coedge $-1 $410 $411 $412 $413 reversed $174 $-1 #
coedge $-1 $414 $176 $178 $289 forward $110 $-1 #
coedge $-1 $176 $414 $410 $415 forward $110 $-1 #
coedge $-1 $412 $179 $176 $286 forward $280 $-1 #
edge $-1 $292 -14.866356654729106 $416 4.9554522182430336 $285 $417 forward 7 unknown #
coedge $-1 $418 $419 $177 $288 forward $408 $-1 #
edge $-1 $420 -58.651433376348564 $291 -53.962229802141856 $287 $421 forward 7 unknown #
edge $-1 $292 74.030551633293186 $420 79.686753093603983 $178 $422 forward 7 unknown #
coedge $-1 $179 $412 $418 $423 forward $280 $-1 #
vertex $-1 $180 $424 #
vertex $-1 $180 $425 #
straight-curve $-1 -19.821808872972142 46.79429707642938 19.757533610666592 0 -1 0 I I #
coedge $-1 $294 $294 $-1 $426 reversed $183 $-1 #
edge $-1 $427 0 $427 6.2831853071796004 $184 $428 forward 7 unknown #
vertex $-1 $187 $429 #
ellipse-curve $-1 -9.9109044364860708 38.261922722051729 17.412931823563252 0 0.82903758062907751 0.55919289150049634 1 0 0 1 I I #
face $-1 $-1 $430 $41 $-1 $431 reversed single #
loop $-1 $-1 $194 $188 #
plane-surface $-1 0 0 19.757533610666592 0 0 1 1 0 0 forward_v I I I I #
coedge $-1 $432 $433 $434 $435 reversed $189 $-1 #
coedge $-1 $436 $191 $193 $308 forward $119 $-1 #
coedge $-1 $191 $436 $432 $437 forward $119 $-1 #
coedge $-1 $434 $194 $191 $305 forward $299 $-1 #
edge $-1 $311 -0.04412697242679009 $438 19.77768190054535 $304 $439 forward 7 unknown #
coedge $-1 $440 $441 $192 $307 forward $430 $-1 #
edge $-1 $442 -58.651433376348564 $310 -53.962229802141856 $306 $443 forward 7 unknown #
edge $-1 $311 74.030551633293186 $442 79.686753093603983 $193 $444 forward 7 unknown #
coedge $-1 $194 $434 $440 $445 forward $299 $-1 #
vertex $-1 $195 $446 #
vertex $-1 $195 $447 #
straight-curve $-1 9.8226504916324888 46.79429707642938 19.757533610666592 0 -1 0 I I #
coedge $-1 $313 $313 $-1 $448 reversed $198 $-1 #
edge $-1 $449 0 $449 6.2831853071796004 $199 $450 forward 7 unknown #
vertex $-1 $202 $451 #
ellipse-curve $-1 19.733554928118558 38.261922722051729 17.412931823563252 0 0.82903758062907751 0.55919289150049634 1 0 0 1 I I #
face $-1 $-1 $452 $43 $-1 $453 reversed single #
loop $-1 $-1 $324 $203 #
plane-surface $-1 0 39.843376546801991 0 0 -1 0 0 0 -1 forward_v I I I I #
coedge $-1 $454 $206 $208 $326 forward $128 $-1 #
coedge $-1 $206 $454 $455 $456 reversed $128 $-1 #
coedge $-1 $457 $209 $206 $323 forward $204 $-1 #
edge $-1 $329 14.778102709875522 $458 34.599911582847668 $322 $459 forward 7 unknown #
coedge $-1 $460 $461 $207 $325 forward $318 $-1 #
edge $-1 $462 -58.651433376348564 $328 -53.962229802141856 $324 $463 forward 7 unknown #
edge $-1 $329 74.030551633293186 $462 79.686753093603983 $208 $464 forward 7 unknown #
coedge $-1 $209 $457 $460 $465 forward $204 $-1 #
vertex $-1 $210 $466 #
vertex $-1 $210 $467 #
straight-curve $-1 39.467109856237116 46.79429707642938 19.757533610666592 0 -1 0 I I #
coedge $-1 $331 $331 $-1 $468 reversed $213 $-1 #
edge $-1 $469 0 $469 6.2831853071796004 $214 $470 forward 7 unknown #
vertex $-1 $217 $471 #
ellipse-curve $-1 49.378014292723186 38.261922722051729 17.412931823563252 0 0.82903758062907751 0.55919289150049634 1 0 0 1 I I #
face $-1 $-1 $347 $45 $-1 $472 forward single #
loop $-1 $-1 $473 $218 #
plane-surface $-1 0 -39.843376546801991 0 0 1 0 0 0 1 forward_v I I I I #
coedge $-1 $474 $475 $476 $477 reversed $219 $-1 #
coedge $-1 $478 $221 $223 $345 forward $137 $-1 #
coedge $-1 $221 $478 $474 $479 forward $137 $-1 #
coedge $-1 $476 $224 $221 $342 forward $347 $-1 #
edge $-1 $349 -10.937428611967444 $480 14.515533812538511 $341 $481 forward 7 unknown #
coedge $-1 $482 $483 $222 $344 forward $336 $-1 #
edge $-1 $484 -36.703396832714333 $348 -18.162519384033168 $343 $485 forward 7 unknown #
edge $-1 $349 -23.857651163099924 $484 -2.2575505016944882e-014 $223 $486 forward 7 unknown #
coedge $-1 $224 $476 $482 $487 forward $347 $-1 #
loop $-1 $-1 $476 $335 #
vertex $-1 $344 $488 #
vertex $-1 $225 $489 #
straight-curve $-1 9.1483760116819113 -65.997832513589259 19.757533610666592 0 1 0 I I #
coedge $-1 $351 $351 $-1 $490 reversed $228 $-1 #
edge $-1 $491 0 $491 6.2831853071796004 $229 $492 forward 7 unknown #
vertex $-1 $232 $493 #
ellipse-curve $-1 -9.0323114343937689 -32.336323488957852 10.487094886326009 0 -0.77714596973225614 0.62932038083071107 1.5 0 0 1 I I #
coedge $-1 $355 $355 $-1 $494 reversed $235 $-1 #
edge $-1 $495 0 $495 6.2831853071796004 $236 $496 forward 7 unknown #
vertex $-1 $239 $497 #
ellipse-curve $-1 1.8761010332516435 -32.336323488957852 10.487094886326009 0 -0.77714596973225614 0.62932038083071107 1.5 0 0 1 I I #
face $-1 $-1 $255 $36 $-1 $498 reversed single #
loop $-1 $-1 $375 $240 #
plane-surface $-1 0 39.843376546801991 0 0 -1 0 0 0 -1 forward_v I I I I #
coedge $-1 $499 $373 $376 $500 forward $241 $-1 #
coedge $-1 $379 $243 $244 $367 reversed $151 $-1 #
coedge $-1 $373 $499 $243 $365 reversed $241 $-1 #
edge $-1 $380 -19.757533610666592 $501 19.757533610666592 $364 $502 forward 7 unknown #
coedge $-1 $245 $244 $499 $503 forward $97 $-1 #
edge $-1 $371 -59.288918729209264 $501 59.288918729209264 $363 $504 forward 7 unknown #
coedge $-1 $376 $375 $245 $369 reversed $360 $-1 #
edge $-1 $505 -59.288918729209264 $370 59.288918729209264 $368 $506 forward 7 unknown #
vertex $-1 $247 $507 #
vertex $-1 $382 $508 #
straight-curve $-1 59.288918729209264 0 -19.757533610666592 0 -1 0 I I #
coedge $-1 $362 $364 $248 $374 reversed $241 $-1 #
edge $-1 $377 -39.843376546801991 $380 39.843376546801991 $373 $509 forward 7 unknown #
coedge $-1 $368 $249 $254 $383 forward $360 $-1 #
coedge $-1 $249 $368 $362 $500 reversed $360 $-1 #
vertex $-1 $250 $510 #
straight-curve $-1 0 39.843376546801991 19.757533610666592 -1 0 0 I I #
coedge $-1 $251 $363 $253 $382 reversed $151 $-1 #
vertex $-1 $374 $511 #
straight-curve $-1 0 -39.843376546801991 19.757533610666592 1 0 0 I I #
edge $-1 $256 -19.757533610666592 $371 19.757533610666592 $253 $512 forward 7 unknown #
edge $-1 $257 -19.757533610666592 $370 19.757533610666592 $254 $513 forward 7 unknown #
point $-1 59.288918729209264 -39.843376546801991 19.757533610666592 #
point $-1 59.288918729209264 39.843376546801991 19.757533610666592 #
plane-surface $-1 0 0 19.757533610666592 0 0 1 1 0 0 forward_v I I I I #
coedge $-1 $397 $396 $389 $514 forward $260 $-1 #
coedge $-1 $389 $262 $264 $393 reversed $159 $-1 #
coedge $-1 $262 $388 $387 $514 reversed $159 $-1 #
coedge $-1 $270 $265 $262 $391 forward $271 $-1 #
edge $-1 $394 -10.113828179127907 $515 -6.950920529627389 $390 $516 forward 7 unknown #
coedge $-1 $264 $263 $397 $517 reversed $101 $-1 #
edge $-1 $518 -79.686753093603983 $394 -74.030551633293186 $388 $519 forward 7 unknown #
vertex $-1 $266 $520 #
straight-curve $-1 -19.77768190054535 36.680468897301481 19.757533610666592 1 0 0 I I #
coedge $-1 $387 $267 $270 $401 reversed $260 $-1 #
coedge $-1 $267 $387 $392 $517 forward $260 $-1 #
vertex $-1 $268 $521 #
straight-curve $-1 -49.46626823757677 39.843376546801991 73.719763412808447 0 0 1 I I #
straight-curve $-1 -49.46626823757677 -4.7168893298965315 81.131643029367979 0 0.55919289150049634 -0.82903758062907751 I I #
edge $-1 $515 29.644459364604629 $272 49.46626823757677 $396 $522 forward 7 unknown #
point $-1 -49.46626823757677 39.843376546801991 19.757533610666592 #
point $-1 -49.46626823757677 36.680468897301473 19.757533610666592 #
edge $-1 $523 1 $523 0 $275 $-1 forward 7 unknown #
vertex $-1 $276 $524 #
ellipse-curve $-1 -39.555363801090699 35.538271012871142 15.575805606026448 0 0.82903758062907751 0.55919289150049634 1 0 0 1 I I #
point $-1 -38.555363801090699 38.261922722051722 17.412931823563248 #
loop $-1 $-1 $287 $279 #
plane-surface $-1 0 39.843376546801991 0 0 -1 0 0 0 -1 forward_v I I I I #
coedge $-1 $411 $282 $284 $415 reversed $174 $-1 #
coedge $-1 $282 $410 $525 $526 reversed $174 $-1 #
coedge $-1 $290 $285 $282 $413 forward $280 $-1 #
edge $-1 $416 -10.113828179127907 $527 -6.950920529627389 $412 $528 forward 7 unknown #
coedge $-1 $284 $283 $419 $529 reversed $110 $-1 #
edge $-1 $530 -79.686753093603983 $416 -74.030551633293186 $410 $531 forward 7 unknown #
vertex $-1 $286 $532 #
straight-curve $-1 -4.9554522182430354 36.680468897301481 19.757533610666592 1 0 0 I I #
coedge $-1 $525 $287 $290 $423 reversed $408 $-1 #
coedge $-1 $287 $525 $414 $529 forward $408 $-1 #
vertex $-1 $288 $533 #
straight-curve $-1 -19.821808872972142 39.843376546801991 73.719763412808447 0 0 1 I I #
straight-curve $-1 -19.821808872972142 -4.7168893298965315 81.131643029367979 0 0.55919289150049634 -0.82903758062907751 I I #
edge $-1 $527 1.7763568394002505e-015 $291 19.821808872972142 $418 $534 forward 7 unknown #
point $-1 -19.821808872972142 39.843376546801991 19.757533610666592 #
point $-1 -19.821808872972142 36.680468897301473 19.757533610666592 #
edge $-1 $535 1 $535 0 $294 $-1 forward 7 unknown #
vertex $-1 $295 $536 #
ellipse-curve $-1 -9.9109044364860708 35.538271012871142 15.575805606026448 0 0.82903758062907751 0.55919289150049634 1 0 0 1 I I #
point $-1 -8.9109044364860708 38.261922722051722 17.412931823563248 #
loop $-1 $-1 $306 $298 #
plane-surface $-1 0 39.843376546801991 0 0 -1 0 0 0 -1 forward_v I I I I #
coedge $-1 $433 $301 $303 $437 reversed $189 $-1 #
coedge $-1 $301 $432 $537 $538 reversed $189 $-1 #
coedge $-1 $309 $304 $301 $435 forward $299 $-1 #
edge $-1 $438 -10.113828179127907 $539 -6.950920529627389 $434 $540 forward 7 unknown #
coedge $-1 $303 $302 $441 $541 reversed $119 $-1 #
edge $-1 $542 -79.686753093603983 $438 -74.030551633293186 $432 $543 forward 7 unknown #
vertex $-1 $305 $544 #
straight-curve $-1 9.8667774640592789 36.680468897301481 19.757533610666592 1 0 0 I I #
coedge $-1 $537 $306 $309 $445 reversed $430 $-1 #
coedge $-1 $306 $537 $436 $541 forward $430 $-1 #
vertex $-1 $307 $545 #
straight-curve $-1 9.8226504916324888 39.843376546801991 73.719763412808447 0 0 1 I I #
straight-curve $-1 9.8226504916324888 -4.7168893298965315 81.131643029367979 0 0.55919289150049634 -0.82903758062907751 I I #
edge $-1 $539 -29.644459364604629 $310 -9.8226504916324888 $440 $546 forward 7 unknown #
point $-1 9.8226504916324888 39.843376546801991 19.757533610666592 #
point $-1 9.8226504916324888 36.680468897301473 19.757533610666592 #
edge $-1 $547 1 $547 0 $313 $-1 forward 7 unknown #
vertex $-1 $314 $548 #
ellipse-curve $-1 19.733554928118558 35.538271012871142 15.575805606026448 0 0.82903758062907751 0.55919289150049634 1 0 0 1 I I #
point $-1 20.733554928118558 38.261922722051722 17.412931823563248 #
loop $-1 $-1 $455 $317 #
plane-surface $-1 59.288918729209264 0 0 -1 0 0 0 0 1 forward_v I I I I #
coedge $-1 $321 $320 $461 $549 reversed $128 $-1 #
coedge $-1 $550 $551 $321 $456 forward $452 $-1 #
edge $-1 $458 39.081135616892254 $552 44.737337077203044 $455 $553 forward 7 unknown #
coedge $-1 $327 $322 $551 $554 forward $204 $-1 #
vertex $-1 $554 $555 #
straight-curve $-1 24.689007146361593 36.680468897301481 19.757533610666592 1 0 0 I I #
coedge $-1 $556 $324 $327 $465 reversed $318 $-1 #
coedge $-1 $324 $556 $454 $549 forward $318 $-1 #
vertex $-1 $325 $557 #
straight-curve $-1 39.467109856237116 39.843376546801991 73.719763412808447 0 0 1 I I #
straight-curve $-1 39.467109856237116 -4.7168893298965315 81.131643029367979 0 0.55919289150049634 -0.82903758062907751 I I #
edge $-1 $558 -59.288918729209264 $328 -39.467109856237116 $460 $559 forward 7 unknown #
point $-1 39.467109856237116 39.843376546801991 19.757533610666592 #
point $-1 39.467109856237116 36.680468897301473 19.757533610666592 #
edge $-1 $560 1 $560 0 $331 $-1 forward 7 unknown #
vertex $-1 $332 $561 #
ellipse-curve $-1 49.378014292723186 35.538271012871142 15.575805606026448 0 0.82903758062907751 0.55919289150049634 1 0 0 1 I I #
point $-1 50.378014292723186 38.261922722051722 17.412931823563248 #
plane-surface $-1 0 0 19.757533610666592 0 0 1 1 0 0 forward_v I I I I #
coedge $-1 $483 $482 $475 $562 forward $336 $-1 #
coedge $-1 $475 $338 $340 $479 reversed $219 $-1 #
coedge $-1 $338 $474 $473 $562 reversed $219 $-1 #
coedge $-1 $346 $341 $338 $477 forward $347 $-1 #
edge $-1 $480 -41.168562082475553 $563 -26.154455966787268 $476 $564 forward 7 unknown #
coedge $-1 $340 $339 $483 $565 reversed $137 $-1 #
edge $-1 $566 2.2575505016944882e-014 $480 23.857651163099924 $474 $567 forward 7 unknown #
vertex $-1 $342 $568 #
straight-curve $-1 -1.7890526002855331 -24.829270431113702 19.757533610666592 -1 0 0 I I #
coedge $-1 $473 $343 $346 $487 reversed $336 $-1 #
coedge $-1 $343 $473 $478 $565 forward $336 $-1 #
vertex $-1 $344 $569 #
straight-curve $-1 9.1483760116819113 -39.843376546801991 37.920052994699759 0 0 1 I I #
straight-curve $-1 9.1483760116819113 -39.843376546802006 1.2166561619854122 0 -0.62932038083071107 -0.77714596973225614 I I #
edge $-1 $563 -16.304586412824044 $348 9.1483760116819113 $482 $570 forward 7 unknown #
point $-1 9.1483760116819113 -39.843376546801991 19.757533610666592 #
point $-1 9.1483760116819113 -24.829270431113706 19.757533610666592 #
edge $-1 $571 1 $571 0 $351 $-1 forward 7 unknown #
vertex $-1 $352 $572 #
ellipse-curve $-1 -9.0323114343937689 -31.168043062002173 9.5410400757193052 0 -0.77714596973225614 0.62932038083071107 1.5 0 0 1 I I #
point $-1 -7.5323114343937689 -32.336323488957838 10.487094886326002 #
edge $-1 $573 1 $573 0 $355 $-1 forward 7 unknown #
vertex $-1 $356 $574 #
ellipse-curve $-1 1.8761010332516435 -31.168043062002173 9.5410400757193052 0 -0.77714596973225614 0.62932038083071107 1.5 0 0 1 I I #
point $-1 3.3761010332516435 -32.336323488957838 10.487094886326002 #
plane-surface $-1 59.288918729209264 0 0 -1 0 0 0 0 1 forward_v I I I I #
coedge $-1 $364 $362 $366 $503 reversed $241 $-1 #
edge $-1 $377 -19.757533610666592 $505 19.757533610666592 $376 $575 forward 7 unknown #
vertex $-1 $503 $576 #
straight-curve $-1 -59.288918729209264 -39.843376546801991 0 0 0 -1 I I #
edge $-1 $501 -39.843376546801991 $505 39.843376546801991 $499 $577 forward 7 unknown #
straight-curve $-1 0 -39.843376546801991 -19.757533610666592 -1 0 0 I I #
vertex $-1 $369 $578 #
straight-curve $-1 0 39.843376546801991 -19.757533610666592 1 0 0 I I #
point $-1 59.288918729209264 39.843376546801991 -19.757533610666592 #
point $-1 59.288918729209264 -39.843376546801991 -19.757533610666592 #
straight-curve $-1 -59.288918729209264 0 19.757533610666592 0 -1 0 I I #
point $-1 -59.288918729209264 39.843376546801991 19.757533610666592 #
point $-1 -59.288918729209264 -39.843376546801991 19.757533610666592 #
straight-curve $-1 59.288918729209264 -39.843376546801991 0 0 0 -1 I I #
straight-curve $-1 59.288918729209264 39.843376546801991 0 0 0 -1 I I #
edge $-1 $515 53.962229802141856 $518 58.651433376348564 $387 $579 forward 7 unknown #
vertex $-1 $401 $580 #
straight-curve $-1 -29.644459364604629 46.79429707642938 19.757533610666592 0 1 0 I I #
edge $-1 $518 9.8667774640592789 $398 29.68858633703142 $397 $581 forward 7 unknown #
vertex $-1 $517 $582 #
straight-curve $-1 -29.644459364604629 -4.7168893298965315 81.131643029367979 0 -0.55919289150049634 0.82903758062907751 I I #
point $-1 -29.644459364604629 36.680468897301473 19.757533610666592 #
point $-1 -49.46626823757677 39.843376546801991 15.068330036459884 #
straight-curve $-1 0 39.843376546801991 19.757533610666592 -1 0 0 I I #
vertex $-1 $404 $583 #
point $-1 -38.555363801090699 35.538271012871142 15.575805606026448 #
coedge $-1 $419 $418 $411 $526 forward $408 $-1 #
edge $-1 $527 53.962229802141856 $530 58.651433376348564 $525 $584 forward 7 unknown #
vertex $-1 $423 $585 #
straight-curve $-1 -1.7763568394002505e-015 46.79429707642938 19.757533610666592 0 1 0 I I #
edge $-1 $530 -4.9554522182430336 $420 14.866356654729106 $419 $586 forward 7 unknown #
vertex $-1 $529 $587 #
straight-curve $-1 -1.7763568394002505e-015 -4.7168893298965315 81.131643029367979 0 -0.55919289150049634 0.82903758062907751 I I #
point $-1 -1.7763568394002505e-015 36.680468897301473 19.757533610666592 #
point $-1 -19.821808872972142 39.843376546801991 15.068330036459884 #
straight-curve $-1 0 39.843376546801991 19.757533610666592 -1 0 0 I I #
vertex $-1 $426 $588 #
point $-1 -8.9109044364860708 35.538271012871142 15.575805606026448 #
coedge $-1 $441 $440 $433 $538 forward $430 $-1 #
edge $-1 $539 53.962229802141856 $542 58.651433376348564 $537 $589 forward 7 unknown #
vertex $-1 $445 $590 #
straight-curve $-1 29.644459364604629 46.79429707642938 19.757533610666592 0 1 0 I I #
edge $-1 $542 -19.77768190054535 $442 0.04412697242679009 $441 $591 forward 7 unknown #
vertex $-1 $541 $592 #
straight-curve $-1 29.644459364604629 -4.7168893298965315 81.131643029367979 0 -0.55919289150049634 0.82903758062907751 I I #
point $-1 29.644459364604629 36.680468897301473 19.757533610666592 #
point $-1 9.8226504916324888 39.843376546801991 15.068330036459884 #
straight-curve $-1 0 39.843376546801991 19.757533610666592 -1 0 0 I I #
vertex $-1 $448 $593 #
point $-1 20.733554928118558 35.538271012871142 15.575805606026448 #
edge $-1 $552 -34.599911582847668 $462 -14.778102709875522 $461 $594 forward 7 unknown #
coedge $-1 $551 $455 $556 $595 reversed $452 $-1 #
coedge $-1 $455 $550 $457 $554 reversed $452 $-1 #
vertex $-1 $456 $596 #
straight-curve $-1 59.288918729209264 14.826575668568466 52.15726373073182 0 0.55919289150049634 -0.82903758062907751 I I #
edge $-1 $458 36.680468897301473 $558 39.843376546801991 $551 $597 forward 7 unknown #
point $-1 59.288918729209257 36.680468897301473 19.757533610666592 #
coedge $-1 $461 $460 $550 $595 forward $318 $-1 #
point $-1 39.467109856237116 39.843376546801991 15.068330036459884 #
vertex $-1 $554 $598 #
straight-curve $-1 0 39.843376546801991 19.757533610666592 -1 0 0 I I #
vertex $-1 $468 $599 #
point $-1 50.378014292723186 35.538271012871142 15.575805606026448 #
edge $-1 $563 18.162519384033168 $566 36.703396832714333 $473 $600 forward 7 unknown #
vertex $-1 $487 $601 #
straight-curve $-1 -16.304586412824044 -65.997832513589259 19.757533610666592 0 -1 0 I I #
edge $-1 $566 -14.515533812538511 $484 10.937428611967444 $483 $602 forward 7 unknown #
vertex $-1 $565 $603 #
straight-curve $-1 -16.304586412824044 -39.843376546802006 1.2166561619854122 0 0.62932038083071107 0.77714596973225614 I I #
point $-1 -16.304586412824044 -24.829270431113706 19.757533610666592 #
point $-1 9.1483760116819113 -39.843376546801991 1.2166561619854297 #
straight-curve $-1 0 -39.843376546801991 19.757533610666592 1 0 0 I I #
vertex $-1 $490 $604 #
point $-1 -7.5323114343937689 -31.168043062002173 9.5410400757193052 #
vertex $-1 $494 $605 #
point $-1 3.3761010332516435 -31.168043062002173 9.5410400757193052 #
straight-curve $-1 -59.288918729209264 39.843376546801991 0 0 0 -1 I I #
point $-1 -59.288918729209264 -39.843376546801991 -19.757533610666592 #
straight-curve $-1 -59.288918729209264 0 -19.757533610666592 0 1 0 I I #
point $-1 -59.288918729209264 39.843376546801991 -19.757533610666592 #
straight-curve $-1 -29.644459364604629 39.843376546801991 73.719763412808447 0 0 -1 I I #
point $-1 -29.644459364604629 39.843376546801991 19.757533610666592 #
straight-curve $-1 -19.77768190054535 39.843376546801991 15.068330036459887 -1 0 0 I I #
point $-1 -29.644459364604629 39.843376546801991 15.068330036459884 #
point $-1 -39.555363801090699 34.709233432242065 15.01661271452595 #
straight-curve $-1 -1.7763568394002505e-015 39.843376546801991 73.719763412808447 0 0 -1 I I #
point $-1 -1.7763568394002505e-015 39.843376546801991 19.757533610666592 #
straight-curve $-1 -4.9554522182430354 39.843376546801991 15.068330036459887 -1 0 0 I I #
point $-1 -1.7763568394002505e-015 39.843376546801991 15.068330036459884 #
point $-1 -9.9109044364860708 34.709233432242065 15.01661271452595 #
straight-curve $-1 29.644459364604629 39.843376546801991 73.719763412808447 0 0 -1 I I #
point $-1 29.644459364604629 39.843376546801991 19.757533610666592 #
straight-curve $-1 9.8667774640592789 39.843376546801991 15.068330036459887 -1 0 0 I I #
point $-1 29.644459364604629 39.843376546801991 15.068330036459884 #
point $-1 19.733554928118558 34.709233432242065 15.01661271452595 #
straight-curve $-1 24.689007146361593 39.843376546801991 15.068330036459887 -1 0 0 I I #
edge $-1 $558 -19.757533610666592 $552 -15.068330036459884 $550 $606 forward 7 unknown #
point $-1 59.288918729209257 39.843376546801991 15.068330036459884 #
straight-curve $-1 59.288918729209264 0 19.757533610666592 0 1 0 I I #
point $-1 59.288918729209264 39.843376546801991 19.757533610666592 #
point $-1 49.378014292723186 34.709233432242065 15.01661271452595 #
straight-curve $-1 -16.304586412824044 -39.843376546801991 37.920052994699759 0 0 -1 I I #
point $-1 -16.304586412824044 -39.843376546801991 19.757533610666592 #
straight-curve $-1 -1.7890526002855331 -39.843376546801991 1.2166561619854335 1 0 0 I I #
point $-1 -16.304586412824044 -39.843376546801991 1.2166561619854297 #
point $-1 -9.0323114343937689 -30.002324107403791 8.5970595044732399 #
point $-1 1.8761010332516435 -30.002324107403791 8.5970595044732399 #
straight-curve $-1 59.288918729209264 39.843376546801991 0 0 0 -1 I I #
End-of-ACIS-data 