500 0 9 0           
7 Unknown 11 ACIS 5.0 NT 24 Fri Mar 26 18:55:16 1999 
-1 9.9999999999999995e-007 1e-010 
body $-1 $9 $-1 $10 #
body $-1 $11 $-1 $12 #
body $-1 $13 $-1 $14 #
body $-1 $15 $-1 $16 #
body $-1 $17 $-1 $18 #
body $-1 $19 $-1 $20 #
body $-1 $21 $-1 $22 #
body $-1 $23 $-1 $24 #
body $-1 $25 $-1 $26 #
lump $-1 $-1 $27 $0 #
transform $-1 1 0 0 0 1 0 0 0 1 53.48551896725364 29.754186649454827 13.249135140421782 1 rotate no_reflect no_shear #
lump $-1 $-1 $28 $1 #
transform $-1 1 0 0 0 1 0 0 0 1 53.48551896725364 29.754186649454827 13.249135140421782 1 rotate no_reflect no_shear #
lump $-1 $-1 $29 $2 #
transform $-1 1 0 0 0 1 0 0 0 1 53.48551896725364 29.754186649454827 13.249135140421782 1 rotate no_reflect no_shear #
lump $-1 $-1 $30 $3 #
transform $-1 1 0 0 0 1 0 0 0 1 53.48551896725364 29.754186649454827 13.249135140421782 1 rotate no_reflect no_shear #
lump $-1 $-1 $31 $4 #
transform $-1 1 0 0 0 1 0 0 0 1 53.48551896725364 29.754186649454827 13.249135140421782 1 rotate no_reflect no_shear #
lump $-1 $-1 $32 $5 #
transform $-1 1 0 0 0 1 0 0 0 1 53.48551896725364 29.754186649454827 13.249135140421782 1 rotate no_reflect no_shear #
lump $-1 $-1 $33 $6 #
transform $-1 1 0 0 0 1 0 0 0 1 53.48551896725364 29.754186649454827 13.249135140421782 1 rotate no_reflect no_shear #
lump $-1 $-1 $34 $7 #
transform $-1 1 0 0 0 1 0 0 0 1 53.48551896725364 29.754186649454827 13.249135140421782 1 rotate no_reflect no_shear #
lump $-1 $-1 $35 $8 #
transform $-1 1 0 0 0 1 0 0 0 1 53.48551896725364 29.754186649454827 13.249135140421782 1 rotate no_reflect no_shear #
shell $-1 $-1 $-1 $36 $-1 $9 #
shell $-1 $-1 $-1 $37 $-1 $11 #
shell $-1 $-1 $-1 $38 $-1 $13 #
shell $-1 $-1 $-1 $39 $-1 $15 #
shell $-1 $-1 $-1 $40 $-1 $17 #
shell $-1 $-1 $-1 $41 $-1 $19 #
shell $-1 $-1 $-1 $42 $-1 $21 #
shell $-1 $-1 $-1 $43 $-1 $23 #
shell $-1 $-1 $-1 $44 $-1 $25 #
face $-1 $45 $46 $27 $-1 $47 forward single #
face $-1 $48 $49 $28 $-1 $50 reversed single #
face $-1 $51 $52 $29 $-1 $53 reversed single #
face $-1 $54 $55 $30 $-1 $56 reversed single #
face $-1 $57 $58 $31 $-1 $59 forward single #
face $-1 $60 $61 $32 $-1 $62 forward single #
face $-1 $63 $64 $33 $-1 $65 reversed single #
face $-1 $66 $67 $34 $-1 $68 forward single #
face $-1 $69 $70 $35 $-1 $71 forward single #
face $-1 $72 $73 $27 $-1 $74 reversed single #
loop $-1 $-1 $75 $36 #
plane-surface $-1 0 0 13.249135140421782 0 0 1 1 0 0 forward_v I I I I #
face $-1 $76 $77 $28 $-1 $78 reversed single #
loop $-1 $-1 $79 $37 #
plane-surface $-1 -46.760205081799135 -23.272473763685934 0 0 -1 0 0 0 -1 forward_v I I I I #
face $-1 $80 $81 $29 $-1 $82 reversed single #
loop $-1 $-1 $83 $38 #
plane-surface $-1 40.034891196344624 -26.51333020657038 0 1 0 0 0 0 -1 forward_v I I I I #
face $-1 $84 $85 $30 $-1 $86 reversed single #
loop $-1 $-1 $87 $39 #
plane-surface $-1 13.604346837770642 52.927786984010396 122.20235109804345 1 0 0 0 -0.64278761758704617 -0.76604443648966558 forward_v I I I I #
face $-1 $88 $89 $31 $-1 $90 forward single #
loop $-1 $91 $92 $40 #
cone-surface $-1 19.277223319556043 20.747484435821406 4.8778658882594268 0 -0.64278761758704617 -0.76604443648966558 2 0 0 1 I I 0 1 2 forward I I I I #
face $-1 $93 $94 $32 $-1 $95 forward single #
loop $-1 $96 $97 $41 #
cone-surface $-1 27.786538042234142 20.747484435821406 4.8778658882594268 0 -0.64278761758704617 -0.76604443648966558 2 0 0 1 I I 0 1 2 forward I I I I #
face $-1 $98 $99 $33 $-1 $100 reversed single #
loop $-1 $-1 $101 $42 #
plane-surface $-1 22.990464206774426 -105.3941338411247 85.116180618608766 1 0 0 0 0.70710678939079041 -0.70710677298230451 forward_v I I I I #
face $-1 $102 $103 $34 $-1 $104 forward single #
loop $-1 $105 $106 $43 #
cone-surface $-1 27.860300489508774 -26.996655470562619 10.491603937967838 0 0.70710678939079041 -0.70710677298230451 1 0 0 1 I I 0 1 1 forward I I I I #
face $-1 $107 $108 $35 $-1 $109 forward single #
loop $-1 $110 $111 $44 #
cone-surface $-1 35.165054913610291 -26.996655470562619 10.491603937967838 0 0.70710678939079041 -0.70710677298230451 1 0 0 1 I I 0 1 1 forward I I I I #
face $-1 $112 $113 $27 $-1 $114 reversed single #
loop $-1 $-1 $115 $45 #
plane-surface $-1 0 0 -13.249135140421782 0 0 1 1 0 0 forward_v I I I I #
coedge $-1 $116 $117 $118 $119 forward $46 $-1 #
face $-1 $120 $121 $28 $-1 $122 forward single #
loop $-1 $-1 $123 $48 #
plane-surface $-1 -40.034891196344631 -26.51333020657038 0 -1 0 0 0 0 1 forward_v I I I I #
coedge $-1 $124 $125 $126 $127 forward $49 $-1 #
face $-1 $128 $129 $29 $-1 $130 forward single #
loop $-1 $-1 $131 $51 #
plane-surface $-1 46.760205081799128 -23.272473763685934 0 0 -1 0 0 0 -1 forward_v I I I I #
coedge $-1 $132 $133 $134 $135 forward $52 $-1 #
face $-1 $136 $137 $30 $-1 $138 reversed single #
loop $-1 $-1 $139 $54 #
plane-surface $-1 23.5318806808951 -15.831871640725083 40.257782622789179 0 0.64278761758704617 0.76604443648966558 1 0 0 forward_v I I I I #
coedge $-1 $140 $141 $142 $143 reversed $55 $-1 #
face $-1 $-1 $144 $31 $-1 $145 forward single #
loop $-1 $146 $147 $57 #
cone-surface $-1 19.277223319556043 17.797197752664456 1.3618512080670619 0 -0.64278761758704617 -0.76604443648966558 1 0 0 1 I I -0.70710678118654746 0.70710678118654746 1 forward I I I I #
loop $-1 $-1 $148 $40 #
coedge $-1 $92 $92 $149 $150 reversed $58 $-1 #
face $-1 $-1 $151 $32 $-1 $152 forward single #
loop $-1 $153 $154 $60 #
cone-surface $-1 27.786538042234142 17.797197752664456 1.3618512080670619 0 -0.64278761758704617 -0.76604443648966558 1 0 0 1 I I -0.70710678118654746 0.70710678118654746 1 forward I I I I #
loop $-1 $-1 $155 $41 #
coedge $-1 $97 $97 $156 $157 reversed $61 $-1 #
face $-1 $158 $159 $33 $-1 $160 forward single #
loop $-1 $-1 $161 $63 #
plane-surface $-1 31.512677701559525 -29.754186649454809 9.4762351821716493 0 -0.70710678939079041 0.70710677298230451 1 0 0 forward_v I I I I #
coedge $-1 $162 $163 $164 $165 reversed $64 $-1 #
face $-1 $-1 $166 $34 $-1 $167 forward single #
loop $-1 $168 $169 $66 #
cone-surface $-1 27.860300489508774 -25.77202083232482 9.2669693281478125 0 0.70710678939079041 -0.70710677298230451 0.5 0 0 1 I I -0.70710678118654746 0.70710678118654746 0.5 forward I I I I #
loop $-1 $-1 $170 $43 #
coedge $-1 $106 $106 $171 $172 reversed $67 $-1 #
face $-1 $-1 $173 $35 $-1 $174 forward single #
loop $-1 $175 $176 $69 #
cone-surface $-1 35.165054913610291 -25.77202083232482 9.2669693281478125 0 0.70710678939079041 -0.70710677298230451 0.5 0 0 1 I I -0.70710678118654746 0.70710678118654746 0.5 forward I I I I #
loop $-1 $-1 $177 $44 #
coedge $-1 $111 $111 $178 $179 reversed $70 $-1 #
face $-1 $180 $181 $27 $-1 $182 reversed single #
loop $-1 $-1 $183 $72 #
plane-surface $-1 0 -29.754186649454827 0 0 1 0 0 0 1 forward_v I I I I #
coedge $-1 $184 $185 $186 $187 forward $73 $-1 #
coedge $-1 $188 $75 $189 $190 forward $46 $-1 #
coedge $-1 $75 $188 $191 $192 forward $46 $-1 #
coedge $-1 $193 $194 $75 $119 reversed $195 $-1 #
edge $-1 $196 -29.754186649454827 $197 29.754186649454827 $118 $198 forward 7 unknown #
face $-1 $199 $200 $28 $-1 $201 reversed single #
loop $-1 $-1 $202 $76 #
plane-surface $-1 0 0 13.249135140421782 0 0 1 1 0 0 forward_v I I I I #
coedge $-1 $203 $204 $205 $206 reversed $77 $-1 #
coedge $-1 $207 $79 $208 $209 reversed $49 $-1 #
coedge $-1 $79 $207 $210 $211 reversed $49 $-1 #
coedge $-1 $204 $203 $79 $127 reversed $77 $-1 #
edge $-1 $212 -13.249135140421782 $213 13.249135140421782 $126 $214 forward 7 unknown #
face $-1 $215 $216 $29 $-1 $217 reversed single #
loop $-1 $-1 $218 $80 #
plane-surface $-1 0 0 13.249135140421782 0 0 1 1 0 0 forward_v I I I I #
coedge $-1 $219 $220 $221 $222 reversed $81 $-1 #
coedge $-1 $223 $83 $224 $225 reversed $52 $-1 #
coedge $-1 $83 $223 $226 $227 reversed $52 $-1 #
coedge $-1 $220 $219 $83 $135 reversed $81 $-1 #
edge $-1 $228 -13.249135140421782 $229 13.249135140421782 $134 $230 forward 7 unknown #
face $-1 $231 $232 $30 $-1 $233 reversed single #
loop $-1 $-1 $234 $84 #
plane-surface $-1 33.459414524019557 52.927786984010396 122.20235109804345 -1 0 0 0 0.64278761758704617 0.76604443648966558 forward_v I I I I #
coedge $-1 $235 $236 $237 $238 reversed $85 $-1 #
coedge $-1 $141 $87 $239 $240 reversed $55 $-1 #
coedge $-1 $87 $140 $235 $241 reversed $55 $-1 #
coedge $-1 $237 $242 $87 $143 forward $243 $-1 #
edge $-1 $244 -3.2902931574496286 $245 10.108113138677446 $142 $246 forward 7 unknown #
loop $-1 $-1 $149 $88 #
plane-surface $-1 23.5318806808951 -15.831871640725083 40.257782622789179 0 0.64278761758704617 0.76604443648966558 1 0 0 forward_v I I I I #
loop $-1 $-1 $247 $57 #
coedge $-1 $147 $147 $148 $248 reversed $89 $-1 #
coedge $-1 $148 $148 $147 $248 forward $91 $-1 #
coedge $-1 $149 $149 $92 $150 forward $144 $-1 #
edge $-1 $249 1.0947404663019302e-015 $249 6.2831853071796013 $149 $250 forward 7 unknown #
loop $-1 $-1 $156 $93 #
plane-surface $-1 23.5318806808951 -15.831871640725083 40.257782622789179 0 0.64278761758704617 0.76604443648966558 1 0 0 forward_v I I I I #
loop $-1 $-1 $251 $60 #
coedge $-1 $154 $154 $155 $252 reversed $94 $-1 #
coedge $-1 $155 $155 $154 $252 forward $96 $-1 #
coedge $-1 $156 $156 $97 $157 forward $151 $-1 #
edge $-1 $253 1.0947404663019302e-015 $253 6.2831853071796013 $156 $254 forward 7 unknown #
face $-1 $255 $256 $33 $-1 $257 reversed single #
loop $-1 $-1 $258 $98 #
plane-surface $-1 0 0 13.249135140421782 0 0 1 1 0 0 forward_v I I I I #
coedge $-1 $259 $260 $261 $262 reversed $99 $-1 #
coedge $-1 $163 $101 $263 $264 reversed $64 $-1 #
coedge $-1 $101 $162 $259 $265 reversed $64 $-1 #
coedge $-1 $261 $266 $101 $165 forward $256 $-1 #
edge $-1 $267 29.308955168882601 $268 33.081855127132755 $164 $269 forward 7 unknown #
loop $-1 $-1 $171 $102 #
plane-surface $-1 31.512677701559525 -29.754186649454809 9.4762351821716493 0 -0.70710678939079041 0.70710677298230451 1 0 0 forward_v I I I I #
loop $-1 $-1 $270 $66 #
coedge $-1 $169 $169 $170 $271 reversed $103 $-1 #
coedge $-1 $170 $170 $169 $271 forward $105 $-1 #
coedge $-1 $171 $171 $106 $172 forward $166 $-1 #
edge $-1 $272 1.1658930398033448e-022 $272 6.2831853071796004 $171 $273 forward 7 unknown #
loop $-1 $-1 $178 $107 #
plane-surface $-1 31.512677701559525 -29.754186649454809 9.4762351821716493 0 -0.70710678939079041 0.70710677298230451 1 0 0 forward_v I I I I #
loop $-1 $-1 $274 $69 #
coedge $-1 $176 $176 $177 $275 reversed $108 $-1 #
coedge $-1 $177 $177 $176 $275 forward $110 $-1 #
coedge $-1 $178 $178 $111 $179 forward $173 $-1 #
edge $-1 $276 1.1658930398033448e-022 $276 6.2831853071796004 $178 $277 forward 7 unknown #
face $-1 $278 $279 $27 $-1 $280 reversed single #
loop $-1 $-1 $281 $112 #
plane-surface $-1 -53.48551896725364 0 0 1 0 0 0 0 -1 forward_v I I I I #
coedge $-1 $282 $191 $283 $284 forward $113 $-1 #
coedge $-1 $285 $115 $282 $286 forward $73 $-1 #
coedge $-1 $115 $285 $287 $288 forward $73 $-1 #
coedge $-1 $194 $193 $115 $187 reversed $195 $-1 #
edge $-1 $289 -29.754186649454827 $290 29.754186649454827 $186 $291 forward 7 unknown #
coedge $-1 $117 $116 $292 $293 forward $46 $-1 #
coedge $-1 $294 $295 $116 $190 reversed $279 $-1 #
edge $-1 $197 -53.48551896725364 $296 53.48551896725364 $189 $297 forward 7 unknown #
coedge $-1 $183 $298 $117 $192 reversed $113 $-1 #
edge $-1 $299 -53.48551896725364 $196 53.48551896725364 $191 $300 forward 7 unknown #
coedge $-1 $186 $118 $298 $301 forward $195 $-1 #
coedge $-1 $118 $186 $294 $302 reversed $195 $-1 #
loop $-1 $-1 $193 $278 #
vertex $-1 $119 $303 #
vertex $-1 $119 $304 #
straight-curve $-1 53.48551896725364 0 13.249135140421782 0 1 0 I I #
face $-1 $305 $306 $28 $-1 $307 reversed single #
loop $-1 $-1 $308 $120 #
plane-surface $-1 -53.48551896725364 0 0 1 0 0 0 0 -1 forward_v I I I I #
coedge $-1 $210 $309 $204 $310 forward $121 $-1 #
coedge $-1 $126 $123 $311 $312 reversed $77 $-1 #
coedge $-1 $123 $126 $202 $310 reversed $77 $-1 #
coedge $-1 $313 $314 $123 $206 forward $315 $-1 #
edge $-1 $316 -13.249135140421782 $317 13.249135140421782 $205 $318 forward 7 unknown #
coedge $-1 $125 $124 $308 $319 reversed $49 $-1 #
coedge $-1 $311 $320 $124 $209 forward $306 $-1 #
edge $-1 $321 -30.105416426354072 $213 -16.654788655445063 $208 $322 forward 7 unknown #
coedge $-1 $323 $202 $125 $211 forward $121 $-1 #
edge $-1 $212 16.654788655445063 $324 30.105416426354072 $210 $325 forward 7 unknown #
vertex $-1 $211 $326 #
vertex $-1 $209 $327 #
straight-curve $-1 -40.034891196344631 -23.272473763685934 0 0 0 -1 I I #
face $-1 $328 $329 $29 $-1 $330 reversed single #
loop $-1 $-1 $331 $128 #
plane-surface $-1 0 -29.754186649454827 0 0 1 0 0 0 1 forward_v I I I I #
coedge $-1 $226 $332 $220 $333 forward $129 $-1 #
coedge $-1 $134 $131 $334 $335 reversed $81 $-1 #
coedge $-1 $131 $134 $218 $333 reversed $81 $-1 #
coedge $-1 $336 $337 $131 $222 forward $338 $-1 #
edge $-1 $339 -13.249135140421782 $340 13.249135140421782 $221 $341 forward 7 unknown #
coedge $-1 $133 $132 $331 $342 reversed $52 $-1 #
coedge $-1 $334 $343 $132 $225 forward $329 $-1 #
edge $-1 $344 -16.497521546169637 $229 -10.015808660400744 $224 $345 forward 7 unknown #
coedge $-1 $346 $218 $133 $227 forward $129 $-1 #
edge $-1 $228 10.015808660400744 $347 16.497521546169637 $226 $348 forward 7 unknown #
vertex $-1 $227 $349 #
vertex $-1 $225 $350 #
straight-curve $-1 40.034891196344624 -23.272473763685934 0 0 0 -1 I I #
face $-1 $-1 $243 $30 $-1 $351 forward single #
loop $-1 $-1 $352 $136 #
plane-surface $-1 0 29.754186649454827 0 0 -1 0 0 0 -1 forward_v I I I I #
coedge $-1 $353 $354 $355 $356 reversed $137 $-1 #
coedge $-1 $357 $139 $141 $241 forward $85 $-1 #
coedge $-1 $139 $357 $353 $358 forward $85 $-1 #
coedge $-1 $355 $142 $139 $238 forward $243 $-1 #
edge $-1 $245 1.838406497323092 $359 21.693474183572008 $237 $360 forward 7 unknown #
coedge $-1 $361 $362 $140 $240 forward $232 $-1 #
edge $-1 $363 -59.094638425519271 $244 -47.852040408599947 $239 $364 forward 7 unknown #
edge $-1 $245 42.017995903148972 $363 59.508373298909646 $141 $365 forward 7 unknown #
coedge $-1 $142 $355 $361 $366 forward $243 $-1 #
loop $-1 $-1 $355 $231 #
vertex $-1 $240 $367 #
vertex $-1 $143 $368 #
straight-curve $-1 13.604346837770642 26.463893492005198 13.249135140421785 0 -1 0 I I #
coedge $-1 $247 $247 $-1 $369 reversed $146 $-1 #
edge $-1 $370 0 $370 6.2831853071796004 $147 $371 forward 7 unknown #
vertex $-1 $150 $372 #
ellipse-curve $-1 19.277223319556043 23.054983501391295 7.6278361319621091 0 0.64278761758704617 0.76604443648966558 2 0 0 1 I I #
coedge $-1 $251 $251 $-1 $373 reversed $153 $-1 #
edge $-1 $374 0 $374 6.2831853071796004 $154 $375 forward 7 unknown #
vertex $-1 $157 $376 #
ellipse-curve $-1 27.786538042234142 23.054983501391295 7.6278361319621091 0 0.64278761758704617 0.76604443648966558 2 0 0 1 I I #
face $-1 $-1 $377 $33 $-1 $378 forward single #
loop $-1 $-1 $164 $158 #
plane-surface $-1 0 -29.754186649454827 0 0 1 0 0 0 1 forward_v I I I I #
coedge $-1 $263 $379 $380 $381 forward $159 $-1 #
coedge $-1 $380 $161 $163 $265 forward $99 $-1 #
coedge $-1 $161 $380 $382 $383 reversed $99 $-1 #
coedge $-1 $384 $164 $161 $262 forward $256 $-1 #
edge $-1 $268 7.2341253559946637 $385 24.278552345564862 $261 $386 forward 7 unknown #
coedge $-1 $387 $258 $162 $264 forward $159 $-1 #
edge $-1 $388 -26.715780141807141 $267 -22.942880271107523 $263 $389 forward 7 unknown #
edge $-1 $268 -2.5121479338940405e-014 $388 5.3356862285266482 $163 $390 forward 7 unknown #
coedge $-1 $164 $384 $387 $391 reversed $256 $-1 #
vertex $-1 $391 $392 #
vertex $-1 $165 $393 #
straight-curve $-1 22.990464206774426 -29.754186649454823 42.558090309304383 0 0 -1 I I #
coedge $-1 $270 $270 $-1 $394 reversed $168 $-1 #
edge $-1 $395 0 $395 6.2831853071796004 $169 $396 forward 7 unknown #
vertex $-1 $172 $397 #
ellipse-curve $-1 27.860300489508774 -27.867736714105018 11.362685161296707 0 -0.70710678939079041 0.70710677298230451 1 0 0 1 I I #
coedge $-1 $274 $274 $-1 $398 reversed $175 $-1 #
edge $-1 $399 0 $399 6.2831853071796004 $176 $400 forward 7 unknown #
vertex $-1 $179 $401 #
ellipse-curve $-1 35.165054913610291 -27.867736714105018 11.362685161296707 0 -0.70710678939079041 0.70710677298230451 1 0 0 1 I I #
face $-1 $-1 $195 $27 $-1 $402 reversed single #
loop $-1 $-1 $294 $180 #
plane-surface $-1 0 29.754186649454827 0 0 -1 0 0 0 -1 forward_v I I I I #
coedge $-1 $403 $292 $295 $404 forward $181 $-1 #
coedge $-1 $298 $183 $184 $286 reversed $113 $-1 #
coedge $-1 $292 $403 $183 $284 reversed $181 $-1 #
edge $-1 $299 -13.249135140421782 $405 13.249135140421782 $283 $406 forward 7 unknown #
coedge $-1 $185 $184 $403 $407 forward $73 $-1 #
edge $-1 $290 -53.48551896725364 $405 53.48551896725364 $282 $408 forward 7 unknown #
coedge $-1 $295 $294 $185 $288 reversed $279 $-1 #
edge $-1 $409 -53.48551896725364 $289 53.48551896725364 $287 $410 forward 7 unknown #
vertex $-1 $187 $411 #
vertex $-1 $301 $412 #
straight-curve $-1 53.48551896725364 0 -13.249135140421782 0 -1 0 I I #
coedge $-1 $281 $283 $188 $293 reversed $181 $-1 #
edge $-1 $296 -29.754186649454827 $299 29.754186649454827 $292 $413 forward 7 unknown #
coedge $-1 $287 $189 $194 $302 forward $279 $-1 #
coedge $-1 $189 $287 $281 $404 reversed $279 $-1 #
vertex $-1 $190 $414 #
straight-curve $-1 0 29.754186649454827 13.249135140421782 -1 0 0 I I #
coedge $-1 $191 $282 $193 $301 reversed $113 $-1 #
vertex $-1 $293 $415 #
straight-curve $-1 0 -29.754186649454827 13.249135140421782 1 0 0 I I #
edge $-1 $196 -13.249135140421782 $290 13.249135140421782 $193 $416 forward 7 unknown #
edge $-1 $197 -13.249135140421782 $289 13.249135140421782 $194 $417 forward 7 unknown #
point $-1 53.48551896725364 -29.754186649454827 13.249135140421782 #
point $-1 53.48551896725364 29.754186649454827 13.249135140421782 #
face $-1 $-1 $315 $28 $-1 $418 reversed single #
loop $-1 $-1 $311 $199 #
plane-surface $-1 0 0 -13.249135140421782 0 0 1 1 0 0 forward_v I I I I #
coedge $-1 $419 $420 $207 $319 forward $200 $-1 #
coedge $-1 $202 $323 $313 $421 forward $121 $-1 #
edge $-1 $317 -16.497521546169637 $212 -10.015808660400744 $202 $422 forward 7 unknown #
coedge $-1 $423 $208 $203 $312 forward $306 $-1 #
edge $-1 $213 10.015808660400744 $316 16.497521546169637 $311 $424 forward 7 unknown #
coedge $-1 $425 $205 $309 $421 reversed $315 $-1 #
coedge $-1 $205 $425 $423 $426 reversed $315 $-1 #
loop $-1 $-1 $205 $305 #
vertex $-1 $426 $427 #
vertex $-1 $206 $428 #
straight-curve $-1 -40.034891196344631 -29.754186649454827 0 0 0 1 I I #
edge $-1 $324 -13.249135140421782 $321 13.249135140421782 $308 $429 forward 7 unknown #
coedge $-1 $208 $423 $419 $430 forward $306 $-1 #
vertex $-1 $209 $431 #
straight-curve $-1 -23.380102540899568 -23.272473763685934 -13.249135140421782 1 0 0 I I #
coedge $-1 $309 $210 $420 $432 forward $121 $-1 #
vertex $-1 $432 $433 #
straight-curve $-1 -23.380102540899568 -23.272473763685934 13.249135140421782 -1 0 0 I I #
point $-1 -40.034891196344631 -23.272473763685934 13.249135140421782 #
point $-1 -40.034891196344631 -23.272473763685934 -13.249135140421782 #
face $-1 $-1 $338 $29 $-1 $434 reversed single #
loop $-1 $-1 $334 $215 #
plane-surface $-1 0 0 -13.249135140421782 0 0 1 1 0 0 forward_v I I I I #
coedge $-1 $435 $436 $223 $342 forward $216 $-1 #
coedge $-1 $218 $346 $336 $437 forward $129 $-1 #
edge $-1 $340 -30.105416426354068 $228 -16.65478865544506 $218 $438 forward 7 unknown #
coedge $-1 $439 $224 $219 $335 forward $329 $-1 #
edge $-1 $229 16.65478865544506 $339 30.105416426354068 $334 $440 forward 7 unknown #
coedge $-1 $441 $221 $332 $437 reversed $338 $-1 #
coedge $-1 $221 $441 $439 $442 reversed $338 $-1 #
loop $-1 $-1 $221 $328 #
vertex $-1 $442 $443 #
vertex $-1 $222 $444 #
straight-curve $-1 53.48551896725364 -23.272473763685934 0 0 0 1 I I #
edge $-1 $347 -13.249135140421782 $344 13.249135140421782 $331 $445 forward 7 unknown #
coedge $-1 $224 $439 $435 $446 forward $329 $-1 #
vertex $-1 $225 $447 #
straight-curve $-1 40.034891196344624 -13.25666510328519 -13.249135140421782 0 1 0 I I #
coedge $-1 $332 $226 $436 $448 forward $129 $-1 #
vertex $-1 $448 $449 #
straight-curve $-1 40.034891196344624 -13.25666510328519 13.249135140421782 0 -1 0 I I #
point $-1 40.034891196344624 -23.272473763685934 13.249135140421782 #
point $-1 40.034891196344624 -23.272473763685934 -13.249135140421782 #
plane-surface $-1 0 0 13.249135140421782 0 0 1 1 0 0 forward_v I I I I #
coedge $-1 $362 $361 $354 $450 forward $232 $-1 #
coedge $-1 $354 $234 $236 $358 reversed $137 $-1 #
coedge $-1 $234 $353 $352 $450 reversed $137 $-1 #
coedge $-1 $242 $237 $234 $356 forward $243 $-1 #
edge $-1 $359 -10.108113138677446 $451 3.2902931574496286 $355 $452 forward 7 unknown #
coedge $-1 $236 $235 $362 $453 reversed $85 $-1 #
edge $-1 $454 -59.508373298909646 $359 -42.017995903148972 $353 $455 forward 7 unknown #
vertex $-1 $238 $456 #
straight-curve $-1 11.76594034044755 16.355780353327749 13.249135140421782 1 0 0 I I #
coedge $-1 $352 $239 $242 $366 reversed $232 $-1 #
coedge $-1 $239 $352 $357 $453 forward $232 $-1 #
vertex $-1 $240 $457 #
straight-curve $-1 13.604346837770642 29.754186649454827 61.101175549021725 0 0 1 I I #
straight-curve $-1 13.604346837770642 -15.831871640725083 40.257782622789179 0 0.76604443648966558 -0.64278761758704617 I I #
edge $-1 $451 -33.459414524019557 $244 -13.604346837770642 $361 $458 forward 7 unknown #
point $-1 13.604346837770642 29.754186649454827 13.249135140421782 #
point $-1 13.604346837770642 16.355780353327752 13.249135140421782 #
edge $-1 $459 1 $459 0 $247 $-1 forward 7 unknown #
vertex $-1 $248 $460 #
ellipse-curve $-1 19.277223319556043 18.439985370251502 2.1278956445567276 0 0.64278761758704617 0.76604443648966558 2 0 0 1 I I #
point $-1 21.277223319556043 23.054983501391312 7.6278361319621268 #
edge $-1 $461 1 $461 0 $251 $-1 forward 7 unknown #
vertex $-1 $252 $462 #
ellipse-curve $-1 27.786538042234142 18.439985370251502 2.1278956445567276 0 0.64278761758704617 0.76604443648966558 2 0 0 1 I I #
point $-1 29.786538042234142 23.054983501391312 7.6278361319621268 #
loop $-1 $-1 $382 $255 #
plane-surface $-1 40.034891196344624 -26.51333020657038 0 1 0 0 0 0 -1 forward_v I I I I #
coedge $-1 $258 $387 $463 $464 forward $159 $-1 #
coedge $-1 $260 $259 $258 $381 reversed $99 $-1 #
edge $-1 $465 -24.278552345564862 $388 -7.2341253559946637 $258 $466 forward 7 unknown #
coedge $-1 $463 $467 $260 $383 forward $377 $-1 #
edge $-1 $385 2.2045393470752392 $465 7.5402255756019114 $382 $468 forward 7 unknown #
coedge $-1 $266 $261 $467 $469 forward $256 $-1 #
vertex $-1 $469 $470 #
straight-curve $-1 15.756338850779763 -29.754186649454827 9.476235182171628 1 0 0 I I #
coedge $-1 $379 $263 $266 $391 forward $159 $-1 #
vertex $-1 $264 $471 #
straight-curve $-1 22.990464206774426 -52.697066920562349 13.249135140421785 0 -1 0 I I #
straight-curve $-1 22.990464206774426 -29.754186649454809 9.4762351821716493 0 0.70710677298230451 0.70710678939079041 I I #
edge $-1 $267 22.990464206774426 $472 40.034891196344624 $266 $473 forward 7 unknown #
point $-1 22.990464206774426 -29.754186649454827 13.249135140421782 #
point $-1 22.990464206774426 -29.754186649454827 9.4762351821716315 #
edge $-1 $474 1 $474 0 $270 $-1 forward 7 unknown #
vertex $-1 $271 $475 #
ellipse-curve $-1 27.860300489508774 -26.125574227020216 9.6205227146389642 0 -0.70710678939079041 0.70710677298230451 1 0 0 1 I I #
point $-1 28.860300489508774 -27.867736714105025 11.362685161296714 #
edge $-1 $476 1 $476 0 $274 $-1 forward 7 unknown #
vertex $-1 $275 $477 #
ellipse-curve $-1 35.165054913610291 -26.125574227020216 9.6205227146389642 0 -0.70710678939079041 0.70710677298230451 1 0 0 1 I I #
point $-1 36.165054913610291 -27.867736714105025 11.362685161296714 #
plane-surface $-1 53.48551896725364 0 0 -1 0 0 0 0 1 forward_v I I I I #
coedge $-1 $283 $281 $285 $407 reversed $181 $-1 #
edge $-1 $296 -13.249135140421782 $409 13.249135140421782 $295 $478 forward 7 unknown #
vertex $-1 $407 $479 #
straight-curve $-1 -53.48551896725364 -29.754186649454827 0 0 0 -1 I I #
edge $-1 $405 -29.754186649454827 $409 29.754186649454827 $403 $480 forward 7 unknown #
straight-curve $-1 0 -29.754186649454827 -13.249135140421782 -1 0 0 I I #
vertex $-1 $288 $481 #
straight-curve $-1 0 29.754186649454827 -13.249135140421782 1 0 0 I I #
point $-1 53.48551896725364 29.754186649454827 -13.249135140421782 #
point $-1 53.48551896725364 -29.754186649454827 -13.249135140421782 #
straight-curve $-1 -53.48551896725364 0 13.249135140421782 0 -1 0 I I #
point $-1 -53.48551896725364 29.754186649454827 13.249135140421782 #
point $-1 -53.48551896725364 -29.754186649454827 13.249135140421782 #
straight-curve $-1 53.48551896725364 -29.754186649454827 0 0 0 -1 I I #
straight-curve $-1 53.48551896725364 29.754186649454827 0 0 0 -1 I I #
plane-surface $-1 0 -29.754186649454827 0 0 1 0 0 0 1 forward_v I I I I #
coedge $-1 $482 $308 $320 $430 reversed $200 $-1 #
coedge $-1 $308 $482 $323 $432 reversed $200 $-1 #
edge $-1 $483 -53.48551896725364 $317 -40.034891196344631 $313 $484 forward 7 unknown #
straight-curve $-1 -40.034891196344631 -13.25666510328519 13.249135140421782 0 1 0 I I #
coedge $-1 $320 $311 $314 $426 forward $306 $-1 #
straight-curve $-1 -40.034891196344631 -13.25666510328519 -13.249135140421782 0 -1 0 I I #
coedge $-1 $314 $313 $482 $485 forward $315 $-1 #
edge $-1 $316 40.034891196344631 $486 53.48551896725364 $314 $487 forward 7 unknown #
point $-1 -40.034891196344631 -29.754186649454827 -13.249135140421782 #
point $-1 -40.034891196344631 -29.754186649454827 13.249135140421782 #
straight-curve $-1 -53.48551896725364 -23.272473763685934 0 0 0 -1 I I #
edge $-1 $486 -29.754186649454827 $321 -23.272473763685934 $419 $488 forward 7 unknown #
point $-1 -53.48551896725364 -23.272473763685934 -13.249135140421782 #
edge $-1 $324 23.272473763685934 $483 29.754186649454827 $420 $489 forward 7 unknown #
point $-1 -53.48551896725364 -23.272473763685934 13.249135140421782 #
plane-surface $-1 53.48551896725364 0 0 -1 0 0 0 0 1 forward_v I I I I #
coedge $-1 $490 $331 $343 $446 reversed $216 $-1 #
coedge $-1 $331 $490 $346 $448 reversed $216 $-1 #
edge $-1 $491 -29.754186649454827 $340 -23.272473763685934 $336 $492 forward 7 unknown #
straight-curve $-1 23.380102540899564 -23.272473763685934 13.249135140421782 -1 0 0 I I #
coedge $-1 $343 $334 $337 $442 forward $329 $-1 #
straight-curve $-1 23.380102540899564 -23.272473763685934 -13.249135140421782 1 0 0 I I #
coedge $-1 $337 $336 $490 $493 forward $338 $-1 #
edge $-1 $339 23.272473763685934 $494 29.754186649454827 $337 $495 forward 7 unknown #
point $-1 53.485518967253633 -23.272473763685934 -13.249135140421782 #
point $-1 53.485518967253633 -23.272473763685934 13.249135140421782 #
straight-curve $-1 40.034891196344624 -29.754186649454827 0 0 0 -1 I I #
edge $-1 $494 -53.48551896725364 $344 -40.034891196344624 $435 $496 forward 7 unknown #
point $-1 40.034891196344624 -29.754186649454827 -13.249135140421782 #
edge $-1 $347 40.034891196344624 $491 53.48551896725364 $436 $497 forward 7 unknown #
point $-1 40.034891196344624 -29.754186649454827 13.249135140421782 #
edge $-1 $451 47.852040408599947 $454 59.094638425519271 $352 $498 forward 7 unknown #
vertex $-1 $366 $499 #
straight-curve $-1 33.459414524019557 26.463893492005198 13.249135140421785 0 1 0 I I #
edge $-1 $454 -21.693474183572008 $363 -1.838406497323092 $362 $500 forward 7 unknown #
vertex $-1 $453 $501 #
straight-curve $-1 33.459414524019557 -15.831871640725083 40.257782622789179 0 -0.76604443648966558 0.64278761758704617 I I #
point $-1 33.459414524019557 16.355780353327752 13.249135140421782 #
point $-1 13.604346837770642 29.754186649454823 2.0065371235024543 #
straight-curve $-1 0 29.754186649454827 13.249135140421782 -1 0 0 I I #
vertex $-1 $369 $502 #
point $-1 21.277223319556043 18.439985370251502 2.1278956445567276 #
vertex $-1 $373 $503 #
point $-1 29.786538042234142 18.439985370251502 2.1278956445567276 #
coedge $-1 $467 $382 $379 $464 reversed $377 $-1 #
edge $-1 $472 -16.497521546169637 $465 -12.724621675470019 $379 $504 forward 7 unknown #
vertex $-1 $383 $505 #
straight-curve $-1 15.756338850779763 -25.981286778755209 13.249135140421782 -1 0 0 I I #
coedge $-1 $382 $463 $384 $469 reversed $377 $-1 #
straight-curve $-1 40.034891196344624 -31.313031353077715 7.9173904423755896 0 0.70710677298230462 0.70710678939079052 I I #
edge $-1 $385 9.4762351821716315 $472 13.249135140421782 $384 $506 forward 7 unknown #
point $-1 40.034891196344624 -29.754186649454827 9.4762351821716315 #
point $-1 22.990464206774426 -25.981286778755209 13.249135140421782 #
vertex $-1 $469 $507 #
straight-curve $-1 0 -29.754186649454827 13.249135140421782 1 0 0 I I #
vertex $-1 $394 $508 #
point $-1 28.860300489508774 -26.125574227020216 9.6205227146389642 #
vertex $-1 $398 $509 #
point $-1 36.165054913610291 -26.125574227020216 9.6205227146389642 #
straight-curve $-1 -53.48551896725364 29.754186649454827 0 0 0 -1 I I #
point $-1 -53.48551896725364 -29.754186649454827 -13.249135140421782 #
straight-curve $-1 -53.48551896725364 0 -13.249135140421782 0 1 0 I I #
point $-1 -53.48551896725364 29.754186649454827 -13.249135140421782 #
coedge $-1 $420 $419 $425 $485 reversed $200 $-1 #
vertex $-1 $432 $510 #
straight-curve $-1 0 -29.754186649454827 13.249135140421782 1 0 0 I I #
edge $-1 $483 -13.249135140421782 $486 13.249135140421782 $482 $511 forward 7 unknown #
vertex $-1 $430 $512 #
straight-curve $-1 0 -29.754186649454827 -13.249135140421782 -1 0 0 I I #
straight-curve $-1 -53.48551896725364 0 -13.249135140421782 0 1 0 I I #
straight-curve $-1 -53.48551896725364 0 13.249135140421782 0 -1 0 I I #
coedge $-1 $436 $435 $441 $493 reversed $216 $-1 #
vertex $-1 $437 $513 #
straight-curve $-1 53.48551896725364 0 13.249135140421782 0 1 0 I I #
edge $-1 $491 -13.249135140421782 $494 13.249135140421782 $441 $514 forward 7 unknown #
vertex $-1 $493 $515 #
straight-curve $-1 53.48551896725364 0 -13.249135140421782 0 -1 0 I I #
straight-curve $-1 0 -29.754186649454827 -13.249135140421782 -1 0 0 I I #
straight-curve $-1 0 -29.754186649454827 13.249135140421782 1 0 0 I I #
straight-curve $-1 33.459414524019557 29.754186649454827 61.101175549021725 0 0 -1 I I #
point $-1 33.459414524019557 29.754186649454827 13.249135140421782 #
straight-curve $-1 11.76594034044755 29.754186649454823 2.0065371235024507 -1 0 0 I I #
point $-1 33.459414524019557 29.754186649454823 2.0065371235024543 #
point $-1 19.277223319556043 17.154410135077409 0.59580677157739637 #
point $-1 27.786538042234142 17.154410135077409 0.59580677157739637 #
straight-curve $-1 40.034891196344624 -13.25666510328519 13.249135140421782 0 1 0 I I #
point $-1 40.034891196344624 -25.981286778755209 13.249135140421782 #
straight-curve $-1 40.034891196344624 -29.754186649454827 0 0 0 1 I I #
point $-1 40.034891196344624 -29.754186649454827 13.249135140421782 #
point $-1 27.860300489508774 -25.418467437629424 8.9134159416566607 #
point $-1 35.165054913610291 -25.418467437629424 8.9134159416566607 #
point $-1 -53.48551896725364 -29.754186649454827 13.249135140421782 #
straight-curve $-1 -53.48551896725364 -29.754186649454827 0 0 0 -1 I I #
point $-1 -53.48551896725364 -29.754186649454827 -13.249135140421782 #
point $-1 53.48551896725364 -29.754186649454827 13.249135140421782 #
straight-curve $-1 53.48551896725364 -29.754186649454827 0 0 0 -1 I I #
point $-1 53.48551896725364 -29.754186649454827 -13.249135140421782 #
End-of-ACIS-data 