500 0 8 0           
7 Unknown 11 ACIS 5.0 NT 24 Fri Mar 26 18:44:39 1999 
-1 9.9999999999999995e-007 1e-010 
body $-1 $8 $-1 $9 #
body $-1 $10 $-1 $11 #
body $-1 $12 $-1 $13 #
body $-1 $14 $-1 $15 #
body $-1 $16 $-1 $17 #
body $-1 $18 $-1 $19 #
body $-1 $20 $-1 $21 #
body $-1 $22 $-1 $23 #
lump $-1 $-1 $24 $0 #
transform $-1 1 0 0 0 1 0 0 0 1 72.261726737266144 45.879922342217242 18.531052834331568 1 rotate no_reflect no_shear #
lump $-1 $-1 $25 $1 #
transform $-1 1 0 0 0 1 0 0 0 1 72.261726737266144 45.879922342217242 18.531052834331568 1 rotate no_reflect no_shear #
lump $-1 $-1 $26 $2 #
transform $-1 1 0 0 0 1 0 0 0 1 72.261726737266144 45.879922342217242 18.531052834331568 1 rotate no_reflect no_shear #
lump $-1 $-1 $27 $3 #
transform $-1 1 0 0 0 1 0 0 0 1 72.261726737266144 45.879922342217242 18.531052834331568 1 rotate no_reflect no_shear #
lump $-1 $-1 $28 $4 #
transform $-1 1 0 0 0 1 0 0 0 1 72.261726737266144 45.879922342217242 18.531052834331568 1 rotate no_reflect no_shear #
lump $-1 $-1 $29 $5 #
transform $-1 1 0 0 0 1 0 0 0 1 72.261726737266144 45.879922342217242 18.531052834331568 1 rotate no_reflect no_shear #
lump $-1 $-1 $30 $6 #
transform $-1 1 0 0 0 1 0 0 0 1 72.261726737266144 45.879922342217242 18.531052834331568 1 rotate no_reflect no_shear #
lump $-1 $-1 $31 $7 #
transform $-1 1 0 0 0 1 0 0 0 1 72.261726737266144 45.879922342217242 18.531052834331568 1 rotate no_reflect no_shear #
shell $-1 $-1 $-1 $32 $-1 $8 #
shell $-1 $-1 $-1 $33 $-1 $10 #
shell $-1 $-1 $-1 $34 $-1 $12 #
shell $-1 $-1 $-1 $35 $-1 $14 #
shell $-1 $-1 $-1 $36 $-1 $16 #
shell $-1 $-1 $-1 $37 $-1 $18 #
shell $-1 $-1 $-1 $38 $-1 $20 #
shell $-1 $-1 $-1 $39 $-1 $22 #
face $-1 $40 $41 $24 $-1 $42 forward single #
face $-1 $43 $44 $25 $-1 $45 forward single #
face $-1 $46 $47 $26 $-1 $48 reversed single #
face $-1 $49 $50 $27 $-1 $51 forward single #
face $-1 $52 $53 $28 $-1 $54 forward single #
face $-1 $55 $56 $29 $-1 $57 reversed single #
face $-1 $58 $59 $30 $-1 $60 forward single #
face $-1 $61 $62 $31 $-1 $63 forward single #
face $-1 $64 $65 $24 $-1 $66 reversed single #
loop $-1 $-1 $67 $32 #
plane-surface $-1 0 0 18.531052834331568 0 0 1 1 0 0 forward_v I I I I #
face $-1 $68 $69 $25 $-1 $70 reversed single #
loop $-1 $-1 $71 $33 #
plane-surface $-1 -65.174146188192225 0 -7.7497092562459917 0 0 1 1 0 0 forward_v I I I I #
face $-1 $72 $73 $26 $-1 $74 reversed single #
loop $-1 $-1 $75 $34 #
plane-surface $-1 49.251575438925748 -146.27435020535606 107.54526846047062 1 0 0 0 0.69465837861970381 -0.71933979245794832 forward_v I I I I #
face $-1 $76 $77 $27 $-1 $78 forward single #
loop $-1 $79 $80 $35 #
cone-surface $-1 55.825904381308732 -36.988686232184186 9.8644235666957449 0 0.69465837861970381 -0.71933979245794832 2 0 0 1 I I 0 1 2 forward I I I I #
face $-1 $81 $82 $28 $-1 $83 forward single #
loop $-1 $84 $85 $36 #
cone-surface $-1 65.687397794883196 -36.988686232184186 9.8644235666957449 0 0.69465837861970381 -0.71933979245794832 2 0 0 1 I I 0 1 2 forward I I I I #
face $-1 $86 $87 $29 $-1 $88 reversed single #
loop $-1 $-1 $89 $37 #
plane-surface $-1 49.251575438925748 80.267842574081385 171.28701339135571 1 0 0 0 -0.69465837861970381 -0.71933979245794832 forward_v I I I I #
face $-1 $90 $91 $30 $-1 $92 forward single #
loop $-1 $93 $94 $38 #
cone-surface $-1 55.825904381308732 36.988686232184179 9.864423566695752 0 -0.69465837861970381 -0.71933979245794832 2 0 0 1 I I 0 1 2 forward I I I I #
face $-1 $95 $96 $31 $-1 $97 forward single #
loop $-1 $98 $99 $39 #
cone-surface $-1 65.687397794883196 36.988686232184179 9.864423566695752 0 -0.69465837861970381 -0.71933979245794832 2 0 0 1 I I 0 1 2 forward I I I I #
face $-1 $100 $101 $24 $-1 $102 reversed single #
loop $-1 $-1 $103 $40 #
plane-surface $-1 0 0 -18.531052834331568 0 0 1 1 0 0 forward_v I I I I #
coedge $-1 $104 $105 $106 $107 forward $41 $-1 #
face $-1 $108 $109 $25 $-1 $110 reversed single #
loop $-1 $-1 $111 $43 #
plane-surface $-1 -58.086565639118298 0 -13.14038104528878 -1 0 0 0 0 1 forward_v I I I I #
coedge $-1 $112 $113 $114 $115 forward $44 $-1 #
face $-1 $116 $117 $26 $-1 $118 forward single #
loop $-1 $-1 $119 $46 #
plane-surface $-1 60.756651088095964 -45.879922342217256 3.5837974327946114 0 -0.69465837861970381 0.71933979245794832 1 0 0 forward_v I I I I #
coedge $-1 $120 $121 $122 $123 reversed $47 $-1 #
face $-1 $-1 $124 $27 $-1 $125 forward single #
loop $-1 $126 $127 $49 #
cone-surface $-1 55.825904381308732 -35.14195960595773 7.9520822073704522 0 0.69465837861970381 -0.71933979245794832 1 0 0 1 I I -0.70710678118654746 0.70710678118654746 1 forward I I I I #
loop $-1 $-1 $128 $35 #
coedge $-1 $80 $80 $129 $130 reversed $50 $-1 #
face $-1 $-1 $131 $28 $-1 $132 forward single #
loop $-1 $133 $134 $52 #
cone-surface $-1 65.687397794883196 -35.14195960595773 7.9520822073704522 0 0.69465837861970381 -0.71933979245794832 1 0 0 1 I I -0.70710678118654746 0.70710678118654746 1 forward I I I I #
loop $-1 $-1 $135 $36 #
coedge $-1 $85 $85 $136 $137 reversed $53 $-1 #
face $-1 $138 $139 $29 $-1 $140 reversed single #
loop $-1 $-1 $141 $55 #
plane-surface $-1 60.756651088095964 -20.126585289057417 67.325542363679702 0 0.69465837861970381 0.71933979245794832 1 0 0 forward_v I I I I #
coedge $-1 $142 $143 $144 $145 reversed $56 $-1 #
face $-1 $-1 $146 $30 $-1 $147 forward single #
loop $-1 $148 $149 $58 #
cone-surface $-1 55.825904381308732 35.141959605957723 7.9520822073704593 0 -0.69465837861970381 -0.71933979245794832 1 0 0 1 I I -0.70710678118654746 0.70710678118654746 1 forward I I I I #
loop $-1 $-1 $150 $38 #
coedge $-1 $94 $94 $151 $152 reversed $59 $-1 #
face $-1 $-1 $153 $31 $-1 $154 forward single #
loop $-1 $155 $156 $61 #
cone-surface $-1 65.687397794883196 35.141959605957723 7.9520822073704593 0 -0.69465837861970381 -0.71933979245794832 1 0 0 1 I I -0.70710678118654746 0.70710678118654746 1 forward I I I I #
loop $-1 $-1 $157 $39 #
coedge $-1 $99 $99 $158 $159 reversed $62 $-1 #
face $-1 $160 $161 $24 $-1 $162 reversed single #
loop $-1 $-1 $163 $64 #
plane-surface $-1 0 -45.879922342217242 0 0 1 0 0 0 1 forward_v I I I I #
coedge $-1 $164 $165 $166 $167 forward $65 $-1 #
coedge $-1 $168 $67 $169 $170 forward $41 $-1 #
coedge $-1 $67 $168 $171 $172 forward $41 $-1 #
coedge $-1 $173 $174 $67 $107 reversed $175 $-1 #
edge $-1 $176 -45.879922342217242 $177 45.879922342217242 $106 $178 forward 7 unknown #
face $-1 $179 $180 $25 $-1 $181 reversed single #
loop $-1 $-1 $182 $68 #
plane-surface $-1 0 0 -18.531052834331568 0 0 1 1 0 0 forward_v I I I I #
coedge $-1 $183 $114 $184 $185 reversed $69 $-1 #
coedge $-1 $186 $71 $187 $188 reversed $44 $-1 #
coedge $-1 $71 $186 $189 $190 reversed $44 $-1 #
coedge $-1 $111 $191 $71 $115 reversed $69 $-1 #
edge $-1 $192 -45.879922342217242 $193 45.879922342217242 $114 $194 forward 7 unknown #
face $-1 $195 $196 $26 $-1 $197 reversed single #
loop $-1 $-1 $198 $72 #
plane-surface $-1 0 0 18.531052834331568 0 0 1 1 0 0 forward_v I I I I #
coedge $-1 $199 $200 $201 $202 reversed $73 $-1 #
coedge $-1 $121 $75 $203 $204 reversed $47 $-1 #
coedge $-1 $75 $120 $199 $205 reversed $47 $-1 #
coedge $-1 $201 $206 $75 $123 forward $196 $-1 #
edge $-1 $207 35.241581395903744 $208 50.188836797440686 $122 $209 forward 7 unknown #
loop $-1 $-1 $129 $76 #
plane-surface $-1 60.756651088095964 -45.879922342217256 3.5837974327946114 0 -0.69465837861970381 0.71933979245794832 1 0 0 forward_v I I I I #
loop $-1 $-1 $210 $49 #
coedge $-1 $127 $127 $128 $211 reversed $77 $-1 #
coedge $-1 $128 $128 $127 $211 forward $79 $-1 #
coedge $-1 $129 $129 $80 $130 forward $124 $-1 #
edge $-1 $212 -5.2929458439863253e-016 $212 6.2831853071795996 $129 $213 forward 7 unknown #
loop $-1 $-1 $136 $81 #
plane-surface $-1 60.756651088095964 -45.879922342217256 3.5837974327946114 0 -0.69465837861970381 0.71933979245794832 1 0 0 forward_v I I I I #
loop $-1 $-1 $214 $52 #
coedge $-1 $134 $134 $135 $215 reversed $82 $-1 #
coedge $-1 $135 $135 $134 $215 forward $84 $-1 #
coedge $-1 $136 $136 $85 $137 forward $131 $-1 #
edge $-1 $216 -5.2929458439863253e-016 $216 6.2831853071795996 $136 $217 forward 7 unknown #
face $-1 $218 $219 $29 $-1 $220 reversed single #
loop $-1 $-1 $221 $86 #
plane-surface $-1 72.261726737266144 0 0 -1 0 0 0 0 1 forward_v I I I I #
coedge $-1 $222 $223 $224 $225 reversed $87 $-1 #
coedge $-1 $143 $89 $226 $227 reversed $56 $-1 #
coedge $-1 $89 $142 $222 $228 reversed $56 $-1 #
coedge $-1 $224 $229 $89 $145 forward $230 $-1 #
edge $-1 $231 -5.7460010551765492 $232 9.7323346696760495 $144 $233 forward 7 unknown #
loop $-1 $-1 $151 $90 #
plane-surface $-1 60.756651088095964 -20.126585289057417 67.325542363679702 0 0.69465837861970381 0.71933979245794832 1 0 0 forward_v I I I I #
loop $-1 $-1 $234 $58 #
coedge $-1 $149 $149 $150 $235 reversed $91 $-1 #
coedge $-1 $150 $150 $149 $235 forward $93 $-1 #
coedge $-1 $151 $151 $94 $152 forward $146 $-1 #
edge $-1 $236 6.1698058095389979e-016 $236 6.2831853071796013 $151 $237 forward 7 unknown #
loop $-1 $-1 $158 $95 #
plane-surface $-1 60.756651088095964 -20.126585289057417 67.325542363679702 0 0.69465837861970381 0.71933979245794832 1 0 0 forward_v I I I I #
loop $-1 $-1 $238 $61 #
coedge $-1 $156 $156 $157 $239 reversed $96 $-1 #
coedge $-1 $157 $157 $156 $239 forward $98 $-1 #
coedge $-1 $158 $158 $99 $159 forward $153 $-1 #
edge $-1 $240 6.1698058095389979e-016 $240 6.2831853071796013 $158 $241 forward 7 unknown #
face $-1 $242 $243 $24 $-1 $244 reversed single #
loop $-1 $-1 $245 $100 #
plane-surface $-1 -72.261726737266144 0 0 1 0 0 0 0 -1 forward_v I I I I #
coedge $-1 $246 $171 $247 $248 forward $101 $-1 #
coedge $-1 $249 $103 $246 $250 forward $65 $-1 #
coedge $-1 $103 $249 $251 $252 forward $65 $-1 #
coedge $-1 $174 $173 $103 $167 reversed $175 $-1 #
edge $-1 $253 -45.879922342217242 $254 45.879922342217242 $166 $255 forward 7 unknown #
coedge $-1 $105 $104 $256 $257 forward $41 $-1 #
coedge $-1 $258 $259 $104 $170 reversed $243 $-1 #
edge $-1 $177 -72.261726737266144 $260 72.261726737266144 $169 $261 forward 7 unknown #
coedge $-1 $163 $262 $105 $172 reversed $101 $-1 #
edge $-1 $263 -72.261726737266144 $176 72.261726737266144 $171 $264 forward 7 unknown #
coedge $-1 $166 $106 $262 $265 forward $175 $-1 #
coedge $-1 $106 $166 $258 $266 reversed $175 $-1 #
loop $-1 $-1 $173 $242 #
vertex $-1 $107 $267 #
vertex $-1 $107 $268 #
straight-curve $-1 72.261726737266144 0 18.531052834331568 0 1 0 I I #
face $-1 $269 $270 $25 $-1 $271 reversed single #
loop $-1 $-1 $184 $108 #
plane-surface $-1 0 -45.879922342217242 0 0 1 0 0 0 1 forward_v I I I I #
coedge $-1 $272 $273 $183 $274 forward $109 $-1 #
coedge $-1 $191 $111 $182 $274 reversed $69 $-1 #
coedge $-1 $189 $275 $111 $185 forward $180 $-1 #
edge $-1 $276 -11.960862311687178 $192 -1.1795187336016015 $184 $277 forward 7 unknown #
coedge $-1 $113 $112 $278 $279 reversed $44 $-1 #
coedge $-1 $280 $281 $112 $188 forward $282 $-1 #
edge $-1 $283 -39.674653643170032 $193 -25.499492545022186 $187 $284 forward 7 unknown #
coedge $-1 $285 $184 $113 $190 forward $180 $-1 #
edge $-1 $192 25.499492545022186 $286 39.674653643170032 $189 $287 forward 7 unknown #
coedge $-1 $114 $183 $280 $288 reversed $69 $-1 #
vertex $-1 $190 $289 #
vertex $-1 $188 $290 #
straight-curve $-1 -58.086565639118298 0 -7.7497092562459917 0 1 0 I I #
face $-1 $-1 $291 $26 $-1 $292 reversed single #
loop $-1 $-1 $201 $116 #
plane-surface $-1 0 -45.879922342217242 0 0 1 0 0 0 1 forward_v I I I I #
coedge $-1 $203 $293 $294 $295 forward $117 $-1 #
coedge $-1 $294 $119 $121 $205 forward $73 $-1 #
coedge $-1 $119 $294 $296 $297 reversed $73 $-1 #
coedge $-1 $298 $122 $119 $202 forward $196 $-1 #
edge $-1 $208 18.873249894877766 $299 41.883401193218191 $201 $300 forward 7 unknown #
coedge $-1 $301 $198 $120 $204 forward $117 $-1 #
edge $-1 $302 -42.735588485313372 $207 -27.257252760460787 $203 $303 forward 7 unknown #
edge $-1 $208 1.9785632286268914e-014 $302 21.517419009956186 $121 $304 forward 7 unknown #
coedge $-1 $122 $298 $301 $305 reversed $196 $-1 #
vertex $-1 $305 $306 #
vertex $-1 $123 $307 #
straight-curve $-1 49.251575438925748 -45.879922342217242 53.772634230235312 0 0 -1 I I #
coedge $-1 $210 $210 $-1 $308 reversed $126 $-1 #
edge $-1 $309 0 $309 6.2831853071796004 $127 $310 forward 7 unknown #
vertex $-1 $130 $311 #
ellipse-curve $-1 55.825904381308732 -38.140754479790949 11.057425133563099 0 -0.69465837861970381 0.71933979245794832 2 0 0 1 I I #
coedge $-1 $214 $214 $-1 $312 reversed $133 $-1 #
edge $-1 $313 0 $313 6.2831853071796004 $134 $314 forward 7 unknown #
vertex $-1 $137 $315 #
ellipse-curve $-1 65.687397794883196 -38.140754479790949 11.057425133563099 0 -0.69465837861970381 0.71933979245794832 2 0 0 1 I I #
face $-1 $-1 $230 $29 $-1 $316 forward single #
loop $-1 $-1 $317 $138 #
plane-surface $-1 0 45.879922342217242 0 0 -1 0 0 0 -1 forward_v I I I I #
coedge $-1 $318 $319 $223 $320 forward $139 $-1 #
coedge $-1 $321 $141 $143 $228 forward $87 $-1 #
coedge $-1 $141 $321 $221 $320 reversed $87 $-1 #
coedge $-1 $322 $144 $141 $225 forward $230 $-1 #
edge $-1 $232 18.873249894877766 $323 41.883401193218191 $224 $324 forward 7 unknown #
coedge $-1 $325 $317 $142 $227 forward $219 $-1 #
edge $-1 $326 -82.059709262883246 $231 -67.112453861346296 $226 $327 forward 7 unknown #
edge $-1 $232 70.242425674478255 $326 91.759844684434455 $143 $328 forward 7 unknown #
coedge $-1 $144 $322 $325 $329 forward $230 $-1 #
loop $-1 $-1 $224 $218 #
vertex $-1 $227 $330 #
vertex $-1 $145 $331 #
straight-curve $-1 49.251575438925748 40.133921287040693 18.531052834331575 0 -1 0 I I #
coedge $-1 $234 $234 $-1 $332 reversed $148 $-1 #
edge $-1 $333 0 $333 6.2831853071796004 $149 $334 forward 7 unknown #
vertex $-1 $152 $335 #
ellipse-curve $-1 55.825904381308732 38.140754479790935 11.057425133563099 0 0.69465837861970381 0.71933979245794832 2 0 0 1 I I #
coedge $-1 $238 $238 $-1 $336 reversed $155 $-1 #
edge $-1 $337 0 $337 6.2831853071796004 $156 $338 forward 7 unknown #
vertex $-1 $159 $339 #
ellipse-curve $-1 65.687397794883196 38.140754479790935 11.057425133563099 0 0.69465837861970381 0.71933979245794832 2 0 0 1 I I #
face $-1 $-1 $175 $24 $-1 $340 reversed single #
loop $-1 $-1 $258 $160 #
plane-surface $-1 0 45.879922342217242 0 0 -1 0 0 0 -1 forward_v I I I I #
coedge $-1 $341 $256 $259 $342 forward $161 $-1 #
coedge $-1 $262 $163 $164 $250 reversed $101 $-1 #
coedge $-1 $256 $341 $163 $248 reversed $161 $-1 #
edge $-1 $263 -18.531052834331568 $343 18.531052834331568 $247 $344 forward 7 unknown #
coedge $-1 $165 $164 $341 $345 forward $65 $-1 #
edge $-1 $254 -72.261726737266144 $343 72.261726737266144 $246 $346 forward 7 unknown #
coedge $-1 $259 $258 $165 $252 reversed $243 $-1 #
edge $-1 $347 -72.261726737266144 $253 72.261726737266144 $251 $348 forward 7 unknown #
vertex $-1 $167 $349 #
vertex $-1 $265 $350 #
straight-curve $-1 72.261726737266144 0 -18.531052834331568 0 -1 0 I I #
coedge $-1 $245 $247 $168 $257 reversed $161 $-1 #
edge $-1 $260 -45.879922342217242 $263 45.879922342217242 $256 $351 forward 7 unknown #
coedge $-1 $251 $169 $174 $266 forward $243 $-1 #
coedge $-1 $169 $251 $245 $342 reversed $243 $-1 #
vertex $-1 $170 $352 #
straight-curve $-1 0 45.879922342217242 18.531052834331568 -1 0 0 I I #
coedge $-1 $171 $246 $173 $265 reversed $101 $-1 #
vertex $-1 $257 $353 #
straight-curve $-1 0 -45.879922342217242 18.531052834331568 1 0 0 I I #
edge $-1 $176 -18.531052834331568 $254 18.531052834331568 $173 $354 forward 7 unknown #
edge $-1 $177 -18.531052834331568 $253 18.531052834331568 $174 $355 forward 7 unknown #
point $-1 72.261726737266144 -45.879922342217242 18.531052834331568 #
point $-1 72.261726737266144 45.879922342217242 18.531052834331568 #
face $-1 $-1 $282 $25 $-1 $356 reversed single #
loop $-1 $-1 $278 $179 #
plane-surface $-1 -72.261726737266144 0 0 1 0 0 0 0 -1 forward_v I I I I #
coedge $-1 $357 $182 $275 $358 forward $109 $-1 #
coedge $-1 $182 $357 $359 $360 forward $109 $-1 #
edge $-1 $361 -45.879922342217242 $276 45.879922342217242 $182 $362 forward 7 unknown #
coedge $-1 $184 $285 $272 $358 reversed $180 $-1 #
vertex $-1 $358 $363 #
straight-curve $-1 -58.086565639118298 -45.879922342217242 -6.5701905226443902 0 0 1 I I #
coedge $-1 $364 $365 $186 $279 forward $270 $-1 #
edge $-1 $286 -45.879922342217242 $283 45.879922342217242 $278 $366 forward 7 unknown #
coedge $-1 $359 $187 $191 $288 forward $282 $-1 #
coedge $-1 $187 $359 $364 $367 reversed $282 $-1 #
loop $-1 $-1 $280 $269 #
vertex $-1 $367 $368 #
straight-curve $-1 -32.587073094096112 45.879922342217242 -7.7497092562459917 1 0 0 I I #
coedge $-1 $275 $189 $365 $369 forward $180 $-1 #
vertex $-1 $369 $370 #
straight-curve $-1 -32.587073094096112 -45.879922342217242 -7.7497092562459917 -1 0 0 I I #
edge $-1 $193 1.1795187336016015 $361 11.960862311687178 $280 $371 forward 7 unknown #
point $-1 -58.086565639118298 -45.879922342217242 -7.7497092562459917 #
point $-1 -58.086565639118298 45.879922342217242 -7.7497092562459917 #
loop $-1 $-1 $296 $195 #
plane-surface $-1 72.261726737266144 0 0 -1 0 0 0 0 1 forward_v I I I I #
coedge $-1 $198 $301 $372 $373 forward $117 $-1 #
coedge $-1 $200 $199 $198 $295 reversed $73 $-1 #
edge $-1 $374 -41.883401193218191 $302 -18.873249894877766 $198 $375 forward 7 unknown #
coedge $-1 $372 $376 $200 $297 forward $291 $-1 #
edge $-1 $299 -15.256869450835373 $374 6.2605495591207925 $296 $377 forward 7 unknown #
coedge $-1 $206 $201 $376 $378 reversed $196 $-1 #
vertex $-1 $202 $379 #
straight-curve $-1 30.378325544047982 -45.879922342217242 3.5837974327946229 1 0 0 I I #
coedge $-1 $293 $203 $206 $305 forward $117 $-1 #
vertex $-1 $204 $380 #
straight-curve $-1 49.251575438925748 -73.137175102678029 18.531052834331568 0 -1 0 I I #
straight-curve $-1 49.251575438925748 -45.879922342217256 3.5837974327946114 0 0.71933979245794832 0.69465837861970381 I I #
edge $-1 $207 49.251575438925748 $381 72.261726737266144 $206 $382 forward 7 unknown #
point $-1 49.251575438925748 -45.879922342217242 18.531052834331568 #
point $-1 49.251575438925748 -45.879922342217242 3.5837974327946251 #
edge $-1 $383 1 $383 0 $210 $-1 forward 7 unknown #
vertex $-1 $211 $384 #
ellipse-curve $-1 55.825904381308732 -35.836617984577437 8.6714219998284001 0 -0.69465837861970381 0.71933979245794832 2 0 0 1 I I #
point $-1 57.825904381308732 -38.140754479790942 11.05742513356309 #
edge $-1 $385 1 $385 0 $214 $-1 forward 7 unknown #
vertex $-1 $215 $386 #
ellipse-curve $-1 65.687397794883196 -35.836617984577437 8.6714219998284001 0 -0.69465837861970381 0.71933979245794832 2 0 0 1 I I #
point $-1 67.687397794883196 -38.140754479790942 11.05742513356309 #
plane-surface $-1 0 0 18.531052834331568 0 0 1 1 0 0 forward_v I I I I #
coedge $-1 $226 $387 $321 $388 forward $219 $-1 #
coedge $-1 $319 $221 $387 $389 reversed $139 $-1 #
coedge $-1 $221 $318 $322 $390 reversed $139 $-1 #
edge $-1 $323 39.619372783096424 $391 61.136791793052609 $221 $392 forward 7 unknown #
coedge $-1 $223 $222 $317 $388 reversed $87 $-1 #
coedge $-1 $229 $224 $319 $390 forward $230 $-1 #
vertex $-1 $390 $393 #
straight-curve $-1 30.378325544047982 30.401586617364643 18.531052834331568 1 0 0 I I #
coedge $-1 $387 $226 $229 $329 reversed $219 $-1 #
vertex $-1 $227 $394 #
straight-curve $-1 49.251575438925748 45.879922342217242 85.643506695677857 0 0 1 I I #
straight-curve $-1 49.251575438925748 -20.126585289057417 67.325542363679702 0 0.71933979245794832 -0.69465837861970381 I I #
edge $-1 $395 -72.261726737266144 $231 -49.251575438925748 $325 $396 forward 7 unknown #
point $-1 49.251575438925748 45.879922342217242 18.531052834331568 #
point $-1 49.251575438925748 30.401586617364643 18.531052834331575 #
edge $-1 $397 1 $397 0 $234 $-1 forward 7 unknown #
vertex $-1 $235 $398 #
ellipse-curve $-1 55.825904381308732 35.83661798457743 8.6714219998284072 0 0.69465837861970381 0.71933979245794832 2 0 0 1 I I #
point $-1 57.825904381308732 38.140754479790935 11.057425133563097 #
edge $-1 $399 1 $399 0 $238 $-1 forward 7 unknown #
vertex $-1 $239 $400 #
ellipse-curve $-1 65.687397794883196 35.83661798457743 8.6714219998284072 0 0.69465837861970381 0.71933979245794832 2 0 0 1 I I #
point $-1 67.687397794883196 38.140754479790935 11.057425133563097 #
plane-surface $-1 72.261726737266144 0 0 -1 0 0 0 0 1 forward_v I I I I #
coedge $-1 $247 $245 $249 $345 reversed $161 $-1 #
edge $-1 $260 -18.531052834331568 $347 18.531052834331568 $259 $401 forward 7 unknown #
vertex $-1 $345 $402 #
straight-curve $-1 -72.261726737266144 -45.879922342217242 0 0 0 -1 I I #
edge $-1 $343 -45.879922342217242 $347 45.879922342217242 $341 $403 forward 7 unknown #
straight-curve $-1 0 -45.879922342217242 -18.531052834331568 -1 0 0 I I #
vertex $-1 $252 $404 #
straight-curve $-1 0 45.879922342217242 -18.531052834331568 1 0 0 I I #
point $-1 72.261726737266144 45.879922342217242 -18.531052834331568 #
point $-1 72.261726737266144 -45.879922342217242 -18.531052834331568 #
straight-curve $-1 -72.261726737266144 0 18.531052834331568 0 -1 0 I I #
point $-1 -72.261726737266144 45.879922342217242 18.531052834331568 #
point $-1 -72.261726737266144 -45.879922342217242 18.531052834331568 #
straight-curve $-1 72.261726737266144 -45.879922342217242 0 0 0 -1 I I #
straight-curve $-1 72.261726737266144 45.879922342217242 0 0 0 -1 I I #
plane-surface $-1 0 45.879922342217242 0 0 -1 0 0 0 -1 forward_v I I I I #
coedge $-1 $273 $272 $405 $406 forward $109 $-1 #
edge $-1 $276 58.086565639118298 $407 72.261726737266144 $275 $408 forward 7 unknown #
coedge $-1 $281 $280 $273 $360 reversed $282 $-1 #
edge $-1 $409 -72.261726737266144 $361 -58.086565639118298 $359 $410 forward 7 unknown #
vertex $-1 $288 $411 #
straight-curve $-1 -58.086565639118298 0 -18.531052834331568 0 -1 0 I I #
point $-1 -58.086565639118298 -45.879922342217242 -18.531052834331568 #
coedge $-1 $405 $278 $281 $367 forward $270 $-1 #
coedge $-1 $278 $405 $285 $369 reversed $270 $-1 #
straight-curve $-1 -72.261726737266144 0 -7.7497092562459917 0 1 0 I I #
edge $-1 $283 7.7497092562459917 $409 18.531052834331568 $281 $412 forward 7 unknown #
point $-1 -72.261726737266144 45.879922342217242 -7.7497092562459917 #
edge $-1 $286 7.7497092562459917 $407 18.531052834331568 $365 $413 forward 7 unknown #
point $-1 -72.261726737266144 -45.879922342217242 -7.7497092562459917 #
straight-curve $-1 -58.086565639118298 45.879922342217242 -6.5701905226443902 0 0 -1 I I #
coedge $-1 $376 $296 $293 $373 reversed $291 $-1 #
edge $-1 $381 -45.879922342217242 $374 -30.401586617364661 $372 $414 forward 7 unknown #
vertex $-1 $295 $415 #
straight-curve $-1 30.378325544047982 -30.401586617364657 18.531052834331568 -1 0 0 I I #
coedge $-1 $296 $372 $298 $378 forward $291 $-1 #
straight-curve $-1 72.261726737266144 -34.90504903789531 14.182109628324415 0 0.71933979245794832 0.69465837861970381 I I #
edge $-1 $381 -18.531052834331568 $299 -3.5837974327946251 $376 $416 forward 7 unknown #
point $-1 72.261726737266173 -45.879922342217242 3.5837974327946251 #
point $-1 49.251575438925748 -30.401586617364661 18.531052834331568 #
vertex $-1 $373 $417 #
straight-curve $-1 0 -45.879922342217242 18.531052834331568 1 0 0 I I #
vertex $-1 $308 $418 #
point $-1 57.825904381308732 -35.836617984577437 8.6714219998284001 #
vertex $-1 $312 $419 #
point $-1 67.687397794883196 -35.836617984577437 8.6714219998284001 #
coedge $-1 $317 $325 $318 $389 forward $219 $-1 #
edge $-1 $391 -41.883401193218191 $326 -18.873249894877766 $317 $420 forward 7 unknown #
edge $-1 $395 -18.531052834331568 $391 -3.5837974327946185 $318 $421 forward 7 unknown #
edge $-1 $323 30.401586617364643 $395 45.879922342217242 $319 $422 forward 7 unknown #
vertex $-1 $388 $423 #
straight-curve $-1 72.261726737266144 1.9017952222579719 46.052982093766957 0 0.71933979245794832 -0.69465837861970381 I I #
point $-1 72.261726737266173 30.401586617364643 18.531052834331575 #
point $-1 49.251575438925748 45.879922342217242 3.5837974327946185 #
vertex $-1 $390 $424 #
straight-curve $-1 0 45.879922342217242 18.531052834331568 -1 0 0 I I #
vertex $-1 $332 $425 #
point $-1 57.825904381308732 35.83661798457743 8.6714219998284072 #
vertex $-1 $336 $426 #
point $-1 67.687397794883196 35.83661798457743 8.6714219998284072 #
straight-curve $-1 -72.261726737266144 45.879922342217242 0 0 0 -1 I I #
point $-1 -72.261726737266144 -45.879922342217242 -18.531052834331568 #
straight-curve $-1 -72.261726737266144 0 -18.531052834331568 0 1 0 I I #
point $-1 -72.261726737266144 45.879922342217242 -18.531052834331568 #
coedge $-1 $365 $364 $357 $406 reversed $270 $-1 #
edge $-1 $407 -45.879922342217242 $409 45.879922342217242 $405 $427 forward 7 unknown #
vertex $-1 $406 $428 #
straight-curve $-1 0 -45.879922342217242 -18.531052834331568 -1 0 0 I I #
vertex $-1 $360 $429 #
straight-curve $-1 0 45.879922342217242 -18.531052834331568 1 0 0 I I #
point $-1 -58.086565639118298 45.879922342217242 -18.531052834331568 #
straight-curve $-1 -72.261726737266144 45.879922342217242 0 0 0 -1 I I #
straight-curve $-1 -72.261726737266144 -45.879922342217242 0 0 0 -1 I I #
straight-curve $-1 72.261726737266144 0 18.531052834331568 0 1 0 I I #
point $-1 72.261726737266173 -30.401586617364661 18.531052834331568 #
straight-curve $-1 72.261726737266144 -45.879922342217242 0 0 0 -1 I I #
point $-1 72.261726737266144 -45.879922342217242 18.531052834331568 #
point $-1 55.825904381308732 -34.447301227338023 7.2327424149125044 #
point $-1 65.687397794883196 -34.447301227338023 7.2327424149125044 #
straight-curve $-1 30.378325544047982 45.879922342217235 3.583797432794622 -1 0 0 I I #
straight-curve $-1 72.261726737266144 45.879922342217242 0 0 0 -1 I I #
straight-curve $-1 72.261726737266144 0 18.531052834331568 0 1 0 I I #
point $-1 72.261726737266173 45.879922342217242 3.5837974327946185 #
point $-1 72.261726737266144 45.879922342217242 18.531052834331568 #
point $-1 55.825904381308732 34.447301227338016 7.2327424149125115 #
point $-1 65.687397794883196 34.447301227338016 7.2327424149125115 #
straight-curve $-1 -72.261726737266144 0 -18.531052834331568 0 1 0 I I #
point $-1 -72.261726737266144 -45.879922342217242 -18.531052834331568 #
point $-1 -72.261726737266144 45.879922342217242 -18.531052834331568 #
End-of-ACIS-data 