500 0 7 0           
7 Unknown 11 ACIS 5.0 NT 24 Fri Mar 26 01:25:24 1999 
-1 9.9999999999999995e-007 1e-010 
body $-1 $7 $-1 $8 #
body $-1 $9 $-1 $10 #
body $-1 $11 $-1 $12 #
body $-1 $13 $-1 $14 #
body $-1 $15 $-1 $16 #
body $-1 $17 $-1 $18 #
body $-1 $19 $-1 $20 #
lump $-1 $-1 $21 $0 #
transform $-1 1 0 0 0 1 0 0 0 1 68.094119083223973 41.757549059556439 17.668488515314625 1 rotate no_reflect no_shear #
lump $-1 $-1 $22 $1 #
transform $-1 1 0 0 0 1 0 0 0 1 68.094119083223973 41.757549059556439 17.668488515314625 1 rotate no_reflect no_shear #
lump $-1 $-1 $23 $2 #
transform $-1 1 0 0 0 1 0 0 0 1 68.094119083223973 41.757549059556439 17.668488515314625 1 rotate no_reflect no_shear #
lump $-1 $-1 $24 $3 #
transform $-1 1 0 0 0 1 0 0 0 1 68.094119083223973 41.757549059556439 17.668488515314625 1 rotate no_reflect no_shear #
lump $-1 $-1 $25 $4 #
transform $-1 1 0 0 0 1 0 0 0 1 68.094119083223973 41.757549059556439 17.668488515314625 1 rotate no_reflect no_shear #
lump $-1 $-1 $26 $5 #
transform $-1 1 0 0 0 1 0 0 0 1 68.094119083223973 41.757549059556439 17.668488515314625 1 rotate no_reflect no_shear #
lump $-1 $-1 $27 $6 #
transform $-1 1 0 0 0 1 0 0 0 1 68.094119083223973 41.757549059556439 17.668488515314625 1 rotate no_reflect no_shear #
shell $-1 $-1 $-1 $28 $-1 $7 #
shell $-1 $-1 $-1 $29 $-1 $9 #
shell $-1 $-1 $-1 $30 $-1 $11 #
shell $-1 $-1 $-1 $31 $-1 $13 #
shell $-1 $-1 $-1 $32 $-1 $15 #
shell $-1 $-1 $-1 $33 $-1 $17 #
shell $-1 $-1 $-1 $34 $-1 $19 #
face $-1 $35 $36 $21 $-1 $37 forward single #
face $-1 $38 $39 $22 $-1 $40 reversed single #
face $-1 $41 $42 $23 $-1 $43 forward single #
face $-1 $44 $45 $24 $-1 $46 forward single #
face $-1 $47 $48 $25 $-1 $49 reversed single #
face $-1 $50 $51 $26 $-1 $52 forward single #
face $-1 $53 $54 $27 $-1 $55 forward single #
face $-1 $56 $57 $21 $-1 $58 reversed single #
loop $-1 $-1 $59 $28 #
plane-surface $-1 0 0 17.668488515314625 0 0 1 1 0 0 forward_v I I I I #
face $-1 $60 $61 $22 $-1 $62 reversed single #
loop $-1 $-1 $63 $29 #
plane-surface $-1 -142.26755067041506 -29.295271922714136 114.96644993866495 0 1 0 -0.54463904215088732 0 0.83867056331134215 forward_v I I I I #
face $-1 $64 $65 $23 $-1 $66 forward single #
loop $-1 $67 $68 $30 #
cone-surface $-1 -54.370766225254307 -26.225185710886311 8.135981845414058 0.54463904215088732 0 -0.83867056331134215 1.2580058449670133 0 0.81695856322633098 1 I I 0 1 1.5 forward I I I I #
face $-1 $69 $70 $24 $-1 $71 forward single #
loop $-1 $72 $73 $31 #
cone-surface $-1 -54.370766225254307 -21.620056393144576 8.135981845414058 0.54463904215088732 0 -0.83867056331134215 1.2580058449670133 0 0.81695856322633098 1 I I 0 1 1.5 forward I I I I #
face $-1 $74 $75 $25 $-1 $76 reversed single #
loop $-1 $-1 $77 $32 #
plane-surface $-1 28.050484250980958 -18.549970181316752 189.13988152585605 0 -1 0 -0.54463904215088732 0 -0.83867056331134215 forward_v I I I I #
face $-1 $78 $79 $26 $-1 $80 forward single #
loop $-1 $81 $82 $33 #
cone-surface $-1 54.370766225254307 -26.225185710886311 8.1359818454140509 -0.54463904215088732 0 -0.83867056331134215 1.2580058449670133 0 -0.81695856322633098 1 I I 0 1 1.5 forward I I I I #
face $-1 $83 $84 $27 $-1 $85 forward single #
loop $-1 $86 $87 $34 #
cone-surface $-1 54.370766225254307 -21.620056393144576 8.1359818454140509 -0.54463904215088732 0 -0.83867056331134215 1.2580058449670133 0 -0.81695856322633098 1 I I 0 1 1.5 forward I I I I #
face $-1 $88 $89 $21 $-1 $90 reversed single #
loop $-1 $-1 $91 $35 #
plane-surface $-1 0 0 -17.668488515314625 0 0 1 1 0 0 forward_v I I I I #
coedge $-1 $92 $93 $94 $95 forward $36 $-1 #
face $-1 $96 $97 $22 $-1 $98 reversed single #
loop $-1 $-1 $99 $38 #
plane-surface $-1 -68.094119083223944 -23.922621052015444 0.74938351923083246 -0.54463904215088732 0 0.83867056331134215 0.83867056331134215 0 0.54463904215088732 forward_v I I I I #
coedge $-1 $100 $101 $102 $103 reversed $39 $-1 #
face $-1 $-1 $104 $23 $-1 $105 forward single #
loop $-1 $106 $107 $41 #
cone-surface $-1 -53.265502344303812 -26.225185710886311 6.4340247510718775 0.54463904215088732 0 -0.83867056331134215 0.62900292248350664 0 0.40847928161316549 1 I I -0.70710678118654757 0.70710678118654757 0.75 forward I I I I #
loop $-1 $-1 $108 $30 #
coedge $-1 $68 $68 $109 $110 reversed $42 $-1 #
face $-1 $-1 $111 $24 $-1 $112 forward single #
loop $-1 $113 $114 $44 #
cone-surface $-1 -53.265502344303812 -21.620056393144576 6.4340247510718775 0.54463904215088732 0 -0.83867056331134215 0.62900292248350664 0 0.40847928161316549 1 I I -0.70710678118654757 0.70710678118654757 0.75 forward I I I I #
loop $-1 $-1 $115 $31 #
coedge $-1 $73 $73 $116 $117 reversed $45 $-1 #
face $-1 $118 $119 $25 $-1 $120 reversed single #
loop $-1 $-1 $121 $47 #
plane-surface $-1 -46.12294733621016 -23.922621052015444 74.922815106421936 0.54463904215088732 0 0.83867056331134215 0.83867056331134215 0 -0.54463904215088732 forward_v I I I I #
coedge $-1 $122 $123 $124 $125 reversed $48 $-1 #
face $-1 $-1 $126 $26 $-1 $127 forward single #
loop $-1 $128 $129 $50 #
cone-surface $-1 53.265502344303812 -26.225185710886311 6.4340247510718704 -0.54463904215088732 0 -0.83867056331134215 0.62900292248350664 0 -0.40847928161316549 1 I I -0.70710678118654757 0.70710678118654757 0.75 forward I I I I #
loop $-1 $-1 $130 $33 #
coedge $-1 $82 $82 $131 $132 reversed $51 $-1 #
face $-1 $-1 $133 $27 $-1 $134 forward single #
loop $-1 $135 $136 $53 #
cone-surface $-1 53.265502344303812 -21.620056393144576 6.4340247510718704 -0.54463904215088732 0 -0.83867056331134215 0.62900292248350664 0 -0.40847928161316549 1 I I -0.70710678118654757 0.70710678118654757 0.75 forward I I I I #
loop $-1 $-1 $137 $34 #
coedge $-1 $87 $87 $138 $139 reversed $54 $-1 #
face $-1 $140 $141 $21 $-1 $142 reversed single #
loop $-1 $-1 $143 $56 #
plane-surface $-1 0 -41.757549059556439 0 0 1 0 0 0 1 forward_v I I I I #
coedge $-1 $144 $145 $146 $147 forward $57 $-1 #
coedge $-1 $148 $59 $149 $150 forward $36 $-1 #
coedge $-1 $59 $148 $151 $152 forward $36 $-1 #
coedge $-1 $153 $154 $59 $95 reversed $155 $-1 #
edge $-1 $156 -41.757549059556439 $157 41.757549059556439 $94 $158 forward 7 unknown #
face $-1 $159 $160 $22 $-1 $161 reversed single #
loop $-1 $-1 $162 $60 #
plane-surface $-1 -142.26755067041506 -18.549970181316752 114.96644993866495 0 -1 0 0.54463904215088732 0 -0.83867056331134215 forward_v I I I I #
coedge $-1 $163 $164 $165 $166 reversed $61 $-1 #
coedge $-1 $101 $63 $167 $168 reversed $39 $-1 #
coedge $-1 $63 $100 $163 $169 reversed $39 $-1 #
coedge $-1 $165 $170 $63 $103 forward $171 $-1 #
edge $-1 $172 3.0396562519835584 $173 29.092792769248263 $102 $174 forward 7 unknown #
loop $-1 $-1 $109 $64 #
plane-surface $-1 -68.094119083223944 -23.922621052015444 0.74938351923083246 -0.54463904215088732 0 0.83867056331134215 0.83867056331134215 0 0.54463904215088732 forward_v I I I I #
loop $-1 $-1 $175 $41 #
coedge $-1 $107 $107 $108 $176 reversed $65 $-1 #
coedge $-1 $108 $108 $107 $176 forward $67 $-1 #
coedge $-1 $109 $109 $68 $110 forward $104 $-1 #
edge $-1 $177 0 $177 6.2831853071796004 $109 $178 forward 7 unknown #
loop $-1 $-1 $116 $69 #
plane-surface $-1 -68.094119083223944 -23.922621052015444 0.74938351923083246 -0.54463904215088732 0 0.83867056331134215 0.83867056331134215 0 0.54463904215088732 forward_v I I I I #
loop $-1 $-1 $179 $44 #
coedge $-1 $114 $114 $115 $180 reversed $70 $-1 #
coedge $-1 $115 $115 $114 $180 forward $72 $-1 #
coedge $-1 $116 $116 $73 $117 forward $111 $-1 #
edge $-1 $181 0 $181 6.2831853071796004 $116 $182 forward 7 unknown #
face $-1 $183 $184 $25 $-1 $185 forward single #
loop $-1 $-1 $186 $74 #
plane-surface $-1 28.050484250980958 -29.295271922714136 189.13988152585605 0 1 0 0.54463904215088732 0 0.83867056331134215 forward_v I I I I #
coedge $-1 $187 $188 $189 $190 reversed $75 $-1 #
coedge $-1 $123 $77 $191 $192 reversed $48 $-1 #
coedge $-1 $77 $122 $187 $193 reversed $48 $-1 #
coedge $-1 $189 $194 $77 $125 forward $184 $-1 #
edge $-1 $195 -54.068876957733494 $196 -28.015740440468775 $124 $197 forward 7 unknown #
loop $-1 $-1 $131 $78 #
plane-surface $-1 -46.12294733621016 -23.922621052015444 74.922815106421936 0.54463904215088732 0 0.83867056331134215 0.83867056331134215 0 -0.54463904215088732 forward_v I I I I #
loop $-1 $-1 $198 $50 #
coedge $-1 $129 $129 $130 $199 reversed $79 $-1 #
coedge $-1 $130 $130 $129 $199 forward $81 $-1 #
coedge $-1 $131 $131 $82 $132 forward $126 $-1 #
edge $-1 $200 0 $200 6.2831853071796004 $131 $201 forward 7 unknown #
loop $-1 $-1 $138 $83 #
plane-surface $-1 -46.12294733621016 -23.922621052015444 74.922815106421936 0.54463904215088732 0 0.83867056331134215 0.83867056331134215 0 -0.54463904215088732 forward_v I I I I #
loop $-1 $-1 $202 $53 #
coedge $-1 $136 $136 $137 $203 reversed $84 $-1 #
coedge $-1 $137 $137 $136 $203 forward $86 $-1 #
coedge $-1 $138 $138 $87 $139 forward $133 $-1 #
edge $-1 $204 0 $204 6.2831853071796004 $138 $205 forward 7 unknown #
face $-1 $206 $207 $21 $-1 $208 reversed single #
loop $-1 $-1 $209 $88 #
plane-surface $-1 -68.094119083223973 0 0 1 0 0 0 0 -1 forward_v I I I I #
coedge $-1 $210 $151 $211 $212 forward $89 $-1 #
coedge $-1 $213 $91 $210 $214 forward $57 $-1 #
coedge $-1 $91 $213 $215 $216 forward $57 $-1 #
coedge $-1 $154 $153 $91 $147 reversed $155 $-1 #
edge $-1 $217 -41.757549059556439 $218 41.757549059556439 $146 $219 forward 7 unknown #
coedge $-1 $93 $92 $220 $221 forward $36 $-1 #
coedge $-1 $222 $223 $92 $150 reversed $207 $-1 #
edge $-1 $157 -68.094119083223973 $224 68.094119083223973 $149 $225 forward 7 unknown #
coedge $-1 $143 $226 $93 $152 reversed $89 $-1 #
edge $-1 $227 -68.094119083223973 $156 68.094119083223973 $151 $228 forward 7 unknown #
coedge $-1 $146 $94 $226 $229 forward $155 $-1 #
coedge $-1 $94 $146 $222 $230 reversed $155 $-1 #
loop $-1 $-1 $153 $206 #
vertex $-1 $95 $231 #
vertex $-1 $95 $232 #
straight-curve $-1 68.094119083223973 0 17.668488515314625 0 1 0 I I #
face $-1 $-1 $171 $22 $-1 $233 forward single #
loop $-1 $-1 $234 $96 #
plane-surface $-1 -68.094119083223973 0 0 1 0 0 0 0 -1 forward_v I I I I #
coedge $-1 $235 $236 $237 $238 reversed $97 $-1 #
coedge $-1 $239 $99 $101 $169 forward $61 $-1 #
coedge $-1 $99 $239 $235 $240 forward $61 $-1 #
coedge $-1 $237 $102 $99 $166 forward $171 $-1 #
edge $-1 $173 -17.333961396706414 $241 -6.58865965530903 $165 $242 forward 7 unknown #
coedge $-1 $243 $244 $100 $168 forward $160 $-1 #
edge $-1 $245 -56.733841450101664 $172 -39.814736454017847 $167 $246 forward 7 unknown #
edge $-1 $173 -31.064803818079035 $245 3.3873986416382937e-014 $101 $247 forward 7 unknown #
coedge $-1 $102 $237 $243 $248 forward $171 $-1 #
loop $-1 $-1 $237 $159 #
vertex $-1 $168 $249 #
vertex $-1 $103 $250 #
straight-curve $-1 -71.133775335207531 -29.295271922714136 17.668488515314621 1 0 0 I I #
coedge $-1 $175 $175 $-1 $251 reversed $106 $-1 #
edge $-1 $252 0 $252 6.2831853071796004 $107 $253 forward 7 unknown #
vertex $-1 $110 $254 #
ellipse-curve $-1 -55.067550824591628 -26.225185710886311 9.2089360172727144 -0.54463904215088732 0 0.83867056331134215 1.2580058449670133 0 0.81695856322633098 1 I I #
coedge $-1 $179 $179 $-1 $255 reversed $113 $-1 #
edge $-1 $256 0 $256 6.2831853071796004 $114 $257 forward 7 unknown #
vertex $-1 $117 $258 #
ellipse-curve $-1 -55.067550824591628 -21.620056393144576 9.2089360172727144 -0.54463904215088732 0 0.83867056331134215 1.2580058449670133 0 0.81695856322633098 1 I I #
face $-1 $-1 $259 $25 $-1 $260 reversed single #
loop $-1 $-1 $124 $118 #
plane-surface $-1 0 0 17.668488515314625 0 0 1 1 0 0 forward_v I I I I #
coedge $-1 $261 $262 $263 $264 reversed $119 $-1 #
coedge $-1 $265 $121 $123 $193 forward $75 $-1 #
coedge $-1 $121 $265 $261 $266 forward $75 $-1 #
coedge $-1 $263 $124 $121 $190 forward $184 $-1 #
edge $-1 $196 6.58865965530903 $267 17.333961396706414 $189 $268 forward 7 unknown #
coedge $-1 $269 $270 $122 $192 forward $259 $-1 #
edge $-1 $271 -93.820557243697209 $195 -76.901452247613406 $191 $272 forward 7 unknown #
edge $-1 $196 105.12343434836887 $271 136.18823816644795 $123 $273 forward 7 unknown #
coedge $-1 $124 $263 $269 $274 forward $184 $-1 #
vertex $-1 $192 $275 #
vertex $-1 $125 $276 #
straight-curve $-1 14.025242125490479 -18.549970181316752 17.668488515314621 -1 0 0 I I #
coedge $-1 $198 $198 $-1 $277 reversed $128 $-1 #
edge $-1 $278 0 $278 6.2831853071796004 $129 $279 forward 7 unknown #
vertex $-1 $132 $280 #
ellipse-curve $-1 55.067550824591635 -26.225185710886311 9.2089360172727162 0.54463904215088732 0 0.83867056331134215 1.2580058449670133 0 -0.81695856322633098 1 I I #
coedge $-1 $202 $202 $-1 $281 reversed $135 $-1 #
edge $-1 $282 0 $282 6.2831853071796004 $136 $283 forward 7 unknown #
vertex $-1 $139 $284 #
ellipse-curve $-1 55.067550824591635 -21.620056393144576 9.2089360172727162 0.54463904215088732 0 0.83867056331134215 1.2580058449670133 0 -0.81695856322633098 1 I I #
face $-1 $-1 $155 $21 $-1 $285 reversed single #
loop $-1 $-1 $222 $140 #
plane-surface $-1 0 41.757549059556439 0 0 -1 0 0 0 -1 forward_v I I I I #
coedge $-1 $286 $220 $223 $287 forward $141 $-1 #
coedge $-1 $226 $143 $144 $214 reversed $89 $-1 #
coedge $-1 $220 $286 $143 $212 reversed $141 $-1 #
edge $-1 $227 -17.668488515314625 $288 17.668488515314625 $211 $289 forward 7 unknown #
coedge $-1 $145 $144 $286 $290 forward $57 $-1 #
edge $-1 $218 -68.094119083223973 $288 68.094119083223973 $210 $291 forward 7 unknown #
coedge $-1 $223 $222 $145 $216 reversed $207 $-1 #
edge $-1 $292 -68.094119083223973 $217 68.094119083223973 $215 $293 forward 7 unknown #
vertex $-1 $147 $294 #
vertex $-1 $229 $295 #
straight-curve $-1 68.094119083223973 0 -17.668488515314625 0 -1 0 I I #
coedge $-1 $209 $211 $148 $221 reversed $141 $-1 #
edge $-1 $224 -41.757549059556439 $227 41.757549059556439 $220 $296 forward 7 unknown #
coedge $-1 $215 $149 $154 $230 forward $207 $-1 #
coedge $-1 $149 $215 $209 $287 reversed $207 $-1 #
vertex $-1 $150 $297 #
straight-curve $-1 0 41.757549059556439 17.668488515314625 -1 0 0 I I #
coedge $-1 $151 $210 $153 $229 reversed $89 $-1 #
vertex $-1 $221 $298 #
straight-curve $-1 0 -41.757549059556439 17.668488515314625 1 0 0 I I #
edge $-1 $156 -17.668488515314625 $218 17.668488515314625 $153 $299 forward 7 unknown #
edge $-1 $157 -17.668488515314625 $217 17.668488515314625 $154 $300 forward 7 unknown #
point $-1 68.094119083223973 -41.757549059556439 17.668488515314625 #
point $-1 68.094119083223973 41.757549059556439 17.668488515314625 #
plane-surface $-1 0 0 17.668488515314625 0 0 1 1 0 0 forward_v I I I I #
coedge $-1 $244 $243 $236 $301 forward $160 $-1 #
coedge $-1 $236 $162 $164 $240 reversed $97 $-1 #
coedge $-1 $162 $235 $234 $301 reversed $97 $-1 #
coedge $-1 $170 $165 $162 $238 forward $171 $-1 #
edge $-1 $241 -29.092792769248263 $302 -3.0396562519835584 $237 $303 forward 7 unknown #
coedge $-1 $164 $163 $244 $304 reversed $61 $-1 #
edge $-1 $305 -3.3873986416382937e-014 $241 31.064803818079035 $235 $306 forward 7 unknown #
vertex $-1 $166 $307 #
straight-curve $-1 -42.040982565959261 -11.961310526007722 17.668488515314625 0 1 0 I I #
coedge $-1 $234 $167 $170 $248 reversed $160 $-1 #
coedge $-1 $167 $234 $239 $304 forward $160 $-1 #
vertex $-1 $168 $308 #
straight-curve $-1 -68.094119083223973 -29.295271922714136 57.483224969332475 0 0 1 I I #
straight-curve $-1 -68.094119083223944 -29.295271922714136 0.74938351923083246 -0.83867056331134215 0 -0.54463904215088732 I I #
edge $-1 $302 18.549970181316752 $172 29.295271922714136 $243 $309 forward 7 unknown #
point $-1 -68.094119083223973 -29.295271922714136 17.668488515314625 #
point $-1 -42.040982565959268 -29.295271922714136 17.668488515314625 #
edge $-1 $310 1 $310 0 $175 $-1 forward 7 unknown #
vertex $-1 $176 $311 #
ellipse-curve $-1 -53.67398162591698 -26.225185710886311 7.0630276735553839 -0.54463904215088732 0 0.83867056331134215 1.2580058449670133 0 0.81695856322633098 1 I I #
point $-1 -53.809544979624626 -26.225185710886311 10.025894580499061 #
edge $-1 $312 1 $312 0 $179 $-1 forward 7 unknown #
vertex $-1 $180 $313 #
ellipse-curve $-1 -53.67398162591698 -21.620056393144576 7.0630276735553839 -0.54463904215088732 0 0.83867056331134215 1.2580058449670133 0 0.81695856322633098 1 I I #
point $-1 -53.809544979624626 -21.620056393144576 10.025894580499061 #
loop $-1 $-1 $191 $183 #
plane-surface $-1 68.094119083223973 0 0 -1 0 0 0 0 1 forward_v I I I I #
coedge $-1 $262 $186 $188 $266 reversed $119 $-1 #
coedge $-1 $186 $261 $314 $315 reversed $119 $-1 #
coedge $-1 $194 $189 $186 $264 forward $184 $-1 #
edge $-1 $267 28.015740440468775 $316 54.068876957733494 $263 $317 forward 7 unknown #
coedge $-1 $188 $187 $270 $318 reversed $75 $-1 #
edge $-1 $319 -136.18823816644795 $267 -105.12343434836887 $261 $320 forward 7 unknown #
vertex $-1 $190 $321 #
straight-curve $-1 42.040982565959276 -11.961310526007722 17.668488515314614 0 -1 0 I I #
coedge $-1 $314 $191 $194 $274 reversed $259 $-1 #
coedge $-1 $191 $314 $265 $318 forward $259 $-1 #
vertex $-1 $192 $322 #
straight-curve $-1 68.094119083223973 -18.549970181316752 94.569940762928027 0 0 1 I I #
straight-curve $-1 -46.12294733621016 -18.549970181316752 74.922815106421936 0.83867056331134215 0 -0.54463904215088732 I I #
edge $-1 $316 -29.295271922714136 $195 -18.549970181316752 $269 $323 forward 7 unknown #
point $-1 68.094119083223973 -18.549970181316752 17.668488515314625 #
point $-1 42.040982565959254 -18.549970181316752 17.668488515314621 #
edge $-1 $324 1 $324 0 $198 $-1 forward 7 unknown #
vertex $-1 $199 $325 #
ellipse-curve $-1 53.67398162591698 -26.225185710886311 7.0630276735553768 0.54463904215088732 0 0.83867056331134215 1.2580058449670133 0 -0.81695856322633098 1 I I #
point $-1 56.325556669558651 -26.225185710886311 8.3919774540463923 #
edge $-1 $326 1 $326 0 $202 $-1 forward 7 unknown #
vertex $-1 $203 $327 #
ellipse-curve $-1 53.67398162591698 -21.620056393144576 7.0630276735553768 0.54463904215088732 0 0.83867056331134215 1.2580058449670133 0 -0.81695856322633098 1 I I #
point $-1 56.325556669558651 -21.620056393144576 8.3919774540463923 #
plane-surface $-1 68.094119083223973 0 0 -1 0 0 0 0 1 forward_v I I I I #
coedge $-1 $211 $209 $213 $290 reversed $141 $-1 #
edge $-1 $224 -17.668488515314625 $292 17.668488515314625 $223 $328 forward 7 unknown #
vertex $-1 $290 $329 #
straight-curve $-1 -68.094119083223973 -41.757549059556439 0 0 0 -1 I I #
edge $-1 $288 -41.757549059556439 $292 41.757549059556439 $286 $330 forward 7 unknown #
straight-curve $-1 0 -41.757549059556439 -17.668488515314625 -1 0 0 I I #
vertex $-1 $216 $331 #
straight-curve $-1 0 41.757549059556439 -17.668488515314625 1 0 0 I I #
point $-1 68.094119083223973 41.757549059556439 -17.668488515314625 #
point $-1 68.094119083223973 -41.757549059556439 -17.668488515314625 #
straight-curve $-1 -68.094119083223973 0 17.668488515314625 0 -1 0 I I #
point $-1 -68.094119083223973 41.757549059556439 17.668488515314625 #
point $-1 -68.094119083223973 -41.757549059556439 17.668488515314625 #
straight-curve $-1 68.094119083223973 -41.757549059556439 0 0 0 -1 I I #
straight-curve $-1 68.094119083223973 41.757549059556439 0 0 0 -1 I I #
edge $-1 $302 39.814736454017847 $305 56.733841450101664 $234 $332 forward 7 unknown #
vertex $-1 $248 $333 #
straight-curve $-1 -71.133775335207531 -18.549970181316752 17.668488515314621 -1 0 0 I I #
edge $-1 $305 6.58865965530903 $245 17.333961396706414 $244 $334 forward 7 unknown #
vertex $-1 $304 $335 #
straight-curve $-1 -68.094119083223944 -18.549970181316752 0.74938351923083246 0.83867056331134215 0 0.54463904215088732 I I #
point $-1 -42.040982565959268 -18.549970181316752 17.668488515314625 #
point $-1 -68.094119083223973 -29.295271922714136 0.74938351923081403 #
straight-curve $-1 -68.094119083223973 0 17.668488515314625 0 -1 0 I I #
vertex $-1 $251 $336 #
point $-1 -52.415975780949964 -26.225185710886311 7.8799862367817148 #
vertex $-1 $255 $337 #
point $-1 -52.415975780949964 -21.620056393144576 7.8799862367817148 #
coedge $-1 $270 $269 $262 $315 forward $259 $-1 #
edge $-1 $316 76.901452247613406 $319 93.820557243697209 $314 $338 forward 7 unknown #
vertex $-1 $274 $339 #
straight-curve $-1 14.025242125490479 -29.295271922714136 17.668488515314621 1 0 0 I I #
edge $-1 $319 -17.333961396706414 $271 -6.58865965530903 $270 $340 forward 7 unknown #
vertex $-1 $318 $341 #
straight-curve $-1 -46.12294733621016 -29.295271922714136 74.922815106421936 -0.83867056331134215 0 0.54463904215088732 I I #
point $-1 42.040982565959254 -29.295271922714136 17.668488515314621 #
point $-1 68.094119083223958 -18.549970181316752 0.74938351923081825 #
straight-curve $-1 68.094119083223973 0 17.668488515314625 0 1 0 I I #
vertex $-1 $277 $342 #
point $-1 54.931987470883989 -26.225185710886311 6.2460691103290458 #
vertex $-1 $281 $343 #
point $-1 54.931987470883989 -21.620056393144576 6.2460691103290458 #
straight-curve $-1 -68.094119083223973 41.757549059556439 0 0 0 -1 I I #
point $-1 -68.094119083223973 -41.757549059556439 -17.668488515314625 #
straight-curve $-1 -68.094119083223973 0 -17.668488515314625 0 1 0 I I #
point $-1 -68.094119083223973 41.757549059556439 -17.668488515314625 #
straight-curve $-1 -68.094119083223973 -18.549970181316752 57.483224969332475 0 0 -1 I I #
point $-1 -68.094119083223973 -18.549970181316752 17.668488515314625 #
straight-curve $-1 -68.094119083223973 -11.961310526007722 0.74938351923081159 0 -1 0 I I #
point $-1 -68.094119083223973 -18.549970181316752 0.74938351923081403 #
point $-1 -52.857023062690644 -26.225185710886311 5.8050218285883712 #
point $-1 -52.857023062690644 -21.620056393144576 5.8050218285883712 #
straight-curve $-1 68.094119083223973 -29.295271922714136 94.569940762928027 0 0 -1 I I #
point $-1 68.094119083223973 -29.295271922714136 17.668488515314625 #
straight-curve $-1 68.094119083223973 -11.961310526007722 0.74938351923081115 0 1 0 I I #
point $-1 68.094119083223958 -29.295271922714136 0.74938351923081825 #
point $-1 52.857023062690644 -26.225185710886311 5.8050218285883641 #
point $-1 52.857023062690644 -21.620056393144576 5.8050218285883641 #
End-of-ACIS-data 