500 0 5 0           
7 Unknown 11 ACIS 5.0 NT 24 Thu Mar 25 15:22:36 1999 
-1 9.9999999999999995e-007 1e-010 
body $-1 $5 $-1 $6 #
body $-1 $7 $-1 $8 #
body $-1 $9 $-1 $10 #
body $-1 $11 $-1 $12 #
body $-1 $13 $-1 $14 #
lump $-1 $-1 $15 $0 #
transform $-1 1 0 0 0 1 0 0 0 1 42.137516403698847 17.69526209961781 5.0392641607829107 1 rotate no_reflect no_shear #
lump $-1 $-1 $16 $1 #
transform $-1 1 0 0 0 1 0 0 0 1 42.137516403698847 17.69526209961781 5.0392641607829107 1 rotate no_reflect no_shear #
lump $-1 $-1 $17 $2 #
transform $-1 1 0 0 0 1 0 0 0 1 42.137516403698847 17.69526209961781 5.0392641607829107 1 rotate no_reflect no_shear #
lump $-1 $-1 $18 $3 #
transform $-1 1 0 0 0 1 0 0 0 1 42.137516403698847 17.69526209961781 5.0392641607829107 1 rotate no_reflect no_shear #
lump $-1 $-1 $19 $4 #
transform $-1 1 0 0 0 1 0 0 0 1 42.137516403698847 17.69526209961781 5.0392641607829107 1 rotate no_reflect no_shear #
shell $-1 $-1 $-1 $20 $-1 $5 #
shell $-1 $-1 $-1 $21 $-1 $7 #
shell $-1 $-1 $-1 $22 $-1 $9 #
shell $-1 $-1 $-1 $23 $-1 $11 #
shell $-1 $-1 $-1 $24 $-1 $13 #
face $-1 $25 $26 $15 $-1 $27 forward single #
face $-1 $28 $29 $16 $-1 $30 forward single #
face $-1 $31 $32 $17 $-1 $33 reversed single #
face $-1 $34 $35 $18 $-1 $36 forward single #
face $-1 $37 $38 $19 $-1 $39 forward single #
face $-1 $40 $41 $15 $-1 $42 reversed single #
loop $-1 $-1 $43 $20 #
plane-surface $-1 0 0 5.0392641607829107 0 0 1 1 0 0 forward_v I I I I #
face $-1 $44 $45 $16 $-1 $46 reversed single #
loop $-1 $-1 $47 $21 #
plane-surface $-1 -42.137516403698847 0 0 1 0 0 0 0 -1 forward_v I I I I #
face $-1 $48 $49 $17 $-1 $50 reversed single #
loop $-1 $-1 $51 $22 #
plane-surface $-1 42.137517786524533 11.797730181197361 121.02574391138958 0 -1 0 -0.70710678939079041 0 -0.70710677298230451 forward_v I I I I #
face $-1 $52 $53 $18 $-1 $54 forward single #
loop $-1 $55 $56 $23 #
cone-surface $-1 39.214274264983707 4.3597863392056766 2.1160220157287983 -0.70710678939079041 0 -0.70710677298230451 0.70710677298230451 0 -0.70710678939079041 1 I I 0 1 1 forward I I I I #
face $-1 $57 $58 $19 $-1 $59 forward single #
loop $-1 $60 $61 $24 #
cone-surface $-1 39.214274264983707 8.8225526444006874 2.1160220157287983 -0.70710678939079041 0 -0.70710677298230451 0.70710677298230451 0 -0.70710678939079041 1 I I 0 1 1 forward I I I I #
face $-1 $62 $63 $15 $-1 $64 reversed single #
loop $-1 $-1 $65 $25 #
plane-surface $-1 0 0 -5.0392641607829107 0 0 1 1 0 0 forward_v I I I I #
coedge $-1 $66 $67 $68 $69 forward $26 $-1 #
face $-1 $70 $71 $16 $-1 $72 forward single #
loop $-1 $-1 $73 $28 #
plane-surface $-1 0 17.69526209961781 0 0 -1 0 0 0 -1 forward_v I I I I #
coedge $-1 $74 $75 $76 $77 forward $29 $-1 #
face $-1 $78 $79 $17 $-1 $80 reversed single #
loop $-1 $-1 $81 $31 #
plane-surface $-1 -17.453930087717978 6.591169491803182 61.434297419972758 0.70710678939079041 0 0.70710677298230451 0.70710677298230451 0 -0.70710678939079041 forward_v I I I I #
coedge $-1 $82 $83 $84 $85 reversed $32 $-1 #
face $-1 $-1 $86 $18 $-1 $87 forward single #
loop $-1 $88 $89 $34 #
cone-surface $-1 37.535686002012959 4.3597863392056766 0.43743379170985985 -0.70710678939079041 0 -0.70710677298230451 0.35355338649115226 0 -0.35355339469539521 1 I I -0.70710678118654746 0.70710678118654746 0.5 forward I I I I #
loop $-1 $-1 $90 $23 #
coedge $-1 $56 $56 $91 $92 reversed $35 $-1 #
face $-1 $-1 $93 $19 $-1 $94 forward single #
loop $-1 $95 $96 $37 #
cone-surface $-1 37.535686002012959 8.8225526444006874 0.43743379170985985 -0.70710678939079041 0 -0.70710677298230451 0.35355338649115226 0 -0.35355339469539521 1 I I -0.70710678118654746 0.70710678118654746 0.5 forward I I I I #
loop $-1 $-1 $97 $24 #
coedge $-1 $61 $61 $98 $99 reversed $38 $-1 #
face $-1 $100 $101 $15 $-1 $102 reversed single #
loop $-1 $-1 $103 $40 #
plane-surface $-1 0 -17.69526209961781 0 0 1 0 0 0 1 forward_v I I I I #
coedge $-1 $104 $105 $106 $107 forward $41 $-1 #
coedge $-1 $108 $43 $109 $110 forward $26 $-1 #
coedge $-1 $43 $108 $111 $112 forward $26 $-1 #
coedge $-1 $113 $114 $43 $69 reversed $115 $-1 #
edge $-1 $116 -17.69526209961781 $117 17.69526209961781 $68 $118 forward 7 unknown #
face $-1 $119 $120 $16 $-1 $121 reversed single #
loop $-1 $-1 $76 $44 #
plane-surface $-1 -44.703028902715332 0 3.1641573206330245 0 0 1 1 0 0 forward_v I I I I #
coedge $-1 $122 $123 $75 $124 forward $45 $-1 #
coedge $-1 $125 $47 $126 $127 reversed $29 $-1 #
coedge $-1 $47 $125 $73 $124 reversed $29 $-1 #
coedge $-1 $128 $129 $47 $77 reversed $71 $-1 #
edge $-1 $130 -17.69526209961781 $131 17.69526209961781 $76 $132 forward 7 unknown #
face $-1 $133 $134 $17 $-1 $135 forward single #
loop $-1 $-1 $136 $48 #
plane-surface $-1 42.137517786524533 1.3846088024090033 121.02574391138958 0 1 0 0.70710678939079041 0 0.70710677298230451 forward_v I I I I #
coedge $-1 $137 $138 $139 $140 reversed $49 $-1 #
coedge $-1 $83 $51 $141 $142 reversed $32 $-1 #
coedge $-1 $51 $82 $137 $143 reversed $32 $-1 #
coedge $-1 $139 $144 $51 $85 forward $134 $-1 #
edge $-1 $145 -21.06875751043658 $146 -17.872342969557042 $84 $147 forward 7 unknown #
loop $-1 $-1 $91 $52 #
plane-surface $-1 -17.453930087717978 6.591169491803182 61.434297419972758 0.70710678939079041 0 0.70710677298230451 0.70710677298230451 0 -0.70710678939079041 forward_v I I I I #
loop $-1 $-1 $148 $34 #
coedge $-1 $89 $89 $90 $149 reversed $53 $-1 #
coedge $-1 $90 $90 $89 $149 forward $55 $-1 #
coedge $-1 $91 $91 $56 $92 forward $86 $-1 #
edge $-1 $150 0 $150 6.2831853071796004 $91 $151 forward 7 unknown #
loop $-1 $-1 $98 $57 #
plane-surface $-1 -17.453930087717978 6.591169491803182 61.434297419972758 0.70710678939079041 0 0.70710677298230451 0.70710677298230451 0 -0.70710678939079041 forward_v I I I I #
loop $-1 $-1 $152 $37 #
coedge $-1 $96 $96 $97 $153 reversed $58 $-1 #
coedge $-1 $97 $97 $96 $153 forward $60 $-1 #
coedge $-1 $98 $98 $61 $99 forward $93 $-1 #
edge $-1 $154 0 $154 6.2831853071796004 $98 $155 forward 7 unknown #
face $-1 $156 $157 $15 $-1 $158 reversed single #
loop $-1 $-1 $159 $62 #
plane-surface $-1 -42.137516403698847 0 0 1 0 0 0 0 -1 forward_v I I I I #
coedge $-1 $160 $111 $161 $162 forward $63 $-1 #
coedge $-1 $163 $65 $160 $164 forward $41 $-1 #
coedge $-1 $65 $163 $165 $166 forward $41 $-1 #
coedge $-1 $114 $113 $65 $107 reversed $115 $-1 #
edge $-1 $167 -17.69526209961781 $168 17.69526209961781 $106 $169 forward 7 unknown #
coedge $-1 $67 $66 $170 $171 forward $26 $-1 #
coedge $-1 $172 $173 $66 $110 reversed $157 $-1 #
edge $-1 $117 -42.137516403698847 $174 42.137516403698847 $109 $175 forward 7 unknown #
coedge $-1 $103 $176 $67 $112 reversed $63 $-1 #
edge $-1 $177 -42.137516403698847 $116 42.137516403698847 $111 $178 forward 7 unknown #
coedge $-1 $106 $68 $176 $179 forward $115 $-1 #
coedge $-1 $68 $106 $172 $180 reversed $115 $-1 #
loop $-1 $-1 $113 $156 #
vertex $-1 $69 $181 #
vertex $-1 $69 $182 #
straight-curve $-1 42.137516403698847 0 5.0392641607829107 0 1 0 I I #
face $-1 $183 $184 $16 $-1 $185 reversed single #
loop $-1 $-1 $186 $70 #
plane-surface $-1 -44.703028902715332 0 0.16415732063302446 0 0 1 1 0 0 forward_v I I I I #
coedge $-1 $187 $73 $188 $189 reversed $45 $-1 #
coedge $-1 $73 $187 $128 $190 reversed $45 $-1 #
edge $-1 $130 -3.1641573206330245 $191 -0.16415732063302446 $73 $192 forward 7 unknown #
coedge $-1 $75 $74 $186 $193 forward $29 $-1 #
coedge $-1 $194 $195 $74 $127 forward $196 $-1 #
edge $-1 $197 0.16415732063302446 $131 3.1641573206330245 $126 $198 forward 7 unknown #
coedge $-1 $199 $76 $123 $190 forward $71 $-1 #
coedge $-1 $76 $199 $194 $200 forward $71 $-1 #
vertex $-1 $124 $201 #
vertex $-1 $200 $202 #
straight-curve $-1 -42.137516403698847 0 3.1641573206330245 0 -1 0 I I #
face $-1 $-1 $203 $17 $-1 $204 reversed single #
loop $-1 $-1 $84 $78 #
plane-surface $-1 0 0 5.0392641607829107 0 0 1 1 0 0 forward_v I I I I #
coedge $-1 $205 $206 $207 $208 reversed $79 $-1 #
coedge $-1 $209 $81 $83 $143 forward $49 $-1 #
coedge $-1 $81 $209 $205 $210 forward $49 $-1 #
coedge $-1 $207 $84 $81 $140 forward $134 $-1 #
edge $-1 $146 -8.5021454352957697 $211 1.9109759434925877 $139 $212 forward 7 unknown #
coedge $-1 $213 $214 $82 $142 forward $203 $-1 #
edge $-1 $215 -58.670022409964545 $145 -55.473607794911878 $141 $216 forward 7 unknown #
edge $-1 $146 79.754619960270972 $215 84.275032807397722 $83 $217 forward 7 unknown #
coedge $-1 $84 $207 $213 $218 forward $134 $-1 #
vertex $-1 $142 $219 #
vertex $-1 $85 $220 #
straight-curve $-1 21.068758893262267 11.797730181197361 5.0392641607829134 -1 0 0 I I #
coedge $-1 $148 $148 $-1 $221 reversed $88 $-1 #
edge $-1 $222 0 $222 6.2831853071796004 $89 $223 forward 7 unknown #
vertex $-1 $92 $224 #
ellipse-curve $-1 40.539309133259074 4.3597863392056766 3.4410568532565922 0.70710678939079041 0 0.70710677298230451 0.70710677298230451 0 -0.70710678939079041 1 I I #
coedge $-1 $152 $152 $-1 $225 reversed $95 $-1 #
edge $-1 $226 0 $226 6.2831853071796004 $96 $227 forward 7 unknown #
vertex $-1 $99 $228 #
ellipse-curve $-1 40.539309133259074 8.8225526444006874 3.4410568532565922 0.70710678939079041 0 0.70710677298230451 0.70710677298230451 0 -0.70710678939079041 1 I I #
face $-1 $-1 $115 $15 $-1 $229 reversed single #
loop $-1 $-1 $172 $100 #
plane-surface $-1 0 17.69526209961781 0 0 -1 0 0 0 -1 forward_v I I I I #
coedge $-1 $230 $170 $173 $231 forward $101 $-1 #
coedge $-1 $176 $103 $104 $164 reversed $63 $-1 #
coedge $-1 $170 $230 $103 $162 reversed $101 $-1 #
edge $-1 $177 -5.0392641607829107 $232 5.0392641607829107 $161 $233 forward 7 unknown #
coedge $-1 $105 $104 $230 $234 forward $41 $-1 #
edge $-1 $168 -42.137516403698847 $232 42.137516403698847 $160 $235 forward 7 unknown #
coedge $-1 $173 $172 $105 $166 reversed $157 $-1 #
edge $-1 $236 -42.137516403698847 $167 42.137516403698847 $165 $237 forward 7 unknown #
vertex $-1 $107 $238 #
vertex $-1 $179 $239 #
straight-curve $-1 42.137516403698847 0 -5.0392641607829107 0 -1 0 I I #
coedge $-1 $159 $161 $108 $171 reversed $101 $-1 #
edge $-1 $174 -17.69526209961781 $177 17.69526209961781 $170 $240 forward 7 unknown #
coedge $-1 $165 $109 $114 $180 forward $157 $-1 #
coedge $-1 $109 $165 $159 $231 reversed $157 $-1 #
vertex $-1 $110 $241 #
straight-curve $-1 0 17.69526209961781 5.0392641607829107 -1 0 0 I I #
coedge $-1 $111 $160 $113 $179 reversed $63 $-1 #
vertex $-1 $171 $242 #
straight-curve $-1 0 -17.69526209961781 5.0392641607829107 1 0 0 I I #
edge $-1 $116 -5.0392641607829107 $168 5.0392641607829107 $113 $243 forward 7 unknown #
edge $-1 $117 -5.0392641607829107 $167 5.0392641607829107 $114 $244 forward 7 unknown #
point $-1 42.137516403698847 -17.69526209961781 5.0392641607829107 #
point $-1 42.137516403698847 17.69526209961781 5.0392641607829107 #
face $-1 $-1 $196 $16 $-1 $245 reversed single #
loop $-1 $-1 $246 $119 #
plane-surface $-1 -47.268541401731817 0 1.6641573206330245 1 0 0 0 0 -1 forward_v I I I I #
coedge $-1 $247 $188 $125 $193 reversed $120 $-1 #
coedge $-1 $123 $122 $246 $248 reversed $45 $-1 #
coedge $-1 $186 $249 $122 $189 forward $120 $-1 #
edge $-1 $250 -2.565512499016485 $191 2.565512499016485 $122 $251 forward 7 unknown #
edge $-1 $130 -2.565512499016485 $252 2.565512499016485 $123 $253 forward 7 unknown #
vertex $-1 $124 $254 #
straight-curve $-1 -42.137516403698847 17.69526209961781 0 0 0 -1 I I #
edge $-1 $197 -17.69526209961781 $191 17.69526209961781 $186 $255 forward 7 unknown #
coedge $-1 $256 $126 $129 $200 reversed $196 $-1 #
coedge $-1 $126 $256 $247 $257 reversed $196 $-1 #
loop $-1 $-1 $126 $183 #
vertex $-1 $127 $258 #
straight-curve $-1 -42.137516403698847 -17.69526209961781 0 0 0 1 I I #
coedge $-1 $129 $128 $259 $260 forward $71 $-1 #
edge $-1 $261 -2.565512499016485 $131 2.565512499016485 $194 $262 forward 7 unknown #
point $-1 -42.137516403698847 17.69526209961781 3.1641573206330245 #
point $-1 -42.137516403698847 -17.69526209961781 3.1641573206330245 #
loop $-1 $-1 $141 $133 #
plane-surface $-1 42.137516403698847 0 0 -1 0 0 0 0 1 forward_v I I I I #
coedge $-1 $206 $136 $138 $210 reversed $79 $-1 #
coedge $-1 $136 $205 $263 $264 reversed $79 $-1 #
coedge $-1 $144 $139 $136 $208 forward $134 $-1 #
edge $-1 $211 17.872342969557042 $265 21.06875751043658 $207 $266 forward 7 unknown #
coedge $-1 $138 $137 $214 $267 reversed $49 $-1 #
edge $-1 $268 -84.275032807397722 $211 -79.754619960270972 $205 $269 forward 7 unknown #
vertex $-1 $140 $270 #
straight-curve $-1 38.941101862819316 3.295584745901591 5.0392641607829063 0 -1 0 I I #
coedge $-1 $263 $141 $144 $218 reversed $203 $-1 #
coedge $-1 $141 $263 $209 $267 forward $203 $-1 #
vertex $-1 $142 $271 #
straight-curve $-1 42.137516403698847 11.797730181197361 60.512871955694791 0 0 1 I I #
straight-curve $-1 -17.453930087717978 11.797730181197361 61.434297419972758 0.70710677298230451 0 -0.70710678939079041 I I #
edge $-1 $265 1.3846088024090033 $145 11.797730181197361 $213 $272 forward 7 unknown #
point $-1 42.137516403698847 11.797730181197361 5.0392641607829107 #
point $-1 38.941101862819309 11.797730181197361 5.0392641607829134 #
edge $-1 $273 1 $273 0 $148 $-1 forward 7 unknown #
vertex $-1 $149 $274 #
ellipse-curve $-1 37.889239396708355 4.3597863392056766 0.79098717820101205 0.70710678939079041 0 0.70710677298230451 0.70710677298230451 0 -0.70710678939079041 1 I I #
point $-1 41.246415906241374 4.3597863392056766 2.7339500638657941 #
edge $-1 $275 1 $275 0 $152 $-1 forward 7 unknown #
vertex $-1 $153 $276 #
ellipse-curve $-1 37.889239396708355 8.8225526444006874 0.79098717820101205 0.70710678939079041 0 0.70710677298230451 0.70710677298230451 0 -0.70710678939079041 1 I I #
point $-1 41.246415906241374 8.8225526444006874 2.7339500638657941 #
plane-surface $-1 42.137516403698847 0 0 -1 0 0 0 0 1 forward_v I I I I #
coedge $-1 $161 $159 $163 $234 reversed $101 $-1 #
edge $-1 $174 -5.0392641607829107 $236 5.0392641607829107 $173 $277 forward 7 unknown #
vertex $-1 $234 $278 #
straight-curve $-1 -42.137516403698847 -17.69526209961781 0 0 0 -1 I I #
edge $-1 $232 -17.69526209961781 $236 17.69526209961781 $230 $279 forward 7 unknown #
straight-curve $-1 0 -17.69526209961781 -5.0392641607829107 -1 0 0 I I #
vertex $-1 $166 $280 #
straight-curve $-1 0 17.69526209961781 -5.0392641607829107 1 0 0 I I #
point $-1 42.137516403698847 17.69526209961781 -5.0392641607829107 #
point $-1 42.137516403698847 -17.69526209961781 -5.0392641607829107 #
straight-curve $-1 -42.137516403698847 0 5.0392641607829107 0 -1 0 I I #
point $-1 -42.137516403698847 17.69526209961781 5.0392641607829107 #
point $-1 -42.137516403698847 -17.69526209961781 5.0392641607829107 #
straight-curve $-1 42.137516403698847 -17.69526209961781 0 0 0 -1 I I #
straight-curve $-1 42.137516403698847 17.69526209961781 0 0 0 -1 I I #
plane-surface $-1 0 -17.69526209961781 0 0 1 0 0 0 1 forward_v I I I I #
coedge $-1 $281 $259 $187 $248 forward $184 $-1 #
coedge $-1 $249 $186 $195 $257 forward $120 $-1 #
edge $-1 $252 -1.5 $250 1.5 $187 $282 forward 7 unknown #
coedge $-1 $188 $247 $281 $283 forward $120 $-1 #
vertex $-1 $189 $284 #
straight-curve $-1 -44.703028902715332 17.69526209961781 0.16415732063302446 1 0 0 I I #
vertex $-1 $190 $285 #
straight-curve $-1 -44.703028902715332 17.69526209961781 3.1641573206330245 -1 0 0 I I #
point $-1 -42.137516403698847 17.69526209961781 0.16415732063302446 #
straight-curve $-1 -42.137516403698847 0 0.16415732063302446 0 1 0 I I #
coedge $-1 $195 $194 $286 $287 forward $196 $-1 #
edge $-1 $197 -2.565512499016485 $288 2.565512499016485 $195 $289 forward 7 unknown #
point $-1 -42.137516403698847 -17.69526209961781 0.16415732063302446 #
coedge $-1 $246 $286 $199 $260 reversed $184 $-1 #
edge $-1 $252 -17.69526209961781 $261 17.69526209961781 $259 $290 forward 7 unknown #
vertex $-1 $260 $291 #
straight-curve $-1 -44.703028902715332 -17.69526209961781 3.1641573206330245 1 0 0 I I #
coedge $-1 $214 $213 $206 $264 forward $203 $-1 #
edge $-1 $265 55.473607794911878 $268 58.670022409964545 $263 $292 forward 7 unknown #
vertex $-1 $218 $293 #
straight-curve $-1 21.068758893262267 1.3846088024090033 5.0392641607829134 1 0 0 I I #
edge $-1 $268 -1.9109759434925877 $215 8.5021454352957697 $214 $294 forward 7 unknown #
vertex $-1 $267 $295 #
straight-curve $-1 -17.453930087717978 1.3846088024090033 61.434297419972758 -0.70710677298230451 0 0.70710678939079041 I I #
point $-1 38.941101862819309 1.3846088024090033 5.0392641607829134 #
point $-1 42.137516403698847 11.797730181197361 1.8428495457302461 #
straight-curve $-1 42.137516403698847 0 5.0392641607829107 0 1 0 I I #
vertex $-1 $221 $296 #
point $-1 38.596346169690662 4.3597863392056766 0.083880388810221695 #
vertex $-1 $225 $297 #
point $-1 38.596346169690662 8.8225526444006874 0.083880388810221695 #
straight-curve $-1 -42.137516403698847 17.69526209961781 0 0 0 -1 I I #
point $-1 -42.137516403698847 -17.69526209961781 -5.0392641607829107 #
straight-curve $-1 -42.137516403698847 0 -5.0392641607829107 0 1 0 I I #
point $-1 -42.137516403698847 17.69526209961781 -5.0392641607829107 #
coedge $-1 $286 $246 $249 $283 reversed $184 $-1 #
straight-curve $-1 -47.268541401731817 17.69526209961781 1.6641573206330245 0 0 -1 I I #
edge $-1 $288 -17.69526209961781 $250 17.69526209961781 $281 $298 forward 7 unknown #
point $-1 -47.268541401731817 17.69526209961781 0.16415732063302446 #
point $-1 -47.268541401731817 17.69526209961781 3.1641573206330245 #
coedge $-1 $259 $281 $256 $287 reversed $184 $-1 #
edge $-1 $261 -1.5 $288 1.5 $286 $299 forward 7 unknown #
vertex $-1 $283 $300 #
straight-curve $-1 -44.703028902715332 -17.69526209961781 0.16415732063302446 -1 0 0 I I #
straight-curve $-1 -47.268541401731817 0 3.1641573206330245 0 -1 0 I I #
point $-1 -47.268541401731817 -17.69526209961781 3.1641573206330245 #
straight-curve $-1 42.137516403698847 1.3846088024090033 60.512871955694791 0 0 -1 I I #
point $-1 42.137516403698847 1.3846088024090033 5.0392641607829107 #
straight-curve $-1 42.137516403698839 3.295584745901591 1.8428495457302461 0 1 0 I I #
point $-1 42.137516403698847 1.3846088024090033 1.8428495457302461 #
point $-1 37.182132607317563 4.3597863392056766 0.083880405218707599 #
point $-1 37.182132607317563 8.8225526444006874 0.083880405218707599 #
straight-curve $-1 -47.268541401731817 0 0.16415732063302446 0 1 0 I I #
straight-curve $-1 -47.268541401731817 -17.69526209961781 1.6641573206330245 0 0 -1 I I #
point $-1 -47.268541401731817 -17.69526209961781 0.16415732063302446 #
End-of-ACIS-data 