500 0 11 0           
7 Unknown 11 ACIS 5.0 NT 24 Thu Mar 25 23:09:30 1999 
-1 9.9999999999999995e-007 1e-010 
body $-1 $11 $-1 $12 #
body $-1 $13 $-1 $14 #
body $-1 $15 $-1 $16 #
body $-1 $17 $-1 $18 #
body $-1 $19 $-1 $20 #
body $-1 $21 $-1 $22 #
body $-1 $23 $-1 $24 #
body $-1 $25 $-1 $26 #
body $-1 $27 $-1 $28 #
body $-1 $29 $-1 $30 #
body $-1 $31 $-1 $32 #
lump $-1 $-1 $33 $0 #
transform $-1 1 0 0 0 1 0 0 0 1 41.562547685171054 28.382576357705144 6.3409726318118995 1 rotate no_reflect no_shear #
lump $-1 $-1 $34 $1 #
transform $-1 1 0 0 0 1 0 0 0 1 41.562547685171054 28.382576357705144 6.3409726318118995 1 rotate no_reflect no_shear #
lump $-1 $-1 $35 $2 #
transform $-1 1 0 0 0 1 0 0 0 1 41.562547685171054 28.382576357705144 6.3409726318118995 1 rotate no_reflect no_shear #
lump $-1 $-1 $36 $3 #
transform $-1 1 0 0 0 1 0 0 0 1 41.562547685171054 28.382576357705144 6.3409726318118995 1 rotate no_reflect no_shear #
lump $-1 $-1 $37 $4 #
transform $-1 1 0 0 0 1 0 0 0 1 41.562547685171054 28.382576357705144 6.3409726318118995 1 rotate no_reflect no_shear #
lump $-1 $-1 $38 $5 #
transform $-1 1 0 0 0 1 0 0 0 1 41.562547685171054 28.382576357705144 6.3409726318118995 1 rotate no_reflect no_shear #
lump $-1 $-1 $39 $6 #
transform $-1 1 0 0 0 1 0 0 0 1 41.562547685171054 28.382576357705144 6.3409726318118995 1 rotate no_reflect no_shear #
lump $-1 $-1 $40 $7 #
transform $-1 1 0 0 0 1 0 0 0 1 41.562547685171054 28.382576357705144 6.3409726318118995 1 rotate no_reflect no_shear #
lump $-1 $-1 $41 $8 #
transform $-1 1 0 0 0 1 0 0 0 1 41.562547685171054 28.382576357705144 6.3409726318118995 1 rotate no_reflect no_shear #
lump $-1 $-1 $42 $9 #
transform $-1 1 0 0 0 1 0 0 0 1 41.562547685171054 28.382576357705144 6.3409726318118995 1 rotate no_reflect no_shear #
lump $-1 $-1 $43 $10 #
transform $-1 1 0 0 0 1 0 0 0 1 41.562547685171054 28.382576357705144 6.3409726318118995 1 rotate no_reflect no_shear #
shell $-1 $-1 $-1 $44 $-1 $11 #
shell $-1 $-1 $-1 $45 $-1 $13 #
shell $-1 $-1 $-1 $46 $-1 $15 #
shell $-1 $-1 $-1 $47 $-1 $17 #
shell $-1 $-1 $-1 $48 $-1 $19 #
shell $-1 $-1 $-1 $49 $-1 $21 #
shell $-1 $-1 $-1 $50 $-1 $23 #
shell $-1 $-1 $-1 $51 $-1 $25 #
shell $-1 $-1 $-1 $52 $-1 $27 #
shell $-1 $-1 $-1 $53 $-1 $29 #
shell $-1 $-1 $-1 $54 $-1 $31 #
face $-1 $55 $56 $33 $-1 $57 forward single #
face $-1 $58 $59 $34 $-1 $60 forward single #
face $-1 $61 $62 $35 $-1 $63 reversed single #
face $-1 $64 $65 $36 $-1 $66 forward single #
face $-1 $67 $68 $37 $-1 $69 forward single #
face $-1 $70 $71 $38 $-1 $72 reversed single #
face $-1 $73 $74 $39 $-1 $75 forward single #
face $-1 $76 $77 $40 $-1 $78 forward single #
face $-1 $79 $80 $41 $-1 $81 reversed single #
face $-1 $82 $83 $42 $-1 $84 forward single #
face $-1 $85 $86 $43 $-1 $87 forward single #
face $-1 $88 $89 $33 $-1 $90 reversed single #
loop $-1 $-1 $91 $44 #
plane-surface $-1 0 0 6.3409726318118995 0 0 1 1 0 0 forward_v I I I I #
face $-1 $92 $93 $34 $-1 $94 reversed single #
loop $-1 $-1 $95 $45 #
plane-surface $-1 0 -26.016923513165295 4.8083254537847182 0 0 1 1 0 0 forward_v I I I I #
face $-1 $96 $97 $35 $-1 $98 reversed single #
loop $-1 $-1 $99 $46 #
plane-surface $-1 68.007038891776176 -7.7086959820583409 116.49041886763999 0 1 0 0.84804810408105047 0 0.52991925155115449 forward_v I I I I #
face $-1 $100 $101 $36 $-1 $102 forward single #
loop $-1 $103 $104 $47 #
cone-surface $-1 39.632030842919605 -4.8303106030302878 3.795428634547342 -0.84804810408105047 0 -0.52991925155115449 0.52991925155115449 0 -0.84804810408105047 1 I I 0 1 1 forward I I I I #
face $-1 $105 $106 $37 $-1 $107 forward single #
loop $-1 $108 $109 $48 #
cone-surface $-1 39.632030842919605 -0.51273253448820455 3.795428634547342 -0.84804810408105047 0 -0.52991925155115449 0.52991925155115449 0 -0.84804810408105047 1 I I 0 1 1 forward I I I I #
face $-1 $110 $111 $38 $-1 $112 reversed single #
loop $-1 $-1 $113 $49 #
plane-surface $-1 68.007038891776176 12.440001671138035 116.49041886763999 0 -1 0 -0.84804810408105047 0 -0.52991925155115449 forward_v I I I I #
face $-1 $114 $115 $39 $-1 $116 forward single #
loop $-1 $117 $118 $50 #
cone-surface $-1 39.632030842919605 5.2440382235679017 3.795428634547342 -0.84804810408105047 0 -0.52991925155115449 0.52991925155115449 0 -0.84804810408105047 1 I I 0 1 1 forward I I I I #
face $-1 $119 $120 $40 $-1 $121 forward single #
loop $-1 $122 $123 $51 #
cone-surface $-1 39.632030842919605 9.561616292109985 3.795428634547342 -0.84804810408105047 0 -0.52991925155115449 0.52991925155115449 0 -0.84804810408105047 1 I I 0 1 1 forward I I I I #
face $-1 $124 $125 $41 $-1 $126 reversed single #
loop $-1 $-1 $127 $52 #
plane-surface $-1 -101.357737876865 15.883910177620614 58.699635616679508 0 1 0 -0.71933980857756763 0 0.69465836192734942 forward_v I I I I #
face $-1 $128 $129 $42 $-1 $130 forward single #
loop $-1 $131 $132 $53 #
cone-surface $-1 -38.105480662498358 19.454957657644766 2.8209296598596296 0.71933980857756763 0 -0.69465836192734942 0.69465836192734942 0 0.71933980857756763 1 I I 0 1 1 forward I I I I #
face $-1 $133 $134 $43 $-1 $135 forward single #
loop $-1 $136 $137 $54 #
cone-surface $-1 -38.105480662498358 24.811528877680995 2.8209296598596296 0.71933980857756763 0 -0.69465836192734942 0.69465836192734942 0 0.71933980857756763 1 I I 0 1 1 forward I I I I #
face $-1 $138 $139 $33 $-1 $140 reversed single #
loop $-1 $-1 $141 $55 #
plane-surface $-1 0 0 -6.3409726318118995 0 0 1 1 0 0 forward_v I I I I #
coedge $-1 $142 $143 $144 $145 forward $56 $-1 #
face $-1 $146 $147 $34 $-1 $148 reversed single #
loop $-1 $-1 $149 $58 #
plane-surface $-1 0 -26.016923513165295 1.8083254537847182 0 0 1 1 0 0 forward_v I I I I #
coedge $-1 $150 $151 $152 $153 reversed $59 $-1 #
face $-1 $154 $155 $35 $-1 $156 reversed single #
loop $-1 $-1 $157 $61 #
plane-surface $-1 -2.4870406385989554 -2.6715215687592462 72.440830543869964 0.84804810408105047 0 0.52991925155115449 0.52991925155115449 0 -0.84804810408105047 forward_v I I I I #
coedge $-1 $158 $159 $160 $161 reversed $62 $-1 #
face $-1 $-1 $162 $36 $-1 $163 forward single #
loop $-1 $164 $165 $64 #
cone-surface $-1 38.650397110333827 -4.8303106030302878 3.1820358206657549 -0.84804810408105047 0 -0.52991925155115449 0.26495962577557725 0 -0.42402405204052523 1 I I -0.70710678118654746 0.70710678118654746 0.5 forward I I I I #
loop $-1 $-1 $166 $47 #
coedge $-1 $104 $104 $167 $168 reversed $65 $-1 #
face $-1 $-1 $169 $37 $-1 $170 forward single #
loop $-1 $171 $172 $67 #
cone-surface $-1 38.650397110333827 -0.51273253448820455 3.1820358206657549 -0.84804810408105047 0 -0.52991925155115449 0.26495962577557725 0 -0.42402405204052523 1 I I -0.70710678118654746 0.70710678118654746 0.5 forward I I I I #
loop $-1 $-1 $173 $48 #
coedge $-1 $109 $109 $174 $175 reversed $68 $-1 #
face $-1 $176 $177 $38 $-1 $178 reversed single #
loop $-1 $-1 $179 $70 #
plane-surface $-1 -2.4870406385989554 -2.6715215687592462 72.440830543869964 0.84804810408105047 0 0.52991925155115449 0.52991925155115449 0 -0.84804810408105047 forward_v I I I I #
coedge $-1 $180 $181 $182 $183 reversed $71 $-1 #
face $-1 $-1 $184 $39 $-1 $185 forward single #
loop $-1 $186 $187 $73 #
cone-surface $-1 38.650397110333827 5.2440382235679017 3.1820358206657549 -0.84804810408105047 0 -0.52991925155115449 0.26495962577557725 0 -0.42402405204052523 1 I I -0.70710678118654746 0.70710678118654746 0.5 forward I I I I #
loop $-1 $-1 $188 $50 #
coedge $-1 $118 $118 $189 $190 reversed $74 $-1 #
face $-1 $-1 $191 $40 $-1 $192 forward single #
loop $-1 $193 $194 $76 #
cone-surface $-1 38.650397110333827 9.561616292109985 3.1820358206657549 -0.84804810408105047 0 -0.52991925155115449 0.26495962577557725 0 -0.42402405204052523 1 I I -0.70710678118654746 0.70710678118654746 0.5 forward I I I I #
loop $-1 $-1 $195 $51 #
coedge $-1 $123 $123 $196 $197 reversed $77 $-1 #
face $-1 $198 $199 $41 $-1 $200 forward single #
loop $-1 $-1 $201 $79 #
plane-surface $-1 -41.562547685171054 22.133243267662881 0.95609303166295945 -0.71933980857756763 0 0.69465836192734942 0.69465836192734942 0 0.71933980857756763 forward_v I I I I #
coedge $-1 $202 $203 $204 $205 reversed $80 $-1 #
face $-1 $-1 $206 $42 $-1 $207 forward single #
loop $-1 $208 $209 $82 #
cone-surface $-1 -36.888802565599597 19.454957657644766 1.6459973070181553 0.71933980857756763 0 -0.69465836192734942 0.34732918096367471 0 0.35966990428878381 1 I I -0.70710678118654746 0.70710678118654746 0.5 forward I I I I #
loop $-1 $-1 $210 $53 #
coedge $-1 $132 $132 $211 $212 reversed $83 $-1 #
face $-1 $-1 $213 $43 $-1 $214 forward single #
loop $-1 $215 $216 $85 #
cone-surface $-1 -36.888802565599597 24.811528877680995 1.6459973070181553 0.71933980857756763 0 -0.69465836192734942 0.34732918096367471 0 0.35966990428878381 1 I I -0.70710678118654746 0.70710678118654746 0.5 forward I I I I #
loop $-1 $-1 $217 $54 #
coedge $-1 $137 $137 $218 $219 reversed $86 $-1 #
face $-1 $220 $221 $33 $-1 $222 reversed single #
loop $-1 $-1 $223 $88 #
plane-surface $-1 0 -28.382576357705144 0 0 1 0 0 0 1 forward_v I I I I #
coedge $-1 $224 $225 $226 $227 forward $89 $-1 #
coedge $-1 $228 $91 $229 $230 forward $56 $-1 #
coedge $-1 $91 $228 $231 $232 forward $56 $-1 #
coedge $-1 $233 $234 $91 $145 reversed $235 $-1 #
edge $-1 $236 -28.382576357705144 $237 28.382576357705144 $144 $238 forward 7 unknown #
face $-1 $239 $240 $34 $-1 $241 reversed single #
loop $-1 $-1 $242 $92 #
plane-surface $-1 0 -23.651270668625447 3.3083254537847182 0 -1 0 0 0 -1 forward_v I I I I #
coedge $-1 $243 $244 $245 $246 reversed $93 $-1 #
coedge $-1 $247 $95 $248 $249 forward $59 $-1 #
coedge $-1 $95 $247 $250 $251 reversed $59 $-1 #
coedge $-1 $252 $253 $95 $153 forward $254 $-1 #
edge $-1 $255 10.642808912042799 $256 15.374114601122496 $152 $257 forward 7 unknown #
face $-1 $258 $259 $35 $-1 $260 forward single #
loop $-1 $-1 $261 $96 #
plane-surface $-1 68.007038891776176 2.3656528445398486 116.49041886763999 0 -1 0 -0.84804810408105047 0 -0.52991925155115449 forward_v I I I I #
coedge $-1 $262 $263 $264 $265 reversed $97 $-1 #
coedge $-1 $159 $99 $266 $267 reversed $62 $-1 #
coedge $-1 $99 $158 $262 $268 reversed $62 $-1 #
coedge $-1 $264 $269 $99 $161 forward $270 $-1 #
edge $-1 $271 51.904236802008093 $272 56.298458420325133 $160 $273 forward 7 unknown #
loop $-1 $-1 $167 $100 #
plane-surface $-1 -2.4870406385989554 -2.6715215687592462 72.440830543869964 0.84804810408105047 0 0.52991925155115449 0.52991925155115449 0 -0.84804810408105047 forward_v I I I I #
loop $-1 $-1 $274 $64 #
coedge $-1 $165 $165 $166 $275 reversed $101 $-1 #
coedge $-1 $166 $166 $165 $275 forward $103 $-1 #
coedge $-1 $167 $167 $104 $168 forward $162 $-1 #
edge $-1 $276 0 $276 6.2831853071796004 $167 $277 forward 7 unknown #
loop $-1 $-1 $174 $105 #
plane-surface $-1 -2.4870406385989554 -2.6715215687592462 72.440830543869964 0.84804810408105047 0 0.52991925155115449 0.52991925155115449 0 -0.84804810408105047 forward_v I I I I #
loop $-1 $-1 $278 $67 #
coedge $-1 $172 $172 $173 $279 reversed $106 $-1 #
coedge $-1 $173 $173 $172 $279 forward $108 $-1 #
coedge $-1 $174 $174 $109 $175 forward $169 $-1 #
edge $-1 $280 0 $280 6.2831853071796004 $174 $281 forward 7 unknown #
face $-1 $282 $283 $38 $-1 $284 forward single #
loop $-1 $-1 $285 $110 #
plane-surface $-1 41.562547685171054 0 0 -1 0 0 0 0 1 forward_v I I I I #
coedge $-1 $286 $287 $288 $289 reversed $111 $-1 #
coedge $-1 $181 $113 $290 $291 reversed $71 $-1 #
coedge $-1 $113 $180 $292 $293 reversed $71 $-1 #
coedge $-1 $294 $285 $113 $183 forward $177 $-1 #
edge $-1 $295 -56.298458420325133 $296 -51.904236802008093 $182 $297 forward 7 unknown #
loop $-1 $-1 $189 $114 #
plane-surface $-1 -2.4870406385989554 -2.6715215687592462 72.440830543869964 0.84804810408105047 0 0.52991925155115449 0.52991925155115449 0 -0.84804810408105047 forward_v I I I I #
loop $-1 $-1 $298 $73 #
coedge $-1 $187 $187 $188 $299 reversed $115 $-1 #
coedge $-1 $188 $188 $187 $299 forward $117 $-1 #
coedge $-1 $189 $189 $118 $190 forward $184 $-1 #
edge $-1 $300 0 $300 6.2831853071796004 $189 $301 forward 7 unknown #
loop $-1 $-1 $196 $119 #
plane-surface $-1 -2.4870406385989554 -2.6715215687592462 72.440830543869964 0.84804810408105047 0 0.52991925155115449 0.52991925155115449 0 -0.84804810408105047 forward_v I I I I #
loop $-1 $-1 $302 $76 #
coedge $-1 $194 $194 $195 $303 reversed $120 $-1 #
coedge $-1 $195 $195 $194 $303 forward $122 $-1 #
coedge $-1 $196 $196 $123 $197 forward $191 $-1 #
edge $-1 $304 0 $304 6.2831853071796004 $196 $305 forward 7 unknown #
face $-1 $306 $307 $41 $-1 $308 reversed single #
loop $-1 $-1 $204 $124 #
plane-surface $-1 0 0 6.3409726318118995 0 0 1 1 0 0 forward_v I I I I #
coedge $-1 $309 $310 $311 $312 reversed $125 $-1 #
coedge $-1 $203 $127 $313 $314 reversed $80 $-1 #
coedge $-1 $127 $202 $309 $315 reversed $80 $-1 #
coedge $-1 $311 $316 $127 $205 forward $199 $-1 #
edge $-1 $317 9.1163212532614466 $318 14.316438913386889 $204 $319 forward 7 unknown #
loop $-1 $-1 $211 $128 #
plane-surface $-1 -41.562547685171054 22.133243267662881 0.95609303166295945 -0.71933980857756763 0 0.69465836192734942 0.69465836192734942 0 0.71933980857756763 forward_v I I I I #
loop $-1 $-1 $320 $82 #
coedge $-1 $209 $209 $210 $321 reversed $129 $-1 #
coedge $-1 $210 $210 $209 $321 forward $131 $-1 #
coedge $-1 $211 $211 $132 $212 forward $206 $-1 #
edge $-1 $322 0 $322 6.2831853071796004 $211 $323 forward 7 unknown #
loop $-1 $-1 $218 $133 #
plane-surface $-1 -41.562547685171054 22.133243267662881 0.95609303166295945 -0.71933980857756763 0 0.69465836192734942 0.69465836192734942 0 0.71933980857756763 forward_v I I I I #
loop $-1 $-1 $324 $85 #
coedge $-1 $216 $216 $217 $325 reversed $134 $-1 #
coedge $-1 $217 $217 $216 $325 forward $136 $-1 #
coedge $-1 $218 $218 $137 $219 forward $213 $-1 #
edge $-1 $326 0 $326 6.2831853071796004 $218 $327 forward 7 unknown #
face $-1 $328 $329 $33 $-1 $330 reversed single #
loop $-1 $-1 $331 $138 #
plane-surface $-1 -41.562547685171054 0 0 1 0 0 0 0 -1 forward_v I I I I #
coedge $-1 $332 $231 $333 $334 forward $139 $-1 #
coedge $-1 $335 $141 $332 $336 forward $89 $-1 #
coedge $-1 $141 $335 $337 $338 forward $89 $-1 #
coedge $-1 $234 $233 $141 $227 reversed $235 $-1 #
edge $-1 $339 -28.382576357705144 $340 28.382576357705144 $226 $341 forward 7 unknown #
coedge $-1 $143 $142 $342 $343 forward $56 $-1 #
coedge $-1 $344 $345 $142 $230 reversed $329 $-1 #
edge $-1 $237 -41.562547685171054 $346 41.562547685171054 $229 $347 forward 7 unknown #
coedge $-1 $223 $348 $143 $232 reversed $139 $-1 #
edge $-1 $349 -41.562547685171054 $236 41.562547685171054 $231 $350 forward 7 unknown #
coedge $-1 $226 $144 $348 $351 forward $235 $-1 #
coedge $-1 $144 $226 $344 $352 reversed $235 $-1 #
loop $-1 $-1 $233 $328 #
vertex $-1 $145 $353 #
vertex $-1 $145 $354 #
straight-curve $-1 41.562547685171054 0 6.3409726318118995 0 1 0 I I #
face $-1 $355 $356 $34 $-1 $357 reversed single #
loop $-1 $-1 $358 $146 #
plane-surface $-1 -41.562547685171054 0 0 1 0 0 0 0 -1 forward_v I I I I #
coedge $-1 $359 $248 $253 $360 reversed $147 $-1 #
coedge $-1 $361 $149 $362 $363 reversed $93 $-1 #
coedge $-1 $149 $361 $359 $364 forward $93 $-1 #
coedge $-1 $253 $252 $149 $246 forward $254 $-1 #
edge $-1 $365 -15.374114601122496 $366 -10.642808912042799 $245 $367 forward 7 unknown #
coedge $-1 $151 $150 $358 $368 reversed $59 $-1 #
coedge $-1 $242 $369 $150 $249 reversed $147 $-1 #
edge $-1 $255 -41.562547685171054 $370 41.562547685171054 $248 $371 forward 7 unknown #
coedge $-1 $372 $373 $151 $251 forward $356 $-1 #
edge $-1 $256 -41.562547685171054 $374 41.562547685171054 $250 $375 forward 7 unknown #
coedge $-1 $245 $152 $373 $376 forward $254 $-1 #
coedge $-1 $152 $245 $242 $360 forward $254 $-1 #
loop $-1 $-1 $152 $355 #
vertex $-1 $153 $377 #
vertex $-1 $376 $378 #
straight-curve $-1 41.562547685171054 -13.008461756582648 4.8083254537847182 0 -1 0 I I #
face $-1 $-1 $270 $35 $-1 $379 reversed single #
loop $-1 $-1 $380 $154 #
plane-surface $-1 0 0 6.3409726318118995 0 0 1 1 0 0 forward_v I I I I #
coedge $-1 $381 $382 $383 $384 reversed $155 $-1 #
coedge $-1 $385 $157 $159 $268 forward $97 $-1 #
coedge $-1 $157 $385 $381 $386 forward $97 $-1 #
coedge $-1 $383 $160 $157 $265 forward $270 $-1 #
edge $-1 $272 -6.3729351976787179 $387 3.7014136289194717 $264 $388 forward 7 unknown #
coedge $-1 $389 $390 $158 $267 forward $259 $-1 #
edge $-1 $391 4.8132139158705769 $271 7.5590282392829664 $266 $392 forward 7 unknown #
edge $-1 $272 -83.125095370342066 $391 -77.943524186855214 $159 $393 forward 7 unknown #
coedge $-1 $160 $383 $389 $394 reversed $270 $-1 #
loop $-1 $-1 $383 $258 #
vertex $-1 $394 $395 #
vertex $-1 $161 $396 #
straight-curve $-1 41.562547685171054 -7.7086959820583409 58.245209433819994 0 0 -1 I I #
coedge $-1 $274 $274 $-1 $397 reversed $164 $-1 #
edge $-1 $398 0 $398 6.2831853071796004 $165 $399 forward 7 unknown #
vertex $-1 $168 $400 #
ellipse-curve $-1 40.189640523464874 -4.8303106030302878 4.1438618226533643 0.84804810408105047 0 0.52991925155115449 0.52991925155115449 0 -0.84804810408105047 1 I I #
coedge $-1 $278 $278 $-1 $401 reversed $171 $-1 #
edge $-1 $402 0 $402 6.2831853071796004 $172 $403 forward 7 unknown #
vertex $-1 $175 $404 #
ellipse-curve $-1 40.189640523464874 -0.51273253448820455 4.1438618226533643 0.84804810408105047 0 0.52991925155115449 0.52991925155115449 0 -0.84804810408105047 1 I I #
face $-1 $-1 $405 $38 $-1 $406 forward single #
loop $-1 $-1 $407 $176 #
plane-surface $-1 68.007038891776176 2.3656528445398486 116.49041886763999 0 -1 0 -0.84804810408105047 0 -0.52991925155115449 forward_v I I I I #
coedge $-1 $182 $408 $287 $409 forward $177 $-1 #
coedge $-1 $290 $179 $410 $411 reversed $111 $-1 #
coedge $-1 $179 $290 $285 $409 reversed $111 $-1 #
coedge $-1 $407 $412 $179 $289 forward $283 $-1 #
edge $-1 $413 77.943524186855214 $414 83.125095370342066 $288 $415 forward 7 unknown #
coedge $-1 $287 $286 $180 $291 forward $111 $-1 #
edge $-1 $416 77.943524186855214 $295 83.125095370342066 $180 $417 forward 7 unknown #
coedge $-1 $410 $418 $181 $293 forward $405 $-1 #
edge $-1 $296 -7.5590282392829664 $416 -4.8132139158705769 $292 $419 forward 7 unknown #
coedge $-1 $408 $182 $418 $420 reversed $177 $-1 #
vertex $-1 $183 $421 #
vertex $-1 $293 $422 #
straight-curve $-1 41.562547685171054 12.440001671138035 58.245209433819994 0 0 1 I I #
coedge $-1 $298 $298 $-1 $423 reversed $186 $-1 #
edge $-1 $424 0 $424 6.2831853071796004 $187 $425 forward 7 unknown #
vertex $-1 $190 $426 #
ellipse-curve $-1 40.189640523464874 5.2440382235679017 4.1438618226533643 0.84804810408105047 0 0.52991925155115449 0.52991925155115449 0 -0.84804810408105047 1 I I #
coedge $-1 $302 $302 $-1 $427 reversed $193 $-1 #
edge $-1 $428 0 $428 6.2831853071796004 $194 $429 forward 7 unknown #
vertex $-1 $197 $430 #
ellipse-curve $-1 40.189640523464874 9.561616292109985 4.1438618226533643 0.84804810408105047 0 0.52991925155115449 0.52991925155115449 0 -0.84804810408105047 1 I I #
face $-1 $-1 $431 $41 $-1 $432 reversed single #
loop $-1 $-1 $433 $198 #
plane-surface $-1 0 28.382576357705144 0 0 -1 0 0 0 -1 forward_v I I I I #
coedge $-1 $434 $201 $203 $315 forward $125 $-1 #
coedge $-1 $201 $434 $433 $435 reversed $125 $-1 #
coedge $-1 $436 $204 $201 $312 forward $199 $-1 #
edge $-1 $318 4.8172885437891733 $437 17.315954723873709 $311 $438 forward 7 unknown #
coedge $-1 $439 $440 $202 $314 forward $431 $-1 #
edge $-1 $441 -28.393724776676795 $317 -23.008845176527856 $313 $442 forward 7 unknown #
edge $-1 $318 -7.4858634763966094 $441 0 $203 $443 forward 7 unknown #
coedge $-1 $204 $436 $439 $444 forward $199 $-1 #
vertex $-1 $314 $445 #
vertex $-1 $205 $446 #
straight-curve $-1 -50.678868938432501 15.883910177620614 6.3409726318119013 1 0 0 I I #
coedge $-1 $320 $320 $-1 $447 reversed $208 $-1 #
edge $-1 $448 0 $448 6.2831853071796004 $209 $449 forward 7 unknown #
vertex $-1 $212 $450 #
ellipse-curve $-1 -38.962488855108333 19.454957657644766 3.6485328317374295 -0.71933980857756763 0 0.69465836192734942 0.69465836192734942 0 0.71933980857756763 1 I I #
coedge $-1 $324 $324 $-1 $451 reversed $215 $-1 #
edge $-1 $452 0 $452 6.2831853071796004 $216 $453 forward 7 unknown #
vertex $-1 $219 $454 #
ellipse-curve $-1 -38.962488855108333 24.811528877680995 3.6485328317374295 -0.71933980857756763 0 0.69465836192734942 0.69465836192734942 0 0.71933980857756763 1 I I #
face $-1 $-1 $235 $33 $-1 $455 reversed single #
loop $-1 $-1 $344 $220 #
plane-surface $-1 0 28.382576357705144 0 0 -1 0 0 0 -1 forward_v I I I I #
coedge $-1 $456 $342 $345 $457 forward $221 $-1 #
coedge $-1 $348 $223 $224 $336 reversed $139 $-1 #
coedge $-1 $342 $456 $223 $334 reversed $221 $-1 #
edge $-1 $349 -6.3409726318118995 $458 6.3409726318118995 $333 $459 forward 7 unknown #
coedge $-1 $225 $224 $456 $460 forward $89 $-1 #
edge $-1 $340 -41.562547685171054 $458 41.562547685171054 $332 $461 forward 7 unknown #
coedge $-1 $345 $344 $225 $338 reversed $329 $-1 #
edge $-1 $462 -41.562547685171054 $339 41.562547685171054 $337 $463 forward 7 unknown #
vertex $-1 $227 $464 #
vertex $-1 $351 $465 #
straight-curve $-1 41.562547685171054 0 -6.3409726318118995 0 -1 0 I I #
coedge $-1 $331 $333 $228 $343 reversed $221 $-1 #
edge $-1 $346 -28.382576357705144 $349 28.382576357705144 $342 $466 forward 7 unknown #
coedge $-1 $337 $229 $234 $352 forward $329 $-1 #
coedge $-1 $229 $337 $331 $457 reversed $329 $-1 #
vertex $-1 $230 $467 #
straight-curve $-1 0 28.382576357705144 6.3409726318118995 -1 0 0 I I #
coedge $-1 $231 $332 $233 $351 reversed $139 $-1 #
vertex $-1 $343 $468 #
straight-curve $-1 0 -28.382576357705144 6.3409726318118995 1 0 0 I I #
edge $-1 $236 -6.3409726318118995 $340 6.3409726318118995 $233 $469 forward 7 unknown #
edge $-1 $237 -6.3409726318118995 $339 6.3409726318118995 $234 $470 forward 7 unknown #
point $-1 41.562547685171054 -28.382576357705144 6.3409726318118995 #
point $-1 41.562547685171054 28.382576357705144 6.3409726318118995 #
face $-1 $-1 $254 $34 $-1 $471 reversed single #
loop $-1 $-1 $250 $239 #
plane-surface $-1 0 -28.382576357705144 0 0 1 0 0 0 1 forward_v I I I I #
coedge $-1 $472 $473 $247 $368 forward $240 $-1 #
coedge $-1 $369 $242 $244 $364 reversed $147 $-1 #
edge $-1 $366 0.1541627268923591 $255 3.1541627268923591 $253 $474 forward 7 unknown #
coedge $-1 $244 $243 $475 $476 reversed $93 $-1 #
coedge $-1 $373 $372 $243 $363 forward $356 $-1 #
edge $-1 $477 -41.562547685171054 $365 41.562547685171054 $362 $478 forward 7 unknown #
edge $-1 $479 -41.562547685171054 $366 41.562547685171054 $359 $480 forward 7 unknown #
vertex $-1 $363 $481 #
vertex $-1 $246 $482 #
straight-curve $-1 41.562547685171054 -13.008461756582648 1.8083254537847182 0 1 0 I I #
edge $-1 $374 -15.374114601122496 $370 -10.642808912042799 $358 $483 forward 7 unknown #
coedge $-1 $248 $359 $472 $484 reversed $147 $-1 #
vertex $-1 $368 $485 #
straight-curve $-1 0 -23.651270668625447 4.8083254537847182 -1 0 0 I I #
coedge $-1 $362 $250 $473 $486 forward $356 $-1 #
coedge $-1 $250 $362 $252 $376 reversed $356 $-1 #
vertex $-1 $486 $487 #
straight-curve $-1 0 -28.382576357705144 4.8083254537847182 -1 0 0 I I #
edge $-1 $256 -4.8083254537847182 $365 -1.8083254537847182 $252 $488 forward 7 unknown #
point $-1 41.562547685171054 -23.651270668625447 4.8083254537847182 #
point $-1 41.562547685171054 -28.382576357705144 4.8083254537847182 #
plane-surface $-1 41.562547685171054 0 0 -1 0 0 0 0 1 forward_v I I I I #
coedge $-1 $390 $389 $382 $489 forward $259 $-1 #
coedge $-1 $382 $261 $263 $386 reversed $155 $-1 #
coedge $-1 $261 $381 $380 $489 reversed $155 $-1 #
coedge $-1 $269 $264 $261 $384 forward $270 $-1 #
edge $-1 $387 -56.298458420325133 $490 -51.904236802008093 $383 $491 forward 7 unknown #
coedge $-1 $263 $262 $390 $492 reversed $97 $-1 #
edge $-1 $493 77.943524186855214 $387 83.125095370342066 $381 $494 forward 7 unknown #
vertex $-1 $265 $495 #
straight-curve $-1 41.562547685171054 -1.3357607843796231 1.946751013494854 0 1 0 I I #
coedge $-1 $380 $266 $269 $394 forward $259 $-1 #
coedge $-1 $266 $380 $385 $492 forward $259 $-1 #
vertex $-1 $267 $496 #
straight-curve $-1 34.003519445888088 -7.7086959820583409 6.3409726318119013 1 0 0 I I #
straight-curve $-1 -2.4870406385989554 -7.7086959820583409 72.440830543869964 -0.52991925155115449 0 0.84804810408105047 I I #
edge $-1 $271 -7.7086959820583409 $490 2.3656528445398486 $269 $497 forward 7 unknown #
point $-1 41.562547685171054 -7.7086959820583409 6.3409726318118995 #
point $-1 41.562547685171054 -7.7086959820583409 1.9467510134948611 #
edge $-1 $498 1 $498 0 $274 $-1 forward 7 unknown #
vertex $-1 $275 $499 #
ellipse-curve $-1 39.07442116237435 -4.8303106030302878 3.4469954464413322 0.84804810408105047 0 0.52991925155115449 0.52991925155115449 0 -0.84804810408105047 1 I I #
point $-1 40.719559775016009 -4.8303106030302878 3.2958137185723011 #
edge $-1 $500 1 $500 0 $278 $-1 forward 7 unknown #
vertex $-1 $279 $501 #
ellipse-curve $-1 39.07442116237435 -0.51273253448820455 3.4469954464413322 0.84804810408105047 0 0.52991925155115449 0.52991925155115449 0 -0.84804810408105047 1 I I #
point $-1 40.719559775016009 -0.51273253448820455 3.2958137185723011 #
loop $-1 $-1 $410 $282 #
plane-surface $-1 0 0 6.3409726318118995 0 0 1 1 0 0 forward_v I I I I #
coedge $-1 $412 $288 $408 $502 reversed $283 $-1 #
coedge $-1 $285 $294 $407 $502 forward $177 $-1 #
edge $-1 $414 3.7014136289194717 $295 13.775762455517658 $285 $503 forward 7 unknown #
coedge $-1 $504 $292 $286 $411 forward $405 $-1 #
edge $-1 $416 -13.775762455517658 $413 -3.7014136289194717 $410 $505 forward 7 unknown #
coedge $-1 $288 $407 $504 $506 reversed $283 $-1 #
vertex $-1 $411 $507 #
vertex $-1 $409 $508 #
straight-curve $-1 -2.4870406385989554 2.3656528445398486 72.440830543869964 0.52991925155115449 0 -0.84804810408105047 I I #
vertex $-1 $293 $509 #
straight-curve $-1 -2.4870406385989554 12.440001671138035 72.440830543869964 0.52991925155115449 0 -0.84804810408105047 I I #
coedge $-1 $292 $504 $294 $420 forward $405 $-1 #
straight-curve $-1 34.003519445888088 12.440001671138035 6.3409726318119013 -1 0 0 I I #
edge $-1 $510 2.3656528445398486 $296 12.440001671138035 $294 $511 forward 7 unknown #
point $-1 41.562547685171054 12.440001671138035 1.9467510134948611 #
point $-1 41.562547685171054 12.440001671138035 6.3409726318118995 #
edge $-1 $512 1 $512 0 $298 $-1 forward 7 unknown #
vertex $-1 $299 $513 #
ellipse-curve $-1 39.07442116237435 5.2440382235679017 3.4469954464413322 0.84804810408105047 0 0.52991925155115449 0.52991925155115449 0 -0.84804810408105047 1 I I #
point $-1 40.719559775016009 5.2440382235679017 3.2958137185723011 #
edge $-1 $514 1 $514 0 $302 $-1 forward 7 unknown #
vertex $-1 $303 $515 #
ellipse-curve $-1 39.07442116237435 9.561616292109985 3.4469954464413322 0.84804810408105047 0 0.52991925155115449 0.52991925155115449 0 -0.84804810408105047 1 I I #
point $-1 40.719559775016009 9.561616292109985 3.2958137185723011 #
loop $-1 $-1 $313 $306 #
plane-surface $-1 -41.562547685171054 0 0 1 0 0 0 0 -1 forward_v I I I I #
coedge $-1 $516 $517 $310 $435 forward $307 $-1 #
coedge $-1 $310 $309 $440 $518 reversed $125 $-1 #
edge $-1 $437 6.6061442806681381 $519 14.092007757064746 $433 $520 forward 7 unknown #
coedge $-1 $316 $311 $517 $521 forward $199 $-1 #
vertex $-1 $521 $522 #
straight-curve $-1 -36.362430025045619 11.06662163383144 6.3409726318119004 0 1 0 I I #
coedge $-1 $523 $313 $316 $444 reversed $431 $-1 #
coedge $-1 $313 $523 $434 $518 forward $431 $-1 #
vertex $-1 $314 $524 #
straight-curve $-1 -41.562547685171054 15.883910177620614 29.349817808339754 0 0 1 I I #
straight-curve $-1 -41.562547685171054 15.883910177620614 0.95609303166295945 -0.69465836192734942 0 -0.71933980857756763 I I #
edge $-1 $525 -28.382576357705144 $317 -15.883910177620614 $439 $526 forward 7 unknown #
point $-1 -41.562547685171054 15.883910177620614 6.3409726318118995 #
point $-1 -36.362430025045612 15.883910177620614 6.3409726318118995 #
edge $-1 $527 1 $527 0 $320 $-1 forward 7 unknown #
vertex $-1 $321 $528 #
ellipse-curve $-1 -37.248472469888384 19.454957657644766 1.99332648798183 -0.71933980857756763 0 0.69465836192734942 0.69465836192734942 0 0.71933980857756763 1 I I #
point $-1 -38.267830493180981 19.454957657644766 4.3678726403149977 #
edge $-1 $529 1 $529 0 $324 $-1 forward 7 unknown #
vertex $-1 $325 $530 #
ellipse-curve $-1 -37.248472469888384 24.811528877680995 1.99332648798183 -0.71933980857756763 0 0.69465836192734942 0.69465836192734942 0 0.71933980857756763 1 I I #
point $-1 -38.267830493180981 24.811528877680995 4.3678726403149977 #
plane-surface $-1 41.562547685171054 0 0 -1 0 0 0 0 1 forward_v I I I I #
coedge $-1 $333 $331 $335 $460 reversed $221 $-1 #
edge $-1 $346 -6.3409726318118995 $462 6.3409726318118995 $345 $531 forward 7 unknown #
vertex $-1 $460 $532 #
straight-curve $-1 -41.562547685171054 -28.382576357705144 0 0 0 -1 I I #
edge $-1 $458 -28.382576357705144 $462 28.382576357705144 $456 $533 forward 7 unknown #
straight-curve $-1 0 -28.382576357705144 -6.3409726318118995 -1 0 0 I I #
vertex $-1 $338 $534 #
straight-curve $-1 0 28.382576357705144 -6.3409726318118995 1 0 0 I I #
point $-1 41.562547685171054 28.382576357705144 -6.3409726318118995 #
point $-1 41.562547685171054 -28.382576357705144 -6.3409726318118995 #
straight-curve $-1 -41.562547685171054 0 6.3409726318118995 0 -1 0 I I #
point $-1 -41.562547685171054 28.382576357705144 6.3409726318118995 #
point $-1 -41.562547685171054 -28.382576357705144 6.3409726318118995 #
straight-curve $-1 41.562547685171054 -28.382576357705144 0 0 0 -1 I I #
straight-curve $-1 41.562547685171054 28.382576357705144 0 0 0 -1 I I #
plane-surface $-1 41.562547685171054 0 0 -1 0 0 0 0 1 forward_v I I I I #
coedge $-1 $475 $358 $369 $484 forward $240 $-1 #
coedge $-1 $358 $475 $372 $486 reversed $240 $-1 #
straight-curve $-1 41.562547685171054 -23.651270668625447 1.6541627268923591 0 0 1 I I #
coedge $-1 $473 $472 $361 $476 forward $240 $-1 #
edge $-1 $479 10.642808912042799 $477 15.374114601122496 $475 $535 forward 7 unknown #
vertex $-1 $363 $536 #
straight-curve $-1 0 -28.382576357705144 1.8083254537847182 1 0 0 I I #
vertex $-1 $476 $537 #
straight-curve $-1 0 -23.651270668625447 1.8083254537847182 1 0 0 I I #
point $-1 41.562547685171054 -28.382576357705144 1.8083254537847182 #
point $-1 41.562547685171054 -23.651270668625447 1.8083254537847182 #
straight-curve $-1 -41.562547685171054 -13.008461756582648 4.8083254537847182 0 1 0 I I #
edge $-1 $370 -3.1541627268923591 $479 -0.1541627268923591 $472 $538 forward 7 unknown #
point $-1 -41.562547685171054 -23.651270668625447 4.8083254537847182 #
edge $-1 $374 -4.8083254537847182 $477 -1.8083254537847182 $473 $539 forward 7 unknown #
point $-1 -41.562547685171054 -28.382576357705144 4.8083254537847182 #
straight-curve $-1 41.562547685171054 -28.382576357705144 0 0 0 -1 I I #
edge $-1 $490 -7.5590282392829664 $493 -4.8132139158705769 $380 $540 forward 7 unknown #
vertex $-1 $489 $541 #
straight-curve $-1 41.562547685171054 2.3656528445398486 58.245209433819994 0 0 1 I I #
edge $-1 $493 -3.7014136289194717 $391 6.3729351976787179 $390 $542 forward 7 unknown #
vertex $-1 $492 $543 #
straight-curve $-1 -2.4870406385989554 2.3656528445398486 72.440830543869964 0.52991925155115449 0 -0.84804810408105047 I I #
point $-1 41.562547685171054 2.3656528445398486 1.9467510134948611 #
point $-1 38.816733361758665 -7.7086959820583409 6.3409726318118942 #
straight-curve $-1 41.562547685171054 0 6.3409726318118995 0 1 0 I I #
vertex $-1 $397 $544 #
point $-1 39.604340413925506 -4.8303106030302878 2.5989473423602814 #
vertex $-1 $401 $545 #
point $-1 39.604340413925506 -0.51273253448820455 2.5989473423602814 #
edge $-1 $510 51.904236802008093 $414 56.298458420325133 $408 $546 forward 7 unknown #
straight-curve $-1 41.562547685171054 -1.3357607843796231 1.946751013494854 0 1 0 I I #
coedge $-1 $418 $410 $412 $506 forward $405 $-1 #
straight-curve $-1 38.816733361758665 -1.3357607843796231 6.3409726318118942 0 -1 0 I I #
edge $-1 $413 4.8132139158705769 $510 7.5590282392829664 $504 $547 forward 7 unknown #
point $-1 38.816733361758665 2.3656528445398486 6.3409726318118942 #
point $-1 41.562547685171054 2.3656528445398486 1.9467510134948611 #
point $-1 38.816733361758665 12.440001671138035 6.3409726318118942 #
vertex $-1 $420 $548 #
straight-curve $-1 41.562547685171054 0 6.3409726318118995 0 1 0 I I #
vertex $-1 $423 $549 #
point $-1 39.604340413925506 5.2440382235679017 2.5989473423602814 #
vertex $-1 $427 $550 #
point $-1 39.604340413925506 9.561616292109985 2.5989473423602814 #
coedge $-1 $517 $433 $523 $551 reversed $307 $-1 #
coedge $-1 $433 $516 $436 $521 reversed $307 $-1 #
edge $-1 $519 -17.315954723873709 $441 -4.8172885437891733 $440 $552 forward 7 unknown #
vertex $-1 $435 $553 #
straight-curve $-1 -31.773416660380956 28.382576357705144 11.093035194103512 -0.69465836192734942 0 -0.71933980857756763 I I #
edge $-1 $437 36.362430025045612 $525 41.562547685171054 $517 $554 forward 7 unknown #
point $-1 -36.362430025045612 28.382576357705148 6.3409726318118995 #
coedge $-1 $440 $439 $516 $551 forward $431 $-1 #
point $-1 -41.562547685171054 15.883910177620614 0.95609303166295945 #
vertex $-1 $521 $555 #
straight-curve $-1 -41.562547685171054 0 6.3409726318118995 0 -1 0 I I #
vertex $-1 $447 $556 #
point $-1 -36.553814107961031 19.454957657644766 2.7126662965593975 #
vertex $-1 $451 $557 #
point $-1 -36.553814107961031 24.811528877680995 2.7126662965593975 #
straight-curve $-1 -41.562547685171054 28.382576357705144 0 0 0 -1 I I #
point $-1 -41.562547685171054 -28.382576357705144 -6.3409726318118995 #
straight-curve $-1 -41.562547685171054 0 -6.3409726318118995 0 1 0 I I #
point $-1 -41.562547685171054 28.382576357705144 -6.3409726318118995 #
straight-curve $-1 -41.562547685171054 -13.008461756582648 1.8083254537847182 0 -1 0 I I #
point $-1 -41.562547685171054 -28.382576357705144 1.8083254537847182 #
point $-1 -41.562547685171054 -23.651270668625447 1.8083254537847182 #
straight-curve $-1 -41.562547685171054 -23.651270668625447 1.6541627268923591 0 0 -1 I I #
straight-curve $-1 -41.562547685171054 -28.382576357705144 0 0 0 -1 I I #
straight-curve $-1 34.003519445888088 2.3656528445398486 6.3409726318119013 -1 0 0 I I #
point $-1 41.562547685171054 2.3656528445398486 6.3409726318118995 #
straight-curve $-1 38.816733361758665 -1.3357607843796231 6.3409726318118942 0 -1 0 I I #
point $-1 38.816733361758665 2.3656528445398486 6.3409726318118942 #
point $-1 38.226373058293305 -4.8303106030302878 2.9170761948901776 #
point $-1 38.226373058293305 -0.51273253448820455 2.9170761948901776 #
straight-curve $-1 41.562547685171054 2.3656528445398486 58.245209433819994 0 0 -1 I I #
straight-curve $-1 34.003519445888088 2.3656528445398486 6.3409726318119013 1 0 0 I I #
point $-1 41.562547685171054 2.3656528445398486 6.3409726318118995 #
point $-1 38.226373058293305 5.2440382235679017 2.9170761948901776 #
point $-1 38.226373058293305 9.561616292109985 2.9170761948901776 #
edge $-1 $525 -6.3409726318118995 $519 -0.95609303166295945 $516 $558 forward 7 unknown #
straight-curve $-1 -41.562547685171054 11.06662163383144 0.95609303166296267 0 -1 0 I I #
point $-1 -41.562547685171054 28.382576357705148 0.95609303166295945 #
straight-curve $-1 0 28.382576357705144 6.3409726318118995 -1 0 0 I I #
point $-1 -41.562547685171054 28.382576357705144 6.3409726318118995 #
point $-1 -36.529132661310811 19.454957657644766 1.2986681260544806 #
point $-1 -36.529132661310811 24.811528877680995 1.2986681260544806 #
straight-curve $-1 -41.562547685171054 28.382576357705144 0 0 0 -1 I I #
End-of-ACIS-data 