500 0 14 0           
7 Unknown 11 ACIS 5.0 NT 24 Fri Mar 26 03:31:10 1999 
-1 9.9999999999999995e-007 1e-010 
body $-1 $14 $-1 $15 #
body $-1 $16 $-1 $17 #
body $-1 $18 $-1 $19 #
body $-1 $20 $-1 $21 #
body $-1 $22 $-1 $23 #
body $-1 $24 $-1 $25 #
body $-1 $26 $-1 $27 #
body $-1 $28 $-1 $29 #
body $-1 $30 $-1 $31 #
body $-1 $32 $-1 $33 #
body $-1 $34 $-1 $35 #
body $-1 $36 $-1 $37 #
body $-1 $38 $-1 $39 #
body $-1 $40 $-1 $41 #
lump $-1 $-1 $42 $0 #
transform $-1 1 0 0 0 1 0 0 0 1 76.199835200048824 47.930991647334402 13.985955300713941 1 rotate no_reflect no_shear #
lump $-1 $-1 $43 $1 #
transform $-1 1 0 0 0 1 0 0 0 1 76.199835200048824 47.930991647334402 13.985955300713941 1 rotate no_reflect no_shear #
lump $-1 $-1 $44 $2 #
transform $-1 1 0 0 0 1 0 0 0 1 76.199835200048824 47.930991647334402 13.985955300713941 1 rotate no_reflect no_shear #
lump $-1 $-1 $45 $3 #
transform $-1 1 0 0 0 1 0 0 0 1 76.199835200048824 47.930991647334402 13.985955300713941 1 rotate no_reflect no_shear #
lump $-1 $-1 $46 $4 #
transform $-1 1 0 0 0 1 0 0 0 1 76.199835200048824 47.930991647334402 13.985955300713941 1 rotate no_reflect no_shear #
lump $-1 $-1 $47 $5 #
transform $-1 1 0 0 0 1 0 0 0 1 76.199835200048824 47.930991647334402 13.985955300713941 1 rotate no_reflect no_shear #
lump $-1 $-1 $48 $6 #
transform $-1 1 0 0 0 1 0 0 0 1 76.199835200048824 47.930991647334402 13.985955300713941 1 rotate no_reflect no_shear #
lump $-1 $-1 $49 $7 #
transform $-1 1 0 0 0 1 0 0 0 1 76.199835200048824 47.930991647334402 13.985955300713941 1 rotate no_reflect no_shear #
lump $-1 $-1 $50 $8 #
transform $-1 1 0 0 0 1 0 0 0 1 76.199835200048824 47.930991647334402 13.985955300713941 1 rotate no_reflect no_shear #
lump $-1 $-1 $51 $9 #
transform $-1 1 0 0 0 1 0 0 0 1 76.199835200048824 47.930991647334402 13.985955300713941 1 rotate no_reflect no_shear #
lump $-1 $-1 $52 $10 #
transform $-1 1 0 0 0 1 0 0 0 1 76.199835200048824 47.930991647334402 13.985955300713941 1 rotate no_reflect no_shear #
lump $-1 $-1 $53 $11 #
transform $-1 1 0 0 0 1 0 0 0 1 76.199835200048824 47.930991647334402 13.985955300713941 1 rotate no_reflect no_shear #
lump $-1 $-1 $54 $12 #
transform $-1 1 0 0 0 1 0 0 0 1 76.199835200048824 47.930991647334402 13.985955300713941 1 rotate no_reflect no_shear #
lump $-1 $-1 $55 $13 #
transform $-1 1 0 0 0 1 0 0 0 1 76.199835200048824 47.930991647334402 13.985955300713941 1 rotate no_reflect no_shear #
shell $-1 $-1 $-1 $56 $-1 $14 #
shell $-1 $-1 $-1 $57 $-1 $16 #
shell $-1 $-1 $-1 $58 $-1 $18 #
shell $-1 $-1 $-1 $59 $-1 $20 #
shell $-1 $-1 $-1 $60 $-1 $22 #
shell $-1 $-1 $-1 $61 $-1 $24 #
shell $-1 $-1 $-1 $62 $-1 $26 #
shell $-1 $-1 $-1 $63 $-1 $28 #
shell $-1 $-1 $-1 $64 $-1 $30 #
shell $-1 $-1 $-1 $65 $-1 $32 #
shell $-1 $-1 $-1 $66 $-1 $34 #
shell $-1 $-1 $-1 $67 $-1 $36 #
shell $-1 $-1 $-1 $68 $-1 $38 #
shell $-1 $-1 $-1 $69 $-1 $40 #
face $-1 $70 $71 $42 $-1 $72 forward single #
face $-1 $73 $74 $43 $-1 $75 forward single #
face $-1 $76 $77 $44 $-1 $78 reversed single #
face $-1 $79 $80 $45 $-1 $81 forward single #
face $-1 $82 $83 $46 $-1 $84 forward single #
face $-1 $85 $86 $47 $-1 $87 forward single #
face $-1 $88 $89 $48 $-1 $90 reversed single #
face $-1 $91 $92 $49 $-1 $93 forward single #
face $-1 $94 $95 $50 $-1 $96 reversed single #
face $-1 $97 $98 $51 $-1 $99 forward single #
face $-1 $100 $101 $52 $-1 $102 reversed single #
face $-1 $103 $104 $53 $-1 $105 forward single #
face $-1 $106 $107 $54 $-1 $108 reversed single #
face $-1 $109 $110 $55 $-1 $111 forward single #
face $-1 $112 $113 $42 $-1 $114 reversed single #
loop $-1 $-1 $115 $56 #
plane-surface $-1 0 0 13.985955300713941 0 0 1 1 0 0 forward_v I I I I #
face $-1 $116 $117 $43 $-1 $118 reversed single #
loop $-1 $-1 $119 $57 #
plane-surface $-1 0 -40.893499843154636 8.0603957907142867 0 0 1 1 0 0 forward_v I I I I #
face $-1 $120 $121 $44 $-1 $122 reversed single #
loop $-1 $-1 $123 $58 #
plane-surface $-1 87.479580462336514 6.4705693237673003 216.17846783252185 0 1 0 0.74314483375859142 0 0.66913059716165679 forward_v I I I I #
face $-1 $124 $125 $45 $-1 $126 forward single #
loop $-1 $127 $128 $59 #
cone-surface $-1 69.114732121114528 8.9366843611545264 6.3726510799301099 -0.74314483375859142 0 -0.66913059716165679 0.66913059716165679 0 -0.74314483375859142 1 I I 0 1 1 forward I I I I #
face $-1 $129 $130 $46 $-1 $131 forward single #
loop $-1 $132 $133 $60 #
cone-surface $-1 69.114732121114528 12.635856917235365 6.3726510799301099 -0.74314483375859142 0 -0.66913059716165679 0.66913059716165679 0 -0.74314483375859142 1 I I 0 1 1 forward I I I I #
face $-1 $134 $135 $47 $-1 $136 forward single #
loop $-1 $137 $138 $61 #
cone-surface $-1 69.114732121114528 16.335029473316204 6.3726510799301099 -0.74314483375859142 0 -0.66913059716165679 0.66913059716165679 0 -0.74314483375859142 1 I I 0 1 1 forward I I I I #
face $-1 $139 $140 $48 $-1 $141 reversed single #
loop $-1 $-1 $142 $62 #
plane-surface $-1 -196.29241557941594 -30.568808417599243 104.38608983248818 0 1 0 -0.78801076186113728 0 0.61566146476048833 forward_v I I I I #
face $-1 $143 $144 $49 $-1 $145 forward single #
loop $-1 $146 $147 $63 #
cone-surface $-1 -74.059422459124065 -25.811711398429203 11.646217654538589 0.78801076186113728 0 -0.61566146476048833 0.61566146476048833 0 0.78801076186113728 1 I I 0 1 1 forward I I I I #
face $-1 $148 $149 $50 $-1 $150 reversed single #
loop $-1 $-1 $151 $64 #
plane-surface $-1 -196.29241557941594 -8.6693396158599398 104.38608983248818 0 1 0 -0.78801076186113728 0 0.61566146476048833 forward_v I I I I #
face $-1 $152 $153 $51 $-1 $154 forward single #
loop $-1 $155 $156 $65 #
cone-surface $-1 -74.059422459124065 -3.9122425966899002 11.646217654538589 0.78801076186113728 0 -0.61566146476048833 0.61566146476048833 0 0.78801076186113728 1 I I 0 1 1 forward I I I I #
face $-1 $157 $158 $52 $-1 $159 reversed single #
loop $-1 $-1 $160 $66 #
plane-surface $-1 -196.29241557941594 13.230129185879363 104.38608983248818 0 1 0 -0.78801076186113728 0 0.61566146476048833 forward_v I I I I #
face $-1 $161 $162 $53 $-1 $163 forward single #
loop $-1 $164 $165 $67 #
cone-surface $-1 -74.059422459124065 17.987226205049403 11.646217654538589 0.78801076186113728 0 -0.61566146476048833 0.61566146476048833 0 0.78801076186113728 1 I I 0 1 1 forward I I I I #
face $-1 $166 $167 $54 $-1 $168 reversed single #
loop $-1 $-1 $169 $68 #
plane-surface $-1 -196.29241557941594 35.129597987618666 104.38608983248818 0 1 0 -0.78801076186113728 0 0.61566146476048833 forward_v I I I I #
face $-1 $170 $171 $55 $-1 $172 forward single #
loop $-1 $173 $174 $69 #
cone-surface $-1 -74.059422459124065 39.886695006788706 11.646217654538589 0.78801076186113728 0 -0.61566146476048833 0.61566146476048833 0 0.78801076186113728 1 I I 0 1 1 forward I I I I #
face $-1 $175 $176 $42 $-1 $177 reversed single #
loop $-1 $-1 $178 $70 #
plane-surface $-1 0 0 -13.985955300713941 0 0 1 1 0 0 forward_v I I I I #
coedge $-1 $179 $180 $181 $182 forward $71 $-1 #
face $-1 $183 $184 $43 $-1 $185 reversed single #
loop $-1 $-1 $186 $73 #
plane-surface $-1 0 -40.893499843154636 4.3588362473062414 0 0 1 1 0 0 forward_v I I I I #
coedge $-1 $187 $188 $189 $190 reversed $74 $-1 #
face $-1 $191 $192 $44 $-1 $193 reversed single #
loop $-1 $-1 $194 $76 #
plane-surface $-1 -25.775447262008171 12.635856917235373 114.20318537046484 0.74314483375859142 0 0.66913059716165679 0.66913059716165679 0 -0.74314483375859142 forward_v I I I I #
coedge $-1 $195 $196 $197 $198 reversed $77 $-1 #
face $-1 $-1 $199 $45 $-1 $200 forward single #
loop $-1 $201 $202 $79 #
cone-surface $-1 67.527699347681164 8.9366843611545264 4.9436803878623561 -0.74314483375859142 0 -0.66913059716165679 0.3345652985808284 0 -0.37157241687929571 1 I I -0.70710678118654746 0.70710678118654746 0.5 forward I I I I #
loop $-1 $-1 $203 $59 #
coedge $-1 $128 $128 $204 $205 reversed $80 $-1 #
face $-1 $-1 $206 $46 $-1 $207 forward single #
loop $-1 $208 $209 $82 #
cone-surface $-1 67.527699347681164 12.635856917235365 4.9436803878623561 -0.74314483375859142 0 -0.66913059716165679 0.3345652985808284 0 -0.37157241687929571 1 I I -0.70710678118654746 0.70710678118654746 0.5 forward I I I I #
loop $-1 $-1 $210 $60 #
coedge $-1 $133 $133 $211 $212 reversed $83 $-1 #
face $-1 $-1 $213 $47 $-1 $214 forward single #
loop $-1 $215 $216 $85 #
cone-surface $-1 67.527699347681164 16.335029473316204 4.9436803878623561 -0.74314483375859142 0 -0.66913059716165679 0.3345652985808284 0 -0.37157241687929571 1 I I -0.70710678118654746 0.70710678118654746 0.5 forward I I I I #
loop $-1 $-1 $217 $61 #
coedge $-1 $138 $138 $218 $219 reversed $86 $-1 #
face $-1 $220 $221 $48 $-1 $222 reversed single #
loop $-1 $-1 $223 $88 #
plane-surface $-1 -76.199835200048781 -25.811711398429203 10.559485524948428 -0.78801076186113728 0 0.61566146476048833 0.61566146476048833 0 0.78801076186113728 forward_v I I I I #
coedge $-1 $224 $225 $226 $227 reversed $89 $-1 #
face $-1 $-1 $228 $49 $-1 $229 forward single #
loop $-1 $230 $231 $91 #
cone-surface $-1 -72.863530093010297 -25.811711398429203 10.711884163865742 0.78801076186113728 0 -0.61566146476048833 0.30783073238024417 0 0.39400538093056864 1 I I -0.70710678118654746 0.70710678118654746 0.5 forward I I I I #
loop $-1 $-1 $232 $63 #
coedge $-1 $147 $147 $233 $234 reversed $92 $-1 #
face $-1 $235 $236 $50 $-1 $237 reversed single #
loop $-1 $-1 $238 $94 #
plane-surface $-1 -76.199835200048781 -3.9122425966899002 10.559485524948428 -0.78801076186113728 0 0.61566146476048833 0.61566146476048833 0 0.78801076186113728 forward_v I I I I #
coedge $-1 $239 $240 $241 $242 reversed $95 $-1 #
face $-1 $-1 $243 $51 $-1 $244 forward single #
loop $-1 $245 $246 $97 #
cone-surface $-1 -72.863530093010297 -3.9122425966899002 10.711884163865742 0.78801076186113728 0 -0.61566146476048833 0.30783073238024417 0 0.39400538093056864 1 I I -0.70710678118654746 0.70710678118654746 0.5 forward I I I I #
loop $-1 $-1 $247 $65 #
coedge $-1 $156 $156 $248 $249 reversed $98 $-1 #
face $-1 $250 $251 $52 $-1 $252 reversed single #
loop $-1 $-1 $253 $100 #
plane-surface $-1 -76.199835200048781 17.987226205049403 10.559485524948428 -0.78801076186113728 0 0.61566146476048833 0.61566146476048833 0 0.78801076186113728 forward_v I I I I #
coedge $-1 $254 $255 $256 $257 reversed $101 $-1 #
face $-1 $-1 $258 $53 $-1 $259 forward single #
loop $-1 $260 $261 $103 #
cone-surface $-1 -72.863530093010297 17.987226205049403 10.711884163865742 0.78801076186113728 0 -0.61566146476048833 0.30783073238024417 0 0.39400538093056864 1 I I -0.70710678118654746 0.70710678118654746 0.5 forward I I I I #
loop $-1 $-1 $262 $67 #
coedge $-1 $165 $165 $263 $264 reversed $104 $-1 #
face $-1 $265 $266 $54 $-1 $267 reversed single #
loop $-1 $-1 $268 $106 #
plane-surface $-1 -76.199835200048781 39.886695006788706 10.559485524948428 -0.78801076186113728 0 0.61566146476048833 0.61566146476048833 0 0.78801076186113728 forward_v I I I I #
coedge $-1 $269 $270 $271 $272 reversed $107 $-1 #
face $-1 $-1 $273 $55 $-1 $274 forward single #
loop $-1 $275 $276 $109 #
cone-surface $-1 -72.863530093010297 39.886695006788706 10.711884163865742 0.78801076186113728 0 -0.61566146476048833 0.30783073238024417 0 0.39400538093056864 1 I I -0.70710678118654746 0.70710678118654746 0.5 forward I I I I #
loop $-1 $-1 $277 $69 #
coedge $-1 $174 $174 $278 $279 reversed $110 $-1 #
face $-1 $280 $281 $42 $-1 $282 reversed single #
loop $-1 $-1 $283 $112 #
plane-surface $-1 0 -47.930991647334402 0 0 1 0 0 0 1 forward_v I I I I #
coedge $-1 $284 $285 $286 $287 forward $113 $-1 #
coedge $-1 $288 $115 $289 $290 forward $71 $-1 #
coedge $-1 $115 $288 $291 $292 forward $71 $-1 #
coedge $-1 $293 $294 $115 $182 reversed $295 $-1 #
edge $-1 $296 -47.930991647334402 $297 47.930991647334402 $181 $298 forward 7 unknown #
face $-1 $299 $300 $43 $-1 $301 reversed single #
loop $-1 $-1 $302 $116 #
plane-surface $-1 0 -33.856008038974871 6.2096160190102641 0 -1 0 0 0 -1 forward_v I I I I #
coedge $-1 $303 $304 $305 $306 reversed $117 $-1 #
coedge $-1 $307 $119 $308 $309 forward $74 $-1 #
coedge $-1 $119 $307 $310 $311 reversed $74 $-1 #
coedge $-1 $312 $313 $119 $190 forward $314 $-1 #
edge $-1 $315 13.409258117397552 $316 27.484241725757084 $189 $317 forward 7 unknown #
face $-1 $318 $319 $44 $-1 $320 forward single #
loop $-1 $-1 $321 $120 #
plane-surface $-1 87.479580462336514 18.801144510703445 216.17846783252185 0 -1 0 -0.74314483375859142 0 -0.66913059716165679 forward_v I I I I #
coedge $-1 $322 $323 $324 $325 reversed $121 $-1 #
coedge $-1 $196 $123 $326 $327 reversed $77 $-1 #
coedge $-1 $123 $195 $322 $328 reversed $77 $-1 #
coedge $-1 $324 $329 $123 $198 forward $330 $-1 #
edge $-1 $331 94.103278615546984 $332 107.14107627014076 $197 $333 forward 7 unknown #
loop $-1 $-1 $204 $124 #
plane-surface $-1 -25.775447262008171 12.635856917235373 114.20318537046484 0.74314483375859142 0 0.66913059716165679 0.66913059716165679 0 -0.74314483375859142 forward_v I I I I #
loop $-1 $-1 $334 $79 #
coedge $-1 $202 $202 $203 $335 reversed $125 $-1 #
coedge $-1 $203 $203 $202 $335 forward $127 $-1 #
coedge $-1 $204 $204 $128 $205 forward $199 $-1 #
edge $-1 $336 0 $336 6.2831853071796004 $204 $337 forward 7 unknown #
loop $-1 $-1 $211 $129 #
plane-surface $-1 -25.775447262008171 12.635856917235373 114.20318537046484 0.74314483375859142 0 0.66913059716165679 0.66913059716165679 0 -0.74314483375859142 forward_v I I I I #
loop $-1 $-1 $338 $82 #
coedge $-1 $209 $209 $210 $339 reversed $130 $-1 #
coedge $-1 $210 $210 $209 $339 forward $132 $-1 #
coedge $-1 $211 $211 $133 $212 forward $206 $-1 #
edge $-1 $340 0 $340 6.2831853071796004 $211 $341 forward 7 unknown #
loop $-1 $-1 $218 $134 #
plane-surface $-1 -25.775447262008171 12.635856917235373 114.20318537046484 0.74314483375859142 0 0.66913059716165679 0.66913059716165679 0 -0.74314483375859142 forward_v I I I I #
loop $-1 $-1 $342 $85 #
coedge $-1 $216 $216 $217 $343 reversed $135 $-1 #
coedge $-1 $217 $217 $216 $343 forward $137 $-1 #
coedge $-1 $218 $218 $138 $219 forward $213 $-1 #
edge $-1 $344 0 $344 6.2831853071796004 $218 $345 forward 7 unknown #
face $-1 $346 $347 $48 $-1 $348 reversed single #
loop $-1 $-1 $349 $139 #
plane-surface $-1 -196.29241557941594 -21.054614379259164 104.38608983248818 0 -1 0 0.78801076186113728 0 -0.61566146476048833 forward_v I I I I #
coedge $-1 $350 $351 $352 $353 reversed $140 $-1 #
coedge $-1 $225 $142 $354 $355 reversed $89 $-1 #
coedge $-1 $142 $224 $350 $356 reversed $89 $-1 #
coedge $-1 $352 $357 $142 $227 forward $358 $-1 #
edge $-1 $359 21.946372589659148 $360 24.623424101142334 $226 $361 forward 7 unknown #
loop $-1 $-1 $233 $143 #
plane-surface $-1 -76.199835200048781 -25.811711398429203 10.559485524948428 -0.78801076186113728 0 0.61566146476048833 0.61566146476048833 0 0.78801076186113728 forward_v I I I I #
loop $-1 $-1 $362 $91 #
coedge $-1 $231 $231 $232 $363 reversed $144 $-1 #
coedge $-1 $232 $232 $231 $363 forward $146 $-1 #
coedge $-1 $233 $233 $147 $234 forward $228 $-1 #
edge $-1 $364 0 $364 6.2831853071796004 $233 $365 forward 7 unknown #
face $-1 $366 $367 $50 $-1 $368 forward single #
loop $-1 $-1 $369 $148 #
plane-surface $-1 -196.29241557941594 0.84485442248013953 104.38608983248818 0 -1 0 0.78801076186113728 0 -0.61566146476048833 forward_v I I I I #
coedge $-1 $370 $371 $372 $373 reversed $149 $-1 #
coedge $-1 $240 $151 $374 $375 reversed $95 $-1 #
coedge $-1 $151 $239 $370 $376 reversed $95 $-1 #
coedge $-1 $372 $377 $151 $242 forward $367 $-1 #
edge $-1 $378 21.946372589659148 $379 24.623424101142334 $241 $380 forward 7 unknown #
loop $-1 $-1 $248 $152 #
plane-surface $-1 -76.199835200048781 -3.9122425966899002 10.559485524948428 -0.78801076186113728 0 0.61566146476048833 0.61566146476048833 0 0.78801076186113728 forward_v I I I I #
loop $-1 $-1 $381 $97 #
coedge $-1 $246 $246 $247 $382 reversed $153 $-1 #
coedge $-1 $247 $247 $246 $382 forward $155 $-1 #
coedge $-1 $248 $248 $156 $249 forward $243 $-1 #
edge $-1 $383 0 $383 6.2831853071796004 $248 $384 forward 7 unknown #
face $-1 $385 $386 $52 $-1 $387 forward single #
loop $-1 $-1 $388 $157 #
plane-surface $-1 -196.29241557941594 22.744323224219443 104.38608983248818 0 -1 0 0.78801076186113728 0 -0.61566146476048833 forward_v I I I I #
coedge $-1 $389 $390 $391 $392 reversed $158 $-1 #
coedge $-1 $255 $160 $393 $394 reversed $101 $-1 #
coedge $-1 $160 $254 $389 $395 reversed $101 $-1 #
coedge $-1 $391 $396 $160 $257 forward $386 $-1 #
edge $-1 $397 21.946372589659148 $398 24.623424101142334 $256 $399 forward 7 unknown #
loop $-1 $-1 $263 $161 #
plane-surface $-1 -76.199835200048781 17.987226205049403 10.559485524948428 -0.78801076186113728 0 0.61566146476048833 0.61566146476048833 0 0.78801076186113728 forward_v I I I I #
loop $-1 $-1 $400 $103 #
coedge $-1 $261 $261 $262 $401 reversed $162 $-1 #
coedge $-1 $262 $262 $261 $401 forward $164 $-1 #
coedge $-1 $263 $263 $165 $264 forward $258 $-1 #
edge $-1 $402 0 $402 6.2831853071796004 $263 $403 forward 7 unknown #
face $-1 $404 $405 $54 $-1 $406 forward single #
loop $-1 $-1 $407 $166 #
plane-surface $-1 -196.29241557941594 44.643792025958746 104.38608983248818 0 -1 0 0.78801076186113728 0 -0.61566146476048833 forward_v I I I I #
coedge $-1 $408 $409 $410 $411 reversed $167 $-1 #
coedge $-1 $270 $169 $412 $413 reversed $107 $-1 #
coedge $-1 $169 $269 $408 $414 reversed $107 $-1 #
coedge $-1 $410 $415 $169 $272 forward $405 $-1 #
edge $-1 $416 21.946372589659148 $417 24.623424101142334 $271 $418 forward 7 unknown #
loop $-1 $-1 $278 $170 #
plane-surface $-1 -76.199835200048781 39.886695006788706 10.559485524948428 -0.78801076186113728 0 0.61566146476048833 0.61566146476048833 0 0.78801076186113728 forward_v I I I I #
loop $-1 $-1 $419 $109 #
coedge $-1 $276 $276 $277 $420 reversed $171 $-1 #
coedge $-1 $277 $277 $276 $420 forward $173 $-1 #
coedge $-1 $278 $278 $174 $279 forward $273 $-1 #
edge $-1 $421 0 $421 6.2831853071796004 $278 $422 forward 7 unknown #
face $-1 $423 $424 $42 $-1 $425 reversed single #
loop $-1 $-1 $426 $175 #
plane-surface $-1 -76.199835200048824 0 0 1 0 0 0 0 -1 forward_v I I I I #
coedge $-1 $427 $291 $428 $429 forward $176 $-1 #
coedge $-1 $430 $178 $427 $431 forward $113 $-1 #
coedge $-1 $178 $430 $432 $433 forward $113 $-1 #
coedge $-1 $294 $293 $178 $287 reversed $295 $-1 #
edge $-1 $434 -47.930991647334402 $435 47.930991647334402 $286 $436 forward 7 unknown #
coedge $-1 $180 $179 $437 $438 forward $71 $-1 #
coedge $-1 $439 $440 $179 $290 reversed $424 $-1 #
edge $-1 $297 -76.199835200048824 $441 76.199835200048824 $289 $442 forward 7 unknown #
coedge $-1 $283 $443 $180 $292 reversed $176 $-1 #
edge $-1 $444 -76.199835200048824 $296 76.199835200048824 $291 $445 forward 7 unknown #
coedge $-1 $286 $181 $443 $446 forward $295 $-1 #
coedge $-1 $181 $286 $439 $447 reversed $295 $-1 #
loop $-1 $-1 $293 $423 #
vertex $-1 $182 $448 #
vertex $-1 $182 $449 #
straight-curve $-1 76.199835200048824 0 13.985955300713941 0 1 0 I I #
face $-1 $450 $451 $43 $-1 $452 reversed single #
loop $-1 $-1 $453 $183 #
plane-surface $-1 -76.199835200048824 0 0 1 0 0 0 0 -1 forward_v I I I I #
coedge $-1 $454 $308 $313 $455 reversed $184 $-1 #
coedge $-1 $456 $186 $457 $458 reversed $117 $-1 #
coedge $-1 $186 $456 $454 $459 forward $117 $-1 #
coedge $-1 $313 $312 $186 $306 forward $314 $-1 #
edge $-1 $460 -27.484241725757084 $461 -13.409258117397552 $305 $462 forward 7 unknown #
coedge $-1 $188 $187 $453 $463 reversed $74 $-1 #
coedge $-1 $302 $464 $187 $309 reversed $184 $-1 #
edge $-1 $315 -76.199835200048824 $465 76.199835200048824 $308 $466 forward 7 unknown #
coedge $-1 $467 $468 $188 $311 forward $451 $-1 #
edge $-1 $316 -76.199835200048824 $469 76.199835200048824 $310 $470 forward 7 unknown #
coedge $-1 $305 $189 $468 $471 forward $314 $-1 #
coedge $-1 $189 $305 $302 $455 forward $314 $-1 #
loop $-1 $-1 $189 $450 #
vertex $-1 $190 $472 #
vertex $-1 $471 $473 #
straight-curve $-1 76.199835200048824 -20.446749921577318 8.0603957907142867 0 -1 0 I I #
face $-1 $-1 $330 $44 $-1 $474 reversed single #
loop $-1 $-1 $475 $191 #
plane-surface $-1 0 0 13.985955300713941 0 0 1 1 0 0 forward_v I I I I #
coedge $-1 $476 $477 $478 $479 reversed $192 $-1 #
coedge $-1 $480 $194 $196 $328 forward $121 $-1 #
coedge $-1 $194 $480 $476 $481 forward $121 $-1 #
coedge $-1 $478 $197 $194 $325 forward $330 $-1 #
edge $-1 $332 0.15264086514961406 $482 12.483216052085758 $324 $483 forward 7 unknown #
coedge $-1 $484 $485 $195 $327 forward $319 $-1 #
edge $-1 $486 20.720759524120083 $331 32.460044968880567 $326 $487 forward 7 unknown #
edge $-1 $332 -152.39967040009759 $486 -134.85558334959262 $196 $488 forward 7 unknown #
coedge $-1 $197 $478 $484 $489 reversed $330 $-1 #
loop $-1 $-1 $478 $318 #
vertex $-1 $489 $490 #
vertex $-1 $198 $491 #
straight-curve $-1 76.199835200048824 6.4705693237673003 108.08923391626092 0 0 -1 I I #
coedge $-1 $334 $334 $-1 $492 reversed $201 $-1 #
edge $-1 $493 0 $493 6.2831853071796004 $202 $494 forward 7 unknown #
vertex $-1 $205 $495 #
ellipse-curve $-1 70.330192477668604 8.9366843611545264 7.467056473417033 0.74314483375859142 0 0.66913059716165679 0.66913059716165679 0 -0.74314483375859142 1 I I #
coedge $-1 $338 $338 $-1 $496 reversed $208 $-1 #
edge $-1 $497 0 $497 6.2831853071796004 $209 $498 forward 7 unknown #
vertex $-1 $212 $499 #
ellipse-curve $-1 70.330192477668604 12.635856917235365 7.467056473417033 0.74314483375859142 0 0.66913059716165679 0.66913059716165679 0 -0.74314483375859142 1 I I #
coedge $-1 $342 $342 $-1 $500 reversed $215 $-1 #
edge $-1 $501 0 $501 6.2831853071796004 $216 $502 forward 7 unknown #
vertex $-1 $219 $503 #
ellipse-curve $-1 70.330192477668604 16.335029473316204 7.467056473417033 0.74314483375859142 0 0.66913059716165679 0.66913059716165679 0 -0.74314483375859142 1 I I #
face $-1 $-1 $358 $48 $-1 $504 forward single #
loop $-1 $-1 $505 $220 #
plane-surface $-1 -76.199835200048824 0 0 1 0 0 0 0 -1 forward_v I I I I #
coedge $-1 $506 $507 $508 $509 reversed $221 $-1 #
coedge $-1 $510 $223 $225 $356 forward $140 $-1 #
coedge $-1 $223 $510 $506 $511 forward $140 $-1 #
coedge $-1 $508 $226 $223 $353 forward $358 $-1 #
edge $-1 $360 -17.662952718384641 $512 -8.1487586800445619 $352 $513 forward 7 unknown #
coedge $-1 $514 $515 $224 $355 forward $347 $-1 #
edge $-1 $516 -41.633559391295719 $359 -38.207089615530151 $354 $517 forward 7 unknown #
edge $-1 $360 -4.348252513294133 $516 6.96406643853233e-014 $225 $518 forward 7 unknown #
coedge $-1 $226 $508 $514 $519 forward $358 $-1 #
loop $-1 $-1 $508 $346 #
vertex $-1 $355 $520 #
vertex $-1 $227 $521 #
straight-curve $-1 -98.146207789707972 -30.568808417599243 13.98595530071394 1 0 0 I I #
coedge $-1 $362 $362 $-1 $522 reversed $230 $-1 #
edge $-1 $523 0 $523 6.2831853071796004 $231 $524 forward 7 unknown #
vertex $-1 $234 $525 #
ellipse-curve $-1 -74.861309444307224 -25.811711398429203 12.272720412831166 -0.78801076186113728 0 0.61566146476048833 0.61566146476048833 0 0.78801076186113728 1 I I #
face $-1 $-1 $526 $50 $-1 $527 reversed single #
loop $-1 $-1 $241 $235 #
plane-surface $-1 0 0 13.985955300713941 0 0 1 1 0 0 forward_v I I I I #
coedge $-1 $528 $529 $530 $531 reversed $236 $-1 #
coedge $-1 $532 $238 $240 $376 forward $149 $-1 #
coedge $-1 $238 $532 $528 $533 forward $149 $-1 #
coedge $-1 $530 $241 $238 $373 forward $367 $-1 #
edge $-1 $379 -6.7132183175149898 $534 2.8009757208250896 $372 $535 forward 7 unknown #
coedge $-1 $536 $537 $239 $375 forward $526 $-1 #
edge $-1 $538 -41.633559391295719 $378 -38.207089615530151 $374 $539 forward 7 unknown #
edge $-1 $379 -4.348252513294133 $538 6.96406643853233e-014 $240 $540 forward 7 unknown #
coedge $-1 $241 $530 $536 $541 forward $367 $-1 #
vertex $-1 $242 $542 #
vertex $-1 $242 $543 #
straight-curve $-1 -98.146207789707972 -8.6693396158599398 13.98595530071394 1 0 0 I I #
coedge $-1 $381 $381 $-1 $544 reversed $245 $-1 #
edge $-1 $545 0 $545 6.2831853071796004 $246 $546 forward 7 unknown #
vertex $-1 $249 $547 #
ellipse-curve $-1 -74.861309444307224 -3.9122425966899002 12.272720412831166 -0.78801076186113728 0 0.61566146476048833 0.61566146476048833 0 0.78801076186113728 1 I I #
face $-1 $-1 $548 $52 $-1 $549 reversed single #
loop $-1 $-1 $256 $250 #
plane-surface $-1 0 0 13.985955300713941 0 0 1 1 0 0 forward_v I I I I #
coedge $-1 $550 $551 $552 $553 reversed $251 $-1 #
coedge $-1 $554 $253 $255 $395 forward $158 $-1 #
coedge $-1 $253 $554 $550 $555 forward $158 $-1 #
coedge $-1 $552 $256 $253 $392 forward $386 $-1 #
edge $-1 $398 4.2365160833546618 $556 13.750710121694741 $391 $557 forward 7 unknown #
coedge $-1 $558 $559 $254 $394 forward $548 $-1 #
edge $-1 $560 -41.633559391295719 $397 -38.207089615530151 $393 $561 forward 7 unknown #
edge $-1 $398 -4.348252513294133 $560 6.96406643853233e-014 $255 $562 forward 7 unknown #
coedge $-1 $256 $552 $558 $563 forward $386 $-1 #
vertex $-1 $257 $564 #
vertex $-1 $257 $565 #
straight-curve $-1 -98.146207789707972 13.230129185879363 13.98595530071394 1 0 0 I I #
coedge $-1 $400 $400 $-1 $566 reversed $260 $-1 #
edge $-1 $567 0 $567 6.2831853071796004 $261 $568 forward 7 unknown #
vertex $-1 $264 $569 #
ellipse-curve $-1 -74.861309444307224 17.987226205049403 12.272720412831166 -0.78801076186113728 0 0.61566146476048833 0.61566146476048833 0 0.78801076186113728 1 I I #
face $-1 $-1 $570 $54 $-1 $571 reversed single #
loop $-1 $-1 $271 $265 #
plane-surface $-1 0 0 13.985955300713941 0 0 1 1 0 0 forward_v I I I I #
coedge $-1 $572 $573 $574 $575 reversed $266 $-1 #
coedge $-1 $576 $268 $270 $414 forward $167 $-1 #
coedge $-1 $268 $576 $572 $577 forward $167 $-1 #
coedge $-1 $574 $271 $268 $411 forward $405 $-1 #
edge $-1 $417 15.186250484224313 $578 24.700444522564393 $410 $579 forward 7 unknown #
coedge $-1 $580 $581 $269 $413 forward $570 $-1 #
edge $-1 $582 -41.633559391295719 $416 -38.207089615530151 $412 $583 forward 7 unknown #
edge $-1 $417 -4.348252513294133 $582 6.96406643853233e-014 $270 $584 forward 7 unknown #
coedge $-1 $271 $574 $580 $585 forward $405 $-1 #
vertex $-1 $272 $586 #
vertex $-1 $272 $587 #
straight-curve $-1 -98.146207789707972 35.129597987618666 13.98595530071394 1 0 0 I I #
coedge $-1 $419 $419 $-1 $588 reversed $275 $-1 #
edge $-1 $589 0 $589 6.2831853071796004 $276 $590 forward 7 unknown #
vertex $-1 $279 $591 #
ellipse-curve $-1 -74.861309444307224 39.886695006788706 12.272720412831166 -0.78801076186113728 0 0.61566146476048833 0.61566146476048833 0 0.78801076186113728 1 I I #
face $-1 $-1 $295 $42 $-1 $592 reversed single #
loop $-1 $-1 $439 $280 #
plane-surface $-1 0 47.930991647334402 0 0 -1 0 0 0 -1 forward_v I I I I #
coedge $-1 $593 $437 $440 $594 forward $281 $-1 #
coedge $-1 $443 $283 $284 $431 reversed $176 $-1 #
coedge $-1 $437 $593 $283 $429 reversed $281 $-1 #
edge $-1 $444 -13.985955300713941 $595 13.985955300713941 $428 $596 forward 7 unknown #
coedge $-1 $285 $284 $593 $597 forward $113 $-1 #
edge $-1 $435 -76.199835200048824 $595 76.199835200048824 $427 $598 forward 7 unknown #
coedge $-1 $440 $439 $285 $433 reversed $424 $-1 #
edge $-1 $599 -76.199835200048824 $434 76.199835200048824 $432 $600 forward 7 unknown #
vertex $-1 $287 $601 #
vertex $-1 $446 $602 #
straight-curve $-1 76.199835200048824 0 -13.985955300713941 0 -1 0 I I #
coedge $-1 $426 $428 $288 $438 reversed $281 $-1 #
edge $-1 $441 -47.930991647334402 $444 47.930991647334402 $437 $603 forward 7 unknown #
coedge $-1 $432 $289 $294 $447 forward $424 $-1 #
coedge $-1 $289 $432 $426 $594 reversed $424 $-1 #
vertex $-1 $290 $604 #
straight-curve $-1 0 47.930991647334402 13.985955300713941 -1 0 0 I I #
coedge $-1 $291 $427 $293 $446 reversed $176 $-1 #
vertex $-1 $438 $605 #
straight-curve $-1 0 -47.930991647334402 13.985955300713941 1 0 0 I I #
edge $-1 $296 -13.985955300713941 $435 13.985955300713941 $293 $606 forward 7 unknown #
edge $-1 $297 -13.985955300713941 $434 13.985955300713941 $294 $607 forward 7 unknown #
point $-1 76.199835200048824 -47.930991647334402 13.985955300713941 #
point $-1 76.199835200048824 47.930991647334402 13.985955300713941 #
face $-1 $-1 $314 $43 $-1 $608 reversed single #
loop $-1 $-1 $310 $299 #
plane-surface $-1 0 -47.930991647334402 0 0 1 0 0 0 1 forward_v I I I I #
coedge $-1 $609 $610 $307 $463 forward $300 $-1 #
coedge $-1 $464 $302 $304 $459 reversed $184 $-1 #
edge $-1 $461 1.2540282378011094 $315 4.9555877812091547 $313 $611 forward 7 unknown #
coedge $-1 $304 $303 $612 $613 reversed $117 $-1 #
coedge $-1 $468 $467 $303 $458 forward $451 $-1 #
edge $-1 $614 -76.199835200048824 $460 76.199835200048824 $457 $615 forward 7 unknown #
edge $-1 $616 -76.199835200048824 $461 76.199835200048824 $454 $617 forward 7 unknown #
vertex $-1 $458 $618 #
vertex $-1 $306 $619 #
straight-curve $-1 76.199835200048824 -20.446749921577318 4.3588362473062414 0 1 0 I I #
edge $-1 $469 -27.484241725757084 $465 -13.409258117397552 $453 $620 forward 7 unknown #
coedge $-1 $308 $454 $609 $621 reversed $184 $-1 #
vertex $-1 $463 $622 #
straight-curve $-1 0 -33.856008038974871 8.0603957907142867 -1 0 0 I I #
coedge $-1 $457 $310 $610 $623 forward $451 $-1 #
coedge $-1 $310 $457 $312 $471 reversed $451 $-1 #
vertex $-1 $623 $624 #
straight-curve $-1 0 -47.930991647334402 8.0603957907142867 -1 0 0 I I #
edge $-1 $316 -8.0603957907142867 $460 -4.3588362473062414 $312 $625 forward 7 unknown #
point $-1 76.199835200048824 -33.856008038974871 8.0603957907142867 #
point $-1 76.199835200048824 -47.930991647334402 8.0603957907142867 #
plane-surface $-1 76.199835200048824 0 0 -1 0 0 0 0 1 forward_v I I I I #
coedge $-1 $485 $484 $477 $626 forward $319 $-1 #
coedge $-1 $477 $321 $323 $481 reversed $192 $-1 #
coedge $-1 $321 $476 $475 $626 reversed $192 $-1 #
coedge $-1 $329 $324 $321 $479 forward $330 $-1 #
edge $-1 $482 -107.14107627014076 $627 -94.103278615546984 $478 $628 forward 7 unknown #
coedge $-1 $323 $322 $485 $629 reversed $121 $-1 #
edge $-1 $630 134.85558334959262 $482 152.39967040009759 $476 $631 forward 7 unknown #
vertex $-1 $325 $632 #
straight-curve $-1 76.199835200048824 6.3179284586176863 0.9481576461201513 0 1 0 I I #
coedge $-1 $475 $326 $329 $489 forward $319 $-1 #
coedge $-1 $326 $475 $480 $629 forward $319 $-1 #
vertex $-1 $327 $633 #
straight-curve $-1 43.739790231168257 6.4705693237673003 13.98595530071394 1 0 0 I I #
straight-curve $-1 -25.775447262008171 6.4705693237673003 114.20318537046484 -0.66913059716165679 0 0.74314483375859142 I I #
edge $-1 $331 6.4705693237673003 $627 18.801144510703445 $329 $634 forward 7 unknown #
point $-1 76.199835200048824 6.4705693237673003 13.985955300713941 #
point $-1 76.199835200048824 6.4705693237673003 0.94815764612016551 #
edge $-1 $635 1 $635 0 $334 $-1 forward 7 unknown #
vertex $-1 $335 $636 #
ellipse-curve $-1 67.899271764560453 8.9366843611545264 5.2782456864431841 0.74314483375859142 0 0.66913059716165679 0.66913059716165679 0 -0.74314483375859142 1 I I #
point $-1 70.999323074830258 8.9366843611545264 6.7239116396584446 #
edge $-1 $637 1 $637 0 $338 $-1 forward 7 unknown #
vertex $-1 $339 $638 #
ellipse-curve $-1 67.899271764560453 12.635856917235365 5.2782456864431841 0.74314483375859142 0 0.66913059716165679 0.66913059716165679 0 -0.74314483375859142 1 I I #
point $-1 70.999323074830258 12.635856917235365 6.7239116396584446 #
edge $-1 $639 1 $639 0 $342 $-1 forward 7 unknown #
vertex $-1 $343 $640 #
ellipse-curve $-1 67.899271764560453 16.335029473316204 5.2782456864431841 0.74314483375859142 0 0.66913059716165679 0.66913059716165679 0 -0.74314483375859142 1 I I #
point $-1 70.999323074830258 16.335029473316204 6.7239116396584446 #
plane-surface $-1 0 0 13.985955300713941 0 0 1 1 0 0 forward_v I I I I #
coedge $-1 $515 $514 $507 $641 forward $347 $-1 #
coedge $-1 $507 $349 $351 $511 reversed $221 $-1 #
coedge $-1 $349 $506 $505 $641 reversed $221 $-1 #
coedge $-1 $357 $352 $349 $509 forward $358 $-1 #
edge $-1 $512 -24.623424101142334 $642 -21.946372589659148 $508 $643 forward 7 unknown #
coedge $-1 $351 $350 $515 $644 reversed $140 $-1 #
edge $-1 $645 -6.96406643853233e-014 $512 4.348252513294133 $506 $646 forward 7 unknown #
vertex $-1 $353 $647 #
straight-curve $-1 -73.522783688565639 -12.905855699214602 13.98595530071394 0 1 0 I I #
coedge $-1 $505 $354 $357 $519 reversed $347 $-1 #
coedge $-1 $354 $505 $510 $644 forward $347 $-1 #
vertex $-1 $355 $648 #
straight-curve $-1 -76.199835200048824 -30.568808417599243 52.193044916244091 0 0 1 I I #
straight-curve $-1 -76.199835200048781 -30.568808417599243 10.559485524948428 -0.61566146476048833 0 -0.78801076186113728 I I #
edge $-1 $642 21.054614379259164 $359 30.568808417599243 $514 $649 forward 7 unknown #
point $-1 -76.199835200048824 -30.568808417599243 13.985955300713941 #
point $-1 -73.522783688565639 -30.568808417599243 13.985955300713941 #
edge $-1 $650 1 $650 0 $362 $-1 forward 7 unknown #
vertex $-1 $363 $651 #
ellipse-curve $-1 -73.257535473940862 -25.811711398429203 11.019714896245986 -0.78801076186113728 0 0.61566146476048833 0.61566146476048833 0 0.78801076186113728 1 I I #
point $-1 -74.245647979546774 -25.811711398429203 13.060731174692329 #
loop $-1 $-1 $374 $366 #
plane-surface $-1 -76.199835200048824 0 0 1 0 0 0 0 -1 forward_v I I I I #
coedge $-1 $529 $369 $371 $533 reversed $236 $-1 #
coedge $-1 $369 $528 $652 $653 reversed $236 $-1 #
coedge $-1 $377 $372 $369 $531 forward $367 $-1 #
edge $-1 $534 -24.623424101142334 $654 -21.946372589659148 $530 $655 forward 7 unknown #
coedge $-1 $371 $370 $537 $656 reversed $149 $-1 #
edge $-1 $657 -6.96406643853233e-014 $534 4.348252513294133 $528 $658 forward 7 unknown #
vertex $-1 $373 $659 #
straight-curve $-1 -73.522783688565639 -1.9561212983449501 13.98595530071394 0 1 0 I I #
coedge $-1 $652 $374 $377 $541 reversed $526 $-1 #
coedge $-1 $374 $652 $532 $656 forward $526 $-1 #
vertex $-1 $375 $660 #
straight-curve $-1 -76.199835200048824 -8.6693396158599398 52.193044916244091 0 0 1 I I #
straight-curve $-1 -76.199835200048781 -8.6693396158599398 10.559485524948428 -0.61566146476048833 0 -0.78801076186113728 I I #
edge $-1 $654 -0.84485442248013953 $378 8.6693396158599398 $536 $661 forward 7 unknown #
point $-1 -76.199835200048824 -8.6693396158599398 13.985955300713941 #
point $-1 -73.522783688565639 -8.6693396158599398 13.985955300713941 #
edge $-1 $662 1 $662 0 $381 $-1 forward 7 unknown #
vertex $-1 $382 $663 #
ellipse-curve $-1 -73.257535473940862 -3.9122425966899002 11.019714896245986 -0.78801076186113728 0 0.61566146476048833 0.61566146476048833 0 0.78801076186113728 1 I I #
point $-1 -74.245647979546774 -3.9122425966899002 13.060731174692329 #
loop $-1 $-1 $393 $385 #
plane-surface $-1 -76.199835200048824 0 0 1 0 0 0 0 -1 forward_v I I I I #
coedge $-1 $551 $388 $390 $555 reversed $251 $-1 #
coedge $-1 $388 $550 $664 $665 reversed $251 $-1 #
coedge $-1 $396 $391 $388 $553 forward $386 $-1 #
edge $-1 $556 -24.623424101142334 $666 -21.946372589659148 $552 $667 forward 7 unknown #
coedge $-1 $390 $389 $559 $668 reversed $158 $-1 #
edge $-1 $669 -6.96406643853233e-014 $556 4.348252513294133 $550 $670 forward 7 unknown #
vertex $-1 $392 $671 #
straight-curve $-1 -73.522783688565639 8.9936131025247015 13.98595530071394 0 1 0 I I #
coedge $-1 $664 $393 $396 $563 reversed $548 $-1 #
coedge $-1 $393 $664 $554 $668 forward $548 $-1 #
vertex $-1 $394 $672 #
straight-curve $-1 -76.199835200048824 13.230129185879363 52.193044916244091 0 0 1 I I #
straight-curve $-1 -76.199835200048781 13.230129185879363 10.559485524948428 -0.61566146476048833 0 -0.78801076186113728 I I #
edge $-1 $666 -22.744323224219443 $397 -13.230129185879363 $558 $673 forward 7 unknown #
point $-1 -76.199835200048824 13.230129185879363 13.985955300713941 #
point $-1 -73.522783688565639 13.230129185879363 13.985955300713941 #
edge $-1 $674 1 $674 0 $400 $-1 forward 7 unknown #
vertex $-1 $401 $675 #
ellipse-curve $-1 -73.257535473940862 17.987226205049403 11.019714896245986 -0.78801076186113728 0 0.61566146476048833 0.61566146476048833 0 0.78801076186113728 1 I I #
point $-1 -74.245647979546774 17.987226205049403 13.060731174692329 #
loop $-1 $-1 $412 $404 #
plane-surface $-1 -76.199835200048824 0 0 1 0 0 0 0 -1 forward_v I I I I #
coedge $-1 $573 $407 $409 $577 reversed $266 $-1 #
coedge $-1 $407 $572 $676 $677 reversed $266 $-1 #
coedge $-1 $415 $410 $407 $575 forward $405 $-1 #
edge $-1 $578 -24.623424101142334 $678 -21.946372589659148 $574 $679 forward 7 unknown #
coedge $-1 $409 $408 $581 $680 reversed $167 $-1 #
edge $-1 $681 -6.96406643853233e-014 $578 4.348252513294133 $572 $682 forward 7 unknown #
vertex $-1 $411 $683 #
straight-curve $-1 -73.522783688565639 19.943347503394353 13.98595530071394 0 1 0 I I #
coedge $-1 $676 $412 $415 $585 reversed $570 $-1 #
coedge $-1 $412 $676 $576 $680 forward $570 $-1 #
vertex $-1 $413 $684 #
straight-curve $-1 -76.199835200048824 35.129597987618666 52.193044916244091 0 0 1 I I #
straight-curve $-1 -76.199835200048781 35.129597987618666 10.559485524948428 -0.61566146476048833 0 -0.78801076186113728 I I #
edge $-1 $678 -44.643792025958746 $416 -35.129597987618666 $580 $685 forward 7 unknown #
point $-1 -76.199835200048824 35.129597987618666 13.985955300713941 #
point $-1 -73.522783688565639 35.129597987618666 13.985955300713941 #
edge $-1 $686 1 $686 0 $419 $-1 forward 7 unknown #
vertex $-1 $420 $687 #
ellipse-curve $-1 -73.257535473940862 39.886695006788706 11.019714896245986 -0.78801076186113728 0 0.61566146476048833 0.61566146476048833 0 0.78801076186113728 1 I I #
point $-1 -74.245647979546774 39.886695006788706 13.060731174692329 #
plane-surface $-1 76.199835200048824 0 0 -1 0 0 0 0 1 forward_v I I I I #
coedge $-1 $428 $426 $430 $597 reversed $281 $-1 #
edge $-1 $441 -13.985955300713941 $599 13.985955300713941 $440 $688 forward 7 unknown #
vertex $-1 $597 $689 #
straight-curve $-1 -76.199835200048824 -47.930991647334402 0 0 0 -1 I I #
edge $-1 $595 -47.930991647334402 $599 47.930991647334402 $593 $690 forward 7 unknown #
straight-curve $-1 0 -47.930991647334402 -13.985955300713941 -1 0 0 I I #
vertex $-1 $433 $691 #
straight-curve $-1 0 47.930991647334402 -13.985955300713941 1 0 0 I I #
point $-1 76.199835200048824 47.930991647334402 -13.985955300713941 #
point $-1 76.199835200048824 -47.930991647334402 -13.985955300713941 #
straight-curve $-1 -76.199835200048824 0 13.985955300713941 0 -1 0 I I #
point $-1 -76.199835200048824 47.930991647334402 13.985955300713941 #
point $-1 -76.199835200048824 -47.930991647334402 13.985955300713941 #
straight-curve $-1 76.199835200048824 -47.930991647334402 0 0 0 -1 I I #
straight-curve $-1 76.199835200048824 47.930991647334402 0 0 0 -1 I I #
plane-surface $-1 76.199835200048824 0 0 -1 0 0 0 0 1 forward_v I I I I #
coedge $-1 $612 $453 $464 $621 forward $300 $-1 #
coedge $-1 $453 $612 $467 $623 reversed $300 $-1 #
straight-curve $-1 76.199835200048824 -33.856008038974871 3.104808009505132 0 0 1 I I #
coedge $-1 $610 $609 $456 $613 forward $300 $-1 #
edge $-1 $616 13.409258117397552 $614 27.484241725757084 $612 $692 forward 7 unknown #
vertex $-1 $458 $693 #
straight-curve $-1 0 -47.930991647334402 4.3588362473062414 1 0 0 I I #
vertex $-1 $613 $694 #
straight-curve $-1 0 -33.856008038974871 4.3588362473062414 1 0 0 I I #
point $-1 76.199835200048824 -47.930991647334402 4.3588362473062414 #
point $-1 76.199835200048824 -33.856008038974871 4.3588362473062414 #
straight-curve $-1 -76.199835200048824 -20.446749921577318 8.0603957907142867 0 1 0 I I #
edge $-1 $465 -4.9555877812091547 $616 -1.2540282378011094 $609 $695 forward 7 unknown #
point $-1 -76.199835200048824 -33.856008038974871 8.0603957907142867 #
edge $-1 $469 -8.0603957907142867 $614 -4.3588362473062414 $610 $696 forward 7 unknown #
point $-1 -76.199835200048824 -47.930991647334402 8.0603957907142867 #
straight-curve $-1 76.199835200048824 -47.930991647334402 0 0 0 -1 I I #
edge $-1 $627 -32.460044968880567 $630 -20.720759524120083 $475 $697 forward 7 unknown #
vertex $-1 $626 $698 #
straight-curve $-1 76.199835200048824 18.801144510703445 108.08923391626092 0 0 1 I I #
edge $-1 $630 -12.483216052085758 $486 -0.15264086514961406 $485 $699 forward 7 unknown #
vertex $-1 $629 $700 #
straight-curve $-1 -25.775447262008171 18.801144510703445 114.20318537046484 0.66913059716165679 0 -0.74314483375859142 I I #
point $-1 76.199835200048824 18.801144510703445 0.94815764612016551 #
point $-1 64.460549755288341 6.4705693237673003 13.98595530071394 #
straight-curve $-1 76.199835200048824 0 13.985955300713941 0 1 0 I I #
vertex $-1 $492 $701 #
point $-1 68.568402361722121 8.9366843611545264 4.5351008526845931 #
vertex $-1 $496 $702 #
point $-1 68.568402361722121 12.635856917235365 4.5351008526845931 #
vertex $-1 $500 $703 #
point $-1 68.568402361722121 16.335029473316204 4.5351008526845931 #
edge $-1 $642 38.207089615530151 $645 41.633559391295719 $505 $704 forward 7 unknown #
vertex $-1 $519 $705 #
straight-curve $-1 -98.146207789707972 -21.054614379259164 13.98595530071394 -1 0 0 I I #
edge $-1 $645 8.1487586800445619 $516 17.662952718384641 $515 $706 forward 7 unknown #
vertex $-1 $644 $707 #
straight-curve $-1 -76.199835200048781 -21.054614379259164 10.559485524948428 0.61566146476048833 0 0.78801076186113728 I I #
point $-1 -73.522783688565639 -21.054614379259164 13.985955300713941 #
point $-1 -76.199835200048824 -30.568808417599243 10.559485524948373 #
straight-curve $-1 -76.199835200048824 0 13.985955300713941 0 -1 0 I I #
vertex $-1 $522 $708 #
point $-1 -72.641874009180384 -25.811711398429203 11.807725658107124 #
coedge $-1 $537 $536 $529 $653 forward $526 $-1 #
edge $-1 $654 38.207089615530151 $657 41.633559391295719 $652 $709 forward 7 unknown #
vertex $-1 $541 $710 #
straight-curve $-1 -98.146207789707972 0.84485442248013953 13.98595530071394 -1 0 0 I I #
edge $-1 $657 -2.8009757208250896 $538 6.7132183175149898 $537 $711 forward 7 unknown #
vertex $-1 $656 $712 #
straight-curve $-1 -76.199835200048781 0.84485442248013953 10.559485524948428 0.61566146476048833 0 0.78801076186113728 I I #
point $-1 -73.522783688565639 0.84485442248013953 13.985955300713941 #
point $-1 -76.199835200048824 -8.6693396158599398 10.559485524948373 #
straight-curve $-1 -76.199835200048824 0 13.985955300713941 0 -1 0 I I #
vertex $-1 $544 $713 #
point $-1 -72.641874009180384 -3.9122425966899002 11.807725658107124 #
coedge $-1 $559 $558 $551 $665 forward $548 $-1 #
edge $-1 $666 38.207089615530151 $669 41.633559391295719 $664 $714 forward 7 unknown #
vertex $-1 $563 $715 #
straight-curve $-1 -98.146207789707972 22.744323224219443 13.98595530071394 -1 0 0 I I #
edge $-1 $669 -13.750710121694741 $560 -4.2365160833546618 $559 $716 forward 7 unknown #
vertex $-1 $668 $717 #
straight-curve $-1 -76.199835200048781 22.744323224219443 10.559485524948428 0.61566146476048833 0 0.78801076186113728 I I #
point $-1 -73.522783688565639 22.744323224219443 13.985955300713941 #
point $-1 -76.199835200048824 13.230129185879363 10.559485524948373 #
straight-curve $-1 -76.199835200048824 0 13.985955300713941 0 -1 0 I I #
vertex $-1 $566 $718 #
point $-1 -72.641874009180384 17.987226205049403 11.807725658107124 #
coedge $-1 $581 $580 $573 $677 forward $570 $-1 #
edge $-1 $678 38.207089615530151 $681 41.633559391295719 $676 $719 forward 7 unknown #
vertex $-1 $585 $720 #
straight-curve $-1 -98.146207789707972 44.643792025958746 13.98595530071394 -1 0 0 I I #
edge $-1 $681 -24.700444522564393 $582 -15.186250484224313 $581 $721 forward 7 unknown #
vertex $-1 $680 $722 #
straight-curve $-1 -76.199835200048781 44.643792025958746 10.559485524948428 0.61566146476048833 0 0.78801076186113728 I I #
point $-1 -73.522783688565639 44.643792025958746 13.985955300713941 #
point $-1 -76.199835200048824 35.129597987618666 10.559485524948373 #
straight-curve $-1 -76.199835200048824 0 13.985955300713941 0 -1 0 I I #
vertex $-1 $588 $723 #
point $-1 -72.641874009180384 39.886695006788706 11.807725658107124 #
straight-curve $-1 -76.199835200048824 47.930991647334402 0 0 0 -1 I I #
point $-1 -76.199835200048824 -47.930991647334402 -13.985955300713941 #
straight-curve $-1 -76.199835200048824 0 -13.985955300713941 0 1 0 I I #
point $-1 -76.199835200048824 47.930991647334402 -13.985955300713941 #
straight-curve $-1 -76.199835200048824 -20.446749921577318 4.3588362473062414 0 -1 0 I I #
point $-1 -76.199835200048824 -47.930991647334402 4.3588362473062414 #
point $-1 -76.199835200048824 -33.856008038974871 4.3588362473062414 #
straight-curve $-1 -76.199835200048824 -33.856008038974871 3.104808009505132 0 0 -1 I I #
straight-curve $-1 -76.199835200048824 -47.930991647334402 0 0 0 -1 I I #
straight-curve $-1 43.739790231168257 18.801144510703445 13.98595530071394 -1 0 0 I I #
point $-1 76.199835200048824 18.801144510703445 13.985955300713941 #
straight-curve $-1 64.460549755288355 6.3179284586176863 13.98595530071394 0 -1 0 I I #
point $-1 64.460549755288341 18.801144510703445 13.98595530071394 #
point $-1 67.156126930801875 8.9366843611545264 4.609115089281528 #
point $-1 67.156126930801875 12.635856917235365 4.609115089281528 #
point $-1 67.156126930801875 16.335029473316204 4.609115089281528 #
straight-curve $-1 -76.199835200048824 -21.054614379259164 52.193044916244091 0 0 -1 I I #
point $-1 -76.199835200048824 -21.054614379259164 13.985955300713941 #
straight-curve $-1 -76.199835200048824 -12.905855699214602 10.559485524948364 0 -1 0 I I #
point $-1 -76.199835200048824 -21.054614379259164 10.559485524948373 #
point $-1 -72.469524712079732 -25.811711398429203 10.404053431485497 #
straight-curve $-1 -76.199835200048824 0.84485442248013953 52.193044916244091 0 0 -1 I I #
point $-1 -76.199835200048824 0.84485442248013953 13.985955300713941 #
straight-curve $-1 -76.199835200048824 -1.9561212983449501 10.559485524948364 0 -1 0 I I #
point $-1 -76.199835200048824 0.84485442248013953 10.559485524948373 #
point $-1 -72.469524712079732 -3.9122425966899002 10.404053431485497 #
straight-curve $-1 -76.199835200048824 22.744323224219443 52.193044916244091 0 0 -1 I I #
point $-1 -76.199835200048824 22.744323224219443 13.985955300713941 #
straight-curve $-1 -76.199835200048824 8.9936131025247015 10.559485524948364 0 -1 0 I I #
point $-1 -76.199835200048824 22.744323224219443 10.559485524948373 #
point $-1 -72.469524712079732 17.987226205049403 10.404053431485497 #
straight-curve $-1 -76.199835200048824 44.643792025958746 52.193044916244091 0 0 -1 I I #
point $-1 -76.199835200048824 44.643792025958746 13.985955300713941 #
straight-curve $-1 -76.199835200048824 19.943347503394353 10.559485524948364 0 -1 0 I I #
point $-1 -76.199835200048824 44.643792025958746 10.559485524948373 #
point $-1 -72.469524712079732 39.886695006788706 10.404053431485497 #
End-of-ACIS-data 