500 0 17 0           
7 Unknown 11 ACIS 5.0 NT 24 Fri Mar 26 15:49:13 1999 
-1 9.9999999999999995e-007 1e-010 
body $-1 $17 $-1 $18 #
body $-1 $19 $-1 $20 #
body $-1 $21 $-1 $22 #
body $-1 $23 $-1 $24 #
body $-1 $25 $-1 $26 #
body $-1 $27 $-1 $28 #
body $-1 $29 $-1 $30 #
body $-1 $31 $-1 $32 #
body $-1 $33 $-1 $34 #
body $-1 $35 $-1 $36 #
body $-1 $37 $-1 $38 #
body $-1 $39 $-1 $40 #
body $-1 $41 $-1 $42 #
body $-1 $43 $-1 $44 #
body $-1 $45 $-1 $46 #
body $-1 $47 $-1 $48 #
body $-1 $49 $-1 $50 #
lump $-1 $-1 $51 $0 #
transform $-1 1 0 0 0 1 0 0 0 1 66.386303292947176 30.685760400544712 9.4556756115695659 1 rotate no_reflect no_shear #
lump $-1 $-1 $52 $1 #
transform $-1 1 0 0 0 1 0 0 0 1 66.386303292947176 30.685760400544712 9.4556756115695659 1 rotate no_reflect no_shear #
lump $-1 $-1 $53 $2 #
transform $-1 1 0 0 0 1 0 0 0 1 66.386303292947176 30.685760400544712 9.4556756115695659 1 rotate no_reflect no_shear #
lump $-1 $-1 $54 $3 #
transform $-1 1 0 0 0 1 0 0 0 1 66.386303292947176 30.685760400544712 9.4556756115695659 1 rotate no_reflect no_shear #
lump $-1 $-1 $55 $4 #
transform $-1 1 0 0 0 1 0 0 0 1 66.386303292947176 30.685760400544712 9.4556756115695659 1 rotate no_reflect no_shear #
lump $-1 $-1 $56 $5 #
transform $-1 1 0 0 0 1 0 0 0 1 66.386303292947176 30.685760400544712 9.4556756115695659 1 rotate no_reflect no_shear #
lump $-1 $-1 $57 $6 #
transform $-1 1 0 0 0 1 0 0 0 1 66.386303292947176 30.685760400544712 9.4556756115695659 1 rotate no_reflect no_shear #
lump $-1 $-1 $58 $7 #
transform $-1 1 0 0 0 1 0 0 0 1 66.386303292947176 30.685760400544712 9.4556756115695659 1 rotate no_reflect no_shear #
lump $-1 $-1 $59 $8 #
transform $-1 1 0 0 0 1 0 0 0 1 66.386303292947176 30.685760400544712 9.4556756115695659 1 rotate no_reflect no_shear #
lump $-1 $-1 $60 $9 #
transform $-1 1 0 0 0 1 0 0 0 1 66.386303292947176 30.685760400544712 9.4556756115695659 1 rotate no_reflect no_shear #
lump $-1 $-1 $61 $10 #
transform $-1 1 0 0 0 1 0 0 0 1 66.386303292947176 30.685760400544712 9.4556756115695659 1 rotate no_reflect no_shear #
lump $-1 $-1 $62 $11 #
transform $-1 1 0 0 0 1 0 0 0 1 66.386303292947176 30.685760400544712 9.4556756115695659 1 rotate no_reflect no_shear #
lump $-1 $-1 $63 $12 #
transform $-1 1 0 0 0 1 0 0 0 1 66.386303292947176 30.685760400544712 9.4556756115695659 1 rotate no_reflect no_shear #
lump $-1 $-1 $64 $13 #
transform $-1 1 0 0 0 1 0 0 0 1 66.386303292947176 30.685760400544712 9.4556756115695659 1 rotate no_reflect no_shear #
lump $-1 $-1 $65 $14 #
transform $-1 1 0 0 0 1 0 0 0 1 66.386303292947176 30.685760400544712 9.4556756115695659 1 rotate no_reflect no_shear #
lump $-1 $-1 $66 $15 #
transform $-1 1 0 0 0 1 0 0 0 1 66.386303292947176 30.685760400544712 9.4556756115695659 1 rotate no_reflect no_shear #
lump $-1 $-1 $67 $16 #
transform $-1 1 0 0 0 1 0 0 0 1 66.386303292947176 30.685760400544712 9.4556756115695659 1 rotate no_reflect no_shear #
shell $-1 $-1 $-1 $68 $-1 $17 #
shell $-1 $-1 $-1 $69 $-1 $19 #
shell $-1 $-1 $-1 $70 $-1 $21 #
shell $-1 $-1 $-1 $71 $-1 $23 #
shell $-1 $-1 $-1 $72 $-1 $25 #
shell $-1 $-1 $-1 $73 $-1 $27 #
shell $-1 $-1 $-1 $74 $-1 $29 #
shell $-1 $-1 $-1 $75 $-1 $31 #
shell $-1 $-1 $-1 $76 $-1 $33 #
shell $-1 $-1 $-1 $77 $-1 $35 #
shell $-1 $-1 $-1 $78 $-1 $37 #
shell $-1 $-1 $-1 $79 $-1 $39 #
shell $-1 $-1 $-1 $80 $-1 $41 #
shell $-1 $-1 $-1 $81 $-1 $43 #
shell $-1 $-1 $-1 $82 $-1 $45 #
shell $-1 $-1 $-1 $83 $-1 $47 #
shell $-1 $-1 $-1 $84 $-1 $49 #
face $-1 $85 $86 $51 $-1 $87 reversed single #
face $-1 $88 $89 $52 $-1 $90 forward single #
face $-1 $91 $92 $53 $-1 $93 reversed single #
face $-1 $94 $95 $54 $-1 $96 forward single #
face $-1 $97 $98 $55 $-1 $99 forward single #
face $-1 $100 $101 $56 $-1 $102 reversed single #
face $-1 $103 $104 $57 $-1 $105 forward single #
face $-1 $106 $107 $58 $-1 $108 forward single #
face $-1 $109 $110 $59 $-1 $111 reversed single #
face $-1 $112 $113 $60 $-1 $114 forward single #
face $-1 $115 $116 $61 $-1 $117 forward single #
face $-1 $118 $119 $62 $-1 $120 reversed single #
face $-1 $121 $122 $63 $-1 $123 forward single #
face $-1 $124 $125 $64 $-1 $126 forward single #
face $-1 $127 $128 $65 $-1 $129 reversed single #
face $-1 $130 $131 $66 $-1 $132 forward single #
face $-1 $133 $134 $67 $-1 $135 forward single #
face $-1 $136 $137 $51 $-1 $138 forward single #
loop $-1 $-1 $139 $68 #
plane-surface $-1 -66.386303292947176 0 0 1 0 0 0 0 -1 forward_v I I I I #
face $-1 $140 $141 $52 $-1 $142 reversed single #
loop $-1 $-1 $143 $69 #
plane-surface $-1 -66.386303292947176 0 0 1 0 0 0 0 -1 forward_v I I I I #
face $-1 $144 $145 $53 $-1 $146 reversed single #
loop $-1 $-1 $147 $70 #
plane-surface $-1 -54.795584781714204 66.547640984783868 143.74666744325475 1 0 0 0 -0.62932039886446345 -0.77714595512881146 forward_v I I I I #
face $-1 $148 $149 $54 $-1 $150 forward single #
loop $-1 $151 $152 $71 #
cone-surface $-1 -50.168283583587538 25.454559152149312 4.9682721685230922 0 -0.62932039886446345 -0.77714595512881146 1.5 0 0 1 I I 0 1 1.5 forward I I I I #
face $-1 $153 $154 $55 $-1 $155 forward single #
loop $-1 $156 $157 $72 #
cone-surface $-1 -43.227331786397549 25.454559152149312 4.9682721685230922 0 -0.62932039886446345 -0.77714595512881146 1.5 0 0 1 I I 0 1 1.5 forward I I I I #
face $-1 $158 $159 $56 $-1 $160 reversed single #
loop $-1 $-1 $161 $73 #
plane-surface $-1 -24.500112763048861 66.547640984783868 143.74666744325475 1 0 0 0 -0.62932039886446345 -0.77714595512881146 forward_v I I I I #
face $-1 $162 $163 $57 $-1 $164 forward single #
loop $-1 $165 $166 $74 #
cone-surface $-1 -19.872811564922202 25.454559152149312 4.9682721685230922 0 -0.62932039886446345 -0.77714595512881146 1.5 0 0 1 I I 0 1 1.5 forward I I I I #
face $-1 $167 $168 $58 $-1 $169 forward single #
loop $-1 $170 $171 $75 #
cone-surface $-1 -12.931859767732206 25.454559152149312 4.9682721685230922 0 -0.62932039886446345 -0.77714595512881146 1.5 0 0 1 I I 0 1 1.5 forward I I I I #
face $-1 $172 $173 $59 $-1 $174 reversed single #
loop $-1 $-1 $175 $76 #
plane-surface $-1 5.7953592556164892 66.547640984783868 143.74666744325475 1 0 0 0 -0.62932039886446345 -0.77714595512881146 forward_v I I I I #
face $-1 $176 $177 $60 $-1 $178 forward single #
loop $-1 $179 $180 $77 #
cone-surface $-1 10.422660453743148 25.454559152149312 4.9682721685230922 0 -0.62932039886446345 -0.77714595512881146 1.5 0 0 1 I I 0 1 1.5 forward I I I I #
face $-1 $181 $182 $61 $-1 $183 forward single #
loop $-1 $184 $185 $78 #
cone-surface $-1 17.363612250933144 25.454559152149312 4.9682721685230922 0 -0.62932039886446345 -0.77714595512881146 1.5 0 0 1 I I 0 1 1.5 forward I I I I #
face $-1 $186 $187 $62 $-1 $188 reversed single #
loop $-1 $-1 $189 $79 #
plane-surface $-1 36.09083127428184 66.547640984783868 143.74666744325475 1 0 0 0 -0.62932039886446345 -0.77714595512881146 forward_v I I I I #
face $-1 $190 $191 $63 $-1 $192 forward single #
loop $-1 $193 $194 $80 #
cone-surface $-1 40.718132472408499 25.454559152149312 4.9682721685230922 0 -0.62932039886446345 -0.77714595512881146 1.5 0 0 1 I I 0 1 1.5 forward I I I I #
face $-1 $195 $196 $64 $-1 $197 forward single #
loop $-1 $198 $199 $81 #
cone-surface $-1 47.659084269598495 25.454559152149312 4.9682721685230922 0 -0.62932039886446345 -0.77714595512881146 1.5 0 0 1 I I 0 1 1.5 forward I I I I #
face $-1 $200 $201 $65 $-1 $202 reversed single #
loop $-1 $-1 $203 $82 #
plane-surface $-1 54.978741024179911 -30.685760400544737 6.272843281251383 0 -0.78801076186113728 0.61566146476048833 1 0 0 forward_v I I I I #
face $-1 $204 $205 $66 $-1 $206 forward single #
loop $-1 $207 $208 $83 #
cone-surface $-1 50.089785766136814 -28.191409406953714 6.8868708012682216 0 0.78801076186113728 -0.61566146476048833 1 0 0 1 I I 0 1 1 forward I I I I #
face $-1 $209 $210 $67 $-1 $211 forward single #
loop $-1 $212 $213 $84 #
cone-surface $-1 59.867696282223037 -28.191409406953714 6.8868708012682216 0 0.78801076186113728 -0.61566146476048833 1 0 0 1 I I 0 1 1 forward I I I I #
face $-1 $214 $215 $51 $-1 $216 reversed single #
loop $-1 $-1 $217 $85 #
plane-surface $-1 0 0 9.4556756115695659 0 0 1 1 0 0 forward_v I I I I #
coedge $-1 $218 $219 $220 $221 reversed $86 $-1 #
face $-1 $222 $223 $52 $-1 $224 reversed single #
loop $-1 $-1 $225 $88 #
plane-surface $-1 0 0 -9.4556756115695659 0 0 1 1 0 0 forward_v I I I I #
coedge $-1 $226 $227 $228 $229 forward $89 $-1 #
face $-1 $230 $231 $53 $-1 $232 reversed single #
loop $-1 $-1 $233 $91 #
plane-surface $-1 -46.697807684992547 -17.008868750125657 40.562973283117955 0 0.62932039886446345 0.77714595512881146 1 0 0 forward_v I I I I #
coedge $-1 $234 $235 $236 $237 reversed $92 $-1 #
face $-1 $-1 $238 $54 $-1 $239 forward single #
loop $-1 $240 $241 $94 #
cone-surface $-1 -50.168283583587538 24.391525853804975 3.6555353980859646 0 -0.62932039886446345 -0.77714595512881146 0.75 0 0 1 I I -0.70710678118654757 0.70710678118654757 0.75 forward I I I I #
loop $-1 $-1 $242 $71 #
coedge $-1 $152 $152 $243 $244 reversed $95 $-1 #
face $-1 $-1 $245 $55 $-1 $246 forward single #
loop $-1 $247 $248 $97 #
cone-surface $-1 -43.227331786397549 24.391525853804975 3.6555353980859646 0 -0.62932039886446345 -0.77714595512881146 0.75 0 0 1 I I -0.70710678118654757 0.70710678118654757 0.75 forward I I I I #
loop $-1 $-1 $249 $72 #
coedge $-1 $157 $157 $250 $251 reversed $98 $-1 #
face $-1 $252 $253 $56 $-1 $254 reversed single #
loop $-1 $-1 $255 $100 #
plane-surface $-1 -16.402335666327204 -17.008868750125657 40.562973283117955 0 0.62932039886446345 0.77714595512881146 1 0 0 forward_v I I I I #
coedge $-1 $256 $257 $258 $259 reversed $101 $-1 #
face $-1 $-1 $260 $57 $-1 $261 forward single #
loop $-1 $262 $263 $103 #
cone-surface $-1 -19.872811564922202 24.391525853804975 3.6555353980859646 0 -0.62932039886446345 -0.77714595512881146 0.75 0 0 1 I I -0.70710678118654757 0.70710678118654757 0.75 forward I I I I #
loop $-1 $-1 $264 $74 #
coedge $-1 $166 $166 $265 $266 reversed $104 $-1 #
face $-1 $-1 $267 $58 $-1 $268 forward single #
loop $-1 $269 $270 $106 #
cone-surface $-1 -12.931859767732206 24.391525853804975 3.6555353980859646 0 -0.62932039886446345 -0.77714595512881146 0.75 0 0 1 I I -0.70710678118654757 0.70710678118654757 0.75 forward I I I I #
loop $-1 $-1 $271 $75 #
coedge $-1 $171 $171 $272 $273 reversed $107 $-1 #
face $-1 $274 $275 $59 $-1 $276 reversed single #
loop $-1 $-1 $277 $109 #
plane-surface $-1 13.893136352338146 -17.008868750125657 40.562973283117955 0 0.62932039886446345 0.77714595512881146 1 0 0 forward_v I I I I #
coedge $-1 $278 $279 $280 $281 reversed $110 $-1 #
face $-1 $-1 $282 $60 $-1 $283 forward single #
loop $-1 $284 $285 $112 #
cone-surface $-1 10.422660453743148 24.391525853804975 3.6555353980859646 0 -0.62932039886446345 -0.77714595512881146 0.75 0 0 1 I I -0.70710678118654757 0.70710678118654757 0.75 forward I I I I #
loop $-1 $-1 $286 $77 #
coedge $-1 $180 $180 $287 $288 reversed $113 $-1 #
face $-1 $-1 $289 $61 $-1 $290 forward single #
loop $-1 $291 $292 $115 #
cone-surface $-1 17.363612250933144 24.391525853804975 3.6555353980859646 0 -0.62932039886446345 -0.77714595512881146 0.75 0 0 1 I I -0.70710678118654757 0.70710678118654757 0.75 forward I I I I #
loop $-1 $-1 $293 $78 #
coedge $-1 $185 $185 $294 $295 reversed $116 $-1 #
face $-1 $296 $297 $62 $-1 $298 reversed single #
loop $-1 $-1 $299 $118 #
plane-surface $-1 44.188608371003497 -17.008868750125657 40.562973283117955 0 0.62932039886446345 0.77714595512881146 1 0 0 forward_v I I I I #
coedge $-1 $300 $301 $302 $303 reversed $119 $-1 #
face $-1 $-1 $304 $63 $-1 $305 forward single #
loop $-1 $306 $307 $121 #
cone-surface $-1 40.718132472408499 24.391525853804975 3.6555353980859646 0 -0.62932039886446345 -0.77714595512881146 0.75 0 0 1 I I -0.70710678118654757 0.70710678118654757 0.75 forward I I I I #
loop $-1 $-1 $308 $80 #
coedge $-1 $194 $194 $309 $310 reversed $122 $-1 #
face $-1 $-1 $311 $64 $-1 $312 forward single #
loop $-1 $313 $314 $124 #
cone-surface $-1 47.659084269598495 24.391525853804975 3.6555353980859646 0 -0.62932039886446345 -0.77714595512881146 0.75 0 0 1 I I -0.70710678118654757 0.70710678118654757 0.75 forward I I I I #
loop $-1 $-1 $315 $81 #
coedge $-1 $199 $199 $316 $317 reversed $125 $-1 #
face $-1 $318 $319 $65 $-1 $320 reversed single #
loop $-1 $-1 $321 $127 #
plane-surface $-1 43.571178755412653 -135.3120032705844 88.015820731991155 1 0 0 0 0.78801076186113728 -0.61566146476048833 forward_v I I I I #
coedge $-1 $322 $323 $324 $325 reversed $128 $-1 #
face $-1 $-1 $326 $66 $-1 $327 forward single #
loop $-1 $328 $329 $130 #
cone-surface $-1 50.089785766136814 -26.546403573700548 5.6016514237457358 0 0.78801076186113728 -0.61566146476048833 0.5 0 0 1 I I -0.70710678118654746 0.70710678118654746 0.5 forward I I I I #
loop $-1 $-1 $330 $83 #
coedge $-1 $208 $208 $331 $332 reversed $131 $-1 #
face $-1 $-1 $333 $67 $-1 $334 forward single #
loop $-1 $335 $336 $133 #
cone-surface $-1 59.867696282223037 -26.546403573700548 5.6016514237457358 0 0.78801076186113728 -0.61566146476048833 0.5 0 0 1 I I -0.70710678118654746 0.70710678118654746 0.5 forward I I I I #
loop $-1 $-1 $337 $84 #
coedge $-1 $213 $213 $338 $339 reversed $134 $-1 #
face $-1 $340 $341 $51 $-1 $342 reversed single #
loop $-1 $-1 $343 $136 #
plane-surface $-1 0 0 -9.4556756115695659 0 0 1 1 0 0 forward_v I I I I #
coedge $-1 $344 $345 $346 $347 forward $137 $-1 #
coedge $-1 $348 $139 $349 $350 reversed $86 $-1 #
coedge $-1 $139 $348 $351 $352 forward $86 $-1 #
coedge $-1 $353 $354 $139 $221 forward $215 $-1 #
edge $-1 $355 -30.685760400544712 $356 30.685760400544712 $139 $357 forward 7 unknown #
face $-1 $358 $359 $52 $-1 $360 reversed single #
loop $-1 $-1 $361 $140 #
plane-surface $-1 -72.181662548563665 -20.917131824358613 0 0 1 0 0 0 1 forward_v I I I I #
coedge $-1 $362 $363 $227 $364 forward $141 $-1 #
coedge $-1 $365 $143 $366 $367 reversed $89 $-1 #
coedge $-1 $143 $365 $225 $364 reversed $89 $-1 #
coedge $-1 $368 $369 $143 $229 reversed $370 $-1 #
edge $-1 $371 -9.4556756115695659 $372 9.4556756115695659 $228 $373 forward 7 unknown #
face $-1 $374 $375 $53 $-1 $376 forward single #
loop $-1 $-1 $377 $144 #
plane-surface $-1 -38.60003058827089 66.547640984783868 143.74666744325475 -1 0 0 0 0.62932039886446345 0.77714595512881146 forward_v I I I I #
coedge $-1 $378 $379 $380 $381 reversed $145 $-1 #
coedge $-1 $235 $147 $382 $383 reversed $92 $-1 #
coedge $-1 $147 $234 $378 $384 reversed $92 $-1 #
coedge $-1 $380 $385 $147 $237 forward $375 $-1 #
edge $-1 $386 2.5880600918472219 $387 11.868376590246065 $236 $388 forward 7 unknown #
loop $-1 $-1 $243 $148 #
plane-surface $-1 -46.697807684992547 -17.008868750125657 40.562973283117955 0 0.62932039886446345 0.77714595512881146 1 0 0 forward_v I I I I #
loop $-1 $-1 $389 $94 #
coedge $-1 $241 $241 $242 $390 reversed $149 $-1 #
coedge $-1 $242 $242 $241 $390 forward $151 $-1 #
coedge $-1 $243 $243 $152 $244 forward $238 $-1 #
edge $-1 $391 3.0509868850196291e-016 $391 6.2831853071796004 $243 $392 forward 7 unknown #
loop $-1 $-1 $250 $153 #
plane-surface $-1 -46.697807684992547 -17.008868750125657 40.562973283117955 0 0.62932039886446345 0.77714595512881146 1 0 0 forward_v I I I I #
loop $-1 $-1 $393 $97 #
coedge $-1 $248 $248 $249 $394 reversed $154 $-1 #
coedge $-1 $249 $249 $248 $394 forward $156 $-1 #
coedge $-1 $250 $250 $157 $251 forward $245 $-1 #
edge $-1 $395 3.0509868850196291e-016 $395 6.2831853071796004 $250 $396 forward 7 unknown #
face $-1 $397 $398 $56 $-1 $399 forward single #
loop $-1 $-1 $400 $158 #
plane-surface $-1 -8.3045585696055468 66.547640984783868 143.74666744325475 -1 0 0 0 0.62932039886446345 0.77714595512881146 forward_v I I I I #
coedge $-1 $401 $402 $403 $404 reversed $159 $-1 #
coedge $-1 $257 $161 $405 $406 reversed $101 $-1 #
coedge $-1 $161 $256 $401 $407 reversed $101 $-1 #
coedge $-1 $403 $408 $161 $259 forward $398 $-1 #
edge $-1 $409 2.5880600918472219 $410 11.868376590246065 $258 $411 forward 7 unknown #
loop $-1 $-1 $265 $162 #
plane-surface $-1 -16.402335666327204 -17.008868750125657 40.562973283117955 0 0.62932039886446345 0.77714595512881146 1 0 0 forward_v I I I I #
loop $-1 $-1 $412 $103 #
coedge $-1 $263 $263 $264 $413 reversed $163 $-1 #
coedge $-1 $264 $264 $263 $413 forward $165 $-1 #
coedge $-1 $265 $265 $166 $266 forward $260 $-1 #
edge $-1 $414 3.0509868850196291e-016 $414 6.2831853071796004 $265 $415 forward 7 unknown #
loop $-1 $-1 $272 $167 #
plane-surface $-1 -16.402335666327204 -17.008868750125657 40.562973283117955 0 0.62932039886446345 0.77714595512881146 1 0 0 forward_v I I I I #
loop $-1 $-1 $416 $106 #
coedge $-1 $270 $270 $271 $417 reversed $168 $-1 #
coedge $-1 $271 $271 $270 $417 forward $170 $-1 #
coedge $-1 $272 $272 $171 $273 forward $267 $-1 #
edge $-1 $418 3.0509868850196291e-016 $418 6.2831853071796004 $272 $419 forward 7 unknown #
face $-1 $420 $421 $59 $-1 $422 forward single #
loop $-1 $-1 $423 $172 #
plane-surface $-1 21.990913449059803 66.547640984783868 143.74666744325475 -1 0 0 0 0.62932039886446345 0.77714595512881146 forward_v I I I I #
coedge $-1 $424 $425 $426 $427 reversed $173 $-1 #
coedge $-1 $279 $175 $428 $429 reversed $110 $-1 #
coedge $-1 $175 $278 $424 $430 reversed $110 $-1 #
coedge $-1 $426 $431 $175 $281 forward $421 $-1 #
edge $-1 $432 2.5880600918472219 $433 11.868376590246065 $280 $434 forward 7 unknown #
loop $-1 $-1 $287 $176 #
plane-surface $-1 13.893136352338146 -17.008868750125657 40.562973283117955 0 0.62932039886446345 0.77714595512881146 1 0 0 forward_v I I I I #
loop $-1 $-1 $435 $112 #
coedge $-1 $285 $285 $286 $436 reversed $177 $-1 #
coedge $-1 $286 $286 $285 $436 forward $179 $-1 #
coedge $-1 $287 $287 $180 $288 forward $282 $-1 #
edge $-1 $437 3.0509868850196291e-016 $437 6.2831853071796004 $287 $438 forward 7 unknown #
loop $-1 $-1 $294 $181 #
plane-surface $-1 13.893136352338146 -17.008868750125657 40.562973283117955 0 0.62932039886446345 0.77714595512881146 1 0 0 forward_v I I I I #
loop $-1 $-1 $439 $115 #
coedge $-1 $292 $292 $293 $440 reversed $182 $-1 #
coedge $-1 $293 $293 $292 $440 forward $184 $-1 #
coedge $-1 $294 $294 $185 $295 forward $289 $-1 #
edge $-1 $441 3.0509868850196291e-016 $441 6.2831853071796004 $294 $442 forward 7 unknown #
face $-1 $443 $444 $62 $-1 $445 forward single #
loop $-1 $-1 $446 $186 #
plane-surface $-1 52.286385467725154 66.547640984783868 143.74666744325475 -1 0 0 0 0.62932039886446345 0.77714595512881146 forward_v I I I I #
coedge $-1 $447 $448 $449 $450 reversed $187 $-1 #
coedge $-1 $301 $189 $451 $452 reversed $119 $-1 #
coedge $-1 $189 $300 $447 $453 reversed $119 $-1 #
coedge $-1 $449 $454 $189 $303 forward $444 $-1 #
edge $-1 $455 2.5880600918472219 $456 11.868376590246065 $302 $457 forward 7 unknown #
loop $-1 $-1 $309 $190 #
plane-surface $-1 44.188608371003497 -17.008868750125657 40.562973283117955 0 0.62932039886446345 0.77714595512881146 1 0 0 forward_v I I I I #
loop $-1 $-1 $458 $121 #
coedge $-1 $307 $307 $308 $459 reversed $191 $-1 #
coedge $-1 $308 $308 $307 $459 forward $193 $-1 #
coedge $-1 $309 $309 $194 $310 forward $304 $-1 #
edge $-1 $460 3.0509868850196291e-016 $460 6.2831853071796004 $309 $461 forward 7 unknown #
loop $-1 $-1 $316 $195 #
plane-surface $-1 44.188608371003497 -17.008868750125657 40.562973283117955 0 0.62932039886446345 0.77714595512881146 1 0 0 forward_v I I I I #
loop $-1 $-1 $462 $124 #
coedge $-1 $314 $314 $315 $463 reversed $196 $-1 #
coedge $-1 $315 $315 $314 $463 forward $198 $-1 #
coedge $-1 $316 $316 $199 $317 forward $311 $-1 #
edge $-1 $464 3.0509868850196291e-016 $464 6.2831853071796004 $316 $465 forward 7 unknown #
face $-1 $466 $467 $65 $-1 $468 forward single #
loop $-1 $-1 $469 $200 #
plane-surface $-1 0 -30.685760400544712 0 0 1 0 0 0 1 forward_v I I I I #
coedge $-1 $470 $471 $472 $473 reversed $201 $-1 #
coedge $-1 $474 $203 $475 $476 reversed $128 $-1 #
coedge $-1 $203 $474 $470 $477 forward $128 $-1 #
coedge $-1 $472 $478 $203 $325 forward $467 $-1 #
edge $-1 $479 -38.896932780857206 $480 -16.081808243322698 $324 $481 forward 7 unknown #
loop $-1 $-1 $331 $204 #
plane-surface $-1 54.978741024179911 -30.685760400544737 6.272843281251383 0 -0.78801076186113728 0.61566146476048833 1 0 0 forward_v I I I I #
loop $-1 $-1 $482 $130 #
coedge $-1 $329 $329 $330 $483 reversed $205 $-1 #
coedge $-1 $330 $330 $329 $483 forward $207 $-1 #
coedge $-1 $331 $331 $208 $332 forward $326 $-1 #
edge $-1 $484 -7.8668317150530518e-016 $484 6.2831853071795996 $331 $485 forward 7 unknown #
loop $-1 $-1 $338 $209 #
plane-surface $-1 54.978741024179911 -30.685760400544737 6.272843281251383 0 -0.78801076186113728 0.61566146476048833 1 0 0 forward_v I I I I #
loop $-1 $-1 $486 $133 #
coedge $-1 $336 $336 $337 $487 reversed $210 $-1 #
coedge $-1 $337 $337 $336 $487 forward $212 $-1 #
coedge $-1 $338 $338 $213 $339 forward $333 $-1 #
edge $-1 $488 -7.8668317150530518e-016 $488 6.2831853071795996 $338 $489 forward 7 unknown #
face $-1 $490 $491 $51 $-1 $492 reversed single #
loop $-1 $-1 $349 $214 #
plane-surface $-1 0 -30.685760400544712 0 0 1 0 0 0 1 forward_v I I I I #
coedge $-1 $354 $353 $493 $494 forward $215 $-1 #
coedge $-1 $495 $217 $496 $497 forward $137 $-1 #
coedge $-1 $217 $495 $498 $499 forward $137 $-1 #
coedge $-1 $500 $501 $217 $347 reversed $502 $-1 #
edge $-1 $503 -30.685760400544712 $504 30.685760400544712 $346 $505 forward 7 unknown #
coedge $-1 $219 $218 $495 $506 reversed $86 $-1 #
coedge $-1 $507 $498 $218 $350 forward $341 $-1 #
edge $-1 $508 -9.4556756115695659 $355 9.4556756115695659 $218 $509 forward 7 unknown #
coedge $-1 $496 $510 $219 $352 reversed $491 $-1 #
edge $-1 $511 -9.4556756115695659 $356 9.4556756115695659 $351 $512 forward 7 unknown #
coedge $-1 $343 $220 $510 $513 forward $215 $-1 #
coedge $-1 $220 $343 $507 $514 forward $215 $-1 #
vertex $-1 $221 $515 #
vertex $-1 $513 $516 #
straight-curve $-1 -66.386303292947176 0 -9.4556756115695659 0 1 0 I I #
face $-1 $517 $370 $52 $-1 $518 reversed single #
loop $-1 $-1 $519 $222 #
plane-surface $-1 -77.977021804180154 -19.417131824358613 0 1 0 0 0 0 -1 forward_v I I I I #
coedge $-1 $520 $521 $522 $523 forward $223 $-1 #
coedge $-1 $524 $225 $520 $525 forward $141 $-1 #
coedge $-1 $225 $524 $368 $526 forward $141 $-1 #
edge $-1 $371 17.917131824358613 $527 20.917131824358613 $225 $528 forward 7 unknown #
coedge $-1 $227 $226 $529 $530 forward $89 $-1 #
coedge $-1 $531 $532 $226 $367 forward $533 $-1 #
edge $-1 $534 -20.917131824358613 $372 -17.917131824358613 $366 $535 forward 7 unknown #
coedge $-1 $536 $228 $363 $526 reversed $370 $-1 #
coedge $-1 $228 $536 $531 $537 reversed $370 $-1 #
loop $-1 $-1 $228 $358 #
vertex $-1 $364 $538 #
vertex $-1 $537 $539 #
straight-curve $-1 -66.386303292947176 -17.917131824358613 0 0 0 1 I I #
face $-1 $-1 $540 $53 $-1 $541 reversed single #
loop $-1 $-1 $236 $230 #
plane-surface $-1 0 0 9.4556756115695659 0 0 1 1 0 0 forward_v I I I I #
coedge $-1 $542 $543 $544 $545 reversed $231 $-1 #
coedge $-1 $546 $233 $235 $384 forward $145 $-1 #
coedge $-1 $233 $546 $542 $547 forward $145 $-1 #
coedge $-1 $544 $236 $233 $381 forward $375 $-1 #
edge $-1 $387 -31.446680939217931 $548 -15.251126745774616 $380 $549 forward 7 unknown #
coedge $-1 $550 $551 $234 $383 forward $540 $-1 #
edge $-1 $552 -69.932710387969735 $386 -62.417658110057808 $382 $553 forward 7 unknown #
edge $-1 $387 49.429984675020769 $552 61.371520801089432 $235 $554 forward 7 unknown #
coedge $-1 $236 $544 $550 $555 forward $375 $-1 #
vertex $-1 $383 $556 #
vertex $-1 $237 $557 #
straight-curve $-1 -54.795584781714204 33.273820492391934 9.4556756115695606 0 -1 0 I I #
coedge $-1 $389 $389 $-1 $558 reversed $240 $-1 #
edge $-1 $559 0 $559 6.2831853071796004 $241 $560 forward 7 unknown #
vertex $-1 $244 $561 #
ellipse-curve $-1 -50.168283583587538 26.045602151345292 5.6981494726135988 0 0.62932039886446345 0.77714595512881146 1.5 0 0 1 I I #
coedge $-1 $393 $393 $-1 $562 reversed $247 $-1 #
edge $-1 $563 0 $563 6.2831853071796004 $248 $564 forward 7 unknown #
vertex $-1 $251 $565 #
ellipse-curve $-1 -43.227331786397549 26.045602151345292 5.6981494726135988 0 0.62932039886446345 0.77714595512881146 1.5 0 0 1 I I #
face $-1 $-1 $566 $56 $-1 $567 reversed single #
loop $-1 $-1 $258 $252 #
plane-surface $-1 0 0 9.4556756115695659 0 0 1 1 0 0 forward_v I I I I #
coedge $-1 $568 $569 $570 $571 reversed $253 $-1 #
coedge $-1 $572 $255 $257 $407 forward $159 $-1 #
coedge $-1 $255 $572 $568 $573 forward $159 $-1 #
coedge $-1 $570 $258 $255 $404 forward $398 $-1 #
edge $-1 $410 -16.298944929885259 $574 -0.10339073644194485 $403 $575 forward 7 unknown #
coedge $-1 $576 $577 $256 $406 forward $566 $-1 #
edge $-1 $578 -69.932710387969735 $409 -62.417658110057808 $405 $579 forward 7 unknown #
edge $-1 $410 49.429984675020769 $578 61.371520801089432 $257 $580 forward 7 unknown #
coedge $-1 $258 $570 $576 $581 forward $398 $-1 #
vertex $-1 $259 $582 #
vertex $-1 $259 $583 #
straight-curve $-1 -24.500112763048861 33.273820492391934 9.4556756115695606 0 -1 0 I I #
coedge $-1 $412 $412 $-1 $584 reversed $262 $-1 #
edge $-1 $585 0 $585 6.2831853071796004 $263 $586 forward 7 unknown #
vertex $-1 $266 $587 #
ellipse-curve $-1 -19.872811564922202 26.045602151345292 5.6981494726135988 0 0.62932039886446345 0.77714595512881146 1.5 0 0 1 I I #
coedge $-1 $416 $416 $-1 $588 reversed $269 $-1 #
edge $-1 $589 0 $589 6.2831853071796004 $270 $590 forward 7 unknown #
vertex $-1 $273 $591 #
ellipse-curve $-1 -12.931859767732206 26.045602151345292 5.6981494726135988 0 0.62932039886446345 0.77714595512881146 1.5 0 0 1 I I #
face $-1 $-1 $592 $59 $-1 $593 reversed single #
loop $-1 $-1 $280 $274 #
plane-surface $-1 0 0 9.4556756115695659 0 0 1 1 0 0 forward_v I I I I #
coedge $-1 $594 $595 $596 $597 reversed $275 $-1 #
coedge $-1 $598 $277 $279 $430 forward $173 $-1 #
coedge $-1 $277 $598 $594 $599 forward $173 $-1 #
coedge $-1 $596 $280 $277 $427 forward $421 $-1 #
edge $-1 $433 -1.1512089205525839 $600 15.04434527289073 $426 $601 forward 7 unknown #
coedge $-1 $602 $603 $278 $429 forward $592 $-1 #
edge $-1 $604 -69.932710387969735 $432 -62.417658110057808 $428 $605 forward 7 unknown #
edge $-1 $433 49.429984675020769 $604 61.371520801089432 $279 $606 forward 7 unknown #
coedge $-1 $280 $596 $602 $607 forward $421 $-1 #
vertex $-1 $281 $608 #
vertex $-1 $281 $609 #
straight-curve $-1 5.7953592556164892 33.273820492391934 9.4556756115695606 0 -1 0 I I #
coedge $-1 $435 $435 $-1 $610 reversed $284 $-1 #
edge $-1 $611 0 $611 6.2831853071796004 $285 $612 forward 7 unknown #
vertex $-1 $288 $613 #
ellipse-curve $-1 10.422660453743148 26.045602151345292 5.6981494726135988 0 0.62932039886446345 0.77714595512881146 1.5 0 0 1 I I #
coedge $-1 $439 $439 $-1 $614 reversed $291 $-1 #
edge $-1 $615 0 $615 6.2831853071796004 $292 $616 forward 7 unknown #
vertex $-1 $295 $617 #
ellipse-curve $-1 17.363612250933144 26.045602151345292 5.6981494726135988 0 0.62932039886446345 0.77714595512881146 1.5 0 0 1 I I #
face $-1 $-1 $618 $62 $-1 $619 reversed single #
loop $-1 $-1 $302 $296 #
plane-surface $-1 0 0 9.4556756115695659 0 0 1 1 0 0 forward_v I I I I #
coedge $-1 $620 $621 $622 $623 reversed $297 $-1 #
coedge $-1 $624 $299 $301 $453 forward $187 $-1 #
coedge $-1 $299 $624 $620 $625 forward $187 $-1 #
coedge $-1 $622 $302 $299 $450 forward $444 $-1 #
edge $-1 $456 13.996527088780091 $626 30.192081282223405 $449 $627 forward 7 unknown #
coedge $-1 $628 $629 $300 $452 forward $618 $-1 #
edge $-1 $630 -69.932710387969735 $455 -62.417658110057808 $451 $631 forward 7 unknown #
edge $-1 $456 49.429984675020769 $630 61.371520801089432 $301 $632 forward 7 unknown #
coedge $-1 $302 $622 $628 $633 forward $444 $-1 #
vertex $-1 $303 $634 #
vertex $-1 $303 $635 #
straight-curve $-1 36.09083127428184 33.273820492391934 9.4556756115695606 0 -1 0 I I #
coedge $-1 $458 $458 $-1 $636 reversed $306 $-1 #
edge $-1 $637 0 $637 6.2831853071796004 $307 $638 forward 7 unknown #
vertex $-1 $310 $639 #
ellipse-curve $-1 40.718132472408499 26.045602151345292 5.6981494726135988 0 0.62932039886446345 0.77714595512881146 1.5 0 0 1 I I #
coedge $-1 $462 $462 $-1 $640 reversed $313 $-1 #
edge $-1 $641 0 $641 6.2831853071796004 $314 $642 forward 7 unknown #
vertex $-1 $317 $643 #
ellipse-curve $-1 47.659084269598495 26.045602151345292 5.6981494726135988 0 0.62932039886446345 0.77714595512881146 1.5 0 0 1 I I #
face $-1 $-1 $644 $65 $-1 $645 reversed single #
loop $-1 $-1 $472 $318 #
plane-surface $-1 0 0 9.4556756115695659 0 0 1 1 0 0 forward_v I I I I #
coedge $-1 $646 $647 $471 $648 forward $319 $-1 #
coedge $-1 $471 $321 $323 $477 reversed $201 $-1 #
coedge $-1 $321 $470 $469 $648 reversed $201 $-1 #
coedge $-1 $649 $324 $321 $473 forward $467 $-1 #
edge $-1 $480 -39.456942317284252 $650 -36.97024123474749 $472 $651 forward 7 unknown #
coedge $-1 $323 $322 $646 $652 reversed $128 $-1 #
coedge $-1 $653 $654 $322 $476 forward $644 $-1 #
edge $-1 $655 -6.9744860911971296 $479 -2.9354139308107881 $475 $656 forward 7 unknown #
edge $-1 $657 4.0507071865909177e-014 $480 4.0390721603863824 $470 $658 forward 7 unknown #
coedge $-1 $324 $649 $653 $659 forward $467 $-1 #
vertex $-1 $476 $660 #
vertex $-1 $325 $661 #
straight-curve $-1 27.489370512089955 -28.199059318007947 9.4556756115695659 -1 0 0 I I #
coedge $-1 $482 $482 $-1 $662 reversed $328 $-1 #
edge $-1 $663 0 $663 6.2831853071796004 $329 $664 forward 7 unknown #
vertex $-1 $332 $665 #
ellipse-curve $-1 50.089785766136814 -29.442409859276335 7.8642594464104834 0 -0.78801076186113728 0.61566146476048833 1 0 0 1 I I #
coedge $-1 $486 $486 $-1 $666 reversed $335 $-1 #
edge $-1 $667 0 $667 6.2831853071796004 $336 $668 forward 7 unknown #
vertex $-1 $339 $669 #
ellipse-curve $-1 59.867696282223037 -29.442409859276335 7.8642594464104834 0 -0.78801076186113728 0.61566146476048833 1 0 0 1 I I #
face $-1 $-1 $502 $51 $-1 $670 reversed single #
loop $-1 $-1 $671 $340 #
plane-surface $-1 0 30.685760400544712 0 0 -1 0 0 0 -1 forward_v I I I I #
coedge $-1 $501 $500 $343 $494 reversed $502 $-1 #
edge $-1 $672 -30.685760400544712 $673 30.685760400544712 $493 $674 forward 7 unknown #
coedge $-1 $345 $344 $348 $506 forward $137 $-1 #
coedge $-1 $671 $351 $344 $497 reversed $491 $-1 #
edge $-1 $504 -66.386303292947176 $511 66.386303292947176 $496 $675 forward 7 unknown #
coedge $-1 $349 $676 $345 $499 reversed $341 $-1 #
edge $-1 $508 -66.386303292947176 $503 66.386303292947176 $498 $677 forward 7 unknown #
coedge $-1 $493 $346 $676 $678 forward $502 $-1 #
coedge $-1 $346 $493 $671 $679 reversed $502 $-1 #
loop $-1 $-1 $500 $490 #
vertex $-1 $347 $680 #
vertex $-1 $347 $681 #
straight-curve $-1 66.386303292947176 0 9.4556756115695659 0 1 0 I I #
edge $-1 $511 -30.685760400544712 $508 30.685760400544712 $348 $682 forward 7 unknown #
coedge $-1 $676 $349 $354 $514 reversed $341 $-1 #
vertex $-1 $506 $683 #
straight-curve $-1 -66.386303292947176 -30.685760400544712 0 0 0 -1 I I #
coedge $-1 $351 $671 $353 $513 reversed $491 $-1 #
vertex $-1 $497 $684 #
straight-curve $-1 -66.386303292947176 30.685760400544712 0 0 0 -1 I I #
edge $-1 $356 -66.386303292947176 $672 66.386303292947176 $510 $685 forward 7 unknown #
edge $-1 $673 -66.386303292947176 $355 66.386303292947176 $507 $686 forward 7 unknown #
point $-1 -66.386303292947176 -30.685760400544712 -9.4556756115695659 #
point $-1 -66.386303292947176 30.685760400544712 -9.4556756115695659 #
face $-1 $-1 $533 $52 $-1 $687 forward single #
plane-surface $-1 -72.181662548563665 -17.917131824358613 0 0 -1 0 0 0 -1 forward_v I I I I #
coedge $-1 $688 $689 $536 $690 forward $359 $-1 #
coedge $-1 $529 $361 $362 $525 reversed $223 $-1 #
coedge $-1 $361 $529 $532 $691 reversed $223 $-1 #
coedge $-1 $689 $688 $361 $523 reversed $359 $-1 #
edge $-1 $692 -9.4556756115695659 $693 9.4556756115695659 $522 $694 forward 7 unknown #
coedge $-1 $363 $362 $688 $695 forward $141 $-1 #
edge $-1 $527 -5.7953592556164892 $693 5.7953592556164892 $520 $696 forward 7 unknown #
edge $-1 $697 -5.7953592556164892 $371 5.7953592556164892 $368 $698 forward 7 unknown #
vertex $-1 $525 $699 #
straight-curve $-1 -66.386303292947176 0 -9.4556756115695659 0 -1 0 I I #
coedge $-1 $521 $520 $365 $530 reversed $223 $-1 #
edge $-1 $534 -9.4556756115695659 $527 9.4556756115695659 $529 $700 forward 7 unknown #
coedge $-1 $701 $366 $369 $537 forward $533 $-1 #
coedge $-1 $366 $701 $521 $691 forward $533 $-1 #
loop $-1 $-1 $366 $517 #
vertex $-1 $367 $702 #
straight-curve $-1 -66.386303292947176 0 9.4556756115695659 0 1 0 I I #
coedge $-1 $369 $368 $519 $690 reversed $370 $-1 #
edge $-1 $372 -5.7953592556164892 $703 5.7953592556164892 $369 $704 forward 7 unknown #
point $-1 -66.386303292947176 -17.917131824358613 -9.4556756115695659 #
point $-1 -66.386303292947176 -17.917131824358613 9.4556756115695659 #
loop $-1 $-1 $382 $374 #
plane-surface $-1 0 30.685760400544712 0 0 -1 0 0 0 -1 forward_v I I I I #
coedge $-1 $543 $377 $379 $547 reversed $231 $-1 #
coedge $-1 $377 $542 $705 $706 reversed $231 $-1 #
coedge $-1 $385 $380 $377 $545 forward $375 $-1 #
edge $-1 $548 -11.868376590246065 $707 -2.5880600918472219 $544 $708 forward 7 unknown #
coedge $-1 $379 $378 $551 $709 reversed $145 $-1 #
edge $-1 $710 -61.371520801089432 $548 -49.429984675020769 $542 $711 forward 7 unknown #
vertex $-1 $381 $712 #
straight-curve $-1 -23.348903842496274 21.405443902145873 9.4556756115695642 1 0 0 I I #
coedge $-1 $705 $382 $385 $555 reversed $540 $-1 #
coedge $-1 $382 $705 $546 $709 forward $540 $-1 #
vertex $-1 $383 $713 #
straight-curve $-1 -54.795584781714204 30.685760400544712 71.873333721627375 0 0 1 I I #
straight-curve $-1 -54.795584781714204 -17.008868750125657 40.562973283117955 0 0.77714595512881146 -0.62932039886446345 I I #
edge $-1 $707 38.60003058827089 $386 54.795584781714204 $550 $714 forward 7 unknown #
point $-1 -54.795584781714204 30.685760400544712 9.4556756115695659 #
point $-1 -54.795584781714204 21.405443902145869 9.4556756115695677 #
edge $-1 $715 1 $715 0 $389 $-1 forward 7 unknown #
vertex $-1 $390 $716 #
ellipse-curve $-1 -50.168283583587538 24.863516152953324 4.2383948644325731 0 0.62932039886446345 0.77714595512881146 1.5 0 0 1 I I #
point $-1 -48.668283583587538 26.045602151345303 5.6981494726136113 #
edge $-1 $717 1 $717 0 $393 $-1 forward 7 unknown #
vertex $-1 $394 $718 #
ellipse-curve $-1 -43.227331786397549 24.863516152953324 4.2383948644325731 0 0.62932039886446345 0.77714595512881146 1.5 0 0 1 I I #
point $-1 -41.727331786397549 26.045602151345303 5.6981494726136113 #
loop $-1 $-1 $405 $397 #
plane-surface $-1 0 30.685760400544712 0 0 -1 0 0 0 -1 forward_v I I I I #
coedge $-1 $569 $400 $402 $573 reversed $253 $-1 #
coedge $-1 $400 $568 $719 $720 reversed $253 $-1 #
coedge $-1 $408 $403 $400 $571 forward $398 $-1 #
edge $-1 $574 -11.868376590246065 $721 -2.5880600918472219 $570 $722 forward 7 unknown #
coedge $-1 $402 $401 $577 $723 reversed $159 $-1 #
edge $-1 $724 -61.371520801089432 $574 -49.429984675020769 $568 $725 forward 7 unknown #
vertex $-1 $404 $726 #
straight-curve $-1 -8.201167833163602 21.405443902145873 9.4556756115695642 1 0 0 I I #
coedge $-1 $719 $405 $408 $581 reversed $566 $-1 #
coedge $-1 $405 $719 $572 $723 forward $566 $-1 #
vertex $-1 $406 $727 #
straight-curve $-1 -24.500112763048861 30.685760400544712 71.873333721627375 0 0 1 I I #
straight-curve $-1 -24.500112763048861 -17.008868750125657 40.562973283117955 0 0.77714595512881146 -0.62932039886446345 I I #
edge $-1 $721 8.3045585696055468 $409 24.500112763048861 $576 $728 forward 7 unknown #
point $-1 -24.500112763048861 30.685760400544712 9.4556756115695659 #
point $-1 -24.500112763048861 21.405443902145869 9.4556756115695677 #
edge $-1 $729 1 $729 0 $412 $-1 forward 7 unknown #
vertex $-1 $413 $730 #
ellipse-curve $-1 -19.872811564922202 24.863516152953324 4.2383948644325731 0 0.62932039886446345 0.77714595512881146 1.5 0 0 1 I I #
point $-1 -18.372811564922202 26.045602151345303 5.6981494726136113 #
edge $-1 $731 1 $731 0 $416 $-1 forward 7 unknown #
vertex $-1 $417 $732 #
ellipse-curve $-1 -12.931859767732206 24.863516152953324 4.2383948644325731 0 0.62932039886446345 0.77714595512881146 1.5 0 0 1 I I #
point $-1 -11.431859767732206 26.045602151345303 5.6981494726136113 #
loop $-1 $-1 $428 $420 #
plane-surface $-1 0 30.685760400544712 0 0 -1 0 0 0 -1 forward_v I I I I #
coedge $-1 $595 $423 $425 $599 reversed $275 $-1 #
coedge $-1 $423 $594 $733 $734 reversed $275 $-1 #
coedge $-1 $431 $426 $423 $597 forward $421 $-1 #
edge $-1 $600 -11.868376590246065 $735 -2.5880600918472219 $596 $736 forward 7 unknown #
coedge $-1 $425 $424 $603 $737 reversed $173 $-1 #
edge $-1 $738 -61.371520801089432 $600 -49.429984675020769 $594 $739 forward 7 unknown #
vertex $-1 $427 $740 #
straight-curve $-1 6.9465681761690732 21.405443902145873 9.4556756115695642 1 0 0 I I #
coedge $-1 $733 $428 $431 $607 reversed $592 $-1 #
coedge $-1 $428 $733 $598 $737 forward $592 $-1 #
vertex $-1 $429 $741 #
straight-curve $-1 5.7953592556164892 30.685760400544712 71.873333721627375 0 0 1 I I #
straight-curve $-1 5.7953592556164892 -17.008868750125657 40.562973283117955 0 0.77714595512881146 -0.62932039886446345 I I #
edge $-1 $735 -21.990913449059803 $432 -5.7953592556164892 $602 $742 forward 7 unknown #
point $-1 5.7953592556164892 30.685760400544712 9.4556756115695659 #
point $-1 5.7953592556164892 21.405443902145869 9.4556756115695677 #
edge $-1 $743 1 $743 0 $435 $-1 forward 7 unknown #
vertex $-1 $436 $744 #
ellipse-curve $-1 10.422660453743148 24.863516152953324 4.2383948644325731 0 0.62932039886446345 0.77714595512881146 1.5 0 0 1 I I #
point $-1 11.922660453743148 26.045602151345303 5.6981494726136113 #
edge $-1 $745 1 $745 0 $439 $-1 forward 7 unknown #
vertex $-1 $440 $746 #
ellipse-curve $-1 17.363612250933144 24.863516152953324 4.2383948644325731 0 0.62932039886446345 0.77714595512881146 1.5 0 0 1 I I #
point $-1 18.863612250933144 26.045602151345303 5.6981494726136113 #
loop $-1 $-1 $451 $443 #
plane-surface $-1 0 30.685760400544712 0 0 -1 0 0 0 -1 forward_v I I I I #
coedge $-1 $621 $446 $448 $625 reversed $297 $-1 #
coedge $-1 $446 $620 $747 $748 reversed $297 $-1 #
coedge $-1 $454 $449 $446 $623 forward $444 $-1 #
edge $-1 $626 -11.868376590246065 $749 -2.5880600918472219 $622 $750 forward 7 unknown #
coedge $-1 $448 $447 $629 $751 reversed $187 $-1 #
edge $-1 $752 -61.371520801089432 $626 -49.429984675020769 $620 $753 forward 7 unknown #
vertex $-1 $450 $754 #
straight-curve $-1 22.094304185501748 21.405443902145873 9.4556756115695642 1 0 0 I I #
coedge $-1 $747 $451 $454 $633 reversed $618 $-1 #
coedge $-1 $451 $747 $624 $751 forward $618 $-1 #
vertex $-1 $452 $755 #
straight-curve $-1 36.09083127428184 30.685760400544712 71.873333721627375 0 0 1 I I #
straight-curve $-1 36.09083127428184 -17.008868750125657 40.562973283117955 0 0.77714595512881146 -0.62932039886446345 I I #
edge $-1 $749 -52.286385467725154 $455 -36.09083127428184 $628 $756 forward 7 unknown #
point $-1 36.09083127428184 30.685760400544712 9.4556756115695659 #
point $-1 36.09083127428184 21.405443902145869 9.4556756115695677 #
edge $-1 $757 1 $757 0 $458 $-1 forward 7 unknown #
vertex $-1 $459 $758 #
ellipse-curve $-1 40.718132472408499 24.863516152953324 4.2383948644325731 0 0.62932039886446345 0.77714595512881146 1.5 0 0 1 I I #
point $-1 42.218132472408499 26.045602151345303 5.6981494726136113 #
edge $-1 $759 1 $759 0 $462 $-1 forward 7 unknown #
vertex $-1 $463 $760 #
ellipse-curve $-1 47.659084269598495 24.863516152953324 4.2383948644325731 0 0.62932039886446345 0.77714595512881146 1.5 0 0 1 I I #
point $-1 49.159084269598495 26.045602151345303 5.6981494726136113 #
loop $-1 $-1 $475 $466 #
plane-surface $-1 66.386303292947176 0 0 -1 0 0 0 0 1 forward_v I I I I #
coedge $-1 $761 $469 $474 $652 forward $319 $-1 #
coedge $-1 $469 $761 $649 $762 reversed $319 $-1 #
edge $-1 $650 34.55223475442601 $657 37.735067084744159 $469 $763 forward 7 unknown #
coedge $-1 $478 $472 $647 $762 forward $467 $-1 #
vertex $-1 $762 $764 #
straight-curve $-1 43.571178755412653 -67.656001635292199 9.4556756115695677 0 -1 0 I I #
edge $-1 $657 16.081808243322698 $655 38.896932780857206 $646 $765 forward 7 unknown #
coedge $-1 $654 $475 $478 $659 reversed $644 $-1 #
coedge $-1 $475 $653 $761 $766 forward $644 $-1 #
vertex $-1 $652 $767 #
straight-curve $-1 66.386303292947176 -26.391838077686636 11.768813379565572 0 0.61566146476048833 0.78801076186113728 I I #
vertex $-1 $652 $768 #
straight-curve $-1 43.571178755412653 -30.685760400544737 6.272843281251383 0 0.61566146476048833 0.78801076186113728 I I #
edge $-1 $769 -30.685760400544712 $479 -28.199059318007947 $653 $770 forward 7 unknown #
point $-1 66.386303292947161 -28.199059318007947 9.4556756115695659 #
point $-1 43.571178755412653 -28.199059318007947 9.4556756115695659 #
edge $-1 $771 1 $771 0 $482 $-1 forward 7 unknown #
vertex $-1 $483 $772 #
ellipse-curve $-1 50.089785766136814 -26.940408954631117 5.9094821561259803 0 -0.78801076186113728 0.61566146476048833 1 0 0 1 I I #
point $-1 51.089785766136814 -29.44240985927631 7.8642594464104629 #
edge $-1 $773 1 $773 0 $486 $-1 forward 7 unknown #
vertex $-1 $487 $774 #
ellipse-curve $-1 59.867696282223037 -26.940408954631117 5.9094821561259803 0 -0.78801076186113728 0.61566146476048833 1 0 0 1 I I #
point $-1 60.867696282223037 -29.44240985927631 7.8642594464104629 #
plane-surface $-1 66.386303292947176 0 0 -1 0 0 0 0 1 forward_v I I I I #
coedge $-1 $510 $496 $501 $679 forward $491 $-1 #
vertex $-1 $494 $775 #
vertex $-1 $678 $776 #
straight-curve $-1 66.386303292947176 0 -9.4556756115695659 0 -1 0 I I #
straight-curve $-1 0 30.685760400544712 9.4556756115695659 -1 0 0 I I #
coedge $-1 $498 $507 $500 $678 reversed $341 $-1 #
straight-curve $-1 0 -30.685760400544712 9.4556756115695659 1 0 0 I I #
edge $-1 $503 -9.4556756115695659 $673 9.4556756115695659 $500 $777 forward 7 unknown #
edge $-1 $504 -9.4556756115695659 $672 9.4556756115695659 $501 $778 forward 7 unknown #
point $-1 66.386303292947176 -30.685760400544712 9.4556756115695659 #
point $-1 66.386303292947176 30.685760400544712 9.4556756115695659 #
straight-curve $-1 -66.386303292947176 0 9.4556756115695659 0 -1 0 I I #
point $-1 -66.386303292947176 -30.685760400544712 9.4556756115695659 #
point $-1 -66.386303292947176 30.685760400544712 9.4556756115695659 #
straight-curve $-1 0 30.685760400544712 -9.4556756115695659 1 0 0 I I #
straight-curve $-1 0 -30.685760400544712 -9.4556756115695659 -1 0 0 I I #
plane-surface $-1 0 0 9.4556756115695659 0 0 1 1 0 0 forward_v I I I I #
coedge $-1 $522 $519 $524 $695 reversed $359 $-1 #
coedge $-1 $519 $522 $701 $779 reversed $359 $-1 #
edge $-1 $703 -9.4556756115695659 $697 9.4556756115695659 $536 $780 forward 7 unknown #
edge $-1 $692 -5.7953592556164892 $534 5.7953592556164892 $521 $781 forward 7 unknown #
vertex $-1 $779 $782 #
vertex $-1 $695 $783 #
straight-curve $-1 -77.977021804180154 -20.917131824358613 0 0 0 -1 I I #
edge $-1 $693 -1.5 $697 1.5 $688 $784 forward 7 unknown #
straight-curve $-1 -72.181662548563665 -20.917131824358613 -9.4556756115695659 -1 0 0 I I #
vertex $-1 $526 $785 #
straight-curve $-1 -72.181662548563665 -17.917131824358613 -9.4556756115695659 1 0 0 I I #
point $-1 -66.386303292947176 -20.917131824358613 -9.4556756115695659 #
straight-curve $-1 -66.386303292947176 -20.917131824358613 0 0 0 -1 I I #
coedge $-1 $532 $531 $689 $779 forward $533 $-1 #
point $-1 -66.386303292947176 -20.917131824358613 9.4556756115695659 #
vertex $-1 $537 $786 #
straight-curve $-1 -72.181662548563665 -17.917131824358613 9.4556756115695659 -1 0 0 I I #
coedge $-1 $551 $550 $543 $706 forward $540 $-1 #
edge $-1 $707 62.417658110057808 $710 69.932710387969735 $705 $787 forward 7 unknown #
vertex $-1 $555 $788 #
straight-curve $-1 -38.60003058827089 33.273820492391934 9.4556756115695606 0 1 0 I I #
edge $-1 $710 15.251126745774616 $552 31.446680939217931 $551 $789 forward 7 unknown #
vertex $-1 $709 $790 #
straight-curve $-1 -38.60003058827089 -17.008868750125657 40.562973283117955 0 -0.77714595512881146 0.62932039886446345 I I #
point $-1 -38.60003058827089 21.405443902145869 9.4556756115695677 #
point $-1 -54.795584781714204 30.685760400544709 1.9406233336576406 #
straight-curve $-1 0 30.685760400544712 9.4556756115695659 -1 0 0 I I #
vertex $-1 $558 $791 #
point $-1 -48.668283583587538 24.863516152953324 4.2383948644325731 #
vertex $-1 $562 $792 #
point $-1 -41.727331786397549 24.863516152953324 4.2383948644325731 #
coedge $-1 $577 $576 $569 $720 forward $566 $-1 #
edge $-1 $721 62.417658110057808 $724 69.932710387969735 $719 $793 forward 7 unknown #
vertex $-1 $581 $794 #
straight-curve $-1 -8.3045585696055468 33.273820492391934 9.4556756115695606 0 1 0 I I #
edge $-1 $724 0.10339073644194485 $578 16.298944929885259 $577 $795 forward 7 unknown #
vertex $-1 $723 $796 #
straight-curve $-1 -8.3045585696055468 -17.008868750125657 40.562973283117955 0 -0.77714595512881146 0.62932039886446345 I I #
point $-1 -8.3045585696055468 21.405443902145869 9.4556756115695677 #
point $-1 -24.500112763048861 30.685760400544709 1.9406233336576406 #
straight-curve $-1 0 30.685760400544712 9.4556756115695659 -1 0 0 I I #
vertex $-1 $584 $797 #
point $-1 -18.372811564922202 24.863516152953324 4.2383948644325731 #
vertex $-1 $588 $798 #
point $-1 -11.431859767732206 24.863516152953324 4.2383948644325731 #
coedge $-1 $603 $602 $595 $734 forward $592 $-1 #
edge $-1 $735 62.417658110057808 $738 69.932710387969735 $733 $799 forward 7 unknown #
vertex $-1 $607 $800 #
straight-curve $-1 21.990913449059803 33.273820492391934 9.4556756115695606 0 1 0 I I #
edge $-1 $738 -15.04434527289073 $604 1.1512089205525839 $603 $801 forward 7 unknown #
vertex $-1 $737 $802 #
straight-curve $-1 21.990913449059803 -17.008868750125657 40.562973283117955 0 -0.77714595512881146 0.62932039886446345 I I #
point $-1 21.990913449059803 21.405443902145869 9.4556756115695677 #
point $-1 5.7953592556164892 30.685760400544709 1.9406233336576406 #
straight-curve $-1 0 30.685760400544712 9.4556756115695659 -1 0 0 I I #
vertex $-1 $610 $803 #
point $-1 11.922660453743148 24.863516152953324 4.2383948644325731 #
vertex $-1 $614 $804 #
point $-1 18.863612250933144 24.863516152953324 4.2383948644325731 #
coedge $-1 $629 $628 $621 $748 forward $618 $-1 #
edge $-1 $749 62.417658110057808 $752 69.932710387969735 $747 $805 forward 7 unknown #
vertex $-1 $633 $806 #
straight-curve $-1 52.286385467725154 33.273820492391934 9.4556756115695606 0 1 0 I I #
edge $-1 $752 -30.192081282223405 $630 -13.996527088780091 $629 $807 forward 7 unknown #
vertex $-1 $751 $808 #
straight-curve $-1 52.286385467725154 -17.008868750125657 40.562973283117955 0 -0.77714595512881146 0.62932039886446345 I I #
point $-1 52.286385467725154 21.405443902145869 9.4556756115695677 #
point $-1 36.09083127428184 30.685760400544709 1.9406233336576406 #
straight-curve $-1 0 30.685760400544712 9.4556756115695659 -1 0 0 I I #
vertex $-1 $636 $809 #
point $-1 42.218132472408499 24.863516152953324 4.2383948644325731 #
vertex $-1 $640 $810 #
point $-1 49.159084269598495 24.863516152953324 4.2383948644325731 #
coedge $-1 $647 $646 $654 $766 reversed $319 $-1 #
edge $-1 $650 43.571178755412653 $769 66.386303292947176 $647 $811 forward 7 unknown #
straight-curve $-1 43.571178755412653 -30.685760400544709 44.007910365995578 0 0 -1 I I #
point $-1 43.571178755412653 -30.685760400544712 9.4556756115695659 #
straight-curve $-1 27.489370512089955 -30.685760400544712 6.272843281251415 1 0 0 I I #
edge $-1 $769 -9.4556756115695659 $655 -6.272843281251415 $654 $812 forward 7 unknown #
point $-1 66.386303292947161 -30.685760400544712 6.272843281251415 #
point $-1 43.571178755412653 -30.685760400544712 6.272843281251415 #
vertex $-1 $659 $813 #
straight-curve $-1 66.386303292947176 0 9.4556756115695659 0 1 0 I I #
vertex $-1 $662 $814 #
point $-1 51.089785766136814 -26.940408954631117 5.9094821561259803 #
vertex $-1 $666 $815 #
point $-1 60.867696282223037 -26.940408954631117 5.9094821561259803 #
point $-1 66.386303292947176 30.685760400544712 -9.4556756115695659 #
point $-1 66.386303292947176 -30.685760400544712 -9.4556756115695659 #
straight-curve $-1 66.386303292947176 -30.685760400544712 0 0 0 -1 I I #
straight-curve $-1 66.386303292947176 30.685760400544712 0 0 0 -1 I I #
edge $-1 $703 -1.5 $692 1.5 $689 $816 forward 7 unknown #
straight-curve $-1 -77.977021804180154 -17.917131824358613 0 0 0 -1 I I #
straight-curve $-1 -72.181662548563665 -20.917131824358613 9.4556756115695659 1 0 0 I I #
point $-1 -77.977021804180154 -20.917131824358613 9.4556756115695659 #
point $-1 -77.977021804180154 -20.917131824358613 -9.4556756115695659 #
straight-curve $-1 -77.977021804180154 -19.417131824358613 -9.4556756115695659 0 1 0 I I #
point $-1 -77.977021804180154 -17.917131824358613 -9.4556756115695659 #
point $-1 -77.977021804180154 -17.917131824358613 9.4556756115695659 #
straight-curve $-1 -38.60003058827089 30.685760400544712 71.873333721627375 0 0 -1 I I #
point $-1 -38.60003058827089 30.685760400544712 9.4556756115695659 #
straight-curve $-1 -23.348903842496274 30.685760400544709 1.9406233336576406 -1 0 0 I I #
point $-1 -38.60003058827089 30.685760400544709 1.9406233336576406 #
point $-1 -50.168283583587538 23.919535554656626 3.0726759317393562 #
point $-1 -43.227331786397549 23.919535554656626 3.0726759317393562 #
straight-curve $-1 -8.3045585696055468 30.685760400544712 71.873333721627375 0 0 -1 I I #
point $-1 -8.3045585696055468 30.685760400544712 9.4556756115695659 #
straight-curve $-1 -8.201167833163602 30.685760400544709 1.9406233336576406 -1 0 0 I I #
point $-1 -8.3045585696055468 30.685760400544709 1.9406233336576406 #
point $-1 -19.872811564922202 23.919535554656626 3.0726759317393562 #
point $-1 -12.931859767732206 23.919535554656626 3.0726759317393562 #
straight-curve $-1 21.990913449059803 30.685760400544712 71.873333721627375 0 0 -1 I I #
point $-1 21.990913449059803 30.685760400544712 9.4556756115695659 #
straight-curve $-1 6.9465681761690732 30.685760400544709 1.9406233336576406 -1 0 0 I I #
point $-1 21.990913449059803 30.685760400544709 1.9406233336576406 #
point $-1 10.422660453743148 23.919535554656626 3.0726759317393562 #
point $-1 17.363612250933144 23.919535554656626 3.0726759317393562 #
straight-curve $-1 52.286385467725154 30.685760400544712 71.873333721627375 0 0 -1 I I #
point $-1 52.286385467725154 30.685760400544712 9.4556756115695659 #
straight-curve $-1 22.094304185501748 30.685760400544709 1.9406233336576406 -1 0 0 I I #
point $-1 52.286385467725154 30.685760400544709 1.9406233336576406 #
point $-1 40.718132472408499 23.919535554656626 3.0726759317393562 #
point $-1 47.659084269598495 23.919535554656626 3.0726759317393562 #
straight-curve $-1 0 -30.685760400544712 9.4556756115695659 1 0 0 I I #
straight-curve $-1 66.386303292947176 -30.685760400544712 0 0 0 -1 I I #
point $-1 66.386303292947176 -30.685760400544712 9.4556756115695659 #
point $-1 50.089785766136814 -26.152398192769979 5.2938206913654913 #
point $-1 59.867696282223037 -26.152398192769979 5.2938206913654913 #
straight-curve $-1 -77.977021804180154 -19.417131824358613 9.4556756115695659 0 -1 0 I I #
End-of-ACIS-data 