500 0 4 0           
7 Unknown 11 ACIS 5.0 NT 24 Thu Mar 25 22:49:33 1999 
-1 9.9999999999999995e-007 1e-010 
body $-1 $4 $-1 $5 #
body $-1 $6 $-1 $7 #
body $-1 $8 $-1 $9 #
body $-1 $10 $-1 $11 #
lump $-1 $-1 $12 $0 #
transform $-1 1 0 0 0 1 0 0 0 1 58.207342753379926 27.127424884391761 9.0829311164170914 1 rotate no_reflect no_shear #
lump $-1 $-1 $13 $1 #
transform $-1 1 0 0 0 1 0 0 0 1 58.207342753379926 27.127424884391761 9.0829311164170914 1 rotate no_reflect no_shear #
lump $-1 $-1 $14 $2 #
transform $-1 1 0 0 0 1 0 0 0 1 58.207342753379926 27.127424884391761 9.0829311164170914 1 rotate no_reflect no_shear #
lump $-1 $-1 $15 $3 #
transform $-1 1 0 0 0 1 0 0 0 1 58.207342753379926 27.127424884391761 9.0829311164170914 1 rotate no_reflect no_shear #
shell $-1 $-1 $-1 $16 $-1 $4 #
shell $-1 $-1 $-1 $17 $-1 $6 #
shell $-1 $-1 $-1 $18 $-1 $8 #
shell $-1 $-1 $-1 $19 $-1 $10 #
face $-1 $20 $21 $12 $-1 $22 forward single #
face $-1 $23 $24 $13 $-1 $25 forward single #
face $-1 $26 $27 $14 $-1 $28 reversed single #
face $-1 $29 $30 $15 $-1 $31 forward single #
face $-1 $32 $33 $12 $-1 $34 reversed single #
loop $-1 $-1 $35 $16 #
plane-surface $-1 0 0 9.0829311164170914 0 0 1 1 0 0 forward_v I I I I #
face $-1 $36 $37 $13 $-1 $38 reversed single #
loop $-1 $-1 $39 $17 #
plane-surface $-1 0 -22.833488395033797 -5.8886732219830353 0 0 1 1 0 0 forward_v I I I I #
face $-1 $40 $41 $14 $-1 $42 reversed single #
loop $-1 $-1 $43 $18 #
plane-surface $-1 23.977755688411385 23.503803839301064 161.26050870945829 0 -1 0 -0.54463904215088732 0 -0.83867056331134215 forward_v I I I I #
face $-1 $44 $45 $15 $-1 $46 forward single #
loop $-1 $47 $48 $19 #
cone-surface $-1 50.16864568059227 17.975606233820468 2.7787514903028958 -0.54463904215088732 0 -0.83867056331134215 1.6773411266226843 0 -1.0892780843017746 1 I I 0 1 2 forward I I I I #
face $-1 $49 $50 $12 $-1 $51 reversed single #
loop $-1 $-1 $52 $20 #
plane-surface $-1 0 0 -9.0829311164170914 0 0 1 1 0 0 forward_v I I I I #
coedge $-1 $53 $54 $55 $56 forward $21 $-1 #
face $-1 $57 $58 $13 $-1 $59 reversed single #
loop $-1 $-1 $60 $23 #
plane-surface $-1 0 -18.539551905675832 -7.4858021692000634 0 -1 0 0 0 -1 forward_v I I I I #
coedge $-1 $61 $62 $63 $64 reversed $24 $-1 #
face $-1 $65 $66 $14 $-1 $67 reversed single #
loop $-1 $-1 $68 $26 #
plane-surface $-1 -39.426227118287088 17.975606233820468 63.626938837791272 0.54463904215088732 0 0.83867056331134215 0.83867056331134215 0 -0.54463904215088732 forward_v I I I I #
coedge $-1 $69 $70 $71 $72 reversed $27 $-1 #
face $-1 $-1 $73 $15 $-1 $74 forward single #
loop $-1 $75 $76 $29 #
cone-surface $-1 48.406892045665153 17.975606233820468 0.065888843539513076 -0.54463904215088732 0 -0.83867056331134215 0.83867056331134215 0 -0.54463904215088732 1 I I -0.70710678118654746 0.70710678118654746 1 forward I I I I #
loop $-1 $-1 $77 $19 #
coedge $-1 $48 $48 $78 $79 reversed $30 $-1 #
face $-1 $80 $81 $12 $-1 $82 reversed single #
loop $-1 $-1 $83 $32 #
plane-surface $-1 0 -27.127424884391761 0 0 1 0 0 0 1 forward_v I I I I #
coedge $-1 $84 $85 $86 $87 forward $33 $-1 #
coedge $-1 $88 $35 $89 $90 forward $21 $-1 #
coedge $-1 $35 $88 $91 $92 forward $21 $-1 #
coedge $-1 $93 $94 $35 $56 reversed $95 $-1 #
edge $-1 $96 -27.127424884391761 $97 27.127424884391761 $55 $98 forward 7 unknown #
face $-1 $99 $100 $13 $-1 $101 reversed single #
loop $-1 $-1 $102 $36 #
plane-surface $-1 0 0 -9.0829311164170914 0 0 1 1 0 0 forward_v I I I I #
coedge $-1 $103 $104 $105 $106 reversed $37 $-1 #
coedge $-1 $107 $39 $104 $108 forward $24 $-1 #
coedge $-1 $39 $107 $109 $110 reversed $24 $-1 #
coedge $-1 $111 $105 $39 $64 forward $100 $-1 #
edge $-1 $112 7.122807708158934 $113 15.710680686874863 $63 $114 forward 7 unknown #
face $-1 $115 $116 $14 $-1 $117 reversed single #
loop $-1 $-1 $118 $40 #
plane-surface $-1 23.977755688411385 12.447408628339872 161.26050870945829 0 1 0 0.54463904215088732 0 0.83867056331134215 forward_v I I I I #
coedge $-1 $119 $120 $121 $122 reversed $41 $-1 #
coedge $-1 $70 $43 $123 $124 reversed $27 $-1 #
coedge $-1 $43 $69 $119 $125 reversed $27 $-1 #
coedge $-1 $121 $126 $43 $72 forward $127 $-1 #
edge $-1 $128 -46.21846490917423 $129 -32.575299949151429 $71 $130 forward 7 unknown #
loop $-1 $-1 $78 $44 #
plane-surface $-1 -39.426227118287088 17.975606233820468 63.626938837791272 0.54463904215088732 0 0.83867056331134215 0.83867056331134215 0 -0.54463904215088732 forward_v I I I I #
loop $-1 $-1 $131 $29 #
coedge $-1 $76 $76 $77 $132 reversed $45 $-1 #
coedge $-1 $77 $77 $76 $132 forward $47 $-1 #
coedge $-1 $78 $78 $48 $79 forward $73 $-1 #
edge $-1 $133 0 $133 6.2831853071796004 $78 $134 forward 7 unknown #
face $-1 $135 $136 $12 $-1 $137 reversed single #
loop $-1 $-1 $138 $49 #
plane-surface $-1 -58.207342753379926 0 0 1 0 0 0 0 -1 forward_v I I I I #
coedge $-1 $139 $91 $140 $141 forward $50 $-1 #
coedge $-1 $142 $52 $139 $143 forward $33 $-1 #
coedge $-1 $52 $142 $144 $145 forward $33 $-1 #
coedge $-1 $94 $93 $52 $87 reversed $95 $-1 #
edge $-1 $146 -27.127424884391761 $147 27.127424884391761 $86 $148 forward 7 unknown #
coedge $-1 $54 $53 $149 $150 forward $21 $-1 #
coedge $-1 $151 $152 $53 $90 reversed $136 $-1 #
edge $-1 $97 -58.207342753379926 $153 58.207342753379926 $89 $154 forward 7 unknown #
coedge $-1 $83 $155 $54 $92 reversed $50 $-1 #
edge $-1 $156 -58.207342753379926 $96 58.207342753379926 $91 $157 forward 7 unknown #
coedge $-1 $86 $55 $155 $158 forward $95 $-1 #
coedge $-1 $55 $86 $151 $159 reversed $95 $-1 #
loop $-1 $-1 $93 $135 #
vertex $-1 $56 $160 #
vertex $-1 $56 $161 #
straight-curve $-1 58.207342753379926 0 9.0829311164170914 0 1 0 I I #
face $-1 $162 $163 $13 $-1 $164 reversed single #
loop $-1 $-1 $105 $57 #
plane-surface $-1 58.207342753379926 0 0 -1 0 0 0 0 1 forward_v I I I I #
coedge $-1 $165 $166 $103 $167 forward $58 $-1 #
coedge $-1 $168 $60 $102 $167 reversed $37 $-1 #
coedge $-1 $60 $168 $61 $108 reversed $37 $-1 #
coedge $-1 $63 $169 $60 $106 forward $100 $-1 #
edge $-1 $170 -5.3400300318170597 $112 -2.1457721373830037 $105 $171 forward 7 unknown #
coedge $-1 $62 $61 $172 $173 reversed $24 $-1 #
edge $-1 $112 -58.207342753379926 $174 58.207342753379926 $104 $175 forward 7 unknown #
coedge $-1 $176 $177 $62 $110 forward $163 $-1 #
edge $-1 $113 -58.207342753379926 $178 58.207342753379926 $109 $179 forward 7 unknown #
coedge $-1 $169 $63 $177 $180 forward $100 $-1 #
vertex $-1 $64 $181 #
vertex $-1 $180 $182 #
straight-curve $-1 58.207342753379926 -11.416744197516898 -5.8886732219830353 0 -1 0 I I #
face $-1 $-1 $127 $14 $-1 $183 forward single #
loop $-1 $-1 $184 $65 #
plane-surface $-1 58.207342753379926 0 0 -1 0 0 0 0 1 forward_v I I I I #
coedge $-1 $185 $186 $187 $188 reversed $66 $-1 #
coedge $-1 $189 $68 $70 $125 forward $41 $-1 #
coedge $-1 $68 $189 $185 $190 forward $41 $-1 #
coedge $-1 $187 $71 $68 $122 forward $127 $-1 #
edge $-1 $129 -14.51600072239083 $191 -3.459605511429638 $121 $192 forward 7 unknown #
coedge $-1 $193 $194 $69 $124 forward $116 $-1 #
edge $-1 $195 -80.407298323636354 $128 -71.54732323831206 $123 $196 forward 7 unknown #
edge $-1 $129 100.1470763204362 $195 116.41468550675984 $70 $197 forward 7 unknown #
coedge $-1 $71 $187 $193 $198 forward $127 $-1 #
loop $-1 $-1 $187 $115 #
vertex $-1 $124 $199 #
vertex $-1 $72 $200 #
straight-curve $-1 11.988877844205692 23.503803839301064 9.0829311164170861 -1 0 0 I I #
coedge $-1 $131 $131 $-1 $201 reversed $75 $-1 #
edge $-1 $202 0 $202 6.2831853071796004 $76 $203 forward 7 unknown #
vertex $-1 $79 $204 #
ellipse-curve $-1 51.385760273368511 17.975606233820468 4.6529435737549552 0.54463904215088732 0 0.83867056331134215 1.6773411266226843 0 -1.0892780843017746 1 I I #
face $-1 $-1 $95 $12 $-1 $205 reversed single #
loop $-1 $-1 $151 $80 #
plane-surface $-1 0 27.127424884391761 0 0 -1 0 0 0 -1 forward_v I I I I #
coedge $-1 $206 $149 $152 $207 forward $81 $-1 #
coedge $-1 $155 $83 $84 $143 reversed $50 $-1 #
coedge $-1 $149 $206 $83 $141 reversed $81 $-1 #
edge $-1 $156 -9.0829311164170914 $208 9.0829311164170914 $140 $209 forward 7 unknown #
coedge $-1 $85 $84 $206 $210 forward $33 $-1 #
edge $-1 $147 -58.207342753379926 $208 58.207342753379926 $139 $211 forward 7 unknown #
coedge $-1 $152 $151 $85 $145 reversed $136 $-1 #
edge $-1 $212 -58.207342753379926 $146 58.207342753379926 $144 $213 forward 7 unknown #
vertex $-1 $87 $214 #
vertex $-1 $158 $215 #
straight-curve $-1 58.207342753379926 0 -9.0829311164170914 0 -1 0 I I #
coedge $-1 $138 $140 $88 $150 reversed $81 $-1 #
edge $-1 $153 -27.127424884391761 $156 27.127424884391761 $149 $216 forward 7 unknown #
coedge $-1 $144 $89 $94 $159 forward $136 $-1 #
coedge $-1 $89 $144 $138 $207 reversed $136 $-1 #
vertex $-1 $90 $217 #
straight-curve $-1 0 27.127424884391761 9.0829311164170914 -1 0 0 I I #
coedge $-1 $91 $139 $93 $158 reversed $50 $-1 #
vertex $-1 $150 $218 #
straight-curve $-1 0 -27.127424884391761 9.0829311164170914 1 0 0 I I #
edge $-1 $96 -9.0829311164170914 $147 9.0829311164170914 $93 $219 forward 7 unknown #
edge $-1 $97 -9.0829311164170914 $146 9.0829311164170914 $94 $220 forward 7 unknown #
point $-1 58.207342753379926 -27.127424884391761 9.0829311164170914 #
point $-1 58.207342753379926 27.127424884391761 9.0829311164170914 #
face $-1 $-1 $221 $13 $-1 $222 reversed single #
loop $-1 $-1 $109 $99 #
plane-surface $-1 0 -27.127424884391761 0 0 1 0 0 0 1 forward_v I I I I #
coedge $-1 $223 $102 $169 $224 forward $58 $-1 #
coedge $-1 $102 $223 $225 $226 forward $58 $-1 #
edge $-1 $227 -58.207342753379926 $170 58.207342753379926 $102 $228 forward 7 unknown #
coedge $-1 $104 $103 $229 $230 reversed $37 $-1 #
coedge $-1 $105 $111 $165 $224 reversed $100 $-1 #
vertex $-1 $224 $231 #
straight-curve $-1 58.207342753379926 -18.539551905675832 -3.7429010846000317 0 0 1 I I #
coedge $-1 $229 $232 $107 $173 forward $221 $-1 #
edge $-1 $178 -15.710680686874863 $174 -7.122807708158934 $172 $233 forward 7 unknown #
vertex $-1 $173 $234 #
straight-curve $-1 0 -18.539551905675832 -5.8886732219830353 -1 0 0 I I #
coedge $-1 $235 $109 $232 $236 forward $163 $-1 #
coedge $-1 $109 $235 $111 $180 reversed $163 $-1 #
vertex $-1 $236 $237 #
straight-curve $-1 0 -27.127424884391761 -5.8886732219830353 -1 0 0 I I #
edge $-1 $113 5.8886732219830353 $238 9.0829311164170914 $111 $239 forward 7 unknown #
point $-1 58.207342753379926 -18.539551905675832 -5.8886732219830353 #
point $-1 58.207342753379926 -27.127424884391761 -5.8886732219830353 #
plane-surface $-1 0 0 9.0829311164170914 0 0 1 1 0 0 forward_v I I I I #
coedge $-1 $194 $193 $186 $240 forward $116 $-1 #
coedge $-1 $186 $118 $120 $190 reversed $66 $-1 #
coedge $-1 $118 $185 $184 $240 reversed $66 $-1 #
coedge $-1 $126 $121 $118 $188 forward $127 $-1 #
edge $-1 $191 32.575299949151429 $241 46.21846490917423 $187 $242 forward 7 unknown #
coedge $-1 $120 $119 $194 $243 reversed $41 $-1 #
edge $-1 $244 -116.41468550675984 $191 -100.1470763204362 $185 $245 forward 7 unknown #
vertex $-1 $122 $246 #
straight-curve $-1 44.564177793357118 8.9878031169102339 9.0829311164170932 0 -1 0 I I #
coedge $-1 $184 $123 $126 $198 reversed $116 $-1 #
coedge $-1 $123 $184 $189 $243 forward $116 $-1 #
vertex $-1 $124 $247 #
straight-curve $-1 58.207342753379926 23.503803839301064 80.630254354729146 0 0 1 I I #
straight-curve $-1 -39.426227118287088 23.503803839301064 63.626938837791272 0.83867056331134215 0 -0.54463904215088732 I I #
edge $-1 $241 12.447408628339872 $128 23.503803839301064 $193 $248 forward 7 unknown #
point $-1 58.207342753379926 23.503803839301064 9.0829311164170914 #
point $-1 44.564177793357118 23.503803839301064 9.0829311164170932 #
edge $-1 $249 1 $249 0 $131 $-1 forward 7 unknown #
vertex $-1 $132 $250 #
ellipse-curve $-1 48.951531087816036 17.975606233820468 0.90455940685085523 0.54463904215088732 0 0.83867056331134215 1.6773411266226843 0 -1.0892780843017746 1 I I #
point $-1 53.063101399991183 17.975606233820468 3.5636654894531619 #
plane-surface $-1 58.207342753379926 0 0 -1 0 0 0 0 1 forward_v I I I I #
coedge $-1 $140 $138 $142 $210 reversed $81 $-1 #
edge $-1 $153 -9.0829311164170914 $212 9.0829311164170914 $152 $251 forward 7 unknown #
vertex $-1 $210 $252 #
straight-curve $-1 -58.207342753379926 -27.127424884391761 0 0 0 -1 I I #
edge $-1 $208 -27.127424884391761 $212 27.127424884391761 $206 $253 forward 7 unknown #
straight-curve $-1 0 -27.127424884391761 -9.0829311164170914 -1 0 0 I I #
vertex $-1 $145 $254 #
straight-curve $-1 0 27.127424884391761 -9.0829311164170914 1 0 0 I I #
point $-1 58.207342753379926 27.127424884391761 -9.0829311164170914 #
point $-1 58.207342753379926 -27.127424884391761 -9.0829311164170914 #
straight-curve $-1 -58.207342753379926 0 9.0829311164170914 0 -1 0 I I #
point $-1 -58.207342753379926 27.127424884391761 9.0829311164170914 #
point $-1 -58.207342753379926 -27.127424884391761 9.0829311164170914 #
straight-curve $-1 58.207342753379926 -27.127424884391761 0 0 0 -1 I I #
straight-curve $-1 58.207342753379926 27.127424884391761 0 0 0 -1 I I #
loop $-1 $-1 $229 $162 #
plane-surface $-1 -58.207342753379926 0 0 1 0 0 0 0 -1 forward_v I I I I #
coedge $-1 $166 $165 $235 $255 forward $58 $-1 #
edge $-1 $170 18.539551905675832 $238 27.127424884391761 $169 $256 forward 7 unknown #
coedge $-1 $232 $229 $166 $226 reversed $221 $-1 #
edge $-1 $257 -27.127424884391761 $227 -18.539551905675832 $225 $258 forward 7 unknown #
vertex $-1 $230 $259 #
straight-curve $-1 0 -18.539551905675832 -9.0829311164170914 1 0 0 I I #
coedge $-1 $225 $172 $168 $230 forward $221 $-1 #
edge $-1 $174 2.1457721373830037 $227 5.3400300318170597 $229 $260 forward 7 unknown #
point $-1 58.207342753379926 -18.539551905675832 -9.0829311164170914 #
coedge $-1 $172 $225 $176 $236 reversed $221 $-1 #
straight-curve $-1 -58.207342753379926 -11.416744197516898 -5.8886732219830353 0 1 0 I I #
point $-1 -58.207342753379926 -18.539551905675832 -5.8886732219830353 #
coedge $-1 $177 $176 $223 $255 reversed $163 $-1 #
edge $-1 $178 5.8886732219830353 $257 9.0829311164170914 $232 $261 forward 7 unknown #
point $-1 -58.207342753379926 -27.127424884391761 -5.8886732219830353 #
vertex $-1 $180 $262 #
straight-curve $-1 58.207342753379926 -27.127424884391761 0 0 0 -1 I I #
edge $-1 $241 71.54732323831206 $244 80.407298323636354 $184 $263 forward 7 unknown #
vertex $-1 $198 $264 #
straight-curve $-1 11.988877844205692 12.447408628339872 9.0829311164170861 1 0 0 I I #
edge $-1 $244 3.459605511429638 $195 14.51600072239083 $194 $265 forward 7 unknown #
vertex $-1 $243 $266 #
straight-curve $-1 -39.426227118287088 12.447408628339872 63.626938837791272 -0.83867056331134215 0 0.54463904215088732 I I #
point $-1 44.564177793357118 12.447408628339872 9.0829311164170932 #
point $-1 58.207342753379933 23.503803839301064 0.22295603109279938 #
straight-curve $-1 58.207342753379926 0 9.0829311164170914 0 1 0 I I #
vertex $-1 $201 $267 #
point $-1 50.628872214438722 17.975606233820468 -0.18471867745091941 #
straight-curve $-1 -58.207342753379926 27.127424884391761 0 0 0 -1 I I #
point $-1 -58.207342753379926 -27.127424884391761 -9.0829311164170914 #
straight-curve $-1 -58.207342753379926 0 -9.0829311164170914 0 1 0 I I #
point $-1 -58.207342753379926 27.127424884391761 -9.0829311164170914 #
edge $-1 $238 -58.207342753379926 $257 58.207342753379926 $235 $268 forward 7 unknown #
straight-curve $-1 58.207342753379926 0 -9.0829311164170914 0 -1 0 I I #
vertex $-1 $226 $269 #
straight-curve $-1 -58.207342753379926 0 -9.0829311164170914 0 1 0 I I #
point $-1 -58.207342753379926 -18.539551905675832 -9.0829311164170914 #
straight-curve $-1 -58.207342753379926 -18.539551905675832 -3.7429010846000317 0 0 -1 I I #
straight-curve $-1 -58.207342753379926 -27.127424884391761 0 0 0 -1 I I #
point $-1 58.207342753379926 -27.127424884391761 -9.0829311164170914 #
straight-curve $-1 58.207342753379926 12.447408628339872 80.630254354729146 0 0 -1 I I #
point $-1 58.207342753379926 12.447408628339872 9.0829311164170914 #
straight-curve $-1 58.207342753379926 8.9878031169102339 0.22295603109280648 0 1 0 I I #
point $-1 58.207342753379933 12.447408628339872 0.22295603109279938 #
point $-1 47.862253003514269 17.975606233820468 -0.77278171977182908 #
straight-curve $-1 0 -27.127424884391761 -9.0829311164170914 -1 0 0 I I #
point $-1 -58.207342753379926 -27.127424884391761 -9.0829311164170914 #
End-of-ACIS-data 