500 0 14 0           
7 Unknown 11 ACIS 5.0 NT 24 Fri Mar 26 17:04:46 1999 
-1 9.9999999999999995e-007 1e-010 
body $-1 $14 $-1 $15 #
body $-1 $16 $-1 $17 #
body $-1 $18 $-1 $19 #
body $-1 $20 $-1 $21 #
body $-1 $22 $-1 $23 #
body $-1 $24 $-1 $25 #
body $-1 $26 $-1 $27 #
body $-1 $28 $-1 $29 #
body $-1 $30 $-1 $31 #
body $-1 $32 $-1 $33 #
body $-1 $34 $-1 $35 #
body $-1 $36 $-1 $37 #
body $-1 $38 $-1 $39 #
body $-1 $40 $-1 $41 #
lump $-1 $-1 $42 $0 #
transform $-1 1 0 0 0 1 0 0 0 1 47.016815698721274 29.561892821123852 11.676528148362543 1 rotate no_reflect no_shear #
lump $-1 $-1 $43 $1 #
transform $-1 1 0 0 0 1 0 0 0 1 47.016815698721274 29.561892821123852 11.676528148362543 1 rotate no_reflect no_shear #
lump $-1 $-1 $44 $2 #
transform $-1 1 0 0 0 1 0 0 0 1 47.016815698721274 29.561892821123852 11.676528148362543 1 rotate no_reflect no_shear #
lump $-1 $-1 $45 $3 #
transform $-1 1 0 0 0 1 0 0 0 1 47.016815698721274 29.561892821123852 11.676528148362543 1 rotate no_reflect no_shear #
lump $-1 $-1 $46 $4 #
transform $-1 1 0 0 0 1 0 0 0 1 47.016815698721274 29.561892821123852 11.676528148362543 1 rotate no_reflect no_shear #
lump $-1 $-1 $47 $5 #
transform $-1 1 0 0 0 1 0 0 0 1 47.016815698721274 29.561892821123852 11.676528148362543 1 rotate no_reflect no_shear #
lump $-1 $-1 $48 $6 #
transform $-1 1 0 0 0 1 0 0 0 1 47.016815698721274 29.561892821123852 11.676528148362543 1 rotate no_reflect no_shear #
lump $-1 $-1 $49 $7 #
transform $-1 1 0 0 0 1 0 0 0 1 47.016815698721274 29.561892821123852 11.676528148362543 1 rotate no_reflect no_shear #
lump $-1 $-1 $50 $8 #
transform $-1 1 0 0 0 1 0 0 0 1 47.016815698721274 29.561892821123852 11.676528148362543 1 rotate no_reflect no_shear #
lump $-1 $-1 $51 $9 #
transform $-1 1 0 0 0 1 0 0 0 1 47.016815698721274 29.561892821123852 11.676528148362543 1 rotate no_reflect no_shear #
lump $-1 $-1 $52 $10 #
transform $-1 1 0 0 0 1 0 0 0 1 47.016815698721274 29.561892821123852 11.676528148362543 1 rotate no_reflect no_shear #
lump $-1 $-1 $53 $11 #
transform $-1 1 0 0 0 1 0 0 0 1 47.016815698721274 29.561892821123852 11.676528148362543 1 rotate no_reflect no_shear #
lump $-1 $-1 $54 $12 #
transform $-1 1 0 0 0 1 0 0 0 1 47.016815698721274 29.561892821123852 11.676528148362543 1 rotate no_reflect no_shear #
lump $-1 $-1 $55 $13 #
transform $-1 1 0 0 0 1 0 0 0 1 47.016815698721274 29.561892821123852 11.676528148362543 1 rotate no_reflect no_shear #
shell $-1 $-1 $-1 $56 $-1 $14 #
shell $-1 $-1 $-1 $57 $-1 $16 #
shell $-1 $-1 $-1 $58 $-1 $18 #
shell $-1 $-1 $-1 $59 $-1 $20 #
shell $-1 $-1 $-1 $60 $-1 $22 #
shell $-1 $-1 $-1 $61 $-1 $24 #
shell $-1 $-1 $-1 $62 $-1 $26 #
shell $-1 $-1 $-1 $63 $-1 $28 #
shell $-1 $-1 $-1 $64 $-1 $30 #
shell $-1 $-1 $-1 $65 $-1 $32 #
shell $-1 $-1 $-1 $66 $-1 $34 #
shell $-1 $-1 $-1 $67 $-1 $36 #
shell $-1 $-1 $-1 $68 $-1 $38 #
shell $-1 $-1 $-1 $69 $-1 $40 #
face $-1 $70 $71 $42 $-1 $72 forward single #
face $-1 $73 $74 $43 $-1 $75 forward single #
face $-1 $76 $77 $44 $-1 $78 forward single #
face $-1 $79 $80 $45 $-1 $81 reversed single #
face $-1 $82 $83 $46 $-1 $84 forward single #
face $-1 $85 $86 $47 $-1 $87 forward single #
face $-1 $88 $89 $48 $-1 $90 reversed single #
face $-1 $91 $92 $49 $-1 $93 forward single #
face $-1 $94 $95 $50 $-1 $96 forward single #
face $-1 $97 $98 $51 $-1 $99 forward single #
face $-1 $100 $101 $52 $-1 $102 reversed single #
face $-1 $103 $104 $53 $-1 $105 forward single #
face $-1 $106 $107 $54 $-1 $108 forward single #
face $-1 $109 $110 $55 $-1 $111 forward single #
face $-1 $112 $113 $42 $-1 $114 reversed single #
loop $-1 $-1 $115 $56 #
plane-surface $-1 0 0 11.676528148362543 0 0 1 1 0 0 forward_v I I I I #
face $-1 $116 $117 $43 $-1 $118 reversed single #
loop $-1 $-1 $119 $57 #
plane-surface $-1 0 -23.020521225382133 1.810424388981307 0 0 1 1 0 0 forward_v I I I I #
face $-1 $120 $121 $44 $-1 $122 reversed single #
loop $-1 $-1 $123 $58 #
plane-surface $-1 0 23.020521225382137 1.810424388981307 0 0 1 1 0 0 forward_v I I I I #
face $-1 $124 $125 $45 $-1 $126 reversed single #
loop $-1 $-1 $127 $59 #
plane-surface $-1 14.845163221645983 7.986725122647627 136.51046287689908 0 1 0 0.51503808176128008 0 0.85716729658548041 forward_v I I I I #
face $-1 $128 $129 $46 $-1 $130 forward single #
loop $-1 $131 $132 $60 #
cone-surface $-1 43.264709218181729 9.7579582258714943 9.1481844898143283 -0.51503808176128008 0 -0.85716729658548041 0.4285836482927402 0 -0.25751904088064004 1 I I 0 1 0.5 forward I I I I #
face $-1 $133 $134 $47 $-1 $135 forward single #
loop $-1 $136 $137 $61 #
cone-surface $-1 43.264709218181729 12.414807880707297 9.1481844898143283 -0.51503808176128008 0 -0.85716729658548041 0.4285836482927402 0 -0.25751904088064004 1 I I 0 1 0.5 forward I I I I #
face $-1 $138 $139 $48 $-1 $140 reversed single #
loop $-1 $-1 $141 $62 #
plane-surface $-1 -114.65895010801115 -4.9024513875408608 65.338195213844557 0 -1 0 0.71933980857756763 0 -0.69465836192734942 forward_v I I I I #
face $-1 $142 $143 $49 $-1 $144 forward single #
loop $-1 $145 $146 $63 #
cone-surface $-1 -40.988909598297809 -10.8292718540789 5.462255432829707 0.71933980857756763 0 -0.69465836192734942 0.34732918096367471 0 0.35966990428878381 1 I I 0 1 0.5 forward I I I I #
face $-1 $147 $148 $50 $-1 $149 forward single #
loop $-1 $150 $151 $64 #
cone-surface $-1 -40.988909598297809 -8.6067141791271347 5.462255432829707 0.71933980857756763 0 -0.69465836192734942 0.34732918096367471 0 0.35966990428878381 1 I I 0 1 0.5 forward I I I I #
face $-1 $152 $153 $51 $-1 $154 forward single #
loop $-1 $155 $156 $65 #
cone-surface $-1 -40.988909598297809 -6.384156504175369 5.462255432829707 0.71933980857756763 0 -0.69465836192734942 0.34732918096367471 0 0.35966990428878381 1 I I 0 1 0.5 forward I I I I #
face $-1 $157 $158 $52 $-1 $159 reversed single #
loop $-1 $-1 $160 $66 #
plane-surface $-1 -114.65895010801115 11.57669824209955 65.338195213844557 0 -1 0 0.71933980857756763 0 -0.69465836192734942 forward_v I I I I #
face $-1 $161 $162 $53 $-1 $163 forward single #
loop $-1 $164 $165 $67 #
cone-surface $-1 -40.988909598297809 5.6498777755615173 5.462255432829707 0.71933980857756763 0 -0.69465836192734942 0.34732918096367471 0 0.35966990428878381 1 I I 0 1 0.5 forward I I I I #
face $-1 $166 $167 $54 $-1 $168 forward single #
loop $-1 $169 $170 $68 #
cone-surface $-1 -40.988909598297809 7.8724354505132759 5.462255432829707 0.71933980857756763 0 -0.69465836192734942 0.34732918096367471 0 0.35966990428878381 1 I I 0 1 0.5 forward I I I I #
face $-1 $171 $172 $55 $-1 $173 forward single #
loop $-1 $174 $175 $69 #
cone-surface $-1 -40.988909598297809 10.094993125465049 5.462255432829707 0.71933980857756763 0 -0.69465836192734942 0.34732918096367471 0 0.35966990428878381 1 I I 0 1 0.5 forward I I I I #
face $-1 $176 $177 $42 $-1 $178 reversed single #
loop $-1 $-1 $179 $70 #
plane-surface $-1 0 0 -11.676528148362543 0 0 1 1 0 0 forward_v I I I I #
coedge $-1 $180 $181 $182 $183 forward $71 $-1 #
face $-1 $184 $185 $43 $-1 $186 reversed single #
loop $-1 $-1 $187 $73 #
plane-surface $-1 0 -23.020521225382133 -1.2931723472273404 0 0 1 1 0 0 forward_v I I I I #
coedge $-1 $188 $189 $190 $191 reversed $74 $-1 #
face $-1 $192 $193 $44 $-1 $194 reversed single #
loop $-1 $-1 $195 $76 #
plane-surface $-1 0 23.020521225382137 -1.2931723472273404 0 0 1 1 0 0 forward_v I I I I #
coedge $-1 $196 $197 $198 $199 reversed $77 $-1 #
face $-1 $200 $201 $45 $-1 $202 reversed single #
loop $-1 $-1 $203 $79 #
plane-surface $-1 -33.585737914340108 11.086383053289392 55.907909263837709 0.51503808176128008 0 0.85716729658548041 0.85716729658548041 0 -0.51503808176128008 forward_v I I I I #
coedge $-1 $204 $205 $206 $207 reversed $80 $-1 #
face $-1 $-1 $208 $46 $-1 $209 forward single #
loop $-1 $210 $211 $82 #
cone-surface $-1 42.878430656860772 9.7579582258714943 8.5053090173752182 -0.51503808176128008 0 -0.85716729658548041 0.2142918241463701 0 -0.12875952044032002 1 I I -0.70710678118654746 0.70710678118654746 0.25 forward I I I I #
loop $-1 $-1 $212 $60 #
coedge $-1 $132 $132 $213 $214 reversed $83 $-1 #
face $-1 $-1 $215 $47 $-1 $216 forward single #
loop $-1 $217 $218 $85 #
cone-surface $-1 42.878430656860772 12.414807880707297 8.5053090173752182 -0.51503808176128008 0 -0.85716729658548041 0.2142918241463701 0 -0.12875952044032002 1 I I -0.70710678118654746 0.70710678118654746 0.25 forward I I I I #
loop $-1 $-1 $219 $61 #
coedge $-1 $137 $137 $220 $221 reversed $86 $-1 #
face $-1 $222 $223 $48 $-1 $224 reversed single #
loop $-1 $-1 $225 $88 #
plane-surface $-1 -47.016815698721274 -8.6067141791271347 0.016946861216936782 -0.71933980857756763 0 0.69465836192734942 0.69465836192734942 0 0.71933980857756763 forward_v I I I I #
coedge $-1 $226 $227 $228 $229 reversed $89 $-1 #
face $-1 $-1 $230 $49 $-1 $231 forward single #
loop $-1 $232 $233 $91 #
cone-surface $-1 -40.41093179607978 -10.8292718540789 4.9041087703878361 0.71933980857756763 0 -0.69465836192734942 0.17366459048183736 0 0.17983495214439191 1 I I -0.70710678118654746 0.70710678118654746 0.25 forward I I I I #
loop $-1 $-1 $234 $63 #
coedge $-1 $146 $146 $235 $236 reversed $92 $-1 #
face $-1 $-1 $237 $50 $-1 $238 forward single #
loop $-1 $239 $240 $94 #
cone-surface $-1 -40.41093179607978 -8.6067141791271347 4.9041087703878361 0.71933980857756763 0 -0.69465836192734942 0.17366459048183736 0 0.17983495214439191 1 I I -0.70710678118654746 0.70710678118654746 0.25 forward I I I I #
loop $-1 $-1 $241 $64 #
coedge $-1 $151 $151 $242 $243 reversed $95 $-1 #
face $-1 $-1 $244 $51 $-1 $245 forward single #
loop $-1 $246 $247 $97 #
cone-surface $-1 -40.41093179607978 -6.384156504175369 4.9041087703878361 0.71933980857756763 0 -0.69465836192734942 0.17366459048183736 0 0.17983495214439191 1 I I -0.70710678118654746 0.70710678118654746 0.25 forward I I I I #
loop $-1 $-1 $248 $65 #
coedge $-1 $156 $156 $249 $250 reversed $98 $-1 #
face $-1 $251 $252 $52 $-1 $253 reversed single #
loop $-1 $-1 $254 $100 #
plane-surface $-1 -47.016815698721274 7.8724354505132759 0.016946861216936782 -0.71933980857756763 0 0.69465836192734942 0.69465836192734942 0 0.71933980857756763 forward_v I I I I #
coedge $-1 $255 $256 $257 $258 reversed $101 $-1 #
face $-1 $-1 $259 $53 $-1 $260 forward single #
loop $-1 $261 $262 $103 #
cone-surface $-1 -40.41093179607978 5.6498777755615173 4.9041087703878361 0.71933980857756763 0 -0.69465836192734942 0.17366459048183736 0 0.17983495214439191 1 I I -0.70710678118654746 0.70710678118654746 0.25 forward I I I I #
loop $-1 $-1 $263 $67 #
coedge $-1 $165 $165 $264 $265 reversed $104 $-1 #
face $-1 $-1 $266 $54 $-1 $267 forward single #
loop $-1 $268 $269 $106 #
cone-surface $-1 -40.41093179607978 7.8724354505132759 4.9041087703878361 0.71933980857756763 0 -0.69465836192734942 0.17366459048183736 0 0.17983495214439191 1 I I -0.70710678118654746 0.70710678118654746 0.25 forward I I I I #
loop $-1 $-1 $270 $68 #
coedge $-1 $170 $170 $271 $272 reversed $107 $-1 #
face $-1 $-1 $273 $55 $-1 $274 forward single #
loop $-1 $275 $276 $109 #
cone-surface $-1 -40.41093179607978 10.094993125465049 4.9041087703878361 0.71933980857756763 0 -0.69465836192734942 0.17366459048183736 0 0.17983495214439191 1 I I -0.70710678118654746 0.70710678118654746 0.25 forward I I I I #
loop $-1 $-1 $277 $69 #
coedge $-1 $175 $175 $278 $279 reversed $110 $-1 #
face $-1 $280 $281 $42 $-1 $282 reversed single #
loop $-1 $-1 $283 $112 #
plane-surface $-1 0 -29.561892821123852 0 0 1 0 0 0 1 forward_v I I I I #
coedge $-1 $284 $285 $286 $287 forward $113 $-1 #
coedge $-1 $288 $115 $289 $290 forward $71 $-1 #
coedge $-1 $115 $288 $291 $292 forward $71 $-1 #
coedge $-1 $293 $294 $115 $183 reversed $295 $-1 #
edge $-1 $296 -29.561892821123852 $297 29.561892821123852 $182 $298 forward 7 unknown #
face $-1 $299 $300 $43 $-1 $301 reversed single #
loop $-1 $-1 $302 $116 #
plane-surface $-1 0 -16.479149629640414 0.25862602087698328 0 -1 0 0 0 -1 forward_v I I I I #
coedge $-1 $303 $304 $305 $306 reversed $117 $-1 #
coedge $-1 $307 $119 $308 $309 forward $74 $-1 #
coedge $-1 $119 $307 $310 $311 reversed $74 $-1 #
coedge $-1 $312 $313 $119 $191 forward $314 $-1 #
edge $-1 $315 4.9688890169493476 $316 18.051632208432785 $190 $317 forward 7 unknown #
face $-1 $318 $319 $44 $-1 $320 reversed single #
loop $-1 $-1 $321 $120 #
plane-surface $-1 0 16.479149629640418 0.25862602087698328 0 1 0 0 0 1 forward_v I I I I #
coedge $-1 $322 $323 $324 $325 reversed $121 $-1 #
coedge $-1 $326 $123 $327 $328 reversed $77 $-1 #
coedge $-1 $123 $326 $329 $330 forward $77 $-1 #
coedge $-1 $331 $332 $123 $199 forward $319 $-1 #
edge $-1 $333 -18.051632208432785 $334 -4.9688890169493494 $198 $335 forward 7 unknown #
face $-1 $336 $337 $45 $-1 $338 forward single #
loop $-1 $-1 $339 $124 #
plane-surface $-1 14.845163221645983 14.186040983931157 136.51046287689908 0 -1 0 -0.51503808176128008 0 -0.85716729658548041 forward_v I I I I #
coedge $-1 $340 $341 $342 $343 reversed $125 $-1 #
coedge $-1 $205 $127 $344 $345 reversed $80 $-1 #
coedge $-1 $127 $204 $340 $346 reversed $80 $-1 #
coedge $-1 $342 $347 $127 $207 forward $348 $-1 #
edge $-1 $349 56.578703290086999 $350 60.77822331059793 $206 $351 forward 7 unknown #
loop $-1 $-1 $213 $128 #
plane-surface $-1 -33.585737914340108 11.086383053289392 55.907909263837709 0.51503808176128008 0 0.85716729658548041 0.85716729658548041 0 -0.51503808176128008 forward_v I I I I #
loop $-1 $-1 $352 $82 #
coedge $-1 $211 $211 $212 $353 reversed $129 $-1 #
coedge $-1 $212 $212 $211 $353 forward $131 $-1 #
coedge $-1 $213 $213 $132 $214 forward $208 $-1 #
edge $-1 $354 0 $354 6.2831853071796004 $213 $355 forward 7 unknown #
loop $-1 $-1 $220 $133 #
plane-surface $-1 -33.585737914340108 11.086383053289392 55.907909263837709 0.51503808176128008 0 0.85716729658548041 0.85716729658548041 0 -0.51503808176128008 forward_v I I I I #
loop $-1 $-1 $356 $85 #
coedge $-1 $218 $218 $219 $357 reversed $134 $-1 #
coedge $-1 $219 $219 $218 $357 forward $136 $-1 #
coedge $-1 $220 $220 $137 $221 forward $215 $-1 #
edge $-1 $358 0 $358 6.2831853071796004 $220 $359 forward 7 unknown #
face $-1 $360 $361 $48 $-1 $362 reversed single #
loop $-1 $-1 $363 $138 #
plane-surface $-1 -114.65895010801115 -12.310976970713408 65.338195213844557 0 1 0 -0.71933980857756763 0 0.69465836192734942 forward_v I I I I #
coedge $-1 $364 $365 $366 $367 reversed $139 $-1 #
coedge $-1 $227 $141 $368 $369 reversed $89 $-1 #
coedge $-1 $141 $226 $364 $370 reversed $89 $-1 #
coedge $-1 $366 $371 $141 $229 forward $361 $-1 #
edge $-1 $372 20.992569458559736 $373 32.652150745705342 $228 $374 forward 7 unknown #
loop $-1 $-1 $235 $142 #
plane-surface $-1 -47.016815698721274 -8.6067141791271347 0.016946861216936782 -0.71933980857756763 0 0.69465836192734942 0.69465836192734942 0 0.71933980857756763 forward_v I I I I #
loop $-1 $-1 $375 $91 #
coedge $-1 $233 $233 $234 $376 reversed $143 $-1 #
coedge $-1 $234 $234 $233 $376 forward $145 $-1 #
coedge $-1 $235 $235 $146 $236 forward $230 $-1 #
edge $-1 $377 0 $377 6.2831853071796004 $235 $378 forward 7 unknown #
loop $-1 $-1 $242 $147 #
plane-surface $-1 -47.016815698721274 -8.6067141791271347 0.016946861216936782 -0.71933980857756763 0 0.69465836192734942 0.69465836192734942 0 0.71933980857756763 forward_v I I I I #
loop $-1 $-1 $379 $94 #
coedge $-1 $240 $240 $241 $380 reversed $148 $-1 #
coedge $-1 $241 $241 $240 $380 forward $150 $-1 #
coedge $-1 $242 $242 $151 $243 forward $237 $-1 #
edge $-1 $381 0 $381 6.2831853071796004 $242 $382 forward 7 unknown #
loop $-1 $-1 $249 $152 #
plane-surface $-1 -47.016815698721274 -8.6067141791271347 0.016946861216936782 -0.71933980857756763 0 0.69465836192734942 0.69465836192734942 0 0.71933980857756763 forward_v I I I I #
loop $-1 $-1 $383 $97 #
coedge $-1 $247 $247 $248 $384 reversed $153 $-1 #
coedge $-1 $248 $248 $247 $384 forward $155 $-1 #
coedge $-1 $249 $249 $156 $250 forward $244 $-1 #
edge $-1 $385 0 $385 6.2831853071796004 $249 $386 forward 7 unknown #
face $-1 $387 $388 $52 $-1 $389 reversed single #
loop $-1 $-1 $390 $157 #
plane-surface $-1 -114.65895010801115 4.1681726589270021 65.338195213844557 0 1 0 -0.71933980857756763 0 0.69465836192734942 forward_v I I I I #
coedge $-1 $391 $392 $393 $394 reversed $158 $-1 #
coedge $-1 $256 $160 $395 $396 reversed $101 $-1 #
coedge $-1 $160 $255 $391 $397 reversed $101 $-1 #
coedge $-1 $393 $398 $160 $258 forward $388 $-1 #
edge $-1 $399 20.992569458559736 $400 32.652150745705342 $257 $401 forward 7 unknown #
loop $-1 $-1 $264 $161 #
plane-surface $-1 -47.016815698721274 7.8724354505132759 0.016946861216936782 -0.71933980857756763 0 0.69465836192734942 0.69465836192734942 0 0.71933980857756763 forward_v I I I I #
loop $-1 $-1 $402 $103 #
coedge $-1 $262 $262 $263 $403 reversed $162 $-1 #
coedge $-1 $263 $263 $262 $403 forward $164 $-1 #
coedge $-1 $264 $264 $165 $265 forward $259 $-1 #
edge $-1 $404 0 $404 6.2831853071796004 $264 $405 forward 7 unknown #
loop $-1 $-1 $271 $166 #
plane-surface $-1 -47.016815698721274 7.8724354505132759 0.016946861216936782 -0.71933980857756763 0 0.69465836192734942 0.69465836192734942 0 0.71933980857756763 forward_v I I I I #
loop $-1 $-1 $406 $106 #
coedge $-1 $269 $269 $270 $407 reversed $167 $-1 #
coedge $-1 $270 $270 $269 $407 forward $169 $-1 #
coedge $-1 $271 $271 $170 $272 forward $266 $-1 #
edge $-1 $408 0 $408 6.2831853071796004 $271 $409 forward 7 unknown #
loop $-1 $-1 $278 $171 #
plane-surface $-1 -47.016815698721274 7.8724354505132759 0.016946861216936782 -0.71933980857756763 0 0.69465836192734942 0.69465836192734942 0 0.71933980857756763 forward_v I I I I #
loop $-1 $-1 $410 $109 #
coedge $-1 $276 $276 $277 $411 reversed $172 $-1 #
coedge $-1 $277 $277 $276 $411 forward $174 $-1 #
coedge $-1 $278 $278 $175 $279 forward $273 $-1 #
edge $-1 $412 0 $412 6.2831853071796004 $278 $413 forward 7 unknown #
face $-1 $414 $415 $42 $-1 $416 reversed single #
loop $-1 $-1 $417 $176 #
plane-surface $-1 -47.016815698721274 0 0 1 0 0 0 0 -1 forward_v I I I I #
coedge $-1 $418 $291 $419 $420 forward $177 $-1 #
coedge $-1 $421 $179 $418 $422 forward $113 $-1 #
coedge $-1 $179 $421 $423 $424 forward $113 $-1 #
coedge $-1 $294 $293 $179 $287 reversed $295 $-1 #
edge $-1 $425 -29.561892821123852 $426 29.561892821123852 $286 $427 forward 7 unknown #
coedge $-1 $181 $180 $428 $429 forward $71 $-1 #
coedge $-1 $430 $431 $180 $290 reversed $415 $-1 #
edge $-1 $297 -47.016815698721274 $432 47.016815698721274 $289 $433 forward 7 unknown #
coedge $-1 $283 $434 $181 $292 reversed $177 $-1 #
edge $-1 $435 -47.016815698721274 $296 47.016815698721274 $291 $436 forward 7 unknown #
coedge $-1 $286 $182 $434 $437 forward $295 $-1 #
coedge $-1 $182 $286 $430 $438 reversed $295 $-1 #
loop $-1 $-1 $293 $414 #
vertex $-1 $183 $439 #
vertex $-1 $183 $440 #
straight-curve $-1 47.016815698721274 0 11.676528148362543 0 1 0 I I #
face $-1 $441 $442 $43 $-1 $443 reversed single #
loop $-1 $-1 $444 $184 #
plane-surface $-1 -47.016815698721274 0 0 1 0 0 0 0 -1 forward_v I I I I #
coedge $-1 $445 $308 $313 $446 reversed $185 $-1 #
coedge $-1 $447 $187 $448 $449 reversed $117 $-1 #
coedge $-1 $187 $447 $445 $450 forward $117 $-1 #
coedge $-1 $313 $312 $187 $306 forward $314 $-1 #
edge $-1 $451 -18.051632208432785 $452 -4.9688890169493476 $305 $453 forward 7 unknown #
coedge $-1 $189 $188 $444 $454 reversed $74 $-1 #
coedge $-1 $302 $455 $188 $309 reversed $185 $-1 #
edge $-1 $315 -47.016815698721274 $456 47.016815698721274 $308 $457 forward 7 unknown #
coedge $-1 $458 $459 $189 $311 forward $442 $-1 #
edge $-1 $316 -47.016815698721274 $460 47.016815698721274 $310 $461 forward 7 unknown #
coedge $-1 $305 $190 $459 $462 forward $314 $-1 #
coedge $-1 $190 $305 $302 $446 forward $314 $-1 #
loop $-1 $-1 $190 $441 #
vertex $-1 $191 $463 #
vertex $-1 $462 $464 #
straight-curve $-1 47.016815698721274 -11.510260612691066 1.810424388981307 0 -1 0 I I #
face $-1 $465 $466 $44 $-1 $467 reversed single #
loop $-1 $-1 $198 $192 #
plane-surface $-1 47.016815698721274 0 0 -1 0 0 0 0 1 forward_v I I I I #
coedge $-1 $468 $329 $469 $470 reversed $193 $-1 #
coedge $-1 $471 $195 $468 $472 forward $121 $-1 #
coedge $-1 $195 $471 $473 $474 reversed $121 $-1 #
coedge $-1 $332 $331 $195 $325 forward $319 $-1 #
edge $-1 $475 4.9688890169493494 $476 18.051632208432785 $324 $477 forward 7 unknown #
coedge $-1 $197 $196 $478 $479 reversed $77 $-1 #
coedge $-1 $480 $481 $196 $328 forward $482 $-1 #
edge $-1 $483 -47.016815698721274 $333 47.016815698721274 $327 $484 forward 7 unknown #
coedge $-1 $321 $485 $197 $330 reversed $193 $-1 #
edge $-1 $486 -47.016815698721274 $334 47.016815698721274 $329 $487 forward 7 unknown #
coedge $-1 $324 $198 $485 $488 forward $319 $-1 #
coedge $-1 $198 $324 $480 $489 reversed $319 $-1 #
vertex $-1 $489 $490 #
vertex $-1 $199 $491 #
straight-curve $-1 47.016815698721274 11.510260612691068 1.810424388981307 0 -1 0 I I #
face $-1 $-1 $348 $45 $-1 $492 reversed single #
loop $-1 $-1 $493 $200 #
plane-surface $-1 0 0 11.676528148362543 0 0 1 1 0 0 forward_v I I I I #
coedge $-1 $494 $495 $496 $497 reversed $201 $-1 #
coedge $-1 $498 $203 $205 $346 forward $125 $-1 #
coedge $-1 $203 $498 $494 $499 forward $125 $-1 #
coedge $-1 $496 $206 $203 $343 forward $348 $-1 #
edge $-1 $350 2.443533596002931 $500 8.6428494572864611 $342 $501 forward 7 unknown #
coedge $-1 $502 $503 $204 $345 forward $337 $-1 #
edge $-1 $504 32.605059208580514 $349 39.594234087898286 $344 $505 forward 7 unknown #
edge $-1 $350 -94.033631397442562 $504 -85.87982652509254 $205 $506 forward 7 unknown #
coedge $-1 $206 $496 $502 $507 reversed $348 $-1 #
loop $-1 $-1 $496 $336 #
vertex $-1 $507 $508 #
vertex $-1 $207 $509 #
straight-curve $-1 47.016815698721274 7.986725122647627 68.255231438449542 0 0 -1 I I #
coedge $-1 $352 $352 $-1 $510 reversed $210 $-1 #
edge $-1 $511 0 $511 6.2831853071796004 $211 $512 forward 7 unknown #
vertex $-1 $214 $513 #
ellipse-curve $-1 43.522228259062381 9.7579582258714943 9.5767681381070862 0.51503808176128008 0 0.85716729658548041 0.4285836482927402 0 -0.25751904088064004 1 I I #
coedge $-1 $356 $356 $-1 $514 reversed $217 $-1 #
edge $-1 $515 0 $515 6.2831853071796004 $218 $516 forward 7 unknown #
vertex $-1 $221 $517 #
ellipse-curve $-1 43.522228259062381 12.414807880707297 9.5767681381070862 0.51503808176128008 0 0.85716729658548041 0.4285836482927402 0 -0.25751904088064004 1 I I #
face $-1 $-1 $518 $48 $-1 $519 forward single #
loop $-1 $-1 $228 $222 #
plane-surface $-1 -47.016815698721274 0 0 1 0 0 0 0 -1 forward_v I I I I #
coedge $-1 $520 $521 $522 $523 reversed $223 $-1 #
coedge $-1 $524 $225 $227 $370 forward $139 $-1 #
coedge $-1 $225 $524 $520 $525 forward $139 $-1 #
coedge $-1 $522 $228 $225 $367 forward $361 $-1 #
edge $-1 $373 0.59909429797729352 $526 8.0076198811498411 $366 $527 forward 7 unknown #
coedge $-1 $528 $529 $226 $369 forward $518 $-1 #
edge $-1 $530 -21.572185855983967 $372 -10.312659355284303 $368 $531 forward 7 unknown #
edge $-1 $373 0 $530 16.208725206243521 $227 $532 forward 7 unknown #
coedge $-1 $228 $522 $528 $533 reversed $361 $-1 #
vertex $-1 $533 $534 #
vertex $-1 $229 $535 #
straight-curve $-1 -47.016815698721274 -4.9024513875408608 32.669097606922278 0 0 -1 I I #
coedge $-1 $375 $375 $-1 $536 reversed $232 $-1 #
edge $-1 $537 0 $537 6.2831853071796004 $233 $538 forward 7 unknown #
vertex $-1 $236 $539 #
ellipse-curve $-1 -41.387052448371442 -10.8292718540789 5.8467375047897407 -0.71933980857756763 0 0.69465836192734942 0.34732918096367471 0 0.35966990428878381 1 I I #
coedge $-1 $379 $379 $-1 $540 reversed $239 $-1 #
edge $-1 $541 0 $541 6.2831853071796004 $240 $542 forward 7 unknown #
vertex $-1 $243 $543 #
ellipse-curve $-1 -41.387052448371442 -8.6067141791271347 5.8467375047897407 -0.71933980857756763 0 0.69465836192734942 0.34732918096367471 0 0.35966990428878381 1 I I #
coedge $-1 $383 $383 $-1 $544 reversed $246 $-1 #
edge $-1 $545 0 $545 6.2831853071796004 $247 $546 forward 7 unknown #
vertex $-1 $250 $547 #
ellipse-curve $-1 -41.387052448371442 -6.384156504175369 5.8467375047897407 -0.71933980857756763 0 0.69465836192734942 0.34732918096367471 0 0.35966990428878381 1 I I #
face $-1 $-1 $548 $52 $-1 $549 forward single #
loop $-1 $-1 $257 $251 #
plane-surface $-1 -47.016815698721274 0 0 1 0 0 0 0 -1 forward_v I I I I #
coedge $-1 $550 $551 $552 $553 reversed $252 $-1 #
coedge $-1 $554 $254 $256 $397 forward $158 $-1 #
coedge $-1 $254 $554 $550 $555 forward $158 $-1 #
coedge $-1 $552 $257 $254 $394 forward $388 $-1 #
edge $-1 $400 -7.6404805168429117 $556 -0.23195493367036413 $393 $557 forward 7 unknown #
coedge $-1 $558 $559 $255 $396 forward $548 $-1 #
edge $-1 $560 -21.572185855983967 $399 -10.312659355284303 $395 $561 forward 7 unknown #
edge $-1 $400 0 $560 16.208725206243521 $256 $562 forward 7 unknown #
coedge $-1 $257 $552 $558 $563 reversed $388 $-1 #
vertex $-1 $563 $564 #
vertex $-1 $258 $565 #
straight-curve $-1 -47.016815698721274 11.57669824209955 32.669097606922278 0 0 -1 I I #
coedge $-1 $402 $402 $-1 $566 reversed $261 $-1 #
edge $-1 $567 0 $567 6.2831853071796004 $262 $568 forward 7 unknown #
vertex $-1 $265 $569 #
ellipse-curve $-1 -41.387052448371442 5.6498777755615173 5.8467375047897407 -0.71933980857756763 0 0.69465836192734942 0.34732918096367471 0 0.35966990428878381 1 I I #
coedge $-1 $406 $406 $-1 $570 reversed $268 $-1 #
edge $-1 $571 0 $571 6.2831853071796004 $269 $572 forward 7 unknown #
vertex $-1 $272 $573 #
ellipse-curve $-1 -41.387052448371442 7.8724354505132759 5.8467375047897407 -0.71933980857756763 0 0.69465836192734942 0.34732918096367471 0 0.35966990428878381 1 I I #
coedge $-1 $410 $410 $-1 $574 reversed $275 $-1 #
edge $-1 $575 0 $575 6.2831853071796004 $276 $576 forward 7 unknown #
vertex $-1 $279 $577 #
ellipse-curve $-1 -41.387052448371442 10.094993125465049 5.8467375047897407 -0.71933980857756763 0 0.69465836192734942 0.34732918096367471 0 0.35966990428878381 1 I I #
face $-1 $-1 $295 $42 $-1 $578 reversed single #
loop $-1 $-1 $430 $280 #
plane-surface $-1 0 29.561892821123852 0 0 -1 0 0 0 -1 forward_v I I I I #
coedge $-1 $579 $428 $431 $580 forward $281 $-1 #
coedge $-1 $434 $283 $284 $422 reversed $177 $-1 #
coedge $-1 $428 $579 $283 $420 reversed $281 $-1 #
edge $-1 $435 -11.676528148362543 $581 11.676528148362543 $419 $582 forward 7 unknown #
coedge $-1 $285 $284 $579 $583 forward $113 $-1 #
edge $-1 $426 -47.016815698721274 $581 47.016815698721274 $418 $584 forward 7 unknown #
coedge $-1 $431 $430 $285 $424 reversed $415 $-1 #
edge $-1 $585 -47.016815698721274 $425 47.016815698721274 $423 $586 forward 7 unknown #
vertex $-1 $287 $587 #
vertex $-1 $437 $588 #
straight-curve $-1 47.016815698721274 0 -11.676528148362543 0 -1 0 I I #
coedge $-1 $417 $419 $288 $429 reversed $281 $-1 #
edge $-1 $432 -29.561892821123852 $435 29.561892821123852 $428 $589 forward 7 unknown #
coedge $-1 $423 $289 $294 $438 forward $415 $-1 #
coedge $-1 $289 $423 $417 $580 reversed $415 $-1 #
vertex $-1 $290 $590 #
straight-curve $-1 0 29.561892821123852 11.676528148362543 -1 0 0 I I #
coedge $-1 $291 $418 $293 $437 reversed $177 $-1 #
vertex $-1 $429 $591 #
straight-curve $-1 0 -29.561892821123852 11.676528148362543 1 0 0 I I #
edge $-1 $296 -11.676528148362543 $426 11.676528148362543 $293 $592 forward 7 unknown #
edge $-1 $297 -11.676528148362543 $425 11.676528148362543 $294 $593 forward 7 unknown #
point $-1 47.016815698721274 -29.561892821123852 11.676528148362543 #
point $-1 47.016815698721274 29.561892821123852 11.676528148362543 #
face $-1 $-1 $314 $43 $-1 $594 reversed single #
loop $-1 $-1 $310 $299 #
plane-surface $-1 0 -29.561892821123852 0 0 1 0 0 0 1 forward_v I I I I #
coedge $-1 $595 $596 $307 $454 forward $300 $-1 #
coedge $-1 $455 $302 $304 $450 reversed $185 $-1 #
edge $-1 $452 -1.4224853576658321 $315 1.6811113785428153 $313 $597 forward 7 unknown #
coedge $-1 $304 $303 $598 $599 reversed $117 $-1 #
coedge $-1 $459 $458 $303 $449 forward $442 $-1 #
edge $-1 $600 -47.016815698721274 $451 47.016815698721274 $448 $601 forward 7 unknown #
edge $-1 $602 -47.016815698721274 $452 47.016815698721274 $445 $603 forward 7 unknown #
vertex $-1 $449 $604 #
vertex $-1 $306 $605 #
straight-curve $-1 47.016815698721274 -11.510260612691066 -1.2931723472273404 0 1 0 I I #
edge $-1 $460 -18.051632208432785 $456 -4.9688890169493476 $444 $606 forward 7 unknown #
coedge $-1 $308 $445 $595 $607 reversed $185 $-1 #
vertex $-1 $454 $608 #
straight-curve $-1 0 -16.479149629640414 1.810424388981307 -1 0 0 I I #
coedge $-1 $448 $310 $596 $609 forward $442 $-1 #
coedge $-1 $310 $448 $312 $462 reversed $442 $-1 #
vertex $-1 $609 $610 #
straight-curve $-1 0 -29.561892821123852 1.810424388981307 -1 0 0 I I #
edge $-1 $316 -1.810424388981307 $451 1.2931723472273404 $312 $611 forward 7 unknown #
point $-1 47.016815698721274 -16.479149629640414 1.810424388981307 #
point $-1 47.016815698721274 -29.561892821123852 1.810424388981307 #
face $-1 $-1 $482 $44 $-1 $612 reversed single #
loop $-1 $-1 $478 $318 #
plane-surface $-1 -47.016815698721274 0 0 1 0 0 0 0 -1 forward_v I I I I #
coedge $-1 $485 $321 $322 $472 reversed $193 $-1 #
coedge $-1 $478 $613 $321 $470 forward $466 $-1 #
edge $-1 $614 -1.4224853576658321 $486 1.6811113785428153 $469 $615 forward 7 unknown #
coedge $-1 $323 $322 $613 $616 reversed $121 $-1 #
edge $-1 $475 -47.016815698721274 $614 47.016815698721274 $468 $617 forward 7 unknown #
coedge $-1 $481 $480 $323 $474 forward $482 $-1 #
edge $-1 $476 -47.016815698721274 $618 47.016815698721274 $473 $619 forward 7 unknown #
vertex $-1 $325 $620 #
vertex $-1 $474 $621 #
straight-curve $-1 47.016815698721274 11.510260612691068 -1.2931723472273404 0 1 0 I I #
coedge $-1 $622 $469 $326 $479 forward $466 $-1 #
edge $-1 $486 4.9688890169493494 $483 18.051632208432785 $478 $623 forward 7 unknown #
coedge $-1 $473 $327 $332 $489 forward $482 $-1 #
coedge $-1 $327 $473 $622 $624 reversed $482 $-1 #
loop $-1 $-1 $327 $465 #
vertex $-1 $624 $625 #
straight-curve $-1 0 29.561892821123852 1.810424388981307 1 0 0 I I #
coedge $-1 $329 $468 $331 $488 reversed $193 $-1 #
vertex $-1 $479 $626 #
straight-curve $-1 0 16.479149629640418 1.810424388981307 1 0 0 I I #
edge $-1 $334 -1.6811113785428153 $475 1.4224853576658321 $331 $627 forward 7 unknown #
edge $-1 $333 -1.810424388981307 $476 1.2931723472273404 $332 $628 forward 7 unknown #
point $-1 47.016815698721274 29.561892821123855 1.810424388981307 #
point $-1 47.016815698721274 16.479149629640418 1.810424388981307 #
plane-surface $-1 47.016815698721274 0 0 -1 0 0 0 0 1 forward_v I I I I #
coedge $-1 $503 $502 $495 $629 forward $337 $-1 #
coedge $-1 $495 $339 $341 $499 reversed $201 $-1 #
coedge $-1 $339 $494 $493 $629 reversed $201 $-1 #
coedge $-1 $347 $342 $339 $497 forward $348 $-1 #
edge $-1 $500 -60.77822331059793 $630 -56.578703290086999 $496 $631 forward 7 unknown #
coedge $-1 $341 $340 $503 $632 reversed $125 $-1 #
edge $-1 $633 85.87982652509254 $500 94.033631397442562 $494 $634 forward 7 unknown #
vertex $-1 $343 $635 #
straight-curve $-1 47.016815698721274 5.5431915266446961 7.4770081278516152 0 1 0 I I #
coedge $-1 $493 $344 $347 $507 forward $337 $-1 #
coedge $-1 $344 $493 $498 $632 forward $337 $-1 #
vertex $-1 $345 $636 #
straight-curve $-1 7.4225816108229914 7.986725122647627 11.676528148362543 1 0 0 I I #
straight-curve $-1 -33.585737914340108 7.986725122647627 55.907909263837709 -0.85716729658548041 0 0.51503808176128008 I I #
edge $-1 $349 7.986725122647627 $630 14.186040983931157 $347 $637 forward 7 unknown #
point $-1 47.016815698721274 7.986725122647627 11.676528148362543 #
point $-1 47.016815698721281 7.986725122647627 7.4770081278516116 #
edge $-1 $638 1 $638 0 $352 $-1 forward 7 unknown #
vertex $-1 $353 $639 #
ellipse-curve $-1 43.007190177301091 9.7579582258714943 8.7196008415215882 0.51503808176128008 0 0.85716729658548041 0.4285836482927402 0 -0.25751904088064004 1 I I #
point $-1 43.95081190735511 9.7579582258714943 9.3192490972264288 #
edge $-1 $640 1 $640 0 $356 $-1 forward 7 unknown #
vertex $-1 $357 $641 #
ellipse-curve $-1 43.007190177301091 12.414807880707297 8.7196008415215882 0.51503808176128008 0 0.85716729658548041 0.4285836482927402 0 -0.25751904088064004 1 I I #
point $-1 43.95081190735511 12.414807880707297 9.3192490972264288 #
loop $-1 $-1 $368 $360 #
plane-surface $-1 0 0 11.676528148362543 0 0 1 1 0 0 forward_v I I I I #
coedge $-1 $521 $363 $365 $525 reversed $223 $-1 #
coedge $-1 $363 $520 $642 $643 reversed $223 $-1 #
coedge $-1 $371 $366 $363 $523 forward $361 $-1 #
edge $-1 $526 -32.652150745705342 $644 -20.992569458559736 $522 $645 forward 7 unknown #
coedge $-1 $365 $364 $529 $646 reversed $139 $-1 #
edge $-1 $647 -16.208725206243521 $526 0 $520 $648 forward 7 unknown #
vertex $-1 $367 $649 #
straight-curve $-1 -47.016815698721274 -4.3033570895635673 0.016946861216937 0 -1 0 I I #
coedge $-1 $642 $368 $371 $533 forward $518 $-1 #
coedge $-1 $368 $642 $524 $646 forward $518 $-1 #
vertex $-1 $369 $650 #
straight-curve $-1 -57.329475054005577 -4.9024513875408608 11.676528148362543 -1 0 0 I I #
straight-curve $-1 -47.016815698721274 -4.9024513875408608 0.016946861216936782 0.69465836192734942 0 0.71933980857756763 I I #
edge $-1 $372 4.9024513875408608 $644 12.310976970713408 $371 $651 forward 7 unknown #
point $-1 -47.016815698721274 -4.9024513875408608 11.676528148362543 #
point $-1 -47.016815698721274 -4.9024513875408608 0.016946861216936782 #
edge $-1 $652 1 $652 0 $375 $-1 forward 7 unknown #
vertex $-1 $376 $653 #
ellipse-curve $-1 -40.590766748224169 -10.8292718540789 5.0777733608696733 -0.71933980857756763 0 0.69465836192734942 0.34732918096367471 0 0.35966990428878381 1 I I #
point $-1 -41.039723267407766 -10.8292718540789 6.2064074090785244 #
edge $-1 $654 1 $654 0 $379 $-1 forward 7 unknown #
vertex $-1 $380 $655 #
ellipse-curve $-1 -40.590766748224169 -8.6067141791271347 5.0777733608696733 -0.71933980857756763 0 0.69465836192734942 0.34732918096367471 0 0.35966990428878381 1 I I #
point $-1 -41.039723267407766 -8.6067141791271347 6.2064074090785244 #
edge $-1 $656 1 $656 0 $383 $-1 forward 7 unknown #
vertex $-1 $384 $657 #
ellipse-curve $-1 -40.590766748224169 -6.384156504175369 5.0777733608696733 -0.71933980857756763 0 0.69465836192734942 0.34732918096367471 0 0.35966990428878381 1 I I #
point $-1 -41.039723267407766 -6.384156504175369 6.2064074090785244 #
loop $-1 $-1 $395 $387 #
plane-surface $-1 0 0 11.676528148362543 0 0 1 1 0 0 forward_v I I I I #
coedge $-1 $551 $390 $392 $555 reversed $252 $-1 #
coedge $-1 $390 $550 $658 $659 reversed $252 $-1 #
coedge $-1 $398 $393 $390 $553 forward $388 $-1 #
edge $-1 $556 -32.652150745705342 $660 -20.992569458559736 $552 $661 forward 7 unknown #
coedge $-1 $392 $391 $559 $662 reversed $158 $-1 #
edge $-1 $663 -16.208725206243521 $556 0 $550 $664 forward 7 unknown #
vertex $-1 $394 $665 #
straight-curve $-1 -47.016815698721274 3.9362177252566379 0.016946861216937 0 -1 0 I I #
coedge $-1 $658 $395 $398 $563 forward $548 $-1 #
coedge $-1 $395 $658 $554 $662 forward $548 $-1 #
vertex $-1 $396 $666 #
straight-curve $-1 -57.329475054005577 11.57669824209955 11.676528148362543 -1 0 0 I I #
straight-curve $-1 -47.016815698721274 11.57669824209955 0.016946861216936782 0.69465836192734942 0 0.71933980857756763 I I #
edge $-1 $399 -11.57669824209955 $660 -4.1681726589270021 $398 $667 forward 7 unknown #
point $-1 -47.016815698721274 11.57669824209955 11.676528148362543 #
point $-1 -47.016815698721274 11.57669824209955 0.016946861216936782 #
edge $-1 $668 1 $668 0 $402 $-1 forward 7 unknown #
vertex $-1 $403 $669 #
ellipse-curve $-1 -40.590766748224169 5.6498777755615173 5.0777733608696733 -0.71933980857756763 0 0.69465836192734942 0.34732918096367471 0 0.35966990428878381 1 I I #
point $-1 -41.039723267407766 5.6498777755615173 6.2064074090785244 #
edge $-1 $670 1 $670 0 $406 $-1 forward 7 unknown #
vertex $-1 $407 $671 #
ellipse-curve $-1 -40.590766748224169 7.8724354505132759 5.0777733608696733 -0.71933980857756763 0 0.69465836192734942 0.34732918096367471 0 0.35966990428878381 1 I I #
point $-1 -41.039723267407766 7.8724354505132759 6.2064074090785244 #
edge $-1 $672 1 $672 0 $410 $-1 forward 7 unknown #
vertex $-1 $411 $673 #
ellipse-curve $-1 -40.590766748224169 10.094993125465049 5.0777733608696733 -0.71933980857756763 0 0.69465836192734942 0.34732918096367471 0 0.35966990428878381 1 I I #
point $-1 -41.039723267407766 10.094993125465049 6.2064074090785244 #
plane-surface $-1 47.016815698721274 0 0 -1 0 0 0 0 1 forward_v I I I I #
coedge $-1 $419 $417 $421 $583 reversed $281 $-1 #
edge $-1 $432 -11.676528148362543 $585 11.676528148362543 $431 $674 forward 7 unknown #
vertex $-1 $583 $675 #
straight-curve $-1 -47.016815698721274 -29.561892821123852 0 0 0 -1 I I #
edge $-1 $581 -29.561892821123852 $585 29.561892821123852 $579 $676 forward 7 unknown #
straight-curve $-1 0 -29.561892821123852 -11.676528148362543 -1 0 0 I I #
vertex $-1 $424 $677 #
straight-curve $-1 0 29.561892821123852 -11.676528148362543 1 0 0 I I #
point $-1 47.016815698721274 29.561892821123852 -11.676528148362543 #
point $-1 47.016815698721274 -29.561892821123852 -11.676528148362543 #
straight-curve $-1 -47.016815698721274 0 11.676528148362543 0 -1 0 I I #
point $-1 -47.016815698721274 29.561892821123852 11.676528148362543 #
point $-1 -47.016815698721274 -29.561892821123852 11.676528148362543 #
straight-curve $-1 47.016815698721274 -29.561892821123852 0 0 0 -1 I I #
straight-curve $-1 47.016815698721274 29.561892821123852 0 0 0 -1 I I #
plane-surface $-1 47.016815698721274 0 0 -1 0 0 0 0 1 forward_v I I I I #
coedge $-1 $598 $444 $455 $607 forward $300 $-1 #
coedge $-1 $444 $598 $458 $609 reversed $300 $-1 #
straight-curve $-1 47.016815698721274 -16.479149629640414 0.12931301043849164 0 0 1 I I #
coedge $-1 $596 $595 $447 $599 forward $300 $-1 #
edge $-1 $602 4.9688890169493476 $600 18.051632208432785 $598 $678 forward 7 unknown #
vertex $-1 $449 $679 #
straight-curve $-1 0 -29.561892821123852 -1.2931723472273404 1 0 0 I I #
vertex $-1 $599 $680 #
straight-curve $-1 0 -16.479149629640414 -1.2931723472273404 1 0 0 I I #
point $-1 47.016815698721274 -29.561892821123852 -1.2931723472273404 #
point $-1 47.016815698721274 -16.479149629640414 -1.2931723472273404 #
straight-curve $-1 -47.016815698721274 -11.510260612691066 1.810424388981307 0 1 0 I I #
edge $-1 $456 -1.6811113785428153 $602 1.4224853576658321 $595 $681 forward 7 unknown #
point $-1 -47.016815698721274 -16.479149629640414 1.810424388981307 #
edge $-1 $460 -1.810424388981307 $600 1.2931723472273404 $596 $682 forward 7 unknown #
point $-1 -47.016815698721274 -29.561892821123852 1.810424388981307 #
straight-curve $-1 47.016815698721274 -29.561892821123852 0 0 0 -1 I I #
plane-surface $-1 0 29.561892821123852 0 0 -1 0 0 0 -1 forward_v I I I I #
coedge $-1 $469 $622 $471 $616 forward $466 $-1 #
vertex $-1 $616 $683 #
straight-curve $-1 -47.016815698721274 16.479149629640418 0.12931301043849164 0 0 1 I I #
edge $-1 $618 -18.051632208432785 $614 -4.9688890169493494 $613 $684 forward 7 unknown #
straight-curve $-1 0 16.479149629640418 -1.2931723472273404 -1 0 0 I I #
vertex $-1 $474 $685 #
straight-curve $-1 0 29.561892821123852 -1.2931723472273404 -1 0 0 I I #
point $-1 47.016815698721274 16.479149629640418 -1.2931723472273404 #
point $-1 47.016815698721274 29.561892821123855 -1.2931723472273404 #
coedge $-1 $613 $478 $481 $624 forward $466 $-1 #
straight-curve $-1 -47.016815698721274 11.510260612691068 1.810424388981307 0 1 0 I I #
edge $-1 $483 -1.810424388981307 $618 1.2931723472273404 $481 $686 forward 7 unknown #
point $-1 -47.016815698721274 29.561892821123855 1.810424388981307 #
point $-1 -47.016815698721274 16.479149629640418 1.810424388981307 #
straight-curve $-1 47.016815698721274 16.479149629640418 0.12931301043849164 0 0 -1 I I #
straight-curve $-1 47.016815698721274 29.561892821123852 0 0 0 -1 I I #
edge $-1 $630 -39.594234087898286 $633 -32.605059208580514 $493 $687 forward 7 unknown #
vertex $-1 $629 $688 #
straight-curve $-1 47.016815698721274 14.186040983931157 68.255231438449542 0 0 1 I I #
edge $-1 $633 -8.6428494572864611 $504 -2.443533596002931 $503 $689 forward 7 unknown #
vertex $-1 $632 $690 #
straight-curve $-1 -33.585737914340108 14.186040983931157 55.907909263837709 0.85716729658548041 0 -0.51503808176128008 I I #
point $-1 47.016815698721281 14.186040983931157 7.4770081278516116 #
point $-1 40.027640819403508 7.986725122647627 11.676528148362543 #
straight-curve $-1 47.016815698721274 0 11.676528148362543 0 1 0 I I #
vertex $-1 $510 $691 #
point $-1 43.435773825593834 9.7579582258714943 8.4620818006409486 #
vertex $-1 $514 $692 #
point $-1 43.435773825593834 12.414807880707297 8.4620818006409486 #
coedge $-1 $529 $528 $521 $643 forward $518 $-1 #
edge $-1 $644 10.312659355284303 $647 21.572185855983967 $642 $693 forward 7 unknown #
vertex $-1 $643 $694 #
straight-curve $-1 -47.016815698721274 -12.310976970713408 32.669097606922278 0 0 1 I I #
edge $-1 $647 -8.0076198811498411 $530 -0.59909429797729352 $529 $695 forward 7 unknown #
vertex $-1 $646 $696 #
straight-curve $-1 -47.016815698721274 -12.310976970713408 0.016946861216936782 -0.69465836192734942 0 -0.71933980857756763 I I #
point $-1 -47.016815698721274 -12.310976970713408 0.016946861216936782 #
point $-1 -35.75728919802161 -4.9024513875408608 11.676528148362545 #
straight-curve $-1 -47.016815698721274 0 11.676528148362543 0 -1 0 I I #
vertex $-1 $536 $697 #
point $-1 -40.2434375672605 -10.8292718540789 5.437443265158457 #
vertex $-1 $540 $698 #
point $-1 -40.2434375672605 -8.6067141791271347 5.437443265158457 #
vertex $-1 $544 $699 #
point $-1 -40.2434375672605 -6.384156504175369 5.437443265158457 #
coedge $-1 $559 $558 $551 $659 forward $548 $-1 #
edge $-1 $660 10.312659355284303 $663 21.572185855983967 $658 $700 forward 7 unknown #
vertex $-1 $659 $701 #
straight-curve $-1 -47.016815698721274 4.1681726589270021 32.669097606922278 0 0 1 I I #
edge $-1 $663 0.23195493367036413 $560 7.6404805168429117 $559 $702 forward 7 unknown #
vertex $-1 $662 $703 #
straight-curve $-1 -47.016815698721274 4.1681726589270021 0.016946861216936782 -0.69465836192734942 0 -0.71933980857756763 I I #
point $-1 -47.016815698721274 4.1681726589270021 0.016946861216936782 #
point $-1 -35.75728919802161 11.57669824209955 11.676528148362545 #
straight-curve $-1 -47.016815698721274 0 11.676528148362543 0 -1 0 I I #
vertex $-1 $566 $704 #
point $-1 -40.2434375672605 5.6498777755615173 5.437443265158457 #
vertex $-1 $570 $705 #
point $-1 -40.2434375672605 7.8724354505132759 5.437443265158457 #
vertex $-1 $574 $706 #
point $-1 -40.2434375672605 10.094993125465049 5.437443265158457 #
straight-curve $-1 -47.016815698721274 29.561892821123852 0 0 0 -1 I I #
point $-1 -47.016815698721274 -29.561892821123852 -11.676528148362543 #
straight-curve $-1 -47.016815698721274 0 -11.676528148362543 0 1 0 I I #
point $-1 -47.016815698721274 29.561892821123852 -11.676528148362543 #
straight-curve $-1 -47.016815698721274 -11.510260612691066 -1.2931723472273404 0 -1 0 I I #
point $-1 -47.016815698721274 -29.561892821123852 -1.2931723472273404 #
point $-1 -47.016815698721274 -16.479149629640414 -1.2931723472273404 #
straight-curve $-1 -47.016815698721274 -16.479149629640414 0.12931301043849164 0 0 -1 I I #
straight-curve $-1 -47.016815698721274 -29.561892821123852 0 0 0 -1 I I #
point $-1 -47.016815698721274 16.479149629640418 -1.2931723472273404 #
straight-curve $-1 -47.016815698721274 11.510260612691068 -1.2931723472273404 0 -1 0 I I #
point $-1 -47.016815698721274 29.561892821123855 -1.2931723472273404 #
straight-curve $-1 -47.016815698721274 29.561892821123852 0 0 0 -1 I I #
straight-curve $-1 7.4225816108229914 14.186040983931157 11.676528148362543 -1 0 0 I I #
point $-1 47.016815698721274 14.186040983931157 11.676528148362543 #
straight-curve $-1 40.027640819403501 5.5431915266446961 11.676528148362543 0 -1 0 I I #
point $-1 40.027640819403508 14.186040983931157 11.676528148362543 #
point $-1 42.749671136420453 9.7579582258714943 8.2910171932288481 #
point $-1 42.749671136420453 12.414807880707297 8.2910171932288481 #
straight-curve $-1 -57.329475054005577 -12.310976970713408 11.676528148362543 1 0 0 I I #
point $-1 -47.016815698721274 -12.310976970713408 11.676528148362543 #
straight-curve $-1 -35.75728919802161 -4.3033570895635673 11.676528148362543 0 1 0 I I #
point $-1 -35.75728919802161 -12.310976970713408 11.676528148362545 #
point $-1 -40.23109684393539 -10.8292718540789 4.7304441799059989 #
point $-1 -40.23109684393539 -8.6067141791271347 4.7304441799059989 #
point $-1 -40.23109684393539 -6.384156504175369 4.7304441799059989 #
straight-curve $-1 -57.329475054005577 4.1681726589270021 11.676528148362543 1 0 0 I I #
point $-1 -47.016815698721274 4.1681726589270021 11.676528148362543 #
straight-curve $-1 -35.75728919802161 3.9362177252566379 11.676528148362543 0 1 0 I I #
point $-1 -35.75728919802161 4.1681726589270021 11.676528148362545 #
point $-1 -40.23109684393539 5.6498777755615173 4.7304441799059989 #
point $-1 -40.23109684393539 7.8724354505132759 4.7304441799059989 #
point $-1 -40.23109684393539 10.094993125465049 4.7304441799059989 #
End-of-ACIS-data 