500 0 9 0           
7 Unknown 11 ACIS 5.0 NT 24 Fri Mar 26 20:44:17 1999 
-1 9.9999999999999995e-007 1e-010 
body $-1 $9 $-1 $10 #
body $-1 $11 $-1 $12 #
body $-1 $13 $-1 $14 #
body $-1 $15 $-1 $16 #
body $-1 $17 $-1 $18 #
body $-1 $19 $-1 $20 #
body $-1 $21 $-1 $22 #
body $-1 $23 $-1 $24 #
body $-1 $25 $-1 $26 #
lump $-1 $-1 $27 $0 #
transform $-1 1 0 0 0 1 0 0 0 1 49.802545243690297 33.596921349168397 10.559134956820611 1 rotate no_reflect no_shear #
lump $-1 $-1 $28 $1 #
transform $-1 1 0 0 0 1 0 0 0 1 49.802545243690297 33.596921349168397 10.559134956820611 1 rotate no_reflect no_shear #
lump $-1 $-1 $29 $2 #
transform $-1 1 0 0 0 1 0 0 0 1 49.802545243690297 33.596921349168397 10.559134956820611 1 rotate no_reflect no_shear #
lump $-1 $-1 $30 $3 #
transform $-1 1 0 0 0 1 0 0 0 1 49.802545243690297 33.596921349168397 10.559134956820611 1 rotate no_reflect no_shear #
lump $-1 $-1 $31 $4 #
transform $-1 1 0 0 0 1 0 0 0 1 49.802545243690297 33.596921349168397 10.559134956820611 1 rotate no_reflect no_shear #
lump $-1 $-1 $32 $5 #
transform $-1 1 0 0 0 1 0 0 0 1 49.802545243690297 33.596921349168397 10.559134956820611 1 rotate no_reflect no_shear #
lump $-1 $-1 $33 $6 #
transform $-1 1 0 0 0 1 0 0 0 1 49.802545243690297 33.596921349168397 10.559134956820611 1 rotate no_reflect no_shear #
lump $-1 $-1 $34 $7 #
transform $-1 1 0 0 0 1 0 0 0 1 49.802545243690297 33.596921349168397 10.559134956820611 1 rotate no_reflect no_shear #
lump $-1 $-1 $35 $8 #
transform $-1 1 0 0 0 1 0 0 0 1 49.802545243690297 33.596921349168397 10.559134956820611 1 rotate no_reflect no_shear #
shell $-1 $-1 $-1 $36 $-1 $9 #
shell $-1 $-1 $-1 $37 $-1 $11 #
shell $-1 $-1 $-1 $38 $-1 $13 #
shell $-1 $-1 $-1 $39 $-1 $15 #
shell $-1 $-1 $-1 $40 $-1 $17 #
shell $-1 $-1 $-1 $41 $-1 $19 #
shell $-1 $-1 $-1 $42 $-1 $21 #
shell $-1 $-1 $-1 $43 $-1 $23 #
shell $-1 $-1 $-1 $44 $-1 $25 #
face $-1 $45 $46 $27 $-1 $47 forward single #
face $-1 $48 $49 $28 $-1 $50 forward single #
face $-1 $51 $52 $29 $-1 $53 forward single #
face $-1 $54 $55 $30 $-1 $56 reversed single #
face $-1 $57 $58 $31 $-1 $59 forward single #
face $-1 $60 $61 $32 $-1 $62 forward single #
face $-1 $63 $64 $33 $-1 $65 forward single #
face $-1 $66 $67 $34 $-1 $68 reversed single #
face $-1 $69 $70 $35 $-1 $71 forward single #
face $-1 $72 $73 $27 $-1 $74 reversed single #
loop $-1 $-1 $75 $36 #
plane-surface $-1 0 0 10.559134956820611 0 0 1 1 0 0 forward_v I I I I #
face $-1 $76 $77 $28 $-1 $78 reversed single #
loop $-1 $-1 $79 $37 #
plane-surface $-1 -49.802545243690297 0 0 1 0 0 0 0 -1 forward_v I I I I #
face $-1 $80 $81 $29 $-1 $82 reversed single #
loop $-1 $-1 $83 $38 #
plane-surface $-1 49.802545243690297 0 0 -1 0 0 0 0 1 forward_v I I I I #
face $-1 $84 $85 $30 $-1 $86 reversed single #
loop $-1 $-1 $87 $39 #
plane-surface $-1 6.6403651072211787 78.598965395654275 113.82972974799434 1 0 0 0 -0.82903758062907751 -0.55919289150049634 forward_v I I I I #
face $-1 $88 $89 $31 $-1 $90 forward single #
loop $-1 $91 $92 $40 #
cone-surface $-1 10.455565204434215 29.586219949675002 5.637189025440998 0 -0.82903758062907751 -0.55919289150049634 1.5 0 0 1 I I 0 1 1.5 forward I I I I #
face $-1 $93 $94 $32 $-1 $95 forward single #
loop $-1 $96 $97 $41 #
cone-surface $-1 16.178365350253763 29.586219949675002 5.637189025440998 0 -0.82903758062907751 -0.55919289150049634 1.5 0 0 1 I I 0 1 1.5 forward I I I I #
face $-1 $98 $99 $33 $-1 $100 forward single #
loop $-1 $101 $102 $42 #
cone-surface $-1 21.901165496073311 29.586219949675002 5.637189025440998 0 -0.82903758062907751 -0.55919289150049634 1.5 0 0 1 I I 0 1 1.5 forward I I I I #
face $-1 $103 $104 $34 $-1 $105 reversed single #
loop $-1 $-1 $106 $43 #
plane-surface $-1 -21.159587887554871 -111.0046159862529 69.557719339072293 -1 0 0 0 -0.77714596973225614 0.62932038083071107 forward_v I I I I #
face $-1 $107 $108 $35 $-1 $109 forward single #
loop $-1 $110 $111 $44 #
cone-surface $-1 -27.089761510060086 -31.462550812340723 8.1964876684509189 0 0.77714596973225614 -0.62932038083071107 1 0 0 1 I I 0 1 1 forward I I I I #
face $-1 $112 $113 $27 $-1 $114 reversed single #
loop $-1 $-1 $115 $45 #
plane-surface $-1 0 0 -10.559134956820611 0 0 1 1 0 0 forward_v I I I I #
coedge $-1 $116 $117 $118 $119 forward $46 $-1 #
face $-1 $120 $121 $28 $-1 $122 reversed single #
loop $-1 $-1 $123 $48 #
plane-surface $-1 0 0 -10.559134956820611 0 0 1 1 0 0 forward_v I I I I #
coedge $-1 $124 $125 $126 $127 forward $49 $-1 #
face $-1 $128 $129 $29 $-1 $130 reversed single #
loop $-1 $-1 $131 $51 #
plane-surface $-1 0 0 -10.559134956820611 0 0 1 1 0 0 forward_v I I I I #
coedge $-1 $132 $133 $134 $135 forward $52 $-1 #
face $-1 $136 $137 $30 $-1 $138 reversed single #
loop $-1 $-1 $139 $54 #
plane-surface $-1 16.178365350253763 -3.977397840344068 58.131271190187398 0 0.82903758062907751 0.55919289150049634 1 0 0 forward_v I I I I #
coedge $-1 $140 $141 $142 $143 reversed $55 $-1 #
face $-1 $-1 $144 $31 $-1 $145 forward single #
loop $-1 $146 $147 $57 #
cone-surface $-1 10.455565204434215 27.696994932261958 4.3628907006525814 0 -0.82903758062907751 -0.55919289150049634 0.75 0 0 1 I I -0.70710678118654757 0.70710678118654757 0.75 forward I I I I #
loop $-1 $-1 $148 $40 #
coedge $-1 $92 $92 $149 $150 reversed $58 $-1 #
face $-1 $-1 $151 $32 $-1 $152 forward single #
loop $-1 $153 $154 $60 #
cone-surface $-1 16.178365350253763 27.696994932261958 4.3628907006525814 0 -0.82903758062907751 -0.55919289150049634 0.75 0 0 1 I I -0.70710678118654757 0.70710678118654757 0.75 forward I I I I #
loop $-1 $-1 $155 $41 #
coedge $-1 $97 $97 $156 $157 reversed $61 $-1 #
face $-1 $-1 $158 $33 $-1 $159 forward single #
loop $-1 $160 $161 $63 #
cone-surface $-1 21.901165496073311 27.696994932261958 4.3628907006525814 0 -0.82903758062907751 -0.55919289150049634 0.75 0 0 1 I I -0.70710678118654757 0.70710678118654757 0.75 forward I I I I #
loop $-1 $-1 $162 $42 #
coedge $-1 $102 $102 $163 $164 reversed $64 $-1 #
face $-1 $165 $166 $34 $-1 $167 reversed single #
loop $-1 $-1 $168 $66 #
plane-surface $-1 -27.089761510060086 -33.596921349168383 6.8742058608765007 0 -0.77714596973225614 0.62932038083071107 1 0 0 forward_v I I I I #
coedge $-1 $169 $170 $171 $172 reversed $67 $-1 #
face $-1 $-1 $173 $35 $-1 $174 forward single #
loop $-1 $175 $176 $69 #
cone-surface $-1 -27.089761510060086 -30.431605623207702 7.3616447376379277 0 0.77714596973225614 -0.62932038083071107 0.5 0 0 1 I I -0.70710678118654746 0.70710678118654746 0.5 forward I I I I #
loop $-1 $-1 $177 $44 #
coedge $-1 $111 $111 $178 $179 reversed $70 $-1 #
face $-1 $180 $181 $27 $-1 $182 reversed single #
loop $-1 $-1 $183 $72 #
plane-surface $-1 0 -33.596921349168397 0 0 1 0 0 0 1 forward_v I I I I #
coedge $-1 $184 $185 $186 $187 forward $73 $-1 #
coedge $-1 $188 $75 $189 $190 forward $46 $-1 #
coedge $-1 $75 $188 $191 $192 forward $46 $-1 #
coedge $-1 $193 $194 $75 $119 reversed $195 $-1 #
edge $-1 $196 -33.596921349168397 $197 33.596921349168397 $118 $198 forward 7 unknown #
face $-1 $199 $200 $28 $-1 $201 reversed single #
loop $-1 $-1 $202 $76 #
plane-surface $-1 -54.142795381393874 -17.202371509932846 0 0 1 0 0 0 1 forward_v I I I I #
coedge $-1 $203 $204 $125 $205 forward $77 $-1 #
coedge $-1 $206 $79 $207 $208 reversed $49 $-1 #
coedge $-1 $79 $206 $123 $205 reversed $49 $-1 #
coedge $-1 $209 $210 $79 $127 reversed $211 $-1 #
edge $-1 $212 -10.559134956820611 $213 10.559134956820611 $126 $214 forward 7 unknown #
face $-1 $215 $216 $29 $-1 $217 reversed single #
loop $-1 $-1 $134 $80 #
plane-surface $-1 54.142795381393874 -17.202371509932846 0 0 1 0 0 0 1 forward_v I I I I #
coedge $-1 $218 $219 $133 $220 forward $81 $-1 #
coedge $-1 $221 $83 $222 $223 reversed $52 $-1 #
coedge $-1 $83 $221 $131 $220 reversed $52 $-1 #
coedge $-1 $224 $225 $83 $135 reversed $129 $-1 #
edge $-1 $226 -10.559134956820611 $227 10.559134956820611 $134 $228 forward 7 unknown #
face $-1 $229 $230 $30 $-1 $231 reversed single #
loop $-1 $-1 $232 $84 #
plane-surface $-1 25.716365593286348 78.598965395654275 113.82972974799434 -1 0 0 0 0.82903758062907751 0.55919289150049634 forward_v I I I I #
coedge $-1 $233 $234 $235 $236 reversed $85 $-1 #
coedge $-1 $141 $87 $237 $238 reversed $55 $-1 #
coedge $-1 $87 $140 $233 $239 reversed $55 $-1 #
coedge $-1 $235 $240 $87 $143 forward $241 $-1 #
edge $-1 $242 5.7025613486587403 $243 11.189070483763075 $142 $244 forward 7 unknown #
loop $-1 $-1 $149 $88 #
plane-surface $-1 16.178365350253763 -3.977397840344068 58.131271190187398 0 0.82903758062907751 0.55919289150049634 1 0 0 forward_v I I I I #
loop $-1 $-1 $245 $57 #
coedge $-1 $147 $147 $148 $246 reversed $89 $-1 #
coedge $-1 $148 $148 $147 $246 forward $91 $-1 #
coedge $-1 $149 $149 $92 $150 forward $144 $-1 #
edge $-1 $247 1.9442535217859281e-016 $247 6.2831853071796004 $149 $248 forward 7 unknown #
loop $-1 $-1 $156 $93 #
plane-surface $-1 16.178365350253763 -3.977397840344068 58.131271190187398 0 0.82903758062907751 0.55919289150049634 1 0 0 forward_v I I I I #
loop $-1 $-1 $249 $60 #
coedge $-1 $154 $154 $155 $250 reversed $94 $-1 #
coedge $-1 $155 $155 $154 $250 forward $96 $-1 #
coedge $-1 $156 $156 $97 $157 forward $151 $-1 #
edge $-1 $251 1.9442535217859281e-016 $251 6.2831853071796004 $156 $252 forward 7 unknown #
loop $-1 $-1 $163 $98 #
plane-surface $-1 16.178365350253763 -3.977397840344068 58.131271190187398 0 0.82903758062907751 0.55919289150049634 1 0 0 forward_v I I I I #
loop $-1 $-1 $253 $63 #
coedge $-1 $161 $161 $162 $254 reversed $99 $-1 #
coedge $-1 $162 $162 $161 $254 forward $101 $-1 #
coedge $-1 $163 $163 $102 $164 forward $158 $-1 #
edge $-1 $255 1.9442535217859281e-016 $255 6.2831853071796004 $163 $256 forward 7 unknown #
face $-1 $257 $258 $34 $-1 $259 forward single #
loop $-1 $-1 $260 $103 #
plane-surface $-1 -33.019935132565301 -111.0046159862529 69.557719339072293 1 0 0 0 0.77714596973225614 -0.62932038083071107 forward_v I I I I #
coedge $-1 $261 $262 $263 $264 reversed $104 $-1 #
coedge $-1 $170 $106 $265 $266 reversed $67 $-1 #
coedge $-1 $106 $169 $261 $267 reversed $67 $-1 #
coedge $-1 $263 $268 $106 $172 forward $258 $-1 #
edge $-1 $269 21.905386643958053 $270 24.88938330907963 $171 $271 forward 7 unknown #
loop $-1 $-1 $178 $107 #
plane-surface $-1 -27.089761510060086 -33.596921349168383 6.8742058608765007 0 -0.77714596973225614 0.62932038083071107 1 0 0 forward_v I I I I #
loop $-1 $-1 $272 $69 #
coedge $-1 $176 $176 $177 $273 reversed $108 $-1 #
coedge $-1 $177 $177 $176 $273 forward $110 $-1 #
coedge $-1 $178 $178 $111 $179 forward $173 $-1 #
edge $-1 $274 2.4308525420807512e-015 $274 6.2831853071796031 $178 $275 forward 7 unknown #
face $-1 $276 $277 $27 $-1 $278 reversed single #
loop $-1 $-1 $279 $112 #
plane-surface $-1 -49.802545243690297 0 0 1 0 0 0 0 -1 forward_v I I I I #
coedge $-1 $280 $191 $281 $282 forward $113 $-1 #
coedge $-1 $283 $115 $280 $284 forward $73 $-1 #
coedge $-1 $115 $283 $285 $286 forward $73 $-1 #
coedge $-1 $194 $193 $115 $187 reversed $195 $-1 #
edge $-1 $287 -33.596921349168397 $288 33.596921349168397 $186 $289 forward 7 unknown #
coedge $-1 $117 $116 $290 $291 forward $46 $-1 #
coedge $-1 $292 $293 $116 $190 reversed $277 $-1 #
edge $-1 $197 -49.802545243690297 $294 49.802545243690297 $189 $295 forward 7 unknown #
coedge $-1 $183 $296 $117 $192 reversed $113 $-1 #
edge $-1 $297 -49.802545243690297 $196 49.802545243690297 $191 $298 forward 7 unknown #
coedge $-1 $186 $118 $296 $299 forward $195 $-1 #
coedge $-1 $118 $186 $292 $300 reversed $195 $-1 #
loop $-1 $-1 $193 $276 #
vertex $-1 $119 $301 #
vertex $-1 $119 $302 #
straight-curve $-1 49.802545243690297 0 10.559134956820611 0 1 0 I I #
face $-1 $303 $211 $28 $-1 $304 reversed single #
loop $-1 $-1 $305 $120 #
plane-surface $-1 -58.483045519097452 -14.840511472730011 0 1 0 0 0 0 -1 forward_v I I I I #
coedge $-1 $306 $307 $308 $309 forward $121 $-1 #
coedge $-1 $310 $123 $306 $311 forward $77 $-1 #
coedge $-1 $123 $310 $209 $312 forward $77 $-1 #
edge $-1 $212 12.478651435527176 $313 17.202371509932846 $123 $314 forward 7 unknown #
coedge $-1 $125 $124 $315 $316 forward $49 $-1 #
coedge $-1 $317 $318 $124 $208 forward $319 $-1 #
edge $-1 $320 -17.202371509932846 $213 -12.478651435527176 $207 $321 forward 7 unknown #
coedge $-1 $322 $126 $204 $312 reversed $211 $-1 #
coedge $-1 $126 $322 $317 $323 reversed $211 $-1 #
loop $-1 $-1 $126 $199 #
vertex $-1 $205 $324 #
vertex $-1 $323 $325 #
straight-curve $-1 -49.802545243690297 -12.478651435527176 0 0 0 1 I I #
face $-1 $326 $327 $29 $-1 $328 reversed single #
loop $-1 $-1 $329 $128 #
plane-surface $-1 54.142795381393874 -12.478651435527176 0 0 -1 0 0 0 -1 forward_v I I I I #
coedge $-1 $330 $131 $331 $332 forward $81 $-1 #
coedge $-1 $131 $330 $224 $333 forward $81 $-1 #
edge $-1 $226 -17.202371509932846 $334 -12.478651435527176 $131 $335 forward 7 unknown #
coedge $-1 $133 $132 $336 $337 forward $52 $-1 #
coedge $-1 $338 $339 $132 $223 forward $340 $-1 #
edge $-1 $341 12.478651435527176 $227 17.202371509932846 $222 $342 forward 7 unknown #
coedge $-1 $343 $134 $219 $333 reversed $129 $-1 #
coedge $-1 $134 $343 $338 $344 reversed $129 $-1 #
vertex $-1 $220 $345 #
vertex $-1 $344 $346 #
straight-curve $-1 49.802545243690297 -17.202371509932846 0 0 0 1 I I #
face $-1 $-1 $241 $30 $-1 $347 forward single #
loop $-1 $-1 $348 $136 #
plane-surface $-1 0 33.596921349168397 0 0 -1 0 0 0 -1 forward_v I I I I #
coedge $-1 $349 $350 $351 $352 reversed $137 $-1 #
coedge $-1 $353 $139 $141 $239 forward $85 $-1 #
coedge $-1 $139 $353 $349 $354 forward $85 $-1 #
coedge $-1 $351 $142 $139 $236 forward $241 $-1 #
edge $-1 $243 -1.4488175679057029 $355 17.627182918159466 $235 $356 forward 7 unknown #
coedge $-1 $357 $358 $140 $238 forward $230 $-1 #
edge $-1 $359 -54.489814467609712 $242 -46.355729917176561 $237 $360 forward 7 unknown #
edge $-1 $243 57.382364014510458 $359 67.193842698336795 $141 $361 forward 7 unknown #
coedge $-1 $142 $351 $357 $362 forward $241 $-1 #
loop $-1 $-1 $351 $229 #
vertex $-1 $238 $363 #
vertex $-1 $143 $364 #
straight-curve $-1 6.6403651072211787 39.299482697827138 10.559134956820614 0 -1 0 I I #
coedge $-1 $245 $245 $-1 $365 reversed $146 $-1 #
edge $-1 $366 0 $366 6.2831853071796004 $147 $367 forward 7 unknown #
vertex $-1 $150 $368 #
ellipse-curve $-1 10.455565204434215 30.85366678161623 6.4920926816040385 0 0.82903758062907751 0.55919289150049634 1.5 0 0 1 I I #
coedge $-1 $249 $249 $-1 $369 reversed $153 $-1 #
edge $-1 $370 0 $370 6.2831853071796004 $154 $371 forward 7 unknown #
vertex $-1 $157 $372 #
ellipse-curve $-1 16.178365350253763 30.85366678161623 6.4920926816040385 0 0.82903758062907751 0.55919289150049634 1.5 0 0 1 I I #
coedge $-1 $253 $253 $-1 $373 reversed $160 $-1 #
edge $-1 $374 0 $374 6.2831853071796004 $161 $375 forward 7 unknown #
vertex $-1 $164 $376 #
ellipse-curve $-1 21.901165496073311 30.85366678161623 6.4920926816040385 0 0.82903758062907751 0.55919289150049634 1.5 0 0 1 I I #
face $-1 $-1 $377 $34 $-1 $378 reversed single #
loop $-1 $-1 $171 $165 #
plane-surface $-1 0 0 10.559134956820611 0 0 1 1 0 0 forward_v I I I I #
coedge $-1 $379 $380 $381 $382 reversed $166 $-1 #
coedge $-1 $383 $168 $170 $267 forward $104 $-1 #
coedge $-1 $168 $383 $379 $384 forward $104 $-1 #
coedge $-1 $381 $171 $168 $264 forward $258 $-1 #
edge $-1 $270 7.6147071325248277 $385 19.475054377535258 $263 $386 forward 7 unknown #
coedge $-1 $387 $388 $169 $266 forward $377 $-1 #
edge $-1 $389 -27.904653808659663 $269 -24.219724712715536 $265 $390 forward 7 unknown #
edge $-1 $270 -4.741617713353965 $389 2.2748066086763162e-014 $170 $391 forward 7 unknown #
coedge $-1 $171 $381 $387 $392 forward $258 $-1 #
vertex $-1 $172 $393 #
vertex $-1 $172 $394 #
straight-curve $-1 -21.159587887554871 -55.50230799312645 10.559134956820611 0 1 0 I I #
coedge $-1 $272 $272 $-1 $395 reversed $175 $-1 #
edge $-1 $396 0 $396 6.2831853071796004 $176 $397 forward 7 unknown #
vertex $-1 $179 $398 #
ellipse-curve $-1 -27.089761510060086 -32.104923016607607 8.7166704088485485 0 -0.77714596973225614 0.62932038083071107 1 0 0 1 I I #
face $-1 $-1 $195 $27 $-1 $399 reversed single #
loop $-1 $-1 $292 $180 #
plane-surface $-1 0 33.596921349168397 0 0 -1 0 0 0 -1 forward_v I I I I #
coedge $-1 $400 $290 $293 $401 forward $181 $-1 #
coedge $-1 $296 $183 $184 $284 reversed $113 $-1 #
coedge $-1 $290 $400 $183 $282 reversed $181 $-1 #
edge $-1 $297 -10.559134956820611 $402 10.559134956820611 $281 $403 forward 7 unknown #
coedge $-1 $185 $184 $400 $404 forward $73 $-1 #
edge $-1 $288 -49.802545243690297 $402 49.802545243690297 $280 $405 forward 7 unknown #
coedge $-1 $293 $292 $185 $286 reversed $277 $-1 #
edge $-1 $406 -49.802545243690297 $287 49.802545243690297 $285 $407 forward 7 unknown #
vertex $-1 $187 $408 #
vertex $-1 $299 $409 #
straight-curve $-1 49.802545243690297 0 -10.559134956820611 0 -1 0 I I #
coedge $-1 $279 $281 $188 $291 reversed $181 $-1 #
edge $-1 $294 -33.596921349168397 $297 33.596921349168397 $290 $410 forward 7 unknown #
coedge $-1 $285 $189 $194 $300 forward $277 $-1 #
coedge $-1 $189 $285 $279 $401 reversed $277 $-1 #
vertex $-1 $190 $411 #
straight-curve $-1 0 33.596921349168397 10.559134956820611 -1 0 0 I I #
coedge $-1 $191 $280 $193 $299 reversed $113 $-1 #
vertex $-1 $291 $412 #
straight-curve $-1 0 -33.596921349168397 10.559134956820611 1 0 0 I I #
edge $-1 $196 -10.559134956820611 $288 10.559134956820611 $193 $413 forward 7 unknown #
edge $-1 $197 -10.559134956820611 $287 10.559134956820611 $194 $414 forward 7 unknown #
point $-1 49.802545243690297 -33.596921349168397 10.559134956820611 #
point $-1 49.802545243690297 33.596921349168397 10.559134956820611 #
face $-1 $-1 $319 $28 $-1 $415 forward single #
plane-surface $-1 -54.142795381393874 -12.478651435527176 0 0 -1 0 0 0 -1 forward_v I I I I #
coedge $-1 $416 $417 $322 $418 forward $200 $-1 #
coedge $-1 $315 $202 $203 $311 reversed $121 $-1 #
coedge $-1 $202 $315 $318 $419 reversed $121 $-1 #
coedge $-1 $417 $416 $202 $309 reversed $200 $-1 #
edge $-1 $420 -10.559134956820611 $421 10.559134956820611 $308 $422 forward 7 unknown #
coedge $-1 $204 $203 $416 $423 forward $77 $-1 #
edge $-1 $313 -4.3402501377035776 $421 4.3402501377035776 $306 $424 forward 7 unknown #
edge $-1 $425 -4.3402501377035776 $212 4.3402501377035776 $209 $426 forward 7 unknown #
vertex $-1 $311 $427 #
straight-curve $-1 -49.802545243690297 0 -10.559134956820611 0 -1 0 I I #
coedge $-1 $307 $306 $206 $316 reversed $121 $-1 #
edge $-1 $320 -10.559134956820611 $313 10.559134956820611 $315 $428 forward 7 unknown #
coedge $-1 $429 $207 $210 $323 forward $319 $-1 #
coedge $-1 $207 $429 $307 $419 forward $319 $-1 #
loop $-1 $-1 $207 $303 #
vertex $-1 $208 $430 #
straight-curve $-1 -49.802545243690297 0 10.559134956820611 0 1 0 I I #
coedge $-1 $210 $209 $305 $418 reversed $211 $-1 #
edge $-1 $213 -4.3402501377035776 $431 4.3402501377035776 $210 $432 forward 7 unknown #
point $-1 -49.802545243690297 -12.478651435527176 -10.559134956820611 #
point $-1 -49.802545243690297 -12.478651435527176 10.559134956820611 #
face $-1 $-1 $340 $29 $-1 $433 forward single #
loop $-1 $-1 $434 $215 #
plane-surface $-1 58.483045519097452 -14.840511472730011 0 -1 0 0 0 0 1 forward_v I I I I #
coedge $-1 $331 $435 $436 $437 forward $216 $-1 #
coedge $-1 $219 $218 $438 $439 forward $81 $-1 #
coedge $-1 $336 $329 $218 $332 reversed $216 $-1 #
edge $-1 $334 -4.3402501377035776 $440 4.3402501377035776 $331 $441 forward 7 unknown #
edge $-1 $442 -4.3402501377035776 $226 4.3402501377035776 $224 $443 forward 7 unknown #
vertex $-1 $332 $444 #
straight-curve $-1 49.802545243690297 0 -10.559134956820611 0 1 0 I I #
coedge $-1 $435 $331 $221 $337 reversed $216 $-1 #
edge $-1 $341 -10.559134956820611 $334 10.559134956820611 $336 $445 forward 7 unknown #
coedge $-1 $446 $222 $225 $344 forward $340 $-1 #
coedge $-1 $222 $446 $435 $447 forward $340 $-1 #
loop $-1 $-1 $222 $326 #
vertex $-1 $223 $448 #
straight-curve $-1 49.802545243690297 0 10.559134956820611 0 -1 0 I I #
coedge $-1 $225 $224 $434 $449 reversed $129 $-1 #
edge $-1 $227 -4.3402501377035776 $450 4.3402501377035776 $225 $451 forward 7 unknown #
point $-1 49.802545243690297 -17.202371509932846 -10.559134956820611 #
point $-1 49.802545243690297 -17.202371509932846 10.559134956820611 #
plane-surface $-1 0 0 10.559134956820611 0 0 1 1 0 0 forward_v I I I I #
coedge $-1 $358 $357 $350 $452 forward $230 $-1 #
coedge $-1 $350 $232 $234 $354 reversed $137 $-1 #
coedge $-1 $232 $349 $348 $452 reversed $137 $-1 #
coedge $-1 $240 $235 $232 $352 forward $241 $-1 #
edge $-1 $355 -11.189070483763075 $453 -5.7025613486587403 $351 $454 forward 7 unknown #
coedge $-1 $234 $233 $358 $455 reversed $85 $-1 #
edge $-1 $456 -67.193842698336795 $355 -57.382364014510458 $349 $457 forward 7 unknown #
vertex $-1 $236 $458 #
straight-curve $-1 8.0891826751268816 28.110412214064063 10.559134956820611 1 0 0 I I #
coedge $-1 $348 $237 $240 $362 reversed $230 $-1 #
coedge $-1 $237 $348 $353 $455 forward $230 $-1 #
vertex $-1 $238 $459 #
straight-curve $-1 6.6403651072211787 33.596921349168397 56.914864873997168 0 0 1 I I #
straight-curve $-1 6.6403651072211787 -3.977397840344068 58.131271190187398 0 0.55919289150049634 -0.82903758062907751 I I #
edge $-1 $453 -25.716365593286348 $242 -6.6403651072211787 $357 $460 forward 7 unknown #
point $-1 6.6403651072211787 33.596921349168397 10.559134956820611 #
point $-1 6.6403651072211787 28.110412214064063 10.559134956820607 #
edge $-1 $461 1 $461 0 $245 $-1 forward 7 unknown #
vertex $-1 $246 $462 #
ellipse-curve $-1 10.455565204434215 28.318773117733766 4.7822853692779539 0 0.82903758062907751 0.55919289150049634 1.5 0 0 1 I I #
point $-1 11.955565204434215 30.853666781616237 6.492092681604043 #
edge $-1 $463 1 $463 0 $249 $-1 forward 7 unknown #
vertex $-1 $250 $464 #
ellipse-curve $-1 16.178365350253763 28.318773117733766 4.7822853692779539 0 0.82903758062907751 0.55919289150049634 1.5 0 0 1 I I #
point $-1 17.678365350253763 30.853666781616237 6.492092681604043 #
edge $-1 $465 1 $465 0 $253 $-1 forward 7 unknown #
vertex $-1 $254 $466 #
ellipse-curve $-1 21.901165496073311 28.318773117733766 4.7822853692779539 0 0.82903758062907751 0.55919289150049634 1.5 0 0 1 I I #
point $-1 23.401165496073311 30.853666781616237 6.492092681604043 #
loop $-1 $-1 $265 $257 #
plane-surface $-1 0 -33.596921349168397 0 0 1 0 0 0 1 forward_v I I I I #
coedge $-1 $380 $260 $262 $384 reversed $166 $-1 #
coedge $-1 $260 $379 $467 $468 reversed $166 $-1 #
coedge $-1 $268 $263 $260 $382 forward $258 $-1 #
edge $-1 $385 -24.88938330907963 $469 -21.905386643958053 $381 $470 forward 7 unknown #
coedge $-1 $262 $261 $388 $471 reversed $104 $-1 #
edge $-1 $472 -2.2748066086763162e-014 $385 4.741617713353965 $379 $473 forward 7 unknown #
vertex $-1 $264 $474 #
straight-curve $-1 -13.544880755030043 -30.612924684046821 10.559134956820611 -1 0 0 I I #
coedge $-1 $467 $265 $268 $392 reversed $377 $-1 #
coedge $-1 $265 $467 $383 $471 forward $377 $-1 #
vertex $-1 $266 $475 #
straight-curve $-1 -21.159587887554871 -33.596921349168397 34.778859669536146 0 0 1 I I #
straight-curve $-1 -21.159587887554871 -33.596921349168383 6.8742058608765007 0 -0.62932038083071107 -0.77714596973225614 I I #
edge $-1 $469 -33.019935132565301 $269 -21.159587887554871 $387 $476 forward 7 unknown #
point $-1 -21.159587887554871 -33.596921349168397 10.559134956820611 #
point $-1 -21.159587887554871 -30.612924684046821 10.559134956820611 #
edge $-1 $477 1 $477 0 $272 $-1 forward 7 unknown #
vertex $-1 $273 $478 #
ellipse-curve $-1 -27.089761510060086 -30.820178608073828 7.6763049280532831 0 -0.77714596973225614 0.62932038083071107 1 0 0 1 I I #
point $-1 -26.089761510060086 -32.104923016607614 8.7166704088485574 #
plane-surface $-1 49.802545243690297 0 0 -1 0 0 0 0 1 forward_v I I I I #
coedge $-1 $281 $279 $283 $404 reversed $181 $-1 #
edge $-1 $294 -10.559134956820611 $406 10.559134956820611 $293 $479 forward 7 unknown #
vertex $-1 $404 $480 #
straight-curve $-1 -49.802545243690297 -33.596921349168397 0 0 0 -1 I I #
edge $-1 $402 -33.596921349168397 $406 33.596921349168397 $400 $481 forward 7 unknown #
straight-curve $-1 0 -33.596921349168397 -10.559134956820611 -1 0 0 I I #
vertex $-1 $286 $482 #
straight-curve $-1 0 33.596921349168397 -10.559134956820611 1 0 0 I I #
point $-1 49.802545243690297 33.596921349168397 -10.559134956820611 #
point $-1 49.802545243690297 -33.596921349168397 -10.559134956820611 #
straight-curve $-1 -49.802545243690297 0 10.559134956820611 0 -1 0 I I #
point $-1 -49.802545243690297 33.596921349168397 10.559134956820611 #
point $-1 -49.802545243690297 -33.596921349168397 10.559134956820611 #
straight-curve $-1 49.802545243690297 -33.596921349168397 0 0 0 -1 I I #
straight-curve $-1 49.802545243690297 33.596921349168397 0 0 0 -1 I I #
plane-surface $-1 0 0 10.559134956820611 0 0 1 1 0 0 forward_v I I I I #
coedge $-1 $308 $305 $310 $423 reversed $200 $-1 #
coedge $-1 $305 $308 $429 $483 reversed $200 $-1 #
edge $-1 $431 -10.559134956820611 $425 10.559134956820611 $322 $484 forward 7 unknown #
edge $-1 $420 -4.3402501377035776 $320 4.3402501377035776 $307 $485 forward 7 unknown #
vertex $-1 $483 $486 #
vertex $-1 $423 $487 #
straight-curve $-1 -58.483045519097452 -17.202371509932846 0 0 0 -1 I I #
edge $-1 $421 -2.3618600372028347 $425 2.3618600372028347 $416 $488 forward 7 unknown #
straight-curve $-1 -54.142795381393874 -17.202371509932846 -10.559134956820611 -1 0 0 I I #
vertex $-1 $312 $489 #
straight-curve $-1 -54.142795381393874 -12.478651435527176 -10.559134956820611 1 0 0 I I #
point $-1 -49.802545243690297 -17.202371509932846 -10.559134956820611 #
straight-curve $-1 -49.802545243690297 -17.202371509932846 0 0 0 -1 I I #
coedge $-1 $318 $317 $417 $483 forward $319 $-1 #
point $-1 -49.802545243690297 -17.202371509932846 10.559134956820611 #
vertex $-1 $323 $490 #
straight-curve $-1 -54.142795381393874 -12.478651435527176 10.559134956820611 -1 0 0 I I #
plane-surface $-1 0 0 10.559134956820611 0 0 1 1 0 0 forward_v I I I I #
coedge $-1 $438 $491 $343 $449 forward $327 $-1 #
coedge $-1 $329 $336 $339 $447 reversed $216 $-1 #
coedge $-1 $491 $438 $329 $437 reversed $327 $-1 #
edge $-1 $492 -10.559134956820611 $440 10.559134956820611 $436 $493 forward 7 unknown #
coedge $-1 $436 $434 $330 $439 reversed $327 $-1 #
edge $-1 $440 -2.3618600372028347 $442 2.3618600372028347 $438 $494 forward 7 unknown #
vertex $-1 $439 $495 #
straight-curve $-1 54.142795381393874 -12.478651435527176 -10.559134956820611 1 0 0 I I #
vertex $-1 $449 $496 #
straight-curve $-1 54.142795381393874 -17.202371509932846 -10.559134956820611 -1 0 0 I I #
point $-1 49.802545243690297 -12.478651435527176 -10.559134956820611 #
straight-curve $-1 49.802545243690297 -12.478651435527176 0 0 0 -1 I I #
coedge $-1 $339 $338 $491 $497 forward $340 $-1 #
edge $-1 $492 -4.3402501377035776 $341 4.3402501377035776 $435 $498 forward 7 unknown #
point $-1 49.802545243690297 -12.478651435527176 10.559134956820611 #
edge $-1 $450 -10.559134956820611 $442 10.559134956820611 $434 $499 forward 7 unknown #
vertex $-1 $497 $500 #
straight-curve $-1 54.142795381393874 -17.202371509932846 10.559134956820611 1 0 0 I I #
edge $-1 $453 46.355729917176561 $456 54.489814467609712 $348 $501 forward 7 unknown #
vertex $-1 $362 $502 #
straight-curve $-1 25.716365593286348 39.299482697827138 10.559134956820614 0 1 0 I I #
edge $-1 $456 -17.627182918159466 $359 1.4488175679057029 $358 $503 forward 7 unknown #
vertex $-1 $455 $504 #
straight-curve $-1 25.716365593286348 -3.977397840344068 58.131271190187398 0 -0.55919289150049634 0.82903758062907751 I I #
point $-1 25.716365593286348 28.110412214064063 10.559134956820607 #
point $-1 6.6403651072211787 33.596921349168397 2.4250504063874558 #
straight-curve $-1 0 33.596921349168397 10.559134956820611 -1 0 0 I I #
vertex $-1 $365 $505 #
point $-1 11.955565204434215 28.318773117733766 4.7822853692779539 #
vertex $-1 $369 $506 #
point $-1 17.678365350253763 28.318773117733766 4.7822853692779539 #
vertex $-1 $373 $507 #
point $-1 23.401165496073311 28.318773117733766 4.7822853692779539 #
coedge $-1 $388 $387 $380 $468 forward $377 $-1 #
edge $-1 $469 24.219724712715536 $472 27.904653808659663 $467 $508 forward 7 unknown #
vertex $-1 $392 $509 #
straight-curve $-1 -33.019935132565301 -55.50230799312645 10.559134956820611 0 -1 0 I I #
edge $-1 $472 -19.475054377535258 $389 -7.6147071325248277 $388 $510 forward 7 unknown #
vertex $-1 $471 $511 #
straight-curve $-1 -33.019935132565301 -33.596921349168383 6.8742058608765007 0 0.62932038083071107 0.77714596973225614 I I #
point $-1 -33.019935132565301 -30.612924684046821 10.559134956820611 #
point $-1 -21.159587887554871 -33.596921349168397 6.8742058608764829 #
straight-curve $-1 0 -33.596921349168397 10.559134956820611 1 0 0 I I #
vertex $-1 $395 $512 #
point $-1 -26.089761510060086 -30.820178608073828 7.6763049280532831 #
straight-curve $-1 -49.802545243690297 33.596921349168397 0 0 0 -1 I I #
point $-1 -49.802545243690297 -33.596921349168397 -10.559134956820611 #
straight-curve $-1 -49.802545243690297 0 -10.559134956820611 0 1 0 I I #
point $-1 -49.802545243690297 33.596921349168397 -10.559134956820611 #
edge $-1 $431 -2.3618600372028347 $420 2.3618600372028347 $417 $513 forward 7 unknown #
straight-curve $-1 -58.483045519097452 -12.478651435527176 0 0 0 -1 I I #
straight-curve $-1 -54.142795381393874 -17.202371509932846 10.559134956820611 1 0 0 I I #
point $-1 -58.483045519097452 -17.202371509932846 10.559134956820611 #
point $-1 -58.483045519097452 -17.202371509932846 -10.559134956820611 #
straight-curve $-1 -58.483045519097452 -14.840511472730011 -10.559134956820611 0 1 0 I I #
point $-1 -58.483045519097452 -12.478651435527176 -10.559134956820611 #
point $-1 -58.483045519097452 -12.478651435527176 10.559134956820611 #
coedge $-1 $434 $436 $446 $497 reversed $327 $-1 #
vertex $-1 $497 $514 #
straight-curve $-1 58.483045519097452 -12.478651435527176 0 0 0 -1 I I #
straight-curve $-1 58.483045519097452 -14.840511472730011 -10.559134956820611 0 -1 0 I I #
point $-1 58.483045519097452 -12.478651435527176 -10.559134956820611 #
point $-1 58.483045519097452 -17.202371509932846 -10.559134956820611 #
edge $-1 $450 -2.3618600372028347 $492 2.3618600372028347 $491 $515 forward 7 unknown #
straight-curve $-1 54.142795381393874 -12.478651435527176 10.559134956820611 -1 0 0 I I #
straight-curve $-1 58.483045519097452 -17.202371509932846 0 0 0 -1 I I #
point $-1 58.483045519097452 -17.202371509932846 10.559134956820611 #
straight-curve $-1 25.716365593286348 33.596921349168397 56.914864873997168 0 0 -1 I I #
point $-1 25.716365593286348 33.596921349168397 10.559134956820611 #
straight-curve $-1 8.0891826751268816 33.596921349168397 2.4250504063874523 -1 0 0 I I #
point $-1 25.716365593286348 33.596921349168397 2.4250504063874558 #
point $-1 10.455565204434215 27.075216746790151 3.943496032027209 #
point $-1 16.178365350253763 27.075216746790151 3.943496032027209 #
point $-1 21.901165496073311 27.075216746790151 3.943496032027209 #
straight-curve $-1 -33.019935132565301 -33.596921349168397 34.778859669536146 0 0 -1 I I #
point $-1 -33.019935132565301 -33.596921349168397 10.559134956820611 #
straight-curve $-1 -13.544880755030043 -33.596921349168397 6.8742058608764847 1 0 0 I I #
point $-1 -33.019935132565301 -33.596921349168397 6.8742058608764829 #
point $-1 -27.089761510060086 -30.043032638341575 7.0469845472225723 #
straight-curve $-1 -58.483045519097452 -14.840511472730011 10.559134956820611 0 -1 0 I I #
point $-1 58.483045519097452 -12.478651435527176 10.559134956820611 #
straight-curve $-1 58.483045519097452 -14.840511472730011 10.559134956820611 0 1 0 I I #
End-of-ACIS-data 