500 0 9 0           
7 Unknown 11 ACIS 5.0 NT 24 Thu Mar 25 17:32:32 1999 
-1 9.9999999999999995e-007 1e-010 
body $-1 $9 $-1 $10 #
body $-1 $11 $-1 $12 #
body $-1 $13 $-1 $14 #
body $-1 $15 $-1 $16 #
body $-1 $17 $-1 $18 #
body $-1 $19 $-1 $20 #
body $-1 $21 $-1 $22 #
body $-1 $23 $-1 $24 #
body $-1 $25 $-1 $26 #
lump $-1 $-1 $27 $0 #
transform $-1 1 0 0 0 1 0 0 0 1 67.672963652455209 33.357956917683218 11.973518310850531 1 rotate no_reflect no_shear #
lump $-1 $-1 $28 $1 #
transform $-1 1 0 0 0 1 0 0 0 1 67.672963652455209 33.357956917683218 11.973518310850531 1 rotate no_reflect no_shear #
lump $-1 $-1 $29 $2 #
transform $-1 1 0 0 0 1 0 0 0 1 67.672963652455209 33.357956917683218 11.973518310850531 1 rotate no_reflect no_shear #
lump $-1 $-1 $30 $3 #
transform $-1 1 0 0 0 1 0 0 0 1 67.672963652455209 33.357956917683218 11.973518310850531 1 rotate no_reflect no_shear #
lump $-1 $-1 $31 $4 #
transform $-1 1 0 0 0 1 0 0 0 1 67.672963652455209 33.357956917683218 11.973518310850531 1 rotate no_reflect no_shear #
lump $-1 $-1 $32 $5 #
transform $-1 1 0 0 0 1 0 0 0 1 67.672963652455209 33.357956917683218 11.973518310850531 1 rotate no_reflect no_shear #
lump $-1 $-1 $33 $6 #
transform $-1 1 0 0 0 1 0 0 0 1 67.672963652455209 33.357956917683218 11.973518310850531 1 rotate no_reflect no_shear #
lump $-1 $-1 $34 $7 #
transform $-1 1 0 0 0 1 0 0 0 1 67.672963652455209 33.357956917683218 11.973518310850531 1 rotate no_reflect no_shear #
lump $-1 $-1 $35 $8 #
transform $-1 1 0 0 0 1 0 0 0 1 67.672963652455209 33.357956917683218 11.973518310850531 1 rotate no_reflect no_shear #
shell $-1 $-1 $-1 $36 $-1 $9 #
shell $-1 $-1 $-1 $37 $-1 $11 #
shell $-1 $-1 $-1 $38 $-1 $13 #
shell $-1 $-1 $-1 $39 $-1 $15 #
shell $-1 $-1 $-1 $40 $-1 $17 #
shell $-1 $-1 $-1 $41 $-1 $19 #
shell $-1 $-1 $-1 $42 $-1 $21 #
shell $-1 $-1 $-1 $43 $-1 $23 #
shell $-1 $-1 $-1 $44 $-1 $25 #
face $-1 $45 $46 $27 $-1 $47 forward single #
face $-1 $48 $49 $28 $-1 $50 reversed single #
face $-1 $51 $52 $29 $-1 $53 forward single #
face $-1 $54 $55 $30 $-1 $56 forward single #
face $-1 $57 $58 $31 $-1 $59 forward single #
face $-1 $60 $61 $32 $-1 $62 reversed single #
face $-1 $63 $64 $33 $-1 $65 forward single #
face $-1 $66 $67 $34 $-1 $68 forward single #
face $-1 $69 $70 $35 $-1 $71 forward single #
face $-1 $72 $73 $27 $-1 $74 reversed single #
loop $-1 $-1 $75 $36 #
plane-surface $-1 0 0 11.973518310850531 0 0 1 1 0 0 forward_v I I I I #
face $-1 $76 $77 $28 $-1 $78 reversed single #
loop $-1 $-1 $79 $37 #
plane-surface $-1 -37.363391350062606 -148.13781396370419 77.252161383461342 -1 0 0 0 -0.84804810408105047 0.52991925155115449 forward_v I I I I #
face $-1 $80 $81 $29 $-1 $82 forward single #
loop $-1 $83 $84 $38 #
cone-surface $-1 -55.277116903519428 -29.995605471871368 7.9086258200685249 0 0.84804810408105047 -0.52991925155115449 1.5 0 0 1 I I 0 1 1.5 forward I I I I #
face $-1 $85 $86 $30 $-1 $87 forward single #
loop $-1 $88 $89 $39 #
cone-surface $-1 -48.559469820973121 -29.995605471871368 7.9086258200685249 0 0.84804810408105047 -0.52991925155115449 1.5 0 0 1 I I 0 1 1.5 forward I I I I #
face $-1 $90 $91 $31 $-1 $92 forward single #
loop $-1 $93 $94 $40 #
cone-surface $-1 -41.841822738426814 -29.995605471871368 7.9086258200685249 0 0.84804810408105047 -0.52991925155115449 1.5 0 0 1 I I 0 1 1.5 forward I I I I #
face $-1 $95 $96 $32 $-1 $97 reversed single #
loop $-1 $-1 $98 $41 #
plane-surface $-1 30.309572302392603 -148.13781396370419 77.252161383461342 -1 0 0 0 -0.84804810408105047 0.52991925155115449 forward_v I I I I #
face $-1 $99 $100 $33 $-1 $101 forward single #
loop $-1 $102 $103 $42 #
cone-surface $-1 12.395846748935782 -29.995605471871368 7.9086258200685249 0 0.84804810408105047 -0.52991925155115449 1.5 0 0 1 I I 0 1 1.5 forward I I I I #
face $-1 $104 $105 $34 $-1 $106 forward single #
loop $-1 $107 $108 $43 #
cone-surface $-1 19.113493831482089 -29.995605471871368 7.9086258200685249 0 0.84804810408105047 -0.52991925155115449 1.5 0 0 1 I I 0 1 1.5 forward I I I I #
face $-1 $109 $110 $35 $-1 $111 forward single #
loop $-1 $112 $113 $44 #
cone-surface $-1 25.831140914028396 -29.995605471871368 7.9086258200685249 0 0.84804810408105047 -0.52991925155115449 1.5 0 0 1 I I 0 1 1.5 forward I I I I #
face $-1 $114 $115 $27 $-1 $116 reversed single #
loop $-1 $-1 $117 $45 #
plane-surface $-1 0 0 -11.973518310850531 0 0 1 1 0 0 forward_v I I I I #
coedge $-1 $118 $119 $120 $121 forward $46 $-1 #
face $-1 $122 $123 $28 $-1 $124 reversed single #
loop $-1 $-1 $125 $48 #
plane-surface $-1 -48.559469820973121 -33.357956917683225 5.5297488855462547 0 -0.84804810408105047 0.52991925155115449 1 0 0 forward_v I I I I #
coedge $-1 $126 $127 $128 $129 reversed $49 $-1 #
face $-1 $-1 $130 $29 $-1 $131 forward single #
loop $-1 $132 $133 $51 #
cone-surface $-1 -55.277116903519428 -28.01047489332592 6.6681786032752957 0 0.84804810408105047 -0.52991925155115449 0.75 0 0 1 I I -0.70710678118654757 0.70710678118654757 0.75 forward I I I I #
loop $-1 $-1 $134 $38 #
coedge $-1 $84 $84 $135 $136 reversed $52 $-1 #
face $-1 $-1 $137 $30 $-1 $138 forward single #
loop $-1 $139 $140 $54 #
cone-surface $-1 -48.559469820973121 -28.01047489332592 6.6681786032752957 0 0.84804810408105047 -0.52991925155115449 0.75 0 0 1 I I -0.70710678118654757 0.70710678118654757 0.75 forward I I I I #
loop $-1 $-1 $141 $39 #
coedge $-1 $89 $89 $142 $143 reversed $55 $-1 #
face $-1 $-1 $144 $31 $-1 $145 forward single #
loop $-1 $146 $147 $57 #
cone-surface $-1 -41.841822738426814 -28.01047489332592 6.6681786032752957 0 0.84804810408105047 -0.52991925155115449 0.75 0 0 1 I I -0.70710678118654757 0.70710678118654757 0.75 forward I I I I #
loop $-1 $-1 $148 $40 #
coedge $-1 $94 $94 $149 $150 reversed $58 $-1 #
face $-1 $151 $152 $32 $-1 $153 reversed single #
loop $-1 $-1 $154 $60 #
plane-surface $-1 19.113493831482089 -33.357956917683225 5.5297488855462547 0 -0.84804810408105047 0.52991925155115449 1 0 0 forward_v I I I I #
coedge $-1 $155 $156 $157 $158 reversed $61 $-1 #
face $-1 $-1 $159 $33 $-1 $160 forward single #
loop $-1 $161 $162 $63 #
cone-surface $-1 12.395846748935782 -28.01047489332592 6.6681786032752957 0 0.84804810408105047 -0.52991925155115449 0.75 0 0 1 I I -0.70710678118654757 0.70710678118654757 0.75 forward I I I I #
loop $-1 $-1 $163 $42 #
coedge $-1 $103 $103 $164 $165 reversed $64 $-1 #
face $-1 $-1 $166 $34 $-1 $167 forward single #
loop $-1 $168 $169 $66 #
cone-surface $-1 19.113493831482089 -28.01047489332592 6.6681786032752957 0 0.84804810408105047 -0.52991925155115449 0.75 0 0 1 I I -0.70710678118654757 0.70710678118654757 0.75 forward I I I I #
loop $-1 $-1 $170 $43 #
coedge $-1 $108 $108 $171 $172 reversed $67 $-1 #
face $-1 $-1 $173 $35 $-1 $174 forward single #
loop $-1 $175 $176 $69 #
cone-surface $-1 25.831140914028396 -28.01047489332592 6.6681786032752957 0 0.84804810408105047 -0.52991925155115449 0.75 0 0 1 I I -0.70710678118654757 0.70710678118654757 0.75 forward I I I I #
loop $-1 $-1 $177 $44 #
coedge $-1 $113 $113 $178 $179 reversed $70 $-1 #
face $-1 $180 $181 $27 $-1 $182 reversed single #
loop $-1 $-1 $183 $72 #
plane-surface $-1 0 -33.357956917683218 0 0 1 0 0 0 1 forward_v I I I I #
coedge $-1 $184 $185 $186 $187 forward $73 $-1 #
coedge $-1 $188 $75 $189 $190 forward $46 $-1 #
coedge $-1 $75 $188 $191 $192 forward $46 $-1 #
coedge $-1 $193 $194 $75 $121 reversed $195 $-1 #
edge $-1 $196 -33.357956917683218 $197 33.357956917683218 $120 $198 forward 7 unknown #
face $-1 $199 $200 $28 $-1 $201 reversed single #
loop $-1 $-1 $202 $76 #
plane-surface $-1 -59.755548291883635 -148.13781396370419 77.252161383461342 1 0 0 0 0.84804810408105047 -0.52991925155115449 forward_v I I I I #
coedge $-1 $203 $204 $205 $206 reversed $77 $-1 #
coedge $-1 $127 $79 $207 $208 reversed $49 $-1 #
coedge $-1 $79 $126 $203 $209 reversed $49 $-1 #
coedge $-1 $205 $210 $79 $129 forward $211 $-1 #
edge $-1 $212 40.710950064168877 $213 44.737463954823241 $128 $214 forward 7 unknown #
loop $-1 $-1 $135 $80 #
plane-surface $-1 -48.559469820973121 -33.357956917683225 5.5297488855462547 0 -0.84804810408105047 0.52991925155115449 1 0 0 forward_v I I I I #
loop $-1 $-1 $215 $51 #
coedge $-1 $133 $133 $134 $216 reversed $81 $-1 #
coedge $-1 $134 $134 $133 $216 forward $83 $-1 #
coedge $-1 $135 $135 $84 $136 forward $130 $-1 #
edge $-1 $217 -5.0267026812223208e-016 $217 6.2831853071795996 $135 $218 forward 7 unknown #
loop $-1 $-1 $142 $85 #
plane-surface $-1 -48.559469820973121 -33.357956917683225 5.5297488855462547 0 -0.84804810408105047 0.52991925155115449 1 0 0 forward_v I I I I #
loop $-1 $-1 $219 $54 #
coedge $-1 $140 $140 $141 $220 reversed $86 $-1 #
coedge $-1 $141 $141 $140 $220 forward $88 $-1 #
coedge $-1 $142 $142 $89 $143 forward $137 $-1 #
edge $-1 $221 -5.0267026812223208e-016 $221 6.2831853071795996 $142 $222 forward 7 unknown #
loop $-1 $-1 $149 $90 #
plane-surface $-1 -48.559469820973121 -33.357956917683225 5.5297488855462547 0 -0.84804810408105047 0.52991925155115449 1 0 0 forward_v I I I I #
loop $-1 $-1 $223 $57 #
coedge $-1 $147 $147 $148 $224 reversed $91 $-1 #
coedge $-1 $148 $148 $147 $224 forward $93 $-1 #
coedge $-1 $149 $149 $94 $150 forward $144 $-1 #
edge $-1 $225 -5.0267026812223208e-016 $225 6.2831853071795996 $149 $226 forward 7 unknown #
face $-1 $227 $228 $32 $-1 $229 reversed single #
loop $-1 $-1 $230 $95 #
plane-surface $-1 7.9174153605715727 -148.13781396370419 77.252161383461342 1 0 0 0 0.84804810408105047 -0.52991925155115449 forward_v I I I I #
coedge $-1 $231 $232 $233 $234 reversed $96 $-1 #
coedge $-1 $156 $98 $235 $236 reversed $61 $-1 #
coedge $-1 $98 $155 $231 $237 reversed $61 $-1 #
coedge $-1 $233 $238 $98 $158 forward $239 $-1 #
edge $-1 $240 40.710950064168877 $241 44.737463954823241 $157 $242 forward 7 unknown #
loop $-1 $-1 $164 $99 #
plane-surface $-1 19.113493831482089 -33.357956917683225 5.5297488855462547 0 -0.84804810408105047 0.52991925155115449 1 0 0 forward_v I I I I #
loop $-1 $-1 $243 $63 #
coedge $-1 $162 $162 $163 $244 reversed $100 $-1 #
coedge $-1 $163 $163 $162 $244 forward $102 $-1 #
coedge $-1 $164 $164 $103 $165 forward $159 $-1 #
edge $-1 $245 -5.0267026812223208e-016 $245 6.2831853071795996 $164 $246 forward 7 unknown #
loop $-1 $-1 $171 $104 #
plane-surface $-1 19.113493831482089 -33.357956917683225 5.5297488855462547 0 -0.84804810408105047 0.52991925155115449 1 0 0 forward_v I I I I #
loop $-1 $-1 $247 $66 #
coedge $-1 $169 $169 $170 $248 reversed $105 $-1 #
coedge $-1 $170 $170 $169 $248 forward $107 $-1 #
coedge $-1 $171 $171 $108 $172 forward $166 $-1 #
edge $-1 $249 -5.0267026812223208e-016 $249 6.2831853071795996 $171 $250 forward 7 unknown #
loop $-1 $-1 $178 $109 #
plane-surface $-1 19.113493831482089 -33.357956917683225 5.5297488855462547 0 -0.84804810408105047 0.52991925155115449 1 0 0 forward_v I I I I #
loop $-1 $-1 $251 $69 #
coedge $-1 $176 $176 $177 $252 reversed $110 $-1 #
coedge $-1 $177 $177 $176 $252 forward $112 $-1 #
coedge $-1 $178 $178 $113 $179 forward $173 $-1 #
edge $-1 $253 -5.0267026812223208e-016 $253 6.2831853071795996 $178 $254 forward 7 unknown #
face $-1 $255 $256 $27 $-1 $257 reversed single #
loop $-1 $-1 $258 $114 #
plane-surface $-1 -67.672963652455209 0 0 1 0 0 0 0 -1 forward_v I I I I #
coedge $-1 $259 $191 $260 $261 forward $115 $-1 #
coedge $-1 $262 $117 $259 $263 forward $73 $-1 #
coedge $-1 $117 $262 $264 $265 forward $73 $-1 #
coedge $-1 $194 $193 $117 $187 reversed $195 $-1 #
edge $-1 $266 -33.357956917683218 $267 33.357956917683218 $186 $268 forward 7 unknown #
coedge $-1 $119 $118 $269 $270 forward $46 $-1 #
coedge $-1 $271 $272 $118 $190 reversed $256 $-1 #
edge $-1 $197 -67.672963652455209 $273 67.672963652455209 $189 $274 forward 7 unknown #
coedge $-1 $183 $275 $119 $192 reversed $115 $-1 #
edge $-1 $276 -67.672963652455209 $196 67.672963652455209 $191 $277 forward 7 unknown #
coedge $-1 $186 $120 $275 $278 forward $195 $-1 #
coedge $-1 $120 $186 $271 $279 reversed $195 $-1 #
loop $-1 $-1 $193 $255 #
vertex $-1 $121 $280 #
vertex $-1 $121 $281 #
straight-curve $-1 67.672963652455209 0 11.973518310850531 0 1 0 I I #
face $-1 $-1 $211 $28 $-1 $282 forward single #
loop $-1 $-1 $283 $122 #
plane-surface $-1 0 -33.357956917683218 0 0 1 0 0 0 1 forward_v I I I I #
coedge $-1 $284 $285 $286 $287 reversed $123 $-1 #
coedge $-1 $288 $125 $127 $209 forward $77 $-1 #
coedge $-1 $125 $288 $284 $289 forward $77 $-1 #
coedge $-1 $286 $128 $125 $206 forward $211 $-1 #
edge $-1 $213 13.083656439576046 $290 35.475813381397074 $205 $291 forward 7 unknown #
coedge $-1 $292 $293 $126 $208 forward $200 $-1 #
edge $-1 $294 -33.096331806184402 $212 -26.652562380880141 $207 $295 forward 7 unknown #
edge $-1 $213 -7.5983536715606235 $294 -1.3557137071152151e-014 $127 $296 forward 7 unknown #
coedge $-1 $128 $286 $292 $297 forward $211 $-1 #
loop $-1 $-1 $286 $199 #
vertex $-1 $208 $298 #
vertex $-1 $129 $299 #
straight-curve $-1 -37.363391350062606 -74.068906981852095 11.97351831085053 0 1 0 I I #
coedge $-1 $215 $215 $-1 $300 reversed $132 $-1 #
edge $-1 $301 0 $301 6.2831853071796004 $133 $302 forward 7 unknown #
vertex $-1 $136 $303 #
ellipse-curve $-1 -55.277116903519428 -31.344699972356036 8.7516335981983939 0 -0.84804810408105047 0.52991925155115449 1.5 0 0 1 I I #
coedge $-1 $219 $219 $-1 $304 reversed $139 $-1 #
edge $-1 $305 0 $305 6.2831853071796004 $140 $306 forward 7 unknown #
vertex $-1 $143 $307 #
ellipse-curve $-1 -48.559469820973121 -31.344699972356036 8.7516335981983939 0 -0.84804810408105047 0.52991925155115449 1.5 0 0 1 I I #
coedge $-1 $223 $223 $-1 $308 reversed $146 $-1 #
edge $-1 $309 0 $309 6.2831853071796004 $147 $310 forward 7 unknown #
vertex $-1 $150 $311 #
ellipse-curve $-1 -41.841822738426814 -31.344699972356036 8.7516335981983939 0 -0.84804810408105047 0.52991925155115449 1.5 0 0 1 I I #
face $-1 $-1 $239 $32 $-1 $312 forward single #
loop $-1 $-1 $313 $151 #
plane-surface $-1 0 -33.357956917683218 0 0 1 0 0 0 1 forward_v I I I I #
coedge $-1 $314 $315 $316 $317 reversed $152 $-1 #
coedge $-1 $318 $154 $156 $237 forward $96 $-1 #
coedge $-1 $154 $318 $314 $319 forward $96 $-1 #
coedge $-1 $316 $157 $154 $234 forward $239 $-1 #
edge $-1 $241 -20.752825386651558 $320 1.6393315551694716 $233 $321 forward 7 unknown #
coedge $-1 $322 $323 $155 $236 forward $228 $-1 #
edge $-1 $324 -33.096331806184402 $240 -26.652562380880141 $235 $325 forward 7 unknown #
edge $-1 $241 -7.5983536715606235 $324 -1.3557137071152151e-014 $156 $326 forward 7 unknown #
coedge $-1 $157 $316 $322 $327 forward $239 $-1 #
loop $-1 $-1 $316 $227 #
vertex $-1 $236 $328 #
vertex $-1 $158 $329 #
straight-curve $-1 30.309572302392603 -74.068906981852095 11.97351831085053 0 1 0 I I #
coedge $-1 $243 $243 $-1 $330 reversed $161 $-1 #
edge $-1 $331 0 $331 6.2831853071796004 $162 $332 forward 7 unknown #
vertex $-1 $165 $333 #
ellipse-curve $-1 12.395846748935782 -31.344699972356036 8.7516335981983939 0 -0.84804810408105047 0.52991925155115449 1.5 0 0 1 I I #
coedge $-1 $247 $247 $-1 $334 reversed $168 $-1 #
edge $-1 $335 0 $335 6.2831853071796004 $169 $336 forward 7 unknown #
vertex $-1 $172 $337 #
ellipse-curve $-1 19.113493831482089 -31.344699972356036 8.7516335981983939 0 -0.84804810408105047 0.52991925155115449 1.5 0 0 1 I I #
coedge $-1 $251 $251 $-1 $338 reversed $175 $-1 #
edge $-1 $339 0 $339 6.2831853071796004 $176 $340 forward 7 unknown #
vertex $-1 $179 $341 #
ellipse-curve $-1 25.831140914028396 -31.344699972356036 8.7516335981983939 0 -0.84804810408105047 0.52991925155115449 1.5 0 0 1 I I #
face $-1 $-1 $195 $27 $-1 $342 reversed single #
loop $-1 $-1 $271 $180 #
plane-surface $-1 0 33.357956917683218 0 0 -1 0 0 0 -1 forward_v I I I I #
coedge $-1 $343 $269 $272 $344 forward $181 $-1 #
coedge $-1 $275 $183 $184 $263 reversed $115 $-1 #
coedge $-1 $269 $343 $183 $261 reversed $181 $-1 #
edge $-1 $276 -11.973518310850531 $345 11.973518310850531 $260 $346 forward 7 unknown #
coedge $-1 $185 $184 $343 $347 forward $73 $-1 #
edge $-1 $267 -67.672963652455209 $345 67.672963652455209 $259 $348 forward 7 unknown #
coedge $-1 $272 $271 $185 $265 reversed $256 $-1 #
edge $-1 $349 -67.672963652455209 $266 67.672963652455209 $264 $350 forward 7 unknown #
vertex $-1 $187 $351 #
vertex $-1 $278 $352 #
straight-curve $-1 67.672963652455209 0 -11.973518310850531 0 -1 0 I I #
coedge $-1 $258 $260 $188 $270 reversed $181 $-1 #
edge $-1 $273 -33.357956917683218 $276 33.357956917683218 $269 $353 forward 7 unknown #
coedge $-1 $264 $189 $194 $279 forward $256 $-1 #
coedge $-1 $189 $264 $258 $344 reversed $256 $-1 #
vertex $-1 $190 $354 #
straight-curve $-1 0 33.357956917683218 11.973518310850531 -1 0 0 I I #
coedge $-1 $191 $259 $193 $278 reversed $115 $-1 #
vertex $-1 $270 $355 #
straight-curve $-1 0 -33.357956917683218 11.973518310850531 1 0 0 I I #
edge $-1 $196 -11.973518310850531 $267 11.973518310850531 $193 $356 forward 7 unknown #
edge $-1 $197 -11.973518310850531 $266 11.973518310850531 $194 $357 forward 7 unknown #
point $-1 67.672963652455209 -33.357956917683218 11.973518310850531 #
point $-1 67.672963652455209 33.357956917683218 11.973518310850531 #
plane-surface $-1 0 0 11.973518310850531 0 0 1 1 0 0 forward_v I I I I #
coedge $-1 $293 $292 $285 $358 forward $200 $-1 #
coedge $-1 $285 $202 $204 $289 reversed $123 $-1 #
coedge $-1 $202 $284 $283 $358 reversed $123 $-1 #
coedge $-1 $210 $205 $202 $287 forward $211 $-1 #
edge $-1 $290 -44.737463954823241 $359 -40.710950064168877 $286 $360 forward 7 unknown #
coedge $-1 $204 $203 $293 $361 reversed $77 $-1 #
edge $-1 $362 1.3557137071152151e-014 $290 7.5983536715606235 $284 $363 forward 7 unknown #
vertex $-1 $206 $364 #
straight-curve $-1 -24.27973491048656 -29.33144302702885 11.973518310850531 -1 0 0 I I #
coedge $-1 $283 $207 $210 $297 reversed $200 $-1 #
coedge $-1 $207 $283 $288 $361 forward $200 $-1 #
vertex $-1 $208 $365 #
straight-curve $-1 -37.363391350062606 -33.357956917683218 38.626080691730671 0 0 1 I I #
straight-curve $-1 -37.363391350062606 -33.357956917683225 5.5297488855462547 0 -0.52991925155115449 -0.84804810408105047 I I #
edge $-1 $359 -59.755548291883635 $212 -37.363391350062606 $292 $366 forward 7 unknown #
point $-1 -37.363391350062606 -33.357956917683218 11.973518310850531 #
point $-1 -37.363391350062606 -29.331443027028854 11.973518310850531 #
edge $-1 $367 1 $367 0 $215 $-1 forward 7 unknown #
vertex $-1 $216 $368 #
ellipse-curve $-1 -55.277116903519428 -28.646510971386707 7.0656180419386612 0 -0.84804810408105047 0.52991925155115449 1.5 0 0 1 I I #
point $-1 -53.777116903519428 -31.344699972356029 8.7516335981983886 #
edge $-1 $369 1 $369 0 $219 $-1 forward 7 unknown #
vertex $-1 $220 $370 #
ellipse-curve $-1 -48.559469820973121 -28.646510971386707 7.0656180419386612 0 -0.84804810408105047 0.52991925155115449 1.5 0 0 1 I I #
point $-1 -47.059469820973121 -31.344699972356029 8.7516335981983886 #
edge $-1 $371 1 $371 0 $223 $-1 forward 7 unknown #
vertex $-1 $224 $372 #
ellipse-curve $-1 -41.841822738426814 -28.646510971386707 7.0656180419386612 0 -0.84804810408105047 0.52991925155115449 1.5 0 0 1 I I #
point $-1 -40.341822738426814 -31.344699972356029 8.7516335981983886 #
plane-surface $-1 0 0 11.973518310850531 0 0 1 1 0 0 forward_v I I I I #
coedge $-1 $323 $322 $315 $373 forward $228 $-1 #
coedge $-1 $315 $230 $232 $319 reversed $152 $-1 #
coedge $-1 $230 $314 $313 $373 reversed $152 $-1 #
coedge $-1 $238 $233 $230 $317 forward $239 $-1 #
edge $-1 $320 -44.737463954823241 $374 -40.710950064168877 $316 $375 forward 7 unknown #
coedge $-1 $232 $231 $323 $376 reversed $96 $-1 #
edge $-1 $377 1.3557137071152151e-014 $320 7.5983536715606235 $314 $378 forward 7 unknown #
vertex $-1 $234 $379 #
straight-curve $-1 9.5567469157410443 -29.33144302702885 11.973518310850531 -1 0 0 I I #
coedge $-1 $313 $235 $238 $327 reversed $228 $-1 #
coedge $-1 $235 $313 $318 $376 forward $228 $-1 #
vertex $-1 $236 $380 #
straight-curve $-1 30.309572302392603 -33.357956917683218 38.626080691730671 0 0 1 I I #
straight-curve $-1 30.309572302392603 -33.357956917683225 5.5297488855462547 0 -0.52991925155115449 -0.84804810408105047 I I #
edge $-1 $374 7.9174153605715727 $240 30.309572302392603 $322 $381 forward 7 unknown #
point $-1 30.309572302392603 -33.357956917683218 11.973518310850531 #
point $-1 30.309572302392603 -29.331443027028854 11.973518310850531 #
edge $-1 $382 1 $382 0 $243 $-1 forward 7 unknown #
vertex $-1 $244 $383 #
ellipse-curve $-1 12.395846748935782 -28.646510971386707 7.0656180419386612 0 -0.84804810408105047 0.52991925155115449 1.5 0 0 1 I I #
point $-1 13.895846748935782 -31.344699972356029 8.7516335981983886 #
edge $-1 $384 1 $384 0 $247 $-1 forward 7 unknown #
vertex $-1 $248 $385 #
ellipse-curve $-1 19.113493831482089 -28.646510971386707 7.0656180419386612 0 -0.84804810408105047 0.52991925155115449 1.5 0 0 1 I I #
point $-1 20.613493831482089 -31.344699972356029 8.7516335981983886 #
edge $-1 $386 1 $386 0 $251 $-1 forward 7 unknown #
vertex $-1 $252 $387 #
ellipse-curve $-1 25.831140914028396 -28.646510971386707 7.0656180419386612 0 -0.84804810408105047 0.52991925155115449 1.5 0 0 1 I I #
point $-1 27.331140914028396 -31.344699972356029 8.7516335981983886 #
plane-surface $-1 67.672963652455209 0 0 -1 0 0 0 0 1 forward_v I I I I #
coedge $-1 $260 $258 $262 $347 reversed $181 $-1 #
edge $-1 $273 -11.973518310850531 $349 11.973518310850531 $272 $388 forward 7 unknown #
vertex $-1 $347 $389 #
straight-curve $-1 -67.672963652455209 -33.357956917683218 0 0 0 -1 I I #
edge $-1 $345 -33.357956917683218 $349 33.357956917683218 $343 $390 forward 7 unknown #
straight-curve $-1 0 -33.357956917683218 -11.973518310850531 -1 0 0 I I #
vertex $-1 $265 $391 #
straight-curve $-1 0 33.357956917683218 -11.973518310850531 1 0 0 I I #
point $-1 67.672963652455209 33.357956917683218 -11.973518310850531 #
point $-1 67.672963652455209 -33.357956917683218 -11.973518310850531 #
straight-curve $-1 -67.672963652455209 0 11.973518310850531 0 -1 0 I I #
point $-1 -67.672963652455209 33.357956917683218 11.973518310850531 #
point $-1 -67.672963652455209 -33.357956917683218 11.973518310850531 #
straight-curve $-1 67.672963652455209 -33.357956917683218 0 0 0 -1 I I #
straight-curve $-1 67.672963652455209 33.357956917683218 0 0 0 -1 I I #
edge $-1 $359 26.652562380880141 $362 33.096331806184402 $283 $392 forward 7 unknown #
vertex $-1 $297 $393 #
straight-curve $-1 -59.755548291883635 -74.068906981852095 11.97351831085053 0 -1 0 I I #
edge $-1 $362 -35.475813381397074 $294 -13.083656439576046 $293 $394 forward 7 unknown #
vertex $-1 $361 $395 #
straight-curve $-1 -59.755548291883635 -33.357956917683225 5.5297488855462547 0 0.52991925155115449 0.84804810408105047 I I #
point $-1 -59.755548291883635 -29.331443027028854 11.973518310850531 #
point $-1 -37.363391350062606 -33.357956917683218 5.5297488855462662 #
straight-curve $-1 0 -33.357956917683218 11.973518310850531 1 0 0 I I #
vertex $-1 $300 $396 #
point $-1 -53.777116903519428 -28.646510971386707 7.0656180419386612 #
vertex $-1 $304 $397 #
point $-1 -47.059469820973121 -28.646510971386707 7.0656180419386612 #
vertex $-1 $308 $398 #
point $-1 -40.341822738426814 -28.646510971386707 7.0656180419386612 #
edge $-1 $374 26.652562380880141 $377 33.096331806184402 $313 $399 forward 7 unknown #
vertex $-1 $327 $400 #
straight-curve $-1 7.9174153605715727 -74.068906981852095 11.97351831085053 0 -1 0 I I #
edge $-1 $377 -1.6393315551694716 $324 20.752825386651558 $323 $401 forward 7 unknown #
vertex $-1 $376 $402 #
straight-curve $-1 7.9174153605715727 -33.357956917683225 5.5297488855462547 0 0.52991925155115449 0.84804810408105047 I I #
point $-1 7.9174153605715727 -29.331443027028854 11.973518310850531 #
point $-1 30.309572302392603 -33.357956917683218 5.5297488855462662 #
straight-curve $-1 0 -33.357956917683218 11.973518310850531 1 0 0 I I #
vertex $-1 $330 $403 #
point $-1 13.895846748935782 -28.646510971386707 7.0656180419386612 #
vertex $-1 $334 $404 #
point $-1 20.613493831482089 -28.646510971386707 7.0656180419386612 #
vertex $-1 $338 $405 #
point $-1 27.331140914028396 -28.646510971386707 7.0656180419386612 #
straight-curve $-1 -67.672963652455209 33.357956917683218 0 0 0 -1 I I #
point $-1 -67.672963652455209 -33.357956917683218 -11.973518310850531 #
straight-curve $-1 -67.672963652455209 0 -11.973518310850531 0 1 0 I I #
point $-1 -67.672963652455209 33.357956917683218 -11.973518310850531 #
straight-curve $-1 -59.755548291883635 -33.357956917683218 38.626080691730671 0 0 -1 I I #
point $-1 -59.755548291883635 -33.357956917683218 11.973518310850531 #
straight-curve $-1 -24.27973491048656 -33.357956917683218 5.5297488855462671 1 0 0 I I #
point $-1 -59.755548291883635 -33.357956917683218 5.5297488855462662 #
point $-1 -55.277116903519428 -27.374438815265133 6.2707391646119301 #
point $-1 -48.559469820973121 -27.374438815265133 6.2707391646119301 #
point $-1 -41.841822738426814 -27.374438815265133 6.2707391646119301 #
straight-curve $-1 7.9174153605715727 -33.357956917683218 38.626080691730671 0 0 -1 I I #
point $-1 7.9174153605715727 -33.357956917683218 11.973518310850531 #
straight-curve $-1 9.5567469157410443 -33.357956917683218 5.5297488855462671 1 0 0 I I #
point $-1 7.9174153605715727 -33.357956917683218 5.5297488855462662 #
point $-1 12.395846748935782 -27.374438815265133 6.2707391646119301 #
point $-1 19.113493831482089 -27.374438815265133 6.2707391646119301 #
point $-1 25.831140914028396 -27.374438815265133 6.2707391646119301 #
End-of-ACIS-data 