500 0 10 0           
7 Unknown 11 ACIS 5.0 NT 24 Thu Mar 25 22:23:21 1999 
-1 9.9999999999999995e-007 1e-010 
body $-1 $10 $-1 $11 #
body $-1 $12 $-1 $13 #
body $-1 $14 $-1 $15 #
body $-1 $16 $-1 $17 #
body $-1 $18 $-1 $19 #
body $-1 $20 $-1 $21 #
body $-1 $22 $-1 $23 #
body $-1 $24 $-1 $25 #
body $-1 $26 $-1 $27 #
body $-1 $28 $-1 $29 #
lump $-1 $-1 $30 $0 #
transform $-1 1 0 0 0 1 0 0 0 1 63.433332316049686 41.944364186289668 16.528258184666083 1 rotate no_reflect no_shear #
lump $-1 $-1 $31 $1 #
transform $-1 1 0 0 0 1 0 0 0 1 63.433332316049686 41.944364186289668 16.528258184666083 1 rotate no_reflect no_shear #
lump $-1 $-1 $32 $2 #
transform $-1 1 0 0 0 1 0 0 0 1 63.433332316049686 41.944364186289668 16.528258184666083 1 rotate no_reflect no_shear #
lump $-1 $-1 $33 $3 #
transform $-1 1 0 0 0 1 0 0 0 1 63.433332316049686 41.944364186289668 16.528258184666083 1 rotate no_reflect no_shear #
lump $-1 $-1 $34 $4 #
transform $-1 1 0 0 0 1 0 0 0 1 63.433332316049686 41.944364186289668 16.528258184666083 1 rotate no_reflect no_shear #
lump $-1 $-1 $35 $5 #
transform $-1 1 0 0 0 1 0 0 0 1 63.433332316049686 41.944364186289668 16.528258184666083 1 rotate no_reflect no_shear #
lump $-1 $-1 $36 $6 #
transform $-1 1 0 0 0 1 0 0 0 1 63.433332316049686 41.944364186289668 16.528258184666083 1 rotate no_reflect no_shear #
lump $-1 $-1 $37 $7 #
transform $-1 1 0 0 0 1 0 0 0 1 63.433332316049686 41.944364186289668 16.528258184666083 1 rotate no_reflect no_shear #
lump $-1 $-1 $38 $8 #
transform $-1 1 0 0 0 1 0 0 0 1 63.433332316049686 41.944364186289668 16.528258184666083 1 rotate no_reflect no_shear #
lump $-1 $-1 $39 $9 #
transform $-1 1 0 0 0 1 0 0 0 1 63.433332316049686 41.944364186289668 16.528258184666083 1 rotate no_reflect no_shear #
shell $-1 $-1 $-1 $40 $-1 $10 #
shell $-1 $-1 $-1 $41 $-1 $12 #
shell $-1 $-1 $-1 $42 $-1 $14 #
shell $-1 $-1 $-1 $43 $-1 $16 #
shell $-1 $-1 $-1 $44 $-1 $18 #
shell $-1 $-1 $-1 $45 $-1 $20 #
shell $-1 $-1 $-1 $46 $-1 $22 #
shell $-1 $-1 $-1 $47 $-1 $24 #
shell $-1 $-1 $-1 $48 $-1 $26 #
shell $-1 $-1 $-1 $49 $-1 $28 #
face $-1 $50 $51 $30 $-1 $52 forward single #
face $-1 $53 $54 $31 $-1 $55 reversed single #
face $-1 $56 $57 $32 $-1 $58 forward single #
face $-1 $59 $60 $33 $-1 $61 reversed single #
face $-1 $62 $63 $34 $-1 $64 forward single #
face $-1 $65 $66 $35 $-1 $67 forward single #
face $-1 $68 $69 $36 $-1 $70 reversed single #
face $-1 $71 $72 $37 $-1 $73 forward single #
face $-1 $74 $75 $38 $-1 $76 forward single #
face $-1 $77 $78 $39 $-1 $79 forward single #
face $-1 $80 $81 $30 $-1 $82 reversed single #
loop $-1 $-1 $83 $40 #
plane-surface $-1 0 0 16.528258184666083 0 0 1 1 0 0 forward_v I I I I #
face $-1 $84 $85 $31 $-1 $86 reversed single #
loop $-1 $-1 $87 $41 #
plane-surface $-1 0 -33.678898386775941 10.719685404133724 0 0 1 1 0 0 forward_v I I I I #
face $-1 $88 $89 $32 $-1 $90 forward single #
loop $-1 $-1 $91 $42 #
plane-surface $-1 0 41.944364186289668 0 0 -1 0 0 0 -1 forward_v I I I I #
face $-1 $92 $93 $33 $-1 $94 reversed single #
loop $-1 $-1 $95 $43 #
plane-surface $-1 82.187471727264622 28.615749192861767 182.20973318586488 0 -1 0 -0.77714596973225614 0 -0.62932038083071107 forward_v I I I I #
face $-1 $96 $97 $34 $-1 $98 forward single #
loop $-1 $99 $100 $44 #
cone-surface $-1 57.718727251526637 21.028431764024909 9.7056874622078233 -0.77714596973225614 0 -0.62932038083071107 0.62932038083071107 0 -0.77714596973225614 1 I I 0 1 1 forward I I I I #
face $-1 $101 $102 $35 $-1 $103 forward single #
loop $-1 $104 $105 $45 #
cone-surface $-1 57.718727251526637 25.580822221327018 9.7056874622078233 -0.77714596973225614 0 -0.62932038083071107 0.62932038083071107 0 -0.77714596973225614 1 I I 0 1 1 forward I I I I #
face $-1 $106 $107 $36 $-1 $108 reversed single #
loop $-1 $-1 $109 $46 #
plane-surface $-1 -148.32370156901823 19.415446248630367 104.74099590457844 0 1 0 -0.66913061440640931 0 0.74314481823134659 forward_v I I I I #
face $-1 $110 $111 $37 $-1 $112 forward single #
loop $-1 $113 $114 $47 #
cone-surface $-1 -59.7294093221414 21.255506837476645 13.122902421687241 0.66913061440640931 0 -0.74314481823134659 0.18578620455783665 0 0.16728265360160233 1 I I 0 1 0.25 forward I I I I #
face $-1 $115 $116 $38 $-1 $117 forward single #
loop $-1 $118 $119 $48 #
cone-surface $-1 -59.7294093221414 24.015597720746065 13.122902421687241 0.66913061440640931 0 -0.74314481823134659 0.18578620455783665 0 0.16728265360160233 1 I I 0 1 0.25 forward I I I I #
face $-1 $120 $121 $39 $-1 $122 forward single #
loop $-1 $123 $124 $49 #
cone-surface $-1 -59.7294093221414 26.775688604015478 13.122902421687241 0.66913061440640931 0 -0.74314481823134659 0.18578620455783665 0 0.16728265360160233 1 I I 0 1 0.25 forward I I I I #
face $-1 $125 $126 $30 $-1 $127 reversed single #
loop $-1 $-1 $128 $50 #
plane-surface $-1 0 0 -16.528258184666083 0 0 1 1 0 0 forward_v I I I I #
coedge $-1 $129 $130 $131 $132 forward $51 $-1 #
face $-1 $133 $134 $31 $-1 $135 reversed single #
loop $-1 $-1 $136 $53 #
plane-surface $-1 0 -25.413432587262218 13.623971794399903 0 -1 0 0 0 -1 forward_v I I I I #
coedge $-1 $137 $138 $139 $140 reversed $54 $-1 #
face $-1 $141 $142 $32 $-1 $143 reversed single #
loop $-1 $-1 $144 $56 #
plane-surface $-1 0 0 16.528258184666083 0 0 1 1 0 0 forward_v I I I I #
coedge $-1 $145 $146 $147 $148 forward $57 $-1 #
face $-1 $149 $150 $33 $-1 $151 reversed single #
loop $-1 $-1 $152 $59 #
plane-surface $-1 -16.406445384945172 23.304626992675971 102.36995548487 0.77714596973225614 0 0.62932038083071107 0.62932038083071107 0 -0.77714596973225614 forward_v I I I I #
coedge $-1 $153 $154 $155 $156 reversed $60 $-1 #
face $-1 $-1 $157 $34 $-1 $158 forward single #
loop $-1 $159 $160 $62 #
cone-surface $-1 56.778821059092039 21.028431764024909 8.9445664553371707 -0.77714596973225614 0 -0.62932038083071107 0.31466019041535553 0 -0.38857298486612807 1 I I -0.70710678118654746 0.70710678118654746 0.5 forward I I I I #
loop $-1 $-1 $161 $44 #
coedge $-1 $100 $100 $162 $163 reversed $63 $-1 #
face $-1 $-1 $164 $35 $-1 $165 forward single #
loop $-1 $166 $167 $65 #
cone-surface $-1 56.778821059092039 25.580822221327018 8.9445664553371707 -0.77714596973225614 0 -0.62932038083071107 0.31466019041535553 0 -0.38857298486612807 1 I I -0.70710678118654746 0.70710678118654746 0.5 forward I I I I #
loop $-1 $-1 $168 $45 #
coedge $-1 $105 $105 $169 $170 reversed $66 $-1 #
face $-1 $171 $172 $36 $-1 $173 reversed single #
loop $-1 $-1 $174 $68 #
plane-surface $-1 -63.4333323160497 24.015597720746065 10.460691476939743 -0.66913061440640931 0 0.74314481823134659 0.74314481823134659 0 0.66913061440640931 forward_v I I I I #
coedge $-1 $175 $176 $177 $178 reversed $69 $-1 #
face $-1 $-1 $179 $37 $-1 $180 forward single #
loop $-1 $181 $182 $71 #
cone-surface $-1 -59.311202688137392 21.255506837476645 12.65843691029265 0.66913061440640931 0 -0.74314481823134659 0.092893102278918324 0 0.083641326800801163 1 I I -0.70710678118654746 0.70710678118654746 0.125 forward I I I I #
loop $-1 $-1 $183 $47 #
coedge $-1 $114 $114 $184 $185 reversed $72 $-1 #
face $-1 $-1 $186 $38 $-1 $187 forward single #
loop $-1 $188 $189 $74 #
cone-surface $-1 -59.311202688137392 24.015597720746065 12.65843691029265 0.66913061440640931 0 -0.74314481823134659 0.092893102278918324 0 0.083641326800801163 1 I I -0.70710678118654746 0.70710678118654746 0.125 forward I I I I #
loop $-1 $-1 $190 $48 #
coedge $-1 $119 $119 $191 $192 reversed $75 $-1 #
face $-1 $-1 $193 $39 $-1 $194 forward single #
loop $-1 $195 $196 $77 #
cone-surface $-1 -59.311202688137392 26.775688604015478 12.65843691029265 0.66913061440640931 0 -0.74314481823134659 0.092893102278918324 0 0.083641326800801163 1 I I -0.70710678118654746 0.70710678118654746 0.125 forward I I I I #
loop $-1 $-1 $197 $49 #
coedge $-1 $124 $124 $198 $199 reversed $78 $-1 #
face $-1 $200 $201 $30 $-1 $202 reversed single #
loop $-1 $-1 $203 $80 #
plane-surface $-1 0 -41.944364186289668 0 0 1 0 0 0 1 forward_v I I I I #
coedge $-1 $204 $205 $206 $207 forward $81 $-1 #
coedge $-1 $208 $83 $209 $210 forward $51 $-1 #
coedge $-1 $83 $208 $211 $212 forward $51 $-1 #
coedge $-1 $213 $214 $83 $132 reversed $215 $-1 #
edge $-1 $216 -41.944364186289668 $217 41.944364186289668 $131 $218 forward 7 unknown #
face $-1 $219 $220 $31 $-1 $221 reversed single #
loop $-1 $-1 $222 $84 #
plane-surface $-1 -63.433332316049686 0 0 1 0 0 0 0 -1 forward_v I I I I #
coedge $-1 $223 $224 $225 $226 reversed $85 $-1 #
coedge $-1 $227 $87 $228 $229 reversed $54 $-1 #
coedge $-1 $87 $227 $223 $230 forward $54 $-1 #
coedge $-1 $225 $231 $87 $140 forward $232 $-1 #
edge $-1 $233 -25.104914992901691 $234 -8.5739833938742471 $139 $235 forward 7 unknown #
face $-1 $236 $237 $32 $-1 $238 reversed single #
loop $-1 $-1 $239 $88 #
plane-surface $-1 63.433332316049686 0 0 -1 0 0 0 0 1 forward_v I I I I #
coedge $-1 $240 $241 $242 $243 forward $89 $-1 #
coedge $-1 $242 $91 $239 $244 reversed $57 $-1 #
coedge $-1 $91 $242 $245 $246 reversed $57 $-1 #
coedge $-1 $247 $248 $91 $148 reversed $237 $-1 #
edge $-1 $249 -63.433332316049686 $250 63.433332316049686 $147 $251 forward 7 unknown #
face $-1 $252 $253 $33 $-1 $254 forward single #
loop $-1 $-1 $255 $92 #
plane-surface $-1 82.187471727264622 17.993504792490175 182.20973318586488 0 1 0 0.77714596973225614 0 0.62932038083071107 forward_v I I I I #
coedge $-1 $256 $257 $258 $259 reversed $93 $-1 #
coedge $-1 $154 $95 $260 $261 reversed $60 $-1 #
coedge $-1 $95 $153 $256 $262 reversed $60 $-1 #
coedge $-1 $258 $263 $95 $156 forward $253 $-1 #
edge $-1 $264 -22.339596452417375 $265 -12.013052738508229 $155 $266 forward 7 unknown #
loop $-1 $-1 $162 $96 #
plane-surface $-1 -16.406445384945172 23.304626992675971 102.36995548487 0.77714596973225614 0 0.62932038083071107 0.62932038083071107 0 -0.77714596973225614 forward_v I I I I #
loop $-1 $-1 $267 $62 #
coedge $-1 $160 $160 $161 $268 reversed $97 $-1 #
coedge $-1 $161 $161 $160 $268 forward $99 $-1 #
coedge $-1 $162 $162 $100 $163 forward $157 $-1 #
edge $-1 $269 0 $269 6.2831853071796004 $162 $270 forward 7 unknown #
loop $-1 $-1 $169 $101 #
plane-surface $-1 -16.406445384945172 23.304626992675971 102.36995548487 0.77714596973225614 0 0.62932038083071107 0.62932038083071107 0 -0.77714596973225614 forward_v I I I I #
loop $-1 $-1 $271 $65 #
coedge $-1 $167 $167 $168 $272 reversed $102 $-1 #
coedge $-1 $168 $168 $167 $272 forward $104 $-1 #
coedge $-1 $169 $169 $105 $170 forward $164 $-1 #
edge $-1 $273 0 $273 6.2831853071796004 $169 $274 forward 7 unknown #
face $-1 $275 $276 $36 $-1 $277 reversed single #
loop $-1 $-1 $278 $106 #
plane-surface $-1 -148.32370156901823 28.615749192861763 104.74099590457844 0 -1 0 0.66913061440640931 0 -0.74314481823134659 forward_v I I I I #
coedge $-1 $279 $280 $281 $282 reversed $107 $-1 #
coedge $-1 $176 $109 $283 $284 reversed $69 $-1 #
coedge $-1 $109 $175 $279 $285 reversed $69 $-1 #
coedge $-1 $281 $286 $109 $178 forward $287 $-1 #
edge $-1 $288 10.728518468459427 $289 17.467233841869579 $177 $290 forward 7 unknown #
loop $-1 $-1 $184 $110 #
plane-surface $-1 -63.4333323160497 24.015597720746065 10.460691476939743 -0.66913061440640931 0 0.74314481823134659 0.74314481823134659 0 0.66913061440640931 forward_v I I I I #
loop $-1 $-1 $291 $71 #
coedge $-1 $182 $182 $183 $292 reversed $111 $-1 #
coedge $-1 $183 $183 $182 $292 forward $113 $-1 #
coedge $-1 $184 $184 $114 $185 forward $179 $-1 #
edge $-1 $293 0 $293 6.2831853071796004 $184 $294 forward 7 unknown #
loop $-1 $-1 $191 $115 #
plane-surface $-1 -63.4333323160497 24.015597720746065 10.460691476939743 -0.66913061440640931 0 0.74314481823134659 0.74314481823134659 0 0.66913061440640931 forward_v I I I I #
loop $-1 $-1 $295 $74 #
coedge $-1 $189 $189 $190 $296 reversed $116 $-1 #
coedge $-1 $190 $190 $189 $296 forward $118 $-1 #
coedge $-1 $191 $191 $119 $192 forward $186 $-1 #
edge $-1 $297 0 $297 6.2831853071796004 $191 $298 forward 7 unknown #
loop $-1 $-1 $198 $120 #
plane-surface $-1 -63.4333323160497 24.015597720746065 10.460691476939743 -0.66913061440640931 0 0.74314481823134659 0.74314481823134659 0 0.66913061440640931 forward_v I I I I #
loop $-1 $-1 $299 $77 #
coedge $-1 $196 $196 $197 $300 reversed $121 $-1 #
coedge $-1 $197 $197 $196 $300 forward $123 $-1 #
coedge $-1 $198 $198 $124 $199 forward $193 $-1 #
edge $-1 $301 0 $301 6.2831853071796004 $198 $302 forward 7 unknown #
face $-1 $303 $304 $30 $-1 $305 reversed single #
loop $-1 $-1 $306 $125 #
plane-surface $-1 -63.433332316049686 0 0 1 0 0 0 0 -1 forward_v I I I I #
coedge $-1 $307 $211 $308 $309 forward $126 $-1 #
coedge $-1 $310 $128 $307 $311 forward $81 $-1 #
coedge $-1 $128 $310 $312 $313 forward $81 $-1 #
coedge $-1 $214 $213 $128 $207 reversed $215 $-1 #
edge $-1 $314 -41.944364186289668 $315 41.944364186289668 $206 $316 forward 7 unknown #
coedge $-1 $130 $129 $317 $318 forward $51 $-1 #
coedge $-1 $319 $320 $129 $210 reversed $304 $-1 #
edge $-1 $217 -63.433332316049686 $321 63.433332316049686 $209 $322 forward 7 unknown #
coedge $-1 $203 $323 $130 $212 reversed $126 $-1 #
edge $-1 $324 -63.433332316049686 $216 63.433332316049686 $211 $325 forward 7 unknown #
coedge $-1 $206 $131 $323 $326 forward $215 $-1 #
coedge $-1 $131 $206 $319 $327 reversed $215 $-1 #
loop $-1 $-1 $213 $303 #
vertex $-1 $132 $328 #
vertex $-1 $132 $329 #
straight-curve $-1 63.433332316049686 0 16.528258184666083 0 1 0 I I #
face $-1 $330 $331 $31 $-1 $332 forward single #
loop $-1 $-1 $228 $133 #
plane-surface $-1 0 -41.944364186289668 0 0 1 0 0 0 1 forward_v I I I I #
coedge $-1 $333 $334 $335 $336 forward $134 $-1 #
coedge $-1 $335 $136 $138 $230 reversed $85 $-1 #
coedge $-1 $136 $335 $337 $338 reversed $85 $-1 #
coedge $-1 $339 $139 $136 $226 forward $232 $-1 #
edge $-1 $234 3.9076995069337723 $340 9.7162722874661309 $225 $341 forward 7 unknown #
coedge $-1 $138 $137 $333 $342 reversed $54 $-1 #
coedge $-1 $343 $344 $137 $229 forward $220 $-1 #
edge $-1 $345 -63.433332316049686 $233 63.433332316049686 $228 $346 forward 7 unknown #
edge $-1 $347 -63.433332316049686 $234 63.433332316049686 $223 $348 forward 7 unknown #
coedge $-1 $139 $339 $343 $349 forward $232 $-1 #
loop $-1 $-1 $225 $330 #
vertex $-1 $229 $350 #
vertex $-1 $140 $351 #
straight-curve $-1 63.433332316049686 -16.839449193387971 10.719685404133724 0 1 0 I I #
face $-1 $352 $353 $32 $-1 $354 reversed single #
loop $-1 $-1 $248 $141 #
plane-surface $-1 0 48.608671683003628 11.846554778337772 0 0 1 1 0 0 forward_v I I I I #
coedge $-1 $355 $356 $145 $244 forward $142 $-1 #
coedge $-1 $357 $144 $356 $358 forward $89 $-1 #
coedge $-1 $144 $357 $359 $360 forward $89 $-1 #
coedge $-1 $146 $145 $144 $243 reversed $57 $-1 #
edge $-1 $361 -63.433332316049686 $362 63.433332316049686 $144 $363 forward 7 unknown #
edge $-1 $362 -16.528258184666083 $250 -11.846554778337772 $239 $364 forward 7 unknown #
coedge $-1 $359 $365 $146 $246 forward $366 $-1 #
edge $-1 $249 11.846554778337772 $361 16.528258184666083 $245 $367 forward 7 unknown #
coedge $-1 $368 $147 $365 $369 forward $237 $-1 #
coedge $-1 $147 $368 $355 $370 forward $237 $-1 #
vertex $-1 $246 $371 #
vertex $-1 $244 $372 #
straight-curve $-1 0 41.944364186289668 11.846554778337772 1 0 0 I I #
face $-1 $-1 $373 $33 $-1 $374 reversed single #
loop $-1 $-1 $155 $149 #
plane-surface $-1 0 0 16.528258184666083 0 0 1 1 0 0 forward_v I I I I #
coedge $-1 $375 $376 $377 $378 reversed $150 $-1 #
coedge $-1 $379 $152 $154 $262 forward $93 $-1 #
coedge $-1 $152 $379 $375 $380 forward $93 $-1 #
coedge $-1 $377 $155 $152 $259 forward $253 $-1 #
edge $-1 $265 -16.963435696523781 $381 -6.3411912961521892 $258 $382 forward 7 unknown #
coedge $-1 $383 $384 $153 $261 forward $373 $-1 #
edge $-1 $385 -87.3288282202722 $264 -74.576608408266353 $260 $386 forward 7 unknown #
edge $-1 $265 110.45762397735689 $385 126.86666463209934 $154 $387 forward 7 unknown #
coedge $-1 $155 $377 $383 $388 forward $253 $-1 #
vertex $-1 $261 $389 #
vertex $-1 $156 $390 #
straight-curve $-1 41.093735863632311 28.615749192861767 16.528258184666086 -1 0 0 I I #
coedge $-1 $267 $267 $-1 $391 reversed $159 $-1 #
edge $-1 $392 0 $392 6.2831853071796004 $160 $393 forward 7 unknown #
vertex $-1 $163 $394 #
ellipse-curve $-1 58.270060459095141 21.028431764024909 10.152148278663148 0.77714596973225614 0 0.62932038083071107 0.62932038083071107 0 -0.77714596973225614 1 I I #
coedge $-1 $271 $271 $-1 $395 reversed $166 $-1 #
edge $-1 $396 0 $396 6.2831853071796004 $167 $397 forward 7 unknown #
vertex $-1 $170 $398 #
ellipse-curve $-1 58.270060459095141 25.580822221327018 10.152148278663148 0.77714596973225614 0 0.62932038083071107 0.62932038083071107 0 -0.77714596973225614 1 I I #
face $-1 $-1 $287 $36 $-1 $399 forward single #
loop $-1 $-1 $400 $171 #
plane-surface $-1 -63.433332316049686 0 0 1 0 0 0 0 -1 forward_v I I I I #
coedge $-1 $401 $402 $403 $404 reversed $172 $-1 #
coedge $-1 $405 $174 $176 $285 forward $107 $-1 #
coedge $-1 $174 $405 $401 $406 forward $107 $-1 #
coedge $-1 $403 $177 $174 $282 forward $287 $-1 #
edge $-1 $289 7.4076473882573346 $407 16.607950332488731 $281 $408 forward 7 unknown #
coedge $-1 $409 $410 $175 $284 forward $276 $-1 #
edge $-1 $411 -41.909806475349463 $288 -35.842239767623141 $283 $412 forward 7 unknown #
edge $-1 $289 -9.0678360503784781 $411 -1.8881026247711288e-014 $176 $413 forward 7 unknown #
coedge $-1 $177 $403 $409 $414 forward $287 $-1 #
loop $-1 $-1 $403 $275 #
vertex $-1 $284 $415 #
vertex $-1 $178 $416 #
straight-curve $-1 -74.161850784509113 19.415446248630367 16.528258184666086 1 0 0 I I #
coedge $-1 $291 $291 $-1 $417 reversed $181 $-1 #
edge $-1 $418 0 $418 6.2831853071796004 $182 $419 forward 7 unknown #
vertex $-1 $185 $420 #
ellipse-curve $-1 -60.063974629344607 21.255506837476645 13.49447483080292 -0.66913061440640931 0 0.74314481823134659 0.18578620455783665 0 0.16728265360160233 1 I I #
coedge $-1 $295 $295 $-1 $421 reversed $188 $-1 #
edge $-1 $422 0 $422 6.2831853071796004 $189 $423 forward 7 unknown #
vertex $-1 $192 $424 #
ellipse-curve $-1 -60.063974629344607 24.015597720746065 13.49447483080292 -0.66913061440640931 0 0.74314481823134659 0.18578620455783665 0 0.16728265360160233 1 I I #
coedge $-1 $299 $299 $-1 $425 reversed $195 $-1 #
edge $-1 $426 0 $426 6.2831853071796004 $196 $427 forward 7 unknown #
vertex $-1 $199 $428 #
ellipse-curve $-1 -60.063974629344607 26.775688604015478 13.49447483080292 -0.66913061440640931 0 0.74314481823134659 0.18578620455783665 0 0.16728265360160233 1 I I #
face $-1 $-1 $215 $30 $-1 $429 reversed single #
loop $-1 $-1 $319 $200 #
plane-surface $-1 0 41.944364186289668 0 0 -1 0 0 0 -1 forward_v I I I I #
coedge $-1 $430 $317 $320 $431 forward $201 $-1 #
coedge $-1 $323 $203 $204 $311 reversed $126 $-1 #
coedge $-1 $317 $430 $203 $309 reversed $201 $-1 #
edge $-1 $324 -16.528258184666083 $432 16.528258184666083 $308 $433 forward 7 unknown #
coedge $-1 $205 $204 $430 $434 forward $81 $-1 #
edge $-1 $315 -63.433332316049686 $432 63.433332316049686 $307 $435 forward 7 unknown #
coedge $-1 $320 $319 $205 $313 reversed $304 $-1 #
edge $-1 $436 -63.433332316049686 $314 63.433332316049686 $312 $437 forward 7 unknown #
vertex $-1 $207 $438 #
vertex $-1 $326 $439 #
straight-curve $-1 63.433332316049686 0 -16.528258184666083 0 -1 0 I I #
coedge $-1 $306 $308 $208 $318 reversed $201 $-1 #
edge $-1 $321 -41.944364186289668 $324 41.944364186289668 $317 $440 forward 7 unknown #
coedge $-1 $312 $209 $214 $327 forward $304 $-1 #
coedge $-1 $209 $312 $306 $431 reversed $304 $-1 #
vertex $-1 $210 $441 #
straight-curve $-1 0 41.944364186289668 16.528258184666083 -1 0 0 I I #
coedge $-1 $211 $307 $213 $326 reversed $126 $-1 #
vertex $-1 $318 $442 #
straight-curve $-1 0 -41.944364186289668 16.528258184666083 1 0 0 I I #
edge $-1 $216 -16.528258184666083 $315 16.528258184666083 $213 $443 forward 7 unknown #
edge $-1 $217 -16.528258184666083 $314 16.528258184666083 $214 $444 forward 7 unknown #
point $-1 63.433332316049686 -41.944364186289668 16.528258184666083 #
point $-1 63.433332316049686 41.944364186289668 16.528258184666083 #
face $-1 $-1 $232 $31 $-1 $445 reversed single #
loop $-1 $-1 $337 $219 #
plane-surface $-1 0 0 16.528258184666083 0 0 1 1 0 0 forward_v I I I I #
coedge $-1 $446 $222 $227 $342 forward $134 $-1 #
coedge $-1 $222 $446 $447 $448 reversed $134 $-1 #
coedge $-1 $224 $223 $222 $336 reversed $85 $-1 #
edge $-1 $449 -9.7162722874661309 $347 -3.9076995069337723 $222 $450 forward 7 unknown #
coedge $-1 $447 $451 $224 $338 forward $331 $-1 #
edge $-1 $340 -63.433332316049686 $449 63.433332316049686 $337 $452 forward 7 unknown #
coedge $-1 $231 $225 $451 $453 reversed $232 $-1 #
vertex $-1 $226 $454 #
straight-curve $-1 63.433332316049686 -25.413432587262218 6.8119858971999516 0 0 1 I I #
edge $-1 $347 8.5739833938742471 $345 25.104914992901691 $333 $455 forward 7 unknown #
coedge $-1 $456 $228 $231 $349 reversed $220 $-1 #
coedge $-1 $228 $456 $446 $457 forward $220 $-1 #
vertex $-1 $229 $458 #
straight-curve $-1 0 -41.944364186289668 10.719685404133724 1 0 0 I I #
vertex $-1 $342 $459 #
straight-curve $-1 0 -25.413432587262218 10.719685404133724 1 0 0 I I #
edge $-1 $460 -16.528258184666083 $233 -10.719685404133724 $231 $461 forward 7 unknown #
point $-1 63.433332316049686 -41.944364186289661 10.719685404133724 #
point $-1 63.433332316049686 -25.413432587262218 10.719685404133724 #
face $-1 $-1 $366 $32 $-1 $462 reversed single #
loop $-1 $-1 $463 $236 #
plane-surface $-1 0 55.272979179717581 14.187406481501927 0 -1 0 0 0 -1 forward_v I I I I #
coedge $-1 $464 $239 $248 $370 reversed $142 $-1 #
coedge $-1 $239 $464 $240 $358 reversed $142 $-1 #
coedge $-1 $241 $240 $465 $466 forward $89 $-1 #
edge $-1 $362 41.944364186289668 $467 55.272979179717581 $356 $468 forward 7 unknown #
coedge $-1 $469 $245 $241 $360 reversed $366 $-1 #
edge $-1 $470 -55.272979179717581 $361 -41.944364186289668 $359 $471 forward 7 unknown #
vertex $-1 $246 $472 #
vertex $-1 $358 $473 #
straight-curve $-1 0 41.944364186289668 16.528258184666083 1 0 0 I I #
straight-curve $-1 63.433332316049686 41.944364186289668 0 0 0 -1 I I #
coedge $-1 $245 $469 $247 $369 reversed $366 $-1 #
loop $-1 $-1 $245 $352 #
straight-curve $-1 -63.433332316049686 41.944364186289668 0 0 0 1 I I #
coedge $-1 $248 $247 $474 $475 forward $237 $-1 #
edge $-1 $249 -6.6643074967139526 $476 6.6643074967139526 $365 $477 forward 7 unknown #
edge $-1 $478 -6.6643074967139526 $250 6.6643074967139526 $355 $479 forward 7 unknown #
point $-1 -63.433332316049686 41.944364186289675 11.846554778337772 #
point $-1 63.433332316049686 41.944364186289675 11.846554778337772 #
loop $-1 $-1 $260 $252 #
plane-surface $-1 63.433332316049686 0 0 -1 0 0 0 0 1 forward_v I I I I #
coedge $-1 $376 $255 $257 $380 reversed $150 $-1 #
coedge $-1 $255 $375 $480 $481 reversed $150 $-1 #
coedge $-1 $263 $258 $255 $378 forward $253 $-1 #
edge $-1 $381 12.013052738508229 $482 22.339596452417375 $377 $483 forward 7 unknown #
coedge $-1 $257 $256 $384 $484 reversed $93 $-1 #
edge $-1 $485 -126.86666463209934 $381 -110.45762397735689 $375 $486 forward 7 unknown #
vertex $-1 $259 $487 #
straight-curve $-1 53.10678860214054 11.652313496337985 16.528258184666093 0 -1 0 I I #
coedge $-1 $480 $260 $263 $388 reversed $373 $-1 #
coedge $-1 $260 $480 $379 $484 forward $373 $-1 #
vertex $-1 $261 $488 #
straight-curve $-1 63.433332316049686 28.615749192861767 91.104866592932439 0 0 1 I I #
straight-curve $-1 -16.406445384945172 28.615749192861767 102.36995548487 0.62932038083071107 0 -0.77714596973225614 I I #
edge $-1 $482 17.993504792490175 $264 28.615749192861767 $383 $489 forward 7 unknown #
point $-1 63.433332316049686 28.615749192861767 16.528258184666083 #
point $-1 53.10678860214054 28.615749192861767 16.528258184666086 #
edge $-1 $490 1 $490 0 $267 $-1 forward 7 unknown #
vertex $-1 $268 $491 #
ellipse-curve $-1 57.167394043958168 21.028431764024909 9.259226645752527 0.77714596973225614 0 0.62932038083071107 0.62932038083071107 0 -0.77714596973225614 1 I I #
point $-1 58.899380839925819 21.028431764024909 9.3750023089308634 #
edge $-1 $492 1 $492 0 $271 $-1 forward 7 unknown #
vertex $-1 $272 $493 #
ellipse-curve $-1 57.167394043958168 25.580822221327018 9.259226645752527 0.77714596973225614 0 0.62932038083071107 0.62932038083071107 0 -0.77714596973225614 1 I I #
point $-1 58.899380839925819 25.580822221327018 9.3750023089308634 #
plane-surface $-1 0 0 16.528258184666083 0 0 1 1 0 0 forward_v I I I I #
coedge $-1 $410 $409 $402 $494 forward $276 $-1 #
coedge $-1 $402 $278 $280 $406 reversed $172 $-1 #
coedge $-1 $278 $401 $400 $494 reversed $172 $-1 #
coedge $-1 $286 $281 $278 $404 forward $287 $-1 #
edge $-1 $407 -17.467233841869579 $495 -10.728518468459427 $403 $496 forward 7 unknown #
coedge $-1 $280 $279 $410 $497 reversed $107 $-1 #
edge $-1 $498 1.8881026247711288e-014 $407 9.0678360503784781 $401 $499 forward 7 unknown #
vertex $-1 $282 $500 #
straight-curve $-1 -56.694616942639534 12.007798860373033 16.528258184666079 0 1 0 I I #
coedge $-1 $400 $283 $286 $414 reversed $276 $-1 #
coedge $-1 $283 $400 $405 $497 forward $276 $-1 #
vertex $-1 $284 $501 #
straight-curve $-1 -63.433332316049686 19.415446248630367 52.37049795228922 0 0 1 I I #
straight-curve $-1 -63.4333323160497 19.415446248630367 10.460691476939743 -0.74314481823134659 0 -0.66913061440640931 I I #
edge $-1 $495 -28.615749192861763 $288 -19.415446248630367 $409 $502 forward 7 unknown #
point $-1 -63.433332316049686 19.415446248630367 16.528258184666083 #
point $-1 -56.694616942639534 19.415446248630367 16.528258184666083 #
edge $-1 $503 1 $503 0 $291 $-1 forward 7 unknown #
vertex $-1 $292 $504 #
ellipse-curve $-1 -59.394844014938194 21.255506837476645 12.751330012571568 -0.66913061440640931 0 0.74314481823134659 0.18578620455783665 0 0.16728265360160233 1 I I #
point $-1 -59.878188424786764 21.255506837476645 13.661757484404518 #
edge $-1 $505 1 $505 0 $295 $-1 forward 7 unknown #
vertex $-1 $296 $506 #
ellipse-curve $-1 -59.394844014938194 24.015597720746065 12.751330012571568 -0.66913061440640931 0 0.74314481823134659 0.18578620455783665 0 0.16728265360160233 1 I I #
point $-1 -59.878188424786764 24.015597720746065 13.661757484404518 #
edge $-1 $507 1 $507 0 $299 $-1 forward 7 unknown #
vertex $-1 $300 $508 #
ellipse-curve $-1 -59.394844014938194 26.775688604015478 12.751330012571568 -0.66913061440640931 0 0.74314481823134659 0.18578620455783665 0 0.16728265360160233 1 I I #
point $-1 -59.878188424786764 26.775688604015478 13.661757484404518 #
plane-surface $-1 63.433332316049686 0 0 -1 0 0 0 0 1 forward_v I I I I #
coedge $-1 $308 $306 $310 $434 reversed $201 $-1 #
edge $-1 $321 -16.528258184666083 $436 16.528258184666083 $320 $509 forward 7 unknown #
vertex $-1 $434 $510 #
straight-curve $-1 -63.433332316049686 -41.944364186289668 0 0 0 -1 I I #
edge $-1 $432 -41.944364186289668 $436 41.944364186289668 $430 $511 forward 7 unknown #
straight-curve $-1 0 -41.944364186289668 -16.528258184666083 -1 0 0 I I #
vertex $-1 $313 $512 #
straight-curve $-1 0 41.944364186289668 -16.528258184666083 1 0 0 I I #
point $-1 63.433332316049686 41.944364186289668 -16.528258184666083 #
point $-1 63.433332316049686 -41.944364186289668 -16.528258184666083 #
straight-curve $-1 -63.433332316049686 0 16.528258184666083 0 -1 0 I I #
point $-1 -63.433332316049686 41.944364186289668 16.528258184666083 #
point $-1 -63.433332316049686 -41.944364186289668 16.528258184666083 #
straight-curve $-1 63.433332316049686 -41.944364186289668 0 0 0 -1 I I #
straight-curve $-1 63.433332316049686 41.944364186289668 0 0 0 -1 I I #
plane-surface $-1 63.433332316049686 0 0 -1 0 0 0 0 1 forward_v I I I I #
coedge $-1 $334 $333 $344 $457 reversed $134 $-1 #
coedge $-1 $513 $337 $334 $448 forward $331 $-1 #
edge $-1 $449 25.413432587262218 $514 41.944364186289668 $334 $515 forward 7 unknown #
vertex $-1 $448 $516 #
straight-curve $-1 -63.433332316049686 -25.413432587262218 6.8119858971999516 0 0 -1 I I #
coedge $-1 $337 $513 $339 $453 forward $331 $-1 #
straight-curve $-1 0 -25.413432587262218 16.528258184666083 -1 0 0 I I #
edge $-1 $460 -41.944364186289668 $340 -25.413432587262218 $339 $517 forward 7 unknown #
point $-1 63.433332316049686 -25.413432587262218 16.528258184666083 #
straight-curve $-1 -63.433332316049686 -16.839449193387971 10.719685404133724 0 -1 0 I I #
coedge $-1 $344 $343 $513 $518 reversed $220 $-1 #
edge $-1 $514 -16.528258184666083 $345 -10.719685404133724 $446 $519 forward 7 unknown #
point $-1 -63.433332316049686 -41.944364186289661 10.719685404133724 #
point $-1 -63.433332316049686 -25.413432587262218 10.719685404133724 #
vertex $-1 $453 $520 #
straight-curve $-1 63.433332316049686 -41.944364186289668 0 0 0 -1 I I #
plane-surface $-1 -63.433332316049686 0 0 1 0 0 0 0 -1 forward_v I I I I #
coedge $-1 $474 $465 $464 $521 forward $353 $-1 #
coedge $-1 $356 $355 $463 $521 reversed $142 $-1 #
coedge $-1 $463 $522 $357 $466 reversed $353 $-1 #
edge $-1 $467 -63.433332316049686 $470 63.433332316049686 $465 $523 forward 7 unknown #
vertex $-1 $358 $524 #
straight-curve $-1 63.433332316049686 0 16.528258184666083 0 1 0 I I #
coedge $-1 $365 $359 $522 $525 forward $366 $-1 #
vertex $-1 $466 $526 #
straight-curve $-1 -63.433332316049686 0 16.528258184666083 0 -1 0 I I #
point $-1 -63.433332316049686 41.944364186289668 16.528258184666083 #
point $-1 63.433332316049686 41.944364186289668 16.528258184666083 #
coedge $-1 $522 $463 $368 $475 reversed $353 $-1 #
edge $-1 $476 -63.433332316049686 $478 63.433332316049686 $474 $527 forward 7 unknown #
vertex $-1 $475 $528 #
straight-curve $-1 -63.433332316049686 48.608671683003628 11.846554778337772 0 1 0 I I #
vertex $-1 $370 $529 #
straight-curve $-1 63.433332316049686 48.608671683003628 11.846554778337772 0 -1 0 I I #
coedge $-1 $384 $383 $376 $481 forward $373 $-1 #
edge $-1 $482 74.576608408266353 $485 87.3288282202722 $480 $530 forward 7 unknown #
vertex $-1 $388 $531 #
straight-curve $-1 41.093735863632311 17.993504792490175 16.528258184666086 1 0 0 I I #
edge $-1 $485 6.3411912961521892 $385 16.963435696523781 $384 $532 forward 7 unknown #
vertex $-1 $484 $533 #
straight-curve $-1 -16.406445384945172 17.993504792490175 102.36995548487 -0.62932038083071107 0 0.77714596973225614 I I #
point $-1 53.10678860214054 17.993504792490175 16.528258184666086 #
point $-1 63.433332316049686 28.615749192861767 3.7760383726602385 #
straight-curve $-1 63.433332316049686 0 16.528258184666083 0 1 0 I I #
vertex $-1 $391 $534 #
point $-1 57.796714424788881 21.028431764024909 8.4820806760202707 #
vertex $-1 $395 $535 #
point $-1 57.796714424788881 25.580822221327018 8.4820806760202707 #
edge $-1 $495 35.842239767623141 $498 41.909806475349463 $400 $536 forward 7 unknown #
vertex $-1 $414 $537 #
straight-curve $-1 -74.161850784509113 28.615749192861763 16.528258184666086 -1 0 0 I I #
edge $-1 $498 -16.607950332488731 $411 -7.4076473882573346 $410 $538 forward 7 unknown #
vertex $-1 $497 $539 #
straight-curve $-1 -63.4333323160497 28.615749192861763 10.460691476939743 0.74314481823134659 0 0.66913061440640931 I I #
point $-1 -56.694616942639534 28.615749192861763 16.528258184666083 #
point $-1 -63.433332316049686 19.415446248630367 10.460691476939756 #
straight-curve $-1 -63.433332316049686 0 16.528258184666083 0 -1 0 I I #
vertex $-1 $417 $540 #
point $-1 -59.209057810380358 21.255506837476645 12.918612666173171 #
vertex $-1 $421 $541 #
point $-1 -59.209057810380358 24.015597720746065 12.918612666173171 #
vertex $-1 $425 $542 #
point $-1 -59.209057810380358 26.775688604015478 12.918612666173171 #
straight-curve $-1 -63.433332316049686 41.944364186289668 0 0 0 -1 I I #
point $-1 -63.433332316049686 -41.944364186289668 -16.528258184666083 #
straight-curve $-1 -63.433332316049686 0 -16.528258184666083 0 1 0 I I #
point $-1 -63.433332316049686 41.944364186289668 -16.528258184666083 #
coedge $-1 $451 $447 $456 $518 forward $331 $-1 #
vertex $-1 $448 $543 #
straight-curve $-1 -63.433332316049686 0 16.528258184666083 0 -1 0 I I #
point $-1 -63.433332316049686 -25.413432587262218 16.528258184666083 #
straight-curve $-1 63.433332316049686 0 16.528258184666083 0 1 0 I I #
edge $-1 $514 -63.433332316049686 $460 63.433332316049686 $456 $544 forward 7 unknown #
straight-curve $-1 -63.433332316049686 -41.944364186289668 0 0 0 -1 I I #
point $-1 63.433332316049686 -41.944364186289668 16.528258184666083 #
edge $-1 $467 -2.3408517031641551 $478 2.3408517031641551 $464 $545 forward 7 unknown #
coedge $-1 $465 $474 $469 $525 reversed $353 $-1 #
straight-curve $-1 0 55.272979179717581 16.528258184666083 -1 0 0 I I #
point $-1 63.433332316049686 55.272979179717581 16.528258184666083 #
edge $-1 $470 -2.3408517031641551 $476 2.3408517031641551 $522 $546 forward 7 unknown #
point $-1 -63.433332316049686 55.272979179717581 16.528258184666083 #
straight-curve $-1 0 55.272979179717581 11.846554778337772 1 0 0 I I #
point $-1 -63.433332316049686 55.272979179717581 11.846554778337772 #
point $-1 63.433332316049686 55.272979179717581 11.846554778337772 #
straight-curve $-1 63.433332316049686 17.993504792490175 91.104866592932439 0 0 -1 I I #
point $-1 63.433332316049686 17.993504792490175 16.528258184666083 #
straight-curve $-1 63.433332316049686 11.652313496337985 3.7760383726602313 0 1 0 I I #
point $-1 63.433332316049686 17.993504792490175 3.7760383726602385 #
point $-1 56.390248074225909 21.028431764024909 8.6299062649218143 #
point $-1 56.390248074225909 25.580822221327018 8.6299062649218143 #
straight-curve $-1 -63.433332316049686 28.615749192861763 52.37049795228922 0 0 -1 I I #
point $-1 -63.433332316049686 28.615749192861763 16.528258184666083 #
straight-curve $-1 -63.433332316049686 12.007798860373033 10.460691476939752 0 -1 0 I I #
point $-1 -63.433332316049686 28.615749192861763 10.460691476939756 #
point $-1 -59.227561361336591 21.255506837476645 12.565543808013732 #
point $-1 -59.227561361336591 24.015597720746065 12.565543808013732 #
point $-1 -59.227561361336591 26.775688604015478 12.565543808013732 #
point $-1 -63.433332316049686 -41.944364186289668 16.528258184666083 #
straight-curve $-1 0 -41.944364186289668 16.528258184666083 1 0 0 I I #
straight-curve $-1 63.433332316049686 55.272979179717581 14.187406481501927 0 0 -1 I I #
straight-curve $-1 -63.433332316049686 55.272979179717581 14.187406481501927 0 0 -1 I I #
End-of-ACIS-data 