500 0 4 0           
7 Unknown 11 ACIS 5.0 NT 24 Thu Mar 25 22:06:03 1999 
-1 9.9999999999999995e-007 1e-010 
body $-1 $4 $-1 $5 #
body $-1 $6 $-1 $7 #
body $-1 $8 $-1 $9 #
body $-1 $10 $-1 $11 #
lump $-1 $-1 $12 $0 #
transform $-1 1 0 0 0 1 0 0 0 1 58.955656605731377 24.545215229205834 9.1549974805524474 1 rotate no_reflect no_shear #
lump $-1 $-1 $13 $1 #
transform $-1 1 0 0 0 1 0 0 0 1 58.955656605731377 24.545215229205834 9.1549974805524474 1 rotate no_reflect no_shear #
lump $-1 $-1 $14 $2 #
transform $-1 1 0 0 0 1 0 0 0 1 58.955656605731377 24.545215229205834 9.1549974805524474 1 rotate no_reflect no_shear #
lump $-1 $-1 $15 $3 #
transform $-1 1 0 0 0 1 0 0 0 1 58.955656605731377 24.545215229205834 9.1549974805524474 1 rotate no_reflect no_shear #
shell $-1 $-1 $-1 $16 $-1 $4 #
shell $-1 $-1 $-1 $17 $-1 $6 #
shell $-1 $-1 $-1 $18 $-1 $8 #
shell $-1 $-1 $-1 $19 $-1 $10 #
face $-1 $20 $21 $12 $-1 $22 forward single #
face $-1 $23 $24 $13 $-1 $25 reversed single #
face $-1 $26 $27 $14 $-1 $28 forward single #
face $-1 $29 $30 $15 $-1 $31 reversed single #
face $-1 $32 $33 $12 $-1 $34 reversed single #
loop $-1 $-1 $35 $16 #
plane-surface $-1 0 0 9.1549974805524474 0 0 1 1 0 0 forward_v I I I I #
face $-1 $36 $37 $13 $-1 $38 forward single #
loop $-1 $-1 $39 $17 #
plane-surface $-1 0 -20.515756257845851 -6.1549974805524474 0 0 1 1 0 0 forward_v I I I I #
face $-1 $40 $41 $14 $-1 $42 forward single #
loop $-1 $-1 $43 $18 #
plane-surface $-1 67.682772439219846 -4.0701999759717209 167.19459565718452 0 -1 0 -0.74314483375859142 0 -0.66913059716165679 forward_v I I I I #
face $-1 $44 $45 $15 $-1 $46 reversed single #
loop $-1 $47 $48 $19 #
cone-surface $-1 53.861985083240498 -9.0644933973256947 3.7657736836560392 -0.74314483375859142 0 -0.66913059716165679 0.66913059716165679 0 -0.74314483375859142 1 I I 0 1 1 forward I I I I #
face $-1 $49 $50 $12 $-1 $51 reversed single #
loop $-1 $-1 $52 $20 #
plane-surface $-1 0 0 -9.1549974805524474 0 0 1 1 0 0 forward_v I I I I #
coedge $-1 $53 $54 $55 $56 forward $21 $-1 #
face $-1 $57 $58 $13 $-1 $59 reversed single #
loop $-1 $-1 $60 $23 #
plane-surface $-1 0 -16.486297286485865 -7.6549974805524474 0 -1 0 0 0 -1 forward_v I I I I #
coedge $-1 $61 $62 $63 $64 reversed $24 $-1 #
face $-1 $65 $66 $14 $-1 $67 forward single #
loop $-1 $-1 $68 $26 #
plane-surface $-1 -19.942410815569843 -9.0644933973256947 88.296528235883301 0.74314483375859142 0 0.66913059716165679 0.66913059716165679 0 -0.74314483375859142 forward_v I I I I #
coedge $-1 $69 $70 $71 $72 reversed $27 $-1 #
face $-1 $73 $74 $15 $-1 $75 forward single #
loop $-1 $76 $77 $29 #
cone-surface $-1 52.216098559277526 -9.0644933973256947 2.2838108379082254 -0.74314483375859142 0 -0.66913059716165679 0.3345652985808284 0 -0.37157241687929571 1 I I -0.70710678118654746 0.70710678118654746 0.5 forward I I I I #
loop $-1 $-1 $78 $19 #
coedge $-1 $48 $48 $79 $80 reversed $30 $-1 #
face $-1 $81 $82 $12 $-1 $83 reversed single #
loop $-1 $-1 $84 $32 #
plane-surface $-1 0 -24.545215229205834 0 0 1 0 0 0 1 forward_v I I I I #
coedge $-1 $85 $86 $87 $88 forward $33 $-1 #
coedge $-1 $89 $35 $90 $91 forward $21 $-1 #
coedge $-1 $35 $89 $92 $93 forward $21 $-1 #
coedge $-1 $94 $95 $35 $56 reversed $96 $-1 #
edge $-1 $97 -24.545215229205834 $98 24.545215229205834 $55 $99 forward 7 unknown #
face $-1 $100 $101 $13 $-1 $102 reversed single #
loop $-1 $-1 $103 $36 #
plane-surface $-1 0 -24.545215229205834 0 0 1 0 0 0 1 forward_v I I I I #
coedge $-1 $104 $105 $106 $107 reversed $37 $-1 #
coedge $-1 $108 $39 $103 $109 reversed $24 $-1 #
coedge $-1 $39 $108 $104 $110 reversed $24 $-1 #
coedge $-1 $106 $111 $39 $64 forward $112 $-1 #
edge $-1 $113 -14.287337100282912 $114 -6.2284191575629393 $63 $115 forward 7 unknown #
face $-1 $116 $117 $14 $-1 $118 forward single #
loop $-1 $-1 $119 $40 #
plane-surface $-1 67.682772439219846 -14.058786818679668 167.19459565718452 0 1 0 0.74314483375859142 0 0.66913059716165679 forward_v I I I I #
coedge $-1 $120 $121 $122 $123 reversed $41 $-1 #
coedge $-1 $70 $43 $121 $124 forward $27 $-1 #
coedge $-1 $43 $69 $125 $126 reversed $27 $-1 #
coedge $-1 $127 $122 $43 $72 forward $117 $-1 #
edge $-1 $128 17.475555555307018 $129 25.114270386121454 $71 $130 forward 7 unknown #
face $-1 $131 $132 $15 $-1 $133 forward single #
loop $-1 $-1 $134 $44 #
plane-surface $-1 67.682772439219846 -4.0701999759717209 167.19459565718452 0 -1 0 -0.74314483375859142 0 -0.66913059716165679 forward_v I I I I #
loop $-1 $-1 $135 $29 #
coedge $-1 $77 $77 $78 $136 forward $45 $-1 #
coedge $-1 $78 $78 $77 $136 reversed $47 $-1 #
coedge $-1 $79 $79 $48 $80 forward $132 $-1 #
edge $-1 $137 0 $137 6.2831853071796004 $79 $138 forward 7 unknown #
face $-1 $139 $140 $12 $-1 $141 reversed single #
loop $-1 $-1 $142 $49 #
plane-surface $-1 -58.955656605731377 0 0 1 0 0 0 0 -1 forward_v I I I I #
coedge $-1 $143 $92 $144 $145 forward $50 $-1 #
coedge $-1 $146 $52 $143 $147 forward $33 $-1 #
coedge $-1 $52 $146 $148 $149 forward $33 $-1 #
coedge $-1 $95 $94 $52 $88 reversed $96 $-1 #
edge $-1 $150 -24.545215229205834 $151 24.545215229205834 $87 $152 forward 7 unknown #
coedge $-1 $54 $53 $153 $154 forward $21 $-1 #
coedge $-1 $155 $156 $53 $91 reversed $140 $-1 #
edge $-1 $98 -58.955656605731377 $157 58.955656605731377 $90 $158 forward 7 unknown #
coedge $-1 $84 $159 $54 $93 reversed $50 $-1 #
edge $-1 $160 -58.955656605731377 $97 58.955656605731377 $92 $161 forward 7 unknown #
coedge $-1 $87 $55 $159 $162 forward $96 $-1 #
coedge $-1 $55 $87 $155 $163 reversed $96 $-1 #
loop $-1 $-1 $94 $139 #
vertex $-1 $56 $164 #
vertex $-1 $56 $165 #
straight-curve $-1 58.955656605731377 0 9.1549974805524474 0 1 0 I I #
face $-1 $166 $167 $13 $-1 $168 forward single #
loop $-1 $-1 $169 $57 #
plane-surface $-1 0 0 -9.1549974805524474 0 0 1 1 0 0 forward_v I I I I #
coedge $-1 $170 $171 $61 $109 forward $58 $-1 #
coedge $-1 $172 $60 $62 $110 forward $37 $-1 #
coedge $-1 $60 $172 $169 $173 reversed $37 $-1 #
coedge $-1 $174 $63 $60 $107 forward $112 $-1 #
edge $-1 $114 2.3274987402762237 $175 5.3274987402762237 $106 $176 forward 7 unknown #
coedge $-1 $62 $61 $177 $178 reversed $24 $-1 #
edge $-1 $179 -58.955656605731377 $113 58.955656605731377 $103 $180 forward 7 unknown #
edge $-1 $114 -58.955656605731377 $181 58.955656605731377 $104 $182 forward 7 unknown #
coedge $-1 $63 $183 $170 $184 forward $112 $-1 #
loop $-1 $-1 $106 $185 #
vertex $-1 $109 $186 #
vertex $-1 $64 $187 #
straight-curve $-1 58.955656605731377 -10.257878128922925 -6.1549974805524474 0 1 0 I I #
face $-1 $188 $189 $14 $-1 $190 reversed single #
loop $-1 $-1 $191 $65 #
plane-surface $-1 0 0 9.1549974805524474 0 0 1 1 0 0 forward_v I I I I #
coedge $-1 $192 $193 $191 $194 reversed $66 $-1 #
coedge $-1 $195 $68 $193 $196 reversed $41 $-1 #
coedge $-1 $68 $195 $69 $124 reversed $41 $-1 #
coedge $-1 $71 $191 $68 $123 forward $117 $-1 #
edge $-1 $197 -9.5265401200168203 $128 0.46204672269112645 $122 $198 forward 7 unknown #
edge $-1 $128 106.49543286879627 $199 117.91131321146274 $69 $200 forward 7 unknown #
coedge $-1 $201 $202 $70 $126 forward $203 $-1 #
edge $-1 $129 74.442300348039808 $199 82.92595284749865 $125 $204 forward 7 unknown #
coedge $-1 $205 $71 $202 $206 forward $117 $-1 #
vertex $-1 $123 $207 #
vertex $-1 $206 $208 #
straight-curve $-1 33.841386219609923 -4.0701999759717209 9.1549974805524528 1 0 0 I I #
face $-1 $209 $210 $15 $-1 $211 forward single #
loop $-1 $212 $79 $73 #
plane-surface $-1 -19.942410815569843 -9.0644933973256947 88.296528235883301 0.74314483375859142 0 0.66913059716165679 0.66913059716165679 0 -0.74314483375859142 forward_v I I I I #
coedge $-1 $213 $214 $215 $216 reversed $74 $-1 #
coedge $-1 $135 $135 $-1 $217 forward $76 $-1 #
edge $-1 $218 0 $218 6.2831853071796004 $77 $219 forward 7 unknown #
vertex $-1 $80 $220 #
ellipse-curve $-1 55.136299190324173 -9.0644933973256947 4.9131712308230195 -0.74314483375859142 0 -0.66913059716165679 0.66913059716165679 0 -0.74314483375859142 1 I I #
face $-1 $-1 $96 $12 $-1 $221 reversed single #
loop $-1 $-1 $155 $81 #
plane-surface $-1 0 24.545215229205834 0 0 -1 0 0 0 -1 forward_v I I I I #
coedge $-1 $222 $153 $156 $223 forward $82 $-1 #
coedge $-1 $159 $84 $85 $147 reversed $50 $-1 #
coedge $-1 $153 $222 $84 $145 reversed $82 $-1 #
edge $-1 $160 -9.1549974805524474 $224 9.1549974805524474 $144 $225 forward 7 unknown #
coedge $-1 $86 $85 $222 $226 forward $33 $-1 #
edge $-1 $151 -58.955656605731377 $224 58.955656605731377 $143 $227 forward 7 unknown #
coedge $-1 $156 $155 $86 $149 reversed $140 $-1 #
edge $-1 $228 -58.955656605731377 $150 58.955656605731377 $148 $229 forward 7 unknown #
vertex $-1 $88 $230 #
vertex $-1 $162 $231 #
straight-curve $-1 58.955656605731377 0 -9.1549974805524474 0 -1 0 I I #
coedge $-1 $142 $144 $89 $154 reversed $82 $-1 #
edge $-1 $157 -24.545215229205834 $160 24.545215229205834 $153 $232 forward 7 unknown #
coedge $-1 $148 $90 $95 $163 forward $140 $-1 #
coedge $-1 $90 $148 $142 $223 reversed $140 $-1 #
vertex $-1 $91 $233 #
straight-curve $-1 0 24.545215229205834 9.1549974805524474 -1 0 0 I I #
coedge $-1 $92 $143 $94 $162 reversed $50 $-1 #
vertex $-1 $154 $234 #
straight-curve $-1 0 -24.545215229205834 9.1549974805524474 1 0 0 I I #
edge $-1 $97 -9.1549974805524474 $151 9.1549974805524474 $94 $235 forward 7 unknown #
edge $-1 $98 -9.1549974805524474 $150 9.1549974805524474 $95 $236 forward 7 unknown #
point $-1 58.955656605731377 -24.545215229205834 9.1549974805524474 #
point $-1 58.955656605731377 24.545215229205834 9.1549974805524474 #
face $-1 $237 $238 $13 $-1 $239 reversed single #
loop $-1 $-1 $240 $100 #
plane-surface $-1 0 0 9.1549974805524474 0 0 1 1 0 0 forward_v I I I I #
coedge $-1 $241 $242 $105 $173 forward $101 $-1 #
coedge $-1 $243 $103 $111 $184 reversed $58 $-1 #
coedge $-1 $103 $243 $244 $245 forward $58 $-1 #
coedge $-1 $105 $104 $246 $247 reversed $37 $-1 #
edge $-1 $175 -58.955656605731377 $248 58.955656605731377 $169 $249 forward 7 unknown #
coedge $-1 $250 $106 $242 $251 reversed $112 $-1 #
vertex $-1 $173 $252 #
straight-curve $-1 58.955656605731377 -16.486297286485865 -3.8274987402762237 0 0 -1 I I #
coedge $-1 $244 $246 $108 $178 forward $238 $-1 #
edge $-1 $181 6.2284191575629393 $179 14.287337100282912 $177 $253 forward 7 unknown #
vertex $-1 $109 $254 #
straight-curve $-1 0 -24.545215229205834 -6.1549974805524474 1 0 0 I I #
vertex $-1 $178 $255 #
straight-curve $-1 0 -16.486297286485865 -6.1549974805524474 -1 0 0 I I #
coedge $-1 $111 $250 $240 $256 reversed $112 $-1 #
edge $-1 $257 -9.1549974805524474 $113 6.1549974805524474 $111 $258 forward 7 unknown #
face $-1 $-1 $112 $13 $-1 $259 reversed single #
point $-1 58.955656605731377 -24.545215229205837 -6.1549974805524474 #
point $-1 58.955656605731377 -16.486297286485865 -6.1549974805524474 #
face $-1 $260 $261 $14 $-1 $262 forward single #
loop $-1 $-1 $263 $116 #
plane-surface $-1 0 -20.515756257845851 -6.1549974805524474 0 0 1 1 0 0 forward_v I I I I #
coedge $-1 $122 $264 $119 $194 forward $117 $-1 #
coedge $-1 $193 $119 $265 $266 reversed $66 $-1 #
coedge $-1 $119 $192 $120 $196 forward $66 $-1 #
edge $-1 $267 -25.114270386121454 $197 -17.475555555307018 $191 $268 forward 7 unknown #
coedge $-1 $121 $120 $201 $269 reversed $41 $-1 #
edge $-1 $270 -117.91131321146274 $197 -106.49543286879627 $193 $271 forward 7 unknown #
vertex $-1 $123 $272 #
straight-curve $-1 51.316941774916955 -4.5322466986628474 9.1549974805524386 0 1 0 I I #
vertex $-1 $269 $273 #
straight-curve $-1 -19.942410815569843 -4.0701999759717209 88.296528235883301 0.66913059716165679 0 -0.74314483375859142 I I #
coedge $-1 $265 $125 $195 $269 forward $203 $-1 #
coedge $-1 $125 $274 $127 $206 reversed $203 $-1 #
loop $-1 $-1 $265 $275 #
straight-curve $-1 58.955656605731377 -4.0701999759717209 83.597297828592261 0 0 -1 I I #
coedge $-1 $276 $127 $277 $278 forward $117 $-1 #
edge $-1 $129 -4.0701999759717209 $279 24.545215229205834 $202 $280 forward 7 unknown #
point $-1 51.316941774916941 -4.0701999759717209 9.1549974805524528 #
point $-1 58.955656605731377 -4.0701999759717209 9.1549974805524474 #
face $-1 $281 $282 $15 $-1 $283 forward single #
loop $-1 $-1 $284 $131 #
plane-surface $-1 67.682772439219846 -14.058786818679668 167.19459565718452 0 1 0 0.74314483375859142 0 0.66913059716165679 forward_v I I I I #
loop $-1 $-1 $285 $73 #
coedge $-1 $214 $134 $286 $287 forward $74 $-1 #
coedge $-1 $134 $213 $288 $289 reversed $74 $-1 #
coedge $-1 $290 $291 $134 $216 forward $282 $-1 #
edge $-1 $292 17.475555555307018 $293 25.114270386121454 $215 $294 forward 7 unknown #
edge $-1 $295 1 $295 0 $135 $-1 forward 7 unknown #
vertex $-1 $136 $296 #
ellipse-curve $-1 52.587670976156822 -9.0644933973256947 2.6183761364890539 0.74314483375859142 0 0.66913059716165679 0.66913059716165679 0 -0.74314483375859142 1 I I #
point $-1 55.805429787485835 -9.0644933973256947 4.1700263970644329 #
plane-surface $-1 58.955656605731377 0 0 -1 0 0 0 0 1 forward_v I I I I #
coedge $-1 $144 $142 $146 $226 reversed $82 $-1 #
edge $-1 $157 -9.1549974805524474 $228 9.1549974805524474 $156 $297 forward 7 unknown #
vertex $-1 $226 $298 #
straight-curve $-1 -58.955656605731377 -24.545215229205834 0 0 0 -1 I I #
edge $-1 $224 -24.545215229205834 $228 24.545215229205834 $222 $299 forward 7 unknown #
straight-curve $-1 0 -24.545215229205834 -9.1549974805524474 -1 0 0 I I #
vertex $-1 $149 $300 #
straight-curve $-1 0 24.545215229205834 -9.1549974805524474 1 0 0 I I #
point $-1 58.955656605731377 24.545215229205834 -9.1549974805524474 #
point $-1 58.955656605731377 -24.545215229205834 -9.1549974805524474 #
straight-curve $-1 -58.955656605731377 0 9.1549974805524474 0 -1 0 I I #
point $-1 -58.955656605731377 24.545215229205834 9.1549974805524474 #
point $-1 -58.955656605731377 -24.545215229205834 9.1549974805524474 #
straight-curve $-1 58.955656605731377 -24.545215229205834 0 0 0 -1 I I #
straight-curve $-1 58.955656605731377 24.545215229205834 0 0 0 -1 I I #
face $-1 $185 $301 $13 $-1 $302 reversed single #
loop $-1 $-1 $177 $166 #
plane-surface $-1 -58.955656605731377 0 0 1 0 0 0 0 -1 forward_v I I I I #
coedge $-1 $303 $304 $183 $256 forward $167 $-1 #
coedge $-1 $305 $169 $306 $307 forward $101 $-1 #
coedge $-1 $169 $305 $174 $251 forward $101 $-1 #
coedge $-1 $171 $170 $304 $308 reversed $58 $-1 #
coedge $-1 $309 $177 $171 $245 reversed $238 $-1 #
edge $-1 $310 -9.1549974805524474 $179 6.1549974805524474 $244 $311 forward 7 unknown #
coedge $-1 $177 $306 $172 $247 forward $238 $-1 #
edge $-1 $248 -5.3274987402762237 $181 -2.3274987402762237 $246 $312 forward 7 unknown #
vertex $-1 $307 $313 #
straight-curve $-1 0 -16.486297286485865 -9.1549974805524474 -1 0 0 I I #
coedge $-1 $183 $174 $314 $315 reversed $112 $-1 #
edge $-1 $316 -24.545215229205834 $175 16.486297286485865 $174 $317 forward 7 unknown #
point $-1 58.955656605731377 -16.486297286485865 -9.1549974805524474 #
straight-curve $-1 -58.955656605731377 -10.257878128922925 -6.1549974805524474 0 -1 0 I I #
point $-1 -58.955656605731377 -24.545215229205837 -6.1549974805524474 #
point $-1 -58.955656605731377 -16.486297286485865 -6.1549974805524474 #
edge $-1 $257 -24.545215229205834 $318 24.545215229205834 $183 $319 forward 7 unknown #
vertex $-1 $256 $320 #
straight-curve $-1 58.955656605731377 -24.545215229205834 0 0 0 -1 I I #
plane-surface $-1 58.955656605731377 0 0 -1 0 0 0 0 1 forward_v I I I I #
face $-1 $321 $322 $14 $-1 $323 reversed single #
loop $-1 $-1 $324 $188 #
plane-surface $-1 0 -16.486297286485865 -7.6549974805524474 0 -1 0 0 0 -1 forward_v I I I I #
coedge $-1 $325 $326 $327 $328 reversed $189 $-1 #
coedge $-1 $191 $329 $330 $331 forward $117 $-1 #
coedge $-1 $330 $201 $192 $266 forward $203 $-1 #
edge $-1 $270 -82.92595284749865 $267 -74.442300348039808 $265 $332 forward 7 unknown #
vertex $-1 $266 $333 #
straight-curve $-1 33.841386219609923 -14.058786818679668 9.1549974805524528 -1 0 0 I I #
edge $-1 $199 -0.46204672269112645 $270 9.5265401200168203 $201 $334 forward 7 unknown #
vertex $-1 $269 $335 #
straight-curve $-1 -19.942410815569843 -14.058786818679668 88.296528235883301 -0.66913059716165679 0 0.74314483375859142 I I #
point $-1 51.316941774916941 -14.058786818679668 9.1549974805524528 #
point $-1 58.955656605731377 -4.0701999759717209 0.67134498109361118 #
coedge $-1 $202 $336 $337 $338 reversed $203 $-1 #
face $-1 $-1 $203 $14 $-1 $339 reversed single #
coedge $-1 $329 $205 $340 $341 forward $117 $-1 #
coedge $-1 $337 $342 $205 $278 reversed $343 $-1 #
edge $-1 $279 -58.955656605731377 $344 58.955656605731377 $277 $345 forward 7 unknown #
vertex $-1 $206 $346 #
straight-curve $-1 58.955656605731377 0 9.1549974805524474 0 1 0 I I #
face $-1 $347 $348 $15 $-1 $349 reversed single #
loop $-1 $-1 $350 $209 #
plane-surface $-1 0 0 9.1549974805524474 0 0 1 1 0 0 forward_v I I I I #
coedge $-1 $351 $352 $350 $353 reversed $210 $-1 #
coedge $-1 $354 $286 $291 $355 reversed $212 $-1 #
coedge $-1 $285 $356 $213 $287 reversed $212 $-1 #
edge $-1 $292 106.49543286879627 $357 117.91131321146274 $213 $358 forward 7 unknown #
coedge $-1 $359 $360 $214 $289 forward $361 $-1 #
edge $-1 $293 74.442300348039808 $357 82.92595284749865 $288 $362 forward 7 unknown #
coedge $-1 $363 $215 $360 $364 forward $282 $-1 #
coedge $-1 $215 $350 $285 $355 forward $282 $-1 #
vertex $-1 $355 $365 #
vertex $-1 $364 $366 #
straight-curve $-1 33.841386219609923 -4.0701999759717209 9.1549974805524528 1 0 0 I I #
vertex $-1 $217 $367 #
point $-1 53.256801573318477 -9.0644933973256947 1.8752313027304623 #
straight-curve $-1 -58.955656605731377 24.545215229205834 0 0 0 -1 I I #
point $-1 -58.955656605731377 -24.545215229205834 -9.1549974805524474 #
straight-curve $-1 -58.955656605731377 0 -9.1549974805524474 0 1 0 I I #
point $-1 -58.955656605731377 24.545215229205834 -9.1549974805524474 #
loop $-1 $-1 $314 $237 #
plane-surface $-1 0 24.545215229205834 0 0 -1 0 0 0 -1 forward_v I I I I #
coedge $-1 $368 $240 $369 $370 forward $167 $-1 #
coedge $-1 $240 $368 $243 $308 forward $167 $-1 #
coedge $-1 $242 $241 $371 $372 forward $101 $-1 #
coedge $-1 $246 $373 $241 $307 reversed $238 $-1 #
edge $-1 $248 -16.486297286485865 $374 24.545215229205834 $306 $375 forward 7 unknown #
edge $-1 $310 -58.955656605731377 $257 58.955656605731377 $243 $376 forward 7 unknown #
coedge $-1 $373 $244 $368 $377 reversed $238 $-1 #
vertex $-1 $377 $378 #
straight-curve $-1 -58.955656605731377 -24.545215229205834 0 0 0 -1 I I #
straight-curve $-1 -58.955656605731377 -16.486297286485865 -3.8274987402762237 0 0 1 I I #
point $-1 -58.955656605731377 -16.486297286485865 -9.1549974805524474 #
coedge $-1 $371 $369 $250 $315 forward $301 $-1 #
edge $-1 $318 -9.1549974805524474 $316 9.1549974805524474 $250 $379 forward 7 unknown #
vertex $-1 $251 $380 #
straight-curve $-1 58.955656605731377 0 -9.1549974805524474 0 -1 0 I I #
vertex $-1 $256 $381 #
straight-curve $-1 58.955656605731377 0 9.1549974805524474 0 1 0 I I #
point $-1 58.955656605731377 -24.545215229205834 9.1549974805524474 #
face $-1 $382 $383 $14 $-1 $384 reversed single #
loop $-1 $-1 $385 $260 #
plane-surface $-1 0 -24.545215229205834 0 0 1 0 0 0 1 forward_v I I I I #
coedge $-1 $386 $387 $388 $389 reversed $261 $-1 #
coedge $-1 $390 $263 $385 $391 reversed $189 $-1 #
coedge $-1 $263 $390 $386 $392 reversed $189 $-1 #
coedge $-1 $388 $393 $263 $328 forward $203 $-1 #
edge $-1 $394 -14.287337100282912 $395 -6.2284191575629393 $327 $396 forward 7 unknown #
coedge $-1 $264 $276 $397 $398 forward $117 $-1 #
coedge $-1 $393 $265 $264 $331 reversed $203 $-1 #
edge $-1 $399 -24.545215229205834 $267 -14.058786818679668 $330 $280 forward 7 unknown #
straight-curve $-1 58.955656605731377 -14.058786818679668 83.597297828592261 0 0 1 I I #
point $-1 58.955656605731377 -14.058786818679668 9.1549974805524474 #
straight-curve $-1 58.955656605731377 -4.5322466986628474 0.67134498109361118 0 -1 0 I I #
point $-1 58.955656605731377 -14.058786818679668 0.67134498109361118 #
coedge $-1 $274 $388 $400 $401 reversed $203 $-1 #
coedge $-1 $402 $277 $274 $338 forward $343 $-1 #
edge $-1 $279 -9.1549974805524474 $403 9.1549974805524474 $274 $404 forward 7 unknown #
plane-surface $-1 58.955656605731377 0 0 -1 0 0 0 0 1 forward_v I I I I #
coedge $-1 $405 $406 $276 $341 reversed $407 $-1 #
edge $-1 $344 -24.545215229205834 $408 24.545215229205834 $340 $409 forward 7 unknown #
coedge $-1 $277 $402 $405 $410 reversed $343 $-1 #
loop $-1 $-1 $337 $411 #
vertex $-1 $278 $412 #
straight-curve $-1 0 24.545215229205834 9.1549974805524474 -1 0 0 I I #
point $-1 58.955656605731377 24.545215229205834 9.1549974805524474 #
face $-1 $413 $414 $15 $-1 $415 forward single #
loop $-1 $-1 $416 $281 #
plane-surface $-1 0 -20.515756257845851 -6.1549974805524474 0 0 1 1 0 0 forward_v I I I I #
coedge $-1 $291 $417 $284 $353 forward $282 $-1 #
coedge $-1 $352 $284 $418 $419 reversed $210 $-1 #
coedge $-1 $284 $351 $354 $420 forward $210 $-1 #
edge $-1 $421 -25.114270386121454 $422 -17.475555555307018 $350 $423 forward 7 unknown #
coedge $-1 $356 $285 $352 $420 reversed $212 $-1 #
edge $-1 $422 -9.5265401200168203 $292 0.46204672269112645 $291 $424 forward 7 unknown #
coedge $-1 $286 $354 $359 $425 reversed $212 $-1 #
vertex $-1 $425 $426 #
straight-curve $-1 -19.942410815569843 -4.0701999759717209 88.296528235883301 0.66913059716165679 0 -0.74314483375859142 I I #
coedge $-1 $418 $288 $356 $425 forward $361 $-1 #
coedge $-1 $288 $427 $290 $364 reversed $361 $-1 #
loop $-1 $-1 $418 $428 #
straight-curve $-1 58.955656605731377 -4.0701999759717209 83.597297828592261 0 0 -1 I I #
coedge $-1 $429 $290 $430 $431 forward $282 $-1 #
edge $-1 $293 -4.0701999759717209 $432 24.545215229205834 $360 $433 forward 7 unknown #
point $-1 51.316941774916941 -4.0701999759717209 9.1549974805524528 #
point $-1 58.955656605731377 -4.0701999759717209 9.1549974805524474 #
point $-1 51.84452614239823 -9.0644933973256947 1.9492455393273969 #
coedge $-1 $304 $303 $309 $377 forward $167 $-1 #
coedge $-1 $314 $434 $303 $370 reversed $301 $-1 #
edge $-1 $318 -58.955656605731377 $435 58.955656605731377 $369 $436 forward 7 unknown #
coedge $-1 $434 $314 $305 $372 reversed $301 $-1 #
edge $-1 $374 -58.955656605731377 $316 58.955656605731377 $371 $437 forward 7 unknown #
coedge $-1 $306 $309 $434 $438 forward $238 $-1 #
vertex $-1 $372 $439 #
straight-curve $-1 -58.955656605731377 0 -9.1549974805524474 0 1 0 I I #
straight-curve $-1 0 -24.545215229205834 9.1549974805524474 1 0 0 I I #
edge $-1 $435 -24.545215229205834 $310 24.545215229205834 $309 $440 forward 7 unknown #
point $-1 -58.955656605731377 -24.545215229205834 9.1549974805524474 #
straight-curve $-1 58.955656605731377 24.545215229205834 0 0 0 -1 I I #
point $-1 58.955656605731377 24.545215229205834 -9.1549974805524474 #
point $-1 58.955656605731377 24.545215229205834 9.1549974805524474 #
face $-1 $411 $407 $14 $-1 $441 reversed single #
loop $-1 $-1 $442 $321 #
plane-surface $-1 0 0 -9.1549974805524474 0 0 1 1 0 0 forward_v I I I I #
coedge $-1 $443 $444 $325 $391 forward $322 $-1 #
coedge $-1 $445 $324 $326 $392 forward $261 $-1 #
coedge $-1 $324 $445 $442 $446 reversed $261 $-1 #
coedge $-1 $336 $327 $324 $389 forward $203 $-1 #
edge $-1 $395 2.3274987402762237 $447 5.3274987402762237 $388 $448 forward 7 unknown #
coedge $-1 $326 $325 $449 $450 reversed $189 $-1 #
edge $-1 $451 -58.955656605731377 $394 58.955656605731377 $385 $452 forward 7 unknown #
edge $-1 $395 -58.955656605731377 $453 58.955656605731377 $386 $454 forward 7 unknown #
coedge $-1 $327 $330 $443 $455 forward $203 $-1 #
vertex $-1 $391 $456 #
vertex $-1 $328 $457 #
straight-curve $-1 58.955656605731377 -10.257878128922925 -6.1549974805524474 0 1 0 I I #
coedge $-1 $444 $443 $329 $398 reversed $322 $-1 #
edge $-1 $408 -58.955656605731377 $399 58.955656605731377 $397 $458 forward 7 unknown #
vertex $-1 $331 $459 #
coedge $-1 $442 $460 $336 $401 forward $383 $-1 #
edge $-1 $403 -24.545215229205834 $447 16.486297286485865 $336 $461 forward 7 unknown #
coedge $-1 $342 $337 $460 $462 reversed $343 $-1 #
vertex $-1 $401 $463 #
straight-curve $-1 58.955656605731377 24.545215229205834 0 0 0 -1 I I #
coedge $-1 $464 $340 $342 $410 forward $407 $-1 #
coedge $-1 $340 $449 $444 $465 reversed $407 $-1 #
loop $-1 $-1 $449 $382 #
vertex $-1 $341 $466 #
straight-curve $-1 -58.955656605731377 0 9.1549974805524474 0 -1 0 I I #
edge $-1 $344 -9.1549974805524474 $467 9.1549974805524474 $342 $468 forward 7 unknown #
face $-1 $275 $343 $14 $-1 $469 reversed single #
point $-1 -58.955656605731377 24.545215229205834 9.1549974805524474 #
face $-1 $470 $471 $15 $-1 $472 reversed single #
loop $-1 $-1 $473 $347 #
plane-surface $-1 0 -16.486297286485865 -7.6549974805524474 0 -1 0 0 0 -1 forward_v I I I I #
coedge $-1 $474 $475 $476 $477 reversed $348 $-1 #
coedge $-1 $350 $478 $479 $480 forward $282 $-1 #
coedge $-1 $479 $359 $351 $419 forward $361 $-1 #
edge $-1 $481 -82.92595284749865 $421 -74.442300348039808 $418 $482 forward 7 unknown #
edge $-1 $481 -117.91131321146274 $422 -106.49543286879627 $352 $483 forward 7 unknown #
vertex $-1 $419 $484 #
vertex $-1 $355 $485 #
straight-curve $-1 33.841386219609923 -14.058786818679668 9.1549974805524528 -1 0 0 I I #
straight-curve $-1 51.316941774916955 -4.5322466986628474 9.1549974805524386 0 1 0 I I #
edge $-1 $357 -0.46204672269112645 $481 9.5265401200168203 $359 $486 forward 7 unknown #
point $-1 58.955656605731377 -4.0701999759717209 0.67134498109361118 #
coedge $-1 $360 $487 $488 $489 reversed $361 $-1 #
face $-1 $-1 $361 $15 $-1 $490 reversed single #
coedge $-1 $478 $363 $491 $492 forward $282 $-1 #
coedge $-1 $488 $493 $363 $431 reversed $494 $-1 #
edge $-1 $432 -58.955656605731377 $495 58.955656605731377 $430 $496 forward 7 unknown #
vertex $-1 $364 $497 #
straight-curve $-1 58.955656605731377 0 9.1549974805524474 0 1 0 I I #
coedge $-1 $369 $371 $373 $438 reversed $301 $-1 #
vertex $-1 $370 $498 #
straight-curve $-1 0 24.545215229205834 9.1549974805524474 -1 0 0 I I #
straight-curve $-1 0 24.545215229205834 -9.1549974805524474 1 0 0 I I #
edge $-1 $435 -9.1549974805524474 $374 9.1549974805524474 $434 $499 forward 7 unknown #
point $-1 -58.955656605731377 24.545215229205834 -9.1549974805524474 #
straight-curve $-1 -58.955656605731377 0 9.1549974805524474 0 -1 0 I I #
plane-surface $-1 -58.955656605731377 0 0 1 0 0 0 0 -1 forward_v I I I I #
coedge $-1 $500 $400 $387 $446 forward $383 $-1 #
coedge $-1 $397 $385 $393 $455 reversed $322 $-1 #
coedge $-1 $385 $397 $406 $465 forward $322 $-1 #
coedge $-1 $387 $386 $501 $502 reversed $261 $-1 #
edge $-1 $447 -58.955656605731377 $503 58.955656605731377 $442 $504 forward 7 unknown #
vertex $-1 $446 $505 #
straight-curve $-1 58.955656605731377 -16.486297286485865 -3.8274987402762237 0 0 -1 I I #
coedge $-1 $406 $501 $390 $450 forward $407 $-1 #
edge $-1 $453 6.2284191575629393 $451 14.287337100282912 $449 $506 forward 7 unknown #
vertex $-1 $391 $507 #
straight-curve $-1 0 -24.545215229205834 -6.1549974805524474 1 0 0 I I #
vertex $-1 $450 $508 #
straight-curve $-1 0 -16.486297286485865 -6.1549974805524474 -1 0 0 I I #
edge $-1 $399 -9.1549974805524474 $394 6.1549974805524474 $393 $509 forward 7 unknown #
point $-1 58.955656605731377 -24.545215229205837 -6.1549974805524474 #
point $-1 58.955656605731377 -16.486297286485865 -6.1549974805524474 #
straight-curve $-1 0 -24.545215229205834 9.1549974805524474 1 0 0 I I #
point $-1 58.955656605731377 -24.545215229205834 9.1549974805524474 #
coedge $-1 $400 $500 $402 $462 forward $383 $-1 #
straight-curve $-1 58.955656605731377 0 -9.1549974805524474 0 -1 0 I I #
edge $-1 $467 -58.955656605731377 $403 58.955656605731377 $402 $510 forward 7 unknown #
point $-1 58.955656605731377 24.545215229205834 -9.1549974805524474 #
coedge $-1 $501 $405 $500 $511 reversed $407 $-1 #
edge $-1 $408 -9.1549974805524474 $451 6.1549974805524474 $406 $512 forward 7 unknown #
point $-1 -58.955656605731377 -24.545215229205834 9.1549974805524474 #
vertex $-1 $462 $513 #
straight-curve $-1 -58.955656605731377 24.545215229205834 0 0 0 -1 I I #
plane-surface $-1 0 24.545215229205834 0 0 -1 0 0 0 -1 forward_v I I I I #
face $-1 $514 $515 $15 $-1 $516 reversed single #
loop $-1 $-1 $517 $413 #
plane-surface $-1 0 -24.545215229205834 0 0 1 0 0 0 1 forward_v I I I I #
coedge $-1 $518 $519 $520 $521 reversed $414 $-1 #
coedge $-1 $522 $416 $517 $523 reversed $348 $-1 #
coedge $-1 $416 $522 $518 $524 reversed $348 $-1 #
coedge $-1 $520 $525 $416 $477 forward $361 $-1 #
edge $-1 $526 -14.287337100282912 $527 -6.2284191575629393 $476 $528 forward 7 unknown #
coedge $-1 $417 $429 $529 $530 forward $282 $-1 #
coedge $-1 $525 $418 $417 $480 reversed $361 $-1 #
edge $-1 $531 -24.545215229205834 $421 -14.058786818679668 $479 $433 forward 7 unknown #
vertex $-1 $425 $532 #
straight-curve $-1 58.955656605731377 -14.058786818679668 83.597297828592261 0 0 1 I I #
straight-curve $-1 -19.942410815569843 -14.058786818679668 88.296528235883301 -0.66913059716165679 0 0.74314483375859142 I I #
point $-1 58.955656605731377 -14.058786818679668 9.1549974805524474 #
point $-1 51.316941774916941 -14.058786818679668 9.1549974805524528 #
straight-curve $-1 58.955656605731377 -4.5322466986628474 0.67134498109361118 0 -1 0 I I #
coedge $-1 $427 $520 $533 $534 reversed $361 $-1 #
coedge $-1 $535 $430 $427 $489 forward $494 $-1 #
edge $-1 $432 -9.1549974805524474 $536 9.1549974805524474 $427 $537 forward 7 unknown #
plane-surface $-1 58.955656605731377 0 0 -1 0 0 0 0 1 forward_v I I I I #
coedge $-1 $538 $539 $429 $492 reversed $540 $-1 #
edge $-1 $495 -24.545215229205834 $541 24.545215229205834 $491 $542 forward 7 unknown #
coedge $-1 $430 $535 $538 $543 reversed $494 $-1 #
loop $-1 $-1 $488 $544 #
vertex $-1 $431 $545 #
straight-curve $-1 0 24.545215229205834 9.1549974805524474 -1 0 0 I I #
point $-1 58.955656605731377 24.545215229205834 9.1549974805524474 #
point $-1 -58.955656605731377 24.545215229205834 9.1549974805524474 #
straight-curve $-1 -58.955656605731377 24.545215229205834 0 0 0 -1 I I #
coedge $-1 $460 $442 $464 $511 forward $383 $-1 #
coedge $-1 $449 $464 $445 $502 forward $407 $-1 #
edge $-1 $503 -5.3274987402762237 $453 -2.3274987402762237 $501 $546 forward 7 unknown #
vertex $-1 $511 $547 #
straight-curve $-1 0 -16.486297286485865 -9.1549974805524474 -1 0 0 I I #
point $-1 58.955656605731377 -16.486297286485865 -9.1549974805524474 #
straight-curve $-1 -58.955656605731377 -10.257878128922925 -6.1549974805524474 0 -1 0 I I #
point $-1 -58.955656605731377 -24.545215229205837 -6.1549974805524474 #
point $-1 -58.955656605731377 -16.486297286485865 -6.1549974805524474 #
straight-curve $-1 58.955656605731377 -24.545215229205834 0 0 0 -1 I I #
straight-curve $-1 0 24.545215229205834 -9.1549974805524474 1 0 0 I I #
edge $-1 $503 -16.486297286485865 $467 24.545215229205834 $464 $548 forward 7 unknown #
straight-curve $-1 -58.955656605731377 -24.545215229205834 0 0 0 -1 I I #
point $-1 -58.955656605731377 24.545215229205834 -9.1549974805524474 #
face $-1 $544 $540 $15 $-1 $549 reversed single #
loop $-1 $-1 $550 $470 #
plane-surface $-1 0 0 -9.1549974805524474 0 0 1 1 0 0 forward_v I I I I #
coedge $-1 $551 $552 $474 $523 forward $471 $-1 #
coedge $-1 $553 $473 $475 $524 forward $414 $-1 #
coedge $-1 $473 $553 $550 $554 reversed $414 $-1 #
coedge $-1 $487 $476 $473 $521 forward $361 $-1 #
edge $-1 $527 2.3274987402762237 $555 5.3274987402762237 $520 $556 forward 7 unknown #
coedge $-1 $475 $474 $557 $558 reversed $348 $-1 #
edge $-1 $559 -58.955656605731377 $526 58.955656605731377 $517 $560 forward 7 unknown #
edge $-1 $527 -58.955656605731377 $561 58.955656605731377 $518 $562 forward 7 unknown #
coedge $-1 $476 $479 $551 $563 forward $361 $-1 #
vertex $-1 $523 $564 #
vertex $-1 $477 $565 #
straight-curve $-1 58.955656605731377 -10.257878128922925 -6.1549974805524474 0 1 0 I I #
coedge $-1 $552 $551 $478 $530 reversed $471 $-1 #
edge $-1 $541 -58.955656605731377 $531 58.955656605731377 $529 $566 forward 7 unknown #
vertex $-1 $480 $567 #
point $-1 58.955656605731377 -14.058786818679668 0.67134498109361118 #
coedge $-1 $550 $568 $487 $534 forward $515 $-1 #
edge $-1 $536 -24.545215229205834 $555 16.486297286485865 $487 $569 forward 7 unknown #
coedge $-1 $493 $488 $568 $570 reversed $494 $-1 #
vertex $-1 $534 $571 #
straight-curve $-1 58.955656605731377 24.545215229205834 0 0 0 -1 I I #
coedge $-1 $572 $491 $493 $543 forward $540 $-1 #
coedge $-1 $491 $557 $552 $573 reversed $540 $-1 #
loop $-1 $-1 $557 $514 #
vertex $-1 $492 $574 #
straight-curve $-1 -58.955656605731377 0 9.1549974805524474 0 -1 0 I I #
edge $-1 $495 -9.1549974805524474 $575 9.1549974805524474 $493 $576 forward 7 unknown #
face $-1 $428 $494 $15 $-1 $577 reversed single #
point $-1 -58.955656605731377 24.545215229205834 9.1549974805524474 #
straight-curve $-1 -58.955656605731377 -16.486297286485865 -3.8274987402762237 0 0 1 I I #
point $-1 -58.955656605731377 -16.486297286485865 -9.1549974805524474 #
straight-curve $-1 -58.955656605731377 0 -9.1549974805524474 0 1 0 I I #
plane-surface $-1 -58.955656605731377 0 0 1 0 0 0 0 -1 forward_v I I I I #
coedge $-1 $578 $533 $519 $554 forward $515 $-1 #
coedge $-1 $529 $517 $525 $563 reversed $471 $-1 #
coedge $-1 $517 $529 $539 $573 forward $471 $-1 #
coedge $-1 $519 $518 $579 $580 reversed $414 $-1 #
edge $-1 $555 -58.955656605731377 $581 58.955656605731377 $550 $582 forward 7 unknown #
vertex $-1 $554 $583 #
straight-curve $-1 58.955656605731377 -16.486297286485865 -3.8274987402762237 0 0 -1 I I #
coedge $-1 $539 $579 $522 $558 forward $540 $-1 #
edge $-1 $561 6.2284191575629393 $559 14.287337100282912 $557 $584 forward 7 unknown #
vertex $-1 $523 $585 #
straight-curve $-1 0 -24.545215229205834 -6.1549974805524474 1 0 0 I I #
vertex $-1 $558 $586 #
straight-curve $-1 0 -16.486297286485865 -6.1549974805524474 -1 0 0 I I #
edge $-1 $531 -9.1549974805524474 $526 6.1549974805524474 $525 $587 forward 7 unknown #
point $-1 58.955656605731377 -24.545215229205837 -6.1549974805524474 #
point $-1 58.955656605731377 -16.486297286485865 -6.1549974805524474 #
straight-curve $-1 0 -24.545215229205834 9.1549974805524474 1 0 0 I I #
point $-1 58.955656605731377 -24.545215229205834 9.1549974805524474 #
coedge $-1 $533 $578 $535 $570 forward $515 $-1 #
straight-curve $-1 58.955656605731377 0 -9.1549974805524474 0 -1 0 I I #
edge $-1 $575 -58.955656605731377 $536 58.955656605731377 $535 $588 forward 7 unknown #
point $-1 58.955656605731377 24.545215229205834 -9.1549974805524474 #
coedge $-1 $579 $538 $578 $589 reversed $540 $-1 #
edge $-1 $541 -9.1549974805524474 $559 6.1549974805524474 $539 $590 forward 7 unknown #
point $-1 -58.955656605731377 -24.545215229205834 9.1549974805524474 #
vertex $-1 $570 $591 #
straight-curve $-1 -58.955656605731377 24.545215229205834 0 0 0 -1 I I #
plane-surface $-1 0 24.545215229205834 0 0 -1 0 0 0 -1 forward_v I I I I #
coedge $-1 $568 $550 $572 $589 forward $515 $-1 #
coedge $-1 $557 $572 $553 $580 forward $540 $-1 #
edge $-1 $581 -5.3274987402762237 $561 -2.3274987402762237 $579 $592 forward 7 unknown #
vertex $-1 $589 $593 #
straight-curve $-1 0 -16.486297286485865 -9.1549974805524474 -1 0 0 I I #
point $-1 58.955656605731377 -16.486297286485865 -9.1549974805524474 #
straight-curve $-1 -58.955656605731377 -10.257878128922925 -6.1549974805524474 0 -1 0 I I #
point $-1 -58.955656605731377 -24.545215229205837 -6.1549974805524474 #
point $-1 -58.955656605731377 -16.486297286485865 -6.1549974805524474 #
straight-curve $-1 58.955656605731377 -24.545215229205834 0 0 0 -1 I I #
straight-curve $-1 0 24.545215229205834 -9.1549974805524474 1 0 0 I I #
edge $-1 $581 -16.486297286485865 $575 24.545215229205834 $572 $594 forward 7 unknown #
straight-curve $-1 -58.955656605731377 -24.545215229205834 0 0 0 -1 I I #
point $-1 -58.955656605731377 24.545215229205834 -9.1549974805524474 #
straight-curve $-1 -58.955656605731377 -16.486297286485865 -3.8274987402762237 0 0 1 I I #
point $-1 -58.955656605731377 -16.486297286485865 -9.1549974805524474 #
straight-curve $-1 -58.955656605731377 0 -9.1549974805524474 0 1 0 I I #
End-of-ACIS-data 