500 0 21 0           
7 Unknown 11 ACIS 5.0 NT 24 Fri Mar 26 17:14:45 1999 
-1 9.9999999999999995e-007 1e-010 
body $-1 $21 $-1 $22 #
body $-1 $23 $-1 $24 #
body $-1 $25 $-1 $26 #
body $-1 $27 $-1 $28 #
body $-1 $29 $-1 $30 #
body $-1 $31 $-1 $32 #
body $-1 $33 $-1 $34 #
body $-1 $35 $-1 $36 #
body $-1 $37 $-1 $38 #
body $-1 $39 $-1 $40 #
body $-1 $41 $-1 $42 #
body $-1 $43 $-1 $44 #
body $-1 $45 $-1 $46 #
body $-1 $47 $-1 $48 #
body $-1 $49 $-1 $50 #
body $-1 $51 $-1 $52 #
body $-1 $53 $-1 $54 #
body $-1 $55 $-1 $56 #
body $-1 $57 $-1 $58 #
body $-1 $59 $-1 $60 #
body $-1 $61 $-1 $62 #
lump $-1 $-1 $63 $0 #
transform $-1 1 0 0 0 1 0 0 0 1 66.585283974730672 39.989779973617352 18.858793115644382 1 rotate no_reflect no_shear #
lump $-1 $-1 $64 $1 #
transform $-1 1 0 0 0 1 0 0 0 1 66.585283974730672 39.989779973617352 18.858793115644382 1 rotate no_reflect no_shear #
lump $-1 $-1 $65 $2 #
transform $-1 1 0 0 0 1 0 0 0 1 66.585283974730672 39.989779973617352 18.858793115644382 1 rotate no_reflect no_shear #
lump $-1 $-1 $66 $3 #
transform $-1 1 0 0 0 1 0 0 0 1 66.585283974730672 39.989779973617352 18.858793115644382 1 rotate no_reflect no_shear #
lump $-1 $-1 $67 $4 #
transform $-1 1 0 0 0 1 0 0 0 1 66.585283974730672 39.989779973617352 18.858793115644382 1 rotate no_reflect no_shear #
lump $-1 $-1 $68 $5 #
transform $-1 1 0 0 0 1 0 0 0 1 66.585283974730672 39.989779973617352 18.858793115644382 1 rotate no_reflect no_shear #
lump $-1 $-1 $69 $6 #
transform $-1 1 0 0 0 1 0 0 0 1 66.585283974730672 39.989779973617352 18.858793115644382 1 rotate no_reflect no_shear #
lump $-1 $-1 $70 $7 #
transform $-1 1 0 0 0 1 0 0 0 1 66.585283974730672 39.989779973617352 18.858793115644382 1 rotate no_reflect no_shear #
lump $-1 $-1 $71 $8 #
transform $-1 1 0 0 0 1 0 0 0 1 66.585283974730672 39.989779973617352 18.858793115644382 1 rotate no_reflect no_shear #
lump $-1 $-1 $72 $9 #
transform $-1 1 0 0 0 1 0 0 0 1 66.585283974730672 39.989779973617352 18.858793115644382 1 rotate no_reflect no_shear #
lump $-1 $-1 $73 $10 #
transform $-1 1 0 0 0 1 0 0 0 1 66.585283974730672 39.989779973617352 18.858793115644382 1 rotate no_reflect no_shear #
lump $-1 $-1 $74 $11 #
transform $-1 1 0 0 0 1 0 0 0 1 66.585283974730672 39.989779973617352 18.858793115644382 1 rotate no_reflect no_shear #
lump $-1 $-1 $75 $12 #
transform $-1 1 0 0 0 1 0 0 0 1 66.585283974730672 39.989779973617352 18.858793115644382 1 rotate no_reflect no_shear #
lump $-1 $-1 $76 $13 #
transform $-1 1 0 0 0 1 0 0 0 1 66.585283974730672 39.989779973617352 18.858793115644382 1 rotate no_reflect no_shear #
lump $-1 $-1 $77 $14 #
transform $-1 1 0 0 0 1 0 0 0 1 66.585283974730672 39.989779973617352 18.858793115644382 1 rotate no_reflect no_shear #
lump $-1 $-1 $78 $15 #
transform $-1 1 0 0 0 1 0 0 0 1 66.585283974730672 39.989779973617352 18.858793115644382 1 rotate no_reflect no_shear #
lump $-1 $-1 $79 $16 #
transform $-1 1 0 0 0 1 0 0 0 1 66.585283974730672 39.989779973617352 18.858793115644382 1 rotate no_reflect no_shear #
lump $-1 $-1 $80 $17 #
transform $-1 1 0 0 0 1 0 0 0 1 66.585283974730672 39.989779973617352 18.858793115644382 1 rotate no_reflect no_shear #
lump $-1 $-1 $81 $18 #
transform $-1 1 0 0 0 1 0 0 0 1 66.585283974730672 39.989779973617352 18.858793115644382 1 rotate no_reflect no_shear #
lump $-1 $-1 $82 $19 #
transform $-1 1 0 0 0 1 0 0 0 1 66.585283974730672 39.989779973617352 18.858793115644382 1 rotate no_reflect no_shear #
lump $-1 $-1 $83 $20 #
transform $-1 1 0 0 0 1 0 0 0 1 66.585283974730672 39.989779973617352 18.858793115644382 1 rotate no_reflect no_shear #
shell $-1 $-1 $-1 $84 $-1 $21 #
shell $-1 $-1 $-1 $85 $-1 $23 #
shell $-1 $-1 $-1 $86 $-1 $25 #
shell $-1 $-1 $-1 $87 $-1 $27 #
shell $-1 $-1 $-1 $88 $-1 $29 #
shell $-1 $-1 $-1 $89 $-1 $31 #
shell $-1 $-1 $-1 $90 $-1 $33 #
shell $-1 $-1 $-1 $91 $-1 $35 #
shell $-1 $-1 $-1 $92 $-1 $37 #
shell $-1 $-1 $-1 $93 $-1 $39 #
shell $-1 $-1 $-1 $94 $-1 $41 #
shell $-1 $-1 $-1 $95 $-1 $43 #
shell $-1 $-1 $-1 $96 $-1 $45 #
shell $-1 $-1 $-1 $97 $-1 $47 #
shell $-1 $-1 $-1 $98 $-1 $49 #
shell $-1 $-1 $-1 $99 $-1 $51 #
shell $-1 $-1 $-1 $100 $-1 $53 #
shell $-1 $-1 $-1 $101 $-1 $55 #
shell $-1 $-1 $-1 $102 $-1 $57 #
shell $-1 $-1 $-1 $103 $-1 $59 #
shell $-1 $-1 $-1 $104 $-1 $61 #
face $-1 $105 $106 $63 $-1 $107 forward single #
face $-1 $108 $109 $64 $-1 $110 forward single #
face $-1 $111 $112 $65 $-1 $113 reversed single #
face $-1 $114 $115 $66 $-1 $116 forward single #
face $-1 $117 $118 $67 $-1 $119 forward single #
face $-1 $120 $121 $68 $-1 $122 forward single #
face $-1 $123 $124 $69 $-1 $125 reversed single #
face $-1 $126 $127 $70 $-1 $128 forward single #
face $-1 $129 $130 $71 $-1 $131 forward single #
face $-1 $132 $133 $72 $-1 $134 forward single #
face $-1 $135 $136 $73 $-1 $137 reversed single #
face $-1 $138 $139 $74 $-1 $140 forward single #
face $-1 $141 $142 $75 $-1 $143 forward single #
face $-1 $144 $145 $76 $-1 $146 forward single #
face $-1 $147 $148 $77 $-1 $149 reversed single #
face $-1 $150 $151 $78 $-1 $152 forward single #
face $-1 $153 $154 $79 $-1 $155 forward single #
face $-1 $156 $157 $80 $-1 $158 forward single #
face $-1 $159 $160 $81 $-1 $161 reversed single #
face $-1 $162 $163 $82 $-1 $164 forward single #
face $-1 $165 $166 $83 $-1 $167 forward single #
face $-1 $168 $169 $63 $-1 $170 reversed single #
loop $-1 $-1 $171 $84 #
plane-surface $-1 0 0 18.858793115644382 0 0 1 1 0 0 forward_v I I I I #
face $-1 $172 $173 $64 $-1 $174 reversed single #
loop $-1 $-1 $175 $85 #
plane-surface $-1 -58.393078806700657 0 -11.510845128113274 0 0 1 1 0 0 forward_v I I I I #
face $-1 $176 $177 $65 $-1 $178 reversed single #
loop $-1 $-1 $179 $86 #
plane-surface $-1 -50.20087363867065 -135.78467083054886 99.242723908516922 1 0 0 0 0.71933980857756763 -0.69465836192734942 forward_v I I I I #
face $-1 $180 $181 $66 $-1 $182 forward single #
loop $-1 $183 $184 $87 #
cone-surface $-1 -46.836005217965791 -33.566647582692255 12.247189430047753 0 0.71933980857756763 -0.69465836192734942 1 0 0 1 I I 0 1 1 forward I I I I #
face $-1 $185 $186 $67 $-1 $187 forward single #
loop $-1 $188 $189 $88 #
cone-surface $-1 -41.788702586908506 -33.566647582692255 12.247189430047753 0 0.71933980857756763 -0.69465836192734942 1 0 0 1 I I 0 1 1 forward I I I I #
face $-1 $190 $191 $68 $-1 $192 forward single #
loop $-1 $193 $194 $89 #
cone-surface $-1 -36.741399955851222 -33.566647582692255 12.247189430047753 0 0.71933980857756763 -0.69465836192734942 1 0 0 1 I I 0 1 1 forward I I I I #
face $-1 $195 $196 $69 $-1 $197 reversed single #
loop $-1 $-1 $198 $90 #
plane-surface $-1 -21.004334235320329 -135.78467083054886 99.242723908516922 1 0 0 0 0.71933980857756763 -0.69465836192734942 forward_v I I I I #
face $-1 $199 $200 $70 $-1 $201 forward single #
loop $-1 $202 $203 $91 #
cone-surface $-1 -17.639465814615463 -33.566647582692255 12.247189430047753 0 0.71933980857756763 -0.69465836192734942 1 0 0 1 I I 0 1 1 forward I I I I #
face $-1 $204 $205 $71 $-1 $206 forward single #
loop $-1 $207 $208 $92 #
cone-surface $-1 -12.592163183558185 -33.566647582692255 12.247189430047753 0 0.71933980857756763 -0.69465836192734942 1 0 0 1 I I 0 1 1 forward I I I I #
face $-1 $209 $210 $72 $-1 $211 forward single #
loop $-1 $212 $213 $93 #
cone-surface $-1 -7.5448605525008929 -33.566647582692255 12.247189430047753 0 0.71933980857756763 -0.69465836192734942 1 0 0 1 I I 0 1 1 forward I I I I #
face $-1 $214 $215 $73 $-1 $216 reversed single #
loop $-1 $-1 $217 $94 #
plane-surface $-1 8.1922051680300019 -135.78467083054886 99.242723908516922 1 0 0 0 0.71933980857756763 -0.69465836192734942 forward_v I I I I #
face $-1 $218 $219 $74 $-1 $220 forward single #
loop $-1 $221 $222 $95 #
cone-surface $-1 11.557073588734866 -33.566647582692255 12.247189430047753 0 0.71933980857756763 -0.69465836192734942 1 0 0 1 I I 0 1 1 forward I I I I #
face $-1 $223 $224 $75 $-1 $225 forward single #
loop $-1 $226 $227 $96 #
cone-surface $-1 16.604376219792144 -33.566647582692255 12.247189430047753 0 0.71933980857756763 -0.69465836192734942 1 0 0 1 I I 0 1 1 forward I I I I #
face $-1 $228 $229 $76 $-1 $230 forward single #
loop $-1 $231 $232 $97 #
cone-surface $-1 21.651678850849436 -33.566647582692255 12.247189430047753 0 0.71933980857756763 -0.69465836192734942 1 0 0 1 I I 0 1 1 forward I I I I #
face $-1 $233 $234 $77 $-1 $235 reversed single #
loop $-1 $-1 $236 $98 #
plane-surface $-1 37.388744571380329 -135.78467083054886 99.242723908516922 1 0 0 0 0.71933980857756763 -0.69465836192734942 forward_v I I I I #
face $-1 $237 $238 $78 $-1 $239 forward single #
loop $-1 $240 $241 $99 #
cone-surface $-1 40.753612992085195 -33.566647582692255 12.247189430047753 0 0.71933980857756763 -0.69465836192734942 1 0 0 1 I I 0 1 1 forward I I I I #
face $-1 $242 $243 $79 $-1 $244 forward single #
loop $-1 $245 $246 $100 #
cone-surface $-1 45.800915623142473 -33.566647582692255 12.247189430047753 0 0.71933980857756763 -0.69465836192734942 1 0 0 1 I I 0 1 1 forward I I I I #
face $-1 $247 $248 $80 $-1 $249 forward single #
loop $-1 $250 $251 $101 #
cone-surface $-1 50.848218254199764 -33.566647582692255 12.247189430047753 0 0.71933980857756763 -0.69465836192734942 1 0 0 1 I I 0 1 1 forward I I I I #
face $-1 $252 $253 $81 $-1 $254 reversed single #
loop $-1 $-1 $255 $102 #
plane-surface $-1 12.896226746652822 64.322275148094633 155.64739451759866 1 0 0 0 -0.64278761758704617 -0.76604443648966558 forward_v I I I I #
face $-1 $256 $257 $82 $-1 $258 forward single #
loop $-1 $259 $260 $103 #
cone-surface $-1 19.90077910676932 27.96630800098146 8.0256047863356308 0 -0.64278761758704617 -0.76604443648966558 2.5 0 0 1 I I 0 1 2.5 forward I I I I #
face $-1 $261 $262 $83 $-1 $263 forward single #
loop $-1 $264 $265 $104 #
cone-surface $-1 30.407607646944072 27.96630800098146 8.0256047863356308 0 -0.64278761758704617 -0.76604443648966558 2.5 0 0 1 I I 0 1 2.5 forward I I I I #
face $-1 $266 $267 $63 $-1 $268 reversed single #
loop $-1 $-1 $269 $105 #
plane-surface $-1 0 0 -18.858793115644382 0 0 1 1 0 0 forward_v I I I I #
coedge $-1 $270 $271 $272 $273 forward $106 $-1 #
face $-1 $274 $275 $64 $-1 $276 reversed single #
loop $-1 $-1 $277 $108 #
plane-surface $-1 -50.200873638670643 0 -15.184819121878828 -1 0 0 0 0 1 forward_v I I I I #
coedge $-1 $278 $279 $280 $281 forward $109 $-1 #
face $-1 $282 $283 $65 $-1 $284 reversed single #
loop $-1 $-1 $285 $111 #
plane-surface $-1 -41.788702586908506 -39.989779973617374 6.7346753198093268 0 -0.71933980857756763 0.69465836192734942 1 0 0 forward_v I I I I #
coedge $-1 $286 $287 $288 $289 reversed $112 $-1 #
face $-1 $-1 $290 $66 $-1 $291 forward single #
loop $-1 $292 $293 $114 #
cone-surface $-1 -46.836005217965791 -32.637907378469151 11.350315461404985 0 0.71933980857756763 -0.69465836192734942 0.5 0 0 1 I I -0.70710678118654746 0.70710678118654746 0.5 forward I I I I #
loop $-1 $-1 $294 $87 #
coedge $-1 $184 $184 $295 $296 reversed $115 $-1 #
face $-1 $-1 $297 $67 $-1 $298 forward single #
loop $-1 $299 $300 $117 #
cone-surface $-1 -41.788702586908506 -32.637907378469151 11.350315461404985 0 0.71933980857756763 -0.69465836192734942 0.5 0 0 1 I I -0.70710678118654746 0.70710678118654746 0.5 forward I I I I #
loop $-1 $-1 $301 $88 #
coedge $-1 $189 $189 $302 $303 reversed $118 $-1 #
face $-1 $-1 $304 $68 $-1 $305 forward single #
loop $-1 $306 $307 $120 #
cone-surface $-1 -36.741399955851222 -32.637907378469151 11.350315461404985 0 0.71933980857756763 -0.69465836192734942 0.5 0 0 1 I I -0.70710678118654746 0.70710678118654746 0.5 forward I I I I #
loop $-1 $-1 $308 $89 #
coedge $-1 $194 $194 $309 $310 reversed $121 $-1 #
face $-1 $311 $312 $69 $-1 $313 reversed single #
loop $-1 $-1 $314 $123 #
plane-surface $-1 -12.592163183558185 -39.989779973617374 6.7346753198093268 0 -0.71933980857756763 0.69465836192734942 1 0 0 forward_v I I I I #
coedge $-1 $315 $316 $317 $318 reversed $124 $-1 #
face $-1 $-1 $319 $70 $-1 $320 forward single #
loop $-1 $321 $322 $126 #
cone-surface $-1 -17.639465814615463 -32.637907378469151 11.350315461404985 0 0.71933980857756763 -0.69465836192734942 0.5 0 0 1 I I -0.70710678118654746 0.70710678118654746 0.5 forward I I I I #
loop $-1 $-1 $323 $91 #
coedge $-1 $203 $203 $324 $325 reversed $127 $-1 #
face $-1 $-1 $326 $71 $-1 $327 forward single #
loop $-1 $328 $329 $129 #
cone-surface $-1 -12.592163183558185 -32.637907378469151 11.350315461404985 0 0.71933980857756763 -0.69465836192734942 0.5 0 0 1 I I -0.70710678118654746 0.70710678118654746 0.5 forward I I I I #
loop $-1 $-1 $330 $92 #
coedge $-1 $208 $208 $331 $332 reversed $130 $-1 #
face $-1 $-1 $333 $72 $-1 $334 forward single #
loop $-1 $335 $336 $132 #
cone-surface $-1 -7.5448605525008929 -32.637907378469151 11.350315461404985 0 0.71933980857756763 -0.69465836192734942 0.5 0 0 1 I I -0.70710678118654746 0.70710678118654746 0.5 forward I I I I #
loop $-1 $-1 $337 $93 #
coedge $-1 $213 $213 $338 $339 reversed $133 $-1 #
face $-1 $340 $341 $73 $-1 $342 reversed single #
loop $-1 $-1 $343 $135 #
plane-surface $-1 16.604376219792144 -39.989779973617374 6.7346753198093268 0 -0.71933980857756763 0.69465836192734942 1 0 0 forward_v I I I I #
coedge $-1 $344 $345 $346 $347 reversed $136 $-1 #
face $-1 $-1 $348 $74 $-1 $349 forward single #
loop $-1 $350 $351 $138 #
cone-surface $-1 11.557073588734866 -32.637907378469151 11.350315461404985 0 0.71933980857756763 -0.69465836192734942 0.5 0 0 1 I I -0.70710678118654746 0.70710678118654746 0.5 forward I I I I #
loop $-1 $-1 $352 $95 #
coedge $-1 $222 $222 $353 $354 reversed $139 $-1 #
face $-1 $-1 $355 $75 $-1 $356 forward single #
loop $-1 $357 $358 $141 #
cone-surface $-1 16.604376219792144 -32.637907378469151 11.350315461404985 0 0.71933980857756763 -0.69465836192734942 0.5 0 0 1 I I -0.70710678118654746 0.70710678118654746 0.5 forward I I I I #
loop $-1 $-1 $359 $96 #
coedge $-1 $227 $227 $360 $361 reversed $142 $-1 #
face $-1 $-1 $362 $76 $-1 $363 forward single #
loop $-1 $364 $365 $144 #
cone-surface $-1 21.651678850849436 -32.637907378469151 11.350315461404985 0 0.71933980857756763 -0.69465836192734942 0.5 0 0 1 I I -0.70710678118654746 0.70710678118654746 0.5 forward I I I I #
loop $-1 $-1 $366 $97 #
coedge $-1 $232 $232 $367 $368 reversed $145 $-1 #
face $-1 $369 $370 $77 $-1 $371 reversed single #
loop $-1 $-1 $372 $147 #
plane-surface $-1 45.800915623142473 -39.989779973617374 6.7346753198093268 0 -0.71933980857756763 0.69465836192734942 1 0 0 forward_v I I I I #
coedge $-1 $373 $374 $375 $376 reversed $148 $-1 #
face $-1 $-1 $377 $78 $-1 $378 forward single #
loop $-1 $379 $380 $150 #
cone-surface $-1 40.753612992085195 -32.637907378469151 11.350315461404985 0 0.71933980857756763 -0.69465836192734942 0.5 0 0 1 I I -0.70710678118654746 0.70710678118654746 0.5 forward I I I I #
loop $-1 $-1 $381 $99 #
coedge $-1 $241 $241 $382 $383 reversed $151 $-1 #
face $-1 $-1 $384 $79 $-1 $385 forward single #
loop $-1 $386 $387 $153 #
cone-surface $-1 45.800915623142473 -32.637907378469151 11.350315461404985 0 0.71933980857756763 -0.69465836192734942 0.5 0 0 1 I I -0.70710678118654746 0.70710678118654746 0.5 forward I I I I #
loop $-1 $-1 $388 $100 #
coedge $-1 $246 $246 $389 $390 reversed $154 $-1 #
face $-1 $-1 $391 $80 $-1 $392 forward single #
loop $-1 $393 $394 $156 #
cone-surface $-1 50.848218254199764 -32.637907378469151 11.350315461404985 0 0.71933980857756763 -0.69465836192734942 0.5 0 0 1 I I -0.70710678118654746 0.70710678118654746 0.5 forward I I I I #
loop $-1 $-1 $395 $101 #
coedge $-1 $251 $251 $396 $397 reversed $157 $-1 #
face $-1 $398 $399 $81 $-1 $400 reversed single #
loop $-1 $-1 $401 $159 #
plane-surface $-1 25.154193376856696 -21.278116956853466 53.632821835744821 0 0.64278761758704617 0.76604443648966558 1 0 0 forward_v I I I I #
coedge $-1 $402 $403 $404 $405 reversed $160 $-1 #
face $-1 $-1 $406 $82 $-1 $407 forward single #
loop $-1 $408 $409 $162 #
cone-surface $-1 19.90077910676932 25.052263577521522 4.5527819484362624 0 -0.64278761758704617 -0.76604443648966558 1.25 0 0 1 I I -0.70710678118654746 0.70710678118654746 1.25 forward I I I I #
loop $-1 $-1 $410 $103 #
coedge $-1 $260 $260 $411 $412 reversed $163 $-1 #
face $-1 $-1 $413 $83 $-1 $414 forward single #
loop $-1 $415 $416 $165 #
cone-surface $-1 30.407607646944072 25.052263577521522 4.5527819484362624 0 -0.64278761758704617 -0.76604443648966558 1.25 0 0 1 I I -0.70710678118654746 0.70710678118654746 1.25 forward I I I I #
loop $-1 $-1 $417 $104 #
coedge $-1 $265 $265 $418 $419 reversed $166 $-1 #
face $-1 $420 $421 $63 $-1 $422 reversed single #
loop $-1 $-1 $423 $168 #
plane-surface $-1 0 -39.989779973617352 0 0 1 0 0 0 1 forward_v I I I I #
coedge $-1 $424 $425 $426 $427 forward $169 $-1 #
coedge $-1 $428 $171 $429 $430 forward $106 $-1 #
coedge $-1 $171 $428 $431 $432 forward $106 $-1 #
coedge $-1 $433 $434 $171 $273 reversed $435 $-1 #
edge $-1 $436 -39.989779973617352 $437 39.989779973617352 $272 $438 forward 7 unknown #
face $-1 $439 $440 $64 $-1 $441 reversed single #
loop $-1 $-1 $442 $172 #
plane-surface $-1 0 0 -18.858793115644382 0 0 1 1 0 0 forward_v I I I I #
coedge $-1 $443 $280 $444 $445 reversed $173 $-1 #
coedge $-1 $446 $175 $447 $448 reversed $109 $-1 #
coedge $-1 $175 $446 $449 $450 reversed $109 $-1 #
coedge $-1 $277 $451 $175 $281 reversed $173 $-1 #
edge $-1 $452 -39.989779973617352 $453 39.989779973617352 $280 $454 forward 7 unknown #
face $-1 $455 $456 $65 $-1 $457 forward single #
loop $-1 $-1 $458 $176 #
plane-surface $-1 -33.376531535146363 -135.78467083054886 99.242723908516922 -1 0 0 0 -0.71933980857756763 0.69465836192734942 forward_v I I I I #
coedge $-1 $459 $460 $461 $462 reversed $177 $-1 #
coedge $-1 $287 $179 $463 $464 reversed $112 $-1 #
coedge $-1 $179 $286 $459 $465 reversed $112 $-1 #
coedge $-1 $461 $466 $179 $289 forward $467 $-1 #
edge $-1 $468 30.762568838614079 $469 42.886686634449113 $288 $470 forward 7 unknown #
loop $-1 $-1 $295 $180 #
plane-surface $-1 -41.788702586908506 -39.989779973617374 6.7346753198093268 0 -0.71933980857756763 0.69465836192734942 1 0 0 forward_v I I I I #
loop $-1 $-1 $471 $114 #
coedge $-1 $293 $293 $294 $472 reversed $181 $-1 #
coedge $-1 $294 $294 $293 $472 forward $183 $-1 #
coedge $-1 $295 $295 $184 $296 forward $290 $-1 #
edge $-1 $473 3.307295887697998e-015 $473 6.283185307179604 $295 $474 forward 7 unknown #
loop $-1 $-1 $302 $185 #
plane-surface $-1 -41.788702586908506 -39.989779973617374 6.7346753198093268 0 -0.71933980857756763 0.69465836192734942 1 0 0 forward_v I I I I #
loop $-1 $-1 $475 $117 #
coedge $-1 $300 $300 $301 $476 reversed $186 $-1 #
coedge $-1 $301 $301 $300 $476 forward $188 $-1 #
coedge $-1 $302 $302 $189 $303 forward $297 $-1 #
edge $-1 $477 3.307295887697998e-015 $477 6.283185307179604 $302 $478 forward 7 unknown #
loop $-1 $-1 $309 $190 #
plane-surface $-1 -41.788702586908506 -39.989779973617374 6.7346753198093268 0 -0.71933980857756763 0.69465836192734942 1 0 0 forward_v I I I I #
loop $-1 $-1 $479 $120 #
coedge $-1 $307 $307 $308 $480 reversed $191 $-1 #
coedge $-1 $308 $308 $307 $480 forward $193 $-1 #
coedge $-1 $309 $309 $194 $310 forward $304 $-1 #
edge $-1 $481 3.307295887697998e-015 $481 6.283185307179604 $309 $482 forward 7 unknown #
face $-1 $483 $484 $69 $-1 $485 reversed single #
loop $-1 $-1 $486 $195 #
plane-surface $-1 -4.1799921317960429 -135.78467083054886 99.242723908516922 -1 0 0 0 -0.71933980857756763 0.69465836192734942 forward_v I I I I #
coedge $-1 $487 $488 $489 $490 reversed $196 $-1 #
coedge $-1 $316 $198 $491 $492 reversed $124 $-1 #
coedge $-1 $198 $315 $487 $493 reversed $124 $-1 #
coedge $-1 $489 $494 $198 $318 forward $484 $-1 #
edge $-1 $495 30.762568838614079 $496 42.886686634449113 $317 $497 forward 7 unknown #
loop $-1 $-1 $324 $199 #
plane-surface $-1 -12.592163183558185 -39.989779973617374 6.7346753198093268 0 -0.71933980857756763 0.69465836192734942 1 0 0 forward_v I I I I #
loop $-1 $-1 $498 $126 #
coedge $-1 $322 $322 $323 $499 reversed $200 $-1 #
coedge $-1 $323 $323 $322 $499 forward $202 $-1 #
coedge $-1 $324 $324 $203 $325 forward $319 $-1 #
edge $-1 $500 3.307295887697998e-015 $500 6.283185307179604 $324 $501 forward 7 unknown #
loop $-1 $-1 $331 $204 #
plane-surface $-1 -12.592163183558185 -39.989779973617374 6.7346753198093268 0 -0.71933980857756763 0.69465836192734942 1 0 0 forward_v I I I I #
loop $-1 $-1 $502 $129 #
coedge $-1 $329 $329 $330 $503 reversed $205 $-1 #
coedge $-1 $330 $330 $329 $503 forward $207 $-1 #
coedge $-1 $331 $331 $208 $332 forward $326 $-1 #
edge $-1 $504 3.307295887697998e-015 $504 6.283185307179604 $331 $505 forward 7 unknown #
loop $-1 $-1 $338 $209 #
plane-surface $-1 -12.592163183558185 -39.989779973617374 6.7346753198093268 0 -0.71933980857756763 0.69465836192734942 1 0 0 forward_v I I I I #
loop $-1 $-1 $506 $132 #
coedge $-1 $336 $336 $337 $507 reversed $210 $-1 #
coedge $-1 $337 $337 $336 $507 forward $212 $-1 #
coedge $-1 $338 $338 $213 $339 forward $333 $-1 #
edge $-1 $508 3.307295887697998e-015 $508 6.283185307179604 $338 $509 forward 7 unknown #
face $-1 $510 $511 $73 $-1 $512 reversed single #
loop $-1 $-1 $513 $214 #
plane-surface $-1 25.016547271554288 -135.78467083054886 99.242723908516922 -1 0 0 0 -0.71933980857756763 0.69465836192734942 forward_v I I I I #
coedge $-1 $514 $515 $516 $517 reversed $215 $-1 #
coedge $-1 $345 $217 $518 $519 reversed $136 $-1 #
coedge $-1 $217 $344 $514 $520 reversed $136 $-1 #
coedge $-1 $516 $521 $217 $347 forward $511 $-1 #
edge $-1 $522 30.762568838614079 $523 42.886686634449113 $346 $524 forward 7 unknown #
loop $-1 $-1 $353 $218 #
plane-surface $-1 16.604376219792144 -39.989779973617374 6.7346753198093268 0 -0.71933980857756763 0.69465836192734942 1 0 0 forward_v I I I I #
loop $-1 $-1 $525 $138 #
coedge $-1 $351 $351 $352 $526 reversed $219 $-1 #
coedge $-1 $352 $352 $351 $526 forward $221 $-1 #
coedge $-1 $353 $353 $222 $354 forward $348 $-1 #
edge $-1 $527 3.307295887697998e-015 $527 6.283185307179604 $353 $528 forward 7 unknown #
loop $-1 $-1 $360 $223 #
plane-surface $-1 16.604376219792144 -39.989779973617374 6.7346753198093268 0 -0.71933980857756763 0.69465836192734942 1 0 0 forward_v I I I I #
loop $-1 $-1 $529 $141 #
coedge $-1 $358 $358 $359 $530 reversed $224 $-1 #
coedge $-1 $359 $359 $358 $530 forward $226 $-1 #
coedge $-1 $360 $360 $227 $361 forward $355 $-1 #
edge $-1 $531 3.307295887697998e-015 $531 6.283185307179604 $360 $532 forward 7 unknown #
loop $-1 $-1 $367 $228 #
plane-surface $-1 16.604376219792144 -39.989779973617374 6.7346753198093268 0 -0.71933980857756763 0.69465836192734942 1 0 0 forward_v I I I I #
loop $-1 $-1 $533 $144 #
coedge $-1 $365 $365 $366 $534 reversed $229 $-1 #
coedge $-1 $366 $366 $365 $534 forward $231 $-1 #
coedge $-1 $367 $367 $232 $368 forward $362 $-1 #
edge $-1 $535 3.307295887697998e-015 $535 6.283185307179604 $367 $536 forward 7 unknown #
face $-1 $537 $538 $77 $-1 $539 reversed single #
loop $-1 $-1 $540 $233 #
plane-surface $-1 54.213086674904616 -135.78467083054886 99.242723908516922 -1 0 0 0 -0.71933980857756763 0.69465836192734942 forward_v I I I I #
coedge $-1 $541 $542 $543 $544 reversed $234 $-1 #
coedge $-1 $374 $236 $545 $546 reversed $148 $-1 #
coedge $-1 $236 $373 $541 $547 reversed $148 $-1 #
coedge $-1 $543 $548 $236 $376 forward $538 $-1 #
edge $-1 $549 30.762568838614079 $550 42.886686634449113 $375 $551 forward 7 unknown #
loop $-1 $-1 $382 $237 #
plane-surface $-1 45.800915623142473 -39.989779973617374 6.7346753198093268 0 -0.71933980857756763 0.69465836192734942 1 0 0 forward_v I I I I #
loop $-1 $-1 $552 $150 #
coedge $-1 $380 $380 $381 $553 reversed $238 $-1 #
coedge $-1 $381 $381 $380 $553 forward $240 $-1 #
coedge $-1 $382 $382 $241 $383 forward $377 $-1 #
edge $-1 $554 3.307295887697998e-015 $554 6.283185307179604 $382 $555 forward 7 unknown #
loop $-1 $-1 $389 $242 #
plane-surface $-1 45.800915623142473 -39.989779973617374 6.7346753198093268 0 -0.71933980857756763 0.69465836192734942 1 0 0 forward_v I I I I #
loop $-1 $-1 $556 $153 #
coedge $-1 $387 $387 $388 $557 reversed $243 $-1 #
coedge $-1 $388 $388 $387 $557 forward $245 $-1 #
coedge $-1 $389 $389 $246 $390 forward $384 $-1 #
edge $-1 $558 3.307295887697998e-015 $558 6.283185307179604 $389 $559 forward 7 unknown #
loop $-1 $-1 $396 $247 #
plane-surface $-1 45.800915623142473 -39.989779973617374 6.7346753198093268 0 -0.71933980857756763 0.69465836192734942 1 0 0 forward_v I I I I #
loop $-1 $-1 $560 $156 #
coedge $-1 $394 $394 $395 $561 reversed $248 $-1 #
coedge $-1 $395 $395 $394 $561 forward $250 $-1 #
coedge $-1 $396 $396 $251 $397 forward $391 $-1 #
edge $-1 $562 3.307295887697998e-015 $562 6.283185307179604 $396 $563 forward 7 unknown #
face $-1 $564 $565 $81 $-1 $566 reversed single #
loop $-1 $-1 $567 $252 #
plane-surface $-1 37.412160007060571 64.322275148094633 155.64739451759866 -1 0 0 0 0.64278761758704617 0.76604443648966558 forward_v I I I I #
coedge $-1 $568 $569 $570 $571 reversed $253 $-1 #
coedge $-1 $403 $255 $572 $573 reversed $160 $-1 #
coedge $-1 $255 $402 $568 $574 reversed $160 $-1 #
coedge $-1 $570 $575 $255 $405 forward $576 $-1 #
edge $-1 $577 -7.828642399570036 $578 11.997181742749397 $404 $579 forward 7 unknown #
loop $-1 $-1 $411 $256 #
plane-surface $-1 25.154193376856696 -21.278116956853466 53.632821835744821 0 0.64278761758704617 0.76604443648966558 1 0 0 forward_v I I I I #
loop $-1 $-1 $580 $162 #
coedge $-1 $409 $409 $410 $581 reversed $257 $-1 #
coedge $-1 $410 $410 $409 $581 forward $259 $-1 #
coedge $-1 $411 $411 $260 $412 forward $406 $-1 #
edge $-1 $582 -1.7515847460830884e-015 $582 6.2831853071795987 $411 $583 forward 7 unknown #
loop $-1 $-1 $418 $261 #
plane-surface $-1 25.154193376856696 -21.278116956853466 53.632821835744821 0 0.64278761758704617 0.76604443648966558 1 0 0 forward_v I I I I #
loop $-1 $-1 $584 $165 #
coedge $-1 $416 $416 $417 $585 reversed $262 $-1 #
coedge $-1 $417 $417 $416 $585 forward $264 $-1 #
coedge $-1 $418 $418 $265 $419 forward $413 $-1 #
edge $-1 $586 -1.7515847460830884e-015 $586 6.2831853071795987 $418 $587 forward 7 unknown #
face $-1 $588 $589 $63 $-1 $590 reversed single #
loop $-1 $-1 $591 $266 #
plane-surface $-1 -66.585283974730672 0 0 1 0 0 0 0 -1 forward_v I I I I #
coedge $-1 $592 $431 $593 $594 forward $267 $-1 #
coedge $-1 $595 $269 $592 $596 forward $169 $-1 #
coedge $-1 $269 $595 $597 $598 forward $169 $-1 #
coedge $-1 $434 $433 $269 $427 reversed $435 $-1 #
edge $-1 $599 -39.989779973617352 $600 39.989779973617352 $426 $601 forward 7 unknown #
coedge $-1 $271 $270 $602 $603 forward $106 $-1 #
coedge $-1 $604 $605 $270 $430 reversed $589 $-1 #
edge $-1 $437 -66.585283974730672 $606 66.585283974730672 $429 $607 forward 7 unknown #
coedge $-1 $423 $608 $271 $432 reversed $267 $-1 #
edge $-1 $609 -66.585283974730672 $436 66.585283974730672 $431 $610 forward 7 unknown #
coedge $-1 $426 $272 $608 $611 forward $435 $-1 #
coedge $-1 $272 $426 $604 $612 reversed $435 $-1 #
loop $-1 $-1 $433 $588 #
vertex $-1 $273 $613 #
vertex $-1 $273 $614 #
straight-curve $-1 66.585283974730672 0 18.858793115644382 0 1 0 I I #
face $-1 $615 $616 $64 $-1 $617 reversed single #
loop $-1 $-1 $444 $274 #
plane-surface $-1 0 -39.989779973617352 0 0 1 0 0 0 1 forward_v I I I I #
coedge $-1 $618 $619 $443 $620 forward $275 $-1 #
coedge $-1 $451 $277 $442 $620 reversed $173 $-1 #
coedge $-1 $449 $621 $277 $445 forward $440 $-1 #
edge $-1 $622 -11.266383554704968 $452 -3.9184355671738604 $444 $623 forward 7 unknown #
coedge $-1 $279 $278 $624 $625 reversed $109 $-1 #
coedge $-1 $626 $627 $278 $448 forward $628 $-1 #
edge $-1 $629 -37.388744571380343 $453 -21.004334235320314 $447 $630 forward 7 unknown #
coedge $-1 $631 $444 $279 $450 forward $440 $-1 #
edge $-1 $452 21.004334235320314 $632 37.388744571380343 $449 $633 forward 7 unknown #
coedge $-1 $280 $443 $626 $634 reversed $173 $-1 #
vertex $-1 $450 $635 #
vertex $-1 $448 $636 #
straight-curve $-1 -50.200873638670643 0 -11.510845128113274 0 1 0 I I #
face $-1 $-1 $467 $65 $-1 $637 reversed single #
loop $-1 $-1 $638 $282 #
plane-surface $-1 0 0 18.858793115644382 0 0 1 1 0 0 forward_v I I I I #
coedge $-1 $639 $640 $641 $642 reversed $283 $-1 #
coedge $-1 $643 $285 $287 $465 forward $177 $-1 #
coedge $-1 $285 $643 $639 $644 forward $177 $-1 #
coedge $-1 $641 $288 $285 $462 forward $467 $-1 #
edge $-1 $469 -29.306522345216397 $645 -12.482180241692109 $461 $646 forward 7 unknown #
coedge $-1 $647 $648 $286 $464 forward $456 $-1 #
edge $-1 $649 -39.610679623638617 $468 -27.902555441657078 $463 $650 forward 7 unknown #
edge $-1 $469 3.0780085947320026e-014 $649 16.854506939925166 $287 $651 forward 7 unknown #
coedge $-1 $288 $641 $647 $652 reversed $467 $-1 #
loop $-1 $-1 $641 $455 #
vertex $-1 $652 $653 #
vertex $-1 $289 $654 #
straight-curve $-1 -50.20087363867065 -39.989779973617352 49.621361954258461 0 0 -1 I I #
coedge $-1 $471 $471 $-1 $655 reversed $292 $-1 #
edge $-1 $656 0 $656 6.2831853071796004 $293 $657 forward 7 unknown #
vertex $-1 $296 $658 #
ellipse-curve $-1 -46.836005217965791 -34.135717882626587 12.796734217726859 0 -0.71933980857756763 0.69465836192734942 1 0 0 1 I I #
coedge $-1 $475 $475 $-1 $659 reversed $299 $-1 #
edge $-1 $660 0 $660 6.2831853071796004 $300 $661 forward 7 unknown #
vertex $-1 $303 $662 #
ellipse-curve $-1 -41.788702586908506 -34.135717882626587 12.796734217726859 0 -0.71933980857756763 0.69465836192734942 1 0 0 1 I I #
coedge $-1 $479 $479 $-1 $663 reversed $306 $-1 #
edge $-1 $664 0 $664 6.2831853071796004 $307 $665 forward 7 unknown #
vertex $-1 $310 $666 #
ellipse-curve $-1 -36.741399955851222 -34.135717882626587 12.796734217726859 0 -0.71933980857756763 0.69465836192734942 1 0 0 1 I I #
face $-1 $-1 $667 $69 $-1 $668 forward single #
loop $-1 $-1 $317 $311 #
plane-surface $-1 0 -39.989779973617352 0 0 1 0 0 0 1 forward_v I I I I #
coedge $-1 $669 $670 $671 $672 reversed $312 $-1 #
coedge $-1 $673 $314 $316 $493 forward $196 $-1 #
coedge $-1 $314 $673 $669 $674 forward $196 $-1 #
coedge $-1 $671 $317 $314 $490 forward $484 $-1 #
edge $-1 $496 -14.708252643541236 $675 2.1160894599830495 $489 $676 forward 7 unknown #
coedge $-1 $677 $678 $315 $492 forward $667 $-1 #
edge $-1 $679 -39.610679623638617 $495 -27.902555441657078 $491 $680 forward 7 unknown #
edge $-1 $496 3.0780085947320026e-014 $679 16.854506939925166 $316 $681 forward 7 unknown #
coedge $-1 $317 $671 $677 $682 reversed $484 $-1 #
vertex $-1 $682 $683 #
vertex $-1 $318 $684 #
straight-curve $-1 -21.004334235320329 -39.989779973617352 49.621361954258461 0 0 -1 I I #
coedge $-1 $498 $498 $-1 $685 reversed $321 $-1 #
edge $-1 $686 0 $686 6.2831853071796004 $322 $687 forward 7 unknown #
vertex $-1 $325 $688 #
ellipse-curve $-1 -17.639465814615463 -34.135717882626587 12.796734217726859 0 -0.71933980857756763 0.69465836192734942 1 0 0 1 I I #
coedge $-1 $502 $502 $-1 $689 reversed $328 $-1 #
edge $-1 $690 0 $690 6.2831853071796004 $329 $691 forward 7 unknown #
vertex $-1 $332 $692 #
ellipse-curve $-1 -12.592163183558185 -34.135717882626587 12.796734217726859 0 -0.71933980857756763 0.69465836192734942 1 0 0 1 I I #
coedge $-1 $506 $506 $-1 $693 reversed $335 $-1 #
edge $-1 $694 0 $694 6.2831853071796004 $336 $695 forward 7 unknown #
vertex $-1 $339 $696 #
ellipse-curve $-1 -7.5448605525008929 -34.135717882626587 12.796734217726859 0 -0.71933980857756763 0.69465836192734942 1 0 0 1 I I #
face $-1 $-1 $697 $73 $-1 $698 forward single #
loop $-1 $-1 $346 $340 #
plane-surface $-1 0 -39.989779973617352 0 0 1 0 0 0 1 forward_v I I I I #
coedge $-1 $699 $700 $701 $702 reversed $341 $-1 #
coedge $-1 $703 $343 $345 $520 forward $215 $-1 #
coedge $-1 $343 $703 $699 $704 forward $215 $-1 #
coedge $-1 $701 $346 $343 $517 forward $511 $-1 #
edge $-1 $523 -0.10998294186607005 $705 16.714359161658216 $516 $706 forward 7 unknown #
coedge $-1 $707 $708 $344 $519 forward $697 $-1 #
edge $-1 $709 -39.610679623638617 $522 -27.902555441657078 $518 $710 forward 7 unknown #
edge $-1 $523 3.0780085947320026e-014 $709 16.854506939925166 $345 $711 forward 7 unknown #
coedge $-1 $346 $701 $707 $712 reversed $511 $-1 #
vertex $-1 $712 $713 #
vertex $-1 $347 $714 #
straight-curve $-1 8.1922051680300019 -39.989779973617352 49.621361954258461 0 0 -1 I I #
coedge $-1 $525 $525 $-1 $715 reversed $350 $-1 #
edge $-1 $716 0 $716 6.2831853071796004 $351 $717 forward 7 unknown #
vertex $-1 $354 $718 #
ellipse-curve $-1 11.557073588734866 -34.135717882626587 12.796734217726859 0 -0.71933980857756763 0.69465836192734942 1 0 0 1 I I #
coedge $-1 $529 $529 $-1 $719 reversed $357 $-1 #
edge $-1 $720 0 $720 6.2831853071796004 $358 $721 forward 7 unknown #
vertex $-1 $361 $722 #
ellipse-curve $-1 16.604376219792144 -34.135717882626587 12.796734217726859 0 -0.71933980857756763 0.69465836192734942 1 0 0 1 I I #
coedge $-1 $533 $533 $-1 $723 reversed $364 $-1 #
edge $-1 $724 0 $724 6.2831853071796004 $365 $725 forward 7 unknown #
vertex $-1 $368 $726 #
ellipse-curve $-1 21.651678850849436 -34.135717882626587 12.796734217726859 0 -0.71933980857756763 0.69465836192734942 1 0 0 1 I I #
face $-1 $-1 $727 $77 $-1 $728 forward single #
loop $-1 $-1 $375 $369 #
plane-surface $-1 0 -39.989779973617352 0 0 1 0 0 0 1 forward_v I I I I #
coedge $-1 $729 $730 $731 $732 reversed $370 $-1 #
coedge $-1 $733 $372 $374 $547 forward $234 $-1 #
coedge $-1 $372 $733 $729 $734 forward $234 $-1 #
coedge $-1 $731 $375 $372 $544 forward $538 $-1 #
edge $-1 $550 14.488286759809093 $735 31.31262886333338 $543 $736 forward 7 unknown #
coedge $-1 $737 $738 $373 $546 forward $727 $-1 #
edge $-1 $739 -39.610679623638617 $549 -27.902555441657078 $545 $740 forward 7 unknown #
edge $-1 $550 3.0780085947320026e-014 $739 16.854506939925166 $374 $741 forward 7 unknown #
coedge $-1 $375 $731 $737 $742 reversed $538 $-1 #
vertex $-1 $742 $743 #
vertex $-1 $376 $744 #
straight-curve $-1 37.388744571380329 -39.989779973617352 49.621361954258461 0 0 -1 I I #
coedge $-1 $552 $552 $-1 $745 reversed $379 $-1 #
edge $-1 $746 0 $746 6.2831853071796004 $380 $747 forward 7 unknown #
vertex $-1 $383 $748 #
ellipse-curve $-1 40.753612992085195 -34.135717882626587 12.796734217726859 0 -0.71933980857756763 0.69465836192734942 1 0 0 1 I I #
coedge $-1 $556 $556 $-1 $749 reversed $386 $-1 #
edge $-1 $750 0 $750 6.2831853071796004 $387 $751 forward 7 unknown #
vertex $-1 $390 $752 #
ellipse-curve $-1 45.800915623142473 -34.135717882626587 12.796734217726859 0 -0.71933980857756763 0.69465836192734942 1 0 0 1 I I #
coedge $-1 $560 $560 $-1 $753 reversed $393 $-1 #
edge $-1 $754 0 $754 6.2831853071796004 $394 $755 forward 7 unknown #
vertex $-1 $397 $756 #
ellipse-curve $-1 50.848218254199764 -34.135717882626587 12.796734217726859 0 -0.71933980857756763 0.69465836192734942 1 0 0 1 I I #
face $-1 $-1 $576 $81 $-1 $757 forward single #
loop $-1 $-1 $758 $398 #
plane-surface $-1 0 39.989779973617352 0 0 -1 0 0 0 -1 forward_v I I I I #
coedge $-1 $759 $760 $761 $762 reversed $399 $-1 #
coedge $-1 $763 $401 $403 $574 forward $253 $-1 #
coedge $-1 $401 $763 $759 $764 forward $253 $-1 #
coedge $-1 $761 $404 $401 $571 forward $576 $-1 #
edge $-1 $578 0.3191300582244736 $765 24.835063318632223 $570 $766 forward 7 unknown #
coedge $-1 $767 $768 $402 $573 forward $565 $-1 #
edge $-1 $769 -75.600746217197823 $577 -58.964904143154946 $572 $770 forward 7 unknown #
edge $-1 $578 54.098784370860017 $769 79.979559947234662 $403 $771 forward 7 unknown #
coedge $-1 $404 $761 $767 $772 forward $576 $-1 #
loop $-1 $-1 $761 $564 #
vertex $-1 $573 $773 #
vertex $-1 $405 $774 #
straight-curve $-1 12.896226746652822 32.161137574047316 18.858793115644374 0 -1 0 I I #
coedge $-1 $580 $580 $-1 $775 reversed $408 $-1 #
edge $-1 $776 0 $776 6.2831853071796004 $409 $777 forward 7 unknown #
vertex $-1 $412 $778 #
ellipse-curve $-1 19.90077910676932 30.076867902457622 10.540872078622954 0 0.64278761758704617 0.76604443648966558 2.5 0 0 1 I I #
coedge $-1 $584 $584 $-1 $779 reversed $415 $-1 #
edge $-1 $780 0 $780 6.2831853071796004 $416 $781 forward 7 unknown #
vertex $-1 $419 $782 #
ellipse-curve $-1 30.407607646944072 30.076867902457622 10.540872078622954 0 0.64278761758704617 0.76604443648966558 2.5 0 0 1 I I #
face $-1 $-1 $435 $63 $-1 $783 reversed single #
loop $-1 $-1 $604 $420 #
plane-surface $-1 0 39.989779973617352 0 0 -1 0 0 0 -1 forward_v I I I I #
coedge $-1 $784 $602 $605 $785 forward $421 $-1 #
coedge $-1 $608 $423 $424 $596 reversed $267 $-1 #
coedge $-1 $602 $784 $423 $594 reversed $421 $-1 #
edge $-1 $609 -18.858793115644382 $786 18.858793115644382 $593 $787 forward 7 unknown #
coedge $-1 $425 $424 $784 $788 forward $169 $-1 #
edge $-1 $600 -66.585283974730672 $786 66.585283974730672 $592 $789 forward 7 unknown #
coedge $-1 $605 $604 $425 $598 reversed $589 $-1 #
edge $-1 $790 -66.585283974730672 $599 66.585283974730672 $597 $791 forward 7 unknown #
vertex $-1 $427 $792 #
vertex $-1 $611 $793 #
straight-curve $-1 66.585283974730672 0 -18.858793115644382 0 -1 0 I I #
coedge $-1 $591 $593 $428 $603 reversed $421 $-1 #
edge $-1 $606 -39.989779973617352 $609 39.989779973617352 $602 $794 forward 7 unknown #
coedge $-1 $597 $429 $434 $612 forward $589 $-1 #
coedge $-1 $429 $597 $591 $785 reversed $589 $-1 #
vertex $-1 $430 $795 #
straight-curve $-1 0 39.989779973617352 18.858793115644382 -1 0 0 I I #
coedge $-1 $431 $592 $433 $611 reversed $267 $-1 #
vertex $-1 $603 $796 #
straight-curve $-1 0 -39.989779973617352 18.858793115644382 1 0 0 I I #
edge $-1 $436 -18.858793115644382 $600 18.858793115644382 $433 $797 forward 7 unknown #
edge $-1 $437 -18.858793115644382 $599 18.858793115644382 $434 $798 forward 7 unknown #
point $-1 66.585283974730672 -39.989779973617352 18.858793115644382 #
point $-1 66.585283974730672 39.989779973617352 18.858793115644382 #
face $-1 $-1 $628 $64 $-1 $799 reversed single #
loop $-1 $-1 $624 $439 #
plane-surface $-1 -66.585283974730672 0 0 1 0 0 0 0 -1 forward_v I I I I #
coedge $-1 $800 $442 $621 $801 forward $275 $-1 #
coedge $-1 $442 $800 $802 $803 forward $275 $-1 #
edge $-1 $804 -39.989779973617352 $622 39.989779973617352 $442 $805 forward 7 unknown #
coedge $-1 $444 $631 $618 $801 reversed $440 $-1 #
vertex $-1 $801 $806 #
straight-curve $-1 -50.200873638670643 -39.989779973617352 -7.592409560939414 0 0 1 I I #
coedge $-1 $807 $808 $446 $625 forward $616 $-1 #
edge $-1 $632 -39.989779973617352 $629 39.989779973617352 $624 $809 forward 7 unknown #
coedge $-1 $802 $447 $451 $634 forward $628 $-1 #
coedge $-1 $447 $802 $807 $810 reversed $628 $-1 #
loop $-1 $-1 $626 $615 #
vertex $-1 $810 $811 #
straight-curve $-1 -29.196539403350329 39.989779973617352 -11.510845128113274 1 0 0 I I #
coedge $-1 $621 $449 $808 $812 forward $440 $-1 #
vertex $-1 $812 $813 #
straight-curve $-1 -29.196539403350329 -39.989779973617352 -11.510845128113274 -1 0 0 I I #
edge $-1 $453 3.9184355671738604 $804 11.266383554704968 $626 $814 forward 7 unknown #
point $-1 -50.200873638670643 -39.989779973617352 -11.510845128113274 #
point $-1 -50.200873638670643 39.989779973617352 -11.510845128113274 #
plane-surface $-1 0 -39.989779973617352 0 0 1 0 0 0 1 forward_v I I I I #
coedge $-1 $648 $647 $640 $815 forward $456 $-1 #
coedge $-1 $640 $458 $460 $644 reversed $283 $-1 #
coedge $-1 $458 $639 $638 $815 reversed $283 $-1 #
coedge $-1 $466 $461 $458 $642 forward $467 $-1 #
edge $-1 $645 -42.886686634449113 $816 -30.762568838614079 $641 $817 forward 7 unknown #
coedge $-1 $460 $459 $648 $818 reversed $177 $-1 #
edge $-1 $819 -16.854506939925166 $645 -3.0780085947320026e-014 $639 $820 forward 7 unknown #
vertex $-1 $462 $821 #
straight-curve $-1 -20.894351293454253 -39.989779973617352 6.7346753198093445 1 0 0 I I #
coedge $-1 $638 $463 $466 $652 forward $456 $-1 #
coedge $-1 $463 $638 $643 $818 forward $456 $-1 #
vertex $-1 $464 $822 #
straight-curve $-1 -50.20087363867065 -67.892335415274431 18.858793115644382 0 -1 0 I I #
straight-curve $-1 -50.20087363867065 -39.989779973617374 6.7346753198093268 0 0.69465836192734942 0.71933980857756763 I I #
edge $-1 $468 -50.20087363867065 $816 -33.376531535146363 $466 $823 forward 7 unknown #
point $-1 -50.20087363867065 -39.989779973617352 18.858793115644382 #
point $-1 -50.20087363867065 -39.989779973617352 6.734675319809349 #
edge $-1 $824 1 $824 0 $471 $-1 forward 7 unknown #
vertex $-1 $472 $825 #
ellipse-curve $-1 -46.836005217965791 -32.997577282757938 11.69764464236866 0 -0.71933980857756763 0.69465836192734942 1 0 0 1 I I #
point $-1 -45.836005217965791 -34.135717882626565 12.796734217726843 #
edge $-1 $826 1 $826 0 $475 $-1 forward 7 unknown #
vertex $-1 $476 $827 #
ellipse-curve $-1 -41.788702586908506 -32.997577282757938 11.69764464236866 0 -0.71933980857756763 0.69465836192734942 1 0 0 1 I I #
point $-1 -40.788702586908506 -34.135717882626565 12.796734217726843 #
edge $-1 $828 1 $828 0 $479 $-1 forward 7 unknown #
vertex $-1 $480 $829 #
ellipse-curve $-1 -36.741399955851222 -32.997577282757938 11.69764464236866 0 -0.71933980857756763 0.69465836192734942 1 0 0 1 I I #
point $-1 -35.741399955851222 -34.135717882626565 12.796734217726843 #
loop $-1 $-1 $491 $483 #
plane-surface $-1 0 0 18.858793115644382 0 0 1 1 0 0 forward_v I I I I #
coedge $-1 $670 $486 $488 $674 reversed $312 $-1 #
coedge $-1 $486 $669 $830 $831 reversed $312 $-1 #
coedge $-1 $494 $489 $486 $672 forward $484 $-1 #
edge $-1 $675 -42.886686634449113 $832 -30.762568838614079 $671 $833 forward 7 unknown #
coedge $-1 $488 $487 $678 $834 reversed $196 $-1 #
edge $-1 $835 -16.854506939925166 $675 -3.0780085947320026e-014 $669 $836 forward 7 unknown #
vertex $-1 $490 $837 #
straight-curve $-1 -6.2960815917790924 -39.989779973617352 6.7346753198093445 1 0 0 I I #
coedge $-1 $830 $491 $494 $682 forward $667 $-1 #
coedge $-1 $491 $830 $673 $834 forward $667 $-1 #
vertex $-1 $492 $838 #
straight-curve $-1 -21.004334235320329 -67.892335415274431 18.858793115644382 0 -1 0 I I #
straight-curve $-1 -21.004334235320329 -39.989779973617374 6.7346753198093268 0 0.69465836192734942 0.71933980857756763 I I #
edge $-1 $495 -21.004334235320329 $832 -4.1799921317960429 $494 $839 forward 7 unknown #
point $-1 -21.004334235320329 -39.989779973617352 18.858793115644382 #
point $-1 -21.004334235320329 -39.989779973617352 6.734675319809349 #
edge $-1 $840 1 $840 0 $498 $-1 forward 7 unknown #
vertex $-1 $499 $841 #
ellipse-curve $-1 -17.639465814615463 -32.997577282757938 11.69764464236866 0 -0.71933980857756763 0.69465836192734942 1 0 0 1 I I #
point $-1 -16.639465814615463 -34.135717882626565 12.796734217726843 #
edge $-1 $842 1 $842 0 $502 $-1 forward 7 unknown #
vertex $-1 $503 $843 #
ellipse-curve $-1 -12.592163183558185 -32.997577282757938 11.69764464236866 0 -0.71933980857756763 0.69465836192734942 1 0 0 1 I I #
point $-1 -11.592163183558185 -34.135717882626565 12.796734217726843 #
edge $-1 $844 1 $844 0 $506 $-1 forward 7 unknown #
vertex $-1 $507 $845 #
ellipse-curve $-1 -7.5448605525008929 -32.997577282757938 11.69764464236866 0 -0.71933980857756763 0.69465836192734942 1 0 0 1 I I #
point $-1 -6.5448605525008929 -34.135717882626565 12.796734217726843 #
loop $-1 $-1 $518 $510 #
plane-surface $-1 0 0 18.858793115644382 0 0 1 1 0 0 forward_v I I I I #
coedge $-1 $700 $513 $515 $704 reversed $341 $-1 #
coedge $-1 $513 $699 $846 $847 reversed $341 $-1 #
coedge $-1 $521 $516 $513 $702 forward $511 $-1 #
edge $-1 $705 -42.886686634449113 $848 -30.762568838614079 $701 $849 forward 7 unknown #
coedge $-1 $515 $514 $708 $850 reversed $215 $-1 #
edge $-1 $851 -16.854506939925166 $705 -3.0780085947320026e-014 $699 $852 forward 7 unknown #
vertex $-1 $517 $853 #
straight-curve $-1 8.3021881098960719 -39.989779973617352 6.7346753198093445 1 0 0 I I #
coedge $-1 $846 $518 $521 $712 forward $697 $-1 #
coedge $-1 $518 $846 $703 $850 forward $697 $-1 #
vertex $-1 $519 $854 #
straight-curve $-1 8.1922051680300019 -67.892335415274431 18.858793115644382 0 -1 0 I I #
straight-curve $-1 8.1922051680300019 -39.989779973617374 6.7346753198093268 0 0.69465836192734942 0.71933980857756763 I I #
edge $-1 $522 8.1922051680300019 $848 25.016547271554288 $521 $855 forward 7 unknown #
point $-1 8.1922051680300019 -39.989779973617352 18.858793115644382 #
point $-1 8.1922051680300019 -39.989779973617352 6.734675319809349 #
edge $-1 $856 1 $856 0 $525 $-1 forward 7 unknown #
vertex $-1 $526 $857 #
ellipse-curve $-1 11.557073588734866 -32.997577282757938 11.69764464236866 0 -0.71933980857756763 0.69465836192734942 1 0 0 1 I I #
point $-1 12.557073588734866 -34.135717882626565 12.796734217726843 #
edge $-1 $858 1 $858 0 $529 $-1 forward 7 unknown #
vertex $-1 $530 $859 #
ellipse-curve $-1 16.604376219792144 -32.997577282757938 11.69764464236866 0 -0.71933980857756763 0.69465836192734942 1 0 0 1 I I #
point $-1 17.604376219792144 -34.135717882626565 12.796734217726843 #
edge $-1 $860 1 $860 0 $533 $-1 forward 7 unknown #
vertex $-1 $534 $861 #
ellipse-curve $-1 21.651678850849436 -32.997577282757938 11.69764464236866 0 -0.71933980857756763 0.69465836192734942 1 0 0 1 I I #
point $-1 22.651678850849436 -34.135717882626565 12.796734217726843 #
loop $-1 $-1 $545 $537 #
plane-surface $-1 0 0 18.858793115644382 0 0 1 1 0 0 forward_v I I I I #
coedge $-1 $730 $540 $542 $734 reversed $370 $-1 #
coedge $-1 $540 $729 $862 $863 reversed $370 $-1 #
coedge $-1 $548 $543 $540 $732 forward $538 $-1 #
edge $-1 $735 -42.886686634449113 $864 -30.762568838614079 $731 $865 forward 7 unknown #
coedge $-1 $542 $541 $738 $866 reversed $234 $-1 #
edge $-1 $867 -16.854506939925166 $735 -3.0780085947320026e-014 $729 $868 forward 7 unknown #
vertex $-1 $544 $869 #
straight-curve $-1 22.900457811571236 -39.989779973617352 6.7346753198093445 1 0 0 I I #
coedge $-1 $862 $545 $548 $742 forward $727 $-1 #
coedge $-1 $545 $862 $733 $866 forward $727 $-1 #
vertex $-1 $546 $870 #
straight-curve $-1 37.388744571380329 -67.892335415274431 18.858793115644382 0 -1 0 I I #
straight-curve $-1 37.388744571380329 -39.989779973617374 6.7346753198093268 0 0.69465836192734942 0.71933980857756763 I I #
edge $-1 $549 37.388744571380329 $864 54.213086674904616 $548 $871 forward 7 unknown #
point $-1 37.388744571380329 -39.989779973617352 18.858793115644382 #
point $-1 37.388744571380329 -39.989779973617352 6.734675319809349 #
edge $-1 $872 1 $872 0 $552 $-1 forward 7 unknown #
vertex $-1 $553 $873 #
ellipse-curve $-1 40.753612992085195 -32.997577282757938 11.69764464236866 0 -0.71933980857756763 0.69465836192734942 1 0 0 1 I I #
point $-1 41.753612992085195 -34.135717882626565 12.796734217726843 #
edge $-1 $874 1 $874 0 $556 $-1 forward 7 unknown #
vertex $-1 $557 $875 #
ellipse-curve $-1 45.800915623142473 -32.997577282757938 11.69764464236866 0 -0.71933980857756763 0.69465836192734942 1 0 0 1 I I #
point $-1 46.800915623142473 -34.135717882626565 12.796734217726843 #
edge $-1 $876 1 $876 0 $560 $-1 forward 7 unknown #
vertex $-1 $561 $877 #
ellipse-curve $-1 50.848218254199764 -32.997577282757938 11.69764464236866 0 -0.71933980857756763 0.69465836192734942 1 0 0 1 I I #
point $-1 51.848218254199764 -34.135717882626565 12.796734217726843 #
plane-surface $-1 0 0 18.858793115644382 0 0 1 1 0 0 forward_v I I I I #
coedge $-1 $768 $767 $760 $878 forward $565 $-1 #
coedge $-1 $760 $567 $569 $764 reversed $399 $-1 #
coedge $-1 $567 $759 $758 $878 reversed $399 $-1 #
coedge $-1 $575 $570 $567 $762 forward $576 $-1 #
edge $-1 $765 -11.997181742749397 $879 7.828642399570036 $761 $880 forward 7 unknown #
coedge $-1 $569 $568 $768 $881 reversed $253 $-1 #
edge $-1 $882 -79.979559947234662 $765 -54.098784370860017 $759 $883 forward 7 unknown #
vertex $-1 $571 $884 #
straight-curve $-1 12.577096688428348 20.163955831297926 18.858793115644382 1 0 0 I I #
coedge $-1 $758 $572 $575 $772 reversed $565 $-1 #
coedge $-1 $572 $758 $763 $881 forward $565 $-1 #
vertex $-1 $573 $885 #
straight-curve $-1 12.896226746652822 39.989779973617352 77.823697258799328 0 0 1 I I #
straight-curve $-1 12.896226746652822 -21.278116956853466 53.632821835744821 0 0.76604443648966558 -0.64278761758704617 I I #
edge $-1 $879 -37.412160007060571 $577 -12.896226746652822 $767 $886 forward 7 unknown #
point $-1 12.896226746652822 39.989779973617352 18.858793115644382 #
point $-1 12.896226746652822 20.163955831297919 18.858793115644382 #
edge $-1 $887 1 $887 0 $580 $-1 forward 7 unknown #
vertex $-1 $581 $888 #
ellipse-curve $-1 19.90077910676932 25.85574809950533 5.5103374940483443 0 0.64278761758704617 0.76604443648966558 2.5 0 0 1 I I #
point $-1 22.40077910676932 30.076867902457586 10.540872078622918 #
edge $-1 $889 1 $889 0 $584 $-1 forward 7 unknown #
vertex $-1 $585 $890 #
ellipse-curve $-1 30.407607646944072 25.85574809950533 5.5103374940483443 0 0.64278761758704617 0.76604443648966558 2.5 0 0 1 I I #
point $-1 32.907607646944072 30.076867902457586 10.540872078622918 #
plane-surface $-1 66.585283974730672 0 0 -1 0 0 0 0 1 forward_v I I I I #
coedge $-1 $593 $591 $595 $788 reversed $421 $-1 #
edge $-1 $606 -18.858793115644382 $790 18.858793115644382 $605 $891 forward 7 unknown #
vertex $-1 $788 $892 #
straight-curve $-1 -66.585283974730672 -39.989779973617352 0 0 0 -1 I I #
edge $-1 $786 -39.989779973617352 $790 39.989779973617352 $784 $893 forward 7 unknown #
straight-curve $-1 0 -39.989779973617352 -18.858793115644382 -1 0 0 I I #
vertex $-1 $598 $894 #
straight-curve $-1 0 39.989779973617352 -18.858793115644382 1 0 0 I I #
point $-1 66.585283974730672 39.989779973617352 -18.858793115644382 #
point $-1 66.585283974730672 -39.989779973617352 -18.858793115644382 #
straight-curve $-1 -66.585283974730672 0 18.858793115644382 0 -1 0 I I #
point $-1 -66.585283974730672 39.989779973617352 18.858793115644382 #
point $-1 -66.585283974730672 -39.989779973617352 18.858793115644382 #
straight-curve $-1 66.585283974730672 -39.989779973617352 0 0 0 -1 I I #
straight-curve $-1 66.585283974730672 39.989779973617352 0 0 0 -1 I I #
plane-surface $-1 0 39.989779973617352 0 0 -1 0 0 0 -1 forward_v I I I I #
coedge $-1 $619 $618 $895 $896 forward $275 $-1 #
edge $-1 $622 50.200873638670643 $897 66.585283974730672 $621 $898 forward 7 unknown #
coedge $-1 $627 $626 $619 $803 reversed $628 $-1 #
edge $-1 $899 -66.585283974730672 $804 -50.200873638670643 $802 $900 forward 7 unknown #
vertex $-1 $634 $901 #
straight-curve $-1 -50.200873638670643 0 -18.858793115644382 0 -1 0 I I #
point $-1 -50.200873638670643 -39.989779973617352 -18.858793115644382 #
coedge $-1 $895 $624 $627 $810 forward $616 $-1 #
coedge $-1 $624 $895 $631 $812 reversed $616 $-1 #
straight-curve $-1 -66.585283974730672 0 -11.510845128113274 0 1 0 I I #
edge $-1 $629 11.510845128113274 $899 18.858793115644382 $627 $902 forward 7 unknown #
point $-1 -66.585283974730672 39.989779973617352 -11.510845128113274 #
edge $-1 $632 11.510845128113274 $897 18.858793115644382 $808 $903 forward 7 unknown #
point $-1 -66.585283974730672 -39.989779973617352 -11.510845128113274 #
straight-curve $-1 -50.200873638670643 39.989779973617352 -7.592409560939414 0 0 -1 I I #
edge $-1 $816 27.902555441657078 $819 39.610679623638617 $638 $904 forward 7 unknown #
vertex $-1 $642 $905 #
straight-curve $-1 -33.376531535146363 -39.989779973617352 49.621361954258461 0 0 1 I I #
edge $-1 $819 12.482180241692109 $649 29.306522345216397 $648 $906 forward 7 unknown #
vertex $-1 $818 $907 #
straight-curve $-1 -33.376531535146363 -39.989779973617374 6.7346753198093268 0 -0.69465836192734942 -0.71933980857756763 I I #
point $-1 -33.376531535146363 -39.989779973617352 6.734675319809349 #
point $-1 -50.20087363867065 -28.281655791635814 18.858793115644382 #
straight-curve $-1 0 -39.989779973617352 18.858793115644382 1 0 0 I I #
vertex $-1 $655 $908 #
point $-1 -45.836005217965791 -32.997577282757938 11.69764464236866 #
vertex $-1 $659 $909 #
point $-1 -40.788702586908506 -32.997577282757938 11.69764464236866 #
vertex $-1 $663 $910 #
point $-1 -35.741399955851222 -32.997577282757938 11.69764464236866 #
coedge $-1 $678 $677 $670 $831 forward $667 $-1 #
edge $-1 $832 27.902555441657078 $835 39.610679623638617 $830 $911 forward 7 unknown #
vertex $-1 $831 $912 #
straight-curve $-1 -4.1799921317960429 -39.989779973617352 49.621361954258461 0 0 1 I I #
edge $-1 $835 -2.1160894599830495 $679 14.708252643541236 $678 $913 forward 7 unknown #
vertex $-1 $834 $914 #
straight-curve $-1 -4.1799921317960429 -39.989779973617374 6.7346753198093268 0 -0.69465836192734942 -0.71933980857756763 I I #
point $-1 -4.1799921317960429 -39.989779973617352 6.734675319809349 #
point $-1 -21.004334235320329 -28.281655791635814 18.858793115644382 #
straight-curve $-1 0 -39.989779973617352 18.858793115644382 1 0 0 I I #
vertex $-1 $685 $915 #
point $-1 -16.639465814615463 -32.997577282757938 11.69764464236866 #
vertex $-1 $689 $916 #
point $-1 -11.592163183558185 -32.997577282757938 11.69764464236866 #
vertex $-1 $693 $917 #
point $-1 -6.5448605525008929 -32.997577282757938 11.69764464236866 #
coedge $-1 $708 $707 $700 $847 forward $697 $-1 #
edge $-1 $848 27.902555441657078 $851 39.610679623638617 $846 $918 forward 7 unknown #
vertex $-1 $847 $919 #
straight-curve $-1 25.016547271554288 -39.989779973617352 49.621361954258461 0 0 1 I I #
edge $-1 $851 -16.714359161658216 $709 0.10998294186607005 $708 $920 forward 7 unknown #
vertex $-1 $850 $921 #
straight-curve $-1 25.016547271554288 -39.989779973617374 6.7346753198093268 0 -0.69465836192734942 -0.71933980857756763 I I #
point $-1 25.016547271554288 -39.989779973617352 6.734675319809349 #
point $-1 8.1922051680300019 -28.281655791635814 18.858793115644382 #
straight-curve $-1 0 -39.989779973617352 18.858793115644382 1 0 0 I I #
vertex $-1 $715 $922 #
point $-1 12.557073588734866 -32.997577282757938 11.69764464236866 #
vertex $-1 $719 $923 #
point $-1 17.604376219792144 -32.997577282757938 11.69764464236866 #
vertex $-1 $723 $924 #
point $-1 22.651678850849436 -32.997577282757938 11.69764464236866 #
coedge $-1 $738 $737 $730 $863 forward $727 $-1 #
edge $-1 $864 27.902555441657078 $867 39.610679623638617 $862 $925 forward 7 unknown #
vertex $-1 $863 $926 #
straight-curve $-1 54.213086674904616 -39.989779973617352 49.621361954258461 0 0 1 I I #
edge $-1 $867 -31.31262886333338 $739 -14.488286759809093 $738 $927 forward 7 unknown #
vertex $-1 $866 $928 #
straight-curve $-1 54.213086674904616 -39.989779973617374 6.7346753198093268 0 -0.69465836192734942 -0.71933980857756763 I I #
point $-1 54.213086674904616 -39.989779973617352 6.734675319809349 #
point $-1 37.388744571380329 -28.281655791635814 18.858793115644382 #
straight-curve $-1 0 -39.989779973617352 18.858793115644382 1 0 0 I I #
vertex $-1 $745 $929 #
point $-1 41.753612992085195 -32.997577282757938 11.69764464236866 #
vertex $-1 $749 $930 #
point $-1 46.800915623142473 -32.997577282757938 11.69764464236866 #
vertex $-1 $753 $931 #
point $-1 51.848218254199764 -32.997577282757938 11.69764464236866 #
edge $-1 $879 58.964904143154946 $882 75.600746217197823 $758 $932 forward 7 unknown #
vertex $-1 $772 $933 #
straight-curve $-1 37.412160007060571 32.161137574047316 18.858793115644374 0 1 0 I I #
edge $-1 $882 -24.835063318632223 $769 -0.3191300582244736 $768 $934 forward 7 unknown #
vertex $-1 $881 $935 #
straight-curve $-1 37.412160007060571 -21.278116956853466 53.632821835744821 0 -0.76604443648966558 0.64278761758704617 I I #
point $-1 37.412160007060571 20.163955831297919 18.858793115644382 #
point $-1 12.896226746652822 39.989779973617345 2.2229510416015046 #
straight-curve $-1 0 39.989779973617352 18.858793115644382 -1 0 0 I I #
vertex $-1 $775 $936 #
point $-1 22.40077910676932 25.85574809950533 5.5103374940483443 #
vertex $-1 $779 $937 #
point $-1 32.907607646944072 25.85574809950533 5.5103374940483443 #
straight-curve $-1 -66.585283974730672 39.989779973617352 0 0 0 -1 I I #
point $-1 -66.585283974730672 -39.989779973617352 -18.858793115644382 #
straight-curve $-1 -66.585283974730672 0 -18.858793115644382 0 1 0 I I #
point $-1 -66.585283974730672 39.989779973617352 -18.858793115644382 #
coedge $-1 $808 $807 $800 $896 reversed $616 $-1 #
edge $-1 $897 -39.989779973617352 $899 39.989779973617352 $895 $938 forward 7 unknown #
vertex $-1 $896 $939 #
straight-curve $-1 0 -39.989779973617352 -18.858793115644382 -1 0 0 I I #
vertex $-1 $803 $940 #
straight-curve $-1 0 39.989779973617352 -18.858793115644382 1 0 0 I I #
point $-1 -50.200873638670643 39.989779973617352 -18.858793115644382 #
straight-curve $-1 -66.585283974730672 39.989779973617352 0 0 0 -1 I I #
straight-curve $-1 -66.585283974730672 -39.989779973617352 0 0 0 -1 I I #
straight-curve $-1 -33.376531535146363 -67.892335415274431 18.858793115644382 0 1 0 I I #
point $-1 -33.376531535146363 -39.989779973617352 18.858793115644382 #
straight-curve $-1 -20.894351293454253 -28.281655791635817 18.858793115644382 -1 0 0 I I #
point $-1 -33.376531535146363 -28.281655791635814 18.858793115644382 #
point $-1 -46.836005217965791 -32.278237474180365 11.002986280441311 #
point $-1 -41.788702586908506 -32.278237474180365 11.002986280441311 #
point $-1 -36.741399955851222 -32.278237474180365 11.002986280441311 #
straight-curve $-1 -4.1799921317960429 -67.892335415274431 18.858793115644382 0 1 0 I I #
point $-1 -4.1799921317960429 -39.989779973617352 18.858793115644382 #
straight-curve $-1 -6.2960815917790924 -28.281655791635817 18.858793115644382 -1 0 0 I I #
point $-1 -4.1799921317960429 -28.281655791635814 18.858793115644382 #
point $-1 -17.639465814615463 -32.278237474180365 11.002986280441311 #
point $-1 -12.592163183558185 -32.278237474180365 11.002986280441311 #
point $-1 -7.5448605525008929 -32.278237474180365 11.002986280441311 #
straight-curve $-1 25.016547271554288 -67.892335415274431 18.858793115644382 0 1 0 I I #
point $-1 25.016547271554288 -39.989779973617352 18.858793115644382 #
straight-curve $-1 8.3021881098960719 -28.281655791635817 18.858793115644382 -1 0 0 I I #
point $-1 25.016547271554288 -28.281655791635814 18.858793115644382 #
point $-1 11.557073588734866 -32.278237474180365 11.002986280441311 #
point $-1 16.604376219792144 -32.278237474180365 11.002986280441311 #
point $-1 21.651678850849436 -32.278237474180365 11.002986280441311 #
straight-curve $-1 54.213086674904616 -67.892335415274431 18.858793115644382 0 1 0 I I #
point $-1 54.213086674904616 -39.989779973617352 18.858793115644382 #
straight-curve $-1 22.900457811571236 -28.281655791635817 18.858793115644382 -1 0 0 I I #
point $-1 54.213086674904616 -28.281655791635814 18.858793115644382 #
point $-1 40.753612992085195 -32.278237474180365 11.002986280441311 #
point $-1 45.800915623142473 -32.278237474180365 11.002986280441311 #
point $-1 50.848218254199764 -32.278237474180365 11.002986280441311 #
straight-curve $-1 37.412160007060571 39.989779973617352 77.823697258799328 0 0 -1 I I #
point $-1 37.412160007060571 39.989779973617352 18.858793115644382 #
straight-curve $-1 12.577096688428348 39.989779973617345 2.2229510416015046 -1 0 0 I I #
point $-1 37.412160007060571 39.989779973617345 2.2229510416015046 #
point $-1 19.90077910676932 24.248779055537714 3.5952264028241805 #
point $-1 30.407607646944072 24.248779055537714 3.5952264028241805 #
straight-curve $-1 -66.585283974730672 0 -18.858793115644382 0 1 0 I I #
point $-1 -66.585283974730672 -39.989779973617352 -18.858793115644382 #
point $-1 -66.585283974730672 39.989779973617352 -18.858793115644382 #
End-of-ACIS-data 