500 0 8 0           
7 Unknown 11 ACIS 5.0 NT 24 Thu Mar 25 19:12:02 1999 
-1 9.9999999999999995e-007 1e-010 
body $-1 $8 $-1 $9 #
body $-1 $10 $-1 $11 #
body $-1 $12 $-1 $13 #
body $-1 $14 $-1 $15 #
body $-1 $16 $-1 $17 #
body $-1 $18 $-1 $19 #
body $-1 $20 $-1 $21 #
body $-1 $22 $-1 $23 #
lump $-1 $-1 $24 $0 #
transform $-1 1 0 0 0 1 0 0 0 1 70.114444410534986 41.731863962211428 13.813148904731976 1 rotate no_reflect no_shear #
lump $-1 $-1 $25 $1 #
transform $-1 1 0 0 0 1 0 0 0 1 70.114444410534986 41.731863962211428 13.813148904731976 1 rotate no_reflect no_shear #
lump $-1 $-1 $26 $2 #
transform $-1 1 0 0 0 1 0 0 0 1 70.114444410534986 41.731863962211428 13.813148904731976 1 rotate no_reflect no_shear #
lump $-1 $-1 $27 $3 #
transform $-1 1 0 0 0 1 0 0 0 1 70.114444410534986 41.731863962211428 13.813148904731976 1 rotate no_reflect no_shear #
lump $-1 $-1 $28 $4 #
transform $-1 1 0 0 0 1 0 0 0 1 70.114444410534986 41.731863962211428 13.813148904731976 1 rotate no_reflect no_shear #
lump $-1 $-1 $29 $5 #
transform $-1 1 0 0 0 1 0 0 0 1 70.114444410534986 41.731863962211428 13.813148904731976 1 rotate no_reflect no_shear #
lump $-1 $-1 $30 $6 #
transform $-1 1 0 0 0 1 0 0 0 1 70.114444410534986 41.731863962211428 13.813148904731976 1 rotate no_reflect no_shear #
lump $-1 $-1 $31 $7 #
transform $-1 1 0 0 0 1 0 0 0 1 70.114444410534986 41.731863962211428 13.813148904731976 1 rotate no_reflect no_shear #
shell $-1 $-1 $-1 $32 $-1 $8 #
shell $-1 $-1 $-1 $33 $-1 $10 #
shell $-1 $-1 $-1 $34 $-1 $12 #
shell $-1 $-1 $-1 $35 $-1 $14 #
shell $-1 $-1 $-1 $36 $-1 $16 #
shell $-1 $-1 $-1 $37 $-1 $18 #
shell $-1 $-1 $-1 $38 $-1 $20 #
shell $-1 $-1 $-1 $39 $-1 $22 #
face $-1 $40 $41 $24 $-1 $42 forward single #
face $-1 $43 $44 $25 $-1 $45 forward single #
face $-1 $46 $47 $26 $-1 $48 reversed single #
face $-1 $49 $50 $27 $-1 $51 forward single #
face $-1 $52 $53 $28 $-1 $54 forward single #
face $-1 $55 $56 $29 $-1 $57 reversed single #
face $-1 $58 $59 $30 $-1 $60 forward single #
face $-1 $61 $62 $31 $-1 $63 forward single #
face $-1 $64 $65 $24 $-1 $66 reversed single #
loop $-1 $-1 $67 $32 #
plane-surface $-1 0 0 13.813148904731976 0 0 1 1 0 0 forward_v I I I I #
face $-1 $68 $69 $25 $-1 $70 reversed single #
loop $-1 $-1 $71 $33 #
plane-surface $-1 0 -41.731863962211428 0 0 1 0 0 0 1 forward_v I I I I #
face $-1 $72 $73 $26 $-1 $74 reversed single #
loop $-1 $-1 $75 $34 #
plane-surface $-1 -177.53600661869103 28.8658255229671 94.944188163867935 0 1 0 -0.7660444514056185 0 0.64278759981090561 forward_v I I I I #
face $-1 $76 $77 $27 $-1 $78 forward single #
loop $-1 $79 $80 $35 #
cone-surface $-1 -65.348696096756569 32.541836505608337 8.4816682924718076 0.7660444514056185 0 -0.64278759981090561 0.64278759981090561 0 0.7660444514056185 1 I I 0 1 1 forward I I I I #
face $-1 $81 $82 $28 $-1 $83 forward single #
loop $-1 $84 $85 $36 #
cone-surface $-1 -65.348696096756569 38.055852979570197 8.4816682924718076 0.7660444514056185 0 -0.64278759981090561 0.64278759981090561 0 0.7660444514056185 1 I I 0 1 1 forward I I I I #
face $-1 $86 $87 $29 $-1 $88 reversed single #
loop $-1 $-1 $89 $37 #
plane-surface $-1 63.193401903998705 27.913235395597273 198.7115510657799 0 -1 0 -0.68199836817093118 0 -0.7313536940579346 forward_v I I I I #
face $-1 $90 $91 $30 $-1 $92 forward single #
loop $-1 $93 $94 $38 #
cone-surface $-1 62.058697353282916 15.554483315228367 6.1713281999676246 -0.68199836817093118 0 -0.7313536940579346 0.7313536940579346 0 -0.68199836817093118 1 I I 0 1 1 forward I I I I #
face $-1 $95 $96 $31 $-1 $97 forward single #
loop $-1 $98 $99 $39 #
cone-surface $-1 62.058697353282916 22.969734563449713 6.1713281999676246 -0.68199836817093118 0 -0.7313536940579346 0.7313536940579346 0 -0.68199836817093118 1 I I 0 1 1 forward I I I I #
face $-1 $100 $101 $24 $-1 $102 reversed single #
loop $-1 $-1 $103 $40 #
plane-surface $-1 0 0 -13.813148904731976 0 0 1 1 0 0 forward_v I I I I #
coedge $-1 $104 $105 $106 $107 forward $41 $-1 #
face $-1 $108 $109 $25 $-1 $110 reversed single #
loop $-1 $-1 $111 $43 #
plane-surface $-1 0 0 -13.813148904731976 0 0 1 1 0 0 forward_v I I I I #
coedge $-1 $112 $113 $114 $115 forward $44 $-1 #
face $-1 $116 $117 $26 $-1 $118 reversed single #
loop $-1 $-1 $119 $46 #
plane-surface $-1 -70.114444410535015 35.298844742589274 4.8067972944220401 -0.7660444514056185 0 0.64278759981090561 0.64278759981090561 0 0.7660444514056185 forward_v I I I I #
coedge $-1 $120 $121 $122 $123 reversed $47 $-1 #
face $-1 $-1 $124 $27 $-1 $125 forward single #
loop $-1 $126 $127 $49 #
cone-surface $-1 -63.978538615578714 32.541836505608337 7.331969685461166 0.7660444514056185 0 -0.64278759981090561 0.3213937999054528 0 0.38302222570280925 1 I I -0.70710678118654813 0.70710678118654691 0.5 forward I I I I #
loop $-1 $-1 $128 $35 #
coedge $-1 $80 $80 $129 $130 reversed $50 $-1 #
face $-1 $-1 $131 $28 $-1 $132 forward single #
loop $-1 $133 $134 $52 #
cone-surface $-1 -63.978538615578714 38.055852979570197 7.331969685461166 0.7660444514056185 0 -0.64278759981090561 0.3213937999054528 0 0.38302222570280925 1 I I -0.70710678118654813 0.70710678118654691 0.5 forward I I I I #
loop $-1 $-1 $135 $36 #
coedge $-1 $85 $85 $136 $137 reversed $53 $-1 #
face $-1 $138 $139 $29 $-1 $140 reversed single #
loop $-1 $-1 $141 $55 #
plane-surface $-1 -32.442471442393952 19.262108939339036 96.154635212850962 0.68199836817093118 0 0.7313536940579346 0.7313536940579346 0 -0.68199836817093118 forward_v I I I I #
coedge $-1 $142 $143 $144 $145 reversed $56 $-1 #
face $-1 $-1 $146 $30 $-1 $147 forward single #
loop $-1 $148 $149 $58 #
cone-surface $-1 60.790193292900653 15.554483315228367 4.8110241673111442 -0.68199836817093118 0 -0.7313536940579346 0.3656768470289673 0 -0.34099918408546559 1 I I -0.70710678118654746 0.70710678118654746 0.5 forward I I I I #
loop $-1 $-1 $150 $38 #
coedge $-1 $94 $94 $151 $152 reversed $59 $-1 #
face $-1 $-1 $153 $31 $-1 $154 forward single #
loop $-1 $155 $156 $61 #
cone-surface $-1 60.790193292900653 22.969734563449713 4.8110241673111442 -0.68199836817093118 0 -0.7313536940579346 0.3656768470289673 0 -0.34099918408546559 1 I I -0.70710678118654746 0.70710678118654746 0.5 forward I I I I #
loop $-1 $-1 $157 $39 #
coedge $-1 $99 $99 $158 $159 reversed $62 $-1 #
face $-1 $160 $161 $24 $-1 $162 reversed single #
loop $-1 $-1 $163 $64 #
plane-surface $-1 0 -41.731863962211428 0 0 1 0 0 0 1 forward_v I I I I #
coedge $-1 $164 $165 $166 $167 forward $65 $-1 #
coedge $-1 $168 $67 $169 $170 forward $41 $-1 #
coedge $-1 $67 $168 $171 $172 forward $41 $-1 #
coedge $-1 $173 $174 $67 $107 reversed $175 $-1 #
edge $-1 $176 -41.731863962211428 $177 41.731863962211428 $106 $178 forward 7 unknown #
face $-1 $179 $180 $25 $-1 $181 forward single #
loop $-1 $-1 $182 $68 #
plane-surface $-1 70.114444410534986 0 0 -1 0 0 0 0 1 forward_v I I I I #
coedge $-1 $183 $184 $185 $186 forward $69 $-1 #
coedge $-1 $185 $71 $182 $187 reversed $44 $-1 #
coedge $-1 $71 $185 $188 $189 reversed $44 $-1 #
coedge $-1 $190 $191 $71 $115 reversed $180 $-1 #
edge $-1 $192 -70.114444410534986 $193 70.114444410534986 $114 $194 forward 7 unknown #
face $-1 $195 $196 $26 $-1 $197 reversed single #
loop $-1 $-1 $198 $72 #
plane-surface $-1 0 41.731863962211428 0 0 -1 0 0 0 -1 forward_v I I I I #
coedge $-1 $199 $200 $201 $202 reversed $73 $-1 #
coedge $-1 $121 $75 $203 $204 reversed $47 $-1 #
coedge $-1 $75 $120 $199 $205 reversed $47 $-1 #
coedge $-1 $201 $206 $75 $123 forward $207 $-1 #
edge $-1 $208 18.65355889881053 $209 26.210785015417223 $122 $210 forward 7 unknown #
loop $-1 $-1 $129 $76 #
plane-surface $-1 -70.114444410535015 35.298844742589274 4.8067972944220401 -0.7660444514056185 0 0.64278759981090561 0.64278759981090561 0 0.7660444514056185 forward_v I I I I #
loop $-1 $-1 $211 $49 #
coedge $-1 $127 $127 $128 $212 reversed $77 $-1 #
coedge $-1 $128 $128 $127 $212 forward $79 $-1 #
coedge $-1 $129 $129 $80 $130 forward $124 $-1 #
edge $-1 $213 0 $213 6.2831853071796004 $129 $214 forward 7 unknown #
loop $-1 $-1 $136 $81 #
plane-surface $-1 -70.114444410535015 35.298844742589274 4.8067972944220401 -0.7660444514056185 0 0.64278759981090561 0.64278759981090561 0 0.7660444514056185 forward_v I I I I #
loop $-1 $-1 $215 $52 #
coedge $-1 $134 $134 $135 $216 reversed $82 $-1 #
coedge $-1 $135 $135 $134 $216 forward $84 $-1 #
coedge $-1 $136 $136 $85 $137 forward $131 $-1 #
edge $-1 $217 0 $217 6.2831853071796004 $136 $218 forward 7 unknown #
face $-1 $219 $220 $29 $-1 $221 forward single #
loop $-1 $-1 $222 $86 #
plane-surface $-1 63.193401903998705 10.6109824830808 198.7115510657799 0 1 0 0.68199836817093118 0 0.7313536940579346 forward_v I I I I #
coedge $-1 $223 $224 $225 $226 reversed $87 $-1 #
coedge $-1 $143 $89 $227 $228 reversed $56 $-1 #
coedge $-1 $89 $142 $223 $229 reversed $56 $-1 #
coedge $-1 $225 $230 $89 $145 forward $220 $-1 #
edge $-1 $231 -38.517743458535634 $232 -24.261259096625125 $144 $233 forward 7 unknown #
loop $-1 $-1 $151 $90 #
plane-surface $-1 -32.442471442393952 19.262108939339036 96.154635212850962 0.68199836817093118 0 0.7313536940579346 0.7313536940579346 0 -0.68199836817093118 forward_v I I I I #
loop $-1 $-1 $234 $58 #
coedge $-1 $149 $149 $150 $235 reversed $91 $-1 #
coedge $-1 $150 $150 $149 $235 forward $93 $-1 #
coedge $-1 $151 $151 $94 $152 forward $146 $-1 #
edge $-1 $236 0 $236 6.2831853071796004 $151 $237 forward 7 unknown #
loop $-1 $-1 $158 $95 #
plane-surface $-1 -32.442471442393952 19.262108939339036 96.154635212850962 0.68199836817093118 0 0.7313536940579346 0.7313536940579346 0 -0.68199836817093118 forward_v I I I I #
loop $-1 $-1 $238 $61 #
coedge $-1 $156 $156 $157 $239 reversed $96 $-1 #
coedge $-1 $157 $157 $156 $239 forward $98 $-1 #
coedge $-1 $158 $158 $99 $159 forward $153 $-1 #
edge $-1 $240 0 $240 6.2831853071796004 $158 $241 forward 7 unknown #
face $-1 $242 $243 $24 $-1 $244 reversed single #
loop $-1 $-1 $245 $100 #
plane-surface $-1 -70.114444410534986 0 0 1 0 0 0 0 -1 forward_v I I I I #
coedge $-1 $246 $171 $247 $248 forward $101 $-1 #
coedge $-1 $249 $103 $246 $250 forward $65 $-1 #
coedge $-1 $103 $249 $251 $252 forward $65 $-1 #
coedge $-1 $174 $173 $103 $167 reversed $175 $-1 #
edge $-1 $253 -41.731863962211428 $254 41.731863962211428 $166 $255 forward 7 unknown #
coedge $-1 $105 $104 $256 $257 forward $41 $-1 #
coedge $-1 $258 $259 $104 $170 reversed $243 $-1 #
edge $-1 $177 -70.114444410534986 $260 70.114444410534986 $169 $261 forward 7 unknown #
coedge $-1 $163 $262 $105 $172 reversed $101 $-1 #
edge $-1 $263 -70.114444410534986 $176 70.114444410534986 $171 $264 forward 7 unknown #
coedge $-1 $166 $106 $262 $265 forward $175 $-1 #
coedge $-1 $106 $166 $258 $266 reversed $175 $-1 #
loop $-1 $-1 $173 $242 #
vertex $-1 $107 $267 #
vertex $-1 $107 $268 #
straight-curve $-1 70.114444410534986 0 13.813148904731976 0 1 0 I I #
face $-1 $269 $270 $25 $-1 $271 reversed single #
loop $-1 $-1 $191 $108 #
plane-surface $-1 0 -47.260938612381686 -8.6073450220287935 0 0 1 1 0 0 forward_v I I I I #
coedge $-1 $272 $273 $112 $187 forward $109 $-1 #
coedge $-1 $274 $111 $273 $275 forward $69 $-1 #
coedge $-1 $111 $274 $276 $277 forward $69 $-1 #
coedge $-1 $113 $112 $111 $186 reversed $44 $-1 #
edge $-1 $278 -70.114444410534986 $279 70.114444410534986 $111 $280 forward 7 unknown #
edge $-1 $279 -13.813148904731976 $193 -8.6073450220287935 $182 $281 forward 7 unknown #
coedge $-1 $276 $282 $113 $189 forward $283 $-1 #
edge $-1 $192 8.6073450220287935 $278 13.813148904731976 $188 $284 forward 7 unknown #
coedge $-1 $285 $114 $282 $286 forward $180 $-1 #
coedge $-1 $114 $285 $272 $287 forward $180 $-1 #
vertex $-1 $189 $288 #
vertex $-1 $287 $289 #
straight-curve $-1 0 -41.731863962211428 -8.6073450220287935 1 0 0 I I #
face $-1 $-1 $207 $26 $-1 $290 forward single #
loop $-1 $-1 $291 $116 #
plane-surface $-1 -70.114444410534986 0 0 1 0 0 0 0 -1 forward_v I I I I #
coedge $-1 $292 $293 $200 $294 forward $117 $-1 #
coedge $-1 $295 $119 $121 $205 forward $73 $-1 #
coedge $-1 $119 $295 $198 $294 reversed $73 $-1 #
coedge $-1 $296 $122 $119 $202 forward $207 $-1 #
edge $-1 $209 11.216403151672463 $297 24.082441590916812 $201 $298 forward 7 unknown #
coedge $-1 $299 $291 $120 $204 forward $196 $-1 #
edge $-1 $300 -42.665296787511892 $208 -33.658945177201993 $203 $301 forward 7 unknown #
edge $-1 $209 -11.756956915207914 $300 -4.4123720097533069e-014 $121 $302 forward 7 unknown #
coedge $-1 $122 $296 $299 $303 forward $207 $-1 #
loop $-1 $-1 $201 $195 #
vertex $-1 $204 $304 #
vertex $-1 $123 $305 #
straight-curve $-1 -88.768003309345517 28.8658255229671 13.813148904731975 1 0 0 I I #
coedge $-1 $211 $211 $-1 $306 reversed $126 $-1 #
edge $-1 $307 0 $307 6.2831853071796004 $127 $308 forward 7 unknown #
vertex $-1 $130 $309 #
ellipse-curve $-1 -66.335831352231651 32.541836505608337 9.3099730995770198 -0.7660444514056185 0 0.64278759981090561 0.64278759981090561 0 0.7660444514056185 1 I I #
coedge $-1 $215 $215 $-1 $310 reversed $133 $-1 #
edge $-1 $311 0 $311 6.2831853071796004 $134 $312 forward 7 unknown #
vertex $-1 $137 $313 #
ellipse-curve $-1 -66.335831352231651 38.055852979570197 9.3099730995770198 -0.7660444514056185 0 0.64278759981090561 0.64278759981090561 0 0.7660444514056185 1 I I #
face $-1 $-1 $314 $29 $-1 $315 reversed single #
loop $-1 $-1 $144 $138 #
plane-surface $-1 0 0 13.813148904731976 0 0 1 1 0 0 forward_v I I I I #
coedge $-1 $316 $317 $318 $319 reversed $139 $-1 #
coedge $-1 $320 $141 $143 $229 forward $87 $-1 #
coedge $-1 $141 $320 $316 $321 forward $87 $-1 #
coedge $-1 $318 $144 $141 $226 forward $220 $-1 #
edge $-1 $232 -18.282180925927754 $322 -0.979928013411282 $225 $323 forward 7 unknown #
coedge $-1 $324 $325 $142 $228 forward $314 $-1 #
edge $-1 $326 -98.837013666431645 $231 -85.542626628157976 $227 $327 forward 7 unknown #
edge $-1 $232 120.73560605277213 $326 140.22888882106997 $143 $328 forward 7 unknown #
coedge $-1 $144 $318 $324 $329 forward $220 $-1 #
vertex $-1 $228 $330 #
vertex $-1 $145 $331 #
straight-curve $-1 31.596700951999352 27.913235395597273 13.813148904731975 -1 0 0 I I #
coedge $-1 $234 $234 $-1 $332 reversed $148 $-1 #
edge $-1 $333 0 $333 6.2831853071796004 $149 $334 forward 7 unknown #
vertex $-1 $152 $335 #
ellipse-curve $-1 62.986202229579725 15.554483315228367 7.1659553855951508 0.68199836817093118 0 0.7313536940579346 0.7313536940579346 0 -0.68199836817093118 1 I I #
coedge $-1 $238 $238 $-1 $336 reversed $155 $-1 #
edge $-1 $337 0 $337 6.2831853071796004 $156 $338 forward 7 unknown #
vertex $-1 $159 $339 #
ellipse-curve $-1 62.986202229579725 22.969734563449713 7.1659553855951508 0.68199836817093118 0 0.7313536940579346 0.7313536940579346 0 -0.68199836817093118 1 I I #
face $-1 $-1 $175 $24 $-1 $340 reversed single #
loop $-1 $-1 $258 $160 #
plane-surface $-1 0 41.731863962211428 0 0 -1 0 0 0 -1 forward_v I I I I #
coedge $-1 $341 $256 $259 $342 forward $161 $-1 #
coedge $-1 $262 $163 $164 $250 reversed $101 $-1 #
coedge $-1 $256 $341 $163 $248 reversed $161 $-1 #
edge $-1 $263 -13.813148904731976 $343 13.813148904731976 $247 $344 forward 7 unknown #
coedge $-1 $165 $164 $341 $345 forward $65 $-1 #
edge $-1 $254 -70.114444410534986 $343 70.114444410534986 $246 $346 forward 7 unknown #
coedge $-1 $259 $258 $165 $252 reversed $243 $-1 #
edge $-1 $347 -70.114444410534986 $253 70.114444410534986 $251 $348 forward 7 unknown #
vertex $-1 $167 $349 #
vertex $-1 $265 $350 #
straight-curve $-1 70.114444410534986 0 -13.813148904731976 0 -1 0 I I #
coedge $-1 $245 $247 $168 $257 reversed $161 $-1 #
edge $-1 $260 -41.731863962211428 $263 41.731863962211428 $256 $351 forward 7 unknown #
coedge $-1 $251 $169 $174 $266 forward $243 $-1 #
coedge $-1 $169 $251 $245 $342 reversed $243 $-1 #
vertex $-1 $170 $352 #
straight-curve $-1 0 41.731863962211428 13.813148904731976 -1 0 0 I I #
coedge $-1 $171 $246 $173 $265 reversed $101 $-1 #
vertex $-1 $257 $353 #
straight-curve $-1 0 -41.731863962211428 13.813148904731976 1 0 0 I I #
edge $-1 $176 -13.813148904731976 $254 13.813148904731976 $173 $354 forward 7 unknown #
edge $-1 $177 -13.813148904731976 $253 13.813148904731976 $174 $355 forward 7 unknown #
point $-1 70.114444410534986 -41.731863962211428 13.813148904731976 #
point $-1 70.114444410534986 41.731863962211428 13.813148904731976 #
face $-1 $-1 $283 $25 $-1 $356 reversed single #
loop $-1 $-1 $357 $179 #
plane-surface $-1 0 -52.790013262551945 -11.210246963380385 0 1 0 0 0 1 forward_v I I I I #
coedge $-1 $358 $182 $191 $287 reversed $109 $-1 #
coedge $-1 $182 $358 $183 $275 reversed $109 $-1 #
coedge $-1 $184 $183 $359 $360 forward $69 $-1 #
edge $-1 $279 41.731863962211428 $361 52.790013262551945 $273 $362 forward 7 unknown #
coedge $-1 $363 $188 $184 $277 reversed $283 $-1 #
edge $-1 $364 -52.790013262551945 $278 -41.731863962211428 $276 $365 forward 7 unknown #
vertex $-1 $189 $366 #
vertex $-1 $275 $367 #
straight-curve $-1 0 -41.731863962211428 -13.813148904731976 1 0 0 I I #
straight-curve $-1 70.114444410534986 -41.731863962211428 0 0 0 1 I I #
coedge $-1 $188 $363 $190 $286 reversed $283 $-1 #
loop $-1 $-1 $188 $269 #
straight-curve $-1 -70.114444410534986 -41.731863962211428 0 0 0 -1 I I #
coedge $-1 $191 $190 $368 $369 forward $180 $-1 #
edge $-1 $192 -5.5290746501702586 $370 5.5290746501702586 $282 $371 forward 7 unknown #
edge $-1 $372 -5.5290746501702586 $193 5.5290746501702586 $272 $373 forward 7 unknown #
point $-1 -70.114444410534986 -41.731863962211428 -8.6073450220287935 #
point $-1 70.114444410534986 -41.731863962211428 -8.6073450220287935 #
plane-surface $-1 0 0 13.813148904731976 0 0 1 1 0 0 forward_v I I I I #
coedge $-1 $203 $374 $295 $375 forward $196 $-1 #
coedge $-1 $293 $198 $374 $376 reversed $117 $-1 #
coedge $-1 $198 $292 $296 $377 reversed $117 $-1 #
edge $-1 $297 8.9362806039418015 $378 20.693237519149669 $198 $379 forward 7 unknown #
coedge $-1 $200 $199 $291 $375 reversed $73 $-1 #
coedge $-1 $206 $201 $293 $377 forward $207 $-1 #
vertex $-1 $377 $380 #
straight-curve $-1 -62.557218293928294 17.649422371294637 13.813148904731975 0 1 0 I I #
coedge $-1 $374 $203 $206 $303 reversed $196 $-1 #
vertex $-1 $204 $381 #
straight-curve $-1 -70.114444410534986 28.8658255229671 47.472094081933967 0 0 1 I I #
straight-curve $-1 -70.114444410535015 28.8658255229671 4.8067972944220401 -0.64278759981090561 0 -0.7660444514056185 I I #
edge $-1 $382 -41.731863962211428 $208 -28.8658255229671 $299 $383 forward 7 unknown #
point $-1 -70.114444410534986 28.8658255229671 13.813148904731976 #
point $-1 -62.557218293928294 28.8658255229671 13.813148904731976 #
edge $-1 $384 1 $384 0 $211 $-1 forward 7 unknown #
vertex $-1 $212 $385 #
ellipse-curve $-1 -64.361560841281516 32.541836505608337 7.6533634853666186 -0.7660444514056185 0 0.64278759981090561 0.64278759981090561 0 0.7660444514056185 1 I I #
point $-1 -65.693043752420706 32.541836505608337 10.076017550982614 #
edge $-1 $386 1 $386 0 $215 $-1 forward 7 unknown #
vertex $-1 $216 $387 #
ellipse-curve $-1 -64.361560841281516 38.055852979570197 7.6533634853666186 -0.7660444514056185 0 0.64278759981090561 0.64278759981090561 0 0.7660444514056185 1 I I #
point $-1 -65.693043752420706 38.055852979570197 10.076017550982614 #
loop $-1 $-1 $227 $219 #
plane-surface $-1 70.114444410534986 0 0 -1 0 0 0 0 1 forward_v I I I I #
coedge $-1 $317 $222 $224 $321 reversed $139 $-1 #
coedge $-1 $222 $316 $388 $389 reversed $139 $-1 #
coedge $-1 $230 $225 $222 $319 forward $220 $-1 #
edge $-1 $322 24.261259096625125 $390 38.517743458535634 $318 $391 forward 7 unknown #
coedge $-1 $224 $223 $325 $392 reversed $87 $-1 #
edge $-1 $393 -140.22888882106997 $322 -120.73560605277213 $316 $394 forward 7 unknown #
vertex $-1 $226 $395 #
straight-curve $-1 55.857960048624463 9.6310544696695182 13.813148904731975 0 -1 0 I I #
coedge $-1 $388 $227 $230 $329 reversed $314 $-1 #
coedge $-1 $227 $388 $320 $392 forward $314 $-1 #
vertex $-1 $228 $396 #
straight-curve $-1 70.114444410534986 27.913235395597273 99.35577553288995 0 0 1 I I #
straight-curve $-1 -32.442471442393952 27.913235395597273 96.154635212850962 0.7313536940579346 0 -0.68199836817093118 I I #
edge $-1 $390 10.6109824830808 $231 27.913235395597273 $324 $397 forward 7 unknown #
point $-1 70.114444410534986 27.913235395597273 13.813148904731976 #
point $-1 55.857960048624477 27.913235395597273 13.813148904731975 #
edge $-1 $398 1 $398 0 $234 $-1 forward 7 unknown #
vertex $-1 $235 $399 #
ellipse-curve $-1 61.131192476986122 15.554483315228367 5.1767010143401118 0.68199836817093118 0 0.7313536940579346 0.7313536940579346 0 -0.68199836817093118 1 I I #
point $-1 63.717555923637647 15.554483315228367 6.4839570174242063 #
edge $-1 $400 1 $400 0 $238 $-1 forward 7 unknown #
vertex $-1 $239 $401 #
ellipse-curve $-1 61.131192476986122 22.969734563449713 5.1767010143401118 0.68199836817093118 0 0.7313536940579346 0.7313536940579346 0 -0.68199836817093118 1 I I #
point $-1 63.717555923637647 22.969734563449713 6.4839570174242063 #
plane-surface $-1 70.114444410534986 0 0 -1 0 0 0 0 1 forward_v I I I I #
coedge $-1 $247 $245 $249 $345 reversed $161 $-1 #
edge $-1 $260 -13.813148904731976 $347 13.813148904731976 $259 $402 forward 7 unknown #
vertex $-1 $345 $403 #
straight-curve $-1 -70.114444410534986 -41.731863962211428 0 0 0 -1 I I #
edge $-1 $343 -41.731863962211428 $347 41.731863962211428 $341 $404 forward 7 unknown #
straight-curve $-1 0 -41.731863962211428 -13.813148904731976 -1 0 0 I I #
vertex $-1 $252 $405 #
straight-curve $-1 0 41.731863962211428 -13.813148904731976 1 0 0 I I #
point $-1 70.114444410534986 41.731863962211428 -13.813148904731976 #
point $-1 70.114444410534986 -41.731863962211428 -13.813148904731976 #
straight-curve $-1 -70.114444410534986 0 13.813148904731976 0 -1 0 I I #
point $-1 -70.114444410534986 41.731863962211428 13.813148904731976 #
point $-1 -70.114444410534986 -41.731863962211428 13.813148904731976 #
straight-curve $-1 70.114444410534986 -41.731863962211428 0 0 0 -1 I I #
straight-curve $-1 70.114444410534986 41.731863962211428 0 0 0 -1 I I #
plane-surface $-1 -70.114444410534986 0 0 1 0 0 0 0 -1 forward_v I I I I #
coedge $-1 $359 $368 $363 $406 forward $270 $-1 #
coedge $-1 $273 $272 $407 $408 forward $109 $-1 #
coedge $-1 $407 $357 $274 $360 reversed $270 $-1 #
edge $-1 $361 -70.114444410534986 $364 70.114444410534986 $359 $409 forward 7 unknown #
vertex $-1 $408 $410 #
straight-curve $-1 70.114444410534986 0 -13.813148904731976 0 -1 0 I I #
coedge $-1 $282 $276 $357 $406 reversed $283 $-1 #
vertex $-1 $277 $411 #
straight-curve $-1 -70.114444410534986 0 -13.813148904731976 0 1 0 I I #
point $-1 -70.114444410534986 -41.731863962211428 -13.813148904731976 #
point $-1 70.114444410534986 -41.731863962211428 -13.813148904731976 #
coedge $-1 $357 $407 $285 $369 reversed $270 $-1 #
edge $-1 $370 -70.114444410534986 $372 70.114444410534986 $368 $412 forward 7 unknown #
vertex $-1 $286 $413 #
straight-curve $-1 -70.114444410534986 -47.260938612381686 -8.6073450220287935 0 -1 0 I I #
vertex $-1 $287 $414 #
straight-curve $-1 70.114444410534986 -47.260938612381686 -8.6073450220287935 0 1 0 I I #
coedge $-1 $291 $299 $292 $376 forward $196 $-1 #
edge $-1 $378 -24.082441590916812 $300 -11.216403151672463 $291 $415 forward 7 unknown #
edge $-1 $382 -13.813148904731976 $378 -4.8067972944220738 $292 $416 forward 7 unknown #
edge $-1 $297 62.557218293928294 $382 70.114444410534986 $293 $417 forward 7 unknown #
vertex $-1 $294 $418 #
straight-curve $-1 -56.813087933283796 41.731863962211428 20.658737077585243 -0.64278759981090572 0 -0.76604445140561861 I I #
point $-1 -62.557218293928294 41.731863962211449 13.813148904731976 #
point $-1 -70.114444410534986 28.8658255229671 4.8067972944220738 #
vertex $-1 $377 $419 #
straight-curve $-1 -70.114444410534986 0 13.813148904731976 0 -1 0 I I #
vertex $-1 $306 $420 #
point $-1 -63.718773241470615 32.541836505608337 8.4194079367722363 #
vertex $-1 $310 $421 #
point $-1 -63.718773241470615 38.055852979570197 8.4194079367722363 #
coedge $-1 $325 $324 $317 $389 forward $314 $-1 #
edge $-1 $390 85.542626628157976 $393 98.837013666431645 $388 $422 forward 7 unknown #
vertex $-1 $329 $423 #
straight-curve $-1 31.596700951999352 10.6109824830808 13.813148904731975 1 0 0 I I #
edge $-1 $393 0.979928013411282 $326 18.282180925927754 $325 $424 forward 7 unknown #
vertex $-1 $392 $425 #
straight-curve $-1 -32.442471442393952 10.6109824830808 96.154635212850962 -0.7313536940579346 0 0.68199836817093118 I I #
point $-1 55.857960048624477 10.6109824830808 13.813148904731975 #
point $-1 70.114444410534986 27.913235395597273 0.51876186645830558 #
straight-curve $-1 70.114444410534986 0 13.813148904731976 0 1 0 I I #
vertex $-1 $332 $426 #
point $-1 61.862546171044052 15.554483315228367 4.4947026461691806 #
vertex $-1 $336 $427 #
point $-1 61.862546171044052 22.969734563449713 4.4947026461691806 #
straight-curve $-1 -70.114444410534986 41.731863962211428 0 0 0 -1 I I #
point $-1 -70.114444410534986 -41.731863962211428 -13.813148904731976 #
straight-curve $-1 -70.114444410534986 0 -13.813148904731976 0 1 0 I I #
point $-1 -70.114444410534986 41.731863962211428 -13.813148904731976 #
edge $-1 $370 -2.6029019413515915 $364 2.6029019413515915 $363 $428 forward 7 unknown #
coedge $-1 $368 $359 $358 $408 reversed $270 $-1 #
edge $-1 $372 -2.6029019413515915 $361 2.6029019413515915 $358 $429 forward 7 unknown #
straight-curve $-1 0 -52.790013262551945 -13.813148904731976 -1 0 0 I I #
point $-1 70.114444410534986 -52.790013262551945 -13.813148904731976 #
point $-1 -70.114444410534986 -52.790013262551945 -13.813148904731976 #
straight-curve $-1 0 -52.790013262551945 -8.6073450220287935 1 0 0 I I #
point $-1 -70.114444410534986 -52.790013262551945 -8.6073450220287935 #
point $-1 70.114444410534986 -52.790013262551945 -8.6073450220287935 #
straight-curve $-1 -70.114444410534986 17.649422371294637 4.8067972944220809 0 -1 0 I I #
straight-curve $-1 -70.114444410534986 41.731863962211428 0 0 0 -1 I I #
straight-curve $-1 0 41.731863962211428 13.813148904731976 -1 0 0 I I #
point $-1 -70.114444410534986 41.731863962211449 4.8067972944220738 #
point $-1 -70.114444410534986 41.731863962211428 13.813148904731976 #
point $-1 -63.595516389875904 32.541836505608337 7.0105758855557134 #
point $-1 -63.595516389875904 38.055852979570197 7.0105758855557134 #
straight-curve $-1 70.114444410534986 10.6109824830808 99.35577553288995 0 0 -1 I I #
point $-1 70.114444410534986 10.6109824830808 13.813148904731976 #
straight-curve $-1 70.114444410534986 9.6310544696695182 0.51876186645830558 0 1 0 I I #
point $-1 70.114444410534986 10.6109824830808 0.51876186645830558 #
point $-1 60.449194108815185 15.554483315228367 4.4453473202821767 #
point $-1 60.449194108815185 22.969734563449713 4.4453473202821767 #
straight-curve $-1 -70.114444410534986 -52.790013262551945 -11.210246963380385 0 0 -1 I I #
straight-curve $-1 70.114444410534986 -52.790013262551945 -11.210246963380385 0 0 -1 I I #
End-of-ACIS-data 