500 0 8 0           
7 Unknown 11 ACIS 5.0 NT 24 Fri Mar 26 19:22:58 1999 
-1 9.9999999999999995e-007 1e-010 
body $-1 $8 $-1 $9 #
body $-1 $10 $-1 $11 #
body $-1 $12 $-1 $13 #
body $-1 $14 $-1 $15 #
body $-1 $16 $-1 $17 #
body $-1 $18 $-1 $19 #
body $-1 $20 $-1 $21 #
body $-1 $22 $-1 $23 #
lump $-1 $-1 $24 $0 #
transform $-1 1 0 0 0 1 0 0 0 1 62.027039399395733 39.298872302841737 18.898887297784029 1 rotate no_reflect no_shear #
lump $-1 $-1 $25 $1 #
transform $-1 1 0 0 0 1 0 0 0 1 62.027039399395733 39.298872302841737 18.898887297784029 1 rotate no_reflect no_shear #
lump $-1 $-1 $26 $2 #
transform $-1 1 0 0 0 1 0 0 0 1 62.027039399395733 39.298872302841737 18.898887297784029 1 rotate no_reflect no_shear #
lump $-1 $-1 $27 $3 #
transform $-1 1 0 0 0 1 0 0 0 1 62.027039399395733 39.298872302841737 18.898887297784029 1 rotate no_reflect no_shear #
lump $-1 $-1 $28 $4 #
transform $-1 1 0 0 0 1 0 0 0 1 62.027039399395733 39.298872302841737 18.898887297784029 1 rotate no_reflect no_shear #
lump $-1 $-1 $29 $5 #
transform $-1 1 0 0 0 1 0 0 0 1 62.027039399395733 39.298872302841737 18.898887297784029 1 rotate no_reflect no_shear #
lump $-1 $-1 $30 $6 #
transform $-1 1 0 0 0 1 0 0 0 1 62.027039399395733 39.298872302841737 18.898887297784029 1 rotate no_reflect no_shear #
lump $-1 $-1 $31 $7 #
transform $-1 1 0 0 0 1 0 0 0 1 62.027039399395733 39.298872302841737 18.898887297784029 1 rotate no_reflect no_shear #
shell $-1 $-1 $-1 $32 $-1 $8 #
shell $-1 $-1 $-1 $33 $-1 $10 #
shell $-1 $-1 $-1 $34 $-1 $12 #
shell $-1 $-1 $-1 $35 $-1 $14 #
shell $-1 $-1 $-1 $36 $-1 $16 #
shell $-1 $-1 $-1 $37 $-1 $18 #
shell $-1 $-1 $-1 $38 $-1 $20 #
shell $-1 $-1 $-1 $39 $-1 $22 #
face $-1 $40 $41 $24 $-1 $42 forward single #
face $-1 $43 $44 $25 $-1 $45 reversed single #
face $-1 $46 $47 $26 $-1 $48 reversed single #
face $-1 $49 $50 $27 $-1 $51 forward single #
face $-1 $52 $53 $28 $-1 $54 forward single #
face $-1 $55 $56 $29 $-1 $57 reversed single #
face $-1 $58 $59 $30 $-1 $60 forward single #
face $-1 $61 $62 $31 $-1 $63 forward single #
face $-1 $64 $65 $24 $-1 $66 reversed single #
loop $-1 $-1 $67 $32 #
plane-surface $-1 0 0 18.898887297784029 0 0 1 1 0 0 forward_v I I I I #
face $-1 $68 $69 $25 $-1 $70 reversed single #
loop $-1 $-1 $71 $33 #
plane-surface $-1 -50.771903302586047 0 9.8481618955718488 0 0 1 1 0 0 forward_v I I I I #
face $-1 $72 $73 $26 $-1 $74 reversed single #
loop $-1 $-1 $75 $34 #
plane-surface $-1 -34.129370416544468 -11.222783302796103 64.553454345972014 0 0.7660444514056185 0.64278759981090561 1 0 0 forward_v I I I I #
face $-1 $76 $77 $27 $-1 $78 forward single #
loop $-1 $79 $80 $35 #
cone-surface $-1 -36.438254754786705 32.025159851797603 10.642049288964989 0 -0.7660444514056185 -0.64278759981090561 1.5 0 0 1 I I 0 1 1.5 forward I I I I #
face $-1 $81 $82 $28 $-1 $83 forward single #
loop $-1 $84 $85 $36 #
cone-surface $-1 -31.820486078302224 32.025159851797603 10.642049288964989 0 -0.7660444514056185 -0.64278759981090561 1.5 0 0 1 I I 0 1 1.5 forward I I I I #
face $-1 $86 $87 $29 $-1 $88 reversed single #
loop $-1 $-1 $89 $37 #
plane-surface $-1 12.713476248225007 -144.50269863167807 74.42585056382282 -1 0 0 0 -0.84804810408105047 0.52991925155115449 forward_v I I I I #
face $-1 $90 $91 $30 $-1 $92 forward single #
loop $-1 $93 $94 $38 #
cone-surface $-1 -2.9028755957214045 -34.797741032728986 12.974062877749116 0 0.84804810408105047 -0.52991925155115449 2 0 0 1 I I 0 1 2 forward I I I I #
face $-1 $95 $96 $31 $-1 $97 forward single #
loop $-1 $98 $99 $39 #
cone-surface $-1 6.4669355106464366 -34.797741032728986 12.974062877749116 0 0.84804810408105047 -0.52991925155115449 2 0 0 1 I I 0 1 2 forward I I I I #
face $-1 $100 $101 $24 $-1 $102 reversed single #
loop $-1 $-1 $103 $40 #
plane-surface $-1 0 0 -18.898887297784029 0 0 1 1 0 0 forward_v I I I I #
coedge $-1 $104 $105 $106 $107 forward $41 $-1 #
face $-1 $108 $109 $25 $-1 $110 reversed single #
loop $-1 $-1 $111 $43 #
plane-surface $-1 -39.516767205776361 0 14.373524596677939 -1 0 0 0 0 1 forward_v I I I I #
coedge $-1 $112 $113 $114 $115 forward $44 $-1 #
face $-1 $116 $117 $26 $-1 $118 forward single #
loop $-1 $-1 $119 $46 #
plane-surface $-1 -28.741973627312575 83.808155435253468 144.29387790380014 -1 0 0 0 0.7660444514056185 0.64278759981090561 forward_v I I I I #
coedge $-1 $120 $121 $122 $123 reversed $47 $-1 #
face $-1 $-1 $124 $27 $-1 $125 forward single #
loop $-1 $126 $127 $49 #
cone-surface $-1 -36.438254754786705 30.283377180655954 9.1805201302836394 0 -0.7660444514056185 -0.64278759981090561 0.75 0 0 1 I I -0.70710678118654757 0.70710678118654757 0.75 forward I I I I #
loop $-1 $-1 $128 $35 #
coedge $-1 $80 $80 $129 $130 reversed $50 $-1 #
face $-1 $-1 $131 $28 $-1 $132 forward single #
loop $-1 $133 $134 $52 #
cone-surface $-1 -31.820486078302224 30.283377180655954 9.1805201302836394 0 -0.7660444514056185 -0.64278759981090561 0.75 0 0 1 I I -0.70710678118654757 0.70710678118654757 0.75 forward I I I I #
loop $-1 $-1 $135 $36 #
coedge $-1 $85 $85 $136 $137 reversed $53 $-1 #
face $-1 $138 $139 $29 $-1 $140 reversed single #
loop $-1 $-1 $141 $55 #
plane-surface $-1 1.7820299574625196 -39.29887230284173 8.6872059748992996 0 -0.84804810408105047 0.52991925155115449 1 0 0 forward_v I I I I #
coedge $-1 $142 $143 $144 $145 reversed $56 $-1 #
face $-1 $-1 $146 $30 $-1 $147 forward single #
loop $-1 $148 $149 $58 #
cone-surface $-1 -2.9028755957214045 -32.639044897434566 11.625159867605412 0 0.84804810408105047 -0.52991925155115449 1 0 0 1 I I -0.70710678118654746 0.70710678118654746 1 forward I I I I #
loop $-1 $-1 $150 $38 #
coedge $-1 $94 $94 $151 $152 reversed $59 $-1 #
face $-1 $-1 $153 $31 $-1 $154 forward single #
loop $-1 $155 $156 $61 #
cone-surface $-1 6.4669355106464366 -32.639044897434566 11.625159867605412 0 0.84804810408105047 -0.52991925155115449 1 0 0 1 I I -0.70710678118654746 0.70710678118654746 1 forward I I I I #
loop $-1 $-1 $157 $39 #
coedge $-1 $99 $99 $158 $159 reversed $62 $-1 #
face $-1 $160 $161 $24 $-1 $162 reversed single #
loop $-1 $-1 $163 $64 #
plane-surface $-1 0 -39.298872302841737 0 0 1 0 0 0 1 forward_v I I I I #
coedge $-1 $164 $165 $166 $167 forward $65 $-1 #
coedge $-1 $168 $67 $169 $170 forward $41 $-1 #
coedge $-1 $67 $168 $171 $172 forward $41 $-1 #
coedge $-1 $173 $174 $67 $107 reversed $175 $-1 #
edge $-1 $176 -39.298872302841737 $177 39.298872302841737 $106 $178 forward 7 unknown #
face $-1 $179 $180 $25 $-1 $181 reversed single #
loop $-1 $-1 $182 $68 #
plane-surface $-1 0 39.298872302841737 0 0 -1 0 0 0 -1 forward_v I I I I #
coedge $-1 $183 $184 $185 $186 reversed $69 $-1 #
coedge $-1 $187 $71 $188 $189 reversed $44 $-1 #
coedge $-1 $71 $187 $190 $191 reversed $44 $-1 #
coedge $-1 $184 $183 $71 $115 reversed $69 $-1 #
edge $-1 $192 -39.298872302841737 $193 39.298872302841737 $114 $194 forward 7 unknown #
face $-1 $195 $196 $26 $-1 $197 reversed single #
loop $-1 $-1 $122 $72 #
plane-surface $-1 0 0 18.898887297784029 0 0 1 1 0 0 forward_v I I I I #
coedge $-1 $198 $199 $200 $201 reversed $73 $-1 #
coedge $-1 $202 $75 $203 $204 reversed $47 $-1 #
coedge $-1 $75 $202 $198 $205 forward $47 $-1 #
coedge $-1 $200 $206 $75 $123 forward $117 $-1 #
edge $-1 $207 -22.452081997504127 $208 -11.677288419040341 $122 $209 forward 7 unknown #
loop $-1 $-1 $129 $76 #
plane-surface $-1 -34.129370416544468 -11.222783302796103 64.553454345972014 0 0.7660444514056185 0.64278759981090561 1 0 0 forward_v I I I I #
loop $-1 $-1 $210 $49 #
coedge $-1 $127 $127 $128 $211 reversed $77 $-1 #
coedge $-1 $128 $128 $127 $211 forward $79 $-1 #
coedge $-1 $129 $129 $80 $130 forward $124 $-1 #
edge $-1 $212 0 $212 6.2831853071796004 $129 $213 forward 7 unknown #
loop $-1 $-1 $136 $81 #
plane-surface $-1 -34.129370416544468 -11.222783302796103 64.553454345972014 0 0.7660444514056185 0.64278759981090561 1 0 0 forward_v I I I I #
loop $-1 $-1 $214 $52 #
coedge $-1 $134 $134 $135 $215 reversed $82 $-1 #
coedge $-1 $135 $135 $134 $215 forward $84 $-1 #
coedge $-1 $136 $136 $85 $137 forward $131 $-1 #
edge $-1 $216 0 $216 6.2831853071796004 $136 $217 forward 7 unknown #
face $-1 $218 $219 $29 $-1 $220 reversed single #
loop $-1 $-1 $221 $86 #
plane-surface $-1 -9.1494163332999676 -144.50269863167807 74.42585056382282 1 0 0 0 0.84804810408105047 -0.52991925155115449 forward_v I I I I #
coedge $-1 $222 $223 $224 $225 reversed $87 $-1 #
coedge $-1 $143 $89 $226 $227 reversed $56 $-1 #
coedge $-1 $89 $142 $222 $228 reversed $56 $-1 #
coedge $-1 $224 $229 $89 $145 forward $230 $-1 #
edge $-1 $231 32.952477012997299 $232 39.333443490796071 $144 $233 forward 7 unknown #
loop $-1 $-1 $151 $90 #
plane-surface $-1 1.7820299574625196 -39.29887230284173 8.6872059748992996 0 -0.84804810408105047 0.52991925155115449 1 0 0 forward_v I I I I #
loop $-1 $-1 $234 $58 #
coedge $-1 $149 $149 $150 $235 reversed $91 $-1 #
coedge $-1 $150 $150 $149 $235 forward $93 $-1 #
coedge $-1 $151 $151 $94 $152 forward $146 $-1 #
edge $-1 $236 -3.7621532382072072e-016 $236 6.2831853071796004 $151 $237 forward 7 unknown #
loop $-1 $-1 $158 $95 #
plane-surface $-1 1.7820299574625196 -39.29887230284173 8.6872059748992996 0 -0.84804810408105047 0.52991925155115449 1 0 0 forward_v I I I I #
loop $-1 $-1 $238 $61 #
coedge $-1 $156 $156 $157 $239 reversed $96 $-1 #
coedge $-1 $157 $157 $156 $239 forward $98 $-1 #
coedge $-1 $158 $158 $99 $159 forward $153 $-1 #
edge $-1 $240 -3.7621532382072072e-016 $240 6.2831853071796004 $158 $241 forward 7 unknown #
face $-1 $242 $243 $24 $-1 $244 reversed single #
loop $-1 $-1 $245 $100 #
plane-surface $-1 -62.027039399395733 0 0 1 0 0 0 0 -1 forward_v I I I I #
coedge $-1 $246 $171 $247 $248 forward $101 $-1 #
coedge $-1 $249 $103 $246 $250 forward $65 $-1 #
coedge $-1 $103 $249 $251 $252 forward $65 $-1 #
coedge $-1 $174 $173 $103 $167 reversed $175 $-1 #
edge $-1 $253 -39.298872302841737 $254 39.298872302841737 $166 $255 forward 7 unknown #
coedge $-1 $105 $104 $256 $257 forward $41 $-1 #
coedge $-1 $258 $259 $104 $170 reversed $243 $-1 #
edge $-1 $177 -62.027039399395733 $260 62.027039399395733 $169 $261 forward 7 unknown #
coedge $-1 $163 $262 $105 $172 reversed $101 $-1 #
edge $-1 $263 -62.027039399395733 $176 62.027039399395733 $171 $264 forward 7 unknown #
coedge $-1 $166 $106 $262 $265 forward $175 $-1 #
coedge $-1 $106 $166 $258 $266 reversed $175 $-1 #
loop $-1 $-1 $173 $242 #
vertex $-1 $107 $267 #
vertex $-1 $107 $268 #
straight-curve $-1 62.027039399395733 0 18.898887297784029 0 1 0 I I #
face $-1 $269 $270 $25 $-1 $271 forward single #
loop $-1 $-1 $272 $108 #
plane-surface $-1 -62.027039399395733 0 0 1 0 0 0 0 -1 forward_v I I I I #
coedge $-1 $190 $273 $184 $274 forward $109 $-1 #
coedge $-1 $114 $111 $275 $276 reversed $69 $-1 #
coedge $-1 $111 $114 $182 $274 reversed $69 $-1 #
coedge $-1 $277 $278 $111 $186 forward $270 $-1 #
edge $-1 $279 -39.298872302841737 $280 39.298872302841737 $185 $281 forward 7 unknown #
coedge $-1 $113 $112 $272 $282 reversed $44 $-1 #
coedge $-1 $275 $283 $112 $189 forward $284 $-1 #
edge $-1 $285 -36.641087748102706 $193 -14.130815554483338 $188 $286 forward 7 unknown #
coedge $-1 $287 $182 $113 $191 forward $109 $-1 #
edge $-1 $192 14.130815554483338 $288 36.641087748102706 $190 $289 forward 7 unknown #
vertex $-1 $191 $290 #
vertex $-1 $189 $291 #
straight-curve $-1 -39.516767205776361 0 9.8481618955718488 0 -1 0 I I #
face $-1 $-1 $292 $26 $-1 $293 forward single #
loop $-1 $-1 $294 $116 #
plane-surface $-1 0 39.298872302841737 0 0 -1 0 0 0 -1 forward_v I I I I #
coedge $-1 $199 $119 $121 $205 reversed $73 $-1 #
coedge $-1 $119 $198 $294 $295 reversed $73 $-1 #
coedge $-1 $296 $122 $119 $201 forward $117 $-1 #
edge $-1 $208 -14.818131651698401 $297 -2.6052054147849972 $200 $298 forward 7 unknown #
coedge $-1 $121 $120 $299 $300 reversed $47 $-1 #
coedge $-1 $301 $302 $120 $204 forward $292 $-1 #
edge $-1 $303 -55.770783256297165 $207 -36.770842621931791 $203 $304 forward 7 unknown #
edge $-1 $305 -78.597744605683502 $208 -59.597803971318136 $198 $306 forward 7 unknown #
coedge $-1 $122 $296 $301 $307 forward $117 $-1 #
vertex $-1 $204 $308 #
vertex $-1 $123 $309 #
straight-curve $-1 -17.064685208272234 27.085946065928333 18.898887297784029 1 0 0 I I #
coedge $-1 $210 $210 $-1 $310 reversed $126 $-1 #
edge $-1 $311 0 $311 6.2831853071796004 $127 $312 forward 7 unknown #
vertex $-1 $130 $313 #
ellipse-curve $-1 -36.438254754786705 33.192409184385042 11.62148774778816 0 0.7660444514056185 0.64278759981090561 1.5 0 0 1 I I #
coedge $-1 $214 $214 $-1 $314 reversed $133 $-1 #
edge $-1 $315 0 $315 6.2831853071796004 $134 $316 forward 7 unknown #
vertex $-1 $137 $317 #
ellipse-curve $-1 -31.820486078302224 33.192409184385042 11.62148774778816 0 0.7660444514056185 0.64278759981090561 1.5 0 0 1 I I #
face $-1 $-1 $230 $29 $-1 $318 forward single #
loop $-1 $-1 $319 $138 #
plane-surface $-1 0 -39.298872302841737 0 0 1 0 0 0 1 forward_v I I I I #
coedge $-1 $320 $321 $322 $323 reversed $139 $-1 #
coedge $-1 $324 $141 $143 $228 forward $87 $-1 #
coedge $-1 $141 $324 $320 $325 forward $87 $-1 #
coedge $-1 $322 $144 $141 $225 forward $230 $-1 #
edge $-1 $232 -11.822461269493747 $326 10.040431312031227 $224 $327 forward 7 unknown #
coedge $-1 $328 $329 $142 $227 forward $219 $-1 #
edge $-1 $330 -28.525719307012121 $231 -18.314037984127381 $226 $331 forward 7 unknown #
edge $-1 $232 -12.041393965440397 $330 1.2803919046239758e-014 $143 $332 forward 7 unknown #
coedge $-1 $144 $322 $328 $333 forward $230 $-1 #
loop $-1 $-1 $322 $218 #
vertex $-1 $227 $334 #
vertex $-1 $145 $335 #
straight-curve $-1 12.713476248225007 -72.251349315839036 18.898887297784029 0 1 0 I I #
coedge $-1 $234 $234 $-1 $336 reversed $148 $-1 #
edge $-1 $337 0 $337 6.2831853071796004 $149 $338 forward 7 unknown #
vertex $-1 $152 $339 #
ellipse-curve $-1 -2.9028755957214045 -36.108389063942347 13.793046636341661 0 -0.84804810408105047 0.52991925155115449 2 0 0 1 I I #
coedge $-1 $238 $238 $-1 $340 reversed $155 $-1 #
edge $-1 $341 0 $341 6.2831853071796004 $156 $342 forward 7 unknown #
vertex $-1 $159 $343 #
ellipse-curve $-1 6.4669355106464366 -36.108389063942347 13.793046636341661 0 -0.84804810408105047 0.52991925155115449 2 0 0 1 I I #
face $-1 $-1 $175 $24 $-1 $344 reversed single #
loop $-1 $-1 $258 $160 #
plane-surface $-1 0 39.298872302841737 0 0 -1 0 0 0 -1 forward_v I I I I #
coedge $-1 $345 $256 $259 $346 forward $161 $-1 #
coedge $-1 $262 $163 $164 $250 reversed $101 $-1 #
coedge $-1 $256 $345 $163 $248 reversed $161 $-1 #
edge $-1 $263 -18.898887297784029 $347 18.898887297784029 $247 $348 forward 7 unknown #
coedge $-1 $165 $164 $345 $349 forward $65 $-1 #
edge $-1 $254 -62.027039399395733 $347 62.027039399395733 $246 $350 forward 7 unknown #
coedge $-1 $259 $258 $165 $252 reversed $243 $-1 #
edge $-1 $351 -62.027039399395733 $253 62.027039399395733 $251 $352 forward 7 unknown #
vertex $-1 $167 $353 #
vertex $-1 $265 $354 #
straight-curve $-1 62.027039399395733 0 -18.898887297784029 0 -1 0 I I #
coedge $-1 $245 $247 $168 $257 reversed $161 $-1 #
edge $-1 $260 -39.298872302841737 $263 39.298872302841737 $256 $355 forward 7 unknown #
coedge $-1 $251 $169 $174 $266 forward $243 $-1 #
coedge $-1 $169 $251 $245 $346 reversed $243 $-1 #
vertex $-1 $170 $356 #
straight-curve $-1 0 39.298872302841737 18.898887297784029 -1 0 0 I I #
coedge $-1 $171 $246 $173 $265 reversed $101 $-1 #
vertex $-1 $257 $357 #
straight-curve $-1 0 -39.298872302841737 18.898887297784029 1 0 0 I I #
edge $-1 $176 -18.898887297784029 $254 18.898887297784029 $173 $358 forward 7 unknown #
edge $-1 $177 -18.898887297784029 $253 18.898887297784029 $174 $359 forward 7 unknown #
point $-1 62.027039399395733 -39.298872302841737 18.898887297784029 #
point $-1 62.027039399395733 39.298872302841737 18.898887297784029 #
face $-1 $-1 $284 $25 $-1 $360 reversed single #
loop $-1 $-1 $185 $179 #
plane-surface $-1 0 0 18.898887297784029 0 0 1 1 0 0 forward_v I I I I #
coedge $-1 $361 $362 $187 $282 forward $180 $-1 #
coedge $-1 $182 $287 $277 $363 reversed $109 $-1 #
edge $-1 $280 -11.712124999445059 $192 -2.6613995972328794 $182 $364 forward 7 unknown #
coedge $-1 $365 $188 $183 $276 forward $284 $-1 #
edge $-1 $193 2.6613995972328794 $279 11.712124999445059 $275 $366 forward 7 unknown #
coedge $-1 $367 $185 $273 $363 forward $270 $-1 #
coedge $-1 $185 $367 $365 $368 forward $270 $-1 #
vertex $-1 $276 $369 #
vertex $-1 $363 $370 #
straight-curve $-1 -39.516767205776361 0 18.898887297784029 0 1 0 I I #
edge $-1 $288 -39.298872302841737 $285 39.298872302841737 $272 $371 forward 7 unknown #
coedge $-1 $188 $365 $361 $372 forward $284 $-1 #
loop $-1 $-1 $275 $269 #
vertex $-1 $282 $373 #
straight-curve $-1 -25.385951651293023 -39.298872302841737 9.8481618955718488 1 0 0 I I #
coedge $-1 $273 $190 $362 $374 reversed $109 $-1 #
vertex $-1 $282 $375 #
straight-curve $-1 -25.385951651293023 39.298872302841737 9.8481618955718488 -1 0 0 I I #
point $-1 -39.516767205776361 39.298872302841737 9.8481618955718488 #
point $-1 -39.516767205776361 -39.298872302841737 9.8481618955718488 #
loop $-1 $-1 $203 $195 #
plane-surface $-1 -39.516767205776361 0 14.373524596677939 -1 0 0 0 0 1 forward_v I I I I #
coedge $-1 $299 $376 $199 $295 forward $196 $-1 #
edge $-1 $297 53.24805165411604 $305 67.802850754107766 $294 $377 forward 7 unknown #
coedge $-1 $206 $200 $376 $378 forward $117 $-1 #
vertex $-1 $378 $379 #
straight-curve $-1 -28.741973627312575 41.904077717626734 18.898887297784029 0 1 0 I I #
coedge $-1 $380 $294 $202 $300 forward $196 $-1 #
edge $-1 $305 11.677288419040341 $303 22.452081997504127 $299 $381 forward 7 unknown #
coedge $-1 $302 $203 $206 $307 reversed $292 $-1 #
coedge $-1 $203 $301 $380 $382 reversed $292 $-1 #
vertex $-1 $382 $383 #
straight-curve $-1 -39.516767205776361 3.4501043939522518 47.066987261824103 0 -0.64278759981090572 0.76604445140561861 I I #
vertex $-1 $300 $384 #
straight-curve $-1 -28.741973627312575 -11.222783302796103 64.553454345972014 0 -0.64278759981090561 0.7660444514056185 I I #
edge $-1 $385 -39.298872302841737 $207 -27.085946065928333 $206 $386 forward 7 unknown #
point $-1 -39.516767205776361 27.085946065928333 18.898887297784029 #
point $-1 -28.741973627312575 27.085946065928333 18.898887297784029 #
edge $-1 $387 1 $387 0 $210 $-1 forward 7 unknown #
vertex $-1 $211 $388 #
ellipse-curve $-1 -36.438254754786705 30.857910519210169 9.6626108301418192 0 0.7660444514056185 0.64278759981090561 1.5 0 0 1 I I #
point $-1 -34.938254754786705 33.192409184385042 11.62148774778816 #
edge $-1 $389 1 $389 0 $214 $-1 forward 7 unknown #
vertex $-1 $215 $390 #
ellipse-curve $-1 -31.820486078302224 30.857910519210169 9.6626108301418192 0 0.7660444514056185 0.64278759981090561 1.5 0 0 1 I I #
point $-1 -30.320486078302224 33.192409184385042 11.62148774778816 #
plane-surface $-1 0 0 18.898887297784029 0 0 1 1 0 0 forward_v I I I I #
coedge $-1 $329 $328 $321 $391 forward $219 $-1 #
coedge $-1 $321 $221 $223 $325 reversed $139 $-1 #
coedge $-1 $221 $320 $319 $391 reversed $139 $-1 #
coedge $-1 $229 $224 $221 $323 forward $230 $-1 #
edge $-1 $326 -39.333443490796071 $392 -32.952477012997299 $322 $393 forward 7 unknown #
coedge $-1 $223 $222 $329 $394 reversed $87 $-1 #
edge $-1 $395 -1.2803919046239758e-014 $326 12.041393965440397 $320 $396 forward 7 unknown #
vertex $-1 $225 $397 #
straight-curve $-1 0.89101497873125979 -32.917905825042965 18.898887297784029 -1 0 0 I I #
coedge $-1 $319 $226 $229 $333 reversed $219 $-1 #
coedge $-1 $226 $319 $324 $394 forward $219 $-1 #
vertex $-1 $227 $398 #
straight-curve $-1 12.713476248225007 -39.298872302841737 37.21292528191141 0 0 1 I I #
straight-curve $-1 12.713476248225007 -39.29887230284173 8.6872059748992996 0 -0.52991925155115449 -0.84804810408105047 I I #
edge $-1 $392 -9.1494163332999676 $231 12.713476248225007 $328 $399 forward 7 unknown #
point $-1 12.713476248225007 -39.298872302841737 18.898887297784029 #
point $-1 12.713476248225007 -32.917905825042965 18.898887297784029 #
edge $-1 $400 1 $400 0 $234 $-1 forward 7 unknown #
vertex $-1 $235 $401 #
ellipse-curve $-1 -2.9028755957214045 -33.487093001515618 12.155079119156566 0 -0.84804810408105047 0.52991925155115449 2 0 0 1 I I #
point $-1 -0.90287559572140452 -36.108389063942354 13.793046636341664 #
edge $-1 $402 1 $402 0 $238 $-1 forward 7 unknown #
vertex $-1 $239 $403 #
ellipse-curve $-1 6.4669355106464366 -33.487093001515618 12.155079119156566 0 -0.84804810408105047 0.52991925155115449 2 0 0 1 I I #
point $-1 8.4669355106464366 -36.108389063942354 13.793046636341664 #
plane-surface $-1 62.027039399395733 0 0 -1 0 0 0 0 1 forward_v I I I I #
coedge $-1 $247 $245 $249 $349 reversed $161 $-1 #
edge $-1 $260 -18.898887297784029 $351 18.898887297784029 $259 $404 forward 7 unknown #
vertex $-1 $349 $405 #
straight-curve $-1 -62.027039399395733 -39.298872302841737 0 0 0 -1 I I #
edge $-1 $347 -39.298872302841737 $351 39.298872302841737 $345 $406 forward 7 unknown #
straight-curve $-1 0 -39.298872302841737 -18.898887297784029 -1 0 0 I I #
vertex $-1 $252 $407 #
straight-curve $-1 0 39.298872302841737 -18.898887297784029 1 0 0 I I #
point $-1 62.027039399395733 39.298872302841737 -18.898887297784029 #
point $-1 62.027039399395733 -39.298872302841737 -18.898887297784029 #
straight-curve $-1 -62.027039399395733 0 18.898887297784029 0 -1 0 I I #
point $-1 -62.027039399395733 39.298872302841737 18.898887297784029 #
point $-1 -62.027039399395733 -39.298872302841737 18.898887297784029 #
straight-curve $-1 62.027039399395733 -39.298872302841737 0 0 0 -1 I I #
straight-curve $-1 62.027039399395733 39.298872302841737 0 0 0 -1 I I #
plane-surface $-1 0 -39.298872302841737 0 0 1 0 0 0 1 forward_v I I I I #
coedge $-1 $408 $272 $283 $372 reversed $180 $-1 #
coedge $-1 $272 $408 $287 $374 forward $180 $-1 #
edge $-1 $280 39.516767205776361 $409 62.027039399395733 $273 $410 forward 7 unknown #
straight-curve $-1 -39.516767205776361 39.298872302841737 7.1867622983389694 0 0 -1 I I #
coedge $-1 $283 $275 $278 $368 reversed $284 $-1 #
straight-curve $-1 -39.516767205776361 -39.298872302841737 7.1867622983389694 0 0 1 I I #
coedge $-1 $278 $277 $408 $411 forward $270 $-1 #
edge $-1 $412 -62.027039399395733 $279 -39.516767205776361 $365 $413 forward 7 unknown #
point $-1 -39.516767205776361 -39.298872302841737 18.898887297784029 #
point $-1 -39.516767205776361 39.298872302841737 18.898887297784029 #
straight-curve $-1 -62.027039399395733 0 9.8481618955718488 0 -1 0 I I #
edge $-1 $412 -18.898887297784029 $285 -9.8481618955718488 $361 $414 forward 7 unknown #
point $-1 -62.027039399395733 -39.298872302841737 9.8481618955718488 #
edge $-1 $409 -18.898887297784029 $288 -9.8481618955718488 $287 $415 forward 7 unknown #
point $-1 -62.027039399395733 39.298872302841737 9.8481618955718488 #
coedge $-1 $294 $380 $296 $378 reversed $196 $-1 #
straight-curve $-1 -28.741973627312575 39.298872302841737 72.146938951900069 0 0 -1 I I #
edge $-1 $297 28.741973627312575 $385 39.516767205776361 $376 $416 forward 7 unknown #
point $-1 -28.741973627312575 39.298872302841737 18.898887297784029 #
coedge $-1 $376 $299 $302 $382 forward $196 $-1 #
straight-curve $-1 -17.064685208272234 39.29887230284173 4.3440881977922956 -1 0 0 I I #
edge $-1 $303 -67.802850754107766 $385 -53.24805165411604 $380 $417 forward 7 unknown #
point $-1 -39.516767205776361 39.298872302841737 4.3440881977922956 #
point $-1 -28.741973627312575 39.298872302841737 4.3440881977922956 #
vertex $-1 $307 $418 #
straight-curve $-1 -39.516767205776361 0 18.898887297784029 0 -1 0 I I #
vertex $-1 $310 $419 #
point $-1 -34.938254754786705 30.857910519210169 9.6626108301418192 #
vertex $-1 $314 $420 #
point $-1 -30.320486078302224 30.857910519210169 9.6626108301418192 #
edge $-1 $392 18.314037984127381 $395 28.525719307012121 $319 $421 forward 7 unknown #
vertex $-1 $333 $422 #
straight-curve $-1 -9.1494163332999676 -72.251349315839036 18.898887297784029 0 -1 0 I I #
edge $-1 $395 -10.040431312031227 $330 11.822461269493747 $329 $423 forward 7 unknown #
vertex $-1 $394 $424 #
straight-curve $-1 -9.1494163332999676 -39.29887230284173 8.6872059748992996 0 0.52991925155115449 0.84804810408105047 I I #
point $-1 -9.1494163332999676 -32.917905825042965 18.898887297784029 #
point $-1 12.713476248225007 -39.298872302841737 8.6872059748992889 #
straight-curve $-1 0 -39.298872302841737 18.898887297784029 1 0 0 I I #
vertex $-1 $336 $425 #
point $-1 -0.90287559572140452 -33.487093001515618 12.155079119156566 #
vertex $-1 $340 $426 #
point $-1 8.4669355106464366 -33.487093001515618 12.155079119156566 #
straight-curve $-1 -62.027039399395733 39.298872302841737 0 0 0 -1 I I #
point $-1 -62.027039399395733 -39.298872302841737 -18.898887297784029 #
straight-curve $-1 -62.027039399395733 0 -18.898887297784029 0 1 0 I I #
point $-1 -62.027039399395733 39.298872302841737 -18.898887297784029 #
coedge $-1 $362 $361 $367 $411 reversed $180 $-1 #
vertex $-1 $363 $427 #
straight-curve $-1 0 39.298872302841737 18.898887297784029 -1 0 0 I I #
edge $-1 $409 -39.298872302841737 $412 39.298872302841737 $408 $428 forward 7 unknown #
vertex $-1 $411 $429 #
straight-curve $-1 0 -39.298872302841737 18.898887297784029 1 0 0 I I #
straight-curve $-1 -62.027039399395733 -39.298872302841737 0 0 0 -1 I I #
straight-curve $-1 -62.027039399395733 39.298872302841737 0 0 0 -1 I I #
straight-curve $-1 0 39.298872302841737 18.898887297784029 -1 0 0 I I #
straight-curve $-1 -39.516767205776361 39.298872302841737 72.146938951900069 0 0 1 I I #
point $-1 -39.516767205776361 39.298872302841737 18.898887297784029 #
point $-1 -36.438254754786705 29.708843842101739 8.6984294304254597 #
point $-1 -31.820486078302224 29.708843842101739 8.6984294304254597 #
straight-curve $-1 -9.1494163332999676 -39.298872302841737 37.21292528191141 0 0 -1 I I #
point $-1 -9.1494163332999676 -39.298872302841737 18.898887297784029 #
straight-curve $-1 0.89101497873125979 -39.298872302841737 8.6872059748992783 1 0 0 I I #
point $-1 -9.1494163332999676 -39.298872302841737 8.6872059748992889 #
point $-1 -2.9028755957214045 -31.790996793353514 11.095240616054257 #
point $-1 6.4669355106464366 -31.790996793353514 11.095240616054257 #
point $-1 -62.027039399395733 39.298872302841737 18.898887297784029 #
straight-curve $-1 -62.027039399395733 0 18.898887297784029 0 -1 0 I I #
point $-1 -62.027039399395733 -39.298872302841737 18.898887297784029 #
End-of-ACIS-data 