500 0 9 0           
7 Unknown 11 ACIS 5.0 NT 24 Thu Mar 25 22:17:17 1999 
-1 9.9999999999999995e-007 1e-010 
body $-1 $9 $-1 $10 #
body $-1 $11 $-1 $12 #
body $-1 $13 $-1 $14 #
body $-1 $15 $-1 $16 #
body $-1 $17 $-1 $18 #
body $-1 $19 $-1 $20 #
body $-1 $21 $-1 $22 #
body $-1 $23 $-1 $24 #
body $-1 $25 $-1 $26 #
lump $-1 $-1 $27 $0 #
transform $-1 1 0 0 0 1 0 0 0 1 65.941953794976655 35.758220343822835 14.424530188379038 1 rotate no_reflect no_shear #
lump $-1 $-1 $28 $1 #
transform $-1 1 0 0 0 1 0 0 0 1 65.941953794976655 35.758220343822835 14.424530188379038 1 rotate no_reflect no_shear #
lump $-1 $-1 $29 $2 #
transform $-1 1 0 0 0 1 0 0 0 1 65.941953794976655 35.758220343822835 14.424530188379038 1 rotate no_reflect no_shear #
lump $-1 $-1 $30 $3 #
transform $-1 1 0 0 0 1 0 0 0 1 65.941953794976655 35.758220343822835 14.424530188379038 1 rotate no_reflect no_shear #
lump $-1 $-1 $31 $4 #
transform $-1 1 0 0 0 1 0 0 0 1 65.941953794976655 35.758220343822835 14.424530188379038 1 rotate no_reflect no_shear #
lump $-1 $-1 $32 $5 #
transform $-1 1 0 0 0 1 0 0 0 1 65.941953794976655 35.758220343822835 14.424530188379038 1 rotate no_reflect no_shear #
lump $-1 $-1 $33 $6 #
transform $-1 1 0 0 0 1 0 0 0 1 65.941953794976655 35.758220343822835 14.424530188379038 1 rotate no_reflect no_shear #
lump $-1 $-1 $34 $7 #
transform $-1 1 0 0 0 1 0 0 0 1 65.941953794976655 35.758220343822835 14.424530188379038 1 rotate no_reflect no_shear #
lump $-1 $-1 $35 $8 #
transform $-1 1 0 0 0 1 0 0 0 1 65.941953794976655 35.758220343822835 14.424530188379038 1 rotate no_reflect no_shear #
shell $-1 $-1 $-1 $36 $-1 $9 #
shell $-1 $-1 $-1 $37 $-1 $11 #
shell $-1 $-1 $-1 $38 $-1 $13 #
shell $-1 $-1 $-1 $39 $-1 $15 #
shell $-1 $-1 $-1 $40 $-1 $17 #
shell $-1 $-1 $-1 $41 $-1 $19 #
shell $-1 $-1 $-1 $42 $-1 $21 #
shell $-1 $-1 $-1 $43 $-1 $23 #
shell $-1 $-1 $-1 $44 $-1 $25 #
face $-1 $45 $46 $27 $-1 $47 reversed single #
face $-1 $48 $49 $28 $-1 $50 forward single #
face $-1 $51 $52 $29 $-1 $53 forward single #
face $-1 $54 $55 $30 $-1 $56 reversed single #
face $-1 $57 $58 $31 $-1 $59 forward single #
face $-1 $60 $61 $32 $-1 $62 forward single #
face $-1 $63 $64 $33 $-1 $65 reversed single #
face $-1 $66 $67 $34 $-1 $68 forward single #
face $-1 $69 $70 $35 $-1 $71 forward single #
face $-1 $72 $73 $27 $-1 $74 forward single #
loop $-1 $-1 $75 $36 #
plane-surface $-1 65.941953794976655 0 0 -1 0 0 0 0 1 forward_v I I I I #
face $-1 $76 $77 $28 $-1 $78 reversed single #
loop $-1 $-1 $79 $37 #
plane-surface $-1 -58.441902441277541 0 6.4219306747525398 0 0 1 1 0 0 forward_v I I I I #
face $-1 $80 $81 $29 $-1 $82 reversed single #
loop $-1 $-1 $83 $38 #
plane-surface $-1 65.941953794976655 0 0 -1 0 0 0 0 1 forward_v I I I I #
face $-1 $84 $85 $30 $-1 $86 reversed single #
loop $-1 $-1 $87 $39 #
plane-surface $-1 -50.941851087578421 -129.01422681206643 101.64161713301048 1 0 0 0 0.70710678939079041 -0.70710677298230451 forward_v I I I I #
face $-1 $88 $89 $31 $-1 $90 forward single #
loop $-1 $91 $92 $40 #
cone-surface $-1 -46.591180408669842 -31.143752211783667 9.8100620232853775 0 0.70710678939079041 -0.70710677298230451 2 0 0 1 I I 0 1 2 forward I I I I #
face $-1 $93 $94 $32 $-1 $95 forward single #
loop $-1 $96 $97 $41 #
cone-surface $-1 -40.065174390306979 -31.143752211783667 9.8100620232853775 0 0.70710678939079041 -0.70710677298230451 2 0 0 1 I I 0 1 2 forward I I I I #
face $-1 $98 $99 $33 $-1 $100 reversed single #
loop $-1 $-1 $101 $42 #
plane-surface $-1 -1.3784765494547697 -129.01422681206643 101.64161713301048 1 0 0 0 0.70710678939079041 -0.70710677298230451 forward_v I I I I #
face $-1 $102 $103 $34 $-1 $104 forward single #
loop $-1 $105 $106 $43 #
cone-surface $-1 2.9721941294538112 -31.143752211783667 9.8100620232853775 0 0.70710678939079041 -0.70710677298230451 2 0 0 1 I I 0 1 2 forward I I I I #
face $-1 $107 $108 $35 $-1 $109 forward single #
loop $-1 $110 $111 $44 #
cone-surface $-1 9.4982001478166751 -31.143752211783667 9.8100620232853775 0 0.70710678939079041 -0.70710677298230451 2 0 0 1 I I 0 1 2 forward I I I I #
face $-1 $112 $113 $27 $-1 $114 reversed single #
loop $-1 $-1 $115 $45 #
plane-surface $-1 0 0 14.424530188379038 0 0 1 1 0 0 forward_v I I I I #
coedge $-1 $116 $117 $118 $119 reversed $46 $-1 #
face $-1 $120 $121 $28 $-1 $122 reversed single #
loop $-1 $-1 $123 $48 #
plane-surface $-1 -58.441902441277541 0 1.8638548522324978 0 0 1 1 0 0 forward_v I I I I #
coedge $-1 $124 $125 $126 $127 forward $49 $-1 #
face $-1 $128 $129 $29 $-1 $130 forward single #
loop $-1 $-1 $131 $51 #
plane-surface $-1 0 35.758220343822835 0 0 -1 0 0 0 -1 forward_v I I I I #
coedge $-1 $132 $133 $134 $135 forward $52 $-1 #
face $-1 $136 $137 $30 $-1 $138 reversed single #
loop $-1 $-1 $139 $54 #
plane-surface $-1 -43.328177399488411 -35.758220343822842 8.3856128287821434 0 -0.70710678939079041 0.70710677298230451 1 0 0 forward_v I I I I #
coedge $-1 $140 $141 $142 $143 reversed $55 $-1 #
face $-1 $-1 $144 $31 $-1 $145 forward single #
loop $-1 $146 $147 $57 #
cone-surface $-1 -46.591180408669842 -28.841635900085308 7.5079457650078645 0 0.70710678939079041 -0.70710677298230451 1 0 0 1 I I -0.70710678118654746 0.70710678118654746 1 forward I I I I #
loop $-1 $-1 $148 $40 #
coedge $-1 $92 $92 $149 $150 reversed $58 $-1 #
face $-1 $-1 $151 $32 $-1 $152 forward single #
loop $-1 $153 $154 $60 #
cone-surface $-1 -40.065174390306979 -28.841635900085308 7.5079457650078645 0 0.70710678939079041 -0.70710677298230451 1 0 0 1 I I -0.70710678118654746 0.70710678118654746 1 forward I I I I #
loop $-1 $-1 $155 $41 #
coedge $-1 $97 $97 $156 $157 reversed $61 $-1 #
face $-1 $158 $159 $33 $-1 $160 reversed single #
loop $-1 $-1 $161 $63 #
plane-surface $-1 6.2351971386352432 -35.758220343822842 8.3856128287821434 0 -0.70710678939079041 0.70710677298230451 1 0 0 forward_v I I I I #
coedge $-1 $162 $163 $164 $165 reversed $64 $-1 #
face $-1 $-1 $166 $34 $-1 $167 forward single #
loop $-1 $168 $169 $66 #
cone-surface $-1 2.9721941294538112 -28.841635900085308 7.5079457650078645 0 0.70710678939079041 -0.70710677298230451 1 0 0 1 I I -0.70710678118654746 0.70710678118654746 1 forward I I I I #
loop $-1 $-1 $170 $43 #
coedge $-1 $106 $106 $171 $172 reversed $67 $-1 #
face $-1 $-1 $173 $35 $-1 $174 forward single #
loop $-1 $175 $176 $69 #
cone-surface $-1 9.4982001478166751 -28.841635900085308 7.5079457650078645 0 0.70710678939079041 -0.70710677298230451 1 0 0 1 I I -0.70710678118654746 0.70710678118654746 1 forward I I I I #
loop $-1 $-1 $177 $44 #
coedge $-1 $111 $111 $178 $179 reversed $70 $-1 #
face $-1 $180 $181 $27 $-1 $182 reversed single #
loop $-1 $-1 $183 $72 #
plane-surface $-1 0 0 -14.424530188379038 0 0 1 1 0 0 forward_v I I I I #
coedge $-1 $184 $185 $116 $186 forward $73 $-1 #
coedge $-1 $187 $75 $115 $186 reversed $46 $-1 #
coedge $-1 $75 $187 $183 $188 reversed $46 $-1 #
coedge $-1 $189 $190 $75 $119 forward $191 $-1 #
edge $-1 $192 -14.424530188379038 $193 14.424530188379038 $75 $194 forward 7 unknown #
face $-1 $195 $196 $28 $-1 $197 reversed single #
loop $-1 $-1 $198 $76 #
plane-surface $-1 -50.941851087578428 0 4.1428927634925188 -1 0 0 0 0 1 forward_v I I I I #
coedge $-1 $199 $200 $201 $202 forward $77 $-1 #
coedge $-1 $203 $79 $204 $205 reversed $49 $-1 #
coedge $-1 $79 $203 $206 $207 reversed $49 $-1 #
coedge $-1 $198 $208 $79 $127 reversed $121 $-1 #
edge $-1 $209 -35.758220343822835 $210 35.758220343822835 $126 $211 forward 7 unknown #
face $-1 $212 $213 $29 $-1 $214 reversed single #
loop $-1 $-1 $215 $80 #
plane-surface $-1 74.82048169813055 0 13.419654961406559 0 0 1 1 0 0 forward_v I I I I #
coedge $-1 $216 $217 $133 $218 forward $81 $-1 #
coedge $-1 $219 $83 $220 $221 reversed $52 $-1 #
coedge $-1 $83 $219 $131 $218 reversed $52 $-1 #
coedge $-1 $222 $223 $83 $135 reversed $213 $-1 #
edge $-1 $224 -35.758220343822835 $225 35.758220343822835 $134 $226 forward 7 unknown #
face $-1 $227 $228 $30 $-1 $229 forward single #
loop $-1 $-1 $230 $84 #
plane-surface $-1 -35.7145037113984 -129.01422681206643 101.64161713301048 -1 0 0 0 -0.70710678939079041 0.70710677298230451 forward_v I I I I #
coedge $-1 $231 $232 $233 $234 reversed $85 $-1 #
coedge $-1 $141 $87 $235 $236 reversed $55 $-1 #
coedge $-1 $87 $140 $231 $237 reversed $55 $-1 #
coedge $-1 $233 $238 $87 $143 forward $239 $-1 #
edge $-1 $240 36.396278378126205 $241 42.435195737723092 $142 $242 forward 7 unknown #
loop $-1 $-1 $149 $88 #
plane-surface $-1 -43.328177399488411 -35.758220343822842 8.3856128287821434 0 -0.70710678939079041 0.70710677298230451 1 0 0 forward_v I I I I #
loop $-1 $-1 $243 $57 #
coedge $-1 $147 $147 $148 $244 reversed $89 $-1 #
coedge $-1 $148 $148 $147 $244 forward $91 $-1 #
coedge $-1 $149 $149 $92 $150 forward $144 $-1 #
edge $-1 $245 -5.8294651990167239e-023 $245 6.2831853071796004 $149 $246 forward 7 unknown #
loop $-1 $-1 $156 $93 #
plane-surface $-1 -43.328177399488411 -35.758220343822842 8.3856128287821434 0 -0.70710678939079041 0.70710677298230451 1 0 0 forward_v I I I I #
loop $-1 $-1 $247 $60 #
coedge $-1 $154 $154 $155 $248 reversed $94 $-1 #
coedge $-1 $155 $155 $154 $248 forward $96 $-1 #
coedge $-1 $156 $156 $97 $157 forward $151 $-1 #
edge $-1 $249 -5.8294651990167239e-023 $249 6.2831853071796004 $156 $250 forward 7 unknown #
face $-1 $251 $252 $33 $-1 $253 reversed single #
loop $-1 $-1 $254 $98 #
plane-surface $-1 13.848870826725257 -129.01422681206643 101.64161713301048 -1 0 0 0 -0.70710678939079041 0.70710677298230451 forward_v I I I I #
coedge $-1 $255 $256 $257 $258 reversed $99 $-1 #
coedge $-1 $163 $101 $259 $260 reversed $64 $-1 #
coedge $-1 $101 $162 $255 $261 reversed $64 $-1 #
coedge $-1 $257 $262 $101 $165 forward $252 $-1 #
edge $-1 $263 36.396278378126205 $264 42.435195737723092 $164 $265 forward 7 unknown #
loop $-1 $-1 $171 $102 #
plane-surface $-1 6.2351971386352432 -35.758220343822842 8.3856128287821434 0 -0.70710678939079041 0.70710677298230451 1 0 0 forward_v I I I I #
loop $-1 $-1 $266 $66 #
coedge $-1 $169 $169 $170 $267 reversed $103 $-1 #
coedge $-1 $170 $170 $169 $267 forward $105 $-1 #
coedge $-1 $171 $171 $106 $172 forward $166 $-1 #
edge $-1 $268 -5.8294651990167239e-023 $268 6.2831853071796004 $171 $269 forward 7 unknown #
loop $-1 $-1 $178 $107 #
plane-surface $-1 6.2351971386352432 -35.758220343822842 8.3856128287821434 0 -0.70710678939079041 0.70710677298230451 1 0 0 forward_v I I I I #
loop $-1 $-1 $270 $69 #
coedge $-1 $176 $176 $177 $271 reversed $108 $-1 #
coedge $-1 $177 $177 $176 $271 forward $110 $-1 #
coedge $-1 $178 $178 $111 $179 forward $173 $-1 #
edge $-1 $272 -5.8294651990167239e-023 $272 6.2831853071796004 $178 $273 forward 7 unknown #
face $-1 $274 $275 $27 $-1 $276 reversed single #
loop $-1 $-1 $277 $112 #
plane-surface $-1 0 -35.758220343822835 0 0 1 0 0 0 1 forward_v I I I I #
coedge $-1 $278 $279 $117 $188 forward $113 $-1 #
coedge $-1 $280 $115 $190 $281 forward $73 $-1 #
coedge $-1 $115 $280 $282 $283 forward $73 $-1 #
edge $-1 $284 -35.758220343822835 $192 35.758220343822835 $116 $285 forward 7 unknown #
coedge $-1 $117 $116 $286 $287 forward $46 $-1 #
edge $-1 $193 -35.758220343822835 $288 35.758220343822835 $117 $289 forward 7 unknown #
coedge $-1 $290 $118 $279 $291 reversed $191 $-1 #
coedge $-1 $118 $290 $184 $281 reversed $191 $-1 #
loop $-1 $-1 $118 $274 #
vertex $-1 $186 $292 #
vertex $-1 $188 $293 #
straight-curve $-1 65.941953794976655 35.758220343822835 0 0 0 -1 I I #
face $-1 $294 $295 $28 $-1 $296 reversed single #
loop $-1 $-1 $297 $120 #
plane-surface $-1 0 -35.758220343822835 0 0 1 0 0 0 1 forward_v I I I I #
coedge $-1 $201 $126 $298 $299 reversed $121 $-1 #
coedge $-1 $300 $123 $297 $301 reversed $77 $-1 #
coedge $-1 $123 $300 $302 $303 reversed $77 $-1 #
coedge $-1 $208 $198 $123 $202 reversed $121 $-1 #
edge $-1 $304 -35.758220343822835 $305 35.758220343822835 $201 $306 forward 7 unknown #
coedge $-1 $125 $124 $307 $308 reversed $49 $-1 #
coedge $-1 $309 $310 $124 $205 forward $311 $-1 #
edge $-1 $312 -36.721002574337888 $210 -21.720899866939657 $204 $313 forward 7 unknown #
coedge $-1 $314 $298 $125 $207 forward $196 $-1 #
edge $-1 $209 21.720899866939657 $315 36.721002574337888 $206 $316 forward 7 unknown #
coedge $-1 $126 $201 $309 $317 reversed $121 $-1 #
vertex $-1 $207 $318 #
vertex $-1 $205 $319 #
straight-curve $-1 -50.941851087578428 0 6.4219306747525398 0 1 0 I I #
face $-1 $320 $321 $29 $-1 $322 reversed single #
loop $-1 $-1 $323 $128 #
plane-surface $-1 74.82048169813055 0 7.5802008475466405 0 0 1 1 0 0 forward_v I I I I #
coedge $-1 $324 $325 $326 $327 forward $129 $-1 #
coedge $-1 $328 $131 $324 $329 reversed $81 $-1 #
coedge $-1 $131 $328 $222 $330 reversed $81 $-1 #
edge $-1 $224 7.5802008475466405 $331 13.419654961406559 $131 $332 forward 7 unknown #
coedge $-1 $133 $132 $333 $334 forward $52 $-1 #
coedge $-1 $335 $336 $132 $221 forward $337 $-1 #
edge $-1 $338 -13.419654961406559 $225 -7.5802008475466405 $220 $339 forward 7 unknown #
coedge $-1 $323 $134 $217 $330 forward $213 $-1 #
coedge $-1 $134 $323 $335 $340 forward $213 $-1 #
vertex $-1 $218 $341 #
vertex $-1 $221 $342 #
straight-curve $-1 65.941953794976655 0 7.5802008475466405 0 -1 0 I I #
face $-1 $-1 $239 $30 $-1 $343 reversed single #
loop $-1 $-1 $344 $136 #
plane-surface $-1 0 0 14.424530188379038 0 0 1 1 0 0 forward_v I I I I #
coedge $-1 $345 $346 $347 $348 reversed $137 $-1 #
coedge $-1 $349 $139 $141 $237 forward $85 $-1 #
coedge $-1 $139 $349 $345 $350 forward $85 $-1 #
coedge $-1 $347 $142 $139 $234 forward $239 $-1 #
edge $-1 $241 -29.277762387834215 $351 -14.050415011654195 $233 $352 forward 7 unknown #
coedge $-1 $353 $354 $140 $236 forward $228 $-1 #
edge $-1 $355 -34.787810281673565 $240 -28.748893062210378 $235 $356 forward 7 unknown #
edge $-1 $241 1.0048591735576163e-014 $355 8.5403187329027634 $141 $357 forward 7 unknown #
coedge $-1 $142 $347 $353 $358 reversed $239 $-1 #
loop $-1 $-1 $347 $227 #
vertex $-1 $358 $359 #
vertex $-1 $143 $360 #
straight-curve $-1 -50.941851087578421 -35.758220343822835 50.820808566505242 0 0 -1 I I #
coedge $-1 $243 $243 $-1 $361 reversed $146 $-1 #
edge $-1 $362 0 $362 6.2831853071796004 $147 $363 forward 7 unknown #
vertex $-1 $150 $364 #
ellipse-curve $-1 -46.591180408669842 -32.738761734091241 11.405071508580592 0 -0.70710678939079041 0.70710677298230451 2 0 0 1 I I #
coedge $-1 $247 $247 $-1 $365 reversed $153 $-1 #
edge $-1 $366 0 $366 6.2831853071796004 $154 $367 forward 7 unknown #
vertex $-1 $157 $368 #
ellipse-curve $-1 -40.065174390306979 -32.738761734091241 11.405071508580592 0 -0.70710678939079041 0.70710677298230451 2 0 0 1 I I #
face $-1 $-1 $369 $33 $-1 $370 forward single #
loop $-1 $-1 $164 $158 #
plane-surface $-1 0 -35.758220343822835 0 0 1 0 0 0 1 forward_v I I I I #
coedge $-1 $371 $372 $373 $374 reversed $159 $-1 #
coedge $-1 $375 $161 $163 $261 forward $99 $-1 #
coedge $-1 $161 $375 $371 $376 forward $99 $-1 #
coedge $-1 $373 $164 $161 $258 forward $252 $-1 #
edge $-1 $264 -4.4960751187723913 $377 10.731272257407635 $257 $378 forward 7 unknown #
coedge $-1 $379 $380 $162 $260 forward $369 $-1 #
edge $-1 $381 -34.787810281673565 $263 -28.748893062210378 $259 $382 forward 7 unknown #
edge $-1 $264 1.0048591735576163e-014 $381 8.5403187329027634 $163 $383 forward 7 unknown #
coedge $-1 $164 $373 $379 $384 reversed $252 $-1 #
vertex $-1 $384 $385 #
vertex $-1 $165 $386 #
straight-curve $-1 -1.3784765494547697 -35.758220343822835 50.820808566505242 0 0 -1 I I #
coedge $-1 $266 $266 $-1 $387 reversed $168 $-1 #
edge $-1 $388 0 $388 6.2831853071796004 $169 $389 forward 7 unknown #
vertex $-1 $172 $390 #
ellipse-curve $-1 2.9721941294538112 -32.738761734091241 11.405071508580592 0 -0.70710678939079041 0.70710677298230451 2 0 0 1 I I #
coedge $-1 $270 $270 $-1 $391 reversed $175 $-1 #
edge $-1 $392 0 $392 6.2831853071796004 $176 $393 forward 7 unknown #
vertex $-1 $179 $394 #
ellipse-curve $-1 9.4982001478166751 -32.738761734091241 11.405071508580592 0 -0.70710678939079041 0.70710677298230451 2 0 0 1 I I #
face $-1 $-1 $191 $27 $-1 $395 reversed single #
loop $-1 $-1 $396 $180 #
plane-surface $-1 -65.941953794976655 0 0 1 0 0 0 0 -1 forward_v I I I I #
coedge $-1 $397 $282 $398 $399 forward $181 $-1 #
coedge $-1 $400 $183 $397 $401 forward $113 $-1 #
coedge $-1 $183 $400 $189 $291 forward $113 $-1 #
coedge $-1 $185 $184 $402 $403 forward $73 $-1 #
edge $-1 $192 -65.941953794976655 $404 65.941953794976655 $190 $405 forward 7 unknown #
coedge $-1 $277 $286 $185 $283 reversed $181 $-1 #
edge $-1 $406 -65.941953794976655 $284 65.941953794976655 $282 $407 forward 7 unknown #
vertex $-1 $186 $408 #
straight-curve $-1 65.941953794976655 0 14.424530188379038 0 1 0 I I #
coedge $-1 $282 $397 $187 $287 reversed $181 $-1 #
edge $-1 $284 -14.424530188379038 $288 14.424530188379038 $187 $409 forward 7 unknown #
vertex $-1 $287 $410 #
straight-curve $-1 65.941953794976655 0 -14.424530188379038 0 -1 0 I I #
coedge $-1 $190 $189 $396 $411 reversed $191 $-1 #
edge $-1 $412 -65.941953794976655 $193 65.941953794976655 $189 $413 forward 7 unknown #
point $-1 65.941953794976655 35.758220343822835 14.424530188379038 #
point $-1 65.941953794976655 35.758220343822835 -14.424530188379038 #
face $-1 $-1 $311 $28 $-1 $414 reversed single #
loop $-1 $-1 $415 $195 #
plane-surface $-1 -65.941953794976655 0 0 1 0 0 0 0 -1 forward_v I I I I #
coedge $-1 $298 $314 $199 $301 forward $196 $-1 #
coedge $-1 $206 $297 $198 $299 forward $196 $-1 #
edge $-1 $305 -0.20759152951376159 $209 4.3504842930062804 $298 $416 forward 7 unknown #
coedge $-1 $200 $199 $415 $417 reversed $77 $-1 #
edge $-1 $418 -36.721002574337888 $305 -21.720899866939657 $297 $419 forward 7 unknown #
coedge $-1 $310 $309 $200 $303 forward $311 $-1 #
edge $-1 $304 21.720899866939657 $420 36.721002574337888 $302 $421 forward 7 unknown #
vertex $-1 $303 $422 #
vertex $-1 $301 $423 #
straight-curve $-1 -50.941851087578428 0 1.8638548522324978 0 -1 0 I I #
coedge $-1 $424 $425 $203 $308 forward $295 $-1 #
edge $-1 $315 -35.758220343822835 $312 35.758220343822835 $307 $426 forward 7 unknown #
coedge $-1 $302 $204 $208 $317 forward $311 $-1 #
coedge $-1 $204 $302 $424 $427 reversed $311 $-1 #
loop $-1 $-1 $302 $294 #
vertex $-1 $427 $428 #
straight-curve $-1 -29.220951220638771 35.758220343822835 6.4219306747525398 1 0 0 I I #
coedge $-1 $297 $206 $425 $429 forward $196 $-1 #
vertex $-1 $429 $430 #
straight-curve $-1 -29.220951220638771 -35.758220343822835 6.4219306747525398 -1 0 0 I I #
edge $-1 $210 -4.3504842930062804 $304 0.20759152951376159 $309 $431 forward 7 unknown #
point $-1 -50.941851087578428 -35.758220343822835 6.4219306747525398 #
point $-1 -50.941851087578428 35.758220343822835 6.4219306747525398 #
face $-1 $-1 $337 $29 $-1 $432 reversed single #
loop $-1 $-1 $433 $212 #
plane-surface $-1 83.69900960128443 0 10.4999279044766 -1 0 0 0 0 1 forward_v I I I I #
coedge $-1 $223 $222 $434 $435 forward $213 $-1 #
coedge $-1 $333 $215 $216 $329 forward $129 $-1 #
coedge $-1 $215 $333 $336 $436 forward $129 $-1 #
coedge $-1 $433 $437 $215 $327 reversed $321 $-1 #
edge $-1 $438 -35.758220343822835 $439 35.758220343822835 $326 $440 forward 7 unknown #
coedge $-1 $217 $216 $437 $441 forward $81 $-1 #
edge $-1 $439 -8.8785279031538806 $331 8.8785279031538806 $216 $442 forward 7 unknown #
edge $-1 $224 -8.8785279031538806 $443 8.8785279031538806 $217 $444 forward 7 unknown #
vertex $-1 $329 $445 #
straight-curve $-1 65.941953794976655 35.758220343822835 0 0 0 1 I I #
coedge $-1 $325 $324 $219 $334 reversed $129 $-1 #
edge $-1 $338 -35.758220343822835 $331 35.758220343822835 $333 $446 forward 7 unknown #
coedge $-1 $447 $220 $223 $340 reversed $337 $-1 #
coedge $-1 $220 $447 $325 $436 reversed $337 $-1 #
loop $-1 $-1 $220 $320 #
vertex $-1 $221 $448 #
straight-curve $-1 65.941953794976655 -35.758220343822835 0 0 0 -1 I I #
edge $-1 $449 -8.8785279031538806 $225 8.8785279031538806 $335 $450 forward 7 unknown #
point $-1 65.941953794976669 35.758220343822835 7.5802008475466405 #
point $-1 65.941953794976669 -35.758220343822835 7.5802008475466405 #
plane-surface $-1 0 -35.758220343822835 0 0 1 0 0 0 1 forward_v I I I I #
coedge $-1 $354 $353 $346 $451 forward $228 $-1 #
coedge $-1 $346 $230 $232 $350 reversed $137 $-1 #
coedge $-1 $230 $345 $344 $451 reversed $137 $-1 #
coedge $-1 $238 $233 $230 $348 forward $239 $-1 #
edge $-1 $351 -42.435195737723092 $452 -36.396278378126205 $347 $453 forward 7 unknown #
coedge $-1 $232 $231 $354 $454 reversed $85 $-1 #
edge $-1 $455 -8.5403187329027634 $351 -1.0048591735576163e-014 $345 $456 forward 7 unknown #
vertex $-1 $234 $457 #
straight-curve $-1 -21.664088699744205 -35.758220343822835 8.3856128287821523 1 0 0 I I #
coedge $-1 $344 $235 $238 $358 forward $228 $-1 #
coedge $-1 $235 $344 $349 $454 forward $228 $-1 #
vertex $-1 $236 $458 #
straight-curve $-1 -50.941851087578421 -64.507113406033213 14.424530188379038 0 -1 0 I I #
straight-curve $-1 -50.941851087578421 -35.758220343822842 8.3856128287821434 0 0.70710677298230451 0.70710678939079041 I I #
edge $-1 $240 -50.941851087578421 $452 -35.7145037113984 $238 $459 forward 7 unknown #
point $-1 -50.941851087578421 -35.758220343822835 14.424530188379038 #
point $-1 -50.941851087578421 -35.758220343822835 8.3856128287821505 #
edge $-1 $460 1 $460 0 $243 $-1 forward 7 unknown #
vertex $-1 $244 $461 #
ellipse-curve $-1 -46.591180408669842 -29.548742689476097 8.2150525379901698 0 -0.70710678939079041 0.70710677298230451 2 0 0 1 I I #
point $-1 -44.591180408669842 -32.738761734091234 11.405071508580585 #
edge $-1 $462 1 $462 0 $247 $-1 forward 7 unknown #
vertex $-1 $248 $463 #
ellipse-curve $-1 -40.065174390306979 -29.548742689476097 8.2150525379901698 0 -0.70710678939079041 0.70710677298230451 2 0 0 1 I I #
point $-1 -38.065174390306979 -32.738761734091234 11.405071508580585 #
loop $-1 $-1 $259 $251 #
plane-surface $-1 0 0 14.424530188379038 0 0 1 1 0 0 forward_v I I I I #
coedge $-1 $372 $254 $256 $376 reversed $159 $-1 #
coedge $-1 $254 $371 $464 $465 reversed $159 $-1 #
coedge $-1 $262 $257 $254 $374 forward $252 $-1 #
edge $-1 $377 -42.435195737723092 $466 -36.396278378126205 $373 $467 forward 7 unknown #
coedge $-1 $256 $255 $380 $468 reversed $99 $-1 #
edge $-1 $469 -8.5403187329027634 $377 -1.0048591735576163e-014 $371 $470 forward 7 unknown #
vertex $-1 $258 $471 #
straight-curve $-1 3.1175985693176216 -35.758220343822835 8.3856128287821523 1 0 0 I I #
coedge $-1 $464 $259 $262 $384 forward $369 $-1 #
coedge $-1 $259 $464 $375 $468 forward $369 $-1 #
vertex $-1 $260 $472 #
straight-curve $-1 -1.3784765494547697 -64.507113406033213 14.424530188379038 0 -1 0 I I #
straight-curve $-1 -1.3784765494547697 -35.758220343822842 8.3856128287821434 0 0.70710677298230451 0.70710678939079041 I I #
edge $-1 $263 -1.3784765494547697 $466 13.848870826725257 $262 $473 forward 7 unknown #
point $-1 -1.3784765494547697 -35.758220343822835 14.424530188379038 #
point $-1 -1.3784765494547697 -35.758220343822835 8.3856128287821505 #
edge $-1 $474 1 $474 0 $266 $-1 forward 7 unknown #
vertex $-1 $267 $475 #
ellipse-curve $-1 2.9721941294538112 -29.548742689476097 8.2150525379901698 0 -0.70710678939079041 0.70710677298230451 2 0 0 1 I I #
point $-1 4.9721941294538112 -32.738761734091234 11.405071508580585 #
edge $-1 $476 1 $476 0 $270 $-1 forward 7 unknown #
vertex $-1 $271 $477 #
ellipse-curve $-1 9.4982001478166751 -29.548742689476097 8.2150525379901698 0 -0.70710678939079041 0.70710677298230451 2 0 0 1 I I #
point $-1 11.498200147816675 -32.738761734091234 11.405071508580585 #
plane-surface $-1 0 35.758220343822835 0 0 -1 0 0 0 -1 forward_v I I I I #
coedge $-1 $478 $402 $290 $411 forward $275 $-1 #
coedge $-1 $286 $277 $278 $401 reversed $181 $-1 #
coedge $-1 $402 $478 $277 $399 reversed $275 $-1 #
edge $-1 $406 -14.424530188379038 $479 14.424530188379038 $398 $480 forward 7 unknown #
coedge $-1 $279 $278 $478 $481 forward $113 $-1 #
edge $-1 $288 -65.941953794976655 $479 65.941953794976655 $397 $482 forward 7 unknown #
coedge $-1 $396 $398 $280 $403 reversed $275 $-1 #
edge $-1 $404 -35.758220343822835 $406 35.758220343822835 $402 $483 forward 7 unknown #
vertex $-1 $281 $484 #
straight-curve $-1 0 35.758220343822835 14.424530188379038 -1 0 0 I I #
vertex $-1 $403 $485 #
straight-curve $-1 0 -35.758220343822835 14.424530188379038 1 0 0 I I #
point $-1 65.941953794976655 -35.758220343822835 14.424530188379038 #
straight-curve $-1 65.941953794976655 -35.758220343822835 0 0 0 -1 I I #
point $-1 65.941953794976655 -35.758220343822835 -14.424530188379038 #
edge $-1 $404 -14.424530188379038 $412 14.424530188379038 $290 $486 forward 7 unknown #
vertex $-1 $291 $487 #
straight-curve $-1 0 35.758220343822835 -14.424530188379038 1 0 0 I I #
plane-surface $-1 0 35.758220343822835 0 0 -1 0 0 0 -1 forward_v I I I I #
coedge $-1 $425 $424 $300 $417 forward $295 $-1 #
straight-curve $-1 -50.941851087578428 -35.758220343822835 2.0714463817462594 0 0 1 I I #
edge $-1 $420 -35.758220343822835 $418 35.758220343822835 $415 $488 forward 7 unknown #
vertex $-1 $301 $489 #
straight-curve $-1 -29.220951220638771 -35.758220343822835 1.8638548522324978 1 0 0 I I #
vertex $-1 $303 $490 #
straight-curve $-1 -29.220951220638771 35.758220343822835 1.8638548522324978 -1 0 0 I I #
point $-1 -50.941851087578428 35.758220343822835 1.8638548522324978 #
point $-1 -50.941851087578428 -35.758220343822835 1.8638548522324978 #
coedge $-1 $415 $307 $310 $427 forward $295 $-1 #
coedge $-1 $307 $415 $314 $429 reversed $295 $-1 #
straight-curve $-1 -65.941953794976655 0 6.4219306747525398 0 1 0 I I #
edge $-1 $312 -6.4219306747525398 $420 -1.8638548522324978 $310 $491 forward 7 unknown #
point $-1 -65.941953794976655 35.758220343822835 6.4219306747525398 #
edge $-1 $315 -6.4219306747525398 $418 -1.8638548522324978 $425 $492 forward 7 unknown #
point $-1 -65.941953794976655 -35.758220343822835 6.4219306747525398 #
straight-curve $-1 -50.941851087578428 35.758220343822835 2.0714463817462594 0 0 -1 I I #
plane-surface $-1 0 -35.758220343822835 0 0 1 0 0 0 1 forward_v I I I I #
coedge $-1 $434 $326 $447 $493 forward $321 $-1 #
coedge $-1 $437 $433 $323 $435 reversed $321 $-1 #
edge $-1 $443 -35.758220343822835 $449 35.758220343822835 $434 $494 forward 7 unknown #
edge $-1 $338 -8.8785279031538806 $438 8.8785279031538806 $336 $495 forward 7 unknown #
coedge $-1 $326 $434 $328 $441 reversed $321 $-1 #
vertex $-1 $327 $496 #
vertex $-1 $327 $497 #
straight-curve $-1 83.69900960128443 0 13.419654961406559 0 1 0 I I #
edge $-1 $439 -2.9197270569299594 $443 2.9197270569299594 $437 $498 forward 7 unknown #
straight-curve $-1 74.82048169813055 35.758220343822835 13.419654961406559 -1 0 0 I I #
vertex $-1 $435 $499 #
straight-curve $-1 74.82048169813055 35.758220343822835 7.5802008475466405 1 0 0 I I #
point $-1 65.941953794976669 35.758220343822835 13.419654961406559 #
straight-curve $-1 65.941953794976655 0 13.419654961406559 0 1 0 I I #
coedge $-1 $336 $335 $433 $493 reversed $337 $-1 #
point $-1 65.941953794976669 -35.758220343822835 13.419654961406559 #
vertex $-1 $493 $500 #
straight-curve $-1 74.82048169813055 -35.758220343822835 7.5802008475466405 -1 0 0 I I #
edge $-1 $452 28.748893062210378 $455 34.787810281673565 $344 $501 forward 7 unknown #
vertex $-1 $348 $502 #
straight-curve $-1 -35.7145037113984 -35.758220343822835 50.820808566505242 0 0 1 I I #
edge $-1 $455 14.050415011654195 $355 29.277762387834215 $354 $503 forward 7 unknown #
vertex $-1 $454 $504 #
straight-curve $-1 -35.7145037113984 -35.758220343822842 8.3856128287821434 0 -0.70710677298230451 -0.70710678939079041 I I #
point $-1 -35.7145037113984 -35.758220343822835 8.3856128287821505 #
point $-1 -50.941851087578421 -29.719303124359648 14.424530188379038 #
straight-curve $-1 0 -35.758220343822835 14.424530188379038 1 0 0 I I #
vertex $-1 $361 $505 #
point $-1 -44.591180408669842 -29.548742689476097 8.2150525379901698 #
vertex $-1 $365 $506 #
point $-1 -38.065174390306979 -29.548742689476097 8.2150525379901698 #
coedge $-1 $380 $379 $372 $465 forward $369 $-1 #
edge $-1 $466 28.748893062210378 $469 34.787810281673565 $464 $507 forward 7 unknown #
vertex $-1 $465 $508 #
straight-curve $-1 13.848870826725257 -35.758220343822835 50.820808566505242 0 0 1 I I #
edge $-1 $469 -10.731272257407635 $381 4.4960751187723913 $380 $509 forward 7 unknown #
vertex $-1 $468 $510 #
straight-curve $-1 13.848870826725257 -35.758220343822842 8.3856128287821434 0 -0.70710677298230451 -0.70710678939079041 I I #
point $-1 13.848870826725257 -35.758220343822835 8.3856128287821505 #
point $-1 -1.3784765494547697 -29.719303124359648 14.424530188379038 #
straight-curve $-1 0 -35.758220343822835 14.424530188379038 1 0 0 I I #
vertex $-1 $387 $511 #
point $-1 4.9721941294538112 -29.548742689476097 8.2150525379901698 #
vertex $-1 $391 $512 #
point $-1 11.498200147816675 -29.548742689476097 8.2150525379901698 #
coedge $-1 $398 $396 $400 $481 reversed $275 $-1 #
vertex $-1 $481 $513 #
straight-curve $-1 -65.941953794976655 -35.758220343822835 0 0 0 -1 I I #
edge $-1 $479 -35.758220343822835 $412 35.758220343822835 $478 $514 forward 7 unknown #
straight-curve $-1 0 -35.758220343822835 -14.424530188379038 -1 0 0 I I #
straight-curve $-1 -65.941953794976655 0 14.424530188379038 0 -1 0 I I #
point $-1 -65.941953794976655 35.758220343822835 14.424530188379038 #
point $-1 -65.941953794976655 -35.758220343822835 14.424530188379038 #
straight-curve $-1 -65.941953794976655 35.758220343822835 0 0 0 -1 I I #
point $-1 -65.941953794976655 35.758220343822835 -14.424530188379038 #
straight-curve $-1 -65.941953794976655 0 1.8638548522324978 0 -1 0 I I #
point $-1 -65.941953794976655 -35.758220343822835 1.8638548522324978 #
point $-1 -65.941953794976655 35.758220343822835 1.8638548522324978 #
straight-curve $-1 -65.941953794976655 35.758220343822835 0 0 0 -1 I I #
straight-curve $-1 -65.941953794976655 -35.758220343822835 0 0 0 -1 I I #
edge $-1 $438 -2.9197270569299594 $449 2.9197270569299594 $433 $515 forward 7 unknown #
straight-curve $-1 83.69900960128443 0 7.5802008475466405 0 -1 0 I I #
straight-curve $-1 74.82048169813055 -35.758220343822835 13.419654961406559 1 0 0 I I #
point $-1 83.69900960128443 -35.758220343822835 13.419654961406559 #
point $-1 83.69900960128443 35.758220343822835 13.419654961406559 #
straight-curve $-1 83.69900960128443 35.758220343822835 10.4999279044766 0 0 -1 I I #
point $-1 83.69900960128443 35.758220343822835 7.5802008475466405 #
point $-1 83.69900960128443 -35.758220343822835 7.5802008475466405 #
straight-curve $-1 -35.7145037113984 -64.507113406033213 14.424530188379038 0 1 0 I I #
point $-1 -35.7145037113984 -35.758220343822835 14.424530188379038 #
straight-curve $-1 -21.664088699744205 -29.719303124359648 14.424530188379038 -1 0 0 I I #
point $-1 -35.7145037113984 -29.719303124359648 14.424530188379038 #
point $-1 -46.591180408669842 -28.134529110694519 6.8008389920255601 #
point $-1 -40.065174390306979 -28.134529110694519 6.8008389920255601 #
straight-curve $-1 13.848870826725257 -64.507113406033213 14.424530188379038 0 1 0 I I #
point $-1 13.848870826725257 -35.758220343822835 14.424530188379038 #
straight-curve $-1 3.1175985693176216 -29.719303124359648 14.424530188379038 -1 0 0 I I #
point $-1 13.848870826725257 -29.719303124359648 14.424530188379038 #
point $-1 2.9721941294538112 -28.134529110694519 6.8008389920255601 #
point $-1 9.4982001478166751 -28.134529110694519 6.8008389920255601 #
point $-1 -65.941953794976655 -35.758220343822835 -14.424530188379038 #
straight-curve $-1 -65.941953794976655 0 -14.424530188379038 0 1 0 I I #
straight-curve $-1 83.69900960128443 -35.758220343822835 10.4999279044766 0 0 -1 I I #
End-of-ACIS-data 