500 0 9 0           
7 Unknown 11 ACIS 5.0 NT 24 Fri Mar 26 00:15:49 1999 
-1 9.9999999999999995e-007 1e-010 
body $-1 $9 $-1 $10 #
body $-1 $11 $-1 $12 #
body $-1 $13 $-1 $14 #
body $-1 $15 $-1 $16 #
body $-1 $17 $-1 $18 #
body $-1 $19 $-1 $20 #
body $-1 $21 $-1 $22 #
body $-1 $23 $-1 $24 #
body $-1 $25 $-1 $26 #
lump $-1 $-1 $27 $0 #
transform $-1 1 0 0 0 1 0 0 0 1 62.422559282204659 32.559288398330274 8.3946464505988896 1 rotate no_reflect no_shear #
lump $-1 $-1 $28 $1 #
transform $-1 1 0 0 0 1 0 0 0 1 62.422559282204659 32.559288398330274 8.3946464505988896 1 rotate no_reflect no_shear #
lump $-1 $-1 $29 $2 #
transform $-1 1 0 0 0 1 0 0 0 1 62.422559282204659 32.559288398330274 8.3946464505988896 1 rotate no_reflect no_shear #
lump $-1 $-1 $30 $3 #
transform $-1 1 0 0 0 1 0 0 0 1 62.422559282204659 32.559288398330274 8.3946464505988896 1 rotate no_reflect no_shear #
lump $-1 $-1 $31 $4 #
transform $-1 1 0 0 0 1 0 0 0 1 62.422559282204659 32.559288398330274 8.3946464505988896 1 rotate no_reflect no_shear #
lump $-1 $-1 $32 $5 #
transform $-1 1 0 0 0 1 0 0 0 1 62.422559282204659 32.559288398330274 8.3946464505988896 1 rotate no_reflect no_shear #
lump $-1 $-1 $33 $6 #
transform $-1 1 0 0 0 1 0 0 0 1 62.422559282204659 32.559288398330274 8.3946464505988896 1 rotate no_reflect no_shear #
lump $-1 $-1 $34 $7 #
transform $-1 1 0 0 0 1 0 0 0 1 62.422559282204659 32.559288398330274 8.3946464505988896 1 rotate no_reflect no_shear #
lump $-1 $-1 $35 $8 #
transform $-1 1 0 0 0 1 0 0 0 1 62.422559282204659 32.559288398330274 8.3946464505988896 1 rotate no_reflect no_shear #
shell $-1 $-1 $-1 $36 $-1 $9 #
shell $-1 $-1 $-1 $37 $-1 $11 #
shell $-1 $-1 $-1 $38 $-1 $13 #
shell $-1 $-1 $-1 $39 $-1 $15 #
shell $-1 $-1 $-1 $40 $-1 $17 #
shell $-1 $-1 $-1 $41 $-1 $19 #
shell $-1 $-1 $-1 $42 $-1 $21 #
shell $-1 $-1 $-1 $43 $-1 $23 #
shell $-1 $-1 $-1 $44 $-1 $25 #
face $-1 $45 $46 $27 $-1 $47 forward single #
face $-1 $48 $49 $28 $-1 $50 reversed single #
face $-1 $51 $52 $29 $-1 $53 reversed single #
face $-1 $54 $55 $30 $-1 $56 reversed single #
face $-1 $57 $58 $31 $-1 $59 forward single #
face $-1 $60 $61 $32 $-1 $62 forward single #
face $-1 $63 $64 $33 $-1 $65 reversed single #
face $-1 $66 $67 $34 $-1 $68 forward single #
face $-1 $69 $70 $35 $-1 $71 forward single #
face $-1 $72 $73 $27 $-1 $74 reversed single #
loop $-1 $-1 $75 $36 #
plane-surface $-1 0 0 8.3946464505988896 0 0 1 1 0 0 forward_v I I I I #
face $-1 $76 $77 $28 $-1 $78 reversed single #
loop $-1 $-1 $79 $37 #
plane-surface $-1 -48.703216282356607 -27.695507051244032 0 1 0 0 0 0 -1 forward_v I I I I #
face $-1 $80 $81 $29 $-1 $82 reversed single #
loop $-1 $-1 $83 $38 #
plane-surface $-1 -47.168241331681742 22.831725704157787 0 0 1 0 0 0 1 forward_v I I I I #
face $-1 $84 $85 $30 $-1 $86 reversed single #
loop $-1 $-1 $87 $39 #
plane-surface $-1 -144.32832753781466 1.4217832529259837 97.79227942681247 0 1 0 -0.6560590369687036 0 0.75470957328743171 forward_v I I I I #
face $-1 $88 $89 $31 $-1 $90 forward single #
loop $-1 $91 $92 $40 #
cone-surface $-1 -58.8956468073862 5.1877666297753606 5.1173398171914926 0.6560590369687036 0 -0.75470957328743171 0.75470957328743171 0 0.6560590369687036 1 I I 0 1 1 forward I I I I #
face $-1 $93 $94 $32 $-1 $95 forward single #
loop $-1 $96 $97 $41 #
cone-surface $-1 -58.8956468073862 10.836741695049426 5.1173398171914926 0.6560590369687036 0 -0.75470957328743171 0.75470957328743171 0 0.6560590369687036 1 I I 0 1 1 forward I I I I #
face $-1 $98 $99 $33 $-1 $100 reversed single #
loop $-1 $-1 $101 $42 #
plane-surface $-1 62.422561330724022 -13.360851005189581 179.09273375658984 0 -1 0 -0.70710678939079041 0 -0.70710677298230451 forward_v I I I I #
face $-1 $102 $103 $34 $-1 $104 forward single #
loop $-1 $105 $106 $43 #
cone-surface $-1 59.008672399702981 -20.125761504452587 4.9807595113448135 -0.70710678939079041 0 -0.70710677298230451 0.70710677298230451 0 -0.70710678939079041 1 I I 0 1 1 forward I I I I #
face $-1 $107 $108 $35 $-1 $109 forward single #
loop $-1 $110 $111 $44 #
cone-surface $-1 59.008672399702981 -16.066815204894784 4.9807595113448135 -0.70710678939079041 0 -0.70710677298230451 0.70710677298230451 0 -0.70710678939079041 1 I I 0 1 1 forward I I I I #
face $-1 $112 $113 $27 $-1 $114 reversed single #
loop $-1 $-1 $115 $45 #
plane-surface $-1 0 0 -8.3946464505988896 0 0 1 1 0 0 forward_v I I I I #
coedge $-1 $116 $117 $118 $119 forward $46 $-1 #
face $-1 $120 $121 $28 $-1 $122 reversed single #
loop $-1 $-1 $123 $48 #
plane-surface $-1 -47.168241331681742 -22.83172570415779 0 0 -1 0 0 0 -1 forward_v I I I I #
coedge $-1 $124 $125 $126 $127 forward $49 $-1 #
face $-1 $128 $129 $29 $-1 $130 reversed single #
loop $-1 $-1 $131 $51 #
plane-surface $-1 -48.703216282356607 27.695507051244029 0 1 0 0 0 0 -1 forward_v I I I I #
coedge $-1 $132 $133 $134 $135 forward $52 $-1 #
face $-1 $136 $137 $30 $-1 $138 reversed single #
loop $-1 $-1 $139 $54 #
plane-surface $-1 -62.422559282204674 8.0122541624123897 3.5704732680483033 -0.6560590369687036 0 0.75470957328743171 0.75470957328743171 0 0.6560590369687036 forward_v I I I I #
coedge $-1 $140 $141 $142 $143 reversed $55 $-1 #
face $-1 $-1 $144 $31 $-1 $145 forward single #
loop $-1 $146 $147 $57 #
cone-surface $-1 -57.81549296492561 5.1877666297753606 3.8747649884156807 0.6560590369687036 0 -0.75470957328743171 0.37735478664371586 0 0.3280295184843518 1 I I -0.70710678118654746 0.70710678118654746 0.5 forward I I I I #
loop $-1 $-1 $148 $40 #
coedge $-1 $92 $92 $149 $150 reversed $58 $-1 #
face $-1 $-1 $151 $32 $-1 $152 forward single #
loop $-1 $153 $154 $60 #
cone-surface $-1 -57.81549296492561 10.836741695049426 3.8747649884156807 0.6560590369687036 0 -0.75470957328743171 0.37735478664371586 0 0.3280295184843518 1 I I -0.70710678118654746 0.70710678118654746 0.5 forward I I I I #
loop $-1 $-1 $155 $41 #
coedge $-1 $97 $97 $156 $157 reversed $61 $-1 #
face $-1 $158 $159 $33 $-1 $160 reversed single #
loop $-1 $-1 $161 $63 #
plane-surface $-1 -25.856269628468013 -18.096288354673685 90.813904845917165 0.70710678939079041 0 0.70710677298230451 0.70710677298230451 0 -0.70710678939079041 forward_v I I I I #
coedge $-1 $162 $163 $164 $165 reversed $64 $-1 #
face $-1 $-1 $166 $34 $-1 $167 forward single #
loop $-1 $168 $169 $66 #
cone-surface $-1 58.171018336456797 -20.125761504452587 4.1431054675364809 -0.70710678939079041 0 -0.70710677298230451 0.35355338649115226 0 -0.35355339469539521 1 I I -0.70710678118654746 0.70710678118654746 0.5 forward I I I I #
loop $-1 $-1 $170 $43 #
coedge $-1 $106 $106 $171 $172 reversed $67 $-1 #
face $-1 $-1 $173 $35 $-1 $174 forward single #
loop $-1 $175 $176 $69 #
cone-surface $-1 58.171018336456797 -16.066815204894784 4.1431054675364809 -0.70710678939079041 0 -0.70710677298230451 0.35355338649115226 0 -0.35355339469539521 1 I I -0.70710678118654746 0.70710678118654746 0.5 forward I I I I #
loop $-1 $-1 $177 $44 #
coedge $-1 $111 $111 $178 $179 reversed $70 $-1 #
face $-1 $180 $181 $27 $-1 $182 reversed single #
loop $-1 $-1 $183 $72 #
plane-surface $-1 0 -32.559288398330274 0 0 1 0 0 0 1 forward_v I I I I #
coedge $-1 $184 $185 $186 $187 forward $73 $-1 #
coedge $-1 $188 $75 $189 $190 forward $46 $-1 #
coedge $-1 $75 $188 $191 $192 forward $46 $-1 #
coedge $-1 $193 $194 $75 $119 reversed $195 $-1 #
edge $-1 $196 -32.559288398330274 $197 32.559288398330274 $118 $198 forward 7 unknown #
face $-1 $199 $200 $28 $-1 $201 forward single #
loop $-1 $-1 $202 $76 #
plane-surface $-1 -45.633266381006877 -27.695507051244032 0 -1 0 0 0 0 1 forward_v I I I I #
coedge $-1 $203 $204 $205 $206 forward $77 $-1 #
coedge $-1 $207 $79 $208 $209 reversed $49 $-1 #
coedge $-1 $79 $207 $210 $211 reversed $49 $-1 #
coedge $-1 $204 $203 $79 $127 reversed $77 $-1 #
edge $-1 $212 -8.3946464505988896 $213 8.3946464505988896 $126 $214 forward 7 unknown #
face $-1 $215 $216 $29 $-1 $217 reversed single #
loop $-1 $-1 $218 $80 #
plane-surface $-1 -45.633266381006877 27.695507051244029 0 -1 0 0 0 0 1 forward_v I I I I #
coedge $-1 $219 $220 $221 $222 reversed $81 $-1 #
coedge $-1 $223 $83 $224 $225 reversed $52 $-1 #
coedge $-1 $83 $223 $226 $227 reversed $52 $-1 #
coedge $-1 $220 $219 $83 $135 reversed $81 $-1 #
edge $-1 $228 -8.3946464505988896 $229 8.3946464505988896 $134 $230 forward 7 unknown #
face $-1 $231 $232 $30 $-1 $233 reversed single #
loop $-1 $-1 $234 $84 #
plane-surface $-1 -144.32832753781466 14.602725071898796 97.79227942681247 0 -1 0 0.6560590369687036 0 -0.75470957328743171 forward_v I I I I #
coedge $-1 $235 $236 $237 $238 reversed $85 $-1 #
coedge $-1 $141 $87 $239 $240 reversed $55 $-1 #
coedge $-1 $87 $140 $235 $241 reversed $55 $-1 #
coedge $-1 $237 $242 $87 $143 forward $243 $-1 #
edge $-1 $244 9.7416044867026699 $245 15.291180788387081 $142 $246 forward 7 unknown #
loop $-1 $-1 $149 $88 #
plane-surface $-1 -62.422559282204674 8.0122541624123897 3.5704732680483033 -0.6560590369687036 0 0.75470957328743171 0.75470957328743171 0 0.6560590369687036 forward_v I I I I #
loop $-1 $-1 $247 $57 #
coedge $-1 $147 $147 $148 $248 reversed $89 $-1 #
coedge $-1 $148 $148 $147 $248 forward $91 $-1 #
coedge $-1 $149 $149 $92 $150 forward $144 $-1 #
edge $-1 $249 0 $249 6.2831853071796004 $149 $250 forward 7 unknown #
loop $-1 $-1 $156 $93 #
plane-surface $-1 -62.422559282204674 8.0122541624123897 3.5704732680483033 -0.6560590369687036 0 0.75470957328743171 0.75470957328743171 0 0.6560590369687036 forward_v I I I I #
loop $-1 $-1 $251 $60 #
coedge $-1 $154 $154 $155 $252 reversed $94 $-1 #
coedge $-1 $155 $155 $154 $252 forward $96 $-1 #
coedge $-1 $156 $156 $97 $157 forward $151 $-1 #
edge $-1 $253 0 $253 6.2831853071796004 $156 $254 forward 7 unknown #
face $-1 $255 $256 $33 $-1 $257 forward single #
loop $-1 $-1 $258 $98 #
plane-surface $-1 62.422561330724022 -22.83172570415779 179.09273375658984 0 1 0 0.70710678939079041 0 0.70710677298230451 forward_v I I I I #
coedge $-1 $259 $260 $261 $262 reversed $99 $-1 #
coedge $-1 $163 $101 $263 $264 reversed $64 $-1 #
coedge $-1 $101 $162 $259 $265 reversed $64 $-1 #
coedge $-1 $261 $266 $101 $165 forward $256 $-1 #
edge $-1 $267 -31.211278616842648 $268 -25.351706188940867 $164 $269 forward 7 unknown #
loop $-1 $-1 $171 $102 #
plane-surface $-1 -25.856269628468013 -18.096288354673685 90.813904845917165 0.70710678939079041 0 0.70710677298230451 0.70710677298230451 0 -0.70710678939079041 forward_v I I I I #
loop $-1 $-1 $270 $66 #
coedge $-1 $169 $169 $170 $271 reversed $103 $-1 #
coedge $-1 $170 $170 $169 $271 forward $105 $-1 #
coedge $-1 $171 $171 $106 $172 forward $166 $-1 #
edge $-1 $272 0 $272 6.2831853071796004 $171 $273 forward 7 unknown #
loop $-1 $-1 $178 $107 #
plane-surface $-1 -25.856269628468013 -18.096288354673685 90.813904845917165 0.70710678939079041 0 0.70710677298230451 0.70710677298230451 0 -0.70710678939079041 forward_v I I I I #
loop $-1 $-1 $274 $69 #
coedge $-1 $176 $176 $177 $275 reversed $108 $-1 #
coedge $-1 $177 $177 $176 $275 forward $110 $-1 #
coedge $-1 $178 $178 $111 $179 forward $173 $-1 #
edge $-1 $276 0 $276 6.2831853071796004 $178 $277 forward 7 unknown #
face $-1 $278 $279 $27 $-1 $280 reversed single #
loop $-1 $-1 $281 $112 #
plane-surface $-1 -62.422559282204659 0 0 1 0 0 0 0 -1 forward_v I I I I #
coedge $-1 $282 $191 $283 $284 forward $113 $-1 #
coedge $-1 $285 $115 $282 $286 forward $73 $-1 #
coedge $-1 $115 $285 $287 $288 forward $73 $-1 #
coedge $-1 $194 $193 $115 $187 reversed $195 $-1 #
edge $-1 $289 -32.559288398330274 $290 32.559288398330274 $186 $291 forward 7 unknown #
coedge $-1 $117 $116 $292 $293 forward $46 $-1 #
coedge $-1 $294 $295 $116 $190 reversed $279 $-1 #
edge $-1 $197 -62.422559282204659 $296 62.422559282204659 $189 $297 forward 7 unknown #
coedge $-1 $183 $298 $117 $192 reversed $113 $-1 #
edge $-1 $299 -62.422559282204659 $196 62.422559282204659 $191 $300 forward 7 unknown #
coedge $-1 $186 $118 $298 $301 forward $195 $-1 #
coedge $-1 $118 $186 $294 $302 reversed $195 $-1 #
loop $-1 $-1 $193 $278 #
vertex $-1 $119 $303 #
vertex $-1 $119 $304 #
straight-curve $-1 62.422559282204659 0 8.3946464505988896 0 1 0 I I #
face $-1 $305 $306 $28 $-1 $307 reversed single #
loop $-1 $-1 $308 $120 #
plane-surface $-1 0 0 8.3946464505988896 0 0 1 1 0 0 forward_v I I I I #
coedge $-1 $309 $310 $311 $312 reversed $121 $-1 #
coedge $-1 $126 $123 $313 $314 reversed $77 $-1 #
coedge $-1 $123 $126 $315 $316 reversed $77 $-1 #
coedge $-1 $310 $309 $123 $206 reversed $121 $-1 #
edge $-1 $317 -8.3946464505988896 $318 8.3946464505988896 $205 $319 forward 7 unknown #
coedge $-1 $125 $124 $320 $321 reversed $49 $-1 #
coedge $-1 $313 $322 $124 $209 forward $306 $-1 #
edge $-1 $323 -18.711534872708256 $213 -8.9839721785357742 $208 $324 forward 7 unknown #
coedge $-1 $325 $315 $125 $211 forward $200 $-1 #
edge $-1 $212 8.9839721785357742 $326 18.711534872708256 $210 $327 forward 7 unknown #
vertex $-1 $211 $328 #
vertex $-1 $209 $329 #
straight-curve $-1 -48.703216282356607 -22.83172570415779 0 0 0 -1 I I #
face $-1 $330 $331 $29 $-1 $332 forward single #
loop $-1 $-1 $333 $128 #
plane-surface $-1 0 0 -8.3946464505988896 0 0 1 1 0 0 forward_v I I I I #
coedge $-1 $334 $335 $223 $336 forward $129 $-1 #
coedge $-1 $134 $131 $337 $338 reversed $81 $-1 #
coedge $-1 $131 $134 $339 $340 reversed $81 $-1 #
coedge $-1 $341 $342 $131 $222 forward $343 $-1 #
edge $-1 $344 -8.3946464505988896 $345 8.3946464505988896 $221 $346 forward 7 unknown #
coedge $-1 $133 $132 $218 $336 reversed $52 $-1 #
coedge $-1 $337 $333 $132 $225 forward $216 $-1 #
edge $-1 $347 22.049145715166006 $229 25.119095616515736 $224 $348 forward 7 unknown #
coedge $-1 $349 $339 $133 $227 forward $331 $-1 #
edge $-1 $228 -25.119095616515736 $350 -22.049145715166006 $226 $351 forward 7 unknown #
vertex $-1 $227 $352 #
vertex $-1 $225 $353 #
straight-curve $-1 -48.703216282356607 22.831725704157787 0 0 0 -1 I I #
face $-1 $-1 $243 $30 $-1 $354 forward single #
loop $-1 $-1 $355 $136 #
plane-surface $-1 -62.422559282204659 0 0 1 0 0 0 0 -1 forward_v I I I I #
coedge $-1 $356 $357 $358 $359 reversed $137 $-1 #
coedge $-1 $360 $139 $141 $241 forward $85 $-1 #
coedge $-1 $139 $360 $356 $361 forward $85 $-1 #
coedge $-1 $358 $142 $139 $238 forward $243 $-1 #
edge $-1 $245 -2.5843438282802111 $362 10.596597990692601 $237 $363 forward 7 unknown #
coedge $-1 $364 $365 $140 $240 forward $232 $-1 #
edge $-1 $366 -45.325666445357918 $244 -40.501493262807344 $239 $367 forward 7 unknown #
edge $-1 $245 -7.3532607748846797 $366 -1.888283279974768e-014 $141 $368 forward 7 unknown #
coedge $-1 $142 $358 $364 $369 forward $243 $-1 #
loop $-1 $-1 $358 $231 #
vertex $-1 $240 $370 #
vertex $-1 $143 $371 #
straight-curve $-1 -72.164163768907329 1.4217832529259837 8.3946464505988914 1 0 0 I I #
coedge $-1 $247 $247 $-1 $372 reversed $146 $-1 #
edge $-1 $373 0 $373 6.2831853071796004 $147 $374 forward 7 unknown #
vertex $-1 $150 $375 #
ellipse-curve $-1 -59.647771131362454 5.1877666297753606 5.9825598593236045 -0.6560590369687036 0 0.75470957328743171 0.75470957328743171 0 0.6560590369687036 1 I I #
coedge $-1 $251 $251 $-1 $376 reversed $153 $-1 #
edge $-1 $377 0 $377 6.2831853071796004 $154 $378 forward 7 unknown #
vertex $-1 $157 $379 #
ellipse-curve $-1 -59.647771131362454 10.836741695049426 5.9825598593236045 -0.6560590369687036 0 0.75470957328743171 0.75470957328743171 0 0.6560590369687036 1 I I #
face $-1 $-1 $380 $33 $-1 $381 reversed single #
loop $-1 $-1 $164 $158 #
plane-surface $-1 0 0 8.3946464505988896 0 0 1 1 0 0 forward_v I I I I #
coedge $-1 $382 $383 $384 $385 reversed $159 $-1 #
coedge $-1 $386 $161 $163 $265 forward $99 $-1 #
coedge $-1 $161 $386 $382 $387 forward $99 $-1 #
coedge $-1 $384 $164 $161 $262 forward $256 $-1 #
edge $-1 $268 4.3127068278527378 $388 13.783581526820948 $261 $389 forward 7 unknown #
coedge $-1 $390 $391 $162 $264 forward $380 $-1 #
edge $-1 $392 -87.011292991569789 $267 -81.151720427696034 $263 $393 forward 7 unknown #
edge $-1 $268 116.55843167101649 $392 124.84511856440935 $163 $394 forward 7 unknown #
coedge $-1 $164 $384 $390 $395 forward $256 $-1 #
vertex $-1 $165 $396 #
vertex $-1 $165 $397 #
straight-curve $-1 31.211280665362011 -13.360851005189581 8.3946464505988843 -1 0 0 I I #
coedge $-1 $270 $270 $-1 $398 reversed $168 $-1 #
edge $-1 $399 0 $399 6.2831853071796004 $169 $400 forward 7 unknown #
vertex $-1 $172 $401 #
ellipse-curve $-1 59.492773068253776 -20.125761504452587 5.4648601686620051 0.70710678939079041 0 0.70710677298230451 0.70710677298230451 0 -0.70710678939079041 1 I I #
coedge $-1 $274 $274 $-1 $402 reversed $175 $-1 #
edge $-1 $403 0 $403 6.2831853071796004 $176 $404 forward 7 unknown #
vertex $-1 $179 $405 #
ellipse-curve $-1 59.492773068253776 -16.066815204894784 5.4648601686620051 0.70710678939079041 0 0.70710677298230451 0.70710677298230451 0 -0.70710678939079041 1 I I #
face $-1 $-1 $195 $27 $-1 $406 reversed single #
loop $-1 $-1 $294 $180 #
plane-surface $-1 0 32.559288398330274 0 0 -1 0 0 0 -1 forward_v I I I I #
coedge $-1 $407 $292 $295 $408 forward $181 $-1 #
coedge $-1 $298 $183 $184 $286 reversed $113 $-1 #
coedge $-1 $292 $407 $183 $284 reversed $181 $-1 #
edge $-1 $299 -8.3946464505988896 $409 8.3946464505988896 $283 $410 forward 7 unknown #
coedge $-1 $185 $184 $407 $411 forward $73 $-1 #
edge $-1 $290 -62.422559282204659 $409 62.422559282204659 $282 $412 forward 7 unknown #
coedge $-1 $295 $294 $185 $288 reversed $279 $-1 #
edge $-1 $413 -62.422559282204659 $289 62.422559282204659 $287 $414 forward 7 unknown #
vertex $-1 $187 $415 #
vertex $-1 $301 $416 #
straight-curve $-1 62.422559282204659 0 -8.3946464505988896 0 -1 0 I I #
coedge $-1 $281 $283 $188 $293 reversed $181 $-1 #
edge $-1 $296 -32.559288398330274 $299 32.559288398330274 $292 $417 forward 7 unknown #
coedge $-1 $287 $189 $194 $302 forward $279 $-1 #
coedge $-1 $189 $287 $281 $408 reversed $279 $-1 #
vertex $-1 $190 $418 #
straight-curve $-1 0 32.559288398330274 8.3946464505988896 -1 0 0 I I #
coedge $-1 $191 $282 $193 $301 reversed $113 $-1 #
vertex $-1 $293 $419 #
straight-curve $-1 0 -32.559288398330274 8.3946464505988896 1 0 0 I I #
edge $-1 $196 -8.3946464505988896 $290 8.3946464505988896 $193 $420 forward 7 unknown #
edge $-1 $197 -8.3946464505988896 $289 8.3946464505988896 $194 $421 forward 7 unknown #
point $-1 62.422559282204659 -32.559288398330274 8.3946464505988896 #
point $-1 62.422559282204659 32.559288398330274 8.3946464505988896 #
face $-1 $-1 $422 $28 $-1 $423 reversed single #
loop $-1 $-1 $424 $199 #
plane-surface $-1 0 0 -8.3946464505988896 0 0 1 1 0 0 forward_v I I I I #
coedge $-1 $315 $325 $310 $425 forward $200 $-1 #
coedge $-1 $205 $202 $424 $426 reversed $121 $-1 #
coedge $-1 $202 $205 $308 $425 reversed $121 $-1 #
coedge $-1 $427 $428 $202 $312 forward $422 $-1 #
edge $-1 $429 -8.3946464505988896 $430 8.3946464505988896 $311 $431 forward 7 unknown #
coedge $-1 $424 $208 $203 $314 forward $306 $-1 #
edge $-1 $213 -25.119095616515736 $318 -22.049145715166006 $313 $432 forward 7 unknown #
coedge $-1 $210 $308 $204 $316 forward $200 $-1 #
edge $-1 $317 22.049145715166006 $212 25.119095616515736 $315 $433 forward 7 unknown #
vertex $-1 $316 $434 #
vertex $-1 $314 $435 #
straight-curve $-1 -45.633266381006877 -22.83172570415779 0 0 0 -1 I I #
coedge $-1 $428 $427 $207 $321 forward $422 $-1 #
edge $-1 $326 -8.3946464505988896 $323 8.3946464505988896 $320 $436 forward 7 unknown #
coedge $-1 $208 $424 $428 $437 forward $306 $-1 #
vertex $-1 $209 $438 #
straight-curve $-1 -48.703216282356607 -13.847753525622016 -8.3946464505988896 0 1 0 I I #
coedge $-1 $308 $210 $427 $439 forward $200 $-1 #
vertex $-1 $439 $440 #
straight-curve $-1 -48.703216282356607 -13.847753525622016 8.3946464505988896 0 -1 0 I I #
point $-1 -48.703216282356607 -22.83172570415779 8.3946464505988896 #
point $-1 -48.703216282356607 -22.83172570415779 -8.3946464505988896 #
face $-1 $-1 $343 $29 $-1 $441 reversed single #
loop $-1 $-1 $349 $215 #
plane-surface $-1 0 0 8.3946464505988896 0 0 1 1 0 0 forward_v I I I I #
coedge $-1 $224 $442 $334 $443 forward $216 $-1 #
coedge $-1 $444 $218 $333 $443 reversed $129 $-1 #
coedge $-1 $218 $444 $349 $445 reversed $129 $-1 #
edge $-1 $350 -8.3946464505988896 $347 8.3946464505988896 $218 $446 forward 7 unknown #
coedge $-1 $442 $224 $219 $338 forward $216 $-1 #
edge $-1 $229 8.9839721785357725 $344 18.711534872708253 $337 $447 forward 7 unknown #
coedge $-1 $226 $448 $220 $340 forward $331 $-1 #
edge $-1 $345 -18.711534872708253 $228 -8.9839721785357725 $339 $449 forward 7 unknown #
coedge $-1 $450 $221 $448 $451 reversed $343 $-1 #
coedge $-1 $221 $450 $442 $452 reversed $343 $-1 #
loop $-1 $-1 $450 $330 #
vertex $-1 $452 $453 #
vertex $-1 $222 $454 #
straight-curve $-1 -48.703216282356607 32.559288398330274 0 0 0 1 I I #
vertex $-1 $225 $455 #
straight-curve $-1 -23.584120665840871 22.831725704157787 -8.3946464505988896 -1 0 0 I I #
coedge $-1 $448 $226 $335 $445 forward $331 $-1 #
vertex $-1 $227 $456 #
straight-curve $-1 -23.584120665840871 22.831725704157787 8.3946464505988896 1 0 0 I I #
point $-1 -48.703216282356607 22.831725704157787 8.3946464505988896 #
point $-1 -48.703216282356607 22.831725704157787 -8.3946464505988896 #
plane-surface $-1 0 0 8.3946464505988896 0 0 1 1 0 0 forward_v I I I I #
coedge $-1 $365 $364 $357 $457 forward $232 $-1 #
coedge $-1 $357 $234 $236 $361 reversed $137 $-1 #
coedge $-1 $234 $356 $355 $457 reversed $137 $-1 #
coedge $-1 $242 $237 $234 $359 forward $243 $-1 #
edge $-1 $362 -15.291180788387081 $458 -9.7416044867026699 $358 $459 forward 7 unknown #
coedge $-1 $236 $235 $365 $460 reversed $85 $-1 #
edge $-1 $461 1.888283279974768e-014 $362 7.3532607748846797 $356 $462 forward 7 unknown #
vertex $-1 $238 $463 #
straight-curve $-1 -56.872982980520248 4.0061270812061949 8.3946464505988914 0 1 0 I I #
coedge $-1 $355 $239 $242 $369 reversed $232 $-1 #
coedge $-1 $239 $355 $360 $460 forward $232 $-1 #
vertex $-1 $240 $464 #
straight-curve $-1 -62.422559282204659 1.4217832529259837 48.896139713406235 0 0 1 I I #
straight-curve $-1 -62.422559282204674 1.4217832529259837 3.5704732680483033 -0.75470957328743171 0 -0.6560590369687036 I I #
edge $-1 $458 -14.602725071898796 $244 -1.4217832529259837 $364 $465 forward 7 unknown #
point $-1 -62.422559282204659 1.4217832529259837 8.3946464505988896 #
point $-1 -56.872982980520248 1.4217832529259837 8.3946464505988896 #
edge $-1 $466 1 $466 0 $247 $-1 forward 7 unknown #
vertex $-1 $248 $467 #
ellipse-curve $-1 -58.14352248340996 5.1877666297753606 4.2521197750593966 -0.6560590369687036 0 0.75470957328743171 0.75470957328743171 0 0.6560590369687036 1 I I #
point $-1 -58.893061558075004 5.1877666297753606 6.6386188962922921 #
edge $-1 $468 1 $468 0 $251 $-1 forward 7 unknown #
vertex $-1 $252 $469 #
ellipse-curve $-1 -58.14352248340996 10.836741695049426 4.2521197750593966 -0.6560590369687036 0 0.75470957328743171 0.75470957328743171 0 0.6560590369687036 1 I I #
point $-1 -58.893061558075004 10.836741695049426 6.6386188962922921 #
loop $-1 $-1 $263 $255 #
plane-surface $-1 62.422559282204659 0 0 -1 0 0 0 0 1 forward_v I I I I #
coedge $-1 $383 $258 $260 $387 reversed $159 $-1 #
coedge $-1 $258 $382 $470 $471 reversed $159 $-1 #
coedge $-1 $266 $261 $258 $385 forward $256 $-1 #
edge $-1 $388 25.351706188940867 $472 31.211278616842648 $384 $473 forward 7 unknown #
coedge $-1 $260 $259 $391 $474 reversed $99 $-1 #
edge $-1 $475 -124.84511856440935 $388 -116.55843167101649 $382 $476 forward 7 unknown #
vertex $-1 $262 $477 #
straight-curve $-1 56.562986854302878 -9.0481441773368427 8.3946464505988914 0 -1 0 I I #
coedge $-1 $470 $263 $266 $395 reversed $380 $-1 #
coedge $-1 $263 $470 $386 $474 forward $380 $-1 #
vertex $-1 $264 $478 #
straight-curve $-1 62.422559282204659 -13.360851005189581 89.546366878294918 0 0 1 I I #
straight-curve $-1 -25.856269628468013 -13.360851005189581 90.813904845917165 0.70710677298230451 0 -0.70710678939079041 I I #
edge $-1 $472 -22.83172570415779 $267 -13.360851005189581 $390 $479 forward 7 unknown #
point $-1 62.422559282204659 -13.360851005189581 8.3946464505988896 #
point $-1 56.562986854302878 -13.360851005189581 8.3946464505988843 #
edge $-1 $480 1 $480 0 $270 $-1 forward 7 unknown #
vertex $-1 $271 $481 #
ellipse-curve $-1 58.524571731152193 -20.125761504452587 4.4966588540276335 0.70710678939079041 0 0.70710677298230451 0.70710677298230451 0 -0.70710678939079041 1 I I #
point $-1 60.199879841236069 -20.125761504452587 4.757753379271203 #
edge $-1 $482 1 $482 0 $274 $-1 forward 7 unknown #
vertex $-1 $275 $483 #
ellipse-curve $-1 58.524571731152193 -16.066815204894784 4.4966588540276335 0.70710678939079041 0 0.70710677298230451 0.70710677298230451 0 -0.70710678939079041 1 I I #
point $-1 60.199879841236069 -16.066815204894784 4.757753379271203 #
plane-surface $-1 62.422559282204659 0 0 -1 0 0 0 0 1 forward_v I I I I #
coedge $-1 $283 $281 $285 $411 reversed $181 $-1 #
edge $-1 $296 -8.3946464505988896 $413 8.3946464505988896 $295 $484 forward 7 unknown #
vertex $-1 $411 $485 #
straight-curve $-1 -62.422559282204659 -32.559288398330274 0 0 0 -1 I I #
edge $-1 $409 -32.559288398330274 $413 32.559288398330274 $407 $486 forward 7 unknown #
straight-curve $-1 0 -32.559288398330274 -8.3946464505988896 -1 0 0 I I #
vertex $-1 $288 $487 #
straight-curve $-1 0 32.559288398330274 -8.3946464505988896 1 0 0 I I #
point $-1 62.422559282204659 32.559288398330274 -8.3946464505988896 #
point $-1 62.422559282204659 -32.559288398330274 -8.3946464505988896 #
straight-curve $-1 -62.422559282204659 0 8.3946464505988896 0 -1 0 I I #
point $-1 -62.422559282204659 32.559288398330274 8.3946464505988896 #
point $-1 -62.422559282204659 -32.559288398330274 8.3946464505988896 #
straight-curve $-1 62.422559282204659 -32.559288398330274 0 0 0 -1 I I #
straight-curve $-1 62.422559282204659 32.559288398330274 0 0 0 -1 I I #
loop $-1 $-1 $311 $305 #
plane-surface $-1 0 -32.559288398330274 0 0 1 0 0 0 1 forward_v I I I I #
coedge $-1 $322 $313 $309 $426 forward $306 $-1 #
edge $-1 $430 -18.711534872708256 $317 -8.9839721785357742 $308 $488 forward 7 unknown #
edge $-1 $318 8.9839721785357742 $429 18.711534872708256 $424 $489 forward 7 unknown #
coedge $-1 $320 $311 $325 $439 reversed $422 $-1 #
coedge $-1 $311 $320 $322 $437 reversed $422 $-1 #
vertex $-1 $437 $490 #
vertex $-1 $312 $491 #
straight-curve $-1 -45.633266381006877 -32.559288398330274 0 0 0 1 I I #
straight-curve $-1 -23.584120665840871 -22.83172570415779 -8.3946464505988896 1 0 0 I I #
straight-curve $-1 -23.584120665840871 -22.83172570415779 8.3946464505988896 -1 0 0 I I #
point $-1 -45.633266381006877 -22.83172570415779 8.3946464505988896 #
point $-1 -45.633266381006877 -22.83172570415779 -8.3946464505988896 #
straight-curve $-1 -48.703216282356607 -32.559288398330274 0 0 0 -1 I I #
edge $-1 $429 45.633266381006877 $323 48.703216282356607 $428 $492 forward 7 unknown #
point $-1 -48.703216282356607 -32.559288398330274 -8.3946464505988896 #
edge $-1 $326 -48.703216282356607 $430 -45.633266381006877 $427 $493 forward 7 unknown #
point $-1 -48.703216282356607 -32.559288398330274 8.3946464505988896 #
plane-surface $-1 0 32.559288398330274 0 0 -1 0 0 0 -1 forward_v I I I I #
coedge $-1 $333 $337 $342 $452 forward $216 $-1 #
edge $-1 $494 -18.711534872708253 $347 -8.9839721785357725 $333 $495 forward 7 unknown #
coedge $-1 $335 $334 $450 $496 reversed $129 $-1 #
edge $-1 $350 8.9839721785357725 $497 18.711534872708253 $349 $498 forward 7 unknown #
straight-curve $-1 -45.633266381006877 22.831725704157787 0 0 0 -1 I I #
straight-curve $-1 -48.703216282356607 13.847753525622014 -8.3946464505988896 0 1 0 I I #
coedge $-1 $339 $349 $341 $451 forward $331 $-1 #
straight-curve $-1 -48.703216282356607 13.847753525622014 8.3946464505988896 0 -1 0 I I #
coedge $-1 $342 $341 $444 $496 forward $343 $-1 #
edge $-1 $497 45.633266381006877 $345 48.703216282356607 $341 $499 forward 7 unknown #
edge $-1 $344 -48.703216282356607 $494 -45.633266381006877 $342 $500 forward 7 unknown #
point $-1 -48.703216282356607 32.559288398330267 -8.3946464505988896 #
point $-1 -48.703216282356607 32.559288398330267 8.3946464505988896 #
point $-1 -45.633266381006877 22.831725704157787 -8.3946464505988896 #
point $-1 -45.633266381006877 22.831725704157787 8.3946464505988896 #
edge $-1 $458 40.501493262807344 $461 45.325666445357918 $355 $501 forward 7 unknown #
vertex $-1 $369 $502 #
straight-curve $-1 -72.164163768907329 14.602725071898796 8.3946464505988914 -1 0 0 I I #
edge $-1 $461 -10.596597990692601 $366 2.5843438282802111 $365 $503 forward 7 unknown #
vertex $-1 $460 $504 #
straight-curve $-1 -62.422559282204674 14.602725071898796 3.5704732680483033 0.75470957328743171 0 0.6560590369687036 I I #
point $-1 -56.872982980520248 14.602725071898796 8.3946464505988896 #
point $-1 -62.422559282204659 1.4217832529259837 3.5704732680483158 #
straight-curve $-1 -62.422559282204659 0 8.3946464505988896 0 -1 0 I I #
vertex $-1 $372 $505 #
point $-1 -57.388812910122532 5.1877666297753606 4.9081788120281002 #
vertex $-1 $376 $506 #
point $-1 -57.388812910122532 10.836741695049426 4.9081788120281002 #
coedge $-1 $391 $390 $383 $471 forward $380 $-1 #
edge $-1 $472 81.151720427696034 $475 87.011292991569789 $470 $507 forward 7 unknown #
vertex $-1 $395 $508 #
straight-curve $-1 31.211280665362011 -22.83172570415779 8.3946464505988843 1 0 0 I I #
edge $-1 $475 -13.783581526820948 $392 -4.3127068278527378 $391 $509 forward 7 unknown #
vertex $-1 $474 $510 #
straight-curve $-1 -25.856269628468013 -22.83172570415779 90.813904845917165 -0.70710677298230451 0 0.70710678939079041 I I #
point $-1 56.562986854302878 -22.83172570415779 8.3946464505988843 #
point $-1 62.422559282204659 -13.360851005189581 2.5350738867251295 #
straight-curve $-1 62.422559282204659 0 8.3946464505988896 0 1 0 I I #
vertex $-1 $398 $511 #
point $-1 59.231678504134493 -20.125761504452587 3.7895520646368426 #
vertex $-1 $402 $512 #
point $-1 59.231678504134493 -16.066815204894784 3.7895520646368426 #
straight-curve $-1 -62.422559282204659 32.559288398330274 0 0 0 -1 I I #
point $-1 -62.422559282204659 -32.559288398330274 -8.3946464505988896 #
straight-curve $-1 -62.422559282204659 0 -8.3946464505988896 0 1 0 I I #
point $-1 -62.422559282204659 32.559288398330274 -8.3946464505988896 #
straight-curve $-1 -45.633266381006877 -13.847753525622016 8.3946464505988896 0 1 0 I I #
straight-curve $-1 -45.633266381006877 -13.847753525622016 -8.3946464505988896 0 -1 0 I I #
point $-1 -45.633266381006877 -32.559288398330274 -8.3946464505988896 #
point $-1 -45.633266381006877 -32.559288398330274 8.3946464505988896 #
straight-curve $-1 0 -32.559288398330274 -8.3946464505988896 -1 0 0 I I #
straight-curve $-1 0 -32.559288398330274 8.3946464505988896 1 0 0 I I #
vertex $-1 $496 $513 #
straight-curve $-1 -45.633266381006877 13.847753525622014 -8.3946464505988896 0 -1 0 I I #
edge $-1 $497 -8.3946464505988896 $494 8.3946464505988896 $450 $514 forward 7 unknown #
vertex $-1 $451 $515 #
straight-curve $-1 -45.633266381006877 13.847753525622014 8.3946464505988896 0 1 0 I I #
straight-curve $-1 0 32.559288398330274 8.3946464505988896 -1 0 0 I I #
straight-curve $-1 0 32.559288398330274 -8.3946464505988896 1 0 0 I I #
straight-curve $-1 -62.422559282204659 14.602725071898796 48.896139713406235 0 0 -1 I I #
point $-1 -62.422559282204659 14.602725071898796 8.3946464505988896 #
straight-curve $-1 -62.422559282204659 4.0061270812061949 3.5704732680483131 0 -1 0 I I #
point $-1 -62.422559282204659 14.602725071898796 3.5704732680483158 #
point $-1 -57.487463446441261 5.1877666297753606 3.4974102017719648 #
point $-1 -57.487463446441261 10.836741695049426 3.4974102017719648 #
straight-curve $-1 62.422559282204659 -22.83172570415779 89.546366878294918 0 0 -1 I I #
point $-1 62.422559282204659 -22.83172570415779 8.3946464505988896 #
straight-curve $-1 62.422559282204659 -9.0481441773368427 2.5350738867251295 0 1 0 I I #
point $-1 62.422559282204659 -22.83172570415779 2.5350738867251295 #
point $-1 57.817464941761401 -20.125761504452587 3.7895520810453287 #
point $-1 57.817464941761401 -16.066815204894784 3.7895520810453287 #
point $-1 -45.633266381006877 32.559288398330267 -8.3946464505988896 #
straight-curve $-1 -45.633266381006877 32.559288398330274 0 0 0 -1 I I #
point $-1 -45.633266381006877 32.559288398330267 8.3946464505988896 #
End-of-ACIS-data 