500 0 19 0           
7 Unknown 11 ACIS 5.0 NT 24 Fri Mar 26 15:17:54 1999 
-1 9.9999999999999995e-007 1e-010 
body $-1 $19 $-1 $20 #
body $-1 $21 $-1 $22 #
body $-1 $23 $-1 $24 #
body $-1 $25 $-1 $26 #
body $-1 $27 $-1 $28 #
body $-1 $29 $-1 $30 #
body $-1 $31 $-1 $32 #
body $-1 $33 $-1 $34 #
body $-1 $35 $-1 $36 #
body $-1 $37 $-1 $38 #
body $-1 $39 $-1 $40 #
body $-1 $41 $-1 $42 #
body $-1 $43 $-1 $44 #
body $-1 $45 $-1 $46 #
body $-1 $47 $-1 $48 #
body $-1 $49 $-1 $50 #
body $-1 $51 $-1 $52 #
body $-1 $53 $-1 $54 #
body $-1 $55 $-1 $56 #
lump $-1 $-1 $57 $0 #
transform $-1 1 0 0 0 1 0 0 0 1 45.328531754509108 21.518291094533055 10.502439105149369 1 rotate no_reflect no_shear #
lump $-1 $-1 $58 $1 #
transform $-1 1 0 0 0 1 0 0 0 1 45.328531754509108 21.518291094533055 10.502439105149369 1 rotate no_reflect no_shear #
lump $-1 $-1 $59 $2 #
transform $-1 1 0 0 0 1 0 0 0 1 45.328531754509108 21.518291094533055 10.502439105149369 1 rotate no_reflect no_shear #
lump $-1 $-1 $60 $3 #
transform $-1 1 0 0 0 1 0 0 0 1 45.328531754509108 21.518291094533055 10.502439105149369 1 rotate no_reflect no_shear #
lump $-1 $-1 $61 $4 #
transform $-1 1 0 0 0 1 0 0 0 1 45.328531754509108 21.518291094533055 10.502439105149369 1 rotate no_reflect no_shear #
lump $-1 $-1 $62 $5 #
transform $-1 1 0 0 0 1 0 0 0 1 45.328531754509108 21.518291094533055 10.502439105149369 1 rotate no_reflect no_shear #
lump $-1 $-1 $63 $6 #
transform $-1 1 0 0 0 1 0 0 0 1 45.328531754509108 21.518291094533055 10.502439105149369 1 rotate no_reflect no_shear #
lump $-1 $-1 $64 $7 #
transform $-1 1 0 0 0 1 0 0 0 1 45.328531754509108 21.518291094533055 10.502439105149369 1 rotate no_reflect no_shear #
lump $-1 $-1 $65 $8 #
transform $-1 1 0 0 0 1 0 0 0 1 45.328531754509108 21.518291094533055 10.502439105149369 1 rotate no_reflect no_shear #
lump $-1 $-1 $66 $9 #
transform $-1 1 0 0 0 1 0 0 0 1 45.328531754509108 21.518291094533055 10.502439105149369 1 rotate no_reflect no_shear #
lump $-1 $-1 $67 $10 #
transform $-1 1 0 0 0 1 0 0 0 1 45.328531754509108 21.518291094533055 10.502439105149369 1 rotate no_reflect no_shear #
lump $-1 $-1 $68 $11 #
transform $-1 1 0 0 0 1 0 0 0 1 45.328531754509108 21.518291094533055 10.502439105149369 1 rotate no_reflect no_shear #
lump $-1 $-1 $69 $12 #
transform $-1 1 0 0 0 1 0 0 0 1 45.328531754509108 21.518291094533055 10.502439105149369 1 rotate no_reflect no_shear #
lump $-1 $-1 $70 $13 #
transform $-1 1 0 0 0 1 0 0 0 1 45.328531754509108 21.518291094533055 10.502439105149369 1 rotate no_reflect no_shear #
lump $-1 $-1 $71 $14 #
transform $-1 1 0 0 0 1 0 0 0 1 45.328531754509108 21.518291094533055 10.502439105149369 1 rotate no_reflect no_shear #
lump $-1 $-1 $72 $15 #
transform $-1 1 0 0 0 1 0 0 0 1 45.328531754509108 21.518291094533055 10.502439105149369 1 rotate no_reflect no_shear #
lump $-1 $-1 $73 $16 #
transform $-1 1 0 0 0 1 0 0 0 1 45.328531754509108 21.518291094533055 10.502439105149369 1 rotate no_reflect no_shear #
lump $-1 $-1 $74 $17 #
transform $-1 1 0 0 0 1 0 0 0 1 45.328531754509108 21.518291094533055 10.502439105149369 1 rotate no_reflect no_shear #
lump $-1 $-1 $75 $18 #
transform $-1 1 0 0 0 1 0 0 0 1 45.328531754509108 21.518291094533055 10.502439105149369 1 rotate no_reflect no_shear #
shell $-1 $-1 $-1 $76 $-1 $19 #
shell $-1 $-1 $-1 $77 $-1 $21 #
shell $-1 $-1 $-1 $78 $-1 $23 #
shell $-1 $-1 $-1 $79 $-1 $25 #
shell $-1 $-1 $-1 $80 $-1 $27 #
shell $-1 $-1 $-1 $81 $-1 $29 #
shell $-1 $-1 $-1 $82 $-1 $31 #
shell $-1 $-1 $-1 $83 $-1 $33 #
shell $-1 $-1 $-1 $84 $-1 $35 #
shell $-1 $-1 $-1 $85 $-1 $37 #
shell $-1 $-1 $-1 $86 $-1 $39 #
shell $-1 $-1 $-1 $87 $-1 $41 #
shell $-1 $-1 $-1 $88 $-1 $43 #
shell $-1 $-1 $-1 $89 $-1 $45 #
shell $-1 $-1 $-1 $90 $-1 $47 #
shell $-1 $-1 $-1 $91 $-1 $49 #
shell $-1 $-1 $-1 $92 $-1 $51 #
shell $-1 $-1 $-1 $93 $-1 $53 #
shell $-1 $-1 $-1 $94 $-1 $55 #
face $-1 $95 $96 $57 $-1 $97 reversed single #
face $-1 $98 $99 $58 $-1 $100 forward single #
face $-1 $101 $102 $59 $-1 $103 forward single #
face $-1 $104 $105 $60 $-1 $106 reversed single #
face $-1 $107 $108 $61 $-1 $109 forward single #
face $-1 $110 $111 $62 $-1 $112 forward single #
face $-1 $113 $114 $63 $-1 $115 forward single #
face $-1 $116 $117 $64 $-1 $118 reversed single #
face $-1 $119 $120 $65 $-1 $121 forward single #
face $-1 $122 $123 $66 $-1 $124 forward single #
face $-1 $125 $126 $67 $-1 $127 forward single #
face $-1 $128 $129 $68 $-1 $130 reversed single #
face $-1 $131 $132 $69 $-1 $133 forward single #
face $-1 $134 $135 $70 $-1 $136 forward single #
face $-1 $137 $138 $71 $-1 $139 forward single #
face $-1 $140 $141 $72 $-1 $142 reversed single #
face $-1 $143 $144 $73 $-1 $145 forward single #
face $-1 $146 $147 $74 $-1 $148 forward single #
face $-1 $149 $150 $75 $-1 $151 forward single #
face $-1 $152 $153 $57 $-1 $154 reversed single #
loop $-1 $-1 $155 $76 #
plane-surface $-1 0 21.518291094533055 0 0 -1 0 0 0 -1 forward_v I I I I #
face $-1 $156 $157 $58 $-1 $158 reversed single #
loop $-1 $-1 $159 $77 #
plane-surface $-1 0 -21.518291094533055 0 0 1 0 0 0 1 forward_v I I I I #
face $-1 $160 $161 $59 $-1 $162 reversed single #
loop $-1 $-1 $163 $78 #
plane-surface $-1 0 21.518291094533055 0 0 -1 0 0 0 -1 forward_v I I I I #
face $-1 $164 $165 $60 $-1 $166 reversed single #
loop $-1 $-1 $167 $79 #
plane-surface $-1 -121.3599434215302 -8.5704867995026177 54.001806079257214 0 1 0 -0.83867057594974714 0 0.54463902268945019 forward_v I I I I #
face $-1 $168 $169 $61 $-1 $170 forward single #
loop $-1 $171 $172 $80 #
cone-surface $-1 -43.001234585343106 -7.5628555481152215 7.2921158461350188 0.83867057594974714 0 -0.54463902268945019 0.2723195113447251 0 0.41933528797487357 1 I I 0 1 0.5 forward I I I I #
face $-1 $173 $174 $62 $-1 $175 forward single #
loop $-1 $176 $177 $81 #
cone-surface $-1 -43.001234585343106 -6.0514086710341246 7.2921158461350188 0.83867057594974714 0 -0.54463902268945019 0.2723195113447251 0 0.41933528797487357 1 I I 0 1 0.5 forward I I I I #
face $-1 $178 $179 $63 $-1 $180 forward single #
loop $-1 $181 $182 $82 #
cone-surface $-1 -43.001234585343106 -4.5399617939530295 7.2921158461350188 0.83867057594974714 0 -0.54463902268945019 0.2723195113447251 0 0.41933528797487357 1 I I 0 1 0.5 forward I I I I #
face $-1 $183 $184 $64 $-1 $185 reversed single #
loop $-1 $-1 $186 $83 #
plane-surface $-1 -121.3599434215302 -2.519078128468494 54.001806079257214 0 1 0 -0.83867057594974714 0 0.54463902268945019 forward_v I I I I #
face $-1 $187 $188 $65 $-1 $189 forward single #
loop $-1 $190 $191 $84 #
cone-surface $-1 -43.001234585343106 -1.5114468770810987 7.2921158461350188 0.83867057594974714 0 -0.54463902268945019 0.2723195113447251 0 0.41933528797487357 1 I I 0 1 0.5 forward I I I I #
face $-1 $192 $193 $66 $-1 $194 forward single #
loop $-1 $195 $196 $85 #
cone-surface $-1 -43.001234585343106 0 7.2921158461350188 0.83867057594974714 0 -0.54463902268945019 0.2723195113447251 0 0.41933528797487357 1 I I 0 1 0.5 forward I I I I #
face $-1 $197 $198 $67 $-1 $199 forward single #
loop $-1 $200 $201 $86 #
cone-surface $-1 -43.001234585343106 1.5114468770810952 7.2921158461350188 0.83867057594974714 0 -0.54463902268945019 0.2723195113447251 0 0.41933528797487357 1 I I 0 1 0.5 forward I I I I #
face $-1 $202 $203 $68 $-1 $204 reversed single #
loop $-1 $-1 $205 $87 #
plane-surface $-1 -121.3599434215302 3.5323305425656306 54.001806079257214 0 1 0 -0.83867057594974714 0 0.54463902268945019 forward_v I I I I #
face $-1 $206 $207 $69 $-1 $208 forward single #
loop $-1 $209 $210 $88 #
cone-surface $-1 -43.001234585343106 4.5399617939530259 7.2921158461350188 0.83867057594974714 0 -0.54463902268945019 0.2723195113447251 0 0.41933528797487357 1 I I 0 1 0.5 forward I I I I #
face $-1 $211 $212 $70 $-1 $213 forward single #
loop $-1 $214 $215 $89 #
cone-surface $-1 -43.001234585343106 6.0514086710341246 7.2921158461350188 0.83867057594974714 0 -0.54463902268945019 0.2723195113447251 0 0.41933528797487357 1 I I 0 1 0.5 forward I I I I #
face $-1 $216 $217 $71 $-1 $218 forward single #
loop $-1 $219 $220 $90 #
cone-surface $-1 -43.001234585343106 7.5628555481152198 7.2921158461350188 0.83867057594974714 0 -0.54463902268945019 0.2723195113447251 0 0.41933528797487357 1 I I 0 1 0.5 forward I I I I #
face $-1 $221 $222 $72 $-1 $223 reversed single #
loop $-1 $-1 $224 $91 #
plane-surface $-1 49.802943641233419 1.8908738256262083 131.09267420620844 0 -1 0 -0.73135370988377701 0 -0.68199835119979291 forward_v I I I I #
face $-1 $225 $226 $73 $-1 $227 forward single #
loop $-1 $228 $229 $92 #
cone-surface $-1 41.318613841989347 -3.1781041801929142 6.2714558904974824 -0.73135370988377701 0 -0.68199835119979291 0.34099917559989645 0 -0.36567685494188851 1 I I 0 1 0.5 forward I I I I #
face $-1 $230 $231 $74 $-1 $232 forward single #
loop $-1 $233 $234 $93 #
cone-surface $-1 41.318613841989347 -1.2772374280107428 6.2714558904974824 -0.73135370988377701 0 -0.68199835119979291 0.34099917559989645 0 -0.36567685494188851 1 I I 0 1 0.5 forward I I I I #
face $-1 $235 $236 $75 $-1 $237 forward single #
loop $-1 $238 $239 $94 #
cone-surface $-1 41.318613841989347 0.62362932417142858 6.2714558904974824 -0.73135370988377701 0 -0.68199835119979291 0.34099917559989645 0 -0.36567685494188851 1 I I 0 1 0.5 forward I I I I #
face $-1 $240 $241 $57 $-1 $242 forward single #
loop $-1 $-1 $243 $95 #
plane-surface $-1 0 -21.518291094533055 0 0 1 0 0 0 1 forward_v I I I I #
coedge $-1 $244 $245 $246 $247 reversed $96 $-1 #
face $-1 $248 $249 $58 $-1 $250 reversed single #
loop $-1 $-1 $251 $98 #
plane-surface $-1 0 0 -10.502439105149369 0 0 1 1 0 0 forward_v I I I I #
coedge $-1 $252 $253 $254 $255 forward $99 $-1 #
face $-1 $256 $257 $59 $-1 $258 reversed single #
loop $-1 $-1 $259 $101 #
plane-surface $-1 0 0 -10.502439105149369 0 0 1 1 0 0 forward_v I I I I #
coedge $-1 $260 $261 $262 $263 forward $102 $-1 #
face $-1 $264 $265 $60 $-1 $266 reversed single #
loop $-1 $-1 $267 $104 #
plane-surface $-1 -45.328531754509086 -6.0514086710341246 4.626431609810119 -0.83867057594974714 0 0.54463902268945019 0.54463902268945019 0 0.83867057594974714 forward_v I I I I #
coedge $-1 $268 $269 $270 $271 reversed $105 $-1 #
face $-1 $-1 $272 $61 $-1 $273 forward single #
loop $-1 $274 $275 $107 #
cone-surface $-1 -42.372231653380794 -7.5628555481152215 6.8836365791179315 0.83867057594974714 0 -0.54463902268945019 0.13615975567236255 0 0.20966764398743679 1 I I -0.70710678118654746 0.70710678118654746 0.25 forward I I I I #
loop $-1 $-1 $276 $80 #
coedge $-1 $172 $172 $277 $278 reversed $108 $-1 #
face $-1 $-1 $279 $62 $-1 $280 forward single #
loop $-1 $281 $282 $110 #
cone-surface $-1 -42.372231653380794 -6.0514086710341246 6.8836365791179315 0.83867057594974714 0 -0.54463902268945019 0.13615975567236255 0 0.20966764398743679 1 I I -0.70710678118654746 0.70710678118654746 0.25 forward I I I I #
loop $-1 $-1 $283 $81 #
coedge $-1 $177 $177 $284 $285 reversed $111 $-1 #
face $-1 $-1 $286 $63 $-1 $287 forward single #
loop $-1 $288 $289 $113 #
cone-surface $-1 -42.372231653380794 -4.5399617939530295 6.8836365791179315 0.83867057594974714 0 -0.54463902268945019 0.13615975567236255 0 0.20966764398743679 1 I I -0.70710678118654746 0.70710678118654746 0.25 forward I I I I #
loop $-1 $-1 $290 $82 #
coedge $-1 $182 $182 $291 $292 reversed $114 $-1 #
face $-1 $293 $294 $64 $-1 $295 reversed single #
loop $-1 $-1 $296 $116 #
plane-surface $-1 -45.328531754509086 0 4.626431609810119 -0.83867057594974714 0 0.54463902268945019 0.54463902268945019 0 0.83867057594974714 forward_v I I I I #
coedge $-1 $297 $298 $299 $300 reversed $117 $-1 #
face $-1 $-1 $301 $65 $-1 $302 forward single #
loop $-1 $303 $304 $119 #
cone-surface $-1 -42.372231653380794 -1.5114468770810987 6.8836365791179315 0.83867057594974714 0 -0.54463902268945019 0.13615975567236255 0 0.20966764398743679 1 I I -0.70710678118654746 0.70710678118654746 0.25 forward I I I I #
loop $-1 $-1 $305 $84 #
coedge $-1 $191 $191 $306 $307 reversed $120 $-1 #
face $-1 $-1 $308 $66 $-1 $309 forward single #
loop $-1 $310 $311 $122 #
cone-surface $-1 -42.372231653380794 0 6.8836365791179315 0.83867057594974714 0 -0.54463902268945019 0.13615975567236255 0 0.20966764398743679 1 I I -0.70710678118654746 0.70710678118654746 0.25 forward I I I I #
loop $-1 $-1 $312 $85 #
coedge $-1 $196 $196 $313 $314 reversed $123 $-1 #
face $-1 $-1 $315 $67 $-1 $316 forward single #
loop $-1 $317 $318 $125 #
cone-surface $-1 -42.372231653380794 1.5114468770810952 6.8836365791179315 0.83867057594974714 0 -0.54463902268945019 0.13615975567236255 0 0.20966764398743679 1 I I -0.70710678118654746 0.70710678118654746 0.25 forward I I I I #
loop $-1 $-1 $319 $86 #
coedge $-1 $201 $201 $320 $321 reversed $126 $-1 #
face $-1 $322 $323 $68 $-1 $324 reversed single #
loop $-1 $-1 $325 $128 #
plane-surface $-1 -45.328531754509086 6.0514086710341246 4.626431609810119 -0.83867057594974714 0 0.54463902268945019 0.54463902268945019 0 0.83867057594974714 forward_v I I I I #
coedge $-1 $326 $327 $328 $329 reversed $129 $-1 #
face $-1 $-1 $330 $69 $-1 $331 forward single #
loop $-1 $332 $333 $131 #
cone-surface $-1 -42.372231653380794 4.5399617939530259 6.8836365791179315 0.83867057594974714 0 -0.54463902268945019 0.13615975567236255 0 0.20966764398743679 1 I I -0.70710678118654746 0.70710678118654746 0.25 forward I I I I #
loop $-1 $-1 $334 $88 #
coedge $-1 $210 $210 $335 $336 reversed $132 $-1 #
face $-1 $-1 $337 $70 $-1 $338 forward single #
loop $-1 $339 $340 $134 #
cone-surface $-1 -42.372231653380794 6.0514086710341246 6.8836365791179315 0.83867057594974714 0 -0.54463902268945019 0.13615975567236255 0 0.20966764398743679 1 I I -0.70710678118654746 0.70710678118654746 0.25 forward I I I I #
loop $-1 $-1 $341 $89 #
coedge $-1 $215 $215 $342 $343 reversed $135 $-1 #
face $-1 $-1 $344 $71 $-1 $345 forward single #
loop $-1 $346 $347 $137 #
cone-surface $-1 -42.372231653380794 7.5628555481152198 6.8836365791179315 0.83867057594974714 0 -0.54463902268945019 0.13615975567236255 0 0.20966764398743679 1 I I -0.70710678118654746 0.70710678118654746 0.25 forward I I I I #
loop $-1 $-1 $348 $90 #
coedge $-1 $220 $220 $349 $350 reversed $138 $-1 #
face $-1 $351 $352 $72 $-1 $353 reversed single #
loop $-1 $-1 $354 $140 #
plane-surface $-1 -16.499436083256235 -1.2772374280107428 69.264706368443115 0.73135370988377701 0 0.68199835119979291 0.68199835119979291 0 -0.73135370988377701 forward_v I I I I #
coedge $-1 $355 $356 $357 $358 reversed $141 $-1 #
face $-1 $-1 $359 $73 $-1 $360 forward single #
loop $-1 $361 $362 $143 #
cone-surface $-1 40.641491727203992 -3.1781041801929142 5.6400293186436077 -0.73135370988377701 0 -0.68199835119979291 0.17049958779994823 0 -0.18283842747094425 1 I I -0.70710678118654746 0.70710678118654746 0.25 forward I I I I #
loop $-1 $-1 $363 $92 #
coedge $-1 $229 $229 $364 $365 reversed $144 $-1 #
face $-1 $-1 $366 $74 $-1 $367 forward single #
loop $-1 $368 $369 $146 #
cone-surface $-1 40.641491727203992 -1.2772374280107428 5.6400293186436077 -0.73135370988377701 0 -0.68199835119979291 0.17049958779994823 0 -0.18283842747094425 1 I I -0.70710678118654746 0.70710678118654746 0.25 forward I I I I #
loop $-1 $-1 $370 $93 #
coedge $-1 $234 $234 $371 $372 reversed $147 $-1 #
face $-1 $-1 $373 $75 $-1 $374 forward single #
loop $-1 $375 $376 $149 #
cone-surface $-1 40.641491727203992 0.62362932417142858 5.6400293186436077 -0.73135370988377701 0 -0.68199835119979291 0.17049958779994823 0 -0.18283842747094425 1 I I -0.70710678118654746 0.70710678118654746 0.25 forward I I I I #
loop $-1 $-1 $377 $94 #
coedge $-1 $239 $239 $378 $379 reversed $150 $-1 #
face $-1 $380 $381 $57 $-1 $382 reversed single #
loop $-1 $-1 $383 $152 #
plane-surface $-1 0 0 10.502439105149369 0 0 1 1 0 0 forward_v I I I I #
coedge $-1 $384 $385 $386 $387 reversed $153 $-1 #
coedge $-1 $388 $155 $389 $390 reversed $96 $-1 #
coedge $-1 $155 $388 $391 $392 forward $96 $-1 #
coedge $-1 $393 $394 $155 $247 forward $381 $-1 #
edge $-1 $395 -45.328531754509108 $396 45.328531754509108 $155 $397 forward 7 unknown #
face $-1 $398 $399 $58 $-1 $400 reversed single #
loop $-1 $-1 $401 $156 #
plane-surface $-1 -33.369471365998947 -32.439590561369222 0 0 1 0 0 0 1 forward_v I I I I #
coedge $-1 $402 $403 $253 $404 forward $157 $-1 #
coedge $-1 $405 $159 $406 $407 reversed $99 $-1 #
coedge $-1 $159 $405 $251 $404 reversed $99 $-1 #
coedge $-1 $408 $409 $159 $255 reversed $399 $-1 #
edge $-1 $410 -10.502439105149369 $411 10.502439105149369 $254 $412 forward 7 unknown #
face $-1 $413 $414 $59 $-1 $415 reversed single #
loop $-1 $-1 $416 $160 #
plane-surface $-1 -35.947436024546477 26.978940827951135 0 1 0 0 0 0 -1 forward_v I I I I #
coedge $-1 $417 $418 $261 $419 forward $161 $-1 #
coedge $-1 $420 $163 $421 $422 reversed $102 $-1 #
coedge $-1 $163 $420 $259 $419 reversed $102 $-1 #
coedge $-1 $423 $424 $163 $263 reversed $425 $-1 #
edge $-1 $426 -10.502439105149369 $427 10.502439105149369 $262 $428 forward 7 unknown #
face $-1 $429 $430 $60 $-1 $431 reversed single #
loop $-1 $-1 $432 $164 #
plane-surface $-1 -121.3599434215302 -3.5323305425656306 54.001806079257214 0 -1 0 0.83867057594974714 0 -0.54463902268945019 forward_v I I I I #
coedge $-1 $433 $434 $435 $436 reversed $165 $-1 #
coedge $-1 $269 $167 $437 $438 reversed $105 $-1 #
coedge $-1 $167 $268 $433 $439 reversed $105 $-1 #
coedge $-1 $435 $440 $167 $271 forward $441 $-1 #
edge $-1 $442 15.351439956255994 $443 19.167363718638271 $270 $444 forward 7 unknown #
loop $-1 $-1 $277 $168 #
plane-surface $-1 -45.328531754509086 -6.0514086710341246 4.626431609810119 -0.83867057594974714 0 0.54463902268945019 0.54463902268945019 0 0.83867057594974714 forward_v I I I I #
loop $-1 $-1 $445 $107 #
coedge $-1 $275 $275 $276 $446 reversed $169 $-1 #
coedge $-1 $276 $276 $275 $446 forward $171 $-1 #
coedge $-1 $277 $277 $172 $278 forward $272 $-1 #
edge $-1 $447 0 $447 6.2831853071796004 $277 $448 forward 7 unknown #
loop $-1 $-1 $284 $173 #
plane-surface $-1 -45.328531754509086 -6.0514086710341246 4.626431609810119 -0.83867057594974714 0 0.54463902268945019 0.54463902268945019 0 0.83867057594974714 forward_v I I I I #
loop $-1 $-1 $449 $110 #
coedge $-1 $282 $282 $283 $450 reversed $174 $-1 #
coedge $-1 $283 $283 $282 $450 forward $176 $-1 #
coedge $-1 $284 $284 $177 $285 forward $279 $-1 #
edge $-1 $451 0 $451 6.2831853071796004 $284 $452 forward 7 unknown #
loop $-1 $-1 $291 $178 #
plane-surface $-1 -45.328531754509086 -6.0514086710341246 4.626431609810119 -0.83867057594974714 0 0.54463902268945019 0.54463902268945019 0 0.83867057594974714 forward_v I I I I #
loop $-1 $-1 $453 $113 #
coedge $-1 $289 $289 $290 $454 reversed $179 $-1 #
coedge $-1 $290 $290 $289 $454 forward $181 $-1 #
coedge $-1 $291 $291 $182 $292 forward $286 $-1 #
edge $-1 $455 0 $455 6.2831853071796004 $291 $456 forward 7 unknown #
face $-1 $457 $458 $64 $-1 $459 forward single #
loop $-1 $-1 $460 $183 #
plane-surface $-1 -121.3599434215302 2.519078128468494 54.001806079257214 0 -1 0 0.83867057594974714 0 -0.54463902268945019 forward_v I I I I #
coedge $-1 $461 $462 $463 $464 reversed $184 $-1 #
coedge $-1 $298 $186 $465 $466 reversed $117 $-1 #
coedge $-1 $186 $297 $461 $467 reversed $117 $-1 #
coedge $-1 $463 $468 $186 $300 forward $458 $-1 #
edge $-1 $469 15.351439956255994 $470 19.167363718638271 $299 $471 forward 7 unknown #
loop $-1 $-1 $306 $187 #
plane-surface $-1 -45.328531754509086 0 4.626431609810119 -0.83867057594974714 0 0.54463902268945019 0.54463902268945019 0 0.83867057594974714 forward_v I I I I #
loop $-1 $-1 $472 $119 #
coedge $-1 $304 $304 $305 $473 reversed $188 $-1 #
coedge $-1 $305 $305 $304 $473 forward $190 $-1 #
coedge $-1 $306 $306 $191 $307 forward $301 $-1 #
edge $-1 $474 0 $474 6.2831853071796004 $306 $475 forward 7 unknown #
loop $-1 $-1 $313 $192 #
plane-surface $-1 -45.328531754509086 0 4.626431609810119 -0.83867057594974714 0 0.54463902268945019 0.54463902268945019 0 0.83867057594974714 forward_v I I I I #
loop $-1 $-1 $476 $122 #
coedge $-1 $311 $311 $312 $477 reversed $193 $-1 #
coedge $-1 $312 $312 $311 $477 forward $195 $-1 #
coedge $-1 $313 $313 $196 $314 forward $308 $-1 #
edge $-1 $478 0 $478 6.2831853071796004 $313 $479 forward 7 unknown #
loop $-1 $-1 $320 $197 #
plane-surface $-1 -45.328531754509086 0 4.626431609810119 -0.83867057594974714 0 0.54463902268945019 0.54463902268945019 0 0.83867057594974714 forward_v I I I I #
loop $-1 $-1 $480 $125 #
coedge $-1 $318 $318 $319 $481 reversed $198 $-1 #
coedge $-1 $319 $319 $318 $481 forward $200 $-1 #
coedge $-1 $320 $320 $201 $321 forward $315 $-1 #
edge $-1 $482 0 $482 6.2831853071796004 $320 $483 forward 7 unknown #
face $-1 $484 $485 $68 $-1 $486 forward single #
loop $-1 $-1 $487 $202 #
plane-surface $-1 -121.3599434215302 8.5704867995026177 54.001806079257214 0 -1 0 0.83867057594974714 0 -0.54463902268945019 forward_v I I I I #
coedge $-1 $488 $489 $490 $491 reversed $203 $-1 #
coedge $-1 $327 $205 $492 $493 reversed $129 $-1 #
coedge $-1 $205 $326 $488 $494 reversed $129 $-1 #
coedge $-1 $490 $495 $205 $329 forward $485 $-1 #
edge $-1 $496 15.351439956255994 $497 19.167363718638271 $328 $498 forward 7 unknown #
loop $-1 $-1 $335 $206 #
plane-surface $-1 -45.328531754509086 6.0514086710341246 4.626431609810119 -0.83867057594974714 0 0.54463902268945019 0.54463902268945019 0 0.83867057594974714 forward_v I I I I #
loop $-1 $-1 $499 $131 #
coedge $-1 $333 $333 $334 $500 reversed $207 $-1 #
coedge $-1 $334 $334 $333 $500 forward $209 $-1 #
coedge $-1 $335 $335 $210 $336 forward $330 $-1 #
edge $-1 $501 0 $501 6.2831853071796004 $335 $502 forward 7 unknown #
loop $-1 $-1 $342 $211 #
plane-surface $-1 -45.328531754509086 6.0514086710341246 4.626431609810119 -0.83867057594974714 0 0.54463902268945019 0.54463902268945019 0 0.83867057594974714 forward_v I I I I #
loop $-1 $-1 $503 $134 #
coedge $-1 $340 $340 $341 $504 reversed $212 $-1 #
coedge $-1 $341 $341 $340 $504 forward $214 $-1 #
coedge $-1 $342 $342 $215 $343 forward $337 $-1 #
edge $-1 $505 0 $505 6.2831853071796004 $342 $506 forward 7 unknown #
loop $-1 $-1 $349 $216 #
plane-surface $-1 -45.328531754509086 6.0514086710341246 4.626431609810119 -0.83867057594974714 0 0.54463902268945019 0.54463902268945019 0 0.83867057594974714 forward_v I I I I #
loop $-1 $-1 $507 $137 #
coedge $-1 $347 $347 $348 $508 reversed $217 $-1 #
coedge $-1 $348 $348 $347 $508 forward $219 $-1 #
coedge $-1 $349 $349 $220 $350 forward $344 $-1 #
edge $-1 $509 0 $509 6.2831853071796004 $349 $510 forward 7 unknown #
face $-1 $511 $512 $72 $-1 $513 forward single #
loop $-1 $-1 $514 $221 #
plane-surface $-1 49.802943641233419 -4.4453486816476939 131.09267420620844 0 1 0 0.73135370988377701 0 0.68199835119979291 forward_v I I I I #
coedge $-1 $515 $516 $517 $518 reversed $222 $-1 #
coedge $-1 $356 $224 $519 $520 reversed $141 $-1 #
coedge $-1 $224 $355 $515 $521 reversed $141 $-1 #
coedge $-1 $517 $522 $224 $358 forward $512 $-1 #
edge $-1 $523 -20.427059933892398 $524 -13.395791483481684 $357 $525 forward 7 unknown #
loop $-1 $-1 $364 $225 #
plane-surface $-1 -16.499436083256235 -1.2772374280107428 69.264706368443115 0.73135370988377701 0 0.68199835119979291 0.68199835119979291 0 -0.73135370988377701 forward_v I I I I #
loop $-1 $-1 $526 $143 #
coedge $-1 $362 $362 $363 $527 reversed $226 $-1 #
coedge $-1 $363 $363 $362 $527 forward $228 $-1 #
coedge $-1 $364 $364 $229 $365 forward $359 $-1 #
edge $-1 $528 0 $528 6.2831853071796004 $364 $529 forward 7 unknown #
loop $-1 $-1 $371 $230 #
plane-surface $-1 -16.499436083256235 -1.2772374280107428 69.264706368443115 0.73135370988377701 0 0.68199835119979291 0.68199835119979291 0 -0.73135370988377701 forward_v I I I I #
loop $-1 $-1 $530 $146 #
coedge $-1 $369 $369 $370 $531 reversed $231 $-1 #
coedge $-1 $370 $370 $369 $531 forward $233 $-1 #
coedge $-1 $371 $371 $234 $372 forward $366 $-1 #
edge $-1 $532 0 $532 6.2831853071796004 $371 $533 forward 7 unknown #
loop $-1 $-1 $378 $235 #
plane-surface $-1 -16.499436083256235 -1.2772374280107428 69.264706368443115 0.73135370988377701 0 0.68199835119979291 0.68199835119979291 0 -0.73135370988377701 forward_v I I I I #
loop $-1 $-1 $534 $149 #
coedge $-1 $376 $376 $377 $535 reversed $236 $-1 #
coedge $-1 $377 $377 $376 $535 forward $238 $-1 #
coedge $-1 $378 $378 $239 $379 forward $373 $-1 #
edge $-1 $536 0 $536 6.2831853071796004 $378 $537 forward 7 unknown #
face $-1 $538 $539 $57 $-1 $540 reversed single #
loop $-1 $-1 $393 $240 #
plane-surface $-1 0 0 -10.502439105149369 0 0 1 1 0 0 forward_v I I I I #
coedge $-1 $541 $542 $543 $544 forward $241 $-1 #
coedge $-1 $545 $243 $546 $547 reversed $153 $-1 #
coedge $-1 $243 $545 $548 $549 forward $153 $-1 #
coedge $-1 $394 $393 $243 $387 forward $381 $-1 #
edge $-1 $550 -45.328531754509108 $551 45.328531754509108 $243 $552 forward 7 unknown #
coedge $-1 $245 $244 $541 $553 reversed $96 $-1 #
coedge $-1 $554 $555 $244 $390 forward $539 $-1 #
edge $-1 $556 -10.502439105149369 $395 10.502439105149369 $244 $557 forward 7 unknown #
coedge $-1 $543 $558 $245 $392 reversed $559 $-1 #
edge $-1 $560 -10.502439105149369 $396 10.502439105149369 $391 $561 forward 7 unknown #
coedge $-1 $386 $246 $558 $562 forward $381 $-1 #
coedge $-1 $246 $386 $554 $563 forward $381 $-1 #
vertex $-1 $247 $564 #
vertex $-1 $562 $565 #
straight-curve $-1 0 21.518291094533055 -10.502439105149369 1 0 0 I I #
face $-1 $566 $567 $58 $-1 $568 reversed single #
loop $-1 $-1 $254 $248 #
plane-surface $-1 -35.947436024546477 -26.978940827951138 0 1 0 0 0 0 -1 forward_v I I I I #
coedge $-1 $569 $570 $571 $572 forward $249 $-1 #
coedge $-1 $573 $251 $574 $575 forward $157 $-1 #
coedge $-1 $251 $573 $408 $576 forward $157 $-1 #
edge $-1 $410 -35.947436024546477 $577 -30.791506707451418 $251 $578 forward 7 unknown #
coedge $-1 $253 $252 $579 $580 forward $99 $-1 #
coedge $-1 $581 $582 $252 $407 forward $583 $-1 #
edge $-1 $584 30.791506707451418 $411 35.947436024546477 $406 $585 forward 7 unknown #
coedge $-1 $571 $254 $403 $576 reversed $399 $-1 #
coedge $-1 $254 $571 $581 $586 reversed $399 $-1 #
vertex $-1 $404 $587 #
vertex $-1 $586 $588 #
straight-curve $-1 -35.947436024546477 -21.518291094533055 0 0 0 1 I I #
face $-1 $589 $425 $59 $-1 $590 reversed single #
loop $-1 $-1 $591 $256 #
plane-surface $-1 -33.369471365998947 32.439590561369215 0 0 -1 0 0 0 -1 forward_v I I I I #
coedge $-1 $592 $593 $594 $595 forward $257 $-1 #
coedge $-1 $596 $259 $592 $597 forward $161 $-1 #
coedge $-1 $259 $596 $423 $598 forward $161 $-1 #
edge $-1 $426 30.791506707451418 $599 35.947436024546477 $259 $600 forward 7 unknown #
coedge $-1 $261 $260 $601 $602 forward $102 $-1 #
coedge $-1 $603 $604 $260 $422 forward $605 $-1 #
edge $-1 $606 -35.947436024546477 $427 -30.791506707451418 $421 $607 forward 7 unknown #
coedge $-1 $608 $262 $418 $598 reversed $425 $-1 #
coedge $-1 $262 $608 $603 $609 reversed $425 $-1 #
loop $-1 $-1 $262 $413 #
vertex $-1 $419 $610 #
vertex $-1 $609 $611 #
straight-curve $-1 -30.791506707451418 21.518291094533055 0 0 0 1 I I #
face $-1 $-1 $441 $60 $-1 $612 forward single #
loop $-1 $-1 $613 $264 #
plane-surface $-1 -45.328531754509108 0 0 1 0 0 0 0 -1 forward_v I I I I #
coedge $-1 $614 $615 $616 $617 reversed $265 $-1 #
coedge $-1 $618 $267 $269 $439 forward $165 $-1 #
coedge $-1 $267 $618 $614 $619 forward $165 $-1 #
coedge $-1 $616 $270 $267 $436 forward $441 $-1 #
edge $-1 $443 -5.5447824639855554 $620 -0.50662620704856831 $435 $621 forward 7 unknown #
coedge $-1 $622 $623 $268 $438 forward $430 $-1 #
edge $-1 $624 -22.37447142981852 $442 -16.49846393447924 $437 $625 forward 7 unknown #
edge $-1 $443 -7.0063355790025206 $624 3.9170575986957569e-014 $269 $626 forward 7 unknown #
coedge $-1 $270 $616 $622 $627 forward $441 $-1 #
loop $-1 $-1 $616 $429 #
vertex $-1 $438 $628 #
vertex $-1 $271 $629 #
straight-curve $-1 -60.679971710765102 -8.5704867995026177 10.502439105149371 1 0 0 I I #
coedge $-1 $445 $445 $-1 $630 reversed $274 $-1 #
edge $-1 $631 0 $631 6.2831853071796004 $275 $632 forward 7 unknown #
vertex $-1 $278 $633 #
ellipse-curve $-1 -43.420569873317966 -7.5628555481152215 7.5644353574797343 -0.83867057594974714 0 0.54463902268945019 0.2723195113447251 0 0.41933528797487357 1 I I #
coedge $-1 $449 $449 $-1 $634 reversed $281 $-1 #
edge $-1 $635 0 $635 6.2831853071796004 $282 $636 forward 7 unknown #
vertex $-1 $285 $637 #
ellipse-curve $-1 -43.420569873317966 -6.0514086710341246 7.5644353574797343 -0.83867057594974714 0 0.54463902268945019 0.2723195113447251 0 0.41933528797487357 1 I I #
coedge $-1 $453 $453 $-1 $638 reversed $288 $-1 #
edge $-1 $639 0 $639 6.2831853071796004 $289 $640 forward 7 unknown #
vertex $-1 $292 $641 #
ellipse-curve $-1 -43.420569873317966 -4.5399617939530295 7.5644353574797343 -0.83867057594974714 0 0.54463902268945019 0.2723195113447251 0 0.41933528797487357 1 I I #
face $-1 $-1 $642 $64 $-1 $643 reversed single #
loop $-1 $-1 $299 $293 #
plane-surface $-1 0 0 10.502439105149369 0 0 1 1 0 0 forward_v I I I I #
coedge $-1 $644 $645 $646 $647 reversed $294 $-1 #
coedge $-1 $648 $296 $298 $467 forward $184 $-1 #
coedge $-1 $296 $648 $644 $649 forward $184 $-1 #
coedge $-1 $646 $299 $296 $464 forward $458 $-1 #
edge $-1 $470 -2.519078128468494 $650 2.519078128468494 $463 $651 forward 7 unknown #
coedge $-1 $652 $653 $297 $466 forward $642 $-1 #
edge $-1 $654 -22.37447142981852 $469 -16.49846393447924 $465 $655 forward 7 unknown #
edge $-1 $470 -7.0063355790025206 $654 3.9170575986957569e-014 $298 $656 forward 7 unknown #
coedge $-1 $299 $646 $652 $657 forward $458 $-1 #
vertex $-1 $466 $658 #
vertex $-1 $300 $659 #
straight-curve $-1 -60.679971710765102 -2.519078128468494 10.502439105149371 1 0 0 I I #
coedge $-1 $472 $472 $-1 $660 reversed $303 $-1 #
edge $-1 $661 0 $661 6.2831853071796004 $304 $662 forward 7 unknown #
vertex $-1 $307 $663 #
ellipse-curve $-1 -43.420569873317966 -1.5114468770810987 7.5644353574797343 -0.83867057594974714 0 0.54463902268945019 0.2723195113447251 0 0.41933528797487357 1 I I #
coedge $-1 $476 $476 $-1 $664 reversed $310 $-1 #
edge $-1 $665 0 $665 6.2831853071796004 $311 $666 forward 7 unknown #
vertex $-1 $314 $667 #
ellipse-curve $-1 -43.420569873317966 0 7.5644353574797343 -0.83867057594974714 0 0.54463902268945019 0.2723195113447251 0 0.41933528797487357 1 I I #
coedge $-1 $480 $480 $-1 $668 reversed $317 $-1 #
edge $-1 $669 0 $669 6.2831853071796004 $318 $670 forward 7 unknown #
vertex $-1 $321 $671 #
ellipse-curve $-1 -43.420569873317966 1.5114468770810952 7.5644353574797343 -0.83867057594974714 0 0.54463902268945019 0.2723195113447251 0 0.41933528797487357 1 I I #
face $-1 $-1 $672 $68 $-1 $673 reversed single #
loop $-1 $-1 $328 $322 #
plane-surface $-1 0 0 10.502439105149369 0 0 1 1 0 0 forward_v I I I I #
coedge $-1 $674 $675 $676 $677 reversed $323 $-1 #
coedge $-1 $678 $325 $327 $494 forward $203 $-1 #
coedge $-1 $325 $678 $674 $679 forward $203 $-1 #
coedge $-1 $676 $328 $325 $491 forward $485 $-1 #
edge $-1 $497 0.50662620704856831 $680 5.5447824639855554 $490 $681 forward 7 unknown #
coedge $-1 $682 $683 $326 $493 forward $672 $-1 #
edge $-1 $684 -22.37447142981852 $496 -16.49846393447924 $492 $685 forward 7 unknown #
edge $-1 $497 -7.0063355790025206 $684 3.9170575986957569e-014 $327 $686 forward 7 unknown #
coedge $-1 $328 $676 $682 $687 forward $485 $-1 #
vertex $-1 $329 $688 #
vertex $-1 $329 $689 #
straight-curve $-1 -60.679971710765102 3.5323305425656306 10.502439105149371 1 0 0 I I #
coedge $-1 $499 $499 $-1 $690 reversed $332 $-1 #
edge $-1 $691 0 $691 6.2831853071796004 $333 $692 forward 7 unknown #
vertex $-1 $336 $693 #
ellipse-curve $-1 -43.420569873317966 4.5399617939530259 7.5644353574797343 -0.83867057594974714 0 0.54463902268945019 0.2723195113447251 0 0.41933528797487357 1 I I #
coedge $-1 $503 $503 $-1 $694 reversed $339 $-1 #
edge $-1 $695 0 $695 6.2831853071796004 $340 $696 forward 7 unknown #
vertex $-1 $343 $697 #
ellipse-curve $-1 -43.420569873317966 6.0514086710341246 7.5644353574797343 -0.83867057594974714 0 0.54463902268945019 0.2723195113447251 0 0.41933528797487357 1 I I #
coedge $-1 $507 $507 $-1 $698 reversed $346 $-1 #
edge $-1 $699 0 $699 6.2831853071796004 $347 $700 forward 7 unknown #
vertex $-1 $350 $701 #
ellipse-curve $-1 -43.420569873317966 7.5628555481152198 7.5644353574797343 -0.83867057594974714 0 0.54463902268945019 0.2723195113447251 0 0.41933528797487357 1 I I #
face $-1 $-1 $702 $72 $-1 $703 reversed single #
loop $-1 $-1 $357 $351 #
plane-surface $-1 0 0 10.502439105149369 0 0 1 1 0 0 forward_v I I I I #
coedge $-1 $704 $705 $706 $707 reversed $352 $-1 #
coedge $-1 $708 $354 $356 $521 forward $222 $-1 #
coedge $-1 $354 $708 $704 $709 forward $222 $-1 #
coedge $-1 $706 $357 $354 $518 forward $512 $-1 #
edge $-1 $524 -2.5294925396315797 $710 3.8067299676423225 $517 $711 forward 7 unknown #
coedge $-1 $712 $713 $355 $520 forward $702 $-1 #
edge $-1 $714 -62.584010459150775 $523 -55.043897997954851 $519 $715 forward 7 unknown #
edge $-1 $524 80.347260797558448 $714 90.657063509018229 $356 $716 forward 7 unknown #
coedge $-1 $357 $706 $712 $717 forward $512 $-1 #
vertex $-1 $358 $718 #
vertex $-1 $358 $719 #
straight-curve $-1 24.90147182061671 1.8908738256262083 10.502439105149371 -1 0 0 I I #
coedge $-1 $526 $526 $-1 $720 reversed $361 $-1 #
edge $-1 $721 0 $721 6.2831853071796004 $362 $722 forward 7 unknown #
vertex $-1 $365 $723 #
ellipse-curve $-1 41.812897529303747 -3.1781041801929142 6.7323828745514058 0.73135370988377701 0 0.68199835119979291 0.34099917559989645 0 -0.36567685494188851 1 I I #
coedge $-1 $530 $530 $-1 $724 reversed $368 $-1 #
edge $-1 $725 0 $725 6.2831853071796004 $369 $726 forward 7 unknown #
vertex $-1 $372 $727 #
ellipse-curve $-1 41.812897529303747 -1.2772374280107428 6.7323828745514058 0.73135370988377701 0 0.68199835119979291 0.34099917559989645 0 -0.36567685494188851 1 I I #
coedge $-1 $534 $534 $-1 $728 reversed $375 $-1 #
edge $-1 $729 0 $729 6.2831853071796004 $376 $730 forward 7 unknown #
vertex $-1 $379 $731 #
ellipse-curve $-1 41.812897529303747 0.62362932417142858 6.7323828745514058 0.73135370988377701 0 0.68199835119979291 0.34099917559989645 0 -0.36567685494188851 1 I I #
face $-1 $-1 $559 $57 $-1 $732 reversed single #
loop $-1 $-1 $389 $380 #
plane-surface $-1 -45.328531754509108 0 0 1 0 0 0 0 -1 forward_v I I I I #
coedge $-1 $733 $383 $388 $553 forward $241 $-1 #
coedge $-1 $383 $733 $545 $734 forward $241 $-1 #
coedge $-1 $546 $391 $383 $544 reversed $559 $-1 #
edge $-1 $735 -21.518291094533055 $560 21.518291094533055 $543 $736 forward 7 unknown #
coedge $-1 $385 $384 $542 $734 reversed $153 $-1 #
coedge $-1 $558 $543 $384 $547 forward $559 $-1 #
edge $-1 $735 -10.502439105149369 $550 10.502439105149369 $546 $737 forward 7 unknown #
coedge $-1 $555 $554 $385 $549 reversed $539 $-1 #
edge $-1 $738 -10.502439105149369 $551 10.502439105149369 $548 $739 forward 7 unknown #
vertex $-1 $547 $740 #
vertex $-1 $563 $741 #
straight-curve $-1 0 -21.518291094533055 -10.502439105149369 -1 0 0 I I #
edge $-1 $560 -45.328531754509108 $556 45.328531754509108 $388 $742 forward 7 unknown #
coedge $-1 $548 $389 $394 $563 reversed $539 $-1 #
coedge $-1 $389 $548 $733 $743 reversed $539 $-1 #
vertex $-1 $553 $744 #
straight-curve $-1 -45.328531754509108 21.518291094533055 0 0 0 -1 I I #
coedge $-1 $391 $546 $393 $562 reversed $559 $-1 #
loop $-1 $-1 $546 $538 #
vertex $-1 $544 $745 #
straight-curve $-1 45.328531754509108 21.518291094533055 0 0 0 -1 I I #
edge $-1 $396 -21.518291094533055 $550 21.518291094533055 $558 $746 forward 7 unknown #
edge $-1 $551 -21.518291094533055 $395 21.518291094533055 $554 $747 forward 7 unknown #
point $-1 -45.328531754509108 21.518291094533055 -10.502439105149369 #
point $-1 45.328531754509108 21.518291094533055 -10.502439105149369 #
face $-1 $-1 $583 $58 $-1 $748 forward single #
loop $-1 $-1 $749 $398 #
plane-surface $-1 -30.791506707451418 -26.978940827951138 0 -1 0 0 0 0 1 forward_v I I I I #
coedge $-1 $750 $401 $573 $751 reversed $249 $-1 #
coedge $-1 $401 $750 $752 $753 reversed $249 $-1 #
coedge $-1 $409 $408 $401 $572 reversed $399 $-1 #
edge $-1 $754 -10.502439105149369 $755 10.502439105149369 $571 $756 forward 7 unknown #
coedge $-1 $403 $402 $569 $751 forward $157 $-1 #
coedge $-1 $579 $749 $402 $575 reversed $567 $-1 #
edge $-1 $577 -5.4606497334180837 $757 5.4606497334180837 $574 $758 forward 7 unknown #
edge $-1 $755 -5.4606497334180837 $410 5.4606497334180837 $408 $759 forward 7 unknown #
vertex $-1 $575 $760 #
straight-curve $-1 0 -21.518291094533055 -10.502439105149369 1 0 0 I I #
coedge $-1 $761 $574 $405 $580 reversed $567 $-1 #
edge $-1 $584 -10.502439105149369 $577 10.502439105149369 $579 $762 forward 7 unknown #
coedge $-1 $752 $406 $409 $586 forward $583 $-1 #
coedge $-1 $406 $752 $761 $763 forward $583 $-1 #
loop $-1 $-1 $406 $566 #
vertex $-1 $407 $764 #
straight-curve $-1 0 -21.518291094533055 10.502439105149369 -1 0 0 I I #
edge $-1 $411 -5.4606497334180837 $754 5.4606497334180837 $409 $765 forward 7 unknown #
point $-1 -35.947436024546477 -21.518291094533055 -10.502439105149369 #
point $-1 -35.947436024546477 -21.518291094533055 10.502439105149369 #
face $-1 $-1 $605 $59 $-1 $766 forward single #
plane-surface $-1 -30.791506707451418 26.978940827951135 0 -1 0 0 0 0 1 forward_v I I I I #
coedge $-1 $767 $768 $608 $769 forward $414 $-1 #
coedge $-1 $601 $416 $417 $597 reversed $257 $-1 #
coedge $-1 $416 $601 $604 $770 reversed $257 $-1 #
coedge $-1 $768 $767 $416 $595 reversed $414 $-1 #
edge $-1 $771 -10.502439105149369 $772 10.502439105149369 $594 $773 forward 7 unknown #
coedge $-1 $418 $417 $767 $774 forward $161 $-1 #
edge $-1 $599 -5.4606497334180837 $772 5.4606497334180801 $592 $775 forward 7 unknown #
edge $-1 $776 -5.4606497334180801 $426 5.4606497334180837 $423 $777 forward 7 unknown #
vertex $-1 $597 $778 #
straight-curve $-1 0 21.518291094533055 -10.502439105149369 -1 0 0 I I #
coedge $-1 $593 $592 $420 $602 reversed $257 $-1 #
edge $-1 $606 -10.502439105149369 $599 10.502439105149369 $601 $779 forward 7 unknown #
coedge $-1 $780 $421 $424 $609 forward $605 $-1 #
coedge $-1 $421 $780 $593 $770 forward $605 $-1 #
loop $-1 $-1 $421 $589 #
vertex $-1 $422 $781 #
straight-curve $-1 0 21.518291094533055 10.502439105149369 1 0 0 I I #
coedge $-1 $424 $423 $591 $769 reversed $425 $-1 #
edge $-1 $427 -5.4606497334180837 $782 5.4606497334180801 $424 $783 forward 7 unknown #
point $-1 -30.791506707451418 21.518291094533051 -10.502439105149369 #
point $-1 -30.791506707451418 21.518291094533051 10.502439105149369 #
plane-surface $-1 0 0 10.502439105149369 0 0 1 1 0 0 forward_v I I I I #
coedge $-1 $623 $622 $615 $784 forward $430 $-1 #
coedge $-1 $615 $432 $434 $619 reversed $265 $-1 #
coedge $-1 $432 $614 $613 $784 reversed $265 $-1 #
coedge $-1 $440 $435 $432 $617 forward $441 $-1 #
edge $-1 $620 -19.167363718638271 $785 -15.351439956255994 $616 $786 forward 7 unknown #
coedge $-1 $434 $433 $623 $787 reversed $165 $-1 #
edge $-1 $788 -3.9170575986957569e-014 $620 7.0063355790025206 $614 $789 forward 7 unknown #
vertex $-1 $436 $790 #
straight-curve $-1 -41.512607992126831 -3.0257043355170623 10.502439105149371 0 1 0 I I #
coedge $-1 $613 $437 $440 $627 reversed $430 $-1 #
coedge $-1 $437 $613 $618 $787 forward $430 $-1 #
vertex $-1 $438 $791 #
straight-curve $-1 -45.328531754509108 -8.5704867995026177 27.000903039628607 0 0 1 I I #
straight-curve $-1 -45.328531754509086 -8.5704867995026177 4.626431609810119 -0.54463902268945019 0 -0.83867057594974714 I I #
edge $-1 $785 3.5323305425656306 $442 8.5704867995026177 $622 $792 forward 7 unknown #
point $-1 -45.328531754509108 -8.5704867995026177 10.502439105149369 #
point $-1 -41.512607992126831 -8.5704867995026177 10.502439105149369 #
edge $-1 $793 1 $793 0 $445 $-1 forward 7 unknown #
vertex $-1 $446 $794 #
ellipse-curve $-1 -42.581899297368231 -7.5628555481152215 7.0197963347902936 -0.83867057594974714 0 0.54463902268945019 0.2723195113447251 0 0.41933528797487357 1 I I #
point $-1 -43.148250361973254 -7.5628555481152215 7.9837706454546176 #
edge $-1 $795 1 $795 0 $449 $-1 forward 7 unknown #
vertex $-1 $450 $796 #
ellipse-curve $-1 -42.581899297368231 -6.0514086710341246 7.0197963347902936 -0.83867057594974714 0 0.54463902268945019 0.2723195113447251 0 0.41933528797487357 1 I I #
point $-1 -43.148250361973254 -6.0514086710341246 7.9837706454546176 #
edge $-1 $797 1 $797 0 $453 $-1 forward 7 unknown #
vertex $-1 $454 $798 #
ellipse-curve $-1 -42.581899297368231 -4.5399617939530295 7.0197963347902936 -0.83867057594974714 0 0.54463902268945019 0.2723195113447251 0 0.41933528797487357 1 I I #
point $-1 -43.148250361973254 -4.5399617939530295 7.9837706454546176 #
loop $-1 $-1 $465 $457 #
plane-surface $-1 -45.328531754509108 0 0 1 0 0 0 0 -1 forward_v I I I I #
coedge $-1 $645 $460 $462 $649 reversed $294 $-1 #
coedge $-1 $460 $644 $799 $800 reversed $294 $-1 #
coedge $-1 $468 $463 $460 $647 forward $458 $-1 #
edge $-1 $650 -19.167363718638271 $801 -15.351439956255994 $646 $802 forward 7 unknown #
coedge $-1 $462 $461 $653 $803 reversed $184 $-1 #
edge $-1 $804 -3.9170575986957569e-014 $650 7.0063355790025206 $644 $805 forward 7 unknown #
vertex $-1 $464 $806 #
straight-curve $-1 -41.512607992126831 0 10.502439105149371 0 1 0 I I #
coedge $-1 $799 $465 $468 $657 reversed $642 $-1 #
coedge $-1 $465 $799 $648 $803 forward $642 $-1 #
vertex $-1 $466 $807 #
straight-curve $-1 -45.328531754509108 -2.519078128468494 27.000903039628607 0 0 1 I I #
straight-curve $-1 -45.328531754509086 -2.519078128468494 4.626431609810119 -0.54463902268945019 0 -0.83867057594974714 I I #
edge $-1 $801 -2.519078128468494 $469 2.519078128468494 $652 $808 forward 7 unknown #
point $-1 -45.328531754509108 -2.519078128468494 10.502439105149369 #
point $-1 -41.512607992126831 -2.519078128468494 10.502439105149369 #
edge $-1 $809 1 $809 0 $472 $-1 forward 7 unknown #
vertex $-1 $473 $810 #
ellipse-curve $-1 -42.581899297368231 -1.5114468770810987 7.0197963347902936 -0.83867057594974714 0 0.54463902268945019 0.2723195113447251 0 0.41933528797487357 1 I I #
point $-1 -43.148250361973254 -1.5114468770810987 7.9837706454546176 #
edge $-1 $811 1 $811 0 $476 $-1 forward 7 unknown #
vertex $-1 $477 $812 #
ellipse-curve $-1 -42.581899297368231 0 7.0197963347902936 -0.83867057594974714 0 0.54463902268945019 0.2723195113447251 0 0.41933528797487357 1 I I #
point $-1 -43.148250361973254 0 7.9837706454546176 #
edge $-1 $813 1 $813 0 $480 $-1 forward 7 unknown #
vertex $-1 $481 $814 #
ellipse-curve $-1 -42.581899297368231 1.5114468770810952 7.0197963347902936 -0.83867057594974714 0 0.54463902268945019 0.2723195113447251 0 0.41933528797487357 1 I I #
point $-1 -43.148250361973254 1.5114468770810952 7.9837706454546176 #
loop $-1 $-1 $492 $484 #
plane-surface $-1 -45.328531754509108 0 0 1 0 0 0 0 -1 forward_v I I I I #
coedge $-1 $675 $487 $489 $679 reversed $323 $-1 #
coedge $-1 $487 $674 $815 $816 reversed $323 $-1 #
coedge $-1 $495 $490 $487 $677 forward $485 $-1 #
edge $-1 $680 -19.167363718638271 $817 -15.351439956255994 $676 $818 forward 7 unknown #
coedge $-1 $489 $488 $683 $819 reversed $203 $-1 #
edge $-1 $820 -3.9170575986957569e-014 $680 7.0063355790025206 $674 $821 forward 7 unknown #
vertex $-1 $491 $822 #
straight-curve $-1 -41.512607992126831 3.0257043355170623 10.502439105149371 0 1 0 I I #
coedge $-1 $815 $492 $495 $687 reversed $672 $-1 #
coedge $-1 $492 $815 $678 $819 forward $672 $-1 #
vertex $-1 $493 $823 #
straight-curve $-1 -45.328531754509108 3.5323305425656306 27.000903039628607 0 0 1 I I #
straight-curve $-1 -45.328531754509086 3.5323305425656306 4.626431609810119 -0.54463902268945019 0 -0.83867057594974714 I I #
edge $-1 $817 -8.5704867995026177 $496 -3.5323305425656306 $682 $824 forward 7 unknown #
point $-1 -45.328531754509108 3.5323305425656306 10.502439105149369 #
point $-1 -41.512607992126831 3.5323305425656306 10.502439105149369 #
edge $-1 $825 1 $825 0 $499 $-1 forward 7 unknown #
vertex $-1 $500 $826 #
ellipse-curve $-1 -42.581899297368231 4.5399617939530259 7.0197963347902936 -0.83867057594974714 0 0.54463902268945019 0.2723195113447251 0 0.41933528797487357 1 I I #
point $-1 -43.148250361973254 4.5399617939530259 7.9837706454546176 #
edge $-1 $827 1 $827 0 $503 $-1 forward 7 unknown #
vertex $-1 $504 $828 #
ellipse-curve $-1 -42.581899297368231 6.0514086710341246 7.0197963347902936 -0.83867057594974714 0 0.54463902268945019 0.2723195113447251 0 0.41933528797487357 1 I I #
point $-1 -43.148250361973254 6.0514086710341246 7.9837706454546176 #
edge $-1 $829 1 $829 0 $507 $-1 forward 7 unknown #
vertex $-1 $508 $830 #
ellipse-curve $-1 -42.581899297368231 7.5628555481152198 7.0197963347902936 -0.83867057594974714 0 0.54463902268945019 0.2723195113447251 0 0.41933528797487357 1 I I #
point $-1 -43.148250361973254 7.5628555481152198 7.9837706454546176 #
loop $-1 $-1 $519 $511 #
plane-surface $-1 45.328531754509108 0 0 -1 0 0 0 0 1 forward_v I I I I #
coedge $-1 $705 $514 $516 $709 reversed $352 $-1 #
coedge $-1 $514 $704 $831 $832 reversed $352 $-1 #
coedge $-1 $522 $517 $514 $707 forward $512 $-1 #
edge $-1 $710 13.395791483481684 $833 20.427059933892398 $706 $834 forward 7 unknown #
coedge $-1 $516 $515 $713 $835 reversed $222 $-1 #
edge $-1 $836 -90.657063509018229 $710 -80.347260797558448 $704 $837 forward 7 unknown #
vertex $-1 $518 $838 #
straight-curve $-1 38.297263304098394 -0.6386187140053714 10.502439105149364 0 -1 0 I I #
coedge $-1 $831 $519 $522 $717 reversed $702 $-1 #
coedge $-1 $519 $831 $708 $835 forward $702 $-1 #
vertex $-1 $520 $839 #
straight-curve $-1 45.328531754509108 1.8908738256262083 65.546337103104221 0 0 1 I I #
straight-curve $-1 -16.499436083256235 1.8908738256262083 69.264706368443115 0.68199835119979291 0 -0.73135370988377701 I I #
edge $-1 $833 -4.4453486816476939 $523 1.8908738256262083 $712 $840 forward 7 unknown #
point $-1 45.328531754509108 1.8908738256262083 10.502439105149369 #
point $-1 38.297263304098394 1.8908738256262083 10.502439105149371 #
edge $-1 $841 1 $841 0 $526 $-1 forward 7 unknown #
vertex $-1 $527 $842 #
ellipse-curve $-1 40.824330154674939 -3.1781041801929142 5.8105289064435564 0.73135370988377701 0 0.68199835119979291 0.34099917559989645 0 -0.36567685494188851 1 I I #
point $-1 42.153896704903644 -3.1781041801929142 6.3667060196095209 #
edge $-1 $843 1 $843 0 $530 $-1 forward 7 unknown #
vertex $-1 $531 $844 #
ellipse-curve $-1 40.824330154674939 -1.2772374280107428 5.8105289064435564 0.73135370988377701 0 0.68199835119979291 0.34099917559989645 0 -0.36567685494188851 1 I I #
point $-1 42.153896704903644 -1.2772374280107428 6.3667060196095209 #
edge $-1 $845 1 $845 0 $534 $-1 forward 7 unknown #
vertex $-1 $535 $846 #
ellipse-curve $-1 40.824330154674939 0.62362932417142858 5.8105289064435564 0.73135370988377701 0 0.68199835119979291 0.34099917559989645 0 -0.36567685494188851 1 I I #
point $-1 42.153896704903644 0.62362932417142858 6.3667060196095209 #
plane-surface $-1 45.328531754509108 0 0 -1 0 0 0 0 1 forward_v I I I I #
coedge $-1 $542 $541 $555 $743 forward $241 $-1 #
edge $-1 $738 -45.328531754509108 $735 45.328531754509108 $545 $847 forward 7 unknown #
vertex $-1 $544 $848 #
straight-curve $-1 45.328531754509108 0 10.502439105149369 0 1 0 I I #
straight-curve $-1 45.328531754509108 -21.518291094533055 0 0 0 -1 I I #
vertex $-1 $743 $849 #
straight-curve $-1 -45.328531754509108 -21.518291094533055 0 0 0 -1 I I #
point $-1 45.328531754509108 -21.518291094533055 -10.502439105149369 #
point $-1 -45.328531754509108 -21.518291094533055 -10.502439105149369 #
straight-curve $-1 0 21.518291094533055 10.502439105149369 -1 0 0 I I #
edge $-1 $556 -21.518291094533055 $738 21.518291094533055 $555 $850 forward 7 unknown #
point $-1 -45.328531754509108 21.518291094533055 10.502439105149369 #
point $-1 45.328531754509108 21.518291094533055 10.502439105149369 #
straight-curve $-1 45.328531754509108 0 -10.502439105149369 0 -1 0 I I #
straight-curve $-1 -45.328531754509108 0 -10.502439105149369 0 1 0 I I #
plane-surface $-1 0 0 10.502439105149369 0 0 1 1 0 0 forward_v I I I I #
coedge $-1 $574 $761 $750 $851 forward $567 $-1 #
coedge $-1 $570 $569 $749 $851 reversed $249 $-1 #
edge $-1 $757 -2.5779646585475291 $755 2.5779646585475291 $569 $852 forward 7 unknown #
coedge $-1 $582 $581 $570 $753 forward $583 $-1 #
edge $-1 $754 -2.5779646585475291 $853 2.5779646585475291 $570 $854 forward 7 unknown #
vertex $-1 $586 $855 #
vertex $-1 $576 $856 #
straight-curve $-1 -35.947436024546477 -32.439590561369222 0 0 0 -1 I I #
vertex $-1 $851 $857 #
straight-curve $-1 -30.791506707451418 -26.978940827951138 -10.502439105149369 0 -1 0 I I #
straight-curve $-1 -35.947436024546477 -26.978940827951138 -10.502439105149369 0 1 0 I I #
point $-1 -30.791506707451418 -21.518291094533055 -10.502439105149369 #
coedge $-1 $749 $579 $582 $763 reversed $567 $-1 #
straight-curve $-1 -30.791506707451418 -21.518291094533055 0 0 0 -1 I I #
edge $-1 $853 -5.4606497334180837 $584 5.4606497334180837 $761 $858 forward 7 unknown #
point $-1 -30.791506707451418 -21.518291094533055 10.502439105149369 #
straight-curve $-1 -35.947436024546477 -26.978940827951138 10.502439105149369 0 -1 0 I I #
plane-surface $-1 0 0 10.502439105149369 0 0 1 1 0 0 forward_v I I I I #
coedge $-1 $594 $591 $596 $774 reversed $414 $-1 #
coedge $-1 $591 $594 $780 $859 reversed $414 $-1 #
edge $-1 $782 -10.502439105149369 $776 10.502439105149369 $608 $860 forward 7 unknown #
edge $-1 $771 -5.4606497334180801 $606 5.4606497334180837 $593 $861 forward 7 unknown #
vertex $-1 $859 $862 #
vertex $-1 $774 $863 #
straight-curve $-1 -35.947436024546477 32.439590561369215 0 0 0 -1 I I #
edge $-1 $772 -2.5779646585475291 $776 2.5779646585475291 $767 $864 forward 7 unknown #
straight-curve $-1 -35.947436024546477 26.978940827951135 -10.502439105149369 0 1 0 I I #
vertex $-1 $598 $865 #
straight-curve $-1 -30.791506707451418 26.978940827951135 -10.502439105149369 0 -1 0 I I #
point $-1 -35.947436024546477 21.518291094533051 -10.502439105149369 #
straight-curve $-1 -35.947436024546477 21.518291094533055 0 0 0 -1 I I #
coedge $-1 $604 $603 $768 $859 forward $605 $-1 #
point $-1 -35.947436024546477 21.518291094533051 10.502439105149369 #
vertex $-1 $609 $866 #
straight-curve $-1 -30.791506707451418 26.978940827951135 10.502439105149369 0 1 0 I I #
edge $-1 $785 16.49846393447924 $788 22.37447142981852 $613 $867 forward 7 unknown #
vertex $-1 $627 $868 #
straight-curve $-1 -60.679971710765102 -3.5323305425656306 10.502439105149371 -1 0 0 I I #
edge $-1 $788 0.50662620704856831 $624 5.5447824639855554 $623 $869 forward 7 unknown #
vertex $-1 $787 $870 #
straight-curve $-1 -45.328531754509086 -3.5323305425656306 4.626431609810119 0.54463902268945019 0 0.83867057594974714 I I #
point $-1 -41.512607992126831 -3.5323305425656306 10.502439105149369 #
point $-1 -45.328531754509108 -8.5704867995026177 4.6264316098100862 #
straight-curve $-1 -45.328531754509108 0 10.502439105149369 0 -1 0 I I #
vertex $-1 $630 $871 #
point $-1 -42.309579786023505 -7.5628555481152215 7.4391316227651672 #
vertex $-1 $634 $872 #
point $-1 -42.309579786023505 -6.0514086710341246 7.4391316227651672 #
vertex $-1 $638 $873 #
point $-1 -42.309579786023505 -4.5399617939530295 7.4391316227651672 #
coedge $-1 $653 $652 $645 $800 forward $642 $-1 #
edge $-1 $801 16.49846393447924 $804 22.37447142981852 $799 $874 forward 7 unknown #
vertex $-1 $657 $875 #
straight-curve $-1 -60.679971710765102 2.519078128468494 10.502439105149371 -1 0 0 I I #
edge $-1 $804 -2.519078128468494 $654 2.519078128468494 $653 $876 forward 7 unknown #
vertex $-1 $803 $877 #
straight-curve $-1 -45.328531754509086 2.519078128468494 4.626431609810119 0.54463902268945019 0 0.83867057594974714 I I #
point $-1 -41.512607992126831 2.519078128468494 10.502439105149369 #
point $-1 -45.328531754509108 -2.519078128468494 4.6264316098100862 #
straight-curve $-1 -45.328531754509108 0 10.502439105149369 0 -1 0 I I #
vertex $-1 $660 $878 #
point $-1 -42.309579786023505 -1.5114468770810987 7.4391316227651672 #
vertex $-1 $664 $879 #
point $-1 -42.309579786023505 0 7.4391316227651672 #
vertex $-1 $668 $880 #
point $-1 -42.309579786023505 1.5114468770810952 7.4391316227651672 #
coedge $-1 $683 $682 $675 $816 forward $672 $-1 #
edge $-1 $817 16.49846393447924 $820 22.37447142981852 $815 $881 forward 7 unknown #
vertex $-1 $687 $882 #
straight-curve $-1 -60.679971710765102 8.5704867995026177 10.502439105149371 -1 0 0 I I #
edge $-1 $820 -5.5447824639855554 $684 -0.50662620704856831 $683 $883 forward 7 unknown #
vertex $-1 $819 $884 #
straight-curve $-1 -45.328531754509086 8.5704867995026177 4.626431609810119 0.54463902268945019 0 0.83867057594974714 I I #
point $-1 -41.512607992126831 8.5704867995026177 10.502439105149369 #
point $-1 -45.328531754509108 3.5323305425656306 4.6264316098100862 #
straight-curve $-1 -45.328531754509108 0 10.502439105149369 0 -1 0 I I #
vertex $-1 $690 $885 #
point $-1 -42.309579786023505 4.5399617939530259 7.4391316227651672 #
vertex $-1 $694 $886 #
point $-1 -42.309579786023505 6.0514086710341246 7.4391316227651672 #
vertex $-1 $698 $887 #
point $-1 -42.309579786023505 7.5628555481152198 7.4391316227651672 #
coedge $-1 $713 $712 $705 $832 forward $702 $-1 #
edge $-1 $833 55.043897997954851 $836 62.584010459150775 $831 $888 forward 7 unknown #
vertex $-1 $717 $889 #
straight-curve $-1 24.90147182061671 -4.4453486816476939 10.502439105149371 1 0 0 I I #
edge $-1 $836 -3.8067299676423225 $714 2.5294925396315797 $713 $890 forward 7 unknown #
vertex $-1 $835 $891 #
straight-curve $-1 -16.499436083256235 -4.4453486816476939 69.264706368443115 -0.68199835119979291 0 0.73135370988377701 I I #
point $-1 38.297263304098394 -4.4453486816476939 10.502439105149371 #
point $-1 45.328531754509108 1.8908738256262083 2.9623266439534461 #
straight-curve $-1 45.328531754509108 0 10.502439105149369 0 1 0 I I #
vertex $-1 $720 $892 #
point $-1 41.16532933027483 -3.1781041801929142 5.4448520515016678 #
vertex $-1 $724 $893 #
point $-1 41.16532933027483 -1.2772374280107428 5.4448520515016678 #
vertex $-1 $728 $894 #
point $-1 41.16532933027483 0.62362932417142858 5.4448520515016678 #
straight-curve $-1 0 -21.518291094533055 10.502439105149369 1 0 0 I I #
point $-1 45.328531754509108 -21.518291094533055 10.502439105149369 #
point $-1 -45.328531754509108 -21.518291094533055 10.502439105149369 #
straight-curve $-1 -45.328531754509108 0 10.502439105149369 0 -1 0 I I #
edge $-1 $853 -10.502439105149369 $757 10.502439105149369 $749 $895 forward 7 unknown #
straight-curve $-1 -33.369471365998947 -32.439590561369222 -10.502439105149369 -1 0 0 I I #
vertex $-1 $763 $896 #
straight-curve $-1 -33.369471365998947 -32.439590561369222 10.502439105149369 1 0 0 I I #
point $-1 -35.947436024546477 -32.439590561369222 10.502439105149369 #
point $-1 -35.947436024546477 -32.439590561369222 -10.502439105149369 #
point $-1 -30.791506707451418 -32.439590561369222 -10.502439105149369 #
straight-curve $-1 -30.791506707451418 -26.978940827951138 10.502439105149369 0 1 0 I I #
edge $-1 $782 -2.5779646585475291 $771 2.5779646585475291 $768 $897 forward 7 unknown #
straight-curve $-1 -30.791506707451418 32.439590561369215 0 0 0 -1 I I #
straight-curve $-1 -35.947436024546477 26.978940827951135 10.502439105149369 0 -1 0 I I #
point $-1 -35.947436024546477 32.439590561369215 10.502439105149369 #
point $-1 -35.947436024546477 32.439590561369215 -10.502439105149369 #
straight-curve $-1 -33.369471365998947 32.439590561369215 -10.502439105149369 1 0 0 I I #
point $-1 -30.791506707451418 32.439590561369215 -10.502439105149369 #
point $-1 -30.791506707451418 32.439590561369215 10.502439105149369 #
straight-curve $-1 -45.328531754509108 -3.5323305425656306 27.000903039628607 0 0 -1 I I #
point $-1 -45.328531754509108 -3.5323305425656306 10.502439105149369 #
straight-curve $-1 -45.328531754509108 -3.0257043355170623 4.6264316098100942 0 -1 0 I I #
point $-1 -45.328531754509108 -3.5323305425656306 4.6264316098100862 #
point $-1 -42.162564009393357 -7.5628555481152215 6.7474768234455693 #
point $-1 -42.162564009393357 -6.0514086710341246 6.7474768234455693 #
point $-1 -42.162564009393357 -4.5399617939530295 6.7474768234455693 #
straight-curve $-1 -45.328531754509108 2.519078128468494 27.000903039628607 0 0 -1 I I #
point $-1 -45.328531754509108 2.519078128468494 10.502439105149369 #
straight-curve $-1 -45.328531754509108 0 4.6264316098100942 0 -1 0 I I #
point $-1 -45.328531754509108 2.519078128468494 4.6264316098100862 #
point $-1 -42.162564009393357 -1.5114468770810987 6.7474768234455693 #
point $-1 -42.162564009393357 0 6.7474768234455693 #
point $-1 -42.162564009393357 1.5114468770810952 6.7474768234455693 #
straight-curve $-1 -45.328531754509108 8.5704867995026177 27.000903039628607 0 0 -1 I I #
point $-1 -45.328531754509108 8.5704867995026177 10.502439105149369 #
straight-curve $-1 -45.328531754509108 3.0257043355170623 4.6264316098100942 0 -1 0 I I #
point $-1 -45.328531754509108 8.5704867995026177 4.6264316098100862 #
point $-1 -42.162564009393357 4.5399617939530259 6.7474768234455693 #
point $-1 -42.162564009393357 6.0514086710341246 6.7474768234455693 #
point $-1 -42.162564009393357 7.5628555481152198 6.7474768234455693 #
straight-curve $-1 45.328531754509108 -4.4453486816476939 65.546337103104221 0 0 -1 I I #
point $-1 45.328531754509108 -4.4453486816476939 10.502439105149369 #
straight-curve $-1 45.3285317545091 -0.6386187140053714 2.9623266439534532 0 1 0 I I #
point $-1 45.328531754509108 -4.4453486816476939 2.9623266439534461 #
point $-1 40.458653299733044 -3.1781041801929142 5.469529730843659 #
point $-1 40.458653299733044 -1.2772374280107428 5.469529730843659 #
point $-1 40.458653299733044 0.62362932417142858 5.469529730843659 #
straight-curve $-1 -30.791506707451418 -32.439590561369222 0 0 0 -1 I I #
point $-1 -30.791506707451418 -32.439590561369222 10.502439105149369 #
straight-curve $-1 -33.369471365998947 32.439590561369215 10.502439105149369 -1 0 0 I I #
End-of-ACIS-data 