500 0 12 0           
7 Unknown 11 ACIS 5.0 NT 24 Thu Mar 25 15:57:46 1999 
-1 9.9999999999999995e-007 1e-010 
body $-1 $12 $-1 $13 #
body $-1 $14 $-1 $15 #
body $-1 $16 $-1 $17 #
body $-1 $18 $-1 $19 #
body $-1 $20 $-1 $21 #
body $-1 $22 $-1 $23 #
body $-1 $24 $-1 $25 #
body $-1 $26 $-1 $27 #
body $-1 $28 $-1 $29 #
body $-1 $30 $-1 $31 #
body $-1 $32 $-1 $33 #
body $-1 $34 $-1 $35 #
lump $-1 $-1 $36 $0 #
transform $-1 1 0 0 0 1 0 0 0 1 65.769829401532036 44.463632248471875 10.087125970709572 1 rotate no_reflect no_shear #
lump $-1 $-1 $37 $1 #
transform $-1 1 0 0 0 1 0 0 0 1 65.769829401532036 44.463632248471875 10.087125970709572 1 rotate no_reflect no_shear #
lump $-1 $-1 $38 $2 #
transform $-1 1 0 0 0 1 0 0 0 1 65.769829401532036 44.463632248471875 10.087125970709572 1 rotate no_reflect no_shear #
lump $-1 $-1 $39 $3 #
transform $-1 1 0 0 0 1 0 0 0 1 65.769829401532036 44.463632248471875 10.087125970709572 1 rotate no_reflect no_shear #
lump $-1 $-1 $40 $4 #
transform $-1 1 0 0 0 1 0 0 0 1 65.769829401532036 44.463632248471875 10.087125970709572 1 rotate no_reflect no_shear #
lump $-1 $-1 $41 $5 #
transform $-1 1 0 0 0 1 0 0 0 1 65.769829401532036 44.463632248471875 10.087125970709572 1 rotate no_reflect no_shear #
lump $-1 $-1 $42 $6 #
transform $-1 1 0 0 0 1 0 0 0 1 65.769829401532036 44.463632248471875 10.087125970709572 1 rotate no_reflect no_shear #
lump $-1 $-1 $43 $7 #
transform $-1 1 0 0 0 1 0 0 0 1 65.769829401532036 44.463632248471875 10.087125970709572 1 rotate no_reflect no_shear #
lump $-1 $-1 $44 $8 #
transform $-1 1 0 0 0 1 0 0 0 1 65.769829401532036 44.463632248471875 10.087125970709572 1 rotate no_reflect no_shear #
lump $-1 $-1 $45 $9 #
transform $-1 1 0 0 0 1 0 0 0 1 65.769829401532036 44.463632248471875 10.087125970709572 1 rotate no_reflect no_shear #
lump $-1 $-1 $46 $10 #
transform $-1 1 0 0 0 1 0 0 0 1 65.769829401532036 44.463632248471875 10.087125970709572 1 rotate no_reflect no_shear #
lump $-1 $-1 $47 $11 #
transform $-1 1 0 0 0 1 0 0 0 1 65.769829401532036 44.463632248471875 10.087125970709572 1 rotate no_reflect no_shear #
shell $-1 $-1 $-1 $48 $-1 $12 #
shell $-1 $-1 $-1 $49 $-1 $14 #
shell $-1 $-1 $-1 $50 $-1 $16 #
shell $-1 $-1 $-1 $51 $-1 $18 #
shell $-1 $-1 $-1 $52 $-1 $20 #
shell $-1 $-1 $-1 $53 $-1 $22 #
shell $-1 $-1 $-1 $54 $-1 $24 #
shell $-1 $-1 $-1 $55 $-1 $26 #
shell $-1 $-1 $-1 $56 $-1 $28 #
shell $-1 $-1 $-1 $57 $-1 $30 #
shell $-1 $-1 $-1 $58 $-1 $32 #
shell $-1 $-1 $-1 $59 $-1 $34 #
face $-1 $60 $61 $36 $-1 $62 forward single #
face $-1 $63 $64 $37 $-1 $65 reversed single #
face $-1 $66 $67 $38 $-1 $68 reversed single #
face $-1 $69 $70 $39 $-1 $71 forward single #
face $-1 $72 $73 $40 $-1 $74 forward single #
face $-1 $75 $76 $41 $-1 $77 forward single #
face $-1 $78 $79 $42 $-1 $80 reversed single #
face $-1 $81 $82 $43 $-1 $83 forward single #
face $-1 $84 $85 $44 $-1 $86 forward single #
face $-1 $87 $88 $45 $-1 $89 reversed single #
face $-1 $90 $91 $46 $-1 $92 forward single #
face $-1 $93 $94 $47 $-1 $95 forward single #
face $-1 $96 $97 $36 $-1 $98 reversed single #
loop $-1 $-1 $99 $48 #
plane-surface $-1 0 0 10.087125970709572 0 0 1 1 0 0 forward_v I I I I #
face $-1 $100 $101 $37 $-1 $102 reversed single #
loop $-1 $-1 $103 $49 #
plane-surface $-1 -52.707706916523165 -40.042905500992362 0 1 0 0 0 0 -1 forward_v I I I I #
face $-1 $104 $105 $38 $-1 $106 reversed single #
loop $-1 $-1 $107 $50 #
plane-surface $-1 23.923272890434916 -8.8343481572477813 184.11258153964536 0 -1 0 -0.52991927123019833 0 -0.84804809178421925 forward_v I I I I #
face $-1 $108 $109 $39 $-1 $110 forward single #
loop $-1 $111 $112 $51 #
cone-surface $-1 59.051705179240443 -22.16172988570942 4.9806338578684404 -0.52991927123019833 0 -0.84804809178421925 1.2720721376763289 0 -0.79487890684529749 1 I I 0 1 1.5 forward I I I I #
face $-1 $113 $114 $40 $-1 $115 forward single #
loop $-1 $116 $117 $52 #
cone-surface $-1 59.051705179240443 -17.163961737536304 4.9806338578684404 -0.52991927123019833 0 -0.84804809178421925 1.2720721376763289 0 -0.79487890684529749 1 I I 0 1 1.5 forward I I I I #
face $-1 $118 $119 $41 $-1 $120 forward single #
loop $-1 $121 $122 $53 #
cone-surface $-1 59.051705179240443 -12.166193589363189 4.9806338578684404 -0.52991927123019833 0 -0.84804809178421925 1.2720721376763289 0 -0.79487890684529749 1 I I 0 1 1.5 forward I I I I #
face $-1 $123 $124 $42 $-1 $125 reversed single #
loop $-1 $-1 $126 $54 #
plane-surface $-1 -180.81700826407894 -28.078853366944799 65.723261548032667 0 1 0 -0.87461971476443456 0 0.48480960649040278 forward_v I I I I #
face $-1 $127 $128 $43 $-1 $129 forward single #
loop $-1 $130 $131 $55 #
cone-surface $-1 -62.954596573295291 -24.068330362911574 5.7086988329753705 0.87461971476443456 0 -0.48480960649040278 0.48480960649040278 0 0.87461971476443456 1 I I 0 1 1 forward I I I I #
face $-1 $132 $133 $44 $-1 $134 forward single #
loop $-1 $135 $136 $56 #
cone-surface $-1 -62.954596573295291 -18.052545856861734 5.7086988329753705 0.87461971476443456 0 -0.48480960649040278 0.48480960649040278 0 0.87461971476443456 1 I I 0 1 1 forward I I I I #
face $-1 $137 $138 $45 $-1 $139 reversed single #
loop $-1 $-1 $140 $57 #
plane-surface $-1 -180.81700826407894 22.88347634778755 65.723261548032667 0 1 0 -0.87461971476443456 0 0.48480960649040278 forward_v I I I I #
face $-1 $141 $142 $46 $-1 $143 forward single #
loop $-1 $144 $145 $58 #
cone-surface $-1 -62.954596573295291 26.893999351820774 5.7086988329753705 0.87461971476443456 0 -0.48480960649040278 0.48480960649040278 0 0.87461971476443456 1 I I 0 1 1 forward I I I I #
face $-1 $146 $147 $47 $-1 $148 forward single #
loop $-1 $149 $150 $59 #
cone-surface $-1 -62.954596573295291 32.909783857870615 5.7086988329753705 0.87461971476443456 0 -0.48480960649040278 0.48480960649040278 0 0.87461971476443456 1 I I 0 1 1 forward I I I I #
face $-1 $151 $152 $36 $-1 $153 reversed single #
loop $-1 $-1 $154 $60 #
plane-surface $-1 0 0 -10.087125970709572 0 0 1 1 0 0 forward_v I I I I #
coedge $-1 $155 $156 $157 $158 forward $61 $-1 #
face $-1 $159 $160 $37 $-1 $161 reversed single #
loop $-1 $-1 $162 $63 #
plane-surface $-1 -51.114460038218546 -35.622178753512848 0 0 -1 0 0 0 -1 forward_v I I I I #
coedge $-1 $163 $164 $165 $166 forward $64 $-1 #
face $-1 $167 $168 $38 $-1 $169 reversed single #
loop $-1 $-1 $170 $66 #
plane-surface $-1 -45.782127240353745 -17.163961737536304 72.560624897759595 0.52991927123019833 0 0.84804809178421925 0.84804809178421925 0 -0.52991927123019833 forward_v I I I I #
coedge $-1 $171 $172 $173 $174 reversed $67 $-1 #
face $-1 $-1 $175 $39 $-1 $176 forward single #
loop $-1 $177 $178 $69 #
cone-surface $-1 57.722872000762962 -22.16172988570942 2.8540562780584509 -0.52991927123019833 0 -0.84804809178421925 0.63603606883816444 0 -0.39743945342264875 1 I I -0.70710678118654757 0.70710678118654757 0.75 forward I I I I #
loop $-1 $-1 $179 $51 #
coedge $-1 $112 $112 $180 $181 reversed $70 $-1 #
face $-1 $-1 $182 $40 $-1 $183 forward single #
loop $-1 $184 $185 $72 #
cone-surface $-1 57.722872000762962 -17.163961737536304 2.8540562780584509 -0.52991927123019833 0 -0.84804809178421925 0.63603606883816444 0 -0.39743945342264875 1 I I -0.70710678118654757 0.70710678118654757 0.75 forward I I I I #
loop $-1 $-1 $186 $52 #
coedge $-1 $117 $117 $187 $188 reversed $73 $-1 #
face $-1 $-1 $189 $41 $-1 $190 forward single #
loop $-1 $191 $192 $75 #
cone-surface $-1 57.722872000762962 -12.166193589363189 2.8540562780584509 -0.52991927123019833 0 -0.84804809178421925 0.63603606883816444 0 -0.39743945342264875 1 I I -0.70710678118654757 0.70710678118654757 0.75 forward I I I I #
loop $-1 $-1 $193 $53 #
coedge $-1 $122 $122 $194 $195 reversed $76 $-1 #
face $-1 $196 $197 $42 $-1 $198 reversed single #
loop $-1 $-1 $199 $78 #
plane-surface $-1 -65.769829401531993 -21.060438109886654 1.9515713258373282 -0.87461971476443456 0 0.48480960649040278 0.48480960649040278 0 0.87461971476443456 forward_v I I I I #
coedge $-1 $200 $201 $202 $203 reversed $79 $-1 #
face $-1 $-1 $204 $43 $-1 $205 forward single #
loop $-1 $206 $207 $81 #
cone-surface $-1 -61.95685959316171 -24.068330362911574 5.1556442144320798 0.87461971476443456 0 -0.48480960649040278 0.24240480324520139 0 0.43730985738221728 1 I I -0.70710678118654746 0.70710678118654746 0.5 forward I I I I #
loop $-1 $-1 $208 $55 #
coedge $-1 $131 $131 $209 $210 reversed $82 $-1 #
face $-1 $-1 $211 $44 $-1 $212 forward single #
loop $-1 $213 $214 $84 #
cone-surface $-1 -61.95685959316171 -18.052545856861734 5.1556442144320798 0.87461971476443456 0 -0.48480960649040278 0.24240480324520139 0 0.43730985738221728 1 I I -0.70710678118654746 0.70710678118654746 0.5 forward I I I I #
loop $-1 $-1 $215 $56 #
coedge $-1 $136 $136 $216 $217 reversed $85 $-1 #
face $-1 $218 $219 $45 $-1 $220 reversed single #
loop $-1 $-1 $221 $87 #
plane-surface $-1 -65.769829401531993 29.901891604845694 1.9515713258373282 -0.87461971476443456 0 0.48480960649040278 0.48480960649040278 0 0.87461971476443456 forward_v I I I I #
coedge $-1 $222 $223 $224 $225 reversed $88 $-1 #
face $-1 $-1 $226 $46 $-1 $227 forward single #
loop $-1 $228 $229 $90 #
cone-surface $-1 -61.95685959316171 26.893999351820774 5.1556442144320798 0.87461971476443456 0 -0.48480960649040278 0.24240480324520139 0 0.43730985738221728 1 I I -0.70710678118654746 0.70710678118654746 0.5 forward I I I I #
loop $-1 $-1 $230 $58 #
coedge $-1 $145 $145 $231 $232 reversed $91 $-1 #
face $-1 $-1 $233 $47 $-1 $234 forward single #
loop $-1 $235 $236 $93 #
cone-surface $-1 -61.95685959316171 32.909783857870615 5.1556442144320798 0.87461971476443456 0 -0.48480960649040278 0.24240480324520139 0 0.43730985738221728 1 I I -0.70710678118654746 0.70710678118654746 0.5 forward I I I I #
loop $-1 $-1 $237 $59 #
coedge $-1 $150 $150 $238 $239 reversed $94 $-1 #
face $-1 $240 $241 $36 $-1 $242 reversed single #
loop $-1 $-1 $243 $96 #
plane-surface $-1 0 -44.463632248471875 0 0 1 0 0 0 1 forward_v I I I I #
coedge $-1 $244 $245 $246 $247 forward $97 $-1 #
coedge $-1 $248 $99 $249 $250 forward $61 $-1 #
coedge $-1 $99 $248 $251 $252 forward $61 $-1 #
coedge $-1 $253 $254 $99 $158 reversed $255 $-1 #
edge $-1 $256 -44.463632248471875 $257 44.463632248471875 $157 $258 forward 7 unknown #
face $-1 $259 $260 $37 $-1 $261 forward single #
loop $-1 $-1 $262 $100 #
plane-surface $-1 -49.521213159913927 -40.042905500992362 0 -1 0 0 0 0 1 forward_v I I I I #
coedge $-1 $263 $264 $265 $266 forward $101 $-1 #
coedge $-1 $267 $103 $268 $269 reversed $64 $-1 #
coedge $-1 $103 $267 $270 $271 reversed $64 $-1 #
coedge $-1 $264 $263 $103 $166 reversed $101 $-1 #
edge $-1 $272 -10.087125970709572 $273 10.087125970709572 $165 $274 forward 7 unknown #
face $-1 $275 $276 $38 $-1 $277 reversed single #
loop $-1 $-1 $278 $104 #
plane-surface $-1 23.923272890434916 -25.493575317824828 184.11258153964536 0 1 0 0.52991927123019833 0 0.84804809178421925 forward_v I I I I #
coedge $-1 $279 $280 $281 $282 reversed $105 $-1 #
coedge $-1 $172 $107 $283 $284 reversed $67 $-1 #
coedge $-1 $107 $171 $279 $285 reversed $67 $-1 #
coedge $-1 $281 $286 $107 $174 forward $287 $-1 #
edge $-1 $288 -53.808192956314578 $289 -42.234731961841014 $173 $290 forward 7 unknown #
loop $-1 $-1 $180 $108 #
plane-surface $-1 -45.782127240353745 -17.163961737536304 72.560624897759595 0.52991927123019833 0 0.84804809178421925 0.84804809178421925 0 -0.52991927123019833 forward_v I I I I #
loop $-1 $-1 $291 $69 #
coedge $-1 $178 $178 $179 $292 reversed $109 $-1 #
coedge $-1 $179 $179 $178 $292 forward $111 $-1 #
coedge $-1 $180 $180 $112 $181 forward $175 $-1 #
edge $-1 $293 0 $293 6.2831853071796004 $180 $294 forward 7 unknown #
loop $-1 $-1 $187 $113 #
plane-surface $-1 -45.782127240353745 -17.163961737536304 72.560624897759595 0.52991927123019833 0 0.84804809178421925 0.84804809178421925 0 -0.52991927123019833 forward_v I I I I #
loop $-1 $-1 $295 $72 #
coedge $-1 $185 $185 $186 $296 reversed $114 $-1 #
coedge $-1 $186 $186 $185 $296 forward $116 $-1 #
coedge $-1 $187 $187 $117 $188 forward $182 $-1 #
edge $-1 $297 0 $297 6.2831853071796004 $187 $298 forward 7 unknown #
loop $-1 $-1 $194 $118 #
plane-surface $-1 -45.782127240353745 -17.163961737536304 72.560624897759595 0.52991927123019833 0 0.84804809178421925 0.84804809178421925 0 -0.52991927123019833 forward_v I I I I #
loop $-1 $-1 $299 $75 #
coedge $-1 $192 $192 $193 $300 reversed $119 $-1 #
coedge $-1 $193 $193 $192 $300 forward $121 $-1 #
coedge $-1 $194 $194 $122 $195 forward $189 $-1 #
edge $-1 $301 0 $301 6.2831853071796004 $194 $302 forward 7 unknown #
face $-1 $303 $304 $42 $-1 $305 reversed single #
loop $-1 $-1 $306 $123 #
plane-surface $-1 -180.81700826407894 -14.042022852828508 65.723261548032667 0 -1 0 0.87461971476443456 0 -0.48480960649040278 forward_v I I I I #
coedge $-1 $307 $308 $309 $310 reversed $124 $-1 #
coedge $-1 $201 $126 $311 $312 reversed $79 $-1 #
coedge $-1 $126 $200 $307 $313 reversed $79 $-1 #
coedge $-1 $309 $314 $126 $203 forward $315 $-1 #
edge $-1 $316 24.638674730507432 $317 29.148286141478231 $202 $318 forward 7 unknown #
loop $-1 $-1 $209 $127 #
plane-surface $-1 -65.769829401531993 -21.060438109886654 1.9515713258373282 -0.87461971476443456 0 0.48480960649040278 0.48480960649040278 0 0.87461971476443456 forward_v I I I I #
loop $-1 $-1 $319 $81 #
coedge $-1 $207 $207 $208 $320 reversed $128 $-1 #
coedge $-1 $208 $208 $207 $320 forward $130 $-1 #
coedge $-1 $209 $209 $131 $210 forward $204 $-1 #
edge $-1 $321 0 $321 6.2831853071796004 $209 $322 forward 7 unknown #
loop $-1 $-1 $216 $132 #
plane-surface $-1 -65.769829401531993 -21.060438109886654 1.9515713258373282 -0.87461971476443456 0 0.48480960649040278 0.48480960649040278 0 0.87461971476443456 forward_v I I I I #
loop $-1 $-1 $323 $84 #
coedge $-1 $214 $214 $215 $324 reversed $133 $-1 #
coedge $-1 $215 $215 $214 $324 forward $135 $-1 #
coedge $-1 $216 $216 $136 $217 forward $211 $-1 #
edge $-1 $325 0 $325 6.2831853071796004 $216 $326 forward 7 unknown #
face $-1 $327 $328 $45 $-1 $329 forward single #
loop $-1 $-1 $330 $137 #
plane-surface $-1 -180.81700826407894 36.920306861903839 65.723261548032667 0 -1 0 0.87461971476443456 0 -0.48480960649040278 forward_v I I I I #
coedge $-1 $331 $332 $333 $334 reversed $138 $-1 #
coedge $-1 $223 $140 $335 $336 reversed $88 $-1 #
coedge $-1 $140 $222 $331 $337 reversed $88 $-1 #
coedge $-1 $333 $338 $140 $225 forward $328 $-1 #
edge $-1 $339 24.638674730507432 $340 29.148286141478231 $224 $341 forward 7 unknown #
loop $-1 $-1 $231 $141 #
plane-surface $-1 -65.769829401531993 29.901891604845694 1.9515713258373282 -0.87461971476443456 0 0.48480960649040278 0.48480960649040278 0 0.87461971476443456 forward_v I I I I #
loop $-1 $-1 $342 $90 #
coedge $-1 $229 $229 $230 $343 reversed $142 $-1 #
coedge $-1 $230 $230 $229 $343 forward $144 $-1 #
coedge $-1 $231 $231 $145 $232 forward $226 $-1 #
edge $-1 $344 0 $344 6.2831853071796004 $231 $345 forward 7 unknown #
loop $-1 $-1 $238 $146 #
plane-surface $-1 -65.769829401531993 29.901891604845694 1.9515713258373282 -0.87461971476443456 0 0.48480960649040278 0.48480960649040278 0 0.87461971476443456 forward_v I I I I #
loop $-1 $-1 $346 $93 #
coedge $-1 $236 $236 $237 $347 reversed $147 $-1 #
coedge $-1 $237 $237 $236 $347 forward $149 $-1 #
coedge $-1 $238 $238 $150 $239 forward $233 $-1 #
edge $-1 $348 0 $348 6.2831853071796004 $238 $349 forward 7 unknown #
face $-1 $350 $351 $36 $-1 $352 reversed single #
loop $-1 $-1 $353 $151 #
plane-surface $-1 -65.769829401532036 0 0 1 0 0 0 0 -1 forward_v I I I I #
coedge $-1 $354 $251 $355 $356 forward $152 $-1 #
coedge $-1 $357 $154 $354 $358 forward $97 $-1 #
coedge $-1 $154 $357 $359 $360 forward $97 $-1 #
coedge $-1 $254 $253 $154 $247 reversed $255 $-1 #
edge $-1 $361 -44.463632248471875 $362 44.463632248471875 $246 $363 forward 7 unknown #
coedge $-1 $156 $155 $364 $365 forward $61 $-1 #
coedge $-1 $366 $367 $155 $250 reversed $351 $-1 #
edge $-1 $257 -65.769829401532036 $368 65.769829401532036 $249 $369 forward 7 unknown #
coedge $-1 $243 $370 $156 $252 reversed $152 $-1 #
edge $-1 $371 -65.769829401532036 $256 65.769829401532036 $251 $372 forward 7 unknown #
coedge $-1 $246 $157 $370 $373 forward $255 $-1 #
coedge $-1 $157 $246 $366 $374 reversed $255 $-1 #
loop $-1 $-1 $253 $350 #
vertex $-1 $158 $375 #
vertex $-1 $158 $376 #
straight-curve $-1 65.769829401532036 0 10.087125970709572 0 1 0 I I #
face $-1 $377 $378 $37 $-1 $379 reversed single #
loop $-1 $-1 $380 $159 #
plane-surface $-1 0 0 10.087125970709572 0 0 1 1 0 0 forward_v I I I I #
coedge $-1 $381 $382 $383 $384 reversed $160 $-1 #
coedge $-1 $165 $162 $385 $386 reversed $101 $-1 #
coedge $-1 $162 $165 $387 $388 reversed $101 $-1 #
coedge $-1 $382 $381 $162 $266 reversed $160 $-1 #
edge $-1 $389 -10.087125970709572 $390 10.087125970709572 $265 $391 forward 7 unknown #
coedge $-1 $164 $163 $392 $393 reversed $64 $-1 #
coedge $-1 $385 $394 $163 $269 forward $378 $-1 #
edge $-1 $395 -24.442179497975694 $273 -15.600726003016668 $268 $396 forward 7 unknown #
coedge $-1 $397 $387 $164 $271 forward $260 $-1 #
edge $-1 $272 15.600726003016668 $398 24.442179497975694 $270 $399 forward 7 unknown #
vertex $-1 $271 $400 #
vertex $-1 $269 $401 #
straight-curve $-1 -52.707706916523165 -35.622178753512848 0 0 0 -1 I I #
face $-1 $-1 $287 $38 $-1 $402 forward single #
loop $-1 $-1 $403 $167 #
plane-surface $-1 65.769829401532036 0 0 -1 0 0 0 0 1 forward_v I I I I #
coedge $-1 $404 $405 $406 $407 reversed $168 $-1 #
coedge $-1 $408 $170 $172 $285 forward $105 $-1 #
coedge $-1 $170 $408 $404 $409 forward $105 $-1 #
coedge $-1 $406 $173 $170 $282 forward $287 $-1 #
edge $-1 $289 0.25236728847962908 $410 16.911594449056675 $281 $411 forward 7 unknown #
coedge $-1 $412 $413 $171 $284 forward $276 $-1 #
edge $-1 $414 -89.201066002851761 $288 -81.969164799113116 $283 $415 forward 7 unknown #
edge $-1 $289 117.89248347586772 $414 131.5396588030641 $172 $416 forward 7 unknown #
coedge $-1 $173 $406 $412 $417 forward $287 $-1 #
loop $-1 $-1 $406 $275 #
vertex $-1 $284 $418 #
vertex $-1 $174 $419 #
straight-curve $-1 11.961636445217458 -8.8343481572477813 10.087125970709565 -1 0 0 I I #
coedge $-1 $291 $291 $-1 $420 reversed $177 $-1 #
edge $-1 $421 0 $421 6.2831853071796004 $178 $422 forward 7 unknown #
vertex $-1 $181 $423 #
ellipse-curve $-1 59.983098904295268 -22.16172988570942 6.4711753688402478 0.52991927123019833 0 0.84804809178421925 1.2720721376763289 0 -0.79487890684529749 1 I I #
coedge $-1 $295 $295 $-1 $424 reversed $184 $-1 #
edge $-1 $425 0 $425 6.2831853071796004 $185 $426 forward 7 unknown #
vertex $-1 $188 $427 #
ellipse-curve $-1 59.983098904295268 -17.163961737536304 6.4711753688402478 0.52991927123019833 0 0.84804809178421925 1.2720721376763289 0 -0.79487890684529749 1 I I #
coedge $-1 $299 $299 $-1 $428 reversed $191 $-1 #
edge $-1 $429 0 $429 6.2831853071796004 $192 $430 forward 7 unknown #
vertex $-1 $195 $431 #
ellipse-curve $-1 59.983098904295268 -12.166193589363189 6.4711753688402478 0.52991927123019833 0 0.84804809178421925 1.2720721376763289 0 -0.79487890684529749 1 I I #
face $-1 $-1 $315 $42 $-1 $432 forward single #
loop $-1 $-1 $433 $196 #
plane-surface $-1 -65.769829401532036 0 0 1 0 0 0 0 -1 forward_v I I I I #
coedge $-1 $434 $435 $436 $437 reversed $197 $-1 #
coedge $-1 $438 $199 $201 $313 forward $124 $-1 #
coedge $-1 $199 $438 $434 $439 forward $124 $-1 #
coedge $-1 $436 $202 $199 $310 forward $315 $-1 #
edge $-1 $317 -17.548634312001472 $440 -3.5118037978851806 $309 $441 forward 7 unknown #
coedge $-1 $442 $443 $200 $312 forward $304 $-1 #
edge $-1 $444 -30.910059448179084 $316 -22.774504803306762 $311 $445 forward 7 unknown #
edge $-1 $317 -9.3018194165259942 $444 8.7863464449589411e-014 $201 $446 forward 7 unknown #
coedge $-1 $202 $436 $442 $447 forward $315 $-1 #
loop $-1 $-1 $436 $303 #
vertex $-1 $312 $448 #
vertex $-1 $203 $449 #
straight-curve $-1 -90.408504132039468 -28.078853366944799 10.087125970709572 1 0 0 I I #
coedge $-1 $319 $319 $-1 $450 reversed $206 $-1 #
edge $-1 $451 0 $451 6.2831853071796004 $207 $452 forward 7 unknown #
vertex $-1 $210 $453 #
ellipse-curve $-1 -63.515023696046619 -24.068330362911574 6.0193486482734393 -0.87461971476443456 0 0.48480960649040278 0.48480960649040278 0 0.87461971476443456 1 I I #
coedge $-1 $323 $323 $-1 $454 reversed $213 $-1 #
edge $-1 $455 0 $455 6.2831853071796004 $214 $456 forward 7 unknown #
vertex $-1 $217 $457 #
ellipse-curve $-1 -63.515023696046619 -18.052545856861734 6.0193486482734393 -0.87461971476443456 0 0.48480960649040278 0.48480960649040278 0 0.87461971476443456 1 I I #
face $-1 $-1 $458 $45 $-1 $459 reversed single #
loop $-1 $-1 $224 $218 #
plane-surface $-1 0 0 10.087125970709572 0 0 1 1 0 0 forward_v I I I I #
coedge $-1 $460 $461 $462 $463 reversed $219 $-1 #
coedge $-1 $464 $221 $223 $337 forward $138 $-1 #
coedge $-1 $221 $464 $460 $465 forward $138 $-1 #
coedge $-1 $462 $224 $221 $334 forward $328 $-1 #
edge $-1 $340 7.9325305453647026 $466 21.969361059480992 $333 $467 forward 7 unknown #
coedge $-1 $468 $469 $222 $336 forward $458 $-1 #
edge $-1 $470 -30.910059448179084 $339 -22.774504803306762 $335 $471 forward 7 unknown #
edge $-1 $340 -9.3018194165259942 $470 8.7863464449589411e-014 $223 $472 forward 7 unknown #
coedge $-1 $224 $462 $468 $473 forward $328 $-1 #
vertex $-1 $336 $474 #
vertex $-1 $225 $475 #
straight-curve $-1 -90.408504132039468 22.88347634778755 10.087125970709572 1 0 0 I I #
coedge $-1 $342 $342 $-1 $476 reversed $228 $-1 #
edge $-1 $477 0 $477 6.2831853071796004 $229 $478 forward 7 unknown #
vertex $-1 $232 $479 #
ellipse-curve $-1 -63.515023696046619 26.893999351820774 6.0193486482734393 -0.87461971476443456 0 0.48480960649040278 0.48480960649040278 0 0.87461971476443456 1 I I #
coedge $-1 $346 $346 $-1 $480 reversed $235 $-1 #
edge $-1 $481 0 $481 6.2831853071796004 $236 $482 forward 7 unknown #
vertex $-1 $239 $483 #
ellipse-curve $-1 -63.515023696046619 32.909783857870615 6.0193486482734393 -0.87461971476443456 0 0.48480960649040278 0.48480960649040278 0 0.87461971476443456 1 I I #
face $-1 $-1 $255 $36 $-1 $484 reversed single #
loop $-1 $-1 $366 $240 #
plane-surface $-1 0 44.463632248471875 0 0 -1 0 0 0 -1 forward_v I I I I #
coedge $-1 $485 $364 $367 $486 forward $241 $-1 #
coedge $-1 $370 $243 $244 $358 reversed $152 $-1 #
coedge $-1 $364 $485 $243 $356 reversed $241 $-1 #
edge $-1 $371 -10.087125970709572 $487 10.087125970709572 $355 $488 forward 7 unknown #
coedge $-1 $245 $244 $485 $489 forward $97 $-1 #
edge $-1 $362 -65.769829401532036 $487 65.769829401532036 $354 $490 forward 7 unknown #
coedge $-1 $367 $366 $245 $360 reversed $351 $-1 #
edge $-1 $491 -65.769829401532036 $361 65.769829401532036 $359 $492 forward 7 unknown #
vertex $-1 $247 $493 #
vertex $-1 $373 $494 #
straight-curve $-1 65.769829401532036 0 -10.087125970709572 0 -1 0 I I #
coedge $-1 $353 $355 $248 $365 reversed $241 $-1 #
edge $-1 $368 -44.463632248471875 $371 44.463632248471875 $364 $495 forward 7 unknown #
coedge $-1 $359 $249 $254 $374 forward $351 $-1 #
coedge $-1 $249 $359 $353 $486 reversed $351 $-1 #
vertex $-1 $250 $496 #
straight-curve $-1 0 44.463632248471875 10.087125970709572 -1 0 0 I I #
coedge $-1 $251 $354 $253 $373 reversed $152 $-1 #
vertex $-1 $365 $497 #
straight-curve $-1 0 -44.463632248471875 10.087125970709572 1 0 0 I I #
edge $-1 $256 -10.087125970709572 $362 10.087125970709572 $253 $498 forward 7 unknown #
edge $-1 $257 -10.087125970709572 $361 10.087125970709572 $254 $499 forward 7 unknown #
point $-1 65.769829401532036 -44.463632248471875 10.087125970709572 #
point $-1 65.769829401532036 44.463632248471875 10.087125970709572 #
face $-1 $-1 $500 $37 $-1 $501 reversed single #
loop $-1 $-1 $502 $259 #
plane-surface $-1 0 0 -10.087125970709572 0 0 1 1 0 0 forward_v I I I I #
coedge $-1 $387 $397 $382 $503 forward $260 $-1 #
coedge $-1 $265 $262 $502 $504 reversed $160 $-1 #
coedge $-1 $262 $265 $380 $503 reversed $160 $-1 #
coedge $-1 $505 $506 $262 $384 forward $500 $-1 #
edge $-1 $507 -10.087125970709572 $508 10.087125970709572 $383 $509 forward 7 unknown #
coedge $-1 $502 $268 $263 $386 forward $378 $-1 #
edge $-1 $273 -27.150476897413892 $390 -23.963983140804654 $385 $510 forward 7 unknown #
coedge $-1 $270 $380 $264 $388 forward $260 $-1 #
edge $-1 $389 23.963983140804654 $272 27.150476897413892 $387 $511 forward 7 unknown #
vertex $-1 $388 $512 #
vertex $-1 $386 $513 #
straight-curve $-1 -49.521213159913927 -35.622178753512848 0 0 0 -1 I I #
coedge $-1 $506 $505 $267 $393 forward $500 $-1 #
edge $-1 $398 -10.087125970709572 $395 10.087125970709572 $392 $514 forward 7 unknown #
coedge $-1 $268 $502 $506 $515 forward $378 $-1 #
vertex $-1 $269 $516 #
straight-curve $-1 -52.707706916523165 -20.021452750496181 -10.087125970709572 0 1 0 I I #
coedge $-1 $380 $270 $505 $517 forward $260 $-1 #
vertex $-1 $517 $518 #
straight-curve $-1 -52.707706916523165 -20.021452750496181 10.087125970709572 0 -1 0 I I #
point $-1 -52.707706916523165 -35.622178753512848 10.087125970709572 #
point $-1 -52.707706916523165 -35.622178753512848 -10.087125970709572 #
plane-surface $-1 0 0 10.087125970709572 0 0 1 1 0 0 forward_v I I I I #
coedge $-1 $413 $412 $405 $519 forward $276 $-1 #
coedge $-1 $405 $278 $280 $409 reversed $168 $-1 #
coedge $-1 $278 $404 $403 $519 reversed $168 $-1 #
coedge $-1 $286 $281 $278 $407 forward $287 $-1 #
edge $-1 $410 42.234731961841014 $520 53.808192956314578 $406 $521 forward 7 unknown #
coedge $-1 $280 $279 $413 $522 reversed $105 $-1 #
edge $-1 $523 -131.5396588030641 $410 -117.89248347586772 $404 $524 forward 7 unknown #
vertex $-1 $282 $525 #
straight-curve $-1 54.196368407058472 -8.5819808687681522 10.087125970709565 0 -1 0 I I #
coedge $-1 $403 $283 $286 $417 reversed $276 $-1 #
coedge $-1 $283 $403 $408 $522 forward $276 $-1 #
vertex $-1 $284 $526 #
straight-curve $-1 65.769829401532036 -8.8343481572477813 92.056290769822681 0 0 1 I I #
straight-curve $-1 -45.782127240353745 -8.8343481572477813 72.560624897759595 0.84804809178421925 0 -0.52991927123019833 I I #
edge $-1 $520 -25.493575317824828 $288 -8.8343481572477813 $412 $527 forward 7 unknown #
point $-1 65.769829401532036 -8.8343481572477813 10.087125970709572 #
point $-1 54.196368407058472 -8.8343481572477813 10.087125970709572 #
edge $-1 $528 1 $528 0 $291 $-1 forward 7 unknown #
vertex $-1 $292 $529 #
ellipse-curve $-1 58.120311454185611 -22.16172988570942 3.4900923468966152 0.52991927123019833 0 0.84804809178421925 1.2720721376763289 0 -0.79487890684529749 1 I I #
point $-1 61.255171041971607 -22.16172988570942 5.6762964619949683 #
edge $-1 $530 1 $530 0 $295 $-1 forward 7 unknown #
vertex $-1 $296 $531 #
ellipse-curve $-1 58.120311454185611 -17.163961737536304 3.4900923468966152 0.52991927123019833 0 0.84804809178421925 1.2720721376763289 0 -0.79487890684529749 1 I I #
point $-1 61.255171041971607 -17.163961737536304 5.6762964619949683 #
edge $-1 $532 1 $532 0 $299 $-1 forward 7 unknown #
vertex $-1 $300 $533 #
ellipse-curve $-1 58.120311454185611 -12.166193589363189 3.4900923468966152 0.52991927123019833 0 0.84804809178421925 1.2720721376763289 0 -0.79487890684529749 1 I I #
point $-1 61.255171041971607 -12.166193589363189 5.6762964619949683 #
plane-surface $-1 0 0 10.087125970709572 0 0 1 1 0 0 forward_v I I I I #
coedge $-1 $443 $442 $435 $534 forward $304 $-1 #
coedge $-1 $435 $306 $308 $439 reversed $197 $-1 #
coedge $-1 $306 $434 $433 $534 reversed $197 $-1 #
coedge $-1 $314 $309 $306 $437 forward $315 $-1 #
edge $-1 $440 -29.148286141478231 $535 -24.638674730507432 $436 $536 forward 7 unknown #
coedge $-1 $308 $307 $443 $537 reversed $124 $-1 #
edge $-1 $538 -8.7863464449589411e-014 $440 9.3018194165259942 $434 $539 forward 7 unknown #
vertex $-1 $310 $540 #
straight-curve $-1 -61.260217990561245 -10.530219054943327 10.087125970709574 0 1 0 I I #
coedge $-1 $433 $311 $314 $447 reversed $304 $-1 #
coedge $-1 $311 $433 $438 $537 forward $304 $-1 #
vertex $-1 $312 $541 #
straight-curve $-1 -65.769829401532036 -28.078853366944799 32.861630774016334 0 0 1 I I #
straight-curve $-1 -65.769829401531993 -28.078853366944799 1.9515713258373282 -0.48480960649040278 0 -0.87461971476443456 I I #
edge $-1 $535 14.042022852828508 $316 28.078853366944799 $442 $542 forward 7 unknown #
point $-1 -65.769829401532036 -28.078853366944799 10.087125970709572 #
point $-1 -61.260217990561237 -28.078853366944799 10.087125970709572 #
edge $-1 $543 1 $543 0 $319 $-1 forward 7 unknown #
vertex $-1 $320 $544 #
ellipse-curve $-1 -62.394169450543927 -24.068330362911574 5.3980490176772813 -0.87461971476443456 0 0.48480960649040278 0.48480960649040278 0 0.87461971476443456 1 I I #
point $-1 -63.03021408955626 -24.068330362911574 6.8939683630378941 #
edge $-1 $545 1 $545 0 $323 $-1 forward 7 unknown #
vertex $-1 $324 $546 #
ellipse-curve $-1 -62.394169450543927 -18.052545856861734 5.3980490176772813 -0.87461971476443456 0 0.48480960649040278 0.48480960649040278 0 0.87461971476443456 1 I I #
point $-1 -63.03021408955626 -18.052545856861734 6.8939683630378941 #
loop $-1 $-1 $335 $327 #
plane-surface $-1 -65.769829401532036 0 0 1 0 0 0 0 -1 forward_v I I I I #
coedge $-1 $461 $330 $332 $465 reversed $219 $-1 #
coedge $-1 $330 $460 $547 $548 reversed $219 $-1 #
coedge $-1 $338 $333 $330 $463 forward $328 $-1 #
edge $-1 $466 -29.148286141478231 $549 -24.638674730507432 $462 $550 forward 7 unknown #
coedge $-1 $332 $331 $469 $551 reversed $138 $-1 #
edge $-1 $552 -8.7863464449589411e-014 $466 9.3018194165259942 $460 $553 forward 7 unknown #
vertex $-1 $334 $554 #
straight-curve $-1 -61.260217990561245 14.950945802422847 10.087125970709574 0 1 0 I I #
coedge $-1 $547 $335 $338 $473 reversed $458 $-1 #
coedge $-1 $335 $547 $464 $551 forward $458 $-1 #
vertex $-1 $336 $555 #
straight-curve $-1 -65.769829401532036 22.88347634778755 32.861630774016334 0 0 1 I I #
straight-curve $-1 -65.769829401531993 22.88347634778755 1.9515713258373282 -0.48480960649040278 0 -0.87461971476443456 I I #
edge $-1 $549 -36.920306861903839 $339 -22.88347634778755 $468 $556 forward 7 unknown #
point $-1 -65.769829401532036 22.88347634778755 10.087125970709572 #
point $-1 -61.260217990561237 22.88347634778755 10.087125970709572 #
edge $-1 $557 1 $557 0 $342 $-1 forward 7 unknown #
vertex $-1 $343 $558 #
ellipse-curve $-1 -62.394169450543927 26.893999351820774 5.3980490176772813 -0.87461971476443456 0 0.48480960649040278 0.48480960649040278 0 0.87461971476443456 1 I I #
point $-1 -63.03021408955626 26.893999351820774 6.8939683630378941 #
edge $-1 $559 1 $559 0 $346 $-1 forward 7 unknown #
vertex $-1 $347 $560 #
ellipse-curve $-1 -62.394169450543927 32.909783857870615 5.3980490176772813 -0.87461971476443456 0 0.48480960649040278 0.48480960649040278 0 0.87461971476443456 1 I I #
point $-1 -63.03021408955626 32.909783857870615 6.8939683630378941 #
plane-surface $-1 65.769829401532036 0 0 -1 0 0 0 0 1 forward_v I I I I #
coedge $-1 $355 $353 $357 $489 reversed $241 $-1 #
edge $-1 $368 -10.087125970709572 $491 10.087125970709572 $367 $561 forward 7 unknown #
vertex $-1 $489 $562 #
straight-curve $-1 -65.769829401532036 -44.463632248471875 0 0 0 -1 I I #
edge $-1 $487 -44.463632248471875 $491 44.463632248471875 $485 $563 forward 7 unknown #
straight-curve $-1 0 -44.463632248471875 -10.087125970709572 -1 0 0 I I #
vertex $-1 $360 $564 #
straight-curve $-1 0 44.463632248471875 -10.087125970709572 1 0 0 I I #
point $-1 65.769829401532036 44.463632248471875 -10.087125970709572 #
point $-1 65.769829401532036 -44.463632248471875 -10.087125970709572 #
straight-curve $-1 -65.769829401532036 0 10.087125970709572 0 -1 0 I I #
point $-1 -65.769829401532036 44.463632248471875 10.087125970709572 #
point $-1 -65.769829401532036 -44.463632248471875 10.087125970709572 #
straight-curve $-1 65.769829401532036 -44.463632248471875 0 0 0 -1 I I #
straight-curve $-1 65.769829401532036 44.463632248471875 0 0 0 -1 I I #
loop $-1 $-1 $383 $377 #
plane-surface $-1 0 -44.463632248471875 0 0 1 0 0 0 1 forward_v I I I I #
coedge $-1 $394 $385 $381 $504 forward $378 $-1 #
edge $-1 $508 -24.442179497975694 $389 -15.600726003016668 $380 $565 forward 7 unknown #
edge $-1 $390 15.600726003016668 $507 24.442179497975694 $502 $566 forward 7 unknown #
coedge $-1 $392 $383 $397 $517 reversed $500 $-1 #
coedge $-1 $383 $392 $394 $515 reversed $500 $-1 #
vertex $-1 $515 $567 #
vertex $-1 $384 $568 #
straight-curve $-1 -49.521213159913927 -44.463632248471875 0 0 0 1 I I #
straight-curve $-1 -25.557230019109273 -35.622178753512848 -10.087125970709572 1 0 0 I I #
straight-curve $-1 -25.557230019109273 -35.622178753512848 10.087125970709572 -1 0 0 I I #
point $-1 -49.521213159913927 -35.622178753512848 10.087125970709572 #
point $-1 -49.521213159913927 -35.622178753512848 -10.087125970709572 #
straight-curve $-1 -52.707706916523165 -44.463632248471875 0 0 0 -1 I I #
edge $-1 $507 49.521213159913927 $395 52.707706916523165 $506 $569 forward 7 unknown #
point $-1 -52.707706916523165 -44.463632248471875 -10.087125970709572 #
edge $-1 $398 -52.707706916523165 $508 -49.521213159913927 $505 $570 forward 7 unknown #
point $-1 -52.707706916523165 -44.463632248471875 10.087125970709572 #
edge $-1 $520 81.969164799113116 $523 89.201066002851761 $403 $571 forward 7 unknown #
vertex $-1 $417 $572 #
straight-curve $-1 11.961636445217458 -25.493575317824828 10.087125970709565 1 0 0 I I #
edge $-1 $523 -16.911594449056675 $414 -0.25236728847962908 $413 $573 forward 7 unknown #
vertex $-1 $522 $574 #
straight-curve $-1 -45.782127240353745 -25.493575317824828 72.560624897759595 -0.84804809178421925 0 0.52991927123019833 I I #
point $-1 54.196368407058472 -25.493575317824828 10.087125970709572 #
point $-1 65.769829401532036 -8.8343481572477813 2.8552247669709203 #
straight-curve $-1 65.769829401532036 0 10.087125970709572 0 1 0 I I #
vertex $-1 $420 $575 #
point $-1 59.392383591861943 -22.16172988570942 2.6952134400513179 #
vertex $-1 $424 $576 #
point $-1 59.392383591861943 -17.163961737536304 2.6952134400513179 #
vertex $-1 $428 $577 #
point $-1 59.392383591861943 -12.166193589363189 2.6952134400513179 #
edge $-1 $535 22.774504803306762 $538 30.910059448179084 $433 $578 forward 7 unknown #
vertex $-1 $447 $579 #
straight-curve $-1 -90.408504132039468 -14.042022852828508 10.087125970709572 -1 0 0 I I #
edge $-1 $538 3.5118037978851806 $444 17.548634312001472 $443 $580 forward 7 unknown #
vertex $-1 $537 $581 #
straight-curve $-1 -65.769829401531993 -14.042022852828508 1.9515713258373282 0.48480960649040278 0 0.87461971476443456 I I #
point $-1 -61.260217990561237 -14.042022852828508 10.087125970709572 #
point $-1 -65.769829401532036 -28.078853366944799 1.9515713258372513 #
straight-curve $-1 -65.769829401532036 0 10.087125970709572 0 -1 0 I I #
vertex $-1 $450 $582 #
point $-1 -61.909359844053526 -24.068330362911574 6.2726687324417156 #
vertex $-1 $454 $583 #
point $-1 -61.909359844053526 -18.052545856861734 6.2726687324417156 #
coedge $-1 $469 $468 $461 $548 forward $458 $-1 #
edge $-1 $549 22.774504803306762 $552 30.910059448179084 $547 $584 forward 7 unknown #
vertex $-1 $473 $585 #
straight-curve $-1 -90.408504132039468 36.920306861903839 10.087125970709572 -1 0 0 I I #
edge $-1 $552 -21.969361059480992 $470 -7.9325305453647026 $469 $586 forward 7 unknown #
vertex $-1 $551 $587 #
straight-curve $-1 -65.769829401531993 36.920306861903839 1.9515713258373282 0.48480960649040278 0 0.87461971476443456 I I #
point $-1 -61.260217990561237 36.920306861903839 10.087125970709572 #
point $-1 -65.769829401532036 22.88347634778755 1.9515713258372513 #
straight-curve $-1 -65.769829401532036 0 10.087125970709572 0 -1 0 I I #
vertex $-1 $476 $588 #
point $-1 -61.909359844053526 26.893999351820774 6.2726687324417156 #
vertex $-1 $480 $589 #
point $-1 -61.909359844053526 32.909783857870615 6.2726687324417156 #
straight-curve $-1 -65.769829401532036 44.463632248471875 0 0 0 -1 I I #
point $-1 -65.769829401532036 -44.463632248471875 -10.087125970709572 #
straight-curve $-1 -65.769829401532036 0 -10.087125970709572 0 1 0 I I #
point $-1 -65.769829401532036 44.463632248471875 -10.087125970709572 #
straight-curve $-1 -49.521213159913927 -20.021452750496181 10.087125970709572 0 1 0 I I #
straight-curve $-1 -49.521213159913927 -20.021452750496181 -10.087125970709572 0 -1 0 I I #
point $-1 -49.521213159913927 -44.463632248471875 -10.087125970709572 #
point $-1 -49.521213159913927 -44.463632248471875 10.087125970709572 #
straight-curve $-1 0 -44.463632248471875 -10.087125970709572 -1 0 0 I I #
straight-curve $-1 0 -44.463632248471875 10.087125970709572 1 0 0 I I #
straight-curve $-1 65.769829401532036 -25.493575317824828 92.056290769822681 0 0 -1 I I #
point $-1 65.769829401532036 -25.493575317824828 10.087125970709572 #
straight-curve $-1 65.769829401532036 -8.5819808687681522 2.8552247669709274 0 1 0 I I #
point $-1 65.769829401532036 -25.493575317824828 2.8552247669709203 #
point $-1 57.325432547340313 -22.16172988570942 2.2180202092202865 #
point $-1 57.325432547340313 -17.163961737536304 2.2180202092202865 #
point $-1 57.325432547340313 -12.166193589363189 2.2180202092202865 #
straight-curve $-1 -65.769829401532036 -14.042022852828508 32.861630774016334 0 0 -1 I I #
point $-1 -65.769829401532036 -14.042022852828508 10.087125970709572 #
straight-curve $-1 -65.769829401532036 -10.530219054943327 1.9515713258372485 0 -1 0 I I #
point $-1 -65.769829401532036 -14.042022852828508 1.9515713258372513 #
point $-1 -61.519549735779492 -24.068330362911574 4.9132394111868782 #
point $-1 -61.519549735779492 -18.052545856861734 4.9132394111868782 #
straight-curve $-1 -65.769829401532036 36.920306861903839 32.861630774016334 0 0 -1 I I #
point $-1 -65.769829401532036 36.920306861903839 10.087125970709572 #
straight-curve $-1 -65.769829401532036 14.950945802422847 1.9515713258372485 0 -1 0 I I #
point $-1 -65.769829401532036 36.920306861903839 1.9515713258372513 #
point $-1 -61.519549735779492 26.893999351820774 4.9132394111868782 #
point $-1 -61.519549735779492 32.909783857870615 4.9132394111868782 #
End-of-ACIS-data 