500 0 13 0           
7 Unknown 11 ACIS 5.0 NT 24 Thu Mar 25 23:38:43 1999 
-1 9.9999999999999995e-007 1e-010 
body $-1 $13 $-1 $14 #
body $-1 $15 $-1 $16 #
body $-1 $17 $-1 $18 #
body $-1 $19 $-1 $20 #
body $-1 $21 $-1 $22 #
body $-1 $23 $-1 $24 #
body $-1 $25 $-1 $26 #
body $-1 $27 $-1 $28 #
body $-1 $29 $-1 $30 #
body $-1 $31 $-1 $32 #
body $-1 $33 $-1 $34 #
body $-1 $35 $-1 $36 #
body $-1 $37 $-1 $38 #
lump $-1 $-1 $39 $0 #
transform $-1 1 0 0 0 1 0 0 0 1 48.867458113345748 27.056289104657694 12.179087112246149 1 rotate no_reflect no_shear #
lump $-1 $-1 $40 $1 #
transform $-1 1 0 0 0 1 0 0 0 1 48.867458113345748 27.056289104657694 12.179087112246149 1 rotate no_reflect no_shear #
lump $-1 $-1 $41 $2 #
transform $-1 1 0 0 0 1 0 0 0 1 48.867458113345748 27.056289104657694 12.179087112246149 1 rotate no_reflect no_shear #
lump $-1 $-1 $42 $3 #
transform $-1 1 0 0 0 1 0 0 0 1 48.867458113345748 27.056289104657694 12.179087112246149 1 rotate no_reflect no_shear #
lump $-1 $-1 $43 $4 #
transform $-1 1 0 0 0 1 0 0 0 1 48.867458113345748 27.056289104657694 12.179087112246149 1 rotate no_reflect no_shear #
lump $-1 $-1 $44 $5 #
transform $-1 1 0 0 0 1 0 0 0 1 48.867458113345748 27.056289104657694 12.179087112246149 1 rotate no_reflect no_shear #
lump $-1 $-1 $45 $6 #
transform $-1 1 0 0 0 1 0 0 0 1 48.867458113345748 27.056289104657694 12.179087112246149 1 rotate no_reflect no_shear #
lump $-1 $-1 $46 $7 #
transform $-1 1 0 0 0 1 0 0 0 1 48.867458113345748 27.056289104657694 12.179087112246149 1 rotate no_reflect no_shear #
lump $-1 $-1 $47 $8 #
transform $-1 1 0 0 0 1 0 0 0 1 48.867458113345748 27.056289104657694 12.179087112246149 1 rotate no_reflect no_shear #
lump $-1 $-1 $48 $9 #
transform $-1 1 0 0 0 1 0 0 0 1 48.867458113345748 27.056289104657694 12.179087112246149 1 rotate no_reflect no_shear #
lump $-1 $-1 $49 $10 #
transform $-1 1 0 0 0 1 0 0 0 1 48.867458113345748 27.056289104657694 12.179087112246149 1 rotate no_reflect no_shear #
lump $-1 $-1 $50 $11 #
transform $-1 1 0 0 0 1 0 0 0 1 48.867458113345748 27.056289104657694 12.179087112246149 1 rotate no_reflect no_shear #
lump $-1 $-1 $51 $12 #
transform $-1 1 0 0 0 1 0 0 0 1 48.867458113345748 27.056289104657694 12.179087112246149 1 rotate no_reflect no_shear #
shell $-1 $-1 $-1 $52 $-1 $13 #
shell $-1 $-1 $-1 $53 $-1 $15 #
shell $-1 $-1 $-1 $54 $-1 $17 #
shell $-1 $-1 $-1 $55 $-1 $19 #
shell $-1 $-1 $-1 $56 $-1 $21 #
shell $-1 $-1 $-1 $57 $-1 $23 #
shell $-1 $-1 $-1 $58 $-1 $25 #
shell $-1 $-1 $-1 $59 $-1 $27 #
shell $-1 $-1 $-1 $60 $-1 $29 #
shell $-1 $-1 $-1 $61 $-1 $31 #
shell $-1 $-1 $-1 $62 $-1 $33 #
shell $-1 $-1 $-1 $63 $-1 $35 #
shell $-1 $-1 $-1 $64 $-1 $37 #
face $-1 $65 $66 $39 $-1 $67 forward single #
face $-1 $68 $69 $40 $-1 $70 reversed single #
face $-1 $71 $72 $41 $-1 $73 forward single #
face $-1 $74 $75 $42 $-1 $76 forward single #
face $-1 $77 $78 $43 $-1 $79 forward single #
face $-1 $80 $81 $44 $-1 $82 reversed single #
face $-1 $83 $84 $45 $-1 $85 forward single #
face $-1 $86 $87 $46 $-1 $88 forward single #
face $-1 $89 $90 $47 $-1 $91 forward single #
face $-1 $92 $93 $48 $-1 $94 reversed single #
face $-1 $95 $96 $49 $-1 $97 forward single #
face $-1 $98 $99 $50 $-1 $100 forward single #
face $-1 $101 $102 $51 $-1 $103 forward single #
face $-1 $104 $105 $39 $-1 $106 reversed single #
loop $-1 $-1 $107 $52 #
plane-surface $-1 0 0 12.179087112246149 0 0 1 1 0 0 forward_v I I I I #
face $-1 $108 $109 $40 $-1 $110 reversed single #
loop $-1 $-1 $111 $53 #
plane-surface $-1 -16.529964744964843 -22.884690449162807 78.341690053967469 0.74314483375859142 0 0.66913059716165679 0.66913059716165679 0 -0.74314483375859142 forward_v I I I I #
face $-1 $112 $113 $41 $-1 $114 forward single #
loop $-1 $115 $116 $54 #
cone-surface $-1 45.583711160969386 -25.387649642459738 8.6102242486787084 -0.74314483375859142 0 -0.66913059716165679 0.3345652985808284 0 -0.37157241687929571 1 I I 0 1 0.5 forward I I I I #
face $-1 $117 $118 $42 $-1 $119 forward single #
loop $-1 $120 $121 $55 #
cone-surface $-1 45.583711160969386 -22.884690449162807 8.6102242486787084 -0.74314483375859142 0 -0.66913059716165679 0.3345652985808284 0 -0.37157241687929571 1 I I 0 1 0.5 forward I I I I #
face $-1 $122 $123 $43 $-1 $124 forward single #
loop $-1 $125 $126 $56 #
cone-surface $-1 45.583711160969386 -20.381731255865876 8.6102242486787084 -0.74314483375859142 0 -0.66913059716165679 0.3345652985808284 0 -0.37157241687929571 1 I I 0 1 0.5 forward I I I I #
face $-1 $127 $128 $44 $-1 $129 reversed single #
loop $-1 $-1 $130 $57 #
plane-surface $-1 56.10123332672967 0 143.73911291227805 0 1 0 0.74314483375859142 0 0.66913059716165679 forward_v I I I I #
face $-1 $131 $132 $45 $-1 $133 forward single #
loop $-1 $134 $135 $58 #
cone-surface $-1 45.583711160969386 1.6686394621979552 8.6102242486787084 -0.74314483375859142 0 -0.66913059716165679 0.3345652985808284 0 -0.37157241687929571 1 I I 0 1 0.5 forward I I I I #
face $-1 $136 $137 $46 $-1 $138 forward single #
loop $-1 $139 $140 $59 #
cone-surface $-1 45.583711160969386 4.1715986554948863 8.6102242486787084 -0.74314483375859142 0 -0.66913059716165679 0.3345652985808284 0 -0.37157241687929571 1 I I 0 1 0.5 forward I I I I #
face $-1 $141 $142 $47 $-1 $143 forward single #
loop $-1 $144 $145 $60 #
cone-surface $-1 45.583711160969386 6.6745578487918209 8.6102242486787084 -0.74314483375859142 0 -0.66913059716165679 0.3345652985808284 0 -0.37157241687929571 1 I I 0 1 0.5 forward I I I I #
face $-1 $146 $147 $48 $-1 $148 reversed single #
loop $-1 $-1 $149 $61 #
plane-surface $-1 -114.26488265707076 -13.863570734097067 81.483929819962938 0 -1 0 0.66913061440640931 0 -0.74314481823134659 forward_v I I I I #
face $-1 $150 $151 $49 $-1 $152 forward single #
loop $-1 $153 $154 $62 #
cone-surface $-1 -46.685747741074337 -24.417745430545569 10.144337779918605 0.66913061440640931 0 -0.74314481823134659 0.3715724091156733 0 0.33456530720320465 1 I I 0 1 0.5 forward I I I I #
face $-1 $155 $156 $50 $-1 $157 forward single #
loop $-1 $158 $159 $63 #
cone-surface $-1 -46.685747741074337 -20.45992991937738 10.144337779918605 0.66913061440640931 0 -0.74314481823134659 0.3715724091156733 0 0.33456530720320465 1 I I 0 1 0.5 forward I I I I #
face $-1 $160 $161 $51 $-1 $162 forward single #
loop $-1 $163 $164 $64 #
cone-surface $-1 -46.685747741074337 -16.502114408209192 10.144337779918605 0.66913061440640931 0 -0.74314481823134659 0.3715724091156733 0 0.33456530720320465 1 I I 0 1 0.5 forward I I I I #
face $-1 $165 $166 $39 $-1 $167 reversed single #
loop $-1 $-1 $168 $65 #
plane-surface $-1 0 0 -12.179087112246149 0 0 1 1 0 0 forward_v I I I I #
coedge $-1 $169 $170 $171 $172 forward $66 $-1 #
face $-1 $173 $174 $40 $-1 $175 forward single #
loop $-1 $-1 $176 $68 #
plane-surface $-1 56.10123332672967 -18.713091793667921 143.73911291227805 0 -1 0 -0.74314483375859142 0 -0.66913059716165679 forward_v I I I I #
coedge $-1 $177 $178 $179 $180 reversed $69 $-1 #
face $-1 $-1 $181 $41 $-1 $182 forward single #
loop $-1 $183 $184 $71 #
cone-surface $-1 45.026352535650446 -25.387649642459738 8.1083763008074659 -0.74314483375859142 0 -0.66913059716165679 0.1672826492904142 0 -0.18578620843964785 1 I I -0.70710678118654746 0.70710678118654746 0.25 forward I I I I #
loop $-1 $-1 $185 $54 #
coedge $-1 $116 $116 $186 $187 reversed $72 $-1 #
face $-1 $-1 $188 $42 $-1 $189 forward single #
loop $-1 $190 $191 $74 #
cone-surface $-1 45.026352535650446 -22.884690449162807 8.1083763008074659 -0.74314483375859142 0 -0.66913059716165679 0.1672826492904142 0 -0.18578620843964785 1 I I -0.70710678118654746 0.70710678118654746 0.25 forward I I I I #
loop $-1 $-1 $192 $55 #
coedge $-1 $121 $121 $193 $194 reversed $75 $-1 #
face $-1 $-1 $195 $43 $-1 $196 forward single #
loop $-1 $197 $198 $77 #
cone-surface $-1 45.026352535650446 -20.381731255865876 8.1083763008074659 -0.74314483375859142 0 -0.66913059716165679 0.1672826492904142 0 -0.18578620843964785 1 I I -0.70710678118654746 0.70710678118654746 0.25 forward I I I I #
loop $-1 $-1 $199 $56 #
coedge $-1 $126 $126 $200 $201 reversed $78 $-1 #
face $-1 $202 $203 $44 $-1 $204 reversed single #
loop $-1 $-1 $205 $80 #
plane-surface $-1 -16.529964744964843 4.1715986554948863 78.341690053967469 0.74314483375859142 0 0.66913059716165679 0.66913059716165679 0 -0.74314483375859142 forward_v I I I I #
coedge $-1 $206 $207 $208 $209 reversed $81 $-1 #
face $-1 $-1 $210 $45 $-1 $211 forward single #
loop $-1 $212 $213 $83 #
cone-surface $-1 45.026352535650446 1.6686394621979552 8.1083763008074659 -0.74314483375859142 0 -0.66913059716165679 0.1672826492904142 0 -0.18578620843964785 1 I I -0.70710678118654746 0.70710678118654746 0.25 forward I I I I #
loop $-1 $-1 $214 $58 #
coedge $-1 $135 $135 $215 $216 reversed $84 $-1 #
face $-1 $-1 $217 $46 $-1 $218 forward single #
loop $-1 $219 $220 $86 #
cone-surface $-1 45.026352535650446 4.1715986554948863 8.1083763008074659 -0.74314483375859142 0 -0.66913059716165679 0.1672826492904142 0 -0.18578620843964785 1 I I -0.70710678118654746 0.70710678118654746 0.25 forward I I I I #
loop $-1 $-1 $221 $59 #
coedge $-1 $140 $140 $222 $223 reversed $87 $-1 #
face $-1 $-1 $224 $47 $-1 $225 forward single #
loop $-1 $226 $227 $89 #
cone-surface $-1 45.026352535650446 6.6745578487918209 8.1083763008074659 -0.74314483375859142 0 -0.66913059716165679 0.1672826492904142 0 -0.18578620843964785 1 I I -0.70710678118654746 0.70710678118654746 0.25 forward I I I I #
loop $-1 $-1 $228 $60 #
coedge $-1 $145 $145 $229 $230 reversed $90 $-1 #
face $-1 $231 $232 $48 $-1 $233 reversed single #
loop $-1 $-1 $234 $92 #
plane-surface $-1 -48.867458113345734 -20.45992991937738 8.8527332658223941 -0.66913061440640931 0 0.74314481823134659 0.74314481823134659 0 0.66913061440640931 forward_v I I I I #
coedge $-1 $235 $236 $237 $238 reversed $93 $-1 #
face $-1 $-1 $239 $49 $-1 $240 forward single #
loop $-1 $241 $242 $95 #
cone-surface $-1 -46.183899780269527 -24.417745430545569 9.5869791662450954 0.66913061440640931 0 -0.74314481823134659 0.18578620455783665 0 0.16728265360160233 1 I I -0.70710678118654746 0.70710678118654746 0.25 forward I I I I #
loop $-1 $-1 $243 $62 #
coedge $-1 $154 $154 $244 $245 reversed $96 $-1 #
face $-1 $-1 $246 $50 $-1 $247 forward single #
loop $-1 $248 $249 $98 #
cone-surface $-1 -46.183899780269527 -20.45992991937738 9.5869791662450954 0.66913061440640931 0 -0.74314481823134659 0.18578620455783665 0 0.16728265360160233 1 I I -0.70710678118654746 0.70710678118654746 0.25 forward I I I I #
loop $-1 $-1 $250 $63 #
coedge $-1 $159 $159 $251 $252 reversed $99 $-1 #
face $-1 $-1 $253 $51 $-1 $254 forward single #
loop $-1 $255 $256 $101 #
cone-surface $-1 -46.183899780269527 -16.502114408209192 9.5869791662450954 0.66913061440640931 0 -0.74314481823134659 0.18578620455783665 0 0.16728265360160233 1 I I -0.70710678118654746 0.70710678118654746 0.25 forward I I I I #
loop $-1 $-1 $257 $64 #
coedge $-1 $164 $164 $258 $259 reversed $102 $-1 #
face $-1 $260 $261 $39 $-1 $262 reversed single #
loop $-1 $-1 $263 $104 #
plane-surface $-1 0 -27.056289104657694 0 0 1 0 0 0 1 forward_v I I I I #
coedge $-1 $264 $265 $266 $267 forward $105 $-1 #
coedge $-1 $268 $107 $269 $270 forward $66 $-1 #
coedge $-1 $107 $268 $271 $272 forward $66 $-1 #
coedge $-1 $273 $274 $107 $172 reversed $275 $-1 #
edge $-1 $276 -27.056289104657694 $277 27.056289104657694 $171 $278 forward 7 unknown #
face $-1 $279 $280 $40 $-1 $281 reversed single #
loop $-1 $-1 $282 $108 #
plane-surface $-1 0 0 12.179087112246149 0 0 1 1 0 0 forward_v I I I I #
coedge $-1 $283 $284 $285 $286 reversed $109 $-1 #
coedge $-1 $287 $111 $288 $289 reversed $69 $-1 #
coedge $-1 $111 $287 $283 $290 forward $69 $-1 #
coedge $-1 $285 $291 $111 $180 forward $292 $-1 #
edge $-1 $293 -15.61394388007629 $294 -7.2707465690865174 $179 $295 forward 7 unknown #
loop $-1 $-1 $186 $112 #
plane-surface $-1 -16.529964744964843 -22.884690449162807 78.341690053967469 0.74314483375859142 0 0.66913059716165679 0.66913059716165679 0 -0.74314483375859142 forward_v I I I I #
loop $-1 $-1 $296 $71 #
coedge $-1 $184 $184 $185 $297 reversed $113 $-1 #
coedge $-1 $185 $185 $184 $297 forward $115 $-1 #
coedge $-1 $186 $186 $116 $187 forward $181 $-1 #
edge $-1 $298 0 $298 6.2831853071796004 $186 $299 forward 7 unknown #
loop $-1 $-1 $193 $117 #
plane-surface $-1 -16.529964744964843 -22.884690449162807 78.341690053967469 0.74314483375859142 0 0.66913059716165679 0.66913059716165679 0 -0.74314483375859142 forward_v I I I I #
loop $-1 $-1 $300 $74 #
coedge $-1 $191 $191 $192 $301 reversed $118 $-1 #
coedge $-1 $192 $192 $191 $301 forward $120 $-1 #
coedge $-1 $193 $193 $121 $194 forward $188 $-1 #
edge $-1 $302 0 $302 6.2831853071796004 $193 $303 forward 7 unknown #
loop $-1 $-1 $200 $122 #
plane-surface $-1 -16.529964744964843 -22.884690449162807 78.341690053967469 0.74314483375859142 0 0.66913059716165679 0.66913059716165679 0 -0.74314483375859142 forward_v I I I I #
loop $-1 $-1 $304 $77 #
coedge $-1 $198 $198 $199 $305 reversed $123 $-1 #
coedge $-1 $199 $199 $198 $305 forward $125 $-1 #
coedge $-1 $200 $200 $126 $201 forward $195 $-1 #
edge $-1 $306 0 $306 6.2831853071796004 $200 $307 forward 7 unknown #
face $-1 $308 $309 $44 $-1 $310 forward single #
loop $-1 $-1 $311 $127 #
plane-surface $-1 56.10123332672967 8.3431973109897726 143.73911291227805 0 -1 0 -0.74314483375859142 0 -0.66913059716165679 forward_v I I I I #
coedge $-1 $312 $313 $314 $315 reversed $128 $-1 #
coedge $-1 $207 $130 $316 $317 reversed $81 $-1 #
coedge $-1 $130 $206 $312 $318 reversed $81 $-1 #
coedge $-1 $314 $319 $130 $209 forward $320 $-1 #
edge $-1 $321 59.690469343892872 $322 66.159064473866081 $208 $323 forward 7 unknown #
loop $-1 $-1 $215 $131 #
plane-surface $-1 -16.529964744964843 4.1715986554948863 78.341690053967469 0.74314483375859142 0 0.66913059716165679 0.66913059716165679 0 -0.74314483375859142 forward_v I I I I #
loop $-1 $-1 $324 $83 #
coedge $-1 $213 $213 $214 $325 reversed $132 $-1 #
coedge $-1 $214 $214 $213 $325 forward $134 $-1 #
coedge $-1 $215 $215 $135 $216 forward $210 $-1 #
edge $-1 $326 0 $326 6.2831853071796004 $215 $327 forward 7 unknown #
loop $-1 $-1 $222 $136 #
plane-surface $-1 -16.529964744964843 4.1715986554948863 78.341690053967469 0.74314483375859142 0 0.66913059716165679 0.66913059716165679 0 -0.74314483375859142 forward_v I I I I #
loop $-1 $-1 $328 $86 #
coedge $-1 $220 $220 $221 $329 reversed $137 $-1 #
coedge $-1 $221 $221 $220 $329 forward $139 $-1 #
coedge $-1 $222 $222 $140 $223 forward $217 $-1 #
edge $-1 $330 0 $330 6.2831853071796004 $222 $331 forward 7 unknown #
loop $-1 $-1 $229 $141 #
plane-surface $-1 -16.529964744964843 4.1715986554948863 78.341690053967469 0.74314483375859142 0 0.66913059716165679 0.66913059716165679 0 -0.74314483375859142 forward_v I I I I #
loop $-1 $-1 $332 $89 #
coedge $-1 $227 $227 $228 $333 reversed $142 $-1 #
coedge $-1 $228 $228 $227 $333 forward $144 $-1 #
coedge $-1 $229 $229 $145 $230 forward $224 $-1 #
edge $-1 $334 0 $334 6.2831853071796004 $229 $335 forward 7 unknown #
face $-1 $336 $337 $48 $-1 $338 reversed single #
loop $-1 $-1 $237 $146 #
plane-surface $-1 -48.867458113345748 0 0 1 0 0 0 0 -1 forward_v I I I I #
coedge $-1 $339 $340 $341 $342 reversed $147 $-1 #
coedge $-1 $236 $149 $343 $344 reversed $93 $-1 #
coedge $-1 $149 $235 $339 $345 reversed $93 $-1 #
coedge $-1 $341 $346 $149 $238 forward $232 $-1 #
edge $-1 $347 28.562877797735318 $348 31.889231644159089 $237 $349 forward 7 unknown #
loop $-1 $-1 $244 $150 #
plane-surface $-1 -48.867458113345734 -20.45992991937738 8.8527332658223941 -0.66913061440640931 0 0.74314481823134659 0.74314481823134659 0 0.66913061440640931 forward_v I I I I #
loop $-1 $-1 $350 $95 #
coedge $-1 $242 $242 $243 $351 reversed $151 $-1 #
coedge $-1 $243 $243 $242 $351 forward $153 $-1 #
coedge $-1 $244 $244 $154 $245 forward $239 $-1 #
edge $-1 $352 0 $352 6.2831853071796004 $244 $353 forward 7 unknown #
loop $-1 $-1 $251 $155 #
plane-surface $-1 -48.867458113345734 -20.45992991937738 8.8527332658223941 -0.66913061440640931 0 0.74314481823134659 0.74314481823134659 0 0.66913061440640931 forward_v I I I I #
loop $-1 $-1 $354 $98 #
coedge $-1 $249 $249 $250 $355 reversed $156 $-1 #
coedge $-1 $250 $250 $249 $355 forward $158 $-1 #
coedge $-1 $251 $251 $159 $252 forward $246 $-1 #
edge $-1 $356 0 $356 6.2831853071796004 $251 $357 forward 7 unknown #
loop $-1 $-1 $258 $160 #
plane-surface $-1 -48.867458113345734 -20.45992991937738 8.8527332658223941 -0.66913061440640931 0 0.74314481823134659 0.74314481823134659 0 0.66913061440640931 forward_v I I I I #
loop $-1 $-1 $358 $101 #
coedge $-1 $256 $256 $257 $359 reversed $161 $-1 #
coedge $-1 $257 $257 $256 $359 forward $163 $-1 #
coedge $-1 $258 $258 $164 $259 forward $253 $-1 #
edge $-1 $360 0 $360 6.2831853071796004 $258 $361 forward 7 unknown #
face $-1 $362 $363 $39 $-1 $364 reversed single #
loop $-1 $-1 $365 $165 #
plane-surface $-1 -48.867458113345748 0 0 1 0 0 0 0 -1 forward_v I I I I #
coedge $-1 $366 $271 $367 $368 forward $166 $-1 #
coedge $-1 $369 $168 $366 $370 forward $105 $-1 #
coedge $-1 $168 $369 $371 $372 forward $105 $-1 #
coedge $-1 $274 $273 $168 $267 reversed $275 $-1 #
edge $-1 $373 -27.056289104657694 $374 27.056289104657694 $266 $375 forward 7 unknown #
coedge $-1 $170 $169 $376 $377 forward $66 $-1 #
coedge $-1 $378 $379 $169 $270 reversed $363 $-1 #
edge $-1 $277 -48.867458113345748 $380 48.867458113345748 $269 $381 forward 7 unknown #
coedge $-1 $263 $382 $170 $272 reversed $166 $-1 #
edge $-1 $383 -48.867458113345748 $276 48.867458113345748 $271 $384 forward 7 unknown #
coedge $-1 $266 $171 $382 $385 forward $275 $-1 #
coedge $-1 $171 $266 $378 $386 reversed $275 $-1 #
loop $-1 $-1 $273 $362 #
vertex $-1 $172 $387 #
vertex $-1 $172 $388 #
straight-curve $-1 48.867458113345748 0 12.179087112246149 0 1 0 I I #
face $-1 $-1 $292 $40 $-1 $389 reversed single #
loop $-1 $-1 $288 $173 #
plane-surface $-1 0 -27.056289104657694 0 0 1 0 0 0 1 forward_v I I I I #
coedge $-1 $390 $391 $284 $392 forward $174 $-1 #
coedge $-1 $284 $176 $178 $290 reversed $109 $-1 #
coedge $-1 $176 $283 $282 $392 reversed $109 $-1 #
coedge $-1 $393 $179 $176 $286 forward $292 $-1 #
edge $-1 $294 -66.159064473866081 $394 -59.690469343892872 $285 $395 forward 7 unknown #
coedge $-1 $178 $177 $390 $396 reversed $69 $-1 #
coedge $-1 $397 $398 $177 $289 forward $280 $-1 #
edge $-1 $399 54.390599296032576 $293 63.094952520500399 $288 $400 forward 7 unknown #
edge $-1 $401 89.030563002223673 $294 97.73491622669151 $283 $402 forward 7 unknown #
coedge $-1 $179 $393 $397 $403 forward $292 $-1 #
loop $-1 $-1 $285 $279 #
vertex $-1 $289 $404 #
vertex $-1 $180 $405 #
straight-curve $-1 48.867458113345748 -11.442345224581404 5.7104919822729485 0 1 0 I I #
coedge $-1 $296 $296 $-1 $406 reversed $183 $-1 #
edge $-1 $407 0 $407 6.2831853071796004 $184 $408 forward 7 unknown #
vertex $-1 $187 $409 #
ellipse-curve $-1 45.955283577848689 -25.387649642459738 8.9447895472595409 0.74314483375859142 0 0.66913059716165679 0.3345652985808284 0 -0.37157241687929571 1 I I #
coedge $-1 $300 $300 $-1 $410 reversed $190 $-1 #
edge $-1 $411 0 $411 6.2831853071796004 $191 $412 forward 7 unknown #
vertex $-1 $194 $413 #
ellipse-curve $-1 45.955283577848689 -22.884690449162807 8.9447895472595409 0.74314483375859142 0 0.66913059716165679 0.3345652985808284 0 -0.37157241687929571 1 I I #
coedge $-1 $304 $304 $-1 $414 reversed $197 $-1 #
edge $-1 $415 0 $415 6.2831853071796004 $198 $416 forward 7 unknown #
vertex $-1 $201 $417 #
ellipse-curve $-1 45.955283577848689 -20.381731255865876 8.9447895472595409 0.74314483375859142 0 0.66913059716165679 0.3345652985808284 0 -0.37157241687929571 1 I I #
face $-1 $-1 $320 $44 $-1 $418 reversed single #
loop $-1 $-1 $419 $202 #
plane-surface $-1 0 0 12.179087112246149 0 0 1 1 0 0 forward_v I I I I #
coedge $-1 $420 $421 $422 $423 reversed $203 $-1 #
coedge $-1 $424 $205 $207 $318 forward $128 $-1 #
coedge $-1 $205 $424 $420 $425 forward $128 $-1 #
coedge $-1 $422 $208 $205 $315 forward $320 $-1 #
edge $-1 $322 -2.0857993277474431 $426 6.2573979832423294 $314 $427 forward 7 unknown #
coedge $-1 $428 $429 $206 $317 forward $309 $-1 #
edge $-1 $430 14.992492378986768 $321 20.816841449980913 $316 $431 forward 7 unknown #
edge $-1 $322 -97.73491622669151 $430 -89.030563002223673 $207 $432 forward 7 unknown #
coedge $-1 $208 $422 $428 $433 reversed $320 $-1 #
loop $-1 $-1 $422 $308 #
vertex $-1 $433 $434 #
vertex $-1 $209 $435 #
straight-curve $-1 48.867458113345748 0 71.869556456139023 0 0 -1 I I #
coedge $-1 $324 $324 $-1 $436 reversed $212 $-1 #
edge $-1 $437 0 $437 6.2831853071796004 $213 $438 forward 7 unknown #
vertex $-1 $216 $439 #
ellipse-curve $-1 45.955283577848689 1.6686394621979552 8.9447895472595409 0.74314483375859142 0 0.66913059716165679 0.3345652985808284 0 -0.37157241687929571 1 I I #
coedge $-1 $328 $328 $-1 $440 reversed $219 $-1 #
edge $-1 $441 0 $441 6.2831853071796004 $220 $442 forward 7 unknown #
vertex $-1 $223 $443 #
ellipse-curve $-1 45.955283577848689 4.1715986554948863 8.9447895472595409 0.74314483375859142 0 0.66913059716165679 0.3345652985808284 0 -0.37157241687929571 1 I I #
coedge $-1 $332 $332 $-1 $444 reversed $226 $-1 #
edge $-1 $445 0 $445 6.2831853071796004 $227 $446 forward 7 unknown #
vertex $-1 $230 $447 #
ellipse-curve $-1 45.955283577848689 6.6745578487918209 8.9447895472595409 0.74314483375859142 0 0.66913059716165679 0.3345652985808284 0 -0.37157241687929571 1 I I #
face $-1 $-1 $448 $48 $-1 $449 forward single #
loop $-1 $-1 $450 $231 #
plane-surface $-1 0 -27.056289104657694 0 0 1 0 0 0 1 forward_v I I I I #
coedge $-1 $451 $234 $236 $345 forward $147 $-1 #
coedge $-1 $234 $451 $450 $452 reversed $147 $-1 #
coedge $-1 $453 $237 $234 $342 forward $232 $-1 #
edge $-1 $348 3.6336057744083767 $454 16.826324144969004 $341 $455 forward 7 unknown #
coedge $-1 $456 $457 $235 $344 forward $448 $-1 #
edge $-1 $458 -11.959273345326075 $347 -8.2649832151896305 $343 $459 forward 7 unknown #
edge $-1 $348 -1.8881026247711288e-014 $458 4.9711577602447452 $236 $460 forward 7 unknown #
coedge $-1 $237 $453 $456 $461 reversed $232 $-1 #
vertex $-1 $461 $462 #
vertex $-1 $238 $463 #
straight-curve $-1 -48.867458113345748 -13.863570734097067 40.741964909981469 0 0 -1 I I #
coedge $-1 $350 $350 $-1 $464 reversed $241 $-1 #
edge $-1 $465 0 $465 6.2831853071796004 $242 $466 forward 7 unknown #
vertex $-1 $245 $467 #
ellipse-curve $-1 -47.020313048277529 -24.417745430545569 10.515910189034264 -0.66913061440640931 0 0.74314481823134659 0.3715724091156733 0 0.33456530720320465 1 I I #
coedge $-1 $354 $354 $-1 $468 reversed $248 $-1 #
edge $-1 $469 0 $469 6.2831853071796004 $249 $470 forward 7 unknown #
vertex $-1 $252 $471 #
ellipse-curve $-1 -47.020313048277529 -20.45992991937738 10.515910189034264 -0.66913061440640931 0 0.74314481823134659 0.3715724091156733 0 0.33456530720320465 1 I I #
coedge $-1 $358 $358 $-1 $472 reversed $255 $-1 #
edge $-1 $473 0 $473 6.2831853071796004 $256 $474 forward 7 unknown #
vertex $-1 $259 $475 #
ellipse-curve $-1 -47.020313048277529 -16.502114408209192 10.515910189034264 -0.66913061440640931 0 0.74314481823134659 0.3715724091156733 0 0.33456530720320465 1 I I #
face $-1 $-1 $275 $39 $-1 $476 reversed single #
loop $-1 $-1 $378 $260 #
plane-surface $-1 0 27.056289104657694 0 0 -1 0 0 0 -1 forward_v I I I I #
coedge $-1 $477 $376 $379 $478 forward $261 $-1 #
coedge $-1 $382 $263 $264 $370 reversed $166 $-1 #
coedge $-1 $376 $477 $263 $368 reversed $261 $-1 #
edge $-1 $383 -12.179087112246149 $479 12.179087112246149 $367 $480 forward 7 unknown #
coedge $-1 $265 $264 $477 $481 forward $105 $-1 #
edge $-1 $374 -48.867458113345748 $479 48.867458113345748 $366 $482 forward 7 unknown #
coedge $-1 $379 $378 $265 $372 reversed $363 $-1 #
edge $-1 $483 -48.867458113345748 $373 48.867458113345748 $371 $484 forward 7 unknown #
vertex $-1 $267 $485 #
vertex $-1 $385 $486 #
straight-curve $-1 48.867458113345748 0 -12.179087112246149 0 -1 0 I I #
coedge $-1 $365 $367 $268 $377 reversed $261 $-1 #
edge $-1 $380 -27.056289104657694 $383 27.056289104657694 $376 $487 forward 7 unknown #
coedge $-1 $371 $269 $274 $386 forward $363 $-1 #
coedge $-1 $269 $371 $365 $478 reversed $363 $-1 #
vertex $-1 $270 $488 #
straight-curve $-1 0 27.056289104657694 12.179087112246149 -1 0 0 I I #
coedge $-1 $271 $366 $273 $385 reversed $166 $-1 #
vertex $-1 $377 $489 #
straight-curve $-1 0 -27.056289104657694 12.179087112246149 1 0 0 I I #
edge $-1 $276 -12.179087112246149 $374 12.179087112246149 $273 $490 forward 7 unknown #
edge $-1 $277 -12.179087112246149 $373 12.179087112246149 $274 $491 forward 7 unknown #
point $-1 48.867458113345748 -27.056289104657694 12.179087112246149 #
point $-1 48.867458113345748 27.056289104657694 12.179087112246149 #
plane-surface $-1 48.867458113345748 0 0 -1 0 0 0 0 1 forward_v I I I I #
coedge $-1 $492 $282 $287 $396 forward $174 $-1 #
coedge $-1 $282 $492 $393 $493 forward $174 $-1 #
edge $-1 $394 -20.816841449980913 $401 -14.992492378986768 $282 $494 forward 7 unknown #
coedge $-1 $291 $285 $391 $493 reversed $292 $-1 #
vertex $-1 $286 $495 #
straight-curve $-1 48.867458113345748 -18.713091793667921 71.869556456139023 0 0 1 I I #
edge $-1 $401 7.2707465690865174 $399 15.61394388007629 $390 $496 forward 7 unknown #
coedge $-1 $398 $288 $291 $403 reversed $280 $-1 #
coedge $-1 $288 $397 $492 $497 reversed $280 $-1 #
vertex $-1 $497 $498 #
straight-curve $-1 6.6486948554169292 -27.056289104657694 52.599179984126437 0.66913059716165679 0 -0.74314483375859142 I I #
vertex $-1 $396 $499 #
straight-curve $-1 -16.529964744964843 -18.713091793667921 78.341690053967469 0.66913059716165679 0 -0.74314483375859142 I I #
edge $-1 $500 -12.179087112246149 $293 -5.7104919822729467 $291 $501 forward 7 unknown #
point $-1 48.867458113345748 -27.056289104657694 5.7104919822729467 #
point $-1 48.867458113345748 -18.713091793667921 5.7104919822729414 #
edge $-1 $502 1 $502 0 $296 $-1 forward 7 unknown #
vertex $-1 $297 $503 #
ellipse-curve $-1 45.21213874409009 -25.387649642459738 8.2756589500978794 0.74314483375859142 0 0.66913059716165679 0.3345652985808284 0 -0.37157241687929571 1 I I #
point $-1 46.289848876429517 -25.387649642459738 8.5732171303802414 #
edge $-1 $504 1 $504 0 $300 $-1 forward 7 unknown #
vertex $-1 $301 $505 #
ellipse-curve $-1 45.21213874409009 -22.884690449162807 8.2756589500978794 0.74314483375859142 0 0.66913059716165679 0.3345652985808284 0 -0.37157241687929571 1 I I #
point $-1 46.289848876429517 -22.884690449162807 8.5732171303802414 #
edge $-1 $506 1 $506 0 $304 $-1 forward 7 unknown #
vertex $-1 $305 $507 #
ellipse-curve $-1 45.21213874409009 -20.381731255865876 8.2756589500978794 0.74314483375859142 0 0.66913059716165679 0.3345652985808284 0 -0.37157241687929571 1 I I #
point $-1 46.289848876429517 -20.381731255865876 8.5732171303802414 #
plane-surface $-1 48.867458113345748 0 0 -1 0 0 0 0 1 forward_v I I I I #
coedge $-1 $429 $428 $421 $508 forward $309 $-1 #
coedge $-1 $421 $311 $313 $425 reversed $203 $-1 #
coedge $-1 $311 $420 $419 $508 reversed $203 $-1 #
coedge $-1 $319 $314 $311 $423 forward $320 $-1 #
edge $-1 $426 -66.159064473866081 $509 -59.690469343892872 $422 $510 forward 7 unknown #
coedge $-1 $313 $312 $429 $511 reversed $128 $-1 #
edge $-1 $512 89.030563002223673 $426 97.73491622669151 $420 $513 forward 7 unknown #
vertex $-1 $315 $514 #
straight-curve $-1 48.867458113345748 2.0857993277474431 5.7104919822729485 0 1 0 I I #
coedge $-1 $419 $316 $319 $433 forward $309 $-1 #
coedge $-1 $316 $419 $424 $511 forward $309 $-1 #
vertex $-1 $317 $515 #
straight-curve $-1 28.050616663364835 0 12.179087112246151 1 0 0 I I #
straight-curve $-1 -16.529964744964843 0 78.341690053967469 -0.66913059716165679 0 0.74314483375859142 I I #
edge $-1 $321 0 $509 8.3431973109897726 $319 $516 forward 7 unknown #
point $-1 48.867458113345748 0 12.179087112246149 #
point $-1 48.867458113345748 0 5.7104919822729414 #
edge $-1 $517 1 $517 0 $324 $-1 forward 7 unknown #
vertex $-1 $325 $518 #
ellipse-curve $-1 45.21213874409009 1.6686394621979552 8.2756589500978794 0.74314483375859142 0 0.66913059716165679 0.3345652985808284 0 -0.37157241687929571 1 I I #
point $-1 46.289848876429517 1.6686394621979552 8.5732171303802414 #
edge $-1 $519 1 $519 0 $328 $-1 forward 7 unknown #
vertex $-1 $329 $520 #
ellipse-curve $-1 45.21213874409009 4.1715986554948863 8.2756589500978794 0.74314483375859142 0 0.66913059716165679 0.3345652985808284 0 -0.37157241687929571 1 I I #
point $-1 46.289848876429517 4.1715986554948863 8.5732171303802414 #
edge $-1 $521 1 $521 0 $332 $-1 forward 7 unknown #
vertex $-1 $333 $522 #
ellipse-curve $-1 45.21213874409009 6.6745578487918209 8.2756589500978794 0.74314483375859142 0 0.66913059716165679 0.3345652985808284 0 -0.37157241687929571 1 I I #
point $-1 46.289848876429517 6.6745578487918209 8.5732171303802414 #
loop $-1 $-1 $343 $336 #
plane-surface $-1 0 0 12.179087112246149 0 0 1 1 0 0 forward_v I I I I #
coedge $-1 $523 $524 $340 $452 forward $337 $-1 #
coedge $-1 $340 $339 $457 $525 reversed $147 $-1 #
edge $-1 $454 -15.195981713867251 $526 -10.22482395362249 $450 $527 forward 7 unknown #
coedge $-1 $346 $341 $524 $528 reversed $232 $-1 #
vertex $-1 $452 $529 #
straight-curve $-1 -48.867458113345748 -10.22996495968869 8.8527332658223834 0 -1 0 I I #
coedge $-1 $530 $343 $346 $461 forward $448 $-1 #
coedge $-1 $343 $530 $451 $525 forward $448 $-1 #
vertex $-1 $344 $531 #
straight-curve $-1 -57.132441328535378 -13.863570734097067 12.179087112246151 -1 0 0 I I #
straight-curve $-1 -48.867458113345734 -13.863570734097067 8.8527332658223941 0.74314481823134659 0 0.66913061440640931 I I #
edge $-1 $347 13.863570734097067 $532 27.056289104657694 $346 $533 forward 7 unknown #
point $-1 -48.867458113345748 -13.863570734097067 12.179087112246149 #
point $-1 -48.867458113345748 -13.863570734097067 8.8527332658223816 #
edge $-1 $534 1 $534 0 $350 $-1 forward 7 unknown #
vertex $-1 $351 $535 #
ellipse-curve $-1 -46.351182433871131 -24.417745430545569 9.7727653708029312 -0.66913061440640931 0 0.74314481823134659 0.3715724091156733 0 0.33456530720320465 1 I I #
point $-1 -46.648740639161865 -24.417745430545569 10.850475496237483 #
edge $-1 $536 1 $536 0 $354 $-1 forward 7 unknown #
vertex $-1 $355 $537 #
ellipse-curve $-1 -46.351182433871131 -20.45992991937738 9.7727653708029312 -0.66913061440640931 0 0.74314481823134659 0.3715724091156733 0 0.33456530720320465 1 I I #
point $-1 -46.648740639161865 -20.45992991937738 10.850475496237483 #
edge $-1 $538 1 $538 0 $358 $-1 forward 7 unknown #
vertex $-1 $359 $539 #
ellipse-curve $-1 -46.351182433871131 -16.502114408209192 9.7727653708029312 -0.66913061440640931 0 0.74314481823134659 0.3715724091156733 0 0.33456530720320465 1 I I #
point $-1 -46.648740639161865 -16.502114408209192 10.850475496237483 #
plane-surface $-1 48.867458113345748 0 0 -1 0 0 0 0 1 forward_v I I I I #
coedge $-1 $367 $365 $369 $481 reversed $261 $-1 #
edge $-1 $380 -12.179087112246149 $483 12.179087112246149 $379 $540 forward 7 unknown #
vertex $-1 $481 $541 #
straight-curve $-1 -48.867458113345748 -27.056289104657694 0 0 0 -1 I I #
edge $-1 $479 -27.056289104657694 $483 27.056289104657694 $477 $542 forward 7 unknown #
straight-curve $-1 0 -27.056289104657694 -12.179087112246149 -1 0 0 I I #
vertex $-1 $372 $543 #
straight-curve $-1 0 27.056289104657694 -12.179087112246149 1 0 0 I I #
point $-1 48.867458113345748 27.056289104657694 -12.179087112246149 #
point $-1 48.867458113345748 -27.056289104657694 -12.179087112246149 #
straight-curve $-1 -48.867458113345748 0 12.179087112246149 0 -1 0 I I #
point $-1 -48.867458113345748 27.056289104657694 12.179087112246149 #
point $-1 -48.867458113345748 -27.056289104657694 12.179087112246149 #
straight-curve $-1 48.867458113345748 -27.056289104657694 0 0 0 -1 I I #
straight-curve $-1 48.867458113345748 27.056289104657694 0 0 0 -1 I I #
coedge $-1 $391 $390 $398 $497 forward $174 $-1 #
edge $-1 $500 -27.056289104657694 $394 -18.713091793667921 $393 $544 forward 7 unknown #
straight-curve $-1 28.050616663364835 -18.713091793667921 12.179087112246151 -1 0 0 I I #
point $-1 48.867458113345748 -18.713091793667921 12.179087112246149 #
straight-curve $-1 43.043109042351588 -11.442345224581404 12.179087112246151 0 -1 0 I I #
edge $-1 $399 43.043109042351603 $500 48.867458113345748 $398 $545 forward 7 unknown #
point $-1 43.043109042351603 -27.056289104657694 12.179087112246151 #
point $-1 43.043109042351603 -18.713091793667921 12.179087112246151 #
vertex $-1 $493 $546 #
straight-curve $-1 48.867458113345748 -27.056289104657694 0 0 0 -1 I I #
vertex $-1 $406 $547 #
point $-1 45.546704042670925 -25.387649642459738 7.9040865332185843 #
vertex $-1 $410 $548 #
point $-1 45.546704042670925 -22.884690449162807 7.9040865332185843 #
vertex $-1 $414 $549 #
point $-1 45.546704042670925 -20.381731255865876 7.9040865332185843 #
edge $-1 $509 -20.816841449980913 $512 -14.992492378986768 $419 $550 forward 7 unknown #
vertex $-1 $423 $551 #
straight-curve $-1 48.867458113345748 8.3431973109897726 71.869556456139023 0 0 1 I I #
edge $-1 $512 -6.2573979832423294 $430 2.0857993277474431 $429 $552 forward 7 unknown #
vertex $-1 $511 $553 #
straight-curve $-1 -16.529964744964843 8.3431973109897726 78.341690053967469 0.66913059716165679 0 -0.74314483375859142 I I #
point $-1 48.867458113345748 8.3431973109897726 5.7104919822729414 #
point $-1 43.043109042351603 0 12.179087112246151 #
straight-curve $-1 48.867458113345748 0 12.179087112246149 0 1 0 I I #
vertex $-1 $436 $554 #
point $-1 45.546704042670925 1.6686394621979552 7.9040865332185843 #
vertex $-1 $440 $555 #
point $-1 45.546704042670925 4.1715986554948863 7.9040865332185843 #
vertex $-1 $444 $556 #
point $-1 45.546704042670925 6.6745578487918209 7.9040865332185843 #
coedge $-1 $524 $450 $530 $557 reversed $337 $-1 #
coedge $-1 $450 $523 $453 $528 forward $337 $-1 #
edge $-1 $526 -16.826324144969004 $458 -3.6336057744083767 $457 $558 forward 7 unknown #
vertex $-1 $525 $559 #
straight-curve $-1 -37.574643044747006 -27.056289104657694 19.020829846530937 0.74314481823134659 0 0.66913061440640931 I I #
edge $-1 $532 -12.179087112246149 $454 -8.8527332658223798 $453 $560 forward 7 unknown #
point $-1 -48.867458113345748 -27.056289104657694 8.8527332658223798 #
coedge $-1 $457 $456 $523 $557 forward $448 $-1 #
point $-1 -45.173167983209304 -13.863570734097067 12.179087112246149 #
vertex $-1 $461 $561 #
straight-curve $-1 -48.867458113345748 0 12.179087112246149 0 -1 0 I I #
vertex $-1 $464 $562 #
point $-1 -45.979610024755459 -24.417745430545569 10.107330678006136 #
vertex $-1 $468 $563 #
point $-1 -45.979610024755459 -20.45992991937738 10.107330678006136 #
vertex $-1 $472 $564 #
point $-1 -45.979610024755459 -16.502114408209192 10.107330678006136 #
straight-curve $-1 -48.867458113345748 27.056289104657694 0 0 0 -1 I I #
point $-1 -48.867458113345748 -27.056289104657694 -12.179087112246149 #
straight-curve $-1 -48.867458113345748 0 -12.179087112246149 0 1 0 I I #
point $-1 -48.867458113345748 27.056289104657694 -12.179087112246149 #
straight-curve $-1 48.867458113345748 0 12.179087112246149 0 1 0 I I #
straight-curve $-1 0 -27.056289104657694 12.179087112246149 1 0 0 I I #
point $-1 48.867458113345748 -27.056289104657694 12.179087112246149 #
point $-1 44.840566327210801 -25.387649642459738 7.9410936515170514 #
point $-1 44.840566327210801 -22.884690449162807 7.9410936515170514 #
point $-1 44.840566327210801 -20.381731255865876 7.9410936515170514 #
straight-curve $-1 28.050616663364835 8.3431973109897726 12.179087112246151 -1 0 0 I I #
point $-1 48.867458113345748 8.3431973109897726 12.179087112246149 #
straight-curve $-1 43.043109042351588 2.0857993277474431 12.179087112246151 0 -1 0 I I #
point $-1 43.043109042351603 8.3431973109897726 12.179087112246151 #
point $-1 44.840566327210801 1.6686394621979552 7.9410936515170514 #
point $-1 44.840566327210801 4.1715986554948863 7.9410936515170514 #
point $-1 44.840566327210801 6.6745578487918209 7.9410936515170514 #
edge $-1 $532 -48.867458113345748 $526 -45.173167983209311 $523 $565 forward 7 unknown #
straight-curve $-1 -45.173167983209304 -10.22996495968869 12.179087112246147 0 1 0 I I #
point $-1 -45.173167983209311 -27.056289104657694 12.179087112246149 #
straight-curve $-1 -48.867458113345748 -27.056289104657694 0 0 0 -1 I I #
point $-1 -48.867458113345748 -27.056289104657694 12.179087112246149 #
point $-1 -46.016617126667924 -24.417745430545569 9.4011929616872596 #
point $-1 -46.016617126667924 -20.45992991937738 9.4011929616872596 #
point $-1 -46.016617126667924 -16.502114408209192 9.4011929616872596 #
straight-curve $-1 0 -27.056289104657694 12.179087112246149 1 0 0 I I #
End-of-ACIS-data 