500 0 10 0           
7 Unknown 11 ACIS 5.0 NT 24 Fri Mar 26 19:42:50 1999 
-1 9.9999999999999995e-007 1e-010 
body $-1 $10 $-1 $11 #
body $-1 $12 $-1 $13 #
body $-1 $14 $-1 $15 #
body $-1 $16 $-1 $17 #
body $-1 $18 $-1 $19 #
body $-1 $20 $-1 $21 #
body $-1 $22 $-1 $23 #
body $-1 $24 $-1 $25 #
body $-1 $26 $-1 $27 #
body $-1 $28 $-1 $29 #
lump $-1 $-1 $30 $0 #
transform $-1 1 0 0 0 1 0 0 0 1 48.059327982421337 31.468321595765442 11.263847880497272 1 rotate no_reflect no_shear #
lump $-1 $-1 $31 $1 #
transform $-1 1 0 0 0 1 0 0 0 1 48.059327982421337 31.468321595765442 11.263847880497272 1 rotate no_reflect no_shear #
lump $-1 $-1 $32 $2 #
transform $-1 1 0 0 0 1 0 0 0 1 48.059327982421337 31.468321595765442 11.263847880497272 1 rotate no_reflect no_shear #
lump $-1 $-1 $33 $3 #
transform $-1 1 0 0 0 1 0 0 0 1 48.059327982421337 31.468321595765442 11.263847880497272 1 rotate no_reflect no_shear #
lump $-1 $-1 $34 $4 #
transform $-1 1 0 0 0 1 0 0 0 1 48.059327982421337 31.468321595765442 11.263847880497272 1 rotate no_reflect no_shear #
lump $-1 $-1 $35 $5 #
transform $-1 1 0 0 0 1 0 0 0 1 48.059327982421337 31.468321595765442 11.263847880497272 1 rotate no_reflect no_shear #
lump $-1 $-1 $36 $6 #
transform $-1 1 0 0 0 1 0 0 0 1 48.059327982421337 31.468321595765442 11.263847880497272 1 rotate no_reflect no_shear #
lump $-1 $-1 $37 $7 #
transform $-1 1 0 0 0 1 0 0 0 1 48.059327982421337 31.468321595765442 11.263847880497272 1 rotate no_reflect no_shear #
lump $-1 $-1 $38 $8 #
transform $-1 1 0 0 0 1 0 0 0 1 48.059327982421337 31.468321595765442 11.263847880497272 1 rotate no_reflect no_shear #
lump $-1 $-1 $39 $9 #
transform $-1 1 0 0 0 1 0 0 0 1 48.059327982421337 31.468321595765442 11.263847880497272 1 rotate no_reflect no_shear #
shell $-1 $-1 $-1 $40 $-1 $10 #
shell $-1 $-1 $-1 $41 $-1 $12 #
shell $-1 $-1 $-1 $42 $-1 $14 #
shell $-1 $-1 $-1 $43 $-1 $16 #
shell $-1 $-1 $-1 $44 $-1 $18 #
shell $-1 $-1 $-1 $45 $-1 $20 #
shell $-1 $-1 $-1 $46 $-1 $22 #
shell $-1 $-1 $-1 $47 $-1 $24 #
shell $-1 $-1 $-1 $48 $-1 $26 #
shell $-1 $-1 $-1 $49 $-1 $28 #
face $-1 $50 $51 $30 $-1 $52 forward single #
face $-1 $53 $54 $31 $-1 $55 reversed single #
face $-1 $56 $57 $32 $-1 $58 reversed single #
face $-1 $59 $60 $33 $-1 $61 forward single #
face $-1 $62 $63 $34 $-1 $64 forward single #
face $-1 $65 $66 $35 $-1 $67 forward single #
face $-1 $68 $69 $36 $-1 $70 reversed single #
face $-1 $71 $72 $37 $-1 $73 forward single #
face $-1 $74 $75 $38 $-1 $76 forward single #
face $-1 $77 $78 $39 $-1 $79 forward single #
face $-1 $80 $81 $30 $-1 $82 reversed single #
loop $-1 $-1 $83 $40 #
plane-surface $-1 0 0 11.263847880497272 0 0 1 1 0 0 forward_v I I I I #
face $-1 $84 $85 $31 $-1 $86 reversed single #
loop $-1 $-1 $87 $41 #
plane-surface $-1 -42.853705982296638 -15.688262716420532 0 0 1 0 0 0 1 forward_v I I I I #
face $-1 $88 $89 $32 $-1 $90 reversed single #
loop $-1 $-1 $91 $42 #
plane-surface $-1 -37.64808398217194 29.030149554398985 119.29019408229273 1 0 0 0 -0.52991927123019833 -0.84804809178421925 forward_v I I I I #
face $-1 $92 $93 $33 $-1 $94 forward single #
loop $-1 $95 $96 $43 #
cone-surface $-1 -35.612418512780039 25.731628932003698 7.4207055007130123 0 -0.52991927123019833 -0.84804809178421925 0.5 0 0 1 I I 0 1 0.5 forward I I I I #
face $-1 $97 $98 $34 $-1 $99 forward single #
loop $-1 $100 $101 $44 #
cone-surface $-1 -32.558920308692194 25.731628932003698 7.4207055007130123 0 -0.52991927123019833 -0.84804809178421925 0.5 0 0 1 I I 0 1 0.5 forward I I I I #
face $-1 $102 $103 $35 $-1 $104 forward single #
loop $-1 $105 $106 $45 #
cone-surface $-1 -29.505422104604346 25.731628932003698 7.4207055007130123 0 -0.52991927123019833 -0.84804809178421925 0.5 0 0 1 I I 0 1 0.5 forward I I I I #
face $-1 $107 $108 $36 $-1 $109 reversed single #
loop $-1 $-1 $110 $46 #
plane-surface $-1 -27.469756635212445 -82.403449716281031 85.938853988561675 -1 0 0 0 -0.52991927123019833 0.84804809178421925 forward_v I I I I #
face $-1 $111 $112 $37 $-1 $113 forward single #
loop $-1 $114 $115 $47 #
cone-surface $-1 -35.612418512780039 -25.731628932003701 7.4207055007130123 0 0.52991927123019833 -0.84804809178421925 0.5 0 0 1 I I 0 1 0.5 forward I I I I #
face $-1 $116 $117 $38 $-1 $118 forward single #
loop $-1 $119 $120 $48 #
cone-surface $-1 -32.558920308692194 -25.731628932003701 7.4207055007130123 0 0.52991927123019833 -0.84804809178421925 0.5 0 0 1 I I 0 1 0.5 forward I I I I #
face $-1 $121 $122 $39 $-1 $123 forward single #
loop $-1 $124 $125 $49 #
cone-surface $-1 -29.505422104604346 -25.731628932003701 7.4207055007130123 0 0.52991927123019833 -0.84804809178421925 0.5 0 0 1 I I 0 1 0.5 forward I I I I #
face $-1 $126 $127 $30 $-1 $128 reversed single #
loop $-1 $-1 $129 $50 #
plane-surface $-1 0 0 -11.263847880497272 0 0 1 1 0 0 forward_v I I I I #
coedge $-1 $130 $131 $132 $133 forward $51 $-1 #
face $-1 $134 $135 $31 $-1 $136 reversed single #
loop $-1 $-1 $137 $53 #
plane-surface $-1 -42.853705982296638 -11.363882896263682 0 0 -1 0 0 0 -1 forward_v I I I I #
coedge $-1 $138 $139 $140 $141 reversed $54 $-1 #
face $-1 $142 $143 $32 $-1 $144 reversed single #
loop $-1 $-1 $145 $56 #
plane-surface $-1 -32.558920308692194 -21.904978566116601 37.776951306444033 0 0.52991927123019833 0.84804809178421925 1 0 0 forward_v I I I I #
coedge $-1 $146 $147 $148 $149 reversed $57 $-1 #
face $-1 $-1 $150 $33 $-1 $151 forward single #
loop $-1 $152 $153 $59 #
cone-surface $-1 -35.612418512780039 25.334189478581049 6.7846694318748479 0 -0.52991927123019833 -0.84804809178421925 0.25 0 0 1 I I -0.70710678118654746 0.70710678118654746 0.25 forward I I I I #
loop $-1 $-1 $154 $43 #
coedge $-1 $96 $96 $155 $156 reversed $60 $-1 #
face $-1 $-1 $157 $34 $-1 $158 forward single #
loop $-1 $159 $160 $62 #
cone-surface $-1 -32.558920308692194 25.334189478581049 6.7846694318748479 0 -0.52991927123019833 -0.84804809178421925 0.25 0 0 1 I I -0.70710678118654746 0.70710678118654746 0.25 forward I I I I #
loop $-1 $-1 $161 $44 #
coedge $-1 $101 $101 $162 $163 reversed $63 $-1 #
face $-1 $-1 $164 $35 $-1 $165 forward single #
loop $-1 $166 $167 $65 #
cone-surface $-1 -29.505422104604346 25.334189478581049 6.7846694318748479 0 -0.52991927123019833 -0.84804809178421925 0.25 0 0 1 I I -0.70710678118654746 0.70710678118654746 0.25 forward I I I I #
loop $-1 $-1 $168 $45 #
coedge $-1 $106 $106 $169 $170 reversed $66 $-1 #
face $-1 $171 $172 $36 $-1 $173 reversed single #
loop $-1 $-1 $174 $68 #
plane-surface $-1 -32.558920308692194 -31.468321595765445 4.4256112127129796 0 -0.52991927123019833 0.84804809178421925 1 0 0 forward_v I I I I #
coedge $-1 $175 $176 $177 $178 reversed $69 $-1 #
face $-1 $-1 $179 $37 $-1 $180 forward single #
loop $-1 $181 $182 $71 #
cone-surface $-1 -35.612418512780039 -25.334189478581052 6.7846694318748479 0 0.52991927123019833 -0.84804809178421925 0.25 0 0 1 I I -0.70710678118654746 0.70710678118654746 0.25 forward I I I I #
loop $-1 $-1 $183 $47 #
coedge $-1 $115 $115 $184 $185 reversed $72 $-1 #
face $-1 $-1 $186 $38 $-1 $187 forward single #
loop $-1 $188 $189 $74 #
cone-surface $-1 -32.558920308692194 -25.334189478581052 6.7846694318748479 0 0.52991927123019833 -0.84804809178421925 0.25 0 0 1 I I -0.70710678118654746 0.70710678118654746 0.25 forward I I I I #
loop $-1 $-1 $190 $48 #
coedge $-1 $120 $120 $191 $192 reversed $75 $-1 #
face $-1 $-1 $193 $39 $-1 $194 forward single #
loop $-1 $195 $196 $77 #
cone-surface $-1 -29.505422104604346 -25.334189478581052 6.7846694318748479 0 0.52991927123019833 -0.84804809178421925 0.25 0 0 1 I I -0.70710678118654746 0.70710678118654746 0.25 forward I I I I #
loop $-1 $-1 $197 $49 #
coedge $-1 $125 $125 $198 $199 reversed $78 $-1 #
face $-1 $200 $201 $30 $-1 $202 reversed single #
loop $-1 $-1 $203 $80 #
plane-surface $-1 0 -31.468321595765442 0 0 1 0 0 0 1 forward_v I I I I #
coedge $-1 $204 $205 $206 $207 forward $81 $-1 #
coedge $-1 $208 $83 $209 $210 forward $51 $-1 #
coedge $-1 $83 $208 $211 $212 forward $51 $-1 #
coedge $-1 $213 $214 $83 $133 reversed $215 $-1 #
edge $-1 $216 -31.468321595765442 $217 31.468321595765442 $132 $218 forward 7 unknown #
face $-1 $219 $220 $31 $-1 $221 reversed single #
loop $-1 $-1 $222 $84 #
plane-surface $-1 -37.64808398217194 -13.526072806342107 0 -1 0 0 0 0 1 forward_v I I I I #
coedge $-1 $223 $224 $225 $226 forward $85 $-1 #
coedge $-1 $227 $87 $228 $229 reversed $54 $-1 #
coedge $-1 $87 $227 $230 $231 reversed $54 $-1 #
coedge $-1 $232 $233 $87 $141 forward $234 $-1 #
edge $-1 $235 -11.263847880497272 $236 11.263847880497272 $140 $237 forward 7 unknown #
face $-1 $238 $239 $32 $-1 $240 reversed single #
loop $-1 $-1 $241 $88 #
plane-surface $-1 -27.469756635212445 29.030149554398985 119.29019408229273 -1 0 0 0 0.52991927123019833 0.84804809178421925 forward_v I I I I #
coedge $-1 $242 $243 $244 $245 reversed $89 $-1 #
coedge $-1 $147 $91 $246 $247 reversed $57 $-1 #
coedge $-1 $91 $146 $242 $248 reversed $57 $-1 #
coedge $-1 $244 $249 $91 $149 forward $250 $-1 #
edge $-1 $251 -16.953246818565951 $252 -6.0097807622726389 $148 $253 forward 7 unknown #
loop $-1 $-1 $155 $92 #
plane-surface $-1 -32.558920308692194 -21.904978566116601 37.776951306444033 0 0.52991927123019833 0.84804809178421925 1 0 0 forward_v I I I I #
loop $-1 $-1 $254 $59 #
coedge $-1 $153 $153 $154 $255 reversed $93 $-1 #
coedge $-1 $154 $154 $153 $255 forward $95 $-1 #
coedge $-1 $155 $155 $96 $156 forward $150 $-1 #
edge $-1 $256 -5.6353594053339759e-016 $256 6.2831853071795996 $155 $257 forward 7 unknown #
loop $-1 $-1 $162 $97 #
plane-surface $-1 -32.558920308692194 -21.904978566116601 37.776951306444033 0 0.52991927123019833 0.84804809178421925 1 0 0 forward_v I I I I #
loop $-1 $-1 $258 $62 #
coedge $-1 $160 $160 $161 $259 reversed $98 $-1 #
coedge $-1 $161 $161 $160 $259 forward $100 $-1 #
coedge $-1 $162 $162 $101 $163 forward $157 $-1 #
edge $-1 $260 -5.6353594053339759e-016 $260 6.2831853071795996 $162 $261 forward 7 unknown #
loop $-1 $-1 $169 $102 #
plane-surface $-1 -32.558920308692194 -21.904978566116601 37.776951306444033 0 0.52991927123019833 0.84804809178421925 1 0 0 forward_v I I I I #
loop $-1 $-1 $262 $65 #
coedge $-1 $167 $167 $168 $263 reversed $103 $-1 #
coedge $-1 $168 $168 $167 $263 forward $105 $-1 #
coedge $-1 $169 $169 $106 $170 forward $164 $-1 #
edge $-1 $264 -5.6353594053339759e-016 $264 6.2831853071795996 $169 $265 forward 7 unknown #
face $-1 $266 $267 $36 $-1 $268 forward single #
loop $-1 $-1 $269 $107 #
plane-surface $-1 -37.64808398217194 -82.403449716281031 85.938853988561675 1 0 0 0 0.52991927123019833 -0.84804809178421925 forward_v I I I I #
coedge $-1 $270 $271 $272 $273 reversed $108 $-1 #
coedge $-1 $176 $110 $274 $275 reversed $69 $-1 #
coedge $-1 $110 $175 $270 $276 reversed $69 $-1 #
coedge $-1 $272 $277 $110 $178 forward $267 $-1 #
edge $-1 $278 9.7334032623750737 $279 20.676869318668352 $177 $280 forward 7 unknown #
loop $-1 $-1 $184 $111 #
plane-surface $-1 -32.558920308692194 -31.468321595765445 4.4256112127129796 0 -0.52991927123019833 0.84804809178421925 1 0 0 forward_v I I I I #
loop $-1 $-1 $281 $71 #
coedge $-1 $182 $182 $183 $282 reversed $112 $-1 #
coedge $-1 $183 $183 $182 $282 forward $114 $-1 #
coedge $-1 $184 $184 $115 $185 forward $179 $-1 #
edge $-1 $283 3.7778978124636169e-016 $283 6.2831853071796004 $184 $284 forward 7 unknown #
loop $-1 $-1 $191 $116 #
plane-surface $-1 -32.558920308692194 -31.468321595765445 4.4256112127129796 0 -0.52991927123019833 0.84804809178421925 1 0 0 forward_v I I I I #
loop $-1 $-1 $285 $74 #
coedge $-1 $189 $189 $190 $286 reversed $117 $-1 #
coedge $-1 $190 $190 $189 $286 forward $119 $-1 #
coedge $-1 $191 $191 $120 $192 forward $186 $-1 #
edge $-1 $287 3.7778978124636169e-016 $287 6.2831853071796004 $191 $288 forward 7 unknown #
loop $-1 $-1 $198 $121 #
plane-surface $-1 -32.558920308692194 -31.468321595765445 4.4256112127129796 0 -0.52991927123019833 0.84804809178421925 1 0 0 forward_v I I I I #
loop $-1 $-1 $289 $77 #
coedge $-1 $196 $196 $197 $290 reversed $122 $-1 #
coedge $-1 $197 $197 $196 $290 forward $124 $-1 #
coedge $-1 $198 $198 $125 $199 forward $193 $-1 #
edge $-1 $291 3.7778978124636169e-016 $291 6.2831853071796004 $198 $292 forward 7 unknown #
face $-1 $293 $294 $30 $-1 $295 reversed single #
loop $-1 $-1 $296 $126 #
plane-surface $-1 -48.059327982421337 0 0 1 0 0 0 0 -1 forward_v I I I I #
coedge $-1 $297 $211 $298 $299 forward $127 $-1 #
coedge $-1 $300 $129 $297 $301 forward $81 $-1 #
coedge $-1 $129 $300 $302 $303 forward $81 $-1 #
coedge $-1 $214 $213 $129 $207 reversed $215 $-1 #
edge $-1 $304 -31.468321595765442 $305 31.468321595765442 $206 $306 forward 7 unknown #
coedge $-1 $131 $130 $307 $308 forward $51 $-1 #
coedge $-1 $309 $310 $130 $210 reversed $294 $-1 #
edge $-1 $217 -48.059327982421337 $311 48.059327982421337 $209 $312 forward 7 unknown #
coedge $-1 $203 $313 $131 $212 reversed $127 $-1 #
edge $-1 $314 -48.059327982421337 $216 48.059327982421337 $211 $315 forward 7 unknown #
coedge $-1 $206 $132 $313 $316 forward $215 $-1 #
coedge $-1 $132 $206 $309 $317 reversed $215 $-1 #
loop $-1 $-1 $213 $293 #
vertex $-1 $133 $318 #
vertex $-1 $133 $319 #
straight-curve $-1 48.059327982421337 0 11.263847880497272 0 1 0 I I #
face $-1 $320 $321 $31 $-1 $322 forward single #
loop $-1 $-1 $323 $134 #
plane-surface $-1 0 0 -11.263847880497272 0 0 1 1 0 0 forward_v I I I I #
coedge $-1 $324 $325 $227 $326 forward $135 $-1 #
coedge $-1 $327 $137 $323 $328 reversed $85 $-1 #
coedge $-1 $137 $327 $329 $330 reversed $85 $-1 #
coedge $-1 $325 $324 $137 $226 reversed $135 $-1 #
edge $-1 $331 -11.263847880497272 $332 11.263847880497272 $225 $333 forward 7 unknown #
coedge $-1 $139 $138 $222 $326 reversed $54 $-1 #
coedge $-1 $334 $335 $138 $229 forward $220 $-1 #
edge $-1 $336 16.221230991023621 $235 26.632474991273018 $228 $337 forward 7 unknown #
coedge $-1 $338 $339 $139 $231 forward $321 $-1 #
edge $-1 $236 -26.632474991273018 $340 -16.221230991023621 $230 $341 forward 7 unknown #
coedge $-1 $342 $140 $339 $343 reversed $234 $-1 #
coedge $-1 $140 $342 $334 $344 reversed $234 $-1 #
loop $-1 $-1 $342 $320 #
vertex $-1 $344 $345 #
vertex $-1 $141 $346 #
straight-curve $-1 -48.059327982421337 -15.688262716420532 0 0 0 1 I I #
face $-1 $-1 $250 $32 $-1 $347 forward single #
loop $-1 $-1 $348 $142 #
plane-surface $-1 0 31.468321595765442 0 0 -1 0 0 0 -1 forward_v I I I I #
coedge $-1 $349 $350 $351 $352 reversed $143 $-1 #
coedge $-1 $353 $145 $147 $248 forward $89 $-1 #
coedge $-1 $145 $353 $349 $354 forward $89 $-1 #
coedge $-1 $351 $148 $145 $245 forward $250 $-1 #
edge $-1 $252 -21.368623827825843 $355 -11.190296480866348 $244 $356 forward 7 unknown #
coedge $-1 $357 $358 $146 $247 forward $239 $-1 #
edge $-1 $359 -55.219485828433399 $251 -48.381249160649091 $246 $360 forward 7 unknown #
edge $-1 $252 50.032344293494091 $359 62.936643191530891 $147 $361 forward 7 unknown #
coedge $-1 $148 $351 $357 $362 forward $250 $-1 #
loop $-1 $-1 $351 $238 #
vertex $-1 $247 $363 #
vertex $-1 $149 $364 #
straight-curve $-1 -37.64808398217194 14.515074777199493 11.263847880497273 0 -1 0 I I #
coedge $-1 $254 $254 $-1 $365 reversed $152 $-1 #
edge $-1 $366 0 $366 6.2831853071796004 $153 $367 forward 7 unknown #
vertex $-1 $156 $368 #
ellipse-curve $-1 -35.612418512780039 25.996588567618794 7.8447295466051159 0 0.52991927123019833 0.84804809178421925 0.5 0 0 1 I I #
coedge $-1 $258 $258 $-1 $369 reversed $159 $-1 #
edge $-1 $370 0 $370 6.2831853071796004 $160 $371 forward 7 unknown #
vertex $-1 $163 $372 #
ellipse-curve $-1 -32.558920308692194 25.996588567618794 7.8447295466051159 0 0.52991927123019833 0.84804809178421925 0.5 0 0 1 I I #
coedge $-1 $262 $262 $-1 $373 reversed $166 $-1 #
edge $-1 $374 0 $374 6.2831853071796004 $167 $375 forward 7 unknown #
vertex $-1 $170 $376 #
ellipse-curve $-1 -29.505422104604346 25.996588567618794 7.8447295466051159 0 0.52991927123019833 0.84804809178421925 0.5 0 0 1 I I #
face $-1 $-1 $377 $36 $-1 $378 reversed single #
loop $-1 $-1 $177 $171 #
plane-surface $-1 0 0 11.263847880497272 0 0 1 1 0 0 forward_v I I I I #
coedge $-1 $379 $380 $381 $382 reversed $172 $-1 #
coedge $-1 $383 $174 $176 $276 forward $108 $-1 #
coedge $-1 $174 $383 $379 $384 forward $108 $-1 #
coedge $-1 $381 $177 $174 $273 forward $267 $-1 #
edge $-1 $279 11.190296480866348 $385 21.368623827825843 $272 $386 forward 7 unknown #
coedge $-1 $387 $388 $175 $275 forward $377 $-1 #
edge $-1 $389 -38.543815781567858 $278 -31.705579113783564 $274 $390 forward 7 unknown #
edge $-1 $279 -12.904298898036766 $389 -3.9541977777422176e-015 $176 $391 forward 7 unknown #
coedge $-1 $177 $381 $387 $392 forward $267 $-1 #
vertex $-1 $275 $393 #
vertex $-1 $178 $394 #
straight-curve $-1 -27.469756635212445 -41.201724858140516 11.263847880497273 0 1 0 I I #
coedge $-1 $281 $281 $-1 $395 reversed $181 $-1 #
edge $-1 $396 0 $396 6.2831853071796004 $182 $397 forward 7 unknown #
vertex $-1 $185 $398 #
ellipse-curve $-1 -35.612418512780039 -25.996588567618804 7.8447295466051274 0 -0.52991927123019833 0.84804809178421925 0.5 0 0 1 I I #
coedge $-1 $285 $285 $-1 $399 reversed $188 $-1 #
edge $-1 $400 0 $400 6.2831853071796004 $189 $401 forward 7 unknown #
vertex $-1 $192 $402 #
ellipse-curve $-1 -32.558920308692194 -25.996588567618804 7.8447295466051274 0 -0.52991927123019833 0.84804809178421925 0.5 0 0 1 I I #
coedge $-1 $289 $289 $-1 $403 reversed $195 $-1 #
edge $-1 $404 0 $404 6.2831853071796004 $196 $405 forward 7 unknown #
vertex $-1 $199 $406 #
ellipse-curve $-1 -29.505422104604346 -25.996588567618804 7.8447295466051274 0 -0.52991927123019833 0.84804809178421925 0.5 0 0 1 I I #
face $-1 $-1 $215 $30 $-1 $407 reversed single #
loop $-1 $-1 $309 $200 #
plane-surface $-1 0 31.468321595765442 0 0 -1 0 0 0 -1 forward_v I I I I #
coedge $-1 $408 $307 $310 $409 forward $201 $-1 #
coedge $-1 $313 $203 $204 $301 reversed $127 $-1 #
coedge $-1 $307 $408 $203 $299 reversed $201 $-1 #
edge $-1 $314 -11.263847880497272 $410 11.263847880497272 $298 $411 forward 7 unknown #
coedge $-1 $205 $204 $408 $412 forward $81 $-1 #
edge $-1 $305 -48.059327982421337 $410 48.059327982421337 $297 $413 forward 7 unknown #
coedge $-1 $310 $309 $205 $303 reversed $294 $-1 #
edge $-1 $414 -48.059327982421337 $304 48.059327982421337 $302 $415 forward 7 unknown #
vertex $-1 $207 $416 #
vertex $-1 $316 $417 #
straight-curve $-1 48.059327982421337 0 -11.263847880497272 0 -1 0 I I #
coedge $-1 $296 $298 $208 $308 reversed $201 $-1 #
edge $-1 $311 -31.468321595765442 $314 31.468321595765442 $307 $418 forward 7 unknown #
coedge $-1 $302 $209 $214 $317 forward $294 $-1 #
coedge $-1 $209 $302 $296 $409 reversed $294 $-1 #
vertex $-1 $210 $419 #
straight-curve $-1 0 31.468321595765442 11.263847880497272 -1 0 0 I I #
coedge $-1 $211 $297 $213 $316 reversed $127 $-1 #
vertex $-1 $308 $420 #
straight-curve $-1 0 -31.468321595765442 11.263847880497272 1 0 0 I I #
edge $-1 $216 -11.263847880497272 $305 11.263847880497272 $213 $421 forward 7 unknown #
edge $-1 $217 -11.263847880497272 $304 11.263847880497272 $214 $422 forward 7 unknown #
point $-1 48.059327982421337 -31.468321595765442 11.263847880497272 #
point $-1 48.059327982421337 31.468321595765442 11.263847880497272 #
face $-1 $-1 $234 $31 $-1 $423 reversed single #
loop $-1 $-1 $329 $219 #
plane-surface $-1 0 0 11.263847880497272 0 0 1 1 0 0 forward_v I I I I #
coedge $-1 $335 $334 $223 $328 forward $220 $-1 #
coedge $-1 $225 $222 $335 $424 reversed $135 $-1 #
coedge $-1 $222 $225 $338 $425 reversed $135 $-1 #
edge $-1 $340 -11.263847880497272 $336 11.263847880497272 $222 $426 forward 7 unknown #
coedge $-1 $224 $223 $342 $427 reversed $85 $-1 #
edge $-1 $428 -26.632474991273018 $332 -16.221230991023621 $323 $429 forward 7 unknown #
coedge $-1 $339 $338 $224 $330 forward $321 $-1 #
edge $-1 $331 16.221230991023621 $430 26.632474991273018 $329 $431 forward 7 unknown #
vertex $-1 $330 $432 #
vertex $-1 $328 $433 #
straight-curve $-1 -37.64808398217194 -11.363882896263682 0 0 0 -1 I I #
coedge $-1 $323 $228 $233 $344 forward $220 $-1 #
coedge $-1 $228 $323 $324 $424 forward $220 $-1 #
vertex $-1 $229 $434 #
straight-curve $-1 -21.426852991148319 -15.688262716420532 -11.263847880497272 -1 0 0 I I #
coedge $-1 $329 $230 $325 $425 forward $321 $-1 #
coedge $-1 $230 $329 $232 $343 forward $321 $-1 #
vertex $-1 $231 $435 #
straight-curve $-1 -21.426852991148319 -15.688262716420532 11.263847880497272 1 0 0 I I #
coedge $-1 $233 $232 $327 $427 forward $234 $-1 #
edge $-1 $430 11.363882896263682 $236 15.688262716420532 $232 $436 forward 7 unknown #
edge $-1 $235 -15.688262716420532 $428 -11.363882896263682 $233 $437 forward 7 unknown #
point $-1 -48.059327982421337 -15.688262716420532 -11.263847880497272 #
point $-1 -48.059327982421337 -15.688262716420532 11.263847880497272 #
plane-surface $-1 0 0 11.263847880497272 0 0 1 1 0 0 forward_v I I I I #
coedge $-1 $358 $357 $350 $438 forward $239 $-1 #
coedge $-1 $350 $241 $243 $354 reversed $143 $-1 #
coedge $-1 $241 $349 $348 $438 reversed $143 $-1 #
coedge $-1 $249 $244 $241 $352 forward $250 $-1 #
edge $-1 $355 6.0097807622726389 $439 16.953246818565951 $351 $440 forward 7 unknown #
coedge $-1 $243 $242 $358 $441 reversed $89 $-1 #
edge $-1 $442 -62.936643191530891 $355 -50.032344293494091 $349 $443 forward 7 unknown #
vertex $-1 $245 $444 #
straight-curve $-1 -16.279460154346097 20.524855539472146 11.263847880497266 1 0 0 I I #
coedge $-1 $348 $246 $249 $362 reversed $239 $-1 #
coedge $-1 $246 $348 $353 $441 forward $239 $-1 #
vertex $-1 $247 $445 #
straight-curve $-1 -37.64808398217194 31.468321595765442 59.645097041146364 0 0 1 I I #
straight-curve $-1 -37.64808398217194 -21.904978566116601 37.776951306444033 0 0.84804809178421925 -0.52991927123019833 I I #
edge $-1 $439 27.469756635212445 $251 37.64808398217194 $357 $446 forward 7 unknown #
point $-1 -37.64808398217194 31.468321595765442 11.263847880497272 #
point $-1 -37.64808398217194 20.524855539472131 11.263847880497273 #
edge $-1 $447 1 $447 0 $254 $-1 forward 7 unknown #
vertex $-1 $255 $448 #
ellipse-curve $-1 -35.612418512780039 25.466669296388599 6.9966814548209024 0 0.52991927123019833 0.84804809178421925 0.5 0 0 1 I I #
point $-1 -35.112418512780039 25.996588567618797 7.8447295466051221 #
edge $-1 $449 1 $449 0 $258 $-1 forward 7 unknown #
vertex $-1 $259 $450 #
ellipse-curve $-1 -32.558920308692194 25.466669296388599 6.9966814548209024 0 0.52991927123019833 0.84804809178421925 0.5 0 0 1 I I #
point $-1 -32.058920308692194 25.996588567618797 7.8447295466051221 #
edge $-1 $451 1 $451 0 $262 $-1 forward 7 unknown #
vertex $-1 $263 $452 #
ellipse-curve $-1 -29.505422104604346 25.466669296388599 6.9966814548209024 0 0.52991927123019833 0.84804809178421925 0.5 0 0 1 I I #
point $-1 -29.005422104604346 25.996588567618797 7.8447295466051221 #
loop $-1 $-1 $274 $266 #
plane-surface $-1 0 -31.468321595765442 0 0 1 0 0 0 1 forward_v I I I I #
coedge $-1 $380 $269 $271 $384 reversed $172 $-1 #
coedge $-1 $269 $379 $453 $454 reversed $172 $-1 #
coedge $-1 $277 $272 $269 $382 forward $267 $-1 #
edge $-1 $385 -20.676869318668352 $455 -9.7334032623750737 $381 $456 forward 7 unknown #
coedge $-1 $271 $270 $388 $457 reversed $108 $-1 #
edge $-1 $458 3.9541977777422176e-015 $385 12.904298898036766 $379 $459 forward 7 unknown #
vertex $-1 $273 $460 #
straight-curve $-1 -16.279460154346097 -20.524855539472167 11.263847880497272 -1 0 0 I I #
coedge $-1 $453 $274 $277 $392 reversed $377 $-1 #
coedge $-1 $274 $453 $383 $457 forward $377 $-1 #
vertex $-1 $275 $461 #
straight-curve $-1 -27.469756635212445 -31.468321595765442 42.969426994280838 0 0 1 I I #
straight-curve $-1 -27.469756635212445 -31.468321595765445 4.4256112127129796 0 -0.84804809178421925 -0.52991927123019833 I I #
edge $-1 $455 -37.64808398217194 $278 -27.469756635212445 $387 $462 forward 7 unknown #
point $-1 -27.469756635212445 -31.468321595765442 11.263847880497272 #
point $-1 -27.469756635212445 -20.524855539472163 11.263847880497272 #
edge $-1 $463 1 $463 0 $281 $-1 forward 7 unknown #
vertex $-1 $282 $464 #
ellipse-curve $-1 -35.612418512780039 -25.466669296388602 6.9966814548209024 0 -0.52991927123019833 0.84804809178421925 0.5 0 0 1 I I #
point $-1 -35.112418512780039 -25.996588567618801 7.8447295466051221 #
edge $-1 $465 1 $465 0 $285 $-1 forward 7 unknown #
vertex $-1 $286 $466 #
ellipse-curve $-1 -32.558920308692194 -25.466669296388602 6.9966814548209024 0 -0.52991927123019833 0.84804809178421925 0.5 0 0 1 I I #
point $-1 -32.058920308692194 -25.996588567618801 7.8447295466051221 #
edge $-1 $467 1 $467 0 $289 $-1 forward 7 unknown #
vertex $-1 $290 $468 #
ellipse-curve $-1 -29.505422104604346 -25.466669296388602 6.9966814548209024 0 -0.52991927123019833 0.84804809178421925 0.5 0 0 1 I I #
point $-1 -29.005422104604346 -25.996588567618801 7.8447295466051221 #
plane-surface $-1 48.059327982421337 0 0 -1 0 0 0 0 1 forward_v I I I I #
coedge $-1 $298 $296 $300 $412 reversed $201 $-1 #
edge $-1 $311 -11.263847880497272 $414 11.263847880497272 $310 $469 forward 7 unknown #
vertex $-1 $412 $470 #
straight-curve $-1 -48.059327982421337 -31.468321595765442 0 0 0 -1 I I #
edge $-1 $410 -31.468321595765442 $414 31.468321595765442 $408 $471 forward 7 unknown #
straight-curve $-1 0 -31.468321595765442 -11.263847880497272 -1 0 0 I I #
vertex $-1 $303 $472 #
straight-curve $-1 0 31.468321595765442 -11.263847880497272 1 0 0 I I #
point $-1 48.059327982421337 31.468321595765442 -11.263847880497272 #
point $-1 48.059327982421337 -31.468321595765442 -11.263847880497272 #
straight-curve $-1 -48.059327982421337 0 11.263847880497272 0 -1 0 I I #
point $-1 -48.059327982421337 31.468321595765442 11.263847880497272 #
point $-1 -48.059327982421337 -31.468321595765442 11.263847880497272 #
straight-curve $-1 48.059327982421337 -31.468321595765442 0 0 0 -1 I I #
straight-curve $-1 48.059327982421337 31.468321595765442 0 0 0 -1 I I #
plane-surface $-1 -48.059327982421337 0 0 1 0 0 0 0 -1 forward_v I I I I #
edge $-1 $332 4.6008464930926287 $336 8.9252263132494782 $335 $473 forward 7 unknown #
edge $-1 $340 -8.9252263132494782 $331 -4.6008464930926287 $338 $474 forward 7 unknown #
straight-curve $-1 -37.64808398217194 -15.688262716420532 0 0 0 -1 I I #
edge $-1 $430 -11.263847880497272 $428 11.263847880497272 $342 $475 forward 7 unknown #
vertex $-1 $427 $476 #
straight-curve $-1 -21.426852991148319 -11.363882896263682 -11.263847880497272 1 0 0 I I #
vertex $-1 $343 $477 #
straight-curve $-1 -21.426852991148319 -11.363882896263682 11.263847880497272 -1 0 0 I I #
point $-1 -37.64808398217194 -11.363882896263682 11.263847880497272 #
point $-1 -37.64808398217194 -11.363882896263682 -11.263847880497272 #
point $-1 -37.64808398217194 -15.688262716420532 -11.263847880497272 #
point $-1 -37.64808398217194 -15.688262716420532 11.263847880497272 #
straight-curve $-1 -48.059327982421337 0 11.263847880497272 0 -1 0 I I #
straight-curve $-1 -48.059327982421337 0 -11.263847880497272 0 1 0 I I #
edge $-1 $439 48.381249160649091 $442 55.219485828433399 $348 $478 forward 7 unknown #
vertex $-1 $362 $479 #
straight-curve $-1 -27.469756635212445 14.515074777199493 11.263847880497273 0 1 0 I I #
edge $-1 $442 11.190296480866348 $359 21.368623827825843 $358 $480 forward 7 unknown #
vertex $-1 $441 $481 #
straight-curve $-1 -27.469756635212445 -21.904978566116601 37.776951306444033 0 -0.84804809178421925 0.52991927123019833 I I #
point $-1 -27.469756635212445 20.524855539472131 11.263847880497273 #
point $-1 -37.64808398217194 31.468321595765442 4.4256112127129654 #
straight-curve $-1 0 31.468321595765442 11.263847880497272 -1 0 0 I I #
vertex $-1 $365 $482 #
point $-1 -35.112418512780039 25.466669296388599 6.9966814548209024 #
vertex $-1 $369 $483 #
point $-1 -32.058920308692194 25.466669296388599 6.9966814548209024 #
vertex $-1 $373 $484 #
point $-1 -29.005422104604346 25.466669296388599 6.9966814548209024 #
coedge $-1 $388 $387 $380 $454 forward $377 $-1 #
edge $-1 $455 31.705579113783564 $458 38.543815781567858 $453 $485 forward 7 unknown #
vertex $-1 $392 $486 #
straight-curve $-1 -37.64808398217194 -41.201724858140516 11.263847880497273 0 -1 0 I I #
edge $-1 $458 -21.368623827825843 $389 -11.190296480866348 $388 $487 forward 7 unknown #
vertex $-1 $457 $488 #
straight-curve $-1 -37.64808398217194 -31.468321595765445 4.4256112127129796 0 0.84804809178421925 0.52991927123019833 I I #
point $-1 -37.64808398217194 -20.524855539472163 11.263847880497272 #
point $-1 -27.469756635212445 -31.468321595765442 4.4256112127129814 #
straight-curve $-1 0 -31.468321595765442 11.263847880497272 1 0 0 I I #
vertex $-1 $395 $489 #
point $-1 -35.112418512780039 -25.466669296388602 6.9966814548209024 #
vertex $-1 $399 $490 #
point $-1 -32.058920308692194 -25.466669296388602 6.9966814548209024 #
vertex $-1 $403 $491 #
point $-1 -29.005422104604346 -25.466669296388602 6.9966814548209024 #
straight-curve $-1 -48.059327982421337 31.468321595765442 0 0 0 -1 I I #
point $-1 -48.059327982421337 -31.468321595765442 -11.263847880497272 #
straight-curve $-1 -48.059327982421337 0 -11.263847880497272 0 1 0 I I #
point $-1 -48.059327982421337 31.468321595765442 -11.263847880497272 #
straight-curve $-1 -37.64808398217194 -6.7630364031710535 -11.263847880497272 0 -1 0 I I #
straight-curve $-1 -37.64808398217194 -6.7630364031710535 11.263847880497272 0 1 0 I I #
straight-curve $-1 -48.059327982421337 -11.363882896263682 0 0 0 -1 I I #
point $-1 -48.059327982421337 -11.363882896263682 -11.263847880497272 #
point $-1 -48.059327982421337 -11.363882896263682 11.263847880497272 #
straight-curve $-1 -27.469756635212445 31.468321595765442 59.645097041146364 0 0 -1 I I #
point $-1 -27.469756635212445 31.468321595765442 11.263847880497272 #
straight-curve $-1 -16.279460154346097 31.468321595765445 4.4256112127129619 -1 0 0 I I #
point $-1 -27.469756635212445 31.468321595765442 4.4256112127129654 #
point $-1 -35.612418512780039 25.201709660773499 6.5726574089287935 #
point $-1 -32.558920308692194 25.201709660773499 6.5726574089287935 #
point $-1 -29.505422104604346 25.201709660773499 6.5726574089287935 #
straight-curve $-1 -37.64808398217194 -31.468321595765442 42.969426994280838 0 0 -1 I I #
point $-1 -37.64808398217194 -31.468321595765442 11.263847880497272 #
straight-curve $-1 -16.279460154346097 -31.468321595765442 4.4256112127129814 1 0 0 I I #
point $-1 -37.64808398217194 -31.468321595765442 4.4256112127129814 #
point $-1 -35.612418512780039 -25.201709660773503 6.5726574089287935 #
point $-1 -32.558920308692194 -25.201709660773503 6.5726574089287935 #
point $-1 -29.505422104604346 -25.201709660773503 6.5726574089287935 #
End-of-ACIS-data 