500 0 9 0           
7 Unknown 11 ACIS 5.0 NT 24 Fri Mar 26 01:37:46 1999 
-1 9.9999999999999995e-007 1e-010 
body $-1 $9 $-1 $10 #
body $-1 $11 $-1 $12 #
body $-1 $13 $-1 $14 #
body $-1 $15 $-1 $16 #
body $-1 $17 $-1 $18 #
body $-1 $19 $-1 $20 #
body $-1 $21 $-1 $22 #
body $-1 $23 $-1 $24 #
body $-1 $25 $-1 $26 #
lump $-1 $-1 $27 $0 #
transform $-1 1 0 0 0 1 0 0 0 1 77.286294137394322 53.299404111177111 15.84911874439727 1 rotate no_reflect no_shear #
lump $-1 $-1 $28 $1 #
transform $-1 1 0 0 0 1 0 0 0 1 77.286294137394322 53.299404111177111 15.84911874439727 1 rotate no_reflect no_shear #
lump $-1 $-1 $29 $2 #
transform $-1 1 0 0 0 1 0 0 0 1 77.286294137394322 53.299404111177111 15.84911874439727 1 rotate no_reflect no_shear #
lump $-1 $-1 $30 $3 #
transform $-1 1 0 0 0 1 0 0 0 1 77.286294137394322 53.299404111177111 15.84911874439727 1 rotate no_reflect no_shear #
lump $-1 $-1 $31 $4 #
transform $-1 1 0 0 0 1 0 0 0 1 77.286294137394322 53.299404111177111 15.84911874439727 1 rotate no_reflect no_shear #
lump $-1 $-1 $32 $5 #
transform $-1 1 0 0 0 1 0 0 0 1 77.286294137394322 53.299404111177111 15.84911874439727 1 rotate no_reflect no_shear #
lump $-1 $-1 $33 $6 #
transform $-1 1 0 0 0 1 0 0 0 1 77.286294137394322 53.299404111177111 15.84911874439727 1 rotate no_reflect no_shear #
lump $-1 $-1 $34 $7 #
transform $-1 1 0 0 0 1 0 0 0 1 77.286294137394322 53.299404111177111 15.84911874439727 1 rotate no_reflect no_shear #
lump $-1 $-1 $35 $8 #
transform $-1 1 0 0 0 1 0 0 0 1 77.286294137394322 53.299404111177111 15.84911874439727 1 rotate no_reflect no_shear #
shell $-1 $-1 $-1 $36 $-1 $9 #
shell $-1 $-1 $-1 $37 $-1 $11 #
shell $-1 $-1 $-1 $38 $-1 $13 #
shell $-1 $-1 $-1 $39 $-1 $15 #
shell $-1 $-1 $-1 $40 $-1 $17 #
shell $-1 $-1 $-1 $41 $-1 $19 #
shell $-1 $-1 $-1 $42 $-1 $21 #
shell $-1 $-1 $-1 $43 $-1 $23 #
shell $-1 $-1 $-1 $44 $-1 $25 #
face $-1 $45 $46 $27 $-1 $47 forward single #
face $-1 $48 $49 $28 $-1 $50 forward single #
face $-1 $51 $52 $29 $-1 $53 forward single #
face $-1 $54 $55 $30 $-1 $56 reversed single #
face $-1 $57 $58 $31 $-1 $59 forward single #
face $-1 $60 $61 $32 $-1 $62 forward single #
face $-1 $63 $64 $33 $-1 $65 reversed single #
face $-1 $66 $67 $34 $-1 $68 forward single #
face $-1 $69 $70 $35 $-1 $71 forward single #
face $-1 $72 $73 $27 $-1 $74 reversed single #
loop $-1 $-1 $75 $36 #
plane-surface $-1 0 0 15.84911874439727 0 0 1 1 0 0 forward_v I I I I #
face $-1 $76 $77 $28 $-1 $78 reversed single #
loop $-1 $-1 $79 $37 #
plane-surface $-1 -67.782786806711599 0 -11.122582334396316 0 0 1 1 0 0 forward_v I I I I #
face $-1 $80 $81 $29 $-1 $82 reversed single #
loop $-1 $-1 $83 $38 #
plane-surface $-1 67.782786806711584 0 -11.122582334396316 0 0 1 1 0 0 forward_v I I I I #
face $-1 $84 $85 $30 $-1 $86 reversed single #
loop $-1 $-1 $87 $39 #
plane-surface $-1 -25.771807475699603 -184.38439454051246 82.824667057431469 1 0 0 0 0.84804810408105047 -0.52991925155115449 forward_v I I I I #
face $-1 $88 $89 $31 $-1 $90 forward single #
loop $-1 $91 $92 $40 #
cone-surface $-1 -19.785711460599245 -47.183275593361138 7.4754755104747854 0 0.84804810408105047 -0.52991925155115449 1.5 0 0 1 I I 0 1 1.5 forward I I I I #
face $-1 $93 $94 $32 $-1 $95 forward single #
loop $-1 $96 $97 $41 #
cone-surface $-1 -10.806567437948701 -47.183275593361138 7.4754755104747854 0 0.84804810408105047 -0.52991925155115449 1.5 0 0 1 I I 0 1 1.5 forward I I I I #
face $-1 $98 $99 $33 $-1 $100 reversed single #
loop $-1 $-1 $101 $42 #
plane-surface $-1 32.507472000329265 -184.38439454051246 82.824667057431469 1 0 0 0 0.84804810408105047 -0.52991925155115449 forward_v I I I I #
face $-1 $102 $103 $34 $-1 $104 forward single #
loop $-1 $105 $106 $43 #
cone-surface $-1 38.493568015429616 -47.183275593361138 7.4754755104747854 0 0.84804810408105047 -0.52991925155115449 1.5 0 0 1 I I 0 1 1.5 forward I I I I #
face $-1 $107 $108 $35 $-1 $109 forward single #
loop $-1 $110 $111 $44 #
cone-surface $-1 47.472712038080175 -47.183275593361138 7.4754755104747854 0 0.84804810408105047 -0.52991925155115449 1.5 0 0 1 I I 0 1 1.5 forward I I I I #
face $-1 $112 $113 $27 $-1 $114 reversed single #
loop $-1 $-1 $115 $45 #
plane-surface $-1 0 0 -15.84911874439727 0 0 1 1 0 0 forward_v I I I I #
coedge $-1 $116 $117 $118 $119 forward $46 $-1 #
face $-1 $120 $121 $28 $-1 $122 reversed single #
loop $-1 $-1 $123 $48 #
plane-surface $-1 -58.279279476028876 0 -13.485850539396793 -1 0 0 0 0 1 forward_v I I I I #
coedge $-1 $124 $125 $126 $127 forward $49 $-1 #
face $-1 $128 $129 $29 $-1 $130 reversed single #
loop $-1 $-1 $131 $51 #
plane-surface $-1 58.279279476028861 0 -13.485850539396793 1 0 0 0 0 -1 forward_v I I I I #
coedge $-1 $132 $133 $134 $135 reversed $52 $-1 #
face $-1 $136 $137 $30 $-1 $138 reversed single #
loop $-1 $-1 $139 $54 #
plane-surface $-1 -15.296139449273973 -53.299404111177154 0.91367676853070634 0 -0.84804810408105047 0.52991925155115449 1 0 0 forward_v I I I I #
coedge $-1 $140 $141 $142 $143 reversed $55 $-1 #
face $-1 $-1 $144 $31 $-1 $145 forward single #
loop $-1 $146 $147 $57 #
cone-surface $-1 -19.785711460599245 -45.097460816173722 6.172113825822219 0 0.84804810408105047 -0.52991925155115449 0.75 0 0 1 I I -0.70710678118654757 0.70710678118654757 0.75 forward I I I I #
loop $-1 $-1 $148 $40 #
coedge $-1 $92 $92 $149 $150 reversed $58 $-1 #
face $-1 $-1 $151 $32 $-1 $152 forward single #
loop $-1 $153 $154 $60 #
cone-surface $-1 -10.806567437948701 -45.097460816173722 6.172113825822219 0 0.84804810408105047 -0.52991925155115449 0.75 0 0 1 I I -0.70710678118654757 0.70710678118654757 0.75 forward I I I I #
loop $-1 $-1 $155 $41 #
coedge $-1 $97 $97 $156 $157 reversed $61 $-1 #
face $-1 $158 $159 $33 $-1 $160 reversed single #
loop $-1 $-1 $161 $63 #
plane-surface $-1 42.983140026754896 -53.299404111177154 0.91367676853070634 0 -0.84804810408105047 0.52991925155115449 1 0 0 forward_v I I I I #
coedge $-1 $162 $163 $164 $165 reversed $64 $-1 #
face $-1 $-1 $166 $34 $-1 $167 forward single #
loop $-1 $168 $169 $66 #
cone-surface $-1 38.493568015429616 -45.097460816173722 6.172113825822219 0 0.84804810408105047 -0.52991925155115449 0.75 0 0 1 I I -0.70710678118654757 0.70710678118654757 0.75 forward I I I I #
loop $-1 $-1 $170 $43 #
coedge $-1 $106 $106 $171 $172 reversed $67 $-1 #
face $-1 $-1 $173 $35 $-1 $174 forward single #
loop $-1 $175 $176 $69 #
cone-surface $-1 47.472712038080175 -45.097460816173722 6.172113825822219 0 0.84804810408105047 -0.52991925155115449 0.75 0 0 1 I I -0.70710678118654757 0.70710678118654757 0.75 forward I I I I #
loop $-1 $-1 $177 $44 #
coedge $-1 $111 $111 $178 $179 reversed $70 $-1 #
face $-1 $180 $181 $27 $-1 $182 reversed single #
loop $-1 $-1 $183 $72 #
plane-surface $-1 0 -53.299404111177111 0 0 1 0 0 0 1 forward_v I I I I #
coedge $-1 $184 $185 $186 $187 forward $73 $-1 #
coedge $-1 $188 $75 $189 $190 forward $46 $-1 #
coedge $-1 $75 $188 $191 $192 forward $46 $-1 #
coedge $-1 $193 $194 $75 $119 reversed $195 $-1 #
edge $-1 $196 -53.299404111177111 $197 53.299404111177111 $118 $198 forward 7 unknown #
face $-1 $199 $200 $28 $-1 $201 reversed single #
loop $-1 $-1 $202 $76 #
plane-surface $-1 0 0 -15.84911874439727 0 0 1 1 0 0 forward_v I I I I #
coedge $-1 $203 $126 $204 $205 reversed $77 $-1 #
coedge $-1 $206 $79 $207 $208 reversed $49 $-1 #
coedge $-1 $79 $206 $209 $210 reversed $49 $-1 #
coedge $-1 $123 $211 $79 $127 reversed $77 $-1 #
edge $-1 $212 -53.299404111177111 $213 53.299404111177111 $126 $214 forward 7 unknown #
face $-1 $215 $216 $29 $-1 $217 reversed single #
loop $-1 $-1 $218 $80 #
plane-surface $-1 0 -53.299404111177111 0 0 1 0 0 0 1 forward_v I I I I #
coedge $-1 $219 $220 $221 $222 reversed $81 $-1 #
coedge $-1 $223 $83 $224 $225 reversed $52 $-1 #
coedge $-1 $83 $223 $218 $226 reversed $52 $-1 #
coedge $-1 $227 $228 $83 $135 forward $229 $-1 #
edge $-1 $230 -53.299404111177111 $231 53.299404111177111 $134 $232 forward 7 unknown #
face $-1 $233 $234 $30 $-1 $235 forward single #
loop $-1 $-1 $236 $84 #
plane-surface $-1 -4.8204714228483425 -184.38439454051246 82.824667057431469 -1 0 0 0 -0.84804810408105047 0.52991925155115449 forward_v I I I I #
coedge $-1 $237 $238 $239 $240 reversed $85 $-1 #
coedge $-1 $141 $87 $241 $242 reversed $55 $-1 #
coedge $-1 $87 $140 $237 $243 reversed $55 $-1 #
coedge $-1 $239 $244 $87 $143 forward $245 $-1 #
edge $-1 $246 25.563214784318465 $247 40.498656760184957 $142 $248 forward 7 unknown #
loop $-1 $-1 $149 $88 #
plane-surface $-1 -15.296139449273973 -53.299404111177154 0.91367676853070634 0 -0.84804810408105047 0.52991925155115449 1 0 0 forward_v I I I I #
loop $-1 $-1 $249 $57 #
coedge $-1 $147 $147 $148 $250 reversed $89 $-1 #
coedge $-1 $148 $148 $147 $250 forward $91 $-1 #
coedge $-1 $149 $149 $92 $150 forward $144 $-1 #
edge $-1 $251 1.503811458921611e-015 $251 6.2831853071796022 $149 $252 forward 7 unknown #
loop $-1 $-1 $156 $93 #
plane-surface $-1 -15.296139449273973 -53.299404111177154 0.91367676853070634 0 -0.84804810408105047 0.52991925155115449 1 0 0 forward_v I I I I #
loop $-1 $-1 $253 $60 #
coedge $-1 $154 $154 $155 $254 reversed $94 $-1 #
coedge $-1 $155 $155 $154 $254 forward $96 $-1 #
coedge $-1 $156 $156 $97 $157 forward $151 $-1 #
edge $-1 $255 1.503811458921611e-015 $255 6.2831853071796022 $156 $256 forward 7 unknown #
face $-1 $257 $258 $33 $-1 $259 reversed single #
loop $-1 $-1 $260 $98 #
plane-surface $-1 53.458808053180526 -184.38439454051246 82.824667057431469 -1 0 0 0 -0.84804810408105047 0.52991925155115449 forward_v I I I I #
coedge $-1 $261 $262 $263 $264 reversed $99 $-1 #
coedge $-1 $163 $101 $265 $266 reversed $64 $-1 #
coedge $-1 $101 $162 $261 $267 reversed $64 $-1 #
coedge $-1 $263 $268 $101 $165 forward $258 $-1 #
edge $-1 $269 25.563214784318465 $270 40.498656760184957 $164 $271 forward 7 unknown #
loop $-1 $-1 $171 $102 #
plane-surface $-1 42.983140026754896 -53.299404111177154 0.91367676853070634 0 -0.84804810408105047 0.52991925155115449 1 0 0 forward_v I I I I #
loop $-1 $-1 $272 $66 #
coedge $-1 $169 $169 $170 $273 reversed $103 $-1 #
coedge $-1 $170 $170 $169 $273 forward $105 $-1 #
coedge $-1 $171 $171 $106 $172 forward $166 $-1 #
edge $-1 $274 1.503811458921611e-015 $274 6.2831853071796022 $171 $275 forward 7 unknown #
loop $-1 $-1 $178 $107 #
plane-surface $-1 42.983140026754896 -53.299404111177154 0.91367676853070634 0 -0.84804810408105047 0.52991925155115449 1 0 0 forward_v I I I I #
loop $-1 $-1 $276 $69 #
coedge $-1 $176 $176 $177 $277 reversed $108 $-1 #
coedge $-1 $177 $177 $176 $277 forward $110 $-1 #
coedge $-1 $178 $178 $111 $179 forward $173 $-1 #
edge $-1 $278 1.503811458921611e-015 $278 6.2831853071796022 $178 $279 forward 7 unknown #
face $-1 $280 $281 $27 $-1 $282 reversed single #
loop $-1 $-1 $283 $112 #
plane-surface $-1 -77.286294137394322 0 0 1 0 0 0 0 -1 forward_v I I I I #
coedge $-1 $284 $191 $285 $286 forward $113 $-1 #
coedge $-1 $287 $115 $284 $288 forward $73 $-1 #
coedge $-1 $115 $287 $289 $290 forward $73 $-1 #
coedge $-1 $194 $193 $115 $187 reversed $195 $-1 #
edge $-1 $291 -53.299404111177111 $292 53.299404111177111 $186 $293 forward 7 unknown #
coedge $-1 $117 $116 $294 $295 forward $46 $-1 #
coedge $-1 $296 $297 $116 $190 reversed $281 $-1 #
edge $-1 $197 -77.286294137394322 $298 77.286294137394322 $189 $299 forward 7 unknown #
coedge $-1 $183 $300 $117 $192 reversed $113 $-1 #
edge $-1 $301 -77.286294137394322 $196 77.286294137394322 $191 $302 forward 7 unknown #
coedge $-1 $186 $118 $300 $303 forward $195 $-1 #
coedge $-1 $118 $186 $296 $304 reversed $195 $-1 #
loop $-1 $-1 $193 $280 #
vertex $-1 $119 $305 #
vertex $-1 $119 $306 #
straight-curve $-1 77.286294137394322 0 15.84911874439727 0 1 0 I I #
face $-1 $307 $308 $28 $-1 $309 reversed single #
loop $-1 $-1 $204 $120 #
plane-surface $-1 0 -53.299404111177111 0 0 1 0 0 0 1 forward_v I I I I #
coedge $-1 $310 $311 $203 $312 forward $121 $-1 #
coedge $-1 $211 $123 $202 $312 reversed $77 $-1 #
coedge $-1 $209 $313 $123 $205 forward $200 $-1 #
edge $-1 $314 -9.1061934746988733 $212 -4.3796570646979198 $204 $315 forward 7 unknown #
coedge $-1 $125 $124 $316 $317 reversed $49 $-1 #
coedge $-1 $318 $319 $124 $208 forward $320 $-1 #
edge $-1 $321 -43.394900734038522 $213 -24.387886072673076 $207 $322 forward 7 unknown #
coedge $-1 $323 $204 $125 $210 forward $200 $-1 #
edge $-1 $212 24.387886072673076 $324 43.394900734038522 $209 $325 forward 7 unknown #
coedge $-1 $126 $203 $318 $326 reversed $77 $-1 #
vertex $-1 $210 $327 #
vertex $-1 $208 $328 #
straight-curve $-1 -58.279279476028876 0 -11.122582334396316 0 1 0 I I #
face $-1 $329 $330 $29 $-1 $331 reversed single #
loop $-1 $-1 $332 $128 #
plane-surface $-1 0 0 -15.84911874439727 0 0 1 1 0 0 forward_v I I I I #
coedge $-1 $333 $334 $133 $226 forward $129 $-1 #
coedge $-1 $335 $131 $332 $336 reversed $81 $-1 #
coedge $-1 $131 $335 $223 $337 reversed $81 $-1 #
coedge $-1 $224 $338 $131 $222 forward $330 $-1 #
edge $-1 $339 -9.1061934746988733 $340 -4.3796570646979198 $221 $341 forward 7 unknown #
coedge $-1 $133 $132 $220 $337 forward $52 $-1 #
coedge $-1 $342 $221 $132 $225 forward $330 $-1 #
edge $-1 $340 24.387886072673069 $230 43.394900734038515 $224 $343 forward 7 unknown #
edge $-1 $231 -43.394900734038515 $344 -24.387886072673069 $218 $345 forward 7 unknown #
coedge $-1 $346 $134 $334 $347 forward $229 $-1 #
coedge $-1 $134 $346 $342 $348 reversed $229 $-1 #
loop $-1 $-1 $134 $329 #
vertex $-1 $348 $349 #
vertex $-1 $347 $350 #
straight-curve $-1 77.286294137394322 0 -11.122582334396316 0 -1 0 I I #
face $-1 $-1 $245 $30 $-1 $351 reversed single #
loop $-1 $-1 $352 $136 #
plane-surface $-1 0 0 15.84911874439727 0 0 1 1 0 0 forward_v I I I I #
coedge $-1 $353 $354 $355 $356 reversed $137 $-1 #
coedge $-1 $357 $139 $141 $243 forward $85 $-1 #
coedge $-1 $139 $357 $353 $358 forward $85 $-1 #
coedge $-1 $355 $142 $139 $240 forward $245 $-1 #
edge $-1 $247 -18.123737751062617 $359 2.8275983017886439 $239 $360 forward 7 unknown #
coedge $-1 $361 $362 $140 $242 forward $234 $-1 #
edge $-1 $363 -48.225492796457765 $246 -38.892793159079119 $241 $364 forward 7 unknown #
edge $-1 $247 8.0495452148886473e-014 $363 17.611550458037623 $141 $365 forward 7 unknown #
coedge $-1 $142 $355 $361 $366 reversed $245 $-1 #
loop $-1 $-1 $355 $233 #
vertex $-1 $366 $367 #
vertex $-1 $143 $368 #
straight-curve $-1 -25.771807475699603 -53.299404111177111 41.412333528715735 0 0 -1 I I #
coedge $-1 $249 $249 $-1 $369 reversed $146 $-1 #
edge $-1 $370 0 $370 6.2831853071796004 $147 $371 forward 7 unknown #
vertex $-1 $150 $372 #
ellipse-curve $-1 -19.785711460599245 -48.633054292487799 8.3813977564640059 0 -0.84804810408105047 0.52991925155115449 1.5 0 0 1 I I #
coedge $-1 $253 $253 $-1 $373 reversed $153 $-1 #
edge $-1 $374 0 $374 6.2831853071796004 $154 $375 forward 7 unknown #
vertex $-1 $157 $376 #
ellipse-curve $-1 -10.806567437948701 -48.633054292487799 8.3813977564640059 0 -0.84804810408105047 0.52991925155115449 1.5 0 0 1 I I #
face $-1 $-1 $377 $33 $-1 $378 forward single #
loop $-1 $-1 $164 $158 #
plane-surface $-1 0 -53.299404111177111 0 0 1 0 0 0 1 forward_v I I I I #
coedge $-1 $379 $380 $381 $382 reversed $159 $-1 #
coedge $-1 $383 $161 $163 $267 forward $99 $-1 #
coedge $-1 $161 $383 $379 $384 forward $99 $-1 #
coedge $-1 $381 $164 $161 $264 forward $258 $-1 #
edge $-1 $270 11.015901986951818 $385 31.967238039803078 $263 $386 forward 7 unknown #
coedge $-1 $387 $388 $162 $266 forward $377 $-1 #
edge $-1 $389 -48.225492796457765 $269 -38.892793159079119 $265 $390 forward 7 unknown #
edge $-1 $270 8.0495452148886473e-014 $389 17.611550458037623 $163 $391 forward 7 unknown #
coedge $-1 $164 $381 $387 $392 reversed $258 $-1 #
vertex $-1 $392 $393 #
vertex $-1 $165 $394 #
straight-curve $-1 32.507472000329265 -53.299404111177111 41.412333528715735 0 0 -1 I I #
coedge $-1 $272 $272 $-1 $395 reversed $168 $-1 #
edge $-1 $396 0 $396 6.2831853071796004 $169 $397 forward 7 unknown #
vertex $-1 $172 $398 #
ellipse-curve $-1 38.493568015429616 -48.633054292487799 8.3813977564640059 0 -0.84804810408105047 0.52991925155115449 1.5 0 0 1 I I #
coedge $-1 $276 $276 $-1 $399 reversed $175 $-1 #
edge $-1 $400 0 $400 6.2831853071796004 $176 $401 forward 7 unknown #
vertex $-1 $179 $402 #
ellipse-curve $-1 47.472712038080175 -48.633054292487799 8.3813977564640059 0 -0.84804810408105047 0.52991925155115449 1.5 0 0 1 I I #
face $-1 $-1 $195 $27 $-1 $403 reversed single #
loop $-1 $-1 $296 $180 #
plane-surface $-1 0 53.299404111177111 0 0 -1 0 0 0 -1 forward_v I I I I #
coedge $-1 $404 $294 $297 $405 forward $181 $-1 #
coedge $-1 $300 $183 $184 $288 reversed $113 $-1 #
coedge $-1 $294 $404 $183 $286 reversed $181 $-1 #
edge $-1 $301 -15.84911874439727 $406 15.84911874439727 $285 $407 forward 7 unknown #
coedge $-1 $185 $184 $404 $408 forward $73 $-1 #
edge $-1 $292 -77.286294137394322 $406 77.286294137394322 $284 $409 forward 7 unknown #
coedge $-1 $297 $296 $185 $290 reversed $281 $-1 #
edge $-1 $410 -77.286294137394322 $291 77.286294137394322 $289 $411 forward 7 unknown #
vertex $-1 $187 $412 #
vertex $-1 $303 $413 #
straight-curve $-1 77.286294137394322 0 -15.84911874439727 0 -1 0 I I #
coedge $-1 $283 $285 $188 $295 reversed $181 $-1 #
edge $-1 $298 -53.299404111177111 $301 53.299404111177111 $294 $414 forward 7 unknown #
coedge $-1 $289 $189 $194 $304 forward $281 $-1 #
coedge $-1 $189 $289 $283 $405 reversed $281 $-1 #
vertex $-1 $190 $415 #
straight-curve $-1 0 53.299404111177111 15.84911874439727 -1 0 0 I I #
coedge $-1 $191 $284 $193 $303 reversed $113 $-1 #
vertex $-1 $295 $416 #
straight-curve $-1 0 -53.299404111177111 15.84911874439727 1 0 0 I I #
edge $-1 $196 -15.84911874439727 $292 15.84911874439727 $193 $417 forward 7 unknown #
edge $-1 $197 -15.84911874439727 $291 15.84911874439727 $194 $418 forward 7 unknown #
point $-1 77.286294137394322 -53.299404111177111 15.84911874439727 #
point $-1 77.286294137394322 53.299404111177111 15.84911874439727 #
face $-1 $-1 $320 $28 $-1 $419 reversed single #
loop $-1 $-1 $316 $199 #
plane-surface $-1 -77.286294137394322 0 0 1 0 0 0 0 -1 forward_v I I I I #
coedge $-1 $420 $202 $313 $421 forward $121 $-1 #
coedge $-1 $202 $420 $422 $423 forward $121 $-1 #
edge $-1 $424 -53.299404111177111 $314 53.299404111177111 $202 $425 forward 7 unknown #
coedge $-1 $204 $323 $310 $421 reversed $200 $-1 #
vertex $-1 $421 $426 #
straight-curve $-1 -58.279279476028876 -53.299404111177111 -6.7429252696983966 0 0 1 I I #
coedge $-1 $427 $428 $206 $317 forward $308 $-1 #
edge $-1 $324 -53.299404111177111 $321 53.299404111177111 $316 $429 forward 7 unknown #
coedge $-1 $422 $207 $211 $326 forward $320 $-1 #
coedge $-1 $207 $422 $427 $430 reversed $320 $-1 #
loop $-1 $-1 $318 $307 #
vertex $-1 $430 $431 #
straight-curve $-1 -33.891393403355799 53.299404111177111 -11.122582334396316 1 0 0 I I #
coedge $-1 $313 $209 $428 $432 forward $200 $-1 #
vertex $-1 $432 $433 #
straight-curve $-1 -33.891393403355799 -53.299404111177111 -11.122582334396316 -1 0 0 I I #
edge $-1 $213 4.3796570646979198 $424 9.1061934746988733 $318 $434 forward 7 unknown #
point $-1 -58.279279476028876 -53.299404111177111 -11.122582334396316 #
point $-1 -58.279279476028876 53.299404111177111 -11.122582334396316 #
face $-1 $-1 $229 $29 $-1 $435 reversed single #
loop $-1 $-1 $224 $215 #
plane-surface $-1 0 53.299404111177111 0 0 -1 0 0 0 -1 forward_v I I I I #
coedge $-1 $436 $437 $219 $336 forward $216 $-1 #
coedge $-1 $438 $218 $335 $439 forward $129 $-1 #
coedge $-1 $218 $438 $227 $347 reversed $129 $-1 #
coedge $-1 $220 $219 $333 $439 reversed $81 $-1 #
edge $-1 $440 -53.299404111177111 $339 53.299404111177111 $332 $441 forward 7 unknown #
edge $-1 $340 -53.299404111177111 $344 53.299404111177111 $220 $442 forward 7 unknown #
coedge $-1 $221 $342 $436 $443 reversed $330 $-1 #
vertex $-1 $443 $444 #
vertex $-1 $225 $445 #
straight-curve $-1 58.279279476028861 53.299404111177111 -6.7429252696983966 0 0 1 I I #
coedge $-1 $338 $224 $228 $348 forward $330 $-1 #
straight-curve $-1 33.891393403355792 53.299404111177111 -11.122582334396316 1 0 0 I I #
vertex $-1 $226 $446 #
straight-curve $-1 33.891393403355792 -53.299404111177111 -11.122582334396316 -1 0 0 I I #
coedge $-1 $228 $227 $447 $448 reversed $229 $-1 #
edge $-1 $231 11.122582334396316 $449 15.84911874439727 $227 $450 forward 7 unknown #
edge $-1 $230 11.122582334396316 $451 15.84911874439727 $228 $452 forward 7 unknown #
point $-1 77.286294137394307 53.299404111177111 -11.122582334396316 #
point $-1 77.286294137394307 -53.299404111177111 -11.122582334396316 #
plane-surface $-1 0 -53.299404111177111 0 0 1 0 0 0 1 forward_v I I I I #
coedge $-1 $362 $361 $354 $453 forward $234 $-1 #
coedge $-1 $354 $236 $238 $358 reversed $137 $-1 #
coedge $-1 $236 $353 $352 $453 reversed $137 $-1 #
coedge $-1 $244 $239 $236 $356 forward $245 $-1 #
edge $-1 $359 -40.498656760184957 $454 -25.563214784318465 $355 $455 forward 7 unknown #
coedge $-1 $238 $237 $362 $456 reversed $85 $-1 #
edge $-1 $457 -17.611550458037623 $359 -8.0495452148886473e-014 $353 $458 forward 7 unknown #
vertex $-1 $240 $459 #
straight-curve $-1 -7.6480697246369864 -53.299404111177111 0.91367676853076907 1 0 0 I I #
coedge $-1 $352 $241 $244 $366 forward $234 $-1 #
coedge $-1 $241 $352 $357 $456 forward $234 $-1 #
vertex $-1 $242 $460 #
straight-curve $-1 -25.771807475699603 -92.19219727025623 15.849118744397266 0 -1 0 I I #
straight-curve $-1 -25.771807475699603 -53.299404111177154 0.91367676853070634 0 0.52991925155115449 0.84804810408105047 I I #
edge $-1 $246 -25.771807475699603 $454 -4.8204714228483425 $244 $461 forward 7 unknown #
point $-1 -25.771807475699603 -53.299404111177111 15.84911874439727 #
point $-1 -25.771807475699603 -53.299404111177111 0.91367676853077462 #
edge $-1 $462 1 $462 0 $249 $-1 forward 7 unknown #
vertex $-1 $250 $463 #
ellipse-curve $-1 -19.785711460599245 -45.733496894234513 6.5695532644855845 0 -0.84804810408105047 0.52991925155115449 1.5 0 0 1 I I #
point $-1 -18.285711460599245 -48.633054292487763 8.3813977564639863 #
edge $-1 $464 1 $464 0 $253 $-1 forward 7 unknown #
vertex $-1 $254 $465 #
ellipse-curve $-1 -10.806567437948701 -45.733496894234513 6.5695532644855845 0 -0.84804810408105047 0.52991925155115449 1.5 0 0 1 I I #
point $-1 -9.3065674379487007 -48.633054292487763 8.3813977564639863 #
loop $-1 $-1 $265 $257 #
plane-surface $-1 0 0 15.84911874439727 0 0 1 1 0 0 forward_v I I I I #
coedge $-1 $380 $260 $262 $384 reversed $159 $-1 #
coedge $-1 $260 $379 $466 $467 reversed $159 $-1 #
coedge $-1 $268 $263 $260 $382 forward $258 $-1 #
edge $-1 $385 -40.498656760184957 $468 -25.563214784318465 $381 $469 forward 7 unknown #
coedge $-1 $262 $261 $388 $470 reversed $99 $-1 #
edge $-1 $471 -17.611550458037623 $385 -8.0495452148886473e-014 $379 $472 forward 7 unknown #
vertex $-1 $264 $473 #
straight-curve $-1 21.491570013377448 -53.299404111177111 0.91367676853076907 1 0 0 I I #
coedge $-1 $466 $265 $268 $392 forward $377 $-1 #
coedge $-1 $265 $466 $383 $470 forward $377 $-1 #
vertex $-1 $266 $474 #
straight-curve $-1 32.507472000329265 -92.19219727025623 15.849118744397266 0 -1 0 I I #
straight-curve $-1 32.507472000329265 -53.299404111177154 0.91367676853070634 0 0.52991925155115449 0.84804810408105047 I I #
edge $-1 $269 32.507472000329265 $468 53.458808053180526 $268 $475 forward 7 unknown #
point $-1 32.507472000329265 -53.299404111177111 15.84911874439727 #
point $-1 32.507472000329265 -53.299404111177111 0.91367676853077462 #
edge $-1 $476 1 $476 0 $272 $-1 forward 7 unknown #
vertex $-1 $273 $477 #
ellipse-curve $-1 38.493568015429616 -45.733496894234513 6.5695532644855845 0 -0.84804810408105047 0.52991925155115449 1.5 0 0 1 I I #
point $-1 39.993568015429616 -48.633054292487763 8.3813977564639863 #
edge $-1 $478 1 $478 0 $276 $-1 forward 7 unknown #
vertex $-1 $277 $479 #
ellipse-curve $-1 47.472712038080175 -45.733496894234513 6.5695532644855845 0 -0.84804810408105047 0.52991925155115449 1.5 0 0 1 I I #
point $-1 48.972712038080175 -48.633054292487763 8.3813977564639863 #
plane-surface $-1 77.286294137394322 0 0 -1 0 0 0 0 1 forward_v I I I I #
coedge $-1 $285 $283 $287 $408 reversed $181 $-1 #
edge $-1 $298 -15.84911874439727 $410 15.84911874439727 $297 $480 forward 7 unknown #
vertex $-1 $408 $481 #
straight-curve $-1 -77.286294137394322 -53.299404111177111 0 0 0 -1 I I #
edge $-1 $406 -53.299404111177111 $410 53.299404111177111 $404 $482 forward 7 unknown #
straight-curve $-1 0 -53.299404111177111 -15.84911874439727 -1 0 0 I I #
vertex $-1 $290 $483 #
straight-curve $-1 0 53.299404111177111 -15.84911874439727 1 0 0 I I #
point $-1 77.286294137394322 53.299404111177111 -15.84911874439727 #
point $-1 77.286294137394322 -53.299404111177111 -15.84911874439727 #
straight-curve $-1 -77.286294137394322 0 15.84911874439727 0 -1 0 I I #
point $-1 -77.286294137394322 53.299404111177111 15.84911874439727 #
point $-1 -77.286294137394322 -53.299404111177111 15.84911874439727 #
straight-curve $-1 77.286294137394322 -53.299404111177111 0 0 0 -1 I I #
straight-curve $-1 77.286294137394322 53.299404111177111 0 0 0 -1 I I #
plane-surface $-1 0 53.299404111177111 0 0 -1 0 0 0 -1 forward_v I I I I #
coedge $-1 $311 $310 $484 $485 forward $121 $-1 #
edge $-1 $314 58.279279476028876 $486 77.286294137394322 $313 $487 forward 7 unknown #
coedge $-1 $319 $318 $311 $423 reversed $320 $-1 #
edge $-1 $488 -77.286294137394322 $424 -58.279279476028876 $422 $489 forward 7 unknown #
vertex $-1 $326 $490 #
straight-curve $-1 -58.279279476028876 0 -15.84911874439727 0 -1 0 I I #
point $-1 -58.279279476028876 -53.299404111177111 -15.84911874439727 #
coedge $-1 $484 $316 $319 $430 forward $308 $-1 #
coedge $-1 $316 $484 $323 $432 reversed $308 $-1 #
straight-curve $-1 -77.286294137394322 0 -11.122582334396316 0 1 0 I I #
edge $-1 $321 11.122582334396316 $488 15.84911874439727 $319 $491 forward 7 unknown #
point $-1 -77.286294137394322 53.299404111177111 -11.122582334396316 #
edge $-1 $324 11.122582334396316 $486 15.84911874439727 $428 $492 forward 7 unknown #
point $-1 -77.286294137394322 -53.299404111177111 -11.122582334396316 #
straight-curve $-1 -58.279279476028876 53.299404111177111 -6.7429252696983966 0 0 -1 I I #
plane-surface $-1 77.286294137394322 0 0 -1 0 0 0 0 1 forward_v I I I I #
coedge $-1 $447 $332 $338 $443 forward $216 $-1 #
coedge $-1 $332 $447 $438 $493 forward $216 $-1 #
coedge $-1 $334 $333 $437 $493 reversed $129 $-1 #
edge $-1 $344 4.3796570646979198 $440 9.1061934746988733 $333 $494 forward 7 unknown #
vertex $-1 $336 $495 #
straight-curve $-1 58.279279476028861 0 -15.84911874439727 0 1 0 I I #
straight-curve $-1 58.279279476028861 0 -11.122582334396316 0 -1 0 I I #
edge $-1 $339 58.279279476028861 $451 77.286294137394322 $338 $496 forward 7 unknown #
point $-1 58.279279476028861 53.299404111177111 -15.84911874439727 #
point $-1 58.279279476028861 53.299404111177111 -11.122582334396316 #
point $-1 58.279279476028861 -53.299404111177111 -11.122582334396316 #
coedge $-1 $437 $436 $346 $448 forward $216 $-1 #
edge $-1 $451 -53.299404111177111 $449 53.299404111177111 $346 $497 forward 7 unknown #
vertex $-1 $347 $498 #
straight-curve $-1 77.286294137394322 -53.299404111177111 0 0 0 -1 I I #
vertex $-1 $448 $499 #
straight-curve $-1 77.286294137394322 53.299404111177111 0 0 0 -1 I I #
edge $-1 $454 38.892793159079119 $457 48.225492796457765 $352 $500 forward 7 unknown #
vertex $-1 $453 $501 #
straight-curve $-1 -4.8204714228483425 -53.299404111177111 41.412333528715735 0 0 1 I I #
edge $-1 $457 -2.8275983017886439 $363 18.123737751062617 $362 $502 forward 7 unknown #
vertex $-1 $456 $503 #
straight-curve $-1 -4.8204714228483425 -53.299404111177154 0.91367676853070634 0 -0.52991925155115449 -0.84804810408105047 I I #
point $-1 -4.8204714228483425 -53.299404111177111 0.91367676853077462 #
point $-1 -25.771807475699603 -43.966704473798465 15.849118744397268 #
straight-curve $-1 0 -53.299404111177111 15.84911874439727 1 0 0 I I #
vertex $-1 $369 $504 #
point $-1 -18.285711460599245 -45.733496894234513 6.5695532644855845 #
vertex $-1 $373 $505 #
point $-1 -9.3065674379487007 -45.733496894234513 6.5695532644855845 #
coedge $-1 $388 $387 $380 $467 forward $377 $-1 #
edge $-1 $468 38.892793159079119 $471 48.225492796457765 $466 $506 forward 7 unknown #
vertex $-1 $467 $507 #
straight-curve $-1 53.458808053180526 -53.299404111177111 41.412333528715735 0 0 1 I I #
edge $-1 $471 -31.967238039803078 $389 -11.015901986951818 $388 $508 forward 7 unknown #
vertex $-1 $470 $509 #
straight-curve $-1 53.458808053180526 -53.299404111177154 0.91367676853070634 0 -0.52991925155115449 -0.84804810408105047 I I #
point $-1 53.458808053180526 -53.299404111177111 0.91367676853077462 #
point $-1 32.507472000329265 -43.966704473798465 15.849118744397268 #
straight-curve $-1 0 -53.299404111177111 15.84911874439727 1 0 0 I I #
vertex $-1 $395 $510 #
point $-1 39.993568015429616 -45.733496894234513 6.5695532644855845 #
vertex $-1 $399 $511 #
point $-1 48.972712038080175 -45.733496894234513 6.5695532644855845 #
straight-curve $-1 -77.286294137394322 53.299404111177111 0 0 0 -1 I I #
point $-1 -77.286294137394322 -53.299404111177111 -15.84911874439727 #
straight-curve $-1 -77.286294137394322 0 -15.84911874439727 0 1 0 I I #
point $-1 -77.286294137394322 53.299404111177111 -15.84911874439727 #
coedge $-1 $428 $427 $420 $485 reversed $308 $-1 #
edge $-1 $486 -53.299404111177111 $488 53.299404111177111 $484 $512 forward 7 unknown #
vertex $-1 $485 $513 #
straight-curve $-1 0 -53.299404111177111 -15.84911874439727 -1 0 0 I I #
vertex $-1 $423 $514 #
straight-curve $-1 0 53.299404111177111 -15.84911874439727 1 0 0 I I #
point $-1 -58.279279476028876 53.299404111177111 -15.84911874439727 #
straight-curve $-1 -77.286294137394322 53.299404111177111 0 0 0 -1 I I #
straight-curve $-1 -77.286294137394322 -53.299404111177111 0 0 0 -1 I I #
edge $-1 $449 -77.286294137394322 $440 -58.279279476028861 $438 $515 forward 7 unknown #
straight-curve $-1 58.279279476028861 -53.299404111177111 -6.7429252696983966 0 0 -1 I I #
point $-1 58.279279476028861 -53.299404111177111 -15.84911874439727 #
straight-curve $-1 0 53.299404111177111 -15.84911874439727 1 0 0 I I #
straight-curve $-1 77.286294137394322 0 -15.84911874439727 0 -1 0 I I #
point $-1 77.286294137394322 -53.299404111177111 -15.84911874439727 #
point $-1 77.286294137394322 53.299404111177111 -15.84911874439727 #
straight-curve $-1 -4.8204714228483425 -92.19219727025623 15.849118744397266 0 1 0 I I #
point $-1 -4.8204714228483425 -53.299404111177111 15.84911874439727 #
straight-curve $-1 -7.6480697246369864 -43.966704473798458 15.84911874439727 -1 0 0 I I #
point $-1 -4.8204714228483425 -43.966704473798465 15.849118744397268 #
point $-1 -19.785711460599245 -44.461424738112932 5.7746743871588535 #
point $-1 -10.806567437948701 -44.461424738112932 5.7746743871588535 #
straight-curve $-1 53.458808053180526 -92.19219727025623 15.849118744397266 0 1 0 I I #
point $-1 53.458808053180526 -53.299404111177111 15.84911874439727 #
straight-curve $-1 21.491570013377448 -43.966704473798458 15.84911874439727 -1 0 0 I I #
point $-1 53.458808053180526 -43.966704473798465 15.849118744397268 #
point $-1 38.493568015429616 -44.461424738112932 5.7746743871588535 #
point $-1 47.472712038080175 -44.461424738112932 5.7746743871588535 #
straight-curve $-1 -77.286294137394322 0 -15.84911874439727 0 1 0 I I #
point $-1 -77.286294137394322 -53.299404111177111 -15.84911874439727 #
point $-1 -77.286294137394322 53.299404111177111 -15.84911874439727 #
straight-curve $-1 0 -53.299404111177111 -15.84911874439727 -1 0 0 I I #
End-of-ACIS-data 