500 0 10 0           
7 Unknown 11 ACIS 5.0 NT 24 Thu Mar 25 15:54:54 1999 
-1 9.9999999999999995e-007 1e-010 
body $-1 $10 $-1 $11 #
body $-1 $12 $-1 $13 #
body $-1 $14 $-1 $15 #
body $-1 $16 $-1 $17 #
body $-1 $18 $-1 $19 #
body $-1 $20 $-1 $21 #
body $-1 $22 $-1 $23 #
body $-1 $24 $-1 $25 #
body $-1 $26 $-1 $27 #
body $-1 $28 $-1 $29 #
lump $-1 $-1 $30 $0 #
transform $-1 1 0 0 0 1 0 0 0 1 68.346812341685222 39.965791737811209 13.552412541164637 1 rotate no_reflect no_shear #
lump $-1 $-1 $31 $1 #
transform $-1 1 0 0 0 1 0 0 0 1 68.346812341685222 39.965791737811209 13.552412541164637 1 rotate no_reflect no_shear #
lump $-1 $-1 $32 $2 #
transform $-1 1 0 0 0 1 0 0 0 1 68.346812341685222 39.965791737811209 13.552412541164637 1 rotate no_reflect no_shear #
lump $-1 $-1 $33 $3 #
transform $-1 1 0 0 0 1 0 0 0 1 68.346812341685222 39.965791737811209 13.552412541164637 1 rotate no_reflect no_shear #
lump $-1 $-1 $34 $4 #
transform $-1 1 0 0 0 1 0 0 0 1 68.346812341685222 39.965791737811209 13.552412541164637 1 rotate no_reflect no_shear #
lump $-1 $-1 $35 $5 #
transform $-1 1 0 0 0 1 0 0 0 1 68.346812341685222 39.965791737811209 13.552412541164637 1 rotate no_reflect no_shear #
lump $-1 $-1 $36 $6 #
transform $-1 1 0 0 0 1 0 0 0 1 68.346812341685222 39.965791737811209 13.552412541164637 1 rotate no_reflect no_shear #
lump $-1 $-1 $37 $7 #
transform $-1 1 0 0 0 1 0 0 0 1 68.346812341685222 39.965791737811209 13.552412541164637 1 rotate no_reflect no_shear #
lump $-1 $-1 $38 $8 #
transform $-1 1 0 0 0 1 0 0 0 1 68.346812341685222 39.965791737811209 13.552412541164637 1 rotate no_reflect no_shear #
lump $-1 $-1 $39 $9 #
transform $-1 1 0 0 0 1 0 0 0 1 68.346812341685222 39.965791737811209 13.552412541164637 1 rotate no_reflect no_shear #
shell $-1 $-1 $-1 $40 $-1 $10 #
shell $-1 $-1 $-1 $41 $-1 $12 #
shell $-1 $-1 $-1 $42 $-1 $14 #
shell $-1 $-1 $-1 $43 $-1 $16 #
shell $-1 $-1 $-1 $44 $-1 $18 #
shell $-1 $-1 $-1 $45 $-1 $20 #
shell $-1 $-1 $-1 $46 $-1 $22 #
shell $-1 $-1 $-1 $47 $-1 $24 #
shell $-1 $-1 $-1 $48 $-1 $26 #
shell $-1 $-1 $-1 $49 $-1 $28 #
face $-1 $50 $51 $30 $-1 $52 forward single #
face $-1 $53 $54 $31 $-1 $55 forward single #
face $-1 $56 $57 $32 $-1 $58 reversed single #
face $-1 $59 $60 $33 $-1 $61 forward single #
face $-1 $62 $63 $34 $-1 $64 reversed single #
face $-1 $65 $66 $35 $-1 $67 forward single #
face $-1 $68 $69 $36 $-1 $70 reversed single #
face $-1 $71 $72 $37 $-1 $73 forward single #
face $-1 $74 $75 $38 $-1 $76 reversed single #
face $-1 $77 $78 $39 $-1 $79 forward single #
face $-1 $80 $81 $30 $-1 $82 reversed single #
loop $-1 $-1 $83 $40 #
plane-surface $-1 0 0 13.552412541164637 0 0 1 1 0 0 forward_v I I I I #
face $-1 $84 $85 $31 $-1 $86 reversed single #
loop $-1 $-1 $87 $41 #
plane-surface $-1 0 -31.703502033254722 -8.3600025700263245 0 0 1 1 0 0 forward_v I I I I #
face $-1 $88 $89 $32 $-1 $90 reversed single #
loop $-1 $-1 $91 $42 #
plane-surface $-1 -58.111899068874735 50.137612060608738 158.37718345668509 1 0 0 0 -0.55919291073839883 -0.82903756765294845 forward_v I I I I #
face $-1 $92 $93 $33 $-1 $94 forward single #
loop $-1 $95 $96 $43 #
cone-surface $-1 -48.855397859132552 29.018366291332711 5.2268368801995093 0 -0.55919291073839883 -0.82903756765294845 4 0 0 1 I I 0 1 4 forward I I I I #
face $-1 $97 $98 $34 $-1 $99 reversed single #
loop $-1 $-1 $100 $44 #
plane-surface $-1 -25.541633829453037 50.137612060608738 158.37718345668509 1 0 0 0 -0.55919291073839883 -0.82903756765294845 forward_v I I I I #
face $-1 $101 $102 $35 $-1 $103 forward single #
loop $-1 $104 $105 $45 #
cone-surface $-1 -16.285132619710851 29.018366291332711 5.2268368801995093 0 -0.55919291073839883 -0.82903756765294845 4 0 0 1 I I 0 1 4 forward I I I I #
face $-1 $106 $107 $36 $-1 $108 reversed single #
loop $-1 $-1 $109 $46 #
plane-surface $-1 7.0286314099686642 50.137612060608738 158.37718345668509 1 0 0 0 -0.55919291073839883 -0.82903756765294845 forward_v I I I I #
face $-1 $110 $111 $37 $-1 $112 forward single #
loop $-1 $113 $114 $47 #
cone-surface $-1 16.285132619710851 29.018366291332711 5.2268368801995093 0 -0.55919291073839883 -0.82903756765294845 4 0 0 1 I I 0 1 4 forward I I I I #
face $-1 $115 $116 $38 $-1 $117 reversed single #
loop $-1 $-1 $118 $48 #
plane-surface $-1 39.598896649390369 50.137612060608738 158.37718345668509 1 0 0 0 -0.55919291073839883 -0.82903756765294845 forward_v I I I I #
face $-1 $119 $120 $39 $-1 $121 forward single #
loop $-1 $122 $123 $49 #
cone-surface $-1 48.855397859132552 29.018366291332711 5.2268368801995093 0 -0.55919291073839883 -0.82903756765294845 4 0 0 1 I I 0 1 4 forward I I I I #
face $-1 $124 $125 $30 $-1 $126 reversed single #
loop $-1 $-1 $127 $50 #
plane-surface $-1 0 0 -13.552412541164637 0 0 1 1 0 0 forward_v I I I I #
coedge $-1 $128 $129 $130 $131 forward $51 $-1 #
face $-1 $132 $133 $31 $-1 $134 reversed single #
loop $-1 $-1 $135 $53 #
plane-surface $-1 0 -23.441212328698235 -10.95620755559548 0 -1 0 0 0 -1 forward_v I I I I #
coedge $-1 $136 $137 $138 $139 reversed $54 $-1 #
face $-1 $140 $141 $32 $-1 $142 reversed single #
loop $-1 $-1 $143 $56 #
plane-surface $-1 -48.855397859132552 -26.300493805467418 45.05303333551862 0 0.55919291073839883 0.82903756765294845 1 0 0 forward_v I I I I #
coedge $-1 $144 $145 $146 $147 reversed $57 $-1 #
face $-1 $-1 $148 $33 $-1 $149 forward single #
loop $-1 $150 $151 $59 #
cone-surface $-1 -48.855397859132552 26.734902799757627 1.8414630985827873 0 -0.55919291073839883 -0.82903756765294845 2 0 0 1 I I -0.70710678118654768 0.70710678118654735 2 forward I I I I #
loop $-1 $-1 $152 $43 #
coedge $-1 $96 $96 $153 $154 reversed $60 $-1 #
face $-1 $155 $156 $34 $-1 $157 reversed single #
loop $-1 $-1 $158 $62 #
plane-surface $-1 -16.285132619710851 -26.300493805467418 45.05303333551862 0 0.55919291073839883 0.82903756765294845 1 0 0 forward_v I I I I #
coedge $-1 $159 $160 $161 $162 reversed $63 $-1 #
face $-1 $-1 $163 $35 $-1 $164 forward single #
loop $-1 $165 $166 $65 #
cone-surface $-1 -16.285132619710851 26.734902799757627 1.8414630985827873 0 -0.55919291073839883 -0.82903756765294845 2 0 0 1 I I -0.70710678118654768 0.70710678118654735 2 forward I I I I #
loop $-1 $-1 $167 $45 #
coedge $-1 $105 $105 $168 $169 reversed $66 $-1 #
face $-1 $170 $171 $36 $-1 $172 reversed single #
loop $-1 $-1 $173 $68 #
plane-surface $-1 16.285132619710851 -26.300493805467418 45.05303333551862 0 0.55919291073839883 0.82903756765294845 1 0 0 forward_v I I I I #
coedge $-1 $174 $175 $176 $177 reversed $69 $-1 #
face $-1 $-1 $178 $37 $-1 $179 forward single #
loop $-1 $180 $181 $71 #
cone-surface $-1 16.285132619710851 26.734902799757627 1.8414630985827873 0 -0.55919291073839883 -0.82903756765294845 2 0 0 1 I I -0.70710678118654768 0.70710678118654735 2 forward I I I I #
loop $-1 $-1 $182 $47 #
coedge $-1 $114 $114 $183 $184 reversed $72 $-1 #
face $-1 $185 $186 $38 $-1 $187 reversed single #
loop $-1 $-1 $188 $74 #
plane-surface $-1 48.855397859132552 -26.300493805467418 45.05303333551862 0 0.55919291073839883 0.82903756765294845 1 0 0 forward_v I I I I #
coedge $-1 $189 $190 $191 $192 reversed $75 $-1 #
face $-1 $-1 $193 $39 $-1 $194 forward single #
loop $-1 $195 $196 $77 #
cone-surface $-1 48.855397859132552 26.734902799757627 1.8414630985827873 0 -0.55919291073839883 -0.82903756765294845 2 0 0 1 I I -0.70710678118654768 0.70710678118654735 2 forward I I I I #
loop $-1 $-1 $197 $49 #
coedge $-1 $123 $123 $198 $199 reversed $78 $-1 #
face $-1 $200 $201 $30 $-1 $202 reversed single #
loop $-1 $-1 $203 $80 #
plane-surface $-1 0 -39.965791737811209 0 0 1 0 0 0 1 forward_v I I I I #
coedge $-1 $204 $205 $206 $207 forward $81 $-1 #
coedge $-1 $208 $83 $209 $210 forward $51 $-1 #
coedge $-1 $83 $208 $211 $212 forward $51 $-1 #
coedge $-1 $213 $214 $83 $131 reversed $215 $-1 #
edge $-1 $216 -39.965791737811209 $217 39.965791737811209 $130 $218 forward 7 unknown #
face $-1 $219 $220 $31 $-1 $221 reversed single #
loop $-1 $-1 $222 $84 #
plane-surface $-1 0 0 -13.552412541164637 0 0 1 1 0 0 forward_v I I I I #
coedge $-1 $223 $224 $225 $226 reversed $85 $-1 #
coedge $-1 $227 $87 $224 $228 forward $54 $-1 #
coedge $-1 $87 $227 $229 $230 reversed $54 $-1 #
coedge $-1 $231 $225 $87 $139 forward $220 $-1 #
edge $-1 $232 7.589461312070874 $233 24.114040721183848 $138 $234 forward 7 unknown #
face $-1 $235 $236 $32 $-1 $237 reversed single #
loop $-1 $-1 $238 $88 #
plane-surface $-1 -39.598896649390369 50.137612060608738 158.37718345668509 -1 0 0 0 0.55919291073839883 0.82903756765294845 forward_v I I I I #
coedge $-1 $239 $240 $241 $242 reversed $89 $-1 #
coedge $-1 $145 $91 $243 $244 reversed $57 $-1 #
coedge $-1 $91 $144 $239 $245 reversed $57 $-1 #
coedge $-1 $241 $246 $91 $147 forward $247 $-1 #
edge $-1 $248 -14.89698570750684 $249 4.6677098452536363 $146 $250 forward 7 unknown #
loop $-1 $-1 $153 $92 #
plane-surface $-1 -48.855397859132552 -26.300493805467418 45.05303333551862 0 0.55919291073839883 0.82903756765294845 1 0 0 forward_v I I I I #
loop $-1 $-1 $251 $59 #
coedge $-1 $151 $151 $152 $252 reversed $93 $-1 #
coedge $-1 $152 $152 $151 $252 forward $95 $-1 #
coedge $-1 $153 $153 $96 $154 forward $148 $-1 #
edge $-1 $253 2.1368619012083244e-016 $253 6.2831853071796004 $153 $254 forward 7 unknown #
face $-1 $255 $256 $34 $-1 $257 forward single #
loop $-1 $-1 $258 $97 #
plane-surface $-1 -7.0286314099686642 50.137612060608738 158.37718345668509 -1 0 0 0 0.55919291073839883 0.82903756765294845 forward_v I I I I #
coedge $-1 $259 $260 $261 $262 reversed $98 $-1 #
coedge $-1 $160 $100 $263 $264 reversed $63 $-1 #
coedge $-1 $100 $159 $259 $265 reversed $63 $-1 #
coedge $-1 $261 $266 $100 $162 forward $256 $-1 #
edge $-1 $267 -14.89698570750684 $268 4.6677098452536363 $161 $269 forward 7 unknown #
loop $-1 $-1 $168 $101 #
plane-surface $-1 -16.285132619710851 -26.300493805467418 45.05303333551862 0 0.55919291073839883 0.82903756765294845 1 0 0 forward_v I I I I #
loop $-1 $-1 $270 $65 #
coedge $-1 $166 $166 $167 $271 reversed $102 $-1 #
coedge $-1 $167 $167 $166 $271 forward $104 $-1 #
coedge $-1 $168 $168 $105 $169 forward $163 $-1 #
edge $-1 $272 2.1368619012083244e-016 $272 6.2831853071796004 $168 $273 forward 7 unknown #
face $-1 $274 $275 $36 $-1 $276 forward single #
loop $-1 $-1 $277 $106 #
plane-surface $-1 25.541633829453037 50.137612060608738 158.37718345668509 -1 0 0 0 0.55919291073839883 0.82903756765294845 forward_v I I I I #
coedge $-1 $278 $279 $280 $281 reversed $107 $-1 #
coedge $-1 $175 $109 $282 $283 reversed $69 $-1 #
coedge $-1 $109 $174 $278 $284 reversed $69 $-1 #
coedge $-1 $280 $285 $109 $177 forward $275 $-1 #
edge $-1 $286 -14.89698570750684 $287 4.6677098452536363 $176 $288 forward 7 unknown #
loop $-1 $-1 $183 $110 #
plane-surface $-1 16.285132619710851 -26.300493805467418 45.05303333551862 0 0.55919291073839883 0.82903756765294845 1 0 0 forward_v I I I I #
loop $-1 $-1 $289 $71 #
coedge $-1 $181 $181 $182 $290 reversed $111 $-1 #
coedge $-1 $182 $182 $181 $290 forward $113 $-1 #
coedge $-1 $183 $183 $114 $184 forward $178 $-1 #
edge $-1 $291 2.1368619012083244e-016 $291 6.2831853071796004 $183 $292 forward 7 unknown #
face $-1 $293 $294 $38 $-1 $295 forward single #
loop $-1 $-1 $296 $115 #
plane-surface $-1 58.111899068874735 50.137612060608738 158.37718345668509 -1 0 0 0 0.55919291073839883 0.82903756765294845 forward_v I I I I #
coedge $-1 $297 $298 $299 $300 reversed $116 $-1 #
coedge $-1 $190 $118 $301 $302 reversed $75 $-1 #
coedge $-1 $118 $189 $297 $303 reversed $75 $-1 #
coedge $-1 $299 $304 $118 $192 forward $294 $-1 #
edge $-1 $305 -14.89698570750684 $306 4.6677098452536363 $191 $307 forward 7 unknown #
loop $-1 $-1 $198 $119 #
plane-surface $-1 48.855397859132552 -26.300493805467418 45.05303333551862 0 0.55919291073839883 0.82903756765294845 1 0 0 forward_v I I I I #
loop $-1 $-1 $308 $77 #
coedge $-1 $196 $196 $197 $309 reversed $120 $-1 #
coedge $-1 $197 $197 $196 $309 forward $122 $-1 #
coedge $-1 $198 $198 $123 $199 forward $193 $-1 #
edge $-1 $310 2.1368619012083244e-016 $310 6.2831853071796004 $198 $311 forward 7 unknown #
face $-1 $312 $313 $30 $-1 $314 reversed single #
loop $-1 $-1 $315 $124 #
plane-surface $-1 -68.346812341685222 0 0 1 0 0 0 0 -1 forward_v I I I I #
coedge $-1 $316 $211 $317 $318 forward $125 $-1 #
coedge $-1 $319 $127 $316 $320 forward $81 $-1 #
coedge $-1 $127 $319 $321 $322 forward $81 $-1 #
coedge $-1 $214 $213 $127 $207 reversed $215 $-1 #
edge $-1 $323 -39.965791737811209 $324 39.965791737811209 $206 $325 forward 7 unknown #
coedge $-1 $129 $128 $326 $327 forward $51 $-1 #
coedge $-1 $328 $329 $128 $210 reversed $313 $-1 #
edge $-1 $217 -68.346812341685222 $330 68.346812341685222 $209 $331 forward 7 unknown #
coedge $-1 $203 $332 $129 $212 reversed $125 $-1 #
edge $-1 $333 -68.346812341685222 $216 68.346812341685222 $211 $334 forward 7 unknown #
coedge $-1 $206 $130 $332 $335 forward $215 $-1 #
coedge $-1 $130 $206 $328 $336 reversed $215 $-1 #
loop $-1 $-1 $213 $312 #
vertex $-1 $131 $337 #
vertex $-1 $131 $338 #
straight-curve $-1 68.346812341685222 0 13.552412541164637 0 1 0 I I #
face $-1 $339 $340 $31 $-1 $341 reversed single #
loop $-1 $-1 $225 $132 #
plane-surface $-1 68.346812341685222 0 0 -1 0 0 0 0 1 forward_v I I I I #
coedge $-1 $342 $343 $223 $344 forward $133 $-1 #
coedge $-1 $345 $135 $222 $344 reversed $85 $-1 #
coedge $-1 $135 $345 $136 $228 reversed $85 $-1 #
coedge $-1 $138 $346 $135 $226 forward $220 $-1 #
edge $-1 $347 -8.0743087633668953 $232 -2.8818987922285846 $225 $348 forward 7 unknown #
coedge $-1 $137 $136 $349 $350 reversed $54 $-1 #
edge $-1 $232 -68.346812341685222 $351 68.346812341685222 $224 $352 forward 7 unknown #
coedge $-1 $353 $354 $137 $230 forward $340 $-1 #
edge $-1 $233 -68.346812341685222 $355 68.346812341685222 $229 $356 forward 7 unknown #
coedge $-1 $346 $138 $354 $357 forward $220 $-1 #
vertex $-1 $139 $358 #
vertex $-1 $357 $359 #
straight-curve $-1 68.346812341685222 -15.851751016627361 -8.3600025700263245 0 -1 0 I I #
face $-1 $-1 $247 $32 $-1 $360 forward single #
loop $-1 $-1 $361 $140 #
plane-surface $-1 0 39.965791737811209 0 0 -1 0 0 0 -1 forward_v I I I I #
coedge $-1 $362 $363 $364 $365 reversed $141 $-1 #
coedge $-1 $366 $143 $145 $245 forward $89 $-1 #
coedge $-1 $143 $366 $362 $367 forward $89 $-1 #
coedge $-1 $364 $146 $143 $242 forward $247 $-1 #
edge $-1 $249 -33.684200139308459 $368 -15.171197719824093 $241 $369 forward 7 unknown #
coedge $-1 $370 $371 $144 $244 forward $236 $-1 #
edge $-1 $372 -78.832733216486531 $248 -65.636179187177902 $243 $373 forward 7 unknown #
edge $-1 $249 56.332296403325792 $372 79.931583475622432 $145 $374 forward 7 unknown #
coedge $-1 $146 $364 $370 $375 forward $247 $-1 #
loop $-1 $-1 $364 $235 #
vertex $-1 $244 $376 #
vertex $-1 $147 $377 #
straight-curve $-1 -58.111899068874735 25.068806030304369 13.552412541164642 0 -1 0 I I #
coedge $-1 $251 $251 $-1 $378 reversed $150 $-1 #
edge $-1 $379 0 $379 6.2831853071796004 $151 $380 forward 7 unknown #
vertex $-1 $154 $381 #
ellipse-curve $-1 -48.855397859132552 30.183443961430982 6.9541355265103144 0 0.55919291073839883 0.82903756765294845 4 0 0 1 I I #
face $-1 $-1 $382 $34 $-1 $383 reversed single #
loop $-1 $-1 $161 $155 #
plane-surface $-1 0 0 13.552412541164637 0 0 1 1 0 0 forward_v I I I I #
coedge $-1 $384 $385 $386 $387 reversed $156 $-1 #
coedge $-1 $388 $158 $160 $265 forward $98 $-1 #
coedge $-1 $158 $388 $384 $389 forward $98 $-1 #
coedge $-1 $386 $161 $158 $262 forward $256 $-1 #
edge $-1 $268 -17.399067519597612 $390 1.1139348998867611 $261 $391 forward 7 unknown #
coedge $-1 $392 $393 $159 $264 forward $382 $-1 #
edge $-1 $394 -78.832733216486531 $267 -65.636179187177902 $263 $395 forward 7 unknown #
edge $-1 $268 56.332296403325792 $394 79.931583475622432 $160 $396 forward 7 unknown #
coedge $-1 $161 $386 $392 $397 forward $256 $-1 #
vertex $-1 $162 $398 #
vertex $-1 $162 $399 #
straight-curve $-1 -25.541633829453037 25.068806030304369 13.552412541164642 0 -1 0 I I #
coedge $-1 $270 $270 $-1 $400 reversed $165 $-1 #
edge $-1 $401 0 $401 6.2831853071796004 $166 $402 forward 7 unknown #
vertex $-1 $169 $403 #
ellipse-curve $-1 -16.285132619710851 30.183443961430982 6.9541355265103144 0 0.55919291073839883 0.82903756765294845 4 0 0 1 I I #
face $-1 $-1 $404 $36 $-1 $405 reversed single #
loop $-1 $-1 $176 $170 #
plane-surface $-1 0 0 13.552412541164637 0 0 1 1 0 0 forward_v I I I I #
coedge $-1 $406 $407 $408 $409 reversed $171 $-1 #
coedge $-1 $410 $173 $175 $284 forward $107 $-1 #
coedge $-1 $173 $410 $406 $411 forward $107 $-1 #
coedge $-1 $408 $176 $173 $281 forward $275 $-1 #
edge $-1 $287 -1.1139348998867611 $412 17.399067519597612 $280 $413 forward 7 unknown #
coedge $-1 $414 $415 $174 $283 forward $404 $-1 #
edge $-1 $416 -78.832733216486531 $286 -65.636179187177902 $282 $417 forward 7 unknown #
edge $-1 $287 56.332296403325792 $416 79.931583475622432 $175 $418 forward 7 unknown #
coedge $-1 $176 $408 $414 $419 forward $275 $-1 #
vertex $-1 $177 $420 #
vertex $-1 $177 $421 #
straight-curve $-1 7.0286314099686642 25.068806030304369 13.552412541164642 0 -1 0 I I #
coedge $-1 $289 $289 $-1 $422 reversed $180 $-1 #
edge $-1 $423 0 $423 6.2831853071796004 $181 $424 forward 7 unknown #
vertex $-1 $184 $425 #
ellipse-curve $-1 16.285132619710851 30.183443961430982 6.9541355265103144 0 0.55919291073839883 0.82903756765294845 4 0 0 1 I I #
face $-1 $-1 $426 $38 $-1 $427 reversed single #
loop $-1 $-1 $191 $185 #
plane-surface $-1 0 0 13.552412541164637 0 0 1 1 0 0 forward_v I I I I #
coedge $-1 $428 $429 $430 $431 reversed $186 $-1 #
coedge $-1 $432 $188 $190 $303 forward $116 $-1 #
coedge $-1 $188 $432 $428 $433 forward $116 $-1 #
coedge $-1 $430 $191 $188 $300 forward $294 $-1 #
edge $-1 $306 15.171197719824093 $434 33.684200139308459 $299 $435 forward 7 unknown #
coedge $-1 $436 $437 $189 $302 forward $426 $-1 #
edge $-1 $438 -78.832733216486531 $305 -65.636179187177902 $301 $439 forward 7 unknown #
edge $-1 $306 56.332296403325792 $438 79.931583475622432 $190 $440 forward 7 unknown #
coedge $-1 $191 $430 $436 $441 forward $294 $-1 #
vertex $-1 $192 $442 #
vertex $-1 $192 $443 #
straight-curve $-1 39.598896649390369 25.068806030304369 13.552412541164642 0 -1 0 I I #
coedge $-1 $308 $308 $-1 $444 reversed $195 $-1 #
edge $-1 $445 0 $445 6.2831853071796004 $196 $446 forward 7 unknown #
vertex $-1 $199 $447 #
ellipse-curve $-1 48.855397859132552 30.183443961430982 6.9541355265103144 0 0.55919291073839883 0.82903756765294845 4 0 0 1 I I #
face $-1 $-1 $215 $30 $-1 $448 reversed single #
loop $-1 $-1 $328 $200 #
plane-surface $-1 0 39.965791737811209 0 0 -1 0 0 0 -1 forward_v I I I I #
coedge $-1 $449 $326 $329 $450 forward $201 $-1 #
coedge $-1 $332 $203 $204 $320 reversed $125 $-1 #
coedge $-1 $326 $449 $203 $318 reversed $201 $-1 #
edge $-1 $333 -13.552412541164637 $451 13.552412541164637 $317 $452 forward 7 unknown #
coedge $-1 $205 $204 $449 $453 forward $81 $-1 #
edge $-1 $324 -68.346812341685222 $451 68.346812341685222 $316 $454 forward 7 unknown #
coedge $-1 $329 $328 $205 $322 reversed $313 $-1 #
edge $-1 $455 -68.346812341685222 $323 68.346812341685222 $321 $456 forward 7 unknown #
vertex $-1 $207 $457 #
vertex $-1 $335 $458 #
straight-curve $-1 68.346812341685222 0 -13.552412541164637 0 -1 0 I I #
coedge $-1 $315 $317 $208 $327 reversed $201 $-1 #
edge $-1 $330 -39.965791737811209 $333 39.965791737811209 $326 $459 forward 7 unknown #
coedge $-1 $321 $209 $214 $336 forward $313 $-1 #
coedge $-1 $209 $321 $315 $450 reversed $313 $-1 #
vertex $-1 $210 $460 #
straight-curve $-1 0 39.965791737811209 13.552412541164637 -1 0 0 I I #
coedge $-1 $211 $316 $213 $335 reversed $125 $-1 #
vertex $-1 $327 $461 #
straight-curve $-1 0 -39.965791737811209 13.552412541164637 1 0 0 I I #
edge $-1 $216 -13.552412541164637 $324 13.552412541164637 $213 $462 forward 7 unknown #
edge $-1 $217 -13.552412541164637 $323 13.552412541164637 $214 $463 forward 7 unknown #
point $-1 68.346812341685222 -39.965791737811209 13.552412541164637 #
point $-1 68.346812341685222 39.965791737811209 13.552412541164637 #
face $-1 $-1 $464 $31 $-1 $465 reversed single #
loop $-1 $-1 $229 $219 #
plane-surface $-1 0 -39.965791737811209 0 0 1 0 0 0 1 forward_v I I I I #
coedge $-1 $466 $222 $346 $467 forward $133 $-1 #
coedge $-1 $222 $466 $468 $469 forward $133 $-1 #
edge $-1 $470 -68.346812341685222 $347 68.346812341685222 $222 $471 forward 7 unknown #
coedge $-1 $224 $223 $472 $473 reversed $85 $-1 #
coedge $-1 $225 $231 $342 $467 reversed $220 $-1 #
vertex $-1 $467 $474 #
straight-curve $-1 68.346812341685222 -23.441212328698235 -5.4781037777977399 0 0 1 I I #
coedge $-1 $472 $475 $227 $350 forward $464 $-1 #
edge $-1 $355 -24.114040721183848 $351 -7.589461312070874 $349 $476 forward 7 unknown #
vertex $-1 $350 $477 #
straight-curve $-1 0 -23.441212328698235 -8.3600025700263245 -1 0 0 I I #
coedge $-1 $478 $229 $475 $479 forward $340 $-1 #
coedge $-1 $229 $478 $231 $357 reversed $340 $-1 #
vertex $-1 $479 $480 #
straight-curve $-1 0 -39.965791737811209 -8.3600025700263245 -1 0 0 I I #
edge $-1 $233 8.3600025700263245 $481 13.552412541164637 $231 $482 forward 7 unknown #
point $-1 68.346812341685222 -23.441212328698235 -8.3600025700263245 #
point $-1 68.346812341685222 -39.965791737811209 -8.3600025700263245 #
plane-surface $-1 0 0 13.552412541164637 0 0 1 1 0 0 forward_v I I I I #
coedge $-1 $371 $370 $363 $483 forward $236 $-1 #
coedge $-1 $363 $238 $240 $367 reversed $141 $-1 #
coedge $-1 $238 $362 $361 $483 reversed $141 $-1 #
coedge $-1 $246 $241 $238 $365 forward $247 $-1 #
edge $-1 $368 -4.6677098452536363 $484 14.89698570750684 $364 $485 forward 7 unknown #
coedge $-1 $240 $239 $371 $486 reversed $89 $-1 #
edge $-1 $487 -79.931583475622432 $368 -56.332296403325792 $362 $488 forward 7 unknown #
vertex $-1 $242 $489 #
straight-curve $-1 -24.427698929566276 20.401096185050733 13.552412541164635 1 0 0 I I #
coedge $-1 $361 $243 $246 $375 reversed $236 $-1 #
coedge $-1 $243 $361 $366 $486 forward $236 $-1 #
vertex $-1 $244 $490 #
straight-curve $-1 -58.111899068874735 39.965791737811209 79.188591728342544 0 0 1 I I #
straight-curve $-1 -58.111899068874735 -26.300493805467418 45.05303333551862 0 0.82903756765294845 -0.55919291073839883 I I #
edge $-1 $484 39.598896649390369 $248 58.111899068874735 $370 $491 forward 7 unknown #
point $-1 -58.111899068874735 39.965791737811209 13.552412541164637 #
point $-1 -58.111899068874735 20.401096185050733 13.552412541164635 #
edge $-1 $492 1 $492 0 $251 $-1 forward 7 unknown #
vertex $-1 $252 $493 #
ellipse-curve $-1 -48.855397859132552 27.853288621234423 3.4995382338886838 0 0.55919291073839883 0.82903756765294845 4 0 0 1 I I #
point $-1 -44.855397859132552 30.183443961430996 6.954135526510334 #
loop $-1 $-1 $263 $255 #
plane-surface $-1 0 39.965791737811209 0 0 -1 0 0 0 -1 forward_v I I I I #
coedge $-1 $385 $258 $260 $389 reversed $156 $-1 #
coedge $-1 $258 $384 $494 $495 reversed $156 $-1 #
coedge $-1 $266 $261 $258 $387 forward $256 $-1 #
edge $-1 $390 -4.6677098452536363 $496 14.89698570750684 $386 $497 forward 7 unknown #
coedge $-1 $260 $259 $393 $498 reversed $98 $-1 #
edge $-1 $499 -79.931583475622432 $390 -56.332296403325792 $384 $500 forward 7 unknown #
vertex $-1 $262 $501 #
straight-curve $-1 -8.1425663098554253 20.401096185050733 13.552412541164635 1 0 0 I I #
coedge $-1 $494 $263 $266 $397 reversed $382 $-1 #
coedge $-1 $263 $494 $388 $498 forward $382 $-1 #
vertex $-1 $264 $502 #
straight-curve $-1 -25.541633829453037 39.965791737811209 79.188591728342544 0 0 1 I I #
straight-curve $-1 -25.541633829453037 -26.300493805467418 45.05303333551862 0 0.82903756765294845 -0.55919291073839883 I I #
edge $-1 $496 7.0286314099686642 $267 25.541633829453037 $392 $503 forward 7 unknown #
point $-1 -25.541633829453037 39.965791737811209 13.552412541164637 #
point $-1 -25.541633829453037 20.401096185050733 13.552412541164635 #
edge $-1 $504 1 $504 0 $270 $-1 forward 7 unknown #
vertex $-1 $271 $505 #
ellipse-curve $-1 -16.285132619710851 27.853288621234423 3.4995382338886838 0 0.55919291073839883 0.82903756765294845 4 0 0 1 I I #
point $-1 -12.285132619710851 30.183443961430996 6.954135526510334 #
loop $-1 $-1 $282 $274 #
plane-surface $-1 0 39.965791737811209 0 0 -1 0 0 0 -1 forward_v I I I I #
coedge $-1 $407 $277 $279 $411 reversed $171 $-1 #
coedge $-1 $277 $406 $506 $507 reversed $171 $-1 #
coedge $-1 $285 $280 $277 $409 forward $275 $-1 #
edge $-1 $412 -4.6677098452536363 $508 14.89698570750684 $408 $509 forward 7 unknown #
coedge $-1 $279 $278 $415 $510 reversed $107 $-1 #
edge $-1 $511 -79.931583475622432 $412 -56.332296403325792 $406 $512 forward 7 unknown #
vertex $-1 $281 $513 #
straight-curve $-1 8.1425663098554253 20.401096185050733 13.552412541164635 1 0 0 I I #
coedge $-1 $506 $282 $285 $419 reversed $404 $-1 #
coedge $-1 $282 $506 $410 $510 forward $404 $-1 #
vertex $-1 $283 $514 #
straight-curve $-1 7.0286314099686642 39.965791737811209 79.188591728342544 0 0 1 I I #
straight-curve $-1 7.0286314099686642 -26.300493805467418 45.05303333551862 0 0.82903756765294845 -0.55919291073839883 I I #
edge $-1 $508 -25.541633829453037 $286 -7.0286314099686642 $414 $515 forward 7 unknown #
point $-1 7.0286314099686642 39.965791737811209 13.552412541164637 #
point $-1 7.0286314099686642 20.401096185050733 13.552412541164635 #
edge $-1 $516 1 $516 0 $289 $-1 forward 7 unknown #
vertex $-1 $290 $517 #
ellipse-curve $-1 16.285132619710851 27.853288621234423 3.4995382338886838 0 0.55919291073839883 0.82903756765294845 4 0 0 1 I I #
point $-1 20.285132619710851 30.183443961430996 6.954135526510334 #
loop $-1 $-1 $301 $293 #
plane-surface $-1 0 39.965791737811209 0 0 -1 0 0 0 -1 forward_v I I I I #
coedge $-1 $429 $296 $298 $433 reversed $186 $-1 #
coedge $-1 $296 $428 $518 $519 reversed $186 $-1 #
coedge $-1 $304 $299 $296 $431 forward $294 $-1 #
edge $-1 $434 -4.6677098452536363 $520 14.89698570750684 $430 $521 forward 7 unknown #
coedge $-1 $298 $297 $437 $522 reversed $116 $-1 #
edge $-1 $523 -79.931583475622432 $434 -56.332296403325792 $428 $524 forward 7 unknown #
vertex $-1 $300 $525 #
straight-curve $-1 24.427698929566276 20.401096185050733 13.552412541164635 1 0 0 I I #
coedge $-1 $518 $301 $304 $441 reversed $426 $-1 #
coedge $-1 $301 $518 $432 $522 forward $426 $-1 #
vertex $-1 $302 $526 #
straight-curve $-1 39.598896649390369 39.965791737811209 79.188591728342544 0 0 1 I I #
straight-curve $-1 39.598896649390369 -26.300493805467418 45.05303333551862 0 0.82903756765294845 -0.55919291073839883 I I #
edge $-1 $520 -58.111899068874735 $305 -39.598896649390369 $436 $527 forward 7 unknown #
point $-1 39.598896649390369 39.965791737811209 13.552412541164637 #
point $-1 39.598896649390369 20.401096185050733 13.552412541164635 #
edge $-1 $528 1 $528 0 $308 $-1 forward 7 unknown #
vertex $-1 $309 $529 #
ellipse-curve $-1 48.855397859132552 27.853288621234423 3.4995382338886838 0 0.55919291073839883 0.82903756765294845 4 0 0 1 I I #
point $-1 52.855397859132552 30.183443961430996 6.954135526510334 #
plane-surface $-1 68.346812341685222 0 0 -1 0 0 0 0 1 forward_v I I I I #
coedge $-1 $317 $315 $319 $453 reversed $201 $-1 #
edge $-1 $330 -13.552412541164637 $455 13.552412541164637 $329 $530 forward 7 unknown #
vertex $-1 $453 $531 #
straight-curve $-1 -68.346812341685222 -39.965791737811209 0 0 0 -1 I I #
edge $-1 $451 -39.965791737811209 $455 39.965791737811209 $449 $532 forward 7 unknown #
straight-curve $-1 0 -39.965791737811209 -13.552412541164637 -1 0 0 I I #
vertex $-1 $322 $533 #
straight-curve $-1 0 39.965791737811209 -13.552412541164637 1 0 0 I I #
point $-1 68.346812341685222 39.965791737811209 -13.552412541164637 #
point $-1 68.346812341685222 -39.965791737811209 -13.552412541164637 #
straight-curve $-1 -68.346812341685222 0 13.552412541164637 0 -1 0 I I #
point $-1 -68.346812341685222 39.965791737811209 13.552412541164637 #
point $-1 -68.346812341685222 -39.965791737811209 13.552412541164637 #
straight-curve $-1 68.346812341685222 -39.965791737811209 0 0 0 -1 I I #
straight-curve $-1 68.346812341685222 39.965791737811209 0 0 0 -1 I I #
loop $-1 $-1 $472 $339 #
plane-surface $-1 -68.346812341685222 0 0 1 0 0 0 0 -1 forward_v I I I I #
coedge $-1 $343 $342 $478 $534 forward $133 $-1 #
edge $-1 $347 23.441212328698235 $481 39.965791737811209 $346 $535 forward 7 unknown #
coedge $-1 $475 $472 $343 $469 reversed $464 $-1 #
edge $-1 $536 -39.965791737811209 $470 -23.441212328698235 $468 $537 forward 7 unknown #
vertex $-1 $473 $538 #
straight-curve $-1 0 -23.441212328698235 -13.552412541164637 1 0 0 I I #
coedge $-1 $468 $349 $345 $473 forward $464 $-1 #
edge $-1 $351 2.8818987922285846 $470 8.0743087633668953 $472 $539 forward 7 unknown #
point $-1 68.346812341685222 -23.441212328698235 -13.552412541164635 #
coedge $-1 $349 $468 $353 $479 reversed $464 $-1 #
straight-curve $-1 -68.346812341685222 -15.851751016627361 -8.3600025700263245 0 1 0 I I #
point $-1 -68.346812341685222 -23.441212328698235 -8.3600025700263245 #
coedge $-1 $354 $353 $466 $534 reversed $340 $-1 #
edge $-1 $355 8.3600025700263245 $536 13.552412541164637 $475 $540 forward 7 unknown #
point $-1 -68.346812341685222 -39.965791737811209 -8.3600025700263245 #
vertex $-1 $357 $541 #
straight-curve $-1 68.346812341685222 -39.965791737811209 0 0 0 -1 I I #
edge $-1 $484 65.636179187177902 $487 78.832733216486531 $361 $542 forward 7 unknown #
vertex $-1 $375 $543 #
straight-curve $-1 -39.598896649390369 25.068806030304369 13.552412541164642 0 1 0 I I #
edge $-1 $487 15.171197719824093 $372 33.684200139308459 $371 $544 forward 7 unknown #
vertex $-1 $486 $545 #
straight-curve $-1 -39.598896649390369 -26.300493805467418 45.05303333551862 0 -0.82903756765294845 0.55919291073839883 I I #
point $-1 -39.598896649390369 20.401096185050733 13.552412541164635 #
point $-1 -58.111899068874735 39.965791737811209 0.35585851185601314 #
straight-curve $-1 0 39.965791737811209 13.552412541164637 -1 0 0 I I #
vertex $-1 $378 $546 #
point $-1 -44.855397859132552 27.853288621234423 3.4995382338886838 #
coedge $-1 $393 $392 $385 $495 forward $382 $-1 #
edge $-1 $496 65.636179187177902 $499 78.832733216486531 $494 $547 forward 7 unknown #
vertex $-1 $397 $548 #
straight-curve $-1 -7.0286314099686642 25.068806030304369 13.552412541164642 0 1 0 I I #
edge $-1 $499 -1.1139348998867611 $394 17.399067519597612 $393 $549 forward 7 unknown #
vertex $-1 $498 $550 #
straight-curve $-1 -7.0286314099686642 -26.300493805467418 45.05303333551862 0 -0.82903756765294845 0.55919291073839883 I I #
point $-1 -7.0286314099686642 20.401096185050733 13.552412541164635 #
point $-1 -25.541633829453037 39.965791737811209 0.35585851185601314 #
straight-curve $-1 0 39.965791737811209 13.552412541164637 -1 0 0 I I #
vertex $-1 $400 $551 #
point $-1 -12.285132619710851 27.853288621234423 3.4995382338886838 #
coedge $-1 $415 $414 $407 $507 forward $404 $-1 #
edge $-1 $508 65.636179187177902 $511 78.832733216486531 $506 $552 forward 7 unknown #
vertex $-1 $419 $553 #
straight-curve $-1 25.541633829453037 25.068806030304369 13.552412541164642 0 1 0 I I #
edge $-1 $511 -17.399067519597612 $416 1.1139348998867611 $415 $554 forward 7 unknown #
vertex $-1 $510 $555 #
straight-curve $-1 25.541633829453037 -26.300493805467418 45.05303333551862 0 -0.82903756765294845 0.55919291073839883 I I #
point $-1 25.541633829453037 20.401096185050733 13.552412541164635 #
point $-1 7.0286314099686642 39.965791737811209 0.35585851185601314 #
straight-curve $-1 0 39.965791737811209 13.552412541164637 -1 0 0 I I #
vertex $-1 $422 $556 #
point $-1 20.285132619710851 27.853288621234423 3.4995382338886838 #
coedge $-1 $437 $436 $429 $519 forward $426 $-1 #
edge $-1 $520 65.636179187177902 $523 78.832733216486531 $518 $557 forward 7 unknown #
vertex $-1 $441 $558 #
straight-curve $-1 58.111899068874735 25.068806030304369 13.552412541164642 0 1 0 I I #
edge $-1 $523 -33.684200139308459 $438 -15.171197719824093 $437 $559 forward 7 unknown #
vertex $-1 $522 $560 #
straight-curve $-1 58.111899068874735 -26.300493805467418 45.05303333551862 0 -0.82903756765294845 0.55919291073839883 I I #
point $-1 58.111899068874735 20.401096185050733 13.552412541164635 #
point $-1 39.598896649390369 39.965791737811209 0.35585851185601314 #
straight-curve $-1 0 39.965791737811209 13.552412541164637 -1 0 0 I I #
vertex $-1 $444 $561 #
point $-1 52.855397859132552 27.853288621234423 3.4995382338886838 #
straight-curve $-1 -68.346812341685222 39.965791737811209 0 0 0 -1 I I #
point $-1 -68.346812341685222 -39.965791737811209 -13.552412541164637 #
straight-curve $-1 -68.346812341685222 0 -13.552412541164637 0 1 0 I I #
point $-1 -68.346812341685222 39.965791737811209 -13.552412541164637 #
edge $-1 $481 -68.346812341685222 $536 68.346812341685222 $478 $562 forward 7 unknown #
straight-curve $-1 68.346812341685222 0 -13.552412541164637 0 -1 0 I I #
vertex $-1 $469 $563 #
straight-curve $-1 -68.346812341685222 0 -13.552412541164637 0 1 0 I I #
point $-1 -68.346812341685222 -23.441212328698235 -13.552412541164635 #
straight-curve $-1 -68.346812341685222 -23.441212328698235 -5.4781037777977399 0 0 -1 I I #
straight-curve $-1 -68.346812341685222 -39.965791737811209 0 0 0 -1 I I #
point $-1 68.346812341685222 -39.965791737811209 -13.552412541164637 #
straight-curve $-1 -39.598896649390369 39.965791737811209 79.188591728342544 0 0 -1 I I #
point $-1 -39.598896649390369 39.965791737811209 13.552412541164637 #
straight-curve $-1 -24.427698929566276 39.965791737811216 0.35585851185600959 -1 0 0 I I #
point $-1 -39.598896649390369 39.965791737811209 0.35585851185601314 #
point $-1 -48.855397859132552 25.616516978280831 0.18338796327689111 #
straight-curve $-1 -7.0286314099686642 39.965791737811209 79.188591728342544 0 0 -1 I I #
point $-1 -7.0286314099686642 39.965791737811209 13.552412541164637 #
straight-curve $-1 -8.1425663098554253 39.965791737811216 0.35585851185600959 -1 0 0 I I #
point $-1 -7.0286314099686642 39.965791737811209 0.35585851185601314 #
point $-1 -16.285132619710851 25.616516978280831 0.18338796327689111 #
straight-curve $-1 25.541633829453037 39.965791737811209 79.188591728342544 0 0 -1 I I #
point $-1 25.541633829453037 39.965791737811209 13.552412541164637 #
straight-curve $-1 8.1425663098554253 39.965791737811216 0.35585851185600959 -1 0 0 I I #
point $-1 25.541633829453037 39.965791737811209 0.35585851185601314 #
point $-1 16.285132619710851 25.616516978280831 0.18338796327689111 #
straight-curve $-1 58.111899068874735 39.965791737811209 79.188591728342544 0 0 -1 I I #
point $-1 58.111899068874735 39.965791737811209 13.552412541164637 #
straight-curve $-1 24.427698929566276 39.965791737811216 0.35585851185600959 -1 0 0 I I #
point $-1 58.111899068874735 39.965791737811209 0.35585851185601314 #
point $-1 48.855397859132552 25.616516978280831 0.18338796327689111 #
straight-curve $-1 0 -39.965791737811209 -13.552412541164637 -1 0 0 I I #
point $-1 -68.346812341685222 -39.965791737811209 -13.552412541164637 #
End-of-ACIS-data 