500 0 5 0           
7 Unknown 11 ACIS 5.0 NT 24 Fri Mar 26 18:36:31 1999 
-1 9.9999999999999995e-007 1e-010 
body $-1 $5 $-1 $6 #
body $-1 $7 $-1 $8 #
body $-1 $9 $-1 $10 #
body $-1 $11 $-1 $12 #
body $-1 $13 $-1 $14 #
lump $-1 $-1 $15 $0 #
transform $-1 1 0 0 0 1 0 0 0 1 54.226508377330852 36.129546889900631 11.725260219953102 1 rotate no_reflect no_shear #
lump $-1 $-1 $16 $1 #
transform $-1 1 0 0 0 1 0 0 0 1 54.226508377330852 36.129546889900631 11.725260219953102 1 rotate no_reflect no_shear #
lump $-1 $-1 $17 $2 #
transform $-1 1 0 0 0 1 0 0 0 1 54.226508377330852 36.129546889900631 11.725260219953102 1 rotate no_reflect no_shear #
lump $-1 $-1 $18 $3 #
transform $-1 1 0 0 0 1 0 0 0 1 54.226508377330852 36.129546889900631 11.725260219953102 1 rotate no_reflect no_shear #
lump $-1 $-1 $19 $4 #
transform $-1 1 0 0 0 1 0 0 0 1 54.226508377330852 36.129546889900631 11.725260219953102 1 rotate no_reflect no_shear #
shell $-1 $-1 $-1 $20 $-1 $5 #
shell $-1 $-1 $-1 $21 $-1 $7 #
shell $-1 $-1 $-1 $22 $-1 $9 #
shell $-1 $-1 $-1 $23 $-1 $11 #
shell $-1 $-1 $-1 $24 $-1 $13 #
face $-1 $25 $26 $15 $-1 $27 forward single #
face $-1 $28 $29 $16 $-1 $30 reversed single #
face $-1 $31 $32 $17 $-1 $33 forward single #
face $-1 $34 $35 $18 $-1 $36 reversed single #
face $-1 $37 $38 $19 $-1 $39 forward single #
face $-1 $40 $41 $15 $-1 $42 reversed single #
loop $-1 $-1 $43 $20 #
plane-surface $-1 0 0 11.725260219953102 0 0 1 1 0 0 forward_v I I I I #
face $-1 $44 $45 $16 $-1 $46 reversed single #
loop $-1 $-1 $47 $21 #
plane-surface $-1 -28.554517232148733 -104.38124265199866 92.837597945118816 -1 0 0 0 -0.62932039886446345 0.77714595512881146 forward_v I I I I #
face $-1 $48 $49 $17 $-1 $50 forward single #
loop $-1 $51 $52 $22 #
cone-surface $-1 -41.390512804739792 -32.972829821129245 8.6595082230423976 0 0.62932039886446345 -0.77714595512881146 1 0 0 1 I I 0 1 1 forward I I I I #
face $-1 $53 $54 $18 $-1 $55 reversed single #
loop $-1 $-1 $56 $23 #
plane-surface $-1 -28.554517232148733 48.225380199752657 138.311719664208 -1 0 0 0 0.62932039886446345 0.77714595512881146 forward_v I I I I #
face $-1 $57 $58 $19 $-1 $59 forward single #
loop $-1 $60 $61 $24 #
cone-surface $-1 -41.390512804739792 32.972829821129245 8.6595082230423976 0 -0.62932039886446345 -0.77714595512881146 1 0 0 1 I I 0 1 1 forward I I I I #
face $-1 $62 $63 $15 $-1 $64 reversed single #
loop $-1 $-1 $65 $25 #
plane-surface $-1 0 0 -11.725260219953102 0 0 1 1 0 0 forward_v I I I I #
coedge $-1 $66 $67 $68 $69 forward $26 $-1 #
face $-1 $70 $71 $16 $-1 $72 forward single #
loop $-1 $-1 $73 $28 #
plane-surface $-1 -41.390512804739792 -36.12954688990061 8.5537746527162426 0 -0.62932039886446345 0.77714595512881146 1 0 0 forward_v I I I I #
coedge $-1 $74 $75 $76 $77 reversed $29 $-1 #
face $-1 $-1 $78 $17 $-1 $79 forward single #
loop $-1 $80 $81 $31 #
cone-surface $-1 -41.390512804739792 -31.459681767150055 6.7909260321857143 0 0.62932039886446345 -0.77714595512881146 0.5 0 0 1 I I -0.70710678118654691 0.70710678118654813 0.5 forward I I I I #
loop $-1 $-1 $82 $22 #
coedge $-1 $52 $52 $83 $84 reversed $32 $-1 #
face $-1 $85 $86 $18 $-1 $87 reversed single #
loop $-1 $-1 $88 $34 #
plane-surface $-1 -41.390512804739792 -20.026315562345395 54.027896371805426 0 0.62932039886446345 0.77714595512881146 1 0 0 forward_v I I I I #
coedge $-1 $89 $90 $91 $92 reversed $35 $-1 #
face $-1 $-1 $93 $19 $-1 $94 forward single #
loop $-1 $95 $96 $37 #
cone-surface $-1 -41.390512804739792 31.459681767150052 6.7909260321857143 0 -0.62932039886446345 -0.77714595512881146 0.5 0 0 1 I I -0.70710678118654691 0.70710678118654813 0.5 forward I I I I #
loop $-1 $-1 $97 $24 #
coedge $-1 $61 $61 $98 $99 reversed $38 $-1 #
face $-1 $100 $101 $15 $-1 $102 reversed single #
loop $-1 $-1 $103 $40 #
plane-surface $-1 0 -36.129546889900631 0 0 1 0 0 0 1 forward_v I I I I #
coedge $-1 $104 $105 $106 $107 forward $41 $-1 #
coedge $-1 $108 $43 $109 $110 forward $26 $-1 #
coedge $-1 $43 $108 $111 $112 forward $26 $-1 #
coedge $-1 $113 $114 $43 $69 reversed $115 $-1 #
edge $-1 $116 -36.129546889900631 $117 36.129546889900631 $68 $118 forward 7 unknown #
face $-1 $119 $120 $16 $-1 $121 reversed single #
loop $-1 $-1 $76 $44 #
plane-surface $-1 0 0 11.725260219953102 0 0 1 1 0 0 forward_v I I I I #
coedge $-1 $122 $123 $124 $125 reversed $45 $-1 #
coedge $-1 $75 $47 $126 $127 reversed $29 $-1 #
coedge $-1 $47 $74 $122 $128 reversed $29 $-1 #
coedge $-1 $124 $129 $47 $77 forward $71 $-1 #
edge $-1 $130 16.0610744360987 $131 19.977532864547584 $76 $132 forward 7 unknown #
loop $-1 $-1 $83 $48 #
plane-surface $-1 -41.390512804739792 -36.12954688990061 8.5537746527162426 0 -0.62932039886446345 0.77714595512881146 1 0 0 forward_v I I I I #
loop $-1 $-1 $133 $31 #
coedge $-1 $81 $81 $82 $134 reversed $49 $-1 #
coedge $-1 $82 $82 $81 $134 forward $51 $-1 #
coedge $-1 $83 $83 $52 $84 forward $78 $-1 #
edge $-1 $135 -9.8282990856958618e-016 $135 6.2831853071795996 $83 $136 forward 7 unknown #
face $-1 $137 $138 $18 $-1 $139 forward single #
loop $-1 $-1 $91 $53 #
plane-surface $-1 0 36.129546889900631 0 0 -1 0 0 0 -1 forward_v I I I I #
coedge $-1 $140 $141 $142 $143 reversed $54 $-1 #
coedge $-1 $90 $56 $144 $145 reversed $35 $-1 #
coedge $-1 $56 $89 $140 $146 reversed $35 $-1 #
coedge $-1 $142 $147 $56 $92 forward $86 $-1 #
edge $-1 $148 57.4305996121509 $149 60.602085179387785 $91 $150 forward 7 unknown #
loop $-1 $-1 $98 $57 #
plane-surface $-1 -41.390512804739792 -20.026315562345395 54.027896371805426 0 0.62932039886446345 0.77714595512881146 1 0 0 forward_v I I I I #
loop $-1 $-1 $151 $37 #
coedge $-1 $96 $96 $97 $152 reversed $58 $-1 #
coedge $-1 $97 $97 $96 $152 forward $60 $-1 #
coedge $-1 $98 $98 $61 $99 forward $93 $-1 #
edge $-1 $153 -2.026015291910969e-016 $153 6.2831853071796004 $98 $154 forward 7 unknown #
face $-1 $155 $156 $15 $-1 $157 reversed single #
loop $-1 $-1 $158 $62 #
plane-surface $-1 -54.226508377330852 0 0 1 0 0 0 0 -1 forward_v I I I I #
coedge $-1 $159 $111 $160 $161 forward $63 $-1 #
coedge $-1 $162 $65 $159 $163 forward $41 $-1 #
coedge $-1 $65 $162 $164 $165 forward $41 $-1 #
coedge $-1 $114 $113 $65 $107 reversed $115 $-1 #
edge $-1 $166 -36.129546889900631 $167 36.129546889900631 $106 $168 forward 7 unknown #
coedge $-1 $67 $66 $169 $170 forward $26 $-1 #
coedge $-1 $171 $172 $66 $110 reversed $156 $-1 #
edge $-1 $117 -54.226508377330852 $173 54.226508377330852 $109 $174 forward 7 unknown #
coedge $-1 $103 $175 $67 $112 reversed $63 $-1 #
edge $-1 $176 -54.226508377330852 $116 54.226508377330852 $111 $177 forward 7 unknown #
coedge $-1 $106 $68 $175 $178 forward $115 $-1 #
coedge $-1 $68 $106 $171 $179 reversed $115 $-1 #
loop $-1 $-1 $113 $155 #
vertex $-1 $69 $180 #
vertex $-1 $69 $181 #
straight-curve $-1 54.226508377330852 0 11.725260219953102 0 1 0 I I #
face $-1 $-1 $182 $16 $-1 $183 reversed single #
loop $-1 $-1 $184 $70 #
plane-surface $-1 -54.226508377330852 0 0 1 0 0 0 0 -1 forward_v I I I I #
coedge $-1 $185 $73 $75 $128 forward $45 $-1 #
coedge $-1 $73 $185 $184 $186 reversed $45 $-1 #
coedge $-1 $187 $76 $73 $125 forward $71 $-1 #
edge $-1 $131 7.8592608297788367 $188 33.531251974960952 $124 $189 forward 7 unknown #
coedge $-1 $190 $191 $74 $127 forward $182 $-1 #
edge $-1 $192 -37.865024319843187 $130 -34.693538752606308 $126 $193 forward 7 unknown #
edge $-1 $131 -5.0395403882655643 $192 2.7744838338233485e-014 $75 $194 forward 7 unknown #
coedge $-1 $76 $187 $190 $195 forward $71 $-1 #
vertex $-1 $127 $196 #
vertex $-1 $77 $197 #
straight-curve $-1 -28.554517232148733 -52.190621325999331 11.7252602199531 0 1 0 I I #
coedge $-1 $133 $133 $-1 $198 reversed $80 $-1 #
edge $-1 $199 0 $199 6.2831853071796004 $81 $200 forward 7 unknown #
vertex $-1 $84 $201 #
ellipse-curve $-1 -41.390512804739792 -34.171317675676192 10.139517436334661 0 -0.62932039886446345 0.77714595512881146 1 0 0 1 I I #
face $-1 $-1 $202 $18 $-1 $203 reversed single #
loop $-1 $-1 $144 $85 #
plane-surface $-1 0 0 11.725260219953102 0 0 1 1 0 0 forward_v I I I I #
coedge $-1 $204 $88 $90 $146 forward $54 $-1 #
coedge $-1 $88 $204 $205 $206 reversed $54 $-1 #
coedge $-1 $207 $91 $88 $143 forward $86 $-1 #
edge $-1 $149 7.8592608297788367 $208 33.531251974960952 $142 $209 forward 7 unknown #
coedge $-1 $210 $211 $89 $145 forward $138 $-1 #
edge $-1 $212 8.1003983615754045 $148 12.016856790024303 $144 $213 forward 7 unknown #
edge $-1 $149 -72.259093779801276 $212 -67.219553391535669 $90 $214 forward 7 unknown #
coedge $-1 $91 $207 $210 $215 reversed $86 $-1 #
vertex $-1 $215 $216 #
vertex $-1 $92 $217 #
straight-curve $-1 -28.554517232148733 36.129546889900631 69.155859832103999 0 0 -1 I I #
coedge $-1 $151 $151 $-1 $218 reversed $95 $-1 #
edge $-1 $219 0 $219 6.2831853071796004 $96 $220 forward 7 unknown #
vertex $-1 $99 $221 #
ellipse-curve $-1 -41.390512804739792 34.171317675676185 10.13951743633465 0 0.62932039886446345 0.77714595512881146 1 0 0 1 I I #
face $-1 $-1 $115 $15 $-1 $222 reversed single #
loop $-1 $-1 $171 $100 #
plane-surface $-1 0 36.129546889900631 0 0 -1 0 0 0 -1 forward_v I I I I #
coedge $-1 $223 $169 $172 $224 forward $101 $-1 #
coedge $-1 $175 $103 $104 $163 reversed $63 $-1 #
coedge $-1 $169 $223 $103 $161 reversed $101 $-1 #
edge $-1 $176 -11.725260219953102 $225 11.725260219953102 $160 $226 forward 7 unknown #
coedge $-1 $105 $104 $223 $227 forward $41 $-1 #
edge $-1 $167 -54.226508377330852 $225 54.226508377330852 $159 $228 forward 7 unknown #
coedge $-1 $172 $171 $105 $165 reversed $156 $-1 #
edge $-1 $229 -54.226508377330852 $166 54.226508377330852 $164 $230 forward 7 unknown #
vertex $-1 $107 $231 #
vertex $-1 $178 $232 #
straight-curve $-1 54.226508377330852 0 -11.725260219953102 0 -1 0 I I #
coedge $-1 $158 $160 $108 $170 reversed $101 $-1 #
edge $-1 $173 -36.129546889900631 $176 36.129546889900631 $169 $233 forward 7 unknown #
coedge $-1 $164 $109 $114 $179 forward $156 $-1 #
coedge $-1 $109 $164 $158 $224 reversed $156 $-1 #
vertex $-1 $110 $234 #
straight-curve $-1 0 36.129546889900631 11.725260219953102 -1 0 0 I I #
coedge $-1 $111 $159 $113 $178 reversed $63 $-1 #
vertex $-1 $170 $235 #
straight-curve $-1 0 -36.129546889900631 11.725260219953102 1 0 0 I I #
edge $-1 $116 -11.725260219953102 $167 11.725260219953102 $113 $236 forward 7 unknown #
edge $-1 $117 -11.725260219953102 $166 11.725260219953102 $114 $237 forward 7 unknown #
point $-1 54.226508377330852 -36.129546889900631 11.725260219953102 #
point $-1 54.226508377330852 36.129546889900631 11.725260219953102 #
loop $-1 $-1 $126 $119 #
plane-surface $-1 0 -36.129546889900631 0 0 1 0 0 0 1 forward_v I I I I #
coedge $-1 $238 $239 $123 $186 forward $120 $-1 #
coedge $-1 $123 $122 $191 $240 reversed $45 $-1 #
edge $-1 $188 6.307892786673869 $241 11.347433174939461 $184 $242 forward 7 unknown #
coedge $-1 $129 $124 $239 $243 forward $71 $-1 #
vertex $-1 $243 $244 #
straight-curve $-1 -20.695256402369896 -32.213088461451747 11.725260219953102 -1 0 0 I I #
coedge $-1 $245 $126 $129 $195 reversed $182 $-1 #
coedge $-1 $126 $245 $185 $240 forward $182 $-1 #
vertex $-1 $127 $246 #
straight-curve $-1 -28.554517232148733 -36.129546889900631 46.418798972559408 0 0 1 I I #
straight-curve $-1 -28.554517232148733 -36.12954688990061 8.5537746527162426 0 -0.77714595512881146 -0.62932039886446345 I I #
edge $-1 $247 -54.226508377330852 $130 -28.554517232148733 $190 $248 forward 7 unknown #
point $-1 -28.554517232148733 -36.129546889900631 11.725260219953102 #
point $-1 -28.554517232148733 -32.213088461451747 11.725260219953102 #
edge $-1 $249 1 $249 0 $133 $-1 forward 7 unknown #
vertex $-1 $134 $250 #
ellipse-curve $-1 -41.390512804739792 -31.774341966582288 7.1794990097501206 0 -0.62932039886446345 0.77714595512881146 1 0 0 1 I I #
point $-1 -40.390512804739792 -34.171317675676207 10.139517436334677 #
loop $-1 $-1 $205 $137 #
plane-surface $-1 -54.226508377330852 0 0 1 0 0 0 0 -1 forward_v I I I I #
coedge $-1 $141 $140 $211 $251 reversed $54 $-1 #
coedge $-1 $252 $253 $141 $206 forward $202 $-1 #
edge $-1 $208 -47.476980064840092 $254 -42.437439676574485 $205 $255 forward 7 unknown #
coedge $-1 $147 $142 $253 $256 reversed $86 $-1 #
vertex $-1 $143 $257 #
straight-curve $-1 -20.695256402369896 36.129546889900631 8.5537746527162177 -1 0 0 I I #
coedge $-1 $258 $144 $147 $215 forward $138 $-1 #
coedge $-1 $144 $258 $204 $251 forward $138 $-1 #
vertex $-1 $145 $259 #
straight-curve $-1 -28.554517232148733 24.112690099876328 11.7252602199531 0 1 0 I I #
straight-curve $-1 -28.554517232148733 -20.026315562345395 54.027896371805426 0 -0.77714595512881146 0.62932039886446345 I I #
edge $-1 $148 28.554517232148733 $260 54.226508377330852 $147 $261 forward 7 unknown #
point $-1 -28.554517232148733 36.129546889900631 11.725260219953102 #
point $-1 -28.554517232148733 36.129546889900624 8.5537746527162142 #
edge $-1 $262 1 $262 0 $151 $-1 forward 7 unknown #
vertex $-1 $152 $263 #
ellipse-curve $-1 -41.390512804739792 31.774341966582284 7.1794990097501206 0 0.62932039886446345 0.77714595512881146 1 0 0 1 I I #
point $-1 -40.390512804739792 34.171317675676207 10.139517436334677 #
plane-surface $-1 54.226508377330852 0 0 -1 0 0 0 0 1 forward_v I I I I #
coedge $-1 $160 $158 $162 $227 reversed $101 $-1 #
edge $-1 $173 -11.725260219953102 $229 11.725260219953102 $172 $264 forward 7 unknown #
vertex $-1 $227 $265 #
straight-curve $-1 -54.226508377330852 -36.129546889900631 0 0 0 -1 I I #
edge $-1 $225 -36.129546889900631 $229 36.129546889900631 $223 $266 forward 7 unknown #
straight-curve $-1 0 -36.129546889900631 -11.725260219953102 -1 0 0 I I #
vertex $-1 $165 $267 #
straight-curve $-1 0 36.129546889900631 -11.725260219953102 1 0 0 I I #
point $-1 54.226508377330852 36.129546889900631 -11.725260219953102 #
point $-1 54.226508377330852 -36.129546889900631 -11.725260219953102 #
straight-curve $-1 -54.226508377330852 0 11.725260219953102 0 -1 0 I I #
point $-1 -54.226508377330852 36.129546889900631 11.725260219953102 #
point $-1 -54.226508377330852 -36.129546889900631 11.725260219953102 #
straight-curve $-1 54.226508377330852 -36.129546889900631 0 0 0 -1 I I #
straight-curve $-1 54.226508377330852 36.129546889900631 0 0 0 -1 I I #
coedge $-1 $239 $184 $245 $268 reversed $120 $-1 #
coedge $-1 $184 $238 $187 $243 reversed $120 $-1 #
edge $-1 $241 -33.531251974960952 $192 -7.8592608297788367 $191 $269 forward 7 unknown #
vertex $-1 $186 $270 #
straight-curve $-1 -54.226508377330852 -27.310935096901943 15.694945824456973 0 -0.77714595512881146 -0.62932039886446345 I I #
edge $-1 $188 32.213088461451747 $247 36.129546889900631 $239 $271 forward 7 unknown #
point $-1 -54.226508377330852 -32.213088461451747 11.725260219953102 #
coedge $-1 $191 $190 $238 $268 forward $182 $-1 #
point $-1 -28.554517232148733 -36.129546889900631 8.5537746527162248 #
vertex $-1 $243 $272 #
straight-curve $-1 0 -36.129546889900631 11.725260219953102 1 0 0 I I #
vertex $-1 $198 $273 #
point $-1 -40.390512804739792 -31.774341966582288 7.1794990097501206 #
edge $-1 $254 -33.531251974960952 $212 -7.8592608297788367 $211 $274 forward 7 unknown #
coedge $-1 $253 $205 $258 $275 reversed $202 $-1 #
coedge $-1 $205 $252 $207 $256 forward $202 $-1 #
vertex $-1 $206 $276 #
straight-curve $-1 -54.226508377330852 -0.76699612922106297 38.432006684001564 0 -0.77714595512881146 0.62932039886446345 I I #
edge $-1 $260 -11.725260219953102 $208 -8.553774652716216 $207 $277 forward 7 unknown #
point $-1 -54.226508377330852 36.129546889900631 8.553774652716216 #
coedge $-1 $211 $210 $252 $275 forward $138 $-1 #
point $-1 -28.554517232148733 32.213088461451733 11.7252602199531 #
vertex $-1 $215 $278 #
straight-curve $-1 0 36.129546889900631 11.725260219953102 -1 0 0 I I #
vertex $-1 $218 $279 #
point $-1 -40.390512804739792 31.774341966582284 7.1794990097501206 #
straight-curve $-1 -54.226508377330852 36.129546889900631 0 0 0 -1 I I #
point $-1 -54.226508377330852 -36.129546889900631 -11.725260219953102 #
straight-curve $-1 -54.226508377330852 0 -11.725260219953102 0 1 0 I I #
point $-1 -54.226508377330852 36.129546889900631 -11.725260219953102 #
edge $-1 $247 -11.725260219953102 $241 -8.5537746527162248 $238 $280 forward 7 unknown #
straight-curve $-1 -20.695256402369896 -36.129546889900631 8.5537746527162266 1 0 0 I I #
point $-1 -54.226508377330852 -36.129546889900631 8.5537746527162248 #
straight-curve $-1 -54.226508377330852 0 11.725260219953102 0 -1 0 I I #
point $-1 -54.226508377330852 -36.129546889900631 11.725260219953102 #
point $-1 -41.390512804739792 -31.145021567717823 6.4023530546213081 #
straight-curve $-1 -20.695256402369896 32.21308846145174 11.7252602199531 1 0 0 I I #
edge $-1 $260 -36.129546889900631 $254 -32.213088461451733 $252 $281 forward 7 unknown #
point $-1 -54.226508377330852 32.213088461451733 11.7252602199531 #
straight-curve $-1 -54.226508377330852 36.129546889900631 0 0 0 -1 I I #
point $-1 -54.226508377330852 36.129546889900631 11.725260219953102 #
point $-1 -41.390512804739792 31.145021567717819 6.4023530546213081 #
straight-curve $-1 -54.226508377330852 -36.129546889900631 0 0 0 -1 I I #
straight-curve $-1 -54.226508377330852 0 11.725260219953102 0 -1 0 I I #
End-of-ACIS-data 