500 0 10 0           
7 Unknown 11 ACIS 5.0 NT 24 Thu Mar 25 23:04:03 1999 
-1 9.9999999999999995e-007 1e-010 
body $-1 $10 $-1 $11 #
body $-1 $12 $-1 $13 #
body $-1 $14 $-1 $15 #
body $-1 $16 $-1 $17 #
body $-1 $18 $-1 $19 #
body $-1 $20 $-1 $21 #
body $-1 $22 $-1 $23 #
body $-1 $24 $-1 $25 #
body $-1 $26 $-1 $27 #
body $-1 $28 $-1 $29 #
lump $-1 $-1 $30 $0 #
transform $-1 1 0 0 0 1 0 0 0 1 62.599566637165438 36.761555865931953 14.963558687626392 1 rotate no_reflect no_shear #
lump $-1 $-1 $31 $1 #
transform $-1 1 0 0 0 1 0 0 0 1 62.599566637165438 36.761555865931953 14.963558687626392 1 rotate no_reflect no_shear #
lump $-1 $-1 $32 $2 #
transform $-1 1 0 0 0 1 0 0 0 1 62.599566637165438 36.761555865931953 14.963558687626392 1 rotate no_reflect no_shear #
lump $-1 $-1 $33 $3 #
transform $-1 1 0 0 0 1 0 0 0 1 62.599566637165438 36.761555865931953 14.963558687626392 1 rotate no_reflect no_shear #
lump $-1 $-1 $34 $4 #
transform $-1 1 0 0 0 1 0 0 0 1 62.599566637165438 36.761555865931953 14.963558687626392 1 rotate no_reflect no_shear #
lump $-1 $-1 $35 $5 #
transform $-1 1 0 0 0 1 0 0 0 1 62.599566637165438 36.761555865931953 14.963558687626392 1 rotate no_reflect no_shear #
lump $-1 $-1 $36 $6 #
transform $-1 1 0 0 0 1 0 0 0 1 62.599566637165438 36.761555865931953 14.963558687626392 1 rotate no_reflect no_shear #
lump $-1 $-1 $37 $7 #
transform $-1 1 0 0 0 1 0 0 0 1 62.599566637165438 36.761555865931953 14.963558687626392 1 rotate no_reflect no_shear #
lump $-1 $-1 $38 $8 #
transform $-1 1 0 0 0 1 0 0 0 1 62.599566637165438 36.761555865931953 14.963558687626392 1 rotate no_reflect no_shear #
lump $-1 $-1 $39 $9 #
transform $-1 1 0 0 0 1 0 0 0 1 62.599566637165438 36.761555865931953 14.963558687626392 1 rotate no_reflect no_shear #
shell $-1 $-1 $-1 $40 $-1 $10 #
shell $-1 $-1 $-1 $41 $-1 $12 #
shell $-1 $-1 $-1 $42 $-1 $14 #
shell $-1 $-1 $-1 $43 $-1 $16 #
shell $-1 $-1 $-1 $44 $-1 $18 #
shell $-1 $-1 $-1 $45 $-1 $20 #
shell $-1 $-1 $-1 $46 $-1 $22 #
shell $-1 $-1 $-1 $47 $-1 $24 #
shell $-1 $-1 $-1 $48 $-1 $26 #
shell $-1 $-1 $-1 $49 $-1 $28 #
face $-1 $50 $51 $30 $-1 $52 forward single #
face $-1 $53 $54 $31 $-1 $55 forward single #
face $-1 $56 $57 $32 $-1 $58 reversed single #
face $-1 $59 $60 $33 $-1 $61 forward single #
face $-1 $62 $63 $34 $-1 $64 forward single #
face $-1 $65 $66 $35 $-1 $67 reversed single #
face $-1 $68 $69 $36 $-1 $70 forward single #
face $-1 $71 $72 $37 $-1 $73 forward single #
face $-1 $74 $75 $38 $-1 $76 reversed single #
face $-1 $77 $78 $39 $-1 $79 forward single #
face $-1 $80 $81 $30 $-1 $82 reversed single #
loop $-1 $-1 $83 $40 #
plane-surface $-1 0 0 14.963558687626392 0 0 1 1 0 0 forward_v I I I I #
face $-1 $84 $85 $31 $-1 $86 reversed single #
loop $-1 $-1 $87 $41 #
plane-surface $-1 0 -27.545068658317824 13.332942327604467 0 0 1 1 0 0 forward_v I I I I #
face $-1 $88 $89 $32 $-1 $90 reversed single #
loop $-1 $-1 $91 $42 #
plane-surface $-1 71.866084909062906 -1.7999487185632113 184.73526045413158 0 1 0 0.74314483375859142 0 0.66913059716165679 forward_v I I I I #
face $-1 $92 $93 $33 $-1 $94 forward single #
loop $-1 $95 $96 $43 #
cone-surface $-1 59.047366701463886 1.3476044032017427 11.098529453525193 -0.74314483375859142 0 -0.66913059716165679 0.66913059716165679 0 -0.74314483375859142 1 I I 0 1 1 forward I I I I #
face $-1 $97 $98 $34 $-1 $99 forward single #
loop $-1 $100 $101 $44 #
cone-surface $-1 59.047366701463886 6.0689340858491718 11.098529453525193 -0.74314483375859142 0 -0.66913059716165679 0.66913059716165679 0 -0.74314483375859142 1 I I 0 1 1 forward I I I I #
face $-1 $102 $103 $35 $-1 $104 reversed single #
loop $-1 $-1 $105 $45 #
plane-surface $-1 71.866084909062906 20.232923133791449 184.73526045413158 0 -1 0 -0.74314483375859142 0 -0.66913059716165679 forward_v I I I I #
face $-1 $106 $107 $36 $-1 $108 forward single #
loop $-1 $109 $110 $46 #
cone-surface $-1 59.047366701463886 12.364040329379073 11.098529453525193 -0.74314483375859142 0 -0.66913059716165679 0.66913059716165679 0 -0.74314483375859142 1 I I 0 1 1 forward I I I I #
face $-1 $111 $112 $37 $-1 $113 forward single #
loop $-1 $114 $115 $47 #
cone-surface $-1 59.047366701463886 17.085370012026502 11.098529453525193 -0.74314483375859142 0 -0.66913059716165679 0.66913059716165679 0 -0.74314483375859142 1 I I 0 1 1 forward I I I I #
face $-1 $116 $117 $38 $-1 $118 reversed single #
loop $-1 $-1 $119 $48 #
plane-surface $-1 -165.15669362039176 20.861311673151612 72.748508559920566 0 1 0 -0.81915205242281985 0 0.57357642473473569 forward_v I I I I #
face $-1 $120 $121 $39 $-1 $122 forward single #
loop $-1 $123 $124 $49 #
cone-surface $-1 -55.370088765410969 28.811433769541779 6.3267497805116459 0.81915205242281985 0 -0.57357642473473569 1.1471528494694714 0 1.6383041048456397 1 I I 0 1 2 forward I I I I #
face $-1 $125 $126 $30 $-1 $127 reversed single #
loop $-1 $-1 $128 $50 #
plane-surface $-1 0 0 -14.963558687626392 0 0 1 1 0 0 forward_v I I I I #
coedge $-1 $129 $130 $131 $132 forward $51 $-1 #
face $-1 $133 $134 $31 $-1 $135 reversed single #
loop $-1 $-1 $136 $53 #
plane-surface $-1 0 -27.545068658317824 9.9748981839968174 0 0 1 1 0 0 forward_v I I I I #
coedge $-1 $137 $138 $139 $140 reversed $54 $-1 #
face $-1 $141 $142 $32 $-1 $143 reversed single #
loop $-1 $-1 $144 $56 #
plane-surface $-1 -21.17500417480943 3.7082692445254537 100.96068964215671 0.74314483375859142 0 0.66913059716165679 0.66913059716165679 0 -0.74314483375859142 forward_v I I I I #
coedge $-1 $145 $146 $147 $148 reversed $57 $-1 #
face $-1 $-1 $149 $33 $-1 $150 forward single #
loop $-1 $151 $152 $59 #
cone-surface $-1 58.294798463718763 1.3476044032017427 10.420913985514186 -0.74314483375859142 0 -0.66913059716165679 0.3345652985808284 0 -0.37157241687929571 1 I I -0.70710678118654746 0.70710678118654746 0.5 forward I I I I #
loop $-1 $-1 $153 $43 #
coedge $-1 $96 $96 $154 $155 reversed $60 $-1 #
face $-1 $-1 $156 $34 $-1 $157 forward single #
loop $-1 $158 $159 $62 #
cone-surface $-1 58.294798463718763 6.0689340858491718 10.420913985514186 -0.74314483375859142 0 -0.66913059716165679 0.3345652985808284 0 -0.37157241687929571 1 I I -0.70710678118654746 0.70710678118654746 0.5 forward I I I I #
loop $-1 $-1 $160 $44 #
coedge $-1 $101 $101 $161 $162 reversed $63 $-1 #
face $-1 $163 $164 $35 $-1 $165 reversed single #
loop $-1 $-1 $166 $65 #
plane-surface $-1 -21.17500417480943 3.7082692445254537 100.96068964215671 0.74314483375859142 0 0.66913059716165679 0.66913059716165679 0 -0.74314483375859142 forward_v I I I I #
coedge $-1 $167 $168 $169 $170 reversed $66 $-1 #
face $-1 $-1 $171 $36 $-1 $172 forward single #
loop $-1 $173 $174 $68 #
cone-surface $-1 58.294798463718763 12.364040329379073 10.420913985514186 -0.74314483375859142 0 -0.66913059716165679 0.3345652985808284 0 -0.37157241687929571 1 I I -0.70710678118654746 0.70710678118654746 0.5 forward I I I I #
loop $-1 $-1 $175 $46 #
coedge $-1 $110 $110 $176 $177 reversed $69 $-1 #
face $-1 $-1 $178 $37 $-1 $179 forward single #
loop $-1 $180 $181 $71 #
cone-surface $-1 58.294798463718763 17.085370012026502 10.420913985514186 -0.74314483375859142 0 -0.66913059716165679 0.3345652985808284 0 -0.37157241687929571 1 I I -0.70710678118654746 0.70710678118654746 0.5 forward I I I I #
loop $-1 $-1 $182 $47 #
coedge $-1 $115 $115 $183 $184 reversed $72 $-1 #
face $-1 $185 $186 $38 $-1 $187 forward single #
loop $-1 $-1 $188 $74 #
plane-surface $-1 -62.599566637165452 28.811433769541779 0.93723731654216635 -0.81915205242281985 0 0.57357642473473569 0.57357642473473569 0 0.81915205242281985 forward_v I I I I #
coedge $-1 $189 $190 $191 $192 reversed $75 $-1 #
face $-1 $-1 $193 $39 $-1 $194 forward single #
loop $-1 $195 $196 $77 #
cone-surface $-1 -52.232126671712514 28.811433769541779 4.1295251342042789 0.81915205242281985 0 -0.57357642473473569 0.57357642473473569 0 0.81915205242281985 1 I I -0.70710678118654746 0.70710678118654746 1 forward I I I I #
loop $-1 $-1 $197 $49 #
coedge $-1 $124 $124 $198 $199 reversed $78 $-1 #
face $-1 $200 $201 $30 $-1 $202 reversed single #
loop $-1 $-1 $203 $80 #
plane-surface $-1 0 -36.761555865931953 0 0 1 0 0 0 1 forward_v I I I I #
coedge $-1 $204 $205 $206 $207 forward $81 $-1 #
coedge $-1 $208 $83 $209 $210 forward $51 $-1 #
coedge $-1 $83 $208 $211 $212 forward $51 $-1 #
coedge $-1 $213 $214 $83 $132 reversed $215 $-1 #
edge $-1 $216 -36.761555865931953 $217 36.761555865931953 $131 $218 forward 7 unknown #
face $-1 $219 $220 $31 $-1 $221 reversed single #
loop $-1 $-1 $222 $84 #
plane-surface $-1 0 -18.328581450703695 11.653920255800642 0 -1 0 0 0 -1 forward_v I I I I #
coedge $-1 $223 $224 $225 $226 reversed $85 $-1 #
coedge $-1 $227 $87 $228 $229 forward $54 $-1 #
coedge $-1 $87 $227 $230 $231 reversed $54 $-1 #
coedge $-1 $232 $233 $87 $140 forward $234 $-1 #
edge $-1 $235 4.5560471215447826 $236 22.989021536773041 $139 $237 forward 7 unknown #
face $-1 $238 $239 $32 $-1 $240 forward single #
loop $-1 $-1 $241 $88 #
plane-surface $-1 71.866084909062906 9.2164872076141187 184.73526045413158 0 -1 0 -0.74314483375859142 0 -0.66913059716165679 forward_v I I I I #
coedge $-1 $242 $243 $244 $245 reversed $89 $-1 #
coedge $-1 $146 $91 $246 $247 reversed $57 $-1 #
coedge $-1 $91 $145 $242 $248 reversed $57 $-1 #
coedge $-1 $244 $249 $91 $148 forward $250 $-1 #
edge $-1 $251 77.4040715394394 $252 84.448029668781416 $147 $253 forward 7 unknown #
loop $-1 $-1 $154 $92 #
plane-surface $-1 -21.17500417480943 3.7082692445254537 100.96068964215671 0.74314483375859142 0 0.66913059716165679 0.66913059716165679 0 -0.74314483375859142 forward_v I I I I #
loop $-1 $-1 $254 $59 #
coedge $-1 $152 $152 $153 $255 reversed $93 $-1 #
coedge $-1 $153 $153 $152 $255 forward $95 $-1 #
coedge $-1 $154 $154 $96 $155 forward $149 $-1 #
edge $-1 $256 0 $256 6.2831853071796004 $154 $257 forward 7 unknown #
loop $-1 $-1 $161 $97 #
plane-surface $-1 -21.17500417480943 3.7082692445254537 100.96068964215671 0.74314483375859142 0 0.66913059716165679 0.66913059716165679 0 -0.74314483375859142 forward_v I I I I #
loop $-1 $-1 $258 $62 #
coedge $-1 $159 $159 $160 $259 reversed $98 $-1 #
coedge $-1 $160 $160 $159 $259 forward $100 $-1 #
coedge $-1 $161 $161 $101 $162 forward $156 $-1 #
edge $-1 $260 0 $260 6.2831853071796004 $161 $261 forward 7 unknown #
face $-1 $262 $263 $35 $-1 $264 forward single #
loop $-1 $-1 $265 $102 #
plane-surface $-1 62.599566637165438 0 0 -1 0 0 0 0 1 forward_v I I I I #
coedge $-1 $266 $267 $268 $269 reversed $103 $-1 #
coedge $-1 $168 $105 $270 $271 reversed $66 $-1 #
coedge $-1 $105 $167 $272 $273 reversed $66 $-1 #
coedge $-1 $274 $265 $105 $170 forward $164 $-1 #
edge $-1 $275 -84.448029668781416 $276 -77.4040715394394 $169 $277 forward 7 unknown #
loop $-1 $-1 $176 $106 #
plane-surface $-1 -21.17500417480943 3.7082692445254537 100.96068964215671 0.74314483375859142 0 0.66913059716165679 0.66913059716165679 0 -0.74314483375859142 forward_v I I I I #
loop $-1 $-1 $278 $68 #
coedge $-1 $174 $174 $175 $279 reversed $107 $-1 #
coedge $-1 $175 $175 $174 $279 forward $109 $-1 #
coedge $-1 $176 $176 $110 $177 forward $171 $-1 #
edge $-1 $280 0 $280 6.2831853071796004 $176 $281 forward 7 unknown #
loop $-1 $-1 $183 $111 #
plane-surface $-1 -21.17500417480943 3.7082692445254537 100.96068964215671 0.74314483375859142 0 0.66913059716165679 0.66913059716165679 0 -0.74314483375859142 forward_v I I I I #
loop $-1 $-1 $282 $71 #
coedge $-1 $181 $181 $182 $283 reversed $112 $-1 #
coedge $-1 $182 $182 $181 $283 forward $114 $-1 #
coedge $-1 $183 $183 $115 $184 forward $178 $-1 #
edge $-1 $284 0 $284 6.2831853071796004 $183 $285 forward 7 unknown #
face $-1 $286 $287 $38 $-1 $288 reversed single #
loop $-1 $-1 $191 $116 #
plane-surface $-1 0 0 14.963558687626392 0 0 1 1 0 0 forward_v I I I I #
coedge $-1 $289 $290 $291 $292 reversed $117 $-1 #
coedge $-1 $190 $119 $293 $294 reversed $75 $-1 #
coedge $-1 $119 $189 $289 $295 reversed $75 $-1 #
coedge $-1 $291 $296 $119 $192 forward $186 $-1 #
edge $-1 $297 19.978780173030444 $298 29.800115833988094 $191 $299 forward 7 unknown #
loop $-1 $-1 $198 $120 #
plane-surface $-1 -62.599566637165452 28.811433769541779 0.93723731654216635 -0.81915205242281985 0 0.57357642473473569 0.57357642473473569 0 0.81915205242281985 forward_v I I I I #
loop $-1 $-1 $300 $77 #
coedge $-1 $196 $196 $197 $301 reversed $121 $-1 #
coedge $-1 $197 $197 $196 $301 forward $123 $-1 #
coedge $-1 $198 $198 $124 $199 forward $193 $-1 #
edge $-1 $302 0 $302 6.2831853071796004 $198 $303 forward 7 unknown #
face $-1 $304 $305 $30 $-1 $306 reversed single #
loop $-1 $-1 $307 $125 #
plane-surface $-1 -62.599566637165438 0 0 1 0 0 0 0 -1 forward_v I I I I #
coedge $-1 $308 $211 $309 $310 forward $126 $-1 #
coedge $-1 $311 $128 $308 $312 forward $81 $-1 #
coedge $-1 $128 $311 $313 $314 forward $81 $-1 #
coedge $-1 $214 $213 $128 $207 reversed $215 $-1 #
edge $-1 $315 -36.761555865931953 $316 36.761555865931953 $206 $317 forward 7 unknown #
coedge $-1 $130 $129 $318 $319 forward $51 $-1 #
coedge $-1 $320 $321 $129 $210 reversed $305 $-1 #
edge $-1 $217 -62.599566637165438 $322 62.599566637165438 $209 $323 forward 7 unknown #
coedge $-1 $203 $324 $130 $212 reversed $126 $-1 #
edge $-1 $325 -62.599566637165438 $216 62.599566637165438 $211 $326 forward 7 unknown #
coedge $-1 $206 $131 $324 $327 forward $215 $-1 #
coedge $-1 $131 $206 $320 $328 reversed $215 $-1 #
loop $-1 $-1 $213 $304 #
vertex $-1 $132 $329 #
vertex $-1 $132 $330 #
straight-curve $-1 62.599566637165438 0 14.963558687626392 0 1 0 I I #
face $-1 $331 $332 $31 $-1 $333 reversed single #
loop $-1 $-1 $334 $133 #
plane-surface $-1 -62.599566637165438 0 0 1 0 0 0 0 -1 forward_v I I I I #
coedge $-1 $335 $228 $233 $336 reversed $134 $-1 #
coedge $-1 $337 $136 $338 $339 reversed $85 $-1 #
coedge $-1 $136 $337 $335 $340 forward $85 $-1 #
coedge $-1 $233 $232 $136 $226 forward $234 $-1 #
edge $-1 $341 -22.989021536773041 $342 -4.5560471215447826 $225 $343 forward 7 unknown #
coedge $-1 $138 $137 $334 $344 reversed $54 $-1 #
coedge $-1 $222 $345 $137 $229 reversed $134 $-1 #
edge $-1 $235 -62.599566637165438 $346 62.599566637165438 $228 $347 forward 7 unknown #
coedge $-1 $348 $349 $138 $231 forward $332 $-1 #
edge $-1 $236 -62.599566637165438 $350 62.599566637165438 $230 $351 forward 7 unknown #
coedge $-1 $225 $139 $349 $352 forward $234 $-1 #
coedge $-1 $139 $225 $222 $336 forward $234 $-1 #
loop $-1 $-1 $139 $331 #
vertex $-1 $140 $353 #
vertex $-1 $352 $354 #
straight-curve $-1 62.599566637165438 -13.772534329158912 13.332942327604467 0 -1 0 I I #
face $-1 $-1 $250 $32 $-1 $355 reversed single #
loop $-1 $-1 $356 $141 #
plane-surface $-1 0 0 14.963558687626392 0 0 1 1 0 0 forward_v I I I I #
coedge $-1 $357 $358 $359 $360 reversed $142 $-1 #
coedge $-1 $361 $144 $146 $248 forward $89 $-1 #
coedge $-1 $144 $361 $357 $362 forward $89 $-1 #
coedge $-1 $359 $147 $144 $245 forward $250 $-1 #
edge $-1 $252 -3.6540833408259381 $363 7.3623525853513918 $244 $364 forward 7 unknown #
coedge $-1 $365 $366 $145 $247 forward $239 $-1 #
edge $-1 $367 20.324115952962508 $251 26.666524182633985 $246 $368 forward 7 unknown #
edge $-1 $252 -125.19913327433085 $367 -115.72055277513542 $146 $369 forward 7 unknown #
coedge $-1 $147 $359 $365 $370 reversed $250 $-1 #
loop $-1 $-1 $359 $238 #
vertex $-1 $370 $371 #
vertex $-1 $148 $372 #
straight-curve $-1 62.599566637165438 -1.7999487185632113 92.367630227065789 0 0 -1 I I #
coedge $-1 $254 $254 $-1 $373 reversed $151 $-1 #
edge $-1 $374 0 $374 6.2831853071796004 $152 $375 forward 7 unknown #
vertex $-1 $155 $376 #
ellipse-curve $-1 59.428362522329707 1.3476044032017427 11.441579622955368 0.74314483375859142 0 0.66913059716165679 0.66913059716165679 0 -0.74314483375859142 1 I I #
coedge $-1 $258 $258 $-1 $377 reversed $158 $-1 #
edge $-1 $378 0 $378 6.2831853071796004 $159 $379 forward 7 unknown #
vertex $-1 $162 $380 #
ellipse-curve $-1 59.428362522329707 6.0689340858491718 11.441579622955368 0.74314483375859142 0 0.66913059716165679 0.66913059716165679 0 -0.74314483375859142 1 I I #
face $-1 $-1 $381 $35 $-1 $382 forward single #
loop $-1 $-1 $383 $163 #
plane-surface $-1 71.866084909062906 9.2164872076141187 184.73526045413158 0 -1 0 -0.74314483375859142 0 -0.66913059716165679 forward_v I I I I #
coedge $-1 $169 $384 $267 $385 forward $164 $-1 #
coedge $-1 $270 $166 $386 $387 reversed $103 $-1 #
coedge $-1 $166 $270 $265 $385 reversed $103 $-1 #
coedge $-1 $383 $388 $166 $269 forward $263 $-1 #
edge $-1 $389 115.72055277513542 $390 125.19913327433085 $268 $391 forward 7 unknown #
coedge $-1 $267 $266 $167 $271 forward $103 $-1 #
edge $-1 $392 115.72055277513542 $275 125.19913327433085 $167 $393 forward 7 unknown #
coedge $-1 $386 $394 $168 $273 forward $381 $-1 #
edge $-1 $276 -26.666524182633985 $392 -20.324115952962508 $272 $395 forward 7 unknown #
coedge $-1 $384 $169 $394 $396 reversed $164 $-1 #
vertex $-1 $170 $397 #
vertex $-1 $273 $398 #
straight-curve $-1 62.599566637165438 20.232923133791449 92.367630227065789 0 0 1 I I #
coedge $-1 $278 $278 $-1 $399 reversed $173 $-1 #
edge $-1 $400 0 $400 6.2831853071796004 $174 $401 forward 7 unknown #
vertex $-1 $177 $402 #
ellipse-curve $-1 59.428362522329707 12.364040329379073 11.441579622955368 0.74314483375859142 0 0.66913059716165679 0.66913059716165679 0 -0.74314483375859142 1 I I #
coedge $-1 $282 $282 $-1 $403 reversed $180 $-1 #
edge $-1 $404 0 $404 6.2831853071796004 $181 $405 forward 7 unknown #
vertex $-1 $184 $406 #
ellipse-curve $-1 59.428362522329707 17.085370012026502 11.441579622955368 0.74314483375859142 0 0.66913059716165679 0.66913059716165679 0 -0.74314483375859142 1 I I #
face $-1 $-1 $407 $38 $-1 $408 reversed single #
loop $-1 $-1 $409 $185 #
plane-surface $-1 0 36.761555865931953 0 0 -1 0 0 0 -1 forward_v I I I I #
coedge $-1 $410 $188 $190 $295 forward $117 $-1 #
coedge $-1 $188 $410 $409 $411 reversed $117 $-1 #
coedge $-1 $412 $191 $188 $292 forward $186 $-1 #
edge $-1 $298 6.4555947883807221 $413 22.355838981161057 $291 $414 forward 7 unknown #
coedge $-1 $415 $416 $189 $294 forward $407 $-1 #
edge $-1 $417 -35.437016963418095 $297 -21.410695592333891 $293 $418 forward 7 unknown #
edge $-1 $298 -17.122976533597562 $417 -2.4793790127588779e-014 $190 $419 forward 7 unknown #
coedge $-1 $191 $412 $415 $420 forward $186 $-1 #
vertex $-1 $294 $421 #
vertex $-1 $192 $422 #
straight-curve $-1 -82.578346810195882 20.861311673151612 14.963558687626392 1 0 0 I I #
coedge $-1 $300 $300 $-1 $423 reversed $195 $-1 #
edge $-1 $424 0 $424 6.2831853071796004 $196 $425 forward 7 unknown #
vertex $-1 $199 $426 #
ellipse-curve $-1 -57.688898806686616 28.811433769541779 7.9503980020842855 -0.81915205242281985 0 0.57357642473473569 1.1471528494694714 0 1.6383041048456397 1 I I #
face $-1 $-1 $215 $30 $-1 $427 reversed single #
loop $-1 $-1 $320 $200 #
plane-surface $-1 0 36.761555865931953 0 0 -1 0 0 0 -1 forward_v I I I I #
coedge $-1 $428 $318 $321 $429 forward $201 $-1 #
coedge $-1 $324 $203 $204 $312 reversed $126 $-1 #
coedge $-1 $318 $428 $203 $310 reversed $201 $-1 #
edge $-1 $325 -14.963558687626392 $430 14.963558687626392 $309 $431 forward 7 unknown #
coedge $-1 $205 $204 $428 $432 forward $81 $-1 #
edge $-1 $316 -62.599566637165438 $430 62.599566637165438 $308 $433 forward 7 unknown #
coedge $-1 $321 $320 $205 $314 reversed $305 $-1 #
edge $-1 $434 -62.599566637165438 $315 62.599566637165438 $313 $435 forward 7 unknown #
vertex $-1 $207 $436 #
vertex $-1 $327 $437 #
straight-curve $-1 62.599566637165438 0 -14.963558687626392 0 -1 0 I I #
coedge $-1 $307 $309 $208 $319 reversed $201 $-1 #
edge $-1 $322 -36.761555865931953 $325 36.761555865931953 $318 $438 forward 7 unknown #
coedge $-1 $313 $209 $214 $328 forward $305 $-1 #
coedge $-1 $209 $313 $307 $429 reversed $305 $-1 #
vertex $-1 $210 $439 #
straight-curve $-1 0 36.761555865931953 14.963558687626392 -1 0 0 I I #
coedge $-1 $211 $308 $213 $327 reversed $126 $-1 #
vertex $-1 $319 $440 #
straight-curve $-1 0 -36.761555865931953 14.963558687626392 1 0 0 I I #
edge $-1 $216 -14.963558687626392 $316 14.963558687626392 $213 $441 forward 7 unknown #
edge $-1 $217 -14.963558687626392 $315 14.963558687626392 $214 $442 forward 7 unknown #
point $-1 62.599566637165438 -36.761555865931953 14.963558687626392 #
point $-1 62.599566637165438 36.761555865931953 14.963558687626392 #
face $-1 $-1 $234 $31 $-1 $443 reversed single #
loop $-1 $-1 $230 $219 #
plane-surface $-1 0 -36.761555865931953 0 0 1 0 0 0 1 forward_v I I I I #
coedge $-1 $444 $445 $227 $344 forward $220 $-1 #
coedge $-1 $345 $222 $224 $340 reversed $134 $-1 #
edge $-1 $342 4.1479380560964962 $235 7.505982199704146 $233 $446 forward 7 unknown #
coedge $-1 $224 $223 $447 $448 reversed $85 $-1 #
coedge $-1 $349 $348 $223 $339 forward $332 $-1 #
edge $-1 $449 -62.599566637165438 $341 62.599566637165438 $338 $450 forward 7 unknown #
edge $-1 $451 -62.599566637165438 $342 62.599566637165438 $335 $452 forward 7 unknown #
vertex $-1 $339 $453 #
vertex $-1 $226 $454 #
straight-curve $-1 62.599566637165438 -13.772534329158912 9.9748981839968174 0 1 0 I I #
edge $-1 $350 -22.989021536773041 $346 -4.5560471215447826 $334 $455 forward 7 unknown #
coedge $-1 $228 $335 $444 $456 reversed $134 $-1 #
vertex $-1 $344 $457 #
straight-curve $-1 0 -18.328581450703695 13.332942327604467 -1 0 0 I I #
coedge $-1 $338 $230 $445 $458 forward $332 $-1 #
coedge $-1 $230 $338 $232 $352 reversed $332 $-1 #
vertex $-1 $458 $459 #
straight-curve $-1 0 -36.761555865931953 13.332942327604467 -1 0 0 I I #
edge $-1 $236 -13.332942327604467 $341 -9.9748981839968174 $232 $460 forward 7 unknown #
point $-1 62.599566637165438 -18.328581450703695 13.332942327604467 #
point $-1 62.599566637165438 -36.761555865931953 13.332942327604467 #
plane-surface $-1 62.599566637165438 0 0 -1 0 0 0 0 1 forward_v I I I I #
coedge $-1 $366 $365 $358 $461 forward $239 $-1 #
coedge $-1 $358 $241 $243 $362 reversed $142 $-1 #
coedge $-1 $241 $357 $356 $461 reversed $142 $-1 #
coedge $-1 $249 $244 $241 $360 forward $250 $-1 #
edge $-1 $363 -84.448029668781416 $462 -77.4040715394394 $359 $463 forward 7 unknown #
coedge $-1 $243 $242 $366 $464 reversed $89 $-1 #
edge $-1 $465 115.72055277513542 $363 125.19913327433085 $357 $466 forward 7 unknown #
vertex $-1 $245 $467 #
straight-curve $-1 62.599566637165438 1.8541346222627269 7.9196005582843654 0 1 0 I I #
coedge $-1 $356 $246 $249 $370 forward $239 $-1 #
coedge $-1 $246 $356 $361 $464 forward $239 $-1 #
vertex $-1 $247 $468 #
straight-curve $-1 35.933042454531453 -1.7999487185632113 14.963558687626389 1 0 0 I I #
straight-curve $-1 -21.17500417480943 -1.7999487185632113 100.96068964215671 -0.66913059716165679 0 0.74314483375859142 I I #
edge $-1 $251 -1.7999487185632113 $462 9.2164872076141187 $249 $469 forward 7 unknown #
point $-1 62.599566637165438 -1.7999487185632113 14.963558687626392 #
point $-1 62.599566637165438 -1.7999487185632113 7.9196005582843725 #
edge $-1 $470 1 $470 0 $254 $-1 forward 7 unknown #
vertex $-1 $255 $471 #
ellipse-curve $-1 58.666370880598059 1.3476044032017427 10.755479284095015 0.74314483375859142 0 0.66913059716165679 0.66913059716165679 0 -0.74314483375859142 1 I I #
point $-1 60.097493119491368 1.3476044032017427 10.698434789196781 #
edge $-1 $472 1 $472 0 $258 $-1 forward 7 unknown #
vertex $-1 $259 $473 #
ellipse-curve $-1 58.666370880598059 6.0689340858491718 10.755479284095015 0.74314483375859142 0 0.66913059716165679 0.66913059716165679 0 -0.74314483375859142 1 I I #
point $-1 60.097493119491368 6.0689340858491718 10.698434789196781 #
loop $-1 $-1 $386 $262 #
plane-surface $-1 0 0 14.963558687626392 0 0 1 1 0 0 forward_v I I I I #
coedge $-1 $388 $268 $384 $474 reversed $263 $-1 #
coedge $-1 $265 $274 $383 $474 forward $164 $-1 #
edge $-1 $390 7.3623525853513918 $275 18.378788511528722 $265 $475 forward 7 unknown #
coedge $-1 $476 $272 $266 $387 forward $381 $-1 #
edge $-1 $392 -18.378788511528722 $389 -7.3623525853513918 $386 $477 forward 7 unknown #
coedge $-1 $268 $383 $476 $478 reversed $263 $-1 #
vertex $-1 $387 $479 #
vertex $-1 $385 $480 #
straight-curve $-1 -21.17500417480943 9.2164872076141187 100.96068964215671 0.66913059716165679 0 -0.74314483375859142 I I #
vertex $-1 $273 $481 #
straight-curve $-1 -21.17500417480943 20.232923133791449 100.96068964215671 0.66913059716165679 0 -0.74314483375859142 I I #
coedge $-1 $272 $476 $274 $396 forward $381 $-1 #
straight-curve $-1 35.933042454531453 20.232923133791449 14.963558687626389 -1 0 0 I I #
edge $-1 $482 9.2164872076141187 $276 20.232923133791449 $274 $483 forward 7 unknown #
point $-1 62.599566637165438 20.232923133791449 7.9196005582843725 #
point $-1 62.599566637165438 20.232923133791449 14.963558687626392 #
edge $-1 $484 1 $484 0 $278 $-1 forward 7 unknown #
vertex $-1 $279 $485 #
ellipse-curve $-1 58.666370880598059 12.364040329379073 10.755479284095015 0.74314483375859142 0 0.66913059716165679 0.66913059716165679 0 -0.74314483375859142 1 I I #
point $-1 60.097493119491368 12.364040329379073 10.698434789196781 #
edge $-1 $486 1 $486 0 $282 $-1 forward 7 unknown #
vertex $-1 $283 $487 #
ellipse-curve $-1 58.666370880598059 17.085370012026502 10.755479284095015 0.74314483375859142 0 0.66913059716165679 0.66913059716165679 0 -0.74314483375859142 1 I I #
point $-1 60.097493119491368 17.085370012026502 10.698434789196781 #
loop $-1 $-1 $293 $286 #
plane-surface $-1 -62.599566637165438 0 0 1 0 0 0 0 -1 forward_v I I I I #
coedge $-1 $488 $489 $290 $411 forward $287 $-1 #
coedge $-1 $290 $289 $416 $490 reversed $117 $-1 #
edge $-1 $413 0.44597134152065349 $491 17.568947875118191 $409 $492 forward 7 unknown #
coedge $-1 $296 $291 $489 $493 forward $186 $-1 #
vertex $-1 $493 $494 #
straight-curve $-1 -52.778230976207794 14.405716884770889 14.963558687626392 0 1 0 I I #
coedge $-1 $495 $293 $296 $420 reversed $407 $-1 #
coedge $-1 $293 $495 $410 $490 forward $407 $-1 #
vertex $-1 $294 $496 #
straight-curve $-1 -62.599566637165438 20.861311673151612 36.374254279960283 0 0 1 I I #
straight-curve $-1 -62.599566637165452 20.861311673151612 0.93723731654216635 -0.57357642473473569 0 -0.81915205242281985 I I #
edge $-1 $497 -36.761555865931953 $297 -20.861311673151612 $415 $498 forward 7 unknown #
point $-1 -62.599566637165438 20.861311673151612 14.963558687626392 #
point $-1 -52.778230976207787 20.861311673151612 14.96355868762639 #
edge $-1 $499 1 $499 0 $300 $-1 forward 7 unknown #
vertex $-1 $301 $500 #
ellipse-curve $-1 -53.051278724135337 28.811433769541779 4.7031015589390144 -0.81915205242281985 0 0.57357642473473569 1.1471528494694714 0 1.6383041048456397 1 I I #
point $-1 -56.541745957217131 28.811433769541779 9.5887021069299152 #
plane-surface $-1 62.599566637165438 0 0 -1 0 0 0 0 1 forward_v I I I I #
coedge $-1 $309 $307 $311 $432 reversed $201 $-1 #
edge $-1 $322 -14.963558687626392 $434 14.963558687626392 $321 $501 forward 7 unknown #
vertex $-1 $432 $502 #
straight-curve $-1 -62.599566637165438 -36.761555865931953 0 0 0 -1 I I #
edge $-1 $430 -36.761555865931953 $434 36.761555865931953 $428 $503 forward 7 unknown #
straight-curve $-1 0 -36.761555865931953 -14.963558687626392 -1 0 0 I I #
vertex $-1 $314 $504 #
straight-curve $-1 0 36.761555865931953 -14.963558687626392 1 0 0 I I #
point $-1 62.599566637165438 36.761555865931953 -14.963558687626392 #
point $-1 62.599566637165438 -36.761555865931953 -14.963558687626392 #
straight-curve $-1 -62.599566637165438 0 14.963558687626392 0 -1 0 I I #
point $-1 -62.599566637165438 36.761555865931953 14.963558687626392 #
point $-1 -62.599566637165438 -36.761555865931953 14.963558687626392 #
straight-curve $-1 62.599566637165438 -36.761555865931953 0 0 0 -1 I I #
straight-curve $-1 62.599566637165438 36.761555865931953 0 0 0 -1 I I #
plane-surface $-1 62.599566637165438 0 0 -1 0 0 0 0 1 forward_v I I I I #
coedge $-1 $447 $334 $345 $456 forward $220 $-1 #
coedge $-1 $334 $447 $348 $458 reversed $220 $-1 #
straight-curve $-1 62.599566637165438 -18.328581450703695 5.8269601279003211 0 0 1 I I #
coedge $-1 $445 $444 $337 $448 forward $220 $-1 #
edge $-1 $451 4.5560471215447826 $449 22.989021536773041 $447 $505 forward 7 unknown #
vertex $-1 $339 $506 #
straight-curve $-1 0 -36.761555865931953 9.9748981839968174 1 0 0 I I #
vertex $-1 $448 $507 #
straight-curve $-1 0 -18.328581450703695 9.9748981839968174 1 0 0 I I #
point $-1 62.599566637165438 -36.761555865931953 9.9748981839968174 #
point $-1 62.599566637165438 -18.328581450703695 9.9748981839968174 #
straight-curve $-1 -62.599566637165438 -13.772534329158912 13.332942327604467 0 1 0 I I #
edge $-1 $346 -7.505982199704146 $451 -4.1479380560964962 $444 $508 forward 7 unknown #
point $-1 -62.599566637165438 -18.328581450703695 13.332942327604467 #
edge $-1 $350 -13.332942327604467 $449 -9.9748981839968174 $445 $509 forward 7 unknown #
point $-1 -62.599566637165438 -36.761555865931953 13.332942327604467 #
straight-curve $-1 62.599566637165438 -36.761555865931953 0 0 0 -1 I I #
edge $-1 $462 -26.666524182633985 $465 -20.324115952962508 $356 $510 forward 7 unknown #
vertex $-1 $461 $511 #
straight-curve $-1 62.599566637165438 9.2164872076141187 92.367630227065789 0 0 1 I I #
edge $-1 $465 -7.3623525853513918 $367 3.6540833408259381 $366 $512 forward 7 unknown #
vertex $-1 $464 $513 #
straight-curve $-1 -21.17500417480943 9.2164872076141187 100.96068964215671 0.66913059716165679 0 -0.74314483375859142 I I #
point $-1 62.599566637165438 9.2164872076141187 7.9196005582843725 #
point $-1 56.257158407493961 -1.7999487185632113 14.963558687626389 #
straight-curve $-1 62.599566637165438 0 14.963558687626392 0 1 0 I I #
vertex $-1 $373 $514 #
point $-1 59.335501477759713 1.3476044032017427 10.012334450336423 #
vertex $-1 $377 $515 #
point $-1 59.335501477759713 6.0689340858491718 10.012334450336423 #
edge $-1 $482 77.4040715394394 $390 84.448029668781416 $384 $516 forward 7 unknown #
straight-curve $-1 62.599566637165438 1.8541346222627269 7.9196005582843654 0 1 0 I I #
coedge $-1 $394 $386 $388 $478 forward $381 $-1 #
straight-curve $-1 56.257158407493961 1.8541346222627269 14.963558687626389 0 -1 0 I I #
edge $-1 $389 20.324115952962508 $482 26.666524182633985 $476 $517 forward 7 unknown #
point $-1 56.257158407493961 9.2164872076141187 14.963558687626389 #
point $-1 62.599566637165438 9.2164872076141187 7.9196005582843725 #
point $-1 56.257158407493961 20.232923133791449 14.963558687626389 #
vertex $-1 $396 $518 #
straight-curve $-1 62.599566637165438 0 14.963558687626392 0 1 0 I I #
vertex $-1 $399 $519 #
point $-1 59.335501477759713 12.364040329379073 10.012334450336423 #
vertex $-1 $403 $520 #
point $-1 59.335501477759713 17.085370012026502 10.012334450336423 #
coedge $-1 $489 $409 $495 $521 reversed $287 $-1 #
coedge $-1 $409 $488 $412 $493 reversed $287 $-1 #
edge $-1 $491 -22.355838981161057 $417 -6.4555947883807221 $416 $522 forward 7 unknown #
vertex $-1 $411 $523 #
straight-curve $-1 -52.522432328604218 36.761555865931953 15.328877027354793 -0.57357642473473569 0 -0.81915205242281985 I I #
edge $-1 $413 52.778230976207787 $497 62.599566637165438 $489 $524 forward 7 unknown #
point $-1 -52.778230976207787 36.761555865931946 14.96355868762639 #
coedge $-1 $416 $415 $488 $521 forward $407 $-1 #
point $-1 -62.599566637165438 20.861311673151612 0.93723731654218667 #
vertex $-1 $493 $525 #
straight-curve $-1 -62.599566637165438 0 14.963558687626392 0 -1 0 I I #
vertex $-1 $423 $526 #
point $-1 -51.904125874665866 28.811433769541779 6.3414056637846539 #
straight-curve $-1 -62.599566637165438 36.761555865931953 0 0 0 -1 I I #
point $-1 -62.599566637165438 -36.761555865931953 -14.963558687626392 #
straight-curve $-1 -62.599566637165438 0 -14.963558687626392 0 1 0 I I #
point $-1 -62.599566637165438 36.761555865931953 -14.963558687626392 #
straight-curve $-1 -62.599566637165438 -13.772534329158912 9.9748981839968174 0 -1 0 I I #
point $-1 -62.599566637165438 -36.761555865931953 9.9748981839968174 #
point $-1 -62.599566637165438 -18.328581450703695 9.9748981839968174 #
straight-curve $-1 -62.599566637165438 -18.328581450703695 5.8269601279003211 0 0 -1 I I #
straight-curve $-1 -62.599566637165438 -36.761555865931953 0 0 0 -1 I I #
straight-curve $-1 35.933042454531453 9.2164872076141187 14.963558687626389 -1 0 0 I I #
point $-1 62.599566637165438 9.2164872076141187 14.963558687626392 #
straight-curve $-1 56.257158407493961 1.8541346222627269 14.963558687626389 0 -1 0 I I #
point $-1 56.257158407493961 9.2164872076141187 14.963558687626389 #
point $-1 57.923226046839467 1.3476044032017427 10.086348686933357 #
point $-1 57.923226046839467 6.0689340858491718 10.086348686933357 #
straight-curve $-1 62.599566637165438 9.2164872076141187 92.367630227065789 0 0 -1 I I #
straight-curve $-1 35.933042454531453 9.2164872076141187 14.963558687626389 1 0 0 I I #
point $-1 62.599566637165438 9.2164872076141187 14.963558687626392 #
point $-1 57.923226046839467 12.364040329379073 10.086348686933357 #
point $-1 57.923226046839467 17.085370012026502 10.086348686933357 #
edge $-1 $497 -14.963558687626392 $491 -0.93723731654218667 $488 $527 forward 7 unknown #
straight-curve $-1 -62.599566637165438 14.405716884770889 0.93723731654218634 0 -1 0 I I #
point $-1 -62.599566637165438 36.761555865931946 0.93723731654218667 #
straight-curve $-1 0 36.761555865931953 14.963558687626392 -1 0 0 I I #
point $-1 -62.599566637165438 36.761555865931953 14.963558687626392 #
point $-1 -51.412974619289692 28.811433769541779 3.5559487094695434 #
straight-curve $-1 -62.599566637165438 36.761555865931953 0 0 0 -1 I I #
End-of-ACIS-data 