500 0 7 0           
7 Unknown 11 ACIS 5.0 NT 24 Fri Mar 26 17:46:32 1999 
-1 9.9999999999999995e-007 1e-010 
body $-1 $7 $-1 $8 #
body $-1 $9 $-1 $10 #
body $-1 $11 $-1 $12 #
body $-1 $13 $-1 $14 #
body $-1 $15 $-1 $16 #
body $-1 $17 $-1 $18 #
body $-1 $19 $-1 $20 #
lump $-1 $-1 $21 $0 #
transform $-1 1 0 0 0 1 0 0 0 1 67.072359385967587 29.389676247195208 11.685999720971759 1 rotate no_reflect no_shear #
lump $-1 $-1 $22 $1 #
transform $-1 1 0 0 0 1 0 0 0 1 67.072359385967587 29.389676247195208 11.685999720971759 1 rotate no_reflect no_shear #
lump $-1 $-1 $23 $2 #
transform $-1 1 0 0 0 1 0 0 0 1 67.072359385967587 29.389676247195208 11.685999720971759 1 rotate no_reflect no_shear #
lump $-1 $-1 $24 $3 #
transform $-1 1 0 0 0 1 0 0 0 1 67.072359385967587 29.389676247195208 11.685999720971759 1 rotate no_reflect no_shear #
lump $-1 $-1 $25 $4 #
transform $-1 1 0 0 0 1 0 0 0 1 67.072359385967587 29.389676247195208 11.685999720971759 1 rotate no_reflect no_shear #
lump $-1 $-1 $26 $5 #
transform $-1 1 0 0 0 1 0 0 0 1 67.072359385967587 29.389676247195208 11.685999720971759 1 rotate no_reflect no_shear #
lump $-1 $-1 $27 $6 #
transform $-1 1 0 0 0 1 0 0 0 1 67.072359385967587 29.389676247195208 11.685999720971759 1 rotate no_reflect no_shear #
shell $-1 $-1 $-1 $28 $-1 $7 #
shell $-1 $-1 $-1 $29 $-1 $9 #
shell $-1 $-1 $-1 $30 $-1 $11 #
shell $-1 $-1 $-1 $31 $-1 $13 #
shell $-1 $-1 $-1 $32 $-1 $15 #
shell $-1 $-1 $-1 $33 $-1 $17 #
shell $-1 $-1 $-1 $34 $-1 $19 #
face $-1 $35 $36 $21 $-1 $37 forward single #
face $-1 $38 $39 $22 $-1 $40 forward single #
face $-1 $41 $42 $23 $-1 $43 reversed single #
face $-1 $44 $45 $24 $-1 $46 forward single #
face $-1 $47 $48 $25 $-1 $49 forward single #
face $-1 $50 $51 $26 $-1 $52 reversed single #
face $-1 $53 $54 $27 $-1 $55 forward single #
face $-1 $56 $57 $21 $-1 $58 reversed single #
loop $-1 $-1 $59 $28 #
plane-surface $-1 0 0 11.685999720971759 0 0 1 1 0 0 forward_v I I I I #
face $-1 $60 $61 $22 $-1 $62 forward single #
loop $-1 $-1 $63 $29 #
plane-surface $-1 -67.072359385967587 0 0 1 0 0 0 0 -1 forward_v I I I I #
face $-1 $64 $65 $23 $-1 $66 reversed single #
loop $-1 $-1 $67 $30 #
plane-surface $-1 20.802743099003592 96.648659304919164 132.62639067694718 1 0 0 0 -0.77714596973225614 -0.62932038083071107 forward_v I I I I #
face $-1 $68 $69 $24 $-1 $70 forward single #
loop $-1 $71 $72 $31 #
cone-surface $-1 25.976772055219087 22.885095318515738 4.8420725316783511 0 -0.77714596973225614 -0.62932038083071107 2 0 0 1 I I 0 1 2 forward I I I I #
face $-1 $73 $74 $25 $-1 $75 forward single #
loop $-1 $76 $77 $32 #
cone-surface $-1 33.737815489542328 22.885095318515738 4.8420725316783511 0 -0.77714596973225614 -0.62932038083071107 2 0 0 1 I I 0 1 2 forward I I I I #
face $-1 $78 $79 $26 $-1 $80 reversed single #
loop $-1 $-1 $81 $33 #
plane-surface $-1 52.214906806261894 -29.389676247195212 7.3340725205275135 0 -0.7660444514056185 0.64278759981090561 1 0 0 forward_v I I I I #
face $-1 $82 $83 $27 $-1 $84 forward single #
loop $-1 $85 $86 $34 #
cone-surface $-1 52.214906806261894 -26.312910776417379 8.4603936114237381 0 0.7660444514056185 -0.64278759981090561 1 0 0 1 I I 0 1 1 forward I I I I #
face $-1 $87 $88 $21 $-1 $89 reversed single #
loop $-1 $-1 $90 $35 #
plane-surface $-1 0 0 -11.685999720971759 0 0 1 1 0 0 forward_v I I I I #
coedge $-1 $91 $92 $93 $94 forward $36 $-1 #
face $-1 $95 $96 $22 $-1 $97 reversed single #
loop $-1 $-1 $98 $38 #
plane-surface $-1 0 0 11.685999720971759 0 0 1 1 0 0 forward_v I I I I #
coedge $-1 $99 $100 $101 $102 forward $39 $-1 #
face $-1 $103 $104 $23 $-1 $105 reversed single #
loop $-1 $-1 $106 $41 #
plane-surface $-1 29.8572937723807 -7.6013682495571828 48.206385172964303 0 0.77714596973225614 0.62932038083071107 1 0 0 forward_v I I I I #
coedge $-1 $107 $108 $109 $110 reversed $42 $-1 #
face $-1 $-1 $111 $24 $-1 $112 forward single #
loop $-1 $113 $114 $44 #
cone-surface $-1 25.976772055219087 19.312078553472727 1.948700682801535 0 -0.77714596973225614 -0.62932038083071107 1 0 0 1 I I -0.70710678118654746 0.70710678118654746 1 forward I I I I #
loop $-1 $-1 $115 $31 #
coedge $-1 $72 $72 $116 $117 reversed $45 $-1 #
face $-1 $-1 $118 $25 $-1 $119 forward single #
loop $-1 $120 $121 $47 #
cone-surface $-1 33.737815489542328 19.312078553472727 1.948700682801535 0 -0.77714596973225614 -0.62932038083071107 1 0 0 1 I I -0.70710678118654746 0.70710678118654746 1 forward I I I I #
loop $-1 $-1 $122 $32 #
coedge $-1 $77 $77 $123 $124 reversed $48 $-1 #
face $-1 $125 $126 $26 $-1 $127 reversed single #
loop $-1 $-1 $128 $50 #
plane-surface $-1 37.3574542265562 -132.15049374780327 93.560634327248664 1 0 0 0 0.7660444514056185 -0.64278759981090561 forward_v I I I I #
coedge $-1 $129 $130 $131 $132 reversed $51 $-1 #
face $-1 $-1 $133 $27 $-1 $134 forward single #
loop $-1 $135 $136 $53 #
cone-surface $-1 52.214906806261894 -24.678973286535353 7.0893573021923739 0 0.7660444514056185 -0.64278759981090561 0.5 0 0 1 I I -0.70710678118654746 0.70710678118654746 0.5 forward I I I I #
loop $-1 $-1 $137 $34 #
coedge $-1 $86 $86 $138 $139 reversed $54 $-1 #
face $-1 $140 $141 $21 $-1 $142 reversed single #
loop $-1 $-1 $143 $56 #
plane-surface $-1 0 -29.389676247195208 0 0 1 0 0 0 1 forward_v I I I I #
coedge $-1 $144 $145 $146 $147 forward $57 $-1 #
coedge $-1 $148 $59 $149 $150 forward $36 $-1 #
coedge $-1 $59 $148 $151 $152 forward $36 $-1 #
coedge $-1 $153 $154 $59 $94 reversed $155 $-1 #
edge $-1 $156 -29.389676247195208 $157 29.389676247195208 $93 $158 forward 7 unknown #
face $-1 $159 $160 $22 $-1 $161 reversed single #
loop $-1 $-1 $162 $60 #
plane-surface $-1 -77.963246068274913 -26.833107473740633 0 1 0 0 0 0 -1 forward_v I I I I #
coedge $-1 $163 $164 $99 $165 forward $61 $-1 #
coedge $-1 $166 $63 $98 $165 reversed $39 $-1 #
coedge $-1 $63 $166 $167 $168 reversed $39 $-1 #
coedge $-1 $169 $170 $63 $102 reversed $160 $-1 #
edge $-1 $171 -11.685999720971759 $172 11.685999720971759 $101 $173 forward 7 unknown #
face $-1 $174 $175 $23 $-1 $176 forward single #
loop $-1 $-1 $177 $64 #
plane-surface $-1 38.911844445757808 96.648659304919164 132.62639067694718 -1 0 0 0 0.77714596973225614 0.62932038083071107 forward_v I I I I #
coedge $-1 $178 $179 $180 $181 reversed $65 $-1 #
coedge $-1 $108 $67 $182 $183 reversed $42 $-1 #
coedge $-1 $67 $107 $178 $184 reversed $42 $-1 #
coedge $-1 $180 $185 $67 $110 forward $175 $-1 #
edge $-1 $186 18.934653405264374 $187 26.352073672001822 $109 $188 forward 7 unknown #
loop $-1 $-1 $116 $68 #
plane-surface $-1 29.8572937723807 -7.6013682495571828 48.206385172964303 0 0.77714596973225614 0.62932038083071107 1 0 0 forward_v I I I I #
loop $-1 $-1 $189 $44 #
coedge $-1 $114 $114 $115 $190 reversed $69 $-1 #
coedge $-1 $115 $115 $114 $190 forward $71 $-1 #
coedge $-1 $116 $116 $72 $117 forward $111 $-1 #
edge $-1 $191 -9.7528708377771695e-017 $191 6.2831853071796004 $116 $192 forward 7 unknown #
loop $-1 $-1 $123 $73 #
plane-surface $-1 29.8572937723807 -7.6013682495571828 48.206385172964303 0 0.77714596973225614 0.62932038083071107 1 0 0 forward_v I I I I #
loop $-1 $-1 $193 $47 #
coedge $-1 $121 $121 $122 $194 reversed $74 $-1 #
coedge $-1 $122 $122 $121 $194 forward $76 $-1 #
coedge $-1 $123 $123 $77 $124 forward $118 $-1 #
edge $-1 $195 -9.7528708377771695e-017 $195 6.2831853071796004 $123 $196 forward 7 unknown #
face $-1 $197 $198 $26 $-1 $199 forward single #
loop $-1 $-1 $200 $78 #
plane-surface $-1 0 -29.389676247195208 0 0 1 0 0 0 1 forward_v I I I I #
coedge $-1 $201 $202 $203 $204 reversed $79 $-1 #
coedge $-1 $205 $81 $206 $207 reversed $51 $-1 #
coedge $-1 $81 $205 $201 $208 forward $51 $-1 #
coedge $-1 $203 $209 $81 $132 forward $198 $-1 #
edge $-1 $210 -40.96490598283664 $211 -11.250000823425253 $131 $212 forward 7 unknown #
loop $-1 $-1 $138 $82 #
plane-surface $-1 52.214906806261894 -29.389676247195212 7.3340725205275135 0 -0.7660444514056185 0.64278759981090561 1 0 0 forward_v I I I I #
loop $-1 $-1 $213 $53 #
coedge $-1 $136 $136 $137 $214 reversed $83 $-1 #
coedge $-1 $137 $137 $136 $214 forward $85 $-1 #
coedge $-1 $138 $138 $86 $139 forward $133 $-1 #
edge $-1 $215 -1.407847693078707e-015 $215 6.2831853071795987 $138 $216 forward 7 unknown #
face $-1 $217 $218 $21 $-1 $219 reversed single #
loop $-1 $-1 $220 $87 #
plane-surface $-1 -67.072359385967587 0 0 1 0 0 0 0 -1 forward_v I I I I #
coedge $-1 $221 $151 $222 $223 forward $88 $-1 #
coedge $-1 $224 $90 $221 $225 forward $57 $-1 #
coedge $-1 $90 $224 $226 $227 forward $57 $-1 #
coedge $-1 $154 $153 $90 $147 reversed $155 $-1 #
edge $-1 $228 -29.389676247195208 $229 29.389676247195208 $146 $230 forward 7 unknown #
coedge $-1 $92 $91 $220 $231 forward $36 $-1 #
coedge $-1 $232 $233 $91 $150 reversed $218 $-1 #
edge $-1 $157 -67.072359385967587 $234 67.072359385967587 $149 $235 forward 7 unknown #
coedge $-1 $143 $236 $92 $152 reversed $88 $-1 #
edge $-1 $237 -67.072359385967587 $156 67.072359385967587 $151 $238 forward 7 unknown #
coedge $-1 $146 $93 $236 $239 forward $155 $-1 #
coedge $-1 $93 $146 $232 $240 reversed $155 $-1 #
loop $-1 $-1 $153 $217 #
vertex $-1 $94 $241 #
vertex $-1 $94 $242 #
straight-curve $-1 67.072359385967587 0 11.685999720971759 0 1 0 I I #
face $-1 $243 $244 $22 $-1 $245 reversed single #
loop $-1 $-1 $101 $95 #
plane-surface $-1 -72.51780272712125 -24.276538700286057 0 0 -1 0 0 0 -1 forward_v I I I I #
coedge $-1 $246 $247 $248 $249 forward $96 $-1 #
coedge $-1 $250 $98 $170 $251 forward $61 $-1 #
coedge $-1 $98 $250 $252 $253 forward $61 $-1 #
edge $-1 $254 -29.389676247195208 $172 -24.276538700286057 $98 $255 forward 7 unknown #
coedge $-1 $100 $99 $256 $257 reversed $39 $-1 #
coedge $-1 $258 $259 $100 $168 forward $244 $-1 #
edge $-1 $171 24.276538700286057 $260 29.389676247195208 $167 $261 forward 7 unknown #
coedge $-1 $248 $101 $259 $262 reversed $160 $-1 #
coedge $-1 $101 $248 $163 $251 reversed $160 $-1 #
vertex $-1 $168 $263 #
vertex $-1 $251 $264 #
straight-curve $-1 -67.072359385967587 -24.276538700286057 0 0 0 1 I I #
face $-1 $-1 $265 $23 $-1 $266 reversed single #
loop $-1 $-1 $109 $103 #
plane-surface $-1 0 0 11.685999720971759 0 0 1 1 0 0 forward_v I I I I #
coedge $-1 $267 $268 $269 $270 reversed $104 $-1 #
coedge $-1 $271 $106 $108 $184 forward $65 $-1 #
coedge $-1 $106 $271 $267 $272 forward $65 $-1 #
coedge $-1 $269 $109 $106 $181 forward $175 $-1 #
edge $-1 $187 5.8740962128132423 $273 23.983197559567458 $180 $274 forward 7 unknown #
coedge $-1 $275 $276 $107 $183 forward $265 $-1 #
edge $-1 $277 -63.78694705999645 $186 -54.627195617501833 $182 $278 forward 7 unknown #
edge $-1 $187 46.992954830061876 $277 58.77935249439043 $108 $279 forward 7 unknown #
coedge $-1 $109 $269 $275 $280 forward $175 $-1 #
vertex $-1 $183 $281 #
vertex $-1 $110 $282 #
straight-curve $-1 20.802743099003592 48.324329652459582 11.685999720971758 0 -1 0 I I #
coedge $-1 $189 $189 $-1 $283 reversed $113 $-1 #
edge $-1 $284 0 $284 6.2831853071796004 $114 $285 forward 7 unknown #
vertex $-1 $117 $286 #
ellipse-curve $-1 25.976772055219087 25.680966113826486 7.1061239997244474 0 0.77714596973225614 0.62932038083071107 2 0 0 1 I I #
coedge $-1 $193 $193 $-1 $287 reversed $120 $-1 #
edge $-1 $288 0 $288 6.2831853071796004 $121 $289 forward 7 unknown #
vertex $-1 $124 $290 #
ellipse-curve $-1 33.737815489542328 25.680966113826486 7.1061239997244474 0 0.77714596973225614 0.62932038083071107 2 0 0 1 I I #
face $-1 $-1 $291 $26 $-1 $292 reversed single #
loop $-1 $-1 $203 $125 #
plane-surface $-1 0 0 11.685999720971759 0 0 1 1 0 0 forward_v I I I I #
coedge $-1 $293 $294 $202 $295 forward $126 $-1 #
coedge $-1 $202 $128 $130 $208 reversed $79 $-1 #
coedge $-1 $128 $201 $200 $295 reversed $79 $-1 #
coedge $-1 $296 $131 $128 $204 forward $198 $-1 #
edge $-1 $211 -40.337271039903662 $297 -36.685570626706422 $203 $298 forward 7 unknown #
coedge $-1 $130 $129 $293 $299 reversed $51 $-1 #
coedge $-1 $300 $301 $129 $207 forward $291 $-1 #
edge $-1 $302 -6.6365469467988341 $210 -0.95550951814979079 $206 $303 forward 7 unknown #
edge $-1 $304 5.6855610497590068e-015 $211 5.6810374286490495 $201 $305 forward 7 unknown #
coedge $-1 $131 $296 $300 $306 forward $198 $-1 #
vertex $-1 $207 $307 #
vertex $-1 $132 $308 #
straight-curve $-1 26.107453403130947 -25.737975833997972 11.685999720971759 -1 0 0 I I #
coedge $-1 $213 $213 $-1 $309 reversed $135 $-1 #
edge $-1 $310 0 $310 6.2831853071796004 $136 $311 forward 7 unknown #
vertex $-1 $139 $312 #
ellipse-curve $-1 52.214906806261894 -27.563826040596588 9.5100361207496409 0 -0.7660444514056185 0.64278759981090561 1 0 0 1 I I #
face $-1 $-1 $155 $21 $-1 $313 reversed single #
loop $-1 $-1 $232 $140 #
plane-surface $-1 0 29.389676247195208 0 0 -1 0 0 0 -1 forward_v I I I I #
coedge $-1 $314 $222 $148 $231 reversed $141 $-1 #
coedge $-1 $236 $143 $144 $225 reversed $88 $-1 #
coedge $-1 $220 $315 $143 $223 reversed $141 $-1 #
edge $-1 $237 -11.685999720971759 $316 11.685999720971759 $222 $317 forward 7 unknown #
coedge $-1 $145 $144 $315 $318 forward $57 $-1 #
edge $-1 $229 -67.072359385967587 $316 67.072359385967587 $221 $319 forward 7 unknown #
coedge $-1 $233 $232 $145 $227 reversed $218 $-1 #
edge $-1 $320 -67.072359385967587 $228 67.072359385967587 $226 $321 forward 7 unknown #
vertex $-1 $147 $322 #
vertex $-1 $239 $323 #
straight-curve $-1 67.072359385967587 0 -11.685999720971759 0 -1 0 I I #
edge $-1 $234 -29.389676247195208 $237 29.389676247195208 $220 $324 forward 7 unknown #
coedge $-1 $226 $149 $154 $240 forward $218 $-1 #
coedge $-1 $149 $226 $314 $325 reversed $218 $-1 #
vertex $-1 $150 $326 #
straight-curve $-1 0 29.389676247195208 11.685999720971759 -1 0 0 I I #
coedge $-1 $151 $221 $153 $239 reversed $88 $-1 #
vertex $-1 $231 $327 #
straight-curve $-1 0 -29.389676247195208 11.685999720971759 1 0 0 I I #
edge $-1 $156 -11.685999720971759 $229 11.685999720971759 $153 $328 forward 7 unknown #
edge $-1 $157 -11.685999720971759 $228 11.685999720971759 $154 $329 forward 7 unknown #
point $-1 67.072359385967587 -29.389676247195208 11.685999720971759 #
point $-1 67.072359385967587 29.389676247195208 11.685999720971759 #
face $-1 $-1 $330 $22 $-1 $331 reversed single #
loop $-1 $-1 $167 $159 #
plane-surface $-1 0 0 -11.685999720971759 0 0 1 1 0 0 forward_v I I I I #
coedge $-1 $332 $162 $333 $334 reversed $96 $-1 #
coedge $-1 $162 $332 $250 $335 reversed $96 $-1 #
coedge $-1 $170 $169 $162 $249 reversed $160 $-1 #
edge $-1 $336 -11.685999720971759 $337 11.685999720971759 $248 $338 forward 7 unknown #
coedge $-1 $164 $163 $247 $335 forward $61 $-1 #
edge $-1 $172 -5.4454433411536627 $336 5.4454433411536627 $170 $339 forward 7 unknown #
coedge $-1 $340 $256 $164 $253 reversed $330 $-1 #
edge $-1 $341 -77.963246068274913 $254 -67.072359385967587 $252 $342 forward 7 unknown #
vertex $-1 $257 $343 #
straight-curve $-1 -67.072359385967587 0 11.685999720971759 0 1 0 I I #
coedge $-1 $252 $344 $166 $257 forward $330 $-1 #
edge $-1 $260 -11.685999720971759 $254 11.685999720971759 $256 $345 forward 7 unknown #
coedge $-1 $333 $167 $344 $346 forward $244 $-1 #
coedge $-1 $167 $333 $169 $262 forward $244 $-1 #
vertex $-1 $346 $347 #
straight-curve $-1 -67.072359385967587 0 -11.685999720971759 0 -1 0 I I #
edge $-1 $337 -5.4454433411536627 $171 5.4454433411536627 $169 $348 forward 7 unknown #
point $-1 -67.072359385967587 -24.276538700286057 -11.685999720971759 #
point $-1 -67.072359385967587 -24.276538700286057 11.685999720971759 #
loop $-1 $-1 $182 $174 #
plane-surface $-1 0 29.389676247195208 0 0 -1 0 0 0 -1 forward_v I I I I #
coedge $-1 $268 $177 $179 $272 reversed $104 $-1 #
coedge $-1 $177 $267 $349 $350 reversed $104 $-1 #
coedge $-1 $185 $180 $177 $270 forward $175 $-1 #
edge $-1 $273 -26.352073672001822 $351 -18.934653405264374 $269 $352 forward 7 unknown #
coedge $-1 $179 $178 $276 $353 reversed $65 $-1 #
edge $-1 $354 -58.77935249439043 $273 -46.992954830061876 $267 $355 forward 7 unknown #
vertex $-1 $181 $356 #
straight-curve $-1 14.92864688619035 21.972255980457756 11.685999720971758 1 0 0 I I #
coedge $-1 $349 $182 $185 $280 reversed $265 $-1 #
coedge $-1 $182 $349 $271 $353 forward $265 $-1 #
vertex $-1 $183 $357 #
straight-curve $-1 20.802743099003592 29.389676247195212 66.313195338473591 0 0 1 I I #
straight-curve $-1 20.802743099003592 -7.6013682495571828 48.206385172964303 0 0.62932038083071107 -0.77714596973225614 I I #
edge $-1 $351 -38.911844445757808 $186 -20.802743099003592 $275 $358 forward 7 unknown #
point $-1 20.802743099003592 29.389676247195208 11.685999720971759 #
point $-1 20.802743099003592 21.97225598045776 11.685999720971758 #
edge $-1 $359 1 $359 0 $189 $-1 forward 7 unknown #
vertex $-1 $190 $360 #
ellipse-curve $-1 25.976772055219087 20.089224523204983 2.5780210636322458 0 0.77714596973225614 0.62932038083071107 2 0 0 1 I I #
point $-1 27.976772055219087 25.680966113826496 7.1061239997244563 #
edge $-1 $361 1 $361 0 $193 $-1 forward 7 unknown #
vertex $-1 $194 $362 #
ellipse-curve $-1 33.737815489542328 20.089224523204983 2.5780210636322458 0 0.77714596973225614 0.62932038083071107 2 0 0 1 I I #
point $-1 35.737815489542328 25.680966113826496 7.1061239997244563 #
loop $-1 $-1 $206 $197 #
plane-surface $-1 67.072359385967587 0 0 -1 0 0 0 0 1 forward_v I I I I #
coedge $-1 $363 $200 $205 $299 forward $126 $-1 #
coedge $-1 $200 $363 $296 $364 reversed $126 $-1 #
edge $-1 $297 35.094317442652574 $304 39.446244643096811 $200 $365 forward 7 unknown #
coedge $-1 $209 $203 $294 $364 forward $198 $-1 #
vertex $-1 $364 $366 #
straight-curve $-1 37.3574542265562 -66.075246873901634 11.685999720971758 0 -1 0 I I #
edge $-1 $304 11.250000823425253 $302 40.96490598283664 $293 $367 forward 7 unknown #
coedge $-1 $301 $206 $209 $306 reversed $291 $-1 #
coedge $-1 $206 $300 $363 $368 forward $291 $-1 #
vertex $-1 $299 $369 #
straight-curve $-1 67.072359385967587 -25.12378616422999 12.417962485615661 0 0.64278759981090572 0.76604445140561861 I I #
vertex $-1 $299 $370 #
straight-curve $-1 37.3574542265562 -29.389676247195212 7.3340725205275135 0 0.64278759981090561 0.7660444514056185 I I #
edge $-1 $371 -29.389676247195208 $210 -25.737975833997972 $300 $372 forward 7 unknown #
point $-1 67.072359385967587 -25.737975833997972 11.685999720971759 #
point $-1 37.3574542265562 -25.737975833997972 11.685999720971759 #
edge $-1 $373 1 $373 0 $213 $-1 forward 7 unknown #
vertex $-1 $214 $374 #
ellipse-curve $-1 52.214906806261894 -25.061995512238163 7.4107511020978265 0 -0.7660444514056185 0.64278759981090561 1 0 0 1 I I #
point $-1 53.214906806261894 -27.563826040596599 9.510036120749648 #
plane-surface $-1 67.072359385967587 0 0 -1 0 0 0 0 1 forward_v I I I I #
coedge $-1 $315 $220 $233 $325 forward $141 $-1 #
coedge $-1 $222 $314 $224 $318 reversed $141 $-1 #
vertex $-1 $318 $375 #
straight-curve $-1 -67.072359385967587 -29.389676247195208 0 0 0 -1 I I #
edge $-1 $316 -29.389676247195208 $320 29.389676247195208 $315 $376 forward 7 unknown #
straight-curve $-1 0 -29.389676247195208 -11.685999720971759 -1 0 0 I I #
vertex $-1 $227 $377 #
straight-curve $-1 0 29.389676247195208 -11.685999720971759 1 0 0 I I #
point $-1 67.072359385967587 29.389676247195208 -11.685999720971759 #
point $-1 67.072359385967587 -29.389676247195208 -11.685999720971759 #
straight-curve $-1 -67.072359385967587 0 11.685999720971759 0 -1 0 I I #
edge $-1 $234 -11.685999720971759 $320 11.685999720971759 $233 $378 forward 7 unknown #
point $-1 -67.072359385967587 29.389676247195208 11.685999720971759 #
point $-1 -67.072359385967587 -29.389676247195208 11.685999720971759 #
straight-curve $-1 67.072359385967587 -29.389676247195208 0 0 0 -1 I I #
straight-curve $-1 67.072359385967587 29.389676247195208 0 0 0 -1 I I #
loop $-1 $-1 $256 $243 #
plane-surface $-1 0 -29.389676247195208 0 0 1 0 0 0 1 forward_v I I I I #
coedge $-1 $247 $246 $340 $379 reversed $96 $-1 #
coedge $-1 $259 $258 $246 $334 forward $244 $-1 #
edge $-1 $380 -2.5565687734545754 $337 2.5565687734545754 $246 $381 forward 7 unknown #
edge $-1 $336 -2.5565687734545754 $341 2.5565687734545754 $247 $382 forward 7 unknown #
vertex $-1 $251 $383 #
vertex $-1 $262 $384 #
straight-curve $-1 -77.963246068274913 -24.276538700286057 0 0 0 -1 I I #
straight-curve $-1 -72.51780272712125 -24.276538700286057 11.685999720971759 -1 0 0 I I #
coedge $-1 $344 $252 $332 $379 forward $330 $-1 #
vertex $-1 $335 $385 #
straight-curve $-1 0 -29.389676247195208 11.685999720971759 1 0 0 I I #
point $-1 -67.072359385967587 -29.389676247195208 11.685999720971759 #
coedge $-1 $256 $340 $258 $346 reversed $330 $-1 #
straight-curve $-1 -67.072359385967587 -29.389676247195208 0 0 0 1 I I #
edge $-1 $260 -5.4454433411536627 $380 5.4454433411536627 $344 $386 forward 7 unknown #
point $-1 -67.072359385967587 -29.389676247195208 -11.685999720971759 #
straight-curve $-1 -72.51780272712125 -24.276538700286057 -11.685999720971759 1 0 0 I I #
coedge $-1 $276 $275 $268 $350 forward $265 $-1 #
edge $-1 $351 54.627195617501833 $354 63.78694705999645 $349 $387 forward 7 unknown #
vertex $-1 $280 $388 #
straight-curve $-1 38.911844445757808 48.324329652459582 11.685999720971758 0 1 0 I I #
edge $-1 $354 -23.983197559567458 $277 -5.8740962128132423 $276 $389 forward 7 unknown #
vertex $-1 $353 $390 #
straight-curve $-1 38.911844445757808 -7.6013682495571828 48.206385172964303 0 -0.62932038083071107 0.77714596973225614 I I #
point $-1 38.911844445757808 21.97225598045776 11.685999720971758 #
point $-1 20.802743099003592 29.389676247195212 2.5262482784771407 #
straight-curve $-1 0 29.389676247195208 11.685999720971759 -1 0 0 I I #
vertex $-1 $283 $391 #
point $-1 27.976772055219087 20.089224523204983 2.5780210636322458 #
vertex $-1 $287 $392 #
point $-1 35.737815489542328 20.089224523204983 2.5780210636322458 #
coedge $-1 $294 $293 $301 $368 reversed $126 $-1 #
edge $-1 $297 37.3574542265562 $371 67.072359385967587 $294 $393 forward 7 unknown #
straight-curve $-1 37.3574542265562 -29.389676247195212 46.780317163624332 0 0 -1 I I #
point $-1 37.3574542265562 -29.389676247195208 11.685999720971759 #
straight-curve $-1 26.107453403130947 -29.389676247195208 7.3340725205275179 1 0 0 I I #
edge $-1 $371 -11.685999720971759 $302 -7.3340725205275179 $301 $394 forward 7 unknown #
point $-1 67.072359385967587 -29.389676247195208 7.3340725205275179 #
point $-1 37.3574542265562 -29.389676247195208 7.3340725205275179 #
vertex $-1 $306 $395 #
straight-curve $-1 67.072359385967587 0 11.685999720971759 0 1 0 I I #
vertex $-1 $309 $396 #
point $-1 53.214906806261894 -25.061995512238163 7.4107511020978265 #
point $-1 -67.072359385967587 -29.389676247195208 -11.685999720971759 #
straight-curve $-1 -67.072359385967587 0 -11.685999720971759 0 1 0 I I #
point $-1 -67.072359385967587 29.389676247195208 -11.685999720971759 #
straight-curve $-1 -67.072359385967587 29.389676247195208 0 0 0 -1 I I #
edge $-1 $341 -11.685999720971759 $380 11.685999720971759 $332 $397 forward 7 unknown #
vertex $-1 $334 $398 #
straight-curve $-1 -77.963246068274913 -26.833107473740633 -11.685999720971759 0 1 0 I I #
straight-curve $-1 -77.963246068274913 -26.833107473740633 11.685999720971759 0 -1 0 I I #
point $-1 -77.963246068274913 -24.276538700286057 11.685999720971759 #
point $-1 -77.963246068274913 -24.276538700286057 -11.685999720971759 #
point $-1 -77.963246068274913 -29.389676247195208 11.685999720971759 #
straight-curve $-1 -72.51780272712125 -29.389676247195208 -11.685999720971759 -1 0 0 I I #
straight-curve $-1 38.911844445757808 29.389676247195212 66.313195338473591 0 0 -1 I I #
point $-1 38.911844445757808 29.389676247195208 11.685999720971759 #
straight-curve $-1 14.92864688619035 29.389676247195208 2.5262482784771478 -1 0 0 I I #
point $-1 38.911844445757808 29.389676247195212 2.5262482784771407 #
point $-1 25.976772055219087 18.534932583740471 1.3193803019708239 #
point $-1 33.737815489542328 18.534932583740471 1.3193803019708239 #
straight-curve $-1 0 -29.389676247195208 11.685999720971759 1 0 0 I I #
straight-curve $-1 67.072359385967587 -29.389676247195208 0 0 0 -1 I I #
point $-1 67.072359385967587 -29.389676247195208 11.685999720971759 #
point $-1 52.214906806261894 -24.295951060832543 6.7679635022869213 #
straight-curve $-1 -77.963246068274913 -29.389676247195208 0 0 0 -1 I I #
point $-1 -77.963246068274913 -29.389676247195208 -11.685999720971759 #
End-of-ACIS-data 