500 0 13 0           
7 Unknown 11 ACIS 5.0 NT 24 Fri Mar 26 17:39:38 1999 
-1 9.9999999999999995e-007 1e-010 
body $-1 $13 $-1 $14 #
body $-1 $15 $-1 $16 #
body $-1 $17 $-1 $18 #
body $-1 $19 $-1 $20 #
body $-1 $21 $-1 $22 #
body $-1 $23 $-1 $24 #
body $-1 $25 $-1 $26 #
body $-1 $27 $-1 $28 #
body $-1 $29 $-1 $30 #
body $-1 $31 $-1 $32 #
body $-1 $33 $-1 $34 #
body $-1 $35 $-1 $36 #
body $-1 $37 $-1 $38 #
lump $-1 $-1 $39 $0 #
transform $-1 1 0 0 0 1 0 0 0 1 62.122257148960848 29.340429072286238 5.9911173692084345 1 rotate no_reflect no_shear #
lump $-1 $-1 $40 $1 #
transform $-1 1 0 0 0 1 0 0 0 1 62.122257148960848 29.340429072286238 5.9911173692084345 1 rotate no_reflect no_shear #
lump $-1 $-1 $41 $2 #
transform $-1 1 0 0 0 1 0 0 0 1 62.122257148960848 29.340429072286238 5.9911173692084345 1 rotate no_reflect no_shear #
lump $-1 $-1 $42 $3 #
transform $-1 1 0 0 0 1 0 0 0 1 62.122257148960848 29.340429072286238 5.9911173692084345 1 rotate no_reflect no_shear #
lump $-1 $-1 $43 $4 #
transform $-1 1 0 0 0 1 0 0 0 1 62.122257148960848 29.340429072286238 5.9911173692084345 1 rotate no_reflect no_shear #
lump $-1 $-1 $44 $5 #
transform $-1 1 0 0 0 1 0 0 0 1 62.122257148960848 29.340429072286238 5.9911173692084345 1 rotate no_reflect no_shear #
lump $-1 $-1 $45 $6 #
transform $-1 1 0 0 0 1 0 0 0 1 62.122257148960848 29.340429072286238 5.9911173692084345 1 rotate no_reflect no_shear #
lump $-1 $-1 $46 $7 #
transform $-1 1 0 0 0 1 0 0 0 1 62.122257148960848 29.340429072286238 5.9911173692084345 1 rotate no_reflect no_shear #
lump $-1 $-1 $47 $8 #
transform $-1 1 0 0 0 1 0 0 0 1 62.122257148960848 29.340429072286238 5.9911173692084345 1 rotate no_reflect no_shear #
lump $-1 $-1 $48 $9 #
transform $-1 1 0 0 0 1 0 0 0 1 62.122257148960848 29.340429072286238 5.9911173692084345 1 rotate no_reflect no_shear #
lump $-1 $-1 $49 $10 #
transform $-1 1 0 0 0 1 0 0 0 1 62.122257148960848 29.340429072286238 5.9911173692084345 1 rotate no_reflect no_shear #
lump $-1 $-1 $50 $11 #
transform $-1 1 0 0 0 1 0 0 0 1 62.122257148960848 29.340429072286238 5.9911173692084345 1 rotate no_reflect no_shear #
lump $-1 $-1 $51 $12 #
transform $-1 1 0 0 0 1 0 0 0 1 62.122257148960848 29.340429072286238 5.9911173692084345 1 rotate no_reflect no_shear #
shell $-1 $-1 $-1 $52 $-1 $13 #
shell $-1 $-1 $-1 $53 $-1 $15 #
shell $-1 $-1 $-1 $54 $-1 $17 #
shell $-1 $-1 $-1 $55 $-1 $19 #
shell $-1 $-1 $-1 $56 $-1 $21 #
shell $-1 $-1 $-1 $57 $-1 $23 #
shell $-1 $-1 $-1 $58 $-1 $25 #
shell $-1 $-1 $-1 $59 $-1 $27 #
shell $-1 $-1 $-1 $60 $-1 $29 #
shell $-1 $-1 $-1 $61 $-1 $31 #
shell $-1 $-1 $-1 $62 $-1 $33 #
shell $-1 $-1 $-1 $63 $-1 $35 #
shell $-1 $-1 $-1 $64 $-1 $37 #
face $-1 $65 $66 $39 $-1 $67 forward single #
face $-1 $68 $69 $40 $-1 $70 forward single #
face $-1 $71 $72 $41 $-1 $73 forward single #
face $-1 $74 $75 $42 $-1 $76 reversed single #
face $-1 $77 $78 $43 $-1 $79 forward single #
face $-1 $80 $81 $44 $-1 $82 forward single #
face $-1 $83 $84 $45 $-1 $85 forward single #
face $-1 $86 $87 $46 $-1 $88 reversed single #
face $-1 $89 $90 $47 $-1 $91 forward single #
face $-1 $92 $93 $48 $-1 $94 forward single #
face $-1 $95 $96 $49 $-1 $97 reversed single #
face $-1 $98 $99 $50 $-1 $100 forward single #
face $-1 $101 $102 $51 $-1 $103 forward single #
face $-1 $104 $105 $39 $-1 $106 reversed single #
loop $-1 $-1 $107 $52 #
plane-surface $-1 0 0 5.9911173692084345 0 0 1 1 0 0 forward_v I I I I #
face $-1 $108 $109 $40 $-1 $110 reversed single #
loop $-1 $-1 $111 $53 #
plane-surface $-1 0 -26.368822424040744 -2.6832131600881253 0 0 1 1 0 0 forward_v I I I I #
face $-1 $112 $113 $41 $-1 $114 reversed single #
loop $-1 $-1 $115 $54 #
plane-surface $-1 0 26.82907451567154 -0.20525171111348439 0 0 1 1 0 0 forward_v I I I I #
face $-1 $116 $117 $42 $-1 $118 reversed single #
loop $-1 $-1 $119 $55 #
plane-surface $-1 16.645609947861637 -16.662368637929731 171.03383346508235 0 -1 0 -0.50000000669873634 0 -0.8660253999169214 forward_v I I I I #
face $-1 $120 $121 $43 $-1 $122 forward single #
loop $-1 $123 $124 $56 #
cone-surface $-1 57.793964362774425 -22.050246348222146 3.1727413044096551 -0.50000000669873634 0 -0.8660253999169214 0.4330126999584607 0 -0.25000000334936817 1 I I 0 1 0.5 forward I I I I #
face $-1 $125 $126 $44 $-1 $127 forward single #
loop $-1 $128 $129 $57 #
cone-surface $-1 57.793964362774425 -20.029792206862492 3.1727413044096551 -0.50000000669873634 0 -0.8660253999169214 0.4330126999584607 0 -0.25000000334936817 1 I I 0 1 0.5 forward I I I I #
face $-1 $130 $131 $45 $-1 $132 forward single #
loop $-1 $133 $134 $58 #
cone-surface $-1 57.793964362774425 -18.009338065502835 3.1727413044096551 -0.50000000669873634 0 -0.8660253999169214 0.4330126999584607 0 -0.25000000334936817 1 I I 0 1 0.5 forward I I I I #
face $-1 $135 $136 $46 $-1 $137 reversed single #
loop $-1 $-1 $138 $59 #
plane-surface $-1 -157.29907794446979 -15.098694322462688 81.040037322168203 0 1 0 -0.7660444514056185 0 0.64278759981090561 forward_v I I I I #
face $-1 $139 $140 $47 $-1 $141 forward single #
loop $-1 $142 $143 $60 #
cone-surface $-1 -59.719558588253207 -12.751700834984312 3.2627669781664612 0.7660444514056185 0 -0.64278759981090561 0.3213937999054528 0 0.38302222570280925 1 I I 0 1 0.5 forward I I I I #
face $-1 $144 $145 $48 $-1 $146 forward single #
loop $-1 $147 $148 $61 #
cone-surface $-1 -59.719558588253207 -9.2312106037667512 3.2627669781664612 0.7660444514056185 0 -0.64278759981090561 0.3213937999054528 0 0.38302222570280925 1 I I 0 1 0.5 forward I I I I #
face $-1 $149 $150 $49 $-1 $151 reversed single #
loop $-1 $-1 $152 $62 #
plane-surface $-1 -157.29907794446979 8.7587735449633541 81.040037322168203 0 1 0 -0.7660444514056185 0 0.64278759981090561 forward_v I I I I #
face $-1 $153 $154 $50 $-1 $155 forward single #
loop $-1 $156 $157 $63 #
cone-surface $-1 -59.719558588253207 11.105767032441729 3.2627669781664612 0.7660444514056185 0 -0.64278759981090561 0.3213937999054528 0 0.38302222570280925 1 I I 0 1 0.5 forward I I I I #
face $-1 $158 $159 $51 $-1 $160 forward single #
loop $-1 $161 $162 $64 #
cone-surface $-1 -59.719558588253207 14.626257263659287 3.2627669781664612 0.7660444514056185 0 -0.64278759981090561 0.3213937999054528 0 0.38302222570280925 1 I I 0 1 0.5 forward I I I I #
face $-1 $163 $164 $39 $-1 $165 reversed single #
loop $-1 $-1 $166 $65 #
plane-surface $-1 0 0 -5.9911173692084345 0 0 1 1 0 0 forward_v I I I I #
coedge $-1 $167 $168 $169 $170 forward $66 $-1 #
face $-1 $171 $172 $40 $-1 $173 reversed single #
loop $-1 $-1 $174 $68 #
plane-surface $-1 0 -23.397215775795249 -4.3371652646482799 0 -1 0 0 0 -1 forward_v I I I I #
coedge $-1 $175 $176 $177 $178 reversed $69 $-1 #
face $-1 $179 $180 $41 $-1 $181 reversed single #
loop $-1 $-1 $182 $71 #
plane-surface $-1 0 26.82907451567154 -3.5417520918864982 0 0 1 1 0 0 forward_v I I I I #
coedge $-1 $183 $184 $185 $186 reversed $72 $-1 #
face $-1 $187 $188 $42 $-1 $189 reversed single #
loop $-1 $-1 $190 $74 #
plane-surface $-1 -45.476648033380457 -20.029792206862492 63.434928282741055 0.50000000669873634 0 0.8660253999169214 0.8660253999169214 0 -0.50000000669873634 forward_v I I I I #
coedge $-1 $191 $192 $193 $194 reversed $75 $-1 #
face $-1 $-1 $195 $43 $-1 $196 forward single #
loop $-1 $197 $198 $77 #
cone-surface $-1 57.392325513434621 -22.050246348222146 2.4770824234863698 -0.50000000669873634 0 -0.8660253999169214 0.21650634997923035 0 -0.12500000167468409 1 I I -0.70710678118654746 0.70710678118654746 0.25 forward I I I I #
loop $-1 $-1 $199 $56 #
coedge $-1 $124 $124 $200 $201 reversed $78 $-1 #
face $-1 $-1 $202 $44 $-1 $203 forward single #
loop $-1 $204 $205 $80 #
cone-surface $-1 57.392325513434621 -20.029792206862492 2.4770824234863698 -0.50000000669873634 0 -0.8660253999169214 0.21650634997923035 0 -0.12500000167468409 1 I I -0.70710678118654746 0.70710678118654746 0.25 forward I I I I #
loop $-1 $-1 $206 $57 #
coedge $-1 $129 $129 $207 $208 reversed $81 $-1 #
face $-1 $-1 $209 $45 $-1 $210 forward single #
loop $-1 $211 $212 $83 #
cone-surface $-1 57.392325513434621 -18.009338065502835 2.4770824234863698 -0.50000000669873634 0 -0.8660253999169214 0.21650634997923035 0 -0.12500000167468409 1 I I -0.70710678118654746 0.70710678118654746 0.25 forward I I I I #
loop $-1 $-1 $213 $58 #
coedge $-1 $134 $134 $214 $215 reversed $84 $-1 #
face $-1 $216 $217 $46 $-1 $218 reversed single #
loop $-1 $-1 $219 $86 #
plane-surface $-1 -62.122257148960841 -10.99145571937553 1.17720418693537 -0.7660444514056185 0 0.64278759981090561 0.64278759981090561 0 0.7660444514056185 forward_v I I I I #
coedge $-1 $220 $221 $222 $223 reversed $87 $-1 #
face $-1 $-1 $224 $47 $-1 $225 forward single #
loop $-1 $226 $227 $89 #
cone-surface $-1 -59.145025249698996 -12.751700834984312 2.7806762783082819 0.7660444514056185 0 -0.64278759981090561 0.1606968999527264 0 0.19151111285140462 1 I I -0.70710678118654746 0.70710678118654746 0.25 forward I I I I #
loop $-1 $-1 $228 $60 #
coedge $-1 $143 $143 $229 $230 reversed $90 $-1 #
face $-1 $-1 $231 $48 $-1 $232 forward single #
loop $-1 $233 $234 $92 #
cone-surface $-1 -59.145025249698996 -9.2312106037667512 2.7806762783082819 0.7660444514056185 0 -0.64278759981090561 0.1606968999527264 0 0.19151111285140462 1 I I -0.70710678118654746 0.70710678118654746 0.25 forward I I I I #
loop $-1 $-1 $235 $61 #
coedge $-1 $148 $148 $236 $237 reversed $93 $-1 #
face $-1 $238 $239 $49 $-1 $240 reversed single #
loop $-1 $-1 $241 $95 #
plane-surface $-1 -62.122257148960841 12.866012148050512 1.17720418693537 -0.7660444514056185 0 0.64278759981090561 0.64278759981090561 0 0.7660444514056185 forward_v I I I I #
coedge $-1 $242 $243 $244 $245 reversed $96 $-1 #
face $-1 $-1 $246 $50 $-1 $247 forward single #
loop $-1 $248 $249 $98 #
cone-surface $-1 -59.145025249698996 11.105767032441729 2.7806762783082819 0.7660444514056185 0 -0.64278759981090561 0.1606968999527264 0 0.19151111285140462 1 I I -0.70710678118654746 0.70710678118654746 0.25 forward I I I I #
loop $-1 $-1 $250 $63 #
coedge $-1 $157 $157 $251 $252 reversed $99 $-1 #
face $-1 $-1 $253 $51 $-1 $254 forward single #
loop $-1 $255 $256 $101 #
cone-surface $-1 -59.145025249698996 14.626257263659287 2.7806762783082819 0.7660444514056185 0 -0.64278759981090561 0.1606968999527264 0 0.19151111285140462 1 I I -0.70710678118654746 0.70710678118654746 0.25 forward I I I I #
loop $-1 $-1 $257 $64 #
coedge $-1 $162 $162 $258 $259 reversed $102 $-1 #
face $-1 $260 $261 $39 $-1 $262 reversed single #
loop $-1 $-1 $263 $104 #
plane-surface $-1 0 -29.340429072286238 0 0 1 0 0 0 1 forward_v I I I I #
coedge $-1 $264 $265 $266 $267 forward $105 $-1 #
coedge $-1 $268 $107 $269 $270 forward $66 $-1 #
coedge $-1 $107 $268 $271 $272 forward $66 $-1 #
coedge $-1 $273 $274 $107 $170 reversed $275 $-1 #
edge $-1 $276 -29.340429072286238 $277 29.340429072286238 $169 $278 forward 7 unknown #
face $-1 $279 $280 $40 $-1 $281 reversed single #
loop $-1 $-1 $282 $108 #
plane-surface $-1 0 0 -5.9911173692084345 0 0 1 1 0 0 forward_v I I I I #
coedge $-1 $283 $284 $285 $286 reversed $109 $-1 #
coedge $-1 $287 $111 $284 $288 forward $69 $-1 #
coedge $-1 $111 $287 $289 $290 reversed $69 $-1 #
coedge $-1 $291 $285 $111 $178 forward $280 $-1 #
edge $-1 $292 10.212804563774878 $293 16.156017860265866 $177 $294 forward 7 unknown #
face $-1 $295 $296 $41 $-1 $297 reversed single #
loop $-1 $-1 $298 $112 #
plane-surface $-1 0 24.317719959056841 -1.8735019014999912 0 1 0 0 0 1 forward_v I I I I #
coedge $-1 $299 $300 $301 $302 reversed $113 $-1 #
coedge $-1 $303 $115 $304 $305 reversed $72 $-1 #
coedge $-1 $115 $303 $306 $307 forward $72 $-1 #
coedge $-1 $308 $309 $115 $186 forward $296 $-1 #
edge $-1 $310 -15.925891814450468 $311 -10.903182701221072 $185 $312 forward 7 unknown #
face $-1 $313 $314 $42 $-1 $315 forward single #
loop $-1 $-1 $316 $116 #
plane-surface $-1 16.645609947861637 -23.397215775795253 171.03383346508235 0 1 0 0.50000000669873634 0 0.8660253999169214 forward_v I I I I #
coedge $-1 $317 $318 $319 $320 reversed $117 $-1 #
coedge $-1 $192 $119 $321 $322 reversed $75 $-1 #
coedge $-1 $119 $191 $317 $323 reversed $75 $-1 #
coedge $-1 $319 $324 $119 $194 forward $314 $-1 #
edge $-1 $325 -53.799452175030027 $326 -45.696144297987388 $193 $327 forward 7 unknown #
loop $-1 $-1 $200 $120 #
plane-surface $-1 -45.476648033380457 -20.029792206862492 63.434928282741055 0.50000000669873634 0 0.8660253999169214 0.8660253999169214 0 -0.50000000669873634 forward_v I I I I #
loop $-1 $-1 $328 $77 #
coedge $-1 $198 $198 $199 $329 reversed $121 $-1 #
coedge $-1 $199 $199 $198 $329 forward $123 $-1 #
coedge $-1 $200 $200 $124 $201 forward $195 $-1 #
edge $-1 $330 0 $330 6.2831853071796004 $200 $331 forward 7 unknown #
loop $-1 $-1 $207 $125 #
plane-surface $-1 -45.476648033380457 -20.029792206862492 63.434928282741055 0.50000000669873634 0 0.8660253999169214 0.8660253999169214 0 -0.50000000669873634 forward_v I I I I #
loop $-1 $-1 $332 $80 #
coedge $-1 $205 $205 $206 $333 reversed $126 $-1 #
coedge $-1 $206 $206 $205 $333 forward $128 $-1 #
coedge $-1 $207 $207 $129 $208 forward $202 $-1 #
edge $-1 $334 0 $334 6.2831853071796004 $207 $335 forward 7 unknown #
loop $-1 $-1 $214 $130 #
plane-surface $-1 -45.476648033380457 -20.029792206862492 63.434928282741055 0.50000000669873634 0 0.8660253999169214 0.8660253999169214 0 -0.50000000669873634 forward_v I I I I #
loop $-1 $-1 $336 $83 #
coedge $-1 $212 $212 $213 $337 reversed $131 $-1 #
coedge $-1 $213 $213 $212 $337 forward $133 $-1 #
coedge $-1 $214 $214 $134 $215 forward $209 $-1 #
edge $-1 $338 0 $338 6.2831853071796004 $214 $339 forward 7 unknown #
face $-1 $340 $341 $46 $-1 $342 reversed single #
loop $-1 $-1 $343 $135 #
plane-surface $-1 -157.29907794446979 -6.8842171162883732 81.040037322168203 0 -1 0 0.7660444514056185 0 -0.64278759981090561 forward_v I I I I #
coedge $-1 $344 $345 $346 $347 reversed $136 $-1 #
coedge $-1 $221 $138 $348 $349 reversed $87 $-1 #
coedge $-1 $138 $220 $344 $350 reversed $87 $-1 #
coedge $-1 $346 $351 $138 $223 forward $352 $-1 #
edge $-1 $353 16.527281823274045 $354 20.566634493283729 $222 $355 forward 7 unknown #
loop $-1 $-1 $229 $139 #
plane-surface $-1 -62.122257148960841 -10.99145571937553 1.17720418693537 -0.7660444514056185 0 0.64278759981090561 0.64278759981090561 0 0.7660444514056185 forward_v I I I I #
loop $-1 $-1 $356 $89 #
coedge $-1 $227 $227 $228 $357 reversed $140 $-1 #
coedge $-1 $228 $228 $227 $357 forward $142 $-1 #
coedge $-1 $229 $229 $143 $230 forward $224 $-1 #
edge $-1 $358 0 $358 6.2831853071796004 $229 $359 forward 7 unknown #
loop $-1 $-1 $236 $144 #
plane-surface $-1 -62.122257148960841 -10.99145571937553 1.17720418693537 -0.7660444514056185 0 0.64278759981090561 0.64278759981090561 0 0.7660444514056185 forward_v I I I I #
loop $-1 $-1 $360 $92 #
coedge $-1 $234 $234 $235 $361 reversed $145 $-1 #
coedge $-1 $235 $235 $234 $361 forward $147 $-1 #
coedge $-1 $236 $236 $148 $237 forward $231 $-1 #
edge $-1 $362 0 $362 6.2831853071796004 $236 $363 forward 7 unknown #
face $-1 $364 $365 $49 $-1 $366 reversed single #
loop $-1 $-1 $367 $149 #
plane-surface $-1 -157.29907794446979 16.97325075113767 81.040037322168203 0 -1 0 0.7660444514056185 0 -0.64278759981090561 forward_v I I I I #
coedge $-1 $368 $369 $370 $371 reversed $150 $-1 #
coedge $-1 $243 $152 $372 $373 reversed $96 $-1 #
coedge $-1 $152 $242 $368 $374 reversed $96 $-1 #
coedge $-1 $370 $375 $152 $245 forward $376 $-1 #
edge $-1 $377 16.527281823274045 $378 20.566634493283729 $244 $379 forward 7 unknown #
loop $-1 $-1 $251 $153 #
plane-surface $-1 -62.122257148960841 12.866012148050512 1.17720418693537 -0.7660444514056185 0 0.64278759981090561 0.64278759981090561 0 0.7660444514056185 forward_v I I I I #
loop $-1 $-1 $380 $98 #
coedge $-1 $249 $249 $250 $381 reversed $154 $-1 #
coedge $-1 $250 $250 $249 $381 forward $156 $-1 #
coedge $-1 $251 $251 $157 $252 forward $246 $-1 #
edge $-1 $382 0 $382 6.2831853071796004 $251 $383 forward 7 unknown #
loop $-1 $-1 $258 $158 #
plane-surface $-1 -62.122257148960841 12.866012148050512 1.17720418693537 -0.7660444514056185 0 0.64278759981090561 0.64278759981090561 0 0.7660444514056185 forward_v I I I I #
loop $-1 $-1 $384 $101 #
coedge $-1 $256 $256 $257 $385 reversed $159 $-1 #
coedge $-1 $257 $257 $256 $385 forward $161 $-1 #
coedge $-1 $258 $258 $162 $259 forward $253 $-1 #
edge $-1 $386 0 $386 6.2831853071796004 $258 $387 forward 7 unknown #
face $-1 $388 $389 $39 $-1 $390 reversed single #
loop $-1 $-1 $391 $163 #
plane-surface $-1 -62.122257148960848 0 0 1 0 0 0 0 -1 forward_v I I I I #
coedge $-1 $392 $271 $393 $394 forward $164 $-1 #
coedge $-1 $395 $166 $392 $396 forward $105 $-1 #
coedge $-1 $166 $395 $397 $398 forward $105 $-1 #
coedge $-1 $274 $273 $166 $267 reversed $275 $-1 #
edge $-1 $399 -29.340429072286238 $400 29.340429072286238 $266 $401 forward 7 unknown #
coedge $-1 $168 $167 $402 $403 forward $66 $-1 #
coedge $-1 $404 $405 $167 $270 reversed $389 $-1 #
edge $-1 $277 -62.122257148960848 $406 62.122257148960848 $269 $407 forward 7 unknown #
coedge $-1 $263 $408 $168 $272 reversed $164 $-1 #
edge $-1 $409 -62.122257148960848 $276 62.122257148960848 $271 $410 forward 7 unknown #
coedge $-1 $266 $169 $408 $411 forward $275 $-1 #
coedge $-1 $169 $266 $404 $412 reversed $275 $-1 #
loop $-1 $-1 $273 $388 #
vertex $-1 $170 $413 #
vertex $-1 $170 $414 #
straight-curve $-1 62.122257148960848 0 5.9911173692084345 0 1 0 I I #
face $-1 $415 $416 $40 $-1 $417 reversed single #
loop $-1 $-1 $285 $171 #
plane-surface $-1 62.122257148960848 0 0 -1 0 0 0 0 1 forward_v I I I I #
coedge $-1 $418 $419 $283 $420 forward $172 $-1 #
coedge $-1 $421 $174 $282 $420 reversed $109 $-1 #
coedge $-1 $174 $421 $175 $288 reversed $109 $-1 #
coedge $-1 $177 $422 $174 $286 forward $280 $-1 #
edge $-1 $423 -3.8225347368842946 $292 -0.51463052776398532 $285 $424 forward 7 unknown #
coedge $-1 $176 $175 $425 $426 reversed $69 $-1 #
edge $-1 $292 -62.122257148960848 $427 62.122257148960848 $284 $428 forward 7 unknown #
coedge $-1 $429 $430 $176 $290 forward $416 $-1 #
edge $-1 $293 -62.122257148960848 $431 62.122257148960848 $289 $432 forward 7 unknown #
coedge $-1 $422 $177 $430 $433 forward $280 $-1 #
vertex $-1 $178 $434 #
vertex $-1 $433 $435 #
straight-curve $-1 62.122257148960848 -13.184411212020372 -2.6832131600881253 0 -1 0 I I #
face $-1 $436 $437 $41 $-1 $438 reversed single #
loop $-1 $-1 $185 $179 #
plane-surface $-1 62.122257148960848 0 0 -1 0 0 0 0 1 forward_v I I I I #
coedge $-1 $439 $306 $440 $441 reversed $180 $-1 #
coedge $-1 $442 $182 $439 $443 forward $113 $-1 #
coedge $-1 $182 $442 $444 $445 reversed $113 $-1 #
coedge $-1 $309 $308 $182 $302 forward $296 $-1 #
edge $-1 $446 10.903182701221072 $447 15.925891814450468 $301 $448 forward 7 unknown #
coedge $-1 $184 $183 $449 $450 reversed $72 $-1 #
coedge $-1 $451 $452 $183 $305 forward $453 $-1 #
edge $-1 $454 -62.122257148960848 $310 62.122257148960848 $304 $455 forward 7 unknown #
coedge $-1 $298 $456 $184 $307 reversed $180 $-1 #
edge $-1 $457 -62.122257148960848 $311 62.122257148960848 $306 $458 forward 7 unknown #
coedge $-1 $301 $185 $456 $459 forward $296 $-1 #
coedge $-1 $185 $301 $451 $460 reversed $296 $-1 #
vertex $-1 $460 $461 #
vertex $-1 $186 $462 #
straight-curve $-1 62.122257148960848 13.41453725783577 -0.20525171111348439 0 -1 0 I I #
face $-1 $-1 $463 $42 $-1 $464 reversed single #
loop $-1 $-1 $193 $187 #
plane-surface $-1 0 0 5.9911173692084345 0 0 1 1 0 0 forward_v I I I I #
coedge $-1 $465 $466 $467 $468 reversed $188 $-1 #
coedge $-1 $469 $190 $192 $323 forward $117 $-1 #
coedge $-1 $190 $469 $465 $470 forward $117 $-1 #
coedge $-1 $467 $193 $190 $320 forward $314 $-1 #
edge $-1 $326 6.6474725344984851 $471 13.382319672364007 $319 $472 forward 7 unknown #
coedge $-1 $473 $474 $191 $322 forward $463 $-1 #
edge $-1 $475 -84.204246431042208 $325 -79.525799363332737 $321 $476 forward 7 unknown #
edge $-1 $326 114.88762028786149 $475 124.24451429792171 $192 $477 forward 7 unknown #
coedge $-1 $193 $467 $473 $478 forward $314 $-1 #
vertex $-1 $322 $479 #
vertex $-1 $194 $480 #
straight-curve $-1 8.3228049739308183 -16.662368637929731 5.991117369208439 -1 0 0 I I #
coedge $-1 $328 $328 $-1 $481 reversed $197 $-1 #
edge $-1 $482 0 $482 6.2831853071796004 $198 $483 forward 7 unknown #
vertex $-1 $201 $484 #
ellipse-curve $-1 58.070603210439536 -22.050246348222146 3.6518938353536901 0.50000000669873634 0 0.8660253999169214 0.4330126999584607 0 -0.25000000334936817 1 I I #
coedge $-1 $332 $332 $-1 $485 reversed $204 $-1 #
edge $-1 $486 0 $486 6.2831853071796004 $205 $487 forward 7 unknown #
vertex $-1 $208 $488 #
ellipse-curve $-1 58.070603210439536 -20.029792206862492 3.6518938353536901 0.50000000669873634 0 0.8660253999169214 0.4330126999584607 0 -0.25000000334936817 1 I I #
coedge $-1 $336 $336 $-1 $489 reversed $211 $-1 #
edge $-1 $490 0 $490 6.2831853071796004 $212 $491 forward 7 unknown #
vertex $-1 $215 $492 #
ellipse-curve $-1 58.070603210439536 -18.009338065502835 3.6518938353536901 0.50000000669873634 0 0.8660253999169214 0.4330126999584607 0 -0.25000000334936817 1 I I #
face $-1 $-1 $352 $46 $-1 $493 forward single #
loop $-1 $-1 $494 $216 #
plane-surface $-1 -62.122257148960848 0 0 1 0 0 0 0 -1 forward_v I I I I #
coedge $-1 $495 $496 $497 $498 reversed $217 $-1 #
coedge $-1 $499 $219 $221 $350 forward $136 $-1 #
coedge $-1 $219 $499 $495 $500 forward $136 $-1 #
coedge $-1 $497 $222 $219 $347 forward $352 $-1 #
edge $-1 $354 -9.6029664627749227 $501 -1.3884892566006082 $346 $502 forward 7 unknown #
coedge $-1 $503 $504 $220 $349 forward $341 $-1 #
edge $-1 $505 -39.342814474148739 $353 -34.52890129187567 $348 $506 forward 7 unknown #
edge $-1 $354 -6.2841172903739402 $505 1.1030930024383267e-014 $221 $507 forward 7 unknown #
coedge $-1 $222 $497 $503 $508 forward $352 $-1 #
loop $-1 $-1 $497 $340 #
vertex $-1 $349 $509 #
vertex $-1 $223 $510 #
straight-curve $-1 -78.649538972234893 -15.098694322462688 5.9911173692084319 1 0 0 I I #
coedge $-1 $356 $356 $-1 $511 reversed $226 $-1 #
edge $-1 $512 0 $512 6.2831853071796004 $227 $513 forward 7 unknown #
vertex $-1 $230 $514 #
ellipse-curve $-1 -60.102580813956003 -12.751700834984312 3.5841607780719031 -0.7660444514056185 0 0.64278759981090561 0.3213937999054528 0 0.38302222570280925 1 I I #
coedge $-1 $360 $360 $-1 $515 reversed $233 $-1 #
edge $-1 $516 0 $516 6.2831853071796004 $234 $517 forward 7 unknown #
vertex $-1 $237 $518 #
ellipse-curve $-1 -60.102580813956003 -9.2312106037667512 3.5841607780719031 -0.7660444514056185 0 0.64278759981090561 0.3213937999054528 0 0.38302222570280925 1 I I #
face $-1 $-1 $376 $49 $-1 $519 forward single #
loop $-1 $-1 $520 $238 #
plane-surface $-1 -62.122257148960848 0 0 1 0 0 0 0 -1 forward_v I I I I #
coedge $-1 $521 $522 $523 $524 reversed $239 $-1 #
coedge $-1 $525 $241 $243 $374 forward $150 $-1 #
coedge $-1 $241 $525 $521 $526 forward $150 $-1 #
coedge $-1 $523 $244 $241 $371 forward $376 $-1 #
edge $-1 $378 2.3257674709380982 $527 10.540244677112414 $370 $528 forward 7 unknown #
coedge $-1 $529 $530 $242 $373 forward $365 $-1 #
edge $-1 $531 -39.342814474148739 $377 -34.52890129187567 $372 $532 forward 7 unknown #
edge $-1 $378 -6.2841172903739402 $531 1.1030930024383267e-014 $243 $533 forward 7 unknown #
coedge $-1 $244 $523 $529 $534 forward $376 $-1 #
loop $-1 $-1 $523 $364 #
vertex $-1 $373 $535 #
vertex $-1 $245 $536 #
straight-curve $-1 -78.649538972234893 8.7587735449633541 5.9911173692084319 1 0 0 I I #
coedge $-1 $380 $380 $-1 $537 reversed $248 $-1 #
edge $-1 $538 0 $538 6.2831853071796004 $249 $539 forward 7 unknown #
vertex $-1 $252 $540 #
ellipse-curve $-1 -60.102580813956003 11.105767032441729 3.5841607780719031 -0.7660444514056185 0 0.64278759981090561 0.3213937999054528 0 0.38302222570280925 1 I I #
coedge $-1 $384 $384 $-1 $541 reversed $255 $-1 #
edge $-1 $542 0 $542 6.2831853071796004 $256 $543 forward 7 unknown #
vertex $-1 $259 $544 #
ellipse-curve $-1 -60.102580813956003 14.626257263659287 3.5841607780719031 -0.7660444514056185 0 0.64278759981090561 0.3213937999054528 0 0.38302222570280925 1 I I #
face $-1 $-1 $275 $39 $-1 $545 reversed single #
loop $-1 $-1 $404 $260 #
plane-surface $-1 0 29.340429072286238 0 0 -1 0 0 0 -1 forward_v I I I I #
coedge $-1 $546 $402 $405 $547 forward $261 $-1 #
coedge $-1 $408 $263 $264 $396 reversed $164 $-1 #
coedge $-1 $402 $546 $263 $394 reversed $261 $-1 #
edge $-1 $409 -5.9911173692084345 $548 5.9911173692084345 $393 $549 forward 7 unknown #
coedge $-1 $265 $264 $546 $550 forward $105 $-1 #
edge $-1 $400 -62.122257148960848 $548 62.122257148960848 $392 $551 forward 7 unknown #
coedge $-1 $405 $404 $265 $398 reversed $389 $-1 #
edge $-1 $552 -62.122257148960848 $399 62.122257148960848 $397 $553 forward 7 unknown #
vertex $-1 $267 $554 #
vertex $-1 $411 $555 #
straight-curve $-1 62.122257148960848 0 -5.9911173692084345 0 -1 0 I I #
coedge $-1 $391 $393 $268 $403 reversed $261 $-1 #
edge $-1 $406 -29.340429072286238 $409 29.340429072286238 $402 $556 forward 7 unknown #
coedge $-1 $397 $269 $274 $412 forward $389 $-1 #
coedge $-1 $269 $397 $391 $547 reversed $389 $-1 #
vertex $-1 $270 $557 #
straight-curve $-1 0 29.340429072286238 5.9911173692084345 -1 0 0 I I #
coedge $-1 $271 $392 $273 $411 reversed $164 $-1 #
vertex $-1 $403 $558 #
straight-curve $-1 0 -29.340429072286238 5.9911173692084345 1 0 0 I I #
edge $-1 $276 -5.9911173692084345 $400 5.9911173692084345 $273 $559 forward 7 unknown #
edge $-1 $277 -5.9911173692084345 $399 5.9911173692084345 $274 $560 forward 7 unknown #
point $-1 62.122257148960848 -29.340429072286238 5.9911173692084345 #
point $-1 62.122257148960848 29.340429072286238 5.9911173692084345 #
face $-1 $-1 $561 $40 $-1 $562 reversed single #
loop $-1 $-1 $289 $279 #
plane-surface $-1 0 -29.340429072286238 0 0 1 0 0 0 1 forward_v I I I I #
coedge $-1 $563 $282 $422 $564 forward $172 $-1 #
coedge $-1 $282 $563 $565 $566 forward $172 $-1 #
edge $-1 $567 -62.122257148960848 $423 62.122257148960848 $282 $568 forward 7 unknown #
coedge $-1 $284 $283 $569 $570 reversed $109 $-1 #
coedge $-1 $285 $291 $418 $564 reversed $280 $-1 #
vertex $-1 $564 $571 #
straight-curve $-1 62.122257148960848 -23.397215775795249 -2.1685826323241399 0 0 1 I I #
coedge $-1 $569 $572 $287 $426 forward $561 $-1 #
edge $-1 $431 -16.156017860265866 $427 -10.212804563774878 $425 $573 forward 7 unknown #
vertex $-1 $426 $574 #
straight-curve $-1 0 -23.397215775795249 -2.6832131600881253 -1 0 0 I I #
coedge $-1 $575 $289 $572 $576 forward $416 $-1 #
coedge $-1 $289 $575 $291 $433 reversed $416 $-1 #
vertex $-1 $576 $577 #
straight-curve $-1 0 -29.340429072286238 -2.6832131600881253 -1 0 0 I I #
edge $-1 $293 2.6832131600881253 $578 5.9911173692084345 $291 $579 forward 7 unknown #
point $-1 62.122257148960848 -23.397215775795249 -2.6832131600881253 #
point $-1 62.122257148960848 -29.340429072286238 -2.6832131600881253 #
face $-1 $-1 $453 $41 $-1 $580 reversed single #
loop $-1 $-1 $449 $295 #
plane-surface $-1 -62.122257148960848 0 0 1 0 0 0 0 -1 forward_v I I I I #
coedge $-1 $456 $298 $299 $443 reversed $180 $-1 #
coedge $-1 $449 $581 $298 $441 forward $437 $-1 #
edge $-1 $582 -2.6050011411365026 $457 0.7314992396365112 $440 $583 forward 7 unknown #
coedge $-1 $300 $299 $581 $584 reversed $113 $-1 #
edge $-1 $446 -62.122257148960848 $582 62.122257148960848 $439 $585 forward 7 unknown #
coedge $-1 $452 $451 $300 $445 forward $453 $-1 #
edge $-1 $447 -62.122257148960848 $586 62.122257148960848 $444 $587 forward 7 unknown #
vertex $-1 $302 $588 #
vertex $-1 $445 $589 #
straight-curve $-1 62.122257148960848 13.41453725783577 -3.5417520918864982 0 1 0 I I #
coedge $-1 $590 $440 $303 $450 forward $437 $-1 #
edge $-1 $457 10.903182701221072 $454 15.925891814450468 $449 $591 forward 7 unknown #
coedge $-1 $444 $304 $309 $460 forward $453 $-1 #
coedge $-1 $304 $444 $590 $592 reversed $453 $-1 #
loop $-1 $-1 $304 $436 #
vertex $-1 $592 $593 #
straight-curve $-1 0 29.340429072286238 -0.20525171111348439 1 0 0 I I #
coedge $-1 $306 $439 $308 $459 reversed $180 $-1 #
vertex $-1 $450 $594 #
straight-curve $-1 0 24.317719959056841 -0.20525171111348439 1 0 0 I I #
edge $-1 $311 -0.7314992396365112 $446 2.6050011411365026 $308 $595 forward 7 unknown #
edge $-1 $310 0.20525171111348439 $447 3.5417520918864982 $309 $596 forward 7 unknown #
point $-1 62.122257148960848 29.340429072286238 -0.20525171111348439 #
point $-1 62.122257148960848 24.317719959056841 -0.20525171111348439 #
loop $-1 $-1 $321 $313 #
plane-surface $-1 62.122257148960848 0 0 -1 0 0 0 0 1 forward_v I I I I #
coedge $-1 $466 $316 $318 $470 reversed $188 $-1 #
coedge $-1 $316 $465 $597 $598 reversed $188 $-1 #
coedge $-1 $324 $319 $316 $468 forward $314 $-1 #
edge $-1 $471 45.696144297987388 $599 53.799452175030027 $467 $600 forward 7 unknown #
coedge $-1 $318 $317 $474 $601 reversed $117 $-1 #
edge $-1 $602 -124.24451429792171 $471 -114.88762028786149 $465 $603 forward 7 unknown #
vertex $-1 $320 $604 #
straight-curve $-1 54.018949271918203 -10.014896103431246 5.9911173692084319 0 -1 0 I I #
coedge $-1 $597 $321 $324 $478 reversed $463 $-1 #
coedge $-1 $321 $597 $469 $601 forward $463 $-1 #
vertex $-1 $322 $605 #
straight-curve $-1 62.122257148960848 -16.662368637929731 85.516916732541176 0 0 1 I I #
straight-curve $-1 -45.476648033380457 -16.662368637929731 63.434928282741055 0.8660253999169214 0 -0.50000000669873634 I I #
edge $-1 $599 -23.397215775795253 $325 -16.662368637929731 $473 $606 forward 7 unknown #
point $-1 62.122257148960848 -16.662368637929731 5.9911173692084345 #
point $-1 54.018949271918203 -16.662368637929731 5.9911173692084319 #
edge $-1 $607 1 $607 0 $328 $-1 forward 7 unknown #
vertex $-1 $329 $608 #
ellipse-curve $-1 57.517325515109306 -22.050246348222146 2.6935887734656001 0.50000000669873634 0 0.8660253999169214 0.4330126999584607 0 -0.25000000334936817 1 I I #
point $-1 58.503615910398011 -22.050246348222146 3.4018938320043421 #
edge $-1 $609 1 $609 0 $332 $-1 forward 7 unknown #
vertex $-1 $333 $610 #
ellipse-curve $-1 57.517325515109306 -20.029792206862492 2.6935887734656001 0.50000000669873634 0 0.8660253999169214 0.4330126999584607 0 -0.25000000334936817 1 I I #
point $-1 58.503615910398011 -20.029792206862492 3.4018938320043421 #
edge $-1 $611 1 $611 0 $336 $-1 forward 7 unknown #
vertex $-1 $337 $612 #
ellipse-curve $-1 57.517325515109306 -18.009338065502835 2.6935887734656001 0.50000000669873634 0 0.8660253999169214 0.4330126999584607 0 -0.25000000334936817 1 I I #
point $-1 58.503615910398011 -18.009338065502835 3.4018938320043421 #
plane-surface $-1 0 0 5.9911173692084345 0 0 1 1 0 0 forward_v I I I I #
coedge $-1 $504 $503 $496 $613 forward $341 $-1 #
coedge $-1 $496 $343 $345 $500 reversed $217 $-1 #
coedge $-1 $343 $495 $494 $613 reversed $217 $-1 #
coedge $-1 $351 $346 $343 $498 forward $352 $-1 #
edge $-1 $501 -20.566634493283729 $614 -16.527281823274045 $497 $615 forward 7 unknown #
coedge $-1 $345 $344 $504 $616 reversed $136 $-1 #
edge $-1 $617 -1.1030930024383267e-014 $501 6.2841172903739402 $495 $618 forward 7 unknown #
vertex $-1 $347 $619 #
straight-curve $-1 -58.082904478951171 -5.495727859687765 5.9911173692084372 0 1 0 I I #
coedge $-1 $494 $348 $351 $508 reversed $341 $-1 #
coedge $-1 $348 $494 $499 $616 forward $341 $-1 #
vertex $-1 $349 $620 #
straight-curve $-1 -62.122257148960848 -15.098694322462688 40.520018661084102 0 0 1 I I #
straight-curve $-1 -62.122257148960841 -15.098694322462688 1.17720418693537 -0.64278759981090561 0 -0.7660444514056185 I I #
edge $-1 $614 6.8842171162883732 $353 15.098694322462688 $503 $621 forward 7 unknown #
point $-1 -62.122257148960848 -15.098694322462688 5.9911173692084345 #
point $-1 -58.082904478951164 -15.098694322462688 5.9911173692084345 #
edge $-1 $622 1 $622 0 $356 $-1 forward 7 unknown #
vertex $-1 $357 $623 #
ellipse-curve $-1 -59.336536362550397 -12.751700834984312 2.9413731782610082 -0.7660444514056185 0 0.64278759981090561 0.3213937999054528 0 0.38302222570280925 1 I I #
point $-1 -59.781187014050566 -12.751700834984312 3.9671830037747231 #
edge $-1 $624 1 $624 0 $360 $-1 forward 7 unknown #
vertex $-1 $361 $625 #
ellipse-curve $-1 -59.336536362550397 -9.2312106037667512 2.9413731782610082 -0.7660444514056185 0 0.64278759981090561 0.3213937999054528 0 0.38302222570280925 1 I I #
point $-1 -59.781187014050566 -9.2312106037667512 3.9671830037747231 #
plane-surface $-1 0 0 5.9911173692084345 0 0 1 1 0 0 forward_v I I I I #
coedge $-1 $530 $529 $522 $626 forward $365 $-1 #
coedge $-1 $522 $367 $369 $526 reversed $239 $-1 #
coedge $-1 $367 $521 $520 $626 reversed $239 $-1 #
coedge $-1 $375 $370 $367 $524 forward $376 $-1 #
edge $-1 $527 -20.566634493283729 $627 -16.527281823274045 $523 $628 forward 7 unknown #
coedge $-1 $369 $368 $530 $629 reversed $150 $-1 #
edge $-1 $630 -1.1030930024383267e-014 $527 6.2841172903739402 $521 $631 forward 7 unknown #
vertex $-1 $371 $632 #
straight-curve $-1 -58.082904478951171 6.4330060740252559 5.9911173692084372 0 1 0 I I #
coedge $-1 $520 $372 $375 $534 reversed $365 $-1 #
coedge $-1 $372 $520 $525 $629 forward $365 $-1 #
vertex $-1 $373 $633 #
straight-curve $-1 -62.122257148960848 8.7587735449633541 40.520018661084102 0 0 1 I I #
straight-curve $-1 -62.122257148960841 8.7587735449633541 1.17720418693537 -0.64278759981090561 0 -0.7660444514056185 I I #
edge $-1 $627 -16.97325075113767 $377 -8.7587735449633541 $529 $634 forward 7 unknown #
point $-1 -62.122257148960848 8.7587735449633541 5.9911173692084345 #
point $-1 -58.082904478951164 8.7587735449633541 5.9911173692084345 #
edge $-1 $635 1 $635 0 $380 $-1 forward 7 unknown #
vertex $-1 $381 $636 #
ellipse-curve $-1 -59.336536362550397 11.105767032441729 2.9413731782610082 -0.7660444514056185 0 0.64278759981090561 0.3213937999054528 0 0.38302222570280925 1 I I #
point $-1 -59.781187014050566 11.105767032441729 3.9671830037747231 #
edge $-1 $637 1 $637 0 $384 $-1 forward 7 unknown #
vertex $-1 $385 $638 #
ellipse-curve $-1 -59.336536362550397 14.626257263659287 2.9413731782610082 -0.7660444514056185 0 0.64278759981090561 0.3213937999054528 0 0.38302222570280925 1 I I #
point $-1 -59.781187014050566 14.626257263659287 3.9671830037747231 #
plane-surface $-1 62.122257148960848 0 0 -1 0 0 0 0 1 forward_v I I I I #
coedge $-1 $393 $391 $395 $550 reversed $261 $-1 #
edge $-1 $406 -5.9911173692084345 $552 5.9911173692084345 $405 $639 forward 7 unknown #
vertex $-1 $550 $640 #
straight-curve $-1 -62.122257148960848 -29.340429072286238 0 0 0 -1 I I #
edge $-1 $548 -29.340429072286238 $552 29.340429072286238 $546 $641 forward 7 unknown #
straight-curve $-1 0 -29.340429072286238 -5.9911173692084345 -1 0 0 I I #
vertex $-1 $398 $642 #
straight-curve $-1 0 29.340429072286238 -5.9911173692084345 1 0 0 I I #
point $-1 62.122257148960848 29.340429072286238 -5.9911173692084345 #
point $-1 62.122257148960848 -29.340429072286238 -5.9911173692084345 #
straight-curve $-1 -62.122257148960848 0 5.9911173692084345 0 -1 0 I I #
point $-1 -62.122257148960848 29.340429072286238 5.9911173692084345 #
point $-1 -62.122257148960848 -29.340429072286238 5.9911173692084345 #
straight-curve $-1 62.122257148960848 -29.340429072286238 0 0 0 -1 I I #
straight-curve $-1 62.122257148960848 29.340429072286238 0 0 0 -1 I I #
loop $-1 $-1 $569 $415 #
plane-surface $-1 -62.122257148960848 0 0 1 0 0 0 0 -1 forward_v I I I I #
coedge $-1 $419 $418 $575 $643 forward $172 $-1 #
edge $-1 $423 23.397215775795249 $578 29.340429072286238 $422 $644 forward 7 unknown #
coedge $-1 $572 $569 $419 $566 reversed $561 $-1 #
edge $-1 $645 -29.340429072286238 $567 -23.397215775795249 $565 $646 forward 7 unknown #
vertex $-1 $570 $647 #
straight-curve $-1 0 -23.397215775795249 -5.9911173692084345 1 0 0 I I #
coedge $-1 $565 $425 $421 $570 forward $561 $-1 #
edge $-1 $427 0.51463052776398532 $567 3.8225347368842946 $569 $648 forward 7 unknown #
point $-1 62.122257148960848 -23.397215775795249 -5.9911173692084345 #
coedge $-1 $425 $565 $429 $576 reversed $561 $-1 #
straight-curve $-1 -62.122257148960848 -13.184411212020372 -2.6832131600881253 0 1 0 I I #
point $-1 -62.122257148960848 -23.397215775795249 -2.6832131600881253 #
coedge $-1 $430 $429 $563 $643 reversed $416 $-1 #
edge $-1 $431 2.6832131600881253 $645 5.9911173692084345 $572 $649 forward 7 unknown #
point $-1 -62.122257148960848 -29.340429072286238 -2.6832131600881253 #
vertex $-1 $433 $650 #
straight-curve $-1 62.122257148960848 -29.340429072286238 0 0 0 -1 I I #
plane-surface $-1 0 29.340429072286238 0 0 -1 0 0 0 -1 forward_v I I I I #
coedge $-1 $440 $590 $442 $584 forward $437 $-1 #
vertex $-1 $584 $651 #
straight-curve $-1 -62.122257148960848 24.317719959056841 -0.93675095074999559 0 0 1 I I #
edge $-1 $586 -15.925891814450468 $582 -10.903182701221072 $581 $652 forward 7 unknown #
straight-curve $-1 0 24.317719959056841 -3.5417520918864982 -1 0 0 I I #
vertex $-1 $445 $653 #
straight-curve $-1 0 29.340429072286238 -3.5417520918864982 -1 0 0 I I #
point $-1 62.122257148960848 24.317719959056841 -3.5417520918864982 #
point $-1 62.122257148960848 29.340429072286238 -3.5417520918864982 #
coedge $-1 $581 $449 $452 $592 forward $437 $-1 #
straight-curve $-1 -62.122257148960848 13.41453725783577 -0.20525171111348439 0 1 0 I I #
edge $-1 $454 0.20525171111348439 $586 3.5417520918864982 $452 $654 forward 7 unknown #
point $-1 -62.122257148960848 29.340429072286238 -0.20525171111348439 #
point $-1 -62.122257148960848 24.317719959056841 -0.20525171111348439 #
straight-curve $-1 62.122257148960848 24.317719959056841 -0.93675095074999559 0 0 -1 I I #
straight-curve $-1 62.122257148960848 29.340429072286238 0 0 0 -1 I I #
coedge $-1 $474 $473 $466 $598 forward $463 $-1 #
edge $-1 $599 79.525799363332737 $602 84.204246431042208 $597 $655 forward 7 unknown #
vertex $-1 $478 $656 #
straight-curve $-1 8.3228049739308183 -23.397215775795253 5.991117369208439 1 0 0 I I #
edge $-1 $602 -13.382319672364007 $475 -6.6474725344984851 $474 $657 forward 7 unknown #
vertex $-1 $601 $658 #
straight-curve $-1 -45.476648033380457 -23.397215775795253 63.434928282741055 -0.8660253999169214 0 0.50000000669873634 I I #
point $-1 54.018949271918203 -23.397215775795253 5.9911173692084319 #
point $-1 62.122257148960841 -16.662368637929731 1.3126703014989616 #
straight-curve $-1 62.122257148960848 0 5.9911173692084345 0 1 0 I I #
vertex $-1 $481 $659 #
point $-1 57.950338215067767 -22.050246348222146 2.4435887701162318 #
vertex $-1 $485 $660 #
point $-1 57.950338215067767 -20.029792206862492 2.4435887701162318 #
vertex $-1 $489 $661 #
point $-1 57.950338215067767 -18.009338065502835 2.4435887701162318 #
edge $-1 $614 34.52890129187567 $617 39.342814474148739 $494 $662 forward 7 unknown #
vertex $-1 $508 $663 #
straight-curve $-1 -78.649538972234893 -6.8842171162883732 5.9911173692084319 -1 0 0 I I #
edge $-1 $617 1.3884892566006082 $505 9.6029664627749227 $504 $664 forward 7 unknown #
vertex $-1 $616 $665 #
straight-curve $-1 -62.122257148960841 -6.8842171162883732 1.17720418693537 0.64278759981090561 0 0.7660444514056185 I I #
point $-1 -58.082904478951164 -6.8842171162883732 5.9911173692084345 #
point $-1 -62.122257148960848 -15.098694322462688 1.1772041869353616 #
straight-curve $-1 -62.122257148960848 0 5.9911173692084345 0 -1 0 I I #
vertex $-1 $511 $666 #
point $-1 -59.015142562644947 -12.751700834984312 3.3243954039638175 #
vertex $-1 $515 $667 #
point $-1 -59.015142562644947 -9.2312106037667512 3.3243954039638175 #
edge $-1 $627 34.52890129187567 $630 39.342814474148739 $520 $668 forward 7 unknown #
vertex $-1 $534 $669 #
straight-curve $-1 -78.649538972234893 16.97325075113767 5.9911173692084319 -1 0 0 I I #
edge $-1 $630 -10.540244677112414 $531 -2.3257674709380982 $530 $670 forward 7 unknown #
vertex $-1 $629 $671 #
straight-curve $-1 -62.122257148960841 16.97325075113767 1.17720418693537 0.64278759981090561 0 0.7660444514056185 I I #
point $-1 -58.082904478951164 16.97325075113767 5.9911173692084345 #
point $-1 -62.122257148960848 8.7587735449633541 1.1772041869353616 #
straight-curve $-1 -62.122257148960848 0 5.9911173692084345 0 -1 0 I I #
vertex $-1 $537 $672 #
point $-1 -59.015142562644947 11.105767032441729 3.3243954039638175 #
vertex $-1 $541 $673 #
point $-1 -59.015142562644947 14.626257263659287 3.3243954039638175 #
straight-curve $-1 -62.122257148960848 29.340429072286238 0 0 0 -1 I I #
point $-1 -62.122257148960848 -29.340429072286238 -5.9911173692084345 #
straight-curve $-1 -62.122257148960848 0 -5.9911173692084345 0 1 0 I I #
point $-1 -62.122257148960848 29.340429072286238 -5.9911173692084345 #
edge $-1 $578 -62.122257148960848 $645 62.122257148960848 $575 $674 forward 7 unknown #
straight-curve $-1 62.122257148960848 0 -5.9911173692084345 0 -1 0 I I #
vertex $-1 $566 $675 #
straight-curve $-1 -62.122257148960848 0 -5.9911173692084345 0 1 0 I I #
point $-1 -62.122257148960848 -23.397215775795249 -5.9911173692084345 #
straight-curve $-1 -62.122257148960848 -23.397215775795249 -2.1685826323241399 0 0 -1 I I #
straight-curve $-1 -62.122257148960848 -29.340429072286238 0 0 0 -1 I I #
point $-1 62.122257148960848 -29.340429072286238 -5.9911173692084345 #
point $-1 -62.122257148960848 24.317719959056841 -3.5417520918864982 #
straight-curve $-1 -62.122257148960848 13.41453725783577 -3.5417520918864982 0 -1 0 I I #
point $-1 -62.122257148960848 29.340429072286238 -3.5417520918864982 #
straight-curve $-1 -62.122257148960848 29.340429072286238 0 0 0 -1 I I #
straight-curve $-1 62.122257148960848 -23.397215775795253 85.516916732541176 0 0 -1 I I #
point $-1 62.122257148960848 -23.397215775795253 5.9911173692084345 #
straight-curve $-1 62.122257148960841 -10.014896103431246 1.3126703014989545 0 1 0 I I #
point $-1 62.122257148960841 -23.397215775795253 1.3126703014989616 #
point $-1 57.267325511759935 -22.050246348222146 2.2605760735071394 #
point $-1 57.267325511759935 -20.029792206862492 2.2605760735071394 #
point $-1 57.267325511759935 -18.009338065502835 2.2605760735071394 #
straight-curve $-1 -62.122257148960848 -6.8842171162883732 40.520018661084102 0 0 -1 I I #
point $-1 -62.122257148960848 -6.8842171162883732 5.9911173692084345 #
straight-curve $-1 -62.122257148960848 -5.495727859687765 1.1772041869353578 0 -1 0 I I #
point $-1 -62.122257148960848 -6.8842171162883732 1.1772041869353616 #
point $-1 -58.953514136847595 -12.751700834984312 2.6199793783555556 #
point $-1 -58.953514136847595 -9.2312106037667512 2.6199793783555556 #
straight-curve $-1 -62.122257148960848 16.97325075113767 40.520018661084102 0 0 -1 I I #
point $-1 -62.122257148960848 16.97325075113767 5.9911173692084345 #
straight-curve $-1 -62.122257148960848 6.4330060740252559 1.1772041869353578 0 -1 0 I I #
point $-1 -62.122257148960848 16.97325075113767 1.1772041869353616 #
point $-1 -58.953514136847595 11.105767032441729 2.6199793783555556 #
point $-1 -58.953514136847595 14.626257263659287 2.6199793783555556 #
straight-curve $-1 0 -29.340429072286238 -5.9911173692084345 -1 0 0 I I #
point $-1 -62.122257148960848 -29.340429072286238 -5.9911173692084345 #
End-of-ACIS-data 