500 0 12 0           
7 Unknown 11 ACIS 5.0 NT 24 Fri Mar 26 15:01:07 1999 
-1 9.9999999999999995e-007 1e-010 
body $-1 $12 $-1 $13 #
body $-1 $14 $-1 $15 #
body $-1 $16 $-1 $17 #
body $-1 $18 $-1 $19 #
body $-1 $20 $-1 $21 #
body $-1 $22 $-1 $23 #
body $-1 $24 $-1 $25 #
body $-1 $26 $-1 $27 #
body $-1 $28 $-1 $29 #
body $-1 $30 $-1 $31 #
body $-1 $32 $-1 $33 #
body $-1 $34 $-1 $35 #
lump $-1 $-1 $36 $0 #
transform $-1 1 0 0 0 1 0 0 0 1 69.008453627124851 45.429284133143405 17.490142680026572 1 rotate no_reflect no_shear #
lump $-1 $-1 $37 $1 #
transform $-1 1 0 0 0 1 0 0 0 1 69.008453627124851 45.429284133143405 17.490142680026572 1 rotate no_reflect no_shear #
lump $-1 $-1 $38 $2 #
transform $-1 1 0 0 0 1 0 0 0 1 69.008453627124851 45.429284133143405 17.490142680026572 1 rotate no_reflect no_shear #
lump $-1 $-1 $39 $3 #
transform $-1 1 0 0 0 1 0 0 0 1 69.008453627124851 45.429284133143405 17.490142680026572 1 rotate no_reflect no_shear #
lump $-1 $-1 $40 $4 #
transform $-1 1 0 0 0 1 0 0 0 1 69.008453627124851 45.429284133143405 17.490142680026572 1 rotate no_reflect no_shear #
lump $-1 $-1 $41 $5 #
transform $-1 1 0 0 0 1 0 0 0 1 69.008453627124851 45.429284133143405 17.490142680026572 1 rotate no_reflect no_shear #
lump $-1 $-1 $42 $6 #
transform $-1 1 0 0 0 1 0 0 0 1 69.008453627124851 45.429284133143405 17.490142680026572 1 rotate no_reflect no_shear #
lump $-1 $-1 $43 $7 #
transform $-1 1 0 0 0 1 0 0 0 1 69.008453627124851 45.429284133143405 17.490142680026572 1 rotate no_reflect no_shear #
lump $-1 $-1 $44 $8 #
transform $-1 1 0 0 0 1 0 0 0 1 69.008453627124851 45.429284133143405 17.490142680026572 1 rotate no_reflect no_shear #
lump $-1 $-1 $45 $9 #
transform $-1 1 0 0 0 1 0 0 0 1 69.008453627124851 45.429284133143405 17.490142680026572 1 rotate no_reflect no_shear #
lump $-1 $-1 $46 $10 #
transform $-1 1 0 0 0 1 0 0 0 1 69.008453627124851 45.429284133143405 17.490142680026572 1 rotate no_reflect no_shear #
lump $-1 $-1 $47 $11 #
transform $-1 1 0 0 0 1 0 0 0 1 69.008453627124851 45.429284133143405 17.490142680026572 1 rotate no_reflect no_shear #
shell $-1 $-1 $-1 $48 $-1 $12 #
shell $-1 $-1 $-1 $49 $-1 $14 #
shell $-1 $-1 $-1 $50 $-1 $16 #
shell $-1 $-1 $-1 $51 $-1 $18 #
shell $-1 $-1 $-1 $52 $-1 $20 #
shell $-1 $-1 $-1 $53 $-1 $22 #
shell $-1 $-1 $-1 $54 $-1 $24 #
shell $-1 $-1 $-1 $55 $-1 $26 #
shell $-1 $-1 $-1 $56 $-1 $28 #
shell $-1 $-1 $-1 $57 $-1 $30 #
shell $-1 $-1 $-1 $58 $-1 $32 #
shell $-1 $-1 $-1 $59 $-1 $34 #
face $-1 $60 $61 $36 $-1 $62 forward single #
face $-1 $63 $64 $37 $-1 $65 reversed single #
face $-1 $66 $67 $38 $-1 $68 forward single #
face $-1 $69 $70 $39 $-1 $71 forward single #
face $-1 $72 $73 $40 $-1 $74 reversed single #
face $-1 $75 $76 $41 $-1 $77 forward single #
face $-1 $78 $79 $42 $-1 $80 forward single #
face $-1 $81 $82 $43 $-1 $83 forward single #
face $-1 $84 $85 $44 $-1 $86 reversed single #
face $-1 $87 $88 $45 $-1 $89 forward single #
face $-1 $90 $91 $46 $-1 $92 forward single #
face $-1 $93 $94 $47 $-1 $95 forward single #
face $-1 $96 $97 $36 $-1 $98 reversed single #
loop $-1 $-1 $99 $48 #
plane-surface $-1 0 0 17.490142680026572 0 0 1 1 0 0 forward_v I I I I #
face $-1 $100 $101 $37 $-1 $102 reversed single #
loop $-1 $-1 $103 $49 #
plane-surface $-1 0.18858609435443441 53.047462504331939 170.9903917926809 1 0 0 0 -0.5877852598018023 -0.80901698891910034 forward_v I I I I #
face $-1 $104 $105 $38 $-1 $106 forward single #
loop $-1 $107 $108 $50 #
cone-surface $-1 11.694156958806516 33.174069514692242 5.7934626188278111 0 -0.5877852598018023 -0.80901698891910034 4 0 0 1 I I 0 1 4 forward I I I I #
face $-1 $109 $110 $39 $-1 $111 forward single #
loop $-1 $112 $113 $51 #
cone-surface $-1 28.952513255484632 33.174069514692242 5.7934626188278111 0 -0.5877852598018023 -0.80901698891910034 4 0 0 1 I I 0 1 4 forward I I I I #
face $-1 $114 $115 $40 $-1 $116 reversed single #
loop $-1 $-1 $117 $52 #
plane-surface $-1 -33.634261098943767 -118.56710304276129 118.34907440560173 -1 0 0 0 -0.52991927123019833 0.84804809178421925 forward_v I I I I #
face $-1 $118 $119 $41 $-1 $120 forward single #
loop $-1 $121 $122 $53 #
cone-surface $-1 -51.712466791721248 -32.198979802724658 8.9510075082195506 0 0.52991927123019833 -0.84804809178421925 1 0 0 1 I I 0 1 1 forward I I I I #
face $-1 $123 $124 $42 $-1 $125 forward single #
loop $-1 $126 $127 $54 #
cone-surface $-1 -44.933139656929697 -32.198979802724658 8.9510075082195506 0 0.52991927123019833 -0.84804809178421925 1 0 0 1 I I 0 1 1 forward I I I I #
face $-1 $128 $129 $43 $-1 $130 forward single #
loop $-1 $131 $132 $55 #
cone-surface $-1 -38.153812522138139 -32.198979802724658 8.9510075082195506 0 0.52991927123019833 -0.84804809178421925 1 0 0 1 I I 0 1 1 forward I I I I #
face $-1 $133 $134 $44 $-1 $135 reversed single #
loop $-1 $-1 $136 $56 #
plane-surface $-1 56.232018214915627 -118.56710304276129 118.34907440560173 -1 0 0 0 -0.52991927123019833 0.84804809178421925 forward_v I I I I #
face $-1 $137 $138 $45 $-1 $139 forward single #
loop $-1 $140 $141 $57 #
cone-surface $-1 38.153812522138139 -32.198979802724658 8.9510075082195506 0 0.52991927123019833 -0.84804809178421925 1 0 0 1 I I 0 1 1 forward I I I I #
face $-1 $142 $143 $46 $-1 $144 forward single #
loop $-1 $145 $146 $58 #
cone-surface $-1 44.933139656929697 -32.198979802724658 8.9510075082195506 0 0.52991927123019833 -0.84804809178421925 1 0 0 1 I I 0 1 1 forward I I I I #
face $-1 $147 $148 $47 $-1 $149 forward single #
loop $-1 $150 $151 $59 #
cone-surface $-1 51.712466791721255 -32.198979802724658 8.9510075082195506 0 0.52991927123019833 -0.84804809178421925 1 0 0 1 I I 0 1 1 forward I I I I #
face $-1 $152 $153 $36 $-1 $154 reversed single #
loop $-1 $-1 $155 $60 #
plane-surface $-1 0 0 -17.490142680026572 0 0 1 1 0 0 forward_v I I I I #
coedge $-1 $156 $157 $158 $159 forward $61 $-1 #
face $-1 $160 $161 $37 $-1 $162 reversed single #
loop $-1 $-1 $163 $63 #
plane-surface $-1 20.323335107145567 -28.076841183148467 59.332369065921071 0 0.5877852598018023 0.80901698891910034 1 0 0 forward_v I I I I #
coedge $-1 $164 $165 $166 $167 reversed $64 $-1 #
face $-1 $-1 $168 $38 $-1 $169 forward single #
loop $-1 $170 $171 $66 #
cone-surface $-1 11.694156958806516 27.70090564195052 -1.7397010363468084 0 -0.5877852598018023 -0.80901698891910034 2 0 0 1 I I -0.70710678118654746 0.70710678118654746 2 forward I I I I #
loop $-1 $-1 $172 $50 #
coedge $-1 $108 $108 $173 $174 reversed $67 $-1 #
face $-1 $-1 $175 $39 $-1 $176 forward single #
loop $-1 $177 $178 $69 #
cone-surface $-1 28.952513255484632 27.70090564195052 -1.7397010363468084 0 -0.5877852598018023 -0.80901698891910034 2 0 0 1 I I -0.70710678118654746 0.70710678118654746 2 forward I I I I #
loop $-1 $-1 $179 $51 #
coedge $-1 $113 $113 $180 $181 reversed $70 $-1 #
face $-1 $182 $183 $40 $-1 $184 reversed single #
loop $-1 $-1 $185 $72 #
plane-surface $-1 -44.933139656929697 -45.429284133143412 1.3040995746757034 0 -0.52991927123019833 0.84804809178421925 1 0 0 forward_v I I I I #
coedge $-1 $186 $187 $188 $189 reversed $73 $-1 #
face $-1 $-1 $190 $41 $-1 $191 forward single #
loop $-1 $192 $193 $75 #
cone-surface $-1 -51.712466791721248 -31.655257433926938 8.0808698431958561 0 0.52991927123019833 -0.84804809178421925 0.5 0 0 1 I I -0.70710678118654624 0.70710678118654879 0.5 forward I I I I #
loop $-1 $-1 $194 $53 #
coedge $-1 $122 $122 $195 $196 reversed $76 $-1 #
face $-1 $-1 $197 $42 $-1 $198 forward single #
loop $-1 $199 $200 $78 #
cone-surface $-1 -44.933139656929697 -31.655257433926938 8.0808698431958561 0 0.52991927123019833 -0.84804809178421925 0.5 0 0 1 I I -0.70710678118654624 0.70710678118654879 0.5 forward I I I I #
loop $-1 $-1 $201 $54 #
coedge $-1 $127 $127 $202 $203 reversed $79 $-1 #
face $-1 $-1 $204 $43 $-1 $205 forward single #
loop $-1 $206 $207 $81 #
cone-surface $-1 -38.153812522138139 -31.655257433926938 8.0808698431958561 0 0.52991927123019833 -0.84804809178421925 0.5 0 0 1 I I -0.70710678118654624 0.70710678118654879 0.5 forward I I I I #
loop $-1 $-1 $208 $55 #
coedge $-1 $132 $132 $209 $210 reversed $82 $-1 #
face $-1 $211 $212 $44 $-1 $213 reversed single #
loop $-1 $-1 $214 $84 #
plane-surface $-1 44.933139656929697 -45.429284133143412 1.3040995746757034 0 -0.52991927123019833 0.84804809178421925 1 0 0 forward_v I I I I #
coedge $-1 $215 $216 $217 $218 reversed $85 $-1 #
face $-1 $-1 $219 $45 $-1 $220 forward single #
loop $-1 $221 $222 $87 #
cone-surface $-1 38.153812522138139 -31.655257433926938 8.0808698431958561 0 0.52991927123019833 -0.84804809178421925 0.5 0 0 1 I I -0.70710678118654624 0.70710678118654879 0.5 forward I I I I #
loop $-1 $-1 $223 $57 #
coedge $-1 $141 $141 $224 $225 reversed $88 $-1 #
face $-1 $-1 $226 $46 $-1 $227 forward single #
loop $-1 $228 $229 $90 #
cone-surface $-1 44.933139656929697 -31.655257433926938 8.0808698431958561 0 0.52991927123019833 -0.84804809178421925 0.5 0 0 1 I I -0.70710678118654624 0.70710678118654879 0.5 forward I I I I #
loop $-1 $-1 $230 $58 #
coedge $-1 $146 $146 $231 $232 reversed $91 $-1 #
face $-1 $-1 $233 $47 $-1 $234 forward single #
loop $-1 $235 $236 $93 #
cone-surface $-1 51.712466791721255 -31.655257433926938 8.0808698431958561 0 0.52991927123019833 -0.84804809178421925 0.5 0 0 1 I I -0.70710678118654624 0.70710678118654879 0.5 forward I I I I #
loop $-1 $-1 $237 $59 #
coedge $-1 $151 $151 $238 $239 reversed $94 $-1 #
face $-1 $240 $241 $36 $-1 $242 reversed single #
loop $-1 $-1 $243 $96 #
plane-surface $-1 0 -45.429284133143405 0 0 1 0 0 0 1 forward_v I I I I #
coedge $-1 $244 $245 $246 $247 forward $97 $-1 #
coedge $-1 $248 $99 $249 $250 forward $61 $-1 #
coedge $-1 $99 $248 $251 $252 forward $61 $-1 #
coedge $-1 $253 $254 $99 $159 reversed $255 $-1 #
edge $-1 $256 -45.429284133143405 $257 45.429284133143405 $158 $258 forward 7 unknown #
face $-1 $259 $260 $37 $-1 $261 reversed single #
loop $-1 $-1 $262 $100 #
plane-surface $-1 40.4580841199367 53.047462504331939 170.9903917926809 -1 0 0 0 0.5877852598018023 0.80901698891910034 forward_v I I I I #
coedge $-1 $263 $264 $265 $266 reversed $101 $-1 #
coedge $-1 $165 $103 $267 $268 reversed $64 $-1 #
coedge $-1 $103 $164 $263 $269 reversed $64 $-1 #
coedge $-1 $265 $270 $103 $167 forward $271 $-1 #
edge $-1 $272 -18.905552880977435 $273 -2.9903103503513258 $166 $274 forward 7 unknown #
loop $-1 $-1 $173 $104 #
plane-surface $-1 20.323335107145567 -28.076841183148467 59.332369065921071 0 0.5877852598018023 0.80901698891910034 1 0 0 forward_v I I I I #
loop $-1 $-1 $275 $66 #
coedge $-1 $171 $171 $172 $276 reversed $105 $-1 #
coedge $-1 $172 $172 $171 $276 forward $107 $-1 #
coedge $-1 $173 $173 $108 $174 forward $168 $-1 #
edge $-1 $277 -9.1504467828364843e-016 $277 6.2831853071795996 $173 $278 forward 7 unknown #
loop $-1 $-1 $180 $109 #
plane-surface $-1 20.323335107145567 -28.076841183148467 59.332369065921071 0 0.5877852598018023 0.80901698891910034 1 0 0 forward_v I I I I #
loop $-1 $-1 $279 $69 #
coedge $-1 $178 $178 $179 $280 reversed $110 $-1 #
coedge $-1 $179 $179 $178 $280 forward $112 $-1 #
coedge $-1 $180 $180 $113 $181 forward $175 $-1 #
edge $-1 $281 -9.1504467828364843e-016 $281 6.2831853071795996 $180 $282 forward 7 unknown #
face $-1 $283 $284 $40 $-1 $285 reversed single #
loop $-1 $-1 $286 $114 #
plane-surface $-1 -56.232018214915627 -118.56710304276129 118.34907440560173 1 0 0 0 0.52991927123019833 -0.84804809178421925 forward_v I I I I #
coedge $-1 $287 $288 $289 $290 reversed $115 $-1 #
coedge $-1 $187 $117 $291 $292 reversed $73 $-1 #
coedge $-1 $117 $186 $287 $293 reversed $73 $-1 #
coedge $-1 $289 $294 $117 $189 forward $295 $-1 #
edge $-1 $296 13.85426738823724 $297 39.757350582709464 $188 $298 forward 7 unknown #
loop $-1 $-1 $195 $118 #
plane-surface $-1 -44.933139656929697 -45.429284133143412 1.3040995746757034 0 -0.52991927123019833 0.84804809178421925 1 0 0 forward_v I I I I #
loop $-1 $-1 $299 $75 #
coedge $-1 $193 $193 $194 $300 reversed $119 $-1 #
coedge $-1 $194 $194 $193 $300 forward $121 $-1 #
coedge $-1 $195 $195 $122 $196 forward $190 $-1 #
edge $-1 $301 -5.6479543306785551e-015 $301 6.2831853071795951 $195 $302 forward 7 unknown #
loop $-1 $-1 $202 $123 #
plane-surface $-1 -44.933139656929697 -45.429284133143412 1.3040995746757034 0 -0.52991927123019833 0.84804809178421925 1 0 0 forward_v I I I I #
loop $-1 $-1 $303 $78 #
coedge $-1 $200 $200 $201 $304 reversed $124 $-1 #
coedge $-1 $201 $201 $200 $304 forward $126 $-1 #
coedge $-1 $202 $202 $127 $203 forward $197 $-1 #
edge $-1 $305 -5.6479543306785551e-015 $305 6.2831853071795951 $202 $306 forward 7 unknown #
loop $-1 $-1 $209 $128 #
plane-surface $-1 -44.933139656929697 -45.429284133143412 1.3040995746757034 0 -0.52991927123019833 0.84804809178421925 1 0 0 forward_v I I I I #
loop $-1 $-1 $307 $81 #
coedge $-1 $207 $207 $208 $308 reversed $129 $-1 #
coedge $-1 $208 $208 $207 $308 forward $131 $-1 #
coedge $-1 $209 $209 $132 $210 forward $204 $-1 #
edge $-1 $309 -5.6479543306785551e-015 $309 6.2831853071795951 $209 $310 forward 7 unknown #
face $-1 $311 $312 $44 $-1 $313 reversed single #
loop $-1 $-1 $314 $133 #
plane-surface $-1 33.634261098943767 -118.56710304276129 118.34907440560173 1 0 0 0 0.52991927123019833 -0.84804809178421925 forward_v I I I I #
coedge $-1 $315 $316 $317 $318 reversed $134 $-1 #
coedge $-1 $216 $136 $319 $320 reversed $85 $-1 #
coedge $-1 $136 $215 $315 $321 reversed $85 $-1 #
coedge $-1 $317 $322 $136 $218 forward $323 $-1 #
edge $-1 $324 13.85426738823724 $325 39.757350582709464 $217 $326 forward 7 unknown #
loop $-1 $-1 $224 $137 #
plane-surface $-1 44.933139656929697 -45.429284133143412 1.3040995746757034 0 -0.52991927123019833 0.84804809178421925 1 0 0 forward_v I I I I #
loop $-1 $-1 $327 $87 #
coedge $-1 $222 $222 $223 $328 reversed $138 $-1 #
coedge $-1 $223 $223 $222 $328 forward $140 $-1 #
coedge $-1 $224 $224 $141 $225 forward $219 $-1 #
edge $-1 $329 -5.6479543306785551e-015 $329 6.2831853071795951 $224 $330 forward 7 unknown #
loop $-1 $-1 $231 $142 #
plane-surface $-1 44.933139656929697 -45.429284133143412 1.3040995746757034 0 -0.52991927123019833 0.84804809178421925 1 0 0 forward_v I I I I #
loop $-1 $-1 $331 $90 #
coedge $-1 $229 $229 $230 $332 reversed $143 $-1 #
coedge $-1 $230 $230 $229 $332 forward $145 $-1 #
coedge $-1 $231 $231 $146 $232 forward $226 $-1 #
edge $-1 $333 -5.6479543306785551e-015 $333 6.2831853071795951 $231 $334 forward 7 unknown #
loop $-1 $-1 $238 $147 #
plane-surface $-1 44.933139656929697 -45.429284133143412 1.3040995746757034 0 -0.52991927123019833 0.84804809178421925 1 0 0 forward_v I I I I #
loop $-1 $-1 $335 $93 #
coedge $-1 $236 $236 $237 $336 reversed $148 $-1 #
coedge $-1 $237 $237 $236 $336 forward $150 $-1 #
coedge $-1 $238 $238 $151 $239 forward $233 $-1 #
edge $-1 $337 -5.6479543306785551e-015 $337 6.2831853071795951 $238 $338 forward 7 unknown #
face $-1 $339 $340 $36 $-1 $341 reversed single #
loop $-1 $-1 $342 $152 #
plane-surface $-1 -69.008453627124851 0 0 1 0 0 0 0 -1 forward_v I I I I #
coedge $-1 $343 $251 $344 $345 forward $153 $-1 #
coedge $-1 $346 $155 $343 $347 forward $97 $-1 #
coedge $-1 $155 $346 $348 $349 forward $97 $-1 #
coedge $-1 $254 $253 $155 $247 reversed $255 $-1 #
edge $-1 $350 -45.429284133143405 $351 45.429284133143405 $246 $352 forward 7 unknown #
coedge $-1 $157 $156 $353 $354 forward $61 $-1 #
coedge $-1 $355 $356 $156 $250 reversed $340 $-1 #
edge $-1 $257 -69.008453627124851 $357 69.008453627124851 $249 $358 forward 7 unknown #
coedge $-1 $243 $359 $157 $252 reversed $153 $-1 #
edge $-1 $360 -69.008453627124851 $256 69.008453627124851 $251 $361 forward 7 unknown #
coedge $-1 $246 $158 $359 $362 forward $255 $-1 #
coedge $-1 $158 $246 $355 $363 reversed $255 $-1 #
loop $-1 $-1 $253 $339 #
vertex $-1 $159 $364 #
vertex $-1 $159 $365 #
straight-curve $-1 69.008453627124851 0 17.490142680026572 0 1 0 I I #
face $-1 $-1 $271 $37 $-1 $366 forward single #
loop $-1 $-1 $367 $160 #
plane-surface $-1 0 45.429284133143405 0 0 -1 0 0 0 -1 forward_v I I I I #
coedge $-1 $368 $369 $370 $371 reversed $161 $-1 #
coedge $-1 $372 $163 $165 $269 forward $101 $-1 #
coedge $-1 $163 $372 $368 $373 forward $101 $-1 #
coedge $-1 $370 $166 $163 $266 forward $271 $-1 #
edge $-1 $273 -9.9730814592183492 $374 30.296416566363916 $265 $375 forward 7 unknown #
coedge $-1 $376 $377 $164 $268 forward $260 $-1 #
edge $-1 $378 -79.56815398403856 $272 -68.005053216313883 $267 $379 forward 7 unknown #
edge $-1 $273 71.186246487370994 $378 90.858568266286795 $165 $380 forward 7 unknown #
coedge $-1 $166 $370 $376 $381 forward $271 $-1 #
loop $-1 $-1 $370 $259 #
vertex $-1 $268 $382 #
vertex $-1 $167 $383 #
straight-curve $-1 0.18858609435443441 26.52373125216597 17.490142680026565 0 -1 0 I I #
coedge $-1 $275 $275 $-1 $384 reversed $170 $-1 #
edge $-1 $385 0 $385 6.2831853071796004 $171 $386 forward 7 unknown #
vertex $-1 $174 $387 #
ellipse-curve $-1 11.694156958806516 37.471662867830361 11.708592296164234 0 0.5877852598018023 0.80901698891910034 4 0 0 1 I I #
coedge $-1 $279 $279 $-1 $388 reversed $177 $-1 #
edge $-1 $389 0 $389 6.2831853071796004 $178 $390 forward 7 unknown #
vertex $-1 $181 $391 #
ellipse-curve $-1 28.952513255484632 37.471662867830361 11.708592296164234 0 0.5877852598018023 0.80901698891910034 4 0 0 1 I I #
face $-1 $-1 $295 $40 $-1 $392 forward single #
loop $-1 $-1 $393 $182 #
plane-surface $-1 0 -45.429284133143405 0 0 1 0 0 0 1 forward_v I I I I #
coedge $-1 $394 $395 $396 $397 reversed $183 $-1 #
coedge $-1 $398 $185 $187 $293 forward $115 $-1 #
coedge $-1 $185 $398 $394 $399 forward $115 $-1 #
coedge $-1 $396 $188 $185 $290 forward $295 $-1 #
edge $-1 $297 11.167691270478919 $400 33.765448386450778 $289 $401 forward 7 unknown #
coedge $-1 $402 $403 $186 $292 forward $284 $-1 #
edge $-1 $404 -57.870437628125153 $296 -41.684394522774291 $291 $405 forward 7 unknown #
edge $-1 $297 -30.544356440888166 $404 -8.3790584163743152e-015 $187 $406 forward 7 unknown #
coedge $-1 $188 $396 $402 $407 forward $295 $-1 #
loop $-1 $-1 $396 $283 #
vertex $-1 $292 $408 #
vertex $-1 $189 $409 #
straight-curve $-1 -33.634261098943767 -59.283551521380645 17.490142680026572 0 1 0 I I #
coedge $-1 $299 $299 $-1 $410 reversed $192 $-1 #
edge $-1 $411 0 $411 6.2831853071796004 $193 $412 forward 7 unknown #
vertex $-1 $196 $413 #
ellipse-curve $-1 -51.712466791721248 -32.477742535907282 9.397121127351145 0 -0.52991927123019833 0.84804809178421925 1 0 0 1 I I #
coedge $-1 $303 $303 $-1 $414 reversed $199 $-1 #
edge $-1 $415 0 $415 6.2831853071796004 $200 $416 forward 7 unknown #
vertex $-1 $203 $417 #
ellipse-curve $-1 -44.933139656929697 -32.477742535907282 9.397121127351145 0 -0.52991927123019833 0.84804809178421925 1 0 0 1 I I #
coedge $-1 $307 $307 $-1 $418 reversed $206 $-1 #
edge $-1 $419 0 $419 6.2831853071796004 $207 $420 forward 7 unknown #
vertex $-1 $210 $421 #
ellipse-curve $-1 -38.153812522138139 -32.477742535907282 9.397121127351145 0 -0.52991927123019833 0.84804809178421925 1 0 0 1 I I #
face $-1 $-1 $323 $44 $-1 $422 forward single #
loop $-1 $-1 $423 $211 #
plane-surface $-1 0 -45.429284133143405 0 0 1 0 0 0 1 forward_v I I I I #
coedge $-1 $424 $425 $426 $427 reversed $212 $-1 #
coedge $-1 $428 $214 $216 $321 forward $134 $-1 #
coedge $-1 $214 $428 $424 $429 forward $134 $-1 #
coedge $-1 $426 $217 $214 $318 forward $323 $-1 #
edge $-1 $325 -33.765448386450778 $430 -11.167691270478919 $317 $431 forward 7 unknown #
coedge $-1 $432 $433 $215 $320 forward $312 $-1 #
edge $-1 $434 -57.870437628125153 $324 -41.684394522774291 $319 $435 forward 7 unknown #
edge $-1 $325 -30.544356440888166 $434 -8.3790584163743152e-015 $216 $436 forward 7 unknown #
coedge $-1 $217 $426 $432 $437 forward $323 $-1 #
loop $-1 $-1 $426 $311 #
vertex $-1 $320 $438 #
vertex $-1 $218 $439 #
straight-curve $-1 56.232018214915627 -59.283551521380645 17.490142680026572 0 1 0 I I #
coedge $-1 $327 $327 $-1 $440 reversed $221 $-1 #
edge $-1 $441 0 $441 6.2831853071796004 $222 $442 forward 7 unknown #
vertex $-1 $225 $443 #
ellipse-curve $-1 38.153812522138139 -32.477742535907282 9.397121127351145 0 -0.52991927123019833 0.84804809178421925 1 0 0 1 I I #
coedge $-1 $331 $331 $-1 $444 reversed $228 $-1 #
edge $-1 $445 0 $445 6.2831853071796004 $229 $446 forward 7 unknown #
vertex $-1 $232 $447 #
ellipse-curve $-1 44.933139656929697 -32.477742535907282 9.397121127351145 0 -0.52991927123019833 0.84804809178421925 1 0 0 1 I I #
coedge $-1 $335 $335 $-1 $448 reversed $235 $-1 #
edge $-1 $449 0 $449 6.2831853071796004 $236 $450 forward 7 unknown #
vertex $-1 $239 $451 #
ellipse-curve $-1 51.712466791721255 -32.477742535907282 9.397121127351145 0 -0.52991927123019833 0.84804809178421925 1 0 0 1 I I #
face $-1 $-1 $255 $36 $-1 $452 reversed single #
loop $-1 $-1 $355 $240 #
plane-surface $-1 0 45.429284133143405 0 0 -1 0 0 0 -1 forward_v I I I I #
coedge $-1 $453 $353 $356 $454 forward $241 $-1 #
coedge $-1 $359 $243 $244 $347 reversed $153 $-1 #
coedge $-1 $353 $453 $243 $345 reversed $241 $-1 #
edge $-1 $360 -17.490142680026572 $455 17.490142680026572 $344 $456 forward 7 unknown #
coedge $-1 $245 $244 $453 $457 forward $97 $-1 #
edge $-1 $351 -69.008453627124851 $455 69.008453627124851 $343 $458 forward 7 unknown #
coedge $-1 $356 $355 $245 $349 reversed $340 $-1 #
edge $-1 $459 -69.008453627124851 $350 69.008453627124851 $348 $460 forward 7 unknown #
vertex $-1 $247 $461 #
vertex $-1 $362 $462 #
straight-curve $-1 69.008453627124851 0 -17.490142680026572 0 -1 0 I I #
coedge $-1 $342 $344 $248 $354 reversed $241 $-1 #
edge $-1 $357 -45.429284133143405 $360 45.429284133143405 $353 $463 forward 7 unknown #
coedge $-1 $348 $249 $254 $363 forward $340 $-1 #
coedge $-1 $249 $348 $342 $454 reversed $340 $-1 #
vertex $-1 $250 $464 #
straight-curve $-1 0 45.429284133143405 17.490142680026572 -1 0 0 I I #
coedge $-1 $251 $343 $253 $362 reversed $153 $-1 #
vertex $-1 $354 $465 #
straight-curve $-1 0 -45.429284133143405 17.490142680026572 1 0 0 I I #
edge $-1 $256 -17.490142680026572 $351 17.490142680026572 $253 $466 forward 7 unknown #
edge $-1 $257 -17.490142680026572 $350 17.490142680026572 $254 $467 forward 7 unknown #
point $-1 69.008453627124851 -45.429284133143405 17.490142680026572 #
point $-1 69.008453627124851 45.429284133143405 17.490142680026572 #
plane-surface $-1 0 0 17.490142680026572 0 0 1 1 0 0 forward_v I I I I #
coedge $-1 $377 $376 $369 $468 forward $260 $-1 #
coedge $-1 $369 $262 $264 $373 reversed $161 $-1 #
coedge $-1 $262 $368 $367 $468 reversed $161 $-1 #
coedge $-1 $270 $265 $262 $371 forward $271 $-1 #
edge $-1 $374 2.9903103503513258 $469 18.905552880977435 $370 $470 forward 7 unknown #
coedge $-1 $264 $263 $377 $471 reversed $101 $-1 #
edge $-1 $472 -90.858568266286795 $374 -71.186246487370994 $368 $473 forward 7 unknown #
vertex $-1 $266 $474 #
straight-curve $-1 10.161667553572784 29.514041602517302 17.490142680026572 1 0 0 I I #
coedge $-1 $367 $267 $270 $381 reversed $260 $-1 #
coedge $-1 $267 $367 $372 $471 forward $260 $-1 #
vertex $-1 $268 $475 #
straight-curve $-1 0.18858609435443441 45.429284133143405 85.495195896340448 0 0 1 I I #
straight-curve $-1 0.18858609435443441 -28.076841183148467 59.332369065921071 0 0.80901698891910034 -0.5877852598018023 I I #
edge $-1 $469 -40.4580841199367 $272 -0.18858609435443441 $376 $476 forward 7 unknown #
point $-1 0.18858609435443441 45.429284133143405 17.490142680026572 #
point $-1 0.18858609435443441 29.514041602517295 17.490142680026572 #
edge $-1 $477 1 $477 0 $275 $-1 forward 7 unknown #
vertex $-1 $276 $478 #
ellipse-curve $-1 11.694156958806516 28.876476161554123 -0.12166705850860771 0 0.5877852598018023 0.80901698891910034 4 0 0 1 I I #
point $-1 15.694156958806516 37.471662867830354 11.70859229616423 #
edge $-1 $479 1 $479 0 $279 $-1 forward 7 unknown #
vertex $-1 $280 $480 #
ellipse-curve $-1 28.952513255484632 28.876476161554123 -0.12166705850860771 0 0.5877852598018023 0.80901698891910034 4 0 0 1 I I #
point $-1 32.952513255484632 37.471662867830354 11.70859229616423 #
plane-surface $-1 0 0 17.490142680026572 0 0 1 1 0 0 forward_v I I I I #
coedge $-1 $403 $402 $395 $481 forward $284 $-1 #
coedge $-1 $395 $286 $288 $399 reversed $183 $-1 #
coedge $-1 $286 $394 $393 $481 reversed $183 $-1 #
coedge $-1 $294 $289 $286 $397 forward $295 $-1 #
edge $-1 $400 -39.757350582709464 $482 -13.85426738823724 $396 $483 forward 7 unknown #
coedge $-1 $288 $287 $403 $484 reversed $115 $-1 #
edge $-1 $485 8.3790584163743152e-015 $400 30.544356440888166 $394 $486 forward 7 unknown #
vertex $-1 $290 $487 #
straight-curve $-1 -22.466569828464849 -19.526200938671181 17.490142680026572 -1 0 0 I I #
coedge $-1 $393 $291 $294 $407 reversed $284 $-1 #
coedge $-1 $291 $393 $398 $484 forward $284 $-1 #
vertex $-1 $292 $488 #
straight-curve $-1 -33.634261098943767 -45.429284133143405 59.174537202800863 0 0 1 I I #
straight-curve $-1 -33.634261098943767 -45.429284133143412 1.3040995746757034 0 -0.84804809178421925 -0.52991927123019833 I I #
edge $-1 $482 -56.232018214915627 $296 -33.634261098943767 $402 $489 forward 7 unknown #
point $-1 -33.634261098943767 -45.429284133143405 17.490142680026572 #
point $-1 -33.634261098943767 -19.526200938671181 17.490142680026572 #
edge $-1 $490 1 $490 0 $299 $-1 forward 7 unknown #
vertex $-1 $300 $491 #
ellipse-curve $-1 -51.712466791721248 -31.920217069542037 8.5048938890879668 0 -0.52991927123019833 0.84804809178421925 1 0 0 1 I I #
point $-1 -50.712466791721248 -32.477742535907282 9.3971211273511344 #
edge $-1 $492 1 $492 0 $303 $-1 forward 7 unknown #
vertex $-1 $304 $493 #
ellipse-curve $-1 -44.933139656929697 -31.920217069542037 8.5048938890879668 0 -0.52991927123019833 0.84804809178421925 1 0 0 1 I I #
point $-1 -43.933139656929697 -32.477742535907282 9.3971211273511344 #
edge $-1 $494 1 $494 0 $307 $-1 forward 7 unknown #
vertex $-1 $308 $495 #
ellipse-curve $-1 -38.153812522138139 -31.920217069542037 8.5048938890879668 0 -0.52991927123019833 0.84804809178421925 1 0 0 1 I I #
point $-1 -37.153812522138139 -32.477742535907282 9.3971211273511344 #
plane-surface $-1 0 0 17.490142680026572 0 0 1 1 0 0 forward_v I I I I #
coedge $-1 $433 $432 $425 $496 forward $312 $-1 #
coedge $-1 $425 $314 $316 $429 reversed $212 $-1 #
coedge $-1 $314 $424 $423 $496 reversed $212 $-1 #
coedge $-1 $322 $317 $314 $427 forward $323 $-1 #
edge $-1 $430 -39.757350582709464 $497 -13.85426738823724 $426 $498 forward 7 unknown #
coedge $-1 $316 $315 $433 $499 reversed $134 $-1 #
edge $-1 $500 8.3790584163743152e-015 $430 30.544356440888166 $424 $501 forward 7 unknown #
vertex $-1 $318 $502 #
straight-curve $-1 22.466569828464849 -19.526200938671181 17.490142680026572 -1 0 0 I I #
coedge $-1 $423 $319 $322 $437 reversed $312 $-1 #
coedge $-1 $319 $423 $428 $499 forward $312 $-1 #
vertex $-1 $320 $503 #
straight-curve $-1 56.232018214915627 -45.429284133143405 59.174537202800863 0 0 1 I I #
straight-curve $-1 56.232018214915627 -45.429284133143412 1.3040995746757034 0 -0.84804809178421925 -0.52991927123019833 I I #
edge $-1 $497 33.634261098943767 $324 56.232018214915627 $432 $504 forward 7 unknown #
point $-1 56.232018214915627 -45.429284133143405 17.490142680026572 #
point $-1 56.232018214915627 -19.526200938671181 17.490142680026572 #
edge $-1 $505 1 $505 0 $327 $-1 forward 7 unknown #
vertex $-1 $328 $506 #
ellipse-curve $-1 38.153812522138139 -31.920217069542037 8.5048938890879668 0 -0.52991927123019833 0.84804809178421925 1 0 0 1 I I #
point $-1 39.153812522138139 -32.477742535907282 9.3971211273511344 #
edge $-1 $507 1 $507 0 $331 $-1 forward 7 unknown #
vertex $-1 $332 $508 #
ellipse-curve $-1 44.933139656929697 -31.920217069542037 8.5048938890879668 0 -0.52991927123019833 0.84804809178421925 1 0 0 1 I I #
point $-1 45.933139656929697 -32.477742535907282 9.3971211273511344 #
edge $-1 $509 1 $509 0 $335 $-1 forward 7 unknown #
vertex $-1 $336 $510 #
ellipse-curve $-1 51.712466791721255 -31.920217069542037 8.5048938890879668 0 -0.52991927123019833 0.84804809178421925 1 0 0 1 I I #
point $-1 52.712466791721255 -32.477742535907282 9.3971211273511344 #
plane-surface $-1 69.008453627124851 0 0 -1 0 0 0 0 1 forward_v I I I I #
coedge $-1 $344 $342 $346 $457 reversed $241 $-1 #
edge $-1 $357 -17.490142680026572 $459 17.490142680026572 $356 $511 forward 7 unknown #
vertex $-1 $457 $512 #
straight-curve $-1 -69.008453627124851 -45.429284133143405 0 0 0 -1 I I #
edge $-1 $455 -45.429284133143405 $459 45.429284133143405 $453 $513 forward 7 unknown #
straight-curve $-1 0 -45.429284133143405 -17.490142680026572 -1 0 0 I I #
vertex $-1 $349 $514 #
straight-curve $-1 0 45.429284133143405 -17.490142680026572 1 0 0 I I #
point $-1 69.008453627124851 45.429284133143405 -17.490142680026572 #
point $-1 69.008453627124851 -45.429284133143405 -17.490142680026572 #
straight-curve $-1 -69.008453627124851 0 17.490142680026572 0 -1 0 I I #
point $-1 -69.008453627124851 45.429284133143405 17.490142680026572 #
point $-1 -69.008453627124851 -45.429284133143405 17.490142680026572 #
straight-curve $-1 69.008453627124851 -45.429284133143405 0 0 0 -1 I I #
straight-curve $-1 69.008453627124851 45.429284133143405 0 0 0 -1 I I #
edge $-1 $469 68.005053216313883 $472 79.56815398403856 $367 $515 forward 7 unknown #
vertex $-1 $381 $516 #
straight-curve $-1 40.4580841199367 26.52373125216597 17.490142680026565 0 1 0 I I #
edge $-1 $472 -30.296416566363916 $378 9.9730814592183492 $377 $517 forward 7 unknown #
vertex $-1 $471 $518 #
straight-curve $-1 40.4580841199367 -28.076841183148467 59.332369065921071 0 -0.80901698891910034 0.5877852598018023 I I #
point $-1 40.4580841199367 29.514041602517295 17.490142680026572 #
point $-1 0.18858609435443441 45.429284133143405 5.9270419123018954 #
straight-curve $-1 0 45.429284133143405 17.490142680026572 -1 0 0 I I #
vertex $-1 $384 $519 #
point $-1 15.694156958806516 28.876476161554123 -0.12166705850860771 #
vertex $-1 $388 $520 #
point $-1 32.952513255484632 28.876476161554123 -0.12166705850860771 #
edge $-1 $482 41.684394522774291 $485 57.870437628125153 $393 $521 forward 7 unknown #
vertex $-1 $407 $522 #
straight-curve $-1 -56.232018214915627 -59.283551521380645 17.490142680026572 0 -1 0 I I #
edge $-1 $485 -33.765448386450778 $404 -11.167691270478919 $403 $523 forward 7 unknown #
vertex $-1 $484 $524 #
straight-curve $-1 -56.232018214915627 -45.429284133143412 1.3040995746757034 0 0.84804809178421925 0.52991927123019833 I I #
point $-1 -56.232018214915627 -19.526200938671181 17.490142680026572 #
point $-1 -33.634261098943767 -45.429284133143405 1.3040995746757078 #
straight-curve $-1 0 -45.429284133143405 17.490142680026572 1 0 0 I I #
vertex $-1 $410 $525 #
point $-1 -50.712466791721248 -31.920217069542037 8.5048938890879668 #
vertex $-1 $414 $526 #
point $-1 -43.933139656929697 -31.920217069542037 8.5048938890879668 #
vertex $-1 $418 $527 #
point $-1 -37.153812522138139 -31.920217069542037 8.5048938890879668 #
edge $-1 $497 41.684394522774291 $500 57.870437628125153 $423 $528 forward 7 unknown #
vertex $-1 $437 $529 #
straight-curve $-1 33.634261098943767 -59.283551521380645 17.490142680026572 0 -1 0 I I #
edge $-1 $500 11.167691270478919 $434 33.765448386450778 $433 $530 forward 7 unknown #
vertex $-1 $499 $531 #
straight-curve $-1 33.634261098943767 -45.429284133143412 1.3040995746757034 0 0.84804809178421925 0.52991927123019833 I I #
point $-1 33.634261098943767 -19.526200938671181 17.490142680026572 #
point $-1 56.232018214915627 -45.429284133143405 1.3040995746757078 #
straight-curve $-1 0 -45.429284133143405 17.490142680026572 1 0 0 I I #
vertex $-1 $440 $532 #
point $-1 39.153812522138139 -31.920217069542037 8.5048938890879668 #
vertex $-1 $444 $533 #
point $-1 45.933139656929697 -31.920217069542037 8.5048938890879668 #
vertex $-1 $448 $534 #
point $-1 52.712466791721255 -31.920217069542037 8.5048938890879668 #
straight-curve $-1 -69.008453627124851 45.429284133143405 0 0 0 -1 I I #
point $-1 -69.008453627124851 -45.429284133143405 -17.490142680026572 #
straight-curve $-1 -69.008453627124851 0 -17.490142680026572 0 1 0 I I #
point $-1 -69.008453627124851 45.429284133143405 -17.490142680026572 #
straight-curve $-1 40.4580841199367 45.429284133143405 85.495195896340448 0 0 -1 I I #
point $-1 40.4580841199367 45.429284133143405 17.490142680026572 #
straight-curve $-1 10.161667553572784 45.429284133143412 5.9270419123018954 -1 0 0 I I #
point $-1 40.4580841199367 45.429284133143405 5.9270419123018954 #
point $-1 11.694156958806516 26.525335122346917 -3.3577350141850091 #
point $-1 28.952513255484632 26.525335122346917 -3.3577350141850091 #
straight-curve $-1 -56.232018214915627 -45.429284133143405 59.174537202800863 0 0 -1 I I #
point $-1 -56.232018214915627 -45.429284133143405 17.490142680026572 #
straight-curve $-1 -22.466569828464849 -45.429284133143405 1.3040995746757091 1 0 0 I I #
point $-1 -56.232018214915627 -45.429284133143405 1.3040995746757078 #
point $-1 -51.712466791721248 -31.390297798311838 7.6568457973037454 #
point $-1 -44.933139656929697 -31.390297798311838 7.6568457973037454 #
point $-1 -38.153812522138139 -31.390297798311838 7.6568457973037454 #
straight-curve $-1 33.634261098943767 -45.429284133143405 59.174537202800863 0 0 -1 I I #
point $-1 33.634261098943767 -45.429284133143405 17.490142680026572 #
straight-curve $-1 22.466569828464849 -45.429284133143405 1.3040995746757091 1 0 0 I I #
point $-1 33.634261098943767 -45.429284133143405 1.3040995746757078 #
point $-1 38.153812522138139 -31.390297798311838 7.6568457973037454 #
point $-1 44.933139656929697 -31.390297798311838 7.6568457973037454 #
point $-1 51.712466791721255 -31.390297798311838 7.6568457973037454 #
End-of-ACIS-data 