500 0 9 0           
7 Unknown 11 ACIS 5.0 NT 24 Thu Mar 25 16:27:28 1999 
-1 9.9999999999999995e-007 1e-010 
body $-1 $9 $-1 $10 #
body $-1 $11 $-1 $12 #
body $-1 $13 $-1 $14 #
body $-1 $15 $-1 $16 #
body $-1 $17 $-1 $18 #
body $-1 $19 $-1 $20 #
body $-1 $21 $-1 $22 #
body $-1 $23 $-1 $24 #
body $-1 $25 $-1 $26 #
lump $-1 $-1 $27 $0 #
transform $-1 1 0 0 0 1 0 0 0 1 72.897732474745936 45.155125164545758 13.58691491583979 1 rotate no_reflect no_shear #
lump $-1 $-1 $28 $1 #
transform $-1 1 0 0 0 1 0 0 0 1 72.897732474745936 45.155125164545758 13.58691491583979 1 rotate no_reflect no_shear #
lump $-1 $-1 $29 $2 #
transform $-1 1 0 0 0 1 0 0 0 1 72.897732474745936 45.155125164545758 13.58691491583979 1 rotate no_reflect no_shear #
lump $-1 $-1 $30 $3 #
transform $-1 1 0 0 0 1 0 0 0 1 72.897732474745936 45.155125164545758 13.58691491583979 1 rotate no_reflect no_shear #
lump $-1 $-1 $31 $4 #
transform $-1 1 0 0 0 1 0 0 0 1 72.897732474745936 45.155125164545758 13.58691491583979 1 rotate no_reflect no_shear #
lump $-1 $-1 $32 $5 #
transform $-1 1 0 0 0 1 0 0 0 1 72.897732474745936 45.155125164545758 13.58691491583979 1 rotate no_reflect no_shear #
lump $-1 $-1 $33 $6 #
transform $-1 1 0 0 0 1 0 0 0 1 72.897732474745936 45.155125164545758 13.58691491583979 1 rotate no_reflect no_shear #
lump $-1 $-1 $34 $7 #
transform $-1 1 0 0 0 1 0 0 0 1 72.897732474745936 45.155125164545758 13.58691491583979 1 rotate no_reflect no_shear #
lump $-1 $-1 $35 $8 #
transform $-1 1 0 0 0 1 0 0 0 1 72.897732474745936 45.155125164545758 13.58691491583979 1 rotate no_reflect no_shear #
shell $-1 $-1 $-1 $36 $-1 $9 #
shell $-1 $-1 $-1 $37 $-1 $11 #
shell $-1 $-1 $-1 $38 $-1 $13 #
shell $-1 $-1 $-1 $39 $-1 $15 #
shell $-1 $-1 $-1 $40 $-1 $17 #
shell $-1 $-1 $-1 $41 $-1 $19 #
shell $-1 $-1 $-1 $42 $-1 $21 #
shell $-1 $-1 $-1 $43 $-1 $23 #
shell $-1 $-1 $-1 $44 $-1 $25 #
face $-1 $45 $46 $27 $-1 $47 forward single #
face $-1 $48 $49 $28 $-1 $50 reversed single #
face $-1 $51 $52 $29 $-1 $53 reversed single #
face $-1 $54 $55 $30 $-1 $56 forward single #
face $-1 $57 $58 $31 $-1 $59 reversed single #
face $-1 $60 $61 $32 $-1 $62 forward single #
face $-1 $63 $64 $33 $-1 $65 reversed single #
face $-1 $66 $67 $34 $-1 $68 forward single #
face $-1 $69 $70 $35 $-1 $71 forward single #
face $-1 $72 $73 $27 $-1 $74 reversed single #
loop $-1 $-1 $75 $36 #
plane-surface $-1 0 0 13.58691491583979 0 0 1 1 0 0 forward_v I I I I #
face $-1 $76 $77 $28 $-1 $78 reversed single #
loop $-1 $-1 $79 $37 #
plane-surface $-1 0 -36.673252926282537 5.8723071699613367 0 0 1 1 0 0 forward_v I I I I #
face $-1 $80 $81 $29 $-1 $82 reversed single #
loop $-1 $-1 $83 $38 #
plane-surface $-1 -158.59415771800758 -15.216439107668855 123.68048472628031 0 1 0 -0.5877852598018023 0 0.80901698891910034 forward_v I I I I #
face $-1 $84 $85 $30 $-1 $86 forward single #
loop $-1 $87 $88 $39 #
cone-surface $-1 -67.008912618578805 -6.1538915061996562 8.995602807758635 0.5877852598018023 0 -0.80901698891910034 1.2135254833786506 0 0.88167788970270344 1 I I 0 1 1.5 forward I I I I #
face $-1 $89 $90 $31 $-1 $91 reversed single #
loop $-1 $-1 $92 $40 #
plane-surface $-1 -158.59415771800758 14.055088381256894 123.68048472628031 0 1 0 -0.5877852598018023 0 0.80901698891910034 forward_v I I I I #
face $-1 $93 $94 $32 $-1 $95 forward single #
loop $-1 $96 $97 $41 #
cone-surface $-1 -67.008912618578805 23.117635982726092 8.995602807758635 0.5877852598018023 0 -0.80901698891910034 1.2135254833786506 0 0.88167788970270344 1 I I 0 1 1.5 forward I I I I #
face $-1 $98 $99 $33 $-1 $100 reversed single #
loop $-1 $-1 $101 $42 #
plane-surface $-1 119.27947644319045 -12.924643609060317 203.23964329845737 0 -1 0 -0.84804810408105047 0 -0.52991925155115449 forward_v I I I I #
face $-1 $102 $103 $34 $-1 $104 forward single #
loop $-1 $105 $106 $43 #
cone-surface $-1 67.8297433631665 -23.829455808316748 6.9918384066978732 -0.84804810408105047 0 -0.52991925155115449 1.059838503102309 0 -1.6960962081621009 1 I I 0 1 2 forward I I I I #
face $-1 $107 $108 $35 $-1 $109 forward single #
loop $-1 $110 $111 $44 #
cone-surface $-1 67.8297433631665 -17.286568488762889 6.9918384066978732 -0.84804810408105047 0 -0.52991925155115449 1.059838503102309 0 -1.6960962081621009 1 I I 0 1 2 forward I I I I #
face $-1 $112 $113 $27 $-1 $114 reversed single #
loop $-1 $-1 $115 $45 #
plane-surface $-1 0 0 -13.58691491583979 0 0 1 1 0 0 forward_v I I I I #
coedge $-1 $116 $117 $118 $119 forward $46 $-1 #
face $-1 $120 $121 $28 $-1 $122 reversed single #
loop $-1 $-1 $123 $48 #
plane-surface $-1 0 -28.191380688019315 9.7296110429005633 0 -1 0 0 0 -1 forward_v I I I I #
coedge $-1 $124 $125 $126 $127 reversed $49 $-1 #
face $-1 $128 $129 $29 $-1 $130 reversed single #
loop $-1 $-1 $131 $51 #
plane-surface $-1 -72.897732474745936 -6.1538915061996562 5.7294766747821626 -0.5877852598018023 0 0.80901698891910034 0.80901698891910034 0 0.5877852598018023 forward_v I I I I #
coedge $-1 $132 $133 $134 $135 reversed $52 $-1 #
face $-1 $-1 $136 $30 $-1 $137 forward single #
loop $-1 $138 $139 $54 #
cone-surface $-1 -66.086671680115856 -6.1538915061996562 7.7262470785169715 0.5877852598018023 0 -0.80901698891910034 0.60676274168932531 0 0.44083894485135172 1 I I -0.70710678118654757 0.70710678118654757 0.75 forward I I I I #
loop $-1 $-1 $140 $39 #
coedge $-1 $88 $88 $141 $142 reversed $55 $-1 #
face $-1 $143 $144 $31 $-1 $145 reversed single #
loop $-1 $-1 $146 $57 #
plane-surface $-1 -72.897732474745936 23.117635982726092 5.7294766747821626 -0.5877852598018023 0 0.80901698891910034 0.80901698891910034 0 0.5877852598018023 forward_v I I I I #
coedge $-1 $147 $148 $149 $150 reversed $58 $-1 #
face $-1 $-1 $151 $32 $-1 $152 forward single #
loop $-1 $153 $154 $60 #
cone-surface $-1 -66.086671680115856 23.117635982726092 7.7262470785169715 0.5877852598018023 0 -0.80901698891910034 0.60676274168932531 0 0.44083894485135172 1 I I -0.70710678118654757 0.70710678118654757 0.75 forward I I I I #
loop $-1 $-1 $155 $41 #
coedge $-1 $97 $97 $156 $157 reversed $61 $-1 #
face $-1 $158 $159 $33 $-1 $160 forward single #
loop $-1 $-1 $161 $63 #
plane-surface $-1 -4.3620911908413831 -20.558012148539817 125.97981963287006 0.84804810408105047 0 0.52991925155115449 0.52991925155115449 0 -0.84804810408105047 forward_v I I I I #
coedge $-1 $162 $163 $164 $165 reversed $64 $-1 #
face $-1 $-1 $166 $34 $-1 $167 forward single #
loop $-1 $168 $169 $66 #
cone-surface $-1 65.428178383952996 -23.829455808316748 5.4911741045055837 -0.84804810408105047 0 -0.52991925155115449 0.52991925155115449 0 -0.84804810408105047 1 I I -0.70710678118654746 0.70710678118654746 1 forward I I I I #
loop $-1 $-1 $170 $43 #
coedge $-1 $106 $106 $171 $172 reversed $67 $-1 #
face $-1 $-1 $173 $35 $-1 $174 forward single #
loop $-1 $175 $176 $69 #
cone-surface $-1 65.428178383952996 -17.286568488762889 5.4911741045055837 -0.84804810408105047 0 -0.52991925155115449 0.52991925155115449 0 -0.84804810408105047 1 I I -0.70710678118654746 0.70710678118654746 1 forward I I I I #
loop $-1 $-1 $177 $44 #
coedge $-1 $111 $111 $178 $179 reversed $70 $-1 #
face $-1 $180 $181 $27 $-1 $182 reversed single #
loop $-1 $-1 $183 $72 #
plane-surface $-1 0 -45.155125164545758 0 0 1 0 0 0 1 forward_v I I I I #
coedge $-1 $184 $185 $186 $187 forward $73 $-1 #
coedge $-1 $188 $75 $189 $190 forward $46 $-1 #
coedge $-1 $75 $188 $191 $192 forward $46 $-1 #
coedge $-1 $193 $194 $75 $119 reversed $195 $-1 #
edge $-1 $196 -45.155125164545758 $197 45.155125164545758 $118 $198 forward 7 unknown #
face $-1 $199 $200 $28 $-1 $201 reversed single #
loop $-1 $-1 $202 $76 #
plane-surface $-1 -72.897732474745936 0 0 1 0 0 0 0 -1 forward_v I I I I #
coedge $-1 $203 $204 $125 $205 reversed $77 $-1 #
coedge $-1 $206 $79 $207 $208 reversed $49 $-1 #
coedge $-1 $79 $206 $123 $205 forward $49 $-1 #
coedge $-1 $209 $210 $79 $127 forward $211 $-1 #
edge $-1 $212 -26.81849870140449 $213 -9.8547542248780466 $126 $214 forward 7 unknown #
face $-1 $215 $216 $29 $-1 $217 forward single #
loop $-1 $-1 $218 $80 #
plane-surface $-1 -158.59415771800758 2.9086560952695422 123.68048472628031 0 -1 0 0.5877852598018023 0 -0.80901698891910034 forward_v I I I I #
coedge $-1 $219 $220 $221 $222 reversed $81 $-1 #
coedge $-1 $133 $83 $223 $224 reversed $52 $-1 #
coedge $-1 $83 $132 $219 $225 reversed $52 $-1 #
coedge $-1 $221 $226 $83 $135 forward $216 $-1 #
edge $-1 $227 6.3993463842578535 $228 17.214182109368942 $134 $229 forward 7 unknown #
loop $-1 $-1 $141 $84 #
plane-surface $-1 -72.897732474745936 -6.1538915061996562 5.7294766747821626 -0.5877852598018023 0 0.80901698891910034 0.80901698891910034 0 0.5877852598018023 forward_v I I I I #
loop $-1 $-1 $230 $54 #
coedge $-1 $139 $139 $140 $231 reversed $85 $-1 #
coedge $-1 $140 $140 $139 $231 forward $87 $-1 #
coedge $-1 $141 $141 $88 $142 forward $136 $-1 #
edge $-1 $232 0 $232 6.2831853071796004 $141 $233 forward 7 unknown #
face $-1 $234 $235 $31 $-1 $236 forward single #
loop $-1 $-1 $237 $89 #
plane-surface $-1 -158.59415771800758 32.180183584195291 123.68048472628031 0 -1 0 0.5877852598018023 0 -0.80901698891910034 forward_v I I I I #
coedge $-1 $238 $239 $240 $241 reversed $90 $-1 #
coedge $-1 $148 $92 $242 $243 reversed $58 $-1 #
coedge $-1 $92 $147 $238 $244 reversed $58 $-1 #
coedge $-1 $240 $245 $92 $150 forward $235 $-1 #
edge $-1 $246 6.3993463842578535 $247 17.214182109368942 $149 $248 forward 7 unknown #
loop $-1 $-1 $156 $93 #
plane-surface $-1 -72.897732474745936 23.117635982726092 5.7294766747821626 -0.5877852598018023 0 0.80901698891910034 0.80901698891910034 0 0.5877852598018023 forward_v I I I I #
loop $-1 $-1 $249 $60 #
coedge $-1 $154 $154 $155 $250 reversed $94 $-1 #
coedge $-1 $155 $155 $154 $250 forward $96 $-1 #
coedge $-1 $156 $156 $97 $157 forward $151 $-1 #
edge $-1 $251 0 $251 6.2831853071796004 $156 $252 forward 7 unknown #
face $-1 $253 $254 $33 $-1 $255 forward single #
loop $-1 $-1 $256 $98 #
plane-surface $-1 0 -28.191380688019315 9.7296110429005633 0 -1 0 0 0 -1 forward_v I I I I #
coedge $-1 $257 $258 $259 $260 reversed $99 $-1 #
coedge $-1 $163 $101 $261 $262 reversed $64 $-1 #
coedge $-1 $101 $162 $257 $263 reversed $64 $-1 #
coedge $-1 $259 $264 $101 $165 forward $254 $-1 #
edge $-1 $265 -13.257994253150713 $266 -6.2290497802567586 $164 $267 forward 7 unknown #
loop $-1 $-1 $171 $102 #
plane-surface $-1 -4.3620911908413831 -20.558012148539817 125.97981963287006 0.84804810408105047 0 0.52991925155115449 0.52991925155115449 0 -0.84804810408105047 forward_v I I I I #
loop $-1 $-1 $268 $66 #
coedge $-1 $169 $169 $170 $269 reversed $103 $-1 #
coedge $-1 $170 $170 $169 $269 forward $105 $-1 #
coedge $-1 $171 $171 $106 $172 forward $166 $-1 #
edge $-1 $270 0 $270 6.2831853071796004 $171 $271 forward 7 unknown #
loop $-1 $-1 $178 $107 #
plane-surface $-1 -4.3620911908413831 -20.558012148539817 125.97981963287006 0.84804810408105047 0 0.52991925155115449 0.52991925155115449 0 -0.84804810408105047 forward_v I I I I #
loop $-1 $-1 $272 $69 #
coedge $-1 $176 $176 $177 $273 reversed $108 $-1 #
coedge $-1 $177 $177 $176 $273 forward $110 $-1 #
coedge $-1 $178 $178 $111 $179 forward $173 $-1 #
edge $-1 $274 0 $274 6.2831853071796004 $178 $275 forward 7 unknown #
face $-1 $276 $277 $27 $-1 $278 reversed single #
loop $-1 $-1 $279 $112 #
plane-surface $-1 -72.897732474745936 0 0 1 0 0 0 0 -1 forward_v I I I I #
coedge $-1 $280 $191 $281 $282 forward $113 $-1 #
coedge $-1 $283 $115 $280 $284 forward $73 $-1 #
coedge $-1 $115 $283 $285 $286 forward $73 $-1 #
coedge $-1 $194 $193 $115 $187 reversed $195 $-1 #
edge $-1 $287 -45.155125164545758 $288 45.155125164545758 $186 $289 forward 7 unknown #
coedge $-1 $117 $116 $290 $291 forward $46 $-1 #
coedge $-1 $292 $293 $116 $190 reversed $277 $-1 #
edge $-1 $197 -72.897732474745936 $294 72.897732474745936 $189 $295 forward 7 unknown #
coedge $-1 $183 $296 $117 $192 reversed $113 $-1 #
edge $-1 $297 -72.897732474745936 $196 72.897732474745936 $191 $298 forward 7 unknown #
coedge $-1 $186 $118 $296 $299 forward $195 $-1 #
coedge $-1 $118 $186 $292 $300 reversed $195 $-1 #
loop $-1 $-1 $193 $276 #
vertex $-1 $119 $301 #
vertex $-1 $119 $302 #
straight-curve $-1 72.897732474745936 0 13.58691491583979 0 1 0 I I #
face $-1 $303 $304 $28 $-1 $305 forward single #
loop $-1 $-1 $207 $120 #
plane-surface $-1 0 -45.155125164545758 0 0 1 0 0 0 1 forward_v I I I I #
coedge $-1 $306 $307 $203 $308 forward $121 $-1 #
coedge $-1 $309 $123 $202 $308 reversed $77 $-1 #
coedge $-1 $123 $309 $209 $310 reversed $77 $-1 #
edge $-1 $311 -72.897732474745936 $213 72.897732474745936 $123 $312 forward 7 unknown #
coedge $-1 $125 $124 $306 $313 reversed $49 $-1 #
coedge $-1 $314 $315 $124 $208 forward $200 $-1 #
edge $-1 $316 -72.897732474745936 $212 72.897732474745936 $207 $317 forward 7 unknown #
coedge $-1 $318 $126 $204 $310 forward $211 $-1 #
coedge $-1 $126 $318 $314 $319 forward $211 $-1 #
loop $-1 $-1 $209 $303 #
vertex $-1 $208 $320 #
vertex $-1 $127 $321 #
straight-curve $-1 72.897732474745936 -18.336626463141268 5.8723071699613367 0 1 0 I I #
face $-1 $-1 $322 $29 $-1 $323 reversed single #
loop $-1 $-1 $134 $128 #
plane-surface $-1 0 0 13.58691491583979 0 0 1 1 0 0 forward_v I I I I #
coedge $-1 $324 $325 $326 $327 reversed $129 $-1 #
coedge $-1 $328 $131 $133 $225 forward $81 $-1 #
coedge $-1 $131 $328 $324 $329 forward $81 $-1 #
coedge $-1 $326 $134 $131 $222 forward $216 $-1 #
edge $-1 $228 -12.139493354569026 $330 5.9856018483693703 $221 $331 forward 7 unknown #
coedge $-1 $332 $333 $132 $224 forward $322 $-1 #
edge $-1 $334 -56.110765688357993 $227 -48.253327447300364 $223 $335 forward 7 unknown #
edge $-1 $228 -13.367872211880762 $334 0 $133 $336 forward 7 unknown #
coedge $-1 $134 $326 $332 $337 forward $216 $-1 #
vertex $-1 $224 $338 #
vertex $-1 $135 $339 #
straight-curve $-1 -79.29707885900379 -15.216439107668855 13.586914915839792 1 0 0 I I #
coedge $-1 $230 $230 $-1 $340 reversed $138 $-1 #
edge $-1 $341 0 $341 6.2831853071796004 $139 $342 forward 7 unknown #
vertex $-1 $142 $343 #
ellipse-curve $-1 -67.490314612190403 -6.1538915061996562 9.6581957953109718 -0.5877852598018023 0 0.80901698891910034 1.2135254833786506 0 0.88167788970270344 1 I I #
face $-1 $-1 $344 $31 $-1 $345 reversed single #
loop $-1 $-1 $149 $143 #
plane-surface $-1 0 0 13.58691491583979 0 0 1 1 0 0 forward_v I I I I #
coedge $-1 $346 $347 $348 $349 reversed $144 $-1 #
coedge $-1 $350 $146 $148 $244 forward $90 $-1 #
coedge $-1 $146 $350 $346 $351 forward $90 $-1 #
coedge $-1 $348 $149 $146 $241 forward $235 $-1 #
edge $-1 $247 2.4962703898938479 $352 20.621365592832245 $240 $353 forward 7 unknown #
coedge $-1 $354 $355 $147 $243 forward $344 $-1 #
edge $-1 $356 -56.110765688357993 $246 -48.253327447300364 $242 $357 forward 7 unknown #
edge $-1 $247 -13.367872211880762 $356 0 $148 $358 forward 7 unknown #
coedge $-1 $149 $348 $354 $359 forward $235 $-1 #
vertex $-1 $150 $360 #
vertex $-1 $150 $361 #
straight-curve $-1 -79.29707885900379 14.055088381256894 13.586914915839792 1 0 0 I I #
coedge $-1 $249 $249 $-1 $362 reversed $153 $-1 #
edge $-1 $363 0 $363 6.2831853071796004 $154 $364 forward 7 unknown #
vertex $-1 $157 $365 #
ellipse-curve $-1 -67.490314612190403 23.117635982726092 9.6581957953109718 -0.5877852598018023 0 0.80901698891910034 1.2135254833786506 0 0.88167788970270344 1 I I #
face $-1 $-1 $366 $33 $-1 $367 reversed single #
loop $-1 $-1 $259 $158 #
plane-surface $-1 0 0 13.58691491583979 0 0 1 1 0 0 forward_v I I I I #
coedge $-1 $368 $369 $258 $370 reversed $159 $-1 #
coedge $-1 $371 $161 $163 $263 forward $99 $-1 #
coedge $-1 $161 $371 $256 $370 forward $99 $-1 #
coedge $-1 $372 $164 $161 $260 forward $254 $-1 #
edge $-1 $266 2.6456375347904082 $373 17.912374613749407 $259 $374 forward 7 unknown #
coedge $-1 $375 $376 $162 $262 forward $366 $-1 #
edge $-1 $377 -99.28156965039048 $265 -88.032906733388899 $261 $378 forward 7 unknown #
edge $-1 $266 132.53128469501127 $377 145.7954649494919 $163 $379 forward 7 unknown #
coedge $-1 $164 $372 $375 $380 forward $254 $-1 #
vertex $-1 $262 $381 #
vertex $-1 $165 $382 #
straight-curve $-1 59.639738221595223 -12.924643609060317 13.586914915839785 -1 0 0 I I #
coedge $-1 $268 $268 $-1 $383 reversed $168 $-1 #
edge $-1 $384 0 $384 6.2831853071796004 $169 $385 forward 7 unknown #
vertex $-1 $172 $386 #
ellipse-curve $-1 69.383260238298959 -23.829455808316748 7.9625834573390097 0.84804810408105047 0 0.52991925155115449 1.059838503102309 0 -1.6960962081621009 1 I I #
coedge $-1 $272 $272 $-1 $387 reversed $175 $-1 #
edge $-1 $388 0 $388 6.2831853071796004 $176 $389 forward 7 unknown #
vertex $-1 $179 $390 #
ellipse-curve $-1 69.383260238298959 -17.286568488762889 7.9625834573390097 0.84804810408105047 0 0.52991925155115449 1.059838503102309 0 -1.6960962081621009 1 I I #
face $-1 $-1 $195 $27 $-1 $391 reversed single #
loop $-1 $-1 $292 $180 #
plane-surface $-1 0 45.155125164545758 0 0 -1 0 0 0 -1 forward_v I I I I #
coedge $-1 $392 $290 $293 $393 forward $181 $-1 #
coedge $-1 $296 $183 $184 $284 reversed $113 $-1 #
coedge $-1 $290 $392 $183 $282 reversed $181 $-1 #
edge $-1 $297 -13.58691491583979 $394 13.58691491583979 $281 $395 forward 7 unknown #
coedge $-1 $185 $184 $392 $396 forward $73 $-1 #
edge $-1 $288 -72.897732474745936 $394 72.897732474745936 $280 $397 forward 7 unknown #
coedge $-1 $293 $292 $185 $286 reversed $277 $-1 #
edge $-1 $398 -72.897732474745936 $287 72.897732474745936 $285 $399 forward 7 unknown #
vertex $-1 $187 $400 #
vertex $-1 $299 $401 #
straight-curve $-1 72.897732474745936 0 -13.58691491583979 0 -1 0 I I #
coedge $-1 $279 $281 $188 $291 reversed $181 $-1 #
edge $-1 $294 -45.155125164545758 $297 45.155125164545758 $290 $402 forward 7 unknown #
coedge $-1 $285 $189 $194 $300 forward $277 $-1 #
coedge $-1 $189 $285 $279 $393 reversed $277 $-1 #
vertex $-1 $190 $403 #
straight-curve $-1 0 45.155125164545758 13.58691491583979 -1 0 0 I I #
coedge $-1 $191 $280 $193 $299 reversed $113 $-1 #
vertex $-1 $291 $404 #
straight-curve $-1 0 -45.155125164545758 13.58691491583979 1 0 0 I I #
edge $-1 $196 -13.58691491583979 $288 13.58691491583979 $193 $405 forward 7 unknown #
edge $-1 $197 -13.58691491583979 $287 13.58691491583979 $194 $406 forward 7 unknown #
point $-1 72.897732474745936 -45.155125164545758 13.58691491583979 #
point $-1 72.897732474745936 45.155125164545758 13.58691491583979 #
face $-1 $-1 $211 $28 $-1 $407 reversed single #
loop $-1 $-1 $408 $199 #
plane-surface $-1 0 0 13.58691491583979 0 0 1 1 0 0 forward_v I I I I #
coedge $-1 $409 $202 $206 $313 forward $121 $-1 #
coedge $-1 $202 $409 $410 $411 reversed $121 $-1 #
edge $-1 $412 -8.7221093943895092 $311 -1.0075016485110551 $202 $413 forward 7 unknown #
coedge $-1 $204 $203 $408 $414 reversed $77 $-1 #
edge $-1 $213 1.0075016485110551 $415 8.7221093943895092 $209 $416 forward 7 unknown #
vertex $-1 $313 $417 #
straight-curve $-1 0 -28.191380688019315 5.8723071699613367 1 0 0 I I #
edge $-1 $311 9.8547542248780466 $316 26.81849870140449 $306 $418 forward 7 unknown #
coedge $-1 $419 $207 $210 $319 reversed $200 $-1 #
coedge $-1 $207 $419 $409 $420 forward $200 $-1 #
vertex $-1 $208 $421 #
straight-curve $-1 0 -45.155125164545758 5.8723071699613367 1 0 0 I I #
coedge $-1 $210 $209 $422 $423 reversed $211 $-1 #
edge $-1 $424 -13.58691491583979 $212 -5.8723071699613367 $210 $425 forward 7 unknown #
point $-1 72.897732474745936 -45.155125164545758 5.8723071699613367 #
point $-1 72.897732474745936 -28.191380688019315 5.8723071699613367 #
loop $-1 $-1 $223 $215 #
plane-surface $-1 -72.897732474745936 0 0 1 0 0 0 0 -1 forward_v I I I I #
coedge $-1 $325 $218 $220 $329 reversed $129 $-1 #
coedge $-1 $218 $324 $426 $427 reversed $129 $-1 #
coedge $-1 $226 $221 $218 $327 forward $216 $-1 #
edge $-1 $330 -17.214182109368942 $428 -6.3993463842578535 $326 $429 forward 7 unknown #
coedge $-1 $220 $219 $333 $430 reversed $81 $-1 #
edge $-1 $431 0 $330 13.367872211880762 $324 $432 forward 7 unknown #
vertex $-1 $222 $433 #
straight-curve $-1 -62.082896749634848 -3.0769457530998281 13.58691491583979 0 1 0 I I #
coedge $-1 $426 $223 $226 $337 reversed $322 $-1 #
coedge $-1 $223 $426 $328 $430 forward $322 $-1 #
vertex $-1 $224 $434 #
straight-curve $-1 -72.897732474745936 -15.216439107668855 61.840242363140156 0 0 1 I I #
straight-curve $-1 -72.897732474745936 -15.216439107668855 5.7294766747821626 -0.80901698891910034 0 -0.5877852598018023 I I #
edge $-1 $428 -2.9086560952695422 $227 15.216439107668855 $332 $435 forward 7 unknown #
point $-1 -72.897732474745936 -15.216439107668855 13.58691491583979 #
point $-1 -62.082896749634848 -15.216439107668855 13.58691491583979 #
edge $-1 $436 1 $436 0 $230 $-1 forward 7 unknown #
vertex $-1 $231 $437 #
ellipse-curve $-1 -66.527510624967206 -6.1538915061996562 8.3330098202062963 -0.5877852598018023 0 0.80901698891910034 1.2135254833786506 0 0.88167788970270344 1 I I #
point $-1 -66.276789128811743 -6.1538915061996562 10.539873685013676 #
loop $-1 $-1 $242 $234 #
plane-surface $-1 -72.897732474745936 0 0 1 0 0 0 0 -1 forward_v I I I I #
coedge $-1 $347 $237 $239 $351 reversed $144 $-1 #
coedge $-1 $237 $346 $438 $439 reversed $144 $-1 #
coedge $-1 $245 $240 $237 $349 forward $235 $-1 #
edge $-1 $352 -17.214182109368942 $440 -6.3993463842578535 $348 $441 forward 7 unknown #
coedge $-1 $239 $238 $355 $442 reversed $90 $-1 #
edge $-1 $443 0 $352 13.367872211880762 $346 $444 forward 7 unknown #
vertex $-1 $241 $445 #
straight-curve $-1 -62.082896749634848 11.558817991363046 13.58691491583979 0 1 0 I I #
coedge $-1 $438 $242 $245 $359 reversed $344 $-1 #
coedge $-1 $242 $438 $350 $442 forward $344 $-1 #
vertex $-1 $243 $446 #
straight-curve $-1 -72.897732474745936 14.055088381256894 61.840242363140156 0 0 1 I I #
straight-curve $-1 -72.897732474745936 14.055088381256894 5.7294766747821626 -0.80901698891910034 0 -0.5877852598018023 I I #
edge $-1 $440 -32.180183584195291 $246 -14.055088381256894 $354 $447 forward 7 unknown #
point $-1 -72.897732474745936 14.055088381256894 13.58691491583979 #
point $-1 -62.082896749634848 14.055088381256894 13.58691491583979 #
edge $-1 $448 1 $448 0 $249 $-1 forward 7 unknown #
vertex $-1 $250 $449 #
ellipse-curve $-1 -66.527510624967206 23.117635982726092 8.3330098202062963 -0.5877852598018023 0 0.80901698891910034 1.2135254833786506 0 0.88167788970270344 1 I I #
point $-1 -66.276789128811743 23.117635982726092 10.539873685013676 #
loop $-1 $-1 $261 $253 #
plane-surface $-1 72.897732474745936 0 0 -1 0 0 0 0 1 forward_v I I I I #
coedge $-1 $369 $256 $450 $451 reversed $159 $-1 #
coedge $-1 $256 $368 $372 $452 reversed $159 $-1 #
edge $-1 $453 -145.7954649494919 $373 -132.53128469501127 $256 $454 forward 7 unknown #
coedge $-1 $258 $257 $376 $455 reversed $99 $-1 #
coedge $-1 $264 $259 $369 $452 forward $254 $-1 #
vertex $-1 $452 $456 #
straight-curve $-1 65.868788001851982 -10.279006074269908 13.586914915839785 0 -1 0 I I #
coedge $-1 $450 $261 $264 $380 reversed $366 $-1 #
coedge $-1 $261 $450 $371 $455 forward $366 $-1 #
vertex $-1 $262 $457 #
straight-curve $-1 72.897732474745936 -12.924643609060317 101.61982164922868 0 0 1 I I #
straight-curve $-1 -4.3620911908413831 -12.924643609060317 125.97981963287006 0.52991925155115449 0 -0.84804810408105047 I I #
edge $-1 $458 -28.191380688019315 $265 -12.924643609060317 $375 $459 forward 7 unknown #
point $-1 72.897732474745936 -12.924643609060317 13.58691491583979 #
point $-1 65.868788001851982 -12.924643609060317 13.586914915839799 #
edge $-1 $460 1 $460 0 $268 $-1 forward 7 unknown #
vertex $-1 $269 $461 #
ellipse-curve $-1 66.276226488034041 -23.829455808316748 6.0210933560567383 0.84804810408105047 0 0.52991925155115449 1.059838503102309 0 -1.6960962081621009 1 I I #
point $-1 70.443098741401258 -23.829455808316748 6.2664872491769064 #
edge $-1 $462 1 $462 0 $272 $-1 forward 7 unknown #
vertex $-1 $273 $463 #
ellipse-curve $-1 66.276226488034041 -17.286568488762889 6.0210933560567383 0.84804810408105047 0 0.52991925155115449 1.059838503102309 0 -1.6960962081621009 1 I I #
point $-1 70.443098741401258 -17.286568488762889 6.2664872491769064 #
plane-surface $-1 72.897732474745936 0 0 -1 0 0 0 0 1 forward_v I I I I #
coedge $-1 $281 $279 $283 $396 reversed $181 $-1 #
edge $-1 $294 -13.58691491583979 $398 13.58691491583979 $293 $464 forward 7 unknown #
vertex $-1 $396 $465 #
straight-curve $-1 -72.897732474745936 -45.155125164545758 0 0 0 -1 I I #
edge $-1 $394 -45.155125164545758 $398 45.155125164545758 $392 $466 forward 7 unknown #
straight-curve $-1 0 -45.155125164545758 -13.58691491583979 -1 0 0 I I #
vertex $-1 $286 $467 #
straight-curve $-1 0 45.155125164545758 -13.58691491583979 1 0 0 I I #
point $-1 72.897732474745936 45.155125164545758 -13.58691491583979 #
point $-1 72.897732474745936 -45.155125164545758 -13.58691491583979 #
straight-curve $-1 -72.897732474745936 0 13.58691491583979 0 -1 0 I I #
point $-1 -72.897732474745936 45.155125164545758 13.58691491583979 #
point $-1 -72.897732474745936 -45.155125164545758 13.58691491583979 #
straight-curve $-1 72.897732474745936 -45.155125164545758 0 0 0 -1 I I #
straight-curve $-1 72.897732474745936 45.155125164545758 0 0 0 -1 I I #
plane-surface $-1 72.897732474745936 0 0 -1 0 0 0 0 1 forward_v I I I I #
coedge $-1 $410 $422 $309 $414 forward $304 $-1 #
coedge $-1 $307 $306 $315 $420 reversed $121 $-1 #
coedge $-1 $468 $408 $307 $411 forward $304 $-1 #
edge $-1 $412 28.191380688019315 $469 45.155125164545758 $307 $470 forward 7 unknown #
vertex $-1 $411 $471 #
straight-curve $-1 -72.897732474745936 -28.191380688019315 4.8648055214502817 0 0 -1 I I #
edge $-1 $415 -72.897732474745936 $412 72.897732474745936 $408 $472 forward 7 unknown #
vertex $-1 $310 $473 #
straight-curve $-1 72.897732474745936 -28.191380688019315 4.8648055214502817 0 0 1 I I #
point $-1 -72.897732474745936 -28.191380688019315 5.8723071699613367 #
straight-curve $-1 -72.897732474745936 -18.336626463141268 5.8723071699613367 0 -1 0 I I #
coedge $-1 $315 $314 $468 $474 reversed $200 $-1 #
edge $-1 $469 -13.58691491583979 $316 -5.8723071699613367 $409 $475 forward 7 unknown #
point $-1 -72.897732474745936 -45.155125164545758 5.8723071699613367 #
coedge $-1 $408 $468 $318 $423 forward $304 $-1 #
edge $-1 $424 -45.155125164545758 $415 -28.191380688019315 $318 $476 forward 7 unknown #
vertex $-1 $423 $477 #
straight-curve $-1 72.897732474745936 -45.155125164545758 0 0 0 -1 I I #
coedge $-1 $333 $332 $325 $427 forward $322 $-1 #
edge $-1 $428 48.253327447300364 $431 56.110765688357993 $426 $478 forward 7 unknown #
vertex $-1 $337 $479 #
straight-curve $-1 -79.29707885900379 2.9086560952695422 13.586914915839792 -1 0 0 I I #
edge $-1 $431 -5.9856018483693703 $334 12.139493354569026 $333 $480 forward 7 unknown #
vertex $-1 $430 $481 #
straight-curve $-1 -72.897732474745936 2.9086560952695422 5.7294766747821626 0.80901698891910034 0 0.5877852598018023 I I #
point $-1 -62.082896749634848 2.9086560952695422 13.58691491583979 #
point $-1 -72.897732474745936 -15.216439107668855 5.7294766747821626 #
straight-curve $-1 -72.897732474745936 0 13.58691491583979 0 -1 0 I I #
vertex $-1 $340 $482 #
point $-1 -65.31398514158856 -6.1538915061996562 9.2146877099090005 #
coedge $-1 $355 $354 $347 $439 forward $344 $-1 #
edge $-1 $440 48.253327447300364 $443 56.110765688357993 $438 $483 forward 7 unknown #
vertex $-1 $359 $484 #
straight-curve $-1 -79.29707885900379 32.180183584195291 13.586914915839792 -1 0 0 I I #
edge $-1 $443 -20.621365592832245 $356 -2.4962703898938479 $355 $485 forward 7 unknown #
vertex $-1 $442 $486 #
straight-curve $-1 -72.897732474745936 32.180183584195291 5.7294766747821626 0.80901698891910034 0 0.5877852598018023 I I #
point $-1 -62.082896749634848 32.180183584195291 13.58691491583979 #
point $-1 -72.897732474745936 14.055088381256894 5.7294766747821626 #
straight-curve $-1 -72.897732474745936 0 13.58691491583979 0 -1 0 I I #
vertex $-1 $362 $487 #
point $-1 -65.31398514158856 23.117635982726092 9.2146877099090005 #
coedge $-1 $376 $375 $368 $451 forward $366 $-1 #
edge $-1 $458 88.032906733388899 $453 99.28156965039048 $450 $488 forward 7 unknown #
edge $-1 $373 65.868788001851982 $458 72.897732474745936 $372 $489 forward 7 unknown #
vertex $-1 $451 $490 #
straight-curve $-1 -4.3620911908413831 -28.191380688019315 125.97981963287006 -0.52991925155115449 0 0.84804810408105047 I I #
edge $-1 $453 -17.912374613749407 $377 -2.6456375347904082 $376 $491 forward 7 unknown #
point $-1 65.868788001851982 -28.191380688019315 13.586914915839799 #
point $-1 72.897732474745936 -12.924643609060317 2.3382519988382029 #
vertex $-1 $380 $492 #
straight-curve $-1 72.897732474745936 0 13.58691491583979 0 1 0 I I #
vertex $-1 $383 $493 #
point $-1 67.336064991136354 -23.829455808316748 4.3249971478946367 #
vertex $-1 $387 $494 #
point $-1 67.336064991136354 -17.286568488762889 4.3249971478946367 #
straight-curve $-1 -72.897732474745936 45.155125164545758 0 0 0 -1 I I #
point $-1 -72.897732474745936 -45.155125164545758 -13.58691491583979 #
straight-curve $-1 -72.897732474745936 0 -13.58691491583979 0 1 0 I I #
point $-1 -72.897732474745936 45.155125164545758 -13.58691491583979 #
coedge $-1 $422 $410 $419 $474 forward $304 $-1 #
vertex $-1 $411 $495 #
straight-curve $-1 -72.897732474745936 0 13.58691491583979 0 -1 0 I I #
point $-1 -72.897732474745936 -28.191380688019315 13.58691491583979 #
straight-curve $-1 0 -28.191380688019315 13.58691491583979 -1 0 0 I I #
point $-1 72.897732474745936 -28.191380688019315 13.58691491583979 #
edge $-1 $469 -72.897732474745936 $424 72.897732474745936 $419 $496 forward 7 unknown #
straight-curve $-1 -72.897732474745936 -45.155125164545758 0 0 0 -1 I I #
straight-curve $-1 72.897732474745936 0 13.58691491583979 0 1 0 I I #
point $-1 72.897732474745936 -45.155125164545758 13.58691491583979 #
straight-curve $-1 -72.897732474745936 2.9086560952695422 61.840242363140156 0 0 -1 I I #
point $-1 -72.897732474745936 2.9086560952695422 13.58691491583979 #
straight-curve $-1 -72.897732474745936 -3.0769457530998281 5.7294766747821591 0 -1 0 I I #
point $-1 -72.897732474745936 2.9086560952695422 5.7294766747821626 #
point $-1 -65.645832735264506 -6.1538915061996562 7.1194843368276466 #
straight-curve $-1 -72.897732474745936 32.180183584195291 61.840242363140156 0 0 -1 I I #
point $-1 -72.897732474745936 32.180183584195291 13.58691491583979 #
straight-curve $-1 -72.897732474745936 11.558817991363046 5.7294766747821591 0 -1 0 I I #
point $-1 -72.897732474745936 32.180183584195291 5.7294766747821626 #
point $-1 -65.645832735264506 23.117635982726092 7.1194843368276466 #
straight-curve $-1 72.897732474745936 -28.191380688019315 101.61982164922868 0 0 -1 I I #
straight-curve $-1 0 -28.191380688019315 13.58691491583979 1 0 0 I I #
point $-1 72.897732474745936 -28.191380688019315 2.3382519988382029 #
straight-curve $-1 72.897732474745936 -10.279006074269908 2.3382519988382313 0 1 0 I I #
point $-1 72.897732474745936 -28.191380688019315 13.58691491583979 #
point $-1 64.580130279871952 -23.829455808316748 4.9612548529544291 #
point $-1 64.580130279871952 -17.286568488762889 4.9612548529544291 #
point $-1 -72.897732474745936 -45.155125164545758 13.58691491583979 #
straight-curve $-1 0 -45.155125164545758 13.58691491583979 1 0 0 I I #
End-of-ACIS-data 