500 0 5 0           
7 Unknown 11 ACIS 5.0 NT 24 Fri Mar 26 01:01:47 1999 
-1 9.9999999999999995e-007 1e-010 
body $-1 $5 $-1 $6 #
body $-1 $7 $-1 $8 #
body $-1 $9 $-1 $10 #
body $-1 $11 $-1 $12 #
body $-1 $13 $-1 $14 #
lump $-1 $-1 $15 $0 #
transform $-1 1 0 0 0 1 0 0 0 1 62.100283822138124 33.751761058029658 8.2994495795422942 1 rotate no_reflect no_shear #
lump $-1 $-1 $16 $1 #
transform $-1 1 0 0 0 1 0 0 0 1 62.100283822138124 33.751761058029658 8.2994495795422942 1 rotate no_reflect no_shear #
lump $-1 $-1 $17 $2 #
transform $-1 1 0 0 0 1 0 0 0 1 62.100283822138124 33.751761058029658 8.2994495795422942 1 rotate no_reflect no_shear #
lump $-1 $-1 $18 $3 #
transform $-1 1 0 0 0 1 0 0 0 1 62.100283822138124 33.751761058029658 8.2994495795422942 1 rotate no_reflect no_shear #
lump $-1 $-1 $19 $4 #
transform $-1 1 0 0 0 1 0 0 0 1 62.100283822138124 33.751761058029658 8.2994495795422942 1 rotate no_reflect no_shear #
shell $-1 $-1 $-1 $20 $-1 $5 #
shell $-1 $-1 $-1 $21 $-1 $7 #
shell $-1 $-1 $-1 $22 $-1 $9 #
shell $-1 $-1 $-1 $23 $-1 $11 #
shell $-1 $-1 $-1 $24 $-1 $13 #
face $-1 $25 $26 $15 $-1 $27 forward single #
face $-1 $28 $29 $16 $-1 $30 reversed single #
face $-1 $31 $32 $17 $-1 $33 forward single #
face $-1 $34 $35 $18 $-1 $36 reversed single #
face $-1 $37 $38 $19 $-1 $39 reversed single #
face $-1 $40 $41 $15 $-1 $42 reversed single #
loop $-1 $-1 $43 $20 #
plane-surface $-1 0 0 8.2994495795422942 0 0 1 1 0 0 forward_v I I I I #
face $-1 $44 $45 $16 $-1 $46 reversed single #
loop $-1 $-1 $47 $21 #
plane-surface $-1 -67.367955893509674 0 4.3944251968513131 0 0 1 1 0 0 forward_v I I I I #
face $-1 $48 $49 $17 $-1 $50 forward single #
loop $-1 $-1 $51 $22 #
plane-surface $-1 53.801130284547156 -33.751761058029643 2.0593246710504758 0 -0.50000000669873634 0.8660253999169214 1 0 0 forward_v I I I I #
face $-1 $52 $53 $18 $-1 $54 reversed single #
loop $-1 $55 $56 $23 #
cone-surface $-1 50.244350197008174 -28.025714700247413 4.621771112617572 0 0.50000000669873634 -0.8660253999169214 1 0 0 1 I I 0 1 1 forward I I I I #
face $-1 $57 $58 $19 $-1 $59 reversed single #
loop $-1 $60 $61 $24 #
cone-surface $-1 57.357910372086138 -28.025714700247413 4.621771112617572 0 0.50000000669873634 -0.8660253999169214 1 0 0 1 I I 0 1 1 forward I I I I #
face $-1 $62 $63 $15 $-1 $64 reversed single #
loop $-1 $-1 $65 $25 #
plane-surface $-1 0 0 -8.2994495795422942 0 0 1 1 0 0 forward_v I I I I #
coedge $-1 $66 $67 $68 $69 forward $26 $-1 #
face $-1 $70 $71 $16 $-1 $72 forward single #
loop $-1 $-1 $73 $28 #
plane-surface $-1 -72.635627964881223 0 6.3469373881968032 1 0 0 0 0 -1 forward_v I I I I #
coedge $-1 $74 $75 $76 $77 reversed $29 $-1 #
face $-1 $78 $79 $17 $-1 $80 forward single #
loop $-1 $-1 $81 $31 #
plane-surface $-1 45.501976746956196 -95.85204571215462 109.62017093509346 1 0 0 0 0.50000000669873634 -0.8660253999169214 forward_v I I I I #
coedge $-1 $82 $83 $84 $85 reversed $32 $-1 #
face $-1 $86 $87 $18 $-1 $88 forward single #
loop $-1 $89 $90 $34 #
cone-surface $-1 50.244350197008174 -27.453774936122571 3.6311423999802823 0 0.50000000669873634 -0.8660253999169214 0.5 0 0 1 I I -0.70710678118654813 0.70710678118654691 0.5 forward I I I I #
loop $-1 $-1 $91 $23 #
coedge $-1 $56 $56 $92 $93 reversed $35 $-1 #
face $-1 $94 $95 $19 $-1 $96 reversed single #
loop $-1 $97 $98 $37 #
cone-surface $-1 57.357910372086138 -27.453774936122571 3.6311423999802823 0 0.50000000669873634 -0.8660253999169214 0.5 0 0 1 I I -0.70710678118654813 0.70710678118654691 0.5 forward I I I I #
loop $-1 $-1 $99 $24 #
coedge $-1 $61 $61 $100 $101 reversed $38 $-1 #
face $-1 $102 $103 $15 $-1 $104 reversed single #
loop $-1 $-1 $105 $40 #
plane-surface $-1 0 -33.751761058029658 0 0 1 0 0 0 1 forward_v I I I I #
coedge $-1 $106 $107 $108 $109 forward $41 $-1 #
coedge $-1 $110 $43 $111 $112 forward $26 $-1 #
coedge $-1 $43 $110 $113 $114 forward $26 $-1 #
coedge $-1 $115 $116 $43 $69 reversed $117 $-1 #
edge $-1 $118 -33.751761058029658 $119 33.751761058029658 $68 $120 forward 7 unknown #
face $-1 $121 $122 $16 $-1 $123 reversed single #
loop $-1 $-1 $124 $44 #
plane-surface $-1 0 0 8.2994495795422942 0 0 1 1 0 0 forward_v I I I I #
coedge $-1 $125 $126 $127 $128 forward $45 $-1 #
coedge $-1 $129 $47 $130 $131 forward $29 $-1 #
coedge $-1 $47 $129 $132 $133 forward $29 $-1 #
coedge $-1 $134 $135 $47 $77 forward $136 $-1 #
edge $-1 $137 -33.751761058029658 $138 33.751761058029658 $76 $139 forward 7 unknown #
face $-1 $140 $141 $17 $-1 $142 reversed single #
loop $-1 $-1 $143 $48 #
plane-surface $-1 0 0 8.2994495795422942 0 0 1 1 0 0 forward_v I I I I #
coedge $-1 $144 $145 $143 $146 reversed $49 $-1 #
coedge $-1 $147 $51 $145 $148 reversed $32 $-1 #
coedge $-1 $51 $147 $149 $150 reversed $32 $-1 #
coedge $-1 $151 $143 $51 $85 forward $79 $-1 #
edge $-1 $152 18.601411604682617 $153 35.199718679864539 $84 $154 forward 7 unknown #
face $-1 $155 $156 $18 $-1 $157 forward single #
loop $-1 $158 $92 $52 #
plane-surface $-1 53.801130284547156 -33.751761058029643 2.0593246710504758 0 -0.50000000669873634 0.8660253999169214 1 0 0 forward_v I I I I #
loop $-1 $-1 $159 $34 #
coedge $-1 $90 $90 $91 $160 forward $53 $-1 #
coedge $-1 $91 $91 $90 $160 reversed $55 $-1 #
coedge $-1 $92 $92 $56 $93 forward $87 $-1 #
edge $-1 $161 -3.2361614150966661e-015 $161 6.2831853071795969 $92 $162 forward 7 unknown #
face $-1 $163 $164 $19 $-1 $165 reversed single #
loop $-1 $166 $167 $57 #
cone-surface $-1 50.244350197008174 -28.025714700247413 4.621771112617572 0 0.50000000669873634 -0.8660253999169214 1 0 0 1 I I 0 1 1 forward I I I I #
loop $-1 $-1 $168 $37 #
coedge $-1 $98 $98 $99 $169 forward $58 $-1 #
coedge $-1 $99 $99 $98 $169 reversed $60 $-1 #
coedge $-1 $100 $100 $61 $101 forward $170 $-1 #
edge $-1 $171 -3.2361614150966661e-015 $171 6.2831853071795969 $100 $172 forward 7 unknown #
face $-1 $173 $174 $15 $-1 $175 reversed single #
loop $-1 $-1 $176 $62 #
plane-surface $-1 -62.100283822138124 0 0 1 0 0 0 0 -1 forward_v I I I I #
coedge $-1 $177 $113 $178 $179 forward $63 $-1 #
coedge $-1 $180 $65 $177 $181 forward $41 $-1 #
coedge $-1 $65 $180 $182 $183 forward $41 $-1 #
coedge $-1 $116 $115 $65 $109 reversed $117 $-1 #
edge $-1 $184 -33.751761058029658 $185 33.751761058029658 $108 $186 forward 7 unknown #
coedge $-1 $67 $66 $187 $188 forward $26 $-1 #
coedge $-1 $189 $190 $66 $112 reversed $174 $-1 #
edge $-1 $119 -62.100283822138124 $191 62.100283822138124 $111 $192 forward 7 unknown #
coedge $-1 $105 $193 $67 $114 reversed $63 $-1 #
edge $-1 $194 -62.100283822138124 $118 62.100283822138124 $113 $195 forward 7 unknown #
coedge $-1 $108 $68 $193 $196 forward $117 $-1 #
coedge $-1 $68 $108 $189 $197 reversed $117 $-1 #
loop $-1 $-1 $115 $173 #
vertex $-1 $69 $198 #
vertex $-1 $69 $199 #
straight-curve $-1 62.100283822138124 0 8.2994495795422942 0 1 0 I I #
face $-1 $200 $201 $16 $-1 $202 reversed single #
loop $-1 $-1 $203 $70 #
plane-surface $-1 0 0 -8.2994495795422942 0 0 1 1 0 0 forward_v I I I I #
coedge $-1 $204 $205 $206 $207 forward $71 $-1 #
coedge $-1 $208 $73 $129 $209 reversed $45 $-1 #
coedge $-1 $73 $208 $210 $211 reversed $45 $-1 #
coedge $-1 $212 $132 $73 $128 reversed $213 $-1 #
edge $-1 $214 -1.952512191345491 $215 1.9525121913454901 $127 $216 forward 7 unknown #
coedge $-1 $75 $74 $125 $209 forward $29 $-1 #
coedge $-1 $217 $218 $74 $131 reversed $201 $-1 #
edge $-1 $137 -5.2676720713715568 $219 5.2676720713715497 $130 $220 forward 7 unknown #
coedge $-1 $127 $221 $75 $133 reversed $213 $-1 #
edge $-1 $215 -5.2676720713715497 $138 5.2676720713715568 $132 $222 forward 7 unknown #
coedge $-1 $223 $76 $221 $224 forward $136 $-1 #
coedge $-1 $76 $223 $217 $225 reversed $136 $-1 #
loop $-1 $-1 $76 $200 #
vertex $-1 $225 $226 #
vertex $-1 $224 $227 #
straight-curve $-1 -62.100283822138124 0 4.3944251968513131 0 1 0 I I #
face $-1 $228 $229 $17 $-1 $230 reversed single #
loop $-1 $-1 $149 $78 #
plane-surface $-1 62.100283822138124 0 0 -1 0 0 0 0 1 forward_v I I I I #
coedge $-1 $84 $231 $81 $146 forward $79 $-1 #
coedge $-1 $145 $81 $232 $233 reversed $49 $-1 #
coedge $-1 $81 $144 $82 $148 forward $49 $-1 #
edge $-1 $234 14.174261798047652 $152 24.982474992061263 $143 $235 forward 7 unknown #
coedge $-1 $83 $82 $236 $237 reversed $32 $-1 #
edge $-1 $238 -1.6303764080091705e-014 $152 12.480249649779832 $145 $239 forward 7 unknown #
coedge $-1 $240 $241 $83 $150 forward $141 $-1 #
edge $-1 $153 1.6198603596503607 $242 14.10011000943021 $149 $243 forward 7 unknown #
coedge $-1 $244 $84 $241 $245 forward $79 $-1 #
vertex $-1 $85 $246 #
vertex $-1 $245 $247 #
straight-curve $-1 26.900565142273578 -22.943547864016047 8.2994495795422942 1 0 0 I I #
face $-1 $248 $249 $18 $-1 $250 forward single #
loop $-1 $-1 $251 $86 #
plane-surface $-1 45.501976746956196 -95.85204571215462 109.62017093509346 1 0 0 0 0.50000000669873634 -0.8660253999169214 forward_v I I I I #
loop $-1 $-1 $252 $52 #
coedge $-1 $159 $159 $-1 $253 forward $89 $-1 #
edge $-1 $254 0 $254 6.2831853071796004 $90 $255 forward 7 unknown #
vertex $-1 $93 $256 #
ellipse-curve $-1 50.244350197008174 -28.34765446102287 5.1793871252963708 0 0.50000000669873634 -0.8660253999169214 1 0 0 1 I I #
face $-1 $257 $170 $19 $-1 $258 forward single #
loop $-1 $259 $260 $94 #
cone-surface $-1 50.244350197008174 -27.453774936122571 3.6311423999802823 0 0.50000000669873634 -0.8660253999169214 0.5 0 0 1 I I -0.70710678118654813 0.70710678118654691 0.5 forward I I I I #
loop $-1 $-1 $261 $57 #
coedge $-1 $167 $167 $262 $263 reversed $95 $-1 #
coedge $-1 $168 $168 $-1 $264 forward $97 $-1 #
edge $-1 $265 0 $265 6.2831853071796004 $98 $266 forward 7 unknown #
loop $-1 $267 $100 $163 #
vertex $-1 $101 $268 #
ellipse-curve $-1 57.357910372086138 -28.34765446102287 5.1793871252963708 0 0.50000000669873634 -0.8660253999169214 1 0 0 1 I I #
face $-1 $-1 $117 $15 $-1 $269 reversed single #
loop $-1 $-1 $189 $102 #
plane-surface $-1 0 33.751761058029658 0 0 -1 0 0 0 -1 forward_v I I I I #
coedge $-1 $270 $187 $190 $271 forward $103 $-1 #
coedge $-1 $193 $105 $106 $181 reversed $63 $-1 #
coedge $-1 $187 $270 $105 $179 reversed $103 $-1 #
edge $-1 $194 -8.2994495795422942 $272 8.2994495795422942 $178 $273 forward 7 unknown #
coedge $-1 $107 $106 $270 $274 forward $41 $-1 #
edge $-1 $185 -62.100283822138124 $272 62.100283822138124 $177 $275 forward 7 unknown #
coedge $-1 $190 $189 $107 $183 reversed $174 $-1 #
edge $-1 $276 -62.100283822138124 $184 62.100283822138124 $182 $277 forward 7 unknown #
vertex $-1 $109 $278 #
vertex $-1 $196 $279 #
straight-curve $-1 62.100283822138124 0 -8.2994495795422942 0 -1 0 I I #
coedge $-1 $176 $178 $110 $188 reversed $103 $-1 #
edge $-1 $191 -33.751761058029658 $194 33.751761058029658 $187 $280 forward 7 unknown #
coedge $-1 $182 $111 $116 $197 forward $174 $-1 #
coedge $-1 $111 $182 $176 $271 reversed $174 $-1 #
vertex $-1 $112 $281 #
straight-curve $-1 0 33.751761058029658 8.2994495795422942 -1 0 0 I I #
coedge $-1 $113 $177 $115 $196 reversed $63 $-1 #
vertex $-1 $188 $282 #
straight-curve $-1 0 -33.751761058029658 8.2994495795422942 1 0 0 I I #
edge $-1 $118 -8.2994495795422942 $185 8.2994495795422942 $115 $283 forward 7 unknown #
edge $-1 $119 -8.2994495795422942 $184 8.2994495795422942 $116 $284 forward 7 unknown #
point $-1 62.100283822138124 -33.751761058029658 8.2994495795422942 #
point $-1 62.100283822138124 33.751761058029658 8.2994495795422942 #
face $-1 $285 $136 $16 $-1 $286 reversed single #
loop $-1 $-1 $217 $121 #
plane-surface $-1 0 -33.751761058029658 0 0 1 0 0 0 1 forward_v I I I I #
coedge $-1 $287 $288 $289 $290 forward $122 $-1 #
coedge $-1 $210 $124 $212 $291 forward $71 $-1 #
coedge $-1 $124 $210 $292 $293 forward $71 $-1 #
coedge $-1 $294 $295 $124 $207 reversed $296 $-1 #
edge $-1 $297 -33.751761058029658 $298 33.751761058029658 $206 $299 forward 7 unknown #
coedge $-1 $126 $125 $218 $300 reversed $45 $-1 #
edge $-1 $219 -33.751761058029658 $215 33.751761058029658 $125 $301 forward 7 unknown #
coedge $-1 $205 $204 $126 $211 forward $71 $-1 #
edge $-1 $214 -33.751761058029658 $302 33.751761058029658 $126 $303 forward 7 unknown #
coedge $-1 $304 $127 $204 $291 reversed $213 $-1 #
loop $-1 $-1 $304 $285 #
vertex $-1 $291 $305 #
vertex $-1 $133 $306 #
straight-curve $-1 -72.635627964881223 33.751761058029658 6.3469373881968032 0 0 -1 I I #
coedge $-1 $307 $130 $135 $225 forward $201 $-1 #
coedge $-1 $130 $292 $208 $300 forward $201 $-1 #
vertex $-1 $209 $308 #
straight-curve $-1 -67.367955893509674 -33.751761058029658 4.3944251968513131 -1 0 0 I I #
coedge $-1 $132 $309 $134 $224 reversed $213 $-1 #
straight-curve $-1 -67.367955893509674 33.751761058029658 4.3944251968513131 1 0 0 I I #
coedge $-1 $135 $134 $310 $311 reversed $136 $-1 #
edge $-1 $138 -4.3944251968513131 $312 8.2994495795422942 $221 $313 forward 7 unknown #
edge $-1 $137 -4.3944251968513131 $314 8.2994495795422942 $135 $315 forward 7 unknown #
point $-1 -62.100283822138117 -33.751761058029658 4.3944251968513131 #
point $-1 -62.100283822138117 33.751761058029658 4.3944251968513131 #
face $-1 $316 $317 $17 $-1 $318 reversed single #
loop $-1 $-1 $319 $140 #
plane-surface $-1 -67.367955893509674 0 4.3944251968513131 0 0 1 1 0 0 forward_v I I I I #
coedge $-1 $143 $320 $321 $322 forward $79 $-1 #
coedge $-1 $321 $236 $144 $233 forward $323 $-1 #
edge $-1 $238 -52.750760796496259 $234 -46.51063588800443 $232 $324 forward 7 unknown #
vertex $-1 $233 $325 #
straight-curve $-1 45.501976746956196 -47.92602285607731 8.2994495795422907 0 1 0 I I #
coedge $-1 $232 $326 $147 $237 forward $323 $-1 #
edge $-1 $242 -35.199718679864539 $238 -18.601411604682617 $236 $327 forward 7 unknown #
vertex $-1 $237 $328 #
straight-curve $-1 45.501976746956196 -33.751761058029643 2.0593246710504758 0 0.8660253999169214 0.50000000669873634 I I #
coedge $-1 $329 $149 $326 $330 forward $141 $-1 #
coedge $-1 $149 $331 $151 $245 reversed $141 $-1 #
vertex $-1 $330 $332 #
straight-curve $-1 62.100283822138124 -21.540707648240275 9.1093797702184922 0 -0.8660253999169214 -0.50000000669873634 I I #
coedge $-1 $320 $151 $333 $334 forward $79 $-1 #
edge $-1 $153 -22.943547864016047 $335 33.751761058029658 $241 $336 forward 7 unknown #
point $-1 45.501976746956196 -22.943547864016047 8.2994495795422942 #
point $-1 62.100283822138117 -22.943547864016047 8.2994495795422942 #
face $-1 $337 $338 $18 $-1 $339 reversed single #
loop $-1 $-1 $340 $155 #
plane-surface $-1 0 0 8.2994495795422942 0 0 1 1 0 0 forward_v I I I I #
coedge $-1 $341 $342 $340 $343 reversed $156 $-1 #
coedge $-1 $344 $345 $346 $347 reversed $158 $-1 #
edge $-1 $348 1 $348 0 $159 $-1 forward 7 unknown #
vertex $-1 $160 $349 #
ellipse-curve $-1 50.244350197008174 -27.703774939471938 4.0641550999387421 0 -0.50000000669873634 0.8660253999169214 1 0 0 1 I I #
point $-1 51.244350197008174 -28.347654461022884 5.1793871252964019 #
face $-1 $350 $351 $19 $-1 $352 forward single #
plane-surface $-1 53.801130284547156 -33.751761058029643 2.0593246710504758 0 -0.50000000669873634 0.8660253999169214 1 0 0 forward_v I I I I #
loop $-1 $-1 $353 $94 #
coedge $-1 $260 $260 $261 $354 forward $164 $-1 #
coedge $-1 $261 $261 $260 $354 reversed $166 $-1 #
coedge $-1 $262 $262 $167 $263 forward $267 $-1 #
edge $-1 $355 -3.2361614150966661e-015 $355 6.2831853071795969 $262 $356 forward 7 unknown #
edge $-1 $357 1 $357 0 $168 $-1 forward 7 unknown #
vertex $-1 $169 $358 #
ellipse-curve $-1 57.357910372086138 -27.703774939471938 4.0641550999387421 0 -0.50000000669873634 0.8660253999169214 1 0 0 1 I I #
loop $-1 $359 $262 $163 #
point $-1 58.357910372086138 -28.347654461022884 5.1793871252964019 #
plane-surface $-1 62.100283822138124 0 0 -1 0 0 0 0 1 forward_v I I I I #
coedge $-1 $178 $176 $180 $274 reversed $103 $-1 #
edge $-1 $191 -8.2994495795422942 $276 8.2994495795422942 $190 $360 forward 7 unknown #
vertex $-1 $274 $361 #
straight-curve $-1 -62.100283822138124 -33.751761058029658 0 0 0 -1 I I #
edge $-1 $272 -33.751761058029658 $276 33.751761058029658 $270 $362 forward 7 unknown #
straight-curve $-1 0 -33.751761058029658 -8.2994495795422942 -1 0 0 I I #
vertex $-1 $183 $363 #
straight-curve $-1 0 33.751761058029658 -8.2994495795422942 1 0 0 I I #
point $-1 62.100283822138124 33.751761058029658 -8.2994495795422942 #
point $-1 62.100283822138124 -33.751761058029658 -8.2994495795422942 #
straight-curve $-1 -62.100283822138124 0 8.2994495795422942 0 -1 0 I I #
point $-1 -62.100283822138124 33.751761058029658 8.2994495795422942 #
point $-1 -62.100283822138124 -33.751761058029658 8.2994495795422942 #
straight-curve $-1 62.100283822138124 -33.751761058029658 0 0 0 -1 I I #
straight-curve $-1 62.100283822138124 33.751761058029658 0 0 0 -1 I I #
face $-1 $364 $213 $16 $-1 $365 reversed single #
plane-surface $-1 -62.100283822138124 0 0 1 0 0 0 0 -1 forward_v I I I I #
coedge $-1 $310 $203 $307 $366 forward $122 $-1 #
coedge $-1 $203 $310 $309 $367 forward $122 $-1 #
coedge $-1 $295 $294 $203 $290 reversed $296 $-1 #
edge $-1 $368 -33.751761058029658 $369 33.751761058029658 $289 $370 forward 7 unknown #
edge $-1 $298 -62.100283822138124 $214 72.635627964881223 $212 $371 forward 7 unknown #
coedge $-1 $218 $372 $205 $293 reversed $201 $-1 #
edge $-1 $302 -72.635627964881223 $297 62.100283822138124 $292 $373 forward 7 unknown #
coedge $-1 $289 $206 $372 $374 forward $296 $-1 #
coedge $-1 $206 $289 $304 $375 reversed $296 $-1 #
loop $-1 $-1 $294 $364 #
vertex $-1 $207 $376 #
vertex $-1 $207 $377 #
straight-curve $-1 62.100283822138124 0 8.2994495795422942 0 1 0 I I #
edge $-1 $302 -1.952512191345491 $219 1.9525121913454901 $208 $378 forward 7 unknown #
straight-curve $-1 -72.635627964881223 0 4.3944251968513131 0 1 0 I I #
vertex $-1 $211 $379 #
straight-curve $-1 -72.635627964881223 0 8.2994495795422942 0 -1 0 I I #
coedge $-1 $309 $212 $295 $375 forward $213 $-1 #
point $-1 -72.635627964881223 33.751761058029658 8.2994495795422942 #
point $-1 -72.635627964881223 33.751761058029658 4.3944251968513131 #
coedge $-1 $372 $217 $287 $366 reversed $201 $-1 #
point $-1 -72.635627964881223 -33.751761058029658 4.3944251968513131 #
coedge $-1 $221 $304 $288 $367 reversed $213 $-1 #
coedge $-1 $288 $287 $223 $311 forward $122 $-1 #
edge $-1 $314 -33.751761058029658 $312 33.751761058029658 $223 $380 forward 7 unknown #
vertex $-1 $367 $381 #
straight-curve $-1 -62.100283822138124 33.751761058029658 0 0 0 -1 I I #
vertex $-1 $311 $382 #
straight-curve $-1 -62.100283822138124 -33.751761058029658 0 0 0 -1 I I #
face $-1 $383 $384 $17 $-1 $385 reversed single #
loop $-1 $-1 $386 $228 #
plane-surface $-1 -72.635627964881223 0 6.3469373881968032 1 0 0 0 0 -1 forward_v I I I I #
coedge $-1 $387 $388 $389 $390 reversed $229 $-1 #
coedge $-1 $231 $244 $391 $392 forward $79 $-1 #
coedge $-1 $393 $232 $231 $322 reversed $323 $-1 #
edge $-1 $394 -72.635627964881223 $234 45.501976746956196 $321 $395 forward 7 unknown #
loop $-1 $-1 $232 $383 #
straight-curve $-1 45.501976746956196 -33.751761058029658 54.810085467546728 0 0 1 I I #
point $-1 45.501976746956196 -33.751761058029658 8.2994495795422942 #
coedge $-1 $236 $396 $240 $330 reversed $323 $-1 #
straight-curve $-1 26.900565142273578 -33.751761058029658 2.059324671050466 -1 0 0 I I #
point $-1 45.501976746956196 -33.751761058029658 2.0593246710504678 #
coedge $-1 $331 $240 $397 $398 reversed $141 $-1 #
edge $-1 $242 -2.0593246710504678 $399 8.2994495795422942 $240 $400 forward 7 unknown #
coedge $-1 $241 $329 $401 $402 reversed $141 $-1 #
point $-1 62.100283822138117 -33.751761058029658 2.0593246710504678 #
coedge $-1 $401 $403 $244 $334 reversed $404 $-1 #
edge $-1 $335 -62.100283822138124 $405 72.635627964881223 $333 $406 forward 7 unknown #
vertex $-1 $245 $407 #
straight-curve $-1 62.100283822138124 0 8.2994495795422942 0 1 0 I I #
face $-1 $408 $409 $18 $-1 $410 reversed single #
loop $-1 $-1 $411 $248 #
plane-surface $-1 62.100283822138124 0 0 -1 0 0 0 0 1 forward_v I I I I #
coedge $-1 $346 $412 $251 $343 forward $249 $-1 #
coedge $-1 $342 $251 $413 $414 reversed $156 $-1 #
coedge $-1 $251 $341 $344 $415 forward $156 $-1 #
edge $-1 $416 14.174261798047652 $417 24.982474992061263 $340 $418 forward 7 unknown #
coedge $-1 $419 $252 $342 $415 reversed $158 $-1 #
coedge $-1 $252 $419 $411 $420 reversed $158 $-1 #
coedge $-1 $421 $340 $252 $347 forward $249 $-1 #
edge $-1 $417 18.601411604682617 $422 35.199718679864539 $346 $423 forward 7 unknown #
vertex $-1 $253 $424 #
point $-1 51.244350197008174 -27.703774939471938 4.0641550999387421 #
face $-1 $425 $426 $19 $-1 $427 forward single #
loop $-1 $-1 $428 $257 #
plane-surface $-1 45.501976746956196 -95.85204571215462 109.62017093509346 1 0 0 0 0.50000000669873634 -0.8660253999169214 forward_v I I I I #
coedge $-1 $353 $353 $-1 $429 forward $259 $-1 #
edge $-1 $430 0 $430 6.2831853071796004 $260 $431 forward 7 unknown #
vertex $-1 $263 $432 #
ellipse-curve $-1 50.244350197008174 -28.34765446102287 5.1793871252963708 0 0.50000000669873634 -0.8660253999169214 1 0 0 1 I I #
vertex $-1 $264 $433 #
point $-1 58.357910372086138 -27.703774939471938 4.0641550999387421 #
loop $-1 $-1 $434 $163 #
straight-curve $-1 -62.100283822138124 33.751761058029658 0 0 0 -1 I I #
point $-1 -62.100283822138124 -33.751761058029658 -8.2994495795422942 #
straight-curve $-1 -62.100283822138124 0 -8.2994495795422942 0 1 0 I I #
point $-1 -62.100283822138124 33.751761058029658 -8.2994495795422942 #
face $-1 $-1 $296 $16 $-1 $435 reversed single #
plane-surface $-1 0 33.751761058029658 0 0 -1 0 0 0 -1 forward_v I I I I #
edge $-1 $369 -62.100283822138124 $314 62.100283822138124 $307 $436 forward 7 unknown #
edge $-1 $312 -62.100283822138124 $368 62.100283822138124 $309 $437 forward 7 unknown #
vertex $-1 $290 $438 #
vertex $-1 $374 $439 #
straight-curve $-1 62.100283822138124 0 -8.2994495795422942 0 -1 0 I I #
straight-curve $-1 0 33.751761058029658 8.2994495795422942 -1 0 0 I I #
coedge $-1 $292 $307 $294 $374 reversed $201 $-1 #
straight-curve $-1 0 -33.751761058029658 8.2994495795422942 1 0 0 I I #
edge $-1 $297 -8.2994495795422942 $369 8.2994495795422942 $294 $440 forward 7 unknown #
edge $-1 $298 -8.2994495795422942 $368 8.2994495795422942 $295 $441 forward 7 unknown #
point $-1 62.100283822138124 -33.751761058029658 8.2994495795422942 #
point $-1 62.100283822138124 33.751761058029658 8.2994495795422942 #
straight-curve $-1 -72.635627964881223 -33.751761058029658 6.3469373881968032 0 0 -1 I I #
point $-1 -72.635627964881223 -33.751761058029658 8.2994495795422942 #
straight-curve $-1 -62.100283822138124 0 -8.2994495795422942 0 1 0 I I #
point $-1 -62.100283822138124 33.751761058029658 -8.2994495795422942 #
point $-1 -62.100283822138124 -33.751761058029658 -8.2994495795422942 #
face $-1 $442 $323 $17 $-1 $443 reversed single #
loop $-1 $-1 $397 $316 #
plane-surface $-1 0 0 -8.2994495795422942 0 0 1 1 0 0 forward_v I I I I #
coedge $-1 $444 $391 $403 $445 forward $317 $-1 #
coedge $-1 $446 $319 $447 $448 forward $229 $-1 #
coedge $-1 $319 $446 $449 $450 forward $229 $-1 #
coedge $-1 $451 $452 $319 $390 forward $453 $-1 #
edge $-1 $454 -33.751761058029658 $455 33.751761058029658 $389 $456 forward 7 unknown #
coedge $-1 $386 $457 $320 $392 reversed $317 $-1 #
edge $-1 $405 -33.751761058029658 $394 33.751761058029658 $391 $458 forward 7 unknown #
coedge $-1 $447 $321 $457 $459 forward $323 $-1 #
vertex $-1 $392 $460 #
straight-curve $-1 0 -33.751761058029658 8.2994495795422942 1 0 0 I I #
coedge $-1 $326 $461 $462 $463 reversed $323 $-1 #
coedge $-1 $462 $464 $329 $398 forward $384 $-1 #
edge $-1 $465 -33.751761058029658 $399 33.751761058029658 $329 $466 forward 7 unknown #
vertex $-1 $330 $467 #
straight-curve $-1 62.100283822138124 -33.751761058029658 0 0 0 -1 I I #
coedge $-1 $468 $333 $331 $402 forward $404 $-1 #
edge $-1 $335 -8.2994495795422942 $465 8.2994495795422942 $331 $469 forward 7 unknown #
coedge $-1 $333 $449 $386 $445 reversed $404 $-1 #
loop $-1 $-1 $401 $470 #
vertex $-1 $334 $471 #
straight-curve $-1 0 33.751761058029658 8.2994495795422942 -1 0 0 I I #
point $-1 62.100283822138124 33.751761058029658 8.2994495795422942 #
face $-1 $472 $473 $18 $-1 $474 reversed single #
loop $-1 $-1 $475 $337 #
plane-surface $-1 -67.367955893509674 0 4.3944251968513131 0 0 1 1 0 0 forward_v I I I I #
coedge $-1 $476 $477 $345 $420 forward $338 $-1 #
coedge $-1 $340 $478 $479 $480 forward $249 $-1 #
coedge $-1 $479 $481 $341 $414 forward $482 $-1 #
edge $-1 $483 -52.750760796496259 $416 -46.51063588800443 $413 $484 forward 7 unknown #
edge $-1 $483 -1.6303764080091705e-014 $417 12.480249649779832 $342 $485 forward 7 unknown #
vertex $-1 $414 $486 #
vertex $-1 $347 $487 #
straight-curve $-1 45.501976746956196 -47.92602285607731 8.2994495795422907 0 1 0 I I #
coedge $-1 $345 $344 $481 $488 reversed $158 $-1 #
edge $-1 $422 1.6198603596503607 $489 14.10011000943021 $411 $490 forward 7 unknown #
coedge $-1 $491 $346 $477 $492 forward $249 $-1 #
vertex $-1 $492 $493 #
straight-curve $-1 26.900565142273578 -22.943547864016047 8.2994495795422942 1 0 0 I I #
point $-1 50.244350197008174 -27.203774932773204 3.1981297000218225 #
face $-1 $494 $495 $19 $-1 $496 reversed single #
loop $-1 $-1 $497 $350 #
plane-surface $-1 0 0 8.2994495795422942 0 0 1 1 0 0 forward_v I I I I #
coedge $-1 $498 $499 $497 $500 reversed $351 $-1 #
edge $-1 $501 1 $501 0 $353 $-1 forward 7 unknown #
vertex $-1 $354 $502 #
ellipse-curve $-1 50.244350197008174 -27.703774939471938 4.0641550999387421 0 -0.50000000669873634 0.8660253999169214 1 0 0 1 I I #
point $-1 51.244350197008174 -28.347654461022884 5.1793871252964019 #
point $-1 57.357910372086138 -27.203774932773204 3.1981297000218225 #
coedge $-1 $503 $504 $505 $506 reversed $359 $-1 #
plane-surface $-1 62.100283822138124 0 0 -1 0 0 0 0 1 forward_v I I I I #
straight-curve $-1 0 -33.751761058029658 -8.2994495795422942 -1 0 0 I I #
straight-curve $-1 0 33.751761058029658 -8.2994495795422942 1 0 0 I I #
point $-1 62.100283822138124 33.751761058029658 -8.2994495795422942 #
point $-1 62.100283822138124 -33.751761058029658 -8.2994495795422942 #
straight-curve $-1 62.100283822138124 -33.751761058029658 0 0 0 -1 I I #
straight-curve $-1 62.100283822138124 33.751761058029658 0 0 0 -1 I I #
face $-1 $470 $453 $17 $-1 $507 reversed single #
plane-surface $-1 0 -33.751761058029658 0 0 1 0 0 0 1 forward_v I I I I #
coedge $-1 $457 $386 $446 $508 reversed $317 $-1 #
edge $-1 $405 -1.952512191345491 $509 1.9525121913454901 $403 $510 forward 7 unknown #
coedge $-1 $388 $387 $444 $508 forward $229 $-1 #
coedge $-1 $461 $393 $387 $448 reversed $323 $-1 #
edge $-1 $454 -5.2676720713715568 $511 5.2676720713715497 $447 $512 forward 7 unknown #
coedge $-1 $403 $513 $388 $450 reversed $404 $-1 #
edge $-1 $509 -5.2676720713715497 $455 5.2676720713715568 $449 $514 forward 7 unknown #
coedge $-1 $515 $389 $513 $516 forward $453 $-1 #
coedge $-1 $389 $515 $461 $517 reversed $453 $-1 #
loop $-1 $-1 $389 $442 #
vertex $-1 $517 $518 #
vertex $-1 $516 $519 #
straight-curve $-1 -62.100283822138124 0 4.3944251968513131 0 1 0 I I #
coedge $-1 $391 $444 $393 $459 reversed $317 $-1 #
straight-curve $-1 -72.635627964881223 0 8.2994495795422942 0 -1 0 I I #
edge $-1 $394 -1.952512191345491 $511 1.9525121913454901 $457 $520 forward 7 unknown #
point $-1 -72.635627964881223 -33.751761058029658 8.2994495795422942 #
coedge $-1 $396 $447 $452 $517 forward $323 $-1 #
coedge $-1 $521 $397 $396 $463 forward $384 $-1 #
edge $-1 $399 -62.100283822138124 $522 62.100283822138124 $396 $523 forward 7 unknown #
coedge $-1 $397 $521 $468 $524 forward $384 $-1 #
vertex $-1 $398 $525 #
straight-curve $-1 62.100283822138124 0 -8.2994495795422942 0 -1 0 I I #
point $-1 62.100283822138124 -33.751761058029658 -8.2994495795422942 #
coedge $-1 $513 $401 $464 $524 reversed $404 $-1 #
straight-curve $-1 62.100283822138124 33.751761058029658 0 0 0 -1 I I #
face $-1 $-1 $404 $17 $-1 $526 reversed single #
point $-1 -72.635627964881223 33.751761058029658 8.2994495795422942 #
face $-1 $527 $528 $18 $-1 $529 reversed single #
loop $-1 $-1 $530 $408 #
plane-surface $-1 -72.635627964881223 0 6.3469373881968032 1 0 0 0 0 -1 forward_v I I I I #
coedge $-1 $531 $532 $533 $534 reversed $409 $-1 #
coedge $-1 $535 $411 $536 $537 forward $338 $-1 #
coedge $-1 $411 $538 $421 $492 reversed $338 $-1 #
coedge $-1 $412 $491 $539 $540 forward $249 $-1 #
coedge $-1 $541 $413 $412 $480 reversed $482 $-1 #
edge $-1 $542 -72.635627964881223 $416 45.501976746956196 $479 $543 forward 7 unknown #
coedge $-1 $413 $536 $419 $488 forward $482 $-1 #
loop $-1 $-1 $413 $527 #
vertex $-1 $488 $544 #
straight-curve $-1 45.501976746956196 -33.751761058029658 54.810085467546728 0 0 1 I I #
straight-curve $-1 45.501976746956196 -33.751761058029643 2.0593246710504758 0 0.8660253999169214 0.50000000669873634 I I #
point $-1 45.501976746956196 -33.751761058029658 8.2994495795422942 #
point $-1 45.501976746956196 -22.943547864016047 8.2994495795422942 #
edge $-1 $489 -35.199718679864539 $483 -18.601411604682617 $481 $545 forward 7 unknown #
vertex $-1 $537 $546 #
straight-curve $-1 62.100283822138124 -21.540707648240275 9.1093797702184922 0 -0.8660253999169214 -0.50000000669873634 I I #
coedge $-1 $478 $421 $547 $548 forward $249 $-1 #
edge $-1 $422 -22.943547864016047 $549 33.751761058029658 $477 $550 forward 7 unknown #
point $-1 62.100283822138117 -22.943547864016047 8.2994495795422942 #
face $-1 $551 $552 $19 $-1 $553 reversed single #
loop $-1 $-1 $554 $425 #
plane-surface $-1 62.100283822138124 0 0 -1 0 0 0 0 1 forward_v I I I I #
coedge $-1 $505 $555 $428 $500 forward $426 $-1 #
coedge $-1 $499 $428 $556 $557 reversed $351 $-1 #
coedge $-1 $428 $498 $503 $558 forward $351 $-1 #
edge $-1 $559 14.174261798047652 $560 24.982474992061263 $497 $561 forward 7 unknown #
vertex $-1 $429 $562 #
point $-1 51.244350197008174 -27.703774939471938 4.0641550999387421 #
coedge $-1 $563 $434 $499 $558 reversed $359 $-1 #
coedge $-1 $434 $563 $554 $564 reversed $359 $-1 #
coedge $-1 $565 $497 $434 $506 forward $426 $-1 #
edge $-1 $560 18.601411604682617 $566 35.199718679864539 $505 $567 forward 7 unknown #
plane-surface $-1 -62.100283822138124 0 0 1 0 0 0 0 -1 forward_v I I I I #
edge $-1 $511 -33.751761058029658 $509 33.751761058029658 $444 $568 forward 7 unknown #
vertex $-1 $450 $569 #
straight-curve $-1 -72.635627964881223 33.751761058029658 6.3469373881968032 0 0 -1 I I #
vertex $-1 $508 $570 #
straight-curve $-1 -67.367955893509674 -33.751761058029658 4.3944251968513131 -1 0 0 I I #
coedge $-1 $449 $468 $451 $516 reversed $404 $-1 #
straight-curve $-1 -67.367955893509674 33.751761058029658 4.3944251968513131 1 0 0 I I #
coedge $-1 $452 $451 $521 $571 reversed $453 $-1 #
edge $-1 $455 -4.3944251968513131 $572 8.2994495795422942 $513 $573 forward 7 unknown #
edge $-1 $454 -4.3944251968513131 $522 8.2994495795422942 $452 $574 forward 7 unknown #
point $-1 -62.100283822138117 -33.751761058029658 4.3944251968513131 #
point $-1 -62.100283822138117 33.751761058029658 4.3944251968513131 #
straight-curve $-1 -72.635627964881223 -33.751761058029658 6.3469373881968032 0 0 -1 I I #
coedge $-1 $464 $462 $515 $571 forward $384 $-1 #
vertex $-1 $571 $575 #
straight-curve $-1 0 -33.751761058029658 -8.2994495795422942 -1 0 0 I I #
edge $-1 $572 -62.100283822138124 $465 62.100283822138124 $468 $576 forward 7 unknown #
point $-1 62.100283822138124 33.751761058029658 -8.2994495795422942 #
plane-surface $-1 0 33.751761058029658 0 0 -1 0 0 0 -1 forward_v I I I I #
face $-1 $577 $482 $18 $-1 $578 reversed single #
loop $-1 $-1 $579 $472 #
plane-surface $-1 0 0 -8.2994495795422942 0 0 1 1 0 0 forward_v I I I I #
coedge $-1 $580 $539 $581 $582 forward $473 $-1 #
coedge $-1 $583 $475 $584 $585 forward $409 $-1 #
coedge $-1 $475 $583 $586 $587 forward $409 $-1 #
coedge $-1 $588 $589 $475 $534 forward $590 $-1 #
edge $-1 $591 -33.751761058029658 $592 33.751761058029658 $533 $593 forward 7 unknown #
coedge $-1 $538 $476 $579 $594 reversed $338 $-1 #
coedge $-1 $481 $595 $476 $537 reversed $482 $-1 #
edge $-1 $489 -2.0593246710504678 $596 8.2994495795422942 $476 $597 forward 7 unknown #
coedge $-1 $477 $535 $598 $599 reversed $338 $-1 #
coedge $-1 $530 $600 $478 $540 reversed $473 $-1 #
edge $-1 $601 -33.751761058029658 $542 33.751761058029658 $539 $602 forward 7 unknown #
coedge $-1 $584 $479 $600 $603 forward $482 $-1 #
vertex $-1 $540 $604 #
straight-curve $-1 0 -33.751761058029658 8.2994495795422942 1 0 0 I I #
point $-1 45.501976746956196 -33.751761058029658 2.0593246710504678 #
straight-curve $-1 26.900565142273578 -33.751761058029658 2.059324671050466 -1 0 0 I I #
point $-1 62.100283822138117 -33.751761058029658 2.0593246710504678 #
coedge $-1 $598 $581 $491 $548 reversed $605 $-1 #
edge $-1 $549 -62.100283822138124 $601 72.635627964881223 $547 $606 forward 7 unknown #
vertex $-1 $492 $607 #
straight-curve $-1 62.100283822138124 0 8.2994495795422942 0 1 0 I I #
face $-1 $608 $609 $19 $-1 $610 reversed single #
loop $-1 $-1 $611 $494 #
plane-surface $-1 -67.367955893509674 0 4.3944251968513131 0 0 1 1 0 0 forward_v I I I I #
coedge $-1 $612 $613 $504 $564 forward $495 $-1 #
coedge $-1 $497 $614 $615 $616 forward $426 $-1 #
coedge $-1 $615 $617 $498 $557 forward $618 $-1 #
edge $-1 $619 -52.750760796496259 $559 -46.51063588800443 $556 $620 forward 7 unknown #
edge $-1 $619 -1.6303764080091705e-014 $560 12.480249649779832 $499 $621 forward 7 unknown #
vertex $-1 $557 $622 #
vertex $-1 $506 $623 #
straight-curve $-1 45.501976746956196 -47.92602285607731 8.2994495795422907 0 1 0 I I #
point $-1 50.244350197008174 -27.203774932773204 3.1981297000218225 #
coedge $-1 $504 $503 $617 $624 reversed $359 $-1 #
edge $-1 $566 1.6198603596503607 $625 14.10011000943021 $554 $626 forward 7 unknown #
coedge $-1 $627 $505 $613 $628 forward $426 $-1 #
vertex $-1 $628 $629 #
straight-curve $-1 26.900565142273578 -22.943547864016047 8.2994495795422942 1 0 0 I I #
straight-curve $-1 -72.635627964881223 0 4.3944251968513131 0 1 0 I I #
point $-1 -72.635627964881223 33.751761058029658 4.3944251968513131 #
point $-1 -72.635627964881223 -33.751761058029658 4.3944251968513131 #
edge $-1 $522 -33.751761058029658 $572 33.751761058029658 $515 $630 forward 7 unknown #
vertex $-1 $524 $631 #
straight-curve $-1 -62.100283822138124 33.751761058029658 0 0 0 -1 I I #
straight-curve $-1 -62.100283822138124 -33.751761058029658 0 0 0 -1 I I #
point $-1 -62.100283822138124 -33.751761058029658 -8.2994495795422942 #
straight-curve $-1 0 33.751761058029658 -8.2994495795422942 1 0 0 I I #
face $-1 $632 $590 $18 $-1 $633 reversed single #
plane-surface $-1 0 -33.751761058029658 0 0 1 0 0 0 1 forward_v I I I I #
coedge $-1 $634 $635 $535 $594 forward $528 $-1 #
coedge $-1 $600 $530 $583 $636 reversed $473 $-1 #
coedge $-1 $547 $586 $530 $582 reversed $605 $-1 #
edge $-1 $601 -1.952512191345491 $637 1.9525121913454901 $581 $638 forward 7 unknown #
coedge $-1 $532 $531 $580 $636 forward $409 $-1 #
coedge $-1 $639 $541 $531 $585 reversed $482 $-1 #
edge $-1 $591 -5.2676720713715568 $640 5.2676720713715497 $584 $641 forward 7 unknown #
coedge $-1 $581 $642 $532 $587 reversed $605 $-1 #
edge $-1 $637 -5.2676720713715497 $592 5.2676720713715568 $586 $643 forward 7 unknown #
coedge $-1 $644 $533 $642 $645 forward $590 $-1 #
coedge $-1 $533 $644 $639 $646 reversed $590 $-1 #
loop $-1 $-1 $533 $577 #
vertex $-1 $646 $647 #
vertex $-1 $645 $648 #
straight-curve $-1 -62.100283822138124 0 4.3944251968513131 0 1 0 I I #
edge $-1 $649 -33.751761058029658 $596 33.751761058029658 $535 $650 forward 7 unknown #
coedge $-1 $536 $639 $634 $651 reversed $482 $-1 #
vertex $-1 $537 $652 #
straight-curve $-1 62.100283822138124 -33.751761058029658 0 0 0 -1 I I #
coedge $-1 $653 $547 $538 $599 forward $605 $-1 #
edge $-1 $549 -8.2994495795422942 $649 8.2994495795422942 $538 $654 forward 7 unknown #
coedge $-1 $539 $580 $541 $603 reversed $473 $-1 #
vertex $-1 $548 $655 #
straight-curve $-1 -72.635627964881223 0 8.2994495795422942 0 -1 0 I I #
edge $-1 $542 -1.952512191345491 $640 1.9525121913454901 $600 $656 forward 7 unknown #
point $-1 -72.635627964881223 -33.751761058029658 8.2994495795422942 #
loop $-1 $-1 $598 $632 #
straight-curve $-1 0 33.751761058029658 8.2994495795422942 -1 0 0 I I #
point $-1 62.100283822138124 33.751761058029658 8.2994495795422942 #
face $-1 $657 $658 $19 $-1 $659 reversed single #
loop $-1 $-1 $660 $551 #
plane-surface $-1 -72.635627964881223 0 6.3469373881968032 1 0 0 0 0 -1 forward_v I I I I #
coedge $-1 $661 $662 $663 $664 reversed $552 $-1 #
coedge $-1 $665 $554 $666 $667 forward $495 $-1 #
coedge $-1 $554 $668 $565 $628 reversed $495 $-1 #
coedge $-1 $555 $627 $669 $670 forward $426 $-1 #
coedge $-1 $671 $556 $555 $616 reversed $618 $-1 #
edge $-1 $672 -72.635627964881223 $559 45.501976746956196 $615 $673 forward 7 unknown #
coedge $-1 $556 $666 $563 $624 forward $618 $-1 #
loop $-1 $-1 $556 $657 #
vertex $-1 $624 $674 #
straight-curve $-1 45.501976746956196 -33.751761058029658 54.810085467546728 0 0 1 I I #
straight-curve $-1 45.501976746956196 -33.751761058029643 2.0593246710504758 0 0.8660253999169214 0.50000000669873634 I I #
point $-1 45.501976746956196 -33.751761058029658 8.2994495795422942 #
point $-1 45.501976746956196 -22.943547864016047 8.2994495795422942 #
edge $-1 $625 -35.199718679864539 $619 -18.601411604682617 $617 $675 forward 7 unknown #
vertex $-1 $667 $676 #
straight-curve $-1 62.100283822138124 -21.540707648240275 9.1093797702184922 0 -0.8660253999169214 -0.50000000669873634 I I #
coedge $-1 $614 $565 $677 $678 forward $426 $-1 #
edge $-1 $566 -22.943547864016047 $679 33.751761058029658 $613 $680 forward 7 unknown #
point $-1 62.100283822138117 -22.943547864016047 8.2994495795422942 #
straight-curve $-1 -62.100283822138124 0 -8.2994495795422942 0 1 0 I I #
point $-1 -62.100283822138124 33.751761058029658 -8.2994495795422942 #
face $-1 $-1 $605 $18 $-1 $681 reversed single #
plane-surface $-1 -62.100283822138124 0 0 1 0 0 0 0 -1 forward_v I I I I #
coedge $-1 $682 $579 $595 $651 forward $528 $-1 #
coedge $-1 $579 $682 $653 $683 forward $528 $-1 #
edge $-1 $640 -33.751761058029658 $637 33.751761058029658 $580 $684 forward 7 unknown #
vertex $-1 $587 $685 #
straight-curve $-1 -72.635627964881223 33.751761058029658 6.3469373881968032 0 0 -1 I I #
coedge $-1 $595 $584 $589 $646 forward $482 $-1 #
vertex $-1 $636 $686 #
straight-curve $-1 -67.367955893509674 -33.751761058029658 4.3944251968513131 -1 0 0 I I #
coedge $-1 $586 $653 $588 $645 reversed $605 $-1 #
straight-curve $-1 -67.367955893509674 33.751761058029658 4.3944251968513131 1 0 0 I I #
coedge $-1 $589 $588 $682 $687 reversed $590 $-1 #
edge $-1 $592 -4.3944251968513131 $688 8.2994495795422942 $642 $689 forward 7 unknown #
edge $-1 $591 -4.3944251968513131 $690 8.2994495795422942 $589 $691 forward 7 unknown #
point $-1 -62.100283822138117 -33.751761058029658 4.3944251968513131 #
point $-1 -62.100283822138117 33.751761058029658 4.3944251968513131 #
vertex $-1 $594 $692 #
straight-curve $-1 62.100283822138124 0 -8.2994495795422942 0 -1 0 I I #
edge $-1 $596 -62.100283822138124 $690 62.100283822138124 $595 $693 forward 7 unknown #
point $-1 62.100283822138124 -33.751761058029658 -8.2994495795422942 #
coedge $-1 $642 $598 $635 $683 reversed $605 $-1 #
straight-curve $-1 62.100283822138124 33.751761058029658 0 0 0 -1 I I #
point $-1 -72.635627964881223 33.751761058029658 8.2994495795422942 #
straight-curve $-1 -72.635627964881223 -33.751761058029658 6.3469373881968032 0 0 -1 I I #
face $-1 $694 $618 $19 $-1 $695 reversed single #
loop $-1 $-1 $696 $608 #
plane-surface $-1 0 0 -8.2994495795422942 0 0 1 1 0 0 forward_v I I I I #
coedge $-1 $697 $669 $698 $699 forward $609 $-1 #
coedge $-1 $700 $611 $701 $702 forward $552 $-1 #
coedge $-1 $611 $700 $703 $704 forward $552 $-1 #
coedge $-1 $705 $706 $611 $664 forward $707 $-1 #
edge $-1 $708 -33.751761058029658 $709 33.751761058029658 $663 $710 forward 7 unknown #
coedge $-1 $668 $612 $696 $711 reversed $495 $-1 #
coedge $-1 $617 $712 $612 $667 reversed $618 $-1 #
edge $-1 $625 -2.0593246710504678 $713 8.2994495795422942 $612 $714 forward 7 unknown #
coedge $-1 $613 $665 $715 $716 reversed $495 $-1 #
coedge $-1 $660 $717 $614 $670 reversed $609 $-1 #
edge $-1 $718 -33.751761058029658 $672 33.751761058029658 $669 $719 forward 7 unknown #
coedge $-1 $701 $615 $717 $720 forward $618 $-1 #
vertex $-1 $670 $721 #
straight-curve $-1 0 -33.751761058029658 8.2994495795422942 1 0 0 I I #
point $-1 45.501976746956196 -33.751761058029658 2.0593246710504678 #
straight-curve $-1 26.900565142273578 -33.751761058029658 2.059324671050466 -1 0 0 I I #
point $-1 62.100283822138117 -33.751761058029658 2.0593246710504678 #
coedge $-1 $715 $698 $627 $678 reversed $722 $-1 #
edge $-1 $679 -62.100283822138124 $718 72.635627964881223 $677 $723 forward 7 unknown #
vertex $-1 $628 $724 #
straight-curve $-1 62.100283822138124 0 8.2994495795422942 0 1 0 I I #
plane-surface $-1 0 33.751761058029658 0 0 -1 0 0 0 -1 forward_v I I I I #
coedge $-1 $635 $634 $644 $687 forward $528 $-1 #
edge $-1 $688 -62.100283822138124 $649 62.100283822138124 $653 $725 forward 7 unknown #
straight-curve $-1 -72.635627964881223 0 4.3944251968513131 0 1 0 I I #
point $-1 -72.635627964881223 33.751761058029658 4.3944251968513131 #
point $-1 -72.635627964881223 -33.751761058029658 4.3944251968513131 #
edge $-1 $690 -33.751761058029658 $688 33.751761058029658 $644 $726 forward 7 unknown #
vertex $-1 $683 $727 #
straight-curve $-1 -62.100283822138124 33.751761058029658 0 0 0 -1 I I #
vertex $-1 $687 $728 #
straight-curve $-1 -62.100283822138124 -33.751761058029658 0 0 0 -1 I I #
point $-1 62.100283822138124 33.751761058029658 -8.2994495795422942 #
straight-curve $-1 0 -33.751761058029658 -8.2994495795422942 -1 0 0 I I #
face $-1 $729 $707 $19 $-1 $730 reversed single #
plane-surface $-1 0 -33.751761058029658 0 0 1 0 0 0 1 forward_v I I I I #
coedge $-1 $731 $732 $665 $711 forward $658 $-1 #
coedge $-1 $717 $660 $700 $733 reversed $609 $-1 #
coedge $-1 $677 $703 $660 $699 reversed $722 $-1 #
edge $-1 $718 -1.952512191345491 $734 1.9525121913454901 $698 $735 forward 7 unknown #
coedge $-1 $662 $661 $697 $733 forward $552 $-1 #
coedge $-1 $736 $671 $661 $702 reversed $618 $-1 #
edge $-1 $708 -5.2676720713715568 $737 5.2676720713715497 $701 $738 forward 7 unknown #
coedge $-1 $698 $739 $662 $704 reversed $722 $-1 #
edge $-1 $734 -5.2676720713715497 $709 5.2676720713715568 $703 $740 forward 7 unknown #
coedge $-1 $741 $663 $739 $742 forward $707 $-1 #
coedge $-1 $663 $741 $736 $743 reversed $707 $-1 #
loop $-1 $-1 $663 $694 #
vertex $-1 $743 $744 #
vertex $-1 $742 $745 #
straight-curve $-1 -62.100283822138124 0 4.3944251968513131 0 1 0 I I #
edge $-1 $746 -33.751761058029658 $713 33.751761058029658 $665 $747 forward 7 unknown #
coedge $-1 $666 $736 $731 $748 reversed $618 $-1 #
vertex $-1 $667 $749 #
straight-curve $-1 62.100283822138124 -33.751761058029658 0 0 0 -1 I I #
coedge $-1 $750 $677 $668 $716 forward $722 $-1 #
edge $-1 $679 -8.2994495795422942 $746 8.2994495795422942 $668 $751 forward 7 unknown #
coedge $-1 $669 $697 $671 $720 reversed $609 $-1 #
vertex $-1 $678 $752 #
straight-curve $-1 -72.635627964881223 0 8.2994495795422942 0 -1 0 I I #
edge $-1 $672 -1.952512191345491 $737 1.9525121913454901 $717 $753 forward 7 unknown #
point $-1 -72.635627964881223 -33.751761058029658 8.2994495795422942 #
loop $-1 $-1 $715 $729 #
straight-curve $-1 0 33.751761058029658 8.2994495795422942 -1 0 0 I I #
point $-1 62.100283822138124 33.751761058029658 8.2994495795422942 #
straight-curve $-1 0 33.751761058029658 -8.2994495795422942 1 0 0 I I #
straight-curve $-1 -62.100283822138124 0 -8.2994495795422942 0 1 0 I I #
point $-1 -62.100283822138124 33.751761058029658 -8.2994495795422942 #
point $-1 -62.100283822138124 -33.751761058029658 -8.2994495795422942 #
face $-1 $-1 $722 $19 $-1 $754 reversed single #
plane-surface $-1 -62.100283822138124 0 0 1 0 0 0 0 -1 forward_v I I I I #
coedge $-1 $755 $696 $712 $748 forward $658 $-1 #
coedge $-1 $696 $755 $750 $756 forward $658 $-1 #
edge $-1 $737 -33.751761058029658 $734 33.751761058029658 $697 $757 forward 7 unknown #
vertex $-1 $704 $758 #
straight-curve $-1 -72.635627964881223 33.751761058029658 6.3469373881968032 0 0 -1 I I #
coedge $-1 $712 $701 $706 $743 forward $618 $-1 #
vertex $-1 $733 $759 #
straight-curve $-1 -67.367955893509674 -33.751761058029658 4.3944251968513131 -1 0 0 I I #
coedge $-1 $703 $750 $705 $742 reversed $722 $-1 #
straight-curve $-1 -67.367955893509674 33.751761058029658 4.3944251968513131 1 0 0 I I #
coedge $-1 $706 $705 $755 $760 reversed $707 $-1 #
edge $-1 $709 -4.3944251968513131 $761 8.2994495795422942 $739 $762 forward 7 unknown #
edge $-1 $708 -4.3944251968513131 $763 8.2994495795422942 $706 $764 forward 7 unknown #
point $-1 -62.100283822138117 -33.751761058029658 4.3944251968513131 #
point $-1 -62.100283822138117 33.751761058029658 4.3944251968513131 #
vertex $-1 $711 $765 #
straight-curve $-1 62.100283822138124 0 -8.2994495795422942 0 -1 0 I I #
edge $-1 $713 -62.100283822138124 $763 62.100283822138124 $712 $766 forward 7 unknown #
point $-1 62.100283822138124 -33.751761058029658 -8.2994495795422942 #
coedge $-1 $739 $715 $732 $756 reversed $722 $-1 #
straight-curve $-1 62.100283822138124 33.751761058029658 0 0 0 -1 I I #
point $-1 -72.635627964881223 33.751761058029658 8.2994495795422942 #
straight-curve $-1 -72.635627964881223 -33.751761058029658 6.3469373881968032 0 0 -1 I I #
plane-surface $-1 0 33.751761058029658 0 0 -1 0 0 0 -1 forward_v I I I I #
coedge $-1 $732 $731 $741 $760 forward $658 $-1 #
edge $-1 $761 -62.100283822138124 $746 62.100283822138124 $750 $767 forward 7 unknown #
straight-curve $-1 -72.635627964881223 0 4.3944251968513131 0 1 0 I I #
point $-1 -72.635627964881223 33.751761058029658 4.3944251968513131 #
point $-1 -72.635627964881223 -33.751761058029658 4.3944251968513131 #
edge $-1 $763 -33.751761058029658 $761 33.751761058029658 $741 $768 forward 7 unknown #
vertex $-1 $756 $769 #
straight-curve $-1 -62.100283822138124 33.751761058029658 0 0 0 -1 I I #
vertex $-1 $760 $770 #
straight-curve $-1 -62.100283822138124 -33.751761058029658 0 0 0 -1 I I #
point $-1 62.100283822138124 33.751761058029658 -8.2994495795422942 #
straight-curve $-1 0 -33.751761058029658 -8.2994495795422942 -1 0 0 I I #
straight-curve $-1 0 33.751761058029658 -8.2994495795422942 1 0 0 I I #
straight-curve $-1 -62.100283822138124 0 -8.2994495795422942 0 1 0 I I #
point $-1 -62.100283822138124 33.751761058029658 -8.2994495795422942 #
point $-1 -62.100283822138124 -33.751761058029658 -8.2994495795422942 #
End-of-ACIS-data 