500 0 11 0           
7 Unknown 11 ACIS 5.0 NT 24 Thu Mar 25 19:59:54 1999 
-1 9.9999999999999995e-007 1e-010 
body $-1 $11 $-1 $12 #
body $-1 $13 $-1 $14 #
body $-1 $15 $-1 $16 #
body $-1 $17 $-1 $18 #
body $-1 $19 $-1 $20 #
body $-1 $21 $-1 $22 #
body $-1 $23 $-1 $24 #
body $-1 $25 $-1 $26 #
body $-1 $27 $-1 $28 #
body $-1 $29 $-1 $30 #
body $-1 $31 $-1 $32 #
lump $-1 $-1 $33 $0 #
transform $-1 1 0 0 0 1 0 0 0 1 77.49626148258919 45.031413247498847 13.018252152152542 1 rotate no_reflect no_shear #
lump $-1 $-1 $34 $1 #
transform $-1 1 0 0 0 1 0 0 0 1 77.49626148258919 45.031413247498847 13.018252152152542 1 rotate no_reflect no_shear #
lump $-1 $-1 $35 $2 #
transform $-1 1 0 0 0 1 0 0 0 1 77.49626148258919 45.031413247498847 13.018252152152542 1 rotate no_reflect no_shear #
lump $-1 $-1 $36 $3 #
transform $-1 1 0 0 0 1 0 0 0 1 77.49626148258919 45.031413247498847 13.018252152152542 1 rotate no_reflect no_shear #
lump $-1 $-1 $37 $4 #
transform $-1 1 0 0 0 1 0 0 0 1 77.49626148258919 45.031413247498847 13.018252152152542 1 rotate no_reflect no_shear #
lump $-1 $-1 $38 $5 #
transform $-1 1 0 0 0 1 0 0 0 1 77.49626148258919 45.031413247498847 13.018252152152542 1 rotate no_reflect no_shear #
lump $-1 $-1 $39 $6 #
transform $-1 1 0 0 0 1 0 0 0 1 77.49626148258919 45.031413247498847 13.018252152152542 1 rotate no_reflect no_shear #
lump $-1 $-1 $40 $7 #
transform $-1 1 0 0 0 1 0 0 0 1 77.49626148258919 45.031413247498847 13.018252152152542 1 rotate no_reflect no_shear #
lump $-1 $-1 $41 $8 #
transform $-1 1 0 0 0 1 0 0 0 1 77.49626148258919 45.031413247498847 13.018252152152542 1 rotate no_reflect no_shear #
lump $-1 $-1 $42 $9 #
transform $-1 1 0 0 0 1 0 0 0 1 77.49626148258919 45.031413247498847 13.018252152152542 1 rotate no_reflect no_shear #
lump $-1 $-1 $43 $10 #
transform $-1 1 0 0 0 1 0 0 0 1 77.49626148258919 45.031413247498847 13.018252152152542 1 rotate no_reflect no_shear #
shell $-1 $-1 $-1 $44 $-1 $11 #
shell $-1 $-1 $-1 $45 $-1 $13 #
shell $-1 $-1 $-1 $46 $-1 $15 #
shell $-1 $-1 $-1 $47 $-1 $17 #
shell $-1 $-1 $-1 $48 $-1 $19 #
shell $-1 $-1 $-1 $49 $-1 $21 #
shell $-1 $-1 $-1 $50 $-1 $23 #
shell $-1 $-1 $-1 $51 $-1 $25 #
shell $-1 $-1 $-1 $52 $-1 $27 #
shell $-1 $-1 $-1 $53 $-1 $29 #
shell $-1 $-1 $-1 $54 $-1 $31 #
face $-1 $55 $56 $33 $-1 $57 reversed single #
face $-1 $58 $59 $34 $-1 $60 forward single #
face $-1 $61 $62 $35 $-1 $63 reversed single #
face $-1 $64 $65 $36 $-1 $66 forward single #
face $-1 $67 $68 $37 $-1 $69 forward single #
face $-1 $70 $71 $38 $-1 $72 reversed single #
face $-1 $73 $74 $39 $-1 $75 forward single #
face $-1 $76 $77 $40 $-1 $78 forward single #
face $-1 $79 $80 $41 $-1 $81 reversed single #
face $-1 $82 $83 $42 $-1 $84 forward single #
face $-1 $85 $86 $43 $-1 $87 forward single #
face $-1 $88 $89 $33 $-1 $90 forward single #
loop $-1 $-1 $91 $44 #
plane-surface $-1 0 -45.031413247498847 0 0 1 0 0 0 1 forward_v I I I I #
face $-1 $92 $93 $34 $-1 $94 reversed single #
loop $-1 $-1 $95 $45 #
plane-surface $-1 0 -45.031413247498847 0 0 1 0 0 0 1 forward_v I I I I #
face $-1 $96 $97 $35 $-1 $98 reversed single #
loop $-1 $-1 $99 $46 #
plane-surface $-1 -196.227423709422 -31.450174431028962 103.11334351458788 0 1 0 -0.7660444514056185 0 0.64278759981090561 forward_v I I I I #
face $-1 $100 $101 $36 $-1 $102 forward single #
loop $-1 $103 $104 $47 #
cone-surface $-1 -71.507307464770122 -27.331147654991863 6.5825806184577935 0.7660444514056185 0 -0.64278759981090561 0.96418139971635841 0 1.1490666771084277 1 I I 0 1 1.5 forward I I I I #
face $-1 $105 $106 $37 $-1 $107 forward single #
loop $-1 $108 $109 $48 #
cone-surface $-1 -71.507307464770122 -21.152607490936212 6.5825806184577935 0.7660444514056185 0 -0.64278759981090561 0.96418139971635841 0 1.1490666771084277 1 I I 0 1 1.5 forward I I I I #
face $-1 $110 $111 $38 $-1 $112 reversed single #
loop $-1 $-1 $113 $49 #
plane-surface $-1 66.024613296503176 4.1929039749752768 220.59572753694897 0 -1 0 -0.66913061440640931 0 -0.74314481823134659 forward_v I I I I #
face $-1 $114 $115 $39 $-1 $116 forward single #
loop $-1 $117 $118 $50 #
cone-surface $-1 69.895939135262083 -8.173596130228475 5.8979997272163551 -0.66913061440640931 0 -0.74314481823134659 1.1147172273470198 0 -1.003695921609614 1 I I 0 1 1.5 forward I I I I #
face $-1 $119 $120 $40 $-1 $121 forward single #
loop $-1 $122 $123 $51 #
cone-surface $-1 69.895939135262083 -0.75369606710621895 5.8979997272163551 -0.66913061440640931 0 -0.74314481823134659 1.1147172273470198 0 -1.003695921609614 1 I I 0 1 1.5 forward I I I I #
face $-1 $124 $125 $41 $-1 $126 reversed single #
loop $-1 $-1 $127 $52 #
plane-surface $-1 66.024613296503176 26.701434988779862 220.59572753694897 0 -1 0 -0.66913061440640931 0 -0.74314481823134659 forward_v I I I I #
face $-1 $128 $129 $42 $-1 $130 forward single #
loop $-1 $131 $132 $53 #
cone-surface $-1 69.895939135262083 14.334934883576111 5.8979997272163551 -0.66913061440640931 0 -0.74314481823134659 1.1147172273470198 0 -1.003695921609614 1 I I 0 1 1.5 forward I I I I #
face $-1 $133 $134 $43 $-1 $135 forward single #
loop $-1 $136 $137 $54 #
cone-surface $-1 69.895939135262083 21.754834946698367 5.8979997272163551 -0.66913061440640931 0 -0.74314481823134659 1.1147172273470198 0 -1.003695921609614 1 I I 0 1 1.5 forward I I I I #
face $-1 $138 $139 $33 $-1 $140 reversed single #
loop $-1 $-1 $141 $55 #
plane-surface $-1 0 0 13.018252152152542 0 0 1 1 0 0 forward_v I I I I #
coedge $-1 $142 $143 $144 $145 reversed $56 $-1 #
face $-1 $146 $147 $34 $-1 $148 reversed single #
loop $-1 $-1 $149 $58 #
plane-surface $-1 0 0 -13.018252152152542 0 0 1 1 0 0 forward_v I I I I #
coedge $-1 $150 $151 $152 $153 forward $59 $-1 #
face $-1 $154 $155 $35 $-1 $156 reversed single #
loop $-1 $-1 $157 $61 #
plane-surface $-1 -77.496261482589205 -24.241877572964036 3.4860716891642056 -0.7660444514056185 0 0.64278759981090561 0.64278759981090561 0 0.7660444514056185 forward_v I I I I #
coedge $-1 $158 $159 $160 $161 reversed $62 $-1 #
face $-1 $-1 $162 $36 $-1 $163 forward single #
loop $-1 $164 $165 $64 #
cone-surface $-1 -68.943044559096748 -27.331147654991863 4.4309086163990372 0.7660444514056185 0 -0.64278759981090561 0.48209069985817921 0 0.57453333855421385 1 I I -0.70710678118654757 0.70710678118654757 0.75 forward I I I I #
loop $-1 $-1 $166 $47 #
coedge $-1 $104 $104 $167 $168 reversed $65 $-1 #
face $-1 $-1 $169 $37 $-1 $170 forward single #
loop $-1 $171 $172 $67 #
cone-surface $-1 -68.943044559096748 -21.152607490936212 4.4309086163990372 0.7660444514056185 0 -0.64278759981090561 0.48209069985817921 0 0.57453333855421385 1 I I -0.70710678118654757 0.70710678118654757 0.75 forward I I I I #
loop $-1 $-1 $173 $48 #
coedge $-1 $109 $109 $174 $175 reversed $68 $-1 #
face $-1 $176 $177 $38 $-1 $178 reversed single #
loop $-1 $-1 $179 $70 #
plane-surface $-1 -37.685628823586143 -4.4636460986673541 105.41383723077367 0.66913061440640931 0 0.74314481823134659 0.74314481823134659 0 -0.66913061440640931 forward_v I I I I #
coedge $-1 $180 $181 $182 $183 reversed $71 $-1 #
face $-1 $-1 $184 $39 $-1 $185 forward single #
loop $-1 $186 $187 $73 #
cone-surface $-1 68.076868545928036 -8.173596130228475 3.8777172093407444 -0.66913061440640931 0 -0.74314481823134659 0.55735861367350992 0 -0.50184796080480698 1 I I -0.70710678118654757 0.70710678118654757 0.75 forward I I I I #
loop $-1 $-1 $188 $50 #
coedge $-1 $118 $118 $189 $190 reversed $74 $-1 #
face $-1 $-1 $191 $40 $-1 $192 forward single #
loop $-1 $193 $194 $76 #
cone-surface $-1 68.076868545928036 -0.75369606710621895 3.8777172093407444 -0.66913061440640931 0 -0.74314481823134659 0.55735861367350992 0 -0.50184796080480698 1 I I -0.70710678118654757 0.70710678118654757 0.75 forward I I I I #
loop $-1 $-1 $195 $51 #
coedge $-1 $123 $123 $196 $197 reversed $77 $-1 #
face $-1 $198 $199 $41 $-1 $200 reversed single #
loop $-1 $-1 $201 $79 #
plane-surface $-1 -37.685628823586143 18.044884915137231 105.41383723077367 0.66913061440640931 0 0.74314481823134659 0.74314481823134659 0 -0.66913061440640931 forward_v I I I I #
coedge $-1 $202 $203 $204 $205 reversed $80 $-1 #
face $-1 $-1 $206 $42 $-1 $207 forward single #
loop $-1 $208 $209 $82 #
cone-surface $-1 68.076868545928036 14.334934883576111 3.8777172093407444 -0.66913061440640931 0 -0.74314481823134659 0.55735861367350992 0 -0.50184796080480698 1 I I -0.70710678118654757 0.70710678118654757 0.75 forward I I I I #
loop $-1 $-1 $210 $53 #
coedge $-1 $132 $132 $211 $212 reversed $83 $-1 #
face $-1 $-1 $213 $43 $-1 $214 forward single #
loop $-1 $215 $216 $85 #
cone-surface $-1 68.076868545928036 21.754834946698367 3.8777172093407444 -0.66913061440640931 0 -0.74314481823134659 0.55735861367350992 0 -0.50184796080480698 1 I I -0.70710678118654757 0.70710678118654757 0.75 forward I I I I #
loop $-1 $-1 $217 $54 #
coedge $-1 $137 $137 $218 $219 reversed $86 $-1 #
face $-1 $220 $221 $33 $-1 $222 reversed single #
loop $-1 $-1 $223 $88 #
plane-surface $-1 0 0 -13.018252152152542 0 0 1 1 0 0 forward_v I I I I #
coedge $-1 $224 $225 $226 $227 forward $89 $-1 #
coedge $-1 $228 $91 $229 $230 reversed $56 $-1 #
coedge $-1 $91 $228 $231 $232 forward $56 $-1 #
coedge $-1 $233 $223 $91 $145 forward $139 $-1 #
edge $-1 $234 -77.49626148258919 $235 77.49626148258919 $91 $236 forward 7 unknown #
face $-1 $237 $238 $34 $-1 $239 reversed single #
loop $-1 $-1 $240 $92 #
plane-surface $-1 -72.523799449124525 -58.612652063968724 0 0 1 0 0 0 1 forward_v I I I I #
coedge $-1 $241 $242 $151 $243 forward $93 $-1 #
coedge $-1 $244 $95 $245 $246 reversed $59 $-1 #
coedge $-1 $95 $244 $149 $243 reversed $59 $-1 #
coedge $-1 $247 $248 $95 $153 reversed $238 $-1 #
edge $-1 $249 -13.018252152152542 $250 13.018252152152542 $152 $251 forward 7 unknown #
face $-1 $252 $253 $35 $-1 $254 reversed single #
loop $-1 $-1 $255 $96 #
plane-surface $-1 -196.227423709422 -17.033580714899109 103.11334351458788 0 -1 0 0.7660444514056185 0 -0.64278759981090561 forward_v I I I I #
coedge $-1 $256 $257 $258 $259 reversed $97 $-1 #
coedge $-1 $159 $99 $260 $261 reversed $62 $-1 #
coedge $-1 $99 $158 $256 $262 reversed $62 $-1 #
coedge $-1 $258 $263 $99 $161 forward $264 $-1 #
edge $-1 $265 20.617450372121809 $266 28.615899273521592 $160 $267 forward 7 unknown #
loop $-1 $-1 $167 $100 #
plane-surface $-1 -77.496261482589205 -24.241877572964036 3.4860716891642056 -0.7660444514056185 0 0.64278759981090561 0.64278759981090561 0 0.7660444514056185 forward_v I I I I #
loop $-1 $-1 $268 $64 #
coedge $-1 $165 $165 $166 $269 reversed $101 $-1 #
coedge $-1 $166 $166 $165 $269 forward $103 $-1 #
coedge $-1 $167 $167 $104 $168 forward $162 $-1 #
edge $-1 $270 0 $270 6.2831853071796004 $167 $271 forward 7 unknown #
loop $-1 $-1 $174 $105 #
plane-surface $-1 -77.496261482589205 -24.241877572964036 3.4860716891642056 -0.7660444514056185 0 0.64278759981090561 0.64278759981090561 0 0.7660444514056185 forward_v I I I I #
loop $-1 $-1 $272 $67 #
coedge $-1 $172 $172 $173 $273 reversed $106 $-1 #
coedge $-1 $173 $173 $172 $273 forward $108 $-1 #
coedge $-1 $174 $174 $109 $175 forward $169 $-1 #
edge $-1 $274 0 $274 6.2831853071796004 $174 $275 forward 7 unknown #
face $-1 $276 $277 $38 $-1 $278 forward single #
loop $-1 $-1 $279 $110 #
plane-surface $-1 66.024613296503176 -13.120196172309985 220.59572753694897 0 1 0 0.66913061440640931 0 0.74314481823134659 forward_v I I I I #
coedge $-1 $280 $281 $282 $283 reversed $111 $-1 #
coedge $-1 $181 $113 $284 $285 reversed $71 $-1 #
coedge $-1 $113 $180 $280 $286 reversed $71 $-1 #
coedge $-1 $282 $287 $113 $183 forward $277 $-1 #
edge $-1 $288 -44.483954834337602 $289 -31.917755396741846 $182 $290 forward 7 unknown #
loop $-1 $-1 $189 $114 #
plane-surface $-1 -37.685628823586143 -4.4636460986673541 105.41383723077367 0.66913061440640931 0 0.74314481823134659 0.74314481823134659 0 -0.66913061440640931 forward_v I I I I #
loop $-1 $-1 $291 $73 #
coedge $-1 $187 $187 $188 $292 reversed $115 $-1 #
coedge $-1 $188 $188 $187 $292 forward $117 $-1 #
coedge $-1 $189 $189 $118 $190 forward $184 $-1 #
edge $-1 $293 0 $293 6.2831853071796004 $189 $294 forward 7 unknown #
loop $-1 $-1 $196 $119 #
plane-surface $-1 -37.685628823586143 -4.4636460986673541 105.41383723077367 0.66913061440640931 0 0.74314481823134659 0.74314481823134659 0 -0.66913061440640931 forward_v I I I I #
loop $-1 $-1 $295 $76 #
coedge $-1 $194 $194 $195 $296 reversed $120 $-1 #
coedge $-1 $195 $195 $194 $296 forward $122 $-1 #
coedge $-1 $196 $196 $123 $197 forward $191 $-1 #
edge $-1 $297 0 $297 6.2831853071796004 $196 $298 forward 7 unknown #
face $-1 $299 $300 $41 $-1 $301 reversed single #
loop $-1 $-1 $302 $124 #
plane-surface $-1 66.024613296503176 9.3883348414946006 220.59572753694897 0 1 0 0.66913061440640931 0 0.74314481823134659 forward_v I I I I #
coedge $-1 $303 $304 $305 $306 reversed $125 $-1 #
coedge $-1 $203 $127 $307 $308 reversed $80 $-1 #
coedge $-1 $127 $202 $303 $309 reversed $80 $-1 #
coedge $-1 $305 $310 $127 $205 forward $311 $-1 #
edge $-1 $312 -44.483954834337602 $313 -31.917755396741846 $204 $314 forward 7 unknown #
loop $-1 $-1 $211 $128 #
plane-surface $-1 -37.685628823586143 18.044884915137231 105.41383723077367 0.66913061440640931 0 0.74314481823134659 0.74314481823134659 0 -0.66913061440640931 forward_v I I I I #
loop $-1 $-1 $315 $82 #
coedge $-1 $209 $209 $210 $316 reversed $129 $-1 #
coedge $-1 $210 $210 $209 $316 forward $131 $-1 #
coedge $-1 $211 $211 $132 $212 forward $206 $-1 #
edge $-1 $317 0 $317 6.2831853071796004 $211 $318 forward 7 unknown #
loop $-1 $-1 $218 $133 #
plane-surface $-1 -37.685628823586143 18.044884915137231 105.41383723077367 0.66913061440640931 0 0.74314481823134659 0.74314481823134659 0 -0.66913061440640931 forward_v I I I I #
loop $-1 $-1 $319 $85 #
coedge $-1 $216 $216 $217 $320 reversed $134 $-1 #
coedge $-1 $217 $217 $216 $320 forward $136 $-1 #
coedge $-1 $218 $218 $137 $219 forward $213 $-1 #
edge $-1 $321 0 $321 6.2831853071796004 $218 $322 forward 7 unknown #
face $-1 $323 $324 $33 $-1 $325 reversed single #
loop $-1 $-1 $326 $138 #
plane-surface $-1 -77.49626148258919 0 0 1 0 0 0 0 -1 forward_v I I I I #
coedge $-1 $144 $327 $328 $329 forward $139 $-1 #
coedge $-1 $330 $141 $331 $332 forward $89 $-1 #
coedge $-1 $141 $330 $228 $333 forward $89 $-1 #
coedge $-1 $229 $334 $141 $227 reversed $335 $-1 #
edge $-1 $336 -45.031413247498847 $337 45.031413247498847 $226 $338 forward 7 unknown #
coedge $-1 $143 $142 $225 $333 reversed $56 $-1 #
coedge $-1 $328 $226 $142 $230 forward $335 $-1 #
edge $-1 $336 -13.018252152152542 $234 13.018252152152542 $229 $339 forward 7 unknown #
coedge $-1 $340 $341 $143 $232 reversed $221 $-1 #
edge $-1 $342 -13.018252152152542 $235 13.018252152152542 $231 $343 forward 7 unknown #
coedge $-1 $327 $144 $341 $344 forward $139 $-1 #
vertex $-1 $230 $345 #
vertex $-1 $344 $346 #
straight-curve $-1 0 -45.031413247498847 -13.018252152152542 -1 0 0 I I #
face $-1 $347 $348 $34 $-1 $349 reversed single #
loop $-1 $-1 $152 $146 #
plane-surface $-1 -75.052400353155249 -51.822032655733786 0 1 0 0 0 0 -1 forward_v I I I I #
coedge $-1 $350 $351 $352 $353 forward $147 $-1 #
coedge $-1 $354 $149 $355 $356 forward $93 $-1 #
coedge $-1 $149 $354 $247 $357 forward $93 $-1 #
edge $-1 $249 -75.052400353155249 $358 -69.9951985450938 $149 $359 forward 7 unknown #
coedge $-1 $151 $150 $360 $361 forward $59 $-1 #
coedge $-1 $362 $363 $150 $246 forward $364 $-1 #
edge $-1 $365 69.9951985450938 $250 75.052400353155249 $245 $366 forward 7 unknown #
coedge $-1 $352 $152 $242 $357 reversed $238 $-1 #
coedge $-1 $152 $352 $362 $367 reversed $238 $-1 #
vertex $-1 $243 $368 #
vertex $-1 $367 $369 #
straight-curve $-1 -75.052400353155249 -45.031413247498847 0 0 0 1 I I #
face $-1 $-1 $264 $35 $-1 $370 forward single #
loop $-1 $-1 $371 $154 #
plane-surface $-1 -77.49626148258919 0 0 1 0 0 0 0 -1 forward_v I I I I #
coedge $-1 $372 $373 $374 $375 reversed $155 $-1 #
coedge $-1 $376 $157 $159 $262 forward $97 $-1 #
coedge $-1 $157 $376 $372 $377 forward $97 $-1 #
coedge $-1 $374 $160 $157 $259 forward $264 $-1 #
edge $-1 $266 -19.329235644546944 $378 -4.9126419284170915 $258 $379 forward 7 unknown #
coedge $-1 $380 $381 $158 $261 forward $253 $-1 #
edge $-1 $382 -48.070600068129721 $265 -38.538419605141399 $260 $383 forward 7 unknown #
edge $-1 $266 -12.44337772501021 $382 -2.2061860048766535e-014 $159 $384 forward 7 unknown #
coedge $-1 $160 $374 $380 $385 forward $264 $-1 #
loop $-1 $-1 $374 $252 #
vertex $-1 $261 $386 #
vertex $-1 $161 $387 #
straight-curve $-1 -98.113711854710999 -31.450174431028962 13.018252152152542 1 0 0 I I #
coedge $-1 $268 $268 $-1 $388 reversed $164 $-1 #
edge $-1 $389 0 $389 6.2831853071796004 $165 $390 forward 7 unknown #
vertex $-1 $168 $391 #
ellipse-curve $-1 -73.497037031889292 -27.331147654991863 8.2521619206583825 -0.7660444514056185 0 0.64278759981090561 0.96418139971635841 0 1.1490666771084277 1 I I #
coedge $-1 $272 $272 $-1 $392 reversed $171 $-1 #
edge $-1 $393 0 $393 6.2831853071796004 $172 $394 forward 7 unknown #
vertex $-1 $175 $395 #
ellipse-curve $-1 -73.497037031889292 -21.152607490936212 8.2521619206583825 -0.7660444514056185 0 0.64278759981090561 0.96418139971635841 0 1.1490666771084277 1 I I #
face $-1 $-1 $396 $38 $-1 $397 reversed single #
loop $-1 $-1 $182 $176 #
plane-surface $-1 0 0 13.018252152152542 0 0 1 1 0 0 forward_v I I I I #
coedge $-1 $398 $399 $400 $401 reversed $177 $-1 #
coedge $-1 $402 $179 $181 $286 forward $111 $-1 #
coedge $-1 $179 $402 $398 $403 forward $111 $-1 #
coedge $-1 $400 $182 $179 $283 forward $277 $-1 #
edge $-1 $289 -6.4247270243089538 $404 10.888373122976308 $282 $405 forward 7 unknown #
coedge $-1 $406 $407 $180 $285 forward $396 $-1 #
edge $-1 $408 -108.59426865779017 $288 -97.279611616321944 $284 $409 forward 7 unknown #
edge $-1 $289 138.08303355031205 $408 154.99252296517844 $181 $410 forward 7 unknown #
coedge $-1 $182 $400 $406 $411 forward $277 $-1 #
vertex $-1 $183 $412 #
vertex $-1 $183 $413 #
straight-curve $-1 33.012306648251588 4.1929039749752768 13.018252152152542 -1 0 0 I I #
coedge $-1 $291 $291 $-1 $414 reversed $186 $-1 #
edge $-1 $415 0 $415 6.2831853071796004 $187 $416 forward 7 unknown #
vertex $-1 $190 $417 #
ellipse-curve $-1 71.213161763791305 -8.173596130228475 7.3609236314184407 0.66913061440640931 0 0.74314481823134659 1.1147172273470198 0 -1.003695921609614 1 I I #
coedge $-1 $295 $295 $-1 $418 reversed $193 $-1 #
edge $-1 $419 0 $419 6.2831853071796004 $194 $420 forward 7 unknown #
vertex $-1 $197 $421 #
ellipse-curve $-1 71.213161763791305 -0.75369606710621895 7.3609236314184407 0.66913061440640931 0 0.74314481823134659 1.1147172273470198 0 -1.003695921609614 1 I I #
face $-1 $-1 $311 $41 $-1 $422 forward single #
loop $-1 $-1 $423 $198 #
plane-surface $-1 77.49626148258919 0 0 -1 0 0 0 0 1 forward_v I I I I #
coedge $-1 $424 $425 $426 $427 reversed $199 $-1 #
coedge $-1 $428 $201 $203 $309 forward $125 $-1 #
coedge $-1 $201 $428 $424 $429 forward $125 $-1 #
coedge $-1 $426 $204 $201 $306 forward $311 $-1 #
edge $-1 $313 -17.678992531211247 $430 -0.36589238392598489 $305 $431 forward 7 unknown #
coedge $-1 $432 $433 $202 $308 forward $300 $-1 #
edge $-1 $434 -108.59426865779017 $312 -97.279611616321944 $307 $435 forward 7 unknown #
edge $-1 $313 138.08303355031205 $434 154.99252296517844 $203 $436 forward 7 unknown #
coedge $-1 $204 $426 $432 $437 forward $311 $-1 #
loop $-1 $-1 $426 $299 #
vertex $-1 $308 $438 #
vertex $-1 $205 $439 #
straight-curve $-1 33.012306648251588 26.701434988779862 13.018252152152542 -1 0 0 I I #
coedge $-1 $315 $315 $-1 $440 reversed $208 $-1 #
edge $-1 $441 0 $441 6.2831853071796004 $209 $442 forward 7 unknown #
vertex $-1 $212 $443 #
ellipse-curve $-1 71.213161763791305 14.334934883576111 7.3609236314184407 0.66913061440640931 0 0.74314481823134659 1.1147172273470198 0 -1.003695921609614 1 I I #
coedge $-1 $319 $319 $-1 $444 reversed $215 $-1 #
edge $-1 $445 0 $445 6.2831853071796004 $216 $446 forward 7 unknown #
vertex $-1 $219 $447 #
ellipse-curve $-1 71.213161763791305 21.754834946698367 7.3609236314184407 0.66913061440640931 0 0.74314481823134659 1.1147172273470198 0 -1.003695921609614 1 I I #
face $-1 $-1 $335 $33 $-1 $448 reversed single #
loop $-1 $-1 $449 $220 #
plane-surface $-1 0 45.031413247498847 0 0 -1 0 0 0 -1 forward_v I I I I #
coedge $-1 $341 $340 $450 $451 forward $221 $-1 #
coedge $-1 $223 $233 $452 $453 forward $139 $-1 #
coedge $-1 $334 $229 $223 $329 reversed $335 $-1 #
edge $-1 $454 -45.031413247498847 $234 45.031413247498847 $328 $455 forward 7 unknown #
coedge $-1 $225 $224 $340 $456 forward $89 $-1 #
coedge $-1 $449 $450 $224 $332 reversed $324 $-1 #
edge $-1 $337 -77.49626148258919 $457 77.49626148258919 $331 $458 forward 7 unknown #
edge $-1 $342 -77.49626148258919 $336 77.49626148258919 $228 $459 forward 7 unknown #
coedge $-1 $226 $328 $449 $460 reversed $335 $-1 #
loop $-1 $-1 $229 $323 #
vertex $-1 $227 $461 #
vertex $-1 $227 $462 #
straight-curve $-1 77.49626148258919 0 13.018252152152542 0 1 0 I I #
straight-curve $-1 77.49626148258919 -45.031413247498847 0 0 0 -1 I I #
coedge $-1 $326 $231 $330 $456 reversed $221 $-1 #
coedge $-1 $231 $326 $233 $344 reversed $221 $-1 #
vertex $-1 $456 $463 #
straight-curve $-1 -77.49626148258919 -45.031413247498847 0 0 0 -1 I I #
edge $-1 $235 -45.031413247498847 $464 45.031413247498847 $341 $465 forward 7 unknown #
point $-1 77.49626148258919 -45.031413247498847 -13.018252152152542 #
point $-1 -77.49626148258919 -45.031413247498847 -13.018252152152542 #
face $-1 $-1 $364 $34 $-1 $466 forward single #
loop $-1 $-1 $467 $237 #
plane-surface $-1 -69.9951985450938 -51.822032655733786 0 -1 0 0 0 0 1 forward_v I I I I #
coedge $-1 $468 $240 $354 $469 reversed $147 $-1 #
coedge $-1 $240 $468 $470 $471 reversed $147 $-1 #
coedge $-1 $248 $247 $240 $353 reversed $238 $-1 #
edge $-1 $472 -13.018252152152542 $473 13.018252152152542 $352 $474 forward 7 unknown #
coedge $-1 $242 $241 $350 $469 forward $93 $-1 #
coedge $-1 $360 $467 $241 $356 reversed $348 $-1 #
edge $-1 $358 -6.7906194082349387 $475 6.7906194082349387 $355 $476 forward 7 unknown #
edge $-1 $473 -6.7906194082349387 $249 6.7906194082349387 $247 $477 forward 7 unknown #
vertex $-1 $356 $478 #
straight-curve $-1 0 -45.031413247498847 -13.018252152152542 1 0 0 I I #
coedge $-1 $479 $355 $244 $361 reversed $348 $-1 #
edge $-1 $365 -13.018252152152542 $358 13.018252152152542 $360 $480 forward 7 unknown #
coedge $-1 $470 $245 $248 $367 forward $364 $-1 #
coedge $-1 $245 $470 $479 $481 forward $364 $-1 #
loop $-1 $-1 $245 $347 #
vertex $-1 $246 $482 #
straight-curve $-1 0 -45.031413247498847 13.018252152152542 -1 0 0 I I #
edge $-1 $250 -6.7906194082349387 $472 6.7906194082349387 $248 $483 forward 7 unknown #
point $-1 -75.052400353155249 -45.031413247498847 -13.018252152152542 #
point $-1 -75.052400353155249 -45.031413247498847 13.018252152152542 #
plane-surface $-1 0 0 13.018252152152542 0 0 1 1 0 0 forward_v I I I I #
coedge $-1 $381 $380 $373 $484 forward $253 $-1 #
coedge $-1 $373 $255 $257 $377 reversed $155 $-1 #
coedge $-1 $255 $372 $371 $484 reversed $155 $-1 #
coedge $-1 $263 $258 $255 $375 forward $264 $-1 #
edge $-1 $378 -28.615899273521592 $485 -20.617450372121809 $374 $486 forward 7 unknown #
coedge $-1 $257 $256 $381 $487 reversed $97 $-1 #
edge $-1 $488 2.2061860048766535e-014 $378 12.44337772501021 $372 $489 forward 7 unknown #
vertex $-1 $259 $490 #
straight-curve $-1 -69.497812581189407 -12.120938786482018 13.018252152152542 0 1 0 I I #
coedge $-1 $371 $260 $263 $385 reversed $253 $-1 #
coedge $-1 $260 $371 $376 $487 forward $253 $-1 #
vertex $-1 $261 $491 #
straight-curve $-1 -77.49626148258919 -31.450174431028962 51.556671757293941 0 0 1 I I #
straight-curve $-1 -77.496261482589205 -31.450174431028962 3.4860716891642056 -0.64278759981090561 0 -0.7660444514056185 I I #
edge $-1 $485 17.033580714899109 $265 31.450174431028962 $380 $492 forward 7 unknown #
point $-1 -77.49626148258919 -31.450174431028962 13.018252152152542 #
point $-1 -69.497812581189407 -31.450174431028962 13.018252152152542 #
edge $-1 $493 1 $493 0 $268 $-1 forward 7 unknown #
vertex $-1 $269 $494 #
ellipse-curve $-1 -69.517577897650966 -27.331147654991863 4.9129993162572161 -0.7660444514056185 0 0.64278759981090561 0.96418139971635841 0 1.1490666771084277 1 I I #
point $-1 -72.532855632172925 -27.331147654991863 9.4012285977667993 #
edge $-1 $495 1 $495 0 $272 $-1 forward 7 unknown #
vertex $-1 $273 $496 #
ellipse-curve $-1 -69.517577897650966 -21.152607490936212 4.9129993162572161 -0.7660444514056185 0 0.64278759981090561 0.96418139971635841 0 1.1490666771084277 1 I I #
point $-1 -72.532855632172925 -21.152607490936212 9.4012285977667993 #
loop $-1 $-1 $284 $276 #
plane-surface $-1 77.49626148258919 0 0 -1 0 0 0 0 1 forward_v I I I I #
coedge $-1 $399 $279 $281 $403 reversed $177 $-1 #
coedge $-1 $279 $398 $497 $498 reversed $177 $-1 #
coedge $-1 $287 $282 $279 $401 forward $277 $-1 #
edge $-1 $404 31.917755396741846 $499 44.483954834337602 $400 $500 forward 7 unknown #
coedge $-1 $281 $280 $407 $501 reversed $111 $-1 #
edge $-1 $502 -154.99252296517844 $404 -138.08303355031205 $398 $503 forward 7 unknown #
vertex $-1 $283 $504 #
straight-curve $-1 64.930062044993434 -2.231823049333677 13.018252152152535 0 -1 0 I I #
coedge $-1 $497 $284 $287 $411 reversed $396 $-1 #
coedge $-1 $284 $497 $402 $501 forward $396 $-1 #
vertex $-1 $285 $505 #
straight-curve $-1 77.49626148258919 4.1929039749752768 110.29786376847449 0 0 1 I I #
straight-curve $-1 -37.685628823586143 4.1929039749752768 105.41383723077367 0.74314481823134659 0 -0.66913061440640931 I I #
edge $-1 $499 -13.120196172309985 $288 4.1929039749752768 $406 $506 forward 7 unknown #
point $-1 77.49626148258919 4.1929039749752768 13.018252152152542 #
point $-1 64.930062044993434 4.1929039749752768 13.018252152152527 #
edge $-1 $507 1 $507 0 $291 $-1 forward 7 unknown #
vertex $-1 $292 $508 #
ellipse-curve $-1 68.578716506732846 -8.173596130228475 4.4350758230142544 0.66913061440640931 0 0.74314481823134659 1.1147172273470198 0 -1.003695921609614 1 I I #
point $-1 72.327878991138334 -8.173596130228475 6.3572277098088419 #
edge $-1 $509 1 $509 0 $295 $-1 forward 7 unknown #
vertex $-1 $296 $510 #
ellipse-curve $-1 68.578716506732846 -0.75369606710621895 4.4350758230142544 0.66913061440640931 0 0.74314481823134659 1.1147172273470198 0 -1.003695921609614 1 I I #
point $-1 72.327878991138334 -0.75369606710621895 6.3572277098088419 #
plane-surface $-1 0 0 13.018252152152542 0 0 1 1 0 0 forward_v I I I I #
coedge $-1 $433 $432 $425 $511 forward $300 $-1 #
coedge $-1 $425 $302 $304 $429 reversed $199 $-1 #
coedge $-1 $302 $424 $423 $511 reversed $199 $-1 #
coedge $-1 $310 $305 $302 $427 forward $311 $-1 #
edge $-1 $430 31.917755396741846 $512 44.483954834337602 $426 $513 forward 7 unknown #
coedge $-1 $304 $303 $433 $514 reversed $125 $-1 #
edge $-1 $515 -154.99252296517844 $430 -138.08303355031205 $424 $516 forward 7 unknown #
vertex $-1 $306 $517 #
straight-curve $-1 64.930062044993434 9.0224424575686157 13.018252152152535 0 -1 0 I I #
coedge $-1 $423 $307 $310 $437 reversed $300 $-1 #
coedge $-1 $307 $423 $428 $514 forward $300 $-1 #
vertex $-1 $308 $518 #
straight-curve $-1 77.49626148258919 26.701434988779862 110.29786376847449 0 0 1 I I #
straight-curve $-1 -37.685628823586143 26.701434988779862 105.41383723077367 0.74314481823134659 0 -0.66913061440640931 I I #
edge $-1 $512 9.3883348414946006 $312 26.701434988779862 $432 $519 forward 7 unknown #
point $-1 77.49626148258919 26.701434988779862 13.018252152152542 #
point $-1 64.930062044993434 26.701434988779862 13.018252152152527 #
edge $-1 $520 1 $520 0 $315 $-1 forward 7 unknown #
vertex $-1 $316 $521 #
ellipse-curve $-1 68.578716506732846 14.334934883576111 4.4350758230142544 0.66913061440640931 0 0.74314481823134659 1.1147172273470198 0 -1.003695921609614 1 I I #
point $-1 72.327878991138334 14.334934883576111 6.3572277098088419 #
edge $-1 $522 1 $522 0 $319 $-1 forward 7 unknown #
vertex $-1 $320 $523 #
ellipse-curve $-1 68.578716506732846 21.754834946698367 4.4350758230142544 0.66913061440640931 0 0.74314481823134659 1.1147172273470198 0 -1.003695921609614 1 I I #
point $-1 72.327878991138334 21.754834946698367 6.3572277098088419 #
plane-surface $-1 77.49626148258919 0 0 -1 0 0 0 0 1 forward_v I I I I #
coedge $-1 $452 $331 $334 $460 forward $324 $-1 #
coedge $-1 $331 $452 $326 $451 reversed $324 $-1 #
edge $-1 $457 -13.018252152152542 $464 13.018252152152542 $450 $524 forward 7 unknown #
coedge $-1 $450 $449 $327 $453 reversed $324 $-1 #
edge $-1 $464 -77.49626148258919 $454 77.49626148258919 $452 $525 forward 7 unknown #
vertex $-1 $329 $526 #
straight-curve $-1 77.49626148258919 0 -13.018252152152542 0 -1 0 I I #
edge $-1 $457 -45.031413247498847 $342 45.031413247498847 $340 $527 forward 7 unknown #
vertex $-1 $332 $528 #
straight-curve $-1 0 45.031413247498847 13.018252152152542 -1 0 0 I I #
straight-curve $-1 0 -45.031413247498847 13.018252152152542 1 0 0 I I #
edge $-1 $337 -13.018252152152542 $454 13.018252152152542 $334 $529 forward 7 unknown #
point $-1 77.49626148258919 -45.031413247498847 13.018252152152542 #
point $-1 77.49626148258919 45.031413247498847 13.018252152152542 #
point $-1 -77.49626148258919 -45.031413247498847 13.018252152152542 #
vertex $-1 $453 $530 #
straight-curve $-1 -77.49626148258919 0 -13.018252152152542 0 1 0 I I #
plane-surface $-1 0 0 13.018252152152542 0 0 1 1 0 0 forward_v I I I I #
coedge $-1 $355 $479 $468 $531 forward $348 $-1 #
coedge $-1 $351 $350 $467 $531 reversed $147 $-1 #
edge $-1 $475 -2.5286009040307249 $473 2.5286009040307249 $350 $532 forward 7 unknown #
coedge $-1 $363 $362 $351 $471 forward $364 $-1 #
edge $-1 $472 -2.5286009040307249 $533 2.5286009040307249 $351 $534 forward 7 unknown #
vertex $-1 $367 $535 #
vertex $-1 $357 $536 #
straight-curve $-1 -75.052400353155249 -58.612652063968724 0 0 0 -1 I I #
vertex $-1 $531 $537 #
straight-curve $-1 -69.9951985450938 -51.822032655733786 -13.018252152152542 0 -1 0 I I #
straight-curve $-1 -75.052400353155249 -51.822032655733786 -13.018252152152542 0 1 0 I I #
point $-1 -69.9951985450938 -45.031413247498847 -13.018252152152542 #
coedge $-1 $467 $360 $363 $481 reversed $348 $-1 #
straight-curve $-1 -69.9951985450938 -45.031413247498847 0 0 0 -1 I I #
edge $-1 $533 -6.7906194082349387 $365 6.7906194082349387 $479 $538 forward 7 unknown #
point $-1 -69.9951985450938 -45.031413247498847 13.018252152152542 #
straight-curve $-1 -75.052400353155249 -51.822032655733786 13.018252152152542 0 -1 0 I I #
edge $-1 $485 38.538419605141399 $488 48.070600068129721 $371 $539 forward 7 unknown #
vertex $-1 $385 $540 #
straight-curve $-1 -98.113711854710999 -17.033580714899109 13.018252152152542 -1 0 0 I I #
edge $-1 $488 4.9126419284170915 $382 19.329235644546944 $381 $541 forward 7 unknown #
vertex $-1 $487 $542 #
straight-curve $-1 -77.496261482589205 -17.033580714899109 3.4860716891642056 0.64278759981090561 0 0.7660444514056185 I I #
point $-1 -69.497812581189407 -17.033580714899109 13.018252152152542 #
point $-1 -77.49626148258919 -31.450174431028962 3.4860716891642225 #
straight-curve $-1 -77.49626148258919 0 13.018252152152542 0 -1 0 I I #
vertex $-1 $388 $543 #
point $-1 -68.5533964979346 -27.331147654991863 6.0620659933656444 #
vertex $-1 $392 $544 #
point $-1 -68.5533964979346 -21.152607490936212 6.0620659933656444 #
coedge $-1 $407 $406 $399 $498 forward $396 $-1 #
edge $-1 $499 97.279611616321944 $502 108.59426865779017 $497 $545 forward 7 unknown #
vertex $-1 $411 $546 #
straight-curve $-1 33.012306648251588 -13.120196172309985 13.018252152152542 1 0 0 I I #
edge $-1 $502 -10.888373122976308 $408 6.4247270243089538 $407 $547 forward 7 unknown #
vertex $-1 $501 $548 #
straight-curve $-1 -37.685628823586143 -13.120196172309985 105.41383723077367 -0.74314481823134659 0 0.66913061440640931 I I #
point $-1 64.930062044993434 -13.120196172309985 13.018252152152527 #
point $-1 77.496261482589205 4.1929039749752768 1.7035951106843186 #
straight-curve $-1 77.49626148258919 0 13.018252152152542 0 1 0 I I #
vertex $-1 $414 $549 #
point $-1 69.693433734079861 -8.173596130228475 3.4313799014046404 #
vertex $-1 $418 $550 #
point $-1 69.693433734079861 -0.75369606710621895 3.4313799014046404 #
edge $-1 $512 97.279611616321944 $515 108.59426865779017 $423 $551 forward 7 unknown #
vertex $-1 $437 $552 #
straight-curve $-1 33.012306648251588 9.3883348414946006 13.018252152152542 1 0 0 I I #
edge $-1 $515 0.36589238392598489 $434 17.678992531211247 $433 $553 forward 7 unknown #
vertex $-1 $514 $554 #
straight-curve $-1 -37.685628823586143 9.3883348414946006 105.41383723077367 -0.74314481823134659 0 0.66913061440640931 I I #
point $-1 64.930062044993434 9.3883348414946006 13.018252152152527 #
point $-1 77.496261482589205 26.701434988779862 1.7035951106843186 #
straight-curve $-1 77.49626148258919 0 13.018252152152542 0 1 0 I I #
vertex $-1 $440 $555 #
point $-1 69.693433734079861 14.334934883576111 3.4313799014046404 #
vertex $-1 $444 $556 #
point $-1 69.693433734079861 21.754834946698367 3.4313799014046404 #
straight-curve $-1 -77.49626148258919 45.031413247498847 0 0 0 -1 I I #
straight-curve $-1 0 45.031413247498847 -13.018252152152542 1 0 0 I I #
point $-1 77.49626148258919 45.031413247498847 -13.018252152152542 #
straight-curve $-1 -77.49626148258919 0 13.018252152152542 0 -1 0 I I #
point $-1 -77.49626148258919 45.031413247498847 13.018252152152542 #
straight-curve $-1 77.49626148258919 45.031413247498847 0 0 0 -1 I I #
point $-1 -77.49626148258919 45.031413247498847 -13.018252152152542 #
edge $-1 $533 -13.018252152152542 $475 13.018252152152542 $467 $557 forward 7 unknown #
straight-curve $-1 -72.523799449124525 -58.612652063968724 -13.018252152152542 -1 0 0 I I #
vertex $-1 $481 $558 #
straight-curve $-1 -72.523799449124525 -58.612652063968724 13.018252152152542 1 0 0 I I #
point $-1 -75.052400353155249 -58.612652063968724 13.018252152152542 #
point $-1 -75.052400353155249 -58.612652063968724 -13.018252152152542 #
point $-1 -69.9951985450938 -58.612652063968724 -13.018252152152542 #
straight-curve $-1 -69.9951985450938 -51.822032655733786 13.018252152152542 0 1 0 I I #
straight-curve $-1 -77.49626148258919 -17.033580714899109 51.556671757293941 0 0 -1 I I #
point $-1 -77.49626148258919 -17.033580714899109 13.018252152152542 #
straight-curve $-1 -77.49626148258919 -12.120938786482018 3.4860716891642278 0 -1 0 I I #
point $-1 -77.49626148258919 -17.033580714899109 3.4860716891642225 #
point $-1 -68.36851122054253 -27.331147654991863 3.9488179165408579 #
point $-1 -68.36851122054253 -21.152607490936212 3.9488179165408579 #
straight-curve $-1 77.49626148258919 -13.120196172309985 110.29786376847449 0 0 -1 I I #
point $-1 77.49626148258919 -13.120196172309985 13.018252152152542 #
straight-curve $-1 77.496261482589176 -2.231823049333677 1.7035951106843328 0 1 0 I I #
point $-1 77.496261482589205 -13.120196172309985 1.7035951106843186 #
point $-1 67.575020585123227 -8.173596130228475 3.3203585956672343 #
point $-1 67.575020585123227 -0.75369606710621895 3.3203585956672343 #
straight-curve $-1 77.49626148258919 9.3883348414946006 110.29786376847449 0 0 -1 I I #
point $-1 77.49626148258919 9.3883348414946006 13.018252152152542 #
straight-curve $-1 77.496261482589176 9.0224424575686157 1.7035951106843328 0 1 0 I I #
point $-1 77.496261482589205 9.3883348414946006 1.7035951106843186 #
point $-1 67.575020585123227 14.334934883576111 3.3203585956672343 #
point $-1 67.575020585123227 21.754834946698367 3.3203585956672343 #
straight-curve $-1 -69.9951985450938 -58.612652063968724 0 0 0 -1 I I #
point $-1 -69.9951985450938 -58.612652063968724 13.018252152152542 #
End-of-ACIS-data 