500 0 8 0           
7 Unknown 11 ACIS 5.0 NT 24 Fri Mar 26 14:53:30 1999 
-1 9.9999999999999995e-007 1e-010 
body $-1 $8 $-1 $9 #
body $-1 $10 $-1 $11 #
body $-1 $12 $-1 $13 #
body $-1 $14 $-1 $15 #
body $-1 $16 $-1 $17 #
body $-1 $18 $-1 $19 #
body $-1 $20 $-1 $21 #
body $-1 $22 $-1 $23 #
lump $-1 $-1 $24 $0 #
transform $-1 1 0 0 0 1 0 0 0 1 51.456648457289347 23.594962708541292 8.862998733650894 1 rotate no_reflect no_shear #
lump $-1 $-1 $25 $1 #
transform $-1 1 0 0 0 1 0 0 0 1 51.456648457289347 23.594962708541292 8.862998733650894 1 rotate no_reflect no_shear #
lump $-1 $-1 $26 $2 #
transform $-1 1 0 0 0 1 0 0 0 1 51.456648457289347 23.594962708541292 8.862998733650894 1 rotate no_reflect no_shear #
lump $-1 $-1 $27 $3 #
transform $-1 1 0 0 0 1 0 0 0 1 51.456648457289347 23.594962708541292 8.862998733650894 1 rotate no_reflect no_shear #
lump $-1 $-1 $28 $4 #
transform $-1 1 0 0 0 1 0 0 0 1 51.456648457289347 23.594962708541292 8.862998733650894 1 rotate no_reflect no_shear #
lump $-1 $-1 $29 $5 #
transform $-1 1 0 0 0 1 0 0 0 1 51.456648457289347 23.594962708541292 8.862998733650894 1 rotate no_reflect no_shear #
lump $-1 $-1 $30 $6 #
transform $-1 1 0 0 0 1 0 0 0 1 51.456648457289347 23.594962708541292 8.862998733650894 1 rotate no_reflect no_shear #
lump $-1 $-1 $31 $7 #
transform $-1 1 0 0 0 1 0 0 0 1 51.456648457289347 23.594962708541292 8.862998733650894 1 rotate no_reflect no_shear #
shell $-1 $-1 $-1 $32 $-1 $8 #
shell $-1 $-1 $-1 $33 $-1 $10 #
shell $-1 $-1 $-1 $34 $-1 $12 #
shell $-1 $-1 $-1 $35 $-1 $14 #
shell $-1 $-1 $-1 $36 $-1 $16 #
shell $-1 $-1 $-1 $37 $-1 $18 #
shell $-1 $-1 $-1 $38 $-1 $20 #
shell $-1 $-1 $-1 $39 $-1 $22 #
face $-1 $40 $41 $24 $-1 $42 forward single #
face $-1 $43 $44 $25 $-1 $45 forward single #
face $-1 $46 $47 $26 $-1 $48 reversed single #
face $-1 $49 $50 $27 $-1 $51 forward single #
face $-1 $52 $53 $28 $-1 $54 forward single #
face $-1 $55 $56 $29 $-1 $57 reversed single #
face $-1 $58 $59 $30 $-1 $60 forward single #
face $-1 $61 $62 $31 $-1 $63 forward single #
face $-1 $64 $65 $24 $-1 $66 reversed single #
loop $-1 $-1 $67 $32 #
plane-surface $-1 0 0 8.862998733650894 0 0 1 1 0 0 forward_v I I I I #
face $-1 $68 $69 $25 $-1 $70 reversed single #
loop $-1 $-1 $71 $33 #
plane-surface $-1 0 -18.073950408912765 -5.862998733650894 0 0 1 1 0 0 forward_v I I I I #
face $-1 $72 $73 $26 $-1 $74 reversed single #
loop $-1 $-1 $75 $34 #
plane-surface $-1 66.669867179486502 14.765987683524433 144.88973814153286 0 1 0 0.77714596973225614 0 0.62932038083071107 forward_v I I I I #
face $-1 $76 $77 $27 $-1 $78 forward single #
loop $-1 $79 $80 $35 #
cone-surface $-1 46.741587745424425 17.28855197638639 3.5443447670556818 -0.77714596973225614 0 -0.62932038083071107 0.62932038083071107 0 -0.77714596973225614 1 I I 0 1 1 forward I I I I #
face $-1 $81 $82 $28 $-1 $83 forward single #
loop $-1 $84 $85 $36 #
cone-surface $-1 46.741587745424425 21.072398415679327 3.5443447670556818 -0.77714596973225614 0 -0.62932038083071107 0.62932038083071107 0 -0.77714596973225614 1 I I 0 1 1 forward I I I I #
face $-1 $86 $87 $29 $-1 $88 reversed single #
loop $-1 $-1 $89 $37 #
plane-surface $-1 -105.99238775815991 -1.0772329258393807 88.712948546318685 0 1 0 -0.52991927123019833 0 0.84804809178421925 forward_v I I I I #
face $-1 $90 $91 $30 $-1 $92 forward single #
loop $-1 $93 $94 $38 #
cone-surface $-1 -45.250066708230484 0.74531607545396028 4.7262370602770556 0.52991927123019833 0 -0.84804809178421925 0.42402404589210962 0 0.26495963561509916 1 I I 0 1 0.5 forward I I I I #
face $-1 $95 $96 $31 $-1 $97 forward single #
loop $-1 $98 $99 $39 #
cone-surface $-1 -45.250066708230484 3.4791395773939691 4.7262370602770556 0.52991927123019833 0 -0.84804809178421925 0.42402404589210962 0 0.26495963561509916 1 I I 0 1 0.5 forward I I I I #
face $-1 $100 $101 $24 $-1 $102 reversed single #
loop $-1 $-1 $103 $40 #
plane-surface $-1 0 0 -8.862998733650894 0 0 1 1 0 0 forward_v I I I I #
coedge $-1 $104 $105 $106 $107 forward $41 $-1 #
face $-1 $108 $109 $25 $-1 $110 reversed single #
loop $-1 $-1 $111 $43 #
plane-surface $-1 0 -12.552938109284238 -7.362998733650894 0 -1 0 0 0 -1 forward_v I I I I #
coedge $-1 $112 $113 $114 $115 reversed $44 $-1 #
face $-1 $116 $117 $26 $-1 $118 forward single #
loop $-1 $-1 $119 $46 #
plane-surface $-1 -13.308786749537362 19.180475196032862 80.124302934706151 0.77714596973225614 0 0.62932038083071107 0.62932038083071107 0 -0.77714596973225614 forward_v I I I I #
coedge $-1 $120 $121 $122 $123 reversed $47 $-1 #
face $-1 $-1 $124 $27 $-1 $125 forward single #
loop $-1 $126 $127 $49 #
cone-surface $-1 45.167539264537538 17.28855197638639 2.2697054740294114 -0.77714596973225614 0 -0.62932038083071107 0.31466019041535553 0 -0.38857298486612807 1 I I -0.70710678118654746 0.70710678118654746 0.5 forward I I I I #
loop $-1 $-1 $128 $35 #
coedge $-1 $80 $80 $129 $130 reversed $50 $-1 #
face $-1 $-1 $131 $28 $-1 $132 forward single #
loop $-1 $133 $134 $52 #
cone-surface $-1 45.167539264537538 21.072398415679327 2.2697054740294114 -0.77714596973225614 0 -0.62932038083071107 0.31466019041535553 0 -0.38857298486612807 1 I I -0.70710678118654746 0.70710678118654746 0.5 forward I I I I #
loop $-1 $-1 $135 $36 #
coedge $-1 $85 $85 $136 $137 reversed $53 $-1 #
face $-1 $138 $139 $29 $-1 $140 reversed single #
loop $-1 $-1 $141 $55 #
plane-surface $-1 -51.456648457289347 2.1122278264239647 1.4375234786874387 -0.52991927123019833 0 0.84804809178421925 0.84804809178421925 0 0.52991927123019833 forward_v I I I I #
coedge $-1 $142 $143 $144 $145 reversed $56 $-1 #
face $-1 $-1 $146 $30 $-1 $147 forward single #
loop $-1 $148 $149 $58 #
cone-surface $-1 -44.852627254807835 0.74531607545396028 4.0902009914388913 0.52991927123019833 0 -0.84804809178421925 0.21201202294605481 0 0.13247981780754958 1 I I -0.70710678118654746 0.70710678118654746 0.25 forward I I I I #
loop $-1 $-1 $150 $38 #
coedge $-1 $94 $94 $151 $152 reversed $59 $-1 #
face $-1 $-1 $153 $31 $-1 $154 forward single #
loop $-1 $155 $156 $61 #
cone-surface $-1 -44.852627254807835 3.4791395773939691 4.0902009914388913 0.52991927123019833 0 -0.84804809178421925 0.21201202294605481 0 0.13247981780754958 1 I I -0.70710678118654746 0.70710678118654746 0.25 forward I I I I #
loop $-1 $-1 $157 $39 #
coedge $-1 $99 $99 $158 $159 reversed $62 $-1 #
face $-1 $160 $161 $24 $-1 $162 reversed single #
loop $-1 $-1 $163 $64 #
plane-surface $-1 0 -23.594962708541292 0 0 1 0 0 0 1 forward_v I I I I #
coedge $-1 $164 $165 $166 $167 forward $65 $-1 #
coedge $-1 $168 $67 $169 $170 forward $41 $-1 #
coedge $-1 $67 $168 $171 $172 forward $41 $-1 #
coedge $-1 $173 $174 $67 $107 reversed $175 $-1 #
edge $-1 $176 -23.594962708541292 $177 23.594962708541292 $106 $178 forward 7 unknown #
face $-1 $179 $180 $25 $-1 $181 reversed single #
loop $-1 $-1 $182 $68 #
plane-surface $-1 0 0 -8.862998733650894 0 0 1 1 0 0 forward_v I I I I #
coedge $-1 $183 $184 $185 $186 reversed $69 $-1 #
coedge $-1 $187 $71 $184 $188 forward $44 $-1 #
coedge $-1 $71 $187 $189 $190 reversed $44 $-1 #
coedge $-1 $191 $185 $71 $115 forward $180 $-1 #
edge $-1 $192 3.5159629048278553 $193 14.55798750408491 $114 $194 forward 7 unknown #
face $-1 $195 $196 $26 $-1 $197 reversed single #
loop $-1 $-1 $198 $72 #
plane-surface $-1 0 0 8.862998733650894 0 0 1 1 0 0 forward_v I I I I #
coedge $-1 $199 $200 $201 $202 reversed $73 $-1 #
coedge $-1 $121 $75 $203 $204 reversed $47 $-1 #
coedge $-1 $75 $120 $199 $205 reversed $47 $-1 #
coedge $-1 $201 $206 $75 $123 forward $207 $-1 #
edge $-1 $208 63.581870337115532 $209 72.299220065084143 $122 $210 forward 7 unknown #
loop $-1 $-1 $129 $76 #
plane-surface $-1 -13.308786749537362 19.180475196032862 80.124302934706151 0.77714596973225614 0 0.62932038083071107 0.62932038083071107 0 -0.77714596973225614 forward_v I I I I #
loop $-1 $-1 $211 $49 #
coedge $-1 $127 $127 $128 $212 reversed $77 $-1 #
coedge $-1 $128 $128 $127 $212 forward $79 $-1 #
coedge $-1 $129 $129 $80 $130 forward $124 $-1 #
edge $-1 $213 0 $213 6.2831853071796004 $129 $214 forward 7 unknown #
loop $-1 $-1 $136 $81 #
plane-surface $-1 -13.308786749537362 19.180475196032862 80.124302934706151 0.77714596973225614 0 0.62932038083071107 0.62932038083071107 0 -0.77714596973225614 forward_v I I I I #
loop $-1 $-1 $215 $52 #
coedge $-1 $134 $134 $135 $216 reversed $82 $-1 #
coedge $-1 $135 $135 $134 $216 forward $84 $-1 #
coedge $-1 $136 $136 $85 $137 forward $131 $-1 #
edge $-1 $217 0 $217 6.2831853071796004 $136 $218 forward 7 unknown #
face $-1 $219 $220 $29 $-1 $221 reversed single #
loop $-1 $-1 $222 $86 #
plane-surface $-1 -105.99238775815991 5.30168857868731 88.712948546318685 0 -1 0 0.52991927123019833 0 -0.84804809178421925 forward_v I I I I #
coedge $-1 $223 $224 $225 $226 reversed $87 $-1 #
coedge $-1 $143 $89 $227 $228 reversed $56 $-1 #
coedge $-1 $89 $142 $223 $229 reversed $56 $-1 #
coedge $-1 $225 $230 $89 $145 forward $231 $-1 #
edge $-1 $232 1.5395454217906064 $233 13.422789648678126 $144 $234 forward 7 unknown #
loop $-1 $-1 $151 $90 #
plane-surface $-1 -51.456648457289347 2.1122278264239647 1.4375234786874387 -0.52991927123019833 0 0.84804809178421925 0.84804809178421925 0 0.52991927123019833 forward_v I I I I #
loop $-1 $-1 $235 $58 #
coedge $-1 $149 $149 $150 $236 reversed $91 $-1 #
coedge $-1 $150 $150 $149 $236 forward $93 $-1 #
coedge $-1 $151 $151 $94 $152 forward $146 $-1 #
edge $-1 $237 0 $237 6.2831853071796004 $151 $238 forward 7 unknown #
loop $-1 $-1 $158 $95 #
plane-surface $-1 -51.456648457289347 2.1122278264239647 1.4375234786874387 -0.52991927123019833 0 0.84804809178421925 0.84804809178421925 0 0.52991927123019833 forward_v I I I I #
loop $-1 $-1 $239 $61 #
coedge $-1 $156 $156 $157 $240 reversed $96 $-1 #
coedge $-1 $157 $157 $156 $240 forward $98 $-1 #
coedge $-1 $158 $158 $99 $159 forward $153 $-1 #
edge $-1 $241 0 $241 6.2831853071796004 $158 $242 forward 7 unknown #
face $-1 $243 $244 $24 $-1 $245 reversed single #
loop $-1 $-1 $246 $100 #
plane-surface $-1 -51.456648457289347 0 0 1 0 0 0 0 -1 forward_v I I I I #
coedge $-1 $247 $171 $248 $249 forward $101 $-1 #
coedge $-1 $250 $103 $247 $251 forward $65 $-1 #
coedge $-1 $103 $250 $252 $253 forward $65 $-1 #
coedge $-1 $174 $173 $103 $167 reversed $175 $-1 #
edge $-1 $254 -23.594962708541292 $255 23.594962708541292 $166 $256 forward 7 unknown #
coedge $-1 $105 $104 $257 $258 forward $41 $-1 #
coedge $-1 $259 $260 $104 $170 reversed $244 $-1 #
edge $-1 $177 -51.456648457289347 $261 51.456648457289347 $169 $262 forward 7 unknown #
coedge $-1 $163 $263 $105 $172 reversed $101 $-1 #
edge $-1 $264 -51.456648457289347 $176 51.456648457289347 $171 $265 forward 7 unknown #
coedge $-1 $166 $106 $263 $266 forward $175 $-1 #
coedge $-1 $106 $166 $259 $267 reversed $175 $-1 #
loop $-1 $-1 $173 $243 #
vertex $-1 $107 $268 #
vertex $-1 $107 $269 #
straight-curve $-1 51.456648457289347 0 8.862998733650894 0 1 0 I I #
face $-1 $270 $271 $25 $-1 $272 reversed single #
loop $-1 $-1 $185 $108 #
plane-surface $-1 51.456648457289347 0 0 -1 0 0 0 0 1 forward_v I I I I #
coedge $-1 $273 $274 $183 $275 forward $109 $-1 #
coedge $-1 $276 $111 $182 $275 reversed $69 $-1 #
coedge $-1 $111 $276 $112 $188 reversed $69 $-1 #
coedge $-1 $114 $277 $111 $186 forward $180 $-1 #
edge $-1 $278 -5.181499366825447 $192 -2.181499366825447 $185 $279 forward 7 unknown #
coedge $-1 $113 $112 $280 $281 reversed $44 $-1 #
edge $-1 $192 -51.456648457289347 $282 51.456648457289347 $184 $283 forward 7 unknown #
coedge $-1 $284 $285 $113 $190 forward $271 $-1 #
edge $-1 $193 -51.456648457289347 $286 51.456648457289347 $189 $287 forward 7 unknown #
coedge $-1 $277 $114 $285 $288 forward $180 $-1 #
vertex $-1 $115 $289 #
vertex $-1 $288 $290 #
straight-curve $-1 51.456648457289347 -9.0369752044563825 -5.862998733650894 0 -1 0 I I #
face $-1 $-1 $207 $26 $-1 $291 reversed single #
loop $-1 $-1 $292 $116 #
plane-surface $-1 0 23.594962708541292 0 0 -1 0 0 0 -1 forward_v I I I I #
coedge $-1 $203 $293 $294 $295 forward $117 $-1 #
coedge $-1 $294 $119 $121 $205 forward $73 $-1 #
coedge $-1 $119 $294 $292 $296 reversed $73 $-1 #
coedge $-1 $297 $122 $119 $202 forward $207 $-1 #
edge $-1 $209 5.1757500855080014 $298 14.004725110524861 $201 $299 forward 7 unknown #
coedge $-1 $300 $198 $120 $204 forward $117 $-1 #
edge $-1 $301 11.06254443585776 $208 18.121714867546096 $203 $302 forward 7 unknown #
edge $-1 $209 -102.91329691457869 $301 -91.69616388232231 $121 $303 forward 7 unknown #
coedge $-1 $122 $297 $300 $304 reversed $207 $-1 #
loop $-1 $-1 $201 $195 #
vertex $-1 $304 $305 #
vertex $-1 $123 $306 #
straight-curve $-1 51.456648457289347 14.765987683524433 72.44486907076643 0 0 -1 I I #
coedge $-1 $211 $211 $-1 $307 reversed $126 $-1 #
edge $-1 $308 0 $308 6.2831853071796004 $127 $309 forward 7 unknown #
vertex $-1 $130 $310 #
ellipse-curve $-1 47.927063241445175 17.28855197638639 4.5043238696665915 0.77714596973225614 0 0.62932038083071107 0.62932038083071107 0 -0.77714596973225614 1 I I #
coedge $-1 $215 $215 $-1 $311 reversed $133 $-1 #
edge $-1 $312 0 $312 6.2831853071796004 $134 $313 forward 7 unknown #
vertex $-1 $137 $314 #
ellipse-curve $-1 47.927063241445175 21.072398415679327 4.5043238696665915 0.77714596973225614 0 0.62932038083071107 0.62932038083071107 0 -0.77714596973225614 1 I I #
face $-1 $-1 $231 $29 $-1 $315 forward single #
loop $-1 $-1 $316 $138 #
plane-surface $-1 -51.456648457289347 0 0 1 0 0 0 0 -1 forward_v I I I I #
coedge $-1 $317 $318 $319 $320 reversed $139 $-1 #
coedge $-1 $321 $141 $143 $229 forward $87 $-1 #
coedge $-1 $141 $321 $317 $322 forward $87 $-1 #
coedge $-1 $319 $144 $141 $226 forward $231 $-1 #
edge $-1 $233 -2.133346839051363 $323 4.2455746654753277 $225 $324 forward 7 unknown #
coedge $-1 $325 $326 $142 $228 forward $220 $-1 #
edge $-1 $327 -42.918950794471904 $232 -35.493475539508452 $227 $328 forward 7 unknown #
edge $-1 $233 -14.012465026465906 $327 0 $143 $329 forward 7 unknown #
coedge $-1 $144 $319 $325 $330 forward $231 $-1 #
loop $-1 $-1 $319 $219 #
vertex $-1 $228 $331 #
vertex $-1 $145 $332 #
straight-curve $-1 -52.996193879079954 -1.0772329258393807 8.8629987336508904 1 0 0 I I #
coedge $-1 $235 $235 $-1 $333 reversed $148 $-1 #
edge $-1 $334 0 $334 6.2831853071796004 $149 $335 forward 7 unknown #
vertex $-1 $152 $336 #
ellipse-curve $-1 -45.515026343845584 0.74531607545396028 5.1502611061691672 -0.52991927123019833 0 0.84804809178421925 0.42402404589210962 0 0.26495963561509916 1 I I #
coedge $-1 $239 $239 $-1 $337 reversed $155 $-1 #
edge $-1 $338 0 $338 6.2831853071796004 $156 $339 forward 7 unknown #
vertex $-1 $159 $340 #
ellipse-curve $-1 -45.515026343845584 3.4791395773939691 5.1502611061691672 -0.52991927123019833 0 0.84804809178421925 0.42402404589210962 0 0.26495963561509916 1 I I #
face $-1 $-1 $175 $24 $-1 $341 reversed single #
loop $-1 $-1 $259 $160 #
plane-surface $-1 0 23.594962708541292 0 0 -1 0 0 0 -1 forward_v I I I I #
coedge $-1 $342 $257 $260 $343 forward $161 $-1 #
coedge $-1 $263 $163 $164 $251 reversed $101 $-1 #
coedge $-1 $257 $342 $163 $249 reversed $161 $-1 #
edge $-1 $264 -8.862998733650894 $344 8.862998733650894 $248 $345 forward 7 unknown #
coedge $-1 $165 $164 $342 $346 forward $65 $-1 #
edge $-1 $255 -51.456648457289347 $344 51.456648457289347 $247 $347 forward 7 unknown #
coedge $-1 $260 $259 $165 $253 reversed $244 $-1 #
edge $-1 $348 -51.456648457289347 $254 51.456648457289347 $252 $349 forward 7 unknown #
vertex $-1 $167 $350 #
vertex $-1 $266 $351 #
straight-curve $-1 51.456648457289347 0 -8.862998733650894 0 -1 0 I I #
coedge $-1 $246 $248 $168 $258 reversed $161 $-1 #
edge $-1 $261 -23.594962708541292 $264 23.594962708541292 $257 $352 forward 7 unknown #
coedge $-1 $252 $169 $174 $267 forward $244 $-1 #
coedge $-1 $169 $252 $246 $343 reversed $244 $-1 #
vertex $-1 $170 $353 #
straight-curve $-1 0 23.594962708541292 8.862998733650894 -1 0 0 I I #
coedge $-1 $171 $247 $173 $266 reversed $101 $-1 #
vertex $-1 $258 $354 #
straight-curve $-1 0 -23.594962708541292 8.862998733650894 1 0 0 I I #
edge $-1 $176 -8.862998733650894 $255 8.862998733650894 $173 $355 forward 7 unknown #
edge $-1 $177 -8.862998733650894 $254 8.862998733650894 $174 $356 forward 7 unknown #
point $-1 51.456648457289347 -23.594962708541292 8.862998733650894 #
point $-1 51.456648457289347 23.594962708541292 8.862998733650894 #
face $-1 $-1 $357 $25 $-1 $358 reversed single #
loop $-1 $-1 $189 $179 #
plane-surface $-1 0 -23.594962708541292 0 0 1 0 0 0 1 forward_v I I I I #
coedge $-1 $359 $182 $277 $360 forward $109 $-1 #
coedge $-1 $182 $359 $361 $362 forward $109 $-1 #
edge $-1 $363 -51.456648457289347 $278 51.456648457289347 $182 $364 forward 7 unknown #
coedge $-1 $184 $183 $365 $366 reversed $69 $-1 #
coedge $-1 $185 $191 $273 $360 reversed $180 $-1 #
vertex $-1 $360 $367 #
straight-curve $-1 51.456648457289347 -12.552938109284238 -3.681499366825447 0 0 1 I I #
coedge $-1 $365 $368 $187 $281 forward $357 $-1 #
edge $-1 $286 -14.55798750408491 $282 -3.5159629048278553 $280 $369 forward 7 unknown #
vertex $-1 $281 $370 #
straight-curve $-1 0 -12.552938109284238 -5.862998733650894 -1 0 0 I I #
coedge $-1 $371 $189 $368 $372 forward $271 $-1 #
coedge $-1 $189 $371 $191 $288 reversed $271 $-1 #
vertex $-1 $372 $373 #
straight-curve $-1 0 -23.594962708541292 -5.862998733650894 -1 0 0 I I #
edge $-1 $193 5.862998733650894 $374 8.862998733650894 $191 $375 forward 7 unknown #
point $-1 51.456648457289347 -12.552938109284238 -5.862998733650894 #
point $-1 51.456648457289347 -23.594962708541292 -5.862998733650894 #
plane-surface $-1 51.456648457289347 0 0 -1 0 0 0 0 1 forward_v I I I I #
coedge $-1 $376 $377 $200 $296 forward $196 $-1 #
coedge $-1 $198 $300 $376 $378 forward $117 $-1 #
coedge $-1 $200 $199 $198 $295 reversed $73 $-1 #
edge $-1 $379 -14.004725110524861 $301 -5.1757500855080014 $198 $380 forward 7 unknown #
edge $-1 $298 -67.59141199011529 $379 -56.374278957858891 $292 $381 forward 7 unknown #
coedge $-1 $206 $201 $377 $382 reversed $207 $-1 #
vertex $-1 $202 $383 #
straight-curve $-1 51.456648457289347 9.5902375980164312 0.14564900568228722 0 1 0 I I #
coedge $-1 $293 $203 $206 $304 forward $117 $-1 #
vertex $-1 $204 $384 #
straight-curve $-1 33.334933589743251 14.765987683524433 8.8629987336508975 1 0 0 I I #
straight-curve $-1 -13.308786749537362 14.765987683524433 80.124302934706151 -0.62932038083071107 0 0.77714596973225614 I I #
edge $-1 $208 14.765987683524433 $385 23.594962708541292 $206 $386 forward 7 unknown #
point $-1 51.456648457289347 14.765987683524433 8.862998733650894 #
point $-1 51.456648457289347 14.765987683524433 0.14564900568228722 #
edge $-1 $387 1 $387 0 $211 $-1 forward 7 unknown #
vertex $-1 $212 $388 #
ellipse-curve $-1 45.556112249403668 17.28855197638639 2.5843656644447668 0.77714596973225614 0 0.62932038083071107 0.62932038083071107 0 -0.77714596973225614 1 I I #
point $-1 48.556383622275895 17.28855197638639 3.7271778999343406 #
edge $-1 $389 1 $389 0 $215 $-1 forward 7 unknown #
vertex $-1 $216 $390 #
ellipse-curve $-1 45.556112249403668 21.072398415679327 2.5843656644447668 0.77714596973225614 0 0.62932038083071107 0.62932038083071107 0 -0.77714596973225614 1 I I #
point $-1 48.556383622275895 21.072398415679327 3.7271778999343406 #
plane-surface $-1 0 0 8.862998733650894 0 0 1 1 0 0 forward_v I I I I #
coedge $-1 $326 $325 $318 $391 forward $220 $-1 #
coedge $-1 $318 $222 $224 $322 reversed $139 $-1 #
coedge $-1 $222 $317 $316 $391 reversed $139 $-1 #
coedge $-1 $230 $225 $222 $320 forward $231 $-1 #
edge $-1 $323 -13.422789648678126 $392 -1.5395454217906064 $319 $393 forward 7 unknown #
coedge $-1 $224 $223 $326 $394 reversed $87 $-1 #
edge $-1 $395 0 $323 14.012465026465906 $317 $396 forward 7 unknown #
vertex $-1 $226 $397 #
straight-curve $-1 -39.57340423040182 1.0561139132119823 8.862998733650894 0 1 0 I I #
coedge $-1 $316 $227 $230 $330 reversed $220 $-1 #
coedge $-1 $227 $316 $321 $394 forward $220 $-1 #
vertex $-1 $228 $398 #
straight-curve $-1 -51.456648457289347 -1.0772329258393807 44.356474273159343 0 0 1 I I #
straight-curve $-1 -51.456648457289347 -1.0772329258393807 1.4375234786874387 -0.84804809178421925 0 -0.52991927123019833 I I #
edge $-1 $392 -5.30168857868731 $232 1.0772329258393807 $325 $399 forward 7 unknown #
point $-1 -51.456648457289347 -1.0772329258393807 8.862998733650894 #
point $-1 -39.573404230401827 -1.0772329258393807 8.862998733650894 #
edge $-1 $400 1 $400 0 $235 $-1 forward 7 unknown #
vertex $-1 $236 $401 #
ellipse-curve $-1 -44.985107072615385 0.74531607545396028 4.3022130143849457 -0.52991927123019833 0 0.84804809178421925 0.42402404589210962 0 0.26495963561509916 1 I I #
point $-1 -45.091002297953473 0.74531607545396028 5.4152207417842648 #
edge $-1 $402 1 $402 0 $239 $-1 forward 7 unknown #
vertex $-1 $240 $403 #
ellipse-curve $-1 -44.985107072615385 3.4791395773939691 4.3022130143849457 -0.52991927123019833 0 0.84804809178421925 0.42402404589210962 0 0.26495963561509916 1 I I #
point $-1 -45.091002297953473 3.4791395773939691 5.4152207417842648 #
plane-surface $-1 51.456648457289347 0 0 -1 0 0 0 0 1 forward_v I I I I #
coedge $-1 $248 $246 $250 $346 reversed $161 $-1 #
edge $-1 $261 -8.862998733650894 $348 8.862998733650894 $260 $404 forward 7 unknown #
vertex $-1 $346 $405 #
straight-curve $-1 -51.456648457289347 -23.594962708541292 0 0 0 -1 I I #
edge $-1 $344 -23.594962708541292 $348 23.594962708541292 $342 $406 forward 7 unknown #
straight-curve $-1 0 -23.594962708541292 -8.862998733650894 -1 0 0 I I #
vertex $-1 $253 $407 #
straight-curve $-1 0 23.594962708541292 -8.862998733650894 1 0 0 I I #
point $-1 51.456648457289347 23.594962708541292 -8.862998733650894 #
point $-1 51.456648457289347 -23.594962708541292 -8.862998733650894 #
straight-curve $-1 -51.456648457289347 0 8.862998733650894 0 -1 0 I I #
point $-1 -51.456648457289347 23.594962708541292 8.862998733650894 #
point $-1 -51.456648457289347 -23.594962708541292 8.862998733650894 #
straight-curve $-1 51.456648457289347 -23.594962708541292 0 0 0 -1 I I #
straight-curve $-1 51.456648457289347 23.594962708541292 0 0 0 -1 I I #
loop $-1 $-1 $365 $270 #
plane-surface $-1 -51.456648457289347 0 0 1 0 0 0 0 -1 forward_v I I I I #
coedge $-1 $274 $273 $371 $408 forward $109 $-1 #
edge $-1 $278 12.552938109284238 $374 23.594962708541292 $277 $409 forward 7 unknown #
coedge $-1 $368 $365 $274 $362 reversed $357 $-1 #
edge $-1 $410 -23.594962708541292 $363 -12.552938109284238 $361 $411 forward 7 unknown #
vertex $-1 $366 $412 #
straight-curve $-1 0 -12.552938109284238 -8.862998733650894 1 0 0 I I #
coedge $-1 $361 $280 $276 $366 forward $357 $-1 #
edge $-1 $282 2.181499366825447 $363 5.181499366825447 $365 $413 forward 7 unknown #
point $-1 51.456648457289347 -12.552938109284238 -8.862998733650894 #
coedge $-1 $280 $361 $284 $372 reversed $357 $-1 #
straight-curve $-1 -51.456648457289347 -9.0369752044563825 -5.862998733650894 0 1 0 I I #
point $-1 -51.456648457289347 -12.552938109284238 -5.862998733650894 #
coedge $-1 $285 $284 $359 $408 reversed $271 $-1 #
edge $-1 $286 5.862998733650894 $410 8.862998733650894 $368 $414 forward 7 unknown #
point $-1 -51.456648457289347 -23.594962708541292 -5.862998733650894 #
vertex $-1 $288 $415 #
straight-curve $-1 51.456648457289347 -23.594962708541292 0 0 0 -1 I I #
coedge $-1 $377 $292 $293 $378 reversed $196 $-1 #
coedge $-1 $292 $376 $297 $382 forward $196 $-1 #
edge $-1 $385 -51.456648457289347 $379 -44.397478025601011 $376 $416 forward 7 unknown #
vertex $-1 $295 $417 #
straight-curve $-1 44.397478025601004 9.5902375980164312 8.8629987336508975 0 -1 0 I I #
straight-curve $-1 8.9199953227845103 23.594962708541292 52.674042422312866 -0.62932038083071107 0 0.77714596973225614 I I #
edge $-1 $385 -8.862998733650894 $298 -0.14564900568228026 $297 $418 forward 7 unknown #
point $-1 51.456648457289347 23.594962708541292 0.14564900568228026 #
point $-1 44.397478025601011 14.765987683524433 8.8629987336508975 #
vertex $-1 $304 $419 #
straight-curve $-1 51.456648457289347 0 8.862998733650894 0 1 0 I I #
vertex $-1 $307 $420 #
point $-1 46.185432630234381 17.28855197638639 1.8072196947125108 #
vertex $-1 $311 $421 #
point $-1 46.185432630234381 21.072398415679327 1.8072196947125108 #
edge $-1 $392 35.493475539508452 $395 42.918950794471904 $316 $422 forward 7 unknown #
vertex $-1 $330 $423 #
straight-curve $-1 -52.996193879079954 5.30168857868731 8.8629987336508904 -1 0 0 I I #
edge $-1 $395 -4.2455746654753277 $327 2.133346839051363 $326 $424 forward 7 unknown #
vertex $-1 $394 $425 #
straight-curve $-1 -51.456648457289347 5.30168857868731 1.4375234786874387 0.84804809178421925 0 0.52991927123019833 I I #
point $-1 -39.573404230401827 5.30168857868731 8.862998733650894 #
point $-1 -51.456648457289347 -1.0772329258393807 1.4375234786874387 #
straight-curve $-1 -51.456648457289347 0 8.862998733650894 0 -1 0 I I #
vertex $-1 $333 $426 #
point $-1 -44.561083026723274 0.74531607545396028 4.5671726500000451 #
vertex $-1 $337 $427 #
point $-1 -44.561083026723274 3.4791395773939691 4.5671726500000451 #
straight-curve $-1 -51.456648457289347 23.594962708541292 0 0 0 -1 I I #
point $-1 -51.456648457289347 -23.594962708541292 -8.862998733650894 #
straight-curve $-1 -51.456648457289347 0 -8.862998733650894 0 1 0 I I #
point $-1 -51.456648457289347 23.594962708541292 -8.862998733650894 #
edge $-1 $374 -51.456648457289347 $410 51.456648457289347 $371 $428 forward 7 unknown #
straight-curve $-1 51.456648457289347 0 -8.862998733650894 0 -1 0 I I #
vertex $-1 $362 $429 #
straight-curve $-1 -51.456648457289347 0 -8.862998733650894 0 1 0 I I #
point $-1 -51.456648457289347 -12.552938109284238 -8.862998733650894 #
straight-curve $-1 -51.456648457289347 -12.552938109284238 -3.681499366825447 0 0 -1 I I #
straight-curve $-1 -51.456648457289347 -23.594962708541292 0 0 0 -1 I I #
point $-1 51.456648457289347 -23.594962708541292 -8.862998733650894 #
straight-curve $-1 0 23.594962708541292 8.862998733650894 -1 0 0 I I #
point $-1 44.397478025601011 23.594962708541292 8.8629987336508975 #
straight-curve $-1 51.456648457289347 23.594962708541292 0 0 0 -1 I I #
point $-1 51.456648457289347 23.594962708541292 8.862998733650894 #
point $-1 44.778966279671408 17.28855197638639 1.9550452836140559 #
point $-1 44.778966279671408 21.072398415679327 1.9550452836140559 #
straight-curve $-1 -51.456648457289347 5.30168857868731 44.356474273159343 0 0 -1 I I #
point $-1 -51.456648457289347 5.30168857868731 8.862998733650894 #
straight-curve $-1 -51.456648457289347 1.0561139132119823 1.437523478687438 0 -1 0 I I #
point $-1 -51.456648457289347 5.30168857868731 1.4375234786874387 #
point $-1 -44.720147437000286 0.74531607545396028 3.8781889684928363 #
point $-1 -44.720147437000286 3.4791395773939691 3.8781889684928363 #
straight-curve $-1 0 -23.594962708541292 -8.862998733650894 -1 0 0 I I #
point $-1 -51.456648457289347 -23.594962708541292 -8.862998733650894 #
End-of-ACIS-data 