500 0 17 0           
7 Unknown 11 ACIS 5.0 NT 24 Fri Mar 26 18:51:57 1999 
-1 9.9999999999999995e-007 1e-010 
body $-1 $17 $-1 $18 #
body $-1 $19 $-1 $20 #
body $-1 $21 $-1 $22 #
body $-1 $23 $-1 $24 #
body $-1 $25 $-1 $26 #
body $-1 $27 $-1 $28 #
body $-1 $29 $-1 $30 #
body $-1 $31 $-1 $32 #
body $-1 $33 $-1 $34 #
body $-1 $35 $-1 $36 #
body $-1 $37 $-1 $38 #
body $-1 $39 $-1 $40 #
body $-1 $41 $-1 $42 #
body $-1 $43 $-1 $44 #
body $-1 $45 $-1 $46 #
body $-1 $47 $-1 $48 #
body $-1 $49 $-1 $50 #
lump $-1 $-1 $51 $0 #
transform $-1 1 0 0 0 1 0 0 0 1 70.560014648884547 47.415201469537152 19.219746923384484 1 rotate no_reflect no_shear #
lump $-1 $-1 $52 $1 #
transform $-1 1 0 0 0 1 0 0 0 1 70.560014648884547 47.415201469537152 19.219746923384484 1 rotate no_reflect no_shear #
lump $-1 $-1 $53 $2 #
transform $-1 1 0 0 0 1 0 0 0 1 70.560014648884547 47.415201469537152 19.219746923384484 1 rotate no_reflect no_shear #
lump $-1 $-1 $54 $3 #
transform $-1 1 0 0 0 1 0 0 0 1 70.560014648884547 47.415201469537152 19.219746923384484 1 rotate no_reflect no_shear #
lump $-1 $-1 $55 $4 #
transform $-1 1 0 0 0 1 0 0 0 1 70.560014648884547 47.415201469537152 19.219746923384484 1 rotate no_reflect no_shear #
lump $-1 $-1 $56 $5 #
transform $-1 1 0 0 0 1 0 0 0 1 70.560014648884547 47.415201469537152 19.219746923384484 1 rotate no_reflect no_shear #
lump $-1 $-1 $57 $6 #
transform $-1 1 0 0 0 1 0 0 0 1 70.560014648884547 47.415201469537152 19.219746923384484 1 rotate no_reflect no_shear #
lump $-1 $-1 $58 $7 #
transform $-1 1 0 0 0 1 0 0 0 1 70.560014648884547 47.415201469537152 19.219746923384484 1 rotate no_reflect no_shear #
lump $-1 $-1 $59 $8 #
transform $-1 1 0 0 0 1 0 0 0 1 70.560014648884547 47.415201469537152 19.219746923384484 1 rotate no_reflect no_shear #
lump $-1 $-1 $60 $9 #
transform $-1 1 0 0 0 1 0 0 0 1 70.560014648884547 47.415201469537152 19.219746923384484 1 rotate no_reflect no_shear #
lump $-1 $-1 $61 $10 #
transform $-1 1 0 0 0 1 0 0 0 1 70.560014648884547 47.415201469537152 19.219746923384484 1 rotate no_reflect no_shear #
lump $-1 $-1 $62 $11 #
transform $-1 1 0 0 0 1 0 0 0 1 70.560014648884547 47.415201469537152 19.219746923384484 1 rotate no_reflect no_shear #
lump $-1 $-1 $63 $12 #
transform $-1 1 0 0 0 1 0 0 0 1 70.560014648884547 47.415201469537152 19.219746923384484 1 rotate no_reflect no_shear #
lump $-1 $-1 $64 $13 #
transform $-1 1 0 0 0 1 0 0 0 1 70.560014648884547 47.415201469537152 19.219746923384484 1 rotate no_reflect no_shear #
lump $-1 $-1 $65 $14 #
transform $-1 1 0 0 0 1 0 0 0 1 70.560014648884547 47.415201469537152 19.219746923384484 1 rotate no_reflect no_shear #
lump $-1 $-1 $66 $15 #
transform $-1 1 0 0 0 1 0 0 0 1 70.560014648884547 47.415201469537152 19.219746923384484 1 rotate no_reflect no_shear #
lump $-1 $-1 $67 $16 #
transform $-1 1 0 0 0 1 0 0 0 1 70.560014648884547 47.415201469537152 19.219746923384484 1 rotate no_reflect no_shear #
shell $-1 $-1 $-1 $68 $-1 $17 #
shell $-1 $-1 $-1 $69 $-1 $19 #
shell $-1 $-1 $-1 $70 $-1 $21 #
shell $-1 $-1 $-1 $71 $-1 $23 #
shell $-1 $-1 $-1 $72 $-1 $25 #
shell $-1 $-1 $-1 $73 $-1 $27 #
shell $-1 $-1 $-1 $74 $-1 $29 #
shell $-1 $-1 $-1 $75 $-1 $31 #
shell $-1 $-1 $-1 $76 $-1 $33 #
shell $-1 $-1 $-1 $77 $-1 $35 #
shell $-1 $-1 $-1 $78 $-1 $37 #
shell $-1 $-1 $-1 $79 $-1 $39 #
shell $-1 $-1 $-1 $80 $-1 $41 #
shell $-1 $-1 $-1 $81 $-1 $43 #
shell $-1 $-1 $-1 $82 $-1 $45 #
shell $-1 $-1 $-1 $83 $-1 $47 #
shell $-1 $-1 $-1 $84 $-1 $49 #
face $-1 $85 $86 $51 $-1 $87 forward single #
face $-1 $88 $89 $52 $-1 $90 forward single #
face $-1 $91 $92 $53 $-1 $93 reversed single #
face $-1 $94 $95 $54 $-1 $96 forward single #
face $-1 $97 $98 $55 $-1 $99 forward single #
face $-1 $100 $101 $56 $-1 $102 reversed single #
face $-1 $103 $104 $57 $-1 $105 forward single #
face $-1 $106 $107 $58 $-1 $108 forward single #
face $-1 $109 $110 $59 $-1 $111 reversed single #
face $-1 $112 $113 $60 $-1 $114 forward single #
face $-1 $115 $116 $61 $-1 $117 forward single #
face $-1 $118 $119 $62 $-1 $120 reversed single #
face $-1 $121 $122 $63 $-1 $123 forward single #
face $-1 $124 $125 $64 $-1 $126 forward single #
face $-1 $127 $128 $65 $-1 $129 reversed single #
face $-1 $130 $131 $66 $-1 $132 forward single #
face $-1 $133 $134 $67 $-1 $135 forward single #
face $-1 $136 $137 $51 $-1 $138 reversed single #
loop $-1 $-1 $139 $68 #
plane-surface $-1 0 0 19.219746923384484 0 0 1 1 0 0 forward_v I I I I #
face $-1 $140 $141 $52 $-1 $142 reversed single #
loop $-1 $-1 $143 $69 #
plane-surface $-1 0 -47.415201469537152 0 0 1 0 0 0 1 forward_v I I I I #
face $-1 $144 $145 $53 $-1 $146 reversed single #
loop $-1 $-1 $147 $70 #
plane-surface $-1 70.560016964450583 -12.874609800356268 208.21858301852984 0 -1 0 -0.70710678939079041 0 -0.70710677298230451 forward_v I I I I #
face $-1 $148 $149 $54 $-1 $150 forward single #
loop $-1 $151 $152 $71 #
cone-surface $-1 64.466744089494824 -18.812637892883785 13.126476259995195 -0.70710678939079041 0 -0.70710677298230451 0.70710677298230451 0 -0.70710678939079041 1 I I 0 1 1 forward I I I I #
face $-1 $153 $154 $55 $-1 $155 forward single #
loop $-1 $156 $157 $72 #
cone-surface $-1 64.466744089494824 -15.249821037367276 13.126476259995195 -0.70710678939079041 0 -0.70710677298230451 0.70710677298230451 0 -0.70710678939079041 1 I I 0 1 1 forward I I I I #
face $-1 $158 $159 $56 $-1 $160 reversed single #
loop $-1 $-1 $161 $73 #
plane-surface $-1 70.560016964450583 4.7885730632577612 208.21858301852984 0 -1 0 -0.70710678939079041 0 -0.70710677298230451 forward_v I I I I #
face $-1 $162 $163 $57 $-1 $164 forward single #
loop $-1 $165 $166 $74 #
cone-surface $-1 64.466744089494824 -1.1494550292697596 13.126476259995195 -0.70710678939079041 0 -0.70710677298230451 0.70710677298230451 0 -0.70710678939079041 1 I I 0 1 1 forward I I I I #
face $-1 $167 $168 $58 $-1 $169 forward single #
loop $-1 $170 $171 $75 #
cone-surface $-1 64.466744089494824 2.4133618262467564 13.126476259995195 -0.70710678939079041 0 -0.70710677298230451 0.70710677298230451 0 -0.70710678939079041 1 I I 0 1 1 forward I I I I #
face $-1 $172 $173 $59 $-1 $174 reversed single #
loop $-1 $-1 $175 $76 #
plane-surface $-1 70.560016964450583 22.451755926871794 208.21858301852984 0 -1 0 -0.70710678939079041 0 -0.70710677298230451 forward_v I I I I #
face $-1 $176 $177 $60 $-1 $178 forward single #
loop $-1 $179 $180 $77 #
cone-surface $-1 64.466744089494824 16.513727834344266 13.126476259995195 -0.70710678939079041 0 -0.70710677298230451 0.70710677298230451 0 -0.70710678939079041 1 I I 0 1 1 forward I I I I #
face $-1 $181 $182 $61 $-1 $183 forward single #
loop $-1 $184 $185 $78 #
cone-surface $-1 64.466744089494824 20.076544689860782 13.126476259995195 -0.70710678939079041 0 -0.70710677298230451 0.70710677298230451 0 -0.70710678939079041 1 I I 0 1 1 forward I I I I #
face $-1 $186 $187 $62 $-1 $188 reversed single #
loop $-1 $-1 $189 $79 #
plane-surface $-1 70.560016964450583 40.114938790485823 208.21858301852984 0 -1 0 -0.70710678939079041 0 -0.70710677298230451 forward_v I I I I #
face $-1 $190 $191 $63 $-1 $192 forward single #
loop $-1 $193 $194 $80 #
cone-surface $-1 64.466744089494824 34.176910697958292 13.126476259995195 -0.70710678939079041 0 -0.70710677298230451 0.70710677298230451 0 -0.70710678939079041 1 I I 0 1 1 forward I I I I #
face $-1 $195 $196 $64 $-1 $197 forward single #
loop $-1 $198 $199 $81 #
cone-surface $-1 64.466744089494824 37.739727553474808 13.126476259995195 -0.70710678939079041 0 -0.70710677298230451 0.70710677298230451 0 -0.70710678939079041 1 I I 0 1 1 forward I I I I #
face $-1 $200 $201 $65 $-1 $202 reversed single #
loop $-1 $-1 $203 $82 #
plane-surface $-1 -143.24220383650319 -28.48811180894613 128.45830686245162 0 1 0 -0.51503808176128008 0 0.85716729658548041 forward_v I I I I #
face $-1 $204 $205 $66 $-1 $206 forward single #
loop $-1 $207 $208 $83 #
cone-surface $-1 -60.121380798073915 -25.093709576636122 12.22247253643609 0.51503808176128008 0 -0.85716729658548041 1.2857509448782207 0 0.77255712264192011 1 I I 0 1 1.5 forward I I I I #
face $-1 $209 $210 $67 $-1 $211 forward single #
loop $-1 $212 $213 $84 #
cone-surface $-1 -60.121380798073915 -20.002106228171108 12.22247253643609 0.51503808176128008 0 -0.85716729658548041 1.2857509448782207 0 0.77255712264192011 1 I I 0 1 1.5 forward I I I I #
face $-1 $214 $215 $51 $-1 $216 reversed single #
loop $-1 $-1 $217 $85 #
plane-surface $-1 0 0 -19.219746923384484 0 0 1 1 0 0 forward_v I I I I #
coedge $-1 $218 $219 $220 $221 forward $86 $-1 #
face $-1 $222 $223 $52 $-1 $224 forward single #
loop $-1 $-1 $225 $88 #
plane-surface $-1 -70.560014648884547 0 0 1 0 0 0 0 -1 forward_v I I I I #
coedge $-1 $226 $227 $228 $229 forward $89 $-1 #
face $-1 $230 $231 $53 $-1 $232 reversed single #
loop $-1 $-1 $233 $91 #
plane-surface $-1 -29.226913871029197 -17.031229465125531 108.43165449861607 0.70710678939079041 0 0.70710677298230451 0.70710677298230451 0 -0.70710678939079041 forward_v I I I I #
coedge $-1 $234 $235 $236 $237 reversed $92 $-1 #
face $-1 $-1 $238 $54 $-1 $239 forward single #
loop $-1 $240 $241 $94 #
cone-surface $-1 63.307431642836534 -18.812637892883785 11.967163840238875 -0.70710678939079041 0 -0.70710677298230451 0.35355338649115226 0 -0.35355339469539521 1 I I -0.70710678118654746 0.70710678118654746 0.5 forward I I I I #
loop $-1 $-1 $242 $71 #
coedge $-1 $152 $152 $243 $244 reversed $95 $-1 #
face $-1 $-1 $245 $55 $-1 $246 forward single #
loop $-1 $247 $248 $97 #
cone-surface $-1 63.307431642836534 -15.249821037367276 11.967163840238875 -0.70710678939079041 0 -0.70710677298230451 0.35355338649115226 0 -0.35355339469539521 1 I I -0.70710678118654746 0.70710678118654746 0.5 forward I I I I #
loop $-1 $-1 $249 $72 #
coedge $-1 $157 $157 $250 $251 reversed $98 $-1 #
face $-1 $252 $253 $56 $-1 $254 reversed single #
loop $-1 $-1 $255 $100 #
plane-surface $-1 -29.226913871029197 0.63195339848849841 108.43165449861607 0.70710678939079041 0 0.70710677298230451 0.70710677298230451 0 -0.70710678939079041 forward_v I I I I #
coedge $-1 $256 $257 $258 $259 reversed $101 $-1 #
face $-1 $-1 $260 $57 $-1 $261 forward single #
loop $-1 $262 $263 $103 #
cone-surface $-1 63.307431642836534 -1.1494550292697596 11.967163840238875 -0.70710678939079041 0 -0.70710677298230451 0.35355338649115226 0 -0.35355339469539521 1 I I -0.70710678118654746 0.70710678118654746 0.5 forward I I I I #
loop $-1 $-1 $264 $74 #
coedge $-1 $166 $166 $265 $266 reversed $104 $-1 #
face $-1 $-1 $267 $58 $-1 $268 forward single #
loop $-1 $269 $270 $106 #
cone-surface $-1 63.307431642836534 2.4133618262467564 11.967163840238875 -0.70710678939079041 0 -0.70710677298230451 0.35355338649115226 0 -0.35355339469539521 1 I I -0.70710678118654746 0.70710678118654746 0.5 forward I I I I #
loop $-1 $-1 $271 $75 #
coedge $-1 $171 $171 $272 $273 reversed $107 $-1 #
face $-1 $274 $275 $59 $-1 $276 reversed single #
loop $-1 $-1 $277 $109 #
plane-surface $-1 -29.226913871029197 18.295136262102531 108.43165449861607 0.70710678939079041 0 0.70710677298230451 0.70710677298230451 0 -0.70710678939079041 forward_v I I I I #
coedge $-1 $278 $279 $280 $281 reversed $110 $-1 #
face $-1 $-1 $282 $60 $-1 $283 forward single #
loop $-1 $284 $285 $112 #
cone-surface $-1 63.307431642836534 16.513727834344266 11.967163840238875 -0.70710678939079041 0 -0.70710677298230451 0.35355338649115226 0 -0.35355339469539521 1 I I -0.70710678118654746 0.70710678118654746 0.5 forward I I I I #
loop $-1 $-1 $286 $77 #
coedge $-1 $180 $180 $287 $288 reversed $113 $-1 #
face $-1 $-1 $289 $61 $-1 $290 forward single #
loop $-1 $291 $292 $115 #
cone-surface $-1 63.307431642836534 20.076544689860782 11.967163840238875 -0.70710678939079041 0 -0.70710677298230451 0.35355338649115226 0 -0.35355339469539521 1 I I -0.70710678118654746 0.70710678118654746 0.5 forward I I I I #
loop $-1 $-1 $293 $78 #
coedge $-1 $185 $185 $294 $295 reversed $116 $-1 #
face $-1 $296 $297 $62 $-1 $298 reversed single #
loop $-1 $-1 $299 $118 #
plane-surface $-1 -29.226913871029197 35.958319125716557 108.43165449861607 0.70710678939079041 0 0.70710677298230451 0.70710677298230451 0 -0.70710678939079041 forward_v I I I I #
coedge $-1 $300 $301 $302 $303 reversed $119 $-1 #
face $-1 $-1 $304 $63 $-1 $305 forward single #
loop $-1 $306 $307 $121 #
cone-surface $-1 63.307431642836534 34.176910697958292 11.967163840238875 -0.70710678939079041 0 -0.70710677298230451 0.35355338649115226 0 -0.35355339469539521 1 I I -0.70710678118654746 0.70710678118654746 0.5 forward I I I I #
loop $-1 $-1 $308 $80 #
coedge $-1 $194 $194 $309 $310 reversed $122 $-1 #
face $-1 $-1 $311 $64 $-1 $312 forward single #
loop $-1 $313 $314 $124 #
cone-surface $-1 63.307431642836534 37.739727553474808 11.967163840238875 -0.70710678939079041 0 -0.70710677298230451 0.35355338649115226 0 -0.35355339469539521 1 I I -0.70710678118654746 0.70710678118654746 0.5 forward I I I I #
loop $-1 $-1 $315 $81 #
coedge $-1 $199 $199 $316 $317 reversed $125 $-1 #
face $-1 $318 $319 $65 $-1 $320 reversed single #
loop $-1 $-1 $321 $127 #
plane-surface $-1 -70.560014648884561 -22.547907902403615 7.4948328552191015 -0.51503808176128008 0 0.85716729658548041 0.85716729658548041 0 0.51503808176128008 forward_v I I I I #
coedge $-1 $322 $323 $324 $325 reversed $128 $-1 #
face $-1 $-1 $326 $66 $-1 $327 forward single #
loop $-1 $328 $329 $130 #
cone-surface $-1 -59.05323516728167 -25.093709576636122 10.444779711131275 0.51503808176128008 0 -0.85716729658548041 0.64287547243911036 0 0.38627856132096006 1 I I -0.70710678118654757 0.70710678118654757 0.75 forward I I I I #
loop $-1 $-1 $330 $83 #
coedge $-1 $208 $208 $331 $332 reversed $131 $-1 #
face $-1 $-1 $333 $67 $-1 $334 forward single #
loop $-1 $335 $336 $133 #
cone-surface $-1 -59.05323516728167 -20.002106228171108 10.444779711131275 0.51503808176128008 0 -0.85716729658548041 0.64287547243911036 0 0.38627856132096006 1 I I -0.70710678118654757 0.70710678118654757 0.75 forward I I I I #
loop $-1 $-1 $337 $84 #
coedge $-1 $213 $213 $338 $339 reversed $134 $-1 #
face $-1 $340 $341 $51 $-1 $342 reversed single #
loop $-1 $-1 $343 $136 #
plane-surface $-1 0 -47.415201469537152 0 0 1 0 0 0 1 forward_v I I I I #
coedge $-1 $344 $345 $346 $347 forward $137 $-1 #
coedge $-1 $348 $139 $349 $350 forward $86 $-1 #
coedge $-1 $139 $348 $351 $352 forward $86 $-1 #
coedge $-1 $353 $354 $139 $221 reversed $355 $-1 #
edge $-1 $356 -47.415201469537152 $357 47.415201469537152 $220 $358 forward 7 unknown #
face $-1 $359 $360 $52 $-1 $361 reversed single #
loop $-1 $-1 $362 $140 #
plane-surface $-1 0 -56.878746299832663 11.298769229744204 0 0 1 1 0 0 forward_v I I I I #
coedge $-1 $363 $364 $227 $365 forward $141 $-1 #
coedge $-1 $366 $143 $367 $368 reversed $89 $-1 #
coedge $-1 $143 $366 $225 $365 reversed $89 $-1 #
coedge $-1 $369 $362 $143 $229 reversed $223 $-1 #
edge $-1 $370 -70.560014648884547 $371 70.560014648884547 $228 $372 forward 7 unknown #
face $-1 $373 $374 $53 $-1 $375 reversed single #
loop $-1 $-1 $376 $144 #
plane-surface $-1 70.560016964450583 -21.187849129894794 208.21858301852984 0 1 0 0.70710678939079041 0 0.70710677298230451 forward_v I I I I #
coedge $-1 $377 $378 $379 $380 reversed $145 $-1 #
coedge $-1 $235 $147 $381 $382 reversed $92 $-1 #
coedge $-1 $147 $234 $377 $383 reversed $92 $-1 #
coedge $-1 $379 $384 $147 $237 forward $385 $-1 #
edge $-1 $386 -35.280006166659255 $387 -24.704983151805585 $236 $388 forward 7 unknown #
loop $-1 $-1 $243 $148 #
plane-surface $-1 -29.226913871029197 -17.031229465125531 108.43165449861607 0.70710678939079041 0 0.70710677298230451 0.70710677298230451 0 -0.70710678939079041 forward_v I I I I #
loop $-1 $-1 $389 $94 #
coedge $-1 $241 $241 $242 $390 reversed $149 $-1 #
coedge $-1 $242 $242 $241 $390 forward $151 $-1 #
coedge $-1 $243 $243 $152 $244 forward $238 $-1 #
edge $-1 $391 0 $391 6.2831853071796004 $243 $392 forward 7 unknown #
loop $-1 $-1 $250 $153 #
plane-surface $-1 -29.226913871029197 -17.031229465125531 108.43165449861607 0.70710678939079041 0 0.70710677298230451 0.70710677298230451 0 -0.70710678939079041 forward_v I I I I #
loop $-1 $-1 $393 $97 #
coedge $-1 $248 $248 $249 $394 reversed $154 $-1 #
coedge $-1 $249 $249 $248 $394 forward $156 $-1 #
coedge $-1 $250 $250 $157 $251 forward $245 $-1 #
edge $-1 $395 0 $395 6.2831853071796004 $250 $396 forward 7 unknown #
face $-1 $397 $398 $56 $-1 $399 reversed single #
loop $-1 $-1 $400 $158 #
plane-surface $-1 70.560016964450583 -3.5246662662807644 208.21858301852984 0 1 0 0.70710678939079041 0 0.70710677298230451 forward_v I I I I #
coedge $-1 $401 $402 $403 $404 reversed $159 $-1 #
coedge $-1 $257 $161 $405 $406 reversed $101 $-1 #
coedge $-1 $161 $256 $401 $407 reversed $101 $-1 #
coedge $-1 $403 $408 $161 $259 forward $409 $-1 #
edge $-1 $410 -35.280006166659255 $411 -24.704983151805585 $258 $412 forward 7 unknown #
loop $-1 $-1 $265 $162 #
plane-surface $-1 -29.226913871029197 0.63195339848849841 108.43165449861607 0.70710678939079041 0 0.70710677298230451 0.70710677298230451 0 -0.70710678939079041 forward_v I I I I #
loop $-1 $-1 $413 $103 #
coedge $-1 $263 $263 $264 $414 reversed $163 $-1 #
coedge $-1 $264 $264 $263 $414 forward $165 $-1 #
coedge $-1 $265 $265 $166 $266 forward $260 $-1 #
edge $-1 $415 0 $415 6.2831853071796004 $265 $416 forward 7 unknown #
loop $-1 $-1 $272 $167 #
plane-surface $-1 -29.226913871029197 0.63195339848849841 108.43165449861607 0.70710678939079041 0 0.70710677298230451 0.70710677298230451 0 -0.70710678939079041 forward_v I I I I #
loop $-1 $-1 $417 $106 #
coedge $-1 $270 $270 $271 $418 reversed $168 $-1 #
coedge $-1 $271 $271 $270 $418 forward $170 $-1 #
coedge $-1 $272 $272 $171 $273 forward $267 $-1 #
edge $-1 $419 0 $419 6.2831853071796004 $272 $420 forward 7 unknown #
face $-1 $421 $422 $59 $-1 $423 reversed single #
loop $-1 $-1 $424 $172 #
plane-surface $-1 70.560016964450583 14.138516597333268 208.21858301852984 0 1 0 0.70710678939079041 0 0.70710677298230451 forward_v I I I I #
coedge $-1 $425 $426 $427 $428 reversed $173 $-1 #
coedge $-1 $279 $175 $429 $430 reversed $110 $-1 #
coedge $-1 $175 $278 $425 $431 reversed $110 $-1 #
coedge $-1 $427 $432 $175 $281 forward $433 $-1 #
edge $-1 $434 -35.280006166659255 $435 -24.704983151805585 $280 $436 forward 7 unknown #
loop $-1 $-1 $287 $176 #
plane-surface $-1 -29.226913871029197 18.295136262102531 108.43165449861607 0.70710678939079041 0 0.70710677298230451 0.70710677298230451 0 -0.70710678939079041 forward_v I I I I #
loop $-1 $-1 $437 $112 #
coedge $-1 $285 $285 $286 $438 reversed $177 $-1 #
coedge $-1 $286 $286 $285 $438 forward $179 $-1 #
coedge $-1 $287 $287 $180 $288 forward $282 $-1 #
edge $-1 $439 0 $439 6.2831853071796004 $287 $440 forward 7 unknown #
loop $-1 $-1 $294 $181 #
plane-surface $-1 -29.226913871029197 18.295136262102531 108.43165449861607 0.70710678939079041 0 0.70710677298230451 0.70710677298230451 0 -0.70710678939079041 forward_v I I I I #
loop $-1 $-1 $441 $115 #
coedge $-1 $292 $292 $293 $442 reversed $182 $-1 #
coedge $-1 $293 $293 $292 $442 forward $184 $-1 #
coedge $-1 $294 $294 $185 $295 forward $289 $-1 #
edge $-1 $443 0 $443 6.2831853071796004 $294 $444 forward 7 unknown #
face $-1 $445 $446 $62 $-1 $447 reversed single #
loop $-1 $-1 $448 $186 #
plane-surface $-1 70.560016964450583 31.801699460947294 208.21858301852984 0 1 0 0.70710678939079041 0 0.70710677298230451 forward_v I I I I #
coedge $-1 $449 $450 $451 $452 reversed $187 $-1 #
coedge $-1 $301 $189 $453 $454 reversed $119 $-1 #
coedge $-1 $189 $300 $449 $455 reversed $119 $-1 #
coedge $-1 $451 $456 $189 $303 forward $457 $-1 #
edge $-1 $458 -35.280006166659255 $459 -24.704983151805585 $302 $460 forward 7 unknown #
loop $-1 $-1 $309 $190 #
plane-surface $-1 -29.226913871029197 35.958319125716557 108.43165449861607 0.70710678939079041 0 0.70710677298230451 0.70710677298230451 0 -0.70710678939079041 forward_v I I I I #
loop $-1 $-1 $461 $121 #
coedge $-1 $307 $307 $308 $462 reversed $191 $-1 #
coedge $-1 $308 $308 $307 $462 forward $193 $-1 #
coedge $-1 $309 $309 $194 $310 forward $304 $-1 #
edge $-1 $463 0 $463 6.2831853071796004 $309 $464 forward 7 unknown #
loop $-1 $-1 $316 $195 #
plane-surface $-1 -29.226913871029197 35.958319125716557 108.43165449861607 0.70710678939079041 0 0.70710677298230451 0.70710677298230451 0 -0.70710678939079041 forward_v I I I I #
loop $-1 $-1 $465 $124 #
coedge $-1 $314 $314 $315 $466 reversed $196 $-1 #
coedge $-1 $315 $315 $314 $466 forward $198 $-1 #
coedge $-1 $316 $316 $199 $317 forward $311 $-1 #
edge $-1 $467 0 $467 6.2831853071796004 $316 $468 forward 7 unknown #
face $-1 $469 $470 $65 $-1 $471 forward single #
loop $-1 $-1 $472 $200 #
plane-surface $-1 -143.24220383650319 -16.607703995861101 128.45830686245162 0 -1 0 0.51503808176128008 0 -0.85716729658548041 forward_v I I I I #
coedge $-1 $473 $474 $475 $476 reversed $201 $-1 #
coedge $-1 $323 $203 $477 $478 reversed $128 $-1 #
coedge $-1 $203 $322 $473 $479 reversed $128 $-1 #
coedge $-1 $475 $480 $203 $325 forward $470 $-1 #
edge $-1 $481 1.0610872693670501 $482 20.574620832045724 $324 $483 forward 7 unknown #
loop $-1 $-1 $331 $204 #
plane-surface $-1 -70.560014648884561 -22.547907902403615 7.4948328552191015 -0.51503808176128008 0 0.85716729658548041 0.85716729658548041 0 0.51503808176128008 forward_v I I I I #
loop $-1 $-1 $484 $130 #
coedge $-1 $329 $329 $330 $485 reversed $205 $-1 #
coedge $-1 $330 $330 $329 $485 forward $207 $-1 #
coedge $-1 $331 $331 $208 $332 forward $326 $-1 #
edge $-1 $486 0 $486 6.2831853071796004 $331 $487 forward 7 unknown #
loop $-1 $-1 $338 $209 #
plane-surface $-1 -70.560014648884561 -22.547907902403615 7.4948328552191015 -0.51503808176128008 0 0.85716729658548041 0.85716729658548041 0 0.51503808176128008 forward_v I I I I #
loop $-1 $-1 $488 $133 #
coedge $-1 $336 $336 $337 $489 reversed $210 $-1 #
coedge $-1 $337 $337 $336 $489 forward $212 $-1 #
coedge $-1 $338 $338 $213 $339 forward $333 $-1 #
edge $-1 $490 0 $490 6.2831853071796004 $338 $491 forward 7 unknown #
face $-1 $492 $493 $51 $-1 $494 reversed single #
loop $-1 $-1 $495 $214 #
plane-surface $-1 -70.560014648884547 0 0 1 0 0 0 0 -1 forward_v I I I I #
coedge $-1 $496 $351 $497 $498 forward $215 $-1 #
coedge $-1 $499 $217 $496 $500 forward $137 $-1 #
coedge $-1 $217 $499 $501 $502 forward $137 $-1 #
coedge $-1 $354 $353 $217 $347 reversed $355 $-1 #
edge $-1 $503 -47.415201469537152 $504 47.415201469537152 $346 $505 forward 7 unknown #
coedge $-1 $219 $218 $506 $507 forward $86 $-1 #
coedge $-1 $508 $509 $218 $350 reversed $493 $-1 #
edge $-1 $357 -70.560014648884547 $510 70.560014648884547 $349 $511 forward 7 unknown #
coedge $-1 $343 $512 $219 $352 reversed $215 $-1 #
edge $-1 $513 -70.560014648884547 $356 70.560014648884547 $351 $514 forward 7 unknown #
coedge $-1 $346 $220 $512 $515 forward $355 $-1 #
coedge $-1 $220 $346 $508 $516 reversed $355 $-1 #
loop $-1 $-1 $353 $492 #
vertex $-1 $221 $517 #
vertex $-1 $221 $518 #
straight-curve $-1 70.560014648884547 0 19.219746923384484 0 1 0 I I #
face $-1 $519 $520 $52 $-1 $521 reversed single #
loop $-1 $-1 $522 $222 #
plane-surface $-1 0 -56.878746299832663 1.7042049325986195 0 0 1 1 0 0 forward_v I I I I #
coedge $-1 $228 $523 $524 $525 forward $223 $-1 #
coedge $-1 $526 $225 $527 $528 reversed $141 $-1 #
coedge $-1 $225 $526 $369 $529 reversed $141 $-1 #
edge $-1 $370 -11.298769229744204 $530 -1.7042049325986195 $225 $531 forward 7 unknown #
coedge $-1 $227 $226 $532 $533 forward $89 $-1 #
coedge $-1 $524 $534 $226 $368 forward $535 $-1 #
edge $-1 $536 1.7042049325986195 $371 11.298769229744204 $367 $537 forward 7 unknown #
coedge $-1 $523 $228 $364 $529 forward $223 $-1 #
vertex $-1 $365 $538 #
vertex $-1 $525 $539 #
straight-curve $-1 0 -47.415201469537152 11.298769229744204 1 0 0 I I #
face $-1 $-1 $385 $53 $-1 $540 forward single #
loop $-1 $-1 $541 $230 #
plane-surface $-1 70.560014648884547 0 0 -1 0 0 0 0 1 forward_v I I I I #
coedge $-1 $542 $543 $544 $545 reversed $231 $-1 #
coedge $-1 $546 $233 $235 $383 forward $145 $-1 #
coedge $-1 $233 $546 $542 $547 forward $145 $-1 #
coedge $-1 $544 $236 $233 $380 forward $385 $-1 #
edge $-1 $387 4.3589950677935025 $548 12.672234397332028 $379 $549 forward 7 unknown #
coedge $-1 $550 $551 $234 $382 forward $374 $-1 #
edge $-1 $552 -95.464567846128617 $386 -84.889544585880429 $381 $553 forward 7 unknown #
edge $-1 $387 126.16468815423529 $552 141.12002929776909 $235 $554 forward 7 unknown #
coedge $-1 $236 $544 $550 $555 forward $385 $-1 #
loop $-1 $-1 $544 $373 #
vertex $-1 $382 $556 #
vertex $-1 $237 $557 #
straight-curve $-1 35.280008482225291 -12.874609800356268 19.219746923384491 -1 0 0 I I #
coedge $-1 $389 $389 $-1 $558 reversed $240 $-1 #
edge $-1 $559 0 $559 6.2831853071796004 $241 $560 forward 7 unknown #
vertex $-1 $244 $561 #
ellipse-curve $-1 65.272503141457719 -18.812637892883785 13.932235293260371 0.70710678939079041 0 0.70710677298230451 0.70710677298230451 0 -0.70710678939079041 1 I I #
coedge $-1 $393 $393 $-1 $562 reversed $247 $-1 #
edge $-1 $563 0 $563 6.2831853071796004 $248 $564 forward 7 unknown #
vertex $-1 $251 $565 #
ellipse-curve $-1 65.272503141457719 -15.249821037367276 13.932235293260371 0.70710678939079041 0 0.70710677298230451 0.70710677298230451 0 -0.70710678939079041 1 I I #
face $-1 $-1 $409 $56 $-1 $566 forward single #
loop $-1 $-1 $567 $252 #
plane-surface $-1 70.560014648884547 0 0 -1 0 0 0 0 1 forward_v I I I I #
coedge $-1 $568 $569 $570 $571 reversed $253 $-1 #
coedge $-1 $572 $255 $257 $407 forward $159 $-1 #
coedge $-1 $255 $572 $568 $573 forward $159 $-1 #
coedge $-1 $570 $258 $255 $404 forward $409 $-1 #
edge $-1 $411 -4.472596364013512 $574 3.8406429655250136 $403 $575 forward 7 unknown #
coedge $-1 $576 $577 $256 $406 forward $398 $-1 #
edge $-1 $578 -95.464567846128617 $410 -84.889544585880429 $405 $579 forward 7 unknown #
edge $-1 $411 126.16468815423529 $578 141.12002929776909 $257 $580 forward 7 unknown #
coedge $-1 $258 $570 $576 $581 forward $409 $-1 #
loop $-1 $-1 $570 $397 #
vertex $-1 $406 $582 #
vertex $-1 $259 $583 #
straight-curve $-1 35.280008482225291 4.7885730632577612 19.219746923384491 -1 0 0 I I #
coedge $-1 $413 $413 $-1 $584 reversed $262 $-1 #
edge $-1 $585 0 $585 6.2831853071796004 $263 $586 forward 7 unknown #
vertex $-1 $266 $587 #
ellipse-curve $-1 65.272503141457719 -1.1494550292697596 13.932235293260371 0.70710678939079041 0 0.70710677298230451 0.70710677298230451 0 -0.70710678939079041 1 I I #
coedge $-1 $417 $417 $-1 $588 reversed $269 $-1 #
edge $-1 $589 0 $589 6.2831853071796004 $270 $590 forward 7 unknown #
vertex $-1 $273 $591 #
ellipse-curve $-1 65.272503141457719 2.4133618262467564 13.932235293260371 0.70710678939079041 0 0.70710677298230451 0.70710677298230451 0 -0.70710678939079041 1 I I #
face $-1 $-1 $433 $59 $-1 $592 forward single #
loop $-1 $-1 $593 $274 #
plane-surface $-1 70.560014648884547 0 0 -1 0 0 0 0 1 forward_v I I I I #
coedge $-1 $594 $595 $596 $597 reversed $275 $-1 #
coedge $-1 $598 $277 $279 $431 forward $173 $-1 #
coedge $-1 $277 $598 $594 $599 forward $173 $-1 #
coedge $-1 $596 $280 $277 $428 forward $433 $-1 #
edge $-1 $435 -13.304187795820528 $600 -4.9909484662820027 $427 $601 forward 7 unknown #
coedge $-1 $602 $603 $278 $430 forward $422 $-1 #
edge $-1 $604 -95.464567846128617 $434 -84.889544585880429 $429 $605 forward 7 unknown #
edge $-1 $435 126.16468815423529 $604 141.12002929776909 $279 $606 forward 7 unknown #
coedge $-1 $280 $596 $602 $607 forward $433 $-1 #
loop $-1 $-1 $596 $421 #
vertex $-1 $430 $608 #
vertex $-1 $281 $609 #
straight-curve $-1 35.280008482225291 22.451755926871794 19.219746923384491 -1 0 0 I I #
coedge $-1 $437 $437 $-1 $610 reversed $284 $-1 #
edge $-1 $611 0 $611 6.2831853071796004 $285 $612 forward 7 unknown #
vertex $-1 $288 $613 #
ellipse-curve $-1 65.272503141457719 16.513727834344266 13.932235293260371 0.70710678939079041 0 0.70710677298230451 0.70710677298230451 0 -0.70710678939079041 1 I I #
coedge $-1 $441 $441 $-1 $614 reversed $291 $-1 #
edge $-1 $615 0 $615 6.2831853071796004 $292 $616 forward 7 unknown #
vertex $-1 $295 $617 #
ellipse-curve $-1 65.272503141457719 20.076544689860782 13.932235293260371 0.70710678939079041 0 0.70710677298230451 0.70710677298230451 0 -0.70710678939079041 1 I I #
face $-1 $-1 $457 $62 $-1 $618 forward single #
loop $-1 $-1 $619 $296 #
plane-surface $-1 70.560014648884547 0 0 -1 0 0 0 0 1 forward_v I I I I #
coedge $-1 $620 $621 $622 $623 reversed $297 $-1 #
coedge $-1 $624 $299 $301 $455 forward $187 $-1 #
coedge $-1 $299 $624 $620 $625 forward $187 $-1 #
coedge $-1 $622 $302 $299 $452 forward $457 $-1 #
edge $-1 $459 -22.135779227627545 $626 -13.822539898089016 $451 $627 forward 7 unknown #
coedge $-1 $628 $629 $300 $454 forward $446 $-1 #
edge $-1 $630 -95.464567846128617 $458 -84.889544585880429 $453 $631 forward 7 unknown #
edge $-1 $459 126.16468815423529 $630 141.12002929776909 $301 $632 forward 7 unknown #
coedge $-1 $302 $622 $628 $633 forward $457 $-1 #
loop $-1 $-1 $622 $445 #
vertex $-1 $454 $634 #
vertex $-1 $303 $635 #
straight-curve $-1 35.280008482225291 40.114938790485823 19.219746923384491 -1 0 0 I I #
coedge $-1 $461 $461 $-1 $636 reversed $306 $-1 #
edge $-1 $637 0 $637 6.2831853071796004 $307 $638 forward 7 unknown #
vertex $-1 $310 $639 #
ellipse-curve $-1 65.272503141457719 34.176910697958292 13.932235293260371 0.70710678939079041 0 0.70710677298230451 0.70710677298230451 0 -0.70710678939079041 1 I I #
coedge $-1 $465 $465 $-1 $640 reversed $313 $-1 #
edge $-1 $641 0 $641 6.2831853071796004 $314 $642 forward 7 unknown #
vertex $-1 $317 $643 #
ellipse-curve $-1 65.272503141457719 37.739727553474808 13.932235293260371 0.70710678939079041 0 0.70710677298230451 0.70710677298230451 0 -0.70710678939079041 1 I I #
face $-1 $-1 $644 $65 $-1 $645 reversed single #
loop $-1 $-1 $324 $318 #
plane-surface $-1 0 0 19.219746923384484 0 0 1 1 0 0 forward_v I I I I #
coedge $-1 $646 $647 $648 $649 reversed $319 $-1 #
coedge $-1 $650 $321 $323 $479 forward $201 $-1 #
coedge $-1 $321 $650 $646 $651 forward $201 $-1 #
coedge $-1 $648 $324 $321 $476 forward $470 $-1 #
edge $-1 $482 -17.214157857744322 $652 -5.3337500446592934 $475 $653 forward 7 unknown #
coedge $-1 $654 $655 $322 $478 forward $644 $-1 #
edge $-1 $656 -56.734320576006702 $481 -45.009406507841327 $477 $657 forward 7 unknown #
edge $-1 $482 -22.765140061235073 $656 -1.6755537013839907e-014 $323 $658 forward 7 unknown #
coedge $-1 $324 $648 $654 $659 forward $470 $-1 #
vertex $-1 $325 $660 #
vertex $-1 $325 $661 #
straight-curve $-1 -71.621101918251597 -28.48811180894613 19.219746923384484 1 0 0 I I #
coedge $-1 $484 $484 $-1 $662 reversed $328 $-1 #
edge $-1 $663 0 $663 6.2831853071796004 $329 $664 forward 7 unknown #
vertex $-1 $332 $665 #
ellipse-curve $-1 -60.803247867545203 -25.093709576636122 13.3572898893018 -0.51503808176128008 0 0.85716729658548041 1.2857509448782207 0 0.77255712264192011 1 I I #
coedge $-1 $488 $488 $-1 $666 reversed $335 $-1 #
edge $-1 $667 0 $667 6.2831853071796004 $336 $668 forward 7 unknown #
vertex $-1 $339 $669 #
ellipse-curve $-1 -60.803247867545203 -20.002106228171108 13.3572898893018 -0.51503808176128008 0 0.85716729658548041 1.2857509448782207 0 0.77255712264192011 1 I I #
face $-1 $-1 $355 $51 $-1 $670 reversed single #
loop $-1 $-1 $508 $340 #
plane-surface $-1 0 47.415201469537152 0 0 -1 0 0 0 -1 forward_v I I I I #
coedge $-1 $671 $506 $509 $672 forward $341 $-1 #
coedge $-1 $512 $343 $344 $500 reversed $215 $-1 #
coedge $-1 $506 $671 $343 $498 reversed $341 $-1 #
edge $-1 $513 -19.219746923384484 $673 19.219746923384484 $497 $674 forward 7 unknown #
coedge $-1 $345 $344 $671 $675 forward $137 $-1 #
edge $-1 $504 -70.560014648884547 $673 70.560014648884547 $496 $676 forward 7 unknown #
coedge $-1 $509 $508 $345 $502 reversed $493 $-1 #
edge $-1 $677 -70.560014648884547 $503 70.560014648884547 $501 $678 forward 7 unknown #
vertex $-1 $347 $679 #
vertex $-1 $515 $680 #
straight-curve $-1 70.560014648884547 0 -19.219746923384484 0 -1 0 I I #
coedge $-1 $495 $497 $348 $507 reversed $341 $-1 #
edge $-1 $510 -47.415201469537152 $513 47.415201469537152 $506 $681 forward 7 unknown #
coedge $-1 $501 $349 $354 $516 forward $493 $-1 #
coedge $-1 $349 $501 $495 $672 reversed $493 $-1 #
vertex $-1 $350 $682 #
straight-curve $-1 0 47.415201469537152 19.219746923384484 -1 0 0 I I #
coedge $-1 $351 $496 $353 $515 reversed $215 $-1 #
vertex $-1 $507 $683 #
straight-curve $-1 0 -47.415201469537152 19.219746923384484 1 0 0 I I #
edge $-1 $356 -19.219746923384484 $504 19.219746923384484 $353 $684 forward 7 unknown #
edge $-1 $357 -19.219746923384484 $503 19.219746923384484 $354 $685 forward 7 unknown #
point $-1 70.560014648884547 -47.415201469537152 19.219746923384484 #
point $-1 70.560014648884547 47.415201469537152 19.219746923384484 #
face $-1 $-1 $535 $52 $-1 $686 reversed single #
loop $-1 $-1 $687 $359 #
plane-surface $-1 0 -66.342291130128174 6.5014870811714118 0 1 0 0 0 1 forward_v I I I I #
coedge $-1 $688 $532 $534 $689 forward $360 $-1 #
coedge $-1 $362 $369 $690 $691 forward $223 $-1 #
coedge $-1 $692 $367 $362 $525 reversed $535 $-1 #
edge $-1 $693 -9.4635448302955112 $371 9.4635448302955112 $524 $694 forward 7 unknown #
coedge $-1 $364 $363 $687 $695 reversed $141 $-1 #
coedge $-1 $532 $688 $363 $528 forward $360 $-1 #
edge $-1 $696 -9.4635448302955112 $530 9.4635448302955112 $363 $697 forward 7 unknown #
edge $-1 $370 -9.4635448302955112 $698 9.4635448302955112 $364 $699 forward 7 unknown #
vertex $-1 $365 $700 #
straight-curve $-1 -70.560014648884547 -47.415201469537152 0 0 0 -1 I I #
coedge $-1 $522 $527 $366 $533 reversed $360 $-1 #
edge $-1 $536 -70.560014648884547 $530 70.560014648884547 $532 $701 forward 7 unknown #
coedge $-1 $367 $692 $522 $689 reversed $535 $-1 #
loop $-1 $-1 $367 $519 #
vertex $-1 $368 $702 #
straight-curve $-1 70.560014648884547 -47.415201469537152 0 0 0 1 I I #
point $-1 -70.560014648884547 -47.415201469537152 11.298769229744204 #
point $-1 70.560014648884547 -47.415201469537152 11.298769229744204 #
plane-surface $-1 0 0 19.219746923384484 0 0 1 1 0 0 forward_v I I I I #
coedge $-1 $551 $550 $543 $703 forward $374 $-1 #
coedge $-1 $543 $376 $378 $547 reversed $231 $-1 #
coedge $-1 $376 $542 $541 $703 reversed $231 $-1 #
coedge $-1 $384 $379 $376 $545 forward $385 $-1 #
edge $-1 $548 24.704983151805585 $704 35.280006166659255 $544 $705 forward 7 unknown #
coedge $-1 $378 $377 $551 $706 reversed $145 $-1 #
edge $-1 $707 -141.12002929776909 $548 -126.16468815423529 $542 $708 forward 7 unknown #
vertex $-1 $380 $709 #
straight-curve $-1 59.984991634030891 -8.5156147325627654 19.219746923384477 0 -1 0 I I #
coedge $-1 $541 $381 $384 $555 reversed $374 $-1 #
coedge $-1 $381 $541 $546 $706 forward $374 $-1 #
vertex $-1 $382 $710 #
straight-curve $-1 70.560014648884547 -12.874609800356268 104.10929150926492 0 0 1 I I #
straight-curve $-1 -29.226913871029197 -12.874609800356268 108.43165449861607 0.70710677298230451 0 -0.70710678939079041 I I #
edge $-1 $704 -21.187849129894794 $386 -12.874609800356268 $550 $711 forward 7 unknown #
point $-1 70.560014648884547 -12.874609800356268 19.219746923384484 #
point $-1 59.984991634030877 -12.874609800356268 19.219746923384491 #
edge $-1 $712 1 $712 0 $389 $-1 forward 7 unknown #
vertex $-1 $390 $713 #
ellipse-curve $-1 63.66098503753193 -18.812637892883785 12.320717226730027 0.70710678939079041 0 0.70710677298230451 0.70710677298230451 0 -0.70710678939079041 1 I I #
point $-1 65.979609914440019 -18.812637892883785 13.225128503869573 #
edge $-1 $714 1 $714 0 $393 $-1 forward 7 unknown #
vertex $-1 $394 $715 #
ellipse-curve $-1 63.66098503753193 -15.249821037367276 12.320717226730027 0.70710678939079041 0 0.70710677298230451 0.70710677298230451 0 -0.70710678939079041 1 I I #
point $-1 65.979609914440019 -15.249821037367276 13.225128503869573 #
plane-surface $-1 0 0 19.219746923384484 0 0 1 1 0 0 forward_v I I I I #
coedge $-1 $577 $576 $569 $716 forward $398 $-1 #
coedge $-1 $569 $400 $402 $573 reversed $253 $-1 #
coedge $-1 $400 $568 $567 $716 reversed $253 $-1 #
coedge $-1 $408 $403 $400 $571 forward $409 $-1 #
edge $-1 $574 24.704983151805585 $717 35.280006166659255 $570 $718 forward 7 unknown #
coedge $-1 $402 $401 $577 $719 reversed $159 $-1 #
edge $-1 $720 -141.12002929776909 $574 -126.16468815423529 $568 $721 forward 7 unknown #
vertex $-1 $404 $722 #
straight-curve $-1 59.984991634030891 0.3159766992442492 19.219746923384477 0 -1 0 I I #
coedge $-1 $567 $405 $408 $581 reversed $398 $-1 #
coedge $-1 $405 $567 $572 $719 forward $398 $-1 #
vertex $-1 $406 $723 #
straight-curve $-1 70.560014648884547 4.7885730632577612 104.10929150926492 0 0 1 I I #
straight-curve $-1 -29.226913871029197 4.7885730632577612 108.43165449861607 0.70710677298230451 0 -0.70710678939079041 I I #
edge $-1 $717 -3.5246662662807644 $410 4.7885730632577612 $576 $724 forward 7 unknown #
point $-1 70.560014648884547 4.7885730632577612 19.219746923384484 #
point $-1 59.984991634030877 4.7885730632577612 19.219746923384491 #
edge $-1 $725 1 $725 0 $413 $-1 forward 7 unknown #
vertex $-1 $414 $726 #
ellipse-curve $-1 63.66098503753193 -1.1494550292697596 12.320717226730027 0.70710678939079041 0 0.70710677298230451 0.70710677298230451 0 -0.70710678939079041 1 I I #
point $-1 65.979609914440019 -1.1494550292697596 13.225128503869573 #
edge $-1 $727 1 $727 0 $417 $-1 forward 7 unknown #
vertex $-1 $418 $728 #
ellipse-curve $-1 63.66098503753193 2.4133618262467564 12.320717226730027 0.70710678939079041 0 0.70710677298230451 0.70710677298230451 0 -0.70710678939079041 1 I I #
point $-1 65.979609914440019 2.4133618262467564 13.225128503869573 #
plane-surface $-1 0 0 19.219746923384484 0 0 1 1 0 0 forward_v I I I I #
coedge $-1 $603 $602 $595 $729 forward $422 $-1 #
coedge $-1 $595 $424 $426 $599 reversed $275 $-1 #
coedge $-1 $424 $594 $593 $729 reversed $275 $-1 #
coedge $-1 $432 $427 $424 $597 forward $433 $-1 #
edge $-1 $600 24.704983151805585 $730 35.280006166659255 $596 $731 forward 7 unknown #
coedge $-1 $426 $425 $603 $732 reversed $173 $-1 #
edge $-1 $733 -141.12002929776909 $600 -126.16468815423529 $594 $734 forward 7 unknown #
vertex $-1 $428 $735 #
straight-curve $-1 59.984991634030891 9.1475681310512655 19.219746923384477 0 -1 0 I I #
coedge $-1 $593 $429 $432 $607 reversed $422 $-1 #
coedge $-1 $429 $593 $598 $732 forward $422 $-1 #
vertex $-1 $430 $736 #
straight-curve $-1 70.560014648884547 22.451755926871794 104.10929150926492 0 0 1 I I #
straight-curve $-1 -29.226913871029197 22.451755926871794 108.43165449861607 0.70710677298230451 0 -0.70710678939079041 I I #
edge $-1 $730 14.138516597333268 $434 22.451755926871794 $602 $737 forward 7 unknown #
point $-1 70.560014648884547 22.451755926871794 19.219746923384484 #
point $-1 59.984991634030877 22.451755926871794 19.219746923384491 #
edge $-1 $738 1 $738 0 $437 $-1 forward 7 unknown #
vertex $-1 $438 $739 #
ellipse-curve $-1 63.66098503753193 16.513727834344266 12.320717226730027 0.70710678939079041 0 0.70710677298230451 0.70710677298230451 0 -0.70710678939079041 1 I I #
point $-1 65.979609914440019 16.513727834344266 13.225128503869573 #
edge $-1 $740 1 $740 0 $441 $-1 forward 7 unknown #
vertex $-1 $442 $741 #
ellipse-curve $-1 63.66098503753193 20.076544689860782 12.320717226730027 0.70710678939079041 0 0.70710677298230451 0.70710677298230451 0 -0.70710678939079041 1 I I #
point $-1 65.979609914440019 20.076544689860782 13.225128503869573 #
plane-surface $-1 0 0 19.219746923384484 0 0 1 1 0 0 forward_v I I I I #
coedge $-1 $629 $628 $621 $742 forward $446 $-1 #
coedge $-1 $621 $448 $450 $625 reversed $297 $-1 #
coedge $-1 $448 $620 $619 $742 reversed $297 $-1 #
coedge $-1 $456 $451 $448 $623 forward $457 $-1 #
edge $-1 $626 24.704983151805585 $743 35.280006166659255 $622 $744 forward 7 unknown #
coedge $-1 $450 $449 $629 $745 reversed $187 $-1 #
edge $-1 $746 -141.12002929776909 $626 -126.16468815423529 $620 $747 forward 7 unknown #
vertex $-1 $452 $748 #
straight-curve $-1 59.984991634030891 17.979159562858278 19.219746923384477 0 -1 0 I I #
coedge $-1 $619 $453 $456 $633 reversed $446 $-1 #
coedge $-1 $453 $619 $624 $745 forward $446 $-1 #
vertex $-1 $454 $749 #
straight-curve $-1 70.560014648884547 40.114938790485823 104.10929150926492 0 0 1 I I #
straight-curve $-1 -29.226913871029197 40.114938790485823 108.43165449861607 0.70710677298230451 0 -0.70710678939079041 I I #
edge $-1 $743 31.801699460947294 $458 40.114938790485823 $628 $750 forward 7 unknown #
point $-1 70.560014648884547 40.114938790485823 19.219746923384484 #
point $-1 59.984991634030877 40.114938790485823 19.219746923384491 #
edge $-1 $751 1 $751 0 $461 $-1 forward 7 unknown #
vertex $-1 $462 $752 #
ellipse-curve $-1 63.66098503753193 34.176910697958292 12.320717226730027 0.70710678939079041 0 0.70710677298230451 0.70710677298230451 0 -0.70710678939079041 1 I I #
point $-1 65.979609914440019 34.176910697958292 13.225128503869573 #
edge $-1 $753 1 $753 0 $465 $-1 forward 7 unknown #
vertex $-1 $466 $754 #
ellipse-curve $-1 63.66098503753193 37.739727553474808 12.320717226730027 0.70710678939079041 0 0.70710677298230451 0.70710677298230451 0 -0.70710678939079041 1 I I #
point $-1 65.979609914440019 37.739727553474808 13.225128503869573 #
loop $-1 $-1 $477 $469 #
plane-surface $-1 -70.560014648884547 0 0 1 0 0 0 0 -1 forward_v I I I I #
coedge $-1 $647 $472 $474 $651 reversed $319 $-1 #
coedge $-1 $472 $646 $755 $756 reversed $319 $-1 #
coedge $-1 $480 $475 $472 $649 forward $470 $-1 #
edge $-1 $652 -20.574620832045724 $757 -1.0610872693670501 $648 $758 forward 7 unknown #
coedge $-1 $474 $473 $655 $759 reversed $201 $-1 #
edge $-1 $760 1.6755537013839907e-014 $652 22.765140061235073 $646 $761 forward 7 unknown #
vertex $-1 $476 $762 #
straight-curve $-1 -51.046481086205873 -11.273953951201808 19.219746923384484 0 1 0 I I #
coedge $-1 $755 $477 $480 $659 reversed $644 $-1 #
coedge $-1 $477 $755 $650 $759 forward $644 $-1 #
vertex $-1 $478 $763 #
straight-curve $-1 -70.560014648884547 -28.48811180894613 64.229153431225811 0 0 1 I I #
straight-curve $-1 -70.560014648884561 -28.48811180894613 7.4948328552191015 -0.85716729658548041 0 -0.51503808176128008 I I #
edge $-1 $757 16.607703995861101 $481 28.48811180894613 $654 $764 forward 7 unknown #
point $-1 -70.560014648884547 -28.48811180894613 19.219746923384484 #
point $-1 -51.046481086205873 -28.48811180894613 19.219746923384484 #
edge $-1 $765 1 $765 0 $484 $-1 forward 7 unknown #
vertex $-1 $485 $766 #
ellipse-curve $-1 -59.439513728602627 -25.093709576636122 11.087655183570385 -0.51503808176128008 0 0.85716729658548041 1.2857509448782207 0 0.77255712264192011 1 I I #
point $-1 -59.517496922666979 -25.093709576636122 14.129847011943715 #
edge $-1 $767 1 $767 0 $488 $-1 forward 7 unknown #
vertex $-1 $489 $768 #
ellipse-curve $-1 -59.439513728602627 -20.002106228171108 11.087655183570385 -0.51503808176128008 0 0.85716729658548041 1.2857509448782207 0 0.77255712264192011 1 I I #
point $-1 -59.517496922666979 -20.002106228171108 14.129847011943715 #
plane-surface $-1 70.560014648884547 0 0 -1 0 0 0 0 1 forward_v I I I I #
coedge $-1 $497 $495 $499 $675 reversed $341 $-1 #
edge $-1 $510 -19.219746923384484 $677 19.219746923384484 $509 $769 forward 7 unknown #
vertex $-1 $675 $770 #
straight-curve $-1 -70.560014648884547 -47.415201469537152 0 0 0 -1 I I #
edge $-1 $673 -47.415201469537152 $677 47.415201469537152 $671 $771 forward 7 unknown #
straight-curve $-1 0 -47.415201469537152 -19.219746923384484 -1 0 0 I I #
vertex $-1 $502 $772 #
straight-curve $-1 0 47.415201469537152 -19.219746923384484 1 0 0 I I #
point $-1 70.560014648884547 47.415201469537152 -19.219746923384484 #
point $-1 70.560014648884547 -47.415201469537152 -19.219746923384484 #
straight-curve $-1 -70.560014648884547 0 19.219746923384484 0 -1 0 I I #
point $-1 -70.560014648884547 47.415201469537152 19.219746923384484 #
point $-1 -70.560014648884547 -47.415201469537152 19.219746923384484 #
straight-curve $-1 70.560014648884547 -47.415201469537152 0 0 0 -1 I I #
straight-curve $-1 70.560014648884547 47.415201469537152 0 0 0 -1 I I #
plane-surface $-1 70.560014648884547 0 0 -1 0 0 0 0 1 forward_v I I I I #
coedge $-1 $773 $690 $526 $695 forward $520 $-1 #
coedge $-1 $527 $522 $773 $774 forward $360 $-1 #
edge $-1 $536 -9.4635448302955112 $775 9.4635448302955112 $534 $776 forward 7 unknown #
coedge $-1 $687 $777 $523 $691 reversed $520 $-1 #
edge $-1 $698 -70.560014648884547 $693 70.560014648884547 $690 $778 forward 7 unknown #
coedge $-1 $534 $524 $777 $779 forward $535 $-1 #
vertex $-1 $525 $780 #
straight-curve $-1 70.560014648884547 -56.878746299832663 11.298769229744204 0 1 0 I I #
edge $-1 $698 -4.7972821485727923 $696 4.7972821485727923 $526 $781 forward 7 unknown #
vertex $-1 $528 $782 #
straight-curve $-1 -70.560014648884547 -56.878746299832663 1.7042049325986195 0 1 0 I I #
vertex $-1 $529 $783 #
straight-curve $-1 -70.560014648884547 -56.878746299832663 11.298769229744204 0 -1 0 I I #
point $-1 -70.560014648884547 -47.415201469537152 1.7042049325986195 #
straight-curve $-1 0 -47.415201469537152 1.7042049325986195 -1 0 0 I I #
point $-1 70.560014648884547 -47.415201469537152 1.7042049325986195 #
edge $-1 $704 84.889544585880429 $707 95.464567846128617 $541 $784 forward 7 unknown #
vertex $-1 $555 $785 #
straight-curve $-1 35.280008482225291 -21.187849129894794 19.219746923384491 1 0 0 I I #
edge $-1 $707 -12.672234397332028 $552 -4.3589950677935025 $551 $786 forward 7 unknown #
vertex $-1 $706 $787 #
straight-curve $-1 -29.226913871029197 -21.187849129894794 108.43165449861607 -0.70710677298230451 0 0.70710678939079041 I I #
point $-1 59.984991634030877 -21.187849129894794 19.219746923384491 #
point $-1 70.560014648884547 -12.874609800356268 8.644723663136304 #
straight-curve $-1 70.560014648884547 0 19.219746923384484 0 1 0 I I #
vertex $-1 $558 $788 #
point $-1 64.36809181051423 -18.812637892883785 11.613610437339236 #
vertex $-1 $562 $789 #
point $-1 64.36809181051423 -15.249821037367276 11.613610437339236 #
edge $-1 $717 84.889544585880429 $720 95.464567846128617 $567 $790 forward 7 unknown #
vertex $-1 $581 $791 #
straight-curve $-1 35.280008482225291 -3.5246662662807644 19.219746923384491 1 0 0 I I #
edge $-1 $720 -3.8406429655250136 $578 4.472596364013512 $577 $792 forward 7 unknown #
vertex $-1 $719 $793 #
straight-curve $-1 -29.226913871029197 -3.5246662662807644 108.43165449861607 -0.70710677298230451 0 0.70710678939079041 I I #
point $-1 59.984991634030877 -3.5246662662807644 19.219746923384491 #
point $-1 70.560014648884547 4.7885730632577612 8.644723663136304 #
straight-curve $-1 70.560014648884547 0 19.219746923384484 0 1 0 I I #
vertex $-1 $584 $794 #
point $-1 64.36809181051423 -1.1494550292697596 11.613610437339236 #
vertex $-1 $588 $795 #
point $-1 64.36809181051423 2.4133618262467564 11.613610437339236 #
edge $-1 $730 84.889544585880429 $733 95.464567846128617 $593 $796 forward 7 unknown #
vertex $-1 $607 $797 #
straight-curve $-1 35.280008482225291 14.138516597333268 19.219746923384491 1 0 0 I I #
edge $-1 $733 4.9909484662820027 $604 13.304187795820528 $603 $798 forward 7 unknown #
vertex $-1 $732 $799 #
straight-curve $-1 -29.226913871029197 14.138516597333268 108.43165449861607 -0.70710677298230451 0 0.70710678939079041 I I #
point $-1 59.984991634030877 14.138516597333268 19.219746923384491 #
point $-1 70.560014648884547 22.451755926871794 8.644723663136304 #
straight-curve $-1 70.560014648884547 0 19.219746923384484 0 1 0 I I #
vertex $-1 $610 $800 #
point $-1 64.36809181051423 16.513727834344266 11.613610437339236 #
vertex $-1 $614 $801 #
point $-1 64.36809181051423 20.076544689860782 11.613610437339236 #
edge $-1 $743 84.889544585880429 $746 95.464567846128617 $619 $802 forward 7 unknown #
vertex $-1 $633 $803 #
straight-curve $-1 35.280008482225291 31.801699460947294 19.219746923384491 1 0 0 I I #
edge $-1 $746 13.822539898089016 $630 22.135779227627545 $629 $804 forward 7 unknown #
vertex $-1 $745 $805 #
straight-curve $-1 -29.226913871029197 31.801699460947294 108.43165449861607 -0.70710677298230451 0 0.70710678939079041 I I #
point $-1 59.984991634030877 31.801699460947294 19.219746923384491 #
point $-1 70.560014648884547 40.114938790485823 8.644723663136304 #
straight-curve $-1 70.560014648884547 0 19.219746923384484 0 1 0 I I #
vertex $-1 $636 $806 #
point $-1 64.36809181051423 34.176910697958292 11.613610437339236 #
vertex $-1 $640 $807 #
point $-1 64.36809181051423 37.739727553474808 11.613610437339236 #
coedge $-1 $655 $654 $647 $756 forward $644 $-1 #
edge $-1 $757 45.009406507841327 $760 56.734320576006702 $755 $808 forward 7 unknown #
vertex $-1 $659 $809 #
straight-curve $-1 -71.621101918251597 -16.607703995861101 19.219746923384484 -1 0 0 I I #
edge $-1 $760 5.3337500446592934 $656 17.214157857744322 $655 $810 forward 7 unknown #
vertex $-1 $759 $811 #
straight-curve $-1 -70.560014648884561 -16.607703995861101 7.4948328552191015 0.85716729658548041 0 0.51503808176128008 I I #
point $-1 -51.046481086205873 -16.607703995861101 19.219746923384484 #
point $-1 -70.560014648884547 -28.48811180894613 7.4948328552191104 #
straight-curve $-1 -70.560014648884547 0 19.219746923384484 0 -1 0 I I #
vertex $-1 $662 $812 #
point $-1 -58.15376278372441 -25.093709576636122 11.860212306212306 #
vertex $-1 $666 $813 #
point $-1 -58.15376278372441 -20.002106228171108 11.860212306212306 #
straight-curve $-1 -70.560014648884547 47.415201469537152 0 0 0 -1 I I #
point $-1 -70.560014648884547 -47.415201469537152 -19.219746923384484 #
straight-curve $-1 -70.560014648884547 0 -19.219746923384484 0 1 0 I I #
point $-1 -70.560014648884547 47.415201469537152 -19.219746923384484 #
coedge $-1 $777 $687 $688 $774 reversed $520 $-1 #
edge $-1 $775 -70.560014648884547 $696 70.560014648884547 $773 $814 forward 7 unknown #
vertex $-1 $779 $815 #
straight-curve $-1 70.560014648884547 -56.878746299832663 1.7042049325986195 0 -1 0 I I #
coedge $-1 $690 $773 $692 $779 reversed $520 $-1 #
straight-curve $-1 0 -66.342291130128174 11.298769229744204 1 0 0 I I #
edge $-1 $693 -4.7972821485727923 $775 4.7972821485727923 $692 $816 forward 7 unknown #
point $-1 70.560014648884547 -66.342291130128174 11.298769229744204 #
straight-curve $-1 -70.560014648884547 -66.342291130128174 6.5014870811714118 0 0 -1 I I #
point $-1 -70.560014648884547 -66.342291130128174 1.7042049325986195 #
point $-1 -70.560014648884547 -66.342291130128174 11.298769229744204 #
straight-curve $-1 70.560014648884547 -21.187849129894794 104.10929150926492 0 0 -1 I I #
point $-1 70.560014648884547 -21.187849129894794 19.219746923384484 #
straight-curve $-1 70.560014648884547 -8.5156147325627654 8.6447236631363111 0 1 0 I I #
point $-1 70.560014648884547 -21.187849129894794 8.644723663136304 #
point $-1 62.953878248141137 -18.812637892883785 11.613610453747723 #
point $-1 62.953878248141137 -15.249821037367276 11.613610453747723 #
straight-curve $-1 70.560014648884547 -3.5246662662807644 104.10929150926492 0 0 -1 I I #
point $-1 70.560014648884547 -3.5246662662807644 19.219746923384484 #
straight-curve $-1 70.560014648884547 0.3159766992442492 8.6447236631363111 0 1 0 I I #
point $-1 70.560014648884547 -3.5246662662807644 8.644723663136304 #
point $-1 62.953878248141137 -1.1494550292697596 11.613610453747723 #
point $-1 62.953878248141137 2.4133618262467564 11.613610453747723 #
straight-curve $-1 70.560014648884547 14.138516597333268 104.10929150926492 0 0 -1 I I #
point $-1 70.560014648884547 14.138516597333268 19.219746923384484 #
straight-curve $-1 70.560014648884547 9.1475681310512655 8.6447236631363111 0 1 0 I I #
point $-1 70.560014648884547 14.138516597333268 8.644723663136304 #
point $-1 62.953878248141137 16.513727834344266 11.613610453747723 #
point $-1 62.953878248141137 20.076544689860782 11.613610453747723 #
straight-curve $-1 70.560014648884547 31.801699460947294 104.10929150926492 0 0 -1 I I #
point $-1 70.560014648884547 31.801699460947294 19.219746923384484 #
straight-curve $-1 70.560014648884547 17.979159562858278 8.6447236631363111 0 1 0 I I #
point $-1 70.560014648884547 31.801699460947294 8.644723663136304 #
point $-1 62.953878248141137 34.176910697958292 11.613610453747723 #
point $-1 62.953878248141137 37.739727553474808 11.613610453747723 #
straight-curve $-1 -70.560014648884547 -16.607703995861101 64.229153431225811 0 0 -1 I I #
point $-1 -70.560014648884547 -16.607703995861101 19.219746923384484 #
straight-curve $-1 -70.560014648884547 -11.273953951201808 7.4948328552191121 0 -1 0 I I #
point $-1 -70.560014648884547 -16.607703995861101 7.4948328552191104 #
point $-1 -58.666956605960713 -25.093709576636122 9.8019042386921651 #
point $-1 -58.666956605960713 -20.002106228171108 9.8019042386921651 #
straight-curve $-1 0 -66.342291130128174 1.7042049325986195 -1 0 0 I I #
point $-1 70.560014648884547 -66.342291130128174 1.7042049325986195 #
straight-curve $-1 70.560014648884547 -66.342291130128174 6.5014870811714118 0 0 -1 I I #
End-of-ACIS-data 