500 0 16 0           
7 Unknown 11 ACIS 5.0 NT 24 Fri Mar 26 17:37:24 1999 
-1 9.9999999999999995e-007 1e-010 
body $-1 $16 $-1 $17 #
body $-1 $18 $-1 $19 #
body $-1 $20 $-1 $21 #
body $-1 $22 $-1 $23 #
body $-1 $24 $-1 $25 #
body $-1 $26 $-1 $27 #
body $-1 $28 $-1 $29 #
body $-1 $30 $-1 $31 #
body $-1 $32 $-1 $33 #
body $-1 $34 $-1 $35 #
body $-1 $36 $-1 $37 #
body $-1 $38 $-1 $39 #
body $-1 $40 $-1 $41 #
body $-1 $42 $-1 $43 #
body $-1 $44 $-1 $45 #
body $-1 $46 $-1 $47 #
lump $-1 $-1 $48 $0 #
transform $-1 1 0 0 0 1 0 0 0 1 50.620441297647019 26.773203464121572 8.2858272557440138 1 rotate no_reflect no_shear #
lump $-1 $-1 $49 $1 #
transform $-1 1 0 0 0 1 0 0 0 1 50.620441297647019 26.773203464121572 8.2858272557440138 1 rotate no_reflect no_shear #
lump $-1 $-1 $50 $2 #
transform $-1 1 0 0 0 1 0 0 0 1 50.620441297647019 26.773203464121572 8.2858272557440138 1 rotate no_reflect no_shear #
lump $-1 $-1 $51 $3 #
transform $-1 1 0 0 0 1 0 0 0 1 50.620441297647019 26.773203464121572 8.2858272557440138 1 rotate no_reflect no_shear #
lump $-1 $-1 $52 $4 #
transform $-1 1 0 0 0 1 0 0 0 1 50.620441297647019 26.773203464121572 8.2858272557440138 1 rotate no_reflect no_shear #
lump $-1 $-1 $53 $5 #
transform $-1 1 0 0 0 1 0 0 0 1 50.620441297647019 26.773203464121572 8.2858272557440138 1 rotate no_reflect no_shear #
lump $-1 $-1 $54 $6 #
transform $-1 1 0 0 0 1 0 0 0 1 50.620441297647019 26.773203464121572 8.2858272557440138 1 rotate no_reflect no_shear #
lump $-1 $-1 $55 $7 #
transform $-1 1 0 0 0 1 0 0 0 1 50.620441297647019 26.773203464121572 8.2858272557440138 1 rotate no_reflect no_shear #
lump $-1 $-1 $56 $8 #
transform $-1 1 0 0 0 1 0 0 0 1 50.620441297647019 26.773203464121572 8.2858272557440138 1 rotate no_reflect no_shear #
lump $-1 $-1 $57 $9 #
transform $-1 1 0 0 0 1 0 0 0 1 50.620441297647019 26.773203464121572 8.2858272557440138 1 rotate no_reflect no_shear #
lump $-1 $-1 $58 $10 #
transform $-1 1 0 0 0 1 0 0 0 1 50.620441297647019 26.773203464121572 8.2858272557440138 1 rotate no_reflect no_shear #
lump $-1 $-1 $59 $11 #
transform $-1 1 0 0 0 1 0 0 0 1 50.620441297647019 26.773203464121572 8.2858272557440138 1 rotate no_reflect no_shear #
lump $-1 $-1 $60 $12 #
transform $-1 1 0 0 0 1 0 0 0 1 50.620441297647019 26.773203464121572 8.2858272557440138 1 rotate no_reflect no_shear #
lump $-1 $-1 $61 $13 #
transform $-1 1 0 0 0 1 0 0 0 1 50.620441297647019 26.773203464121572 8.2858272557440138 1 rotate no_reflect no_shear #
lump $-1 $-1 $62 $14 #
transform $-1 1 0 0 0 1 0 0 0 1 50.620441297647019 26.773203464121572 8.2858272557440138 1 rotate no_reflect no_shear #
lump $-1 $-1 $63 $15 #
transform $-1 1 0 0 0 1 0 0 0 1 50.620441297647019 26.773203464121572 8.2858272557440138 1 rotate no_reflect no_shear #
shell $-1 $-1 $-1 $64 $-1 $16 #
shell $-1 $-1 $-1 $65 $-1 $18 #
shell $-1 $-1 $-1 $66 $-1 $20 #
shell $-1 $-1 $-1 $67 $-1 $22 #
shell $-1 $-1 $-1 $68 $-1 $24 #
shell $-1 $-1 $-1 $69 $-1 $26 #
shell $-1 $-1 $-1 $70 $-1 $28 #
shell $-1 $-1 $-1 $71 $-1 $30 #
shell $-1 $-1 $-1 $72 $-1 $32 #
shell $-1 $-1 $-1 $73 $-1 $34 #
shell $-1 $-1 $-1 $74 $-1 $36 #
shell $-1 $-1 $-1 $75 $-1 $38 #
shell $-1 $-1 $-1 $76 $-1 $40 #
shell $-1 $-1 $-1 $77 $-1 $42 #
shell $-1 $-1 $-1 $78 $-1 $44 #
shell $-1 $-1 $-1 $79 $-1 $46 #
face $-1 $80 $81 $48 $-1 $82 forward single #
face $-1 $83 $84 $49 $-1 $85 forward single #
face $-1 $86 $87 $50 $-1 $88 reversed single #
face $-1 $89 $90 $51 $-1 $91 forward single #
face $-1 $92 $93 $52 $-1 $94 forward single #
face $-1 $95 $96 $53 $-1 $97 reversed single #
face $-1 $98 $99 $54 $-1 $100 forward single #
face $-1 $101 $102 $55 $-1 $103 forward single #
face $-1 $104 $105 $56 $-1 $106 reversed single #
face $-1 $107 $108 $57 $-1 $109 forward single #
face $-1 $110 $111 $58 $-1 $112 forward single #
face $-1 $113 $114 $59 $-1 $115 reversed single #
face $-1 $116 $117 $60 $-1 $118 forward single #
face $-1 $119 $120 $61 $-1 $121 forward single #
face $-1 $122 $123 $62 $-1 $124 reversed single #
face $-1 $125 $126 $63 $-1 $127 forward single #
face $-1 $128 $129 $48 $-1 $130 reversed single #
loop $-1 $-1 $131 $64 #
plane-surface $-1 0 0 8.2858272557440138 0 0 1 1 0 0 forward_v I I I I #
face $-1 $132 $133 $49 $-1 $134 reversed single #
loop $-1 $-1 $135 $65 #
plane-surface $-1 0 -23.188968067067321 0.56000335966606407 0 0 1 1 0 0 forward_v I I I I #
face $-1 $136 $137 $50 $-1 $138 reversed single #
loop $-1 $-1 $139 $66 #
plane-surface $-1 -119.66655801982238 -17.109074950086768 77.837519609878726 0 1 0 -0.68199836817093118 0 0.7313536940579346 forward_v I I I I #
face $-1 $140 $141 $51 $-1 $142 forward single #
loop $-1 $143 $144 $67 #
cone-surface $-1 -47.84832618817321 -15.314442517371004 5.6498808617193994 0.68199836817093118 0 -0.7313536940579346 0.3656768470289673 0 0.34099918408546559 1 I I 0 1 0.5 forward I I I I #
face $-1 $145 $146 $52 $-1 $147 forward single #
loop $-1 $148 $149 $68 #
cone-surface $-1 -47.84832618817321 -12.622493868297358 5.6498808617193994 0.68199836817093118 0 -0.7313536940579346 0.3656768470289673 0 0.34099918408546559 1 I I 0 1 0.5 forward I I I I #
face $-1 $150 $151 $53 $-1 $152 reversed single #
loop $-1 $-1 $153 $69 #
plane-surface $-1 -119.66655801982238 -5.5145909165531073 77.837519609878726 0 1 0 -0.68199836817093118 0 0.7313536940579346 forward_v I I I I #
face $-1 $154 $155 $54 $-1 $156 forward single #
loop $-1 $157 $158 $70 #
cone-surface $-1 -47.84832618817321 -3.7199584838373454 5.6498808617193994 0.68199836817093118 0 -0.7313536940579346 0.3656768470289673 0 0.34099918408546559 1 I I 0 1 0.5 forward I I I I #
face $-1 $159 $160 $55 $-1 $161 forward single #
loop $-1 $162 $163 $71 #
cone-surface $-1 -47.84832618817321 -1.0280098347636972 5.6498808617193994 0.68199836817093118 0 -0.7313536940579346 0.3656768470289673 0 0.34099918408546559 1 I I 0 1 0.5 forward I I I I #
face $-1 $164 $165 $56 $-1 $166 reversed single #
loop $-1 $-1 $167 $72 #
plane-surface $-1 -119.66655801982238 6.0798931169805535 77.837519609878726 0 1 0 -0.68199836817093118 0 0.7313536940579346 forward_v I I I I #
face $-1 $168 $169 $57 $-1 $170 forward single #
loop $-1 $171 $172 $73 #
cone-surface $-1 -47.84832618817321 7.8745255496963154 5.6498808617193994 0.68199836817093118 0 -0.7313536940579346 0.3656768470289673 0 0.34099918408546559 1 I I 0 1 0.5 forward I I I I #
face $-1 $173 $174 $58 $-1 $175 forward single #
loop $-1 $176 $177 $74 #
cone-surface $-1 -47.84832618817321 10.56647419876996 5.6498808617193994 0.68199836817093118 0 -0.7313536940579346 0.3656768470289673 0 0.34099918408546559 1 I I 0 1 0.5 forward I I I I #
face $-1 $178 $179 $59 $-1 $180 reversed single #
loop $-1 $-1 $181 $75 #
plane-surface $-1 -119.66655801982238 17.674377150514214 77.837519609878726 0 1 0 -0.68199836817093118 0 0.7313536940579346 forward_v I I I I #
face $-1 $182 $183 $60 $-1 $184 forward single #
loop $-1 $185 $186 $76 #
cone-surface $-1 -47.84832618817321 19.469009583229976 5.6498808617193994 0.68199836817093118 0 -0.7313536940579346 0.3656768470289673 0 0.34099918408546559 1 I I 0 1 0.5 forward I I I I #
face $-1 $187 $188 $61 $-1 $189 forward single #
loop $-1 $190 $191 $77 #
cone-surface $-1 -47.84832618817321 22.160958232303621 5.6498808617193994 0.68199836817093118 0 -0.7313536940579346 0.3656768470289673 0 0.34099918408546559 1 I I 0 1 0.5 forward I I I I #
face $-1 $192 $193 $62 $-1 $194 reversed single #
loop $-1 $-1 $195 $78 #
plane-surface $-1 48.121673176963441 16.166368383480958 145.41558316141007 0 -1 0 -0.69465837861970381 0 -0.71933979245794832 forward_v I I I I #
face $-1 $196 $197 $63 $-1 $198 forward single #
loop $-1 $199 $200 $79 #
cone-surface $-1 45.453784811568134 10.277973509086749 3.1534589038928154 -0.69465837861970381 0 -0.71933979245794832 1.0790096886869225 0 -1.0419875679295556 1 I I 0 1 1.5 forward I I I I #
face $-1 $201 $202 $48 $-1 $203 reversed single #
loop $-1 $-1 $204 $80 #
plane-surface $-1 0 0 -8.2858272557440138 0 0 1 1 0 0 forward_v I I I I #
coedge $-1 $205 $206 $207 $208 forward $81 $-1 #
face $-1 $209 $210 $49 $-1 $211 reversed single #
loop $-1 $-1 $212 $83 #
plane-surface $-1 0 -23.188968067067321 -2.4399966403339359 0 0 1 1 0 0 forward_v I I I I #
coedge $-1 $213 $214 $215 $216 reversed $84 $-1 #
face $-1 $217 $218 $50 $-1 $219 reversed single #
loop $-1 $-1 $220 $86 #
plane-surface $-1 -50.620441297647019 -13.96846819283418 3.7946261341247691 -0.68199836817093118 0 0.7313536940579346 0.7313536940579346 0 0.68199836817093118 forward_v I I I I #
coedge $-1 $221 $222 $223 $224 reversed $87 $-1 #
face $-1 $-1 $225 $51 $-1 $226 forward single #
loop $-1 $227 $228 $89 #
cone-surface $-1 -47.313823209755483 -15.314442517371004 5.0766966049899214 0.68199836817093118 0 -0.7313536940579346 0.18283842351448365 0 0.17049959204273279 1 I I -0.70710678118654746 0.70710678118654746 0.25 forward I I I I #
loop $-1 $-1 $229 $67 #
coedge $-1 $144 $144 $230 $231 reversed $90 $-1 #
face $-1 $-1 $232 $52 $-1 $233 forward single #
loop $-1 $234 $235 $92 #
cone-surface $-1 -47.313823209755483 -12.622493868297358 5.0766966049899214 0.68199836817093118 0 -0.7313536940579346 0.18283842351448365 0 0.17049959204273279 1 I I -0.70710678118654746 0.70710678118654746 0.25 forward I I I I #
loop $-1 $-1 $236 $68 #
coedge $-1 $149 $149 $237 $238 reversed $93 $-1 #
face $-1 $239 $240 $53 $-1 $241 reversed single #
loop $-1 $-1 $242 $95 #
plane-surface $-1 -50.620441297647019 -2.3739841593005195 3.7946261341247691 -0.68199836817093118 0 0.7313536940579346 0.7313536940579346 0 0.68199836817093118 forward_v I I I I #
coedge $-1 $243 $244 $245 $246 reversed $96 $-1 #
face $-1 $-1 $247 $54 $-1 $248 forward single #
loop $-1 $249 $250 $98 #
cone-surface $-1 -47.313823209755483 -3.7199584838373454 5.0766966049899214 0.68199836817093118 0 -0.7313536940579346 0.18283842351448365 0 0.17049959204273279 1 I I -0.70710678118654746 0.70710678118654746 0.25 forward I I I I #
loop $-1 $-1 $251 $70 #
coedge $-1 $158 $158 $252 $253 reversed $99 $-1 #
face $-1 $-1 $254 $55 $-1 $255 forward single #
loop $-1 $256 $257 $101 #
cone-surface $-1 -47.313823209755483 -1.0280098347636972 5.0766966049899214 0.68199836817093118 0 -0.7313536940579346 0.18283842351448365 0 0.17049959204273279 1 I I -0.70710678118654746 0.70710678118654746 0.25 forward I I I I #
loop $-1 $-1 $258 $71 #
coedge $-1 $163 $163 $259 $260 reversed $102 $-1 #
face $-1 $261 $262 $56 $-1 $263 reversed single #
loop $-1 $-1 $264 $104 #
plane-surface $-1 -50.620441297647019 9.2204998742331412 3.7946261341247691 -0.68199836817093118 0 0.7313536940579346 0.7313536940579346 0 0.68199836817093118 forward_v I I I I #
coedge $-1 $265 $266 $267 $268 reversed $105 $-1 #
face $-1 $-1 $269 $57 $-1 $270 forward single #
loop $-1 $271 $272 $107 #
cone-surface $-1 -47.313823209755483 7.8745255496963154 5.0766966049899214 0.68199836817093118 0 -0.7313536940579346 0.18283842351448365 0 0.17049959204273279 1 I I -0.70710678118654746 0.70710678118654746 0.25 forward I I I I #
loop $-1 $-1 $273 $73 #
coedge $-1 $172 $172 $274 $275 reversed $108 $-1 #
face $-1 $-1 $276 $58 $-1 $277 forward single #
loop $-1 $278 $279 $110 #
cone-surface $-1 -47.313823209755483 10.56647419876996 5.0766966049899214 0.68199836817093118 0 -0.7313536940579346 0.18283842351448365 0 0.17049959204273279 1 I I -0.70710678118654746 0.70710678118654746 0.25 forward I I I I #
loop $-1 $-1 $280 $74 #
coedge $-1 $177 $177 $281 $282 reversed $111 $-1 #
face $-1 $283 $284 $59 $-1 $285 reversed single #
loop $-1 $-1 $286 $113 #
plane-surface $-1 -50.620441297647019 20.814983907766802 3.7946261341247691 -0.68199836817093118 0 0.7313536940579346 0.7313536940579346 0 0.68199836817093118 forward_v I I I I #
coedge $-1 $287 $288 $289 $290 reversed $114 $-1 #
face $-1 $-1 $291 $60 $-1 $292 forward single #
loop $-1 $293 $294 $116 #
cone-surface $-1 -47.313823209755483 19.469009583229976 5.0766966049899214 0.68199836817093118 0 -0.7313536940579346 0.18283842351448365 0 0.17049959204273279 1 I I -0.70710678118654746 0.70710678118654746 0.25 forward I I I I #
loop $-1 $-1 $295 $76 #
coedge $-1 $186 $186 $296 $297 reversed $117 $-1 #
face $-1 $-1 $298 $61 $-1 $299 forward single #
loop $-1 $300 $301 $119 #
cone-surface $-1 -47.313823209755483 22.160958232303621 5.0766966049899214 0.68199836817093118 0 -0.7313536940579346 0.18283842351448365 0 0.17049959204273279 1 I I -0.70710678118654746 0.70710678118654746 0.25 forward I I I I #
loop $-1 $-1 $302 $77 #
coedge $-1 $191 $191 $303 $304 reversed $120 $-1 #
face $-1 $305 $306 $62 $-1 $307 reversed single #
loop $-1 $-1 $308 $122 #
plane-surface $-1 -22.206154176711308 10.277973509086749 72.588987687051741 0.69465837861970381 0 0.71933979245794832 0.71933979245794832 0 -0.69465837861970381 forward_v I I I I #
coedge $-1 $309 $310 $311 $312 reversed $123 $-1 #
face $-1 $-1 $313 $63 $-1 $314 forward single #
loop $-1 $315 $316 $125 #
cone-surface $-1 42.885497085005966 10.277973509086749 0.4939191688816571 -0.69465837861970381 0 -0.71933979245794832 0.53950484434346124 0 -0.5209937839647778 1 I I -0.70710678118654757 0.70710678118654757 0.75 forward I I I I #
loop $-1 $-1 $317 $79 #
coedge $-1 $200 $200 $318 $319 reversed $126 $-1 #
face $-1 $320 $321 $48 $-1 $322 reversed single #
loop $-1 $-1 $323 $128 #
plane-surface $-1 0 -26.773203464121572 0 0 1 0 0 0 1 forward_v I I I I #
coedge $-1 $324 $325 $326 $327 forward $129 $-1 #
coedge $-1 $328 $131 $329 $330 forward $81 $-1 #
coedge $-1 $131 $328 $331 $332 forward $81 $-1 #
coedge $-1 $333 $334 $131 $208 reversed $335 $-1 #
edge $-1 $336 -26.773203464121572 $337 26.773203464121572 $207 $338 forward 7 unknown #
face $-1 $339 $340 $49 $-1 $341 reversed single #
loop $-1 $-1 $342 $132 #
plane-surface $-1 0 -19.604732670013071 -0.93999664033393593 0 -1 0 0 0 -1 forward_v I I I I #
coedge $-1 $343 $344 $345 $346 reversed $133 $-1 #
coedge $-1 $347 $135 $348 $349 forward $84 $-1 #
coedge $-1 $135 $347 $350 $351 reversed $84 $-1 #
coedge $-1 $352 $353 $135 $216 forward $354 $-1 #
edge $-1 $355 8.0102486364794103 $356 15.178719430587911 $215 $357 forward 7 unknown #
face $-1 $358 $359 $50 $-1 $360 reversed single #
loop $-1 $-1 $361 $136 #
plane-surface $-1 -119.66655801982238 -10.827861435581593 77.837519609878726 0 -1 0 0.68199836817093118 0 -0.7313536940579346 forward_v I I I I #
coedge $-1 $362 $363 $364 $365 reversed $137 $-1 #
coedge $-1 $222 $139 $366 $367 reversed $87 $-1 #
coedge $-1 $139 $221 $362 $368 reversed $87 $-1 #
coedge $-1 $364 $369 $139 $224 forward $370 $-1 #
edge $-1 $371 9.212837712264168 $372 14.029061158461815 $223 $373 forward 7 unknown #
loop $-1 $-1 $230 $140 #
plane-surface $-1 -50.620441297647019 -13.96846819283418 3.7946261341247691 -0.68199836817093118 0 0.7313536940579346 0.7313536940579346 0 0.68199836817093118 forward_v I I I I #
loop $-1 $-1 $374 $89 #
coedge $-1 $228 $228 $229 $375 reversed $141 $-1 #
coedge $-1 $229 $229 $228 $375 forward $143 $-1 #
coedge $-1 $230 $230 $144 $231 forward $225 $-1 #
edge $-1 $376 0 $376 6.2831853071796004 $230 $377 forward 7 unknown #
loop $-1 $-1 $237 $145 #
plane-surface $-1 -50.620441297647019 -13.96846819283418 3.7946261341247691 -0.68199836817093118 0 0.7313536940579346 0.7313536940579346 0 0.68199836817093118 forward_v I I I I #
loop $-1 $-1 $378 $92 #
coedge $-1 $235 $235 $236 $379 reversed $146 $-1 #
coedge $-1 $236 $236 $235 $379 forward $148 $-1 #
coedge $-1 $237 $237 $149 $238 forward $232 $-1 #
edge $-1 $380 0 $380 6.2831853071796004 $237 $381 forward 7 unknown #
face $-1 $382 $383 $53 $-1 $384 forward single #
loop $-1 $-1 $385 $150 #
plane-surface $-1 -119.66655801982238 0.76662259795206822 77.837519609878726 0 -1 0 0.68199836817093118 0 -0.7313536940579346 forward_v I I I I #
coedge $-1 $386 $387 $388 $389 reversed $151 $-1 #
coedge $-1 $244 $153 $390 $391 reversed $96 $-1 #
coedge $-1 $153 $243 $386 $392 reversed $96 $-1 #
coedge $-1 $388 $393 $153 $246 forward $383 $-1 #
edge $-1 $394 9.212837712264168 $395 14.029061158461815 $245 $396 forward 7 unknown #
loop $-1 $-1 $252 $154 #
plane-surface $-1 -50.620441297647019 -2.3739841593005195 3.7946261341247691 -0.68199836817093118 0 0.7313536940579346 0.7313536940579346 0 0.68199836817093118 forward_v I I I I #
loop $-1 $-1 $397 $98 #
coedge $-1 $250 $250 $251 $398 reversed $155 $-1 #
coedge $-1 $251 $251 $250 $398 forward $157 $-1 #
coedge $-1 $252 $252 $158 $253 forward $247 $-1 #
edge $-1 $399 0 $399 6.2831853071796004 $252 $400 forward 7 unknown #
loop $-1 $-1 $259 $159 #
plane-surface $-1 -50.620441297647019 -2.3739841593005195 3.7946261341247691 -0.68199836817093118 0 0.7313536940579346 0.7313536940579346 0 0.68199836817093118 forward_v I I I I #
loop $-1 $-1 $401 $101 #
coedge $-1 $257 $257 $258 $402 reversed $160 $-1 #
coedge $-1 $258 $258 $257 $402 forward $162 $-1 #
coedge $-1 $259 $259 $163 $260 forward $254 $-1 #
edge $-1 $403 0 $403 6.2831853071796004 $259 $404 forward 7 unknown #
face $-1 $405 $406 $56 $-1 $407 forward single #
loop $-1 $-1 $408 $164 #
plane-surface $-1 -119.66655801982238 12.361106631485729 77.837519609878726 0 -1 0 0.68199836817093118 0 -0.7313536940579346 forward_v I I I I #
coedge $-1 $409 $410 $411 $412 reversed $165 $-1 #
coedge $-1 $266 $167 $413 $414 reversed $105 $-1 #
coedge $-1 $167 $265 $409 $415 reversed $105 $-1 #
coedge $-1 $411 $416 $167 $268 forward $406 $-1 #
edge $-1 $417 9.212837712264168 $418 14.029061158461815 $267 $419 forward 7 unknown #
loop $-1 $-1 $274 $168 #
plane-surface $-1 -50.620441297647019 9.2204998742331412 3.7946261341247691 -0.68199836817093118 0 0.7313536940579346 0.7313536940579346 0 0.68199836817093118 forward_v I I I I #
loop $-1 $-1 $420 $107 #
coedge $-1 $272 $272 $273 $421 reversed $169 $-1 #
coedge $-1 $273 $273 $272 $421 forward $171 $-1 #
coedge $-1 $274 $274 $172 $275 forward $269 $-1 #
edge $-1 $422 0 $422 6.2831853071796004 $274 $423 forward 7 unknown #
loop $-1 $-1 $281 $173 #
plane-surface $-1 -50.620441297647019 9.2204998742331412 3.7946261341247691 -0.68199836817093118 0 0.7313536940579346 0.7313536940579346 0 0.68199836817093118 forward_v I I I I #
loop $-1 $-1 $424 $110 #
coedge $-1 $279 $279 $280 $425 reversed $174 $-1 #
coedge $-1 $280 $280 $279 $425 forward $176 $-1 #
coedge $-1 $281 $281 $177 $282 forward $276 $-1 #
edge $-1 $426 0 $426 6.2831853071796004 $281 $427 forward 7 unknown #
face $-1 $428 $429 $59 $-1 $430 forward single #
loop $-1 $-1 $431 $178 #
plane-surface $-1 -119.66655801982238 23.95559066501939 77.837519609878726 0 -1 0 0.68199836817093118 0 -0.7313536940579346 forward_v I I I I #
coedge $-1 $432 $433 $434 $435 reversed $179 $-1 #
coedge $-1 $288 $181 $436 $437 reversed $114 $-1 #
coedge $-1 $181 $287 $432 $438 reversed $114 $-1 #
coedge $-1 $434 $439 $181 $290 forward $429 $-1 #
edge $-1 $440 9.212837712264168 $441 14.029061158461815 $289 $442 forward 7 unknown #
loop $-1 $-1 $296 $182 #
plane-surface $-1 -50.620441297647019 20.814983907766802 3.7946261341247691 -0.68199836817093118 0 0.7313536940579346 0.7313536940579346 0 0.68199836817093118 forward_v I I I I #
loop $-1 $-1 $443 $116 #
coedge $-1 $294 $294 $295 $444 reversed $183 $-1 #
coedge $-1 $295 $295 $294 $444 forward $185 $-1 #
coedge $-1 $296 $296 $186 $297 forward $291 $-1 #
edge $-1 $445 0 $445 6.2831853071796004 $296 $446 forward 7 unknown #
loop $-1 $-1 $303 $187 #
plane-surface $-1 -50.620441297647019 20.814983907766802 3.7946261341247691 -0.68199836817093118 0 0.7313536940579346 0.7313536940579346 0 0.68199836817093118 forward_v I I I I #
loop $-1 $-1 $447 $119 #
coedge $-1 $301 $301 $302 $448 reversed $188 $-1 #
coedge $-1 $302 $302 $301 $448 forward $190 $-1 #
coedge $-1 $303 $303 $191 $304 forward $298 $-1 #
edge $-1 $449 0 $449 6.2831853071796004 $303 $450 forward 7 unknown #
face $-1 $451 $452 $62 $-1 $453 forward single #
loop $-1 $-1 $454 $192 #
plane-surface $-1 48.121673176963441 4.3895786346925387 145.41558316141007 0 1 0 0.69465837861970381 0 0.71933979245794832 forward_v I I I I #
coedge $-1 $455 $456 $457 $458 reversed $193 $-1 #
coedge $-1 $310 $195 $459 $460 reversed $123 $-1 #
coedge $-1 $195 $309 $455 $461 reversed $123 $-1 #
coedge $-1 $457 $462 $195 $312 forward $452 $-1 #
edge $-1 $463 -26.559604709165299 $464 -20.320879622202341 $311 $465 forward 7 unknown #
loop $-1 $-1 $318 $196 #
plane-surface $-1 -22.206154176711308 10.277973509086749 72.588987687051741 0.69465837861970381 0 0.71933979245794832 0.71933979245794832 0 -0.69465837861970381 forward_v I I I I #
loop $-1 $-1 $466 $125 #
coedge $-1 $316 $316 $317 $467 reversed $197 $-1 #
coedge $-1 $317 $317 $316 $467 forward $199 $-1 #
coedge $-1 $318 $318 $200 $319 forward $313 $-1 #
edge $-1 $468 0 $468 6.2831853071796004 $318 $469 forward 7 unknown #
face $-1 $470 $471 $48 $-1 $472 reversed single #
loop $-1 $-1 $473 $201 #
plane-surface $-1 -50.620441297647019 0 0 1 0 0 0 0 -1 forward_v I I I I #
coedge $-1 $474 $331 $475 $476 forward $202 $-1 #
coedge $-1 $477 $204 $474 $478 forward $129 $-1 #
coedge $-1 $204 $477 $479 $480 forward $129 $-1 #
coedge $-1 $334 $333 $204 $327 reversed $335 $-1 #
edge $-1 $481 -26.773203464121572 $482 26.773203464121572 $326 $483 forward 7 unknown #
coedge $-1 $206 $205 $484 $485 forward $81 $-1 #
coedge $-1 $486 $487 $205 $330 reversed $471 $-1 #
edge $-1 $337 -50.620441297647019 $488 50.620441297647019 $329 $489 forward 7 unknown #
coedge $-1 $323 $490 $206 $332 reversed $202 $-1 #
edge $-1 $491 -50.620441297647019 $336 50.620441297647019 $331 $492 forward 7 unknown #
coedge $-1 $326 $207 $490 $493 forward $335 $-1 #
coedge $-1 $207 $326 $486 $494 reversed $335 $-1 #
loop $-1 $-1 $333 $470 #
vertex $-1 $208 $495 #
vertex $-1 $208 $496 #
straight-curve $-1 50.620441297647019 0 8.2858272557440138 0 1 0 I I #
face $-1 $497 $498 $49 $-1 $499 reversed single #
loop $-1 $-1 $500 $209 #
plane-surface $-1 -50.620441297647019 0 0 1 0 0 0 0 -1 forward_v I I I I #
coedge $-1 $501 $348 $353 $502 reversed $210 $-1 #
coedge $-1 $503 $212 $504 $505 reversed $133 $-1 #
coedge $-1 $212 $503 $501 $506 forward $133 $-1 #
coedge $-1 $353 $352 $212 $346 forward $354 $-1 #
edge $-1 $507 -15.178719430587911 $508 -8.0102486364794103 $345 $509 forward 7 unknown #
coedge $-1 $214 $213 $500 $510 reversed $84 $-1 #
coedge $-1 $342 $511 $213 $349 reversed $210 $-1 #
edge $-1 $355 -50.620441297647019 $512 50.620441297647019 $348 $513 forward 7 unknown #
coedge $-1 $514 $515 $214 $351 forward $498 $-1 #
edge $-1 $356 -50.620441297647019 $516 50.620441297647019 $350 $517 forward 7 unknown #
coedge $-1 $345 $215 $515 $518 forward $354 $-1 #
coedge $-1 $215 $345 $342 $502 forward $354 $-1 #
loop $-1 $-1 $215 $497 #
vertex $-1 $216 $519 #
vertex $-1 $518 $520 #
straight-curve $-1 50.620441297647019 -11.594484033533661 0.56000335966606407 0 -1 0 I I #
face $-1 $-1 $370 $50 $-1 $521 forward single #
loop $-1 $-1 $522 $217 #
plane-surface $-1 -50.620441297647019 0 0 1 0 0 0 0 -1 forward_v I I I I #
coedge $-1 $523 $524 $525 $526 reversed $218 $-1 #
coedge $-1 $527 $220 $222 $368 forward $137 $-1 #
coedge $-1 $220 $527 $523 $528 forward $137 $-1 #
coedge $-1 $525 $223 $220 $365 forward $370 $-1 #
edge $-1 $372 -10.124840853669678 $529 -3.8436273391645024 $364 $530 forward 7 unknown #
coedge $-1 $531 $532 $221 $367 forward $359 $-1 #
edge $-1 $533 -35.124133670814594 $371 -30.632932549195349 $366 $534 forward 7 unknown #
edge $-1 $372 -6.5853546448568654 $533 0 $222 $535 forward 7 unknown #
coedge $-1 $223 $525 $531 $536 forward $370 $-1 #
loop $-1 $-1 $525 $358 #
vertex $-1 $367 $537 #
vertex $-1 $224 $538 #
straight-curve $-1 -59.833279009911188 -17.109074950086768 8.2858272557440174 1 0 0 I I #
coedge $-1 $374 $374 $-1 $539 reversed $227 $-1 #
edge $-1 $540 0 $540 6.2831853071796004 $228 $541 forward 7 unknown #
vertex $-1 $231 $542 #
ellipse-curve $-1 -48.2123295745482 -15.314442517371004 6.0402266949343888 -0.68199836817093118 0 0.7313536940579346 0.3656768470289673 0 0.34099918408546559 1 I I #
coedge $-1 $378 $378 $-1 $543 reversed $234 $-1 #
edge $-1 $544 0 $544 6.2831853071796004 $235 $545 forward 7 unknown #
vertex $-1 $238 $546 #
ellipse-curve $-1 -48.2123295745482 -12.622493868297358 6.0402266949343888 -0.68199836817093118 0 0.7313536940579346 0.3656768470289673 0 0.34099918408546559 1 I I #
face $-1 $-1 $547 $53 $-1 $548 reversed single #
loop $-1 $-1 $245 $239 #
plane-surface $-1 0 0 8.2858272557440138 0 0 1 1 0 0 forward_v I I I I #
coedge $-1 $549 $550 $551 $552 reversed $240 $-1 #
coedge $-1 $553 $242 $244 $392 forward $151 $-1 #
coedge $-1 $242 $553 $549 $554 forward $151 $-1 #
coedge $-1 $551 $245 $242 $389 forward $383 $-1 #
edge $-1 $395 -4.3275988369028475 $555 1.953614677602328 $388 $556 forward 7 unknown #
coedge $-1 $557 $558 $243 $391 forward $547 $-1 #
edge $-1 $559 -35.124133670814594 $394 -30.632932549195349 $390 $560 forward 7 unknown #
edge $-1 $395 -6.5853546448568654 $559 0 $244 $561 forward 7 unknown #
coedge $-1 $245 $551 $557 $562 forward $383 $-1 #
vertex $-1 $246 $563 #
vertex $-1 $246 $564 #
straight-curve $-1 -59.833279009911188 -5.5145909165531073 8.2858272557440174 1 0 0 I I #
coedge $-1 $397 $397 $-1 $565 reversed $249 $-1 #
edge $-1 $566 0 $566 6.2831853071796004 $250 $567 forward 7 unknown #
vertex $-1 $253 $568 #
ellipse-curve $-1 -48.2123295745482 -3.7199584838373454 6.0402266949343888 -0.68199836817093118 0 0.7313536940579346 0.3656768470289673 0 0.34099918408546559 1 I I #
coedge $-1 $401 $401 $-1 $569 reversed $256 $-1 #
edge $-1 $570 0 $570 6.2831853071796004 $257 $571 forward 7 unknown #
vertex $-1 $260 $572 #
ellipse-curve $-1 -48.2123295745482 -1.0280098347636972 6.0402266949343888 -0.68199836817093118 0 0.7313536940579346 0.3656768470289673 0 0.34099918408546559 1 I I #
face $-1 $-1 $573 $56 $-1 $574 reversed single #
loop $-1 $-1 $267 $261 #
plane-surface $-1 0 0 8.2858272557440138 0 0 1 1 0 0 forward_v I I I I #
coedge $-1 $575 $576 $577 $578 reversed $262 $-1 #
coedge $-1 $579 $264 $266 $415 forward $165 $-1 #
coedge $-1 $264 $579 $575 $580 forward $165 $-1 #
coedge $-1 $577 $267 $264 $412 forward $406 $-1 #
edge $-1 $418 1.4696431798639829 $581 7.7508566943691584 $411 $582 forward 7 unknown #
coedge $-1 $583 $584 $265 $414 forward $573 $-1 #
edge $-1 $585 -35.124133670814594 $417 -30.632932549195349 $413 $586 forward 7 unknown #
edge $-1 $418 -6.5853546448568654 $585 0 $266 $587 forward 7 unknown #
coedge $-1 $267 $577 $583 $588 forward $406 $-1 #
vertex $-1 $268 $589 #
vertex $-1 $268 $590 #
straight-curve $-1 -59.833279009911188 6.0798931169805535 8.2858272557440174 1 0 0 I I #
coedge $-1 $420 $420 $-1 $591 reversed $271 $-1 #
edge $-1 $592 0 $592 6.2831853071796004 $272 $593 forward 7 unknown #
vertex $-1 $275 $594 #
ellipse-curve $-1 -48.2123295745482 7.8745255496963154 6.0402266949343888 -0.68199836817093118 0 0.7313536940579346 0.3656768470289673 0 0.34099918408546559 1 I I #
coedge $-1 $424 $424 $-1 $595 reversed $278 $-1 #
edge $-1 $596 0 $596 6.2831853071796004 $279 $597 forward 7 unknown #
vertex $-1 $282 $598 #
ellipse-curve $-1 -48.2123295745482 10.56647419876996 6.0402266949343888 -0.68199836817093118 0 0.7313536940579346 0.3656768470289673 0 0.34099918408546559 1 I I #
face $-1 $-1 $599 $59 $-1 $600 reversed single #
loop $-1 $-1 $289 $283 #
plane-surface $-1 0 0 8.2858272557440138 0 0 1 1 0 0 forward_v I I I I #
coedge $-1 $601 $602 $603 $604 reversed $284 $-1 #
coedge $-1 $605 $286 $288 $438 forward $179 $-1 #
coedge $-1 $286 $605 $601 $606 forward $179 $-1 #
coedge $-1 $603 $289 $286 $435 forward $429 $-1 #
edge $-1 $441 7.2668851966308132 $607 13.548098711135989 $434 $608 forward 7 unknown #
coedge $-1 $609 $610 $287 $437 forward $599 $-1 #
edge $-1 $611 -35.124133670814594 $440 -30.632932549195349 $436 $612 forward 7 unknown #
edge $-1 $441 -6.5853546448568654 $611 0 $288 $613 forward 7 unknown #
coedge $-1 $289 $603 $609 $614 forward $429 $-1 #
vertex $-1 $290 $615 #
vertex $-1 $290 $616 #
straight-curve $-1 -59.833279009911188 17.674377150514214 8.2858272557440174 1 0 0 I I #
coedge $-1 $443 $443 $-1 $617 reversed $293 $-1 #
edge $-1 $618 0 $618 6.2831853071796004 $294 $619 forward 7 unknown #
vertex $-1 $297 $620 #
ellipse-curve $-1 -48.2123295745482 19.469009583229976 6.0402266949343888 -0.68199836817093118 0 0.7313536940579346 0.3656768470289673 0 0.34099918408546559 1 I I #
coedge $-1 $447 $447 $-1 $621 reversed $300 $-1 #
edge $-1 $622 0 $622 6.2831853071796004 $301 $623 forward 7 unknown #
vertex $-1 $304 $624 #
ellipse-curve $-1 -48.2123295745482 22.160958232303621 6.0402266949343888 -0.68199836817093118 0 0.7313536940579346 0.3656768470289673 0 0.34099918408546559 1 I I #
face $-1 $-1 $625 $62 $-1 $626 reversed single #
loop $-1 $-1 $311 $305 #
plane-surface $-1 0 0 8.2858272557440138 0 0 1 1 0 0 forward_v I I I I #
coedge $-1 $627 $628 $629 $630 reversed $306 $-1 #
coedge $-1 $631 $308 $310 $461 forward $193 $-1 #
coedge $-1 $308 $631 $627 $632 forward $193 $-1 #
coedge $-1 $629 $311 $308 $458 forward $452 $-1 #
edge $-1 $464 -11.027381628937583 $633 0.74940811985083577 $457 $634 forward 7 unknown #
coedge $-1 $635 $636 $309 $460 forward $625 $-1 #
edge $-1 $637 -70.446631247328042 $463 -64.421964324961024 $459 $638 forward 7 unknown #
edge $-1 $464 92.568034030020669 $637 101.24088259529404 $310 $639 forward 7 unknown #
coedge $-1 $311 $629 $635 $640 forward $452 $-1 #
vertex $-1 $460 $641 #
vertex $-1 $312 $642 #
straight-curve $-1 24.06083658848172 16.166368383480958 8.2858272557440102 -1 0 0 I I #
coedge $-1 $466 $466 $-1 $643 reversed $315 $-1 #
edge $-1 $644 0 $644 6.2831853071796004 $316 $645 forward 7 unknown #
vertex $-1 $319 $646 #
ellipse-curve $-1 47.50107875416554 10.277973509086749 5.2734937945605234 0.69465837861970381 0 0.71933979245794832 1.0790096886869225 0 -1.0419875679295556 1 I I #
face $-1 $-1 $335 $48 $-1 $647 reversed single #
loop $-1 $-1 $486 $320 #
plane-surface $-1 0 26.773203464121572 0 0 -1 0 0 0 -1 forward_v I I I I #
coedge $-1 $648 $484 $487 $649 forward $321 $-1 #
coedge $-1 $490 $323 $324 $478 reversed $202 $-1 #
coedge $-1 $484 $648 $323 $476 reversed $321 $-1 #
edge $-1 $491 -8.2858272557440138 $650 8.2858272557440138 $475 $651 forward 7 unknown #
coedge $-1 $325 $324 $648 $652 forward $129 $-1 #
edge $-1 $482 -50.620441297647019 $650 50.620441297647019 $474 $653 forward 7 unknown #
coedge $-1 $487 $486 $325 $480 reversed $471 $-1 #
edge $-1 $654 -50.620441297647019 $481 50.620441297647019 $479 $655 forward 7 unknown #
vertex $-1 $327 $656 #
vertex $-1 $493 $657 #
straight-curve $-1 50.620441297647019 0 -8.2858272557440138 0 -1 0 I I #
coedge $-1 $473 $475 $328 $485 reversed $321 $-1 #
edge $-1 $488 -26.773203464121572 $491 26.773203464121572 $484 $658 forward 7 unknown #
coedge $-1 $479 $329 $334 $494 forward $471 $-1 #
coedge $-1 $329 $479 $473 $649 reversed $471 $-1 #
vertex $-1 $330 $659 #
straight-curve $-1 0 26.773203464121572 8.2858272557440138 -1 0 0 I I #
coedge $-1 $331 $474 $333 $493 reversed $202 $-1 #
vertex $-1 $485 $660 #
straight-curve $-1 0 -26.773203464121572 8.2858272557440138 1 0 0 I I #
edge $-1 $336 -8.2858272557440138 $482 8.2858272557440138 $333 $661 forward 7 unknown #
edge $-1 $337 -8.2858272557440138 $481 8.2858272557440138 $334 $662 forward 7 unknown #
point $-1 50.620441297647019 -26.773203464121572 8.2858272557440138 #
point $-1 50.620441297647019 26.773203464121572 8.2858272557440138 #
face $-1 $-1 $354 $49 $-1 $663 reversed single #
loop $-1 $-1 $350 $339 #
plane-surface $-1 0 -26.773203464121572 0 0 1 0 0 0 1 forward_v I I I I #
coedge $-1 $664 $665 $347 $510 forward $340 $-1 #
coedge $-1 $511 $342 $344 $506 reversed $210 $-1 #
edge $-1 $508 -1.969998320166968 $355 1.030001679833032 $353 $666 forward 7 unknown #
coedge $-1 $344 $343 $667 $668 reversed $133 $-1 #
coedge $-1 $515 $514 $343 $505 forward $498 $-1 #
edge $-1 $669 -50.620441297647019 $507 50.620441297647019 $504 $670 forward 7 unknown #
edge $-1 $671 -50.620441297647019 $508 50.620441297647019 $501 $672 forward 7 unknown #
vertex $-1 $505 $673 #
vertex $-1 $346 $674 #
straight-curve $-1 50.620441297647019 -11.594484033533661 -2.4399966403339359 0 1 0 I I #
edge $-1 $516 -15.178719430587911 $512 -8.0102486364794103 $500 $675 forward 7 unknown #
coedge $-1 $348 $501 $664 $676 reversed $210 $-1 #
vertex $-1 $510 $677 #
straight-curve $-1 0 -19.604732670013071 0.56000335966606407 -1 0 0 I I #
coedge $-1 $504 $350 $665 $678 forward $498 $-1 #
coedge $-1 $350 $504 $352 $518 reversed $498 $-1 #
vertex $-1 $678 $679 #
straight-curve $-1 0 -26.773203464121572 0.56000335966606407 -1 0 0 I I #
edge $-1 $356 -0.56000335966606407 $507 2.4399966403339359 $352 $680 forward 7 unknown #
point $-1 50.620441297647019 -19.604732670013071 0.56000335966606407 #
point $-1 50.620441297647019 -26.773203464121572 0.56000335966606407 #
plane-surface $-1 0 0 8.2858272557440138 0 0 1 1 0 0 forward_v I I I I #
coedge $-1 $532 $531 $524 $681 forward $359 $-1 #
coedge $-1 $524 $361 $363 $528 reversed $218 $-1 #
coedge $-1 $361 $523 $522 $681 reversed $218 $-1 #
coedge $-1 $369 $364 $361 $526 forward $370 $-1 #
edge $-1 $529 -14.029061158461815 $682 -9.212837712264168 $525 $683 forward 7 unknown #
coedge $-1 $363 $362 $532 $684 reversed $137 $-1 #
edge $-1 $685 0 $529 6.5853546448568654 $523 $686 forward 7 unknown #
vertex $-1 $365 $687 #
straight-curve $-1 -45.804217851449373 -6.9842340964170901 8.2858272557440156 0 1 0 I I #
coedge $-1 $522 $366 $369 $536 reversed $359 $-1 #
coedge $-1 $366 $522 $527 $684 forward $359 $-1 #
vertex $-1 $367 $688 #
straight-curve $-1 -50.620441297647019 -17.109074950086768 38.918759804939363 0 0 1 I I #
straight-curve $-1 -50.620441297647019 -17.109074950086768 3.7946261341247691 -0.7313536940579346 0 -0.68199836817093118 I I #
edge $-1 $682 10.827861435581593 $371 17.109074950086768 $531 $689 forward 7 unknown #
point $-1 -50.620441297647019 -17.109074950086768 8.2858272557440138 #
point $-1 -45.804217851449373 -17.109074950086768 8.2858272557440138 #
edge $-1 $690 1 $690 0 $374 $-1 forward 7 unknown #
vertex $-1 $375 $691 #
ellipse-curve $-1 -47.484322801798214 -15.314442517371004 5.2595350285044047 -0.68199836817093118 0 0.7313536940579346 0.3656768470289673 0 0.34099918408546559 1 I I #
point $-1 -47.846652727519235 -15.314442517371004 6.3812258790198584 #
edge $-1 $692 1 $692 0 $378 $-1 forward 7 unknown #
vertex $-1 $379 $693 #
ellipse-curve $-1 -47.484322801798214 -12.622493868297358 5.2595350285044047 -0.68199836817093118 0 0.7313536940579346 0.3656768470289673 0 0.34099918408546559 1 I I #
point $-1 -47.846652727519235 -12.622493868297358 6.3812258790198584 #
loop $-1 $-1 $390 $382 #
plane-surface $-1 -50.620441297647019 0 0 1 0 0 0 0 -1 forward_v I I I I #
coedge $-1 $550 $385 $387 $554 reversed $240 $-1 #
coedge $-1 $385 $549 $694 $695 reversed $240 $-1 #
coedge $-1 $393 $388 $385 $552 forward $383 $-1 #
edge $-1 $555 -14.029061158461815 $696 -9.212837712264168 $551 $697 forward 7 unknown #
coedge $-1 $387 $386 $558 $698 reversed $151 $-1 #
edge $-1 $699 0 $555 6.5853546448568654 $549 $700 forward 7 unknown #
vertex $-1 $389 $701 #
straight-curve $-1 -45.804217851449373 -1.1869920796502598 8.2858272557440156 0 1 0 I I #
coedge $-1 $694 $390 $393 $562 reversed $547 $-1 #
coedge $-1 $390 $694 $553 $698 forward $547 $-1 #
vertex $-1 $391 $702 #
straight-curve $-1 -50.620441297647019 -5.5145909165531073 38.918759804939363 0 0 1 I I #
straight-curve $-1 -50.620441297647019 -5.5145909165531073 3.7946261341247691 -0.7313536940579346 0 -0.68199836817093118 I I #
edge $-1 $696 -0.76662259795206822 $394 5.5145909165531073 $557 $703 forward 7 unknown #
point $-1 -50.620441297647019 -5.5145909165531073 8.2858272557440138 #
point $-1 -45.804217851449373 -5.5145909165531073 8.2858272557440138 #
edge $-1 $704 1 $704 0 $397 $-1 forward 7 unknown #
vertex $-1 $398 $705 #
ellipse-curve $-1 -47.484322801798214 -3.7199584838373454 5.2595350285044047 -0.68199836817093118 0 0.7313536940579346 0.3656768470289673 0 0.34099918408546559 1 I I #
point $-1 -47.846652727519235 -3.7199584838373454 6.3812258790198584 #
edge $-1 $706 1 $706 0 $401 $-1 forward 7 unknown #
vertex $-1 $402 $707 #
ellipse-curve $-1 -47.484322801798214 -1.0280098347636972 5.2595350285044047 -0.68199836817093118 0 0.7313536940579346 0.3656768470289673 0 0.34099918408546559 1 I I #
point $-1 -47.846652727519235 -1.0280098347636972 6.3812258790198584 #
loop $-1 $-1 $413 $405 #
plane-surface $-1 -50.620441297647019 0 0 1 0 0 0 0 -1 forward_v I I I I #
coedge $-1 $576 $408 $410 $580 reversed $262 $-1 #
coedge $-1 $408 $575 $708 $709 reversed $262 $-1 #
coedge $-1 $416 $411 $408 $578 forward $406 $-1 #
edge $-1 $581 -14.029061158461815 $710 -9.212837712264168 $577 $711 forward 7 unknown #
coedge $-1 $410 $409 $584 $712 reversed $165 $-1 #
edge $-1 $713 0 $581 6.5853546448568654 $575 $714 forward 7 unknown #
vertex $-1 $412 $715 #
straight-curve $-1 -45.804217851449373 4.6102499371165706 8.2858272557440156 0 1 0 I I #
coedge $-1 $708 $413 $416 $588 reversed $573 $-1 #
coedge $-1 $413 $708 $579 $712 forward $573 $-1 #
vertex $-1 $414 $716 #
straight-curve $-1 -50.620441297647019 6.0798931169805535 38.918759804939363 0 0 1 I I #
straight-curve $-1 -50.620441297647019 6.0798931169805535 3.7946261341247691 -0.7313536940579346 0 -0.68199836817093118 I I #
edge $-1 $710 -12.361106631485729 $417 -6.0798931169805535 $583 $717 forward 7 unknown #
point $-1 -50.620441297647019 6.0798931169805535 8.2858272557440138 #
point $-1 -45.804217851449373 6.0798931169805535 8.2858272557440138 #
edge $-1 $718 1 $718 0 $420 $-1 forward 7 unknown #
vertex $-1 $421 $719 #
ellipse-curve $-1 -47.484322801798214 7.8745255496963154 5.2595350285044047 -0.68199836817093118 0 0.7313536940579346 0.3656768470289673 0 0.34099918408546559 1 I I #
point $-1 -47.846652727519235 7.8745255496963154 6.3812258790198584 #
edge $-1 $720 1 $720 0 $424 $-1 forward 7 unknown #
vertex $-1 $425 $721 #
ellipse-curve $-1 -47.484322801798214 10.56647419876996 5.2595350285044047 -0.68199836817093118 0 0.7313536940579346 0.3656768470289673 0 0.34099918408546559 1 I I #
point $-1 -47.846652727519235 10.56647419876996 6.3812258790198584 #
loop $-1 $-1 $436 $428 #
plane-surface $-1 -50.620441297647019 0 0 1 0 0 0 0 -1 forward_v I I I I #
coedge $-1 $602 $431 $433 $606 reversed $284 $-1 #
coedge $-1 $431 $601 $722 $723 reversed $284 $-1 #
coedge $-1 $439 $434 $431 $604 forward $429 $-1 #
edge $-1 $607 -14.029061158461815 $724 -9.212837712264168 $603 $725 forward 7 unknown #
coedge $-1 $433 $432 $610 $726 reversed $179 $-1 #
edge $-1 $727 0 $607 6.5853546448568654 $601 $728 forward 7 unknown #
vertex $-1 $435 $729 #
straight-curve $-1 -45.804217851449373 10.407491953883401 8.2858272557440156 0 1 0 I I #
coedge $-1 $722 $436 $439 $614 reversed $599 $-1 #
coedge $-1 $436 $722 $605 $726 forward $599 $-1 #
vertex $-1 $437 $730 #
straight-curve $-1 -50.620441297647019 17.674377150514214 38.918759804939363 0 0 1 I I #
straight-curve $-1 -50.620441297647019 17.674377150514214 3.7946261341247691 -0.7313536940579346 0 -0.68199836817093118 I I #
edge $-1 $724 -23.95559066501939 $440 -17.674377150514214 $609 $731 forward 7 unknown #
point $-1 -50.620441297647019 17.674377150514214 8.2858272557440138 #
point $-1 -45.804217851449373 17.674377150514214 8.2858272557440138 #
edge $-1 $732 1 $732 0 $443 $-1 forward 7 unknown #
vertex $-1 $444 $733 #
ellipse-curve $-1 -47.484322801798214 19.469009583229976 5.2595350285044047 -0.68199836817093118 0 0.7313536940579346 0.3656768470289673 0 0.34099918408546559 1 I I #
point $-1 -47.846652727519235 19.469009583229976 6.3812258790198584 #
edge $-1 $734 1 $734 0 $447 $-1 forward 7 unknown #
vertex $-1 $448 $735 #
ellipse-curve $-1 -47.484322801798214 22.160958232303621 5.2595350285044047 -0.68199836817093118 0 0.7313536940579346 0.3656768470289673 0 0.34099918408546559 1 I I #
point $-1 -47.846652727519235 22.160958232303621 6.3812258790198584 #
loop $-1 $-1 $459 $451 #
plane-surface $-1 50.620441297647019 0 0 -1 0 0 0 0 1 forward_v I I I I #
coedge $-1 $628 $454 $456 $632 reversed $306 $-1 #
coedge $-1 $454 $627 $736 $737 reversed $306 $-1 #
coedge $-1 $462 $457 $454 $630 forward $452 $-1 #
edge $-1 $633 20.320879622202341 $738 26.559604709165299 $629 $739 forward 7 unknown #
coedge $-1 $456 $455 $636 $740 reversed $193 $-1 #
edge $-1 $741 -101.24088259529404 $633 -92.568034030020669 $627 $742 forward 7 unknown #
vertex $-1 $458 $743 #
straight-curve $-1 44.381716210684047 5.1389867545433745 8.2858272557440174 0 -1 0 I I #
coedge $-1 $736 $459 $462 $640 reversed $625 $-1 #
coedge $-1 $459 $736 $631 $740 forward $625 $-1 #
vertex $-1 $460 $744 #
straight-curve $-1 50.620441297647019 16.166368383480958 72.707791580705035 0 0 1 I I #
straight-curve $-1 -22.206154176711308 16.166368383480958 72.588987687051741 0.71933979245794832 0 -0.69465837861970381 I I #
edge $-1 $738 4.3895786346925387 $463 16.166368383480958 $635 $745 forward 7 unknown #
point $-1 50.620441297647019 16.166368383480958 8.2858272557440138 #
point $-1 44.381716210684061 16.166368383480958 8.2858272557440102 #
edge $-1 $746 1 $746 0 $466 $-1 forward 7 unknown #
vertex $-1 $467 $747 #
ellipse-curve $-1 43.406490868970742 10.277973509086749 1.0334240132251185 0.69465837861970381 0 0.71933979245794832 1.0790096886869225 0 -1.0419875679295556 1 I I #
point $-1 48.58008844285245 10.277973509086749 4.2315062266309571 #
plane-surface $-1 50.620441297647019 0 0 -1 0 0 0 0 1 forward_v I I I I #
coedge $-1 $475 $473 $477 $652 reversed $321 $-1 #
edge $-1 $488 -8.2858272557440138 $654 8.2858272557440138 $487 $748 forward 7 unknown #
vertex $-1 $652 $749 #
straight-curve $-1 -50.620441297647019 -26.773203464121572 0 0 0 -1 I I #
edge $-1 $650 -26.773203464121572 $654 26.773203464121572 $648 $750 forward 7 unknown #
straight-curve $-1 0 -26.773203464121572 -8.2858272557440138 -1 0 0 I I #
vertex $-1 $480 $751 #
straight-curve $-1 0 26.773203464121572 -8.2858272557440138 1 0 0 I I #
point $-1 50.620441297647019 26.773203464121572 -8.2858272557440138 #
point $-1 50.620441297647019 -26.773203464121572 -8.2858272557440138 #
straight-curve $-1 -50.620441297647019 0 8.2858272557440138 0 -1 0 I I #
point $-1 -50.620441297647019 26.773203464121572 8.2858272557440138 #
point $-1 -50.620441297647019 -26.773203464121572 8.2858272557440138 #
straight-curve $-1 50.620441297647019 -26.773203464121572 0 0 0 -1 I I #
straight-curve $-1 50.620441297647019 26.773203464121572 0 0 0 -1 I I #
plane-surface $-1 50.620441297647019 0 0 -1 0 0 0 0 1 forward_v I I I I #
coedge $-1 $667 $500 $511 $676 forward $340 $-1 #
coedge $-1 $500 $667 $514 $678 reversed $340 $-1 #
straight-curve $-1 50.620441297647019 -19.604732670013071 -0.46999832016696796 0 0 1 I I #
coedge $-1 $665 $664 $503 $668 forward $340 $-1 #
edge $-1 $671 8.0102486364794103 $669 15.178719430587911 $667 $752 forward 7 unknown #
vertex $-1 $505 $753 #
straight-curve $-1 0 -26.773203464121572 -2.4399966403339359 1 0 0 I I #
vertex $-1 $668 $754 #
straight-curve $-1 0 -19.604732670013071 -2.4399966403339359 1 0 0 I I #
point $-1 50.620441297647019 -26.773203464121572 -2.4399966403339359 #
point $-1 50.620441297647019 -19.604732670013071 -2.4399966403339359 #
straight-curve $-1 -50.620441297647019 -11.594484033533661 0.56000335966606407 0 1 0 I I #
edge $-1 $512 -1.030001679833032 $671 1.969998320166968 $664 $755 forward 7 unknown #
point $-1 -50.620441297647019 -19.604732670013071 0.56000335966606407 #
edge $-1 $516 -0.56000335966606407 $669 2.4399966403339359 $665 $756 forward 7 unknown #
point $-1 -50.620441297647019 -26.773203464121572 0.56000335966606407 #
straight-curve $-1 50.620441297647019 -26.773203464121572 0 0 0 -1 I I #
edge $-1 $682 30.632932549195349 $685 35.124133670814594 $522 $757 forward 7 unknown #
vertex $-1 $536 $758 #
straight-curve $-1 -59.833279009911188 -10.827861435581593 8.2858272557440174 -1 0 0 I I #
edge $-1 $685 3.8436273391645024 $533 10.124840853669678 $532 $759 forward 7 unknown #
vertex $-1 $684 $760 #
straight-curve $-1 -50.620441297647019 -10.827861435581593 3.7946261341247691 0.7313536940579346 0 0.68199836817093118 I I #
point $-1 -45.804217851449373 -10.827861435581593 8.2858272557440138 #
point $-1 -50.620441297647019 -17.109074950086768 3.7946261341247691 #
straight-curve $-1 -50.620441297647019 0 8.2858272557440138 0 -1 0 I I #
vertex $-1 $539 $761 #
point $-1 -47.118645954769249 -15.314442517371004 5.6005342125898707 #
vertex $-1 $543 $762 #
point $-1 -47.118645954769249 -12.622493868297358 5.6005342125898707 #
coedge $-1 $558 $557 $550 $695 forward $547 $-1 #
edge $-1 $696 30.632932549195349 $699 35.124133670814594 $694 $763 forward 7 unknown #
vertex $-1 $562 $764 #
straight-curve $-1 -59.833279009911188 0.76662259795206822 8.2858272557440174 -1 0 0 I I #
edge $-1 $699 -1.953614677602328 $559 4.3275988369028475 $558 $765 forward 7 unknown #
vertex $-1 $698 $766 #
straight-curve $-1 -50.620441297647019 0.76662259795206822 3.7946261341247691 0.7313536940579346 0 0.68199836817093118 I I #
point $-1 -45.804217851449373 0.76662259795206822 8.2858272557440138 #
point $-1 -50.620441297647019 -5.5145909165531073 3.7946261341247691 #
straight-curve $-1 -50.620441297647019 0 8.2858272557440138 0 -1 0 I I #
vertex $-1 $565 $767 #
point $-1 -47.118645954769249 -3.7199584838373454 5.6005342125898707 #
vertex $-1 $569 $768 #
point $-1 -47.118645954769249 -1.0280098347636972 5.6005342125898707 #
coedge $-1 $584 $583 $576 $709 forward $573 $-1 #
edge $-1 $710 30.632932549195349 $713 35.124133670814594 $708 $769 forward 7 unknown #
vertex $-1 $588 $770 #
straight-curve $-1 -59.833279009911188 12.361106631485729 8.2858272557440174 -1 0 0 I I #
edge $-1 $713 -7.7508566943691584 $585 -1.4696431798639829 $584 $771 forward 7 unknown #
vertex $-1 $712 $772 #
straight-curve $-1 -50.620441297647019 12.361106631485729 3.7946261341247691 0.7313536940579346 0 0.68199836817093118 I I #
point $-1 -45.804217851449373 12.361106631485729 8.2858272557440138 #
point $-1 -50.620441297647019 6.0798931169805535 3.7946261341247691 #
straight-curve $-1 -50.620441297647019 0 8.2858272557440138 0 -1 0 I I #
vertex $-1 $591 $773 #
point $-1 -47.118645954769249 7.8745255496963154 5.6005342125898707 #
vertex $-1 $595 $774 #
point $-1 -47.118645954769249 10.56647419876996 5.6005342125898707 #
coedge $-1 $610 $609 $602 $723 forward $599 $-1 #
edge $-1 $724 30.632932549195349 $727 35.124133670814594 $722 $775 forward 7 unknown #
vertex $-1 $614 $776 #
straight-curve $-1 -59.833279009911188 23.95559066501939 8.2858272557440174 -1 0 0 I I #
edge $-1 $727 -13.548098711135989 $611 -7.2668851966308132 $610 $777 forward 7 unknown #
vertex $-1 $726 $778 #
straight-curve $-1 -50.620441297647019 23.95559066501939 3.7946261341247691 0.7313536940579346 0 0.68199836817093118 I I #
point $-1 -45.804217851449373 23.95559066501939 8.2858272557440138 #
point $-1 -50.620441297647019 17.674377150514214 3.7946261341247691 #
straight-curve $-1 -50.620441297647019 0 8.2858272557440138 0 -1 0 I I #
vertex $-1 $617 $779 #
point $-1 -47.118645954769249 19.469009583229976 5.6005342125898707 #
vertex $-1 $621 $780 #
point $-1 -47.118645954769249 22.160958232303621 5.6005342125898707 #
coedge $-1 $636 $635 $628 $737 forward $625 $-1 #
edge $-1 $738 64.421964324961024 $741 70.446631247328042 $736 $781 forward 7 unknown #
vertex $-1 $640 $782 #
straight-curve $-1 24.06083658848172 4.3895786346925387 8.2858272557440102 1 0 0 I I #
edge $-1 $741 -0.74940811985083577 $637 11.027381628937583 $636 $783 forward 7 unknown #
vertex $-1 $740 $784 #
straight-curve $-1 -22.206154176711308 4.3895786346925387 72.588987687051741 -0.71933979245794832 0 0.69465837861970381 I I #
point $-1 44.381716210684061 4.3895786346925387 8.2858272557440102 #
point $-1 50.620441297647019 16.166368383480958 2.2611603333769921 #
straight-curve $-1 50.620441297647019 0 8.2858272557440138 0 1 0 I I #
vertex $-1 $643 $785 #
point $-1 44.485500557657666 10.277973509086749 -0.0085635547044372595 #
straight-curve $-1 -50.620441297647019 26.773203464121572 0 0 0 -1 I I #
point $-1 -50.620441297647019 -26.773203464121572 -8.2858272557440138 #
straight-curve $-1 -50.620441297647019 0 -8.2858272557440138 0 1 0 I I #
point $-1 -50.620441297647019 26.773203464121572 -8.2858272557440138 #
straight-curve $-1 -50.620441297647019 -11.594484033533661 -2.4399966403339359 0 -1 0 I I #
point $-1 -50.620441297647019 -26.773203464121572 -2.4399966403339359 #
point $-1 -50.620441297647019 -19.604732670013071 -2.4399966403339359 #
straight-curve $-1 -50.620441297647019 -19.604732670013071 -0.46999832016696796 0 0 -1 I I #
straight-curve $-1 -50.620441297647019 -26.773203464121572 0 0 0 -1 I I #
straight-curve $-1 -50.620441297647019 -10.827861435581593 38.918759804939363 0 0 -1 I I #
point $-1 -50.620441297647019 -10.827861435581593 8.2858272557440138 #
straight-curve $-1 -50.620441297647019 -6.9842340964170901 3.7946261341247665 0 -1 0 I I #
point $-1 -50.620441297647019 -10.827861435581593 3.7946261341247691 #
point $-1 -47.143323617712753 -15.314442517371004 4.8938581814754381 #
point $-1 -47.143323617712753 -12.622493868297358 4.8938581814754381 #
straight-curve $-1 -50.620441297647019 0.76662259795206822 38.918759804939363 0 0 -1 I I #
point $-1 -50.620441297647019 0.76662259795206822 8.2858272557440138 #
straight-curve $-1 -50.620441297647019 -1.1869920796502598 3.7946261341247665 0 -1 0 I I #
point $-1 -50.620441297647019 0.76662259795206822 3.7946261341247691 #
point $-1 -47.143323617712753 -3.7199584838373454 4.8938581814754381 #
point $-1 -47.143323617712753 -1.0280098347636972 4.8938581814754381 #
straight-curve $-1 -50.620441297647019 12.361106631485729 38.918759804939363 0 0 -1 I I #
point $-1 -50.620441297647019 12.361106631485729 8.2858272557440138 #
straight-curve $-1 -50.620441297647019 4.6102499371165706 3.7946261341247665 0 -1 0 I I #
point $-1 -50.620441297647019 12.361106631485729 3.7946261341247691 #
point $-1 -47.143323617712753 7.8745255496963154 4.8938581814754381 #
point $-1 -47.143323617712753 10.56647419876996 4.8938581814754381 #
straight-curve $-1 -50.620441297647019 23.95559066501939 38.918759804939363 0 0 -1 I I #
point $-1 -50.620441297647019 23.95559066501939 8.2858272557440138 #
straight-curve $-1 -50.620441297647019 10.407491953883401 3.7946261341247665 0 -1 0 I I #
point $-1 -50.620441297647019 23.95559066501939 3.7946261341247691 #
point $-1 -47.143323617712753 19.469009583229976 4.8938581814754381 #
point $-1 -47.143323617712753 22.160958232303621 4.8938581814754381 #
straight-curve $-1 50.620441297647019 4.3895786346925387 72.707791580705035 0 0 -1 I I #
point $-1 50.620441297647019 4.3895786346925387 8.2858272557440138 #
straight-curve $-1 50.620441297647019 5.1389867545433745 2.2611603333769921 0 1 0 I I #
point $-1 50.620441297647019 4.3895786346925387 2.2611603333769921 #
point $-1 42.364503301041189 10.277973509086749 -0.045585675461804143 #
End-of-ACIS-data 