500 0 4 0           
7 Unknown 11 ACIS 5.0 NT 24 Fri Mar 26 20:37:51 1999 
-1 9.9999999999999995e-007 1e-010 
body $-1 $4 $-1 $5 #
body $-1 $6 $-1 $7 #
body $-1 $8 $-1 $9 #
body $-1 $10 $-1 $11 #
lump $-1 $-1 $12 $0 #
transform $-1 1 0 0 0 1 0 0 0 1 74.358958708456683 37.950595848540715 9.4945402260683682 1 rotate no_reflect no_shear #
lump $-1 $-1 $13 $1 #
transform $-1 1 0 0 0 1 0 0 0 1 74.358958708456683 37.950595848540715 9.4945402260683682 1 rotate no_reflect no_shear #
lump $-1 $-1 $14 $2 #
transform $-1 1 0 0 0 1 0 0 0 1 74.358958708456683 37.950595848540715 9.4945402260683682 1 rotate no_reflect no_shear #
lump $-1 $-1 $15 $3 #
transform $-1 1 0 0 0 1 0 0 0 1 74.358958708456683 37.950595848540715 9.4945402260683682 1 rotate no_reflect no_shear #
shell $-1 $-1 $-1 $16 $-1 $4 #
shell $-1 $-1 $-1 $17 $-1 $6 #
shell $-1 $-1 $-1 $18 $-1 $8 #
shell $-1 $-1 $-1 $19 $-1 $10 #
face $-1 $20 $21 $12 $-1 $22 forward single #
face $-1 $23 $24 $13 $-1 $25 forward single #
face $-1 $26 $27 $14 $-1 $28 forward single #
face $-1 $29 $30 $15 $-1 $31 reversed single #
face $-1 $32 $33 $12 $-1 $34 reversed single #
loop $-1 $-1 $35 $16 #
plane-surface $-1 0 0 9.4945402260683682 0 0 1 1 0 0 forward_v I I I I #
face $-1 $36 $37 $13 $-1 $38 forward single #
loop $-1 $-1 $39 $17 #
plane-surface $-1 0 -32.586379105874954 6.4945402260683682 0 0 1 1 0 0 forward_v I I I I #
face $-1 $40 $41 $14 $-1 $42 forward single #
loop $-1 $-1 $43 $18 #
plane-surface $-1 60.533098668438598 -17.560021082519214 56.817295483330099 0 0.68199836817093118 0.7313536940579346 1 0 0 forward_v I I I I #
face $-1 $44 $45 $15 $-1 $46 reversed single #
loop $-1 $47 $48 $19 #
cone-surface $-1 60.533098668438598 35.200316180185425 6.8783000411642563 0 -0.68199836817093118 -0.7313536940579346 1 0 0 1 I I 0 1 1 forward I I I I #
face $-1 $49 $50 $12 $-1 $51 reversed single #
loop $-1 $-1 $52 $20 #
plane-surface $-1 0 0 -9.4945402260683682 0 0 1 1 0 0 forward_v I I I I #
coedge $-1 $53 $54 $55 $56 forward $21 $-1 #
face $-1 $57 $58 $13 $-1 $59 forward single #
loop $-1 $-1 $60 $23 #
plane-surface $-1 0 -27.22216236320919 7.9945402260683682 0 -1 0 0 0 -1 forward_v I I I I #
coedge $-1 $61 $62 $63 $64 reversed $24 $-1 #
face $-1 $65 $66 $14 $-1 $67 reversed single #
loop $-1 $-1 $68 $26 #
plane-surface $-1 46.707238628420519 83.86535591359501 165.58269375879254 1 0 0 0 -0.68199836817093118 -0.7313536940579346 forward_v I I I I #
coedge $-1 $69 $70 $71 $72 reversed $27 $-1 #
face $-1 $73 $74 $15 $-1 $75 forward single #
loop $-1 $76 $77 $29 #
cone-surface $-1 60.533098668438598 34.49062535225768 6.1172498204195929 0 -0.68199836817093118 -0.7313536940579346 0.5 0 0 1 I I -0.70710678118654746 0.70710678118654746 0.5 forward I I I I #
loop $-1 $-1 $78 $19 #
coedge $-1 $48 $48 $79 $80 reversed $30 $-1 #
face $-1 $81 $82 $12 $-1 $83 reversed single #
loop $-1 $-1 $84 $32 #
plane-surface $-1 0 -37.950595848540715 0 0 1 0 0 0 1 forward_v I I I I #
coedge $-1 $85 $86 $87 $88 forward $33 $-1 #
coedge $-1 $89 $35 $90 $91 forward $21 $-1 #
coedge $-1 $35 $89 $92 $93 forward $21 $-1 #
coedge $-1 $94 $95 $35 $56 reversed $96 $-1 #
edge $-1 $97 -37.950595848540715 $98 37.950595848540715 $55 $99 forward 7 unknown #
face $-1 $100 $101 $13 $-1 $102 reversed single #
loop $-1 $-1 $103 $36 #
plane-surface $-1 0 0 9.4945402260683682 0 0 1 1 0 0 forward_v I I I I #
coedge $-1 $104 $105 $106 $107 reversed $37 $-1 #
coedge $-1 $108 $39 $105 $109 reversed $24 $-1 #
coedge $-1 $39 $108 $110 $111 reversed $24 $-1 #
coedge $-1 $112 $106 $39 $64 forward $101 $-1 #
edge $-1 $113 10.928972810271713 $114 21.657406295603238 $63 $115 forward 7 unknown #
face $-1 $116 $117 $14 $-1 $118 reversed single #
loop $-1 $-1 $119 $40 #
plane-surface $-1 0 37.950595848540715 0 0 -1 0 0 0 -1 forward_v I I I I #
coedge $-1 $120 $121 $119 $122 reversed $41 $-1 #
coedge $-1 $123 $43 $121 $124 reversed $27 $-1 #
coedge $-1 $43 $123 $125 $126 reversed $27 $-1 #
coedge $-1 $127 $119 $43 $72 forward $66 $-1 #
edge $-1 $128 16.440689294201221 $129 44.092409374237384 $71 $130 forward 7 unknown #
face $-1 $131 $132 $15 $-1 $133 forward single #
loop $-1 $134 $79 $44 #
plane-surface $-1 60.533098668438598 -17.560021082519214 56.817295483330099 0 0.68199836817093118 0.7313536940579346 1 0 0 forward_v I I I I #
loop $-1 $-1 $135 $29 #
coedge $-1 $77 $77 $78 $136 forward $45 $-1 #
coedge $-1 $78 $78 $77 $136 reversed $47 $-1 #
coedge $-1 $79 $79 $48 $80 forward $74 $-1 #
edge $-1 $137 6.0573623288012184e-016 $137 6.2831853071796013 $79 $138 forward 7 unknown #
face $-1 $139 $140 $12 $-1 $141 reversed single #
loop $-1 $-1 $142 $49 #
plane-surface $-1 -74.358958708456683 0 0 1 0 0 0 0 -1 forward_v I I I I #
coedge $-1 $143 $92 $144 $145 forward $50 $-1 #
coedge $-1 $146 $52 $143 $147 forward $33 $-1 #
coedge $-1 $52 $146 $148 $149 forward $33 $-1 #
coedge $-1 $95 $94 $52 $88 reversed $96 $-1 #
edge $-1 $150 -37.950595848540715 $151 37.950595848540715 $87 $152 forward 7 unknown #
coedge $-1 $54 $53 $153 $154 forward $21 $-1 #
coedge $-1 $155 $156 $53 $91 reversed $140 $-1 #
edge $-1 $98 -74.358958708456683 $157 74.358958708456683 $90 $158 forward 7 unknown #
coedge $-1 $84 $159 $54 $93 reversed $50 $-1 #
edge $-1 $160 -74.358958708456683 $97 74.358958708456683 $92 $161 forward 7 unknown #
coedge $-1 $87 $55 $159 $162 forward $96 $-1 #
coedge $-1 $55 $87 $155 $163 reversed $96 $-1 #
loop $-1 $-1 $94 $139 #
vertex $-1 $56 $164 #
vertex $-1 $56 $165 #
straight-curve $-1 74.358958708456683 0 9.4945402260683682 0 1 0 I I #
face $-1 $166 $167 $13 $-1 $168 reversed single #
loop $-1 $-1 $106 $57 #
plane-surface $-1 74.358958708456683 0 0 -1 0 0 0 0 1 forward_v I I I I #
coedge $-1 $169 $170 $104 $171 forward $58 $-1 #
coedge $-1 $172 $60 $103 $171 reversed $37 $-1 #
coedge $-1 $60 $172 $61 $109 forward $37 $-1 #
coedge $-1 $63 $173 $60 $107 forward $101 $-1 #
edge $-1 $174 -5.4972701130341841 $113 -2.4972701130341841 $106 $175 forward 7 unknown #
coedge $-1 $62 $61 $176 $177 reversed $24 $-1 #
edge $-1 $178 -74.358958708456683 $113 74.358958708456683 $105 $179 forward 7 unknown #
coedge $-1 $180 $181 $62 $111 forward $182 $-1 #
edge $-1 $114 -74.358958708456683 $183 74.358958708456683 $110 $184 forward 7 unknown #
coedge $-1 $185 $63 $181 $186 forward $101 $-1 #
vertex $-1 $64 $187 #
vertex $-1 $186 $188 #
straight-curve $-1 74.358958708456683 -16.293189552937477 6.4945402260683682 0 -1 0 I I #
face $-1 $189 $190 $14 $-1 $191 forward single #
loop $-1 $-1 $125 $65 #
plane-surface $-1 74.358958708456683 0 0 -1 0 0 0 0 1 forward_v I I I I #
coedge $-1 $71 $192 $68 $122 forward $66 $-1 #
coedge $-1 $121 $68 $193 $194 reversed $41 $-1 #
coedge $-1 $68 $120 $69 $124 forward $41 $-1 #
edge $-1 $195 73.296806653327906 $128 77.738540275704736 $119 $196 forward 7 unknown #
coedge $-1 $70 $69 $197 $198 reversed $27 $-1 #
edge $-1 $199 69.388370215866999 $128 75.901191697081416 $121 $200 forward 7 unknown #
coedge $-1 $201 $202 $70 $126 forward $117 $-1 #
edge $-1 $129 -50.105247152105228 $203 -43.592425670890805 $125 $204 forward 7 unknown #
coedge $-1 $205 $71 $202 $206 forward $66 $-1 #
vertex $-1 $72 $207 #
vertex $-1 $206 $208 #
straight-curve $-1 30.266549334219299 37.950595848540708 5.0528066036915469 1 0 0 I I #
face $-1 $209 $210 $15 $-1 $211 reversed single #
loop $-1 $-1 $212 $73 #
plane-surface $-1 46.707238628420519 83.86535591359501 165.58269375879254 1 0 0 0 -0.68199836817093118 -0.7313536940579346 forward_v I I I I #
loop $-1 $-1 $213 $44 #
coedge $-1 $135 $135 $-1 $214 forward $76 $-1 #
edge $-1 $215 0 $215 6.2831853071796004 $77 $216 forward 7 unknown #
vertex $-1 $80 $217 #
ellipse-curve $-1 60.533098668438598 35.5690078240277 7.2736734148799531 0 -0.68199836817093118 -0.7313536940579346 1 0 0 1 I I #
face $-1 $-1 $96 $12 $-1 $218 reversed single #
loop $-1 $-1 $155 $81 #
plane-surface $-1 0 37.950595848540715 0 0 -1 0 0 0 -1 forward_v I I I I #
coedge $-1 $219 $153 $156 $220 forward $82 $-1 #
coedge $-1 $159 $84 $85 $147 reversed $50 $-1 #
coedge $-1 $153 $219 $84 $145 reversed $82 $-1 #
edge $-1 $160 -9.4945402260683682 $221 9.4945402260683682 $144 $222 forward 7 unknown #
coedge $-1 $86 $85 $219 $223 forward $33 $-1 #
edge $-1 $151 -74.358958708456683 $221 74.358958708456683 $143 $224 forward 7 unknown #
coedge $-1 $156 $155 $86 $149 reversed $140 $-1 #
edge $-1 $225 -74.358958708456683 $150 74.358958708456683 $148 $226 forward 7 unknown #
vertex $-1 $88 $227 #
vertex $-1 $162 $228 #
straight-curve $-1 74.358958708456683 0 -9.4945402260683682 0 -1 0 I I #
coedge $-1 $142 $144 $89 $154 reversed $82 $-1 #
edge $-1 $157 -37.950595848540715 $160 37.950595848540715 $153 $229 forward 7 unknown #
coedge $-1 $148 $90 $95 $163 forward $140 $-1 #
coedge $-1 $90 $148 $142 $220 reversed $140 $-1 #
vertex $-1 $91 $230 #
straight-curve $-1 0 37.950595848540715 9.4945402260683682 -1 0 0 I I #
coedge $-1 $92 $143 $94 $162 reversed $50 $-1 #
vertex $-1 $154 $231 #
straight-curve $-1 0 -37.950595848540715 9.4945402260683682 1 0 0 I I #
edge $-1 $97 -9.4945402260683682 $151 9.4945402260683682 $94 $232 forward 7 unknown #
edge $-1 $98 -9.4945402260683682 $150 9.4945402260683682 $95 $233 forward 7 unknown #
point $-1 74.358958708456683 -37.950595848540715 9.4945402260683682 #
point $-1 74.358958708456683 37.950595848540715 9.4945402260683682 #
face $-1 $234 $182 $13 $-1 $235 reversed single #
loop $-1 $-1 $236 $100 #
plane-surface $-1 0 0 -9.4945402260683682 0 0 1 1 0 0 forward_v I I I I #
coedge $-1 $237 $103 $173 $238 forward $58 $-1 #
coedge $-1 $103 $237 $239 $240 forward $58 $-1 #
edge $-1 $241 -74.358958708456683 $174 74.358958708456683 $103 $242 forward 7 unknown #
coedge $-1 $105 $104 $243 $244 reversed $37 $-1 #
coedge $-1 $106 $245 $169 $238 reversed $101 $-1 #
vertex $-1 $238 $246 #
straight-curve $-1 74.358958708456683 -27.22216236320919 3.9972701130341841 0 0 -1 I I #
coedge $-1 $243 $247 $108 $177 forward $248 $-1 #
edge $-1 $183 -21.657406295603238 $178 -10.928972810271713 $176 $249 forward 7 unknown #
vertex $-1 $177 $250 #
straight-curve $-1 0 -27.22216236320919 6.4945402260683682 1 0 0 I I #
coedge $-1 $251 $110 $247 $252 forward $182 $-1 #
coedge $-1 $110 $251 $112 $186 reversed $182 $-1 #
loop $-1 $-1 $110 $166 #
vertex $-1 $252 $253 #
straight-curve $-1 0 -37.950595848540715 6.4945402260683682 -1 0 0 I I #
coedge $-1 $245 $112 $236 $254 reversed $101 $-1 #
edge $-1 $114 -6.4945402260683682 $255 9.4945402260683682 $112 $256 forward 7 unknown #
point $-1 74.358958708456683 -27.22216236320919 6.4945402260683682 #
point $-1 74.358958708456683 -37.950595848540715 6.4945402260683682 #
face $-1 $257 $258 $14 $-1 $259 forward single #
loop $-1 $-1 $260 $116 #
plane-surface $-1 0 -32.586379105874954 6.4945402260683682 0 0 1 1 0 0 forward_v I I I I #
coedge $-1 $119 $261 $262 $263 reversed $66 $-1 #
coedge $-1 $262 $197 $120 $194 forward $264 $-1 #
edge $-1 $199 -8.7452581572828265 $195 -3.9820821082567903 $193 $265 forward 7 unknown #
vertex $-1 $263 $266 #
straight-curve $-1 46.707238628420519 37.950595848540715 82.791346879396272 0 0 -1 I I #
coedge $-1 $193 $267 $123 $198 forward $264 $-1 #
edge $-1 $203 -44.09240937423737 $199 -16.440689294201221 $197 $268 forward 7 unknown #
vertex $-1 $198 $269 #
straight-curve $-1 46.707238628420519 -17.560021082519214 56.817295483330099 0 0.7313536940579346 -0.68199836817093118 I I #
coedge $-1 $270 $125 $267 $271 reversed $117 $-1 #
coedge $-1 $125 $272 $127 $206 reversed $117 $-1 #
vertex $-1 $198 $273 #
straight-curve $-1 74.358958708456683 1.3059382521627523 39.224503398228507 0 -0.7313536940579346 0.68199836817093118 I I #
coedge $-1 $261 $127 $274 $275 reversed $66 $-1 #
edge $-1 $129 -5.0528066036915398 $276 9.4945402260683682 $202 $277 forward 7 unknown #
point $-1 46.707238628420519 37.950595848540715 5.0528066036915433 #
point $-1 74.358958708456683 37.950595848540715 5.0528066036915398 #
face $-1 $278 $279 $15 $-1 $280 reversed single #
loop $-1 $-1 $281 $131 #
plane-surface $-1 0 37.950595848540715 0 0 -1 0 0 0 -1 forward_v I I I I #
coedge $-1 $282 $283 $281 $284 reversed $132 $-1 #
coedge $-1 $285 $286 $287 $288 reversed $134 $-1 #
edge $-1 $289 1 $289 0 $135 $-1 forward 7 unknown #
vertex $-1 $136 $290 #
ellipse-curve $-1 60.533098668438598 34.831624536343149 6.4829266674485604 0 0.68199836817093118 0.7313536940579346 1 0 0 1 I I #
point $-1 61.533098668438598 35.5690078240277 7.273673414879954 #
plane-surface $-1 74.358958708456683 0 0 -1 0 0 0 0 1 forward_v I I I I #
coedge $-1 $144 $142 $146 $223 reversed $82 $-1 #
edge $-1 $157 -9.4945402260683682 $225 9.4945402260683682 $156 $291 forward 7 unknown #
vertex $-1 $223 $292 #
straight-curve $-1 -74.358958708456683 -37.950595848540715 0 0 0 -1 I I #
edge $-1 $221 -37.950595848540715 $225 37.950595848540715 $219 $293 forward 7 unknown #
straight-curve $-1 0 -37.950595848540715 -9.4945402260683682 -1 0 0 I I #
vertex $-1 $149 $294 #
straight-curve $-1 0 37.950595848540715 -9.4945402260683682 1 0 0 I I #
point $-1 74.358958708456683 37.950595848540715 -9.4945402260683682 #
point $-1 74.358958708456683 -37.950595848540715 -9.4945402260683682 #
straight-curve $-1 -74.358958708456683 0 9.4945402260683682 0 -1 0 I I #
point $-1 -74.358958708456683 37.950595848540715 9.4945402260683682 #
point $-1 -74.358958708456683 -37.950595848540715 9.4945402260683682 #
straight-curve $-1 74.358958708456683 -37.950595848540715 0 0 0 -1 I I #
straight-curve $-1 74.358958708456683 37.950595848540715 0 0 0 -1 I I #
face $-1 $295 $248 $13 $-1 $296 reversed single #
plane-surface $-1 0 -37.950595848540715 0 0 1 0 0 0 1 forward_v I I I I #
coedge $-1 $297 $298 $185 $254 forward $167 $-1 #
coedge $-1 $170 $169 $299 $300 forward $58 $-1 #
edge $-1 $174 -27.22216236320919 $301 37.950595848540715 $173 $302 forward 7 unknown #
coedge $-1 $303 $243 $170 $240 reversed $248 $-1 #
edge $-1 $304 -37.950595848540715 $241 27.22216236320919 $239 $305 forward 7 unknown #
vertex $-1 $244 $306 #
straight-curve $-1 0 -27.22216236320919 9.4945402260683682 1 0 0 I I #
coedge $-1 $239 $176 $172 $244 forward $248 $-1 #
edge $-1 $178 2.4972701130341841 $241 5.4972701130341841 $243 $307 forward 7 unknown #
coedge $-1 $173 $185 $308 $309 reversed $101 $-1 #
point $-1 74.358958708456683 -27.22216236320919 9.4945402260683682 #
coedge $-1 $176 $310 $180 $252 reversed $248 $-1 #
loop $-1 $-1 $243 $234 #
straight-curve $-1 -74.358958708456683 -16.293189552937477 6.4945402260683682 0 1 0 I I #
point $-1 -74.358958708456683 -27.22216236320919 6.4945402260683682 #
coedge $-1 $181 $180 $297 $311 reversed $182 $-1 #
edge $-1 $183 -6.4945402260683682 $312 9.4945402260683682 $247 $313 forward 7 unknown #
point $-1 -74.358958708456683 -37.950595848540715 6.4945402260683682 #
edge $-1 $314 -37.950595848540715 $255 37.950595848540715 $185 $315 forward 7 unknown #
vertex $-1 $186 $316 #
straight-curve $-1 74.358958708456683 -37.950595848540715 0 0 0 -1 I I #
face $-1 $317 $264 $14 $-1 $318 forward single #
loop $-1 $-1 $319 $189 #
plane-surface $-1 0 -27.22216236320919 7.9945402260683682 0 -1 0 0 0 -1 forward_v I I I I #
coedge $-1 $320 $321 $322 $323 reversed $190 $-1 #
coedge $-1 $192 $205 $324 $325 reversed $66 $-1 #
coedge $-1 $326 $193 $192 $263 forward $264 $-1 #
edge $-1 $195 -46.707238628420519 $327 74.358958708456683 $192 $328 forward 7 unknown #
loop $-1 $-1 $193 $257 #
straight-curve $-1 46.707238628420519 41.932677956797505 9.4945402260683665 0 1 0 I I #
point $-1 46.707238628420519 37.950595848540715 9.4945402260683682 #
coedge $-1 $197 $329 $201 $271 forward $264 $-1 #
straight-curve $-1 30.266549334219299 33.187419799514672 9.49454022606837 -1 0 0 I I #
point $-1 46.707238628420519 33.187419799514679 9.4945402260683593 #
coedge $-1 $322 $201 $319 $330 forward $117 $-1 #
edge $-1 $331 -27.22216236320919 $203 33.187419799514679 $201 $332 forward 7 unknown #
coedge $-1 $202 $333 $334 $335 reversed $117 $-1 #
point $-1 74.358958708456669 33.187419799514679 9.4945402260683593 #
coedge $-1 $334 $336 $205 $275 forward $337 $-1 #
edge $-1 $338 -74.358958708456683 $276 74.358958708456683 $205 $339 forward 7 unknown #
vertex $-1 $335 $340 #
straight-curve $-1 74.358958708456683 37.950595848540715 0 0 0 -1 I I #
face $-1 $341 $342 $15 $-1 $343 forward single #
loop $-1 $-1 $344 $209 #
plane-surface $-1 74.358958708456683 0 0 -1 0 0 0 0 1 forward_v I I I I #
coedge $-1 $287 $345 $212 $284 forward $210 $-1 #
coedge $-1 $283 $212 $346 $347 reversed $132 $-1 #
coedge $-1 $212 $282 $285 $348 forward $132 $-1 #
edge $-1 $349 73.296806653327906 $350 77.738540275704736 $281 $351 forward 7 unknown #
coedge $-1 $352 $213 $283 $348 reversed $134 $-1 #
coedge $-1 $213 $352 $344 $353 reversed $134 $-1 #
coedge $-1 $354 $281 $213 $288 forward $210 $-1 #
edge $-1 $350 16.440689294201221 $355 44.092409374237384 $287 $356 forward 7 unknown #
vertex $-1 $214 $357 #
point $-1 61.533098668438598 34.831624536343149 6.4829266674485604 #
straight-curve $-1 -74.358958708456683 37.950595848540715 0 0 0 -1 I I #
point $-1 -74.358958708456683 -37.950595848540715 -9.4945402260683682 #
straight-curve $-1 -74.358958708456683 0 -9.4945402260683682 0 1 0 I I #
point $-1 -74.358958708456683 37.950595848540715 -9.4945402260683682 #
face $-1 $-1 $358 $13 $-1 $359 reversed single #
plane-surface $-1 -74.358958708456683 0 0 1 0 0 0 0 -1 forward_v I I I I #
coedge $-1 $360 $236 $251 $311 forward $167 $-1 #
coedge $-1 $236 $360 $361 $362 forward $167 $-1 #
coedge $-1 $308 $363 $237 $300 reversed $358 $-1 #
edge $-1 $301 -74.358958708456683 $304 74.358958708456683 $299 $364 forward 7 unknown #
vertex $-1 $238 $365 #
straight-curve $-1 74.358958708456683 0 9.4945402260683682 0 1 0 I I #
coedge $-1 $310 $239 $363 $366 forward $248 $-1 #
vertex $-1 $300 $367 #
straight-curve $-1 -74.358958708456683 0 9.4945402260683682 0 -1 0 I I #
point $-1 -74.358958708456683 -27.22216236320919 9.4945402260683682 #
straight-curve $-1 -74.358958708456683 -27.22216236320919 3.9972701130341841 0 0 1 I I #
coedge $-1 $361 $299 $245 $309 forward $358 $-1 #
edge $-1 $301 -9.4945402260683682 $314 9.4945402260683682 $245 $368 forward 7 unknown #
coedge $-1 $247 $303 $360 $369 reversed $248 $-1 #
edge $-1 $255 -74.358958708456683 $312 74.358958708456683 $251 $370 forward 7 unknown #
vertex $-1 $369 $371 #
straight-curve $-1 -74.358958708456683 -37.950595848540715 0 0 0 -1 I I #
vertex $-1 $254 $372 #
straight-curve $-1 74.358958708456683 0 -9.4945402260683682 0 -1 0 I I #
point $-1 74.358958708456683 -37.950595848540715 -9.4945402260683682 #
face $-1 $373 $337 $14 $-1 $374 reversed single #
plane-surface $-1 0 0 9.4945402260683682 0 0 1 1 0 0 forward_v I I I I #
coedge $-1 $375 $376 $270 $330 reversed $258 $-1 #
coedge $-1 $377 $260 $376 $378 reversed $190 $-1 #
coedge $-1 $260 $377 $379 $380 reversed $190 $-1 #
coedge $-1 $333 $270 $260 $323 forward $117 $-1 #
edge $-1 $381 10.928972810271713 $382 21.657406295603238 $322 $383 forward 7 unknown #
coedge $-1 $384 $385 $261 $325 forward $386 $-1 #
edge $-1 $327 -9.4945402260683682 $338 9.4945402260683682 $261 $387 forward 7 unknown #
coedge $-1 $329 $262 $385 $388 forward $264 $-1 #
vertex $-1 $263 $389 #
straight-curve $-1 0 37.950595848540715 9.4945402260683682 -1 0 0 I I #
coedge $-1 $267 $326 $375 $390 forward $264 $-1 #
edge $-1 $331 -5.4972701130341841 $381 -2.4972701130341841 $270 $391 forward 7 unknown #
vertex $-1 $271 $392 #
straight-curve $-1 74.358958708456683 0 9.4945402260683682 0 1 0 I I #
coedge $-1 $272 $322 $393 $394 forward $117 $-1 #
coedge $-1 $395 $274 $272 $335 forward $337 $-1 #
edge $-1 $276 -37.950595848540715 $396 37.950595848540715 $272 $397 forward 7 unknown #
coedge $-1 $274 $395 $384 $398 forward $337 $-1 #
loop $-1 $-1 $334 $317 #
vertex $-1 $275 $399 #
straight-curve $-1 0 37.950595848540715 -9.4945402260683682 1 0 0 I I #
point $-1 74.358958708456683 37.950595848540715 -9.4945402260683682 #
face $-1 $400 $401 $15 $-1 $402 forward single #
loop $-1 $-1 $403 $278 #
plane-surface $-1 0 -32.586379105874954 6.4945402260683682 0 0 1 1 0 0 forward_v I I I I #
coedge $-1 $404 $405 $286 $353 forward $279 $-1 #
coedge $-1 $281 $406 $407 $408 reversed $210 $-1 #
coedge $-1 $407 $409 $282 $347 forward $410 $-1 #
edge $-1 $411 -8.7452581572828265 $349 -3.9820821082567903 $346 $412 forward 7 unknown #
edge $-1 $411 69.388370215866999 $350 75.901191697081416 $283 $413 forward 7 unknown #
vertex $-1 $408 $414 #
vertex $-1 $288 $415 #
straight-curve $-1 46.707238628420519 37.950595848540715 82.791346879396272 0 0 -1 I I #
coedge $-1 $286 $285 $409 $416 reversed $134 $-1 #
edge $-1 $355 -50.105247152105228 $417 -43.592425670890805 $344 $418 forward 7 unknown #
coedge $-1 $419 $287 $405 $420 forward $210 $-1 #
vertex $-1 $420 $421 #
straight-curve $-1 30.266549334219299 37.950595848540708 5.0528066036915469 1 0 0 I I #
point $-1 60.533098668438598 34.149626168172212 5.7515729733906253 #
loop $-1 $-1 $308 $295 #
plane-surface $-1 0 37.950595848540715 0 0 -1 0 0 0 -1 forward_v I I I I #
coedge $-1 $298 $297 $310 $369 forward $167 $-1 #
coedge $-1 $363 $308 $298 $362 reversed $358 $-1 #
edge $-1 $422 -74.358958708456683 $314 74.358958708456683 $361 $423 forward 7 unknown #
coedge $-1 $299 $361 $303 $366 reversed $358 $-1 #
straight-curve $-1 0 37.950595848540715 9.4945402260683682 -1 0 0 I I #
point $-1 74.358958708456683 37.950595848540715 9.4945402260683682 #
edge $-1 $304 -9.4945402260683682 $422 9.4945402260683682 $363 $424 forward 7 unknown #
point $-1 -74.358958708456683 37.950595848540715 9.4945402260683682 #
straight-curve $-1 74.358958708456683 37.950595848540715 0 0 0 -1 I I #
edge $-1 $312 -37.950595848540715 $422 37.950595848540715 $310 $425 forward 7 unknown #
straight-curve $-1 0 -37.950595848540715 -9.4945402260683682 -1 0 0 I I #
point $-1 -74.358958708456683 -37.950595848540715 -9.4945402260683682 #
point $-1 74.358958708456683 37.950595848540715 -9.4945402260683682 #
face $-1 $426 $427 $14 $-1 $428 reversed single #
plane-surface $-1 0 0 -9.4945402260683682 0 0 1 1 0 0 forward_v I I I I #
coedge $-1 $429 $319 $329 $390 reversed $258 $-1 #
coedge $-1 $319 $429 $320 $378 forward $258 $-1 #
coedge $-1 $321 $320 $430 $431 reversed $190 $-1 #
edge $-1 $432 -74.358958708456683 $381 74.358958708456683 $376 $433 forward 7 unknown #
coedge $-1 $434 $393 $321 $380 forward $427 $-1 #
edge $-1 $382 -74.358958708456683 $435 74.358958708456683 $379 $436 forward 7 unknown #
vertex $-1 $323 $437 #
vertex $-1 $394 $438 #
straight-curve $-1 74.358958708456683 -16.293189552937477 6.4945402260683682 0 -1 0 I I #
coedge $-1 $439 $324 $336 $398 reversed $386 $-1 #
coedge $-1 $324 $440 $326 $388 reversed $386 $-1 #
loop $-1 $-1 $440 $426 #
straight-curve $-1 -74.358958708456683 37.950595848540715 0 0 0 -1 I I #
edge $-1 $327 -37.950595848540715 $441 27.22216236320919 $385 $442 forward 7 unknown #
point $-1 -74.358958708456683 37.950595848540715 9.4945402260683682 #
edge $-1 $441 -74.358958708456683 $331 74.358958708456683 $329 $443 forward 7 unknown #
straight-curve $-1 74.358958708456683 -27.22216236320919 3.9972701130341841 0 0 -1 I I #
point $-1 74.358958708456683 -27.22216236320919 9.4945402260683682 #
coedge $-1 $379 $444 $333 $394 reversed $427 $-1 #
edge $-1 $382 -6.4945402260683682 $396 9.4945402260683682 $333 $445 forward 7 unknown #
coedge $-1 $336 $334 $444 $446 forward $337 $-1 #
vertex $-1 $394 $447 #
straight-curve $-1 74.358958708456683 0 -9.4945402260683682 0 -1 0 I I #
edge $-1 $448 -37.950595848540715 $338 37.950595848540715 $384 $449 forward 7 unknown #
point $-1 -74.358958708456683 37.950595848540715 -9.4945402260683682 #
face $-1 $450 $410 $15 $-1 $451 forward single #
loop $-1 $-1 $452 $341 #
plane-surface $-1 0 -27.22216236320919 7.9945402260683682 0 -1 0 0 0 -1 forward_v I I I I #
coedge $-1 $453 $454 $455 $456 reversed $342 $-1 #
coedge $-1 $457 $344 $458 $459 reversed $279 $-1 #
coedge $-1 $344 $460 $354 $420 reversed $279 $-1 #
coedge $-1 $345 $419 $461 $462 reversed $210 $-1 #
coedge $-1 $463 $346 $345 $408 forward $410 $-1 #
edge $-1 $349 -46.707238628420519 $464 74.358958708456683 $345 $465 forward 7 unknown #
coedge $-1 $346 $458 $352 $416 forward $410 $-1 #
loop $-1 $-1 $346 $400 #
vertex $-1 $416 $466 #
straight-curve $-1 46.707238628420519 41.932677956797505 9.4945402260683665 0 1 0 I I #
straight-curve $-1 46.707238628420519 -17.560021082519214 56.817295483330099 0 0.7313536940579346 -0.68199836817093118 I I #
point $-1 46.707238628420519 37.950595848540715 9.4945402260683682 #
point $-1 46.707238628420519 37.950595848540715 5.0528066036915433 #
edge $-1 $417 -44.09240937423737 $411 -16.440689294201221 $409 $467 forward 7 unknown #
vertex $-1 $416 $468 #
straight-curve $-1 74.358958708456683 1.3059382521627523 39.224503398228507 0 -0.7313536940579346 0.68199836817093118 I I #
coedge $-1 $406 $354 $469 $470 reversed $210 $-1 #
edge $-1 $355 -5.0528066036915398 $471 9.4945402260683682 $405 $472 forward 7 unknown #
point $-1 74.358958708456683 37.950595848540715 5.0528066036915398 #
vertex $-1 $362 $473 #
straight-curve $-1 0 37.950595848540715 -9.4945402260683682 1 0 0 I I #
straight-curve $-1 -74.358958708456683 37.950595848540715 0 0 0 -1 I I #
straight-curve $-1 -74.358958708456683 0 -9.4945402260683682 0 1 0 I I #
face $-1 $-1 $386 $14 $-1 $474 reversed single #
loop $-1 $-1 $379 $373 #
plane-surface $-1 0 -37.950595848540715 0 0 1 0 0 0 1 forward_v I I I I #
coedge $-1 $376 $375 $440 $475 reversed $258 $-1 #
coedge $-1 $440 $439 $377 $431 forward $386 $-1 #
edge $-1 $435 -21.657406295603238 $432 -10.928972810271713 $430 $476 forward 7 unknown #
vertex $-1 $431 $477 #
straight-curve $-1 0 -27.22216236320919 6.4945402260683682 1 0 0 I I #
coedge $-1 $444 $379 $439 $478 forward $427 $-1 #
vertex $-1 $478 $479 #
straight-curve $-1 0 -37.950595848540715 6.4945402260683682 -1 0 0 I I #
point $-1 74.358958708456683 -27.22216236320919 6.4945402260683682 #
point $-1 74.358958708456683 -37.950595848540715 6.4945402260683682 #
coedge $-1 $430 $384 $434 $478 reversed $386 $-1 #
coedge $-1 $385 $430 $429 $475 forward $386 $-1 #
vertex $-1 $475 $480 #
straight-curve $-1 -74.358958708456683 0 9.4945402260683682 0 -1 0 I I #
straight-curve $-1 0 -27.22216236320919 9.4945402260683682 1 0 0 I I #
coedge $-1 $393 $434 $395 $446 reversed $427 $-1 #
straight-curve $-1 74.358958708456683 -37.950595848540715 0 0 0 -1 I I #
edge $-1 $396 -74.358958708456683 $448 74.358958708456683 $444 $481 forward 7 unknown #
point $-1 74.358958708456683 -37.950595848540715 -9.4945402260683682 #
vertex $-1 $398 $482 #
straight-curve $-1 -74.358958708456683 0 -9.4945402260683682 0 1 0 I I #
face $-1 $483 $484 $15 $-1 $485 reversed single #
plane-surface $-1 0 0 9.4945402260683682 0 0 1 1 0 0 forward_v I I I I #
coedge $-1 $486 $487 $457 $488 reversed $401 $-1 #
coedge $-1 $489 $403 $487 $490 reversed $342 $-1 #
coedge $-1 $403 $489 $491 $492 reversed $342 $-1 #
coedge $-1 $493 $457 $403 $456 forward $279 $-1 #
edge $-1 $494 10.928972810271713 $495 21.657406295603238 $455 $496 forward 7 unknown #
coedge $-1 $455 $404 $452 $488 forward $279 $-1 #
coedge $-1 $409 $497 $404 $459 forward $410 $-1 #
edge $-1 $498 -27.22216236320919 $417 33.187419799514679 $404 $499 forward 7 unknown #
coedge $-1 $405 $493 $500 $501 reversed $279 $-1 #
coedge $-1 $502 $503 $406 $462 forward $504 $-1 #
edge $-1 $464 -9.4945402260683682 $505 9.4945402260683682 $406 $506 forward 7 unknown #
coedge $-1 $497 $407 $503 $507 forward $410 $-1 #
vertex $-1 $408 $508 #
straight-curve $-1 0 37.950595848540715 9.4945402260683682 -1 0 0 I I #
point $-1 46.707238628420519 33.187419799514679 9.4945402260683593 #
straight-curve $-1 30.266549334219299 33.187419799514672 9.49454022606837 -1 0 0 I I #
point $-1 74.358958708456669 33.187419799514679 9.4945402260683593 #
coedge $-1 $500 $509 $419 $470 forward $484 $-1 #
edge $-1 $505 -74.358958708456683 $471 74.358958708456683 $419 $510 forward 7 unknown #
vertex $-1 $501 $511 #
straight-curve $-1 74.358958708456683 37.950595848540715 0 0 0 -1 I I #
point $-1 -74.358958708456683 37.950595848540715 -9.4945402260683682 #
plane-surface $-1 -74.358958708456683 0 0 1 0 0 0 0 -1 forward_v I I I I #
edge $-1 $432 2.4972701130341841 $441 5.4972701130341841 $440 $512 forward 7 unknown #
straight-curve $-1 -74.358958708456683 -16.293189552937477 6.4945402260683682 0 1 0 I I #
point $-1 -74.358958708456683 -27.22216236320919 6.4945402260683682 #
edge $-1 $435 -6.4945402260683682 $448 9.4945402260683682 $439 $513 forward 7 unknown #
point $-1 -74.358958708456683 -37.950595848540715 6.4945402260683682 #
point $-1 -74.358958708456683 -27.22216236320919 9.4945402260683682 #
straight-curve $-1 0 -37.950595848540715 -9.4945402260683682 -1 0 0 I I #
point $-1 -74.358958708456683 -37.950595848540715 -9.4945402260683682 #
face $-1 $514 $515 $15 $-1 $516 reversed single #
loop $-1 $-1 $500 $450 #
plane-surface $-1 0 0 -9.4945402260683682 0 0 1 1 0 0 forward_v I I I I #
coedge $-1 $517 $452 $497 $518 reversed $401 $-1 #
coedge $-1 $452 $517 $453 $490 forward $401 $-1 #
edge $-1 $498 -5.4972701130341841 $494 -2.4972701130341841 $457 $519 forward 7 unknown #
coedge $-1 $454 $453 $520 $521 reversed $342 $-1 #
edge $-1 $522 -74.358958708456683 $494 74.358958708456683 $487 $523 forward 7 unknown #
coedge $-1 $524 $525 $454 $492 forward $515 $-1 #
edge $-1 $495 -74.358958708456683 $526 74.358958708456683 $491 $527 forward 7 unknown #
coedge $-1 $460 $455 $525 $528 forward $279 $-1 #
vertex $-1 $456 $529 #
vertex $-1 $528 $530 #
straight-curve $-1 74.358958708456683 -16.293189552937477 6.4945402260683682 0 -1 0 I I #
coedge $-1 $458 $463 $486 $518 forward $410 $-1 #
vertex $-1 $459 $531 #
straight-curve $-1 74.358958708456683 0 9.4945402260683682 0 1 0 I I #
coedge $-1 $532 $469 $460 $501 forward $484 $-1 #
edge $-1 $471 -37.950595848540715 $533 37.950595848540715 $460 $534 forward 7 unknown #
coedge $-1 $535 $461 $509 $536 reversed $504 $-1 #
coedge $-1 $461 $537 $463 $507 reversed $504 $-1 #
loop $-1 $-1 $537 $514 #
vertex $-1 $470 $538 #
straight-curve $-1 -74.358958708456683 37.950595848540715 0 0 0 -1 I I #
edge $-1 $464 -37.950595848540715 $539 27.22216236320919 $503 $540 forward 7 unknown #
point $-1 -74.358958708456683 37.950595848540715 9.4945402260683682 #
coedge $-1 $469 $532 $502 $536 forward $484 $-1 #
straight-curve $-1 0 37.950595848540715 -9.4945402260683682 1 0 0 I I #
point $-1 74.358958708456683 37.950595848540715 -9.4945402260683682 #
straight-curve $-1 -74.358958708456683 -27.22216236320919 3.9972701130341841 0 0 1 I I #
straight-curve $-1 -74.358958708456683 -37.950595848540715 0 0 0 -1 I I #
face $-1 $-1 $504 $15 $-1 $541 reversed single #
loop $-1 $-1 $491 $483 #
plane-surface $-1 0 -37.950595848540715 0 0 1 0 0 0 1 forward_v I I I I #
coedge $-1 $487 $486 $537 $542 reversed $401 $-1 #
edge $-1 $539 -74.358958708456683 $498 74.358958708456683 $497 $543 forward 7 unknown #
straight-curve $-1 74.358958708456683 -27.22216236320919 3.9972701130341841 0 0 -1 I I #
coedge $-1 $537 $535 $489 $521 forward $504 $-1 #
edge $-1 $526 -21.657406295603238 $522 -10.928972810271713 $520 $544 forward 7 unknown #
vertex $-1 $521 $545 #
straight-curve $-1 0 -27.22216236320919 6.4945402260683682 1 0 0 I I #
coedge $-1 $546 $491 $535 $547 forward $515 $-1 #
coedge $-1 $491 $546 $493 $528 reversed $515 $-1 #
vertex $-1 $547 $548 #
straight-curve $-1 0 -37.950595848540715 6.4945402260683682 -1 0 0 I I #
edge $-1 $495 -6.4945402260683682 $533 9.4945402260683682 $493 $549 forward 7 unknown #
point $-1 74.358958708456683 -27.22216236320919 6.4945402260683682 #
point $-1 74.358958708456683 -37.950595848540715 6.4945402260683682 #
point $-1 74.358958708456683 -27.22216236320919 9.4945402260683682 #
coedge $-1 $509 $500 $546 $550 forward $484 $-1 #
vertex $-1 $528 $551 #
straight-curve $-1 74.358958708456683 0 -9.4945402260683682 0 -1 0 I I #
coedge $-1 $520 $502 $524 $547 reversed $504 $-1 #
edge $-1 $552 -37.950595848540715 $505 37.950595848540715 $502 $553 forward 7 unknown #
coedge $-1 $503 $520 $517 $542 forward $504 $-1 #
point $-1 -74.358958708456683 37.950595848540715 -9.4945402260683682 #
vertex $-1 $542 $554 #
straight-curve $-1 -74.358958708456683 0 9.4945402260683682 0 -1 0 I I #
plane-surface $-1 -74.358958708456683 0 0 1 0 0 0 0 -1 forward_v I I I I #
edge $-1 $522 2.4972701130341841 $539 5.4972701130341841 $537 $555 forward 7 unknown #
straight-curve $-1 0 -27.22216236320919 9.4945402260683682 1 0 0 I I #
straight-curve $-1 -74.358958708456683 -16.293189552937477 6.4945402260683682 0 1 0 I I #
point $-1 -74.358958708456683 -27.22216236320919 6.4945402260683682 #
coedge $-1 $525 $524 $532 $550 reversed $515 $-1 #
edge $-1 $526 -6.4945402260683682 $552 9.4945402260683682 $535 $556 forward 7 unknown #
point $-1 -74.358958708456683 -37.950595848540715 6.4945402260683682 #
straight-curve $-1 74.358958708456683 -37.950595848540715 0 0 0 -1 I I #
edge $-1 $533 -74.358958708456683 $552 74.358958708456683 $546 $557 forward 7 unknown #
point $-1 74.358958708456683 -37.950595848540715 -9.4945402260683682 #
vertex $-1 $536 $558 #
straight-curve $-1 -74.358958708456683 0 -9.4945402260683682 0 1 0 I I #
point $-1 -74.358958708456683 -27.22216236320919 9.4945402260683682 #
straight-curve $-1 -74.358958708456683 -27.22216236320919 3.9972701130341841 0 0 1 I I #
straight-curve $-1 -74.358958708456683 -37.950595848540715 0 0 0 -1 I I #
straight-curve $-1 0 -37.950595848540715 -9.4945402260683682 -1 0 0 I I #
point $-1 -74.358958708456683 -37.950595848540715 -9.4945402260683682 #
End-of-ACIS-data 