500 0 14 0           
7 Unknown 11 ACIS 5.0 NT 24 Thu Mar 25 19:42:07 1999 
-1 9.9999999999999995e-007 1e-010 
body $-1 $14 $-1 $15 #
body $-1 $16 $-1 $17 #
body $-1 $18 $-1 $19 #
body $-1 $20 $-1 $21 #
body $-1 $22 $-1 $23 #
body $-1 $24 $-1 $25 #
body $-1 $26 $-1 $27 #
body $-1 $28 $-1 $29 #
body $-1 $30 $-1 $31 #
body $-1 $32 $-1 $33 #
body $-1 $34 $-1 $35 #
body $-1 $36 $-1 $37 #
body $-1 $38 $-1 $39 #
body $-1 $40 $-1 $41 #
lump $-1 $-1 $42 $0 #
transform $-1 1 0 0 0 1 0 0 0 1 59.566026795251318 30.707762011497678 8.5352340249615857 1 rotate no_reflect no_shear #
lump $-1 $-1 $43 $1 #
transform $-1 1 0 0 0 1 0 0 0 1 59.566026795251318 30.707762011497678 8.5352340249615857 1 rotate no_reflect no_shear #
lump $-1 $-1 $44 $2 #
transform $-1 1 0 0 0 1 0 0 0 1 59.566026795251318 30.707762011497678 8.5352340249615857 1 rotate no_reflect no_shear #
lump $-1 $-1 $45 $3 #
transform $-1 1 0 0 0 1 0 0 0 1 59.566026795251318 30.707762011497678 8.5352340249615857 1 rotate no_reflect no_shear #
lump $-1 $-1 $46 $4 #
transform $-1 1 0 0 0 1 0 0 0 1 59.566026795251318 30.707762011497678 8.5352340249615857 1 rotate no_reflect no_shear #
lump $-1 $-1 $47 $5 #
transform $-1 1 0 0 0 1 0 0 0 1 59.566026795251318 30.707762011497678 8.5352340249615857 1 rotate no_reflect no_shear #
lump $-1 $-1 $48 $6 #
transform $-1 1 0 0 0 1 0 0 0 1 59.566026795251318 30.707762011497678 8.5352340249615857 1 rotate no_reflect no_shear #
lump $-1 $-1 $49 $7 #
transform $-1 1 0 0 0 1 0 0 0 1 59.566026795251318 30.707762011497678 8.5352340249615857 1 rotate no_reflect no_shear #
lump $-1 $-1 $50 $8 #
transform $-1 1 0 0 0 1 0 0 0 1 59.566026795251318 30.707762011497678 8.5352340249615857 1 rotate no_reflect no_shear #
lump $-1 $-1 $51 $9 #
transform $-1 1 0 0 0 1 0 0 0 1 59.566026795251318 30.707762011497678 8.5352340249615857 1 rotate no_reflect no_shear #
lump $-1 $-1 $52 $10 #
transform $-1 1 0 0 0 1 0 0 0 1 59.566026795251318 30.707762011497678 8.5352340249615857 1 rotate no_reflect no_shear #
lump $-1 $-1 $53 $11 #
transform $-1 1 0 0 0 1 0 0 0 1 59.566026795251318 30.707762011497678 8.5352340249615857 1 rotate no_reflect no_shear #
lump $-1 $-1 $54 $12 #
transform $-1 1 0 0 0 1 0 0 0 1 59.566026795251318 30.707762011497678 8.5352340249615857 1 rotate no_reflect no_shear #
lump $-1 $-1 $55 $13 #
transform $-1 1 0 0 0 1 0 0 0 1 59.566026795251318 30.707762011497678 8.5352340249615857 1 rotate no_reflect no_shear #
shell $-1 $-1 $-1 $56 $-1 $14 #
shell $-1 $-1 $-1 $57 $-1 $16 #
shell $-1 $-1 $-1 $58 $-1 $18 #
shell $-1 $-1 $-1 $59 $-1 $20 #
shell $-1 $-1 $-1 $60 $-1 $22 #
shell $-1 $-1 $-1 $61 $-1 $24 #
shell $-1 $-1 $-1 $62 $-1 $26 #
shell $-1 $-1 $-1 $63 $-1 $28 #
shell $-1 $-1 $-1 $64 $-1 $30 #
shell $-1 $-1 $-1 $65 $-1 $32 #
shell $-1 $-1 $-1 $66 $-1 $34 #
shell $-1 $-1 $-1 $67 $-1 $36 #
shell $-1 $-1 $-1 $68 $-1 $38 #
shell $-1 $-1 $-1 $69 $-1 $40 #
face $-1 $70 $71 $42 $-1 $72 forward single #
face $-1 $73 $74 $43 $-1 $75 forward single #
face $-1 $76 $77 $44 $-1 $78 reversed single #
face $-1 $79 $80 $45 $-1 $81 forward single #
face $-1 $82 $83 $46 $-1 $84 forward single #
face $-1 $85 $86 $47 $-1 $87 reversed single #
face $-1 $88 $89 $48 $-1 $90 forward single #
face $-1 $91 $92 $49 $-1 $93 forward single #
face $-1 $94 $95 $50 $-1 $96 reversed single #
face $-1 $97 $98 $51 $-1 $99 forward single #
face $-1 $100 $101 $52 $-1 $102 forward single #
face $-1 $103 $104 $53 $-1 $105 reversed single #
face $-1 $106 $107 $54 $-1 $108 forward single #
face $-1 $109 $110 $55 $-1 $111 forward single #
face $-1 $112 $113 $42 $-1 $114 reversed single #
loop $-1 $-1 $115 $56 #
plane-surface $-1 0 0 8.5352340249615857 0 0 1 1 0 0 forward_v I I I I #
face $-1 $116 $117 $43 $-1 $118 reversed single #
loop $-1 $-1 $119 $57 #
plane-surface $-1 0 -30.707762011497678 0 0 1 0 0 0 1 forward_v I I I I #
face $-1 $120 $121 $44 $-1 $122 reversed single #
loop $-1 $-1 $123 $58 #
plane-surface $-1 24.537447859066987 -11.741818702153491 170.09761512557384 0 -1 0 -0.54463904215088732 0 -0.83867056331134215 forward_v I I I I #
face $-1 $124 $125 $45 $-1 $126 forward single #
loop $-1 $127 $128 $59 #
cone-surface $-1 56.706781102394977 -20.149048229401686 6.349677548597974 -0.54463904215088732 0 -0.83867056331134215 0.83867056331134215 0 -0.54463904215088732 1 I I 0 1 1 forward I I I I #
face $-1 $129 $130 $46 $-1 $131 forward single #
loop $-1 $132 $133 $60 #
cone-surface $-1 56.706781102394977 -15.104710513052769 6.349677548597974 -0.54463904215088732 0 -0.83867056331134215 0.83867056331134215 0 -0.54463904215088732 1 I I 0 1 1 forward I I I I #
face $-1 $134 $135 $47 $-1 $136 reversed single #
loop $-1 $-1 $137 $61 #
plane-surface $-1 24.537447859066987 15.368032323745833 170.09761512557384 0 -1 0 -0.54463904215088732 0 -0.83867056331134215 forward_v I I I I #
face $-1 $138 $139 $48 $-1 $140 forward single #
loop $-1 $141 $142 $62 #
cone-surface $-1 56.706781102394977 6.9608027964976387 6.349677548597974 -0.54463904215088732 0 -0.83867056331134215 0.83867056331134215 0 -0.54463904215088732 1 I I 0 1 1 forward I I I I #
face $-1 $143 $144 $49 $-1 $145 forward single #
loop $-1 $146 $147 $63 #
cone-surface $-1 56.706781102394977 12.005140512846552 6.349677548597974 -0.54463904215088732 0 -0.83867056331134215 0.83867056331134215 0 -0.54463904215088732 1 I I 0 1 1 forward I I I I #
face $-1 $148 $149 $50 $-1 $150 reversed single #
loop $-1 $-1 $151 $64 #
plane-surface $-1 -124.44999435225084 -23.51194004030096 105.21364756857432 0 1 0 -0.54463904215088732 0 0.83867056331134215 forward_v I I I I #
face $-1 $152 $153 $51 $-1 $154 forward single #
loop $-1 $155 $156 $65 #
cone-surface $-1 -56.70678110239497 -20.149048229401686 6.3496775485979704 0.54463904215088732 0 -0.83867056331134215 0.83867056331134215 0 0.54463904215088732 1 I I 0 1 1 forward I I I I #
face $-1 $157 $158 $52 $-1 $159 forward single #
loop $-1 $160 $161 $66 #
cone-surface $-1 -56.70678110239497 -15.104710513052769 6.3496775485979704 0.54463904215088732 0 -0.83867056331134215 0.83867056331134215 0 0.54463904215088732 1 I I 0 1 1 forward I I I I #
face $-1 $162 $163 $53 $-1 $164 reversed single #
loop $-1 $-1 $165 $67 #
plane-surface $-1 -124.44999435225084 3.5979109855983644 105.21364756857432 0 1 0 -0.54463904215088732 0 0.83867056331134215 forward_v I I I I #
face $-1 $166 $167 $54 $-1 $168 forward single #
loop $-1 $169 $170 $68 #
cone-surface $-1 -56.70678110239497 6.9608027964976387 6.3496775485979704 0.54463904215088732 0 -0.83867056331134215 0.83867056331134215 0 0.54463904215088732 1 I I 0 1 1 forward I I I I #
face $-1 $171 $172 $55 $-1 $173 forward single #
loop $-1 $174 $175 $69 #
cone-surface $-1 -56.70678110239497 12.005140512846552 6.3496775485979704 0.54463904215088732 0 -0.83867056331134215 0.83867056331134215 0 0.54463904215088732 1 I I 0 1 1 forward I I I I #
face $-1 $176 $177 $42 $-1 $178 reversed single #
loop $-1 $-1 $179 $70 #
plane-surface $-1 0 0 -8.5352340249615857 0 0 1 1 0 0 forward_v I I I I #
coedge $-1 $180 $181 $182 $183 forward $71 $-1 #
face $-1 $184 $185 $43 $-1 $186 reversed single #
loop $-1 $-1 $187 $73 #
plane-surface $-1 0 0 -8.5352340249615857 0 0 1 1 0 0 forward_v I I I I #
coedge $-1 $188 $189 $190 $191 forward $74 $-1 #
face $-1 $192 $193 $44 $-1 $194 reversed single #
loop $-1 $-1 $195 $76 #
plane-surface $-1 -40.34651969793255 -17.626879371227226 70.185068632389985 0.54463904215088732 0 0.83867056331134215 0.83867056331134215 0 -0.54463904215088732 forward_v I I I I #
coedge $-1 $196 $197 $198 $199 reversed $77 $-1 #
face $-1 $-1 $200 $45 $-1 $201 forward single #
loop $-1 $202 $203 $79 #
cone-surface $-1 56.065279850760945 -20.149048229401686 5.3618522653642451 -0.54463904215088732 0 -0.83867056331134215 0.41933528165567108 0 -0.27231952107544366 1 I I -0.70710678118654746 0.70710678118654746 0.5 forward I I I I #
loop $-1 $-1 $204 $59 #
coedge $-1 $128 $128 $205 $206 reversed $80 $-1 #
face $-1 $-1 $207 $46 $-1 $208 forward single #
loop $-1 $209 $210 $82 #
cone-surface $-1 56.065279850760945 -15.104710513052769 5.3618522653642451 -0.54463904215088732 0 -0.83867056331134215 0.41933528165567108 0 -0.27231952107544366 1 I I -0.70710678118654746 0.70710678118654746 0.5 forward I I I I #
loop $-1 $-1 $211 $60 #
coedge $-1 $133 $133 $212 $213 reversed $83 $-1 #
face $-1 $214 $215 $47 $-1 $216 reversed single #
loop $-1 $-1 $217 $85 #
plane-surface $-1 -40.34651969793255 9.4829716546720988 70.185068632389985 0.54463904215088732 0 0.83867056331134215 0.83867056331134215 0 -0.54463904215088732 forward_v I I I I #
coedge $-1 $218 $219 $220 $221 reversed $86 $-1 #
face $-1 $-1 $222 $48 $-1 $223 forward single #
loop $-1 $224 $225 $88 #
cone-surface $-1 56.065279850760945 6.9608027964976387 5.3618522653642451 -0.54463904215088732 0 -0.83867056331134215 0.41933528165567108 0 -0.27231952107544366 1 I I -0.70710678118654746 0.70710678118654746 0.5 forward I I I I #
loop $-1 $-1 $226 $62 #
coedge $-1 $142 $142 $227 $228 reversed $89 $-1 #
face $-1 $-1 $229 $49 $-1 $230 forward single #
loop $-1 $231 $232 $91 #
cone-surface $-1 56.065279850760945 12.005140512846552 5.3618522653642451 -0.54463904215088732 0 -0.83867056331134215 0.41933528165567108 0 -0.27231952107544366 1 I I -0.70710678118654746 0.70710678118654746 0.5 forward I I I I #
loop $-1 $-1 $233 $63 #
coedge $-1 $147 $147 $234 $235 reversed $92 $-1 #
face $-1 $236 $237 $50 $-1 $238 reversed single #
loop $-1 $-1 $239 $94 #
plane-surface $-1 -59.566026795251304 -17.626879371227226 5.3011010753904628 -0.54463904215088732 0 0.83867056331134215 0.83867056331134215 0 0.54463904215088732 forward_v I I I I #
coedge $-1 $240 $241 $242 $243 reversed $95 $-1 #
face $-1 $-1 $244 $51 $-1 $245 forward single #
loop $-1 $246 $247 $97 #
cone-surface $-1 -56.065279850760938 -20.149048229401686 5.3618522653642415 0.54463904215088732 0 -0.83867056331134215 0.41933528165567108 0 0.27231952107544366 1 I I -0.70710678118654746 0.70710678118654746 0.5 forward I I I I #
loop $-1 $-1 $248 $65 #
coedge $-1 $156 $156 $249 $250 reversed $98 $-1 #
face $-1 $-1 $251 $52 $-1 $252 forward single #
loop $-1 $253 $254 $100 #
cone-surface $-1 -56.065279850760938 -15.104710513052769 5.3618522653642415 0.54463904215088732 0 -0.83867056331134215 0.41933528165567108 0 0.27231952107544366 1 I I -0.70710678118654746 0.70710678118654746 0.5 forward I I I I #
loop $-1 $-1 $255 $66 #
coedge $-1 $161 $161 $256 $257 reversed $101 $-1 #
face $-1 $258 $259 $53 $-1 $260 reversed single #
loop $-1 $-1 $261 $103 #
plane-surface $-1 -59.566026795251304 9.4829716546720988 5.3011010753904628 -0.54463904215088732 0 0.83867056331134215 0.83867056331134215 0 0.54463904215088732 forward_v I I I I #
coedge $-1 $262 $263 $264 $265 reversed $104 $-1 #
face $-1 $-1 $266 $54 $-1 $267 forward single #
loop $-1 $268 $269 $106 #
cone-surface $-1 -56.065279850760938 6.9608027964976387 5.3618522653642415 0.54463904215088732 0 -0.83867056331134215 0.41933528165567108 0 0.27231952107544366 1 I I -0.70710678118654746 0.70710678118654746 0.5 forward I I I I #
loop $-1 $-1 $270 $68 #
coedge $-1 $170 $170 $271 $272 reversed $107 $-1 #
face $-1 $-1 $273 $55 $-1 $274 forward single #
loop $-1 $275 $276 $109 #
cone-surface $-1 -56.065279850760938 12.005140512846552 5.3618522653642415 0.54463904215088732 0 -0.83867056331134215 0.41933528165567108 0 0.27231952107544366 1 I I -0.70710678118654746 0.70710678118654746 0.5 forward I I I I #
loop $-1 $-1 $277 $69 #
coedge $-1 $175 $175 $278 $279 reversed $110 $-1 #
face $-1 $280 $281 $42 $-1 $282 reversed single #
loop $-1 $-1 $283 $112 #
plane-surface $-1 0 -30.707762011497678 0 0 1 0 0 0 1 forward_v I I I I #
coedge $-1 $284 $285 $286 $287 forward $113 $-1 #
coedge $-1 $288 $115 $289 $290 forward $71 $-1 #
coedge $-1 $115 $288 $291 $292 forward $71 $-1 #
coedge $-1 $293 $294 $115 $183 reversed $295 $-1 #
edge $-1 $296 -30.707762011497678 $297 30.707762011497678 $182 $298 forward 7 unknown #
face $-1 $299 $300 $43 $-1 $301 forward single #
loop $-1 $-1 $302 $116 #
plane-surface $-1 59.566026795251318 0 0 -1 0 0 0 0 1 forward_v I I I I #
coedge $-1 $303 $304 $305 $306 forward $117 $-1 #
coedge $-1 $305 $119 $302 $307 reversed $74 $-1 #
coedge $-1 $119 $305 $308 $309 reversed $74 $-1 #
coedge $-1 $310 $311 $119 $191 reversed $300 $-1 #
edge $-1 $312 -59.566026795251318 $313 59.566026795251318 $190 $314 forward 7 unknown #
face $-1 $315 $316 $44 $-1 $317 reversed single #
loop $-1 $-1 $318 $120 #
plane-surface $-1 24.537447859066987 -23.51194004030096 170.09761512557384 0 1 0 0.54463904215088732 0 0.83867056331134215 forward_v I I I I #
coedge $-1 $319 $320 $321 $322 reversed $121 $-1 #
coedge $-1 $197 $123 $323 $324 reversed $77 $-1 #
coedge $-1 $123 $196 $319 $325 reversed $77 $-1 #
coedge $-1 $321 $326 $123 $199 forward $327 $-1 #
edge $-1 $328 -47.297302865717825 $329 -42.317174941122289 $198 $330 forward 7 unknown #
loop $-1 $-1 $205 $124 #
plane-surface $-1 -40.34651969793255 -17.626879371227226 70.185068632389985 0.54463904215088732 0 0.83867056331134215 0.83867056331134215 0 -0.54463904215088732 forward_v I I I I #
loop $-1 $-1 $331 $79 #
coedge $-1 $203 $203 $204 $332 reversed $125 $-1 #
coedge $-1 $204 $204 $203 $332 forward $127 $-1 #
coedge $-1 $205 $205 $128 $206 forward $200 $-1 #
edge $-1 $333 0 $333 6.2831853071796004 $205 $334 forward 7 unknown #
loop $-1 $-1 $212 $129 #
plane-surface $-1 -40.34651969793255 -17.626879371227226 70.185068632389985 0.54463904215088732 0 0.83867056331134215 0.83867056331134215 0 -0.54463904215088732 forward_v I I I I #
loop $-1 $-1 $335 $82 #
coedge $-1 $210 $210 $211 $336 reversed $130 $-1 #
coedge $-1 $211 $211 $210 $336 forward $132 $-1 #
coedge $-1 $212 $212 $133 $213 forward $207 $-1 #
edge $-1 $337 0 $337 6.2831853071796004 $212 $338 forward 7 unknown #
face $-1 $339 $340 $47 $-1 $341 reversed single #
loop $-1 $-1 $342 $134 #
plane-surface $-1 24.537447859066987 3.5979109855983644 170.09761512557384 0 1 0 0.54463904215088732 0 0.83867056331134215 forward_v I I I I #
coedge $-1 $343 $344 $345 $346 reversed $135 $-1 #
coedge $-1 $219 $137 $347 $348 reversed $86 $-1 #
coedge $-1 $137 $218 $343 $349 reversed $86 $-1 #
coedge $-1 $345 $350 $137 $221 forward $351 $-1 #
edge $-1 $352 -47.297302865717825 $353 -42.317174941122289 $220 $354 forward 7 unknown #
loop $-1 $-1 $227 $138 #
plane-surface $-1 -40.34651969793255 9.4829716546720988 70.185068632389985 0.54463904215088732 0 0.83867056331134215 0.83867056331134215 0 -0.54463904215088732 forward_v I I I I #
loop $-1 $-1 $355 $88 #
coedge $-1 $225 $225 $226 $356 reversed $139 $-1 #
coedge $-1 $226 $226 $225 $356 forward $141 $-1 #
coedge $-1 $227 $227 $142 $228 forward $222 $-1 #
edge $-1 $357 0 $357 6.2831853071796004 $227 $358 forward 7 unknown #
loop $-1 $-1 $234 $143 #
plane-surface $-1 -40.34651969793255 9.4829716546720988 70.185068632389985 0.54463904215088732 0 0.83867056331134215 0.83867056331134215 0 -0.54463904215088732 forward_v I I I I #
loop $-1 $-1 $359 $91 #
coedge $-1 $232 $232 $233 $360 reversed $144 $-1 #
coedge $-1 $233 $233 $232 $360 forward $146 $-1 #
coedge $-1 $234 $234 $147 $235 forward $229 $-1 #
edge $-1 $361 0 $361 6.2831853071796004 $234 $362 forward 7 unknown #
face $-1 $363 $364 $50 $-1 $365 forward single #
loop $-1 $-1 $366 $148 #
plane-surface $-1 -124.44999435225084 -11.741818702153491 105.21364756857432 0 -1 0 0.54463904215088732 0 -0.83867056331134215 forward_v I I I I #
coedge $-1 $367 $368 $369 $370 reversed $149 $-1 #
coedge $-1 $241 $151 $371 $372 reversed $95 $-1 #
coedge $-1 $151 $240 $367 $373 reversed $95 $-1 #
coedge $-1 $369 $374 $151 $243 forward $364 $-1 #
edge $-1 $375 2.6589703808741021 $376 7.6390983054696306 $242 $377 forward 7 unknown #
loop $-1 $-1 $249 $152 #
plane-surface $-1 -59.566026795251304 -17.626879371227226 5.3011010753904628 -0.54463904215088732 0 0.83867056331134215 0.83867056331134215 0 0.54463904215088732 forward_v I I I I #
loop $-1 $-1 $378 $97 #
coedge $-1 $247 $247 $248 $379 reversed $153 $-1 #
coedge $-1 $248 $248 $247 $379 forward $155 $-1 #
coedge $-1 $249 $249 $156 $250 forward $244 $-1 #
edge $-1 $380 0 $380 6.2831853071796004 $249 $381 forward 7 unknown #
loop $-1 $-1 $256 $157 #
plane-surface $-1 -59.566026795251304 -17.626879371227226 5.3011010753904628 -0.54463904215088732 0 0.83867056331134215 0.83867056331134215 0 0.54463904215088732 forward_v I I I I #
loop $-1 $-1 $382 $100 #
coedge $-1 $254 $254 $255 $383 reversed $158 $-1 #
coedge $-1 $255 $255 $254 $383 forward $160 $-1 #
coedge $-1 $256 $256 $161 $257 forward $251 $-1 #
edge $-1 $384 0 $384 6.2831853071796004 $256 $385 forward 7 unknown #
face $-1 $386 $387 $53 $-1 $388 forward single #
loop $-1 $-1 $389 $162 #
plane-surface $-1 -124.44999435225084 15.368032323745833 105.21364756857432 0 -1 0 0.54463904215088732 0 -0.83867056331134215 forward_v I I I I #
coedge $-1 $390 $391 $392 $393 reversed $163 $-1 #
coedge $-1 $263 $165 $394 $395 reversed $104 $-1 #
coedge $-1 $165 $262 $390 $396 reversed $104 $-1 #
coedge $-1 $392 $397 $165 $265 forward $387 $-1 #
edge $-1 $398 2.6589703808741021 $399 7.6390983054696306 $264 $400 forward 7 unknown #
loop $-1 $-1 $271 $166 #
plane-surface $-1 -59.566026795251304 9.4829716546720988 5.3011010753904628 -0.54463904215088732 0 0.83867056331134215 0.83867056331134215 0 0.54463904215088732 forward_v I I I I #
loop $-1 $-1 $401 $106 #
coedge $-1 $269 $269 $270 $402 reversed $167 $-1 #
coedge $-1 $270 $270 $269 $402 forward $169 $-1 #
coedge $-1 $271 $271 $170 $272 forward $266 $-1 #
edge $-1 $403 0 $403 6.2831853071796004 $271 $404 forward 7 unknown #
loop $-1 $-1 $278 $171 #
plane-surface $-1 -59.566026795251304 9.4829716546720988 5.3011010753904628 -0.54463904215088732 0 0.83867056331134215 0.83867056331134215 0 0.54463904215088732 forward_v I I I I #
loop $-1 $-1 $405 $109 #
coedge $-1 $276 $276 $277 $406 reversed $172 $-1 #
coedge $-1 $277 $277 $276 $406 forward $174 $-1 #
coedge $-1 $278 $278 $175 $279 forward $273 $-1 #
edge $-1 $407 0 $407 6.2831853071796004 $278 $408 forward 7 unknown #
face $-1 $409 $410 $42 $-1 $411 reversed single #
loop $-1 $-1 $412 $176 #
plane-surface $-1 -59.566026795251318 0 0 1 0 0 0 0 -1 forward_v I I I I #
coedge $-1 $291 $413 $293 $414 reversed $177 $-1 #
coedge $-1 $415 $179 $413 $416 forward $113 $-1 #
coedge $-1 $179 $415 $417 $418 forward $113 $-1 #
coedge $-1 $294 $293 $179 $287 reversed $295 $-1 #
edge $-1 $419 -30.707762011497678 $420 30.707762011497678 $286 $421 forward 7 unknown #
coedge $-1 $181 $180 $422 $423 forward $71 $-1 #
coedge $-1 $424 $425 $180 $290 reversed $410 $-1 #
edge $-1 $297 -59.566026795251318 $426 59.566026795251318 $289 $427 forward 7 unknown #
coedge $-1 $428 $283 $181 $292 reversed $177 $-1 #
edge $-1 $429 -59.566026795251318 $296 59.566026795251318 $291 $430 forward 7 unknown #
coedge $-1 $286 $182 $283 $414 forward $295 $-1 #
coedge $-1 $182 $286 $424 $431 reversed $295 $-1 #
loop $-1 $-1 $293 $409 #
vertex $-1 $183 $432 #
vertex $-1 $183 $433 #
straight-curve $-1 59.566026795251318 0 8.5352340249615857 0 1 0 I I #
face $-1 $434 $435 $43 $-1 $436 reversed single #
loop $-1 $-1 $311 $184 #
plane-surface $-1 0 -34.305672997096039 -4.6587837636415586 0 0 1 1 0 0 forward_v I I I I #
coedge $-1 $437 $438 $188 $307 forward $185 $-1 #
coedge $-1 $439 $187 $438 $440 forward $117 $-1 #
coedge $-1 $187 $439 $441 $442 forward $117 $-1 #
coedge $-1 $189 $188 $187 $306 reversed $74 $-1 #
edge $-1 $443 -59.566026795251318 $444 59.566026795251318 $187 $445 forward 7 unknown #
edge $-1 $444 -8.5352340249615857 $313 -4.6587837636415586 $302 $446 forward 7 unknown #
coedge $-1 $441 $447 $189 $309 forward $448 $-1 #
edge $-1 $312 4.6587837636415586 $443 8.5352340249615857 $308 $449 forward 7 unknown #
coedge $-1 $450 $190 $447 $451 forward $300 $-1 #
coedge $-1 $190 $450 $437 $452 forward $300 $-1 #
vertex $-1 $309 $453 #
vertex $-1 $452 $454 #
straight-curve $-1 0 -30.707762011497678 -4.6587837636415586 1 0 0 I I #
face $-1 $-1 $327 $44 $-1 $455 forward single #
loop $-1 $-1 $456 $192 #
plane-surface $-1 59.566026795251318 0 0 -1 0 0 0 0 1 forward_v I I I I #
coedge $-1 $457 $458 $459 $460 reversed $193 $-1 #
coedge $-1 $461 $195 $197 $325 forward $121 $-1 #
coedge $-1 $195 $461 $457 $462 forward $121 $-1 #
coedge $-1 $459 $198 $195 $322 forward $327 $-1 #
edge $-1 $329 2.9283790165398784 $463 14.698500354687347 $321 $464 forward 7 unknown #
coedge $-1 $465 $466 $196 $324 forward $316 $-1 #
edge $-1 $467 -79.747706487396485 $328 -76.513573537825337 $323 $468 forward 7 unknown #
edge $-1 $329 113.19393182677652 $467 119.13205359050266 $197 $469 forward 7 unknown #
coedge $-1 $198 $459 $465 $470 forward $327 $-1 #
loop $-1 $-1 $459 $315 #
vertex $-1 $324 $471 #
vertex $-1 $199 $472 #
straight-curve $-1 12.268723929533493 -11.741818702153491 8.5352340249615821 -1 0 0 I I #
coedge $-1 $331 $331 $-1 $473 reversed $202 $-1 #
edge $-1 $474 0 $474 6.2831853071796004 $203 $475 forward 7 unknown #
vertex $-1 $206 $476 #
ellipse-curve $-1 57.075962832953557 -20.149048229401686 6.91816755017601 0.54463904215088732 0 0.83867056331134215 0.83867056331134215 0 -0.54463904215088732 1 I I #
coedge $-1 $335 $335 $-1 $477 reversed $209 $-1 #
edge $-1 $478 0 $478 6.2831853071796004 $210 $479 forward 7 unknown #
vertex $-1 $213 $480 #
ellipse-curve $-1 57.075962832953557 -15.104710513052769 6.91816755017601 0.54463904215088732 0 0.83867056331134215 0.83867056331134215 0 -0.54463904215088732 1 I I #
face $-1 $-1 $351 $47 $-1 $481 forward single #
loop $-1 $-1 $482 $214 #
plane-surface $-1 59.566026795251318 0 0 -1 0 0 0 0 1 forward_v I I I I #
coedge $-1 $483 $484 $485 $486 reversed $215 $-1 #
coedge $-1 $487 $217 $219 $349 forward $135 $-1 #
coedge $-1 $217 $487 $483 $488 forward $135 $-1 #
coedge $-1 $485 $220 $217 $346 forward $351 $-1 #
edge $-1 $353 -10.626546496409784 $489 1.143574841737685 $345 $490 forward 7 unknown #
coedge $-1 $491 $492 $218 $348 forward $340 $-1 #
edge $-1 $493 -79.747706487396485 $352 -76.513573537825337 $347 $494 forward 7 unknown #
edge $-1 $353 113.19393182677652 $493 119.13205359050266 $219 $495 forward 7 unknown #
coedge $-1 $220 $485 $491 $496 forward $351 $-1 #
loop $-1 $-1 $485 $339 #
vertex $-1 $348 $497 #
vertex $-1 $221 $498 #
straight-curve $-1 12.268723929533493 15.368032323745833 8.5352340249615821 -1 0 0 I I #
coedge $-1 $355 $355 $-1 $499 reversed $224 $-1 #
edge $-1 $500 0 $500 6.2831853071796004 $225 $501 forward 7 unknown #
vertex $-1 $228 $502 #
ellipse-curve $-1 57.075962832953557 6.9608027964976387 6.91816755017601 0.54463904215088732 0 0.83867056331134215 0.83867056331134215 0 -0.54463904215088732 1 I I #
coedge $-1 $359 $359 $-1 $503 reversed $231 $-1 #
edge $-1 $504 0 $504 6.2831853071796004 $232 $505 forward 7 unknown #
vertex $-1 $235 $506 #
ellipse-curve $-1 57.075962832953557 12.005140512846552 6.91816755017601 0.54463904215088732 0 0.83867056331134215 0.83867056331134215 0 -0.54463904215088732 1 I I #
face $-1 $-1 $507 $50 $-1 $508 reversed single #
loop $-1 $-1 $242 $236 #
plane-surface $-1 0 0 8.5352340249615857 0 0 1 1 0 0 forward_v I I I I #
coedge $-1 $509 $510 $511 $512 reversed $237 $-1 #
coedge $-1 $513 $239 $241 $373 forward $149 $-1 #
coedge $-1 $239 $513 $509 $514 forward $149 $-1 #
coedge $-1 $511 $242 $239 $370 forward $364 $-1 #
edge $-1 $376 -14.698500354687347 $515 -2.9283790165398784 $369 $516 forward 7 unknown #
coedge $-1 $517 $518 $240 $372 forward $507 $-1 #
edge $-1 $519 -47.305722708896702 $375 -44.071589759325576 $371 $520 forward 7 unknown #
edge $-1 $376 -5.9381217637261061 $519 1.6755591966779756e-014 $241 $521 forward 7 unknown #
coedge $-1 $242 $511 $517 $522 forward $364 $-1 #
vertex $-1 $372 $523 #
vertex $-1 $243 $524 #
straight-curve $-1 -62.22499717612542 -23.51194004030096 8.5352340249615892 1 0 0 I I #
coedge $-1 $378 $378 $-1 $525 reversed $246 $-1 #
edge $-1 $526 0 $526 6.2831853071796004 $247 $527 forward 7 unknown #
vertex $-1 $250 $528 #
ellipse-curve $-1 -57.075962832953557 -20.149048229401686 6.9181675501760189 -0.54463904215088732 0 0.83867056331134215 0.83867056331134215 0 0.54463904215088732 1 I I #
coedge $-1 $382 $382 $-1 $529 reversed $253 $-1 #
edge $-1 $530 0 $530 6.2831853071796004 $254 $531 forward 7 unknown #
vertex $-1 $257 $532 #
ellipse-curve $-1 -57.075962832953557 -15.104710513052769 6.9181675501760189 -0.54463904215088732 0 0.83867056331134215 0.83867056331134215 0 0.54463904215088732 1 I I #
face $-1 $-1 $533 $53 $-1 $534 reversed single #
loop $-1 $-1 $264 $258 #
plane-surface $-1 0 0 8.5352340249615857 0 0 1 1 0 0 forward_v I I I I #
coedge $-1 $535 $536 $537 $538 reversed $259 $-1 #
coedge $-1 $539 $261 $263 $396 forward $163 $-1 #
coedge $-1 $261 $539 $535 $540 forward $163 $-1 #
coedge $-1 $537 $264 $261 $393 forward $387 $-1 #
edge $-1 $399 -1.143574841737685 $541 10.626546496409784 $392 $542 forward 7 unknown #
coedge $-1 $543 $544 $262 $395 forward $533 $-1 #
edge $-1 $545 -47.305722708896702 $398 -44.071589759325576 $394 $546 forward 7 unknown #
edge $-1 $399 -5.9381217637261061 $545 1.6755591966779756e-014 $263 $547 forward 7 unknown #
coedge $-1 $264 $537 $543 $548 forward $387 $-1 #
vertex $-1 $265 $549 #
vertex $-1 $265 $550 #
straight-curve $-1 -62.22499717612542 3.5979109855983644 8.5352340249615892 1 0 0 I I #
coedge $-1 $401 $401 $-1 $551 reversed $268 $-1 #
edge $-1 $552 0 $552 6.2831853071796004 $269 $553 forward 7 unknown #
vertex $-1 $272 $554 #
ellipse-curve $-1 -57.075962832953557 6.9608027964976387 6.9181675501760189 -0.54463904215088732 0 0.83867056331134215 0.83867056331134215 0 0.54463904215088732 1 I I #
coedge $-1 $405 $405 $-1 $555 reversed $275 $-1 #
edge $-1 $556 0 $556 6.2831853071796004 $276 $557 forward 7 unknown #
vertex $-1 $279 $558 #
ellipse-curve $-1 -57.075962832953557 12.005140512846552 6.9181675501760189 -0.54463904215088732 0 0.83867056331134215 0.83867056331134215 0 0.54463904215088732 1 I I #
face $-1 $-1 $295 $42 $-1 $559 reversed single #
loop $-1 $-1 $424 $280 #
plane-surface $-1 0 30.707762011497678 0 0 -1 0 0 0 -1 forward_v I I I I #
coedge $-1 $560 $422 $425 $561 forward $281 $-1 #
coedge $-1 $283 $428 $284 $416 reversed $177 $-1 #
edge $-1 $296 -8.5352340249615857 $420 8.5352340249615857 $293 $562 forward 7 unknown #
coedge $-1 $285 $284 $560 $563 forward $113 $-1 #
edge $-1 $420 -59.566026795251318 $564 59.566026795251318 $413 $565 forward 7 unknown #
coedge $-1 $425 $424 $285 $418 reversed $410 $-1 #
edge $-1 $566 -59.566026795251318 $419 59.566026795251318 $417 $567 forward 7 unknown #
vertex $-1 $287 $568 #
vertex $-1 $414 $569 #
straight-curve $-1 59.566026795251318 0 -8.5352340249615857 0 -1 0 I I #
coedge $-1 $412 $570 $288 $423 reversed $281 $-1 #
edge $-1 $426 -30.707762011497678 $429 30.707762011497678 $422 $571 forward 7 unknown #
coedge $-1 $417 $289 $294 $431 forward $410 $-1 #
coedge $-1 $289 $417 $412 $561 reversed $410 $-1 #
vertex $-1 $290 $572 #
straight-curve $-1 0 30.707762011497678 8.5352340249615857 -1 0 0 I I #
coedge $-1 $413 $291 $570 $573 forward $177 $-1 #
vertex $-1 $423 $574 #
straight-curve $-1 0 -30.707762011497678 8.5352340249615857 1 0 0 I I #
edge $-1 $297 -8.5352340249615857 $419 8.5352340249615857 $294 $575 forward 7 unknown #
point $-1 59.566026795251318 -30.707762011497678 8.5352340249615857 #
point $-1 59.566026795251318 30.707762011497678 8.5352340249615857 #
face $-1 $-1 $448 $43 $-1 $576 reversed single #
loop $-1 $-1 $577 $299 #
plane-surface $-1 0 -37.9035839826944 -6.5970088943015721 0 1 0 0 0 1 forward_v I I I I #
coedge $-1 $578 $302 $311 $452 reversed $185 $-1 #
coedge $-1 $302 $578 $303 $440 reversed $185 $-1 #
coedge $-1 $304 $303 $579 $580 forward $117 $-1 #
edge $-1 $444 30.707762011497678 $581 37.9035839826944 $438 $582 forward 7 unknown #
coedge $-1 $583 $308 $304 $442 reversed $448 $-1 #
edge $-1 $584 -37.9035839826944 $443 -30.707762011497678 $441 $585 forward 7 unknown #
vertex $-1 $309 $586 #
vertex $-1 $440 $587 #
straight-curve $-1 0 -30.707762011497678 -8.5352340249615857 1 0 0 I I #
straight-curve $-1 59.566026795251318 -30.707762011497678 0 0 0 1 I I #
coedge $-1 $308 $583 $310 $451 reversed $448 $-1 #
loop $-1 $-1 $308 $434 #
straight-curve $-1 -59.566026795251318 -30.707762011497678 0 0 0 -1 I I #
coedge $-1 $311 $310 $588 $589 forward $300 $-1 #
edge $-1 $312 -3.5979109855983573 $590 3.5979109855983609 $447 $591 forward 7 unknown #
edge $-1 $592 -3.5979109855983609 $313 3.5979109855983573 $437 $593 forward 7 unknown #
point $-1 -59.566026795251318 -30.707762011497682 -4.6587837636415586 #
point $-1 59.566026795251318 -30.707762011497682 -4.6587837636415586 #
plane-surface $-1 0 0 8.5352340249615857 0 0 1 1 0 0 forward_v I I I I #
coedge $-1 $466 $465 $458 $594 forward $316 $-1 #
coedge $-1 $458 $318 $320 $462 reversed $193 $-1 #
coedge $-1 $318 $457 $456 $594 reversed $193 $-1 #
coedge $-1 $326 $321 $318 $460 forward $327 $-1 #
edge $-1 $463 42.317174941122289 $595 47.297302865717825 $459 $596 forward 7 unknown #
coedge $-1 $320 $319 $466 $597 reversed $121 $-1 #
edge $-1 $598 -119.13205359050266 $463 -113.19393182677652 $457 $599 forward 7 unknown #
vertex $-1 $322 $600 #
straight-curve $-1 54.585898870655768 -8.8134396856136128 8.5352340249615821 0 -1 0 I I #
coedge $-1 $456 $323 $326 $470 reversed $316 $-1 #
coedge $-1 $323 $456 $461 $597 forward $316 $-1 #
vertex $-1 $324 $601 #
straight-curve $-1 59.566026795251318 -11.741818702153491 85.048807562786919 0 0 1 I I #
straight-curve $-1 -40.34651969793255 -11.741818702153491 70.185068632389985 0.83867056331134215 0 -0.54463904215088732 I I #
edge $-1 $595 -23.51194004030096 $328 -11.741818702153491 $465 $602 forward 7 unknown #
point $-1 59.566026795251318 -11.741818702153491 8.5352340249615857 #
point $-1 54.585898870655782 -11.741818702153491 8.5352340249615821 #
edge $-1 $603 1 $603 0 $331 $-1 forward 7 unknown #
vertex $-1 $332 $604 #
ellipse-curve $-1 56.33759937183639 -20.149048229401686 5.7811875470199166 0.54463904215088732 0 0.83867056331134215 0.83867056331134215 0 -0.54463904215088732 1 I I #
point $-1 57.914633396264911 -20.149048229401686 6.3735285080251449 #
edge $-1 $605 1 $605 0 $335 $-1 forward 7 unknown #
vertex $-1 $336 $606 #
ellipse-curve $-1 56.33759937183639 -15.104710513052769 5.7811875470199166 0.54463904215088732 0 0.83867056331134215 0.83867056331134215 0 -0.54463904215088732 1 I I #
point $-1 57.914633396264911 -15.104710513052769 6.3735285080251449 #
plane-surface $-1 0 0 8.5352340249615857 0 0 1 1 0 0 forward_v I I I I #
coedge $-1 $492 $491 $484 $607 forward $340 $-1 #
coedge $-1 $484 $342 $344 $488 reversed $215 $-1 #
coedge $-1 $342 $483 $482 $607 reversed $215 $-1 #
coedge $-1 $350 $345 $342 $486 forward $351 $-1 #
edge $-1 $489 42.317174941122289 $608 47.297302865717825 $485 $609 forward 7 unknown #
coedge $-1 $344 $343 $492 $610 reversed $135 $-1 #
edge $-1 $611 -119.13205359050266 $489 -113.19393182677652 $483 $612 forward 7 unknown #
vertex $-1 $346 $613 #
straight-curve $-1 54.585898870655768 4.7414858273360494 8.5352340249615821 0 -1 0 I I #
coedge $-1 $482 $347 $350 $496 reversed $340 $-1 #
coedge $-1 $347 $482 $487 $610 forward $340 $-1 #
vertex $-1 $348 $614 #
straight-curve $-1 59.566026795251318 15.368032323745833 85.048807562786919 0 0 1 I I #
straight-curve $-1 -40.34651969793255 15.368032323745833 70.185068632389985 0.83867056331134215 0 -0.54463904215088732 I I #
edge $-1 $608 3.5979109855983644 $352 15.368032323745833 $491 $615 forward 7 unknown #
point $-1 59.566026795251318 15.368032323745833 8.5352340249615857 #
point $-1 54.585898870655782 15.368032323745833 8.5352340249615821 #
edge $-1 $616 1 $616 0 $355 $-1 forward 7 unknown #
vertex $-1 $356 $617 #
ellipse-curve $-1 56.33759937183639 6.9608027964976387 5.7811875470199166 0.54463904215088732 0 0.83867056331134215 0.83867056331134215 0 -0.54463904215088732 1 I I #
point $-1 57.914633396264911 6.9608027964976387 6.3735285080251449 #
edge $-1 $618 1 $618 0 $359 $-1 forward 7 unknown #
vertex $-1 $360 $619 #
ellipse-curve $-1 56.33759937183639 12.005140512846552 5.7811875470199166 0.54463904215088732 0 0.83867056331134215 0.83867056331134215 0 -0.54463904215088732 1 I I #
point $-1 57.914633396264911 12.005140512846552 6.3735285080251449 #
loop $-1 $-1 $371 $363 #
plane-surface $-1 -59.566026795251318 0 0 1 0 0 0 0 -1 forward_v I I I I #
coedge $-1 $510 $366 $368 $514 reversed $237 $-1 #
coedge $-1 $366 $509 $620 $621 reversed $237 $-1 #
coedge $-1 $374 $369 $366 $512 forward $364 $-1 #
edge $-1 $515 -7.6390983054696306 $622 -2.6589703808741021 $511 $623 forward 7 unknown #
coedge $-1 $368 $367 $518 $624 reversed $149 $-1 #
edge $-1 $625 -1.6755591966779756e-014 $515 5.9381217637261061 $509 $626 forward 7 unknown #
vertex $-1 $370 $627 #
straight-curve $-1 -54.585898870655789 -8.8134396856136128 8.5352340249615857 0 1 0 I I #
coedge $-1 $620 $371 $374 $522 reversed $507 $-1 #
coedge $-1 $371 $620 $513 $624 forward $507 $-1 #
vertex $-1 $372 $628 #
straight-curve $-1 -59.566026795251318 -23.51194004030096 52.606823784287158 0 0 1 I I #
straight-curve $-1 -59.566026795251304 -23.51194004030096 5.3011010753904628 -0.83867056331134215 0 -0.54463904215088732 I I #
edge $-1 $622 11.741818702153491 $375 23.51194004030096 $517 $629 forward 7 unknown #
point $-1 -59.566026795251318 -23.51194004030096 8.5352340249615857 #
point $-1 -54.585898870655789 -23.51194004030096 8.5352340249615857 #
edge $-1 $630 1 $630 0 $378 $-1 forward 7 unknown #
vertex $-1 $379 $631 #
ellipse-curve $-1 -56.337599371836383 -20.149048229401686 5.781187547019913 -0.54463904215088732 0 0.83867056331134215 0.83867056331134215 0 0.54463904215088732 1 I I #
point $-1 -56.237292269642225 -20.149048229401686 7.462806592326916 #
edge $-1 $632 1 $632 0 $382 $-1 forward 7 unknown #
vertex $-1 $383 $633 #
ellipse-curve $-1 -56.337599371836383 -15.104710513052769 5.781187547019913 -0.54463904215088732 0 0.83867056331134215 0.83867056331134215 0 0.54463904215088732 1 I I #
point $-1 -56.237292269642225 -15.104710513052769 7.462806592326916 #
loop $-1 $-1 $394 $386 #
plane-surface $-1 -59.566026795251318 0 0 1 0 0 0 0 -1 forward_v I I I I #
coedge $-1 $536 $389 $391 $540 reversed $259 $-1 #
coedge $-1 $389 $535 $634 $635 reversed $259 $-1 #
coedge $-1 $397 $392 $389 $538 forward $387 $-1 #
edge $-1 $541 -7.6390983054696306 $636 -2.6589703808741021 $537 $637 forward 7 unknown #
coedge $-1 $391 $390 $544 $638 reversed $163 $-1 #
edge $-1 $639 -1.6755591966779756e-014 $541 5.9381217637261061 $535 $640 forward 7 unknown #
vertex $-1 $393 $641 #
straight-curve $-1 -54.585898870655789 4.7414858273360494 8.5352340249615857 0 1 0 I I #
coedge $-1 $634 $394 $397 $548 reversed $533 $-1 #
coedge $-1 $394 $634 $539 $638 forward $533 $-1 #
vertex $-1 $395 $642 #
straight-curve $-1 -59.566026795251318 3.5979109855983644 52.606823784287158 0 0 1 I I #
straight-curve $-1 -59.566026795251304 3.5979109855983644 5.3011010753904628 -0.83867056331134215 0 -0.54463904215088732 I I #
edge $-1 $636 -15.368032323745833 $398 -3.5979109855983644 $543 $643 forward 7 unknown #
point $-1 -59.566026795251318 3.5979109855983644 8.5352340249615857 #
point $-1 -54.585898870655789 3.5979109855983644 8.5352340249615857 #
edge $-1 $644 1 $644 0 $401 $-1 forward 7 unknown #
vertex $-1 $402 $645 #
ellipse-curve $-1 -56.337599371836383 6.9608027964976387 5.781187547019913 -0.54463904215088732 0 0.83867056331134215 0.83867056331134215 0 0.54463904215088732 1 I I #
point $-1 -56.237292269642225 6.9608027964976387 7.462806592326916 #
edge $-1 $646 1 $646 0 $405 $-1 forward 7 unknown #
vertex $-1 $406 $647 #
ellipse-curve $-1 -56.337599371836383 12.005140512846552 5.781187547019913 -0.54463904215088732 0 0.83867056331134215 0.83867056331134215 0 0.54463904215088732 1 I I #
point $-1 -56.237292269642225 12.005140512846552 7.462806592326916 #
plane-surface $-1 59.566026795251318 0 0 -1 0 0 0 0 1 forward_v I I I I #
coedge $-1 $570 $412 $415 $563 reversed $281 $-1 #
edge $-1 $426 -8.5352340249615857 $566 8.5352340249615857 $425 $648 forward 7 unknown #
straight-curve $-1 59.566026795251318 -30.707762011497678 0 0 0 -1 I I #
edge $-1 $564 -30.707762011497678 $566 30.707762011497678 $560 $649 forward 7 unknown #
vertex $-1 $563 $650 #
straight-curve $-1 0 -30.707762011497678 -8.5352340249615857 -1 0 0 I I #
vertex $-1 $418 $651 #
straight-curve $-1 0 30.707762011497678 -8.5352340249615857 1 0 0 I I #
point $-1 59.566026795251318 30.707762011497678 -8.5352340249615857 #
point $-1 59.566026795251318 -30.707762011497678 -8.5352340249615857 #
coedge $-1 $422 $560 $428 $573 reversed $281 $-1 #
straight-curve $-1 -59.566026795251318 0 8.5352340249615857 0 -1 0 I I #
point $-1 -59.566026795251318 30.707762011497678 8.5352340249615857 #
edge $-1 $429 -8.5352340249615857 $564 8.5352340249615857 $570 $652 forward 7 unknown #
point $-1 -59.566026795251318 -30.707762011497678 8.5352340249615857 #
straight-curve $-1 59.566026795251318 30.707762011497678 0 0 0 -1 I I #
plane-surface $-1 -59.566026795251318 0 0 1 0 0 0 0 -1 forward_v I I I I #
coedge $-1 $579 $588 $583 $653 forward $435 $-1 #
coedge $-1 $438 $437 $654 $655 forward $185 $-1 #
coedge $-1 $654 $577 $439 $580 reversed $435 $-1 #
edge $-1 $581 -59.566026795251318 $584 59.566026795251318 $579 $656 forward 7 unknown #
vertex $-1 $655 $657 #
straight-curve $-1 59.566026795251318 0 -8.5352340249615857 0 -1 0 I I #
coedge $-1 $447 $441 $577 $653 reversed $448 $-1 #
vertex $-1 $442 $658 #
straight-curve $-1 -59.566026795251318 0 -8.5352340249615857 0 1 0 I I #
point $-1 -59.566026795251318 -30.707762011497678 -8.5352340249615857 #
point $-1 59.566026795251318 -30.707762011497678 -8.5352340249615857 #
coedge $-1 $577 $654 $450 $589 reversed $435 $-1 #
edge $-1 $590 -59.566026795251318 $592 59.566026795251318 $588 $659 forward 7 unknown #
vertex $-1 $451 $660 #
straight-curve $-1 -59.566026795251318 -34.305672997096039 -4.6587837636415586 0 -1 0 I I #
vertex $-1 $452 $661 #
straight-curve $-1 59.566026795251318 -34.305672997096039 -4.6587837636415586 0 1 0 I I #
edge $-1 $595 76.513573537825337 $598 79.747706487396485 $456 $662 forward 7 unknown #
vertex $-1 $470 $663 #
straight-curve $-1 12.268723929533493 -23.51194004030096 8.5352340249615821 1 0 0 I I #
edge $-1 $598 -14.698500354687347 $467 -2.9283790165398784 $466 $664 forward 7 unknown #
vertex $-1 $597 $665 #
straight-curve $-1 -40.34651969793255 -23.51194004030096 70.185068632389985 -0.83867056331134215 0 0.54463904215088732 I I #
point $-1 54.585898870655782 -23.51194004030096 8.5352340249615821 #
point $-1 59.566026795251318 -11.741818702153491 5.3011010753904344 #
straight-curve $-1 59.566026795251318 0 8.5352340249615857 0 1 0 I I #
vertex $-1 $473 $666 #
point $-1 57.176269935147729 -20.149048229401686 5.2365485048690292 #
vertex $-1 $477 $667 #
point $-1 57.176269935147729 -15.104710513052769 5.2365485048690292 #
edge $-1 $608 76.513573537825337 $611 79.747706487396485 $482 $668 forward 7 unknown #
vertex $-1 $496 $669 #
straight-curve $-1 12.268723929533493 3.5979109855983644 8.5352340249615821 1 0 0 I I #
edge $-1 $611 -1.143574841737685 $493 10.626546496409784 $492 $670 forward 7 unknown #
vertex $-1 $610 $671 #
straight-curve $-1 -40.34651969793255 3.5979109855983644 70.185068632389985 -0.83867056331134215 0 0.54463904215088732 I I #
point $-1 54.585898870655782 3.5979109855983644 8.5352340249615821 #
point $-1 59.566026795251318 15.368032323745833 5.3011010753904344 #
straight-curve $-1 59.566026795251318 0 8.5352340249615857 0 1 0 I I #
vertex $-1 $499 $672 #
point $-1 57.176269935147729 6.9608027964976387 5.2365485048690292 #
vertex $-1 $503 $673 #
point $-1 57.176269935147729 12.005140512846552 5.2365485048690292 #
coedge $-1 $518 $517 $510 $621 forward $507 $-1 #
edge $-1 $622 44.071589759325576 $625 47.305722708896702 $620 $674 forward 7 unknown #
vertex $-1 $522 $675 #
straight-curve $-1 -62.22499717612542 -11.741818702153491 8.5352340249615892 -1 0 0 I I #
edge $-1 $625 2.9283790165398784 $519 14.698500354687347 $518 $676 forward 7 unknown #
vertex $-1 $624 $677 #
straight-curve $-1 -59.566026795251304 -11.741818702153491 5.3011010753904628 0.83867056331134215 0 0.54463904215088732 I I #
point $-1 -54.585898870655789 -11.741818702153491 8.5352340249615857 #
point $-1 -59.566026795251318 -23.51194004030096 5.3011010753904539 #
straight-curve $-1 -59.566026795251318 0 8.5352340249615857 0 -1 0 I I #
vertex $-1 $525 $678 #
point $-1 -55.498928808525037 -20.149048229401686 6.3258265891708003 #
vertex $-1 $529 $679 #
point $-1 -55.498928808525037 -15.104710513052769 6.3258265891708003 #
coedge $-1 $544 $543 $536 $635 forward $533 $-1 #
edge $-1 $636 44.071589759325576 $639 47.305722708896702 $634 $680 forward 7 unknown #
vertex $-1 $548 $681 #
straight-curve $-1 -62.22499717612542 15.368032323745833 8.5352340249615892 -1 0 0 I I #
edge $-1 $639 -10.626546496409784 $545 1.143574841737685 $544 $682 forward 7 unknown #
vertex $-1 $638 $683 #
straight-curve $-1 -59.566026795251304 15.368032323745833 5.3011010753904628 0.83867056331134215 0 0.54463904215088732 I I #
point $-1 -54.585898870655789 15.368032323745833 8.5352340249615857 #
point $-1 -59.566026795251318 3.5979109855983644 5.3011010753904539 #
straight-curve $-1 -59.566026795251318 0 8.5352340249615857 0 -1 0 I I #
vertex $-1 $551 $684 #
point $-1 -55.498928808525037 6.9608027964976387 6.3258265891708003 #
vertex $-1 $555 $685 #
point $-1 -55.498928808525037 12.005140512846552 6.3258265891708003 #
straight-curve $-1 -59.566026795251318 30.707762011497678 0 0 0 -1 I I #
straight-curve $-1 -59.566026795251318 0 -8.5352340249615857 0 1 0 I I #
point $-1 -59.566026795251318 -30.707762011497678 -8.5352340249615857 #
point $-1 -59.566026795251318 30.707762011497678 -8.5352340249615857 #
straight-curve $-1 -59.566026795251318 -30.707762011497678 0 0 0 -1 I I #
edge $-1 $590 -1.9382251306600136 $584 1.9382251306600136 $583 $686 forward 7 unknown #
coedge $-1 $588 $579 $578 $655 reversed $435 $-1 #
edge $-1 $592 -1.9382251306600136 $581 1.9382251306600136 $578 $687 forward 7 unknown #
straight-curve $-1 0 -37.9035839826944 -8.5352340249615857 -1 0 0 I I #
point $-1 59.566026795251318 -37.9035839826944 -8.5352340249615857 #
point $-1 -59.566026795251318 -37.9035839826944 -8.5352340249615857 #
straight-curve $-1 0 -37.9035839826944 -4.6587837636415586 1 0 0 I I #
point $-1 -59.566026795251318 -37.9035839826944 -4.6587837636415586 #
point $-1 59.566026795251318 -37.9035839826944 -4.6587837636415586 #
straight-curve $-1 59.566026795251318 -23.51194004030096 85.048807562786919 0 0 -1 I I #
point $-1 59.566026795251318 -23.51194004030096 8.5352340249615857 #
straight-curve $-1 59.566026795251325 -8.8134396856136128 5.3011010753904415 0 1 0 I I #
point $-1 59.566026795251318 -23.51194004030096 5.3011010753904344 #
point $-1 55.792960329685499 -20.149048229401686 4.9425169837085736 #
point $-1 55.792960329685499 -15.104710513052769 4.9425169837085736 #
straight-curve $-1 59.566026795251318 3.5979109855983644 85.048807562786919 0 0 -1 I I #
point $-1 59.566026795251318 3.5979109855983644 8.5352340249615857 #
straight-curve $-1 59.566026795251325 4.7414858273360494 5.3011010753904415 0 1 0 I I #
point $-1 59.566026795251318 3.5979109855983644 5.3011010753904344 #
point $-1 55.792960329685499 6.9608027964976387 4.9425169837085736 #
point $-1 55.792960329685499 12.005140512846552 4.9425169837085736 #
straight-curve $-1 -59.566026795251318 -11.741818702153491 52.606823784287158 0 0 -1 I I #
point $-1 -59.566026795251318 -11.741818702153491 8.5352340249615857 #
straight-curve $-1 -59.566026795251318 -8.8134396856136128 5.3011010753904522 0 -1 0 I I #
point $-1 -59.566026795251318 -11.741818702153491 5.3011010753904539 #
point $-1 -55.792960329685492 -20.149048229401686 4.9425169837085701 #
point $-1 -55.792960329685492 -15.104710513052769 4.9425169837085701 #
straight-curve $-1 -59.566026795251318 15.368032323745833 52.606823784287158 0 0 -1 I I #
point $-1 -59.566026795251318 15.368032323745833 8.5352340249615857 #
straight-curve $-1 -59.566026795251318 4.7414858273360494 5.3011010753904522 0 -1 0 I I #
point $-1 -59.566026795251318 15.368032323745833 5.3011010753904539 #
point $-1 -55.792960329685492 6.9608027964976387 4.9425169837085701 #
point $-1 -55.792960329685492 12.005140512846552 4.9425169837085701 #
straight-curve $-1 -59.566026795251318 -37.9035839826944 -6.5970088943015721 0 0 -1 I I #
straight-curve $-1 59.566026795251318 -37.9035839826944 -6.5970088943015721 0 0 -1 I I #
End-of-ACIS-data 