500 0 5 0           
7 Unknown 11 ACIS 5.0 NT 24 Thu Mar 25 21:04:40 1999 
-1 9.9999999999999995e-007 1e-010 
body $-1 $5 $-1 $6 #
body $-1 $7 $-1 $8 #
body $-1 $9 $-1 $10 #
body $-1 $11 $-1 $12 #
body $-1 $13 $-1 $14 #
lump $-1 $-1 $15 $0 #
transform $-1 1 0 0 0 1 0 0 0 1 51.076998199407939 30.391024365817952 14.604238095161884 1 rotate no_reflect no_shear #
lump $-1 $-1 $16 $1 #
transform $-1 1 0 0 0 1 0 0 0 1 51.076998199407939 30.391024365817952 14.604238095161884 1 rotate no_reflect no_shear #
lump $-1 $-1 $17 $2 #
transform $-1 1 0 0 0 1 0 0 0 1 51.076998199407939 30.391024365817952 14.604238095161884 1 rotate no_reflect no_shear #
lump $-1 $-1 $18 $3 #
transform $-1 1 0 0 0 1 0 0 0 1 51.076998199407939 30.391024365817952 14.604238095161884 1 rotate no_reflect no_shear #
lump $-1 $-1 $19 $4 #
transform $-1 1 0 0 0 1 0 0 0 1 51.076998199407939 30.391024365817952 14.604238095161884 1 rotate no_reflect no_shear #
shell $-1 $-1 $-1 $20 $-1 $5 #
shell $-1 $-1 $-1 $21 $-1 $7 #
shell $-1 $-1 $-1 $22 $-1 $9 #
shell $-1 $-1 $-1 $23 $-1 $11 #
shell $-1 $-1 $-1 $24 $-1 $13 #
face $-1 $25 $26 $15 $-1 $27 forward single #
face $-1 $28 $29 $16 $-1 $30 forward single #
face $-1 $31 $32 $17 $-1 $33 reversed single #
face $-1 $34 $35 $18 $-1 $36 forward single #
face $-1 $37 $38 $19 $-1 $39 forward single #
face $-1 $40 $41 $15 $-1 $42 reversed single #
loop $-1 $-1 $43 $20 #
plane-surface $-1 0 0 14.604238095161884 0 0 1 1 0 0 forward_v I I I I #
face $-1 $44 $45 $16 $-1 $46 reversed single #
loop $-1 $-1 $47 $21 #
plane-surface $-1 0 -30.391024365817952 0 0 1 0 0 0 1 forward_v I I I I #
face $-1 $48 $49 $17 $-1 $50 reversed single #
loop $-1 $-1 $51 $22 #
plane-surface $-1 -17.756031359103826 63.64847159402477 119.84500179902628 1 0 0 0 -0.73135370988377701 -0.68199835119979291 forward_v I I I I #
face $-1 $52 $53 $18 $-1 $54 forward single #
loop $-1 $55 $56 $23 #
cone-surface $-1 -13.292803723673174 25.396164513944662 9.3673276992085501 0 -0.73135370988377701 -0.68199835119979291 1.5 0 0 1 I I 0 1 1.5 forward I I I I #
face $-1 $57 $58 $19 $-1 $59 forward single #
loop $-1 $60 $61 $24 #
cone-surface $-1 -6.5979622705271908 25.396164513944662 9.3673276992085501 0 -0.73135370988377701 -0.68199835119979291 1.5 0 0 1 I I 0 1 1.5 forward I I I I #
face $-1 $62 $63 $15 $-1 $64 reversed single #
loop $-1 $-1 $65 $25 #
plane-surface $-1 0 0 -14.604238095161884 0 0 1 1 0 0 forward_v I I I I #
coedge $-1 $66 $67 $68 $69 forward $26 $-1 #
face $-1 $70 $71 $16 $-1 $72 reversed single #
loop $-1 $-1 $73 $28 #
plane-surface $-1 0 0 -14.604238095161884 0 0 1 1 0 0 forward_v I I I I #
coedge $-1 $74 $75 $76 $77 forward $29 $-1 #
face $-1 $78 $79 $17 $-1 $80 reversed single #
loop $-1 $-1 $81 $31 #
plane-surface $-1 -9.9453829971001824 -11.062232651703226 50.176144686564271 0 0.73135370988377701 0.68199835119979291 1 0 0 forward_v I I I I #
coedge $-1 $82 $83 $84 $85 reversed $32 $-1 #
face $-1 $-1 $86 $18 $-1 $87 forward single #
loop $-1 $88 $89 $34 #
cone-surface $-1 -13.292803723673174 23.993748521797077 8.0595536612633989 0 -0.73135370988377701 -0.68199835119979291 0.75 0 0 1 I I -0.70710678118654757 0.70710678118654757 0.75 forward I I I I #
loop $-1 $-1 $90 $23 #
coedge $-1 $56 $56 $91 $92 reversed $35 $-1 #
face $-1 $-1 $93 $19 $-1 $94 forward single #
loop $-1 $95 $96 $37 #
cone-surface $-1 -6.5979622705271908 23.993748521797077 8.0595536612633989 0 -0.73135370988377701 -0.68199835119979291 0.75 0 0 1 I I -0.70710678118654757 0.70710678118654757 0.75 forward I I I I #
loop $-1 $-1 $97 $24 #
coedge $-1 $61 $61 $98 $99 reversed $38 $-1 #
face $-1 $100 $101 $15 $-1 $102 reversed single #
loop $-1 $-1 $103 $40 #
plane-surface $-1 0 -30.391024365817952 0 0 1 0 0 0 1 forward_v I I I I #
coedge $-1 $104 $105 $106 $107 forward $41 $-1 #
coedge $-1 $108 $43 $109 $110 forward $26 $-1 #
coedge $-1 $43 $108 $111 $112 forward $26 $-1 #
coedge $-1 $113 $114 $43 $69 reversed $115 $-1 #
edge $-1 $116 -30.391024365817952 $117 30.391024365817952 $68 $118 forward 7 unknown #
face $-1 $119 $120 $16 $-1 $121 forward single #
loop $-1 $-1 $122 $44 #
plane-surface $-1 51.076998199407939 0 0 -1 0 0 0 0 1 forward_v I I I I #
coedge $-1 $123 $124 $125 $126 forward $45 $-1 #
coedge $-1 $125 $47 $122 $127 reversed $29 $-1 #
coedge $-1 $47 $125 $128 $129 reversed $29 $-1 #
coedge $-1 $130 $131 $47 $77 reversed $120 $-1 #
edge $-1 $132 -51.076998199407939 $133 51.076998199407939 $76 $134 forward 7 unknown #
face $-1 $135 $136 $17 $-1 $137 forward single #
loop $-1 $-1 $138 $48 #
plane-surface $-1 -2.1347346350965388 63.64847159402477 119.84500179902628 -1 0 0 0 0.73135370988377701 0.68199835119979291 forward_v I I I I #
coedge $-1 $139 $140 $141 $142 reversed $49 $-1 #
coedge $-1 $83 $51 $143 $144 reversed $32 $-1 #
coedge $-1 $51 $82 $139 $145 reversed $32 $-1 #
coedge $-1 $141 $146 $51 $85 forward $136 $-1 #
edge $-1 $147 1.4332114311944331 $148 9.7151297154715479 $84 $149 forward 7 unknown #
loop $-1 $-1 $91 $52 #
plane-surface $-1 -9.9453829971001824 -11.062232651703226 50.176144686564271 0 0.73135370988377701 0.68199835119979291 1 0 0 forward_v I I I I #
loop $-1 $-1 $150 $34 #
coedge $-1 $89 $89 $90 $151 reversed $53 $-1 #
coedge $-1 $90 $90 $89 $151 forward $55 $-1 #
coedge $-1 $91 $91 $56 $92 forward $86 $-1 #
edge $-1 $152 -5.8448485972898585e-016 $152 6.2831853071795996 $91 $153 forward 7 unknown #
loop $-1 $-1 $98 $57 #
plane-surface $-1 -9.9453829971001824 -11.062232651703226 50.176144686564271 0 0.73135370988377701 0.68199835119979291 1 0 0 forward_v I I I I #
loop $-1 $-1 $154 $37 #
coedge $-1 $96 $96 $97 $155 reversed $58 $-1 #
coedge $-1 $97 $97 $96 $155 forward $60 $-1 #
coedge $-1 $98 $98 $61 $99 forward $93 $-1 #
edge $-1 $156 -5.8448485972898585e-016 $156 6.2831853071795996 $98 $157 forward 7 unknown #
face $-1 $158 $159 $15 $-1 $160 reversed single #
loop $-1 $-1 $161 $62 #
plane-surface $-1 -51.076998199407939 0 0 1 0 0 0 0 -1 forward_v I I I I #
coedge $-1 $162 $111 $163 $164 forward $63 $-1 #
coedge $-1 $165 $65 $162 $166 forward $41 $-1 #
coedge $-1 $65 $165 $167 $168 forward $41 $-1 #
coedge $-1 $114 $113 $65 $107 reversed $115 $-1 #
edge $-1 $169 -30.391024365817952 $170 30.391024365817952 $106 $171 forward 7 unknown #
coedge $-1 $67 $66 $172 $173 forward $26 $-1 #
coedge $-1 $174 $175 $66 $110 reversed $159 $-1 #
edge $-1 $117 -51.076998199407939 $176 51.076998199407939 $109 $177 forward 7 unknown #
coedge $-1 $103 $178 $67 $112 reversed $63 $-1 #
edge $-1 $179 -51.076998199407939 $116 51.076998199407939 $111 $180 forward 7 unknown #
coedge $-1 $106 $68 $178 $181 forward $115 $-1 #
coedge $-1 $68 $106 $174 $182 reversed $115 $-1 #
loop $-1 $-1 $113 $158 #
vertex $-1 $69 $183 #
vertex $-1 $69 $184 #
straight-curve $-1 51.076998199407939 0 14.604238095161884 0 1 0 I I #
face $-1 $185 $186 $16 $-1 $187 reversed single #
loop $-1 $-1 $131 $70 #
plane-surface $-1 0 -38.507534597585476 -10.18370053373012 0 0 1 1 0 0 forward_v I I I I #
coedge $-1 $188 $189 $74 $127 forward $71 $-1 #
coedge $-1 $190 $73 $189 $191 forward $45 $-1 #
coedge $-1 $73 $190 $192 $193 forward $45 $-1 #
coedge $-1 $75 $74 $73 $126 reversed $29 $-1 #
edge $-1 $194 -51.076998199407939 $195 51.076998199407939 $73 $196 forward 7 unknown #
edge $-1 $195 -14.604238095161884 $133 -10.18370053373012 $122 $197 forward 7 unknown #
coedge $-1 $192 $198 $75 $129 forward $199 $-1 #
edge $-1 $132 10.18370053373012 $194 14.604238095161884 $128 $200 forward 7 unknown #
coedge $-1 $201 $76 $198 $202 forward $120 $-1 #
coedge $-1 $76 $201 $188 $203 forward $120 $-1 #
vertex $-1 $129 $204 #
vertex $-1 $203 $205 #
straight-curve $-1 0 -30.391024365817952 -10.18370053373012 1 0 0 I I #
face $-1 $-1 $206 $17 $-1 $207 reversed single #
loop $-1 $-1 $84 $78 #
plane-surface $-1 0 0 14.604238095161884 0 0 1 1 0 0 forward_v I I I I #
coedge $-1 $208 $209 $210 $211 reversed $79 $-1 #
coedge $-1 $212 $81 $83 $145 forward $49 $-1 #
coedge $-1 $81 $212 $208 $213 forward $49 $-1 #
coedge $-1 $210 $84 $81 $142 forward $136 $-1 #
edge $-1 $148 -12.783339860553735 $214 2.8379568634535524 $141 $215 forward 7 unknown #
coedge $-1 $216 $217 $82 $144 forward $206 $-1 #
edge $-1 $218 -54.199533047167343 $147 -45.318262804351257 $143 $219 forward 7 unknown #
edge $-1 $148 48.638444176423597 $218 60.782048731635939 $83 $220 forward 7 unknown #
coedge $-1 $84 $210 $216 $221 forward $136 $-1 #
vertex $-1 $144 $222 #
vertex $-1 $85 $223 #
straight-curve $-1 -17.756031359103826 31.824235797012385 14.604238095161882 0 -1 0 I I #
coedge $-1 $150 $150 $-1 $224 reversed $88 $-1 #
edge $-1 $225 0 $225 6.2831853071796004 $89 $226 forward 7 unknown #
vertex $-1 $92 $227 #
ellipse-curve $-1 -13.292803723673174 26.250065223679393 10.163602973753839 0 0.73135370988377701 0.68199835119979291 1.5 0 0 1 I I #
coedge $-1 $154 $154 $-1 $228 reversed $95 $-1 #
edge $-1 $229 0 $229 6.2831853071796004 $96 $230 forward 7 unknown #
vertex $-1 $99 $231 #
ellipse-curve $-1 -6.5979622705271908 26.250065223679393 10.163602973753839 0 0.73135370988377701 0.68199835119979291 1.5 0 0 1 I I #
face $-1 $-1 $115 $15 $-1 $232 reversed single #
loop $-1 $-1 $174 $100 #
plane-surface $-1 0 30.391024365817952 0 0 -1 0 0 0 -1 forward_v I I I I #
coedge $-1 $233 $172 $175 $234 forward $101 $-1 #
coedge $-1 $178 $103 $104 $166 reversed $63 $-1 #
coedge $-1 $172 $233 $103 $164 reversed $101 $-1 #
edge $-1 $179 -14.604238095161884 $235 14.604238095161884 $163 $236 forward 7 unknown #
coedge $-1 $105 $104 $233 $237 forward $41 $-1 #
edge $-1 $170 -51.076998199407939 $235 51.076998199407939 $162 $238 forward 7 unknown #
coedge $-1 $175 $174 $105 $168 reversed $159 $-1 #
edge $-1 $239 -51.076998199407939 $169 51.076998199407939 $167 $240 forward 7 unknown #
vertex $-1 $107 $241 #
vertex $-1 $181 $242 #
straight-curve $-1 51.076998199407939 0 -14.604238095161884 0 -1 0 I I #
coedge $-1 $161 $163 $108 $173 reversed $101 $-1 #
edge $-1 $176 -30.391024365817952 $179 30.391024365817952 $172 $243 forward 7 unknown #
coedge $-1 $167 $109 $114 $182 forward $159 $-1 #
coedge $-1 $109 $167 $161 $234 reversed $159 $-1 #
vertex $-1 $110 $244 #
straight-curve $-1 0 30.391024365817952 14.604238095161884 -1 0 0 I I #
coedge $-1 $111 $162 $113 $181 reversed $63 $-1 #
vertex $-1 $173 $245 #
straight-curve $-1 0 -30.391024365817952 14.604238095161884 1 0 0 I I #
edge $-1 $116 -14.604238095161884 $170 14.604238095161884 $113 $246 forward 7 unknown #
edge $-1 $117 -14.604238095161884 $169 14.604238095161884 $114 $247 forward 7 unknown #
point $-1 51.076998199407939 -30.391024365817952 14.604238095161884 #
point $-1 51.076998199407939 30.391024365817952 14.604238095161884 #
face $-1 $-1 $199 $16 $-1 $248 reversed single #
loop $-1 $-1 $249 $119 #
plane-surface $-1 0 -46.624044829352997 -12.393969314446002 0 1 0 0 0 1 forward_v I I I I #
coedge $-1 $250 $122 $131 $203 reversed $71 $-1 #
coedge $-1 $122 $250 $123 $191 reversed $71 $-1 #
coedge $-1 $124 $123 $251 $252 forward $45 $-1 #
edge $-1 $195 30.391024365817952 $253 46.624044829352997 $189 $254 forward 7 unknown #
coedge $-1 $255 $128 $124 $193 reversed $199 $-1 #
edge $-1 $256 -46.624044829352997 $194 -30.391024365817952 $192 $257 forward 7 unknown #
vertex $-1 $129 $258 #
vertex $-1 $191 $259 #
straight-curve $-1 0 -30.391024365817952 -14.604238095161884 1 0 0 I I #
straight-curve $-1 51.076998199407939 -30.391024365817952 0 0 0 1 I I #
coedge $-1 $128 $255 $130 $202 reversed $199 $-1 #
loop $-1 $-1 $128 $185 #
straight-curve $-1 -51.076998199407939 -30.391024365817952 0 0 0 -1 I I #
coedge $-1 $131 $130 $260 $261 forward $120 $-1 #
edge $-1 $132 -8.1165102317675206 $262 8.1165102317675206 $198 $263 forward 7 unknown #
edge $-1 $264 -8.1165102317675206 $133 8.1165102317675206 $188 $265 forward 7 unknown #
point $-1 -51.076998199407939 -30.391024365817955 -10.18370053373012 #
point $-1 51.076998199407939 -30.391024365817955 -10.18370053373012 #
loop $-1 $-1 $143 $135 #
plane-surface $-1 0 30.391024365817952 0 0 -1 0 0 0 -1 forward_v I I I I #
coedge $-1 $209 $138 $140 $213 reversed $79 $-1 #
coedge $-1 $138 $208 $266 $267 reversed $79 $-1 #
coedge $-1 $146 $141 $138 $211 forward $136 $-1 #
edge $-1 $214 -9.7151297154715479 $268 -1.4332114311944331 $210 $269 forward 7 unknown #
coedge $-1 $140 $139 $217 $270 reversed $49 $-1 #
edge $-1 $271 -60.782048731635939 $214 -48.638444176423597 $208 $272 forward 7 unknown #
vertex $-1 $142 $273 #
straight-curve $-1 -4.9726914985500912 22.109106081540844 14.604238095161879 1 0 0 I I #
coedge $-1 $266 $143 $146 $221 reversed $206 $-1 #
coedge $-1 $143 $266 $212 $270 forward $206 $-1 #
vertex $-1 $144 $274 #
straight-curve $-1 -17.756031359103826 30.391024365817952 59.922500899513139 0 0 1 I I #
straight-curve $-1 -17.756031359103826 -11.062232651703226 50.176144686564271 0 0.68199835119979291 -0.73135370988377701 I I #
edge $-1 $268 2.1347346350965388 $147 17.756031359103826 $216 $275 forward 7 unknown #
point $-1 -17.756031359103826 30.391024365817952 14.604238095161884 #
point $-1 -17.756031359103826 22.109106081540837 14.604238095161882 #
edge $-1 $276 1 $276 0 $150 $-1 forward 7 unknown #
vertex $-1 $151 $277 #
ellipse-curve $-1 -13.292803723673174 24.542263804209909 8.5710524246632431 0 0.73135370988377701 0.68199835119979291 1.5 0 0 1 I I #
point $-1 -11.792803723673174 26.25006522367941 10.163602973753857 #
edge $-1 $278 1 $278 0 $154 $-1 forward 7 unknown #
vertex $-1 $155 $279 #
ellipse-curve $-1 -6.5979622705271908 24.542263804209909 8.5710524246632431 0 0.73135370988377701 0.68199835119979291 1.5 0 0 1 I I #
point $-1 -5.0979622705271908 26.25006522367941 10.163602973753857 #
plane-surface $-1 51.076998199407939 0 0 -1 0 0 0 0 1 forward_v I I I I #
coedge $-1 $163 $161 $165 $237 reversed $101 $-1 #
edge $-1 $176 -14.604238095161884 $239 14.604238095161884 $175 $280 forward 7 unknown #
vertex $-1 $237 $281 #
straight-curve $-1 -51.076998199407939 -30.391024365817952 0 0 0 -1 I I #
edge $-1 $235 -30.391024365817952 $239 30.391024365817952 $233 $282 forward 7 unknown #
straight-curve $-1 0 -30.391024365817952 -14.604238095161884 -1 0 0 I I #
vertex $-1 $168 $283 #
straight-curve $-1 0 30.391024365817952 -14.604238095161884 1 0 0 I I #
point $-1 51.076998199407939 30.391024365817952 -14.604238095161884 #
point $-1 51.076998199407939 -30.391024365817952 -14.604238095161884 #
straight-curve $-1 -51.076998199407939 0 14.604238095161884 0 -1 0 I I #
point $-1 -51.076998199407939 30.391024365817952 14.604238095161884 #
point $-1 -51.076998199407939 -30.391024365817952 14.604238095161884 #
straight-curve $-1 51.076998199407939 -30.391024365817952 0 0 0 -1 I I #
straight-curve $-1 51.076998199407939 30.391024365817952 0 0 0 -1 I I #
plane-surface $-1 -51.076998199407939 0 0 1 0 0 0 0 -1 forward_v I I I I #
coedge $-1 $251 $260 $255 $284 forward $186 $-1 #
coedge $-1 $189 $188 $285 $286 forward $71 $-1 #
coedge $-1 $285 $249 $190 $252 reversed $186 $-1 #
edge $-1 $253 -51.076998199407939 $256 51.076998199407939 $251 $287 forward 7 unknown #
vertex $-1 $286 $288 #
straight-curve $-1 51.076998199407939 0 -14.604238095161884 0 -1 0 I I #
coedge $-1 $198 $192 $249 $284 reversed $199 $-1 #
vertex $-1 $193 $289 #
straight-curve $-1 -51.076998199407939 0 -14.604238095161884 0 1 0 I I #
point $-1 -51.076998199407939 -30.391024365817952 -14.604238095161884 #
point $-1 51.076998199407939 -30.391024365817952 -14.604238095161884 #
coedge $-1 $249 $285 $201 $261 reversed $186 $-1 #
edge $-1 $262 -51.076998199407939 $264 51.076998199407939 $260 $290 forward 7 unknown #
vertex $-1 $202 $291 #
straight-curve $-1 -51.076998199407939 -38.507534597585476 -10.18370053373012 0 -1 0 I I #
vertex $-1 $203 $292 #
straight-curve $-1 51.076998199407939 -38.507534597585476 -10.18370053373012 0 1 0 I I #
coedge $-1 $217 $216 $209 $267 forward $206 $-1 #
edge $-1 $268 45.318262804351257 $271 54.199533047167343 $266 $293 forward 7 unknown #
vertex $-1 $221 $294 #
straight-curve $-1 -2.1347346350965388 31.824235797012385 14.604238095161882 0 1 0 I I #
edge $-1 $271 -2.8379568634535524 $218 12.783339860553735 $217 $295 forward 7 unknown #
vertex $-1 $270 $296 #
straight-curve $-1 -2.1347346350965388 -11.062232651703226 50.176144686564271 0 -0.68199835119979291 0.73135370988377701 I I #
point $-1 -2.1347346350965388 22.109106081540837 14.604238095161882 #
point $-1 -17.756031359103826 30.391024365817955 5.7229678523457963 #
straight-curve $-1 0 30.391024365817952 14.604238095161884 -1 0 0 I I #
vertex $-1 $224 $297 #
point $-1 -11.792803723673174 24.542263804209909 8.5710524246632431 #
vertex $-1 $228 $298 #
point $-1 -5.0979622705271908 24.542263804209909 8.5710524246632431 #
straight-curve $-1 -51.076998199407939 30.391024365817952 0 0 0 -1 I I #
point $-1 -51.076998199407939 -30.391024365817952 -14.604238095161884 #
straight-curve $-1 -51.076998199407939 0 -14.604238095161884 0 1 0 I I #
point $-1 -51.076998199407939 30.391024365817952 -14.604238095161884 #
edge $-1 $262 -2.2102687807158823 $256 2.2102687807158823 $255 $299 forward 7 unknown #
coedge $-1 $260 $251 $250 $286 reversed $186 $-1 #
edge $-1 $264 -2.2102687807158823 $253 2.2102687807158823 $250 $300 forward 7 unknown #
straight-curve $-1 0 -46.624044829352997 -14.604238095161884 -1 0 0 I I #
point $-1 51.076998199407939 -46.624044829352997 -14.604238095161884 #
point $-1 -51.076998199407939 -46.624044829352997 -14.604238095161884 #
straight-curve $-1 0 -46.624044829352997 -10.18370053373012 1 0 0 I I #
point $-1 -51.076998199407939 -46.624044829352997 -10.18370053373012 #
point $-1 51.076998199407939 -46.624044829352997 -10.18370053373012 #
straight-curve $-1 -2.1347346350965388 30.391024365817952 59.922500899513139 0 0 -1 I I #
point $-1 -2.1347346350965388 30.391024365817952 14.604238095161884 #
straight-curve $-1 -4.9726914985500912 30.391024365817948 5.7229678523457963 -1 0 0 I I #
point $-1 -2.1347346350965388 30.391024365817955 5.7229678523457963 #
point $-1 -13.292803723673174 23.445233239384244 7.5480548978635547 #
point $-1 -6.5979622705271908 23.445233239384244 7.5480548978635547 #
straight-curve $-1 -51.076998199407939 -46.624044829352997 -12.393969314446002 0 0 -1 I I #
straight-curve $-1 51.076998199407939 -46.624044829352997 -12.393969314446002 0 0 -1 I I #
End-of-ACIS-data 