500 0 17 0           
7 Unknown 11 ACIS 5.0 NT 24 Thu Mar 25 23:09:56 1999 
-1 9.9999999999999995e-007 1e-010 
body $-1 $17 $-1 $18 #
body $-1 $19 $-1 $20 #
body $-1 $21 $-1 $22 #
body $-1 $23 $-1 $24 #
body $-1 $25 $-1 $26 #
body $-1 $27 $-1 $28 #
body $-1 $29 $-1 $30 #
body $-1 $31 $-1 $32 #
body $-1 $33 $-1 $34 #
body $-1 $35 $-1 $36 #
body $-1 $37 $-1 $38 #
body $-1 $39 $-1 $40 #
body $-1 $41 $-1 $42 #
body $-1 $43 $-1 $44 #
body $-1 $45 $-1 $46 #
body $-1 $47 $-1 $48 #
body $-1 $49 $-1 $50 #
lump $-1 $-1 $51 $0 #
transform $-1 1 0 0 0 1 0 0 0 1 52.648091067232272 29.210716892342585 11.447958712008905 1 rotate no_reflect no_shear #
lump $-1 $-1 $52 $1 #
transform $-1 1 0 0 0 1 0 0 0 1 52.648091067232272 29.210716892342585 11.447958712008905 1 rotate no_reflect no_shear #
lump $-1 $-1 $53 $2 #
transform $-1 1 0 0 0 1 0 0 0 1 52.648091067232272 29.210716892342585 11.447958712008905 1 rotate no_reflect no_shear #
lump $-1 $-1 $54 $3 #
transform $-1 1 0 0 0 1 0 0 0 1 52.648091067232272 29.210716892342585 11.447958712008905 1 rotate no_reflect no_shear #
lump $-1 $-1 $55 $4 #
transform $-1 1 0 0 0 1 0 0 0 1 52.648091067232272 29.210716892342585 11.447958712008905 1 rotate no_reflect no_shear #
lump $-1 $-1 $56 $5 #
transform $-1 1 0 0 0 1 0 0 0 1 52.648091067232272 29.210716892342585 11.447958712008905 1 rotate no_reflect no_shear #
lump $-1 $-1 $57 $6 #
transform $-1 1 0 0 0 1 0 0 0 1 52.648091067232272 29.210716892342585 11.447958712008905 1 rotate no_reflect no_shear #
lump $-1 $-1 $58 $7 #
transform $-1 1 0 0 0 1 0 0 0 1 52.648091067232272 29.210716892342585 11.447958712008905 1 rotate no_reflect no_shear #
lump $-1 $-1 $59 $8 #
transform $-1 1 0 0 0 1 0 0 0 1 52.648091067232272 29.210716892342585 11.447958712008905 1 rotate no_reflect no_shear #
lump $-1 $-1 $60 $9 #
transform $-1 1 0 0 0 1 0 0 0 1 52.648091067232272 29.210716892342585 11.447958712008905 1 rotate no_reflect no_shear #
lump $-1 $-1 $61 $10 #
transform $-1 1 0 0 0 1 0 0 0 1 52.648091067232272 29.210716892342585 11.447958712008905 1 rotate no_reflect no_shear #
lump $-1 $-1 $62 $11 #
transform $-1 1 0 0 0 1 0 0 0 1 52.648091067232272 29.210716892342585 11.447958712008905 1 rotate no_reflect no_shear #
lump $-1 $-1 $63 $12 #
transform $-1 1 0 0 0 1 0 0 0 1 52.648091067232272 29.210716892342585 11.447958712008905 1 rotate no_reflect no_shear #
lump $-1 $-1 $64 $13 #
transform $-1 1 0 0 0 1 0 0 0 1 52.648091067232272 29.210716892342585 11.447958712008905 1 rotate no_reflect no_shear #
lump $-1 $-1 $65 $14 #
transform $-1 1 0 0 0 1 0 0 0 1 52.648091067232272 29.210716892342585 11.447958712008905 1 rotate no_reflect no_shear #
lump $-1 $-1 $66 $15 #
transform $-1 1 0 0 0 1 0 0 0 1 52.648091067232272 29.210716892342585 11.447958712008905 1 rotate no_reflect no_shear #
lump $-1 $-1 $67 $16 #
transform $-1 1 0 0 0 1 0 0 0 1 52.648091067232272 29.210716892342585 11.447958712008905 1 rotate no_reflect no_shear #
shell $-1 $-1 $-1 $68 $-1 $17 #
shell $-1 $-1 $-1 $69 $-1 $19 #
shell $-1 $-1 $-1 $70 $-1 $21 #
shell $-1 $-1 $-1 $71 $-1 $23 #
shell $-1 $-1 $-1 $72 $-1 $25 #
shell $-1 $-1 $-1 $73 $-1 $27 #
shell $-1 $-1 $-1 $74 $-1 $29 #
shell $-1 $-1 $-1 $75 $-1 $31 #
shell $-1 $-1 $-1 $76 $-1 $33 #
shell $-1 $-1 $-1 $77 $-1 $35 #
shell $-1 $-1 $-1 $78 $-1 $37 #
shell $-1 $-1 $-1 $79 $-1 $39 #
shell $-1 $-1 $-1 $80 $-1 $41 #
shell $-1 $-1 $-1 $81 $-1 $43 #
shell $-1 $-1 $-1 $82 $-1 $45 #
shell $-1 $-1 $-1 $83 $-1 $47 #
shell $-1 $-1 $-1 $84 $-1 $49 #
face $-1 $85 $86 $51 $-1 $87 forward single #
face $-1 $88 $89 $52 $-1 $90 forward single #
face $-1 $91 $92 $53 $-1 $93 reversed single #
face $-1 $94 $95 $54 $-1 $96 forward single #
face $-1 $97 $98 $55 $-1 $99 forward single #
face $-1 $100 $101 $56 $-1 $102 reversed single #
face $-1 $103 $104 $57 $-1 $105 forward single #
face $-1 $106 $107 $58 $-1 $108 forward single #
face $-1 $109 $110 $59 $-1 $111 reversed single #
face $-1 $112 $113 $60 $-1 $114 forward single #
face $-1 $115 $116 $61 $-1 $117 forward single #
face $-1 $118 $119 $62 $-1 $120 reversed single #
face $-1 $121 $122 $63 $-1 $123 forward single #
face $-1 $124 $125 $64 $-1 $126 forward single #
face $-1 $127 $128 $65 $-1 $129 reversed single #
face $-1 $130 $131 $66 $-1 $132 forward single #
face $-1 $133 $134 $67 $-1 $135 forward single #
face $-1 $136 $137 $51 $-1 $138 reversed single #
loop $-1 $-1 $139 $68 #
plane-surface $-1 0 0 11.447958712008905 0 0 1 1 0 0 forward_v I I I I #
face $-1 $140 $141 $52 $-1 $142 reversed single #
loop $-1 $-1 $143 $69 #
plane-surface $-1 -45.993458035935973 0 2.8925988528698028 0 0 1 1 0 0 forward_v I I I I #
face $-1 $144 $145 $53 $-1 $146 reversed single #
loop $-1 $-1 $147 $70 #
plane-surface $-1 -33.278803628323047 78.145091995160982 112.64415041138747 1 0 0 0 -0.79863551827123203 -0.60181501223851219 forward_v I I I I #
face $-1 $148 $149 $54 $-1 $150 forward single #
loop $-1 $151 $152 $71 #
cone-surface $-1 -30.155217207040369 25.279663024217399 6.5777133353903521 0 -0.79863551827123203 -0.60181501223851219 1 0 0 1 I I 0 1 1 forward I I I I #
face $-1 $153 $154 $55 $-1 $155 forward single #
loop $-1 $156 $157 $72 #
cone-surface $-1 -25.469837575116358 25.279663024217399 6.5777133353903521 0 -0.79863551827123203 -0.60181501223851219 1 0 0 1 I I 0 1 1 forward I I I I #
face $-1 $158 $159 $56 $-1 $160 reversed single #
loop $-1 $-1 $161 $73 #
plane-surface $-1 -10.28207461035506 78.145091995160982 112.64415041138747 1 0 0 0 -0.79863551827123203 -0.60181501223851219 forward_v I I I I #
face $-1 $162 $163 $57 $-1 $164 forward single #
loop $-1 $165 $166 $74 #
cone-surface $-1 -7.1584881890723864 25.279663024217399 6.5777133353903521 0 -0.79863551827123203 -0.60181501223851219 1 0 0 1 I I 0 1 1 forward I I I I #
face $-1 $167 $168 $58 $-1 $169 forward single #
loop $-1 $170 $171 $75 #
cone-surface $-1 -2.4731085571483717 25.279663024217399 6.5777133353903521 0 -0.79863551827123203 -0.60181501223851219 1 0 0 1 I I 0 1 1 forward I I I I #
face $-1 $172 $173 $59 $-1 $174 reversed single #
loop $-1 $-1 $175 $76 #
plane-surface $-1 12.714654407612933 78.145091995160982 112.64415041138747 1 0 0 0 -0.79863551827123203 -0.60181501223851219 forward_v I I I I #
face $-1 $176 $177 $60 $-1 $178 forward single #
loop $-1 $179 $180 $77 #
cone-surface $-1 15.838240828895593 25.279663024217399 6.5777133353903521 0 -0.79863551827123203 -0.60181501223851219 1 0 0 1 I I 0 1 1 forward I I I I #
face $-1 $181 $182 $61 $-1 $183 forward single #
loop $-1 $184 $185 $78 #
cone-surface $-1 20.523620460819615 25.279663024217399 6.5777133353903521 0 -0.79863551827123203 -0.60181501223851219 1 0 0 1 I I 0 1 1 forward I I I I #
face $-1 $186 $187 $62 $-1 $188 reversed single #
loop $-1 $-1 $189 $79 #
plane-surface $-1 35.711383425580927 78.145091995160982 112.64415041138747 1 0 0 0 -0.79863551827123203 -0.60181501223851219 forward_v I I I I #
face $-1 $190 $191 $63 $-1 $192 forward single #
loop $-1 $193 $194 $80 #
cone-surface $-1 38.834969846863586 25.279663024217399 6.5777133353903521 0 -0.79863551827123203 -0.60181501223851219 1 0 0 1 I I 0 1 1 forward I I I I #
face $-1 $195 $196 $64 $-1 $197 forward single #
loop $-1 $198 $199 $81 #
cone-surface $-1 43.520349478787594 25.279663024217399 6.5777133353903521 0 -0.79863551827123203 -0.60181501223851219 1 0 0 1 I I 0 1 1 forward I I I I #
face $-1 $200 $201 $65 $-1 $202 reversed single #
loop $-1 $-1 $203 $82 #
plane-surface $-1 20.946729407166316 -111.0412204663353 74.196064841339449 -1 0 0 0 -0.77714596973225614 0.62932038083071107 forward_v I I I I #
face $-1 $204 $205 $66 $-1 $206 forward single #
loop $-1 $207 $208 $83 #
cone-surface $-1 5.4919216903271106 -27.189586037268118 9.2059284023270731 0 0.77714596973225614 -0.62932038083071107 1 0 0 1 I I 0 1 1 forward I I I I #
face $-1 $209 $210 $67 $-1 $211 forward single #
loop $-1 $212 $213 $84 #
cone-surface $-1 14.764806320430637 -27.189586037268118 9.2059284023270731 0 0.77714596973225614 -0.62932038083071107 1 0 0 1 I I 0 1 1 forward I I I I #
face $-1 $214 $215 $51 $-1 $216 reversed single #
loop $-1 $-1 $217 $85 #
plane-surface $-1 0 0 -11.447958712008905 0 0 1 1 0 0 forward_v I I I I #
coedge $-1 $218 $219 $220 $221 forward $86 $-1 #
face $-1 $222 $223 $52 $-1 $224 reversed single #
loop $-1 $-1 $225 $88 #
plane-surface $-1 -45.993458035935973 0 -0.10740114713019722 0 0 1 1 0 0 forward_v I I I I #
coedge $-1 $226 $227 $228 $229 forward $89 $-1 #
face $-1 $230 $231 $53 $-1 $232 reversed single #
loop $-1 $-1 $233 $91 #
plane-surface $-1 -27.812527391078365 -5.9481789957791449 49.275327271466082 0 0.79863551827123203 0.60181501223851219 1 0 0 forward_v I I I I #
coedge $-1 $234 $235 $236 $237 reversed $92 $-1 #
face $-1 $-1 $238 $54 $-1 $239 forward single #
loop $-1 $240 $241 $94 #
cone-surface $-1 -30.155217207040369 24.276256354887 5.8215921973142031 0 -0.79863551827123203 -0.60181501223851219 0.5 0 0 1 I I -0.70710678118654746 0.70710678118654746 0.5 forward I I I I #
loop $-1 $-1 $242 $71 #
coedge $-1 $152 $152 $243 $244 reversed $95 $-1 #
face $-1 $-1 $245 $55 $-1 $246 forward single #
loop $-1 $247 $248 $97 #
cone-surface $-1 -25.469837575116358 24.276256354887 5.8215921973142031 0 -0.79863551827123203 -0.60181501223851219 0.5 0 0 1 I I -0.70710678118654746 0.70710678118654746 0.5 forward I I I I #
loop $-1 $-1 $249 $72 #
coedge $-1 $157 $157 $250 $251 reversed $98 $-1 #
face $-1 $252 $253 $56 $-1 $254 reversed single #
loop $-1 $-1 $255 $100 #
plane-surface $-1 -4.8157983731103826 -5.9481789957791449 49.275327271466082 0 0.79863551827123203 0.60181501223851219 1 0 0 forward_v I I I I #
coedge $-1 $256 $257 $258 $259 reversed $101 $-1 #
face $-1 $-1 $260 $57 $-1 $261 forward single #
loop $-1 $262 $263 $103 #
cone-surface $-1 -7.1584881890723864 24.276256354887 5.8215921973142031 0 -0.79863551827123203 -0.60181501223851219 0.5 0 0 1 I I -0.70710678118654746 0.70710678118654746 0.5 forward I I I I #
loop $-1 $-1 $264 $74 #
coedge $-1 $166 $166 $265 $266 reversed $104 $-1 #
face $-1 $-1 $267 $58 $-1 $268 forward single #
loop $-1 $269 $270 $106 #
cone-surface $-1 -2.4731085571483717 24.276256354887 5.8215921973142031 0 -0.79863551827123203 -0.60181501223851219 0.5 0 0 1 I I -0.70710678118654746 0.70710678118654746 0.5 forward I I I I #
loop $-1 $-1 $271 $75 #
coedge $-1 $171 $171 $272 $273 reversed $107 $-1 #
face $-1 $274 $275 $59 $-1 $276 reversed single #
loop $-1 $-1 $277 $109 #
plane-surface $-1 18.180930644857611 -5.9481789957791449 49.275327271466082 0 0.79863551827123203 0.60181501223851219 1 0 0 forward_v I I I I #
coedge $-1 $278 $279 $280 $281 reversed $110 $-1 #
face $-1 $-1 $282 $60 $-1 $283 forward single #
loop $-1 $284 $285 $112 #
cone-surface $-1 15.838240828895593 24.276256354887 5.8215921973142031 0 -0.79863551827123203 -0.60181501223851219 0.5 0 0 1 I I -0.70710678118654746 0.70710678118654746 0.5 forward I I I I #
loop $-1 $-1 $286 $77 #
coedge $-1 $180 $180 $287 $288 reversed $113 $-1 #
face $-1 $-1 $289 $61 $-1 $290 forward single #
loop $-1 $291 $292 $115 #
cone-surface $-1 20.523620460819615 24.276256354887 5.8215921973142031 0 -0.79863551827123203 -0.60181501223851219 0.5 0 0 1 I I -0.70710678118654746 0.70710678118654746 0.5 forward I I I I #
loop $-1 $-1 $293 $78 #
coedge $-1 $185 $185 $294 $295 reversed $116 $-1 #
face $-1 $296 $297 $62 $-1 $298 reversed single #
loop $-1 $-1 $299 $118 #
plane-surface $-1 41.177659662825604 -5.9481789957791449 49.275327271466082 0 0.79863551827123203 0.60181501223851219 1 0 0 forward_v I I I I #
coedge $-1 $300 $301 $302 $303 reversed $119 $-1 #
face $-1 $-1 $304 $63 $-1 $305 forward single #
loop $-1 $306 $307 $121 #
cone-surface $-1 38.834969846863586 24.276256354887 5.8215921973142031 0 -0.79863551827123203 -0.60181501223851219 0.5 0 0 1 I I -0.70710678118654746 0.70710678118654746 0.5 forward I I I I #
loop $-1 $-1 $308 $80 #
coedge $-1 $194 $194 $309 $310 reversed $122 $-1 #
face $-1 $-1 $311 $64 $-1 $312 forward single #
loop $-1 $313 $314 $124 #
cone-surface $-1 43.520349478787594 24.276256354887 5.8215921973142031 0 -0.79863551827123203 -0.60181501223851219 0.5 0 0 1 I I -0.70710678118654746 0.70710678118654746 0.5 forward I I I I #
loop $-1 $-1 $315 $81 #
coedge $-1 $199 $199 $316 $317 reversed $125 $-1 #
face $-1 $318 $319 $65 $-1 $320 reversed single #
loop $-1 $-1 $321 $127 #
plane-surface $-1 10.12836400537887 -29.210716892342589 7.9310314004583091 0 -0.77714596973225614 0.62932038083071107 1 0 0 forward_v I I I I #
coedge $-1 $322 $323 $324 $325 reversed $128 $-1 #
face $-1 $-1 $326 $66 $-1 $327 forward single #
loop $-1 $328 $329 $130 #
cone-surface $-1 5.4919216903271106 -26.203857950442131 8.4077015580051757 0 0.77714596973225614 -0.62932038083071107 0.5 0 0 1 I I -0.70710678118654746 0.70710678118654746 0.5 forward I I I I #
loop $-1 $-1 $330 $83 #
coedge $-1 $208 $208 $331 $332 reversed $131 $-1 #
face $-1 $-1 $333 $67 $-1 $334 forward single #
loop $-1 $335 $336 $133 #
cone-surface $-1 14.764806320430637 -26.203857950442131 8.4077015580051757 0 0.77714596973225614 -0.62932038083071107 0.5 0 0 1 I I -0.70710678118654746 0.70710678118654746 0.5 forward I I I I #
loop $-1 $-1 $337 $84 #
coedge $-1 $213 $213 $338 $339 reversed $134 $-1 #
face $-1 $340 $341 $51 $-1 $342 reversed single #
loop $-1 $-1 $343 $136 #
plane-surface $-1 0 -29.210716892342585 0 0 1 0 0 0 1 forward_v I I I I #
coedge $-1 $344 $345 $346 $347 forward $137 $-1 #
coedge $-1 $348 $139 $349 $350 forward $86 $-1 #
coedge $-1 $139 $348 $351 $352 forward $86 $-1 #
coedge $-1 $353 $354 $139 $221 reversed $355 $-1 #
edge $-1 $356 -29.210716892342585 $357 29.210716892342585 $220 $358 forward 7 unknown #
face $-1 $359 $360 $52 $-1 $361 reversed single #
loop $-1 $-1 $362 $140 #
plane-surface $-1 -39.338825004639673 0 1.3925988528698028 -1 0 0 0 0 1 forward_v I I I I #
coedge $-1 $363 $364 $365 $366 forward $141 $-1 #
coedge $-1 $367 $143 $368 $369 reversed $89 $-1 #
coedge $-1 $143 $367 $370 $371 reversed $89 $-1 #
coedge $-1 $362 $372 $143 $229 reversed $223 $-1 #
edge $-1 $373 -29.210716892342585 $374 29.210716892342585 $228 $375 forward 7 unknown #
face $-1 $376 $377 $53 $-1 $378 forward single #
loop $-1 $-1 $379 $144 #
plane-surface $-1 -22.346251153833688 78.145091995160982 112.64415041138747 -1 0 0 0 0.79863551827123203 0.60181501223851219 forward_v I I I I #
coedge $-1 $380 $381 $382 $383 reversed $145 $-1 #
coedge $-1 $235 $147 $384 $385 reversed $92 $-1 #
coedge $-1 $147 $234 $380 $386 reversed $92 $-1 #
coedge $-1 $382 $387 $147 $237 forward $377 $-1 #
edge $-1 $388 9.8618291052379057 $389 16.515759021098717 $236 $390 forward 7 unknown #
loop $-1 $-1 $243 $148 #
plane-surface $-1 -27.812527391078365 -5.9481789957791449 49.275327271466082 0 0.79863551827123203 0.60181501223851219 1 0 0 forward_v I I I I #
loop $-1 $-1 $391 $94 #
coedge $-1 $241 $241 $242 $392 reversed $149 $-1 #
coedge $-1 $242 $242 $241 $392 forward $151 $-1 #
coedge $-1 $243 $243 $152 $244 forward $238 $-1 #
edge $-1 $393 -2.1279924976036004e-015 $393 6.2831853071795987 $243 $394 forward 7 unknown #
loop $-1 $-1 $250 $153 #
plane-surface $-1 -27.812527391078365 -5.9481789957791449 49.275327271466082 0 0.79863551827123203 0.60181501223851219 1 0 0 forward_v I I I I #
loop $-1 $-1 $395 $97 #
coedge $-1 $248 $248 $249 $396 reversed $154 $-1 #
coedge $-1 $249 $249 $248 $396 forward $156 $-1 #
coedge $-1 $250 $250 $157 $251 forward $245 $-1 #
edge $-1 $397 -2.1279924976036004e-015 $397 6.2831853071795987 $250 $398 forward 7 unknown #
face $-1 $399 $400 $56 $-1 $401 forward single #
loop $-1 $-1 $402 $158 #
plane-surface $-1 0.6504778641342952 78.145091995160982 112.64415041138747 -1 0 0 0 0.79863551827123203 0.60181501223851219 forward_v I I I I #
coedge $-1 $403 $404 $405 $406 reversed $159 $-1 #
coedge $-1 $257 $161 $407 $408 reversed $101 $-1 #
coedge $-1 $161 $256 $403 $409 reversed $101 $-1 #
coedge $-1 $405 $410 $161 $259 forward $400 $-1 #
edge $-1 $411 9.8618291052379057 $412 16.515759021098717 $258 $413 forward 7 unknown #
loop $-1 $-1 $265 $162 #
plane-surface $-1 -4.8157983731103826 -5.9481789957791449 49.275327271466082 0 0.79863551827123203 0.60181501223851219 1 0 0 forward_v I I I I #
loop $-1 $-1 $414 $103 #
coedge $-1 $263 $263 $264 $415 reversed $163 $-1 #
coedge $-1 $264 $264 $263 $415 forward $165 $-1 #
coedge $-1 $265 $265 $166 $266 forward $260 $-1 #
edge $-1 $416 -2.1279924976036004e-015 $416 6.2831853071795987 $265 $417 forward 7 unknown #
loop $-1 $-1 $272 $167 #
plane-surface $-1 -4.8157983731103826 -5.9481789957791449 49.275327271466082 0 0.79863551827123203 0.60181501223851219 1 0 0 forward_v I I I I #
loop $-1 $-1 $418 $106 #
coedge $-1 $270 $270 $271 $419 reversed $168 $-1 #
coedge $-1 $271 $271 $270 $419 forward $170 $-1 #
coedge $-1 $272 $272 $171 $273 forward $267 $-1 #
edge $-1 $420 -2.1279924976036004e-015 $420 6.2831853071795987 $272 $421 forward 7 unknown #
face $-1 $422 $423 $59 $-1 $424 forward single #
loop $-1 $-1 $425 $172 #
plane-surface $-1 23.647206882102289 78.145091995160982 112.64415041138747 -1 0 0 0 0.79863551827123203 0.60181501223851219 forward_v I I I I #
coedge $-1 $426 $427 $428 $429 reversed $173 $-1 #
coedge $-1 $279 $175 $430 $431 reversed $110 $-1 #
coedge $-1 $175 $278 $426 $432 reversed $110 $-1 #
coedge $-1 $428 $433 $175 $281 forward $423 $-1 #
edge $-1 $434 9.8618291052379057 $435 16.515759021098717 $280 $436 forward 7 unknown #
loop $-1 $-1 $287 $176 #
plane-surface $-1 18.180930644857611 -5.9481789957791449 49.275327271466082 0 0.79863551827123203 0.60181501223851219 1 0 0 forward_v I I I I #
loop $-1 $-1 $437 $112 #
coedge $-1 $285 $285 $286 $438 reversed $177 $-1 #
coedge $-1 $286 $286 $285 $438 forward $179 $-1 #
coedge $-1 $287 $287 $180 $288 forward $282 $-1 #
edge $-1 $439 -2.1279924976036004e-015 $439 6.2831853071795987 $287 $440 forward 7 unknown #
loop $-1 $-1 $294 $181 #
plane-surface $-1 18.180930644857611 -5.9481789957791449 49.275327271466082 0 0.79863551827123203 0.60181501223851219 1 0 0 forward_v I I I I #
loop $-1 $-1 $441 $115 #
coedge $-1 $292 $292 $293 $442 reversed $182 $-1 #
coedge $-1 $293 $293 $292 $442 forward $184 $-1 #
coedge $-1 $294 $294 $185 $295 forward $289 $-1 #
edge $-1 $443 -2.1279924976036004e-015 $443 6.2831853071795987 $294 $444 forward 7 unknown #
face $-1 $445 $446 $62 $-1 $447 forward single #
loop $-1 $-1 $448 $186 #
plane-surface $-1 46.643935900070282 78.145091995160982 112.64415041138747 -1 0 0 0 0.79863551827123203 0.60181501223851219 forward_v I I I I #
coedge $-1 $449 $450 $451 $452 reversed $187 $-1 #
coedge $-1 $301 $189 $453 $454 reversed $119 $-1 #
coedge $-1 $189 $300 $449 $455 reversed $119 $-1 #
coedge $-1 $451 $456 $189 $303 forward $446 $-1 #
edge $-1 $457 9.8618291052379057 $458 16.515759021098717 $302 $459 forward 7 unknown #
loop $-1 $-1 $309 $190 #
plane-surface $-1 41.177659662825604 -5.9481789957791449 49.275327271466082 0 0.79863551827123203 0.60181501223851219 1 0 0 forward_v I I I I #
loop $-1 $-1 $460 $121 #
coedge $-1 $307 $307 $308 $461 reversed $191 $-1 #
coedge $-1 $308 $308 $307 $461 forward $193 $-1 #
coedge $-1 $309 $309 $194 $310 forward $304 $-1 #
edge $-1 $462 -2.1279924976036004e-015 $462 6.2831853071795987 $309 $463 forward 7 unknown #
loop $-1 $-1 $316 $195 #
plane-surface $-1 41.177659662825604 -5.9481789957791449 49.275327271466082 0 0.79863551827123203 0.60181501223851219 1 0 0 forward_v I I I I #
loop $-1 $-1 $464 $124 #
coedge $-1 $314 $314 $315 $465 reversed $196 $-1 #
coedge $-1 $315 $315 $314 $465 forward $198 $-1 #
coedge $-1 $316 $316 $199 $317 forward $311 $-1 #
edge $-1 $466 -2.1279924976036004e-015 $466 6.2831853071795987 $316 $467 forward 7 unknown #
face $-1 $468 $469 $65 $-1 $470 reversed single #
loop $-1 $-1 $471 $200 #
plane-surface $-1 -0.69000139640857583 -111.0412204663353 74.196064841339449 1 0 0 0 0.77714596973225614 -0.62932038083071107 forward_v I I I I #
coedge $-1 $472 $473 $474 $475 reversed $201 $-1 #
coedge $-1 $323 $203 $476 $477 reversed $128 $-1 #
coedge $-1 $203 $322 $472 $478 reversed $128 $-1 #
coedge $-1 $474 $479 $203 $325 forward $480 $-1 #
edge $-1 $481 26.309893340825067 $482 29.157844847054285 $324 $483 forward 7 unknown #
loop $-1 $-1 $331 $204 #
plane-surface $-1 10.12836400537887 -29.210716892342589 7.9310314004583091 0 -0.77714596973225614 0.62932038083071107 1 0 0 forward_v I I I I #
loop $-1 $-1 $484 $130 #
coedge $-1 $329 $329 $330 $485 reversed $205 $-1 #
coedge $-1 $330 $330 $329 $485 forward $207 $-1 #
coedge $-1 $331 $331 $208 $332 forward $326 $-1 #
edge $-1 $486 5.2518199176725898e-016 $486 6.2831853071796013 $331 $487 forward 7 unknown #
loop $-1 $-1 $338 $209 #
plane-surface $-1 10.12836400537887 -29.210716892342589 7.9310314004583091 0 -0.77714596973225614 0.62932038083071107 1 0 0 forward_v I I I I #
loop $-1 $-1 $488 $133 #
coedge $-1 $336 $336 $337 $489 reversed $210 $-1 #
coedge $-1 $337 $337 $336 $489 forward $212 $-1 #
coedge $-1 $338 $338 $213 $339 forward $333 $-1 #
edge $-1 $490 5.2518199176725898e-016 $490 6.2831853071796013 $338 $491 forward 7 unknown #
face $-1 $492 $493 $51 $-1 $494 reversed single #
loop $-1 $-1 $495 $214 #
plane-surface $-1 -52.648091067232272 0 0 1 0 0 0 0 -1 forward_v I I I I #
coedge $-1 $496 $351 $497 $498 forward $215 $-1 #
coedge $-1 $499 $217 $496 $500 forward $137 $-1 #
coedge $-1 $217 $499 $501 $502 forward $137 $-1 #
coedge $-1 $354 $353 $217 $347 reversed $355 $-1 #
edge $-1 $503 -29.210716892342585 $504 29.210716892342585 $346 $505 forward 7 unknown #
coedge $-1 $219 $218 $506 $507 forward $86 $-1 #
coedge $-1 $508 $509 $218 $350 reversed $493 $-1 #
edge $-1 $357 -52.648091067232272 $510 52.648091067232272 $349 $511 forward 7 unknown #
coedge $-1 $343 $512 $219 $352 reversed $215 $-1 #
edge $-1 $513 -52.648091067232272 $356 52.648091067232272 $351 $514 forward 7 unknown #
coedge $-1 $346 $220 $512 $515 forward $355 $-1 #
coedge $-1 $220 $346 $508 $516 reversed $355 $-1 #
loop $-1 $-1 $353 $492 #
vertex $-1 $221 $517 #
vertex $-1 $221 $518 #
straight-curve $-1 52.648091067232272 0 11.447958712008905 0 1 0 I I #
face $-1 $519 $520 $52 $-1 $521 reversed single #
loop $-1 $-1 $522 $222 #
plane-surface $-1 0 -29.210716892342585 0 0 1 0 0 0 1 forward_v I I I I #
coedge $-1 $365 $228 $523 $524 reversed $223 $-1 #
coedge $-1 $525 $225 $522 $526 reversed $141 $-1 #
coedge $-1 $225 $525 $527 $528 reversed $141 $-1 #
coedge $-1 $372 $362 $225 $366 reversed $223 $-1 #
edge $-1 $529 -29.210716892342585 $530 29.210716892342585 $365 $531 forward 7 unknown #
coedge $-1 $227 $226 $532 $533 reversed $89 $-1 #
coedge $-1 $534 $535 $226 $369 forward $536 $-1 #
edge $-1 $537 -29.651362049264286 $374 -16.342095986671687 $368 $538 forward 7 unknown #
coedge $-1 $539 $523 $227 $371 forward $360 $-1 #
edge $-1 $373 16.342095986671687 $540 29.651362049264286 $370 $541 forward 7 unknown #
coedge $-1 $228 $365 $534 $542 reversed $223 $-1 #
vertex $-1 $371 $543 #
vertex $-1 $369 $544 #
straight-curve $-1 -39.338825004639673 0 2.8925988528698028 0 1 0 I I #
face $-1 $-1 $545 $53 $-1 $546 reversed single #
loop $-1 $-1 $236 $230 #
plane-surface $-1 0 0 11.447958712008905 0 0 1 1 0 0 forward_v I I I I #
coedge $-1 $547 $548 $549 $550 reversed $231 $-1 #
coedge $-1 $551 $233 $235 $386 forward $145 $-1 #
coedge $-1 $233 $551 $547 $552 forward $145 $-1 #
coedge $-1 $549 $236 $233 $383 forward $377 $-1 #
edge $-1 $389 -19.372539932783866 $553 -8.4399874582945049 $382 $554 forward 7 unknown #
coedge $-1 $555 $556 $234 $385 forward $545 $-1 #
edge $-1 $557 -53.70417998300816 $388 -44.874116493684831 $384 $558 forward 7 unknown #
edge $-1 $389 47.364996539773571 $557 58.421433784685163 $235 $559 forward 7 unknown #
coedge $-1 $236 $549 $555 $560 forward $377 $-1 #
vertex $-1 $385 $561 #
vertex $-1 $237 $562 #
straight-curve $-1 -33.278803628323047 39.072545997580491 11.447958712008905 0 -1 0 I I #
coedge $-1 $391 $391 $-1 $563 reversed $240 $-1 #
edge $-1 $564 0 $564 6.2831853071796004 $241 $565 forward 7 unknown #
vertex $-1 $244 $566 #
ellipse-curve $-1 -30.155217207040369 25.883751934412182 7.032926967347243 0 0.79863551827123203 0.60181501223851219 1 0 0 1 I I #
coedge $-1 $395 $395 $-1 $567 reversed $247 $-1 #
edge $-1 $568 0 $568 6.2831853071796004 $248 $569 forward 7 unknown #
vertex $-1 $251 $570 #
ellipse-curve $-1 -25.469837575116358 25.883751934412182 7.032926967347243 0 0.79863551827123203 0.60181501223851219 1 0 0 1 I I #
face $-1 $-1 $571 $56 $-1 $572 reversed single #
loop $-1 $-1 $258 $252 #
plane-surface $-1 0 0 11.447958712008905 0 0 1 1 0 0 forward_v I I I I #
coedge $-1 $573 $574 $575 $576 reversed $253 $-1 #
coedge $-1 $577 $255 $257 $409 forward $159 $-1 #
coedge $-1 $255 $577 $573 $578 forward $159 $-1 #
coedge $-1 $575 $258 $255 $406 forward $400 $-1 #
edge $-1 $412 -7.8741754237998691 $579 3.0583770506894865 $405 $580 forward 7 unknown #
coedge $-1 $581 $582 $256 $408 forward $571 $-1 #
edge $-1 $583 -53.70417998300816 $411 -44.874116493684831 $407 $584 forward 7 unknown #
edge $-1 $412 47.364996539773571 $583 58.421433784685163 $257 $585 forward 7 unknown #
coedge $-1 $258 $575 $581 $586 forward $400 $-1 #
vertex $-1 $259 $587 #
vertex $-1 $259 $588 #
straight-curve $-1 -10.28207461035506 39.072545997580491 11.447958712008905 0 -1 0 I I #
coedge $-1 $414 $414 $-1 $589 reversed $262 $-1 #
edge $-1 $590 0 $590 6.2831853071796004 $263 $591 forward 7 unknown #
vertex $-1 $266 $592 #
ellipse-curve $-1 -7.1584881890723864 25.883751934412182 7.032926967347243 0 0.79863551827123203 0.60181501223851219 1 0 0 1 I I #
coedge $-1 $418 $418 $-1 $593 reversed $269 $-1 #
edge $-1 $594 0 $594 6.2831853071796004 $270 $595 forward 7 unknown #
vertex $-1 $273 $596 #
ellipse-curve $-1 -2.4731085571483717 25.883751934412182 7.032926967347243 0 0.79863551827123203 0.60181501223851219 1 0 0 1 I I #
face $-1 $-1 $597 $59 $-1 $598 reversed single #
loop $-1 $-1 $280 $274 #
plane-surface $-1 0 0 11.447958712008905 0 0 1 1 0 0 forward_v I I I I #
coedge $-1 $599 $600 $601 $602 reversed $275 $-1 #
coedge $-1 $603 $277 $279 $432 forward $173 $-1 #
coedge $-1 $277 $603 $599 $604 forward $173 $-1 #
coedge $-1 $601 $280 $277 $429 forward $423 $-1 #
edge $-1 $435 3.6241890851841276 $605 14.556741559673483 $428 $606 forward 7 unknown #
coedge $-1 $607 $608 $278 $431 forward $597 $-1 #
edge $-1 $609 -53.70417998300816 $434 -44.874116493684831 $430 $610 forward 7 unknown #
edge $-1 $435 47.364996539773571 $609 58.421433784685163 $279 $611 forward 7 unknown #
coedge $-1 $280 $601 $607 $612 forward $423 $-1 #
vertex $-1 $281 $613 #
vertex $-1 $281 $614 #
straight-curve $-1 12.714654407612933 39.072545997580491 11.447958712008905 0 -1 0 I I #
coedge $-1 $437 $437 $-1 $615 reversed $284 $-1 #
edge $-1 $616 0 $616 6.2831853071796004 $285 $617 forward 7 unknown #
vertex $-1 $288 $618 #
ellipse-curve $-1 15.838240828895593 25.883751934412182 7.032926967347243 0 0.79863551827123203 0.60181501223851219 1 0 0 1 I I #
coedge $-1 $441 $441 $-1 $619 reversed $291 $-1 #
edge $-1 $620 0 $620 6.2831853071796004 $292 $621 forward 7 unknown #
vertex $-1 $295 $622 #
ellipse-curve $-1 20.523620460819615 25.883751934412182 7.032926967347243 0 0.79863551827123203 0.60181501223851219 1 0 0 1 I I #
face $-1 $-1 $623 $62 $-1 $624 reversed single #
loop $-1 $-1 $302 $296 #
plane-surface $-1 0 0 11.447958712008905 0 0 1 1 0 0 forward_v I I I I #
coedge $-1 $625 $626 $627 $628 reversed $297 $-1 #
coedge $-1 $629 $299 $301 $455 forward $187 $-1 #
coedge $-1 $299 $629 $625 $630 forward $187 $-1 #
coedge $-1 $627 $302 $299 $452 forward $446 $-1 #
edge $-1 $458 15.122553594168124 $631 26.05510606865748 $451 $632 forward 7 unknown #
coedge $-1 $633 $634 $300 $454 forward $623 $-1 #
edge $-1 $635 -53.70417998300816 $457 -44.874116493684831 $453 $636 forward 7 unknown #
edge $-1 $458 47.364996539773571 $635 58.421433784685163 $301 $637 forward 7 unknown #
coedge $-1 $302 $627 $633 $638 forward $446 $-1 #
vertex $-1 $303 $639 #
vertex $-1 $303 $640 #
straight-curve $-1 35.711383425580927 39.072545997580491 11.447958712008905 0 -1 0 I I #
coedge $-1 $460 $460 $-1 $641 reversed $306 $-1 #
edge $-1 $642 0 $642 6.2831853071796004 $307 $643 forward 7 unknown #
vertex $-1 $310 $644 #
ellipse-curve $-1 38.834969846863586 25.883751934412182 7.032926967347243 0 0.79863551827123203 0.60181501223851219 1 0 0 1 I I #
coedge $-1 $464 $464 $-1 $645 reversed $313 $-1 #
edge $-1 $646 0 $646 6.2831853071796004 $314 $647 forward 7 unknown #
vertex $-1 $317 $648 #
ellipse-curve $-1 43.520349478787594 25.883751934412182 7.032926967347243 0 0.79863551827123203 0.60181501223851219 1 0 0 1 I I #
face $-1 $-1 $480 $65 $-1 $649 forward single #
loop $-1 $-1 $650 $318 #
plane-surface $-1 0 -29.210716892342585 0 0 1 0 0 0 1 forward_v I I I I #
coedge $-1 $651 $652 $653 $654 reversed $319 $-1 #
coedge $-1 $655 $321 $323 $478 forward $201 $-1 #
coedge $-1 $321 $655 $651 $656 forward $201 $-1 #
coedge $-1 $653 $324 $321 $475 forward $480 $-1 #
edge $-1 $482 -15.882547404476881 $657 5.7541833990980109 $474 $658 forward 7 unknown #
coedge $-1 $659 $660 $322 $477 forward $469 $-1 #
edge $-1 $661 -29.167001020211412 $481 -25.65007370866082 $476 $662 forward 7 unknown #
edge $-1 $482 -4.5254398125004158 $661 -5.6870165216907905e-015 $323 $663 forward 7 unknown #
coedge $-1 $324 $653 $659 $664 forward $480 $-1 #
loop $-1 $-1 $653 $468 #
vertex $-1 $477 $665 #
vertex $-1 $325 $666 #
straight-curve $-1 20.946729407166316 -55.520610233167652 11.447958712008905 0 1 0 I I #
coedge $-1 $484 $484 $-1 $667 reversed $328 $-1 #
edge $-1 $668 0 $668 6.2831853071796004 $329 $669 forward 7 unknown #
vertex $-1 $332 $670 #
ellipse-curve $-1 5.4919216903271106 -27.786741139227974 9.6894950562336106 0 -0.77714596973225614 0.62932038083071107 1 0 0 1 I I #
coedge $-1 $488 $488 $-1 $671 reversed $335 $-1 #
edge $-1 $672 0 $672 6.2831853071796004 $336 $673 forward 7 unknown #
vertex $-1 $339 $674 #
ellipse-curve $-1 14.764806320430637 -27.786741139227974 9.6894950562336106 0 -0.77714596973225614 0.62932038083071107 1 0 0 1 I I #
face $-1 $-1 $355 $51 $-1 $675 reversed single #
loop $-1 $-1 $508 $340 #
plane-surface $-1 0 29.210716892342585 0 0 -1 0 0 0 -1 forward_v I I I I #
coedge $-1 $676 $506 $509 $677 forward $341 $-1 #
coedge $-1 $512 $343 $344 $500 reversed $215 $-1 #
coedge $-1 $506 $676 $343 $498 reversed $341 $-1 #
edge $-1 $513 -11.447958712008905 $678 11.447958712008905 $497 $679 forward 7 unknown #
coedge $-1 $345 $344 $676 $680 forward $137 $-1 #
edge $-1 $504 -52.648091067232272 $678 52.648091067232272 $496 $681 forward 7 unknown #
coedge $-1 $509 $508 $345 $502 reversed $493 $-1 #
edge $-1 $682 -52.648091067232272 $503 52.648091067232272 $501 $683 forward 7 unknown #
vertex $-1 $347 $684 #
vertex $-1 $515 $685 #
straight-curve $-1 52.648091067232272 0 -11.447958712008905 0 -1 0 I I #
coedge $-1 $495 $497 $348 $507 reversed $341 $-1 #
edge $-1 $510 -29.210716892342585 $513 29.210716892342585 $506 $686 forward 7 unknown #
coedge $-1 $501 $349 $354 $516 forward $493 $-1 #
coedge $-1 $349 $501 $495 $677 reversed $493 $-1 #
vertex $-1 $350 $687 #
straight-curve $-1 0 29.210716892342585 11.447958712008905 -1 0 0 I I #
coedge $-1 $351 $496 $353 $515 reversed $215 $-1 #
vertex $-1 $507 $688 #
straight-curve $-1 0 -29.210716892342585 11.447958712008905 1 0 0 I I #
edge $-1 $356 -11.447958712008905 $504 11.447958712008905 $353 $689 forward 7 unknown #
edge $-1 $357 -11.447958712008905 $503 11.447958712008905 $354 $690 forward 7 unknown #
point $-1 52.648091067232272 -29.210716892342585 11.447958712008905 #
point $-1 52.648091067232272 29.210716892342585 11.447958712008905 #
face $-1 $-1 $536 $52 $-1 $691 reversed single #
loop $-1 $-1 $692 $359 #
plane-surface $-1 -52.648091067232272 0 0 1 0 0 0 0 -1 forward_v I I I I #
coedge $-1 $523 $539 $363 $526 forward $360 $-1 #
coedge $-1 $370 $522 $362 $524 forward $360 $-1 #
edge $-1 $530 -0.80370057356509861 $373 2.1962994264349014 $523 $693 forward 7 unknown #
coedge $-1 $364 $363 $692 $694 reversed $141 $-1 #
edge $-1 $695 -29.651362049264286 $530 -16.342095986671687 $522 $696 forward 7 unknown #
coedge $-1 $535 $534 $364 $528 forward $536 $-1 #
edge $-1 $529 16.342095986671687 $697 29.651362049264286 $527 $698 forward 7 unknown #
vertex $-1 $528 $699 #
vertex $-1 $526 $700 #
straight-curve $-1 -39.338825004639673 0 -0.10740114713019722 0 -1 0 I I #
coedge $-1 $701 $702 $367 $533 forward $520 $-1 #
edge $-1 $540 -29.210716892342585 $537 29.210716892342585 $532 $703 forward 7 unknown #
coedge $-1 $527 $368 $372 $542 forward $536 $-1 #
coedge $-1 $368 $527 $701 $704 reversed $536 $-1 #
loop $-1 $-1 $527 $519 #
vertex $-1 $704 $705 #
straight-curve $-1 -22.996729017967986 29.210716892342585 2.8925988528698028 1 0 0 I I #
coedge $-1 $522 $370 $702 $706 forward $360 $-1 #
vertex $-1 $706 $707 #
straight-curve $-1 -22.996729017967986 -29.210716892342585 2.8925988528698028 -1 0 0 I I #
edge $-1 $374 -2.1962994264349014 $529 0.80370057356509861 $534 $708 forward 7 unknown #
point $-1 -39.338825004639673 -29.210716892342585 2.8925988528698028 #
point $-1 -39.338825004639673 29.210716892342585 2.8925988528698028 #
loop $-1 $-1 $384 $376 #
plane-surface $-1 0 29.210716892342585 0 0 -1 0 0 0 -1 forward_v I I I I #
coedge $-1 $548 $379 $381 $552 reversed $231 $-1 #
coedge $-1 $379 $547 $709 $710 reversed $231 $-1 #
coedge $-1 $387 $382 $379 $550 forward $377 $-1 #
edge $-1 $553 -16.515759021098717 $711 -9.8618291052379057 $549 $712 forward 7 unknown #
coedge $-1 $381 $380 $556 $713 reversed $145 $-1 #
edge $-1 $714 -58.421433784685163 $553 -47.364996539773571 $547 $715 forward 7 unknown #
vertex $-1 $383 $716 #
straight-curve $-1 -13.906263695539183 22.556786976481774 11.447958712008905 1 0 0 I I #
coedge $-1 $709 $384 $387 $560 reversed $545 $-1 #
coedge $-1 $384 $709 $551 $713 forward $545 $-1 #
vertex $-1 $385 $717 #
straight-curve $-1 -33.278803628323047 29.210716892342585 56.322075205693736 0 0 1 I I #
straight-curve $-1 -33.278803628323047 -5.9481789957791449 49.275327271466082 0 0.60181501223851219 -0.79863551827123203 I I #
edge $-1 $711 22.346251153833688 $388 33.278803628323047 $555 $718 forward 7 unknown #
point $-1 -33.278803628323047 29.210716892342585 11.447958712008905 #
point $-1 -33.278803628323047 22.556786976481774 11.447958712008905 #
edge $-1 $719 1 $719 0 $391 $-1 forward 7 unknown #
vertex $-1 $392 $720 #
ellipse-curve $-1 -30.155217207040369 24.675574114022616 6.1224997034334594 0 0.79863551827123203 0.60181501223851219 1 0 0 1 I I #
point $-1 -29.155217207040369 25.883751934412182 7.0329269673472457 #
edge $-1 $721 1 $721 0 $395 $-1 forward 7 unknown #
vertex $-1 $396 $722 #
ellipse-curve $-1 -25.469837575116358 24.675574114022616 6.1224997034334594 0 0.79863551827123203 0.60181501223851219 1 0 0 1 I I #
point $-1 -24.469837575116358 25.883751934412182 7.0329269673472457 #
loop $-1 $-1 $407 $399 #
plane-surface $-1 0 29.210716892342585 0 0 -1 0 0 0 -1 forward_v I I I I #
coedge $-1 $574 $402 $404 $578 reversed $253 $-1 #
coedge $-1 $402 $573 $723 $724 reversed $253 $-1 #
coedge $-1 $410 $405 $402 $576 forward $400 $-1 #
edge $-1 $579 -16.515759021098717 $725 -9.8618291052379057 $575 $726 forward 7 unknown #
coedge $-1 $404 $403 $582 $727 reversed $159 $-1 #
edge $-1 $728 -58.421433784685163 $579 -47.364996539773571 $573 $729 forward 7 unknown #
vertex $-1 $406 $730 #
straight-curve $-1 -2.4078991865551913 22.556786976481774 11.447958712008905 1 0 0 I I #
coedge $-1 $723 $407 $410 $586 reversed $571 $-1 #
coedge $-1 $407 $723 $577 $727 forward $571 $-1 #
vertex $-1 $408 $731 #
straight-curve $-1 -10.28207461035506 29.210716892342585 56.322075205693736 0 0 1 I I #
straight-curve $-1 -10.28207461035506 -5.9481789957791449 49.275327271466082 0 0.60181501223851219 -0.79863551827123203 I I #
edge $-1 $725 -0.6504778641342952 $411 10.28207461035506 $581 $732 forward 7 unknown #
point $-1 -10.28207461035506 29.210716892342585 11.447958712008905 #
point $-1 -10.28207461035506 22.556786976481774 11.447958712008905 #
edge $-1 $733 1 $733 0 $414 $-1 forward 7 unknown #
vertex $-1 $415 $734 #
ellipse-curve $-1 -7.1584881890723864 24.675574114022616 6.1224997034334594 0 0.79863551827123203 0.60181501223851219 1 0 0 1 I I #
point $-1 -6.1584881890723864 25.883751934412182 7.0329269673472457 #
edge $-1 $735 1 $735 0 $418 $-1 forward 7 unknown #
vertex $-1 $419 $736 #
ellipse-curve $-1 -2.4731085571483717 24.675574114022616 6.1224997034334594 0 0.79863551827123203 0.60181501223851219 1 0 0 1 I I #
point $-1 -1.4731085571483717 25.883751934412182 7.0329269673472457 #
loop $-1 $-1 $430 $422 #
plane-surface $-1 0 29.210716892342585 0 0 -1 0 0 0 -1 forward_v I I I I #
coedge $-1 $600 $425 $427 $604 reversed $275 $-1 #
coedge $-1 $425 $599 $737 $738 reversed $275 $-1 #
coedge $-1 $433 $428 $425 $602 forward $423 $-1 #
edge $-1 $605 -16.515759021098717 $739 -9.8618291052379057 $601 $740 forward 7 unknown #
coedge $-1 $427 $426 $608 $741 reversed $173 $-1 #
edge $-1 $742 -58.421433784685163 $605 -47.364996539773571 $599 $743 forward 7 unknown #
vertex $-1 $429 $744 #
straight-curve $-1 9.0904653224288055 22.556786976481774 11.447958712008905 1 0 0 I I #
coedge $-1 $737 $430 $433 $612 reversed $597 $-1 #
coedge $-1 $430 $737 $603 $741 forward $597 $-1 #
vertex $-1 $431 $745 #
straight-curve $-1 12.714654407612933 29.210716892342585 56.322075205693736 0 0 1 I I #
straight-curve $-1 12.714654407612933 -5.9481789957791449 49.275327271466082 0 0.60181501223851219 -0.79863551827123203 I I #
edge $-1 $739 -23.647206882102289 $434 -12.714654407612933 $607 $746 forward 7 unknown #
point $-1 12.714654407612933 29.210716892342585 11.447958712008905 #
point $-1 12.714654407612933 22.556786976481774 11.447958712008905 #
edge $-1 $747 1 $747 0 $437 $-1 forward 7 unknown #
vertex $-1 $438 $748 #
ellipse-curve $-1 15.838240828895593 24.675574114022616 6.1224997034334594 0 0.79863551827123203 0.60181501223851219 1 0 0 1 I I #
point $-1 16.838240828895593 25.883751934412182 7.0329269673472457 #
edge $-1 $749 1 $749 0 $441 $-1 forward 7 unknown #
vertex $-1 $442 $750 #
ellipse-curve $-1 20.523620460819615 24.675574114022616 6.1224997034334594 0 0.79863551827123203 0.60181501223851219 1 0 0 1 I I #
point $-1 21.523620460819615 25.883751934412182 7.0329269673472457 #
loop $-1 $-1 $453 $445 #
plane-surface $-1 0 29.210716892342585 0 0 -1 0 0 0 -1 forward_v I I I I #
coedge $-1 $626 $448 $450 $630 reversed $297 $-1 #
coedge $-1 $448 $625 $751 $752 reversed $297 $-1 #
coedge $-1 $456 $451 $448 $628 forward $446 $-1 #
edge $-1 $631 -16.515759021098717 $753 -9.8618291052379057 $627 $754 forward 7 unknown #
coedge $-1 $450 $449 $634 $755 reversed $187 $-1 #
edge $-1 $756 -58.421433784685163 $631 -47.364996539773571 $625 $757 forward 7 unknown #
vertex $-1 $452 $758 #
straight-curve $-1 20.588829831412802 22.556786976481774 11.447958712008905 1 0 0 I I #
coedge $-1 $751 $453 $456 $638 reversed $623 $-1 #
coedge $-1 $453 $751 $629 $755 forward $623 $-1 #
vertex $-1 $454 $759 #
straight-curve $-1 35.711383425580927 29.210716892342585 56.322075205693736 0 0 1 I I #
straight-curve $-1 35.711383425580927 -5.9481789957791449 49.275327271466082 0 0.60181501223851219 -0.79863551827123203 I I #
edge $-1 $753 -46.643935900070282 $457 -35.711383425580927 $633 $760 forward 7 unknown #
point $-1 35.711383425580927 29.210716892342585 11.447958712008905 #
point $-1 35.711383425580927 22.556786976481774 11.447958712008905 #
edge $-1 $761 1 $761 0 $460 $-1 forward 7 unknown #
vertex $-1 $461 $762 #
ellipse-curve $-1 38.834969846863586 24.675574114022616 6.1224997034334594 0 0.79863551827123203 0.60181501223851219 1 0 0 1 I I #
point $-1 39.834969846863586 25.883751934412182 7.0329269673472457 #
edge $-1 $763 1 $763 0 $464 $-1 forward 7 unknown #
vertex $-1 $465 $764 #
ellipse-curve $-1 43.520349478787594 24.675574114022616 6.1224997034334594 0 0.79863551827123203 0.60181501223851219 1 0 0 1 I I #
point $-1 44.520349478787594 25.883751934412182 7.0329269673472457 #
plane-surface $-1 0 0 11.447958712008905 0 0 1 1 0 0 forward_v I I I I #
coedge $-1 $660 $659 $652 $765 forward $469 $-1 #
coedge $-1 $652 $471 $473 $656 reversed $319 $-1 #
coedge $-1 $471 $651 $650 $765 reversed $319 $-1 #
coedge $-1 $479 $474 $471 $654 forward $480 $-1 #
edge $-1 $657 -29.157844847054285 $766 -26.309893340825067 $653 $767 forward 7 unknown #
coedge $-1 $473 $472 $660 $768 reversed $201 $-1 #
edge $-1 $769 5.6870165216907905e-015 $657 4.5254398125004158 $651 $770 forward 7 unknown #
vertex $-1 $475 $771 #
straight-curve $-1 5.0641820026894351 -26.362765386113367 11.447958712008905 -1 0 0 I I #
coedge $-1 $650 $476 $479 $664 reversed $469 $-1 #
coedge $-1 $476 $650 $655 $768 forward $469 $-1 #
vertex $-1 $477 $772 #
straight-curve $-1 20.946729407166316 -29.210716892342589 37.098032420669725 0 0 1 I I #
straight-curve $-1 20.946729407166316 -29.210716892342589 7.9310314004583091 0 -0.62932038083071107 -0.77714596973225614 I I #
edge $-1 $766 -0.69000139640857583 $481 20.946729407166316 $659 $773 forward 7 unknown #
point $-1 20.946729407166316 -29.210716892342585 11.447958712008905 #
point $-1 20.946729407166316 -26.362765386113367 11.447958712008905 #
edge $-1 $774 1 $774 0 $484 $-1 forward 7 unknown #
vertex $-1 $485 $775 #
ellipse-curve $-1 5.4919216903271106 -26.592430935308258 8.722361748420532 0 -0.77714596973225614 0.62932038083071107 1 0 0 1 I I #
point $-1 6.4919216903271106 -27.786741139227978 9.6894950562336142 #
edge $-1 $776 1 $776 0 $488 $-1 forward 7 unknown #
vertex $-1 $489 $777 #
ellipse-curve $-1 14.764806320430637 -26.592430935308258 8.722361748420532 0 -0.77714596973225614 0.62932038083071107 1 0 0 1 I I #
point $-1 15.764806320430637 -27.786741139227978 9.6894950562336142 #
plane-surface $-1 52.648091067232272 0 0 -1 0 0 0 0 1 forward_v I I I I #
coedge $-1 $497 $495 $499 $680 reversed $341 $-1 #
edge $-1 $510 -11.447958712008905 $682 11.447958712008905 $509 $778 forward 7 unknown #
vertex $-1 $680 $779 #
straight-curve $-1 -52.648091067232272 -29.210716892342585 0 0 0 -1 I I #
edge $-1 $678 -29.210716892342585 $682 29.210716892342585 $676 $780 forward 7 unknown #
straight-curve $-1 0 -29.210716892342585 -11.447958712008905 -1 0 0 I I #
vertex $-1 $502 $781 #
straight-curve $-1 0 29.210716892342585 -11.447958712008905 1 0 0 I I #
point $-1 52.648091067232272 29.210716892342585 -11.447958712008905 #
point $-1 52.648091067232272 -29.210716892342585 -11.447958712008905 #
straight-curve $-1 -52.648091067232272 0 11.447958712008905 0 -1 0 I I #
point $-1 -52.648091067232272 29.210716892342585 11.447958712008905 #
point $-1 -52.648091067232272 -29.210716892342585 11.447958712008905 #
straight-curve $-1 52.648091067232272 -29.210716892342585 0 0 0 -1 I I #
straight-curve $-1 52.648091067232272 29.210716892342585 0 0 0 -1 I I #
plane-surface $-1 0 29.210716892342585 0 0 -1 0 0 0 -1 forward_v I I I I #
coedge $-1 $702 $701 $525 $694 forward $520 $-1 #
straight-curve $-1 -39.338825004639673 -29.210716892342585 0.69629942643490139 0 0 1 I I #
edge $-1 $697 -29.210716892342585 $695 29.210716892342585 $692 $782 forward 7 unknown #
vertex $-1 $526 $783 #
straight-curve $-1 -22.996729017967986 -29.210716892342585 -0.10740114713019722 1 0 0 I I #
vertex $-1 $528 $784 #
straight-curve $-1 -22.996729017967986 29.210716892342585 -0.10740114713019722 -1 0 0 I I #
point $-1 -39.338825004639673 29.210716892342585 -0.10740114713019722 #
point $-1 -39.338825004639673 -29.210716892342585 -0.10740114713019722 #
coedge $-1 $692 $532 $535 $704 forward $520 $-1 #
coedge $-1 $532 $692 $539 $706 reversed $520 $-1 #
straight-curve $-1 -52.648091067232272 0 2.8925988528698028 0 1 0 I I #
edge $-1 $537 -2.8925988528698028 $697 0.10740114713019722 $535 $785 forward 7 unknown #
point $-1 -52.648091067232272 29.210716892342585 2.8925988528698028 #
edge $-1 $540 -2.8925988528698028 $695 0.10740114713019722 $702 $786 forward 7 unknown #
point $-1 -52.648091067232272 -29.210716892342585 2.8925988528698028 #
straight-curve $-1 -39.338825004639673 29.210716892342585 0.69629942643490139 0 0 -1 I I #
coedge $-1 $556 $555 $548 $710 forward $545 $-1 #
edge $-1 $711 44.874116493684831 $714 53.70417998300816 $709 $787 forward 7 unknown #
vertex $-1 $560 $788 #
straight-curve $-1 -22.346251153833688 39.072545997580491 11.447958712008905 0 1 0 I I #
edge $-1 $714 8.4399874582945049 $557 19.372539932783866 $556 $789 forward 7 unknown #
vertex $-1 $713 $790 #
straight-curve $-1 -22.346251153833688 -5.9481789957791449 49.275327271466082 0 -0.60181501223851219 0.79863551827123203 I I #
point $-1 -22.346251153833688 22.556786976481774 11.447958712008905 #
point $-1 -33.278803628323047 29.210716892342589 2.6178952226855756 #
straight-curve $-1 0 29.210716892342585 11.447958712008905 -1 0 0 I I #
vertex $-1 $563 $791 #
point $-1 -29.155217207040369 24.675574114022616 6.1224997034334594 #
vertex $-1 $567 $792 #
point $-1 -24.469837575116358 24.675574114022616 6.1224997034334594 #
coedge $-1 $582 $581 $574 $724 forward $571 $-1 #
edge $-1 $725 44.874116493684831 $728 53.70417998300816 $723 $793 forward 7 unknown #
vertex $-1 $586 $794 #
straight-curve $-1 0.6504778641342952 39.072545997580491 11.447958712008905 0 1 0 I I #
edge $-1 $728 -3.0583770506894865 $583 7.8741754237998691 $582 $795 forward 7 unknown #
vertex $-1 $727 $796 #
straight-curve $-1 0.6504778641342952 -5.9481789957791449 49.275327271466082 0 -0.60181501223851219 0.79863551827123203 I I #
point $-1 0.6504778641342952 22.556786976481774 11.447958712008905 #
point $-1 -10.28207461035506 29.210716892342589 2.6178952226855756 #
straight-curve $-1 0 29.210716892342585 11.447958712008905 -1 0 0 I I #
vertex $-1 $589 $797 #
point $-1 -6.1584881890723864 24.675574114022616 6.1224997034334594 #
vertex $-1 $593 $798 #
point $-1 -1.4731085571483717 24.675574114022616 6.1224997034334594 #
coedge $-1 $608 $607 $600 $738 forward $597 $-1 #
edge $-1 $739 44.874116493684831 $742 53.70417998300816 $737 $799 forward 7 unknown #
vertex $-1 $612 $800 #
straight-curve $-1 23.647206882102289 39.072545997580491 11.447958712008905 0 1 0 I I #
edge $-1 $742 -14.556741559673483 $609 -3.6241890851841276 $608 $801 forward 7 unknown #
vertex $-1 $741 $802 #
straight-curve $-1 23.647206882102289 -5.9481789957791449 49.275327271466082 0 -0.60181501223851219 0.79863551827123203 I I #
point $-1 23.647206882102289 22.556786976481774 11.447958712008905 #
point $-1 12.714654407612933 29.210716892342589 2.6178952226855756 #
straight-curve $-1 0 29.210716892342585 11.447958712008905 -1 0 0 I I #
vertex $-1 $615 $803 #
point $-1 16.838240828895593 24.675574114022616 6.1224997034334594 #
vertex $-1 $619 $804 #
point $-1 21.523620460819615 24.675574114022616 6.1224997034334594 #
coedge $-1 $634 $633 $626 $752 forward $623 $-1 #
edge $-1 $753 44.874116493684831 $756 53.70417998300816 $751 $805 forward 7 unknown #
vertex $-1 $638 $806 #
straight-curve $-1 46.643935900070282 39.072545997580491 11.447958712008905 0 1 0 I I #
edge $-1 $756 -26.05510606865748 $635 -15.122553594168124 $634 $807 forward 7 unknown #
vertex $-1 $755 $808 #
straight-curve $-1 46.643935900070282 -5.9481789957791449 49.275327271466082 0 -0.60181501223851219 0.79863551827123203 I I #
point $-1 46.643935900070282 22.556786976481774 11.447958712008905 #
point $-1 35.711383425580927 29.210716892342589 2.6178952226855756 #
straight-curve $-1 0 29.210716892342585 11.447958712008905 -1 0 0 I I #
vertex $-1 $641 $809 #
point $-1 39.834969846863586 24.675574114022616 6.1224997034334594 #
vertex $-1 $645 $810 #
point $-1 44.520349478787594 24.675574114022616 6.1224997034334594 #
edge $-1 $766 25.65007370866082 $769 29.167001020211412 $650 $811 forward 7 unknown #
vertex $-1 $664 $812 #
straight-curve $-1 -0.69000139640857583 -55.520610233167652 11.447958712008905 0 -1 0 I I #
edge $-1 $769 -5.7541833990980109 $661 15.882547404476881 $660 $813 forward 7 unknown #
vertex $-1 $768 $814 #
straight-curve $-1 -0.69000139640857583 -29.210716892342589 7.9310314004583091 0 0.62932038083071107 0.77714596973225614 I I #
point $-1 -0.69000139640857583 -26.362765386113367 11.447958712008905 #
point $-1 20.946729407166316 -29.210716892342585 7.9310314004583136 #
straight-curve $-1 0 -29.210716892342585 11.447958712008905 1 0 0 I I #
vertex $-1 $667 $815 #
point $-1 6.4919216903271106 -26.592430935308258 8.722361748420532 #
vertex $-1 $671 $816 #
point $-1 15.764806320430637 -26.592430935308258 8.722361748420532 #
straight-curve $-1 -52.648091067232272 29.210716892342585 0 0 0 -1 I I #
point $-1 -52.648091067232272 -29.210716892342585 -11.447958712008905 #
straight-curve $-1 -52.648091067232272 0 -11.447958712008905 0 1 0 I I #
point $-1 -52.648091067232272 29.210716892342585 -11.447958712008905 #
straight-curve $-1 -52.648091067232272 0 -0.10740114713019722 0 -1 0 I I #
point $-1 -52.648091067232272 -29.210716892342585 -0.10740114713019722 #
point $-1 -52.648091067232272 29.210716892342585 -0.10740114713019722 #
straight-curve $-1 -52.648091067232272 29.210716892342585 0 0 0 -1 I I #
straight-curve $-1 -52.648091067232272 -29.210716892342585 0 0 0 -1 I I #
straight-curve $-1 -22.346251153833688 29.210716892342585 56.322075205693736 0 0 -1 I I #
point $-1 -22.346251153833688 29.210716892342585 11.447958712008905 #
straight-curve $-1 -13.906263695539183 29.210716892342585 2.6178952226855827 -1 0 0 I I #
point $-1 -22.346251153833688 29.210716892342589 2.6178952226855756 #
point $-1 -30.155217207040369 23.876938595751383 5.5206846911949468 #
point $-1 -25.469837575116358 23.876938595751383 5.5206846911949468 #
straight-curve $-1 0.6504778641342952 29.210716892342585 56.322075205693736 0 0 -1 I I #
point $-1 0.6504778641342952 29.210716892342585 11.447958712008905 #
straight-curve $-1 -2.4078991865551913 29.210716892342585 2.6178952226855827 -1 0 0 I I #
point $-1 0.6504778641342952 29.210716892342589 2.6178952226855756 #
point $-1 -7.1584881890723864 23.876938595751383 5.5206846911949468 #
point $-1 -2.4731085571483717 23.876938595751383 5.5206846911949468 #
straight-curve $-1 23.647206882102289 29.210716892342585 56.322075205693736 0 0 -1 I I #
point $-1 23.647206882102289 29.210716892342585 11.447958712008905 #
straight-curve $-1 9.0904653224288055 29.210716892342585 2.6178952226855827 -1 0 0 I I #
point $-1 23.647206882102289 29.210716892342589 2.6178952226855756 #
point $-1 15.838240828895593 23.876938595751383 5.5206846911949468 #
point $-1 20.523620460819615 23.876938595751383 5.5206846911949468 #
straight-curve $-1 46.643935900070282 29.210716892342585 56.322075205693736 0 0 -1 I I #
point $-1 46.643935900070282 29.210716892342585 11.447958712008905 #
straight-curve $-1 20.588829831412802 29.210716892342585 2.6178952226855827 -1 0 0 I I #
point $-1 46.643935900070282 29.210716892342589 2.6178952226855756 #
point $-1 38.834969846863586 23.876938595751383 5.5206846911949468 #
point $-1 43.520349478787594 23.876938595751383 5.5206846911949468 #
straight-curve $-1 -0.69000139640857583 -29.210716892342589 37.098032420669725 0 0 -1 I I #
point $-1 -0.69000139640857583 -29.210716892342585 11.447958712008905 #
straight-curve $-1 5.0641820026894351 -29.210716892342585 7.9310314004583145 1 0 0 I I #
point $-1 -0.69000139640857583 -29.210716892342585 7.9310314004583136 #
point $-1 5.4919216903271106 -25.815284965576005 8.0930413675898194 #
point $-1 14.764806320430637 -25.815284965576005 8.0930413675898194 #
End-of-ACIS-data 