500 0 10 0           
7 Unknown 11 ACIS 5.0 NT 24 Fri Mar 26 15:29:11 1999 
-1 9.9999999999999995e-007 1e-010 
body $-1 $10 $-1 $11 #
body $-1 $12 $-1 $13 #
body $-1 $14 $-1 $15 #
body $-1 $16 $-1 $17 #
body $-1 $18 $-1 $19 #
body $-1 $20 $-1 $21 #
body $-1 $22 $-1 $23 #
body $-1 $24 $-1 $25 #
body $-1 $26 $-1 $27 #
body $-1 $28 $-1 $29 #
lump $-1 $-1 $30 $0 #
transform $-1 1 0 0 0 1 0 0 0 1 50.724204229865414 22.693922592529191 9.4636850026275408 1 rotate no_reflect no_shear #
lump $-1 $-1 $31 $1 #
transform $-1 1 0 0 0 1 0 0 0 1 50.724204229865414 22.693922592529191 9.4636850026275408 1 rotate no_reflect no_shear #
lump $-1 $-1 $32 $2 #
transform $-1 1 0 0 0 1 0 0 0 1 50.724204229865414 22.693922592529191 9.4636850026275408 1 rotate no_reflect no_shear #
lump $-1 $-1 $33 $3 #
transform $-1 1 0 0 0 1 0 0 0 1 50.724204229865414 22.693922592529191 9.4636850026275408 1 rotate no_reflect no_shear #
lump $-1 $-1 $34 $4 #
transform $-1 1 0 0 0 1 0 0 0 1 50.724204229865414 22.693922592529191 9.4636850026275408 1 rotate no_reflect no_shear #
lump $-1 $-1 $35 $5 #
transform $-1 1 0 0 0 1 0 0 0 1 50.724204229865414 22.693922592529191 9.4636850026275408 1 rotate no_reflect no_shear #
lump $-1 $-1 $36 $6 #
transform $-1 1 0 0 0 1 0 0 0 1 50.724204229865414 22.693922592529191 9.4636850026275408 1 rotate no_reflect no_shear #
lump $-1 $-1 $37 $7 #
transform $-1 1 0 0 0 1 0 0 0 1 50.724204229865414 22.693922592529191 9.4636850026275408 1 rotate no_reflect no_shear #
lump $-1 $-1 $38 $8 #
transform $-1 1 0 0 0 1 0 0 0 1 50.724204229865414 22.693922592529191 9.4636850026275408 1 rotate no_reflect no_shear #
lump $-1 $-1 $39 $9 #
transform $-1 1 0 0 0 1 0 0 0 1 50.724204229865414 22.693922592529191 9.4636850026275408 1 rotate no_reflect no_shear #
shell $-1 $-1 $-1 $40 $-1 $10 #
shell $-1 $-1 $-1 $41 $-1 $12 #
shell $-1 $-1 $-1 $42 $-1 $14 #
shell $-1 $-1 $-1 $43 $-1 $16 #
shell $-1 $-1 $-1 $44 $-1 $18 #
shell $-1 $-1 $-1 $45 $-1 $20 #
shell $-1 $-1 $-1 $46 $-1 $22 #
shell $-1 $-1 $-1 $47 $-1 $24 #
shell $-1 $-1 $-1 $48 $-1 $26 #
shell $-1 $-1 $-1 $49 $-1 $28 #
face $-1 $50 $51 $30 $-1 $52 forward single #
face $-1 $53 $54 $31 $-1 $55 forward single #
face $-1 $56 $57 $32 $-1 $58 reversed single #
face $-1 $59 $60 $33 $-1 $61 forward single #
face $-1 $62 $63 $34 $-1 $64 forward single #
face $-1 $65 $66 $35 $-1 $67 reversed single #
face $-1 $68 $69 $36 $-1 $70 forward single #
face $-1 $71 $72 $37 $-1 $73 forward single #
face $-1 $74 $75 $38 $-1 $76 reversed single #
face $-1 $77 $78 $39 $-1 $79 forward single #
face $-1 $80 $81 $30 $-1 $82 reversed single #
loop $-1 $-1 $83 $40 #
plane-surface $-1 0 0 9.4636850026275408 0 0 1 1 0 0 forward_v I I I I #
face $-1 $84 $85 $31 $-1 $86 reversed single #
loop $-1 $-1 $87 $41 #
plane-surface $-1 0 -22.693922592529191 0 0 1 0 0 0 1 forward_v I I I I #
face $-1 $88 $89 $32 $-1 $90 reversed single #
loop $-1 $-1 $91 $42 #
plane-surface $-1 -102.97399792069999 -8.3565643737929545 88.42233682384996 0 1 0 -0.51503808176128008 0 0.85716729658548041 forward_v I I I I #
face $-1 $92 $93 $33 $-1 $94 forward single #
loop $-1 $95 $96 $43 #
cone-surface $-1 -43.6177165697977 -5.629284720370098 4.7154595150605338 0.51503808176128008 0 -0.85716729658548041 0.85716729658548041 0 0.51503808176128008 1 I I 0 1 1 forward I I I I #
face $-1 $97 $98 $34 $-1 $99 forward single #
loop $-1 $100 $101 $44 #
cone-surface $-1 -43.6177165697977 -1.5383652402358159 4.7154595150605338 0.51503808176128008 0 -0.85716729658548041 0.85716729658548041 0 0.51503808176128008 1 I I 0 1 1 forward I I I I #
face $-1 $102 $103 $35 $-1 $104 reversed single #
loop $-1 $-1 $105 $45 #
plane-surface $-1 -102.97399792069999 5.6045771506944337 88.42233682384996 0 1 0 -0.51503808176128008 0 0.85716729658548041 forward_v I I I I #
face $-1 $106 $107 $36 $-1 $108 forward single #
loop $-1 $109 $110 $46 #
cone-surface $-1 -43.6177165697977 8.3318568041172938 4.7154595150605338 0.51503808176128008 0 -0.85716729658548041 0.85716729658548041 0 0.51503808176128008 1 I I 0 1 1 forward I I I I #
face $-1 $111 $112 $37 $-1 $113 forward single #
loop $-1 $114 $115 $47 #
cone-surface $-1 -43.6177165697977 12.422776284251576 4.7154595150605338 0.51503808176128008 0 -0.85716729658548041 0.85716729658548041 0 0.51503808176128008 1 I I 0 1 1 forward I I I I #
face $-1 $116 $117 $38 $-1 $118 reversed single #
loop $-1 $-1 $119 $48 #
plane-surface $-1 35.727536817172911 11.726613562480367 146.83357453201575 0 1 0 0.62932039886446345 0 0.77714595512881146 forward_v I I I I #
face $-1 $120 $121 $39 $-1 $122 forward single #
loop $-1 $123 $124 $49 #
cone-surface $-1 45.879850086062817 17.210268077504779 4.8762231706004897 -0.62932039886446345 0 -0.77714595512881146 1.5542919102576229 0 -1.2586407977289269 1 I I 0 1 2 forward I I I I #
face $-1 $125 $126 $30 $-1 $127 reversed single #
loop $-1 $-1 $128 $50 #
plane-surface $-1 0 0 -9.4636850026275408 0 0 1 1 0 0 forward_v I I I I #
coedge $-1 $129 $130 $131 $132 forward $51 $-1 #
face $-1 $133 $134 $31 $-1 $135 reversed single #
loop $-1 $-1 $136 $53 #
plane-surface $-1 0 0 -9.4636850026275408 0 0 1 1 0 0 forward_v I I I I #
coedge $-1 $137 $138 $139 $140 forward $54 $-1 #
face $-1 $141 $142 $32 $-1 $143 reversed single #
loop $-1 $-1 $144 $56 #
plane-surface $-1 -50.7242042298654 -3.5838249803029569 1.464078801522902 -0.51503808176128008 0 0.85716729658548041 0.85716729658548041 0 0.51503808176128008 forward_v I I I I #
coedge $-1 $145 $146 $147 $148 reversed $57 $-1 #
face $-1 $-1 $149 $33 $-1 $150 forward single #
loop $-1 $151 $152 $59 #
cone-surface $-1 -42.910499982019566 -5.629284720370098 3.5384534797530964 0.51503808176128008 0 -0.85716729658548041 0.4285836482927402 0 0.25751904088064004 1 I I -0.70710678118654746 0.70710678118654746 0.5 forward I I I I #
loop $-1 $-1 $153 $43 #
coedge $-1 $96 $96 $154 $155 reversed $60 $-1 #
face $-1 $-1 $156 $34 $-1 $157 forward single #
loop $-1 $158 $159 $62 #
cone-surface $-1 -42.910499982019566 -1.5383652402358159 3.5384534797530964 0.51503808176128008 0 -0.85716729658548041 0.4285836482927402 0 0.25751904088064004 1 I I -0.70710678118654746 0.70710678118654746 0.5 forward I I I I #
loop $-1 $-1 $160 $44 #
coedge $-1 $101 $101 $161 $162 reversed $63 $-1 #
face $-1 $163 $164 $35 $-1 $165 reversed single #
loop $-1 $-1 $166 $65 #
plane-surface $-1 -50.7242042298654 10.377316544184431 1.464078801522902 -0.51503808176128008 0 0.85716729658548041 0.85716729658548041 0 0.51503808176128008 forward_v I I I I #
coedge $-1 $167 $168 $169 $170 reversed $66 $-1 #
face $-1 $-1 $171 $36 $-1 $172 forward single #
loop $-1 $173 $174 $68 #
cone-surface $-1 -42.910499982019566 8.3318568041172938 3.5384534797530964 0.51503808176128008 0 -0.85716729658548041 0.4285836482927402 0 0.25751904088064004 1 I I -0.70710678118654746 0.70710678118654746 0.5 forward I I I I #
loop $-1 $-1 $175 $46 #
coedge $-1 $110 $110 $176 $177 reversed $69 $-1 #
face $-1 $-1 $178 $37 $-1 $179 forward single #
loop $-1 $180 $181 $71 #
cone-surface $-1 -42.910499982019566 12.422776284251576 3.5384534797530964 0.51503808176128008 0 -0.85716729658548041 0.4285836482927402 0 0.25751904088064004 1 I I -0.70710678118654746 0.70710678118654746 0.5 forward I I I I #
loop $-1 $-1 $182 $47 #
coedge $-1 $115 $115 $183 $184 reversed $72 $-1 #
face $-1 $185 $186 $38 $-1 $187 reversed single #
loop $-1 $-1 $188 $74 #
plane-surface $-1 -28.116016058869903 17.210268077504779 67.993354243280436 0.62932039886446345 0 0.77714595512881146 0.77714595512881146 0 -0.62932039886446345 forward_v I I I I #
coedge $-1 $189 $190 $191 $192 reversed $75 $-1 #
face $-1 $-1 $193 $39 $-1 $194 forward single #
loop $-1 $195 $196 $77 #
cone-surface $-1 43.687225371686687 17.210268077504779 2.1685572011395795 -0.62932039886446345 0 -0.77714595512881146 0.77714595512881146 0 -0.62932039886446345 1 I I -0.70710678118654768 0.70710678118654735 1 forward I I I I #
loop $-1 $-1 $197 $49 #
coedge $-1 $124 $124 $198 $199 reversed $78 $-1 #
face $-1 $200 $201 $30 $-1 $202 reversed single #
loop $-1 $-1 $203 $80 #
plane-surface $-1 0 -22.693922592529191 0 0 1 0 0 0 1 forward_v I I I I #
coedge $-1 $204 $205 $206 $207 forward $81 $-1 #
coedge $-1 $208 $83 $209 $210 forward $51 $-1 #
coedge $-1 $83 $208 $211 $212 forward $51 $-1 #
coedge $-1 $213 $214 $83 $132 reversed $215 $-1 #
edge $-1 $216 -22.693922592529191 $217 22.693922592529191 $131 $218 forward 7 unknown #
face $-1 $219 $220 $31 $-1 $221 forward single #
loop $-1 $-1 $222 $84 #
plane-surface $-1 50.724204229865414 0 0 -1 0 0 0 0 1 forward_v I I I I #
coedge $-1 $223 $224 $225 $226 forward $85 $-1 #
coedge $-1 $225 $87 $222 $227 reversed $54 $-1 #
coedge $-1 $87 $225 $228 $229 reversed $54 $-1 #
coedge $-1 $230 $231 $87 $140 reversed $220 $-1 #
edge $-1 $232 -50.724204229865414 $233 50.724204229865414 $139 $234 forward 7 unknown #
face $-1 $235 $236 $32 $-1 $237 forward single #
loop $-1 $-1 $238 $88 #
plane-surface $-1 -102.97399792069999 1.1889144131870406 88.42233682384996 0 -1 0 0.51503808176128008 0 -0.85716729658548041 forward_v I I I I #
coedge $-1 $239 $240 $241 $242 reversed $89 $-1 #
coedge $-1 $146 $91 $243 $244 reversed $57 $-1 #
coedge $-1 $91 $145 $239 $245 reversed $57 $-1 #
coedge $-1 $241 $246 $91 $148 forward $236 $-1 #
edge $-1 $247 0.76279473048457902 $248 14.07637495682507 $147 $249 forward 7 unknown #
loop $-1 $-1 $154 $92 #
plane-surface $-1 -50.7242042298654 -3.5838249803029569 1.464078801522902 -0.51503808176128008 0 0.85716729658548041 0.85716729658548041 0 0.51503808176128008 forward_v I I I I #
loop $-1 $-1 $250 $59 #
coedge $-1 $152 $152 $153 $251 reversed $93 $-1 #
coedge $-1 $153 $153 $152 $251 forward $95 $-1 #
coedge $-1 $154 $154 $96 $155 forward $149 $-1 #
edge $-1 $252 0 $252 6.2831853071796004 $154 $253 forward 7 unknown #
loop $-1 $-1 $161 $97 #
plane-surface $-1 -50.7242042298654 -3.5838249803029569 1.464078801522902 -0.51503808176128008 0 0.85716729658548041 0.85716729658548041 0 0.51503808176128008 forward_v I I I I #
loop $-1 $-1 $254 $62 #
coedge $-1 $159 $159 $160 $255 reversed $98 $-1 #
coedge $-1 $160 $160 $159 $255 forward $100 $-1 #
coedge $-1 $161 $161 $101 $162 forward $156 $-1 #
edge $-1 $256 0 $256 6.2831853071796004 $161 $257 forward 7 unknown #
face $-1 $258 $259 $35 $-1 $260 forward single #
loop $-1 $-1 $261 $102 #
plane-surface $-1 -102.97399792069999 15.150055937674429 88.42233682384996 0 -1 0 0.51503808176128008 0 -0.85716729658548041 forward_v I I I I #
coedge $-1 $262 $263 $264 $265 reversed $103 $-1 #
coedge $-1 $168 $105 $266 $267 reversed $66 $-1 #
coedge $-1 $105 $167 $262 $268 reversed $66 $-1 #
coedge $-1 $264 $269 $105 $170 forward $259 $-1 #
edge $-1 $270 0.76279473048457902 $271 14.07637495682507 $169 $272 forward 7 unknown #
loop $-1 $-1 $176 $106 #
plane-surface $-1 -50.7242042298654 10.377316544184431 1.464078801522902 -0.51503808176128008 0 0.85716729658548041 0.85716729658548041 0 0.51503808176128008 forward_v I I I I #
loop $-1 $-1 $273 $68 #
coedge $-1 $174 $174 $175 $274 reversed $107 $-1 #
coedge $-1 $175 $175 $174 $274 forward $109 $-1 #
coedge $-1 $176 $176 $110 $177 forward $171 $-1 #
edge $-1 $275 0 $275 6.2831853071796004 $176 $276 forward 7 unknown #
loop $-1 $-1 $183 $111 #
plane-surface $-1 -50.7242042298654 10.377316544184431 1.464078801522902 -0.51503808176128008 0 0.85716729658548041 0.85716729658548041 0 0.51503808176128008 forward_v I I I I #
loop $-1 $-1 $277 $71 #
coedge $-1 $181 $181 $182 $278 reversed $112 $-1 #
coedge $-1 $182 $182 $181 $278 forward $114 $-1 #
coedge $-1 $183 $183 $115 $184 forward $178 $-1 #
edge $-1 $279 0 $279 6.2831853071796004 $183 $280 forward 7 unknown #
face $-1 $281 $282 $38 $-1 $283 forward single #
loop $-1 $-1 $284 $116 #
plane-surface $-1 0 22.693922592529191 0 0 -1 0 0 0 -1 forward_v I I I I #
coedge $-1 $285 $286 $287 $288 reversed $117 $-1 #
coedge $-1 $190 $119 $289 $290 reversed $75 $-1 #
coedge $-1 $119 $189 $285 $291 reversed $75 $-1 #
coedge $-1 $287 $292 $119 $192 forward $293 $-1 #
edge $-1 $294 63.95310226338033 $295 69.266985898770258 $191 $296 forward 7 unknown #
loop $-1 $-1 $198 $120 #
plane-surface $-1 -28.116016058869903 17.210268077504779 67.993354243280436 0.62932039886446345 0 0.77714595512881146 0.77714595512881146 0 -0.62932039886446345 forward_v I I I I #
loop $-1 $-1 $297 $77 #
coedge $-1 $196 $196 $197 $298 reversed $121 $-1 #
coedge $-1 $197 $197 $196 $298 forward $123 $-1 #
coedge $-1 $198 $198 $124 $199 forward $193 $-1 #
edge $-1 $299 0 $299 6.2831853071796004 $198 $300 forward 7 unknown #
face $-1 $301 $302 $30 $-1 $303 reversed single #
loop $-1 $-1 $304 $125 #
plane-surface $-1 -50.724204229865414 0 0 1 0 0 0 0 -1 forward_v I I I I #
coedge $-1 $211 $305 $213 $306 reversed $126 $-1 #
coedge $-1 $307 $128 $305 $308 forward $81 $-1 #
coedge $-1 $128 $307 $309 $310 forward $81 $-1 #
coedge $-1 $214 $213 $128 $207 reversed $215 $-1 #
edge $-1 $311 -22.693922592529191 $312 22.693922592529191 $206 $313 forward 7 unknown #
coedge $-1 $130 $129 $314 $315 forward $51 $-1 #
coedge $-1 $316 $317 $129 $210 reversed $302 $-1 #
edge $-1 $217 -50.724204229865414 $318 50.724204229865414 $209 $319 forward 7 unknown #
coedge $-1 $320 $203 $130 $212 reversed $126 $-1 #
edge $-1 $321 -50.724204229865414 $216 50.724204229865414 $211 $322 forward 7 unknown #
coedge $-1 $206 $131 $203 $306 forward $215 $-1 #
coedge $-1 $131 $206 $316 $323 reversed $215 $-1 #
loop $-1 $-1 $213 $301 #
vertex $-1 $132 $324 #
vertex $-1 $132 $325 #
straight-curve $-1 50.724204229865414 0 9.4636850026275408 0 1 0 I I #
face $-1 $326 $327 $31 $-1 $328 reversed single #
loop $-1 $-1 $231 $133 #
plane-surface $-1 0 -26.090668374469928 -6.4636850026275408 0 0 1 1 0 0 forward_v I I I I #
coedge $-1 $329 $330 $137 $227 forward $134 $-1 #
coedge $-1 $331 $136 $330 $332 forward $85 $-1 #
coedge $-1 $136 $331 $333 $334 forward $85 $-1 #
coedge $-1 $138 $137 $136 $226 reversed $54 $-1 #
edge $-1 $335 -50.724204229865414 $336 50.724204229865414 $136 $337 forward 7 unknown #
edge $-1 $336 -9.4636850026275408 $233 -6.4636850026275408 $222 $338 forward 7 unknown #
coedge $-1 $333 $339 $138 $229 forward $340 $-1 #
edge $-1 $232 6.4636850026275408 $335 9.4636850026275408 $228 $341 forward 7 unknown #
coedge $-1 $342 $139 $339 $343 forward $220 $-1 #
coedge $-1 $139 $342 $329 $344 forward $220 $-1 #
vertex $-1 $229 $345 #
vertex $-1 $344 $346 #
straight-curve $-1 0 -22.693922592529191 -6.4636850026275408 1 0 0 I I #
face $-1 $-1 $347 $32 $-1 $348 reversed single #
loop $-1 $-1 $147 $141 #
plane-surface $-1 0 0 9.4636850026275408 0 0 1 1 0 0 forward_v I I I I #
coedge $-1 $349 $350 $351 $352 reversed $142 $-1 #
coedge $-1 $353 $144 $146 $245 forward $89 $-1 #
coedge $-1 $144 $353 $349 $354 forward $89 $-1 #
coedge $-1 $351 $147 $144 $242 forward $236 $-1 #
edge $-1 $248 -6.564651883641476 $355 2.9808269033385191 $241 $356 forward 7 unknown #
coedge $-1 $357 $358 $145 $244 forward $347 $-1 #
edge $-1 $359 -42.747089610402085 $247 -34.747483409297438 $243 $360 forward 7 unknown #
edge $-1 $248 -15.532067403148748 $359 1.6526814159067847e-014 $146 $361 forward 7 unknown #
coedge $-1 $147 $351 $357 $362 forward $236 $-1 #
vertex $-1 $244 $363 #
vertex $-1 $148 $364 #
straight-curve $-1 -51.486998960349993 -8.3565643737929545 9.4636850026275425 1 0 0 I I #
coedge $-1 $250 $250 $-1 $365 reversed $151 $-1 #
edge $-1 $366 0 $366 6.2831853071796004 $152 $367 forward 7 unknown #
vertex $-1 $155 $368 #
ellipse-curve $-1 -44.067414116695183 -5.629284720370098 5.463881902075209 -0.51503808176128008 0 0.85716729658548041 0.85716729658548041 0 0.51503808176128008 1 I I #
coedge $-1 $254 $254 $-1 $369 reversed $158 $-1 #
edge $-1 $370 0 $370 6.2831853071796004 $159 $371 forward 7 unknown #
vertex $-1 $162 $372 #
ellipse-curve $-1 -44.067414116695183 -1.5383652402358159 5.463881902075209 -0.51503808176128008 0 0.85716729658548041 0.85716729658548041 0 0.51503808176128008 1 I I #
face $-1 $-1 $373 $35 $-1 $374 reversed single #
loop $-1 $-1 $169 $163 #
plane-surface $-1 0 0 9.4636850026275408 0 0 1 1 0 0 forward_v I I I I #
coedge $-1 $375 $376 $377 $378 reversed $164 $-1 #
coedge $-1 $379 $166 $168 $268 forward $103 $-1 #
coedge $-1 $166 $379 $375 $380 forward $103 $-1 #
coedge $-1 $377 $169 $166 $265 forward $259 $-1 #
edge $-1 $271 0.4159188786022181 $381 9.9613976655822132 $264 $382 forward 7 unknown #
coedge $-1 $383 $384 $167 $267 forward $373 $-1 #
edge $-1 $385 -42.747089610402085 $270 -34.747483409297438 $266 $386 forward 7 unknown #
edge $-1 $271 -15.532067403148748 $385 1.6526814159067847e-014 $168 $387 forward 7 unknown #
coedge $-1 $169 $377 $383 $388 forward $259 $-1 #
vertex $-1 $170 $389 #
vertex $-1 $170 $390 #
straight-curve $-1 -51.486998960349993 5.6045771506944337 9.4636850026275425 1 0 0 I I #
coedge $-1 $273 $273 $-1 $391 reversed $173 $-1 #
edge $-1 $392 0 $392 6.2831853071796004 $174 $393 forward 7 unknown #
vertex $-1 $177 $394 #
ellipse-curve $-1 -44.067414116695183 8.3318568041172938 5.463881902075209 -0.51503808176128008 0 0.85716729658548041 0.85716729658548041 0 0.51503808176128008 1 I I #
coedge $-1 $277 $277 $-1 $395 reversed $180 $-1 #
edge $-1 $396 0 $396 6.2831853071796004 $181 $397 forward 7 unknown #
vertex $-1 $184 $398 #
ellipse-curve $-1 -44.067414116695183 12.422776284251576 5.463881902075209 -0.51503808176128008 0 0.85716729658548041 0.85716729658548041 0 0.51503808176128008 1 I I #
face $-1 $-1 $293 $38 $-1 $399 reversed single #
loop $-1 $-1 $400 $185 #
plane-surface $-1 0 0 9.4636850026275408 0 0 1 1 0 0 forward_v I I I I #
coedge $-1 $401 $402 $286 $403 forward $186 $-1 #
coedge $-1 $404 $188 $190 $291 forward $117 $-1 #
coedge $-1 $188 $404 $284 $403 reversed $117 $-1 #
coedge $-1 $405 $191 $188 $288 forward $293 $-1 #
edge $-1 $295 3.1214795237279773 $406 14.088788553776801 $287 $407 forward 7 unknown #
coedge $-1 $408 $400 $189 $290 forward $282 $-1 #
edge $-1 $409 26.298336164697087 $294 32.860435821278955 $289 $410 forward 7 unknown #
edge $-1 $295 -101.44840845973083 $409 -93.00456388552314 $190 $411 forward 7 unknown #
coedge $-1 $191 $405 $408 $412 reversed $293 $-1 #
loop $-1 $-1 $287 $281 #
vertex $-1 $412 $413 #
vertex $-1 $192 $414 #
straight-curve $-1 50.724204229865414 11.726613562480367 73.416787266007873 0 0 -1 I I #
coedge $-1 $297 $297 $-1 $415 reversed $195 $-1 #
edge $-1 $416 0 $416 6.2831853071796004 $196 $417 forward 7 unknown #
vertex $-1 $199 $418 #
ellipse-curve $-1 47.443154401574475 17.210268077504779 6.806743184932583 0.62932039886446345 0 0.77714595512881146 1.5542919102576229 0 -1.2586407977289269 1 I I #
face $-1 $-1 $215 $30 $-1 $419 reversed single #
loop $-1 $-1 $316 $200 #
plane-surface $-1 0 22.693922592529191 0 0 -1 0 0 0 -1 forward_v I I I I #
coedge $-1 $420 $314 $317 $421 forward $201 $-1 #
coedge $-1 $203 $320 $204 $308 reversed $126 $-1 #
edge $-1 $216 -9.4636850026275408 $312 9.4636850026275408 $213 $422 forward 7 unknown #
coedge $-1 $205 $204 $420 $423 forward $81 $-1 #
edge $-1 $312 -50.724204229865414 $424 50.724204229865414 $305 $425 forward 7 unknown #
coedge $-1 $317 $316 $205 $310 reversed $302 $-1 #
edge $-1 $426 -50.724204229865414 $311 50.724204229865414 $309 $427 forward 7 unknown #
vertex $-1 $207 $428 #
vertex $-1 $306 $429 #
straight-curve $-1 50.724204229865414 0 -9.4636850026275408 0 -1 0 I I #
coedge $-1 $304 $430 $208 $315 reversed $201 $-1 #
edge $-1 $318 -22.693922592529191 $321 22.693922592529191 $314 $431 forward 7 unknown #
coedge $-1 $309 $209 $214 $323 forward $302 $-1 #
coedge $-1 $209 $309 $304 $421 reversed $302 $-1 #
vertex $-1 $210 $432 #
straight-curve $-1 0 22.693922592529191 9.4636850026275408 -1 0 0 I I #
coedge $-1 $305 $211 $430 $433 forward $126 $-1 #
vertex $-1 $315 $434 #
straight-curve $-1 0 -22.693922592529191 9.4636850026275408 1 0 0 I I #
edge $-1 $217 -9.4636850026275408 $311 9.4636850026275408 $214 $435 forward 7 unknown #
point $-1 50.724204229865414 -22.693922592529191 9.4636850026275408 #
point $-1 50.724204229865414 22.693922592529191 9.4636850026275408 #
face $-1 $-1 $340 $31 $-1 $436 reversed single #
loop $-1 $-1 $437 $219 #
plane-surface $-1 0 -29.487414156410665 -7.9636850026275408 0 1 0 0 0 1 forward_v I I I I #
coedge $-1 $438 $222 $231 $344 reversed $134 $-1 #
coedge $-1 $222 $438 $223 $332 reversed $134 $-1 #
coedge $-1 $224 $223 $439 $440 forward $85 $-1 #
edge $-1 $336 22.693922592529191 $441 29.487414156410665 $330 $442 forward 7 unknown #
coedge $-1 $443 $228 $224 $334 reversed $340 $-1 #
edge $-1 $444 -29.487414156410665 $335 -22.693922592529191 $333 $445 forward 7 unknown #
vertex $-1 $229 $446 #
vertex $-1 $332 $447 #
straight-curve $-1 0 -22.693922592529191 -9.4636850026275408 1 0 0 I I #
straight-curve $-1 50.724204229865414 -22.693922592529191 0 0 0 1 I I #
coedge $-1 $228 $443 $230 $343 reversed $340 $-1 #
loop $-1 $-1 $228 $326 #
straight-curve $-1 -50.724204229865414 -22.693922592529191 0 0 0 -1 I I #
coedge $-1 $231 $230 $448 $449 forward $220 $-1 #
edge $-1 $232 -3.3967457819407372 $450 3.3967457819407372 $339 $451 forward 7 unknown #
edge $-1 $452 -3.3967457819407372 $233 3.3967457819407372 $329 $453 forward 7 unknown #
point $-1 -50.724204229865414 -22.693922592529191 -6.4636850026275408 #
point $-1 50.724204229865414 -22.693922592529191 -6.4636850026275408 #
loop $-1 $-1 $243 $235 #
plane-surface $-1 -50.724204229865414 0 0 1 0 0 0 0 -1 forward_v I I I I #
coedge $-1 $350 $238 $240 $354 reversed $142 $-1 #
coedge $-1 $238 $349 $454 $455 reversed $142 $-1 #
coedge $-1 $246 $241 $238 $352 forward $236 $-1 #
edge $-1 $355 -14.07637495682507 $456 -0.76279473048457902 $351 $457 forward 7 unknown #
coedge $-1 $240 $239 $358 $458 reversed $89 $-1 #
edge $-1 $459 -1.6526814159067847e-014 $355 15.532067403148748 $349 $460 forward 7 unknown #
vertex $-1 $242 $461 #
straight-curve $-1 -37.410624003524916 -1.7919124901514785 9.4636850026275408 0 1 0 I I #
coedge $-1 $454 $243 $246 $362 reversed $347 $-1 #
coedge $-1 $243 $454 $353 $458 forward $347 $-1 #
vertex $-1 $244 $462 #
straight-curve $-1 -50.724204229865414 -8.3565643737929545 44.21116841192498 0 0 1 I I #
straight-curve $-1 -50.7242042298654 -8.3565643737929545 1.464078801522902 -0.85716729658548041 0 -0.51503808176128008 I I #
edge $-1 $456 -1.1889144131870406 $247 8.3565643737929545 $357 $463 forward 7 unknown #
point $-1 -50.724204229865414 -8.3565643737929545 9.4636850026275408 #
point $-1 -37.410624003524923 -8.3565643737929545 9.4636850026275408 #
edge $-1 $464 1 $464 0 $250 $-1 forward 7 unknown #
vertex $-1 $251 $465 #
ellipse-curve $-1 -43.168019022900204 -5.629284720370098 3.9670371280458365 -0.51503808176128008 0 0.85716729658548041 0.85716729658548041 0 0.51503808176128008 1 I I #
point $-1 -43.210246820109717 -5.629284720370098 5.9789199838365121 #
edge $-1 $466 1 $466 0 $254 $-1 forward 7 unknown #
vertex $-1 $255 $467 #
ellipse-curve $-1 -43.168019022900204 -1.5383652402358159 3.9670371280458365 -0.51503808176128008 0 0.85716729658548041 0.85716729658548041 0 0.51503808176128008 1 I I #
point $-1 -43.210246820109717 -1.5383652402358159 5.9789199838365121 #
loop $-1 $-1 $266 $258 #
plane-surface $-1 -50.724204229865414 0 0 1 0 0 0 0 -1 forward_v I I I I #
coedge $-1 $376 $261 $263 $380 reversed $164 $-1 #
coedge $-1 $261 $375 $468 $469 reversed $164 $-1 #
coedge $-1 $269 $264 $261 $378 forward $259 $-1 #
edge $-1 $381 -14.07637495682507 $470 -0.76279473048457902 $377 $471 forward 7 unknown #
coedge $-1 $263 $262 $384 $472 reversed $103 $-1 #
edge $-1 $473 -1.6526814159067847e-014 $381 15.532067403148748 $375 $474 forward 7 unknown #
vertex $-1 $265 $475 #
straight-curve $-1 -37.410624003524916 5.1886582720922156 9.4636850026275408 0 1 0 I I #
coedge $-1 $468 $266 $269 $388 reversed $373 $-1 #
coedge $-1 $266 $468 $379 $472 forward $373 $-1 #
vertex $-1 $267 $476 #
straight-curve $-1 -50.724204229865414 5.6045771506944337 44.21116841192498 0 0 1 I I #
straight-curve $-1 -50.7242042298654 5.6045771506944337 1.464078801522902 -0.85716729658548041 0 -0.51503808176128008 I I #
edge $-1 $470 -15.150055937674429 $270 -5.6045771506944337 $383 $477 forward 7 unknown #
point $-1 -50.724204229865414 5.6045771506944337 9.4636850026275408 #
point $-1 -37.410624003524923 5.6045771506944337 9.4636850026275408 #
edge $-1 $478 1 $478 0 $273 $-1 forward 7 unknown #
vertex $-1 $274 $479 #
ellipse-curve $-1 -43.168019022900204 8.3318568041172938 3.9670371280458365 -0.51503808176128008 0 0.85716729658548041 0.85716729658548041 0 0.51503808176128008 1 I I #
point $-1 -43.210246820109717 8.3318568041172938 5.9789199838365121 #
edge $-1 $480 1 $480 0 $277 $-1 forward 7 unknown #
vertex $-1 $278 $481 #
ellipse-curve $-1 -43.168019022900204 12.422776284251576 3.9670371280458365 -0.51503808176128008 0 0.85716729658548041 0.85716729658548041 0 0.51503808176128008 1 I I #
point $-1 -43.210246820109717 12.422776284251576 5.9789199838365121 #
plane-surface $-1 50.724204229865414 0 0 -1 0 0 0 0 1 forward_v I I I I #
coedge $-1 $289 $482 $404 $483 forward $282 $-1 #
coedge $-1 $402 $284 $482 $484 reversed $186 $-1 #
coedge $-1 $284 $401 $405 $485 forward $186 $-1 #
edge $-1 $406 -69.128481976230105 $486 -60.68463740202241 $284 $487 forward 7 unknown #
coedge $-1 $286 $285 $400 $483 reversed $117 $-1 #
coedge $-1 $292 $287 $402 $485 reversed $293 $-1 #
vertex $-1 $288 $488 #
straight-curve $-1 50.724204229865414 8.6051340387523894 4.1498013672376253 0 1 0 I I #
coedge $-1 $482 $289 $292 $412 forward $282 $-1 #
vertex $-1 $290 $489 #
straight-curve $-1 17.863768408586456 11.726613562480367 9.4636850026275425 1 0 0 I I #
straight-curve $-1 -28.116016058869903 11.726613562480367 67.993354243280436 -0.77714595512881146 0 0.62932039886446345 I I #
edge $-1 $294 11.726613562480367 $490 22.693922592529191 $292 $491 forward 7 unknown #
point $-1 50.724204229865414 11.726613562480367 9.4636850026275408 #
point $-1 50.724204229865407 11.726613562480367 4.1498013672376217 #
edge $-1 $492 1 $492 0 $297 $-1 forward 7 unknown #
vertex $-1 $298 $493 #
ellipse-curve $-1 44.316545770551151 17.210268077504779 2.9457031562683906 0.62932039886446345 0 0.77714595512881146 1.5542919102576229 0 -1.2586407977289269 1 I I #
point $-1 48.997446311832107 17.210268077504779 5.5481023872036612 #
plane-surface $-1 50.724204229865414 0 0 -1 0 0 0 0 1 forward_v I I I I #
coedge $-1 $430 $304 $307 $423 reversed $201 $-1 #
edge $-1 $318 -9.4636850026275408 $426 9.4636850026275408 $317 $494 forward 7 unknown #
straight-curve $-1 50.724204229865414 -22.693922592529191 0 0 0 -1 I I #
edge $-1 $424 -22.693922592529191 $426 22.693922592529191 $420 $495 forward 7 unknown #
vertex $-1 $423 $496 #
straight-curve $-1 0 -22.693922592529191 -9.4636850026275408 -1 0 0 I I #
vertex $-1 $310 $497 #
straight-curve $-1 0 22.693922592529191 -9.4636850026275408 1 0 0 I I #
point $-1 50.724204229865414 22.693922592529191 -9.4636850026275408 #
point $-1 50.724204229865414 -22.693922592529191 -9.4636850026275408 #
coedge $-1 $314 $420 $320 $433 reversed $201 $-1 #
straight-curve $-1 -50.724204229865414 0 9.4636850026275408 0 -1 0 I I #
point $-1 -50.724204229865414 22.693922592529191 9.4636850026275408 #
edge $-1 $321 -9.4636850026275408 $424 9.4636850026275408 $430 $498 forward 7 unknown #
point $-1 -50.724204229865414 -22.693922592529191 9.4636850026275408 #
straight-curve $-1 50.724204229865414 22.693922592529191 0 0 0 -1 I I #
plane-surface $-1 -50.724204229865414 0 0 1 0 0 0 0 -1 forward_v I I I I #
coedge $-1 $439 $448 $443 $499 forward $327 $-1 #
coedge $-1 $330 $329 $500 $501 forward $134 $-1 #
coedge $-1 $500 $437 $331 $440 reversed $327 $-1 #
edge $-1 $441 -50.724204229865414 $444 50.724204229865414 $439 $502 forward 7 unknown #
vertex $-1 $501 $503 #
straight-curve $-1 50.724204229865414 0 -9.4636850026275408 0 -1 0 I I #
coedge $-1 $339 $333 $437 $499 reversed $340 $-1 #
vertex $-1 $334 $504 #
straight-curve $-1 -50.724204229865414 0 -9.4636850026275408 0 1 0 I I #
point $-1 -50.724204229865414 -22.693922592529191 -9.4636850026275408 #
point $-1 50.724204229865414 -22.693922592529191 -9.4636850026275408 #
coedge $-1 $437 $500 $342 $449 reversed $327 $-1 #
edge $-1 $450 -50.724204229865414 $452 50.724204229865414 $448 $505 forward 7 unknown #
vertex $-1 $343 $506 #
straight-curve $-1 -50.724204229865414 -26.090668374469928 -6.4636850026275408 0 -1 0 I I #
vertex $-1 $344 $507 #
straight-curve $-1 50.724204229865414 -26.090668374469928 -6.4636850026275408 0 1 0 I I #
coedge $-1 $358 $357 $350 $455 forward $347 $-1 #
edge $-1 $456 34.747483409297438 $459 42.747089610402085 $454 $508 forward 7 unknown #
vertex $-1 $362 $509 #
straight-curve $-1 -51.486998960349993 1.1889144131870406 9.4636850026275425 -1 0 0 I I #
edge $-1 $459 -2.9808269033385191 $359 6.564651883641476 $358 $510 forward 7 unknown #
vertex $-1 $458 $511 #
straight-curve $-1 -50.7242042298654 1.1889144131870406 1.464078801522902 0.85716729658548041 0 0.51503808176128008 I I #
point $-1 -37.410624003524923 1.1889144131870406 9.4636850026275408 #
point $-1 -50.724204229865414 -8.3565643737929545 1.4640788015228936 #
straight-curve $-1 -50.724204229865414 0 9.4636850026275408 0 -1 0 I I #
vertex $-1 $365 $512 #
point $-1 -42.310851726314723 -5.629284720370098 4.4820752098071166 #
vertex $-1 $369 $513 #
point $-1 -42.310851726314723 -1.5383652402358159 4.4820752098071166 #
coedge $-1 $384 $383 $376 $469 forward $373 $-1 #
edge $-1 $470 34.747483409297438 $473 42.747089610402085 $468 $514 forward 7 unknown #
vertex $-1 $388 $515 #
straight-curve $-1 -51.486998960349993 15.150055937674429 9.4636850026275425 -1 0 0 I I #
edge $-1 $473 -9.9613976655822132 $385 -0.4159188786022181 $384 $516 forward 7 unknown #
vertex $-1 $472 $517 #
straight-curve $-1 -50.7242042298654 15.150055937674429 1.464078801522902 0.85716729658548041 0 0.51503808176128008 I I #
point $-1 -37.410624003524923 15.150055937674429 9.4636850026275408 #
point $-1 -50.724204229865414 5.6045771506944337 1.4640788015228936 #
straight-curve $-1 -50.724204229865414 0 9.4636850026275408 0 -1 0 I I #
vertex $-1 $391 $518 #
point $-1 -42.310851726314723 8.3318568041172938 4.4820752098071166 #
vertex $-1 $395 $519 #
point $-1 -42.310851726314723 12.422776284251576 4.4820752098071166 #
coedge $-1 $400 $408 $401 $484 forward $282 $-1 #
edge $-1 $486 -14.088788553776801 $409 -3.1214795237279773 $400 $520 forward 7 unknown #
edge $-1 $490 -50.724204229865414 $486 -44.162104573283543 $401 $521 forward 7 unknown #
edge $-1 $490 -9.4636850026275408 $406 -4.1498013672376262 $405 $522 forward 7 unknown #
vertex $-1 $483 $523 #
straight-curve $-1 -2.9987159221567605 22.693922592529191 47.653765217413621 -0.77714595512881146 0 0.62932039886446345 I I #
point $-1 50.724204229865414 22.693922592529191 4.1498013672376262 #
point $-1 44.162104573283543 11.726613562480367 9.4636850026275425 #
vertex $-1 $412 $524 #
straight-curve $-1 50.724204229865414 0 9.4636850026275408 0 1 0 I I #
vertex $-1 $415 $525 #
point $-1 45.870837680808776 17.210268077504779 1.6870623585394637 #
straight-curve $-1 -50.724204229865414 22.693922592529191 0 0 0 -1 I I #
straight-curve $-1 -50.724204229865414 0 -9.4636850026275408 0 1 0 I I #
point $-1 -50.724204229865414 -22.693922592529191 -9.4636850026275408 #
point $-1 -50.724204229865414 22.693922592529191 -9.4636850026275408 #
straight-curve $-1 -50.724204229865414 -22.693922592529191 0 0 0 -1 I I #
edge $-1 $450 -1.5 $444 1.5 $443 $526 forward 7 unknown #
coedge $-1 $448 $439 $438 $501 reversed $327 $-1 #
edge $-1 $452 -1.5 $441 1.5 $438 $527 forward 7 unknown #
straight-curve $-1 0 -29.487414156410665 -9.4636850026275408 -1 0 0 I I #
point $-1 50.724204229865414 -29.487414156410665 -9.4636850026275408 #
point $-1 -50.724204229865414 -29.487414156410665 -9.4636850026275408 #
straight-curve $-1 0 -29.487414156410665 -6.4636850026275408 1 0 0 I I #
point $-1 -50.724204229865414 -29.487414156410665 -6.4636850026275408 #
point $-1 50.724204229865414 -29.487414156410665 -6.4636850026275408 #
straight-curve $-1 -50.724204229865414 1.1889144131870406 44.21116841192498 0 0 -1 I I #
point $-1 -50.724204229865414 1.1889144131870406 9.4636850026275408 #
straight-curve $-1 -50.724204229865414 -1.7919124901514785 1.4640788015228936 0 -1 0 I I #
point $-1 -50.724204229865414 1.1889144131870406 1.4640788015228936 #
point $-1 -42.652980941138928 -5.629284720370098 3.1098698314603563 #
point $-1 -42.652980941138928 -1.5383652402358159 3.1098698314603563 #
straight-curve $-1 -50.724204229865414 15.150055937674429 44.21116841192498 0 0 -1 I I #
point $-1 -50.724204229865414 15.150055937674429 9.4636850026275408 #
straight-curve $-1 -50.724204229865414 5.1886582720922156 1.4640788015228936 0 -1 0 I I #
point $-1 -50.724204229865414 15.150055937674429 1.4640788015228936 #
point $-1 -42.652980941138928 8.3318568041172938 3.1098698314603563 #
point $-1 -42.652980941138928 12.422776284251576 3.1098698314603563 #
straight-curve $-1 44.162104573283543 8.6051340387523894 9.4636850026275425 0 -1 0 I I #
straight-curve $-1 0 22.693922592529191 9.4636850026275408 -1 0 0 I I #
straight-curve $-1 50.724204229865414 22.693922592529191 0 0 0 -1 I I #
point $-1 44.162104573283543 22.693922592529191 9.4636850026275425 #
point $-1 50.724204229865414 22.693922592529191 9.4636850026275408 #
point $-1 43.057904972822222 17.210268077504779 1.3914112460107684 #
straight-curve $-1 -50.724204229865414 -29.487414156410665 -7.9636850026275408 0 0 -1 I I #
straight-curve $-1 50.724204229865414 -29.487414156410665 -7.9636850026275408 0 0 -1 I I #
End-of-ACIS-data 