500 0 19 0           
7 Unknown 11 ACIS 5.0 NT 24 Thu Mar 25 20:13:22 1999 
-1 9.9999999999999995e-007 1e-010 
body $-1 $19 $-1 $20 #
body $-1 $21 $-1 $22 #
body $-1 $23 $-1 $24 #
body $-1 $25 $-1 $26 #
body $-1 $27 $-1 $28 #
body $-1 $29 $-1 $30 #
body $-1 $31 $-1 $32 #
body $-1 $33 $-1 $34 #
body $-1 $35 $-1 $36 #
body $-1 $37 $-1 $38 #
body $-1 $39 $-1 $40 #
body $-1 $41 $-1 $42 #
body $-1 $43 $-1 $44 #
body $-1 $45 $-1 $46 #
body $-1 $47 $-1 $48 #
body $-1 $49 $-1 $50 #
body $-1 $51 $-1 $52 #
body $-1 $53 $-1 $54 #
body $-1 $55 $-1 $56 #
lump $-1 $-1 $57 $0 #
transform $-1 1 0 0 0 1 0 0 0 1 78.93063142796106 47.725727753311688 10.20625910476336 1 rotate no_reflect no_shear #
lump $-1 $-1 $58 $1 #
transform $-1 1 0 0 0 1 0 0 0 1 78.93063142796106 47.725727753311688 10.20625910476336 1 rotate no_reflect no_shear #
lump $-1 $-1 $59 $2 #
transform $-1 1 0 0 0 1 0 0 0 1 78.93063142796106 47.725727753311688 10.20625910476336 1 rotate no_reflect no_shear #
lump $-1 $-1 $60 $3 #
transform $-1 1 0 0 0 1 0 0 0 1 78.93063142796106 47.725727753311688 10.20625910476336 1 rotate no_reflect no_shear #
lump $-1 $-1 $61 $4 #
transform $-1 1 0 0 0 1 0 0 0 1 78.93063142796106 47.725727753311688 10.20625910476336 1 rotate no_reflect no_shear #
lump $-1 $-1 $62 $5 #
transform $-1 1 0 0 0 1 0 0 0 1 78.93063142796106 47.725727753311688 10.20625910476336 1 rotate no_reflect no_shear #
lump $-1 $-1 $63 $6 #
transform $-1 1 0 0 0 1 0 0 0 1 78.93063142796106 47.725727753311688 10.20625910476336 1 rotate no_reflect no_shear #
lump $-1 $-1 $64 $7 #
transform $-1 1 0 0 0 1 0 0 0 1 78.93063142796106 47.725727753311688 10.20625910476336 1 rotate no_reflect no_shear #
lump $-1 $-1 $65 $8 #
transform $-1 1 0 0 0 1 0 0 0 1 78.93063142796106 47.725727753311688 10.20625910476336 1 rotate no_reflect no_shear #
lump $-1 $-1 $66 $9 #
transform $-1 1 0 0 0 1 0 0 0 1 78.93063142796106 47.725727753311688 10.20625910476336 1 rotate no_reflect no_shear #
lump $-1 $-1 $67 $10 #
transform $-1 1 0 0 0 1 0 0 0 1 78.93063142796106 47.725727753311688 10.20625910476336 1 rotate no_reflect no_shear #
lump $-1 $-1 $68 $11 #
transform $-1 1 0 0 0 1 0 0 0 1 78.93063142796106 47.725727753311688 10.20625910476336 1 rotate no_reflect no_shear #
lump $-1 $-1 $69 $12 #
transform $-1 1 0 0 0 1 0 0 0 1 78.93063142796106 47.725727753311688 10.20625910476336 1 rotate no_reflect no_shear #
lump $-1 $-1 $70 $13 #
transform $-1 1 0 0 0 1 0 0 0 1 78.93063142796106 47.725727753311688 10.20625910476336 1 rotate no_reflect no_shear #
lump $-1 $-1 $71 $14 #
transform $-1 1 0 0 0 1 0 0 0 1 78.93063142796106 47.725727753311688 10.20625910476336 1 rotate no_reflect no_shear #
lump $-1 $-1 $72 $15 #
transform $-1 1 0 0 0 1 0 0 0 1 78.93063142796106 47.725727753311688 10.20625910476336 1 rotate no_reflect no_shear #
lump $-1 $-1 $73 $16 #
transform $-1 1 0 0 0 1 0 0 0 1 78.93063142796106 47.725727753311688 10.20625910476336 1 rotate no_reflect no_shear #
lump $-1 $-1 $74 $17 #
transform $-1 1 0 0 0 1 0 0 0 1 78.93063142796106 47.725727753311688 10.20625910476336 1 rotate no_reflect no_shear #
lump $-1 $-1 $75 $18 #
transform $-1 1 0 0 0 1 0 0 0 1 78.93063142796106 47.725727753311688 10.20625910476336 1 rotate no_reflect no_shear #
shell $-1 $-1 $-1 $76 $-1 $19 #
shell $-1 $-1 $-1 $77 $-1 $21 #
shell $-1 $-1 $-1 $78 $-1 $23 #
shell $-1 $-1 $-1 $79 $-1 $25 #
shell $-1 $-1 $-1 $80 $-1 $27 #
shell $-1 $-1 $-1 $81 $-1 $29 #
shell $-1 $-1 $-1 $82 $-1 $31 #
shell $-1 $-1 $-1 $83 $-1 $33 #
shell $-1 $-1 $-1 $84 $-1 $35 #
shell $-1 $-1 $-1 $85 $-1 $37 #
shell $-1 $-1 $-1 $86 $-1 $39 #
shell $-1 $-1 $-1 $87 $-1 $41 #
shell $-1 $-1 $-1 $88 $-1 $43 #
shell $-1 $-1 $-1 $89 $-1 $45 #
shell $-1 $-1 $-1 $90 $-1 $47 #
shell $-1 $-1 $-1 $91 $-1 $49 #
shell $-1 $-1 $-1 $92 $-1 $51 #
shell $-1 $-1 $-1 $93 $-1 $53 #
shell $-1 $-1 $-1 $94 $-1 $55 #
face $-1 $95 $96 $57 $-1 $97 forward single #
face $-1 $98 $99 $58 $-1 $100 forward single #
face $-1 $101 $102 $59 $-1 $103 forward single #
face $-1 $104 $105 $60 $-1 $106 reversed single #
face $-1 $107 $108 $61 $-1 $109 forward single #
face $-1 $110 $111 $62 $-1 $112 forward single #
face $-1 $113 $114 $63 $-1 $115 forward single #
face $-1 $116 $117 $64 $-1 $118 reversed single #
face $-1 $119 $120 $65 $-1 $121 forward single #
face $-1 $122 $123 $66 $-1 $124 forward single #
face $-1 $125 $126 $67 $-1 $127 forward single #
face $-1 $128 $129 $68 $-1 $130 reversed single #
face $-1 $131 $132 $69 $-1 $133 forward single #
face $-1 $134 $135 $70 $-1 $136 forward single #
face $-1 $137 $138 $71 $-1 $139 forward single #
face $-1 $140 $141 $72 $-1 $142 reversed single #
face $-1 $143 $144 $73 $-1 $145 forward single #
face $-1 $146 $147 $74 $-1 $148 forward single #
face $-1 $149 $150 $75 $-1 $151 forward single #
face $-1 $152 $153 $57 $-1 $154 reversed single #
loop $-1 $-1 $155 $76 #
plane-surface $-1 0 0 10.20625910476336 0 0 1 1 0 0 forward_v I I I I #
face $-1 $156 $157 $58 $-1 $158 forward single #
loop $-1 $-1 $159 $77 #
plane-surface $-1 0 -47.725727753311688 0 0 1 0 0 0 1 forward_v I I I I #
face $-1 $160 $161 $59 $-1 $162 forward single #
loop $-1 $-1 $163 $78 #
plane-surface $-1 0 47.725727753311688 0 0 -1 0 0 0 -1 forward_v I I I I #
face $-1 $164 $165 $60 $-1 $166 reversed single #
loop $-1 $-1 $167 $79 #
plane-surface $-1 129.15085383923585 -22.553311729311091 219.14081157783161 0 -1 0 -0.84804810408105047 0 -0.52991925155115449 forward_v I I I I #
face $-1 $168 $169 $61 $-1 $170 forward single #
loop $-1 $171 $172 $80 #
cone-surface $-1 75.821820533113709 -31.906242020504077 5.6447422483541612 -0.84804810408105047 0 -0.52991925155115449 0.26495962577557725 0 -0.42402405204052523 1 I I 0 1 0.5 forward I I I I #
face $-1 $173 $174 $62 $-1 $175 forward single #
loop $-1 $176 $177 $81 #
cone-surface $-1 75.821820533113709 -28.398893161306706 5.6447422483541612 -0.84804810408105047 0 -0.52991925155115449 0.26495962577557725 0 -0.42402405204052523 1 I I 0 1 0.5 forward I I I I #
face $-1 $178 $179 $63 $-1 $180 forward single #
loop $-1 $181 $182 $82 #
cone-surface $-1 75.821820533113709 -24.891544302109335 5.6447422483541612 -0.84804810408105047 0 -0.52991925155115449 0.26495962577557725 0 -0.42402405204052523 1 I I 0 1 0.5 forward I I I I #
face $-1 $183 $184 $64 $-1 $185 reversed single #
loop $-1 $-1 $186 $83 #
plane-surface $-1 129.15085383923585 -3.3390504847016533 219.14081157783161 0 -1 0 -0.84804810408105047 0 -0.52991925155115449 forward_v I I I I #
face $-1 $187 $188 $65 $-1 $189 forward single #
loop $-1 $190 $191 $84 #
cone-surface $-1 75.821820533113709 -12.691980775894642 5.6447422483541612 -0.84804810408105047 0 -0.52991925155115449 0.26495962577557725 0 -0.42402405204052523 1 I I 0 1 0.5 forward I I I I #
face $-1 $192 $193 $66 $-1 $194 forward single #
loop $-1 $195 $196 $85 #
cone-surface $-1 75.821820533113709 -9.1846319166972705 5.6447422483541612 -0.84804810408105047 0 -0.52991925155115449 0.26495962577557725 0 -0.42402405204052523 1 I I 0 1 0.5 forward I I I I #
face $-1 $197 $198 $67 $-1 $199 forward single #
loop $-1 $200 $201 $86 #
cone-surface $-1 75.821820533113709 -5.6772830574998991 5.6447422483541612 -0.84804810408105047 0 -0.52991925155115449 0.26495962577557725 0 -0.42402405204052523 1 I I 0 1 0.5 forward I I I I #
face $-1 $202 $203 $68 $-1 $204 reversed single #
loop $-1 $-1 $205 $87 #
plane-surface $-1 129.15085383923585 15.875210759907779 219.14081157783161 0 -1 0 -0.84804810408105047 0 -0.52991925155115449 forward_v I I I I #
face $-1 $206 $207 $69 $-1 $208 forward single #
loop $-1 $209 $210 $88 #
cone-surface $-1 75.821820533113709 6.5222804687147971 5.6447422483541612 -0.84804810408105047 0 -0.52991925155115449 0.26495962577557725 0 -0.42402405204052523 1 I I 0 1 0.5 forward I I I I #
face $-1 $211 $212 $70 $-1 $213 forward single #
loop $-1 $214 $215 $89 #
cone-surface $-1 75.821820533113709 10.029629327912161 5.6447422483541612 -0.84804810408105047 0 -0.52991925155115449 0.26495962577557725 0 -0.42402405204052523 1 I I 0 1 0.5 forward I I I I #
face $-1 $216 $217 $71 $-1 $218 forward single #
loop $-1 $219 $220 $90 #
cone-surface $-1 75.821820533113709 13.53697818710954 5.6447422483541612 -0.84804810408105047 0 -0.52991925155115449 0.26495962577557725 0 -0.42402405204052523 1 I I 0 1 0.5 forward I I I I #
face $-1 $221 $222 $72 $-1 $223 reversed single #
loop $-1 $-1 $224 $91 #
plane-surface $-1 129.15085383923585 35.089472004517212 219.14081157783161 0 -1 0 -0.84804810408105047 0 -0.52991925155115449 forward_v I I I I #
face $-1 $225 $226 $73 $-1 $227 forward single #
loop $-1 $228 $229 $92 #
cone-surface $-1 75.821820533113709 25.736541713324229 5.6447422483541612 -0.84804810408105047 0 -0.52991925155115449 0.26495962577557725 0 -0.42402405204052523 1 I I 0 1 0.5 forward I I I I #
face $-1 $230 $231 $74 $-1 $232 forward single #
loop $-1 $233 $234 $93 #
cone-surface $-1 75.821820533113709 29.243890572521593 5.6447422483541612 -0.84804810408105047 0 -0.52991925155115449 0.26495962577557725 0 -0.42402405204052523 1 I I 0 1 0.5 forward I I I I #
face $-1 $235 $236 $75 $-1 $237 forward single #
loop $-1 $238 $239 $94 #
cone-surface $-1 75.821820533113709 32.751239431718972 5.6447422483541612 -0.84804810408105047 0 -0.52991925155115449 0.26495962577557725 0 -0.42402405204052523 1 I I 0 1 0.5 forward I I I I #
face $-1 $240 $241 $57 $-1 $242 reversed single #
loop $-1 $-1 $243 $95 #
plane-surface $-1 0 0 -10.20625910476336 0 0 1 1 0 0 forward_v I I I I #
coedge $-1 $244 $245 $246 $247 forward $96 $-1 #
face $-1 $248 $249 $58 $-1 $250 reversed single #
loop $-1 $-1 $251 $98 #
plane-surface $-1 0 0 10.20625910476336 0 0 1 1 0 0 forward_v I I I I #
coedge $-1 $252 $253 $254 $255 forward $99 $-1 #
face $-1 $256 $257 $59 $-1 $258 reversed single #
loop $-1 $-1 $259 $101 #
plane-surface $-1 0 0 10.20625910476336 0 0 1 1 0 0 forward_v I I I I #
coedge $-1 $260 $261 $262 $263 forward $102 $-1 #
face $-1 $264 $265 $60 $-1 $266 reversed single #
loop $-1 $-1 $267 $104 #
plane-surface $-1 -4.7230908335692448 -28.398893161306709 135.48708931630131 0.84804810408105047 0 0.52991925155115449 0.52991925155115449 0 -0.84804810408105047 forward_v I I I I #
coedge $-1 $268 $269 $270 $271 reversed $105 $-1 #
face $-1 $-1 $272 $61 $-1 $273 forward single #
loop $-1 $274 $275 $107 #
cone-surface $-1 75.185784455052925 -31.906242020504077 5.2473028096907957 -0.84804810408105047 0 -0.52991925155115449 0.13247981288778862 0 -0.21201202602026262 1 I I -0.70710678118654746 0.70710678118654746 0.25 forward I I I I #
loop $-1 $-1 $276 $80 #
coedge $-1 $172 $172 $277 $278 reversed $108 $-1 #
face $-1 $-1 $279 $62 $-1 $280 forward single #
loop $-1 $281 $282 $110 #
cone-surface $-1 75.185784455052925 -28.398893161306706 5.2473028096907957 -0.84804810408105047 0 -0.52991925155115449 0.13247981288778862 0 -0.21201202602026262 1 I I -0.70710678118654746 0.70710678118654746 0.25 forward I I I I #
loop $-1 $-1 $283 $81 #
coedge $-1 $177 $177 $284 $285 reversed $111 $-1 #
face $-1 $-1 $286 $63 $-1 $287 forward single #
loop $-1 $288 $289 $113 #
cone-surface $-1 75.185784455052925 -24.891544302109335 5.2473028096907957 -0.84804810408105047 0 -0.52991925155115449 0.13247981288778862 0 -0.21201202602026262 1 I I -0.70710678118654746 0.70710678118654746 0.25 forward I I I I #
loop $-1 $-1 $290 $82 #
coedge $-1 $182 $182 $291 $292 reversed $114 $-1 #
face $-1 $293 $294 $64 $-1 $295 reversed single #
loop $-1 $-1 $296 $116 #
plane-surface $-1 -4.7230908335692448 -9.1846319166972705 135.48708931630131 0.84804810408105047 0 0.52991925155115449 0.52991925155115449 0 -0.84804810408105047 forward_v I I I I #
coedge $-1 $297 $298 $299 $300 reversed $117 $-1 #
face $-1 $-1 $301 $65 $-1 $302 forward single #
loop $-1 $303 $304 $119 #
cone-surface $-1 75.185784455052925 -12.691980775894642 5.2473028096907957 -0.84804810408105047 0 -0.52991925155115449 0.13247981288778862 0 -0.21201202602026262 1 I I -0.70710678118654746 0.70710678118654746 0.25 forward I I I I #
loop $-1 $-1 $305 $84 #
coedge $-1 $191 $191 $306 $307 reversed $120 $-1 #
face $-1 $-1 $308 $66 $-1 $309 forward single #
loop $-1 $310 $311 $122 #
cone-surface $-1 75.185784455052925 -9.1846319166972705 5.2473028096907957 -0.84804810408105047 0 -0.52991925155115449 0.13247981288778862 0 -0.21201202602026262 1 I I -0.70710678118654746 0.70710678118654746 0.25 forward I I I I #
loop $-1 $-1 $312 $85 #
coedge $-1 $196 $196 $313 $314 reversed $123 $-1 #
face $-1 $-1 $315 $67 $-1 $316 forward single #
loop $-1 $317 $318 $125 #
cone-surface $-1 75.185784455052925 -5.6772830574998991 5.2473028096907957 -0.84804810408105047 0 -0.52991925155115449 0.13247981288778862 0 -0.21201202602026262 1 I I -0.70710678118654746 0.70710678118654746 0.25 forward I I I I #
loop $-1 $-1 $319 $86 #
coedge $-1 $201 $201 $320 $321 reversed $126 $-1 #
face $-1 $322 $323 $68 $-1 $324 reversed single #
loop $-1 $-1 $325 $128 #
plane-surface $-1 -4.7230908335692448 10.029629327912161 135.48708931630131 0.84804810408105047 0 0.52991925155115449 0.52991925155115449 0 -0.84804810408105047 forward_v I I I I #
coedge $-1 $326 $327 $328 $329 reversed $129 $-1 #
face $-1 $-1 $330 $69 $-1 $331 forward single #
loop $-1 $332 $333 $131 #
cone-surface $-1 75.185784455052925 6.5222804687147971 5.2473028096907957 -0.84804810408105047 0 -0.52991925155115449 0.13247981288778862 0 -0.21201202602026262 1 I I -0.70710678118654746 0.70710678118654746 0.25 forward I I I I #
loop $-1 $-1 $334 $88 #
coedge $-1 $210 $210 $335 $336 reversed $132 $-1 #
face $-1 $-1 $337 $70 $-1 $338 forward single #
loop $-1 $339 $340 $134 #
cone-surface $-1 75.185784455052925 10.029629327912161 5.2473028096907957 -0.84804810408105047 0 -0.52991925155115449 0.13247981288778862 0 -0.21201202602026262 1 I I -0.70710678118654746 0.70710678118654746 0.25 forward I I I I #
loop $-1 $-1 $341 $89 #
coedge $-1 $215 $215 $342 $343 reversed $135 $-1 #
face $-1 $-1 $344 $71 $-1 $345 forward single #
loop $-1 $346 $347 $137 #
cone-surface $-1 75.185784455052925 13.53697818710954 5.2473028096907957 -0.84804810408105047 0 -0.52991925155115449 0.13247981288778862 0 -0.21201202602026262 1 I I -0.70710678118654746 0.70710678118654746 0.25 forward I I I I #
loop $-1 $-1 $348 $90 #
coedge $-1 $220 $220 $349 $350 reversed $138 $-1 #
face $-1 $351 $352 $72 $-1 $353 reversed single #
loop $-1 $-1 $354 $140 #
plane-surface $-1 -4.7230908335692448 29.243890572521593 135.48708931630131 0.84804810408105047 0 0.52991925155115449 0.52991925155115449 0 -0.84804810408105047 forward_v I I I I #
coedge $-1 $355 $356 $357 $358 reversed $141 $-1 #
face $-1 $-1 $359 $73 $-1 $360 forward single #
loop $-1 $361 $362 $143 #
cone-surface $-1 75.185784455052925 25.736541713324229 5.2473028096907957 -0.84804810408105047 0 -0.52991925155115449 0.13247981288778862 0 -0.21201202602026262 1 I I -0.70710678118654746 0.70710678118654746 0.25 forward I I I I #
loop $-1 $-1 $363 $92 #
coedge $-1 $229 $229 $364 $365 reversed $144 $-1 #
face $-1 $-1 $366 $74 $-1 $367 forward single #
loop $-1 $368 $369 $146 #
cone-surface $-1 75.185784455052925 29.243890572521593 5.2473028096907957 -0.84804810408105047 0 -0.52991925155115449 0.13247981288778862 0 -0.21201202602026262 1 I I -0.70710678118654746 0.70710678118654746 0.25 forward I I I I #
loop $-1 $-1 $370 $93 #
coedge $-1 $234 $234 $371 $372 reversed $147 $-1 #
face $-1 $-1 $373 $75 $-1 $374 forward single #
loop $-1 $375 $376 $149 #
cone-surface $-1 75.185784455052925 32.751239431718972 5.2473028096907957 -0.84804810408105047 0 -0.52991925155115449 0.13247981288778862 0 -0.21201202602026262 1 I I -0.70710678118654746 0.70710678118654746 0.25 forward I I I I #
loop $-1 $-1 $377 $94 #
coedge $-1 $239 $239 $378 $379 reversed $150 $-1 #
face $-1 $380 $381 $57 $-1 $382 reversed single #
loop $-1 $-1 $383 $152 #
plane-surface $-1 0 -47.725727753311688 0 0 1 0 0 0 1 forward_v I I I I #
coedge $-1 $384 $385 $386 $387 forward $153 $-1 #
coedge $-1 $388 $155 $389 $390 forward $96 $-1 #
coedge $-1 $155 $388 $391 $392 forward $96 $-1 #
coedge $-1 $393 $394 $155 $247 reversed $395 $-1 #
edge $-1 $396 -47.725727753311688 $397 47.725727753311688 $246 $398 forward 7 unknown #
face $-1 $399 $400 $58 $-1 $401 reversed single #
loop $-1 $-1 $402 $156 #
plane-surface $-1 -78.93063142796106 0 0 1 0 0 0 0 -1 forward_v I I I I #
coedge $-1 $403 $404 $253 $405 forward $157 $-1 #
coedge $-1 $406 $159 $407 $408 reversed $99 $-1 #
coedge $-1 $159 $406 $251 $405 reversed $99 $-1 #
coedge $-1 $409 $410 $159 $255 reversed $411 $-1 #
edge $-1 $412 -10.20625910476336 $413 10.20625910476336 $254 $414 forward 7 unknown #
face $-1 $415 $416 $59 $-1 $417 reversed single #
loop $-1 $-1 $418 $160 #
plane-surface $-1 -76.484113219447494 57.022933017404497 0 0 -1 0 0 0 -1 forward_v I I I I #
coedge $-1 $419 $420 $260 $421 forward $161 $-1 #
coedge $-1 $422 $163 $259 $421 reversed $102 $-1 #
coedge $-1 $163 $422 $423 $424 reversed $102 $-1 #
coedge $-1 $425 $426 $163 $263 reversed $416 $-1 #
edge $-1 $427 -10.20625910476336 $428 10.20625910476336 $262 $429 forward 7 unknown #
face $-1 $430 $431 $60 $-1 $432 forward single #
loop $-1 $-1 $433 $164 #
plane-surface $-1 129.15085383923585 -34.244474593302328 219.14081157783161 0 1 0 0.84804810408105047 0 0.52991925155115449 forward_v I I I I #
coedge $-1 $434 $435 $436 $437 reversed $165 $-1 #
coedge $-1 $269 $167 $438 $439 reversed $105 $-1 #
coedge $-1 $167 $268 $434 $440 reversed $105 $-1 #
coedge $-1 $436 $441 $167 $271 forward $431 $-1 #
edge $-1 $442 -14.355204508343135 $443 -8.9856308227295756 $270 $444 forward 7 unknown #
loop $-1 $-1 $277 $168 #
plane-surface $-1 -4.7230908335692448 -28.398893161306709 135.48708931630131 0.84804810408105047 0 0.52991925155115449 0.52991925155115449 0 -0.84804810408105047 forward_v I I I I #
loop $-1 $-1 $445 $107 #
coedge $-1 $275 $275 $276 $446 reversed $169 $-1 #
coedge $-1 $276 $276 $275 $446 forward $171 $-1 #
coedge $-1 $277 $277 $172 $278 forward $272 $-1 #
edge $-1 $447 0 $447 6.2831853071796004 $277 $448 forward 7 unknown #
loop $-1 $-1 $284 $173 #
plane-surface $-1 -4.7230908335692448 -28.398893161306709 135.48708931630131 0.84804810408105047 0 0.52991925155115449 0.52991925155115449 0 -0.84804810408105047 forward_v I I I I #
loop $-1 $-1 $449 $110 #
coedge $-1 $282 $282 $283 $450 reversed $174 $-1 #
coedge $-1 $283 $283 $282 $450 forward $176 $-1 #
coedge $-1 $284 $284 $177 $285 forward $279 $-1 #
edge $-1 $451 0 $451 6.2831853071796004 $284 $452 forward 7 unknown #
loop $-1 $-1 $291 $178 #
plane-surface $-1 -4.7230908335692448 -28.398893161306709 135.48708931630131 0.84804810408105047 0 0.52991925155115449 0.52991925155115449 0 -0.84804810408105047 forward_v I I I I #
loop $-1 $-1 $453 $113 #
coedge $-1 $289 $289 $290 $454 reversed $179 $-1 #
coedge $-1 $290 $290 $289 $454 forward $181 $-1 #
coedge $-1 $291 $291 $182 $292 forward $286 $-1 #
edge $-1 $455 0 $455 6.2831853071796004 $291 $456 forward 7 unknown #
face $-1 $457 $458 $64 $-1 $459 reversed single #
loop $-1 $-1 $460 $183 #
plane-surface $-1 129.15085383923585 -15.030213348692888 219.14081157783161 0 1 0 0.84804810408105047 0 0.52991925155115449 forward_v I I I I #
coedge $-1 $461 $462 $463 $464 reversed $184 $-1 #
coedge $-1 $298 $186 $465 $466 reversed $117 $-1 #
coedge $-1 $186 $297 $461 $467 reversed $117 $-1 #
coedge $-1 $463 $468 $186 $300 forward $469 $-1 #
edge $-1 $470 -14.355204508343135 $471 -8.9856308227295756 $299 $472 forward 7 unknown #
loop $-1 $-1 $306 $187 #
plane-surface $-1 -4.7230908335692448 -9.1846319166972705 135.48708931630131 0.84804810408105047 0 0.52991925155115449 0.52991925155115449 0 -0.84804810408105047 forward_v I I I I #
loop $-1 $-1 $473 $119 #
coedge $-1 $304 $304 $305 $474 reversed $188 $-1 #
coedge $-1 $305 $305 $304 $474 forward $190 $-1 #
coedge $-1 $306 $306 $191 $307 forward $301 $-1 #
edge $-1 $475 0 $475 6.2831853071796004 $306 $476 forward 7 unknown #
loop $-1 $-1 $313 $192 #
plane-surface $-1 -4.7230908335692448 -9.1846319166972705 135.48708931630131 0.84804810408105047 0 0.52991925155115449 0.52991925155115449 0 -0.84804810408105047 forward_v I I I I #
loop $-1 $-1 $477 $122 #
coedge $-1 $311 $311 $312 $478 reversed $193 $-1 #
coedge $-1 $312 $312 $311 $478 forward $195 $-1 #
coedge $-1 $313 $313 $196 $314 forward $308 $-1 #
edge $-1 $479 0 $479 6.2831853071796004 $313 $480 forward 7 unknown #
loop $-1 $-1 $320 $197 #
plane-surface $-1 -4.7230908335692448 -9.1846319166972705 135.48708931630131 0.84804810408105047 0 0.52991925155115449 0.52991925155115449 0 -0.84804810408105047 forward_v I I I I #
loop $-1 $-1 $481 $125 #
coedge $-1 $318 $318 $319 $482 reversed $198 $-1 #
coedge $-1 $319 $319 $318 $482 forward $200 $-1 #
coedge $-1 $320 $320 $201 $321 forward $315 $-1 #
edge $-1 $483 0 $483 6.2831853071796004 $320 $484 forward 7 unknown #
face $-1 $485 $486 $68 $-1 $487 reversed single #
loop $-1 $-1 $488 $202 #
plane-surface $-1 129.15085383923585 4.1840478959165441 219.14081157783161 0 1 0 0.84804810408105047 0 0.52991925155115449 forward_v I I I I #
coedge $-1 $489 $490 $491 $492 reversed $203 $-1 #
coedge $-1 $327 $205 $493 $494 reversed $129 $-1 #
coedge $-1 $205 $326 $489 $495 reversed $129 $-1 #
coedge $-1 $491 $496 $205 $329 forward $497 $-1 #
edge $-1 $498 -14.355204508343135 $499 -8.9856308227295756 $328 $500 forward 7 unknown #
loop $-1 $-1 $335 $206 #
plane-surface $-1 -4.7230908335692448 10.029629327912161 135.48708931630131 0.84804810408105047 0 0.52991925155115449 0.52991925155115449 0 -0.84804810408105047 forward_v I I I I #
loop $-1 $-1 $501 $131 #
coedge $-1 $333 $333 $334 $502 reversed $207 $-1 #
coedge $-1 $334 $334 $333 $502 forward $209 $-1 #
coedge $-1 $335 $335 $210 $336 forward $330 $-1 #
edge $-1 $503 0 $503 6.2831853071796004 $335 $504 forward 7 unknown #
loop $-1 $-1 $342 $211 #
plane-surface $-1 -4.7230908335692448 10.029629327912161 135.48708931630131 0.84804810408105047 0 0.52991925155115449 0.52991925155115449 0 -0.84804810408105047 forward_v I I I I #
loop $-1 $-1 $505 $134 #
coedge $-1 $340 $340 $341 $506 reversed $212 $-1 #
coedge $-1 $341 $341 $340 $506 forward $214 $-1 #
coedge $-1 $342 $342 $215 $343 forward $337 $-1 #
edge $-1 $507 0 $507 6.2831853071796004 $342 $508 forward 7 unknown #
loop $-1 $-1 $349 $216 #
plane-surface $-1 -4.7230908335692448 10.029629327912161 135.48708931630131 0.84804810408105047 0 0.52991925155115449 0.52991925155115449 0 -0.84804810408105047 forward_v I I I I #
loop $-1 $-1 $509 $137 #
coedge $-1 $347 $347 $348 $510 reversed $217 $-1 #
coedge $-1 $348 $348 $347 $510 forward $219 $-1 #
coedge $-1 $349 $349 $220 $350 forward $344 $-1 #
edge $-1 $511 0 $511 6.2831853071796004 $349 $512 forward 7 unknown #
face $-1 $513 $514 $72 $-1 $515 reversed single #
loop $-1 $-1 $516 $221 #
plane-surface $-1 129.15085383923585 23.398309140525974 219.14081157783161 0 1 0 0.84804810408105047 0 0.52991925155115449 forward_v I I I I #
coedge $-1 $517 $518 $519 $520 reversed $222 $-1 #
coedge $-1 $356 $224 $521 $522 reversed $141 $-1 #
coedge $-1 $224 $355 $517 $523 reversed $141 $-1 #
coedge $-1 $519 $524 $224 $358 forward $525 $-1 #
edge $-1 $526 -14.355204508343135 $527 -8.9856308227295756 $357 $528 forward 7 unknown #
loop $-1 $-1 $364 $225 #
plane-surface $-1 -4.7230908335692448 29.243890572521593 135.48708931630131 0.84804810408105047 0 0.52991925155115449 0.52991925155115449 0 -0.84804810408105047 forward_v I I I I #
loop $-1 $-1 $529 $143 #
coedge $-1 $362 $362 $363 $530 reversed $226 $-1 #
coedge $-1 $363 $363 $362 $530 forward $228 $-1 #
coedge $-1 $364 $364 $229 $365 forward $359 $-1 #
edge $-1 $531 0 $531 6.2831853071796004 $364 $532 forward 7 unknown #
loop $-1 $-1 $371 $230 #
plane-surface $-1 -4.7230908335692448 29.243890572521593 135.48708931630131 0.84804810408105047 0 0.52991925155115449 0.52991925155115449 0 -0.84804810408105047 forward_v I I I I #
loop $-1 $-1 $533 $146 #
coedge $-1 $369 $369 $370 $534 reversed $231 $-1 #
coedge $-1 $370 $370 $369 $534 forward $233 $-1 #
coedge $-1 $371 $371 $234 $372 forward $366 $-1 #
edge $-1 $535 0 $535 6.2831853071796004 $371 $536 forward 7 unknown #
loop $-1 $-1 $378 $235 #
plane-surface $-1 -4.7230908335692448 29.243890572521593 135.48708931630131 0.84804810408105047 0 0.52991925155115449 0.52991925155115449 0 -0.84804810408105047 forward_v I I I I #
loop $-1 $-1 $537 $149 #
coedge $-1 $376 $376 $377 $538 reversed $236 $-1 #
coedge $-1 $377 $377 $376 $538 forward $238 $-1 #
coedge $-1 $378 $378 $239 $379 forward $373 $-1 #
edge $-1 $539 0 $539 6.2831853071796004 $378 $540 forward 7 unknown #
face $-1 $541 $542 $57 $-1 $543 reversed single #
loop $-1 $-1 $544 $240 #
plane-surface $-1 -78.93063142796106 0 0 1 0 0 0 0 -1 forward_v I I I I #
coedge $-1 $545 $391 $546 $547 forward $241 $-1 #
coedge $-1 $548 $243 $545 $549 forward $153 $-1 #
coedge $-1 $243 $548 $550 $551 forward $153 $-1 #
coedge $-1 $394 $393 $243 $387 reversed $395 $-1 #
edge $-1 $552 -47.725727753311688 $553 47.725727753311688 $386 $554 forward 7 unknown #
coedge $-1 $245 $244 $555 $556 forward $96 $-1 #
coedge $-1 $557 $558 $244 $390 reversed $542 $-1 #
edge $-1 $397 -78.93063142796106 $559 78.93063142796106 $389 $560 forward 7 unknown #
coedge $-1 $383 $561 $245 $392 reversed $241 $-1 #
edge $-1 $562 -78.93063142796106 $396 78.93063142796106 $391 $563 forward 7 unknown #
coedge $-1 $386 $246 $561 $564 forward $395 $-1 #
coedge $-1 $246 $386 $557 $565 reversed $395 $-1 #
loop $-1 $-1 $393 $541 #
vertex $-1 $247 $566 #
vertex $-1 $247 $567 #
straight-curve $-1 78.93063142796106 0 10.20625910476336 0 1 0 I I #
face $-1 $568 $411 $58 $-1 $569 reversed single #
loop $-1 $-1 $570 $248 #
plane-surface $-1 -76.484113219447494 -57.022933017404497 0 0 1 0 0 0 1 forward_v I I I I #
coedge $-1 $571 $572 $406 $573 forward $249 $-1 #
coedge $-1 $574 $251 $572 $575 forward $157 $-1 #
coedge $-1 $251 $574 $409 $576 forward $157 $-1 #
edge $-1 $412 74.037595010933927 $577 78.93063142796106 $251 $578 forward 7 unknown #
coedge $-1 $253 $252 $402 $573 reversed $99 $-1 #
coedge $-1 $579 $580 $252 $408 forward $581 $-1 #
edge $-1 $582 -78.93063142796106 $413 -74.037595010933927 $407 $583 forward 7 unknown #
coedge $-1 $584 $254 $404 $576 reversed $411 $-1 #
coedge $-1 $254 $584 $579 $585 reversed $411 $-1 #
loop $-1 $-1 $584 $399 #
vertex $-1 $405 $586 #
vertex $-1 $585 $587 #
straight-curve $-1 -74.037595010933927 -47.725727753311688 0 0 0 -1 I I #
face $-1 $588 $589 $59 $-1 $590 reversed single #
loop $-1 $-1 $262 $256 #
plane-surface $-1 -74.037595010933927 52.374330385358093 0 -1 0 0 0 0 1 forward_v I I I I #
coedge $-1 $591 $592 $593 $594 forward $257 $-1 #
coedge $-1 $595 $259 $426 $596 forward $161 $-1 #
coedge $-1 $259 $595 $597 $598 forward $161 $-1 #
edge $-1 $599 -78.93063142796106 $428 -74.037595010933927 $259 $600 forward 7 unknown #
coedge $-1 $261 $260 $601 $602 reversed $102 $-1 #
coedge $-1 $603 $604 $261 $424 forward $589 $-1 #
edge $-1 $427 74.037595010933927 $605 78.93063142796106 $423 $606 forward 7 unknown #
coedge $-1 $593 $262 $604 $607 reversed $416 $-1 #
coedge $-1 $262 $593 $419 $596 reversed $416 $-1 #
vertex $-1 $424 $608 #
vertex $-1 $596 $609 #
straight-curve $-1 -74.037595010933927 47.725727753311688 0 0 0 1 I I #
face $-1 $-1 $610 $60 $-1 $611 reversed single #
loop $-1 $-1 $270 $264 #
plane-surface $-1 0 0 10.20625910476336 0 0 1 1 0 0 forward_v I I I I #
coedge $-1 $612 $613 $614 $615 reversed $265 $-1 #
coedge $-1 $616 $267 $269 $440 forward $165 $-1 #
coedge $-1 $267 $616 $612 $617 forward $165 $-1 #
coedge $-1 $614 $270 $267 $437 forward $431 $-1 #
edge $-1 $443 8.3538651486577358 $618 20.045028012648974 $436 $619 forward 7 unknown #
coedge $-1 $620 $621 $268 $439 forward $610 $-1 #
edge $-1 $622 -107.95726114541959 $442 -99.364146684152445 $438 $623 forward 7 unknown #
edge $-1 $443 147.72844796026394 $622 157.86126285592209 $269 $624 forward 7 unknown #
coedge $-1 $270 $614 $620 $625 forward $431 $-1 #
vertex $-1 $271 $626 #
vertex $-1 $271 $627 #
straight-curve $-1 64.575426919617925 -22.553311729311091 10.206259104763362 -1 0 0 I I #
coedge $-1 $445 $445 $-1 $628 reversed $274 $-1 #
edge $-1 $629 0 $629 6.2831853071796004 $275 $630 forward 7 unknown #
vertex $-1 $278 $631 #
ellipse-curve $-1 76.245844585154288 -31.906242020504077 5.9097018741297758 0.84804810408105047 0 0.52991925155115449 0.26495962577557725 0 -0.42402405204052523 1 I I #
coedge $-1 $449 $449 $-1 $632 reversed $281 $-1 #
edge $-1 $633 0 $633 6.2831853071796004 $282 $634 forward 7 unknown #
vertex $-1 $285 $635 #
ellipse-curve $-1 76.245844585154288 -28.398893161306706 5.9097018741297758 0.84804810408105047 0 0.52991925155115449 0.26495962577557725 0 -0.42402405204052523 1 I I #
coedge $-1 $453 $453 $-1 $636 reversed $288 $-1 #
edge $-1 $637 0 $637 6.2831853071796004 $289 $638 forward 7 unknown #
vertex $-1 $292 $639 #
ellipse-curve $-1 76.245844585154288 -24.891544302109335 5.9097018741297758 0.84804810408105047 0 0.52991925155115449 0.26495962577557725 0 -0.42402405204052523 1 I I #
face $-1 $-1 $469 $64 $-1 $640 forward single #
loop $-1 $-1 $641 $293 #
plane-surface $-1 78.93063142796106 0 0 -1 0 0 0 0 1 forward_v I I I I #
coedge $-1 $642 $643 $644 $645 reversed $294 $-1 #
coedge $-1 $646 $296 $298 $467 forward $184 $-1 #
coedge $-1 $296 $646 $642 $647 forward $184 $-1 #
coedge $-1 $644 $299 $296 $464 forward $469 $-1 #
edge $-1 $471 -1.2532654736469819 $648 10.437897390344252 $463 $649 forward 7 unknown #
coedge $-1 $650 $651 $297 $466 forward $458 $-1 #
edge $-1 $652 -107.95726114541959 $470 -99.364146684152445 $465 $653 forward 7 unknown #
edge $-1 $471 147.72844796026394 $652 157.86126285592209 $298 $654 forward 7 unknown #
coedge $-1 $299 $644 $650 $655 forward $469 $-1 #
loop $-1 $-1 $644 $457 #
vertex $-1 $466 $656 #
vertex $-1 $300 $657 #
straight-curve $-1 64.575426919617925 -3.3390504847016533 10.206259104763362 -1 0 0 I I #
coedge $-1 $473 $473 $-1 $658 reversed $303 $-1 #
edge $-1 $659 0 $659 6.2831853071796004 $304 $660 forward 7 unknown #
vertex $-1 $307 $661 #
ellipse-curve $-1 76.245844585154288 -12.691980775894642 5.9097018741297758 0.84804810408105047 0 0.52991925155115449 0.26495962577557725 0 -0.42402405204052523 1 I I #
coedge $-1 $477 $477 $-1 $662 reversed $310 $-1 #
edge $-1 $663 0 $663 6.2831853071796004 $311 $664 forward 7 unknown #
vertex $-1 $314 $665 #
ellipse-curve $-1 76.245844585154288 -9.1846319166972705 5.9097018741297758 0.84804810408105047 0 0.52991925155115449 0.26495962577557725 0 -0.42402405204052523 1 I I #
coedge $-1 $481 $481 $-1 $666 reversed $317 $-1 #
edge $-1 $667 0 $667 6.2831853071796004 $318 $668 forward 7 unknown #
vertex $-1 $321 $669 #
ellipse-curve $-1 76.245844585154288 -5.6772830574998991 5.9097018741297758 0.84804810408105047 0 0.52991925155115449 0.26495962577557725 0 -0.42402405204052523 1 I I #
face $-1 $-1 $497 $68 $-1 $670 forward single #
loop $-1 $-1 $671 $322 #
plane-surface $-1 78.93063142796106 0 0 -1 0 0 0 0 1 forward_v I I I I #
coedge $-1 $672 $673 $674 $675 reversed $323 $-1 #
coedge $-1 $676 $325 $327 $495 forward $203 $-1 #
coedge $-1 $325 $676 $672 $677 forward $203 $-1 #
coedge $-1 $674 $328 $325 $492 forward $497 $-1 #
edge $-1 $499 -10.860396095951698 $678 0.83076676803953653 $491 $679 forward 7 unknown #
coedge $-1 $680 $681 $326 $494 forward $486 $-1 #
edge $-1 $682 -107.95726114541959 $498 -99.364146684152445 $493 $683 forward 7 unknown #
edge $-1 $499 147.72844796026394 $682 157.86126285592209 $327 $684 forward 7 unknown #
coedge $-1 $328 $674 $680 $685 forward $497 $-1 #
loop $-1 $-1 $674 $485 #
vertex $-1 $494 $686 #
vertex $-1 $329 $687 #
straight-curve $-1 64.575426919617925 15.875210759907779 10.206259104763362 -1 0 0 I I #
coedge $-1 $501 $501 $-1 $688 reversed $332 $-1 #
edge $-1 $689 0 $689 6.2831853071796004 $333 $690 forward 7 unknown #
vertex $-1 $336 $691 #
ellipse-curve $-1 76.245844585154288 6.5222804687147971 5.9097018741297758 0.84804810408105047 0 0.52991925155115449 0.26495962577557725 0 -0.42402405204052523 1 I I #
coedge $-1 $505 $505 $-1 $692 reversed $339 $-1 #
edge $-1 $693 0 $693 6.2831853071796004 $340 $694 forward 7 unknown #
vertex $-1 $343 $695 #
ellipse-curve $-1 76.245844585154288 10.029629327912161 5.9097018741297758 0.84804810408105047 0 0.52991925155115449 0.26495962577557725 0 -0.42402405204052523 1 I I #
coedge $-1 $509 $509 $-1 $696 reversed $346 $-1 #
edge $-1 $697 0 $697 6.2831853071796004 $347 $698 forward 7 unknown #
vertex $-1 $350 $699 #
ellipse-curve $-1 76.245844585154288 13.53697818710954 5.9097018741297758 0.84804810408105047 0 0.52991925155115449 0.26495962577557725 0 -0.42402405204052523 1 I I #
face $-1 $-1 $525 $72 $-1 $700 forward single #
loop $-1 $-1 $701 $351 #
plane-surface $-1 78.93063142796106 0 0 -1 0 0 0 0 1 forward_v I I I I #
coedge $-1 $702 $703 $704 $705 reversed $352 $-1 #
coedge $-1 $706 $354 $356 $523 forward $222 $-1 #
coedge $-1 $354 $706 $702 $707 forward $222 $-1 #
coedge $-1 $704 $357 $354 $520 forward $525 $-1 #
edge $-1 $527 -20.467526718256416 $708 -8.7763638542651776 $519 $709 forward 7 unknown #
coedge $-1 $710 $711 $355 $522 forward $514 $-1 #
edge $-1 $712 -107.95726114541959 $526 -99.364146684152445 $521 $713 forward 7 unknown #
edge $-1 $527 147.72844796026394 $712 157.86126285592209 $356 $714 forward 7 unknown #
coedge $-1 $357 $704 $710 $715 forward $525 $-1 #
loop $-1 $-1 $704 $513 #
vertex $-1 $522 $716 #
vertex $-1 $358 $717 #
straight-curve $-1 64.575426919617925 35.089472004517212 10.206259104763362 -1 0 0 I I #
coedge $-1 $529 $529 $-1 $718 reversed $361 $-1 #
edge $-1 $719 0 $719 6.2831853071796004 $362 $720 forward 7 unknown #
vertex $-1 $365 $721 #
ellipse-curve $-1 76.245844585154288 25.736541713324229 5.9097018741297758 0.84804810408105047 0 0.52991925155115449 0.26495962577557725 0 -0.42402405204052523 1 I I #
coedge $-1 $533 $533 $-1 $722 reversed $368 $-1 #
edge $-1 $723 0 $723 6.2831853071796004 $369 $724 forward 7 unknown #
vertex $-1 $372 $725 #
ellipse-curve $-1 76.245844585154288 29.243890572521593 5.9097018741297758 0.84804810408105047 0 0.52991925155115449 0.26495962577557725 0 -0.42402405204052523 1 I I #
coedge $-1 $537 $537 $-1 $726 reversed $375 $-1 #
edge $-1 $727 0 $727 6.2831853071796004 $376 $728 forward 7 unknown #
vertex $-1 $379 $729 #
ellipse-curve $-1 76.245844585154288 32.751239431718972 5.9097018741297758 0.84804810408105047 0 0.52991925155115449 0.26495962577557725 0 -0.42402405204052523 1 I I #
face $-1 $-1 $395 $57 $-1 $730 reversed single #
loop $-1 $-1 $557 $380 #
plane-surface $-1 0 47.725727753311688 0 0 -1 0 0 0 -1 forward_v I I I I #
coedge $-1 $731 $555 $558 $732 forward $381 $-1 #
coedge $-1 $561 $383 $384 $549 reversed $241 $-1 #
coedge $-1 $555 $731 $383 $547 reversed $381 $-1 #
edge $-1 $562 -10.20625910476336 $733 10.20625910476336 $546 $734 forward 7 unknown #
coedge $-1 $385 $384 $731 $735 forward $153 $-1 #
edge $-1 $553 -78.93063142796106 $733 78.93063142796106 $545 $736 forward 7 unknown #
coedge $-1 $558 $557 $385 $551 reversed $542 $-1 #
edge $-1 $737 -78.93063142796106 $552 78.93063142796106 $550 $738 forward 7 unknown #
vertex $-1 $387 $739 #
vertex $-1 $564 $740 #
straight-curve $-1 78.93063142796106 0 -10.20625910476336 0 -1 0 I I #
coedge $-1 $544 $546 $388 $556 reversed $381 $-1 #
edge $-1 $559 -47.725727753311688 $562 47.725727753311688 $555 $741 forward 7 unknown #
coedge $-1 $550 $389 $394 $565 forward $542 $-1 #
coedge $-1 $389 $550 $544 $732 reversed $542 $-1 #
vertex $-1 $390 $742 #
straight-curve $-1 0 47.725727753311688 10.20625910476336 -1 0 0 I I #
coedge $-1 $391 $545 $393 $564 reversed $241 $-1 #
vertex $-1 $556 $743 #
straight-curve $-1 0 -47.725727753311688 10.20625910476336 1 0 0 I I #
edge $-1 $396 -10.20625910476336 $553 10.20625910476336 $393 $744 forward 7 unknown #
edge $-1 $397 -10.20625910476336 $552 10.20625910476336 $394 $745 forward 7 unknown #
point $-1 78.93063142796106 -47.725727753311688 10.20625910476336 #
point $-1 78.93063142796106 47.725727753311688 10.20625910476336 #
face $-1 $-1 $581 $58 $-1 $746 reversed single #
plane-surface $-1 -74.037595010933927 -52.374330385358093 0 -1 0 0 0 0 1 forward_v I I I I #
coedge $-1 $747 $748 $749 $750 forward $400 $-1 #
coedge $-1 $749 $402 $580 $751 reversed $249 $-1 #
coedge $-1 $402 $749 $403 $575 reversed $249 $-1 #
edge $-1 $577 -10.20625910476336 $582 10.20625910476336 $402 $752 forward 7 unknown #
coedge $-1 $404 $403 $748 $753 forward $157 $-1 #
edge $-1 $577 47.725727753311688 $754 57.022933017404497 $572 $755 forward 7 unknown #
edge $-1 $756 -4.6486026320464049 $412 4.6486026320464049 $409 $757 forward 7 unknown #
vertex $-1 $575 $758 #
straight-curve $-1 0 -47.725727753311688 10.20625910476336 -1 0 0 I I #
coedge $-1 $759 $407 $410 $585 forward $581 $-1 #
coedge $-1 $407 $759 $571 $751 forward $581 $-1 #
loop $-1 $-1 $407 $568 #
vertex $-1 $573 $760 #
straight-curve $-1 0 -47.725727753311688 -10.20625910476336 1 0 0 I I #
coedge $-1 $410 $409 $761 $762 forward $411 $-1 #
edge $-1 $413 -4.6486026320464049 $763 4.6486026320464049 $410 $764 forward 7 unknown #
point $-1 -74.037595010933927 -47.725727753311688 10.20625910476336 #
point $-1 -74.037595010933927 -47.725727753311688 -10.20625910476336 #
face $-1 $-1 $765 $59 $-1 $766 reversed single #
loop $-1 $-1 $423 $415 #
plane-surface $-1 0 0 -10.20625910476336 0 0 1 1 0 0 forward_v I I I I #
coedge $-1 $767 $418 $768 $769 reversed $257 $-1 #
coedge $-1 $418 $767 $595 $770 reversed $257 $-1 #
coedge $-1 $426 $425 $418 $594 reversed $416 $-1 #
edge $-1 $771 -10.20625910476336 $772 10.20625910476336 $593 $773 forward 7 unknown #
coedge $-1 $420 $419 $592 $770 forward $161 $-1 #
edge $-1 $428 -4.6486026320464049 $771 4.6486026320464049 $426 $774 forward 7 unknown #
coedge $-1 $775 $601 $420 $598 reversed $765 $-1 #
edge $-1 $776 -57.022933017404497 $599 -47.725727753311688 $597 $777 forward 7 unknown #
vertex $-1 $602 $778 #
straight-curve $-1 0 47.725727753311688 10.20625910476336 1 0 0 I I #
coedge $-1 $597 $779 $422 $602 forward $765 $-1 #
edge $-1 $605 -10.20625910476336 $599 10.20625910476336 $601 $780 forward 7 unknown #
coedge $-1 $768 $423 $779 $781 forward $589 $-1 #
coedge $-1 $423 $768 $425 $607 forward $589 $-1 #
vertex $-1 $781 $782 #
straight-curve $-1 0 47.725727753311688 -10.20625910476336 -1 0 0 I I #
edge $-1 $772 -4.6486026320464049 $427 4.6486026320464049 $425 $783 forward 7 unknown #
point $-1 -74.037595010933927 47.725727753311688 -10.20625910476336 #
point $-1 -74.037595010933927 47.725727753311688 10.20625910476336 #
loop $-1 $-1 $438 $430 #
plane-surface $-1 78.93063142796106 0 0 -1 0 0 0 0 1 forward_v I I I I #
coedge $-1 $613 $433 $435 $617 reversed $265 $-1 #
coedge $-1 $433 $612 $784 $785 reversed $265 $-1 #
coedge $-1 $441 $436 $433 $615 forward $431 $-1 #
edge $-1 $618 8.9856308227295756 $786 14.355204508343135 $614 $787 forward 7 unknown #
coedge $-1 $435 $434 $621 $788 reversed $165 $-1 #
edge $-1 $789 -157.86126285592209 $618 -147.72844796026394 $612 $790 forward 7 unknown #
vertex $-1 $437 $791 #
straight-curve $-1 73.561057742347487 -14.199446580653355 10.206259104763362 0 -1 0 I I #
coedge $-1 $784 $438 $441 $625 reversed $610 $-1 #
coedge $-1 $438 $784 $616 $788 forward $610 $-1 #
vertex $-1 $439 $792 #
straight-curve $-1 78.93063142796106 -22.553311729311091 109.57040578891581 0 0 1 I I #
straight-curve $-1 -4.7230908335692448 -22.553311729311091 135.48708931630131 0.52991925155115449 0 -0.84804810408105047 I I #
edge $-1 $786 -34.244474593302328 $442 -22.553311729311091 $620 $793 forward 7 unknown #
point $-1 78.93063142796106 -22.553311729311091 10.20625910476336 #
point $-1 73.561057742347501 -22.553311729311091 10.206259104763348 #
edge $-1 $794 1 $794 0 $445 $-1 forward 7 unknown #
vertex $-1 $446 $795 #
ellipse-curve $-1 75.397796481073186 -31.906242020504077 5.3797826225785839 0.84804810408105047 0 0.52991925155115449 0.26495962577557725 0 -0.42402405204052523 1 I I #
point $-1 76.51080421092982 -31.906242020504077 5.4856778220892135 #
edge $-1 $796 1 $796 0 $449 $-1 forward 7 unknown #
vertex $-1 $450 $797 #
ellipse-curve $-1 75.397796481073186 -28.398893161306706 5.3797826225785839 0.84804810408105047 0 0.52991925155115449 0.26495962577557725 0 -0.42402405204052523 1 I I #
point $-1 76.51080421092982 -28.398893161306706 5.4856778220892135 #
edge $-1 $798 1 $798 0 $453 $-1 forward 7 unknown #
vertex $-1 $454 $799 #
ellipse-curve $-1 75.397796481073186 -24.891544302109335 5.3797826225785839 0.84804810408105047 0 0.52991925155115449 0.26495962577557725 0 -0.42402405204052523 1 I I #
point $-1 76.51080421092982 -24.891544302109335 5.4856778220892135 #
plane-surface $-1 0 0 10.20625910476336 0 0 1 1 0 0 forward_v I I I I #
coedge $-1 $651 $650 $643 $800 forward $458 $-1 #
coedge $-1 $643 $460 $462 $647 reversed $294 $-1 #
coedge $-1 $460 $642 $641 $800 reversed $294 $-1 #
coedge $-1 $468 $463 $460 $645 forward $469 $-1 #
edge $-1 $648 8.9856308227295756 $801 14.355204508343135 $644 $802 forward 7 unknown #
coedge $-1 $462 $461 $651 $803 reversed $184 $-1 #
edge $-1 $804 -157.86126285592209 $648 -147.72844796026394 $642 $805 forward 7 unknown #
vertex $-1 $464 $806 #
straight-curve $-1 73.561057742347487 -4.5923159583486353 10.206259104763362 0 -1 0 I I #
coedge $-1 $641 $465 $468 $655 reversed $458 $-1 #
coedge $-1 $465 $641 $646 $803 forward $458 $-1 #
vertex $-1 $466 $807 #
straight-curve $-1 78.93063142796106 -3.3390504847016533 109.57040578891581 0 0 1 I I #
straight-curve $-1 -4.7230908335692448 -3.3390504847016533 135.48708931630131 0.52991925155115449 0 -0.84804810408105047 I I #
edge $-1 $801 -15.030213348692888 $470 -3.3390504847016533 $650 $808 forward 7 unknown #
point $-1 78.93063142796106 -3.3390504847016533 10.20625910476336 #
point $-1 73.561057742347501 -3.3390504847016533 10.206259104763348 #
edge $-1 $809 1 $809 0 $473 $-1 forward 7 unknown #
vertex $-1 $474 $810 #
ellipse-curve $-1 75.397796481073186 -12.691980775894642 5.3797826225785839 0.84804810408105047 0 0.52991925155115449 0.26495962577557725 0 -0.42402405204052523 1 I I #
point $-1 76.51080421092982 -12.691980775894642 5.4856778220892135 #
edge $-1 $811 1 $811 0 $477 $-1 forward 7 unknown #
vertex $-1 $478 $812 #
ellipse-curve $-1 75.397796481073186 -9.1846319166972705 5.3797826225785839 0.84804810408105047 0 0.52991925155115449 0.26495962577557725 0 -0.42402405204052523 1 I I #
point $-1 76.51080421092982 -9.1846319166972705 5.4856778220892135 #
edge $-1 $813 1 $813 0 $481 $-1 forward 7 unknown #
vertex $-1 $482 $814 #
ellipse-curve $-1 75.397796481073186 -5.6772830574998991 5.3797826225785839 0.84804810408105047 0 0.52991925155115449 0.26495962577557725 0 -0.42402405204052523 1 I I #
point $-1 76.51080421092982 -5.6772830574998991 5.4856778220892135 #
plane-surface $-1 0 0 10.20625910476336 0 0 1 1 0 0 forward_v I I I I #
coedge $-1 $681 $680 $673 $815 forward $486 $-1 #
coedge $-1 $673 $488 $490 $677 reversed $323 $-1 #
coedge $-1 $488 $672 $671 $815 reversed $323 $-1 #
coedge $-1 $496 $491 $488 $675 forward $497 $-1 #
edge $-1 $678 8.9856308227295756 $816 14.355204508343135 $674 $817 forward 7 unknown #
coedge $-1 $490 $489 $681 $818 reversed $203 $-1 #
edge $-1 $819 -157.86126285592209 $678 -147.72844796026394 $672 $820 forward 7 unknown #
vertex $-1 $492 $821 #
straight-curve $-1 73.561057742347487 5.0148146639560807 10.206259104763362 0 -1 0 I I #
coedge $-1 $671 $493 $496 $685 reversed $486 $-1 #
coedge $-1 $493 $671 $676 $818 forward $486 $-1 #
vertex $-1 $494 $822 #
straight-curve $-1 78.93063142796106 15.875210759907779 109.57040578891581 0 0 1 I I #
straight-curve $-1 -4.7230908335692448 15.875210759907779 135.48708931630131 0.52991925155115449 0 -0.84804810408105047 I I #
edge $-1 $816 4.1840478959165441 $498 15.875210759907779 $680 $823 forward 7 unknown #
point $-1 78.93063142796106 15.875210759907779 10.20625910476336 #
point $-1 73.561057742347501 15.875210759907779 10.206259104763348 #
edge $-1 $824 1 $824 0 $501 $-1 forward 7 unknown #
vertex $-1 $502 $825 #
ellipse-curve $-1 75.397796481073186 6.5222804687147971 5.3797826225785839 0.84804810408105047 0 0.52991925155115449 0.26495962577557725 0 -0.42402405204052523 1 I I #
point $-1 76.51080421092982 6.5222804687147971 5.4856778220892135 #
edge $-1 $826 1 $826 0 $505 $-1 forward 7 unknown #
vertex $-1 $506 $827 #
ellipse-curve $-1 75.397796481073186 10.029629327912161 5.3797826225785839 0.84804810408105047 0 0.52991925155115449 0.26495962577557725 0 -0.42402405204052523 1 I I #
point $-1 76.51080421092982 10.029629327912161 5.4856778220892135 #
edge $-1 $828 1 $828 0 $509 $-1 forward 7 unknown #
vertex $-1 $510 $829 #
ellipse-curve $-1 75.397796481073186 13.53697818710954 5.3797826225785839 0.84804810408105047 0 0.52991925155115449 0.26495962577557725 0 -0.42402405204052523 1 I I #
point $-1 76.51080421092982 13.53697818710954 5.4856778220892135 #
plane-surface $-1 0 0 10.20625910476336 0 0 1 1 0 0 forward_v I I I I #
coedge $-1 $711 $710 $703 $830 forward $514 $-1 #
coedge $-1 $703 $516 $518 $707 reversed $352 $-1 #
coedge $-1 $516 $702 $701 $830 reversed $352 $-1 #
coedge $-1 $524 $519 $516 $705 forward $525 $-1 #
edge $-1 $708 8.9856308227295756 $831 14.355204508343135 $704 $832 forward 7 unknown #
coedge $-1 $518 $517 $711 $833 reversed $222 $-1 #
edge $-1 $834 -157.86126285592209 $708 -147.72844796026394 $702 $835 forward 7 unknown #
vertex $-1 $520 $836 #
straight-curve $-1 73.561057742347487 14.621945286260797 10.206259104763362 0 -1 0 I I #
coedge $-1 $701 $521 $524 $715 reversed $514 $-1 #
coedge $-1 $521 $701 $706 $833 forward $514 $-1 #
vertex $-1 $522 $837 #
straight-curve $-1 78.93063142796106 35.089472004517212 109.57040578891581 0 0 1 I I #
straight-curve $-1 -4.7230908335692448 35.089472004517212 135.48708931630131 0.52991925155115449 0 -0.84804810408105047 I I #
edge $-1 $831 23.398309140525974 $526 35.089472004517212 $710 $838 forward 7 unknown #
point $-1 78.93063142796106 35.089472004517212 10.20625910476336 #
point $-1 73.561057742347501 35.089472004517212 10.206259104763348 #
edge $-1 $839 1 $839 0 $529 $-1 forward 7 unknown #
vertex $-1 $530 $840 #
ellipse-curve $-1 75.397796481073186 25.736541713324229 5.3797826225785839 0.84804810408105047 0 0.52991925155115449 0.26495962577557725 0 -0.42402405204052523 1 I I #
point $-1 76.51080421092982 25.736541713324229 5.4856778220892135 #
edge $-1 $841 1 $841 0 $533 $-1 forward 7 unknown #
vertex $-1 $534 $842 #
ellipse-curve $-1 75.397796481073186 29.243890572521593 5.3797826225785839 0.84804810408105047 0 0.52991925155115449 0.26495962577557725 0 -0.42402405204052523 1 I I #
point $-1 76.51080421092982 29.243890572521593 5.4856778220892135 #
edge $-1 $843 1 $843 0 $537 $-1 forward 7 unknown #
vertex $-1 $538 $844 #
ellipse-curve $-1 75.397796481073186 32.751239431718972 5.3797826225785839 0.84804810408105047 0 0.52991925155115449 0.26495962577557725 0 -0.42402405204052523 1 I I #
point $-1 76.51080421092982 32.751239431718972 5.4856778220892135 #
plane-surface $-1 78.93063142796106 0 0 -1 0 0 0 0 1 forward_v I I I I #
coedge $-1 $546 $544 $548 $735 reversed $381 $-1 #
edge $-1 $559 -10.20625910476336 $737 10.20625910476336 $558 $845 forward 7 unknown #
vertex $-1 $735 $846 #
straight-curve $-1 -78.93063142796106 -47.725727753311688 0 0 0 -1 I I #
edge $-1 $733 -47.725727753311688 $737 47.725727753311688 $731 $847 forward 7 unknown #
straight-curve $-1 0 -47.725727753311688 -10.20625910476336 -1 0 0 I I #
vertex $-1 $551 $848 #
straight-curve $-1 0 47.725727753311688 -10.20625910476336 1 0 0 I I #
point $-1 78.93063142796106 47.725727753311688 -10.20625910476336 #
point $-1 78.93063142796106 -47.725727753311688 -10.20625910476336 #
straight-curve $-1 -78.93063142796106 0 10.20625910476336 0 -1 0 I I #
point $-1 -78.93063142796106 47.725727753311688 10.20625910476336 #
point $-1 -78.93063142796106 -47.725727753311688 10.20625910476336 #
straight-curve $-1 78.93063142796106 -47.725727753311688 0 0 0 -1 I I #
straight-curve $-1 78.93063142796106 47.725727753311688 0 0 0 -1 I I #
plane-surface $-1 0 0 -10.20625910476336 0 0 1 1 0 0 forward_v I I I I #
coedge $-1 $761 $570 $759 $849 reversed $400 $-1 #
coedge $-1 $570 $761 $574 $753 reversed $400 $-1 #
coedge $-1 $572 $571 $570 $750 reversed $249 $-1 #
edge $-1 $754 -10.20625910476336 $850 10.20625910476336 $749 $851 forward 7 unknown #
edge $-1 $850 -57.022933017404497 $582 -47.725727753311688 $571 $852 forward 7 unknown #
straight-curve $-1 -78.93063142796106 -47.725727753311688 0 0 0 -1 I I #
edge $-1 $754 -2.4465182085135666 $756 2.4465182085135666 $748 $853 forward 7 unknown #
vertex $-1 $575 $854 #
straight-curve $-1 -78.93063142796106 0 10.20625910476336 0 -1 0 I I #
vertex $-1 $576 $855 #
straight-curve $-1 -74.037595010933927 -52.374330385358093 10.20625910476336 0 1 0 I I #
point $-1 -78.93063142796106 -47.725727753311688 10.20625910476336 #
coedge $-1 $580 $579 $747 $849 forward $581 $-1 #
point $-1 -78.93063142796106 -47.725727753311688 -10.20625910476336 #
coedge $-1 $748 $747 $584 $762 reversed $400 $-1 #
edge $-1 $756 -10.20625910476336 $763 10.20625910476336 $584 $856 forward 7 unknown #
vertex $-1 $762 $857 #
straight-curve $-1 -74.037595010933927 -52.374330385358093 -10.20625910476336 0 -1 0 I I #
loop $-1 $-1 $601 $588 #
plane-surface $-1 -78.93063142796106 0 0 1 0 0 0 0 -1 forward_v I I I I #
coedge $-1 $592 $591 $775 $858 reversed $257 $-1 #
coedge $-1 $604 $603 $591 $769 forward $589 $-1 #
edge $-1 $859 -2.4465182085135666 $772 2.4465182085135666 $591 $860 forward 7 unknown #
edge $-1 $771 -2.4465182085135666 $776 2.4465182085135666 $592 $861 forward 7 unknown #
vertex $-1 $596 $862 #
vertex $-1 $607 $863 #
straight-curve $-1 -74.037595010933927 57.022933017404497 0 0 0 -1 I I #
straight-curve $-1 -74.037595010933927 52.374330385358093 10.20625910476336 0 1 0 I I #
coedge $-1 $779 $597 $767 $858 forward $765 $-1 #
vertex $-1 $770 $864 #
straight-curve $-1 -78.93063142796106 0 10.20625910476336 0 -1 0 I I #
point $-1 -78.93063142796106 47.725727753311688 10.20625910476336 #
coedge $-1 $601 $775 $603 $781 reversed $765 $-1 #
straight-curve $-1 -78.93063142796106 47.725727753311688 0 0 0 1 I I #
edge $-1 $605 -4.6486026320464049 $859 4.6486026320464049 $779 $865 forward 7 unknown #
point $-1 -78.93063142796106 47.725727753311688 -10.20625910476336 #
straight-curve $-1 -74.037595010933927 52.374330385358093 -10.20625910476336 0 -1 0 I I #
coedge $-1 $621 $620 $613 $785 forward $610 $-1 #
edge $-1 $786 99.364146684152445 $789 107.95726114541959 $784 $866 forward 7 unknown #
vertex $-1 $625 $867 #
straight-curve $-1 64.575426919617925 -34.244474593302328 10.206259104763362 1 0 0 I I #
edge $-1 $789 -20.045028012648974 $622 -8.3538651486577358 $621 $868 forward 7 unknown #
vertex $-1 $788 $869 #
straight-curve $-1 -4.7230908335692448 -34.244474593302328 135.48708931630131 -0.52991925155115449 0 0.84804810408105047 I I #
point $-1 73.561057742347501 -34.244474593302328 10.206259104763348 #
point $-1 78.93063142796106 -22.553311729311091 1.6131446434962129 #
straight-curve $-1 78.93063142796106 0 10.20625910476336 0 1 0 I I #
vertex $-1 $628 $870 #
point $-1 75.662756106848761 -31.906242020504077 4.9557585705380589 #
vertex $-1 $632 $871 #
point $-1 75.662756106848761 -28.398893161306706 4.9557585705380589 #
vertex $-1 $636 $872 #
point $-1 75.662756106848761 -24.891544302109335 4.9557585705380589 #
edge $-1 $801 99.364146684152445 $804 107.95726114541959 $641 $873 forward 7 unknown #
vertex $-1 $655 $874 #
straight-curve $-1 64.575426919617925 -15.030213348692888 10.206259104763362 1 0 0 I I #
edge $-1 $804 -10.437897390344252 $652 1.2532654736469819 $651 $875 forward 7 unknown #
vertex $-1 $803 $876 #
straight-curve $-1 -4.7230908335692448 -15.030213348692888 135.48708931630131 -0.52991925155115449 0 0.84804810408105047 I I #
point $-1 73.561057742347501 -15.030213348692888 10.206259104763348 #
point $-1 78.93063142796106 -3.3390504847016533 1.6131446434962129 #
straight-curve $-1 78.93063142796106 0 10.20625910476336 0 1 0 I I #
vertex $-1 $658 $877 #
point $-1 75.662756106848761 -12.691980775894642 4.9557585705380589 #
vertex $-1 $662 $878 #
point $-1 75.662756106848761 -9.1846319166972705 4.9557585705380589 #
vertex $-1 $666 $879 #
point $-1 75.662756106848761 -5.6772830574998991 4.9557585705380589 #
edge $-1 $816 99.364146684152445 $819 107.95726114541959 $671 $880 forward 7 unknown #
vertex $-1 $685 $881 #
straight-curve $-1 64.575426919617925 4.1840478959165441 10.206259104763362 1 0 0 I I #
edge $-1 $819 -0.83076676803953653 $682 10.860396095951698 $681 $882 forward 7 unknown #
vertex $-1 $818 $883 #
straight-curve $-1 -4.7230908335692448 4.1840478959165441 135.48708931630131 -0.52991925155115449 0 0.84804810408105047 I I #
point $-1 73.561057742347501 4.1840478959165441 10.206259104763348 #
point $-1 78.93063142796106 15.875210759907779 1.6131446434962129 #
straight-curve $-1 78.93063142796106 0 10.20625910476336 0 1 0 I I #
vertex $-1 $688 $884 #
point $-1 75.662756106848761 6.5222804687147971 4.9557585705380589 #
vertex $-1 $692 $885 #
point $-1 75.662756106848761 10.029629327912161 4.9557585705380589 #
vertex $-1 $696 $886 #
point $-1 75.662756106848761 13.53697818710954 4.9557585705380589 #
edge $-1 $831 99.364146684152445 $834 107.95726114541959 $701 $887 forward 7 unknown #
vertex $-1 $715 $888 #
straight-curve $-1 64.575426919617925 23.398309140525974 10.206259104763362 1 0 0 I I #
edge $-1 $834 8.7763638542651776 $712 20.467526718256416 $711 $889 forward 7 unknown #
vertex $-1 $833 $890 #
straight-curve $-1 -4.7230908335692448 23.398309140525974 135.48708931630131 -0.52991925155115449 0 0.84804810408105047 I I #
point $-1 73.561057742347501 23.398309140525974 10.206259104763348 #
point $-1 78.93063142796106 35.089472004517212 1.6131446434962129 #
straight-curve $-1 78.93063142796106 0 10.20625910476336 0 1 0 I I #
vertex $-1 $718 $891 #
point $-1 75.662756106848761 25.736541713324229 4.9557585705380589 #
vertex $-1 $722 $892 #
point $-1 75.662756106848761 29.243890572521593 4.9557585705380589 #
vertex $-1 $726 $893 #
point $-1 75.662756106848761 32.751239431718972 4.9557585705380589 #
straight-curve $-1 -78.93063142796106 47.725727753311688 0 0 0 -1 I I #
point $-1 -78.93063142796106 -47.725727753311688 -10.20625910476336 #
straight-curve $-1 -78.93063142796106 0 -10.20625910476336 0 1 0 I I #
point $-1 -78.93063142796106 47.725727753311688 -10.20625910476336 #
edge $-1 $763 -2.4465182085135666 $850 2.4465182085135666 $747 $894 forward 7 unknown #
vertex $-1 $751 $895 #
straight-curve $-1 -78.93063142796106 -57.022933017404497 0 0 0 -1 I I #
straight-curve $-1 -78.93063142796106 0 -10.20625910476336 0 1 0 I I #
straight-curve $-1 -76.484113219447494 -57.022933017404497 10.20625910476336 1 0 0 I I #
point $-1 -78.93063142796106 -57.022933017404497 10.20625910476336 #
point $-1 -74.037595010933927 -57.022933017404497 10.20625910476336 #
straight-curve $-1 -74.037595010933927 -57.022933017404497 0 0 0 -1 I I #
point $-1 -74.037595010933927 -57.022933017404497 -10.20625910476336 #
edge $-1 $776 -10.20625910476336 $859 10.20625910476336 $767 $896 forward 7 unknown #
vertex $-1 $769 $897 #
straight-curve $-1 -76.484113219447494 57.022933017404497 -10.20625910476336 1 0 0 I I #
straight-curve $-1 -76.484113219447494 57.022933017404497 10.20625910476336 -1 0 0 I I #
point $-1 -74.037595010933927 57.022933017404497 10.20625910476336 #
point $-1 -74.037595010933927 57.022933017404497 -10.20625910476336 #
point $-1 -78.93063142796106 57.022933017404497 10.20625910476336 #
straight-curve $-1 -78.93063142796106 52.374330385358093 -10.20625910476336 0 1 0 I I #
straight-curve $-1 78.93063142796106 -34.244474593302328 109.57040578891581 0 0 -1 I I #
point $-1 78.93063142796106 -34.244474593302328 10.20625910476336 #
straight-curve $-1 78.93063142796106 -14.199446580653355 1.6131446434962129 0 1 0 I I #
point $-1 78.93063142796106 -34.244474593302328 1.6131446434962129 #
point $-1 74.973772429032664 -31.906242020504077 5.1148229968030074 #
point $-1 74.973772429032664 -28.398893161306706 5.1148229968030074 #
point $-1 74.973772429032664 -24.891544302109335 5.1148229968030074 #
straight-curve $-1 78.93063142796106 -15.030213348692888 109.57040578891581 0 0 -1 I I #
point $-1 78.93063142796106 -15.030213348692888 10.20625910476336 #
straight-curve $-1 78.93063142796106 -4.5923159583486353 1.6131446434962129 0 1 0 I I #
point $-1 78.93063142796106 -15.030213348692888 1.6131446434962129 #
point $-1 74.973772429032664 -12.691980775894642 5.1148229968030074 #
point $-1 74.973772429032664 -9.1846319166972705 5.1148229968030074 #
point $-1 74.973772429032664 -5.6772830574998991 5.1148229968030074 #
straight-curve $-1 78.93063142796106 4.1840478959165441 109.57040578891581 0 0 -1 I I #
point $-1 78.93063142796106 4.1840478959165441 10.20625910476336 #
straight-curve $-1 78.93063142796106 5.0148146639560807 1.6131446434962129 0 1 0 I I #
point $-1 78.93063142796106 4.1840478959165441 1.6131446434962129 #
point $-1 74.973772429032664 6.5222804687147971 5.1148229968030074 #
point $-1 74.973772429032664 10.029629327912161 5.1148229968030074 #
point $-1 74.973772429032664 13.53697818710954 5.1148229968030074 #
straight-curve $-1 78.93063142796106 23.398309140525974 109.57040578891581 0 0 -1 I I #
point $-1 78.93063142796106 23.398309140525974 10.20625910476336 #
straight-curve $-1 78.93063142796106 14.621945286260797 1.6131446434962129 0 1 0 I I #
point $-1 78.93063142796106 23.398309140525974 1.6131446434962129 #
point $-1 74.973772429032664 25.736541713324229 5.1148229968030074 #
point $-1 74.973772429032664 29.243890572521593 5.1148229968030074 #
point $-1 74.973772429032664 32.751239431718972 5.1148229968030074 #
straight-curve $-1 -76.484113219447494 -57.022933017404497 -10.20625910476336 -1 0 0 I I #
point $-1 -78.93063142796106 -57.022933017404497 -10.20625910476336 #
straight-curve $-1 -78.93063142796106 57.022933017404497 0 0 0 -1 I I #
point $-1 -78.93063142796106 57.022933017404497 -10.20625910476336 #
End-of-ACIS-data 