500 0 6 0           
7 Unknown 11 ACIS 5.0 NT 24 Fri Mar 26 18:41:12 1999 
-1 9.9999999999999995e-007 1e-010 
body $-1 $6 $-1 $7 #
body $-1 $8 $-1 $9 #
body $-1 $10 $-1 $11 #
body $-1 $12 $-1 $13 #
body $-1 $14 $-1 $15 #
body $-1 $16 $-1 $17 #
lump $-1 $-1 $18 $0 #
transform $-1 1 0 0 0 1 0 0 0 1 67.554551835688343 37.246850651090419 8.4437713555232357 1 rotate no_reflect no_shear #
lump $-1 $-1 $19 $1 #
transform $-1 1 0 0 0 1 0 0 0 1 67.554551835688343 37.246850651090419 8.4437713555232357 1 rotate no_reflect no_shear #
lump $-1 $-1 $20 $2 #
transform $-1 1 0 0 0 1 0 0 0 1 67.554551835688343 37.246850651090419 8.4437713555232357 1 rotate no_reflect no_shear #
lump $-1 $-1 $21 $3 #
transform $-1 1 0 0 0 1 0 0 0 1 67.554551835688343 37.246850651090419 8.4437713555232357 1 rotate no_reflect no_shear #
lump $-1 $-1 $22 $4 #
transform $-1 1 0 0 0 1 0 0 0 1 67.554551835688343 37.246850651090419 8.4437713555232357 1 rotate no_reflect no_shear #
lump $-1 $-1 $23 $5 #
transform $-1 1 0 0 0 1 0 0 0 1 67.554551835688343 37.246850651090419 8.4437713555232357 1 rotate no_reflect no_shear #
shell $-1 $-1 $-1 $24 $-1 $6 #
shell $-1 $-1 $-1 $25 $-1 $8 #
shell $-1 $-1 $-1 $26 $-1 $10 #
shell $-1 $-1 $-1 $27 $-1 $12 #
shell $-1 $-1 $-1 $28 $-1 $14 #
shell $-1 $-1 $-1 $29 $-1 $16 #
face $-1 $30 $31 $18 $-1 $32 forward single #
face $-1 $33 $34 $19 $-1 $35 forward single #
face $-1 $36 $37 $20 $-1 $38 reversed single #
face $-1 $39 $40 $21 $-1 $41 forward single #
face $-1 $42 $43 $22 $-1 $44 forward single #
face $-1 $45 $46 $23 $-1 $47 forward single #
face $-1 $48 $49 $18 $-1 $50 reversed single #
loop $-1 $-1 $51 $24 #
plane-surface $-1 0 0 8.4437713555232357 0 0 1 1 0 0 forward_v I I I I #
face $-1 $52 $53 $19 $-1 $54 reversed single #
loop $-1 $-1 $55 $25 #
plane-surface $-1 0 -33.777975075835244 2.1630775039348187 0 0 1 1 0 0 forward_v I I I I #
face $-1 $56 $57 $20 $-1 $58 reversed single #
loop $-1 $-1 $59 $26 #
plane-surface $-1 -169.52268787165031 5.9643793810435177 92.590421241429738 0 1 0 -0.75470958851134928 0 0.65605901945558964 forward_v I I I I #
face $-1 $60 $61 $21 $-1 $62 forward single #
loop $-1 $63 $64 $27 #
cone-surface $-1 -65.224389555840744 8.874643613811088 5.8692937516651913 0.75470958851134928 0 -0.65605901945558964 0.32802950972779482 0 0.37735479425567464 1 I I 0 1 0.5 forward I I I I #
face $-1 $65 $66 $22 $-1 $67 forward single #
loop $-1 $68 $69 $28 #
cone-surface $-1 -65.224389555840744 13.240039962962449 5.8692937516651913 0.75470958851134928 0 -0.65605901945558964 0.32802950972779482 0 0.37735479425567464 1 I I 0 1 0.5 forward I I I I #
face $-1 $70 $71 $23 $-1 $72 forward single #
loop $-1 $73 $74 $29 #
cone-surface $-1 -65.224389555840744 17.60543631211381 5.8692937516651913 0.75470958851134928 0 -0.65605901945558964 0.32802950972779482 0 0.37735479425567464 1 I I 0 1 0.5 forward I I I I #
face $-1 $75 $76 $18 $-1 $77 reversed single #
loop $-1 $-1 $78 $30 #
plane-surface $-1 0 0 -8.4437713555232357 0 0 1 1 0 0 forward_v I I I I #
coedge $-1 $79 $80 $81 $82 forward $31 $-1 #
face $-1 $83 $84 $19 $-1 $85 reversed single #
loop $-1 $-1 $86 $33 #
plane-surface $-1 0 -33.777975075835244 -0.83692249606518132 0 0 1 1 0 0 forward_v I I I I #
coedge $-1 $87 $88 $89 $90 reversed $34 $-1 #
face $-1 $91 $92 $20 $-1 $93 reversed single #
loop $-1 $-1 $94 $36 #
plane-surface $-1 -67.554551835688372 13.240039962962449 3.9508751672627369 -0.75470958851134928 0 0.65605901945558964 0.65605901945558964 0 0.75470958851134928 forward_v I I I I #
coedge $-1 $95 $96 $97 $98 reversed $37 $-1 #
face $-1 $-1 $99 $21 $-1 $100 forward single #
loop $-1 $101 $102 $39 #
cone-surface $-1 -64.658357364457231 8.874643613811088 5.3772494870734988 0.75470958851134928 0 -0.65605901945558964 0.16401475486389741 0 0.18867739712783732 1 I I -0.70710678118654746 0.70710678118654746 0.25 forward I I I I #
loop $-1 $-1 $103 $27 #
coedge $-1 $64 $64 $104 $105 reversed $40 $-1 #
face $-1 $-1 $106 $22 $-1 $107 forward single #
loop $-1 $108 $109 $42 #
cone-surface $-1 -64.658357364457231 13.240039962962449 5.3772494870734988 0.75470958851134928 0 -0.65605901945558964 0.16401475486389741 0 0.18867739712783732 1 I I -0.70710678118654746 0.70710678118654746 0.25 forward I I I I #
loop $-1 $-1 $110 $28 #
coedge $-1 $69 $69 $111 $112 reversed $43 $-1 #
face $-1 $-1 $113 $23 $-1 $114 forward single #
loop $-1 $115 $116 $45 #
cone-surface $-1 -64.658357364457231 17.60543631211381 5.3772494870734988 0.75470958851134928 0 -0.65605901945558964 0.16401475486389741 0 0.18867739712783732 1 I I -0.70710678118654746 0.70710678118654746 0.25 forward I I I I #
loop $-1 $-1 $117 $29 #
coedge $-1 $74 $74 $118 $119 reversed $46 $-1 #
face $-1 $120 $121 $18 $-1 $122 reversed single #
loop $-1 $-1 $123 $48 #
plane-surface $-1 0 -37.246850651090419 0 0 1 0 0 0 1 forward_v I I I I #
coedge $-1 $124 $125 $126 $127 forward $49 $-1 #
coedge $-1 $128 $51 $129 $130 forward $31 $-1 #
coedge $-1 $51 $128 $131 $132 forward $31 $-1 #
coedge $-1 $133 $134 $51 $82 reversed $135 $-1 #
edge $-1 $136 -37.246850651090419 $137 37.246850651090419 $81 $138 forward 7 unknown #
face $-1 $139 $140 $19 $-1 $141 reversed single #
loop $-1 $-1 $142 $52 #
plane-surface $-1 0 -30.309099500580071 0.66307750393481868 0 -1 0 0 0 -1 forward_v I I I I #
coedge $-1 $143 $144 $145 $146 reversed $53 $-1 #
coedge $-1 $147 $55 $148 $149 forward $34 $-1 #
coedge $-1 $55 $147 $150 $151 reversed $34 $-1 #
coedge $-1 $152 $153 $55 $90 forward $154 $-1 #
edge $-1 $155 13.42011196266245 $156 20.357863113172797 $89 $157 forward 7 unknown #
face $-1 $158 $159 $20 $-1 $160 reversed single #
loop $-1 $-1 $161 $56 #
plane-surface $-1 -169.52268787165031 20.51570054488138 92.590421241429738 0 -1 0 0.75470958851134928 0 -0.65605901945558964 forward_v I I I I #
coedge $-1 $162 $163 $164 $165 reversed $57 $-1 #
coedge $-1 $96 $59 $166 $167 reversed $37 $-1 #
coedge $-1 $59 $95 $162 $168 reversed $37 $-1 #
coedge $-1 $164 $169 $59 $98 forward $170 $-1 #
edge $-1 $171 17.206792100136809 $172 21.112407071320646 $97 $173 forward 7 unknown #
loop $-1 $-1 $104 $60 #
plane-surface $-1 -67.554551835688372 13.240039962962449 3.9508751672627369 -0.75470958851134928 0 0.65605901945558964 0.65605901945558964 0 0.75470958851134928 forward_v I I I I #
loop $-1 $-1 $174 $39 #
coedge $-1 $102 $102 $103 $175 reversed $61 $-1 #
coedge $-1 $103 $103 $102 $175 forward $63 $-1 #
coedge $-1 $104 $104 $64 $105 forward $99 $-1 #
edge $-1 $176 0 $176 6.2831853071796004 $104 $177 forward 7 unknown #
loop $-1 $-1 $111 $65 #
plane-surface $-1 -67.554551835688372 13.240039962962449 3.9508751672627369 -0.75470958851134928 0 0.65605901945558964 0.65605901945558964 0 0.75470958851134928 forward_v I I I I #
loop $-1 $-1 $178 $42 #
coedge $-1 $109 $109 $110 $179 reversed $66 $-1 #
coedge $-1 $110 $110 $109 $179 forward $68 $-1 #
coedge $-1 $111 $111 $69 $112 forward $106 $-1 #
edge $-1 $180 0 $180 6.2831853071796004 $111 $181 forward 7 unknown #
loop $-1 $-1 $118 $70 #
plane-surface $-1 -67.554551835688372 13.240039962962449 3.9508751672627369 -0.75470958851134928 0 0.65605901945558964 0.65605901945558964 0 0.75470958851134928 forward_v I I I I #
loop $-1 $-1 $182 $45 #
coedge $-1 $116 $116 $117 $183 reversed $71 $-1 #
coedge $-1 $117 $117 $116 $183 forward $73 $-1 #
coedge $-1 $118 $118 $74 $119 forward $113 $-1 #
edge $-1 $184 0 $184 6.2831853071796004 $118 $185 forward 7 unknown #
face $-1 $186 $187 $18 $-1 $188 reversed single #
loop $-1 $-1 $189 $75 #
plane-surface $-1 -67.554551835688343 0 0 1 0 0 0 0 -1 forward_v I I I I #
coedge $-1 $190 $131 $191 $192 forward $76 $-1 #
coedge $-1 $193 $78 $190 $194 forward $49 $-1 #
coedge $-1 $78 $193 $195 $196 forward $49 $-1 #
coedge $-1 $134 $133 $78 $127 reversed $135 $-1 #
edge $-1 $197 -37.246850651090419 $198 37.246850651090419 $126 $199 forward 7 unknown #
coedge $-1 $80 $79 $200 $201 forward $31 $-1 #
coedge $-1 $202 $203 $79 $130 reversed $187 $-1 #
edge $-1 $137 -67.554551835688343 $204 67.554551835688343 $129 $205 forward 7 unknown #
coedge $-1 $123 $206 $80 $132 reversed $76 $-1 #
edge $-1 $207 -67.554551835688343 $136 67.554551835688343 $131 $208 forward 7 unknown #
coedge $-1 $126 $81 $206 $209 forward $135 $-1 #
coedge $-1 $81 $126 $202 $210 reversed $135 $-1 #
loop $-1 $-1 $133 $186 #
vertex $-1 $82 $211 #
vertex $-1 $82 $212 #
straight-curve $-1 67.554551835688343 0 8.4437713555232357 0 1 0 I I #
face $-1 $213 $214 $19 $-1 $215 reversed single #
loop $-1 $-1 $216 $83 #
plane-surface $-1 -67.554551835688343 0 0 1 0 0 0 0 -1 forward_v I I I I #
coedge $-1 $217 $148 $153 $218 reversed $84 $-1 #
coedge $-1 $219 $86 $220 $221 reversed $53 $-1 #
coedge $-1 $86 $219 $217 $222 forward $53 $-1 #
coedge $-1 $153 $152 $86 $146 forward $154 $-1 #
edge $-1 $223 -20.357863113172797 $224 -13.42011196266245 $145 $225 forward 7 unknown #
coedge $-1 $88 $87 $216 $226 reversed $34 $-1 #
coedge $-1 $142 $227 $87 $149 reversed $84 $-1 #
edge $-1 $155 -67.554551835688343 $228 67.554551835688343 $148 $229 forward 7 unknown #
coedge $-1 $230 $231 $88 $151 forward $214 $-1 #
edge $-1 $156 -67.554551835688343 $232 67.554551835688343 $150 $233 forward 7 unknown #
coedge $-1 $145 $89 $231 $234 forward $154 $-1 #
coedge $-1 $89 $145 $142 $218 forward $154 $-1 #
loop $-1 $-1 $89 $213 #
vertex $-1 $90 $235 #
vertex $-1 $234 $236 #
straight-curve $-1 67.554551835688343 -16.888987537917622 2.1630775039348187 0 -1 0 I I #
face $-1 $-1 $170 $20 $-1 $237 forward single #
loop $-1 $-1 $238 $91 #
plane-surface $-1 -67.554551835688343 0 0 1 0 0 0 0 -1 forward_v I I I I #
coedge $-1 $239 $240 $241 $242 reversed $92 $-1 #
coedge $-1 $243 $94 $96 $168 forward $57 $-1 #
coedge $-1 $94 $243 $239 $244 forward $57 $-1 #
coedge $-1 $241 $97 $94 $165 forward $170 $-1 #
edge $-1 $172 -0.65564060043770667 $245 13.895680563400155 $164 $246 forward 7 unknown #
coedge $-1 $247 $248 $95 $167 forward $159 $-1 #
edge $-1 $249 -42.344335453452096 $171 -37.85143926519163 $166 $250 forward 7 unknown #
edge $-1 $172 -5.9531457618322507 $249 -4.3448039297454601e-014 $96 $251 forward 7 unknown #
coedge $-1 $97 $241 $247 $252 forward $170 $-1 #
loop $-1 $-1 $241 $158 #
vertex $-1 $167 $253 #
vertex $-1 $98 $254 #
straight-curve $-1 -84.761343935825153 5.9643793810435177 8.4437713555232392 1 0 0 I I #
coedge $-1 $174 $174 $-1 $255 reversed $101 $-1 #
edge $-1 $256 0 $256 6.2831853071796004 $102 $257 forward 7 unknown #
vertex $-1 $105 $258 #
ellipse-curve $-1 -65.601744350096425 8.874643613811088 6.1973232613929961 -0.75470958851134928 0 0.65605901945558964 0.32802950972779482 0 0.37735479425567464 1 I I #
coedge $-1 $178 $178 $-1 $259 reversed $108 $-1 #
edge $-1 $260 0 $260 6.2831853071796004 $109 $261 forward 7 unknown #
vertex $-1 $112 $262 #
ellipse-curve $-1 -65.601744350096425 13.240039962962449 6.1973232613929961 -0.75470958851134928 0 0.65605901945558964 0.32802950972779482 0 0.37735479425567464 1 I I #
coedge $-1 $182 $182 $-1 $263 reversed $115 $-1 #
edge $-1 $264 0 $264 6.2831853071796004 $116 $265 forward 7 unknown #
vertex $-1 $119 $266 #
ellipse-curve $-1 -65.601744350096425 17.60543631211381 6.1973232613929961 -0.75470958851134928 0 0.65605901945558964 0.32802950972779482 0 0.37735479425567464 1 I I #
face $-1 $-1 $135 $18 $-1 $267 reversed single #
loop $-1 $-1 $202 $120 #
plane-surface $-1 0 37.246850651090419 0 0 -1 0 0 0 -1 forward_v I I I I #
coedge $-1 $268 $200 $203 $269 forward $121 $-1 #
coedge $-1 $206 $123 $124 $194 reversed $76 $-1 #
coedge $-1 $200 $268 $123 $192 reversed $121 $-1 #
edge $-1 $207 -8.4437713555232357 $270 8.4437713555232357 $191 $271 forward 7 unknown #
coedge $-1 $125 $124 $268 $272 forward $49 $-1 #
edge $-1 $198 -67.554551835688343 $270 67.554551835688343 $190 $273 forward 7 unknown #
coedge $-1 $203 $202 $125 $196 reversed $187 $-1 #
edge $-1 $274 -67.554551835688343 $197 67.554551835688343 $195 $275 forward 7 unknown #
vertex $-1 $127 $276 #
vertex $-1 $209 $277 #
straight-curve $-1 67.554551835688343 0 -8.4437713555232357 0 -1 0 I I #
coedge $-1 $189 $191 $128 $201 reversed $121 $-1 #
edge $-1 $204 -37.246850651090419 $207 37.246850651090419 $200 $278 forward 7 unknown #
coedge $-1 $195 $129 $134 $210 forward $187 $-1 #
coedge $-1 $129 $195 $189 $269 reversed $187 $-1 #
vertex $-1 $130 $279 #
straight-curve $-1 0 37.246850651090419 8.4437713555232357 -1 0 0 I I #
coedge $-1 $131 $190 $133 $209 reversed $76 $-1 #
vertex $-1 $201 $280 #
straight-curve $-1 0 -37.246850651090419 8.4437713555232357 1 0 0 I I #
edge $-1 $136 -8.4437713555232357 $198 8.4437713555232357 $133 $281 forward 7 unknown #
edge $-1 $137 -8.4437713555232357 $197 8.4437713555232357 $134 $282 forward 7 unknown #
point $-1 67.554551835688343 -37.246850651090419 8.4437713555232357 #
point $-1 67.554551835688343 37.246850651090419 8.4437713555232357 #
face $-1 $-1 $154 $19 $-1 $283 reversed single #
loop $-1 $-1 $150 $139 #
plane-surface $-1 0 -37.246850651090419 0 0 1 0 0 0 1 forward_v I I I I #
coedge $-1 $284 $285 $147 $226 forward $140 $-1 #
coedge $-1 $227 $142 $144 $222 reversed $84 $-1 #
edge $-1 $224 -1.1684612480325907 $155 1.8315387519674093 $153 $286 forward 7 unknown #
coedge $-1 $144 $143 $287 $288 reversed $53 $-1 #
coedge $-1 $231 $230 $143 $221 forward $214 $-1 #
edge $-1 $289 -67.554551835688343 $223 67.554551835688343 $220 $290 forward 7 unknown #
edge $-1 $291 -67.554551835688343 $224 67.554551835688343 $217 $292 forward 7 unknown #
vertex $-1 $221 $293 #
vertex $-1 $146 $294 #
straight-curve $-1 67.554551835688343 -16.888987537917622 -0.83692249606518132 0 1 0 I I #
edge $-1 $232 -20.357863113172797 $228 -13.42011196266245 $216 $295 forward 7 unknown #
coedge $-1 $148 $217 $284 $296 reversed $84 $-1 #
vertex $-1 $226 $297 #
straight-curve $-1 0 -30.309099500580071 2.1630775039348187 -1 0 0 I I #
coedge $-1 $220 $150 $285 $298 forward $214 $-1 #
coedge $-1 $150 $220 $152 $234 reversed $214 $-1 #
vertex $-1 $298 $299 #
straight-curve $-1 0 -37.246850651090419 2.1630775039348187 -1 0 0 I I #
edge $-1 $156 -2.1630775039348187 $223 0.83692249606518132 $152 $300 forward 7 unknown #
point $-1 67.554551835688343 -30.309099500580071 2.1630775039348187 #
point $-1 67.554551835688343 -37.246850651090419 2.1630775039348187 #
plane-surface $-1 0 0 8.4437713555232357 0 0 1 1 0 0 forward_v I I I I #
coedge $-1 $248 $247 $240 $301 forward $159 $-1 #
coedge $-1 $240 $161 $163 $244 reversed $92 $-1 #
coedge $-1 $161 $239 $238 $301 reversed $92 $-1 #
coedge $-1 $169 $164 $161 $242 forward $170 $-1 #
edge $-1 $245 -21.112407071320646 $302 -17.206792100136809 $241 $303 forward 7 unknown #
coedge $-1 $163 $162 $248 $304 reversed $57 $-1 #
edge $-1 $305 4.3448039297454601e-014 $245 5.9531457618322507 $239 $306 forward 7 unknown #
vertex $-1 $165 $307 #
straight-curve $-1 -63.648936864504513 6.6200199814812244 8.4437713555232339 0 1 0 I I #
coedge $-1 $238 $166 $169 $252 reversed $159 $-1 #
coedge $-1 $166 $238 $243 $304 forward $159 $-1 #
vertex $-1 $167 $308 #
straight-curve $-1 -67.554551835688343 5.9643793810435177 46.295210620714869 0 0 1 I I #
straight-curve $-1 -67.554551835688372 5.9643793810435177 3.9508751672627369 -0.65605901945558964 0 -0.75470958851134928 I I #
edge $-1 $302 -20.51570054488138 $171 -5.9643793810435177 $247 $309 forward 7 unknown #
point $-1 -67.554551835688343 5.9643793810435177 8.4437713555232357 #
point $-1 -63.648936864504506 5.9643793810435177 8.4437713555232357 #
edge $-1 $310 1 $310 0 $174 $-1 forward 7 unknown #
vertex $-1 $175 $311 #
ellipse-curve $-1 -64.847034761585064 8.874643613811088 5.5412642419373963 -0.75470958851134928 0 0.65605901945558964 0.32802950972779482 0 0.37735479425567464 1 I I #
point $-1 -65.273714840368626 8.874643613811088 6.5746780556486604 #
edge $-1 $312 1 $312 0 $178 $-1 forward 7 unknown #
vertex $-1 $179 $313 #
ellipse-curve $-1 -64.847034761585064 13.240039962962449 5.5412642419373963 -0.75470958851134928 0 0.65605901945558964 0.32802950972779482 0 0.37735479425567464 1 I I #
point $-1 -65.273714840368626 13.240039962962449 6.5746780556486604 #
edge $-1 $314 1 $314 0 $182 $-1 forward 7 unknown #
vertex $-1 $183 $315 #
ellipse-curve $-1 -64.847034761585064 17.60543631211381 5.5412642419373963 -0.75470958851134928 0 0.65605901945558964 0.32802950972779482 0 0.37735479425567464 1 I I #
point $-1 -65.273714840368626 17.60543631211381 6.5746780556486604 #
plane-surface $-1 67.554551835688343 0 0 -1 0 0 0 0 1 forward_v I I I I #
coedge $-1 $191 $189 $193 $272 reversed $121 $-1 #
edge $-1 $204 -8.4437713555232357 $274 8.4437713555232357 $203 $316 forward 7 unknown #
vertex $-1 $272 $317 #
straight-curve $-1 -67.554551835688343 -37.246850651090419 0 0 0 -1 I I #
edge $-1 $270 -37.246850651090419 $274 37.246850651090419 $268 $318 forward 7 unknown #
straight-curve $-1 0 -37.246850651090419 -8.4437713555232357 -1 0 0 I I #
vertex $-1 $196 $319 #
straight-curve $-1 0 37.246850651090419 -8.4437713555232357 1 0 0 I I #
point $-1 67.554551835688343 37.246850651090419 -8.4437713555232357 #
point $-1 67.554551835688343 -37.246850651090419 -8.4437713555232357 #
straight-curve $-1 -67.554551835688343 0 8.4437713555232357 0 -1 0 I I #
point $-1 -67.554551835688343 37.246850651090419 8.4437713555232357 #
point $-1 -67.554551835688343 -37.246850651090419 8.4437713555232357 #
straight-curve $-1 67.554551835688343 -37.246850651090419 0 0 0 -1 I I #
straight-curve $-1 67.554551835688343 37.246850651090419 0 0 0 -1 I I #
plane-surface $-1 67.554551835688343 0 0 -1 0 0 0 0 1 forward_v I I I I #
coedge $-1 $287 $216 $227 $296 forward $140 $-1 #
coedge $-1 $216 $287 $230 $298 reversed $140 $-1 #
straight-curve $-1 67.554551835688343 -30.309099500580071 0.33153875196740934 0 0 1 I I #
coedge $-1 $285 $284 $219 $288 forward $140 $-1 #
edge $-1 $291 13.42011196266245 $289 20.357863113172797 $287 $320 forward 7 unknown #
vertex $-1 $221 $321 #
straight-curve $-1 0 -37.246850651090419 -0.83692249606518132 1 0 0 I I #
vertex $-1 $288 $322 #
straight-curve $-1 0 -30.309099500580071 -0.83692249606518132 1 0 0 I I #
point $-1 67.554551835688343 -37.246850651090419 -0.83692249606518132 #
point $-1 67.554551835688343 -30.309099500580071 -0.83692249606518132 #
straight-curve $-1 -67.554551835688343 -16.888987537917622 2.1630775039348187 0 1 0 I I #
edge $-1 $228 -1.8315387519674093 $291 1.1684612480325907 $284 $323 forward 7 unknown #
point $-1 -67.554551835688343 -30.309099500580071 2.1630775039348187 #
edge $-1 $232 -2.1630775039348187 $289 0.83692249606518132 $285 $324 forward 7 unknown #
point $-1 -67.554551835688343 -37.246850651090419 2.1630775039348187 #
straight-curve $-1 67.554551835688343 -37.246850651090419 0 0 0 -1 I I #
edge $-1 $302 37.85143926519163 $305 42.344335453452096 $238 $325 forward 7 unknown #
vertex $-1 $252 $326 #
straight-curve $-1 -84.761343935825153 20.51570054488138 8.4437713555232392 -1 0 0 I I #
edge $-1 $305 -13.895680563400155 $249 0.65564060043770667 $248 $327 forward 7 unknown #
vertex $-1 $304 $328 #
straight-curve $-1 -67.554551835688372 20.51570054488138 3.9508751672627369 0.65605901945558964 0 0.75470958851134928 I I #
point $-1 -63.648936864504506 20.51570054488138 8.4437713555232357 #
point $-1 -67.554551835688343 5.9643793810435177 3.9508751672627698 #
straight-curve $-1 -67.554551835688343 0 8.4437713555232357 0 -1 0 I I #
vertex $-1 $255 $329 #
point $-1 -64.51900525185728 8.874643613811088 5.9186190361930713 #
vertex $-1 $259 $330 #
point $-1 -64.51900525185728 13.240039962962449 5.9186190361930713 #
vertex $-1 $263 $331 #
point $-1 -64.51900525185728 17.60543631211381 5.9186190361930713 #
straight-curve $-1 -67.554551835688343 37.246850651090419 0 0 0 -1 I I #
point $-1 -67.554551835688343 -37.246850651090419 -8.4437713555232357 #
straight-curve $-1 -67.554551835688343 0 -8.4437713555232357 0 1 0 I I #
point $-1 -67.554551835688343 37.246850651090419 -8.4437713555232357 #
straight-curve $-1 -67.554551835688343 -16.888987537917622 -0.83692249606518132 0 -1 0 I I #
point $-1 -67.554551835688343 -37.246850651090419 -0.83692249606518132 #
point $-1 -67.554551835688343 -30.309099500580071 -0.83692249606518132 #
straight-curve $-1 -67.554551835688343 -30.309099500580071 0.33153875196740934 0 0 -1 I I #
straight-curve $-1 -67.554551835688343 -37.246850651090419 0 0 0 -1 I I #
straight-curve $-1 -67.554551835688343 20.51570054488138 46.295210620714869 0 0 -1 I I #
point $-1 -67.554551835688343 20.51570054488138 8.4437713555232357 #
straight-curve $-1 -67.554551835688343 6.6200199814812244 3.9508751672627627 0 -1 0 I I #
point $-1 -67.554551835688343 20.51570054488138 3.9508751672627698 #
point $-1 -64.469679967329398 8.874643613811088 5.2132347322096013 #
point $-1 -64.469679967329398 13.240039962962449 5.2132347322096013 #
point $-1 -64.469679967329398 17.60543631211381 5.2132347322096013 #
End-of-ACIS-data 