500 0 8 0           
7 Unknown 11 ACIS 5.0 NT 24 Thu Mar 25 22:38:26 1999 
-1 9.9999999999999995e-007 1e-010 
body $-1 $8 $-1 $9 #
body $-1 $10 $-1 $11 #
body $-1 $12 $-1 $13 #
body $-1 $14 $-1 $15 #
body $-1 $16 $-1 $17 #
body $-1 $18 $-1 $19 #
body $-1 $20 $-1 $21 #
body $-1 $22 $-1 $23 #
lump $-1 $-1 $24 $0 #
transform $-1 1 0 0 0 1 0 0 0 1 69.911801507614371 33.92387651023185 8.9645088633929113 1 rotate no_reflect no_shear #
lump $-1 $-1 $25 $1 #
transform $-1 1 0 0 0 1 0 0 0 1 69.911801507614371 33.92387651023185 8.9645088633929113 1 rotate no_reflect no_shear #
lump $-1 $-1 $26 $2 #
transform $-1 1 0 0 0 1 0 0 0 1 69.911801507614371 33.92387651023185 8.9645088633929113 1 rotate no_reflect no_shear #
lump $-1 $-1 $27 $3 #
transform $-1 1 0 0 0 1 0 0 0 1 69.911801507614371 33.92387651023185 8.9645088633929113 1 rotate no_reflect no_shear #
lump $-1 $-1 $28 $4 #
transform $-1 1 0 0 0 1 0 0 0 1 69.911801507614371 33.92387651023185 8.9645088633929113 1 rotate no_reflect no_shear #
lump $-1 $-1 $29 $5 #
transform $-1 1 0 0 0 1 0 0 0 1 69.911801507614371 33.92387651023185 8.9645088633929113 1 rotate no_reflect no_shear #
lump $-1 $-1 $30 $6 #
transform $-1 1 0 0 0 1 0 0 0 1 69.911801507614371 33.92387651023185 8.9645088633929113 1 rotate no_reflect no_shear #
lump $-1 $-1 $31 $7 #
transform $-1 1 0 0 0 1 0 0 0 1 69.911801507614371 33.92387651023185 8.9645088633929113 1 rotate no_reflect no_shear #
shell $-1 $-1 $-1 $32 $-1 $8 #
shell $-1 $-1 $-1 $33 $-1 $10 #
shell $-1 $-1 $-1 $34 $-1 $12 #
shell $-1 $-1 $-1 $35 $-1 $14 #
shell $-1 $-1 $-1 $36 $-1 $16 #
shell $-1 $-1 $-1 $37 $-1 $18 #
shell $-1 $-1 $-1 $38 $-1 $20 #
shell $-1 $-1 $-1 $39 $-1 $22 #
face $-1 $40 $41 $24 $-1 $42 forward single #
face $-1 $43 $44 $25 $-1 $45 forward single #
face $-1 $46 $47 $26 $-1 $48 forward single #
face $-1 $49 $50 $27 $-1 $51 reversed single #
face $-1 $52 $53 $28 $-1 $54 forward single #
face $-1 $55 $56 $29 $-1 $57 forward single #
face $-1 $58 $59 $30 $-1 $60 reversed single #
face $-1 $61 $62 $31 $-1 $63 forward single #
face $-1 $64 $65 $24 $-1 $66 reversed single #
loop $-1 $-1 $67 $32 #
plane-surface $-1 0 0 8.9645088633929113 0 0 1 1 0 0 forward_v I I I I #
face $-1 $68 $69 $25 $-1 $70 reversed single #
loop $-1 $-1 $71 $33 #
plane-surface $-1 -69.911801507614371 0 0 1 0 0 0 0 -1 forward_v I I I I #
face $-1 $72 $73 $26 $-1 $74 reversed single #
loop $-1 $-1 $75 $34 #
plane-surface $-1 69.911801507614371 0 0 -1 0 0 0 0 1 forward_v I I I I #
face $-1 $76 $77 $27 $-1 $78 reversed single #
loop $-1 $-1 $79 $35 #
plane-surface $-1 41.766489753422746 -116.11012933496212 113.22142389862931 -1 0 0 0 -0.5877852598018023 0.80901698891910034 forward_v I I I I #
face $-1 $80 $81 $28 $-1 $82 forward single #
loop $-1 $83 $84 $36 #
cone-surface $-1 29.94297193853906 -27.341206461942573 3.8677853136791338 0 0.5877852598018023 -0.80901698891910034 1 0 0 1 I I 0 1 1 forward I I I I #
face $-1 $85 $86 $29 $-1 $87 forward single #
loop $-1 $88 $89 $37 #
cone-surface $-1 37.037082627469275 -27.341206461942573 3.8677853136791338 0 0.5877852598018023 -0.80901698891910034 1 0 0 1 I I 0 1 1 forward I I I I #
face $-1 $90 $91 $30 $-1 $92 reversed single #
loop $-1 $-1 $93 $38 #
plane-surface $-1 -13.135358083243805 77.063423818531916 151.6099377636591 1 0 0 0 -0.66913061440640931 -0.74314481823134659 forward_v I I I I #
face $-1 $94 $95 $31 $-1 $96 forward single #
loop $-1 $97 $98 $39 #
cone-surface $-1 -4.6314652621603045 27.804597747836159 2.9461064370435008 0 -0.66913061440640931 -0.74314481823134659 2 0 0 1 I I 0 1 2 forward I I I I #
face $-1 $99 $100 $24 $-1 $101 reversed single #
loop $-1 $-1 $102 $40 #
plane-surface $-1 0 0 -8.9645088633929113 0 0 1 1 0 0 forward_v I I I I #
coedge $-1 $103 $104 $105 $106 forward $41 $-1 #
face $-1 $107 $108 $25 $-1 $109 reversed single #
loop $-1 $-1 $110 $43 #
plane-surface $-1 0 0 -8.9645088633929113 0 0 1 1 0 0 forward_v I I I I #
coedge $-1 $111 $112 $113 $114 forward $44 $-1 #
face $-1 $115 $116 $26 $-1 $117 reversed single #
loop $-1 $-1 $118 $46 #
plane-surface $-1 0 0 -8.9645088633929113 0 0 1 1 0 0 forward_v I I I I #
coedge $-1 $119 $120 $121 $122 forward $47 $-1 #
face $-1 $123 $124 $27 $-1 $125 reversed single #
loop $-1 $-1 $126 $49 #
plane-surface $-1 33.490027283004167 -33.923876510231835 0.10175360742931616 0 -0.5877852598018023 0.80901698891910034 1 0 0 forward_v I I I I #
coedge $-1 $127 $128 $129 $130 reversed $50 $-1 #
face $-1 $-1 $131 $28 $-1 $132 forward single #
loop $-1 $133 $134 $52 #
cone-surface $-1 29.94297193853906 -26.563911714632724 2.7979308974875998 0 0.5877852598018023 -0.80901698891910034 0.5 0 0 1 I I -0.70710678118654746 0.70710678118654746 0.5 forward I I I I #
loop $-1 $-1 $135 $36 #
coedge $-1 $84 $84 $136 $137 reversed $53 $-1 #
face $-1 $-1 $138 $29 $-1 $139 forward single #
loop $-1 $140 $141 $55 #
cone-surface $-1 37.037082627469275 -26.563911714632724 2.7979308974875998 0 0.5877852598018023 -0.80901698891910034 0.5 0 0 1 I I -0.70710678118654746 0.70710678118654746 0.5 forward I I I I #
loop $-1 $-1 $142 $37 #
coedge $-1 $89 $89 $143 $144 reversed $56 $-1 #
face $-1 $145 $146 $30 $-1 $147 reversed single #
loop $-1 $-1 $148 $58 #
plane-surface $-1 -4.6314652621602903 -16.496829575565954 47.700751716454974 0 0.66913061440640931 0.74314481823134659 1 0 0 forward_v I I I I #
coedge $-1 $149 $150 $151 $152 reversed $59 $-1 #
face $-1 $-1 $153 $31 $-1 $154 forward single #
loop $-1 $155 $156 $61 #
cone-surface $-1 -4.6314652621603045 24.716063837338311 -0.48405790172970953 0 -0.66913061440640931 -0.74314481823134659 1 0 0 1 I I -0.70710678118654735 0.70710678118654768 1 forward I I I I #
loop $-1 $-1 $157 $39 #
coedge $-1 $98 $98 $158 $159 reversed $62 $-1 #
face $-1 $160 $161 $24 $-1 $162 reversed single #
loop $-1 $-1 $163 $64 #
plane-surface $-1 0 -33.92387651023185 0 0 1 0 0 0 1 forward_v I I I I #
coedge $-1 $164 $165 $166 $167 forward $65 $-1 #
coedge $-1 $168 $67 $169 $170 forward $41 $-1 #
coedge $-1 $67 $168 $171 $172 forward $41 $-1 #
coedge $-1 $173 $174 $67 $106 reversed $175 $-1 #
edge $-1 $176 -33.92387651023185 $177 33.92387651023185 $105 $178 forward 7 unknown #
face $-1 $179 $180 $25 $-1 $181 reversed single #
loop $-1 $-1 $182 $68 #
plane-surface $-1 -73.919985067742957 -21.442637522493563 0 0 1 0 0 0 1 forward_v I I I I #
coedge $-1 $183 $184 $112 $185 forward $69 $-1 #
coedge $-1 $186 $71 $187 $188 reversed $44 $-1 #
coedge $-1 $71 $186 $110 $185 reversed $44 $-1 #
coedge $-1 $189 $190 $71 $114 reversed $191 $-1 #
edge $-1 $192 -8.9645088633929113 $193 8.9645088633929113 $113 $194 forward 7 unknown #
face $-1 $195 $196 $26 $-1 $197 reversed single #
loop $-1 $-1 $121 $72 #
plane-surface $-1 73.919985067742971 -21.442637522493563 0 0 1 0 0 0 1 forward_v I I I I #
coedge $-1 $198 $199 $120 $200 forward $73 $-1 #
coedge $-1 $201 $75 $202 $203 reversed $47 $-1 #
coedge $-1 $75 $201 $118 $200 reversed $47 $-1 #
coedge $-1 $204 $205 $75 $122 reversed $116 $-1 #
edge $-1 $206 -8.9645088633929113 $207 8.9645088633929113 $121 $208 forward 7 unknown #
face $-1 $209 $210 $27 $-1 $211 forward single #
loop $-1 $-1 $212 $76 #
plane-surface $-1 25.213564812585588 -116.11012933496212 113.22142389862931 1 0 0 0 0.5877852598018023 -0.80901698891910034 forward_v I I I I #
coedge $-1 $213 $214 $215 $216 reversed $77 $-1 #
coedge $-1 $128 $79 $217 $218 reversed $50 $-1 #
coedge $-1 $79 $127 $213 $219 reversed $50 $-1 #
coedge $-1 $215 $220 $79 $130 forward $210 $-1 #
edge $-1 $221 24.131188157249213 $222 36.329724019009902 $129 $223 forward 7 unknown #
loop $-1 $-1 $136 $80 #
plane-surface $-1 33.490027283004167 -33.923876510231835 0.10175360742931616 0 -0.5877852598018023 0.80901698891910034 1 0 0 forward_v I I I I #
loop $-1 $-1 $224 $52 #
coedge $-1 $134 $134 $135 $225 reversed $81 $-1 #
coedge $-1 $135 $135 $134 $225 forward $83 $-1 #
coedge $-1 $136 $136 $84 $137 forward $131 $-1 #
edge $-1 $226 1.0383449354295376e-015 $226 6.2831853071796013 $136 $227 forward 7 unknown #
loop $-1 $-1 $143 $85 #
plane-surface $-1 33.490027283004167 -33.923876510231835 0.10175360742931616 0 -0.5877852598018023 0.80901698891910034 1 0 0 forward_v I I I I #
loop $-1 $-1 $228 $55 #
coedge $-1 $141 $141 $142 $229 reversed $86 $-1 #
coedge $-1 $142 $142 $141 $229 forward $88 $-1 #
coedge $-1 $143 $143 $89 $144 forward $138 $-1 #
edge $-1 $230 1.0383449354295376e-015 $230 6.2831853071796013 $143 $231 forward 7 unknown #
face $-1 $232 $233 $30 $-1 $234 reversed single #
loop $-1 $-1 $235 $90 #
plane-surface $-1 3.8724275589232242 77.063423818531916 151.6099377636591 -1 0 0 0 0.66913061440640931 0.74314481823134659 forward_v I I I I #
coedge $-1 $236 $237 $238 $239 reversed $91 $-1 #
coedge $-1 $150 $93 $240 $241 reversed $59 $-1 #
coedge $-1 $93 $149 $236 $242 reversed $59 $-1 #
coedge $-1 $238 $243 $93 $152 forward $244 $-1 #
edge $-1 $245 4.6078353990341085 $246 12.007586331642656 $151 $247 forward 7 unknown #
loop $-1 $-1 $158 $94 #
plane-surface $-1 -4.6314652621602903 -16.496829575565954 47.700751716454974 0 0.66913061440640931 0.74314481823134659 1 0 0 forward_v I I I I #
loop $-1 $-1 $248 $61 #
coedge $-1 $156 $156 $157 $249 reversed $95 $-1 #
coedge $-1 $157 $157 $156 $249 forward $97 $-1 #
coedge $-1 $158 $158 $98 $159 forward $153 $-1 #
edge $-1 $250 -3.9976092028976813e-016 $250 6.2831853071796004 $158 $251 forward 7 unknown #
face $-1 $252 $253 $24 $-1 $254 reversed single #
loop $-1 $-1 $255 $99 #
plane-surface $-1 -69.911801507614371 0 0 1 0 0 0 0 -1 forward_v I I I I #
coedge $-1 $256 $171 $257 $258 forward $100 $-1 #
coedge $-1 $259 $102 $256 $260 forward $65 $-1 #
coedge $-1 $102 $259 $261 $262 forward $65 $-1 #
coedge $-1 $174 $173 $102 $167 reversed $175 $-1 #
edge $-1 $263 -33.92387651023185 $264 33.92387651023185 $166 $265 forward 7 unknown #
coedge $-1 $104 $103 $266 $267 forward $41 $-1 #
coedge $-1 $268 $269 $103 $170 reversed $253 $-1 #
edge $-1 $177 -69.911801507614371 $270 69.911801507614371 $169 $271 forward 7 unknown #
coedge $-1 $163 $272 $104 $172 reversed $100 $-1 #
edge $-1 $273 -69.911801507614371 $176 69.911801507614371 $171 $274 forward 7 unknown #
coedge $-1 $166 $105 $272 $275 forward $175 $-1 #
coedge $-1 $105 $166 $268 $276 reversed $175 $-1 #
loop $-1 $-1 $173 $252 #
vertex $-1 $106 $277 #
vertex $-1 $106 $278 #
straight-curve $-1 69.911801507614371 0 8.9645088633929113 0 1 0 I I #
face $-1 $279 $191 $25 $-1 $280 reversed single #
loop $-1 $-1 $281 $107 #
plane-surface $-1 -77.928168627871543 -19.084266119707042 0 1 0 0 0 0 -1 forward_v I I I I #
coedge $-1 $282 $283 $284 $285 forward $108 $-1 #
coedge $-1 $286 $110 $282 $287 forward $69 $-1 #
coedge $-1 $110 $286 $189 $288 forward $69 $-1 #
edge $-1 $192 16.725894716920521 $289 21.442637522493563 $110 $290 forward 7 unknown #
coedge $-1 $112 $111 $291 $292 forward $44 $-1 #
coedge $-1 $293 $294 $111 $188 forward $295 $-1 #
edge $-1 $296 -21.442637522493563 $193 -16.725894716920521 $187 $297 forward 7 unknown #
coedge $-1 $298 $113 $184 $288 reversed $191 $-1 #
coedge $-1 $113 $298 $293 $299 reversed $191 $-1 #
loop $-1 $-1 $113 $179 #
vertex $-1 $185 $300 #
vertex $-1 $299 $301 #
straight-curve $-1 -69.911801507614371 -16.725894716920521 0 0 0 1 I I #
face $-1 $302 $303 $26 $-1 $304 reversed single #
loop $-1 $-1 $305 $115 #
plane-surface $-1 73.919985067742971 -16.725894716920521 0 0 -1 0 0 0 -1 forward_v I I I I #
coedge $-1 $306 $118 $307 $308 forward $73 $-1 #
coedge $-1 $118 $306 $204 $309 forward $73 $-1 #
edge $-1 $206 -21.442637522493563 $310 -16.725894716920521 $118 $311 forward 7 unknown #
coedge $-1 $120 $119 $312 $313 forward $47 $-1 #
coedge $-1 $314 $315 $119 $203 forward $316 $-1 #
edge $-1 $317 16.725894716920521 $207 21.442637522493563 $202 $318 forward 7 unknown #
coedge $-1 $319 $121 $199 $309 reversed $116 $-1 #
coedge $-1 $121 $319 $314 $320 reversed $116 $-1 #
vertex $-1 $200 $321 #
vertex $-1 $320 $322 #
straight-curve $-1 69.911801507614371 -21.442637522493563 0 0 0 1 I I #
face $-1 $-1 $323 $27 $-1 $324 reversed single #
loop $-1 $-1 $129 $123 #
plane-surface $-1 0 0 8.9645088633929113 0 0 1 1 0 0 forward_v I I I I #
coedge $-1 $325 $326 $327 $328 reversed $124 $-1 #
coedge $-1 $329 $126 $128 $219 forward $77 $-1 #
coedge $-1 $126 $329 $325 $330 forward $77 $-1 #
coedge $-1 $327 $129 $126 $216 forward $210 $-1 #
edge $-1 $222 -25.021476111920663 $331 -8.4685511710835044 $215 $332 forward 7 unknown #
coedge $-1 $333 $334 $127 $218 forward $323 $-1 #
edge $-1 $335 -56.508958341885346 $221 -47.646203085921741 $217 $336 forward 7 unknown #
edge $-1 $222 -15.078219652789631 $335 1.756574927105486e-014 $128 $337 forward 7 unknown #
coedge $-1 $129 $327 $333 $338 forward $210 $-1 #
vertex $-1 $130 $339 #
vertex $-1 $130 $340 #
straight-curve $-1 41.766489753422746 -58.055064667481062 8.9645088633929078 0 1 0 I I #
coedge $-1 $224 $224 $-1 $341 reversed $133 $-1 #
edge $-1 $342 0 $342 6.2831853071796004 $134 $343 forward 7 unknown #
vertex $-1 $137 $344 #
ellipse-curve $-1 29.94297193853906 -27.824608579351512 4.5331312354111057 0 -0.5877852598018023 0.80901698891910034 1 0 0 1 I I #
coedge $-1 $228 $228 $-1 $345 reversed $140 $-1 #
edge $-1 $346 0 $346 6.2831853071796004 $141 $347 forward 7 unknown #
vertex $-1 $144 $348 #
ellipse-curve $-1 37.037082627469275 -27.824608579351512 4.5331312354111057 0 -0.5877852598018023 0.80901698891910034 1 0 0 1 I I #
face $-1 $-1 $244 $30 $-1 $349 forward single #
loop $-1 $-1 $350 $145 #
plane-surface $-1 0 33.92387651023185 0 0 -1 0 0 0 -1 forward_v I I I I #
coedge $-1 $351 $352 $353 $354 reversed $146 $-1 #
coedge $-1 $355 $148 $150 $242 forward $91 $-1 #
coedge $-1 $148 $355 $351 $356 forward $91 $-1 #
coedge $-1 $353 $151 $148 $239 forward $244 $-1 #
edge $-1 $246 -10.81962545216366 $357 6.1881601900033694 $238 $358 forward 7 unknown #
coedge $-1 $359 $360 $149 $241 forward $233 $-1 #
edge $-1 $361 -73.503225830051775 $245 -66.840460018436644 $240 $362 forward 7 unknown #
edge $-1 $246 57.890405877521047 $361 67.847753020463713 $150 $363 forward 7 unknown #
coedge $-1 $151 $353 $359 $364 forward $244 $-1 #
loop $-1 $-1 $353 $232 #
vertex $-1 $241 $365 #
vertex $-1 $152 $366 #
straight-curve $-1 -13.135358083243805 38.531711909265958 8.9645088633929078 0 -1 0 I I #
coedge $-1 $248 $248 $-1 $367 reversed $155 $-1 #
edge $-1 $368 0 $368 6.2831853071796004 $156 $369 forward 7 unknown #
vertex $-1 $159 $370 #
ellipse-curve $-1 -4.6314652621603045 30.224001043927576 5.6331259575853405 0 0.66913061440640931 0.74314481823134659 2 0 0 1 I I #
face $-1 $-1 $175 $24 $-1 $371 reversed single #
loop $-1 $-1 $268 $160 #
plane-surface $-1 0 33.92387651023185 0 0 -1 0 0 0 -1 forward_v I I I I #
coedge $-1 $372 $266 $269 $373 forward $161 $-1 #
coedge $-1 $272 $163 $164 $260 reversed $100 $-1 #
coedge $-1 $266 $372 $163 $258 reversed $161 $-1 #
edge $-1 $273 -8.9645088633929113 $374 8.9645088633929113 $257 $375 forward 7 unknown #
coedge $-1 $165 $164 $372 $376 forward $65 $-1 #
edge $-1 $264 -69.911801507614371 $374 69.911801507614371 $256 $377 forward 7 unknown #
coedge $-1 $269 $268 $165 $262 reversed $253 $-1 #
edge $-1 $378 -69.911801507614371 $263 69.911801507614371 $261 $379 forward 7 unknown #
vertex $-1 $167 $380 #
vertex $-1 $275 $381 #
straight-curve $-1 69.911801507614371 0 -8.9645088633929113 0 -1 0 I I #
coedge $-1 $255 $257 $168 $267 reversed $161 $-1 #
edge $-1 $270 -33.92387651023185 $273 33.92387651023185 $266 $382 forward 7 unknown #
coedge $-1 $261 $169 $174 $276 forward $253 $-1 #
coedge $-1 $169 $261 $255 $373 reversed $253 $-1 #
vertex $-1 $170 $383 #
straight-curve $-1 0 33.92387651023185 8.9645088633929113 -1 0 0 I I #
coedge $-1 $171 $256 $173 $275 reversed $100 $-1 #
vertex $-1 $267 $384 #
straight-curve $-1 0 -33.92387651023185 8.9645088633929113 1 0 0 I I #
edge $-1 $176 -8.9645088633929113 $264 8.9645088633929113 $173 $385 forward 7 unknown #
edge $-1 $177 -8.9645088633929113 $263 8.9645088633929113 $174 $386 forward 7 unknown #
point $-1 69.911801507614371 -33.92387651023185 8.9645088633929113 #
point $-1 69.911801507614371 33.92387651023185 8.9645088633929113 #
face $-1 $-1 $295 $25 $-1 $387 forward single #
plane-surface $-1 -73.919985067742957 -16.725894716920521 0 0 -1 0 0 0 -1 forward_v I I I I #
coedge $-1 $388 $389 $298 $390 forward $180 $-1 #
coedge $-1 $291 $182 $183 $287 reversed $108 $-1 #
coedge $-1 $182 $291 $294 $391 reversed $108 $-1 #
coedge $-1 $389 $388 $182 $285 reversed $180 $-1 #
edge $-1 $392 -8.9645088633929113 $393 8.9645088633929113 $284 $394 forward 7 unknown #
coedge $-1 $184 $183 $388 $395 forward $69 $-1 #
edge $-1 $289 -4.008183560128586 $393 4.008183560128586 $282 $396 forward 7 unknown #
edge $-1 $397 -4.008183560128586 $192 4.008183560128586 $189 $398 forward 7 unknown #
vertex $-1 $287 $399 #
straight-curve $-1 -69.911801507614371 0 -8.9645088633929113 0 -1 0 I I #
coedge $-1 $283 $282 $186 $292 reversed $108 $-1 #
edge $-1 $296 -8.9645088633929113 $289 8.9645088633929113 $291 $400 forward 7 unknown #
coedge $-1 $401 $187 $190 $299 forward $295 $-1 #
coedge $-1 $187 $401 $283 $391 forward $295 $-1 #
loop $-1 $-1 $187 $279 #
vertex $-1 $188 $402 #
straight-curve $-1 -69.911801507614371 0 8.9645088633929113 0 1 0 I I #
coedge $-1 $190 $189 $281 $390 reversed $191 $-1 #
edge $-1 $193 -4.008183560128586 $403 4.008183560128586 $190 $404 forward 7 unknown #
point $-1 -69.911801507614371 -16.725894716920521 -8.9645088633929113 #
point $-1 -69.911801507614371 -16.725894716920521 8.9645088633929113 #
face $-1 $-1 $316 $26 $-1 $405 forward single #
loop $-1 $-1 $406 $195 #
plane-surface $-1 77.928168627871557 -19.084266119707042 0 -1 0 0 0 0 1 forward_v I I I I #
coedge $-1 $307 $407 $408 $409 forward $196 $-1 #
coedge $-1 $199 $198 $410 $411 forward $73 $-1 #
coedge $-1 $312 $305 $198 $308 reversed $196 $-1 #
edge $-1 $310 -4.008183560128586 $412 4.008183560128586 $307 $413 forward 7 unknown #
edge $-1 $414 -4.008183560128586 $206 4.008183560128586 $204 $415 forward 7 unknown #
vertex $-1 $308 $416 #
straight-curve $-1 69.911801507614371 0 -8.9645088633929113 0 1 0 I I #
coedge $-1 $407 $307 $201 $313 reversed $196 $-1 #
edge $-1 $317 -8.9645088633929113 $310 8.9645088633929113 $312 $417 forward 7 unknown #
coedge $-1 $418 $202 $205 $320 forward $316 $-1 #
coedge $-1 $202 $418 $407 $419 forward $316 $-1 #
loop $-1 $-1 $202 $302 #
vertex $-1 $203 $420 #
straight-curve $-1 69.911801507614371 0 8.9645088633929113 0 -1 0 I I #
coedge $-1 $205 $204 $406 $421 reversed $116 $-1 #
edge $-1 $207 -4.008183560128586 $422 4.008183560128586 $205 $423 forward 7 unknown #
point $-1 69.911801507614385 -21.442637522493563 -8.9645088633929113 #
point $-1 69.911801507614385 -21.442637522493563 8.9645088633929113 #
loop $-1 $-1 $217 $209 #
plane-surface $-1 0 -33.92387651023185 0 0 1 0 0 0 1 forward_v I I I I #
coedge $-1 $326 $212 $214 $330 reversed $124 $-1 #
coedge $-1 $212 $325 $424 $425 reversed $124 $-1 #
coedge $-1 $220 $215 $212 $328 forward $210 $-1 #
edge $-1 $331 -36.329724019009902 $426 -24.131188157249213 $327 $427 forward 7 unknown #
coedge $-1 $214 $213 $334 $428 reversed $77 $-1 #
edge $-1 $429 -1.756574927105486e-014 $331 15.078219652789631 $325 $430 forward 7 unknown #
vertex $-1 $216 $431 #
straight-curve $-1 16.745013641502084 -21.725340648471164 8.9645088633929113 -1 0 0 I I #
coedge $-1 $424 $217 $220 $338 reversed $323 $-1 #
coedge $-1 $217 $424 $329 $428 forward $323 $-1 #
vertex $-1 $218 $432 #
straight-curve $-1 41.766489753422746 -33.92387651023185 56.610711949314656 0 0 1 I I #
straight-curve $-1 41.766489753422746 -33.923876510231835 0.10175360742931616 0 -0.80901698891910034 -0.5877852598018023 I I #
edge $-1 $426 25.213564812585588 $221 41.766489753422746 $333 $433 forward 7 unknown #
point $-1 41.766489753422746 -33.92387651023185 8.9645088633929113 #
point $-1 41.766489753422746 -21.725340648471164 8.9645088633929113 #
edge $-1 $434 1 $434 0 $224 $-1 forward 7 unknown #
vertex $-1 $225 $435 #
ellipse-curve $-1 29.94297193853906 -26.857804344533626 3.2024393919471499 0 -0.5877852598018023 0.80901698891910034 1 0 0 1 I I #
point $-1 30.94297193853906 -27.824608579351519 4.5331312354111173 #
edge $-1 $436 1 $436 0 $228 $-1 forward 7 unknown #
vertex $-1 $229 $437 #
ellipse-curve $-1 37.037082627469275 -26.857804344533626 3.2024393919471499 0 -0.5877852598018023 0.80901698891910034 1 0 0 1 I I #
point $-1 38.037082627469275 -27.824608579351519 4.5331312354111173 #
plane-surface $-1 0 0 8.9645088633929113 0 0 1 1 0 0 forward_v I I I I #
coedge $-1 $360 $359 $352 $438 forward $233 $-1 #
coedge $-1 $352 $235 $237 $356 reversed $146 $-1 #
coedge $-1 $235 $351 $350 $438 reversed $146 $-1 #
coedge $-1 $243 $238 $235 $354 forward $244 $-1 #
edge $-1 $357 -12.007586331642656 $439 -4.6078353990341085 $353 $440 forward 7 unknown #
coedge $-1 $237 $236 $360 $441 reversed $91 $-1 #
edge $-1 $442 -67.847753020463713 $357 -57.890405877521047 $351 $443 forward 7 unknown #
vertex $-1 $239 $444 #
straight-curve $-1 -2.3157326310801452 26.524125577623305 8.9645088633929078 1 0 0 I I #
coedge $-1 $350 $240 $243 $364 reversed $233 $-1 #
coedge $-1 $240 $350 $355 $441 forward $233 $-1 #
vertex $-1 $241 $445 #
straight-curve $-1 -13.135358083243805 33.92387651023185 75.804968881829552 0 0 1 I I #
straight-curve $-1 -13.135358083243805 -16.496829575565954 47.700751716454974 0 0.74314481823134659 -0.66913061440640931 I I #
edge $-1 $439 -3.8724275589232242 $245 13.135358083243805 $359 $446 forward 7 unknown #
point $-1 -13.135358083243805 33.92387651023185 8.9645088633929113 #
point $-1 -13.135358083243805 26.524125577623302 8.9645088633929078 #
edge $-1 $447 1 $447 0 $248 $-1 forward 7 unknown #
vertex $-1 $249 $448 #
ellipse-curve $-1 -4.6314652621603045 25.38519445174472 0.2590869165016374 0 0.66913061440640931 0.74314481823134659 2 0 0 1 I I #
point $-1 -2.6314652621603045 30.224001043927597 5.6331259575853654 #
plane-surface $-1 69.911801507614371 0 0 -1 0 0 0 0 1 forward_v I I I I #
coedge $-1 $257 $255 $259 $376 reversed $161 $-1 #
edge $-1 $270 -8.9645088633929113 $378 8.9645088633929113 $269 $449 forward 7 unknown #
vertex $-1 $376 $450 #
straight-curve $-1 -69.911801507614371 -33.92387651023185 0 0 0 -1 I I #
edge $-1 $374 -33.92387651023185 $378 33.92387651023185 $372 $451 forward 7 unknown #
straight-curve $-1 0 -33.92387651023185 -8.9645088633929113 -1 0 0 I I #
vertex $-1 $262 $452 #
straight-curve $-1 0 33.92387651023185 -8.9645088633929113 1 0 0 I I #
point $-1 69.911801507614371 33.92387651023185 -8.9645088633929113 #
point $-1 69.911801507614371 -33.92387651023185 -8.9645088633929113 #
straight-curve $-1 -69.911801507614371 0 8.9645088633929113 0 -1 0 I I #
point $-1 -69.911801507614371 33.92387651023185 8.9645088633929113 #
point $-1 -69.911801507614371 -33.92387651023185 8.9645088633929113 #
straight-curve $-1 69.911801507614371 -33.92387651023185 0 0 0 -1 I I #
straight-curve $-1 69.911801507614371 33.92387651023185 0 0 0 -1 I I #
plane-surface $-1 0 0 8.9645088633929113 0 0 1 1 0 0 forward_v I I I I #
coedge $-1 $284 $281 $286 $395 reversed $180 $-1 #
coedge $-1 $281 $284 $401 $453 reversed $180 $-1 #
edge $-1 $403 -8.9645088633929113 $397 8.9645088633929113 $298 $454 forward 7 unknown #
edge $-1 $392 -4.008183560128586 $296 4.008183560128586 $283 $455 forward 7 unknown #
vertex $-1 $453 $456 #
vertex $-1 $395 $457 #
straight-curve $-1 -77.928168627871543 -21.442637522493563 0 0 0 -1 I I #
edge $-1 $393 -2.3583714027865206 $397 2.3583714027865206 $388 $458 forward 7 unknown #
straight-curve $-1 -73.919985067742957 -21.442637522493563 -8.9645088633929113 -1 0 0 I I #
vertex $-1 $288 $459 #
straight-curve $-1 -73.919985067742957 -16.725894716920521 -8.9645088633929113 1 0 0 I I #
point $-1 -69.911801507614371 -21.442637522493563 -8.9645088633929113 #
straight-curve $-1 -69.911801507614371 -21.442637522493563 0 0 0 -1 I I #
coedge $-1 $294 $293 $389 $453 forward $295 $-1 #
point $-1 -69.911801507614371 -21.442637522493563 8.9645088633929113 #
vertex $-1 $299 $460 #
straight-curve $-1 -73.919985067742957 -16.725894716920521 8.9645088633929113 -1 0 0 I I #
plane-surface $-1 0 0 8.9645088633929113 0 0 1 1 0 0 forward_v I I I I #
coedge $-1 $410 $461 $319 $421 forward $303 $-1 #
coedge $-1 $305 $312 $315 $419 reversed $196 $-1 #
coedge $-1 $461 $410 $305 $409 reversed $303 $-1 #
edge $-1 $462 -8.9645088633929113 $412 8.9645088633929113 $408 $463 forward 7 unknown #
coedge $-1 $408 $406 $306 $411 reversed $303 $-1 #
edge $-1 $412 -2.3583714027865206 $414 2.3583714027865206 $410 $464 forward 7 unknown #
vertex $-1 $411 $465 #
straight-curve $-1 73.919985067742971 -16.725894716920521 -8.9645088633929113 1 0 0 I I #
vertex $-1 $421 $466 #
straight-curve $-1 73.919985067742971 -21.442637522493563 -8.9645088633929113 -1 0 0 I I #
point $-1 69.911801507614385 -16.725894716920521 -8.9645088633929113 #
straight-curve $-1 69.911801507614371 -16.725894716920521 0 0 0 -1 I I #
coedge $-1 $315 $314 $461 $467 forward $316 $-1 #
edge $-1 $462 -4.008183560128586 $317 4.008183560128586 $407 $468 forward 7 unknown #
point $-1 69.911801507614385 -16.725894716920521 8.9645088633929113 #
edge $-1 $422 -8.9645088633929113 $414 8.9645088633929113 $406 $469 forward 7 unknown #
vertex $-1 $467 $470 #
straight-curve $-1 73.919985067742971 -21.442637522493563 8.9645088633929113 1 0 0 I I #
coedge $-1 $334 $333 $326 $425 forward $323 $-1 #
edge $-1 $426 47.646203085921741 $429 56.508958341885346 $424 $471 forward 7 unknown #
vertex $-1 $338 $472 #
straight-curve $-1 25.213564812585588 -58.055064667481062 8.9645088633929078 0 -1 0 I I #
edge $-1 $429 8.4685511710835044 $335 25.021476111920663 $334 $473 forward 7 unknown #
vertex $-1 $428 $474 #
straight-curve $-1 25.213564812585588 -33.923876510231835 0.10175360742931616 0 0.80901698891910034 0.5877852598018023 I I #
point $-1 25.213564812585588 -21.725340648471164 8.9645088633929113 #
point $-1 41.766489753422746 -33.92387651023185 0.10175360742930584 #
straight-curve $-1 0 -33.92387651023185 8.9645088633929113 1 0 0 I I #
vertex $-1 $341 $475 #
point $-1 30.94297193853906 -26.857804344533626 3.2024393919471499 #
vertex $-1 $345 $476 #
point $-1 38.037082627469275 -26.857804344533626 3.2024393919471499 #
edge $-1 $439 66.840460018436644 $442 73.503225830051775 $350 $477 forward 7 unknown #
vertex $-1 $364 $478 #
straight-curve $-1 3.8724275589232242 38.531711909265958 8.9645088633929078 0 1 0 I I #
edge $-1 $442 -6.1881601900033694 $361 10.81962545216366 $360 $479 forward 7 unknown #
vertex $-1 $441 $480 #
straight-curve $-1 3.8724275589232242 -16.496829575565954 47.700751716454974 0 -0.74314481823134659 0.66913061440640931 I I #
point $-1 3.8724275589232242 26.524125577623302 8.9645088633929078 #
point $-1 -13.135358083243805 33.92387651023185 2.3017430517777768 #
straight-curve $-1 0 33.92387651023185 8.9645088633929113 -1 0 0 I I #
vertex $-1 $367 $481 #
point $-1 -2.6314652621603045 25.38519445174472 0.2590869165016374 #
straight-curve $-1 -69.911801507614371 33.92387651023185 0 0 0 -1 I I #
point $-1 -69.911801507614371 -33.92387651023185 -8.9645088633929113 #
straight-curve $-1 -69.911801507614371 0 -8.9645088633929113 0 1 0 I I #
point $-1 -69.911801507614371 33.92387651023185 -8.9645088633929113 #
edge $-1 $403 -2.3583714027865206 $392 2.3583714027865206 $389 $482 forward 7 unknown #
straight-curve $-1 -77.928168627871543 -16.725894716920521 0 0 0 -1 I I #
straight-curve $-1 -73.919985067742957 -21.442637522493563 8.9645088633929113 1 0 0 I I #
point $-1 -77.928168627871543 -21.442637522493563 8.9645088633929113 #
point $-1 -77.928168627871543 -21.442637522493563 -8.9645088633929113 #
straight-curve $-1 -77.928168627871543 -19.084266119707042 -8.9645088633929113 0 1 0 I I #
point $-1 -77.928168627871543 -16.725894716920521 -8.9645088633929113 #
point $-1 -77.928168627871543 -16.725894716920521 8.9645088633929113 #
coedge $-1 $406 $408 $418 $467 reversed $303 $-1 #
vertex $-1 $467 $483 #
straight-curve $-1 77.928168627871557 -16.725894716920521 0 0 0 -1 I I #
straight-curve $-1 77.928168627871557 -19.084266119707042 -8.9645088633929113 0 -1 0 I I #
point $-1 77.928168627871557 -16.725894716920521 -8.9645088633929113 #
point $-1 77.928168627871557 -21.442637522493563 -8.9645088633929113 #
edge $-1 $422 -2.3583714027865206 $462 2.3583714027865206 $461 $484 forward 7 unknown #
straight-curve $-1 73.919985067742971 -16.725894716920521 8.9645088633929113 -1 0 0 I I #
straight-curve $-1 77.928168627871557 -21.442637522493563 0 0 0 -1 I I #
point $-1 77.928168627871557 -21.442637522493563 8.9645088633929113 #
straight-curve $-1 25.213564812585588 -33.92387651023185 56.610711949314656 0 0 -1 I I #
point $-1 25.213564812585588 -33.92387651023185 8.9645088633929113 #
straight-curve $-1 16.745013641502084 -33.92387651023185 0.10175360742930459 1 0 0 I I #
point $-1 25.213564812585588 -33.92387651023185 0.10175360742930584 #
point $-1 29.94297193853906 -26.270019084731821 2.3934224030280498 #
point $-1 37.037082627469275 -26.270019084731821 2.3934224030280498 #
straight-curve $-1 3.8724275589232242 33.92387651023185 75.804968881829552 0 0 -1 I I #
point $-1 3.8724275589232242 33.92387651023185 8.9645088633929113 #
straight-curve $-1 -2.3157326310801452 33.92387651023185 2.3017430517777768 -1 0 0 I I #
point $-1 3.8724275589232242 33.92387651023185 2.3017430517777768 #
point $-1 -4.6314652621603045 24.046933222931901 -1.2272027199610565 #
straight-curve $-1 -77.928168627871543 -19.084266119707042 8.9645088633929113 0 -1 0 I I #
point $-1 77.928168627871557 -16.725894716920521 8.9645088633929113 #
straight-curve $-1 77.928168627871557 -19.084266119707042 8.9645088633929113 0 1 0 I I #
End-of-ACIS-data 