500 0 6 0           
7 Unknown 11 ACIS 5.0 NT 24 Fri Mar 26 20:23:30 1999 
-1 9.9999999999999995e-007 1e-010 
body $-1 $6 $-1 $7 #
body $-1 $8 $-1 $9 #
body $-1 $10 $-1 $11 #
body $-1 $12 $-1 $13 #
body $-1 $14 $-1 $15 #
body $-1 $16 $-1 $17 #
lump $-1 $-1 $18 $0 #
transform $-1 1 0 0 0 1 0 0 0 1 75.323343607898181 32.427174116350443 11.711269829184582 1 rotate no_reflect no_shear #
lump $-1 $-1 $19 $1 #
transform $-1 1 0 0 0 1 0 0 0 1 75.323343607898181 32.427174116350443 11.711269829184582 1 rotate no_reflect no_shear #
lump $-1 $-1 $20 $2 #
transform $-1 1 0 0 0 1 0 0 0 1 75.323343607898181 32.427174116350443 11.711269829184582 1 rotate no_reflect no_shear #
lump $-1 $-1 $21 $3 #
transform $-1 1 0 0 0 1 0 0 0 1 75.323343607898181 32.427174116350443 11.711269829184582 1 rotate no_reflect no_shear #
lump $-1 $-1 $22 $4 #
transform $-1 1 0 0 0 1 0 0 0 1 75.323343607898181 32.427174116350443 11.711269829184582 1 rotate no_reflect no_shear #
lump $-1 $-1 $23 $5 #
transform $-1 1 0 0 0 1 0 0 0 1 75.323343607898181 32.427174116350443 11.711269829184582 1 rotate no_reflect no_shear #
shell $-1 $-1 $-1 $24 $-1 $6 #
shell $-1 $-1 $-1 $25 $-1 $8 #
shell $-1 $-1 $-1 $26 $-1 $10 #
shell $-1 $-1 $-1 $27 $-1 $12 #
shell $-1 $-1 $-1 $28 $-1 $14 #
shell $-1 $-1 $-1 $29 $-1 $16 #
face $-1 $30 $31 $18 $-1 $32 forward single #
face $-1 $33 $34 $19 $-1 $35 forward single #
face $-1 $36 $37 $20 $-1 $38 reversed single #
face $-1 $39 $40 $21 $-1 $41 forward single #
face $-1 $42 $43 $22 $-1 $44 reversed single #
face $-1 $45 $46 $23 $-1 $47 forward single #
face $-1 $48 $49 $18 $-1 $50 reversed single #
loop $-1 $-1 $51 $24 #
plane-surface $-1 0 0 11.711269829184582 0 0 1 1 0 0 forward_v I I I I #
face $-1 $52 $53 $19 $-1 $54 forward single #
loop $-1 $-1 $55 $25 #
plane-surface $-1 -75.323343607898181 0 0 1 0 0 0 0 -1 forward_v I I I I #
face $-1 $56 $57 $20 $-1 $58 reversed single #
loop $-1 $-1 $59 $26 #
plane-surface $-1 -38.083468075743959 -142.60318769332409 110.1669191950767 -1 0 0 0 -0.73135370988377701 0.68199835119979291 forward_v I I I I #
face $-1 $60 $61 $21 $-1 $62 forward single #
loop $-1 $63 $64 $27 #
cone-surface $-1 -50.623435079159556 -30.063517096180185 9.2276991890887246 0 0.73135370988377701 -0.68199835119979291 0.5 0 0 1 I I 0 1 0.5 forward I I I I #
face $-1 $65 $66 $22 $-1 $67 reversed single #
loop $-1 $-1 $68 $28 #
plane-surface $-1 62.783376604482584 -32.427174116350457 7.4261269001926564 0 -0.73135370988377701 0.68199835119979291 1 0 0 forward_v I I I I #
face $-1 $69 $70 $23 $-1 $71 forward single #
loop $-1 $72 $73 $29 #
cone-surface $-1 62.783376604482584 -30.063517096180185 9.2276991890887246 0 0.73135370988377701 -0.68199835119979291 0.5 0 0 1 I I 0 1 0.5 forward I I I I #
face $-1 $74 $75 $18 $-1 $76 reversed single #
loop $-1 $-1 $77 $30 #
plane-surface $-1 0 0 -11.711269829184582 0 0 1 1 0 0 forward_v I I I I #
coedge $-1 $78 $79 $80 $81 forward $31 $-1 #
face $-1 $82 $83 $19 $-1 $84 reversed single #
loop $-1 $-1 $85 $33 #
plane-surface $-1 0 0 11.711269829184582 0 0 1 1 0 0 forward_v I I I I #
coedge $-1 $86 $87 $88 $89 forward $34 $-1 #
face $-1 $90 $91 $20 $-1 $92 reversed single #
loop $-1 $-1 $93 $36 #
plane-surface $-1 -50.623435079159556 -32.427174116350457 7.4261269001926564 0 -0.73135370988377701 0.68199835119979291 1 0 0 forward_v I I I I #
coedge $-1 $94 $95 $96 $97 reversed $37 $-1 #
face $-1 $-1 $98 $21 $-1 $99 forward single #
loop $-1 $100 $101 $39 #
cone-surface $-1 -50.623435079159556 -29.515001813767352 8.7162004256888803 0 0.73135370988377701 -0.68199835119979291 0.25 0 0 1 I I -0.70710678118654746 0.70710678118654746 0.25 forward I I I I #
loop $-1 $-1 $102 $27 #
coedge $-1 $64 $64 $103 $104 reversed $40 $-1 #
face $-1 $105 $106 $22 $-1 $107 reversed single #
loop $-1 $-1 $108 $42 #
plane-surface $-1 50.243409601066986 -142.60318769332409 110.1669191950767 1 0 0 0 0.73135370988377701 -0.68199835119979291 forward_v I I I I #
coedge $-1 $109 $110 $111 $112 reversed $43 $-1 #
face $-1 $-1 $113 $23 $-1 $114 forward single #
loop $-1 $115 $116 $45 #
cone-surface $-1 62.783376604482584 -29.515001813767352 8.7162004256888803 0 0.73135370988377701 -0.68199835119979291 0.25 0 0 1 I I -0.70710678118654746 0.70710678118654746 0.25 forward I I I I #
loop $-1 $-1 $117 $29 #
coedge $-1 $73 $73 $118 $119 reversed $46 $-1 #
face $-1 $120 $121 $18 $-1 $122 reversed single #
loop $-1 $-1 $123 $48 #
plane-surface $-1 0 -32.427174116350443 0 0 1 0 0 0 1 forward_v I I I I #
coedge $-1 $124 $125 $126 $127 forward $49 $-1 #
coedge $-1 $128 $51 $129 $130 forward $31 $-1 #
coedge $-1 $51 $128 $131 $132 forward $31 $-1 #
coedge $-1 $133 $134 $51 $81 reversed $135 $-1 #
edge $-1 $136 -32.427174116350443 $137 32.427174116350443 $80 $138 forward 7 unknown #
face $-1 $139 $140 $19 $-1 $141 reversed single #
loop $-1 $-1 $142 $52 #
plane-surface $-1 -87.483285133221216 -29.452053379477512 0 1 0 0 0 0 -1 forward_v I I I I #
coedge $-1 $143 $144 $86 $145 forward $53 $-1 #
coedge $-1 $146 $55 $85 $145 reversed $34 $-1 #
coedge $-1 $55 $146 $147 $148 reversed $34 $-1 #
coedge $-1 $149 $150 $55 $89 reversed $140 $-1 #
edge $-1 $151 -11.711269829184582 $152 11.711269829184582 $88 $153 forward 7 unknown #
face $-1 $154 $155 $20 $-1 $156 forward single #
loop $-1 $-1 $157 $56 #
plane-surface $-1 -63.163402082575153 -142.60318769332409 110.1669191950767 1 0 0 0 0.73135370988377701 -0.68199835119979291 forward_v I I I I #
coedge $-1 $158 $159 $160 $161 reversed $57 $-1 #
coedge $-1 $95 $59 $162 $163 reversed $37 $-1 #
coedge $-1 $59 $94 $158 $164 reversed $37 $-1 #
coedge $-1 $160 $165 $59 $97 forward $155 $-1 #
edge $-1 $166 38.874419730311601 $167 42.870380060768333 $96 $168 forward 7 unknown #
loop $-1 $-1 $103 $60 #
plane-surface $-1 -50.623435079159556 -32.427174116350457 7.4261269001926564 0 -0.73135370988377701 0.68199835119979291 1 0 0 forward_v I I I I #
loop $-1 $-1 $169 $39 #
coedge $-1 $101 $101 $102 $170 reversed $61 $-1 #
coedge $-1 $102 $102 $101 $170 forward $63 $-1 #
coedge $-1 $103 $103 $64 $104 forward $98 $-1 #
edge $-1 $171 -3.5069091583739096e-016 $171 6.2831853071796004 $103 $172 forward 7 unknown #
face $-1 $173 $174 $22 $-1 $175 forward single #
loop $-1 $-1 $176 $65 #
plane-surface $-1 0 -32.427174116350443 0 0 1 0 0 0 1 forward_v I I I I #
coedge $-1 $177 $178 $179 $180 reversed $66 $-1 #
coedge $-1 $181 $68 $182 $183 reversed $43 $-1 #
coedge $-1 $68 $181 $177 $184 forward $43 $-1 #
coedge $-1 $179 $185 $68 $112 forward $174 $-1 #
edge $-1 $186 -43.931655305656889 $187 -18.851721298825694 $111 $188 forward 7 unknown #
loop $-1 $-1 $118 $69 #
plane-surface $-1 62.783376604482584 -32.427174116350457 7.4261269001926564 0 -0.73135370988377701 0.68199835119979291 1 0 0 forward_v I I I I #
loop $-1 $-1 $189 $45 #
coedge $-1 $116 $116 $117 $190 reversed $70 $-1 #
coedge $-1 $117 $117 $116 $190 forward $72 $-1 #
coedge $-1 $118 $118 $73 $119 forward $113 $-1 #
edge $-1 $191 -3.5069091583739096e-016 $191 6.2831853071796004 $118 $192 forward 7 unknown #
face $-1 $193 $194 $18 $-1 $195 reversed single #
loop $-1 $-1 $196 $74 #
plane-surface $-1 -75.323343607898181 0 0 1 0 0 0 0 -1 forward_v I I I I #
coedge $-1 $197 $131 $198 $199 forward $75 $-1 #
coedge $-1 $200 $77 $197 $201 forward $49 $-1 #
coedge $-1 $77 $200 $202 $203 forward $49 $-1 #
coedge $-1 $134 $133 $77 $127 reversed $135 $-1 #
edge $-1 $204 -32.427174116350443 $205 32.427174116350443 $126 $206 forward 7 unknown #
coedge $-1 $79 $78 $196 $207 forward $31 $-1 #
coedge $-1 $208 $209 $78 $130 reversed $194 $-1 #
edge $-1 $137 -75.323343607898181 $210 75.323343607898181 $129 $211 forward 7 unknown #
coedge $-1 $123 $212 $79 $132 reversed $75 $-1 #
edge $-1 $213 -75.323343607898181 $136 75.323343607898181 $131 $214 forward 7 unknown #
coedge $-1 $126 $80 $212 $215 forward $135 $-1 #
coedge $-1 $80 $126 $208 $216 reversed $135 $-1 #
loop $-1 $-1 $133 $193 #
vertex $-1 $81 $217 #
vertex $-1 $81 $218 #
straight-curve $-1 75.323343607898181 0 11.711269829184582 0 1 0 I I #
face $-1 $219 $220 $19 $-1 $221 reversed single #
loop $-1 $-1 $88 $82 #
plane-surface $-1 -81.403314370559698 -26.476932642604581 0 0 -1 0 0 0 -1 forward_v I I I I #
coedge $-1 $222 $223 $224 $225 forward $83 $-1 #
coedge $-1 $226 $85 $150 $227 forward $53 $-1 #
coedge $-1 $85 $226 $228 $229 forward $53 $-1 #
edge $-1 $230 -32.427174116350443 $152 -26.476932642604581 $85 $231 forward 7 unknown #
coedge $-1 $87 $86 $232 $233 reversed $34 $-1 #
coedge $-1 $234 $235 $87 $148 forward $220 $-1 #
edge $-1 $151 26.476932642604581 $236 32.427174116350443 $147 $237 forward 7 unknown #
coedge $-1 $224 $88 $235 $238 reversed $140 $-1 #
coedge $-1 $88 $224 $143 $227 reversed $140 $-1 #
vertex $-1 $148 $239 #
vertex $-1 $227 $240 #
straight-curve $-1 -75.323343607898181 -26.476932642604581 0 0 0 1 I I #
face $-1 $-1 $241 $20 $-1 $242 reversed single #
loop $-1 $-1 $96 $90 #
plane-surface $-1 0 0 11.711269829184582 0 0 1 1 0 0 forward_v I I I I #
coedge $-1 $243 $244 $245 $246 reversed $91 $-1 #
coedge $-1 $247 $93 $95 $164 forward $57 $-1 #
coedge $-1 $93 $247 $243 $248 forward $57 $-1 #
coedge $-1 $245 $96 $93 $161 forward $155 $-1 #
edge $-1 $167 12.771750536164181 $249 37.851684542995372 $160 $250 forward 7 unknown #
coedge $-1 $251 $252 $94 $163 forward $241 $-1 #
edge $-1 $253 -47.65733269734568 $166 -43.37218976835377 $162 $254 forward 7 unknown #
edge $-1 $167 -5.8591935353317597 $253 -2.0734513383776317e-014 $95 $255 forward 7 unknown #
coedge $-1 $96 $245 $251 $256 forward $155 $-1 #
vertex $-1 $97 $257 #
vertex $-1 $97 $258 #
straight-curve $-1 -38.083468075743959 -71.301593846662044 11.71126982918458 0 1 0 I I #
coedge $-1 $169 $169 $-1 $259 reversed $100 $-1 #
edge $-1 $260 0 $260 6.2831853071796004 $101 $261 forward 7 unknown #
vertex $-1 $104 $262 #
ellipse-curve $-1 -50.623435079159556 -30.429193951122077 9.5686983646886254 0 -0.73135370988377701 0.68199835119979291 0.5 0 0 1 I I #
face $-1 $-1 $263 $22 $-1 $264 reversed single #
loop $-1 $-1 $179 $105 #
plane-surface $-1 0 0 11.711269829184582 0 0 1 1 0 0 forward_v I I I I #
coedge $-1 $265 $266 $178 $267 forward $106 $-1 #
coedge $-1 $178 $108 $110 $184 reversed $66 $-1 #
coedge $-1 $108 $177 $176 $267 reversed $66 $-1 #
coedge $-1 $268 $111 $108 $180 forward $174 $-1 #
edge $-1 $187 -42.870380060768333 $269 -38.874419730311601 $179 $270 forward 7 unknown #
coedge $-1 $110 $109 $265 $271 reversed $43 $-1 #
coedge $-1 $272 $273 $109 $183 forward $263 $-1 #
edge $-1 $274 -8.3420769114479789 $186 -2.4828833761162405 $182 $275 forward 7 unknown #
edge $-1 $276 2.0734513383776317e-014 $187 5.8591935353317597 $177 $277 forward 7 unknown #
coedge $-1 $111 $268 $272 $278 forward $174 $-1 #
vertex $-1 $183 $279 #
vertex $-1 $112 $280 #
straight-curve $-1 31.391688302241292 -28.431213785893711 11.71126982918458 -1 0 0 I I #
coedge $-1 $189 $189 $-1 $281 reversed $115 $-1 #
edge $-1 $282 0 $282 6.2831853071796004 $116 $283 forward 7 unknown #
vertex $-1 $119 $284 #
ellipse-curve $-1 62.783376604482584 -30.429193951122077 9.5686983646886254 0 -0.73135370988377701 0.68199835119979291 0.5 0 0 1 I I #
face $-1 $-1 $135 $18 $-1 $285 reversed single #
loop $-1 $-1 $208 $120 #
plane-surface $-1 0 32.427174116350443 0 0 -1 0 0 0 -1 forward_v I I I I #
coedge $-1 $286 $198 $128 $207 reversed $121 $-1 #
coedge $-1 $212 $123 $124 $201 reversed $75 $-1 #
coedge $-1 $196 $287 $123 $199 reversed $121 $-1 #
edge $-1 $213 -11.711269829184582 $288 11.711269829184582 $198 $289 forward 7 unknown #
coedge $-1 $125 $124 $287 $290 forward $49 $-1 #
edge $-1 $205 -75.323343607898181 $288 75.323343607898181 $197 $291 forward 7 unknown #
coedge $-1 $209 $208 $125 $203 reversed $194 $-1 #
edge $-1 $292 -75.323343607898181 $204 75.323343607898181 $202 $293 forward 7 unknown #
vertex $-1 $127 $294 #
vertex $-1 $215 $295 #
straight-curve $-1 75.323343607898181 0 -11.711269829184582 0 -1 0 I I #
edge $-1 $210 -32.427174116350443 $213 32.427174116350443 $196 $296 forward 7 unknown #
coedge $-1 $202 $129 $134 $216 forward $194 $-1 #
coedge $-1 $129 $202 $286 $297 reversed $194 $-1 #
vertex $-1 $130 $298 #
straight-curve $-1 0 32.427174116350443 11.711269829184582 -1 0 0 I I #
coedge $-1 $131 $197 $133 $215 reversed $75 $-1 #
vertex $-1 $207 $299 #
straight-curve $-1 0 -32.427174116350443 11.711269829184582 1 0 0 I I #
edge $-1 $136 -11.711269829184582 $205 11.711269829184582 $133 $300 forward 7 unknown #
edge $-1 $137 -11.711269829184582 $204 11.711269829184582 $134 $301 forward 7 unknown #
point $-1 75.323343607898181 -32.427174116350443 11.711269829184582 #
point $-1 75.323343607898181 32.427174116350443 11.711269829184582 #
face $-1 $-1 $302 $19 $-1 $303 reversed single #
loop $-1 $-1 $147 $139 #
plane-surface $-1 0 0 -11.711269829184582 0 0 1 1 0 0 forward_v I I I I #
coedge $-1 $304 $142 $305 $306 reversed $83 $-1 #
coedge $-1 $142 $304 $226 $307 reversed $83 $-1 #
coedge $-1 $150 $149 $142 $225 reversed $140 $-1 #
edge $-1 $308 -11.711269829184582 $309 11.711269829184582 $224 $310 forward 7 unknown #
coedge $-1 $144 $143 $223 $307 forward $53 $-1 #
edge $-1 $152 -6.0799707626615174 $308 6.0799707626615174 $150 $311 forward 7 unknown #
coedge $-1 $312 $232 $144 $229 reversed $302 $-1 #
edge $-1 $313 -87.483285133221216 $230 -75.323343607898181 $228 $314 forward 7 unknown #
vertex $-1 $233 $315 #
straight-curve $-1 -75.323343607898181 0 11.711269829184582 0 1 0 I I #
coedge $-1 $228 $316 $146 $233 forward $302 $-1 #
edge $-1 $236 -11.711269829184582 $230 11.711269829184582 $232 $317 forward 7 unknown #
coedge $-1 $305 $147 $316 $318 forward $220 $-1 #
coedge $-1 $147 $305 $149 $238 forward $220 $-1 #
vertex $-1 $318 $319 #
straight-curve $-1 -75.323343607898181 0 -11.711269829184582 0 -1 0 I I #
edge $-1 $309 -6.0799707626615174 $151 6.0799707626615174 $149 $320 forward 7 unknown #
point $-1 -75.323343607898181 -26.476932642604581 -11.711269829184582 #
point $-1 -75.323343607898181 -26.476932642604581 11.711269829184582 #
loop $-1 $-1 $162 $154 #
plane-surface $-1 0 -32.427174116350443 0 0 1 0 0 0 1 forward_v I I I I #
coedge $-1 $244 $157 $159 $248 reversed $91 $-1 #
coedge $-1 $157 $243 $321 $322 reversed $91 $-1 #
coedge $-1 $165 $160 $157 $246 forward $155 $-1 #
edge $-1 $249 -42.870380060768333 $323 -38.874419730311601 $245 $324 forward 7 unknown #
coedge $-1 $159 $158 $252 $325 reversed $57 $-1 #
edge $-1 $326 2.0734513383776317e-014 $249 5.8591935353317597 $243 $327 forward 7 unknown #
vertex $-1 $161 $328 #
straight-curve $-1 -25.311717539579778 -28.431213785893711 11.71126982918458 -1 0 0 I I #
coedge $-1 $321 $162 $165 $256 reversed $241 $-1 #
coedge $-1 $162 $321 $247 $325 forward $241 $-1 #
vertex $-1 $163 $329 #
straight-curve $-1 -38.083468075743959 -32.427174116350443 55.083459597538351 0 0 1 I I #
straight-curve $-1 -38.083468075743959 -32.427174116350457 7.4261269001926564 0 -0.68199835119979291 -0.73135370988377701 I I #
edge $-1 $323 -63.163402082575153 $166 -38.083468075743959 $251 $330 forward 7 unknown #
point $-1 -38.083468075743959 -32.427174116350443 11.711269829184582 #
point $-1 -38.083468075743959 -28.431213785893711 11.711269829184582 #
edge $-1 $331 1 $331 0 $169 $-1 forward 7 unknown #
vertex $-1 $170 $332 #
ellipse-curve $-1 -50.623435079159556 -29.697840241238296 8.886700013488829 0 -0.73135370988377701 0.68199835119979291 0.5 0 0 1 I I #
point $-1 -50.123435079159556 -30.429193951122073 9.5686983646886219 #
loop $-1 $-1 $182 $173 #
plane-surface $-1 75.323343607898181 0 0 -1 0 0 0 0 1 forward_v I I I I #
coedge $-1 $333 $176 $181 $271 forward $106 $-1 #
coedge $-1 $176 $333 $268 $334 reversed $106 $-1 #
edge $-1 $269 43.37218976835377 $276 47.65733269734568 $176 $335 forward 7 unknown #
coedge $-1 $185 $179 $266 $334 forward $174 $-1 #
vertex $-1 $334 $336 #
straight-curve $-1 50.243409601066986 -71.301593846662044 11.71126982918458 0 -1 0 I I #
edge $-1 $276 18.851721298825694 $274 43.931655305656889 $265 $337 forward 7 unknown #
coedge $-1 $273 $182 $185 $278 reversed $263 $-1 #
coedge $-1 $182 $272 $333 $338 forward $263 $-1 #
vertex $-1 $271 $339 #
straight-curve $-1 75.323343607898181 -26.737891417161059 13.527135797515951 0 0.68199835119979291 0.73135370988377701 I I #
vertex $-1 $271 $340 #
straight-curve $-1 50.243409601066986 -32.427174116350457 7.4261269001926564 0 0.68199835119979291 0.73135370988377701 I I #
edge $-1 $341 -32.427174116350443 $186 -28.431213785893711 $272 $342 forward 7 unknown #
point $-1 75.323343607898181 -28.431213785893711 11.711269829184582 #
point $-1 50.243409601066986 -28.431213785893711 11.711269829184582 #
edge $-1 $343 1 $343 0 $189 $-1 forward 7 unknown #
vertex $-1 $190 $344 #
ellipse-curve $-1 62.783376604482584 -29.697840241238296 8.886700013488829 0 -0.73135370988377701 0.68199835119979291 0.5 0 0 1 I I #
point $-1 63.283376604482584 -30.429193951122073 9.5686983646886219 #
plane-surface $-1 75.323343607898181 0 0 -1 0 0 0 0 1 forward_v I I I I #
coedge $-1 $287 $196 $209 $297 forward $121 $-1 #
coedge $-1 $198 $286 $200 $290 reversed $121 $-1 #
vertex $-1 $290 $345 #
straight-curve $-1 -75.323343607898181 -32.427174116350443 0 0 0 -1 I I #
edge $-1 $288 -32.427174116350443 $292 32.427174116350443 $287 $346 forward 7 unknown #
straight-curve $-1 0 -32.427174116350443 -11.711269829184582 -1 0 0 I I #
vertex $-1 $203 $347 #
straight-curve $-1 0 32.427174116350443 -11.711269829184582 1 0 0 I I #
point $-1 75.323343607898181 32.427174116350443 -11.711269829184582 #
point $-1 75.323343607898181 -32.427174116350443 -11.711269829184582 #
straight-curve $-1 -75.323343607898181 0 11.711269829184582 0 -1 0 I I #
edge $-1 $210 -11.711269829184582 $292 11.711269829184582 $209 $348 forward 7 unknown #
point $-1 -75.323343607898181 32.427174116350443 11.711269829184582 #
point $-1 -75.323343607898181 -32.427174116350443 11.711269829184582 #
straight-curve $-1 75.323343607898181 -32.427174116350443 0 0 0 -1 I I #
straight-curve $-1 75.323343607898181 32.427174116350443 0 0 0 -1 I I #
loop $-1 $-1 $232 $219 #
plane-surface $-1 0 -32.427174116350443 0 0 1 0 0 0 1 forward_v I I I I #
coedge $-1 $223 $222 $312 $349 reversed $83 $-1 #
coedge $-1 $235 $234 $222 $306 forward $220 $-1 #
edge $-1 $350 -2.9751207368729311 $309 2.9751207368729311 $222 $351 forward 7 unknown #
edge $-1 $308 -2.9751207368729311 $313 2.9751207368729311 $223 $352 forward 7 unknown #
vertex $-1 $227 $353 #
vertex $-1 $238 $354 #
straight-curve $-1 -87.483285133221216 -26.476932642604581 0 0 0 -1 I I #
straight-curve $-1 -81.403314370559698 -26.476932642604581 11.711269829184582 -1 0 0 I I #
coedge $-1 $316 $228 $304 $349 forward $302 $-1 #
vertex $-1 $307 $355 #
straight-curve $-1 0 -32.427174116350443 11.711269829184582 1 0 0 I I #
point $-1 -75.323343607898181 -32.427174116350443 11.711269829184582 #
coedge $-1 $232 $312 $234 $318 reversed $302 $-1 #
straight-curve $-1 -75.323343607898181 -32.427174116350443 0 0 0 1 I I #
edge $-1 $236 -6.0799707626615174 $350 6.0799707626615174 $316 $356 forward 7 unknown #
point $-1 -75.323343607898181 -32.427174116350443 -11.711269829184582 #
straight-curve $-1 -81.403314370559698 -26.476932642604581 -11.711269829184582 1 0 0 I I #
coedge $-1 $252 $251 $244 $322 forward $241 $-1 #
edge $-1 $323 43.37218976835377 $326 47.65733269734568 $321 $357 forward 7 unknown #
vertex $-1 $256 $358 #
straight-curve $-1 -63.163402082575153 -71.301593846662044 11.71126982918458 0 -1 0 I I #
edge $-1 $326 -37.851684542995372 $253 -12.771750536164181 $252 $359 forward 7 unknown #
vertex $-1 $325 $360 #
straight-curve $-1 -63.163402082575153 -32.427174116350457 7.4261269001926564 0 0.68199835119979291 0.73135370988377701 I I #
point $-1 -63.163402082575153 -28.431213785893711 11.711269829184582 #
point $-1 -38.083468075743959 -32.427174116350443 7.4261269001926715 #
straight-curve $-1 0 -32.427174116350443 11.711269829184582 1 0 0 I I #
vertex $-1 $259 $361 #
point $-1 -50.123435079159556 -29.697840241238296 8.886700013488829 #
coedge $-1 $266 $265 $273 $338 reversed $106 $-1 #
edge $-1 $269 50.243409601066986 $341 75.323343607898181 $266 $362 forward 7 unknown #
straight-curve $-1 50.243409601066986 -32.427174116350443 55.083459597538351 0 0 -1 I I #
point $-1 50.243409601066986 -32.427174116350443 11.711269829184582 #
straight-curve $-1 31.391688302241292 -32.427174116350443 7.4261269001926706 1 0 0 I I #
edge $-1 $341 -11.711269829184582 $274 -7.4261269001926715 $273 $363 forward 7 unknown #
point $-1 75.323343607898181 -32.427174116350443 7.4261269001926715 #
point $-1 50.243409601066986 -32.427174116350443 7.4261269001926715 #
vertex $-1 $278 $364 #
straight-curve $-1 75.323343607898181 0 11.711269829184582 0 1 0 I I #
vertex $-1 $281 $365 #
point $-1 63.283376604482584 -29.697840241238296 8.886700013488829 #
point $-1 -75.323343607898181 -32.427174116350443 -11.711269829184582 #
straight-curve $-1 -75.323343607898181 0 -11.711269829184582 0 1 0 I I #
point $-1 -75.323343607898181 32.427174116350443 -11.711269829184582 #
straight-curve $-1 -75.323343607898181 32.427174116350443 0 0 0 -1 I I #
edge $-1 $313 -11.711269829184582 $350 11.711269829184582 $304 $366 forward 7 unknown #
vertex $-1 $306 $367 #
straight-curve $-1 -87.483285133221216 -29.452053379477512 -11.711269829184582 0 1 0 I I #
straight-curve $-1 -87.483285133221216 -29.452053379477512 11.711269829184582 0 -1 0 I I #
point $-1 -87.483285133221216 -26.476932642604581 11.711269829184582 #
point $-1 -87.483285133221216 -26.476932642604581 -11.711269829184582 #
point $-1 -87.483285133221216 -32.427174116350443 11.711269829184582 #
straight-curve $-1 -81.403314370559698 -32.427174116350443 -11.711269829184582 -1 0 0 I I #
straight-curve $-1 -63.163402082575153 -32.427174116350443 55.083459597538351 0 0 -1 I I #
point $-1 -63.163402082575153 -32.427174116350443 11.711269829184582 #
straight-curve $-1 -25.311717539579778 -32.427174116350443 7.4261269001926706 1 0 0 I I #
point $-1 -63.163402082575153 -32.427174116350443 7.4261269001926715 #
point $-1 -50.623435079159556 -29.332163386296408 8.5457008378889316 #
straight-curve $-1 0 -32.427174116350443 11.711269829184582 1 0 0 I I #
straight-curve $-1 75.323343607898181 -32.427174116350443 0 0 0 -1 I I #
point $-1 75.323343607898181 -32.427174116350443 11.711269829184582 #
point $-1 62.783376604482584 -29.332163386296408 8.5457008378889316 #
straight-curve $-1 -87.483285133221216 -32.427174116350443 0 0 0 -1 I I #
point $-1 -87.483285133221216 -32.427174116350443 -11.711269829184582 #
End-of-ACIS-data 