500 0 13 0           
7 Unknown 11 ACIS 5.0 NT 24 Thu Mar 25 17:51:13 1999 
-1 9.9999999999999995e-007 1e-010 
body $-1 $13 $-1 $14 #
body $-1 $15 $-1 $16 #
body $-1 $17 $-1 $18 #
body $-1 $19 $-1 $20 #
body $-1 $21 $-1 $22 #
body $-1 $23 $-1 $24 #
body $-1 $25 $-1 $26 #
body $-1 $27 $-1 $28 #
body $-1 $29 $-1 $30 #
body $-1 $31 $-1 $32 #
body $-1 $33 $-1 $34 #
body $-1 $35 $-1 $36 #
body $-1 $37 $-1 $38 #
lump $-1 $-1 $39 $0 #
transform $-1 1 0 0 0 1 0 0 0 1 67.233497116000848 42.319943887668359 9.3059447521535947 1 rotate no_reflect no_shear #
lump $-1 $-1 $40 $1 #
transform $-1 1 0 0 0 1 0 0 0 1 67.233497116000848 42.319943887668359 9.3059447521535947 1 rotate no_reflect no_shear #
lump $-1 $-1 $41 $2 #
transform $-1 1 0 0 0 1 0 0 0 1 67.233497116000848 42.319943887668359 9.3059447521535947 1 rotate no_reflect no_shear #
lump $-1 $-1 $42 $3 #
transform $-1 1 0 0 0 1 0 0 0 1 67.233497116000848 42.319943887668359 9.3059447521535947 1 rotate no_reflect no_shear #
lump $-1 $-1 $43 $4 #
transform $-1 1 0 0 0 1 0 0 0 1 67.233497116000848 42.319943887668359 9.3059447521535947 1 rotate no_reflect no_shear #
lump $-1 $-1 $44 $5 #
transform $-1 1 0 0 0 1 0 0 0 1 67.233497116000848 42.319943887668359 9.3059447521535947 1 rotate no_reflect no_shear #
lump $-1 $-1 $45 $6 #
transform $-1 1 0 0 0 1 0 0 0 1 67.233497116000848 42.319943887668359 9.3059447521535947 1 rotate no_reflect no_shear #
lump $-1 $-1 $46 $7 #
transform $-1 1 0 0 0 1 0 0 0 1 67.233497116000848 42.319943887668359 9.3059447521535947 1 rotate no_reflect no_shear #
lump $-1 $-1 $47 $8 #
transform $-1 1 0 0 0 1 0 0 0 1 67.233497116000848 42.319943887668359 9.3059447521535947 1 rotate no_reflect no_shear #
lump $-1 $-1 $48 $9 #
transform $-1 1 0 0 0 1 0 0 0 1 67.233497116000848 42.319943887668359 9.3059447521535947 1 rotate no_reflect no_shear #
lump $-1 $-1 $49 $10 #
transform $-1 1 0 0 0 1 0 0 0 1 67.233497116000848 42.319943887668359 9.3059447521535947 1 rotate no_reflect no_shear #
lump $-1 $-1 $50 $11 #
transform $-1 1 0 0 0 1 0 0 0 1 67.233497116000848 42.319943887668359 9.3059447521535947 1 rotate no_reflect no_shear #
lump $-1 $-1 $51 $12 #
transform $-1 1 0 0 0 1 0 0 0 1 67.233497116000848 42.319943887668359 9.3059447521535947 1 rotate no_reflect no_shear #
shell $-1 $-1 $-1 $52 $-1 $13 #
shell $-1 $-1 $-1 $53 $-1 $15 #
shell $-1 $-1 $-1 $54 $-1 $17 #
shell $-1 $-1 $-1 $55 $-1 $19 #
shell $-1 $-1 $-1 $56 $-1 $21 #
shell $-1 $-1 $-1 $57 $-1 $23 #
shell $-1 $-1 $-1 $58 $-1 $25 #
shell $-1 $-1 $-1 $59 $-1 $27 #
shell $-1 $-1 $-1 $60 $-1 $29 #
shell $-1 $-1 $-1 $61 $-1 $31 #
shell $-1 $-1 $-1 $62 $-1 $33 #
shell $-1 $-1 $-1 $63 $-1 $35 #
shell $-1 $-1 $-1 $64 $-1 $37 #
face $-1 $65 $66 $39 $-1 $67 forward single #
face $-1 $68 $69 $40 $-1 $70 forward single #
face $-1 $71 $72 $41 $-1 $73 reversed single #
face $-1 $74 $75 $42 $-1 $76 forward single #
face $-1 $77 $78 $43 $-1 $79 forward single #
face $-1 $80 $81 $44 $-1 $82 forward single #
face $-1 $83 $84 $45 $-1 $85 reversed single #
face $-1 $86 $87 $46 $-1 $88 forward single #
face $-1 $89 $90 $47 $-1 $91 forward single #
face $-1 $92 $93 $48 $-1 $94 forward single #
face $-1 $95 $96 $49 $-1 $97 reversed single #
face $-1 $98 $99 $50 $-1 $100 forward single #
face $-1 $101 $102 $51 $-1 $103 forward single #
face $-1 $104 $105 $39 $-1 $106 reversed single #
loop $-1 $-1 $107 $52 #
plane-surface $-1 0 0 9.3059447521535947 0 0 1 1 0 0 forward_v I I I I #
face $-1 $108 $109 $40 $-1 $110 reversed single #
loop $-1 $-1 $111 $53 #
plane-surface $-1 0 -38.991623770646171 8.805944752153593 0 0 1 1 0 0 forward_v I I I I #
face $-1 $112 $113 $41 $-1 $114 reversed single #
loop $-1 $-1 $115 $54 #
plane-surface $-1 -136.48911988545612 -12.86140856501752 119.46011849043539 0 1 0 -0.51503808176128008 0 0.85716729658548041 forward_v I I I I #
face $-1 $116 $117 $42 $-1 $118 forward single #
loop $-1 $119 $120 $55 #
cone-surface $-1 -62.146137806667106 -9.6234628286095756 5.3579976876575088 0.51503808176128008 0 -0.85716729658548041 1.2857509448782207 0 0.77255712264192011 1 I I 0 1 1.5 forward I I I I #
face $-1 $121 $122 $43 $-1 $123 forward single #
loop $-1 $124 $125 $56 #
cone-surface $-1 -62.146137806667106 -4.7665442239976628 5.3579976876575088 0.51503808176128008 0 -0.85716729658548041 1.2857509448782207 0 0.77255712264192011 1 I I 0 1 1.5 forward I I I I #
face $-1 $126 $127 $44 $-1 $128 forward single #
loop $-1 $129 $130 $57 #
cone-surface $-1 -62.146137806667106 0.090374380614250072 5.3579976876575088 0.51503808176128008 0 -0.85716729658548041 1.2857509448782207 0 0.77255712264192011 1 I I 0 1 1.5 forward I I I I #
face $-1 $131 $132 $45 $-1 $133 reversed single #
loop $-1 $-1 $134 $58 #
plane-surface $-1 -67.233497116000848 -4.7665442239976628 4.199408564615112 -0.51503808176128008 0 0.85716729658548041 0.85716729658548041 0 0.51503808176128008 forward_v I I I I #
face $-1 $135 $136 $46 $-1 $137 forward single #
loop $-1 $138 $139 $59 #
cone-surface $-1 -62.146137806667106 6.5662658534301386 5.3579976876575088 0.51503808176128008 0 -0.85716729658548041 1.2857509448782207 0 0.77255712264192011 1 I I 0 1 1.5 forward I I I I #
face $-1 $140 $141 $47 $-1 $142 forward single #
loop $-1 $143 $144 $60 #
cone-surface $-1 -62.146137806667106 11.423184458042051 5.3579976876575088 0.51503808176128008 0 -0.85716729658548041 1.2857509448782207 0 0.77255712264192011 1 I I 0 1 1.5 forward I I I I #
face $-1 $145 $146 $48 $-1 $147 forward single #
loop $-1 $148 $149 $61 #
cone-surface $-1 -62.146137806667106 16.280103062653964 5.3579976876575088 0.51503808176128008 0 -0.85716729658548041 1.2857509448782207 0 0.77255712264192011 1 I I 0 1 1.5 forward I I I I #
face $-1 $150 $151 $49 $-1 $152 reversed single #
loop $-1 $-1 $153 $62 #
plane-surface $-1 50.65952315956747 -21.883256606630454 193.87156544758119 0 -1 0 -0.64278761758704617 0 -0.76604443648966558 forward_v I I I I #
face $-1 $154 $155 $50 $-1 $156 forward single #
loop $-1 $157 $158 $63 #
cone-surface $-1 63.310940115739548 -31.726147354482972 5.6558138005040464 -0.64278761758704617 0 -0.76604443648966558 0.76604443648966558 0 -0.64278761758704617 1 I I 0 1 1 forward I I I I #
face $-1 $159 $160 $51 $-1 $161 forward single #
loop $-1 $162 $163 $64 #
cone-surface $-1 63.310940115739548 -25.820412905771462 5.6558138005040464 -0.64278761758704617 0 -0.76604443648966558 0.76604443648966558 0 -0.64278761758704617 1 I I 0 1 1 forward I I I I #
face $-1 $164 $165 $39 $-1 $166 reversed single #
loop $-1 $-1 $167 $65 #
plane-surface $-1 0 0 -9.3059447521535947 0 0 1 1 0 0 forward_v I I I I #
coedge $-1 $168 $169 $170 $171 forward $66 $-1 #
face $-1 $172 $173 $40 $-1 $174 reversed single #
loop $-1 $-1 $175 $68 #
plane-surface $-1 0 -38.991623770646171 5.6595828779750361 0 0 1 1 0 0 forward_v I I I I #
coedge $-1 $176 $177 $178 $179 reversed $69 $-1 #
face $-1 $180 $181 $41 $-1 $182 reversed single #
loop $-1 $-1 $183 $71 #
plane-surface $-1 -67.233497116000848 -4.7665442239976628 4.199408564615112 -0.51503808176128008 0 0.85716729658548041 0.85716729658548041 0 0.51503808176128008 forward_v I I I I #
coedge $-1 $184 $185 $186 $187 reversed $72 $-1 #
face $-1 $-1 $188 $42 $-1 $189 forward single #
loop $-1 $190 $191 $74 #
cone-surface $-1 -60.921851560478387 -9.6234628286095756 3.3204432444915515 0.51503808176128008 0 -0.85716729658548041 0.64287547243911036 0 0.38627856132096006 1 I I -0.70710678118654757 0.70710678118654757 0.75 forward I I I I #
loop $-1 $-1 $192 $55 #
coedge $-1 $120 $120 $193 $194 reversed $75 $-1 #
face $-1 $-1 $195 $43 $-1 $196 forward single #
loop $-1 $197 $198 $77 #
cone-surface $-1 -60.921851560478387 -4.7665442239976628 3.3204432444915515 0.51503808176128008 0 -0.85716729658548041 0.64287547243911036 0 0.38627856132096006 1 I I -0.70710678118654757 0.70710678118654757 0.75 forward I I I I #
loop $-1 $-1 $199 $56 #
coedge $-1 $125 $125 $200 $201 reversed $78 $-1 #
face $-1 $-1 $202 $44 $-1 $203 forward single #
loop $-1 $204 $205 $80 #
cone-surface $-1 -60.921851560478387 0.090374380614250072 3.3204432444915515 0.51503808176128008 0 -0.85716729658548041 0.64287547243911036 0 0.38627856132096006 1 I I -0.70710678118654757 0.70710678118654757 0.75 forward I I I I #
loop $-1 $-1 $206 $57 #
coedge $-1 $130 $130 $207 $208 reversed $81 $-1 #
face $-1 $209 $210 $45 $-1 $211 forward single #
loop $-1 $-1 $212 $83 #
plane-surface $-1 -136.48911988545612 19.518048799061908 119.46011849043539 0 -1 0 0.51503808176128008 0 -0.85716729658548041 forward_v I I I I #
coedge $-1 $213 $214 $215 $216 reversed $84 $-1 #
face $-1 $-1 $217 $46 $-1 $218 forward single #
loop $-1 $219 $220 $86 #
cone-surface $-1 -60.921851560478387 6.5662658534301386 3.3204432444915515 0.51503808176128008 0 -0.85716729658548041 0.64287547243911036 0 0.38627856132096006 1 I I -0.70710678118654757 0.70710678118654757 0.75 forward I I I I #
loop $-1 $-1 $221 $59 #
coedge $-1 $139 $139 $222 $223 reversed $87 $-1 #
face $-1 $-1 $224 $47 $-1 $225 forward single #
loop $-1 $226 $227 $89 #
cone-surface $-1 -60.921851560478387 11.423184458042051 3.3204432444915515 0.51503808176128008 0 -0.85716729658548041 0.64287547243911036 0 0.38627856132096006 1 I I -0.70710678118654757 0.70710678118654757 0.75 forward I I I I #
loop $-1 $-1 $228 $60 #
coedge $-1 $144 $144 $229 $230 reversed $90 $-1 #
face $-1 $-1 $231 $48 $-1 $232 forward single #
loop $-1 $233 $234 $92 #
cone-surface $-1 -60.921851560478387 16.280103062653964 3.3204432444915515 0.51503808176128008 0 -0.85716729658548041 0.64287547243911036 0 0.38627856132096006 1 I I -0.70710678118654757 0.70710678118654757 0.75 forward I I I I #
loop $-1 $-1 $235 $61 #
coedge $-1 $149 $149 $236 $237 reversed $93 $-1 #
face $-1 $238 $239 $49 $-1 $240 forward single #
loop $-1 $-1 $241 $95 #
plane-surface $-1 -35.774195706911982 -28.773280130127215 90.863872624668346 0.64278761758704617 0 0.76604443648966558 0.76604443648966558 0 -0.64278761758704617 forward_v I I I I #
coedge $-1 $242 $243 $244 $245 reversed $96 $-1 #
face $-1 $-1 $246 $50 $-1 $247 forward single #
loop $-1 $248 $249 $98 #
cone-surface $-1 61.972359962729826 -31.726147354482972 4.0605561275920063 -0.64278761758704617 0 -0.76604443648966558 0.38302221824483279 0 -0.32139380879352308 1 I I -0.70710678118654746 0.70710678118654746 0.5 forward I I I I #
loop $-1 $-1 $250 $63 #
coedge $-1 $158 $158 $251 $252 reversed $99 $-1 #
face $-1 $-1 $253 $51 $-1 $254 forward single #
loop $-1 $255 $256 $101 #
cone-surface $-1 61.972359962729826 -25.820412905771462 4.0605561275920063 -0.64278761758704617 0 -0.76604443648966558 0.38302221824483279 0 -0.32139380879352308 1 I I -0.70710678118654746 0.70710678118654746 0.5 forward I I I I #
loop $-1 $-1 $257 $64 #
coedge $-1 $163 $163 $258 $259 reversed $102 $-1 #
face $-1 $260 $261 $39 $-1 $262 reversed single #
loop $-1 $-1 $263 $104 #
plane-surface $-1 0 -42.319943887668359 0 0 1 0 0 0 1 forward_v I I I I #
coedge $-1 $264 $265 $266 $267 forward $105 $-1 #
coedge $-1 $268 $107 $269 $270 forward $66 $-1 #
coedge $-1 $107 $268 $271 $272 forward $66 $-1 #
coedge $-1 $273 $274 $107 $171 reversed $275 $-1 #
edge $-1 $276 -42.319943887668359 $277 42.319943887668359 $170 $278 forward 7 unknown #
face $-1 $279 $280 $40 $-1 $281 reversed single #
loop $-1 $-1 $282 $108 #
plane-surface $-1 0 -35.663303653623984 7.232763815064315 0 -1 0 0 0 -1 forward_v I I I I #
coedge $-1 $283 $284 $285 $286 reversed $109 $-1 #
coedge $-1 $287 $111 $288 $289 forward $69 $-1 #
coedge $-1 $111 $287 $290 $291 reversed $69 $-1 #
coedge $-1 $292 $293 $111 $179 forward $294 $-1 #
edge $-1 $295 16.167491768300899 $296 22.824132002345273 $178 $297 forward 7 unknown #
face $-1 $298 $299 $41 $-1 $300 reversed single #
loop $-1 $-1 $301 $112 #
plane-surface $-1 -136.48911988545612 3.3283201170221943 119.46011849043539 0 -1 0 0.51503808176128008 0 -0.85716729658548041 forward_v I I I I #
coedge $-1 $302 $303 $304 $305 reversed $113 $-1 #
coedge $-1 $185 $115 $306 $307 reversed $72 $-1 #
coedge $-1 $115 $184 $302 $308 reversed $72 $-1 #
coedge $-1 $304 $309 $115 $187 forward $310 $-1 #
edge $-1 $311 1.0110628267272119 $312 9.5097660756591935 $186 $313 forward 7 unknown #
loop $-1 $-1 $193 $116 #
plane-surface $-1 -67.233497116000848 -4.7665442239976628 4.199408564615112 -0.51503808176128008 0 0.85716729658548041 0.85716729658548041 0 0.51503808176128008 forward_v I I I I #
loop $-1 $-1 $314 $74 #
coedge $-1 $191 $191 $192 $315 reversed $117 $-1 #
coedge $-1 $192 $192 $191 $315 forward $119 $-1 #
coedge $-1 $193 $193 $120 $194 forward $188 $-1 #
edge $-1 $316 0 $316 6.2831853071796004 $193 $317 forward 7 unknown #
loop $-1 $-1 $200 $121 #
plane-surface $-1 -67.233497116000848 -4.7665442239976628 4.199408564615112 -0.51503808176128008 0 0.85716729658548041 0.85716729658548041 0 0.51503808176128008 forward_v I I I I #
loop $-1 $-1 $318 $77 #
coedge $-1 $198 $198 $199 $319 reversed $122 $-1 #
coedge $-1 $199 $199 $198 $319 forward $124 $-1 #
coedge $-1 $200 $200 $125 $201 forward $195 $-1 #
edge $-1 $320 0 $320 6.2831853071796004 $200 $321 forward 7 unknown #
loop $-1 $-1 $207 $126 #
plane-surface $-1 -67.233497116000848 -4.7665442239976628 4.199408564615112 -0.51503808176128008 0 0.85716729658548041 0.85716729658548041 0 0.51503808176128008 forward_v I I I I #
loop $-1 $-1 $322 $80 #
coedge $-1 $205 $205 $206 $323 reversed $127 $-1 #
coedge $-1 $206 $206 $205 $323 forward $129 $-1 #
coedge $-1 $207 $207 $130 $208 forward $202 $-1 #
edge $-1 $324 0 $324 6.2831853071796004 $207 $325 forward 7 unknown #
face $-1 $326 $327 $45 $-1 $328 forward single #
loop $-1 $-1 $329 $131 #
plane-surface $-1 0 0 9.3059447521535947 0 0 1 1 0 0 forward_v I I I I #
coedge $-1 $330 $331 $332 $333 reversed $132 $-1 #
coedge $-1 $334 $134 $335 $336 reversed $84 $-1 #
coedge $-1 $134 $334 $329 $337 reversed $84 $-1 #
coedge $-1 $338 $339 $134 $216 forward $327 $-1 #
edge $-1 $340 0 $341 9.914871090843647 $215 $342 forward 7 unknown #
loop $-1 $-1 $222 $135 #
plane-surface $-1 -67.233497116000848 -4.7665442239976628 4.199408564615112 -0.51503808176128008 0 0.85716729658548041 0.85716729658548041 0 0.51503808176128008 forward_v I I I I #
loop $-1 $-1 $343 $86 #
coedge $-1 $220 $220 $221 $344 reversed $136 $-1 #
coedge $-1 $221 $221 $220 $344 forward $138 $-1 #
coedge $-1 $222 $222 $139 $223 forward $217 $-1 #
edge $-1 $345 0 $345 6.2831853071796004 $222 $346 forward 7 unknown #
loop $-1 $-1 $229 $140 #
plane-surface $-1 -67.233497116000848 -4.7665442239976628 4.199408564615112 -0.51503808176128008 0 0.85716729658548041 0.85716729658548041 0 0.51503808176128008 forward_v I I I I #
loop $-1 $-1 $347 $89 #
coedge $-1 $227 $227 $228 $348 reversed $141 $-1 #
coedge $-1 $228 $228 $227 $348 forward $143 $-1 #
coedge $-1 $229 $229 $144 $230 forward $224 $-1 #
edge $-1 $349 0 $349 6.2831853071796004 $229 $350 forward 7 unknown #
loop $-1 $-1 $236 $145 #
plane-surface $-1 -67.233497116000848 -4.7665442239976628 4.199408564615112 -0.51503808176128008 0 0.85716729658548041 0.85716729658548041 0 0.51503808176128008 forward_v I I I I #
loop $-1 $-1 $351 $92 #
coedge $-1 $234 $234 $235 $352 reversed $146 $-1 #
coedge $-1 $235 $235 $234 $352 forward $148 $-1 #
coedge $-1 $236 $236 $149 $237 forward $231 $-1 #
edge $-1 $353 0 $353 6.2831853071796004 $236 $354 forward 7 unknown #
face $-1 $355 $356 $49 $-1 $357 reversed single #
loop $-1 $-1 $244 $150 #
plane-surface $-1 0 0 9.3059447521535947 0 0 1 1 0 0 forward_v I I I I #
coedge $-1 $358 $359 $360 $361 reversed $151 $-1 #
coedge $-1 $243 $153 $362 $363 reversed $96 $-1 #
coedge $-1 $153 $242 $358 $364 reversed $96 $-1 #
coedge $-1 $360 $365 $153 $245 forward $239 $-1 #
edge $-1 $366 -41.903735536217113 $367 -36.092994224126954 $244 $368 forward 7 unknown #
loop $-1 $-1 $251 $154 #
plane-surface $-1 -35.774195706911982 -28.773280130127215 90.863872624668346 0.64278761758704617 0 0.76604443648966558 0.76604443648966558 0 -0.64278761758704617 forward_v I I I I #
loop $-1 $-1 $369 $98 #
coedge $-1 $249 $249 $250 $370 reversed $155 $-1 #
coedge $-1 $250 $250 $249 $370 forward $157 $-1 #
coedge $-1 $251 $251 $158 $252 forward $246 $-1 #
edge $-1 $371 0 $371 6.2831853071796004 $251 $372 forward 7 unknown #
loop $-1 $-1 $258 $159 #
plane-surface $-1 -35.774195706911982 -28.773280130127215 90.863872624668346 0.64278761758704617 0 0.76604443648966558 0.76604443648966558 0 -0.64278761758704617 forward_v I I I I #
loop $-1 $-1 $373 $101 #
coedge $-1 $256 $256 $257 $374 reversed $160 $-1 #
coedge $-1 $257 $257 $256 $374 forward $162 $-1 #
coedge $-1 $258 $258 $163 $259 forward $253 $-1 #
edge $-1 $375 0 $375 6.2831853071796004 $258 $376 forward 7 unknown #
face $-1 $377 $378 $39 $-1 $379 reversed single #
loop $-1 $-1 $380 $164 #
plane-surface $-1 -67.233497116000848 0 0 1 0 0 0 0 -1 forward_v I I I I #
coedge $-1 $381 $271 $382 $383 forward $165 $-1 #
coedge $-1 $384 $167 $381 $385 forward $105 $-1 #
coedge $-1 $167 $384 $386 $387 forward $105 $-1 #
coedge $-1 $274 $273 $167 $267 reversed $275 $-1 #
edge $-1 $388 -42.319943887668359 $389 42.319943887668359 $266 $390 forward 7 unknown #
coedge $-1 $169 $168 $391 $392 forward $66 $-1 #
coedge $-1 $393 $394 $168 $270 reversed $378 $-1 #
edge $-1 $277 -67.233497116000848 $395 67.233497116000848 $269 $396 forward 7 unknown #
coedge $-1 $263 $397 $169 $272 reversed $165 $-1 #
edge $-1 $398 -67.233497116000848 $276 67.233497116000848 $271 $399 forward 7 unknown #
coedge $-1 $266 $170 $397 $400 forward $275 $-1 #
coedge $-1 $170 $266 $393 $401 reversed $275 $-1 #
loop $-1 $-1 $273 $377 #
vertex $-1 $171 $402 #
vertex $-1 $171 $403 #
straight-curve $-1 67.233497116000848 0 9.3059447521535947 0 1 0 I I #
face $-1 $404 $405 $40 $-1 $406 reversed single #
loop $-1 $-1 $407 $172 #
plane-surface $-1 -67.233497116000848 0 0 1 0 0 0 0 -1 forward_v I I I I #
coedge $-1 $408 $288 $293 $409 reversed $173 $-1 #
coedge $-1 $410 $175 $411 $412 reversed $109 $-1 #
coedge $-1 $175 $410 $408 $413 forward $109 $-1 #
coedge $-1 $293 $292 $175 $286 forward $294 $-1 #
edge $-1 $414 -22.824132002345273 $415 -16.167491768300899 $285 $416 forward 7 unknown #
coedge $-1 $177 $176 $407 $417 reversed $69 $-1 #
coedge $-1 $282 $418 $176 $289 reversed $173 $-1 #
edge $-1 $295 -67.233497116000848 $419 67.233497116000848 $288 $420 forward 7 unknown #
coedge $-1 $421 $422 $177 $291 forward $405 $-1 #
edge $-1 $296 -67.233497116000848 $423 67.233497116000848 $290 $424 forward 7 unknown #
coedge $-1 $285 $178 $422 $425 forward $294 $-1 #
coedge $-1 $178 $285 $282 $409 forward $294 $-1 #
loop $-1 $-1 $178 $404 #
vertex $-1 $179 $426 #
vertex $-1 $425 $427 #
straight-curve $-1 67.233497116000848 -19.495811885323086 8.805944752153593 0 -1 0 I I #
face $-1 $-1 $310 $41 $-1 $428 forward single #
loop $-1 $-1 $429 $180 #
plane-surface $-1 -67.233497116000848 0 0 1 0 0 0 0 -1 forward_v I I I I #
coedge $-1 $430 $431 $432 $433 reversed $181 $-1 #
coedge $-1 $434 $183 $185 $308 forward $113 $-1 #
coedge $-1 $183 $434 $430 $435 forward $113 $-1 #
coedge $-1 $432 $186 $183 $305 forward $310 $-1 #
edge $-1 $312 -10.478136453018688 $436 5.7115922290210257 $304 $437 forward 7 unknown #
coedge $-1 $438 $439 $184 $307 forward $299 $-1 #
edge $-1 $440 -55.530650680602584 $311 -50.424114493064103 $306 $441 forward 7 unknown #
edge $-1 $312 -9.914871090843647 $440 0 $185 $442 forward 7 unknown #
coedge $-1 $186 $432 $438 $443 forward $310 $-1 #
loop $-1 $-1 $432 $298 #
vertex $-1 $307 $444 #
vertex $-1 $187 $445 #
straight-curve $-1 -68.24455994272806 -12.86140856501752 9.305944752153593 1 0 0 I I #
coedge $-1 $314 $314 $-1 $446 reversed $190 $-1 #
edge $-1 $447 0 $447 6.2831853071796004 $191 $448 forward 7 unknown #
vertex $-1 $194 $449 #
ellipse-curve $-1 -62.984145491534861 -9.6234628286095756 6.7526766583843516 -0.51503808176128008 0 0.85716729658548041 1.2857509448782207 0 0.77255712264192011 1 I I #
coedge $-1 $318 $318 $-1 $450 reversed $197 $-1 #
edge $-1 $451 0 $451 6.2831853071796004 $198 $452 forward 7 unknown #
vertex $-1 $201 $453 #
ellipse-curve $-1 -62.984145491534861 -4.7665442239976628 6.7526766583843516 -0.51503808176128008 0 0.85716729658548041 1.2857509448782207 0 0.77255712264192011 1 I I #
coedge $-1 $322 $322 $-1 $454 reversed $204 $-1 #
edge $-1 $455 0 $455 6.2831853071796004 $205 $456 forward 7 unknown #
vertex $-1 $208 $457 #
ellipse-curve $-1 -62.984145491534861 0.090374380614250072 6.7526766583843516 -0.51503808176128008 0 0.85716729658548041 1.2857509448782207 0 0.77255712264192011 1 I I #
face $-1 $-1 $458 $45 $-1 $459 reversed single #
loop $-1 $-1 $338 $209 #
plane-surface $-1 -136.48911988545612 3.3283201170221943 119.46011849043539 0 -1 0 0.51503808176128008 0 -0.85716729658548041 forward_v I I I I #
coedge $-1 $332 $460 $214 $337 forward $210 $-1 #
coedge $-1 $331 $212 $334 $461 reversed $132 $-1 #
coedge $-1 $212 $330 $462 $463 reversed $132 $-1 #
coedge $-1 $464 $329 $212 $333 forward $210 $-1 #
edge $-1 $465 -9.5097660756591935 $466 -1.0110628267272119 $332 $467 forward 7 unknown #
coedge $-1 $214 $213 $330 $461 forward $84 $-1 #
coedge $-1 $468 $462 $213 $336 forward $458 $-1 #
edge $-1 $469 -21.90132091106074 $340 -5.7115922290210257 $335 $470 forward 7 unknown #
edge $-1 $341 5.7115922290210257 $465 21.90132091106074 $329 $471 forward 7 unknown #
coedge $-1 $339 $215 $460 $472 reversed $327 $-1 #
coedge $-1 $215 $338 $468 $473 reversed $327 $-1 #
vertex $-1 $336 $474 #
vertex $-1 $337 $475 #
straight-curve $-1 -67.233497116000848 3.3283201170221943 4.199408564615112 0.85716729658548041 0 0.51503808176128008 I I #
coedge $-1 $343 $343 $-1 $476 reversed $219 $-1 #
edge $-1 $477 0 $477 6.2831853071796004 $220 $478 forward 7 unknown #
vertex $-1 $223 $479 #
ellipse-curve $-1 -62.984145491534861 6.5662658534301386 6.7526766583843516 -0.51503808176128008 0 0.85716729658548041 1.2857509448782207 0 0.77255712264192011 1 I I #
coedge $-1 $347 $347 $-1 $480 reversed $226 $-1 #
edge $-1 $481 0 $481 6.2831853071796004 $227 $482 forward 7 unknown #
vertex $-1 $230 $483 #
ellipse-curve $-1 -62.984145491534861 11.423184458042051 6.7526766583843516 -0.51503808176128008 0 0.85716729658548041 1.2857509448782207 0 0.77255712264192011 1 I I #
coedge $-1 $351 $351 $-1 $484 reversed $233 $-1 #
edge $-1 $485 0 $485 6.2831853071796004 $234 $486 forward 7 unknown #
vertex $-1 $237 $487 #
ellipse-curve $-1 -62.984145491534861 16.280103062653964 6.7526766583843516 -0.51503808176128008 0 0.85716729658548041 1.2857509448782207 0 0.77255712264192011 1 I I #
face $-1 $-1 $488 $49 $-1 $489 forward single #
loop $-1 $-1 $490 $238 #
plane-surface $-1 67.233497116000848 0 0 -1 0 0 0 0 1 forward_v I I I I #
coedge $-1 $491 $241 $243 $364 forward $151 $-1 #
coedge $-1 $241 $491 $492 $493 forward $151 $-1 #
coedge $-1 $494 $244 $241 $361 forward $239 $-1 #
edge $-1 $367 7.496616541566846 $495 21.276663588560368 $360 $496 forward 7 unknown #
coedge $-1 $497 $498 $242 $363 forward $356 $-1 #
edge $-1 $499 -92.505628965601673 $366 -87.629837971637002 $362 $500 forward 7 unknown #
edge $-1 $367 126.88161010113141 $499 134.46699423200167 $243 $501 forward 7 unknown #
coedge $-1 $244 $494 $497 $502 forward $239 $-1 #
vertex $-1 $363 $503 #
vertex $-1 $245 $504 #
straight-curve $-1 25.329761579783735 -21.883256606630454 9.305944752153593 -1 0 0 I I #
coedge $-1 $369 $369 $-1 $505 reversed $248 $-1 #
edge $-1 $506 0 $506 6.2831853071796004 $249 $507 forward 7 unknown #
vertex $-1 $252 $508 #
ellipse-curve $-1 64.328126459955755 -31.726147354482972 6.8680492551712629 0.64278761758704617 0 0.76604443648966558 0.76604443648966558 0 -0.64278761758704617 1 I I #
coedge $-1 $373 $373 $-1 $509 reversed $255 $-1 #
edge $-1 $510 0 $510 6.2831853071796004 $256 $511 forward 7 unknown #
vertex $-1 $259 $512 #
ellipse-curve $-1 64.328126459955755 -25.820412905771462 6.8680492551712629 0.64278761758704617 0 0.76604443648966558 0.76604443648966558 0 -0.64278761758704617 1 I I #
face $-1 $-1 $275 $39 $-1 $513 reversed single #
loop $-1 $-1 $393 $260 #
plane-surface $-1 0 42.319943887668359 0 0 -1 0 0 0 -1 forward_v I I I I #
coedge $-1 $514 $391 $394 $515 forward $261 $-1 #
coedge $-1 $397 $263 $264 $385 reversed $165 $-1 #
coedge $-1 $391 $514 $263 $383 reversed $261 $-1 #
edge $-1 $398 -9.3059447521535947 $516 9.3059447521535947 $382 $517 forward 7 unknown #
coedge $-1 $265 $264 $514 $518 forward $105 $-1 #
edge $-1 $389 -67.233497116000848 $516 67.233497116000848 $381 $519 forward 7 unknown #
coedge $-1 $394 $393 $265 $387 reversed $378 $-1 #
edge $-1 $520 -67.233497116000848 $388 67.233497116000848 $386 $521 forward 7 unknown #
vertex $-1 $267 $522 #
vertex $-1 $400 $523 #
straight-curve $-1 67.233497116000848 0 -9.3059447521535947 0 -1 0 I I #
coedge $-1 $380 $382 $268 $392 reversed $261 $-1 #
edge $-1 $395 -42.319943887668359 $398 42.319943887668359 $391 $524 forward 7 unknown #
coedge $-1 $386 $269 $274 $401 forward $378 $-1 #
coedge $-1 $269 $386 $380 $515 reversed $378 $-1 #
vertex $-1 $270 $525 #
straight-curve $-1 0 42.319943887668359 9.3059447521535947 -1 0 0 I I #
coedge $-1 $271 $381 $273 $400 reversed $165 $-1 #
vertex $-1 $392 $526 #
straight-curve $-1 0 -42.319943887668359 9.3059447521535947 1 0 0 I I #
edge $-1 $276 -9.3059447521535947 $389 9.3059447521535947 $273 $527 forward 7 unknown #
edge $-1 $277 -9.3059447521535947 $388 9.3059447521535947 $274 $528 forward 7 unknown #
point $-1 67.233497116000848 -42.319943887668359 9.3059447521535947 #
point $-1 67.233497116000848 42.319943887668359 9.3059447521535947 #
face $-1 $-1 $294 $40 $-1 $529 reversed single #
loop $-1 $-1 $290 $279 #
plane-surface $-1 0 -42.319943887668359 0 0 1 0 0 0 1 forward_v I I I I #
coedge $-1 $530 $531 $287 $417 forward $280 $-1 #
coedge $-1 $418 $282 $284 $413 reversed $173 $-1 #
edge $-1 $415 2.0432009704428786 $295 5.1895628446214355 $293 $532 forward 7 unknown #
coedge $-1 $284 $283 $533 $534 reversed $109 $-1 #
coedge $-1 $422 $421 $283 $412 forward $405 $-1 #
edge $-1 $535 -67.233497116000848 $414 67.233497116000848 $411 $536 forward 7 unknown #
edge $-1 $537 -67.233497116000848 $415 67.233497116000848 $408 $538 forward 7 unknown #
vertex $-1 $412 $539 #
vertex $-1 $286 $540 #
straight-curve $-1 67.233497116000848 -19.495811885323086 5.6595828779750361 0 1 0 I I #
edge $-1 $423 -22.824132002345273 $419 -16.167491768300899 $407 $541 forward 7 unknown #
coedge $-1 $288 $408 $530 $542 reversed $173 $-1 #
vertex $-1 $417 $543 #
straight-curve $-1 0 -35.663303653623984 8.805944752153593 -1 0 0 I I #
coedge $-1 $411 $290 $531 $544 forward $405 $-1 #
coedge $-1 $290 $411 $292 $425 reversed $405 $-1 #
vertex $-1 $544 $545 #
straight-curve $-1 0 -42.319943887668359 8.805944752153593 -1 0 0 I I #
edge $-1 $296 -8.805944752153593 $414 -5.6595828779750361 $292 $546 forward 7 unknown #
point $-1 67.233497116000848 -35.663303653623984 8.805944752153593 #
point $-1 67.233497116000848 -42.319943887668359 8.805944752153593 #
plane-surface $-1 0 0 9.3059447521535947 0 0 1 1 0 0 forward_v I I I I #
coedge $-1 $439 $438 $431 $547 forward $299 $-1 #
coedge $-1 $431 $301 $303 $435 reversed $181 $-1 #
coedge $-1 $301 $430 $429 $547 reversed $181 $-1 #
coedge $-1 $309 $304 $301 $433 forward $310 $-1 #
edge $-1 $436 -9.5097660756591935 $548 -1.0110628267272119 $432 $549 forward 7 unknown #
coedge $-1 $303 $302 $439 $550 reversed $113 $-1 #
edge $-1 $551 0 $436 9.914871090843647 $430 $552 forward 7 unknown #
vertex $-1 $305 $553 #
straight-curve $-1 -58.734793867068859 -2.3832721119988314 9.3059447521535947 0 1 0 I I #
coedge $-1 $429 $306 $309 $443 reversed $299 $-1 #
coedge $-1 $306 $429 $434 $550 forward $299 $-1 #
vertex $-1 $307 $554 #
straight-curve $-1 -67.233497116000848 -12.86140856501752 59.730059245217696 0 0 1 I I #
straight-curve $-1 -67.233497116000848 -12.86140856501752 4.199408564615112 -0.85716729658548041 0 -0.51503808176128008 I I #
edge $-1 $548 -3.3283201170221943 $311 12.86140856501752 $438 $555 forward 7 unknown #
point $-1 -67.233497116000848 -12.86140856501752 9.3059447521535947 #
point $-1 -58.734793867068866 -12.86140856501752 9.3059447521535947 #
edge $-1 $556 1 $556 0 $314 $-1 forward 7 unknown #
vertex $-1 $315 $557 #
ellipse-curve $-1 -61.308130121799344 -9.6234628286095756 3.9633187169306616 -0.51503808176128008 0 0.85716729658548041 1.2857509448782207 0 0.77255712264192011 1 I I #
point $-1 -61.698394546656637 -9.6234628286095756 7.5252337810262757 #
edge $-1 $558 1 $558 0 $318 $-1 forward 7 unknown #
vertex $-1 $319 $559 #
ellipse-curve $-1 -61.308130121799344 -4.7665442239976628 3.9633187169306616 -0.51503808176128008 0 0.85716729658548041 1.2857509448782207 0 0.77255712264192011 1 I I #
point $-1 -61.698394546656637 -4.7665442239976628 7.5252337810262757 #
edge $-1 $560 1 $560 0 $322 $-1 forward 7 unknown #
vertex $-1 $323 $561 #
ellipse-curve $-1 -61.308130121799344 0.090374380614250072 3.9633187169306616 -0.51503808176128008 0 0.85716729658548041 1.2857509448782207 0 0.77255712264192011 1 I I #
point $-1 -61.698394546656637 0.090374380614250072 7.5252337810262757 #
loop $-1 $-1 $335 $326 #
plane-surface $-1 -67.233497116000848 0 0 1 0 0 0 0 -1 forward_v I I I I #
coedge $-1 $329 $464 $338 $472 forward $210 $-1 #
edge $-1 $469 0 $465 9.914871090843647 $330 $562 forward 7 unknown #
coedge $-1 $335 $563 $331 $463 forward $458 $-1 #
edge $-1 $466 50.424114493064103 $469 55.530650680602584 $462 $564 forward 7 unknown #
coedge $-1 $460 $332 $563 $565 forward $210 $-1 #
vertex $-1 $333 $566 #
vertex $-1 $565 $567 #
straight-curve $-1 -68.24455994272806 19.518048799061908 9.305944752153593 -1 0 0 I I #
coedge $-1 $563 $335 $339 $473 forward $458 $-1 #
vertex $-1 $463 $568 #
straight-curve $-1 -67.233497116000848 -2.3832721119988314 4.1994085646151111 0 -1 0 I I #
straight-curve $-1 -58.734793867068859 -2.3832721119988314 9.3059447521535947 0 1 0 I I #
edge $-1 $569 1.0110628267272119 $341 9.5097660756591935 $460 $570 forward 7 unknown #
edge $-1 $340 -55.530650680602584 $569 -50.424114493064103 $468 $571 forward 7 unknown #
point $-1 -67.233497116000848 3.3283201170221943 4.199408564615112 #
point $-1 -58.734793867068866 3.3283201170221943 9.3059447521535947 #
edge $-1 $572 1 $572 0 $343 $-1 forward 7 unknown #
vertex $-1 $344 $573 #
ellipse-curve $-1 -61.308130121799344 6.5662658534301386 3.9633187169306616 -0.51503808176128008 0 0.85716729658548041 1.2857509448782207 0 0.77255712264192011 1 I I #
point $-1 -61.698394546656637 6.5662658534301386 7.5252337810262757 #
edge $-1 $574 1 $574 0 $347 $-1 forward 7 unknown #
vertex $-1 $348 $575 #
ellipse-curve $-1 -61.308130121799344 11.423184458042051 3.9633187169306616 -0.51503808176128008 0 0.85716729658548041 1.2857509448782207 0 0.77255712264192011 1 I I #
point $-1 -61.698394546656637 11.423184458042051 7.5252337810262757 #
edge $-1 $576 1 $576 0 $351 $-1 forward 7 unknown #
vertex $-1 $352 $577 #
ellipse-curve $-1 -61.308130121799344 16.280103062653964 3.9633187169306616 -0.51503808176128008 0 0.85716729658548041 1.2857509448782207 0 0.77255712264192011 1 I I #
point $-1 -61.698394546656637 16.280103062653964 7.5252337810262757 #
loop $-1 $-1 $492 $355 #
plane-surface $-1 0 -35.663303653623984 7.232763815064315 0 -1 0 0 0 -1 forward_v I I I I #
coedge $-1 $498 $497 $578 $579 forward $356 $-1 #
coedge $-1 $359 $358 $498 $580 reversed $151 $-1 #
coedge $-1 $578 $581 $359 $493 reversed $488 $-1 #
edge $-1 $582 -134.46699423200167 $495 -126.88161010113141 $492 $583 forward 7 unknown #
coedge $-1 $365 $360 $581 $584 forward $239 $-1 #
vertex $-1 $584 $585 #
straight-curve $-1 61.42275580391069 -14.386640065063608 9.3059447521536001 0 -1 0 I I #
coedge $-1 $490 $362 $365 $502 reversed $356 $-1 #
coedge $-1 $362 $490 $491 $580 forward $356 $-1 #
vertex $-1 $363 $586 #
straight-curve $-1 67.233497116000848 -21.883256606630454 96.935782723790595 0 0 1 I I #
straight-curve $-1 -35.774195706911982 -21.883256606630454 90.863872624668346 0.76604443648966558 0 -0.64278761758704617 I I #
edge $-1 $587 -35.663303653623977 $366 -21.883256606630454 $497 $588 forward 7 unknown #
point $-1 67.233497116000848 -21.883256606630454 9.3059447521535947 #
point $-1 61.42275580391069 -21.883256606630454 9.305944752153593 #
edge $-1 $589 1 $589 0 $369 $-1 forward 7 unknown #
vertex $-1 $370 $590 #
ellipse-curve $-1 62.293753771523349 -31.726147354482972 4.4435783458368387 0.64278761758704617 0 0.76604443648966558 0.76604443648966558 0 -0.64278761758704617 1 I I #
point $-1 65.094170896445419 -31.726147354482972 6.2252616375842074 #
edge $-1 $591 1 $591 0 $373 $-1 forward 7 unknown #
vertex $-1 $374 $592 #
ellipse-curve $-1 62.293753771523349 -25.820412905771462 4.4435783458368387 0.64278761758704617 0 0.76604443648966558 0.76604443648966558 0 -0.64278761758704617 1 I I #
point $-1 65.094170896445419 -25.820412905771462 6.2252616375842074 #
plane-surface $-1 67.233497116000848 0 0 -1 0 0 0 0 1 forward_v I I I I #
coedge $-1 $382 $380 $384 $518 reversed $261 $-1 #
edge $-1 $395 -9.3059447521535947 $520 9.3059447521535947 $394 $593 forward 7 unknown #
vertex $-1 $518 $594 #
straight-curve $-1 -67.233497116000848 -42.319943887668359 0 0 0 -1 I I #
edge $-1 $516 -42.319943887668359 $520 42.319943887668359 $514 $595 forward 7 unknown #
straight-curve $-1 0 -42.319943887668359 -9.3059447521535947 -1 0 0 I I #
vertex $-1 $387 $596 #
straight-curve $-1 0 42.319943887668359 -9.3059447521535947 1 0 0 I I #
point $-1 67.233497116000848 42.319943887668359 -9.3059447521535947 #
point $-1 67.233497116000848 -42.319943887668359 -9.3059447521535947 #
straight-curve $-1 -67.233497116000848 0 9.3059447521535947 0 -1 0 I I #
point $-1 -67.233497116000848 42.319943887668359 9.3059447521535947 #
point $-1 -67.233497116000848 -42.319943887668359 9.3059447521535947 #
straight-curve $-1 67.233497116000848 -42.319943887668359 0 0 0 -1 I I #
straight-curve $-1 67.233497116000848 42.319943887668359 0 0 0 -1 I I #
plane-surface $-1 67.233497116000848 0 0 -1 0 0 0 0 1 forward_v I I I I #
coedge $-1 $533 $407 $418 $542 forward $280 $-1 #
coedge $-1 $407 $533 $421 $544 reversed $280 $-1 #
straight-curve $-1 67.233497116000848 -35.663303653623984 3.6163819075321575 0 0 1 I I #
coedge $-1 $531 $530 $410 $534 forward $280 $-1 #
edge $-1 $537 16.167491768300899 $535 22.824132002345273 $533 $597 forward 7 unknown #
vertex $-1 $412 $598 #
straight-curve $-1 0 -42.319943887668359 5.6595828779750361 1 0 0 I I #
vertex $-1 $534 $599 #
straight-curve $-1 0 -35.663303653623984 5.6595828779750361 1 0 0 I I #
point $-1 67.233497116000848 -42.319943887668359 5.6595828779750361 #
point $-1 67.233497116000848 -35.663303653623984 5.6595828779750361 #
straight-curve $-1 -67.233497116000848 -19.495811885323086 8.805944752153593 0 1 0 I I #
edge $-1 $419 -5.1895628446214355 $537 -2.0432009704428786 $530 $600 forward 7 unknown #
point $-1 -67.233497116000848 -35.663303653623984 8.805944752153593 #
edge $-1 $423 -8.805944752153593 $535 -5.6595828779750361 $531 $601 forward 7 unknown #
point $-1 -67.233497116000848 -42.319943887668359 8.805944752153593 #
straight-curve $-1 67.233497116000848 -42.319943887668359 0 0 0 -1 I I #
edge $-1 $548 50.424114493064103 $551 55.530650680602584 $429 $602 forward 7 unknown #
vertex $-1 $443 $603 #
straight-curve $-1 -68.24455994272806 3.3283201170221943 9.305944752153593 -1 0 0 I I #
edge $-1 $551 -5.7115922290210257 $440 10.478136453018688 $439 $604 forward 7 unknown #
vertex $-1 $550 $605 #
straight-curve $-1 -67.233497116000848 3.3283201170221943 4.199408564615112 0.85716729658548041 0 0.51503808176128008 I I #
point $-1 -58.734793867068866 3.3283201170221943 9.3059447521535947 #
point $-1 -67.233497116000848 -12.86140856501752 4.199408564615112 #
straight-curve $-1 -67.233497116000848 0 9.3059447521535947 0 -1 0 I I #
vertex $-1 $446 $606 #
point $-1 -60.022379176921127 -9.6234628286095756 4.7358758395725822 #
vertex $-1 $450 $607 #
point $-1 -60.022379176921127 -4.7665442239976628 4.7358758395725822 #
vertex $-1 $454 $608 #
point $-1 -60.022379176921127 0.090374380614250072 4.7358758395725822 #
straight-curve $-1 -67.233497116000848 19.518048799061908 4.199408564615112 0.85716729658548041 0 0.51503808176128008 I I #
coedge $-1 $462 $468 $464 $565 reversed $458 $-1 #
straight-curve $-1 -67.233497116000848 19.518048799061908 59.730059245217696 0 0 -1 I I #
edge $-1 $466 -19.518048799061908 $569 -3.3283201170221943 $563 $609 forward 7 unknown #
point $-1 -58.734793867068866 19.518048799061908 9.3059447521535947 #
point $-1 -67.233497116000848 19.518048799061908 9.3059447521535947 #
point $-1 -67.233497116000848 19.518048799061908 4.199408564615112 #
vertex $-1 $473 $610 #
straight-curve $-1 -68.24455994272806 3.3283201170221943 9.305944752153593 1 0 0 I I #
straight-curve $-1 -67.233497116000848 3.3283201170221943 59.730059245217696 0 0 1 I I #
vertex $-1 $476 $611 #
point $-1 -60.022379176921127 6.5662658534301386 4.7358758395725822 #
vertex $-1 $480 $612 #
point $-1 -60.022379176921127 11.423184458042051 4.7358758395725822 #
vertex $-1 $484 $613 #
point $-1 -60.022379176921127 16.280103062653964 4.7358758395725822 #
coedge $-1 $581 $492 $490 $579 reversed $488 $-1 #
edge $-1 $587 87.629837971637002 $582 92.505628965601673 $490 $614 forward 7 unknown #
edge $-1 $582 -21.276663588560368 $499 -7.496616541566846 $498 $615 forward 7 unknown #
coedge $-1 $492 $578 $494 $584 reversed $488 $-1 #
vertex $-1 $579 $616 #
straight-curve $-1 -35.774195706911982 -35.663303653623977 90.863872624668346 -0.76604443648966558 0 0.64278761758704617 I I #
edge $-1 $495 36.092994224126954 $587 41.903735536217113 $494 $617 forward 7 unknown #
point $-1 61.42275580391069 -35.663303653623977 9.305944752153593 #
point $-1 67.233497116000848 -21.883256606630454 4.4301537581889221 #
vertex $-1 $502 $618 #
straight-curve $-1 67.233497116000848 0 9.3059447521535947 0 1 0 I I #
vertex $-1 $505 $619 #
point $-1 63.059798208013014 -31.726147354482972 3.800790728249793 #
vertex $-1 $509 $620 #
point $-1 63.059798208013014 -25.820412905771462 3.800790728249793 #
straight-curve $-1 -67.233497116000848 42.319943887668359 0 0 0 -1 I I #
point $-1 -67.233497116000848 -42.319943887668359 -9.3059447521535947 #
straight-curve $-1 -67.233497116000848 0 -9.3059447521535947 0 1 0 I I #
point $-1 -67.233497116000848 42.319943887668359 -9.3059447521535947 #
straight-curve $-1 -67.233497116000848 -19.495811885323086 5.6595828779750361 0 -1 0 I I #
point $-1 -67.233497116000848 -42.319943887668359 5.6595828779750361 #
point $-1 -67.233497116000848 -35.663303653623984 5.6595828779750361 #
straight-curve $-1 -67.233497116000848 -35.663303653623984 3.6163819075321575 0 0 -1 I I #
straight-curve $-1 -67.233497116000848 -42.319943887668359 0 0 0 -1 I I #
straight-curve $-1 -67.233497116000848 3.3283201170221943 59.730059245217696 0 0 -1 I I #
point $-1 -67.233497116000848 3.3283201170221943 9.3059447521535947 #
straight-curve $-1 -67.233497116000848 -2.3832721119988314 4.1994085646151111 0 -1 0 I I #
point $-1 -67.233497116000848 3.3283201170221943 4.199408564615112 #
point $-1 -60.535572999157431 -9.6234628286095756 2.6775677720524413 #
point $-1 -60.535572999157431 -4.7665442239976628 2.6775677720524413 #
point $-1 -60.535572999157431 0.090374380614250072 2.6775677720524413 #
straight-curve $-1 -67.233497116000848 0 9.3059447521535947 0 -1 0 I I #
point $-1 -67.233497116000848 3.3283201170221943 9.3059447521535947 #
point $-1 -60.535572999157431 6.5662658534301386 2.6775677720524413 #
point $-1 -60.535572999157431 11.423184458042051 2.6775677720524413 #
point $-1 -60.535572999157431 16.280103062653964 2.6775677720524413 #
straight-curve $-1 67.233497116000848 -35.663303653623977 96.935782723790595 0 0 -1 I I #
straight-curve $-1 67.233497116000848 -14.386640065063608 4.430153758188915 0 1 0 I I #
point $-1 67.233497116000848 -35.663303653623977 4.4301537581889221 #
straight-curve $-1 25.329761579783735 -35.663303653623977 9.305944752153593 1 0 0 I I #
point $-1 67.233497116000848 -35.663303653623977 9.3059447521535947 #
point $-1 61.650966153936302 -31.726147354482972 3.6775339093471735 #
point $-1 61.650966153936302 -25.820412905771462 3.6775339093471735 #
End-of-ACIS-data 