500 0 10 0           
7 Unknown 11 ACIS 5.0 NT 24 Fri Mar 26 19:30:02 1999 
-1 9.9999999999999995e-007 1e-010 
body $-1 $10 $-1 $11 #
body $-1 $12 $-1 $13 #
body $-1 $14 $-1 $15 #
body $-1 $16 $-1 $17 #
body $-1 $18 $-1 $19 #
body $-1 $20 $-1 $21 #
body $-1 $22 $-1 $23 #
body $-1 $24 $-1 $25 #
body $-1 $26 $-1 $27 #
body $-1 $28 $-1 $29 #
lump $-1 $-1 $30 $0 #
transform $-1 1 0 0 0 1 0 0 0 1 49.720755638294627 25.537594935190008 9.8835721967409924 1 rotate no_reflect no_shear #
lump $-1 $-1 $31 $1 #
transform $-1 1 0 0 0 1 0 0 0 1 49.720755638294627 25.537594935190008 9.8835721967409924 1 rotate no_reflect no_shear #
lump $-1 $-1 $32 $2 #
transform $-1 1 0 0 0 1 0 0 0 1 49.720755638294627 25.537594935190008 9.8835721967409924 1 rotate no_reflect no_shear #
lump $-1 $-1 $33 $3 #
transform $-1 1 0 0 0 1 0 0 0 1 49.720755638294627 25.537594935190008 9.8835721967409924 1 rotate no_reflect no_shear #
lump $-1 $-1 $34 $4 #
transform $-1 1 0 0 0 1 0 0 0 1 49.720755638294627 25.537594935190008 9.8835721967409924 1 rotate no_reflect no_shear #
lump $-1 $-1 $35 $5 #
transform $-1 1 0 0 0 1 0 0 0 1 49.720755638294627 25.537594935190008 9.8835721967409924 1 rotate no_reflect no_shear #
lump $-1 $-1 $36 $6 #
transform $-1 1 0 0 0 1 0 0 0 1 49.720755638294627 25.537594935190008 9.8835721967409924 1 rotate no_reflect no_shear #
lump $-1 $-1 $37 $7 #
transform $-1 1 0 0 0 1 0 0 0 1 49.720755638294627 25.537594935190008 9.8835721967409924 1 rotate no_reflect no_shear #
lump $-1 $-1 $38 $8 #
transform $-1 1 0 0 0 1 0 0 0 1 49.720755638294627 25.537594935190008 9.8835721967409924 1 rotate no_reflect no_shear #
lump $-1 $-1 $39 $9 #
transform $-1 1 0 0 0 1 0 0 0 1 49.720755638294627 25.537594935190008 9.8835721967409924 1 rotate no_reflect no_shear #
shell $-1 $-1 $-1 $40 $-1 $10 #
shell $-1 $-1 $-1 $41 $-1 $12 #
shell $-1 $-1 $-1 $42 $-1 $14 #
shell $-1 $-1 $-1 $43 $-1 $16 #
shell $-1 $-1 $-1 $44 $-1 $18 #
shell $-1 $-1 $-1 $45 $-1 $20 #
shell $-1 $-1 $-1 $46 $-1 $22 #
shell $-1 $-1 $-1 $47 $-1 $24 #
shell $-1 $-1 $-1 $48 $-1 $26 #
shell $-1 $-1 $-1 $49 $-1 $28 #
face $-1 $50 $51 $30 $-1 $52 forward single #
face $-1 $53 $54 $31 $-1 $55 reversed single #
face $-1 $56 $57 $32 $-1 $58 forward single #
face $-1 $59 $60 $33 $-1 $61 forward single #
face $-1 $62 $63 $34 $-1 $64 reversed single #
face $-1 $65 $66 $35 $-1 $67 forward single #
face $-1 $68 $69 $36 $-1 $70 forward single #
face $-1 $71 $72 $37 $-1 $73 reversed single #
face $-1 $74 $75 $38 $-1 $76 forward single #
face $-1 $77 $78 $39 $-1 $79 forward single #
face $-1 $80 $81 $30 $-1 $82 reversed single #
loop $-1 $-1 $83 $40 #
plane-surface $-1 0 0 9.8835721967409924 0 0 1 1 0 0 forward_v I I I I #
face $-1 $84 $85 $31 $-1 $86 reversed single #
loop $-1 $-1 $87 $41 #
plane-surface $-1 17.094145877278667 -81.144583074171265 83.018038478866288 -1 0 0 0 -0.55919291073839883 0.82903756765294845 forward_v I I I I #
face $-1 $88 $89 $32 $-1 $90 forward single #
loop $-1 $91 $92 $42 #
cone-surface $-1 5.4038536807848487 -18.318731347038863 4.7555693745272309 0 0.55919291073839883 -0.82903756765294845 1 0 0 1 I I 0 1 1 forward I I I I #
face $-1 $93 $94 $33 $-1 $95 forward single #
loop $-1 $96 $97 $43 #
cone-surface $-1 12.418028998681137 -18.318731347038863 4.7555693745272309 0 0.55919291073839883 -0.82903756765294845 1 0 0 1 I I 0 1 1 forward I I I I #
face $-1 $98 $99 $34 $-1 $100 reversed single #
loop $-1 $-1 $101 $44 #
plane-surface $-1 -42.487937144630713 86.118876409704995 94.345379202269783 1 0 0 0 -0.86602541151947299 -0.49999998660252726 forward_v I I I I #
face $-1 $102 $103 $35 $-1 $104 forward single #
loop $-1 $105 $106 $45 #
cone-surface $-1 -37.348145156012599 20.426466117204768 3.7688740480650775 0 -0.86602541151947299 -0.49999998660252726 1.5 0 0 1 I I 0 1 1.5 forward I I I I #
face $-1 $107 $108 $36 $-1 $109 forward single #
loop $-1 $110 $111 $46 #
cone-surface $-1 -29.638457173085428 20.426466117204768 3.7688740480650775 0 -0.86602541151947299 -0.49999998660252726 1.5 0 0 1 I I 0 1 1.5 forward I I I I #
face $-1 $112 $113 $37 $-1 $114 reversed single #
loop $-1 $-1 $115 $47 #
plane-surface $-1 7.232818493663915 86.118876409704995 94.345379202269783 1 0 0 0 -0.86602541151947299 -0.49999998660252726 forward_v I I I I #
face $-1 $116 $117 $38 $-1 $118 forward single #
loop $-1 $119 $120 $48 #
cone-surface $-1 12.372610482282028 20.426466117204768 3.7688740480650775 0 -0.86602541151947299 -0.49999998660252726 1.5 0 0 1 I I 0 1 1.5 forward I I I I #
face $-1 $121 $122 $39 $-1 $123 forward single #
loop $-1 $124 $125 $49 #
cone-surface $-1 20.082298465209199 20.426466117204768 3.7688740480650775 0 -0.86602541151947299 -0.49999998660252726 1.5 0 0 1 I I 0 1 1.5 forward I I I I #
face $-1 $126 $127 $30 $-1 $128 reversed single #
loop $-1 $-1 $129 $50 #
plane-surface $-1 0 0 -9.8835721967409924 0 0 1 1 0 0 forward_v I I I I #
coedge $-1 $130 $131 $132 $133 forward $51 $-1 #
face $-1 $134 $135 $31 $-1 $136 reversed single #
loop $-1 $-1 $137 $53 #
plane-surface $-1 8.9109413397329931 -25.537594935190008 0.57728984638949044 0 -0.55919291073839883 0.82903756765294845 1 0 0 forward_v I I I I #
coedge $-1 $138 $139 $140 $141 reversed $54 $-1 #
face $-1 $-1 $142 $32 $-1 $143 forward single #
loop $-1 $144 $145 $56 #
cone-surface $-1 5.4038536807848487 -17.718836660363969 3.866188943662749 0 0.55919291073839883 -0.82903756765294845 0.5 0 0 1 I I -0.70710678118654691 0.70710678118654813 0.5 forward I I I I #
loop $-1 $-1 $146 $42 #
coedge $-1 $92 $92 $147 $148 reversed $57 $-1 #
face $-1 $-1 $149 $33 $-1 $150 forward single #
loop $-1 $151 $152 $59 #
cone-surface $-1 12.418028998681137 -17.718836660363969 3.866188943662749 0 0.55919291073839883 -0.82903756765294845 0.5 0 0 1 I I -0.70710678118654691 0.70710678118654813 0.5 forward I I I I #
loop $-1 $-1 $153 $43 #
coedge $-1 $97 $97 $154 $155 reversed $60 $-1 #
face $-1 $156 $157 $34 $-1 $158 reversed single #
loop $-1 $-1 $159 $62 #
plane-surface $-1 -33.49330116454901 6.84278475659994e-007 44.624624896240093 0 0.86602541151947299 0.49999998660252726 1 0 0 forward_v I I I I #
coedge $-1 $160 $161 $162 $163 reversed $63 $-1 #
face $-1 $-1 $164 $35 $-1 $165 forward single #
loop $-1 $166 $167 $65 #
cone-surface $-1 -37.348145156012599 17.405737660339952 2.0248557226532498 0 -0.86602541151947299 -0.49999998660252726 0.75 0 0 1 I I -0.70710678118654757 0.70710678118654757 0.75 forward I I I I #
loop $-1 $-1 $168 $45 #
coedge $-1 $106 $106 $169 $170 reversed $66 $-1 #
face $-1 $-1 $171 $36 $-1 $172 forward single #
loop $-1 $173 $174 $68 #
cone-surface $-1 -29.638457173085428 17.405737660339952 2.0248557226532498 0 -0.86602541151947299 -0.49999998660252726 0.75 0 0 1 I I -0.70710678118654757 0.70710678118654757 0.75 forward I I I I #
loop $-1 $-1 $175 $46 #
coedge $-1 $111 $111 $176 $177 reversed $69 $-1 #
face $-1 $178 $179 $37 $-1 $180 reversed single #
loop $-1 $-1 $181 $71 #
plane-surface $-1 16.227454473745617 6.84278475659994e-007 44.624624896240093 0 0.86602541151947299 0.49999998660252726 1 0 0 forward_v I I I I #
coedge $-1 $182 $183 $184 $185 reversed $72 $-1 #
face $-1 $-1 $186 $38 $-1 $187 forward single #
loop $-1 $188 $189 $74 #
cone-surface $-1 12.372610482282028 17.405737660339952 2.0248557226532498 0 -0.86602541151947299 -0.49999998660252726 0.75 0 0 1 I I -0.70710678118654757 0.70710678118654757 0.75 forward I I I I #
loop $-1 $-1 $190 $48 #
coedge $-1 $120 $120 $191 $192 reversed $75 $-1 #
face $-1 $-1 $193 $39 $-1 $194 forward single #
loop $-1 $195 $196 $77 #
cone-surface $-1 20.082298465209199 17.405737660339952 2.0248557226532498 0 -0.86602541151947299 -0.49999998660252726 0.75 0 0 1 I I -0.70710678118654757 0.70710678118654757 0.75 forward I I I I #
loop $-1 $-1 $197 $49 #
coedge $-1 $125 $125 $198 $199 reversed $78 $-1 #
face $-1 $200 $201 $30 $-1 $202 reversed single #
loop $-1 $-1 $203 $80 #
plane-surface $-1 0 -25.537594935190008 0 0 1 0 0 0 1 forward_v I I I I #
coedge $-1 $204 $205 $206 $207 forward $81 $-1 #
coedge $-1 $208 $83 $209 $210 forward $51 $-1 #
coedge $-1 $83 $208 $211 $212 forward $51 $-1 #
coedge $-1 $213 $214 $83 $133 reversed $215 $-1 #
edge $-1 $216 -25.537594935190008 $217 25.537594935190008 $132 $218 forward 7 unknown #
face $-1 $219 $220 $31 $-1 $221 reversed single #
loop $-1 $-1 $222 $84 #
plane-surface $-1 0.7277368021873194 -81.144583074171265 83.018038478866288 1 0 0 0 0.55919291073839883 -0.82903756765294845 forward_v I I I I #
coedge $-1 $223 $224 $225 $226 reversed $85 $-1 #
coedge $-1 $139 $87 $227 $228 reversed $54 $-1 #
coedge $-1 $87 $138 $223 $229 reversed $54 $-1 #
coedge $-1 $225 $230 $87 $141 forward $231 $-1 #
edge $-1 $232 15.034696601895625 $233 28.831827315586519 $140 $234 forward 7 unknown #
loop $-1 $-1 $147 $88 #
plane-surface $-1 8.9109413397329931 -25.537594935190008 0.57728984638949044 0 -0.55919291073839883 0.82903756765294845 1 0 0 forward_v I I I I #
loop $-1 $-1 $235 $56 #
coedge $-1 $145 $145 $146 $236 reversed $89 $-1 #
coedge $-1 $146 $146 $145 $236 forward $91 $-1 #
coedge $-1 $147 $147 $92 $148 forward $142 $-1 #
edge $-1 $237 4.6201772800440444e-016 $237 6.2831853071796013 $147 $238 forward 7 unknown #
loop $-1 $-1 $154 $93 #
plane-surface $-1 8.9109413397329931 -25.537594935190008 0.57728984638949044 0 -0.55919291073839883 0.82903756765294845 1 0 0 forward_v I I I I #
loop $-1 $-1 $239 $59 #
coedge $-1 $152 $152 $153 $240 reversed $94 $-1 #
coedge $-1 $153 $153 $152 $240 forward $96 $-1 #
coedge $-1 $154 $154 $97 $155 forward $149 $-1 #
edge $-1 $241 4.6201772800440444e-016 $241 6.2831853071796013 $154 $242 forward 7 unknown #
face $-1 $243 $244 $34 $-1 $245 reversed single #
loop $-1 $-1 $246 $98 #
plane-surface $-1 -24.498665184467306 86.118876409704995 94.345379202269783 -1 0 0 0 0.86602541151947299 0.49999998660252726 forward_v I I I I #
coedge $-1 $247 $248 $249 $250 reversed $99 $-1 #
coedge $-1 $161 $101 $251 $252 reversed $63 $-1 #
coedge $-1 $101 $160 $247 $253 reversed $63 $-1 #
coedge $-1 $249 $254 $101 $163 forward $255 $-1 #
edge $-1 $256 17.52184326966249 $257 23.001682109182543 $162 $258 forward 7 unknown #
loop $-1 $-1 $169 $102 #
plane-surface $-1 -33.49330116454901 6.84278475659994e-007 44.624624896240093 0 0.86602541151947299 0.49999998660252726 1 0 0 forward_v I I I I #
loop $-1 $-1 $259 $65 #
coedge $-1 $167 $167 $168 $260 reversed $103 $-1 #
coedge $-1 $168 $168 $167 $260 forward $105 $-1 #
coedge $-1 $169 $169 $106 $170 forward $164 $-1 #
edge $-1 $261 -3.1731550527444483e-016 $261 6.2831853071796004 $169 $262 forward 7 unknown #
loop $-1 $-1 $176 $107 #
plane-surface $-1 -33.49330116454901 6.84278475659994e-007 44.624624896240093 0 0.86602541151947299 0.49999998660252726 1 0 0 forward_v I I I I #
loop $-1 $-1 $263 $68 #
coedge $-1 $174 $174 $175 $264 reversed $108 $-1 #
coedge $-1 $175 $175 $174 $264 forward $110 $-1 #
coedge $-1 $176 $176 $111 $177 forward $171 $-1 #
edge $-1 $265 -3.1731550527444483e-016 $265 6.2831853071796004 $176 $266 forward 7 unknown #
face $-1 $267 $268 $37 $-1 $269 forward single #
loop $-1 $-1 $270 $112 #
plane-surface $-1 25.22209045382732 86.118876409704995 94.345379202269783 -1 0 0 0 0.86602541151947299 0.49999998660252726 forward_v I I I I #
coedge $-1 $271 $272 $273 $274 reversed $113 $-1 #
coedge $-1 $183 $115 $275 $276 reversed $72 $-1 #
coedge $-1 $115 $182 $271 $277 reversed $72 $-1 #
coedge $-1 $273 $278 $115 $185 forward $268 $-1 #
edge $-1 $279 17.52184326966249 $280 23.001682109182543 $184 $281 forward 7 unknown #
loop $-1 $-1 $191 $116 #
plane-surface $-1 16.227454473745617 6.84278475659994e-007 44.624624896240093 0 0.86602541151947299 0.49999998660252726 1 0 0 forward_v I I I I #
loop $-1 $-1 $282 $74 #
coedge $-1 $189 $189 $190 $283 reversed $117 $-1 #
coedge $-1 $190 $190 $189 $283 forward $119 $-1 #
coedge $-1 $191 $191 $120 $192 forward $186 $-1 #
edge $-1 $284 -3.1731550527444483e-016 $284 6.2831853071796004 $191 $285 forward 7 unknown #
loop $-1 $-1 $198 $121 #
plane-surface $-1 16.227454473745617 6.84278475659994e-007 44.624624896240093 0 0.86602541151947299 0.49999998660252726 1 0 0 forward_v I I I I #
loop $-1 $-1 $286 $77 #
coedge $-1 $196 $196 $197 $287 reversed $122 $-1 #
coedge $-1 $197 $197 $196 $287 forward $124 $-1 #
coedge $-1 $198 $198 $125 $199 forward $193 $-1 #
edge $-1 $288 -3.1731550527444483e-016 $288 6.2831853071796004 $198 $289 forward 7 unknown #
face $-1 $290 $291 $30 $-1 $292 reversed single #
loop $-1 $-1 $293 $126 #
plane-surface $-1 -49.720755638294627 0 0 1 0 0 0 0 -1 forward_v I I I I #
coedge $-1 $294 $211 $295 $296 forward $127 $-1 #
coedge $-1 $297 $129 $294 $298 forward $81 $-1 #
coedge $-1 $129 $297 $299 $300 forward $81 $-1 #
coedge $-1 $214 $213 $129 $207 reversed $215 $-1 #
edge $-1 $301 -25.537594935190008 $302 25.537594935190008 $206 $303 forward 7 unknown #
coedge $-1 $131 $130 $304 $305 forward $51 $-1 #
coedge $-1 $306 $307 $130 $210 reversed $291 $-1 #
edge $-1 $217 -49.720755638294627 $308 49.720755638294627 $209 $309 forward 7 unknown #
coedge $-1 $203 $310 $131 $212 reversed $127 $-1 #
edge $-1 $311 -49.720755638294627 $216 49.720755638294627 $211 $312 forward 7 unknown #
coedge $-1 $206 $132 $310 $313 forward $215 $-1 #
coedge $-1 $132 $206 $306 $314 reversed $215 $-1 #
loop $-1 $-1 $213 $290 #
vertex $-1 $133 $315 #
vertex $-1 $133 $316 #
straight-curve $-1 49.720755638294627 0 9.8835721967409924 0 1 0 I I #
face $-1 $-1 $231 $31 $-1 $317 forward single #
loop $-1 $-1 $318 $134 #
plane-surface $-1 0 -25.537594935190008 0 0 1 0 0 0 1 forward_v I I I I #
coedge $-1 $319 $320 $321 $322 reversed $135 $-1 #
coedge $-1 $323 $137 $139 $229 forward $85 $-1 #
coedge $-1 $137 $323 $319 $324 forward $85 $-1 #
coedge $-1 $321 $140 $137 $226 forward $231 $-1 #
edge $-1 $233 -12.63867520741217 $325 3.7277338676791771 $225 $326 forward 7 unknown #
coedge $-1 $327 $328 $138 $228 forward $220 $-1 #
edge $-1 $329 -40.931729393043653 $232 -31.625447042692151 $227 $330 forward 7 unknown #
edge $-1 $233 -16.642346803114531 $329 0 $139 $331 forward 7 unknown #
coedge $-1 $140 $321 $327 $332 forward $231 $-1 #
loop $-1 $-1 $321 $219 #
vertex $-1 $228 $333 #
vertex $-1 $141 $334 #
straight-curve $-1 17.094145877278667 -40.572291537085633 9.8835721967409924 0 1 0 I I #
coedge $-1 $235 $235 $-1 $335 reversed $144 $-1 #
edge $-1 $336 0 $336 6.2831853071796004 $145 $337 forward 7 unknown #
vertex $-1 $148 $338 #
ellipse-curve $-1 5.4038536807848487 -18.639029578344559 5.2304310215652423 0 -0.55919291073839883 0.82903756765294845 1 0 0 1 I I #
coedge $-1 $239 $239 $-1 $339 reversed $151 $-1 #
edge $-1 $340 0 $340 6.2831853071796004 $152 $341 forward 7 unknown #
vertex $-1 $155 $342 #
ellipse-curve $-1 12.418028998681137 -18.639029578344559 5.2304310215652423 0 -0.55919291073839883 0.82903756765294845 1 0 0 1 I I #
face $-1 $-1 $255 $34 $-1 $343 forward single #
loop $-1 $-1 $344 $156 #
plane-surface $-1 0 25.537594935190008 0 0 -1 0 0 0 -1 forward_v I I I I #
coedge $-1 $345 $346 $347 $348 reversed $157 $-1 #
coedge $-1 $349 $159 $161 $253 forward $99 $-1 #
coedge $-1 $159 $349 $345 $350 forward $99 $-1 #
coedge $-1 $347 $162 $159 $250 forward $255 $-1 #
edge $-1 $257 -25.741286562356208 $351 -7.7520146021928014 $249 $352 forward 7 unknown #
coedge $-1 $353 $354 $160 $252 forward $244 $-1 #
edge $-1 $355 -46.78047703082585 $256 -37.289117404393899 $251 $356 forward 7 unknown #
edge $-1 $257 40.115511897675916 $355 51.075189870379987 $161 $357 forward 7 unknown #
coedge $-1 $162 $347 $353 $358 forward $255 $-1 #
loop $-1 $-1 $347 $243 #
vertex $-1 $252 $359 #
vertex $-1 $163 $360 #
straight-curve $-1 -42.487937144630713 43.059438204852498 9.8835721967409924 0 -1 0 I I #
coedge $-1 $259 $259 $-1 $361 reversed $166 $-1 #
edge $-1 $362 0 $362 6.2831853071796004 $167 $363 forward 7 unknown #
vertex $-1 $170 $364 #
ellipse-curve $-1 -37.348145156012599 22.797675515429983 5.1378923835250134 0 0.86602541151947299 0.49999998660252726 1.5 0 0 1 I I #
coedge $-1 $263 $263 $-1 $365 reversed $173 $-1 #
edge $-1 $366 0 $366 6.2831853071796004 $174 $367 forward 7 unknown #
vertex $-1 $177 $368 #
ellipse-curve $-1 -29.638457173085428 22.797675515429983 5.1378923835250134 0 0.86602541151947299 0.49999998660252726 1.5 0 0 1 I I #
face $-1 $-1 $369 $37 $-1 $370 reversed single #
loop $-1 $-1 $184 $178 #
plane-surface $-1 0 0 9.8835721967409924 0 0 1 1 0 0 forward_v I I I I #
coedge $-1 $371 $372 $373 $374 reversed $179 $-1 #
coedge $-1 $375 $181 $183 $277 forward $113 $-1 #
coedge $-1 $181 $375 $371 $376 forward $113 $-1 #
coedge $-1 $373 $184 $181 $274 forward $268 $-1 #
edge $-1 $280 -0.88090874320889334 $377 17.108363216954512 $273 $378 forward 7 unknown #
coedge $-1 $379 $380 $182 $276 forward $369 $-1 #
edge $-1 $381 -46.78047703082585 $279 -37.289117404393899 $275 $382 forward 7 unknown #
edge $-1 $280 40.115511897675916 $381 51.075189870379987 $183 $383 forward 7 unknown #
coedge $-1 $184 $373 $379 $384 forward $268 $-1 #
vertex $-1 $185 $385 #
vertex $-1 $185 $386 #
straight-curve $-1 7.232818493663915 43.059438204852498 9.8835721967409924 0 -1 0 I I #
coedge $-1 $282 $282 $-1 $387 reversed $188 $-1 #
edge $-1 $388 0 $388 6.2831853071796004 $189 $389 forward 7 unknown #
vertex $-1 $192 $390 #
ellipse-curve $-1 12.372610482282028 22.797675515429983 5.1378923835250134 0 0.86602541151947299 0.49999998660252726 1.5 0 0 1 I I #
coedge $-1 $286 $286 $-1 $391 reversed $195 $-1 #
edge $-1 $392 0 $392 6.2831853071796004 $196 $393 forward 7 unknown #
vertex $-1 $199 $394 #
ellipse-curve $-1 20.082298465209199 22.797675515429983 5.1378923835250134 0 0.86602541151947299 0.49999998660252726 1.5 0 0 1 I I #
face $-1 $-1 $215 $30 $-1 $395 reversed single #
loop $-1 $-1 $306 $200 #
plane-surface $-1 0 25.537594935190008 0 0 -1 0 0 0 -1 forward_v I I I I #
coedge $-1 $396 $304 $307 $397 forward $201 $-1 #
coedge $-1 $310 $203 $204 $298 reversed $127 $-1 #
coedge $-1 $304 $396 $203 $296 reversed $201 $-1 #
edge $-1 $311 -9.8835721967409924 $398 9.8835721967409924 $295 $399 forward 7 unknown #
coedge $-1 $205 $204 $396 $400 forward $81 $-1 #
edge $-1 $302 -49.720755638294627 $398 49.720755638294627 $294 $401 forward 7 unknown #
coedge $-1 $307 $306 $205 $300 reversed $291 $-1 #
edge $-1 $402 -49.720755638294627 $301 49.720755638294627 $299 $403 forward 7 unknown #
vertex $-1 $207 $404 #
vertex $-1 $313 $405 #
straight-curve $-1 49.720755638294627 0 -9.8835721967409924 0 -1 0 I I #
coedge $-1 $293 $295 $208 $305 reversed $201 $-1 #
edge $-1 $308 -25.537594935190008 $311 25.537594935190008 $304 $406 forward 7 unknown #
coedge $-1 $299 $209 $214 $314 forward $291 $-1 #
coedge $-1 $209 $299 $293 $397 reversed $291 $-1 #
vertex $-1 $210 $407 #
straight-curve $-1 0 25.537594935190008 9.8835721967409924 -1 0 0 I I #
coedge $-1 $211 $294 $213 $313 reversed $127 $-1 #
vertex $-1 $305 $408 #
straight-curve $-1 0 -25.537594935190008 9.8835721967409924 1 0 0 I I #
edge $-1 $216 -9.8835721967409924 $302 9.8835721967409924 $213 $409 forward 7 unknown #
edge $-1 $217 -9.8835721967409924 $301 9.8835721967409924 $214 $410 forward 7 unknown #
point $-1 49.720755638294627 -25.537594935190008 9.8835721967409924 #
point $-1 49.720755638294627 25.537594935190008 9.8835721967409924 #
plane-surface $-1 0 0 9.8835721967409924 0 0 1 1 0 0 forward_v I I I I #
coedge $-1 $328 $327 $320 $411 forward $220 $-1 #
coedge $-1 $320 $222 $224 $324 reversed $135 $-1 #
coedge $-1 $222 $319 $318 $411 reversed $135 $-1 #
coedge $-1 $230 $225 $222 $322 forward $231 $-1 #
edge $-1 $325 -28.831827315586519 $412 -15.034696601895625 $321 $413 forward 7 unknown #
coedge $-1 $224 $223 $328 $414 reversed $85 $-1 #
edge $-1 $415 0 $325 16.642346803114531 $319 $416 forward 7 unknown #
vertex $-1 $226 $417 #
straight-curve $-1 4.4554706698664965 -11.740464221499114 9.8835721967409924 -1 0 0 I I #
coedge $-1 $318 $227 $230 $332 reversed $220 $-1 #
coedge $-1 $227 $318 $323 $414 forward $220 $-1 #
vertex $-1 $228 $418 #
straight-curve $-1 17.094145877278667 -25.537594935190008 41.509019239433144 0 0 1 I I #
straight-curve $-1 17.094145877278667 -25.537594935190008 0.57728984638949044 0 -0.82903756765294845 -0.55919291073839883 I I #
edge $-1 $412 0.7277368021873194 $232 17.094145877278667 $327 $419 forward 7 unknown #
point $-1 17.094145877278667 -25.537594935190008 9.8835721967409924 #
point $-1 17.094145877278667 -11.740464221499114 9.8835721967409924 #
edge $-1 $420 1 $420 0 $235 $-1 forward 7 unknown #
vertex $-1 $236 $421 #
ellipse-curve $-1 5.4038536807848487 -17.998433115733171 4.280707727489224 0 -0.55919291073839883 0.82903756765294845 1 0 0 1 I I #
point $-1 6.4038536807848487 -18.639029578344555 5.2304310215652379 #
edge $-1 $422 1 $422 0 $239 $-1 forward 7 unknown #
vertex $-1 $240 $423 #
ellipse-curve $-1 12.418028998681137 -17.998433115733171 4.280707727489224 0 -0.55919291073839883 0.82903756765294845 1 0 0 1 I I #
point $-1 13.418028998681137 -18.639029578344555 5.2304310215652379 #
plane-surface $-1 0 0 9.8835721967409924 0 0 1 1 0 0 forward_v I I I I #
coedge $-1 $354 $353 $346 $424 forward $244 $-1 #
coedge $-1 $346 $246 $248 $350 reversed $157 $-1 #
coedge $-1 $246 $345 $344 $424 reversed $157 $-1 #
coedge $-1 $254 $249 $246 $348 forward $255 $-1 #
edge $-1 $351 -23.001682109182543 $425 -17.52184326966249 $347 $426 forward 7 unknown #
coedge $-1 $248 $247 $354 $427 reversed $99 $-1 #
edge $-1 $428 -51.075189870379987 $351 -40.115511897675916 $345 $429 forward 7 unknown #
vertex $-1 $250 $430 #
straight-curve $-1 -16.746650582274505 20.057756095669959 9.8835721967409924 1 0 0 I I #
coedge $-1 $344 $251 $254 $358 reversed $244 $-1 #
coedge $-1 $251 $344 $349 $427 forward $244 $-1 #
vertex $-1 $252 $431 #
straight-curve $-1 -42.487937144630713 25.537594935190008 47.172689601134891 0 0 1 I I #
straight-curve $-1 -42.487937144630713 6.84278475659994e-007 44.624624896240093 0 0.49999998660252726 -0.86602541151947299 I I #
edge $-1 $425 24.498665184467306 $256 42.487937144630713 $353 $432 forward 7 unknown #
point $-1 -42.487937144630713 25.537594935190008 9.8835721967409924 #
point $-1 -42.487937144630713 20.057756095669955 9.8835721967409924 #
edge $-1 $433 1 $433 0 $259 $-1 forward 7 unknown #
vertex $-1 $260 $434 #
ellipse-curve $-1 -37.348145156012599 18.055256718979557 2.3998557126051452 0 0.86602541151947299 0.49999998660252726 1.5 0 0 1 I I #
point $-1 -35.848145156012599 22.797675515429976 5.1378923835250099 #
edge $-1 $435 1 $435 0 $263 $-1 forward 7 unknown #
vertex $-1 $264 $436 #
ellipse-curve $-1 -29.638457173085428 18.055256718979557 2.3998557126051452 0 0.86602541151947299 0.49999998660252726 1.5 0 0 1 I I #
point $-1 -28.138457173085428 22.797675515429976 5.1378923835250099 #
loop $-1 $-1 $275 $267 #
plane-surface $-1 0 25.537594935190008 0 0 -1 0 0 0 -1 forward_v I I I I #
coedge $-1 $372 $270 $272 $376 reversed $179 $-1 #
coedge $-1 $270 $371 $437 $438 reversed $179 $-1 #
coedge $-1 $278 $273 $270 $374 forward $268 $-1 #
edge $-1 $377 -23.001682109182543 $439 -17.52184326966249 $373 $440 forward 7 unknown #
coedge $-1 $272 $271 $380 $441 reversed $113 $-1 #
edge $-1 $442 -51.075189870379987 $377 -40.115511897675916 $371 $443 forward 7 unknown #
vertex $-1 $274 $444 #
straight-curve $-1 8.1137272368728084 20.057756095669959 9.8835721967409924 1 0 0 I I #
coedge $-1 $437 $275 $278 $384 reversed $369 $-1 #
coedge $-1 $275 $437 $375 $441 forward $369 $-1 #
vertex $-1 $276 $445 #
straight-curve $-1 7.232818493663915 25.537594935190008 47.172689601134891 0 0 1 I I #
straight-curve $-1 7.232818493663915 6.84278475659994e-007 44.624624896240093 0 0.49999998660252726 -0.86602541151947299 I I #
edge $-1 $439 -25.22209045382732 $279 -7.232818493663915 $379 $446 forward 7 unknown #
point $-1 7.232818493663915 25.537594935190008 9.8835721967409924 #
point $-1 7.232818493663915 20.057756095669955 9.8835721967409924 #
edge $-1 $447 1 $447 0 $282 $-1 forward 7 unknown #
vertex $-1 $283 $448 #
ellipse-curve $-1 12.372610482282028 18.055256718979557 2.3998557126051452 0 0.86602541151947299 0.49999998660252726 1.5 0 0 1 I I #
point $-1 13.872610482282028 22.797675515429976 5.1378923835250099 #
edge $-1 $449 1 $449 0 $286 $-1 forward 7 unknown #
vertex $-1 $287 $450 #
ellipse-curve $-1 20.082298465209199 18.055256718979557 2.3998557126051452 0 0.86602541151947299 0.49999998660252726 1.5 0 0 1 I I #
point $-1 21.582298465209199 22.797675515429976 5.1378923835250099 #
plane-surface $-1 49.720755638294627 0 0 -1 0 0 0 0 1 forward_v I I I I #
coedge $-1 $295 $293 $297 $400 reversed $201 $-1 #
edge $-1 $308 -9.8835721967409924 $402 9.8835721967409924 $307 $451 forward 7 unknown #
vertex $-1 $400 $452 #
straight-curve $-1 -49.720755638294627 -25.537594935190008 0 0 0 -1 I I #
edge $-1 $398 -25.537594935190008 $402 25.537594935190008 $396 $453 forward 7 unknown #
straight-curve $-1 0 -25.537594935190008 -9.8835721967409924 -1 0 0 I I #
vertex $-1 $300 $454 #
straight-curve $-1 0 25.537594935190008 -9.8835721967409924 1 0 0 I I #
point $-1 49.720755638294627 25.537594935190008 -9.8835721967409924 #
point $-1 49.720755638294627 -25.537594935190008 -9.8835721967409924 #
straight-curve $-1 -49.720755638294627 0 9.8835721967409924 0 -1 0 I I #
point $-1 -49.720755638294627 25.537594935190008 9.8835721967409924 #
point $-1 -49.720755638294627 -25.537594935190008 9.8835721967409924 #
straight-curve $-1 49.720755638294627 -25.537594935190008 0 0 0 -1 I I #
straight-curve $-1 49.720755638294627 25.537594935190008 0 0 0 -1 I I #
edge $-1 $412 31.625447042692151 $415 40.931729393043653 $318 $455 forward 7 unknown #
vertex $-1 $332 $456 #
straight-curve $-1 0.7277368021873194 -40.572291537085633 9.8835721967409924 0 -1 0 I I #
edge $-1 $415 -3.7277338676791771 $329 12.63867520741217 $328 $457 forward 7 unknown #
vertex $-1 $414 $458 #
straight-curve $-1 0.7277368021873194 -25.537594935190008 0.57728984638949044 0 0.82903756765294845 0.55919291073839883 I I #
point $-1 0.7277368021873194 -11.740464221499114 9.8835721967409924 #
point $-1 17.094145877278667 -25.537594935190008 0.57728984638949044 #
straight-curve $-1 0 -25.537594935190008 9.8835721967409924 1 0 0 I I #
vertex $-1 $335 $459 #
point $-1 6.4038536807848487 -17.998433115733171 4.280707727489224 #
vertex $-1 $339 $460 #
point $-1 13.418028998681137 -17.998433115733171 4.280707727489224 #
edge $-1 $425 37.289117404393899 $428 46.78047703082585 $344 $461 forward 7 unknown #
vertex $-1 $358 $462 #
straight-curve $-1 -24.498665184467306 43.059438204852498 9.8835721967409924 0 1 0 I I #
edge $-1 $428 7.7520146021928014 $355 25.741286562356208 $354 $463 forward 7 unknown #
vertex $-1 $427 $464 #
straight-curve $-1 -24.498665184467306 6.84278475659994e-007 44.624624896240093 0 -0.49999998660252726 0.86602541151947299 I I #
point $-1 -24.498665184467306 20.057756095669955 9.8835721967409924 #
point $-1 -42.487937144630713 25.537594935190008 0.39221257030904155 #
straight-curve $-1 0 25.537594935190008 9.8835721967409924 -1 0 0 I I #
vertex $-1 $361 $465 #
point $-1 -35.848145156012599 18.055256718979557 2.3998557126051452 #
vertex $-1 $365 $466 #
point $-1 -28.138457173085428 18.055256718979557 2.3998557126051452 #
coedge $-1 $380 $379 $372 $438 forward $369 $-1 #
edge $-1 $439 37.289117404393899 $442 46.78047703082585 $437 $467 forward 7 unknown #
vertex $-1 $384 $468 #
straight-curve $-1 25.22209045382732 43.059438204852498 9.8835721967409924 0 1 0 I I #
edge $-1 $442 -17.108363216954512 $381 0.88090874320889334 $380 $469 forward 7 unknown #
vertex $-1 $441 $470 #
straight-curve $-1 25.22209045382732 6.84278475659994e-007 44.624624896240093 0 -0.49999998660252726 0.86602541151947299 I I #
point $-1 25.22209045382732 20.057756095669955 9.8835721967409924 #
point $-1 7.232818493663915 25.537594935190008 0.39221257030904155 #
straight-curve $-1 0 25.537594935190008 9.8835721967409924 -1 0 0 I I #
vertex $-1 $387 $471 #
point $-1 13.872610482282028 18.055256718979557 2.3998557126051452 #
vertex $-1 $391 $472 #
point $-1 21.582298465209199 18.055256718979557 2.3998557126051452 #
straight-curve $-1 -49.720755638294627 25.537594935190008 0 0 0 -1 I I #
point $-1 -49.720755638294627 -25.537594935190008 -9.8835721967409924 #
straight-curve $-1 -49.720755638294627 0 -9.8835721967409924 0 1 0 I I #
point $-1 -49.720755638294627 25.537594935190008 -9.8835721967409924 #
straight-curve $-1 0.7277368021873194 -25.537594935190008 41.509019239433144 0 0 -1 I I #
point $-1 0.7277368021873194 -25.537594935190008 9.8835721967409924 #
straight-curve $-1 4.4554706698664965 -25.537594935190008 0.57728984638948955 1 0 0 I I #
point $-1 0.7277368021873194 -25.537594935190008 0.57728984638949044 #
point $-1 5.4038536807848487 -17.439240204994768 3.451670159836274 #
point $-1 12.418028998681137 -17.439240204994768 3.451670159836274 #
straight-curve $-1 -24.498665184467306 25.537594935190008 47.172689601134891 0 0 -1 I I #
point $-1 -24.498665184467306 25.537594935190008 9.8835721967409924 #
straight-curve $-1 -16.746650582274505 25.537594935190008 0.39221257030904155 -1 0 0 I I #
point $-1 -24.498665184467306 25.537594935190008 0.39221257030904155 #
point $-1 -37.348145156012599 16.756218601700347 1.6498557327013543 #
point $-1 -29.638457173085428 16.756218601700347 1.6498557327013543 #
straight-curve $-1 25.22209045382732 25.537594935190008 47.172689601134891 0 0 -1 I I #
point $-1 25.22209045382732 25.537594935190008 9.8835721967409924 #
straight-curve $-1 8.1137272368728084 25.537594935190008 0.39221257030904155 -1 0 0 I I #
point $-1 25.22209045382732 25.537594935190008 0.39221257030904155 #
point $-1 12.372610482282028 16.756218601700347 1.6498557327013543 #
point $-1 20.082298465209199 16.756218601700347 1.6498557327013543 #
End-of-ACIS-data 