500 0 5 0           
7 Unknown 11 ACIS 5.0 NT 24 Thu Mar 25 19:26:20 1999 
-1 9.9999999999999995e-007 1e-010 
body $-1 $5 $-1 $6 #
body $-1 $7 $-1 $8 #
body $-1 $9 $-1 $10 #
body $-1 $11 $-1 $12 #
body $-1 $13 $-1 $14 #
lump $-1 $-1 $15 $0 #
transform $-1 1 0 0 0 1 0 0 0 1 57.495651112399671 35.834107089981572 16.099484466846636 1 rotate no_reflect no_shear #
lump $-1 $-1 $16 $1 #
transform $-1 1 0 0 0 1 0 0 0 1 57.495651112399671 35.834107089981572 16.099484466846636 1 rotate no_reflect no_shear #
lump $-1 $-1 $17 $2 #
transform $-1 1 0 0 0 1 0 0 0 1 57.495651112399671 35.834107089981572 16.099484466846636 1 rotate no_reflect no_shear #
lump $-1 $-1 $18 $3 #
transform $-1 1 0 0 0 1 0 0 0 1 57.495651112399671 35.834107089981572 16.099484466846636 1 rotate no_reflect no_shear #
lump $-1 $-1 $19 $4 #
transform $-1 1 0 0 0 1 0 0 0 1 57.495651112399671 35.834107089981572 16.099484466846636 1 rotate no_reflect no_shear #
shell $-1 $-1 $-1 $20 $-1 $5 #
shell $-1 $-1 $-1 $21 $-1 $7 #
shell $-1 $-1 $-1 $22 $-1 $9 #
shell $-1 $-1 $-1 $23 $-1 $11 #
shell $-1 $-1 $-1 $24 $-1 $13 #
face $-1 $25 $26 $15 $-1 $27 forward single #
face $-1 $28 $29 $16 $-1 $30 reversed single #
face $-1 $31 $32 $17 $-1 $33 forward single #
face $-1 $34 $35 $18 $-1 $36 forward single #
face $-1 $37 $38 $19 $-1 $39 forward single #
face $-1 $40 $41 $15 $-1 $42 reversed single #
loop $-1 $-1 $43 $20 #
plane-surface $-1 0 0 16.099484466846636 0 0 1 1 0 0 forward_v I I I I #
face $-1 $44 $45 $16 $-1 $46 reversed single #
loop $-1 $-1 $47 $21 #
plane-surface $-1 25.33128506482273 33.627357407325633 146.4273288145497 1 0 0 0 -0.51503808176128008 -0.85716729658548041 forward_v I I I I #
face $-1 $48 $49 $17 $-1 $50 forward single #
loop $-1 $51 $52 $22 #
cone-surface $-1 31.764158274338129 30.861803891547769 12.382191544977248 0 -0.51503808176128008 -0.85716729658548041 2.5 0 0 1 I I 0 1 2.5 forward I I I I #
face $-1 $53 $54 $18 $-1 $55 forward single #
loop $-1 $56 $57 $23 #
cone-surface $-1 41.413468088611211 30.861803891547769 12.382191544977248 0 -0.51503808176128008 -0.85716729658548041 2.5 0 0 1 I I 0 1 2.5 forward I I I I #
face $-1 $58 $59 $19 $-1 $60 forward single #
loop $-1 $61 $62 $24 #
cone-surface $-1 51.062777902884292 30.861803891547769 12.382191544977248 0 -0.51503808176128008 -0.85716729658548041 2.5 0 0 1 I I 0 1 2.5 forward I I I I #
face $-1 $63 $64 $15 $-1 $65 reversed single #
loop $-1 $-1 $66 $25 #
plane-surface $-1 0 0 -16.099484466846636 0 0 1 1 0 0 forward_v I I I I #
coedge $-1 $67 $68 $69 $70 forward $26 $-1 #
face $-1 $71 $72 $16 $-1 $73 forward single #
loop $-1 $-1 $74 $28 #
plane-surface $-1 41.413468088611197 -25.597542309766638 47.860545155674501 0 0.51503808176128008 0.85716729658548041 1 0 0 forward_v I I I I #
coedge $-1 $75 $76 $77 $78 reversed $29 $-1 #
face $-1 $-1 $79 $17 $-1 $80 forward single #
loop $-1 $81 $82 $31 #
cone-surface $-1 31.764158274338129 29.531887448241335 10.168838935214453 0 -0.51503808176128008 -0.85716729658548041 1.25 0 0 1 I I -0.70710678118654746 0.70710678118654746 1.25 forward I I I I #
loop $-1 $-1 $83 $22 #
coedge $-1 $52 $52 $84 $85 reversed $32 $-1 #
face $-1 $-1 $86 $18 $-1 $87 forward single #
loop $-1 $88 $89 $34 #
cone-surface $-1 41.413468088611211 29.531887448241335 10.168838935214453 0 -0.51503808176128008 -0.85716729658548041 1.25 0 0 1 I I -0.70710678118654746 0.70710678118654746 1.25 forward I I I I #
loop $-1 $-1 $90 $23 #
coedge $-1 $57 $57 $91 $92 reversed $35 $-1 #
face $-1 $-1 $93 $19 $-1 $94 forward single #
loop $-1 $95 $96 $37 #
cone-surface $-1 51.062777902884292 29.531887448241335 10.168838935214453 0 -0.51503808176128008 -0.85716729658548041 1.25 0 0 1 I I -0.70710678118654746 0.70710678118654746 1.25 forward I I I I #
loop $-1 $-1 $97 $24 #
coedge $-1 $62 $62 $98 $99 reversed $38 $-1 #
face $-1 $100 $101 $15 $-1 $102 reversed single #
loop $-1 $-1 $103 $40 #
plane-surface $-1 0 -35.834107089981572 0 0 1 0 0 0 1 forward_v I I I I #
coedge $-1 $104 $105 $106 $107 forward $41 $-1 #
coedge $-1 $108 $43 $109 $110 forward $26 $-1 #
coedge $-1 $43 $108 $111 $112 forward $26 $-1 #
coedge $-1 $113 $114 $43 $70 reversed $115 $-1 #
edge $-1 $116 -35.834107089981572 $117 35.834107089981572 $69 $118 forward 7 unknown #
face $-1 $119 $120 $16 $-1 $121 reversed single #
loop $-1 $-1 $77 $44 #
plane-surface $-1 0 0 16.099484466846636 0 0 1 1 0 0 forward_v I I I I #
coedge $-1 $122 $123 $124 $125 reversed $45 $-1 #
coedge $-1 $76 $47 $126 $127 reversed $29 $-1 #
coedge $-1 $47 $75 $122 $128 reversed $29 $-1 #
coedge $-1 $124 $129 $47 $78 forward $72 $-1 #
edge $-1 $130 -19.020428386318756 $131 -10.448059671660779 $77 $132 forward 7 unknown #
loop $-1 $-1 $84 $48 #
plane-surface $-1 41.413468088611197 -25.597542309766638 47.860545155674501 0 0.51503808176128008 0.85716729658548041 1 0 0 forward_v I I I I #
loop $-1 $-1 $133 $31 #
coedge $-1 $82 $82 $83 $134 reversed $49 $-1 #
coedge $-1 $83 $83 $82 $134 forward $51 $-1 #
coedge $-1 $84 $84 $52 $85 forward $79 $-1 #
edge $-1 $135 -3.7119826846861648e-016 $135 6.2831853071796004 $84 $136 forward 7 unknown #
loop $-1 $-1 $91 $53 #
plane-surface $-1 41.413468088611197 -25.597542309766638 47.860545155674501 0 0.51503808176128008 0.85716729658548041 1 0 0 forward_v I I I I #
loop $-1 $-1 $137 $34 #
coedge $-1 $89 $89 $90 $138 reversed $54 $-1 #
coedge $-1 $90 $90 $89 $138 forward $56 $-1 #
coedge $-1 $91 $91 $57 $92 forward $86 $-1 #
edge $-1 $139 -3.7119826846861648e-016 $139 6.2831853071796004 $91 $140 forward 7 unknown #
loop $-1 $-1 $98 $58 #
plane-surface $-1 41.413468088611197 -25.597542309766638 47.860545155674501 0 0.51503808176128008 0.85716729658548041 1 0 0 forward_v I I I I #
loop $-1 $-1 $141 $37 #
coedge $-1 $96 $96 $97 $142 reversed $59 $-1 #
coedge $-1 $97 $97 $96 $142 forward $61 $-1 #
coedge $-1 $98 $98 $62 $99 forward $93 $-1 #
edge $-1 $143 -3.7119826846861648e-016 $143 6.2831853071796004 $98 $144 forward 7 unknown #
face $-1 $145 $146 $15 $-1 $147 reversed single #
loop $-1 $-1 $148 $63 #
plane-surface $-1 -57.495651112399671 0 0 1 0 0 0 0 -1 forward_v I I I I #
coedge $-1 $149 $111 $150 $151 forward $64 $-1 #
coedge $-1 $152 $66 $149 $153 forward $41 $-1 #
coedge $-1 $66 $152 $154 $155 forward $41 $-1 #
coedge $-1 $114 $113 $66 $107 reversed $115 $-1 #
edge $-1 $156 -35.834107089981572 $157 35.834107089981572 $106 $158 forward 7 unknown #
coedge $-1 $68 $67 $159 $160 forward $26 $-1 #
coedge $-1 $161 $162 $67 $110 reversed $146 $-1 #
edge $-1 $117 -57.495651112399671 $163 57.495651112399671 $109 $164 forward 7 unknown #
coedge $-1 $103 $165 $68 $112 reversed $64 $-1 #
edge $-1 $166 -57.495651112399671 $116 57.495651112399671 $111 $167 forward 7 unknown #
coedge $-1 $106 $69 $165 $168 forward $115 $-1 #
coedge $-1 $69 $106 $161 $169 reversed $115 $-1 #
loop $-1 $-1 $113 $145 #
vertex $-1 $70 $170 #
vertex $-1 $70 $171 #
straight-curve $-1 57.495651112399671 0 16.099484466846636 0 1 0 I I #
face $-1 $-1 $172 $16 $-1 $173 reversed single #
loop $-1 $-1 $126 $71 #
plane-surface $-1 0 35.834107089981572 0 0 -1 0 0 0 -1 forward_v I I I I #
coedge $-1 $174 $74 $76 $128 forward $45 $-1 #
coedge $-1 $74 $174 $175 $176 reversed $45 $-1 #
coedge $-1 $177 $77 $74 $125 forward $72 $-1 #
edge $-1 $131 4.6245510205171314 $178 36.788917068094065 $124 $179 forward 7 unknown #
coedge $-1 $180 $181 $75 $127 forward $120 $-1 #
edge $-1 $182 -62.264978806105141 $130 -57.114179940428215 $126 $183 forward 7 unknown #
edge $-1 $131 61.667402496169402 $182 71.668214179963144 $76 $184 forward 7 unknown #
coedge $-1 $77 $177 $180 $185 forward $72 $-1 #
vertex $-1 $127 $186 #
vertex $-1 $78 $187 #
straight-curve $-1 25.33128506482273 16.813678703662816 16.099484466846633 0 -1 0 I I #
coedge $-1 $133 $133 $-1 $188 reversed $81 $-1 #
edge $-1 $189 0 $189 6.2831853071796004 $82 $190 forward 7 unknown #
vertex $-1 $85 $191 #
ellipse-curve $-1 31.764158274338129 31.547922732652591 13.524085034008172 0 0.51503808176128008 0.85716729658548041 2.5 0 0 1 I I #
coedge $-1 $137 $137 $-1 $192 reversed $88 $-1 #
edge $-1 $193 0 $193 6.2831853071796004 $89 $194 forward 7 unknown #
vertex $-1 $92 $195 #
ellipse-curve $-1 41.413468088611211 31.547922732652591 13.524085034008172 0 0.51503808176128008 0.85716729658548041 2.5 0 0 1 I I #
coedge $-1 $141 $141 $-1 $196 reversed $95 $-1 #
edge $-1 $197 0 $197 6.2831853071796004 $96 $198 forward 7 unknown #
vertex $-1 $99 $199 #
ellipse-curve $-1 51.062777902884292 31.547922732652591 13.524085034008172 0 0.51503808176128008 0.85716729658548041 2.5 0 0 1 I I #
face $-1 $-1 $115 $15 $-1 $200 reversed single #
loop $-1 $-1 $161 $100 #
plane-surface $-1 0 35.834107089981572 0 0 -1 0 0 0 -1 forward_v I I I I #
coedge $-1 $201 $159 $162 $202 forward $101 $-1 #
coedge $-1 $165 $103 $104 $153 reversed $64 $-1 #
coedge $-1 $159 $201 $103 $151 reversed $101 $-1 #
edge $-1 $166 -16.099484466846636 $203 16.099484466846636 $150 $204 forward 7 unknown #
coedge $-1 $105 $104 $201 $205 forward $41 $-1 #
edge $-1 $157 -57.495651112399671 $203 57.495651112399671 $149 $206 forward 7 unknown #
coedge $-1 $162 $161 $105 $155 reversed $146 $-1 #
edge $-1 $207 -57.495651112399671 $156 57.495651112399671 $154 $208 forward 7 unknown #
vertex $-1 $107 $209 #
vertex $-1 $168 $210 #
straight-curve $-1 57.495651112399671 0 -16.099484466846636 0 -1 0 I I #
coedge $-1 $148 $150 $108 $160 reversed $101 $-1 #
edge $-1 $163 -35.834107089981572 $166 35.834107089981572 $159 $211 forward 7 unknown #
coedge $-1 $154 $109 $114 $169 forward $146 $-1 #
coedge $-1 $109 $154 $148 $202 reversed $146 $-1 #
vertex $-1 $110 $212 #
straight-curve $-1 0 35.834107089981572 16.099484466846636 -1 0 0 I I #
coedge $-1 $111 $149 $113 $168 reversed $64 $-1 #
vertex $-1 $160 $213 #
straight-curve $-1 0 -35.834107089981572 16.099484466846636 1 0 0 I I #
edge $-1 $116 -16.099484466846636 $157 16.099484466846636 $113 $214 forward 7 unknown #
edge $-1 $117 -16.099484466846636 $156 16.099484466846636 $114 $215 forward 7 unknown #
point $-1 57.495651112399671 -35.834107089981572 16.099484466846636 #
point $-1 57.495651112399671 35.834107089981572 16.099484466846636 #
loop $-1 $-1 $175 $119 #
plane-surface $-1 57.495651112399671 0 0 -1 0 0 0 0 1 forward_v I I I I #
coedge $-1 $123 $122 $181 $216 reversed $45 $-1 #
coedge $-1 $217 $218 $123 $176 forward $172 $-1 #
edge $-1 $178 38.371712741207979 $219 48.372524425001728 $175 $220 forward 7 unknown #
coedge $-1 $129 $124 $218 $221 forward $72 $-1 #
vertex $-1 $221 $222 #
straight-curve $-1 20.706734044305598 27.261738375323596 16.099484466846636 1 0 0 I I #
coedge $-1 $223 $126 $129 $185 reversed $120 $-1 #
coedge $-1 $126 $223 $174 $216 forward $120 $-1 #
vertex $-1 $127 $224 #
straight-curve $-1 25.33128506482273 35.834107089981572 73.213664407274848 0 0 1 I I #
straight-curve $-1 25.33128506482273 -25.597542309766638 47.860545155674501 0 0.85716729658548041 -0.51503808176128008 I I #
edge $-1 $225 -57.495651112399671 $130 -25.33128506482273 $180 $226 forward 7 unknown #
point $-1 25.33128506482273 35.834107089981572 16.099484466846636 #
point $-1 25.33128506482273 27.261738375323596 16.099484466846636 #
edge $-1 $227 1 $227 0 $133 $-1 forward 7 unknown #
vertex $-1 $134 $228 #
ellipse-curve $-1 31.764158274338129 30.175685050442937 11.240298055946303 0 0.51503808176128008 0.85716729658548041 2.5 0 0 1 I I #
point $-1 34.264158274338129 31.547922732652601 13.524085034008191 #
edge $-1 $229 1 $229 0 $137 $-1 forward 7 unknown #
vertex $-1 $138 $230 #
ellipse-curve $-1 41.413468088611211 30.175685050442937 11.240298055946303 0 0.51503808176128008 0.85716729658548041 2.5 0 0 1 I I #
point $-1 43.913468088611211 31.547922732652601 13.524085034008191 #
edge $-1 $231 1 $231 0 $141 $-1 forward 7 unknown #
vertex $-1 $142 $232 #
ellipse-curve $-1 51.062777902884292 30.175685050442937 11.240298055946303 0 0.51503808176128008 0.85716729658548041 2.5 0 0 1 I I #
point $-1 53.562777902884292 31.547922732652601 13.524085034008191 #
plane-surface $-1 57.495651112399671 0 0 -1 0 0 0 0 1 forward_v I I I I #
coedge $-1 $150 $148 $152 $205 reversed $101 $-1 #
edge $-1 $163 -16.099484466846636 $207 16.099484466846636 $162 $233 forward 7 unknown #
vertex $-1 $205 $234 #
straight-curve $-1 -57.495651112399671 -35.834107089981572 0 0 0 -1 I I #
edge $-1 $203 -35.834107089981572 $207 35.834107089981572 $201 $235 forward 7 unknown #
straight-curve $-1 0 -35.834107089981572 -16.099484466846636 -1 0 0 I I #
vertex $-1 $155 $236 #
straight-curve $-1 0 35.834107089981572 -16.099484466846636 1 0 0 I I #
point $-1 57.495651112399671 35.834107089981572 -16.099484466846636 #
point $-1 57.495651112399671 -35.834107089981572 -16.099484466846636 #
straight-curve $-1 -57.495651112399671 0 16.099484466846636 0 -1 0 I I #
point $-1 -57.495651112399671 35.834107089981572 16.099484466846636 #
point $-1 -57.495651112399671 -35.834107089981572 16.099484466846636 #
straight-curve $-1 57.495651112399671 -35.834107089981572 0 0 0 -1 I I #
straight-curve $-1 57.495651112399671 35.834107089981572 0 0 0 -1 I I #
edge $-1 $219 -36.788917068094065 $182 -4.6245510205171314 $181 $237 forward 7 unknown #
coedge $-1 $218 $175 $223 $238 reversed $172 $-1 #
coedge $-1 $175 $217 $177 $221 reversed $172 $-1 #
vertex $-1 $176 $239 #
straight-curve $-1 57.495651112399671 -5.6292389004122816 35.862377790973269 0 0.85716729658548041 -0.51503808176128008 I I #
edge $-1 $178 27.261738375323596 $225 35.834107089981572 $218 $240 forward 7 unknown #
point $-1 57.495651112399663 27.261738375323596 16.099484466846636 #
coedge $-1 $181 $180 $217 $238 forward $120 $-1 #
point $-1 25.33128506482273 35.834107089981572 10.948685601169707 #
vertex $-1 $221 $241 #
straight-curve $-1 0 35.834107089981572 16.099484466846636 -1 0 0 I I #
vertex $-1 $188 $242 #
point $-1 34.264158274338129 30.175685050442937 11.240298055946303 #
vertex $-1 $192 $243 #
point $-1 43.913468088611211 30.175685050442937 11.240298055946303 #
vertex $-1 $196 $244 #
point $-1 53.562777902884292 30.175685050442937 11.240298055946303 #
straight-curve $-1 -57.495651112399671 35.834107089981572 0 0 0 -1 I I #
point $-1 -57.495651112399671 -35.834107089981572 -16.099484466846636 #
straight-curve $-1 -57.495651112399671 0 -16.099484466846636 0 1 0 I I #
point $-1 -57.495651112399671 35.834107089981572 -16.099484466846636 #
straight-curve $-1 20.706734044305598 35.834107089981572 10.948685601169711 -1 0 0 I I #
edge $-1 $225 -16.099484466846636 $219 -10.948685601169707 $217 $245 forward 7 unknown #
point $-1 57.495651112399663 35.834107089981572 10.948685601169707 #
straight-curve $-1 57.495651112399671 0 16.099484466846636 0 1 0 I I #
point $-1 57.495651112399671 35.834107089981572 16.099484466846636 #
point $-1 31.764158274338129 28.888089846039733 9.0973798144826024 #
point $-1 41.413468088611211 28.888089846039733 9.0973798144826024 #
point $-1 51.062777902884292 28.888089846039733 9.0973798144826024 #
straight-curve $-1 57.495651112399671 35.834107089981572 0 0 0 -1 I I #
End-of-ACIS-data 