500 0 5 0           
7 Unknown 11 ACIS 5.0 NT 24 Fri Mar 26 19:01:06 1999 
-1 9.9999999999999995e-007 1e-010 
body $-1 $5 $-1 $6 #
body $-1 $7 $-1 $8 #
body $-1 $9 $-1 $10 #
body $-1 $11 $-1 $12 #
body $-1 $13 $-1 $14 #
lump $-1 $-1 $15 $0 #
transform $-1 1 0 0 0 1 0 0 0 1 71.296121097445592 38.522577763659633 17.519325825327407 1 rotate no_reflect no_shear #
lump $-1 $-1 $16 $1 #
transform $-1 1 0 0 0 1 0 0 0 1 71.296121097445592 38.522577763659633 17.519325825327407 1 rotate no_reflect no_shear #
lump $-1 $-1 $17 $2 #
transform $-1 1 0 0 0 1 0 0 0 1 71.296121097445592 38.522577763659633 17.519325825327407 1 rotate no_reflect no_shear #
lump $-1 $-1 $18 $3 #
transform $-1 1 0 0 0 1 0 0 0 1 71.296121097445592 38.522577763659633 17.519325825327407 1 rotate no_reflect no_shear #
lump $-1 $-1 $19 $4 #
transform $-1 1 0 0 0 1 0 0 0 1 71.296121097445592 38.522577763659633 17.519325825327407 1 rotate no_reflect no_shear #
shell $-1 $-1 $-1 $20 $-1 $5 #
shell $-1 $-1 $-1 $21 $-1 $7 #
shell $-1 $-1 $-1 $22 $-1 $9 #
shell $-1 $-1 $-1 $23 $-1 $11 #
shell $-1 $-1 $-1 $24 $-1 $13 #
face $-1 $25 $26 $15 $-1 $27 forward single #
face $-1 $28 $29 $16 $-1 $30 forward single #
face $-1 $31 $32 $17 $-1 $33 reversed single #
face $-1 $34 $35 $18 $-1 $36 forward single #
face $-1 $37 $38 $19 $-1 $39 reversed single #
face $-1 $40 $41 $15 $-1 $42 reversed single #
loop $-1 $-1 $43 $20 #
plane-surface $-1 0 0 17.519325825327407 0 0 1 1 0 0 forward_v I I I I #
face $-1 $44 $45 $16 $-1 $46 forward single #
loop $-1 $-1 $47 $21 #
plane-surface $-1 -168.54379758819559 -35.400094462401064 117.69160114340801 0 1 0 -0.68199836817093118 0 0.7313536940579346 forward_v I I I I #
face $-1 $48 $49 $17 $-1 $50 reversed single #
loop $-1 $51 $52 $22 #
cone-surface $-1 -68.395345531749513 -28.022057374129364 14.717054286621364 0.68199836817093118 0 -0.7313536940579346 1.0970305410869019 0 1.0229975522563968 1 I I 0 1 1.5 forward I I I I #
face $-1 $53 $54 $18 $-1 $55 forward single #
loop $-1 $-1 $56 $23 #
plane-surface $-1 53.720654924311447 31.978422576119453 214.62354580862987 0 -1 0 -0.64278761758704617 0 -0.76604443648966558 forward_v I I I I #
face $-1 $57 $58 $19 $-1 $59 reversed single #
loop $-1 $60 $61 $24 #
cone-surface $-1 68.270983421311158 26.219963207114624 14.709333823252203 -0.64278761758704617 0 -0.76604443648966558 0.76604443648966558 0 -0.64278761758704617 1 I I 0 1 1 forward I I I I #
face $-1 $62 $63 $15 $-1 $64 reversed single #
loop $-1 $-1 $65 $25 #
plane-surface $-1 0 0 -17.519325825327407 0 0 1 1 0 0 forward_v I I I I #
coedge $-1 $66 $67 $68 $69 forward $26 $-1 #
face $-1 $70 $71 $16 $-1 $72 forward single #
loop $-1 $-1 $73 $28 #
plane-surface $-1 -71.296121097445607 -28.022057374129368 13.406238070170645 -0.68199836817093118 0 0.7313536940579346 0.7313536940579346 0 0.68199836817093118 forward_v I I I I #
coedge $-1 $74 $75 $76 $77 reversed $29 $-1 #
face $-1 $78 $79 $17 $-1 $80 forward single #
loop $-1 $81 $82 $31 #
cone-surface $-1 -67.188444446012284 -28.022057374129364 13.422811354950266 0.68199836817093118 0 -0.7313536940579346 0.54851527054345095 0 0.51149877612819838 1 I I -0.70710678118654757 0.70710678118654757 0.75 forward I I I I #
loop $-1 $-1 $83 $22 #
coedge $-1 $52 $52 $84 $85 reversed $32 $-1 #
face $-1 $86 $87 $18 $-1 $88 forward single #
loop $-1 $-1 $89 $34 #
plane-surface $-1 -37.935872722537738 26.219963207114624 105.39155198864654 0.64278761758704617 0 0.76604443648966558 0.76604443648966558 0 -0.64278761758704617 forward_v I I I I #
coedge $-1 $90 $91 $92 $93 reversed $35 $-1 #
face $-1 $94 $95 $19 $-1 $96 forward single #
loop $-1 $97 $98 $37 #
cone-surface $-1 67.17942933338108 26.219963207114624 13.408470344697172 -0.64278761758704617 0 -0.76604443648966558 0.38302221824483279 0 -0.32139380879352308 1 I I -0.70710678118654746 0.70710678118654746 0.5 forward I I I I #
loop $-1 $-1 $99 $24 #
coedge $-1 $61 $61 $100 $101 reversed $38 $-1 #
face $-1 $102 $103 $15 $-1 $104 reversed single #
loop $-1 $-1 $105 $40 #
plane-surface $-1 0 -38.522577763659633 0 0 1 0 0 0 1 forward_v I I I I #
coedge $-1 $106 $107 $108 $109 forward $41 $-1 #
coedge $-1 $110 $43 $111 $112 forward $26 $-1 #
coedge $-1 $43 $110 $113 $114 forward $26 $-1 #
coedge $-1 $115 $116 $43 $69 reversed $117 $-1 #
edge $-1 $118 -38.522577763659633 $119 38.522577763659633 $68 $120 forward 7 unknown #
face $-1 $121 $122 $16 $-1 $123 forward single #
loop $-1 $-1 $124 $44 #
plane-surface $-1 -168.54379758819559 -20.644020285857671 117.69160114340801 0 -1 0 0.68199836817093118 0 -0.7313536940579346 forward_v I I I I #
coedge $-1 $125 $126 $127 $128 reversed $45 $-1 #
coedge $-1 $75 $47 $126 $129 forward $29 $-1 #
coedge $-1 $47 $74 $130 $131 reversed $29 $-1 #
coedge $-1 $132 $127 $47 $77 forward $122 $-1 #
edge $-1 $133 -17.386524208826273 $134 -12.975777696652202 $76 $135 forward 7 unknown #
face $-1 $136 $137 $17 $-1 $138 forward single #
loop $-1 $-1 $139 $48 #
plane-surface $-1 -168.54379758819559 -35.400094462401064 117.69160114340801 0 1 0 -0.68199836817093118 0 0.7313536940579346 forward_v I I I I #
loop $-1 $-1 $140 $31 #
coedge $-1 $82 $82 $83 $141 forward $49 $-1 #
coedge $-1 $83 $83 $82 $141 reversed $51 $-1 #
coedge $-1 $84 $84 $52 $85 forward $137 $-1 #
edge $-1 $142 0 $142 6.2831853071796004 $84 $143 forward 7 unknown #
face $-1 $144 $145 $18 $-1 $146 forward single #
loop $-1 $-1 $147 $53 #
plane-surface $-1 53.720654924311447 20.461503838109795 214.62354580862987 0 1 0 0.64278761758704617 0 0.76604443648966558 forward_v I I I I #
coedge $-1 $148 $149 $150 $151 reversed $54 $-1 #
coedge $-1 $91 $56 $149 $152 forward $35 $-1 #
coedge $-1 $56 $90 $153 $154 reversed $35 $-1 #
coedge $-1 $155 $150 $56 $93 forward $145 $-1 #
edge $-1 $156 39.925838841294166 $157 44.435793635289869 $92 $158 forward 7 unknown #
face $-1 $159 $160 $19 $-1 $161 forward single #
loop $-1 $-1 $162 $57 #
plane-surface $-1 53.720654924311447 31.978422576119453 214.62354580862987 0 -1 0 -0.64278761758704617 0 -0.76604443648966558 forward_v I I I I #
loop $-1 $-1 $163 $37 #
coedge $-1 $98 $98 $99 $164 forward $58 $-1 #
coedge $-1 $99 $99 $98 $164 reversed $60 $-1 #
coedge $-1 $100 $100 $61 $101 forward $160 $-1 #
edge $-1 $165 0 $165 6.2831853071796004 $100 $166 forward 7 unknown #
face $-1 $167 $168 $15 $-1 $169 reversed single #
loop $-1 $-1 $170 $62 #
plane-surface $-1 -71.296121097445592 0 0 1 0 0 0 0 -1 forward_v I I I I #
coedge $-1 $171 $113 $172 $173 forward $63 $-1 #
coedge $-1 $174 $65 $171 $175 forward $41 $-1 #
coedge $-1 $65 $174 $176 $177 forward $41 $-1 #
coedge $-1 $116 $115 $65 $109 reversed $117 $-1 #
edge $-1 $178 -38.522577763659633 $179 38.522577763659633 $108 $180 forward 7 unknown #
coedge $-1 $67 $66 $181 $182 forward $26 $-1 #
coedge $-1 $183 $184 $66 $112 reversed $168 $-1 #
edge $-1 $119 -71.296121097445592 $185 71.296121097445592 $111 $186 forward 7 unknown #
coedge $-1 $105 $187 $67 $114 reversed $63 $-1 #
edge $-1 $188 -71.296121097445592 $118 71.296121097445592 $113 $189 forward 7 unknown #
coedge $-1 $108 $68 $187 $190 forward $117 $-1 #
coedge $-1 $68 $108 $183 $191 reversed $117 $-1 #
loop $-1 $-1 $115 $167 #
vertex $-1 $69 $192 #
vertex $-1 $69 $193 #
straight-curve $-1 71.296121097445592 0 17.519325825327407 0 1 0 I I #
face $-1 $194 $195 $16 $-1 $196 reversed single #
loop $-1 $-1 $197 $70 #
plane-surface $-1 0 0 17.519325825327407 0 0 1 1 0 0 forward_v I I I I #
coedge $-1 $198 $199 $197 $200 reversed $71 $-1 #
coedge $-1 $201 $73 $199 $202 reversed $45 $-1 #
coedge $-1 $73 $201 $74 $129 reversed $45 $-1 #
coedge $-1 $76 $197 $73 $128 forward $122 $-1 #
edge $-1 $203 6.6329915987929873 $133 21.38906577533638 $127 $204 forward 7 unknown #
edge $-1 $133 -6.0309348923924189 $205 -1.8873468352005311e-014 $74 $206 forward 7 unknown #
coedge $-1 $207 $208 $75 $131 forward $209 $-1 #
edge $-1 $134 41.326474746376597 $205 45.439562501533345 $130 $210 forward 7 unknown #
coedge $-1 $211 $76 $208 $212 forward $122 $-1 #
vertex $-1 $128 $213 #
vertex $-1 $212 $214 #
straight-curve $-1 -84.271898794097794 -35.400094462401064 17.519325825327407 -1 0 0 I I #
face $-1 $215 $216 $17 $-1 $217 forward single #
loop $-1 $218 $84 $78 #
plane-surface $-1 -71.296121097445607 -28.022057374129368 13.406238070170645 -0.68199836817093118 0 0.7313536940579346 0.7313536940579346 0 0.68199836817093118 forward_v I I I I #
coedge $-1 $219 $220 $221 $222 reversed $79 $-1 #
coedge $-1 $140 $140 $-1 $223 forward $81 $-1 #
edge $-1 $224 0 $224 6.2831853071796004 $82 $225 forward 7 unknown #
vertex $-1 $85 $226 #
ellipse-curve $-1 -69.090747841358549 -28.022057374129364 15.462781947749031 0.68199836817093118 0 -0.7313536940579346 1.0970305410869019 0 1.0229975522563968 1 I I #
face $-1 $227 $228 $18 $-1 $229 reversed single #
loop $-1 $-1 $230 $86 #
plane-surface $-1 0 0 17.519325825327407 0 0 1 1 0 0 forward_v I I I I #
coedge $-1 $231 $232 $230 $233 reversed $87 $-1 #
coedge $-1 $234 $89 $232 $235 reversed $54 $-1 #
coedge $-1 $89 $234 $90 $152 reversed $54 $-1 #
coedge $-1 $92 $230 $89 $151 forward $145 $-1 #
edge $-1 $236 7.3515222345524833 $156 18.868440972562141 $150 $237 forward 7 unknown #
edge $-1 $156 136.70491428130146 $238 142.59224219489118 $90 $239 forward 7 unknown #
coedge $-1 $240 $241 $91 $154 forward $242 $-1 #
edge $-1 $157 89.792447078987522 $238 93.576748562517579 $153 $243 forward 7 unknown #
coedge $-1 $244 $92 $241 $245 forward $145 $-1 #
vertex $-1 $151 $246 #
vertex $-1 $245 $247 #
straight-curve $-1 26.860327462155723 31.978422576119453 17.5193258253274 1 0 0 I I #
face $-1 $248 $249 $19 $-1 $250 forward single #
loop $-1 $251 $100 $94 #
plane-surface $-1 -37.935872722537738 26.219963207114624 105.39155198864654 0.64278761758704617 0 0.76604443648966558 0.76604443648966558 0 -0.64278761758704617 forward_v I I I I #
coedge $-1 $252 $253 $254 $255 reversed $95 $-1 #
coedge $-1 $163 $163 $-1 $256 forward $97 $-1 #
edge $-1 $257 0 $257 6.2831853071796004 $98 $258 forward 7 unknown #
vertex $-1 $101 $259 #
ellipse-curve $-1 69.041143700447705 26.219963207114624 15.627175083562397 -0.64278761758704617 0 -0.76604443648966558 0.76604443648966558 0 -0.64278761758704617 1 I I #
face $-1 $-1 $117 $15 $-1 $260 reversed single #
loop $-1 $-1 $183 $102 #
plane-surface $-1 0 38.522577763659633 0 0 -1 0 0 0 -1 forward_v I I I I #
coedge $-1 $261 $181 $184 $262 forward $103 $-1 #
coedge $-1 $187 $105 $106 $175 reversed $63 $-1 #
coedge $-1 $181 $261 $105 $173 reversed $103 $-1 #
edge $-1 $188 -17.519325825327407 $263 17.519325825327407 $172 $264 forward 7 unknown #
coedge $-1 $107 $106 $261 $265 forward $41 $-1 #
edge $-1 $179 -71.296121097445592 $263 71.296121097445592 $171 $266 forward 7 unknown #
coedge $-1 $184 $183 $107 $177 reversed $168 $-1 #
edge $-1 $267 -71.296121097445592 $178 71.296121097445592 $176 $268 forward 7 unknown #
vertex $-1 $109 $269 #
vertex $-1 $190 $270 #
straight-curve $-1 71.296121097445592 0 -17.519325825327407 0 -1 0 I I #
coedge $-1 $170 $172 $110 $182 reversed $103 $-1 #
edge $-1 $185 -38.522577763659633 $188 38.522577763659633 $181 $271 forward 7 unknown #
coedge $-1 $176 $111 $116 $191 forward $168 $-1 #
coedge $-1 $111 $176 $170 $262 reversed $168 $-1 #
vertex $-1 $112 $272 #
straight-curve $-1 0 38.522577763659633 17.519325825327407 -1 0 0 I I #
coedge $-1 $113 $171 $115 $190 reversed $63 $-1 #
vertex $-1 $182 $273 #
straight-curve $-1 0 -38.522577763659633 17.519325825327407 1 0 0 I I #
edge $-1 $118 -17.519325825327407 $179 17.519325825327407 $115 $274 forward 7 unknown #
edge $-1 $119 -17.519325825327407 $178 17.519325825327407 $116 $275 forward 7 unknown #
point $-1 71.296121097445592 -38.522577763659633 17.519325825327407 #
point $-1 71.296121097445592 38.522577763659633 17.519325825327407 #
face $-1 $276 $277 $16 $-1 $278 reversed single #
loop $-1 $-1 $279 $121 #
plane-surface $-1 0 0 -17.519325825327407 0 0 1 1 0 0 forward_v I I I I #
coedge $-1 $127 $280 $124 $200 forward $122 $-1 #
coedge $-1 $199 $124 $281 $282 reversed $71 $-1 #
coedge $-1 $124 $198 $125 $202 forward $71 $-1 #
edge $-1 $283 12.975777696652202 $203 17.386524208826273 $197 $284 forward 7 unknown #
coedge $-1 $126 $125 $207 $285 reversed $45 $-1 #
edge $-1 $286 1.8873468352005311e-014 $203 6.0309348923924189 $199 $287 forward 7 unknown #
vertex $-1 $128 $288 #
straight-curve $-1 -66.885374585271521 -14.011028687064684 17.519325825327407 0 -1 0 I I #
vertex $-1 $285 $289 #
straight-curve $-1 -71.296121097445607 -35.400094462401064 13.406238070170645 -0.7313536940579346 0 -0.68199836817093118 I I #
coedge $-1 $281 $130 $201 $285 forward $209 $-1 #
coedge $-1 $130 $290 $132 $212 reversed $209 $-1 #
loop $-1 $-1 $281 $276 #
straight-curve $-1 -71.296121097445592 -35.400094462401064 58.845800571704004 0 0 -1 I I #
coedge $-1 $291 $132 $292 $293 forward $122 $-1 #
edge $-1 $134 35.400094462401064 $294 38.522577763659633 $208 $295 forward 7 unknown #
point $-1 -66.885374585271521 -35.400094462401064 17.519325825327407 #
point $-1 -71.296121097445592 -35.400094462401064 17.519325825327407 #
face $-1 $296 $297 $17 $-1 $298 forward single #
loop $-1 $-1 $299 $136 #
plane-surface $-1 -168.54379758819559 -20.644020285857671 117.69160114340801 0 -1 0 0.68199836817093118 0 -0.7313536940579346 forward_v I I I I #
loop $-1 $-1 $300 $78 #
coedge $-1 $220 $139 $301 $302 forward $79 $-1 #
coedge $-1 $139 $219 $303 $304 reversed $79 $-1 #
coedge $-1 $305 $306 $139 $222 forward $297 $-1 #
edge $-1 $307 -17.386524208826273 $308 -12.975777696652202 $221 $309 forward 7 unknown #
edge $-1 $310 1 $310 0 $140 $-1 forward 7 unknown #
vertex $-1 $141 $311 #
ellipse-curve $-1 -67.699943222140476 -28.022057374129364 13.971326625493717 -0.68199836817093118 0 0.7313536940579346 1.0970305410869019 0 1.0229975522563968 1 I I #
point $-1 -67.993717300271626 -28.022057374129364 16.48577950000541 #
face $-1 $312 $313 $18 $-1 $314 reversed single #
loop $-1 $315 $316 $144 #
cone-surface $-1 -68.395345531749513 -28.022057374129364 14.717054286621364 0.68199836817093118 0 -0.7313536940579346 1.0970305410869019 0 1.0229975522563968 1 I I 0 1 1.5 forward I I I I #
coedge $-1 $150 $317 $147 $233 forward $145 $-1 #
coedge $-1 $232 $147 $318 $319 reversed $87 $-1 #
coedge $-1 $147 $231 $148 $235 forward $87 $-1 #
edge $-1 $320 -44.435793635289869 $236 -39.925838841294166 $230 $321 forward 7 unknown #
coedge $-1 $149 $148 $240 $322 reversed $54 $-1 #
edge $-1 $323 -142.59224219489118 $236 -136.70491428130146 $232 $324 forward 7 unknown #
vertex $-1 $151 $325 #
straight-curve $-1 66.786166303449875 13.109981603557312 17.519325825327414 0 1 0 I I #
vertex $-1 $322 $326 #
straight-curve $-1 -37.935872722537738 31.978422576119453 105.39155198864654 0.76604443648966558 0 -0.64278761758704617 I I #
coedge $-1 $318 $153 $234 $322 forward $242 $-1 #
coedge $-1 $153 $327 $155 $245 reversed $242 $-1 #
loop $-1 $-1 $318 $328 #
straight-curve $-1 71.296121097445592 31.978422576119453 107.31177290431494 0 0 -1 I I #
coedge $-1 $329 $155 $330 $331 forward $145 $-1 #
edge $-1 $157 31.978422576119453 $332 38.522577763659633 $241 $333 forward 7 unknown #
point $-1 66.786166303449889 31.978422576119453 17.5193258253274 #
point $-1 71.296121097445592 31.978422576119453 17.519325825327407 #
face $-1 $334 $335 $19 $-1 $336 forward single #
loop $-1 $-1 $337 $159 #
plane-surface $-1 53.720654924311447 20.461503838109795 214.62354580862987 0 1 0 0.64278761758704617 0 0.76604443648966558 forward_v I I I I #
loop $-1 $-1 $338 $94 #
coedge $-1 $253 $162 $339 $340 forward $95 $-1 #
coedge $-1 $162 $252 $341 $342 reversed $95 $-1 #
coedge $-1 $343 $344 $162 $255 forward $335 $-1 #
edge $-1 $345 39.925838841294166 $346 44.435793635289869 $254 $347 forward 7 unknown #
edge $-1 $348 1 $348 0 $163 $-1 forward 7 unknown #
vertex $-1 $164 $349 #
ellipse-curve $-1 67.500823142174596 26.219963207114624 13.791492562942004 0.64278761758704617 0 0.76604443648966558 0.76604443648966558 0 -0.64278761758704617 1 I I #
point $-1 69.80718813693737 26.219963207114624 14.984387465975356 #
plane-surface $-1 71.296121097445592 0 0 -1 0 0 0 0 1 forward_v I I I I #
coedge $-1 $172 $170 $174 $265 reversed $103 $-1 #
edge $-1 $185 -17.519325825327407 $267 17.519325825327407 $184 $350 forward 7 unknown #
vertex $-1 $265 $351 #
straight-curve $-1 -71.296121097445592 -38.522577763659633 0 0 0 -1 I I #
edge $-1 $263 -38.522577763659633 $267 38.522577763659633 $261 $352 forward 7 unknown #
straight-curve $-1 0 -38.522577763659633 -17.519325825327407 -1 0 0 I I #
vertex $-1 $177 $353 #
straight-curve $-1 0 38.522577763659633 -17.519325825327407 1 0 0 I I #
point $-1 71.296121097445592 38.522577763659633 -17.519325825327407 #
point $-1 71.296121097445592 -38.522577763659633 -17.519325825327407 #
straight-curve $-1 -71.296121097445592 0 17.519325825327407 0 -1 0 I I #
point $-1 -71.296121097445592 38.522577763659633 17.519325825327407 #
point $-1 -71.296121097445592 -38.522577763659633 17.519325825327407 #
straight-curve $-1 71.296121097445592 -38.522577763659633 0 0 0 -1 I I #
straight-curve $-1 71.296121097445592 38.522577763659633 0 0 0 -1 I I #
face $-1 $354 $209 $16 $-1 $355 reversed single #
loop $-1 $-1 $356 $194 #
plane-surface $-1 0 -38.522577763659633 0 0 1 0 0 0 1 forward_v I I I I #
coedge $-1 $357 $358 $359 $360 forward $195 $-1 #
coedge $-1 $197 $361 $362 $363 forward $122 $-1 #
coedge $-1 $362 $207 $198 $282 forward $209 $-1 #
edge $-1 $286 -45.439562501533345 $283 -41.326474746376597 $281 $364 forward 7 unknown #
vertex $-1 $282 $365 #
straight-curve $-1 -84.271898794097794 -20.644020285857671 17.519325825327407 1 0 0 I I #
edge $-1 $205 -21.38906577533638 $286 -6.6329915987929873 $207 $366 forward 7 unknown #
vertex $-1 $285 $367 #
straight-curve $-1 -71.296121097445607 -20.644020285857671 13.406238070170645 0.7313536940579346 0 0.68199836817093118 I I #
point $-1 -66.885374585271521 -20.644020285857671 17.519325825327407 #
point $-1 -71.296121097445592 -35.400094462401064 13.406238070170657 #
coedge $-1 $208 $368 $356 $369 reversed $209 $-1 #
coedge $-1 $361 $211 $370 $371 forward $122 $-1 #
coedge $-1 $356 $372 $211 $293 reversed $277 $-1 #
edge $-1 $294 -71.296121097445592 $373 71.296121097445592 $292 $374 forward 7 unknown #
vertex $-1 $212 $375 #
straight-curve $-1 -71.296121097445592 0 17.519325825327407 0 -1 0 I I #
face $-1 $376 $377 $17 $-1 $378 reversed single #
loop $-1 $-1 $379 $215 #
plane-surface $-1 0 0 17.519325825327407 0 0 1 1 0 0 forward_v I I I I #
coedge $-1 $380 $381 $379 $382 reversed $216 $-1 #
coedge $-1 $383 $301 $306 $384 reversed $218 $-1 #
coedge $-1 $300 $385 $219 $302 reversed $218 $-1 #
edge $-1 $307 -6.0309348923924189 $386 -1.8873468352005311e-014 $219 $387 forward 7 unknown #
coedge $-1 $388 $389 $220 $304 forward $390 $-1 #
edge $-1 $308 41.326474746376597 $386 45.439562501533345 $303 $391 forward 7 unknown #
coedge $-1 $392 $221 $389 $393 forward $297 $-1 #
coedge $-1 $221 $379 $300 $384 forward $297 $-1 #
vertex $-1 $384 $394 #
vertex $-1 $393 $395 #
straight-curve $-1 -84.271898794097794 -35.400094462401064 17.519325825327407 -1 0 0 I I #
vertex $-1 $223 $396 #
point $-1 -66.602912681053581 -28.022057374129364 14.994324177750114 #
face $-1 $397 $398 $18 $-1 $399 forward single #
loop $-1 $400 $401 $227 #
cone-surface $-1 -67.188444446012284 -28.022057374129364 13.422811354950266 0.68199836817093118 0 -0.7313536940579346 0.54851527054345095 0 0.51149877612819838 1 I I -0.70710678118654757 0.70710678118654757 0.75 forward I I I I #
loop $-1 $-1 $402 $144 #
coedge $-1 $316 $316 $403 $404 reversed $228 $-1 #
coedge $-1 $230 $405 $406 $407 forward $145 $-1 #
coedge $-1 $406 $240 $231 $319 forward $242 $-1 #
edge $-1 $323 -93.576748562517579 $320 -89.792447078987522 $318 $408 forward 7 unknown #
vertex $-1 $319 $409 #
straight-curve $-1 26.860327462155723 20.461503838109795 17.5193258253274 -1 0 0 I I #
edge $-1 $238 -18.868440972562141 $323 -7.3515222345524833 $240 $410 forward 7 unknown #
vertex $-1 $322 $411 #
straight-curve $-1 -37.935872722537738 20.461503838109795 105.39155198864654 -0.76604443648966558 0 0.64278761758704617 I I #
point $-1 66.786166303449889 20.461503838109795 17.5193258253274 #
point $-1 71.296121097445592 31.978422576119453 13.735024341797356 #
coedge $-1 $241 $412 $413 $414 reversed $242 $-1 #
face $-1 $-1 $242 $18 $-1 $415 reversed single #
coedge $-1 $416 $244 $417 $418 forward $145 $-1 #
coedge $-1 $413 $419 $244 $331 reversed $420 $-1 #
edge $-1 $332 -71.296121097445592 $421 71.296121097445592 $330 $422 forward 7 unknown #
vertex $-1 $245 $423 #
straight-curve $-1 71.296121097445592 0 17.519325825327407 0 1 0 I I #
face $-1 $424 $425 $19 $-1 $426 reversed single #
loop $-1 $-1 $427 $248 #
plane-surface $-1 0 0 17.519325825327407 0 0 1 1 0 0 forward_v I I I I #
coedge $-1 $428 $429 $427 $430 reversed $249 $-1 #
coedge $-1 $431 $339 $344 $432 reversed $251 $-1 #
coedge $-1 $338 $433 $252 $340 reversed $251 $-1 #
edge $-1 $345 136.70491428130146 $434 142.59224219489118 $252 $435 forward 7 unknown #
coedge $-1 $436 $437 $253 $342 forward $438 $-1 #
edge $-1 $346 89.792447078987522 $434 93.576748562517579 $341 $439 forward 7 unknown #
coedge $-1 $440 $254 $437 $441 forward $335 $-1 #
coedge $-1 $254 $427 $338 $432 forward $335 $-1 #
vertex $-1 $432 $442 #
vertex $-1 $441 $443 #
straight-curve $-1 26.860327462155723 31.978422576119453 17.5193258253274 1 0 0 I I #
vertex $-1 $256 $444 #
point $-1 68.266867578664275 26.219963207114624 13.148704945354957 #
straight-curve $-1 -71.296121097445592 38.522577763659633 0 0 0 -1 I I #
point $-1 -71.296121097445592 -38.522577763659633 -17.519325825327407 #
straight-curve $-1 -71.296121097445592 0 -17.519325825327407 0 1 0 I I #
point $-1 -71.296121097445592 38.522577763659633 -17.519325825327407 #
face $-1 $445 $446 $16 $-1 $447 reversed single #
plane-surface $-1 -71.296121097445592 0 0 1 0 0 0 0 -1 forward_v I I I I #
coedge $-1 $448 $292 $290 $369 forward $277 $-1 #
coedge $-1 $449 $279 $448 $450 forward $195 $-1 #
coedge $-1 $279 $449 $451 $452 forward $195 $-1 #
coedge $-1 $453 $454 $279 $360 reversed $455 $-1 #
edge $-1 $456 -38.522577763659633 $457 38.522577763659633 $359 $458 forward 7 unknown #
coedge $-1 $280 $291 $459 $460 forward $122 $-1 #
coedge $-1 $461 $281 $280 $363 reversed $209 $-1 #
edge $-1 $462 -38.522577763659633 $283 20.644020285857671 $362 $295 forward 7 unknown #
straight-curve $-1 -71.296121097445592 -20.644020285857671 58.845800571704004 0 0 1 I I #
point $-1 -71.296121097445592 -20.644020285857671 17.519325825327407 #
straight-curve $-1 -71.296121097445592 -14.011028687064684 13.406238070170652 0 1 0 I I #
point $-1 -71.296121097445592 -20.644020285857671 13.406238070170657 #
coedge $-1 $290 $461 $449 $463 reversed $209 $-1 #
edge $-1 $294 -17.519325825327407 $464 17.519325825327407 $290 $465 forward 7 unknown #
coedge $-1 $454 $453 $291 $371 reversed $455 $-1 #
edge $-1 $373 -38.522577763659633 $466 38.522577763659633 $370 $467 forward 7 unknown #
coedge $-1 $292 $448 $454 $468 reversed $277 $-1 #
vertex $-1 $371 $469 #
straight-curve $-1 0 -38.522577763659633 17.519325825327407 1 0 0 I I #
point $-1 -71.296121097445592 -38.522577763659633 17.519325825327407 #
face $-1 $470 $471 $17 $-1 $472 reversed single #
loop $-1 $-1 $473 $296 #
plane-surface $-1 0 0 -17.519325825327407 0 0 1 1 0 0 forward_v I I I I #
coedge $-1 $306 $474 $299 $382 forward $297 $-1 #
coedge $-1 $381 $299 $475 $476 reversed $216 $-1 #
coedge $-1 $299 $380 $383 $477 forward $216 $-1 #
edge $-1 $478 12.975777696652202 $479 17.386524208826273 $379 $480 forward 7 unknown #
coedge $-1 $385 $300 $381 $477 reversed $218 $-1 #
edge $-1 $479 6.6329915987929873 $307 21.38906577533638 $306 $481 forward 7 unknown #
coedge $-1 $301 $383 $388 $482 reversed $218 $-1 #
vertex $-1 $482 $483 #
straight-curve $-1 -71.296121097445607 -35.400094462401064 13.406238070170645 -0.7313536940579346 0 -0.68199836817093118 I I #
coedge $-1 $475 $303 $385 $482 forward $390 $-1 #
coedge $-1 $303 $484 $305 $393 reversed $390 $-1 #
loop $-1 $-1 $475 $470 #
straight-curve $-1 -71.296121097445592 -35.400094462401064 58.845800571704004 0 0 -1 I I #
coedge $-1 $485 $305 $486 $487 forward $297 $-1 #
edge $-1 $308 35.400094462401064 $488 38.522577763659633 $389 $489 forward 7 unknown #
point $-1 -66.885374585271521 -35.400094462401064 17.519325825327407 #
point $-1 -71.296121097445592 -35.400094462401064 17.519325825327407 #
point $-1 -66.676945669884091 -28.022057374129364 12.874296084406815 #
face $-1 $490 $491 $18 $-1 $492 forward single #
loop $-1 $-1 $493 $312 #
plane-surface $-1 -168.54379758819559 -35.400094462401064 117.69160114340801 0 1 0 -0.68199836817093118 0 0.7313536940579346 forward_v I I I I #
loop $-1 $-1 $494 $227 #
coedge $-1 $401 $401 $402 $495 forward $313 $-1 #
coedge $-1 $402 $402 $401 $495 reversed $315 $-1 #
coedge $-1 $403 $403 $316 $404 forward $491 $-1 #
edge $-1 $496 0 $496 6.2831853071796004 $403 $497 forward 7 unknown #
coedge $-1 $317 $498 $499 $500 forward $145 $-1 #
coedge $-1 $501 $318 $317 $407 reversed $242 $-1 #
edge $-1 $502 -38.522577763659633 $320 20.461503838109795 $406 $333 forward 7 unknown #
straight-curve $-1 71.296121097445592 20.461503838109795 107.31177290431494 0 0 1 I I #
point $-1 71.296121097445592 20.461503838109795 17.519325825327407 #
straight-curve $-1 71.296121097445578 13.109981603557312 13.73502434179737 0 -1 0 I I #
point $-1 71.296121097445592 20.461503838109795 13.735024341797356 #
coedge $-1 $327 $501 $503 $504 reversed $242 $-1 #
coedge $-1 $505 $330 $327 $414 forward $420 $-1 #
edge $-1 $332 -17.519325825327407 $506 17.519325825327407 $327 $507 forward 7 unknown #
plane-surface $-1 71.296121097445592 0 0 -1 0 0 0 0 1 forward_v I I I I #
coedge $-1 $508 $329 $509 $510 forward $145 $-1 #
coedge $-1 $511 $512 $329 $418 reversed $513 $-1 #
edge $-1 $421 -38.522577763659633 $514 20.644020285857671 $417 $515 forward 7 unknown #
coedge $-1 $330 $505 $511 $516 reversed $420 $-1 #
loop $-1 $-1 $413 $517 #
vertex $-1 $331 $518 #
straight-curve $-1 0 38.522577763659633 17.519325825327407 -1 0 0 I I #
point $-1 71.296121097445592 38.522577763659633 17.519325825327407 #
face $-1 $519 $520 $19 $-1 $521 reversed single #
loop $-1 $522 $523 $334 #
cone-surface $-1 -68.395345531749513 -28.022057374129364 14.717054286621364 0.68199836817093118 0 -0.7313536940579346 1.0970305410869019 0 1.0229975522563968 1 I I 0 1 1.5 forward I I I I #
coedge $-1 $344 $524 $337 $430 forward $335 $-1 #
coedge $-1 $429 $337 $525 $526 reversed $249 $-1 #
coedge $-1 $337 $428 $431 $527 forward $249 $-1 #
edge $-1 $528 -44.435793635289869 $529 -39.925838841294166 $427 $530 forward 7 unknown #
coedge $-1 $433 $338 $429 $527 reversed $251 $-1 #
edge $-1 $529 7.3515222345524833 $345 18.868440972562141 $344 $531 forward 7 unknown #
coedge $-1 $339 $431 $436 $532 reversed $251 $-1 #
vertex $-1 $532 $533 #
straight-curve $-1 -37.935872722537738 31.978422576119453 105.39155198864654 0.76604443648966558 0 -0.64278761758704617 I I #
coedge $-1 $525 $341 $433 $532 forward $438 $-1 #
coedge $-1 $341 $534 $343 $441 reversed $438 $-1 #
loop $-1 $-1 $525 $535 #
straight-curve $-1 71.296121097445592 31.978422576119453 107.31177290431494 0 0 -1 I I #
coedge $-1 $536 $343 $537 $538 forward $335 $-1 #
edge $-1 $346 31.978422576119453 $539 38.522577763659633 $437 $540 forward 7 unknown #
point $-1 66.786166303449889 31.978422576119453 17.5193258253274 #
point $-1 71.296121097445592 31.978422576119453 17.519325825327407 #
point $-1 66.858035524587564 26.219963207114624 13.025448126452339 #
face $-1 $-1 $455 $16 $-1 $541 reversed single #
loop $-1 $-1 $542 $354 #
plane-surface $-1 0 38.522577763659633 0 0 -1 0 0 0 -1 forward_v I I I I #
coedge $-1 $372 $356 $357 $450 reversed $277 $-1 #
coedge $-1 $358 $357 $368 $463 forward $195 $-1 #
edge $-1 $457 -71.296121097445592 $464 71.296121097445592 $448 $543 forward 7 unknown #
coedge $-1 $544 $542 $358 $452 reversed $446 $-1 #
edge $-1 $545 -71.296121097445592 $456 71.296121097445592 $451 $546 forward 7 unknown #
coedge $-1 $370 $359 $542 $547 reversed $455 $-1 #
coedge $-1 $359 $370 $372 $468 forward $455 $-1 #
loop $-1 $-1 $454 $445 #
vertex $-1 $360 $548 #
vertex $-1 $468 $549 #
straight-curve $-1 71.296121097445592 0 -17.519325825327407 0 -1 0 I I #
coedge $-1 $542 $544 $361 $460 reversed $446 $-1 #
edge $-1 $466 -71.296121097445592 $462 71.296121097445592 $459 $550 forward 7 unknown #
coedge $-1 $368 $362 $544 $551 forward $209 $-1 #
vertex $-1 $460 $552 #
edge $-1 $464 -38.522577763659633 $545 38.522577763659633 $368 $553 forward 7 unknown #
vertex $-1 $463 $554 #
straight-curve $-1 -71.296121097445592 -38.522577763659633 0 0 0 -1 I I #
vertex $-1 $371 $555 #
straight-curve $-1 71.296121097445592 0 17.519325825327407 0 1 0 I I #
edge $-1 $373 -17.519325825327407 $457 17.519325825327407 $454 $556 forward 7 unknown #
point $-1 71.296121097445592 -38.522577763659633 17.519325825327407 #
face $-1 $557 $390 $17 $-1 $558 reversed single #
loop $-1 $-1 $559 $376 #
plane-surface $-1 0 -38.522577763659633 0 0 1 0 0 0 1 forward_v I I I I #
coedge $-1 $560 $561 $562 $563 forward $377 $-1 #
coedge $-1 $379 $564 $565 $566 forward $297 $-1 #
coedge $-1 $565 $388 $380 $476 forward $390 $-1 #
edge $-1 $567 -45.439562501533345 $478 -41.326474746376597 $475 $568 forward 7 unknown #
edge $-1 $567 1.8873468352005311e-014 $479 6.0309348923924189 $381 $569 forward 7 unknown #
vertex $-1 $476 $570 #
vertex $-1 $384 $571 #
straight-curve $-1 -84.271898794097794 -20.644020285857671 17.519325825327407 1 0 0 I I #
straight-curve $-1 -66.885374585271521 -14.011028687064684 17.519325825327407 0 -1 0 I I #
edge $-1 $386 -21.38906577533638 $567 -6.6329915987929873 $388 $572 forward 7 unknown #
point $-1 -71.296121097445592 -35.400094462401064 13.406238070170657 #
coedge $-1 $389 $573 $559 $574 reversed $390 $-1 #
coedge $-1 $564 $392 $575 $576 forward $297 $-1 #
coedge $-1 $559 $577 $392 $487 reversed $471 $-1 #
edge $-1 $488 -71.296121097445592 $578 71.296121097445592 $486 $579 forward 7 unknown #
vertex $-1 $393 $580 #
straight-curve $-1 -71.296121097445592 0 17.519325825327407 0 -1 0 I I #
face $-1 $581 $582 $18 $-1 $583 forward single #
loop $-1 $584 $403 $397 #
plane-surface $-1 -71.296121097445607 -28.022057374129368 13.406238070170645 -0.68199836817093118 0 0.7313536940579346 0.7313536940579346 0 0.68199836817093118 forward_v I I I I #
coedge $-1 $585 $586 $587 $588 reversed $398 $-1 #
coedge $-1 $494 $494 $-1 $589 forward $400 $-1 #
edge $-1 $590 0 $590 6.2831853071796004 $401 $591 forward 7 unknown #
vertex $-1 $404 $592 #
ellipse-curve $-1 -69.090747841358549 -28.022057374129364 15.462781947749031 0.68199836817093118 0 -0.7313536940579346 1.0970305410869019 0 1.0229975522563968 1 I I #
coedge $-1 $405 $587 $593 $594 forward $145 $-1 #
coedge $-1 $595 $596 $405 $500 reversed $597 $-1 #
edge $-1 $598 -71.296121097445592 $502 71.296121097445592 $499 $599 forward 7 unknown #
coedge $-1 $412 $406 $596 $600 forward $242 $-1 #
vertex $-1 $407 $601 #
coedge $-1 $602 $603 $412 $504 forward $604 $-1 #
edge $-1 $506 -38.522577763659633 $605 38.522577763659633 $412 $606 forward 7 unknown #
coedge $-1 $419 $413 $603 $607 reversed $420 $-1 #
vertex $-1 $504 $608 #
straight-curve $-1 71.296121097445592 38.522577763659633 0 0 0 -1 I I #
coedge $-1 $587 $416 $609 $610 forward $145 $-1 #
coedge $-1 $611 $612 $416 $510 reversed $582 $-1 #
edge $-1 $514 12.975777696652202 $613 17.386524208826273 $416 $614 forward 7 unknown #
coedge $-1 $615 $417 $419 $516 forward $513 $-1 #
coedge $-1 $417 $616 $611 $617 forward $513 $-1 #
loop $-1 $-1 $512 $618 #
vertex $-1 $617 $619 #
straight-curve $-1 -71.296121097445592 0 17.519325825327407 0 -1 0 I I #
edge $-1 $421 -17.519325825327407 $620 17.519325825327407 $419 $621 forward 7 unknown #
face $-1 $328 $420 $18 $-1 $622 reversed single #
point $-1 -71.296121097445592 38.522577763659633 17.519325825327407 #
face $-1 $623 $624 $19 $-1 $625 forward single #
loop $-1 $626 $627 $424 #
cone-surface $-1 -67.188444446012284 -28.022057374129364 13.422811354950266 0.68199836817093118 0 -0.7313536940579346 0.54851527054345095 0 0.51149877612819838 1 I I -0.70710678118654757 0.70710678118654757 0.75 forward I I I I #
loop $-1 $-1 $628 $334 #
coedge $-1 $523 $523 $629 $630 reversed $425 $-1 #
coedge $-1 $427 $631 $632 $633 forward $335 $-1 #
coedge $-1 $632 $436 $428 $526 forward $438 $-1 #
edge $-1 $634 -93.576748562517579 $528 -89.792447078987522 $525 $635 forward 7 unknown #
edge $-1 $634 -142.59224219489118 $529 -136.70491428130146 $429 $636 forward 7 unknown #
vertex $-1 $526 $637 #
vertex $-1 $432 $638 #
straight-curve $-1 26.860327462155723 20.461503838109795 17.5193258253274 -1 0 0 I I #
straight-curve $-1 66.786166303449875 13.109981603557312 17.519325825327414 0 1 0 I I #
edge $-1 $434 -18.868440972562141 $634 -7.3515222345524833 $436 $639 forward 7 unknown #
point $-1 71.296121097445592 31.978422576119453 13.735024341797356 #
coedge $-1 $437 $640 $641 $642 reversed $438 $-1 #
face $-1 $-1 $438 $19 $-1 $643 reversed single #
coedge $-1 $644 $440 $645 $646 forward $335 $-1 #
coedge $-1 $641 $647 $440 $538 reversed $648 $-1 #
edge $-1 $539 -71.296121097445592 $649 71.296121097445592 $537 $650 forward 7 unknown #
vertex $-1 $441 $651 #
straight-curve $-1 71.296121097445592 0 17.519325825327407 0 1 0 I I #
plane-surface $-1 71.296121097445592 0 0 -1 0 0 0 0 1 forward_v I I I I #
coedge $-1 $451 $459 $453 $547 forward $446 $-1 #
straight-curve $-1 0 -38.522577763659633 -17.519325825327407 -1 0 0 I I #
coedge $-1 $459 $451 $461 $551 reversed $446 $-1 #
vertex $-1 $452 $652 #
straight-curve $-1 0 38.522577763659633 -17.519325825327407 1 0 0 I I #
edge $-1 $466 -17.519325825327407 $456 17.519325825327407 $453 $653 forward 7 unknown #
point $-1 71.296121097445592 38.522577763659633 -17.519325825327407 #
point $-1 71.296121097445592 -38.522577763659633 -17.519325825327407 #
straight-curve $-1 0 38.522577763659633 17.519325825327407 -1 0 0 I I #
edge $-1 $462 -17.519325825327407 $545 17.519325825327407 $544 $654 forward 7 unknown #
point $-1 -71.296121097445592 38.522577763659633 17.519325825327407 #
straight-curve $-1 -71.296121097445592 0 -17.519325825327407 0 1 0 I I #
point $-1 -71.296121097445592 -38.522577763659633 -17.519325825327407 #
point $-1 71.296121097445592 38.522577763659633 17.519325825327407 #
straight-curve $-1 71.296121097445592 -38.522577763659633 0 0 0 -1 I I #
face $-1 $655 $656 $17 $-1 $657 reversed single #
plane-surface $-1 -71.296121097445592 0 0 1 0 0 0 0 -1 forward_v I I I I #
coedge $-1 $658 $486 $484 $574 forward $471 $-1 #
coedge $-1 $659 $473 $658 $660 forward $377 $-1 #
coedge $-1 $473 $659 $661 $662 forward $377 $-1 #
coedge $-1 $663 $664 $473 $563 reversed $665 $-1 #
edge $-1 $666 -38.522577763659633 $667 38.522577763659633 $562 $668 forward 7 unknown #
coedge $-1 $474 $485 $669 $670 forward $297 $-1 #
coedge $-1 $671 $475 $474 $566 reversed $390 $-1 #
edge $-1 $672 -38.522577763659633 $478 20.644020285857671 $565 $489 forward 7 unknown #
vertex $-1 $482 $673 #
straight-curve $-1 -71.296121097445592 -20.644020285857671 58.845800571704004 0 0 1 I I #
straight-curve $-1 -71.296121097445607 -20.644020285857671 13.406238070170645 0.7313536940579346 0 0.68199836817093118 I I #
point $-1 -71.296121097445592 -20.644020285857671 17.519325825327407 #
point $-1 -66.885374585271521 -20.644020285857671 17.519325825327407 #
straight-curve $-1 -71.296121097445592 -14.011028687064684 13.406238070170652 0 1 0 I I #
coedge $-1 $484 $671 $659 $674 reversed $390 $-1 #
edge $-1 $488 -17.519325825327407 $675 17.519325825327407 $484 $676 forward 7 unknown #
coedge $-1 $664 $663 $485 $576 reversed $665 $-1 #
edge $-1 $578 -38.522577763659633 $677 38.522577763659633 $575 $678 forward 7 unknown #
coedge $-1 $486 $658 $664 $679 reversed $471 $-1 #
vertex $-1 $576 $680 #
straight-curve $-1 0 -38.522577763659633 17.519325825327407 1 0 0 I I #
point $-1 -71.296121097445592 -38.522577763659633 17.519325825327407 #
face $-1 $681 $604 $18 $-1 $682 reversed single #
loop $-1 $-1 $509 $490 #
plane-surface $-1 -168.54379758819559 -20.644020285857671 117.69160114340801 0 -1 0 0.68199836817093118 0 -0.7313536940579346 forward_v I I I I #
loop $-1 $-1 $609 $397 #
coedge $-1 $586 $493 $683 $684 forward $398 $-1 #
coedge $-1 $493 $585 $685 $686 reversed $398 $-1 #
coedge $-1 $498 $508 $493 $588 forward $145 $-1 #
edge $-1 $687 -17.386524208826273 $688 -12.975777696652202 $587 $689 forward 7 unknown #
edge $-1 $690 1 $690 0 $494 $-1 forward 7 unknown #
vertex $-1 $495 $691 #
ellipse-curve $-1 -67.699943222140476 -28.022057374129364 13.971326625493717 -0.68199836817093118 0 0.7313536940579346 1.0970305410869019 0 1.0229975522563968 1 I I #
point $-1 -67.993717300271626 -28.022057374129364 16.48577950000541 #
coedge $-1 $685 $692 $498 $594 reversed $513 $-1 #
edge $-1 $688 35.400094462401064 $598 38.522577763659633 $593 $515 forward 7 unknown #
coedge $-1 $693 $499 $692 $694 forward $597 $-1 #
coedge $-1 $499 $693 $501 $600 reversed $597 $-1 #
loop $-1 $-1 $595 $681 #
vertex $-1 $594 $695 #
straight-curve $-1 0 -38.522577763659633 17.519325825327407 1 0 0 I I #
edge $-1 $502 -17.519325825327407 $605 17.519325825327407 $501 $696 forward 7 unknown #
point $-1 71.296121097445592 -38.522577763659633 17.519325825327407 #
coedge $-1 $697 $503 $693 $698 forward $604 $-1 #
coedge $-1 $503 $697 $505 $607 forward $604 $-1 #
loop $-1 $-1 $503 $581 #
vertex $-1 $600 $699 #
straight-curve $-1 71.296121097445592 0 -17.519325825327407 0 -1 0 I I #
edge $-1 $620 -71.296121097445592 $506 71.296121097445592 $505 $700 forward 7 unknown #
point $-1 71.296121097445592 38.522577763659633 -17.519325825327407 #
coedge $-1 $701 $683 $508 $610 reversed $584 $-1 #
edge $-1 $613 6.6329915987929873 $687 21.38906577533638 $508 $702 forward 7 unknown #
coedge $-1 $612 $509 $512 $617 reversed $582 $-1 #
coedge $-1 $509 $611 $701 $703 forward $582 $-1 #
vertex $-1 $610 $704 #
straight-curve $-1 -84.271898794097794 -20.644020285857671 17.519325825327407 1 0 0 I I #
coedge $-1 $692 $511 $697 $705 reversed $513 $-1 #
coedge $-1 $512 $685 $706 $707 forward $513 $-1 #
edge $-1 $708 -45.439562501533345 $514 -41.326474746376597 $512 $709 forward 7 unknown #
face $-1 $517 $513 $18 $-1 $710 reversed single #
point $-1 -71.296121097445592 -20.644020285857671 17.519325825327407 #
vertex $-1 $607 $711 #
straight-curve $-1 -71.296121097445592 38.522577763659633 0 0 0 -1 I I #
plane-surface $-1 0 38.522577763659633 0 0 -1 0 0 0 -1 forward_v I I I I #
face $-1 $712 $713 $19 $-1 $714 forward single #
loop $-1 $-1 $715 $519 #
plane-surface $-1 -168.54379758819559 -35.400094462401064 117.69160114340801 0 1 0 -0.68199836817093118 0 0.7313536940579346 forward_v I I I I #
loop $-1 $-1 $716 $424 #
coedge $-1 $627 $627 $628 $717 forward $520 $-1 #
coedge $-1 $628 $628 $627 $717 reversed $522 $-1 #
coedge $-1 $629 $629 $523 $630 forward $713 $-1 #
edge $-1 $718 0 $718 6.2831853071796004 $629 $719 forward 7 unknown #
coedge $-1 $524 $720 $721 $722 forward $335 $-1 #
coedge $-1 $723 $525 $524 $633 reversed $438 $-1 #
edge $-1 $724 -38.522577763659633 $528 20.461503838109795 $632 $540 forward 7 unknown #
vertex $-1 $532 $725 #
straight-curve $-1 71.296121097445592 20.461503838109795 107.31177290431494 0 0 1 I I #
straight-curve $-1 -37.935872722537738 20.461503838109795 105.39155198864654 -0.76604443648966558 0 0.64278761758704617 I I #
point $-1 71.296121097445592 20.461503838109795 17.519325825327407 #
point $-1 66.786166303449889 20.461503838109795 17.5193258253274 #
straight-curve $-1 71.296121097445578 13.109981603557312 13.73502434179737 0 -1 0 I I #
coedge $-1 $534 $723 $726 $727 reversed $438 $-1 #
coedge $-1 $728 $537 $534 $642 forward $648 $-1 #
edge $-1 $539 -17.519325825327407 $729 17.519325825327407 $534 $730 forward 7 unknown #
plane-surface $-1 71.296121097445592 0 0 -1 0 0 0 0 1 forward_v I I I I #
coedge $-1 $731 $536 $732 $733 forward $335 $-1 #
coedge $-1 $734 $735 $536 $646 reversed $736 $-1 #
edge $-1 $649 -38.522577763659633 $737 20.644020285857671 $645 $738 forward 7 unknown #
coedge $-1 $537 $728 $734 $739 reversed $648 $-1 #
loop $-1 $-1 $641 $740 #
vertex $-1 $538 $741 #
straight-curve $-1 0 38.522577763659633 17.519325825327407 -1 0 0 I I #
point $-1 71.296121097445592 38.522577763659633 17.519325825327407 #
point $-1 -71.296121097445592 38.522577763659633 -17.519325825327407 #
straight-curve $-1 71.296121097445592 38.522577763659633 0 0 0 -1 I I #
straight-curve $-1 -71.296121097445592 38.522577763659633 0 0 0 -1 I I #
face $-1 $-1 $665 $17 $-1 $742 reversed single #
loop $-1 $-1 $743 $557 #
plane-surface $-1 0 38.522577763659633 0 0 -1 0 0 0 -1 forward_v I I I I #
coedge $-1 $577 $559 $560 $660 reversed $471 $-1 #
coedge $-1 $561 $560 $573 $674 forward $377 $-1 #
edge $-1 $667 -71.296121097445592 $675 71.296121097445592 $658 $744 forward 7 unknown #
coedge $-1 $745 $743 $561 $662 reversed $656 $-1 #
edge $-1 $746 -71.296121097445592 $666 71.296121097445592 $661 $747 forward 7 unknown #
coedge $-1 $575 $562 $743 $748 reversed $665 $-1 #
coedge $-1 $562 $575 $577 $679 forward $665 $-1 #
loop $-1 $-1 $664 $655 #
vertex $-1 $563 $749 #
vertex $-1 $679 $750 #
straight-curve $-1 71.296121097445592 0 -17.519325825327407 0 -1 0 I I #
coedge $-1 $743 $745 $564 $670 reversed $656 $-1 #
edge $-1 $677 -71.296121097445592 $672 71.296121097445592 $669 $751 forward 7 unknown #
coedge $-1 $573 $565 $745 $752 forward $390 $-1 #
vertex $-1 $670 $753 #
point $-1 -71.296121097445592 -20.644020285857671 13.406238070170657 #
edge $-1 $675 -38.522577763659633 $746 38.522577763659633 $573 $754 forward 7 unknown #
vertex $-1 $674 $755 #
straight-curve $-1 -71.296121097445592 -38.522577763659633 0 0 0 -1 I I #
vertex $-1 $576 $756 #
straight-curve $-1 71.296121097445592 0 17.519325825327407 0 1 0 I I #
edge $-1 $578 -17.519325825327407 $667 17.519325825327407 $664 $757 forward 7 unknown #
point $-1 71.296121097445592 -38.522577763659633 17.519325825327407 #
face $-1 $618 $597 $18 $-1 $758 reversed single #
plane-surface $-1 0 0 -17.519325825327407 0 0 1 1 0 0 forward_v I I I I #
coedge $-1 $609 $706 $585 $684 reversed $584 $-1 #
edge $-1 $687 -6.0309348923924189 $759 -1.8873468352005311e-014 $585 $760 forward 7 unknown #
coedge $-1 $616 $593 $586 $686 forward $513 $-1 #
edge $-1 $688 41.326474746376597 $759 45.439562501533345 $685 $761 forward 7 unknown #
vertex $-1 $610 $762 #
vertex $-1 $594 $763 #
straight-curve $-1 -84.271898794097794 -35.400094462401064 17.519325825327407 -1 0 0 I I #
vertex $-1 $589 $764 #
point $-1 -66.602912681053581 -28.022057374129364 14.994324177750114 #
coedge $-1 $593 $615 $595 $694 reversed $513 $-1 #
coedge $-1 $596 $595 $602 $698 reversed $597 $-1 #
edge $-1 $598 -17.519325825327407 $765 17.519325825327407 $692 $766 forward 7 unknown #
point $-1 -71.296121097445592 -38.522577763659633 17.519325825327407 #
straight-curve $-1 71.296121097445592 -38.522577763659633 0 0 0 -1 I I #
coedge $-1 $603 $602 $615 $705 forward $604 $-1 #
edge $-1 $605 -71.296121097445592 $765 71.296121097445592 $693 $767 forward 7 unknown #
point $-1 71.296121097445592 -38.522577763659633 -17.519325825327407 #
straight-curve $-1 0 38.522577763659633 -17.519325825327407 1 0 0 I I #
coedge $-1 $706 $609 $612 $703 reversed $584 $-1 #
straight-curve $-1 -66.885374585271521 -14.011028687064684 17.519325825327407 0 -1 0 I I #
edge $-1 $708 1.8873468352005311e-014 $613 6.0309348923924189 $612 $768 forward 7 unknown #
point $-1 -66.885374585271521 -20.644020285857671 17.519325825327407 #
edge $-1 $765 -38.522577763659633 $620 38.522577763659633 $615 $769 forward 7 unknown #
coedge $-1 $683 $701 $616 $707 reversed $584 $-1 #
edge $-1 $759 -21.38906577533638 $708 -6.6329915987929873 $616 $770 forward 7 unknown #
vertex $-1 $707 $771 #
straight-curve $-1 -71.296121097445592 -20.644020285857671 58.845800571704004 0 0 1 I I #
plane-surface $-1 -71.296121097445592 0 0 1 0 0 0 0 -1 forward_v I I I I #
point $-1 -71.296121097445592 38.522577763659633 -17.519325825327407 #
face $-1 $772 $773 $19 $-1 $774 forward single #
loop $-1 $775 $629 $623 #
plane-surface $-1 -71.296121097445607 -28.022057374129368 13.406238070170645 -0.68199836817093118 0 0.7313536940579346 0.7313536940579346 0 0.68199836817093118 forward_v I I I I #
coedge $-1 $776 $777 $778 $779 reversed $624 $-1 #
coedge $-1 $716 $716 $-1 $780 forward $626 $-1 #
edge $-1 $781 0 $781 6.2831853071796004 $627 $782 forward 7 unknown #
vertex $-1 $630 $783 #
ellipse-curve $-1 -69.090747841358549 -28.022057374129364 15.462781947749031 0.68199836817093118 0 -0.7313536940579346 1.0970305410869019 0 1.0229975522563968 1 I I #
coedge $-1 $631 $778 $784 $785 forward $335 $-1 #
coedge $-1 $786 $787 $631 $722 reversed $788 $-1 #
edge $-1 $789 -71.296121097445592 $724 71.296121097445592 $721 $790 forward 7 unknown #
coedge $-1 $640 $632 $787 $791 forward $438 $-1 #
vertex $-1 $633 $792 #
point $-1 71.296121097445592 20.461503838109795 13.735024341797356 #
coedge $-1 $793 $794 $640 $727 forward $795 $-1 #
edge $-1 $729 -38.522577763659633 $796 38.522577763659633 $640 $797 forward 7 unknown #
coedge $-1 $647 $641 $794 $798 reversed $648 $-1 #
vertex $-1 $727 $799 #
straight-curve $-1 71.296121097445592 38.522577763659633 0 0 0 -1 I I #
coedge $-1 $778 $644 $800 $801 forward $335 $-1 #
coedge $-1 $802 $803 $644 $733 reversed $773 $-1 #
edge $-1 $737 12.975777696652202 $804 17.386524208826273 $644 $805 forward 7 unknown #
coedge $-1 $806 $645 $647 $739 forward $736 $-1 #
coedge $-1 $645 $807 $802 $808 forward $736 $-1 #
loop $-1 $-1 $735 $809 #
vertex $-1 $808 $810 #
straight-curve $-1 -71.296121097445592 0 17.519325825327407 0 -1 0 I I #
edge $-1 $649 -17.519325825327407 $811 17.519325825327407 $647 $812 forward 7 unknown #
face $-1 $535 $648 $19 $-1 $813 reversed single #
point $-1 -71.296121097445592 38.522577763659633 17.519325825327407 #
plane-surface $-1 71.296121097445592 0 0 -1 0 0 0 0 1 forward_v I I I I #
coedge $-1 $661 $669 $663 $748 forward $656 $-1 #
straight-curve $-1 0 -38.522577763659633 -17.519325825327407 -1 0 0 I I #
coedge $-1 $669 $661 $671 $752 reversed $656 $-1 #
vertex $-1 $662 $814 #
straight-curve $-1 0 38.522577763659633 -17.519325825327407 1 0 0 I I #
edge $-1 $677 -17.519325825327407 $666 17.519325825327407 $663 $815 forward 7 unknown #
point $-1 71.296121097445592 38.522577763659633 -17.519325825327407 #
point $-1 71.296121097445592 -38.522577763659633 -17.519325825327407 #
straight-curve $-1 0 38.522577763659633 17.519325825327407 -1 0 0 I I #
edge $-1 $672 -17.519325825327407 $746 17.519325825327407 $745 $816 forward 7 unknown #
point $-1 -71.296121097445592 38.522577763659633 17.519325825327407 #
straight-curve $-1 -71.296121097445592 0 -17.519325825327407 0 1 0 I I #
point $-1 -71.296121097445592 -38.522577763659633 -17.519325825327407 #
point $-1 71.296121097445592 38.522577763659633 17.519325825327407 #
straight-curve $-1 71.296121097445592 -38.522577763659633 0 0 0 -1 I I #
plane-surface $-1 0 -38.522577763659633 0 0 1 0 0 0 1 forward_v I I I I #
vertex $-1 $707 $817 #
straight-curve $-1 -71.296121097445607 -35.400094462401064 13.406238070170645 -0.7313536940579346 0 -0.68199836817093118 I I #
straight-curve $-1 -71.296121097445592 -35.400094462401064 58.845800571704004 0 0 -1 I I #
point $-1 -66.885374585271521 -35.400094462401064 17.519325825327407 #
point $-1 -71.296121097445592 -35.400094462401064 17.519325825327407 #
point $-1 -66.676945669884091 -28.022057374129364 12.874296084406815 #
vertex $-1 $705 $818 #
straight-curve $-1 -71.296121097445592 -38.522577763659633 0 0 0 -1 I I #
straight-curve $-1 0 -38.522577763659633 -17.519325825327407 -1 0 0 I I #
straight-curve $-1 -71.296121097445607 -20.644020285857671 13.406238070170645 0.7313536940579346 0 0.68199836817093118 I I #
straight-curve $-1 -71.296121097445592 0 -17.519325825327407 0 1 0 I I #
straight-curve $-1 -71.296121097445592 -14.011028687064684 13.406238070170652 0 1 0 I I #
point $-1 -71.296121097445592 -20.644020285857671 13.406238070170657 #
face $-1 $819 $795 $19 $-1 $820 reversed single #
loop $-1 $-1 $732 $712 #
plane-surface $-1 -168.54379758819559 -20.644020285857671 117.69160114340801 0 -1 0 0.68199836817093118 0 -0.7313536940579346 forward_v I I I I #
loop $-1 $-1 $800 $623 #
coedge $-1 $777 $715 $821 $822 forward $624 $-1 #
coedge $-1 $715 $776 $823 $824 reversed $624 $-1 #
coedge $-1 $720 $731 $715 $779 forward $335 $-1 #
edge $-1 $825 -17.386524208826273 $826 -12.975777696652202 $778 $827 forward 7 unknown #
edge $-1 $828 1 $828 0 $716 $-1 forward 7 unknown #
vertex $-1 $717 $829 #
ellipse-curve $-1 -67.699943222140476 -28.022057374129364 13.971326625493717 -0.68199836817093118 0 0.7313536940579346 1.0970305410869019 0 1.0229975522563968 1 I I #
point $-1 -67.993717300271626 -28.022057374129364 16.48577950000541 #
coedge $-1 $823 $830 $720 $785 reversed $736 $-1 #
edge $-1 $826 35.400094462401064 $789 38.522577763659633 $784 $738 forward 7 unknown #
coedge $-1 $831 $721 $830 $832 forward $788 $-1 #
coedge $-1 $721 $831 $723 $791 reversed $788 $-1 #
loop $-1 $-1 $786 $819 #
vertex $-1 $785 $833 #
straight-curve $-1 0 -38.522577763659633 17.519325825327407 1 0 0 I I #
edge $-1 $724 -17.519325825327407 $796 17.519325825327407 $723 $834 forward 7 unknown #
point $-1 71.296121097445592 -38.522577763659633 17.519325825327407 #
coedge $-1 $835 $726 $831 $836 forward $795 $-1 #
coedge $-1 $726 $835 $728 $798 forward $795 $-1 #
loop $-1 $-1 $726 $772 #
vertex $-1 $791 $837 #
straight-curve $-1 71.296121097445592 0 -17.519325825327407 0 -1 0 I I #
edge $-1 $811 -71.296121097445592 $729 71.296121097445592 $728 $838 forward 7 unknown #
point $-1 71.296121097445592 38.522577763659633 -17.519325825327407 #
coedge $-1 $839 $821 $731 $801 reversed $775 $-1 #
edge $-1 $804 6.6329915987929873 $825 21.38906577533638 $731 $840 forward 7 unknown #
coedge $-1 $803 $732 $735 $808 reversed $773 $-1 #
coedge $-1 $732 $802 $839 $841 forward $773 $-1 #
vertex $-1 $801 $842 #
straight-curve $-1 -84.271898794097794 -20.644020285857671 17.519325825327407 1 0 0 I I #
coedge $-1 $830 $734 $835 $843 reversed $736 $-1 #
coedge $-1 $735 $823 $844 $845 forward $736 $-1 #
edge $-1 $846 -45.439562501533345 $737 -41.326474746376597 $735 $847 forward 7 unknown #
face $-1 $740 $736 $19 $-1 $848 reversed single #
point $-1 -71.296121097445592 -20.644020285857671 17.519325825327407 #
vertex $-1 $798 $849 #
straight-curve $-1 -71.296121097445592 38.522577763659633 0 0 0 -1 I I #
plane-surface $-1 0 38.522577763659633 0 0 -1 0 0 0 -1 forward_v I I I I #
point $-1 -71.296121097445592 38.522577763659633 -17.519325825327407 #
straight-curve $-1 71.296121097445592 38.522577763659633 0 0 0 -1 I I #
straight-curve $-1 -71.296121097445592 38.522577763659633 0 0 0 -1 I I #
point $-1 -71.296121097445592 -35.400094462401064 13.406238070170657 #
point $-1 -71.296121097445592 -38.522577763659633 -17.519325825327407 #
face $-1 $809 $788 $19 $-1 $850 reversed single #
plane-surface $-1 0 0 -17.519325825327407 0 0 1 1 0 0 forward_v I I I I #
coedge $-1 $800 $844 $776 $822 reversed $775 $-1 #
edge $-1 $825 -6.0309348923924189 $851 -1.8873468352005311e-014 $776 $852 forward 7 unknown #
coedge $-1 $807 $784 $777 $824 forward $736 $-1 #
edge $-1 $826 41.326474746376597 $851 45.439562501533345 $823 $853 forward 7 unknown #
vertex $-1 $801 $854 #
vertex $-1 $785 $855 #
straight-curve $-1 -84.271898794097794 -35.400094462401064 17.519325825327407 -1 0 0 I I #
vertex $-1 $780 $856 #
point $-1 -66.602912681053581 -28.022057374129364 14.994324177750114 #
coedge $-1 $784 $806 $786 $832 reversed $736 $-1 #
coedge $-1 $787 $786 $793 $836 reversed $788 $-1 #
edge $-1 $789 -17.519325825327407 $857 17.519325825327407 $830 $858 forward 7 unknown #
point $-1 -71.296121097445592 -38.522577763659633 17.519325825327407 #
straight-curve $-1 71.296121097445592 -38.522577763659633 0 0 0 -1 I I #
coedge $-1 $794 $793 $806 $843 forward $795 $-1 #
edge $-1 $796 -71.296121097445592 $857 71.296121097445592 $831 $859 forward 7 unknown #
point $-1 71.296121097445592 -38.522577763659633 -17.519325825327407 #
straight-curve $-1 0 38.522577763659633 -17.519325825327407 1 0 0 I I #
coedge $-1 $844 $800 $803 $841 reversed $775 $-1 #
straight-curve $-1 -66.885374585271521 -14.011028687064684 17.519325825327407 0 -1 0 I I #
edge $-1 $846 1.8873468352005311e-014 $804 6.0309348923924189 $803 $860 forward 7 unknown #
point $-1 -66.885374585271521 -20.644020285857671 17.519325825327407 #
edge $-1 $857 -38.522577763659633 $811 38.522577763659633 $806 $861 forward 7 unknown #
coedge $-1 $821 $839 $807 $845 reversed $775 $-1 #
edge $-1 $851 -21.38906577533638 $846 -6.6329915987929873 $807 $862 forward 7 unknown #
vertex $-1 $845 $863 #
straight-curve $-1 -71.296121097445592 -20.644020285857671 58.845800571704004 0 0 1 I I #
plane-surface $-1 -71.296121097445592 0 0 1 0 0 0 0 -1 forward_v I I I I #
point $-1 -71.296121097445592 38.522577763659633 -17.519325825327407 #
plane-surface $-1 0 -38.522577763659633 0 0 1 0 0 0 1 forward_v I I I I #
vertex $-1 $845 $864 #
straight-curve $-1 -71.296121097445607 -35.400094462401064 13.406238070170645 -0.7313536940579346 0 -0.68199836817093118 I I #
straight-curve $-1 -71.296121097445592 -35.400094462401064 58.845800571704004 0 0 -1 I I #
point $-1 -66.885374585271521 -35.400094462401064 17.519325825327407 #
point $-1 -71.296121097445592 -35.400094462401064 17.519325825327407 #
point $-1 -66.676945669884091 -28.022057374129364 12.874296084406815 #
vertex $-1 $843 $865 #
straight-curve $-1 -71.296121097445592 -38.522577763659633 0 0 0 -1 I I #
straight-curve $-1 0 -38.522577763659633 -17.519325825327407 -1 0 0 I I #
straight-curve $-1 -71.296121097445607 -20.644020285857671 13.406238070170645 0.7313536940579346 0 0.68199836817093118 I I #
straight-curve $-1 -71.296121097445592 0 -17.519325825327407 0 1 0 I I #
straight-curve $-1 -71.296121097445592 -14.011028687064684 13.406238070170652 0 1 0 I I #
point $-1 -71.296121097445592 -20.644020285857671 13.406238070170657 #
point $-1 -71.296121097445592 -35.400094462401064 13.406238070170657 #
point $-1 -71.296121097445592 -38.522577763659633 -17.519325825327407 #
End-of-ACIS-data 