500 0 7 0           
7 Unknown 11 ACIS 5.0 NT 24 Fri Mar 26 00:56:22 1999 
-1 9.9999999999999995e-007 1e-010 
body $-1 $7 $-1 $8 #
body $-1 $9 $-1 $10 #
body $-1 $11 $-1 $12 #
body $-1 $13 $-1 $14 #
body $-1 $15 $-1 $16 #
body $-1 $17 $-1 $18 #
body $-1 $19 $-1 $20 #
lump $-1 $-1 $21 $0 #
transform $-1 1 0 0 0 1 0 0 0 1 52.087771233252965 22.02781624061738 10.13842897695849 1 rotate no_reflect no_shear #
lump $-1 $-1 $22 $1 #
transform $-1 1 0 0 0 1 0 0 0 1 52.087771233252965 22.02781624061738 10.13842897695849 1 rotate no_reflect no_shear #
lump $-1 $-1 $23 $2 #
transform $-1 1 0 0 0 1 0 0 0 1 52.087771233252965 22.02781624061738 10.13842897695849 1 rotate no_reflect no_shear #
lump $-1 $-1 $24 $3 #
transform $-1 1 0 0 0 1 0 0 0 1 52.087771233252965 22.02781624061738 10.13842897695849 1 rotate no_reflect no_shear #
lump $-1 $-1 $25 $4 #
transform $-1 1 0 0 0 1 0 0 0 1 52.087771233252965 22.02781624061738 10.13842897695849 1 rotate no_reflect no_shear #
lump $-1 $-1 $26 $5 #
transform $-1 1 0 0 0 1 0 0 0 1 52.087771233252965 22.02781624061738 10.13842897695849 1 rotate no_reflect no_shear #
lump $-1 $-1 $27 $6 #
transform $-1 1 0 0 0 1 0 0 0 1 52.087771233252965 22.02781624061738 10.13842897695849 1 rotate no_reflect no_shear #
shell $-1 $-1 $-1 $28 $-1 $7 #
shell $-1 $-1 $-1 $29 $-1 $9 #
shell $-1 $-1 $-1 $30 $-1 $11 #
shell $-1 $-1 $-1 $31 $-1 $13 #
shell $-1 $-1 $-1 $32 $-1 $15 #
shell $-1 $-1 $-1 $33 $-1 $17 #
shell $-1 $-1 $-1 $34 $-1 $19 #
face $-1 $35 $36 $21 $-1 $37 forward single #
face $-1 $38 $39 $22 $-1 $40 forward single #
face $-1 $41 $42 $23 $-1 $43 reversed single #
face $-1 $44 $45 $24 $-1 $46 forward single #
face $-1 $47 $48 $25 $-1 $49 forward single #
face $-1 $50 $51 $26 $-1 $52 reversed single #
face $-1 $53 $54 $27 $-1 $55 forward single #
face $-1 $56 $57 $21 $-1 $58 reversed single #
loop $-1 $-1 $59 $28 #
plane-surface $-1 0 0 10.13842897695849 0 0 1 1 0 0 forward_v I I I I #
face $-1 $60 $61 $22 $-1 $62 reversed single #
loop $-1 $-1 $63 $29 #
plane-surface $-1 -45.507907002656864 0 7.8912300084964961 0 0 1 1 0 0 forward_v I I I I #
face $-1 $64 $65 $23 $-1 $66 reversed single #
loop $-1 $-1 $67 $30 #
plane-surface $-1 17.028029128876774 69.966360758096897 108.56388704598437 1 0 0 0 -0.74314483375859142 -0.66913059716165679 forward_v I I I I #
face $-1 $68 $69 $24 $-1 $70 forward single #
loop $-1 $71 $72 $31 #
cone-surface $-1 21.10302531557231 18.925788610313891 6.9647898229027563 0 -0.74314483375859142 -0.66913059716165679 1 0 0 1 I I 0 1 1 forward I I I I #
face $-1 $73 $74 $25 $-1 $75 forward single #
loop $-1 $76 $77 $32 #
cone-surface $-1 27.215519595615618 18.925788610313891 6.9647898229027563 0 -0.74314483375859142 -0.66913059716165679 1 0 0 1 I I 0 1 1 forward I I I I #
face $-1 $78 $79 $26 $-1 $80 reversed single #
loop $-1 $-1 $81 $33 #
plane-surface $-1 -24.823883136611023 -90.373122306885548 80.119809057763177 -1 0 0 0 -0.6560590369687036 0.75470957328743171 forward_v I I I I #
face $-1 $82 $83 $27 $-1 $84 forward single #
loop $-1 $85 $86 $34 #
cone-surface $-1 -31.875962954335893 -15.734006898789158 4.2952359042280488 0 0.6560590369687036 -0.75470957328743171 1.5 0 0 1 I I 0 1 1.5 forward I I I I #
face $-1 $87 $88 $21 $-1 $89 reversed single #
loop $-1 $-1 $90 $35 #
plane-surface $-1 0 0 -10.13842897695849 0 0 1 1 0 0 forward_v I I I I #
coedge $-1 $91 $92 $93 $94 forward $36 $-1 #
face $-1 $95 $96 $22 $-1 $97 reversed single #
loop $-1 $-1 $98 $38 #
plane-surface $-1 -45.507907002656864 0 4.8912300084964961 0 0 1 1 0 0 forward_v I I I I #
coedge $-1 $99 $100 $101 $102 forward $39 $-1 #
face $-1 $103 $104 $23 $-1 $105 reversed single #
loop $-1 $-1 $106 $41 #
plane-surface $-1 24.159272455593964 -7.4511554298857305 38.856844105731724 0 0.74314483375859142 0.66913059716165679 1 0 0 forward_v I I I I #
coedge $-1 $107 $108 $109 $110 reversed $42 $-1 #
face $-1 $-1 $111 $24 $-1 $112 forward single #
loop $-1 $113 $114 $44 #
cone-surface $-1 21.10302531557231 17.262586156281802 5.4672356440779772 0 -0.74314483375859142 -0.66913059716165679 0.5 0 0 1 I I -0.70710678118654746 0.70710678118654746 0.5 forward I I I I #
loop $-1 $-1 $115 $31 #
coedge $-1 $72 $72 $116 $117 reversed $45 $-1 #
face $-1 $-1 $118 $25 $-1 $119 forward single #
loop $-1 $120 $121 $47 #
cone-surface $-1 27.215519595615618 17.262586156281802 5.4672356440779772 0 -0.74314483375859142 -0.66913059716165679 0.5 0 0 1 I I -0.70710678118654746 0.70710678118654746 0.5 forward I I I I #
loop $-1 $-1 $122 $32 #
coedge $-1 $77 $77 $123 $124 reversed $48 $-1 #
face $-1 $125 $126 $26 $-1 $127 forward single #
loop $-1 $-1 $128 $50 #
plane-surface $-1 -31.875962954335893 -22.027816240617383 1.4975298558797618 0 -0.6560590369687036 0.75470957328743171 1 0 0 forward_v I I I I #
coedge $-1 $129 $130 $131 $132 reversed $51 $-1 #
face $-1 $-1 $133 $27 $-1 $134 forward single #
loop $-1 $135 $136 $53 #
cone-surface $-1 -31.875962954335893 -13.918261852557933 2.2064602120713879 0 0.6560590369687036 -0.75470957328743171 0.75 0 0 1 I I -0.70710678118654757 0.70710678118654757 0.75 forward I I I I #
loop $-1 $-1 $137 $34 #
coedge $-1 $86 $86 $138 $139 reversed $54 $-1 #
face $-1 $140 $141 $21 $-1 $142 reversed single #
loop $-1 $-1 $143 $56 #
plane-surface $-1 0 -22.02781624061738 0 0 1 0 0 0 1 forward_v I I I I #
coedge $-1 $144 $145 $146 $147 forward $57 $-1 #
coedge $-1 $148 $59 $149 $150 forward $36 $-1 #
coedge $-1 $59 $148 $151 $152 forward $36 $-1 #
coedge $-1 $153 $154 $59 $94 reversed $155 $-1 #
edge $-1 $156 -22.02781624061738 $157 22.02781624061738 $93 $158 forward 7 unknown #
face $-1 $159 $160 $22 $-1 $161 reversed single #
loop $-1 $-1 $162 $60 #
plane-surface $-1 -38.928042772060763 0 6.3912300084964961 -1 0 0 0 0 1 forward_v I I I I #
coedge $-1 $163 $164 $162 $165 forward $61 $-1 #
coedge $-1 $166 $63 $167 $168 reversed $39 $-1 #
coedge $-1 $63 $166 $169 $170 reversed $39 $-1 #
coedge $-1 $171 $172 $63 $102 reversed $96 $-1 #
edge $-1 $173 -22.02781624061738 $174 22.02781624061738 $101 $175 forward 7 unknown #
face $-1 $176 $177 $23 $-1 $178 forward single #
loop $-1 $-1 $179 $64 #
plane-surface $-1 31.290515782311154 69.966360758096897 108.56388704598437 -1 0 0 0 0.74314483375859142 0.66913059716165679 forward_v I I I I #
coedge $-1 $180 $181 $182 $183 reversed $65 $-1 #
coedge $-1 $108 $67 $184 $185 reversed $42 $-1 #
coedge $-1 $67 $107 $180 $186 reversed $42 $-1 #
coedge $-1 $182 $187 $67 $110 forward $177 $-1 #
edge $-1 $188 12.955364138431069 $189 16.576159324732476 $109 $190 forward 7 unknown #
loop $-1 $-1 $116 $68 #
plane-surface $-1 24.159272455593964 -7.4511554298857305 38.856844105731724 0 0.74314483375859142 0.66913059716165679 1 0 0 forward_v I I I I #
loop $-1 $-1 $191 $44 #
coedge $-1 $114 $114 $115 $192 reversed $69 $-1 #
coedge $-1 $115 $115 $114 $192 forward $71 $-1 #
coedge $-1 $116 $116 $72 $117 forward $111 $-1 #
edge $-1 $193 -5.2590278156781236e-016 $193 6.2831853071795996 $116 $194 forward 7 unknown #
loop $-1 $-1 $123 $73 #
plane-surface $-1 24.159272455593964 -7.4511554298857305 38.856844105731724 0 0.74314483375859142 0.66913059716165679 1 0 0 forward_v I I I I #
loop $-1 $-1 $195 $47 #
coedge $-1 $121 $121 $122 $196 reversed $74 $-1 #
coedge $-1 $122 $122 $121 $196 forward $76 $-1 #
coedge $-1 $123 $123 $77 $124 forward $118 $-1 #
edge $-1 $197 -5.2590278156781236e-016 $197 6.2831853071795996 $123 $198 forward 7 unknown #
face $-1 $199 $200 $26 $-1 $201 forward single #
loop $-1 $-1 $131 $78 #
plane-surface $-1 0 0 10.13842897695849 0 0 1 1 0 0 forward_v I I I I #
coedge $-1 $202 $203 $204 $205 reversed $79 $-1 #
coedge $-1 $130 $81 $206 $207 reversed $51 $-1 #
coedge $-1 $81 $129 $202 $208 reversed $51 $-1 #
coedge $-1 $204 $209 $81 $132 forward $126 $-1 #
edge $-1 $210 23.158744912825394 $211 33.098962059472463 $131 $212 forward 7 unknown #
loop $-1 $-1 $138 $82 #
plane-surface $-1 -31.875962954335893 -22.027816240617383 1.4975298558797618 0 -0.6560590369687036 0.75470957328743171 1 0 0 forward_v I I I I #
loop $-1 $-1 $213 $53 #
coedge $-1 $136 $136 $137 $214 reversed $83 $-1 #
coedge $-1 $137 $137 $136 $214 forward $85 $-1 #
coedge $-1 $138 $138 $86 $139 forward $133 $-1 #
edge $-1 $215 -7.8837827277501867e-017 $215 6.2831853071796004 $138 $216 forward 7 unknown #
face $-1 $217 $218 $21 $-1 $219 reversed single #
loop $-1 $-1 $220 $87 #
plane-surface $-1 -52.087771233252965 0 0 1 0 0 0 0 -1 forward_v I I I I #
coedge $-1 $221 $151 $222 $223 forward $88 $-1 #
coedge $-1 $224 $90 $221 $225 forward $57 $-1 #
coedge $-1 $90 $224 $226 $227 forward $57 $-1 #
coedge $-1 $154 $153 $90 $147 reversed $155 $-1 #
edge $-1 $228 -22.02781624061738 $229 22.02781624061738 $146 $230 forward 7 unknown #
coedge $-1 $92 $91 $231 $232 forward $36 $-1 #
coedge $-1 $233 $234 $91 $150 reversed $218 $-1 #
edge $-1 $157 -52.087771233252965 $235 52.087771233252965 $149 $236 forward 7 unknown #
coedge $-1 $143 $237 $92 $152 reversed $88 $-1 #
edge $-1 $238 -52.087771233252965 $156 52.087771233252965 $151 $239 forward 7 unknown #
coedge $-1 $146 $93 $237 $240 forward $155 $-1 #
coedge $-1 $93 $146 $233 $241 reversed $155 $-1 #
loop $-1 $-1 $153 $217 #
vertex $-1 $94 $242 #
vertex $-1 $94 $243 #
straight-curve $-1 52.087771233252965 0 10.13842897695849 0 1 0 I I #
face $-1 $244 $245 $22 $-1 $246 reversed single #
loop $-1 $-1 $247 $95 #
plane-surface $-1 0 -22.02781624061738 0 0 1 0 0 0 1 forward_v I I I I #
coedge $-1 $172 $171 $98 $165 reversed $96 $-1 #
coedge $-1 $248 $98 $247 $249 reversed $61 $-1 #
coedge $-1 $98 $248 $250 $251 reversed $61 $-1 #
edge $-1 $252 -22.02781624061738 $253 22.02781624061738 $162 $254 forward 7 unknown #
coedge $-1 $100 $99 $255 $256 reversed $39 $-1 #
coedge $-1 $257 $258 $99 $168 forward $259 $-1 #
edge $-1 $260 -29.333817731924533 $174 -16.174089270732331 $167 $261 forward 7 unknown #
coedge $-1 $262 $263 $100 $170 forward $160 $-1 #
edge $-1 $173 16.174089270732331 $264 29.333817731924533 $169 $265 forward 7 unknown #
coedge $-1 $162 $101 $263 $266 reversed $96 $-1 #
coedge $-1 $101 $162 $257 $267 reversed $96 $-1 #
vertex $-1 $170 $268 #
vertex $-1 $168 $269 #
straight-curve $-1 -38.928042772060763 0 7.8912300084964961 0 1 0 I I #
face $-1 $-1 $270 $23 $-1 $271 reversed single #
loop $-1 $-1 $109 $103 #
plane-surface $-1 0 0 10.13842897695849 0 0 1 1 0 0 forward_v I I I I #
coedge $-1 $272 $273 $274 $275 reversed $104 $-1 #
coedge $-1 $276 $106 $108 $186 forward $65 $-1 #
coedge $-1 $106 $276 $272 $277 forward $65 $-1 #
coedge $-1 $274 $109 $106 $183 forward $177 $-1 #
edge $-1 $189 4.9483929010797922 $278 19.210879554514172 $182 $279 forward 7 unknown #
coedge $-1 $280 $281 $107 $185 forward $270 $-1 #
edge $-1 $282 -48.164815093657282 $188 -44.1435145460337 $184 $283 forward 7 unknown #
edge $-1 $189 38.644438909067802 $282 44.055632481234774 $108 $284 forward 7 unknown #
coedge $-1 $109 $274 $280 $285 forward $177 $-1 #
vertex $-1 $185 $286 #
vertex $-1 $110 $287 #
straight-curve $-1 17.028029128876774 34.983180379048449 10.138428976958487 0 -1 0 I I #
coedge $-1 $191 $191 $-1 $288 reversed $113 $-1 #
edge $-1 $289 0 $289 6.2831853071796004 $114 $290 forward 7 unknown #
vertex $-1 $117 $291 #
ellipse-curve $-1 21.10302531557231 20.217418647466676 8.1277787031466993 0 0.74314483375859142 0.66913059716165679 1 0 0 1 I I #
coedge $-1 $195 $195 $-1 $292 reversed $120 $-1 #
edge $-1 $293 0 $293 6.2831853071796004 $121 $294 forward 7 unknown #
vertex $-1 $124 $295 #
ellipse-curve $-1 27.215519595615618 20.217418647466676 8.1277787031466993 0 0.74314483375859142 0.66913059716165679 1 0 0 1 I I #
face $-1 $-1 $296 $26 $-1 $297 reversed single #
loop $-1 $-1 $298 $125 #
plane-surface $-1 -38.928042772060763 0 6.3912300084964961 -1 0 0 0 0 1 forward_v I I I I #
coedge $-1 $299 $128 $130 $208 forward $79 $-1 #
coedge $-1 $128 $299 $298 $300 forward $79 $-1 #
coedge $-1 $301 $131 $128 $205 forward $126 $-1 #
edge $-1 $211 8.8859016594430766 $302 22.990061294892818 $204 $303 forward 7 unknown #
coedge $-1 $304 $305 $129 $207 forward $296 $-1 #
edge $-1 $306 -38.562374673001827 $210 -29.921475551923098 $206 $307 forward 7 unknown #
edge $-1 $211 -13.170916997049051 $306 -4.72070819993692e-015 $130 $308 forward 7 unknown #
coedge $-1 $131 $301 $304 $309 forward $126 $-1 #
vertex $-1 $132 $310 #
vertex $-1 $132 $311 #
straight-curve $-1 -24.823883136611023 -45.186561153442774 10.138428976958494 0 1 0 I I #
coedge $-1 $213 $213 $-1 $312 reversed $135 $-1 #
edge $-1 $313 0 $313 6.2831853071796004 $136 $314 forward 7 unknown #
vertex $-1 $139 $315 #
ellipse-curve $-1 -31.875962954335893 -17.057707667293847 5.817979416419127 0 -0.6560590369687036 0.75470957328743171 1.5 0 0 1 I I #
face $-1 $-1 $155 $21 $-1 $316 reversed single #
loop $-1 $-1 $233 $140 #
plane-surface $-1 0 22.02781624061738 0 0 -1 0 0 0 -1 forward_v I I I I #
coedge $-1 $317 $231 $234 $318 forward $141 $-1 #
coedge $-1 $237 $143 $144 $225 reversed $88 $-1 #
coedge $-1 $231 $317 $143 $223 reversed $141 $-1 #
edge $-1 $238 -10.13842897695849 $319 10.13842897695849 $222 $320 forward 7 unknown #
coedge $-1 $145 $144 $317 $321 forward $57 $-1 #
edge $-1 $229 -52.087771233252965 $319 52.087771233252965 $221 $322 forward 7 unknown #
coedge $-1 $234 $233 $145 $227 reversed $218 $-1 #
edge $-1 $323 -52.087771233252965 $228 52.087771233252965 $226 $324 forward 7 unknown #
vertex $-1 $147 $325 #
vertex $-1 $240 $326 #
straight-curve $-1 52.087771233252965 0 -10.13842897695849 0 -1 0 I I #
coedge $-1 $220 $222 $148 $232 reversed $141 $-1 #
edge $-1 $235 -22.02781624061738 $238 22.02781624061738 $231 $327 forward 7 unknown #
coedge $-1 $226 $149 $154 $241 forward $218 $-1 #
coedge $-1 $149 $226 $220 $318 reversed $218 $-1 #
vertex $-1 $150 $328 #
straight-curve $-1 0 22.02781624061738 10.13842897695849 -1 0 0 I I #
coedge $-1 $151 $221 $153 $240 reversed $88 $-1 #
vertex $-1 $232 $329 #
straight-curve $-1 0 -22.02781624061738 10.13842897695849 1 0 0 I I #
edge $-1 $156 -10.13842897695849 $229 10.13842897695849 $153 $330 forward 7 unknown #
edge $-1 $157 -10.13842897695849 $228 10.13842897695849 $154 $331 forward 7 unknown #
point $-1 52.087771233252965 -22.02781624061738 10.13842897695849 #
point $-1 52.087771233252965 22.02781624061738 10.13842897695849 #
face $-1 $-1 $259 $22 $-1 $332 reversed single #
loop $-1 $-1 $333 $159 #
plane-surface $-1 -52.087771233252965 0 0 1 0 0 0 0 -1 forward_v I I I I #
coedge $-1 $263 $262 $163 $249 forward $160 $-1 #
coedge $-1 $164 $163 $333 $334 reversed $61 $-1 #
edge $-1 $335 -29.333817731924533 $253 -16.174089270732331 $247 $336 forward 7 unknown #
coedge $-1 $258 $257 $164 $251 forward $259 $-1 #
edge $-1 $252 16.174089270732331 $337 29.333817731924533 $250 $338 forward 7 unknown #
vertex $-1 $251 $339 #
vertex $-1 $249 $340 #
straight-curve $-1 -38.928042772060763 0 4.8912300084964961 0 -1 0 I I #
coedge $-1 $341 $342 $166 $256 forward $245 $-1 #
edge $-1 $264 -22.02781624061738 $260 22.02781624061738 $255 $343 forward 7 unknown #
coedge $-1 $250 $167 $172 $267 forward $259 $-1 #
coedge $-1 $167 $250 $341 $344 reversed $259 $-1 #
loop $-1 $-1 $250 $244 #
vertex $-1 $344 $345 #
straight-curve $-1 -22.753953501328432 22.02781624061738 7.8912300084964961 1 0 0 I I #
coedge $-1 $247 $169 $342 $346 forward $160 $-1 #
coedge $-1 $169 $247 $171 $266 forward $160 $-1 #
vertex $-1 $346 $347 #
straight-curve $-1 -22.753953501328432 -22.02781624061738 7.8912300084964961 -1 0 0 I I #
edge $-1 $253 1.6956150042482481 $173 4.6956150042482481 $263 $348 forward 7 unknown #
edge $-1 $174 -4.6956150042482481 $252 -1.6956150042482481 $257 $349 forward 7 unknown #
point $-1 -38.928042772060763 -22.02781624061738 7.8912300084964961 #
point $-1 -38.928042772060763 22.02781624061738 7.8912300084964961 #
loop $-1 $-1 $184 $176 #
plane-surface $-1 0 22.02781624061738 0 0 -1 0 0 0 -1 forward_v I I I I #
coedge $-1 $273 $179 $181 $277 reversed $104 $-1 #
coedge $-1 $179 $272 $350 $351 reversed $104 $-1 #
coedge $-1 $187 $182 $179 $275 forward $177 $-1 #
edge $-1 $278 -16.576159324732476 $352 -12.955364138431069 $274 $353 forward 7 unknown #
coedge $-1 $181 $180 $281 $354 reversed $65 $-1 #
edge $-1 $355 -44.055632481234774 $278 -38.644438909067802 $272 $356 forward 7 unknown #
vertex $-1 $183 $357 #
straight-curve $-1 12.079636227796982 18.407021054315976 10.13842897695849 1 0 0 I I #
coedge $-1 $350 $184 $187 $285 reversed $270 $-1 #
coedge $-1 $184 $350 $276 $354 forward $270 $-1 #
vertex $-1 $185 $358 #
straight-curve $-1 17.028029128876774 22.02781624061738 54.281943522992187 0 0 1 I I #
straight-curve $-1 17.028029128876774 -7.4511554298857305 38.856844105731724 0 0.66913059716165679 -0.74314483375859142 I I #
edge $-1 $352 -31.290515782311154 $188 -17.028029128876774 $280 $359 forward 7 unknown #
point $-1 17.028029128876774 22.02781624061738 10.13842897695849 #
point $-1 17.028029128876774 18.407021054315972 10.13842897695849 #
edge $-1 $360 1 $360 0 $191 $-1 forward 7 unknown #
vertex $-1 $192 $361 #
ellipse-curve $-1 21.10302531557231 17.634158573161098 5.8018009426588053 0 0.74314483375859142 0.66913059716165679 1 0 0 1 I I #
point $-1 22.10302531557231 20.217418647466683 8.1277787031467064 #
edge $-1 $362 1 $362 0 $195 $-1 forward 7 unknown #
vertex $-1 $196 $363 #
ellipse-curve $-1 27.215519595615618 17.634158573161098 5.8018009426588053 0 0.74314483375859142 0.66913059716165679 1 0 0 1 I I #
point $-1 28.215519595615618 20.217418647466683 8.1277787031467064 #
loop $-1 $-1 $206 $199 #
plane-surface $-1 0 -22.02781624061738 0 0 1 0 0 0 1 forward_v I I I I #
coedge $-1 $364 $365 $203 $300 reversed $200 $-1 #
coedge $-1 $203 $202 $305 $366 reversed $79 $-1 #
edge $-1 $367 4.72070819993692e-015 $302 13.170916997049051 $298 $368 forward 7 unknown #
coedge $-1 $209 $204 $365 $369 forward $126 $-1 #
vertex $-1 $369 $370 #
straight-curve $-1 -15.937981477167947 -12.087599093970317 10.13842897695849 -1 0 0 I I #
coedge $-1 $371 $206 $209 $309 reversed $296 $-1 #
coedge $-1 $206 $371 $299 $366 forward $296 $-1 #
vertex $-1 $207 $372 #
straight-curve $-1 -24.823883136611023 -22.027816240617383 40.059904528881589 0 0 1 I I #
straight-curve $-1 -24.823883136611023 -22.027816240617383 1.4975298558797618 0 -0.75470957328743171 -0.6560590369687036 I I #
edge $-1 $373 -38.928042772060763 $210 -24.823883136611023 $304 $374 forward 7 unknown #
point $-1 -24.823883136611023 -22.02781624061738 10.13842897695849 #
point $-1 -24.823883136611023 -12.087599093970313 10.13842897695849 #
edge $-1 $375 1 $375 0 $213 $-1 forward 7 unknown #
vertex $-1 $214 $376 #
ellipse-curve $-1 -31.875962954335893 -14.410306130284461 2.7724923920369617 0 -0.6560590369687036 0.75470957328743171 1.5 0 0 1 I I #
point $-1 -30.375962954335893 -17.057707667293855 5.817979416419135 #
plane-surface $-1 52.087771233252965 0 0 -1 0 0 0 0 1 forward_v I I I I #
coedge $-1 $222 $220 $224 $321 reversed $141 $-1 #
edge $-1 $235 -10.13842897695849 $323 10.13842897695849 $234 $377 forward 7 unknown #
vertex $-1 $321 $378 #
straight-curve $-1 -52.087771233252965 -22.02781624061738 0 0 0 -1 I I #
edge $-1 $319 -22.02781624061738 $323 22.02781624061738 $317 $379 forward 7 unknown #
straight-curve $-1 0 -22.02781624061738 -10.13842897695849 -1 0 0 I I #
vertex $-1 $227 $380 #
straight-curve $-1 0 22.02781624061738 -10.13842897695849 1 0 0 I I #
point $-1 52.087771233252965 22.02781624061738 -10.13842897695849 #
point $-1 52.087771233252965 -22.02781624061738 -10.13842897695849 #
straight-curve $-1 -52.087771233252965 0 10.13842897695849 0 -1 0 I I #
point $-1 -52.087771233252965 22.02781624061738 10.13842897695849 #
point $-1 -52.087771233252965 -22.02781624061738 10.13842897695849 #
straight-curve $-1 52.087771233252965 -22.02781624061738 0 0 0 -1 I I #
straight-curve $-1 52.087771233252965 22.02781624061738 0 0 0 -1 I I #
plane-surface $-1 0 22.02781624061738 0 0 -1 0 0 0 -1 forward_v I I I I #
coedge $-1 $342 $341 $248 $334 forward $245 $-1 #
edge $-1 $337 -22.02781624061738 $335 22.02781624061738 $333 $381 forward 7 unknown #
vertex $-1 $249 $382 #
straight-curve $-1 -22.753953501328432 -22.02781624061738 4.8912300084964961 1 0 0 I I #
vertex $-1 $251 $383 #
straight-curve $-1 -22.753953501328432 22.02781624061738 4.8912300084964961 -1 0 0 I I #
point $-1 -38.928042772060763 22.02781624061738 4.8912300084964961 #
point $-1 -38.928042772060763 -22.02781624061738 4.8912300084964961 #
coedge $-1 $333 $255 $258 $344 forward $245 $-1 #
coedge $-1 $255 $333 $262 $346 reversed $245 $-1 #
straight-curve $-1 -52.087771233252965 0 7.8912300084964961 0 1 0 I I #
edge $-1 $260 -7.8912300084964961 $337 -4.8912300084964961 $258 $384 forward 7 unknown #
point $-1 -52.087771233252965 22.02781624061738 7.8912300084964961 #
edge $-1 $264 -7.8912300084964961 $335 -4.8912300084964961 $342 $385 forward 7 unknown #
point $-1 -52.087771233252965 -22.02781624061738 7.8912300084964961 #
straight-curve $-1 -38.928042772060763 -22.02781624061738 3.1956150042482481 0 0 1 I I #
straight-curve $-1 -38.928042772060763 22.02781624061738 3.1956150042482481 0 0 -1 I I #
coedge $-1 $281 $280 $273 $351 forward $270 $-1 #
edge $-1 $352 44.1435145460337 $355 48.164815093657282 $350 $386 forward 7 unknown #
vertex $-1 $285 $387 #
straight-curve $-1 31.290515782311154 34.983180379048449 10.138428976958487 0 1 0 I I #
edge $-1 $355 -19.210879554514172 $282 -4.9483929010797922 $281 $388 forward 7 unknown #
vertex $-1 $354 $389 #
straight-curve $-1 31.290515782311154 -7.4511554298857305 38.856844105731724 0 -0.66913059716165679 0.74314483375859142 I I #
point $-1 31.290515782311154 18.407021054315972 10.13842897695849 #
point $-1 17.028029128876774 22.027816240617383 6.1171284293349046 #
straight-curve $-1 0 22.02781624061738 10.13842897695849 -1 0 0 I I #
vertex $-1 $288 $390 #
point $-1 22.10302531557231 17.634158573161098 5.8018009426588053 #
vertex $-1 $292 $391 #
point $-1 28.215519595615618 17.634158573161098 5.8018009426588053 #
coedge $-1 $365 $298 $371 $392 reversed $200 $-1 #
coedge $-1 $298 $364 $301 $369 reversed $200 $-1 #
edge $-1 $367 -22.990061294892818 $306 -8.8859016594430766 $305 $393 forward 7 unknown #
vertex $-1 $392 $394 #
straight-curve $-1 -38.928042772060763 -22.027816240617383 1.4975298558797618 0 0.75470957328743171 0.6560590369687036 I I #
edge $-1 $302 -33.098962059472463 $373 -23.158744912825394 $301 $395 forward 7 unknown #
point $-1 -38.928042772060763 -12.087599093970313 10.13842897695849 #
coedge $-1 $305 $304 $364 $392 forward $296 $-1 #
point $-1 -24.823883136611023 -22.02781624061738 1.4975298558797649 #
vertex $-1 $309 $396 #
straight-curve $-1 0 -22.02781624061738 10.13842897695849 1 0 0 I I #
vertex $-1 $312 $397 #
point $-1 -30.375962954335893 -14.410306130284461 2.7724923920369617 #
straight-curve $-1 -52.087771233252965 22.02781624061738 0 0 0 -1 I I #
point $-1 -52.087771233252965 -22.02781624061738 -10.13842897695849 #
straight-curve $-1 -52.087771233252965 0 -10.13842897695849 0 1 0 I I #
point $-1 -52.087771233252965 22.02781624061738 -10.13842897695849 #
straight-curve $-1 -52.087771233252965 0 4.8912300084964961 0 -1 0 I I #
point $-1 -52.087771233252965 -22.02781624061738 4.8912300084964961 #
point $-1 -52.087771233252965 22.02781624061738 4.8912300084964961 #
straight-curve $-1 -52.087771233252965 22.02781624061738 0 0 0 -1 I I #
straight-curve $-1 -52.087771233252965 -22.02781624061738 0 0 0 -1 I I #
straight-curve $-1 31.290515782311154 22.02781624061738 54.281943522992187 0 0 -1 I I #
point $-1 31.290515782311154 22.02781624061738 10.13842897695849 #
straight-curve $-1 12.079636227796982 22.02781624061738 6.1171284293349064 -1 0 0 I I #
point $-1 31.290515782311154 22.027816240617383 6.1171284293349046 #
point $-1 21.10302531557231 16.891013739402506 5.1326703454971492 #
point $-1 27.215519595615618 16.891013739402506 5.1326703454971492 #
edge $-1 $373 29.921475551923098 $367 38.562374673001827 $371 $398 forward 7 unknown #
straight-curve $-1 -15.937981477167947 -22.02781624061738 1.4975298558797667 1 0 0 I I #
point $-1 -38.928042772060763 -22.02781624061738 1.4975298558797649 #
straight-curve $-1 -38.928042772060763 -45.186561153442774 10.138428976958494 0 -1 0 I I #
point $-1 -38.928042772060763 -22.02781624061738 10.13842897695849 #
point $-1 -31.875962954335893 -13.426217574831405 1.640428032105814 #
straight-curve $-1 -38.928042772060763 -22.027816240617383 40.059904528881589 0 0 -1 I I #
End-of-ACIS-data 