500 0 2 0           
7 Unknown 11 ACIS 5.0 NT 24 Fri Mar 26 14:53:00 1999 
-1 9.9999999999999995e-007 1e-010 
body $-1 $2 $-1 $3 #
body $-1 $4 $-1 $5 #
lump $-1 $-1 $6 $0 #
transform $-1 1 0 0 0 1 0 0 0 1 60.951567125461594 35.69332104343416 10.94546522954591 1 rotate no_reflect no_shear #
lump $-1 $-1 $7 $1 #
transform $-1 1 0 0 0 1 0 0 0 1 60.951567125461594 35.69332104343416 10.94546522954591 1 rotate no_reflect no_shear #
shell $-1 $-1 $-1 $8 $-1 $2 #
shell $-1 $-1 $-1 $9 $-1 $4 #
face $-1 $10 $11 $6 $-1 $12 forward single #
face $-1 $13 $14 $7 $-1 $15 reversed single #
face $-1 $16 $17 $6 $-1 $18 reversed single #
loop $-1 $-1 $19 $8 #
plane-surface $-1 0 0 10.94546522954591 0 0 1 1 0 0 forward_v I I I I #
face $-1 $20 $21 $7 $-1 $22 reversed single #
loop $-1 $-1 $23 $9 #
plane-surface $-1 -59.24940314431602 -23.106700767632169 0 0 -1 0 0 0 -1 forward_v I I I I #
face $-1 $24 $25 $6 $-1 $26 reversed single #
loop $-1 $-1 $27 $10 #
plane-surface $-1 0 0 -10.94546522954591 0 0 1 1 0 0 forward_v I I I I #
coedge $-1 $28 $29 $30 $31 forward $11 $-1 #
face $-1 $32 $33 $7 $-1 $34 forward single #
loop $-1 $-1 $35 $13 #
plane-surface $-1 -57.547239163170445 -29.400010905533165 0 -1 0 0 0 0 1 forward_v I I I I #
coedge $-1 $36 $37 $38 $39 forward $14 $-1 #
face $-1 $40 $41 $6 $-1 $42 reversed single #
loop $-1 $-1 $43 $16 #
plane-surface $-1 0 -35.69332104343416 0 0 1 0 0 0 1 forward_v I I I I #
coedge $-1 $44 $45 $46 $47 forward $17 $-1 #
coedge $-1 $48 $19 $49 $50 forward $11 $-1 #
coedge $-1 $19 $48 $51 $52 forward $11 $-1 #
coedge $-1 $53 $54 $19 $31 reversed $55 $-1 #
edge $-1 $56 -35.69332104343416 $57 35.69332104343416 $30 $58 forward 7 unknown #
face $-1 $59 $60 $7 $-1 $61 reversed single #
loop $-1 $-1 $62 $20 #
plane-surface $-1 0 0 10.94546522954591 0 0 1 1 0 0 forward_v I I I I #
coedge $-1 $63 $64 $65 $66 reversed $21 $-1 #
coedge $-1 $67 $23 $68 $69 reversed $14 $-1 #
coedge $-1 $23 $67 $70 $71 reversed $14 $-1 #
coedge $-1 $64 $63 $23 $39 reversed $21 $-1 #
edge $-1 $72 -10.94546522954591 $73 10.94546522954591 $38 $74 forward 7 unknown #
face $-1 $75 $76 $6 $-1 $77 reversed single #
loop $-1 $-1 $78 $24 #
plane-surface $-1 -60.951567125461594 0 0 1 0 0 0 0 -1 forward_v I I I I #
coedge $-1 $79 $51 $80 $81 forward $25 $-1 #
coedge $-1 $82 $27 $79 $83 forward $17 $-1 #
coedge $-1 $27 $82 $84 $85 forward $17 $-1 #
coedge $-1 $54 $53 $27 $47 reversed $55 $-1 #
edge $-1 $86 -35.69332104343416 $87 35.69332104343416 $46 $88 forward 7 unknown #
coedge $-1 $29 $28 $89 $90 forward $11 $-1 #
coedge $-1 $91 $92 $28 $50 reversed $76 $-1 #
edge $-1 $57 -60.951567125461594 $93 60.951567125461594 $49 $94 forward 7 unknown #
coedge $-1 $43 $95 $29 $52 reversed $25 $-1 #
edge $-1 $96 -60.951567125461594 $56 60.951567125461594 $51 $97 forward 7 unknown #
coedge $-1 $46 $30 $95 $98 forward $55 $-1 #
coedge $-1 $30 $46 $91 $99 reversed $55 $-1 #
loop $-1 $-1 $53 $75 #
vertex $-1 $31 $100 #
vertex $-1 $31 $101 #
straight-curve $-1 60.951567125461594 0 10.94546522954591 0 1 0 I I #
face $-1 $102 $103 $7 $-1 $104 reversed single #
loop $-1 $-1 $105 $32 #
plane-surface $-1 -60.951567125461594 0 0 1 0 0 0 0 -1 forward_v I I I I #
coedge $-1 $70 $106 $64 $107 forward $33 $-1 #
coedge $-1 $38 $35 $108 $109 reversed $21 $-1 #
coedge $-1 $35 $38 $62 $107 reversed $21 $-1 #
coedge $-1 $110 $111 $35 $66 forward $112 $-1 #
edge $-1 $113 -10.94546522954591 $114 10.94546522954591 $65 $115 forward 7 unknown #
coedge $-1 $37 $36 $105 $116 reversed $14 $-1 #
coedge $-1 $108 $117 $36 $69 forward $103 $-1 #
edge $-1 $118 -31.326865553303584 $73 -27.922537591012436 $68 $119 forward 7 unknown #
coedge $-1 $120 $62 $37 $71 forward $33 $-1 #
edge $-1 $72 27.922537591012436 $121 31.326865553303584 $70 $122 forward 7 unknown #
vertex $-1 $71 $123 #
vertex $-1 $69 $124 #
straight-curve $-1 -57.547239163170445 -23.106700767632169 0 0 0 -1 I I #
face $-1 $-1 $55 $6 $-1 $125 reversed single #
loop $-1 $-1 $91 $40 #
plane-surface $-1 0 35.69332104343416 0 0 -1 0 0 0 -1 forward_v I I I I #
coedge $-1 $126 $89 $92 $127 forward $41 $-1 #
coedge $-1 $95 $43 $44 $83 reversed $25 $-1 #
coedge $-1 $89 $126 $43 $81 reversed $41 $-1 #
edge $-1 $96 -10.94546522954591 $128 10.94546522954591 $80 $129 forward 7 unknown #
coedge $-1 $45 $44 $126 $130 forward $17 $-1 #
edge $-1 $87 -60.951567125461594 $128 60.951567125461594 $79 $131 forward 7 unknown #
coedge $-1 $92 $91 $45 $85 reversed $76 $-1 #
edge $-1 $132 -60.951567125461594 $86 60.951567125461594 $84 $133 forward 7 unknown #
vertex $-1 $47 $134 #
vertex $-1 $98 $135 #
straight-curve $-1 60.951567125461594 0 -10.94546522954591 0 -1 0 I I #
coedge $-1 $78 $80 $48 $90 reversed $41 $-1 #
edge $-1 $93 -35.69332104343416 $96 35.69332104343416 $89 $136 forward 7 unknown #
coedge $-1 $84 $49 $54 $99 forward $76 $-1 #
coedge $-1 $49 $84 $78 $127 reversed $76 $-1 #
vertex $-1 $50 $137 #
straight-curve $-1 0 35.69332104343416 10.94546522954591 -1 0 0 I I #
coedge $-1 $51 $79 $53 $98 reversed $25 $-1 #
vertex $-1 $90 $138 #
straight-curve $-1 0 -35.69332104343416 10.94546522954591 1 0 0 I I #
edge $-1 $56 -10.94546522954591 $87 10.94546522954591 $53 $139 forward 7 unknown #
edge $-1 $57 -10.94546522954591 $86 10.94546522954591 $54 $140 forward 7 unknown #
point $-1 60.951567125461594 -35.69332104343416 10.94546522954591 #
point $-1 60.951567125461594 35.69332104343416 10.94546522954591 #
face $-1 $-1 $112 $7 $-1 $141 reversed single #
loop $-1 $-1 $108 $59 #
plane-surface $-1 0 0 -10.94546522954591 0 0 1 1 0 0 forward_v I I I I #
coedge $-1 $142 $143 $67 $116 forward $60 $-1 #
coedge $-1 $62 $120 $110 $144 forward $33 $-1 #
edge $-1 $114 -20.993315590667578 $72 -8.406695314865587 $62 $145 forward 7 unknown #
coedge $-1 $146 $68 $63 $109 forward $103 $-1 #
edge $-1 $73 8.406695314865587 $113 20.993315590667578 $108 $147 forward 7 unknown #
coedge $-1 $148 $65 $106 $144 reversed $112 $-1 #
coedge $-1 $65 $148 $146 $149 reversed $112 $-1 #
loop $-1 $-1 $65 $102 #
vertex $-1 $149 $150 #
vertex $-1 $66 $151 #
straight-curve $-1 -57.547239163170445 -35.69332104343416 0 0 0 1 I I #
edge $-1 $121 -10.94546522954591 $118 10.94546522954591 $105 $152 forward 7 unknown #
coedge $-1 $68 $146 $142 $153 forward $103 $-1 #
vertex $-1 $69 $154 #
straight-curve $-1 -29.62470157215801 -23.106700767632169 -10.94546522954591 1 0 0 I I #
coedge $-1 $106 $70 $143 $155 forward $33 $-1 #
vertex $-1 $155 $156 #
straight-curve $-1 -29.62470157215801 -23.106700767632169 10.94546522954591 -1 0 0 I I #
point $-1 -57.547239163170445 -23.106700767632169 10.94546522954591 #
point $-1 -57.547239163170445 -23.106700767632169 -10.94546522954591 #
plane-surface $-1 60.951567125461594 0 0 -1 0 0 0 0 1 forward_v I I I I #
coedge $-1 $80 $78 $82 $130 reversed $41 $-1 #
edge $-1 $93 -10.94546522954591 $132 10.94546522954591 $92 $157 forward 7 unknown #
vertex $-1 $130 $158 #
straight-curve $-1 -60.951567125461594 -35.69332104343416 0 0 0 -1 I I #
edge $-1 $128 -35.69332104343416 $132 35.69332104343416 $126 $159 forward 7 unknown #
straight-curve $-1 0 -35.69332104343416 -10.94546522954591 -1 0 0 I I #
vertex $-1 $85 $160 #
straight-curve $-1 0 35.69332104343416 -10.94546522954591 1 0 0 I I #
point $-1 60.951567125461594 35.69332104343416 -10.94546522954591 #
point $-1 60.951567125461594 -35.69332104343416 -10.94546522954591 #
straight-curve $-1 -60.951567125461594 0 10.94546522954591 0 -1 0 I I #
point $-1 -60.951567125461594 35.69332104343416 10.94546522954591 #
point $-1 -60.951567125461594 -35.69332104343416 10.94546522954591 #
straight-curve $-1 60.951567125461594 -35.69332104343416 0 0 0 -1 I I #
straight-curve $-1 60.951567125461594 35.69332104343416 0 0 0 -1 I I #
plane-surface $-1 0 -35.69332104343416 0 0 1 0 0 0 1 forward_v I I I I #
coedge $-1 $161 $105 $117 $153 reversed $60 $-1 #
coedge $-1 $105 $161 $120 $155 reversed $60 $-1 #
edge $-1 $162 -60.951567125461594 $114 -57.547239163170445 $110 $163 forward 7 unknown #
straight-curve $-1 -57.547239163170445 -14.700005452766582 10.94546522954591 0 1 0 I I #
coedge $-1 $117 $108 $111 $149 forward $103 $-1 #
straight-curve $-1 -57.547239163170445 -14.700005452766582 -10.94546522954591 0 -1 0 I I #
coedge $-1 $111 $110 $161 $164 forward $112 $-1 #
edge $-1 $113 57.547239163170445 $165 60.951567125461594 $111 $166 forward 7 unknown #
point $-1 -57.547239163170445 -35.69332104343416 -10.94546522954591 #
point $-1 -57.547239163170445 -35.69332104343416 10.94546522954591 #
straight-curve $-1 -60.951567125461594 -23.106700767632169 0 0 0 -1 I I #
edge $-1 $165 -35.69332104343416 $118 -23.106700767632169 $142 $167 forward 7 unknown #
point $-1 -60.951567125461594 -23.106700767632169 -10.94546522954591 #
edge $-1 $121 23.106700767632169 $162 35.69332104343416 $143 $168 forward 7 unknown #
point $-1 -60.951567125461594 -23.106700767632169 10.94546522954591 #
straight-curve $-1 -60.951567125461594 35.69332104343416 0 0 0 -1 I I #
point $-1 -60.951567125461594 -35.69332104343416 -10.94546522954591 #
straight-curve $-1 -60.951567125461594 0 -10.94546522954591 0 1 0 I I #
point $-1 -60.951567125461594 35.69332104343416 -10.94546522954591 #
coedge $-1 $143 $142 $148 $164 reversed $60 $-1 #
vertex $-1 $155 $169 #
straight-curve $-1 0 -35.69332104343416 10.94546522954591 1 0 0 I I #
edge $-1 $162 -10.94546522954591 $165 10.94546522954591 $161 $170 forward 7 unknown #
vertex $-1 $153 $171 #
straight-curve $-1 0 -35.69332104343416 -10.94546522954591 -1 0 0 I I #
straight-curve $-1 -60.951567125461594 0 -10.94546522954591 0 1 0 I I #
straight-curve $-1 -60.951567125461594 0 10.94546522954591 0 -1 0 I I #
point $-1 -60.951567125461594 -35.69332104343416 10.94546522954591 #
straight-curve $-1 -60.951567125461594 -35.69332104343416 0 0 0 -1 I I #
point $-1 -60.951567125461594 -35.69332104343416 -10.94546522954591 #
End-of-ACIS-data 