500 0 9 0           
7 Unknown 11 ACIS 5.0 NT 24 Fri Mar 26 20:45:19 1999 
-1 9.9999999999999995e-007 1e-010 
body $-1 $9 $-1 $10 #
body $-1 $11 $-1 $12 #
body $-1 $13 $-1 $14 #
body $-1 $15 $-1 $16 #
body $-1 $17 $-1 $18 #
body $-1 $19 $-1 $20 #
body $-1 $21 $-1 $22 #
body $-1 $23 $-1 $24 #
body $-1 $25 $-1 $26 #
lump $-1 $-1 $27 $0 #
transform $-1 1 0 0 0 1 0 0 0 1 50.921964171269877 25.451036085979919 10.687306922252025 1 rotate no_reflect no_shear #
lump $-1 $-1 $28 $1 #
transform $-1 1 0 0 0 1 0 0 0 1 50.921964171269877 25.451036085979919 10.687306922252025 1 rotate no_reflect no_shear #
lump $-1 $-1 $29 $2 #
transform $-1 1 0 0 0 1 0 0 0 1 50.921964171269877 25.451036085979919 10.687306922252025 1 rotate no_reflect no_shear #
lump $-1 $-1 $30 $3 #
transform $-1 1 0 0 0 1 0 0 0 1 50.921964171269877 25.451036085979919 10.687306922252025 1 rotate no_reflect no_shear #
lump $-1 $-1 $31 $4 #
transform $-1 1 0 0 0 1 0 0 0 1 50.921964171269877 25.451036085979919 10.687306922252025 1 rotate no_reflect no_shear #
lump $-1 $-1 $32 $5 #
transform $-1 1 0 0 0 1 0 0 0 1 50.921964171269877 25.451036085979919 10.687306922252025 1 rotate no_reflect no_shear #
lump $-1 $-1 $33 $6 #
transform $-1 1 0 0 0 1 0 0 0 1 50.921964171269877 25.451036085979919 10.687306922252025 1 rotate no_reflect no_shear #
lump $-1 $-1 $34 $7 #
transform $-1 1 0 0 0 1 0 0 0 1 50.921964171269877 25.451036085979919 10.687306922252025 1 rotate no_reflect no_shear #
lump $-1 $-1 $35 $8 #
transform $-1 1 0 0 0 1 0 0 0 1 50.921964171269877 25.451036085979919 10.687306922252025 1 rotate no_reflect no_shear #
shell $-1 $-1 $-1 $36 $-1 $9 #
shell $-1 $-1 $-1 $37 $-1 $11 #
shell $-1 $-1 $-1 $38 $-1 $13 #
shell $-1 $-1 $-1 $39 $-1 $15 #
shell $-1 $-1 $-1 $40 $-1 $17 #
shell $-1 $-1 $-1 $41 $-1 $19 #
shell $-1 $-1 $-1 $42 $-1 $21 #
shell $-1 $-1 $-1 $43 $-1 $23 #
shell $-1 $-1 $-1 $44 $-1 $25 #
face $-1 $45 $46 $27 $-1 $47 reversed single #
face $-1 $48 $49 $28 $-1 $50 forward single #
face $-1 $51 $52 $29 $-1 $53 forward single #
face $-1 $54 $55 $30 $-1 $56 reversed single #
face $-1 $57 $58 $31 $-1 $59 forward single #
face $-1 $60 $61 $32 $-1 $62 reversed single #
face $-1 $63 $64 $33 $-1 $65 forward single #
face $-1 $66 $67 $34 $-1 $68 forward single #
face $-1 $69 $70 $35 $-1 $71 forward single #
face $-1 $72 $73 $27 $-1 $74 forward single #
loop $-1 $-1 $75 $36 #
plane-surface $-1 50.921964171269877 0 0 -1 0 0 0 0 1 forward_v I I I I #
face $-1 $76 $77 $28 $-1 $78 reversed single #
loop $-1 $-1 $79 $37 #
plane-surface $-1 -50.921964171269877 0 0 1 0 0 0 0 -1 forward_v I I I I #
face $-1 $80 $81 $29 $-1 $82 reversed single #
loop $-1 $-1 $83 $38 #
plane-surface $-1 50.921964171269877 0 0 -1 0 0 0 0 1 forward_v I I I I #
face $-1 $84 $85 $30 $-1 $86 reversed single #
loop $-1 $-1 $87 $39 #
plane-surface $-1 35.907283163329289 -93.597926431385872 81.999889020947037 -1 0 0 0 -0.66913061440640931 0.74314481823134659 forward_v I I I I #
face $-1 $88 $89 $31 $-1 $90 forward single #
loop $-1 $91 $92 $40 #
cone-surface $-1 31.61672048829918 -22.027901795369278 7.3958990001645635 0 0.66913061440640931 -0.74314481823134659 1 0 0 1 I I 0 1 1 forward I I I I #
face $-1 $93 $94 $32 $-1 $95 reversed single #
loop $-1 $-1 $96 $41 #
plane-surface $-1 26.251122594072477 77.925018962021795 102.22235990547873 1 0 0 0 -0.80901700255871778 -0.5877852410284794 forward_v I I I I #
face $-1 $97 $98 $33 $-1 $99 forward single #
loop $-1 $100 $101 $42 #
cone-surface $-1 28.601323385311289 20.418184300269555 4.786204242801813 0 -0.80901700255871778 -0.5877852410284794 1 0 0 1 I I 0 1 1 forward I I I I #
face $-1 $102 $103 $34 $-1 $104 forward single #
loop $-1 $105 $106 $43 #
cone-surface $-1 32.126624572169504 20.418184300269555 4.786204242801813 0 -0.80901700255871778 -0.5877852410284794 1 0 0 1 I I 0 1 1 forward I I I I #
face $-1 $107 $108 $35 $-1 $109 forward single #
loop $-1 $110 $111 $44 #
cone-surface $-1 35.651925759027719 20.418184300269555 4.786204242801813 0 -0.80901700255871778 -0.5877852410284794 1 0 0 1 I I 0 1 1 forward I I I I #
face $-1 $112 $113 $27 $-1 $114 reversed single #
loop $-1 $-1 $115 $45 #
plane-surface $-1 0 0 10.687306922252025 0 0 1 1 0 0 forward_v I I I I #
coedge $-1 $116 $117 $118 $119 reversed $46 $-1 #
face $-1 $120 $121 $28 $-1 $122 forward single #
loop $-1 $-1 $123 $48 #
plane-surface $-1 0 25.451036085979919 0 0 -1 0 0 0 -1 forward_v I I I I #
coedge $-1 $124 $125 $126 $127 forward $49 $-1 #
face $-1 $128 $129 $29 $-1 $130 forward single #
loop $-1 $-1 $131 $51 #
plane-surface $-1 0 -25.451036085979919 0 0 1 0 0 0 1 forward_v I I I I #
coedge $-1 $132 $133 $134 $135 forward $52 $-1 #
face $-1 $136 $137 $30 $-1 $138 reversed single #
loop $-1 $-1 $139 $54 #
plane-surface $-1 31.616720488299194 -25.451036085979922 6.3151014048640377 0 -0.66913061440640931 0.74314481823134659 1 0 0 forward_v I I I I #
coedge $-1 $140 $141 $142 $143 reversed $55 $-1 #
face $-1 $-1 $144 $31 $-1 $145 forward single #
loop $-1 $146 $147 $57 #
cone-surface $-1 31.61672048829918 -20.698115227189984 5.9190214276554212 0 0.66913061440640931 -0.74314481823134659 0.5 0 0 1 I I -0.70710678118654746 0.70710678118654746 0.5 forward I I I I #
loop $-1 $-1 $148 $40 #
coedge $-1 $92 $92 $149 $150 reversed $58 $-1 #
face $-1 $151 $152 $32 $-1 $153 reversed single #
loop $-1 $-1 $154 $60 #
plane-surface $-1 32.126624572169504 -4.4684506744645631 42.360001937371813 0 0.80901700255871778 0.5877852410284794 1 0 0 forward_v I I I I #
coedge $-1 $155 $156 $157 $158 reversed $61 $-1 #
face $-1 $-1 $159 $33 $-1 $160 forward single #
loop $-1 $161 $162 $63 #
cone-surface $-1 28.601323385311289 18.434787777867538 3.3451823615707017 0 -0.80901700255871778 -0.5877852410284794 0.5 0 0 1 I I -0.70710678118654746 0.70710678118654746 0.5 forward I I I I #
loop $-1 $-1 $163 $42 #
coedge $-1 $101 $101 $164 $165 reversed $64 $-1 #
face $-1 $-1 $166 $34 $-1 $167 forward single #
loop $-1 $168 $169 $66 #
cone-surface $-1 32.126624572169504 18.434787777867538 3.3451823615707017 0 -0.80901700255871778 -0.5877852410284794 0.5 0 0 1 I I -0.70710678118654746 0.70710678118654746 0.5 forward I I I I #
loop $-1 $-1 $170 $43 #
coedge $-1 $106 $106 $171 $172 reversed $67 $-1 #
face $-1 $-1 $173 $35 $-1 $174 forward single #
loop $-1 $175 $176 $69 #
cone-surface $-1 35.651925759027719 18.434787777867538 3.3451823615707017 0 -0.80901700255871778 -0.5877852410284794 0.5 0 0 1 I I -0.70710678118654746 0.70710678118654746 0.5 forward I I I I #
loop $-1 $-1 $177 $44 #
coedge $-1 $111 $111 $178 $179 reversed $70 $-1 #
face $-1 $180 $181 $27 $-1 $182 reversed single #
loop $-1 $-1 $183 $72 #
plane-surface $-1 0 0 -10.687306922252025 0 0 1 1 0 0 forward_v I I I I #
coedge $-1 $184 $185 $116 $186 forward $73 $-1 #
coedge $-1 $187 $75 $115 $186 reversed $46 $-1 #
coedge $-1 $75 $187 $183 $188 reversed $46 $-1 #
coedge $-1 $189 $190 $75 $119 forward $191 $-1 #
edge $-1 $192 -10.687306922252025 $193 10.687306922252025 $75 $194 forward 7 unknown #
face $-1 $195 $196 $28 $-1 $197 reversed single #
loop $-1 $-1 $126 $76 #
plane-surface $-1 -57.381882981771547 0 -2.8096217178931169 0 0 1 1 0 0 forward_v I I I I #
coedge $-1 $198 $199 $125 $200 forward $77 $-1 #
coedge $-1 $201 $79 $202 $203 reversed $49 $-1 #
coedge $-1 $79 $201 $123 $200 reversed $49 $-1 #
coedge $-1 $204 $205 $79 $127 reversed $121 $-1 #
edge $-1 $206 -25.451036085979919 $207 25.451036085979919 $126 $208 forward 7 unknown #
face $-1 $209 $210 $29 $-1 $211 reversed single #
loop $-1 $-1 $212 $80 #
plane-surface $-1 57.381882981771554 0 -2.8096217178931169 0 0 1 1 0 0 forward_v I I I I #
coedge $-1 $213 $214 $133 $215 forward $81 $-1 #
coedge $-1 $216 $83 $217 $218 reversed $52 $-1 #
coedge $-1 $83 $216 $131 $215 reversed $52 $-1 #
coedge $-1 $219 $220 $83 $135 reversed $129 $-1 #
edge $-1 $221 -25.451036085979919 $222 25.451036085979919 $134 $223 forward 7 unknown #
face $-1 $224 $225 $30 $-1 $226 forward single #
loop $-1 $-1 $227 $84 #
plane-surface $-1 27.326157813269099 -93.597926431385872 81.999889020947037 1 0 0 0 0.66913061440640931 -0.74314481823134659 forward_v I I I I #
coedge $-1 $228 $229 $230 $231 reversed $85 $-1 #
coedge $-1 $141 $87 $232 $233 reversed $55 $-1 #
coedge $-1 $87 $140 $228 $234 reversed $55 $-1 #
coedge $-1 $230 $235 $87 $143 forward $225 $-1 #
edge $-1 $236 21.347927129713018 $237 26.203753188982116 $142 $238 forward 7 unknown #
loop $-1 $-1 $149 $88 #
plane-surface $-1 31.616720488299194 -25.451036085979922 6.3151014048640377 0 -0.66913061440640931 0.74314481823134659 1 0 0 forward_v I I I I #
loop $-1 $-1 $239 $57 #
coedge $-1 $147 $147 $148 $240 reversed $89 $-1 #
coedge $-1 $148 $148 $147 $240 forward $91 $-1 #
coedge $-1 $149 $149 $92 $150 forward $144 $-1 #
edge $-1 $241 0 $241 6.2831853071796004 $149 $242 forward 7 unknown #
face $-1 $243 $244 $32 $-1 $245 reversed single #
loop $-1 $-1 $246 $93 #
plane-surface $-1 38.002126550266532 77.925018962021795 102.22235990547873 -1 0 0 0 0.80901700255871778 0.5877852410284794 forward_v I I I I #
coedge $-1 $247 $248 $249 $250 reversed $94 $-1 #
coedge $-1 $156 $96 $251 $252 reversed $61 $-1 #
coedge $-1 $96 $155 $247 $253 reversed $61 $-1 #
coedge $-1 $249 $254 $96 $158 forward $255 $-1 #
edge $-1 $256 13.511473395030979 $257 20.419400924206382 $157 $258 forward 7 unknown #
loop $-1 $-1 $164 $97 #
plane-surface $-1 32.126624572169504 -4.4684506744645631 42.360001937371813 0 0.80901700255871778 0.5877852410284794 1 0 0 forward_v I I I I #
loop $-1 $-1 $259 $63 #
coedge $-1 $162 $162 $163 $260 reversed $98 $-1 #
coedge $-1 $163 $163 $162 $260 forward $100 $-1 #
coedge $-1 $164 $164 $101 $165 forward $159 $-1 #
edge $-1 $261 -7.1855144284313413e-016 $261 6.2831853071795996 $164 $262 forward 7 unknown #
loop $-1 $-1 $171 $102 #
plane-surface $-1 32.126624572169504 -4.4684506744645631 42.360001937371813 0 0.80901700255871778 0.5877852410284794 1 0 0 forward_v I I I I #
loop $-1 $-1 $263 $66 #
coedge $-1 $169 $169 $170 $264 reversed $103 $-1 #
coedge $-1 $170 $170 $169 $264 forward $105 $-1 #
coedge $-1 $171 $171 $106 $172 forward $166 $-1 #
edge $-1 $265 -7.1855144284313413e-016 $265 6.2831853071795996 $171 $266 forward 7 unknown #
loop $-1 $-1 $178 $107 #
plane-surface $-1 32.126624572169504 -4.4684506744645631 42.360001937371813 0 0.80901700255871778 0.5877852410284794 1 0 0 forward_v I I I I #
loop $-1 $-1 $267 $69 #
coedge $-1 $176 $176 $177 $268 reversed $108 $-1 #
coedge $-1 $177 $177 $176 $268 forward $110 $-1 #
coedge $-1 $178 $178 $111 $179 forward $173 $-1 #
edge $-1 $269 -7.1855144284313413e-016 $269 6.2831853071795996 $178 $270 forward 7 unknown #
face $-1 $271 $272 $27 $-1 $273 reversed single #
loop $-1 $-1 $274 $112 #
plane-surface $-1 0 -25.451036085979919 0 0 1 0 0 0 1 forward_v I I I I #
coedge $-1 $275 $276 $117 $188 forward $113 $-1 #
coedge $-1 $277 $115 $190 $278 forward $73 $-1 #
coedge $-1 $115 $277 $279 $280 forward $73 $-1 #
edge $-1 $281 -25.451036085979919 $192 25.451036085979919 $116 $282 forward 7 unknown #
coedge $-1 $117 $116 $283 $284 forward $46 $-1 #
edge $-1 $193 -25.451036085979919 $285 25.451036085979919 $117 $286 forward 7 unknown #
coedge $-1 $287 $118 $276 $288 reversed $191 $-1 #
coedge $-1 $118 $287 $184 $278 reversed $191 $-1 #
loop $-1 $-1 $118 $271 #
vertex $-1 $186 $289 #
vertex $-1 $188 $290 #
straight-curve $-1 50.921964171269877 25.451036085979919 0 0 0 -1 I I #
face $-1 $291 $292 $28 $-1 $293 reversed single #
loop $-1 $-1 $294 $120 #
plane-surface $-1 -57.381882981771547 0 -8.2632239434312265 0 0 1 1 0 0 forward_v I I I I #
coedge $-1 $295 $123 $296 $297 reversed $77 $-1 #
coedge $-1 $123 $295 $204 $298 reversed $77 $-1 #
edge $-1 $206 2.8096217178931169 $299 8.2632239434312265 $123 $300 forward 7 unknown #
coedge $-1 $125 $124 $294 $301 forward $49 $-1 #
coedge $-1 $302 $303 $124 $203 forward $304 $-1 #
edge $-1 $305 -8.2632239434312265 $207 -2.8096217178931169 $202 $306 forward 7 unknown #
coedge $-1 $307 $126 $199 $298 forward $121 $-1 #
coedge $-1 $126 $307 $302 $308 forward $121 $-1 #
vertex $-1 $200 $309 #
vertex $-1 $308 $310 #
straight-curve $-1 -50.921964171269877 0 -2.8096217178931169 0 -1 0 I I #
face $-1 $311 $312 $29 $-1 $313 reversed single #
loop $-1 $-1 $314 $128 #
plane-surface $-1 57.381882981771554 0 -8.2632239434312265 0 0 1 1 0 0 forward_v I I I I #
coedge $-1 $220 $219 $315 $316 forward $129 $-1 #
coedge $-1 $317 $131 $318 $319 reversed $81 $-1 #
coedge $-1 $131 $317 $219 $320 reversed $81 $-1 #
edge $-1 $221 2.8096217178931169 $321 8.2632239434312265 $131 $322 forward 7 unknown #
coedge $-1 $133 $132 $323 $324 forward $52 $-1 #
coedge $-1 $325 $326 $132 $218 forward $327 $-1 #
edge $-1 $328 -8.2632239434312265 $222 -2.8096217178931169 $217 $329 forward 7 unknown #
coedge $-1 $212 $134 $214 $320 forward $129 $-1 #
coedge $-1 $134 $212 $325 $330 forward $129 $-1 #
vertex $-1 $215 $331 #
vertex $-1 $330 $332 #
straight-curve $-1 50.921964171269877 0 -2.8096217178931169 0 1 0 I I #
face $-1 $-1 $333 $30 $-1 $334 reversed single #
loop $-1 $-1 $142 $136 #
plane-surface $-1 0 0 10.687306922252025 0 0 1 1 0 0 forward_v I I I I #
coedge $-1 $335 $336 $337 $338 reversed $137 $-1 #
coedge $-1 $339 $139 $141 $234 forward $85 $-1 #
coedge $-1 $139 $339 $335 $340 forward $85 $-1 #
coedge $-1 $337 $142 $139 $231 forward $225 $-1 #
edge $-1 $237 -20.098922919179692 $341 -11.517797569119502 $230 $342 forward 7 unknown #
coedge $-1 $343 $344 $140 $233 forward $333 $-1 #
edge $-1 $345 -34.684843105609474 $236 -30.312637588221492 $232 $346 forward 7 unknown #
edge $-1 $237 -6.53415853833949 $345 -5.0174102477660512e-015 $141 $347 forward 7 unknown #
coedge $-1 $142 $337 $343 $348 forward $225 $-1 #
vertex $-1 $233 $349 #
vertex $-1 $143 $350 #
straight-curve $-1 35.907283163329289 -46.798963215692936 10.687306922252027 0 1 0 I I #
coedge $-1 $239 $239 $-1 $351 reversed $146 $-1 #
edge $-1 $352 0 $352 6.2831853071796004 $147 $353 forward 7 unknown #
vertex $-1 $150 $354 #
ellipse-curve $-1 31.61672048829918 -23.023123056345369 8.5012041635580324 0 -0.66913061440640931 0.74314481823134659 1 0 0 1 I I #
face $-1 $-1 $255 $32 $-1 $355 forward single #
loop $-1 $-1 $356 $151 #
plane-surface $-1 0 25.451036085979919 0 0 -1 0 0 0 -1 forward_v I I I I #
coedge $-1 $357 $358 $359 $360 reversed $152 $-1 #
coedge $-1 $361 $154 $156 $253 forward $94 $-1 #
coedge $-1 $154 $361 $357 $362 forward $94 $-1 #
coedge $-1 $359 $157 $154 $250 forward $255 $-1 #
edge $-1 $257 10.187810307987725 $363 21.938814264181779 $249 $364 forward 7 unknown #
coedge $-1 $365 $366 $155 $252 forward $244 $-1 #
edge $-1 $367 -49.93181986795404 $256 -40.423873030487336 $251 $368 forward 7 unknown #
edge $-1 $257 39.149603673281277 $367 50.902072171959858 $156 $369 forward 7 unknown #
coedge $-1 $157 $359 $365 $370 forward $255 $-1 #
loop $-1 $-1 $359 $243 #
vertex $-1 $252 $371 #
vertex $-1 $158 $372 #
straight-curve $-1 26.251122594072477 38.962509481010898 10.687306922252027 0 -1 0 I I #
coedge $-1 $259 $259 $-1 $373 reversed $161 $-1 #
edge $-1 $374 0 $374 6.2831853071796004 $162 $375 forward 7 unknown #
vertex $-1 $165 $376 #
ellipse-curve $-1 28.601323385311289 21.997072321392213 5.9333335035186829 0 0.80901700255871778 0.5877852410284794 1 0 0 1 I I #
coedge $-1 $263 $263 $-1 $377 reversed $168 $-1 #
edge $-1 $378 0 $378 6.2831853071796004 $169 $379 forward 7 unknown #
vertex $-1 $172 $380 #
ellipse-curve $-1 32.126624572169504 21.997072321392213 5.9333335035186829 0 0.80901700255871778 0.5877852410284794 1 0 0 1 I I #
coedge $-1 $267 $267 $-1 $381 reversed $175 $-1 #
edge $-1 $382 0 $382 6.2831853071796004 $176 $383 forward 7 unknown #
vertex $-1 $179 $384 #
ellipse-curve $-1 35.651925759027719 21.997072321392213 5.9333335035186829 0 0.80901700255871778 0.5877852410284794 1 0 0 1 I I #
face $-1 $-1 $191 $27 $-1 $385 reversed single #
loop $-1 $-1 $386 $180 #
plane-surface $-1 -50.921964171269877 0 0 1 0 0 0 0 -1 forward_v I I I I #
coedge $-1 $387 $279 $386 $388 forward $181 $-1 #
coedge $-1 $389 $183 $387 $390 forward $113 $-1 #
coedge $-1 $183 $389 $189 $288 forward $113 $-1 #
coedge $-1 $185 $184 $391 $392 forward $73 $-1 #
edge $-1 $192 -50.921964171269877 $393 50.921964171269877 $190 $394 forward 7 unknown #
coedge $-1 $274 $283 $185 $280 reversed $181 $-1 #
edge $-1 $395 -50.921964171269877 $281 50.921964171269877 $279 $396 forward 7 unknown #
vertex $-1 $186 $397 #
straight-curve $-1 50.921964171269877 0 10.687306922252025 0 1 0 I I #
coedge $-1 $279 $387 $187 $284 reversed $181 $-1 #
edge $-1 $281 -10.687306922252025 $285 10.687306922252025 $187 $398 forward 7 unknown #
vertex $-1 $284 $399 #
straight-curve $-1 50.921964171269877 0 -10.687306922252025 0 -1 0 I I #
coedge $-1 $190 $189 $400 $401 reversed $191 $-1 #
edge $-1 $402 -50.921964171269877 $193 50.921964171269877 $189 $403 forward 7 unknown #
point $-1 50.921964171269877 25.451036085979919 10.687306922252025 #
point $-1 50.921964171269877 25.451036085979919 -10.687306922252025 #
face $-1 $-1 $304 $28 $-1 $404 reversed single #
loop $-1 $-1 $405 $195 #
plane-surface $-1 -63.841801792273216 0 -5.5364228306621719 1 0 0 0 0 -1 forward_v I I I I #
coedge $-1 $406 $296 $201 $301 reversed $196 $-1 #
coedge $-1 $199 $198 $405 $407 reversed $77 $-1 #
coedge $-1 $294 $408 $198 $297 forward $196 $-1 #
edge $-1 $409 -6.4599188105016694 $299 6.4599188105016694 $198 $410 forward 7 unknown #
edge $-1 $206 -6.4599188105016694 $411 6.4599188105016694 $199 $412 forward 7 unknown #
vertex $-1 $200 $413 #
straight-curve $-1 -50.921964171269877 25.451036085979919 0 0 0 -1 I I #
edge $-1 $305 -25.451036085979919 $299 25.451036085979919 $294 $414 forward 7 unknown #
coedge $-1 $415 $202 $205 $308 reversed $304 $-1 #
coedge $-1 $202 $415 $406 $416 reversed $304 $-1 #
loop $-1 $-1 $202 $291 #
vertex $-1 $203 $417 #
straight-curve $-1 -50.921964171269877 -25.451036085979919 0 0 0 1 I I #
coedge $-1 $205 $204 $418 $419 forward $121 $-1 #
edge $-1 $420 -6.4599188105016694 $207 6.4599188105016694 $302 $421 forward 7 unknown #
point $-1 -50.921964171269877 25.451036085979919 -2.8096217178931169 #
point $-1 -50.921964171269877 -25.451036085979919 -2.8096217178931169 #
face $-1 $-1 $327 $29 $-1 $422 reversed single #
loop $-1 $-1 $423 $209 #
plane-surface $-1 63.841801792273223 0 -5.5364228306621719 -1 0 0 0 0 1 forward_v I I I I #
coedge $-1 $318 $424 $425 $426 forward $210 $-1 #
coedge $-1 $423 $427 $212 $316 reversed $312 $-1 #
edge $-1 $428 -25.451036085979919 $429 25.451036085979919 $315 $430 forward 7 unknown #
coedge $-1 $214 $213 $423 $431 reversed $81 $-1 #
coedge $-1 $323 $314 $213 $319 forward $210 $-1 #
edge $-1 $432 -6.4599188105016694 $321 6.4599188105016694 $213 $433 forward 7 unknown #
edge $-1 $221 -6.4599188105016694 $428 6.4599188105016694 $214 $434 forward 7 unknown #
vertex $-1 $215 $435 #
straight-curve $-1 50.921964171269877 -25.451036085979919 0 0 0 -1 I I #
coedge $-1 $424 $318 $216 $324 reversed $210 $-1 #
edge $-1 $328 -25.451036085979919 $321 25.451036085979919 $323 $436 forward 7 unknown #
coedge $-1 $437 $217 $220 $330 reversed $327 $-1 #
coedge $-1 $217 $437 $424 $438 reversed $327 $-1 #
loop $-1 $-1 $217 $311 #
vertex $-1 $218 $439 #
straight-curve $-1 50.921964171269877 25.451036085979919 0 0 0 1 I I #
edge $-1 $429 -6.4599188105016694 $222 6.4599188105016694 $325 $440 forward 7 unknown #
point $-1 50.921964171269885 -25.451036085979919 -2.8096217178931169 #
point $-1 50.921964171269885 25.451036085979919 -2.8096217178931169 #
loop $-1 $-1 $232 $224 #
plane-surface $-1 0 -25.451036085979919 0 0 1 0 0 0 1 forward_v I I I I #
coedge $-1 $336 $227 $229 $340 reversed $137 $-1 #
coedge $-1 $227 $335 $441 $442 reversed $137 $-1 #
coedge $-1 $235 $230 $227 $338 forward $225 $-1 #
edge $-1 $341 -26.203753188982116 $443 -21.347927129713018 $337 $444 forward 7 unknown #
coedge $-1 $229 $228 $344 $445 reversed $85 $-1 #
edge $-1 $446 5.0174102477660512e-015 $341 6.53415853833949 $335 $447 forward 7 unknown #
vertex $-1 $231 $448 #
straight-curve $-1 15.808360244149597 -20.595210026710824 10.687306922252025 -1 0 0 I I #
coedge $-1 $441 $232 $235 $348 reversed $333 $-1 #
coedge $-1 $232 $441 $339 $445 forward $333 $-1 #
vertex $-1 $233 $449 #
straight-curve $-1 35.907283163329289 -25.451036085979922 40.999944510473519 0 0 1 I I #
straight-curve $-1 35.907283163329289 -25.451036085979922 6.3151014048640377 0 -0.74314481823134659 -0.66913061440640931 I I #
edge $-1 $443 27.326157813269099 $236 35.907283163329289 $343 $450 forward 7 unknown #
point $-1 35.907283163329289 -25.451036085979919 10.687306922252025 #
point $-1 35.907283163329289 -20.59521002671082 10.687306922252025 #
edge $-1 $451 1 $451 0 $239 $-1 forward 7 unknown #
vertex $-1 $240 $452 #
ellipse-curve $-1 31.61672048829918 -21.032680534393187 6.2905938367710945 0 -0.66913061440640931 0.74314481823134659 1 0 0 1 I I #
point $-1 32.61672048829918 -23.023123056345369 8.5012041635580324 #
plane-surface $-1 0 0 10.687306922252025 0 0 1 1 0 0 forward_v I I I I #
coedge $-1 $366 $365 $358 $453 forward $244 $-1 #
coedge $-1 $358 $246 $248 $362 reversed $152 $-1 #
coedge $-1 $246 $357 $356 $453 reversed $152 $-1 #
coedge $-1 $254 $249 $246 $360 forward $255 $-1 #
edge $-1 $363 -20.419400924206382 $454 -13.511473395030979 $359 $455 forward 7 unknown #
coedge $-1 $248 $247 $366 $456 reversed $94 $-1 #
edge $-1 $457 -50.902072171959858 $363 -39.149603673281277 $357 $458 forward 7 unknown #
vertex $-1 $250 $459 #
straight-curve $-1 16.063312286084752 18.543108556804512 10.687306922252027 1 0 0 I I #
coedge $-1 $356 $251 $254 $370 reversed $244 $-1 #
coedge $-1 $251 $356 $361 $456 forward $244 $-1 #
vertex $-1 $252 $460 #
straight-curve $-1 26.251122594072477 25.451036085979919 51.111179952739363 0 0 1 I I #
straight-curve $-1 26.251122594072477 -4.4684506744645631 42.360001937371813 0 0.5877852410284794 -0.80901700255871778 I I #
edge $-1 $454 -38.002126550266532 $256 -26.251122594072477 $365 $461 forward 7 unknown #
point $-1 26.251122594072477 25.451036085979919 10.687306922252025 #
point $-1 26.251122594072477 18.543108556804516 10.687306922252027 #
edge $-1 $462 1 $462 0 $259 $-1 forward 7 unknown #
vertex $-1 $260 $463 #
ellipse-curve $-1 28.601323385311289 18.839296279146897 3.6390749820849413 0 0.80901700255871778 0.5877852410284794 1 0 0 1 I I #
point $-1 29.601323385311289 21.997072321392213 5.9333335035186838 #
edge $-1 $464 1 $464 0 $263 $-1 forward 7 unknown #
vertex $-1 $264 $465 #
ellipse-curve $-1 32.126624572169504 18.839296279146897 3.6390749820849413 0 0.80901700255871778 0.5877852410284794 1 0 0 1 I I #
point $-1 33.126624572169504 21.997072321392213 5.9333335035186838 #
edge $-1 $466 1 $466 0 $267 $-1 forward 7 unknown #
vertex $-1 $268 $467 #
ellipse-curve $-1 35.651925759027719 18.839296279146897 3.6390749820849413 0 0.80901700255871778 0.5877852410284794 1 0 0 1 I I #
point $-1 36.651925759027719 21.997072321392213 5.9333335035186838 #
plane-surface $-1 0 25.451036085979919 0 0 -1 0 0 0 -1 forward_v I I I I #
coedge $-1 $391 $468 $274 $388 reversed $272 $-1 #
coedge $-1 $283 $274 $275 $390 reversed $181 $-1 #
edge $-1 $395 -10.687306922252025 $469 10.687306922252025 $386 $470 forward 7 unknown #
coedge $-1 $276 $275 $468 $471 forward $113 $-1 #
edge $-1 $285 -50.921964171269877 $469 50.921964171269877 $387 $472 forward 7 unknown #
coedge $-1 $400 $386 $277 $392 reversed $272 $-1 #
edge $-1 $393 -25.451036085979919 $395 25.451036085979919 $391 $473 forward 7 unknown #
vertex $-1 $278 $474 #
straight-curve $-1 0 25.451036085979919 10.687306922252025 -1 0 0 I I #
vertex $-1 $392 $475 #
straight-curve $-1 0 -25.451036085979919 10.687306922252025 1 0 0 I I #
point $-1 50.921964171269877 -25.451036085979919 10.687306922252025 #
straight-curve $-1 50.921964171269877 -25.451036085979919 0 0 0 -1 I I #
point $-1 50.921964171269877 -25.451036085979919 -10.687306922252025 #
coedge $-1 $468 $391 $287 $401 forward $272 $-1 #
edge $-1 $393 -10.687306922252025 $402 10.687306922252025 $287 $476 forward 7 unknown #
vertex $-1 $288 $477 #
straight-curve $-1 0 25.451036085979919 -10.687306922252025 1 0 0 I I #
plane-surface $-1 0 -25.451036085979919 0 0 1 0 0 0 1 forward_v I I I I #
coedge $-1 $478 $418 $295 $407 forward $292 $-1 #
coedge $-1 $408 $294 $303 $416 forward $196 $-1 #
edge $-1 $411 -2.726801112769055 $409 2.7268011127690546 $295 $479 forward 7 unknown #
coedge $-1 $296 $406 $478 $480 forward $196 $-1 #
vertex $-1 $297 $481 #
straight-curve $-1 -57.381882981771547 25.451036085979919 -8.2632239434312265 1 0 0 I I #
vertex $-1 $298 $482 #
straight-curve $-1 -57.381882981771547 25.451036085979919 -2.8096217178931169 -1 0 0 I I #
point $-1 -50.921964171269877 25.451036085979919 -8.2632239434312265 #
straight-curve $-1 -50.921964171269877 0 -8.2632239434312265 0 1 0 I I #
coedge $-1 $303 $302 $483 $484 forward $304 $-1 #
edge $-1 $305 -6.4599188105016694 $485 6.4599188105016694 $303 $486 forward 7 unknown #
point $-1 -50.921964171269877 -25.451036085979919 -8.2632239434312265 #
coedge $-1 $405 $483 $307 $419 reversed $292 $-1 #
edge $-1 $411 -25.451036085979919 $420 25.451036085979919 $418 $487 forward 7 unknown #
vertex $-1 $419 $488 #
straight-curve $-1 -57.381882981771547 -25.451036085979919 -2.8096217178931169 1 0 0 I I #
plane-surface $-1 0 25.451036085979919 0 0 -1 0 0 0 -1 forward_v I I I I #
coedge $-1 $425 $315 $317 $431 forward $312 $-1 #
coedge $-1 $314 $323 $326 $438 forward $210 $-1 #
coedge $-1 $427 $423 $314 $426 reversed $312 $-1 #
edge $-1 $489 -25.451036085979919 $432 25.451036085979919 $425 $490 forward 7 unknown #
coedge $-1 $315 $425 $437 $491 reversed $312 $-1 #
vertex $-1 $316 $492 #
vertex $-1 $316 $493 #
straight-curve $-1 63.841801792273223 0 -2.8096217178931169 0 1 0 I I #
edge $-1 $428 -2.726801112769055 $432 2.7268011127690546 $423 $494 forward 7 unknown #
vertex $-1 $431 $495 #
straight-curve $-1 57.381882981771554 -25.451036085979919 -8.2632239434312265 -1 0 0 I I #
straight-curve $-1 57.381882981771554 -25.451036085979919 -2.8096217178931169 1 0 0 I I #
point $-1 50.921964171269885 -25.451036085979919 -8.2632239434312265 #
straight-curve $-1 50.921964171269877 0 -8.2632239434312265 0 -1 0 I I #
coedge $-1 $326 $325 $427 $491 forward $327 $-1 #
edge $-1 $328 -6.4599188105016694 $489 6.4599188105016694 $326 $496 forward 7 unknown #
point $-1 50.921964171269885 25.451036085979919 -8.2632239434312265 #
straight-curve $-1 57.381882981771554 25.451036085979919 -2.8096217178931169 -1 0 0 I I #
coedge $-1 $344 $343 $336 $442 forward $333 $-1 #
edge $-1 $443 30.312637588221492 $446 34.684843105609474 $441 $497 forward 7 unknown #
vertex $-1 $348 $498 #
straight-curve $-1 27.326157813269099 -46.798963215692936 10.687306922252027 0 -1 0 I I #
edge $-1 $446 11.517797569119502 $345 20.098922919179692 $344 $499 forward 7 unknown #
vertex $-1 $445 $500 #
straight-curve $-1 27.326157813269099 -25.451036085979922 6.3151014048640377 0 0.74314481823134659 0.66913061440640931 I I #
point $-1 27.326157813269099 -20.59521002671082 10.687306922252025 #
point $-1 35.907283163329289 -25.451036085979919 6.3151014048640413 #
straight-curve $-1 0 -25.451036085979919 10.687306922252025 1 0 0 I I #
vertex $-1 $351 $501 #
point $-1 32.61672048829918 -21.032680534393187 6.2905938367710945 #
edge $-1 $454 40.423873030487336 $457 49.93181986795404 $356 $502 forward 7 unknown #
vertex $-1 $370 $503 #
straight-curve $-1 38.002126550266532 38.962509481010898 10.687306922252027 0 1 0 I I #
edge $-1 $457 -21.938814264181779 $367 -10.187810307987725 $366 $504 forward 7 unknown #
vertex $-1 $456 $505 #
straight-curve $-1 38.002126550266532 -4.4684506744645631 42.360001937371813 0 -0.5877852410284794 0.80901700255871778 I I #
point $-1 38.002126550266532 18.543108556804516 10.687306922252027 #
point $-1 26.251122594072477 25.451036085979919 1.1793600847853227 #
straight-curve $-1 0 25.451036085979919 10.687306922252025 -1 0 0 I I #
vertex $-1 $373 $506 #
point $-1 29.601323385311289 18.839296279146897 3.6390749820849413 #
vertex $-1 $377 $507 #
point $-1 33.126624572169504 18.839296279146897 3.6390749820849413 #
vertex $-1 $381 $508 #
point $-1 36.651925759027719 18.839296279146897 3.6390749820849413 #
coedge $-1 $386 $400 $389 $471 reversed $272 $-1 #
vertex $-1 $471 $509 #
straight-curve $-1 -50.921964171269877 -25.451036085979919 0 0 0 -1 I I #
edge $-1 $469 -25.451036085979919 $402 25.451036085979919 $468 $510 forward 7 unknown #
straight-curve $-1 0 -25.451036085979919 -10.687306922252025 -1 0 0 I I #
straight-curve $-1 -50.921964171269877 0 10.687306922252025 0 -1 0 I I #
point $-1 -50.921964171269877 25.451036085979919 10.687306922252025 #
point $-1 -50.921964171269877 -25.451036085979919 10.687306922252025 #
straight-curve $-1 -50.921964171269877 25.451036085979919 0 0 0 -1 I I #
point $-1 -50.921964171269877 25.451036085979919 -10.687306922252025 #
coedge $-1 $483 $405 $408 $480 reversed $292 $-1 #
straight-curve $-1 -63.841801792273216 25.451036085979919 -5.5364228306621719 0 0 -1 I I #
edge $-1 $485 -25.451036085979919 $409 25.451036085979919 $478 $511 forward 7 unknown #
point $-1 -63.841801792273216 25.451036085979919 -8.2632239434312265 #
point $-1 -63.841801792273216 25.451036085979919 -2.8096217178931169 #
coedge $-1 $418 $478 $415 $484 reversed $292 $-1 #
edge $-1 $420 -2.726801112769055 $485 2.7268011127690546 $483 $512 forward 7 unknown #
vertex $-1 $480 $513 #
straight-curve $-1 -57.381882981771547 -25.451036085979919 -8.2632239434312265 -1 0 0 I I #
straight-curve $-1 -63.841801792273216 0 -2.8096217178931169 0 -1 0 I I #
point $-1 -63.841801792273216 -25.451036085979919 -2.8096217178931169 #
vertex $-1 $426 $514 #
straight-curve $-1 63.841801792273223 0 -8.2632239434312265 0 -1 0 I I #
edge $-1 $429 -2.726801112769055 $489 2.7268011127690546 $427 $515 forward 7 unknown #
point $-1 63.841801792273223 -25.451036085979919 -2.8096217178931169 #
point $-1 63.841801792273223 25.451036085979919 -2.8096217178931169 #
straight-curve $-1 63.841801792273223 -25.451036085979919 -5.5364228306621719 0 0 -1 I I #
point $-1 63.841801792273223 -25.451036085979919 -8.2632239434312265 #
straight-curve $-1 57.381882981771554 25.451036085979919 -8.2632239434312265 1 0 0 I I #
straight-curve $-1 27.326157813269099 -25.451036085979922 40.999944510473519 0 0 -1 I I #
point $-1 27.326157813269099 -25.451036085979919 10.687306922252025 #
straight-curve $-1 15.808360244149597 -25.451036085979919 6.3151014048640448 1 0 0 I I #
point $-1 27.326157813269099 -25.451036085979919 6.3151014048640413 #
point $-1 31.61672048829918 -20.363549919986781 5.5474490185397478 #
straight-curve $-1 38.002126550266532 25.451036085979919 51.111179952739363 0 0 -1 I I #
point $-1 38.002126550266532 25.451036085979919 10.687306922252025 #
straight-curve $-1 16.063312286084752 25.451036085979919 1.1793600847853227 -1 0 0 I I #
point $-1 38.002126550266532 25.451036085979919 1.1793600847853227 #
point $-1 28.601323385311289 18.030279276588178 3.0512897410564621 #
point $-1 32.126624572169504 18.030279276588178 3.0512897410564621 #
point $-1 35.651925759027719 18.030279276588178 3.0512897410564621 #
point $-1 -50.921964171269877 -25.451036085979919 -10.687306922252025 #
straight-curve $-1 -50.921964171269877 0 -10.687306922252025 0 1 0 I I #
straight-curve $-1 -63.841801792273216 0 -8.2632239434312265 0 1 0 I I #
straight-curve $-1 -63.841801792273216 -25.451036085979919 -5.5364228306621719 0 0 -1 I I #
point $-1 -63.841801792273216 -25.451036085979919 -8.2632239434312265 #
point $-1 63.841801792273223 25.451036085979919 -8.2632239434312265 #
straight-curve $-1 63.841801792273223 25.451036085979919 -5.5364228306621719 0 0 -1 I I #
End-of-ACIS-data 