500 0 7 0           
7 Unknown 11 ACIS 5.0 NT 24 Thu Mar 25 15:51:08 1999 
-1 9.9999999999999995e-007 1e-010 
body $-1 $7 $-1 $8 #
body $-1 $9 $-1 $10 #
body $-1 $11 $-1 $12 #
body $-1 $13 $-1 $14 #
body $-1 $15 $-1 $16 #
body $-1 $17 $-1 $18 #
body $-1 $19 $-1 $20 #
lump $-1 $-1 $21 $0 #
transform $-1 1 0 0 0 1 0 0 0 1 59.180272835474717 40.845351245341696 15.51031378949593 1 rotate no_reflect no_shear #
lump $-1 $-1 $22 $1 #
transform $-1 1 0 0 0 1 0 0 0 1 59.180272835474717 40.845351245341696 15.51031378949593 1 rotate no_reflect no_shear #
lump $-1 $-1 $23 $2 #
transform $-1 1 0 0 0 1 0 0 0 1 59.180272835474717 40.845351245341696 15.51031378949593 1 rotate no_reflect no_shear #
lump $-1 $-1 $24 $3 #
transform $-1 1 0 0 0 1 0 0 0 1 59.180272835474717 40.845351245341696 15.51031378949593 1 rotate no_reflect no_shear #
lump $-1 $-1 $25 $4 #
transform $-1 1 0 0 0 1 0 0 0 1 59.180272835474717 40.845351245341696 15.51031378949593 1 rotate no_reflect no_shear #
lump $-1 $-1 $26 $5 #
transform $-1 1 0 0 0 1 0 0 0 1 59.180272835474717 40.845351245341696 15.51031378949593 1 rotate no_reflect no_shear #
lump $-1 $-1 $27 $6 #
transform $-1 1 0 0 0 1 0 0 0 1 59.180272835474717 40.845351245341696 15.51031378949593 1 rotate no_reflect no_shear #
shell $-1 $-1 $-1 $28 $-1 $7 #
shell $-1 $-1 $-1 $29 $-1 $9 #
shell $-1 $-1 $-1 $30 $-1 $11 #
shell $-1 $-1 $-1 $31 $-1 $13 #
shell $-1 $-1 $-1 $32 $-1 $15 #
shell $-1 $-1 $-1 $33 $-1 $17 #
shell $-1 $-1 $-1 $34 $-1 $19 #
face $-1 $35 $36 $21 $-1 $37 reversed single #
face $-1 $38 $39 $22 $-1 $40 forward single #
face $-1 $41 $42 $23 $-1 $43 reversed single #
face $-1 $44 $45 $24 $-1 $46 reversed single #
face $-1 $47 $48 $25 $-1 $49 forward single #
face $-1 $50 $51 $26 $-1 $52 forward single #
face $-1 $53 $54 $27 $-1 $55 forward single #
face $-1 $56 $57 $21 $-1 $58 forward single #
loop $-1 $-1 $59 $28 #
plane-surface $-1 -59.180272835474717 0 0 1 0 0 0 0 -1 forward_v I I I I #
face $-1 $60 $61 $22 $-1 $62 reversed single #
loop $-1 $-1 $63 $29 #
plane-surface $-1 -59.180272835474717 0 0 1 0 0 0 0 -1 forward_v I I I I #
face $-1 $64 $65 $23 $-1 $66 reversed single #
loop $-1 $-1 $67 $30 #
plane-surface $-1 47.961242109243194 -36.200304086685044 0 1 0 0 0 0 -1 forward_v I I I I #
face $-1 $68 $69 $24 $-1 $70 reversed single #
loop $-1 $-1 $71 $31 #
plane-surface $-1 -45.698753720744719 49.34222878771309 149.41919016492491 1 0 0 0 -0.61566148304635926 -0.78801074757464917 forward_v I I I I #
face $-1 $72 $73 $25 $-1 $74 forward single #
loop $-1 $75 $76 $32 #
cone-surface $-1 -41.801718132662536 33.013037177897893 8.5663480151454081 0 -0.61566148304635926 -0.78801074757464917 1.5 0 0 1 I I 0 1 1.5 forward I I I I #
face $-1 $77 $78 $26 $-1 $79 forward single #
loop $-1 $80 $81 $33 #
cone-surface $-1 -35.956164750539259 33.013037177897893 8.5663480151454081 0 -0.61566148304635926 -0.78801074757464917 1.5 0 0 1 I I 0 1 1.5 forward I I I I #
face $-1 $82 $83 $27 $-1 $84 forward single #
loop $-1 $85 $86 $34 #
cone-surface $-1 -30.110611368415981 33.013037177897893 8.5663480151454081 0 -0.61566148304635926 -0.78801074757464917 1.5 0 0 1 I I 0 1 1.5 forward I I I I #
face $-1 $87 $88 $21 $-1 $89 reversed single #
loop $-1 $-1 $90 $35 #
plane-surface $-1 0 0 15.51031378949593 0 0 1 1 0 0 forward_v I I I I #
coedge $-1 $91 $92 $93 $94 reversed $36 $-1 #
face $-1 $95 $96 $22 $-1 $97 reversed single #
loop $-1 $-1 $98 $38 #
plane-surface $-1 0 0 -15.51031378949593 0 0 1 1 0 0 forward_v I I I I #
coedge $-1 $99 $100 $101 $102 forward $39 $-1 #
face $-1 $103 $104 $23 $-1 $105 forward single #
loop $-1 $-1 $106 $41 #
plane-surface $-1 53.570757472358956 -31.555256928028392 0 0 -1 0 0 0 -1 forward_v I I I I #
coedge $-1 $107 $108 $109 $110 forward $42 $-1 #
face $-1 $111 $112 $24 $-1 $113 reversed single #
loop $-1 $-1 $114 $44 #
plane-surface $-1 -35.956164750539259 -23.527800294239974 56.149808087416659 0 0.61566148304635926 0.78801074757464917 1 0 0 forward_v I I I I #
coedge $-1 $115 $116 $117 $118 reversed $45 $-1 #
face $-1 $-1 $119 $25 $-1 $120 forward single #
loop $-1 $121 $122 $47 #
cone-surface $-1 -41.801718132662536 30.897462961610536 5.85853655441006 0 -0.61566148304635926 -0.78801074757464917 0.75 0 0 1 I I -0.70710678118654757 0.70710678118654757 0.75 forward I I I I #
loop $-1 $-1 $123 $32 #
coedge $-1 $76 $76 $124 $125 reversed $48 $-1 #
face $-1 $-1 $126 $26 $-1 $127 forward single #
loop $-1 $128 $129 $50 #
cone-surface $-1 -35.956164750539259 30.897462961610536 5.85853655441006 0 -0.61566148304635926 -0.78801074757464917 0.75 0 0 1 I I -0.70710678118654757 0.70710678118654757 0.75 forward I I I I #
loop $-1 $-1 $130 $33 #
coedge $-1 $81 $81 $131 $132 reversed $51 $-1 #
face $-1 $-1 $133 $27 $-1 $134 forward single #
loop $-1 $135 $136 $53 #
cone-surface $-1 -30.110611368415981 30.897462961610536 5.85853655441006 0 -0.61566148304635926 -0.78801074757464917 0.75 0 0 1 I I -0.70710678118654757 0.70710678118654757 0.75 forward I I I I #
loop $-1 $-1 $137 $34 #
coedge $-1 $86 $86 $138 $139 reversed $54 $-1 #
face $-1 $140 $141 $21 $-1 $142 reversed single #
loop $-1 $-1 $143 $56 #
plane-surface $-1 0 0 -15.51031378949593 0 0 1 1 0 0 forward_v I I I I #
coedge $-1 $144 $145 $146 $147 forward $57 $-1 #
coedge $-1 $148 $59 $149 $150 reversed $36 $-1 #
coedge $-1 $59 $148 $151 $152 forward $36 $-1 #
coedge $-1 $153 $154 $59 $94 forward $88 $-1 #
edge $-1 $155 -40.845351245341696 $156 40.845351245341696 $59 $157 forward 7 unknown #
face $-1 $158 $159 $22 $-1 $160 reversed single #
loop $-1 $-1 $161 $60 #
plane-surface $-1 -65.92103239283972 -18.320912582261041 0 0 1 0 0 0 1 forward_v I I I I #
coedge $-1 $162 $163 $100 $164 forward $61 $-1 #
coedge $-1 $165 $63 $166 $167 reversed $39 $-1 #
coedge $-1 $63 $165 $98 $164 reversed $39 $-1 #
coedge $-1 $168 $169 $63 $102 reversed $170 $-1 #
edge $-1 $171 -15.51031378949593 $172 15.51031378949593 $101 $173 forward 7 unknown #
face $-1 $174 $175 $23 $-1 $176 reversed single #
loop $-1 $-1 $177 $64 #
plane-surface $-1 0 0 15.51031378949593 0 0 1 1 0 0 forward_v I I I I #
coedge $-1 $178 $179 $180 $181 reversed $65 $-1 #
coedge $-1 $182 $67 $183 $184 reversed $42 $-1 #
coedge $-1 $67 $182 $185 $186 reversed $42 $-1 #
coedge $-1 $179 $178 $67 $110 reversed $65 $-1 #
edge $-1 $187 -15.51031378949593 $188 15.51031378949593 $109 $189 forward 7 unknown #
face $-1 $190 $191 $24 $-1 $192 reversed single #
loop $-1 $-1 $193 $68 #
plane-surface $-1 -26.213575780333798 49.34222878771309 149.41919016492491 -1 0 0 0 0.61566148304635926 0.78801074757464917 forward_v I I I I #
coedge $-1 $194 $195 $196 $197 reversed $69 $-1 #
coedge $-1 $116 $71 $198 $199 reversed $45 $-1 #
coedge $-1 $71 $115 $194 $200 reversed $45 $-1 #
coedge $-1 $196 $201 $71 $118 forward $202 $-1 #
edge $-1 $203 -16.174236851485151 $204 -3.8172649246027071 $117 $205 forward 7 unknown #
loop $-1 $-1 $124 $72 #
plane-surface $-1 -35.956164750539259 -23.527800294239974 56.149808087416659 0 0.61566148304635926 0.78801074757464917 1 0 0 forward_v I I I I #
loop $-1 $-1 $206 $47 #
coedge $-1 $122 $122 $123 $207 reversed $73 $-1 #
coedge $-1 $123 $123 $122 $207 forward $75 $-1 #
coedge $-1 $124 $124 $76 $125 forward $119 $-1 #
edge $-1 $208 2.2745894343807507e-015 $208 6.2831853071796031 $124 $209 forward 7 unknown #
loop $-1 $-1 $131 $77 #
plane-surface $-1 -35.956164750539259 -23.527800294239974 56.149808087416659 0 0.61566148304635926 0.78801074757464917 1 0 0 forward_v I I I I #
loop $-1 $-1 $210 $50 #
coedge $-1 $129 $129 $130 $211 reversed $78 $-1 #
coedge $-1 $130 $130 $129 $211 forward $80 $-1 #
coedge $-1 $131 $131 $81 $132 forward $126 $-1 #
edge $-1 $212 2.2745894343807507e-015 $212 6.2831853071796031 $131 $213 forward 7 unknown #
loop $-1 $-1 $138 $82 #
plane-surface $-1 -35.956164750539259 -23.527800294239974 56.149808087416659 0 0.61566148304635926 0.78801074757464917 1 0 0 forward_v I I I I #
loop $-1 $-1 $214 $53 #
coedge $-1 $136 $136 $137 $215 reversed $83 $-1 #
coedge $-1 $137 $137 $136 $215 forward $85 $-1 #
coedge $-1 $138 $138 $86 $139 forward $133 $-1 #
edge $-1 $216 2.2745894343807507e-015 $216 6.2831853071796031 $138 $217 forward 7 unknown #
face $-1 $218 $219 $21 $-1 $220 reversed single #
loop $-1 $-1 $149 $87 #
plane-surface $-1 0 -40.845351245341696 0 0 1 0 0 0 1 forward_v I I I I #
coedge $-1 $154 $153 $221 $222 forward $88 $-1 #
coedge $-1 $223 $90 $224 $225 forward $57 $-1 #
coedge $-1 $90 $223 $226 $227 forward $57 $-1 #
coedge $-1 $228 $229 $90 $147 reversed $230 $-1 #
edge $-1 $231 -40.845351245341696 $232 40.845351245341696 $146 $233 forward 7 unknown #
coedge $-1 $92 $91 $223 $234 reversed $36 $-1 #
coedge $-1 $235 $226 $91 $150 forward $141 $-1 #
edge $-1 $236 -15.51031378949593 $155 15.51031378949593 $91 $237 forward 7 unknown #
coedge $-1 $224 $238 $92 $152 reversed $219 $-1 #
edge $-1 $239 -15.51031378949593 $156 15.51031378949593 $151 $240 forward 7 unknown #
coedge $-1 $143 $93 $238 $241 forward $88 $-1 #
coedge $-1 $93 $143 $235 $242 forward $88 $-1 #
vertex $-1 $94 $243 #
vertex $-1 $241 $244 #
straight-curve $-1 -59.180272835474717 0 -15.51031378949593 0 1 0 I I #
face $-1 $245 $170 $22 $-1 $246 reversed single #
loop $-1 $-1 $247 $95 #
plane-surface $-1 -72.661791950204716 -14.072818124305439 0 1 0 0 0 0 -1 forward_v I I I I #
coedge $-1 $248 $249 $250 $251 forward $96 $-1 #
coedge $-1 $252 $98 $248 $253 forward $61 $-1 #
coedge $-1 $98 $252 $168 $254 forward $61 $-1 #
edge $-1 $171 9.8247236663498363 $255 18.320912582261041 $98 $256 forward 7 unknown #
coedge $-1 $100 $99 $257 $258 forward $39 $-1 #
coedge $-1 $259 $260 $99 $167 forward $261 $-1 #
edge $-1 $262 -18.320912582261041 $172 -9.8247236663498363 $166 $263 forward 7 unknown #
coedge $-1 $264 $101 $163 $254 reversed $170 $-1 #
coedge $-1 $101 $264 $259 $265 reversed $170 $-1 #
loop $-1 $-1 $101 $158 #
vertex $-1 $164 $266 #
vertex $-1 $265 $267 #
straight-curve $-1 -59.180272835474717 -9.8247236663498363 0 0 0 1 I I #
face $-1 $268 $269 $23 $-1 $270 reversed single #
loop $-1 $-1 $271 $103 #
plane-surface $-1 0 -40.845351245341696 0 0 1 0 0 0 1 forward_v I I I I #
coedge $-1 $185 $272 $179 $273 forward $104 $-1 #
coedge $-1 $109 $106 $274 $275 reversed $65 $-1 #
coedge $-1 $106 $109 $177 $273 reversed $65 $-1 #
coedge $-1 $276 $277 $106 $181 forward $278 $-1 #
edge $-1 $279 -15.51031378949593 $280 15.51031378949593 $180 $281 forward 7 unknown #
coedge $-1 $108 $107 $271 $282 reversed $42 $-1 #
coedge $-1 $274 $283 $107 $184 forward $269 $-1 #
edge $-1 $284 -22.745199201999174 $188 -13.45510488468587 $183 $285 forward 7 unknown #
coedge $-1 $286 $177 $108 $186 forward $104 $-1 #
edge $-1 $187 13.45510488468587 $287 22.745199201999174 $185 $288 forward 7 unknown #
vertex $-1 $186 $289 #
vertex $-1 $184 $290 #
straight-curve $-1 47.961242109243194 -31.555256928028392 0 0 0 -1 I I #
face $-1 $-1 $202 $24 $-1 $291 forward single #
loop $-1 $-1 $292 $111 #
plane-surface $-1 0 40.845351245341696 0 0 -1 0 0 0 -1 forward_v I I I I #
coedge $-1 $293 $294 $295 $296 reversed $112 $-1 #
coedge $-1 $297 $114 $116 $200 forward $69 $-1 #
coedge $-1 $114 $297 $293 $298 forward $69 $-1 #
coedge $-1 $295 $117 $114 $197 forward $202 $-1 #
edge $-1 $204 -27.72067134547509 $299 -8.2354934050641688 $196 $300 forward 7 unknown #
coedge $-1 $301 $302 $115 $199 forward $191 $-1 #
edge $-1 $303 -68.853606041558848 $203 -59.199281292966525 $198 $304 forward 7 unknown #
edge $-1 $204 66.009479912292278 $303 81.690702490683378 $116 $305 forward 7 unknown #
coedge $-1 $117 $295 $301 $306 forward $202 $-1 #
loop $-1 $-1 $295 $190 #
vertex $-1 $199 $307 #
vertex $-1 $118 $308 #
straight-curve $-1 -45.698753720744719 24.671114393856545 15.510313789495925 0 -1 0 I I #
coedge $-1 $206 $206 $-1 $309 reversed $121 $-1 #
edge $-1 $310 0 $310 6.2831853071796004 $122 $311 forward 7 unknown #
vertex $-1 $125 $312 #
ellipse-curve $-1 -41.801718132662536 34.666865281900478 10.683151415199767 0 0.61566148304635926 0.78801074757464917 1.5 0 0 1 I I #
coedge $-1 $210 $210 $-1 $313 reversed $128 $-1 #
edge $-1 $314 0 $314 6.2831853071796004 $129 $315 forward 7 unknown #
vertex $-1 $132 $316 #
ellipse-curve $-1 -35.956164750539259 34.666865281900478 10.683151415199767 0 0.61566148304635926 0.78801074757464917 1.5 0 0 1 I I #
coedge $-1 $214 $214 $-1 $317 reversed $135 $-1 #
edge $-1 $318 0 $318 6.2831853071796004 $136 $319 forward 7 unknown #
vertex $-1 $139 $320 #
ellipse-curve $-1 -30.110611368415981 34.666865281900478 10.683151415199767 0 0.61566148304635926 0.78801074757464917 1.5 0 0 1 I I #
face $-1 $-1 $230 $21 $-1 $321 reversed single #
loop $-1 $-1 $322 $140 #
plane-surface $-1 0 40.845351245341696 0 0 -1 0 0 0 -1 forward_v I I I I #
coedge $-1 $229 $228 $143 $222 reversed $230 $-1 #
edge $-1 $323 -40.845351245341696 $324 40.845351245341696 $221 $325 forward 7 unknown #
coedge $-1 $145 $144 $148 $234 forward $57 $-1 #
coedge $-1 $322 $151 $144 $225 reversed $219 $-1 #
edge $-1 $232 -59.180272835474717 $239 59.180272835474717 $224 $326 forward 7 unknown #
coedge $-1 $149 $327 $145 $227 reversed $141 $-1 #
edge $-1 $236 -59.180272835474717 $231 59.180272835474717 $226 $328 forward 7 unknown #
coedge $-1 $221 $146 $327 $329 forward $230 $-1 #
coedge $-1 $146 $221 $322 $330 reversed $230 $-1 #
loop $-1 $-1 $228 $218 #
vertex $-1 $147 $331 #
vertex $-1 $147 $332 #
straight-curve $-1 59.180272835474717 0 15.51031378949593 0 1 0 I I #
edge $-1 $239 -40.845351245341696 $236 40.845351245341696 $148 $333 forward 7 unknown #
coedge $-1 $327 $149 $154 $242 reversed $141 $-1 #
vertex $-1 $234 $334 #
straight-curve $-1 -59.180272835474717 -40.845351245341696 0 0 0 -1 I I #
coedge $-1 $151 $322 $153 $241 reversed $219 $-1 #
vertex $-1 $225 $335 #
straight-curve $-1 -59.180272835474717 40.845351245341696 0 0 0 -1 I I #
edge $-1 $156 -59.180272835474717 $323 59.180272835474717 $238 $336 forward 7 unknown #
edge $-1 $324 -59.180272835474717 $155 59.180272835474717 $235 $337 forward 7 unknown #
point $-1 -59.180272835474717 -40.845351245341696 -15.51031378949593 #
point $-1 -59.180272835474717 40.845351245341696 -15.51031378949593 #
face $-1 $-1 $261 $22 $-1 $338 forward single #
plane-surface $-1 -65.92103239283972 -9.8247236663498363 0 0 -1 0 0 0 -1 forward_v I I I I #
coedge $-1 $339 $340 $264 $341 forward $159 $-1 #
coedge $-1 $257 $161 $162 $253 reversed $96 $-1 #
coedge $-1 $161 $257 $260 $342 reversed $96 $-1 #
coedge $-1 $340 $339 $161 $251 reversed $159 $-1 #
edge $-1 $343 -15.51031378949593 $344 15.51031378949593 $250 $345 forward 7 unknown #
coedge $-1 $163 $162 $339 $346 forward $61 $-1 #
edge $-1 $255 -6.7407595573649957 $344 6.7407595573649957 $248 $347 forward 7 unknown #
edge $-1 $348 -6.7407595573649957 $171 6.7407595573649957 $168 $349 forward 7 unknown #
vertex $-1 $253 $350 #
straight-curve $-1 -59.180272835474717 0 -15.51031378949593 0 -1 0 I I #
coedge $-1 $249 $248 $165 $258 reversed $96 $-1 #
edge $-1 $262 -15.51031378949593 $255 15.51031378949593 $257 $351 forward 7 unknown #
coedge $-1 $352 $166 $169 $265 forward $261 $-1 #
coedge $-1 $166 $352 $249 $342 forward $261 $-1 #
loop $-1 $-1 $166 $245 #
vertex $-1 $167 $353 #
straight-curve $-1 -59.180272835474717 0 15.51031378949593 0 1 0 I I #
coedge $-1 $169 $168 $247 $341 reversed $170 $-1 #
edge $-1 $172 -6.7407595573649957 $354 6.7407595573649957 $169 $355 forward 7 unknown #
point $-1 -59.180272835474725 -9.8247236663498363 -15.51031378949593 #
point $-1 -59.180272835474725 -9.8247236663498363 15.51031378949593 #
face $-1 $-1 $278 $23 $-1 $356 reversed single #
loop $-1 $-1 $274 $174 #
plane-surface $-1 0 0 -15.51031378949593 0 0 1 1 0 0 forward_v I I I I #
coedge $-1 $357 $358 $182 $282 forward $175 $-1 #
coedge $-1 $177 $286 $276 $359 forward $104 $-1 #
edge $-1 $280 -32.394894099295243 $187 -21.175863373063716 $177 $360 forward 7 unknown #
coedge $-1 $361 $183 $178 $275 forward $269 $-1 #
edge $-1 $188 21.175863373063716 $279 32.394894099295243 $274 $362 forward 7 unknown #
coedge $-1 $363 $180 $272 $359 reversed $278 $-1 #
coedge $-1 $180 $363 $361 $364 reversed $278 $-1 #
loop $-1 $-1 $180 $268 #
vertex $-1 $364 $365 #
vertex $-1 $273 $366 #
straight-curve $-1 59.180272835474717 -31.555256928028392 0 0 0 1 I I #
edge $-1 $287 -15.51031378949593 $284 15.51031378949593 $271 $367 forward 7 unknown #
coedge $-1 $183 $361 $357 $368 forward $269 $-1 #
vertex $-1 $282 $369 #
straight-curve $-1 47.961242109243194 -18.100152043342522 -15.51031378949593 0 1 0 I I #
coedge $-1 $272 $185 $358 $370 forward $104 $-1 #
vertex $-1 $370 $371 #
straight-curve $-1 47.961242109243194 -18.100152043342522 15.51031378949593 0 -1 0 I I #
point $-1 47.961242109243194 -31.555256928028392 15.51031378949593 #
point $-1 47.961242109243194 -31.555256928028392 -15.51031378949593 #
plane-surface $-1 0 0 15.51031378949593 0 0 1 1 0 0 forward_v I I I I #
coedge $-1 $302 $301 $294 $372 forward $191 $-1 #
coedge $-1 $294 $193 $195 $298 reversed $112 $-1 #
coedge $-1 $193 $293 $292 $372 reversed $112 $-1 #
coedge $-1 $201 $196 $193 $296 forward $202 $-1 #
edge $-1 $299 3.8172649246027071 $373 16.174236851485151 $295 $374 forward 7 unknown #
coedge $-1 $195 $194 $302 $375 reversed $69 $-1 #
edge $-1 $376 -81.690702490683378 $299 -66.009479912292278 $293 $377 forward 7 unknown #
vertex $-1 $197 $378 #
straight-curve $-1 -17.978082375269629 28.488379318459256 15.510313789495932 1 0 0 I I #
coedge $-1 $292 $198 $201 $306 reversed $191 $-1 #
coedge $-1 $198 $292 $297 $375 forward $191 $-1 #
vertex $-1 $199 $379 #
straight-curve $-1 -45.698753720744719 40.845351245341696 74.709595082462457 0 0 1 I I #
straight-curve $-1 -45.698753720744719 -23.527800294239974 56.149808087416659 0 0.78801074757464917 -0.61566148304635926 I I #
edge $-1 $373 26.213575780333798 $203 45.698753720744719 $301 $380 forward 7 unknown #
point $-1 -45.698753720744719 40.845351245341696 15.51031378949593 #
point $-1 -45.698753720744719 28.488379318459252 15.510313789495932 #
edge $-1 $381 1 $381 0 $206 $-1 forward 7 unknown #
vertex $-1 $207 $382 #
ellipse-curve $-1 -41.801718132662536 31.359209073895304 6.4495446150910469 0 0.61566148304635926 0.78801074757464917 1.5 0 0 1 I I #
point $-1 -40.301718132662536 34.666865281900485 10.68315141519977 #
edge $-1 $383 1 $383 0 $210 $-1 forward 7 unknown #
vertex $-1 $211 $384 #
ellipse-curve $-1 -35.956164750539259 31.359209073895304 6.4495446150910469 0 0.61566148304635926 0.78801074757464917 1.5 0 0 1 I I #
point $-1 -34.456164750539259 34.666865281900485 10.68315141519977 #
edge $-1 $385 1 $385 0 $214 $-1 forward 7 unknown #
vertex $-1 $215 $386 #
ellipse-curve $-1 -30.110611368415981 31.359209073895304 6.4495446150910469 0 0.61566148304635926 0.78801074757464917 1.5 0 0 1 I I #
point $-1 -28.610611368415981 34.666865281900485 10.68315141519977 #
plane-surface $-1 59.180272835474717 0 0 -1 0 0 0 0 1 forward_v I I I I #
coedge $-1 $238 $224 $229 $330 forward $219 $-1 #
vertex $-1 $222 $387 #
vertex $-1 $329 $388 #
straight-curve $-1 59.180272835474717 0 -15.51031378949593 0 -1 0 I I #
straight-curve $-1 0 40.845351245341696 15.51031378949593 -1 0 0 I I #
coedge $-1 $226 $235 $228 $329 reversed $141 $-1 #
straight-curve $-1 0 -40.845351245341696 15.51031378949593 1 0 0 I I #
edge $-1 $231 -15.51031378949593 $324 15.51031378949593 $228 $389 forward 7 unknown #
edge $-1 $232 -15.51031378949593 $323 15.51031378949593 $229 $390 forward 7 unknown #
point $-1 59.180272835474717 -40.845351245341696 15.51031378949593 #
point $-1 59.180272835474717 40.845351245341696 15.51031378949593 #
straight-curve $-1 -59.180272835474717 0 15.51031378949593 0 -1 0 I I #
point $-1 -59.180272835474717 -40.845351245341696 15.51031378949593 #
point $-1 -59.180272835474717 40.845351245341696 15.51031378949593 #
straight-curve $-1 0 40.845351245341696 -15.51031378949593 1 0 0 I I #
straight-curve $-1 0 -40.845351245341696 -15.51031378949593 -1 0 0 I I #
plane-surface $-1 0 0 15.51031378949593 0 0 1 1 0 0 forward_v I I I I #
coedge $-1 $250 $247 $252 $346 reversed $159 $-1 #
coedge $-1 $247 $250 $352 $391 reversed $159 $-1 #
edge $-1 $354 -15.51031378949593 $348 15.51031378949593 $264 $392 forward 7 unknown #
edge $-1 $343 -6.7407595573649957 $262 6.7407595573649957 $249 $393 forward 7 unknown #
vertex $-1 $391 $394 #
vertex $-1 $346 $395 #
straight-curve $-1 -72.661791950204716 -18.320912582261041 0 0 0 -1 I I #
edge $-1 $344 -4.2480944579556024 $348 4.2480944579556024 $339 $396 forward 7 unknown #
straight-curve $-1 -65.92103239283972 -18.320912582261041 -15.51031378949593 -1 0 0 I I #
vertex $-1 $254 $397 #
straight-curve $-1 -65.92103239283972 -9.8247236663498363 -15.51031378949593 1 0 0 I I #
point $-1 -59.180272835474725 -18.320912582261041 -15.51031378949593 #
straight-curve $-1 -59.180272835474717 -18.320912582261041 0 0 0 -1 I I #
coedge $-1 $260 $259 $340 $391 forward $261 $-1 #
point $-1 -59.180272835474725 -18.320912582261041 15.51031378949593 #
vertex $-1 $265 $398 #
straight-curve $-1 -65.92103239283972 -9.8247236663498363 15.51031378949593 -1 0 0 I I #
plane-surface $-1 59.180272835474717 0 0 -1 0 0 0 0 1 forward_v I I I I #
coedge $-1 $399 $271 $283 $368 reversed $175 $-1 #
coedge $-1 $271 $399 $286 $370 reversed $175 $-1 #
edge $-1 $400 -40.845351245341696 $280 -31.555256928028392 $276 $401 forward 7 unknown #
straight-curve $-1 26.785378736179478 -31.555256928028392 15.51031378949593 -1 0 0 I I #
coedge $-1 $283 $274 $277 $364 forward $269 $-1 #
straight-curve $-1 26.785378736179478 -31.555256928028392 -15.51031378949593 1 0 0 I I #
coedge $-1 $277 $276 $399 $402 forward $278 $-1 #
edge $-1 $279 31.555256928028392 $403 40.845351245341696 $277 $404 forward 7 unknown #
point $-1 59.180272835474717 -31.555256928028392 -15.51031378949593 #
point $-1 59.180272835474717 -31.555256928028392 15.51031378949593 #
straight-curve $-1 47.961242109243194 -40.845351245341696 0 0 0 -1 I I #
edge $-1 $403 -59.180272835474717 $284 -47.961242109243194 $357 $405 forward 7 unknown #
point $-1 47.961242109243194 -40.845351245341696 -15.51031378949593 #
edge $-1 $287 47.961242109243194 $400 59.180272835474717 $358 $406 forward 7 unknown #
point $-1 47.961242109243194 -40.845351245341696 15.51031378949593 #
edge $-1 $373 59.199281292966525 $376 68.853606041558848 $292 $407 forward 7 unknown #
vertex $-1 $306 $408 #
straight-curve $-1 -26.213575780333798 24.671114393856545 15.510313789495925 0 1 0 I I #
edge $-1 $376 8.2354934050641688 $303 27.72067134547509 $302 $409 forward 7 unknown #
vertex $-1 $375 $410 #
straight-curve $-1 -26.213575780333798 -23.527800294239974 56.149808087416659 0 -0.78801074757464917 0.61566148304635926 I I #
point $-1 -26.213575780333798 28.488379318459252 15.510313789495932 #
point $-1 -45.698753720744719 40.845351245341696 5.8559890409036086 #
straight-curve $-1 0 40.845351245341696 15.51031378949593 -1 0 0 I I #
vertex $-1 $309 $411 #
point $-1 -40.301718132662536 31.359209073895304 6.4495446150910469 #
vertex $-1 $313 $412 #
point $-1 -34.456164750539259 31.359209073895304 6.4495446150910469 #
vertex $-1 $317 $413 #
point $-1 -28.610611368415981 31.359209073895304 6.4495446150910469 #
point $-1 59.180272835474717 40.845351245341696 -15.51031378949593 #
point $-1 59.180272835474717 -40.845351245341696 -15.51031378949593 #
straight-curve $-1 59.180272835474717 -40.845351245341696 0 0 0 -1 I I #
straight-curve $-1 59.180272835474717 40.845351245341696 0 0 0 -1 I I #
edge $-1 $354 -4.2480944579556024 $343 4.2480944579556024 $340 $414 forward 7 unknown #
straight-curve $-1 -72.661791950204716 -9.8247236663498363 0 0 0 -1 I I #
straight-curve $-1 -65.92103239283972 -18.320912582261041 15.51031378949593 1 0 0 I I #
point $-1 -72.661791950204716 -18.320912582261041 15.51031378949593 #
point $-1 -72.661791950204716 -18.320912582261041 -15.51031378949593 #
straight-curve $-1 -72.661791950204716 -14.072818124305439 -15.51031378949593 0 1 0 I I #
point $-1 -72.661791950204716 -9.8247236663498363 -15.51031378949593 #
point $-1 -72.661791950204716 -9.8247236663498363 15.51031378949593 #
coedge $-1 $358 $357 $363 $402 reversed $175 $-1 #
vertex $-1 $359 $415 #
straight-curve $-1 59.180272835474717 0 15.51031378949593 0 1 0 I I #
edge $-1 $400 -15.51031378949593 $403 15.51031378949593 $363 $416 forward 7 unknown #
vertex $-1 $402 $417 #
straight-curve $-1 59.180272835474717 0 -15.51031378949593 0 -1 0 I I #
straight-curve $-1 0 -40.845351245341696 -15.51031378949593 -1 0 0 I I #
straight-curve $-1 0 -40.845351245341696 15.51031378949593 1 0 0 I I #
straight-curve $-1 -26.213575780333798 40.845351245341696 74.709595082462457 0 0 -1 I I #
point $-1 -26.213575780333798 40.845351245341696 15.51031378949593 #
straight-curve $-1 -17.978082375269629 40.845351245341696 5.8559890409036122 -1 0 0 I I #
point $-1 -26.213575780333798 40.845351245341696 5.8559890409036086 #
point $-1 -41.801718132662536 30.435716849325768 5.2675284937290732 #
point $-1 -35.956164750539259 30.435716849325768 5.2675284937290732 #
point $-1 -30.110611368415981 30.435716849325768 5.2675284937290732 #
straight-curve $-1 -72.661791950204716 -14.072818124305439 15.51031378949593 0 -1 0 I I #
point $-1 59.180272835474717 -40.845351245341696 15.51031378949593 #
straight-curve $-1 59.180272835474717 -40.845351245341696 0 0 0 -1 I I #
point $-1 59.180272835474717 -40.845351245341696 -15.51031378949593 #
End-of-ACIS-data 