500 0 19 0           
7 Unknown 11 ACIS 5.0 NT 24 Thu Mar 25 21:28:45 1999 
-1 9.9999999999999995e-007 1e-010 
body $-1 $19 $-1 $20 #
body $-1 $21 $-1 $22 #
body $-1 $23 $-1 $24 #
body $-1 $25 $-1 $26 #
body $-1 $27 $-1 $28 #
body $-1 $29 $-1 $30 #
body $-1 $31 $-1 $32 #
body $-1 $33 $-1 $34 #
body $-1 $35 $-1 $36 #
body $-1 $37 $-1 $38 #
body $-1 $39 $-1 $40 #
body $-1 $41 $-1 $42 #
body $-1 $43 $-1 $44 #
body $-1 $45 $-1 $46 #
body $-1 $47 $-1 $48 #
body $-1 $49 $-1 $50 #
body $-1 $51 $-1 $52 #
body $-1 $53 $-1 $54 #
body $-1 $55 $-1 $56 #
lump $-1 $-1 $57 $0 #
transform $-1 1 0 0 0 1 0 0 0 1 59.204687643055514 33.068041363815574 7.3532416696423057 1 rotate no_reflect no_shear #
lump $-1 $-1 $58 $1 #
transform $-1 1 0 0 0 1 0 0 0 1 59.204687643055514 33.068041363815574 7.3532416696423057 1 rotate no_reflect no_shear #
lump $-1 $-1 $59 $2 #
transform $-1 1 0 0 0 1 0 0 0 1 59.204687643055514 33.068041363815574 7.3532416696423057 1 rotate no_reflect no_shear #
lump $-1 $-1 $60 $3 #
transform $-1 1 0 0 0 1 0 0 0 1 59.204687643055514 33.068041363815574 7.3532416696423057 1 rotate no_reflect no_shear #
lump $-1 $-1 $61 $4 #
transform $-1 1 0 0 0 1 0 0 0 1 59.204687643055514 33.068041363815574 7.3532416696423057 1 rotate no_reflect no_shear #
lump $-1 $-1 $62 $5 #
transform $-1 1 0 0 0 1 0 0 0 1 59.204687643055514 33.068041363815574 7.3532416696423057 1 rotate no_reflect no_shear #
lump $-1 $-1 $63 $6 #
transform $-1 1 0 0 0 1 0 0 0 1 59.204687643055514 33.068041363815574 7.3532416696423057 1 rotate no_reflect no_shear #
lump $-1 $-1 $64 $7 #
transform $-1 1 0 0 0 1 0 0 0 1 59.204687643055514 33.068041363815574 7.3532416696423057 1 rotate no_reflect no_shear #
lump $-1 $-1 $65 $8 #
transform $-1 1 0 0 0 1 0 0 0 1 59.204687643055514 33.068041363815574 7.3532416696423057 1 rotate no_reflect no_shear #
lump $-1 $-1 $66 $9 #
transform $-1 1 0 0 0 1 0 0 0 1 59.204687643055514 33.068041363815574 7.3532416696423057 1 rotate no_reflect no_shear #
lump $-1 $-1 $67 $10 #
transform $-1 1 0 0 0 1 0 0 0 1 59.204687643055514 33.068041363815574 7.3532416696423057 1 rotate no_reflect no_shear #
lump $-1 $-1 $68 $11 #
transform $-1 1 0 0 0 1 0 0 0 1 59.204687643055514 33.068041363815574 7.3532416696423057 1 rotate no_reflect no_shear #
lump $-1 $-1 $69 $12 #
transform $-1 1 0 0 0 1 0 0 0 1 59.204687643055514 33.068041363815574 7.3532416696423057 1 rotate no_reflect no_shear #
lump $-1 $-1 $70 $13 #
transform $-1 1 0 0 0 1 0 0 0 1 59.204687643055514 33.068041363815574 7.3532416696423057 1 rotate no_reflect no_shear #
lump $-1 $-1 $71 $14 #
transform $-1 1 0 0 0 1 0 0 0 1 59.204687643055514 33.068041363815574 7.3532416696423057 1 rotate no_reflect no_shear #
lump $-1 $-1 $72 $15 #
transform $-1 1 0 0 0 1 0 0 0 1 59.204687643055514 33.068041363815574 7.3532416696423057 1 rotate no_reflect no_shear #
lump $-1 $-1 $73 $16 #
transform $-1 1 0 0 0 1 0 0 0 1 59.204687643055514 33.068041363815574 7.3532416696423057 1 rotate no_reflect no_shear #
lump $-1 $-1 $74 $17 #
transform $-1 1 0 0 0 1 0 0 0 1 59.204687643055514 33.068041363815574 7.3532416696423057 1 rotate no_reflect no_shear #
lump $-1 $-1 $75 $18 #
transform $-1 1 0 0 0 1 0 0 0 1 59.204687643055514 33.068041363815574 7.3532416696423057 1 rotate no_reflect no_shear #
shell $-1 $-1 $-1 $76 $-1 $19 #
shell $-1 $-1 $-1 $77 $-1 $21 #
shell $-1 $-1 $-1 $78 $-1 $23 #
shell $-1 $-1 $-1 $79 $-1 $25 #
shell $-1 $-1 $-1 $80 $-1 $27 #
shell $-1 $-1 $-1 $81 $-1 $29 #
shell $-1 $-1 $-1 $82 $-1 $31 #
shell $-1 $-1 $-1 $83 $-1 $33 #
shell $-1 $-1 $-1 $84 $-1 $35 #
shell $-1 $-1 $-1 $85 $-1 $37 #
shell $-1 $-1 $-1 $86 $-1 $39 #
shell $-1 $-1 $-1 $87 $-1 $41 #
shell $-1 $-1 $-1 $88 $-1 $43 #
shell $-1 $-1 $-1 $89 $-1 $45 #
shell $-1 $-1 $-1 $90 $-1 $47 #
shell $-1 $-1 $-1 $91 $-1 $49 #
shell $-1 $-1 $-1 $92 $-1 $51 #
shell $-1 $-1 $-1 $93 $-1 $53 #
shell $-1 $-1 $-1 $94 $-1 $55 #
face $-1 $95 $96 $57 $-1 $97 forward single #
face $-1 $98 $99 $58 $-1 $100 forward single #
face $-1 $101 $102 $59 $-1 $103 forward single #
face $-1 $104 $105 $60 $-1 $106 reversed single #
face $-1 $107 $108 $61 $-1 $109 forward single #
face $-1 $110 $111 $62 $-1 $112 forward single #
face $-1 $113 $114 $63 $-1 $115 forward single #
face $-1 $116 $117 $64 $-1 $118 reversed single #
face $-1 $119 $120 $65 $-1 $121 forward single #
face $-1 $122 $123 $66 $-1 $124 forward single #
face $-1 $125 $126 $67 $-1 $127 forward single #
face $-1 $128 $129 $68 $-1 $130 reversed single #
face $-1 $131 $132 $69 $-1 $133 forward single #
face $-1 $134 $135 $70 $-1 $136 forward single #
face $-1 $137 $138 $71 $-1 $139 forward single #
face $-1 $140 $141 $72 $-1 $142 reversed single #
face $-1 $143 $144 $73 $-1 $145 forward single #
face $-1 $146 $147 $74 $-1 $148 forward single #
face $-1 $149 $150 $75 $-1 $151 forward single #
face $-1 $152 $153 $57 $-1 $154 reversed single #
loop $-1 $-1 $155 $76 #
plane-surface $-1 0 0 7.3532416696423057 0 0 1 1 0 0 forward_v I I I I #
face $-1 $156 $157 $58 $-1 $158 forward single #
loop $-1 $-1 $159 $77 #
plane-surface $-1 -59.204687643055514 0 0 1 0 0 0 0 -1 forward_v I I I I #
face $-1 $160 $161 $59 $-1 $162 reversed single #
loop $-1 $-1 $163 $78 #
plane-surface $-1 59.204687643055514 0 0 -1 0 0 0 0 1 forward_v I I I I #
face $-1 $164 $165 $60 $-1 $166 reversed single #
loop $-1 $-1 $167 $79 #
plane-surface $-1 -29.383256581622039 -119.66717726433328 81.670897270351716 -1 0 0 0 -0.73135370988377701 0.68199835119979291 forward_v I I I I #
face $-1 $168 $169 $61 $-1 $170 forward single #
loop $-1 $171 $172 $80 #
cone-surface $-1 -42.958689333129328 -29.100646581952947 3.2338211091942606 0 0.73135370988377701 -0.68199835119979291 1 0 0 1 I I 0 1 1 forward I I I I #
face $-1 $173 $174 $62 $-1 $175 forward single #
loop $-1 $176 $177 $81 #
cone-surface $-1 -37.867902051314097 -29.100646581952947 3.2338211091942606 0 0.73135370988377701 -0.68199835119979291 1 0 0 1 I I 0 1 1 forward I I I I #
face $-1 $178 $179 $63 $-1 $180 forward single #
loop $-1 $181 $182 $82 #
cone-surface $-1 -32.777114769498866 -29.100646581952947 3.2338211091942606 0 0.73135370988377701 -0.68199835119979291 1 0 0 1 I I 0 1 1 forward I I I I #
face $-1 $183 $184 $64 $-1 $185 reversed single #
loop $-1 $-1 $186 $83 #
plane-surface $-1 46.352547521006144 -119.66717726433328 81.670897270351716 -1 0 0 0 -0.73135370988377701 0.68199835119979291 forward_v I I I I #
face $-1 $187 $188 $65 $-1 $189 forward single #
loop $-1 $190 $191 $84 #
cone-surface $-1 32.777114769498844 -29.100646581952947 3.2338211091942606 0 0.73135370988377701 -0.68199835119979291 1 0 0 1 I I 0 1 1 forward I I I I #
face $-1 $192 $193 $66 $-1 $194 forward single #
loop $-1 $195 $196 $85 #
cone-surface $-1 37.867902051314083 -29.100646581952947 3.2338211091942606 0 0.73135370988377701 -0.68199835119979291 1 0 0 1 I I 0 1 1 forward I I I I #
face $-1 $197 $198 $67 $-1 $199 forward single #
loop $-1 $200 $201 $86 #
cone-surface $-1 42.958689333129321 -29.100646581952947 3.2338211091942606 0 0.73135370988377701 -0.68199835119979291 1 0 0 1 I I 0 1 1 forward I I I I #
face $-1 $202 $203 $68 $-1 $204 reversed single #
loop $-1 $-1 $205 $87 #
plane-surface $-1 -46.352547521006159 74.562477889275726 130.03976673038514 1 0 0 0 -0.73135370988377701 -0.68199835119979291 forward_v I I I I #
face $-1 $206 $207 $69 $-1 $208 forward single #
loop $-1 $209 $210 $88 #
cone-surface $-1 -42.958689333129328 29.100646581952947 3.2338211091942659 0 -0.73135370988377701 -0.68199835119979291 1 0 0 1 I I 0 1 1 forward I I I I #
face $-1 $211 $212 $70 $-1 $213 forward single #
loop $-1 $214 $215 $89 #
cone-surface $-1 -37.867902051314097 29.100646581952947 3.2338211091942659 0 -0.73135370988377701 -0.68199835119979291 1 0 0 1 I I 0 1 1 forward I I I I #
face $-1 $216 $217 $71 $-1 $218 forward single #
loop $-1 $219 $220 $90 #
cone-surface $-1 -32.777114769498866 29.100646581952947 3.2338211091942659 0 -0.73135370988377701 -0.68199835119979291 1 0 0 1 I I 0 1 1 forward I I I I #
face $-1 $221 $222 $72 $-1 $223 reversed single #
loop $-1 $-1 $224 $91 #
plane-surface $-1 29.383256581622025 74.562477889275726 130.03976673038514 1 0 0 0 -0.73135370988377701 -0.68199835119979291 forward_v I I I I #
face $-1 $225 $226 $73 $-1 $227 forward single #
loop $-1 $228 $229 $92 #
cone-surface $-1 32.777114769498844 29.100646581952947 3.2338211091942659 0 -0.73135370988377701 -0.68199835119979291 1 0 0 1 I I 0 1 1 forward I I I I #
face $-1 $230 $231 $74 $-1 $232 forward single #
loop $-1 $233 $234 $93 #
cone-surface $-1 37.867902051314083 29.100646581952947 3.2338211091942659 0 -0.73135370988377701 -0.68199835119979291 1 0 0 1 I I 0 1 1 forward I I I I #
face $-1 $235 $236 $75 $-1 $237 forward single #
loop $-1 $238 $239 $94 #
cone-surface $-1 42.958689333129321 29.100646581952947 3.2338211091942659 0 -0.73135370988377701 -0.68199835119979291 1 0 0 1 I I 0 1 1 forward I I I I #
face $-1 $240 $241 $57 $-1 $242 reversed single #
loop $-1 $-1 $243 $95 #
plane-surface $-1 0 0 -7.3532416696423057 0 0 1 1 0 0 forward_v I I I I #
coedge $-1 $244 $245 $246 $247 forward $96 $-1 #
face $-1 $248 $249 $58 $-1 $250 reversed single #
loop $-1 $-1 $251 $98 #
plane-surface $-1 0 0 7.3532416696423057 0 0 1 1 0 0 forward_v I I I I #
coedge $-1 $252 $253 $254 $255 forward $99 $-1 #
face $-1 $256 $257 $59 $-1 $258 reversed single #
loop $-1 $-1 $259 $101 #
plane-surface $-1 0 -33.068041363815574 0 0 1 0 0 0 1 forward_v I I I I #
coedge $-1 $260 $261 $262 $263 forward $102 $-1 #
face $-1 $264 $265 $60 $-1 $266 reversed single #
loop $-1 $-1 $267 $104 #
plane-surface $-1 -37.867902051314097 -33.068041363815553 0.91589855862649472 0 -0.73135370988377701 0.68199835119979291 1 0 0 forward_v I I I I #
coedge $-1 $268 $269 $270 $271 reversed $105 $-1 #
face $-1 $-1 $272 $61 $-1 $273 forward single #
loop $-1 $274 $275 $107 #
cone-surface $-1 -42.958689333129328 -27.769034655059393 1.9920729286542285 0 0.73135370988377701 -0.68199835119979291 0.5 0 0 1 I I -0.70710678118654746 0.70710678118654746 0.5 forward I I I I #
loop $-1 $-1 $276 $80 #
coedge $-1 $172 $172 $277 $278 reversed $108 $-1 #
face $-1 $-1 $279 $62 $-1 $280 forward single #
loop $-1 $281 $282 $110 #
cone-surface $-1 -37.867902051314097 -27.769034655059393 1.9920729286542285 0 0.73135370988377701 -0.68199835119979291 0.5 0 0 1 I I -0.70710678118654746 0.70710678118654746 0.5 forward I I I I #
loop $-1 $-1 $283 $81 #
coedge $-1 $177 $177 $284 $285 reversed $111 $-1 #
face $-1 $-1 $286 $63 $-1 $287 forward single #
loop $-1 $288 $289 $113 #
cone-surface $-1 -32.777114769498866 -27.769034655059393 1.9920729286542285 0 0.73135370988377701 -0.68199835119979291 0.5 0 0 1 I I -0.70710678118654746 0.70710678118654746 0.5 forward I I I I #
loop $-1 $-1 $290 $82 #
coedge $-1 $182 $182 $291 $292 reversed $114 $-1 #
face $-1 $293 $294 $64 $-1 $295 reversed single #
loop $-1 $-1 $296 $116 #
plane-surface $-1 37.867902051314083 -33.068041363815553 0.91589855862649472 0 -0.73135370988377701 0.68199835119979291 1 0 0 forward_v I I I I #
coedge $-1 $297 $298 $299 $300 reversed $117 $-1 #
face $-1 $-1 $301 $65 $-1 $302 forward single #
loop $-1 $303 $304 $119 #
cone-surface $-1 32.777114769498844 -27.769034655059393 1.9920729286542285 0 0.73135370988377701 -0.68199835119979291 0.5 0 0 1 I I -0.70710678118654746 0.70710678118654746 0.5 forward I I I I #
loop $-1 $-1 $305 $84 #
coedge $-1 $191 $191 $306 $307 reversed $120 $-1 #
face $-1 $-1 $308 $66 $-1 $309 forward single #
loop $-1 $310 $311 $122 #
cone-surface $-1 37.867902051314083 -27.769034655059393 1.9920729286542285 0 0.73135370988377701 -0.68199835119979291 0.5 0 0 1 I I -0.70710678118654746 0.70710678118654746 0.5 forward I I I I #
loop $-1 $-1 $312 $85 #
coedge $-1 $196 $196 $313 $314 reversed $123 $-1 #
face $-1 $-1 $315 $67 $-1 $316 forward single #
loop $-1 $317 $318 $125 #
cone-surface $-1 42.958689333129321 -27.769034655059393 1.9920729286542285 0 0.73135370988377701 -0.68199835119979291 0.5 0 0 1 I I -0.70710678118654746 0.70710678118654746 0.5 forward I I I I #
loop $-1 $-1 $319 $86 #
coedge $-1 $201 $201 $320 $321 reversed $126 $-1 #
face $-1 $322 $323 $68 $-1 $324 reversed single #
loop $-1 $-1 $325 $128 #
plane-surface $-1 -37.867902051314097 -12.036658011241997 49.284768018659918 0 0.73135370988377701 0.68199835119979291 1 0 0 forward_v I I I I #
coedge $-1 $326 $327 $328 $329 reversed $129 $-1 #
face $-1 $-1 $330 $69 $-1 $331 forward single #
loop $-1 $332 $333 $131 #
cone-surface $-1 -42.958689333129328 27.769034655059393 1.9920729286542338 0 -0.73135370988377701 -0.68199835119979291 0.5 0 0 1 I I -0.70710678118654746 0.70710678118654746 0.5 forward I I I I #
loop $-1 $-1 $334 $88 #
coedge $-1 $210 $210 $335 $336 reversed $132 $-1 #
face $-1 $-1 $337 $70 $-1 $338 forward single #
loop $-1 $339 $340 $134 #
cone-surface $-1 -37.867902051314097 27.769034655059393 1.9920729286542338 0 -0.73135370988377701 -0.68199835119979291 0.5 0 0 1 I I -0.70710678118654746 0.70710678118654746 0.5 forward I I I I #
loop $-1 $-1 $341 $89 #
coedge $-1 $215 $215 $342 $343 reversed $135 $-1 #
face $-1 $-1 $344 $71 $-1 $345 forward single #
loop $-1 $346 $347 $137 #
cone-surface $-1 -32.777114769498866 27.769034655059393 1.9920729286542338 0 -0.73135370988377701 -0.68199835119979291 0.5 0 0 1 I I -0.70710678118654746 0.70710678118654746 0.5 forward I I I I #
loop $-1 $-1 $348 $90 #
coedge $-1 $220 $220 $349 $350 reversed $138 $-1 #
face $-1 $351 $352 $72 $-1 $353 reversed single #
loop $-1 $-1 $354 $140 #
plane-surface $-1 37.867902051314083 -12.036658011241997 49.284768018659918 0 0.73135370988377701 0.68199835119979291 1 0 0 forward_v I I I I #
coedge $-1 $355 $356 $357 $358 reversed $141 $-1 #
face $-1 $-1 $359 $73 $-1 $360 forward single #
loop $-1 $361 $362 $143 #
cone-surface $-1 32.777114769498844 27.769034655059393 1.9920729286542338 0 -0.73135370988377701 -0.68199835119979291 0.5 0 0 1 I I -0.70710678118654746 0.70710678118654746 0.5 forward I I I I #
loop $-1 $-1 $363 $92 #
coedge $-1 $229 $229 $364 $365 reversed $144 $-1 #
face $-1 $-1 $366 $74 $-1 $367 forward single #
loop $-1 $368 $369 $146 #
cone-surface $-1 37.867902051314083 27.769034655059393 1.9920729286542338 0 -0.73135370988377701 -0.68199835119979291 0.5 0 0 1 I I -0.70710678118654746 0.70710678118654746 0.5 forward I I I I #
loop $-1 $-1 $370 $93 #
coedge $-1 $234 $234 $371 $372 reversed $147 $-1 #
face $-1 $-1 $373 $75 $-1 $374 forward single #
loop $-1 $375 $376 $149 #
cone-surface $-1 42.958689333129321 27.769034655059393 1.9920729286542338 0 -0.73135370988377701 -0.68199835119979291 0.5 0 0 1 I I -0.70710678118654746 0.70710678118654746 0.5 forward I I I I #
loop $-1 $-1 $377 $94 #
coedge $-1 $239 $239 $378 $379 reversed $150 $-1 #
face $-1 $380 $381 $57 $-1 $382 reversed single #
loop $-1 $-1 $383 $152 #
plane-surface $-1 0 -33.068041363815574 0 0 1 0 0 0 1 forward_v I I I I #
coedge $-1 $384 $385 $386 $387 forward $153 $-1 #
coedge $-1 $388 $155 $389 $390 forward $96 $-1 #
coedge $-1 $155 $388 $391 $392 forward $96 $-1 #
coedge $-1 $393 $394 $155 $247 reversed $395 $-1 #
edge $-1 $396 -33.068041363815574 $397 33.068041363815574 $246 $398 forward 7 unknown #
face $-1 $399 $400 $58 $-1 $401 reversed single #
loop $-1 $-1 $402 $156 #
plane-surface $-1 -66.941540213143995 -31.568041363815574 0 1 0 0 0 0 -1 forward_v I I I I #
coedge $-1 $403 $404 $252 $405 forward $157 $-1 #
coedge $-1 $406 $159 $251 $405 reversed $99 $-1 #
coedge $-1 $159 $406 $407 $408 reversed $99 $-1 #
coedge $-1 $409 $410 $159 $255 reversed $400 $-1 #
edge $-1 $411 -7.3532416696423057 $412 7.3532416696423057 $254 $413 forward 7 unknown #
face $-1 $414 $415 $59 $-1 $416 reversed single #
loop $-1 $-1 $417 $160 #
plane-surface $-1 0 0 -7.3532416696423057 0 0 1 1 0 0 forward_v I I I I #
coedge $-1 $418 $419 $420 $421 forward $161 $-1 #
coedge $-1 $420 $163 $417 $422 reversed $102 $-1 #
coedge $-1 $163 $420 $423 $424 reversed $102 $-1 #
coedge $-1 $425 $426 $163 $263 reversed $415 $-1 #
edge $-1 $427 -7.3532416696423057 $428 7.3532416696423057 $262 $429 forward 7 unknown #
face $-1 $430 $431 $60 $-1 $432 forward single #
loop $-1 $-1 $433 $164 #
plane-surface $-1 -46.352547521006159 -119.66717726433328 81.670897270351716 1 0 0 0 0.73135370988377701 -0.68199835119979291 forward_v I I I I #
coedge $-1 $434 $435 $436 $437 reversed $165 $-1 #
coedge $-1 $269 $167 $438 $439 reversed $105 $-1 #
coedge $-1 $167 $268 $434 $440 reversed $105 $-1 #
coedge $-1 $436 $441 $167 $271 forward $431 $-1 #
edge $-1 $442 26.765547268351064 $443 32.768466688173 $270 $444 forward 7 unknown #
loop $-1 $-1 $277 $168 #
plane-surface $-1 -37.867902051314097 -33.068041363815553 0.91589855862649472 0 -0.73135370988377701 0.68199835119979291 1 0 0 forward_v I I I I #
loop $-1 $-1 $445 $107 #
coedge $-1 $275 $275 $276 $446 reversed $169 $-1 #
coedge $-1 $276 $276 $275 $446 forward $171 $-1 #
coedge $-1 $277 $277 $172 $278 forward $272 $-1 #
edge $-1 $447 3.5069091583739096e-016 $447 6.2831853071796004 $277 $448 forward 7 unknown #
loop $-1 $-1 $284 $173 #
plane-surface $-1 -37.867902051314097 -33.068041363815553 0.91589855862649472 0 -0.73135370988377701 0.68199835119979291 1 0 0 forward_v I I I I #
loop $-1 $-1 $449 $110 #
coedge $-1 $282 $282 $283 $450 reversed $174 $-1 #
coedge $-1 $283 $283 $282 $450 forward $176 $-1 #
coedge $-1 $284 $284 $177 $285 forward $279 $-1 #
edge $-1 $451 3.5069091583739096e-016 $451 6.2831853071796004 $284 $452 forward 7 unknown #
loop $-1 $-1 $291 $178 #
plane-surface $-1 -37.867902051314097 -33.068041363815553 0.91589855862649472 0 -0.73135370988377701 0.68199835119979291 1 0 0 forward_v I I I I #
loop $-1 $-1 $453 $113 #
coedge $-1 $289 $289 $290 $454 reversed $179 $-1 #
coedge $-1 $290 $290 $289 $454 forward $181 $-1 #
coedge $-1 $291 $291 $182 $292 forward $286 $-1 #
edge $-1 $455 3.5069091583739096e-016 $455 6.2831853071796004 $291 $456 forward 7 unknown #
face $-1 $457 $458 $64 $-1 $459 reversed single #
loop $-1 $-1 $460 $183 #
plane-surface $-1 29.383256581622025 -119.66717726433328 81.670897270351716 1 0 0 0 0.73135370988377701 -0.68199835119979291 forward_v I I I I #
coedge $-1 $461 $462 $463 $464 reversed $184 $-1 #
coedge $-1 $298 $186 $465 $466 reversed $117 $-1 #
coedge $-1 $186 $297 $461 $467 reversed $117 $-1 #
coedge $-1 $463 $468 $186 $300 forward $469 $-1 #
edge $-1 $470 26.765547268351064 $471 32.768466688173 $299 $472 forward 7 unknown #
loop $-1 $-1 $306 $187 #
plane-surface $-1 37.867902051314083 -33.068041363815553 0.91589855862649472 0 -0.73135370988377701 0.68199835119979291 1 0 0 forward_v I I I I #
loop $-1 $-1 $473 $119 #
coedge $-1 $304 $304 $305 $474 reversed $188 $-1 #
coedge $-1 $305 $305 $304 $474 forward $190 $-1 #
coedge $-1 $306 $306 $191 $307 forward $301 $-1 #
edge $-1 $475 3.5069091583739096e-016 $475 6.2831853071796004 $306 $476 forward 7 unknown #
loop $-1 $-1 $313 $192 #
plane-surface $-1 37.867902051314083 -33.068041363815553 0.91589855862649472 0 -0.73135370988377701 0.68199835119979291 1 0 0 forward_v I I I I #
loop $-1 $-1 $477 $122 #
coedge $-1 $311 $311 $312 $478 reversed $193 $-1 #
coedge $-1 $312 $312 $311 $478 forward $195 $-1 #
coedge $-1 $313 $313 $196 $314 forward $308 $-1 #
edge $-1 $479 3.5069091583739096e-016 $479 6.2831853071796004 $313 $480 forward 7 unknown #
loop $-1 $-1 $320 $197 #
plane-surface $-1 37.867902051314083 -33.068041363815553 0.91589855862649472 0 -0.73135370988377701 0.68199835119979291 1 0 0 forward_v I I I I #
loop $-1 $-1 $481 $125 #
coedge $-1 $318 $318 $319 $482 reversed $198 $-1 #
coedge $-1 $319 $319 $318 $482 forward $200 $-1 #
coedge $-1 $320 $320 $201 $321 forward $315 $-1 #
edge $-1 $483 3.5069091583739096e-016 $483 6.2831853071796004 $320 $484 forward 7 unknown #
face $-1 $485 $486 $68 $-1 $487 reversed single #
loop $-1 $-1 $488 $202 #
plane-surface $-1 -29.383256581622039 74.562477889275726 130.03976673038514 -1 0 0 0 0.73135370988377701 0.68199835119979291 forward_v I I I I #
coedge $-1 $489 $490 $491 $492 reversed $203 $-1 #
coedge $-1 $327 $205 $493 $494 reversed $129 $-1 #
coedge $-1 $205 $326 $489 $495 reversed $129 $-1 #
coedge $-1 $491 $496 $205 $329 forward $497 $-1 #
edge $-1 $498 4.213197580822289 $499 10.216117000644239 $328 $500 forward 7 unknown #
loop $-1 $-1 $335 $206 #
plane-surface $-1 -37.867902051314097 -12.036658011241997 49.284768018659918 0 0.73135370988377701 0.68199835119979291 1 0 0 forward_v I I I I #
loop $-1 $-1 $501 $131 #
coedge $-1 $333 $333 $334 $502 reversed $207 $-1 #
coedge $-1 $334 $334 $333 $502 forward $209 $-1 #
coedge $-1 $335 $335 $210 $336 forward $330 $-1 #
edge $-1 $503 -5.1809249388385278e-017 $503 6.2831853071796004 $335 $504 forward 7 unknown #
loop $-1 $-1 $342 $211 #
plane-surface $-1 -37.867902051314097 -12.036658011241997 49.284768018659918 0 0.73135370988377701 0.68199835119979291 1 0 0 forward_v I I I I #
loop $-1 $-1 $505 $134 #
coedge $-1 $340 $340 $341 $506 reversed $212 $-1 #
coedge $-1 $341 $341 $340 $506 forward $214 $-1 #
coedge $-1 $342 $342 $215 $343 forward $337 $-1 #
edge $-1 $507 -5.1809249388385278e-017 $507 6.2831853071796004 $342 $508 forward 7 unknown #
loop $-1 $-1 $349 $216 #
plane-surface $-1 -37.867902051314097 -12.036658011241997 49.284768018659918 0 0.73135370988377701 0.68199835119979291 1 0 0 forward_v I I I I #
loop $-1 $-1 $509 $137 #
coedge $-1 $347 $347 $348 $510 reversed $217 $-1 #
coedge $-1 $348 $348 $347 $510 forward $219 $-1 #
coedge $-1 $349 $349 $220 $350 forward $344 $-1 #
edge $-1 $511 -5.1809249388385278e-017 $511 6.2831853071796004 $349 $512 forward 7 unknown #
face $-1 $513 $514 $72 $-1 $515 forward single #
loop $-1 $-1 $516 $221 #
plane-surface $-1 46.352547521006144 74.562477889275726 130.03976673038514 -1 0 0 0 0.73135370988377701 0.68199835119979291 forward_v I I I I #
coedge $-1 $517 $518 $519 $520 reversed $222 $-1 #
coedge $-1 $356 $224 $521 $522 reversed $141 $-1 #
coedge $-1 $224 $355 $517 $523 reversed $141 $-1 #
coedge $-1 $519 $524 $224 $358 forward $514 $-1 #
edge $-1 $525 4.213197580822289 $526 10.216117000644239 $357 $527 forward 7 unknown #
loop $-1 $-1 $364 $225 #
plane-surface $-1 37.867902051314083 -12.036658011241997 49.284768018659918 0 0.73135370988377701 0.68199835119979291 1 0 0 forward_v I I I I #
loop $-1 $-1 $528 $143 #
coedge $-1 $362 $362 $363 $529 reversed $226 $-1 #
coedge $-1 $363 $363 $362 $529 forward $228 $-1 #
coedge $-1 $364 $364 $229 $365 forward $359 $-1 #
edge $-1 $530 -5.1809249388385278e-017 $530 6.2831853071796004 $364 $531 forward 7 unknown #
loop $-1 $-1 $371 $230 #
plane-surface $-1 37.867902051314083 -12.036658011241997 49.284768018659918 0 0.73135370988377701 0.68199835119979291 1 0 0 forward_v I I I I #
loop $-1 $-1 $532 $146 #
coedge $-1 $369 $369 $370 $533 reversed $231 $-1 #
coedge $-1 $370 $370 $369 $533 forward $233 $-1 #
coedge $-1 $371 $371 $234 $372 forward $366 $-1 #
edge $-1 $534 -5.1809249388385278e-017 $534 6.2831853071796004 $371 $535 forward 7 unknown #
loop $-1 $-1 $378 $235 #
plane-surface $-1 37.867902051314083 -12.036658011241997 49.284768018659918 0 0.73135370988377701 0.68199835119979291 1 0 0 forward_v I I I I #
loop $-1 $-1 $536 $149 #
coedge $-1 $376 $376 $377 $537 reversed $236 $-1 #
coedge $-1 $377 $377 $376 $537 forward $238 $-1 #
coedge $-1 $378 $378 $239 $379 forward $373 $-1 #
edge $-1 $538 -5.1809249388385278e-017 $538 6.2831853071796004 $378 $539 forward 7 unknown #
face $-1 $540 $541 $57 $-1 $542 reversed single #
loop $-1 $-1 $543 $240 #
plane-surface $-1 -59.204687643055514 0 0 1 0 0 0 0 -1 forward_v I I I I #
coedge $-1 $544 $391 $545 $546 forward $241 $-1 #
coedge $-1 $547 $243 $544 $548 forward $153 $-1 #
coedge $-1 $243 $547 $549 $550 forward $153 $-1 #
coedge $-1 $394 $393 $243 $387 reversed $395 $-1 #
edge $-1 $551 -33.068041363815574 $552 33.068041363815574 $386 $553 forward 7 unknown #
coedge $-1 $245 $244 $554 $555 forward $96 $-1 #
coedge $-1 $556 $557 $244 $390 reversed $541 $-1 #
edge $-1 $397 -59.204687643055514 $558 59.204687643055514 $389 $559 forward 7 unknown #
coedge $-1 $383 $560 $245 $392 reversed $241 $-1 #
edge $-1 $561 -59.204687643055514 $396 59.204687643055514 $391 $562 forward 7 unknown #
coedge $-1 $386 $246 $560 $563 forward $395 $-1 #
coedge $-1 $246 $386 $556 $564 reversed $395 $-1 #
loop $-1 $-1 $393 $540 #
vertex $-1 $247 $565 #
vertex $-1 $247 $566 #
straight-curve $-1 59.204687643055514 0 7.3532416696423057 0 1 0 I I #
face $-1 $567 $568 $58 $-1 $569 reversed single #
loop $-1 $-1 $254 $248 #
plane-surface $-1 -63.073113928099758 -30.068041363815574 0 0 -1 0 0 0 -1 forward_v I I I I #
coedge $-1 $570 $571 $572 $573 forward $249 $-1 #
coedge $-1 $574 $251 $410 $575 forward $157 $-1 #
coedge $-1 $251 $574 $576 $577 forward $157 $-1 #
edge $-1 $578 -33.068041363815574 $412 -30.068041363815574 $251 $579 forward 7 unknown #
coedge $-1 $253 $252 $580 $581 reversed $99 $-1 #
coedge $-1 $582 $583 $253 $408 forward $568 $-1 #
edge $-1 $411 30.068041363815574 $584 33.068041363815574 $407 $585 forward 7 unknown #
coedge $-1 $572 $254 $583 $586 reversed $400 $-1 #
coedge $-1 $254 $572 $403 $575 reversed $400 $-1 #
vertex $-1 $408 $587 #
vertex $-1 $575 $588 #
straight-curve $-1 -59.204687643055514 -30.068041363815574 0 0 0 1 I I #
face $-1 $589 $590 $59 $-1 $591 reversed single #
loop $-1 $-1 $592 $256 #
plane-surface $-1 63.073113928099751 -30.068041363815574 0 0 -1 0 0 0 -1 forward_v I I I I #
coedge $-1 $593 $594 $260 $422 forward $257 $-1 #
coedge $-1 $595 $259 $594 $596 reversed $161 $-1 #
coedge $-1 $259 $595 $597 $598 reversed $161 $-1 #
coedge $-1 $261 $260 $259 $421 reversed $102 $-1 #
edge $-1 $599 -7.3532416696423057 $600 7.3532416696423057 $259 $601 forward 7 unknown #
edge $-1 $600 -33.068041363815574 $428 -30.068041363815574 $417 $602 forward 7 unknown #
coedge $-1 $597 $603 $261 $424 forward $604 $-1 #
edge $-1 $427 30.068041363815574 $599 33.068041363815574 $423 $605 forward 7 unknown #
coedge $-1 $592 $262 $603 $606 reversed $415 $-1 #
coedge $-1 $262 $592 $593 $607 reversed $415 $-1 #
vertex $-1 $424 $608 #
vertex $-1 $607 $609 #
straight-curve $-1 59.204687643055514 -30.068041363815574 0 0 0 -1 I I #
face $-1 $-1 $610 $60 $-1 $611 reversed single #
loop $-1 $-1 $270 $264 #
plane-surface $-1 0 0 7.3532416696423057 0 0 1 1 0 0 forward_v I I I I #
coedge $-1 $612 $613 $614 $615 reversed $265 $-1 #
coedge $-1 $616 $267 $269 $440 forward $165 $-1 #
coedge $-1 $267 $616 $612 $617 forward $165 $-1 #
coedge $-1 $614 $270 $267 $437 forward $431 $-1 #
edge $-1 $443 10.44930555596499 $618 27.41859649534911 $436 $619 forward 7 unknown #
coedge $-1 $620 $621 $268 $439 forward $610 $-1 #
edge $-1 $622 -39.919550076549385 $442 -33.48220696553355 $438 $623 forward 7 unknown #
edge $-1 $443 -8.8019559127399525 $622 3.1264163221236078e-014 $269 $624 forward 7 unknown #
coedge $-1 $270 $614 $620 $625 forward $431 $-1 #
vertex $-1 $271 $626 #
vertex $-1 $271 $627 #
straight-curve $-1 -29.383256581622039 -59.833588632166638 7.3532416696423084 0 1 0 I I #
coedge $-1 $445 $445 $-1 $628 reversed $274 $-1 #
edge $-1 $629 0 $629 6.2831853071796004 $275 $630 forward 7 unknown #
vertex $-1 $278 $631 #
ellipse-curve $-1 -42.958689333129328 -30.066581653904606 4.1345701141343891 0 -0.73135370988377701 0.68199835119979291 1 0 0 1 I I #
coedge $-1 $449 $449 $-1 $632 reversed $281 $-1 #
edge $-1 $633 0 $633 6.2831853071796004 $282 $634 forward 7 unknown #
vertex $-1 $285 $635 #
ellipse-curve $-1 -37.867902051314097 -30.066581653904606 4.1345701141343891 0 -0.73135370988377701 0.68199835119979291 1 0 0 1 I I #
coedge $-1 $453 $453 $-1 $636 reversed $288 $-1 #
edge $-1 $637 0 $637 6.2831853071796004 $289 $638 forward 7 unknown #
vertex $-1 $292 $639 #
ellipse-curve $-1 -32.777114769498866 -30.066581653904606 4.1345701141343891 0 -0.73135370988377701 0.68199835119979291 1 0 0 1 I I #
face $-1 $-1 $469 $64 $-1 $640 forward single #
loop $-1 $-1 $641 $293 #
plane-surface $-1 0 -33.068041363815574 0 0 1 0 0 0 1 forward_v I I I I #
coedge $-1 $642 $643 $644 $645 reversed $294 $-1 #
coedge $-1 $646 $296 $298 $467 forward $184 $-1 #
coedge $-1 $296 $646 $642 $647 forward $184 $-1 #
coedge $-1 $644 $299 $296 $464 forward $469 $-1 #
edge $-1 $471 -27.418596495349103 $648 -10.449305555964983 $463 $649 forward 7 unknown #
coedge $-1 $650 $651 $297 $466 forward $458 $-1 #
edge $-1 $652 -39.919550076549385 $470 -33.48220696553355 $465 $653 forward 7 unknown #
edge $-1 $471 -8.8019559127399525 $652 3.1264163221236078e-014 $298 $654 forward 7 unknown #
coedge $-1 $299 $644 $650 $655 forward $469 $-1 #
loop $-1 $-1 $644 $457 #
vertex $-1 $466 $656 #
vertex $-1 $300 $657 #
straight-curve $-1 46.352547521006144 -59.833588632166638 7.3532416696423084 0 1 0 I I #
coedge $-1 $473 $473 $-1 $658 reversed $303 $-1 #
edge $-1 $659 0 $659 6.2831853071796004 $304 $660 forward 7 unknown #
vertex $-1 $307 $661 #
ellipse-curve $-1 32.777114769498844 -30.066581653904606 4.1345701141343891 0 -0.73135370988377701 0.68199835119979291 1 0 0 1 I I #
coedge $-1 $477 $477 $-1 $662 reversed $310 $-1 #
edge $-1 $663 0 $663 6.2831853071796004 $311 $664 forward 7 unknown #
vertex $-1 $314 $665 #
ellipse-curve $-1 37.867902051314083 -30.066581653904606 4.1345701141343891 0 -0.73135370988377701 0.68199835119979291 1 0 0 1 I I #
coedge $-1 $481 $481 $-1 $666 reversed $317 $-1 #
edge $-1 $667 0 $667 6.2831853071796004 $318 $668 forward 7 unknown #
vertex $-1 $321 $669 #
ellipse-curve $-1 42.958689333129321 -30.066581653904606 4.1345701141343891 0 -0.73135370988377701 0.68199835119979291 1 0 0 1 I I #
face $-1 $-1 $497 $68 $-1 $670 forward single #
loop $-1 $-1 $671 $322 #
plane-surface $-1 0 33.068041363815574 0 0 -1 0 0 0 -1 forward_v I I I I #
coedge $-1 $672 $673 $674 $675 reversed $323 $-1 #
coedge $-1 $676 $325 $327 $495 forward $203 $-1 #
coedge $-1 $325 $676 $672 $677 forward $203 $-1 #
coedge $-1 $674 $328 $325 $492 forward $497 $-1 #
edge $-1 $499 -27.41859649534911 $678 -10.44930555596499 $491 $679 forward 7 unknown #
coedge $-1 $680 $681 $326 $494 forward $486 $-1 #
edge $-1 $682 -64.103984806566103 $498 -57.666641695550261 $493 $683 forward 7 unknown #
edge $-1 $499 57.334126814891178 $682 66.136082727631191 $327 $684 forward 7 unknown #
coedge $-1 $328 $674 $680 $685 forward $497 $-1 #
loop $-1 $-1 $674 $485 #
vertex $-1 $494 $686 #
vertex $-1 $329 $687 #
straight-curve $-1 -46.352547521006159 37.281238944637863 7.3532416696423084 0 -1 0 I I #
coedge $-1 $501 $501 $-1 $688 reversed $332 $-1 #
edge $-1 $689 0 $689 6.2831853071796004 $333 $690 forward 7 unknown #
vertex $-1 $336 $691 #
ellipse-curve $-1 -42.958689333129328 30.066581653904599 4.1345701141343882 0 0.73135370988377701 0.68199835119979291 1 0 0 1 I I #
coedge $-1 $505 $505 $-1 $692 reversed $339 $-1 #
edge $-1 $693 0 $693 6.2831853071796004 $340 $694 forward 7 unknown #
vertex $-1 $343 $695 #
ellipse-curve $-1 -37.867902051314097 30.066581653904599 4.1345701141343882 0 0.73135370988377701 0.68199835119979291 1 0 0 1 I I #
coedge $-1 $509 $509 $-1 $696 reversed $346 $-1 #
edge $-1 $697 0 $697 6.2831853071796004 $347 $698 forward 7 unknown #
vertex $-1 $350 $699 #
ellipse-curve $-1 -32.777114769498866 30.066581653904599 4.1345701141343882 0 0.73135370988377701 0.68199835119979291 1 0 0 1 I I #
face $-1 $-1 $700 $72 $-1 $701 reversed single #
loop $-1 $-1 $357 $351 #
plane-surface $-1 0 0 7.3532416696423057 0 0 1 1 0 0 forward_v I I I I #
coedge $-1 $702 $703 $704 $705 reversed $352 $-1 #
coedge $-1 $706 $354 $356 $523 forward $222 $-1 #
coedge $-1 $354 $706 $702 $707 forward $222 $-1 #
coedge $-1 $704 $357 $354 $520 forward $514 $-1 #
edge $-1 $526 10.449305555964983 $708 27.418596495349103 $519 $709 forward 7 unknown #
coedge $-1 $710 $711 $355 $522 forward $700 $-1 #
edge $-1 $712 -64.103984806566103 $525 -57.666641695550261 $521 $713 forward 7 unknown #
edge $-1 $526 57.334126814891178 $712 66.136082727631191 $356 $714 forward 7 unknown #
coedge $-1 $357 $704 $710 $715 forward $514 $-1 #
vertex $-1 $522 $716 #
vertex $-1 $358 $717 #
straight-curve $-1 29.383256581622025 37.281238944637863 7.3532416696423084 0 -1 0 I I #
coedge $-1 $528 $528 $-1 $718 reversed $361 $-1 #
edge $-1 $719 0 $719 6.2831853071796004 $362 $720 forward 7 unknown #
vertex $-1 $365 $721 #
ellipse-curve $-1 32.777114769498844 30.066581653904599 4.1345701141343882 0 0.73135370988377701 0.68199835119979291 1 0 0 1 I I #
coedge $-1 $532 $532 $-1 $722 reversed $368 $-1 #
edge $-1 $723 0 $723 6.2831853071796004 $369 $724 forward 7 unknown #
vertex $-1 $372 $725 #
ellipse-curve $-1 37.867902051314083 30.066581653904599 4.1345701141343882 0 0.73135370988377701 0.68199835119979291 1 0 0 1 I I #
coedge $-1 $536 $536 $-1 $726 reversed $375 $-1 #
edge $-1 $727 0 $727 6.2831853071796004 $376 $728 forward 7 unknown #
vertex $-1 $379 $729 #
ellipse-curve $-1 42.958689333129321 30.066581653904599 4.1345701141343882 0 0.73135370988377701 0.68199835119979291 1 0 0 1 I I #
face $-1 $-1 $395 $57 $-1 $730 reversed single #
loop $-1 $-1 $556 $380 #
plane-surface $-1 0 33.068041363815574 0 0 -1 0 0 0 -1 forward_v I I I I #
coedge $-1 $731 $554 $557 $732 forward $381 $-1 #
coedge $-1 $560 $383 $384 $548 reversed $241 $-1 #
coedge $-1 $554 $731 $383 $546 reversed $381 $-1 #
edge $-1 $561 -7.3532416696423057 $733 7.3532416696423057 $545 $734 forward 7 unknown #
coedge $-1 $385 $384 $731 $735 forward $153 $-1 #
edge $-1 $552 -59.204687643055514 $733 59.204687643055514 $544 $736 forward 7 unknown #
coedge $-1 $557 $556 $385 $550 reversed $541 $-1 #
edge $-1 $737 -59.204687643055514 $551 59.204687643055514 $549 $738 forward 7 unknown #
vertex $-1 $387 $739 #
vertex $-1 $563 $740 #
straight-curve $-1 59.204687643055514 0 -7.3532416696423057 0 -1 0 I I #
coedge $-1 $543 $545 $388 $555 reversed $381 $-1 #
edge $-1 $558 -33.068041363815574 $561 33.068041363815574 $554 $741 forward 7 unknown #
coedge $-1 $549 $389 $394 $564 forward $541 $-1 #
coedge $-1 $389 $549 $543 $732 reversed $541 $-1 #
vertex $-1 $390 $742 #
straight-curve $-1 0 33.068041363815574 7.3532416696423057 -1 0 0 I I #
coedge $-1 $391 $544 $393 $563 reversed $241 $-1 #
vertex $-1 $555 $743 #
straight-curve $-1 0 -33.068041363815574 7.3532416696423057 1 0 0 I I #
edge $-1 $396 -7.3532416696423057 $552 7.3532416696423057 $393 $744 forward 7 unknown #
edge $-1 $397 -7.3532416696423057 $551 7.3532416696423057 $394 $745 forward 7 unknown #
point $-1 59.204687643055514 -33.068041363815574 7.3532416696423057 #
point $-1 59.204687643055514 33.068041363815574 7.3532416696423057 #
face $-1 $-1 $746 $58 $-1 $747 reversed single #
loop $-1 $-1 $407 $399 #
plane-surface $-1 0 0 -7.3532416696423057 0 0 1 1 0 0 forward_v I I I I #
coedge $-1 $748 $402 $749 $750 reversed $249 $-1 #
coedge $-1 $402 $748 $574 $751 reversed $249 $-1 #
coedge $-1 $410 $409 $402 $573 reversed $400 $-1 #
edge $-1 $752 -7.3532416696423057 $753 7.3532416696423057 $572 $754 forward 7 unknown #
coedge $-1 $404 $403 $571 $751 forward $157 $-1 #
edge $-1 $412 -3.8684262850442437 $752 3.8684262850442366 $410 $755 forward 7 unknown #
coedge $-1 $756 $580 $404 $577 reversed $746 $-1 #
edge $-1 $757 -66.941540213143995 $578 -59.204687643055514 $576 $758 forward 7 unknown #
vertex $-1 $581 $759 #
straight-curve $-1 -59.204687643055514 0 7.3532416696423057 0 1 0 I I #
coedge $-1 $576 $760 $406 $581 forward $746 $-1 #
edge $-1 $584 -7.3532416696423057 $578 7.3532416696423057 $580 $761 forward 7 unknown #
coedge $-1 $749 $407 $760 $762 forward $568 $-1 #
coedge $-1 $407 $749 $409 $586 forward $568 $-1 #
vertex $-1 $762 $763 #
straight-curve $-1 -59.204687643055514 0 -7.3532416696423057 0 -1 0 I I #
edge $-1 $753 -3.8684262850442366 $411 3.8684262850442437 $409 $764 forward 7 unknown #
point $-1 -59.204687643055514 -30.068041363815574 -7.3532416696423057 #
point $-1 -59.204687643055514 -30.068041363815574 7.3532416696423057 #
face $-1 $-1 $604 $59 $-1 $765 forward single #
loop $-1 $-1 $766 $414 #
plane-surface $-1 66.941540213143995 -31.568041363815574 0 -1 0 0 0 0 1 forward_v I I I I #
coedge $-1 $426 $425 $767 $768 forward $415 $-1 #
coedge $-1 $769 $417 $426 $607 forward $257 $-1 #
coedge $-1 $417 $769 $418 $596 forward $257 $-1 #
coedge $-1 $419 $418 $766 $770 reversed $161 $-1 #
edge $-1 $771 -3.8684262850442437 $600 3.8684262850442366 $418 $772 forward 7 unknown #
coedge $-1 $773 $423 $419 $598 forward $604 $-1 #
edge $-1 $599 -3.8684262850442366 $774 3.8684262850442437 $419 $775 forward 7 unknown #
vertex $-1 $598 $776 #
vertex $-1 $422 $777 #
straight-curve $-1 59.204687643055514 -33.068041363815574 0 0 0 -1 I I #
straight-curve $-1 59.204687643055514 0 -7.3532416696423057 0 1 0 I I #
coedge $-1 $423 $773 $425 $606 forward $604 $-1 #
loop $-1 $-1 $423 $589 #
straight-curve $-1 59.204687643055514 0 7.3532416696423057 0 -1 0 I I #
edge $-1 $778 -3.8684262850442437 $427 3.8684262850442437 $425 $779 forward 7 unknown #
edge $-1 $428 -3.8684262850442437 $780 3.8684262850442437 $426 $781 forward 7 unknown #
point $-1 59.204687643055507 -30.068041363815574 7.3532416696423057 #
point $-1 59.204687643055507 -30.068041363815574 -7.3532416696423057 #
loop $-1 $-1 $438 $430 #
plane-surface $-1 0 -33.068041363815574 0 0 1 0 0 0 1 forward_v I I I I #
coedge $-1 $613 $433 $435 $617 reversed $265 $-1 #
coedge $-1 $433 $612 $782 $783 reversed $265 $-1 #
coedge $-1 $441 $436 $433 $615 forward $431 $-1 #
edge $-1 $618 -32.768466688173 $784 -26.765547268351064 $614 $785 forward 7 unknown #
coedge $-1 $435 $434 $621 $786 reversed $165 $-1 #
edge $-1 $787 -3.1264163221236078e-014 $618 8.8019559127399525 $612 $788 forward 7 unknown #
vertex $-1 $437 $789 #
straight-curve $-1 -18.933951025657048 -27.065121943993635 7.3532416696423057 -1 0 0 I I #
coedge $-1 $782 $438 $441 $625 reversed $610 $-1 #
coedge $-1 $438 $782 $616 $786 forward $610 $-1 #
vertex $-1 $439 $790 #
straight-curve $-1 -29.383256581622039 -33.068041363815574 40.835448635175858 0 0 1 I I #
straight-curve $-1 -29.383256581622039 -33.068041363815553 0.91589855862649472 0 -0.68199835119979291 -0.73135370988377701 I I #
edge $-1 $784 -109.42566144910592 $442 -92.456370509721793 $620 $791 forward 7 unknown #
point $-1 -29.383256581622042 -33.068041363815574 7.3532416696423057 #
point $-1 -29.383256581622039 -27.065121943993638 7.3532416696423057 #
edge $-1 $792 1 $792 0 $445 $-1 forward 7 unknown #
vertex $-1 $446 $793 #
ellipse-curve $-1 -42.958689333129328 -28.134711510001281 2.3330721042541249 0 -0.73135370988377701 0.68199835119979291 1 0 0 1 I I #
point $-1 -41.958689333129328 -30.066581653904613 4.1345701141343962 #
edge $-1 $794 1 $794 0 $449 $-1 forward 7 unknown #
vertex $-1 $450 $795 #
ellipse-curve $-1 -37.867902051314097 -28.134711510001281 2.3330721042541249 0 -0.73135370988377701 0.68199835119979291 1 0 0 1 I I #
point $-1 -36.867902051314097 -30.066581653904613 4.1345701141343962 #
edge $-1 $796 1 $796 0 $453 $-1 forward 7 unknown #
vertex $-1 $454 $797 #
ellipse-curve $-1 -32.777114769498866 -28.134711510001281 2.3330721042541249 0 -0.73135370988377701 0.68199835119979291 1 0 0 1 I I #
point $-1 -31.777114769498866 -30.066581653904613 4.1345701141343962 #
plane-surface $-1 0 0 7.3532416696423057 0 0 1 1 0 0 forward_v I I I I #
coedge $-1 $651 $650 $643 $798 forward $458 $-1 #
coedge $-1 $643 $460 $462 $647 reversed $294 $-1 #
coedge $-1 $460 $642 $641 $798 reversed $294 $-1 #
coedge $-1 $468 $463 $460 $645 forward $469 $-1 #
edge $-1 $648 -32.768466688173 $799 -26.765547268351064 $644 $800 forward 7 unknown #
coedge $-1 $462 $461 $651 $801 reversed $184 $-1 #
edge $-1 $802 -3.1264163221236078e-014 $648 8.8019559127399525 $642 $803 forward 7 unknown #
vertex $-1 $464 $804 #
straight-curve $-1 18.933951025657041 -27.065121943993635 7.3532416696423057 -1 0 0 I I #
coedge $-1 $641 $465 $468 $655 reversed $458 $-1 #
coedge $-1 $465 $641 $646 $801 forward $458 $-1 #
vertex $-1 $466 $805 #
straight-curve $-1 46.352547521006144 -33.068041363815574 40.835448635175858 0 0 1 I I #
straight-curve $-1 46.352547521006144 -33.068041363815553 0.91589855862649472 0 -0.68199835119979291 -0.73135370988377701 I I #
edge $-1 $799 -33.689857346477723 $470 -16.720566407093607 $650 $806 forward 7 unknown #
point $-1 46.352547521006144 -33.068041363815574 7.3532416696423057 #
point $-1 46.352547521006144 -27.065121943993638 7.3532416696423057 #
edge $-1 $807 1 $807 0 $473 $-1 forward 7 unknown #
vertex $-1 $474 $808 #
ellipse-curve $-1 32.777114769498844 -28.134711510001281 2.3330721042541249 0 -0.73135370988377701 0.68199835119979291 1 0 0 1 I I #
point $-1 33.777114769498844 -30.066581653904613 4.1345701141343962 #
edge $-1 $809 1 $809 0 $477 $-1 forward 7 unknown #
vertex $-1 $478 $810 #
ellipse-curve $-1 37.867902051314083 -28.134711510001281 2.3330721042541249 0 -0.73135370988377701 0.68199835119979291 1 0 0 1 I I #
point $-1 38.867902051314083 -30.066581653904613 4.1345701141343962 #
edge $-1 $811 1 $811 0 $481 $-1 forward 7 unknown #
vertex $-1 $482 $812 #
ellipse-curve $-1 42.958689333129321 -28.134711510001281 2.3330721042541249 0 -0.73135370988377701 0.68199835119979291 1 0 0 1 I I #
point $-1 43.958689333129321 -30.066581653904613 4.1345701141343962 #
plane-surface $-1 0 0 7.3532416696423057 0 0 1 1 0 0 forward_v I I I I #
coedge $-1 $681 $680 $673 $813 forward $486 $-1 #
coedge $-1 $673 $488 $490 $677 reversed $323 $-1 #
coedge $-1 $488 $672 $671 $813 reversed $323 $-1 #
coedge $-1 $496 $491 $488 $675 forward $497 $-1 #
edge $-1 $678 -10.216117000644239 $814 -4.213197580822289 $674 $815 forward 7 unknown #
coedge $-1 $490 $489 $681 $816 reversed $203 $-1 #
edge $-1 $817 -66.136082727631191 $678 -57.334126814891178 $672 $818 forward 7 unknown #
vertex $-1 $492 $819 #
straight-curve $-1 -18.933951025657048 27.065121943993631 7.3532416696423049 1 0 0 I I #
coedge $-1 $671 $493 $496 $685 reversed $486 $-1 #
coedge $-1 $493 $671 $676 $816 forward $486 $-1 #
vertex $-1 $494 $820 #
straight-curve $-1 -46.352547521006159 33.068041363815574 65.01988336519257 0 0 1 I I #
straight-curve $-1 -46.352547521006159 -12.036658011241997 49.284768018659918 0 0.68199835119979291 -0.73135370988377701 I I #
edge $-1 $814 29.383256581622039 $498 46.352547521006159 $680 $821 forward 7 unknown #
point $-1 -46.352547521006159 33.068041363815574 7.3532416696423057 #
point $-1 -46.352547521006159 27.065121943993624 7.3532416696423084 #
edge $-1 $822 1 $822 0 $501 $-1 forward 7 unknown #
vertex $-1 $502 $823 #
ellipse-curve $-1 -42.958689333129328 28.134711510001281 2.3330721042541303 0 0.73135370988377701 0.68199835119979291 1 0 0 1 I I #
point $-1 -41.958689333129328 30.066581653904613 4.1345701141344016 #
edge $-1 $824 1 $824 0 $505 $-1 forward 7 unknown #
vertex $-1 $506 $825 #
ellipse-curve $-1 -37.867902051314097 28.134711510001281 2.3330721042541303 0 0.73135370988377701 0.68199835119979291 1 0 0 1 I I #
point $-1 -36.867902051314097 30.066581653904613 4.1345701141344016 #
edge $-1 $826 1 $826 0 $509 $-1 forward 7 unknown #
vertex $-1 $510 $827 #
ellipse-curve $-1 -32.777114769498866 28.134711510001281 2.3330721042541303 0 0.73135370988377701 0.68199835119979291 1 0 0 1 I I #
point $-1 -31.777114769498866 30.066581653904613 4.1345701141344016 #
loop $-1 $-1 $521 $513 #
plane-surface $-1 0 33.068041363815574 0 0 -1 0 0 0 -1 forward_v I I I I #
coedge $-1 $703 $516 $518 $707 reversed $352 $-1 #
coedge $-1 $516 $702 $828 $829 reversed $352 $-1 #
coedge $-1 $524 $519 $516 $705 forward $514 $-1 #
edge $-1 $708 -10.216117000644239 $830 -4.213197580822289 $704 $831 forward 7 unknown #
coedge $-1 $518 $517 $711 $832 reversed $222 $-1 #
edge $-1 $833 -66.136082727631191 $708 -57.334126814891178 $702 $834 forward 7 unknown #
vertex $-1 $520 $835 #
straight-curve $-1 18.933951025657041 27.065121943993631 7.3532416696423049 1 0 0 I I #
coedge $-1 $828 $521 $524 $715 reversed $700 $-1 #
coedge $-1 $521 $828 $706 $832 forward $700 $-1 #
vertex $-1 $522 $836 #
straight-curve $-1 29.383256581622025 33.068041363815574 65.01988336519257 0 0 1 I I #
straight-curve $-1 29.383256581622025 -12.036658011241997 49.284768018659918 0 0.68199835119979291 -0.73135370988377701 I I #
edge $-1 $830 -46.352547521006144 $525 -29.383256581622025 $710 $837 forward 7 unknown #
point $-1 29.383256581622025 33.068041363815574 7.3532416696423057 #
point $-1 29.383256581622025 27.065121943993624 7.3532416696423084 #
edge $-1 $838 1 $838 0 $528 $-1 forward 7 unknown #
vertex $-1 $529 $839 #
ellipse-curve $-1 32.777114769498844 28.134711510001281 2.3330721042541303 0 0.73135370988377701 0.68199835119979291 1 0 0 1 I I #
point $-1 33.777114769498844 30.066581653904613 4.1345701141344016 #
edge $-1 $840 1 $840 0 $532 $-1 forward 7 unknown #
vertex $-1 $533 $841 #
ellipse-curve $-1 37.867902051314083 28.134711510001281 2.3330721042541303 0 0.73135370988377701 0.68199835119979291 1 0 0 1 I I #
point $-1 38.867902051314083 30.066581653904613 4.1345701141344016 #
edge $-1 $842 1 $842 0 $536 $-1 forward 7 unknown #
vertex $-1 $537 $843 #
ellipse-curve $-1 42.958689333129321 28.134711510001281 2.3330721042541303 0 0.73135370988377701 0.68199835119979291 1 0 0 1 I I #
point $-1 43.958689333129321 30.066581653904613 4.1345701141344016 #
plane-surface $-1 59.204687643055514 0 0 -1 0 0 0 0 1 forward_v I I I I #
coedge $-1 $545 $543 $547 $735 reversed $381 $-1 #
edge $-1 $558 -7.3532416696423057 $737 7.3532416696423057 $557 $844 forward 7 unknown #
vertex $-1 $735 $845 #
straight-curve $-1 -59.204687643055514 -33.068041363815574 0 0 0 -1 I I #
edge $-1 $733 -33.068041363815574 $737 33.068041363815574 $731 $846 forward 7 unknown #
straight-curve $-1 0 -33.068041363815574 -7.3532416696423057 -1 0 0 I I #
vertex $-1 $550 $847 #
straight-curve $-1 0 33.068041363815574 -7.3532416696423057 1 0 0 I I #
point $-1 59.204687643055514 33.068041363815574 -7.3532416696423057 #
point $-1 59.204687643055514 -33.068041363815574 -7.3532416696423057 #
straight-curve $-1 -59.204687643055514 0 7.3532416696423057 0 -1 0 I I #
point $-1 -59.204687643055514 33.068041363815574 7.3532416696423057 #
point $-1 -59.204687643055514 -33.068041363815574 7.3532416696423057 #
straight-curve $-1 59.204687643055514 -33.068041363815574 0 0 0 -1 I I #
straight-curve $-1 59.204687643055514 33.068041363815574 0 0 0 -1 I I #
loop $-1 $-1 $580 $567 #
plane-surface $-1 0 -33.068041363815574 0 0 1 0 0 0 1 forward_v I I I I #
coedge $-1 $571 $570 $756 $848 reversed $249 $-1 #
coedge $-1 $583 $582 $570 $750 forward $568 $-1 #
edge $-1 $849 -1.5 $753 1.5 $570 $850 forward 7 unknown #
edge $-1 $752 -1.5 $757 1.5 $571 $851 forward 7 unknown #
vertex $-1 $575 $852 #
vertex $-1 $586 $853 #
straight-curve $-1 -66.941540213143995 -30.068041363815574 0 0 0 -1 I I #
straight-curve $-1 -63.073113928099758 -30.068041363815574 7.3532416696423057 -1 0 0 I I #
coedge $-1 $760 $576 $748 $848 forward $746 $-1 #
vertex $-1 $751 $854 #
straight-curve $-1 0 -33.068041363815574 7.3532416696423057 1 0 0 I I #
point $-1 -59.204687643055514 -33.068041363815574 7.3532416696423057 #
coedge $-1 $580 $756 $582 $762 reversed $746 $-1 #
straight-curve $-1 -59.204687643055514 -33.068041363815574 0 0 0 1 I I #
edge $-1 $584 -3.8684262850442437 $849 3.8684262850442366 $760 $855 forward 7 unknown #
point $-1 -59.204687643055514 -33.068041363815574 -7.3532416696423057 #
straight-curve $-1 -63.073113928099758 -30.068041363815574 -7.3532416696423057 1 0 0 I I #
plane-surface $-1 0 0 7.3532416696423057 0 0 1 1 0 0 forward_v I I I I #
coedge $-1 $856 $857 $595 $770 forward $590 $-1 #
coedge $-1 $857 $856 $592 $768 reversed $590 $-1 #
edge $-1 $778 -7.3532416696423057 $780 7.3532416696423057 $767 $858 forward 7 unknown #
coedge $-1 $594 $593 $856 $859 forward $257 $-1 #
edge $-1 $774 -7.3532416696423057 $771 7.3532416696423057 $766 $860 forward 7 unknown #
vertex $-1 $770 $861 #
straight-curve $-1 63.073113928099751 -33.068041363815574 -7.3532416696423057 -1 0 0 I I #
coedge $-1 $603 $597 $857 $862 forward $604 $-1 #
vertex $-1 $862 $863 #
straight-curve $-1 63.073113928099751 -33.068041363815574 7.3532416696423057 1 0 0 I I #
point $-1 59.204687643055514 -33.068041363815574 7.3532416696423057 #
point $-1 59.204687643055514 -33.068041363815574 -7.3532416696423057 #
vertex $-1 $862 $864 #
straight-curve $-1 63.073113928099751 -30.068041363815574 7.3532416696423057 -1 0 0 I I #
vertex $-1 $859 $865 #
straight-curve $-1 63.073113928099751 -30.068041363815574 -7.3532416696423057 1 0 0 I I #
coedge $-1 $621 $620 $613 $783 forward $610 $-1 #
edge $-1 $784 33.48220696553355 $787 39.919550076549385 $782 $866 forward 7 unknown #
vertex $-1 $625 $867 #
straight-curve $-1 -46.352547521006159 -59.833588632166638 7.3532416696423084 0 -1 0 I I #
edge $-1 $787 -27.41859649534911 $622 -10.44930555596499 $621 $868 forward 7 unknown #
vertex $-1 $786 $869 #
straight-curve $-1 -46.352547521006159 -33.068041363815553 0.91589855862649472 0 0.68199835119979291 0.73135370988377701 I I #
point $-1 -46.352547521006159 -27.065121943993638 7.3532416696423057 #
point $-1 -29.383256581622039 -33.068041363815574 0.91589855862647185 #
straight-curve $-1 63.073113928099751 -33.068041363815574 7.3532416696423057 1 0 0 I I #
vertex $-1 $628 $870 #
point $-1 -41.958689333129328 -28.134711510001281 2.3330721042541249 #
vertex $-1 $632 $871 #
point $-1 -36.867902051314097 -28.134711510001281 2.3330721042541249 #
vertex $-1 $636 $872 #
point $-1 -31.777114769498866 -28.134711510001281 2.3330721042541249 #
edge $-1 $799 33.48220696553355 $802 39.919550076549385 $641 $873 forward 7 unknown #
vertex $-1 $655 $874 #
straight-curve $-1 29.383256581622025 -59.833588632166638 7.3532416696423084 0 -1 0 I I #
edge $-1 $802 10.449305555964983 $652 27.418596495349103 $651 $875 forward 7 unknown #
vertex $-1 $801 $876 #
straight-curve $-1 29.383256581622025 -33.068041363815553 0.91589855862649472 0 0.68199835119979291 0.73135370988377701 I I #
point $-1 29.383256581622025 -27.065121943993638 7.3532416696423057 #
point $-1 46.352547521006144 -33.068041363815574 0.91589855862647185 #
straight-curve $-1 63.073113928099751 -33.068041363815574 7.3532416696423057 1 0 0 I I #
vertex $-1 $658 $877 #
point $-1 33.777114769498844 -28.134711510001281 2.3330721042541249 #
vertex $-1 $662 $878 #
point $-1 38.867902051314083 -28.134711510001281 2.3330721042541249 #
vertex $-1 $666 $879 #
point $-1 43.958689333129321 -28.134711510001281 2.3330721042541249 #
edge $-1 $814 57.666641695550261 $817 64.103984806566103 $671 $880 forward 7 unknown #
vertex $-1 $685 $881 #
straight-curve $-1 -29.383256581622039 37.281238944637863 7.3532416696423084 0 1 0 I I #
edge $-1 $817 10.44930555596499 $682 27.41859649534911 $681 $882 forward 7 unknown #
vertex $-1 $816 $883 #
straight-curve $-1 -29.383256581622039 -12.036658011241997 49.284768018659918 0 -0.68199835119979291 0.73135370988377701 I I #
point $-1 -29.383256581622039 27.065121943993624 7.3532416696423084 #
point $-1 -46.352547521006159 33.068041363815581 0.91589855862645919 #
straight-curve $-1 0 33.068041363815574 7.3532416696423057 -1 0 0 I I #
vertex $-1 $688 $884 #
point $-1 -41.958689333129328 28.134711510001281 2.3330721042541303 #
vertex $-1 $692 $885 #
point $-1 -36.867902051314097 28.134711510001281 2.3330721042541303 #
vertex $-1 $696 $886 #
point $-1 -31.777114769498866 28.134711510001281 2.3330721042541303 #
coedge $-1 $711 $710 $703 $829 forward $700 $-1 #
edge $-1 $830 57.666641695550261 $833 64.103984806566103 $828 $887 forward 7 unknown #
vertex $-1 $715 $888 #
straight-curve $-1 46.352547521006144 37.281238944637863 7.3532416696423084 0 1 0 I I #
edge $-1 $833 -27.418596495349103 $712 -10.449305555964983 $711 $889 forward 7 unknown #
vertex $-1 $832 $890 #
straight-curve $-1 46.352547521006144 -12.036658011241997 49.284768018659918 0 -0.68199835119979291 0.73135370988377701 I I #
point $-1 46.352547521006144 27.065121943993624 7.3532416696423084 #
point $-1 29.383256581622025 33.068041363815581 0.91589855862645919 #
straight-curve $-1 0 33.068041363815574 7.3532416696423057 -1 0 0 I I #
vertex $-1 $718 $891 #
point $-1 33.777114769498844 28.134711510001281 2.3330721042541303 #
vertex $-1 $722 $892 #
point $-1 38.867902051314083 28.134711510001281 2.3330721042541303 #
vertex $-1 $726 $893 #
point $-1 43.958689333129321 28.134711510001281 2.3330721042541303 #
straight-curve $-1 -59.204687643055514 33.068041363815574 0 0 0 -1 I I #
point $-1 -59.204687643055514 -33.068041363815574 -7.3532416696423057 #
straight-curve $-1 -59.204687643055514 0 -7.3532416696423057 0 1 0 I I #
point $-1 -59.204687643055514 33.068041363815574 -7.3532416696423057 #
edge $-1 $757 -7.3532416696423057 $849 7.3532416696423057 $748 $894 forward 7 unknown #
vertex $-1 $750 $895 #
straight-curve $-1 -66.941540213143995 -31.568041363815574 -7.3532416696423057 0 1 0 I I #
straight-curve $-1 -66.941540213143995 -31.568041363815574 7.3532416696423057 0 -1 0 I I #
point $-1 -66.941540213143995 -30.068041363815574 7.3532416696423057 #
point $-1 -66.941540213143995 -30.068041363815574 -7.3532416696423057 #
point $-1 -66.941540213143995 -33.068041363815574 7.3532416696423057 #
straight-curve $-1 -63.073113928099758 -33.068041363815574 -7.3532416696423057 -1 0 0 I I #
coedge $-1 $767 $766 $769 $859 reversed $590 $-1 #
coedge $-1 $766 $767 $773 $862 reversed $590 $-1 #
straight-curve $-1 66.941540213143995 -30.068041363815574 0 0 0 -1 I I #
edge $-1 $780 -1.5 $771 1.5 $856 $896 forward 7 unknown #
straight-curve $-1 66.941540213143995 -33.068041363815574 0 0 0 -1 I I #
point $-1 66.941540213143995 -33.068041363815574 -7.3532416696423057 #
edge $-1 $774 -1.5 $778 1.5 $857 $897 forward 7 unknown #
point $-1 66.941540213143995 -33.068041363815574 7.3532416696423057 #
point $-1 66.941540213143995 -30.068041363815574 7.3532416696423057 #
point $-1 66.941540213143995 -30.068041363815574 -7.3532416696423057 #
straight-curve $-1 -46.352547521006159 -33.068041363815574 40.835448635175858 0 0 -1 I I #
point $-1 -46.352547521006166 -33.068041363815574 7.3532416696423057 #
straight-curve $-1 -18.933951025657048 -33.068041363815574 0.91589855862647929 1 0 0 I I #
point $-1 -46.352547521006159 -33.068041363815574 0.91589855862647185 #
point $-1 -42.958689333129328 -27.403357800117504 1.651073753054332 #
point $-1 -37.867902051314097 -27.403357800117504 1.651073753054332 #
point $-1 -32.777114769498866 -27.403357800117504 1.651073753054332 #
straight-curve $-1 29.383256581622025 -33.068041363815574 40.835448635175858 0 0 -1 I I #
point $-1 29.383256581622028 -33.068041363815574 7.3532416696423057 #
straight-curve $-1 18.933951025657041 -33.068041363815574 0.91589855862647929 1 0 0 I I #
point $-1 29.383256581622025 -33.068041363815574 0.91589855862647185 #
point $-1 32.777114769498844 -27.403357800117504 1.651073753054332 #
point $-1 37.867902051314083 -27.403357800117504 1.651073753054332 #
point $-1 42.958689333129321 -27.403357800117504 1.651073753054332 #
straight-curve $-1 -29.383256581622039 33.068041363815574 65.01988336519257 0 0 -1 I I #
point $-1 -29.383256581622039 33.068041363815574 7.3532416696423057 #
straight-curve $-1 -18.933951025657048 33.068041363815574 0.91589855862646274 -1 0 0 I I #
point $-1 -29.383256581622039 33.068041363815581 0.91589855862645919 #
point $-1 -42.958689333129328 27.403357800117504 1.6510737530543373 #
point $-1 -37.867902051314097 27.403357800117504 1.6510737530543373 #
point $-1 -32.777114769498866 27.403357800117504 1.6510737530543373 #
straight-curve $-1 46.352547521006144 33.068041363815574 65.01988336519257 0 0 -1 I I #
point $-1 46.352547521006144 33.068041363815574 7.3532416696423057 #
straight-curve $-1 18.933951025657041 33.068041363815574 0.91589855862646274 -1 0 0 I I #
point $-1 46.352547521006144 33.068041363815581 0.91589855862645919 #
point $-1 32.777114769498844 27.403357800117504 1.6510737530543373 #
point $-1 37.867902051314083 27.403357800117504 1.6510737530543373 #
point $-1 42.958689333129321 27.403357800117504 1.6510737530543373 #
straight-curve $-1 -66.941540213143995 -33.068041363815574 0 0 0 -1 I I #
point $-1 -66.941540213143995 -33.068041363815574 -7.3532416696423057 #
straight-curve $-1 66.941540213143995 -31.568041363815574 -7.3532416696423057 0 -1 0 I I #
straight-curve $-1 66.941540213143995 -31.568041363815574 7.3532416696423057 0 1 0 I I #
End-of-ACIS-data 