500 0 8 0           
7 Unknown 11 ACIS 5.0 NT 24 Thu Mar 25 23:52:13 1999 
-1 9.9999999999999995e-007 1e-010 
body $-1 $8 $-1 $9 #
body $-1 $10 $-1 $11 #
body $-1 $12 $-1 $13 #
body $-1 $14 $-1 $15 #
body $-1 $16 $-1 $17 #
body $-1 $18 $-1 $19 #
body $-1 $20 $-1 $21 #
body $-1 $22 $-1 $23 #
lump $-1 $-1 $24 $0 #
transform $-1 1 0 0 0 1 0 0 0 1 70.927457502975557 35.303764790506612 15.434878799885238 1 rotate no_reflect no_shear #
lump $-1 $-1 $25 $1 #
transform $-1 1 0 0 0 1 0 0 0 1 70.927457502975557 35.303764790506612 15.434878799885238 1 rotate no_reflect no_shear #
lump $-1 $-1 $26 $2 #
transform $-1 1 0 0 0 1 0 0 0 1 70.927457502975557 35.303764790506612 15.434878799885238 1 rotate no_reflect no_shear #
lump $-1 $-1 $27 $3 #
transform $-1 1 0 0 0 1 0 0 0 1 70.927457502975557 35.303764790506612 15.434878799885238 1 rotate no_reflect no_shear #
lump $-1 $-1 $28 $4 #
transform $-1 1 0 0 0 1 0 0 0 1 70.927457502975557 35.303764790506612 15.434878799885238 1 rotate no_reflect no_shear #
lump $-1 $-1 $29 $5 #
transform $-1 1 0 0 0 1 0 0 0 1 70.927457502975557 35.303764790506612 15.434878799885238 1 rotate no_reflect no_shear #
lump $-1 $-1 $30 $6 #
transform $-1 1 0 0 0 1 0 0 0 1 70.927457502975557 35.303764790506612 15.434878799885238 1 rotate no_reflect no_shear #
lump $-1 $-1 $31 $7 #
transform $-1 1 0 0 0 1 0 0 0 1 70.927457502975557 35.303764790506612 15.434878799885238 1 rotate no_reflect no_shear #
shell $-1 $-1 $-1 $32 $-1 $8 #
shell $-1 $-1 $-1 $33 $-1 $10 #
shell $-1 $-1 $-1 $34 $-1 $12 #
shell $-1 $-1 $-1 $35 $-1 $14 #
shell $-1 $-1 $-1 $36 $-1 $16 #
shell $-1 $-1 $-1 $37 $-1 $18 #
shell $-1 $-1 $-1 $38 $-1 $20 #
shell $-1 $-1 $-1 $39 $-1 $22 #
face $-1 $40 $41 $24 $-1 $42 forward single #
face $-1 $43 $44 $25 $-1 $45 reversed single #
face $-1 $46 $47 $26 $-1 $48 reversed single #
face $-1 $49 $50 $27 $-1 $51 forward single #
face $-1 $52 $53 $28 $-1 $54 forward single #
face $-1 $55 $56 $29 $-1 $57 reversed single #
face $-1 $58 $59 $30 $-1 $60 forward single #
face $-1 $61 $62 $31 $-1 $63 forward single #
face $-1 $64 $65 $24 $-1 $66 reversed single #
loop $-1 $-1 $67 $32 #
plane-surface $-1 0 0 15.434878799885238 0 0 1 1 0 0 forward_v I I I I #
face $-1 $68 $69 $25 $-1 $70 reversed single #
loop $-1 $-1 $71 $33 #
plane-surface $-1 0 -28.853519189310028 10.179756424712668 0 0 1 1 0 0 forward_v I I I I #
face $-1 $72 $73 $26 $-1 $74 reversed single #
loop $-1 $-1 $75 $34 #
plane-surface $-1 102.31027023146433 -13.76158294502862 200.80503422512473 0 -1 0 -0.80901700255871778 0 -0.5877852410284794 forward_v I I I I #
face $-1 $76 $77 $27 $-1 $78 forward single #
loop $-1 $79 $80 $35 #
cone-surface $-1 65.339468638703934 -19.934219118660636 8.3596453654033578 -0.80901700255871778 0 -0.5877852410284794 0.5877852410284794 0 -0.80901700255871778 1 I I 0 1 1 forward I I I I #
face $-1 $81 $82 $28 $-1 $83 forward single #
loop $-1 $84 $85 $36 #
cone-surface $-1 65.339468638703934 -16.230637414481428 8.3596453654033578 -0.80901700255871778 0 -0.5877852410284794 0.5877852410284794 0 -0.80901700255871778 1 I I 0 1 1 forward I I I I #
face $-1 $86 $87 $29 $-1 $88 reversed single #
loop $-1 $-1 $89 $37 #
plane-surface $-1 -70.927457502975543 -18.082428266571029 2.6617706809410464 -0.80901700255871778 0 0.5877852410284794 0.5877852410284794 0 0.80901700255871778 forward_v I I I I #
face $-1 $90 $91 $30 $-1 $92 forward single #
loop $-1 $93 $94 $38 #
cone-surface $-1 -65.339468638703948 -19.934219118660636 8.3596453654033791 0.80901700255871778 0 -0.5877852410284794 0.5877852410284794 0 0.80901700255871778 1 I I 0 1 1 forward I I I I #
face $-1 $95 $96 $31 $-1 $97 forward single #
loop $-1 $98 $99 $39 #
cone-surface $-1 -65.339468638703948 -16.230637414481428 8.3596453654033791 0.80901700255871778 0 -0.5877852410284794 0.5877852410284794 0 0.80901700255871778 1 I I 0 1 1 forward I I I I #
face $-1 $100 $101 $24 $-1 $102 reversed single #
loop $-1 $-1 $103 $40 #
plane-surface $-1 0 0 -15.434878799885238 0 0 1 1 0 0 forward_v I I I I #
coedge $-1 $104 $105 $106 $107 forward $41 $-1 #
face $-1 $108 $109 $25 $-1 $110 reversed single #
loop $-1 $-1 $111 $43 #
plane-surface $-1 0 -22.403273588113443 12.807317612298954 0 -1 0 0 0 -1 forward_v I I I I #
coedge $-1 $112 $113 $114 $115 reversed $44 $-1 #
face $-1 $116 $117 $26 $-1 $118 forward single #
loop $-1 $-1 $119 $46 #
plane-surface $-1 -12.452767904871919 -18.082428266571029 117.4248088172773 0.80901700255871778 0 0.5877852410284794 0.5877852410284794 0 -0.80901700255871778 forward_v I I I I #
coedge $-1 $120 $121 $122 $123 reversed $47 $-1 #
face $-1 $-1 $124 $27 $-1 $125 forward single #
loop $-1 $126 $127 $49 #
cone-surface $-1 63.987074268906468 -19.934219118660636 7.3770733698793567 -0.80901700255871778 0 -0.5877852410284794 0.2938926205142397 0 -0.40450850127935889 1 I I -0.70710678118654746 0.70710678118654746 0.5 forward I I I I #
loop $-1 $-1 $128 $35 #
coedge $-1 $80 $80 $129 $130 reversed $50 $-1 #
face $-1 $-1 $131 $28 $-1 $132 forward single #
loop $-1 $133 $134 $52 #
cone-surface $-1 63.987074268906468 -16.230637414481428 7.3770733698793567 -0.80901700255871778 0 -0.5877852410284794 0.2938926205142397 0 -0.40450850127935889 1 I I -0.70710678118654746 0.70710678118654746 0.5 forward I I I I #
loop $-1 $-1 $135 $36 #
coedge $-1 $85 $85 $136 $137 reversed $53 $-1 #
face $-1 $138 $139 $29 $-1 $140 forward single #
loop $-1 $-1 $141 $55 #
plane-surface $-1 -185.69049563931179 -13.76158294502862 86.04199608878848 0 -1 0 0.80901700255871778 0 -0.5877852410284794 forward_v I I I I #
coedge $-1 $142 $143 $144 $145 reversed $56 $-1 #
face $-1 $-1 $146 $30 $-1 $147 forward single #
loop $-1 $148 $149 $58 #
cone-surface $-1 -63.987074268906476 -19.934219118660636 7.377073369879378 0.80901700255871778 0 -0.5877852410284794 0.2938926205142397 0 0.40450850127935889 1 I I -0.70710678118654746 0.70710678118654746 0.5 forward I I I I #
loop $-1 $-1 $150 $38 #
coedge $-1 $94 $94 $151 $152 reversed $59 $-1 #
face $-1 $-1 $153 $31 $-1 $154 forward single #
loop $-1 $155 $156 $61 #
cone-surface $-1 -63.987074268906476 -16.230637414481428 7.377073369879378 0.80901700255871778 0 -0.5877852410284794 0.2938926205142397 0 0.40450850127935889 1 I I -0.70710678118654746 0.70710678118654746 0.5 forward I I I I #
loop $-1 $-1 $157 $39 #
coedge $-1 $99 $99 $158 $159 reversed $62 $-1 #
face $-1 $160 $161 $24 $-1 $162 reversed single #
loop $-1 $-1 $163 $64 #
plane-surface $-1 0 -35.303764790506612 0 0 1 0 0 0 1 forward_v I I I I #
coedge $-1 $164 $165 $166 $167 forward $65 $-1 #
coedge $-1 $168 $67 $169 $170 forward $41 $-1 #
coedge $-1 $67 $168 $171 $172 forward $41 $-1 #
coedge $-1 $173 $174 $67 $107 reversed $175 $-1 #
edge $-1 $176 -35.303764790506612 $177 35.303764790506612 $106 $178 forward 7 unknown #
face $-1 $179 $180 $25 $-1 $181 reversed single #
loop $-1 $-1 $182 $68 #
plane-surface $-1 -70.927457502975557 0 0 1 0 0 0 0 -1 forward_v I I I I #
coedge $-1 $183 $184 $185 $186 reversed $69 $-1 #
coedge $-1 $187 $71 $188 $189 reversed $44 $-1 #
coedge $-1 $71 $187 $183 $190 forward $44 $-1 #
coedge $-1 $185 $191 $71 $115 forward $192 $-1 #
edge $-1 $193 -20.877005195851599 $194 -7.976513993458429 $114 $195 forward 7 unknown #
face $-1 $196 $197 $26 $-1 $198 forward single #
loop $-1 $-1 $199 $72 #
plane-surface $-1 0 -22.403273588113443 12.807317612298954 0 -1 0 0 0 -1 forward_v I I I I #
coedge $-1 $200 $201 $202 $203 reversed $73 $-1 #
coedge $-1 $121 $75 $204 $205 reversed $47 $-1 #
coedge $-1 $75 $120 $200 $206 reversed $47 $-1 #
coedge $-1 $202 $207 $75 $123 forward $197 $-1 #
edge $-1 $208 -19.772322387243392 $209 -10.49211639573636 $122 $210 forward 7 unknown #
loop $-1 $-1 $129 $76 #
plane-surface $-1 -12.452767904871919 -18.082428266571029 117.4248088172773 0.80901700255871778 0 0.5877852410284794 0.5877852410284794 0 -0.80901700255871778 forward_v I I I I #
loop $-1 $-1 $211 $49 #
coedge $-1 $127 $127 $128 $212 reversed $77 $-1 #
coedge $-1 $128 $128 $127 $212 forward $79 $-1 #
coedge $-1 $129 $129 $80 $130 forward $124 $-1 #
edge $-1 $213 0 $213 6.2831853071796004 $129 $214 forward 7 unknown #
loop $-1 $-1 $136 $81 #
plane-surface $-1 -12.452767904871919 -18.082428266571029 117.4248088172773 0.80901700255871778 0 0.5877852410284794 0.5877852410284794 0 -0.80901700255871778 forward_v I I I I #
loop $-1 $-1 $215 $52 #
coedge $-1 $134 $134 $135 $216 reversed $82 $-1 #
coedge $-1 $135 $135 $134 $216 forward $84 $-1 #
coedge $-1 $136 $136 $85 $137 forward $131 $-1 #
edge $-1 $217 0 $217 6.2831853071796004 $136 $218 forward 7 unknown #
face $-1 $219 $220 $29 $-1 $221 reversed single #
loop $-1 $-1 $144 $86 #
plane-surface $-1 0 0 15.434878799885238 0 0 1 1 0 0 forward_v I I I I #
coedge $-1 $222 $223 $224 $225 reversed $87 $-1 #
coedge $-1 $226 $89 $227 $228 reversed $56 $-1 #
coedge $-1 $89 $226 $222 $229 forward $56 $-1 #
coedge $-1 $224 $230 $89 $145 forward $139 $-1 #
edge $-1 $231 -13.362059454827921 $232 -4.7203688117431053 $144 $233 forward 7 unknown #
loop $-1 $-1 $151 $90 #
plane-surface $-1 -70.927457502975543 -18.082428266571029 2.6617706809410464 -0.80901700255871778 0 0.5877852410284794 0.5877852410284794 0 0.80901700255871778 forward_v I I I I #
loop $-1 $-1 $234 $58 #
coedge $-1 $149 $149 $150 $235 reversed $91 $-1 #
coedge $-1 $150 $150 $149 $235 forward $93 $-1 #
coedge $-1 $151 $151 $94 $152 forward $146 $-1 #
edge $-1 $236 0 $236 6.2831853071796004 $151 $237 forward 7 unknown #
loop $-1 $-1 $158 $95 #
plane-surface $-1 -70.927457502975543 -18.082428266571029 2.6617706809410464 -0.80901700255871778 0 0.5877852410284794 0.5877852410284794 0 0.80901700255871778 forward_v I I I I #
loop $-1 $-1 $238 $61 #
coedge $-1 $156 $156 $157 $239 reversed $96 $-1 #
coedge $-1 $157 $157 $156 $239 forward $98 $-1 #
coedge $-1 $158 $158 $99 $159 forward $153 $-1 #
edge $-1 $240 0 $240 6.2831853071796004 $158 $241 forward 7 unknown #
face $-1 $242 $243 $24 $-1 $244 reversed single #
loop $-1 $-1 $245 $100 #
plane-surface $-1 -70.927457502975557 0 0 1 0 0 0 0 -1 forward_v I I I I #
coedge $-1 $246 $171 $247 $248 forward $101 $-1 #
coedge $-1 $249 $103 $246 $250 forward $65 $-1 #
coedge $-1 $103 $249 $251 $252 forward $65 $-1 #
coedge $-1 $174 $173 $103 $167 reversed $175 $-1 #
edge $-1 $253 -35.303764790506612 $254 35.303764790506612 $166 $255 forward 7 unknown #
coedge $-1 $105 $104 $256 $257 forward $41 $-1 #
coedge $-1 $258 $259 $104 $170 reversed $243 $-1 #
edge $-1 $177 -70.927457502975557 $260 70.927457502975557 $169 $261 forward 7 unknown #
coedge $-1 $163 $262 $105 $172 reversed $101 $-1 #
edge $-1 $263 -70.927457502975557 $176 70.927457502975557 $171 $264 forward 7 unknown #
coedge $-1 $166 $106 $262 $265 forward $175 $-1 #
coedge $-1 $106 $166 $258 $266 reversed $175 $-1 #
loop $-1 $-1 $173 $242 #
vertex $-1 $107 $267 #
vertex $-1 $107 $268 #
straight-curve $-1 70.927457502975557 0 15.434878799885238 0 1 0 I I #
face $-1 $269 $270 $25 $-1 $271 forward single #
loop $-1 $-1 $188 $108 #
plane-surface $-1 0 -35.303764790506612 0 0 1 0 0 0 1 forward_v I I I I #
coedge $-1 $272 $273 $274 $275 forward $109 $-1 #
coedge $-1 $274 $111 $113 $190 reversed $69 $-1 #
coedge $-1 $111 $274 $276 $277 reversed $69 $-1 #
coedge $-1 $278 $114 $111 $186 forward $192 $-1 #
edge $-1 $194 3.7760976185631909 $279 9.031219993735764 $185 $280 forward 7 unknown #
coedge $-1 $113 $112 $272 $281 reversed $44 $-1 #
coedge $-1 $282 $283 $112 $189 forward $180 $-1 #
edge $-1 $284 -70.927457502975557 $193 70.927457502975557 $188 $285 forward 7 unknown #
edge $-1 $286 -70.927457502975557 $194 70.927457502975557 $183 $287 forward 7 unknown #
coedge $-1 $114 $278 $282 $288 forward $192 $-1 #
loop $-1 $-1 $185 $269 #
vertex $-1 $189 $289 #
vertex $-1 $115 $290 #
straight-curve $-1 70.927457502975557 -14.426759594655014 10.179756424712668 0 1 0 I I #
face $-1 $-1 $291 $26 $-1 $292 reversed single #
loop $-1 $-1 $202 $116 #
plane-surface $-1 0 0 15.434878799885238 0 0 1 1 0 0 forward_v I I I I #
coedge $-1 $293 $294 $201 $295 reversed $117 $-1 #
coedge $-1 $296 $119 $121 $206 forward $73 $-1 #
coedge $-1 $119 $296 $199 $295 forward $73 $-1 #
coedge $-1 $297 $122 $119 $203 forward $197 $-1 #
edge $-1 $209 4.7203688117431053 $298 13.362059454827929 $202 $299 forward 7 unknown #
coedge $-1 $300 $301 $120 $205 forward $291 $-1 #
edge $-1 $302 -97.740746431621361 $208 -84.967638312677124 $204 $303 forward 7 unknown #
edge $-1 $209 126.06648524669259 $302 141.85491500595117 $121 $304 forward 7 unknown #
coedge $-1 $122 $297 $300 $305 forward $197 $-1 #
vertex $-1 $205 $306 #
vertex $-1 $123 $307 #
straight-curve $-1 51.155135115732165 -13.76158294502862 15.43487879988524 -1 0 0 I I #
coedge $-1 $211 $211 $-1 $308 reversed $126 $-1 #
edge $-1 $309 0 $309 6.2831853071796004 $127 $310 forward 7 unknown #
vertex $-1 $130 $311 #
ellipse-curve $-1 66.287354507222034 -19.934219118660636 9.0483247404131131 0.80901700255871778 0 0.5877852410284794 0.5877852410284794 0 -0.80901700255871778 1 I I #
coedge $-1 $215 $215 $-1 $312 reversed $133 $-1 #
edge $-1 $313 0 $313 6.2831853071796004 $134 $314 forward 7 unknown #
vertex $-1 $137 $315 #
ellipse-curve $-1 66.287354507222034 -16.230637414481428 9.0483247404131131 0.80901700255871778 0 0.5877852410284794 0.5877852410284794 0 -0.80901700255871778 1 I I #
face $-1 $-1 $316 $29 $-1 $317 forward single #
loop $-1 $-1 $318 $138 #
plane-surface $-1 -70.927457502975557 0 0 1 0 0 0 0 -1 forward_v I I I I #
coedge $-1 $223 $141 $143 $229 reversed $87 $-1 #
coedge $-1 $141 $222 $318 $319 reversed $87 $-1 #
coedge $-1 $320 $144 $141 $225 forward $139 $-1 #
edge $-1 $232 -31.197996308187342 $321 -21.917790316680339 $224 $322 forward 7 unknown #
coedge $-1 $143 $142 $323 $324 reversed $56 $-1 #
coedge $-1 $325 $326 $142 $228 forward $316 $-1 #
edge $-1 $327 -24.949016335824862 $231 -9.1605865765663133 $227 $328 forward 7 unknown #
edge $-1 $329 -2.4161062406544664e-014 $232 15.788429759258527 $222 $330 forward 7 unknown #
coedge $-1 $144 $320 $325 $331 forward $139 $-1 #
vertex $-1 $228 $332 #
vertex $-1 $145 $333 #
straight-curve $-1 -61.647251511468546 -9.0412141332855143 15.43487879988524 0 1 0 I I #
coedge $-1 $234 $234 $-1 $334 reversed $148 $-1 #
edge $-1 $335 0 $335 6.2831853071796004 $149 $336 forward 7 unknown #
vertex $-1 $152 $337 #
ellipse-curve $-1 -66.287354507222048 -19.934219118660636 9.0483247404131344 -0.80901700255871778 0 0.5877852410284794 0.5877852410284794 0 0.80901700255871778 1 I I #
coedge $-1 $238 $238 $-1 $338 reversed $155 $-1 #
edge $-1 $339 0 $339 6.2831853071796004 $156 $340 forward 7 unknown #
vertex $-1 $159 $341 #
ellipse-curve $-1 -66.287354507222048 -16.230637414481428 9.0483247404131344 -0.80901700255871778 0 0.5877852410284794 0.5877852410284794 0 0.80901700255871778 1 I I #
face $-1 $-1 $175 $24 $-1 $342 reversed single #
loop $-1 $-1 $258 $160 #
plane-surface $-1 0 35.303764790506612 0 0 -1 0 0 0 -1 forward_v I I I I #
coedge $-1 $343 $256 $259 $344 forward $161 $-1 #
coedge $-1 $262 $163 $164 $250 reversed $101 $-1 #
coedge $-1 $256 $343 $163 $248 reversed $161 $-1 #
edge $-1 $263 -15.434878799885238 $345 15.434878799885238 $247 $346 forward 7 unknown #
coedge $-1 $165 $164 $343 $347 forward $65 $-1 #
edge $-1 $254 -70.927457502975557 $345 70.927457502975557 $246 $348 forward 7 unknown #
coedge $-1 $259 $258 $165 $252 reversed $243 $-1 #
edge $-1 $349 -70.927457502975557 $253 70.927457502975557 $251 $350 forward 7 unknown #
vertex $-1 $167 $351 #
vertex $-1 $265 $352 #
straight-curve $-1 70.927457502975557 0 -15.434878799885238 0 -1 0 I I #
coedge $-1 $245 $247 $168 $257 reversed $161 $-1 #
edge $-1 $260 -35.303764790506612 $263 35.303764790506612 $256 $353 forward 7 unknown #
coedge $-1 $251 $169 $174 $266 forward $243 $-1 #
coedge $-1 $169 $251 $245 $344 reversed $243 $-1 #
vertex $-1 $170 $354 #
straight-curve $-1 0 35.303764790506612 15.434878799885238 -1 0 0 I I #
coedge $-1 $171 $246 $173 $265 reversed $101 $-1 #
vertex $-1 $257 $355 #
straight-curve $-1 0 -35.303764790506612 15.434878799885238 1 0 0 I I #
edge $-1 $176 -15.434878799885238 $254 15.434878799885238 $173 $356 forward 7 unknown #
edge $-1 $177 -15.434878799885238 $253 15.434878799885238 $174 $357 forward 7 unknown #
point $-1 70.927457502975557 -35.303764790506612 15.434878799885238 #
point $-1 70.927457502975557 35.303764790506612 15.434878799885238 #
face $-1 $-1 $192 $25 $-1 $358 reversed single #
loop $-1 $-1 $276 $179 #
plane-surface $-1 0 0 15.434878799885238 0 0 1 1 0 0 forward_v I I I I #
coedge $-1 $359 $182 $187 $281 forward $109 $-1 #
coedge $-1 $182 $359 $360 $361 reversed $109 $-1 #
coedge $-1 $184 $183 $182 $275 reversed $69 $-1 #
edge $-1 $362 -9.031219993735764 $286 -3.7760976185631909 $182 $363 forward 7 unknown #
coedge $-1 $360 $364 $184 $277 forward $270 $-1 #
edge $-1 $279 -70.927457502975557 $362 70.927457502975557 $276 $365 forward 7 unknown #
coedge $-1 $191 $185 $364 $366 reversed $192 $-1 #
vertex $-1 $186 $367 #
straight-curve $-1 70.927457502975557 -22.403273588113443 6.403658806149477 0 0 1 I I #
edge $-1 $286 7.976513993458429 $284 20.877005195851599 $272 $368 forward 7 unknown #
coedge $-1 $369 $188 $191 $288 reversed $180 $-1 #
coedge $-1 $188 $369 $359 $370 forward $180 $-1 #
vertex $-1 $189 $371 #
straight-curve $-1 0 -35.303764790506612 10.179756424712668 1 0 0 I I #
vertex $-1 $281 $372 #
straight-curve $-1 0 -22.403273588113443 10.179756424712668 1 0 0 I I #
edge $-1 $373 -15.434878799885238 $193 -10.179756424712668 $191 $374 forward 7 unknown #
point $-1 70.927457502975557 -35.303764790506612 10.179756424712668 #
point $-1 70.927457502975557 -22.403273588113443 10.179756424712668 #
loop $-1 $-1 $204 $196 #
plane-surface $-1 70.927457502975557 0 0 -1 0 0 0 0 1 forward_v I I I I #
coedge $-1 $294 $199 $375 $376 reversed $117 $-1 #
coedge $-1 $199 $293 $297 $377 reversed $117 $-1 #
edge $-1 $378 -141.85491500595117 $298 -126.06648524669259 $199 $379 forward 7 unknown #
coedge $-1 $201 $200 $301 $380 reversed $73 $-1 #
coedge $-1 $207 $202 $294 $377 forward $197 $-1 #
vertex $-1 $377 $381 #
straight-curve $-1 61.647251511468525 -9.0412141332855143 15.434878799885254 0 -1 0 I I #
coedge $-1 $375 $204 $207 $305 reversed $291 $-1 #
coedge $-1 $204 $375 $296 $380 forward $291 $-1 #
vertex $-1 $205 $382 #
straight-curve $-1 70.927457502975557 -13.76158294502862 100.40251711256236 0 0 1 I I #
straight-curve $-1 -12.452767904871919 -13.76158294502862 117.4248088172773 0.5877852410284794 0 -0.80901700255871778 I I #
edge $-1 $383 -22.403273588113443 $208 -13.76158294502862 $300 $384 forward 7 unknown #
point $-1 70.927457502975557 -13.76158294502862 15.434878799885238 #
point $-1 61.647251511468525 -13.76158294502862 15.43487879988524 #
edge $-1 $385 1 $385 0 $211 $-1 forward 7 unknown #
vertex $-1 $212 $386 #
ellipse-curve $-1 64.391582770185821 -19.934219118660636 7.6709659903935963 0.80901700255871778 0 0.5877852410284794 0.5877852410284794 0 -0.80901700255871778 1 I I #
point $-1 66.875139748250533 -19.934219118660636 8.2393077378544017 #
edge $-1 $387 1 $387 0 $215 $-1 forward 7 unknown #
vertex $-1 $216 $388 #
ellipse-curve $-1 64.391582770185821 -16.230637414481428 7.6709659903935963 0.80901700255871778 0 0.5877852410284794 0.5877852410284794 0 -0.80901700255871778 1 I I #
point $-1 66.875139748250533 -16.230637414481428 8.2393077378544017 #
loop $-1 $-1 $227 $219 #
plane-surface $-1 0 -22.403273588113443 12.807317612298954 0 -1 0 0 0 -1 forward_v I I I I #
coedge $-1 $323 $389 $223 $319 forward $220 $-1 #
edge $-1 $321 27.586119244509 $329 40.359227363453215 $318 $390 forward 7 unknown #
coedge $-1 $230 $224 $389 $391 forward $139 $-1 #
vertex $-1 $391 $392 #
straight-curve $-1 -92.845247819655896 -13.76158294502862 15.43487879988524 -1 0 0 I I #
coedge $-1 $393 $318 $226 $324 forward $220 $-1 #
edge $-1 $329 4.7203688117431053 $327 13.362059454827921 $323 $394 forward 7 unknown #
coedge $-1 $326 $227 $230 $331 reversed $316 $-1 #
coedge $-1 $227 $325 $393 $395 reversed $316 $-1 #
vertex $-1 $395 $396 #
straight-curve $-1 -56.262793922599272 -22.403273588113443 22.845949093738543 0.5877852410284794 0 0.80901700255871778 I I #
vertex $-1 $324 $397 #
straight-curve $-1 -70.927457502975543 -13.76158294502862 2.6617706809410464 0.5877852410284794 0 0.80901700255871778 I I #
edge $-1 $398 -70.927457502975557 $231 -61.647251511468554 $230 $399 forward 7 unknown #
point $-1 -61.647251511468554 -22.403273588113436 15.434878799885238 #
point $-1 -61.647251511468554 -13.76158294502862 15.434878799885238 #
edge $-1 $400 1 $400 0 $234 $-1 forward 7 unknown #
vertex $-1 $235 $401 #
ellipse-curve $-1 -64.391582770185835 -19.934219118660636 7.6709659903936176 -0.80901700255871778 0 0.5877852410284794 0.5877852410284794 0 0.80901700255871778 1 I I #
point $-1 -65.699569266193578 -19.934219118660636 9.8573417429718582 #
edge $-1 $402 1 $402 0 $238 $-1 forward 7 unknown #
vertex $-1 $239 $403 #
ellipse-curve $-1 -64.391582770185835 -16.230637414481428 7.6709659903936176 -0.80901700255871778 0 0.5877852410284794 0.5877852410284794 0 0.80901700255871778 1 I I #
point $-1 -65.699569266193578 -16.230637414481428 9.8573417429718582 #
plane-surface $-1 70.927457502975557 0 0 -1 0 0 0 0 1 forward_v I I I I #
coedge $-1 $247 $245 $249 $347 reversed $161 $-1 #
edge $-1 $260 -15.434878799885238 $349 15.434878799885238 $259 $404 forward 7 unknown #
vertex $-1 $347 $405 #
straight-curve $-1 -70.927457502975557 -35.303764790506612 0 0 0 -1 I I #
edge $-1 $345 -35.303764790506612 $349 35.303764790506612 $343 $406 forward 7 unknown #
straight-curve $-1 0 -35.303764790506612 -15.434878799885238 -1 0 0 I I #
vertex $-1 $252 $407 #
straight-curve $-1 0 35.303764790506612 -15.434878799885238 1 0 0 I I #
point $-1 70.927457502975557 35.303764790506612 -15.434878799885238 #
point $-1 70.927457502975557 -35.303764790506612 -15.434878799885238 #
straight-curve $-1 -70.927457502975557 0 15.434878799885238 0 -1 0 I I #
point $-1 -70.927457502975557 35.303764790506612 15.434878799885238 #
point $-1 -70.927457502975557 -35.303764790506612 15.434878799885238 #
straight-curve $-1 70.927457502975557 -35.303764790506612 0 0 0 -1 I I #
straight-curve $-1 70.927457502975557 35.303764790506612 0 0 0 -1 I I #
plane-surface $-1 70.927457502975557 0 0 -1 0 0 0 0 1 forward_v I I I I #
coedge $-1 $273 $272 $283 $370 reversed $109 $-1 #
coedge $-1 $408 $276 $273 $361 forward $270 $-1 #
edge $-1 $362 22.403273588113443 $409 35.303764790506612 $273 $410 forward 7 unknown #
vertex $-1 $361 $411 #
straight-curve $-1 -70.927457502975557 -22.403273588113443 6.403658806149477 0 0 -1 I I #
coedge $-1 $276 $408 $278 $366 forward $270 $-1 #
straight-curve $-1 0 -22.403273588113443 15.434878799885238 -1 0 0 I I #
edge $-1 $373 -35.303764790506612 $279 -22.403273588113443 $278 $412 forward 7 unknown #
point $-1 70.927457502975557 -22.403273588113443 15.43487879988524 #
straight-curve $-1 -70.927457502975557 -14.426759594655014 10.179756424712668 0 -1 0 I I #
coedge $-1 $283 $282 $408 $413 reversed $180 $-1 #
edge $-1 $409 -15.434878799885238 $284 -10.179756424712668 $359 $414 forward 7 unknown #
point $-1 -70.927457502975557 -35.303764790506612 10.179756424712668 #
point $-1 -70.927457502975557 -22.403273588113443 10.179756424712668 #
vertex $-1 $366 $415 #
straight-curve $-1 70.927457502975557 -35.303764790506612 0 0 0 -1 I I #
coedge $-1 $301 $300 $293 $376 forward $291 $-1 #
edge $-1 $383 84.967638312677124 $378 97.740746431621361 $375 $416 forward 7 unknown #
edge $-1 $298 61.647251511468525 $383 70.927457502975557 $297 $417 forward 7 unknown #
vertex $-1 $376 $418 #
straight-curve $-1 -12.452767904871919 -22.403273588113436 117.4248088172773 -0.5877852410284794 0 0.80901700255871778 I I #
edge $-1 $378 -13.362059454827921 $302 -4.7203688117431053 $301 $419 forward 7 unknown #
point $-1 61.647251511468525 -22.403273588113443 15.434878799885238 #
point $-1 70.927457502975543 -13.76158294502862 2.6617706809410038 #
vertex $-1 $305 $420 #
straight-curve $-1 70.927457502975557 0 15.434878799885238 0 1 0 I I #
vertex $-1 $308 $421 #
point $-1 64.979368011214305 -19.934219118660636 6.8619489878348787 #
vertex $-1 $312 $422 #
point $-1 64.979368011214305 -16.230637414481428 6.8619489878348787 #
coedge $-1 $318 $393 $320 $391 reversed $220 $-1 #
straight-curve $-1 -70.927457502975557 -13.76158294502862 43.02099804439424 0 0 -1 I I #
edge $-1 $321 13.76158294502862 $398 22.403273588113443 $389 $423 forward 7 unknown #
point $-1 -70.927457502975557 -13.76158294502862 15.434878799885238 #
coedge $-1 $389 $323 $326 $395 forward $220 $-1 #
straight-curve $-1 -70.927457502975557 -9.0412141332855143 2.6617706809410326 0 -1 0 I I #
edge $-1 $327 -40.359227363453215 $398 -27.586119244509 $393 $424 forward 7 unknown #
point $-1 -70.927457502975557 -22.403273588113436 2.6617706809410269 #
point $-1 -70.927457502975557 -13.76158294502862 2.6617706809410269 #
vertex $-1 $395 $425 #
straight-curve $-1 0 -22.403273588113443 15.434878799885238 1 0 0 I I #
vertex $-1 $334 $426 #
point $-1 -63.803797529157357 -19.934219118660636 8.4799829929523352 #
vertex $-1 $338 $427 #
point $-1 -63.803797529157357 -16.230637414481428 8.4799829929523352 #
straight-curve $-1 -70.927457502975557 35.303764790506612 0 0 0 -1 I I #
point $-1 -70.927457502975557 -35.303764790506612 -15.434878799885238 #
straight-curve $-1 -70.927457502975557 0 -15.434878799885238 0 1 0 I I #
point $-1 -70.927457502975557 35.303764790506612 -15.434878799885238 #
coedge $-1 $364 $360 $369 $413 forward $270 $-1 #
vertex $-1 $361 $428 #
straight-curve $-1 -70.927457502975557 0 15.434878799885238 0 -1 0 I I #
point $-1 -70.927457502975557 -22.403273588113443 15.43487879988524 #
straight-curve $-1 70.927457502975557 0 15.434878799885238 0 1 0 I I #
edge $-1 $409 -70.927457502975557 $373 70.927457502975557 $369 $429 forward 7 unknown #
straight-curve $-1 -70.927457502975557 -35.303764790506612 0 0 0 -1 I I #
point $-1 70.927457502975557 -35.303764790506612 15.434878799885238 #
straight-curve $-1 70.927457502975557 -22.403273588113436 100.40251711256236 0 0 -1 I I #
straight-curve $-1 0 -22.403273588113443 15.434878799885238 1 0 0 I I #
point $-1 70.927457502975543 -22.403273588113436 2.6617706809410038 #
straight-curve $-1 70.927457502975557 -9.0412141332855143 2.6617706809410038 0 1 0 I I #
point $-1 70.927457502975557 -22.403273588113443 15.43487879988524 #
point $-1 63.582565767627109 -19.934219118660636 7.0831807493651171 #
point $-1 63.582565767627109 -16.230637414481428 7.0831807493651171 #
straight-curve $-1 -70.927457502975557 0 15.434878799885238 0 -1 0 I I #
straight-curve $-1 -70.927457502975557 -22.403273588113436 43.02099804439424 0 0 1 I I #
point $-1 -70.927457502975557 -22.403273588113443 15.43487879988524 #
point $-1 -63.582565767627116 -19.934219118660636 7.0831807493651384 #
point $-1 -63.582565767627116 -16.230637414481428 7.0831807493651384 #
point $-1 -70.927457502975557 -35.303764790506612 15.434878799885238 #
straight-curve $-1 0 -35.303764790506612 15.434878799885238 1 0 0 I I #
End-of-ACIS-data 