500 0 9 0           
7 Unknown 11 ACIS 5.0 NT 24 Thu Mar 25 22:14:37 1999 
-1 9.9999999999999995e-007 1e-010 
body $-1 $9 $-1 $10 #
body $-1 $11 $-1 $12 #
body $-1 $13 $-1 $14 #
body $-1 $15 $-1 $16 #
body $-1 $17 $-1 $18 #
body $-1 $19 $-1 $20 #
body $-1 $21 $-1 $22 #
body $-1 $23 $-1 $24 #
body $-1 $25 $-1 $26 #
lump $-1 $-1 $27 $0 #
transform $-1 1 0 0 0 1 0 0 0 1 77.459639271217995 44.532850809747181 14.681149153176428 1 rotate no_reflect no_shear #
lump $-1 $-1 $28 $1 #
transform $-1 1 0 0 0 1 0 0 0 1 77.459639271217995 44.532850809747181 14.681149153176428 1 rotate no_reflect no_shear #
lump $-1 $-1 $29 $2 #
transform $-1 1 0 0 0 1 0 0 0 1 77.459639271217995 44.532850809747181 14.681149153176428 1 rotate no_reflect no_shear #
lump $-1 $-1 $30 $3 #
transform $-1 1 0 0 0 1 0 0 0 1 77.459639271217995 44.532850809747181 14.681149153176428 1 rotate no_reflect no_shear #
lump $-1 $-1 $31 $4 #
transform $-1 1 0 0 0 1 0 0 0 1 77.459639271217995 44.532850809747181 14.681149153176428 1 rotate no_reflect no_shear #
lump $-1 $-1 $32 $5 #
transform $-1 1 0 0 0 1 0 0 0 1 77.459639271217995 44.532850809747181 14.681149153176428 1 rotate no_reflect no_shear #
lump $-1 $-1 $33 $6 #
transform $-1 1 0 0 0 1 0 0 0 1 77.459639271217995 44.532850809747181 14.681149153176428 1 rotate no_reflect no_shear #
lump $-1 $-1 $34 $7 #
transform $-1 1 0 0 0 1 0 0 0 1 77.459639271217995 44.532850809747181 14.681149153176428 1 rotate no_reflect no_shear #
lump $-1 $-1 $35 $8 #
transform $-1 1 0 0 0 1 0 0 0 1 77.459639271217995 44.532850809747181 14.681149153176428 1 rotate no_reflect no_shear #
shell $-1 $-1 $-1 $36 $-1 $9 #
shell $-1 $-1 $-1 $37 $-1 $11 #
shell $-1 $-1 $-1 $38 $-1 $13 #
shell $-1 $-1 $-1 $39 $-1 $15 #
shell $-1 $-1 $-1 $40 $-1 $17 #
shell $-1 $-1 $-1 $41 $-1 $19 #
shell $-1 $-1 $-1 $42 $-1 $21 #
shell $-1 $-1 $-1 $43 $-1 $23 #
shell $-1 $-1 $-1 $44 $-1 $25 #
face $-1 $45 $46 $27 $-1 $47 forward single #
face $-1 $48 $49 $28 $-1 $50 reversed single #
face $-1 $51 $52 $29 $-1 $53 reversed single #
face $-1 $54 $55 $30 $-1 $56 reversed single #
face $-1 $57 $58 $31 $-1 $59 forward single #
face $-1 $60 $61 $32 $-1 $62 forward single #
face $-1 $63 $64 $33 $-1 $65 reversed single #
face $-1 $66 $67 $34 $-1 $68 forward single #
face $-1 $69 $70 $35 $-1 $71 forward single #
face $-1 $72 $73 $27 $-1 $74 reversed single #
loop $-1 $-1 $75 $36 #
plane-surface $-1 0 0 14.681149153176428 0 0 1 1 0 0 forward_v I I I I #
face $-1 $76 $77 $28 $-1 $78 reversed single #
loop $-1 $-1 $79 $37 #
plane-surface $-1 -67.856871973725234 -41.305390565904567 0 0 -1 0 0 0 -1 forward_v I I I I #
face $-1 $80 $81 $29 $-1 $82 reversed single #
loop $-1 $-1 $83 $38 #
plane-surface $-1 58.254104676232473 -42.919120687825874 0 1 0 0 0 0 -1 forward_v I I I I #
face $-1 $84 $85 $30 $-1 $86 reversed single #
loop $-1 $-1 $87 $39 #
plane-surface $-1 0 -157.83363990427594 115.53663029329778 -1 0 0 0 -0.73135370988377701 0.68199835119979291 forward_v I I I I #
face $-1 $88 $89 $31 $-1 $90 forward single #
loop $-1 $91 $92 $40 #
cone-surface $-1 -18.391254306259171 -41.85220078120367 11.868456469552568 0 0.73135370988377701 -0.68199835119979291 1 0 0 1 I I 0 1 1 forward I I I I #
face $-1 $93 $94 $32 $-1 $95 forward single #
loop $-1 $96 $97 $41 #
cone-surface $-1 -7.3565017225036655 -41.85220078120367 11.868456469552568 0 0.73135370988377701 -0.68199835119979291 1 0 0 1 I I 0 1 1 forward I I I I #
face $-1 $98 $99 $33 $-1 $100 reversed single #
loop $-1 $-1 $101 $42 #
plane-surface $-1 25.747756028762836 -157.83363990427594 115.53663029329778 -1 0 0 0 -0.73135370988377701 0.68199835119979291 forward_v I I I I #
face $-1 $102 $103 $34 $-1 $104 forward single #
loop $-1 $105 $106 $43 #
cone-surface $-1 7.3565017225036655 -41.85220078120367 11.868456469552568 0 0.73135370988377701 -0.68199835119979291 1 0 0 1 I I 0 1 1 forward I I I I #
face $-1 $107 $108 $35 $-1 $109 forward single #
loop $-1 $110 $111 $44 #
cone-surface $-1 18.391254306259171 -41.85220078120367 11.868456469552568 0 0.73135370988377701 -0.68199835119979291 1 0 0 1 I I 0 1 1 forward I I I I #
face $-1 $112 $113 $27 $-1 $114 reversed single #
loop $-1 $-1 $115 $45 #
plane-surface $-1 0 0 -14.681149153176428 0 0 1 1 0 0 forward_v I I I I #
coedge $-1 $116 $117 $118 $119 forward $46 $-1 #
face $-1 $120 $121 $28 $-1 $122 forward single #
loop $-1 $-1 $123 $48 #
plane-surface $-1 -58.254104676232473 -42.919120687825874 0 -1 0 0 0 0 1 forward_v I I I I #
coedge $-1 $124 $125 $126 $127 forward $49 $-1 #
face $-1 $128 $129 $29 $-1 $130 forward single #
loop $-1 $-1 $131 $51 #
plane-surface $-1 67.856871973725234 -41.305390565904567 0 0 -1 0 0 0 -1 forward_v I I I I #
coedge $-1 $132 $133 $134 $135 forward $52 $-1 #
face $-1 $136 $137 $30 $-1 $138 reversed single #
loop $-1 $-1 $139 $54 #
plane-surface $-1 -12.873878014381418 -44.532850809747174 9.8819377582949812 0 -0.73135370988377701 0.68199835119979291 1 0 0 forward_v I I I I #
coedge $-1 $140 $141 $142 $143 reversed $55 $-1 #
face $-1 $-1 $144 $31 $-1 $145 forward single #
loop $-1 $146 $147 $57 #
cone-surface $-1 -18.391254306259171 -41.043542356998088 11.114370307769551 0 0.73135370988377701 -0.68199835119979291 0.5 0 0 1 I I -0.70710678118654746 0.70710678118654746 0.5 forward I I I I #
loop $-1 $-1 $148 $40 #
coedge $-1 $92 $92 $149 $150 reversed $58 $-1 #
face $-1 $-1 $151 $32 $-1 $152 forward single #
loop $-1 $153 $154 $60 #
cone-surface $-1 -7.3565017225036655 -41.043542356998088 11.114370307769551 0 0.73135370988377701 -0.68199835119979291 0.5 0 0 1 I I -0.70710678118654746 0.70710678118654746 0.5 forward I I I I #
loop $-1 $-1 $155 $41 #
coedge $-1 $97 $97 $156 $157 reversed $61 $-1 #
face $-1 $158 $159 $33 $-1 $160 reversed single #
loop $-1 $-1 $161 $63 #
plane-surface $-1 -12.873878014381418 -44.532850809747174 9.8819377582949812 0 -0.73135370988377701 0.68199835119979291 1 0 0 forward_v I I I I #
coedge $-1 $162 $163 $164 $165 reversed $64 $-1 #
face $-1 $-1 $166 $34 $-1 $167 forward single #
loop $-1 $168 $169 $66 #
cone-surface $-1 7.3565017225036655 -41.043542356998088 11.114370307769551 0 0.73135370988377701 -0.68199835119979291 0.5 0 0 1 I I -0.70710678118654746 0.70710678118654746 0.5 forward I I I I #
loop $-1 $-1 $170 $43 #
coedge $-1 $106 $106 $171 $172 reversed $67 $-1 #
face $-1 $-1 $173 $35 $-1 $174 forward single #
loop $-1 $175 $176 $69 #
cone-surface $-1 18.391254306259171 -41.043542356998088 11.114370307769551 0 0.73135370988377701 -0.68199835119979291 0.5 0 0 1 I I -0.70710678118654746 0.70710678118654746 0.5 forward I I I I #
loop $-1 $-1 $177 $44 #
coedge $-1 $111 $111 $178 $179 reversed $70 $-1 #
face $-1 $180 $181 $27 $-1 $182 reversed single #
loop $-1 $-1 $183 $72 #
plane-surface $-1 0 -44.532850809747181 0 0 1 0 0 0 1 forward_v I I I I #
coedge $-1 $184 $185 $186 $187 forward $73 $-1 #
coedge $-1 $188 $75 $189 $190 forward $46 $-1 #
coedge $-1 $75 $188 $191 $192 forward $46 $-1 #
coedge $-1 $193 $194 $75 $119 reversed $195 $-1 #
edge $-1 $196 -44.532850809747181 $197 44.532850809747181 $118 $198 forward 7 unknown #
face $-1 $199 $200 $28 $-1 $201 reversed single #
loop $-1 $-1 $202 $76 #
plane-surface $-1 0 0 14.681149153176428 0 0 1 1 0 0 forward_v I I I I #
coedge $-1 $203 $204 $205 $206 reversed $77 $-1 #
coedge $-1 $207 $79 $208 $209 reversed $49 $-1 #
coedge $-1 $79 $207 $210 $211 reversed $49 $-1 #
coedge $-1 $204 $203 $79 $127 reversed $77 $-1 #
edge $-1 $212 -14.681149153176428 $213 14.681149153176428 $126 $214 forward 7 unknown #
face $-1 $215 $216 $29 $-1 $217 reversed single #
loop $-1 $-1 $218 $80 #
plane-surface $-1 0 0 14.681149153176428 0 0 1 1 0 0 forward_v I I I I #
coedge $-1 $219 $220 $221 $222 reversed $81 $-1 #
coedge $-1 $223 $83 $224 $225 reversed $52 $-1 #
coedge $-1 $83 $223 $226 $227 reversed $52 $-1 #
coedge $-1 $220 $219 $83 $135 reversed $81 $-1 #
edge $-1 $228 -14.681149153176428 $229 14.681149153176428 $134 $230 forward 7 unknown #
face $-1 $231 $232 $30 $-1 $233 forward single #
loop $-1 $-1 $234 $84 #
plane-surface $-1 -25.747756028762836 -157.83363990427594 115.53663029329778 1 0 0 0 0.73135370988377701 -0.68199835119979291 forward_v I I I I #
coedge $-1 $235 $236 $237 $238 reversed $85 $-1 #
coedge $-1 $141 $87 $239 $240 reversed $55 $-1 #
coedge $-1 $87 $140 $235 $241 reversed $55 $-1 #
coedge $-1 $237 $242 $87 $143 forward $232 $-1 #
edge $-1 $243 34.383969142390789 $244 38.859306060950409 $142 $245 forward 7 unknown #
loop $-1 $-1 $149 $88 #
plane-surface $-1 -12.873878014381418 -44.532850809747174 9.8819377582949812 0 -0.73135370988377701 0.68199835119979291 1 0 0 forward_v I I I I #
loop $-1 $-1 $246 $57 #
coedge $-1 $147 $147 $148 $247 reversed $89 $-1 #
coedge $-1 $148 $148 $147 $247 forward $91 $-1 #
coedge $-1 $149 $149 $92 $150 forward $144 $-1 #
edge $-1 $248 1.8969084974708056e-015 $248 6.2831853071796022 $149 $249 forward 7 unknown #
loop $-1 $-1 $156 $93 #
plane-surface $-1 -12.873878014381418 -44.532850809747174 9.8819377582949812 0 -0.73135370988377701 0.68199835119979291 1 0 0 forward_v I I I I #
loop $-1 $-1 $250 $60 #
coedge $-1 $154 $154 $155 $251 reversed $94 $-1 #
coedge $-1 $155 $155 $154 $251 forward $96 $-1 #
coedge $-1 $156 $156 $97 $157 forward $151 $-1 #
edge $-1 $252 1.8969084974708056e-015 $252 6.2831853071796022 $156 $253 forward 7 unknown #
face $-1 $254 $255 $33 $-1 $256 forward single #
loop $-1 $-1 $257 $98 #
plane-surface $-1 0 -44.532850809747181 0 0 1 0 0 0 1 forward_v I I I I #
coedge $-1 $258 $259 $260 $261 reversed $99 $-1 #
coedge $-1 $163 $101 $262 $263 reversed $64 $-1 #
coedge $-1 $101 $162 $264 $265 reversed $64 $-1 #
coedge $-1 $266 $257 $101 $165 forward $159 $-1 #
edge $-1 $267 -47.886377388353914 $268 -43.08716599347246 $164 $269 forward 7 unknown #
loop $-1 $-1 $171 $102 #
plane-surface $-1 -12.873878014381418 -44.532850809747174 9.8819377582949812 0 -0.73135370988377701 0.68199835119979291 1 0 0 forward_v I I I I #
loop $-1 $-1 $270 $66 #
coedge $-1 $169 $169 $170 $271 reversed $103 $-1 #
coedge $-1 $170 $170 $169 $271 forward $105 $-1 #
coedge $-1 $171 $171 $106 $172 forward $166 $-1 #
edge $-1 $272 1.8969084974708056e-015 $272 6.2831853071796022 $171 $273 forward 7 unknown #
loop $-1 $-1 $178 $107 #
plane-surface $-1 -12.873878014381418 -44.532850809747174 9.8819377582949812 0 -0.73135370988377701 0.68199835119979291 1 0 0 forward_v I I I I #
loop $-1 $-1 $274 $69 #
coedge $-1 $176 $176 $177 $275 reversed $108 $-1 #
coedge $-1 $177 $177 $176 $275 forward $110 $-1 #
coedge $-1 $178 $178 $111 $179 forward $173 $-1 #
edge $-1 $276 1.8969084974708056e-015 $276 6.2831853071796022 $178 $277 forward 7 unknown #
face $-1 $278 $279 $27 $-1 $280 reversed single #
loop $-1 $-1 $281 $112 #
plane-surface $-1 -77.459639271217995 0 0 1 0 0 0 0 -1 forward_v I I I I #
coedge $-1 $282 $191 $283 $284 forward $113 $-1 #
coedge $-1 $285 $115 $282 $286 forward $73 $-1 #
coedge $-1 $115 $285 $287 $288 forward $73 $-1 #
coedge $-1 $194 $193 $115 $187 reversed $195 $-1 #
edge $-1 $289 -44.532850809747181 $290 44.532850809747181 $186 $291 forward 7 unknown #
coedge $-1 $117 $116 $292 $293 forward $46 $-1 #
coedge $-1 $294 $295 $116 $190 reversed $279 $-1 #
edge $-1 $197 -77.459639271217995 $296 77.459639271217995 $189 $297 forward 7 unknown #
coedge $-1 $183 $298 $117 $192 reversed $113 $-1 #
edge $-1 $299 -77.459639271217995 $196 77.459639271217995 $191 $300 forward 7 unknown #
coedge $-1 $186 $118 $298 $301 forward $195 $-1 #
coedge $-1 $118 $186 $294 $302 reversed $195 $-1 #
loop $-1 $-1 $193 $278 #
vertex $-1 $119 $303 #
vertex $-1 $119 $304 #
straight-curve $-1 77.459639271217995 0 14.681149153176428 0 1 0 I I #
face $-1 $305 $306 $28 $-1 $307 reversed single #
loop $-1 $-1 $308 $120 #
plane-surface $-1 -77.459639271217995 0 0 1 0 0 0 0 -1 forward_v I I I I #
coedge $-1 $210 $309 $204 $310 forward $121 $-1 #
coedge $-1 $126 $123 $311 $312 reversed $77 $-1 #
coedge $-1 $123 $126 $202 $310 reversed $77 $-1 #
coedge $-1 $313 $314 $123 $206 forward $315 $-1 #
edge $-1 $316 -14.681149153176428 $317 14.681149153176428 $205 $318 forward 7 unknown #
coedge $-1 $125 $124 $308 $319 reversed $49 $-1 #
coedge $-1 $311 $320 $124 $209 forward $306 $-1 #
edge $-1 $321 -43.531203284355378 $213 -24.325668689369856 $208 $322 forward 7 unknown #
coedge $-1 $323 $202 $125 $211 forward $121 $-1 #
edge $-1 $212 24.325668689369856 $324 43.531203284355378 $210 $325 forward 7 unknown #
vertex $-1 $211 $326 #
vertex $-1 $209 $327 #
straight-curve $-1 -58.254104676232473 -41.305390565904567 0 0 0 -1 I I #
face $-1 $328 $329 $29 $-1 $330 reversed single #
loop $-1 $-1 $331 $128 #
plane-surface $-1 0 -44.532850809747181 0 0 1 0 0 0 1 forward_v I I I I #
coedge $-1 $226 $332 $220 $333 forward $129 $-1 #
coedge $-1 $134 $131 $334 $335 reversed $81 $-1 #
coedge $-1 $131 $134 $218 $333 reversed $81 $-1 #
coedge $-1 $336 $337 $131 $222 forward $338 $-1 #
edge $-1 $339 -14.681149153176428 $340 14.681149153176428 $221 $341 forward 7 unknown #
coedge $-1 $133 $132 $331 $342 reversed $52 $-1 #
coedge $-1 $334 $343 $132 $225 forward $329 $-1 #
edge $-1 $344 -23.073290465834244 $229 -19.84583022199163 $224 $345 forward 7 unknown #
coedge $-1 $346 $218 $133 $227 forward $129 $-1 #
edge $-1 $228 19.84583022199163 $347 23.073290465834244 $226 $348 forward 7 unknown #
vertex $-1 $227 $349 #
vertex $-1 $225 $350 #
straight-curve $-1 58.254104676232473 -41.305390565904567 0 0 0 -1 I I #
face $-1 $-1 $351 $30 $-1 $352 reversed single #
loop $-1 $-1 $142 $136 #
plane-surface $-1 0 0 14.681149153176428 0 0 1 1 0 0 forward_v I I I I #
coedge $-1 $353 $354 $355 $356 reversed $137 $-1 #
coedge $-1 $357 $139 $141 $241 forward $85 $-1 #
coedge $-1 $139 $357 $353 $358 forward $85 $-1 #
coedge $-1 $355 $142 $139 $238 forward $232 $-1 #
edge $-1 $244 -6.4369390071907091 $359 19.310817021572127 $237 $360 forward 7 unknown #
coedge $-1 $361 $362 $140 $240 forward $351 $-1 #
edge $-1 $363 -47.886377388353914 $243 -43.08716599347246 $239 $364 forward 7 unknown #
edge $-1 $244 -6.5620934576842602 $363 1.004247040074496e-014 $141 $365 forward 7 unknown #
coedge $-1 $142 $355 $361 $366 forward $232 $-1 #
vertex $-1 $240 $367 #
vertex $-1 $143 $368 #
straight-curve $-1 0 -78.916819952137971 14.681149153176428 0 1 0 I I #
coedge $-1 $246 $246 $-1 $369 reversed $146 $-1 #
edge $-1 $370 0 $370 6.2831853071796004 $147 $371 forward 7 unknown #
vertex $-1 $150 $372 #
ellipse-curve $-1 -18.391254306259171 -42.295182350467371 12.281543455735699 0 -0.73135370988377701 0.68199835119979291 1 0 0 1 I I #
coedge $-1 $250 $250 $-1 $373 reversed $153 $-1 #
edge $-1 $374 0 $374 6.2831853071796004 $154 $375 forward 7 unknown #
vertex $-1 $157 $376 #
ellipse-curve $-1 -7.3565017225036655 -42.295182350467371 12.281543455735699 0 -0.73135370988377701 0.68199835119979291 1 0 0 1 I I #
face $-1 $-1 $377 $33 $-1 $378 forward single #
loop $-1 $-1 $379 $158 #
plane-surface $-1 0 -157.83363990427594 115.53663029329778 -1 0 0 0 -0.73135370988377701 0.68199835119979291 forward_v I I I I #
coedge $-1 $164 $380 $259 $381 forward $159 $-1 #
coedge $-1 $262 $161 $382 $383 reversed $99 $-1 #
coedge $-1 $161 $262 $257 $381 reversed $99 $-1 #
coedge $-1 $384 $379 $161 $261 forward $255 $-1 #
edge $-1 $385 -6.5620934576842602 $386 1.004247040074496e-014 $260 $387 forward 7 unknown #
coedge $-1 $259 $258 $162 $263 forward $99 $-1 #
edge $-1 $388 -6.5620934576842602 $267 1.004247040074496e-014 $162 $389 forward 7 unknown #
coedge $-1 $382 $390 $163 $265 forward $377 $-1 #
edge $-1 $268 34.383969142390789 $388 38.859306060950409 $264 $391 forward 7 unknown #
coedge $-1 $380 $164 $390 $392 reversed $159 $-1 #
vertex $-1 $165 $393 #
vertex $-1 $165 $394 #
straight-curve $-1 25.747756028762836 -44.532850809747181 57.768315146648888 0 0 1 I I #
coedge $-1 $270 $270 $-1 $395 reversed $168 $-1 #
edge $-1 $396 0 $396 6.2831853071796004 $169 $397 forward 7 unknown #
vertex $-1 $172 $398 #
ellipse-curve $-1 7.3565017225036655 -42.295182350467371 12.281543455735699 0 -0.73135370988377701 0.68199835119979291 1 0 0 1 I I #
coedge $-1 $274 $274 $-1 $399 reversed $175 $-1 #
edge $-1 $400 0 $400 6.2831853071796004 $176 $401 forward 7 unknown #
vertex $-1 $179 $402 #
ellipse-curve $-1 18.391254306259171 -42.295182350467371 12.281543455735699 0 -0.73135370988377701 0.68199835119979291 1 0 0 1 I I #
face $-1 $-1 $195 $27 $-1 $403 reversed single #
loop $-1 $-1 $294 $180 #
plane-surface $-1 0 44.532850809747181 0 0 -1 0 0 0 -1 forward_v I I I I #
coedge $-1 $404 $292 $295 $405 forward $181 $-1 #
coedge $-1 $298 $183 $184 $286 reversed $113 $-1 #
coedge $-1 $292 $404 $183 $284 reversed $181 $-1 #
edge $-1 $299 -14.681149153176428 $406 14.681149153176428 $283 $407 forward 7 unknown #
coedge $-1 $185 $184 $404 $408 forward $73 $-1 #
edge $-1 $290 -77.459639271217995 $406 77.459639271217995 $282 $409 forward 7 unknown #
coedge $-1 $295 $294 $185 $288 reversed $279 $-1 #
edge $-1 $410 -77.459639271217995 $289 77.459639271217995 $287 $411 forward 7 unknown #
vertex $-1 $187 $412 #
vertex $-1 $301 $413 #
straight-curve $-1 77.459639271217995 0 -14.681149153176428 0 -1 0 I I #
coedge $-1 $281 $283 $188 $293 reversed $181 $-1 #
edge $-1 $296 -44.532850809747181 $299 44.532850809747181 $292 $414 forward 7 unknown #
coedge $-1 $287 $189 $194 $302 forward $279 $-1 #
coedge $-1 $189 $287 $281 $405 reversed $279 $-1 #
vertex $-1 $190 $415 #
straight-curve $-1 0 44.532850809747181 14.681149153176428 -1 0 0 I I #
coedge $-1 $191 $282 $193 $301 reversed $113 $-1 #
vertex $-1 $293 $416 #
straight-curve $-1 0 -44.532850809747181 14.681149153176428 1 0 0 I I #
edge $-1 $196 -14.681149153176428 $290 14.681149153176428 $193 $417 forward 7 unknown #
edge $-1 $197 -14.681149153176428 $289 14.681149153176428 $194 $418 forward 7 unknown #
point $-1 77.459639271217995 -44.532850809747181 14.681149153176428 #
point $-1 77.459639271217995 44.532850809747181 14.681149153176428 #
face $-1 $-1 $315 $28 $-1 $419 reversed single #
loop $-1 $-1 $311 $199 #
plane-surface $-1 0 0 -14.681149153176428 0 0 1 1 0 0 forward_v I I I I #
coedge $-1 $420 $421 $207 $319 forward $200 $-1 #
coedge $-1 $202 $323 $313 $422 forward $121 $-1 #
edge $-1 $317 -23.073290465834244 $212 -19.84583022199163 $202 $423 forward 7 unknown #
coedge $-1 $424 $208 $203 $312 forward $306 $-1 #
edge $-1 $213 19.84583022199163 $316 23.073290465834244 $311 $425 forward 7 unknown #
coedge $-1 $426 $205 $309 $422 reversed $315 $-1 #
coedge $-1 $205 $426 $424 $427 reversed $315 $-1 #
loop $-1 $-1 $205 $305 #
vertex $-1 $427 $428 #
vertex $-1 $206 $429 #
straight-curve $-1 -58.254104676232473 -44.532850809747181 0 0 0 1 I I #
edge $-1 $324 -14.681149153176428 $321 14.681149153176428 $308 $430 forward 7 unknown #
coedge $-1 $208 $424 $420 $431 forward $306 $-1 #
vertex $-1 $209 $432 #
straight-curve $-1 -33.928435986862617 -41.305390565904567 -14.681149153176428 1 0 0 I I #
coedge $-1 $309 $210 $421 $433 forward $121 $-1 #
vertex $-1 $433 $434 #
straight-curve $-1 -33.928435986862617 -41.305390565904567 14.681149153176428 -1 0 0 I I #
point $-1 -58.254104676232473 -41.305390565904567 14.681149153176428 #
point $-1 -58.254104676232473 -41.305390565904567 -14.681149153176428 #
face $-1 $-1 $338 $29 $-1 $435 reversed single #
loop $-1 $-1 $334 $215 #
plane-surface $-1 0 0 -14.681149153176428 0 0 1 1 0 0 forward_v I I I I #
coedge $-1 $436 $437 $223 $342 forward $216 $-1 #
coedge $-1 $218 $346 $336 $438 forward $129 $-1 #
edge $-1 $340 -43.531203284355378 $228 -24.325668689369856 $218 $439 forward 7 unknown #
coedge $-1 $440 $224 $219 $335 forward $329 $-1 #
edge $-1 $229 24.325668689369856 $339 43.531203284355378 $334 $441 forward 7 unknown #
coedge $-1 $442 $221 $332 $438 reversed $338 $-1 #
coedge $-1 $221 $442 $440 $443 reversed $338 $-1 #
loop $-1 $-1 $221 $328 #
vertex $-1 $443 $444 #
vertex $-1 $222 $445 #
straight-curve $-1 77.459639271217995 -41.305390565904567 0 0 0 1 I I #
edge $-1 $347 -14.681149153176428 $344 14.681149153176428 $331 $446 forward 7 unknown #
coedge $-1 $224 $440 $436 $447 forward $329 $-1 #
vertex $-1 $225 $448 #
straight-curve $-1 58.254104676232473 -21.459560343912937 -14.681149153176428 0 1 0 I I #
coedge $-1 $332 $226 $437 $449 forward $129 $-1 #
vertex $-1 $449 $450 #
straight-curve $-1 58.254104676232473 -21.459560343912937 14.681149153176428 0 -1 0 I I #
point $-1 58.254104676232473 -41.305390565904567 14.681149153176428 #
point $-1 58.254104676232473 -41.305390565904567 -14.681149153176428 #
loop $-1 $-1 $239 $231 #
plane-surface $-1 0 -44.532850809747181 0 0 1 0 0 0 1 forward_v I I I I #
coedge $-1 $354 $234 $236 $358 reversed $137 $-1 #
coedge $-1 $234 $353 $451 $452 reversed $137 $-1 #
coedge $-1 $242 $237 $234 $356 forward $232 $-1 #
edge $-1 $359 -38.859306060950409 $453 -34.383969142390789 $355 $454 forward 7 unknown #
coedge $-1 $236 $235 $362 $455 reversed $85 $-1 #
edge $-1 $456 -1.004247040074496e-014 $359 6.5620934576842602 $353 $457 forward 7 unknown #
vertex $-1 $238 $458 #
straight-curve $-1 -6.4369390071907091 -40.057513891187561 14.681149153176428 -1 0 0 I I #
coedge $-1 $451 $239 $242 $366 reversed $351 $-1 #
coedge $-1 $239 $451 $357 $455 forward $351 $-1 #
vertex $-1 $240 $459 #
straight-curve $-1 0 -44.532850809747181 57.768315146648888 0 0 1 I I #
straight-curve $-1 0 -44.532850809747174 9.8819377582949812 0 -0.68199835119979291 -0.73135370988377701 I I #
edge $-1 $453 -25.747756028762836 $243 0 $361 $460 forward 7 unknown #
point $-1 0 -44.532850809747181 14.681149153176428 #
point $-1 0 -40.057513891187561 14.681149153176428 #
edge $-1 $461 1 $461 0 $246 $-1 forward 7 unknown #
vertex $-1 $247 $462 #
ellipse-curve $-1 -18.391254306259171 -41.409219211939977 11.455369483369449 0 -0.73135370988377701 0.68199835119979291 1 0 0 1 I I #
point $-1 -17.391254306259171 -42.295182350467357 12.281543455735688 #
edge $-1 $463 1 $463 0 $250 $-1 forward 7 unknown #
vertex $-1 $251 $464 #
ellipse-curve $-1 -7.3565017225036655 -41.409219211939977 11.455369483369449 0 -0.73135370988377701 0.68199835119979291 1 0 0 1 I I #
point $-1 -6.3565017225036655 -42.295182350467357 12.281543455735688 #
loop $-1 $-1 $382 $254 #
plane-surface $-1 0 0 14.681149153176428 0 0 1 1 0 0 forward_v I I I I #
coedge $-1 $260 $384 $465 $466 reversed $255 $-1 #
coedge $-1 $257 $266 $384 $467 forward $159 $-1 #
edge $-1 $386 6.4369390071907091 $267 32.184695035953546 $257 $468 forward 7 unknown #
coedge $-1 $465 $264 $258 $383 forward $377 $-1 #
edge $-1 $388 -32.184695035953546 $385 -6.4369390071907091 $382 $469 forward 7 unknown #
coedge $-1 $379 $260 $380 $467 reversed $255 $-1 #
vertex $-1 $383 $470 #
vertex $-1 $381 $471 #
straight-curve $-1 0 -44.532850809747174 9.8819377582949812 0 -0.68199835119979291 -0.73135370988377701 I I #
vertex $-1 $265 $472 #
straight-curve $-1 25.747756028762836 -44.532850809747174 9.8819377582949812 0 -0.68199835119979291 -0.73135370988377701 I I #
coedge $-1 $264 $465 $266 $392 forward $377 $-1 #
straight-curve $-1 25.747756028762836 -78.916819952137971 14.681149153176428 0 1 0 I I #
edge $-1 $473 0 $268 25.747756028762836 $266 $474 forward 7 unknown #
point $-1 25.747756028762836 -44.532850809747181 9.8819377582949741 #
point $-1 25.747756028762836 -44.532850809747181 14.681149153176428 #
edge $-1 $475 1 $475 0 $270 $-1 forward 7 unknown #
vertex $-1 $271 $476 #
ellipse-curve $-1 7.3565017225036655 -41.409219211939977 11.455369483369449 0 -0.73135370988377701 0.68199835119979291 1 0 0 1 I I #
point $-1 8.3565017225036655 -42.295182350467357 12.281543455735688 #
edge $-1 $477 1 $477 0 $274 $-1 forward 7 unknown #
vertex $-1 $275 $478 #
ellipse-curve $-1 18.391254306259171 -41.409219211939977 11.455369483369449 0 -0.73135370988377701 0.68199835119979291 1 0 0 1 I I #
point $-1 19.391254306259171 -42.295182350467357 12.281543455735688 #
plane-surface $-1 77.459639271217995 0 0 -1 0 0 0 0 1 forward_v I I I I #
coedge $-1 $283 $281 $285 $408 reversed $181 $-1 #
edge $-1 $296 -14.681149153176428 $410 14.681149153176428 $295 $479 forward 7 unknown #
vertex $-1 $408 $480 #
straight-curve $-1 -77.459639271217995 -44.532850809747181 0 0 0 -1 I I #
edge $-1 $406 -44.532850809747181 $410 44.532850809747181 $404 $481 forward 7 unknown #
straight-curve $-1 0 -44.532850809747181 -14.681149153176428 -1 0 0 I I #
vertex $-1 $288 $482 #
straight-curve $-1 0 44.532850809747181 -14.681149153176428 1 0 0 I I #
point $-1 77.459639271217995 44.532850809747181 -14.681149153176428 #
point $-1 77.459639271217995 -44.532850809747181 -14.681149153176428 #
straight-curve $-1 -77.459639271217995 0 14.681149153176428 0 -1 0 I I #
point $-1 -77.459639271217995 44.532850809747181 14.681149153176428 #
point $-1 -77.459639271217995 -44.532850809747181 14.681149153176428 #
straight-curve $-1 77.459639271217995 -44.532850809747181 0 0 0 -1 I I #
straight-curve $-1 77.459639271217995 44.532850809747181 0 0 0 -1 I I #
plane-surface $-1 0 -44.532850809747181 0 0 1 0 0 0 1 forward_v I I I I #
coedge $-1 $483 $308 $320 $431 reversed $200 $-1 #
coedge $-1 $308 $483 $323 $433 reversed $200 $-1 #
edge $-1 $484 -77.459639271217995 $317 -58.254104676232473 $313 $485 forward 7 unknown #
straight-curve $-1 -58.254104676232473 -21.459560343912937 14.681149153176428 0 1 0 I I #
coedge $-1 $320 $311 $314 $427 forward $306 $-1 #
straight-curve $-1 -58.254104676232473 -21.459560343912937 -14.681149153176428 0 -1 0 I I #
coedge $-1 $314 $313 $483 $486 forward $315 $-1 #
edge $-1 $316 58.254104676232473 $487 77.459639271217995 $314 $488 forward 7 unknown #
point $-1 -58.254104676232473 -44.532850809747181 -14.681149153176428 #
point $-1 -58.254104676232473 -44.532850809747181 14.681149153176428 #
straight-curve $-1 -77.459639271217995 -41.305390565904567 0 0 0 -1 I I #
edge $-1 $487 -44.532850809747181 $321 -41.305390565904567 $420 $489 forward 7 unknown #
point $-1 -77.459639271217995 -41.305390565904567 -14.681149153176428 #
edge $-1 $324 41.305390565904567 $484 44.532850809747181 $421 $490 forward 7 unknown #
point $-1 -77.459639271217995 -41.305390565904567 14.681149153176428 #
plane-surface $-1 77.459639271217995 0 0 -1 0 0 0 0 1 forward_v I I I I #
coedge $-1 $491 $331 $343 $447 reversed $216 $-1 #
coedge $-1 $331 $491 $346 $449 reversed $216 $-1 #
edge $-1 $492 -44.532850809747181 $340 -41.305390565904567 $336 $493 forward 7 unknown #
straight-curve $-1 33.928435986862617 -41.305390565904567 14.681149153176428 -1 0 0 I I #
coedge $-1 $343 $334 $337 $443 forward $329 $-1 #
straight-curve $-1 33.928435986862617 -41.305390565904567 -14.681149153176428 1 0 0 I I #
coedge $-1 $337 $336 $491 $494 forward $338 $-1 #
edge $-1 $339 41.305390565904567 $495 44.532850809747181 $337 $496 forward 7 unknown #
point $-1 77.459639271217995 -41.305390565904567 -14.681149153176428 #
point $-1 77.459639271217995 -41.305390565904567 14.681149153176428 #
straight-curve $-1 58.254104676232473 -44.532850809747181 0 0 0 -1 I I #
edge $-1 $495 -77.459639271217995 $344 -58.254104676232473 $436 $497 forward 7 unknown #
point $-1 58.254104676232473 -44.532850809747181 -14.681149153176428 #
edge $-1 $347 58.254104676232473 $492 77.459639271217995 $437 $498 forward 7 unknown #
point $-1 58.254104676232473 -44.532850809747181 14.681149153176428 #
coedge $-1 $362 $361 $354 $452 forward $351 $-1 #
edge $-1 $453 43.08716599347246 $456 47.886377388353914 $451 $499 forward 7 unknown #
vertex $-1 $366 $500 #
straight-curve $-1 -25.747756028762836 -78.916819952137971 14.681149153176428 0 -1 0 I I #
edge $-1 $456 -19.310817021572127 $363 6.4369390071907091 $362 $501 forward 7 unknown #
vertex $-1 $455 $502 #
straight-curve $-1 -25.747756028762836 -44.532850809747174 9.8819377582949812 0 0.68199835119979291 0.73135370988377701 I I #
point $-1 -25.747756028762836 -40.057513891187561 14.681149153176428 #
point $-1 0 -44.532850809747181 9.8819377582949741 #
straight-curve $-1 0 -44.532850809747181 14.681149153176428 1 0 0 I I #
vertex $-1 $369 $503 #
point $-1 -17.391254306259171 -41.409219211939977 11.455369483369449 #
vertex $-1 $373 $504 #
point $-1 -6.3565017225036655 -41.409219211939977 11.455369483369449 #
coedge $-1 $390 $382 $379 $466 forward $377 $-1 #
edge $-1 $385 -38.859306060950409 $473 -34.383969142390789 $465 $505 forward 7 unknown #
edge $-1 $473 43.08716599347246 $386 47.886377388353914 $380 $506 forward 7 unknown #
straight-curve $-1 -6.4369390071907091 -44.532850809747181 9.8819377582949688 1 0 0 I I #
straight-curve $-1 -6.4369390071907091 -40.057513891187561 14.681149153176428 -1 0 0 I I #
point $-1 0 -40.057513891187561 14.681149153176428 #
point $-1 0 -44.532850809747181 9.8819377582949741 #
point $-1 25.747756028762836 -40.057513891187561 14.681149153176428 #
vertex $-1 $392 $507 #
straight-curve $-1 0 -44.532850809747181 14.681149153176428 1 0 0 I I #
vertex $-1 $395 $508 #
point $-1 8.3565017225036655 -41.409219211939977 11.455369483369449 #
vertex $-1 $399 $509 #
point $-1 19.391254306259171 -41.409219211939977 11.455369483369449 #
straight-curve $-1 -77.459639271217995 44.532850809747181 0 0 0 -1 I I #
point $-1 -77.459639271217995 -44.532850809747181 -14.681149153176428 #
straight-curve $-1 -77.459639271217995 0 -14.681149153176428 0 1 0 I I #
point $-1 -77.459639271217995 44.532850809747181 -14.681149153176428 #
coedge $-1 $421 $420 $426 $486 reversed $200 $-1 #
vertex $-1 $433 $510 #
straight-curve $-1 0 -44.532850809747181 14.681149153176428 1 0 0 I I #
edge $-1 $484 -14.681149153176428 $487 14.681149153176428 $483 $511 forward 7 unknown #
vertex $-1 $431 $512 #
straight-curve $-1 0 -44.532850809747181 -14.681149153176428 -1 0 0 I I #
straight-curve $-1 -77.459639271217995 0 -14.681149153176428 0 1 0 I I #
straight-curve $-1 -77.459639271217995 0 14.681149153176428 0 -1 0 I I #
coedge $-1 $437 $436 $442 $494 reversed $216 $-1 #
vertex $-1 $438 $513 #
straight-curve $-1 77.459639271217995 0 14.681149153176428 0 1 0 I I #
edge $-1 $492 -14.681149153176428 $495 14.681149153176428 $442 $514 forward 7 unknown #
vertex $-1 $494 $515 #
straight-curve $-1 77.459639271217995 0 -14.681149153176428 0 -1 0 I I #
straight-curve $-1 0 -44.532850809747181 -14.681149153176428 -1 0 0 I I #
straight-curve $-1 0 -44.532850809747181 14.681149153176428 1 0 0 I I #
straight-curve $-1 -25.747756028762836 -44.532850809747181 57.768315146648888 0 0 -1 I I #
point $-1 -25.747756028762836 -44.532850809747181 14.681149153176428 #
straight-curve $-1 -6.4369390071907091 -44.532850809747181 9.8819377582949688 1 0 0 I I #
point $-1 -25.747756028762836 -44.532850809747181 9.8819377582949741 #
point $-1 -18.391254306259171 -40.6778655020562 10.773371132169654 #
point $-1 -7.3565017225036655 -40.6778655020562 10.773371132169654 #
straight-curve $-1 0 -78.916819952137971 14.681149153176428 0 -1 0 I I #
straight-curve $-1 0 -44.532850809747181 57.768315146648888 0 0 -1 I I #
point $-1 0 -44.532850809747181 14.681149153176428 #
point $-1 7.3565017225036655 -40.6778655020562 10.773371132169654 #
point $-1 18.391254306259171 -40.6778655020562 10.773371132169654 #
point $-1 -77.459639271217995 -44.532850809747181 14.681149153176428 #
straight-curve $-1 -77.459639271217995 -44.532850809747181 0 0 0 -1 I I #
point $-1 -77.459639271217995 -44.532850809747181 -14.681149153176428 #
point $-1 77.459639271217995 -44.532850809747181 14.681149153176428 #
straight-curve $-1 77.459639271217995 -44.532850809747181 0 0 0 -1 I I #
point $-1 77.459639271217995 -44.532850809747181 -14.681149153176428 #
End-of-ACIS-data 