500 0 3 0           
7 Unknown 11 ACIS 5.0 NT 24 Fri Mar 26 20:11:18 1999 
-1 9.9999999999999995e-007 1e-010 
body $-1 $3 $-1 $4 #
body $-1 $5 $-1 $6 #
body $-1 $7 $-1 $8 #
lump $-1 $-1 $9 $0 #
transform $-1 1 0 0 0 1 0 0 0 1 71.366924039429918 44.794958037859772 16.038117899495205 1 rotate no_reflect no_shear #
lump $-1 $-1 $10 $1 #
transform $-1 1 0 0 0 1 0 0 0 1 71.366924039429918 44.794958037859772 16.038117899495205 1 rotate no_reflect no_shear #
lump $-1 $-1 $11 $2 #
transform $-1 1 0 0 0 1 0 0 0 1 71.366924039429918 44.794958037859772 16.038117899495205 1 rotate no_reflect no_shear #
shell $-1 $-1 $-1 $12 $-1 $3 #
shell $-1 $-1 $-1 $13 $-1 $5 #
shell $-1 $-1 $-1 $14 $-1 $7 #
face $-1 $15 $16 $9 $-1 $17 forward single #
face $-1 $18 $19 $10 $-1 $20 forward single #
face $-1 $21 $22 $11 $-1 $23 forward single #
face $-1 $24 $25 $9 $-1 $26 reversed single #
loop $-1 $-1 $27 $12 #
plane-surface $-1 0 0 16.038117899495205 0 0 1 1 0 0 forward_v I I I I #
face $-1 $28 $29 $10 $-1 $30 forward single #
loop $-1 $-1 $31 $13 #
plane-surface $-1 -68.527129747901441 -34.656407502167554 0 1 0 0 0 0 -1 forward_v I I I I #
face $-1 $32 $33 $11 $-1 $34 forward single #
loop $-1 $-1 $35 $14 #
plane-surface $-1 -64.492564422001934 24.517856966475335 0 0 1 0 0 0 1 forward_v I I I I #
face $-1 $36 $37 $9 $-1 $38 reversed single #
loop $-1 $-1 $39 $15 #
plane-surface $-1 0 0 -16.038117899495205 0 0 1 1 0 0 forward_v I I I I #
coedge $-1 $40 $41 $42 $43 forward $16 $-1 #
face $-1 $44 $45 $10 $-1 $46 forward single #
loop $-1 $-1 $47 $18 #
plane-surface $-1 -64.492564422001934 -24.517856966475339 0 0 -1 0 0 0 -1 forward_v I I I I #
coedge $-1 $48 $49 $50 $51 reversed $19 $-1 #
face $-1 $52 $53 $11 $-1 $54 forward single #
loop $-1 $-1 $55 $21 #
plane-surface $-1 -68.527129747901441 34.656407502167554 0 1 0 0 0 0 -1 forward_v I I I I #
coedge $-1 $56 $57 $58 $59 reversed $22 $-1 #
face $-1 $60 $61 $9 $-1 $62 reversed single #
loop $-1 $-1 $63 $24 #
plane-surface $-1 0 -44.794958037859772 0 0 1 0 0 0 1 forward_v I I I I #
coedge $-1 $64 $65 $66 $67 forward $25 $-1 #
coedge $-1 $68 $27 $69 $70 forward $16 $-1 #
coedge $-1 $27 $68 $71 $72 forward $16 $-1 #
coedge $-1 $73 $74 $27 $43 reversed $75 $-1 #
edge $-1 $76 -44.794958037859772 $77 44.794958037859772 $42 $78 forward 7 unknown #
face $-1 $79 $80 $10 $-1 $81 forward single #
loop $-1 $-1 $82 $28 #
plane-surface $-1 -60.457999096102427 -34.656407502167554 0 -1 0 0 0 0 1 forward_v I I I I #
coedge $-1 $83 $84 $85 $86 reversed $29 $-1 #
coedge $-1 $87 $31 $88 $89 reversed $19 $-1 #
coedge $-1 $31 $87 $90 $91 reversed $19 $-1 #
coedge $-1 $84 $83 $31 $51 forward $29 $-1 #
edge $-1 $92 -16.038117899495205 $93 16.038117899495205 $50 $94 forward 7 unknown #
face $-1 $95 $96 $11 $-1 $97 forward single #
loop $-1 $-1 $98 $32 #
plane-surface $-1 -60.457999096102427 34.656407502167554 0 -1 0 0 0 0 1 forward_v I I I I #
coedge $-1 $99 $100 $101 $102 reversed $33 $-1 #
coedge $-1 $103 $35 $104 $105 reversed $22 $-1 #
coedge $-1 $35 $103 $106 $107 reversed $22 $-1 #
coedge $-1 $100 $99 $35 $59 forward $33 $-1 #
edge $-1 $108 -16.038117899495205 $109 16.038117899495205 $58 $110 forward 7 unknown #
face $-1 $111 $112 $9 $-1 $113 reversed single #
loop $-1 $-1 $114 $36 #
plane-surface $-1 -71.366924039429918 0 0 1 0 0 0 0 -1 forward_v I I I I #
coedge $-1 $115 $71 $116 $117 forward $37 $-1 #
coedge $-1 $118 $39 $115 $119 forward $25 $-1 #
coedge $-1 $39 $118 $120 $121 forward $25 $-1 #
coedge $-1 $74 $73 $39 $67 reversed $75 $-1 #
edge $-1 $122 -44.794958037859772 $123 44.794958037859772 $66 $124 forward 7 unknown #
coedge $-1 $41 $40 $125 $126 forward $16 $-1 #
coedge $-1 $127 $128 $40 $70 reversed $112 $-1 #
edge $-1 $77 -71.366924039429918 $129 71.366924039429918 $69 $130 forward 7 unknown #
coedge $-1 $63 $131 $41 $72 reversed $37 $-1 #
edge $-1 $132 -71.366924039429918 $76 71.366924039429918 $71 $133 forward 7 unknown #
coedge $-1 $66 $42 $131 $134 forward $75 $-1 #
coedge $-1 $42 $66 $127 $135 reversed $75 $-1 #
loop $-1 $-1 $73 $111 #
vertex $-1 $43 $136 #
vertex $-1 $43 $137 #
straight-curve $-1 71.366924039429918 0 16.038117899495205 0 1 0 I I #
face $-1 $138 $139 $10 $-1 $140 reversed single #
loop $-1 $-1 $88 $44 #
plane-surface $-1 0 0 16.038117899495205 0 0 1 1 0 0 forward_v I I I I #
coedge $-1 $141 $142 $143 $144 reversed $45 $-1 #
coedge $-1 $50 $47 $145 $146 reversed $29 $-1 #
coedge $-1 $47 $50 $147 $148 reversed $29 $-1 #
coedge $-1 $142 $141 $47 $86 forward $45 $-1 #
edge $-1 $149 -16.038117899495205 $150 16.038117899495205 $85 $151 forward 7 unknown #
coedge $-1 $49 $48 $152 $153 reversed $19 $-1 #
coedge $-1 $145 $154 $48 $89 forward $80 $-1 #
edge $-1 $155 -27.466754286775995 $92 -7.1896532153915622 $88 $156 forward 7 unknown #
coedge $-1 $157 $147 $49 $91 forward $158 $-1 #
edge $-1 $93 7.1896532153915622 $159 27.466754286775995 $90 $160 forward 7 unknown #
vertex $-1 $89 $161 #
vertex $-1 $91 $162 #
straight-curve $-1 -68.527129747901441 -24.517856966475339 0 0 0 -1 I I #
face $-1 $163 $164 $11 $-1 $165 reversed single #
loop $-1 $-1 $166 $52 #
plane-surface $-1 0 0 16.038117899495205 0 0 1 1 0 0 forward_v I I I I #
coedge $-1 $167 $168 $103 $169 reversed $53 $-1 #
coedge $-1 $58 $55 $170 $171 reversed $33 $-1 #
coedge $-1 $55 $58 $172 $173 reversed $33 $-1 #
coedge $-1 $174 $175 $55 $102 forward $164 $-1 #
edge $-1 $176 -16.038117899495205 $177 16.038117899495205 $101 $178 forward 7 unknown #
coedge $-1 $57 $56 $98 $169 forward $22 $-1 #
coedge $-1 $170 $166 $56 $105 forward $96 $-1 #
edge $-1 $179 28.21171688510146 $108 36.280847536900474 $104 $180 forward 7 unknown #
coedge $-1 $181 $172 $57 $107 forward $182 $-1 #
edge $-1 $109 -36.280847536900474 $183 -28.21171688510146 $106 $184 forward 7 unknown #
vertex $-1 $105 $185 #
vertex $-1 $107 $186 #
straight-curve $-1 -68.527129747901441 24.517856966475335 0 0 0 -1 I I #
face $-1 $-1 $75 $9 $-1 $187 reversed single #
loop $-1 $-1 $127 $60 #
plane-surface $-1 0 44.794958037859772 0 0 -1 0 0 0 -1 forward_v I I I I #
coedge $-1 $188 $125 $128 $189 forward $61 $-1 #
coedge $-1 $131 $63 $64 $119 reversed $37 $-1 #
coedge $-1 $125 $188 $63 $117 reversed $61 $-1 #
edge $-1 $132 -16.038117899495205 $190 16.038117899495205 $116 $191 forward 7 unknown #
coedge $-1 $65 $64 $188 $192 forward $25 $-1 #
edge $-1 $123 -71.366924039429918 $190 71.366924039429918 $115 $193 forward 7 unknown #
coedge $-1 $128 $127 $65 $121 reversed $112 $-1 #
edge $-1 $194 -71.366924039429918 $122 71.366924039429918 $120 $195 forward 7 unknown #
vertex $-1 $67 $196 #
vertex $-1 $134 $197 #
straight-curve $-1 71.366924039429918 0 -16.038117899495205 0 -1 0 I I #
coedge $-1 $114 $116 $68 $126 reversed $61 $-1 #
edge $-1 $129 -44.794958037859772 $132 44.794958037859772 $125 $198 forward 7 unknown #
coedge $-1 $120 $69 $74 $135 forward $112 $-1 #
coedge $-1 $69 $120 $114 $189 reversed $112 $-1 #
vertex $-1 $70 $199 #
straight-curve $-1 0 44.794958037859772 16.038117899495205 -1 0 0 I I #
coedge $-1 $71 $115 $73 $134 reversed $37 $-1 #
vertex $-1 $126 $200 #
straight-curve $-1 0 -44.794958037859772 16.038117899495205 1 0 0 I I #
edge $-1 $76 -16.038117899495205 $123 16.038117899495205 $73 $201 forward 7 unknown #
edge $-1 $77 -16.038117899495205 $122 16.038117899495205 $74 $202 forward 7 unknown #
point $-1 71.366924039429918 -44.794958037859772 16.038117899495205 #
point $-1 71.366924039429918 44.794958037859772 16.038117899495205 #
face $-1 $203 $158 $10 $-1 $204 reversed single #
loop $-1 $-1 $143 $79 #
plane-surface $-1 0 -44.794958037859772 0 0 1 0 0 0 1 forward_v I I I I #
coedge $-1 $85 $82 $205 $206 reversed $45 $-1 #
coedge $-1 $82 $85 $207 $208 reversed $45 $-1 #
coedge $-1 $209 $210 $82 $144 forward $139 $-1 #
edge $-1 $211 -16.038117899495205 $212 16.038117899495205 $143 $213 forward 7 unknown #
coedge $-1 $205 $88 $83 $146 forward $80 $-1 #
edge $-1 $92 -36.280847536900474 $149 -28.21171688510146 $145 $214 forward 7 unknown #
coedge $-1 $90 $207 $84 $148 forward $158 $-1 #
edge $-1 $150 28.21171688510146 $93 36.280847536900474 $147 $215 forward 7 unknown #
vertex $-1 $146 $216 #
vertex $-1 $148 $217 #
straight-curve $-1 -60.457999096102427 -24.517856966475339 0 0 0 -1 I I #
coedge $-1 $218 $219 $87 $153 forward $220 $-1 #
edge $-1 $159 -16.038117899495205 $155 16.038117899495205 $152 $221 forward 7 unknown #
coedge $-1 $88 $222 $218 $223 forward $80 $-1 #
vertex $-1 $153 $224 #
straight-curve $-1 -68.527129747901441 -17.328203751083777 16.038117899495205 0 1 0 I I #
coedge $-1 $225 $90 $219 $226 forward $158 $-1 #
loop $-1 $-1 $90 $138 #
vertex $-1 $226 $227 #
straight-curve $-1 -68.527129747901441 -17.328203751083777 -16.038117899495205 0 -1 0 I I #
point $-1 -68.527129747901441 -24.517856966475339 16.038117899495205 #
point $-1 -68.527129747901441 -24.517856966475339 -16.038117899495205 #
face $-1 $228 $229 $11 $-1 $230 forward single #
loop $-1 $-1 $101 $95 #
plane-surface $-1 0 44.794958037859772 0 0 -1 0 0 0 -1 forward_v I I I I #
coedge $-1 $104 $231 $167 $232 forward $96 $-1 #
coedge $-1 $233 $98 $166 $232 reversed $53 $-1 #
coedge $-1 $98 $233 $181 $234 reversed $53 $-1 #
edge $-1 $179 -16.038117899495205 $183 16.038117899495205 $98 $235 forward 7 unknown #
coedge $-1 $236 $104 $99 $171 forward $96 $-1 #
edge $-1 $108 7.1896532153915587 $176 27.466754286775995 $170 $237 forward 7 unknown #
coedge $-1 $106 $238 $100 $173 forward $182 $-1 #
edge $-1 $177 -27.466754286775995 $109 -7.1896532153915587 $172 $239 forward 7 unknown #
coedge $-1 $240 $101 $238 $241 reversed $164 $-1 #
coedge $-1 $101 $240 $236 $242 reversed $164 $-1 #
vertex $-1 $242 $243 #
vertex $-1 $173 $244 #
straight-curve $-1 -68.527129747901441 44.794958037859772 0 0 0 -1 I I #
vertex $-1 $105 $245 #
straight-curve $-1 -32.246282211000967 24.517856966475335 16.038117899495205 -1 0 0 I I #
coedge $-1 $246 $106 $168 $234 forward $182 $-1 #
loop $-1 $-1 $181 $247 #
vertex $-1 $107 $248 #
straight-curve $-1 -32.246282211000967 24.517856966475335 -16.038117899495205 1 0 0 I I #
point $-1 -68.527129747901441 24.517856966475335 16.038117899495205 #
point $-1 -68.527129747901441 24.517856966475335 -16.038117899495205 #
plane-surface $-1 71.366924039429918 0 0 -1 0 0 0 0 1 forward_v I I I I #
coedge $-1 $116 $114 $118 $192 reversed $61 $-1 #
edge $-1 $129 -16.038117899495205 $194 16.038117899495205 $128 $249 forward 7 unknown #
vertex $-1 $192 $250 #
straight-curve $-1 -71.366924039429918 -44.794958037859772 0 0 0 -1 I I #
edge $-1 $190 -44.794958037859772 $194 44.794958037859772 $188 $251 forward 7 unknown #
straight-curve $-1 0 -44.794958037859772 -16.038117899495205 -1 0 0 I I #
vertex $-1 $121 $252 #
straight-curve $-1 0 44.794958037859772 -16.038117899495205 1 0 0 I I #
point $-1 71.366924039429918 44.794958037859772 -16.038117899495205 #
point $-1 71.366924039429918 -44.794958037859772 -16.038117899495205 #
straight-curve $-1 -71.366924039429918 0 16.038117899495205 0 -1 0 I I #
point $-1 -71.366924039429918 44.794958037859772 16.038117899495205 #
point $-1 -71.366924039429918 -44.794958037859772 16.038117899495205 #
straight-curve $-1 71.366924039429918 -44.794958037859772 0 0 0 -1 I I #
straight-curve $-1 71.366924039429918 44.794958037859772 0 0 0 -1 I I #
face $-1 $253 $220 $10 $-1 $140 reversed single #
plane-surface $-1 0 0 -16.038117899495205 0 0 1 1 0 0 forward_v I I I I #
coedge $-1 $254 $145 $141 $206 forward $80 $-1 #
edge $-1 $149 7.1896532153915622 $211 27.466754286775995 $205 $255 forward 7 unknown #
coedge $-1 $147 $256 $142 $208 forward $158 $-1 #
edge $-1 $212 -27.466754286775995 $150 -7.1896532153915622 $207 $257 forward 7 unknown #
coedge $-1 $258 $143 $256 $259 reversed $139 $-1 #
coedge $-1 $143 $258 $254 $260 reversed $139 $-1 #
vertex $-1 $260 $261 #
vertex $-1 $144 $262 #
straight-curve $-1 -60.457999096102427 -44.794958037859772 0 0 0 -1 I I #
straight-curve $-1 -32.246282211000967 -24.517856966475339 16.038117899495205 1 0 0 I I #
straight-curve $-1 -32.246282211000967 -24.517856966475339 -16.038117899495205 -1 0 0 I I #
point $-1 -60.457999096102427 -24.517856966475339 16.038117899495205 #
point $-1 -60.457999096102427 -24.517856966475339 -16.038117899495205 #
coedge $-1 $263 $152 $154 $223 reversed $220 $-1 #
coedge $-1 $152 $263 $157 $226 reversed $220 $-1 #
loop $-1 $-1 $152 $203 #
straight-curve $-1 -68.527129747901441 -44.794958037859772 0 0 0 1 I I #
coedge $-1 $154 $264 $265 $266 forward $80 $-1 #
edge $-1 $267 -71.366924039429918 $155 -68.527129747901441 $218 $268 forward 7 unknown #
point $-1 -68.527129747901441 -44.794958037859772 16.038117899495205 #
coedge $-1 $269 $157 $270 $271 forward $158 $-1 #
edge $-1 $159 68.527129747901441 $272 71.366924039429918 $219 $273 forward 7 unknown #
point $-1 -68.527129747901441 -44.794958037859772 -16.038117899495205 #
face $-1 $274 $275 $11 $-1 $276 forward single #
loop $-1 $-1 $277 $163 #
plane-surface $-1 -68.527129747901441 -34.656407502167554 0 1 0 0 0 0 -1 forward_v I I I I #
coedge $-1 $166 $278 $279 $280 forward $96 $-1 #
edge $-1 $281 -27.466754286775995 $179 -7.1896532153915587 $166 $282 forward 7 unknown #
coedge $-1 $168 $167 $283 $284 reversed $53 $-1 #
edge $-1 $183 7.1896532153915587 $285 27.466754286775995 $181 $286 forward 7 unknown #
straight-curve $-1 -60.457999096102427 24.517856966475335 0 0 0 -1 I I #
coedge $-1 $287 $170 $175 $242 forward $96 $-1 #
straight-curve $-1 -68.527129747901441 17.328203751083777 16.038117899495205 0 1 0 I I #
coedge $-1 $172 $288 $174 $241 forward $182 $-1 #
straight-curve $-1 -68.527129747901441 17.328203751083777 -16.038117899495205 0 -1 0 I I #
coedge $-1 $175 $174 $289 $290 reversed $164 $-1 #
edge $-1 $291 -71.366924039429918 $177 -68.527129747901441 $174 $292 forward 7 unknown #
edge $-1 $176 68.527129747901441 $293 71.366924039429918 $175 $294 forward 7 unknown #
point $-1 -68.527129747901441 44.794958037859772 16.038117899495205 #
point $-1 -68.527129747901441 44.794958037859772 -16.038117899495205 #
point $-1 -60.457999096102427 24.517856966475335 16.038117899495205 #
coedge $-1 $295 $181 $296 $297 forward $182 $-1 #
face $-1 $298 $182 $11 $-1 $299 reversed single #
point $-1 -60.457999096102427 24.517856966475335 -16.038117899495205 #
straight-curve $-1 -71.366924039429918 44.794958037859772 0 0 0 -1 I I #
point $-1 -71.366924039429918 -44.794958037859772 -16.038117899495205 #
straight-curve $-1 -71.366924039429918 0 -16.038117899495205 0 1 0 I I #
point $-1 -71.366924039429918 44.794958037859772 -16.038117899495205 #
face $-1 $300 $301 $10 $-1 $302 reversed single #
coedge $-1 $303 $205 $210 $260 forward $80 $-1 #
straight-curve $-1 -60.457999096102427 -17.328203751083777 16.038117899495205 0 -1 0 I I #
coedge $-1 $207 $304 $209 $259 forward $158 $-1 #
straight-curve $-1 -60.457999096102427 -17.328203751083777 -16.038117899495205 0 1 0 I I #
coedge $-1 $210 $209 $305 $306 reversed $139 $-1 #
edge $-1 $307 -71.366924039429918 $212 60.457999096102427 $209 $273 forward 7 unknown #
edge $-1 $211 -60.457999096102427 $308 71.366924039429918 $210 $268 forward 7 unknown #
point $-1 -60.457999096102427 -44.794958037859772 16.038117899495205 #
point $-1 -60.457999096102427 -44.794958037859772 -16.038117899495205 #
coedge $-1 $219 $218 $309 $310 forward $220 $-1 #
coedge $-1 $222 $303 $311 $312 forward $80 $-1 #
coedge $-1 $313 $309 $222 $266 reversed $301 $-1 #
edge $-1 $314 -44.794958037859772 $267 44.794958037859772 $265 $315 forward 7 unknown #
vertex $-1 $266 $316 #
straight-curve $-1 0 -44.794958037859772 16.038117899495205 1 0 0 I I #
coedge $-1 $304 $225 $317 $318 forward $158 $-1 #
coedge $-1 $309 $313 $225 $271 reversed $301 $-1 #
edge $-1 $272 -44.794958037859772 $319 44.794958037859772 $270 $320 forward 7 unknown #
vertex $-1 $271 $321 #
straight-curve $-1 0 -44.794958037859772 -16.038117899495205 -1 0 0 I I #
face $-1 $322 $323 $11 $-1 $324 forward single #
loop $-1 $-1 $325 $228 #
plane-surface $-1 -64.492564422001934 -24.517856966475339 0 0 -1 0 0 0 -1 forward_v I I I I #
coedge $-1 $326 $327 $328 $329 reversed $229 $-1 #
coedge $-1 $231 $330 $331 $332 forward $96 $-1 #
coedge $-1 $333 $283 $231 $280 reversed $334 $-1 #
edge $-1 $335 -71.366924039429918 $281 60.457999096102427 $279 $294 forward 7 unknown #
vertex $-1 $284 $336 #
straight-curve $-1 -60.457999096102427 17.328203751083777 16.038117899495205 0 -1 0 I I #
coedge $-1 $279 $296 $233 $284 forward $334 $-1 #
edge $-1 $285 -16.038117899495205 $281 16.038117899495205 $283 $337 forward 7 unknown #
vertex $-1 $297 $338 #
straight-curve $-1 -60.457999096102427 17.328203751083777 -16.038117899495205 0 1 0 I I #
coedge $-1 $339 $236 $340 $341 forward $96 $-1 #
coedge $-1 $238 $342 $343 $344 forward $182 $-1 #
coedge $-1 $343 $340 $240 $290 forward $345 $-1 #
edge $-1 $293 -16.038117899495205 $291 16.038117899495205 $240 $346 forward 7 unknown #
vertex $-1 $241 $347 #
straight-curve $-1 0 44.794958037859772 -16.038117899495205 1 0 0 I I #
vertex $-1 $242 $348 #
straight-curve $-1 0 44.794958037859772 16.038117899495205 -1 0 0 I I #
coedge $-1 $349 $246 $350 $351 forward $182 $-1 #
coedge $-1 $283 $333 $246 $297 reversed $334 $-1 #
edge $-1 $285 -60.457999096102427 $352 71.366924039429918 $296 $292 forward 7 unknown #
face $-1 $353 $354 $11 $-1 $355 reversed single #
plane-surface $-1 0 0 -16.038117899495205 0 0 1 1 0 0 forward_v I I I I #
face $-1 $356 $357 $10 $-1 $358 reversed single #
loop $-1 $-1 $313 $253 #
plane-surface $-1 -71.366924039429918 0 0 1 0 0 0 0 -1 forward_v I I I I #
coedge $-1 $264 $254 $359 $360 forward $80 $-1 #
coedge $-1 $256 $269 $361 $362 forward $158 $-1 #
coedge $-1 $361 $359 $258 $306 forward $363 $-1 #
edge $-1 $308 -16.038117899495205 $307 16.038117899495205 $305 $364 forward 7 unknown #
vertex $-1 $306 $365 #
vertex $-1 $360 $366 #
coedge $-1 $265 $270 $263 $310 reversed $301 $-1 #
edge $-1 $267 -16.038117899495205 $272 16.038117899495205 $309 $367 forward 7 unknown #
coedge $-1 $368 $369 $264 $312 reversed $357 $-1 #
edge $-1 $370 -71.366924039429918 $314 71.366924039429918 $311 $371 forward 7 unknown #
coedge $-1 $270 $265 $369 $372 forward $301 $-1 #
vertex $-1 $312 $373 #
straight-curve $-1 -71.366924039429918 0 16.038117899495205 0 -1 0 I I #
point $-1 -71.366924039429918 -44.794958037859772 16.038117899495205 #
coedge $-1 $369 $368 $269 $318 reversed $357 $-1 #
edge $-1 $319 -71.366924039429918 $374 71.366924039429918 $317 $375 forward 7 unknown #
vertex $-1 $318 $376 #
straight-curve $-1 -71.366924039429918 0 -16.038117899495205 0 1 0 I I #
point $-1 -71.366924039429918 -44.794958037859772 -16.038117899495205 #
face $-1 $247 $377 $11 $-1 $355 reversed single #
loop $-1 $-1 $378 $274 #
plane-surface $-1 -60.457999096102427 -34.656407502167554 0 -1 0 0 0 0 1 forward_v I I I I #
coedge $-1 $379 $380 $381 $382 reversed $275 $-1 #
coedge $-1 $383 $277 $384 $385 reversed $229 $-1 #
coedge $-1 $277 $383 $386 $387 reversed $229 $-1 #
coedge $-1 $380 $379 $277 $329 forward $275 $-1 #
edge $-1 $388 -16.038117899495205 $389 16.038117899495205 $328 $390 forward 7 unknown #
coedge $-1 $278 $391 $392 $393 forward $96 $-1 #
coedge $-1 $394 $395 $278 $332 reversed $396 $-1 #
edge $-1 $397 -44.794958037859772 $335 44.794958037859772 $331 $398 forward 7 unknown #
coedge $-1 $296 $279 $395 $399 forward $334 $-1 #
loop $-1 $-1 $283 $400 #
vertex $-1 $332 $401 #
point $-1 -60.457999096102427 44.794958037859772 16.038117899495205 #
straight-curve $-1 -60.457999096102427 44.794958037859772 0 0 0 1 I I #
point $-1 -60.457999096102427 44.794958037859772 -16.038117899495205 #
coedge $-1 $384 $287 $402 $403 forward $96 $-1 #
coedge $-1 $289 $404 $287 $341 reversed $345 $-1 #
edge $-1 $293 -44.794958037859772 $405 44.794958037859772 $340 $406 forward 7 unknown #
coedge $-1 $288 $386 $407 $408 forward $182 $-1 #
coedge $-1 $404 $289 $288 $344 reversed $345 $-1 #
edge $-1 $409 -44.794958037859772 $291 44.794958037859772 $343 $410 forward 7 unknown #
loop $-1 $-1 $289 $353 #
straight-curve $-1 -71.366924039429918 44.794958037859772 0 0 0 -1 I I #
point $-1 -71.366924039429918 44.794958037859772 -16.038117899495205 #
point $-1 -71.366924039429918 44.794958037859772 16.038117899495205 #
coedge $-1 $411 $295 $412 $413 forward $182 $-1 #
coedge $-1 $395 $394 $295 $351 reversed $396 $-1 #
edge $-1 $352 -44.794958037859772 $414 44.794958037859772 $350 $415 forward 7 unknown #
vertex $-1 $351 $416 #
face $-1 $400 $345 $11 $-1 $417 reversed single #
loop $-1 $-1 $418 $298 #
plane-surface $-1 0 -44.794958037859772 0 0 1 0 0 0 1 forward_v I I I I #
face $-1 $-1 $363 $10 $-1 $419 reversed single #
loop $-1 $-1 $368 $300 #
plane-surface $-1 0 44.794958037859772 0 0 -1 0 0 0 -1 forward_v I I I I #
coedge $-1 $305 $420 $303 $360 reversed $363 $-1 #
edge $-1 $308 -44.794958037859772 $370 44.794958037859772 $359 $421 forward 7 unknown #
coedge $-1 $420 $305 $304 $362 reversed $363 $-1 #
edge $-1 $374 -44.794958037859772 $307 44.794958037859772 $361 $422 forward 7 unknown #
loop $-1 $-1 $305 $356 #
straight-curve $-1 71.366924039429918 -44.794958037859772 0 0 0 -1 I I #
point $-1 71.366924039429918 -44.794958037859772 -16.038117899495205 #
point $-1 71.366924039429918 -44.794958037859772 16.038117899495205 #
straight-curve $-1 -71.366924039429918 -44.794958037859772 0 0 0 -1 I I #
coedge $-1 $317 $311 $420 $423 forward $357 $-1 #
coedge $-1 $311 $317 $313 $372 reversed $357 $-1 #
vertex $-1 $360 $424 #
straight-curve $-1 0 44.794958037859772 16.038117899495205 -1 0 0 I I #
edge $-1 $314 -16.038117899495205 $319 16.038117899495205 $369 $425 forward 7 unknown #
point $-1 -71.366924039429918 44.794958037859772 16.038117899495205 #
vertex $-1 $362 $426 #
straight-curve $-1 0 44.794958037859772 -16.038117899495205 1 0 0 I I #
point $-1 -71.366924039429918 44.794958037859772 -16.038117899495205 #
loop $-1 $-1 $427 $322 #
coedge $-1 $428 $429 $427 $430 reversed $323 $-1 #
coedge $-1 $328 $325 $431 $432 reversed $275 $-1 #
coedge $-1 $325 $328 $433 $434 reversed $275 $-1 #
coedge $-1 $429 $428 $325 $382 forward $323 $-1 #
edge $-1 $435 -16.038117899495205 $436 16.038117899495205 $381 $437 forward 7 unknown #
coedge $-1 $327 $326 $418 $438 reversed $229 $-1 #
coedge $-1 $431 $339 $326 $385 forward $96 $-1 #
edge $-1 $439 -27.466754286775995 $388 -7.1896532153915622 $384 $440 forward 7 unknown #
coedge $-1 $342 $433 $327 $387 forward $182 $-1 #
edge $-1 $389 7.1896532153915622 $441 27.466754286775995 $386 $442 forward 7 unknown #
vertex $-1 $385 $443 #
vertex $-1 $387 $444 #
straight-curve $-1 -68.527129747901441 -24.517856966475339 0 0 0 -1 I I #
coedge $-1 $330 $431 $428 $445 forward $96 $-1 #
coedge $-1 $427 $446 $330 $393 reversed $377 $-1 #
edge $-1 $447 -60.457999096102427 $397 71.366924039429918 $392 $448 forward 7 unknown #
coedge $-1 $350 $331 $446 $449 forward $396 $-1 #
coedge $-1 $331 $350 $333 $399 reversed $396 $-1 #
loop $-1 $-1 $394 $450 #
vertex $-1 $332 $451 #
straight-curve $-1 71.366924039429918 0 16.038117899495205 0 1 0 I I #
edge $-1 $335 -16.038117899495205 $352 16.038117899495205 $395 $452 forward 7 unknown #
face $-1 $450 $334 $11 $-1 $165 reversed single #
point $-1 71.366924039429918 44.794958037859772 16.038117899495205 #
coedge $-1 $453 $418 $339 $403 reversed $354 $-1 #
edge $-1 $405 -71.366924039429918 $439 -68.527129747901441 $402 $448 forward 7 unknown #
coedge $-1 $340 $343 $453 $454 reversed $345 $-1 #
vertex $-1 $341 $455 #
straight-curve $-1 -71.366924039429918 0 16.038117899495205 0 -1 0 I I #
coedge $-1 $418 $453 $342 $408 reversed $354 $-1 #
edge $-1 $441 68.527129747901441 $409 71.366924039429918 $407 $456 forward 7 unknown #
vertex $-1 $344 $457 #
straight-curve $-1 -71.366924039429918 0 -16.038117899495205 0 1 0 I I #
coedge $-1 $433 $349 $429 $458 forward $182 $-1 #
coedge $-1 $446 $427 $349 $413 reversed $377 $-1 #
edge $-1 $414 -71.366924039429918 $459 60.457999096102427 $412 $456 forward 7 unknown #
vertex $-1 $449 $460 #
straight-curve $-1 71.366924039429918 0 -16.038117899495205 0 -1 0 I I #
point $-1 71.366924039429918 44.794958037859772 -16.038117899495205 #
plane-surface $-1 -71.366924039429918 0 0 1 0 0 0 0 -1 forward_v I I I I #
coedge $-1 $402 $407 $383 $438 forward $354 $-1 #
plane-surface $-1 71.366924039429918 0 0 -1 0 0 0 0 1 forward_v I I I I #
coedge $-1 $359 $361 $368 $423 reversed $363 $-1 #
straight-curve $-1 71.366924039429918 0 16.038117899495205 0 1 0 I I #
straight-curve $-1 71.366924039429918 0 -16.038117899495205 0 -1 0 I I #
edge $-1 $370 -16.038117899495205 $374 16.038117899495205 $420 $461 forward 7 unknown #
point $-1 71.366924039429918 44.794958037859772 16.038117899495205 #
straight-curve $-1 -71.366924039429918 44.794958037859772 0 0 0 -1 I I #
point $-1 71.366924039429918 44.794958037859772 -16.038117899495205 #
coedge $-1 $412 $392 $378 $430 forward $377 $-1 #
coedge $-1 $381 $378 $391 $445 reversed $323 $-1 #
coedge $-1 $378 $381 $411 $458 reversed $323 $-1 #
edge $-1 $447 -16.038117899495205 $459 16.038117899495205 $427 $462 forward 7 unknown #
coedge $-1 $391 $384 $379 $432 forward $96 $-1 #
edge $-1 $388 -36.280847536900474 $435 -28.21171688510146 $431 $463 forward 7 unknown #
coedge $-1 $386 $411 $380 $434 forward $182 $-1 #
edge $-1 $436 28.21171688510146 $389 36.280847536900474 $433 $464 forward 7 unknown #
vertex $-1 $432 $465 #
vertex $-1 $434 $466 #
straight-curve $-1 -60.457999096102427 -24.517856966475339 0 0 0 -1 I I #
edge $-1 $441 -16.038117899495205 $439 16.038117899495205 $418 $467 forward 7 unknown #
vertex $-1 $438 $468 #
straight-curve $-1 -68.527129747901441 -17.328203751083777 16.038117899495205 0 1 0 I I #
vertex $-1 $408 $469 #
straight-curve $-1 -68.527129747901441 -17.328203751083777 -16.038117899495205 0 -1 0 I I #
point $-1 -68.527129747901441 -24.517856966475339 16.038117899495205 #
point $-1 -68.527129747901441 -24.517856966475339 -16.038117899495205 #
edge $-1 $435 7.1896532153915622 $447 27.466754286775995 $391 $470 forward 7 unknown #
coedge $-1 $392 $412 $394 $449 reversed $377 $-1 #
vertex $-1 $393 $471 #
straight-curve $-1 0 -44.794958037859772 16.038117899495205 1 0 0 I I #
edge $-1 $397 -16.038117899495205 $414 16.038117899495205 $394 $472 forward 7 unknown #
face $-1 $-1 $396 $11 $-1 $473 reversed single #
point $-1 71.366924039429918 -44.794958037859772 16.038117899495205 #
straight-curve $-1 71.366924039429918 44.794958037859772 0 0 0 -1 I I #
coedge $-1 $407 $402 $404 $454 forward $354 $-1 #
edge $-1 $405 -16.038117899495205 $409 16.038117899495205 $404 $474 forward 7 unknown #
point $-1 -71.366924039429918 -44.794958037859772 16.038117899495205 #
straight-curve $-1 0 -44.794958037859772 -16.038117899495205 -1 0 0 I I #
point $-1 -71.366924039429918 -44.794958037859772 -16.038117899495205 #
edge $-1 $459 -27.466754286775995 $436 -7.1896532153915622 $411 $475 forward 7 unknown #
vertex $-1 $430 $476 #
point $-1 71.366924039429918 -44.794958037859772 -16.038117899495205 #
straight-curve $-1 71.366924039429918 44.794958037859772 0 0 0 -1 I I #
straight-curve $-1 -60.457999096102427 -44.794958037859772 0 0 0 -1 I I #
straight-curve $-1 -32.246282211000967 -24.517856966475339 16.038117899495205 1 0 0 I I #
straight-curve $-1 -32.246282211000967 -24.517856966475339 -16.038117899495205 -1 0 0 I I #
point $-1 -60.457999096102427 -24.517856966475339 16.038117899495205 #
point $-1 -60.457999096102427 -24.517856966475339 -16.038117899495205 #
straight-curve $-1 -68.527129747901441 -44.794958037859772 0 0 0 1 I I #
point $-1 -68.527129747901441 -44.794958037859772 16.038117899495205 #
point $-1 -68.527129747901441 -44.794958037859772 -16.038117899495205 #
straight-curve $-1 -60.457999096102427 -17.328203751083777 16.038117899495205 0 -1 0 I I #
point $-1 -60.457999096102427 -44.794958037859772 16.038117899495205 #
straight-curve $-1 71.366924039429918 -44.794958037859772 0 0 0 -1 I I #
plane-surface $-1 71.366924039429918 0 0 -1 0 0 0 0 1 forward_v I I I I #
straight-curve $-1 -71.366924039429918 -44.794958037859772 0 0 0 -1 I I #
straight-curve $-1 -60.457999096102427 -17.328203751083777 -16.038117899495205 0 1 0 I I #
point $-1 -60.457999096102427 -44.794958037859772 -16.038117899495205 #
End-of-ACIS-data 