500 0 5 0           
7 Unknown 11 ACIS 5.0 NT 24 Fri Mar 26 19:47:08 1999 
-1 9.9999999999999995e-007 1e-010 
body $-1 $5 $-1 $6 #
body $-1 $7 $-1 $8 #
body $-1 $9 $-1 $10 #
body $-1 $11 $-1 $12 #
body $-1 $13 $-1 $14 #
lump $-1 $-1 $15 $0 #
transform $-1 1 0 0 0 1 0 0 0 1 78.746299630726043 51.628608954034561 12.929289814600567 1 rotate no_reflect no_shear #
lump $-1 $-1 $16 $1 #
transform $-1 1 0 0 0 1 0 0 0 1 78.746299630726043 51.628608954034561 12.929289814600567 1 rotate no_reflect no_shear #
lump $-1 $-1 $17 $2 #
transform $-1 1 0 0 0 1 0 0 0 1 78.746299630726043 51.628608954034561 12.929289814600567 1 rotate no_reflect no_shear #
lump $-1 $-1 $18 $3 #
transform $-1 1 0 0 0 1 0 0 0 1 78.746299630726043 51.628608954034561 12.929289814600567 1 rotate no_reflect no_shear #
lump $-1 $-1 $19 $4 #
transform $-1 1 0 0 0 1 0 0 0 1 78.746299630726043 51.628608954034561 12.929289814600567 1 rotate no_reflect no_shear #
shell $-1 $-1 $-1 $20 $-1 $5 #
shell $-1 $-1 $-1 $21 $-1 $7 #
shell $-1 $-1 $-1 $22 $-1 $9 #
shell $-1 $-1 $-1 $23 $-1 $11 #
shell $-1 $-1 $-1 $24 $-1 $13 #
face $-1 $25 $26 $15 $-1 $27 forward single #
face $-1 $28 $29 $16 $-1 $30 forward single #
face $-1 $31 $32 $17 $-1 $33 forward single #
face $-1 $34 $35 $18 $-1 $36 reversed single #
face $-1 $37 $38 $19 $-1 $39 reversed single #
face $-1 $40 $41 $15 $-1 $42 reversed single #
loop $-1 $-1 $43 $20 #
plane-surface $-1 0 0 12.929289814600567 0 0 1 1 0 0 forward_v I I I I #
face $-1 $44 $45 $16 $-1 $46 forward single #
loop $-1 $-1 $47 $21 #
plane-surface $-1 -70.322867513805107 0 6.7263715815159433 0 0 1 1 0 0 forward_v I I I I #
face $-1 $48 $49 $17 $-1 $50 forward single #
loop $-1 $-1 $51 $22 #
plane-surface $-1 48.310900803849158 139.31465001629039 176.31522840654725 1 0 0 0 -0.87461971476443456 -0.48480960649040278 forward_v I I I I #
face $-1 $52 $53 $18 $-1 $54 reversed single #
loop $-1 $55 $56 $23 #
cone-surface $-1 57.006729040099685 49.874587117684889 10.821344469117111 0 -0.87461971476443456 -0.48480960649040278 0.5 0 0 1 I I 0 1 0.5 forward I I I I #
face $-1 $57 $58 $19 $-1 $59 reversed single #
loop $-1 $60 $61 $24 #
cone-surface $-1 70.050471394475494 49.874587117684889 10.821344469117111 0 -0.87461971476443456 -0.48480960649040278 0.5 0 0 1 I I 0 1 0.5 forward I I I I #
face $-1 $62 $63 $15 $-1 $64 reversed single #
loop $-1 $-1 $65 $25 #
plane-surface $-1 0 0 -12.929289814600567 0 0 1 1 0 0 forward_v I I I I #
coedge $-1 $66 $67 $68 $69 forward $26 $-1 #
face $-1 $70 $71 $16 $-1 $72 forward single #
loop $-1 $-1 $73 $28 #
plane-surface $-1 -61.899435396884165 0 9.8278306980582553 -1 0 0 0 0 1 forward_v I I I I #
coedge $-1 $74 $75 $76 $77 reversed $29 $-1 #
face $-1 $78 $79 $17 $-1 $80 forward single #
loop $-1 $-1 $81 $31 #
plane-surface $-1 63.528600217287618 1.5685177727297628 99.961303333451966 0 0.87461971476443456 0.48480960649040278 1 0 0 forward_v I I I I #
coedge $-1 $82 $83 $84 $85 reversed $32 $-1 #
face $-1 $86 $87 $18 $-1 $88 forward single #
loop $-1 $89 $90 $34 #
cone-surface $-1 57.006729040099685 48.810640408175004 10.231589199647599 0 -0.87461971476443456 -0.48480960649040278 0.25 0 0 1 I I -0.70710678118654746 0.70710678118654746 0.25 forward I I I I #
loop $-1 $-1 $91 $23 #
coedge $-1 $56 $56 $92 $93 reversed $35 $-1 #
face $-1 $94 $95 $19 $-1 $96 reversed single #
loop $-1 $97 $98 $37 #
cone-surface $-1 70.050471394475494 48.810640408175004 10.231589199647599 0 -0.87461971476443456 -0.48480960649040278 0.25 0 0 1 I I -0.70710678118654746 0.70710678118654746 0.25 forward I I I I #
loop $-1 $-1 $99 $24 #
coedge $-1 $61 $61 $100 $101 reversed $38 $-1 #
face $-1 $102 $103 $15 $-1 $104 reversed single #
loop $-1 $-1 $105 $40 #
plane-surface $-1 0 -51.628608954034561 0 0 1 0 0 0 1 forward_v I I I I #
coedge $-1 $106 $107 $108 $109 forward $41 $-1 #
coedge $-1 $110 $43 $111 $112 forward $26 $-1 #
coedge $-1 $43 $110 $113 $114 forward $26 $-1 #
coedge $-1 $115 $116 $43 $69 reversed $117 $-1 #
edge $-1 $118 -51.628608954034561 $119 51.628608954034561 $68 $120 forward 7 unknown #
face $-1 $121 $122 $16 $-1 $123 reversed single #
loop $-1 $-1 $124 $44 #
plane-surface $-1 0 0 12.929289814600567 0 0 1 1 0 0 forward_v I I I I #
coedge $-1 $125 $76 $126 $127 reversed $45 $-1 #
coedge $-1 $128 $47 $129 $130 reversed $29 $-1 #
coedge $-1 $47 $128 $131 $132 reversed $29 $-1 #
coedge $-1 $73 $133 $47 $77 forward $45 $-1 #
edge $-1 $134 -51.628608954034561 $135 51.628608954034561 $76 $136 forward 7 unknown #
face $-1 $137 $138 $17 $-1 $139 reversed single #
loop $-1 $-1 $140 $48 #
plane-surface $-1 0 0 12.929289814600567 0 0 1 1 0 0 forward_v I I I I #
coedge $-1 $141 $142 $140 $143 reversed $49 $-1 #
coedge $-1 $83 $51 $142 $144 forward $32 $-1 #
coedge $-1 $51 $82 $145 $146 reversed $32 $-1 #
coedge $-1 $147 $140 $51 $85 forward $79 $-1 #
edge $-1 $148 -19.846176165172452 $149 -18.028716054110632 $84 $150 forward 7 unknown #
face $-1 $151 $152 $18 $-1 $153 forward single #
loop $-1 $-1 $154 $52 #
plane-surface $-1 48.310900803849158 139.31465001629039 176.31522840654725 1 0 0 0 -0.87461971476443456 -0.48480960649040278 forward_v I I I I #
loop $-1 $-1 $155 $34 #
coedge $-1 $90 $90 $91 $156 forward $53 $-1 #
coedge $-1 $91 $91 $90 $156 reversed $55 $-1 #
coedge $-1 $92 $92 $56 $93 forward $152 $-1 #
edge $-1 $157 -5.1323095251471092e-015 $157 6.2831853071795951 $92 $158 forward 7 unknown #
face $-1 $159 $160 $19 $-1 $161 reversed single #
loop $-1 $162 $163 $57 #
cone-surface $-1 57.006729040099685 49.874587117684889 10.821344469117111 0 -0.87461971476443456 -0.48480960649040278 0.5 0 0 1 I I 0 1 0.5 forward I I I I #
loop $-1 $-1 $164 $37 #
coedge $-1 $98 $98 $99 $165 forward $58 $-1 #
coedge $-1 $99 $99 $98 $165 reversed $60 $-1 #
coedge $-1 $100 $100 $61 $101 forward $166 $-1 #
edge $-1 $167 -5.1323095251471092e-015 $167 6.2831853071795951 $100 $168 forward 7 unknown #
face $-1 $169 $170 $15 $-1 $171 reversed single #
loop $-1 $-1 $172 $62 #
plane-surface $-1 -78.746299630726043 0 0 1 0 0 0 0 -1 forward_v I I I I #
coedge $-1 $173 $113 $174 $175 forward $63 $-1 #
coedge $-1 $176 $65 $173 $177 forward $41 $-1 #
coedge $-1 $65 $176 $178 $179 forward $41 $-1 #
coedge $-1 $116 $115 $65 $109 reversed $117 $-1 #
edge $-1 $180 -51.628608954034561 $181 51.628608954034561 $108 $182 forward 7 unknown #
coedge $-1 $67 $66 $183 $184 forward $26 $-1 #
coedge $-1 $185 $186 $66 $112 reversed $170 $-1 #
edge $-1 $119 -78.746299630726043 $187 78.746299630726043 $111 $188 forward 7 unknown #
coedge $-1 $105 $189 $67 $114 reversed $63 $-1 #
edge $-1 $190 -78.746299630726043 $118 78.746299630726043 $113 $191 forward 7 unknown #
coedge $-1 $108 $68 $189 $192 forward $117 $-1 #
coedge $-1 $68 $108 $185 $193 reversed $117 $-1 #
loop $-1 $-1 $115 $169 #
vertex $-1 $69 $194 #
vertex $-1 $69 $195 #
straight-curve $-1 78.746299630726043 0 12.929289814600567 0 1 0 I I #
face $-1 $196 $197 $16 $-1 $198 reversed single #
loop $-1 $-1 $126 $70 #
plane-surface $-1 0 -51.628608954034561 0 0 1 0 0 0 1 forward_v I I I I #
coedge $-1 $199 $200 $125 $201 forward $71 $-1 #
coedge $-1 $133 $73 $124 $201 reversed $45 $-1 #
coedge $-1 $131 $202 $73 $127 forward $122 $-1 #
edge $-1 $203 -8.0153744655714405 $135 -1.8124562324868156 $126 $204 forward 7 unknown #
coedge $-1 $75 $74 $205 $206 reversed $29 $-1 #
coedge $-1 $207 $208 $74 $130 forward $209 $-1 #
edge $-1 $210 -43.584865873823489 $134 -26.738001639981611 $129 $211 forward 7 unknown #
coedge $-1 $212 $126 $75 $132 forward $122 $-1 #
edge $-1 $135 26.738001639981611 $213 43.584865873823489 $131 $214 forward 7 unknown #
coedge $-1 $76 $125 $207 $215 reversed $45 $-1 #
vertex $-1 $130 $216 #
vertex $-1 $132 $217 #
straight-curve $-1 -61.899435396884165 0 6.7263715815159433 0 -1 0 I I #
face $-1 $218 $219 $17 $-1 $220 forward single #
loop $-1 $-1 $145 $78 #
plane-surface $-1 0 51.628608954034561 0 0 -1 0 0 0 -1 forward_v I I I I #
coedge $-1 $84 $221 $81 $143 forward $79 $-1 #
coedge $-1 $222 $81 $223 $224 reversed $49 $-1 #
coedge $-1 $81 $222 $82 $144 reversed $49 $-1 #
edge $-1 $225 -46.981999522082262 $148 -16.546600695205349 $140 $226 forward 7 unknown #
edge $-1 $148 99.508405824458407 $227 103.25721790806921 $82 $228 forward 7 unknown #
coedge $-1 $229 $230 $83 $146 forward $138 $-1 #
edge $-1 $149 75.228324388673059 $227 78.507109343946198 $145 $231 forward 7 unknown #
coedge $-1 $232 $84 $230 $233 forward $79 $-1 #
vertex $-1 $143 $234 #
vertex $-1 $233 $235 #
straight-curve $-1 48.310900803849158 69.657325008145193 12.929289814600565 0 1 0 I I #
face $-1 $236 $237 $18 $-1 $238 forward single #
loop $-1 $239 $92 $86 #
plane-surface $-1 63.528600217287618 1.5685177727297628 99.961303333451966 0 0.87461971476443456 0.48480960649040278 1 0 0 forward_v I I I I #
coedge $-1 $240 $241 $242 $243 reversed $87 $-1 #
coedge $-1 $155 $155 $-1 $244 forward $89 $-1 #
edge $-1 $245 0 $245 6.2831853071796004 $90 $246 forward 7 unknown #
vertex $-1 $93 $247 #
ellipse-curve $-1 57.006729040099685 50.719878898503644 11.289897336964012 0 -0.87461971476443456 -0.48480960649040278 0.5 0 0 1 I I #
face $-1 $248 $249 $19 $-1 $250 forward single #
loop $-1 $251 $252 $94 #
cone-surface $-1 57.006729040099685 48.810640408175004 10.231589199647599 0 -0.87461971476443456 -0.48480960649040278 0.25 0 0 1 I I -0.70710678118654746 0.70710678118654746 0.25 forward I I I I #
loop $-1 $-1 $253 $57 #
coedge $-1 $163 $163 $254 $255 reversed $95 $-1 #
coedge $-1 $164 $164 $-1 $256 forward $97 $-1 #
edge $-1 $257 0 $257 6.2831853071796004 $98 $258 forward 7 unknown #
loop $-1 $259 $100 $248 #
vertex $-1 $101 $260 #
ellipse-curve $-1 70.050471394475494 50.719878898503644 11.289897336964012 0 -0.87461971476443456 -0.48480960649040278 0.5 0 0 1 I I #
face $-1 $-1 $117 $15 $-1 $261 reversed single #
loop $-1 $-1 $185 $102 #
plane-surface $-1 0 51.628608954034561 0 0 -1 0 0 0 -1 forward_v I I I I #
coedge $-1 $262 $183 $186 $263 forward $103 $-1 #
coedge $-1 $189 $105 $106 $177 reversed $63 $-1 #
coedge $-1 $183 $262 $105 $175 reversed $103 $-1 #
edge $-1 $190 -12.929289814600567 $264 12.929289814600567 $174 $265 forward 7 unknown #
coedge $-1 $107 $106 $262 $266 forward $41 $-1 #
edge $-1 $181 -78.746299630726043 $264 78.746299630726043 $173 $267 forward 7 unknown #
coedge $-1 $186 $185 $107 $179 reversed $170 $-1 #
edge $-1 $268 -78.746299630726043 $180 78.746299630726043 $178 $269 forward 7 unknown #
vertex $-1 $109 $270 #
vertex $-1 $192 $271 #
straight-curve $-1 78.746299630726043 0 -12.929289814600567 0 -1 0 I I #
coedge $-1 $172 $174 $110 $184 reversed $103 $-1 #
edge $-1 $187 -51.628608954034561 $190 51.628608954034561 $183 $272 forward 7 unknown #
coedge $-1 $178 $111 $116 $193 forward $170 $-1 #
coedge $-1 $111 $178 $172 $263 reversed $170 $-1 #
vertex $-1 $112 $273 #
straight-curve $-1 0 51.628608954034561 12.929289814600567 -1 0 0 I I #
coedge $-1 $113 $173 $115 $192 reversed $63 $-1 #
vertex $-1 $184 $274 #
straight-curve $-1 0 -51.628608954034561 12.929289814600567 1 0 0 I I #
edge $-1 $118 -12.929289814600567 $181 12.929289814600567 $115 $275 forward 7 unknown #
edge $-1 $119 -12.929289814600567 $180 12.929289814600567 $116 $276 forward 7 unknown #
point $-1 78.746299630726043 -51.628608954034561 12.929289814600567 #
point $-1 78.746299630726043 51.628608954034561 12.929289814600567 #
face $-1 $277 $278 $16 $-1 $279 reversed single #
loop $-1 $-1 $280 $121 #
plane-surface $-1 0 0 -12.929289814600567 0 0 1 1 0 0 forward_v I I I I #
coedge $-1 $281 $124 $202 $282 forward $71 $-1 #
coedge $-1 $124 $281 $283 $284 forward $71 $-1 #
edge $-1 $285 -51.628608954034561 $203 51.628608954034561 $124 $286 forward 7 unknown #
coedge $-1 $126 $287 $199 $282 reversed $122 $-1 #
vertex $-1 $282 $288 #
straight-curve $-1 -61.899435396884165 -51.628608954034561 4.9139153490291276 0 0 -1 I I #
coedge $-1 $289 $290 $128 $206 forward $278 $-1 #
edge $-1 $213 -51.628608954034561 $210 51.628608954034561 $205 $291 forward 7 unknown #
coedge $-1 $283 $129 $133 $215 forward $209 $-1 #
coedge $-1 $129 $292 $289 $293 reversed $209 $-1 #
loop $-1 $-1 $207 $277 #
vertex $-1 $293 $294 #
straight-curve $-1 -35.161433756902554 51.628608954034561 6.7263715815159433 1 0 0 I I #
coedge $-1 $295 $131 $290 $296 forward $122 $-1 #
vertex $-1 $296 $297 #
straight-curve $-1 -35.161433756902554 -51.628608954034561 6.7263715815159433 -1 0 0 I I #
edge $-1 $134 1.8124562324868156 $285 8.0153744655714405 $207 $298 forward 7 unknown #
point $-1 -61.899435396884165 51.628608954034561 6.7263715815159433 #
point $-1 -61.899435396884165 -51.628608954034561 6.7263715815159433 #
face $-1 $299 $300 $17 $-1 $301 forward single #
loop $-1 $-1 $302 $137 #
plane-surface $-1 -70.322867513805107 0 6.7263715815159433 0 0 1 1 0 0 forward_v I I I I #
coedge $-1 $140 $303 $304 $305 forward $79 $-1 #
coedge $-1 $142 $141 $229 $306 reversed $49 $-1 #
coedge $-1 $304 $307 $141 $224 forward $308 $-1 #
edge $-1 $309 -59.923370845661921 $225 -56.17455876205112 $223 $310 forward 7 unknown #
vertex $-1 $224 $311 #
straight-curve $-1 31.764300108643809 49.811148842972742 12.929289814600565 -1 0 0 I I #
vertex $-1 $306 $312 #
straight-curve $-1 48.310900803849158 1.5685177727297628 99.961303333451966 0 0.48480960649040278 -0.87461971476443456 I I #
coedge $-1 $313 $145 $222 $306 forward $138 $-1 #
coedge $-1 $145 $314 $147 $233 reversed $138 $-1 #
straight-curve $-1 48.310900803849158 51.628608954034561 88.157614203273624 0 0 -1 I I #
coedge $-1 $303 $147 $315 $316 forward $79 $-1 #
edge $-1 $149 -48.310900803849158 $317 61.899435396884165 $230 $318 forward 7 unknown #
point $-1 48.310900803849158 49.811148842972742 12.929289814600565 #
point $-1 48.310900803849158 51.628608954034561 12.929289814600567 #
face $-1 $319 $320 $18 $-1 $321 reversed single #
loop $-1 $-1 $322 $151 #
plane-surface $-1 0 0 12.929289814600567 0 0 1 1 0 0 forward_v I I I I #
loop $-1 $-1 $323 $86 #
coedge $-1 $241 $154 $324 $325 forward $87 $-1 #
coedge $-1 $154 $240 $326 $327 reversed $87 $-1 #
coedge $-1 $328 $322 $154 $243 forward $237 $-1 #
edge $-1 $329 -19.846176165172452 $330 -18.028716054110632 $242 $331 forward 7 unknown #
edge $-1 $332 1 $332 0 $155 $-1 forward 7 unknown #
vertex $-1 $156 $333 #
ellipse-curve $-1 57.006729040099685 49.029295336866113 10.3527916012702 0 0.87461971476443456 0.48480960649040278 0.5 0 0 1 I I #
point $-1 57.506729040099685 50.719878898503666 11.289897336964021 #
face $-1 $334 $166 $19 $-1 $335 forward single #
loop $-1 $-1 $336 $159 #
plane-surface $-1 48.310900803849158 139.31465001629039 176.31522840654725 1 0 0 0 -0.87461971476443456 -0.48480960649040278 forward_v I I I I #
loop $-1 $-1 $337 $94 #
coedge $-1 $252 $252 $253 $338 forward $160 $-1 #
coedge $-1 $253 $253 $252 $338 reversed $162 $-1 #
coedge $-1 $254 $254 $163 $255 forward $259 $-1 #
edge $-1 $339 -5.1323095251471092e-015 $339 6.2831853071795951 $254 $340 forward 7 unknown #
edge $-1 $341 1 $341 0 $164 $-1 forward 7 unknown #
vertex $-1 $165 $342 #
ellipse-curve $-1 70.050471394475494 49.029295336866113 10.3527916012702 0 0.87461971476443456 0.48480960649040278 0.5 0 0 1 I I #
loop $-1 $343 $254 $248 #
point $-1 70.550471394475494 50.719878898503666 11.289897336964021 #
plane-surface $-1 78.746299630726043 0 0 -1 0 0 0 0 1 forward_v I I I I #
coedge $-1 $174 $172 $176 $266 reversed $103 $-1 #
edge $-1 $187 -12.929289814600567 $268 12.929289814600567 $186 $344 forward 7 unknown #
vertex $-1 $266 $345 #
straight-curve $-1 -78.746299630726043 -51.628608954034561 0 0 0 -1 I I #
edge $-1 $264 -51.628608954034561 $268 51.628608954034561 $262 $346 forward 7 unknown #
straight-curve $-1 0 -51.628608954034561 -12.929289814600567 -1 0 0 I I #
vertex $-1 $179 $347 #
straight-curve $-1 0 51.628608954034561 -12.929289814600567 1 0 0 I I #
point $-1 78.746299630726043 51.628608954034561 -12.929289814600567 #
point $-1 78.746299630726043 -51.628608954034561 -12.929289814600567 #
straight-curve $-1 -78.746299630726043 0 12.929289814600567 0 -1 0 I I #
point $-1 -78.746299630726043 51.628608954034561 12.929289814600567 #
point $-1 -78.746299630726043 -51.628608954034561 12.929289814600567 #
straight-curve $-1 78.746299630726043 -51.628608954034561 0 0 0 -1 I I #
straight-curve $-1 78.746299630726043 51.628608954034561 0 0 0 -1 I I #
face $-1 $348 $209 $16 $-1 $349 reversed single #
loop $-1 $-1 $205 $196 #
plane-surface $-1 -78.746299630726043 0 0 1 0 0 0 0 -1 forward_v I I I I #
coedge $-1 $350 $351 $352 $353 forward $197 $-1 #
coedge $-1 $200 $199 $354 $355 forward $71 $-1 #
edge $-1 $203 -61.899435396884165 $356 78.746299630726043 $202 $357 forward 7 unknown #
coedge $-1 $358 $207 $200 $284 reversed $209 $-1 #
edge $-1 $359 -78.746299630726043 $285 61.899435396884165 $283 $360 forward 7 unknown #
vertex $-1 $201 $361 #
straight-curve $-1 -61.899435396884165 0 12.929289814600567 0 -1 0 I I #
coedge $-1 $202 $295 $362 $363 reversed $122 $-1 #
point $-1 -61.899435396884165 -51.628608954034561 12.929289814600567 #
coedge $-1 $364 $205 $208 $293 forward $278 $-1 #
coedge $-1 $205 $364 $212 $296 reversed $278 $-1 #
straight-curve $-1 -78.746299630726043 0 6.7263715815159433 0 1 0 I I #
coedge $-1 $208 $358 $351 $365 reversed $209 $-1 #
edge $-1 $210 -6.7263715815159433 $366 12.929289814600567 $208 $367 forward 7 unknown #
point $-1 -78.746299630726043 51.628608954034561 6.7263715815159433 #
coedge $-1 $287 $212 $350 $368 reversed $122 $-1 #
edge $-1 $213 -6.7263715815159433 $369 12.929289814600567 $290 $370 forward 7 unknown #
point $-1 -78.746299630726043 -51.628608954034561 6.7263715815159433 #
straight-curve $-1 -61.899435396884165 51.628608954034561 4.9139153490291276 0 0 1 I I #
face $-1 $371 $372 $17 $-1 $373 reversed single #
loop $-1 $-1 $374 $218 #
plane-surface $-1 -61.899435396884165 0 9.8278306980582553 -1 0 0 0 0 1 forward_v I I I I #
coedge $-1 $375 $376 $377 $378 reversed $219 $-1 #
coedge $-1 $221 $232 $379 $380 forward $79 $-1 #
coedge $-1 $381 $223 $221 $305 reversed $308 $-1 #
edge $-1 $382 -51.628608954034561 $225 49.811148842972742 $304 $383 forward 7 unknown #
edge $-1 $227 16.546600695205349 $309 46.981999522082262 $229 $384 forward 7 unknown #
coedge $-1 $223 $385 $313 $386 reversed $308 $-1 #
loop $-1 $-1 $223 $387 #
vertex $-1 $386 $388 #
straight-curve $-1 78.746299630726043 22.577183114770733 62.060666376083681 0 -0.48480960649040278 0.87461971476443456 I I #
point $-1 78.746299630726071 49.811148842972742 12.929289814600565 #
point $-1 48.310900803849158 51.628608954034561 9.6505048593274267 #
coedge $-1 $389 $229 $307 $386 forward $138 $-1 #
coedge $-1 $230 $390 $391 $392 forward $138 $-1 #
coedge $-1 $391 $374 $232 $316 reversed $300 $-1 #
edge $-1 $317 -51.628608954034561 $393 51.628608954034561 $232 $394 forward 7 unknown #
vertex $-1 $316 $395 #
straight-curve $-1 0 51.628608954034561 12.929289814600567 -1 0 0 I I #
face $-1 $396 $397 $18 $-1 $398 forward single #
loop $-1 $-1 $326 $236 #
plane-surface $-1 0 51.628608954034561 0 0 -1 0 0 0 -1 forward_v I I I I #
coedge $-1 $242 $399 $323 $400 forward $237 $-1 #
coedge $-1 $401 $324 $322 $400 reversed $239 $-1 #
coedge $-1 $323 $402 $240 $325 reversed $239 $-1 #
edge $-1 $329 99.508405824458407 $403 103.25721790806921 $240 $404 forward 7 unknown #
coedge $-1 $405 $406 $241 $327 forward $320 $-1 #
edge $-1 $330 75.228324388673059 $403 78.507109343946198 $326 $407 forward 7 unknown #
coedge $-1 $408 $242 $406 $409 forward $237 $-1 #
vertex $-1 $400 $410 #
vertex $-1 $409 $411 #
straight-curve $-1 48.310900803849158 69.657325008145193 12.929289814600565 0 1 0 I I #
vertex $-1 $244 $412 #
point $-1 57.506729040099685 49.029295336866113 10.3527916012702 #
face $-1 $413 $414 $19 $-1 $415 forward single #
plane-surface $-1 63.528600217287618 1.5685177727297628 99.961303333451966 0 0.87461971476443456 0.48480960649040278 1 0 0 forward_v I I I I #
coedge $-1 $416 $417 $418 $419 reversed $249 $-1 #
coedge $-1 $337 $337 $-1 $420 forward $251 $-1 #
edge $-1 $421 0 $421 6.2831853071796004 $252 $422 forward 7 unknown #
vertex $-1 $255 $423 #
ellipse-curve $-1 57.006729040099685 50.719878898503644 11.289897336964012 0 -0.87461971476443456 -0.48480960649040278 0.5 0 0 1 I I #
vertex $-1 $256 $424 #
point $-1 70.550471394475494 49.029295336866113 10.3527916012702 #
loop $-1 $-1 $425 $248 #
straight-curve $-1 -78.746299630726043 51.628608954034561 0 0 0 -1 I I #
point $-1 -78.746299630726043 -51.628608954034561 -12.929289814600567 #
straight-curve $-1 -78.746299630726043 0 -12.929289814600567 0 1 0 I I #
point $-1 -78.746299630726043 51.628608954034561 -12.929289814600567 #
face $-1 $-1 $426 $16 $-1 $427 reversed single #
plane-surface $-1 0 51.628608954034561 0 0 -1 0 0 0 -1 forward_v I I I I #
coedge $-1 $428 $280 $295 $368 forward $197 $-1 #
coedge $-1 $280 $428 $292 $365 forward $197 $-1 #
coedge $-1 $429 $362 $280 $353 reversed $426 $-1 #
edge $-1 $430 -51.628608954034561 $431 51.628608954034561 $352 $432 forward 7 unknown #
coedge $-1 $362 $429 $281 $355 reversed $426 $-1 #
edge $-1 $356 -51.628608954034561 $359 51.628608954034561 $354 $433 forward 7 unknown #
vertex $-1 $355 $434 #
straight-curve $-1 0 -51.628608954034561 12.929289814600567 1 0 0 I I #
coedge $-1 $292 $283 $429 $435 forward $209 $-1 #
vertex $-1 $355 $436 #
straight-curve $-1 0 51.628608954034561 12.929289814600567 -1 0 0 I I #
point $-1 -61.899435396884165 51.628608954034561 12.929289814600567 #
coedge $-1 $352 $354 $287 $363 forward $426 $-1 #
edge $-1 $356 -12.929289814600567 $431 12.929289814600567 $362 $437 forward 7 unknown #
coedge $-1 $290 $289 $428 $438 reversed $278 $-1 #
edge $-1 $366 -78.746299630726043 $430 78.746299630726043 $292 $439 forward 7 unknown #
vertex $-1 $365 $440 #
straight-curve $-1 -78.746299630726043 51.628608954034561 0 0 0 -1 I I #
edge $-1 $431 -78.746299630726043 $369 78.746299630726043 $295 $441 forward 7 unknown #
vertex $-1 $438 $442 #
straight-curve $-1 -78.746299630726043 -51.628608954034561 0 0 0 -1 I I #
face $-1 $443 $444 $17 $-1 $445 reversed single #
loop $-1 $-1 $446 $299 #
plane-surface $-1 0 -51.628608954034561 0 0 1 0 0 0 1 forward_v I I I I #
coedge $-1 $315 $377 $446 $447 reversed $300 $-1 #
coedge $-1 $448 $302 $390 $449 reversed $219 $-1 #
coedge $-1 $302 $448 $450 $451 reversed $219 $-1 #
coedge $-1 $374 $391 $302 $378 forward $300 $-1 #
edge $-1 $452 -51.628608954034561 $453 51.628608954034561 $377 $454 forward 7 unknown #
coedge $-1 $446 $455 $303 $380 reversed $372 $-1 #
edge $-1 $393 -61.899435396884165 $382 78.746299630726043 $379 $456 forward 7 unknown #
coedge $-1 $385 $304 $455 $457 forward $308 $-1 #
vertex $-1 $305 $458 #
straight-curve $-1 78.746299630726043 0 12.929289814600567 0 1 0 I I #
straight-curve $-1 31.764300108643809 51.628608954034561 9.6505048593274196 1 0 0 I I #
coedge $-1 $307 $381 $459 $460 reversed $308 $-1 #
edge $-1 $309 -9.6505048593274267 $461 12.929289814600567 $307 $462 forward 7 unknown #
face $-1 $-1 $308 $17 $-1 $463 reversed single #
point $-1 78.746299630726071 51.628608954034561 9.6505048593274267 #
coedge $-1 $464 $313 $465 $466 reversed $138 $-1 #
coedge $-1 $314 $464 $375 $449 forward $138 $-1 #
coedge $-1 $377 $315 $314 $392 reversed $300 $-1 #
edge $-1 $452 1.8124562324868156 $317 8.0153744655714405 $314 $467 forward 7 unknown #
vertex $-1 $380 $468 #
straight-curve $-1 -61.899435396884165 0 12.929289814600567 0 -1 0 I I #
point $-1 -61.899435396884165 51.628608954034561 12.929289814600567 #
face $-1 $469 $470 $18 $-1 $471 forward single #
loop $-1 $-1 $472 $319 #
plane-surface $-1 -70.322867513805107 0 6.7263715815159433 0 0 1 1 0 0 forward_v I I I I #
coedge $-1 $322 $473 $474 $475 forward $237 $-1 #
edge $-1 $476 -46.981999522082262 $329 -16.546600695205349 $322 $477 forward 7 unknown #
coedge $-1 $402 $323 $478 $479 reversed $239 $-1 #
coedge $-1 $324 $401 $405 $480 reversed $239 $-1 #
vertex $-1 $480 $481 #
straight-curve $-1 48.310900803849158 1.5685177727297628 99.961303333451966 0 0.48480960649040278 -0.87461971476443456 I I #
coedge $-1 $482 $326 $402 $480 forward $320 $-1 #
coedge $-1 $326 $483 $328 $409 reversed $320 $-1 #
straight-curve $-1 48.310900803849158 51.628608954034561 88.157614203273624 0 0 -1 I I #
coedge $-1 $473 $328 $484 $485 forward $237 $-1 #
edge $-1 $330 -48.310900803849158 $486 61.899435396884165 $406 $487 forward 7 unknown #
point $-1 48.310900803849158 49.811148842972742 12.929289814600565 #
point $-1 48.310900803849158 51.628608954034561 12.929289814600567 #
point $-1 57.006729040099685 48.591985479483895 10.110386798024999 #
face $-1 $488 $489 $19 $-1 $490 reversed single #
loop $-1 $-1 $491 $334 #
plane-surface $-1 0 0 12.929289814600567 0 0 1 1 0 0 forward_v I I I I #
coedge $-1 $417 $336 $492 $493 forward $249 $-1 #
coedge $-1 $336 $416 $494 $495 reversed $249 $-1 #
coedge $-1 $496 $491 $336 $419 forward $414 $-1 #
edge $-1 $497 -19.846176165172452 $498 -18.028716054110632 $418 $499 forward 7 unknown #
edge $-1 $500 1 $500 0 $337 $-1 forward 7 unknown #
vertex $-1 $338 $501 #
ellipse-curve $-1 57.006729040099685 49.029295336866113 10.3527916012702 0 0.87461971476443456 0.48480960649040278 0.5 0 0 1 I I #
point $-1 57.506729040099685 50.719878898503666 11.289897336964021 #
point $-1 70.050471394475494 48.591985479483895 10.110386798024999 #
coedge $-1 $502 $492 $491 $503 reversed $343 $-1 #
loop $-1 $-1 $362 $348 #
plane-surface $-1 78.746299630726043 0 0 -1 0 0 0 0 1 forward_v I I I I #
coedge $-1 $351 $350 $364 $438 forward $197 $-1 #
coedge $-1 $354 $352 $358 $435 reversed $426 $-1 #
vertex $-1 $353 $504 #
vertex $-1 $363 $505 #
straight-curve $-1 78.746299630726043 0 -12.929289814600567 0 -1 0 I I #
straight-curve $-1 78.746299630726043 0 12.929289814600567 0 1 0 I I #
point $-1 78.746299630726043 -51.628608954034561 12.929289814600567 #
edge $-1 $359 -12.929289814600567 $430 12.929289814600567 $429 $506 forward 7 unknown #
point $-1 78.746299630726043 51.628608954034561 12.929289814600567 #
straight-curve $-1 78.746299630726043 -51.628608954034561 0 0 0 -1 I I #
edge $-1 $369 -51.628608954034561 $366 51.628608954034561 $364 $507 forward 7 unknown #
straight-curve $-1 0 51.628608954034561 -12.929289814600567 1 0 0 I I #
point $-1 -78.746299630726043 51.628608954034561 -12.929289814600567 #
straight-curve $-1 0 -51.628608954034561 -12.929289814600567 -1 0 0 I I #
point $-1 -78.746299630726043 -51.628608954034561 -12.929289814600567 #
face $-1 $387 $508 $17 $-1 $509 reversed single #
loop $-1 $-1 $459 $371 #
plane-surface $-1 0 0 -12.929289814600567 0 0 1 1 0 0 forward_v I I I I #
coedge $-1 $450 $379 $374 $447 forward $372 $-1 #
edge $-1 $393 -8.0153744655714405 $453 -1.8124562324868156 $446 $510 forward 7 unknown #
coedge $-1 $376 $375 $511 $512 reversed $219 $-1 #
edge $-1 $513 -43.584865873823489 $452 -26.738001639981611 $390 $514 forward 7 unknown #
coedge $-1 $515 $446 $376 $451 forward $372 $-1 #
edge $-1 $453 26.738001639981611 $516 43.584865873823489 $450 $517 forward 7 unknown #
vertex $-1 $449 $518 #
vertex $-1 $451 $519 #
straight-curve $-1 -61.899435396884165 0 6.7263715815159433 0 -1 0 I I #
coedge $-1 $379 $520 $381 $457 reversed $372 $-1 #
straight-curve $-1 0 -51.628608954034561 12.929289814600567 1 0 0 I I #
edge $-1 $382 -12.929289814600567 $521 12.929289814600567 $381 $522 forward 7 unknown #
point $-1 78.746299630726043 -51.628608954034561 12.929289814600567 #
coedge $-1 $523 $465 $385 $460 forward $444 $-1 #
edge $-1 $461 -51.628608954034561 $521 51.628608954034561 $385 $524 forward 7 unknown #
vertex $-1 $460 $525 #
straight-curve $-1 78.746299630726043 51.628608954034561 0 0 0 -1 I I #
plane-surface $-1 78.746299630726043 0 0 -1 0 0 0 0 1 forward_v I I I I #
coedge $-1 $390 $389 $526 $527 reversed $138 $-1 #
coedge $-1 $459 $528 $389 $466 forward $444 $-1 #
edge $-1 $529 -78.746299630726043 $461 78.746299630726043 $389 $530 forward 7 unknown #
straight-curve $-1 -61.899435396884165 51.628608954034561 4.9139153490291276 0 0 1 I I #
point $-1 -61.899435396884165 -51.628608954034561 12.929289814600567 #
face $-1 $531 $532 $18 $-1 $533 reversed single #
loop $-1 $-1 $534 $396 #
plane-surface $-1 -61.899435396884165 0 9.8278306980582553 -1 0 0 0 0 1 forward_v I I I I #
coedge $-1 $535 $536 $537 $538 reversed $397 $-1 #
coedge $-1 $399 $408 $539 $540 forward $237 $-1 #
coedge $-1 $541 $478 $399 $475 reversed $542 $-1 #
edge $-1 $543 -51.628608954034561 $476 49.811148842972742 $474 $544 forward 7 unknown #
vertex $-1 $479 $545 #
straight-curve $-1 31.764300108643809 49.811148842972742 12.929289814600565 -1 0 0 I I #
coedge $-1 $474 $546 $401 $479 forward $542 $-1 #
edge $-1 $547 -59.923370845661921 $476 -56.17455876205112 $478 $548 forward 7 unknown #
edge $-1 $403 16.546600695205349 $547 46.981999522082262 $405 $549 forward 7 unknown #
point $-1 48.310900803849158 51.628608954034561 9.6505048593274267 #
coedge $-1 $550 $405 $546 $551 forward $320 $-1 #
coedge $-1 $406 $552 $553 $554 forward $320 $-1 #
coedge $-1 $553 $534 $408 $485 reversed $470 $-1 #
edge $-1 $486 -51.628608954034561 $555 51.628608954034561 $408 $556 forward 7 unknown #
vertex $-1 $485 $557 #
straight-curve $-1 0 51.628608954034561 12.929289814600567 -1 0 0 I I #
face $-1 $558 $559 $19 $-1 $560 forward single #
loop $-1 $-1 $494 $413 #
plane-surface $-1 0 51.628608954034561 0 0 -1 0 0 0 -1 forward_v I I I I #
coedge $-1 $418 $561 $425 $503 forward $414 $-1 #
coedge $-1 $425 $562 $416 $493 reversed $343 $-1 #
edge $-1 $497 99.508405824458407 $563 103.25721790806921 $416 $564 forward 7 unknown #
coedge $-1 $565 $566 $417 $495 forward $489 $-1 #
edge $-1 $498 75.228324388673059 $563 78.507109343946198 $494 $567 forward 7 unknown #
coedge $-1 $568 $418 $566 $569 forward $414 $-1 #
vertex $-1 $503 $570 #
vertex $-1 $569 $571 #
straight-curve $-1 48.310900803849158 69.657325008145193 12.929289814600565 0 1 0 I I #
vertex $-1 $420 $572 #
point $-1 57.506729040099685 49.029295336866113 10.3527916012702 #
coedge $-1 $562 $425 $573 $574 reversed $343 $-1 #
edge $-1 $575 -46.981999522082262 $497 -16.546600695205349 $491 $576 forward 7 unknown #
point $-1 78.746299630726043 51.628608954034561 -12.929289814600567 #
point $-1 78.746299630726043 -51.628608954034561 -12.929289814600567 #
straight-curve $-1 78.746299630726043 51.628608954034561 0 0 0 -1 I I #
straight-curve $-1 -78.746299630726043 0 -12.929289814600567 0 1 0 I I #
loop $-1 $-1 $511 $443 #
plane-surface $-1 -78.746299630726043 0 0 1 0 0 0 0 -1 forward_v I I I I #
straight-curve $-1 -61.899435396884165 -51.628608954034561 4.9139153490291276 0 0 -1 I I #
coedge $-1 $526 $577 $448 $512 forward $508 $-1 #
edge $-1 $516 -51.628608954034561 $513 51.628608954034561 $511 $578 forward 7 unknown #
vertex $-1 $527 $579 #
straight-curve $-1 -35.161433756902554 51.628608954034561 6.7263715815159433 1 0 0 I I #
coedge $-1 $520 $450 $577 $580 forward $372 $-1 #
vertex $-1 $580 $581 #
straight-curve $-1 -35.161433756902554 -51.628608954034561 6.7263715815159433 -1 0 0 I I #
point $-1 -61.899435396884165 51.628608954034561 6.7263715815159433 #
point $-1 -61.899435396884165 -51.628608954034561 6.7263715815159433 #
coedge $-1 $455 $515 $523 $582 reversed $372 $-1 #
vertex $-1 $457 $583 #
straight-curve $-1 78.746299630726043 -51.628608954034561 0 0 0 -1 I I #
coedge $-1 $528 $459 $520 $582 forward $444 $-1 #
straight-curve $-1 78.746299630726043 0 -12.929289814600567 0 -1 0 I I #
point $-1 78.746299630726043 51.628608954034561 -12.929289814600567 #
coedge $-1 $584 $511 $464 $527 forward $508 $-1 #
edge $-1 $513 -6.7263715815159433 $529 12.929289814600567 $464 $585 forward 7 unknown #
coedge $-1 $465 $523 $584 $586 forward $444 $-1 #
vertex $-1 $466 $587 #
straight-curve $-1 0 51.628608954034561 -12.929289814600567 1 0 0 I I #
face $-1 $588 $589 $18 $-1 $590 reversed single #
loop $-1 $-1 $591 $469 #
plane-surface $-1 0 -51.628608954034561 0 0 1 0 0 0 1 forward_v I I I I #
coedge $-1 $484 $537 $591 $592 reversed $470 $-1 #
coedge $-1 $593 $472 $552 $594 reversed $397 $-1 #
coedge $-1 $472 $593 $595 $596 reversed $397 $-1 #
coedge $-1 $534 $553 $472 $538 forward $470 $-1 #
edge $-1 $597 -51.628608954034561 $598 51.628608954034561 $537 $599 forward 7 unknown #
coedge $-1 $591 $600 $473 $540 reversed $532 $-1 #
edge $-1 $555 -61.899435396884165 $543 78.746299630726043 $539 $601 forward 7 unknown #
coedge $-1 $602 $474 $600 $603 forward $542 $-1 #
loop $-1 $-1 $478 $604 #
vertex $-1 $475 $605 #
straight-curve $-1 78.746299630726043 0 12.929289814600567 0 1 0 I I #
point $-1 78.746299630726071 49.811148842972742 12.929289814600565 #
coedge $-1 $478 $602 $482 $551 reversed $542 $-1 #
vertex $-1 $551 $606 #
straight-curve $-1 78.746299630726043 22.577183114770733 62.060666376083681 0 -0.48480960649040278 0.87461971476443456 I I #
straight-curve $-1 31.764300108643809 51.628608954034561 9.6505048593274196 1 0 0 I I #
coedge $-1 $607 $482 $608 $609 reversed $320 $-1 #
edge $-1 $547 -9.6505048593274267 $610 12.929289814600567 $546 $611 forward 7 unknown #
coedge $-1 $483 $607 $535 $594 forward $320 $-1 #
coedge $-1 $537 $484 $483 $554 reversed $470 $-1 #
edge $-1 $597 1.8124562324868156 $486 8.0153744655714405 $483 $612 forward 7 unknown #
vertex $-1 $540 $613 #
straight-curve $-1 -61.899435396884165 0 12.929289814600567 0 -1 0 I I #
point $-1 -61.899435396884165 51.628608954034561 12.929289814600567 #
face $-1 $614 $615 $19 $-1 $616 forward single #
loop $-1 $-1 $617 $488 #
plane-surface $-1 -70.322867513805107 0 6.7263715815159433 0 0 1 1 0 0 forward_v I I I I #
coedge $-1 $491 $618 $619 $620 forward $414 $-1 #
coedge $-1 $492 $502 $565 $621 reversed $343 $-1 #
vertex $-1 $621 $622 #
straight-curve $-1 48.310900803849158 1.5685177727297628 99.961303333451966 0 0.48480960649040278 -0.87461971476443456 I I #
coedge $-1 $623 $494 $562 $621 forward $489 $-1 #
coedge $-1 $494 $624 $496 $569 reversed $489 $-1 #
straight-curve $-1 48.310900803849158 51.628608954034561 88.157614203273624 0 0 -1 I I #
coedge $-1 $618 $496 $625 $626 forward $414 $-1 #
edge $-1 $498 -48.310900803849158 $627 61.899435396884165 $566 $628 forward 7 unknown #
point $-1 48.310900803849158 49.811148842972742 12.929289814600565 #
point $-1 48.310900803849158 51.628608954034561 12.929289814600567 #
point $-1 57.006729040099685 48.591985479483895 10.110386798024999 #
coedge $-1 $619 $629 $502 $574 forward $630 $-1 #
edge $-1 $631 -59.923370845661921 $575 -56.17455876205112 $573 $632 forward 7 unknown #
vertex $-1 $574 $633 #
straight-curve $-1 31.764300108643809 49.811148842972742 12.929289814600565 -1 0 0 I I #
coedge $-1 $511 $584 $515 $580 reversed $508 $-1 #
straight-curve $-1 -78.746299630726043 0 6.7263715815159433 0 1 0 I I #
point $-1 -78.746299630726043 51.628608954034561 6.7263715815159433 #
edge $-1 $516 -6.7263715815159433 $634 12.929289814600567 $577 $635 forward 7 unknown #
point $-1 -78.746299630726043 -51.628608954034561 6.7263715815159433 #
edge $-1 $521 -78.746299630726043 $634 78.746299630726043 $520 $636 forward 7 unknown #
point $-1 78.746299630726043 -51.628608954034561 -12.929289814600567 #
coedge $-1 $577 $526 $528 $586 reversed $508 $-1 #
straight-curve $-1 -78.746299630726043 51.628608954034561 0 0 0 -1 I I #
edge $-1 $634 -51.628608954034561 $529 51.628608954034561 $584 $637 forward 7 unknown #
point $-1 -78.746299630726043 51.628608954034561 -12.929289814600567 #
face $-1 $604 $638 $18 $-1 $639 reversed single #
loop $-1 $-1 $640 $531 #
plane-surface $-1 0 0 -12.929289814600567 0 0 1 1 0 0 forward_v I I I I #
coedge $-1 $595 $539 $534 $592 forward $532 $-1 #
edge $-1 $555 -8.0153744655714405 $598 -1.8124562324868156 $591 $641 forward 7 unknown #
coedge $-1 $536 $535 $642 $643 reversed $397 $-1 #
edge $-1 $644 -43.584865873823489 $597 -26.738001639981611 $552 $645 forward 7 unknown #
coedge $-1 $646 $591 $536 $596 forward $532 $-1 #
edge $-1 $598 26.738001639981611 $647 43.584865873823489 $595 $648 forward 7 unknown #
vertex $-1 $594 $649 #
vertex $-1 $596 $650 #
straight-curve $-1 -61.899435396884165 0 6.7263715815159433 0 -1 0 I I #
coedge $-1 $539 $651 $541 $603 reversed $532 $-1 #
straight-curve $-1 0 -51.628608954034561 12.929289814600567 1 0 0 I I #
coedge $-1 $546 $541 $640 $652 reversed $542 $-1 #
edge $-1 $543 -12.929289814600567 $653 12.929289814600567 $541 $654 forward 7 unknown #
face $-1 $-1 $542 $18 $-1 $655 reversed single #
point $-1 78.746299630726043 -51.628608954034561 12.929289814600567 #
point $-1 78.746299630726071 51.628608954034561 9.6505048593274267 #
coedge $-1 $552 $550 $656 $657 reversed $320 $-1 #
coedge $-1 $640 $658 $550 $609 forward $589 $-1 #
edge $-1 $659 -78.746299630726043 $610 78.746299630726043 $550 $660 forward 7 unknown #
vertex $-1 $652 $661 #
straight-curve $-1 78.746299630726043 51.628608954034561 0 0 0 -1 I I #
straight-curve $-1 -61.899435396884165 51.628608954034561 4.9139153490291276 0 0 1 I I #
point $-1 -61.899435396884165 -51.628608954034561 12.929289814600567 #
face $-1 $662 $663 $19 $-1 $664 reversed single #
loop $-1 $-1 $665 $558 #
plane-surface $-1 -61.899435396884165 0 9.8278306980582553 -1 0 0 0 0 1 forward_v I I I I #
coedge $-1 $666 $667 $668 $669 reversed $559 $-1 #
coedge $-1 $561 $568 $670 $671 forward $414 $-1 #
coedge $-1 $672 $573 $561 $620 reversed $630 $-1 #
edge $-1 $673 -51.628608954034561 $575 49.811148842972742 $619 $674 forward 7 unknown #
edge $-1 $563 16.546600695205349 $631 46.981999522082262 $565 $675 forward 7 unknown #
point $-1 48.310900803849158 51.628608954034561 9.6505048593274267 #
coedge $-1 $676 $565 $629 $677 forward $489 $-1 #
coedge $-1 $566 $678 $679 $680 forward $489 $-1 #
coedge $-1 $679 $665 $568 $626 reversed $615 $-1 #
edge $-1 $627 -51.628608954034561 $681 51.628608954034561 $568 $682 forward 7 unknown #
vertex $-1 $626 $683 #
straight-curve $-1 0 51.628608954034561 12.929289814600567 -1 0 0 I I #
coedge $-1 $573 $684 $623 $677 reversed $630 $-1 #
loop $-1 $-1 $573 $685 #
vertex $-1 $677 $686 #
straight-curve $-1 78.746299630726043 22.577183114770733 62.060666376083681 0 -0.48480960649040278 0.87461971476443456 I I #
point $-1 78.746299630726071 49.811148842972742 12.929289814600565 #
vertex $-1 $586 $687 #
straight-curve $-1 -78.746299630726043 -51.628608954034561 0 0 0 -1 I I #
straight-curve $-1 0 -51.628608954034561 -12.929289814600567 -1 0 0 I I #
straight-curve $-1 -78.746299630726043 0 -12.929289814600567 0 1 0 I I #
loop $-1 $-1 $642 $588 #
plane-surface $-1 -78.746299630726043 0 0 1 0 0 0 0 -1 forward_v I I I I #
coedge $-1 $688 $608 $602 $652 forward $589 $-1 #
straight-curve $-1 -61.899435396884165 -51.628608954034561 4.9139153490291276 0 0 -1 I I #
coedge $-1 $656 $689 $593 $643 forward $638 $-1 #
edge $-1 $647 -51.628608954034561 $644 51.628608954034561 $642 $690 forward 7 unknown #
vertex $-1 $657 $691 #
straight-curve $-1 -35.161433756902554 51.628608954034561 6.7263715815159433 1 0 0 I I #
coedge $-1 $651 $595 $689 $692 forward $532 $-1 #
vertex $-1 $692 $693 #
straight-curve $-1 -35.161433756902554 -51.628608954034561 6.7263715815159433 -1 0 0 I I #
point $-1 -61.899435396884165 51.628608954034561 6.7263715815159433 #
point $-1 -61.899435396884165 -51.628608954034561 6.7263715815159433 #
coedge $-1 $600 $646 $688 $694 reversed $532 $-1 #
edge $-1 $610 -51.628608954034561 $653 51.628608954034561 $602 $695 forward 7 unknown #
vertex $-1 $603 $696 #
straight-curve $-1 78.746299630726043 -51.628608954034561 0 0 0 -1 I I #
plane-surface $-1 78.746299630726043 0 0 -1 0 0 0 0 1 forward_v I I I I #
coedge $-1 $697 $642 $607 $657 forward $638 $-1 #
edge $-1 $644 -6.7263715815159433 $659 12.929289814600567 $607 $698 forward 7 unknown #
coedge $-1 $608 $688 $697 $699 forward $589 $-1 #
vertex $-1 $609 $700 #
straight-curve $-1 0 51.628608954034561 -12.929289814600567 1 0 0 I I #
point $-1 78.746299630726043 51.628608954034561 -12.929289814600567 #
face $-1 $701 $702 $19 $-1 $703 reversed single #
loop $-1 $-1 $704 $614 #
plane-surface $-1 0 -51.628608954034561 0 0 1 0 0 0 1 forward_v I I I I #
coedge $-1 $625 $668 $704 $705 reversed $615 $-1 #
coedge $-1 $706 $617 $678 $707 reversed $559 $-1 #
coedge $-1 $617 $706 $708 $709 reversed $559 $-1 #
coedge $-1 $665 $679 $617 $669 forward $615 $-1 #
edge $-1 $710 -51.628608954034561 $711 51.628608954034561 $668 $712 forward 7 unknown #
coedge $-1 $704 $713 $618 $671 reversed $663 $-1 #
edge $-1 $681 -61.899435396884165 $673 78.746299630726043 $670 $714 forward 7 unknown #
coedge $-1 $684 $619 $713 $715 forward $630 $-1 #
vertex $-1 $620 $716 #
straight-curve $-1 78.746299630726043 0 12.929289814600567 0 1 0 I I #
straight-curve $-1 31.764300108643809 51.628608954034561 9.6505048593274196 1 0 0 I I #
coedge $-1 $717 $623 $718 $719 reversed $489 $-1 #
edge $-1 $631 -9.6505048593274267 $720 12.929289814600567 $629 $721 forward 7 unknown #
coedge $-1 $624 $717 $666 $707 forward $489 $-1 #
coedge $-1 $668 $625 $624 $680 reversed $615 $-1 #
edge $-1 $710 1.8124562324868156 $627 8.0153744655714405 $624 $722 forward 7 unknown #
vertex $-1 $671 $723 #
straight-curve $-1 -61.899435396884165 0 12.929289814600567 0 -1 0 I I #
point $-1 -61.899435396884165 51.628608954034561 12.929289814600567 #
coedge $-1 $629 $672 $724 $725 reversed $630 $-1 #
face $-1 $-1 $630 $19 $-1 $726 reversed single #
point $-1 78.746299630726071 51.628608954034561 9.6505048593274267 #
point $-1 -78.746299630726043 -51.628608954034561 -12.929289814600567 #
coedge $-1 $658 $640 $651 $694 forward $589 $-1 #
coedge $-1 $642 $697 $646 $692 reversed $638 $-1 #
straight-curve $-1 -78.746299630726043 0 6.7263715815159433 0 1 0 I I #
point $-1 -78.746299630726043 51.628608954034561 6.7263715815159433 #
edge $-1 $647 -6.7263715815159433 $727 12.929289814600567 $689 $728 forward 7 unknown #
point $-1 -78.746299630726043 -51.628608954034561 6.7263715815159433 #
edge $-1 $653 -78.746299630726043 $727 78.746299630726043 $651 $729 forward 7 unknown #
straight-curve $-1 78.746299630726043 0 -12.929289814600567 0 -1 0 I I #
point $-1 78.746299630726043 -51.628608954034561 -12.929289814600567 #
coedge $-1 $689 $656 $658 $699 reversed $638 $-1 #
straight-curve $-1 -78.746299630726043 51.628608954034561 0 0 0 -1 I I #
edge $-1 $727 -51.628608954034561 $659 51.628608954034561 $697 $730 forward 7 unknown #
point $-1 -78.746299630726043 51.628608954034561 -12.929289814600567 #
face $-1 $685 $731 $19 $-1 $732 reversed single #
loop $-1 $-1 $724 $662 #
plane-surface $-1 0 0 -12.929289814600567 0 0 1 1 0 0 forward_v I I I I #
coedge $-1 $708 $670 $665 $705 forward $663 $-1 #
edge $-1 $681 -8.0153744655714405 $711 -1.8124562324868156 $704 $733 forward 7 unknown #
coedge $-1 $667 $666 $734 $735 reversed $559 $-1 #
edge $-1 $736 -43.584865873823489 $710 -26.738001639981611 $678 $737 forward 7 unknown #
coedge $-1 $738 $704 $667 $709 forward $663 $-1 #
edge $-1 $711 26.738001639981611 $739 43.584865873823489 $708 $740 forward 7 unknown #
vertex $-1 $707 $741 #
vertex $-1 $709 $742 #
straight-curve $-1 -61.899435396884165 0 6.7263715815159433 0 -1 0 I I #
coedge $-1 $670 $743 $672 $715 reversed $663 $-1 #
straight-curve $-1 0 -51.628608954034561 12.929289814600567 1 0 0 I I #
edge $-1 $673 -12.929289814600567 $744 12.929289814600567 $672 $745 forward 7 unknown #
point $-1 78.746299630726043 -51.628608954034561 12.929289814600567 #
coedge $-1 $678 $676 $746 $747 reversed $489 $-1 #
coedge $-1 $724 $748 $676 $719 forward $702 $-1 #
edge $-1 $749 -78.746299630726043 $720 78.746299630726043 $676 $750 forward 7 unknown #
vertex $-1 $725 $751 #
straight-curve $-1 78.746299630726043 51.628608954034561 0 0 0 -1 I I #
straight-curve $-1 -61.899435396884165 51.628608954034561 4.9139153490291276 0 0 1 I I #
point $-1 -61.899435396884165 -51.628608954034561 12.929289814600567 #
coedge $-1 $752 $718 $684 $725 forward $702 $-1 #
edge $-1 $720 -51.628608954034561 $744 51.628608954034561 $684 $753 forward 7 unknown #
plane-surface $-1 78.746299630726043 0 0 -1 0 0 0 0 1 forward_v I I I I #
vertex $-1 $699 $754 #
straight-curve $-1 -78.746299630726043 -51.628608954034561 0 0 0 -1 I I #
straight-curve $-1 0 -51.628608954034561 -12.929289814600567 -1 0 0 I I #
straight-curve $-1 -78.746299630726043 0 -12.929289814600567 0 1 0 I I #
loop $-1 $-1 $734 $701 #
plane-surface $-1 -78.746299630726043 0 0 1 0 0 0 0 -1 forward_v I I I I #
straight-curve $-1 -61.899435396884165 -51.628608954034561 4.9139153490291276 0 0 -1 I I #
coedge $-1 $746 $755 $706 $735 forward $731 $-1 #
edge $-1 $739 -51.628608954034561 $736 51.628608954034561 $734 $756 forward 7 unknown #
vertex $-1 $747 $757 #
straight-curve $-1 -35.161433756902554 51.628608954034561 6.7263715815159433 1 0 0 I I #
coedge $-1 $743 $708 $755 $758 forward $663 $-1 #
vertex $-1 $758 $759 #
straight-curve $-1 -35.161433756902554 -51.628608954034561 6.7263715815159433 -1 0 0 I I #
point $-1 -61.899435396884165 51.628608954034561 6.7263715815159433 #
point $-1 -61.899435396884165 -51.628608954034561 6.7263715815159433 #
coedge $-1 $713 $738 $752 $760 reversed $663 $-1 #
vertex $-1 $715 $761 #
straight-curve $-1 78.746299630726043 -51.628608954034561 0 0 0 -1 I I #
coedge $-1 $762 $734 $717 $747 forward $731 $-1 #
edge $-1 $736 -6.7263715815159433 $749 12.929289814600567 $717 $763 forward 7 unknown #
coedge $-1 $718 $752 $762 $764 forward $702 $-1 #
vertex $-1 $719 $765 #
straight-curve $-1 0 51.628608954034561 -12.929289814600567 1 0 0 I I #
point $-1 78.746299630726043 51.628608954034561 -12.929289814600567 #
coedge $-1 $748 $724 $743 $760 forward $702 $-1 #
straight-curve $-1 78.746299630726043 0 -12.929289814600567 0 -1 0 I I #
point $-1 -78.746299630726043 -51.628608954034561 -12.929289814600567 #
coedge $-1 $734 $762 $738 $758 reversed $731 $-1 #
straight-curve $-1 -78.746299630726043 0 6.7263715815159433 0 1 0 I I #
point $-1 -78.746299630726043 51.628608954034561 6.7263715815159433 #
edge $-1 $739 -6.7263715815159433 $766 12.929289814600567 $755 $767 forward 7 unknown #
point $-1 -78.746299630726043 -51.628608954034561 6.7263715815159433 #
edge $-1 $744 -78.746299630726043 $766 78.746299630726043 $743 $768 forward 7 unknown #
point $-1 78.746299630726043 -51.628608954034561 -12.929289814600567 #
coedge $-1 $755 $746 $748 $764 reversed $731 $-1 #
straight-curve $-1 -78.746299630726043 51.628608954034561 0 0 0 -1 I I #
edge $-1 $766 -51.628608954034561 $749 51.628608954034561 $762 $769 forward 7 unknown #
point $-1 -78.746299630726043 51.628608954034561 -12.929289814600567 #
vertex $-1 $764 $770 #
straight-curve $-1 -78.746299630726043 -51.628608954034561 0 0 0 -1 I I #
straight-curve $-1 0 -51.628608954034561 -12.929289814600567 -1 0 0 I I #
straight-curve $-1 -78.746299630726043 0 -12.929289814600567 0 1 0 I I #
point $-1 -78.746299630726043 -51.628608954034561 -12.929289814600567 #
End-of-ACIS-data 