500 0 15 0           
7 Unknown 11 ACIS 5.0 NT 24 Thu Mar 25 21:26:28 1999 
-1 9.9999999999999995e-007 1e-010 
body $-1 $15 $-1 $16 #
body $-1 $17 $-1 $18 #
body $-1 $19 $-1 $20 #
body $-1 $21 $-1 $22 #
body $-1 $23 $-1 $24 #
body $-1 $25 $-1 $26 #
body $-1 $27 $-1 $28 #
body $-1 $29 $-1 $30 #
body $-1 $31 $-1 $32 #
body $-1 $33 $-1 $34 #
body $-1 $35 $-1 $36 #
body $-1 $37 $-1 $38 #
body $-1 $39 $-1 $40 #
body $-1 $41 $-1 $42 #
body $-1 $43 $-1 $44 #
lump $-1 $-1 $45 $0 #
transform $-1 1 0 0 0 1 0 0 0 1 42.015442365794854 22.166617536246999 8.7425107091336063 1 rotate no_reflect no_shear #
lump $-1 $-1 $46 $1 #
transform $-1 1 0 0 0 1 0 0 0 1 42.015442365794854 22.166617536246999 8.7425107091336063 1 rotate no_reflect no_shear #
lump $-1 $-1 $47 $2 #
transform $-1 1 0 0 0 1 0 0 0 1 42.015442365794854 22.166617536246999 8.7425107091336063 1 rotate no_reflect no_shear #
lump $-1 $-1 $48 $3 #
transform $-1 1 0 0 0 1 0 0 0 1 42.015442365794854 22.166617536246999 8.7425107091336063 1 rotate no_reflect no_shear #
lump $-1 $-1 $49 $4 #
transform $-1 1 0 0 0 1 0 0 0 1 42.015442365794854 22.166617536246999 8.7425107091336063 1 rotate no_reflect no_shear #
lump $-1 $-1 $50 $5 #
transform $-1 1 0 0 0 1 0 0 0 1 42.015442365794854 22.166617536246999 8.7425107091336063 1 rotate no_reflect no_shear #
lump $-1 $-1 $51 $6 #
transform $-1 1 0 0 0 1 0 0 0 1 42.015442365794854 22.166617536246999 8.7425107091336063 1 rotate no_reflect no_shear #
lump $-1 $-1 $52 $7 #
transform $-1 1 0 0 0 1 0 0 0 1 42.015442365794854 22.166617536246999 8.7425107091336063 1 rotate no_reflect no_shear #
lump $-1 $-1 $53 $8 #
transform $-1 1 0 0 0 1 0 0 0 1 42.015442365794854 22.166617536246999 8.7425107091336063 1 rotate no_reflect no_shear #
lump $-1 $-1 $54 $9 #
transform $-1 1 0 0 0 1 0 0 0 1 42.015442365794854 22.166617536246999 8.7425107091336063 1 rotate no_reflect no_shear #
lump $-1 $-1 $55 $10 #
transform $-1 1 0 0 0 1 0 0 0 1 42.015442365794854 22.166617536246999 8.7425107091336063 1 rotate no_reflect no_shear #
lump $-1 $-1 $56 $11 #
transform $-1 1 0 0 0 1 0 0 0 1 42.015442365794854 22.166617536246999 8.7425107091336063 1 rotate no_reflect no_shear #
lump $-1 $-1 $57 $12 #
transform $-1 1 0 0 0 1 0 0 0 1 42.015442365794854 22.166617536246999 8.7425107091336063 1 rotate no_reflect no_shear #
lump $-1 $-1 $58 $13 #
transform $-1 1 0 0 0 1 0 0 0 1 42.015442365794854 22.166617536246999 8.7425107091336063 1 rotate no_reflect no_shear #
lump $-1 $-1 $59 $14 #
transform $-1 1 0 0 0 1 0 0 0 1 42.015442365794854 22.166617536246999 8.7425107091336063 1 rotate no_reflect no_shear #
shell $-1 $-1 $-1 $60 $-1 $15 #
shell $-1 $-1 $-1 $61 $-1 $17 #
shell $-1 $-1 $-1 $62 $-1 $19 #
shell $-1 $-1 $-1 $63 $-1 $21 #
shell $-1 $-1 $-1 $64 $-1 $23 #
shell $-1 $-1 $-1 $65 $-1 $25 #
shell $-1 $-1 $-1 $66 $-1 $27 #
shell $-1 $-1 $-1 $67 $-1 $29 #
shell $-1 $-1 $-1 $68 $-1 $31 #
shell $-1 $-1 $-1 $69 $-1 $33 #
shell $-1 $-1 $-1 $70 $-1 $35 #
shell $-1 $-1 $-1 $71 $-1 $37 #
shell $-1 $-1 $-1 $72 $-1 $39 #
shell $-1 $-1 $-1 $73 $-1 $41 #
shell $-1 $-1 $-1 $74 $-1 $43 #
face $-1 $75 $76 $45 $-1 $77 forward single #
face $-1 $78 $79 $46 $-1 $80 forward single #
face $-1 $81 $82 $47 $-1 $83 forward single #
face $-1 $84 $85 $48 $-1 $86 reversed single #
face $-1 $87 $88 $49 $-1 $89 forward single #
face $-1 $90 $91 $50 $-1 $92 forward single #
face $-1 $93 $94 $51 $-1 $95 reversed single #
face $-1 $96 $97 $52 $-1 $98 forward single #
face $-1 $99 $100 $53 $-1 $101 forward single #
face $-1 $102 $103 $54 $-1 $104 reversed single #
face $-1 $105 $106 $55 $-1 $107 forward single #
face $-1 $108 $109 $56 $-1 $110 forward single #
face $-1 $111 $112 $57 $-1 $113 reversed single #
face $-1 $114 $115 $58 $-1 $116 forward single #
face $-1 $117 $118 $59 $-1 $119 forward single #
face $-1 $120 $121 $45 $-1 $122 reversed single #
loop $-1 $-1 $123 $60 #
plane-surface $-1 0 0 8.7425107091336063 0 0 1 1 0 0 forward_v I I I I #
face $-1 $124 $125 $46 $-1 $126 reversed single #
loop $-1 $-1 $127 $61 #
plane-surface $-1 0 -22.166617536246999 0 0 1 0 0 0 1 forward_v I I I I #
face $-1 $128 $129 $47 $-1 $130 reversed single #
loop $-1 $-1 $131 $62 #
plane-surface $-1 0 22.166617536246999 0 0 -1 0 0 0 -1 forward_v I I I I #
face $-1 $132 $133 $48 $-1 $134 reversed single #
loop $-1 $-1 $135 $63 #
plane-surface $-1 27.532781184643852 3.5527136788005009e-015 122.16279531236218 0 -1 0 -0.61566148304635926 0 -0.78801074757464917 forward_v I I I I #
face $-1 $136 $137 $49 $-1 $138 forward single #
loop $-1 $139 $140 $64 #
cone-surface $-1 38.807561652941445 -4.2247407577441898 6.0827379308368998 -0.61566148304635926 0 -0.78801074757464917 0.39400537378732459 0 -0.30783074152317963 1 I I 0 1 0.5 forward I I I I #
face $-1 $141 $142 $50 $-1 $143 forward single #
loop $-1 $144 $145 $65 #
cone-surface $-1 38.807561652941445 -1.6898963030976759 6.0827379308368998 -0.61566148304635926 0 -0.78801074757464917 0.39400537378732459 0 -0.30783074152317963 1 I I 0 1 0.5 forward I I I I #
face $-1 $146 $147 $51 $-1 $148 reversed single #
loop $-1 $-1 $149 $66 #
plane-surface $-1 27.532781184643852 11.624249405239858 122.16279531236218 0 -1 0 -0.61566148304635926 0 -0.78801074757464917 forward_v I I I I #
face $-1 $150 $151 $52 $-1 $152 forward single #
loop $-1 $153 $154 $67 #
cone-surface $-1 38.807561652941445 7.3995086474956651 6.0827379308368998 -0.61566148304635926 0 -0.78801074757464917 0.39400537378732459 0 -0.30783074152317963 1 I I 0 1 0.5 forward I I I I #
face $-1 $155 $156 $53 $-1 $157 forward single #
loop $-1 $158 $159 $68 #
cone-surface $-1 38.807561652941445 9.9343531021421789 6.0827379308368998 -0.61566148304635926 0 -0.78801074757464917 0.39400537378732459 0 -0.30783074152317963 1 I I 0 1 0.5 forward I I I I #
face $-1 $160 $161 $54 $-1 $162 reversed single #
loop $-1 $-1 $163 $69 #
plane-surface $-1 -93.75002148134304 -5.9146370608418657 70.428216196813992 0 1 0 -0.61566148304635926 0 0.78801074757464917 forward_v I I I I #
face $-1 $164 $165 $55 $-1 $166 forward single #
loop $-1 $167 $168 $70 #
cone-surface $-1 -38.807561652941445 -4.2247407577441898 6.0827379308368892 0.61566148304635926 0 -0.78801074757464917 0.39400537378732459 0 0.30783074152317963 1 I I 0 1 0.5 forward I I I I #
face $-1 $169 $170 $56 $-1 $171 forward single #
loop $-1 $172 $173 $71 #
cone-surface $-1 -38.807561652941445 -1.6898963030976759 6.0827379308368892 0.61566148304635926 0 -0.78801074757464917 0.39400537378732459 0 0.30783074152317963 1 I I 0 1 0.5 forward I I I I #
face $-1 $174 $175 $57 $-1 $176 reversed single #
loop $-1 $-1 $177 $72 #
plane-surface $-1 -93.75002148134304 5.7096123443979891 70.428216196813992 0 1 0 -0.61566148304635926 0 0.78801074757464917 forward_v I I I I #
face $-1 $178 $179 $58 $-1 $180 forward single #
loop $-1 $181 $182 $73 #
cone-surface $-1 -38.807561652941445 7.3995086474956651 6.0827379308368892 0.61566148304635926 0 -0.78801074757464917 0.39400537378732459 0 0.30783074152317963 1 I I 0 1 0.5 forward I I I I #
face $-1 $183 $184 $59 $-1 $185 forward single #
loop $-1 $186 $187 $74 #
cone-surface $-1 -38.807561652941445 9.9343531021421789 6.0827379308368892 0.61566148304635926 0 -0.78801074757464917 0.39400537378732459 0 0.30783074152317963 1 I I 0 1 0.5 forward I I I I #
face $-1 $188 $189 $45 $-1 $190 reversed single #
loop $-1 $-1 $191 $75 #
plane-surface $-1 0 0 -8.7425107091336063 0 0 1 1 0 0 forward_v I I I I #
coedge $-1 $192 $193 $194 $195 forward $76 $-1 #
face $-1 $196 $197 $46 $-1 $198 reversed single #
loop $-1 $-1 $199 $78 #
plane-surface $-1 0 0 -8.7425107091336063 0 0 1 1 0 0 forward_v I I I I #
coedge $-1 $200 $201 $202 $203 forward $79 $-1 #
face $-1 $204 $205 $47 $-1 $206 forward single #
loop $-1 $-1 $207 $81 #
plane-surface $-1 -42.015442365794854 0 0 1 0 0 0 0 -1 forward_v I I I I #
coedge $-1 $208 $209 $210 $211 forward $82 $-1 #
face $-1 $212 $213 $48 $-1 $214 reversed single #
loop $-1 $-1 $215 $84 #
plane-surface $-1 -24.201797930904334 -2.9573185304209311 55.945555015663004 0.61566148304635926 0 0.78801074757464917 0.78801074757464917 0 -0.61566148304635926 forward_v I I I I #
coedge $-1 $216 $217 $218 $219 reversed $85 $-1 #
face $-1 $-1 $220 $49 $-1 $221 forward single #
loop $-1 $222 $223 $87 #
cone-surface $-1 38.345815540656673 -4.2247407577441898 5.491729870155913 -0.61566148304635926 0 -0.78801074757464917 0.19700268689366229 0 -0.15391537076158981 1 I I -0.70710678118654746 0.70710678118654746 0.25 forward I I I I #
loop $-1 $-1 $224 $64 #
coedge $-1 $140 $140 $225 $226 reversed $88 $-1 #
face $-1 $-1 $227 $50 $-1 $228 forward single #
loop $-1 $229 $230 $90 #
cone-surface $-1 38.345815540656673 -1.6898963030976759 5.491729870155913 -0.61566148304635926 0 -0.78801074757464917 0.19700268689366229 0 -0.15391537076158981 1 I I -0.70710678118654746 0.70710678118654746 0.25 forward I I I I #
loop $-1 $-1 $231 $65 #
coedge $-1 $145 $145 $232 $233 reversed $91 $-1 #
face $-1 $234 $235 $51 $-1 $236 reversed single #
loop $-1 $-1 $237 $93 #
plane-surface $-1 -24.201797930904334 8.6669308748189238 55.945555015663004 0.61566148304635926 0 0.78801074757464917 0.78801074757464917 0 -0.61566148304635926 forward_v I I I I #
coedge $-1 $238 $239 $240 $241 reversed $94 $-1 #
face $-1 $-1 $242 $52 $-1 $243 forward single #
loop $-1 $244 $245 $96 #
cone-surface $-1 38.345815540656673 7.3995086474956651 5.491729870155913 -0.61566148304635926 0 -0.78801074757464917 0.19700268689366229 0 -0.15391537076158981 1 I I -0.70710678118654746 0.70710678118654746 0.25 forward I I I I #
loop $-1 $-1 $246 $67 #
coedge $-1 $154 $154 $247 $248 reversed $97 $-1 #
face $-1 $-1 $249 $53 $-1 $250 forward single #
loop $-1 $251 $252 $99 #
cone-surface $-1 38.345815540656673 9.9343531021421789 5.491729870155913 -0.61566148304635926 0 -0.78801074757464917 0.19700268689366229 0 -0.15391537076158981 1 I I -0.70710678118654746 0.70710678118654746 0.25 forward I I I I #
loop $-1 $-1 $253 $68 #
coedge $-1 $159 $159 $254 $255 reversed $100 $-1 #
face $-1 $256 $257 $54 $-1 $258 reversed single #
loop $-1 $-1 $259 $102 #
plane-surface $-1 -42.015442365794854 -2.9573185304209311 4.2109759001148177 -0.61566148304635926 0 0.78801074757464917 0.78801074757464917 0 0.61566148304635926 forward_v I I I I #
coedge $-1 $260 $261 $262 $263 reversed $103 $-1 #
face $-1 $-1 $264 $55 $-1 $265 forward single #
loop $-1 $266 $267 $105 #
cone-surface $-1 -38.345815540656673 -4.2247407577441898 5.4917298701559023 0.61566148304635926 0 -0.78801074757464917 0.19700268689366229 0 0.15391537076158981 1 I I -0.70710678118654746 0.70710678118654746 0.25 forward I I I I #
loop $-1 $-1 $268 $70 #
coedge $-1 $168 $168 $269 $270 reversed $106 $-1 #
face $-1 $-1 $271 $56 $-1 $272 forward single #
loop $-1 $273 $274 $108 #
cone-surface $-1 -38.345815540656673 -1.6898963030976759 5.4917298701559023 0.61566148304635926 0 -0.78801074757464917 0.19700268689366229 0 0.15391537076158981 1 I I -0.70710678118654746 0.70710678118654746 0.25 forward I I I I #
loop $-1 $-1 $275 $71 #
coedge $-1 $173 $173 $276 $277 reversed $109 $-1 #
face $-1 $278 $279 $57 $-1 $280 reversed single #
loop $-1 $-1 $281 $111 #
plane-surface $-1 -42.015442365794854 8.6669308748189238 4.2109759001148177 -0.61566148304635926 0 0.78801074757464917 0.78801074757464917 0 0.61566148304635926 forward_v I I I I #
coedge $-1 $282 $283 $284 $285 reversed $112 $-1 #
face $-1 $-1 $286 $58 $-1 $287 forward single #
loop $-1 $288 $289 $114 #
cone-surface $-1 -38.345815540656673 7.3995086474956651 5.4917298701559023 0.61566148304635926 0 -0.78801074757464917 0.19700268689366229 0 0.15391537076158981 1 I I -0.70710678118654746 0.70710678118654746 0.25 forward I I I I #
loop $-1 $-1 $290 $73 #
coedge $-1 $182 $182 $291 $292 reversed $115 $-1 #
face $-1 $-1 $293 $59 $-1 $294 forward single #
loop $-1 $295 $296 $117 #
cone-surface $-1 -38.345815540656673 9.9343531021421789 5.4917298701559023 0.61566148304635926 0 -0.78801074757464917 0.19700268689366229 0 0.15391537076158981 1 I I -0.70710678118654746 0.70710678118654746 0.25 forward I I I I #
loop $-1 $-1 $297 $74 #
coedge $-1 $187 $187 $298 $299 reversed $118 $-1 #
face $-1 $300 $301 $45 $-1 $302 reversed single #
loop $-1 $-1 $303 $120 #
plane-surface $-1 0 -22.166617536246999 0 0 1 0 0 0 1 forward_v I I I I #
coedge $-1 $304 $305 $306 $307 forward $121 $-1 #
coedge $-1 $308 $123 $309 $310 forward $76 $-1 #
coedge $-1 $123 $308 $311 $312 forward $76 $-1 #
coedge $-1 $313 $314 $123 $195 reversed $315 $-1 #
edge $-1 $316 -22.166617536246999 $317 22.166617536246999 $194 $318 forward 7 unknown #
face $-1 $319 $320 $46 $-1 $321 forward single #
loop $-1 $-1 $322 $124 #
plane-surface $-1 42.015442365794854 0 0 -1 0 0 0 0 1 forward_v I I I I #
coedge $-1 $323 $324 $325 $326 forward $125 $-1 #
coedge $-1 $325 $127 $322 $327 reversed $79 $-1 #
coedge $-1 $127 $325 $328 $329 reversed $79 $-1 #
coedge $-1 $330 $331 $127 $203 reversed $320 $-1 #
edge $-1 $332 -42.015442365794854 $333 42.015442365794854 $202 $334 forward 7 unknown #
face $-1 $335 $336 $47 $-1 $337 reversed single #
loop $-1 $-1 $338 $128 #
plane-surface $-1 0 27.437801601750568 -5.7425107091336063 0 0 1 1 0 0 forward_v I I I I #
coedge $-1 $339 $340 $208 $341 forward $129 $-1 #
coedge $-1 $342 $131 $207 $341 reversed $82 $-1 #
coedge $-1 $131 $342 $343 $344 reversed $82 $-1 #
coedge $-1 $338 $345 $131 $211 reversed $205 $-1 #
edge $-1 $346 -42.015442365794854 $347 42.015442365794854 $210 $348 forward 7 unknown #
face $-1 $349 $350 $48 $-1 $351 forward single #
loop $-1 $-1 $352 $132 #
plane-surface $-1 27.532781184643852 -5.9146370608418657 122.16279531236218 0 1 0 0.61566148304635926 0 0.78801074757464917 forward_v I I I I #
coedge $-1 $353 $354 $355 $356 reversed $133 $-1 #
coedge $-1 $217 $135 $357 $358 reversed $85 $-1 #
coedge $-1 $135 $216 $353 $359 reversed $85 $-1 #
coedge $-1 $355 $360 $135 $219 forward $350 $-1 #
edge $-1 $361 -28.249051773472928 $362 -22.448951830812462 $218 $363 forward 7 unknown #
loop $-1 $-1 $225 $136 #
plane-surface $-1 -24.201797930904334 -2.9573185304209311 55.945555015663004 0.61566148304635926 0 0.78801074757464917 0.78801074757464917 0 -0.61566148304635926 forward_v I I I I #
loop $-1 $-1 $364 $87 #
coedge $-1 $223 $223 $224 $365 reversed $137 $-1 #
coedge $-1 $224 $224 $223 $365 forward $139 $-1 #
coedge $-1 $225 $225 $140 $226 forward $220 $-1 #
edge $-1 $366 0 $366 6.2831853071796004 $225 $367 forward 7 unknown #
loop $-1 $-1 $232 $141 #
plane-surface $-1 -24.201797930904334 -2.9573185304209311 55.945555015663004 0.61566148304635926 0 0.78801074757464917 0.78801074757464917 0 -0.61566148304635926 forward_v I I I I #
loop $-1 $-1 $368 $90 #
coedge $-1 $230 $230 $231 $369 reversed $142 $-1 #
coedge $-1 $231 $231 $230 $369 forward $144 $-1 #
coedge $-1 $232 $232 $145 $233 forward $227 $-1 #
edge $-1 $370 0 $370 6.2831853071796004 $232 $371 forward 7 unknown #
face $-1 $372 $373 $51 $-1 $374 reversed single #
loop $-1 $-1 $375 $146 #
plane-surface $-1 27.532781184643852 5.7096123443979891 122.16279531236218 0 1 0 0.61566148304635926 0 0.78801074757464917 forward_v I I I I #
coedge $-1 $376 $377 $378 $379 reversed $147 $-1 #
coedge $-1 $239 $149 $380 $381 reversed $94 $-1 #
coedge $-1 $149 $238 $376 $382 reversed $94 $-1 #
coedge $-1 $378 $383 $149 $241 forward $384 $-1 #
edge $-1 $385 -28.249051773472928 $386 -22.448951830812462 $240 $387 forward 7 unknown #
loop $-1 $-1 $247 $150 #
plane-surface $-1 -24.201797930904334 8.6669308748189238 55.945555015663004 0.61566148304635926 0 0.78801074757464917 0.78801074757464917 0 -0.61566148304635926 forward_v I I I I #
loop $-1 $-1 $388 $96 #
coedge $-1 $245 $245 $246 $389 reversed $151 $-1 #
coedge $-1 $246 $246 $245 $389 forward $153 $-1 #
coedge $-1 $247 $247 $154 $248 forward $242 $-1 #
edge $-1 $390 0 $390 6.2831853071796004 $247 $391 forward 7 unknown #
loop $-1 $-1 $254 $155 #
plane-surface $-1 -24.201797930904334 8.6669308748189238 55.945555015663004 0.61566148304635926 0 0.78801074757464917 0.78801074757464917 0 -0.61566148304635926 forward_v I I I I #
loop $-1 $-1 $392 $99 #
coedge $-1 $252 $252 $253 $393 reversed $156 $-1 #
coedge $-1 $253 $253 $252 $393 forward $158 $-1 #
coedge $-1 $254 $254 $159 $255 forward $249 $-1 #
edge $-1 $394 0 $394 6.2831853071796004 $254 $395 forward 7 unknown #
face $-1 $396 $397 $54 $-1 $398 reversed single #
loop $-1 $-1 $399 $160 #
plane-surface $-1 -93.75002148134304 3.5527136788005009e-015 70.428216196813992 0 -1 0 0.61566148304635926 0 -0.78801074757464917 forward_v I I I I #
coedge $-1 $400 $401 $402 $403 reversed $161 $-1 #
coedge $-1 $261 $163 $404 $405 reversed $103 $-1 #
coedge $-1 $163 $260 $400 $406 reversed $103 $-1 #
coedge $-1 $402 $407 $163 $263 forward $408 $-1 #
edge $-1 $409 4.859568374876666 $410 10.659668317537125 $262 $411 forward 7 unknown #
loop $-1 $-1 $269 $164 #
plane-surface $-1 -42.015442365794854 -2.9573185304209311 4.2109759001148177 -0.61566148304635926 0 0.78801074757464917 0.78801074757464917 0 0.61566148304635926 forward_v I I I I #
loop $-1 $-1 $412 $105 #
coedge $-1 $267 $267 $268 $413 reversed $165 $-1 #
coedge $-1 $268 $268 $267 $413 forward $167 $-1 #
coedge $-1 $269 $269 $168 $270 forward $264 $-1 #
edge $-1 $414 0 $414 6.2831853071796004 $269 $415 forward 7 unknown #
loop $-1 $-1 $276 $169 #
plane-surface $-1 -42.015442365794854 -2.9573185304209311 4.2109759001148177 -0.61566148304635926 0 0.78801074757464917 0.78801074757464917 0 0.61566148304635926 forward_v I I I I #
loop $-1 $-1 $416 $108 #
coedge $-1 $274 $274 $275 $417 reversed $170 $-1 #
coedge $-1 $275 $275 $274 $417 forward $172 $-1 #
coedge $-1 $276 $276 $173 $277 forward $271 $-1 #
edge $-1 $418 0 $418 6.2831853071796004 $276 $419 forward 7 unknown #
face $-1 $420 $421 $57 $-1 $422 forward single #
loop $-1 $-1 $423 $174 #
plane-surface $-1 -93.75002148134304 11.624249405239858 70.428216196813992 0 -1 0 0.61566148304635926 0 -0.78801074757464917 forward_v I I I I #
coedge $-1 $424 $425 $426 $427 reversed $175 $-1 #
coedge $-1 $283 $177 $428 $429 reversed $112 $-1 #
coedge $-1 $177 $282 $424 $430 reversed $112 $-1 #
coedge $-1 $426 $431 $177 $285 forward $421 $-1 #
edge $-1 $432 4.859568374876666 $433 10.659668317537125 $284 $434 forward 7 unknown #
loop $-1 $-1 $291 $178 #
plane-surface $-1 -42.015442365794854 8.6669308748189238 4.2109759001148177 -0.61566148304635926 0 0.78801074757464917 0.78801074757464917 0 0.61566148304635926 forward_v I I I I #
loop $-1 $-1 $435 $114 #
coedge $-1 $289 $289 $290 $436 reversed $179 $-1 #
coedge $-1 $290 $290 $289 $436 forward $181 $-1 #
coedge $-1 $291 $291 $182 $292 forward $286 $-1 #
edge $-1 $437 0 $437 6.2831853071796004 $291 $438 forward 7 unknown #
loop $-1 $-1 $298 $183 #
plane-surface $-1 -42.015442365794854 8.6669308748189238 4.2109759001148177 -0.61566148304635926 0 0.78801074757464917 0.78801074757464917 0 0.61566148304635926 forward_v I I I I #
loop $-1 $-1 $439 $117 #
coedge $-1 $296 $296 $297 $440 reversed $184 $-1 #
coedge $-1 $297 $297 $296 $440 forward $186 $-1 #
coedge $-1 $298 $298 $187 $299 forward $293 $-1 #
edge $-1 $441 0 $441 6.2831853071796004 $298 $442 forward 7 unknown #
face $-1 $443 $444 $45 $-1 $445 reversed single #
loop $-1 $-1 $446 $188 #
plane-surface $-1 -42.015442365794854 0 0 1 0 0 0 0 -1 forward_v I I I I #
coedge $-1 $311 $447 $313 $448 reversed $189 $-1 #
coedge $-1 $449 $191 $447 $450 forward $121 $-1 #
coedge $-1 $191 $449 $451 $452 forward $121 $-1 #
coedge $-1 $314 $313 $191 $307 reversed $315 $-1 #
edge $-1 $453 -22.166617536246999 $454 22.166617536246999 $306 $455 forward 7 unknown #
coedge $-1 $193 $192 $456 $457 forward $76 $-1 #
coedge $-1 $458 $459 $192 $310 reversed $444 $-1 #
edge $-1 $317 -42.015442365794854 $460 42.015442365794854 $309 $461 forward 7 unknown #
coedge $-1 $462 $303 $193 $312 reversed $189 $-1 #
edge $-1 $463 -42.015442365794854 $316 42.015442365794854 $311 $464 forward 7 unknown #
coedge $-1 $306 $194 $303 $448 forward $315 $-1 #
coedge $-1 $194 $306 $458 $465 reversed $315 $-1 #
loop $-1 $-1 $313 $443 #
vertex $-1 $195 $466 #
vertex $-1 $195 $467 #
straight-curve $-1 42.015442365794854 0 8.7425107091336063 0 1 0 I I #
face $-1 $468 $469 $46 $-1 $470 reversed single #
loop $-1 $-1 $331 $196 #
plane-surface $-1 0 -27.437801601750571 -5.7425107091336063 0 0 1 1 0 0 forward_v I I I I #
coedge $-1 $471 $472 $200 $327 forward $197 $-1 #
coedge $-1 $473 $199 $472 $474 forward $125 $-1 #
coedge $-1 $199 $473 $475 $476 forward $125 $-1 #
coedge $-1 $201 $200 $199 $326 reversed $79 $-1 #
edge $-1 $477 -42.015442365794854 $478 42.015442365794854 $199 $479 forward 7 unknown #
edge $-1 $478 -8.7425107091336063 $333 -5.7425107091336063 $322 $480 forward 7 unknown #
coedge $-1 $475 $481 $201 $329 forward $482 $-1 #
edge $-1 $332 5.7425107091336063 $477 8.7425107091336063 $328 $483 forward 7 unknown #
coedge $-1 $484 $202 $481 $485 forward $320 $-1 #
coedge $-1 $202 $484 $471 $486 forward $320 $-1 #
vertex $-1 $329 $487 #
vertex $-1 $486 $488 #
straight-curve $-1 0 -22.166617536246999 -5.7425107091336063 1 0 0 I I #
face $-1 $489 $490 $47 $-1 $491 reversed single #
loop $-1 $-1 $492 $204 #
plane-surface $-1 0 32.70898566725414 -7.2425107091336063 0 -1 0 0 0 -1 forward_v I I I I #
coedge $-1 $493 $210 $494 $495 forward $205 $-1 #
coedge $-1 $496 $207 $345 $497 reversed $129 $-1 #
coedge $-1 $207 $496 $498 $499 reversed $129 $-1 #
edge $-1 $500 -8.7425107091336063 $347 -5.7425107091336063 $207 $501 forward 7 unknown #
coedge $-1 $209 $208 $502 $503 reversed $82 $-1 #
coedge $-1 $504 $494 $209 $344 forward $505 $-1 #
edge $-1 $346 5.7425107091336063 $506 8.7425107091336063 $343 $507 forward 7 unknown #
coedge $-1 $210 $493 $339 $497 forward $205 $-1 #
vertex $-1 $344 $508 #
vertex $-1 $497 $509 #
straight-curve $-1 0 22.166617536246999 -5.7425107091336063 -1 0 0 I I #
face $-1 $-1 $510 $48 $-1 $511 reversed single #
loop $-1 $-1 $218 $212 #
plane-surface $-1 0 0 8.7425107091336063 0 0 1 1 0 0 forward_v I I I I #
coedge $-1 $512 $513 $514 $515 reversed $213 $-1 #
coedge $-1 $516 $215 $217 $359 forward $133 $-1 #
coedge $-1 $215 $516 $512 $517 forward $133 $-1 #
coedge $-1 $514 $218 $215 $356 forward $350 $-1 #
edge $-1 $362 -1.4786592652104691 $518 4.4359777956314002 $355 $519 forward 7 unknown #
coedge $-1 $520 $521 $216 $358 forward $510 $-1 #
edge $-1 $522 -56.870421756066278 $361 -52.338886947047484 $357 $523 forward 7 unknown #
edge $-1 $362 76.670452198769453 $522 84.030884731589708 $217 $524 forward 7 unknown #
coedge $-1 $218 $514 $520 $525 forward $350 $-1 #
vertex $-1 $358 $526 #
vertex $-1 $219 $527 #
straight-curve $-1 13.766390592321926 3.5527136788005009e-015 8.7425107091336045 -1 0 0 I I #
coedge $-1 $364 $364 $-1 $528 reversed $222 $-1 #
edge $-1 $529 0 $529 6.2831853071796004 $223 $530 forward 7 unknown #
vertex $-1 $226 $531 #
ellipse-curve $-1 39.115392394464614 -4.2247407577441898 6.4767433046242129 0.61566148304635926 0 0.78801074757464917 0.39400537378732459 0 -0.30783074152317963 1 I I #
coedge $-1 $368 $368 $-1 $532 reversed $229 $-1 #
edge $-1 $533 0 $533 6.2831853071796004 $230 $534 forward 7 unknown #
vertex $-1 $233 $535 #
ellipse-curve $-1 39.115392394464614 -1.6898963030976759 6.4767433046242129 0.61566148304635926 0 0.78801074757464917 0.39400537378732459 0 -0.30783074152317963 1 I I #
face $-1 $-1 $384 $51 $-1 $536 forward single #
loop $-1 $-1 $537 $234 #
plane-surface $-1 42.015442365794854 0 0 -1 0 0 0 0 1 forward_v I I I I #
coedge $-1 $538 $539 $540 $541 reversed $235 $-1 #
coedge $-1 $542 $237 $239 $382 forward $147 $-1 #
coedge $-1 $237 $542 $538 $543 forward $147 $-1 #
coedge $-1 $540 $240 $237 $379 forward $384 $-1 #
edge $-1 $386 -7.2907839678303965 $544 -1.3761469069885273 $378 $545 forward 7 unknown #
coedge $-1 $546 $547 $238 $381 forward $373 $-1 #
edge $-1 $548 -56.870421756066278 $385 -52.338886947047484 $380 $549 forward 7 unknown #
edge $-1 $386 76.670452198769453 $548 84.030884731589708 $239 $550 forward 7 unknown #
coedge $-1 $240 $540 $546 $551 forward $384 $-1 #
loop $-1 $-1 $540 $372 #
vertex $-1 $381 $552 #
vertex $-1 $241 $553 #
straight-curve $-1 13.766390592321926 11.624249405239858 8.7425107091336045 -1 0 0 I I #
coedge $-1 $388 $388 $-1 $554 reversed $244 $-1 #
edge $-1 $555 0 $555 6.2831853071796004 $245 $556 forward 7 unknown #
vertex $-1 $248 $557 #
ellipse-curve $-1 39.115392394464614 7.3995086474956651 6.4767433046242129 0.61566148304635926 0 0.78801074757464917 0.39400537378732459 0 -0.30783074152317963 1 I I #
coedge $-1 $392 $392 $-1 $558 reversed $251 $-1 #
edge $-1 $559 0 $559 6.2831853071796004 $252 $560 forward 7 unknown #
vertex $-1 $255 $561 #
ellipse-curve $-1 39.115392394464614 9.9343531021421789 6.4767433046242129 0.61566148304635926 0 0.78801074757464917 0.39400537378732459 0 -0.30783074152317963 1 I I #
face $-1 $-1 $408 $54 $-1 $562 forward single #
loop $-1 $-1 $563 $256 #
plane-surface $-1 -42.015442365794854 0 0 1 0 0 0 0 -1 forward_v I I I I #
coedge $-1 $564 $565 $566 $567 reversed $257 $-1 #
coedge $-1 $568 $259 $261 $406 forward $161 $-1 #
coedge $-1 $259 $568 $564 $569 forward $161 $-1 #
coedge $-1 $566 $262 $259 $403 forward $408 $-1 #
edge $-1 $410 -4.4359777956314002 $570 1.4786592652104691 $402 $571 forward 7 unknown #
coedge $-1 $572 $573 $260 $405 forward $397 $-1 #
edge $-1 $574 -31.003132198292178 $409 -26.471597389273391 $404 $575 forward 7 unknown #
edge $-1 $410 -7.3604325328202567 $574 0 $261 $576 forward 7 unknown #
coedge $-1 $262 $566 $572 $577 forward $408 $-1 #
loop $-1 $-1 $566 $396 #
vertex $-1 $405 $578 #
vertex $-1 $263 $579 #
straight-curve $-1 -46.87501074067152 -5.9146370608418657 8.7425107091336045 1 0 0 I I #
coedge $-1 $412 $412 $-1 $580 reversed $266 $-1 #
edge $-1 $581 0 $581 6.2831853071796004 $267 $582 forward 7 unknown #
vertex $-1 $270 $583 #
ellipse-curve $-1 -39.115392394464621 -4.2247407577441898 6.4767433046242129 -0.61566148304635926 0 0.78801074757464917 0.39400537378732459 0 0.30783074152317963 1 I I #
coedge $-1 $416 $416 $-1 $584 reversed $273 $-1 #
edge $-1 $585 0 $585 6.2831853071796004 $274 $586 forward 7 unknown #
vertex $-1 $277 $587 #
ellipse-curve $-1 -39.115392394464621 -1.6898963030976759 6.4767433046242129 -0.61566148304635926 0 0.78801074757464917 0.39400537378732459 0 0.30783074152317963 1 I I #
face $-1 $-1 $588 $57 $-1 $589 reversed single #
loop $-1 $-1 $284 $278 #
plane-surface $-1 0 0 8.7425107091336063 0 0 1 1 0 0 forward_v I I I I #
coedge $-1 $590 $591 $592 $593 reversed $279 $-1 #
coedge $-1 $594 $281 $283 $430 forward $175 $-1 #
coedge $-1 $281 $594 $590 $595 forward $175 $-1 #
coedge $-1 $592 $284 $281 $427 forward $421 $-1 #
edge $-1 $433 1.3761469069885273 $596 7.2907839678303965 $426 $597 forward 7 unknown #
coedge $-1 $598 $599 $282 $429 forward $588 $-1 #
edge $-1 $600 -31.003132198292178 $432 -26.471597389273391 $428 $601 forward 7 unknown #
edge $-1 $433 -7.3604325328202567 $600 0 $283 $602 forward 7 unknown #
coedge $-1 $284 $592 $598 $603 forward $421 $-1 #
vertex $-1 $285 $604 #
vertex $-1 $285 $605 #
straight-curve $-1 -46.87501074067152 5.7096123443979891 8.7425107091336045 1 0 0 I I #
coedge $-1 $435 $435 $-1 $606 reversed $288 $-1 #
edge $-1 $607 0 $607 6.2831853071796004 $289 $608 forward 7 unknown #
vertex $-1 $292 $609 #
ellipse-curve $-1 -39.115392394464621 7.3995086474956651 6.4767433046242129 -0.61566148304635926 0 0.78801074757464917 0.39400537378732459 0 0.30783074152317963 1 I I #
coedge $-1 $439 $439 $-1 $610 reversed $295 $-1 #
edge $-1 $611 0 $611 6.2831853071796004 $296 $612 forward 7 unknown #
vertex $-1 $299 $613 #
ellipse-curve $-1 -39.115392394464621 9.9343531021421789 6.4767433046242129 -0.61566148304635926 0 0.78801074757464917 0.39400537378732459 0 0.30783074152317963 1 I I #
face $-1 $-1 $315 $45 $-1 $614 reversed single #
loop $-1 $-1 $459 $300 #
plane-surface $-1 0 22.166617536246999 0 0 -1 0 0 0 -1 forward_v I I I I #
coedge $-1 $615 $456 $459 $616 forward $301 $-1 #
coedge $-1 $303 $462 $304 $450 reversed $189 $-1 #
edge $-1 $316 -8.7425107091336063 $454 8.7425107091336063 $313 $617 forward 7 unknown #
coedge $-1 $305 $304 $615 $618 forward $121 $-1 #
edge $-1 $454 -42.015442365794854 $619 42.015442365794854 $447 $620 forward 7 unknown #
coedge $-1 $459 $458 $305 $452 reversed $444 $-1 #
edge $-1 $621 -42.015442365794854 $453 42.015442365794854 $451 $622 forward 7 unknown #
vertex $-1 $307 $623 #
vertex $-1 $448 $624 #
straight-curve $-1 42.015442365794854 0 -8.7425107091336063 0 -1 0 I I #
coedge $-1 $446 $625 $308 $457 reversed $301 $-1 #
edge $-1 $460 -22.166617536246999 $463 22.166617536246999 $456 $626 forward 7 unknown #
coedge $-1 $451 $309 $314 $465 forward $444 $-1 #
coedge $-1 $309 $451 $446 $616 reversed $444 $-1 #
vertex $-1 $310 $627 #
straight-curve $-1 0 22.166617536246999 8.7425107091336063 -1 0 0 I I #
coedge $-1 $447 $311 $625 $628 forward $189 $-1 #
vertex $-1 $457 $629 #
straight-curve $-1 0 -22.166617536246999 8.7425107091336063 1 0 0 I I #
edge $-1 $317 -8.7425107091336063 $453 8.7425107091336063 $314 $630 forward 7 unknown #
point $-1 42.015442365794854 -22.166617536246999 8.7425107091336063 #
point $-1 42.015442365794854 22.166617536246999 8.7425107091336063 #
face $-1 $-1 $482 $46 $-1 $631 reversed single #
loop $-1 $-1 $632 $319 #
plane-surface $-1 0 -32.70898566725414 -7.2425107091336063 0 1 0 0 0 1 forward_v I I I I #
coedge $-1 $633 $322 $331 $486 reversed $197 $-1 #
coedge $-1 $322 $633 $323 $474 reversed $197 $-1 #
coedge $-1 $324 $323 $634 $635 forward $125 $-1 #
edge $-1 $478 22.166617536246999 $636 32.70898566725414 $472 $637 forward 7 unknown #
coedge $-1 $638 $328 $324 $476 reversed $482 $-1 #
edge $-1 $639 -32.70898566725414 $477 -22.166617536246999 $475 $640 forward 7 unknown #
vertex $-1 $329 $641 #
vertex $-1 $474 $642 #
straight-curve $-1 0 -22.166617536246999 -8.7425107091336063 1 0 0 I I #
straight-curve $-1 42.015442365794854 -22.166617536246999 0 0 0 1 I I #
coedge $-1 $328 $638 $330 $485 reversed $482 $-1 #
loop $-1 $-1 $328 $468 #
straight-curve $-1 -42.015442365794854 -22.166617536246999 0 0 0 -1 I I #
coedge $-1 $331 $330 $643 $644 forward $320 $-1 #
edge $-1 $332 -5.2711840655035722 $645 5.2711840655035687 $481 $646 forward 7 unknown #
edge $-1 $647 -5.2711840655035687 $333 5.2711840655035722 $471 $648 forward 7 unknown #
point $-1 -42.015442365794854 -22.166617536246999 -5.7425107091336063 #
point $-1 42.015442365794854 -22.166617536246999 -5.7425107091336063 #
face $-1 $-1 $505 $47 $-1 $649 reversed single #
loop $-1 $-1 $502 $335 #
plane-surface $-1 0 0 -8.7425107091336063 0 0 1 1 0 0 forward_v I I I I #
coedge $-1 $650 $651 $652 $653 forward $336 $-1 #
coedge $-1 $345 $338 $651 $654 forward $205 $-1 #
coedge $-1 $343 $652 $338 $495 reversed $505 $-1 #
edge $-1 $346 -5.2711840655035722 $655 5.2711840655035722 $494 $656 forward 7 unknown #
coedge $-1 $340 $339 $657 $658 forward $129 $-1 #
edge $-1 $659 -5.2711840655035722 $347 5.2711840655035722 $339 $660 forward 7 unknown #
coedge $-1 $661 $502 $340 $499 forward $490 $-1 #
edge $-1 $500 -5.2711840655035687 $662 5.2711840655035722 $340 $663 forward 7 unknown #
vertex $-1 $499 $664 #
straight-curve $-1 -42.015442365794854 22.166617536246999 0 0 0 1 I I #
coedge $-1 $498 $665 $342 $503 forward $490 $-1 #
edge $-1 $506 -42.015442365794854 $500 42.015442365794854 $502 $666 forward 7 unknown #
coedge $-1 $652 $343 $665 $667 reversed $505 $-1 #
loop $-1 $-1 $343 $489 #
vertex $-1 $344 $668 #
straight-curve $-1 42.015442365794854 22.166617536246999 0 0 0 -1 I I #
point $-1 42.015442365794854 22.166617536246996 -5.7425107091336063 #
point $-1 -42.015442365794854 22.166617536246996 -5.7425107091336063 #
loop $-1 $-1 $357 $349 #
plane-surface $-1 42.015442365794854 0 0 -1 0 0 0 0 1 forward_v I I I I #
coedge $-1 $513 $352 $354 $517 reversed $213 $-1 #
coedge $-1 $352 $512 $669 $670 reversed $213 $-1 #
coedge $-1 $360 $355 $352 $515 forward $350 $-1 #
edge $-1 $518 22.448951830812462 $671 28.249051773472928 $514 $672 forward 7 unknown #
coedge $-1 $354 $353 $521 $673 reversed $133 $-1 #
edge $-1 $674 -84.030884731589708 $518 -76.670452198769453 $512 $675 forward 7 unknown #
vertex $-1 $356 $676 #
straight-curve $-1 36.215342423134395 -1.4786592652104655 8.7425107091336045 0 -1 0 I I #
coedge $-1 $669 $357 $360 $525 reversed $510 $-1 #
coedge $-1 $357 $669 $516 $673 forward $510 $-1 #
vertex $-1 $358 $677 #
straight-curve $-1 42.015442365794854 3.5527136788005009e-015 61.081397656181089 0 0 1 I I #
straight-curve $-1 -24.201797930904334 3.5527136788005009e-015 55.945555015663004 0.78801074757464917 0 -0.61566148304635926 I I #
edge $-1 $671 -5.9146370608418657 $361 3.5527136788005009e-015 $520 $678 forward 7 unknown #
point $-1 42.015442365794854 3.5527136788005009e-015 8.7425107091336063 #
point $-1 36.215342423134388 3.5527136788005009e-015 8.7425107091336045 #
edge $-1 $679 1 $679 0 $364 $-1 forward 7 unknown #
vertex $-1 $365 $680 #
ellipse-curve $-1 38.499730911418261 -4.2247407577441898 5.6887325570495753 0.61566148304635926 0 0.78801074757464917 0.39400537378732459 0 -0.30783074152317963 1 I I #
point $-1 39.509397768251944 -4.2247407577441898 6.1689125631010446 #
edge $-1 $681 1 $681 0 $368 $-1 forward 7 unknown #
vertex $-1 $369 $682 #
ellipse-curve $-1 38.499730911418261 -1.6898963030976759 5.6887325570495753 0.61566148304635926 0 0.78801074757464917 0.39400537378732459 0 -0.30783074152317963 1 I I #
point $-1 39.509397768251944 -1.6898963030976759 6.1689125631010446 #
plane-surface $-1 0 0 8.7425107091336063 0 0 1 1 0 0 forward_v I I I I #
coedge $-1 $547 $546 $539 $683 forward $373 $-1 #
coedge $-1 $539 $375 $377 $543 reversed $235 $-1 #
coedge $-1 $375 $538 $537 $683 reversed $235 $-1 #
coedge $-1 $383 $378 $375 $541 forward $384 $-1 #
edge $-1 $544 22.448951830812462 $684 28.249051773472928 $540 $685 forward 7 unknown #
coedge $-1 $377 $376 $547 $686 reversed $147 $-1 #
edge $-1 $687 -84.030884731589708 $544 -76.670452198769453 $538 $688 forward 7 unknown #
vertex $-1 $379 $689 #
straight-curve $-1 36.215342423134395 4.3334654374094619 8.7425107091336045 0 -1 0 I I #
coedge $-1 $537 $380 $383 $551 reversed $373 $-1 #
coedge $-1 $380 $537 $542 $686 forward $373 $-1 #
vertex $-1 $381 $690 #
straight-curve $-1 42.015442365794854 11.624249405239858 61.081397656181089 0 0 1 I I #
straight-curve $-1 -24.201797930904334 11.624249405239858 55.945555015663004 0.78801074757464917 0 -0.61566148304635926 I I #
edge $-1 $684 5.7096123443979891 $385 11.624249405239858 $546 $691 forward 7 unknown #
point $-1 42.015442365794854 11.624249405239858 8.7425107091336063 #
point $-1 36.215342423134388 11.624249405239858 8.7425107091336045 #
edge $-1 $692 1 $692 0 $388 $-1 forward 7 unknown #
vertex $-1 $389 $693 #
ellipse-curve $-1 38.499730911418261 7.3995086474956651 5.6887325570495753 0.61566148304635926 0 0.78801074757464917 0.39400537378732459 0 -0.30783074152317963 1 I I #
point $-1 39.509397768251944 7.3995086474956651 6.1689125631010446 #
edge $-1 $694 1 $694 0 $392 $-1 forward 7 unknown #
vertex $-1 $393 $695 #
ellipse-curve $-1 38.499730911418261 9.9343531021421789 5.6887325570495753 0.61566148304635926 0 0.78801074757464917 0.39400537378732459 0 -0.30783074152317963 1 I I #
point $-1 39.509397768251944 9.9343531021421789 6.1689125631010446 #
plane-surface $-1 0 0 8.7425107091336063 0 0 1 1 0 0 forward_v I I I I #
coedge $-1 $573 $572 $565 $696 forward $397 $-1 #
coedge $-1 $565 $399 $401 $569 reversed $257 $-1 #
coedge $-1 $399 $564 $563 $696 reversed $257 $-1 #
coedge $-1 $407 $402 $399 $567 forward $408 $-1 #
edge $-1 $570 -10.659668317537125 $697 -4.859568374876666 $566 $698 forward 7 unknown #
coedge $-1 $401 $400 $573 $699 reversed $161 $-1 #
edge $-1 $700 0 $570 7.3604325328202567 $564 $701 forward 7 unknown #
vertex $-1 $403 $702 #
straight-curve $-1 -36.215342423134395 -1.4786592652104655 8.7425107091336045 0 1 0 I I #
coedge $-1 $563 $404 $407 $577 reversed $397 $-1 #
coedge $-1 $404 $563 $568 $699 forward $397 $-1 #
vertex $-1 $405 $703 #
straight-curve $-1 -42.015442365794854 -5.9146370608418657 35.214108098406996 0 0 1 I I #
straight-curve $-1 -42.015442365794854 -5.9146370608418657 4.2109759001148177 -0.78801074757464917 0 -0.61566148304635926 I I #
edge $-1 $697 -3.5527136788005009e-015 $409 5.9146370608418657 $572 $704 forward 7 unknown #
point $-1 -42.015442365794854 -5.9146370608418657 8.7425107091336063 #
point $-1 -36.215342423134395 -5.9146370608418657 8.7425107091336063 #
edge $-1 $705 1 $705 0 $412 $-1 forward 7 unknown #
vertex $-1 $413 $706 #
ellipse-curve $-1 -38.499730911418261 -4.2247407577441898 5.6887325570495646 -0.61566148304635926 0 0.78801074757464917 0.39400537378732459 0 0.30783074152317963 1 I I #
point $-1 -38.721387020677298 -4.2247407577441898 6.7845740461473936 #
edge $-1 $707 1 $707 0 $416 $-1 forward 7 unknown #
vertex $-1 $417 $708 #
ellipse-curve $-1 -38.499730911418261 -1.6898963030976759 5.6887325570495646 -0.61566148304635926 0 0.78801074757464917 0.39400537378732459 0 0.30783074152317963 1 I I #
point $-1 -38.721387020677298 -1.6898963030976759 6.7845740461473936 #
loop $-1 $-1 $428 $420 #
plane-surface $-1 -42.015442365794854 0 0 1 0 0 0 0 -1 forward_v I I I I #
coedge $-1 $591 $423 $425 $595 reversed $279 $-1 #
coedge $-1 $423 $590 $709 $710 reversed $279 $-1 #
coedge $-1 $431 $426 $423 $593 forward $421 $-1 #
edge $-1 $596 -10.659668317537125 $711 -4.859568374876666 $592 $712 forward 7 unknown #
coedge $-1 $425 $424 $599 $713 reversed $175 $-1 #
edge $-1 $714 0 $596 7.3604325328202567 $590 $715 forward 7 unknown #
vertex $-1 $427 $716 #
straight-curve $-1 -36.215342423134395 4.3334654374094619 8.7425107091336045 0 1 0 I I #
coedge $-1 $709 $428 $431 $603 reversed $588 $-1 #
coedge $-1 $428 $709 $594 $713 forward $588 $-1 #
vertex $-1 $429 $717 #
straight-curve $-1 -42.015442365794854 5.7096123443979891 35.214108098406996 0 0 1 I I #
straight-curve $-1 -42.015442365794854 5.7096123443979891 4.2109759001148177 -0.78801074757464917 0 -0.61566148304635926 I I #
edge $-1 $711 -11.624249405239858 $432 -5.7096123443979891 $598 $718 forward 7 unknown #
point $-1 -42.015442365794854 5.7096123443979891 8.7425107091336063 #
point $-1 -36.215342423134395 5.7096123443979891 8.7425107091336063 #
edge $-1 $719 1 $719 0 $435 $-1 forward 7 unknown #
vertex $-1 $436 $720 #
ellipse-curve $-1 -38.499730911418261 7.3995086474956651 5.6887325570495646 -0.61566148304635926 0 0.78801074757464917 0.39400537378732459 0 0.30783074152317963 1 I I #
point $-1 -38.721387020677298 7.3995086474956651 6.7845740461473936 #
edge $-1 $721 1 $721 0 $439 $-1 forward 7 unknown #
vertex $-1 $440 $722 #
ellipse-curve $-1 -38.499730911418261 9.9343531021421789 5.6887325570495646 -0.61566148304635926 0 0.78801074757464917 0.39400537378732459 0 0.30783074152317963 1 I I #
point $-1 -38.721387020677298 9.9343531021421789 6.7845740461473936 #
plane-surface $-1 42.015442365794854 0 0 -1 0 0 0 0 1 forward_v I I I I #
coedge $-1 $625 $446 $449 $618 reversed $301 $-1 #
edge $-1 $460 -8.7425107091336063 $621 8.7425107091336063 $459 $723 forward 7 unknown #
straight-curve $-1 42.015442365794854 -22.166617536246999 0 0 0 -1 I I #
edge $-1 $619 -22.166617536246999 $621 22.166617536246999 $615 $724 forward 7 unknown #
vertex $-1 $618 $725 #
straight-curve $-1 0 -22.166617536246999 -8.7425107091336063 -1 0 0 I I #
vertex $-1 $452 $726 #
straight-curve $-1 0 22.166617536246999 -8.7425107091336063 1 0 0 I I #
point $-1 42.015442365794854 22.166617536246999 -8.7425107091336063 #
point $-1 42.015442365794854 -22.166617536246999 -8.7425107091336063 #
coedge $-1 $456 $615 $462 $628 reversed $301 $-1 #
straight-curve $-1 -42.015442365794854 0 8.7425107091336063 0 -1 0 I I #
point $-1 -42.015442365794854 22.166617536246999 8.7425107091336063 #
edge $-1 $463 -8.7425107091336063 $619 8.7425107091336063 $625 $727 forward 7 unknown #
point $-1 -42.015442365794854 -22.166617536246999 8.7425107091336063 #
straight-curve $-1 42.015442365794854 22.166617536246999 0 0 0 -1 I I #
plane-surface $-1 -42.015442365794854 0 0 1 0 0 0 0 -1 forward_v I I I I #
coedge $-1 $634 $643 $638 $728 forward $469 $-1 #
coedge $-1 $472 $471 $729 $730 forward $197 $-1 #
coedge $-1 $729 $632 $473 $635 reversed $469 $-1 #
edge $-1 $636 -42.015442365794854 $639 42.015442365794854 $634 $731 forward 7 unknown #
vertex $-1 $730 $732 #
straight-curve $-1 42.015442365794854 0 -8.7425107091336063 0 -1 0 I I #
coedge $-1 $481 $475 $632 $728 reversed $482 $-1 #
vertex $-1 $476 $733 #
straight-curve $-1 -42.015442365794854 0 -8.7425107091336063 0 1 0 I I #
point $-1 -42.015442365794854 -22.166617536246999 -8.7425107091336063 #
point $-1 42.015442365794854 -22.166617536246999 -8.7425107091336063 #
coedge $-1 $632 $729 $484 $644 reversed $469 $-1 #
edge $-1 $645 -42.015442365794854 $647 42.015442365794854 $643 $734 forward 7 unknown #
vertex $-1 $485 $735 #
straight-curve $-1 -42.015442365794854 -27.437801601750571 -5.7425107091336063 0 -1 0 I I #
vertex $-1 $486 $736 #
straight-curve $-1 42.015442365794854 -27.437801601750571 -5.7425107091336063 0 1 0 I I #
plane-surface $-1 42.015442365794854 0 0 -1 0 0 0 0 1 forward_v I I I I #
coedge $-1 $657 $492 $661 $737 reversed $336 $-1 #
coedge $-1 $492 $657 $493 $654 reversed $336 $-1 #
coedge $-1 $494 $504 $492 $653 reversed $505 $-1 #
edge $-1 $655 -1.5 $738 1.5 $652 $739 forward 7 unknown #
edge $-1 $655 -42.015442365794854 $659 42.015442365794854 $651 $740 forward 7 unknown #
vertex $-1 $495 $741 #
straight-curve $-1 42.015442365794854 27.437801601750568 -5.7425107091336063 0 1 0 I I #
coedge $-1 $651 $650 $496 $658 reversed $336 $-1 #
edge $-1 $659 -1.5 $662 1.5 $657 $742 forward 7 unknown #
vertex $-1 $654 $743 #
straight-curve $-1 -42.015442365794854 27.437801601750568 -5.7425107091336063 0 -1 0 I I #
coedge $-1 $665 $498 $650 $737 forward $490 $-1 #
vertex $-1 $737 $744 #
straight-curve $-1 -42.015442365794854 27.437801601750568 -8.7425107091336063 0 1 0 I I #
point $-1 -42.015442365794854 22.166617536246999 -8.7425107091336063 #
coedge $-1 $502 $661 $504 $667 forward $490 $-1 #
straight-curve $-1 0 22.166617536246999 -8.7425107091336063 -1 0 0 I I #
edge $-1 $738 -32.70898566725414 $506 -22.166617536246999 $504 $745 forward 7 unknown #
point $-1 42.015442365794854 22.166617536246999 -8.7425107091336063 #
coedge $-1 $521 $520 $513 $670 forward $510 $-1 #
edge $-1 $671 52.338886947047484 $674 56.870421756066278 $669 $746 forward 7 unknown #
vertex $-1 $525 $747 #
straight-curve $-1 13.766390592321926 -5.9146370608418657 8.7425107091336045 1 0 0 I I #
edge $-1 $674 -4.4359777956314002 $522 1.4786592652104691 $521 $748 forward 7 unknown #
vertex $-1 $673 $749 #
straight-curve $-1 -24.201797930904334 -5.9146370608418657 55.945555015663004 -0.78801074757464917 0 0.61566148304635926 I I #
point $-1 36.215342423134388 -5.9146370608418657 8.7425107091336045 #
point $-1 42.015442365794854 3.5527136788005009e-015 4.2109759001148106 #
straight-curve $-1 42.015442365794854 0 8.7425107091336063 0 1 0 I I #
vertex $-1 $528 $750 #
point $-1 38.893736285205584 -4.2247407577441898 5.3809018155263955 #
vertex $-1 $532 $751 #
point $-1 38.893736285205584 -1.6898963030976759 5.3809018155263955 #
edge $-1 $684 52.338886947047484 $687 56.870421756066278 $537 $752 forward 7 unknown #
vertex $-1 $551 $753 #
straight-curve $-1 13.766390592321926 5.7096123443979891 8.7425107091336045 1 0 0 I I #
edge $-1 $687 1.3761469069885273 $548 7.2907839678303965 $547 $754 forward 7 unknown #
vertex $-1 $686 $755 #
straight-curve $-1 -24.201797930904334 5.7096123443979891 55.945555015663004 -0.78801074757464917 0 0.61566148304635926 I I #
point $-1 36.215342423134388 5.7096123443979891 8.7425107091336045 #
point $-1 42.015442365794854 11.624249405239858 4.2109759001148106 #
straight-curve $-1 42.015442365794854 0 8.7425107091336063 0 1 0 I I #
vertex $-1 $554 $756 #
point $-1 38.893736285205584 7.3995086474956651 5.3809018155263955 #
vertex $-1 $558 $757 #
point $-1 38.893736285205584 9.9343531021421789 5.3809018155263955 #
edge $-1 $697 26.471597389273391 $700 31.003132198292178 $563 $758 forward 7 unknown #
vertex $-1 $577 $759 #
straight-curve $-1 -46.87501074067152 3.5527136788005009e-015 8.7425107091336045 -1 0 0 I I #
edge $-1 $700 -1.4786592652104691 $574 4.4359777956314002 $573 $760 forward 7 unknown #
vertex $-1 $699 $761 #
straight-curve $-1 -42.015442365794854 3.5527136788005009e-015 4.2109759001148177 0.78801074757464917 0 0.61566148304635926 I I #
point $-1 -36.215342423134395 3.5527136788005009e-015 8.7425107091336063 #
point $-1 -42.015442365794854 -5.9146370608418657 4.2109759001148177 #
straight-curve $-1 -42.015442365794854 0 8.7425107091336063 0 -1 0 I I #
vertex $-1 $580 $762 #
point $-1 -38.105725537630939 -4.2247407577441898 5.9965632985727444 #
vertex $-1 $584 $763 #
point $-1 -38.105725537630939 -1.6898963030976759 5.9965632985727444 #
coedge $-1 $599 $598 $591 $710 forward $588 $-1 #
edge $-1 $711 26.471597389273391 $714 31.003132198292178 $709 $764 forward 7 unknown #
vertex $-1 $603 $765 #
straight-curve $-1 -46.87501074067152 11.624249405239858 8.7425107091336045 -1 0 0 I I #
edge $-1 $714 -7.2907839678303965 $600 -1.3761469069885273 $599 $766 forward 7 unknown #
vertex $-1 $713 $767 #
straight-curve $-1 -42.015442365794854 11.624249405239858 4.2109759001148177 0.78801074757464917 0 0.61566148304635926 I I #
point $-1 -36.215342423134395 11.624249405239858 8.7425107091336063 #
point $-1 -42.015442365794854 5.7096123443979891 4.2109759001148177 #
straight-curve $-1 -42.015442365794854 0 8.7425107091336063 0 -1 0 I I #
vertex $-1 $606 $768 #
point $-1 -38.105725537630939 7.3995086474956651 5.9965632985727444 #
vertex $-1 $610 $769 #
point $-1 -38.105725537630939 9.9343531021421789 5.9965632985727444 #
straight-curve $-1 -42.015442365794854 22.166617536246999 0 0 0 -1 I I #
straight-curve $-1 -42.015442365794854 0 -8.7425107091336063 0 1 0 I I #
point $-1 -42.015442365794854 -22.166617536246999 -8.7425107091336063 #
point $-1 -42.015442365794854 22.166617536246999 -8.7425107091336063 #
straight-curve $-1 -42.015442365794854 -22.166617536246999 0 0 0 -1 I I #
edge $-1 $645 -1.5 $639 1.5 $638 $770 forward 7 unknown #
coedge $-1 $643 $634 $633 $730 reversed $469 $-1 #
edge $-1 $647 -1.5 $636 1.5 $633 $771 forward 7 unknown #
straight-curve $-1 0 -32.70898566725414 -8.7425107091336063 -1 0 0 I I #
point $-1 42.015442365794854 -32.70898566725414 -8.7425107091336063 #
point $-1 -42.015442365794854 -32.70898566725414 -8.7425107091336063 #
straight-curve $-1 0 -32.70898566725414 -5.7425107091336063 1 0 0 I I #
point $-1 -42.015442365794854 -32.70898566725414 -5.7425107091336063 #
point $-1 42.015442365794854 -32.70898566725414 -5.7425107091336063 #
edge $-1 $662 -42.015442365794854 $738 42.015442365794854 $650 $772 forward 7 unknown #
vertex $-1 $667 $773 #
straight-curve $-1 42.015442365794854 32.70898566725414 -7.2425107091336063 0 0 -1 I I #
straight-curve $-1 0 32.70898566725414 -5.7425107091336063 -1 0 0 I I #
point $-1 42.015442365794854 32.70898566725414 -5.7425107091336063 #
straight-curve $-1 -42.015442365794854 32.70898566725414 -7.2425107091336063 0 0 -1 I I #
point $-1 -42.015442365794854 32.70898566725414 -5.7425107091336063 #
point $-1 -42.015442365794854 32.70898566725414 -8.7425107091336063 #
straight-curve $-1 42.015442365794854 0 -8.7425107091336063 0 -1 0 I I #
straight-curve $-1 42.015442365794854 -5.9146370608418657 61.081397656181089 0 0 -1 I I #
point $-1 42.015442365794854 -5.9146370608418657 8.7425107091336063 #
straight-curve $-1 42.015442365794854 -1.4786592652104655 4.2109759001148106 0 1 0 I I #
point $-1 42.015442365794854 -5.9146370608418657 4.2109759001148106 #
point $-1 38.191900169895085 -4.2247407577441898 5.2947271832622507 #
point $-1 38.191900169895085 -1.6898963030976759 5.2947271832622507 #
straight-curve $-1 42.015442365794854 5.7096123443979891 61.081397656181089 0 0 -1 I I #
point $-1 42.015442365794854 5.7096123443979891 8.7425107091336063 #
straight-curve $-1 42.015442365794854 4.3334654374094619 4.2109759001148106 0 1 0 I I #
point $-1 42.015442365794854 5.7096123443979891 4.2109759001148106 #
point $-1 38.191900169895085 7.3995086474956651 5.2947271832622507 #
point $-1 38.191900169895085 9.9343531021421789 5.2947271832622507 #
straight-curve $-1 -42.015442365794854 3.5527136788005009e-015 35.214108098406996 0 0 -1 I I #
point $-1 -42.015442365794854 3.5527136788005009e-015 8.7425107091336063 #
straight-curve $-1 -42.015442365794854 -1.4786592652104655 4.2109759001148168 0 -1 0 I I #
point $-1 -42.015442365794854 3.5527136788005009e-015 4.2109759001148177 #
point $-1 -38.191900169895085 -4.2247407577441898 5.29472718326224 #
point $-1 -38.191900169895085 -1.6898963030976759 5.29472718326224 #
straight-curve $-1 -42.015442365794854 11.624249405239858 35.214108098406996 0 0 -1 I I #
point $-1 -42.015442365794854 11.624249405239858 8.7425107091336063 #
straight-curve $-1 -42.015442365794854 4.3334654374094619 4.2109759001148168 0 -1 0 I I #
point $-1 -42.015442365794854 11.624249405239858 4.2109759001148177 #
point $-1 -38.191900169895085 7.3995086474956651 5.29472718326224 #
point $-1 -38.191900169895085 9.9343531021421789 5.29472718326224 #
straight-curve $-1 -42.015442365794854 -32.70898566725414 -7.2425107091336063 0 0 -1 I I #
straight-curve $-1 42.015442365794854 -32.70898566725414 -7.2425107091336063 0 0 -1 I I #
straight-curve $-1 0 32.70898566725414 -8.7425107091336063 1 0 0 I I #
point $-1 42.015442365794854 32.70898566725414 -8.7425107091336063 #
End-of-ACIS-data 