500 0 10 0           
7 Unknown 11 ACIS 5.0 NT 24 Fri Mar 26 15:25:56 1999 
-1 9.9999999999999995e-007 1e-010 
body $-1 $10 $-1 $11 #
body $-1 $12 $-1 $13 #
body $-1 $14 $-1 $15 #
body $-1 $16 $-1 $17 #
body $-1 $18 $-1 $19 #
body $-1 $20 $-1 $21 #
body $-1 $22 $-1 $23 #
body $-1 $24 $-1 $25 #
body $-1 $26 $-1 $27 #
body $-1 $28 $-1 $29 #
lump $-1 $-1 $30 $0 #
transform $-1 1 0 0 0 1 0 0 0 1 79.848628192999058 36.39378971141646 14.063816750476656 1 rotate no_reflect no_shear #
lump $-1 $-1 $31 $1 #
transform $-1 1 0 0 0 1 0 0 0 1 79.848628192999058 36.39378971141646 14.063816750476656 1 rotate no_reflect no_shear #
lump $-1 $-1 $32 $2 #
transform $-1 1 0 0 0 1 0 0 0 1 79.848628192999058 36.39378971141646 14.063816750476656 1 rotate no_reflect no_shear #
lump $-1 $-1 $33 $3 #
transform $-1 1 0 0 0 1 0 0 0 1 79.848628192999058 36.39378971141646 14.063816750476656 1 rotate no_reflect no_shear #
lump $-1 $-1 $34 $4 #
transform $-1 1 0 0 0 1 0 0 0 1 79.848628192999058 36.39378971141646 14.063816750476656 1 rotate no_reflect no_shear #
lump $-1 $-1 $35 $5 #
transform $-1 1 0 0 0 1 0 0 0 1 79.848628192999058 36.39378971141646 14.063816750476656 1 rotate no_reflect no_shear #
lump $-1 $-1 $36 $6 #
transform $-1 1 0 0 0 1 0 0 0 1 79.848628192999058 36.39378971141646 14.063816750476656 1 rotate no_reflect no_shear #
lump $-1 $-1 $37 $7 #
transform $-1 1 0 0 0 1 0 0 0 1 79.848628192999058 36.39378971141646 14.063816750476656 1 rotate no_reflect no_shear #
lump $-1 $-1 $38 $8 #
transform $-1 1 0 0 0 1 0 0 0 1 79.848628192999058 36.39378971141646 14.063816750476656 1 rotate no_reflect no_shear #
lump $-1 $-1 $39 $9 #
transform $-1 1 0 0 0 1 0 0 0 1 79.848628192999058 36.39378971141646 14.063816750476656 1 rotate no_reflect no_shear #
shell $-1 $-1 $-1 $40 $-1 $10 #
shell $-1 $-1 $-1 $41 $-1 $12 #
shell $-1 $-1 $-1 $42 $-1 $14 #
shell $-1 $-1 $-1 $43 $-1 $16 #
shell $-1 $-1 $-1 $44 $-1 $18 #
shell $-1 $-1 $-1 $45 $-1 $20 #
shell $-1 $-1 $-1 $46 $-1 $22 #
shell $-1 $-1 $-1 $47 $-1 $24 #
shell $-1 $-1 $-1 $48 $-1 $26 #
shell $-1 $-1 $-1 $49 $-1 $28 #
face $-1 $50 $51 $30 $-1 $52 forward single #
face $-1 $53 $54 $31 $-1 $55 forward single #
face $-1 $56 $57 $32 $-1 $58 reversed single #
face $-1 $59 $60 $33 $-1 $61 forward single #
face $-1 $62 $63 $34 $-1 $64 forward single #
face $-1 $65 $66 $35 $-1 $67 forward single #
face $-1 $68 $69 $36 $-1 $70 reversed single #
face $-1 $71 $72 $37 $-1 $73 forward single #
face $-1 $74 $75 $38 $-1 $76 forward single #
face $-1 $77 $78 $39 $-1 $79 forward single #
face $-1 $80 $81 $30 $-1 $82 reversed single #
loop $-1 $-1 $83 $40 #
plane-surface $-1 0 0 14.063816750476656 0 0 1 1 0 0 forward_v I I I I #
face $-1 $84 $85 $31 $-1 $86 reversed single #
loop $-1 $-1 $87 $41 #
plane-surface $-1 -79.848628192999058 0 0 1 0 0 0 0 -1 forward_v I I I I #
face $-1 $88 $89 $32 $-1 $90 reversed single #
loop $-1 $-1 $91 $42 #
plane-surface $-1 70.756134954792913 -36.393789711416446 0.79854507934437891 0 -0.83867057594974714 0.54463902268945019 1 0 0 forward_v I I I I #
face $-1 $92 $93 $33 $-1 $94 forward single #
loop $-1 $95 $96 $43 #
cone-surface $-1 65.300639011869237 -31.408955572934481 6.9911746827673484 0 0.83867057594974714 -0.54463902268945019 1.5 0 0 1 I I 0 1 1.5 forward I I I I #
face $-1 $97 $98 $34 $-1 $99 forward single #
loop $-1 $100 $101 $44 #
cone-surface $-1 70.756134954792913 -31.408955572934481 6.9911746827673484 0 0.83867057594974714 -0.54463902268945019 1.5 0 0 1 I I 0 1 1.5 forward I I I I #
face $-1 $102 $103 $35 $-1 $104 forward single #
loop $-1 $105 $106 $45 #
cone-surface $-1 76.211630897716589 -31.408955572934481 6.9911746827673484 0 0.83867057594974714 -0.54463902268945019 1.5 0 0 1 I I 0 1 1.5 forward I I I I #
face $-1 $107 $108 $36 $-1 $109 reversed single #
loop $-1 $-1 $110 $46 #
plane-surface $-1 70.756134954792913 -3.249166409366012 61.84334623587965 0 0.83867057594974714 0.54463902268945019 1 0 0 forward_v I I I I #
face $-1 $111 $112 $37 $-1 $113 forward single #
loop $-1 $114 $115 $47 #
cone-surface $-1 65.300639011869237 31.408955572934467 6.9911746827673555 0 -0.83867057594974714 -0.54463902268945019 1.5 0 0 1 I I 0 1 1.5 forward I I I I #
face $-1 $116 $117 $38 $-1 $118 forward single #
loop $-1 $119 $120 $48 #
cone-surface $-1 70.756134954792913 31.408955572934467 6.9911746827673555 0 -0.83867057594974714 -0.54463902268945019 1.5 0 0 1 I I 0 1 1.5 forward I I I I #
face $-1 $121 $122 $39 $-1 $123 forward single #
loop $-1 $124 $125 $49 #
cone-surface $-1 76.211630897716589 31.408955572934467 6.9911746827673555 0 -0.83867057594974714 -0.54463902268945019 1.5 0 0 1 I I 0 1 1.5 forward I I I I #
face $-1 $126 $127 $30 $-1 $128 reversed single #
loop $-1 $-1 $129 $50 #
plane-surface $-1 0 0 -14.063816750476656 0 0 1 1 0 0 forward_v I I I I #
coedge $-1 $130 $131 $132 $133 forward $51 $-1 #
face $-1 $134 $135 $31 $-1 $136 forward single #
loop $-1 $-1 $137 $53 #
plane-surface $-1 0 36.39378971141646 0 0 -1 0 0 0 -1 forward_v I I I I #
coedge $-1 $138 $139 $140 $141 forward $54 $-1 #
face $-1 $142 $143 $32 $-1 $144 reversed single #
loop $-1 $-1 $145 $56 #
plane-surface $-1 61.663641716586781 -170.32717970225593 87.77590272360095 1 0 0 0 0.83867057594974714 -0.54463902268945019 forward_v I I I I #
coedge $-1 $146 $147 $148 $149 reversed $57 $-1 #
face $-1 $-1 $150 $33 $-1 $151 forward single #
loop $-1 $152 $153 $59 #
cone-surface $-1 65.300639011869237 -30.102402438434808 6.1426891836070947 0 0.83867057594974714 -0.54463902268945019 0.75 0 0 1 I I -0.70710678118654757 0.70710678118654757 0.75 forward I I I I #
loop $-1 $-1 $154 $43 #
coedge $-1 $96 $96 $155 $156 reversed $60 $-1 #
face $-1 $-1 $157 $34 $-1 $158 forward single #
loop $-1 $159 $160 $62 #
cone-surface $-1 70.756134954792913 -30.102402438434808 6.1426891836070947 0 0.83867057594974714 -0.54463902268945019 0.75 0 0 1 I I -0.70710678118654757 0.70710678118654757 0.75 forward I I I I #
loop $-1 $-1 $161 $44 #
coedge $-1 $101 $101 $162 $163 reversed $63 $-1 #
face $-1 $-1 $164 $35 $-1 $165 forward single #
loop $-1 $166 $167 $65 #
cone-surface $-1 76.211630897716589 -30.102402438434808 6.1426891836070947 0 0.83867057594974714 -0.54463902268945019 0.75 0 0 1 I I -0.70710678118654757 0.70710678118654757 0.75 forward I I I I #
loop $-1 $-1 $168 $45 #
coedge $-1 $106 $106 $169 $170 reversed $66 $-1 #
face $-1 $171 $172 $36 $-1 $173 forward single #
loop $-1 $-1 $174 $68 #
plane-surface $-1 61.663641716586781 130.68422358147347 148.82070388013622 1 0 0 0 -0.83867057594974714 -0.54463902268945019 forward_v I I I I #
coedge $-1 $175 $176 $177 $178 reversed $69 $-1 #
face $-1 $-1 $179 $37 $-1 $180 forward single #
loop $-1 $181 $182 $71 #
cone-surface $-1 65.300639011869237 30.102402438434794 6.1426891836071018 0 -0.83867057594974714 -0.54463902268945019 0.75 0 0 1 I I -0.70710678118654757 0.70710678118654757 0.75 forward I I I I #
loop $-1 $-1 $183 $47 #
coedge $-1 $115 $115 $184 $185 reversed $72 $-1 #
face $-1 $-1 $186 $38 $-1 $187 forward single #
loop $-1 $188 $189 $74 #
cone-surface $-1 70.756134954792913 30.102402438434794 6.1426891836071018 0 -0.83867057594974714 -0.54463902268945019 0.75 0 0 1 I I -0.70710678118654757 0.70710678118654757 0.75 forward I I I I #
loop $-1 $-1 $190 $48 #
coedge $-1 $120 $120 $191 $192 reversed $75 $-1 #
face $-1 $-1 $193 $39 $-1 $194 forward single #
loop $-1 $195 $196 $77 #
cone-surface $-1 76.211630897716589 30.102402438434794 6.1426891836071018 0 -0.83867057594974714 -0.54463902268945019 0.75 0 0 1 I I -0.70710678118654757 0.70710678118654757 0.75 forward I I I I #
loop $-1 $-1 $197 $49 #
coedge $-1 $125 $125 $198 $199 reversed $78 $-1 #
face $-1 $200 $201 $30 $-1 $202 reversed single #
loop $-1 $-1 $203 $80 #
plane-surface $-1 0 -36.39378971141646 0 0 1 0 0 0 1 forward_v I I I I #
coedge $-1 $204 $205 $206 $207 forward $81 $-1 #
coedge $-1 $208 $83 $209 $210 forward $51 $-1 #
coedge $-1 $83 $208 $211 $212 forward $51 $-1 #
coedge $-1 $213 $214 $83 $133 reversed $215 $-1 #
edge $-1 $216 -36.39378971141646 $217 36.39378971141646 $132 $218 forward 7 unknown #
face $-1 $219 $220 $31 $-1 $221 reversed single #
loop $-1 $-1 $140 $84 #
plane-surface $-1 -85.656220093769107 0 -5.9470883783869288 0 0 1 1 0 0 forward_v I I I I #
coedge $-1 $222 $223 $139 $224 forward $85 $-1 #
coedge $-1 $225 $87 $226 $227 reversed $54 $-1 #
coedge $-1 $87 $225 $137 $224 reversed $54 $-1 #
coedge $-1 $228 $229 $87 $141 reversed $135 $-1 #
edge $-1 $230 -36.39378971141646 $231 36.39378971141646 $140 $232 forward 7 unknown #
face $-1 $233 $234 $32 $-1 $235 forward single #
loop $-1 $-1 $236 $88 #
plane-surface $-1 0 -36.39378971141646 0 0 1 0 0 0 1 forward_v I I I I #
coedge $-1 $237 $238 $239 $240 reversed $89 $-1 #
coedge $-1 $241 $91 $242 $243 reversed $57 $-1 #
coedge $-1 $91 $241 $237 $244 forward $57 $-1 #
coedge $-1 $239 $245 $91 $149 forward $234 $-1 #
edge $-1 $246 -44.470560715602588 $247 -26.285574239190325 $148 $248 forward 7 unknown #
loop $-1 $-1 $155 $92 #
plane-surface $-1 70.756134954792913 -36.393789711416446 0.79854507934437891 0 -0.83867057594974714 0.54463902268945019 1 0 0 forward_v I I I I #
loop $-1 $-1 $249 $59 #
coedge $-1 $153 $153 $154 $250 reversed $93 $-1 #
coedge $-1 $154 $154 $153 $250 forward $95 $-1 #
coedge $-1 $155 $155 $96 $156 forward $150 $-1 #
edge $-1 $251 3.9962775262769978e-016 $251 6.2831853071796004 $155 $252 forward 7 unknown #
loop $-1 $-1 $162 $97 #
plane-surface $-1 70.756134954792913 -36.393789711416446 0.79854507934437891 0 -0.83867057594974714 0.54463902268945019 1 0 0 forward_v I I I I #
loop $-1 $-1 $253 $62 #
coedge $-1 $160 $160 $161 $254 reversed $98 $-1 #
coedge $-1 $161 $161 $160 $254 forward $100 $-1 #
coedge $-1 $162 $162 $101 $163 forward $157 $-1 #
edge $-1 $255 3.9962775262769978e-016 $255 6.2831853071796004 $162 $256 forward 7 unknown #
loop $-1 $-1 $169 $102 #
plane-surface $-1 70.756134954792913 -36.393789711416446 0.79854507934437891 0 -0.83867057594974714 0.54463902268945019 1 0 0 forward_v I I I I #
loop $-1 $-1 $257 $65 #
coedge $-1 $167 $167 $168 $258 reversed $103 $-1 #
coedge $-1 $168 $168 $167 $258 forward $105 $-1 #
coedge $-1 $169 $169 $106 $170 forward $164 $-1 #
edge $-1 $259 3.9962775262769978e-016 $259 6.2831853071796004 $169 $260 forward 7 unknown #
face $-1 $261 $262 $36 $-1 $263 reversed single #
loop $-1 $-1 $264 $107 #
plane-surface $-1 0 0 14.063816750476656 0 0 1 1 0 0 forward_v I I I I #
coedge $-1 $265 $266 $267 $268 reversed $108 $-1 #
coedge $-1 $269 $110 $270 $271 reversed $69 $-1 #
coedge $-1 $110 $269 $265 $272 forward $69 $-1 #
coedge $-1 $267 $273 $110 $178 forward $274 $-1 #
edge $-1 $275 -44.470560715602602 $276 -26.285574239190325 $177 $277 forward 7 unknown #
loop $-1 $-1 $184 $111 #
plane-surface $-1 70.756134954792913 -3.249166409366012 61.84334623587965 0 0.83867057594974714 0.54463902268945019 1 0 0 forward_v I I I I #
loop $-1 $-1 $278 $71 #
coedge $-1 $182 $182 $183 $279 reversed $112 $-1 #
coedge $-1 $183 $183 $182 $279 forward $114 $-1 #
coedge $-1 $184 $184 $115 $185 forward $179 $-1 #
edge $-1 $280 -9.6964985236327053e-017 $280 6.2831853071796004 $184 $281 forward 7 unknown #
loop $-1 $-1 $191 $116 #
plane-surface $-1 70.756134954792913 -3.249166409366012 61.84334623587965 0 0.83867057594974714 0.54463902268945019 1 0 0 forward_v I I I I #
loop $-1 $-1 $282 $74 #
coedge $-1 $189 $189 $190 $283 reversed $117 $-1 #
coedge $-1 $190 $190 $189 $283 forward $119 $-1 #
coedge $-1 $191 $191 $120 $192 forward $186 $-1 #
edge $-1 $284 -9.6964985236327053e-017 $284 6.2831853071796004 $191 $285 forward 7 unknown #
loop $-1 $-1 $198 $121 #
plane-surface $-1 70.756134954792913 -3.249166409366012 61.84334623587965 0 0.83867057594974714 0.54463902268945019 1 0 0 forward_v I I I I #
loop $-1 $-1 $286 $77 #
coedge $-1 $196 $196 $197 $287 reversed $122 $-1 #
coedge $-1 $197 $197 $196 $287 forward $124 $-1 #
coedge $-1 $198 $198 $125 $199 forward $193 $-1 #
edge $-1 $288 -9.6964985236327053e-017 $288 6.2831853071796004 $198 $289 forward 7 unknown #
face $-1 $290 $291 $30 $-1 $292 reversed single #
loop $-1 $-1 $293 $126 #
plane-surface $-1 -79.848628192999058 0 0 1 0 0 0 0 -1 forward_v I I I I #
coedge $-1 $294 $211 $295 $296 forward $127 $-1 #
coedge $-1 $297 $129 $294 $298 forward $81 $-1 #
coedge $-1 $129 $297 $299 $300 forward $81 $-1 #
coedge $-1 $214 $213 $129 $207 reversed $215 $-1 #
edge $-1 $301 -36.39378971141646 $302 36.39378971141646 $206 $303 forward 7 unknown #
coedge $-1 $131 $130 $304 $305 forward $51 $-1 #
coedge $-1 $306 $307 $130 $210 reversed $291 $-1 #
edge $-1 $217 -79.848628192999058 $308 79.848628192999058 $209 $309 forward 7 unknown #
coedge $-1 $203 $310 $131 $212 reversed $127 $-1 #
edge $-1 $311 -79.848628192999058 $216 79.848628192999058 $211 $312 forward 7 unknown #
coedge $-1 $206 $132 $310 $313 forward $215 $-1 #
coedge $-1 $132 $206 $306 $314 reversed $215 $-1 #
loop $-1 $-1 $213 $290 #
vertex $-1 $133 $315 #
vertex $-1 $133 $316 #
straight-curve $-1 79.848628192999058 0 14.063816750476656 0 1 0 I I #
face $-1 $317 $318 $31 $-1 $319 reversed single #
loop $-1 $-1 $320 $134 #
plane-surface $-1 -91.463811994539157 0 -10.005452564431792 1 0 0 0 0 -1 forward_v I I I I #
coedge $-1 $321 $137 $322 $323 reversed $85 $-1 #
coedge $-1 $137 $321 $228 $324 reversed $85 $-1 #
edge $-1 $230 5.9470883783869288 $325 14.063816750476656 $137 $326 forward 7 unknown #
coedge $-1 $139 $138 $327 $328 reversed $54 $-1 #
coedge $-1 $329 $330 $138 $227 forward $331 $-1 #
edge $-1 $332 -14.063816750476656 $231 -5.9470883783869288 $226 $333 forward 7 unknown #
coedge $-1 $334 $140 $223 $324 forward $135 $-1 #
coedge $-1 $140 $334 $329 $335 forward $135 $-1 #
vertex $-1 $224 $336 #
vertex $-1 $335 $337 #
straight-curve $-1 -79.848628192999058 0 -5.9470883783869288 0 -1 0 I I #
face $-1 $-1 $338 $32 $-1 $339 reversed single #
loop $-1 $-1 $239 $142 #
plane-surface $-1 0 0 14.063816750476656 0 0 1 1 0 0 forward_v I I I I #
coedge $-1 $340 $341 $238 $342 forward $143 $-1 #
coedge $-1 $238 $145 $147 $244 reversed $89 $-1 #
coedge $-1 $145 $237 $236 $342 reversed $89 $-1 #
coedge $-1 $343 $148 $145 $240 forward $234 $-1 #
edge $-1 $247 -57.384368011600756 $344 -48.769800139711506 $239 $345 forward 7 unknown #
coedge $-1 $147 $146 $340 $346 reversed $57 $-1 #
coedge $-1 $347 $348 $146 $243 forward $338 $-1 #
edge $-1 $349 -9.5758808993878421 $246 6.2411419598082443 $242 $350 forward 7 unknown #
edge $-1 $351 -2.6082680278521875e-014 $247 15.817022859196062 $237 $352 forward 7 unknown #
coedge $-1 $148 $343 $347 $353 forward $234 $-1 #
vertex $-1 $243 $354 #
vertex $-1 $149 $355 #
straight-curve $-1 35.378067477396456 -27.779221839527207 14.063816750476656 -1 0 0 I I #
coedge $-1 $249 $249 $-1 $356 reversed $152 $-1 #
edge $-1 $357 0 $357 6.2831853071796004 $153 $358 forward 7 unknown #
vertex $-1 $156 $359 #
ellipse-curve $-1 65.300639011869237 -32.086505775471835 7.4311809149105095 0 -0.83867057594974714 0.54463902268945019 1.5 0 0 1 I I #
coedge $-1 $253 $253 $-1 $360 reversed $159 $-1 #
edge $-1 $361 0 $361 6.2831853071796004 $160 $362 forward 7 unknown #
vertex $-1 $163 $363 #
ellipse-curve $-1 70.756134954792913 -32.086505775471835 7.4311809149105095 0 -0.83867057594974714 0.54463902268945019 1.5 0 0 1 I I #
coedge $-1 $257 $257 $-1 $364 reversed $166 $-1 #
edge $-1 $365 0 $365 6.2831853071796004 $167 $366 forward 7 unknown #
vertex $-1 $170 $367 #
ellipse-curve $-1 76.211630897716589 -32.086505775471835 7.4311809149105095 0 -0.83867057594974714 0.54463902268945019 1.5 0 0 1 I I #
face $-1 $-1 $274 $36 $-1 $368 reversed single #
loop $-1 $-1 $270 $171 #
plane-surface $-1 79.848628192999058 0 0 -1 0 0 0 0 1 forward_v I I I I #
coedge $-1 $369 $370 $266 $371 forward $172 $-1 #
coedge $-1 $266 $174 $176 $272 reversed $108 $-1 #
coedge $-1 $174 $265 $264 $371 reversed $108 $-1 #
coedge $-1 $372 $177 $174 $268 forward $274 $-1 #
edge $-1 $276 -73.611806860723732 $373 -60.346535189591457 $267 $374 forward 7 unknown #
coedge $-1 $176 $175 $369 $375 reversed $69 $-1 #
coedge $-1 $376 $377 $175 $271 forward $262 $-1 #
edge $-1 $378 30.152647751608235 $275 45.969670610804293 $270 $379 forward 7 unknown #
edge $-1 $380 56.97055656363689 $276 72.787579422832948 $265 $381 forward 7 unknown #
coedge $-1 $177 $372 $376 $382 forward $274 $-1 #
loop $-1 $-1 $267 $261 #
vertex $-1 $271 $383 #
vertex $-1 $178 $384 #
straight-curve $-1 35.378067477396456 36.39378971141646 0.79854507934437891 -1 0 0 I I #
coedge $-1 $278 $278 $-1 $385 reversed $181 $-1 #
edge $-1 $386 0 $386 6.2831853071796004 $182 $387 forward 7 unknown #
vertex $-1 $185 $388 #
ellipse-curve $-1 65.300639011869237 32.086505775471835 7.4311809149105263 0 0.83867057594974714 0.54463902268945019 1.5 0 0 1 I I #
coedge $-1 $282 $282 $-1 $389 reversed $188 $-1 #
edge $-1 $390 0 $390 6.2831853071796004 $189 $391 forward 7 unknown #
vertex $-1 $192 $392 #
ellipse-curve $-1 70.756134954792913 32.086505775471835 7.4311809149105263 0 0.83867057594974714 0.54463902268945019 1.5 0 0 1 I I #
coedge $-1 $286 $286 $-1 $393 reversed $195 $-1 #
edge $-1 $394 0 $394 6.2831853071796004 $196 $395 forward 7 unknown #
vertex $-1 $199 $396 #
ellipse-curve $-1 76.211630897716589 32.086505775471835 7.4311809149105263 0 0.83867057594974714 0.54463902268945019 1.5 0 0 1 I I #
face $-1 $-1 $215 $30 $-1 $397 reversed single #
loop $-1 $-1 $306 $200 #
plane-surface $-1 0 36.39378971141646 0 0 -1 0 0 0 -1 forward_v I I I I #
coedge $-1 $398 $304 $307 $399 forward $201 $-1 #
coedge $-1 $310 $203 $204 $298 reversed $127 $-1 #
coedge $-1 $304 $398 $203 $296 reversed $201 $-1 #
edge $-1 $311 -14.063816750476656 $400 14.063816750476656 $295 $401 forward 7 unknown #
coedge $-1 $205 $204 $398 $402 forward $81 $-1 #
edge $-1 $302 -79.848628192999058 $400 79.848628192999058 $294 $403 forward 7 unknown #
coedge $-1 $307 $306 $205 $300 reversed $291 $-1 #
edge $-1 $404 -79.848628192999058 $301 79.848628192999058 $299 $405 forward 7 unknown #
vertex $-1 $207 $406 #
vertex $-1 $313 $407 #
straight-curve $-1 79.848628192999058 0 -14.063816750476656 0 -1 0 I I #
coedge $-1 $293 $295 $208 $305 reversed $201 $-1 #
edge $-1 $308 -36.39378971141646 $311 36.39378971141646 $304 $408 forward 7 unknown #
coedge $-1 $299 $209 $214 $314 forward $291 $-1 #
coedge $-1 $209 $299 $293 $399 reversed $291 $-1 #
vertex $-1 $210 $409 #
straight-curve $-1 0 36.39378971141646 14.063816750476656 -1 0 0 I I #
coedge $-1 $211 $294 $213 $313 reversed $127 $-1 #
vertex $-1 $305 $410 #
straight-curve $-1 0 -36.39378971141646 14.063816750476656 1 0 0 I I #
edge $-1 $216 -14.063816750476656 $302 14.063816750476656 $213 $411 forward 7 unknown #
edge $-1 $217 -14.063816750476656 $301 14.063816750476656 $214 $412 forward 7 unknown #
point $-1 79.848628192999058 -36.39378971141646 14.063816750476656 #
point $-1 79.848628192999058 36.39378971141646 14.063816750476656 #
face $-1 $-1 $331 $31 $-1 $413 reversed single #
loop $-1 $-1 $327 $219 #
plane-surface $-1 0 0 -14.063816750476656 0 0 1 1 0 0 forward_v I I I I #
coedge $-1 $414 $415 $321 $416 forward $220 $-1 #
coedge $-1 $223 $222 $320 $416 reversed $85 $-1 #
coedge $-1 $327 $417 $222 $323 forward $318 $-1 #
edge $-1 $418 -91.463811994539157 $325 -79.848628192999058 $222 $419 forward 7 unknown #
edge $-1 $230 -5.8075919007700492 $420 5.8075919007700492 $223 $421 forward 7 unknown #
vertex $-1 $224 $422 #
straight-curve $-1 -79.848628192999058 36.39378971141646 0 0 0 -1 I I #
coedge $-1 $423 $322 $225 $328 forward $318 $-1 #
edge $-1 $325 -36.39378971141646 $332 36.39378971141646 $327 $424 forward 7 unknown #
coedge $-1 $425 $226 $229 $335 reversed $331 $-1 #
coedge $-1 $226 $425 $423 $426 reversed $331 $-1 #
loop $-1 $-1 $226 $317 #
vertex $-1 $426 $427 #
straight-curve $-1 -79.848628192999058 -36.39378971141646 0 0 0 1 I I #
coedge $-1 $229 $228 $415 $428 forward $135 $-1 #
edge $-1 $429 -5.8075919007700492 $231 5.8075919007700492 $329 $430 forward 7 unknown #
point $-1 -79.848628192999058 36.39378971141646 -5.9470883783869288 #
point $-1 -79.848628192999058 -36.39378971141646 -5.9470883783869288 #
loop $-1 $-1 $242 $233 #
plane-surface $-1 79.848628192999058 0 0 -1 0 0 0 0 1 forward_v I I I I #
coedge $-1 $431 $236 $241 $346 forward $143 $-1 #
coedge $-1 $236 $431 $343 $432 reversed $143 $-1 #
edge $-1 $344 29.824134611323821 $351 43.089406282456117 $236 $433 forward 7 unknown #
coedge $-1 $245 $239 $341 $432 forward $234 $-1 #
vertex $-1 $432 $434 #
straight-curve $-1 61.663641716586781 -85.163589851127966 14.063816750476654 0 -1 0 I I #
edge $-1 $351 26.285574239190325 $349 44.470560715602588 $340 $435 forward 7 unknown #
coedge $-1 $348 $242 $245 $353 reversed $338 $-1 #
coedge $-1 $242 $347 $431 $436 forward $338 $-1 #
vertex $-1 $346 $437 #
straight-curve $-1 79.848628192999058 -31.178391296983293 8.8295546284601425 0 0.54463902268945019 0.83867057594974714 I I #
vertex $-1 $346 $438 #
straight-curve $-1 61.663641716586781 -36.393789711416446 0.79854507934437891 0 0.54463902268945019 0.83867057594974714 I I #
edge $-1 $439 -36.39378971141646 $246 -27.77922183952721 $347 $440 forward 7 unknown #
point $-1 79.848628192999044 -27.77922183952721 14.063816750476656 #
point $-1 61.663641716586781 -27.77922183952721 14.063816750476656 #
edge $-1 $441 1 $441 0 $249 $-1 forward 7 unknown #
vertex $-1 $250 $442 #
ellipse-curve $-1 65.300639011869237 -30.73140537039712 6.5511684506241821 0 -0.83867057594974714 0.54463902268945019 1.5 0 0 1 I I #
point $-1 66.800639011869237 -32.086505775471842 7.4311809149105148 #
edge $-1 $443 1 $443 0 $253 $-1 forward 7 unknown #
vertex $-1 $254 $444 #
ellipse-curve $-1 70.756134954792913 -30.73140537039712 6.5511684506241821 0 -0.83867057594974714 0.54463902268945019 1.5 0 0 1 I I #
point $-1 72.256134954792913 -32.086505775471842 7.4311809149105148 #
edge $-1 $445 1 $445 0 $257 $-1 forward 7 unknown #
vertex $-1 $258 $446 #
ellipse-curve $-1 76.211630897716589 -30.73140537039712 6.5511684506241821 0 -0.83867057594974714 0.54463902268945019 1.5 0 0 1 I I #
point $-1 77.711630897716589 -32.086505775471842 7.4311809149105148 #
plane-surface $-1 0 36.39378971141646 0 0 -1 0 0 0 -1 forward_v I I I I #
coedge $-1 $447 $264 $269 $375 forward $172 $-1 #
coedge $-1 $264 $447 $372 $448 forward $172 $-1 #
edge $-1 $373 28.948322079320278 $380 37.562889951209513 $264 $449 forward 7 unknown #
coedge $-1 $273 $267 $370 $448 reversed $274 $-1 #
vertex $-1 $371 $450 #
straight-curve $-1 61.663641716586781 36.39378971141646 74.410351940068111 0 0 1 I I #
edge $-1 $380 26.285574239190325 $378 44.470560715602588 $369 $451 forward 7 unknown #
coedge $-1 $377 $270 $273 $382 reversed $262 $-1 #
coedge $-1 $270 $376 $447 $452 reversed $262 $-1 #
vertex $-1 $452 $453 #
straight-curve $-1 79.848628192999058 11.356913236592069 39.35195520672778 0 0.54463902268945019 -0.83867057594974714 I I #
vertex $-1 $375 $454 #
straight-curve $-1 61.663641716586781 -3.249166409366012 61.84334623587965 0 0.54463902268945019 -0.83867057594974714 I I #
edge $-1 $455 -14.063816750476656 $275 -0.79854507934438124 $376 $456 forward 7 unknown #
point $-1 79.848628192999058 36.39378971141646 0.79854507934438124 #
point $-1 61.663641716586781 36.39378971141646 0.79854507934437891 #
edge $-1 $457 1 $457 0 $278 $-1 forward 7 unknown #
vertex $-1 $279 $458 #
ellipse-curve $-1 65.300639011869237 30.731405370397106 6.5511684506241892 0 0.83867057594974714 0.54463902268945019 1.5 0 0 1 I I #
point $-1 66.800639011869237 32.086505775471828 7.4311809149105219 #
edge $-1 $459 1 $459 0 $282 $-1 forward 7 unknown #
vertex $-1 $283 $460 #
ellipse-curve $-1 70.756134954792913 30.731405370397106 6.5511684506241892 0 0.83867057594974714 0.54463902268945019 1.5 0 0 1 I I #
point $-1 72.256134954792913 32.086505775471828 7.4311809149105219 #
edge $-1 $461 1 $461 0 $286 $-1 forward 7 unknown #
vertex $-1 $287 $462 #
ellipse-curve $-1 76.211630897716589 30.731405370397106 6.5511684506241892 0 0.83867057594974714 0.54463902268945019 1.5 0 0 1 I I #
point $-1 77.711630897716589 32.086505775471828 7.4311809149105219 #
plane-surface $-1 79.848628192999058 0 0 -1 0 0 0 0 1 forward_v I I I I #
coedge $-1 $295 $293 $297 $402 reversed $201 $-1 #
edge $-1 $308 -14.063816750476656 $404 14.063816750476656 $307 $463 forward 7 unknown #
vertex $-1 $402 $464 #
straight-curve $-1 -79.848628192999058 -36.39378971141646 0 0 0 -1 I I #
edge $-1 $400 -36.39378971141646 $404 36.39378971141646 $398 $465 forward 7 unknown #
straight-curve $-1 0 -36.39378971141646 -14.063816750476656 -1 0 0 I I #
vertex $-1 $300 $466 #
straight-curve $-1 0 36.39378971141646 -14.063816750476656 1 0 0 I I #
point $-1 79.848628192999058 36.39378971141646 -14.063816750476656 #
point $-1 79.848628192999058 -36.39378971141646 -14.063816750476656 #
straight-curve $-1 -79.848628192999058 0 14.063816750476656 0 -1 0 I I #
point $-1 -79.848628192999058 36.39378971141646 14.063816750476656 #
point $-1 -79.848628192999058 -36.39378971141646 14.063816750476656 #
straight-curve $-1 79.848628192999058 -36.39378971141646 0 0 0 -1 I I #
straight-curve $-1 79.848628192999058 36.39378971141646 0 0 0 -1 I I #
plane-surface $-1 0 -36.39378971141646 0 0 1 0 0 0 1 forward_v I I I I #
coedge $-1 $467 $320 $417 $468 reversed $220 $-1 #
coedge $-1 $320 $467 $334 $428 reversed $220 $-1 #
edge $-1 $420 -4.0583641860448632 $418 4.0583641860448623 $321 $469 forward 7 unknown #
coedge $-1 $322 $423 $414 $468 forward $318 $-1 #
vertex $-1 $323 $470 #
straight-curve $-1 0 36.39378971141646 -14.063816750476656 1 0 0 I I #
vertex $-1 $324 $471 #
straight-curve $-1 -85.656220093769107 36.39378971141646 -5.9470883783869288 -1 0 0 I I #
point $-1 -79.848628192999058 36.39378971141646 -14.063816750476656 #
coedge $-1 $417 $327 $330 $426 forward $318 $-1 #
straight-curve $-1 -79.848628192999058 0 -14.063816750476656 0 -1 0 I I #
coedge $-1 $330 $329 $467 $472 forward $331 $-1 #
edge $-1 $332 -5.8075919007700492 $473 5.8075919007700492 $330 $474 forward 7 unknown #
point $-1 -79.848628192999058 -36.39378971141646 -14.063816750476656 #
edge $-1 $420 -36.39378971141646 $429 36.39378971141646 $415 $475 forward 7 unknown #
vertex $-1 $428 $476 #
straight-curve $-1 -85.656220093769107 -36.39378971141646 -5.9470883783869288 1 0 0 I I #
coedge $-1 $341 $340 $348 $436 reversed $143 $-1 #
edge $-1 $344 61.663641716586781 $439 79.848628192999058 $341 $477 forward 7 unknown #
straight-curve $-1 61.663641716586781 -36.39378971141646 43.887951361800475 0 0 -1 I I #
point $-1 61.663641716586781 -36.39378971141646 14.063816750476656 #
straight-curve $-1 35.378067477396456 -36.39378971141646 0.79854507934436048 1 0 0 I I #
edge $-1 $439 -14.063816750476656 $349 -0.79854507934435703 $348 $478 forward 7 unknown #
point $-1 79.848628192999044 -36.39378971141646 0.79854507934435703 #
point $-1 61.663641716586781 -36.39378971141646 0.79854507934435703 #
vertex $-1 $353 $479 #
straight-curve $-1 79.848628192999058 0 14.063816750476656 0 1 0 I I #
vertex $-1 $356 $480 #
point $-1 66.800639011869237 -30.73140537039712 6.5511684506241821 #
vertex $-1 $360 $481 #
point $-1 72.256134954792913 -30.73140537039712 6.5511684506241821 #
vertex $-1 $364 $482 #
point $-1 77.711630897716589 -30.73140537039712 6.5511684506241821 #
coedge $-1 $370 $369 $377 $452 forward $172 $-1 #
edge $-1 $455 -79.848628192999058 $373 -61.663641716586781 $372 $483 forward 7 unknown #
straight-curve $-1 61.663641716586781 65.342111790736737 14.063816750476661 0 -1 0 I I #
point $-1 61.663641716586781 36.39378971141646 14.063816750476656 #
straight-curve $-1 35.378067477396456 27.779221839527228 14.063816750476654 1 0 0 I I #
edge $-1 $378 27.779221839527224 $455 36.39378971141646 $377 $484 forward 7 unknown #
point $-1 79.848628192999044 27.779221839527224 14.063816750476654 #
point $-1 61.663641716586781 27.779221839527224 14.063816750476654 #
vertex $-1 $452 $485 #
straight-curve $-1 79.848628192999058 36.39378971141646 0 0 0 -1 I I #
vertex $-1 $385 $486 #
point $-1 66.800639011869237 30.731405370397106 6.5511684506241892 #
vertex $-1 $389 $487 #
point $-1 72.256134954792913 30.731405370397106 6.5511684506241892 #
vertex $-1 $393 $488 #
point $-1 77.711630897716589 30.731405370397106 6.5511684506241892 #
straight-curve $-1 -79.848628192999058 36.39378971141646 0 0 0 -1 I I #
point $-1 -79.848628192999058 -36.39378971141646 -14.063816750476656 #
straight-curve $-1 -79.848628192999058 0 -14.063816750476656 0 1 0 I I #
point $-1 -79.848628192999058 36.39378971141646 -14.063816750476656 #
coedge $-1 $415 $414 $425 $472 reversed $220 $-1 #
edge $-1 $473 -36.39378971141646 $418 36.39378971141646 $414 $489 forward 7 unknown #
straight-curve $-1 -91.463811994539157 36.39378971141646 -10.005452564431792 0 0 -1 I I #
point $-1 -91.463811994539157 36.39378971141646 -14.063816750476654 #
point $-1 -91.463811994539157 36.39378971141646 -5.9470883783869288 #
edge $-1 $429 -4.0583641860448632 $473 4.0583641860448623 $467 $490 forward 7 unknown #
vertex $-1 $468 $491 #
straight-curve $-1 -85.656220093769107 -36.39378971141646 -14.063816750476654 -1 0 0 I I #
straight-curve $-1 -91.463811994539157 0 -5.9470883783869288 0 -1 0 I I #
point $-1 -91.463811994539157 -36.39378971141646 -5.9470883783869288 #
straight-curve $-1 0 -36.39378971141646 14.063816750476656 1 0 0 I I #
straight-curve $-1 79.848628192999058 -36.39378971141646 0 0 0 -1 I I #
point $-1 79.848628192999058 -36.39378971141646 14.063816750476656 #
point $-1 65.300639011869237 -29.473399506472497 5.7342099165900073 #
point $-1 70.756134954792913 -29.473399506472497 5.7342099165900073 #
point $-1 76.211630897716589 -29.473399506472497 5.7342099165900073 #
straight-curve $-1 0 36.39378971141646 14.063816750476656 -1 0 0 I I #
straight-curve $-1 79.848628192999058 0 14.063816750476656 0 1 0 I I #
point $-1 79.848628192999058 36.39378971141646 14.063816750476656 #
point $-1 65.300639011869237 29.473399506472482 5.7342099165900144 #
point $-1 70.756134954792913 29.473399506472482 5.7342099165900144 #
point $-1 76.211630897716589 29.473399506472482 5.7342099165900144 #
straight-curve $-1 -91.463811994539157 0 -14.063816750476654 0 1 0 I I #
straight-curve $-1 -91.463811994539157 -36.39378971141646 -10.005452564431792 0 0 -1 I I #
point $-1 -91.463811994539157 -36.39378971141646 -14.063816750476654 #
End-of-ACIS-data 