500 0 7 0           
7 Unknown 11 ACIS 5.0 NT 24 Fri Mar 26 17:25:44 1999 
-1 9.9999999999999995e-007 1e-010 
body $-1 $7 $-1 $8 #
body $-1 $9 $-1 $10 #
body $-1 $11 $-1 $12 #
body $-1 $13 $-1 $14 #
body $-1 $15 $-1 $16 #
body $-1 $17 $-1 $18 #
body $-1 $19 $-1 $20 #
lump $-1 $-1 $21 $0 #
transform $-1 1 0 0 0 1 0 0 0 1 78.161564989165925 37.537683755257078 11.657107907955991 1 rotate no_reflect no_shear #
lump $-1 $-1 $22 $1 #
transform $-1 1 0 0 0 1 0 0 0 1 78.161564989165925 37.537683755257078 11.657107907955991 1 rotate no_reflect no_shear #
lump $-1 $-1 $23 $2 #
transform $-1 1 0 0 0 1 0 0 0 1 78.161564989165925 37.537683755257078 11.657107907955991 1 rotate no_reflect no_shear #
lump $-1 $-1 $24 $3 #
transform $-1 1 0 0 0 1 0 0 0 1 78.161564989165925 37.537683755257078 11.657107907955991 1 rotate no_reflect no_shear #
lump $-1 $-1 $25 $4 #
transform $-1 1 0 0 0 1 0 0 0 1 78.161564989165925 37.537683755257078 11.657107907955991 1 rotate no_reflect no_shear #
lump $-1 $-1 $26 $5 #
transform $-1 1 0 0 0 1 0 0 0 1 78.161564989165925 37.537683755257078 11.657107907955991 1 rotate no_reflect no_shear #
lump $-1 $-1 $27 $6 #
transform $-1 1 0 0 0 1 0 0 0 1 78.161564989165925 37.537683755257078 11.657107907955991 1 rotate no_reflect no_shear #
shell $-1 $-1 $-1 $28 $-1 $7 #
shell $-1 $-1 $-1 $29 $-1 $9 #
shell $-1 $-1 $-1 $30 $-1 $11 #
shell $-1 $-1 $-1 $31 $-1 $13 #
shell $-1 $-1 $-1 $32 $-1 $15 #
shell $-1 $-1 $-1 $33 $-1 $17 #
shell $-1 $-1 $-1 $34 $-1 $19 #
face $-1 $35 $36 $21 $-1 $37 forward single #
face $-1 $38 $39 $22 $-1 $40 forward single #
face $-1 $41 $42 $23 $-1 $43 forward single #
face $-1 $44 $45 $24 $-1 $46 reversed single #
face $-1 $47 $48 $25 $-1 $49 forward single #
face $-1 $50 $51 $26 $-1 $52 forward single #
face $-1 $53 $54 $27 $-1 $55 forward single #
face $-1 $56 $57 $21 $-1 $58 reversed single #
loop $-1 $-1 $59 $28 #
plane-surface $-1 0 0 11.657107907955991 0 0 1 1 0 0 forward_v I I I I #
face $-1 $60 $61 $22 $-1 $62 reversed single #
loop $-1 $-1 $63 $29 #
plane-surface $-1 -71.440063121802808 0 -6.9682927362781886 0 0 1 1 0 0 forward_v I I I I #
face $-1 $64 $65 $23 $-1 $66 reversed single #
loop $-1 $-1 $67 $30 #
plane-surface $-1 71.440063121802808 0 -6.9682927362781886 0 0 1 1 0 0 forward_v I I I I #
face $-1 $68 $69 $24 $-1 $70 reversed single #
loop $-1 $-1 $71 $31 #
plane-surface $-1 48.921204260352376 -146.12885576676229 116.59583452947361 1 0 0 0 0.69465837861970381 -0.71933979245794832 forward_v I I I I #
face $-1 $72 $73 $25 $-1 $74 forward single #
loop $-1 $75 $76 $32 #
cone-surface $-1 52.080675659169856 -32.754314978472209 6.9753835293567139 0 0.69465837861970381 -0.71933979245794832 1.5 0 0 1 I I 0 1 1.5 forward I I I I #
face $-1 $77 $78 $26 $-1 $79 forward single #
loop $-1 $80 $81 $33 #
cone-surface $-1 56.819882757396044 -32.754314978472209 6.9753835293567139 0 0.69465837861970381 -0.71933979245794832 1.5 0 0 1 I I 0 1 1.5 forward I I I I #
face $-1 $82 $83 $27 $-1 $84 forward single #
loop $-1 $85 $86 $34 #
cone-surface $-1 61.559089855622233 -32.754314978472209 6.9753835293567139 0 0.69465837861970381 -0.71933979245794832 1.5 0 0 1 I I 0 1 1.5 forward I I I I #
face $-1 $87 $88 $21 $-1 $89 reversed single #
loop $-1 $-1 $90 $35 #
plane-surface $-1 0 0 -11.657107907955991 0 0 1 1 0 0 forward_v I I I I #
coedge $-1 $91 $92 $93 $94 forward $36 $-1 #
face $-1 $95 $96 $22 $-1 $97 reversed single #
loop $-1 $-1 $98 $38 #
plane-surface $-1 -71.440063121802808 0 -10.014217797661216 0 0 1 1 0 0 forward_v I I I I #
coedge $-1 $99 $100 $101 $102 forward $39 $-1 #
face $-1 $103 $104 $23 $-1 $105 reversed single #
loop $-1 $-1 $106 $41 #
plane-surface $-1 71.440063121802808 0 -10.014217797661216 0 0 1 1 0 0 forward_v I I I I #
coedge $-1 $107 $108 $109 $110 reversed $42 $-1 #
face $-1 $111 $112 $24 $-1 $113 reversed single #
loop $-1 $-1 $114 $44 #
plane-surface $-1 56.819882757396044 -37.537683755257063 4.1463866544834929 0 -0.69465837861970381 0.71933979245794832 1 0 0 forward_v I I I I #
coedge $-1 $115 $116 $117 $118 reversed $45 $-1 #
face $-1 $-1 $119 $25 $-1 $120 forward single #
loop $-1 $121 $122 $47 #
cone-surface $-1 52.080675659169856 -31.338742097635262 5.509514933150216 0 0.69465837861970381 -0.71933979245794832 0.75 0 0 1 I I -0.70710678118654757 0.70710678118654757 0.75 forward I I I I #
loop $-1 $-1 $123 $32 #
coedge $-1 $76 $76 $124 $125 reversed $48 $-1 #
face $-1 $-1 $126 $26 $-1 $127 forward single #
loop $-1 $128 $129 $50 #
cone-surface $-1 56.819882757396044 -31.338742097635262 5.509514933150216 0 0.69465837861970381 -0.71933979245794832 0.75 0 0 1 I I -0.70710678118654757 0.70710678118654757 0.75 forward I I I I #
loop $-1 $-1 $130 $33 #
coedge $-1 $81 $81 $131 $132 reversed $51 $-1 #
face $-1 $-1 $133 $27 $-1 $134 forward single #
loop $-1 $135 $136 $53 #
cone-surface $-1 61.559089855622233 -31.338742097635262 5.509514933150216 0 0.69465837861970381 -0.71933979245794832 0.75 0 0 1 I I -0.70710678118654757 0.70710678118654757 0.75 forward I I I I #
loop $-1 $-1 $137 $34 #
coedge $-1 $86 $86 $138 $139 reversed $54 $-1 #
face $-1 $140 $141 $21 $-1 $142 reversed single #
loop $-1 $-1 $143 $56 #
plane-surface $-1 0 -37.537683755257078 0 0 1 0 0 0 1 forward_v I I I I #
coedge $-1 $144 $145 $146 $147 forward $57 $-1 #
coedge $-1 $148 $59 $149 $150 forward $36 $-1 #
coedge $-1 $59 $148 $151 $152 forward $36 $-1 #
coedge $-1 $153 $154 $59 $94 reversed $155 $-1 #
edge $-1 $156 -37.537683755257078 $157 37.537683755257078 $93 $158 forward 7 unknown #
face $-1 $159 $160 $22 $-1 $161 reversed single #
loop $-1 $-1 $162 $60 #
plane-surface $-1 -64.718561254439692 0 -8.4912552669697021 -1 0 0 0 0 1 forward_v I I I I #
coedge $-1 $163 $164 $165 $166 forward $61 $-1 #
coedge $-1 $167 $63 $168 $169 reversed $39 $-1 #
coedge $-1 $63 $167 $170 $171 reversed $39 $-1 #
coedge $-1 $162 $172 $63 $102 reversed $96 $-1 #
edge $-1 $173 -37.537683755257078 $174 37.537683755257078 $101 $175 forward 7 unknown #
face $-1 $176 $177 $23 $-1 $178 reversed single #
loop $-1 $-1 $179 $64 #
plane-surface $-1 64.718561254439692 0 -8.4912552669697021 1 0 0 0 0 -1 forward_v I I I I #
coedge $-1 $180 $181 $182 $183 reversed $65 $-1 #
coedge $-1 $184 $67 $185 $186 reversed $42 $-1 #
coedge $-1 $67 $184 $187 $188 reversed $42 $-1 #
coedge $-1 $189 $190 $67 $110 forward $191 $-1 #
edge $-1 $192 -37.537683755257078 $193 37.537683755257078 $109 $194 forward 7 unknown #
face $-1 $195 $196 $24 $-1 $197 forward single #
loop $-1 $-1 $198 $68 #
plane-surface $-1 64.71856125443972 -146.12885576676229 116.59583452947361 -1 0 0 0 -0.69465837861970381 0.71933979245794832 forward_v I I I I #
coedge $-1 $199 $200 $201 $202 reversed $69 $-1 #
coedge $-1 $116 $71 $203 $204 reversed $45 $-1 #
coedge $-1 $71 $115 $199 $205 reversed $45 $-1 #
coedge $-1 $201 $206 $71 $118 forward $207 $-1 #
edge $-1 $208 46.640809356780814 $209 54.151530610253324 $117 $210 forward 7 unknown #
loop $-1 $-1 $124 $72 #
plane-surface $-1 56.819882757396044 -37.537683755257063 4.1463866544834929 0 -0.69465837861970381 0.71933979245794832 1 0 0 forward_v I I I I #
loop $-1 $-1 $211 $47 #
coedge $-1 $122 $122 $123 $212 reversed $73 $-1 #
coedge $-1 $123 $123 $122 $212 forward $75 $-1 #
coedge $-1 $124 $124 $76 $125 forward $119 $-1 #
edge $-1 $213 2.2340929996682203e-015 $213 6.2831853071796031 $124 $214 forward 7 unknown #
loop $-1 $-1 $131 $77 #
plane-surface $-1 56.819882757396044 -37.537683755257063 4.1463866544834929 0 -0.69465837861970381 0.71933979245794832 1 0 0 forward_v I I I I #
loop $-1 $-1 $215 $50 #
coedge $-1 $129 $129 $130 $216 reversed $78 $-1 #
coedge $-1 $130 $130 $129 $216 forward $80 $-1 #
coedge $-1 $131 $131 $81 $132 forward $126 $-1 #
edge $-1 $217 2.2340929996682203e-015 $217 6.2831853071796031 $131 $218 forward 7 unknown #
loop $-1 $-1 $138 $82 #
plane-surface $-1 56.819882757396044 -37.537683755257063 4.1463866544834929 0 -0.69465837861970381 0.71933979245794832 1 0 0 forward_v I I I I #
loop $-1 $-1 $219 $53 #
coedge $-1 $136 $136 $137 $220 reversed $83 $-1 #
coedge $-1 $137 $137 $136 $220 forward $85 $-1 #
coedge $-1 $138 $138 $86 $139 forward $133 $-1 #
edge $-1 $221 2.2340929996682203e-015 $221 6.2831853071796031 $138 $222 forward 7 unknown #
face $-1 $223 $224 $21 $-1 $225 reversed single #
loop $-1 $-1 $226 $87 #
plane-surface $-1 -78.161564989165925 0 0 1 0 0 0 0 -1 forward_v I I I I #
coedge $-1 $227 $151 $228 $229 forward $88 $-1 #
coedge $-1 $230 $90 $227 $231 forward $57 $-1 #
coedge $-1 $90 $230 $232 $233 forward $57 $-1 #
coedge $-1 $154 $153 $90 $147 reversed $155 $-1 #
edge $-1 $234 -37.537683755257078 $235 37.537683755257078 $146 $236 forward 7 unknown #
coedge $-1 $92 $91 $237 $238 forward $36 $-1 #
coedge $-1 $239 $240 $91 $150 reversed $224 $-1 #
edge $-1 $157 -78.161564989165925 $241 78.161564989165925 $149 $242 forward 7 unknown #
coedge $-1 $143 $243 $92 $152 reversed $88 $-1 #
edge $-1 $244 -78.161564989165925 $156 78.161564989165925 $151 $245 forward 7 unknown #
coedge $-1 $146 $93 $243 $246 forward $155 $-1 #
coedge $-1 $93 $146 $239 $247 reversed $155 $-1 #
loop $-1 $-1 $153 $223 #
vertex $-1 $94 $248 #
vertex $-1 $94 $249 #
straight-curve $-1 78.161564989165925 0 11.657107907955991 0 1 0 I I #
face $-1 $250 $251 $22 $-1 $252 reversed single #
loop $-1 $-1 $253 $95 #
plane-surface $-1 0 -37.537683755257078 0 0 1 0 0 0 1 forward_v I I I I #
coedge $-1 $165 $101 $254 $255 reversed $96 $-1 #
coedge $-1 $256 $98 $253 $257 reversed $61 $-1 #
coedge $-1 $98 $256 $258 $259 reversed $61 $-1 #
coedge $-1 $172 $162 $98 $166 reversed $96 $-1 #
edge $-1 $260 -37.537683755257078 $261 37.537683755257078 $165 $262 forward 7 unknown #
coedge $-1 $100 $99 $263 $264 reversed $39 $-1 #
coedge $-1 $265 $266 $99 $169 forward $267 $-1 #
edge $-1 $268 -42.44153342826452 $174 -28.998529693538288 $168 $269 forward 7 unknown #
coedge $-1 $270 $254 $100 $171 forward $160 $-1 #
edge $-1 $173 28.998529693538288 $271 42.44153342826452 $170 $272 forward 7 unknown #
coedge $-1 $101 $165 $265 $273 reversed $96 $-1 #
vertex $-1 $171 $274 #
vertex $-1 $169 $275 #
straight-curve $-1 -64.718561254439692 0 -6.9682927362781886 0 1 0 I I #
face $-1 $276 $277 $23 $-1 $278 reversed single #
loop $-1 $-1 $187 $103 #
plane-surface $-1 0 -37.537683755257078 0 0 1 0 0 0 1 forward_v I I I I #
coedge $-1 $279 $280 $281 $282 reversed $104 $-1 #
coedge $-1 $283 $106 $284 $285 reversed $65 $-1 #
coedge $-1 $106 $283 $286 $287 reversed $65 $-1 #
coedge $-1 $190 $189 $106 $183 forward $191 $-1 #
edge $-1 $288 -37.537683755257078 $289 37.537683755257078 $182 $290 forward 7 unknown #
coedge $-1 $108 $107 $280 $291 forward $42 $-1 #
coedge $-1 $292 $281 $107 $186 forward $277 $-1 #
edge $-1 $293 28.998529693538288 $192 42.44153342826452 $185 $294 forward 7 unknown #
coedge $-1 $295 $296 $108 $188 forward $177 $-1 #
edge $-1 $193 -42.44153342826452 $297 -28.998529693538288 $187 $298 forward 7 unknown #
coedge $-1 $182 $109 $296 $299 forward $191 $-1 #
coedge $-1 $109 $182 $292 $300 reversed $191 $-1 #
loop $-1 $-1 $109 $276 #
vertex $-1 $300 $301 #
vertex $-1 $299 $302 #
straight-curve $-1 78.161564989165925 0 -6.9682927362781886 0 -1 0 I I #
face $-1 $-1 $207 $24 $-1 $303 reversed single #
loop $-1 $-1 $304 $111 #
plane-surface $-1 0 0 11.657107907955991 0 0 1 1 0 0 forward_v I I I I #
coedge $-1 $305 $306 $307 $308 reversed $112 $-1 #
coedge $-1 $309 $114 $116 $205 forward $69 $-1 #
coedge $-1 $114 $309 $305 $310 forward $69 $-1 #
coedge $-1 $307 $117 $114 $202 forward $207 $-1 #
edge $-1 $209 20.511262881654353 $311 36.308619875741698 $201 $312 forward 7 unknown #
coedge $-1 $313 $314 $115 $204 forward $196 $-1 #
edge $-1 $315 -43.30432348794951 $208 -35.526744128124065 $203 $316 forward 7 unknown #
edge $-1 $209 -1.9477141995791963e-014 $315 10.812107770723802 $116 $317 forward 7 unknown #
coedge $-1 $117 $307 $313 $318 reversed $207 $-1 #
loop $-1 $-1 $307 $195 #
vertex $-1 $318 $319 #
vertex $-1 $118 $320 #
straight-curve $-1 48.921204260352376 -37.537683755257078 58.297917264736803 0 0 -1 I I #
coedge $-1 $211 $211 $-1 $321 reversed $121 $-1 #
edge $-1 $322 0 $322 6.2831853071796004 $122 $323 forward 7 unknown #
vertex $-1 $125 $324 #
ellipse-curve $-1 52.080675659169856 -33.648894075344359 7.9017472812197322 0 -0.69465837861970381 0.71933979245794832 1.5 0 0 1 I I #
coedge $-1 $215 $215 $-1 $325 reversed $128 $-1 #
edge $-1 $326 0 $326 6.2831853071796004 $129 $327 forward 7 unknown #
vertex $-1 $132 $328 #
ellipse-curve $-1 56.819882757396044 -33.648894075344359 7.9017472812197322 0 -0.69465837861970381 0.71933979245794832 1.5 0 0 1 I I #
coedge $-1 $219 $219 $-1 $329 reversed $135 $-1 #
edge $-1 $330 0 $330 6.2831853071796004 $136 $331 forward 7 unknown #
vertex $-1 $139 $332 #
ellipse-curve $-1 61.559089855622233 -33.648894075344359 7.9017472812197322 0 -0.69465837861970381 0.71933979245794832 1.5 0 0 1 I I #
face $-1 $-1 $155 $21 $-1 $333 reversed single #
loop $-1 $-1 $239 $140 #
plane-surface $-1 0 37.537683755257078 0 0 -1 0 0 0 -1 forward_v I I I I #
coedge $-1 $334 $237 $240 $335 forward $141 $-1 #
coedge $-1 $243 $143 $144 $231 reversed $88 $-1 #
coedge $-1 $237 $334 $143 $229 reversed $141 $-1 #
edge $-1 $244 -11.657107907955991 $336 11.657107907955991 $228 $337 forward 7 unknown #
coedge $-1 $145 $144 $334 $338 forward $57 $-1 #
edge $-1 $235 -78.161564989165925 $336 78.161564989165925 $227 $339 forward 7 unknown #
coedge $-1 $240 $239 $145 $233 reversed $224 $-1 #
edge $-1 $340 -78.161564989165925 $234 78.161564989165925 $232 $341 forward 7 unknown #
vertex $-1 $147 $342 #
vertex $-1 $246 $343 #
straight-curve $-1 78.161564989165925 0 -11.657107907955991 0 -1 0 I I #
coedge $-1 $226 $228 $148 $238 reversed $141 $-1 #
edge $-1 $241 -37.537683755257078 $244 37.537683755257078 $237 $344 forward 7 unknown #
coedge $-1 $232 $149 $154 $247 forward $224 $-1 #
coedge $-1 $149 $232 $226 $335 reversed $224 $-1 #
vertex $-1 $150 $345 #
straight-curve $-1 0 37.537683755257078 11.657107907955991 -1 0 0 I I #
coedge $-1 $151 $227 $153 $246 reversed $88 $-1 #
vertex $-1 $238 $346 #
straight-curve $-1 0 -37.537683755257078 11.657107907955991 1 0 0 I I #
edge $-1 $156 -11.657107907955991 $235 11.657107907955991 $153 $347 forward 7 unknown #
edge $-1 $157 -11.657107907955991 $234 11.657107907955991 $154 $348 forward 7 unknown #
point $-1 78.161564989165925 -37.537683755257078 11.657107907955991 #
point $-1 78.161564989165925 37.537683755257078 11.657107907955991 #
face $-1 $-1 $267 $22 $-1 $349 reversed single #
loop $-1 $-1 $350 $159 #
plane-surface $-1 -78.161564989165925 0 0 1 0 0 0 0 -1 forward_v I I I I #
coedge $-1 $254 $270 $163 $257 forward $160 $-1 #
coedge $-1 $170 $253 $162 $255 forward $160 $-1 #
edge $-1 $261 -5.7685901641763646 $173 -2.7226651027933375 $254 $351 forward 7 unknown #
coedge $-1 $164 $163 $350 $352 reversed $61 $-1 #
edge $-1 $353 -42.44153342826452 $261 -28.998529693538288 $253 $354 forward 7 unknown #
coedge $-1 $266 $265 $164 $259 forward $267 $-1 #
edge $-1 $260 28.998529693538288 $355 42.44153342826452 $258 $356 forward 7 unknown #
vertex $-1 $259 $357 #
vertex $-1 $257 $358 #
straight-curve $-1 -64.718561254439692 0 -10.014217797661216 0 -1 0 I I #
coedge $-1 $359 $360 $167 $264 forward $251 $-1 #
edge $-1 $271 -37.537683755257078 $268 37.537683755257078 $263 $361 forward 7 unknown #
coedge $-1 $258 $168 $172 $273 forward $267 $-1 #
coedge $-1 $168 $258 $359 $362 reversed $267 $-1 #
loop $-1 $-1 $258 $250 #
vertex $-1 $362 $363 #
straight-curve $-1 -35.720031560901404 37.537683755257078 -6.9682927362781886 1 0 0 I I #
coedge $-1 $253 $170 $360 $364 forward $160 $-1 #
vertex $-1 $364 $365 #
straight-curve $-1 -35.720031560901404 -37.537683755257078 -6.9682927362781886 -1 0 0 I I #
edge $-1 $174 2.7226651027933375 $260 5.7685901641763646 $265 $366 forward 7 unknown #
point $-1 -64.718561254439692 -37.537683755257078 -6.9682927362781886 #
point $-1 -64.718561254439692 37.537683755257078 -6.9682927362781886 #
face $-1 $-1 $191 $23 $-1 $367 reversed single #
loop $-1 $-1 $185 $176 #
plane-surface $-1 0 37.537683755257078 0 0 -1 0 0 0 -1 forward_v I I I I #
coedge $-1 $368 $179 $283 $369 reversed $104 $-1 #
coedge $-1 $179 $368 $184 $291 reversed $104 $-1 #
coedge $-1 $185 $286 $179 $282 forward $277 $-1 #
edge $-1 $370 -5.7685901641763646 $293 -2.7226651027933375 $281 $371 forward 7 unknown #
coedge $-1 $181 $180 $279 $369 forward $65 $-1 #
coedge $-1 $296 $295 $180 $285 forward $177 $-1 #
edge $-1 $372 28.998529693538288 $288 42.44153342826452 $284 $373 forward 7 unknown #
coedge $-1 $281 $292 $181 $287 forward $277 $-1 #
edge $-1 $289 -42.44153342826452 $370 -28.998529693538288 $286 $374 forward 7 unknown #
vertex $-1 $183 $375 #
vertex $-1 $183 $376 #
straight-curve $-1 78.161564989165925 0 -10.014217797661216 0 1 0 I I #
edge $-1 $293 -37.537683755257078 $297 37.537683755257078 $280 $377 forward 7 unknown #
coedge $-1 $286 $185 $190 $300 forward $277 $-1 #
vertex $-1 $186 $378 #
straight-curve $-1 35.720031560901404 37.537683755257078 -6.9682927362781886 1 0 0 I I #
coedge $-1 $284 $187 $368 $379 forward $177 $-1 #
coedge $-1 $187 $284 $189 $299 reversed $177 $-1 #
vertex $-1 $188 $380 #
straight-curve $-1 35.720031560901404 -37.537683755257078 -6.9682927362781886 -1 0 0 I I #
edge $-1 $193 6.9682927362781886 $288 10.014217797661216 $189 $381 forward 7 unknown #
edge $-1 $192 6.9682927362781886 $289 10.014217797661216 $190 $382 forward 7 unknown #
point $-1 78.161564989165925 37.537683755257078 -6.9682927362781886 #
point $-1 78.161564989165925 -37.537683755257078 -6.9682927362781886 #
plane-surface $-1 0 -37.537683755257078 0 0 1 0 0 0 1 forward_v I I I I #
coedge $-1 $314 $313 $306 $383 forward $196 $-1 #
coedge $-1 $306 $198 $200 $310 reversed $112 $-1 #
coedge $-1 $198 $305 $304 $383 reversed $112 $-1 #
coedge $-1 $206 $201 $198 $308 forward $207 $-1 #
edge $-1 $311 -54.151530610253324 $384 -46.640809356780814 $307 $385 forward 7 unknown #
coedge $-1 $200 $199 $314 $386 reversed $69 $-1 #
edge $-1 $387 -10.812107770723802 $311 1.9477141995791963e-014 $305 $388 forward 7 unknown #
vertex $-1 $202 $389 #
straight-curve $-1 28.409941378698022 -37.537683755257078 4.1463866544834778 1 0 0 I I #
coedge $-1 $304 $203 $206 $318 forward $196 $-1 #
coedge $-1 $203 $304 $309 $386 forward $196 $-1 #
vertex $-1 $204 $390 #
straight-curve $-1 48.921204260352376 -73.064427883381143 11.657107907955989 0 -1 0 I I #
straight-curve $-1 48.921204260352376 -37.537683755257063 4.1463866544834929 0 0.71933979245794832 0.69465837861970381 I I #
edge $-1 $208 48.921204260352376 $384 64.71856125443972 $206 $391 forward 7 unknown #
point $-1 48.921204260352376 -37.537683755257078 11.657107907955991 #
point $-1 48.921204260352376 -37.537683755257078 4.1463866544834795 #
edge $-1 $392 1 $392 0 $211 $-1 forward 7 unknown #
vertex $-1 $212 $393 #
ellipse-curve $-1 52.080675659169856 -31.859735881600038 6.0490197774936769 0 -0.69465837861970381 0.71933979245794832 1.5 0 0 1 I I #
point $-1 53.580675659169856 -33.648894075344373 7.9017472812197518 #
edge $-1 $394 1 $394 0 $215 $-1 forward 7 unknown #
vertex $-1 $216 $395 #
ellipse-curve $-1 56.819882757396044 -31.859735881600038 6.0490197774936769 0 -0.69465837861970381 0.71933979245794832 1.5 0 0 1 I I #
point $-1 58.319882757396044 -33.648894075344373 7.9017472812197518 #
edge $-1 $396 1 $396 0 $219 $-1 forward 7 unknown #
vertex $-1 $220 $397 #
ellipse-curve $-1 61.559089855622233 -31.859735881600038 6.0490197774936769 0 -0.69465837861970381 0.71933979245794832 1.5 0 0 1 I I #
point $-1 63.059089855622233 -33.648894075344373 7.9017472812197518 #
plane-surface $-1 78.161564989165925 0 0 -1 0 0 0 0 1 forward_v I I I I #
coedge $-1 $228 $226 $230 $338 reversed $141 $-1 #
edge $-1 $241 -11.657107907955991 $340 11.657107907955991 $240 $398 forward 7 unknown #
vertex $-1 $338 $399 #
straight-curve $-1 -78.161564989165925 -37.537683755257078 0 0 0 -1 I I #
edge $-1 $336 -37.537683755257078 $340 37.537683755257078 $334 $400 forward 7 unknown #
straight-curve $-1 0 -37.537683755257078 -11.657107907955991 -1 0 0 I I #
vertex $-1 $233 $401 #
straight-curve $-1 0 37.537683755257078 -11.657107907955991 1 0 0 I I #
point $-1 78.161564989165925 37.537683755257078 -11.657107907955991 #
point $-1 78.161564989165925 -37.537683755257078 -11.657107907955991 #
straight-curve $-1 -78.161564989165925 0 11.657107907955991 0 -1 0 I I #
point $-1 -78.161564989165925 37.537683755257078 11.657107907955991 #
point $-1 -78.161564989165925 -37.537683755257078 11.657107907955991 #
straight-curve $-1 78.161564989165925 -37.537683755257078 0 0 0 -1 I I #
straight-curve $-1 78.161564989165925 37.537683755257078 0 0 0 -1 I I #
plane-surface $-1 0 37.537683755257078 0 0 -1 0 0 0 -1 forward_v I I I I #
coedge $-1 $360 $359 $256 $352 forward $251 $-1 #
straight-curve $-1 -64.718561254439692 -37.537683755257078 -4.2456276334848511 0 0 1 I I #
edge $-1 $355 -37.537683755257078 $353 37.537683755257078 $350 $402 forward 7 unknown #
vertex $-1 $257 $403 #
straight-curve $-1 -35.720031560901404 -37.537683755257078 -10.014217797661216 1 0 0 I I #
vertex $-1 $259 $404 #
straight-curve $-1 -35.720031560901404 37.537683755257078 -10.014217797661216 -1 0 0 I I #
point $-1 -64.718561254439692 37.537683755257078 -10.014217797661216 #
point $-1 -64.718561254439692 -37.537683755257078 -10.014217797661216 #
coedge $-1 $350 $263 $266 $362 forward $251 $-1 #
coedge $-1 $263 $350 $270 $364 reversed $251 $-1 #
straight-curve $-1 -78.161564989165925 0 -6.9682927362781886 0 1 0 I I #
edge $-1 $268 6.9682927362781886 $355 10.014217797661216 $266 $405 forward 7 unknown #
point $-1 -78.161564989165925 37.537683755257078 -6.9682927362781886 #
edge $-1 $271 6.9682927362781886 $353 10.014217797661216 $360 $406 forward 7 unknown #
point $-1 -78.161564989165925 -37.537683755257078 -6.9682927362781886 #
straight-curve $-1 -64.718561254439692 37.537683755257078 -4.2456276334848511 0 0 -1 I I #
plane-surface $-1 78.161564989165925 0 0 -1 0 0 0 0 1 forward_v I I I I #
coedge $-1 $280 $279 $295 $379 reversed $104 $-1 #
edge $-1 $372 -37.537683755257078 $370 37.537683755257078 $279 $407 forward 7 unknown #
vertex $-1 $287 $408 #
straight-curve $-1 64.718561254439692 37.537683755257078 -4.2456276334848511 0 0 1 I I #
vertex $-1 $285 $409 #
straight-curve $-1 35.720031560901404 -37.537683755257078 -10.014217797661216 1 0 0 I I #
straight-curve $-1 35.720031560901404 37.537683755257078 -10.014217797661216 -1 0 0 I I #
point $-1 78.161564989165925 -37.537683755257078 -10.014217797661216 #
point $-1 78.161564989165925 37.537683755257078 -10.014217797661216 #
straight-curve $-1 64.718561254439692 0 -6.9682927362781886 0 -1 0 I I #
point $-1 64.718561254439692 37.537683755257078 -6.9682927362781886 #
edge $-1 $297 2.7226651027933375 $372 5.7685901641763646 $295 $410 forward 7 unknown #
point $-1 64.718561254439692 -37.537683755257078 -6.9682927362781886 #
straight-curve $-1 78.161564989165925 -37.537683755257078 0 0 0 -1 I I #
straight-curve $-1 78.161564989165925 37.537683755257078 0 0 0 -1 I I #
edge $-1 $384 35.526744128124065 $387 43.30432348794951 $304 $411 forward 7 unknown #
vertex $-1 $383 $412 #
straight-curve $-1 64.71856125443972 -37.537683755257078 58.297917264736803 0 0 1 I I #
edge $-1 $387 -36.308619875741698 $315 -20.511262881654353 $314 $413 forward 7 unknown #
vertex $-1 $386 $414 #
straight-curve $-1 64.71856125443972 -37.537683755257063 4.1463866544834929 0 -0.71933979245794832 -0.69465837861970381 I I #
point $-1 64.71856125443972 -37.537683755257078 4.1463866544834795 #
point $-1 48.921204260352376 -29.760104395431632 11.657107907955991 #
straight-curve $-1 0 -37.537683755257078 11.657107907955991 1 0 0 I I #
vertex $-1 $321 $415 #
point $-1 53.580675659169856 -31.859735881600038 6.0490197774936769 #
vertex $-1 $325 $416 #
point $-1 58.319882757396044 -31.859735881600038 6.0490197774936769 #
vertex $-1 $329 $417 #
point $-1 63.059089855622233 -31.859735881600038 6.0490197774936769 #
straight-curve $-1 -78.161564989165925 37.537683755257078 0 0 0 -1 I I #
point $-1 -78.161564989165925 -37.537683755257078 -11.657107907955991 #
straight-curve $-1 -78.161564989165925 0 -11.657107907955991 0 1 0 I I #
point $-1 -78.161564989165925 37.537683755257078 -11.657107907955991 #
straight-curve $-1 -78.161564989165925 0 -10.014217797661216 0 -1 0 I I #
point $-1 -78.161564989165925 -37.537683755257078 -10.014217797661216 #
point $-1 -78.161564989165925 37.537683755257078 -10.014217797661216 #
straight-curve $-1 -78.161564989165925 37.537683755257078 0 0 0 -1 I I #
straight-curve $-1 -78.161564989165925 -37.537683755257078 0 0 0 -1 I I #
straight-curve $-1 64.718561254439692 0 -10.014217797661216 0 1 0 I I #
point $-1 64.718561254439692 37.537683755257078 -10.014217797661216 #
point $-1 64.718561254439692 -37.537683755257078 -10.014217797661216 #
straight-curve $-1 64.718561254439692 -37.537683755257078 -4.2456276334848511 0 0 -1 I I #
straight-curve $-1 64.71856125443972 -73.064427883381143 11.657107907955989 0 1 0 I I #
point $-1 64.71856125443972 -37.537683755257078 11.657107907955991 #
straight-curve $-1 28.409941378698022 -29.760104395431632 11.657107907955991 -1 0 0 I I #
point $-1 64.71856125443972 -29.760104395431632 11.657107907955991 #
point $-1 52.080675659169856 -30.817748313670485 4.9700100888067551 #
point $-1 56.819882757396044 -30.817748313670485 4.9700100888067551 #
point $-1 61.559089855622233 -30.817748313670485 4.9700100888067551 #
End-of-ACIS-data 