500 0 8 0           
7 Unknown 11 ACIS 5.0 NT 24 Thu Mar 25 15:30:41 1999 
-1 9.9999999999999995e-007 1e-010 
body $-1 $8 $-1 $9 #
body $-1 $10 $-1 $11 #
body $-1 $12 $-1 $13 #
body $-1 $14 $-1 $15 #
body $-1 $16 $-1 $17 #
body $-1 $18 $-1 $19 #
body $-1 $20 $-1 $21 #
body $-1 $22 $-1 $23 #
lump $-1 $-1 $24 $0 #
transform $-1 1 0 0 0 1 0 0 0 1 43.077486495559555 18.218173302698315 4.857753287240377 1 rotate no_reflect no_shear #
lump $-1 $-1 $25 $1 #
transform $-1 1 0 0 0 1 0 0 0 1 43.077486495559555 18.218173302698315 4.857753287240377 1 rotate no_reflect no_shear #
lump $-1 $-1 $26 $2 #
transform $-1 1 0 0 0 1 0 0 0 1 43.077486495559555 18.218173302698315 4.857753287240377 1 rotate no_reflect no_shear #
lump $-1 $-1 $27 $3 #
transform $-1 1 0 0 0 1 0 0 0 1 43.077486495559555 18.218173302698315 4.857753287240377 1 rotate no_reflect no_shear #
lump $-1 $-1 $28 $4 #
transform $-1 1 0 0 0 1 0 0 0 1 43.077486495559555 18.218173302698315 4.857753287240377 1 rotate no_reflect no_shear #
lump $-1 $-1 $29 $5 #
transform $-1 1 0 0 0 1 0 0 0 1 43.077486495559555 18.218173302698315 4.857753287240377 1 rotate no_reflect no_shear #
lump $-1 $-1 $30 $6 #
transform $-1 1 0 0 0 1 0 0 0 1 43.077486495559555 18.218173302698315 4.857753287240377 1 rotate no_reflect no_shear #
lump $-1 $-1 $31 $7 #
transform $-1 1 0 0 0 1 0 0 0 1 43.077486495559555 18.218173302698315 4.857753287240377 1 rotate no_reflect no_shear #
shell $-1 $-1 $-1 $32 $-1 $8 #
shell $-1 $-1 $-1 $33 $-1 $10 #
shell $-1 $-1 $-1 $34 $-1 $12 #
shell $-1 $-1 $-1 $35 $-1 $14 #
shell $-1 $-1 $-1 $36 $-1 $16 #
shell $-1 $-1 $-1 $37 $-1 $18 #
shell $-1 $-1 $-1 $38 $-1 $20 #
shell $-1 $-1 $-1 $39 $-1 $22 #
face $-1 $40 $41 $24 $-1 $42 forward single #
face $-1 $43 $44 $25 $-1 $45 forward single #
face $-1 $46 $47 $26 $-1 $48 reversed single #
face $-1 $49 $50 $27 $-1 $51 reversed single #
face $-1 $52 $53 $28 $-1 $54 forward single #
face $-1 $55 $56 $29 $-1 $57 reversed single #
face $-1 $58 $59 $30 $-1 $60 forward single #
face $-1 $61 $62 $31 $-1 $63 forward single #
face $-1 $64 $65 $24 $-1 $66 reversed single #
loop $-1 $-1 $67 $32 #
plane-surface $-1 0 0 4.857753287240377 0 0 1 1 0 0 forward_v I I I I #
face $-1 $68 $69 $25 $-1 $70 reversed single #
loop $-1 $-1 $71 $33 #
plane-surface $-1 0 -15.103590988679858 -1.857753287240377 0 0 1 1 0 0 forward_v I I I I #
face $-1 $72 $73 $26 $-1 $74 reversed single #
loop $-1 $-1 $75 $34 #
plane-surface $-1 0 15.864000534362422 1.857753287240377 0 0 1 1 0 0 forward_v I I I I #
face $-1 $76 $77 $27 $-1 $78 reversed single #
loop $-1 $-1 $79 $35 #
plane-surface $-1 -100.72641650727469 -8.1103807488769846 64.338072634840017 0 1 0 -0.66913061440640931 0 0.74314481823134659 forward_v I I I I #
face $-1 $80 $81 $28 $-1 $82 forward single #
loop $-1 $83 $84 $36 #
cone-surface $-1 -39.5018688289952 -4.384810228690263 1.4172010308316678 0.66913061440640931 0 -0.74314481823134659 0.74314481823134659 0 0.66913061440640931 1 I I 0 1 1 forward I I I I #
face $-1 $85 $86 $29 $-1 $87 reversed single #
loop $-1 $-1 $88 $37 #
plane-surface $-1 62.137702934974953 -2.0724778762640641 122.15958245038073 0 -1 0 -0.80901700255871778 0 -0.5877852410284794 forward_v I I I I #
face $-1 $89 $90 $30 $-1 $91 forward single #
loop $-1 $92 $93 $38 #
cone-surface $-1 41.519406177917922 -6.541267749696452 3.008182258052265 -0.80901700255871778 0 -0.5877852410284794 0.2938926205142397 0 -0.40450850127935889 1 I I 0 1 0.5 forward I I I I #
face $-1 $94 $95 $31 $-1 $96 forward single #
loop $-1 $97 $98 $39 #
cone-surface $-1 41.519406177917922 -3.8599938256370194 3.008182258052265 -0.80901700255871778 0 -0.5877852410284794 0.2938926205142397 0 -0.40450850127935889 1 I I 0 1 0.5 forward I I I I #
face $-1 $99 $100 $24 $-1 $101 reversed single #
loop $-1 $-1 $102 $40 #
plane-surface $-1 0 0 -4.857753287240377 0 0 1 1 0 0 forward_v I I I I #
coedge $-1 $103 $104 $105 $106 forward $41 $-1 #
face $-1 $107 $108 $25 $-1 $109 reversed single #
loop $-1 $-1 $110 $43 #
plane-surface $-1 0 -11.989008674661402 -3.357753287240377 0 -1 0 0 0 -1 forward_v I I I I #
coedge $-1 $111 $112 $113 $114 reversed $44 $-1 #
face $-1 $115 $116 $26 $-1 $117 reversed single #
loop $-1 $-1 $118 $46 #
plane-surface $-1 0 13.509827766026525 3.357753287240377 0 1 0 0 0 1 forward_v I I I I #
coedge $-1 $119 $120 $121 $122 reversed $47 $-1 #
face $-1 $123 $124 $27 $-1 $125 reversed single #
loop $-1 $-1 $126 $49 #
plane-surface $-1 -43.077486495559562 -4.384810228690263 0.31245089162823092 -0.66913061440640931 0 0.74314481823134659 0.74314481823134659 0 0.66913061440640931 forward_v I I I I #
coedge $-1 $127 $128 $129 $130 reversed $50 $-1 #
face $-1 $-1 $131 $28 $-1 $132 forward single #
loop $-1 $133 $134 $52 #
cone-surface $-1 -38.115720662385726 -4.384810228690263 -0.12227243688663325 0.66913061440640931 0 -0.74314481823134659 0.3715724091156733 0 0.33456530720320465 1 I I -0.70710678118654768 0.70710678118654735 0.5 forward I I I I #
loop $-1 $-1 $135 $36 #
coedge $-1 $84 $84 $136 $137 reversed $53 $-1 #
face $-1 $138 $139 $29 $-1 $140 reversed single #
loop $-1 $-1 $141 $55 #
plane-surface $-1 -7.5631350698275099 -5.2006307876667357 71.518960884993646 0.80901700255871778 0 0.5877852410284794 0.5877852410284794 0 -0.80901700255871778 forward_v I I I I #
coedge $-1 $142 $143 $144 $145 reversed $56 $-1 #
face $-1 $-1 $146 $30 $-1 $147 forward single #
loop $-1 $148 $149 $58 #
cone-surface $-1 40.863281957376017 -6.541267749696452 2.5314801221316339 -0.80901700255871778 0 -0.5877852410284794 0.14694631025711985 0 -0.20225425063967944 1 I I -0.70710678118654746 0.70710678118654746 0.25 forward I I I I #
loop $-1 $-1 $150 $38 #
coedge $-1 $93 $93 $151 $152 reversed $59 $-1 #
face $-1 $-1 $153 $31 $-1 $154 forward single #
loop $-1 $155 $156 $61 #
cone-surface $-1 40.863281957376017 -3.8599938256370194 2.5314801221316339 -0.80901700255871778 0 -0.5877852410284794 0.14694631025711985 0 -0.20225425063967944 1 I I -0.70710678118654746 0.70710678118654746 0.25 forward I I I I #
loop $-1 $-1 $157 $39 #
coedge $-1 $98 $98 $158 $159 reversed $62 $-1 #
face $-1 $160 $161 $24 $-1 $162 reversed single #
loop $-1 $-1 $163 $64 #
plane-surface $-1 0 -18.218173302698315 0 0 1 0 0 0 1 forward_v I I I I #
coedge $-1 $164 $165 $166 $167 forward $65 $-1 #
coedge $-1 $168 $67 $169 $170 forward $41 $-1 #
coedge $-1 $67 $168 $171 $172 forward $41 $-1 #
coedge $-1 $173 $174 $67 $106 reversed $175 $-1 #
edge $-1 $176 -18.218173302698315 $177 18.218173302698315 $105 $178 forward 7 unknown #
face $-1 $179 $180 $25 $-1 $181 reversed single #
loop $-1 $-1 $182 $68 #
plane-surface $-1 0 0 -4.857753287240377 0 0 1 1 0 0 forward_v I I I I #
coedge $-1 $183 $184 $185 $186 reversed $69 $-1 #
coedge $-1 $187 $71 $184 $188 forward $44 $-1 #
coedge $-1 $71 $187 $189 $190 reversed $44 $-1 #
coedge $-1 $191 $185 $71 $114 forward $180 $-1 #
edge $-1 $192 4.4372131803214732 $193 10.666377808358385 $113 $194 forward 7 unknown #
face $-1 $195 $196 $26 $-1 $197 reversed single #
loop $-1 $-1 $198 $72 #
plane-surface $-1 0 18.218173302698315 0 0 -1 0 0 0 -1 forward_v I I I I #
coedge $-1 $199 $200 $201 $202 reversed $73 $-1 #
coedge $-1 $203 $75 $199 $204 forward $47 $-1 #
coedge $-1 $75 $203 $198 $205 reversed $47 $-1 #
coedge $-1 $206 $207 $75 $122 forward $208 $-1 #
edge $-1 $209 5.5778274988453145 $210 10.286173035517107 $121 $211 forward 7 unknown #
face $-1 $212 $213 $27 $-1 $214 reversed single #
loop $-1 $-1 $215 $76 #
plane-surface $-1 -100.72641650727469 -0.65923970850354152 64.338072634840017 0 -1 0 0.66913061440640931 0 -0.74314481823134659 forward_v I I I I #
coedge $-1 $216 $217 $218 $219 reversed $77 $-1 #
coedge $-1 $128 $79 $220 $221 reversed $50 $-1 #
coedge $-1 $79 $127 $216 $222 reversed $50 $-1 #
coedge $-1 $218 $223 $79 $130 forward $224 $-1 #
edge $-1 $225 7.2857217580777913 $226 12.333791372393939 $129 $227 forward 7 unknown #
loop $-1 $-1 $136 $80 #
plane-surface $-1 -43.077486495559562 -4.384810228690263 0.31245089162823092 -0.66913061440640931 0 0.74314481823134659 0.74314481823134659 0 0.66913061440640931 forward_v I I I I #
loop $-1 $-1 $228 $52 #
coedge $-1 $134 $134 $135 $229 reversed $81 $-1 #
coedge $-1 $135 $135 $134 $229 forward $83 $-1 #
coedge $-1 $136 $136 $84 $137 forward $131 $-1 #
edge $-1 $230 0 $230 6.2831853071796004 $136 $231 forward 7 unknown #
face $-1 $232 $233 $29 $-1 $234 forward single #
loop $-1 $-1 $235 $85 #
plane-surface $-1 62.137702934974953 -8.3287836990694082 122.15958245038073 0 1 0 0.80901700255871778 0 0.5877852410284794 forward_v I I I I #
coedge $-1 $236 $237 $238 $239 reversed $86 $-1 #
coedge $-1 $143 $88 $240 $241 reversed $56 $-1 #
coedge $-1 $88 $142 $236 $242 reversed $56 $-1 #
coedge $-1 $238 $243 $88 $145 forward $233 $-1 #
edge $-1 $244 -12.008635028072078 $245 -9.8002143325932849 $144 $246 forward 7 unknown #
loop $-1 $-1 $151 $89 #
plane-surface $-1 -7.5631350698275099 -5.2006307876667357 71.518960884993646 0.80901700255871778 0 0.5877852410284794 0.5877852410284794 0 -0.80901700255871778 forward_v I I I I #
loop $-1 $-1 $247 $58 #
coedge $-1 $149 $149 $150 $248 reversed $90 $-1 #
coedge $-1 $150 $150 $149 $248 forward $92 $-1 #
coedge $-1 $151 $151 $93 $152 forward $146 $-1 #
edge $-1 $249 0 $249 6.2831853071796004 $151 $250 forward 7 unknown #
loop $-1 $-1 $158 $94 #
plane-surface $-1 -7.5631350698275099 -5.2006307876667357 71.518960884993646 0.80901700255871778 0 0.5877852410284794 0.5877852410284794 0 -0.80901700255871778 forward_v I I I I #
loop $-1 $-1 $251 $61 #
coedge $-1 $156 $156 $157 $252 reversed $95 $-1 #
coedge $-1 $157 $157 $156 $252 forward $97 $-1 #
coedge $-1 $158 $158 $98 $159 forward $153 $-1 #
edge $-1 $253 0 $253 6.2831853071796004 $158 $254 forward 7 unknown #
face $-1 $255 $256 $24 $-1 $257 reversed single #
loop $-1 $-1 $258 $99 #
plane-surface $-1 -43.077486495559555 0 0 1 0 0 0 0 -1 forward_v I I I I #
coedge $-1 $259 $171 $260 $261 forward $100 $-1 #
coedge $-1 $262 $102 $259 $263 forward $65 $-1 #
coedge $-1 $102 $262 $264 $265 forward $65 $-1 #
coedge $-1 $174 $173 $102 $167 reversed $175 $-1 #
edge $-1 $266 -18.218173302698315 $267 18.218173302698315 $166 $268 forward 7 unknown #
coedge $-1 $104 $103 $269 $270 forward $41 $-1 #
coedge $-1 $271 $272 $103 $170 reversed $256 $-1 #
edge $-1 $177 -43.077486495559555 $273 43.077486495559555 $169 $274 forward 7 unknown #
coedge $-1 $163 $275 $104 $172 reversed $100 $-1 #
edge $-1 $276 -43.077486495559555 $176 43.077486495559555 $171 $277 forward 7 unknown #
coedge $-1 $166 $105 $275 $278 forward $175 $-1 #
coedge $-1 $105 $166 $271 $279 reversed $175 $-1 #
loop $-1 $-1 $173 $255 #
vertex $-1 $106 $280 #
vertex $-1 $106 $281 #
straight-curve $-1 43.077486495559555 0 4.857753287240377 0 1 0 I I #
face $-1 $282 $283 $25 $-1 $284 reversed single #
loop $-1 $-1 $185 $107 #
plane-surface $-1 43.077486495559555 0 0 -1 0 0 0 0 1 forward_v I I I I #
coedge $-1 $285 $286 $183 $287 forward $108 $-1 #
coedge $-1 $288 $110 $182 $287 reversed $69 $-1 #
coedge $-1 $110 $288 $111 $188 reversed $69 $-1 #
coedge $-1 $113 $289 $110 $186 forward $180 $-1 #
edge $-1 $290 -3.1788766436201885 $192 -0.17887664362018851 $185 $291 forward 7 unknown #
coedge $-1 $112 $111 $292 $293 reversed $44 $-1 #
edge $-1 $192 -43.077486495559555 $294 43.077486495559555 $184 $295 forward 7 unknown #
coedge $-1 $296 $297 $112 $190 forward $283 $-1 #
edge $-1 $193 -43.077486495559555 $298 43.077486495559555 $189 $299 forward 7 unknown #
coedge $-1 $289 $113 $297 $300 forward $180 $-1 #
vertex $-1 $114 $301 #
vertex $-1 $300 $302 #
straight-curve $-1 43.077486495559555 -7.5517954943399292 -1.857753287240377 0 -1 0 I I #
face $-1 $303 $304 $26 $-1 $305 forward single #
loop $-1 $-1 $306 $115 #
plane-surface $-1 -43.077486495559555 0 0 1 0 0 0 0 -1 forward_v I I I I #
coedge $-1 $307 $308 $120 $205 forward $116 $-1 #
coedge $-1 $309 $118 $119 $204 reversed $73 $-1 #
coedge $-1 $118 $309 $310 $311 reversed $73 $-1 #
coedge $-1 $312 $306 $118 $202 forward $196 $-1 #
edge $-1 $313 0.17887664362018851 $314 3.1788766436201885 $201 $315 forward 7 unknown #
coedge $-1 $120 $119 $306 $316 reversed $47 $-1 #
edge $-1 $209 -43.077486495559555 $313 43.077486495559555 $199 $317 forward 7 unknown #
edge $-1 $210 -43.077486495559555 $318 43.077486495559555 $198 $319 forward 7 unknown #
coedge $-1 $320 $121 $308 $321 reversed $208 $-1 #
coedge $-1 $121 $320 $309 $322 forward $208 $-1 #
loop $-1 $-1 $121 $303 #
vertex $-1 $122 $323 #
vertex $-1 $205 $324 #
straight-curve $-1 43.077486495559555 7.9320002671812109 1.857753287240377 0 1 0 I I #
face $-1 $-1 $224 $27 $-1 $325 forward single #
loop $-1 $-1 $326 $123 #
plane-surface $-1 -43.077486495559555 0 0 1 0 0 0 0 -1 forward_v I I I I #
coedge $-1 $327 $328 $329 $330 reversed $124 $-1 #
coedge $-1 $331 $126 $128 $222 forward $77 $-1 #
coedge $-1 $126 $331 $327 $332 forward $77 $-1 #
coedge $-1 $329 $129 $126 $219 forward $224 $-1 #
edge $-1 $226 -5.917975634531853 $333 1.53316540584159 $218 $334 forward 7 unknown #
coedge $-1 $335 $336 $127 $221 forward $213 $-1 #
edge $-1 $337 -31.856585425791771 $225 -27.311283030179631 $220 $338 forward 7 unknown #
edge $-1 $226 -6.7928477605890425 $337 -9.5519457560449789e-015 $128 $339 forward 7 unknown #
coedge $-1 $129 $329 $335 $340 forward $224 $-1 #
loop $-1 $-1 $329 $212 #
vertex $-1 $221 $341 #
vertex $-1 $130 $342 #
straight-curve $-1 -50.363208253637346 -8.1103807488769846 4.8577532872403779 1 0 0 I I #
coedge $-1 $228 $228 $-1 $343 reversed $133 $-1 #
edge $-1 $344 0 $344 6.2831853071796004 $134 $345 forward 7 unknown #
vertex $-1 $137 $346 #
ellipse-curve $-1 -40.553451688401481 -4.384810228690263 2.585102089434308 -0.66913061440640931 0 0.74314481823134659 0.74314481823134659 0 0.66913061440640931 1 I I #
face $-1 $-1 $347 $29 $-1 $348 reversed single #
loop $-1 $-1 $144 $138 #
plane-surface $-1 0 0 4.857753287240377 0 0 1 1 0 0 forward_v I I I I #
coedge $-1 $349 $350 $351 $352 reversed $139 $-1 #
coedge $-1 $353 $141 $143 $242 forward $86 $-1 #
coedge $-1 $141 $353 $349 $354 forward $86 $-1 #
coedge $-1 $351 $144 $141 $239 forward $233 $-1 #
edge $-1 $245 -0.52783751756930375 $355 5.7284683052360403 $238 $356 forward 7 unknown #
coedge $-1 $357 $358 $142 $241 forward $347 $-1 #
edge $-1 $359 -59.261668344999165 $244 -56.222037937949985 $240 $360 forward 7 unknown #
edge $-1 $245 82.397783219537544 $359 86.154972991119081 $143 $361 forward 7 unknown #
coedge $-1 $144 $351 $357 $362 forward $233 $-1 #
vertex $-1 $145 $363 #
vertex $-1 $145 $364 #
straight-curve $-1 31.068851467487477 -2.0724778762640641 4.8577532872403779 -1 0 0 I I #
coedge $-1 $247 $247 $-1 $365 reversed $148 $-1 #
edge $-1 $366 0 $366 6.2831853071796004 $149 $367 forward 7 unknown #
vertex $-1 $152 $368 #
ellipse-curve $-1 41.973276147820158 -6.541267749696452 3.3379380837157839 0.80901700255871778 0 0.5877852410284794 0.2938926205142397 0 -0.40450850127935889 1 I I #
coedge $-1 $251 $251 $-1 $369 reversed $155 $-1 #
edge $-1 $370 0 $370 6.2831853071796004 $156 $371 forward 7 unknown #
vertex $-1 $159 $372 #
ellipse-curve $-1 41.973276147820158 -3.8599938256370194 3.3379380837157839 0.80901700255871778 0 0.5877852410284794 0.2938926205142397 0 -0.40450850127935889 1 I I #
face $-1 $-1 $175 $24 $-1 $373 reversed single #
loop $-1 $-1 $271 $160 #
plane-surface $-1 0 18.218173302698315 0 0 -1 0 0 0 -1 forward_v I I I I #
coedge $-1 $374 $269 $272 $375 forward $161 $-1 #
coedge $-1 $275 $163 $164 $263 reversed $100 $-1 #
coedge $-1 $269 $374 $163 $261 reversed $161 $-1 #
edge $-1 $276 -4.857753287240377 $376 4.857753287240377 $260 $377 forward 7 unknown #
coedge $-1 $165 $164 $374 $378 forward $65 $-1 #
edge $-1 $267 -43.077486495559555 $376 43.077486495559555 $259 $379 forward 7 unknown #
coedge $-1 $272 $271 $165 $265 reversed $256 $-1 #
edge $-1 $380 -43.077486495559555 $266 43.077486495559555 $264 $381 forward 7 unknown #
vertex $-1 $167 $382 #
vertex $-1 $278 $383 #
straight-curve $-1 43.077486495559555 0 -4.857753287240377 0 -1 0 I I #
coedge $-1 $258 $260 $168 $270 reversed $161 $-1 #
edge $-1 $273 -18.218173302698315 $276 18.218173302698315 $269 $384 forward 7 unknown #
coedge $-1 $264 $169 $174 $279 forward $256 $-1 #
coedge $-1 $169 $264 $258 $375 reversed $256 $-1 #
vertex $-1 $170 $385 #
straight-curve $-1 0 18.218173302698315 4.857753287240377 -1 0 0 I I #
coedge $-1 $171 $259 $173 $278 reversed $100 $-1 #
vertex $-1 $270 $386 #
straight-curve $-1 0 -18.218173302698315 4.857753287240377 1 0 0 I I #
edge $-1 $176 -4.857753287240377 $267 4.857753287240377 $173 $387 forward 7 unknown #
edge $-1 $177 -4.857753287240377 $266 4.857753287240377 $174 $388 forward 7 unknown #
point $-1 43.077486495559555 -18.218173302698315 4.857753287240377 #
point $-1 43.077486495559555 18.218173302698315 4.857753287240377 #
face $-1 $-1 $389 $25 $-1 $390 reversed single #
loop $-1 $-1 $189 $179 #
plane-surface $-1 0 -18.218173302698315 0 0 1 0 0 0 1 forward_v I I I I #
coedge $-1 $391 $182 $289 $392 forward $108 $-1 #
coedge $-1 $182 $391 $393 $394 forward $108 $-1 #
edge $-1 $395 -43.077486495559555 $290 43.077486495559555 $182 $396 forward 7 unknown #
coedge $-1 $184 $183 $397 $398 reversed $69 $-1 #
coedge $-1 $185 $191 $285 $392 reversed $180 $-1 #
vertex $-1 $392 $399 #
straight-curve $-1 43.077486495559555 -11.989008674661402 -1.6788766436201885 0 0 1 I I #
coedge $-1 $397 $400 $187 $293 forward $389 $-1 #
edge $-1 $298 -10.666377808358385 $294 -4.4372131803214732 $292 $401 forward 7 unknown #
vertex $-1 $293 $402 #
straight-curve $-1 0 -11.989008674661402 -1.857753287240377 -1 0 0 I I #
coedge $-1 $403 $189 $400 $404 forward $283 $-1 #
coedge $-1 $189 $403 $191 $300 reversed $283 $-1 #
vertex $-1 $404 $405 #
straight-curve $-1 0 -18.218173302698315 -1.857753287240377 -1 0 0 I I #
edge $-1 $193 1.857753287240377 $406 4.857753287240377 $191 $407 forward 7 unknown #
point $-1 43.077486495559555 -11.989008674661402 -1.857753287240377 #
point $-1 43.077486495559555 -18.218173302698315 -1.857753287240377 #
face $-1 $-1 $208 $26 $-1 $408 reversed single #
loop $-1 $-1 $310 $195 #
plane-surface $-1 0 0 4.857753287240377 0 0 1 1 0 0 forward_v I I I I #
coedge $-1 $201 $409 $203 $316 forward $196 $-1 #
coedge $-1 $410 $198 $409 $411 reversed $116 $-1 #
coedge $-1 $198 $410 $206 $321 forward $116 $-1 #
coedge $-1 $200 $199 $207 $322 reversed $73 $-1 #
coedge $-1 $412 $413 $200 $311 forward $304 $-1 #
edge $-1 $314 -43.077486495559555 $414 43.077486495559555 $310 $415 forward 7 unknown #
coedge $-1 $409 $201 $413 $416 reversed $196 $-1 #
vertex $-1 $316 $417 #
vertex $-1 $202 $418 #
straight-curve $-1 -43.077486495559555 13.509827766026525 1.6788766436201885 0 0 1 I I #
edge $-1 $318 -10.286173035517107 $313 -5.5778274988453145 $306 $419 forward 7 unknown #
straight-curve $-1 0 13.509827766026525 1.857753287240377 -1 0 0 I I #
vertex $-1 $205 $420 #
straight-curve $-1 0 18.218173302698315 1.857753287240377 -1 0 0 I I #
coedge $-1 $207 $206 $412 $421 reversed $208 $-1 #
edge $-1 $422 -4.857753287240377 $210 -1.857753287240377 $206 $423 forward 7 unknown #
edge $-1 $414 -3.1788766436201885 $209 -0.17887664362018851 $207 $424 forward 7 unknown #
point $-1 43.077486495559555 13.509827766026525 1.857753287240377 #
point $-1 43.077486495559555 18.218173302698318 1.857753287240377 #
plane-surface $-1 0 0 4.857753287240377 0 0 1 1 0 0 forward_v I I I I #
coedge $-1 $336 $335 $328 $425 forward $213 $-1 #
coedge $-1 $328 $215 $217 $332 reversed $124 $-1 #
coedge $-1 $215 $327 $326 $425 reversed $124 $-1 #
coedge $-1 $223 $218 $215 $330 forward $224 $-1 #
edge $-1 $333 -12.333791372393939 $426 -7.2857217580777913 $329 $427 forward 7 unknown #
coedge $-1 $217 $216 $336 $428 reversed $77 $-1 #
edge $-1 $429 9.5519457560449789e-015 $333 6.7928477605890425 $327 $430 forward 7 unknown #
vertex $-1 $219 $431 #
straight-curve $-1 -38.029416881243407 -2.1924051143451315 4.8577532872403761 0 1 0 I I #
coedge $-1 $326 $220 $223 $340 reversed $213 $-1 #
coedge $-1 $220 $326 $331 $428 forward $213 $-1 #
vertex $-1 $221 $432 #
straight-curve $-1 -43.077486495559555 -8.1103807488769846 32.169036317420009 0 0 1 I I #
straight-curve $-1 -43.077486495559562 -8.1103807488769846 0.31245089162823092 -0.74314481823134659 0 -0.66913061440640931 I I #
edge $-1 $426 0.65923970850354152 $225 8.1103807488769846 $335 $433 forward 7 unknown #
point $-1 -43.077486495559555 -8.1103807488769846 4.857753287240377 #
point $-1 -38.029416881243407 -8.1103807488769846 4.857753287240377 #
edge $-1 $434 1 $434 0 $228 $-1 forward 7 unknown #
vertex $-1 $229 $435 #
ellipse-curve $-1 -38.450285969588933 -4.384810228690263 0.24929997222903988 -0.66913061440640931 0 0.74314481823134659 0.74314481823134659 0 0.66913061440640931 1 I I #
point $-1 -39.810306870170123 -4.384810228690263 3.2542327038407048 #
loop $-1 $-1 $240 $232 #
plane-surface $-1 43.077486495559555 0 0 -1 0 0 0 0 1 forward_v I I I I #
coedge $-1 $350 $235 $237 $354 reversed $139 $-1 #
coedge $-1 $235 $349 $436 $437 reversed $139 $-1 #
coedge $-1 $243 $238 $235 $352 forward $233 $-1 #
edge $-1 $355 9.8002143325932849 $438 12.008635028072078 $351 $439 forward 7 unknown #
coedge $-1 $237 $236 $358 $440 reversed $86 $-1 #
edge $-1 $441 -86.154972991119081 $355 -82.397783219537544 $349 $442 forward 7 unknown #
vertex $-1 $239 $443 #
straight-curve $-1 40.869065800080755 -2.6003153938333678 4.8577532872403779 0 -1 0 I I #
coedge $-1 $436 $240 $243 $362 reversed $347 $-1 #
coedge $-1 $240 $436 $353 $440 forward $347 $-1 #
vertex $-1 $241 $444 #
straight-curve $-1 43.077486495559555 -2.0724778762640641 61.079791225190363 0 0 1 I I #
straight-curve $-1 -7.5631350698275099 -2.0724778762640641 71.518960884993646 0.5877852410284794 0 -0.80901700255871778 I I #
edge $-1 $438 -8.3287836990694082 $244 -2.0724778762640641 $357 $445 forward 7 unknown #
point $-1 43.077486495559555 -2.0724778762640641 4.857753287240377 #
point $-1 40.869065800080762 -2.0724778762640641 4.8577532872403708 #
edge $-1 $446 1 $446 0 $247 $-1 forward 7 unknown #
vertex $-1 $248 $447 #
ellipse-curve $-1 41.065536208015693 -6.541267749696452 2.6784264323887537 0.80901700255871778 0 0.5877852410284794 0.2938926205142397 0 -0.40450850127935889 1 I I #
point $-1 42.267168768334393 -6.541267749696452 2.9334295824364176 #
edge $-1 $448 1 $448 0 $251 $-1 forward 7 unknown #
vertex $-1 $252 $449 #
ellipse-curve $-1 41.065536208015693 -3.8599938256370194 2.6784264323887537 0.80901700255871778 0 0.5877852410284794 0.2938926205142397 0 -0.40450850127935889 1 I I #
point $-1 42.267168768334393 -3.8599938256370194 2.9334295824364176 #
plane-surface $-1 43.077486495559555 0 0 -1 0 0 0 0 1 forward_v I I I I #
coedge $-1 $260 $258 $262 $378 reversed $161 $-1 #
edge $-1 $273 -4.857753287240377 $380 4.857753287240377 $272 $450 forward 7 unknown #
vertex $-1 $378 $451 #
straight-curve $-1 -43.077486495559555 -18.218173302698315 0 0 0 -1 I I #
edge $-1 $376 -18.218173302698315 $380 18.218173302698315 $374 $452 forward 7 unknown #
straight-curve $-1 0 -18.218173302698315 -4.857753287240377 -1 0 0 I I #
vertex $-1 $265 $453 #
straight-curve $-1 0 18.218173302698315 -4.857753287240377 1 0 0 I I #
point $-1 43.077486495559555 18.218173302698315 -4.857753287240377 #
point $-1 43.077486495559555 -18.218173302698315 -4.857753287240377 #
straight-curve $-1 -43.077486495559555 0 4.857753287240377 0 -1 0 I I #
point $-1 -43.077486495559555 18.218173302698315 4.857753287240377 #
point $-1 -43.077486495559555 -18.218173302698315 4.857753287240377 #
straight-curve $-1 43.077486495559555 -18.218173302698315 0 0 0 -1 I I #
straight-curve $-1 43.077486495559555 18.218173302698315 0 0 0 -1 I I #
loop $-1 $-1 $397 $282 #
plane-surface $-1 -43.077486495559555 0 0 1 0 0 0 0 -1 forward_v I I I I #
coedge $-1 $286 $285 $403 $454 forward $108 $-1 #
edge $-1 $290 11.989008674661402 $406 18.218173302698315 $289 $455 forward 7 unknown #
coedge $-1 $400 $397 $286 $394 reversed $389 $-1 #
edge $-1 $456 -18.218173302698315 $395 -11.989008674661402 $393 $457 forward 7 unknown #
vertex $-1 $398 $458 #
straight-curve $-1 0 -11.989008674661402 -4.857753287240377 1 0 0 I I #
coedge $-1 $393 $292 $288 $398 forward $389 $-1 #
edge $-1 $294 0.17887664362018851 $395 3.1788766436201885 $397 $459 forward 7 unknown #
point $-1 43.077486495559555 -11.989008674661402 -4.857753287240377 #
coedge $-1 $292 $393 $296 $404 reversed $389 $-1 #
straight-curve $-1 -43.077486495559555 -7.5517954943399292 -1.857753287240377 0 1 0 I I #
point $-1 -43.077486495559555 -11.989008674661402 -1.857753287240377 #
coedge $-1 $297 $296 $391 $454 reversed $283 $-1 #
edge $-1 $298 1.857753287240377 $456 4.857753287240377 $400 $460 forward 7 unknown #
point $-1 -43.077486495559555 -18.218173302698315 -1.857753287240377 #
vertex $-1 $300 $461 #
straight-curve $-1 43.077486495559555 -18.218173302698315 0 0 0 -1 I I #
plane-surface $-1 43.077486495559555 0 0 -1 0 0 0 0 1 forward_v I I I I #
coedge $-1 $306 $312 $307 $411 forward $196 $-1 #
coedge $-1 $308 $307 $462 $463 reversed $116 $-1 #
edge $-1 $464 -4.857753287240377 $318 -1.857753287240377 $307 $465 forward 7 unknown #
coedge $-1 $462 $310 $320 $421 forward $304 $-1 #
coedge $-1 $310 $462 $312 $416 forward $304 $-1 #
vertex $-1 $421 $466 #
straight-curve $-1 0 13.509827766026525 4.857753287240377 1 0 0 I I #
edge $-1 $464 -18.218173302698315 $314 -13.509827766026525 $312 $467 forward 7 unknown #
point $-1 -43.077486495559555 13.509827766026525 1.857753287240377 #
point $-1 -43.077486495559555 13.509827766026525 4.857753287240377 #
straight-curve $-1 -43.077486495559555 7.9320002671812109 1.857753287240377 0 -1 0 I I #
point $-1 -43.077486495559555 18.218173302698318 1.857753287240377 #
edge $-1 $414 13.509827766026525 $422 18.218173302698315 $320 $468 forward 7 unknown #
vertex $-1 $421 $469 #
straight-curve $-1 43.077486495559555 18.218173302698315 0 0 0 -1 I I #
straight-curve $-1 43.077486495559555 13.509827766026525 1.6788766436201885 0 0 -1 I I #
edge $-1 $426 27.311283030179631 $429 31.856585425791771 $326 $470 forward 7 unknown #
vertex $-1 $340 $471 #
straight-curve $-1 -50.363208253637346 -0.65923970850354152 4.8577532872403779 -1 0 0 I I #
edge $-1 $429 -1.53316540584159 $337 5.917975634531853 $336 $472 forward 7 unknown #
vertex $-1 $428 $473 #
straight-curve $-1 -43.077486495559562 -0.65923970850354152 0.31245089162823092 0.74314481823134659 0 0.66913061440640931 I I #
point $-1 -38.029416881243407 -0.65923970850354152 4.857753287240377 #
point $-1 -43.077486495559555 -8.1103807488769846 0.3124508916282373 #
straight-curve $-1 -43.077486495559555 0 4.857753287240377 0 -1 0 I I #
vertex $-1 $343 $474 #
point $-1 -37.707141151357582 -4.384810228690263 0.91843058663544919 #
coedge $-1 $358 $357 $350 $437 forward $347 $-1 #
edge $-1 $438 56.222037937949985 $441 59.261668344999165 $436 $475 forward 7 unknown #
vertex $-1 $362 $476 #
straight-curve $-1 31.068851467487477 -8.3287836990694082 4.8577532872403779 1 0 0 I I #
edge $-1 $441 -5.7284683052360403 $359 0.52783751756930375 $358 $477 forward 7 unknown #
vertex $-1 $440 $478 #
straight-curve $-1 -7.5631350698275099 -8.3287836990694082 71.518960884993646 -0.5877852410284794 0 0.80901700255871778 I I #
point $-1 40.869065800080762 -8.3287836990694082 4.8577532872403708 #
point $-1 43.077486495559555 -2.0724778762640641 1.8181228801911971 #
straight-curve $-1 43.077486495559555 0 4.857753287240377 0 1 0 I I #
vertex $-1 $365 $479 #
point $-1 41.359428828529936 -6.541267749696452 2.2739179311093949 #
vertex $-1 $369 $480 #
point $-1 41.359428828529936 -3.8599938256370194 2.2739179311093949 #
straight-curve $-1 -43.077486495559555 18.218173302698315 0 0 0 -1 I I #
point $-1 -43.077486495559555 -18.218173302698315 -4.857753287240377 #
straight-curve $-1 -43.077486495559555 0 -4.857753287240377 0 1 0 I I #
point $-1 -43.077486495559555 18.218173302698315 -4.857753287240377 #
edge $-1 $406 -43.077486495559555 $456 43.077486495559555 $403 $481 forward 7 unknown #
straight-curve $-1 43.077486495559555 0 -4.857753287240377 0 -1 0 I I #
vertex $-1 $394 $482 #
straight-curve $-1 -43.077486495559555 0 -4.857753287240377 0 1 0 I I #
point $-1 -43.077486495559555 -11.989008674661402 -4.857753287240377 #
straight-curve $-1 -43.077486495559555 -11.989008674661402 -1.6788766436201885 0 0 -1 I I #
straight-curve $-1 -43.077486495559555 -18.218173302698315 0 0 0 -1 I I #
point $-1 43.077486495559555 -18.218173302698315 -4.857753287240377 #
coedge $-1 $413 $412 $410 $463 forward $304 $-1 #
edge $-1 $422 -43.077486495559555 $464 43.077486495559555 $410 $483 forward 7 unknown #
vertex $-1 $463 $484 #
straight-curve $-1 -43.077486495559555 18.218173302698315 0 0 0 -1 I I #
point $-1 43.077486495559555 13.509827766026525 4.857753287240377 #
straight-curve $-1 -43.077486495559555 0 4.857753287240377 0 -1 0 I I #
straight-curve $-1 43.077486495559555 0 4.857753287240377 0 1 0 I I #
point $-1 43.077486495559555 18.218173302698315 4.857753287240377 #
straight-curve $-1 -43.077486495559555 -0.65923970850354152 32.169036317420009 0 0 -1 I I #
point $-1 -43.077486495559555 -0.65923970850354152 4.857753287240377 #
straight-curve $-1 -43.077486495559555 -2.1924051143451315 0.31245089162823197 0 -1 0 I I #
point $-1 -43.077486495559555 -0.65923970850354152 0.3124508916282373 #
point $-1 -37.78115535518252 -4.384810228690263 -0.49384484600230638 #
straight-curve $-1 43.077486495559555 -8.3287836990694082 61.079791225190363 0 0 -1 I I #
point $-1 43.077486495559555 -8.3287836990694082 4.857753287240377 #
straight-curve $-1 43.077486495559555 -2.6003153938333678 1.8181228801911971 0 1 0 I I #
point $-1 43.077486495559555 -8.3287836990694082 1.8181228801911971 #
point $-1 40.661027706736341 -6.541267749696452 2.3845338118745141 #
point $-1 40.661027706736341 -3.8599938256370194 2.3845338118745141 #
straight-curve $-1 0 -18.218173302698315 -4.857753287240377 -1 0 0 I I #
point $-1 -43.077486495559555 -18.218173302698315 -4.857753287240377 #
straight-curve $-1 0 18.218173302698315 4.857753287240377 -1 0 0 I I #
point $-1 -43.077486495559555 18.218173302698315 4.857753287240377 #
End-of-ACIS-data 