500 0 8 0           
7 Unknown 11 ACIS 5.0 NT 24 Fri Mar 26 16:44:27 1999 
-1 9.9999999999999995e-007 1e-010 
body $-1 $8 $-1 $9 #
body $-1 $10 $-1 $11 #
body $-1 $12 $-1 $13 #
body $-1 $14 $-1 $15 #
body $-1 $16 $-1 $17 #
body $-1 $18 $-1 $19 #
body $-1 $20 $-1 $21 #
body $-1 $22 $-1 $23 #
lump $-1 $-1 $24 $0 #
transform $-1 1 0 0 0 1 0 0 0 1 53.9371929074984 28.978792687113163 10.660873941673195 1 rotate no_reflect no_shear #
lump $-1 $-1 $25 $1 #
transform $-1 1 0 0 0 1 0 0 0 1 53.9371929074984 28.978792687113163 10.660873941673195 1 rotate no_reflect no_shear #
lump $-1 $-1 $26 $2 #
transform $-1 1 0 0 0 1 0 0 0 1 53.9371929074984 28.978792687113163 10.660873941673195 1 rotate no_reflect no_shear #
lump $-1 $-1 $27 $3 #
transform $-1 1 0 0 0 1 0 0 0 1 53.9371929074984 28.978792687113163 10.660873941673195 1 rotate no_reflect no_shear #
lump $-1 $-1 $28 $4 #
transform $-1 1 0 0 0 1 0 0 0 1 53.9371929074984 28.978792687113163 10.660873941673195 1 rotate no_reflect no_shear #
lump $-1 $-1 $29 $5 #
transform $-1 1 0 0 0 1 0 0 0 1 53.9371929074984 28.978792687113163 10.660873941673195 1 rotate no_reflect no_shear #
lump $-1 $-1 $30 $6 #
transform $-1 1 0 0 0 1 0 0 0 1 53.9371929074984 28.978792687113163 10.660873941673195 1 rotate no_reflect no_shear #
lump $-1 $-1 $31 $7 #
transform $-1 1 0 0 0 1 0 0 0 1 53.9371929074984 28.978792687113163 10.660873941673195 1 rotate no_reflect no_shear #
shell $-1 $-1 $-1 $32 $-1 $8 #
shell $-1 $-1 $-1 $33 $-1 $10 #
shell $-1 $-1 $-1 $34 $-1 $12 #
shell $-1 $-1 $-1 $35 $-1 $14 #
shell $-1 $-1 $-1 $36 $-1 $16 #
shell $-1 $-1 $-1 $37 $-1 $18 #
shell $-1 $-1 $-1 $38 $-1 $20 #
shell $-1 $-1 $-1 $39 $-1 $22 #
face $-1 $40 $41 $24 $-1 $42 reversed single #
face $-1 $43 $44 $25 $-1 $45 forward single #
face $-1 $46 $47 $26 $-1 $48 reversed single #
face $-1 $49 $50 $27 $-1 $51 forward single #
face $-1 $52 $53 $28 $-1 $54 forward single #
face $-1 $55 $56 $29 $-1 $57 reversed single #
face $-1 $58 $59 $30 $-1 $60 forward single #
face $-1 $61 $62 $31 $-1 $63 forward single #
face $-1 $64 $65 $24 $-1 $66 forward single #
loop $-1 $-1 $67 $32 #
plane-surface $-1 -53.9371929074984 0 0 1 0 0 0 0 -1 forward_v I I I I #
face $-1 $68 $69 $25 $-1 $70 reversed single #
loop $-1 $-1 $71 $33 #
plane-surface $-1 -53.9371929074984 0 0 1 0 0 0 0 -1 forward_v I I I I #
face $-1 $72 $73 $26 $-1 $74 reversed single #
loop $-1 $-1 $75 $34 #
plane-surface $-1 47.334271605929544 -28.97879268711317 7.3356602921823253 0 -0.57357644374324357 0.81915203911291934 1 0 0 forward_v I I I I #
face $-1 $76 $77 $27 $-1 $78 forward single #
loop $-1 $79 $80 $35 #
cone-surface $-1 44.504448190971459 -26.236946753185716 8.4735693242423888 0 0.57357644374324357 -0.81915203911291934 1 0 0 1 I I 0 1 1 forward I I I I #
face $-1 $81 $82 $28 $-1 $83 forward single #
loop $-1 $84 $85 $36 #
cone-surface $-1 50.164095020887615 -26.236946753185716 8.4735693242423888 0 0.57357644374324357 -0.81915203911291934 1 0 0 1 I I 0 1 1 forward I I I I #
face $-1 $86 $87 $29 $-1 $88 reversed single #
loop $-1 $-1 $89 $37 #
plane-surface $-1 47.334271605929544 -18.49728155424544 40.578765999076467 0 0.57357644374324357 0.81915203911291934 1 0 0 forward_v I I I I #
face $-1 $90 $91 $30 $-1 $92 forward single #
loop $-1 $93 $94 $38 #
cone-surface $-1 44.504448190971459 26.236946753185716 8.4735693242423853 0 -0.57357644374324357 -0.81915203911291934 1 0 0 1 I I 0 1 1 forward I I I I #
face $-1 $95 $96 $31 $-1 $97 forward single #
loop $-1 $98 $99 $39 #
cone-surface $-1 50.164095020887615 26.236946753185716 8.4735693242423853 0 -0.57357644374324357 -0.81915203911291934 1 0 0 1 I I 0 1 1 forward I I I I #
face $-1 $100 $101 $24 $-1 $102 reversed single #
loop $-1 $-1 $103 $40 #
plane-surface $-1 0 0 10.660873941673195 0 0 1 1 0 0 forward_v I I I I #
coedge $-1 $104 $105 $106 $107 reversed $41 $-1 #
face $-1 $108 $109 $25 $-1 $110 reversed single #
loop $-1 $-1 $111 $43 #
plane-surface $-1 0 0 -10.660873941673195 0 0 1 1 0 0 forward_v I I I I #
coedge $-1 $112 $113 $114 $115 forward $44 $-1 #
face $-1 $116 $117 $26 $-1 $118 reversed single #
loop $-1 $-1 $119 $46 #
plane-surface $-1 40.731350304360689 -90.852999273865635 95.701183400590736 1 0 0 0 0.57357644374324357 -0.81915203911291934 forward_v I I I I #
coedge $-1 $120 $121 $122 $123 reversed $47 $-1 #
face $-1 $-1 $124 $27 $-1 $125 forward single #
loop $-1 $126 $127 $49 #
cone-surface $-1 44.504448190971459 -25.582761174537303 7.5392955120005603 0 0.57357644374324357 -0.81915203911291934 0.5 0 0 1 I I -0.70710678118654746 0.70710678118654746 0.5 forward I I I I #
loop $-1 $-1 $128 $35 #
coedge $-1 $80 $80 $129 $130 reversed $50 $-1 #
face $-1 $-1 $131 $28 $-1 $132 forward single #
loop $-1 $133 $134 $52 #
cone-surface $-1 50.164095020887615 -25.582761174537303 7.5392955120005603 0 0.57357644374324357 -0.81915203911291934 0.5 0 0 1 I I -0.70710678118654746 0.70710678118654746 0.5 forward I I I I #
loop $-1 $-1 $135 $36 #
coedge $-1 $85 $85 $136 $137 reversed $53 $-1 #
face $-1 $138 $139 $29 $-1 $140 reversed single #
loop $-1 $-1 $141 $55 #
plane-surface $-1 40.731350304360689 43.376925032507025 128.94428910748488 1 0 0 0 -0.57357644374324357 -0.81915203911291934 forward_v I I I I #
coedge $-1 $142 $143 $144 $145 reversed $56 $-1 #
face $-1 $-1 $146 $30 $-1 $147 forward single #
loop $-1 $148 $149 $58 #
cone-surface $-1 44.504448190971459 25.582761174537303 7.5392955120005567 0 -0.57357644374324357 -0.81915203911291934 0.5 0 0 1 I I -0.70710678118654746 0.70710678118654746 0.5 forward I I I I #
loop $-1 $-1 $150 $38 #
coedge $-1 $94 $94 $151 $152 reversed $59 $-1 #
face $-1 $-1 $153 $31 $-1 $154 forward single #
loop $-1 $155 $156 $61 #
cone-surface $-1 50.164095020887615 25.582761174537303 7.5392955120005567 0 -0.57357644374324357 -0.81915203911291934 0.5 0 0 1 I I -0.70710678118654746 0.70710678118654746 0.5 forward I I I I #
loop $-1 $-1 $157 $39 #
coedge $-1 $99 $99 $158 $159 reversed $62 $-1 #
face $-1 $160 $161 $24 $-1 $162 reversed single #
loop $-1 $-1 $163 $64 #
plane-surface $-1 0 0 -10.660873941673195 0 0 1 1 0 0 forward_v I I I I #
coedge $-1 $164 $165 $166 $167 forward $65 $-1 #
coedge $-1 $168 $67 $169 $170 reversed $41 $-1 #
coedge $-1 $67 $168 $171 $172 forward $41 $-1 #
coedge $-1 $173 $174 $67 $107 forward $101 $-1 #
edge $-1 $175 -28.978792687113163 $176 28.978792687113163 $67 $177 forward 7 unknown #
face $-1 $178 $179 $25 $-1 $180 reversed single #
loop $-1 $-1 $181 $68 #
plane-surface $-1 -59.780953870544707 -10.80198146855151 0 0 1 0 0 0 1 forward_v I I I I #
coedge $-1 $182 $183 $113 $184 forward $69 $-1 #
coedge $-1 $185 $71 $186 $187 reversed $44 $-1 #
coedge $-1 $71 $185 $111 $184 reversed $44 $-1 #
coedge $-1 $188 $189 $71 $115 reversed $190 $-1 #
edge $-1 $191 -10.660873941673195 $192 10.660873941673195 $114 $193 forward 7 unknown #
face $-1 $194 $195 $26 $-1 $196 forward single #
loop $-1 $-1 $197 $72 #
plane-surface $-1 0 -28.978792687113163 0 0 1 0 0 0 1 forward_v I I I I #
coedge $-1 $198 $199 $200 $201 reversed $73 $-1 #
coedge $-1 $202 $75 $203 $204 reversed $47 $-1 #
coedge $-1 $75 $202 $198 $205 forward $47 $-1 #
coedge $-1 $200 $206 $75 $123 forward $195 $-1 #
edge $-1 $207 -30.270057104533628 $208 -17.064214501395917 $122 $209 forward 7 unknown #
loop $-1 $-1 $129 $76 #
plane-surface $-1 47.334271605929544 -28.97879268711317 7.3356602921823253 0 -0.57357644374324357 0.81915203911291934 1 0 0 forward_v I I I I #
loop $-1 $-1 $210 $49 #
coedge $-1 $127 $127 $128 $211 reversed $77 $-1 #
coedge $-1 $128 $128 $127 $211 forward $79 $-1 #
coedge $-1 $129 $129 $80 $130 forward $124 $-1 #
edge $-1 $212 8.7245977684942397e-016 $212 6.2831853071796013 $129 $213 forward 7 unknown #
loop $-1 $-1 $136 $81 #
plane-surface $-1 47.334271605929544 -28.97879268711317 7.3356602921823253 0 -0.57357644374324357 0.81915203911291934 1 0 0 forward_v I I I I #
loop $-1 $-1 $214 $52 #
coedge $-1 $134 $134 $135 $215 reversed $82 $-1 #
coedge $-1 $135 $135 $134 $215 forward $84 $-1 #
coedge $-1 $136 $136 $85 $137 forward $131 $-1 #
edge $-1 $216 8.7245977684942397e-016 $216 6.2831853071796013 $136 $217 forward 7 unknown #
face $-1 $218 $219 $29 $-1 $220 forward single #
loop $-1 $-1 $144 $86 #
plane-surface $-1 0 28.978792687113163 0 0 -1 0 0 0 -1 forward_v I I I I #
coedge $-1 $221 $222 $223 $224 reversed $87 $-1 #
coedge $-1 $225 $89 $226 $227 reversed $56 $-1 #
coedge $-1 $89 $225 $221 $228 forward $56 $-1 #
coedge $-1 $223 $229 $89 $145 forward $139 $-1 #
edge $-1 $230 -30.270057104533628 $231 -17.064214501395917 $144 $232 forward 7 unknown #
loop $-1 $-1 $151 $90 #
plane-surface $-1 47.334271605929544 -18.49728155424544 40.578765999076467 0 0.57357644374324357 0.81915203911291934 1 0 0 forward_v I I I I #
loop $-1 $-1 $233 $58 #
coedge $-1 $149 $149 $150 $234 reversed $91 $-1 #
coedge $-1 $150 $150 $149 $234 forward $93 $-1 #
coedge $-1 $151 $151 $94 $152 forward $146 $-1 #
edge $-1 $235 -1.4641666191275965e-016 $235 6.2831853071796004 $151 $236 forward 7 unknown #
loop $-1 $-1 $158 $95 #
plane-surface $-1 47.334271605929544 -18.49728155424544 40.578765999076467 0 0.57357644374324357 0.81915203911291934 1 0 0 forward_v I I I I #
loop $-1 $-1 $237 $61 #
coedge $-1 $156 $156 $157 $238 reversed $96 $-1 #
coedge $-1 $157 $157 $156 $238 forward $98 $-1 #
coedge $-1 $158 $158 $99 $159 forward $153 $-1 #
edge $-1 $239 -1.4641666191275965e-016 $239 6.2831853071796004 $158 $240 forward 7 unknown #
face $-1 $241 $242 $24 $-1 $243 reversed single #
loop $-1 $-1 $169 $100 #
plane-surface $-1 0 -28.978792687113163 0 0 1 0 0 0 1 forward_v I I I I #
coedge $-1 $174 $173 $244 $245 forward $101 $-1 #
coedge $-1 $246 $103 $247 $248 forward $65 $-1 #
coedge $-1 $103 $246 $249 $250 forward $65 $-1 #
coedge $-1 $251 $252 $103 $167 reversed $253 $-1 #
edge $-1 $254 -28.978792687113163 $255 28.978792687113163 $166 $256 forward 7 unknown #
coedge $-1 $105 $104 $246 $257 reversed $41 $-1 #
coedge $-1 $258 $249 $104 $170 forward $161 $-1 #
edge $-1 $259 -10.660873941673195 $175 10.660873941673195 $104 $260 forward 7 unknown #
coedge $-1 $247 $261 $105 $172 reversed $242 $-1 #
edge $-1 $262 -10.660873941673195 $176 10.660873941673195 $171 $263 forward 7 unknown #
coedge $-1 $163 $106 $261 $264 forward $101 $-1 #
coedge $-1 $106 $163 $258 $265 forward $101 $-1 #
vertex $-1 $107 $266 #
vertex $-1 $264 $267 #
straight-curve $-1 -53.9371929074984 0 -10.660873941673195 0 1 0 I I #
face $-1 $268 $190 $25 $-1 $269 reversed single #
loop $-1 $-1 $270 $108 #
plane-surface $-1 -65.624714833591014 -9.2295131361591416 0 1 0 0 0 0 -1 forward_v I I I I #
coedge $-1 $271 $272 $273 $274 forward $109 $-1 #
coedge $-1 $275 $111 $271 $276 forward $69 $-1 #
coedge $-1 $111 $275 $188 $277 forward $69 $-1 #
edge $-1 $191 7.6570448037667731 $278 10.80198146855151 $111 $279 forward 7 unknown #
coedge $-1 $113 $112 $280 $281 forward $44 $-1 #
coedge $-1 $282 $283 $112 $187 forward $284 $-1 #
edge $-1 $285 -10.80198146855151 $192 -7.6570448037667731 $186 $286 forward 7 unknown #
coedge $-1 $287 $114 $183 $277 reversed $190 $-1 #
coedge $-1 $114 $287 $282 $288 reversed $190 $-1 #
loop $-1 $-1 $114 $178 #
vertex $-1 $184 $289 #
vertex $-1 $288 $290 #
straight-curve $-1 -53.9371929074984 -7.6570448037667731 0 0 0 1 I I #
face $-1 $-1 $291 $26 $-1 $292 reversed single #
loop $-1 $-1 $200 $116 #
plane-surface $-1 0 0 10.660873941673195 0 0 1 1 0 0 forward_v I I I I #
coedge $-1 $293 $294 $199 $295 forward $117 $-1 #
coedge $-1 $199 $119 $121 $205 reversed $73 $-1 #
coedge $-1 $119 $198 $197 $295 reversed $73 $-1 #
coedge $-1 $296 $122 $119 $201 forward $195 $-1 #
edge $-1 $208 -21.196604104120965 $297 -16.447706949819654 $200 $298 forward 7 unknown #
coedge $-1 $121 $120 $293 $299 reversed $47 $-1 #
coedge $-1 $300 $301 $120 $204 forward $291 $-1 #
edge $-1 $302 -9.7652375888904128 $207 -3.9679045816454925 $203 $303 forward 7 unknown #
edge $-1 $304 8.8770546250341341e-015 $208 5.7973330072449301 $198 $305 forward 7 unknown #
coedge $-1 $122 $296 $300 $306 forward $195 $-1 #
vertex $-1 $204 $307 #
vertex $-1 $123 $308 #
straight-curve $-1 23.667135802964772 -24.229895532811852 10.660873941673195 -1 0 0 I I #
coedge $-1 $210 $210 $-1 $309 reversed $126 $-1 #
edge $-1 $310 0 $310 6.2831853071796004 $127 $311 forward 7 unknown #
vertex $-1 $130 $312 #
ellipse-curve $-1 44.504448190971459 -26.604344109962508 8.9982671169277619 0 -0.57357644374324357 0.81915203911291934 1 0 0 1 I I #
coedge $-1 $214 $214 $-1 $313 reversed $133 $-1 #
edge $-1 $314 0 $314 6.2831853071796004 $134 $315 forward 7 unknown #
vertex $-1 $137 $316 #
ellipse-curve $-1 50.164095020887615 -26.604344109962508 8.9982671169277619 0 -0.57357644374324357 0.81915203911291934 1 0 0 1 I I #
face $-1 $-1 $317 $29 $-1 $318 reversed single #
loop $-1 $-1 $319 $138 #
plane-surface $-1 0 0 10.660873941673195 0 0 1 1 0 0 forward_v I I I I #
coedge $-1 $222 $141 $143 $228 reversed $87 $-1 #
coedge $-1 $141 $221 $320 $321 reversed $87 $-1 #
coedge $-1 $322 $144 $141 $224 forward $139 $-1 #
edge $-1 $231 -57.136484261560135 $323 -53.811270612069244 $223 $324 forward 7 unknown #
coedge $-1 $143 $142 $319 $325 reversed $56 $-1 #
coedge $-1 $326 $327 $142 $227 forward $317 $-1 #
edge $-1 $328 32.946697268758626 $230 38.744030276003592 $226 $329 forward 7 unknown #
edge $-1 $330 52.160252366981361 $231 57.957585374226326 $221 $331 forward 7 unknown #
coedge $-1 $144 $322 $326 $332 forward $139 $-1 #
vertex $-1 $227 $333 #
vertex $-1 $145 $334 #
straight-curve $-1 23.667135802964772 28.978792687113163 7.3356602921823022 -1 0 0 I I #
coedge $-1 $233 $233 $-1 $335 reversed $148 $-1 #
edge $-1 $336 0 $336 6.2831853071796004 $149 $337 forward 7 unknown #
vertex $-1 $152 $338 #
ellipse-curve $-1 44.504448190971459 26.604344109962501 8.9982671169277495 0 0.57357644374324357 0.81915203911291934 1 0 0 1 I I #
coedge $-1 $237 $237 $-1 $339 reversed $155 $-1 #
edge $-1 $340 0 $340 6.2831853071796004 $156 $341 forward 7 unknown #
vertex $-1 $159 $342 #
ellipse-curve $-1 50.164095020887615 26.604344109962501 8.9982671169277495 0 0.57357644374324357 0.81915203911291934 1 0 0 1 I I #
face $-1 $-1 $253 $24 $-1 $343 reversed single #
loop $-1 $-1 $344 $160 #
plane-surface $-1 0 28.978792687113163 0 0 -1 0 0 0 -1 forward_v I I I I #
coedge $-1 $252 $251 $163 $245 reversed $253 $-1 #
edge $-1 $345 -28.978792687113163 $346 28.978792687113163 $244 $347 forward 7 unknown #
coedge $-1 $165 $164 $168 $257 forward $65 $-1 #
coedge $-1 $344 $171 $164 $248 reversed $242 $-1 #
edge $-1 $255 -53.9371929074984 $262 53.9371929074984 $247 $348 forward 7 unknown #
coedge $-1 $169 $349 $165 $250 reversed $161 $-1 #
edge $-1 $259 -53.9371929074984 $254 53.9371929074984 $249 $350 forward 7 unknown #
coedge $-1 $244 $166 $349 $351 forward $253 $-1 #
coedge $-1 $166 $244 $344 $352 reversed $253 $-1 #
loop $-1 $-1 $251 $241 #
vertex $-1 $167 $353 #
vertex $-1 $167 $354 #
straight-curve $-1 53.9371929074984 0 10.660873941673195 0 1 0 I I #
edge $-1 $262 -28.978792687113163 $259 28.978792687113163 $168 $355 forward 7 unknown #
coedge $-1 $349 $169 $174 $265 reversed $161 $-1 #
vertex $-1 $257 $356 #
straight-curve $-1 -53.9371929074984 -28.978792687113163 0 0 0 -1 I I #
coedge $-1 $171 $344 $173 $264 reversed $242 $-1 #
vertex $-1 $248 $357 #
straight-curve $-1 -53.9371929074984 28.978792687113163 0 0 0 -1 I I #
edge $-1 $176 -53.9371929074984 $345 53.9371929074984 $261 $358 forward 7 unknown #
edge $-1 $346 -53.9371929074984 $175 53.9371929074984 $258 $359 forward 7 unknown #
point $-1 -53.9371929074984 -28.978792687113163 -10.660873941673195 #
point $-1 -53.9371929074984 28.978792687113163 -10.660873941673195 #
face $-1 $-1 $284 $25 $-1 $360 forward single #
plane-surface $-1 -59.780953870544707 -7.6570448037667731 0 0 -1 0 0 0 -1 forward_v I I I I #
coedge $-1 $361 $362 $287 $363 forward $179 $-1 #
coedge $-1 $280 $181 $182 $276 reversed $109 $-1 #
coedge $-1 $181 $280 $283 $364 reversed $109 $-1 #
coedge $-1 $362 $361 $181 $274 reversed $179 $-1 #
edge $-1 $365 -10.660873941673195 $366 10.660873941673195 $273 $367 forward 7 unknown #
coedge $-1 $183 $182 $361 $368 forward $69 $-1 #
edge $-1 $278 -5.8437609630463072 $366 5.8437609630463072 $271 $369 forward 7 unknown #
edge $-1 $370 -5.8437609630463072 $191 5.8437609630463072 $188 $371 forward 7 unknown #
vertex $-1 $276 $372 #
straight-curve $-1 -53.9371929074984 0 -10.660873941673195 0 -1 0 I I #
coedge $-1 $272 $271 $185 $281 reversed $109 $-1 #
edge $-1 $285 -10.660873941673195 $278 10.660873941673195 $280 $373 forward 7 unknown #
coedge $-1 $374 $186 $189 $288 forward $284 $-1 #
coedge $-1 $186 $374 $272 $364 forward $284 $-1 #
loop $-1 $-1 $186 $268 #
vertex $-1 $187 $375 #
straight-curve $-1 -53.9371929074984 0 10.660873941673195 0 1 0 I I #
coedge $-1 $189 $188 $270 $363 reversed $190 $-1 #
edge $-1 $192 -5.8437609630463072 $376 5.8437609630463072 $189 $377 forward 7 unknown #
point $-1 -53.9371929074984 -7.6570448037667731 -10.660873941673195 #
point $-1 -53.9371929074984 -7.6570448037667731 10.660873941673195 #
loop $-1 $-1 $203 $194 #
plane-surface $-1 53.9371929074984 0 0 -1 0 0 0 0 1 forward_v I I I I #
coedge $-1 $378 $197 $202 $299 forward $117 $-1 #
coedge $-1 $197 $378 $296 $379 reversed $117 $-1 #
edge $-1 $297 37.189717758622173 $304 40.514931408113036 $197 $380 forward 7 unknown #
coedge $-1 $206 $200 $294 $379 forward $195 $-1 #
vertex $-1 $379 $381 #
straight-curve $-1 40.731350304360689 -45.426499636932817 10.660873941673195 0 -1 0 I I #
edge $-1 $304 17.064214501395917 $302 30.270057104533628 $293 $382 forward 7 unknown #
coedge $-1 $301 $203 $206 $306 reversed $291 $-1 #
coedge $-1 $203 $300 $378 $383 forward $291 $-1 #
vertex $-1 $299 $384 #
straight-curve $-1 53.9371929074984 -20.979578403751454 12.936770540725941 0 0.81915203911291934 0.57357644374324357 I I #
vertex $-1 $299 $385 #
straight-curve $-1 40.731350304360689 -28.97879268711317 7.3356602921823253 0 0.81915203911291934 0.57357644374324357 I I #
edge $-1 $386 -28.978792687113163 $207 -24.229895532811852 $300 $387 forward 7 unknown #
point $-1 53.9371929074984 -24.229895532811852 10.660873941673195 #
point $-1 40.731350304360689 -24.229895532811852 10.660873941673195 #
edge $-1 $388 1 $388 0 $210 $-1 forward 7 unknown #
vertex $-1 $211 $389 #
ellipse-curve $-1 44.504448190971459 -25.869549396408924 7.9488715315570202 0 -0.57357644374324357 0.81915203911291934 1 0 0 1 I I #
point $-1 45.504448190971459 -26.604344109962504 8.9982671169277584 #
edge $-1 $390 1 $390 0 $214 $-1 forward 7 unknown #
vertex $-1 $215 $391 #
ellipse-curve $-1 50.164095020887615 -25.869549396408924 7.9488715315570202 0 -0.57357644374324357 0.81915203911291934 1 0 0 1 I I #
point $-1 51.164095020887615 -26.604344109962504 8.9982671169277584 #
loop $-1 $-1 $226 $218 #
plane-surface $-1 53.9371929074984 0 0 -1 0 0 0 0 1 forward_v I I I I #
coedge $-1 $392 $320 $225 $325 forward $219 $-1 #
coedge $-1 $319 $393 $222 $321 forward $219 $-1 #
edge $-1 $323 -7.2903301708596508 $330 -2.5414330165583046 $320 $394 forward 7 unknown #
coedge $-1 $229 $223 $393 $395 reversed $139 $-1 #
vertex $-1 $224 $396 #
straight-curve $-1 40.731350304360689 28.978792687113163 64.472144553742439 0 0 1 I I #
edge $-1 $330 17.064214501395917 $328 30.270057104533628 $319 $397 forward 7 unknown #
coedge $-1 $327 $226 $229 $332 reversed $317 $-1 #
coedge $-1 $226 $326 $392 $398 reversed $317 $-1 #
vertex $-1 $398 $399 #
straight-curve $-1 53.9371929074984 -2.7584587169278603 29.558323394173001 0 0.81915203911291934 -0.57357644374324357 I I #
vertex $-1 $325 $400 #
straight-curve $-1 40.731350304360689 -18.49728155424544 40.578765999076467 0 0.81915203911291934 -0.57357644374324357 I I #
edge $-1 $401 -10.660873941673195 $230 -7.3356602921823049 $326 $402 forward 7 unknown #
point $-1 53.9371929074984 28.978792687113163 7.3356602921823049 #
point $-1 40.731350304360689 28.978792687113163 7.335660292182304 #
edge $-1 $403 1 $403 0 $233 $-1 forward 7 unknown #
vertex $-1 $234 $404 #
ellipse-curve $-1 44.504448190971459 25.869549396408924 7.9488715315570166 0 0.57357644374324357 0.81915203911291934 1 0 0 1 I I #
point $-1 45.504448190971459 26.604344109962504 8.9982671169277548 #
edge $-1 $405 1 $405 0 $237 $-1 forward 7 unknown #
vertex $-1 $238 $406 #
ellipse-curve $-1 50.164095020887615 25.869549396408924 7.9488715315570166 0 0.57357644374324357 0.81915203911291934 1 0 0 1 I I #
point $-1 51.164095020887615 26.604344109962504 8.9982671169277548 #
plane-surface $-1 53.9371929074984 0 0 -1 0 0 0 0 1 forward_v I I I I #
coedge $-1 $261 $247 $252 $352 forward $242 $-1 #
vertex $-1 $245 $407 #
vertex $-1 $351 $408 #
straight-curve $-1 53.9371929074984 0 -10.660873941673195 0 -1 0 I I #
straight-curve $-1 0 28.978792687113163 10.660873941673195 -1 0 0 I I #
coedge $-1 $249 $258 $251 $351 reversed $161 $-1 #
straight-curve $-1 0 -28.978792687113163 10.660873941673195 1 0 0 I I #
edge $-1 $254 -10.660873941673195 $346 10.660873941673195 $251 $409 forward 7 unknown #
edge $-1 $255 -10.660873941673195 $345 10.660873941673195 $252 $410 forward 7 unknown #
point $-1 53.9371929074984 -28.978792687113163 10.660873941673195 #
point $-1 53.9371929074984 28.978792687113163 10.660873941673195 #
straight-curve $-1 -53.9371929074984 0 10.660873941673195 0 -1 0 I I #
point $-1 -53.9371929074984 -28.978792687113163 10.660873941673195 #
point $-1 -53.9371929074984 28.978792687113163 10.660873941673195 #
straight-curve $-1 0 28.978792687113163 -10.660873941673195 1 0 0 I I #
straight-curve $-1 0 -28.978792687113163 -10.660873941673195 -1 0 0 I I #
plane-surface $-1 0 0 10.660873941673195 0 0 1 1 0 0 forward_v I I I I #
coedge $-1 $273 $270 $275 $368 reversed $179 $-1 #
coedge $-1 $270 $273 $374 $411 reversed $179 $-1 #
edge $-1 $376 -10.660873941673195 $370 10.660873941673195 $287 $412 forward 7 unknown #
edge $-1 $365 -5.8437609630463072 $285 5.8437609630463072 $272 $413 forward 7 unknown #
vertex $-1 $411 $414 #
vertex $-1 $368 $415 #
straight-curve $-1 -65.624714833591014 -10.80198146855151 0 0 0 -1 I I #
edge $-1 $366 -1.5724683323923685 $370 1.5724683323923685 $361 $416 forward 7 unknown #
straight-curve $-1 -59.780953870544707 -10.80198146855151 -10.660873941673195 -1 0 0 I I #
vertex $-1 $277 $417 #
straight-curve $-1 -59.780953870544707 -7.6570448037667731 -10.660873941673195 1 0 0 I I #
point $-1 -53.9371929074984 -10.80198146855151 -10.660873941673195 #
straight-curve $-1 -53.9371929074984 -10.80198146855151 0 0 0 -1 I I #
coedge $-1 $283 $282 $362 $411 forward $284 $-1 #
point $-1 -53.9371929074984 -10.80198146855151 10.660873941673195 #
vertex $-1 $288 $418 #
straight-curve $-1 -59.780953870544707 -7.6570448037667731 10.660873941673195 -1 0 0 I I #
coedge $-1 $294 $293 $301 $383 reversed $117 $-1 #
edge $-1 $297 40.731350304360689 $386 53.9371929074984 $294 $419 forward 7 unknown #
straight-curve $-1 40.731350304360689 -28.978792687113163 47.850591700295368 0 0 -1 I I #
point $-1 40.731350304360689 -28.978792687113163 10.660873941673195 #
straight-curve $-1 23.667135802964772 -28.978792687113163 7.3356602921823306 1 0 0 I I #
edge $-1 $386 -10.660873941673195 $302 -7.3356602921823306 $301 $420 forward 7 unknown #
point $-1 53.9371929074984 -28.978792687113163 7.3356602921823306 #
point $-1 40.731350304360689 -28.978792687113163 7.3356602921823306 #
vertex $-1 $306 $421 #
straight-curve $-1 53.9371929074984 0 10.660873941673195 0 1 0 I I #
vertex $-1 $309 $422 #
point $-1 45.504448190971459 -25.869549396408924 7.9488715315570202 #
vertex $-1 $313 $423 #
point $-1 51.164095020887615 -25.869549396408924 7.9488715315570202 #
coedge $-1 $393 $319 $327 $398 forward $219 $-1 #
coedge $-1 $320 $392 $322 $395 forward $219 $-1 #
straight-curve $-1 40.731350304360689 21.688462516253512 10.660873941673195 0 -1 0 I I #
edge $-1 $401 -53.9371929074984 $323 -40.731350304360689 $322 $424 forward 7 unknown #
point $-1 40.731350304360689 28.978792687113163 10.660873941673195 #
straight-curve $-1 23.667135802964772 24.22989553281181 10.660873941673199 1 0 0 I I #
edge $-1 $328 24.229895532811817 $401 28.978792687113163 $327 $425 forward 7 unknown #
point $-1 53.9371929074984 24.229895532811817 10.660873941673195 #
point $-1 40.731350304360689 24.229895532811817 10.660873941673195 #
vertex $-1 $398 $426 #
straight-curve $-1 53.9371929074984 28.978792687113163 0 0 0 -1 I I #
vertex $-1 $335 $427 #
point $-1 45.504448190971459 25.869549396408924 7.9488715315570166 #
vertex $-1 $339 $428 #
point $-1 51.164095020887615 25.869549396408924 7.9488715315570166 #
point $-1 53.9371929074984 28.978792687113163 -10.660873941673195 #
point $-1 53.9371929074984 -28.978792687113163 -10.660873941673195 #
straight-curve $-1 53.9371929074984 -28.978792687113163 0 0 0 -1 I I #
straight-curve $-1 53.9371929074984 28.978792687113163 0 0 0 -1 I I #
edge $-1 $376 -1.5724683323923685 $365 1.5724683323923685 $362 $429 forward 7 unknown #
straight-curve $-1 -65.624714833591014 -7.6570448037667731 0 0 0 -1 I I #
straight-curve $-1 -59.780953870544707 -10.80198146855151 10.660873941673195 1 0 0 I I #
point $-1 -65.624714833591014 -10.80198146855151 10.660873941673195 #
point $-1 -65.624714833591014 -10.80198146855151 -10.660873941673195 #
straight-curve $-1 -65.624714833591014 -9.2295131361591416 -10.660873941673195 0 1 0 I I #
point $-1 -65.624714833591014 -7.6570448037667731 -10.660873941673195 #
point $-1 -65.624714833591014 -7.6570448037667731 10.660873941673195 #
straight-curve $-1 0 -28.978792687113163 10.660873941673195 1 0 0 I I #
straight-curve $-1 53.9371929074984 -28.978792687113163 0 0 0 -1 I I #
point $-1 53.9371929074984 -28.978792687113163 10.660873941673195 #
point $-1 44.504448190971459 -25.295972952665682 7.1297194924441003 #
point $-1 50.164095020887615 -25.295972952665682 7.1297194924441003 #
straight-curve $-1 0 28.978792687113163 10.660873941673195 -1 0 0 I I #
straight-curve $-1 53.9371929074984 0 10.660873941673195 0 1 0 I I #
point $-1 53.9371929074984 28.978792687113163 10.660873941673195 #
point $-1 44.504448190971459 25.295972952665682 7.1297194924440968 #
point $-1 50.164095020887615 25.295972952665682 7.1297194924440968 #
straight-curve $-1 -65.624714833591014 -9.2295131361591416 10.660873941673195 0 -1 0 I I #
End-of-ACIS-data 