500 0 5 0           
7 Unknown 11 ACIS 5.0 NT 24 Fri Mar 26 18:56:26 1999 
-1 9.9999999999999995e-007 1e-010 
body $-1 $5 $-1 $6 #
body $-1 $7 $-1 $8 #
body $-1 $9 $-1 $10 #
body $-1 $11 $-1 $12 #
body $-1 $13 $-1 $14 #
lump $-1 $-1 $15 $0 #
transform $-1 1 0 0 0 1 0 0 0 1 76.577043977172153 48.544755857973499 17.352227942335723 1 rotate no_reflect no_shear #
lump $-1 $-1 $16 $1 #
transform $-1 1 0 0 0 1 0 0 0 1 76.577043977172153 48.544755857973499 17.352227942335723 1 rotate no_reflect no_shear #
lump $-1 $-1 $17 $2 #
transform $-1 1 0 0 0 1 0 0 0 1 76.577043977172153 48.544755857973499 17.352227942335723 1 rotate no_reflect no_shear #
lump $-1 $-1 $18 $3 #
transform $-1 1 0 0 0 1 0 0 0 1 76.577043977172153 48.544755857973499 17.352227942335723 1 rotate no_reflect no_shear #
lump $-1 $-1 $19 $4 #
transform $-1 1 0 0 0 1 0 0 0 1 76.577043977172153 48.544755857973499 17.352227942335723 1 rotate no_reflect no_shear #
shell $-1 $-1 $-1 $20 $-1 $5 #
shell $-1 $-1 $-1 $21 $-1 $7 #
shell $-1 $-1 $-1 $22 $-1 $9 #
shell $-1 $-1 $-1 $23 $-1 $11 #
shell $-1 $-1 $-1 $24 $-1 $13 #
face $-1 $25 $26 $15 $-1 $27 forward single #
face $-1 $28 $29 $16 $-1 $30 reversed single #
face $-1 $31 $32 $17 $-1 $33 reversed single #
face $-1 $34 $35 $18 $-1 $36 forward single #
face $-1 $37 $38 $19 $-1 $39 forward single #
face $-1 $40 $41 $15 $-1 $42 reversed single #
loop $-1 $-1 $43 $20 #
plane-surface $-1 0 0 17.352227942335723 0 0 1 1 0 0 forward_v I I I I #
face $-1 $44 $45 $16 $-1 $46 reversed single #
loop $-1 $-1 $47 $21 #
plane-surface $-1 0 -40.120634979440311 7.5859002907916704 0 0 1 1 0 0 forward_v I I I I #
face $-1 $48 $49 $17 $-1 $50 reversed single #
loop $-1 $-1 $51 $22 #
plane-surface $-1 -47.327215100302524 41.012234286574866 90.757569833444862 0.5877852598018023 0 0.80901698891910034 0.80901698891910034 0 -0.5877852598018023 forward_v I I I I #
face $-1 $52 $53 $18 $-1 $54 forward single #
loop $-1 $55 $56 $23 #
cone-surface $-1 63.37845039543236 37.784010755975459 6.6169902321568266 -0.5877852598018023 0 -0.80901698891910034 1.2135254833786506 0 -0.88167788970270344 1 I I 0 1 1.5 forward I I I I #
face $-1 $57 $58 $19 $-1 $59 forward single #
loop $-1 $60 $61 $24 #
cone-surface $-1 63.37845039543236 44.240457817174288 6.6169902321568266 -0.5877852598018023 0 -0.80901698891910034 1.2135254833786506 0 -0.88167788970270344 1 I I 0 1 1.5 forward I I I I #
face $-1 $62 $63 $15 $-1 $64 reversed single #
loop $-1 $-1 $65 $25 #
plane-surface $-1 0 0 -17.352227942335723 0 0 1 1 0 0 forward_v I I I I #
coedge $-1 $66 $67 $68 $69 forward $26 $-1 #
face $-1 $70 $71 $16 $-1 $72 reversed single #
loop $-1 $-1 $73 $28 #
plane-surface $-1 0 -31.696514100907123 12.469064116563697 0 -1 0 0 0 -1 forward_v I I I I #
coedge $-1 $74 $75 $76 $77 reversed $29 $-1 #
face $-1 $78 $79 $17 $-1 $80 reversed single #
loop $-1 $-1 $81 $31 #
plane-surface $-1 42.694500277649823 33.479712715176241 214.66182891091955 0 1 0 0.5877852598018023 0 0.80901698891910034 forward_v I I I I #
coedge $-1 $82 $83 $84 $85 reversed $32 $-1 #
face $-1 $-1 $86 $18 $-1 $87 forward single #
loop $-1 $88 $89 $34 #
cone-surface $-1 61.174255671175601 37.784010755975459 3.5831765237102005 -0.5877852598018023 0 -0.80901698891910034 0.60676274168932531 0 -0.44083894485135172 1 I I -0.70710678118654757 0.70710678118654757 0.75 forward I I I I #
loop $-1 $-1 $90 $23 #
coedge $-1 $56 $56 $91 $92 reversed $35 $-1 #
face $-1 $-1 $93 $19 $-1 $94 forward single #
loop $-1 $95 $96 $37 #
cone-surface $-1 61.174255671175601 44.240457817174288 3.5831765237102005 -0.5877852598018023 0 -0.80901698891910034 0.60676274168932531 0 -0.44083894485135172 1 I I -0.70710678118654757 0.70710678118654757 0.75 forward I I I I #
loop $-1 $-1 $97 $24 #
coedge $-1 $61 $61 $98 $99 reversed $38 $-1 #
face $-1 $100 $101 $15 $-1 $102 reversed single #
loop $-1 $-1 $103 $40 #
plane-surface $-1 0 -48.544755857973499 0 0 1 0 0 0 1 forward_v I I I I #
coedge $-1 $104 $105 $106 $107 forward $41 $-1 #
coedge $-1 $108 $43 $109 $110 forward $26 $-1 #
coedge $-1 $43 $108 $111 $112 forward $26 $-1 #
coedge $-1 $113 $114 $43 $69 reversed $115 $-1 #
edge $-1 $116 -48.544755857973499 $117 48.544755857973499 $68 $118 forward 7 unknown #
face $-1 $119 $120 $16 $-1 $121 reversed single #
loop $-1 $-1 $122 $44 #
plane-surface $-1 -76.577043977172153 0 0 1 0 0 0 0 -1 forward_v I I I I #
coedge $-1 $123 $124 $125 $126 reversed $45 $-1 #
coedge $-1 $127 $47 $128 $129 reversed $29 $-1 #
coedge $-1 $47 $127 $123 $130 forward $29 $-1 #
coedge $-1 $125 $131 $47 $77 forward $132 $-1 #
edge $-1 $133 -28.484438368253343 $134 -11.636196611186968 $76 $135 forward 7 unknown #
face $-1 $136 $137 $17 $-1 $138 forward single #
loop $-1 $-1 $139 $48 #
plane-surface $-1 0 48.544755857973499 0 0 -1 0 0 0 -1 forward_v I I I I #
coedge $-1 $140 $141 $142 $143 reversed $49 $-1 #
coedge $-1 $144 $51 $139 $145 reversed $32 $-1 #
coedge $-1 $51 $144 $140 $146 forward $32 $-1 #
coedge $-1 $142 $147 $51 $85 forward $137 $-1 #
edge $-1 $148 -28.038638714686059 $149 -12.973595571888808 $84 $150 forward 7 unknown #
loop $-1 $-1 $91 $52 #
plane-surface $-1 -47.327215100302524 41.012234286574866 90.757569833444862 0.5877852598018023 0 0.80901698891910034 0.80901698891910034 0 -0.5877852598018023 forward_v I I I I #
loop $-1 $-1 $151 $34 #
coedge $-1 $89 $89 $90 $152 reversed $53 $-1 #
coedge $-1 $90 $90 $89 $152 forward $55 $-1 #
coedge $-1 $91 $91 $56 $92 forward $86 $-1 #
edge $-1 $153 0 $153 6.2831853071796004 $91 $154 forward 7 unknown #
loop $-1 $-1 $98 $57 #
plane-surface $-1 -47.327215100302524 41.012234286574866 90.757569833444862 0.5877852598018023 0 0.80901698891910034 0.80901698891910034 0 -0.5877852598018023 forward_v I I I I #
loop $-1 $-1 $155 $37 #
coedge $-1 $96 $96 $97 $156 reversed $58 $-1 #
coedge $-1 $97 $97 $96 $156 forward $60 $-1 #
coedge $-1 $98 $98 $61 $99 forward $93 $-1 #
edge $-1 $157 0 $157 6.2831853071796004 $98 $158 forward 7 unknown #
face $-1 $159 $160 $15 $-1 $161 reversed single #
loop $-1 $-1 $162 $62 #
plane-surface $-1 -76.577043977172153 0 0 1 0 0 0 0 -1 forward_v I I I I #
coedge $-1 $163 $111 $164 $165 forward $63 $-1 #
coedge $-1 $166 $65 $163 $167 forward $41 $-1 #
coedge $-1 $65 $166 $168 $169 forward $41 $-1 #
coedge $-1 $114 $113 $65 $107 reversed $115 $-1 #
edge $-1 $170 -48.544755857973499 $171 48.544755857973499 $106 $172 forward 7 unknown #
coedge $-1 $67 $66 $173 $174 forward $26 $-1 #
coedge $-1 $175 $176 $66 $110 reversed $160 $-1 #
edge $-1 $117 -76.577043977172153 $177 76.577043977172153 $109 $178 forward 7 unknown #
coedge $-1 $103 $179 $67 $112 reversed $63 $-1 #
edge $-1 $180 -76.577043977172153 $116 76.577043977172153 $111 $181 forward 7 unknown #
coedge $-1 $106 $68 $179 $182 forward $115 $-1 #
coedge $-1 $68 $106 $175 $183 reversed $115 $-1 #
loop $-1 $-1 $113 $159 #
vertex $-1 $69 $184 #
vertex $-1 $69 $185 #
straight-curve $-1 76.577043977172153 0 17.352227942335723 0 1 0 I I #
face $-1 $186 $187 $16 $-1 $188 forward single #
loop $-1 $-1 $128 $70 #
plane-surface $-1 0 -48.544755857973499 0 0 1 0 0 0 1 forward_v I I I I #
coedge $-1 $189 $190 $191 $192 forward $71 $-1 #
coedge $-1 $191 $73 $75 $130 reversed $45 $-1 #
coedge $-1 $73 $191 $193 $194 reversed $45 $-1 #
coedge $-1 $195 $76 $73 $126 forward $132 $-1 #
edge $-1 $134 1.351368232509822 $196 11.117695884053875 $125 $197 forward 7 unknown #
coedge $-1 $75 $74 $189 $198 reversed $29 $-1 #
coedge $-1 $199 $200 $74 $129 forward $120 $-1 #
edge $-1 $201 -76.577043977172153 $133 76.577043977172153 $128 $202 forward 7 unknown #
edge $-1 $203 -76.577043977172153 $134 76.577043977172153 $123 $204 forward 7 unknown #
coedge $-1 $76 $195 $199 $205 forward $132 $-1 #
loop $-1 $-1 $125 $186 #
vertex $-1 $129 $206 #
vertex $-1 $77 $207 #
straight-curve $-1 76.577043977172153 -20.060317489720155 7.5859002907916704 0 1 0 I I #
face $-1 $-1 $208 $17 $-1 $209 reversed single #
loop $-1 $-1 $84 $78 #
plane-surface $-1 0 0 17.352227942335723 0 0 1 1 0 0 forward_v I I I I #
coedge $-1 $210 $211 $82 $145 forward $79 $-1 #
coedge $-1 $141 $81 $83 $146 reversed $49 $-1 #
coedge $-1 $81 $140 $212 $213 reversed $49 $-1 #
coedge $-1 $214 $84 $81 $143 forward $137 $-1 #
edge $-1 $149 32.359318233678401 $215 55.229793838347241 $142 $216 forward 7 unknown #
coedge $-1 $83 $82 $217 $218 reversed $32 $-1 #
edge $-1 $219 -107.33684654539184 $148 -79.067383829626991 $139 $220 forward 7 unknown #
edge $-1 $221 -153.15408795434431 $149 -124.88462523857946 $140 $222 forward 7 unknown #
coedge $-1 $84 $214 $210 $223 forward $137 $-1 #
vertex $-1 $85 $224 #
vertex $-1 $85 $225 #
straight-curve $-1 53.706568372503298 20.506117143287433 17.352227942335716 0 -1 0 I I #
coedge $-1 $151 $151 $-1 $226 reversed $88 $-1 #
edge $-1 $227 0 $227 6.2831853071796004 $89 $228 forward 7 unknown #
vertex $-1 $92 $229 #
ellipse-curve $-1 65.141806174837754 37.784010755975459 9.0440411989141154 0.5877852598018023 0 0.80901698891910034 1.2135254833786506 0 -0.88167788970270344 1 I I #
coedge $-1 $155 $155 $-1 $230 reversed $95 $-1 #
edge $-1 $231 0 $231 6.2831853071796004 $96 $232 forward 7 unknown #
vertex $-1 $99 $233 #
ellipse-curve $-1 65.141806174837754 44.240457817174288 9.0440411989141154 0.5877852598018023 0 0.80901698891910034 1.2135254833786506 0 -0.88167788970270344 1 I I #
face $-1 $-1 $115 $15 $-1 $234 reversed single #
loop $-1 $-1 $175 $100 #
plane-surface $-1 0 48.544755857973499 0 0 -1 0 0 0 -1 forward_v I I I I #
coedge $-1 $235 $173 $176 $236 forward $101 $-1 #
coedge $-1 $179 $103 $104 $167 reversed $63 $-1 #
coedge $-1 $173 $235 $103 $165 reversed $101 $-1 #
edge $-1 $180 -17.352227942335723 $237 17.352227942335723 $164 $238 forward 7 unknown #
coedge $-1 $105 $104 $235 $239 forward $41 $-1 #
edge $-1 $171 -76.577043977172153 $237 76.577043977172153 $163 $240 forward 7 unknown #
coedge $-1 $176 $175 $105 $169 reversed $160 $-1 #
edge $-1 $241 -76.577043977172153 $170 76.577043977172153 $168 $242 forward 7 unknown #
vertex $-1 $107 $243 #
vertex $-1 $182 $244 #
straight-curve $-1 76.577043977172153 0 -17.352227942335723 0 -1 0 I I #
coedge $-1 $162 $164 $108 $174 reversed $101 $-1 #
edge $-1 $177 -48.544755857973499 $180 48.544755857973499 $173 $245 forward 7 unknown #
coedge $-1 $168 $109 $114 $183 forward $160 $-1 #
coedge $-1 $109 $168 $162 $236 reversed $160 $-1 #
vertex $-1 $110 $246 #
straight-curve $-1 0 48.544755857973499 17.352227942335723 -1 0 0 I I #
coedge $-1 $111 $163 $113 $182 reversed $63 $-1 #
vertex $-1 $174 $247 #
straight-curve $-1 0 -48.544755857973499 17.352227942335723 1 0 0 I I #
edge $-1 $116 -17.352227942335723 $171 17.352227942335723 $113 $248 forward 7 unknown #
edge $-1 $117 -17.352227942335723 $170 17.352227942335723 $114 $249 forward 7 unknown #
point $-1 76.577043977172153 -48.544755857973499 17.352227942335723 #
point $-1 76.577043977172153 48.544755857973499 17.352227942335723 #
face $-1 $-1 $132 $16 $-1 $250 reversed single #
loop $-1 $-1 $193 $119 #
plane-surface $-1 0 0 17.352227942335723 0 0 1 1 0 0 forward_v I I I I #
coedge $-1 $251 $122 $127 $198 forward $71 $-1 #
coedge $-1 $122 $251 $252 $253 reversed $71 $-1 #
coedge $-1 $124 $123 $122 $192 reversed $45 $-1 #
edge $-1 $254 -11.117695884053875 $203 -1.351368232509822 $122 $255 forward 7 unknown #
coedge $-1 $252 $256 $124 $194 forward $187 $-1 #
edge $-1 $196 -76.577043977172153 $254 76.577043977172153 $193 $257 forward 7 unknown #
coedge $-1 $131 $125 $256 $258 reversed $132 $-1 #
vertex $-1 $126 $259 #
straight-curve $-1 76.577043977172153 -31.696514100907123 6.2345320582818484 0 0 1 I I #
edge $-1 $203 11.636196611186968 $201 28.484438368253343 $189 $260 forward 7 unknown #
coedge $-1 $261 $128 $131 $205 reversed $120 $-1 #
coedge $-1 $128 $261 $251 $262 forward $120 $-1 #
vertex $-1 $129 $263 #
straight-curve $-1 0 -48.544755857973499 7.5859002907916704 1 0 0 I I #
vertex $-1 $198 $264 #
straight-curve $-1 0 -31.696514100907123 7.5859002907916704 1 0 0 I I #
edge $-1 $265 -17.352227942335723 $133 -7.5859002907916704 $131 $266 forward 7 unknown #
point $-1 76.577043977172153 -48.544755857973499 7.5859002907916704 #
point $-1 76.577043977172153 -31.696514100907123 7.5859002907916704 #
loop $-1 $-1 $217 $136 #
plane-surface $-1 76.577043977172153 0 0 -1 0 0 0 0 1 forward_v I I I I #
coedge $-1 $211 $139 $147 $223 reversed $79 $-1 #
coedge $-1 $139 $210 $267 $268 forward $79 $-1 #
coedge $-1 $217 $269 $141 $213 forward $208 $-1 #
edge $-1 $215 89.978686513124046 $221 106.59505999996726 $212 $270 forward 7 unknown #
coedge $-1 $147 $142 $269 $271 forward $137 $-1 #
vertex $-1 $271 $272 #
straight-curve $-1 21.347250138824911 33.479712715176241 17.35222794233573 1 0 0 I I #
coedge $-1 $267 $212 $144 $218 forward $208 $-1 #
edge $-1 $221 12.973595571888808 $219 28.038638714686059 $217 $273 forward 7 unknown #
vertex $-1 $218 $274 #
straight-curve $-1 -10.260288415052282 48.544755857973499 63.82687068848184 -0.80901698891910034 0 0.5877852598018023 I I #
vertex $-1 $218 $275 #
straight-curve $-1 -47.327215100302524 33.479712715176241 90.757569833444862 -0.80901698891910034 0 0.5877852598018023 I I #
edge $-1 $276 -76.577043977172153 $148 -53.706568372503313 $210 $277 forward 7 unknown #
point $-1 53.706568372503313 48.544755857973492 17.352227942335716 #
point $-1 53.706568372503313 33.479712715176241 17.352227942335716 #
edge $-1 $278 1 $278 0 $151 $-1 forward 7 unknown #
vertex $-1 $152 $279 #
ellipse-curve $-1 61.615094616026951 37.784010755975459 4.1899392653995253 0.5877852598018023 0 0.80901698891910034 1.2135254833786506 0 -0.88167788970270344 1 I I #
point $-1 66.355331658216414 37.784010755975459 8.1623633092114254 #
edge $-1 $280 1 $280 0 $155 $-1 forward 7 unknown #
vertex $-1 $156 $281 #
ellipse-curve $-1 61.615094616026951 44.240457817174288 4.1899392653995253 0.5877852598018023 0 0.80901698891910034 1.2135254833786506 0 -0.88167788970270344 1 I I #
point $-1 66.355331658216414 44.240457817174288 8.1623633092114254 #
plane-surface $-1 76.577043977172153 0 0 -1 0 0 0 0 1 forward_v I I I I #
coedge $-1 $164 $162 $166 $239 reversed $101 $-1 #
edge $-1 $177 -17.352227942335723 $241 17.352227942335723 $176 $282 forward 7 unknown #
vertex $-1 $239 $283 #
straight-curve $-1 -76.577043977172153 -48.544755857973499 0 0 0 -1 I I #
edge $-1 $237 -48.544755857973499 $241 48.544755857973499 $235 $284 forward 7 unknown #
straight-curve $-1 0 -48.544755857973499 -17.352227942335723 -1 0 0 I I #
vertex $-1 $169 $285 #
straight-curve $-1 0 48.544755857973499 -17.352227942335723 1 0 0 I I #
point $-1 76.577043977172153 48.544755857973499 -17.352227942335723 #
point $-1 76.577043977172153 -48.544755857973499 -17.352227942335723 #
straight-curve $-1 -76.577043977172153 0 17.352227942335723 0 -1 0 I I #
point $-1 -76.577043977172153 48.544755857973499 17.352227942335723 #
point $-1 -76.577043977172153 -48.544755857973499 17.352227942335723 #
straight-curve $-1 76.577043977172153 -48.544755857973499 0 0 0 -1 I I #
straight-curve $-1 76.577043977172153 48.544755857973499 0 0 0 -1 I I #
plane-surface $-1 76.577043977172153 0 0 -1 0 0 0 0 1 forward_v I I I I #
coedge $-1 $190 $189 $200 $262 reversed $71 $-1 #
coedge $-1 $286 $193 $190 $253 forward $187 $-1 #
edge $-1 $254 31.696514100907123 $287 48.544755857973499 $190 $288 forward 7 unknown #
vertex $-1 $253 $289 #
straight-curve $-1 -76.577043977172153 -31.696514100907123 6.2345320582818484 0 0 -1 I I #
coedge $-1 $193 $286 $195 $258 forward $187 $-1 #
straight-curve $-1 0 -31.696514100907123 17.352227942335723 -1 0 0 I I #
edge $-1 $265 -48.544755857973499 $196 -31.696514100907123 $195 $290 forward 7 unknown #
point $-1 76.577043977172153 -31.696514100907123 17.352227942335723 #
straight-curve $-1 -76.577043977172153 -20.060317489720155 7.5859002907916704 0 -1 0 I I #
coedge $-1 $200 $199 $286 $291 reversed $120 $-1 #
edge $-1 $287 -17.352227942335723 $201 -7.5859002907916704 $251 $292 forward 7 unknown #
point $-1 -76.577043977172153 -48.544755857973499 7.5859002907916704 #
point $-1 -76.577043977172153 -31.696514100907123 7.5859002907916704 #
vertex $-1 $258 $293 #
straight-curve $-1 76.577043977172153 -48.544755857973499 0 0 0 -1 I I #
coedge $-1 $269 $217 $211 $268 reversed $208 $-1 #
edge $-1 $276 -17.352227942335723 $219 -0.7358544554925146 $267 $294 forward 7 unknown #
coedge $-1 $212 $267 $214 $271 reversed $208 $-1 #
straight-curve $-1 76.577043977172153 33.479712715176241 107.33091445545978 0 0 -1 I I #
edge $-1 $215 33.479712715176241 $276 48.544755857973499 $269 $295 forward 7 unknown #
point $-1 76.577043977172153 33.479712715176241 17.352227942335723 #
straight-curve $-1 76.577043977172167 20.506117143287433 0.73585445549252171 0 1 0 I I #
point $-1 76.577043977172167 48.544755857973492 0.7358544554925146 #
point $-1 76.577043977172167 33.479712715176241 0.7358544554925146 #
vertex $-1 $271 $296 #
straight-curve $-1 0 48.544755857973499 17.352227942335723 -1 0 0 I I #
vertex $-1 $226 $297 #
point $-1 62.828620099405605 37.784010755975459 3.3082613756968224 #
vertex $-1 $230 $298 #
point $-1 62.828620099405605 44.240457817174288 3.3082613756968224 #
straight-curve $-1 -76.577043977172153 48.544755857973499 0 0 0 -1 I I #
point $-1 -76.577043977172153 -48.544755857973499 -17.352227942335723 #
straight-curve $-1 -76.577043977172153 0 -17.352227942335723 0 1 0 I I #
point $-1 -76.577043977172153 48.544755857973499 -17.352227942335723 #
coedge $-1 $256 $252 $261 $291 forward $187 $-1 #
vertex $-1 $253 $299 #
straight-curve $-1 -76.577043977172153 0 17.352227942335723 0 -1 0 I I #
point $-1 -76.577043977172153 -31.696514100907123 17.352227942335723 #
straight-curve $-1 76.577043977172153 0 17.352227942335723 0 1 0 I I #
edge $-1 $287 -76.577043977172153 $265 76.577043977172153 $261 $300 forward 7 unknown #
straight-curve $-1 -76.577043977172153 -48.544755857973499 0 0 0 -1 I I #
point $-1 76.577043977172153 -48.544755857973499 17.352227942335723 #
straight-curve $-1 76.577043977172153 48.544755857973499 0 0 0 -1 I I #
straight-curve $-1 76.577043977172153 0 17.352227942335723 0 1 0 I I #
point $-1 76.577043977172153 48.544755857973499 17.352227942335723 #
point $-1 60.733416726324251 37.784010755975459 2.9764137820208751 #
point $-1 60.733416726324251 44.240457817174288 2.9764137820208751 #
point $-1 -76.577043977172153 -48.544755857973499 17.352227942335723 #
straight-curve $-1 0 -48.544755857973499 17.352227942335723 1 0 0 I I #
End-of-ACIS-data 