500 0 2 0           
7 Unknown 11 ACIS 5.0 NT 24 Fri Mar 26 15:53:24 1999 
-1 9.9999999999999995e-007 1e-010 
body $-1 $2 $-1 $3 #
body $-1 $4 $-1 $5 #
lump $-1 $-1 $6 $0 #
transform $-1 1 0 0 0 1 0 0 0 1 49.891659291360213 20.444967654491997 6.8638237000642315 1 rotate no_reflect no_shear #
lump $-1 $-1 $7 $1 #
transform $-1 1 0 0 0 1 0 0 0 1 49.891659291360213 20.444967654491997 6.8638237000642315 1 rotate no_reflect no_shear #
shell $-1 $-1 $-1 $8 $-1 $2 #
shell $-1 $-1 $-1 $9 $-1 $4 #
face $-1 $10 $11 $6 $-1 $12 forward single #
face $-1 $13 $14 $7 $-1 $15 forward single #
face $-1 $16 $17 $6 $-1 $18 reversed single #
loop $-1 $-1 $19 $8 #
plane-surface $-1 0 0 6.8638237000642315 0 0 1 1 0 0 forward_v I I I I #
face $-1 $20 $21 $7 $-1 $22 forward single #
loop $-1 $-1 $23 $9 #
plane-surface $-1 -46.109897088399073 0 3.7387698272111107 0 0 1 1 0 0 forward_v I I I I #
face $-1 $24 $25 $6 $-1 $26 reversed single #
loop $-1 $-1 $27 $10 #
plane-surface $-1 0 0 -6.8638237000642315 0 0 1 1 0 0 forward_v I I I I #
coedge $-1 $28 $29 $30 $31 forward $11 $-1 #
face $-1 $32 $33 $7 $-1 $34 forward single #
loop $-1 $-1 $35 $13 #
plane-surface $-1 -42.328134885437933 0 5.301296763637672 -1 0 0 0 0 1 forward_v I I I I #
coedge $-1 $36 $37 $38 $39 reversed $14 $-1 #
face $-1 $40 $41 $6 $-1 $42 reversed single #
loop $-1 $-1 $43 $16 #
plane-surface $-1 0 -20.444967654491997 0 0 1 0 0 0 1 forward_v I I I I #
coedge $-1 $44 $45 $46 $47 forward $17 $-1 #
coedge $-1 $48 $19 $49 $50 forward $11 $-1 #
coedge $-1 $19 $48 $51 $52 forward $11 $-1 #
coedge $-1 $53 $54 $19 $31 reversed $55 $-1 #
edge $-1 $56 -20.444967654491997 $57 20.444967654491997 $30 $58 forward 7 unknown #
face $-1 $59 $60 $7 $-1 $61 reversed single #
loop $-1 $-1 $62 $20 #
plane-surface $-1 0 0 6.8638237000642315 0 0 1 1 0 0 forward_v I I I I #
coedge $-1 $63 $38 $64 $65 reversed $21 $-1 #
coedge $-1 $66 $23 $67 $68 reversed $14 $-1 #
coedge $-1 $23 $66 $69 $70 reversed $14 $-1 #
coedge $-1 $35 $71 $23 $39 forward $21 $-1 #
edge $-1 $72 -20.444967654491997 $73 20.444967654491997 $38 $74 forward 7 unknown #
face $-1 $75 $76 $6 $-1 $77 reversed single #
loop $-1 $-1 $78 $24 #
plane-surface $-1 -49.891659291360213 0 0 1 0 0 0 0 -1 forward_v I I I I #
coedge $-1 $79 $51 $80 $81 forward $25 $-1 #
coedge $-1 $82 $27 $79 $83 forward $17 $-1 #
coedge $-1 $27 $82 $84 $85 forward $17 $-1 #
coedge $-1 $54 $53 $27 $47 reversed $55 $-1 #
edge $-1 $86 -20.444967654491997 $87 20.444967654491997 $46 $88 forward 7 unknown #
coedge $-1 $29 $28 $89 $90 forward $11 $-1 #
coedge $-1 $91 $92 $28 $50 reversed $76 $-1 #
edge $-1 $57 -49.891659291360213 $93 49.891659291360213 $49 $94 forward 7 unknown #
coedge $-1 $43 $95 $29 $52 reversed $25 $-1 #
edge $-1 $96 -49.891659291360213 $56 49.891659291360213 $51 $97 forward 7 unknown #
coedge $-1 $46 $30 $95 $98 forward $55 $-1 #
coedge $-1 $30 $46 $91 $99 reversed $55 $-1 #
loop $-1 $-1 $53 $75 #
vertex $-1 $31 $100 #
vertex $-1 $31 $101 #
straight-curve $-1 49.891659291360213 0 6.8638237000642315 0 1 0 I I #
face $-1 $102 $103 $7 $-1 $104 reversed single #
loop $-1 $-1 $64 $32 #
plane-surface $-1 0 -20.444967654491997 0 0 1 0 0 0 1 forward_v I I I I #
coedge $-1 $105 $106 $63 $107 forward $33 $-1 #
coedge $-1 $71 $35 $62 $107 reversed $21 $-1 #
coedge $-1 $69 $108 $35 $65 forward $60 $-1 #
edge $-1 $109 -4.2131753182453977 $73 -1.0881214453922747 $64 $110 forward 7 unknown #
coedge $-1 $37 $36 $111 $112 reversed $14 $-1 #
coedge $-1 $113 $114 $36 $68 forward $115 $-1 #
edge $-1 $116 -26.836710747160677 $72 -19.273186341238397 $67 $117 forward 7 unknown #
coedge $-1 $118 $64 $37 $70 forward $60 $-1 #
edge $-1 $73 19.273186341238397 $119 26.836710747160677 $69 $120 forward 7 unknown #
coedge $-1 $38 $63 $113 $121 reversed $21 $-1 #
vertex $-1 $68 $122 #
vertex $-1 $70 $123 #
straight-curve $-1 -42.328134885437933 0 3.7387698272111107 0 -1 0 I I #
face $-1 $-1 $55 $6 $-1 $124 reversed single #
loop $-1 $-1 $91 $40 #
plane-surface $-1 0 20.444967654491997 0 0 -1 0 0 0 -1 forward_v I I I I #
coedge $-1 $125 $89 $92 $126 forward $41 $-1 #
coedge $-1 $95 $43 $44 $83 reversed $25 $-1 #
coedge $-1 $89 $125 $43 $81 reversed $41 $-1 #
edge $-1 $96 -6.8638237000642315 $127 6.8638237000642315 $80 $128 forward 7 unknown #
coedge $-1 $45 $44 $125 $129 forward $17 $-1 #
edge $-1 $87 -49.891659291360213 $127 49.891659291360213 $79 $130 forward 7 unknown #
coedge $-1 $92 $91 $45 $85 reversed $76 $-1 #
edge $-1 $131 -49.891659291360213 $86 49.891659291360213 $84 $132 forward 7 unknown #
vertex $-1 $47 $133 #
vertex $-1 $98 $134 #
straight-curve $-1 49.891659291360213 0 -6.8638237000642315 0 -1 0 I I #
coedge $-1 $78 $80 $48 $90 reversed $41 $-1 #
edge $-1 $93 -20.444967654491997 $96 20.444967654491997 $89 $135 forward 7 unknown #
coedge $-1 $84 $49 $54 $99 forward $76 $-1 #
coedge $-1 $49 $84 $78 $126 reversed $76 $-1 #
vertex $-1 $50 $136 #
straight-curve $-1 0 20.444967654491997 6.8638237000642315 -1 0 0 I I #
coedge $-1 $51 $79 $53 $98 reversed $25 $-1 #
vertex $-1 $90 $137 #
straight-curve $-1 0 -20.444967654491997 6.8638237000642315 1 0 0 I I #
edge $-1 $56 -6.8638237000642315 $87 6.8638237000642315 $53 $138 forward 7 unknown #
edge $-1 $57 -6.8638237000642315 $86 6.8638237000642315 $54 $139 forward 7 unknown #
point $-1 49.891659291360213 -20.444967654491997 6.8638237000642315 #
point $-1 49.891659291360213 20.444967654491997 6.8638237000642315 #
face $-1 $140 $141 $7 $-1 $142 reversed single #
loop $-1 $-1 $143 $59 #
plane-surface $-1 0 0 -6.8638237000642315 0 0 1 1 0 0 forward_v I I I I #
coedge $-1 $144 $62 $108 $145 forward $33 $-1 #
coedge $-1 $62 $144 $146 $147 forward $33 $-1 #
edge $-1 $148 -20.444967654491997 $109 20.444967654491997 $62 $149 forward 7 unknown #
coedge $-1 $64 $150 $105 $145 reversed $60 $-1 #
vertex $-1 $145 $151 #
straight-curve $-1 -42.328134885437933 -20.444967654491997 2.650648381818836 0 0 -1 I I #
coedge $-1 $152 $153 $66 $112 forward $141 $-1 #
edge $-1 $119 -20.444967654491997 $116 20.444967654491997 $111 $154 forward 7 unknown #
coedge $-1 $146 $67 $71 $121 forward $115 $-1 #
coedge $-1 $67 $155 $152 $156 reversed $115 $-1 #
loop $-1 $-1 $113 $140 #
vertex $-1 $156 $157 #
straight-curve $-1 -23.054948544199537 20.444967654491997 3.7387698272111107 1 0 0 I I #
coedge $-1 $158 $69 $153 $159 forward $60 $-1 #
vertex $-1 $159 $160 #
straight-curve $-1 -23.054948544199537 -20.444967654491997 3.7387698272111107 -1 0 0 I I #
edge $-1 $72 1.0881214453922747 $148 4.2131753182453977 $113 $161 forward 7 unknown #
point $-1 -42.328134885437933 20.444967654491997 3.7387698272111107 #
point $-1 -42.328134885437933 -20.444967654491997 3.7387698272111107 #
plane-surface $-1 49.891659291360213 0 0 -1 0 0 0 0 1 forward_v I I I I #
coedge $-1 $80 $78 $82 $129 reversed $41 $-1 #
edge $-1 $93 -6.8638237000642315 $131 6.8638237000642315 $92 $162 forward 7 unknown #
vertex $-1 $129 $163 #
straight-curve $-1 -49.891659291360213 -20.444967654491997 0 0 0 -1 I I #
edge $-1 $127 -20.444967654491997 $131 20.444967654491997 $125 $164 forward 7 unknown #
straight-curve $-1 0 -20.444967654491997 -6.8638237000642315 -1 0 0 I I #
vertex $-1 $85 $165 #
straight-curve $-1 0 20.444967654491997 -6.8638237000642315 1 0 0 I I #
point $-1 49.891659291360213 20.444967654491997 -6.8638237000642315 #
point $-1 49.891659291360213 -20.444967654491997 -6.8638237000642315 #
straight-curve $-1 -49.891659291360213 0 6.8638237000642315 0 -1 0 I I #
point $-1 -49.891659291360213 20.444967654491997 6.8638237000642315 #
point $-1 -49.891659291360213 -20.444967654491997 6.8638237000642315 #
straight-curve $-1 49.891659291360213 -20.444967654491997 0 0 0 -1 I I #
straight-curve $-1 49.891659291360213 20.444967654491997 0 0 0 -1 I I #
face $-1 $166 $115 $7 $-1 $167 reversed single #
loop $-1 $-1 $111 $102 #
plane-surface $-1 -49.891659291360213 0 0 1 0 0 0 0 -1 forward_v I I I I #
coedge $-1 $168 $169 $170 $171 forward $103 $-1 #
coedge $-1 $106 $105 $172 $173 forward $33 $-1 #
edge $-1 $109 -42.328134885437933 $174 49.891659291360213 $108 $175 forward 7 unknown #
coedge $-1 $176 $113 $106 $147 reversed $115 $-1 #
edge $-1 $177 -49.891659291360213 $148 42.328134885437933 $146 $178 forward 7 unknown #
vertex $-1 $107 $179 #
straight-curve $-1 -42.328134885437933 0 6.8638237000642315 0 -1 0 I I #
coedge $-1 $108 $158 $180 $181 reversed $60 $-1 #
point $-1 -42.328134885437933 -20.444967654491997 6.8638237000642333 #
coedge $-1 $182 $111 $114 $156 forward $141 $-1 #
coedge $-1 $111 $182 $118 $159 reversed $141 $-1 #
straight-curve $-1 -49.891659291360213 0 3.7387698272111107 0 1 0 I I #
coedge $-1 $114 $176 $169 $183 reversed $115 $-1 #
edge $-1 $116 -3.7387698272111107 $184 6.8638237000642315 $114 $185 forward 7 unknown #
point $-1 -49.891659291360213 20.444967654491997 3.7387698272111107 #
coedge $-1 $150 $118 $168 $186 reversed $60 $-1 #
edge $-1 $119 -3.7387698272111107 $187 6.8638237000642315 $153 $188 forward 7 unknown #
point $-1 -49.891659291360213 -20.444967654491997 3.7387698272111107 #
straight-curve $-1 -42.328134885437933 20.444967654491997 2.650648381818836 0 0 1 I I #
straight-curve $-1 -49.891659291360213 20.444967654491997 0 0 0 -1 I I #
point $-1 -49.891659291360213 -20.444967654491997 -6.8638237000642315 #
straight-curve $-1 -49.891659291360213 0 -6.8638237000642315 0 1 0 I I #
point $-1 -49.891659291360213 20.444967654491997 -6.8638237000642315 #
face $-1 $-1 $189 $7 $-1 $190 reversed single #
plane-surface $-1 0 20.444967654491997 0 0 -1 0 0 0 -1 forward_v I I I I #
coedge $-1 $191 $143 $158 $186 forward $103 $-1 #
coedge $-1 $143 $191 $155 $183 forward $103 $-1 #
coedge $-1 $192 $180 $143 $171 reversed $189 $-1 #
edge $-1 $193 -20.444967654491997 $194 20.444967654491997 $170 $195 forward 7 unknown #
coedge $-1 $180 $192 $144 $173 reversed $189 $-1 #
edge $-1 $174 -20.444967654491997 $177 20.444967654491997 $172 $196 forward 7 unknown #
vertex $-1 $173 $197 #
straight-curve $-1 0 -20.444967654491997 6.8638237000642315 1 0 0 I I #
coedge $-1 $155 $146 $192 $198 forward $115 $-1 #
vertex $-1 $173 $199 #
straight-curve $-1 0 20.444967654491997 6.8638237000642315 -1 0 0 I I #
point $-1 -42.328134885437933 20.444967654491997 6.8638237000642333 #
coedge $-1 $170 $172 $150 $181 forward $189 $-1 #
edge $-1 $174 -6.8638237000642315 $194 6.8638237000642315 $180 $200 forward 7 unknown #
coedge $-1 $153 $152 $191 $201 reversed $141 $-1 #
edge $-1 $184 -49.891659291360213 $193 49.891659291360213 $155 $202 forward 7 unknown #
vertex $-1 $183 $203 #
straight-curve $-1 -49.891659291360213 20.444967654491997 0 0 0 -1 I I #
edge $-1 $194 -49.891659291360213 $187 49.891659291360213 $158 $204 forward 7 unknown #
vertex $-1 $201 $205 #
straight-curve $-1 -49.891659291360213 -20.444967654491997 0 0 0 -1 I I #
loop $-1 $-1 $180 $166 #
plane-surface $-1 49.891659291360213 0 0 -1 0 0 0 0 1 forward_v I I I I #
coedge $-1 $169 $168 $182 $201 forward $103 $-1 #
coedge $-1 $172 $170 $176 $198 reversed $189 $-1 #
vertex $-1 $171 $206 #
vertex $-1 $181 $207 #
straight-curve $-1 49.891659291360213 0 -6.8638237000642315 0 -1 0 I I #
straight-curve $-1 49.891659291360213 0 6.8638237000642315 0 1 0 I I #
point $-1 49.891659291360213 -20.444967654491997 6.8638237000642315 #
edge $-1 $177 -6.8638237000642315 $193 6.8638237000642315 $192 $208 forward 7 unknown #
point $-1 49.891659291360213 20.444967654491997 6.8638237000642315 #
straight-curve $-1 49.891659291360213 -20.444967654491997 0 0 0 -1 I I #
edge $-1 $187 -20.444967654491997 $184 20.444967654491997 $182 $209 forward 7 unknown #
straight-curve $-1 0 20.444967654491997 -6.8638237000642315 1 0 0 I I #
point $-1 -49.891659291360213 20.444967654491997 -6.8638237000642315 #
straight-curve $-1 0 -20.444967654491997 -6.8638237000642315 -1 0 0 I I #
point $-1 -49.891659291360213 -20.444967654491997 -6.8638237000642315 #
point $-1 49.891659291360213 20.444967654491997 -6.8638237000642315 #
point $-1 49.891659291360213 -20.444967654491997 -6.8638237000642315 #
straight-curve $-1 49.891659291360213 20.444967654491997 0 0 0 -1 I I #
straight-curve $-1 -49.891659291360213 0 -6.8638237000642315 0 1 0 I I #
End-of-ACIS-data 