500 0 8 0           
7 Unknown 11 ACIS 5.0 NT 24 Thu Mar 25 15:57:50 1999 
-1 9.9999999999999995e-007 1e-010 
body $-1 $8 $-1 $9 #
body $-1 $10 $-1 $11 #
body $-1 $12 $-1 $13 #
body $-1 $14 $-1 $15 #
body $-1 $16 $-1 $17 #
body $-1 $18 $-1 $19 #
body $-1 $20 $-1 $21 #
body $-1 $22 $-1 $23 #
lump $-1 $-1 $24 $0 #
transform $-1 1 0 0 0 1 0 0 0 1 74.376049073763241 30.184868184231647 9.5436949636969608 1 rotate no_reflect no_shear #
lump $-1 $-1 $25 $1 #
transform $-1 1 0 0 0 1 0 0 0 1 74.376049073763241 30.184868184231647 9.5436949636969608 1 rotate no_reflect no_shear #
lump $-1 $-1 $26 $2 #
transform $-1 1 0 0 0 1 0 0 0 1 74.376049073763241 30.184868184231647 9.5436949636969608 1 rotate no_reflect no_shear #
lump $-1 $-1 $27 $3 #
transform $-1 1 0 0 0 1 0 0 0 1 74.376049073763241 30.184868184231647 9.5436949636969608 1 rotate no_reflect no_shear #
lump $-1 $-1 $28 $4 #
transform $-1 1 0 0 0 1 0 0 0 1 74.376049073763241 30.184868184231647 9.5436949636969608 1 rotate no_reflect no_shear #
lump $-1 $-1 $29 $5 #
transform $-1 1 0 0 0 1 0 0 0 1 74.376049073763241 30.184868184231647 9.5436949636969608 1 rotate no_reflect no_shear #
lump $-1 $-1 $30 $6 #
transform $-1 1 0 0 0 1 0 0 0 1 74.376049073763241 30.184868184231647 9.5436949636969608 1 rotate no_reflect no_shear #
lump $-1 $-1 $31 $7 #
transform $-1 1 0 0 0 1 0 0 0 1 74.376049073763241 30.184868184231647 9.5436949636969608 1 rotate no_reflect no_shear #
shell $-1 $-1 $-1 $32 $-1 $8 #
shell $-1 $-1 $-1 $33 $-1 $10 #
shell $-1 $-1 $-1 $34 $-1 $12 #
shell $-1 $-1 $-1 $35 $-1 $14 #
shell $-1 $-1 $-1 $36 $-1 $16 #
shell $-1 $-1 $-1 $37 $-1 $18 #
shell $-1 $-1 $-1 $38 $-1 $20 #
shell $-1 $-1 $-1 $39 $-1 $22 #
face $-1 $40 $41 $24 $-1 $42 forward single #
face $-1 $43 $44 $25 $-1 $45 forward single #
face $-1 $46 $47 $26 $-1 $48 reversed single #
face $-1 $49 $50 $27 $-1 $51 forward single #
face $-1 $52 $53 $28 $-1 $54 forward single #
face $-1 $55 $56 $29 $-1 $57 reversed single #
face $-1 $58 $59 $30 $-1 $60 forward single #
face $-1 $61 $62 $31 $-1 $63 forward single #
face $-1 $64 $65 $24 $-1 $66 reversed single #
loop $-1 $-1 $67 $32 #
plane-surface $-1 0 0 9.5436949636969608 0 0 1 1 0 0 forward_v I I I I #
face $-1 $68 $69 $25 $-1 $70 reversed single #
loop $-1 $-1 $71 $33 #
plane-surface $-1 0 -30.184868184231647 0 0 1 0 0 0 1 forward_v I I I I #
face $-1 $72 $73 $26 $-1 $74 reversed single #
loop $-1 $-1 $75 $34 #
plane-surface $-1 -194.71902564139532 16.526297416034097 91.952387013460282 0 1 0 -0.80901700255871778 0 0.5877852410284794 forward_v I I I I #
face $-1 $76 $77 $27 $-1 $78 forward single #
loop $-1 $79 $80 $35 #
cone-surface $-1 -71.892825998590567 20.428746206947686 6.5531455288173381 0.80901700255871778 0 -0.5877852410284794 0.5877852410284794 0 0.80901700255871778 1 I I 0 1 1 forward I I I I #
face $-1 $81 $82 $28 $-1 $83 forward single #
loop $-1 $84 $85 $36 #
cone-surface $-1 -71.892825998590567 26.282419393318065 6.5531455288173381 0.80901700255871778 0 -0.5877852410284794 0.5877852410284794 0 0.80901700255871778 1 I I 0 1 1 forward I I I I #
face $-1 $86 $87 $29 $-1 $88 reversed single #
loop $-1 $-1 $89 $37 #
plane-surface $-1 19.929003857284826 4.9127227140812693 206.38462093800791 0 -1 0 -0.50000000669873634 0 -0.8660253999169214 forward_v I I I I #
face $-1 $90 $91 $30 $-1 $92 forward single #
loop $-1 $93 $94 $38 #
cone-surface $-1 68.619669660613098 -0.35542324546291937 5.9315725724404231 -0.50000000669873634 0 -0.8660253999169214 0.4330126999584607 0 -0.25000000334936817 1 I I 0 1 0.5 forward I I I I #
face $-1 $95 $96 $31 $-1 $97 forward single #
loop $-1 $98 $99 $39 #
cone-surface $-1 68.619669660613098 2.8054643302635895 5.9315725724404231 -0.50000000669873634 0 -0.8660253999169214 0.4330126999584607 0 -0.25000000334936817 1 I I 0 1 0.5 forward I I I I #
face $-1 $100 $101 $24 $-1 $102 reversed single #
loop $-1 $-1 $103 $40 #
plane-surface $-1 0 0 -9.5436949636969608 0 0 1 1 0 0 forward_v I I I I #
coedge $-1 $104 $105 $106 $107 forward $41 $-1 #
face $-1 $108 $109 $25 $-1 $110 forward single #
loop $-1 $-1 $111 $43 #
plane-surface $-1 -74.376049073763241 0 0 1 0 0 0 0 -1 forward_v I I I I #
coedge $-1 $112 $113 $114 $115 forward $44 $-1 #
face $-1 $116 $117 $26 $-1 $118 forward single #
loop $-1 $-1 $119 $46 #
plane-surface $-1 -74.376049073763255 23.355582800132872 4.518099150324403 -0.80901700255871778 0 0.5877852410284794 0.5877852410284794 0 0.80901700255871778 forward_v I I I I #
coedge $-1 $120 $121 $122 $123 reversed $47 $-1 #
face $-1 $-1 $124 $27 $-1 $125 forward single #
loop $-1 $126 $127 $49 #
cone-surface $-1 -70.830748912175366 20.428746206947686 5.7815013801097486 0.80901700255871778 0 -0.5877852410284794 0.2938926205142397 0 0.40450850127935889 1 I I -0.70710678118654746 0.70710678118654746 0.5 forward I I I I #
loop $-1 $-1 $128 $35 #
coedge $-1 $80 $80 $129 $130 reversed $50 $-1 #
face $-1 $-1 $131 $28 $-1 $132 forward single #
loop $-1 $133 $134 $52 #
cone-surface $-1 -70.830748912175366 26.282419393318065 5.7815013801097486 0.80901700255871778 0 -0.5877852410284794 0.2938926205142397 0 0.40450850127935889 1 I I -0.70710678118654746 0.70710678118654746 0.5 forward I I I I #
loop $-1 $-1 $135 $36 #
coedge $-1 $85 $85 $136 $137 reversed $53 $-1 #
face $-1 $138 $139 $29 $-1 $140 reversed single #
loop $-1 $-1 $141 $55 #
plane-surface $-1 -54.447046212929507 1.2250205424003369 77.561525651315151 0.50000000669873634 0 0.8660253999169214 0.8660253999169214 0 -0.50000000669873634 forward_v I I I I #
coedge $-1 $142 $143 $144 $145 reversed $56 $-1 #
face $-1 $-1 $146 $30 $-1 $147 forward single #
loop $-1 $148 $149 $58 #
cone-surface $-1 68.24466965558905 -0.35542324546291937 5.2820535225027321 -0.50000000669873634 0 -0.8660253999169214 0.21650634997923035 0 -0.12500000167468409 1 I I -0.70710678118654746 0.70710678118654746 0.25 forward I I I I #
loop $-1 $-1 $150 $38 #
coedge $-1 $94 $94 $151 $152 reversed $59 $-1 #
face $-1 $-1 $153 $31 $-1 $154 forward single #
loop $-1 $155 $156 $61 #
cone-surface $-1 68.24466965558905 2.8054643302635895 5.2820535225027321 -0.50000000669873634 0 -0.8660253999169214 0.21650634997923035 0 -0.12500000167468409 1 I I -0.70710678118654746 0.70710678118654746 0.25 forward I I I I #
loop $-1 $-1 $157 $39 #
coedge $-1 $99 $99 $158 $159 reversed $62 $-1 #
face $-1 $160 $161 $24 $-1 $162 reversed single #
loop $-1 $-1 $163 $64 #
plane-surface $-1 0 -30.184868184231647 0 0 1 0 0 0 1 forward_v I I I I #
coedge $-1 $164 $165 $166 $167 forward $65 $-1 #
coedge $-1 $168 $67 $169 $170 forward $41 $-1 #
coedge $-1 $67 $168 $171 $172 forward $41 $-1 #
coedge $-1 $173 $174 $67 $107 reversed $175 $-1 #
edge $-1 $176 -30.184868184231647 $177 30.184868184231647 $106 $178 forward 7 unknown #
face $-1 $179 $180 $25 $-1 $181 reversed single #
loop $-1 $-1 $182 $68 #
plane-surface $-1 0 -35.229014027894159 -2.8967898568516652 0 0 1 1 0 0 forward_v I I I I #
coedge $-1 $183 $184 $113 $185 forward $69 $-1 #
coedge $-1 $186 $71 $187 $188 reversed $44 $-1 #
coedge $-1 $71 $186 $111 $185 reversed $44 $-1 #
coedge $-1 $189 $182 $71 $115 reversed $109 $-1 #
edge $-1 $190 -74.376049073763241 $191 74.376049073763241 $114 $192 forward 7 unknown #
face $-1 $193 $194 $26 $-1 $195 reversed single #
loop $-1 $-1 $122 $72 #
plane-surface $-1 0 0 9.5436949636969608 0 0 1 1 0 0 forward_v I I I I #
coedge $-1 $196 $197 $198 $199 reversed $73 $-1 #
coedge $-1 $121 $75 $200 $201 reversed $47 $-1 #
coedge $-1 $75 $120 $196 $202 reversed $47 $-1 #
coedge $-1 $198 $203 $75 $123 forward $117 $-1 #
edge $-1 $204 22.983463746934419 $205 26.634772727008041 $122 $206 forward 7 unknown #
loop $-1 $-1 $129 $76 #
plane-surface $-1 -74.376049073763255 23.355582800132872 4.518099150324403 -0.80901700255871778 0 0.5877852410284794 0.5877852410284794 0 0.80901700255871778 forward_v I I I I #
loop $-1 $-1 $207 $49 #
coedge $-1 $127 $127 $128 $208 reversed $77 $-1 #
coedge $-1 $128 $128 $127 $208 forward $79 $-1 #
coedge $-1 $129 $129 $80 $130 forward $124 $-1 #
edge $-1 $209 0 $209 6.2831853071796004 $129 $210 forward 7 unknown #
loop $-1 $-1 $136 $81 #
plane-surface $-1 -74.376049073763255 23.355582800132872 4.518099150324403 -0.80901700255871778 0 0.5877852410284794 0.5877852410284794 0 0.80901700255871778 forward_v I I I I #
loop $-1 $-1 $211 $52 #
coedge $-1 $134 $134 $135 $212 reversed $82 $-1 #
coedge $-1 $135 $135 $134 $212 forward $84 $-1 #
coedge $-1 $136 $136 $85 $137 forward $131 $-1 #
edge $-1 $213 0 $213 6.2831853071796004 $136 $214 forward 7 unknown #
face $-1 $215 $216 $29 $-1 $217 reversed single #
loop $-1 $-1 $218 $86 #
plane-surface $-1 19.929003857284826 -2.4626816292805955 206.38462093800791 0 1 0 0.50000000669873634 0 0.8660253999169214 forward_v I I I I #
coedge $-1 $219 $220 $221 $222 reversed $87 $-1 #
coedge $-1 $143 $89 $223 $224 reversed $56 $-1 #
coedge $-1 $89 $142 $219 $225 reversed $56 $-1 #
coedge $-1 $221 $226 $89 $145 forward $227 $-1 #
edge $-1 $228 -64.411547145120835 $229 -53.398788325519284 $144 $230 forward 7 unknown #
loop $-1 $-1 $151 $90 #
plane-surface $-1 -54.447046212929507 1.2250205424003369 77.561525651315151 0.50000000669873634 0 0.8660253999169214 0.8660253999169214 0 -0.50000000669873634 forward_v I I I I #
loop $-1 $-1 $231 $58 #
coedge $-1 $149 $149 $150 $232 reversed $91 $-1 #
coedge $-1 $150 $150 $149 $232 forward $93 $-1 #
coedge $-1 $151 $151 $94 $152 forward $146 $-1 #
edge $-1 $233 0 $233 6.2831853071796004 $151 $234 forward 7 unknown #
loop $-1 $-1 $158 $95 #
plane-surface $-1 -54.447046212929507 1.2250205424003369 77.561525651315151 0.50000000669873634 0 0.8660253999169214 0.8660253999169214 0 -0.50000000669873634 forward_v I I I I #
loop $-1 $-1 $235 $61 #
coedge $-1 $156 $156 $157 $236 reversed $96 $-1 #
coedge $-1 $157 $157 $156 $236 forward $98 $-1 #
coedge $-1 $158 $158 $99 $159 forward $153 $-1 #
edge $-1 $237 0 $237 6.2831853071796004 $158 $238 forward 7 unknown #
face $-1 $239 $240 $24 $-1 $241 reversed single #
loop $-1 $-1 $242 $100 #
plane-surface $-1 -74.376049073763241 0 0 1 0 0 0 0 -1 forward_v I I I I #
coedge $-1 $243 $171 $244 $245 forward $101 $-1 #
coedge $-1 $246 $103 $243 $247 forward $65 $-1 #
coedge $-1 $103 $246 $248 $249 forward $65 $-1 #
coedge $-1 $174 $173 $103 $167 reversed $175 $-1 #
edge $-1 $250 -30.184868184231647 $251 30.184868184231647 $166 $252 forward 7 unknown #
coedge $-1 $105 $104 $253 $254 forward $41 $-1 #
coedge $-1 $255 $256 $104 $170 reversed $240 $-1 #
edge $-1 $177 -74.376049073763241 $257 74.376049073763241 $169 $258 forward 7 unknown #
coedge $-1 $163 $259 $105 $172 reversed $101 $-1 #
edge $-1 $260 -74.376049073763241 $176 74.376049073763241 $171 $261 forward 7 unknown #
coedge $-1 $166 $106 $259 $262 forward $175 $-1 #
coedge $-1 $106 $166 $255 $263 reversed $175 $-1 #
loop $-1 $-1 $173 $239 #
vertex $-1 $107 $264 #
vertex $-1 $107 $265 #
straight-curve $-1 74.376049073763241 0 9.5436949636969608 0 1 0 I I #
face $-1 $266 $267 $25 $-1 $268 reversed single #
loop $-1 $-1 $269 $108 #
plane-surface $-1 0 -35.229014027894159 -6.6496665195682816 0 0 1 1 0 0 forward_v I I I I #
coedge $-1 $114 $270 $271 $272 forward $109 $-1 #
coedge $-1 $273 $111 $274 $275 reversed $69 $-1 #
coedge $-1 $111 $273 $189 $276 reversed $69 $-1 #
edge $-1 $190 2.8967898568516652 $277 6.6496665195682816 $111 $278 forward 7 unknown #
coedge $-1 $113 $112 $279 $280 forward $44 $-1 #
coedge $-1 $271 $281 $112 $188 forward $282 $-1 #
edge $-1 $283 -6.6496665195682816 $191 -2.8967898568516652 $187 $284 forward 7 unknown #
coedge $-1 $270 $114 $184 $276 forward $109 $-1 #
vertex $-1 $185 $285 #
vertex $-1 $272 $286 #
straight-curve $-1 0 -30.184868184231647 -2.8967898568516652 1 0 0 I I #
face $-1 $-1 $287 $26 $-1 $288 reversed single #
loop $-1 $-1 $289 $116 #
plane-surface $-1 0 30.184868184231647 0 0 -1 0 0 0 -1 forward_v I I I I #
coedge $-1 $290 $119 $121 $202 forward $73 $-1 #
coedge $-1 $119 $290 $289 $291 reversed $73 $-1 #
coedge $-1 $292 $122 $119 $199 forward $117 $-1 #
edge $-1 $205 4.8485060159676614 $293 18.507076784165211 $198 $294 forward 7 unknown #
coedge $-1 $295 $296 $120 $201 forward $287 $-1 #
edge $-1 $297 -41.458094356405716 $204 -36.432498543033176 $200 $298 forward 7 unknown #
edge $-1 $205 -6.2119779899283412 $297 -2.4161062406544664e-014 $121 $299 forward 7 unknown #
coedge $-1 $122 $292 $295 $300 forward $117 $-1 #
vertex $-1 $201 $301 #
vertex $-1 $123 $302 #
straight-curve $-1 -97.35951282069766 16.526297416034097 9.5436949636969644 1 0 0 I I #
coedge $-1 $207 $207 $-1 $303 reversed $126 $-1 #
edge $-1 $304 0 $304 6.2831853071796004 $127 $305 forward 7 unknown #
vertex $-1 $130 $306 #
ellipse-curve $-1 -72.55039458372643 20.428746206947686 7.0308970570106952 -0.80901700255871778 0 0.5877852410284794 0.5877852410284794 0 0.80901700255871778 1 I I #
coedge $-1 $211 $211 $-1 $307 reversed $133 $-1 #
edge $-1 $308 0 $308 6.2831853071796004 $134 $309 forward 7 unknown #
vertex $-1 $137 $310 #
ellipse-curve $-1 -72.55039458372643 26.282419393318065 7.0308970570106952 -0.80901700255871778 0 0.5877852410284794 0.5877852410284794 0 0.80901700255871778 1 I I #
face $-1 $-1 $227 $29 $-1 $311 forward single #
loop $-1 $-1 $312 $138 #
plane-surface $-1 74.376049073763241 0 0 -1 0 0 0 0 1 forward_v I I I I #
coedge $-1 $313 $314 $315 $316 reversed $139 $-1 #
coedge $-1 $317 $141 $143 $225 forward $87 $-1 #
coedge $-1 $141 $317 $313 $318 forward $87 $-1 #
coedge $-1 $315 $144 $141 $222 forward $227 $-1 #
edge $-1 $229 -4.3002124428811008 $319 3.075191900480764 $221 $320 forward 7 unknown #
coedge $-1 $321 $322 $142 $224 forward $216 $-1 #
edge $-1 $323 -100.00683488790314 $228 -93.648615505306992 $223 $324 forward 7 unknown #
edge $-1 $229 136.03565955270233 $323 148.75209814752648 $143 $325 forward 7 unknown #
coedge $-1 $144 $315 $321 $326 forward $227 $-1 #
loop $-1 $-1 $315 $215 #
vertex $-1 $224 $327 #
vertex $-1 $145 $328 #
straight-curve $-1 9.964501928642413 4.9127227140812693 9.5436949636969644 -1 0 0 I I #
coedge $-1 $231 $231 $-1 $329 reversed $148 $-1 #
edge $-1 $330 0 $330 6.2831853071796004 $149 $331 forward 7 unknown #
vertex $-1 $152 $332 #
ellipse-curve $-1 68.869669663962483 -0.35542324546291937 6.3645852723989025 0.50000000669873634 0 0.8660253999169214 0.4330126999584607 0 -0.25000000334936817 1 I I #
coedge $-1 $235 $235 $-1 $333 reversed $155 $-1 #
edge $-1 $334 0 $334 6.2831853071796004 $156 $335 forward 7 unknown #
vertex $-1 $159 $336 #
ellipse-curve $-1 68.869669663962483 2.8054643302635895 6.3645852723989025 0.50000000669873634 0 0.8660253999169214 0.4330126999584607 0 -0.25000000334936817 1 I I #
face $-1 $-1 $175 $24 $-1 $337 reversed single #
loop $-1 $-1 $255 $160 #
plane-surface $-1 0 30.184868184231647 0 0 -1 0 0 0 -1 forward_v I I I I #
coedge $-1 $338 $253 $256 $339 forward $161 $-1 #
coedge $-1 $259 $163 $164 $247 reversed $101 $-1 #
coedge $-1 $253 $338 $163 $245 reversed $161 $-1 #
edge $-1 $260 -9.5436949636969608 $340 9.5436949636969608 $244 $341 forward 7 unknown #
coedge $-1 $165 $164 $338 $342 forward $65 $-1 #
edge $-1 $251 -74.376049073763241 $340 74.376049073763241 $243 $343 forward 7 unknown #
coedge $-1 $256 $255 $165 $249 reversed $240 $-1 #
edge $-1 $344 -74.376049073763241 $250 74.376049073763241 $248 $345 forward 7 unknown #
vertex $-1 $167 $346 #
vertex $-1 $262 $347 #
straight-curve $-1 74.376049073763241 0 -9.5436949636969608 0 -1 0 I I #
coedge $-1 $242 $244 $168 $254 reversed $161 $-1 #
edge $-1 $257 -30.184868184231647 $260 30.184868184231647 $253 $348 forward 7 unknown #
coedge $-1 $248 $169 $174 $263 forward $240 $-1 #
coedge $-1 $169 $248 $242 $339 reversed $240 $-1 #
vertex $-1 $170 $349 #
straight-curve $-1 0 30.184868184231647 9.5436949636969608 -1 0 0 I I #
coedge $-1 $171 $243 $173 $262 reversed $101 $-1 #
vertex $-1 $254 $350 #
straight-curve $-1 0 -30.184868184231647 9.5436949636969608 1 0 0 I I #
edge $-1 $176 -9.5436949636969608 $251 9.5436949636969608 $173 $351 forward 7 unknown #
edge $-1 $177 -9.5436949636969608 $250 9.5436949636969608 $174 $352 forward 7 unknown #
point $-1 74.376049073763241 -30.184868184231647 9.5436949636969608 #
point $-1 74.376049073763241 30.184868184231647 9.5436949636969608 #
face $-1 $-1 $282 $25 $-1 $353 reversed single #
loop $-1 $-1 $354 $179 #
plane-surface $-1 0 -40.273159871556672 -4.7732281882099734 0 1 0 0 0 1 forward_v I I I I #
coedge $-1 $355 $279 $281 $356 forward $180 $-1 #
coedge $-1 $182 $189 $357 $358 forward $109 $-1 #
coedge $-1 $359 $187 $182 $272 reversed $282 $-1 #
edge $-1 $360 -5.0441458436625126 $191 5.0441458436625091 $271 $361 forward 7 unknown #
coedge $-1 $184 $183 $354 $362 reversed $69 $-1 #
coedge $-1 $279 $355 $183 $275 forward $180 $-1 #
edge $-1 $363 -5.0441458436625126 $277 5.0441458436625091 $183 $364 forward 7 unknown #
edge $-1 $190 -5.0441458436625091 $365 5.0441458436625126 $184 $366 forward 7 unknown #
vertex $-1 $185 $367 #
straight-curve $-1 -74.376049073763241 -30.184868184231647 0 0 0 -1 I I #
coedge $-1 $269 $274 $186 $280 reversed $180 $-1 #
edge $-1 $283 -74.376049073763241 $277 74.376049073763241 $279 $368 forward 7 unknown #
coedge $-1 $187 $359 $269 $356 reversed $282 $-1 #
loop $-1 $-1 $187 $266 #
vertex $-1 $188 $369 #
straight-curve $-1 74.376049073763241 -30.184868184231647 0 0 0 1 I I #
point $-1 -74.376049073763241 -30.18486818423165 -2.8967898568516652 #
point $-1 74.376049073763241 -30.18486818423165 -2.8967898568516652 #
loop $-1 $-1 $200 $193 #
plane-surface $-1 -74.376049073763241 0 0 1 0 0 0 0 -1 forward_v I I I I #
coedge $-1 $370 $371 $197 $291 forward $194 $-1 #
coedge $-1 $197 $196 $296 $372 reversed $73 $-1 #
edge $-1 $293 13.818984459926362 $373 20.030962449854677 $289 $374 forward 7 unknown #
coedge $-1 $203 $198 $371 $375 forward $117 $-1 #
vertex $-1 $375 $376 #
straight-curve $-1 -70.724740093689604 11.677791400066436 9.5436949636969608 0 1 0 I I #
coedge $-1 $377 $200 $203 $300 reversed $287 $-1 #
coedge $-1 $200 $377 $290 $372 forward $287 $-1 #
vertex $-1 $201 $378 #
straight-curve $-1 -74.376049073763241 16.526297416034097 45.976193506730141 0 0 1 I I #
straight-curve $-1 -74.376049073763255 16.526297416034097 4.518099150324403 -0.5877852410284794 0 -0.80901700255871778 I I #
edge $-1 $379 -30.184868184231647 $204 -16.526297416034097 $295 $380 forward 7 unknown #
point $-1 -74.376049073763241 16.526297416034097 9.5436949636969608 #
point $-1 -70.724740093689618 16.526297416034097 9.5436949636969608 #
edge $-1 $381 1 $381 0 $207 $-1 forward 7 unknown #
vertex $-1 $208 $382 #
ellipse-curve $-1 -71.235257413454718 20.428746206947686 6.0753940006239882 -0.80901700255871778 0 0.5877852410284794 0.5877852410284794 0 0.80901700255871778 1 I I #
point $-1 -71.962609342697945 20.428746206947686 7.8399140595694057 #
edge $-1 $383 1 $383 0 $211 $-1 forward 7 unknown #
vertex $-1 $212 $384 #
ellipse-curve $-1 -71.235257413454718 26.282419393318065 6.0753940006239882 -0.80901700255871778 0 0.5877852410284794 0.5877852410284794 0 0.80901700255871778 1 I I #
point $-1 -71.962609342697945 26.282419393318065 7.8399140595694057 #
plane-surface $-1 0 0 9.5436949636969608 0 0 1 1 0 0 forward_v I I I I #
coedge $-1 $322 $321 $314 $385 forward $216 $-1 #
coedge $-1 $314 $218 $220 $318 reversed $139 $-1 #
coedge $-1 $218 $313 $312 $385 reversed $139 $-1 #
coedge $-1 $226 $221 $218 $316 forward $227 $-1 #
edge $-1 $319 53.398788325519284 $386 64.411547145120835 $315 $387 forward 7 unknown #
coedge $-1 $220 $219 $322 $388 reversed $87 $-1 #
edge $-1 $389 -148.75209814752648 $319 -136.03565955270233 $313 $390 forward 7 unknown #
vertex $-1 $222 $391 #
straight-curve $-1 63.363290254161676 0.61251027120016843 9.5436949636969715 0 -1 0 I I #
coedge $-1 $312 $223 $226 $326 reversed $216 $-1 #
coedge $-1 $223 $312 $317 $388 forward $216 $-1 #
vertex $-1 $224 $392 #
straight-curve $-1 74.376049073763241 4.9127227140812693 103.19231046900396 0 0 1 I I #
straight-curve $-1 -54.447046212929507 4.9127227140812693 77.561525651315151 0.8660253999169214 0 -0.50000000669873634 I I #
edge $-1 $386 -2.4626816292805955 $228 4.9127227140812693 $321 $393 forward 7 unknown #
point $-1 74.376049073763241 4.9127227140812693 9.5436949636969608 #
point $-1 63.363290254161697 4.9127227140812693 9.5436949636969644 #
edge $-1 $394 1 $394 0 $231 $-1 forward 7 unknown #
vertex $-1 $232 $395 #
ellipse-curve $-1 68.369669657263728 -0.35542324546291937 5.4985598724819624 0.50000000669873634 0 0.8660253999169214 0.4330126999584607 0 -0.25000000334936817 1 I I #
point $-1 69.302682363920937 -0.35542324546291937 6.1145852690495159 #
edge $-1 $396 1 $396 0 $235 $-1 forward 7 unknown #
vertex $-1 $236 $397 #
ellipse-curve $-1 68.369669657263728 2.8054643302635895 5.4985598724819624 0.50000000669873634 0 0.8660253999169214 0.4330126999584607 0 -0.25000000334936817 1 I I #
point $-1 69.302682363920937 2.8054643302635895 6.1145852690495159 #
plane-surface $-1 74.376049073763241 0 0 -1 0 0 0 0 1 forward_v I I I I #
coedge $-1 $244 $242 $246 $342 reversed $161 $-1 #
edge $-1 $257 -9.5436949636969608 $344 9.5436949636969608 $256 $398 forward 7 unknown #
vertex $-1 $342 $399 #
straight-curve $-1 -74.376049073763241 -30.184868184231647 0 0 0 -1 I I #
edge $-1 $340 -30.184868184231647 $344 30.184868184231647 $338 $400 forward 7 unknown #
straight-curve $-1 0 -30.184868184231647 -9.5436949636969608 -1 0 0 I I #
vertex $-1 $249 $401 #
straight-curve $-1 0 30.184868184231647 -9.5436949636969608 1 0 0 I I #
point $-1 74.376049073763241 30.184868184231647 -9.5436949636969608 #
point $-1 74.376049073763241 -30.184868184231647 -9.5436949636969608 #
straight-curve $-1 -74.376049073763241 0 9.5436949636969608 0 -1 0 I I #
point $-1 -74.376049073763241 30.184868184231647 9.5436949636969608 #
point $-1 -74.376049073763241 -30.184868184231647 9.5436949636969608 #
straight-curve $-1 74.376049073763241 -30.184868184231647 0 0 0 -1 I I #
straight-curve $-1 74.376049073763241 30.184868184231647 0 0 0 -1 I I #
plane-surface $-1 74.376049073763241 0 0 -1 0 0 0 0 1 forward_v I I I I #
coedge $-1 $402 $357 $273 $362 forward $267 $-1 #
coedge $-1 $274 $269 $402 $403 forward $180 $-1 #
edge $-1 $283 -5.0441458436625091 $404 5.0441458436625126 $281 $405 forward 7 unknown #
coedge $-1 $354 $406 $270 $358 reversed $267 $-1 #
edge $-1 $365 -74.376049073763241 $360 74.376049073763241 $357 $407 forward 7 unknown #
coedge $-1 $281 $271 $406 $408 forward $282 $-1 #
vertex $-1 $272 $409 #
straight-curve $-1 74.376049073763241 -35.229014027894159 -2.8967898568516652 0 1 0 I I #
edge $-1 $365 -1.8764383313583082 $363 1.8764383313583082 $273 $410 forward 7 unknown #
vertex $-1 $275 $411 #
straight-curve $-1 -74.376049073763241 -35.229014027894159 -6.6496665195682816 0 1 0 I I #
vertex $-1 $276 $412 #
straight-curve $-1 -74.376049073763241 -35.229014027894159 -2.8967898568516652 0 -1 0 I I #
point $-1 -74.376049073763241 -30.18486818423165 -6.6496665195682816 #
straight-curve $-1 0 -30.184868184231647 -6.6496665195682816 -1 0 0 I I #
point $-1 74.376049073763241 -30.18486818423165 -6.6496665195682816 #
coedge $-1 $371 $289 $377 $413 reversed $194 $-1 #
coedge $-1 $289 $370 $292 $375 reversed $194 $-1 #
edge $-1 $373 -18.507076784165211 $297 -4.8485060159676614 $296 $414 forward 7 unknown #
vertex $-1 $291 $415 #
straight-curve $-1 -62.602144982142988 30.184868184231647 20.723488349872085 -0.5877852410284794 0 -0.80901700255871778 I I #
edge $-1 $293 70.724740093689618 $379 74.376049073763241 $371 $416 forward 7 unknown #
point $-1 -70.724740093689618 30.184868184231647 9.5436949636969608 #
coedge $-1 $296 $295 $370 $413 forward $287 $-1 #
point $-1 -74.376049073763241 16.526297416034097 4.5180991503244226 #
vertex $-1 $375 $417 #
straight-curve $-1 -74.376049073763241 0 9.5436949636969608 0 -1 0 I I #
vertex $-1 $303 $418 #
point $-1 -70.647472172426248 20.428746206947686 6.8844110031827057 #
vertex $-1 $307 $419 #
point $-1 -70.647472172426248 26.282419393318065 6.8844110031827057 #
edge $-1 $386 93.648615505306992 $389 100.00683488790314 $312 $420 forward 7 unknown #
vertex $-1 $326 $421 #
straight-curve $-1 9.964501928642413 -2.4626816292805955 9.5436949636969644 1 0 0 I I #
edge $-1 $389 -3.075191900480764 $323 4.3002124428811008 $322 $422 forward 7 unknown #
vertex $-1 $388 $423 #
straight-curve $-1 -54.447046212929507 -2.4626816292805955 77.561525651315151 -0.8660253999169214 0 0.50000000669873634 I I #
point $-1 63.363290254161697 -2.4626816292805955 9.5436949636969644 #
point $-1 74.376049073763255 4.9127227140812693 3.1854755811008175 #
straight-curve $-1 74.376049073763241 0 9.5436949636969608 0 1 0 I I #
vertex $-1 $329 $424 #
point $-1 68.802682357222196 -0.35542324546291937 5.2485598691325945 #
vertex $-1 $333 $425 #
point $-1 68.802682357222196 2.8054643302635895 5.2485598691325945 #
straight-curve $-1 -74.376049073763241 30.184868184231647 0 0 0 -1 I I #
point $-1 -74.376049073763241 -30.184868184231647 -9.5436949636969608 #
straight-curve $-1 -74.376049073763241 0 -9.5436949636969608 0 1 0 I I #
point $-1 -74.376049073763241 30.184868184231647 -9.5436949636969608 #
coedge $-1 $406 $354 $355 $403 reversed $267 $-1 #
edge $-1 $404 -74.376049073763241 $363 74.376049073763241 $402 $426 forward 7 unknown #
vertex $-1 $408 $427 #
straight-curve $-1 74.376049073763241 -35.229014027894159 -6.6496665195682816 0 -1 0 I I #
coedge $-1 $357 $402 $359 $408 reversed $267 $-1 #
straight-curve $-1 0 -40.273159871556672 -2.8967898568516652 1 0 0 I I #
edge $-1 $360 -1.8764383313583082 $404 1.8764383313583082 $359 $428 forward 7 unknown #
point $-1 74.376049073763241 -40.273159871556672 -2.8967898568516652 #
straight-curve $-1 -74.376049073763241 -40.273159871556672 -4.7732281882099734 0 0 -1 I I #
point $-1 -74.376049073763241 -40.273159871556672 -6.6496665195682816 #
point $-1 -74.376049073763241 -40.273159871556672 -2.8967898568516652 #
edge $-1 $379 -9.5436949636969608 $373 -4.5180991503244226 $370 $429 forward 7 unknown #
straight-curve $-1 -74.376049073763241 11.677791400066436 4.5180991503244323 0 -1 0 I I #
point $-1 -74.376049073763241 30.184868184231647 4.5180991503244226 #
straight-curve $-1 0 30.184868184231647 9.5436949636969608 -1 0 0 I I #
point $-1 -74.376049073763241 30.184868184231647 9.5436949636969608 #
point $-1 -70.426240410896014 20.428746206947686 5.487608759595509 #
point $-1 -70.426240410896014 26.282419393318065 5.487608759595509 #
straight-curve $-1 74.376049073763241 -2.4626816292805955 103.19231046900396 0 0 -1 I I #
point $-1 74.376049073763241 -2.4626816292805955 9.5436949636969608 #
straight-curve $-1 74.376049073763241 0.61251027120016843 3.1854755811008317 0 1 0 I I #
point $-1 74.376049073763255 -2.4626816292805955 3.1854755811008175 #
point $-1 68.119669653914372 -0.35542324546291937 5.0655471725235017 #
point $-1 68.119669653914372 2.8054643302635895 5.0655471725235017 #
straight-curve $-1 0 -40.273159871556672 -6.6496665195682816 -1 0 0 I I #
point $-1 74.376049073763241 -40.273159871556672 -6.6496665195682816 #
straight-curve $-1 74.376049073763241 -40.273159871556672 -4.7732281882099734 0 0 -1 I I #
straight-curve $-1 -74.376049073763241 30.184868184231647 0 0 0 -1 I I #
End-of-ACIS-data 