500 0 9 0           
7 Unknown 11 ACIS 5.0 NT 24 Fri Mar 26 20:43:02 1999 
-1 9.9999999999999995e-007 1e-010 
body $-1 $9 $-1 $10 #
body $-1 $11 $-1 $12 #
body $-1 $13 $-1 $14 #
body $-1 $15 $-1 $16 #
body $-1 $17 $-1 $18 #
body $-1 $19 $-1 $20 #
body $-1 $21 $-1 $22 #
body $-1 $23 $-1 $24 #
body $-1 $25 $-1 $26 #
lump $-1 $-1 $27 $0 #
transform $-1 1 0 0 0 1 0 0 0 1 61.43742179631947 27.575309377070543 7.4671382825021189 1 rotate no_reflect no_shear #
lump $-1 $-1 $28 $1 #
transform $-1 1 0 0 0 1 0 0 0 1 61.43742179631947 27.575309377070543 7.4671382825021189 1 rotate no_reflect no_shear #
lump $-1 $-1 $29 $2 #
transform $-1 1 0 0 0 1 0 0 0 1 61.43742179631947 27.575309377070543 7.4671382825021189 1 rotate no_reflect no_shear #
lump $-1 $-1 $30 $3 #
transform $-1 1 0 0 0 1 0 0 0 1 61.43742179631947 27.575309377070543 7.4671382825021189 1 rotate no_reflect no_shear #
lump $-1 $-1 $31 $4 #
transform $-1 1 0 0 0 1 0 0 0 1 61.43742179631947 27.575309377070543 7.4671382825021189 1 rotate no_reflect no_shear #
lump $-1 $-1 $32 $5 #
transform $-1 1 0 0 0 1 0 0 0 1 61.43742179631947 27.575309377070543 7.4671382825021189 1 rotate no_reflect no_shear #
lump $-1 $-1 $33 $6 #
transform $-1 1 0 0 0 1 0 0 0 1 61.43742179631947 27.575309377070543 7.4671382825021189 1 rotate no_reflect no_shear #
lump $-1 $-1 $34 $7 #
transform $-1 1 0 0 0 1 0 0 0 1 61.43742179631947 27.575309377070543 7.4671382825021189 1 rotate no_reflect no_shear #
lump $-1 $-1 $35 $8 #
transform $-1 1 0 0 0 1 0 0 0 1 61.43742179631947 27.575309377070543 7.4671382825021189 1 rotate no_reflect no_shear #
shell $-1 $-1 $-1 $36 $-1 $9 #
shell $-1 $-1 $-1 $37 $-1 $11 #
shell $-1 $-1 $-1 $38 $-1 $13 #
shell $-1 $-1 $-1 $39 $-1 $15 #
shell $-1 $-1 $-1 $40 $-1 $17 #
shell $-1 $-1 $-1 $41 $-1 $19 #
shell $-1 $-1 $-1 $42 $-1 $21 #
shell $-1 $-1 $-1 $43 $-1 $23 #
shell $-1 $-1 $-1 $44 $-1 $25 #
face $-1 $45 $46 $27 $-1 $47 forward single #
face $-1 $48 $49 $28 $-1 $50 forward single #
face $-1 $51 $52 $29 $-1 $53 reversed single #
face $-1 $54 $55 $30 $-1 $56 forward single #
face $-1 $57 $58 $31 $-1 $59 forward single #
face $-1 $60 $61 $32 $-1 $62 forward single #
face $-1 $63 $64 $33 $-1 $65 reversed single #
face $-1 $66 $67 $34 $-1 $68 forward single #
face $-1 $69 $70 $35 $-1 $71 forward single #
face $-1 $72 $73 $27 $-1 $74 reversed single #
loop $-1 $-1 $75 $36 #
plane-surface $-1 0 0 7.4671382825021189 0 0 1 1 0 0 forward_v I I I I #
face $-1 $76 $77 $28 $-1 $78 reversed single #
loop $-1 $-1 $79 $37 #
plane-surface $-1 0 -22.720621218164172 -4.0476187419809451 0 0 1 1 0 0 forward_v I I I I #
face $-1 $80 $81 $29 $-1 $82 reversed single #
loop $-1 $-1 $83 $38 #
plane-surface $-1 58.404696931299995 -3.4678027522046104 173.95188999208983 0 -1 0 -0.69465837861970381 0 -0.71933979245794832 forward_v I I I I #
face $-1 $84 $85 $30 $-1 $86 forward single #
loop $-1 $87 $88 $39 #
cone-surface $-1 57.331090521436103 -10.837657846215567 3.4774421853449771 -0.69465837861970381 0 -0.71933979245794832 0.35966989622897416 0 -0.3473291893098519 1 I I 0 1 0.5 forward I I I I #
face $-1 $89 $90 $31 $-1 $91 forward single #
loop $-1 $92 $93 $40 #
cone-surface $-1 57.331090521436103 -8.0739621859614594 3.4774421853449771 -0.69465837861970381 0 -0.71933979245794832 0.35966989622897416 0 -0.3473291893098519 1 I I 0 1 0.5 forward I I I I #
face $-1 $94 $95 $32 $-1 $96 forward single #
loop $-1 $97 $98 $41 #
cone-surface $-1 57.331090521436103 -5.3102665257073518 3.4774421853449771 -0.69465837861970381 0 -0.71933979245794832 0.35966989622897416 0 -0.3473291893098519 1 I I 0 1 0.5 forward I I I I #
face $-1 $99 $100 $33 $-1 $101 reversed single #
loop $-1 $-1 $102 $42 #
plane-surface $-1 -130.1481632414127 3.9025728502227643 105.59090840613595 0 1 0 -0.55919291073839883 0 0.82903756765294845 forward_v I I I I #
face $-1 $103 $104 $34 $-1 $105 forward single #
loop $-1 $106 $107 $43 #
cone-surface $-1 -57.758906959160434 7.667495755734631 4.2562021303737314 0.55919291073839883 0 -0.82903756765294845 1.2435563514794228 0 0.83878936610759824 1 I I 0 1 1.5 forward I I I I #
face $-1 $108 $109 $35 $-1 $110 forward single #
loop $-1 $111 $112 $44 #
cone-surface $-1 -57.758906959160434 13.314880114002431 4.2562021303737314 0.55919291073839883 0 -0.82903756765294845 1.2435563514794228 0 0.83878936610759824 1 I I 0 1 1.5 forward I I I I #
face $-1 $113 $114 $27 $-1 $115 reversed single #
loop $-1 $-1 $116 $45 #
plane-surface $-1 0 0 -7.4671382825021189 0 0 1 1 0 0 forward_v I I I I #
coedge $-1 $117 $118 $119 $120 forward $46 $-1 #
face $-1 $121 $122 $28 $-1 $123 reversed single #
loop $-1 $-1 $124 $48 #
plane-surface $-1 0 -17.865933059257802 -5.757378512241532 0 -1 0 0 0 -1 forward_v I I I I #
coedge $-1 $125 $126 $127 $128 reversed $49 $-1 #
face $-1 $129 $130 $29 $-1 $131 reversed single #
loop $-1 $-1 $132 $51 #
plane-surface $-1 -26.951342691912274 -8.0739621859614594 85.563125503858075 0.69465837861970381 0 0.71933979245794832 0.71933979245794832 0 -0.69465837861970381 forward_v I I I I #
coedge $-1 $133 $134 $135 $136 reversed $52 $-1 #
face $-1 $-1 $137 $30 $-1 $138 forward single #
loop $-1 $139 $140 $54 #
cone-surface $-1 56.810096737471326 -10.837657846215567 2.9379373410015157 -0.69465837861970381 0 -0.71933979245794832 0.17983494811448708 0 -0.17366459465492595 1 I I -0.70710678118654746 0.70710678118654746 0.25 forward I I I I #
loop $-1 $-1 $141 $39 #
coedge $-1 $88 $88 $142 $143 reversed $55 $-1 #
face $-1 $-1 $144 $31 $-1 $145 forward single #
loop $-1 $146 $147 $57 #
cone-surface $-1 56.810096737471326 -8.0739621859614594 2.9379373410015157 -0.69465837861970381 0 -0.71933979245794832 0.17983494811448708 0 -0.17366459465492595 1 I I -0.70710678118654746 0.70710678118654746 0.25 forward I I I I #
loop $-1 $-1 $148 $40 #
coedge $-1 $93 $93 $149 $150 reversed $58 $-1 #
face $-1 $-1 $151 $32 $-1 $152 forward single #
loop $-1 $153 $154 $60 #
cone-surface $-1 56.810096737471326 -5.3102665257073518 2.9379373410015157 -0.69465837861970381 0 -0.71933979245794832 0.17983494811448708 0 -0.17366459465492595 1 I I -0.70710678118654746 0.70710678118654746 0.25 forward I I I I #
loop $-1 $-1 $155 $41 #
coedge $-1 $98 $98 $156 $157 reversed $61 $-1 #
face $-1 $158 $159 $33 $-1 $160 reversed single #
loop $-1 $-1 $161 $63 #
plane-surface $-1 -61.437421796319441 10.491187934868531 3.7230469483581032 -0.55919291073839883 0 0.82903756765294845 0.82903756765294845 0 0.55919291073839883 forward_v I I I I #
coedge $-1 $162 $163 $164 $165 reversed $64 $-1 #
face $-1 $-1 $166 $34 $-1 $167 forward single #
loop $-1 $168 $169 $66 #
cone-surface $-1 -56.43641922373962 7.667495755734631 2.2955334695776353 0.55919291073839883 0 -0.82903756765294845 0.62177817573971139 0 0.41939468305379912 1 I I -0.70710678118654757 0.70710678118654757 0.75 forward I I I I #
loop $-1 $-1 $170 $43 #
coedge $-1 $107 $107 $171 $172 reversed $67 $-1 #
face $-1 $-1 $173 $35 $-1 $174 forward single #
loop $-1 $175 $176 $69 #
cone-surface $-1 -56.43641922373962 13.314880114002431 2.2955334695776353 0.55919291073839883 0 -0.82903756765294845 0.62177817573971139 0 0.41939468305379912 1 I I -0.70710678118654757 0.70710678118654757 0.75 forward I I I I #
loop $-1 $-1 $177 $44 #
coedge $-1 $112 $112 $178 $179 reversed $70 $-1 #
face $-1 $180 $181 $27 $-1 $182 reversed single #
loop $-1 $-1 $183 $72 #
plane-surface $-1 0 -27.575309377070543 0 0 1 0 0 0 1 forward_v I I I I #
coedge $-1 $184 $185 $186 $187 forward $73 $-1 #
coedge $-1 $188 $75 $189 $190 forward $46 $-1 #
coedge $-1 $75 $188 $191 $192 forward $46 $-1 #
coedge $-1 $193 $194 $75 $120 reversed $195 $-1 #
edge $-1 $196 -27.575309377070543 $197 27.575309377070543 $119 $198 forward 7 unknown #
face $-1 $199 $200 $28 $-1 $201 reversed single #
loop $-1 $-1 $202 $76 #
plane-surface $-1 0 0 -7.4671382825021189 0 0 1 1 0 0 forward_v I I I I #
coedge $-1 $203 $204 $205 $206 reversed $77 $-1 #
coedge $-1 $207 $79 $204 $208 forward $49 $-1 #
coedge $-1 $79 $207 $209 $210 reversed $49 $-1 #
coedge $-1 $211 $205 $79 $128 forward $200 $-1 #
edge $-1 $212 6.5056224501757161 $213 16.214998767988455 $127 $214 forward 7 unknown #
face $-1 $215 $216 $29 $-1 $217 reversed single #
loop $-1 $-1 $218 $80 #
plane-surface $-1 58.404696931299995 -12.680121619718308 173.95188999208983 0 1 0 0.69465837861970381 0 0.71933979245794832 forward_v I I I I #
coedge $-1 $219 $220 $221 $222 reversed $81 $-1 #
coedge $-1 $134 $83 $223 $224 reversed $52 $-1 #
coedge $-1 $83 $133 $219 $225 reversed $52 $-1 #
coedge $-1 $221 $226 $83 $136 forward $227 $-1 #
edge $-1 $228 -32.235073330669472 $229 -24.717069159522488 $135 $230 forward 7 unknown #
loop $-1 $-1 $142 $84 #
plane-surface $-1 -26.951342691912274 -8.0739621859614594 85.563125503858075 0.69465837861970381 0 0.71933979245794832 0.71933979245794832 0 -0.69465837861970381 forward_v I I I I #
loop $-1 $-1 $231 $54 #
coedge $-1 $140 $140 $141 $232 reversed $85 $-1 #
coedge $-1 $141 $141 $140 $232 forward $87 $-1 #
coedge $-1 $142 $142 $88 $143 forward $137 $-1 #
edge $-1 $233 0 $233 6.2831853071796004 $142 $234 forward 7 unknown #
loop $-1 $-1 $149 $89 #
plane-surface $-1 -26.951342691912274 -8.0739621859614594 85.563125503858075 0.69465837861970381 0 0.71933979245794832 0.71933979245794832 0 -0.69465837861970381 forward_v I I I I #
loop $-1 $-1 $235 $57 #
coedge $-1 $147 $147 $148 $236 reversed $90 $-1 #
coedge $-1 $148 $148 $147 $236 forward $92 $-1 #
coedge $-1 $149 $149 $93 $150 forward $144 $-1 #
edge $-1 $237 0 $237 6.2831853071796004 $149 $238 forward 7 unknown #
loop $-1 $-1 $156 $94 #
plane-surface $-1 -26.951342691912274 -8.0739621859614594 85.563125503858075 0.69465837861970381 0 0.71933979245794832 0.71933979245794832 0 -0.69465837861970381 forward_v I I I I #
loop $-1 $-1 $239 $60 #
coedge $-1 $154 $154 $155 $240 reversed $95 $-1 #
coedge $-1 $155 $155 $154 $240 forward $97 $-1 #
coedge $-1 $156 $156 $98 $157 forward $151 $-1 #
edge $-1 $241 0 $241 6.2831853071796004 $156 $242 forward 7 unknown #
face $-1 $243 $244 $33 $-1 $245 forward single #
loop $-1 $-1 $246 $99 #
plane-surface $-1 -130.1481632414127 17.079803019514298 105.59090840613595 0 -1 0 0.55919291073839883 0 -0.82903756765294845 forward_v I I I I #
coedge $-1 $247 $248 $249 $250 reversed $100 $-1 #
coedge $-1 $163 $102 $251 $252 reversed $64 $-1 #
coedge $-1 $102 $162 $247 $253 reversed $64 $-1 #
coedge $-1 $249 $254 $102 $165 forward $244 $-1 #
edge $-1 $255 3.6366598243868822 $256 9.187503393970978 $164 $257 forward 7 unknown #
loop $-1 $-1 $171 $103 #
plane-surface $-1 -61.437421796319441 10.491187934868531 3.7230469483581032 -0.55919291073839883 0 0.82903756765294845 0.82903756765294845 0 0.55919291073839883 forward_v I I I I #
loop $-1 $-1 $258 $66 #
coedge $-1 $169 $169 $170 $259 reversed $104 $-1 #
coedge $-1 $170 $170 $169 $259 forward $106 $-1 #
coedge $-1 $171 $171 $107 $172 forward $166 $-1 #
edge $-1 $260 0 $260 6.2831853071796004 $171 $261 forward 7 unknown #
loop $-1 $-1 $178 $108 #
plane-surface $-1 -61.437421796319441 10.491187934868531 3.7230469483581032 -0.55919291073839883 0 0.82903756765294845 0.82903756765294845 0 0.55919291073839883 forward_v I I I I #
loop $-1 $-1 $262 $69 #
coedge $-1 $176 $176 $177 $263 reversed $109 $-1 #
coedge $-1 $177 $177 $176 $263 forward $111 $-1 #
coedge $-1 $178 $178 $112 $179 forward $173 $-1 #
edge $-1 $264 0 $264 6.2831853071796004 $178 $265 forward 7 unknown #
face $-1 $266 $267 $27 $-1 $268 reversed single #
loop $-1 $-1 $269 $113 #
plane-surface $-1 -61.43742179631947 0 0 1 0 0 0 0 -1 forward_v I I I I #
coedge $-1 $270 $191 $271 $272 forward $114 $-1 #
coedge $-1 $273 $116 $270 $274 forward $73 $-1 #
coedge $-1 $116 $273 $275 $276 forward $73 $-1 #
coedge $-1 $194 $193 $116 $187 reversed $195 $-1 #
edge $-1 $277 -27.575309377070543 $278 27.575309377070543 $186 $279 forward 7 unknown #
coedge $-1 $118 $117 $280 $281 forward $46 $-1 #
coedge $-1 $282 $283 $117 $190 reversed $267 $-1 #
edge $-1 $197 -61.43742179631947 $284 61.43742179631947 $189 $285 forward 7 unknown #
coedge $-1 $183 $286 $118 $192 reversed $114 $-1 #
edge $-1 $287 -61.43742179631947 $196 61.43742179631947 $191 $288 forward 7 unknown #
coedge $-1 $186 $119 $286 $289 forward $195 $-1 #
coedge $-1 $119 $186 $282 $290 reversed $195 $-1 #
loop $-1 $-1 $193 $266 #
vertex $-1 $120 $291 #
vertex $-1 $120 $292 #
straight-curve $-1 61.43742179631947 0 7.4671382825021189 0 1 0 I I #
face $-1 $293 $294 $28 $-1 $295 reversed single #
loop $-1 $-1 $205 $121 #
plane-surface $-1 61.43742179631947 0 0 -1 0 0 0 0 1 forward_v I I I I #
coedge $-1 $296 $297 $203 $298 forward $122 $-1 #
coedge $-1 $299 $124 $202 $298 reversed $77 $-1 #
coedge $-1 $124 $299 $125 $208 reversed $77 $-1 #
coedge $-1 $127 $300 $124 $206 forward $200 $-1 #
edge $-1 $301 -4.5884490263813529 $212 -1.1689294858601791 $205 $302 forward 7 unknown #
coedge $-1 $126 $125 $303 $304 reversed $49 $-1 #
edge $-1 $212 -61.43742179631947 $305 61.43742179631947 $204 $306 forward 7 unknown #
coedge $-1 $307 $308 $126 $210 forward $294 $-1 #
edge $-1 $213 -61.43742179631947 $309 61.43742179631947 $209 $310 forward 7 unknown #
coedge $-1 $300 $127 $308 $311 forward $200 $-1 #
vertex $-1 $128 $312 #
vertex $-1 $311 $313 #
straight-curve $-1 61.43742179631947 -11.360310609082086 -4.0476187419809451 0 -1 0 I I #
face $-1 $-1 $227 $29 $-1 $314 forward single #
loop $-1 $-1 $315 $129 #
plane-surface $-1 61.43742179631947 0 0 -1 0 0 0 0 1 forward_v I I I I #
coedge $-1 $316 $317 $318 $319 reversed $130 $-1 #
coedge $-1 $320 $132 $134 $225 forward $81 $-1 #
coedge $-1 $132 $320 $316 $321 forward $81 $-1 #
coedge $-1 $318 $135 $132 $222 forward $227 $-1 #
edge $-1 $229 -0.56917834077611928 $322 8.6431405267375787 $221 $323 forward 7 unknown #
coedge $-1 $324 $325 $133 $224 forward $216 $-1 #
edge $-1 $326 -86.768859115399096 $228 -79.508806713542796 $223 $327 forward 7 unknown #
edge $-1 $229 112.42358780230046 $326 122.87484359263891 $134 $328 forward 7 unknown #
coedge $-1 $135 $318 $324 $329 forward $227 $-1 #
loop $-1 $-1 $318 $215 #
vertex $-1 $224 $330 #
vertex $-1 $136 $331 #
straight-curve $-1 29.202348465649997 -3.4678027522046104 7.4671382825021198 -1 0 0 I I #
coedge $-1 $231 $231 $-1 $332 reversed $139 $-1 #
edge $-1 $333 0 $333 6.2831853071796004 $140 $334 forward 7 unknown #
vertex $-1 $143 $335 #
ellipse-curve $-1 57.678419710745963 -10.837657846215567 3.8371120815739612 0.69465837861970381 0 0.71933979245794832 0.35966989622897416 0 -0.3473291893098519 1 I I #
coedge $-1 $235 $235 $-1 $336 reversed $146 $-1 #
edge $-1 $337 0 $337 6.2831853071796004 $147 $338 forward 7 unknown #
vertex $-1 $150 $339 #
ellipse-curve $-1 57.678419710745963 -8.0739621859614594 3.8371120815739612 0.69465837861970381 0 0.71933979245794832 0.35966989622897416 0 -0.3473291893098519 1 I I #
coedge $-1 $239 $239 $-1 $340 reversed $153 $-1 #
edge $-1 $341 0 $341 6.2831853071796004 $154 $342 forward 7 unknown #
vertex $-1 $157 $343 #
ellipse-curve $-1 57.678419710745963 -5.3102665257073518 3.8371120815739612 0.69465837861970381 0 0.71933979245794832 0.35966989622897416 0 -0.3473291893098519 1 I I #
face $-1 $-1 $344 $33 $-1 $345 reversed single #
loop $-1 $-1 $164 $158 #
plane-surface $-1 0 0 7.4671382825021189 0 0 1 1 0 0 forward_v I I I I #
coedge $-1 $346 $347 $348 $349 reversed $159 $-1 #
coedge $-1 $350 $161 $163 $253 forward $100 $-1 #
coedge $-1 $161 $350 $346 $351 forward $100 $-1 #
coedge $-1 $348 $164 $161 $250 forward $244 $-1 #
edge $-1 $256 -1.3430211172115012 $352 11.834209052080032 $249 $353 forward 7 unknown #
coedge $-1 $354 $355 $162 $252 forward $344 $-1 #
edge $-1 $356 -49.072407254709894 $255 -45.328315920565856 $251 $357 forward 7 unknown #
edge $-1 $256 -6.6955271825603919 $356 3.424092098371461e-014 $163 $358 forward 7 unknown #
coedge $-1 $164 $348 $354 $359 forward $244 $-1 #
vertex $-1 $252 $360 #
vertex $-1 $165 $361 #
straight-curve $-1 -65.074081620706352 3.9025728502227643 7.4671382825021198 1 0 0 I I #
coedge $-1 $258 $258 $-1 $362 reversed $168 $-1 #
edge $-1 $363 0 $363 6.2831853071796004 $169 $364 forward 7 unknown #
vertex $-1 $172 $365 #
ellipse-curve $-1 -58.662000011527432 7.667495755734631 5.5950926154300937 -0.55919291073839883 0 0.82903756765294845 1.2435563514794228 0 0.83878936610759824 1 I I #
coedge $-1 $262 $262 $-1 $366 reversed $175 $-1 #
edge $-1 $367 0 $367 6.2831853071796004 $176 $368 forward 7 unknown #
vertex $-1 $179 $369 #
ellipse-curve $-1 -58.662000011527432 13.314880114002431 5.5950926154300937 -0.55919291073839883 0 0.82903756765294845 1.2435563514794228 0 0.83878936610759824 1 I I #
face $-1 $-1 $195 $27 $-1 $370 reversed single #
loop $-1 $-1 $282 $180 #
plane-surface $-1 0 27.575309377070543 0 0 -1 0 0 0 -1 forward_v I I I I #
coedge $-1 $371 $280 $283 $372 forward $181 $-1 #
coedge $-1 $286 $183 $184 $274 reversed $114 $-1 #
coedge $-1 $280 $371 $183 $272 reversed $181 $-1 #
edge $-1 $287 -7.4671382825021189 $373 7.4671382825021189 $271 $374 forward 7 unknown #
coedge $-1 $185 $184 $371 $375 forward $73 $-1 #
edge $-1 $278 -61.43742179631947 $373 61.43742179631947 $270 $376 forward 7 unknown #
coedge $-1 $283 $282 $185 $276 reversed $267 $-1 #
edge $-1 $377 -61.43742179631947 $277 61.43742179631947 $275 $378 forward 7 unknown #
vertex $-1 $187 $379 #
vertex $-1 $289 $380 #
straight-curve $-1 61.43742179631947 0 -7.4671382825021189 0 -1 0 I I #
coedge $-1 $269 $271 $188 $281 reversed $181 $-1 #
edge $-1 $284 -27.575309377070543 $287 27.575309377070543 $280 $381 forward 7 unknown #
coedge $-1 $275 $189 $194 $290 forward $267 $-1 #
coedge $-1 $189 $275 $269 $372 reversed $267 $-1 #
vertex $-1 $190 $382 #
straight-curve $-1 0 27.575309377070543 7.4671382825021189 -1 0 0 I I #
coedge $-1 $191 $270 $193 $289 reversed $114 $-1 #
vertex $-1 $281 $383 #
straight-curve $-1 0 -27.575309377070543 7.4671382825021189 1 0 0 I I #
edge $-1 $196 -7.4671382825021189 $278 7.4671382825021189 $193 $384 forward 7 unknown #
edge $-1 $197 -7.4671382825021189 $277 7.4671382825021189 $194 $385 forward 7 unknown #
point $-1 61.43742179631947 -27.575309377070543 7.4671382825021189 #
point $-1 61.43742179631947 27.575309377070543 7.4671382825021189 #
face $-1 $-1 $386 $28 $-1 $387 reversed single #
loop $-1 $-1 $209 $199 #
plane-surface $-1 0 -27.575309377070543 0 0 1 0 0 0 1 forward_v I I I I #
coedge $-1 $388 $202 $300 $389 forward $122 $-1 #
coedge $-1 $202 $388 $390 $391 forward $122 $-1 #
edge $-1 $392 -61.43742179631947 $301 61.43742179631947 $202 $393 forward 7 unknown #
coedge $-1 $204 $203 $394 $395 reversed $77 $-1 #
coedge $-1 $205 $211 $296 $389 reversed $200 $-1 #
vertex $-1 $389 $396 #
straight-curve $-1 61.43742179631947 -17.865933059257802 -2.878689256120766 0 0 1 I I #
coedge $-1 $394 $397 $207 $304 forward $386 $-1 #
edge $-1 $309 -16.214998767988455 $305 -6.5056224501757161 $303 $398 forward 7 unknown #
vertex $-1 $304 $399 #
straight-curve $-1 0 -17.865933059257802 -4.0476187419809451 -1 0 0 I I #
coedge $-1 $400 $209 $397 $401 forward $294 $-1 #
coedge $-1 $209 $400 $211 $311 reversed $294 $-1 #
vertex $-1 $401 $402 #
straight-curve $-1 0 -27.575309377070543 -4.0476187419809451 -1 0 0 I I #
edge $-1 $213 4.0476187419809451 $403 7.4671382825021189 $211 $404 forward 7 unknown #
point $-1 61.43742179631947 -17.865933059257802 -4.0476187419809451 #
point $-1 61.43742179631947 -27.575309377070543 -4.0476187419809451 #
plane-surface $-1 0 0 7.4671382825021189 0 0 1 1 0 0 forward_v I I I I #
coedge $-1 $325 $324 $317 $405 forward $216 $-1 #
coedge $-1 $317 $218 $220 $321 reversed $130 $-1 #
coedge $-1 $218 $316 $315 $405 reversed $130 $-1 #
coedge $-1 $226 $221 $218 $319 forward $227 $-1 #
edge $-1 $322 24.717069159522488 $406 32.235073330669472 $318 $407 forward 7 unknown #
coedge $-1 $220 $219 $325 $408 reversed $81 $-1 #
edge $-1 $409 -122.87484359263891 $322 -112.42358780230046 $316 $410 forward 7 unknown #
vertex $-1 $222 $411 #
straight-curve $-1 53.919417625172464 -4.0369810929807297 7.4671382825021198 0 -1 0 I I #
coedge $-1 $315 $223 $226 $329 reversed $216 $-1 #
coedge $-1 $223 $315 $320 $408 forward $216 $-1 #
vertex $-1 $224 $412 #
straight-curve $-1 61.43742179631947 -3.4678027522046104 86.975944996044916 0 0 1 I I #
straight-curve $-1 -26.951342691912274 -3.4678027522046104 85.563125503858075 0.71933979245794832 0 -0.69465837861970381 I I #
edge $-1 $406 -12.680121619718308 $228 -3.4678027522046104 $324 $413 forward 7 unknown #
point $-1 61.43742179631947 -3.4678027522046104 7.4671382825021189 #
point $-1 53.919417625172485 -3.4678027522046104 7.4671382825021198 #
edge $-1 $414 1 $414 0 $231 $-1 forward 7 unknown #
vertex $-1 $232 $415 #
ellipse-curve $-1 56.983761332126249 -10.837657846215567 3.1177722891160027 0.69465837861970381 0 0.71933979245794832 0.35966989622897416 0 -0.3473291893098519 1 I I #
point $-1 58.038089606974928 -10.837657846215567 3.489782892264099 #
edge $-1 $416 1 $416 0 $235 $-1 forward 7 unknown #
vertex $-1 $236 $417 #
ellipse-curve $-1 56.983761332126249 -8.0739621859614594 3.1177722891160027 0.69465837861970381 0 0.71933979245794832 0.35966989622897416 0 -0.3473291893098519 1 I I #
point $-1 58.038089606974928 -8.0739621859614594 3.489782892264099 #
edge $-1 $418 1 $418 0 $239 $-1 forward 7 unknown #
vertex $-1 $240 $419 #
ellipse-curve $-1 56.983761332126249 -5.3102665257073518 3.1177722891160027 0.69465837861970381 0 0.71933979245794832 0.35966989622897416 0 -0.3473291893098519 1 I I #
point $-1 58.038089606974928 -5.3102665257073518 3.489782892264099 #
loop $-1 $-1 $251 $243 #
plane-surface $-1 -61.43742179631947 0 0 1 0 0 0 0 -1 forward_v I I I I #
coedge $-1 $347 $246 $248 $351 reversed $159 $-1 #
coedge $-1 $246 $346 $420 $421 reversed $159 $-1 #
coedge $-1 $254 $249 $246 $349 forward $244 $-1 #
edge $-1 $352 -9.187503393970978 $422 -3.6366598243868822 $348 $423 forward 7 unknown #
coedge $-1 $248 $247 $355 $424 reversed $100 $-1 #
edge $-1 $425 -3.424092098371461e-014 $352 6.6955271825603919 $346 $426 forward 7 unknown #
vertex $-1 $250 $427 #
straight-curve $-1 -55.886578226735381 5.2455939674342655 7.467138282502118 0 1 0 I I #
coedge $-1 $420 $251 $254 $359 reversed $344 $-1 #
coedge $-1 $251 $420 $350 $424 forward $344 $-1 #
vertex $-1 $252 $428 #
straight-curve $-1 -61.43742179631947 3.9025728502227643 52.795454203067976 0 0 1 I I #
straight-curve $-1 -61.437421796319441 3.9025728502227643 3.7230469483581032 -0.82903756765294845 0 -0.55919291073839883 I I #
edge $-1 $422 -17.079803019514298 $255 -3.9025728502227643 $354 $429 forward 7 unknown #
point $-1 -61.43742179631947 3.9025728502227643 7.4671382825021189 #
point $-1 -55.886578226735374 3.9025728502227643 7.4671382825021189 #
edge $-1 $430 1 $430 0 $258 $-1 forward 7 unknown #
vertex $-1 $259 $431 #
ellipse-curve $-1 -56.855813906793422 7.667495755734631 2.9173116453173469 -0.55919291073839883 0 0.82903756765294845 1.2435563514794228 0 0.83878936610759824 1 I I #
point $-1 -57.418443660048027 7.667495755734631 6.4338819815377146 #
edge $-1 $432 1 $432 0 $262 $-1 forward 7 unknown #
vertex $-1 $263 $433 #
ellipse-curve $-1 -56.855813906793422 13.314880114002431 2.9173116453173469 -0.55919291073839883 0 0.82903756765294845 1.2435563514794228 0 0.83878936610759824 1 I I #
point $-1 -57.418443660048027 13.314880114002431 6.4338819815377146 #
plane-surface $-1 61.43742179631947 0 0 -1 0 0 0 0 1 forward_v I I I I #
coedge $-1 $271 $269 $273 $375 reversed $181 $-1 #
edge $-1 $284 -7.4671382825021189 $377 7.4671382825021189 $283 $434 forward 7 unknown #
vertex $-1 $375 $435 #
straight-curve $-1 -61.43742179631947 -27.575309377070543 0 0 0 -1 I I #
edge $-1 $373 -27.575309377070543 $377 27.575309377070543 $371 $436 forward 7 unknown #
straight-curve $-1 0 -27.575309377070543 -7.4671382825021189 -1 0 0 I I #
vertex $-1 $276 $437 #
straight-curve $-1 0 27.575309377070543 -7.4671382825021189 1 0 0 I I #
point $-1 61.43742179631947 27.575309377070543 -7.4671382825021189 #
point $-1 61.43742179631947 -27.575309377070543 -7.4671382825021189 #
straight-curve $-1 -61.43742179631947 0 7.4671382825021189 0 -1 0 I I #
point $-1 -61.43742179631947 27.575309377070543 7.4671382825021189 #
point $-1 -61.43742179631947 -27.575309377070543 7.4671382825021189 #
straight-curve $-1 61.43742179631947 -27.575309377070543 0 0 0 -1 I I #
straight-curve $-1 61.43742179631947 27.575309377070543 0 0 0 -1 I I #
loop $-1 $-1 $394 $293 #
plane-surface $-1 -61.43742179631947 0 0 1 0 0 0 0 -1 forward_v I I I I #
coedge $-1 $297 $296 $400 $438 forward $122 $-1 #
edge $-1 $301 17.865933059257802 $403 27.575309377070543 $300 $439 forward 7 unknown #
coedge $-1 $397 $394 $297 $391 reversed $386 $-1 #
edge $-1 $440 -27.575309377070543 $392 -17.865933059257802 $390 $441 forward 7 unknown #
vertex $-1 $395 $442 #
straight-curve $-1 0 -17.865933059257802 -7.4671382825021189 1 0 0 I I #
coedge $-1 $390 $303 $299 $395 forward $386 $-1 #
edge $-1 $305 1.1689294858601791 $392 4.5884490263813529 $394 $443 forward 7 unknown #
point $-1 61.43742179631947 -17.865933059257802 -7.4671382825021189 #
coedge $-1 $303 $390 $307 $401 reversed $386 $-1 #
straight-curve $-1 -61.43742179631947 -11.360310609082086 -4.0476187419809451 0 1 0 I I #
point $-1 -61.43742179631947 -17.865933059257802 -4.0476187419809451 #
coedge $-1 $308 $307 $388 $438 reversed $294 $-1 #
edge $-1 $309 4.0476187419809451 $440 7.4671382825021189 $397 $444 forward 7 unknown #
point $-1 -61.43742179631947 -27.575309377070543 -4.0476187419809451 #
vertex $-1 $311 $445 #
straight-curve $-1 61.43742179631947 -27.575309377070543 0 0 0 -1 I I #
edge $-1 $406 79.508806713542796 $409 86.768859115399096 $315 $446 forward 7 unknown #
vertex $-1 $329 $447 #
straight-curve $-1 29.202348465649997 -12.680121619718308 7.4671382825021198 1 0 0 I I #
edge $-1 $409 -8.6431405267375787 $326 0.56917834077611928 $325 $448 forward 7 unknown #
vertex $-1 $408 $449 #
straight-curve $-1 -26.951342691912274 -12.680121619718308 85.563125503858075 -0.71933979245794832 0 0.69465837861970381 I I #
point $-1 53.919417625172485 -12.680121619718308 7.4671382825021198 #
point $-1 61.43742179631947 -3.4678027522046104 0.20708588064582045 #
straight-curve $-1 61.43742179631947 0 7.4671382825021189 0 1 0 I I #
vertex $-1 $332 $450 #
point $-1 57.343431228355229 -10.837657846215567 2.7704430998061511 #
vertex $-1 $336 $451 #
point $-1 57.343431228355229 -8.0739621859614594 2.7704430998061511 #
vertex $-1 $340 $452 #
point $-1 57.343431228355229 -5.3102665257073518 2.7704430998061511 #
coedge $-1 $355 $354 $347 $421 forward $344 $-1 #
edge $-1 $422 45.328315920565856 $425 49.072407254709894 $420 $453 forward 7 unknown #
vertex $-1 $359 $454 #
straight-curve $-1 -65.074081620706352 17.079803019514298 7.4671382825021198 -1 0 0 I I #
edge $-1 $425 -11.834209052080032 $356 1.3430211172115012 $355 $455 forward 7 unknown #
vertex $-1 $424 $456 #
straight-curve $-1 -61.437421796319441 17.079803019514298 3.7230469483581032 0.82903756765294845 0 0.55919291073839883 I I #
point $-1 -55.886578226735374 17.079803019514298 7.4671382825021189 #
point $-1 -61.43742179631947 3.9025728502227643 3.7230469483580841 #
straight-curve $-1 -61.43742179631947 0 7.4671382825021189 0 -1 0 I I #
vertex $-1 $362 $457 #
point $-1 -55.612257555313995 7.667495755734631 3.7561010114249447 #
vertex $-1 $366 $458 #
point $-1 -55.612257555313995 13.314880114002431 3.7561010114249447 #
straight-curve $-1 -61.43742179631947 27.575309377070543 0 0 0 -1 I I #
point $-1 -61.43742179631947 -27.575309377070543 -7.4671382825021189 #
straight-curve $-1 -61.43742179631947 0 -7.4671382825021189 0 1 0 I I #
point $-1 -61.43742179631947 27.575309377070543 -7.4671382825021189 #
edge $-1 $403 -61.43742179631947 $440 61.43742179631947 $400 $459 forward 7 unknown #
straight-curve $-1 61.43742179631947 0 -7.4671382825021189 0 -1 0 I I #
vertex $-1 $391 $460 #
straight-curve $-1 -61.43742179631947 0 -7.4671382825021189 0 1 0 I I #
point $-1 -61.43742179631947 -17.865933059257802 -7.4671382825021189 #
straight-curve $-1 -61.43742179631947 -17.865933059257802 -2.878689256120766 0 0 -1 I I #
straight-curve $-1 -61.43742179631947 -27.575309377070543 0 0 0 -1 I I #
point $-1 61.43742179631947 -27.575309377070543 -7.4671382825021189 #
straight-curve $-1 61.43742179631947 -12.680121619718308 86.975944996044916 0 0 -1 I I #
point $-1 61.43742179631947 -12.680121619718308 7.4671382825021189 #
straight-curve $-1 61.43742179631947 -4.0369810929807297 0.20708588064581335 0 1 0 I I #
point $-1 61.43742179631947 -12.680121619718308 0.20708588064582045 #
point $-1 56.636432142816403 -10.837657846215567 2.7581023928870287 #
point $-1 56.636432142816403 -8.0739621859614594 2.7581023928870287 #
point $-1 56.636432142816403 -5.3102665257073518 2.7581023928870287 #
straight-curve $-1 -61.43742179631947 17.079803019514298 52.795454203067976 0 0 -1 I I #
point $-1 -61.43742179631947 17.079803019514298 7.4671382825021189 #
straight-curve $-1 -61.43742179631947 5.2455939674342655 3.7230469483580837 0 -1 0 I I #
point $-1 -61.43742179631947 17.079803019514298 3.7230469483580841 #
point $-1 -56.017024540685817 7.667495755734631 1.6737552938379239 #
point $-1 -56.017024540685817 13.314880114002431 1.6737552938379239 #
straight-curve $-1 0 -27.575309377070543 -7.4671382825021189 -1 0 0 I I #
point $-1 -61.43742179631947 -27.575309377070543 -7.4671382825021189 #
End-of-ACIS-data 