500 0 7 0           
7 Unknown 11 ACIS 5.0 NT 24 Thu Mar 25 21:15:15 1999 
-1 9.9999999999999995e-007 1e-010 
body $-1 $7 $-1 $8 #
body $-1 $9 $-1 $10 #
body $-1 $11 $-1 $12 #
body $-1 $13 $-1 $14 #
body $-1 $15 $-1 $16 #
body $-1 $17 $-1 $18 #
body $-1 $19 $-1 $20 #
lump $-1 $-1 $21 $0 #
transform $-1 1 0 0 0 1 0 0 0 1 71.054414502395701 48.670549996657321 17.683271729642783 1 rotate no_reflect no_shear #
lump $-1 $-1 $22 $1 #
transform $-1 1 0 0 0 1 0 0 0 1 71.054414502395701 48.670549996657321 17.683271729642783 1 rotate no_reflect no_shear #
lump $-1 $-1 $23 $2 #
transform $-1 1 0 0 0 1 0 0 0 1 71.054414502395701 48.670549996657321 17.683271729642783 1 rotate no_reflect no_shear #
lump $-1 $-1 $24 $3 #
transform $-1 1 0 0 0 1 0 0 0 1 71.054414502395701 48.670549996657321 17.683271729642783 1 rotate no_reflect no_shear #
lump $-1 $-1 $25 $4 #
transform $-1 1 0 0 0 1 0 0 0 1 71.054414502395701 48.670549996657321 17.683271729642783 1 rotate no_reflect no_shear #
lump $-1 $-1 $26 $5 #
transform $-1 1 0 0 0 1 0 0 0 1 71.054414502395701 48.670549996657321 17.683271729642783 1 rotate no_reflect no_shear #
lump $-1 $-1 $27 $6 #
transform $-1 1 0 0 0 1 0 0 0 1 71.054414502395701 48.670549996657321 17.683271729642783 1 rotate no_reflect no_shear #
shell $-1 $-1 $-1 $28 $-1 $7 #
shell $-1 $-1 $-1 $29 $-1 $9 #
shell $-1 $-1 $-1 $30 $-1 $11 #
shell $-1 $-1 $-1 $31 $-1 $13 #
shell $-1 $-1 $-1 $32 $-1 $15 #
shell $-1 $-1 $-1 $33 $-1 $17 #
shell $-1 $-1 $-1 $34 $-1 $19 #
face $-1 $35 $36 $21 $-1 $37 forward single #
face $-1 $38 $39 $22 $-1 $40 forward single #
face $-1 $41 $42 $23 $-1 $43 reversed single #
face $-1 $44 $45 $24 $-1 $46 reversed single #
face $-1 $47 $48 $25 $-1 $49 forward single #
face $-1 $50 $51 $26 $-1 $52 reversed single #
face $-1 $53 $54 $27 $-1 $55 forward single #
face $-1 $56 $57 $21 $-1 $58 reversed single #
loop $-1 $-1 $59 $28 #
plane-surface $-1 0 0 17.683271729642783 0 0 1 1 0 0 forward_v I I I I #
face $-1 $60 $61 $22 $-1 $62 forward single #
loop $-1 $-1 $63 $29 #
plane-surface $-1 0 -48.670549996657321 0 0 1 0 0 0 1 forward_v I I I I #
face $-1 $64 $65 $23 $-1 $66 reversed single #
loop $-1 $-1 $67 $30 #
plane-surface $-1 0 40.102633282849901 12.790757772106375 0 0 1 1 0 0 forward_v I I I I #
face $-1 $68 $69 $24 $-1 $70 reversed single #
loop $-1 $-1 $71 $31 #
plane-surface $-1 -173.27895235588466 -12.621339708178503 105.45085889549871 0 1 0 -0.71933980857756763 0 0.69465836192734942 forward_v I I I I #
face $-1 $72 $73 $25 $-1 $74 forward single #
loop $-1 $75 $76 $32 #
cone-surface $-1 -63.559152326732537 -7.9982893257162857 10.075935583469764 0.71933980857756763 0 -0.69465836192734942 1.3893167238546988 0 1.4386796171551353 1 I I 0 1 2 forward I I I I #
face $-1 $77 $78 $26 $-1 $79 reversed single #
loop $-1 $-1 $80 $33 #
plane-surface $-1 74.561865984002424 -3.3752389432540681 207.67539674898762 0 -1 0 -0.71933980857756763 0 -0.69465836192734942 forward_v I I I I #
face $-1 $81 $82 $27 $-1 $83 forward single #
loop $-1 $84 $85 $34 #
cone-surface $-1 63.55915232673253 -7.9982893257162857 10.075935583469789 -0.71933980857756763 0 -0.69465836192734942 1.3893167238546988 0 -1.4386796171551353 1 I I 0 1 2 forward I I I I #
face $-1 $86 $87 $21 $-1 $88 reversed single #
loop $-1 $-1 $89 $35 #
plane-surface $-1 0 0 -17.683271729642783 0 0 1 1 0 0 forward_v I I I I #
coedge $-1 $90 $91 $92 $93 forward $36 $-1 #
face $-1 $94 $95 $22 $-1 $96 reversed single #
loop $-1 $-1 $97 $38 #
plane-surface $-1 0 0 17.683271729642783 0 0 1 1 0 0 forward_v I I I I #
coedge $-1 $98 $99 $100 $101 forward $39 $-1 #
face $-1 $102 $103 $23 $-1 $104 reversed single #
loop $-1 $-1 $105 $41 #
plane-surface $-1 0 31.53471656904248 15.237014750874579 0 1 0 0 0 1 forward_v I I I I #
coedge $-1 $106 $107 $108 $109 reversed $42 $-1 #
face $-1 $110 $111 $24 $-1 $112 reversed single #
loop $-1 $-1 $113 $44 #
plane-surface $-1 -71.054414502395716 -7.9982893257162857 6.7337725236165085 -0.71933980857756763 0 0.69465836192734942 0.69465836192734942 0 0.71933980857756763 forward_v I I I I #
coedge $-1 $114 $115 $116 $117 reversed $45 $-1 #
face $-1 $-1 $118 $25 $-1 $119 forward single #
loop $-1 $120 $121 $47 #
cone-surface $-1 -60.631454453515182 -7.9982893257162857 7.248690678382534 0.71933980857756763 0 -0.69465836192734942 0.69465836192734942 0 0.71933980857756763 1 I I -0.70710678118654746 0.70710678118654746 1 forward I I I I #
loop $-1 $-1 $122 $32 #
coedge $-1 $76 $76 $123 $124 reversed $48 $-1 #
face $-1 $125 $126 $26 $-1 $127 reversed single #
loop $-1 $-1 $128 $50 #
plane-surface $-1 -27.662671869486516 -7.9982893257162857 108.95831037710542 0.71933980857756763 0 0.69465836192734942 0.69465836192734942 0 -0.71933980857756763 forward_v I I I I #
coedge $-1 $129 $130 $131 $132 reversed $51 $-1 #
face $-1 $-1 $133 $27 $-1 $134 forward single #
loop $-1 $135 $136 $53 #
cone-surface $-1 60.631454453515175 -7.9982893257162857 7.2486906783825589 -0.71933980857756763 0 -0.69465836192734942 0.69465836192734942 0 -0.71933980857756763 1 I I -0.70710678118654746 0.70710678118654746 1 forward I I I I #
loop $-1 $-1 $137 $34 #
coedge $-1 $85 $85 $138 $139 reversed $54 $-1 #
face $-1 $140 $141 $21 $-1 $142 reversed single #
loop $-1 $-1 $143 $56 #
plane-surface $-1 0 -48.670549996657321 0 0 1 0 0 0 1 forward_v I I I I #
coedge $-1 $144 $145 $146 $147 forward $57 $-1 #
coedge $-1 $148 $59 $149 $150 forward $36 $-1 #
coedge $-1 $59 $148 $151 $152 forward $36 $-1 #
coedge $-1 $153 $154 $59 $93 reversed $155 $-1 #
edge $-1 $156 -48.670549996657321 $157 48.670549996657321 $92 $158 forward 7 unknown #
face $-1 $159 $160 $22 $-1 $161 reversed single #
loop $-1 $-1 $162 $60 #
plane-surface $-1 -71.054414502395701 0 0 1 0 0 0 0 -1 forward_v I I I I #
coedge $-1 $163 $164 $165 $166 forward $61 $-1 #
coedge $-1 $165 $63 $162 $167 reversed $39 $-1 #
coedge $-1 $63 $165 $168 $169 reversed $39 $-1 #
coedge $-1 $170 $171 $63 $101 reversed $160 $-1 #
edge $-1 $172 -71.054414502395701 $173 71.054414502395701 $100 $174 forward 7 unknown #
face $-1 $175 $176 $23 $-1 $177 reversed single #
loop $-1 $-1 $178 $64 #
plane-surface $-1 71.054414502395701 0 0 -1 0 0 0 0 1 forward_v I I I I #
coedge $-1 $179 $180 $181 $182 reversed $65 $-1 #
coedge $-1 $183 $67 $179 $184 forward $42 $-1 #
coedge $-1 $67 $183 $185 $186 reversed $42 $-1 #
coedge $-1 $187 $178 $67 $109 forward $103 $-1 #
edge $-1 $188 11.48339992761753 $189 28.619233355232371 $108 $190 forward 7 unknown #
face $-1 $191 $192 $24 $-1 $193 forward single #
loop $-1 $-1 $194 $68 #
plane-surface $-1 -173.27895235588466 -3.3752389432540681 105.45085889549871 0 -1 0 0.71933980857756763 0 -0.69465836192734942 forward_v I I I I #
coedge $-1 $195 $196 $197 $198 reversed $69 $-1 #
coedge $-1 $115 $71 $199 $200 reversed $45 $-1 #
coedge $-1 $71 $114 $195 $201 reversed $45 $-1 #
coedge $-1 $197 $202 $71 $117 forward $192 $-1 #
edge $-1 $203 15.585061675546626 $204 26.15886989759337 $116 $205 forward 7 unknown #
loop $-1 $-1 $123 $72 #
plane-surface $-1 -71.054414502395716 -7.9982893257162857 6.7337725236165085 -0.71933980857756763 0 0.69465836192734942 0.69465836192734942 0 0.71933980857756763 forward_v I I I I #
loop $-1 $-1 $206 $47 #
coedge $-1 $121 $121 $122 $207 reversed $73 $-1 #
coedge $-1 $122 $122 $121 $207 forward $75 $-1 #
coedge $-1 $123 $123 $76 $124 forward $118 $-1 #
edge $-1 $208 0 $208 6.2831853071796004 $123 $209 forward 7 unknown #
face $-1 $210 $211 $26 $-1 $212 reversed single #
loop $-1 $-1 $213 $77 #
plane-surface $-1 74.561865984002424 -12.621339708178503 207.67539674898762 0 1 0 0.71933980857756763 0 0.69465836192734942 forward_v I I I I #
coedge $-1 $214 $215 $216 $217 reversed $78 $-1 #
coedge $-1 $130 $80 $218 $219 reversed $51 $-1 #
coedge $-1 $80 $129 $214 $220 reversed $51 $-1 #
coedge $-1 $216 $221 $80 $132 forward $222 $-1 #
edge $-1 $223 -33.77348151039449 $224 -23.199673288347682 $131 $225 forward 7 unknown #
loop $-1 $-1 $138 $81 #
plane-surface $-1 -27.662671869486516 -7.9982893257162857 108.95831037710542 0.71933980857756763 0 0.69465836192734942 0.69465836192734942 0 -0.71933980857756763 forward_v I I I I #
loop $-1 $-1 $226 $53 #
coedge $-1 $136 $136 $137 $227 reversed $82 $-1 #
coedge $-1 $137 $137 $136 $227 forward $84 $-1 #
coedge $-1 $138 $138 $85 $139 forward $133 $-1 #
edge $-1 $228 0 $228 6.2831853071796004 $138 $229 forward 7 unknown #
face $-1 $230 $231 $21 $-1 $232 reversed single #
loop $-1 $-1 $233 $86 #
plane-surface $-1 -71.054414502395701 0 0 1 0 0 0 0 -1 forward_v I I I I #
coedge $-1 $234 $151 $235 $236 forward $87 $-1 #
coedge $-1 $237 $89 $234 $238 forward $57 $-1 #
coedge $-1 $89 $237 $239 $240 forward $57 $-1 #
coedge $-1 $154 $153 $89 $147 reversed $155 $-1 #
edge $-1 $241 -48.670549996657321 $242 48.670549996657321 $146 $243 forward 7 unknown #
coedge $-1 $91 $90 $244 $245 forward $36 $-1 #
coedge $-1 $246 $247 $90 $150 reversed $231 $-1 #
edge $-1 $157 -71.054414502395701 $248 71.054414502395701 $149 $249 forward 7 unknown #
coedge $-1 $143 $250 $91 $152 reversed $87 $-1 #
edge $-1 $251 -71.054414502395701 $156 71.054414502395701 $151 $252 forward 7 unknown #
coedge $-1 $146 $92 $250 $253 forward $155 $-1 #
coedge $-1 $92 $146 $246 $254 reversed $155 $-1 #
loop $-1 $-1 $153 $230 #
vertex $-1 $93 $255 #
vertex $-1 $93 $256 #
straight-curve $-1 71.054414502395701 0 17.683271729642783 0 1 0 I I #
face $-1 $257 $258 $22 $-1 $259 reversed single #
loop $-1 $-1 $170 $94 #
plane-surface $-1 0 -57.985732944743184 9.1855657050051533 0 0 1 1 0 0 forward_v I I I I #
coedge $-1 $260 $261 $98 $167 forward $95 $-1 #
coedge $-1 $262 $97 $261 $263 forward $61 $-1 #
coedge $-1 $97 $262 $264 $265 forward $61 $-1 #
coedge $-1 $99 $98 $97 $166 reversed $39 $-1 #
edge $-1 $266 -71.054414502395701 $267 71.054414502395701 $97 $268 forward 7 unknown #
edge $-1 $267 -17.683271729642783 $173 -9.1855657050051533 $162 $269 forward 7 unknown #
coedge $-1 $264 $270 $99 $169 forward $271 $-1 #
edge $-1 $172 9.1855657050051533 $266 17.683271729642783 $168 $272 forward 7 unknown #
coedge $-1 $273 $100 $270 $274 forward $160 $-1 #
coedge $-1 $100 $273 $260 $275 forward $160 $-1 #
vertex $-1 $169 $276 #
vertex $-1 $167 $277 #
straight-curve $-1 0 -48.670549996657321 9.1855657050051533 -1 0 0 I I #
face $-1 $278 $279 $23 $-1 $280 forward single #
loop $-1 $-1 $185 $102 #
plane-surface $-1 0 48.670549996657321 0 0 -1 0 0 0 -1 forward_v I I I I #
coedge $-1 $108 $281 $282 $283 forward $103 $-1 #
coedge $-1 $282 $105 $106 $184 reversed $65 $-1 #
coedge $-1 $105 $282 $284 $285 reversed $65 $-1 #
coedge $-1 $286 $287 $105 $182 forward $288 $-1 #
edge $-1 $289 5.1722503966690851 $290 10.064764354205494 $181 $291 forward 7 unknown #
coedge $-1 $107 $106 $287 $292 reversed $42 $-1 #
edge $-1 $188 -71.054414502395701 $289 71.054414502395701 $179 $293 forward 7 unknown #
coedge $-1 $294 $295 $107 $186 forward $176 $-1 #
edge $-1 $189 -71.054414502395701 $296 71.054414502395701 $185 $297 forward 7 unknown #
coedge $-1 $281 $108 $295 $298 reversed $103 $-1 #
vertex $-1 $109 $299 #
vertex $-1 $186 $300 #
straight-curve $-1 71.054414502395701 20.05131664142495 12.790757772106375 0 1 0 I I #
face $-1 $-1 $301 $24 $-1 $302 reversed single #
loop $-1 $-1 $116 $110 #
plane-surface $-1 0 0 17.683271729642783 0 0 1 1 0 0 forward_v I I I I #
coedge $-1 $303 $304 $305 $306 reversed $111 $-1 #
coedge $-1 $307 $113 $115 $201 forward $69 $-1 #
coedge $-1 $113 $307 $303 $308 forward $69 $-1 #
coedge $-1 $305 $116 $113 $198 forward $192 $-1 #
edge $-1 $204 -8.6221950453203604 $309 0.6239057196040747 $197 $310 forward 7 unknown #
coedge $-1 $311 $312 $114 $200 forward $301 $-1 #
edge $-1 $313 -45.991656924132833 $203 -35.042157718106573 $199 $314 forward 7 unknown #
edge $-1 $204 -15.221594961744108 $313 -2.0733024663016622e-014 $115 $315 forward 7 unknown #
coedge $-1 $116 $305 $311 $316 forward $192 $-1 #
vertex $-1 $200 $317 #
vertex $-1 $117 $318 #
straight-curve $-1 -86.639476177942328 -12.621339708178503 17.683271729642783 1 0 0 I I #
coedge $-1 $206 $206 $-1 $319 reversed $120 $-1 #
edge $-1 $320 0 $320 6.2831853071796004 $121 $321 forward 7 unknown #
vertex $-1 $124 $322 #
ellipse-curve $-1 -65.767510391372326 -7.9982893257162857 12.208522126629653 -0.71933980857756763 0 0.69465836192734942 1.3893167238546988 0 1.4386796171551353 1 I I #
face $-1 $-1 $222 $26 $-1 $323 forward single #
loop $-1 $-1 $324 $125 #
plane-surface $-1 71.054414502395701 0 0 -1 0 0 0 0 1 forward_v I I I I #
coedge $-1 $325 $326 $327 $328 reversed $126 $-1 #
coedge $-1 $329 $128 $130 $220 forward $78 $-1 #
coedge $-1 $128 $329 $325 $330 forward $78 $-1 #
coedge $-1 $327 $131 $128 $217 forward $222 $-1 #
edge $-1 $224 -0.6239057196040747 $331 8.6221950453203604 $216 $332 forward 7 unknown #
coedge $-1 $333 $334 $129 $219 forward $211 $-1 #
edge $-1 $335 -97.103925850877346 $223 -86.154426644851029 $218 $336 forward 7 unknown #
edge $-1 $224 126.88723404304724 $335 142.10882900479143 $130 $337 forward 7 unknown #
coedge $-1 $131 $327 $333 $338 forward $222 $-1 #
loop $-1 $-1 $327 $210 #
vertex $-1 $219 $339 #
vertex $-1 $132 $340 #
straight-curve $-1 37.280932992001212 -3.3752389432540681 17.683271729642783 -1 0 0 I I #
coedge $-1 $226 $226 $-1 $341 reversed $135 $-1 #
edge $-1 $342 0 $342 6.2831853071796004 $136 $343 forward 7 unknown #
vertex $-1 $139 $344 #
ellipse-curve $-1 65.767510391372284 -7.9982893257162857 12.208522126629639 0.71933980857756763 0 0.69465836192734942 1.3893167238546988 0 -1.4386796171551353 1 I I #
face $-1 $-1 $155 $21 $-1 $345 reversed single #
loop $-1 $-1 $246 $140 #
plane-surface $-1 0 48.670549996657321 0 0 -1 0 0 0 -1 forward_v I I I I #
coedge $-1 $346 $244 $247 $347 forward $141 $-1 #
coedge $-1 $250 $143 $144 $238 reversed $87 $-1 #
coedge $-1 $244 $346 $143 $236 reversed $141 $-1 #
edge $-1 $251 -17.683271729642783 $348 17.683271729642783 $235 $349 forward 7 unknown #
coedge $-1 $145 $144 $346 $350 forward $57 $-1 #
edge $-1 $242 -71.054414502395701 $348 71.054414502395701 $234 $351 forward 7 unknown #
coedge $-1 $247 $246 $145 $240 reversed $231 $-1 #
edge $-1 $352 -71.054414502395701 $241 71.054414502395701 $239 $353 forward 7 unknown #
vertex $-1 $147 $354 #
vertex $-1 $253 $355 #
straight-curve $-1 71.054414502395701 0 -17.683271729642783 0 -1 0 I I #
coedge $-1 $233 $235 $148 $245 reversed $141 $-1 #
edge $-1 $248 -48.670549996657321 $251 48.670549996657321 $244 $356 forward 7 unknown #
coedge $-1 $239 $149 $154 $254 forward $231 $-1 #
coedge $-1 $149 $239 $233 $347 reversed $231 $-1 #
vertex $-1 $150 $357 #
straight-curve $-1 0 48.670549996657321 17.683271729642783 -1 0 0 I I #
coedge $-1 $151 $234 $153 $253 reversed $87 $-1 #
vertex $-1 $245 $358 #
straight-curve $-1 0 -48.670549996657321 17.683271729642783 1 0 0 I I #
edge $-1 $156 -17.683271729642783 $242 17.683271729642783 $153 $359 forward 7 unknown #
edge $-1 $157 -17.683271729642783 $241 17.683271729642783 $154 $360 forward 7 unknown #
point $-1 71.054414502395701 -48.670549996657321 17.683271729642783 #
point $-1 71.054414502395701 48.670549996657321 17.683271729642783 #
face $-1 $-1 $271 $22 $-1 $361 reversed single #
loop $-1 $-1 $362 $159 #
plane-surface $-1 0 -67.300915892829053 13.434418717323968 0 1 0 0 0 1 forward_v I I I I #
coedge $-1 $363 $162 $171 $275 reversed $95 $-1 #
coedge $-1 $162 $363 $163 $263 reversed $95 $-1 #
coedge $-1 $164 $163 $364 $365 forward $61 $-1 #
edge $-1 $267 48.670549996657321 $366 67.300915892829053 $261 $367 forward 7 unknown #
coedge $-1 $368 $168 $164 $265 reversed $271 $-1 #
edge $-1 $369 -67.300915892829053 $266 -48.670549996657321 $264 $370 forward 7 unknown #
vertex $-1 $169 $371 #
vertex $-1 $263 $372 #
straight-curve $-1 0 -48.670549996657321 17.683271729642783 -1 0 0 I I #
straight-curve $-1 -71.054414502395701 -48.670549996657321 0 0 0 -1 I I #
coedge $-1 $168 $368 $170 $274 reversed $271 $-1 #
loop $-1 $-1 $168 $257 #
straight-curve $-1 71.054414502395701 -48.670549996657321 0 0 0 1 I I #
coedge $-1 $171 $170 $373 $374 forward $160 $-1 #
edge $-1 $172 -9.3151829480858623 $375 9.3151829480858694 $270 $376 forward 7 unknown #
edge $-1 $377 -9.3151829480858694 $173 9.3151829480858623 $260 $378 forward 7 unknown #
point $-1 71.054414502395701 -48.670549996657321 9.1855657050051533 #
point $-1 -71.054414502395701 -48.670549996657321 9.1855657050051533 #
face $-1 $-1 $288 $23 $-1 $379 reversed single #
loop $-1 $-1 $284 $175 #
plane-surface $-1 0 0 17.683271729642783 0 0 1 1 0 0 forward_v I I I I #
coedge $-1 $178 $187 $380 $381 reversed $103 $-1 #
coedge $-1 $180 $179 $178 $283 reversed $65 $-1 #
edge $-1 $382 -10.064764354205494 $188 -5.1722503966690851 $178 $383 forward 7 unknown #
coedge $-1 $380 $384 $180 $285 forward $279 $-1 #
edge $-1 $290 -71.054414502395701 $382 71.054414502395701 $284 $385 forward 7 unknown #
coedge $-1 $386 $181 $384 $387 reversed $288 $-1 #
coedge $-1 $181 $386 $183 $292 forward $288 $-1 #
loop $-1 $-1 $181 $278 #
vertex $-1 $292 $388 #
vertex $-1 $182 $389 #
straight-curve $-1 -71.054414502395701 31.53471656904248 7.6185073754372894 0 0 1 I I #
edge $-1 $296 -28.619233355232371 $289 -11.48339992761753 $287 $390 forward 7 unknown #
straight-curve $-1 0 31.53471656904248 12.790757772106375 -1 0 0 I I #
coedge $-1 $391 $185 $386 $392 reversed $176 $-1 #
coedge $-1 $185 $391 $187 $298 forward $176 $-1 #
vertex $-1 $186 $393 #
straight-curve $-1 0 48.670549996657321 12.790757772106375 -1 0 0 I I #
edge $-1 $394 -17.683271729642783 $189 -12.790757772106375 $187 $395 forward 7 unknown #
point $-1 71.054414502395701 31.53471656904248 12.790757772106375 #
point $-1 71.054414502395701 48.670549996657321 12.790757772106375 #
loop $-1 $-1 $199 $191 #
plane-surface $-1 -71.054414502395701 0 0 1 0 0 0 0 -1 forward_v I I I I #
coedge $-1 $304 $194 $196 $308 reversed $111 $-1 #
coedge $-1 $194 $303 $396 $397 reversed $111 $-1 #
coedge $-1 $202 $197 $194 $306 forward $192 $-1 #
edge $-1 $309 -26.15886989759337 $398 -15.585061675546626 $305 $399 forward 7 unknown #
coedge $-1 $196 $195 $312 $400 reversed $69 $-1 #
edge $-1 $401 2.0733024663016622e-014 $309 15.221594961744108 $303 $402 forward 7 unknown #
vertex $-1 $198 $403 #
straight-curve $-1 -60.480606280348958 -3.9991446628581429 17.683271729642783 0 1 0 I I #
coedge $-1 $396 $199 $202 $316 reversed $301 $-1 #
coedge $-1 $199 $396 $307 $400 forward $301 $-1 #
vertex $-1 $200 $404 #
straight-curve $-1 -71.054414502395701 -12.621339708178503 52.725429447749356 0 0 1 I I #
straight-curve $-1 -71.054414502395716 -12.621339708178503 6.7337725236165085 -0.69465836192734942 0 -0.71933980857756763 I I #
edge $-1 $398 3.3752389432540681 $203 12.621339708178503 $311 $405 forward 7 unknown #
point $-1 -71.054414502395701 -12.621339708178503 17.683271729642783 #
point $-1 -60.480606280348958 -12.621339708178503 17.683271729642783 #
edge $-1 $406 1 $406 0 $206 $-1 forward 7 unknown #
vertex $-1 $207 $407 #
ellipse-curve $-1 -61.350794262092748 -7.9982893257162857 7.943349040309883 -0.71933980857756763 0 0.69465836192734942 1.3893167238546988 0 1.4386796171551353 1 I I #
point $-1 -64.378193667517621 -7.9982893257162857 13.64720174378478 #
plane-surface $-1 0 0 17.683271729642783 0 0 1 1 0 0 forward_v I I I I #
coedge $-1 $334 $333 $326 $408 forward $211 $-1 #
coedge $-1 $326 $213 $215 $330 reversed $126 $-1 #
coedge $-1 $213 $325 $324 $408 reversed $126 $-1 #
coedge $-1 $221 $216 $213 $328 forward $222 $-1 #
edge $-1 $331 23.199673288347682 $409 33.77348151039449 $327 $410 forward 7 unknown #
coedge $-1 $215 $214 $334 $411 reversed $78 $-1 #
edge $-1 $412 -142.10882900479143 $331 -126.88723404304724 $325 $413 forward 7 unknown #
vertex $-1 $217 $414 #
straight-curve $-1 60.480606280348901 -3.9991446628581429 17.68327172964279 0 -1 0 I I #
coedge $-1 $324 $218 $221 $338 reversed $211 $-1 #
coedge $-1 $218 $324 $329 $411 forward $211 $-1 #
vertex $-1 $219 $415 #
straight-curve $-1 71.054414502395701 -3.3752389432540681 103.83769837449381 0 0 1 I I #
straight-curve $-1 -27.662671869486516 -3.3752389432540681 108.95831037710542 0.69465836192734942 0 -0.71933980857756763 I I #
edge $-1 $409 -12.621339708178503 $223 -3.3752389432540681 $333 $416 forward 7 unknown #
point $-1 71.054414502395701 -3.3752389432540681 17.683271729642783 #
point $-1 60.480606280348894 -3.3752389432540681 17.683271729642783 #
edge $-1 $417 1 $417 0 $226 $-1 forward 7 unknown #
vertex $-1 $227 $418 #
ellipse-curve $-1 61.350794262092741 -7.9982893257162857 7.9433490403099078 0.71933980857756763 0 0.69465836192734942 1.3893167238546988 0 -1.4386796171551353 1 I I #
point $-1 67.156827115227017 -7.9982893257162857 10.769842509474532 #
plane-surface $-1 71.054414502395701 0 0 -1 0 0 0 0 1 forward_v I I I I #
coedge $-1 $235 $233 $237 $350 reversed $141 $-1 #
edge $-1 $248 -17.683271729642783 $352 17.683271729642783 $247 $419 forward 7 unknown #
vertex $-1 $350 $420 #
straight-curve $-1 -71.054414502395701 -48.670549996657321 0 0 0 -1 I I #
edge $-1 $348 -48.670549996657321 $352 48.670549996657321 $346 $421 forward 7 unknown #
straight-curve $-1 0 -48.670549996657321 -17.683271729642783 -1 0 0 I I #
vertex $-1 $240 $422 #
straight-curve $-1 0 48.670549996657321 -17.683271729642783 1 0 0 I I #
point $-1 71.054414502395701 48.670549996657321 -17.683271729642783 #
point $-1 71.054414502395701 -48.670549996657321 -17.683271729642783 #
straight-curve $-1 -71.054414502395701 0 17.683271729642783 0 -1 0 I I #
point $-1 -71.054414502395701 48.670549996657321 17.683271729642783 #
point $-1 -71.054414502395701 -48.670549996657321 17.683271729642783 #
straight-curve $-1 71.054414502395701 -48.670549996657321 0 0 0 -1 I I #
straight-curve $-1 71.054414502395701 48.670549996657321 0 0 0 -1 I I #
plane-surface $-1 71.054414502395701 0 0 -1 0 0 0 0 1 forward_v I I I I #
coedge $-1 $373 $364 $363 $423 forward $258 $-1 #
coedge $-1 $261 $260 $362 $423 reversed $95 $-1 #
coedge $-1 $362 $424 $262 $365 reversed $258 $-1 #
edge $-1 $366 -71.054414502395701 $369 71.054414502395701 $364 $425 forward 7 unknown #
vertex $-1 $263 $426 #
straight-curve $-1 -71.054414502395701 0 17.683271729642783 0 -1 0 I I #
coedge $-1 $270 $264 $424 $427 forward $271 $-1 #
vertex $-1 $265 $428 #
straight-curve $-1 71.054414502395701 0 17.683271729642783 0 1 0 I I #
point $-1 71.054414502395701 -48.670549996657321 17.683271729642783 #
point $-1 -71.054414502395701 -48.670549996657321 17.683271729642783 #
coedge $-1 $424 $362 $273 $374 reversed $258 $-1 #
edge $-1 $375 -71.054414502395701 $377 71.054414502395701 $373 $429 forward 7 unknown #
vertex $-1 $427 $430 #
straight-curve $-1 71.054414502395701 -57.985732944743184 9.1855657050051533 0 -1 0 I I #
vertex $-1 $275 $431 #
straight-curve $-1 -71.054414502395701 -57.985732944743184 9.1855657050051533 0 1 0 I I #
plane-surface $-1 -71.054414502395701 0 0 1 0 0 0 0 -1 forward_v I I I I #
coedge $-1 $432 $284 $281 $381 forward $279 $-1 #
edge $-1 $382 31.53471656904248 $394 48.670549996657321 $281 $433 forward 7 unknown #
vertex $-1 $381 $434 #
straight-curve $-1 71.054414502395701 31.53471656904248 7.6185073754372894 0 0 -1 I I #
coedge $-1 $284 $432 $286 $387 forward $279 $-1 #
straight-curve $-1 0 31.53471656904248 17.683271729642783 1 0 0 I I #
coedge $-1 $287 $286 $294 $392 forward $288 $-1 #
edge $-1 $435 -48.670549996657321 $290 -31.53471656904248 $286 $436 forward 7 unknown #
point $-1 -71.054414502395701 31.53471656904248 12.790757772106375 #
point $-1 -71.054414502395701 31.53471656904248 17.683271729642783 #
straight-curve $-1 -71.054414502395701 20.05131664142495 12.790757772106375 0 -1 0 I I #
coedge $-1 $295 $294 $432 $437 reversed $176 $-1 #
edge $-1 $435 -17.683271729642783 $296 -12.790757772106375 $294 $438 forward 7 unknown #
point $-1 -71.054414502395701 48.670549996657321 12.790757772106375 #
vertex $-1 $381 $439 #
straight-curve $-1 71.054414502395701 48.670549996657321 0 0 0 -1 I I #
coedge $-1 $312 $311 $304 $397 forward $301 $-1 #
edge $-1 $398 35.042157718106573 $401 45.991656924132833 $396 $440 forward 7 unknown #
vertex $-1 $316 $441 #
straight-curve $-1 -86.639476177942328 -3.3752389432540681 17.683271729642783 -1 0 0 I I #
edge $-1 $401 -0.6239057196040747 $313 8.6221950453203604 $312 $442 forward 7 unknown #
vertex $-1 $400 $443 #
straight-curve $-1 -71.054414502395716 -3.3752389432540681 6.7337725236165085 0.69465836192734942 0 0.71933980857756763 I I #
point $-1 -60.480606280348958 -3.3752389432540681 17.683271729642783 #
point $-1 -71.054414502395701 -12.621339708178503 6.7337725236165236 #
straight-curve $-1 -71.054414502395701 0 17.683271729642783 0 -1 0 I I #
vertex $-1 $319 $444 #
point $-1 -59.96147753823805 -7.9982893257162857 9.3820286574650176 #
edge $-1 $409 86.154426644851029 $412 97.103925850877346 $324 $445 forward 7 unknown #
vertex $-1 $338 $446 #
straight-curve $-1 37.280932992001212 -12.621339708178503 17.683271729642783 1 0 0 I I #
edge $-1 $412 -8.6221950453203604 $335 0.6239057196040747 $334 $447 forward 7 unknown #
vertex $-1 $411 $448 #
straight-curve $-1 -27.662671869486516 -12.621339708178503 108.95831037710542 -0.69465836192734942 0 0.71933980857756763 I I #
point $-1 60.480606280348894 -12.621339708178503 17.683271729642783 #
point $-1 71.054414502395701 -3.3752389432540681 6.7337725236164658 #
straight-curve $-1 71.054414502395701 0 17.683271729642783 0 1 0 I I #
vertex $-1 $341 $449 #
point $-1 62.740110985947439 -7.9982893257162857 6.5046694231547733 #
straight-curve $-1 -71.054414502395701 48.670549996657321 0 0 0 -1 I I #
point $-1 -71.054414502395701 -48.670549996657321 -17.683271729642783 #
straight-curve $-1 -71.054414502395701 0 -17.683271729642783 0 1 0 I I #
point $-1 -71.054414502395701 48.670549996657321 -17.683271729642783 #
edge $-1 $366 -4.2488530123188148 $377 4.2488530123188148 $363 $450 forward 7 unknown #
coedge $-1 $364 $373 $368 $427 reversed $258 $-1 #
straight-curve $-1 0 -67.300915892829053 17.683271729642783 1 0 0 I I #
point $-1 -71.054414502395701 -67.300915892829053 17.683271729642783 #
edge $-1 $369 -4.2488530123188148 $375 4.2488530123188148 $368 $451 forward 7 unknown #
point $-1 71.054414502395701 -67.300915892829053 17.683271729642783 #
straight-curve $-1 0 -67.300915892829053 9.1855657050051533 -1 0 0 I I #
point $-1 71.054414502395701 -67.300915892829053 9.1855657050051533 #
point $-1 -71.054414502395701 -67.300915892829053 9.1855657050051533 #
coedge $-1 $384 $380 $391 $437 forward $279 $-1 #
straight-curve $-1 71.054414502395701 0 17.683271729642783 0 1 0 I I #
point $-1 71.054414502395701 31.53471656904248 17.683271729642783 #
vertex $-1 $437 $452 #
straight-curve $-1 -71.054414502395701 0 17.683271729642783 0 -1 0 I I #
edge $-1 $394 -71.054414502395701 $435 71.054414502395701 $391 $453 forward 7 unknown #
straight-curve $-1 -71.054414502395701 48.670549996657321 0 0 0 -1 I I #
point $-1 71.054414502395701 48.670549996657321 17.683271729642783 #
straight-curve $-1 -71.054414502395701 -3.3752389432540681 52.725429447749356 0 0 -1 I I #
point $-1 -71.054414502395701 -3.3752389432540681 17.683271729642783 #
straight-curve $-1 -71.054414502395701 -3.9991446628581429 6.7337725236165138 0 -1 0 I I #
point $-1 -71.054414502395701 -3.3752389432540681 6.7337725236165236 #
point $-1 -59.912114644937617 -7.9982893257162857 6.554032316455185 #
straight-curve $-1 71.054414502395701 -12.621339708178503 103.83769837449381 0 0 -1 I I #
point $-1 71.054414502395701 -12.621339708178503 17.683271729642783 #
straight-curve $-1 71.054414502395701 -3.9991446628581429 6.7337725236164587 0 1 0 I I #
point $-1 71.054414502395701 -12.621339708178503 6.7337725236164658 #
point $-1 59.91211464493761 -7.9982893257162857 6.5540323164552099 #
straight-curve $-1 -71.054414502395701 -67.300915892829053 13.434418717323968 0 0 -1 I I #
straight-curve $-1 71.054414502395701 -67.300915892829053 13.434418717323968 0 0 -1 I I #
point $-1 -71.054414502395701 48.670549996657321 17.683271729642783 #
straight-curve $-1 0 48.670549996657321 17.683271729642783 -1 0 0 I I #
End-of-ACIS-data 