500 0 18 0           
7 Unknown 11 ACIS 5.0 NT 24 Thu Mar 25 18:20:06 1999 
-1 9.9999999999999995e-007 1e-010 
body $-1 $18 $-1 $19 #
body $-1 $20 $-1 $21 #
body $-1 $22 $-1 $23 #
body $-1 $24 $-1 $25 #
body $-1 $26 $-1 $27 #
body $-1 $28 $-1 $29 #
body $-1 $30 $-1 $31 #
body $-1 $32 $-1 $33 #
body $-1 $34 $-1 $35 #
body $-1 $36 $-1 $37 #
body $-1 $38 $-1 $39 #
body $-1 $40 $-1 $41 #
body $-1 $42 $-1 $43 #
body $-1 $44 $-1 $45 #
body $-1 $46 $-1 $47 #
body $-1 $48 $-1 $49 #
body $-1 $50 $-1 $51 #
body $-1 $52 $-1 $53 #
lump $-1 $-1 $54 $0 #
transform $-1 1 0 0 0 1 0 0 0 1 76.299935911130092 35.650957023229928 7.5506000411942225 1 rotate no_reflect no_shear #
lump $-1 $-1 $55 $1 #
transform $-1 1 0 0 0 1 0 0 0 1 76.299935911130092 35.650957023229928 7.5506000411942225 1 rotate no_reflect no_shear #
lump $-1 $-1 $56 $2 #
transform $-1 1 0 0 0 1 0 0 0 1 76.299935911130092 35.650957023229928 7.5506000411942225 1 rotate no_reflect no_shear #
lump $-1 $-1 $57 $3 #
transform $-1 1 0 0 0 1 0 0 0 1 76.299935911130092 35.650957023229928 7.5506000411942225 1 rotate no_reflect no_shear #
lump $-1 $-1 $58 $4 #
transform $-1 1 0 0 0 1 0 0 0 1 76.299935911130092 35.650957023229928 7.5506000411942225 1 rotate no_reflect no_shear #
lump $-1 $-1 $59 $5 #
transform $-1 1 0 0 0 1 0 0 0 1 76.299935911130092 35.650957023229928 7.5506000411942225 1 rotate no_reflect no_shear #
lump $-1 $-1 $60 $6 #
transform $-1 1 0 0 0 1 0 0 0 1 76.299935911130092 35.650957023229928 7.5506000411942225 1 rotate no_reflect no_shear #
lump $-1 $-1 $61 $7 #
transform $-1 1 0 0 0 1 0 0 0 1 76.299935911130092 35.650957023229928 7.5506000411942225 1 rotate no_reflect no_shear #
lump $-1 $-1 $62 $8 #
transform $-1 1 0 0 0 1 0 0 0 1 76.299935911130092 35.650957023229928 7.5506000411942225 1 rotate no_reflect no_shear #
lump $-1 $-1 $63 $9 #
transform $-1 1 0 0 0 1 0 0 0 1 76.299935911130092 35.650957023229928 7.5506000411942225 1 rotate no_reflect no_shear #
lump $-1 $-1 $64 $10 #
transform $-1 1 0 0 0 1 0 0 0 1 76.299935911130092 35.650957023229928 7.5506000411942225 1 rotate no_reflect no_shear #
lump $-1 $-1 $65 $11 #
transform $-1 1 0 0 0 1 0 0 0 1 76.299935911130092 35.650957023229928 7.5506000411942225 1 rotate no_reflect no_shear #
lump $-1 $-1 $66 $12 #
transform $-1 1 0 0 0 1 0 0 0 1 76.299935911130092 35.650957023229928 7.5506000411942225 1 rotate no_reflect no_shear #
lump $-1 $-1 $67 $13 #
transform $-1 1 0 0 0 1 0 0 0 1 76.299935911130092 35.650957023229928 7.5506000411942225 1 rotate no_reflect no_shear #
lump $-1 $-1 $68 $14 #
transform $-1 1 0 0 0 1 0 0 0 1 76.299935911130092 35.650957023229928 7.5506000411942225 1 rotate no_reflect no_shear #
lump $-1 $-1 $69 $15 #
transform $-1 1 0 0 0 1 0 0 0 1 76.299935911130092 35.650957023229928 7.5506000411942225 1 rotate no_reflect no_shear #
lump $-1 $-1 $70 $16 #
transform $-1 1 0 0 0 1 0 0 0 1 76.299935911130092 35.650957023229928 7.5506000411942225 1 rotate no_reflect no_shear #
lump $-1 $-1 $71 $17 #
transform $-1 1 0 0 0 1 0 0 0 1 76.299935911130092 35.650957023229928 7.5506000411942225 1 rotate no_reflect no_shear #
shell $-1 $-1 $-1 $72 $-1 $18 #
shell $-1 $-1 $-1 $73 $-1 $20 #
shell $-1 $-1 $-1 $74 $-1 $22 #
shell $-1 $-1 $-1 $75 $-1 $24 #
shell $-1 $-1 $-1 $76 $-1 $26 #
shell $-1 $-1 $-1 $77 $-1 $28 #
shell $-1 $-1 $-1 $78 $-1 $30 #
shell $-1 $-1 $-1 $79 $-1 $32 #
shell $-1 $-1 $-1 $80 $-1 $34 #
shell $-1 $-1 $-1 $81 $-1 $36 #
shell $-1 $-1 $-1 $82 $-1 $38 #
shell $-1 $-1 $-1 $83 $-1 $40 #
shell $-1 $-1 $-1 $84 $-1 $42 #
shell $-1 $-1 $-1 $85 $-1 $44 #
shell $-1 $-1 $-1 $86 $-1 $46 #
shell $-1 $-1 $-1 $87 $-1 $48 #
shell $-1 $-1 $-1 $88 $-1 $50 #
shell $-1 $-1 $-1 $89 $-1 $52 #
face $-1 $90 $91 $54 $-1 $92 reversed single #
face $-1 $93 $94 $55 $-1 $95 forward single #
face $-1 $96 $97 $56 $-1 $98 reversed single #
face $-1 $99 $100 $57 $-1 $101 forward single #
face $-1 $102 $103 $58 $-1 $104 forward single #
face $-1 $105 $106 $59 $-1 $107 forward single #
face $-1 $108 $109 $60 $-1 $110 reversed single #
face $-1 $111 $112 $61 $-1 $113 forward single #
face $-1 $114 $115 $62 $-1 $116 forward single #
face $-1 $117 $118 $63 $-1 $119 forward single #
face $-1 $120 $121 $64 $-1 $122 reversed single #
face $-1 $123 $124 $65 $-1 $125 forward single #
face $-1 $126 $127 $66 $-1 $128 forward single #
face $-1 $129 $130 $67 $-1 $131 forward single #
face $-1 $132 $133 $68 $-1 $134 reversed single #
face $-1 $135 $136 $69 $-1 $137 forward single #
face $-1 $138 $139 $70 $-1 $140 forward single #
face $-1 $141 $142 $71 $-1 $143 forward single #
face $-1 $144 $145 $54 $-1 $146 forward single #
loop $-1 $-1 $147 $72 #
plane-surface $-1 0 -35.650957023229928 0 0 1 0 0 0 1 forward_v I I I I #
face $-1 $148 $149 $55 $-1 $150 reversed single #
loop $-1 $-1 $151 $73 #
plane-surface $-1 0 -35.650957023229928 0 0 1 0 0 0 1 forward_v I I I I #
face $-1 $152 $153 $56 $-1 $154 reversed single #
loop $-1 $-1 $155 $74 #
plane-surface $-1 -202.81096445096404 -28.246202673678901 86.046594073555099 0 1 0 -0.82903758062907751 0 0.55919289150049634 forward_v I I I I #
face $-1 $156 $157 $57 $-1 $158 forward single #
loop $-1 $159 $160 $75 #
cone-surface $-1 -73.187655018930442 -26.152896465175157 3.5881895531265906 0.82903758062907751 0 -0.55919289150049634 0.27959644575024817 0 0.41451879031453875 1 I I 0 1 0.5 forward I I I I #
face $-1 $161 $162 $58 $-1 $163 forward single #
loop $-1 $164 $165 $76 #
cone-surface $-1 -73.187655018930442 -23.012937152419539 3.5881895531265906 0.82903758062907751 0 -0.55919289150049634 0.27959644575024817 0 0.41451879031453875 1 I I 0 1 0.5 forward I I I I #
face $-1 $166 $167 $59 $-1 $168 forward single #
loop $-1 $169 $170 $77 #
cone-surface $-1 -73.187655018930442 -19.872977839663921 3.5881895531265906 0.82903758062907751 0 -0.55919289150049634 0.27959644575024817 0 0.41451879031453875 1 I I 0 1 0.5 forward I I I I #
face $-1 $171 $172 $60 $-1 $173 reversed single #
loop $-1 $-1 $174 $78 #
plane-surface $-1 -202.81096445096404 -12.271912749451694 86.046594073555099 0 1 0 -0.82903758062907751 0 0.55919289150049634 forward_v I I I I #
face $-1 $175 $176 $61 $-1 $177 forward single #
loop $-1 $178 $179 $79 #
cone-surface $-1 -73.187655018930442 -10.17860654094795 3.5881895531265906 0.82903758062907751 0 -0.55919289150049634 0.27959644575024817 0 0.41451879031453875 1 I I 0 1 0.5 forward I I I I #
face $-1 $180 $181 $62 $-1 $182 forward single #
loop $-1 $183 $184 $80 #
cone-surface $-1 -73.187655018930442 -7.0386472281923318 3.5881895531265906 0.82903758062907751 0 -0.55919289150049634 0.27959644575024817 0 0.41451879031453875 1 I I 0 1 0.5 forward I I I I #
face $-1 $185 $186 $63 $-1 $187 forward single #
loop $-1 $188 $189 $81 #
cone-surface $-1 -73.187655018930442 -3.8986879154367138 3.5881895531265906 0.82903758062907751 0 -0.55919289150049634 0.27959644575024817 0 0.41451879031453875 1 I I 0 1 0.5 forward I I I I #
face $-1 $190 $191 $64 $-1 $192 reversed single #
loop $-1 $-1 $193 $82 #
plane-surface $-1 -202.81096445096404 3.7023771747755125 86.046594073555099 0 1 0 -0.82903758062907751 0 0.55919289150049634 forward_v I I I I #
face $-1 $194 $195 $65 $-1 $196 forward single #
loop $-1 $197 $198 $83 #
cone-surface $-1 -73.187655018930442 5.7956833832792611 3.5881895531265906 0.82903758062907751 0 -0.55919289150049634 0.27959644575024817 0 0.41451879031453875 1 I I 0 1 0.5 forward I I I I #
face $-1 $199 $200 $66 $-1 $201 forward single #
loop $-1 $202 $203 $84 #
cone-surface $-1 -73.187655018930442 8.9356426960348756 3.5881895531265906 0.82903758062907751 0 -0.55919289150049634 0.27959644575024817 0 0.41451879031453875 1 I I 0 1 0.5 forward I I I I #
face $-1 $204 $205 $67 $-1 $206 forward single #
loop $-1 $207 $208 $85 #
cone-surface $-1 -73.187655018930442 12.07560200879049 3.5881895531265906 0.82903758062907751 0 -0.55919289150049634 0.27959644575024817 0 0.41451879031453875 1 I I 0 1 0.5 forward I I I I #
face $-1 $209 $210 $68 $-1 $211 reversed single #
loop $-1 $-1 $212 $86 #
plane-surface $-1 -202.81096445096404 19.676667099002721 86.046594073555099 0 1 0 -0.82903758062907751 0 0.55919289150049634 forward_v I I I I #
face $-1 $213 $214 $69 $-1 $215 forward single #
loop $-1 $216 $217 $87 #
cone-surface $-1 -73.187655018930442 21.769973307506469 3.5881895531265906 0.82903758062907751 0 -0.55919289150049634 0.27959644575024817 0 0.41451879031453875 1 I I 0 1 0.5 forward I I I I #
face $-1 $218 $219 $70 $-1 $220 forward single #
loop $-1 $221 $222 $88 #
cone-surface $-1 -73.187655018930442 24.909932620262083 3.5881895531265906 0.82903758062907751 0 -0.55919289150049634 0.27959644575024817 0 0.41451879031453875 1 I I 0 1 0.5 forward I I I I #
face $-1 $223 $224 $71 $-1 $225 forward single #
loop $-1 $226 $227 $89 #
cone-surface $-1 -73.187655018930442 28.049891933017697 3.5881895531265906 0.82903758062907751 0 -0.55919289150049634 0.27959644575024817 0 0.41451879031453875 1 I I 0 1 0.5 forward I I I I #
face $-1 $228 $229 $54 $-1 $230 reversed single #
loop $-1 $-1 $231 $90 #
plane-surface $-1 0 0 7.5506000411942225 0 0 1 1 0 0 forward_v I I I I #
coedge $-1 $232 $233 $234 $235 reversed $91 $-1 #
face $-1 $236 $237 $55 $-1 $238 reversed single #
loop $-1 $-1 $239 $93 #
plane-surface $-1 0 0 -7.5506000411942225 0 0 1 1 0 0 forward_v I I I I #
coedge $-1 $240 $241 $242 $243 forward $94 $-1 #
face $-1 $244 $245 $56 $-1 $246 reversed single #
loop $-1 $-1 $247 $96 #
plane-surface $-1 -76.29993591113012 -23.012937152419539 0.71383050666031522 -0.82903758062907751 0 0.55919289150049634 0.55919289150049634 0 0.82903758062907751 forward_v I I I I #
coedge $-1 $248 $249 $250 $251 reversed $97 $-1 #
face $-1 $-1 $252 $57 $-1 $253 forward single #
loop $-1 $254 $255 $99 #
cone-surface $-1 -72.17384429912677 -26.152896465175157 2.9043656094507924 0.82903758062907751 0 -0.55919289150049634 0.13979822287512408 0 0.20725939515726938 1 I I -0.70710678118654746 0.70710678118654746 0.25 forward I I I I #
loop $-1 $-1 $256 $75 #
coedge $-1 $160 $160 $257 $258 reversed $100 $-1 #
face $-1 $-1 $259 $58 $-1 $260 forward single #
loop $-1 $261 $262 $102 #
cone-surface $-1 -72.17384429912677 -23.012937152419539 2.9043656094507924 0.82903758062907751 0 -0.55919289150049634 0.13979822287512408 0 0.20725939515726938 1 I I -0.70710678118654746 0.70710678118654746 0.25 forward I I I I #
loop $-1 $-1 $263 $76 #
coedge $-1 $165 $165 $264 $265 reversed $103 $-1 #
face $-1 $-1 $266 $59 $-1 $267 forward single #
loop $-1 $268 $269 $105 #
cone-surface $-1 -72.17384429912677 -19.872977839663921 2.9043656094507924 0.82903758062907751 0 -0.55919289150049634 0.13979822287512408 0 0.20725939515726938 1 I I -0.70710678118654746 0.70710678118654746 0.25 forward I I I I #
loop $-1 $-1 $270 $77 #
coedge $-1 $170 $170 $271 $272 reversed $106 $-1 #
face $-1 $273 $274 $60 $-1 $275 reversed single #
loop $-1 $-1 $276 $108 #
plane-surface $-1 -76.29993591113012 -7.0386472281923318 0.71383050666031522 -0.82903758062907751 0 0.55919289150049634 0.55919289150049634 0 0.82903758062907751 forward_v I I I I #
coedge $-1 $277 $278 $279 $280 reversed $109 $-1 #
face $-1 $-1 $281 $61 $-1 $282 forward single #
loop $-1 $283 $284 $111 #
cone-surface $-1 -72.17384429912677 -10.17860654094795 2.9043656094507924 0.82903758062907751 0 -0.55919289150049634 0.13979822287512408 0 0.20725939515726938 1 I I -0.70710678118654746 0.70710678118654746 0.25 forward I I I I #
loop $-1 $-1 $285 $79 #
coedge $-1 $179 $179 $286 $287 reversed $112 $-1 #
face $-1 $-1 $288 $62 $-1 $289 forward single #
loop $-1 $290 $291 $114 #
cone-surface $-1 -72.17384429912677 -7.0386472281923318 2.9043656094507924 0.82903758062907751 0 -0.55919289150049634 0.13979822287512408 0 0.20725939515726938 1 I I -0.70710678118654746 0.70710678118654746 0.25 forward I I I I #
loop $-1 $-1 $292 $80 #
coedge $-1 $184 $184 $293 $294 reversed $115 $-1 #
face $-1 $-1 $295 $63 $-1 $296 forward single #
loop $-1 $297 $298 $117 #
cone-surface $-1 -72.17384429912677 -3.8986879154367138 2.9043656094507924 0.82903758062907751 0 -0.55919289150049634 0.13979822287512408 0 0.20725939515726938 1 I I -0.70710678118654746 0.70710678118654746 0.25 forward I I I I #
loop $-1 $-1 $299 $81 #
coedge $-1 $189 $189 $300 $301 reversed $118 $-1 #
face $-1 $302 $303 $64 $-1 $304 reversed single #
loop $-1 $-1 $305 $120 #
plane-surface $-1 -76.29993591113012 8.9356426960348756 0.71383050666031522 -0.82903758062907751 0 0.55919289150049634 0.55919289150049634 0 0.82903758062907751 forward_v I I I I #
coedge $-1 $306 $307 $308 $309 reversed $121 $-1 #
face $-1 $-1 $310 $65 $-1 $311 forward single #
loop $-1 $312 $313 $123 #
cone-surface $-1 -72.17384429912677 5.7956833832792611 2.9043656094507924 0.82903758062907751 0 -0.55919289150049634 0.13979822287512408 0 0.20725939515726938 1 I I -0.70710678118654746 0.70710678118654746 0.25 forward I I I I #
loop $-1 $-1 $314 $83 #
coedge $-1 $198 $198 $315 $316 reversed $124 $-1 #
face $-1 $-1 $317 $66 $-1 $318 forward single #
loop $-1 $319 $320 $126 #
cone-surface $-1 -72.17384429912677 8.9356426960348756 2.9043656094507924 0.82903758062907751 0 -0.55919289150049634 0.13979822287512408 0 0.20725939515726938 1 I I -0.70710678118654746 0.70710678118654746 0.25 forward I I I I #
loop $-1 $-1 $321 $84 #
coedge $-1 $203 $203 $322 $323 reversed $127 $-1 #
face $-1 $-1 $324 $67 $-1 $325 forward single #
loop $-1 $326 $327 $129 #
cone-surface $-1 -72.17384429912677 12.07560200879049 2.9043656094507924 0.82903758062907751 0 -0.55919289150049634 0.13979822287512408 0 0.20725939515726938 1 I I -0.70710678118654746 0.70710678118654746 0.25 forward I I I I #
loop $-1 $-1 $328 $85 #
coedge $-1 $208 $208 $329 $330 reversed $130 $-1 #
face $-1 $331 $332 $68 $-1 $333 reversed single #
loop $-1 $-1 $334 $132 #
plane-surface $-1 -76.29993591113012 24.909932620262083 0.71383050666031522 -0.82903758062907751 0 0.55919289150049634 0.55919289150049634 0 0.82903758062907751 forward_v I I I I #
coedge $-1 $335 $336 $337 $338 reversed $133 $-1 #
face $-1 $-1 $339 $69 $-1 $340 forward single #
loop $-1 $341 $342 $135 #
cone-surface $-1 -72.17384429912677 21.769973307506469 2.9043656094507924 0.82903758062907751 0 -0.55919289150049634 0.13979822287512408 0 0.20725939515726938 1 I I -0.70710678118654746 0.70710678118654746 0.25 forward I I I I #
loop $-1 $-1 $343 $87 #
coedge $-1 $217 $217 $344 $345 reversed $136 $-1 #
face $-1 $-1 $346 $70 $-1 $347 forward single #
loop $-1 $348 $349 $138 #
cone-surface $-1 -72.17384429912677 24.909932620262083 2.9043656094507924 0.82903758062907751 0 -0.55919289150049634 0.13979822287512408 0 0.20725939515726938 1 I I -0.70710678118654746 0.70710678118654746 0.25 forward I I I I #
loop $-1 $-1 $350 $88 #
coedge $-1 $222 $222 $351 $352 reversed $139 $-1 #
face $-1 $-1 $353 $71 $-1 $354 forward single #
loop $-1 $355 $356 $141 #
cone-surface $-1 -72.17384429912677 28.049891933017697 2.9043656094507924 0.82903758062907751 0 -0.55919289150049634 0.13979822287512408 0 0.20725939515726938 1 I I -0.70710678118654746 0.70710678118654746 0.25 forward I I I I #
loop $-1 $-1 $357 $89 #
coedge $-1 $227 $227 $358 $359 reversed $142 $-1 #
face $-1 $360 $361 $54 $-1 $362 reversed single #
loop $-1 $-1 $363 $144 #
plane-surface $-1 0 0 -7.5506000411942225 0 0 1 1 0 0 forward_v I I I I #
coedge $-1 $364 $365 $366 $367 forward $145 $-1 #
coedge $-1 $368 $147 $369 $370 reversed $91 $-1 #
coedge $-1 $147 $368 $371 $372 forward $91 $-1 #
coedge $-1 $373 $363 $147 $235 forward $229 $-1 #
edge $-1 $374 -76.299935911130092 $375 76.299935911130092 $147 $376 forward 7 unknown #
face $-1 $377 $378 $55 $-1 $379 reversed single #
loop $-1 $-1 $380 $148 #
plane-surface $-1 -70.187985270886344 -43.055711372780955 0 0 1 0 0 0 1 forward_v I I I I #
coedge $-1 $381 $382 $241 $383 forward $149 $-1 #
coedge $-1 $384 $151 $385 $386 reversed $94 $-1 #
coedge $-1 $151 $384 $239 $383 reversed $94 $-1 #
coedge $-1 $387 $388 $151 $243 reversed $378 $-1 #
edge $-1 $389 -7.5506000411942225 $390 7.5506000411942225 $242 $391 forward 7 unknown #
face $-1 $392 $393 $56 $-1 $394 reversed single #
loop $-1 $-1 $395 $152 #
plane-surface $-1 -202.81096445096404 -17.779671631160177 86.046594073555099 0 -1 0 0.82903758062907751 0 -0.55919289150049634 forward_v I I I I #
coedge $-1 $396 $397 $398 $399 reversed $153 $-1 #
coedge $-1 $249 $155 $400 $401 reversed $97 $-1 #
coedge $-1 $155 $248 $396 $402 reversed $97 $-1 #
coedge $-1 $398 $403 $155 $251 forward $404 $-1 #
edge $-1 $405 25.105546314351926 $406 29.717005449458355 $250 $407 forward 7 unknown #
loop $-1 $-1 $257 $156 #
plane-surface $-1 -76.29993591113012 -23.012937152419539 0.71383050666031522 -0.82903758062907751 0 0.55919289150049634 0.55919289150049634 0 0.82903758062907751 forward_v I I I I #
loop $-1 $-1 $408 $99 #
coedge $-1 $255 $255 $256 $409 reversed $157 $-1 #
coedge $-1 $256 $256 $255 $409 forward $159 $-1 #
coedge $-1 $257 $257 $160 $258 forward $252 $-1 #
edge $-1 $410 0 $410 6.2831853071796004 $257 $411 forward 7 unknown #
loop $-1 $-1 $264 $161 #
plane-surface $-1 -76.29993591113012 -23.012937152419539 0.71383050666031522 -0.82903758062907751 0 0.55919289150049634 0.55919289150049634 0 0.82903758062907751 forward_v I I I I #
loop $-1 $-1 $412 $102 #
coedge $-1 $262 $262 $263 $413 reversed $162 $-1 #
coedge $-1 $263 $263 $262 $413 forward $164 $-1 #
coedge $-1 $264 $264 $165 $265 forward $259 $-1 #
edge $-1 $414 0 $414 6.2831853071796004 $264 $415 forward 7 unknown #
loop $-1 $-1 $271 $166 #
plane-surface $-1 -76.29993591113012 -23.012937152419539 0.71383050666031522 -0.82903758062907751 0 0.55919289150049634 0.55919289150049634 0 0.82903758062907751 forward_v I I I I #
loop $-1 $-1 $416 $105 #
coedge $-1 $269 $269 $270 $417 reversed $167 $-1 #
coedge $-1 $270 $270 $269 $417 forward $169 $-1 #
coedge $-1 $271 $271 $170 $272 forward $266 $-1 #
edge $-1 $418 0 $418 6.2831853071796004 $271 $419 forward 7 unknown #
face $-1 $420 $421 $60 $-1 $422 forward single #
loop $-1 $-1 $423 $171 #
plane-surface $-1 -202.81096445096404 -1.8053817069329687 86.046594073555099 0 -1 0 0.82903758062907751 0 -0.55919289150049634 forward_v I I I I #
coedge $-1 $424 $425 $426 $427 reversed $172 $-1 #
coedge $-1 $278 $174 $428 $429 reversed $109 $-1 #
coedge $-1 $174 $277 $424 $430 reversed $109 $-1 #
coedge $-1 $426 $431 $174 $280 forward $421 $-1 #
edge $-1 $432 25.105546314351926 $433 29.717005449458355 $279 $434 forward 7 unknown #
loop $-1 $-1 $286 $175 #
plane-surface $-1 -76.29993591113012 -7.0386472281923318 0.71383050666031522 -0.82903758062907751 0 0.55919289150049634 0.55919289150049634 0 0.82903758062907751 forward_v I I I I #
loop $-1 $-1 $435 $111 #
coedge $-1 $284 $284 $285 $436 reversed $176 $-1 #
coedge $-1 $285 $285 $284 $436 forward $178 $-1 #
coedge $-1 $286 $286 $179 $287 forward $281 $-1 #
edge $-1 $437 0 $437 6.2831853071796004 $286 $438 forward 7 unknown #
loop $-1 $-1 $293 $180 #
plane-surface $-1 -76.29993591113012 -7.0386472281923318 0.71383050666031522 -0.82903758062907751 0 0.55919289150049634 0.55919289150049634 0 0.82903758062907751 forward_v I I I I #
loop $-1 $-1 $439 $114 #
coedge $-1 $291 $291 $292 $440 reversed $181 $-1 #
coedge $-1 $292 $292 $291 $440 forward $183 $-1 #
coedge $-1 $293 $293 $184 $294 forward $288 $-1 #
edge $-1 $441 0 $441 6.2831853071796004 $293 $442 forward 7 unknown #
loop $-1 $-1 $300 $185 #
plane-surface $-1 -76.29993591113012 -7.0386472281923318 0.71383050666031522 -0.82903758062907751 0 0.55919289150049634 0.55919289150049634 0 0.82903758062907751 forward_v I I I I #
loop $-1 $-1 $443 $117 #
coedge $-1 $298 $298 $299 $444 reversed $186 $-1 #
coedge $-1 $299 $299 $298 $444 forward $188 $-1 #
coedge $-1 $300 $300 $189 $301 forward $295 $-1 #
edge $-1 $445 0 $445 6.2831853071796004 $300 $446 forward 7 unknown #
face $-1 $447 $448 $64 $-1 $449 forward single #
loop $-1 $-1 $450 $190 #
plane-surface $-1 -202.81096445096404 14.168908217294238 86.046594073555099 0 -1 0 0.82903758062907751 0 -0.55919289150049634 forward_v I I I I #
coedge $-1 $451 $452 $453 $454 reversed $191 $-1 #
coedge $-1 $307 $193 $455 $456 reversed $121 $-1 #
coedge $-1 $193 $306 $451 $457 reversed $121 $-1 #
coedge $-1 $453 $458 $193 $309 forward $448 $-1 #
edge $-1 $459 25.105546314351926 $460 29.717005449458355 $308 $461 forward 7 unknown #
loop $-1 $-1 $315 $194 #
plane-surface $-1 -76.29993591113012 8.9356426960348756 0.71383050666031522 -0.82903758062907751 0 0.55919289150049634 0.55919289150049634 0 0.82903758062907751 forward_v I I I I #
loop $-1 $-1 $462 $123 #
coedge $-1 $313 $313 $314 $463 reversed $195 $-1 #
coedge $-1 $314 $314 $313 $463 forward $197 $-1 #
coedge $-1 $315 $315 $198 $316 forward $310 $-1 #
edge $-1 $464 0 $464 6.2831853071796004 $315 $465 forward 7 unknown #
loop $-1 $-1 $322 $199 #
plane-surface $-1 -76.29993591113012 8.9356426960348756 0.71383050666031522 -0.82903758062907751 0 0.55919289150049634 0.55919289150049634 0 0.82903758062907751 forward_v I I I I #
loop $-1 $-1 $466 $126 #
coedge $-1 $320 $320 $321 $467 reversed $200 $-1 #
coedge $-1 $321 $321 $320 $467 forward $202 $-1 #
coedge $-1 $322 $322 $203 $323 forward $317 $-1 #
edge $-1 $468 0 $468 6.2831853071796004 $322 $469 forward 7 unknown #
loop $-1 $-1 $329 $204 #
plane-surface $-1 -76.29993591113012 8.9356426960348756 0.71383050666031522 -0.82903758062907751 0 0.55919289150049634 0.55919289150049634 0 0.82903758062907751 forward_v I I I I #
loop $-1 $-1 $470 $129 #
coedge $-1 $327 $327 $328 $471 reversed $205 $-1 #
coedge $-1 $328 $328 $327 $471 forward $207 $-1 #
coedge $-1 $329 $329 $208 $330 forward $324 $-1 #
edge $-1 $472 0 $472 6.2831853071796004 $329 $473 forward 7 unknown #
face $-1 $474 $475 $68 $-1 $476 forward single #
loop $-1 $-1 $477 $209 #
plane-surface $-1 -202.81096445096404 30.143198141521445 86.046594073555099 0 -1 0 0.82903758062907751 0 -0.55919289150049634 forward_v I I I I #
coedge $-1 $478 $479 $480 $481 reversed $210 $-1 #
coedge $-1 $336 $212 $482 $483 reversed $133 $-1 #
coedge $-1 $212 $335 $478 $484 reversed $133 $-1 #
coedge $-1 $480 $485 $212 $338 forward $475 $-1 #
edge $-1 $486 25.105546314351926 $487 29.717005449458355 $337 $488 forward 7 unknown #
loop $-1 $-1 $344 $213 #
plane-surface $-1 -76.29993591113012 24.909932620262083 0.71383050666031522 -0.82903758062907751 0 0.55919289150049634 0.55919289150049634 0 0.82903758062907751 forward_v I I I I #
loop $-1 $-1 $489 $135 #
coedge $-1 $342 $342 $343 $490 reversed $214 $-1 #
coedge $-1 $343 $343 $342 $490 forward $216 $-1 #
coedge $-1 $344 $344 $217 $345 forward $339 $-1 #
edge $-1 $491 0 $491 6.2831853071796004 $344 $492 forward 7 unknown #
loop $-1 $-1 $351 $218 #
plane-surface $-1 -76.29993591113012 24.909932620262083 0.71383050666031522 -0.82903758062907751 0 0.55919289150049634 0.55919289150049634 0 0.82903758062907751 forward_v I I I I #
loop $-1 $-1 $493 $138 #
coedge $-1 $349 $349 $350 $494 reversed $219 $-1 #
coedge $-1 $350 $350 $349 $494 forward $221 $-1 #
coedge $-1 $351 $351 $222 $352 forward $346 $-1 #
edge $-1 $495 0 $495 6.2831853071796004 $351 $496 forward 7 unknown #
loop $-1 $-1 $358 $223 #
plane-surface $-1 -76.29993591113012 24.909932620262083 0.71383050666031522 -0.82903758062907751 0 0.55919289150049634 0.55919289150049634 0 0.82903758062907751 forward_v I I I I #
loop $-1 $-1 $497 $141 #
coedge $-1 $356 $356 $357 $498 reversed $224 $-1 #
coedge $-1 $357 $357 $356 $498 forward $226 $-1 #
coedge $-1 $358 $358 $227 $359 forward $353 $-1 #
edge $-1 $499 0 $499 6.2831853071796004 $358 $500 forward 7 unknown #
face $-1 $501 $502 $54 $-1 $503 reversed single #
loop $-1 $-1 $504 $228 #
plane-surface $-1 -76.299935911130092 0 0 1 0 0 0 0 -1 forward_v I I I I #
coedge $-1 $234 $505 $506 $507 forward $229 $-1 #
coedge $-1 $508 $231 $509 $510 forward $145 $-1 #
coedge $-1 $231 $508 $368 $511 forward $145 $-1 #
coedge $-1 $369 $512 $231 $367 reversed $513 $-1 #
edge $-1 $514 -35.650957023229928 $515 35.650957023229928 $366 $516 forward 7 unknown #
coedge $-1 $233 $232 $365 $511 reversed $91 $-1 #
coedge $-1 $506 $366 $232 $370 forward $513 $-1 #
edge $-1 $514 -7.5506000411942225 $374 7.5506000411942225 $369 $517 forward 7 unknown #
coedge $-1 $518 $519 $233 $372 reversed $361 $-1 #
edge $-1 $520 -7.5506000411942225 $375 7.5506000411942225 $371 $521 forward 7 unknown #
coedge $-1 $505 $234 $519 $522 forward $229 $-1 #
vertex $-1 $370 $523 #
vertex $-1 $522 $524 #
straight-curve $-1 0 -35.650957023229928 -7.5506000411942225 -1 0 0 I I #
face $-1 $525 $526 $55 $-1 $527 reversed single #
loop $-1 $-1 $242 $236 #
plane-surface $-1 -71.687985270886344 -39.353334198005442 0 1 0 0 0 0 -1 forward_v I I I I #
coedge $-1 $528 $529 $530 $531 forward $237 $-1 #
coedge $-1 $532 $239 $533 $534 forward $149 $-1 #
coedge $-1 $239 $532 $387 $535 forward $149 $-1 #
edge $-1 $389 -71.687985270886344 $536 -68.687985270886344 $239 $537 forward 7 unknown #
coedge $-1 $241 $240 $538 $539 forward $94 $-1 #
coedge $-1 $540 $541 $240 $386 forward $542 $-1 #
edge $-1 $543 68.687985270886344 $390 71.687985270886344 $385 $544 forward 7 unknown #
coedge $-1 $530 $242 $382 $535 reversed $378 $-1 #
coedge $-1 $242 $530 $540 $545 reversed $378 $-1 #
vertex $-1 $383 $546 #
vertex $-1 $545 $547 #
straight-curve $-1 -71.687985270886344 -35.650957023229928 0 0 0 1 I I #
face $-1 $-1 $404 $56 $-1 $548 forward single #
loop $-1 $-1 $549 $244 #
plane-surface $-1 -76.299935911130092 0 0 1 0 0 0 0 -1 forward_v I I I I #
coedge $-1 $550 $551 $552 $553 reversed $245 $-1 #
coedge $-1 $554 $247 $249 $402 forward $153 $-1 #
coedge $-1 $247 $554 $550 $555 forward $153 $-1 #
coedge $-1 $552 $250 $247 $399 forward $404 $-1 #
edge $-1 $406 -16.739734097469132 $556 -6.2732030549504074 $398 $557 forward 7 unknown #
coedge $-1 $558 $559 $248 $401 forward $393 $-1 #
edge $-1 $560 -42.309466530117191 $405 -35.472696995583327 $400 $561 forward 7 unknown #
edge $-1 $406 -8.2466340420251338 $560 -5.0869049068944123e-014 $249 $562 forward 7 unknown #
coedge $-1 $250 $552 $558 $563 forward $404 $-1 #
loop $-1 $-1 $552 $392 #
vertex $-1 $401 $564 #
vertex $-1 $251 $565 #
straight-curve $-1 -101.40548222548202 -28.246202673678901 7.5506000411942225 1 0 0 I I #
coedge $-1 $408 $408 $-1 $566 reversed $254 $-1 #
edge $-1 $567 0 $567 6.2831853071796004 $255 $568 forward 7 unknown #
vertex $-1 $258 $569 #
ellipse-curve $-1 -73.994206343576877 -26.152896465175157 4.1322152739272839 -0.82903758062907751 0 0.55919289150049634 0.27959644575024817 0 0.41451879031453875 1 I I #
coedge $-1 $412 $412 $-1 $570 reversed $261 $-1 #
edge $-1 $571 0 $571 6.2831853071796004 $262 $572 forward 7 unknown #
vertex $-1 $265 $573 #
ellipse-curve $-1 -73.994206343576877 -23.012937152419539 4.1322152739272839 -0.82903758062907751 0 0.55919289150049634 0.27959644575024817 0 0.41451879031453875 1 I I #
coedge $-1 $416 $416 $-1 $574 reversed $268 $-1 #
edge $-1 $575 0 $575 6.2831853071796004 $269 $576 forward 7 unknown #
vertex $-1 $272 $577 #
ellipse-curve $-1 -73.994206343576877 -19.872977839663921 4.1322152739272839 -0.82903758062907751 0 0.55919289150049634 0.27959644575024817 0 0.41451879031453875 1 I I #
face $-1 $-1 $578 $60 $-1 $579 reversed single #
loop $-1 $-1 $279 $273 #
plane-surface $-1 0 0 7.5506000411942225 0 0 1 1 0 0 forward_v I I I I #
coedge $-1 $580 $581 $582 $583 reversed $274 $-1 #
coedge $-1 $584 $276 $278 $430 forward $172 $-1 #
coedge $-1 $276 $584 $580 $585 forward $172 $-1 #
coedge $-1 $582 $279 $276 $427 forward $421 $-1 #
edge $-1 $433 -8.7525891353555281 $586 1.7139419071631972 $426 $587 forward 7 unknown #
coedge $-1 $588 $589 $277 $429 forward $578 $-1 #
edge $-1 $590 -42.309466530117191 $432 -35.472696995583327 $428 $591 forward 7 unknown #
edge $-1 $433 -8.2466340420251338 $590 -5.0869049068944123e-014 $278 $592 forward 7 unknown #
coedge $-1 $279 $582 $588 $593 forward $421 $-1 #
vertex $-1 $280 $594 #
vertex $-1 $280 $595 #
straight-curve $-1 -101.40548222548202 -12.271912749451694 7.5506000411942225 1 0 0 I I #
coedge $-1 $435 $435 $-1 $596 reversed $283 $-1 #
edge $-1 $597 0 $597 6.2831853071796004 $284 $598 forward 7 unknown #
vertex $-1 $287 $599 #
ellipse-curve $-1 -73.994206343576877 -10.17860654094795 4.1322152739272839 -0.82903758062907751 0 0.55919289150049634 0.27959644575024817 0 0.41451879031453875 1 I I #
coedge $-1 $439 $439 $-1 $600 reversed $290 $-1 #
edge $-1 $601 0 $601 6.2831853071796004 $291 $602 forward 7 unknown #
vertex $-1 $294 $603 #
ellipse-curve $-1 -73.994206343576877 -7.0386472281923318 4.1322152739272839 -0.82903758062907751 0 0.55919289150049634 0.27959644575024817 0 0.41451879031453875 1 I I #
coedge $-1 $443 $443 $-1 $604 reversed $297 $-1 #
edge $-1 $605 0 $605 6.2831853071796004 $298 $606 forward 7 unknown #
vertex $-1 $301 $607 #
ellipse-curve $-1 -73.994206343576877 -3.8986879154367138 4.1322152739272839 -0.82903758062907751 0 0.55919289150049634 0.27959644575024817 0 0.41451879031453875 1 I I #
face $-1 $-1 $608 $64 $-1 $609 reversed single #
loop $-1 $-1 $308 $302 #
plane-surface $-1 0 0 7.5506000411942225 0 0 1 1 0 0 forward_v I I I I #
coedge $-1 $610 $611 $612 $613 reversed $303 $-1 #
coedge $-1 $614 $305 $307 $457 forward $191 $-1 #
coedge $-1 $305 $614 $610 $615 forward $191 $-1 #
coedge $-1 $612 $308 $305 $454 forward $448 $-1 #
edge $-1 $460 -0.76544417324192526 $616 9.7010868692768 $453 $617 forward 7 unknown #
coedge $-1 $618 $619 $306 $456 forward $608 $-1 #
edge $-1 $620 -42.309466530117191 $459 -35.472696995583327 $455 $621 forward 7 unknown #
edge $-1 $460 -8.2466340420251338 $620 -5.0869049068944123e-014 $307 $622 forward 7 unknown #
coedge $-1 $308 $612 $618 $623 forward $448 $-1 #
vertex $-1 $309 $624 #
vertex $-1 $309 $625 #
straight-curve $-1 -101.40548222548202 3.7023771747755125 7.5506000411942225 1 0 0 I I #
coedge $-1 $462 $462 $-1 $626 reversed $312 $-1 #
edge $-1 $627 0 $627 6.2831853071796004 $313 $628 forward 7 unknown #
vertex $-1 $316 $629 #
ellipse-curve $-1 -73.994206343576877 5.7956833832792611 4.1322152739272839 -0.82903758062907751 0 0.55919289150049634 0.27959644575024817 0 0.41451879031453875 1 I I #
coedge $-1 $466 $466 $-1 $630 reversed $319 $-1 #
edge $-1 $631 0 $631 6.2831853071796004 $320 $632 forward 7 unknown #
vertex $-1 $323 $633 #
ellipse-curve $-1 -73.994206343576877 8.9356426960348756 4.1322152739272839 -0.82903758062907751 0 0.55919289150049634 0.27959644575024817 0 0.41451879031453875 1 I I #
coedge $-1 $470 $470 $-1 $634 reversed $326 $-1 #
edge $-1 $635 0 $635 6.2831853071796004 $327 $636 forward 7 unknown #
vertex $-1 $330 $637 #
ellipse-curve $-1 -73.994206343576877 12.07560200879049 4.1322152739272839 -0.82903758062907751 0 0.55919289150049634 0.27959644575024817 0 0.41451879031453875 1 I I #
face $-1 $-1 $638 $68 $-1 $639 reversed single #
loop $-1 $-1 $337 $331 #
plane-surface $-1 0 0 7.5506000411942225 0 0 1 1 0 0 forward_v I I I I #
coedge $-1 $640 $641 $642 $643 reversed $332 $-1 #
coedge $-1 $644 $334 $336 $484 forward $210 $-1 #
coedge $-1 $334 $644 $640 $645 forward $210 $-1 #
coedge $-1 $642 $337 $334 $481 forward $475 $-1 #
edge $-1 $487 7.2217007888716793 $646 17.688231831390404 $480 $647 forward 7 unknown #
coedge $-1 $648 $649 $335 $483 forward $638 $-1 #
edge $-1 $650 -42.309466530117191 $486 -35.472696995583327 $482 $651 forward 7 unknown #
edge $-1 $487 -8.2466340420251338 $650 -5.0869049068944123e-014 $336 $652 forward 7 unknown #
coedge $-1 $337 $642 $648 $653 forward $475 $-1 #
vertex $-1 $338 $654 #
vertex $-1 $338 $655 #
straight-curve $-1 -101.40548222548202 19.676667099002721 7.5506000411942225 1 0 0 I I #
coedge $-1 $489 $489 $-1 $656 reversed $341 $-1 #
edge $-1 $657 0 $657 6.2831853071796004 $342 $658 forward 7 unknown #
vertex $-1 $345 $659 #
ellipse-curve $-1 -73.994206343576877 21.769973307506469 4.1322152739272839 -0.82903758062907751 0 0.55919289150049634 0.27959644575024817 0 0.41451879031453875 1 I I #
coedge $-1 $493 $493 $-1 $660 reversed $348 $-1 #
edge $-1 $661 0 $661 6.2831853071796004 $349 $662 forward 7 unknown #
vertex $-1 $352 $663 #
ellipse-curve $-1 -73.994206343576877 24.909932620262083 4.1322152739272839 -0.82903758062907751 0 0.55919289150049634 0.27959644575024817 0 0.41451879031453875 1 I I #
coedge $-1 $497 $497 $-1 $664 reversed $355 $-1 #
edge $-1 $665 0 $665 6.2831853071796004 $356 $666 forward 7 unknown #
vertex $-1 $359 $667 #
ellipse-curve $-1 -73.994206343576877 28.049891933017697 4.1322152739272839 -0.82903758062907751 0 0.55919289150049634 0.27959644575024817 0 0.41451879031453875 1 I I #
face $-1 $-1 $513 $54 $-1 $668 reversed single #
loop $-1 $-1 $669 $360 #
plane-surface $-1 0 35.650957023229928 0 0 -1 0 0 0 -1 forward_v I I I I #
coedge $-1 $519 $518 $670 $671 forward $361 $-1 #
coedge $-1 $363 $373 $672 $673 forward $229 $-1 #
coedge $-1 $512 $369 $363 $507 reversed $513 $-1 #
edge $-1 $674 -35.650957023229928 $374 35.650957023229928 $506 $675 forward 7 unknown #
coedge $-1 $365 $364 $518 $676 forward $145 $-1 #
coedge $-1 $669 $670 $364 $510 reversed $502 $-1 #
edge $-1 $515 -76.299935911130092 $677 76.299935911130092 $509 $678 forward 7 unknown #
edge $-1 $520 -76.299935911130092 $514 76.299935911130092 $368 $679 forward 7 unknown #
coedge $-1 $366 $506 $669 $680 reversed $513 $-1 #
loop $-1 $-1 $369 $501 #
vertex $-1 $367 $681 #
vertex $-1 $367 $682 #
straight-curve $-1 76.299935911130092 0 7.5506000411942225 0 1 0 I I #
straight-curve $-1 76.299935911130092 -35.650957023229928 0 0 0 -1 I I #
coedge $-1 $504 $371 $508 $676 reversed $361 $-1 #
coedge $-1 $371 $504 $373 $522 reversed $361 $-1 #
vertex $-1 $676 $683 #
straight-curve $-1 -76.299935911130092 -35.650957023229928 0 0 0 -1 I I #
edge $-1 $375 -35.650957023229928 $684 35.650957023229928 $519 $685 forward 7 unknown #
point $-1 76.299935911130092 -35.650957023229928 -7.5506000411942225 #
point $-1 -76.299935911130092 -35.650957023229928 -7.5506000411942225 #
face $-1 $-1 $542 $55 $-1 $686 forward single #
loop $-1 $-1 $687 $377 #
plane-surface $-1 -68.687985270886344 -39.353334198005442 0 -1 0 0 0 0 1 forward_v I I I I #
coedge $-1 $688 $380 $532 $689 reversed $237 $-1 #
coedge $-1 $380 $688 $690 $691 reversed $237 $-1 #
coedge $-1 $388 $387 $380 $531 reversed $378 $-1 #
edge $-1 $692 -7.5506000411942225 $693 7.5506000411942225 $530 $694 forward 7 unknown #
coedge $-1 $382 $381 $528 $689 forward $149 $-1 #
coedge $-1 $538 $687 $381 $534 reversed $526 $-1 #
edge $-1 $536 -3.7023771747755134 $695 3.7023771747755134 $533 $696 forward 7 unknown #
edge $-1 $693 -3.7023771747755134 $389 3.7023771747755134 $387 $697 forward 7 unknown #
vertex $-1 $534 $698 #
straight-curve $-1 0 -35.650957023229928 -7.5506000411942225 1 0 0 I I #
coedge $-1 $699 $533 $384 $539 reversed $526 $-1 #
edge $-1 $543 -7.5506000411942225 $536 7.5506000411942225 $538 $700 forward 7 unknown #
coedge $-1 $690 $385 $388 $545 forward $542 $-1 #
coedge $-1 $385 $690 $699 $701 forward $542 $-1 #
loop $-1 $-1 $385 $525 #
vertex $-1 $386 $702 #
straight-curve $-1 0 -35.650957023229928 7.5506000411942225 -1 0 0 I I #
edge $-1 $390 -3.7023771747755134 $692 3.7023771747755134 $388 $703 forward 7 unknown #
point $-1 -71.687985270886344 -35.650957023229928 -7.5506000411942225 #
point $-1 -71.687985270886344 -35.650957023229928 7.5506000411942225 #
plane-surface $-1 0 0 7.5506000411942225 0 0 1 1 0 0 forward_v I I I I #
coedge $-1 $559 $558 $551 $704 forward $393 $-1 #
coedge $-1 $551 $395 $397 $555 reversed $245 $-1 #
coedge $-1 $395 $550 $549 $704 reversed $245 $-1 #
coedge $-1 $403 $398 $395 $553 forward $404 $-1 #
edge $-1 $556 -29.717005449458355 $705 -25.105546314351926 $552 $706 forward 7 unknown #
coedge $-1 $397 $396 $559 $707 reversed $153 $-1 #
edge $-1 $708 5.0869049068944123e-014 $556 8.2466340420251338 $550 $709 forward 7 unknown #
vertex $-1 $399 $710 #
straight-curve $-1 -71.688476776023663 -11.50646857620977 7.5506000411942225 0 1 0 I I #
coedge $-1 $549 $400 $403 $563 reversed $393 $-1 #
coedge $-1 $400 $549 $554 $707 forward $393 $-1 #
vertex $-1 $401 $711 #
straight-curve $-1 -76.299935911130092 -28.246202673678901 43.023297036777549 0 0 1 I I #
straight-curve $-1 -76.29993591113012 -28.246202673678901 0.71383050666031522 -0.55919289150049634 0 -0.82903758062907751 I I #
edge $-1 $705 17.779671631160177 $405 28.246202673678901 $558 $712 forward 7 unknown #
point $-1 -76.299935911130092 -28.246202673678901 7.5506000411942225 #
point $-1 -71.688476776023663 -28.246202673678901 7.5506000411942225 #
edge $-1 $713 1 $713 0 $408 $-1 forward 7 unknown #
vertex $-1 $409 $714 #
ellipse-curve $-1 -72.381103694284036 -26.152896465175157 3.0441638323259164 -0.82903758062907751 0 0.55919289150049634 0.27959644575024817 0 0.41451879031453875 1 I I #
point $-1 -73.714609897826605 -26.152896465175157 4.5467340642418037 #
edge $-1 $715 1 $715 0 $412 $-1 forward 7 unknown #
vertex $-1 $413 $716 #
ellipse-curve $-1 -72.381103694284036 -23.012937152419539 3.0441638323259164 -0.82903758062907751 0 0.55919289150049634 0.27959644575024817 0 0.41451879031453875 1 I I #
point $-1 -73.714609897826605 -23.012937152419539 4.5467340642418037 #
edge $-1 $717 1 $717 0 $416 $-1 forward 7 unknown #
vertex $-1 $417 $718 #
ellipse-curve $-1 -72.381103694284036 -19.872977839663921 3.0441638323259164 -0.82903758062907751 0 0.55919289150049634 0.27959644575024817 0 0.41451879031453875 1 I I #
point $-1 -73.714609897826605 -19.872977839663921 4.5467340642418037 #
loop $-1 $-1 $428 $420 #
plane-surface $-1 -76.299935911130092 0 0 1 0 0 0 0 -1 forward_v I I I I #
coedge $-1 $581 $423 $425 $585 reversed $274 $-1 #
coedge $-1 $423 $580 $719 $720 reversed $274 $-1 #
coedge $-1 $431 $426 $423 $583 forward $421 $-1 #
edge $-1 $586 -29.717005449458355 $721 -25.105546314351926 $582 $722 forward 7 unknown #
coedge $-1 $425 $424 $589 $723 reversed $172 $-1 #
edge $-1 $724 5.0869049068944123e-014 $586 8.2466340420251338 $580 $725 forward 7 unknown #
vertex $-1 $427 $726 #
straight-curve $-1 -71.688476776023663 -3.5193236140961659 7.5506000411942225 0 1 0 I I #
coedge $-1 $719 $428 $431 $593 reversed $578 $-1 #
coedge $-1 $428 $719 $584 $723 forward $578 $-1 #
vertex $-1 $429 $727 #
straight-curve $-1 -76.299935911130092 -12.271912749451694 43.023297036777549 0 0 1 I I #
straight-curve $-1 -76.29993591113012 -12.271912749451694 0.71383050666031522 -0.55919289150049634 0 -0.82903758062907751 I I #
edge $-1 $721 1.8053817069329687 $432 12.271912749451694 $588 $728 forward 7 unknown #
point $-1 -76.299935911130092 -12.271912749451694 7.5506000411942225 #
point $-1 -71.688476776023663 -12.271912749451694 7.5506000411942225 #
edge $-1 $729 1 $729 0 $435 $-1 forward 7 unknown #
vertex $-1 $436 $730 #
ellipse-curve $-1 -72.381103694284036 -10.17860654094795 3.0441638323259164 -0.82903758062907751 0 0.55919289150049634 0.27959644575024817 0 0.41451879031453875 1 I I #
point $-1 -73.714609897826605 -10.17860654094795 4.5467340642418037 #
edge $-1 $731 1 $731 0 $439 $-1 forward 7 unknown #
vertex $-1 $440 $732 #
ellipse-curve $-1 -72.381103694284036 -7.0386472281923318 3.0441638323259164 -0.82903758062907751 0 0.55919289150049634 0.27959644575024817 0 0.41451879031453875 1 I I #
point $-1 -73.714609897826605 -7.0386472281923318 4.5467340642418037 #
edge $-1 $733 1 $733 0 $443 $-1 forward 7 unknown #
vertex $-1 $444 $734 #
ellipse-curve $-1 -72.381103694284036 -3.8986879154367138 3.0441638323259164 -0.82903758062907751 0 0.55919289150049634 0.27959644575024817 0 0.41451879031453875 1 I I #
point $-1 -73.714609897826605 -3.8986879154367138 4.5467340642418037 #
loop $-1 $-1 $455 $447 #
plane-surface $-1 -76.299935911130092 0 0 1 0 0 0 0 -1 forward_v I I I I #
coedge $-1 $611 $450 $452 $615 reversed $303 $-1 #
coedge $-1 $450 $610 $735 $736 reversed $303 $-1 #
coedge $-1 $458 $453 $450 $613 forward $448 $-1 #
edge $-1 $616 -29.717005449458355 $737 -25.105546314351926 $612 $738 forward 7 unknown #
coedge $-1 $452 $451 $619 $739 reversed $191 $-1 #
edge $-1 $740 5.0869049068944123e-014 $616 8.2466340420251338 $610 $741 forward 7 unknown #
vertex $-1 $454 $742 #
straight-curve $-1 -71.688476776023663 4.4678213480174378 7.5506000411942225 0 1 0 I I #
coedge $-1 $735 $455 $458 $623 reversed $608 $-1 #
coedge $-1 $455 $735 $614 $739 forward $608 $-1 #
vertex $-1 $456 $743 #
straight-curve $-1 -76.299935911130092 3.7023771747755125 43.023297036777549 0 0 1 I I #
straight-curve $-1 -76.29993591113012 3.7023771747755125 0.71383050666031522 -0.55919289150049634 0 -0.82903758062907751 I I #
edge $-1 $737 -14.168908217294238 $459 -3.7023771747755125 $618 $744 forward 7 unknown #
point $-1 -76.299935911130092 3.7023771747755125 7.5506000411942225 #
point $-1 -71.688476776023663 3.7023771747755125 7.5506000411942225 #
edge $-1 $745 1 $745 0 $462 $-1 forward 7 unknown #
vertex $-1 $463 $746 #
ellipse-curve $-1 -72.381103694284036 5.7956833832792611 3.0441638323259164 -0.82903758062907751 0 0.55919289150049634 0.27959644575024817 0 0.41451879031453875 1 I I #
point $-1 -73.714609897826605 5.7956833832792611 4.5467340642418037 #
edge $-1 $747 1 $747 0 $466 $-1 forward 7 unknown #
vertex $-1 $467 $748 #
ellipse-curve $-1 -72.381103694284036 8.9356426960348756 3.0441638323259164 -0.82903758062907751 0 0.55919289150049634 0.27959644575024817 0 0.41451879031453875 1 I I #
point $-1 -73.714609897826605 8.9356426960348756 4.5467340642418037 #
edge $-1 $749 1 $749 0 $470 $-1 forward 7 unknown #
vertex $-1 $471 $750 #
ellipse-curve $-1 -72.381103694284036 12.07560200879049 3.0441638323259164 -0.82903758062907751 0 0.55919289150049634 0.27959644575024817 0 0.41451879031453875 1 I I #
point $-1 -73.714609897826605 12.07560200879049 4.5467340642418037 #
loop $-1 $-1 $482 $474 #
plane-surface $-1 -76.299935911130092 0 0 1 0 0 0 0 -1 forward_v I I I I #
coedge $-1 $641 $477 $479 $645 reversed $332 $-1 #
coedge $-1 $477 $640 $751 $752 reversed $332 $-1 #
coedge $-1 $485 $480 $477 $643 forward $475 $-1 #
edge $-1 $646 -29.717005449458355 $753 -25.105546314351926 $642 $754 forward 7 unknown #
coedge $-1 $479 $478 $649 $755 reversed $210 $-1 #
edge $-1 $756 5.0869049068944123e-014 $646 8.2466340420251338 $640 $757 forward 7 unknown #
vertex $-1 $481 $758 #
straight-curve $-1 -71.688476776023663 12.454966310131041 7.5506000411942225 0 1 0 I I #
coedge $-1 $751 $482 $485 $653 reversed $638 $-1 #
coedge $-1 $482 $751 $644 $755 forward $638 $-1 #
vertex $-1 $483 $759 #
straight-curve $-1 -76.299935911130092 19.676667099002721 43.023297036777549 0 0 1 I I #
straight-curve $-1 -76.29993591113012 19.676667099002721 0.71383050666031522 -0.55919289150049634 0 -0.82903758062907751 I I #
edge $-1 $753 -30.143198141521445 $486 -19.676667099002721 $648 $760 forward 7 unknown #
point $-1 -76.299935911130092 19.676667099002721 7.5506000411942225 #
point $-1 -71.688476776023663 19.676667099002721 7.5506000411942225 #
edge $-1 $761 1 $761 0 $489 $-1 forward 7 unknown #
vertex $-1 $490 $762 #
ellipse-curve $-1 -72.381103694284036 21.769973307506469 3.0441638323259164 -0.82903758062907751 0 0.55919289150049634 0.27959644575024817 0 0.41451879031453875 1 I I #
point $-1 -73.714609897826605 21.769973307506469 4.5467340642418037 #
edge $-1 $763 1 $763 0 $493 $-1 forward 7 unknown #
vertex $-1 $494 $764 #
ellipse-curve $-1 -72.381103694284036 24.909932620262083 3.0441638323259164 -0.82903758062907751 0 0.55919289150049634 0.27959644575024817 0 0.41451879031453875 1 I I #
point $-1 -73.714609897826605 24.909932620262083 4.5467340642418037 #
edge $-1 $765 1 $765 0 $497 $-1 forward 7 unknown #
vertex $-1 $498 $766 #
ellipse-curve $-1 -72.381103694284036 28.049891933017697 3.0441638323259164 -0.82903758062907751 0 0.55919289150049634 0.27959644575024817 0 0.41451879031453875 1 I I #
point $-1 -73.714609897826605 28.049891933017697 4.5467340642418037 #
plane-surface $-1 76.299935911130092 0 0 -1 0 0 0 0 1 forward_v I I I I #
coedge $-1 $672 $509 $512 $680 forward $502 $-1 #
coedge $-1 $509 $672 $504 $671 reversed $502 $-1 #
edge $-1 $677 -7.5506000411942225 $684 7.5506000411942225 $670 $767 forward 7 unknown #
coedge $-1 $670 $669 $505 $673 reversed $502 $-1 #
edge $-1 $684 -76.299935911130092 $674 76.299935911130092 $672 $768 forward 7 unknown #
vertex $-1 $507 $769 #
straight-curve $-1 76.299935911130092 0 -7.5506000411942225 0 -1 0 I I #
edge $-1 $677 -35.650957023229928 $520 35.650957023229928 $518 $770 forward 7 unknown #
vertex $-1 $510 $771 #
straight-curve $-1 0 35.650957023229928 7.5506000411942225 -1 0 0 I I #
straight-curve $-1 0 -35.650957023229928 7.5506000411942225 1 0 0 I I #
edge $-1 $515 -7.5506000411942225 $674 7.5506000411942225 $512 $772 forward 7 unknown #
point $-1 76.299935911130092 -35.650957023229928 7.5506000411942225 #
point $-1 76.299935911130092 35.650957023229928 7.5506000411942225 #
point $-1 -76.299935911130092 -35.650957023229928 7.5506000411942225 #
vertex $-1 $673 $773 #
straight-curve $-1 -76.299935911130092 0 -7.5506000411942225 0 1 0 I I #
plane-surface $-1 0 0 7.5506000411942225 0 0 1 1 0 0 forward_v I I I I #
coedge $-1 $533 $699 $688 $774 forward $526 $-1 #
coedge $-1 $529 $528 $687 $774 reversed $237 $-1 #
edge $-1 $695 -1.5 $693 1.5 $528 $775 forward 7 unknown #
coedge $-1 $541 $540 $529 $691 forward $542 $-1 #
edge $-1 $692 -1.5 $776 1.5 $529 $777 forward 7 unknown #
vertex $-1 $545 $778 #
vertex $-1 $535 $779 #
straight-curve $-1 -71.687985270886344 -43.055711372780955 0 0 0 -1 I I #
vertex $-1 $774 $780 #
straight-curve $-1 -68.687985270886344 -39.353334198005442 -7.5506000411942225 0 -1 0 I I #
straight-curve $-1 -71.687985270886344 -39.353334198005442 -7.5506000411942225 0 1 0 I I #
point $-1 -68.687985270886344 -35.650957023229928 -7.5506000411942225 #
coedge $-1 $687 $538 $541 $701 reversed $526 $-1 #
straight-curve $-1 -68.687985270886344 -35.650957023229928 0 0 0 -1 I I #
edge $-1 $776 -3.7023771747755134 $543 3.7023771747755134 $699 $781 forward 7 unknown #
point $-1 -68.687985270886344 -35.650957023229928 7.5506000411942225 #
straight-curve $-1 -71.687985270886344 -39.353334198005442 7.5506000411942225 0 -1 0 I I #
edge $-1 $705 35.472696995583327 $708 42.309466530117191 $549 $782 forward 7 unknown #
vertex $-1 $563 $783 #
straight-curve $-1 -101.40548222548202 -17.779671631160177 7.5506000411942225 -1 0 0 I I #
edge $-1 $708 6.2732030549504074 $560 16.739734097469132 $559 $784 forward 7 unknown #
vertex $-1 $707 $785 #
straight-curve $-1 -76.29993591113012 -17.779671631160177 0.71383050666031522 0.55919289150049634 0 0.82903758062907751 I I #
point $-1 -71.688476776023663 -17.779671631160177 7.5506000411942225 #
point $-1 -76.299935911130092 -28.246202673678901 0.71383050666035741 #
straight-curve $-1 -76.299935911130092 0 7.5506000411942225 0 -1 0 I I #
vertex $-1 $566 $786 #
point $-1 -72.101507248533792 -26.152896465175157 3.4586826226404552 #
vertex $-1 $570 $787 #
point $-1 -72.101507248533792 -23.012937152419539 3.4586826226404552 #
vertex $-1 $574 $788 #
point $-1 -72.101507248533792 -19.872977839663921 3.4586826226404552 #
coedge $-1 $589 $588 $581 $720 forward $578 $-1 #
edge $-1 $721 35.472696995583327 $724 42.309466530117191 $719 $789 forward 7 unknown #
vertex $-1 $593 $790 #
straight-curve $-1 -101.40548222548202 -1.8053817069329687 7.5506000411942225 -1 0 0 I I #
edge $-1 $724 -1.7139419071631972 $590 8.7525891353555281 $589 $791 forward 7 unknown #
vertex $-1 $723 $792 #
straight-curve $-1 -76.29993591113012 -1.8053817069329687 0.71383050666031522 0.55919289150049634 0 0.82903758062907751 I I #
point $-1 -71.688476776023663 -1.8053817069329687 7.5506000411942225 #
point $-1 -76.299935911130092 -12.271912749451694 0.71383050666035741 #
straight-curve $-1 -76.299935911130092 0 7.5506000411942225 0 -1 0 I I #
vertex $-1 $596 $793 #
point $-1 -72.101507248533792 -10.17860654094795 3.4586826226404552 #
vertex $-1 $600 $794 #
point $-1 -72.101507248533792 -7.0386472281923318 3.4586826226404552 #
vertex $-1 $604 $795 #
point $-1 -72.101507248533792 -3.8986879154367138 3.4586826226404552 #
coedge $-1 $619 $618 $611 $736 forward $608 $-1 #
edge $-1 $737 35.472696995583327 $740 42.309466530117191 $735 $796 forward 7 unknown #
vertex $-1 $623 $797 #
straight-curve $-1 -101.40548222548202 14.168908217294238 7.5506000411942225 -1 0 0 I I #
edge $-1 $740 -9.7010868692768 $620 0.76544417324192526 $619 $798 forward 7 unknown #
vertex $-1 $739 $799 #
straight-curve $-1 -76.29993591113012 14.168908217294238 0.71383050666031522 0.55919289150049634 0 0.82903758062907751 I I #
point $-1 -71.688476776023663 14.168908217294238 7.5506000411942225 #
point $-1 -76.299935911130092 3.7023771747755125 0.71383050666035741 #
straight-curve $-1 -76.299935911130092 0 7.5506000411942225 0 -1 0 I I #
vertex $-1 $626 $800 #
point $-1 -72.101507248533792 5.7956833832792611 3.4586826226404552 #
vertex $-1 $630 $801 #
point $-1 -72.101507248533792 8.9356426960348756 3.4586826226404552 #
vertex $-1 $634 $802 #
point $-1 -72.101507248533792 12.07560200879049 3.4586826226404552 #
coedge $-1 $649 $648 $641 $752 forward $638 $-1 #
edge $-1 $753 35.472696995583327 $756 42.309466530117191 $751 $803 forward 7 unknown #
vertex $-1 $653 $804 #
straight-curve $-1 -101.40548222548202 30.143198141521445 7.5506000411942225 -1 0 0 I I #
edge $-1 $756 -17.688231831390404 $650 -7.2217007888716793 $649 $805 forward 7 unknown #
vertex $-1 $755 $806 #
straight-curve $-1 -76.29993591113012 30.143198141521445 0.71383050666031522 0.55919289150049634 0 0.82903758062907751 I I #
point $-1 -71.688476776023663 30.143198141521445 7.5506000411942225 #
point $-1 -76.299935911130092 19.676667099002721 0.71383050666035741 #
straight-curve $-1 -76.299935911130092 0 7.5506000411942225 0 -1 0 I I #
vertex $-1 $656 $807 #
point $-1 -72.101507248533792 21.769973307506469 3.4586826226404552 #
vertex $-1 $660 $808 #
point $-1 -72.101507248533792 24.909932620262083 3.4586826226404552 #
vertex $-1 $664 $809 #
point $-1 -72.101507248533792 28.049891933017697 3.4586826226404552 #
straight-curve $-1 -76.299935911130092 35.650957023229928 0 0 0 -1 I I #
straight-curve $-1 0 35.650957023229928 -7.5506000411942225 1 0 0 I I #
point $-1 76.299935911130092 35.650957023229928 -7.5506000411942225 #
straight-curve $-1 -76.299935911130092 0 7.5506000411942225 0 -1 0 I I #
point $-1 -76.299935911130092 35.650957023229928 7.5506000411942225 #
straight-curve $-1 76.299935911130092 35.650957023229928 0 0 0 -1 I I #
point $-1 -76.299935911130092 35.650957023229928 -7.5506000411942225 #
edge $-1 $776 -7.5506000411942225 $695 7.5506000411942225 $687 $810 forward 7 unknown #
straight-curve $-1 -70.187985270886344 -43.055711372780955 -7.5506000411942225 -1 0 0 I I #
vertex $-1 $701 $811 #
straight-curve $-1 -70.187985270886344 -43.055711372780955 7.5506000411942225 1 0 0 I I #
point $-1 -71.687985270886344 -43.055711372780955 7.5506000411942225 #
point $-1 -71.687985270886344 -43.055711372780955 -7.5506000411942225 #
point $-1 -68.687985270886344 -43.055711372780955 -7.5506000411942225 #
straight-curve $-1 -68.687985270886344 -39.353334198005442 7.5506000411942225 0 1 0 I I #
straight-curve $-1 -76.299935911130092 -17.779671631160177 43.023297036777549 0 0 -1 I I #
point $-1 -76.299935911130092 -17.779671631160177 7.5506000411942225 #
straight-curve $-1 -76.299935911130092 -11.50646857620977 0.71383050666036052 0 -1 0 I I #
point $-1 -76.299935911130092 -17.779671631160177 0.71383050666035741 #
point $-1 -71.966584903969505 -26.152896465175157 2.7645673865756684 #
point $-1 -71.966584903969505 -23.012937152419539 2.7645673865756684 #
point $-1 -71.966584903969505 -19.872977839663921 2.7645673865756684 #
straight-curve $-1 -76.299935911130092 -1.8053817069329687 43.023297036777549 0 0 -1 I I #
point $-1 -76.299935911130092 -1.8053817069329687 7.5506000411942225 #
straight-curve $-1 -76.299935911130092 -3.5193236140961659 0.71383050666036052 0 -1 0 I I #
point $-1 -76.299935911130092 -1.8053817069329687 0.71383050666035741 #
point $-1 -71.966584903969505 -10.17860654094795 2.7645673865756684 #
point $-1 -71.966584903969505 -7.0386472281923318 2.7645673865756684 #
point $-1 -71.966584903969505 -3.8986879154367138 2.7645673865756684 #
straight-curve $-1 -76.299935911130092 14.168908217294238 43.023297036777549 0 0 -1 I I #
point $-1 -76.299935911130092 14.168908217294238 7.5506000411942225 #
straight-curve $-1 -76.299935911130092 4.4678213480174378 0.71383050666036052 0 -1 0 I I #
point $-1 -76.299935911130092 14.168908217294238 0.71383050666035741 #
point $-1 -71.966584903969505 5.7956833832792611 2.7645673865756684 #
point $-1 -71.966584903969505 8.9356426960348756 2.7645673865756684 #
point $-1 -71.966584903969505 12.07560200879049 2.7645673865756684 #
straight-curve $-1 -76.299935911130092 30.143198141521445 43.023297036777549 0 0 -1 I I #
point $-1 -76.299935911130092 30.143198141521445 7.5506000411942225 #
straight-curve $-1 -76.299935911130092 12.454966310131041 0.71383050666036052 0 -1 0 I I #
point $-1 -76.299935911130092 30.143198141521445 0.71383050666035741 #
point $-1 -71.966584903969505 21.769973307506469 2.7645673865756684 #
point $-1 -71.966584903969505 24.909932620262083 2.7645673865756684 #
point $-1 -71.966584903969505 28.049891933017697 2.7645673865756684 #
straight-curve $-1 -68.687985270886344 -43.055711372780955 0 0 0 -1 I I #
point $-1 -68.687985270886344 -43.055711372780955 7.5506000411942225 #
End-of-ACIS-data 