500 0 16 0           
7 Unknown 11 ACIS 5.0 NT 24 Thu Mar 25 16:06:39 1999 
-1 9.9999999999999995e-007 1e-010 
body $-1 $16 $-1 $17 #
body $-1 $18 $-1 $19 #
body $-1 $20 $-1 $21 #
body $-1 $22 $-1 $23 #
body $-1 $24 $-1 $25 #
body $-1 $26 $-1 $27 #
body $-1 $28 $-1 $29 #
body $-1 $30 $-1 $31 #
body $-1 $32 $-1 $33 #
body $-1 $34 $-1 $35 #
body $-1 $36 $-1 $37 #
body $-1 $38 $-1 $39 #
body $-1 $40 $-1 $41 #
body $-1 $42 $-1 $43 #
body $-1 $44 $-1 $45 #
body $-1 $46 $-1 $47 #
lump $-1 $-1 $48 $0 #
transform $-1 1 0 0 0 1 0 0 0 1 40.655537583544422 18.001245200265387 4.3633255982722812 1 rotate no_reflect no_shear #
lump $-1 $-1 $49 $1 #
transform $-1 1 0 0 0 1 0 0 0 1 40.655537583544422 18.001245200265387 4.3633255982722812 1 rotate no_reflect no_shear #
lump $-1 $-1 $50 $2 #
transform $-1 1 0 0 0 1 0 0 0 1 40.655537583544422 18.001245200265387 4.3633255982722812 1 rotate no_reflect no_shear #
lump $-1 $-1 $51 $3 #
transform $-1 1 0 0 0 1 0 0 0 1 40.655537583544422 18.001245200265387 4.3633255982722812 1 rotate no_reflect no_shear #
lump $-1 $-1 $52 $4 #
transform $-1 1 0 0 0 1 0 0 0 1 40.655537583544422 18.001245200265387 4.3633255982722812 1 rotate no_reflect no_shear #
lump $-1 $-1 $53 $5 #
transform $-1 1 0 0 0 1 0 0 0 1 40.655537583544422 18.001245200265387 4.3633255982722812 1 rotate no_reflect no_shear #
lump $-1 $-1 $54 $6 #
transform $-1 1 0 0 0 1 0 0 0 1 40.655537583544422 18.001245200265387 4.3633255982722812 1 rotate no_reflect no_shear #
lump $-1 $-1 $55 $7 #
transform $-1 1 0 0 0 1 0 0 0 1 40.655537583544422 18.001245200265387 4.3633255982722812 1 rotate no_reflect no_shear #
lump $-1 $-1 $56 $8 #
transform $-1 1 0 0 0 1 0 0 0 1 40.655537583544422 18.001245200265387 4.3633255982722812 1 rotate no_reflect no_shear #
lump $-1 $-1 $57 $9 #
transform $-1 1 0 0 0 1 0 0 0 1 40.655537583544422 18.001245200265387 4.3633255982722812 1 rotate no_reflect no_shear #
lump $-1 $-1 $58 $10 #
transform $-1 1 0 0 0 1 0 0 0 1 40.655537583544422 18.001245200265387 4.3633255982722812 1 rotate no_reflect no_shear #
lump $-1 $-1 $59 $11 #
transform $-1 1 0 0 0 1 0 0 0 1 40.655537583544422 18.001245200265387 4.3633255982722812 1 rotate no_reflect no_shear #
lump $-1 $-1 $60 $12 #
transform $-1 1 0 0 0 1 0 0 0 1 40.655537583544422 18.001245200265387 4.3633255982722812 1 rotate no_reflect no_shear #
lump $-1 $-1 $61 $13 #
transform $-1 1 0 0 0 1 0 0 0 1 40.655537583544422 18.001245200265387 4.3633255982722812 1 rotate no_reflect no_shear #
lump $-1 $-1 $62 $14 #
transform $-1 1 0 0 0 1 0 0 0 1 40.655537583544422 18.001245200265387 4.3633255982722812 1 rotate no_reflect no_shear #
lump $-1 $-1 $63 $15 #
transform $-1 1 0 0 0 1 0 0 0 1 40.655537583544422 18.001245200265387 4.3633255982722812 1 rotate no_reflect no_shear #
shell $-1 $-1 $-1 $64 $-1 $16 #
shell $-1 $-1 $-1 $65 $-1 $18 #
shell $-1 $-1 $-1 $66 $-1 $20 #
shell $-1 $-1 $-1 $67 $-1 $22 #
shell $-1 $-1 $-1 $68 $-1 $24 #
shell $-1 $-1 $-1 $69 $-1 $26 #
shell $-1 $-1 $-1 $70 $-1 $28 #
shell $-1 $-1 $-1 $71 $-1 $30 #
shell $-1 $-1 $-1 $72 $-1 $32 #
shell $-1 $-1 $-1 $73 $-1 $34 #
shell $-1 $-1 $-1 $74 $-1 $36 #
shell $-1 $-1 $-1 $75 $-1 $38 #
shell $-1 $-1 $-1 $76 $-1 $40 #
shell $-1 $-1 $-1 $77 $-1 $42 #
shell $-1 $-1 $-1 $78 $-1 $44 #
shell $-1 $-1 $-1 $79 $-1 $46 #
face $-1 $80 $81 $48 $-1 $82 forward single #
face $-1 $83 $84 $49 $-1 $85 reversed single #
face $-1 $86 $87 $50 $-1 $88 reversed single #
face $-1 $89 $90 $51 $-1 $91 forward single #
face $-1 $92 $93 $52 $-1 $94 reversed single #
face $-1 $95 $96 $53 $-1 $97 forward single #
face $-1 $98 $99 $54 $-1 $100 reversed single #
face $-1 $101 $102 $55 $-1 $103 forward single #
face $-1 $104 $105 $56 $-1 $106 reversed single #
face $-1 $107 $108 $57 $-1 $109 forward single #
face $-1 $110 $111 $58 $-1 $112 forward single #
face $-1 $113 $114 $59 $-1 $115 forward single #
face $-1 $116 $117 $60 $-1 $118 reversed single #
face $-1 $119 $120 $61 $-1 $121 forward single #
face $-1 $122 $123 $62 $-1 $124 forward single #
face $-1 $125 $126 $63 $-1 $127 forward single #
face $-1 $128 $129 $48 $-1 $130 reversed single #
loop $-1 $-1 $131 $64 #
plane-surface $-1 0 0 4.3633255982722812 0 0 1 1 0 0 forward_v I I I I #
face $-1 $132 $133 $49 $-1 $134 reversed single #
loop $-1 $-1 $135 $65 #
plane-surface $-1 0 -15.926319889045477 1.3633255982722812 0 0 1 1 0 0 forward_v I I I I #
face $-1 $136 $137 $50 $-1 $138 reversed single #
loop $-1 $-1 $139 $66 #
plane-surface $-1 -40.655537583544415 -10.54427035911192 0.64178281055176711 -0.75470958851134928 0 0.65605901945558964 0.65605901945558964 0 0.75470958851134928 forward_v I I I I #
face $-1 $140 $141 $51 $-1 $142 forward single #
loop $-1 $143 $144 $67 #
cone-surface $-1 -37.996643288553408 -10.54427035911192 1.5973220993176898 0.75470958851134928 0 -0.65605901945558964 0.65605901945558964 0 0.75470958851134928 1 I I 0 1 1 forward I I I I #
face $-1 $145 $146 $52 $-1 $147 reversed single #
loop $-1 $-1 $148 $68 #
plane-surface $-1 -102.02178566431343 -1.2321989074937361 53.986647055551821 0 1 0 -0.75470958851134928 0 0.65605901945558964 forward_v I I I I #
face $-1 $149 $150 $53 $-1 $151 forward single #
loop $-1 $152 $153 $69 #
cone-surface $-1 -37.996643288553408 2.0749253112199106 1.5973220993176898 0.75470958851134928 0 -0.65605901945558964 0.65605901945558964 0 0.75470958851134928 1 I I 0 1 1 forward I I I I #
face $-1 $154 $155 $54 $-1 $156 reversed single #
loop $-1 $-1 $157 $70 #
plane-surface $-1 -102.02178566431343 11.386996762838095 53.986647055551821 0 1 0 -0.75470958851134928 0 0.65605901945558964 forward_v I I I I #
face $-1 $158 $159 $55 $-1 $160 forward single #
loop $-1 $161 $162 $71 #
cone-surface $-1 -37.996643288553408 14.694120981551741 1.5973220993176898 0.75470958851134928 0 -0.65605901945558964 0.65605901945558964 0 0.75470958851134928 1 I I 0 1 1 forward I I I I #
face $-1 $163 $164 $56 $-1 $165 reversed single #
loop $-1 $-1 $166 $72 #
plane-surface $-1 20.687521889238134 -4.374409627502029 114.39263592276515 0 -1 0 -0.57357644374324357 0 -0.81915203911291934 forward_v I I I I #
face $-1 $167 $168 $57 $-1 $169 forward single #
loop $-1 $170 $171 $73 #
cone-surface $-1 37.953290290146903 -9.1898431429812923 2.1752531064138596 -0.57357644374324357 0 -0.81915203911291934 0.40957601955645967 0 -0.28678822187162178 1 I I 0 1 0.5 forward I I I I #
face $-1 $172 $173 $58 $-1 $174 forward single #
loop $-1 $175 $176 $74 #
cone-surface $-1 37.953290290146903 -7.3840555746765677 2.1752531064138596 -0.57357644374324357 0 -0.81915203911291934 0.40957601955645967 0 -0.28678822187162178 1 I I 0 1 0.5 forward I I I I #
face $-1 $177 $178 $59 $-1 $179 forward single #
loop $-1 $180 $181 $75 #
cone-surface $-1 37.953290290146903 -5.5782680063718431 2.1752531064138596 -0.57357644374324357 0 -0.81915203911291934 0.40957601955645967 0 -0.28678822187162178 1 I I 0 1 0.5 forward I I I I #
face $-1 $182 $183 $60 $-1 $184 reversed single #
loop $-1 $-1 $185 $76 #
plane-surface $-1 20.687521889238134 11.551910261543448 114.39263592276515 0 -1 0 -0.57357644374324357 0 -0.81915203911291934 forward_v I I I I #
face $-1 $186 $187 $61 $-1 $188 forward single #
loop $-1 $189 $190 $77 #
cone-surface $-1 37.953290290146903 6.7364767460641843 2.1752531064138596 -0.57357644374324357 0 -0.81915203911291934 0.40957601955645967 0 -0.28678822187162178 1 I I 0 1 0.5 forward I I I I #
face $-1 $191 $192 $62 $-1 $193 forward single #
loop $-1 $194 $195 $78 #
cone-surface $-1 37.953290290146903 8.5422643143689072 2.1752531064138596 -0.57357644374324357 0 -0.81915203911291934 0.40957601955645967 0 -0.28678822187162178 1 I I 0 1 0.5 forward I I I I #
face $-1 $196 $197 $63 $-1 $198 forward single #
loop $-1 $199 $200 $79 #
cone-surface $-1 37.953290290146903 10.348051882673634 2.1752531064138596 -0.57357644374324357 0 -0.81915203911291934 0.40957601955645967 0 -0.28678822187162178 1 I I 0 1 0.5 forward I I I I #
face $-1 $201 $202 $48 $-1 $203 reversed single #
loop $-1 $-1 $204 $80 #
plane-surface $-1 0 0 -4.3633255982722812 0 0 1 1 0 0 forward_v I I I I #
coedge $-1 $205 $206 $207 $208 forward $81 $-1 #
face $-1 $209 $210 $49 $-1 $211 reversed single #
loop $-1 $-1 $212 $83 #
plane-surface $-1 0 -13.851394577825566 2.8633255982722812 0 -1 0 0 0 -1 forward_v I I I I #
coedge $-1 $213 $214 $215 $216 reversed $84 $-1 #
face $-1 $217 $218 $50 $-1 $219 forward single #
loop $-1 $-1 $220 $86 #
plane-surface $-1 -102.02178566431343 -7.2371461403982735 53.986647055551821 0 -1 0 0.75470958851134928 0 -0.65605901945558964 forward_v I I I I #
coedge $-1 $221 $222 $223 $224 reversed $87 $-1 #
face $-1 $-1 $225 $51 $-1 $226 forward single #
loop $-1 $227 $228 $89 #
cone-surface $-1 -36.577938052823839 -10.54427035911192 0.36406048449555861 0.75470958851134928 0 -0.65605901945558964 0.32802950972779482 0 0.37735479425567464 1 I I -0.70710678118654746 0.70710678118654746 0.5 forward I I I I #
loop $-1 $-1 $229 $67 #
coedge $-1 $144 $144 $230 $231 reversed $90 $-1 #
face $-1 $232 $233 $52 $-1 $234 reversed single #
loop $-1 $-1 $235 $92 #
plane-surface $-1 -40.655537583544415 2.0749253112199106 0.64178281055176711 -0.75470958851134928 0 0.65605901945558964 0.65605901945558964 0 0.75470958851134928 forward_v I I I I #
coedge $-1 $236 $237 $238 $239 reversed $93 $-1 #
face $-1 $-1 $240 $53 $-1 $241 forward single #
loop $-1 $242 $243 $95 #
cone-surface $-1 -36.577938052823839 2.0749253112199106 0.36406048449555861 0.75470958851134928 0 -0.65605901945558964 0.32802950972779482 0 0.37735479425567464 1 I I -0.70710678118654746 0.70710678118654746 0.5 forward I I I I #
loop $-1 $-1 $244 $69 #
coedge $-1 $153 $153 $245 $246 reversed $96 $-1 #
face $-1 $247 $248 $54 $-1 $249 forward single #
loop $-1 $-1 $250 $98 #
plane-surface $-1 -40.655537583544415 14.694120981551741 0.64178281055176711 -0.75470958851134928 0 0.65605901945558964 0.65605901945558964 0 0.75470958851134928 forward_v I I I I #
coedge $-1 $251 $252 $253 $254 reversed $99 $-1 #
face $-1 $-1 $255 $55 $-1 $256 forward single #
loop $-1 $257 $258 $101 #
cone-surface $-1 -36.577938052823839 14.694120981551741 0.36406048449555861 0.75470958851134928 0 -0.65605901945558964 0.32802950972779482 0 0.37735479425567464 1 I I -0.70710678118654746 0.70710678118654746 0.5 forward I I I I #
loop $-1 $-1 $259 $71 #
coedge $-1 $162 $162 $260 $261 reversed $102 $-1 #
face $-1 $262 $263 $56 $-1 $264 reversed single #
loop $-1 $-1 $265 $104 #
plane-surface $-1 -25.950595442040253 -7.3840555746765695 47.786502897180469 0.57357644374324357 0 0.81915203911291934 0.81915203911291934 0 -0.57357644374324357 forward_v I I I I #
coedge $-1 $266 $267 $268 $269 reversed $105 $-1 #
face $-1 $-1 $270 $57 $-1 $271 forward single #
loop $-1 $272 $273 $107 #
cone-surface $-1 37.403353941233071 -9.1898431429812923 1.3898626209623064 -0.57357644374324357 0 -0.81915203911291934 0.20478800977822983 0 -0.14339411093581089 1 I I -0.70710678118654779 0.70710678118654713 0.25 forward I I I I #
loop $-1 $-1 $274 $73 #
coedge $-1 $171 $171 $275 $276 reversed $108 $-1 #
face $-1 $-1 $277 $58 $-1 $278 forward single #
loop $-1 $279 $280 $110 #
cone-surface $-1 37.403353941233071 -7.3840555746765677 1.3898626209623064 -0.57357644374324357 0 -0.81915203911291934 0.20478800977822983 0 -0.14339411093581089 1 I I -0.70710678118654779 0.70710678118654713 0.25 forward I I I I #
loop $-1 $-1 $281 $74 #
coedge $-1 $176 $176 $282 $283 reversed $111 $-1 #
face $-1 $-1 $284 $59 $-1 $285 forward single #
loop $-1 $286 $287 $113 #
cone-surface $-1 37.403353941233071 -5.5782680063718431 1.3898626209623064 -0.57357644374324357 0 -0.81915203911291934 0.20478800977822983 0 -0.14339411093581089 1 I I -0.70710678118654779 0.70710678118654713 0.25 forward I I I I #
loop $-1 $-1 $288 $75 #
coedge $-1 $181 $181 $289 $290 reversed $114 $-1 #
face $-1 $291 $292 $60 $-1 $293 reversed single #
loop $-1 $-1 $294 $116 #
plane-surface $-1 -25.950595442040253 8.5422643143689072 47.786502897180469 0.57357644374324357 0 0.81915203911291934 0.81915203911291934 0 -0.57357644374324357 forward_v I I I I #
coedge $-1 $295 $296 $297 $298 reversed $117 $-1 #
face $-1 $-1 $299 $61 $-1 $300 forward single #
loop $-1 $301 $302 $119 #
cone-surface $-1 37.403353941233071 6.7364767460641843 1.3898626209623064 -0.57357644374324357 0 -0.81915203911291934 0.20478800977822983 0 -0.14339411093581089 1 I I -0.70710678118654779 0.70710678118654713 0.25 forward I I I I #
loop $-1 $-1 $303 $77 #
coedge $-1 $190 $190 $304 $305 reversed $120 $-1 #
face $-1 $-1 $306 $62 $-1 $307 forward single #
loop $-1 $308 $309 $122 #
cone-surface $-1 37.403353941233071 8.5422643143689072 1.3898626209623064 -0.57357644374324357 0 -0.81915203911291934 0.20478800977822983 0 -0.14339411093581089 1 I I -0.70710678118654779 0.70710678118654713 0.25 forward I I I I #
loop $-1 $-1 $310 $78 #
coedge $-1 $195 $195 $311 $312 reversed $123 $-1 #
face $-1 $-1 $313 $63 $-1 $314 forward single #
loop $-1 $315 $316 $125 #
cone-surface $-1 37.403353941233071 10.348051882673634 1.3898626209623064 -0.57357644374324357 0 -0.81915203911291934 0.20478800977822983 0 -0.14339411093581089 1 I I -0.70710678118654779 0.70710678118654713 0.25 forward I I I I #
loop $-1 $-1 $317 $79 #
coedge $-1 $200 $200 $318 $319 reversed $126 $-1 #
face $-1 $320 $321 $48 $-1 $322 reversed single #
loop $-1 $-1 $323 $128 #
plane-surface $-1 0 -18.001245200265387 0 0 1 0 0 0 1 forward_v I I I I #
coedge $-1 $324 $325 $326 $327 forward $129 $-1 #
coedge $-1 $328 $131 $329 $330 forward $81 $-1 #
coedge $-1 $131 $328 $331 $332 forward $81 $-1 #
coedge $-1 $333 $334 $131 $208 reversed $335 $-1 #
edge $-1 $336 -18.001245200265387 $337 18.001245200265387 $207 $338 forward 7 unknown #
face $-1 $339 $340 $49 $-1 $341 reversed single #
loop $-1 $-1 $342 $132 #
plane-surface $-1 -40.655537583544422 0 0 1 0 0 0 0 -1 forward_v I I I I #
coedge $-1 $343 $344 $345 $346 reversed $133 $-1 #
coedge $-1 $347 $135 $348 $349 reversed $84 $-1 #
coedge $-1 $135 $347 $343 $350 forward $84 $-1 #
coedge $-1 $345 $351 $135 $216 forward $352 $-1 #
edge $-1 $353 -10.038085255742649 $354 -5.8882346333028277 $215 $355 forward 7 unknown #
face $-1 $356 $357 $50 $-1 $358 reversed single #
loop $-1 $-1 $223 $136 #
plane-surface $-1 0 0 4.3633255982722812 0 0 1 1 0 0 forward_v I I I I #
coedge $-1 $359 $360 $361 $362 reversed $137 $-1 #
coedge $-1 $363 $139 $364 $365 reversed $87 $-1 #
coedge $-1 $139 $363 $359 $366 forward $87 $-1 #
coedge $-1 $361 $367 $139 $224 forward $218 $-1 #
edge $-1 $368 -8.5792593982696062 $369 -1.9650109608423136 $223 $370 forward 7 unknown #
loop $-1 $-1 $230 $140 #
plane-surface $-1 -40.655537583544415 -10.54427035911192 0.64178281055176711 -0.75470958851134928 0 0.65605901945558964 0.65605901945558964 0 0.75470958851134928 forward_v I I I I #
loop $-1 $-1 $371 $89 #
coedge $-1 $228 $228 $229 $372 reversed $141 $-1 #
coedge $-1 $229 $229 $228 $372 forward $143 $-1 #
coedge $-1 $230 $230 $144 $231 forward $225 $-1 #
edge $-1 $373 0 $373 6.2831853071796004 $230 $374 forward 7 unknown #
face $-1 $375 $376 $52 $-1 $377 forward single #
loop $-1 $-1 $378 $145 #
plane-surface $-1 -102.02178566431343 5.3820495299335569 53.986647055551821 0 -1 0 0.75470958851134928 0 -0.65605901945558964 forward_v I I I I #
coedge $-1 $379 $380 $381 $382 reversed $146 $-1 #
coedge $-1 $237 $148 $383 $384 reversed $93 $-1 #
coedge $-1 $148 $236 $379 $385 reversed $93 $-1 #
coedge $-1 $381 $386 $148 $239 forward $376 $-1 #
edge $-1 $387 10.355355248612291 $388 13.590442955646544 $238 $389 forward 7 unknown #
loop $-1 $-1 $245 $149 #
plane-surface $-1 -40.655537583544415 2.0749253112199106 0.64178281055176711 -0.75470958851134928 0 0.65605901945558964 0.65605901945558964 0 0.75470958851134928 forward_v I I I I #
loop $-1 $-1 $390 $95 #
coedge $-1 $243 $243 $244 $391 reversed $150 $-1 #
coedge $-1 $244 $244 $243 $391 forward $152 $-1 #
coedge $-1 $245 $245 $153 $246 forward $240 $-1 #
edge $-1 $392 0 $392 6.2831853071796004 $245 $393 forward 7 unknown #
face $-1 $394 $395 $54 $-1 $396 reversed single #
loop $-1 $-1 $253 $154 #
plane-surface $-1 0 0 4.3633255982722812 0 0 1 1 0 0 forward_v I I I I #
coedge $-1 $397 $398 $399 $400 reversed $155 $-1 #
coedge $-1 $252 $157 $401 $402 reversed $99 $-1 #
coedge $-1 $157 $251 $397 $403 reversed $99 $-1 #
coedge $-1 $399 $404 $157 $254 forward $248 $-1 #
edge $-1 $405 10.355355248612291 $406 13.590442955646544 $253 $407 forward 7 unknown #
loop $-1 $-1 $260 $158 #
plane-surface $-1 -40.655537583544415 14.694120981551741 0.64178281055176711 -0.75470958851134928 0 0.65605901945558964 0.65605901945558964 0 0.75470958851134928 forward_v I I I I #
loop $-1 $-1 $408 $101 #
coedge $-1 $258 $258 $259 $409 reversed $159 $-1 #
coedge $-1 $259 $259 $258 $409 forward $161 $-1 #
coedge $-1 $260 $260 $162 $261 forward $255 $-1 #
edge $-1 $410 0 $410 6.2831853071796004 $260 $411 forward 7 unknown #
face $-1 $412 $413 $56 $-1 $414 reversed single #
loop $-1 $-1 $415 $163 #
plane-surface $-1 20.687521889238134 -10.39370152185111 114.39263592276515 0 1 0 0.57357644374324357 0 0.81915203911291934 forward_v I I I I #
coedge $-1 $416 $417 $418 $419 reversed $164 $-1 #
coedge $-1 $267 $166 $420 $421 reversed $105 $-1 #
coedge $-1 $166 $266 $416 $422 reversed $105 $-1 #
coedge $-1 $418 $423 $166 $269 forward $424 $-1 #
edge $-1 $425 -30.311776638925355 $426 -25.72036652808637 $268 $427 forward 7 unknown #
loop $-1 $-1 $275 $167 #
plane-surface $-1 -25.950595442040253 -7.3840555746765695 47.786502897180469 0.57357644374324357 0 0.81915203911291934 0.81915203911291934 0 -0.57357644374324357 forward_v I I I I #
loop $-1 $-1 $428 $107 #
coedge $-1 $273 $273 $274 $429 reversed $168 $-1 #
coedge $-1 $274 $274 $273 $429 forward $170 $-1 #
coedge $-1 $275 $275 $171 $276 forward $270 $-1 #
edge $-1 $430 0 $430 6.2831853071796004 $275 $431 forward 7 unknown #
loop $-1 $-1 $282 $172 #
plane-surface $-1 -25.950595442040253 -7.3840555746765695 47.786502897180469 0.57357644374324357 0 0.81915203911291934 0.81915203911291934 0 -0.57357644374324357 forward_v I I I I #
loop $-1 $-1 $432 $110 #
coedge $-1 $280 $280 $281 $433 reversed $173 $-1 #
coedge $-1 $281 $281 $280 $433 forward $175 $-1 #
coedge $-1 $282 $282 $176 $283 forward $277 $-1 #
edge $-1 $434 0 $434 6.2831853071796004 $282 $435 forward 7 unknown #
loop $-1 $-1 $289 $177 #
plane-surface $-1 -25.950595442040253 -7.3840555746765695 47.786502897180469 0.57357644374324357 0 0.81915203911291934 0.81915203911291934 0 -0.57357644374324357 forward_v I I I I #
loop $-1 $-1 $436 $113 #
coedge $-1 $287 $287 $288 $437 reversed $178 $-1 #
coedge $-1 $288 $288 $287 $437 forward $180 $-1 #
coedge $-1 $289 $289 $181 $290 forward $284 $-1 #
edge $-1 $438 0 $438 6.2831853071796004 $289 $439 forward 7 unknown #
face $-1 $440 $441 $60 $-1 $442 reversed single #
loop $-1 $-1 $443 $182 #
plane-surface $-1 20.687521889238134 5.5326183671943667 114.39263592276515 0 1 0 0.57357644374324357 0 0.81915203911291934 forward_v I I I I #
coedge $-1 $444 $445 $446 $447 reversed $183 $-1 #
coedge $-1 $296 $185 $448 $449 reversed $117 $-1 #
coedge $-1 $185 $295 $444 $450 reversed $117 $-1 #
coedge $-1 $446 $451 $185 $298 forward $452 $-1 #
edge $-1 $453 -30.311776638925355 $454 -25.72036652808637 $297 $455 forward 7 unknown #
loop $-1 $-1 $304 $186 #
plane-surface $-1 -25.950595442040253 8.5422643143689072 47.786502897180469 0.57357644374324357 0 0.81915203911291934 0.81915203911291934 0 -0.57357644374324357 forward_v I I I I #
loop $-1 $-1 $456 $119 #
coedge $-1 $302 $302 $303 $457 reversed $187 $-1 #
coedge $-1 $303 $303 $302 $457 forward $189 $-1 #
coedge $-1 $304 $304 $190 $305 forward $299 $-1 #
edge $-1 $458 0 $458 6.2831853071796004 $304 $459 forward 7 unknown #
loop $-1 $-1 $311 $191 #
plane-surface $-1 -25.950595442040253 8.5422643143689072 47.786502897180469 0.57357644374324357 0 0.81915203911291934 0.81915203911291934 0 -0.57357644374324357 forward_v I I I I #
loop $-1 $-1 $460 $122 #
coedge $-1 $309 $309 $310 $461 reversed $192 $-1 #
coedge $-1 $310 $310 $309 $461 forward $194 $-1 #
coedge $-1 $311 $311 $195 $312 forward $306 $-1 #
edge $-1 $462 0 $462 6.2831853071796004 $311 $463 forward 7 unknown #
loop $-1 $-1 $318 $196 #
plane-surface $-1 -25.950595442040253 8.5422643143689072 47.786502897180469 0.57357644374324357 0 0.81915203911291934 0.81915203911291934 0 -0.57357644374324357 forward_v I I I I #
loop $-1 $-1 $464 $125 #
coedge $-1 $316 $316 $317 $465 reversed $197 $-1 #
coedge $-1 $317 $317 $316 $465 forward $199 $-1 #
coedge $-1 $318 $318 $200 $319 forward $313 $-1 #
edge $-1 $466 0 $466 6.2831853071796004 $318 $467 forward 7 unknown #
face $-1 $468 $469 $48 $-1 $470 reversed single #
loop $-1 $-1 $471 $201 #
plane-surface $-1 -40.655537583544422 0 0 1 0 0 0 0 -1 forward_v I I I I #
coedge $-1 $472 $331 $473 $474 forward $202 $-1 #
coedge $-1 $475 $204 $472 $476 forward $129 $-1 #
coedge $-1 $204 $475 $477 $478 forward $129 $-1 #
coedge $-1 $334 $333 $204 $327 reversed $335 $-1 #
edge $-1 $479 -18.001245200265387 $480 18.001245200265387 $326 $481 forward 7 unknown #
coedge $-1 $206 $205 $482 $483 forward $81 $-1 #
coedge $-1 $484 $485 $205 $330 reversed $469 $-1 #
edge $-1 $337 -40.655537583544422 $486 40.655537583544422 $329 $487 forward 7 unknown #
coedge $-1 $323 $488 $206 $332 reversed $202 $-1 #
edge $-1 $489 -40.655537583544422 $336 40.655537583544422 $331 $490 forward 7 unknown #
coedge $-1 $326 $207 $488 $491 forward $335 $-1 #
coedge $-1 $207 $326 $484 $492 reversed $335 $-1 #
loop $-1 $-1 $333 $468 #
vertex $-1 $208 $493 #
vertex $-1 $208 $494 #
straight-curve $-1 40.655537583544422 0 4.3633255982722812 0 1 0 I I #
face $-1 $495 $496 $49 $-1 $497 forward single #
loop $-1 $-1 $348 $209 #
plane-surface $-1 0 -18.001245200265387 0 0 1 0 0 0 1 forward_v I I I I #
coedge $-1 $498 $499 $500 $501 forward $210 $-1 #
coedge $-1 $500 $212 $214 $350 reversed $133 $-1 #
coedge $-1 $212 $500 $502 $503 reversed $133 $-1 #
coedge $-1 $504 $215 $212 $346 forward $352 $-1 #
edge $-1 $354 -0.068337200863859415 $505 2.9316627991361406 $345 $506 forward 7 unknown #
coedge $-1 $214 $213 $498 $507 reversed $84 $-1 #
coedge $-1 $508 $509 $213 $349 forward $340 $-1 #
edge $-1 $510 -40.655537583544422 $353 40.655537583544422 $348 $511 forward 7 unknown #
edge $-1 $512 -40.655537583544422 $354 40.655537583544422 $343 $513 forward 7 unknown #
coedge $-1 $215 $504 $508 $514 forward $352 $-1 #
loop $-1 $-1 $345 $495 #
vertex $-1 $349 $515 #
vertex $-1 $216 $516 #
straight-curve $-1 40.655537583544422 -7.9631599445227383 1.3633255982722812 0 1 0 I I #
face $-1 $-1 $517 $50 $-1 $518 forward single #
loop $-1 $-1 $519 $217 #
plane-surface $-1 -40.655537583544422 0 0 1 0 0 0 0 -1 forward_v I I I I #
coedge $-1 $360 $220 $222 $366 reversed $137 $-1 #
coedge $-1 $220 $359 $519 $520 reversed $137 $-1 #
coedge $-1 $521 $223 $220 $362 forward $218 $-1 #
edge $-1 $369 -13.590442955646544 $522 -10.355355248612291 $361 $523 forward 7 unknown #
coedge $-1 $222 $221 $524 $525 reversed $87 $-1 #
coedge $-1 $526 $527 $221 $365 forward $517 $-1 #
edge $-1 $528 -14.174525882840479 $368 -9.243433387962817 $364 $529 forward 7 unknown #
edge $-1 $530 -1.086200982436365e-014 $369 4.9310924948776504 $359 $531 forward 7 unknown #
coedge $-1 $223 $521 $526 $532 forward $218 $-1 #
vertex $-1 $365 $533 #
vertex $-1 $224 $534 #
straight-curve $-1 -37.420449876510162 -5.2721351795559599 4.3633255982722812 0 1 0 I I #
coedge $-1 $371 $371 $-1 $535 reversed $227 $-1 #
edge $-1 $536 0 $536 6.2831853071796004 $228 $537 forward 7 unknown #
vertex $-1 $231 $538 #
ellipse-curve $-1 -39.037993730027296 -10.54427035911192 2.5025542044120193 -0.75470958851134928 0 0.65605901945558964 0.65605901945558964 0 0.75470958851134928 1 I I #
face $-1 $-1 $539 $52 $-1 $540 reversed single #
loop $-1 $-1 $238 $232 #
plane-surface $-1 0 0 4.3633255982722812 0 0 1 1 0 0 forward_v I I I I #
coedge $-1 $541 $542 $543 $544 reversed $233 $-1 #
coedge $-1 $545 $235 $237 $385 forward $146 $-1 #
coedge $-1 $235 $545 $541 $546 forward $146 $-1 #
coedge $-1 $543 $238 $235 $382 forward $376 $-1 #
edge $-1 $388 -2.2696615631036914 $547 4.3445868743236016 $381 $548 forward 7 unknown #
coedge $-1 $549 $550 $236 $384 forward $539 $-1 #
edge $-1 $551 -26.35154071722415 $387 -22.629997929503631 $383 $552 forward 7 unknown #
edge $-1 $388 -4.9310924948776504 $551 1.086200982436365e-014 $237 $553 forward 7 unknown #
coedge $-1 $238 $543 $549 $554 forward $376 $-1 #
vertex $-1 $239 $555 #
vertex $-1 $239 $556 #
straight-curve $-1 -51.010892832156713 -1.2321989074937361 4.3633255982722794 1 0 0 I I #
coedge $-1 $390 $390 $-1 $557 reversed $242 $-1 #
edge $-1 $558 0 $558 6.2831853071796004 $243 $559 forward 7 unknown #
vertex $-1 $246 $560 #
ellipse-curve $-1 -39.037993730027296 2.0749253112199106 2.5025542044120193 -0.75470958851134928 0 0.65605901945558964 0.65605901945558964 0 0.75470958851134928 1 I I #
face $-1 $-1 $561 $54 $-1 $562 reversed single #
loop $-1 $-1 $563 $247 #
plane-surface $-1 0 18.001245200265387 0 0 -1 0 0 0 -1 forward_v I I I I #
coedge $-1 $564 $250 $252 $403 forward $155 $-1 #
coedge $-1 $250 $564 $563 $565 reversed $155 $-1 #
coedge $-1 $566 $253 $250 $400 forward $248 $-1 #
edge $-1 $406 4.0399362720622243 $567 10.654184709489517 $399 $568 forward 7 unknown #
coedge $-1 $569 $570 $251 $402 forward $561 $-1 #
edge $-1 $571 -26.35154071722415 $405 -22.629997929503631 $401 $572 forward 7 unknown #
edge $-1 $406 -4.9310924948776504 $571 1.086200982436365e-014 $252 $573 forward 7 unknown #
coedge $-1 $253 $566 $569 $574 forward $248 $-1 #
vertex $-1 $402 $575 #
vertex $-1 $254 $576 #
straight-curve $-1 -51.010892832156713 11.386996762838095 4.3633255982722794 1 0 0 I I #
coedge $-1 $408 $408 $-1 $577 reversed $257 $-1 #
edge $-1 $578 0 $578 6.2831853071796004 $258 $579 forward 7 unknown #
vertex $-1 $261 $580 #
ellipse-curve $-1 -39.037993730027296 14.694120981551741 2.5025542044120193 -0.75470958851134928 0 0.65605901945558964 0.65605901945558964 0 0.75470958851134928 1 I I #
face $-1 $-1 $424 $56 $-1 $581 forward single #
loop $-1 $-1 $582 $262 #
plane-surface $-1 40.655537583544422 0 0 -1 0 0 0 0 1 forward_v I I I I #
coedge $-1 $583 $584 $585 $586 reversed $263 $-1 #
coedge $-1 $587 $265 $267 $422 forward $164 $-1 #
coedge $-1 $265 $587 $583 $588 forward $164 $-1 #
coedge $-1 $585 $268 $265 $419 forward $424 $-1 #
edge $-1 $426 0.68238184016374426 $589 6.7016737345128252 $418 $590 forward 7 unknown #
coedge $-1 $591 $592 $266 $421 forward $413 $-1 #
edge $-1 $593 -56.047932395480494 $425 -52.832992363110293 $420 $594 forward 7 unknown #
edge $-1 $426 75.70599834177672 $593 81.311075167088845 $267 $595 forward 7 unknown #
coedge $-1 $268 $585 $591 $596 forward $424 $-1 #
loop $-1 $-1 $585 $412 #
vertex $-1 $421 $597 #
vertex $-1 $269 $598 #
straight-curve $-1 10.343760944619067 -4.374409627502029 4.3633255982722829 -1 0 0 I I #
coedge $-1 $428 $428 $-1 $599 reversed $272 $-1 #
edge $-1 $600 0 $600 6.2831853071796004 $273 $601 forward 7 unknown #
vertex $-1 $276 $602 #
ellipse-curve $-1 38.359832528124933 -9.1898431429812923 2.7558555820871895 0.57357644374324357 0 0.81915203911291934 0.40957601955645967 0 -0.28678822187162178 1 I I #
coedge $-1 $432 $432 $-1 $603 reversed $279 $-1 #
edge $-1 $604 0 $604 6.2831853071796004 $280 $605 forward 7 unknown #
vertex $-1 $283 $606 #
ellipse-curve $-1 38.359832528124933 -7.3840555746765677 2.7558555820871895 0.57357644374324357 0 0.81915203911291934 0.40957601955645967 0 -0.28678822187162178 1 I I #
coedge $-1 $436 $436 $-1 $607 reversed $286 $-1 #
edge $-1 $608 0 $608 6.2831853071796004 $287 $609 forward 7 unknown #
vertex $-1 $290 $610 #
ellipse-curve $-1 38.359832528124933 -5.5782680063718431 2.7558555820871895 0.57357644374324357 0 0.81915203911291934 0.40957601955645967 0 -0.28678822187162178 1 I I #
face $-1 $-1 $452 $60 $-1 $611 forward single #
loop $-1 $-1 $612 $291 #
plane-surface $-1 40.655537583544422 0 0 -1 0 0 0 0 1 forward_v I I I I #
coedge $-1 $613 $614 $615 $616 reversed $292 $-1 #
coedge $-1 $617 $294 $296 $450 forward $183 $-1 #
coedge $-1 $294 $617 $613 $618 forward $183 $-1 #
coedge $-1 $615 $297 $294 $447 forward $452 $-1 #
edge $-1 $454 -7.2807781043589941 $619 -1.2614862100099131 $446 $620 forward 7 unknown #
coedge $-1 $621 $622 $295 $449 forward $441 $-1 #
edge $-1 $623 -56.047932395480494 $453 -52.832992363110293 $448 $624 forward 7 unknown #
edge $-1 $454 75.70599834177672 $623 81.311075167088845 $296 $625 forward 7 unknown #
coedge $-1 $297 $615 $621 $626 forward $452 $-1 #
loop $-1 $-1 $615 $440 #
vertex $-1 $449 $627 #
vertex $-1 $298 $628 #
straight-curve $-1 10.343760944619067 11.551910261543448 4.3633255982722829 -1 0 0 I I #
coedge $-1 $456 $456 $-1 $629 reversed $301 $-1 #
edge $-1 $630 0 $630 6.2831853071796004 $302 $631 forward 7 unknown #
vertex $-1 $305 $632 #
ellipse-curve $-1 38.359832528124933 6.7364767460641843 2.7558555820871895 0.57357644374324357 0 0.81915203911291934 0.40957601955645967 0 -0.28678822187162178 1 I I #
coedge $-1 $460 $460 $-1 $633 reversed $308 $-1 #
edge $-1 $634 0 $634 6.2831853071796004 $309 $635 forward 7 unknown #
vertex $-1 $312 $636 #
ellipse-curve $-1 38.359832528124933 8.5422643143689072 2.7558555820871895 0.57357644374324357 0 0.81915203911291934 0.40957601955645967 0 -0.28678822187162178 1 I I #
coedge $-1 $464 $464 $-1 $637 reversed $315 $-1 #
edge $-1 $638 0 $638 6.2831853071796004 $316 $639 forward 7 unknown #
vertex $-1 $319 $640 #
ellipse-curve $-1 38.359832528124933 10.348051882673634 2.7558555820871895 0.57357644374324357 0 0.81915203911291934 0.40957601955645967 0 -0.28678822187162178 1 I I #
face $-1 $-1 $335 $48 $-1 $641 reversed single #
loop $-1 $-1 $484 $320 #
plane-surface $-1 0 18.001245200265387 0 0 -1 0 0 0 -1 forward_v I I I I #
coedge $-1 $642 $482 $485 $643 forward $321 $-1 #
coedge $-1 $488 $323 $324 $476 reversed $202 $-1 #
coedge $-1 $482 $642 $323 $474 reversed $321 $-1 #
edge $-1 $489 -4.3633255982722812 $644 4.3633255982722812 $473 $645 forward 7 unknown #
coedge $-1 $325 $324 $642 $646 forward $129 $-1 #
edge $-1 $480 -40.655537583544422 $644 40.655537583544422 $472 $647 forward 7 unknown #
coedge $-1 $485 $484 $325 $478 reversed $469 $-1 #
edge $-1 $648 -40.655537583544422 $479 40.655537583544422 $477 $649 forward 7 unknown #
vertex $-1 $327 $650 #
vertex $-1 $491 $651 #
straight-curve $-1 40.655537583544422 0 -4.3633255982722812 0 -1 0 I I #
coedge $-1 $471 $473 $328 $483 reversed $321 $-1 #
edge $-1 $486 -18.001245200265387 $489 18.001245200265387 $482 $652 forward 7 unknown #
coedge $-1 $477 $329 $334 $492 forward $469 $-1 #
coedge $-1 $329 $477 $471 $643 reversed $469 $-1 #
vertex $-1 $330 $653 #
straight-curve $-1 0 18.001245200265387 4.3633255982722812 -1 0 0 I I #
coedge $-1 $331 $472 $333 $491 reversed $202 $-1 #
vertex $-1 $483 $654 #
straight-curve $-1 0 -18.001245200265387 4.3633255982722812 1 0 0 I I #
edge $-1 $336 -4.3633255982722812 $480 4.3633255982722812 $333 $655 forward 7 unknown #
edge $-1 $337 -4.3633255982722812 $479 4.3633255982722812 $334 $656 forward 7 unknown #
point $-1 40.655537583544422 -18.001245200265387 4.3633255982722812 #
point $-1 40.655537583544422 18.001245200265387 4.3633255982722812 #
face $-1 $-1 $352 $49 $-1 $657 reversed single #
loop $-1 $-1 $502 $339 #
plane-surface $-1 0 0 4.3633255982722812 0 0 1 1 0 0 forward_v I I I I #
coedge $-1 $658 $342 $347 $507 forward $210 $-1 #
coedge $-1 $342 $658 $659 $660 reversed $210 $-1 #
coedge $-1 $344 $343 $342 $501 reversed $133 $-1 #
edge $-1 $661 -2.9316627991361406 $512 0.068337200863859415 $342 $662 forward 7 unknown #
coedge $-1 $659 $663 $344 $503 forward $496 $-1 #
edge $-1 $505 -40.655537583544422 $661 40.655537583544422 $502 $664 forward 7 unknown #
coedge $-1 $351 $345 $663 $665 reversed $352 $-1 #
vertex $-1 $346 $666 #
straight-curve $-1 40.655537583544422 -13.851394577825566 1.4316627991361406 0 0 1 I I #
edge $-1 $512 5.8882346333028277 $510 10.038085255742649 $498 $667 forward 7 unknown #
coedge $-1 $668 $348 $351 $514 reversed $340 $-1 #
coedge $-1 $348 $668 $658 $669 forward $340 $-1 #
vertex $-1 $349 $670 #
straight-curve $-1 0 -18.001245200265387 1.3633255982722812 1 0 0 I I #
vertex $-1 $507 $671 #
straight-curve $-1 0 -13.851394577825566 1.3633255982722812 1 0 0 I I #
edge $-1 $672 -4.3633255982722812 $353 -1.3633255982722812 $351 $673 forward 7 unknown #
point $-1 40.655537583544422 -18.001245200265387 1.3633255982722812 #
point $-1 40.655537583544422 -13.851394577825566 1.3633255982722812 #
loop $-1 $-1 $364 $356 #
plane-surface $-1 0 -13.851394577825566 2.8633255982722812 0 -1 0 0 0 -1 forward_v I I I I #
coedge $-1 $524 $674 $360 $520 forward $357 $-1 #
edge $-1 $522 22.629997929503631 $530 26.35154071722415 $519 $675 forward 7 unknown #
coedge $-1 $367 $361 $674 $676 forward $218 $-1 #
vertex $-1 $676 $677 #
straight-curve $-1 -51.010892832156713 -7.2371461403982735 4.3633255982722794 -1 0 0 I I #
coedge $-1 $678 $519 $363 $525 forward $357 $-1 #
edge $-1 $530 1.9650109608423136 $528 8.5792593982696062 $524 $679 forward 7 unknown #
coedge $-1 $527 $364 $367 $532 reversed $517 $-1 #
coedge $-1 $364 $526 $678 $680 reversed $517 $-1 #
vertex $-1 $680 $681 #
straight-curve $-1 -31.356212031600222 -13.851394577825566 11.339433406933765 0.65605901945558975 0 0.75470958851134939 I I #
vertex $-1 $525 $682 #
straight-curve $-1 -40.655537583544415 -7.2371461403982735 0.64178281055176711 0.65605901945558964 0 0.75470958851134928 I I #
edge $-1 $683 -40.655537583544422 $368 -37.420449876510169 $367 $684 forward 7 unknown #
point $-1 -37.420449876510169 -13.851394577825566 4.3633255982722812 #
point $-1 -37.420449876510169 -7.2371461403982735 4.3633255982722812 #
edge $-1 $685 1 $685 0 $371 $-1 forward 7 unknown #
vertex $-1 $372 $686 #
ellipse-curve $-1 -36.955292847079512 -10.54427035911192 0.69208999422335338 -0.75470958851134928 0 0.65605901945558964 0.65605901945558964 0 0.75470958851134928 1 I I #
point $-1 -38.381934710571713 -10.54427035911192 3.257263792923375 #
loop $-1 $-1 $383 $375 #
plane-surface $-1 -40.655537583544422 0 0 1 0 0 0 0 -1 forward_v I I I I #
coedge $-1 $542 $378 $380 $546 reversed $233 $-1 #
coedge $-1 $378 $541 $687 $688 reversed $233 $-1 #
coedge $-1 $386 $381 $378 $544 forward $376 $-1 #
edge $-1 $547 -13.590442955646544 $689 -10.355355248612291 $543 $690 forward 7 unknown #
coedge $-1 $380 $379 $550 $691 reversed $146 $-1 #
edge $-1 $692 -1.086200982436365e-014 $547 4.9310924948776504 $541 $693 forward 7 unknown #
vertex $-1 $382 $694 #
straight-curve $-1 -37.420449876510162 1.0374626556099553 4.3633255982722812 0 1 0 I I #
coedge $-1 $687 $383 $386 $554 reversed $539 $-1 #
coedge $-1 $383 $687 $545 $691 forward $539 $-1 #
vertex $-1 $384 $695 #
straight-curve $-1 -40.655537583544422 -1.2321989074937361 26.99332352777591 0 0 1 I I #
straight-curve $-1 -40.655537583544415 -1.2321989074937361 0.64178281055176711 -0.65605901945558964 0 -0.75470958851134928 I I #
edge $-1 $689 -5.3820495299335569 $387 1.2321989074937361 $549 $696 forward 7 unknown #
point $-1 -40.655537583544422 -1.2321989074937361 4.3633255982722812 #
point $-1 -37.420449876510169 -1.2321989074937361 4.3633255982722812 #
edge $-1 $697 1 $697 0 $390 $-1 forward 7 unknown #
vertex $-1 $391 $698 #
ellipse-curve $-1 -36.955292847079512 2.0749253112199106 0.69208999422335338 -0.75470958851134928 0 0.65605901945558964 0.65605901945558964 0 0.75470958851134928 1 I I #
point $-1 -38.381934710571713 2.0749253112199106 3.257263792923375 #
loop $-1 $-1 $401 $394 #
plane-surface $-1 -40.655537583544422 0 0 1 0 0 0 0 -1 forward_v I I I I #
coedge $-1 $699 $700 $398 $565 forward $395 $-1 #
coedge $-1 $398 $397 $570 $701 reversed $155 $-1 #
edge $-1 $567 8.1629437459397725 $702 13.094036240817433 $563 $703 forward 7 unknown #
coedge $-1 $404 $399 $700 $704 forward $248 $-1 #
vertex $-1 $704 $705 #
straight-curve $-1 -37.420449876510162 7.3470604907758705 4.3633255982722812 0 1 0 I I #
coedge $-1 $706 $401 $404 $574 reversed $561 $-1 #
coedge $-1 $401 $706 $564 $701 forward $561 $-1 #
vertex $-1 $402 $707 #
straight-curve $-1 -40.655537583544422 11.386996762838095 26.99332352777591 0 0 1 I I #
straight-curve $-1 -40.655537583544415 11.386996762838095 0.64178281055176711 -0.65605901945558964 0 -0.75470958851134928 I I #
edge $-1 $708 -18.001245200265387 $405 -11.386996762838095 $569 $709 forward 7 unknown #
point $-1 -40.655537583544422 11.386996762838095 4.3633255982722812 #
point $-1 -37.420449876510169 11.386996762838095 4.3633255982722812 #
edge $-1 $710 1 $710 0 $408 $-1 forward 7 unknown #
vertex $-1 $409 $711 #
ellipse-curve $-1 -36.955292847079512 14.694120981551741 0.69208999422335338 -0.75470958851134928 0 0.65605901945558964 0.65605901945558964 0 0.75470958851134928 1 I I #
point $-1 -38.381934710571713 14.694120981551741 3.257263792923375 #
plane-surface $-1 0 0 4.3633255982722812 0 0 1 1 0 0 forward_v I I I I #
coedge $-1 $592 $591 $584 $712 forward $413 $-1 #
coedge $-1 $584 $415 $417 $588 reversed $263 $-1 #
coedge $-1 $415 $583 $582 $712 reversed $263 $-1 #
coedge $-1 $423 $418 $415 $586 forward $424 $-1 #
edge $-1 $589 25.72036652808637 $713 30.311776638925355 $585 $714 forward 7 unknown #
coedge $-1 $417 $416 $592 $715 reversed $164 $-1 #
edge $-1 $716 -81.311075167088845 $589 -75.70599834177672 $583 $717 forward 7 unknown #
vertex $-1 $419 $718 #
straight-curve $-1 36.064127472705437 -3.6920277873382847 4.3633255982722865 0 -1 0 I I #
coedge $-1 $582 $420 $423 $596 reversed $413 $-1 #
coedge $-1 $420 $582 $587 $715 forward $413 $-1 #
vertex $-1 $421 $719 #
straight-curve $-1 40.655537583544422 -4.374409627502029 57.196317961382576 0 0 1 I I #
straight-curve $-1 -25.950595442040253 -4.374409627502029 47.786502897180469 0.81915203911291934 0 -0.57357644374324357 I I #
edge $-1 $713 -10.39370152185111 $425 -4.374409627502029 $591 $720 forward 7 unknown #
point $-1 40.655537583544422 -4.374409627502029 4.3633255982722812 #
point $-1 36.064127472705437 -4.374409627502029 4.3633255982722829 #
edge $-1 $721 1 $721 0 $428 $-1 forward 7 unknown #
vertex $-1 $429 $722 #
ellipse-curve $-1 37.54674805216888 -9.1898431429812923 1.5946506307405359 0.57357644374324357 0 0.81915203911291934 0.40957601955645967 0 -0.28678822187162178 1 I I #
point $-1 38.769408547681387 -9.1898431429812923 2.4690673602155608 #
edge $-1 $723 1 $723 0 $432 $-1 forward 7 unknown #
vertex $-1 $433 $724 #
ellipse-curve $-1 37.54674805216888 -7.3840555746765677 1.5946506307405359 0.57357644374324357 0 0.81915203911291934 0.40957601955645967 0 -0.28678822187162178 1 I I #
point $-1 38.769408547681387 -7.3840555746765677 2.4690673602155608 #
edge $-1 $725 1 $725 0 $436 $-1 forward 7 unknown #
vertex $-1 $437 $726 #
ellipse-curve $-1 37.54674805216888 -5.5782680063718431 1.5946506307405359 0.57357644374324357 0 0.81915203911291934 0.40957601955645967 0 -0.28678822187162178 1 I I #
point $-1 38.769408547681387 -5.5782680063718431 2.4690673602155608 #
plane-surface $-1 0 0 4.3633255982722812 0 0 1 1 0 0 forward_v I I I I #
coedge $-1 $622 $621 $614 $727 forward $441 $-1 #
coedge $-1 $614 $443 $445 $618 reversed $292 $-1 #
coedge $-1 $443 $613 $612 $727 reversed $292 $-1 #
coedge $-1 $451 $446 $443 $616 forward $452 $-1 #
edge $-1 $619 25.72036652808637 $728 30.311776638925355 $615 $729 forward 7 unknown #
coedge $-1 $445 $444 $622 $730 reversed $183 $-1 #
edge $-1 $731 -81.311075167088845 $619 -75.70599834177672 $613 $732 forward 7 unknown #
vertex $-1 $447 $733 #
straight-curve $-1 36.064127472705437 4.2711321571844536 4.3633255982722865 0 -1 0 I I #
coedge $-1 $612 $448 $451 $626 reversed $441 $-1 #
coedge $-1 $448 $612 $617 $730 forward $441 $-1 #
vertex $-1 $449 $734 #
straight-curve $-1 40.655537583544422 11.551910261543448 57.196317961382576 0 0 1 I I #
straight-curve $-1 -25.950595442040253 11.551910261543448 47.786502897180469 0.81915203911291934 0 -0.57357644374324357 I I #
edge $-1 $728 5.5326183671943667 $453 11.551910261543448 $621 $735 forward 7 unknown #
point $-1 40.655537583544422 11.551910261543448 4.3633255982722812 #
point $-1 36.064127472705437 11.551910261543448 4.3633255982722829 #
edge $-1 $736 1 $736 0 $456 $-1 forward 7 unknown #
vertex $-1 $457 $737 #
ellipse-curve $-1 37.54674805216888 6.7364767460641843 1.5946506307405359 0.57357644374324357 0 0.81915203911291934 0.40957601955645967 0 -0.28678822187162178 1 I I #
point $-1 38.769408547681387 6.7364767460641843 2.4690673602155608 #
edge $-1 $738 1 $738 0 $460 $-1 forward 7 unknown #
vertex $-1 $461 $739 #
ellipse-curve $-1 37.54674805216888 8.5422643143689072 1.5946506307405359 0.57357644374324357 0 0.81915203911291934 0.40957601955645967 0 -0.28678822187162178 1 I I #
point $-1 38.769408547681387 8.5422643143689072 2.4690673602155608 #
edge $-1 $740 1 $740 0 $464 $-1 forward 7 unknown #
vertex $-1 $465 $741 #
ellipse-curve $-1 37.54674805216888 10.348051882673634 1.5946506307405359 0.57357644374324357 0 0.81915203911291934 0.40957601955645967 0 -0.28678822187162178 1 I I #
point $-1 38.769408547681387 10.348051882673634 2.4690673602155608 #
plane-surface $-1 40.655537583544422 0 0 -1 0 0 0 0 1 forward_v I I I I #
coedge $-1 $473 $471 $475 $646 reversed $321 $-1 #
edge $-1 $486 -4.3633255982722812 $648 4.3633255982722812 $485 $742 forward 7 unknown #
vertex $-1 $646 $743 #
straight-curve $-1 -40.655537583544422 -18.001245200265387 0 0 0 -1 I I #
edge $-1 $644 -18.001245200265387 $648 18.001245200265387 $642 $744 forward 7 unknown #
straight-curve $-1 0 -18.001245200265387 -4.3633255982722812 -1 0 0 I I #
vertex $-1 $478 $745 #
straight-curve $-1 0 18.001245200265387 -4.3633255982722812 1 0 0 I I #
point $-1 40.655537583544422 18.001245200265387 -4.3633255982722812 #
point $-1 40.655537583544422 -18.001245200265387 -4.3633255982722812 #
straight-curve $-1 -40.655537583544422 0 4.3633255982722812 0 -1 0 I I #
point $-1 -40.655537583544422 18.001245200265387 4.3633255982722812 #
point $-1 -40.655537583544422 -18.001245200265387 4.3633255982722812 #
straight-curve $-1 40.655537583544422 -18.001245200265387 0 0 0 -1 I I #
straight-curve $-1 40.655537583544422 18.001245200265387 0 0 0 -1 I I #
plane-surface $-1 40.655537583544422 0 0 -1 0 0 0 0 1 forward_v I I I I #
coedge $-1 $499 $498 $509 $669 reversed $210 $-1 #
coedge $-1 $746 $502 $499 $660 forward $496 $-1 #
edge $-1 $661 13.851394577825566 $747 18.001245200265387 $499 $748 forward 7 unknown #
vertex $-1 $660 $749 #
straight-curve $-1 -40.655537583544422 -13.851394577825566 1.4316627991361406 0 0 -1 I I #
coedge $-1 $502 $746 $504 $665 forward $496 $-1 #
straight-curve $-1 0 -13.851394577825566 4.3633255982722812 -1 0 0 I I #
edge $-1 $672 -18.001245200265387 $505 -13.851394577825566 $504 $750 forward 7 unknown #
point $-1 40.655537583544422 -13.851394577825566 4.3633255982722812 #
straight-curve $-1 -40.655537583544422 -7.9631599445227383 1.3633255982722812 0 -1 0 I I #
coedge $-1 $509 $508 $746 $751 reversed $340 $-1 #
edge $-1 $747 -4.3633255982722812 $510 -1.3633255982722812 $658 $752 forward 7 unknown #
point $-1 -40.655537583544422 -18.001245200265387 1.3633255982722812 #
point $-1 -40.655537583544422 -13.851394577825566 1.3633255982722812 #
vertex $-1 $665 $753 #
straight-curve $-1 40.655537583544422 -18.001245200265387 0 0 0 -1 I I #
coedge $-1 $519 $678 $521 $676 reversed $357 $-1 #
straight-curve $-1 -40.655537583544422 -7.2371461403982735 26.99332352777591 0 0 -1 I I #
edge $-1 $522 7.2371461403982735 $683 13.851394577825566 $674 $754 forward 7 unknown #
point $-1 -40.655537583544422 -7.2371461403982735 4.3633255982722812 #
coedge $-1 $674 $524 $527 $680 forward $357 $-1 #
straight-curve $-1 -40.655537583544422 -5.2721351795559599 0.64178281055175168 0 -1 0 I I #
edge $-1 $528 -26.35154071722415 $683 -22.629997929503631 $678 $755 forward 7 unknown #
point $-1 -40.655537583544422 -13.851394577825566 0.6417828105517589 #
point $-1 -40.655537583544422 -7.2371461403982735 0.6417828105517589 #
vertex $-1 $680 $756 #
straight-curve $-1 0 -13.851394577825566 4.3633255982722812 1 0 0 I I #
vertex $-1 $535 $757 #
point $-1 -36.299233827623922 -10.54427035911192 1.4467995827347027 #
coedge $-1 $550 $549 $542 $688 forward $539 $-1 #
edge $-1 $689 22.629997929503631 $692 26.35154071722415 $687 $758 forward 7 unknown #
vertex $-1 $554 $759 #
straight-curve $-1 -51.010892832156713 5.3820495299335569 4.3633255982722794 -1 0 0 I I #
edge $-1 $692 -4.3445868743236016 $551 2.2696615631036914 $550 $760 forward 7 unknown #
vertex $-1 $691 $761 #
straight-curve $-1 -40.655537583544415 5.3820495299335569 0.64178281055176711 0.65605901945558964 0 0.75470958851134928 I I #
point $-1 -37.420449876510169 5.3820495299335569 4.3633255982722812 #
point $-1 -40.655537583544422 -1.2321989074937361 0.6417828105517589 #
straight-curve $-1 -40.655537583544422 0 4.3633255982722812 0 -1 0 I I #
vertex $-1 $557 $762 #
point $-1 -36.299233827623922 2.0749253112199106 1.4467995827347027 #
coedge $-1 $700 $563 $706 $763 reversed $395 $-1 #
coedge $-1 $563 $699 $566 $704 reversed $395 $-1 #
edge $-1 $702 -10.654184709489517 $571 -4.0399362720622243 $570 $764 forward 7 unknown #
vertex $-1 $565 $765 #
straight-curve $-1 -32.065077006677782 18.001245200265387 10.523977513811777 -0.65605901945558975 0 -0.75470958851134939 I I #
edge $-1 $567 37.420449876510169 $708 40.655537583544422 $700 $766 forward 7 unknown #
point $-1 -37.420449876510169 18.001245200265387 4.3633255982722812 #
coedge $-1 $570 $569 $699 $763 forward $561 $-1 #
point $-1 -40.655537583544422 11.386996762838095 0.6417828105517589 #
vertex $-1 $704 $767 #
straight-curve $-1 -40.655537583544422 0 4.3633255982722812 0 -1 0 I I #
vertex $-1 $577 $768 #
point $-1 -36.299233827623922 14.694120981551741 1.4467995827347027 #
edge $-1 $713 52.832992363110293 $716 56.047932395480494 $582 $769 forward 7 unknown #
vertex $-1 $596 $770 #
straight-curve $-1 10.343760944619067 -10.39370152185111 4.3633255982722829 1 0 0 I I #
edge $-1 $716 -6.7016737345128252 $593 -0.68238184016374426 $592 $771 forward 7 unknown #
vertex $-1 $715 $772 #
straight-curve $-1 -25.950595442040253 -10.39370152185111 47.786502897180469 -0.81915203911291934 0 0.57357644374324357 I I #
point $-1 36.064127472705437 -10.39370152185111 4.3633255982722829 #
point $-1 40.655537583544429 -4.374409627502029 1.1483855659020819 #
straight-curve $-1 40.655537583544422 0 4.3633255982722812 0 1 0 I I #
vertex $-1 $599 $773 #
point $-1 37.956324071725341 -9.1898431429812923 1.3078624088689144 #
vertex $-1 $603 $774 #
point $-1 37.956324071725341 -7.3840555746765677 1.3078624088689144 #
vertex $-1 $607 $775 #
point $-1 37.956324071725341 -5.5782680063718431 1.3078624088689144 #
edge $-1 $728 52.832992363110293 $731 56.047932395480494 $612 $776 forward 7 unknown #
vertex $-1 $626 $777 #
straight-curve $-1 10.343760944619067 5.5326183671943667 4.3633255982722829 1 0 0 I I #
edge $-1 $731 1.2614862100099131 $623 7.2807781043589941 $622 $778 forward 7 unknown #
vertex $-1 $730 $779 #
straight-curve $-1 -25.950595442040253 5.5326183671943667 47.786502897180469 -0.81915203911291934 0 0.57357644374324357 I I #
point $-1 36.064127472705437 5.5326183671943667 4.3633255982722829 #
point $-1 40.655537583544429 11.551910261543448 1.1483855659020819 #
straight-curve $-1 40.655537583544422 0 4.3633255982722812 0 1 0 I I #
vertex $-1 $629 $780 #
point $-1 37.956324071725341 6.7364767460641843 1.3078624088689144 #
vertex $-1 $633 $781 #
point $-1 37.956324071725341 8.5422643143689072 1.3078624088689144 #
vertex $-1 $637 $782 #
point $-1 37.956324071725341 10.348051882673634 1.3078624088689144 #
straight-curve $-1 -40.655537583544422 18.001245200265387 0 0 0 -1 I I #
point $-1 -40.655537583544422 -18.001245200265387 -4.3633255982722812 #
straight-curve $-1 -40.655537583544422 0 -4.3633255982722812 0 1 0 I I #
point $-1 -40.655537583544422 18.001245200265387 -4.3633255982722812 #
coedge $-1 $663 $659 $668 $751 forward $496 $-1 #
vertex $-1 $660 $783 #
straight-curve $-1 -40.655537583544422 0 4.3633255982722812 0 -1 0 I I #
point $-1 -40.655537583544422 -13.851394577825566 4.3633255982722812 #
straight-curve $-1 40.655537583544422 0 4.3633255982722812 0 1 0 I I #
edge $-1 $747 -40.655537583544422 $672 40.655537583544422 $668 $784 forward 7 unknown #
straight-curve $-1 -40.655537583544422 -18.001245200265387 0 0 0 -1 I I #
point $-1 40.655537583544422 -18.001245200265387 4.3633255982722812 #
straight-curve $-1 -40.655537583544422 0 4.3633255982722812 0 -1 0 I I #
straight-curve $-1 -40.655537583544422 -13.851394577825566 26.99332352777591 0 0 1 I I #
point $-1 -40.655537583544422 -13.851394577825566 4.3633255982722812 #
point $-1 -36.200583258568166 -10.54427035911192 0.03603097476776379 #
straight-curve $-1 -40.655537583544422 5.3820495299335569 26.99332352777591 0 0 -1 I I #
point $-1 -40.655537583544422 5.3820495299335569 4.3633255982722812 #
straight-curve $-1 -40.655537583544422 1.0374626556099553 0.64178281055175168 0 -1 0 I I #
point $-1 -40.655537583544422 5.3820495299335569 0.6417828105517589 #
point $-1 -36.200583258568166 2.0749253112199106 0.03603097476776379 #
edge $-1 $708 -4.3633255982722812 $702 -0.6417828105517589 $699 $785 forward 7 unknown #
straight-curve $-1 -40.655537583544422 7.3470604907758705 0.64178281055175168 0 -1 0 I I #
point $-1 -40.655537583544422 18.001245200265387 0.6417828105517589 #
straight-curve $-1 0 18.001245200265387 4.3633255982722812 -1 0 0 I I #
point $-1 -40.655537583544422 18.001245200265387 4.3633255982722812 #
point $-1 -36.200583258568166 14.694120981551741 0.03603097476776379 #
straight-curve $-1 40.655537583544422 -10.39370152185111 57.196317961382576 0 0 -1 I I #
point $-1 40.655537583544422 -10.39370152185111 4.3633255982722812 #
straight-curve $-1 40.655537583544429 -3.6920277873382847 1.1483855659020854 0 1 0 I I #
point $-1 40.655537583544429 -10.39370152185111 1.1483855659020819 #
point $-1 37.259959830297262 -9.1898431429812923 1.1850746111840769 #
point $-1 37.259959830297262 -7.3840555746765677 1.1850746111840769 #
point $-1 37.259959830297262 -5.5782680063718431 1.1850746111840769 #
straight-curve $-1 40.655537583544422 5.5326183671943667 57.196317961382576 0 0 -1 I I #
point $-1 40.655537583544422 5.5326183671943667 4.3633255982722812 #
straight-curve $-1 40.655537583544429 4.2711321571844536 1.1483855659020854 0 1 0 I I #
point $-1 40.655537583544429 5.5326183671943667 1.1483855659020819 #
point $-1 37.259959830297262 6.7364767460641843 1.1850746111840769 #
point $-1 37.259959830297262 8.5422643143689072 1.1850746111840769 #
point $-1 37.259959830297262 10.348051882673634 1.1850746111840769 #
point $-1 -40.655537583544422 -18.001245200265387 4.3633255982722812 #
straight-curve $-1 0 -18.001245200265387 4.3633255982722812 1 0 0 I I #
straight-curve $-1 -40.655537583544422 18.001245200265387 0 0 0 -1 I I #
End-of-ACIS-data 