500 0 14 0           
7 Unknown 11 ACIS 5.0 NT 24 Thu Mar 25 19:28:48 1999 
-1 9.9999999999999995e-007 1e-010 
body $-1 $14 $-1 $15 #
body $-1 $16 $-1 $17 #
body $-1 $18 $-1 $19 #
body $-1 $20 $-1 $21 #
body $-1 $22 $-1 $23 #
body $-1 $24 $-1 $25 #
body $-1 $26 $-1 $27 #
body $-1 $28 $-1 $29 #
body $-1 $30 $-1 $31 #
body $-1 $32 $-1 $33 #
body $-1 $34 $-1 $35 #
body $-1 $36 $-1 $37 #
body $-1 $38 $-1 $39 #
body $-1 $40 $-1 $41 #
lump $-1 $-1 $42 $0 #
transform $-1 1 0 0 0 1 0 0 0 1 51.908322397534107 26.022913943664452 8.7960260528717917 1 rotate no_reflect no_shear #
lump $-1 $-1 $43 $1 #
transform $-1 1 0 0 0 1 0 0 0 1 51.908322397534107 26.022913943664452 8.7960260528717917 1 rotate no_reflect no_shear #
lump $-1 $-1 $44 $2 #
transform $-1 1 0 0 0 1 0 0 0 1 51.908322397534107 26.022913943664452 8.7960260528717917 1 rotate no_reflect no_shear #
lump $-1 $-1 $45 $3 #
transform $-1 1 0 0 0 1 0 0 0 1 51.908322397534107 26.022913943664452 8.7960260528717917 1 rotate no_reflect no_shear #
lump $-1 $-1 $46 $4 #
transform $-1 1 0 0 0 1 0 0 0 1 51.908322397534107 26.022913943664452 8.7960260528717917 1 rotate no_reflect no_shear #
lump $-1 $-1 $47 $5 #
transform $-1 1 0 0 0 1 0 0 0 1 51.908322397534107 26.022913943664452 8.7960260528717917 1 rotate no_reflect no_shear #
lump $-1 $-1 $48 $6 #
transform $-1 1 0 0 0 1 0 0 0 1 51.908322397534107 26.022913943664452 8.7960260528717917 1 rotate no_reflect no_shear #
lump $-1 $-1 $49 $7 #
transform $-1 1 0 0 0 1 0 0 0 1 51.908322397534107 26.022913943664452 8.7960260528717917 1 rotate no_reflect no_shear #
lump $-1 $-1 $50 $8 #
transform $-1 1 0 0 0 1 0 0 0 1 51.908322397534107 26.022913943664452 8.7960260528717917 1 rotate no_reflect no_shear #
lump $-1 $-1 $51 $9 #
transform $-1 1 0 0 0 1 0 0 0 1 51.908322397534107 26.022913943664452 8.7960260528717917 1 rotate no_reflect no_shear #
lump $-1 $-1 $52 $10 #
transform $-1 1 0 0 0 1 0 0 0 1 51.908322397534107 26.022913943664452 8.7960260528717917 1 rotate no_reflect no_shear #
lump $-1 $-1 $53 $11 #
transform $-1 1 0 0 0 1 0 0 0 1 51.908322397534107 26.022913943664452 8.7960260528717917 1 rotate no_reflect no_shear #
lump $-1 $-1 $54 $12 #
transform $-1 1 0 0 0 1 0 0 0 1 51.908322397534107 26.022913943664452 8.7960260528717917 1 rotate no_reflect no_shear #
lump $-1 $-1 $55 $13 #
transform $-1 1 0 0 0 1 0 0 0 1 51.908322397534107 26.022913943664452 8.7960260528717917 1 rotate no_reflect no_shear #
shell $-1 $-1 $-1 $56 $-1 $14 #
shell $-1 $-1 $-1 $57 $-1 $16 #
shell $-1 $-1 $-1 $58 $-1 $18 #
shell $-1 $-1 $-1 $59 $-1 $20 #
shell $-1 $-1 $-1 $60 $-1 $22 #
shell $-1 $-1 $-1 $61 $-1 $24 #
shell $-1 $-1 $-1 $62 $-1 $26 #
shell $-1 $-1 $-1 $63 $-1 $28 #
shell $-1 $-1 $-1 $64 $-1 $30 #
shell $-1 $-1 $-1 $65 $-1 $32 #
shell $-1 $-1 $-1 $66 $-1 $34 #
shell $-1 $-1 $-1 $67 $-1 $36 #
shell $-1 $-1 $-1 $68 $-1 $38 #
shell $-1 $-1 $-1 $69 $-1 $40 #
face $-1 $70 $71 $42 $-1 $72 forward single #
face $-1 $73 $74 $43 $-1 $75 forward single #
face $-1 $76 $77 $44 $-1 $78 reversed single #
face $-1 $79 $80 $45 $-1 $81 forward single #
face $-1 $82 $83 $46 $-1 $84 forward single #
face $-1 $85 $86 $47 $-1 $87 forward single #
face $-1 $88 $89 $48 $-1 $90 reversed single #
face $-1 $91 $92 $49 $-1 $93 forward single #
face $-1 $94 $95 $50 $-1 $96 forward single #
face $-1 $97 $98 $51 $-1 $99 forward single #
face $-1 $100 $101 $52 $-1 $102 reversed single #
face $-1 $103 $104 $53 $-1 $105 forward single #
face $-1 $106 $107 $54 $-1 $108 forward single #
face $-1 $109 $110 $55 $-1 $111 forward single #
face $-1 $112 $113 $42 $-1 $114 reversed single #
loop $-1 $-1 $115 $56 #
plane-surface $-1 0 0 8.7960260528717917 0 0 1 1 0 0 forward_v I I I I #
face $-1 $116 $117 $43 $-1 $118 reversed single #
loop $-1 $-1 $119 $57 #
plane-surface $-1 0 -22.692622030079185 -5.7960260528717917 0 0 1 1 0 0 forward_v I I I I #
face $-1 $120 $121 $44 $-1 $122 reversed single #
loop $-1 $-1 $123 $58 #
plane-surface $-1 -139.94983118804757 -16.40675612974988 59.537592558203073 0 1 0 -0.84804810408105047 0 0.52991925155115449 forward_v I I I I #
face $-1 $124 $125 $45 $-1 $126 forward single #
loop $-1 $127 $128 $59 #
cone-surface $-1 -50.111712556914348 -14.460520952334033 6.3711399934553334 0.84804810408105047 0 -0.52991925155115449 0.26495962577557725 0 0.42402405204052523 1 I I 0 1 0.5 forward I I I I #
face $-1 $129 $130 $46 $-1 $131 forward single #
loop $-1 $132 $133 $60 #
cone-surface $-1 -50.111712556914348 -11.54116818621026 6.3711399934553334 0.84804810408105047 0 -0.52991925155115449 0.26495962577557725 0 0.42402405204052523 1 I I 0 1 0.5 forward I I I I #
face $-1 $134 $135 $47 $-1 $136 forward single #
loop $-1 $137 $138 $61 #
cone-surface $-1 -50.111712556914348 -8.621815420086488 6.3711399934553334 0.84804810408105047 0 -0.52991925155115449 0.26495962577557725 0 0.42402405204052523 1 I I 0 1 0.5 forward I I I I #
face $-1 $139 $140 $48 $-1 $141 reversed single #
loop $-1 $-1 $142 $62 #
plane-surface $-1 -139.94983118804757 13.336164069841184 59.537592558203073 0 1 0 -0.84804810408105047 0 0.52991925155115449 forward_v I I I I #
face $-1 $143 $144 $49 $-1 $145 forward single #
loop $-1 $146 $147 $63 #
cone-surface $-1 -50.111712556914348 15.282399247257029 6.3711399934553334 0.84804810408105047 0 -0.52991925155115449 0.26495962577557725 0 0.42402405204052523 1 I I 0 1 0.5 forward I I I I #
face $-1 $148 $149 $50 $-1 $150 forward single #
loop $-1 $151 $152 $64 #
cone-surface $-1 -50.111712556914348 18.201752013380801 6.3711399934553334 0.84804810408105047 0 -0.52991925155115449 0.26495962577557725 0 0.42402405204052523 1 I I 0 1 0.5 forward I I I I #
face $-1 $153 $154 $51 $-1 $155 forward single #
loop $-1 $156 $157 $65 #
cone-surface $-1 -50.111712556914348 21.121104779504574 6.3711399934553334 0.84804810408105047 0 -0.52991925155115449 0.26495962577557725 0 0.42402405204052523 1 I I 0 1 0.5 forward I I I I #
face $-1 $158 $159 $52 $-1 $160 reversed single #
loop $-1 $-1 $161 $66 #
plane-surface $-1 51.908324101008077 0.34908265856948972 151.18640117220858 0 -1 0 -0.70710678939079041 0 -0.70710677298230451 forward_v I I I I #
face $-1 $162 $163 $53 $-1 $164 forward single #
loop $-1 $165 $166 $67 #
cone-surface $-1 49.315082021554012 -6.0928894985050697 6.2027856343035674 -0.70710678939079041 0 -0.70710677298230451 0.35355338649115226 0 -0.35355339469539521 1 I I 0 1 0.5 forward I I I I #
face $-1 $167 $168 $54 $-1 $169 forward single #
loop $-1 $170 $171 $68 #
cone-surface $-1 49.315082021554012 -3.6771499396021099 6.2027856343035674 -0.70710678939079041 0 -0.70710677298230451 0.35355338649115226 0 -0.35355339469539521 1 I I 0 1 0.5 forward I I I I #
face $-1 $172 $173 $55 $-1 $174 forward single #
loop $-1 $175 $176 $69 #
cone-surface $-1 49.315082021554012 -1.2614103806991501 6.2027856343035674 -0.70710678939079041 0 -0.70710677298230451 0.35355338649115226 0 -0.35355339469539521 1 I I 0 1 0.5 forward I I I I #
face $-1 $177 $178 $42 $-1 $179 reversed single #
loop $-1 $-1 $180 $70 #
plane-surface $-1 0 0 -8.7960260528717917 0 0 1 1 0 0 forward_v I I I I #
coedge $-1 $181 $182 $183 $184 forward $71 $-1 #
face $-1 $185 $186 $43 $-1 $187 reversed single #
loop $-1 $-1 $188 $73 #
plane-surface $-1 0 -19.362330116493915 -7.2960260528717917 0 -1 0 0 0 -1 forward_v I I I I #
coedge $-1 $189 $190 $191 $192 reversed $74 $-1 #
face $-1 $193 $194 $44 $-1 $195 reversed single #
loop $-1 $-1 $196 $76 #
plane-surface $-1 -51.908322397534107 -11.541168186210262 4.5231538498484696 -0.84804810408105047 0 0.52991925155115449 0.52991925155115449 0 0.84804810408105047 forward_v I I I I #
coedge $-1 $197 $198 $199 $200 reversed $77 $-1 #
face $-1 $-1 $201 $45 $-1 $202 forward single #
loop $-1 $203 $204 $79 #
cone-surface $-1 -49.438084087997588 -14.460520952334033 5.9502102226627507 0.84804810408105047 0 -0.52991925155115449 0.13247981288778862 0 0.21201202602026262 1 I I -0.70710678118654746 0.70710678118654746 0.25 forward I I I I #
loop $-1 $-1 $205 $59 #
coedge $-1 $128 $128 $206 $207 reversed $80 $-1 #
face $-1 $-1 $208 $46 $-1 $209 forward single #
loop $-1 $210 $211 $82 #
cone-surface $-1 -49.438084087997588 -11.54116818621026 5.9502102226627507 0.84804810408105047 0 -0.52991925155115449 0.13247981288778862 0 0.21201202602026262 1 I I -0.70710678118654746 0.70710678118654746 0.25 forward I I I I #
loop $-1 $-1 $212 $60 #
coedge $-1 $133 $133 $213 $214 reversed $83 $-1 #
face $-1 $-1 $215 $47 $-1 $216 forward single #
loop $-1 $217 $218 $85 #
cone-surface $-1 -49.438084087997588 -8.621815420086488 5.9502102226627507 0.84804810408105047 0 -0.52991925155115449 0.13247981288778862 0 0.21201202602026262 1 I I -0.70710678118654746 0.70710678118654746 0.25 forward I I I I #
loop $-1 $-1 $219 $61 #
coedge $-1 $138 $138 $220 $221 reversed $86 $-1 #
face $-1 $222 $223 $48 $-1 $224 reversed single #
loop $-1 $-1 $225 $88 #
plane-surface $-1 -51.908322397534107 18.201752013380801 4.5231538498484696 -0.84804810408105047 0 0.52991925155115449 0.52991925155115449 0 0.84804810408105047 forward_v I I I I #
coedge $-1 $226 $227 $228 $229 reversed $89 $-1 #
face $-1 $-1 $230 $49 $-1 $231 forward single #
loop $-1 $232 $233 $91 #
cone-surface $-1 -49.438084087997588 15.282399247257029 5.9502102226627507 0.84804810408105047 0 -0.52991925155115449 0.13247981288778862 0 0.21201202602026262 1 I I -0.70710678118654746 0.70710678118654746 0.25 forward I I I I #
loop $-1 $-1 $234 $63 #
coedge $-1 $147 $147 $235 $236 reversed $92 $-1 #
face $-1 $-1 $237 $50 $-1 $238 forward single #
loop $-1 $239 $240 $94 #
cone-surface $-1 -49.438084087997588 18.201752013380801 5.9502102226627507 0.84804810408105047 0 -0.52991925155115449 0.13247981288778862 0 0.21201202602026262 1 I I -0.70710678118654746 0.70710678118654746 0.25 forward I I I I #
loop $-1 $-1 $241 $64 #
coedge $-1 $152 $152 $242 $243 reversed $95 $-1 #
face $-1 $-1 $244 $51 $-1 $245 forward single #
loop $-1 $246 $247 $97 #
cone-surface $-1 -49.438084087997588 21.121104779504574 5.9502102226627507 0.84804810408105047 0 -0.52991925155115449 0.13247981288778862 0 0.21201202602026262 1 I I -0.70710678118654746 0.70710678118654746 0.25 forward I I I I #
loop $-1 $-1 $248 $65 #
coedge $-1 $157 $157 $249 $250 reversed $98 $-1 #
face $-1 $251 $252 $52 $-1 $253 reversed single #
loop $-1 $-1 $254 $100 #
plane-surface $-1 -21.501130285356723 -3.6771499396021099 77.776948489317732 0.70710678939079041 0 0.70710677298230451 0.70710677298230451 0 -0.70710678939079041 forward_v I I I I #
coedge $-1 $255 $256 $257 $258 reversed $101 $-1 #
face $-1 $-1 $259 $53 $-1 $260 forward single #
loop $-1 $261 $262 $103 #
cone-surface $-1 48.7593308718034 -6.0928894985050697 5.6470344974492157 -0.70710678939079041 0 -0.70710677298230451 0.17677669324557613 0 -0.1767766973476976 1 I I -0.70710678118654746 0.70710678118654746 0.25 forward I I I I #
loop $-1 $-1 $263 $67 #
coedge $-1 $166 $166 $264 $265 reversed $104 $-1 #
face $-1 $-1 $266 $54 $-1 $267 forward single #
loop $-1 $268 $269 $106 #
cone-surface $-1 48.7593308718034 -3.6771499396021099 5.6470344974492157 -0.70710678939079041 0 -0.70710677298230451 0.17677669324557613 0 -0.1767766973476976 1 I I -0.70710678118654746 0.70710678118654746 0.25 forward I I I I #
loop $-1 $-1 $270 $68 #
coedge $-1 $171 $171 $271 $272 reversed $107 $-1 #
face $-1 $-1 $273 $55 $-1 $274 forward single #
loop $-1 $275 $276 $109 #
cone-surface $-1 48.7593308718034 -1.2614103806991501 5.6470344974492157 -0.70710678939079041 0 -0.70710677298230451 0.17677669324557613 0 -0.1767766973476976 1 I I -0.70710678118654746 0.70710678118654746 0.25 forward I I I I #
loop $-1 $-1 $277 $69 #
coedge $-1 $176 $176 $278 $279 reversed $110 $-1 #
face $-1 $280 $281 $42 $-1 $282 reversed single #
loop $-1 $-1 $283 $112 #
plane-surface $-1 0 -26.022913943664452 0 0 1 0 0 0 1 forward_v I I I I #
coedge $-1 $284 $285 $286 $287 forward $113 $-1 #
coedge $-1 $288 $115 $289 $290 forward $71 $-1 #
coedge $-1 $115 $288 $291 $292 forward $71 $-1 #
coedge $-1 $293 $294 $115 $184 reversed $295 $-1 #
edge $-1 $296 -26.022913943664452 $297 26.022913943664452 $183 $298 forward 7 unknown #
face $-1 $299 $300 $43 $-1 $301 reversed single #
loop $-1 $-1 $302 $116 #
plane-surface $-1 0 0 -8.7960260528717917 0 0 1 1 0 0 forward_v I I I I #
coedge $-1 $303 $304 $305 $306 reversed $117 $-1 #
coedge $-1 $307 $119 $304 $308 forward $74 $-1 #
coedge $-1 $119 $307 $309 $310 reversed $74 $-1 #
coedge $-1 $311 $305 $119 $192 forward $300 $-1 #
edge $-1 $312 8.0160191014543223 $313 14.676602928624863 $191 $314 forward 7 unknown #
face $-1 $315 $316 $44 $-1 $317 forward single #
loop $-1 $-1 $318 $120 #
plane-surface $-1 -139.94983118804757 -6.6755802426706445 59.537592558203073 0 -1 0 0.84804810408105047 0 -0.52991925155115449 forward_v I I I I #
coedge $-1 $319 $320 $321 $322 reversed $121 $-1 #
coedge $-1 $198 $123 $323 $324 reversed $77 $-1 #
coedge $-1 $123 $197 $319 $325 reversed $77 $-1 #
coedge $-1 $321 $326 $123 $200 forward $316 $-1 #
edge $-1 $327 18.066593196489677 $328 20.736579991936189 $199 $329 forward 7 unknown #
loop $-1 $-1 $206 $124 #
plane-surface $-1 -51.908322397534107 -11.541168186210262 4.5231538498484696 -0.84804810408105047 0 0.52991925155115449 0.52991925155115449 0 0.84804810408105047 forward_v I I I I #
loop $-1 $-1 $330 $79 #
coedge $-1 $204 $204 $205 $331 reversed $125 $-1 #
coedge $-1 $205 $205 $204 $331 forward $127 $-1 #
coedge $-1 $206 $206 $128 $207 forward $201 $-1 #
edge $-1 $332 0 $332 6.2831853071796004 $206 $333 forward 7 unknown #
loop $-1 $-1 $213 $129 #
plane-surface $-1 -51.908322397534107 -11.541168186210262 4.5231538498484696 -0.84804810408105047 0 0.52991925155115449 0.52991925155115449 0 0.84804810408105047 forward_v I I I I #
loop $-1 $-1 $334 $82 #
coedge $-1 $211 $211 $212 $335 reversed $130 $-1 #
coedge $-1 $212 $212 $211 $335 forward $132 $-1 #
coedge $-1 $213 $213 $133 $214 forward $208 $-1 #
edge $-1 $336 0 $336 6.2831853071796004 $213 $337 forward 7 unknown #
loop $-1 $-1 $220 $134 #
plane-surface $-1 -51.908322397534107 -11.541168186210262 4.5231538498484696 -0.84804810408105047 0 0.52991925155115449 0.52991925155115449 0 0.84804810408105047 forward_v I I I I #
loop $-1 $-1 $338 $85 #
coedge $-1 $218 $218 $219 $339 reversed $135 $-1 #
coedge $-1 $219 $219 $218 $339 forward $137 $-1 #
coedge $-1 $220 $220 $138 $221 forward $215 $-1 #
edge $-1 $340 0 $340 6.2831853071796004 $220 $341 forward 7 unknown #
face $-1 $342 $343 $48 $-1 $344 forward single #
loop $-1 $-1 $345 $139 #
plane-surface $-1 -139.94983118804757 23.067339956920421 59.537592558203073 0 -1 0 0.84804810408105047 0 -0.52991925155115449 forward_v I I I I #
coedge $-1 $346 $347 $348 $349 reversed $140 $-1 #
coedge $-1 $227 $142 $350 $351 reversed $89 $-1 #
coedge $-1 $142 $226 $346 $352 reversed $89 $-1 #
coedge $-1 $348 $353 $142 $229 forward $343 $-1 #
edge $-1 $354 18.066593196489677 $355 20.736579991936189 $228 $356 forward 7 unknown #
loop $-1 $-1 $235 $143 #
plane-surface $-1 -51.908322397534107 18.201752013380801 4.5231538498484696 -0.84804810408105047 0 0.52991925155115449 0.52991925155115449 0 0.84804810408105047 forward_v I I I I #
loop $-1 $-1 $357 $91 #
coedge $-1 $233 $233 $234 $358 reversed $144 $-1 #
coedge $-1 $234 $234 $233 $358 forward $146 $-1 #
coedge $-1 $235 $235 $147 $236 forward $230 $-1 #
edge $-1 $359 0 $359 6.2831853071796004 $235 $360 forward 7 unknown #
loop $-1 $-1 $242 $148 #
plane-surface $-1 -51.908322397534107 18.201752013380801 4.5231538498484696 -0.84804810408105047 0 0.52991925155115449 0.52991925155115449 0 0.84804810408105047 forward_v I I I I #
loop $-1 $-1 $361 $94 #
coedge $-1 $240 $240 $241 $362 reversed $149 $-1 #
coedge $-1 $241 $241 $240 $362 forward $151 $-1 #
coedge $-1 $242 $242 $152 $243 forward $237 $-1 #
edge $-1 $363 0 $363 6.2831853071796004 $242 $364 forward 7 unknown #
loop $-1 $-1 $249 $153 #
plane-surface $-1 -51.908322397534107 18.201752013380801 4.5231538498484696 -0.84804810408105047 0 0.52991925155115449 0.52991925155115449 0 0.84804810408105047 forward_v I I I I #
loop $-1 $-1 $365 $97 #
coedge $-1 $247 $247 $248 $366 reversed $154 $-1 #
coedge $-1 $248 $248 $247 $366 forward $156 $-1 #
coedge $-1 $249 $249 $157 $250 forward $244 $-1 #
edge $-1 $367 0 $367 6.2831853071796004 $249 $368 forward 7 unknown #
face $-1 $369 $370 $52 $-1 $371 reversed single #
loop $-1 $-1 $372 $158 #
plane-surface $-1 51.908324101008077 -7.7033825377737095 151.18640117220858 0 1 0 0.70710678939079041 0 0.70710677298230451 forward_v I I I I #
coedge $-1 $373 $374 $375 $376 reversed $159 $-1 #
coedge $-1 $256 $161 $377 $378 reversed $101 $-1 #
coedge $-1 $161 $255 $373 $379 reversed $101 $-1 #
coedge $-1 $375 $380 $161 $258 forward $381 $-1 #
edge $-1 $382 -25.954160347030069 $383 -21.525628499875765 $257 $384 forward 7 unknown #
loop $-1 $-1 $264 $162 #
plane-surface $-1 -21.501130285356723 -3.6771499396021099 77.776948489317732 0.70710678939079041 0 0.70710677298230451 0.70710677298230451 0 -0.70710678939079041 forward_v I I I I #
loop $-1 $-1 $385 $103 #
coedge $-1 $262 $262 $263 $386 reversed $163 $-1 #
coedge $-1 $263 $263 $262 $386 forward $165 $-1 #
coedge $-1 $264 $264 $166 $265 forward $259 $-1 #
edge $-1 $387 0 $387 6.2831853071796004 $264 $388 forward 7 unknown #
loop $-1 $-1 $271 $167 #
plane-surface $-1 -21.501130285356723 -3.6771499396021099 77.776948489317732 0.70710678939079041 0 0.70710677298230451 0.70710677298230451 0 -0.70710678939079041 forward_v I I I I #
loop $-1 $-1 $389 $106 #
coedge $-1 $269 $269 $270 $390 reversed $168 $-1 #
coedge $-1 $270 $270 $269 $390 forward $170 $-1 #
coedge $-1 $271 $271 $171 $272 forward $266 $-1 #
edge $-1 $391 0 $391 6.2831853071796004 $271 $392 forward 7 unknown #
loop $-1 $-1 $278 $172 #
plane-surface $-1 -21.501130285356723 -3.6771499396021099 77.776948489317732 0.70710678939079041 0 0.70710677298230451 0.70710677298230451 0 -0.70710678939079041 forward_v I I I I #
loop $-1 $-1 $393 $109 #
coedge $-1 $276 $276 $277 $394 reversed $173 $-1 #
coedge $-1 $277 $277 $276 $394 forward $175 $-1 #
coedge $-1 $278 $278 $176 $279 forward $273 $-1 #
edge $-1 $395 0 $395 6.2831853071796004 $278 $396 forward 7 unknown #
face $-1 $397 $398 $42 $-1 $399 reversed single #
loop $-1 $-1 $400 $177 #
plane-surface $-1 -51.908322397534107 0 0 1 0 0 0 0 -1 forward_v I I I I #
coedge $-1 $401 $291 $402 $403 forward $178 $-1 #
coedge $-1 $404 $180 $401 $405 forward $113 $-1 #
coedge $-1 $180 $404 $406 $407 forward $113 $-1 #
coedge $-1 $294 $293 $180 $287 reversed $295 $-1 #
edge $-1 $408 -26.022913943664452 $409 26.022913943664452 $286 $410 forward 7 unknown #
coedge $-1 $182 $181 $411 $412 forward $71 $-1 #
coedge $-1 $413 $414 $181 $290 reversed $398 $-1 #
edge $-1 $297 -51.908322397534107 $415 51.908322397534107 $289 $416 forward 7 unknown #
coedge $-1 $283 $417 $182 $292 reversed $178 $-1 #
edge $-1 $418 -51.908322397534107 $296 51.908322397534107 $291 $419 forward 7 unknown #
coedge $-1 $286 $183 $417 $420 forward $295 $-1 #
coedge $-1 $183 $286 $413 $421 reversed $295 $-1 #
loop $-1 $-1 $293 $397 #
vertex $-1 $184 $422 #
vertex $-1 $184 $423 #
straight-curve $-1 51.908322397534107 0 8.7960260528717917 0 1 0 I I #
face $-1 $424 $425 $43 $-1 $426 reversed single #
loop $-1 $-1 $305 $185 #
plane-surface $-1 51.908322397534107 0 0 -1 0 0 0 0 1 forward_v I I I I #
coedge $-1 $427 $428 $303 $429 forward $186 $-1 #
coedge $-1 $430 $188 $302 $429 reversed $117 $-1 #
coedge $-1 $188 $430 $189 $308 reversed $117 $-1 #
coedge $-1 $191 $431 $188 $306 forward $300 $-1 #
edge $-1 $432 -5.1480130264358959 $312 -2.1480130264358959 $305 $433 forward 7 unknown #
coedge $-1 $190 $189 $434 $435 reversed $74 $-1 #
edge $-1 $312 -51.908322397534107 $436 51.908322397534107 $304 $437 forward 7 unknown #
coedge $-1 $438 $439 $190 $310 forward $425 $-1 #
edge $-1 $313 -51.908322397534107 $440 51.908322397534107 $309 $441 forward 7 unknown #
coedge $-1 $431 $191 $439 $442 forward $300 $-1 #
vertex $-1 $192 $443 #
vertex $-1 $442 $444 #
straight-curve $-1 51.908322397534107 -11.346311015039593 -5.7960260528717917 0 -1 0 I I #
face $-1 $-1 $445 $44 $-1 $446 reversed single #
loop $-1 $-1 $199 $193 #
plane-surface $-1 0 0 8.7960260528717917 0 0 1 1 0 0 forward_v I I I I #
coedge $-1 $447 $448 $449 $450 reversed $194 $-1 #
coedge $-1 $451 $196 $198 $325 forward $121 $-1 #
coedge $-1 $196 $451 $447 $452 forward $121 $-1 #
coedge $-1 $449 $199 $196 $322 forward $316 $-1 #
edge $-1 $328 -10.636172036644748 $453 -0.90499614956551344 $321 $454 forward 7 unknown #
coedge $-1 $455 $456 $197 $324 forward $445 $-1 #
edge $-1 $457 -25.245642429253067 $327 -20.972770226229745 $323 $458 forward 7 unknown #
edge $-1 $328 -5.0384785750490311 $457 0 $198 $459 forward 7 unknown #
coedge $-1 $199 $449 $455 $460 forward $316 $-1 #
vertex $-1 $324 $461 #
vertex $-1 $200 $462 #
straight-curve $-1 -69.974915594023784 -16.40675612974988 8.7960260528717917 1 0 0 I I #
coedge $-1 $330 $330 $-1 $463 reversed $203 $-1 #
edge $-1 $464 0 $464 6.2831853071796004 $204 $465 forward 7 unknown #
vertex $-1 $207 $466 #
ellipse-curve $-1 -50.573328999810855 -14.460520952334033 6.6595899513601307 -0.84804810408105047 0 0.52991925155115449 0.26495962577557725 0 0.42402405204052523 1 I I #
coedge $-1 $334 $334 $-1 $467 reversed $210 $-1 #
edge $-1 $468 0 $468 6.2831853071796004 $211 $469 forward 7 unknown #
vertex $-1 $214 $470 #
ellipse-curve $-1 -50.573328999810855 -11.54116818621026 6.6595899513601307 -0.84804810408105047 0 0.52991925155115449 0.26495962577557725 0 0.42402405204052523 1 I I #
coedge $-1 $338 $338 $-1 $471 reversed $217 $-1 #
edge $-1 $472 0 $472 6.2831853071796004 $218 $473 forward 7 unknown #
vertex $-1 $221 $474 #
ellipse-curve $-1 -50.573328999810855 -8.621815420086488 6.6595899513601307 -0.84804810408105047 0 0.52991925155115449 0.26495962577557725 0 0.42402405204052523 1 I I #
face $-1 $-1 $475 $48 $-1 $476 reversed single #
loop $-1 $-1 $228 $222 #
plane-surface $-1 0 0 8.7960260528717917 0 0 1 1 0 0 forward_v I I I I #
coedge $-1 $477 $478 $479 $480 reversed $223 $-1 #
coedge $-1 $481 $225 $227 $352 forward $140 $-1 #
coedge $-1 $225 $481 $477 $482 forward $140 $-1 #
coedge $-1 $479 $228 $225 $349 forward $343 $-1 #
edge $-1 $355 4.235288063150783 $483 13.96646395023002 $348 $484 forward 7 unknown #
coedge $-1 $485 $486 $226 $351 forward $475 $-1 #
edge $-1 $487 -25.245642429253067 $354 -20.972770226229745 $350 $488 forward 7 unknown #
edge $-1 $355 -5.0384785750490311 $487 0 $227 $489 forward 7 unknown #
coedge $-1 $228 $479 $485 $490 forward $343 $-1 #
vertex $-1 $229 $491 #
vertex $-1 $229 $492 #
straight-curve $-1 -69.974915594023784 13.336164069841184 8.7960260528717917 1 0 0 I I #
coedge $-1 $357 $357 $-1 $493 reversed $232 $-1 #
edge $-1 $494 0 $494 6.2831853071796004 $233 $495 forward 7 unknown #
vertex $-1 $236 $496 #
ellipse-curve $-1 -50.573328999810855 15.282399247257029 6.6595899513601307 -0.84804810408105047 0 0.52991925155115449 0.26495962577557725 0 0.42402405204052523 1 I I #
coedge $-1 $361 $361 $-1 $497 reversed $239 $-1 #
edge $-1 $498 0 $498 6.2831853071796004 $240 $499 forward 7 unknown #
vertex $-1 $243 $500 #
ellipse-curve $-1 -50.573328999810855 18.201752013380801 6.6595899513601307 -0.84804810408105047 0 0.52991925155115449 0.26495962577557725 0 0.42402405204052523 1 I I #
coedge $-1 $365 $365 $-1 $501 reversed $246 $-1 #
edge $-1 $502 0 $502 6.2831853071796004 $247 $503 forward 7 unknown #
vertex $-1 $250 $504 #
ellipse-curve $-1 -50.573328999810855 21.121104779504574 6.6595899513601307 -0.84804810408105047 0 0.52991925155115449 0.26495962577557725 0 0.42402405204052523 1 I I #
face $-1 $-1 $381 $52 $-1 $505 forward single #
loop $-1 $-1 $506 $251 #
plane-surface $-1 51.908322397534107 0 0 -1 0 0 0 0 1 forward_v I I I I #
coedge $-1 $507 $508 $509 $510 reversed $252 $-1 #
coedge $-1 $511 $254 $256 $379 forward $159 $-1 #
coedge $-1 $254 $511 $507 $512 forward $159 $-1 #
coedge $-1 $509 $257 $254 $376 forward $381 $-1 #
edge $-1 $383 -2.1876576283705447 $513 5.8648075679726546 $375 $514 forward 7 unknown #
coedge $-1 $515 $516 $255 $378 forward $370 $-1 #
edge $-1 $517 -71.225706483151342 $382 -66.797174533232493 $377 $518 forward 7 unknown #
edge $-1 $383 97.553754922755928 $517 103.81664479506823 $256 $519 forward 7 unknown #
coedge $-1 $257 $509 $515 $520 forward $381 $-1 #
loop $-1 $-1 $509 $369 #
vertex $-1 $378 $521 #
vertex $-1 $258 $522 #
straight-curve $-1 25.954162050504038 0.34908265856948972 8.7960260528717953 -1 0 0 I I #
coedge $-1 $385 $385 $-1 $523 reversed $261 $-1 #
edge $-1 $524 0 $524 6.2831853071796004 $262 $525 forward 7 unknown #
vertex $-1 $265 $526 #
ellipse-curve $-1 49.694056473956955 -6.0928894985050697 6.5817600779123726 0.70710678939079041 0 0.70710677298230451 0.35355338649115226 0 -0.35355339469539521 1 I I #
coedge $-1 $389 $389 $-1 $527 reversed $268 $-1 #
edge $-1 $528 0 $528 6.2831853071796004 $269 $529 forward 7 unknown #
vertex $-1 $272 $530 #
ellipse-curve $-1 49.694056473956955 -3.6771499396021099 6.5817600779123726 0.70710678939079041 0 0.70710677298230451 0.35355338649115226 0 -0.35355339469539521 1 I I #
coedge $-1 $393 $393 $-1 $531 reversed $275 $-1 #
edge $-1 $532 0 $532 6.2831853071796004 $276 $533 forward 7 unknown #
vertex $-1 $279 $534 #
ellipse-curve $-1 49.694056473956955 -1.2614103806991501 6.5817600779123726 0.70710678939079041 0 0.70710677298230451 0.35355338649115226 0 -0.35355339469539521 1 I I #
face $-1 $-1 $295 $42 $-1 $535 reversed single #
loop $-1 $-1 $413 $280 #
plane-surface $-1 0 26.022913943664452 0 0 -1 0 0 0 -1 forward_v I I I I #
coedge $-1 $536 $411 $414 $537 forward $281 $-1 #
coedge $-1 $417 $283 $284 $405 reversed $178 $-1 #
coedge $-1 $411 $536 $283 $403 reversed $281 $-1 #
edge $-1 $418 -8.7960260528717917 $538 8.7960260528717917 $402 $539 forward 7 unknown #
coedge $-1 $285 $284 $536 $540 forward $113 $-1 #
edge $-1 $409 -51.908322397534107 $538 51.908322397534107 $401 $541 forward 7 unknown #
coedge $-1 $414 $413 $285 $407 reversed $398 $-1 #
edge $-1 $542 -51.908322397534107 $408 51.908322397534107 $406 $543 forward 7 unknown #
vertex $-1 $287 $544 #
vertex $-1 $420 $545 #
straight-curve $-1 51.908322397534107 0 -8.7960260528717917 0 -1 0 I I #
coedge $-1 $400 $402 $288 $412 reversed $281 $-1 #
edge $-1 $415 -26.022913943664452 $418 26.022913943664452 $411 $546 forward 7 unknown #
coedge $-1 $406 $289 $294 $421 forward $398 $-1 #
coedge $-1 $289 $406 $400 $537 reversed $398 $-1 #
vertex $-1 $290 $547 #
straight-curve $-1 0 26.022913943664452 8.7960260528717917 -1 0 0 I I #
coedge $-1 $291 $401 $293 $420 reversed $178 $-1 #
vertex $-1 $412 $548 #
straight-curve $-1 0 -26.022913943664452 8.7960260528717917 1 0 0 I I #
edge $-1 $296 -8.7960260528717917 $409 8.7960260528717917 $293 $549 forward 7 unknown #
edge $-1 $297 -8.7960260528717917 $408 8.7960260528717917 $294 $550 forward 7 unknown #
point $-1 51.908322397534107 -26.022913943664452 8.7960260528717917 #
point $-1 51.908322397534107 26.022913943664452 8.7960260528717917 #
face $-1 $-1 $551 $43 $-1 $552 reversed single #
loop $-1 $-1 $309 $299 #
plane-surface $-1 0 -26.022913943664452 0 0 1 0 0 0 1 forward_v I I I I #
coedge $-1 $553 $302 $431 $554 forward $186 $-1 #
coedge $-1 $302 $553 $555 $556 forward $186 $-1 #
edge $-1 $557 -51.908322397534107 $432 51.908322397534107 $302 $558 forward 7 unknown #
coedge $-1 $304 $303 $559 $560 reversed $117 $-1 #
coedge $-1 $305 $311 $427 $554 reversed $300 $-1 #
vertex $-1 $554 $561 #
straight-curve $-1 51.908322397534107 -19.362330116493915 -3.6480130264358959 0 0 1 I I #
coedge $-1 $559 $562 $307 $435 forward $551 $-1 #
edge $-1 $440 -14.676602928624863 $436 -8.0160191014543223 $434 $563 forward 7 unknown #
vertex $-1 $435 $564 #
straight-curve $-1 0 -19.362330116493915 -5.7960260528717917 -1 0 0 I I #
coedge $-1 $565 $309 $562 $566 forward $425 $-1 #
coedge $-1 $309 $565 $311 $442 reversed $425 $-1 #
vertex $-1 $566 $567 #
straight-curve $-1 0 -26.022913943664452 -5.7960260528717917 -1 0 0 I I #
edge $-1 $313 5.7960260528717917 $568 8.7960260528717917 $311 $569 forward 7 unknown #
point $-1 51.908322397534107 -19.362330116493915 -5.7960260528717917 #
point $-1 51.908322397534107 -26.022913943664456 -5.7960260528717917 #
loop $-1 $-1 $323 $315 #
plane-surface $-1 -51.908322397534107 0 0 1 0 0 0 0 -1 forward_v I I I I #
coedge $-1 $448 $318 $320 $452 reversed $194 $-1 #
coedge $-1 $318 $447 $570 $571 reversed $194 $-1 #
coedge $-1 $326 $321 $318 $450 forward $316 $-1 #
edge $-1 $453 -20.736579991936189 $572 -18.066593196489677 $449 $573 forward 7 unknown #
coedge $-1 $320 $319 $456 $574 reversed $121 $-1 #
edge $-1 $575 0 $453 5.0384785750490311 $447 $576 forward 7 unknown #
vertex $-1 $322 $577 #
straight-curve $-1 -49.238335602087595 -5.7705840931051311 8.7960260528717917 0 1 0 I I #
coedge $-1 $570 $323 $326 $460 reversed $445 $-1 #
coedge $-1 $323 $570 $451 $574 forward $445 $-1 #
vertex $-1 $324 $578 #
straight-curve $-1 -51.908322397534107 -16.40675612974988 29.768796279101537 0 0 1 I I #
straight-curve $-1 -51.908322397534107 -16.40675612974988 4.5231538498484696 -0.52991925155115449 0 -0.84804810408105047 I I #
edge $-1 $572 6.6755802426706445 $327 16.40675612974988 $455 $579 forward 7 unknown #
point $-1 -51.908322397534107 -16.40675612974988 8.7960260528717917 #
point $-1 -49.238335602087595 -16.40675612974988 8.7960260528717917 #
edge $-1 $580 1 $580 0 $330 $-1 forward 7 unknown #
vertex $-1 $331 $581 #
ellipse-curve $-1 -49.650096114017849 -14.460520952334033 6.0826900355505389 -0.84804810408105047 0 0.52991925155115449 0.26495962577557725 0 0.42402405204052523 1 I I #
point $-1 -50.308369374035273 -14.460520952334033 7.0836140034006529 #
edge $-1 $582 1 $582 0 $334 $-1 forward 7 unknown #
vertex $-1 $335 $583 #
ellipse-curve $-1 -49.650096114017849 -11.54116818621026 6.0826900355505389 -0.84804810408105047 0 0.52991925155115449 0.26495962577557725 0 0.42402405204052523 1 I I #
point $-1 -50.308369374035273 -11.54116818621026 7.0836140034006529 #
edge $-1 $584 1 $584 0 $338 $-1 forward 7 unknown #
vertex $-1 $339 $585 #
ellipse-curve $-1 -49.650096114017849 -8.621815420086488 6.0826900355505389 -0.84804810408105047 0 0.52991925155115449 0.26495962577557725 0 0.42402405204052523 1 I I #
point $-1 -50.308369374035273 -8.621815420086488 7.0836140034006529 #
loop $-1 $-1 $350 $342 #
plane-surface $-1 -51.908322397534107 0 0 1 0 0 0 0 -1 forward_v I I I I #
coedge $-1 $478 $345 $347 $482 reversed $223 $-1 #
coedge $-1 $345 $477 $586 $587 reversed $223 $-1 #
coedge $-1 $353 $348 $345 $480 forward $343 $-1 #
edge $-1 $483 -20.736579991936189 $588 -18.066593196489677 $479 $589 forward 7 unknown #
coedge $-1 $347 $346 $486 $590 reversed $140 $-1 #
edge $-1 $591 0 $483 5.0384785750490311 $477 $592 forward 7 unknown #
vertex $-1 $349 $593 #
straight-curve $-1 -49.238335602087595 9.1008760066904006 8.7960260528717917 0 1 0 I I #
coedge $-1 $586 $350 $353 $490 reversed $475 $-1 #
coedge $-1 $350 $586 $481 $590 forward $475 $-1 #
vertex $-1 $351 $594 #
straight-curve $-1 -51.908322397534107 13.336164069841184 29.768796279101537 0 0 1 I I #
straight-curve $-1 -51.908322397534107 13.336164069841184 4.5231538498484696 -0.52991925155115449 0 -0.84804810408105047 I I #
edge $-1 $588 -23.067339956920421 $354 -13.336164069841184 $485 $595 forward 7 unknown #
point $-1 -51.908322397534107 13.336164069841184 8.7960260528717917 #
point $-1 -49.238335602087595 13.336164069841184 8.7960260528717917 #
edge $-1 $596 1 $596 0 $357 $-1 forward 7 unknown #
vertex $-1 $358 $597 #
ellipse-curve $-1 -49.650096114017849 15.282399247257029 6.0826900355505389 -0.84804810408105047 0 0.52991925155115449 0.26495962577557725 0 0.42402405204052523 1 I I #
point $-1 -50.308369374035273 15.282399247257029 7.0836140034006529 #
edge $-1 $598 1 $598 0 $361 $-1 forward 7 unknown #
vertex $-1 $362 $599 #
ellipse-curve $-1 -49.650096114017849 18.201752013380801 6.0826900355505389 -0.84804810408105047 0 0.52991925155115449 0.26495962577557725 0 0.42402405204052523 1 I I #
point $-1 -50.308369374035273 18.201752013380801 7.0836140034006529 #
edge $-1 $600 1 $600 0 $365 $-1 forward 7 unknown #
vertex $-1 $366 $601 #
ellipse-curve $-1 -49.650096114017849 21.121104779504574 6.0826900355505389 -0.84804810408105047 0 0.52991925155115449 0.26495962577557725 0 0.42402405204052523 1 I I #
point $-1 -50.308369374035273 21.121104779504574 7.0836140034006529 #
plane-surface $-1 0 0 8.7960260528717917 0 0 1 1 0 0 forward_v I I I I #
coedge $-1 $516 $515 $508 $602 forward $370 $-1 #
coedge $-1 $508 $372 $374 $512 reversed $252 $-1 #
coedge $-1 $372 $507 $506 $602 reversed $252 $-1 #
coedge $-1 $380 $375 $372 $510 forward $381 $-1 #
edge $-1 $513 21.525628499875765 $603 25.954160347030069 $509 $604 forward 7 unknown #
coedge $-1 $374 $373 $516 $605 reversed $159 $-1 #
edge $-1 $606 -103.81664479506823 $513 -97.553754922755928 $507 $607 forward 7 unknown #
vertex $-1 $376 $608 #
straight-curve $-1 47.479790550379811 -1.8385749698010549 8.7960260528717811 0 -1 0 I I #
coedge $-1 $506 $377 $380 $520 reversed $370 $-1 #
coedge $-1 $377 $506 $511 $605 forward $370 $-1 #
vertex $-1 $378 $609 #
straight-curve $-1 51.908322397534107 0.34908265856948972 75.593200586104288 0 0 1 I I #
straight-curve $-1 -21.501130285356723 0.34908265856948972 77.776948489317732 0.70710677298230451 0 -0.70710678939079041 I I #
edge $-1 $603 -7.7033825377737095 $382 0.34908265856948972 $515 $610 forward 7 unknown #
point $-1 51.908322397534107 0.34908265856948972 8.7960260528717917 #
point $-1 47.479790550379803 0.34908265856948972 8.7960260528717953 #
edge $-1 $611 1 $611 0 $385 $-1 forward 7 unknown #
vertex $-1 $386 $612 #
ellipse-curve $-1 48.936107569151098 -6.0928894985050697 5.8238111906947916 0.70710678939079041 0 0.70710677298230451 0.35355338649115226 0 -0.35355339469539521 1 I I #
point $-1 50.047609860448084 -6.0928894985050697 6.228206683216948 #
edge $-1 $613 1 $613 0 $389 $-1 forward 7 unknown #
vertex $-1 $390 $614 #
ellipse-curve $-1 48.936107569151098 -3.6771499396021099 5.8238111906947916 0.70710678939079041 0 0.70710677298230451 0.35355338649115226 0 -0.35355339469539521 1 I I #
point $-1 50.047609860448084 -3.6771499396021099 6.228206683216948 #
edge $-1 $615 1 $615 0 $393 $-1 forward 7 unknown #
vertex $-1 $394 $616 #
ellipse-curve $-1 48.936107569151098 -1.2614103806991501 5.8238111906947916 0.70710678939079041 0 0.70710677298230451 0.35355338649115226 0 -0.35355339469539521 1 I I #
point $-1 50.047609860448084 -1.2614103806991501 6.228206683216948 #
plane-surface $-1 51.908322397534107 0 0 -1 0 0 0 0 1 forward_v I I I I #
coedge $-1 $402 $400 $404 $540 reversed $281 $-1 #
edge $-1 $415 -8.7960260528717917 $542 8.7960260528717917 $414 $617 forward 7 unknown #
vertex $-1 $540 $618 #
straight-curve $-1 -51.908322397534107 -26.022913943664452 0 0 0 -1 I I #
edge $-1 $538 -26.022913943664452 $542 26.022913943664452 $536 $619 forward 7 unknown #
straight-curve $-1 0 -26.022913943664452 -8.7960260528717917 -1 0 0 I I #
vertex $-1 $407 $620 #
straight-curve $-1 0 26.022913943664452 -8.7960260528717917 1 0 0 I I #
point $-1 51.908322397534107 26.022913943664452 -8.7960260528717917 #
point $-1 51.908322397534107 -26.022913943664452 -8.7960260528717917 #
straight-curve $-1 -51.908322397534107 0 8.7960260528717917 0 -1 0 I I #
point $-1 -51.908322397534107 26.022913943664452 8.7960260528717917 #
point $-1 -51.908322397534107 -26.022913943664452 8.7960260528717917 #
straight-curve $-1 51.908322397534107 -26.022913943664452 0 0 0 -1 I I #
straight-curve $-1 51.908322397534107 26.022913943664452 0 0 0 -1 I I #
loop $-1 $-1 $559 $424 #
plane-surface $-1 -51.908322397534107 0 0 1 0 0 0 0 -1 forward_v I I I I #
coedge $-1 $428 $427 $565 $621 forward $186 $-1 #
edge $-1 $432 19.362330116493915 $568 26.022913943664452 $431 $622 forward 7 unknown #
coedge $-1 $562 $559 $428 $556 reversed $551 $-1 #
edge $-1 $623 -26.022913943664452 $557 -19.362330116493915 $555 $624 forward 7 unknown #
vertex $-1 $560 $625 #
straight-curve $-1 0 -19.362330116493915 -8.7960260528717917 1 0 0 I I #
coedge $-1 $555 $434 $430 $560 forward $551 $-1 #
edge $-1 $436 2.1480130264358959 $557 5.1480130264358959 $559 $626 forward 7 unknown #
point $-1 51.908322397534107 -19.362330116493915 -8.7960260528717917 #
coedge $-1 $434 $555 $438 $566 reversed $551 $-1 #
straight-curve $-1 -51.908322397534107 -11.346311015039593 -5.7960260528717917 0 1 0 I I #
point $-1 -51.908322397534107 -19.362330116493915 -5.7960260528717917 #
coedge $-1 $439 $438 $553 $621 reversed $425 $-1 #
edge $-1 $440 5.7960260528717917 $623 8.7960260528717917 $562 $627 forward 7 unknown #
point $-1 -51.908322397534107 -26.022913943664456 -5.7960260528717917 #
vertex $-1 $442 $628 #
straight-curve $-1 51.908322397534107 -26.022913943664452 0 0 0 -1 I I #
coedge $-1 $456 $455 $448 $571 forward $445 $-1 #
edge $-1 $572 20.972770226229745 $575 25.245642429253067 $570 $629 forward 7 unknown #
vertex $-1 $460 $630 #
straight-curve $-1 -69.974915594023784 -6.6755802426706445 8.7960260528717917 -1 0 0 I I #
edge $-1 $575 0.90499614956551344 $457 10.636172036644748 $456 $631 forward 7 unknown #
vertex $-1 $574 $632 #
straight-curve $-1 -51.908322397534107 -6.6755802426706445 4.5231538498484696 0.52991925155115449 0 0.84804810408105047 I I #
point $-1 -49.238335602087595 -6.6755802426706445 8.7960260528717917 #
point $-1 -51.908322397534107 -16.40675612974988 4.5231538498484696 #
straight-curve $-1 -51.908322397534107 0 8.7960260528717917 0 -1 0 I I #
vertex $-1 $463 $633 #
point $-1 -49.385136488242274 -14.460520952334033 6.5067140875910647 #
vertex $-1 $467 $634 #
point $-1 -49.385136488242274 -11.54116818621026 6.5067140875910647 #
vertex $-1 $471 $635 #
point $-1 -49.385136488242274 -8.621815420086488 6.5067140875910647 #
coedge $-1 $486 $485 $478 $587 forward $475 $-1 #
edge $-1 $588 20.972770226229745 $591 25.245642429253067 $586 $636 forward 7 unknown #
vertex $-1 $490 $637 #
straight-curve $-1 -69.974915594023784 23.067339956920421 8.7960260528717917 -1 0 0 I I #
edge $-1 $591 -13.96646395023002 $487 -4.235288063150783 $486 $638 forward 7 unknown #
vertex $-1 $590 $639 #
straight-curve $-1 -51.908322397534107 23.067339956920421 4.5231538498484696 0.52991925155115449 0 0.84804810408105047 I I #
point $-1 -49.238335602087595 23.067339956920421 8.7960260528717917 #
point $-1 -51.908322397534107 13.336164069841184 4.5231538498484696 #
straight-curve $-1 -51.908322397534107 0 8.7960260528717917 0 -1 0 I I #
vertex $-1 $493 $640 #
point $-1 -49.385136488242274 15.282399247257029 6.5067140875910647 #
vertex $-1 $497 $641 #
point $-1 -49.385136488242274 18.201752013380801 6.5067140875910647 #
vertex $-1 $501 $642 #
point $-1 -49.385136488242274 21.121104779504574 6.5067140875910647 #
edge $-1 $603 66.797174533232493 $606 71.225706483151342 $506 $643 forward 7 unknown #
vertex $-1 $520 $644 #
straight-curve $-1 25.954162050504038 -7.7033825377737095 8.7960260528717953 1 0 0 I I #
edge $-1 $606 -5.8648075679726546 $517 2.1876576283705447 $516 $645 forward 7 unknown #
vertex $-1 $605 $646 #
straight-curve $-1 -21.501130285356723 -7.7033825377737095 77.776948489317732 -0.70710677298230451 0 0.70710678939079041 I I #
point $-1 47.479790550379803 -7.7033825377737095 8.7960260528717953 #
point $-1 51.908322397534107 0.34908265856948972 4.3674941029529464 #
straight-curve $-1 51.908322397534107 0 8.7960260528717917 0 1 0 I I #
vertex $-1 $523 $647 #
point $-1 49.289660955642248 -6.0928894985050697 5.4702577959993963 #
vertex $-1 $527 $648 #
point $-1 49.289660955642248 -3.6771499396021099 5.4702577959993963 #
vertex $-1 $531 $649 #
point $-1 49.289660955642248 -1.2614103806991501 5.4702577959993963 #
straight-curve $-1 -51.908322397534107 26.022913943664452 0 0 0 -1 I I #
point $-1 -51.908322397534107 -26.022913943664452 -8.7960260528717917 #
straight-curve $-1 -51.908322397534107 0 -8.7960260528717917 0 1 0 I I #
point $-1 -51.908322397534107 26.022913943664452 -8.7960260528717917 #
edge $-1 $568 -51.908322397534107 $623 51.908322397534107 $565 $650 forward 7 unknown #
straight-curve $-1 51.908322397534107 0 -8.7960260528717917 0 -1 0 I I #
vertex $-1 $556 $651 #
straight-curve $-1 -51.908322397534107 0 -8.7960260528717917 0 1 0 I I #
point $-1 -51.908322397534107 -19.362330116493915 -8.7960260528717917 #
straight-curve $-1 -51.908322397534107 -19.362330116493915 -3.6480130264358959 0 0 -1 I I #
straight-curve $-1 -51.908322397534107 -26.022913943664452 0 0 0 -1 I I #
point $-1 51.908322397534107 -26.022913943664452 -8.7960260528717917 #
straight-curve $-1 -51.908322397534107 -6.6755802426706445 29.768796279101537 0 0 -1 I I #
point $-1 -51.908322397534107 -6.6755802426706445 8.7960260528717917 #
straight-curve $-1 -51.908322397534107 -5.7705840931051311 4.5231538498484696 0 -1 0 I I #
point $-1 -51.908322397534107 -6.6755802426706445 4.5231538498484696 #
point $-1 -49.226072061977327 -14.460520952334033 5.8177304097749625 #
point $-1 -49.226072061977327 -11.54116818621026 5.8177304097749625 #
point $-1 -49.226072061977327 -8.621815420086488 5.8177304097749625 #
straight-curve $-1 -51.908322397534107 23.067339956920421 29.768796279101537 0 0 -1 I I #
point $-1 -51.908322397534107 23.067339956920421 8.7960260528717917 #
straight-curve $-1 -51.908322397534107 9.1008760066904006 4.5231538498484696 0 -1 0 I I #
point $-1 -51.908322397534107 23.067339956920421 4.5231538498484696 #
point $-1 -49.226072061977327 15.282399247257029 5.8177304097749625 #
point $-1 -49.226072061977327 18.201752013380801 5.8177304097749625 #
point $-1 -49.226072061977327 21.121104779504574 5.8177304097749625 #
straight-curve $-1 51.908322397534107 -7.7033825377737095 75.593200586104288 0 0 -1 I I #
point $-1 51.908322397534107 -7.7033825377737095 8.7960260528717917 #
straight-curve $-1 51.9083223975341 -1.8385749698010549 4.3674941029529535 0 1 0 I I #
point $-1 51.908322397534107 -7.7033825377737095 4.3674941029529464 #
point $-1 48.582554174455701 -6.0928894985050697 5.4702578042036398 #
point $-1 48.582554174455701 -3.6771499396021099 5.4702578042036398 #
point $-1 48.582554174455701 -1.2614103806991501 5.4702578042036398 #
straight-curve $-1 0 -26.022913943664452 -8.7960260528717917 -1 0 0 I I #
point $-1 -51.908322397534107 -26.022913943664452 -8.7960260528717917 #
End-of-ACIS-data 