500 0 11 0           
7 Unknown 11 ACIS 5.0 NT 24 Fri Mar 26 01:39:44 1999 
-1 9.9999999999999995e-007 1e-010 
body $-1 $11 $-1 $12 #
body $-1 $13 $-1 $14 #
body $-1 $15 $-1 $16 #
body $-1 $17 $-1 $18 #
body $-1 $19 $-1 $20 #
body $-1 $21 $-1 $22 #
body $-1 $23 $-1 $24 #
body $-1 $25 $-1 $26 #
body $-1 $27 $-1 $28 #
body $-1 $29 $-1 $30 #
body $-1 $31 $-1 $32 #
lump $-1 $-1 $33 $0 #
transform $-1 1 0 0 0 1 0 0 0 1 68.877834406567587 35.289406164766298 7.5964789691817716 1 rotate no_reflect no_shear #
lump $-1 $-1 $34 $1 #
transform $-1 1 0 0 0 1 0 0 0 1 68.877834406567587 35.289406164766298 7.5964789691817716 1 rotate no_reflect no_shear #
lump $-1 $-1 $35 $2 #
transform $-1 1 0 0 0 1 0 0 0 1 68.877834406567587 35.289406164766298 7.5964789691817716 1 rotate no_reflect no_shear #
lump $-1 $-1 $36 $3 #
transform $-1 1 0 0 0 1 0 0 0 1 68.877834406567587 35.289406164766298 7.5964789691817716 1 rotate no_reflect no_shear #
lump $-1 $-1 $37 $4 #
transform $-1 1 0 0 0 1 0 0 0 1 68.877834406567587 35.289406164766298 7.5964789691817716 1 rotate no_reflect no_shear #
lump $-1 $-1 $38 $5 #
transform $-1 1 0 0 0 1 0 0 0 1 68.877834406567587 35.289406164766298 7.5964789691817716 1 rotate no_reflect no_shear #
lump $-1 $-1 $39 $6 #
transform $-1 1 0 0 0 1 0 0 0 1 68.877834406567587 35.289406164766298 7.5964789691817716 1 rotate no_reflect no_shear #
lump $-1 $-1 $40 $7 #
transform $-1 1 0 0 0 1 0 0 0 1 68.877834406567587 35.289406164766298 7.5964789691817716 1 rotate no_reflect no_shear #
lump $-1 $-1 $41 $8 #
transform $-1 1 0 0 0 1 0 0 0 1 68.877834406567587 35.289406164766298 7.5964789691817716 1 rotate no_reflect no_shear #
lump $-1 $-1 $42 $9 #
transform $-1 1 0 0 0 1 0 0 0 1 68.877834406567587 35.289406164766298 7.5964789691817716 1 rotate no_reflect no_shear #
lump $-1 $-1 $43 $10 #
transform $-1 1 0 0 0 1 0 0 0 1 68.877834406567587 35.289406164766298 7.5964789691817716 1 rotate no_reflect no_shear #
shell $-1 $-1 $-1 $44 $-1 $11 #
shell $-1 $-1 $-1 $45 $-1 $13 #
shell $-1 $-1 $-1 $46 $-1 $15 #
shell $-1 $-1 $-1 $47 $-1 $17 #
shell $-1 $-1 $-1 $48 $-1 $19 #
shell $-1 $-1 $-1 $49 $-1 $21 #
shell $-1 $-1 $-1 $50 $-1 $23 #
shell $-1 $-1 $-1 $51 $-1 $25 #
shell $-1 $-1 $-1 $52 $-1 $27 #
shell $-1 $-1 $-1 $53 $-1 $29 #
shell $-1 $-1 $-1 $54 $-1 $31 #
face $-1 $55 $56 $33 $-1 $57 forward single #
face $-1 $58 $59 $34 $-1 $60 reversed single #
face $-1 $61 $62 $35 $-1 $63 reversed single #
face $-1 $64 $65 $36 $-1 $66 forward single #
face $-1 $67 $68 $37 $-1 $69 forward single #
face $-1 $70 $71 $38 $-1 $72 reversed single #
face $-1 $73 $74 $39 $-1 $75 forward single #
face $-1 $76 $77 $40 $-1 $78 forward single #
face $-1 $79 $80 $41 $-1 $81 reversed single #
face $-1 $82 $83 $42 $-1 $84 forward single #
face $-1 $85 $86 $43 $-1 $87 forward single #
face $-1 $88 $89 $33 $-1 $90 reversed single #
loop $-1 $-1 $91 $44 #
plane-surface $-1 0 0 7.5964789691817716 0 0 1 1 0 0 forward_v I I I I #
face $-1 $92 $93 $34 $-1 $94 reversed single #
loop $-1 $-1 $95 $45 #
plane-surface $-1 0 -32.719375007081169 4.5964789691817716 0 0 1 1 0 0 forward_v I I I I #
face $-1 $96 $97 $35 $-1 $98 reversed single #
loop $-1 $-1 $99 $46 #
plane-surface $-1 106.05047003314783 23.855362758070573 194.48166088782733 0 -1 0 -0.82903758062907751 0 -0.55919289150049634 forward_v I I I I #
face $-1 $100 $101 $36 $-1 $102 forward single #
loop $-1 $103 $104 $47 #
cone-surface $-1 66.995775598260877 18.613135987516458 5.1411649052623742 -0.82903758062907751 0 -0.55919289150049634 0.27959644575024817 0 -0.41451879031453875 1 I I 0 1 0.5 forward I I I I #
face $-1 $105 $106 $37 $-1 $107 forward single #
loop $-1 $108 $109 $48 #
cone-surface $-1 66.995775598260877 21.758472049848926 5.1411649052623742 -0.82903758062907751 0 -0.55919289150049634 0.27959644575024817 0 -0.41451879031453875 1 I I 0 1 0.5 forward I I I I #
face $-1 $110 $111 $38 $-1 $112 reversed single #
loop $-1 $-1 $113 $49 #
plane-surface $-1 -159.2536858250927 -22.076001815695903 106.45040097500005 0 1 0 -0.6560590369687036 0 0.75470957328743171 forward_v I I I I #
face $-1 $114 $115 $39 $-1 $116 forward single #
loop $-1 $117 $118 $50 #
cone-surface $-1 -64.692247847926481 -17.976968202485413 3.6079238581652633 0.6560590369687036 0 -0.75470957328743171 0.75470957328743171 0 0.6560590369687036 1 I I 0 1 1 forward I I I I #
face $-1 $119 $120 $40 $-1 $121 forward single #
loop $-1 $122 $123 $51 #
cone-surface $-1 -64.692247847926481 -11.828417782669675 3.6079238581652633 0.6560590369687036 0 -0.75470957328743171 0.75470957328743171 0 0.6560590369687036 1 I I 0 1 1 forward I I I I #
face $-1 $124 $125 $41 $-1 $126 reversed single #
loop $-1 $-1 $127 $52 #
plane-surface $-1 -159.2536858250927 12.869446484829446 106.45040097500005 0 1 0 -0.6560590369687036 0 0.75470957328743171 forward_v I I I I #
face $-1 $128 $129 $42 $-1 $130 forward single #
loop $-1 $131 $132 $53 #
cone-surface $-1 -64.692247847926481 16.96848009803994 3.6079238581652633 0.6560590369687036 0 -0.75470957328743171 0.75470957328743171 0 0.6560590369687036 1 I I 0 1 1 forward I I I I #
face $-1 $133 $134 $43 $-1 $135 forward single #
loop $-1 $136 $137 $54 #
cone-surface $-1 -64.692247847926481 23.117030517855675 3.6079238581652633 0.6560590369687036 0 -0.75470957328743171 0.75470957328743171 0 0.6560590369687036 1 I I 0 1 1 forward I I I I #
face $-1 $138 $139 $33 $-1 $140 reversed single #
loop $-1 $-1 $141 $55 #
plane-surface $-1 0 0 -7.5964789691817716 0 0 1 1 0 0 forward_v I I I I #
coedge $-1 $142 $143 $144 $145 forward $56 $-1 #
face $-1 $146 $147 $34 $-1 $148 reversed single #
loop $-1 $-1 $149 $58 #
plane-surface $-1 0 -30.14934384939604 6.0964789691817716 0 -1 0 0 0 -1 forward_v I I I I #
coedge $-1 $150 $151 $152 $153 reversed $59 $-1 #
face $-1 $154 $155 $35 $-1 $156 reversed single #
loop $-1 $-1 $157 $61 #
plane-surface $-1 -8.1541563576342213 20.185804018682695 117.44967012362552 0.82903758062907751 0 0.55919289150049634 0.55919289150049634 0 -0.82903758062907751 forward_v I I I I #
coedge $-1 $158 $159 $160 $161 reversed $62 $-1 #
face $-1 $-1 $162 $36 $-1 $163 forward single #
loop $-1 $164 $165 $64 #
cone-surface $-1 66.373997412789066 18.613135987516458 4.7217702366370018 -0.82903758062907751 0 -0.55919289150049634 0.13979822287512408 0 -0.20725939515726938 1 I I -0.70710678118654746 0.70710678118654746 0.25 forward I I I I #
loop $-1 $-1 $166 $47 #
coedge $-1 $104 $104 $167 $168 reversed $65 $-1 #
face $-1 $-1 $169 $37 $-1 $170 forward single #
loop $-1 $171 $172 $67 #
cone-surface $-1 66.373997412789066 21.758472049848926 4.7217702366370018 -0.82903758062907751 0 -0.55919289150049634 0.13979822287512408 0 -0.20725939515726938 1 I I -0.70710678118654746 0.70710678118654746 0.25 forward I I I I #
loop $-1 $-1 $173 $48 #
coedge $-1 $109 $109 $174 $175 reversed $68 $-1 #
face $-1 $176 $177 $38 $-1 $178 reversed single #
loop $-1 $-1 $179 $70 #
plane-surface $-1 -68.877834406567558 -14.902692992577542 2.4848789471140407 -0.6560590369687036 0 0.75470957328743171 0.75470957328743171 0 0.6560590369687036 forward_v I I I I #
coedge $-1 $180 $181 $182 $183 reversed $71 $-1 #
face $-1 $-1 $184 $39 $-1 $185 forward single #
loop $-1 $186 $187 $73 #
cone-surface $-1 -63.118743295897509 -17.976968202485413 1.7978139715389014 0.6560590369687036 0 -0.75470957328743171 0.37735478664371586 0 0.3280295184843518 1 I I -0.70710678118654746 0.70710678118654746 0.5 forward I I I I #
loop $-1 $-1 $188 $50 #
coedge $-1 $118 $118 $189 $190 reversed $74 $-1 #
face $-1 $-1 $191 $40 $-1 $192 forward single #
loop $-1 $193 $194 $76 #
cone-surface $-1 -63.118743295897509 -11.828417782669675 1.7978139715389014 0.6560590369687036 0 -0.75470957328743171 0.37735478664371586 0 0.3280295184843518 1 I I -0.70710678118654746 0.70710678118654746 0.5 forward I I I I #
loop $-1 $-1 $195 $51 #
coedge $-1 $123 $123 $196 $197 reversed $77 $-1 #
face $-1 $198 $199 $41 $-1 $200 reversed single #
loop $-1 $-1 $201 $79 #
plane-surface $-1 -68.877834406567558 20.042755307947807 2.4848789471140407 -0.6560590369687036 0 0.75470957328743171 0.75470957328743171 0 0.6560590369687036 forward_v I I I I #
coedge $-1 $202 $203 $204 $205 reversed $80 $-1 #
face $-1 $-1 $206 $42 $-1 $207 forward single #
loop $-1 $208 $209 $82 #
cone-surface $-1 -63.118743295897509 16.96848009803994 1.7978139715389014 0.6560590369687036 0 -0.75470957328743171 0.37735478664371586 0 0.3280295184843518 1 I I -0.70710678118654746 0.70710678118654746 0.5 forward I I I I #
loop $-1 $-1 $210 $53 #
coedge $-1 $132 $132 $211 $212 reversed $83 $-1 #
face $-1 $-1 $213 $43 $-1 $214 forward single #
loop $-1 $215 $216 $85 #
cone-surface $-1 -63.118743295897509 23.117030517855675 1.7978139715389014 0.6560590369687036 0 -0.75470957328743171 0.37735478664371586 0 0.3280295184843518 1 I I -0.70710678118654746 0.70710678118654746 0.5 forward I I I I #
loop $-1 $-1 $217 $54 #
coedge $-1 $137 $137 $218 $219 reversed $86 $-1 #
face $-1 $220 $221 $33 $-1 $222 reversed single #
loop $-1 $-1 $223 $88 #
plane-surface $-1 0 -35.289406164766298 0 0 1 0 0 0 1 forward_v I I I I #
coedge $-1 $224 $225 $226 $227 forward $89 $-1 #
coedge $-1 $228 $91 $229 $230 forward $56 $-1 #
coedge $-1 $91 $228 $231 $232 forward $56 $-1 #
coedge $-1 $233 $234 $91 $145 reversed $235 $-1 #
edge $-1 $236 -35.289406164766298 $237 35.289406164766298 $144 $238 forward 7 unknown #
face $-1 $239 $240 $34 $-1 $241 reversed single #
loop $-1 $-1 $242 $92 #
plane-surface $-1 -68.877834406567587 0 0 1 0 0 0 0 -1 forward_v I I I I #
coedge $-1 $243 $244 $245 $246 reversed $93 $-1 #
coedge $-1 $247 $95 $248 $249 reversed $59 $-1 #
coedge $-1 $95 $247 $243 $250 forward $59 $-1 #
coedge $-1 $245 $251 $95 $153 forward $252 $-1 #
edge $-1 $253 -18.929718661225714 $254 -13.789656345855455 $152 $255 forward 7 unknown #
face $-1 $256 $257 $35 $-1 $258 reversed single #
loop $-1 $-1 $259 $96 #
plane-surface $-1 106.05047003314783 16.516245279294818 194.48166088782733 0 1 0 0.82903758062907751 0 0.55919289150049634 forward_v I I I I #
coedge $-1 $260 $261 $262 $263 reversed $97 $-1 #
coedge $-1 $159 $99 $264 $265 reversed $62 $-1 #
coedge $-1 $99 $158 $260 $266 reversed $62 $-1 #
coedge $-1 $262 $267 $99 $161 forward $268 $-1 #
edge $-1 $269 -15.852599389993671 $270 -12.917519354009329 $160 $271 forward 7 unknown #
loop $-1 $-1 $167 $100 #
plane-surface $-1 -8.1541563576342213 20.185804018682695 117.44967012362552 0.82903758062907751 0 0.55919289150049634 0.55919289150049634 0 -0.82903758062907751 forward_v I I I I #
loop $-1 $-1 $272 $64 #
coedge $-1 $165 $165 $166 $273 reversed $101 $-1 #
coedge $-1 $166 $166 $165 $273 forward $103 $-1 #
coedge $-1 $167 $167 $104 $168 forward $162 $-1 #
edge $-1 $274 0 $274 6.2831853071796004 $167 $275 forward 7 unknown #
loop $-1 $-1 $174 $105 #
plane-surface $-1 -8.1541563576342213 20.185804018682695 117.44967012362552 0.82903758062907751 0 0.55919289150049634 0.55919289150049634 0 -0.82903758062907751 forward_v I I I I #
loop $-1 $-1 $276 $67 #
coedge $-1 $172 $172 $173 $277 reversed $106 $-1 #
coedge $-1 $173 $173 $172 $277 forward $108 $-1 #
coedge $-1 $174 $174 $109 $175 forward $169 $-1 #
edge $-1 $278 0 $278 6.2831853071796004 $174 $279 forward 7 unknown #
face $-1 $280 $281 $38 $-1 $282 forward single #
loop $-1 $-1 $283 $110 #
plane-surface $-1 -159.2536858250927 -7.7293841694591805 106.45040097500005 0 -1 0 0.6560590369687036 0 -0.75470957328743171 forward_v I I I I #
coedge $-1 $284 $285 $286 $287 reversed $111 $-1 #
coedge $-1 $181 $113 $288 $289 reversed $71 $-1 #
coedge $-1 $113 $180 $284 $290 reversed $71 $-1 #
coedge $-1 $286 $291 $113 $183 forward $281 $-1 #
edge $-1 $292 10.749008505978765 $293 16.629231556171746 $182 $294 forward 7 unknown #
loop $-1 $-1 $189 $114 #
plane-surface $-1 -68.877834406567558 -14.902692992577542 2.4848789471140407 -0.6560590369687036 0 0.75470957328743171 0.75470957328743171 0 0.6560590369687036 forward_v I I I I #
loop $-1 $-1 $295 $73 #
coedge $-1 $187 $187 $188 $296 reversed $115 $-1 #
coedge $-1 $188 $188 $187 $296 forward $117 $-1 #
coedge $-1 $189 $189 $118 $190 forward $184 $-1 #
edge $-1 $297 0 $297 6.2831853071796004 $189 $298 forward 7 unknown #
loop $-1 $-1 $196 $119 #
plane-surface $-1 -68.877834406567558 -14.902692992577542 2.4848789471140407 -0.6560590369687036 0 0.75470957328743171 0.75470957328743171 0 0.6560590369687036 forward_v I I I I #
loop $-1 $-1 $299 $76 #
coedge $-1 $194 $194 $195 $300 reversed $120 $-1 #
coedge $-1 $195 $195 $194 $300 forward $122 $-1 #
coedge $-1 $196 $196 $123 $197 forward $191 $-1 #
edge $-1 $301 0 $301 6.2831853071796004 $196 $302 forward 7 unknown #
face $-1 $303 $304 $41 $-1 $305 forward single #
loop $-1 $-1 $306 $124 #
plane-surface $-1 -159.2536858250927 27.216064131066169 106.45040097500005 0 -1 0 0.6560590369687036 0 -0.75470957328743171 forward_v I I I I #
coedge $-1 $307 $308 $309 $310 reversed $125 $-1 #
coedge $-1 $203 $127 $311 $312 reversed $80 $-1 #
coedge $-1 $127 $202 $307 $313 reversed $80 $-1 #
coedge $-1 $309 $314 $127 $205 forward $304 $-1 #
edge $-1 $315 10.749008505978765 $316 16.629231556171746 $204 $317 forward 7 unknown #
loop $-1 $-1 $211 $128 #
plane-surface $-1 -68.877834406567558 20.042755307947807 2.4848789471140407 -0.6560590369687036 0 0.75470957328743171 0.75470957328743171 0 0.6560590369687036 forward_v I I I I #
loop $-1 $-1 $318 $82 #
coedge $-1 $209 $209 $210 $319 reversed $129 $-1 #
coedge $-1 $210 $210 $209 $319 forward $131 $-1 #
coedge $-1 $211 $211 $132 $212 forward $206 $-1 #
edge $-1 $320 0 $320 6.2831853071796004 $211 $321 forward 7 unknown #
loop $-1 $-1 $218 $133 #
plane-surface $-1 -68.877834406567558 20.042755307947807 2.4848789471140407 -0.6560590369687036 0 0.75470957328743171 0.75470957328743171 0 0.6560590369687036 forward_v I I I I #
loop $-1 $-1 $322 $85 #
coedge $-1 $216 $216 $217 $323 reversed $134 $-1 #
coedge $-1 $217 $217 $216 $323 forward $136 $-1 #
coedge $-1 $218 $218 $137 $219 forward $213 $-1 #
edge $-1 $324 0 $324 6.2831853071796004 $218 $325 forward 7 unknown #
face $-1 $326 $327 $33 $-1 $328 reversed single #
loop $-1 $-1 $329 $138 #
plane-surface $-1 -68.877834406567587 0 0 1 0 0 0 0 -1 forward_v I I I I #
coedge $-1 $330 $231 $331 $332 forward $139 $-1 #
coedge $-1 $333 $141 $330 $334 forward $89 $-1 #
coedge $-1 $141 $333 $335 $336 forward $89 $-1 #
coedge $-1 $234 $233 $141 $227 reversed $235 $-1 #
edge $-1 $337 -35.289406164766298 $338 35.289406164766298 $226 $339 forward 7 unknown #
coedge $-1 $143 $142 $340 $341 forward $56 $-1 #
coedge $-1 $342 $343 $142 $230 reversed $327 $-1 #
edge $-1 $237 -68.877834406567587 $344 68.877834406567587 $229 $345 forward 7 unknown #
coedge $-1 $223 $346 $143 $232 reversed $139 $-1 #
edge $-1 $347 -68.877834406567587 $236 68.877834406567587 $231 $348 forward 7 unknown #
coedge $-1 $226 $144 $346 $349 forward $235 $-1 #
coedge $-1 $144 $226 $342 $350 reversed $235 $-1 #
loop $-1 $-1 $233 $326 #
vertex $-1 $145 $351 #
vertex $-1 $145 $352 #
straight-curve $-1 68.877834406567587 0 7.5964789691817716 0 1 0 I I #
face $-1 $353 $354 $34 $-1 $355 forward single #
loop $-1 $-1 $248 $146 #
plane-surface $-1 0 -35.289406164766298 0 0 1 0 0 0 1 forward_v I I I I #
coedge $-1 $356 $357 $358 $359 forward $147 $-1 #
coedge $-1 $358 $149 $151 $250 reversed $93 $-1 #
coedge $-1 $149 $358 $360 $361 reversed $93 $-1 #
coedge $-1 $362 $152 $149 $246 forward $252 $-1 #
edge $-1 $254 1.5482394845908858 $363 4.5482394845908853 $245 $364 forward 7 unknown #
coedge $-1 $151 $150 $356 $365 reversed $59 $-1 #
coedge $-1 $366 $367 $150 $249 forward $240 $-1 #
edge $-1 $368 -68.877834406567587 $253 68.877834406567587 $248 $369 forward 7 unknown #
edge $-1 $370 -68.877834406567587 $254 68.877834406567587 $243 $371 forward 7 unknown #
coedge $-1 $152 $362 $366 $372 forward $252 $-1 #
loop $-1 $-1 $245 $353 #
vertex $-1 $249 $373 #
vertex $-1 $153 $374 #
straight-curve $-1 68.877834406567587 -16.359687503540584 4.5964789691817716 0 1 0 I I #
face $-1 $-1 $268 $35 $-1 $375 forward single #
loop $-1 $-1 $376 $154 #
plane-surface $-1 68.877834406567587 0 0 -1 0 0 0 0 1 forward_v I I I I #
coedge $-1 $377 $378 $379 $380 reversed $155 $-1 #
coedge $-1 $381 $157 $159 $266 forward $97 $-1 #
coedge $-1 $157 $381 $377 $382 forward $97 $-1 #
coedge $-1 $379 $160 $157 $263 forward $268 $-1 #
edge $-1 $270 -13.762460748729225 $383 -6.4233432699534703 $262 $384 forward 7 unknown #
coedge $-1 $385 $386 $158 $265 forward $257 $-1 #
edge $-1 $387 -93.995786711070195 $269 -89.644351474731891 $264 $388 forward 7 unknown #
edge $-1 $270 132.50688958042969 $387 137.75566881313517 $159 $389 forward 7 unknown #
coedge $-1 $160 $379 $385 $390 forward $268 $-1 #
loop $-1 $-1 $379 $256 #
vertex $-1 $265 $391 #
vertex $-1 $161 $392 #
straight-curve $-1 53.025235016573916 23.855362758070573 7.5964789691817742 -1 0 0 I I #
coedge $-1 $272 $272 $-1 $393 reversed $164 $-1 #
edge $-1 $394 0 $394 6.2831853071796004 $165 $395 forward 7 unknown #
vertex $-1 $168 $396 #
ellipse-curve $-1 67.410294388575423 18.613135987516458 5.4207613510126267 0.82903758062907751 0 0.55919289150049634 0.27959644575024817 0 -0.41451879031453875 1 I I #
coedge $-1 $276 $276 $-1 $397 reversed $171 $-1 #
edge $-1 $398 0 $398 6.2831853071796004 $172 $399 forward 7 unknown #
vertex $-1 $175 $400 #
ellipse-curve $-1 67.410294388575423 21.758472049848926 5.4207613510126267 0.82903758062907751 0 0.55919289150049634 0.27959644575024817 0 -0.41451879031453875 1 I I #
face $-1 $-1 $401 $38 $-1 $402 reversed single #
loop $-1 $-1 $182 $176 #
plane-surface $-1 0 0 7.5964789691817716 0 0 1 1 0 0 forward_v I I I I #
coedge $-1 $403 $404 $405 $406 reversed $177 $-1 #
coedge $-1 $407 $179 $181 $290 forward $111 $-1 #
coedge $-1 $179 $407 $403 $408 forward $111 $-1 #
coedge $-1 $405 $182 $179 $287 forward $281 $-1 #
edge $-1 $293 -14.624655319407132 $409 -0.27803767317040951 $286 $410 forward 7 unknown #
coedge $-1 $411 $412 $180 $289 forward $401 $-1 #
edge $-1 $413 -50.740321540386006 $292 -45.628721518318251 $288 $414 forward 7 unknown #
edge $-1 $293 -7.7913720168930034 $413 3.776566559949536e-014 $181 $415 forward 7 unknown #
coedge $-1 $182 $405 $411 $416 forward $281 $-1 #
vertex $-1 $289 $417 #
vertex $-1 $183 $418 #
straight-curve $-1 -79.626842912546351 -22.076001815695903 7.5964789691817742 1 0 0 I I #
coedge $-1 $295 $295 $-1 $419 reversed $186 $-1 #
edge $-1 $420 0 $420 6.2831853071796004 $187 $421 forward 7 unknown #
vertex $-1 $190 $422 #
ellipse-curve $-1 -65.937722881471089 -17.976968202485413 5.040678958147895 -0.6560590369687036 0 0.75470957328743171 0.75470957328743171 0 0.6560590369687036 1 I I #
coedge $-1 $299 $299 $-1 $423 reversed $193 $-1 #
edge $-1 $424 0 $424 6.2831853071796004 $194 $425 forward 7 unknown #
vertex $-1 $197 $426 #
ellipse-curve $-1 -65.937722881471089 -11.828417782669675 5.040678958147895 -0.6560590369687036 0 0.75470957328743171 0.75470957328743171 0 0.6560590369687036 1 I I #
face $-1 $-1 $427 $41 $-1 $428 reversed single #
loop $-1 $-1 $204 $198 #
plane-surface $-1 0 0 7.5964789691817716 0 0 1 1 0 0 forward_v I I I I #
coedge $-1 $429 $430 $431 $432 reversed $199 $-1 #
coedge $-1 $433 $201 $203 $313 forward $125 $-1 #
coedge $-1 $201 $433 $429 $434 forward $125 $-1 #
coedge $-1 $431 $204 $201 $310 forward $304 $-1 #
edge $-1 $316 2.8480688308555422 $435 17.194686477092265 $309 $436 forward 7 unknown #
coedge $-1 $437 $438 $202 $312 forward $427 $-1 #
edge $-1 $439 -50.740321540386006 $315 -45.628721518318251 $311 $440 forward 7 unknown #
edge $-1 $316 -7.7913720168930034 $439 3.776566559949536e-014 $203 $441 forward 7 unknown #
coedge $-1 $204 $431 $437 $442 forward $304 $-1 #
vertex $-1 $205 $443 #
vertex $-1 $205 $444 #
straight-curve $-1 -79.626842912546351 12.869446484829446 7.5964789691817742 1 0 0 I I #
coedge $-1 $318 $318 $-1 $445 reversed $208 $-1 #
edge $-1 $446 0 $446 6.2831853071796004 $209 $447 forward 7 unknown #
vertex $-1 $212 $448 #
ellipse-curve $-1 -65.937722881471089 16.96848009803994 5.040678958147895 -0.6560590369687036 0 0.75470957328743171 0.75470957328743171 0 0.6560590369687036 1 I I #
coedge $-1 $322 $322 $-1 $449 reversed $215 $-1 #
edge $-1 $450 0 $450 6.2831853071796004 $216 $451 forward 7 unknown #
vertex $-1 $219 $452 #
ellipse-curve $-1 -65.937722881471089 23.117030517855675 5.040678958147895 -0.6560590369687036 0 0.75470957328743171 0.75470957328743171 0 0.6560590369687036 1 I I #
face $-1 $-1 $235 $33 $-1 $453 reversed single #
loop $-1 $-1 $342 $220 #
plane-surface $-1 0 35.289406164766298 0 0 -1 0 0 0 -1 forward_v I I I I #
coedge $-1 $454 $340 $343 $455 forward $221 $-1 #
coedge $-1 $346 $223 $224 $334 reversed $139 $-1 #
coedge $-1 $340 $454 $223 $332 reversed $221 $-1 #
edge $-1 $347 -7.5964789691817716 $456 7.5964789691817716 $331 $457 forward 7 unknown #
coedge $-1 $225 $224 $454 $458 forward $89 $-1 #
edge $-1 $338 -68.877834406567587 $456 68.877834406567587 $330 $459 forward 7 unknown #
coedge $-1 $343 $342 $225 $336 reversed $327 $-1 #
edge $-1 $460 -68.877834406567587 $337 68.877834406567587 $335 $461 forward 7 unknown #
vertex $-1 $227 $462 #
vertex $-1 $349 $463 #
straight-curve $-1 68.877834406567587 0 -7.5964789691817716 0 -1 0 I I #
coedge $-1 $329 $331 $228 $341 reversed $221 $-1 #
edge $-1 $344 -35.289406164766298 $347 35.289406164766298 $340 $464 forward 7 unknown #
coedge $-1 $335 $229 $234 $350 forward $327 $-1 #
coedge $-1 $229 $335 $329 $455 reversed $327 $-1 #
vertex $-1 $230 $465 #
straight-curve $-1 0 35.289406164766298 7.5964789691817716 -1 0 0 I I #
coedge $-1 $231 $330 $233 $349 reversed $139 $-1 #
vertex $-1 $341 $466 #
straight-curve $-1 0 -35.289406164766298 7.5964789691817716 1 0 0 I I #
edge $-1 $236 -7.5964789691817716 $338 7.5964789691817716 $233 $467 forward 7 unknown #
edge $-1 $237 -7.5964789691817716 $337 7.5964789691817716 $234 $468 forward 7 unknown #
point $-1 68.877834406567587 -35.289406164766298 7.5964789691817716 #
point $-1 68.877834406567587 35.289406164766298 7.5964789691817716 #
face $-1 $-1 $252 $34 $-1 $469 reversed single #
loop $-1 $-1 $360 $239 #
plane-surface $-1 0 0 7.5964789691817716 0 0 1 1 0 0 forward_v I I I I #
coedge $-1 $470 $242 $247 $365 forward $147 $-1 #
coedge $-1 $242 $470 $471 $472 reversed $147 $-1 #
coedge $-1 $244 $243 $242 $359 reversed $93 $-1 #
edge $-1 $473 -4.5482394845908853 $370 -1.5482394845908858 $242 $474 forward 7 unknown #
coedge $-1 $471 $475 $244 $361 forward $354 $-1 #
edge $-1 $363 -68.877834406567587 $473 68.877834406567587 $360 $476 forward 7 unknown #
coedge $-1 $251 $245 $475 $477 reversed $252 $-1 #
vertex $-1 $246 $478 #
straight-curve $-1 68.877834406567587 -30.14934384939604 3.0482394845908858 0 0 1 I I #
edge $-1 $370 13.789656345855455 $368 18.929718661225714 $356 $479 forward 7 unknown #
coedge $-1 $480 $248 $251 $372 reversed $240 $-1 #
coedge $-1 $248 $480 $470 $481 forward $240 $-1 #
vertex $-1 $249 $482 #
straight-curve $-1 0 -35.289406164766298 4.5964789691817716 1 0 0 I I #
vertex $-1 $365 $483 #
straight-curve $-1 0 -30.14934384939604 4.5964789691817716 1 0 0 I I #
edge $-1 $484 -7.5964789691817716 $253 -4.5964789691817716 $251 $485 forward 7 unknown #
point $-1 68.877834406567587 -35.289406164766298 4.5964789691817716 #
point $-1 68.877834406567587 -30.14934384939604 4.5964789691817716 #
plane-surface $-1 0 0 7.5964789691817716 0 0 1 1 0 0 forward_v I I I I #
coedge $-1 $386 $385 $378 $486 forward $257 $-1 #
coedge $-1 $378 $259 $261 $382 reversed $155 $-1 #
coedge $-1 $259 $377 $376 $486 reversed $155 $-1 #
coedge $-1 $267 $262 $259 $380 forward $268 $-1 #
edge $-1 $383 12.917519354009329 $487 15.852599389993671 $379 $488 forward 7 unknown #
coedge $-1 $261 $260 $386 $489 reversed $97 $-1 #
edge $-1 $490 -137.75566881313517 $383 -132.50688958042969 $377 $491 forward 7 unknown #
vertex $-1 $263 $492 #
straight-curve $-1 65.942754370583259 10.092902009341348 7.5964789691817742 0 -1 0 I I #
coedge $-1 $376 $264 $267 $390 reversed $257 $-1 #
coedge $-1 $264 $376 $381 $489 forward $257 $-1 #
vertex $-1 $265 $493 #
straight-curve $-1 68.877834406567587 23.855362758070573 97.240830443913666 0 0 1 I I #
straight-curve $-1 -8.1541563576342213 23.855362758070573 117.44967012362552 0.55919289150049634 0 -0.82903758062907751 I I #
edge $-1 $487 16.516245279294818 $269 23.855362758070573 $385 $494 forward 7 unknown #
point $-1 68.877834406567587 23.855362758070573 7.5964789691817716 #
point $-1 65.942754370583245 23.855362758070573 7.5964789691817742 #
edge $-1 $495 1 $495 0 $272 $-1 forward 7 unknown #
vertex $-1 $273 $496 #
ellipse-curve $-1 66.581256807946332 18.613135987516458 4.8615684595121262 0.82903758062907751 0 0.55919289150049634 0.27959644575024817 0 -0.41451879031453875 1 I I #
point $-1 67.689890834325666 18.613135987516458 5.0062425606980838 #
edge $-1 $497 1 $497 0 $276 $-1 forward 7 unknown #
vertex $-1 $277 $498 #
ellipse-curve $-1 66.581256807946332 21.758472049848926 4.8615684595121262 0.82903758062907751 0 0.55919289150049634 0.27959644575024817 0 -0.41451879031453875 1 I I #
point $-1 67.689890834325666 21.758472049848926 5.0062425606980838 #
loop $-1 $-1 $288 $280 #
plane-surface $-1 -68.877834406567587 0 0 1 0 0 0 0 -1 forward_v I I I I #
coedge $-1 $404 $283 $285 $408 reversed $177 $-1 #
coedge $-1 $283 $403 $499 $500 reversed $177 $-1 #
coedge $-1 $291 $286 $283 $406 forward $281 $-1 #
edge $-1 $409 -16.629231556171746 $501 -10.749008505978765 $405 $502 forward 7 unknown #
coedge $-1 $285 $284 $412 $503 reversed $111 $-1 #
edge $-1 $504 -3.776566559949536e-014 $409 7.7913720168930034 $403 $505 forward 7 unknown #
vertex $-1 $287 $506 #
straight-curve $-1 -62.997611356374605 -7.451346496288771 7.5964789691817725 0 1 0 I I #
coedge $-1 $499 $288 $291 $416 reversed $401 $-1 #
coedge $-1 $288 $499 $407 $503 forward $401 $-1 #
vertex $-1 $289 $507 #
straight-curve $-1 -68.877834406567587 -22.076001815695903 53.225200487500025 0 0 1 I I #
straight-curve $-1 -68.877834406567558 -22.076001815695903 2.4848789471140407 -0.75470957328743171 0 -0.6560590369687036 I I #
edge $-1 $501 7.7293841694591805 $292 22.076001815695903 $411 $508 forward 7 unknown #
point $-1 -68.877834406567587 -22.076001815695903 7.5964789691817716 #
point $-1 -62.997611356374605 -22.076001815695903 7.5964789691817716 #
edge $-1 $509 1 $509 0 $295 $-1 forward 7 unknown #
vertex $-1 $296 $510 #
ellipse-curve $-1 -63.446772814381859 -17.976968202485413 2.1751687581826173 -0.6560590369687036 0 0.75470957328743171 0.75470957328743171 0 0.6560590369687036 1 I I #
point $-1 -65.183013308183675 -17.976968202485413 5.6967379951166119 #
edge $-1 $511 1 $511 0 $299 $-1 forward 7 unknown #
vertex $-1 $300 $512 #
ellipse-curve $-1 -63.446772814381859 -11.828417782669675 2.1751687581826173 -0.6560590369687036 0 0.75470957328743171 0.75470957328743171 0 0.6560590369687036 1 I I #
point $-1 -65.183013308183675 -11.828417782669675 5.6967379951166119 #
loop $-1 $-1 $311 $303 #
plane-surface $-1 -68.877834406567587 0 0 1 0 0 0 0 -1 forward_v I I I I #
coedge $-1 $430 $306 $308 $434 reversed $199 $-1 #
coedge $-1 $306 $429 $513 $514 reversed $199 $-1 #
coedge $-1 $314 $309 $306 $432 forward $304 $-1 #
edge $-1 $435 -16.629231556171746 $515 -10.749008505978765 $431 $516 forward 7 unknown #
coedge $-1 $308 $307 $438 $517 reversed $125 $-1 #
edge $-1 $518 -3.776566559949536e-014 $435 7.7913720168930034 $429 $519 forward 7 unknown #
vertex $-1 $310 $520 #
straight-curve $-1 -62.997611356374605 10.021377653973904 7.5964789691817725 0 1 0 I I #
coedge $-1 $513 $311 $314 $442 reversed $427 $-1 #
coedge $-1 $311 $513 $433 $517 forward $427 $-1 #
vertex $-1 $312 $521 #
straight-curve $-1 -68.877834406567587 12.869446484829446 53.225200487500025 0 0 1 I I #
straight-curve $-1 -68.877834406567558 12.869446484829446 2.4848789471140407 -0.75470957328743171 0 -0.6560590369687036 I I #
edge $-1 $515 -27.216064131066169 $315 -12.869446484829446 $437 $522 forward 7 unknown #
point $-1 -68.877834406567587 12.869446484829446 7.5964789691817716 #
point $-1 -62.997611356374605 12.869446484829446 7.5964789691817716 #
edge $-1 $523 1 $523 0 $318 $-1 forward 7 unknown #
vertex $-1 $319 $524 #
ellipse-curve $-1 -63.446772814381859 16.96848009803994 2.1751687581826173 -0.6560590369687036 0 0.75470957328743171 0.75470957328743171 0 0.6560590369687036 1 I I #
point $-1 -65.183013308183675 16.96848009803994 5.6967379951166119 #
edge $-1 $525 1 $525 0 $322 $-1 forward 7 unknown #
vertex $-1 $323 $526 #
ellipse-curve $-1 -63.446772814381859 23.117030517855675 2.1751687581826173 -0.6560590369687036 0 0.75470957328743171 0.75470957328743171 0 0.6560590369687036 1 I I #
point $-1 -65.183013308183675 23.117030517855675 5.6967379951166119 #
plane-surface $-1 68.877834406567587 0 0 -1 0 0 0 0 1 forward_v I I I I #
coedge $-1 $331 $329 $333 $458 reversed $221 $-1 #
edge $-1 $344 -7.5964789691817716 $460 7.5964789691817716 $343 $527 forward 7 unknown #
vertex $-1 $458 $528 #
straight-curve $-1 -68.877834406567587 -35.289406164766298 0 0 0 -1 I I #
edge $-1 $456 -35.289406164766298 $460 35.289406164766298 $454 $529 forward 7 unknown #
straight-curve $-1 0 -35.289406164766298 -7.5964789691817716 -1 0 0 I I #
vertex $-1 $336 $530 #
straight-curve $-1 0 35.289406164766298 -7.5964789691817716 1 0 0 I I #
point $-1 68.877834406567587 35.289406164766298 -7.5964789691817716 #
point $-1 68.877834406567587 -35.289406164766298 -7.5964789691817716 #
straight-curve $-1 -68.877834406567587 0 7.5964789691817716 0 -1 0 I I #
point $-1 -68.877834406567587 35.289406164766298 7.5964789691817716 #
point $-1 -68.877834406567587 -35.289406164766298 7.5964789691817716 #
straight-curve $-1 68.877834406567587 -35.289406164766298 0 0 0 -1 I I #
straight-curve $-1 68.877834406567587 35.289406164766298 0 0 0 -1 I I #
plane-surface $-1 68.877834406567587 0 0 -1 0 0 0 0 1 forward_v I I I I #
coedge $-1 $357 $356 $367 $481 reversed $147 $-1 #
coedge $-1 $531 $360 $357 $472 forward $354 $-1 #
edge $-1 $473 30.14934384939604 $532 35.289406164766298 $357 $533 forward 7 unknown #
vertex $-1 $472 $534 #
straight-curve $-1 -68.877834406567587 -30.14934384939604 3.0482394845908858 0 0 -1 I I #
coedge $-1 $360 $531 $362 $477 forward $354 $-1 #
straight-curve $-1 0 -30.14934384939604 7.5964789691817716 -1 0 0 I I #
edge $-1 $484 -35.289406164766298 $363 -30.14934384939604 $362 $535 forward 7 unknown #
point $-1 68.877834406567587 -30.14934384939604 7.5964789691817716 #
straight-curve $-1 -68.877834406567587 -16.359687503540584 4.5964789691817716 0 -1 0 I I #
coedge $-1 $367 $366 $531 $536 reversed $240 $-1 #
edge $-1 $532 -7.5964789691817716 $368 -4.5964789691817716 $470 $537 forward 7 unknown #
point $-1 -68.877834406567587 -35.289406164766298 4.5964789691817716 #
point $-1 -68.877834406567587 -30.14934384939604 4.5964789691817716 #
vertex $-1 $477 $538 #
straight-curve $-1 68.877834406567587 -35.289406164766298 0 0 0 -1 I I #
edge $-1 $487 89.644351474731891 $490 93.995786711070195 $376 $539 forward 7 unknown #
vertex $-1 $390 $540 #
straight-curve $-1 53.025235016573916 16.516245279294818 7.5964789691817742 1 0 0 I I #
edge $-1 $490 6.4233432699534703 $387 13.762460748729225 $386 $541 forward 7 unknown #
vertex $-1 $489 $542 #
straight-curve $-1 -8.1541563576342213 16.516245279294818 117.44967012362552 -0.55919289150049634 0 0.82903758062907751 I I #
point $-1 65.942754370583245 16.516245279294818 7.5964789691817742 #
point $-1 68.877834406567587 23.855362758070573 3.2450437328434703 #
straight-curve $-1 68.877834406567587 0 7.5964789691817716 0 1 0 I I #
vertex $-1 $393 $543 #
point $-1 66.86085325369659 18.613135987516458 4.4470496691975869 #
vertex $-1 $397 $544 #
point $-1 66.86085325369659 21.758472049848926 4.4470496691975869 #
coedge $-1 $412 $411 $404 $500 forward $401 $-1 #
edge $-1 $501 45.628721518318251 $504 50.740321540386006 $499 $545 forward 7 unknown #
vertex $-1 $416 $546 #
straight-curve $-1 -79.626842912546351 -7.7293841694591805 7.5964789691817742 -1 0 0 I I #
edge $-1 $504 0.27803767317040951 $413 14.624655319407132 $412 $547 forward 7 unknown #
vertex $-1 $503 $548 #
straight-curve $-1 -68.877834406567558 -7.7293841694591805 2.4848789471140407 0.75470957328743171 0 0.6560590369687036 I I #
point $-1 -62.997611356374605 -7.7293841694591805 7.5964789691817716 #
point $-1 -68.877834406567587 -22.076001815695903 2.4848789471140158 #
straight-curve $-1 -68.877834406567587 0 7.5964789691817716 0 -1 0 I I #
vertex $-1 $419 $549 #
point $-1 -62.692063241094431 -17.976968202485413 2.8312277951513209 #
vertex $-1 $423 $550 #
point $-1 -62.692063241094431 -11.828417782669675 2.8312277951513209 #
coedge $-1 $438 $437 $430 $514 forward $427 $-1 #
edge $-1 $515 45.628721518318251 $518 50.740321540386006 $513 $551 forward 7 unknown #
vertex $-1 $442 $552 #
straight-curve $-1 -79.626842912546351 27.216064131066169 7.5964789691817742 -1 0 0 I I #
edge $-1 $518 -17.194686477092265 $439 -2.8480688308555422 $438 $553 forward 7 unknown #
vertex $-1 $517 $554 #
straight-curve $-1 -68.877834406567558 27.216064131066169 2.4848789471140407 0.75470957328743171 0 0.6560590369687036 I I #
point $-1 -62.997611356374605 27.216064131066169 7.5964789691817716 #
point $-1 -68.877834406567587 12.869446484829446 2.4848789471140158 #
straight-curve $-1 -68.877834406567587 0 7.5964789691817716 0 -1 0 I I #
vertex $-1 $445 $555 #
point $-1 -62.692063241094431 16.96848009803994 2.8312277951513209 #
vertex $-1 $449 $556 #
point $-1 -62.692063241094431 23.117030517855675 2.8312277951513209 #
straight-curve $-1 -68.877834406567587 35.289406164766298 0 0 0 -1 I I #
point $-1 -68.877834406567587 -35.289406164766298 -7.5964789691817716 #
straight-curve $-1 -68.877834406567587 0 -7.5964789691817716 0 1 0 I I #
point $-1 -68.877834406567587 35.289406164766298 -7.5964789691817716 #
coedge $-1 $475 $471 $480 $536 forward $354 $-1 #
vertex $-1 $472 $557 #
straight-curve $-1 -68.877834406567587 0 7.5964789691817716 0 -1 0 I I #
point $-1 -68.877834406567587 -30.14934384939604 7.5964789691817716 #
straight-curve $-1 68.877834406567587 0 7.5964789691817716 0 1 0 I I #
edge $-1 $532 -68.877834406567587 $484 68.877834406567587 $480 $558 forward 7 unknown #
straight-curve $-1 -68.877834406567587 -35.289406164766298 0 0 0 -1 I I #
point $-1 68.877834406567587 -35.289406164766298 7.5964789691817716 #
straight-curve $-1 68.877834406567587 16.516245279294818 97.240830443913666 0 0 -1 I I #
point $-1 68.877834406567587 16.516245279294818 7.5964789691817716 #
straight-curve $-1 68.877834406567587 10.092902009341348 3.2450437328434703 0 1 0 I I #
point $-1 68.877834406567587 16.516245279294818 3.2450437328434703 #
point $-1 66.166738017631801 18.613135987516458 4.5819720137618773 #
point $-1 66.166738017631801 21.758472049848926 4.5819720137618773 #
straight-curve $-1 -68.877834406567587 -7.7293841694591805 53.225200487500025 0 0 -1 I I #
point $-1 -68.877834406567587 -7.7293841694591805 7.5964789691817716 #
straight-curve $-1 -68.877834406567587 -7.451346496288771 2.4848789471140207 0 -1 0 I I #
point $-1 -68.877834406567587 -7.7293841694591805 2.4848789471140158 #
point $-1 -62.79071377741316 -17.976968202485413 1.4204591848951855 #
point $-1 -62.79071377741316 -11.828417782669675 1.4204591848951855 #
straight-curve $-1 -68.877834406567587 27.216064131066169 53.225200487500025 0 0 -1 I I #
point $-1 -68.877834406567587 27.216064131066169 7.5964789691817716 #
straight-curve $-1 -68.877834406567587 10.021377653973904 2.4848789471140207 0 -1 0 I I #
point $-1 -68.877834406567587 27.216064131066169 2.4848789471140158 #
point $-1 -62.79071377741316 16.96848009803994 1.4204591848951855 #
point $-1 -62.79071377741316 23.117030517855675 1.4204591848951855 #
point $-1 -68.877834406567587 -35.289406164766298 7.5964789691817716 #
straight-curve $-1 0 -35.289406164766298 7.5964789691817716 1 0 0 I I #
End-of-ACIS-data 