500 0 12 0           
7 Unknown 11 ACIS 5.0 NT 24 Fri Mar 26 19:06:28 1999 
-1 9.9999999999999995e-007 1e-010 
body $-1 $12 $-1 $13 #
body $-1 $14 $-1 $15 #
body $-1 $16 $-1 $17 #
body $-1 $18 $-1 $19 #
body $-1 $20 $-1 $21 #
body $-1 $22 $-1 $23 #
body $-1 $24 $-1 $25 #
body $-1 $26 $-1 $27 #
body $-1 $28 $-1 $29 #
body $-1 $30 $-1 $31 #
body $-1 $32 $-1 $33 #
body $-1 $34 $-1 $35 #
lump $-1 $-1 $36 $0 #
transform $-1 1 0 0 0 1 0 0 0 1 54.363231299783322 22.576493999487031 10.133619214339287 1 rotate no_reflect no_shear #
lump $-1 $-1 $37 $1 #
transform $-1 1 0 0 0 1 0 0 0 1 54.363231299783322 22.576493999487031 10.133619214339287 1 rotate no_reflect no_shear #
lump $-1 $-1 $38 $2 #
transform $-1 1 0 0 0 1 0 0 0 1 54.363231299783322 22.576493999487031 10.133619214339287 1 rotate no_reflect no_shear #
lump $-1 $-1 $39 $3 #
transform $-1 1 0 0 0 1 0 0 0 1 54.363231299783322 22.576493999487031 10.133619214339287 1 rotate no_reflect no_shear #
lump $-1 $-1 $40 $4 #
transform $-1 1 0 0 0 1 0 0 0 1 54.363231299783322 22.576493999487031 10.133619214339287 1 rotate no_reflect no_shear #
lump $-1 $-1 $41 $5 #
transform $-1 1 0 0 0 1 0 0 0 1 54.363231299783322 22.576493999487031 10.133619214339287 1 rotate no_reflect no_shear #
lump $-1 $-1 $42 $6 #
transform $-1 1 0 0 0 1 0 0 0 1 54.363231299783322 22.576493999487031 10.133619214339287 1 rotate no_reflect no_shear #
lump $-1 $-1 $43 $7 #
transform $-1 1 0 0 0 1 0 0 0 1 54.363231299783322 22.576493999487031 10.133619214339287 1 rotate no_reflect no_shear #
lump $-1 $-1 $44 $8 #
transform $-1 1 0 0 0 1 0 0 0 1 54.363231299783322 22.576493999487031 10.133619214339287 1 rotate no_reflect no_shear #
lump $-1 $-1 $45 $9 #
transform $-1 1 0 0 0 1 0 0 0 1 54.363231299783322 22.576493999487031 10.133619214339287 1 rotate no_reflect no_shear #
lump $-1 $-1 $46 $10 #
transform $-1 1 0 0 0 1 0 0 0 1 54.363231299783322 22.576493999487031 10.133619214339287 1 rotate no_reflect no_shear #
lump $-1 $-1 $47 $11 #
transform $-1 1 0 0 0 1 0 0 0 1 54.363231299783322 22.576493999487031 10.133619214339287 1 rotate no_reflect no_shear #
shell $-1 $-1 $-1 $48 $-1 $12 #
shell $-1 $-1 $-1 $49 $-1 $14 #
shell $-1 $-1 $-1 $50 $-1 $16 #
shell $-1 $-1 $-1 $51 $-1 $18 #
shell $-1 $-1 $-1 $52 $-1 $20 #
shell $-1 $-1 $-1 $53 $-1 $22 #
shell $-1 $-1 $-1 $54 $-1 $24 #
shell $-1 $-1 $-1 $55 $-1 $26 #
shell $-1 $-1 $-1 $56 $-1 $28 #
shell $-1 $-1 $-1 $57 $-1 $30 #
shell $-1 $-1 $-1 $58 $-1 $32 #
shell $-1 $-1 $-1 $59 $-1 $34 #
face $-1 $60 $61 $36 $-1 $62 forward single #
face $-1 $63 $64 $37 $-1 $65 forward single #
face $-1 $66 $67 $38 $-1 $68 reversed single #
face $-1 $69 $70 $39 $-1 $71 forward single #
face $-1 $72 $73 $40 $-1 $74 forward single #
face $-1 $75 $76 $41 $-1 $77 forward single #
face $-1 $78 $79 $42 $-1 $80 reversed single #
face $-1 $81 $82 $43 $-1 $83 forward single #
face $-1 $84 $85 $44 $-1 $86 forward single #
face $-1 $87 $88 $45 $-1 $89 reversed single #
face $-1 $90 $91 $46 $-1 $92 forward single #
face $-1 $93 $94 $47 $-1 $95 forward single #
face $-1 $96 $97 $36 $-1 $98 reversed single #
loop $-1 $-1 $99 $48 #
plane-surface $-1 0 0 10.133619214339287 0 0 1 1 0 0 forward_v I I I I #
face $-1 $100 $101 $37 $-1 $102 reversed single #
loop $-1 $-1 $103 $49 #
plane-surface $-1 0 -17.871880793546232 -3.1183104784160349 0 0 1 1 0 0 forward_v I I I I #
face $-1 $104 $105 $38 $-1 $106 reversed single #
loop $-1 $-1 $107 $50 #
plane-surface $-1 75.762828687777628 -13.167267587605433 156.87794633173007 0 1 0 0.79863551827123203 0 0.60181501223851219 forward_v I I I I #
face $-1 $108 $109 $39 $-1 $110 forward single #
loop $-1 $111 $112 $51 #
cone-surface $-1 51.883461975008252 -11.551098376622557 7.0718591529099433 -0.79863551827123203 0 -0.60181501223851219 0.3009075061192561 0 -0.39931775913561601 1 I I 0 1 0.5 forward I I I I #
face $-1 $113 $114 $40 $-1 $115 forward single #
loop $-1 $116 $117 $52 #
cone-surface $-1 51.883461975008252 -9.1268445601482391 7.0718591529099433 -0.79863551827123203 0 -0.60181501223851219 0.3009075061192561 0 -0.39931775913561601 1 I I 0 1 0.5 forward I I I I #
face $-1 $118 $119 $41 $-1 $120 forward single #
loop $-1 $121 $122 $53 #
cone-surface $-1 51.883461975008252 -6.7025907436739196 7.0718591529099433 -0.79863551827123203 0 -0.60181501223851219 0.3009075061192561 0 -0.39931775913561601 1 I I 0 1 0.5 forward I I I I #
face $-1 $123 $124 $42 $-1 $125 reversed single #
loop $-1 $-1 $126 $54 #
plane-surface $-1 -132.57450409347166 -6.9509211656120673 82.283425531083552 0 1 0 -0.71933980857756763 0 0.69465836192734942 forward_v I I I I #
face $-1 $127 $128 $43 $-1 $129 forward single #
loop $-1 $130 $131 $55 #
cone-surface $-1 -52.054692921624131 -4.9368320952790228 7.790376688509995 0.71933980857756763 0 -0.69465836192734942 0.34732918096367471 0 0.35966990428878381 1 I I 0 1 0.5 forward I I I I #
face $-1 $132 $133 $44 $-1 $134 forward single #
loop $-1 $135 $136 $56 #
cone-surface $-1 -52.054692921624131 -1.9156984897794587 7.790376688509995 0.71933980857756763 0 -0.69465836192734942 0.34732918096367471 0 0.35966990428878381 1 I I 0 1 0.5 forward I I I I #
face $-1 $137 $138 $45 $-1 $139 reversed single #
loop $-1 $-1 $140 $57 #
plane-surface $-1 -132.57450409347166 10.920959627934165 82.283425531083552 0 1 0 -0.71933980857756763 0 0.69465836192734942 forward_v I I I I #
face $-1 $141 $142 $46 $-1 $143 forward single #
loop $-1 $144 $145 $58 #
cone-surface $-1 -52.054692921624131 12.935048698267206 7.790376688509995 0.71933980857756763 0 -0.69465836192734942 0.34732918096367471 0 0.35966990428878381 1 I I 0 1 0.5 forward I I I I #
face $-1 $146 $147 $47 $-1 $148 forward single #
loop $-1 $149 $150 $59 #
cone-surface $-1 -52.054692921624131 15.956182303766777 7.790376688509995 0.71933980857756763 0 -0.69465836192734942 0.34732918096367471 0 0.35966990428878381 1 I I 0 1 0.5 forward I I I I #
face $-1 $151 $152 $36 $-1 $153 reversed single #
loop $-1 $-1 $154 $60 #
plane-surface $-1 0 0 -10.133619214339287 0 0 1 1 0 0 forward_v I I I I #
coedge $-1 $155 $156 $157 $158 forward $61 $-1 #
face $-1 $159 $160 $37 $-1 $161 reversed single #
loop $-1 $-1 $162 $63 #
plane-surface $-1 0 -17.871880793546232 -7.3807580684777641 0 0 1 1 0 0 forward_v I I I I #
coedge $-1 $163 $164 $165 $166 reversed $64 $-1 #
face $-1 $167 $168 $38 $-1 $169 reversed single #
loop $-1 $-1 $170 $66 #
plane-surface $-1 -11.06998612022501 -9.1268445601482355 91.444728911721739 0.79863551827123203 0 0.60181501223851219 0.60181501223851219 0 -0.79863551827123203 forward_v I I I I #
coedge $-1 $171 $172 $173 $174 reversed $67 $-1 #
face $-1 $-1 $175 $39 $-1 $176 forward single #
loop $-1 $177 $178 $69 #
cone-surface $-1 51.284485336304826 -11.551098376622557 6.6204978937310592 -0.79863551827123203 0 -0.60181501223851219 0.15045375305962805 0 -0.19965887956780801 1 I I -0.70710678118654746 0.70710678118654746 0.25 forward I I I I #
loop $-1 $-1 $179 $51 #
coedge $-1 $112 $112 $180 $181 reversed $70 $-1 #
face $-1 $-1 $182 $40 $-1 $183 forward single #
loop $-1 $184 $185 $72 #
cone-surface $-1 51.284485336304826 -9.1268445601482391 6.6204978937310592 -0.79863551827123203 0 -0.60181501223851219 0.15045375305962805 0 -0.19965887956780801 1 I I -0.70710678118654746 0.70710678118654746 0.25 forward I I I I #
loop $-1 $-1 $186 $52 #
coedge $-1 $117 $117 $187 $188 reversed $73 $-1 #
face $-1 $-1 $189 $41 $-1 $190 forward single #
loop $-1 $191 $192 $75 #
cone-surface $-1 51.284485336304826 -6.7025907436739196 6.6204978937310592 -0.79863551827123203 0 -0.60181501223851219 0.15045375305962805 0 -0.19965887956780801 1 I I -0.70710678118654746 0.70710678118654746 0.25 forward I I I I #
loop $-1 $-1 $193 $53 #
coedge $-1 $122 $122 $194 $195 reversed $76 $-1 #
face $-1 $196 $197 $42 $-1 $198 reversed single #
loop $-1 $-1 $199 $78 #
plane-surface $-1 -54.363231299783322 -3.4262652925292407 6.7556791235133602 -0.71933980857756763 0 0.69465836192734942 0.69465836192734942 0 0.71933980857756763 forward_v I I I I #
coedge $-1 $200 $201 $202 $203 reversed $79 $-1 #
face $-1 $-1 $204 $43 $-1 $205 forward single #
loop $-1 $206 $207 $81 #
cone-surface $-1 -51.197338966448612 -4.9368320952790228 6.9624396176118282 0.71933980857756763 0 -0.69465836192734942 0.17366459048183736 0 0.17983495214439191 1 I I -0.70710678118654746 0.70710678118654746 0.25 forward I I I I #
loop $-1 $-1 $208 $55 #
coedge $-1 $131 $131 $209 $210 reversed $82 $-1 #
face $-1 $-1 $211 $44 $-1 $212 forward single #
loop $-1 $213 $214 $84 #
cone-surface $-1 -51.197338966448612 -1.9156984897794587 6.9624396176118282 0.71933980857756763 0 -0.69465836192734942 0.17366459048183736 0 0.17983495214439191 1 I I -0.70710678118654746 0.70710678118654746 0.25 forward I I I I #
loop $-1 $-1 $215 $56 #
coedge $-1 $136 $136 $216 $217 reversed $85 $-1 #
face $-1 $218 $219 $45 $-1 $220 reversed single #
loop $-1 $-1 $221 $87 #
plane-surface $-1 -54.363231299783322 14.445615501016992 6.7556791235133602 -0.71933980857756763 0 0.69465836192734942 0.69465836192734942 0 0.71933980857756763 forward_v I I I I #
coedge $-1 $222 $223 $224 $225 reversed $88 $-1 #
face $-1 $-1 $226 $46 $-1 $227 forward single #
loop $-1 $228 $229 $90 #
cone-surface $-1 -51.197338966448612 12.935048698267206 6.9624396176118282 0.71933980857756763 0 -0.69465836192734942 0.17366459048183736 0 0.17983495214439191 1 I I -0.70710678118654746 0.70710678118654746 0.25 forward I I I I #
loop $-1 $-1 $230 $58 #
coedge $-1 $145 $145 $231 $232 reversed $91 $-1 #
face $-1 $-1 $233 $47 $-1 $234 forward single #
loop $-1 $235 $236 $93 #
cone-surface $-1 -51.197338966448612 15.956182303766777 6.9624396176118282 0.71933980857756763 0 -0.69465836192734942 0.17366459048183736 0 0.17983495214439191 1 I I -0.70710678118654746 0.70710678118654746 0.25 forward I I I I #
loop $-1 $-1 $237 $59 #
coedge $-1 $150 $150 $238 $239 reversed $94 $-1 #
face $-1 $240 $241 $36 $-1 $242 reversed single #
loop $-1 $-1 $243 $96 #
plane-surface $-1 0 -22.576493999487031 0 0 1 0 0 0 1 forward_v I I I I #
coedge $-1 $244 $245 $246 $247 forward $97 $-1 #
coedge $-1 $248 $99 $249 $250 forward $61 $-1 #
coedge $-1 $99 $248 $251 $252 forward $61 $-1 #
coedge $-1 $253 $254 $99 $158 reversed $255 $-1 #
edge $-1 $256 -22.576493999487031 $257 22.576493999487031 $157 $258 forward 7 unknown #
face $-1 $259 $260 $37 $-1 $261 reversed single #
loop $-1 $-1 $262 $100 #
plane-surface $-1 0 -13.167267587605433 -5.2495342734468995 0 -1 0 0 0 -1 forward_v I I I I #
coedge $-1 $263 $264 $265 $266 reversed $101 $-1 #
coedge $-1 $267 $103 $268 $269 forward $64 $-1 #
coedge $-1 $103 $267 $270 $271 reversed $64 $-1 #
coedge $-1 $272 $273 $103 $166 forward $274 $-1 #
edge $-1 $275 4.2313271908323173 $276 13.640553602713915 $165 $277 forward 7 unknown #
face $-1 $278 $279 $38 $-1 $280 forward single #
loop $-1 $-1 $281 $104 #
plane-surface $-1 75.762828687777628 -5.0864215326910367 156.87794633173007 0 -1 0 -0.79863551827123203 0 -0.60181501223851219 forward_v I I I I #
coedge $-1 $282 $283 $284 $285 reversed $105 $-1 #
coedge $-1 $172 $107 $286 $287 reversed $67 $-1 #
coedge $-1 $107 $171 $282 $288 reversed $67 $-1 #
coedge $-1 $284 $289 $107 $174 forward $290 $-1 #
edge $-1 $291 68.305353951525746 $292 73.827059062145921 $173 $293 forward 7 unknown #
loop $-1 $-1 $180 $108 #
plane-surface $-1 -11.06998612022501 -9.1268445601482355 91.444728911721739 0.79863551827123203 0 0.60181501223851219 0.60181501223851219 0 -0.79863551827123203 forward_v I I I I #
loop $-1 $-1 $294 $69 #
coedge $-1 $178 $178 $179 $295 reversed $109 $-1 #
coedge $-1 $179 $179 $178 $295 forward $111 $-1 #
coedge $-1 $180 $180 $112 $181 forward $175 $-1 #
edge $-1 $296 0 $296 6.2831853071796004 $180 $297 forward 7 unknown #
loop $-1 $-1 $187 $113 #
plane-surface $-1 -11.06998612022501 -9.1268445601482355 91.444728911721739 0.79863551827123203 0 0.60181501223851219 0.60181501223851219 0 -0.79863551827123203 forward_v I I I I #
loop $-1 $-1 $298 $72 #
coedge $-1 $185 $185 $186 $299 reversed $114 $-1 #
coedge $-1 $186 $186 $185 $299 forward $116 $-1 #
coedge $-1 $187 $187 $117 $188 forward $182 $-1 #
edge $-1 $300 0 $300 6.2831853071796004 $187 $301 forward 7 unknown #
loop $-1 $-1 $194 $118 #
plane-surface $-1 -11.06998612022501 -9.1268445601482355 91.444728911721739 0.79863551827123203 0 0.60181501223851219 0.60181501223851219 0 -0.79863551827123203 forward_v I I I I #
loop $-1 $-1 $302 $75 #
coedge $-1 $192 $192 $193 $303 reversed $119 $-1 #
coedge $-1 $193 $193 $192 $303 forward $121 $-1 #
coedge $-1 $194 $194 $122 $195 forward $189 $-1 #
edge $-1 $304 0 $304 6.2831853071796004 $194 $305 forward 7 unknown #
face $-1 $306 $307 $42 $-1 $308 reversed single #
loop $-1 $-1 $309 $123 #
plane-surface $-1 -132.57450409347166 0.098390580553585849 82.283425531083552 0 -1 0 0.71933980857756763 0 -0.69465836192734942 forward_v I I I I #
coedge $-1 $310 $311 $312 $313 reversed $124 $-1 #
coedge $-1 $201 $126 $314 $315 reversed $79 $-1 #
coedge $-1 $126 $200 $310 $316 reversed $79 $-1 #
coedge $-1 $312 $317 $126 $203 forward $318 $-1 #
edge $-1 $319 11.924020746952507 $320 15.186059497208646 $202 $321 forward 7 unknown #
loop $-1 $-1 $209 $127 #
plane-surface $-1 -54.363231299783322 -3.4262652925292407 6.7556791235133602 -0.71933980857756763 0 0.69465836192734942 0.69465836192734942 0 0.71933980857756763 forward_v I I I I #
loop $-1 $-1 $322 $81 #
coedge $-1 $207 $207 $208 $323 reversed $128 $-1 #
coedge $-1 $208 $208 $207 $323 forward $130 $-1 #
coedge $-1 $209 $209 $131 $210 forward $204 $-1 #
edge $-1 $324 0 $324 6.2831853071796004 $209 $325 forward 7 unknown #
loop $-1 $-1 $216 $132 #
plane-surface $-1 -54.363231299783322 -3.4262652925292407 6.7556791235133602 -0.71933980857756763 0 0.69465836192734942 0.69465836192734942 0 0.71933980857756763 forward_v I I I I #
loop $-1 $-1 $326 $84 #
coedge $-1 $214 $214 $215 $327 reversed $133 $-1 #
coedge $-1 $215 $215 $214 $327 forward $135 $-1 #
coedge $-1 $216 $216 $136 $217 forward $211 $-1 #
edge $-1 $328 0 $328 6.2831853071796004 $216 $329 forward 7 unknown #
face $-1 $330 $331 $45 $-1 $332 forward single #
loop $-1 $-1 $333 $137 #
plane-surface $-1 -132.57450409347166 17.970271374099816 82.283425531083552 0 -1 0 0.71933980857756763 0 -0.69465836192734942 forward_v I I I I #
coedge $-1 $334 $335 $336 $337 reversed $138 $-1 #
coedge $-1 $223 $140 $338 $339 reversed $88 $-1 #
coedge $-1 $140 $222 $334 $340 reversed $88 $-1 #
coedge $-1 $336 $341 $140 $225 forward $331 $-1 #
edge $-1 $342 11.924020746952507 $343 15.186059497208646 $224 $344 forward 7 unknown #
loop $-1 $-1 $231 $141 #
plane-surface $-1 -54.363231299783322 14.445615501016992 6.7556791235133602 -0.71933980857756763 0 0.69465836192734942 0.69465836192734942 0 0.71933980857756763 forward_v I I I I #
loop $-1 $-1 $345 $90 #
coedge $-1 $229 $229 $230 $346 reversed $142 $-1 #
coedge $-1 $230 $230 $229 $346 forward $144 $-1 #
coedge $-1 $231 $231 $145 $232 forward $226 $-1 #
edge $-1 $347 0 $347 6.2831853071796004 $231 $348 forward 7 unknown #
loop $-1 $-1 $238 $146 #
plane-surface $-1 -54.363231299783322 14.445615501016992 6.7556791235133602 -0.71933980857756763 0 0.69465836192734942 0.69465836192734942 0 0.71933980857756763 forward_v I I I I #
loop $-1 $-1 $349 $93 #
coedge $-1 $236 $236 $237 $350 reversed $147 $-1 #
coedge $-1 $237 $237 $236 $350 forward $149 $-1 #
coedge $-1 $238 $238 $150 $239 forward $233 $-1 #
edge $-1 $351 0 $351 6.2831853071796004 $238 $352 forward 7 unknown #
face $-1 $353 $354 $36 $-1 $355 reversed single #
loop $-1 $-1 $356 $151 #
plane-surface $-1 -54.363231299783322 0 0 1 0 0 0 0 -1 forward_v I I I I #
coedge $-1 $357 $251 $358 $359 forward $152 $-1 #
coedge $-1 $360 $154 $357 $361 forward $97 $-1 #
coedge $-1 $154 $360 $362 $363 forward $97 $-1 #
coedge $-1 $254 $253 $154 $247 reversed $255 $-1 #
edge $-1 $364 -22.576493999487031 $365 22.576493999487031 $246 $366 forward 7 unknown #
coedge $-1 $156 $155 $367 $368 forward $61 $-1 #
coedge $-1 $369 $370 $155 $250 reversed $354 $-1 #
edge $-1 $257 -54.363231299783322 $371 54.363231299783322 $249 $372 forward 7 unknown #
coedge $-1 $243 $373 $156 $252 reversed $152 $-1 #
edge $-1 $374 -54.363231299783322 $256 54.363231299783322 $251 $375 forward 7 unknown #
coedge $-1 $246 $157 $373 $376 forward $255 $-1 #
coedge $-1 $157 $246 $369 $377 reversed $255 $-1 #
loop $-1 $-1 $253 $353 #
vertex $-1 $158 $378 #
vertex $-1 $158 $379 #
straight-curve $-1 54.363231299783322 0 10.133619214339287 0 1 0 I I #
face $-1 $380 $381 $37 $-1 $382 reversed single #
loop $-1 $-1 $383 $159 #
plane-surface $-1 -54.363231299783322 0 0 1 0 0 0 0 -1 forward_v I I I I #
coedge $-1 $384 $268 $273 $385 reversed $160 $-1 #
coedge $-1 $386 $162 $387 $388 reversed $101 $-1 #
coedge $-1 $162 $386 $384 $389 forward $101 $-1 #
coedge $-1 $273 $272 $162 $266 forward $274 $-1 #
edge $-1 $390 -13.640553602713915 $391 -4.2313271908323173 $265 $392 forward 7 unknown #
coedge $-1 $164 $163 $383 $393 reversed $64 $-1 #
coedge $-1 $262 $394 $163 $269 reversed $160 $-1 #
edge $-1 $275 -54.363231299783322 $395 54.363231299783322 $268 $396 forward 7 unknown #
coedge $-1 $397 $398 $164 $271 forward $381 $-1 #
edge $-1 $276 -54.363231299783322 $399 54.363231299783322 $270 $400 forward 7 unknown #
coedge $-1 $265 $165 $398 $401 forward $274 $-1 #
coedge $-1 $165 $265 $262 $385 forward $274 $-1 #
loop $-1 $-1 $165 $380 #
vertex $-1 $166 $402 #
vertex $-1 $401 $403 #
straight-curve $-1 54.363231299783322 -8.9359403967731161 -3.1183104784160349 0 -1 0 I I #
face $-1 $-1 $290 $38 $-1 $404 reversed single #
loop $-1 $-1 $405 $167 #
plane-surface $-1 0 0 10.133619214339287 0 0 1 1 0 0 forward_v I I I I #
coedge $-1 $406 $407 $408 $409 reversed $168 $-1 #
coedge $-1 $410 $170 $172 $288 forward $105 $-1 #
coedge $-1 $170 $410 $406 $411 forward $105 $-1 #
coedge $-1 $408 $173 $170 $285 forward $290 $-1 #
edge $-1 $292 -8.6038453075313157 $412 -0.52299925261691893 $284 $413 forward 7 unknown #
coedge $-1 $414 $415 $171 $287 forward $279 $-1 #
edge $-1 $416 12.32091382461558 $291 16.481816955894509 $286 $417 forward 7 unknown #
edge $-1 $292 -108.72646259956663 $416 -101.81253880793169 $172 $418 forward 7 unknown #
coedge $-1 $173 $408 $414 $419 reversed $290 $-1 #
loop $-1 $-1 $408 $278 #
vertex $-1 $419 $420 #
vertex $-1 $174 $421 #
straight-curve $-1 54.363231299783322 -13.167267587605433 78.438973165865036 0 0 -1 I I #
coedge $-1 $294 $294 $-1 $422 reversed $177 $-1 #
edge $-1 $423 0 $423 6.2831853071796004 $178 $424 forward 7 unknown #
vertex $-1 $181 $425 #
ellipse-curve $-1 52.282779734143865 -11.551098376622557 7.3727666590291996 0.79863551827123203 0 0.60181501223851219 0.3009075061192561 0 -0.39931775913561601 1 I I #
coedge $-1 $298 $298 $-1 $426 reversed $184 $-1 #
edge $-1 $427 0 $427 6.2831853071796004 $185 $428 forward 7 unknown #
vertex $-1 $188 $429 #
ellipse-curve $-1 52.282779734143865 -9.1268445601482391 7.3727666590291996 0.79863551827123203 0 0.60181501223851219 0.3009075061192561 0 -0.39931775913561601 1 I I #
coedge $-1 $302 $302 $-1 $430 reversed $191 $-1 #
edge $-1 $431 0 $431 6.2831853071796004 $192 $432 forward 7 unknown #
vertex $-1 $195 $433 #
ellipse-curve $-1 52.282779734143865 -6.7025907436739196 7.3727666590291996 0.79863551827123203 0 0.60181501223851219 0.3009075061192561 0 -0.39931775913561601 1 I I #
face $-1 $-1 $318 $42 $-1 $434 forward single #
loop $-1 $-1 $435 $196 #
plane-surface $-1 -54.363231299783322 0 0 1 0 0 0 0 -1 forward_v I I I I #
coedge $-1 $436 $437 $438 $439 reversed $197 $-1 #
coedge $-1 $440 $199 $201 $316 forward $124 $-1 #
coedge $-1 $199 $440 $436 $441 forward $124 $-1 #
coedge $-1 $438 $202 $199 $313 forward $318 $-1 #
edge $-1 $320 -5.2377885193474469 $442 1.8115232268182062 $312 $443 forward 7 unknown #
coedge $-1 $444 $445 $200 $315 forward $307 $-1 #
edge $-1 $446 -34.386033642028416 $319 -31.008093551202489 $314 $447 forward 7 unknown #
edge $-1 $320 -4.6958892731176807 $446 0 $201 $448 forward 7 unknown #
coedge $-1 $202 $438 $444 $449 forward $318 $-1 #
loop $-1 $-1 $438 $306 #
vertex $-1 $315 $450 #
vertex $-1 $203 $451 #
straight-curve $-1 -66.28725204673583 -6.9509211656120673 10.133619214339284 1 0 0 I I #
coedge $-1 $322 $322 $-1 $452 reversed $206 $-1 #
edge $-1 $453 0 $453 6.2831853071796004 $207 $454 forward 7 unknown #
vertex $-1 $210 $455 #
ellipse-curve $-1 -52.732211924655253 -4.9368320952790228 8.4446491689263219 -0.71933980857756763 0 0.69465836192734942 0.34732918096367471 0 0.35966990428878381 1 I I #
coedge $-1 $326 $326 $-1 $456 reversed $213 $-1 #
edge $-1 $457 0 $457 6.2831853071796004 $214 $458 forward 7 unknown #
vertex $-1 $217 $459 #
ellipse-curve $-1 -52.732211924655253 -1.9156984897794587 8.4446491689263219 -0.71933980857756763 0 0.69465836192734942 0.34732918096367471 0 0.35966990428878381 1 I I #
face $-1 $-1 $460 $45 $-1 $461 reversed single #
loop $-1 $-1 $224 $218 #
plane-surface $-1 0 0 10.133619214339287 0 0 1 1 0 0 forward_v I I I I #
coedge $-1 $462 $463 $464 $465 reversed $219 $-1 #
coedge $-1 $466 $221 $223 $340 forward $138 $-1 #
coedge $-1 $221 $466 $462 $467 forward $138 $-1 #
coedge $-1 $464 $224 $221 $337 forward $331 $-1 #
edge $-1 $343 3.6981518774256692 $468 10.747463623591321 $336 $469 forward 7 unknown #
coedge $-1 $470 $471 $222 $339 forward $460 $-1 #
edge $-1 $472 -34.386033642028416 $342 -31.008093551202489 $338 $473 forward 7 unknown #
edge $-1 $343 -4.6958892731176807 $472 0 $223 $474 forward 7 unknown #
coedge $-1 $224 $464 $470 $475 forward $331 $-1 #
vertex $-1 $225 $476 #
vertex $-1 $225 $477 #
straight-curve $-1 -66.28725204673583 10.920959627934165 10.133619214339284 1 0 0 I I #
coedge $-1 $345 $345 $-1 $478 reversed $228 $-1 #
edge $-1 $479 0 $479 6.2831853071796004 $229 $480 forward 7 unknown #
vertex $-1 $232 $481 #
ellipse-curve $-1 -52.732211924655253 12.935048698267206 8.4446491689263219 -0.71933980857756763 0 0.69465836192734942 0.34732918096367471 0 0.35966990428878381 1 I I #
coedge $-1 $349 $349 $-1 $482 reversed $235 $-1 #
edge $-1 $483 0 $483 6.2831853071796004 $236 $484 forward 7 unknown #
vertex $-1 $239 $485 #
ellipse-curve $-1 -52.732211924655253 15.956182303766777 8.4446491689263219 -0.71933980857756763 0 0.69465836192734942 0.34732918096367471 0 0.35966990428878381 1 I I #
face $-1 $-1 $255 $36 $-1 $486 reversed single #
loop $-1 $-1 $369 $240 #
plane-surface $-1 0 22.576493999487031 0 0 -1 0 0 0 -1 forward_v I I I I #
coedge $-1 $487 $367 $370 $488 forward $241 $-1 #
coedge $-1 $373 $243 $244 $361 reversed $152 $-1 #
coedge $-1 $367 $487 $243 $359 reversed $241 $-1 #
edge $-1 $374 -10.133619214339287 $489 10.133619214339287 $358 $490 forward 7 unknown #
coedge $-1 $245 $244 $487 $491 forward $97 $-1 #
edge $-1 $365 -54.363231299783322 $489 54.363231299783322 $357 $492 forward 7 unknown #
coedge $-1 $370 $369 $245 $363 reversed $354 $-1 #
edge $-1 $493 -54.363231299783322 $364 54.363231299783322 $362 $494 forward 7 unknown #
vertex $-1 $247 $495 #
vertex $-1 $376 $496 #
straight-curve $-1 54.363231299783322 0 -10.133619214339287 0 -1 0 I I #
coedge $-1 $356 $358 $248 $368 reversed $241 $-1 #
edge $-1 $371 -22.576493999487031 $374 22.576493999487031 $367 $497 forward 7 unknown #
coedge $-1 $362 $249 $254 $377 forward $354 $-1 #
coedge $-1 $249 $362 $356 $488 reversed $354 $-1 #
vertex $-1 $250 $498 #
straight-curve $-1 0 22.576493999487031 10.133619214339287 -1 0 0 I I #
coedge $-1 $251 $357 $253 $376 reversed $152 $-1 #
vertex $-1 $368 $499 #
straight-curve $-1 0 -22.576493999487031 10.133619214339287 1 0 0 I I #
edge $-1 $256 -10.133619214339287 $365 10.133619214339287 $253 $500 forward 7 unknown #
edge $-1 $257 -10.133619214339287 $364 10.133619214339287 $254 $501 forward 7 unknown #
point $-1 54.363231299783322 -22.576493999487031 10.133619214339287 #
point $-1 54.363231299783322 22.576493999487031 10.133619214339287 #
face $-1 $-1 $274 $37 $-1 $502 reversed single #
loop $-1 $-1 $270 $259 #
plane-surface $-1 0 -22.576493999487031 0 0 1 0 0 0 1 forward_v I I I I #
coedge $-1 $503 $504 $267 $393 forward $260 $-1 #
coedge $-1 $394 $262 $264 $389 reversed $160 $-1 #
edge $-1 $391 -4.7559909317543143 $275 -0.49354334169258518 $273 $505 forward 7 unknown #
coedge $-1 $264 $263 $506 $507 reversed $101 $-1 #
coedge $-1 $398 $397 $263 $388 forward $381 $-1 #
edge $-1 $508 -54.363231299783322 $390 54.363231299783322 $387 $509 forward 7 unknown #
edge $-1 $510 -54.363231299783322 $391 54.363231299783322 $384 $511 forward 7 unknown #
vertex $-1 $388 $512 #
vertex $-1 $266 $513 #
straight-curve $-1 54.363231299783322 -8.9359403967731161 -7.3807580684777641 0 1 0 I I #
edge $-1 $399 -13.640553602713915 $395 -4.2313271908323173 $383 $514 forward 7 unknown #
coedge $-1 $268 $384 $503 $515 reversed $160 $-1 #
vertex $-1 $393 $516 #
straight-curve $-1 0 -13.167267587605433 -3.1183104784160349 -1 0 0 I I #
coedge $-1 $387 $270 $504 $517 forward $381 $-1 #
coedge $-1 $270 $387 $272 $401 reversed $381 $-1 #
vertex $-1 $517 $518 #
straight-curve $-1 0 -22.576493999487031 -3.1183104784160349 -1 0 0 I I #
edge $-1 $276 3.1183104784160349 $390 7.3807580684777641 $272 $519 forward 7 unknown #
point $-1 54.363231299783322 -13.167267587605433 -3.1183104784160349 #
point $-1 54.363231299783322 -22.576493999487031 -3.1183104784160349 #
plane-surface $-1 54.363231299783322 0 0 -1 0 0 0 0 1 forward_v I I I I #
coedge $-1 $415 $414 $407 $520 forward $279 $-1 #
coedge $-1 $407 $281 $283 $411 reversed $168 $-1 #
coedge $-1 $281 $406 $405 $520 reversed $168 $-1 #
coedge $-1 $289 $284 $281 $409 forward $290 $-1 #
edge $-1 $412 -73.827059062145921 $521 -68.305353951525746 $408 $522 forward 7 unknown #
coedge $-1 $283 $282 $415 $523 reversed $105 $-1 #
edge $-1 $524 101.81253880793169 $412 108.72646259956663 $406 $525 forward 7 unknown #
vertex $-1 $285 $526 #
straight-curve $-1 54.363231299783322 -4.5634222800741178 4.6119141037191156 0 1 0 I I #
coedge $-1 $405 $286 $289 $419 forward $279 $-1 #
coedge $-1 $286 $405 $410 $523 forward $279 $-1 #
vertex $-1 $287 $527 #
straight-curve $-1 37.881414343888814 -13.167267587605433 10.133619214339291 1 0 0 I I #
straight-curve $-1 -11.06998612022501 -13.167267587605433 91.444728911721739 -0.60181501223851219 0 0.79863551827123203 I I #
edge $-1 $291 -13.167267587605433 $521 -5.0864215326910367 $289 $528 forward 7 unknown #
point $-1 54.363231299783322 -13.167267587605433 10.133619214339287 #
point $-1 54.363231299783322 -13.167267587605433 4.6119141037191156 #
edge $-1 $529 1 $529 0 $294 $-1 forward 7 unknown #
vertex $-1 $295 $530 #
ellipse-curve $-1 51.484144215872632 -11.551098376622557 6.770951646790687 0.79863551827123203 0 0.60181501223851219 0.3009075061192561 0 -0.39931775913561601 1 I I #
point $-1 52.583687240263124 -11.551098376622557 6.9734488998935831 #
edge $-1 $531 1 $531 0 $298 $-1 forward 7 unknown #
vertex $-1 $299 $532 #
ellipse-curve $-1 51.484144215872632 -9.1268445601482391 6.770951646790687 0.79863551827123203 0 0.60181501223851219 0.3009075061192561 0 -0.39931775913561601 1 I I #
point $-1 52.583687240263124 -9.1268445601482391 6.9734488998935831 #
edge $-1 $533 1 $533 0 $302 $-1 forward 7 unknown #
vertex $-1 $303 $534 #
ellipse-curve $-1 51.484144215872632 -6.7025907436739196 6.770951646790687 0.79863551827123203 0 0.60181501223851219 0.3009075061192561 0 -0.39931775913561601 1 I I #
point $-1 52.583687240263124 -6.7025907436739196 6.9734488998935831 #
plane-surface $-1 0 0 10.133619214339287 0 0 1 1 0 0 forward_v I I I I #
coedge $-1 $445 $444 $437 $535 forward $307 $-1 #
coedge $-1 $437 $309 $311 $441 reversed $197 $-1 #
coedge $-1 $309 $436 $435 $535 reversed $197 $-1 #
coedge $-1 $317 $312 $309 $439 forward $318 $-1 #
edge $-1 $442 -15.186059497208646 $536 -11.924020746952507 $438 $537 forward 7 unknown #
coedge $-1 $311 $310 $445 $538 reversed $124 $-1 #
edge $-1 $539 0 $442 4.6958892731176807 $436 $540 forward 7 unknown #
vertex $-1 $313 $541 #
straight-curve $-1 -51.101192549527184 -1.7131326462646204 10.133619214339287 0 1 0 I I #
coedge $-1 $435 $314 $317 $449 reversed $307 $-1 #
coedge $-1 $314 $435 $440 $538 forward $307 $-1 #
vertex $-1 $315 $542 #
straight-curve $-1 -54.363231299783322 -6.9509211656120673 41.141712765541776 0 0 1 I I #
straight-curve $-1 -54.363231299783322 -6.9509211656120673 6.7556791235133602 -0.69465836192734942 0 -0.71933980857756763 I I #
edge $-1 $536 -0.098390580553585849 $319 6.9509211656120673 $444 $543 forward 7 unknown #
point $-1 -54.363231299783322 -6.9509211656120673 10.133619214339287 #
point $-1 -51.101192549527184 -6.9509211656120673 10.133619214339287 #
edge $-1 $544 1 $544 0 $322 $-1 forward 7 unknown #
vertex $-1 $323 $545 #
ellipse-curve $-1 -51.377173918593002 -4.9368320952790228 7.1361042080936654 -0.71933980857756763 0 0.69465836192734942 0.34732918096367471 0 0.35966990428878381 1 I I #
point $-1 -52.384882743691577 -4.9368320952790228 8.8043190732151082 #
edge $-1 $546 1 $546 0 $326 $-1 forward 7 unknown #
vertex $-1 $327 $547 #
ellipse-curve $-1 -51.377173918593002 -1.9156984897794587 7.1361042080936654 -0.71933980857756763 0 0.69465836192734942 0.34732918096367471 0 0.35966990428878381 1 I I #
point $-1 -52.384882743691577 -1.9156984897794587 8.8043190732151082 #
loop $-1 $-1 $338 $330 #
plane-surface $-1 -54.363231299783322 0 0 1 0 0 0 0 -1 forward_v I I I I #
coedge $-1 $463 $333 $335 $467 reversed $219 $-1 #
coedge $-1 $333 $462 $548 $549 reversed $219 $-1 #
coedge $-1 $341 $336 $333 $465 forward $331 $-1 #
edge $-1 $468 -15.186059497208646 $550 -11.924020746952507 $464 $551 forward 7 unknown #
coedge $-1 $335 $334 $471 $552 reversed $138 $-1 #
edge $-1 $553 0 $468 4.6958892731176807 $462 $554 forward 7 unknown #
vertex $-1 $337 $555 #
straight-curve $-1 -51.101192549527184 7.2228077505084958 10.133619214339287 0 1 0 I I #
coedge $-1 $548 $338 $341 $475 reversed $460 $-1 #
coedge $-1 $338 $548 $466 $552 forward $460 $-1 #
vertex $-1 $339 $556 #
straight-curve $-1 -54.363231299783322 10.920959627934165 41.141712765541776 0 0 1 I I #
straight-curve $-1 -54.363231299783322 10.920959627934165 6.7556791235133602 -0.69465836192734942 0 -0.71933980857756763 I I #
edge $-1 $550 -17.970271374099816 $342 -10.920959627934165 $470 $557 forward 7 unknown #
point $-1 -54.363231299783322 10.920959627934165 10.133619214339287 #
point $-1 -51.101192549527184 10.920959627934165 10.133619214339287 #
edge $-1 $558 1 $558 0 $345 $-1 forward 7 unknown #
vertex $-1 $346 $559 #
ellipse-curve $-1 -51.377173918593002 12.935048698267206 7.1361042080936654 -0.71933980857756763 0 0.69465836192734942 0.34732918096367471 0 0.35966990428878381 1 I I #
point $-1 -52.384882743691577 12.935048698267206 8.8043190732151082 #
edge $-1 $560 1 $560 0 $349 $-1 forward 7 unknown #
vertex $-1 $350 $561 #
ellipse-curve $-1 -51.377173918593002 15.956182303766777 7.1361042080936654 -0.71933980857756763 0 0.69465836192734942 0.34732918096367471 0 0.35966990428878381 1 I I #
point $-1 -52.384882743691577 15.956182303766777 8.8043190732151082 #
plane-surface $-1 54.363231299783322 0 0 -1 0 0 0 0 1 forward_v I I I I #
coedge $-1 $358 $356 $360 $491 reversed $241 $-1 #
edge $-1 $371 -10.133619214339287 $493 10.133619214339287 $370 $562 forward 7 unknown #
vertex $-1 $491 $563 #
straight-curve $-1 -54.363231299783322 -22.576493999487031 0 0 0 -1 I I #
edge $-1 $489 -22.576493999487031 $493 22.576493999487031 $487 $564 forward 7 unknown #
straight-curve $-1 0 -22.576493999487031 -10.133619214339287 -1 0 0 I I #
vertex $-1 $363 $565 #
straight-curve $-1 0 22.576493999487031 -10.133619214339287 1 0 0 I I #
point $-1 54.363231299783322 22.576493999487031 -10.133619214339287 #
point $-1 54.363231299783322 -22.576493999487031 -10.133619214339287 #
straight-curve $-1 -54.363231299783322 0 10.133619214339287 0 -1 0 I I #
point $-1 -54.363231299783322 22.576493999487031 10.133619214339287 #
point $-1 -54.363231299783322 -22.576493999487031 10.133619214339287 #
straight-curve $-1 54.363231299783322 -22.576493999487031 0 0 0 -1 I I #
straight-curve $-1 54.363231299783322 22.576493999487031 0 0 0 -1 I I #
plane-surface $-1 54.363231299783322 0 0 -1 0 0 0 0 1 forward_v I I I I #
coedge $-1 $506 $383 $394 $515 forward $260 $-1 #
coedge $-1 $383 $506 $397 $517 reversed $260 $-1 #
straight-curve $-1 54.363231299783322 -13.167267587605433 -2.6247671367234497 0 0 1 I I #
coedge $-1 $504 $503 $386 $507 forward $260 $-1 #
edge $-1 $510 4.2313271908323173 $508 13.640553602713915 $506 $566 forward 7 unknown #
vertex $-1 $388 $567 #
straight-curve $-1 0 -22.576493999487031 -7.3807580684777641 1 0 0 I I #
vertex $-1 $507 $568 #
straight-curve $-1 0 -13.167267587605433 -7.3807580684777641 1 0 0 I I #
point $-1 54.363231299783322 -22.576493999487031 -7.3807580684777641 #
point $-1 54.363231299783322 -13.167267587605433 -7.3807580684777641 #
straight-curve $-1 -54.363231299783322 -8.9359403967731161 -3.1183104784160349 0 1 0 I I #
edge $-1 $395 0.49354334169258518 $510 4.7559909317543143 $503 $569 forward 7 unknown #
point $-1 -54.363231299783322 -13.167267587605433 -3.1183104784160349 #
edge $-1 $399 3.1183104784160349 $508 7.3807580684777641 $504 $570 forward 7 unknown #
point $-1 -54.363231299783322 -22.576493999487031 -3.1183104784160349 #
straight-curve $-1 54.363231299783322 -22.576493999487031 0 0 0 -1 I I #
edge $-1 $521 -16.481816955894509 $524 -12.32091382461558 $405 $571 forward 7 unknown #
vertex $-1 $520 $572 #
straight-curve $-1 54.363231299783322 -5.0864215326910367 78.438973165865036 0 0 1 I I #
edge $-1 $524 0.52299925261691893 $416 8.6038453075313157 $415 $573 forward 7 unknown #
vertex $-1 $523 $574 #
straight-curve $-1 -11.06998612022501 -5.0864215326910367 91.444728911721739 0.60181501223851219 0 -0.79863551827123203 I I #
point $-1 54.363231299783322 -5.0864215326910367 4.6119141037191156 #
point $-1 50.202328168504394 -13.167267587605433 10.133619214339291 #
straight-curve $-1 54.363231299783322 0 10.133619214339287 0 1 0 I I #
vertex $-1 $422 $575 #
point $-1 51.785051721991891 -11.551098376622557 6.3716338876550713 #
vertex $-1 $426 $576 #
point $-1 51.785051721991891 -9.1268445601482391 6.3716338876550713 #
vertex $-1 $430 $577 #
point $-1 51.785051721991891 -6.7025907436739196 6.3716338876550713 #
edge $-1 $536 31.008093551202489 $539 34.386033642028416 $435 $578 forward 7 unknown #
vertex $-1 $449 $579 #
straight-curve $-1 -66.28725204673583 0.098390580553585849 10.133619214339284 -1 0 0 I I #
edge $-1 $539 -1.8115232268182062 $446 5.2377885193474469 $445 $580 forward 7 unknown #
vertex $-1 $538 $581 #
straight-curve $-1 -54.363231299783322 0.098390580553585849 6.7556791235133602 0.69465836192734942 0 0.71933980857756763 I I #
point $-1 -51.101192549527184 0.098390580553585849 10.133619214339287 #
point $-1 -54.363231299783322 -6.9509211656120673 6.7556791235133602 #
straight-curve $-1 -54.363231299783322 0 10.133619214339287 0 -1 0 I I #
vertex $-1 $452 $582 #
point $-1 -51.029844737629332 -4.9368320952790228 7.4957741123824491 #
vertex $-1 $456 $583 #
point $-1 -51.029844737629332 -1.9156984897794587 7.4957741123824491 #
coedge $-1 $471 $470 $463 $549 forward $460 $-1 #
edge $-1 $550 31.008093551202489 $553 34.386033642028416 $548 $584 forward 7 unknown #
vertex $-1 $475 $585 #
straight-curve $-1 -66.28725204673583 17.970271374099816 10.133619214339284 -1 0 0 I I #
edge $-1 $553 -10.747463623591321 $472 -3.6981518774256692 $471 $586 forward 7 unknown #
vertex $-1 $552 $587 #
straight-curve $-1 -54.363231299783322 17.970271374099816 6.7556791235133602 0.69465836192734942 0 0.71933980857756763 I I #
point $-1 -51.101192549527184 17.970271374099816 10.133619214339287 #
point $-1 -54.363231299783322 10.920959627934165 6.7556791235133602 #
straight-curve $-1 -54.363231299783322 0 10.133619214339287 0 -1 0 I I #
vertex $-1 $478 $588 #
point $-1 -51.029844737629332 12.935048698267206 7.4957741123824491 #
vertex $-1 $482 $589 #
point $-1 -51.029844737629332 15.956182303766777 7.4957741123824491 #
straight-curve $-1 -54.363231299783322 22.576493999487031 0 0 0 -1 I I #
point $-1 -54.363231299783322 -22.576493999487031 -10.133619214339287 #
straight-curve $-1 -54.363231299783322 0 -10.133619214339287 0 1 0 I I #
point $-1 -54.363231299783322 22.576493999487031 -10.133619214339287 #
straight-curve $-1 -54.363231299783322 -8.9359403967731161 -7.3807580684777641 0 -1 0 I I #
point $-1 -54.363231299783322 -22.576493999487031 -7.3807580684777641 #
point $-1 -54.363231299783322 -13.167267587605433 -7.3807580684777641 #
straight-curve $-1 -54.363231299783322 -13.167267587605433 -2.6247671367234497 0 0 -1 I I #
straight-curve $-1 -54.363231299783322 -22.576493999487031 0 0 0 -1 I I #
straight-curve $-1 37.881414343888814 -5.0864215326910367 10.133619214339291 -1 0 0 I I #
point $-1 54.363231299783322 -5.0864215326910367 10.133619214339287 #
straight-curve $-1 50.202328168504394 -4.5634222800741178 10.133619214339298 0 -1 0 I I #
point $-1 50.202328168504394 -5.0864215326910367 10.133619214339291 #
point $-1 51.084826456737019 -11.551098376622557 6.4700441406714315 #
point $-1 51.084826456737019 -9.1268445601482391 6.4700441406714315 #
point $-1 51.084826456737019 -6.7025907436739196 6.4700441406714315 #
straight-curve $-1 -54.363231299783322 0.098390580553585849 41.141712765541776 0 0 -1 I I #
point $-1 -54.363231299783322 0.098390580553585849 10.133619214339287 #
straight-curve $-1 -54.363231299783322 -1.7131326462646204 6.7556791235133575 0 -1 0 I I #
point $-1 -54.363231299783322 0.098390580553585849 6.7556791235133602 #
point $-1 -51.017504014304222 -4.9368320952790228 6.7887750271299909 #
point $-1 -51.017504014304222 -1.9156984897794587 6.7887750271299909 #
straight-curve $-1 -54.363231299783322 17.970271374099816 41.141712765541776 0 0 -1 I I #
point $-1 -54.363231299783322 17.970271374099816 10.133619214339287 #
straight-curve $-1 -54.363231299783322 7.2228077505084958 6.7556791235133575 0 -1 0 I I #
point $-1 -54.363231299783322 17.970271374099816 6.7556791235133602 #
point $-1 -51.017504014304222 12.935048698267206 6.7887750271299909 #
point $-1 -51.017504014304222 15.956182303766777 6.7887750271299909 #
End-of-ACIS-data 