500 0 5 0           
7 Unknown 11 ACIS 5.0 NT 24 Thu Mar 25 17:50:24 1999 
-1 9.9999999999999995e-007 1e-010 
body $-1 $5 $-1 $6 #
body $-1 $7 $-1 $8 #
body $-1 $9 $-1 $10 #
body $-1 $11 $-1 $12 #
body $-1 $13 $-1 $14 #
lump $-1 $-1 $15 $0 #
transform $-1 1 0 0 0 1 0 0 0 1 53.308511612292854 24.989778184437487 11.798893988269109 1 rotate no_reflect no_shear #
lump $-1 $-1 $16 $1 #
transform $-1 1 0 0 0 1 0 0 0 1 53.308511612292854 24.989778184437487 11.798893988269109 1 rotate no_reflect no_shear #
lump $-1 $-1 $17 $2 #
transform $-1 1 0 0 0 1 0 0 0 1 53.308511612292854 24.989778184437487 11.798893988269109 1 rotate no_reflect no_shear #
lump $-1 $-1 $18 $3 #
transform $-1 1 0 0 0 1 0 0 0 1 53.308511612292854 24.989778184437487 11.798893988269109 1 rotate no_reflect no_shear #
lump $-1 $-1 $19 $4 #
transform $-1 1 0 0 0 1 0 0 0 1 53.308511612292854 24.989778184437487 11.798893988269109 1 rotate no_reflect no_shear #
shell $-1 $-1 $-1 $20 $-1 $5 #
shell $-1 $-1 $-1 $21 $-1 $7 #
shell $-1 $-1 $-1 $22 $-1 $9 #
shell $-1 $-1 $-1 $23 $-1 $11 #
shell $-1 $-1 $-1 $24 $-1 $13 #
face $-1 $25 $26 $15 $-1 $27 forward single #
face $-1 $28 $29 $16 $-1 $30 reversed single #
face $-1 $31 $32 $17 $-1 $33 forward single #
face $-1 $34 $35 $18 $-1 $36 reversed single #
face $-1 $37 $38 $19 $-1 $39 forward single #
face $-1 $40 $41 $15 $-1 $42 reversed single #
loop $-1 $-1 $43 $20 #
plane-surface $-1 0 0 11.798893988269109 0 0 1 1 0 0 forward_v I I I I #
face $-1 $44 $45 $16 $-1 $46 reversed single #
loop $-1 $-1 $47 $21 #
plane-surface $-1 -141.69803060027755 -7.4413456999335139 61.036241187686436 0 1 0 -0.82903758062907751 0 0.55919289150049634 forward_v I I I I #
face $-1 $48 $49 $17 $-1 $50 forward single #
loop $-1 $51 $52 $22 #
cone-surface $-1 -48.594112593923469 -3.9866705530628082 5.789661439666248 0.82903758062907751 0 -0.55919289150049634 0.55919289150049634 0 0.82903758062907751 1 I I 0 1 1 forward I I I I #
face $-1 $53 $54 $18 $-1 $55 reversed single #
loop $-1 $-1 $56 $23 #
plane-surface $-1 53.308513361716784 12.941160205136374 158.45997891684058 0 -1 0 -0.70710678939079041 0 -0.70710677298230451 forward_v I I I I #
face $-1 $57 $58 $19 $-1 $59 forward single #
loop $-1 $60 $61 $24 #
cone-surface $-1 49.895428201804606 5.8532010744881049 8.3858105614196088 -0.70710678939079041 0 -0.70710677298230451 0.70710677298230451 0 -0.70710678939079041 1 I I 0 1 1 forward I I I I #
face $-1 $62 $63 $15 $-1 $64 reversed single #
loop $-1 $-1 $65 $25 #
plane-surface $-1 0 0 -11.798893988269109 0 0 1 1 0 0 forward_v I I I I #
coedge $-1 $66 $67 $68 $69 forward $26 $-1 #
face $-1 $70 $71 $16 $-1 $72 reversed single #
loop $-1 $-1 $73 $28 #
plane-surface $-1 -53.308511612292847 -3.9866705530628082 1.4167596875547801 -0.82903758062907751 0 0.55919289150049634 0.55919289150049634 0 0.82903758062907751 forward_v I I I I #
coedge $-1 $74 $75 $76 $77 reversed $29 $-1 #
face $-1 $-1 $78 $17 $-1 $79 forward single #
loop $-1 $80 $81 $31 #
cone-surface $-1 -46.966613680603494 -3.9866705530628082 4.6918995956703018 0.82903758062907751 0 -0.55919289150049634 0.27959644575024817 0 0.41451879031453875 1 I I -0.70710678118654746 0.70710678118654746 0.5 forward I I I I #
loop $-1 $-1 $82 $22 #
coedge $-1 $52 $52 $83 $84 reversed $32 $-1 #
face $-1 $85 $86 $18 $-1 $87 reversed single #
loop $-1 $-1 $88 $34 #
plane-surface $-1 -22.081107625023357 5.8532010744881049 83.070359679524373 0.70710678939079041 0 0.70710677298230451 0.70710677298230451 0 -0.70710678939079041 forward_v I I I I #
coedge $-1 $89 $90 $91 $92 reversed $35 $-1 #
face $-1 $-1 $93 $19 $-1 $94 forward single #
loop $-1 $95 $96 $37 #
cone-surface $-1 48.187868996582289 5.8532010744881049 6.6782513958213752 -0.70710678939079041 0 -0.70710677298230451 0.35355338649115226 0 -0.35355339469539521 1 I I -0.70710678118654746 0.70710678118654746 0.5 forward I I I I #
loop $-1 $-1 $97 $24 #
coedge $-1 $61 $61 $98 $99 reversed $38 $-1 #
face $-1 $100 $101 $15 $-1 $102 reversed single #
loop $-1 $-1 $103 $40 #
plane-surface $-1 0 -24.989778184437487 0 0 1 0 0 0 1 forward_v I I I I #
coedge $-1 $104 $105 $106 $107 forward $41 $-1 #
coedge $-1 $108 $43 $109 $110 forward $26 $-1 #
coedge $-1 $43 $108 $111 $112 forward $26 $-1 #
coedge $-1 $113 $114 $43 $69 reversed $115 $-1 #
edge $-1 $116 -24.989778184437487 $117 24.989778184437487 $68 $118 forward 7 unknown #
face $-1 $119 $120 $16 $-1 $121 reversed single #
loop $-1 $-1 $122 $44 #
plane-surface $-1 -141.69803060027755 -0.53199540619210239 61.036241187686436 0 -1 0 0.82903758062907751 0 -0.55919289150049634 forward_v I I I I #
coedge $-1 $123 $124 $125 $126 reversed $45 $-1 #
coedge $-1 $75 $47 $127 $128 reversed $29 $-1 #
coedge $-1 $47 $74 $123 $129 reversed $29 $-1 #
coedge $-1 $125 $130 $47 $77 forward $131 $-1 #
edge $-1 $132 17.54050368784592 $133 24.543341478573822 $76 $134 forward 7 unknown #
loop $-1 $-1 $83 $48 #
plane-surface $-1 -53.308511612292847 -3.9866705530628082 1.4167596875547801 -0.82903758062907751 0 0.55919289150049634 0.55919289150049634 0 0.82903758062907751 forward_v I I I I #
loop $-1 $-1 $135 $31 #
coedge $-1 $81 $81 $82 $136 reversed $49 $-1 #
coedge $-1 $82 $82 $81 $136 forward $51 $-1 #
coedge $-1 $83 $83 $52 $84 forward $78 $-1 #
edge $-1 $137 0 $137 6.2831853071796004 $83 $138 forward 7 unknown #
face $-1 $139 $140 $18 $-1 $141 forward single #
loop $-1 $-1 $142 $53 #
plane-surface $-1 53.308513361716784 -1.2347580561601639 158.45997891684058 0 1 0 0.70710678939079041 0 0.70710677298230451 forward_v I I I I #
coedge $-1 $143 $144 $145 $146 reversed $54 $-1 #
coedge $-1 $90 $56 $147 $148 reversed $35 $-1 #
coedge $-1 $56 $89 $143 $149 reversed $35 $-1 #
coedge $-1 $145 $150 $56 $92 forward $140 $-1 #
edge $-1 $151 -26.654254931434462 $152 -22.536099731511808 $91 $153 forward 7 unknown #
loop $-1 $-1 $98 $57 #
plane-surface $-1 -22.081107625023357 5.8532010744881049 83.070359679524373 0.70710678939079041 0 0.70710677298230451 0.70710677298230451 0 -0.70710678939079041 forward_v I I I I #
loop $-1 $-1 $154 $37 #
coedge $-1 $96 $96 $97 $155 reversed $58 $-1 #
coedge $-1 $97 $97 $96 $155 forward $60 $-1 #
coedge $-1 $98 $98 $61 $99 forward $93 $-1 #
edge $-1 $156 0 $156 6.2831853071796004 $98 $157 forward 7 unknown #
face $-1 $158 $159 $15 $-1 $160 reversed single #
loop $-1 $-1 $161 $62 #
plane-surface $-1 -53.308511612292854 0 0 1 0 0 0 0 -1 forward_v I I I I #
coedge $-1 $162 $111 $163 $164 forward $63 $-1 #
coedge $-1 $165 $65 $162 $166 forward $41 $-1 #
coedge $-1 $65 $165 $167 $168 forward $41 $-1 #
coedge $-1 $114 $113 $65 $107 reversed $115 $-1 #
edge $-1 $169 -24.989778184437487 $170 24.989778184437487 $106 $171 forward 7 unknown #
coedge $-1 $67 $66 $172 $173 forward $26 $-1 #
coedge $-1 $174 $175 $66 $110 reversed $159 $-1 #
edge $-1 $117 -53.308511612292854 $176 53.308511612292854 $109 $177 forward 7 unknown #
coedge $-1 $103 $178 $67 $112 reversed $63 $-1 #
edge $-1 $179 -53.308511612292854 $116 53.308511612292854 $111 $180 forward 7 unknown #
coedge $-1 $106 $68 $178 $181 forward $115 $-1 #
coedge $-1 $68 $106 $174 $182 reversed $115 $-1 #
loop $-1 $-1 $113 $158 #
vertex $-1 $69 $183 #
vertex $-1 $69 $184 #
straight-curve $-1 53.308511612292854 0 11.798893988269109 0 1 0 I I #
face $-1 $-1 $131 $16 $-1 $185 forward single #
loop $-1 $-1 $186 $70 #
plane-surface $-1 -53.308511612292854 0 0 1 0 0 0 0 -1 forward_v I I I I #
coedge $-1 $187 $188 $189 $190 reversed $71 $-1 #
coedge $-1 $191 $73 $75 $129 forward $45 $-1 #
coedge $-1 $73 $191 $187 $192 forward $45 $-1 #
coedge $-1 $189 $76 $73 $126 forward $131 $-1 #
edge $-1 $133 -5.4480104234021098 $193 1.4613398703393017 $125 $194 forward 7 unknown #
coedge $-1 $195 $196 $74 $128 forward $120 $-1 #
edge $-1 $197 -29.101360906288448 $132 -18.719226605574107 $127 $198 forward 7 unknown #
edge $-1 $133 -12.523116615336445 $197 1.2625220606206639e-014 $75 $199 forward 7 unknown #
coedge $-1 $76 $189 $195 $200 forward $131 $-1 #
loop $-1 $-1 $189 $119 #
vertex $-1 $128 $201 #
vertex $-1 $77 $202 #
straight-curve $-1 -70.849015300138774 -7.4413456999335139 11.798893988269107 1 0 0 I I #
coedge $-1 $135 $135 $-1 $203 reversed $80 $-1 #
edge $-1 $204 0 $204 6.2831853071796004 $81 $205 forward 7 unknown #
vertex $-1 $84 $206 #
ellipse-curve $-1 -49.807092716928899 -3.9866705530628082 6.6078268379119409 -0.82903758062907751 0 0.55919289150049634 0.55919289150049634 0 0.82903758062907751 1 I I #
face $-1 $-1 $207 $18 $-1 $208 reversed single #
loop $-1 $-1 $91 $85 #
plane-surface $-1 0 0 11.798893988269109 0 0 1 1 0 0 forward_v I I I I #
coedge $-1 $209 $210 $211 $212 reversed $86 $-1 #
coedge $-1 $213 $88 $90 $149 forward $54 $-1 #
coedge $-1 $88 $213 $209 $214 forward $54 $-1 #
coedge $-1 $211 $91 $88 $146 forward $140 $-1 #
edge $-1 $152 -10.014559667892321 $215 4.1613585934042163 $145 $216 forward 7 unknown #
coedge $-1 $217 $218 $89 $148 forward $207 $-1 #
edge $-1 $219 -71.54925076563606 $151 -67.431095470151178 $147 $220 forward 7 unknown #
edge $-1 $152 100.79307222132513 $219 106.61702322458574 $90 $221 forward 7 unknown #
coedge $-1 $91 $211 $217 $222 forward $140 $-1 #
vertex $-1 $148 $223 #
vertex $-1 $92 $224 #
straight-curve $-1 26.654256680858392 12.941160205136374 11.798893988269114 -1 0 0 I I #
coedge $-1 $154 $154 $-1 $225 reversed $95 $-1 #
edge $-1 $226 0 $226 6.2831853071796004 $96 $227 forward 7 unknown #
vertex $-1 $99 $228 #
ellipse-curve $-1 51.249434012331527 5.8532010744881049 9.7398163405266871 0.70710678939079041 0 0.70710677298230451 0.70710677298230451 0 -0.70710678939079041 1 I I #
face $-1 $-1 $115 $15 $-1 $229 reversed single #
loop $-1 $-1 $174 $100 #
plane-surface $-1 0 24.989778184437487 0 0 -1 0 0 0 -1 forward_v I I I I #
coedge $-1 $230 $172 $175 $231 forward $101 $-1 #
coedge $-1 $178 $103 $104 $166 reversed $63 $-1 #
coedge $-1 $172 $230 $103 $164 reversed $101 $-1 #
edge $-1 $179 -11.798893988269109 $232 11.798893988269109 $163 $233 forward 7 unknown #
coedge $-1 $105 $104 $230 $234 forward $41 $-1 #
edge $-1 $170 -53.308511612292854 $232 53.308511612292854 $162 $235 forward 7 unknown #
coedge $-1 $175 $174 $105 $168 reversed $159 $-1 #
edge $-1 $236 -53.308511612292854 $169 53.308511612292854 $167 $237 forward 7 unknown #
vertex $-1 $107 $238 #
vertex $-1 $181 $239 #
straight-curve $-1 53.308511612292854 0 -11.798893988269109 0 -1 0 I I #
coedge $-1 $161 $163 $108 $173 reversed $101 $-1 #
edge $-1 $176 -24.989778184437487 $179 24.989778184437487 $172 $240 forward 7 unknown #
coedge $-1 $167 $109 $114 $182 forward $159 $-1 #
coedge $-1 $109 $167 $161 $231 reversed $159 $-1 #
vertex $-1 $110 $241 #
straight-curve $-1 0 24.989778184437487 11.798893988269109 -1 0 0 I I #
coedge $-1 $111 $162 $113 $181 reversed $63 $-1 #
vertex $-1 $173 $242 #
straight-curve $-1 0 -24.989778184437487 11.798893988269109 1 0 0 I I #
edge $-1 $116 -11.798893988269109 $170 11.798893988269109 $113 $243 forward 7 unknown #
edge $-1 $117 -11.798893988269109 $169 11.798893988269109 $114 $244 forward 7 unknown #
point $-1 53.308511612292854 -24.989778184437487 11.798893988269109 #
point $-1 53.308511612292854 24.989778184437487 11.798893988269109 #
plane-surface $-1 0 0 11.798893988269109 0 0 1 1 0 0 forward_v I I I I #
coedge $-1 $196 $195 $188 $245 forward $120 $-1 #
coedge $-1 $188 $122 $124 $192 reversed $71 $-1 #
coedge $-1 $122 $187 $186 $245 reversed $71 $-1 #
coedge $-1 $130 $125 $122 $190 forward $131 $-1 #
edge $-1 $193 -24.543341478573822 $246 -17.54050368784592 $189 $247 forward 7 unknown #
coedge $-1 $124 $123 $196 $248 reversed $45 $-1 #
edge $-1 $249 -1.2625220606206639e-014 $193 12.523116615336445 $187 $250 forward 7 unknown #
vertex $-1 $126 $251 #
straight-curve $-1 -46.305673821564952 -1.9933352765314041 11.798893988269109 0 1 0 I I #
coedge $-1 $186 $127 $130 $200 reversed $120 $-1 #
coedge $-1 $127 $186 $191 $248 forward $120 $-1 #
vertex $-1 $128 $252 #
straight-curve $-1 -53.308511612292854 -7.4413456999335139 30.518120593843218 0 0 1 I I #
straight-curve $-1 -53.308511612292847 -7.4413456999335139 1.4167596875547801 -0.55919289150049634 0 -0.82903758062907751 I I #
edge $-1 $246 0.53199540619210239 $132 7.4413456999335139 $195 $253 forward 7 unknown #
point $-1 -53.308511612292854 -7.4413456999335139 11.798893988269109 #
point $-1 -46.305673821564952 -7.4413456999335139 11.798893988269109 #
edge $-1 $254 1 $254 0 $135 $-1 forward 7 unknown #
vertex $-1 $136 $255 #
ellipse-curve $-1 -47.381132470918033 -3.9866705530628082 4.9714960414205498 -0.82903758062907751 0 0.55919289150049634 0.55919289150049634 0 0.82903758062907751 1 I I #
point $-1 -49.247899825428412 -3.9866705530628082 7.436864418541024 #
loop $-1 $-1 $147 $139 #
plane-surface $-1 53.308511612292854 0 0 -1 0 0 0 0 1 forward_v I I I I #
coedge $-1 $210 $142 $144 $214 reversed $86 $-1 #
coedge $-1 $142 $209 $256 $257 reversed $86 $-1 #
coedge $-1 $150 $145 $142 $212 forward $140 $-1 #
edge $-1 $215 22.536099731511808 $258 26.654254931434462 $211 $259 forward 7 unknown #
coedge $-1 $144 $143 $218 $260 reversed $54 $-1 #
edge $-1 $261 -106.61702322458574 $215 -100.79307222132513 $209 $262 forward 7 unknown #
vertex $-1 $146 $263 #
straight-curve $-1 49.190356412370207 2.9266005372440524 11.798893988269107 0 -1 0 I I #
coedge $-1 $256 $147 $150 $222 reversed $207 $-1 #
coedge $-1 $147 $256 $213 $260 forward $207 $-1 #
vertex $-1 $148 $264 #
straight-curve $-1 53.308511612292854 12.941160205136374 79.229989458420292 0 0 1 I I #
straight-curve $-1 -22.081107625023357 12.941160205136374 83.070359679524373 0.70710677298230451 0 -0.70710678939079041 I I #
edge $-1 $258 -1.2347580561601639 $151 12.941160205136374 $217 $265 forward 7 unknown #
point $-1 53.308511612292854 12.941160205136374 11.798893988269109 #
point $-1 49.1903564123702 12.941160205136374 11.798893988269114 #
edge $-1 $266 1 $266 0 $154 $-1 forward 7 unknown #
vertex $-1 $155 $267 #
ellipse-curve $-1 48.541422391277685 5.8532010744881049 7.0318047823125278 0.70710678939079041 0 0.70710677298230451 0.70710677298230451 0 -0.70710678939079041 1 I I #
point $-1 51.956540785313841 5.8532010744881049 9.0327095511358984 #
plane-surface $-1 53.308511612292854 0 0 -1 0 0 0 0 1 forward_v I I I I #
coedge $-1 $163 $161 $165 $234 reversed $101 $-1 #
edge $-1 $176 -11.798893988269109 $236 11.798893988269109 $175 $268 forward 7 unknown #
vertex $-1 $234 $269 #
straight-curve $-1 -53.308511612292854 -24.989778184437487 0 0 0 -1 I I #
edge $-1 $232 -24.989778184437487 $236 24.989778184437487 $230 $270 forward 7 unknown #
straight-curve $-1 0 -24.989778184437487 -11.798893988269109 -1 0 0 I I #
vertex $-1 $168 $271 #
straight-curve $-1 0 24.989778184437487 -11.798893988269109 1 0 0 I I #
point $-1 53.308511612292854 24.989778184437487 -11.798893988269109 #
point $-1 53.308511612292854 -24.989778184437487 -11.798893988269109 #
straight-curve $-1 -53.308511612292854 0 11.798893988269109 0 -1 0 I I #
point $-1 -53.308511612292854 24.989778184437487 11.798893988269109 #
point $-1 -53.308511612292854 -24.989778184437487 11.798893988269109 #
straight-curve $-1 53.308511612292854 -24.989778184437487 0 0 0 -1 I I #
straight-curve $-1 53.308511612292854 24.989778184437487 0 0 0 -1 I I #
edge $-1 $246 18.719226605574107 $249 29.101360906288448 $186 $272 forward 7 unknown #
vertex $-1 $200 $273 #
straight-curve $-1 -70.849015300138774 -0.53199540619210239 11.798893988269107 -1 0 0 I I #
edge $-1 $249 -1.4613398703393017 $197 5.4480104234021098 $196 $274 forward 7 unknown #
vertex $-1 $248 $275 #
straight-curve $-1 -53.308511612292847 -0.53199540619210239 1.4167596875547801 0.55919289150049634 0 0.82903758062907751 I I #
point $-1 -46.305673821564952 -0.53199540619210239 11.798893988269109 #
point $-1 -53.308511612292854 -7.4413456999335139 1.4167596875547697 #
straight-curve $-1 -53.308511612292854 0 11.798893988269109 0 -1 0 I I #
vertex $-1 $203 $276 #
point $-1 -46.821939579417538 -3.9866705530628082 5.8005336220496275 #
coedge $-1 $218 $217 $210 $257 forward $207 $-1 #
edge $-1 $258 67.431095470151178 $261 71.54925076563606 $256 $277 forward 7 unknown #
vertex $-1 $222 $278 #
straight-curve $-1 26.654256680858392 -1.2347580561601639 11.798893988269114 1 0 0 I I #
edge $-1 $261 -4.1613585934042163 $219 10.014559667892321 $218 $279 forward 7 unknown #
vertex $-1 $260 $280 #
straight-curve $-1 -22.081107625023357 -1.2347580561601639 83.070359679524373 -0.70710677298230451 0 0.70710678939079041 I I #
point $-1 49.1903564123702 -1.2347580561601639 11.798893988269114 #
point $-1 53.308511612292854 12.941160205136374 7.6807386927842316 #
straight-curve $-1 53.308511612292854 0 11.798893988269109 0 1 0 I I #
vertex $-1 $225 $281 #
point $-1 49.248529164259992 5.8532010744881049 6.3246979929217373 #
straight-curve $-1 -53.308511612292854 24.989778184437487 0 0 0 -1 I I #
point $-1 -53.308511612292854 -24.989778184437487 -11.798893988269109 #
straight-curve $-1 -53.308511612292854 0 -11.798893988269109 0 1 0 I I #
point $-1 -53.308511612292854 24.989778184437487 -11.798893988269109 #
straight-curve $-1 -53.308511612292854 -0.53199540619210239 30.518120593843218 0 0 -1 I I #
point $-1 -53.308511612292854 -0.53199540619210239 11.798893988269109 #
straight-curve $-1 -53.308511612292854 -1.9933352765314041 1.4167596875547641 0 -1 0 I I #
point $-1 -53.308511612292854 -0.53199540619210239 1.4167596875547697 #
point $-1 -46.552094890288956 -3.9866705530628082 4.4123031499200538 #
straight-curve $-1 53.308511612292854 -1.2347580561601639 79.229989458420292 0 0 -1 I I #
point $-1 53.308511612292854 -1.2347580561601639 11.798893988269109 #
straight-curve $-1 53.308511612292847 2.9266005372440524 7.6807386927842458 0 1 0 I I #
point $-1 53.308511612292854 -1.2347580561601639 7.6807386927842316 #
point $-1 47.834315601886892 5.8532010744881049 6.3246980093302225 #
End-of-ACIS-data 