500 0 17 0           
7 Unknown 11 ACIS 5.0 NT 24 Thu Mar 25 17:51:47 1999 
-1 9.9999999999999995e-007 1e-010 
body $-1 $17 $-1 $18 #
body $-1 $19 $-1 $20 #
body $-1 $21 $-1 $22 #
body $-1 $23 $-1 $24 #
body $-1 $25 $-1 $26 #
body $-1 $27 $-1 $28 #
body $-1 $29 $-1 $30 #
body $-1 $31 $-1 $32 #
body $-1 $33 $-1 $34 #
body $-1 $35 $-1 $36 #
body $-1 $37 $-1 $38 #
body $-1 $39 $-1 $40 #
body $-1 $41 $-1 $42 #
body $-1 $43 $-1 $44 #
body $-1 $45 $-1 $46 #
body $-1 $47 $-1 $48 #
body $-1 $49 $-1 $50 #
lump $-1 $-1 $51 $0 #
transform $-1 1 0 0 0 1 0 0 0 1 48.375499740592673 28.836327281508961 11.371195167999318 1 rotate no_reflect no_shear #
lump $-1 $-1 $52 $1 #
transform $-1 1 0 0 0 1 0 0 0 1 48.375499740592673 28.836327281508961 11.371195167999318 1 rotate no_reflect no_shear #
lump $-1 $-1 $53 $2 #
transform $-1 1 0 0 0 1 0 0 0 1 48.375499740592673 28.836327281508961 11.371195167999318 1 rotate no_reflect no_shear #
lump $-1 $-1 $54 $3 #
transform $-1 1 0 0 0 1 0 0 0 1 48.375499740592673 28.836327281508961 11.371195167999318 1 rotate no_reflect no_shear #
lump $-1 $-1 $55 $4 #
transform $-1 1 0 0 0 1 0 0 0 1 48.375499740592673 28.836327281508961 11.371195167999318 1 rotate no_reflect no_shear #
lump $-1 $-1 $56 $5 #
transform $-1 1 0 0 0 1 0 0 0 1 48.375499740592673 28.836327281508961 11.371195167999318 1 rotate no_reflect no_shear #
lump $-1 $-1 $57 $6 #
transform $-1 1 0 0 0 1 0 0 0 1 48.375499740592673 28.836327281508961 11.371195167999318 1 rotate no_reflect no_shear #
lump $-1 $-1 $58 $7 #
transform $-1 1 0 0 0 1 0 0 0 1 48.375499740592673 28.836327281508961 11.371195167999318 1 rotate no_reflect no_shear #
lump $-1 $-1 $59 $8 #
transform $-1 1 0 0 0 1 0 0 0 1 48.375499740592673 28.836327281508961 11.371195167999318 1 rotate no_reflect no_shear #
lump $-1 $-1 $60 $9 #
transform $-1 1 0 0 0 1 0 0 0 1 48.375499740592673 28.836327281508961 11.371195167999318 1 rotate no_reflect no_shear #
lump $-1 $-1 $61 $10 #
transform $-1 1 0 0 0 1 0 0 0 1 48.375499740592673 28.836327281508961 11.371195167999318 1 rotate no_reflect no_shear #
lump $-1 $-1 $62 $11 #
transform $-1 1 0 0 0 1 0 0 0 1 48.375499740592673 28.836327281508961 11.371195167999318 1 rotate no_reflect no_shear #
lump $-1 $-1 $63 $12 #
transform $-1 1 0 0 0 1 0 0 0 1 48.375499740592673 28.836327281508961 11.371195167999318 1 rotate no_reflect no_shear #
lump $-1 $-1 $64 $13 #
transform $-1 1 0 0 0 1 0 0 0 1 48.375499740592673 28.836327281508961 11.371195167999318 1 rotate no_reflect no_shear #
lump $-1 $-1 $65 $14 #
transform $-1 1 0 0 0 1 0 0 0 1 48.375499740592673 28.836327281508961 11.371195167999318 1 rotate no_reflect no_shear #
lump $-1 $-1 $66 $15 #
transform $-1 1 0 0 0 1 0 0 0 1 48.375499740592673 28.836327281508961 11.371195167999318 1 rotate no_reflect no_shear #
lump $-1 $-1 $67 $16 #
transform $-1 1 0 0 0 1 0 0 0 1 48.375499740592673 28.836327281508961 11.371195167999318 1 rotate no_reflect no_shear #
shell $-1 $-1 $-1 $68 $-1 $17 #
shell $-1 $-1 $-1 $69 $-1 $19 #
shell $-1 $-1 $-1 $70 $-1 $21 #
shell $-1 $-1 $-1 $71 $-1 $23 #
shell $-1 $-1 $-1 $72 $-1 $25 #
shell $-1 $-1 $-1 $73 $-1 $27 #
shell $-1 $-1 $-1 $74 $-1 $29 #
shell $-1 $-1 $-1 $75 $-1 $31 #
shell $-1 $-1 $-1 $76 $-1 $33 #
shell $-1 $-1 $-1 $77 $-1 $35 #
shell $-1 $-1 $-1 $78 $-1 $37 #
shell $-1 $-1 $-1 $79 $-1 $39 #
shell $-1 $-1 $-1 $80 $-1 $41 #
shell $-1 $-1 $-1 $81 $-1 $43 #
shell $-1 $-1 $-1 $82 $-1 $45 #
shell $-1 $-1 $-1 $83 $-1 $47 #
shell $-1 $-1 $-1 $84 $-1 $49 #
face $-1 $85 $86 $51 $-1 $87 forward single #
face $-1 $88 $89 $52 $-1 $90 reversed single #
face $-1 $91 $92 $53 $-1 $93 reversed single #
face $-1 $94 $95 $54 $-1 $96 forward single #
face $-1 $97 $98 $55 $-1 $99 forward single #
face $-1 $100 $101 $56 $-1 $102 reversed single #
face $-1 $103 $104 $57 $-1 $105 forward single #
face $-1 $106 $107 $58 $-1 $108 forward single #
face $-1 $109 $110 $59 $-1 $111 reversed single #
face $-1 $112 $113 $60 $-1 $114 forward single #
face $-1 $115 $116 $61 $-1 $117 forward single #
face $-1 $118 $119 $62 $-1 $120 reversed single #
face $-1 $121 $122 $63 $-1 $123 forward single #
face $-1 $124 $125 $64 $-1 $126 forward single #
face $-1 $127 $128 $65 $-1 $129 reversed single #
face $-1 $130 $131 $66 $-1 $132 forward single #
face $-1 $133 $134 $67 $-1 $135 forward single #
face $-1 $136 $137 $51 $-1 $138 reversed single #
loop $-1 $-1 $139 $68 #
plane-surface $-1 0 0 11.371195167999318 0 0 1 1 0 0 forward_v I I I I #
face $-1 $140 $141 $52 $-1 $142 reversed single #
loop $-1 $-1 $143 $69 #
plane-surface $-1 -30.717751799762723 -21.565876528502901 0 1 0 0 0 0 -1 forward_v I I I I #
face $-1 $144 $145 $53 $-1 $146 reversed single #
loop $-1 $-1 $147 $70 #
plane-surface $-1 72.135187167634257 -3.5124875112453928 134.79053672954575 0 -1 0 -0.81915205242281985 0 -0.57357642473473569 forward_v I I I I #
face $-1 $148 $149 $54 $-1 $150 forward single #
loop $-1 $151 $152 $71 #
cone-surface $-1 43.999762569332539 -8.1915670972937988 5.420141650953811 -0.81915205242281985 0 -0.57357642473473569 0.14339410618368392 0 -0.20478801310570496 1 I I 0 1 0.25 forward I I I I #
face $-1 $153 $154 $55 $-1 $155 forward single #
loop $-1 $156 $157 $72 #
cone-surface $-1 43.999762569332539 -5.3841193456647538 5.420141650953811 -0.81915205242281985 0 -0.57357642473473569 0.14339410618368392 0 -0.20478801310570496 1 I I 0 1 0.25 forward I I I I #
face $-1 $158 $159 $56 $-1 $160 reversed single #
loop $-1 $-1 $161 $73 #
plane-surface $-1 72.135187167634257 5.8597084717448311 134.79053672954575 0 -1 0 -0.81915205242281985 0 -0.57357642473473569 forward_v I I I I #
face $-1 $162 $163 $57 $-1 $164 forward single #
loop $-1 $165 $166 $74 #
cone-surface $-1 43.999762569332539 1.1806288856964251 5.420141650953811 -0.81915205242281985 0 -0.57357642473473569 0.14339410618368392 0 -0.20478801310570496 1 I I 0 1 0.25 forward I I I I #
face $-1 $167 $168 $58 $-1 $169 forward single #
loop $-1 $170 $171 $75 #
cone-surface $-1 43.999762569332539 3.9880766373254737 5.420141650953811 -0.81915205242281985 0 -0.57357642473473569 0.14339410618368392 0 -0.20478801310570496 1 I I 0 1 0.25 forward I I I I #
face $-1 $172 $173 $59 $-1 $174 reversed single #
loop $-1 $-1 $175 $76 #
plane-surface $-1 72.135187167634257 15.231904454735059 134.79053672954575 0 -1 0 -0.81915205242281985 0 -0.57357642473473569 forward_v I I I I #
face $-1 $176 $177 $60 $-1 $178 forward single #
loop $-1 $179 $180 $77 #
cone-surface $-1 43.999762569332539 10.552824868686653 5.420141650953811 -0.81915205242281985 0 -0.57357642473473569 0.14339410618368392 0 -0.20478801310570496 1 I I 0 1 0.25 forward I I I I #
face $-1 $181 $182 $61 $-1 $183 forward single #
loop $-1 $184 $185 $78 #
cone-surface $-1 43.999762569332539 13.360272620315694 5.420141650953811 -0.81915205242281985 0 -0.57357642473473569 0.14339410618368392 0 -0.20478801310570496 1 I I 0 1 0.25 forward I I I I #
face $-1 $186 $187 $62 $-1 $188 reversed single #
loop $-1 $-1 $189 $79 #
plane-surface $-1 72.135187167634257 24.604100437725279 134.79053672954575 0 -1 0 -0.81915205242281985 0 -0.57357642473473569 forward_v I I I I #
face $-1 $190 $191 $63 $-1 $192 forward single #
loop $-1 $193 $194 $80 #
cone-surface $-1 43.999762569332539 19.925020851676873 5.420141650953811 -0.81915205242281985 0 -0.57357642473473569 0.14339410618368392 0 -0.20478801310570496 1 I I 0 1 0.25 forward I I I I #
face $-1 $195 $196 $64 $-1 $197 forward single #
loop $-1 $198 $199 $81 #
cone-surface $-1 43.999762569332539 22.732468603305914 5.420141650953811 -0.81915205242281985 0 -0.57357642473473569 0.14339410618368392 0 -0.20478801310570496 1 I I 0 1 0.25 forward I I I I #
face $-1 $200 $201 $65 $-1 $202 reversed single #
loop $-1 $-1 $203 $82 #
plane-surface $-1 -103.86959395161536 13.777534068265776 82.65135914232502 0 1 0 -0.57357644374324357 0 0.81915203911291934 forward_v I I I I #
face $-1 $204 $205 $66 $-1 $206 forward single #
loop $-1 $207 $208 $83 #
cone-surface $-1 -42.391127245486054 17.077900319494763 6.9693370334530496 0.57357644374324357 0 -0.81915203911291934 0.81915203911291934 0 0.57357644374324357 1 I I 0 1 1 forward I I I I #
face $-1 $209 $210 $67 $-1 $211 forward single #
loop $-1 $212 $213 $84 #
cone-surface $-1 -42.391127245486054 22.028449696338246 6.9693370334530496 0.57357644374324357 0 -0.81915203911291934 0.81915203911291934 0 0.57357644374324357 1 I I 0 1 1 forward I I I I #
face $-1 $214 $215 $51 $-1 $216 reversed single #
loop $-1 $-1 $217 $85 #
plane-surface $-1 0 0 -11.371195167999318 0 0 1 1 0 0 forward_v I I I I #
coedge $-1 $218 $219 $220 $221 forward $86 $-1 #
face $-1 $222 $223 $52 $-1 $224 reversed single #
loop $-1 $-1 $225 $88 #
plane-surface $-1 -28.17543060217838 -14.295425775496842 0 0 -1 0 0 0 -1 forward_v I I I I #
coedge $-1 $226 $227 $228 $229 forward $89 $-1 #
face $-1 $230 $231 $53 $-1 $232 reversed single #
loop $-1 $-1 $233 $91 #
plane-surface $-1 -7.1185926313379042 -6.7878432214792781 79.296444357615201 0.81915205242281985 0 0.57357642473473569 0.57357642473473569 0 -0.81915205242281985 forward_v I I I I #
coedge $-1 $234 $235 $236 $237 reversed $92 $-1 #
face $-1 $-1 $238 $54 $-1 $239 forward single #
loop $-1 $240 $241 $94 #
cone-surface $-1 43.487792536568278 -8.1915670972937988 5.0616563854946008 -0.81915205242281985 0 -0.57357642473473569 0.071697053091841961 0 -0.10239400655285248 1 I I -0.70710678118654746 0.70710678118654746 0.125 forward I I I I #
loop $-1 $-1 $242 $71 #
coedge $-1 $152 $152 $243 $244 reversed $95 $-1 #
face $-1 $-1 $245 $55 $-1 $246 forward single #
loop $-1 $247 $248 $97 #
cone-surface $-1 43.487792536568278 -5.3841193456647538 5.0616563854946008 -0.81915205242281985 0 -0.57357642473473569 0.071697053091841961 0 -0.10239400655285248 1 I I -0.70710678118654746 0.70710678118654746 0.125 forward I I I I #
loop $-1 $-1 $249 $72 #
coedge $-1 $157 $157 $250 $251 reversed $98 $-1 #
face $-1 $252 $253 $56 $-1 $254 reversed single #
loop $-1 $-1 $255 $100 #
plane-surface $-1 -7.1185926313379042 2.5843527615109458 79.296444357615201 0.81915205242281985 0 0.57357642473473569 0.57357642473473569 0 -0.81915205242281985 forward_v I I I I #
coedge $-1 $256 $257 $258 $259 reversed $101 $-1 #
face $-1 $-1 $260 $57 $-1 $261 forward single #
loop $-1 $262 $263 $103 #
cone-surface $-1 43.487792536568278 1.1806288856964251 5.0616563854946008 -0.81915205242281985 0 -0.57357642473473569 0.071697053091841961 0 -0.10239400655285248 1 I I -0.70710678118654746 0.70710678118654746 0.125 forward I I I I #
loop $-1 $-1 $264 $74 #
coedge $-1 $166 $166 $265 $266 reversed $104 $-1 #
face $-1 $-1 $267 $58 $-1 $268 forward single #
loop $-1 $269 $270 $106 #
cone-surface $-1 43.487792536568278 3.9880766373254737 5.0616563854946008 -0.81915205242281985 0 -0.57357642473473569 0.071697053091841961 0 -0.10239400655285248 1 I I -0.70710678118654746 0.70710678118654746 0.125 forward I I I I #
loop $-1 $-1 $271 $75 #
coedge $-1 $171 $171 $272 $273 reversed $107 $-1 #
face $-1 $274 $275 $59 $-1 $276 reversed single #
loop $-1 $-1 $277 $109 #
plane-surface $-1 -7.1185926313379042 11.956548744501173 79.296444357615201 0.81915205242281985 0 0.57357642473473569 0.57357642473473569 0 -0.81915205242281985 forward_v I I I I #
coedge $-1 $278 $279 $280 $281 reversed $110 $-1 #
face $-1 $-1 $282 $60 $-1 $283 forward single #
loop $-1 $284 $285 $112 #
cone-surface $-1 43.487792536568278 10.552824868686653 5.0616563854946008 -0.81915205242281985 0 -0.57357642473473569 0.071697053091841961 0 -0.10239400655285248 1 I I -0.70710678118654746 0.70710678118654746 0.125 forward I I I I #
loop $-1 $-1 $286 $77 #
coedge $-1 $180 $180 $287 $288 reversed $113 $-1 #
face $-1 $-1 $289 $61 $-1 $290 forward single #
loop $-1 $291 $292 $115 #
cone-surface $-1 43.487792536568278 13.360272620315694 5.0616563854946008 -0.81915205242281985 0 -0.57357642473473569 0.071697053091841961 0 -0.10239400655285248 1 I I -0.70710678118654746 0.70710678118654746 0.125 forward I I I I #
loop $-1 $-1 $293 $78 #
coedge $-1 $185 $185 $294 $295 reversed $116 $-1 #
face $-1 $296 $297 $62 $-1 $298 reversed single #
loop $-1 $-1 $299 $118 #
plane-surface $-1 -7.1185926313379042 21.328744727491394 79.296444357615201 0.81915205242281985 0 0.57357642473473569 0.57357642473473569 0 -0.81915205242281985 forward_v I I I I #
coedge $-1 $300 $301 $302 $303 reversed $119 $-1 #
face $-1 $-1 $304 $63 $-1 $305 forward single #
loop $-1 $306 $307 $121 #
cone-surface $-1 43.487792536568278 19.925020851676873 5.0616563854946008 -0.81915205242281985 0 -0.57357642473473569 0.071697053091841961 0 -0.10239400655285248 1 I I -0.70710678118654746 0.70710678118654746 0.125 forward I I I I #
loop $-1 $-1 $308 $80 #
coedge $-1 $194 $194 $309 $310 reversed $122 $-1 #
face $-1 $-1 $311 $64 $-1 $312 forward single #
loop $-1 $313 $314 $124 #
cone-surface $-1 43.487792536568278 22.732468603305914 5.0616563854946008 -0.81915205242281985 0 -0.57357642473473569 0.071697053091841961 0 -0.10239400655285248 1 I I -0.70710678118654746 0.70710678118654746 0.125 forward I I I I #
loop $-1 $-1 $315 $81 #
coedge $-1 $199 $199 $316 $317 reversed $125 $-1 #
face $-1 $318 $319 $65 $-1 $320 reversed single #
loop $-1 $-1 $321 $127 #
plane-surface $-1 -48.375499740592666 19.553175007916504 3.3975806310990464 -0.57357644374324357 0 0.81915203911291934 0.81915203911291934 0 0.57357644374324357 forward_v I I I I #
coedge $-1 $322 $323 $324 $325 reversed $128 $-1 #
face $-1 $-1 $326 $66 $-1 $327 forward single #
loop $-1 $328 $329 $130 #
cone-surface $-1 -41.813717272851555 17.077900319494763 6.1447101478004491 0.57357644374324357 0 -0.81915203911291934 0.40957601955645967 0 0.28678822187162178 1 I I -0.70710678118654746 0.70710678118654746 0.5 forward I I I I #
loop $-1 $-1 $330 $83 #
coedge $-1 $208 $208 $331 $332 reversed $131 $-1 #
face $-1 $-1 $333 $67 $-1 $334 forward single #
loop $-1 $335 $336 $133 #
cone-surface $-1 -41.813717272851555 22.028449696338246 6.1447101478004491 0.57357644374324357 0 -0.81915203911291934 0.40957601955645967 0 0.28678822187162178 1 I I -0.70710678118654746 0.70710678118654746 0.5 forward I I I I #
loop $-1 $-1 $337 $84 #
coedge $-1 $213 $213 $338 $339 reversed $134 $-1 #
face $-1 $340 $341 $51 $-1 $342 reversed single #
loop $-1 $-1 $343 $136 #
plane-surface $-1 0 -28.836327281508961 0 0 1 0 0 0 1 forward_v I I I I #
coedge $-1 $344 $345 $346 $347 forward $137 $-1 #
coedge $-1 $348 $139 $349 $350 forward $86 $-1 #
coedge $-1 $139 $348 $351 $352 forward $86 $-1 #
coedge $-1 $353 $354 $139 $221 reversed $355 $-1 #
edge $-1 $356 -28.836327281508961 $357 28.836327281508961 $220 $358 forward 7 unknown #
face $-1 $359 $360 $52 $-1 $361 forward single #
loop $-1 $-1 $362 $140 #
plane-surface $-1 -25.633109404594038 -21.565876528502901 0 -1 0 0 0 0 1 forward_v I I I I #
coedge $-1 $363 $364 $365 $366 forward $141 $-1 #
coedge $-1 $367 $143 $368 $369 reversed $89 $-1 #
coedge $-1 $143 $367 $370 $371 reversed $89 $-1 #
coedge $-1 $364 $363 $143 $229 reversed $141 $-1 #
edge $-1 $372 -11.371195167999318 $373 11.371195167999318 $228 $374 forward 7 unknown #
face $-1 $375 $376 $53 $-1 $377 reversed single #
loop $-1 $-1 $378 $144 #
plane-surface $-1 72.135187167634257 -10.063198931713163 134.79053672954575 0 1 0 0.81915205242281985 0 0.57357642473473569 forward_v I I I I #
coedge $-1 $379 $380 $381 $382 reversed $145 $-1 #
coedge $-1 $235 $147 $383 $384 reversed $92 $-1 #
coedge $-1 $147 $234 $379 $385 reversed $92 $-1 #
coedge $-1 $381 $386 $147 $237 forward $387 $-1 #
edge $-1 $388 -12.307906156775545 $389 -4.3755838666780988 $236 $390 forward 7 unknown #
loop $-1 $-1 $243 $148 #
plane-surface $-1 -7.1185926313379042 -6.7878432214792781 79.296444357615201 0.81915205242281985 0 0.57357642473473569 0.57357642473473569 0 -0.81915205242281985 forward_v I I I I #
loop $-1 $-1 $391 $94 #
coedge $-1 $241 $241 $242 $392 reversed $149 $-1 #
coedge $-1 $242 $242 $241 $392 forward $151 $-1 #
coedge $-1 $243 $243 $152 $244 forward $238 $-1 #
edge $-1 $393 0 $393 6.2831853071796004 $243 $394 forward 7 unknown #
loop $-1 $-1 $250 $153 #
plane-surface $-1 -7.1185926313379042 -6.7878432214792781 79.296444357615201 0.81915205242281985 0 0.57357642473473569 0.57357642473473569 0 -0.81915205242281985 forward_v I I I I #
loop $-1 $-1 $395 $97 #
coedge $-1 $248 $248 $249 $396 reversed $154 $-1 #
coedge $-1 $249 $249 $248 $396 forward $156 $-1 #
coedge $-1 $250 $250 $157 $251 forward $245 $-1 #
edge $-1 $397 0 $397 6.2831853071796004 $250 $398 forward 7 unknown #
face $-1 $399 $400 $56 $-1 $401 reversed single #
loop $-1 $-1 $402 $158 #
plane-surface $-1 72.135187167634257 -0.69100294872293944 134.79053672954575 0 1 0 0.81915205242281985 0 0.57357642473473569 forward_v I I I I #
coedge $-1 $403 $404 $405 $406 reversed $159 $-1 #
coedge $-1 $257 $161 $407 $408 reversed $101 $-1 #
coedge $-1 $161 $256 $403 $409 reversed $101 $-1 #
coedge $-1 $405 $410 $161 $259 forward $411 $-1 #
edge $-1 $412 -12.307906156775545 $413 -4.3755838666780988 $258 $414 forward 7 unknown #
loop $-1 $-1 $265 $162 #
plane-surface $-1 -7.1185926313379042 2.5843527615109458 79.296444357615201 0.81915205242281985 0 0.57357642473473569 0.57357642473473569 0 -0.81915205242281985 forward_v I I I I #
loop $-1 $-1 $415 $103 #
coedge $-1 $263 $263 $264 $416 reversed $163 $-1 #
coedge $-1 $264 $264 $263 $416 forward $165 $-1 #
coedge $-1 $265 $265 $166 $266 forward $260 $-1 #
edge $-1 $417 0 $417 6.2831853071796004 $265 $418 forward 7 unknown #
loop $-1 $-1 $272 $167 #
plane-surface $-1 -7.1185926313379042 2.5843527615109458 79.296444357615201 0.81915205242281985 0 0.57357642473473569 0.57357642473473569 0 -0.81915205242281985 forward_v I I I I #
loop $-1 $-1 $419 $106 #
coedge $-1 $270 $270 $271 $420 reversed $168 $-1 #
coedge $-1 $271 $271 $270 $420 forward $170 $-1 #
coedge $-1 $272 $272 $171 $273 forward $267 $-1 #
edge $-1 $421 0 $421 6.2831853071796004 $272 $422 forward 7 unknown #
face $-1 $423 $424 $59 $-1 $425 reversed single #
loop $-1 $-1 $426 $172 #
plane-surface $-1 72.135187167634257 8.6811930342672881 134.79053672954575 0 1 0 0.81915205242281985 0 0.57357642473473569 forward_v I I I I #
coedge $-1 $427 $428 $429 $430 reversed $173 $-1 #
coedge $-1 $279 $175 $431 $432 reversed $110 $-1 #
coedge $-1 $175 $278 $427 $433 reversed $110 $-1 #
coedge $-1 $429 $434 $175 $281 forward $435 $-1 #
edge $-1 $436 -12.307906156775545 $437 -4.3755838666780988 $280 $438 forward 7 unknown #
loop $-1 $-1 $287 $176 #
plane-surface $-1 -7.1185926313379042 11.956548744501173 79.296444357615201 0.81915205242281985 0 0.57357642473473569 0.57357642473473569 0 -0.81915205242281985 forward_v I I I I #
loop $-1 $-1 $439 $112 #
coedge $-1 $285 $285 $286 $440 reversed $177 $-1 #
coedge $-1 $286 $286 $285 $440 forward $179 $-1 #
coedge $-1 $287 $287 $180 $288 forward $282 $-1 #
edge $-1 $441 0 $441 6.2831853071796004 $287 $442 forward 7 unknown #
loop $-1 $-1 $294 $181 #
plane-surface $-1 -7.1185926313379042 11.956548744501173 79.296444357615201 0.81915205242281985 0 0.57357642473473569 0.57357642473473569 0 -0.81915205242281985 forward_v I I I I #
loop $-1 $-1 $443 $115 #
coedge $-1 $292 $292 $293 $444 reversed $182 $-1 #
coedge $-1 $293 $293 $292 $444 forward $184 $-1 #
coedge $-1 $294 $294 $185 $295 forward $289 $-1 #
edge $-1 $445 0 $445 6.2831853071796004 $294 $446 forward 7 unknown #
face $-1 $447 $448 $62 $-1 $449 reversed single #
loop $-1 $-1 $450 $186 #
plane-surface $-1 72.135187167634257 18.053389017257508 134.79053672954575 0 1 0 0.81915205242281985 0 0.57357642473473569 forward_v I I I I #
coedge $-1 $451 $452 $453 $454 reversed $187 $-1 #
coedge $-1 $301 $189 $455 $456 reversed $119 $-1 #
coedge $-1 $189 $300 $451 $457 reversed $119 $-1 #
coedge $-1 $453 $458 $189 $303 forward $459 $-1 #
edge $-1 $460 -12.307906156775545 $461 -4.3755838666780988 $302 $462 forward 7 unknown #
loop $-1 $-1 $309 $190 #
plane-surface $-1 -7.1185926313379042 21.328744727491394 79.296444357615201 0.81915205242281985 0 0.57357642473473569 0.57357642473473569 0 -0.81915205242281985 forward_v I I I I #
loop $-1 $-1 $463 $121 #
coedge $-1 $307 $307 $308 $464 reversed $191 $-1 #
coedge $-1 $308 $308 $307 $464 forward $193 $-1 #
coedge $-1 $309 $309 $194 $310 forward $304 $-1 #
edge $-1 $465 0 $465 6.2831853071796004 $309 $466 forward 7 unknown #
loop $-1 $-1 $316 $195 #
plane-surface $-1 -7.1185926313379042 21.328744727491394 79.296444357615201 0.81915205242281985 0 0.57357642473473569 0.57357642473473569 0 -0.81915205242281985 forward_v I I I I #
loop $-1 $-1 $467 $124 #
coedge $-1 $314 $314 $315 $468 reversed $196 $-1 #
coedge $-1 $315 $315 $314 $468 forward $198 $-1 #
coedge $-1 $316 $316 $199 $317 forward $311 $-1 #
edge $-1 $469 0 $469 6.2831853071796004 $316 $470 forward 7 unknown #
face $-1 $471 $472 $65 $-1 $473 reversed single #
loop $-1 $-1 $474 $200 #
plane-surface $-1 -103.86959395161536 25.328815947567232 82.65135914232502 0 -1 0 0.57357644374324357 0 -0.81915203911291934 forward_v I I I I #
coedge $-1 $475 $476 $477 $478 reversed $201 $-1 #
coedge $-1 $323 $203 $479 $480 reversed $128 $-1 #
coedge $-1 $203 $322 $475 $481 reversed $128 $-1 #
coedge $-1 $477 $482 $203 $325 forward $483 $-1 #
edge $-1 $484 3.5592972352150056 $485 14.946798723902525 $324 $486 forward 7 unknown #
loop $-1 $-1 $331 $204 #
plane-surface $-1 -48.375499740592666 19.553175007916504 3.3975806310990464 -0.57357644374324357 0 0.81915203911291934 0.81915203911291934 0 0.57357644374324357 forward_v I I I I #
loop $-1 $-1 $487 $130 #
coedge $-1 $329 $329 $330 $488 reversed $205 $-1 #
coedge $-1 $330 $330 $329 $488 forward $207 $-1 #
coedge $-1 $331 $331 $208 $332 forward $326 $-1 #
edge $-1 $489 0 $489 6.2831853071796004 $331 $490 forward 7 unknown #
loop $-1 $-1 $338 $209 #
plane-surface $-1 -48.375499740592666 19.553175007916504 3.3975806310990464 -0.57357644374324357 0 0.81915203911291934 0.81915203911291934 0 0.57357644374324357 forward_v I I I I #
loop $-1 $-1 $491 $133 #
coedge $-1 $336 $336 $337 $492 reversed $210 $-1 #
coedge $-1 $337 $337 $336 $492 forward $212 $-1 #
coedge $-1 $338 $338 $213 $339 forward $333 $-1 #
edge $-1 $493 0 $493 6.2831853071796004 $338 $494 forward 7 unknown #
face $-1 $495 $496 $51 $-1 $497 reversed single #
loop $-1 $-1 $498 $214 #
plane-surface $-1 -48.375499740592673 0 0 1 0 0 0 0 -1 forward_v I I I I #
coedge $-1 $499 $351 $500 $501 forward $215 $-1 #
coedge $-1 $502 $217 $499 $503 forward $137 $-1 #
coedge $-1 $217 $502 $504 $505 forward $137 $-1 #
coedge $-1 $354 $353 $217 $347 reversed $355 $-1 #
edge $-1 $506 -28.836327281508961 $507 28.836327281508961 $346 $508 forward 7 unknown #
coedge $-1 $219 $218 $509 $510 forward $86 $-1 #
coedge $-1 $511 $512 $218 $350 reversed $496 $-1 #
edge $-1 $357 -48.375499740592673 $513 48.375499740592673 $349 $514 forward 7 unknown #
coedge $-1 $343 $515 $219 $352 reversed $215 $-1 #
edge $-1 $516 -48.375499740592673 $356 48.375499740592673 $351 $517 forward 7 unknown #
coedge $-1 $346 $220 $515 $518 forward $355 $-1 #
coedge $-1 $220 $346 $511 $519 reversed $355 $-1 #
loop $-1 $-1 $353 $495 #
vertex $-1 $221 $520 #
vertex $-1 $221 $521 #
straight-curve $-1 48.375499740592673 0 11.371195167999318 0 1 0 I I #
face $-1 $522 $523 $52 $-1 $524 reversed single #
loop $-1 $-1 $525 $222 #
plane-surface $-1 0 0 11.371195167999318 0 0 1 1 0 0 forward_v I I I I #
coedge $-1 $526 $527 $528 $529 reversed $223 $-1 #
coedge $-1 $228 $225 $530 $531 reversed $141 $-1 #
coedge $-1 $225 $228 $532 $533 reversed $141 $-1 #
coedge $-1 $527 $526 $225 $366 reversed $223 $-1 #
edge $-1 $534 -11.371195167999318 $535 11.371195167999318 $365 $536 forward 7 unknown #
coedge $-1 $227 $226 $537 $538 reversed $89 $-1 #
coedge $-1 $530 $539 $226 $369 forward $523 $-1 #
edge $-1 $540 -18.053389017257508 $373 -3.512487511245391 $368 $541 forward 7 unknown #
coedge $-1 $542 $532 $227 $371 forward $360 $-1 #
edge $-1 $372 3.512487511245391 $543 18.053389017257508 $370 $544 forward 7 unknown #
vertex $-1 $371 $545 #
vertex $-1 $369 $546 #
straight-curve $-1 -30.717751799762723 -14.295425775496842 0 0 0 -1 I I #
face $-1 $-1 $387 $53 $-1 $547 forward single #
loop $-1 $-1 $548 $230 #
plane-surface $-1 48.375499740592673 0 0 -1 0 0 0 0 1 forward_v I I I I #
coedge $-1 $549 $550 $551 $552 reversed $231 $-1 #
coedge $-1 $553 $233 $235 $385 forward $145 $-1 #
coedge $-1 $233 $553 $549 $554 forward $145 $-1 #
coedge $-1 $551 $236 $233 $382 forward $387 $-1 #
edge $-1 $389 0.11856590050575377 $555 6.6692773209735243 $381 $556 forward 7 unknown #
coedge $-1 $557 $558 $234 $384 forward $376 $-1 #
edge $-1 $559 -67.352603806129849 $388 -56.024073196773557 $383 $560 forward 7 unknown #
edge $-1 $389 82.9214173225987 $559 96.750999481185374 $235 $561 forward 7 unknown #
coedge $-1 $236 $551 $557 $562 forward $387 $-1 #
loop $-1 $-1 $551 $375 #
vertex $-1 $384 $563 #
vertex $-1 $237 $564 #
straight-curve $-1 36.067593583817128 -3.5124875112453928 11.371195167999318 -1 0 0 I I #
coedge $-1 $391 $391 $-1 $565 reversed $240 $-1 #
edge $-1 $566 0 $566 6.2831853071796004 $241 $567 forward 7 unknown #
vertex $-1 $244 $568 #
ellipse-curve $-1 44.40933859554395 -8.1915670972937988 5.7069298633211787 0.81915205242281985 0 0.57357642473473569 0.14339410618368392 0 -0.20478801310570496 1 I I #
coedge $-1 $395 $395 $-1 $569 reversed $247 $-1 #
edge $-1 $570 0 $570 6.2831853071796004 $248 $571 forward 7 unknown #
vertex $-1 $251 $572 #
ellipse-curve $-1 44.40933859554395 -5.3841193456647538 5.7069298633211787 0.81915205242281985 0 0.57357642473473569 0.14339410618368392 0 -0.20478801310570496 1 I I #
face $-1 $-1 $411 $56 $-1 $573 forward single #
loop $-1 $-1 $574 $252 #
plane-surface $-1 48.375499740592673 0 0 -1 0 0 0 0 1 forward_v I I I I #
coedge $-1 $575 $576 $577 $578 reversed $253 $-1 #
coedge $-1 $579 $255 $257 $409 forward $159 $-1 #
coedge $-1 $255 $579 $575 $580 forward $159 $-1 #
coedge $-1 $577 $258 $255 $406 forward $411 $-1 #
edge $-1 $413 -4.5675320909893582 $581 1.9831793294784124 $405 $582 forward 7 unknown #
coedge $-1 $583 $584 $256 $408 forward $400 $-1 #
edge $-1 $585 -67.352603806129849 $412 -56.024073196773557 $407 $586 forward 7 unknown #
edge $-1 $413 82.9214173225987 $585 96.750999481185374 $257 $587 forward 7 unknown #
coedge $-1 $258 $577 $583 $588 forward $411 $-1 #
loop $-1 $-1 $577 $399 #
vertex $-1 $408 $589 #
vertex $-1 $259 $590 #
straight-curve $-1 36.067593583817128 5.8597084717448311 11.371195167999318 -1 0 0 I I #
coedge $-1 $415 $415 $-1 $591 reversed $262 $-1 #
edge $-1 $592 0 $592 6.2831853071796004 $263 $593 forward 7 unknown #
vertex $-1 $266 $594 #
ellipse-curve $-1 44.40933859554395 1.1806288856964251 5.7069298633211787 0.81915205242281985 0 0.57357642473473569 0.14339410618368392 0 -0.20478801310570496 1 I I #
coedge $-1 $419 $419 $-1 $595 reversed $269 $-1 #
edge $-1 $596 0 $596 6.2831853071796004 $270 $597 forward 7 unknown #
vertex $-1 $273 $598 #
ellipse-curve $-1 44.40933859554395 3.9880766373254737 5.7069298633211787 0.81915205242281985 0 0.57357642473473569 0.14339410618368392 0 -0.20478801310570496 1 I I #
face $-1 $-1 $435 $59 $-1 $599 forward single #
loop $-1 $-1 $600 $274 #
plane-surface $-1 48.375499740592673 0 0 -1 0 0 0 0 1 forward_v I I I I #
coedge $-1 $601 $602 $603 $604 reversed $275 $-1 #
coedge $-1 $605 $277 $279 $433 forward $173 $-1 #
coedge $-1 $277 $605 $601 $606 forward $173 $-1 #
coedge $-1 $603 $280 $277 $430 forward $435 $-1 #
edge $-1 $437 -9.2536300824844719 $607 -2.7029186620167014 $429 $608 forward 7 unknown #
coedge $-1 $609 $610 $278 $432 forward $424 $-1 #
edge $-1 $611 -67.352603806129849 $436 -56.024073196773557 $431 $612 forward 7 unknown #
edge $-1 $437 82.9214173225987 $611 96.750999481185374 $279 $613 forward 7 unknown #
coedge $-1 $280 $603 $609 $614 forward $435 $-1 #
loop $-1 $-1 $603 $423 #
vertex $-1 $432 $615 #
vertex $-1 $281 $616 #
straight-curve $-1 36.067593583817128 15.231904454735059 11.371195167999318 -1 0 0 I I #
coedge $-1 $439 $439 $-1 $617 reversed $284 $-1 #
edge $-1 $618 0 $618 6.2831853071796004 $285 $619 forward 7 unknown #
vertex $-1 $288 $620 #
ellipse-curve $-1 44.40933859554395 10.552824868686653 5.7069298633211787 0.81915205242281985 0 0.57357642473473569 0.14339410618368392 0 -0.20478801310570496 1 I I #
coedge $-1 $443 $443 $-1 $621 reversed $291 $-1 #
edge $-1 $622 0 $622 6.2831853071796004 $292 $623 forward 7 unknown #
vertex $-1 $295 $624 #
ellipse-curve $-1 44.40933859554395 13.360272620315694 5.7069298633211787 0.81915205242281985 0 0.57357642473473569 0.14339410618368392 0 -0.20478801310570496 1 I I #
face $-1 $-1 $459 $62 $-1 $625 forward single #
loop $-1 $-1 $626 $296 #
plane-surface $-1 48.375499740592673 0 0 -1 0 0 0 0 1 forward_v I I I I #
coedge $-1 $627 $628 $629 $630 reversed $297 $-1 #
coedge $-1 $631 $299 $301 $457 forward $187 $-1 #
coedge $-1 $299 $631 $627 $632 forward $187 $-1 #
coedge $-1 $629 $302 $299 $454 forward $459 $-1 #
edge $-1 $461 -13.939728073979582 $633 -7.3890166535118116 $453 $634 forward 7 unknown #
coedge $-1 $635 $636 $300 $456 forward $448 $-1 #
edge $-1 $637 -67.352603806129849 $460 -56.024073196773557 $455 $638 forward 7 unknown #
edge $-1 $461 82.9214173225987 $637 96.750999481185374 $301 $639 forward 7 unknown #
coedge $-1 $302 $629 $635 $640 forward $459 $-1 #
loop $-1 $-1 $629 $447 #
vertex $-1 $456 $641 #
vertex $-1 $303 $642 #
straight-curve $-1 36.067593583817128 24.604100437725279 11.371195167999318 -1 0 0 I I #
coedge $-1 $463 $463 $-1 $643 reversed $306 $-1 #
edge $-1 $644 0 $644 6.2831853071796004 $307 $645 forward 7 unknown #
vertex $-1 $310 $646 #
ellipse-curve $-1 44.40933859554395 19.925020851676873 5.7069298633211787 0.81915205242281985 0 0.57357642473473569 0.14339410618368392 0 -0.20478801310570496 1 I I #
coedge $-1 $467 $467 $-1 $647 reversed $313 $-1 #
edge $-1 $648 0 $648 6.2831853071796004 $314 $649 forward 7 unknown #
vertex $-1 $317 $650 #
ellipse-curve $-1 44.40933859554395 22.732468603305914 5.7069298633211787 0.81915205242281985 0 0.57357642473473569 0.14339410618368392 0 -0.20478801310570496 1 I I #
face $-1 $-1 $483 $65 $-1 $651 forward single #
loop $-1 $-1 $652 $318 #
plane-surface $-1 -48.375499740592673 0 0 1 0 0 0 0 -1 forward_v I I I I #
coedge $-1 $653 $654 $655 $656 reversed $319 $-1 #
coedge $-1 $657 $321 $323 $481 forward $201 $-1 #
coedge $-1 $321 $657 $653 $658 forward $201 $-1 #
coedge $-1 $655 $324 $321 $478 forward $483 $-1 #
edge $-1 $485 4.0009465643075242 $659 15.55222844360898 $477 $660 forward 7 unknown #
coedge $-1 $661 $662 $322 $480 forward $472 $-1 #
edge $-1 $663 -37.928098940063471 $484 -29.954484403163192 $479 $664 forward 7 unknown #
edge $-1 $485 -13.901572534714468 $663 8.6223355153435888e-015 $323 $665 forward 7 unknown #
coedge $-1 $324 $655 $661 $666 forward $483 $-1 #
loop $-1 $-1 $655 $471 #
vertex $-1 $480 $667 #
vertex $-1 $325 $668 #
straight-curve $-1 -51.934796975807679 13.777534068265776 11.371195167999318 1 0 0 I I #
coedge $-1 $487 $487 $-1 $669 reversed $328 $-1 #
edge $-1 $670 0 $670 6.2831853071796004 $329 $671 forward 7 unknown #
vertex $-1 $332 $672 #
ellipse-curve $-1 -42.68174899624892 17.077900319494763 7.3843878995491758 -0.57357644374324357 0 0.81915203911291934 0.81915203911291934 0 0.57357644374324357 1 I I #
coedge $-1 $491 $491 $-1 $673 reversed $335 $-1 #
edge $-1 $674 0 $674 6.2831853071796004 $336 $675 forward 7 unknown #
vertex $-1 $339 $676 #
ellipse-curve $-1 -42.68174899624892 22.028449696338246 7.3843878995491758 -0.57357644374324357 0 0.81915203911291934 0.81915203911291934 0 0.57357644374324357 1 I I #
face $-1 $-1 $355 $51 $-1 $677 reversed single #
loop $-1 $-1 $511 $340 #
plane-surface $-1 0 28.836327281508961 0 0 -1 0 0 0 -1 forward_v I I I I #
coedge $-1 $678 $509 $512 $679 forward $341 $-1 #
coedge $-1 $515 $343 $344 $503 reversed $215 $-1 #
coedge $-1 $509 $678 $343 $501 reversed $341 $-1 #
edge $-1 $516 -11.371195167999318 $680 11.371195167999318 $500 $681 forward 7 unknown #
coedge $-1 $345 $344 $678 $682 forward $137 $-1 #
edge $-1 $507 -48.375499740592673 $680 48.375499740592673 $499 $683 forward 7 unknown #
coedge $-1 $512 $511 $345 $505 reversed $496 $-1 #
edge $-1 $684 -48.375499740592673 $506 48.375499740592673 $504 $685 forward 7 unknown #
vertex $-1 $347 $686 #
vertex $-1 $518 $687 #
straight-curve $-1 48.375499740592673 0 -11.371195167999318 0 -1 0 I I #
coedge $-1 $498 $500 $348 $510 reversed $341 $-1 #
edge $-1 $513 -28.836327281508961 $516 28.836327281508961 $509 $688 forward 7 unknown #
coedge $-1 $504 $349 $354 $519 forward $496 $-1 #
coedge $-1 $349 $504 $498 $679 reversed $496 $-1 #
vertex $-1 $350 $689 #
straight-curve $-1 0 28.836327281508961 11.371195167999318 -1 0 0 I I #
coedge $-1 $351 $499 $353 $518 reversed $215 $-1 #
vertex $-1 $510 $690 #
straight-curve $-1 0 -28.836327281508961 11.371195167999318 1 0 0 I I #
edge $-1 $356 -11.371195167999318 $507 11.371195167999318 $353 $691 forward 7 unknown #
edge $-1 $357 -11.371195167999318 $506 11.371195167999318 $354 $692 forward 7 unknown #
point $-1 48.375499740592673 -28.836327281508961 11.371195167999318 #
point $-1 48.375499740592673 28.836327281508961 11.371195167999318 #
face $-1 $-1 $693 $52 $-1 $694 reversed single #
loop $-1 $-1 $695 $359 #
plane-surface $-1 0 0 -11.371195167999318 0 0 1 1 0 0 forward_v I I I I #
coedge $-1 $532 $542 $527 $696 forward $360 $-1 #
coedge $-1 $365 $362 $695 $697 reversed $223 $-1 #
coedge $-1 $362 $365 $525 $696 reversed $223 $-1 #
coedge $-1 $698 $699 $362 $529 forward $693 $-1 #
edge $-1 $700 -11.371195167999318 $701 11.371195167999318 $528 $702 forward 7 unknown #
coedge $-1 $695 $368 $363 $531 forward $523 $-1 #
edge $-1 $373 -16.630036498673533 $535 -11.545394103504847 $530 $703 forward 7 unknown #
coedge $-1 $370 $525 $364 $533 forward $360 $-1 #
edge $-1 $534 11.545394103504847 $372 16.630036498673533 $532 $704 forward 7 unknown #
vertex $-1 $533 $705 #
vertex $-1 $531 $706 #
straight-curve $-1 -25.633109404594038 -14.295425775496842 0 0 0 -1 I I #
coedge $-1 $699 $698 $367 $538 forward $693 $-1 #
edge $-1 $543 -11.371195167999318 $540 11.371195167999318 $537 $707 forward 7 unknown #
coedge $-1 $368 $695 $699 $708 forward $523 $-1 #
vertex $-1 $369 $709 #
straight-curve $-1 -30.717751799762723 -10.782938264251451 -11.371195167999318 0 1 0 I I #
coedge $-1 $525 $370 $698 $710 forward $360 $-1 #
vertex $-1 $710 $711 #
straight-curve $-1 -30.717751799762723 -10.782938264251451 11.371195167999318 0 -1 0 I I #
point $-1 -30.717751799762723 -14.295425775496842 11.371195167999318 #
point $-1 -30.717751799762723 -14.295425775496842 -11.371195167999318 #
plane-surface $-1 0 0 11.371195167999318 0 0 1 1 0 0 forward_v I I I I #
coedge $-1 $558 $557 $550 $712 forward $376 $-1 #
coedge $-1 $550 $378 $380 $554 reversed $231 $-1 #
coedge $-1 $378 $549 $548 $712 reversed $231 $-1 #
coedge $-1 $386 $381 $378 $552 forward $387 $-1 #
edge $-1 $555 4.3755838666780988 $713 12.307906156775545 $551 $714 forward 7 unknown #
coedge $-1 $380 $379 $558 $715 reversed $145 $-1 #
edge $-1 $716 -96.750999481185374 $555 -82.9214173225987 $549 $717 forward 7 unknown #
vertex $-1 $382 $718 #
straight-curve $-1 40.443177450495227 -3.393921610739639 11.371195167999318 0 -1 0 I I #
coedge $-1 $548 $383 $386 $562 reversed $376 $-1 #
coedge $-1 $383 $548 $553 $715 forward $376 $-1 #
vertex $-1 $384 $719 #
straight-curve $-1 48.375499740592673 -3.5124875112453928 67.395268364772875 0 0 1 I I #
straight-curve $-1 -7.1185926313379042 -3.5124875112453928 79.296444357615201 0.57357642473473569 0 -0.81915205242281985 I I #
edge $-1 $713 -10.063198931713163 $388 -3.5124875112453928 $557 $720 forward 7 unknown #
point $-1 48.375499740592673 -3.5124875112453928 11.371195167999318 #
point $-1 40.443177450495227 -3.5124875112453928 11.371195167999318 #
edge $-1 $721 1 $721 0 $391 $-1 forward 7 unknown #
vertex $-1 $392 $722 #
ellipse-curve $-1 43.590186543121128 -8.1915670972937988 5.1333534385864432 0.81915205242281985 0 0.57357642473473569 0.14339410618368392 0 -0.20478801310570496 1 I I #
point $-1 44.552732701727635 -8.1915670972937988 5.5021418502154731 #
edge $-1 $723 1 $723 0 $395 $-1 forward 7 unknown #
vertex $-1 $396 $724 #
ellipse-curve $-1 43.590186543121128 -5.3841193456647538 5.1333534385864432 0.81915205242281985 0 0.57357642473473569 0.14339410618368392 0 -0.20478801310570496 1 I I #
point $-1 44.552732701727635 -5.3841193456647538 5.5021418502154731 #
plane-surface $-1 0 0 11.371195167999318 0 0 1 1 0 0 forward_v I I I I #
coedge $-1 $584 $583 $576 $725 forward $400 $-1 #
coedge $-1 $576 $402 $404 $580 reversed $253 $-1 #
coedge $-1 $402 $575 $574 $725 reversed $253 $-1 #
coedge $-1 $410 $405 $402 $578 forward $411 $-1 #
edge $-1 $581 4.3755838666780988 $726 12.307906156775545 $577 $727 forward 7 unknown #
coedge $-1 $404 $403 $584 $728 reversed $159 $-1 #
edge $-1 $729 -96.750999481185374 $581 -82.9214173225987 $575 $730 forward 7 unknown #
vertex $-1 $406 $731 #
straight-curve $-1 40.443177450495227 1.2921763807554729 11.371195167999318 0 -1 0 I I #
coedge $-1 $574 $407 $410 $588 reversed $400 $-1 #
coedge $-1 $407 $574 $579 $728 forward $400 $-1 #
vertex $-1 $408 $732 #
straight-curve $-1 48.375499740592673 5.8597084717448311 67.395268364772875 0 0 1 I I #
straight-curve $-1 -7.1185926313379042 5.8597084717448311 79.296444357615201 0.57357642473473569 0 -0.81915205242281985 I I #
edge $-1 $726 -0.69100294872293944 $412 5.8597084717448311 $583 $733 forward 7 unknown #
point $-1 48.375499740592673 5.8597084717448311 11.371195167999318 #
point $-1 40.443177450495227 5.8597084717448311 11.371195167999318 #
edge $-1 $734 1 $734 0 $415 $-1 forward 7 unknown #
vertex $-1 $416 $735 #
ellipse-curve $-1 43.590186543121128 1.1806288856964251 5.1333534385864432 0.81915205242281985 0 0.57357642473473569 0.14339410618368392 0 -0.20478801310570496 1 I I #
point $-1 44.552732701727635 1.1806288856964251 5.5021418502154731 #
edge $-1 $736 1 $736 0 $419 $-1 forward 7 unknown #
vertex $-1 $420 $737 #
ellipse-curve $-1 43.590186543121128 3.9880766373254737 5.1333534385864432 0.81915205242281985 0 0.57357642473473569 0.14339410618368392 0 -0.20478801310570496 1 I I #
point $-1 44.552732701727635 3.9880766373254737 5.5021418502154731 #
plane-surface $-1 0 0 11.371195167999318 0 0 1 1 0 0 forward_v I I I I #
coedge $-1 $610 $609 $602 $738 forward $424 $-1 #
coedge $-1 $602 $426 $428 $606 reversed $275 $-1 #
coedge $-1 $426 $601 $600 $738 reversed $275 $-1 #
coedge $-1 $434 $429 $426 $604 forward $435 $-1 #
edge $-1 $607 4.3755838666780988 $739 12.307906156775545 $603 $740 forward 7 unknown #
coedge $-1 $428 $427 $610 $741 reversed $173 $-1 #
edge $-1 $742 -96.750999481185374 $607 -82.9214173225987 $601 $743 forward 7 unknown #
vertex $-1 $430 $744 #
straight-curve $-1 40.443177450495227 5.9782743722505867 11.371195167999318 0 -1 0 I I #
coedge $-1 $600 $431 $434 $614 reversed $424 $-1 #
coedge $-1 $431 $600 $605 $741 forward $424 $-1 #
vertex $-1 $432 $745 #
straight-curve $-1 48.375499740592673 15.231904454735059 67.395268364772875 0 0 1 I I #
straight-curve $-1 -7.1185926313379042 15.231904454735059 79.296444357615201 0.57357642473473569 0 -0.81915205242281985 I I #
edge $-1 $739 8.6811930342672881 $436 15.231904454735059 $609 $746 forward 7 unknown #
point $-1 48.375499740592673 15.231904454735059 11.371195167999318 #
point $-1 40.443177450495227 15.231904454735059 11.371195167999318 #
edge $-1 $747 1 $747 0 $439 $-1 forward 7 unknown #
vertex $-1 $440 $748 #
ellipse-curve $-1 43.590186543121128 10.552824868686653 5.1333534385864432 0.81915205242281985 0 0.57357642473473569 0.14339410618368392 0 -0.20478801310570496 1 I I #
point $-1 44.552732701727635 10.552824868686653 5.5021418502154731 #
edge $-1 $749 1 $749 0 $443 $-1 forward 7 unknown #
vertex $-1 $444 $750 #
ellipse-curve $-1 43.590186543121128 13.360272620315694 5.1333534385864432 0.81915205242281985 0 0.57357642473473569 0.14339410618368392 0 -0.20478801310570496 1 I I #
point $-1 44.552732701727635 13.360272620315694 5.5021418502154731 #
plane-surface $-1 0 0 11.371195167999318 0 0 1 1 0 0 forward_v I I I I #
coedge $-1 $636 $635 $628 $751 forward $448 $-1 #
coedge $-1 $628 $450 $452 $632 reversed $297 $-1 #
coedge $-1 $450 $627 $626 $751 reversed $297 $-1 #
coedge $-1 $458 $453 $450 $630 forward $459 $-1 #
edge $-1 $633 4.3755838666780988 $752 12.307906156775545 $629 $753 forward 7 unknown #
coedge $-1 $452 $451 $636 $754 reversed $187 $-1 #
edge $-1 $755 -96.750999481185374 $633 -82.9214173225987 $627 $756 forward 7 unknown #
vertex $-1 $454 $757 #
straight-curve $-1 40.443177450495227 10.664372363745697 11.371195167999318 0 -1 0 I I #
coedge $-1 $626 $455 $458 $640 reversed $448 $-1 #
coedge $-1 $455 $626 $631 $754 forward $448 $-1 #
vertex $-1 $456 $758 #
straight-curve $-1 48.375499740592673 24.604100437725279 67.395268364772875 0 0 1 I I #
straight-curve $-1 -7.1185926313379042 24.604100437725279 79.296444357615201 0.57357642473473569 0 -0.81915205242281985 I I #
edge $-1 $752 18.053389017257508 $460 24.604100437725279 $635 $759 forward 7 unknown #
point $-1 48.375499740592673 24.604100437725279 11.371195167999318 #
point $-1 40.443177450495227 24.604100437725279 11.371195167999318 #
edge $-1 $760 1 $760 0 $463 $-1 forward 7 unknown #
vertex $-1 $464 $761 #
ellipse-curve $-1 43.590186543121128 19.925020851676873 5.1333534385864432 0.81915205242281985 0 0.57357642473473569 0.14339410618368392 0 -0.20478801310570496 1 I I #
point $-1 44.552732701727635 19.925020851676873 5.5021418502154731 #
edge $-1 $762 1 $762 0 $467 $-1 forward 7 unknown #
vertex $-1 $468 $763 #
ellipse-curve $-1 43.590186543121128 22.732468603305914 5.1333534385864432 0.81915205242281985 0 0.57357642473473569 0.14339410618368392 0 -0.20478801310570496 1 I I #
point $-1 44.552732701727635 22.732468603305914 5.5021418502154731 #
plane-surface $-1 0 0 11.371195167999318 0 0 1 1 0 0 forward_v I I I I #
coedge $-1 $662 $661 $654 $764 forward $472 $-1 #
coedge $-1 $654 $474 $476 $658 reversed $319 $-1 #
coedge $-1 $474 $653 $652 $764 reversed $319 $-1 #
coedge $-1 $482 $477 $474 $656 forward $483 $-1 #
edge $-1 $659 -14.946798723902525 $765 -3.5592972352150056 $655 $766 forward 7 unknown #
coedge $-1 $476 $475 $662 $767 reversed $201 $-1 #
edge $-1 $768 -8.6223355153435888e-015 $659 13.901572534714468 $653 $769 forward 7 unknown #
vertex $-1 $478 $770 #
straight-curve $-1 -36.987998251905154 9.7765875039582522 11.371195167999318 0 1 0 I I #
coedge $-1 $652 $479 $482 $666 reversed $472 $-1 #
coedge $-1 $479 $652 $657 $767 forward $472 $-1 #
vertex $-1 $480 $771 #
straight-curve $-1 -48.375499740592673 13.777534068265776 41.32567957116251 0 0 1 I I #
straight-curve $-1 -48.375499740592666 13.777534068265776 3.3975806310990464 -0.81915203911291934 0 -0.57357644374324357 I I #
edge $-1 $765 -25.328815947567232 $484 -13.777534068265776 $661 $772 forward 7 unknown #
point $-1 -48.375499740592673 13.777534068265776 11.371195167999318 #
point $-1 -36.987998251905154 13.777534068265776 11.371195167999318 #
edge $-1 $773 1 $773 0 $487 $-1 forward 7 unknown #
vertex $-1 $488 $774 #
ellipse-curve $-1 -42.10050549472318 17.077900319494763 6.5542861673569091 -0.57357644374324357 0 0.81915203911291934 0.81915203911291934 0 0.57357644374324357 1 I I #
point $-1 -41.862596957136013 17.077900319494763 7.9579643432924332 #
edge $-1 $775 1 $775 0 $491 $-1 forward 7 unknown #
vertex $-1 $492 $776 #
ellipse-curve $-1 -42.10050549472318 22.028449696338246 6.5542861673569091 -0.57357644374324357 0 0.81915203911291934 0.81915203911291934 0 0.57357644374324357 1 I I #
point $-1 -41.862596957136013 22.028449696338246 7.9579643432924332 #
plane-surface $-1 48.375499740592673 0 0 -1 0 0 0 0 1 forward_v I I I I #
coedge $-1 $500 $498 $502 $682 reversed $341 $-1 #
edge $-1 $513 -11.371195167999318 $684 11.371195167999318 $512 $777 forward 7 unknown #
vertex $-1 $682 $778 #
straight-curve $-1 -48.375499740592673 -28.836327281508961 0 0 0 -1 I I #
edge $-1 $680 -28.836327281508961 $684 28.836327281508961 $678 $779 forward 7 unknown #
straight-curve $-1 0 -28.836327281508961 -11.371195167999318 -1 0 0 I I #
vertex $-1 $505 $780 #
straight-curve $-1 0 28.836327281508961 -11.371195167999318 1 0 0 I I #
point $-1 48.375499740592673 28.836327281508961 -11.371195167999318 #
point $-1 48.375499740592673 -28.836327281508961 -11.371195167999318 #
straight-curve $-1 -48.375499740592673 0 11.371195167999318 0 -1 0 I I #
point $-1 -48.375499740592673 28.836327281508961 11.371195167999318 #
point $-1 -48.375499740592673 -28.836327281508961 11.371195167999318 #
straight-curve $-1 48.375499740592673 -28.836327281508961 0 0 0 -1 I I #
straight-curve $-1 48.375499740592673 28.836327281508961 0 0 0 -1 I I #
loop $-1 $-1 $528 $522 #
plane-surface $-1 0 -28.836327281508961 0 0 1 0 0 0 1 forward_v I I I I #
coedge $-1 $539 $530 $526 $697 forward $523 $-1 #
edge $-1 $701 -18.053389017257508 $534 -3.512487511245391 $525 $781 forward 7 unknown #
edge $-1 $535 3.512487511245391 $700 18.053389017257508 $695 $782 forward 7 unknown #
coedge $-1 $537 $528 $542 $710 reversed $693 $-1 #
coedge $-1 $528 $537 $539 $708 reversed $693 $-1 #
vertex $-1 $708 $783 #
vertex $-1 $529 $784 #
straight-curve $-1 -25.633109404594038 -28.836327281508961 0 0 0 1 I I #
straight-curve $-1 -14.08771530108919 -14.295425775496842 -11.371195167999318 1 0 0 I I #
straight-curve $-1 -14.08771530108919 -14.295425775496842 11.371195167999318 -1 0 0 I I #
point $-1 -25.633109404594038 -14.295425775496842 11.371195167999318 #
point $-1 -25.633109404594038 -14.295425775496842 -11.371195167999318 #
straight-curve $-1 -30.717751799762723 -28.836327281508961 0 0 0 -1 I I #
edge $-1 $700 25.633109404594038 $540 30.717751799762723 $699 $785 forward 7 unknown #
point $-1 -30.717751799762723 -28.836327281508961 -11.371195167999318 #
edge $-1 $543 -30.717751799762723 $701 -25.633109404594038 $698 $786 forward 7 unknown #
point $-1 -30.717751799762723 -28.836327281508961 11.371195167999318 #
edge $-1 $713 56.024073196773557 $716 67.352603806129849 $548 $787 forward 7 unknown #
vertex $-1 $562 $788 #
straight-curve $-1 36.067593583817128 -10.063198931713163 11.371195167999318 1 0 0 I I #
edge $-1 $716 -6.6692773209735243 $559 -0.11856590050575377 $558 $789 forward 7 unknown #
vertex $-1 $715 $790 #
straight-curve $-1 -7.1185926313379042 -10.063198931713163 79.296444357615201 -0.57357642473473569 0 0.81915205242281985 I I #
point $-1 40.443177450495227 -10.063198931713163 11.371195167999318 #
point $-1 48.375499740592673 -3.5124875112453928 0.04266455864302543 #
straight-curve $-1 48.375499740592673 0 11.371195167999318 0 1 0 I I #
vertex $-1 $565 $791 #
point $-1 43.733580649304812 -8.1915670972937988 4.9285654254807376 #
vertex $-1 $569 $792 #
point $-1 43.733580649304812 -5.3841193456647538 4.9285654254807376 #
edge $-1 $726 56.024073196773557 $729 67.352603806129849 $574 $793 forward 7 unknown #
vertex $-1 $588 $794 #
straight-curve $-1 36.067593583817128 -0.69100294872293944 11.371195167999318 1 0 0 I I #
edge $-1 $729 -1.9831793294784124 $585 4.5675320909893582 $584 $795 forward 7 unknown #
vertex $-1 $728 $796 #
straight-curve $-1 -7.1185926313379042 -0.69100294872293944 79.296444357615201 -0.57357642473473569 0 0.81915205242281985 I I #
point $-1 40.443177450495227 -0.69100294872293944 11.371195167999318 #
point $-1 48.375499740592673 5.8597084717448311 0.04266455864302543 #
straight-curve $-1 48.375499740592673 0 11.371195167999318 0 1 0 I I #
vertex $-1 $591 $797 #
point $-1 43.733580649304812 1.1806288856964251 4.9285654254807376 #
vertex $-1 $595 $798 #
point $-1 43.733580649304812 3.9880766373254737 4.9285654254807376 #
edge $-1 $739 56.024073196773557 $742 67.352603806129849 $600 $799 forward 7 unknown #
vertex $-1 $614 $800 #
straight-curve $-1 36.067593583817128 8.6811930342672881 11.371195167999318 1 0 0 I I #
edge $-1 $742 2.7029186620167014 $611 9.2536300824844719 $610 $801 forward 7 unknown #
vertex $-1 $741 $802 #
straight-curve $-1 -7.1185926313379042 8.6811930342672881 79.296444357615201 -0.57357642473473569 0 0.81915205242281985 I I #
point $-1 40.443177450495227 8.6811930342672881 11.371195167999318 #
point $-1 48.375499740592673 15.231904454735059 0.04266455864302543 #
straight-curve $-1 48.375499740592673 0 11.371195167999318 0 1 0 I I #
vertex $-1 $617 $803 #
point $-1 43.733580649304812 10.552824868686653 4.9285654254807376 #
vertex $-1 $621 $804 #
point $-1 43.733580649304812 13.360272620315694 4.9285654254807376 #
edge $-1 $752 56.024073196773557 $755 67.352603806129849 $626 $805 forward 7 unknown #
vertex $-1 $640 $806 #
straight-curve $-1 36.067593583817128 18.053389017257508 11.371195167999318 1 0 0 I I #
edge $-1 $755 7.3890166535118116 $637 13.939728073979582 $636 $807 forward 7 unknown #
vertex $-1 $754 $808 #
straight-curve $-1 -7.1185926313379042 18.053389017257508 79.296444357615201 -0.57357642473473569 0 0.81915205242281985 I I #
point $-1 40.443177450495227 18.053389017257508 11.371195167999318 #
point $-1 48.375499740592673 24.604100437725279 0.04266455864302543 #
straight-curve $-1 48.375499740592673 0 11.371195167999318 0 1 0 I I #
vertex $-1 $643 $809 #
point $-1 43.733580649304812 19.925020851676873 4.9285654254807376 #
vertex $-1 $647 $810 #
point $-1 43.733580649304812 22.732468603305914 4.9285654254807376 #
edge $-1 $765 29.954484403163192 $768 37.928098940063471 $652 $811 forward 7 unknown #
vertex $-1 $666 $812 #
straight-curve $-1 -51.934796975807679 25.328815947567232 11.371195167999318 -1 0 0 I I #
edge $-1 $768 -15.55222844360898 $663 -4.0009465643075242 $662 $813 forward 7 unknown #
vertex $-1 $767 $814 #
straight-curve $-1 -48.375499740592666 25.328815947567232 3.3975806310990464 0.81915203911291934 0 0.57357644374324357 I I #
point $-1 -36.987998251905154 25.328815947567232 11.371195167999318 #
point $-1 -48.375499740592673 13.777534068265776 3.3975806310990415 #
straight-curve $-1 -48.375499740592673 0 11.371195167999318 0 -1 0 I I #
vertex $-1 $669 $815 #
point $-1 -41.281353455610258 17.077900319494763 7.1278626111001522 #
vertex $-1 $673 $816 #
point $-1 -41.281353455610258 22.028449696338246 7.1278626111001522 #
straight-curve $-1 -48.375499740592673 28.836327281508961 0 0 0 -1 I I #
point $-1 -48.375499740592673 -28.836327281508961 -11.371195167999318 #
straight-curve $-1 -48.375499740592673 0 -11.371195167999318 0 1 0 I I #
point $-1 -48.375499740592673 28.836327281508961 -11.371195167999318 #
straight-curve $-1 -25.633109404594038 -10.782938264251451 11.371195167999318 0 1 0 I I #
straight-curve $-1 -25.633109404594038 -10.782938264251451 -11.371195167999318 0 -1 0 I I #
point $-1 -25.633109404594038 -28.836327281508961 -11.371195167999318 #
point $-1 -25.633109404594038 -28.836327281508961 11.371195167999318 #
straight-curve $-1 0 -28.836327281508961 -11.371195167999318 -1 0 0 I I #
straight-curve $-1 0 -28.836327281508961 11.371195167999318 1 0 0 I I #
straight-curve $-1 48.375499740592673 -10.063198931713163 67.395268364772875 0 0 -1 I I #
point $-1 48.375499740592673 -10.063198931713163 11.371195167999318 #
straight-curve $-1 48.37549974059268 -3.393921610739639 0.042664558643018324 0 1 0 I I #
point $-1 48.375499740592673 -10.063198931713163 0.04266455864302543 #
point $-1 43.385398530015429 -8.1915670972937988 4.9899593324027585 #
point $-1 43.385398530015429 -5.3841193456647538 4.9899593324027585 #
straight-curve $-1 48.375499740592673 -0.69100294872293944 67.395268364772875 0 0 -1 I I #
point $-1 48.375499740592673 -0.69100294872293944 11.371195167999318 #
straight-curve $-1 48.37549974059268 1.2921763807554729 0.042664558643018324 0 1 0 I I #
point $-1 48.375499740592673 -0.69100294872293944 0.04266455864302543 #
point $-1 43.385398530015429 1.1806288856964251 4.9899593324027585 #
point $-1 43.385398530015429 3.9880766373254737 4.9899593324027585 #
straight-curve $-1 48.375499740592673 8.6811930342672881 67.395268364772875 0 0 -1 I I #
point $-1 48.375499740592673 8.6811930342672881 11.371195167999318 #
straight-curve $-1 48.37549974059268 5.9782743722505867 0.042664558643018324 0 1 0 I I #
point $-1 48.375499740592673 8.6811930342672881 0.04266455864302543 #
point $-1 43.385398530015429 10.552824868686653 4.9899593324027585 #
point $-1 43.385398530015429 13.360272620315694 4.9899593324027585 #
straight-curve $-1 48.375499740592673 18.053389017257508 67.395268364772875 0 0 -1 I I #
point $-1 48.375499740592673 18.053389017257508 11.371195167999318 #
straight-curve $-1 48.37549974059268 10.664372363745697 0.042664558643018324 0 1 0 I I #
point $-1 48.375499740592673 18.053389017257508 0.04266455864302543 #
point $-1 43.385398530015429 19.925020851676873 4.9899593324027585 #
point $-1 43.385398530015429 22.732468603305914 4.9899593324027585 #
straight-curve $-1 -48.375499740592673 25.328815947567232 41.32567957116251 0 0 -1 I I #
point $-1 -48.375499740592673 25.328815947567232 11.371195167999318 #
straight-curve $-1 -48.375499740592673 9.7765875039582522 3.397580631099046 0 -1 0 I I #
point $-1 -48.375499740592673 25.328815947567232 3.3975806310990415 #
point $-1 -41.52692905097993 17.077900319494763 5.7351341282439892 #
point $-1 -41.52692905097993 22.028449696338246 5.7351341282439892 #
End-of-ACIS-data 