500 0 10 0           
7 Unknown 11 ACIS 5.0 NT 24 Thu Mar 25 22:51:17 1999 
-1 9.9999999999999995e-007 1e-010 
body $-1 $10 $-1 $11 #
body $-1 $12 $-1 $13 #
body $-1 $14 $-1 $15 #
body $-1 $16 $-1 $17 #
body $-1 $18 $-1 $19 #
body $-1 $20 $-1 $21 #
body $-1 $22 $-1 $23 #
body $-1 $24 $-1 $25 #
body $-1 $26 $-1 $27 #
body $-1 $28 $-1 $29 #
lump $-1 $-1 $30 $0 #
transform $-1 1 0 0 0 1 0 0 0 1 55.594958342234563 26.317130004162731 9.7783072717880923 1 rotate no_reflect no_shear #
lump $-1 $-1 $31 $1 #
transform $-1 1 0 0 0 1 0 0 0 1 55.594958342234563 26.317130004162731 9.7783072717880923 1 rotate no_reflect no_shear #
lump $-1 $-1 $32 $2 #
transform $-1 1 0 0 0 1 0 0 0 1 55.594958342234563 26.317130004162731 9.7783072717880923 1 rotate no_reflect no_shear #
lump $-1 $-1 $33 $3 #
transform $-1 1 0 0 0 1 0 0 0 1 55.594958342234563 26.317130004162731 9.7783072717880923 1 rotate no_reflect no_shear #
lump $-1 $-1 $34 $4 #
transform $-1 1 0 0 0 1 0 0 0 1 55.594958342234563 26.317130004162731 9.7783072717880923 1 rotate no_reflect no_shear #
lump $-1 $-1 $35 $5 #
transform $-1 1 0 0 0 1 0 0 0 1 55.594958342234563 26.317130004162731 9.7783072717880923 1 rotate no_reflect no_shear #
lump $-1 $-1 $36 $6 #
transform $-1 1 0 0 0 1 0 0 0 1 55.594958342234563 26.317130004162731 9.7783072717880923 1 rotate no_reflect no_shear #
lump $-1 $-1 $37 $7 #
transform $-1 1 0 0 0 1 0 0 0 1 55.594958342234563 26.317130004162731 9.7783072717880923 1 rotate no_reflect no_shear #
lump $-1 $-1 $38 $8 #
transform $-1 1 0 0 0 1 0 0 0 1 55.594958342234563 26.317130004162731 9.7783072717880923 1 rotate no_reflect no_shear #
lump $-1 $-1 $39 $9 #
transform $-1 1 0 0 0 1 0 0 0 1 55.594958342234563 26.317130004162731 9.7783072717880923 1 rotate no_reflect no_shear #
shell $-1 $-1 $-1 $40 $-1 $10 #
shell $-1 $-1 $-1 $41 $-1 $12 #
shell $-1 $-1 $-1 $42 $-1 $14 #
shell $-1 $-1 $-1 $43 $-1 $16 #
shell $-1 $-1 $-1 $44 $-1 $18 #
shell $-1 $-1 $-1 $45 $-1 $20 #
shell $-1 $-1 $-1 $46 $-1 $22 #
shell $-1 $-1 $-1 $47 $-1 $24 #
shell $-1 $-1 $-1 $48 $-1 $26 #
shell $-1 $-1 $-1 $49 $-1 $28 #
face $-1 $50 $51 $30 $-1 $52 reversed single #
face $-1 $53 $54 $31 $-1 $55 forward single #
face $-1 $56 $57 $32 $-1 $58 reversed single #
face $-1 $59 $60 $33 $-1 $61 forward single #
face $-1 $62 $63 $34 $-1 $64 forward single #
face $-1 $65 $66 $35 $-1 $67 forward single #
face $-1 $68 $69 $36 $-1 $70 reversed single #
face $-1 $71 $72 $37 $-1 $73 forward single #
face $-1 $74 $75 $38 $-1 $76 forward single #
face $-1 $77 $78 $39 $-1 $79 forward single #
face $-1 $80 $81 $30 $-1 $82 forward single #
loop $-1 $-1 $83 $40 #
plane-surface $-1 0 -26.317130004162731 0 0 1 0 0 0 1 forward_v I I I I #
face $-1 $84 $85 $31 $-1 $86 reversed single #
loop $-1 $-1 $87 $41 #
plane-surface $-1 0 -26.317130004162731 0 0 1 0 0 0 1 forward_v I I I I #
face $-1 $88 $89 $32 $-1 $90 reversed single #
loop $-1 $-1 $91 $42 #
plane-surface $-1 -112.86199974260009 -0.69785950200339997 98.840353405749241 0 1 0 -0.51503808176128008 0 0.85716729658548041 forward_v I I I I #
face $-1 $92 $93 $33 $-1 $94 forward single #
loop $-1 $95 $96 $43 #
cone-surface $-1 -49.946562635138356 0.95129602209077291 5.9052432559344243 0.51503808176128008 0 -0.85716729658548041 0.4285836482927402 0 0.25751904088064004 1 I I 0 1 0.5 forward I I I I #
face $-1 $97 $98 $34 $-1 $99 forward single #
loop $-1 $100 $101 $44 #
cone-surface $-1 -49.946562635138356 3.425029308232034 5.9052432559344243 0.51503808176128008 0 -0.85716729658548041 0.4285836482927402 0 0.25751904088064004 1 I I 0 1 0.5 forward I I I I #
face $-1 $102 $103 $35 $-1 $104 forward single #
loop $-1 $105 $106 $45 #
cone-surface $-1 -49.946562635138356 5.8987625943732986 5.9052432559344243 0.51503808176128008 0 -0.85716729658548041 0.4285836482927402 0 0.25751904088064004 1 I I 0 1 0.5 forward I I I I #
face $-1 $107 $108 $36 $-1 $109 reversed single #
loop $-1 $-1 $110 $46 #
plane-surface $-1 17.55363945060887 7.547918118467468 156.10739480611477 0 -1 0 -0.51503808176128008 0 -0.85716729658548041 forward_v I I I I #
face $-1 $111 $112 $37 $-1 $113 forward single #
loop $-1 $114 $115 $47 #
cone-surface $-1 49.946562635138349 0.95129602209077291 5.9052432559344243 -0.51503808176128008 0 -0.85716729658548041 0.4285836482927402 0 -0.25751904088064004 1 I I 0 1 0.5 forward I I I I #
face $-1 $116 $117 $38 $-1 $118 forward single #
loop $-1 $119 $120 $48 #
cone-surface $-1 49.946562635138349 3.425029308232034 5.9052432559344243 -0.51503808176128008 0 -0.85716729658548041 0.4285836482927402 0 -0.25751904088064004 1 I I 0 1 0.5 forward I I I I #
face $-1 $121 $122 $39 $-1 $123 forward single #
loop $-1 $124 $125 $49 #
cone-surface $-1 49.946562635138349 5.8987625943732986 5.9052432559344243 -0.51503808176128008 0 -0.85716729658548041 0.4285836482927402 0 -0.25751904088064004 1 I I 0 1 0.5 forward I I I I #
face $-1 $126 $127 $30 $-1 $128 reversed single #
loop $-1 $-1 $129 $50 #
plane-surface $-1 0 0 9.7783072717880923 0 0 1 1 0 0 forward_v I I I I #
coedge $-1 $130 $131 $132 $133 reversed $51 $-1 #
face $-1 $134 $135 $31 $-1 $136 reversed single #
loop $-1 $-1 $137 $53 #
plane-surface $-1 0 0 -9.7783072717880923 0 0 1 1 0 0 forward_v I I I I #
coedge $-1 $138 $139 $140 $141 forward $54 $-1 #
face $-1 $142 $143 $32 $-1 $144 reversed single #
loop $-1 $-1 $145 $56 #
plane-surface $-1 -55.594958342234563 3.425029308232034 3.531993113758034 -0.51503808176128008 0 0.85716729658548041 0.85716729658548041 0 0.51503808176128008 forward_v I I I I #
coedge $-1 $146 $147 $148 $149 reversed $57 $-1 #
face $-1 $-1 $150 $33 $-1 $151 forward single #
loop $-1 $152 $153 $59 #
cone-surface $-1 -49.3672135602582 0.95129602209077291 4.941044494949411 0.51503808176128008 0 -0.85716729658548041 0.2142918241463701 0 0.12875952044032002 1 I I -0.70710678118654746 0.70710678118654746 0.25 forward I I I I #
loop $-1 $-1 $154 $43 #
coedge $-1 $96 $96 $155 $156 reversed $60 $-1 #
face $-1 $-1 $157 $34 $-1 $158 forward single #
loop $-1 $159 $160 $62 #
cone-surface $-1 -49.3672135602582 3.425029308232034 4.941044494949411 0.51503808176128008 0 -0.85716729658548041 0.2142918241463701 0 0.12875952044032002 1 I I -0.70710678118654746 0.70710678118654746 0.25 forward I I I I #
loop $-1 $-1 $161 $44 #
coedge $-1 $101 $101 $162 $163 reversed $63 $-1 #
face $-1 $-1 $164 $35 $-1 $165 forward single #
loop $-1 $166 $167 $65 #
cone-surface $-1 -49.3672135602582 5.8987625943732986 4.941044494949411 0.51503808176128008 0 -0.85716729658548041 0.2142918241463701 0 0.12875952044032002 1 I I -0.70710678118654746 0.70710678118654746 0.25 forward I I I I #
loop $-1 $-1 $168 $45 #
coedge $-1 $106 $106 $169 $170 reversed $66 $-1 #
face $-1 $171 $172 $36 $-1 $173 reversed single #
loop $-1 $-1 $174 $68 #
plane-surface $-1 -39.713401949756658 3.425029308232034 60.799034514123562 0.51503808176128008 0 0.85716729658548041 0.85716729658548041 0 -0.51503808176128008 forward_v I I I I #
coedge $-1 $175 $176 $177 $178 reversed $69 $-1 #
face $-1 $-1 $179 $37 $-1 $180 forward single #
loop $-1 $181 $182 $71 #
cone-surface $-1 49.367213560258193 0.95129602209077291 4.941044494949411 -0.51503808176128008 0 -0.85716729658548041 0.2142918241463701 0 -0.12875952044032002 1 I I -0.70710678118654746 0.70710678118654746 0.25 forward I I I I #
loop $-1 $-1 $183 $47 #
coedge $-1 $115 $115 $184 $185 reversed $72 $-1 #
face $-1 $-1 $186 $38 $-1 $187 forward single #
loop $-1 $188 $189 $74 #
cone-surface $-1 49.367213560258193 3.425029308232034 4.941044494949411 -0.51503808176128008 0 -0.85716729658548041 0.2142918241463701 0 -0.12875952044032002 1 I I -0.70710678118654746 0.70710678118654746 0.25 forward I I I I #
loop $-1 $-1 $190 $48 #
coedge $-1 $120 $120 $191 $192 reversed $75 $-1 #
face $-1 $-1 $193 $39 $-1 $194 forward single #
loop $-1 $195 $196 $77 #
cone-surface $-1 49.367213560258193 5.8987625943732986 4.941044494949411 -0.51503808176128008 0 -0.85716729658548041 0.2142918241463701 0 -0.12875952044032002 1 I I -0.70710678118654746 0.70710678118654746 0.25 forward I I I I #
loop $-1 $-1 $197 $49 #
coedge $-1 $125 $125 $198 $199 reversed $78 $-1 #
face $-1 $200 $201 $30 $-1 $202 reversed single #
loop $-1 $-1 $203 $80 #
plane-surface $-1 0 0 -9.7783072717880923 0 0 1 1 0 0 forward_v I I I I #
coedge $-1 $204 $205 $206 $207 forward $81 $-1 #
coedge $-1 $208 $83 $209 $210 reversed $51 $-1 #
coedge $-1 $83 $208 $211 $212 forward $51 $-1 #
coedge $-1 $213 $203 $83 $133 forward $127 $-1 #
edge $-1 $214 -55.594958342234563 $215 55.594958342234563 $83 $216 forward 7 unknown #
face $-1 $217 $218 $31 $-1 $219 reversed single #
loop $-1 $-1 $220 $84 #
plane-surface $-1 -39.749954791222066 -36.84112161216099 0 0 1 0 0 0 1 forward_v I I I I #
coedge $-1 $221 $222 $139 $223 forward $85 $-1 #
coedge $-1 $224 $87 $225 $226 reversed $54 $-1 #
coedge $-1 $87 $224 $137 $223 reversed $54 $-1 #
coedge $-1 $227 $228 $87 $141 reversed $218 $-1 #
edge $-1 $229 -9.7783072717880923 $230 9.7783072717880923 $140 $231 forward 7 unknown #
face $-1 $232 $233 $32 $-1 $234 reversed single #
loop $-1 $-1 $235 $88 #
plane-surface $-1 -112.86199974260009 7.547918118467468 98.840353405749241 0 -1 0 0.51503808176128008 0 -0.85716729658548041 forward_v I I I I #
coedge $-1 $236 $237 $238 $239 reversed $89 $-1 #
coedge $-1 $147 $91 $240 $241 reversed $57 $-1 #
coedge $-1 $91 $146 $236 $242 reversed $57 $-1 #
coedge $-1 $238 $243 $91 $149 forward $244 $-1 #
edge $-1 $245 0.83604152906548279 $246 11.231653834378228 $148 $247 forward 7 unknown #
loop $-1 $-1 $155 $92 #
plane-surface $-1 -55.594958342234563 3.425029308232034 3.531993113758034 -0.51503808176128008 0 0.85716729658548041 0.85716729658548041 0 0.51503808176128008 forward_v I I I I #
loop $-1 $-1 $248 $59 #
coedge $-1 $153 $153 $154 $249 reversed $93 $-1 #
coedge $-1 $154 $154 $153 $249 forward $95 $-1 #
coedge $-1 $155 $155 $96 $156 forward $150 $-1 #
edge $-1 $250 0 $250 6.2831853071796004 $155 $251 forward 7 unknown #
loop $-1 $-1 $162 $97 #
plane-surface $-1 -55.594958342234563 3.425029308232034 3.531993113758034 -0.51503808176128008 0 0.85716729658548041 0.85716729658548041 0 0.51503808176128008 forward_v I I I I #
loop $-1 $-1 $252 $62 #
coedge $-1 $160 $160 $161 $253 reversed $98 $-1 #
coedge $-1 $161 $161 $160 $253 forward $100 $-1 #
coedge $-1 $162 $162 $101 $163 forward $157 $-1 #
edge $-1 $254 0 $254 6.2831853071796004 $162 $255 forward 7 unknown #
loop $-1 $-1 $169 $102 #
plane-surface $-1 -55.594958342234563 3.425029308232034 3.531993113758034 -0.51503808176128008 0 0.85716729658548041 0.85716729658548041 0 0.51503808176128008 forward_v I I I I #
loop $-1 $-1 $256 $65 #
coedge $-1 $167 $167 $168 $257 reversed $103 $-1 #
coedge $-1 $168 $168 $167 $257 forward $105 $-1 #
coedge $-1 $169 $169 $106 $170 forward $164 $-1 #
edge $-1 $258 0 $258 6.2831853071796004 $169 $259 forward 7 unknown #
face $-1 $260 $261 $36 $-1 $262 forward single #
loop $-1 $-1 $263 $107 #
plane-surface $-1 17.55363945060887 -0.69785950200339997 156.10739480611477 0 1 0 0.51503808176128008 0 0.85716729658548041 forward_v I I I I #
coedge $-1 $264 $265 $266 $267 reversed $108 $-1 #
coedge $-1 $176 $110 $268 $269 reversed $69 $-1 #
coedge $-1 $110 $175 $264 $270 reversed $69 $-1 #
coedge $-1 $266 $271 $110 $178 forward $261 $-1 #
edge $-1 $272 -46.818138616930128 $273 -36.422526311617361 $177 $274 forward 7 unknown #
loop $-1 $-1 $184 $111 #
plane-surface $-1 -39.713401949756658 3.425029308232034 60.799034514123562 0.51503808176128008 0 0.85716729658548041 0.85716729658548041 0 -0.51503808176128008 forward_v I I I I #
loop $-1 $-1 $275 $71 #
coedge $-1 $182 $182 $183 $276 reversed $112 $-1 #
coedge $-1 $183 $183 $182 $276 forward $114 $-1 #
coedge $-1 $184 $184 $115 $185 forward $179 $-1 #
edge $-1 $277 0 $277 6.2831853071796004 $184 $278 forward 7 unknown #
loop $-1 $-1 $191 $116 #
plane-surface $-1 -39.713401949756658 3.425029308232034 60.799034514123562 0.51503808176128008 0 0.85716729658548041 0.85716729658548041 0 -0.51503808176128008 forward_v I I I I #
loop $-1 $-1 $279 $74 #
coedge $-1 $189 $189 $190 $280 reversed $117 $-1 #
coedge $-1 $190 $190 $189 $280 forward $119 $-1 #
coedge $-1 $191 $191 $120 $192 forward $186 $-1 #
edge $-1 $281 0 $281 6.2831853071796004 $191 $282 forward 7 unknown #
loop $-1 $-1 $198 $121 #
plane-surface $-1 -39.713401949756658 3.425029308232034 60.799034514123562 0.51503808176128008 0 0.85716729658548041 0.85716729658548041 0 -0.51503808176128008 forward_v I I I I #
loop $-1 $-1 $283 $77 #
coedge $-1 $196 $196 $197 $284 reversed $122 $-1 #
coedge $-1 $197 $197 $196 $284 forward $124 $-1 #
coedge $-1 $198 $198 $125 $199 forward $193 $-1 #
edge $-1 $285 0 $285 6.2831853071796004 $198 $286 forward 7 unknown #
face $-1 $287 $288 $30 $-1 $289 reversed single #
loop $-1 $-1 $290 $126 #
plane-surface $-1 -55.594958342234563 0 0 1 0 0 0 0 -1 forward_v I I I I #
coedge $-1 $132 $291 $292 $293 forward $127 $-1 #
coedge $-1 $294 $129 $295 $296 forward $81 $-1 #
coedge $-1 $129 $294 $208 $297 forward $81 $-1 #
coedge $-1 $209 $298 $129 $207 reversed $299 $-1 #
edge $-1 $300 -26.317130004162731 $301 26.317130004162731 $206 $302 forward 7 unknown #
coedge $-1 $131 $130 $205 $297 reversed $51 $-1 #
coedge $-1 $292 $206 $130 $210 forward $299 $-1 #
edge $-1 $300 -9.7783072717880923 $214 9.7783072717880923 $209 $303 forward 7 unknown #
coedge $-1 $304 $305 $131 $212 reversed $201 $-1 #
edge $-1 $306 -9.7783072717880923 $215 9.7783072717880923 $211 $307 forward 7 unknown #
coedge $-1 $291 $132 $305 $308 forward $127 $-1 #
vertex $-1 $210 $309 #
vertex $-1 $308 $310 #
straight-curve $-1 0 -26.317130004162731 -9.7783072717880923 -1 0 0 I I #
face $-1 $311 $312 $31 $-1 $313 reversed single #
loop $-1 $-1 $140 $134 #
plane-surface $-1 -41.298602076202208 -31.579125808161862 0 1 0 0 0 0 -1 forward_v I I I I #
coedge $-1 $314 $315 $316 $317 forward $135 $-1 #
coedge $-1 $318 $137 $319 $320 forward $85 $-1 #
coedge $-1 $137 $318 $227 $321 forward $85 $-1 #
edge $-1 $229 -41.298602076202208 $322 -38.201307506241925 $137 $323 forward 7 unknown #
coedge $-1 $139 $138 $324 $325 forward $54 $-1 #
coedge $-1 $326 $327 $138 $226 forward $328 $-1 #
edge $-1 $329 38.201307506241925 $230 41.298602076202208 $225 $330 forward 7 unknown #
coedge $-1 $316 $140 $222 $321 reversed $218 $-1 #
coedge $-1 $140 $316 $326 $331 reversed $218 $-1 #
vertex $-1 $223 $332 #
vertex $-1 $331 $333 #
straight-curve $-1 -41.298602076202208 -26.317130004162731 0 0 0 1 I I #
face $-1 $-1 $244 $32 $-1 $334 forward single #
loop $-1 $-1 $335 $142 #
plane-surface $-1 -55.594958342234563 0 0 1 0 0 0 0 -1 forward_v I I I I #
coedge $-1 $336 $337 $338 $339 reversed $143 $-1 #
coedge $-1 $340 $145 $147 $242 forward $89 $-1 #
coedge $-1 $145 $340 $336 $341 forward $89 $-1 #
coedge $-1 $338 $148 $145 $239 forward $244 $-1 #
edge $-1 $246 -2.410374156119417 $342 5.835403464351451 $238 $343 forward 7 unknown #
coedge $-1 $344 $345 $146 $241 forward $233 $-1 #
edge $-1 $346 -45.888183589116586 $245 -39.641869431086526 $240 $347 forward 7 unknown #
edge $-1 $246 -12.127868558125806 $346 0 $147 $348 forward 7 unknown #
coedge $-1 $148 $338 $344 $349 forward $244 $-1 #
loop $-1 $-1 $338 $232 #
vertex $-1 $241 $350 #
vertex $-1 $149 $351 #
straight-curve $-1 -56.430999871300045 -0.69785950200339997 9.7783072717880941 1 0 0 I I #
coedge $-1 $248 $248 $-1 $352 reversed $152 $-1 #
edge $-1 $353 0 $353 6.2831853071796004 $153 $354 forward 7 unknown #
vertex $-1 $156 $355 #
ellipse-curve $-1 -50.397152189578193 0.95129602209077291 6.6551501927730614 -0.51503808176128008 0 0.85716729658548041 0.4285836482927402 0 0.25751904088064004 1 I I #
coedge $-1 $252 $252 $-1 $356 reversed $159 $-1 #
edge $-1 $357 0 $357 6.2831853071796004 $160 $358 forward 7 unknown #
vertex $-1 $163 $359 #
ellipse-curve $-1 -50.397152189578193 3.425029308232034 6.6551501927730614 -0.51503808176128008 0 0.85716729658548041 0.4285836482927402 0 0.25751904088064004 1 I I #
coedge $-1 $256 $256 $-1 $360 reversed $166 $-1 #
edge $-1 $361 0 $361 6.2831853071796004 $167 $362 forward 7 unknown #
vertex $-1 $170 $363 #
ellipse-curve $-1 -50.397152189578193 5.8987625943732986 6.6551501927730614 -0.51503808176128008 0 0.85716729658548041 0.4285836482927402 0 0.25751904088064004 1 I I #
face $-1 $-1 $364 $36 $-1 $365 reversed single #
loop $-1 $-1 $177 $171 #
plane-surface $-1 0 0 9.7783072717880923 0 0 1 1 0 0 forward_v I I I I #
coedge $-1 $366 $367 $368 $369 reversed $172 $-1 #
coedge $-1 $370 $174 $176 $270 forward $108 $-1 #
coedge $-1 $174 $370 $366 $371 forward $108 $-1 #
coedge $-1 $368 $177 $174 $267 forward $261 $-1 #
edge $-1 $273 -5.835403464351451 $372 2.410374156119417 $266 $373 forward 7 unknown #
coedge $-1 $374 $375 $175 $269 forward $364 $-1 #
edge $-1 $376 -74.52170428929935 $272 -68.27539013126929 $268 $377 forward 7 unknown #
edge $-1 $273 99.062048126343313 $376 111.18991668446914 $176 $378 forward 7 unknown #
coedge $-1 $177 $368 $374 $379 forward $261 $-1 #
vertex $-1 $178 $380 #
vertex $-1 $178 $381 #
straight-curve $-1 8.7768197253044349 7.547918118467468 9.7783072717880941 -1 0 0 I I #
coedge $-1 $275 $275 $-1 $382 reversed $181 $-1 #
edge $-1 $383 0 $383 6.2831853071796004 $182 $384 forward 7 unknown #
vertex $-1 $185 $385 #
ellipse-curve $-1 50.397152189578179 0.95129602209077291 6.6551501927730587 0.51503808176128008 0 0.85716729658548041 0.4285836482927402 0 -0.25751904088064004 1 I I #
coedge $-1 $279 $279 $-1 $386 reversed $188 $-1 #
edge $-1 $387 0 $387 6.2831853071796004 $189 $388 forward 7 unknown #
vertex $-1 $192 $389 #
ellipse-curve $-1 50.397152189578179 3.425029308232034 6.6551501927730587 0.51503808176128008 0 0.85716729658548041 0.4285836482927402 0 -0.25751904088064004 1 I I #
coedge $-1 $283 $283 $-1 $390 reversed $195 $-1 #
edge $-1 $391 0 $391 6.2831853071796004 $196 $392 forward 7 unknown #
vertex $-1 $199 $393 #
ellipse-curve $-1 50.397152189578179 5.8987625943732986 6.6551501927730587 0.51503808176128008 0 0.85716729658548041 0.4285836482927402 0 -0.25751904088064004 1 I I #
face $-1 $-1 $299 $30 $-1 $394 reversed single #
loop $-1 $-1 $395 $200 #
plane-surface $-1 0 26.317130004162731 0 0 -1 0 0 0 -1 forward_v I I I I #
coedge $-1 $305 $304 $396 $397 forward $201 $-1 #
coedge $-1 $203 $213 $398 $399 forward $127 $-1 #
coedge $-1 $298 $209 $203 $293 reversed $299 $-1 #
edge $-1 $400 -26.317130004162731 $214 26.317130004162731 $292 $401 forward 7 unknown #
coedge $-1 $205 $204 $304 $402 forward $81 $-1 #
coedge $-1 $395 $396 $204 $296 reversed $288 $-1 #
edge $-1 $301 -55.594958342234563 $403 55.594958342234563 $295 $404 forward 7 unknown #
edge $-1 $306 -55.594958342234563 $300 55.594958342234563 $208 $405 forward 7 unknown #
coedge $-1 $206 $292 $395 $406 reversed $299 $-1 #
loop $-1 $-1 $209 $287 #
vertex $-1 $207 $407 #
vertex $-1 $207 $408 #
straight-curve $-1 55.594958342234563 0 9.7783072717880923 0 1 0 I I #
straight-curve $-1 55.594958342234563 -26.317130004162731 0 0 0 -1 I I #
coedge $-1 $290 $211 $294 $402 reversed $201 $-1 #
coedge $-1 $211 $290 $213 $308 reversed $201 $-1 #
vertex $-1 $402 $409 #
straight-curve $-1 -55.594958342234563 -26.317130004162731 0 0 0 -1 I I #
edge $-1 $215 -26.317130004162731 $410 26.317130004162731 $305 $411 forward 7 unknown #
point $-1 55.594958342234563 -26.317130004162731 -9.7783072717880923 #
point $-1 -55.594958342234563 -26.317130004162731 -9.7783072717880923 #
face $-1 $-1 $328 $31 $-1 $412 forward single #
loop $-1 $-1 $413 $217 #
plane-surface $-1 -38.201307506241925 -31.579125808161862 0 -1 0 0 0 0 1 forward_v I I I I #
coedge $-1 $414 $220 $318 $415 reversed $135 $-1 #
coedge $-1 $220 $414 $416 $417 reversed $135 $-1 #
coedge $-1 $228 $227 $220 $317 reversed $218 $-1 #
edge $-1 $418 -9.7783072717880923 $419 9.7783072717880923 $316 $420 forward 7 unknown #
coedge $-1 $222 $221 $314 $415 forward $85 $-1 #
coedge $-1 $324 $413 $221 $320 reversed $312 $-1 #
edge $-1 $322 -5.261995803999131 $421 5.2619958039991275 $319 $422 forward 7 unknown #
edge $-1 $419 -5.2619958039991275 $229 5.261995803999131 $227 $423 forward 7 unknown #
vertex $-1 $320 $424 #
straight-curve $-1 0 -26.317130004162731 -9.7783072717880923 1 0 0 I I #
coedge $-1 $425 $319 $224 $325 reversed $312 $-1 #
edge $-1 $329 -9.7783072717880923 $322 9.7783072717880923 $324 $426 forward 7 unknown #
coedge $-1 $416 $225 $228 $331 forward $328 $-1 #
coedge $-1 $225 $416 $425 $427 forward $328 $-1 #
loop $-1 $-1 $225 $311 #
vertex $-1 $226 $428 #
straight-curve $-1 0 -26.317130004162731 9.7783072717880923 -1 0 0 I I #
edge $-1 $230 -5.261995803999131 $418 5.2619958039991275 $228 $429 forward 7 unknown #
point $-1 -41.298602076202208 -26.317130004162731 -9.7783072717880923 #
point $-1 -41.298602076202208 -26.317130004162731 9.7783072717880923 #
plane-surface $-1 0 0 9.7783072717880923 0 0 1 1 0 0 forward_v I I I I #
coedge $-1 $345 $344 $337 $430 forward $233 $-1 #
coedge $-1 $337 $235 $237 $341 reversed $143 $-1 #
coedge $-1 $235 $336 $335 $430 reversed $143 $-1 #
coedge $-1 $243 $238 $235 $339 forward $244 $-1 #
edge $-1 $342 -11.231653834378228 $431 -0.83604152906548279 $338 $432 forward 7 unknown #
coedge $-1 $237 $236 $345 $433 reversed $89 $-1 #
edge $-1 $434 0 $342 12.127868558125806 $336 $435 forward 7 unknown #
vertex $-1 $239 $436 #
straight-curve $-1 -45.199346036921817 1.712514654116017 9.7783072717880906 0 1 0 I I #
coedge $-1 $335 $240 $243 $349 reversed $233 $-1 #
coedge $-1 $240 $335 $340 $433 forward $233 $-1 #
vertex $-1 $241 $437 #
straight-curve $-1 -55.594958342234563 -0.69785950200339997 49.42017670287462 0 0 1 I I #
straight-curve $-1 -55.594958342234563 -0.69785950200339997 3.531993113758034 -0.85716729658548041 0 -0.51503808176128008 I I #
edge $-1 $431 -7.547918118467468 $245 0.69785950200339997 $344 $438 forward 7 unknown #
point $-1 -55.594958342234563 -0.69785950200339997 9.7783072717880923 #
point $-1 -45.199346036921817 -0.69785950200339997 9.7783072717880923 #
edge $-1 $439 1 $439 0 $248 $-1 forward 7 unknown #
vertex $-1 $249 $440 #
ellipse-curve $-1 -49.495973080698519 0.95129602209077291 5.1553363190957811 -0.51503808176128008 0 0.85716729658548041 0.4285836482927402 0 0.25751904088064004 1 I I #
point $-1 -49.968568541285457 0.95129602209077291 6.9126692336537072 #
edge $-1 $441 1 $441 0 $252 $-1 forward 7 unknown #
vertex $-1 $253 $442 #
ellipse-curve $-1 -49.495973080698519 3.425029308232034 5.1553363190957811 -0.51503808176128008 0 0.85716729658548041 0.4285836482927402 0 0.25751904088064004 1 I I #
point $-1 -49.968568541285457 3.425029308232034 6.9126692336537072 #
edge $-1 $443 1 $443 0 $256 $-1 forward 7 unknown #
vertex $-1 $257 $444 #
ellipse-curve $-1 -49.495973080698519 5.8987625943732986 5.1553363190957811 -0.51503808176128008 0 0.85716729658548041 0.4285836482927402 0 0.25751904088064004 1 I I #
point $-1 -49.968568541285457 5.8987625943732986 6.9126692336537072 #
loop $-1 $-1 $268 $260 #
plane-surface $-1 55.594958342234563 0 0 -1 0 0 0 0 1 forward_v I I I I #
coedge $-1 $367 $263 $265 $371 reversed $172 $-1 #
coedge $-1 $263 $366 $445 $446 reversed $172 $-1 #
coedge $-1 $271 $266 $263 $369 forward $261 $-1 #
edge $-1 $372 36.422526311617361 $447 46.818138616930128 $368 $448 forward 7 unknown #
coedge $-1 $265 $264 $375 $449 reversed $108 $-1 #
edge $-1 $450 -111.18991668446914 $372 -99.062048126343313 $366 $451 forward 7 unknown #
vertex $-1 $267 $452 #
straight-curve $-1 45.199346036921789 1.712514654116017 9.7783072717880941 0 -1 0 I I #
coedge $-1 $445 $268 $271 $379 reversed $364 $-1 #
coedge $-1 $268 $445 $370 $449 forward $364 $-1 #
vertex $-1 $269 $453 #
straight-curve $-1 55.594958342234563 7.547918118467468 78.053697403057384 0 0 1 I I #
straight-curve $-1 -39.713401949756658 7.547918118467468 60.799034514123562 0.85716729658548041 0 -0.51503808176128008 I I #
edge $-1 $447 -0.69785950200339997 $272 7.547918118467468 $374 $454 forward 7 unknown #
point $-1 55.594958342234563 7.547918118467468 9.7783072717880923 #
point $-1 45.199346036921796 7.547918118467468 9.7783072717880941 #
edge $-1 $455 1 $455 0 $275 $-1 forward 7 unknown #
vertex $-1 $276 $456 #
ellipse-curve $-1 49.495973080698512 0.95129602209077291 5.1553363190957811 0.51503808176128008 0 0.85716729658548041 0.4285836482927402 0 -0.25751904088064004 1 I I #
point $-1 50.82573583787093 0.95129602209077291 6.3976311518924271 #
edge $-1 $457 1 $457 0 $279 $-1 forward 7 unknown #
vertex $-1 $280 $458 #
ellipse-curve $-1 49.495973080698512 3.425029308232034 5.1553363190957811 0.51503808176128008 0 0.85716729658548041 0.4285836482927402 0 -0.25751904088064004 1 I I #
point $-1 50.82573583787093 3.425029308232034 6.3976311518924271 #
edge $-1 $459 1 $459 0 $283 $-1 forward 7 unknown #
vertex $-1 $284 $460 #
ellipse-curve $-1 49.495973080698512 5.8987625943732986 5.1553363190957811 0.51503808176128008 0 0.85716729658548041 0.4285836482927402 0 -0.25751904088064004 1 I I #
point $-1 50.82573583787093 5.8987625943732986 6.3976311518924271 #
plane-surface $-1 55.594958342234563 0 0 -1 0 0 0 0 1 forward_v I I I I #
coedge $-1 $398 $295 $298 $406 forward $288 $-1 #
coedge $-1 $295 $398 $290 $397 reversed $288 $-1 #
edge $-1 $403 -9.7783072717880923 $410 9.7783072717880923 $396 $461 forward 7 unknown #
coedge $-1 $396 $395 $291 $399 reversed $288 $-1 #
edge $-1 $410 -55.594958342234563 $400 55.594958342234563 $398 $462 forward 7 unknown #
vertex $-1 $293 $463 #
straight-curve $-1 55.594958342234563 0 -9.7783072717880923 0 -1 0 I I #
edge $-1 $403 -26.317130004162731 $306 26.317130004162731 $304 $464 forward 7 unknown #
vertex $-1 $296 $465 #
straight-curve $-1 0 26.317130004162731 9.7783072717880923 -1 0 0 I I #
straight-curve $-1 0 -26.317130004162731 9.7783072717880923 1 0 0 I I #
edge $-1 $301 -9.7783072717880923 $400 9.7783072717880923 $298 $466 forward 7 unknown #
point $-1 55.594958342234563 -26.317130004162731 9.7783072717880923 #
point $-1 55.594958342234563 26.317130004162731 9.7783072717880923 #
point $-1 -55.594958342234563 -26.317130004162731 9.7783072717880923 #
vertex $-1 $399 $467 #
straight-curve $-1 -55.594958342234563 0 -9.7783072717880923 0 1 0 I I #
plane-surface $-1 0 0 9.7783072717880923 0 0 1 1 0 0 forward_v I I I I #
coedge $-1 $319 $425 $414 $468 forward $312 $-1 #
coedge $-1 $315 $314 $413 $468 reversed $135 $-1 #
edge $-1 $421 -1.5486472849801416 $419 1.5486472849801416 $314 $469 forward 7 unknown #
coedge $-1 $327 $326 $315 $417 forward $328 $-1 #
edge $-1 $418 -1.5486472849801416 $470 1.5486472849801416 $315 $471 forward 7 unknown #
vertex $-1 $331 $472 #
vertex $-1 $321 $473 #
straight-curve $-1 -41.298602076202208 -36.84112161216099 0 0 0 -1 I I #
vertex $-1 $468 $474 #
straight-curve $-1 -38.201307506241925 -31.579125808161862 -9.7783072717880923 0 -1 0 I I #
straight-curve $-1 -41.298602076202208 -31.579125808161862 -9.7783072717880923 0 1 0 I I #
point $-1 -38.201307506241925 -26.317130004162731 -9.7783072717880923 #
coedge $-1 $413 $324 $327 $427 reversed $312 $-1 #
straight-curve $-1 -38.201307506241925 -26.317130004162731 0 0 0 -1 I I #
edge $-1 $470 -5.2619958039991275 $329 5.261995803999131 $425 $475 forward 7 unknown #
point $-1 -38.201307506241925 -26.317130004162731 9.7783072717880923 #
straight-curve $-1 -41.298602076202208 -31.579125808161862 9.7783072717880923 0 -1 0 I I #
edge $-1 $431 39.641869431086526 $434 45.888183589116586 $335 $476 forward 7 unknown #
vertex $-1 $349 $477 #
straight-curve $-1 -56.430999871300045 7.547918118467468 9.7783072717880941 -1 0 0 I I #
edge $-1 $434 -5.835403464351451 $346 2.410374156119417 $345 $478 forward 7 unknown #
vertex $-1 $433 $479 #
straight-curve $-1 -55.594958342234563 7.547918118467468 3.531993113758034 0.85716729658548041 0 0.51503808176128008 I I #
point $-1 -45.199346036921817 7.547918118467468 9.7783072717880923 #
point $-1 -55.594958342234563 -0.69785950200339997 3.531993113758034 #
straight-curve $-1 -55.594958342234563 0 9.7783072717880923 0 -1 0 I I #
vertex $-1 $352 $480 #
point $-1 -49.067389432405783 0.95129602209077291 5.4128553599764215 #
vertex $-1 $356 $481 #
point $-1 -49.067389432405783 3.425029308232034 5.4128553599764215 #
vertex $-1 $360 $482 #
point $-1 -49.067389432405783 5.8987625943732986 5.4128553599764215 #
coedge $-1 $375 $374 $367 $446 forward $364 $-1 #
edge $-1 $447 68.27539013126929 $450 74.52170428929935 $445 $483 forward 7 unknown #
vertex $-1 $379 $484 #
straight-curve $-1 8.7768197253044349 -0.69785950200339997 9.7783072717880941 1 0 0 I I #
edge $-1 $450 -2.410374156119417 $376 5.835403464351451 $375 $485 forward 7 unknown #
vertex $-1 $449 $486 #
straight-curve $-1 -39.713401949756658 -0.69785950200339997 60.799034514123562 -0.85716729658548041 0 0.51503808176128008 I I #
point $-1 45.199346036921796 -0.69785950200339997 9.7783072717880941 #
point $-1 55.594958342234563 7.547918118467468 3.5319931137580269 #
straight-curve $-1 55.594958342234563 0 9.7783072717880923 0 1 0 I I #
vertex $-1 $382 $487 #
point $-1 49.924556728991256 0.95129602209077291 4.8978172782151415 #
vertex $-1 $386 $488 #
point $-1 49.924556728991256 3.425029308232034 4.8978172782151415 #
vertex $-1 $390 $489 #
point $-1 49.924556728991256 5.8987625943732986 4.8978172782151415 #
straight-curve $-1 -55.594958342234563 26.317130004162731 0 0 0 -1 I I #
straight-curve $-1 0 26.317130004162731 -9.7783072717880923 1 0 0 I I #
point $-1 55.594958342234563 26.317130004162731 -9.7783072717880923 #
straight-curve $-1 -55.594958342234563 0 9.7783072717880923 0 -1 0 I I #
point $-1 -55.594958342234563 26.317130004162731 9.7783072717880923 #
straight-curve $-1 55.594958342234563 26.317130004162731 0 0 0 -1 I I #
point $-1 -55.594958342234563 26.317130004162731 -9.7783072717880923 #
edge $-1 $470 -9.7783072717880923 $421 9.7783072717880923 $413 $490 forward 7 unknown #
straight-curve $-1 -39.749954791222066 -36.84112161216099 -9.7783072717880923 -1 0 0 I I #
vertex $-1 $427 $491 #
straight-curve $-1 -39.749954791222066 -36.84112161216099 9.7783072717880923 1 0 0 I I #
point $-1 -41.298602076202208 -36.84112161216099 9.7783072717880923 #
point $-1 -41.298602076202208 -36.84112161216099 -9.7783072717880923 #
point $-1 -38.201307506241925 -36.84112161216099 -9.7783072717880923 #
straight-curve $-1 -38.201307506241925 -31.579125808161862 9.7783072717880923 0 1 0 I I #
straight-curve $-1 -55.594958342234563 7.547918118467468 49.42017670287462 0 0 -1 I I #
point $-1 -55.594958342234563 7.547918118467468 9.7783072717880923 #
straight-curve $-1 -55.594958342234563 1.712514654116017 3.531993113758034 0 -1 0 I I #
point $-1 -55.594958342234563 7.547918118467468 3.531993113758034 #
point $-1 -49.238454039817881 0.95129602209077291 4.726752670803041 #
point $-1 -49.238454039817881 3.425029308232034 4.726752670803041 #
point $-1 -49.238454039817881 5.8987625943732986 4.726752670803041 #
straight-curve $-1 55.594958342234563 -0.69785950200339997 78.053697403057384 0 0 -1 I I #
point $-1 55.594958342234563 -0.69785950200339997 9.7783072717880923 #
straight-curve $-1 55.594958342234563 1.712514654116017 3.5319931137580269 0 1 0 I I #
point $-1 55.594958342234563 -0.69785950200339997 3.5319931137580269 #
point $-1 49.238454039817874 0.95129602209077291 4.726752670803041 #
point $-1 49.238454039817874 3.425029308232034 4.726752670803041 #
point $-1 49.238454039817874 5.8987625943732986 4.726752670803041 #
straight-curve $-1 -38.201307506241925 -36.84112161216099 0 0 0 -1 I I #
point $-1 -38.201307506241925 -36.84112161216099 9.7783072717880923 #
End-of-ACIS-data 