500 0 14 0           
7 Unknown 11 ACIS 5.0 NT 24 Fri Mar 26 02:57:43 1999 
-1 9.9999999999999995e-007 1e-010 
body $-1 $14 $-1 $15 #
body $-1 $16 $-1 $17 #
body $-1 $18 $-1 $19 #
body $-1 $20 $-1 $21 #
body $-1 $22 $-1 $23 #
body $-1 $24 $-1 $25 #
body $-1 $26 $-1 $27 #
body $-1 $28 $-1 $29 #
body $-1 $30 $-1 $31 #
body $-1 $32 $-1 $33 #
body $-1 $34 $-1 $35 #
body $-1 $36 $-1 $37 #
body $-1 $38 $-1 $39 #
body $-1 $40 $-1 $41 #
lump $-1 $-1 $42 $0 #
transform $-1 1 0 0 0 1 0 0 0 1 41.74199652088992 20.747047448302176 8.6516207261452358 1 rotate no_reflect no_shear #
lump $-1 $-1 $43 $1 #
transform $-1 1 0 0 0 1 0 0 0 1 41.74199652088992 20.747047448302176 8.6516207261452358 1 rotate no_reflect no_shear #
lump $-1 $-1 $44 $2 #
transform $-1 1 0 0 0 1 0 0 0 1 41.74199652088992 20.747047448302176 8.6516207261452358 1 rotate no_reflect no_shear #
lump $-1 $-1 $45 $3 #
transform $-1 1 0 0 0 1 0 0 0 1 41.74199652088992 20.747047448302176 8.6516207261452358 1 rotate no_reflect no_shear #
lump $-1 $-1 $46 $4 #
transform $-1 1 0 0 0 1 0 0 0 1 41.74199652088992 20.747047448302176 8.6516207261452358 1 rotate no_reflect no_shear #
lump $-1 $-1 $47 $5 #
transform $-1 1 0 0 0 1 0 0 0 1 41.74199652088992 20.747047448302176 8.6516207261452358 1 rotate no_reflect no_shear #
lump $-1 $-1 $48 $6 #
transform $-1 1 0 0 0 1 0 0 0 1 41.74199652088992 20.747047448302176 8.6516207261452358 1 rotate no_reflect no_shear #
lump $-1 $-1 $49 $7 #
transform $-1 1 0 0 0 1 0 0 0 1 41.74199652088992 20.747047448302176 8.6516207261452358 1 rotate no_reflect no_shear #
lump $-1 $-1 $50 $8 #
transform $-1 1 0 0 0 1 0 0 0 1 41.74199652088992 20.747047448302176 8.6516207261452358 1 rotate no_reflect no_shear #
lump $-1 $-1 $51 $9 #
transform $-1 1 0 0 0 1 0 0 0 1 41.74199652088992 20.747047448302176 8.6516207261452358 1 rotate no_reflect no_shear #
lump $-1 $-1 $52 $10 #
transform $-1 1 0 0 0 1 0 0 0 1 41.74199652088992 20.747047448302176 8.6516207261452358 1 rotate no_reflect no_shear #
lump $-1 $-1 $53 $11 #
transform $-1 1 0 0 0 1 0 0 0 1 41.74199652088992 20.747047448302176 8.6516207261452358 1 rotate no_reflect no_shear #
lump $-1 $-1 $54 $12 #
transform $-1 1 0 0 0 1 0 0 0 1 41.74199652088992 20.747047448302176 8.6516207261452358 1 rotate no_reflect no_shear #
lump $-1 $-1 $55 $13 #
transform $-1 1 0 0 0 1 0 0 0 1 41.74199652088992 20.747047448302176 8.6516207261452358 1 rotate no_reflect no_shear #
shell $-1 $-1 $-1 $56 $-1 $14 #
shell $-1 $-1 $-1 $57 $-1 $16 #
shell $-1 $-1 $-1 $58 $-1 $18 #
shell $-1 $-1 $-1 $59 $-1 $20 #
shell $-1 $-1 $-1 $60 $-1 $22 #
shell $-1 $-1 $-1 $61 $-1 $24 #
shell $-1 $-1 $-1 $62 $-1 $26 #
shell $-1 $-1 $-1 $63 $-1 $28 #
shell $-1 $-1 $-1 $64 $-1 $30 #
shell $-1 $-1 $-1 $65 $-1 $32 #
shell $-1 $-1 $-1 $66 $-1 $34 #
shell $-1 $-1 $-1 $67 $-1 $36 #
shell $-1 $-1 $-1 $68 $-1 $38 #
shell $-1 $-1 $-1 $69 $-1 $40 #
face $-1 $70 $71 $42 $-1 $72 forward single #
face $-1 $73 $74 $43 $-1 $75 reversed single #
face $-1 $76 $77 $44 $-1 $78 reversed single #
face $-1 $79 $80 $45 $-1 $81 forward single #
face $-1 $82 $83 $46 $-1 $84 forward single #
face $-1 $85 $86 $47 $-1 $87 reversed single #
face $-1 $88 $89 $48 $-1 $90 forward single #
face $-1 $91 $92 $49 $-1 $93 forward single #
face $-1 $94 $95 $50 $-1 $96 reversed single #
face $-1 $97 $98 $51 $-1 $99 forward single #
face $-1 $100 $101 $52 $-1 $102 forward single #
face $-1 $103 $104 $53 $-1 $105 reversed single #
face $-1 $106 $107 $54 $-1 $108 forward single #
face $-1 $109 $110 $55 $-1 $111 forward single #
face $-1 $112 $113 $42 $-1 $114 reversed single #
loop $-1 $-1 $115 $56 #
plane-surface $-1 0 0 8.6516207261452358 0 0 1 1 0 0 forward_v I I I I #
face $-1 $116 $117 $43 $-1 $118 reversed single #
loop $-1 $-1 $119 $57 #
plane-surface $-1 -37.803134099544664 0 5.6516207261452358 0 0 1 1 0 0 forward_v I I I I #
face $-1 $120 $121 $44 $-1 $122 reversed single #
loop $-1 $-1 $123 $58 #
plane-surface $-1 47.921000533941061 -10.373523724151088 119.84019427012541 0 -1 0 -0.74314483375859142 0 -0.66913059716165679 forward_v I I I I #
face $-1 $124 $125 $45 $-1 $126 forward single #
loop $-1 $127 $128 $59 #
cone-surface $-1 38.347849422336672 -14.758388252247471 4.9601460755431841 -0.74314483375859142 0 -0.66913059716165679 0.3345652985808284 0 -0.37157241687929571 1 I I 0 1 0.5 forward I I I I #
face $-1 $129 $130 $46 $-1 $131 forward single #
loop $-1 $132 $133 $60 #
cone-surface $-1 38.347849422336672 -12.127469535389642 4.9601460755431841 -0.74314483375859142 0 -0.66913059716165679 0.3345652985808284 0 -0.37157241687929571 1 I I 0 1 0.5 forward I I I I #
face $-1 $134 $135 $47 $-1 $136 reversed single #
loop $-1 $-1 $137 $61 #
plane-surface $-1 47.921000533941061 -1.4115711282720524 119.84019427012541 0 -1 0 -0.74314483375859142 0 -0.66913059716165679 forward_v I I I I #
face $-1 $138 $139 $48 $-1 $140 forward single #
loop $-1 $141 $142 $62 #
cone-surface $-1 38.347849422336672 -5.7964356563684358 4.9601460755431841 -0.74314483375859142 0 -0.66913059716165679 0.3345652985808284 0 -0.37157241687929571 1 I I 0 1 0.5 forward I I I I #
face $-1 $143 $144 $49 $-1 $145 forward single #
loop $-1 $146 $147 $63 #
cone-surface $-1 38.347849422336672 -3.1655169395106064 4.9601460755431841 -0.74314483375859142 0 -0.66913059716165679 0.3345652985808284 0 -0.37157241687929571 1 I I 0 1 0.5 forward I I I I #
face $-1 $148 $149 $50 $-1 $150 reversed single #
loop $-1 $-1 $151 $64 #
plane-surface $-1 47.921000533941061 7.5503814676069805 119.84019427012541 0 -1 0 -0.74314483375859142 0 -0.66913059716165679 forward_v I I I I #
face $-1 $152 $153 $51 $-1 $154 forward single #
loop $-1 $155 $156 $65 #
cone-surface $-1 38.347849422336672 3.1655169395105993 4.9601460755431841 -0.74314483375859142 0 -0.66913059716165679 0.3345652985808284 0 -0.37157241687929571 1 I I 0 1 0.5 forward I I I I #
face $-1 $157 $158 $52 $-1 $159 forward single #
loop $-1 $160 $161 $66 #
cone-surface $-1 38.347849422336672 5.7964356563684305 4.9601460755431841 -0.74314483375859142 0 -0.66913059716165679 0.3345652985808284 0 -0.37157241687929571 1 I I 0 1 0.5 forward I I I I #
face $-1 $162 $163 $53 $-1 $164 reversed single #
loop $-1 $-1 $165 $67 #
plane-surface $-1 47.921000533941061 16.512334063486016 119.84019427012541 0 -1 0 -0.74314483375859142 0 -0.66913059716165679 forward_v I I I I #
face $-1 $166 $167 $54 $-1 $168 forward single #
loop $-1 $169 $170 $68 #
cone-surface $-1 38.347849422336672 12.127469535389636 4.9601460755431841 -0.74314483375859142 0 -0.66913059716165679 0.3345652985808284 0 -0.37157241687929571 1 I I 0 1 0.5 forward I I I I #
face $-1 $171 $172 $55 $-1 $173 forward single #
loop $-1 $174 $175 $69 #
cone-surface $-1 38.347849422336672 14.758388252247464 4.9601460755431841 -0.74314483375859142 0 -0.66913059716165679 0.3345652985808284 0 -0.37157241687929571 1 I I 0 1 0.5 forward I I I I #
face $-1 $176 $177 $42 $-1 $178 reversed single #
loop $-1 $-1 $179 $70 #
plane-surface $-1 0 0 -8.6516207261452358 0 0 1 1 0 0 forward_v I I I I #
coedge $-1 $180 $181 $182 $183 forward $71 $-1 #
face $-1 $184 $185 $43 $-1 $186 reversed single #
loop $-1 $-1 $187 $73 #
plane-surface $-1 -33.864271678199408 0 7.1516207261452358 -1 0 0 0 0 1 forward_v I I I I #
coedge $-1 $188 $189 $190 $191 forward $74 $-1 #
face $-1 $192 $193 $44 $-1 $194 reversed single #
loop $-1 $-1 $195 $76 #
plane-surface $-1 -14.11969759659582 -13.442928893818555 63.978500152639661 0.74314483375859142 0 0.66913059716165679 0.66913059716165679 0 -0.74314483375859142 forward_v I I I I #
coedge $-1 $196 $197 $198 $199 reversed $77 $-1 #
face $-1 $-1 $200 $45 $-1 $201 forward single #
loop $-1 $202 $203 $79 #
cone-surface $-1 37.790490797017732 -14.758388252247471 4.4582981276719416 -0.74314483375859142 0 -0.66913059716165679 0.1672826492904142 0 -0.18578620843964785 1 I I -0.70710678118654746 0.70710678118654746 0.25 forward I I I I #
loop $-1 $-1 $204 $59 #
coedge $-1 $128 $128 $205 $206 reversed $80 $-1 #
face $-1 $-1 $207 $46 $-1 $208 forward single #
loop $-1 $209 $210 $82 #
cone-surface $-1 37.790490797017732 -12.127469535389642 4.4582981276719416 -0.74314483375859142 0 -0.66913059716165679 0.1672826492904142 0 -0.18578620843964785 1 I I -0.70710678118654746 0.70710678118654746 0.25 forward I I I I #
loop $-1 $-1 $211 $60 #
coedge $-1 $133 $133 $212 $213 reversed $83 $-1 #
face $-1 $214 $215 $47 $-1 $216 reversed single #
loop $-1 $-1 $217 $85 #
plane-surface $-1 -14.11969759659582 -4.4809762979395202 63.978500152639661 0.74314483375859142 0 0.66913059716165679 0.66913059716165679 0 -0.74314483375859142 forward_v I I I I #
coedge $-1 $218 $219 $220 $221 reversed $86 $-1 #
face $-1 $-1 $222 $48 $-1 $223 forward single #
loop $-1 $224 $225 $88 #
cone-surface $-1 37.790490797017732 -5.7964356563684358 4.4582981276719416 -0.74314483375859142 0 -0.66913059716165679 0.1672826492904142 0 -0.18578620843964785 1 I I -0.70710678118654746 0.70710678118654746 0.25 forward I I I I #
loop $-1 $-1 $226 $62 #
coedge $-1 $142 $142 $227 $228 reversed $89 $-1 #
face $-1 $-1 $229 $49 $-1 $230 forward single #
loop $-1 $231 $232 $91 #
cone-surface $-1 37.790490797017732 -3.1655169395106064 4.4582981276719416 -0.74314483375859142 0 -0.66913059716165679 0.1672826492904142 0 -0.18578620843964785 1 I I -0.70710678118654746 0.70710678118654746 0.25 forward I I I I #
loop $-1 $-1 $233 $63 #
coedge $-1 $147 $147 $234 $235 reversed $92 $-1 #
face $-1 $236 $237 $50 $-1 $238 reversed single #
loop $-1 $-1 $239 $94 #
plane-surface $-1 -14.11969759659582 4.4809762979395131 63.978500152639661 0.74314483375859142 0 0.66913059716165679 0.66913059716165679 0 -0.74314483375859142 forward_v I I I I #
coedge $-1 $240 $241 $242 $243 reversed $95 $-1 #
face $-1 $-1 $244 $51 $-1 $245 forward single #
loop $-1 $246 $247 $97 #
cone-surface $-1 37.790490797017732 3.1655169395105993 4.4582981276719416 -0.74314483375859142 0 -0.66913059716165679 0.1672826492904142 0 -0.18578620843964785 1 I I -0.70710678118654746 0.70710678118654746 0.25 forward I I I I #
loop $-1 $-1 $248 $65 #
coedge $-1 $156 $156 $249 $250 reversed $98 $-1 #
face $-1 $-1 $251 $52 $-1 $252 forward single #
loop $-1 $253 $254 $100 #
cone-surface $-1 37.790490797017732 5.7964356563684305 4.4582981276719416 -0.74314483375859142 0 -0.66913059716165679 0.1672826492904142 0 -0.18578620843964785 1 I I -0.70710678118654746 0.70710678118654746 0.25 forward I I I I #
loop $-1 $-1 $255 $66 #
coedge $-1 $161 $161 $256 $257 reversed $101 $-1 #
face $-1 $258 $259 $53 $-1 $260 reversed single #
loop $-1 $-1 $261 $103 #
plane-surface $-1 -14.11969759659582 13.442928893818546 63.978500152639661 0.74314483375859142 0 0.66913059716165679 0.66913059716165679 0 -0.74314483375859142 forward_v I I I I #
coedge $-1 $262 $263 $264 $265 reversed $104 $-1 #
face $-1 $-1 $266 $54 $-1 $267 forward single #
loop $-1 $268 $269 $106 #
cone-surface $-1 37.790490797017732 12.127469535389636 4.4582981276719416 -0.74314483375859142 0 -0.66913059716165679 0.1672826492904142 0 -0.18578620843964785 1 I I -0.70710678118654746 0.70710678118654746 0.25 forward I I I I #
loop $-1 $-1 $270 $68 #
coedge $-1 $170 $170 $271 $272 reversed $107 $-1 #
face $-1 $-1 $273 $55 $-1 $274 forward single #
loop $-1 $275 $276 $109 #
cone-surface $-1 37.790490797017732 14.758388252247464 4.4582981276719416 -0.74314483375859142 0 -0.66913059716165679 0.1672826492904142 0 -0.18578620843964785 1 I I -0.70710678118654746 0.70710678118654746 0.25 forward I I I I #
loop $-1 $-1 $277 $69 #
coedge $-1 $175 $175 $278 $279 reversed $110 $-1 #
face $-1 $280 $281 $42 $-1 $282 reversed single #
loop $-1 $-1 $283 $112 #
plane-surface $-1 0 -20.747047448302176 0 0 1 0 0 0 1 forward_v I I I I #
coedge $-1 $284 $285 $286 $287 forward $113 $-1 #
coedge $-1 $288 $115 $289 $290 forward $71 $-1 #
coedge $-1 $115 $288 $291 $292 forward $71 $-1 #
coedge $-1 $293 $294 $115 $183 reversed $295 $-1 #
edge $-1 $296 -20.747047448302176 $297 20.747047448302176 $182 $298 forward 7 unknown #
face $-1 $299 $300 $43 $-1 $301 reversed single #
loop $-1 $-1 $302 $116 #
plane-surface $-1 0 20.747047448302176 0 0 -1 0 0 0 -1 forward_v I I I I #
coedge $-1 $190 $303 $304 $305 reversed $117 $-1 #
coedge $-1 $306 $119 $307 $308 reversed $74 $-1 #
coedge $-1 $119 $306 $309 $310 reversed $74 $-1 #
coedge $-1 $311 $187 $119 $191 reversed $117 $-1 #
edge $-1 $312 -20.747047448302176 $313 20.747047448302176 $190 $314 forward 7 unknown #
face $-1 $315 $316 $44 $-1 $317 forward single #
loop $-1 $-1 $318 $120 #
plane-surface $-1 47.921000533941061 -16.512334063486023 119.84019427012541 0 1 0 0.74314483375859142 0 0.66913059716165679 forward_v I I I I #
coedge $-1 $319 $320 $321 $322 reversed $121 $-1 #
coedge $-1 $197 $123 $323 $324 reversed $77 $-1 #
coedge $-1 $123 $196 $319 $325 reversed $77 $-1 #
coedge $-1 $321 $326 $123 $199 forward $316 $-1 #
edge $-1 $327 -17.781496253919389 $328 -11.736346890571493 $198 $329 forward 7 unknown #
loop $-1 $-1 $205 $124 #
plane-surface $-1 -14.11969759659582 -13.442928893818555 63.978500152639661 0.74314483375859142 0 0.66913059716165679 0.66913059716165679 0 -0.74314483375859142 forward_v I I I I #
loop $-1 $-1 $330 $79 #
coedge $-1 $203 $203 $204 $331 reversed $125 $-1 #
coedge $-1 $204 $204 $203 $331 forward $127 $-1 #
coedge $-1 $205 $205 $128 $206 forward $200 $-1 #
edge $-1 $332 0 $332 6.2831853071796004 $205 $333 forward 7 unknown #
loop $-1 $-1 $212 $129 #
plane-surface $-1 -14.11969759659582 -13.442928893818555 63.978500152639661 0.74314483375859142 0 0.66913059716165679 0.66913059716165679 0 -0.74314483375859142 forward_v I I I I #
loop $-1 $-1 $334 $82 #
coedge $-1 $210 $210 $211 $335 reversed $130 $-1 #
coedge $-1 $211 $211 $210 $335 forward $132 $-1 #
coedge $-1 $212 $212 $133 $213 forward $207 $-1 #
edge $-1 $336 0 $336 6.2831853071796004 $212 $337 forward 7 unknown #
face $-1 $338 $339 $47 $-1 $340 reversed single #
loop $-1 $-1 $341 $134 #
plane-surface $-1 47.921000533941061 -7.5503814676069876 119.84019427012541 0 1 0 0.74314483375859142 0 0.66913059716165679 forward_v I I I I #
coedge $-1 $342 $343 $344 $345 reversed $135 $-1 #
coedge $-1 $219 $137 $346 $347 reversed $86 $-1 #
coedge $-1 $137 $218 $342 $348 reversed $86 $-1 #
coedge $-1 $344 $349 $137 $221 forward $350 $-1 #
edge $-1 $351 -17.781496253919389 $352 -11.736346890571493 $220 $353 forward 7 unknown #
loop $-1 $-1 $227 $138 #
plane-surface $-1 -14.11969759659582 -4.4809762979395202 63.978500152639661 0.74314483375859142 0 0.66913059716165679 0.66913059716165679 0 -0.74314483375859142 forward_v I I I I #
loop $-1 $-1 $354 $88 #
coedge $-1 $225 $225 $226 $355 reversed $139 $-1 #
coedge $-1 $226 $226 $225 $355 forward $141 $-1 #
coedge $-1 $227 $227 $142 $228 forward $222 $-1 #
edge $-1 $356 0 $356 6.2831853071796004 $227 $357 forward 7 unknown #
loop $-1 $-1 $234 $143 #
plane-surface $-1 -14.11969759659582 -4.4809762979395202 63.978500152639661 0.74314483375859142 0 0.66913059716165679 0.66913059716165679 0 -0.74314483375859142 forward_v I I I I #
loop $-1 $-1 $358 $91 #
coedge $-1 $232 $232 $233 $359 reversed $144 $-1 #
coedge $-1 $233 $233 $232 $359 forward $146 $-1 #
coedge $-1 $234 $234 $147 $235 forward $229 $-1 #
edge $-1 $360 0 $360 6.2831853071796004 $234 $361 forward 7 unknown #
face $-1 $362 $363 $50 $-1 $364 reversed single #
loop $-1 $-1 $365 $148 #
plane-surface $-1 47.921000533941061 1.4115711282720453 119.84019427012541 0 1 0 0.74314483375859142 0 0.66913059716165679 forward_v I I I I #
coedge $-1 $366 $367 $368 $369 reversed $149 $-1 #
coedge $-1 $241 $151 $370 $371 reversed $95 $-1 #
coedge $-1 $151 $240 $366 $372 reversed $95 $-1 #
coedge $-1 $368 $373 $151 $243 forward $374 $-1 #
edge $-1 $375 -17.781496253919389 $376 -11.736346890571493 $242 $377 forward 7 unknown #
loop $-1 $-1 $249 $152 #
plane-surface $-1 -14.11969759659582 4.4809762979395131 63.978500152639661 0.74314483375859142 0 0.66913059716165679 0.66913059716165679 0 -0.74314483375859142 forward_v I I I I #
loop $-1 $-1 $378 $97 #
coedge $-1 $247 $247 $248 $379 reversed $153 $-1 #
coedge $-1 $248 $248 $247 $379 forward $155 $-1 #
coedge $-1 $249 $249 $156 $250 forward $244 $-1 #
edge $-1 $380 0 $380 6.2831853071796004 $249 $381 forward 7 unknown #
loop $-1 $-1 $256 $157 #
plane-surface $-1 -14.11969759659582 4.4809762979395131 63.978500152639661 0.74314483375859142 0 0.66913059716165679 0.66913059716165679 0 -0.74314483375859142 forward_v I I I I #
loop $-1 $-1 $382 $100 #
coedge $-1 $254 $254 $255 $383 reversed $158 $-1 #
coedge $-1 $255 $255 $254 $383 forward $160 $-1 #
coedge $-1 $256 $256 $161 $257 forward $251 $-1 #
edge $-1 $384 0 $384 6.2831853071796004 $256 $385 forward 7 unknown #
face $-1 $386 $387 $53 $-1 $388 reversed single #
loop $-1 $-1 $389 $162 #
plane-surface $-1 47.921000533941061 10.373523724151079 119.84019427012541 0 1 0 0.74314483375859142 0 0.66913059716165679 forward_v I I I I #
coedge $-1 $390 $391 $392 $393 reversed $163 $-1 #
coedge $-1 $263 $165 $394 $395 reversed $104 $-1 #
coedge $-1 $165 $262 $390 $396 reversed $104 $-1 #
coedge $-1 $392 $397 $165 $265 forward $398 $-1 #
edge $-1 $399 -17.781496253919389 $400 -11.736346890571493 $264 $401 forward 7 unknown #
loop $-1 $-1 $271 $166 #
plane-surface $-1 -14.11969759659582 13.442928893818546 63.978500152639661 0.74314483375859142 0 0.66913059716165679 0.66913059716165679 0 -0.74314483375859142 forward_v I I I I #
loop $-1 $-1 $402 $106 #
coedge $-1 $269 $269 $270 $403 reversed $167 $-1 #
coedge $-1 $270 $270 $269 $403 forward $169 $-1 #
coedge $-1 $271 $271 $170 $272 forward $266 $-1 #
edge $-1 $404 0 $404 6.2831853071796004 $271 $405 forward 7 unknown #
loop $-1 $-1 $278 $171 #
plane-surface $-1 -14.11969759659582 13.442928893818546 63.978500152639661 0.74314483375859142 0 0.66913059716165679 0.66913059716165679 0 -0.74314483375859142 forward_v I I I I #
loop $-1 $-1 $406 $109 #
coedge $-1 $276 $276 $277 $407 reversed $172 $-1 #
coedge $-1 $277 $277 $276 $407 forward $174 $-1 #
coedge $-1 $278 $278 $175 $279 forward $273 $-1 #
edge $-1 $408 0 $408 6.2831853071796004 $278 $409 forward 7 unknown #
face $-1 $410 $411 $42 $-1 $412 reversed single #
loop $-1 $-1 $413 $176 #
plane-surface $-1 -41.74199652088992 0 0 1 0 0 0 0 -1 forward_v I I I I #
coedge $-1 $414 $291 $415 $416 forward $177 $-1 #
coedge $-1 $417 $179 $414 $418 forward $113 $-1 #
coedge $-1 $179 $417 $419 $420 forward $113 $-1 #
coedge $-1 $294 $293 $179 $287 reversed $295 $-1 #
edge $-1 $421 -20.747047448302176 $422 20.747047448302176 $286 $423 forward 7 unknown #
coedge $-1 $181 $180 $424 $425 forward $71 $-1 #
coedge $-1 $426 $427 $180 $290 reversed $411 $-1 #
edge $-1 $297 -41.74199652088992 $428 41.74199652088992 $289 $429 forward 7 unknown #
coedge $-1 $283 $430 $181 $292 reversed $177 $-1 #
edge $-1 $431 -41.74199652088992 $296 41.74199652088992 $291 $432 forward 7 unknown #
coedge $-1 $286 $182 $430 $433 forward $295 $-1 #
coedge $-1 $182 $286 $426 $434 reversed $295 $-1 #
loop $-1 $-1 $293 $410 #
vertex $-1 $183 $435 #
vertex $-1 $183 $436 #
straight-curve $-1 41.74199652088992 0 8.6516207261452358 0 1 0 I I #
face $-1 $437 $438 $43 $-1 $439 forward single #
loop $-1 $-1 $440 $184 #
plane-surface $-1 -41.74199652088992 0 0 1 0 0 0 0 -1 forward_v I I I I #
coedge $-1 $309 $441 $311 $442 forward $185 $-1 #
coedge $-1 $187 $311 $443 $444 reversed $117 $-1 #
coedge $-1 $445 $307 $187 $305 forward $446 $-1 #
edge $-1 $313 2.0758103630726179 $447 5.0758103630726179 $304 $448 forward 7 unknown #
coedge $-1 $189 $188 $440 $449 reversed $74 $-1 #
coedge $-1 $304 $450 $188 $308 forward $446 $-1 #
edge $-1 $451 -22.840429471117588 $313 -14.962704628427076 $307 $452 forward 7 unknown #
coedge $-1 $453 $302 $189 $310 forward $185 $-1 #
edge $-1 $312 14.962704628427076 $454 22.840429471117588 $309 $455 forward 7 unknown #
coedge $-1 $303 $190 $302 $442 reversed $117 $-1 #
vertex $-1 $310 $456 #
vertex $-1 $308 $457 #
straight-curve $-1 -33.864271678199408 0 5.6516207261452358 0 -1 0 I I #
face $-1 $-1 $458 $44 $-1 $459 reversed single #
loop $-1 $-1 $198 $192 #
plane-surface $-1 0 0 8.6516207261452358 0 0 1 1 0 0 forward_v I I I I #
coedge $-1 $460 $461 $462 $463 reversed $193 $-1 #
coedge $-1 $464 $195 $197 $325 forward $121 $-1 #
coedge $-1 $195 $464 $460 $465 forward $121 $-1 #
coedge $-1 $462 $198 $195 $322 forward $316 $-1 #
edge $-1 $328 3.6520592772418103 $466 9.7908696165767459 $321 $467 forward 7 unknown #
coedge $-1 $468 $469 $196 $324 forward $458 $-1 #
edge $-1 $470 -57.982295112959925 $327 -51.268476408917465 $323 $471 forward 7 unknown #
edge $-1 $328 74.449658953650498 $470 83.483993041779826 $197 $472 forward 7 unknown #
coedge $-1 $198 $462 $468 $473 forward $316 $-1 #
vertex $-1 $324 $474 #
vertex $-1 $199 $475 #
straight-curve $-1 23.960500266970531 -10.373523724151088 8.6516207261452394 -1 0 0 I I #
coedge $-1 $330 $330 $-1 $476 reversed $202 $-1 #
edge $-1 $477 0 $477 6.2831853071796004 $203 $478 forward 7 unknown #
vertex $-1 $206 $479 #
ellipse-curve $-1 38.719421839215968 -14.758388252247471 5.2947113741240122 0.74314483375859142 0 0.66913059716165679 0.3345652985808284 0 -0.37157241687929571 1 I I #
coedge $-1 $334 $334 $-1 $480 reversed $209 $-1 #
edge $-1 $481 0 $481 6.2831853071796004 $210 $482 forward 7 unknown #
vertex $-1 $213 $483 #
ellipse-curve $-1 38.719421839215968 -12.127469535389642 5.2947113741240122 0.74314483375859142 0 0.66913059716165679 0.3345652985808284 0 -0.37157241687929571 1 I I #
face $-1 $-1 $350 $47 $-1 $484 forward single #
loop $-1 $-1 $485 $214 #
plane-surface $-1 41.74199652088992 0 0 -1 0 0 0 0 1 forward_v I I I I #
coedge $-1 $486 $487 $488 $489 reversed $215 $-1 #
coedge $-1 $490 $217 $219 $348 forward $135 $-1 #
coedge $-1 $217 $490 $486 $491 forward $135 $-1 #
coedge $-1 $488 $220 $217 $345 forward $350 $-1 #
edge $-1 $352 -0.82891702069770767 $492 5.3098933186372275 $344 $493 forward 7 unknown #
coedge $-1 $494 $495 $218 $347 forward $339 $-1 #
edge $-1 $496 -57.982295112959925 $351 -51.268476408917465 $346 $497 forward 7 unknown #
edge $-1 $352 74.449658953650498 $496 83.483993041779826 $219 $498 forward 7 unknown #
coedge $-1 $220 $488 $494 $499 forward $350 $-1 #
loop $-1 $-1 $488 $338 #
vertex $-1 $347 $500 #
vertex $-1 $221 $501 #
straight-curve $-1 23.960500266970531 -1.4115711282720524 8.6516207261452394 -1 0 0 I I #
coedge $-1 $354 $354 $-1 $502 reversed $224 $-1 #
edge $-1 $503 0 $503 6.2831853071796004 $225 $504 forward 7 unknown #
vertex $-1 $228 $505 #
ellipse-curve $-1 38.719421839215968 -5.7964356563684358 5.2947113741240122 0.74314483375859142 0 0.66913059716165679 0.3345652985808284 0 -0.37157241687929571 1 I I #
coedge $-1 $358 $358 $-1 $506 reversed $231 $-1 #
edge $-1 $507 0 $507 6.2831853071796004 $232 $508 forward 7 unknown #
vertex $-1 $235 $509 #
ellipse-curve $-1 38.719421839215968 -3.1655169395106064 5.2947113741240122 0.74314483375859142 0 0.66913059716165679 0.3345652985808284 0 -0.37157241687929571 1 I I #
face $-1 $-1 $374 $50 $-1 $510 forward single #
loop $-1 $-1 $511 $236 #
plane-surface $-1 41.74199652088992 0 0 -1 0 0 0 0 1 forward_v I I I I #
coedge $-1 $512 $513 $514 $515 reversed $237 $-1 #
coedge $-1 $516 $239 $241 $372 forward $149 $-1 #
coedge $-1 $239 $516 $512 $517 forward $149 $-1 #
coedge $-1 $514 $242 $239 $369 forward $374 $-1 #
edge $-1 $376 -5.3098933186372239 $518 0.82891702069771123 $368 $519 forward 7 unknown #
coedge $-1 $520 $521 $240 $371 forward $363 $-1 #
edge $-1 $522 -57.982295112959925 $375 -51.268476408917465 $370 $523 forward 7 unknown #
edge $-1 $376 74.449658953650498 $522 83.483993041779826 $241 $524 forward 7 unknown #
coedge $-1 $242 $514 $520 $525 forward $374 $-1 #
loop $-1 $-1 $514 $362 #
vertex $-1 $371 $526 #
vertex $-1 $243 $527 #
straight-curve $-1 23.960500266970531 7.5503814676069805 8.6516207261452394 -1 0 0 I I #
coedge $-1 $378 $378 $-1 $528 reversed $246 $-1 #
edge $-1 $529 0 $529 6.2831853071796004 $247 $530 forward 7 unknown #
vertex $-1 $250 $531 #
ellipse-curve $-1 38.719421839215968 3.1655169395105993 5.2947113741240122 0.74314483375859142 0 0.66913059716165679 0.3345652985808284 0 -0.37157241687929571 1 I I #
coedge $-1 $382 $382 $-1 $532 reversed $253 $-1 #
edge $-1 $533 0 $533 6.2831853071796004 $254 $534 forward 7 unknown #
vertex $-1 $257 $535 #
ellipse-curve $-1 38.719421839215968 5.7964356563684305 5.2947113741240122 0.74314483375859142 0 0.66913059716165679 0.3345652985808284 0 -0.37157241687929571 1 I I #
face $-1 $-1 $398 $53 $-1 $536 forward single #
loop $-1 $-1 $537 $258 #
plane-surface $-1 41.74199652088992 0 0 -1 0 0 0 0 1 forward_v I I I I #
coedge $-1 $538 $539 $540 $541 reversed $259 $-1 #
coedge $-1 $542 $261 $263 $396 forward $163 $-1 #
coedge $-1 $261 $542 $538 $543 forward $163 $-1 #
coedge $-1 $540 $264 $261 $393 forward $398 $-1 #
edge $-1 $400 -9.7908696165767424 $544 -3.6520592772418059 $392 $545 forward 7 unknown #
coedge $-1 $546 $547 $262 $395 forward $387 $-1 #
edge $-1 $548 -57.982295112959925 $399 -51.268476408917465 $394 $549 forward 7 unknown #
edge $-1 $400 74.449658953650498 $548 83.483993041779826 $263 $550 forward 7 unknown #
coedge $-1 $264 $540 $546 $551 forward $398 $-1 #
loop $-1 $-1 $540 $386 #
vertex $-1 $395 $552 #
vertex $-1 $265 $553 #
straight-curve $-1 23.960500266970531 16.512334063486016 8.6516207261452394 -1 0 0 I I #
coedge $-1 $402 $402 $-1 $554 reversed $268 $-1 #
edge $-1 $555 0 $555 6.2831853071796004 $269 $556 forward 7 unknown #
vertex $-1 $272 $557 #
ellipse-curve $-1 38.719421839215968 12.127469535389636 5.2947113741240122 0.74314483375859142 0 0.66913059716165679 0.3345652985808284 0 -0.37157241687929571 1 I I #
coedge $-1 $406 $406 $-1 $558 reversed $275 $-1 #
edge $-1 $559 0 $559 6.2831853071796004 $276 $560 forward 7 unknown #
vertex $-1 $279 $561 #
ellipse-curve $-1 38.719421839215968 14.758388252247464 5.2947113741240122 0.74314483375859142 0 0.66913059716165679 0.3345652985808284 0 -0.37157241687929571 1 I I #
face $-1 $-1 $295 $42 $-1 $562 reversed single #
loop $-1 $-1 $426 $280 #
plane-surface $-1 0 20.747047448302176 0 0 -1 0 0 0 -1 forward_v I I I I #
coedge $-1 $563 $424 $427 $564 forward $281 $-1 #
coedge $-1 $430 $283 $284 $418 reversed $177 $-1 #
coedge $-1 $424 $563 $283 $416 reversed $281 $-1 #
edge $-1 $431 -8.6516207261452358 $565 8.6516207261452358 $415 $566 forward 7 unknown #
coedge $-1 $285 $284 $563 $567 forward $113 $-1 #
edge $-1 $422 -41.74199652088992 $565 41.74199652088992 $414 $568 forward 7 unknown #
coedge $-1 $427 $426 $285 $420 reversed $411 $-1 #
edge $-1 $569 -41.74199652088992 $421 41.74199652088992 $419 $570 forward 7 unknown #
vertex $-1 $287 $571 #
vertex $-1 $433 $572 #
straight-curve $-1 41.74199652088992 0 -8.6516207261452358 0 -1 0 I I #
coedge $-1 $413 $415 $288 $425 reversed $281 $-1 #
edge $-1 $428 -20.747047448302176 $431 20.747047448302176 $424 $573 forward 7 unknown #
coedge $-1 $419 $289 $294 $434 forward $411 $-1 #
coedge $-1 $289 $419 $413 $564 reversed $411 $-1 #
vertex $-1 $290 $574 #
straight-curve $-1 0 20.747047448302176 8.6516207261452358 -1 0 0 I I #
coedge $-1 $291 $414 $293 $433 reversed $177 $-1 #
vertex $-1 $425 $575 #
straight-curve $-1 0 -20.747047448302176 8.6516207261452358 1 0 0 I I #
edge $-1 $296 -8.6516207261452358 $422 8.6516207261452358 $293 $576 forward 7 unknown #
edge $-1 $297 -8.6516207261452358 $421 8.6516207261452358 $294 $577 forward 7 unknown #
point $-1 41.74199652088992 -20.747047448302176 8.6516207261452358 #
point $-1 41.74199652088992 20.747047448302176 8.6516207261452358 #
face $-1 $-1 $446 $43 $-1 $578 reversed single #
loop $-1 $-1 $443 $299 #
plane-surface $-1 0 0 8.6516207261452358 0 0 1 1 0 0 forward_v I I I I #
coedge $-1 $579 $580 $306 $449 forward $300 $-1 #
coedge $-1 $302 $453 $581 $582 reversed $185 $-1 #
edge $-1 $583 -5.0758103630726179 $312 -2.0758103630726179 $302 $584 forward 7 unknown #
coedge $-1 $581 $585 $303 $444 forward $438 $-1 #
edge $-1 $447 -20.747047448302176 $583 20.747047448302176 $443 $586 forward 7 unknown #
coedge $-1 $450 $304 $585 $587 reversed $446 $-1 #
loop $-1 $-1 $304 $437 #
vertex $-1 $305 $588 #
straight-curve $-1 -33.864271678199408 -20.747047448302176 3.5758103630726179 0 0 1 I I #
edge $-1 $454 -20.747047448302176 $451 20.747047448302176 $440 $589 forward 7 unknown #
coedge $-1 $307 $445 $579 $590 forward $446 $-1 #
vertex $-1 $449 $591 #
straight-curve $-1 -18.901567049772332 -20.747047448302176 5.6516207261452358 1 0 0 I I #
coedge $-1 $441 $309 $580 $592 reversed $185 $-1 #
vertex $-1 $449 $593 #
straight-curve $-1 -18.901567049772332 20.747047448302176 5.6516207261452358 -1 0 0 I I #
point $-1 -33.864271678199408 20.747047448302176 5.6516207261452358 #
point $-1 -33.864271678199408 -20.747047448302176 5.6516207261452358 #
loop $-1 $-1 $323 $315 #
plane-surface $-1 41.74199652088992 0 0 -1 0 0 0 0 1 forward_v I I I I #
coedge $-1 $461 $318 $320 $465 reversed $193 $-1 #
coedge $-1 $318 $460 $594 $595 reversed $193 $-1 #
coedge $-1 $326 $321 $318 $463 forward $316 $-1 #
edge $-1 $466 11.736346890571493 $596 17.781496253919389 $462 $597 forward 7 unknown #
coedge $-1 $320 $319 $469 $598 reversed $121 $-1 #
edge $-1 $599 -83.483993041779826 $466 -74.449658953650498 $460 $600 forward 7 unknown #
vertex $-1 $322 $601 #
straight-curve $-1 35.696847157542031 -6.7214644469092777 8.6516207261452323 0 -1 0 I I #
coedge $-1 $594 $323 $326 $473 reversed $458 $-1 #
coedge $-1 $323 $594 $464 $598 forward $458 $-1 #
vertex $-1 $324 $602 #
straight-curve $-1 41.74199652088992 -10.373523724151088 59.920097135062704 0 0 1 I I #
straight-curve $-1 -14.11969759659582 -10.373523724151088 63.978500152639661 0.66913059716165679 0 -0.74314483375859142 I I #
edge $-1 $596 -16.512334063486023 $327 -10.373523724151088 $468 $603 forward 7 unknown #
point $-1 41.74199652088992 -10.373523724151088 8.6516207261452358 #
point $-1 35.696847157542024 -10.373523724151088 8.6516207261452323 #
edge $-1 $604 1 $604 0 $330 $-1 forward 7 unknown #
vertex $-1 $331 $605 #
ellipse-curve $-1 37.976277005457376 -14.758388252247471 4.625580776962356 0.74314483375859142 0 0.66913059716165679 0.3345652985808284 0 -0.37157241687929571 1 I I #
point $-1 39.053987137796803 -14.758388252247471 4.9231389572447171 #
edge $-1 $606 1 $606 0 $334 $-1 forward 7 unknown #
vertex $-1 $335 $607 #
ellipse-curve $-1 37.976277005457376 -12.127469535389642 4.625580776962356 0.74314483375859142 0 0.66913059716165679 0.3345652985808284 0 -0.37157241687929571 1 I I #
point $-1 39.053987137796803 -12.127469535389642 4.9231389572447171 #
plane-surface $-1 0 0 8.6516207261452358 0 0 1 1 0 0 forward_v I I I I #
coedge $-1 $495 $494 $487 $608 forward $339 $-1 #
coedge $-1 $487 $341 $343 $491 reversed $215 $-1 #
coedge $-1 $341 $486 $485 $608 reversed $215 $-1 #
coedge $-1 $349 $344 $341 $489 forward $350 $-1 #
edge $-1 $492 11.736346890571493 $609 17.781496253919389 $488 $610 forward 7 unknown #
coedge $-1 $343 $342 $495 $611 reversed $135 $-1 #
edge $-1 $612 -83.483993041779826 $492 -74.449658953650498 $486 $613 forward 7 unknown #
vertex $-1 $345 $614 #
straight-curve $-1 35.696847157542031 -2.2404881489697601 8.6516207261452323 0 -1 0 I I #
coedge $-1 $485 $346 $349 $499 reversed $339 $-1 #
coedge $-1 $346 $485 $490 $611 forward $339 $-1 #
vertex $-1 $347 $615 #
straight-curve $-1 41.74199652088992 -1.4115711282720524 59.920097135062704 0 0 1 I I #
straight-curve $-1 -14.11969759659582 -1.4115711282720524 63.978500152639661 0.66913059716165679 0 -0.74314483375859142 I I #
edge $-1 $609 -7.5503814676069876 $351 -1.4115711282720524 $494 $616 forward 7 unknown #
point $-1 41.74199652088992 -1.4115711282720524 8.6516207261452358 #
point $-1 35.696847157542024 -1.4115711282720524 8.6516207261452323 #
edge $-1 $617 1 $617 0 $354 $-1 forward 7 unknown #
vertex $-1 $355 $618 #
ellipse-curve $-1 37.976277005457376 -5.7964356563684358 4.625580776962356 0.74314483375859142 0 0.66913059716165679 0.3345652985808284 0 -0.37157241687929571 1 I I #
point $-1 39.053987137796803 -5.7964356563684358 4.9231389572447171 #
edge $-1 $619 1 $619 0 $358 $-1 forward 7 unknown #
vertex $-1 $359 $620 #
ellipse-curve $-1 37.976277005457376 -3.1655169395106064 4.625580776962356 0.74314483375859142 0 0.66913059716165679 0.3345652985808284 0 -0.37157241687929571 1 I I #
point $-1 39.053987137796803 -3.1655169395106064 4.9231389572447171 #
plane-surface $-1 0 0 8.6516207261452358 0 0 1 1 0 0 forward_v I I I I #
coedge $-1 $521 $520 $513 $621 forward $363 $-1 #
coedge $-1 $513 $365 $367 $517 reversed $237 $-1 #
coedge $-1 $365 $512 $511 $621 reversed $237 $-1 #
coedge $-1 $373 $368 $365 $515 forward $374 $-1 #
edge $-1 $518 11.736346890571493 $622 17.781496253919389 $514 $623 forward 7 unknown #
coedge $-1 $367 $366 $521 $624 reversed $149 $-1 #
edge $-1 $625 -83.483993041779826 $518 -74.449658953650498 $512 $626 forward 7 unknown #
vertex $-1 $369 $627 #
straight-curve $-1 35.696847157542031 2.2404881489697566 8.6516207261452323 0 -1 0 I I #
coedge $-1 $511 $370 $373 $525 reversed $363 $-1 #
coedge $-1 $370 $511 $516 $624 forward $363 $-1 #
vertex $-1 $371 $628 #
straight-curve $-1 41.74199652088992 7.5503814676069805 59.920097135062704 0 0 1 I I #
straight-curve $-1 -14.11969759659582 7.5503814676069805 63.978500152639661 0.66913059716165679 0 -0.74314483375859142 I I #
edge $-1 $622 1.4115711282720453 $375 7.5503814676069805 $520 $629 forward 7 unknown #
point $-1 41.74199652088992 7.5503814676069805 8.6516207261452358 #
point $-1 35.696847157542024 7.5503814676069805 8.6516207261452323 #
edge $-1 $630 1 $630 0 $378 $-1 forward 7 unknown #
vertex $-1 $379 $631 #
ellipse-curve $-1 37.976277005457376 3.1655169395105993 4.625580776962356 0.74314483375859142 0 0.66913059716165679 0.3345652985808284 0 -0.37157241687929571 1 I I #
point $-1 39.053987137796803 3.1655169395105993 4.9231389572447171 #
edge $-1 $632 1 $632 0 $382 $-1 forward 7 unknown #
vertex $-1 $383 $633 #
ellipse-curve $-1 37.976277005457376 5.7964356563684305 4.625580776962356 0.74314483375859142 0 0.66913059716165679 0.3345652985808284 0 -0.37157241687929571 1 I I #
point $-1 39.053987137796803 5.7964356563684305 4.9231389572447171 #
plane-surface $-1 0 0 8.6516207261452358 0 0 1 1 0 0 forward_v I I I I #
coedge $-1 $547 $546 $539 $634 forward $387 $-1 #
coedge $-1 $539 $389 $391 $543 reversed $259 $-1 #
coedge $-1 $389 $538 $537 $634 reversed $259 $-1 #
coedge $-1 $397 $392 $389 $541 forward $398 $-1 #
edge $-1 $544 11.736346890571493 $635 17.781496253919389 $540 $636 forward 7 unknown #
coedge $-1 $391 $390 $547 $637 reversed $163 $-1 #
edge $-1 $638 -83.483993041779826 $544 -74.449658953650498 $538 $639 forward 7 unknown #
vertex $-1 $393 $640 #
straight-curve $-1 35.696847157542031 6.7214644469092732 8.6516207261452323 0 -1 0 I I #
coedge $-1 $537 $394 $397 $551 reversed $387 $-1 #
coedge $-1 $394 $537 $542 $637 forward $387 $-1 #
vertex $-1 $395 $641 #
straight-curve $-1 41.74199652088992 16.512334063486016 59.920097135062704 0 0 1 I I #
straight-curve $-1 -14.11969759659582 16.512334063486016 63.978500152639661 0.66913059716165679 0 -0.74314483375859142 I I #
edge $-1 $635 10.373523724151079 $399 16.512334063486016 $546 $642 forward 7 unknown #
point $-1 41.74199652088992 16.512334063486016 8.6516207261452358 #
point $-1 35.696847157542024 16.512334063486016 8.6516207261452323 #
edge $-1 $643 1 $643 0 $402 $-1 forward 7 unknown #
vertex $-1 $403 $644 #
ellipse-curve $-1 37.976277005457376 12.127469535389636 4.625580776962356 0.74314483375859142 0 0.66913059716165679 0.3345652985808284 0 -0.37157241687929571 1 I I #
point $-1 39.053987137796803 12.127469535389636 4.9231389572447171 #
edge $-1 $645 1 $645 0 $406 $-1 forward 7 unknown #
vertex $-1 $407 $646 #
ellipse-curve $-1 37.976277005457376 14.758388252247464 4.625580776962356 0.74314483375859142 0 0.66913059716165679 0.3345652985808284 0 -0.37157241687929571 1 I I #
point $-1 39.053987137796803 14.758388252247464 4.9231389572447171 #
plane-surface $-1 41.74199652088992 0 0 -1 0 0 0 0 1 forward_v I I I I #
coedge $-1 $415 $413 $417 $567 reversed $281 $-1 #
edge $-1 $428 -8.6516207261452358 $569 8.6516207261452358 $427 $647 forward 7 unknown #
vertex $-1 $567 $648 #
straight-curve $-1 -41.74199652088992 -20.747047448302176 0 0 0 -1 I I #
edge $-1 $565 -20.747047448302176 $569 20.747047448302176 $563 $649 forward 7 unknown #
straight-curve $-1 0 -20.747047448302176 -8.6516207261452358 -1 0 0 I I #
vertex $-1 $420 $650 #
straight-curve $-1 0 20.747047448302176 -8.6516207261452358 1 0 0 I I #
point $-1 41.74199652088992 20.747047448302176 -8.6516207261452358 #
point $-1 41.74199652088992 -20.747047448302176 -8.6516207261452358 #
straight-curve $-1 -41.74199652088992 0 8.6516207261452358 0 -1 0 I I #
point $-1 -41.74199652088992 20.747047448302176 8.6516207261452358 #
point $-1 -41.74199652088992 -20.747047448302176 8.6516207261452358 #
straight-curve $-1 41.74199652088992 -20.747047448302176 0 0 0 -1 I I #
straight-curve $-1 41.74199652088992 20.747047448302176 0 0 0 -1 I I #
plane-surface $-1 0 -20.747047448302176 0 0 1 0 0 0 1 forward_v I I I I #
coedge $-1 $651 $440 $450 $590 reversed $300 $-1 #
coedge $-1 $440 $651 $453 $592 forward $300 $-1 #
coedge $-1 $652 $443 $441 $582 forward $438 $-1 #
edge $-1 $583 33.864271678199408 $653 41.74199652088992 $441 $654 forward 7 unknown #
vertex $-1 $582 $655 #
straight-curve $-1 -33.864271678199408 20.747047448302176 3.5758103630726179 0 0 -1 I I #
coedge $-1 $443 $652 $445 $587 forward $438 $-1 #
straight-curve $-1 -33.864271678199408 0 8.6516207261452358 0 1 0 I I #
edge $-1 $656 -41.74199652088992 $447 -33.864271678199408 $445 $657 forward 7 unknown #
point $-1 -33.864271678199408 -20.747047448302176 8.6516207261452358 #
straight-curve $-1 -41.74199652088992 0 5.6516207261452358 0 -1 0 I I #
edge $-1 $656 -8.6516207261452358 $451 -5.6516207261452358 $579 $658 forward 7 unknown #
point $-1 -41.74199652088992 -20.747047448302176 5.6516207261452358 #
edge $-1 $653 -8.6516207261452358 $454 -5.6516207261452358 $453 $659 forward 7 unknown #
point $-1 -41.74199652088992 20.747047448302176 5.6516207261452358 #
coedge $-1 $469 $468 $461 $595 forward $458 $-1 #
edge $-1 $596 51.268476408917465 $599 57.982295112959925 $594 $660 forward 7 unknown #
vertex $-1 $473 $661 #
straight-curve $-1 23.960500266970531 -16.512334063486023 8.6516207261452394 1 0 0 I I #
edge $-1 $599 -9.7908696165767459 $470 -3.6520592772418103 $469 $662 forward 7 unknown #
vertex $-1 $598 $663 #
straight-curve $-1 -14.11969759659582 -16.512334063486023 63.978500152639661 -0.66913059716165679 0 0.74314483375859142 I I #
point $-1 35.696847157542024 -16.512334063486023 8.6516207261452323 #
point $-1 41.741996520889927 -10.373523724151088 1.9378020221027796 #
straight-curve $-1 41.74199652088992 0 8.6516207261452358 0 1 0 I I #
vertex $-1 $476 $664 #
point $-1 38.310842304038211 -14.758388252247471 4.25400836008306 #
vertex $-1 $480 $665 #
point $-1 38.310842304038211 -12.127469535389642 4.25400836008306 #
edge $-1 $609 51.268476408917465 $612 57.982295112959925 $485 $666 forward 7 unknown #
vertex $-1 $499 $667 #
straight-curve $-1 23.960500266970531 -7.5503814676069876 8.6516207261452394 1 0 0 I I #
edge $-1 $612 -5.3098933186372275 $496 0.82891702069770767 $495 $668 forward 7 unknown #
vertex $-1 $611 $669 #
straight-curve $-1 -14.11969759659582 -7.5503814676069876 63.978500152639661 -0.66913059716165679 0 0.74314483375859142 I I #
point $-1 35.696847157542024 -7.5503814676069876 8.6516207261452323 #
point $-1 41.741996520889927 -1.4115711282720524 1.9378020221027796 #
straight-curve $-1 41.74199652088992 0 8.6516207261452358 0 1 0 I I #
vertex $-1 $502 $670 #
point $-1 38.310842304038211 -5.7964356563684358 4.25400836008306 #
vertex $-1 $506 $671 #
point $-1 38.310842304038211 -3.1655169395106064 4.25400836008306 #
edge $-1 $622 51.268476408917465 $625 57.982295112959925 $511 $672 forward 7 unknown #
vertex $-1 $525 $673 #
straight-curve $-1 23.960500266970531 1.4115711282720453 8.6516207261452394 1 0 0 I I #
edge $-1 $625 -0.82891702069771123 $522 5.3098933186372239 $521 $674 forward 7 unknown #
vertex $-1 $624 $675 #
straight-curve $-1 -14.11969759659582 1.4115711282720453 63.978500152639661 -0.66913059716165679 0 0.74314483375859142 I I #
point $-1 35.696847157542024 1.4115711282720453 8.6516207261452323 #
point $-1 41.741996520889927 7.5503814676069805 1.9378020221027796 #
straight-curve $-1 41.74199652088992 0 8.6516207261452358 0 1 0 I I #
vertex $-1 $528 $676 #
point $-1 38.310842304038211 3.1655169395105993 4.25400836008306 #
vertex $-1 $532 $677 #
point $-1 38.310842304038211 5.7964356563684305 4.25400836008306 #
edge $-1 $635 51.268476408917465 $638 57.982295112959925 $537 $678 forward 7 unknown #
vertex $-1 $551 $679 #
straight-curve $-1 23.960500266970531 10.373523724151079 8.6516207261452394 1 0 0 I I #
edge $-1 $638 3.6520592772418059 $548 9.7908696165767424 $547 $680 forward 7 unknown #
vertex $-1 $637 $681 #
straight-curve $-1 -14.11969759659582 10.373523724151079 63.978500152639661 -0.66913059716165679 0 0.74314483375859142 I I #
point $-1 35.696847157542024 10.373523724151079 8.6516207261452323 #
point $-1 41.741996520889927 16.512334063486016 1.9378020221027796 #
straight-curve $-1 41.74199652088992 0 8.6516207261452358 0 1 0 I I #
vertex $-1 $554 $682 #
point $-1 38.310842304038211 12.127469535389636 4.25400836008306 #
vertex $-1 $558 $683 #
point $-1 38.310842304038211 14.758388252247464 4.25400836008306 #
straight-curve $-1 -41.74199652088992 20.747047448302176 0 0 0 -1 I I #
point $-1 -41.74199652088992 -20.747047448302176 -8.6516207261452358 #
straight-curve $-1 -41.74199652088992 0 -8.6516207261452358 0 1 0 I I #
point $-1 -41.74199652088992 20.747047448302176 -8.6516207261452358 #
coedge $-1 $580 $579 $652 $684 reversed $300 $-1 #
coedge $-1 $585 $581 $651 $684 forward $438 $-1 #
vertex $-1 $582 $685 #
straight-curve $-1 0 20.747047448302176 8.6516207261452358 -1 0 0 I I #
point $-1 -33.864271678199408 20.747047448302176 8.6516207261452358 #
vertex $-1 $684 $686 #
straight-curve $-1 0 -20.747047448302176 8.6516207261452358 1 0 0 I I #
straight-curve $-1 -41.74199652088992 -20.747047448302176 0 0 0 -1 I I #
straight-curve $-1 -41.74199652088992 20.747047448302176 0 0 0 -1 I I #
straight-curve $-1 41.74199652088992 -16.512334063486023 59.920097135062704 0 0 -1 I I #
point $-1 41.74199652088992 -16.512334063486023 8.6516207261452358 #
straight-curve $-1 41.74199652088992 -6.7214644469092777 1.9378020221027796 0 1 0 I I #
point $-1 41.741996520889927 -16.512334063486023 1.9378020221027796 #
point $-1 37.604704588578088 -14.758388252247471 4.2910154783815271 #
point $-1 37.604704588578088 -12.127469535389642 4.2910154783815271 #
straight-curve $-1 41.74199652088992 -7.5503814676069876 59.920097135062704 0 0 -1 I I #
point $-1 41.74199652088992 -7.5503814676069876 8.6516207261452358 #
straight-curve $-1 41.74199652088992 -2.2404881489697601 1.9378020221027796 0 1 0 I I #
point $-1 41.741996520889927 -7.5503814676069876 1.9378020221027796 #
point $-1 37.604704588578088 -5.7964356563684358 4.2910154783815271 #
point $-1 37.604704588578088 -3.1655169395106064 4.2910154783815271 #
straight-curve $-1 41.74199652088992 1.4115711282720453 59.920097135062704 0 0 -1 I I #
point $-1 41.74199652088992 1.4115711282720453 8.6516207261452358 #
straight-curve $-1 41.74199652088992 2.2404881489697566 1.9378020221027796 0 1 0 I I #
point $-1 41.741996520889927 1.4115711282720453 1.9378020221027796 #
point $-1 37.604704588578088 3.1655169395105993 4.2910154783815271 #
point $-1 37.604704588578088 5.7964356563684305 4.2910154783815271 #
straight-curve $-1 41.74199652088992 10.373523724151079 59.920097135062704 0 0 -1 I I #
point $-1 41.74199652088992 10.373523724151079 8.6516207261452358 #
straight-curve $-1 41.74199652088992 6.7214644469092732 1.9378020221027796 0 1 0 I I #
point $-1 41.741996520889927 10.373523724151079 1.9378020221027796 #
point $-1 37.604704588578088 12.127469535389636 4.2910154783815271 #
point $-1 37.604704588578088 14.758388252247464 4.2910154783815271 #
edge $-1 $653 -20.747047448302176 $656 20.747047448302176 $651 $687 forward 7 unknown #
point $-1 -41.74199652088992 20.747047448302176 8.6516207261452358 #
point $-1 -41.74199652088992 -20.747047448302176 8.6516207261452358 #
straight-curve $-1 -41.74199652088992 0 8.6516207261452358 0 -1 0 I I #
End-of-ACIS-data 