500 0 8 0           
7 Unknown 11 ACIS 5.0 NT 24 Thu Mar 25 19:49:21 1999 
-1 9.9999999999999995e-007 1e-010 
body $-1 $8 $-1 $9 #
body $-1 $10 $-1 $11 #
body $-1 $12 $-1 $13 #
body $-1 $14 $-1 $15 #
body $-1 $16 $-1 $17 #
body $-1 $18 $-1 $19 #
body $-1 $20 $-1 $21 #
body $-1 $22 $-1 $23 #
lump $-1 $-1 $24 $0 #
transform $-1 1 0 0 0 1 0 0 0 1 60.144657734916223 33.251642251736449 11.872948063023509 1 rotate no_reflect no_shear #
lump $-1 $-1 $25 $1 #
transform $-1 1 0 0 0 1 0 0 0 1 60.144657734916223 33.251642251736449 11.872948063023509 1 rotate no_reflect no_shear #
lump $-1 $-1 $26 $2 #
transform $-1 1 0 0 0 1 0 0 0 1 60.144657734916223 33.251642251736449 11.872948063023509 1 rotate no_reflect no_shear #
lump $-1 $-1 $27 $3 #
transform $-1 1 0 0 0 1 0 0 0 1 60.144657734916223 33.251642251736449 11.872948063023509 1 rotate no_reflect no_shear #
lump $-1 $-1 $28 $4 #
transform $-1 1 0 0 0 1 0 0 0 1 60.144657734916223 33.251642251736449 11.872948063023509 1 rotate no_reflect no_shear #
lump $-1 $-1 $29 $5 #
transform $-1 1 0 0 0 1 0 0 0 1 60.144657734916223 33.251642251736449 11.872948063023509 1 rotate no_reflect no_shear #
lump $-1 $-1 $30 $6 #
transform $-1 1 0 0 0 1 0 0 0 1 60.144657734916223 33.251642251736449 11.872948063023509 1 rotate no_reflect no_shear #
lump $-1 $-1 $31 $7 #
transform $-1 1 0 0 0 1 0 0 0 1 60.144657734916223 33.251642251736449 11.872948063023509 1 rotate no_reflect no_shear #
shell $-1 $-1 $-1 $32 $-1 $8 #
shell $-1 $-1 $-1 $33 $-1 $10 #
shell $-1 $-1 $-1 $34 $-1 $12 #
shell $-1 $-1 $-1 $35 $-1 $14 #
shell $-1 $-1 $-1 $36 $-1 $16 #
shell $-1 $-1 $-1 $37 $-1 $18 #
shell $-1 $-1 $-1 $38 $-1 $20 #
shell $-1 $-1 $-1 $39 $-1 $22 #
face $-1 $40 $41 $24 $-1 $42 forward single #
face $-1 $43 $44 $25 $-1 $45 reversed single #
face $-1 $46 $47 $26 $-1 $48 reversed single #
face $-1 $49 $50 $27 $-1 $51 forward single #
face $-1 $52 $53 $28 $-1 $54 reversed single #
face $-1 $55 $56 $29 $-1 $57 forward single #
face $-1 $58 $59 $30 $-1 $60 reversed single #
face $-1 $61 $62 $31 $-1 $63 forward single #
face $-1 $64 $65 $24 $-1 $66 reversed single #
loop $-1 $-1 $67 $32 #
plane-surface $-1 0 0 11.872948063023509 0 0 1 1 0 0 forward_v I I I I #
face $-1 $68 $69 $25 $-1 $70 forward single #
loop $-1 $-1 $71 $33 #
plane-surface $-1 -47.466014539747064 0 9.8729480630235091 -1 0 0 0 0 1 forward_v I I I I #
face $-1 $72 $73 $26 $-1 $74 reversed single #
loop $-1 $-1 $75 $34 #
plane-surface $-1 -33.96484402505989 -33.251642251736442 3.1936872296914345 0 -0.74314483375859142 0.66913059716165679 1 0 0 forward_v I I I I #
face $-1 $76 $77 $27 $-1 $78 forward single #
loop $-1 $79 $80 $35 #
cone-surface $-1 -33.96484402505989 -27.517305899998028 5.8883554284808595 0 0.74314483375859142 -0.66913059716165679 1.5 0 0 1 I I 0 1 1.5 forward I I I I #
face $-1 $81 $82 $28 $-1 $83 reversed single #
loop $-1 $-1 $84 $36 #
plane-surface $-1 -6.3961569635872308 61.977869246670615 139.91980530265377 1 0 0 0 -0.6560590369687036 -0.75470957328743171 forward_v I I I I #
face $-1 $85 $86 $29 $-1 $87 forward single #
loop $-1 $88 $89 $37 #
cone-surface $-1 -0.028417683001322303 28.724551603227876 7.6944575870854512 0 -0.6560590369687036 -0.75470957328743171 1.5 0 0 1 I I 0 1 1.5 forward I I I I #
face $-1 $90 $91 $30 $-1 $92 reversed single #
loop $-1 $-1 $93 $38 #
plane-surface $-1 -0.028417683001322303 -16.939023218092238 49.136307353379266 0 0.6560590369687036 0.75470957328743171 1 0 0 forward_v I I I I #
face $-1 $94 $95 $31 $-1 $96 forward single #
loop $-1 $97 $98 $39 #
cone-surface $-1 12.707060878170481 28.724551603227876 7.6944575870854512 0 -0.6560590369687036 -0.75470957328743171 1.5 0 0 1 I I 0 1 1.5 forward I I I I #
face $-1 $99 $100 $24 $-1 $101 reversed single #
loop $-1 $-1 $102 $40 #
plane-surface $-1 0 0 -11.872948063023509 0 0 1 1 0 0 forward_v I I I I #
coedge $-1 $103 $104 $105 $106 forward $41 $-1 #
face $-1 $107 $108 $25 $-1 $109 reversed single #
loop $-1 $-1 $110 $43 #
plane-surface $-1 -53.805336137331643 0 11.372948063023509 0 0 1 1 0 0 forward_v I I I I #
coedge $-1 $111 $112 $113 $114 reversed $44 $-1 #
face $-1 $115 $116 $26 $-1 $117 reversed single #
loop $-1 $-1 $118 $46 #
plane-surface $-1 -20.463673510372718 -122.64402559949983 83.682948722187334 -1 0 0 0 -0.74314483375859142 0.66913059716165679 forward_v I I I I #
coedge $-1 $119 $120 $121 $122 reversed $47 $-1 #
face $-1 $-1 $123 $27 $-1 $124 forward single #
loop $-1 $125 $126 $49 #
cone-surface $-1 -33.96484402505989 -25.133031603615031 3.7415452627330055 0 0.74314483375859142 -0.66913059716165679 0.75 0 0 1 I I -0.70710678118654757 0.70710678118654757 0.75 forward I I I I #
loop $-1 $-1 $127 $35 #
coedge $-1 $80 $80 $128 $129 reversed $50 $-1 #
face $-1 $130 $131 $28 $-1 $132 reversed single #
loop $-1 $-1 $133 $52 #
plane-surface $-1 -0.028417683001322303 -16.939023218092238 49.136307353379266 0 0.6560590369687036 0.75470957328743171 1 0 0 forward_v I I I I #
coedge $-1 $134 $135 $136 $137 reversed $53 $-1 #
face $-1 $-1 $138 $29 $-1 $139 forward single #
loop $-1 $140 $141 $55 #
cone-surface $-1 -0.028417683001322303 27.367454232237023 6.1332956793060145 0 -0.6560590369687036 -0.75470957328743171 0.75 0 0 1 I I -0.70710678118654757 0.70710678118654757 0.75 forward I I I I #
loop $-1 $-1 $142 $37 #
coedge $-1 $89 $89 $143 $144 reversed $56 $-1 #
face $-1 $145 $146 $30 $-1 $147 forward single #
loop $-1 $-1 $148 $58 #
plane-surface $-1 19.074800158756389 61.977869246670615 139.91980530265377 -1 0 0 0 0.6560590369687036 0.75470957328743171 forward_v I I I I #
coedge $-1 $149 $150 $151 $152 reversed $59 $-1 #
face $-1 $-1 $153 $31 $-1 $154 forward single #
loop $-1 $155 $156 $61 #
cone-surface $-1 12.707060878170481 27.367454232237023 6.1332956793060145 0 -0.6560590369687036 -0.75470957328743171 0.75 0 0 1 I I -0.70710678118654757 0.70710678118654757 0.75 forward I I I I #
loop $-1 $-1 $157 $39 #
coedge $-1 $98 $98 $158 $159 reversed $62 $-1 #
face $-1 $160 $161 $24 $-1 $162 reversed single #
loop $-1 $-1 $163 $64 #
plane-surface $-1 0 -33.251642251736449 0 0 1 0 0 0 1 forward_v I I I I #
coedge $-1 $164 $165 $166 $167 forward $65 $-1 #
coedge $-1 $168 $67 $169 $170 forward $41 $-1 #
coedge $-1 $67 $168 $171 $172 forward $41 $-1 #
coedge $-1 $173 $174 $67 $106 reversed $175 $-1 #
edge $-1 $176 -33.251642251736449 $177 33.251642251736449 $105 $178 forward 7 unknown #
face $-1 $179 $180 $25 $-1 $181 reversed single #
loop $-1 $-1 $113 $68 #
plane-surface $-1 -53.805336137331643 0 8.3729480630235091 0 0 1 1 0 0 forward_v I I I I #
coedge $-1 $182 $183 $184 $185 forward $69 $-1 #
coedge $-1 $184 $71 $186 $187 reversed $44 $-1 #
coedge $-1 $71 $184 $188 $189 reversed $44 $-1 #
coedge $-1 $190 $191 $71 $114 forward $108 $-1 #
edge $-1 $192 -33.251642251736449 $193 33.251642251736449 $71 $194 forward 7 unknown #
face $-1 $195 $196 $26 $-1 $197 forward single #
loop $-1 $-1 $198 $72 #
plane-surface $-1 0 -33.251642251736449 0 0 1 0 0 0 1 forward_v I I I I #
coedge $-1 $199 $200 $201 $202 reversed $73 $-1 #
coedge $-1 $203 $75 $204 $205 forward $47 $-1 #
coedge $-1 $75 $203 $199 $206 forward $47 $-1 #
coedge $-1 $201 $198 $75 $122 forward $116 $-1 #
edge $-1 $207 -30.48359252721712 $208 -3.4812514978427735 $121 $209 forward 7 unknown #
loop $-1 $-1 $128 $76 #
plane-surface $-1 -33.96484402505989 -33.251642251736442 3.1936872296914345 0 -0.74314483375859142 0.66913059716165679 1 0 0 forward_v I I I I #
loop $-1 $-1 $210 $49 #
coedge $-1 $126 $126 $127 $211 reversed $77 $-1 #
coedge $-1 $127 $127 $126 $211 forward $79 $-1 #
coedge $-1 $128 $128 $80 $129 forward $123 $-1 #
edge $-1 $212 1.7601205441493813e-015 $212 6.2831853071796022 $128 $213 forward 7 unknown #
face $-1 $214 $215 $28 $-1 $216 forward single #
loop $-1 $-1 $217 $81 #
plane-surface $-1 6.3393215975845862 61.977869246670615 139.91980530265377 -1 0 0 0 0.6560590369687036 0.75470957328743171 forward_v I I I I #
coedge $-1 $218 $219 $220 $221 reversed $82 $-1 #
coedge $-1 $135 $84 $222 $223 reversed $53 $-1 #
coedge $-1 $84 $134 $218 $224 reversed $53 $-1 #
coedge $-1 $220 $225 $84 $137 forward $215 $-1 #
edge $-1 $226 -2.2627076284011416 $227 5.0613674820873449 $136 $228 forward 7 unknown #
loop $-1 $-1 $143 $85 #
plane-surface $-1 -0.028417683001322303 -16.939023218092238 49.136307353379266 0 0.6560590369687036 0.75470957328743171 1 0 0 forward_v I I I I #
loop $-1 $-1 $229 $55 #
coedge $-1 $141 $141 $142 $230 reversed $86 $-1 #
coedge $-1 $142 $142 $141 $230 forward $88 $-1 #
coedge $-1 $143 $143 $89 $144 forward $138 $-1 #
edge $-1 $231 -1.4778841911809012e-015 $231 6.2831853071795987 $143 $232 forward 7 unknown #
face $-1 $233 $234 $30 $-1 $235 forward single #
loop $-1 $-1 $236 $90 #
plane-surface $-1 0 0 11.872948063023509 0 0 1 1 0 0 forward_v I I I I #
coedge $-1 $237 $238 $239 $240 reversed $91 $-1 #
coedge $-1 $241 $93 $242 $243 reversed $59 $-1 #
coedge $-1 $93 $241 $236 $244 reversed $59 $-1 #
coedge $-1 $245 $246 $93 $152 forward $234 $-1 #
edge $-1 $247 -66.503284503472884 $248 -56.798789728634375 $151 $249 forward 7 unknown #
loop $-1 $-1 $158 $94 #
plane-surface $-1 -0.028417683001322303 -16.939023218092238 49.136307353379266 0 0.6560590369687036 0.75470957328743171 1 0 0 forward_v I I I I #
loop $-1 $-1 $250 $61 #
coedge $-1 $156 $156 $157 $251 reversed $95 $-1 #
coedge $-1 $157 $157 $156 $251 forward $97 $-1 #
coedge $-1 $158 $158 $98 $159 forward $153 $-1 #
edge $-1 $252 -1.4778841911809012e-015 $252 6.2831853071795987 $158 $253 forward 7 unknown #
face $-1 $254 $255 $24 $-1 $256 reversed single #
loop $-1 $-1 $257 $99 #
plane-surface $-1 -60.144657734916223 0 0 1 0 0 0 0 -1 forward_v I I I I #
coedge $-1 $258 $171 $259 $260 forward $100 $-1 #
coedge $-1 $261 $102 $258 $262 forward $65 $-1 #
coedge $-1 $102 $261 $263 $264 forward $65 $-1 #
coedge $-1 $174 $173 $102 $167 reversed $175 $-1 #
edge $-1 $265 -33.251642251736449 $266 33.251642251736449 $166 $267 forward 7 unknown #
coedge $-1 $104 $103 $268 $269 forward $41 $-1 #
coedge $-1 $270 $271 $103 $170 reversed $255 $-1 #
edge $-1 $177 -60.144657734916223 $272 60.144657734916223 $169 $273 forward 7 unknown #
coedge $-1 $163 $274 $104 $172 reversed $100 $-1 #
edge $-1 $275 -60.144657734916223 $176 60.144657734916223 $171 $276 forward 7 unknown #
coedge $-1 $166 $105 $274 $277 forward $175 $-1 #
coedge $-1 $105 $166 $270 $278 reversed $175 $-1 #
loop $-1 $-1 $173 $254 #
vertex $-1 $106 $279 #
vertex $-1 $106 $280 #
straight-curve $-1 60.144657734916223 0 11.872948063023509 0 1 0 I I #
face $-1 $281 $282 $25 $-1 $283 reversed single #
loop $-1 $-1 $284 $107 #
plane-surface $-1 0 -33.251642251736449 0 0 1 0 0 0 1 forward_v I I I I #
coedge $-1 $285 $110 $286 $287 reversed $69 $-1 #
coedge $-1 $110 $285 $288 $289 reversed $69 $-1 #
coedge $-1 $112 $111 $110 $185 reversed $44 $-1 #
edge $-1 $290 -33.251642251736449 $291 33.251642251736449 $184 $292 forward 7 unknown #
coedge $-1 $293 $286 $111 $187 forward $294 $-1 #
edge $-1 $291 -6.4364740315117546 $192 -3.4364740315117546 $186 $295 forward 7 unknown #
coedge $-1 $288 $284 $112 $189 forward $180 $-1 #
edge $-1 $193 3.4364740315117546 $290 6.4364740315117546 $188 $296 forward 7 unknown #
coedge $-1 $297 $113 $284 $298 reversed $108 $-1 #
coedge $-1 $113 $297 $293 $299 reversed $108 $-1 #
vertex $-1 $299 $300 #
vertex $-1 $298 $301 #
straight-curve $-1 -47.466014539747064 0 8.3729480630235091 0 -1 0 I I #
face $-1 $-1 $302 $26 $-1 $303 forward single #
loop $-1 $-1 $204 $115 #
plane-surface $-1 -47.466014539747064 0 9.8729480630235091 -1 0 0 0 0 1 forward_v I I I I #
coedge $-1 $121 $304 $305 $306 forward $116 $-1 #
coedge $-1 $200 $118 $120 $206 reversed $73 $-1 #
coedge $-1 $118 $199 $307 $308 reversed $73 $-1 #
coedge $-1 $304 $121 $118 $202 forward $116 $-1 #
edge $-1 $208 -38.647787131402239 $309 -29.968526298070159 $201 $310 forward 7 unknown #
coedge $-1 $120 $119 $311 $312 reversed $47 $-1 #
coedge $-1 $305 $313 $119 $205 reversed $196 $-1 #
edge $-1 $207 -1.0694865687384493e-014 $314 11.679097315976911 $204 $315 forward 7 unknown #
edge $-1 $316 -11.679097315976911 $208 1.0694865687384493e-014 $199 $317 forward 7 unknown #
vertex $-1 $122 $318 #
vertex $-1 $122 $319 #
straight-curve $-1 -16.982422012529945 -33.251642251736449 3.1936872296914216 1 0 0 I I #
coedge $-1 $210 $210 $-1 $320 reversed $125 $-1 #
edge $-1 $321 0 $321 6.2831853071796004 $126 $322 forward 7 unknown #
vertex $-1 $129 $323 #
ellipse-curve $-1 -33.96484402505989 -29.344221571062079 7.5333176463574674 0 -0.74314483375859142 0.66913059716165679 1.5 0 0 1 I I #
face $-1 $-1 $324 $28 $-1 $325 reversed single #
loop $-1 $-1 $136 $130 #
plane-surface $-1 0 0 11.872948063023509 0 0 1 1 0 0 forward_v I I I I #
coedge $-1 $326 $327 $328 $329 reversed $131 $-1 #
coedge $-1 $330 $133 $135 $224 forward $82 $-1 #
coedge $-1 $133 $330 $326 $331 forward $82 $-1 #
coedge $-1 $328 $136 $133 $221 forward $215 $-1 #
edge $-1 $227 -6.3819481220865697 $332 6.3535304390852474 $220 $333 forward 7 unknown #
coedge $-1 $334 $335 $134 $223 forward $324 $-1 #
edge $-1 $336 -64.453676084551745 $226 -58.086954588303378 $222 $337 forward 7 unknown #
edge $-1 $227 56.798789728634375 $336 66.503284503472884 $135 $338 forward 7 unknown #
coedge $-1 $136 $328 $334 $339 forward $215 $-1 #
vertex $-1 $223 $340 #
vertex $-1 $137 $341 #
straight-curve $-1 -6.3961569635872308 30.988934623335307 11.872948063023514 0 -1 0 I I #
coedge $-1 $229 $229 $-1 $342 reversed $140 $-1 #
edge $-1 $343 0 $343 6.2831853071796004 $141 $344 forward 7 unknown #
vertex $-1 $144 $345 #
ellipse-curve $-1 -0.028417683001322303 29.589604696492209 8.6895873148993221 0 0.6560590369687036 0.75470957328743171 1.5 0 0 1 I I #
face $-1 $-1 $346 $30 $-1 $347 reversed single #
loop $-1 $-1 $245 $145 #
plane-surface $-1 6.3393215975845862 61.977869246670615 139.91980530265377 -1 0 0 0 0.6560590369687036 0.75470957328743171 forward_v I I I I #
coedge $-1 $239 $348 $150 $244 forward $146 $-1 #
coedge $-1 $238 $148 $241 $349 reversed $91 $-1 #
coedge $-1 $148 $237 $350 $351 reversed $91 $-1 #
coedge $-1 $352 $236 $148 $240 forward $146 $-1 #
edge $-1 $353 -5.0613674820873449 $354 2.2627076284011416 $239 $355 forward 7 unknown #
coedge $-1 $150 $149 $237 $349 forward $59 $-1 #
coedge $-1 $356 $350 $149 $243 forward $346 $-1 #
edge $-1 $357 -19.08900900025705 $247 -6.3535304390852474 $242 $358 forward 7 unknown #
edge $-1 $248 6.3535304390852474 $353 19.08900900025705 $236 $359 forward 7 unknown #
coedge $-1 $246 $151 $348 $360 reversed $234 $-1 #
coedge $-1 $151 $245 $356 $361 reversed $234 $-1 #
vertex $-1 $243 $362 #
vertex $-1 $244 $363 #
straight-curve $-1 6.3393215975845862 -16.939023218092238 49.136307353379266 0 -0.75470957328743171 0.6560590369687036 I I #
coedge $-1 $250 $250 $-1 $364 reversed $155 $-1 #
edge $-1 $365 0 $365 6.2831853071796004 $156 $366 forward 7 unknown #
vertex $-1 $159 $367 #
ellipse-curve $-1 12.707060878170481 29.589604696492209 8.6895873148993221 0 0.6560590369687036 0.75470957328743171 1.5 0 0 1 I I #
face $-1 $-1 $175 $24 $-1 $368 reversed single #
loop $-1 $-1 $270 $160 #
plane-surface $-1 0 33.251642251736449 0 0 -1 0 0 0 -1 forward_v I I I I #
coedge $-1 $369 $268 $271 $370 forward $161 $-1 #
coedge $-1 $274 $163 $164 $262 reversed $100 $-1 #
coedge $-1 $268 $369 $163 $260 reversed $161 $-1 #
edge $-1 $275 -11.872948063023509 $371 11.872948063023509 $259 $372 forward 7 unknown #
coedge $-1 $165 $164 $369 $373 forward $65 $-1 #
edge $-1 $266 -60.144657734916223 $371 60.144657734916223 $258 $374 forward 7 unknown #
coedge $-1 $271 $270 $165 $264 reversed $255 $-1 #
edge $-1 $375 -60.144657734916223 $265 60.144657734916223 $263 $376 forward 7 unknown #
vertex $-1 $167 $377 #
vertex $-1 $277 $378 #
straight-curve $-1 60.144657734916223 0 -11.872948063023509 0 -1 0 I I #
coedge $-1 $257 $259 $168 $269 reversed $161 $-1 #
edge $-1 $272 -33.251642251736449 $275 33.251642251736449 $268 $379 forward 7 unknown #
coedge $-1 $263 $169 $174 $278 forward $255 $-1 #
coedge $-1 $169 $263 $257 $370 reversed $255 $-1 #
vertex $-1 $170 $380 #
straight-curve $-1 0 33.251642251736449 11.872948063023509 -1 0 0 I I #
coedge $-1 $171 $258 $173 $277 reversed $100 $-1 #
vertex $-1 $269 $381 #
straight-curve $-1 0 -33.251642251736449 11.872948063023509 1 0 0 I I #
edge $-1 $176 -11.872948063023509 $266 11.872948063023509 $173 $382 forward 7 unknown #
edge $-1 $177 -11.872948063023509 $265 11.872948063023509 $174 $383 forward 7 unknown #
point $-1 60.144657734916223 -33.251642251736449 11.872948063023509 #
point $-1 60.144657734916223 33.251642251736449 11.872948063023509 #
face $-1 $-1 $294 $25 $-1 $384 reversed single #
loop $-1 $-1 $385 $179 #
plane-surface $-1 -60.144657734916223 0 0 1 0 0 0 0 -1 forward_v I I I I #
coedge $-1 $188 $386 $190 $298 forward $180 $-1 #
coedge $-1 $183 $182 $387 $388 reversed $69 $-1 #
coedge $-1 $186 $389 $182 $287 forward $294 $-1 #
edge $-1 $390 -33.241989666250404 $291 -20.563346471081243 $286 $391 forward 7 unknown #
coedge $-1 $386 $188 $183 $289 forward $180 $-1 #
edge $-1 $290 20.563346471081243 $392 33.241989666250404 $288 $393 forward 7 unknown #
vertex $-1 $289 $394 #
vertex $-1 $287 $395 #
straight-curve $-1 -47.466014539747064 0 11.372948063023509 0 1 0 I I #
coedge $-1 $389 $186 $191 $299 forward $294 $-1 #
loop $-1 $-1 $293 $281 #
straight-curve $-1 -47.466014539747064 33.251642251736449 4.9364740315117546 0 0 -1 I I #
straight-curve $-1 -47.466014539747064 -33.251642251736449 4.9364740315117546 0 0 1 I I #
coedge $-1 $191 $190 $385 $396 reversed $108 $-1 #
edge $-1 $397 -33.241989666250404 $193 -20.563346471081243 $284 $398 forward 7 unknown #
edge $-1 $192 20.563346471081243 $399 33.241989666250404 $293 $400 forward 7 unknown #
point $-1 -47.466014539747064 33.251642251736449 8.3729480630235091 #
point $-1 -47.466014539747064 -33.251642251736449 8.3729480630235091 #
loop $-1 $-1 $401 $195 #
plane-surface $-1 0 0 11.872948063023509 0 0 1 1 0 0 forward_v I I I I #
coedge $-1 $198 $201 $402 $403 reversed $116 $-1 #
coedge $-1 $313 $204 $198 $306 reversed $196 $-1 #
edge $-1 $404 29.968526298070159 $207 38.647787131402239 $198 $405 forward 7 unknown #
coedge $-1 $311 $402 $200 $308 forward $302 $-1 #
edge $-1 $309 28.070370548013464 $316 35.885211909362205 $307 $406 forward 7 unknown #
vertex $-1 $202 $407 #
straight-curve $-1 -20.463673510372718 -33.251642251736449 41.841474361093667 0 0 1 I I #
coedge $-1 $401 $307 $203 $312 forward $302 $-1 #
edge $-1 $316 3.4812514978427735 $314 30.48359252721712 $311 $408 forward 7 unknown #
coedge $-1 $204 $305 $401 $409 reversed $196 $-1 #
vertex $-1 $409 $410 #
straight-curve $-1 -47.466014539747064 -33.251642251736442 3.1936872296914345 0 0.66913059716165679 0.74314483375859142 I I #
vertex $-1 $312 $411 #
straight-curve $-1 -20.463673510372718 -33.251642251736442 3.1936872296914345 0 -0.66913059716165679 -0.74314483375859142 I I #
point $-1 -47.466014539747064 -33.251642251736449 3.1936872296914265 #
point $-1 -20.463673510372718 -33.251642251736449 3.1936872296914265 #
edge $-1 $412 1 $412 0 $210 $-1 forward 7 unknown #
vertex $-1 $211 $413 #
ellipse-curve $-1 -33.96484402505989 -25.690390228933975 4.243393210604248 0 -0.74314483375859142 0.66913059716165679 1.5 0 0 1 I I #
point $-1 -32.46484402505989 -29.344221571062079 7.5333176463574709 #
loop $-1 $-1 $222 $214 #
plane-surface $-1 0 33.251642251736449 0 0 -1 0 0 0 -1 forward_v I I I I #
coedge $-1 $327 $217 $219 $331 reversed $131 $-1 #
coedge $-1 $217 $326 $414 $415 reversed $131 $-1 #
coedge $-1 $225 $220 $217 $329 forward $215 $-1 #
edge $-1 $332 -5.0613674820873449 $416 2.2627076284011416 $328 $417 forward 7 unknown #
coedge $-1 $219 $218 $335 $418 reversed $82 $-1 #
edge $-1 $419 -66.503284503472884 $332 -56.798789728634375 $326 $420 forward 7 unknown #
vertex $-1 $221 $421 #
straight-curve $-1 -0.014208841500661151 25.927567141247962 11.872948063023511 1 0 0 I I #
coedge $-1 $414 $222 $225 $339 reversed $324 $-1 #
coedge $-1 $222 $414 $330 $418 forward $324 $-1 #
vertex $-1 $223 $422 #
straight-curve $-1 -6.3961569635872308 33.251642251736449 69.959902651326885 0 0 1 I I #
straight-curve $-1 -6.3961569635872308 -16.939023218092238 49.136307353379266 0 0.75470957328743171 -0.6560590369687036 I I #
edge $-1 $416 -6.3393215975845862 $226 6.3961569635872308 $334 $423 forward 7 unknown #
point $-1 -6.3961569635872308 33.251642251736449 11.872948063023509 #
point $-1 -6.3961569635872308 25.927567141247962 11.872948063023507 #
edge $-1 $424 1 $424 0 $229 $-1 forward 7 unknown #
vertex $-1 $230 $425 #
ellipse-curve $-1 -0.028417683001322303 27.859498509963551 6.6993278592715884 0 0.6560590369687036 0.75470957328743171 1.5 0 0 1 I I #
point $-1 1.4715823169986777 29.589604696492199 8.6895873148993132 #
loop $-1 $-1 $242 $233 #
plane-surface $-1 0 33.251642251736449 0 0 -1 0 0 0 -1 forward_v I I I I #
coedge $-1 $236 $352 $245 $360 forward $146 $-1 #
edge $-1 $357 -66.503284503472884 $353 -56.798789728634375 $237 $426 forward 7 unknown #
coedge $-1 $242 $427 $238 $351 forward $346 $-1 #
edge $-1 $354 58.086954588303378 $357 64.453676084551745 $350 $428 forward 7 unknown #
coedge $-1 $348 $239 $427 $429 forward $146 $-1 #
vertex $-1 $240 $430 #
vertex $-1 $429 $431 #
straight-curve $-1 19.074800158756389 30.988934623335307 11.872948063023514 0 1 0 I I #
coedge $-1 $427 $242 $246 $361 forward $346 $-1 #
vertex $-1 $351 $432 #
straight-curve $-1 -0.014208841500661151 33.251642251736449 5.5062265667751404 -1 0 0 I I #
straight-curve $-1 -0.014208841500661151 25.927567141247962 11.872948063023511 1 0 0 I I #
edge $-1 $433 -2.2627076284011416 $248 5.0613674820873449 $348 $434 forward 7 unknown #
edge $-1 $247 -64.453676084551745 $433 -58.086954588303378 $356 $435 forward 7 unknown #
point $-1 6.3393215975845862 33.251642251736449 5.5062265667751333 #
point $-1 6.3393215975845862 25.927567141247962 11.872948063023507 #
edge $-1 $436 1 $436 0 $250 $-1 forward 7 unknown #
vertex $-1 $251 $437 #
ellipse-curve $-1 12.707060878170481 27.859498509963551 6.6993278592715884 0 0.6560590369687036 0.75470957328743171 1.5 0 0 1 I I #
point $-1 14.207060878170481 29.589604696492199 8.6895873148993132 #
plane-surface $-1 60.144657734916223 0 0 -1 0 0 0 0 1 forward_v I I I I #
coedge $-1 $259 $257 $261 $373 reversed $161 $-1 #
edge $-1 $272 -11.872948063023509 $375 11.872948063023509 $271 $438 forward 7 unknown #
vertex $-1 $373 $439 #
straight-curve $-1 -60.144657734916223 -33.251642251736449 0 0 0 -1 I I #
edge $-1 $371 -33.251642251736449 $375 33.251642251736449 $369 $440 forward 7 unknown #
straight-curve $-1 0 -33.251642251736449 -11.872948063023509 -1 0 0 I I #
vertex $-1 $264 $441 #
straight-curve $-1 0 33.251642251736449 -11.872948063023509 1 0 0 I I #
point $-1 60.144657734916223 33.251642251736449 -11.872948063023509 #
point $-1 60.144657734916223 -33.251642251736449 -11.872948063023509 #
straight-curve $-1 -60.144657734916223 0 11.872948063023509 0 -1 0 I I #
point $-1 -60.144657734916223 33.251642251736449 11.872948063023509 #
point $-1 -60.144657734916223 -33.251642251736449 11.872948063023509 #
straight-curve $-1 60.144657734916223 -33.251642251736449 0 0 0 -1 I I #
straight-curve $-1 60.144657734916223 33.251642251736449 0 0 0 -1 I I #
plane-surface $-1 0 33.251642251736449 0 0 -1 0 0 0 -1 forward_v I I I I #
coedge $-1 $442 $443 $297 $396 forward $282 $-1 #
coedge $-1 $284 $288 $442 $444 forward $180 $-1 #
coedge $-1 $443 $442 $285 $388 forward $282 $-1 #
edge $-1 $392 -33.251642251736449 $390 33.251642251736449 $387 $445 forward 7 unknown #
coedge $-1 $286 $293 $443 $446 reversed $294 $-1 #
vertex $-1 $446 $447 #
straight-curve $-1 -26.902668068665822 33.251642251736449 11.372948063023509 1 0 0 I I #
vertex $-1 $444 $448 #
straight-curve $-1 -26.902668068665822 -33.251642251736449 11.372948063023509 -1 0 0 I I #
point $-1 -47.466014539747064 -33.251642251736449 11.372948063023509 #
point $-1 -47.466014539747064 33.251642251736449 11.372948063023509 #
edge $-1 $399 -33.251642251736449 $397 33.251642251736449 $385 $449 forward 7 unknown #
vertex $-1 $298 $450 #
straight-curve $-1 -26.902668068665822 -33.251642251736449 8.3729480630235091 1 0 0 I I #
vertex $-1 $299 $451 #
straight-curve $-1 -26.902668068665822 33.251642251736449 8.3729480630235091 -1 0 0 I I #
coedge $-1 $402 $311 $313 $409 forward $302 $-1 #
coedge $-1 $307 $401 $304 $403 forward $302 $-1 #
edge $-1 $404 -47.466014539747064 $309 -20.463673510372718 $304 $452 forward 7 unknown #
vertex $-1 $403 $453 #
straight-curve $-1 -47.466014539747064 -33.251642251736449 41.841474361093667 0 0 -1 I I #
straight-curve $-1 -20.463673510372718 -61.322012799749913 11.872948063023507 0 1 0 I I #
point $-1 -20.463673510372718 -33.251642251736449 11.872948063023509 #
straight-curve $-1 -16.982422012529945 -25.436800890387705 11.872948063023509 -1 0 0 I I #
edge $-1 $314 -35.885211909362205 $404 -28.070370548013464 $401 $454 forward 7 unknown #
point $-1 -47.466014539747064 -25.436800890387708 11.872948063023509 #
point $-1 -20.463673510372718 -25.436800890387708 11.872948063023509 #
vertex $-1 $320 $455 #
point $-1 -32.46484402505989 -25.690390228933975 4.243393210604248 #
coedge $-1 $335 $334 $327 $415 forward $324 $-1 #
edge $-1 $416 58.086954588303378 $419 64.453676084551745 $414 $456 forward 7 unknown #
vertex $-1 $339 $457 #
straight-curve $-1 6.3393215975845862 30.988934623335307 11.872948063023514 0 1 0 I I #
edge $-1 $419 -6.3535304390852474 $336 6.3819481220865697 $335 $458 forward 7 unknown #
vertex $-1 $418 $459 #
straight-curve $-1 6.3393215975845862 -16.939023218092238 49.136307353379266 0 -0.75470957328743171 0.6560590369687036 I I #
point $-1 6.3393215975845862 25.927567141247962 11.872948063023507 #
point $-1 -6.3961569635872308 33.251642251736449 5.5062265667751333 #
straight-curve $-1 0 33.251642251736449 11.872948063023509 -1 0 0 I I #
vertex $-1 $342 $460 #
point $-1 1.4715823169986777 27.859498509963551 6.6993278592715884 #
straight-curve $-1 19.074800158756389 -16.939023218092238 49.136307353379266 0 -0.75470957328743171 0.6560590369687036 I I #
coedge $-1 $350 $356 $352 $429 reversed $346 $-1 #
straight-curve $-1 19.074800158756389 33.251642251736449 69.959902651326885 0 0 -1 I I #
edge $-1 $354 -19.074800158756389 $433 -6.3393215975845862 $427 $461 forward 7 unknown #
point $-1 19.074800158756389 25.927567141247962 11.872948063023507 #
point $-1 19.074800158756389 33.251642251736449 11.872948063023509 #
point $-1 19.074800158756389 33.251642251736449 5.5062265667751333 #
vertex $-1 $361 $462 #
straight-curve $-1 6.3393215975845862 30.988934623335307 11.872948063023514 0 -1 0 I I #
straight-curve $-1 6.3393215975845862 33.251642251736449 69.959902651326885 0 0 1 I I #
vertex $-1 $364 $463 #
point $-1 14.207060878170481 27.859498509963551 6.6993278592715884 #
straight-curve $-1 -60.144657734916223 33.251642251736449 0 0 0 -1 I I #
point $-1 -60.144657734916223 -33.251642251736449 -11.872948063023509 #
straight-curve $-1 -60.144657734916223 0 -11.872948063023509 0 1 0 I I #
point $-1 -60.144657734916223 33.251642251736449 -11.872948063023509 #
coedge $-1 $387 $385 $386 $444 reversed $282 $-1 #
coedge $-1 $385 $387 $389 $446 forward $282 $-1 #
edge $-1 $392 -11.372948063023509 $397 -8.3729480630235091 $442 $464 forward 7 unknown #
straight-curve $-1 -60.144657734916223 0 11.372948063023509 0 1 0 I I #
edge $-1 $390 -11.372948063023509 $399 -8.3729480630235091 $389 $465 forward 7 unknown #
point $-1 -60.144657734916223 33.251642251736449 11.372948063023509 #
point $-1 -60.144657734916223 -33.251642251736449 11.372948063023509 #
straight-curve $-1 -60.144657734916223 0 8.3729480630235091 0 -1 0 I I #
point $-1 -60.144657734916223 -33.251642251736449 8.3729480630235091 #
point $-1 -60.144657734916223 33.251642251736449 8.3729480630235091 #
straight-curve $-1 0 -33.251642251736449 11.872948063023509 1 0 0 I I #
point $-1 -47.466014539747064 -33.251642251736449 11.872948063023509 #
straight-curve $-1 -47.466014539747064 -61.322012799749913 11.872948063023507 0 -1 0 I I #
point $-1 -33.96484402505989 -24.575672978296087 3.2396973148617629 #
straight-curve $-1 6.3393215975845862 33.251642251736449 69.959902651326885 0 0 -1 I I #
point $-1 6.3393215975845862 33.251642251736449 11.872948063023509 #
straight-curve $-1 -0.014208841500661151 33.251642251736449 5.5062265667751404 -1 0 0 I I #
point $-1 6.3393215975845862 33.251642251736449 5.5062265667751333 #
point $-1 -0.028417683001322303 26.875409954510495 5.5672634993404406 #
straight-curve $-1 0 33.251642251736449 11.872948063023509 -1 0 0 I I #
point $-1 6.3393215975845862 33.251642251736449 11.872948063023509 #
point $-1 12.707060878170481 26.875409954510495 5.5672634993404406 #
straight-curve $-1 -60.144657734916223 -33.251642251736449 0 0 0 -1 I I #
straight-curve $-1 -60.144657734916223 33.251642251736449 0 0 0 -1 I I #
End-of-ACIS-data 