500 0 9 0           
7 Unknown 11 ACIS 5.0 NT 24 Fri Mar 26 18:55:16 1999 
-1 9.9999999999999995e-007 1e-010 
body $-1 $9 $-1 $10 #
body $-1 $11 $-1 $12 #
body $-1 $13 $-1 $14 #
body $-1 $15 $-1 $16 #
body $-1 $17 $-1 $18 #
body $-1 $19 $-1 $20 #
body $-1 $21 $-1 $22 #
body $-1 $23 $-1 $24 #
body $-1 $25 $-1 $26 #
lump $-1 $-1 $27 $0 #
transform $-1 1 0 0 0 1 0 0 0 1 53.48551896725364 29.754186649454827 13.249135140421782 1 rotate no_reflect no_shear #
lump $-1 $-1 $28 $1 #
transform $-1 1 0 0 0 1 0 0 0 1 53.48551896725364 29.754186649454827 13.249135140421782 1 rotate no_reflect no_shear #
lump $-1 $-1 $29 $2 #
transform $-1 1 0 0 0 1 0 0 0 1 53.48551896725364 29.754186649454827 13.249135140421782 1 rotate no_reflect no_shear #
lump $-1 $-1 $30 $3 #
transform $-1 1 0 0 0 1 0 0 0 1 53.48551896725364 29.754186649454827 13.249135140421782 1 rotate no_reflect no_shear #
lump $-1 $-1 $31 $4 #
transform $-1 1 0 0 0 1 0 0 0 1 53.48551896725364 29.754186649454827 13.249135140421782 1 rotate no_reflect no_shear #
lump $-1 $-1 $32 $5 #
transform $-1 1 0 0 0 1 0 0 0 1 53.48551896725364 29.754186649454827 13.249135140421782 1 rotate no_reflect no_shear #
lump $-1 $-1 $33 $6 #
transform $-1 1 0 0 0 1 0 0 0 1 53.48551896725364 29.754186649454827 13.249135140421782 1 rotate no_reflect no_shear #
lump $-1 $-1 $34 $7 #
transform $-1 1 0 0 0 1 0 0 0 1 53.48551896725364 29.754186649454827 13.249135140421782 1 rotate no_reflect no_shear #
lump $-1 $-1 $35 $8 #
transform $-1 1 0 0 0 1 0 0 0 1 53.48551896725364 29.754186649454827 13.249135140421782 1 rotate no_reflect no_shear #
shell $-1 $-1 $-1 $36 $-1 $9 #
shell $-1 $-1 $-1 $37 $-1 $11 #
shell $-1 $-1 $-1 $38 $-1 $13 #
shell $-1 $-1 $-1 $39 $-1 $15 #
shell $-1 $-1 $-1 $40 $-1 $17 #
shell $-1 $-1 $-1 $41 $-1 $19 #
shell $-1 $-1 $-1 $42 $-1 $21 #
shell $-1 $-1 $-1 $43 $-1 $23 #
shell $-1 $-1 $-1 $44 $-1 $25 #
face $-1 $45 $46 $27 $-1 $47 forward single #
face $-1 $48 $49 $28 $-1 $50 reversed single #
face $-1 $51 $52 $29 $-1 $53 reversed single #
face $-1 $54 $55 $30 $-1 $56 reversed single #
face $-1 $57 $58 $31 $-1 $59 forward single #
face $-1 $60 $61 $32 $-1 $62 forward single #
face $-1 $63 $64 $33 $-1 $65 reversed single #
face $-1 $66 $67 $34 $-1 $68 forward single #
face $-1 $69 $70 $35 $-1 $71 forward single #
face $-1 $72 $73 $27 $-1 $74 reversed single #
loop $-1 $-1 $75 $36 #
plane-surface $-1 0 0 13.249135140421782 0 0 1 1 0 0 forward_v I I I I #
face $-1 $76 $77 $28 $-1 $78 reversed single #
loop $-1 $-1 $79 $37 #
plane-surface $-1 -46.760205081799135 -23.272473763685934 0 0 -1 0 0 0 -1 forward_v I I I I #
face $-1 $80 $81 $29 $-1 $82 reversed single #
loop $-1 $-1 $83 $38 #
plane-surface $-1 40.034891196344624 -26.51333020657038 0 1 0 0 0 0 -1 forward_v I I I I #
face $-1 $84 $85 $30 $-1 $86 reversed single #
loop $-1 $-1 $87 $39 #
plane-surface $-1 13.604346837770642 52.927786984010396 122.20235109804345 1 0 0 0 -0.64278761758704617 -0.76604443648966558 forward_v I I I I #
face $-1 $88 $89 $31 $-1 $90 forward single #
loop $-1 $91 $92 $40 #
cone-surface $-1 19.277223319556043 20.747484435821406 4.8778658882594268 0 -0.64278761758704617 -0.76604443648966558 2 0 0 1 I I 0 1 2 forward I I I I #
face $-1 $93 $94 $32 $-1 $95 forward single #
loop $-1 $96 $97 $41 #
cone-surface $-1 27.786538042234142 20.747484435821406 4.8778658882594268 0 -0.64278761758704617 -0.76604443648966558 2 0 0 1 I I 0 1 2 forward I I I I #
face $-1 $98 $99 $33 $-1 $100 reversed single #
loop $-1 $-1 $101 $42 #
plane-surface $-1 22.990464206774426 -105.3941338411247 85.116180618608766 1 0 0 0 0.70710678939079041 -0.70710677298230451 forward_v I I I I #
face $-1 $102 $103 $34 $-1 $104 forward single #
loop $-1 $105 $106 $43 #
cone-surface $-1 27.860300489508774 -26.996655470562619 10.491603937967838 0 0.70710678939079041 -0.70710677298230451 1 0 0 1 I I 0 1 1 forward I I I I #
face $-1 $107 $108 $35 $-1 $109 forward single #
loop $-1 $110 $111 $44 #
cone-surface $-1 35.165054913610291 -26.996655470562619 10.491603937967838 0 0.70710678939079041 -0.70710677298230451 1 0 0 1 I I 0 1 1 forward I I I I #
face $-1 $112 $113 $27 $-1 $114 reversed single #
loop $-1 $-1 $115 $45 #
plane-surface $-1 0 0 -13.249135140421782 0 0 1 1 0 0 forward_v I I I I #
coedge $-1 $116 $117 $118 $119 forward $46 $-1 #
face $-1 $120 $121 $28 $-1 $122 forward single #
loop $-1 $-1 $123 $48 #
plane-surface $-1 -40.034891196344631 -26.51333020657038 0 -1 0 0 0 0 1 forward_v I I I I #
coedge $-1 $124 $125 $126 $127 forward $49 $-1 #
face $-1 $128 $129 $29 $-1 $130 forward single #
loop $-1 $-1 $131 $51 #
plane-surface $-1 46.760205081799128 -23.272473763685934 0 0 -1 0 0 0 -1 forward_v I I I I #
coedge $-1 $132 $133 $134 $135 reversed $52 $-1 #
face $-1 $136 $137 $30 $-1 $138 reversed single #
loop $-1 $-1 $139 $54 #
plane-surface $-1 23.5318806808951 -15.831871640725083 40.257782622789179 0 0.64278761758704617 0.76604443648966558 1 0 0 forward_v I I I I #
coedge $-1 $140 $141 $142 $143 reversed $55 $-1 #
face $-1 $-1 $144 $31 $-1 $145 forward single #
loop $-1 $146 $147 $57 #
cone-surface $-1 19.277223319556043 17.797197752664456 1.3618512080670619 0 -0.64278761758704617 -0.76604443648966558 1 0 0 1 I I -0.70710678118654746 0.70710678118654746 1 forward I I I I #
loop $-1 $-1 $148 $40 #
coedge $-1 $92 $92 $149 $150 reversed $58 $-1 #
face $-1 $-1 $151 $32 $-1 $152 forward single #
loop $-1 $153 $154 $60 #
cone-surface $-1 27.786538042234142 17.797197752664456 1.3618512080670619 0 -0.64278761758704617 -0.76604443648966558 1 0 0 1 I I -0.70710678118654746 0.70710678118654746 1 forward I I I I #
loop $-1 $-1 $155 $41 #
coedge $-1 $97 $97 $156 $157 reversed $61 $-1 #
face $-1 $158 $159 $33 $-1 $160 forward single #
loop $-1 $-1 $161 $63 #
plane-surface $-1 31.512677701559525 -29.754186649454809 9.4762351821716493 0 -0.70710678939079041 0.70710677298230451 1 0 0 forward_v I I I I #
coedge $-1 $162 $163 $164 $165 reversed $64 $-1 #
face $-1 $-1 $166 $34 $-1 $167 forward single #
loop $-1 $168 $169 $66 #
cone-surface $-1 27.860300489508774 -25.77202083232482 9.2669693281478125 0 0.70710678939079041 -0.70710677298230451 0.5 0 0 1 I I -0.70710678118654746 0.70710678118654746 0.5 forward I I I I #
loop $-1 $-1 $170 $43 #
coedge $-1 $106 $106 $171 $172 reversed $67 $-1 #
face $-1 $-1 $173 $35 $-1 $174 forward single #
loop $-1 $175 $176 $69 #
cone-surface $-1 35.165054913610291 -25.77202083232482 9.2669693281478125 0 0.70710678939079041 -0.70710677298230451 0.5 0 0 1 I I -0.70710678118654746 0.70710678118654746 0.5 forward I I I I #
loop $-1 $-1 $177 $44 #
coedge $-1 $111 $111 $178 $179 reversed $70 $-1 #
face $-1 $180 $181 $27 $-1 $182 reversed single #
loop $-1 $-1 $183 $72 #
plane-surface $-1 0 -29.754186649454827 0 0 1 0 0 0 1 forward_v I I I I #
coedge $-1 $184 $185 $186 $187 forward $73 $-1 #
coedge $-1 $188 $75 $189 $190 forward $46 $-1 #
coedge $-1 $75 $188 $191 $192 forward $46 $-1 #
coedge $-1 $193 $194 $75 $119 reversed $195 $-1 #
edge $-1 $196 -29.754186649454827 $197 29.754186649454827 $118 $198 forward 7 unknown #
face $-1 $199 $200 $28 $-1 $201 reversed single #
loop $-1 $-1 $202 $76 #
plane-surface $-1 0 0 13.249135140421782 0 0 1 1 0 0 forward_v I I I I #
coedge $-1 $203 $204 $205 $206 reversed $77 $-1 #
coedge $-1 $207 $79 $208 $209 reversed $49 $-1 #
coedge $-1 $79 $207 $210 $211 reversed $49 $-1 #
coedge $-1 $204 $203 $79 $127 reversed $77 $-1 #
edge $-1 $212 -13.249135140421782 $213 13.249135140421782 $126 $214 forward 7 unknown #
face $-1 $215 $216 $29 $-1 $217 reversed single #
loop $-1 $-1 $218 $80 #
plane-surface $-1 0 0 13.249135140421782 0 0 1 1 0 0 forward_v I I I I #
coedge $-1 $219 $220 $221 $222 reversed $81 $-1 #
coedge $-1 $223 $83 $224 $225 forward $52 $-1 #
coedge $-1 $83 $223 $226 $227 reversed $52 $-1 #
coedge $-1 $228 $218 $83 $135 forward $129 $-1 #
edge $-1 $229 10.015808660400744 $230 16.497521546169637 $134 $231 forward 7 unknown #
face $-1 $232 $233 $30 $-1 $234 reversed single #
loop $-1 $-1 $235 $84 #
plane-surface $-1 33.459414524019557 52.927786984010396 122.20235109804345 -1 0 0 0 0.64278761758704617 0.76604443648966558 forward_v I I I I #
coedge $-1 $236 $237 $238 $239 reversed $85 $-1 #
coedge $-1 $141 $87 $240 $241 reversed $55 $-1 #
coedge $-1 $87 $140 $236 $242 reversed $55 $-1 #
coedge $-1 $238 $243 $87 $143 forward $244 $-1 #
edge $-1 $245 -3.2902931574496286 $246 10.108113138677446 $142 $247 forward 7 unknown #
loop $-1 $-1 $149 $88 #
plane-surface $-1 23.5318806808951 -15.831871640725083 40.257782622789179 0 0.64278761758704617 0.76604443648966558 1 0 0 forward_v I I I I #
loop $-1 $-1 $248 $57 #
coedge $-1 $147 $147 $148 $249 reversed $89 $-1 #
coedge $-1 $148 $148 $147 $249 forward $91 $-1 #
coedge $-1 $149 $149 $92 $150 forward $144 $-1 #
edge $-1 $250 1.0947404663019302e-015 $250 6.2831853071796013 $149 $251 forward 7 unknown #
loop $-1 $-1 $156 $93 #
plane-surface $-1 23.5318806808951 -15.831871640725083 40.257782622789179 0 0.64278761758704617 0.76604443648966558 1 0 0 forward_v I I I I #
loop $-1 $-1 $252 $60 #
coedge $-1 $154 $154 $155 $253 reversed $94 $-1 #
coedge $-1 $155 $155 $154 $253 forward $96 $-1 #
coedge $-1 $156 $156 $97 $157 forward $151 $-1 #
edge $-1 $254 1.0947404663019302e-015 $254 6.2831853071796013 $156 $255 forward 7 unknown #
face $-1 $256 $257 $33 $-1 $258 reversed single #
loop $-1 $-1 $259 $98 #
plane-surface $-1 0 0 13.249135140421782 0 0 1 1 0 0 forward_v I I I I #
coedge $-1 $260 $261 $262 $263 reversed $99 $-1 #
coedge $-1 $163 $101 $264 $265 reversed $64 $-1 #
coedge $-1 $101 $162 $260 $266 reversed $64 $-1 #
coedge $-1 $262 $267 $101 $165 forward $257 $-1 #
edge $-1 $268 29.308955168882601 $269 33.081855127132755 $164 $270 forward 7 unknown #
loop $-1 $-1 $171 $102 #
plane-surface $-1 31.512677701559525 -29.754186649454809 9.4762351821716493 0 -0.70710678939079041 0.70710677298230451 1 0 0 forward_v I I I I #
loop $-1 $-1 $271 $66 #
coedge $-1 $169 $169 $170 $272 reversed $103 $-1 #
coedge $-1 $170 $170 $169 $272 forward $105 $-1 #
coedge $-1 $171 $171 $106 $172 forward $166 $-1 #
edge $-1 $273 1.1658930398033448e-022 $273 6.2831853071796004 $171 $274 forward 7 unknown #
loop $-1 $-1 $178 $107 #
plane-surface $-1 31.512677701559525 -29.754186649454809 9.4762351821716493 0 -0.70710678939079041 0.70710677298230451 1 0 0 forward_v I I I I #
loop $-1 $-1 $275 $69 #
coedge $-1 $176 $176 $177 $276 reversed $108 $-1 #
coedge $-1 $177 $177 $176 $276 forward $110 $-1 #
coedge $-1 $178 $178 $111 $179 forward $173 $-1 #
edge $-1 $277 1.1658930398033448e-022 $277 6.2831853071796004 $178 $278 forward 7 unknown #
face $-1 $279 $280 $27 $-1 $281 reversed single #
loop $-1 $-1 $282 $112 #
plane-surface $-1 -53.48551896725364 0 0 1 0 0 0 0 -1 forward_v I I I I #
coedge $-1 $283 $191 $284 $285 forward $113 $-1 #
coedge $-1 $286 $115 $283 $287 forward $73 $-1 #
coedge $-1 $115 $286 $288 $289 forward $73 $-1 #
coedge $-1 $194 $193 $115 $187 reversed $195 $-1 #
edge $-1 $290 -29.754186649454827 $291 29.754186649454827 $186 $292 forward 7 unknown #
coedge $-1 $117 $116 $293 $294 forward $46 $-1 #
coedge $-1 $295 $296 $116 $190 reversed $280 $-1 #
edge $-1 $197 -53.48551896725364 $297 53.48551896725364 $189 $298 forward 7 unknown #
coedge $-1 $183 $299 $117 $192 reversed $113 $-1 #
edge $-1 $300 -53.48551896725364 $196 53.48551896725364 $191 $301 forward 7 unknown #
coedge $-1 $186 $118 $299 $302 forward $195 $-1 #
coedge $-1 $118 $186 $295 $303 reversed $195 $-1 #
loop $-1 $-1 $193 $279 #
vertex $-1 $119 $304 #
vertex $-1 $119 $305 #
straight-curve $-1 53.48551896725364 0 13.249135140421782 0 1 0 I I #
face $-1 $306 $307 $28 $-1 $308 reversed single #
loop $-1 $-1 $309 $120 #
plane-surface $-1 -53.48551896725364 0 0 1 0 0 0 0 -1 forward_v I I I I #
coedge $-1 $210 $310 $204 $311 forward $121 $-1 #
coedge $-1 $126 $123 $312 $313 reversed $77 $-1 #
coedge $-1 $123 $126 $202 $311 reversed $77 $-1 #
coedge $-1 $314 $315 $123 $206 forward $316 $-1 #
edge $-1 $317 -13.249135140421782 $318 13.249135140421782 $205 $319 forward 7 unknown #
coedge $-1 $125 $124 $309 $320 reversed $49 $-1 #
coedge $-1 $312 $321 $124 $209 forward $307 $-1 #
edge $-1 $322 -30.105416426354072 $213 -16.654788655445063 $208 $323 forward 7 unknown #
coedge $-1 $324 $202 $125 $211 forward $121 $-1 #
edge $-1 $212 16.654788655445063 $325 30.105416426354072 $210 $326 forward 7 unknown #
vertex $-1 $211 $327 #
vertex $-1 $209 $328 #
straight-curve $-1 -40.034891196344631 -23.272473763685934 0 0 0 -1 I I #
face $-1 $329 $330 $29 $-1 $331 reversed single #
loop $-1 $-1 $226 $128 #
plane-surface $-1 0 -29.754186649454827 0 0 1 0 0 0 1 forward_v I I I I #
coedge $-1 $134 $332 $220 $333 forward $129 $-1 #
coedge $-1 $224 $131 $334 $335 reversed $81 $-1 #
coedge $-1 $131 $224 $218 $333 reversed $81 $-1 #
coedge $-1 $336 $337 $131 $222 forward $338 $-1 #
edge $-1 $339 -13.249135140421782 $340 13.249135140421782 $221 $341 forward 7 unknown #
coedge $-1 $133 $132 $342 $343 reversed $52 $-1 #
coedge $-1 $220 $219 $132 $225 reversed $81 $-1 #
edge $-1 $229 -13.249135140421782 $344 13.249135140421782 $224 $345 forward 7 unknown #
coedge $-1 $346 $347 $133 $227 forward $216 $-1 #
edge $-1 $230 -13.249135140421782 $348 13.249135140421782 $226 $349 forward 7 unknown #
coedge $-1 $332 $134 $347 $350 forward $129 $-1 #
vertex $-1 $135 $351 #
vertex $-1 $350 $352 #
straight-curve $-1 40.034891196344624 -13.25666510328519 13.249135140421782 0 -1 0 I I #
face $-1 $-1 $244 $30 $-1 $353 forward single #
loop $-1 $-1 $354 $136 #
plane-surface $-1 0 29.754186649454827 0 0 -1 0 0 0 -1 forward_v I I I I #
coedge $-1 $355 $356 $357 $358 reversed $137 $-1 #
coedge $-1 $359 $139 $141 $242 forward $85 $-1 #
coedge $-1 $139 $359 $355 $360 forward $85 $-1 #
coedge $-1 $357 $142 $139 $239 forward $244 $-1 #
edge $-1 $246 1.838406497323092 $361 21.693474183572008 $238 $362 forward 7 unknown #
coedge $-1 $363 $364 $140 $241 forward $233 $-1 #
edge $-1 $365 -59.094638425519271 $245 -47.852040408599947 $240 $366 forward 7 unknown #
edge $-1 $246 42.017995903148972 $365 59.508373298909646 $141 $367 forward 7 unknown #
coedge $-1 $142 $357 $363 $368 forward $244 $-1 #
loop $-1 $-1 $357 $232 #
vertex $-1 $241 $369 #
vertex $-1 $143 $370 #
straight-curve $-1 13.604346837770642 26.463893492005198 13.249135140421785 0 -1 0 I I #
coedge $-1 $248 $248 $-1 $371 reversed $146 $-1 #
edge $-1 $372 0 $372 6.2831853071796004 $147 $373 forward 7 unknown #
vertex $-1 $150 $374 #
ellipse-curve $-1 19.277223319556043 23.054983501391295 7.6278361319621091 0 0.64278761758704617 0.76604443648966558 2 0 0 1 I I #
coedge $-1 $252 $252 $-1 $375 reversed $153 $-1 #
edge $-1 $376 0 $376 6.2831853071796004 $154 $377 forward 7 unknown #
vertex $-1 $157 $378 #
ellipse-curve $-1 27.786538042234142 23.054983501391295 7.6278361319621091 0 0.64278761758704617 0.76604443648966558 2 0 0 1 I I #
face $-1 $-1 $379 $33 $-1 $380 forward single #
loop $-1 $-1 $164 $158 #
plane-surface $-1 0 -29.754186649454827 0 0 1 0 0 0 1 forward_v I I I I #
coedge $-1 $264 $381 $382 $383 forward $159 $-1 #
coedge $-1 $382 $161 $163 $266 forward $99 $-1 #
coedge $-1 $161 $382 $384 $385 reversed $99 $-1 #
coedge $-1 $386 $164 $161 $263 forward $257 $-1 #
edge $-1 $269 7.2341253559946637 $387 24.278552345564862 $262 $388 forward 7 unknown #
coedge $-1 $389 $259 $162 $265 forward $159 $-1 #
edge $-1 $390 -26.715780141807141 $268 -22.942880271107523 $264 $391 forward 7 unknown #
edge $-1 $269 -2.5121479338940405e-014 $390 5.3356862285266482 $163 $392 forward 7 unknown #
coedge $-1 $164 $386 $389 $393 reversed $257 $-1 #
vertex $-1 $393 $394 #
vertex $-1 $165 $395 #
straight-curve $-1 22.990464206774426 -29.754186649454823 42.558090309304383 0 0 -1 I I #
coedge $-1 $271 $271 $-1 $396 reversed $168 $-1 #
edge $-1 $397 0 $397 6.2831853071796004 $169 $398 forward 7 unknown #
vertex $-1 $172 $399 #
ellipse-curve $-1 27.860300489508774 -27.867736714105018 11.362685161296707 0 -0.70710678939079041 0.70710677298230451 1 0 0 1 I I #
coedge $-1 $275 $275 $-1 $400 reversed $175 $-1 #
edge $-1 $401 0 $401 6.2831853071796004 $176 $402 forward 7 unknown #
vertex $-1 $179 $403 #
ellipse-curve $-1 35.165054913610291 -27.867736714105018 11.362685161296707 0 -0.70710678939079041 0.70710677298230451 1 0 0 1 I I #
face $-1 $-1 $195 $27 $-1 $404 reversed single #
loop $-1 $-1 $295 $180 #
plane-surface $-1 0 29.754186649454827 0 0 -1 0 0 0 -1 forward_v I I I I #
coedge $-1 $405 $293 $296 $406 forward $181 $-1 #
coedge $-1 $299 $183 $184 $287 reversed $113 $-1 #
coedge $-1 $293 $405 $183 $285 reversed $181 $-1 #
edge $-1 $300 -13.249135140421782 $407 13.249135140421782 $284 $408 forward 7 unknown #
coedge $-1 $185 $184 $405 $409 forward $73 $-1 #
edge $-1 $291 -53.48551896725364 $407 53.48551896725364 $283 $410 forward 7 unknown #
coedge $-1 $296 $295 $185 $289 reversed $280 $-1 #
edge $-1 $411 -53.48551896725364 $290 53.48551896725364 $288 $412 forward 7 unknown #
vertex $-1 $187 $413 #
vertex $-1 $302 $414 #
straight-curve $-1 53.48551896725364 0 -13.249135140421782 0 -1 0 I I #
coedge $-1 $282 $284 $188 $294 reversed $181 $-1 #
edge $-1 $297 -29.754186649454827 $300 29.754186649454827 $293 $415 forward 7 unknown #
coedge $-1 $288 $189 $194 $303 forward $280 $-1 #
coedge $-1 $189 $288 $282 $406 reversed $280 $-1 #
vertex $-1 $190 $416 #
straight-curve $-1 0 29.754186649454827 13.249135140421782 -1 0 0 I I #
coedge $-1 $191 $283 $193 $302 reversed $113 $-1 #
vertex $-1 $294 $417 #
straight-curve $-1 0 -29.754186649454827 13.249135140421782 1 0 0 I I #
edge $-1 $196 -13.249135140421782 $291 13.249135140421782 $193 $418 forward 7 unknown #
edge $-1 $197 -13.249135140421782 $290 13.249135140421782 $194 $419 forward 7 unknown #
point $-1 53.48551896725364 -29.754186649454827 13.249135140421782 #
point $-1 53.48551896725364 29.754186649454827 13.249135140421782 #
face $-1 $-1 $316 $28 $-1 $420 reversed single #
loop $-1 $-1 $312 $199 #
plane-surface $-1 0 0 -13.249135140421782 0 0 1 1 0 0 forward_v I I I I #
coedge $-1 $421 $422 $207 $320 forward $200 $-1 #
coedge $-1 $202 $324 $314 $423 forward $121 $-1 #
edge $-1 $318 -16.497521546169637 $212 -10.015808660400744 $202 $424 forward 7 unknown #
coedge $-1 $425 $208 $203 $313 forward $307 $-1 #
edge $-1 $213 10.015808660400744 $317 16.497521546169637 $312 $426 forward 7 unknown #
coedge $-1 $427 $205 $310 $423 reversed $316 $-1 #
coedge $-1 $205 $427 $425 $428 reversed $316 $-1 #
loop $-1 $-1 $205 $306 #
vertex $-1 $428 $429 #
vertex $-1 $206 $430 #
straight-curve $-1 -40.034891196344631 -29.754186649454827 0 0 0 1 I I #
edge $-1 $325 -13.249135140421782 $322 13.249135140421782 $309 $431 forward 7 unknown #
coedge $-1 $208 $425 $421 $432 forward $307 $-1 #
vertex $-1 $209 $433 #
straight-curve $-1 -23.380102540899568 -23.272473763685934 -13.249135140421782 1 0 0 I I #
coedge $-1 $310 $210 $422 $434 forward $121 $-1 #
vertex $-1 $434 $435 #
straight-curve $-1 -23.380102540899568 -23.272473763685934 13.249135140421782 -1 0 0 I I #
point $-1 -40.034891196344631 -23.272473763685934 13.249135140421782 #
point $-1 -40.034891196344631 -23.272473763685934 -13.249135140421782 #
face $-1 $-1 $338 $29 $-1 $436 reversed single #
loop $-1 $-1 $334 $215 #
plane-surface $-1 0 0 -13.249135140421782 0 0 1 1 0 0 forward_v I I I I #
coedge $-1 $218 $228 $336 $437 forward $129 $-1 #
edge $-1 $340 -30.105416426354068 $229 -16.65478865544506 $218 $438 forward 7 unknown #
coedge $-1 $439 $342 $219 $335 forward $330 $-1 #
edge $-1 $344 16.65478865544506 $339 30.105416426354068 $334 $440 forward 7 unknown #
coedge $-1 $441 $221 $332 $437 reversed $338 $-1 #
coedge $-1 $221 $441 $439 $442 reversed $338 $-1 #
loop $-1 $-1 $221 $329 #
vertex $-1 $442 $443 #
vertex $-1 $222 $444 #
straight-curve $-1 53.48551896725364 -23.272473763685934 0 0 0 1 I I #
coedge $-1 $334 $445 $223 $343 forward $330 $-1 #
edge $-1 $348 -16.497521546169637 $344 -10.015808660400744 $342 $446 forward 7 unknown #
vertex $-1 $343 $447 #
straight-curve $-1 40.034891196344624 -23.272473763685934 0 0 0 -1 I I #
coedge $-1 $448 $226 $445 $449 reversed $216 $-1 #
coedge $-1 $226 $448 $228 $350 reversed $216 $-1 #
vertex $-1 $343 $450 #
straight-curve $-1 40.034891196344624 -29.754186649454827 0 0 0 -1 I I #
edge $-1 $230 40.034891196344624 $451 53.48551896725364 $347 $452 forward 7 unknown #
point $-1 40.034891196344624 -23.272473763685934 13.249135140421782 #
point $-1 40.034891196344624 -29.754186649454827 13.249135140421782 #
plane-surface $-1 0 0 13.249135140421782 0 0 1 1 0 0 forward_v I I I I #
coedge $-1 $364 $363 $356 $453 forward $233 $-1 #
coedge $-1 $356 $235 $237 $360 reversed $137 $-1 #
coedge $-1 $235 $355 $354 $453 reversed $137 $-1 #
coedge $-1 $243 $238 $235 $358 forward $244 $-1 #
edge $-1 $361 -10.108113138677446 $454 3.2902931574496286 $357 $455 forward 7 unknown #
coedge $-1 $237 $236 $364 $456 reversed $85 $-1 #
edge $-1 $457 -59.508373298909646 $361 -42.017995903148972 $355 $458 forward 7 unknown #
vertex $-1 $239 $459 #
straight-curve $-1 11.76594034044755 16.355780353327749 13.249135140421782 1 0 0 I I #
coedge $-1 $354 $240 $243 $368 reversed $233 $-1 #
coedge $-1 $240 $354 $359 $456 forward $233 $-1 #
vertex $-1 $241 $460 #
straight-curve $-1 13.604346837770642 29.754186649454827 61.101175549021725 0 0 1 I I #
straight-curve $-1 13.604346837770642 -15.831871640725083 40.257782622789179 0 0.76604443648966558 -0.64278761758704617 I I #
edge $-1 $454 -33.459414524019557 $245 -13.604346837770642 $363 $461 forward 7 unknown #
point $-1 13.604346837770642 29.754186649454827 13.249135140421782 #
point $-1 13.604346837770642 16.355780353327752 13.249135140421782 #
edge $-1 $462 1 $462 0 $248 $-1 forward 7 unknown #
vertex $-1 $249 $463 #
ellipse-curve $-1 19.277223319556043 18.439985370251502 2.1278956445567276 0 0.64278761758704617 0.76604443648966558 2 0 0 1 I I #
point $-1 21.277223319556043 23.054983501391312 7.6278361319621268 #
edge $-1 $464 1 $464 0 $252 $-1 forward 7 unknown #
vertex $-1 $253 $465 #
ellipse-curve $-1 27.786538042234142 18.439985370251502 2.1278956445567276 0 0.64278761758704617 0.76604443648966558 2 0 0 1 I I #
point $-1 29.786538042234142 23.054983501391312 7.6278361319621268 #
loop $-1 $-1 $384 $256 #
plane-surface $-1 40.034891196344624 -26.51333020657038 0 1 0 0 0 0 -1 forward_v I I I I #
coedge $-1 $259 $389 $466 $467 forward $159 $-1 #
coedge $-1 $261 $260 $259 $383 reversed $99 $-1 #
edge $-1 $468 -24.278552345564862 $390 -7.2341253559946637 $259 $469 forward 7 unknown #
coedge $-1 $466 $470 $261 $385 forward $379 $-1 #
edge $-1 $387 2.2045393470752392 $468 7.5402255756019114 $384 $471 forward 7 unknown #
coedge $-1 $267 $262 $470 $472 forward $257 $-1 #
vertex $-1 $472 $473 #
straight-curve $-1 15.756338850779763 -29.754186649454827 9.476235182171628 1 0 0 I I #
coedge $-1 $381 $264 $267 $393 forward $159 $-1 #
vertex $-1 $265 $474 #
straight-curve $-1 22.990464206774426 -52.697066920562349 13.249135140421785 0 -1 0 I I #
straight-curve $-1 22.990464206774426 -29.754186649454809 9.4762351821716493 0 0.70710677298230451 0.70710678939079041 I I #
edge $-1 $268 22.990464206774426 $475 40.034891196344624 $267 $476 forward 7 unknown #
point $-1 22.990464206774426 -29.754186649454827 13.249135140421782 #
point $-1 22.990464206774426 -29.754186649454827 9.4762351821716315 #
edge $-1 $477 1 $477 0 $271 $-1 forward 7 unknown #
vertex $-1 $272 $478 #
ellipse-curve $-1 27.860300489508774 -26.125574227020216 9.6205227146389642 0 -0.70710678939079041 0.70710677298230451 1 0 0 1 I I #
point $-1 28.860300489508774 -27.867736714105025 11.362685161296714 #
edge $-1 $479 1 $479 0 $275 $-1 forward 7 unknown #
vertex $-1 $276 $480 #
ellipse-curve $-1 35.165054913610291 -26.125574227020216 9.6205227146389642 0 -0.70710678939079041 0.70710677298230451 1 0 0 1 I I #
point $-1 36.165054913610291 -27.867736714105025 11.362685161296714 #
plane-surface $-1 53.48551896725364 0 0 -1 0 0 0 0 1 forward_v I I I I #
coedge $-1 $284 $282 $286 $409 reversed $181 $-1 #
edge $-1 $297 -13.249135140421782 $411 13.249135140421782 $296 $481 forward 7 unknown #
vertex $-1 $409 $482 #
straight-curve $-1 -53.48551896725364 -29.754186649454827 0 0 0 -1 I I #
edge $-1 $407 -29.754186649454827 $411 29.754186649454827 $405 $483 forward 7 unknown #
straight-curve $-1 0 -29.754186649454827 -13.249135140421782 -1 0 0 I I #
vertex $-1 $289 $484 #
straight-curve $-1 0 29.754186649454827 -13.249135140421782 1 0 0 I I #
point $-1 53.48551896725364 29.754186649454827 -13.249135140421782 #
point $-1 53.48551896725364 -29.754186649454827 -13.249135140421782 #
straight-curve $-1 -53.48551896725364 0 13.249135140421782 0 -1 0 I I #
point $-1 -53.48551896725364 29.754186649454827 13.249135140421782 #
point $-1 -53.48551896725364 -29.754186649454827 13.249135140421782 #
straight-curve $-1 53.48551896725364 -29.754186649454827 0 0 0 -1 I I #
straight-curve $-1 53.48551896725364 29.754186649454827 0 0 0 -1 I I #
plane-surface $-1 0 -29.754186649454827 0 0 1 0 0 0 1 forward_v I I I I #
coedge $-1 $485 $309 $321 $432 reversed $200 $-1 #
coedge $-1 $309 $485 $324 $434 reversed $200 $-1 #
edge $-1 $486 -53.48551896725364 $318 -40.034891196344631 $314 $487 forward 7 unknown #
straight-curve $-1 -40.034891196344631 -13.25666510328519 13.249135140421782 0 1 0 I I #
coedge $-1 $321 $312 $315 $428 forward $307 $-1 #
straight-curve $-1 -40.034891196344631 -13.25666510328519 -13.249135140421782 0 -1 0 I I #
coedge $-1 $315 $314 $485 $488 forward $316 $-1 #
edge $-1 $317 40.034891196344631 $489 53.48551896725364 $315 $490 forward 7 unknown #
point $-1 -40.034891196344631 -29.754186649454827 -13.249135140421782 #
point $-1 -40.034891196344631 -29.754186649454827 13.249135140421782 #
straight-curve $-1 -53.48551896725364 -23.272473763685934 0 0 0 -1 I I #
edge $-1 $489 -29.754186649454827 $322 -23.272473763685934 $421 $491 forward 7 unknown #
point $-1 -53.48551896725364 -23.272473763685934 -13.249135140421782 #
edge $-1 $325 23.272473763685934 $486 29.754186649454827 $422 $492 forward 7 unknown #
point $-1 -53.48551896725364 -23.272473763685934 13.249135140421782 #
plane-surface $-1 53.48551896725364 0 0 -1 0 0 0 0 1 forward_v I I I I #
edge $-1 $451 -29.754186649454827 $340 -23.272473763685934 $336 $493 forward 7 unknown #
straight-curve $-1 23.380102540899564 -23.272473763685934 13.249135140421782 -1 0 0 I I #
coedge $-1 $445 $334 $337 $442 forward $330 $-1 #
straight-curve $-1 23.380102540899564 -23.272473763685934 -13.249135140421782 1 0 0 I I #
coedge $-1 $337 $336 $448 $494 forward $338 $-1 #
edge $-1 $339 23.272473763685934 $495 29.754186649454827 $337 $496 forward 7 unknown #
point $-1 53.485518967253633 -23.272473763685934 -13.249135140421782 #
point $-1 53.485518967253633 -23.272473763685934 13.249135140421782 #
coedge $-1 $342 $439 $346 $449 forward $330 $-1 #
straight-curve $-1 40.034891196344624 -13.25666510328519 -13.249135140421782 0 1 0 I I #
point $-1 40.034891196344624 -23.272473763685934 -13.249135140421782 #
coedge $-1 $347 $346 $441 $494 reversed $216 $-1 #
edge $-1 $495 -53.48551896725364 $348 -40.034891196344624 $346 $497 forward 7 unknown #
point $-1 40.034891196344624 -29.754186649454827 -13.249135140421782 #
vertex $-1 $437 $498 #
straight-curve $-1 0 -29.754186649454827 13.249135140421782 1 0 0 I I #
edge $-1 $454 47.852040408599947 $457 59.094638425519271 $354 $499 forward 7 unknown #
vertex $-1 $368 $500 #
straight-curve $-1 33.459414524019557 26.463893492005198 13.249135140421785 0 1 0 I I #
edge $-1 $457 -21.693474183572008 $365 -1.838406497323092 $364 $501 forward 7 unknown #
vertex $-1 $456 $502 #
straight-curve $-1 33.459414524019557 -15.831871640725083 40.257782622789179 0 -0.76604443648966558 0.64278761758704617 I I #
point $-1 33.459414524019557 16.355780353327752 13.249135140421782 #
point $-1 13.604346837770642 29.754186649454823 2.0065371235024543 #
straight-curve $-1 0 29.754186649454827 13.249135140421782 -1 0 0 I I #
vertex $-1 $371 $503 #
point $-1 21.277223319556043 18.439985370251502 2.1278956445567276 #
vertex $-1 $375 $504 #
point $-1 29.786538042234142 18.439985370251502 2.1278956445567276 #
coedge $-1 $470 $384 $381 $467 reversed $379 $-1 #
edge $-1 $475 -16.497521546169637 $468 -12.724621675470019 $381 $505 forward 7 unknown #
vertex $-1 $385 $506 #
straight-curve $-1 15.756338850779763 -25.981286778755209 13.249135140421782 -1 0 0 I I #
coedge $-1 $384 $466 $386 $472 reversed $379 $-1 #
straight-curve $-1 40.034891196344624 -31.313031353077715 7.9173904423755896 0 0.70710677298230462 0.70710678939079052 I I #
edge $-1 $387 9.4762351821716315 $475 13.249135140421782 $386 $507 forward 7 unknown #
point $-1 40.034891196344624 -29.754186649454827 9.4762351821716315 #
point $-1 22.990464206774426 -25.981286778755209 13.249135140421782 #
vertex $-1 $472 $508 #
straight-curve $-1 0 -29.754186649454827 13.249135140421782 1 0 0 I I #
vertex $-1 $396 $509 #
point $-1 28.860300489508774 -26.125574227020216 9.6205227146389642 #
vertex $-1 $400 $510 #
point $-1 36.165054913610291 -26.125574227020216 9.6205227146389642 #
straight-curve $-1 -53.48551896725364 29.754186649454827 0 0 0 -1 I I #
point $-1 -53.48551896725364 -29.754186649454827 -13.249135140421782 #
straight-curve $-1 -53.48551896725364 0 -13.249135140421782 0 1 0 I I #
point $-1 -53.48551896725364 29.754186649454827 -13.249135140421782 #
coedge $-1 $422 $421 $427 $488 reversed $200 $-1 #
vertex $-1 $434 $511 #
straight-curve $-1 0 -29.754186649454827 13.249135140421782 1 0 0 I I #
edge $-1 $486 -13.249135140421782 $489 13.249135140421782 $485 $512 forward 7 unknown #
vertex $-1 $432 $513 #
straight-curve $-1 0 -29.754186649454827 -13.249135140421782 -1 0 0 I I #
straight-curve $-1 -53.48551896725364 0 -13.249135140421782 0 1 0 I I #
straight-curve $-1 -53.48551896725364 0 13.249135140421782 0 -1 0 I I #
straight-curve $-1 53.48551896725364 0 13.249135140421782 0 1 0 I I #
edge $-1 $451 -13.249135140421782 $495 13.249135140421782 $441 $514 forward 7 unknown #
vertex $-1 $494 $515 #
straight-curve $-1 53.48551896725364 0 -13.249135140421782 0 -1 0 I I #
straight-curve $-1 0 -29.754186649454827 -13.249135140421782 -1 0 0 I I #
point $-1 53.48551896725364 -29.754186649454827 13.249135140421782 #
straight-curve $-1 33.459414524019557 29.754186649454827 61.101175549021725 0 0 -1 I I #
point $-1 33.459414524019557 29.754186649454827 13.249135140421782 #
straight-curve $-1 11.76594034044755 29.754186649454823 2.0065371235024507 -1 0 0 I I #
point $-1 33.459414524019557 29.754186649454823 2.0065371235024543 #
point $-1 19.277223319556043 17.154410135077409 0.59580677157739637 #
point $-1 27.786538042234142 17.154410135077409 0.59580677157739637 #
straight-curve $-1 40.034891196344624 -13.25666510328519 13.249135140421782 0 1 0 I I #
point $-1 40.034891196344624 -25.981286778755209 13.249135140421782 #
straight-curve $-1 40.034891196344624 -29.754186649454827 0 0 0 1 I I #
point $-1 40.034891196344624 -29.754186649454827 13.249135140421782 #
point $-1 27.860300489508774 -25.418467437629424 8.9134159416566607 #
point $-1 35.165054913610291 -25.418467437629424 8.9134159416566607 #
point $-1 -53.48551896725364 -29.754186649454827 13.249135140421782 #
straight-curve $-1 -53.48551896725364 -29.754186649454827 0 0 0 -1 I I #
point $-1 -53.48551896725364 -29.754186649454827 -13.249135140421782 #
straight-curve $-1 53.48551896725364 -29.754186649454827 0 0 0 -1 I I #
point $-1 53.48551896725364 -29.754186649454827 -13.249135140421782 #
End-of-ACIS-data 