500 0 13 0           
7 Unknown 11 ACIS 5.0 NT 24 Fri Mar 26 02:35:52 1999 
-1 9.9999999999999995e-007 1e-010 
body $-1 $13 $-1 $14 #
body $-1 $15 $-1 $16 #
body $-1 $17 $-1 $18 #
body $-1 $19 $-1 $20 #
body $-1 $21 $-1 $22 #
body $-1 $23 $-1 $24 #
body $-1 $25 $-1 $26 #
body $-1 $27 $-1 $28 #
body $-1 $29 $-1 $30 #
body $-1 $31 $-1 $32 #
body $-1 $33 $-1 $34 #
body $-1 $35 $-1 $36 #
body $-1 $37 $-1 $38 #
lump $-1 $-1 $39 $0 #
transform $-1 1 0 0 0 1 0 0 0 1 65.131382183294164 38.8315578495559 8.978294180853311 1 rotate no_reflect no_shear #
lump $-1 $-1 $40 $1 #
transform $-1 1 0 0 0 1 0 0 0 1 65.131382183294164 38.8315578495559 8.978294180853311 1 rotate no_reflect no_shear #
lump $-1 $-1 $41 $2 #
transform $-1 1 0 0 0 1 0 0 0 1 65.131382183294164 38.8315578495559 8.978294180853311 1 rotate no_reflect no_shear #
lump $-1 $-1 $42 $3 #
transform $-1 1 0 0 0 1 0 0 0 1 65.131382183294164 38.8315578495559 8.978294180853311 1 rotate no_reflect no_shear #
lump $-1 $-1 $43 $4 #
transform $-1 1 0 0 0 1 0 0 0 1 65.131382183294164 38.8315578495559 8.978294180853311 1 rotate no_reflect no_shear #
lump $-1 $-1 $44 $5 #
transform $-1 1 0 0 0 1 0 0 0 1 65.131382183294164 38.8315578495559 8.978294180853311 1 rotate no_reflect no_shear #
lump $-1 $-1 $45 $6 #
transform $-1 1 0 0 0 1 0 0 0 1 65.131382183294164 38.8315578495559 8.978294180853311 1 rotate no_reflect no_shear #
lump $-1 $-1 $46 $7 #
transform $-1 1 0 0 0 1 0 0 0 1 65.131382183294164 38.8315578495559 8.978294180853311 1 rotate no_reflect no_shear #
lump $-1 $-1 $47 $8 #
transform $-1 1 0 0 0 1 0 0 0 1 65.131382183294164 38.8315578495559 8.978294180853311 1 rotate no_reflect no_shear #
lump $-1 $-1 $48 $9 #
transform $-1 1 0 0 0 1 0 0 0 1 65.131382183294164 38.8315578495559 8.978294180853311 1 rotate no_reflect no_shear #
lump $-1 $-1 $49 $10 #
transform $-1 1 0 0 0 1 0 0 0 1 65.131382183294164 38.8315578495559 8.978294180853311 1 rotate no_reflect no_shear #
lump $-1 $-1 $50 $11 #
transform $-1 1 0 0 0 1 0 0 0 1 65.131382183294164 38.8315578495559 8.978294180853311 1 rotate no_reflect no_shear #
lump $-1 $-1 $51 $12 #
transform $-1 1 0 0 0 1 0 0 0 1 65.131382183294164 38.8315578495559 8.978294180853311 1 rotate no_reflect no_shear #
shell $-1 $-1 $-1 $52 $-1 $13 #
shell $-1 $-1 $-1 $53 $-1 $15 #
shell $-1 $-1 $-1 $54 $-1 $17 #
shell $-1 $-1 $-1 $55 $-1 $19 #
shell $-1 $-1 $-1 $56 $-1 $21 #
shell $-1 $-1 $-1 $57 $-1 $23 #
shell $-1 $-1 $-1 $58 $-1 $25 #
shell $-1 $-1 $-1 $59 $-1 $27 #
shell $-1 $-1 $-1 $60 $-1 $29 #
shell $-1 $-1 $-1 $61 $-1 $31 #
shell $-1 $-1 $-1 $62 $-1 $33 #
shell $-1 $-1 $-1 $63 $-1 $35 #
shell $-1 $-1 $-1 $64 $-1 $37 #
face $-1 $65 $66 $39 $-1 $67 forward single #
face $-1 $68 $69 $40 $-1 $70 reversed single #
face $-1 $71 $72 $41 $-1 $73 reversed single #
face $-1 $74 $75 $42 $-1 $76 reversed single #
face $-1 $77 $78 $43 $-1 $79 forward single #
face $-1 $80 $81 $44 $-1 $82 forward single #
face $-1 $83 $84 $45 $-1 $85 forward single #
face $-1 $86 $87 $46 $-1 $88 reversed single #
face $-1 $89 $90 $47 $-1 $91 forward single #
face $-1 $92 $93 $48 $-1 $94 forward single #
face $-1 $95 $96 $49 $-1 $97 reversed single #
face $-1 $98 $99 $50 $-1 $100 forward single #
face $-1 $101 $102 $51 $-1 $103 forward single #
face $-1 $104 $105 $39 $-1 $106 reversed single #
loop $-1 $-1 $107 $52 #
plane-surface $-1 0 0 8.978294180853311 0 0 1 1 0 0 forward_v I I I I #
face $-1 $108 $109 $40 $-1 $110 reversed single #
loop $-1 $-1 $111 $53 #
plane-surface $-1 -61.142985908149193 0 5.7975991367485298 0 0 1 1 0 0 forward_v I I I I #
face $-1 $112 $113 $41 $-1 $114 reversed single #
loop $-1 $-1 $115 $54 #
plane-surface $-1 61.1429859081492 0 5.7975991367485298 0 0 1 1 0 0 forward_v I I I I #
face $-1 $116 $117 $42 $-1 $118 reversed single #
loop $-1 $-1 $119 $55 #
plane-surface $-1 -3.2588916126708547 44.643976070213263 153.05330147593986 1 0 0 0 -0.54463904215088732 -0.83867056331134215 forward_v I I I I #
face $-1 $120 $121 $43 $-1 $122 forward single #
loop $-1 $123 $124 $56 #
cone-surface $-1 1.8322223140611413 32.075856087407402 3.6974177483558526 0 -0.54463904215088732 -0.83867056331134215 2.5 0 0 1 I I 0 1 2.5 forward I I I I #
face $-1 $125 $126 $44 $-1 $127 forward single #
loop $-1 $128 $129 $57 #
cone-surface $-1 9.4688932041591443 32.075856087407402 3.6974177483558526 0 -0.54463904215088732 -0.83867056331134215 2.5 0 0 1 I I 0 1 2.5 forward I I I I #
face $-1 $130 $131 $45 $-1 $132 forward single #
loop $-1 $133 $134 $58 #
cone-surface $-1 17.105564094257147 32.075856087407402 3.6974177483558526 0 -0.54463904215088732 -0.83867056331134215 2.5 0 0 1 I I 0 1 2.5 forward I I I I #
face $-1 $135 $136 $46 $-1 $137 reversed single #
loop $-1 $-1 $138 $59 #
plane-surface $-1 -3.0783105880376063 -113.54721098710775 111.4889945159035 -1 0 0 0 -0.57357644374324357 0.81915203911291934 forward_v I I I I #
face $-1 $139 $140 $47 $-1 $141 forward single #
loop $-1 $142 $143 $60 #
cone-surface $-1 -17.00981812302112 -35.196250499356502 5.9667529530159564 0 0.57357644374324357 -0.81915203911291934 1 0 0 1 I I 0 1 1 forward I I I I #
face $-1 $144 $145 $48 $-1 $146 forward single #
loop $-1 $147 $148 $61 #
cone-surface $-1 -8.6509136020310109 -35.196250499356502 5.9667529530159564 0 0.57357644374324357 -0.81915203911291934 1 0 0 1 I I 0 1 1 forward I I I I #
face $-1 $149 $150 $49 $-1 $151 reversed single #
loop $-1 $-1 $152 $62 #
plane-surface $-1 54.076279044966611 -113.54721098710775 111.4889945159035 -1 0 0 0 -0.57357644374324357 0.81915203911291934 forward_v I I I I #
face $-1 $153 $154 $50 $-1 $155 forward single #
loop $-1 $156 $157 $63 #
cone-surface $-1 40.144771509983102 -35.196250499356502 5.9667529530159564 0 0.57357644374324357 -0.81915203911291934 1 0 0 1 I I 0 1 1 forward I I I I #
face $-1 $158 $159 $51 $-1 $160 forward single #
loop $-1 $161 $162 $64 #
cone-surface $-1 48.50367603097321 -35.196250499356502 5.9667529530159564 0 0.57357644374324357 -0.81915203911291934 1 0 0 1 I I 0 1 1 forward I I I I #
face $-1 $163 $164 $39 $-1 $165 reversed single #
loop $-1 $-1 $166 $65 #
plane-surface $-1 0 0 -8.978294180853311 0 0 1 1 0 0 forward_v I I I I #
coedge $-1 $167 $168 $169 $170 forward $66 $-1 #
face $-1 $171 $172 $40 $-1 $173 reversed single #
loop $-1 $-1 $174 $68 #
plane-surface $-1 -57.154589633004221 0 7.3879466588009208 -1 0 0 0 0 1 forward_v I I I I #
coedge $-1 $175 $176 $177 $178 forward $69 $-1 #
face $-1 $179 $180 $41 $-1 $181 forward single #
loop $-1 $-1 $182 $71 #
plane-surface $-1 57.154589633004228 0 7.3879466588009208 1 0 0 0 0 -1 forward_v I I I I #
coedge $-1 $183 $184 $185 $186 reversed $72 $-1 #
face $-1 $187 $188 $42 $-1 $189 reversed single #
loop $-1 $-1 $190 $74 #
plane-surface $-1 9.4688932041591443 -26.302211142332133 43.805755506120605 0 0.54463904215088732 0.83867056331134215 1 0 0 forward_v I I I I #
coedge $-1 $191 $192 $193 $194 reversed $75 $-1 #
face $-1 $-1 $195 $43 $-1 $196 forward single #
loop $-1 $197 $198 $77 #
cone-surface $-1 1.8322223140611413 30.391446781313824 1.10365492149446 0 -0.54463904215088732 -0.83867056331134215 1.25 0 0 1 I I -0.70710678118654746 0.70710678118654746 1.25 forward I I I I #
loop $-1 $-1 $199 $56 #
coedge $-1 $124 $124 $200 $201 reversed $78 $-1 #
face $-1 $-1 $202 $44 $-1 $203 forward single #
loop $-1 $204 $205 $80 #
cone-surface $-1 9.4688932041591443 30.391446781313824 1.10365492149446 0 -0.54463904215088732 -0.83867056331134215 1.25 0 0 1 I I -0.70710678118654746 0.70710678118654746 1.25 forward I I I I #
loop $-1 $-1 $206 $57 #
coedge $-1 $129 $129 $207 $208 reversed $81 $-1 #
face $-1 $-1 $209 $45 $-1 $210 forward single #
loop $-1 $211 $212 $83 #
cone-surface $-1 17.105564094257147 30.391446781313824 1.10365492149446 0 -0.54463904215088732 -0.83867056331134215 1.25 0 0 1 I I -0.70710678118654746 0.70710678118654746 1.25 forward I I I I #
loop $-1 $-1 $213 $58 #
coedge $-1 $134 $134 $214 $215 reversed $84 $-1 #
face $-1 $216 $217 $46 $-1 $218 reversed single #
loop $-1 $-1 $219 $86 #
plane-surface $-1 -12.830365862526065 -38.831557849555907 4.7839854645269355 0 -0.57357644374324357 0.81915203911291934 1 0 0 forward_v I I I I #
coedge $-1 $220 $221 $222 $223 reversed $87 $-1 #
face $-1 $-1 $224 $47 $-1 $225 forward single #
loop $-1 $226 $227 $89 #
cone-surface $-1 -17.00981812302112 -34.26920168620174 4.6427900637853217 0 0.57357644374324357 -0.81915203911291934 0.5 0 0 1 I I -0.70710678118654746 0.70710678118654746 0.5 forward I I I I #
loop $-1 $-1 $228 $60 #
coedge $-1 $143 $143 $229 $230 reversed $90 $-1 #
face $-1 $-1 $231 $48 $-1 $232 forward single #
loop $-1 $233 $234 $92 #
cone-surface $-1 -8.6509136020310109 -34.26920168620174 4.6427900637853217 0 0.57357644374324357 -0.81915203911291934 0.5 0 0 1 I I -0.70710678118654746 0.70710678118654746 0.5 forward I I I I #
loop $-1 $-1 $235 $61 #
coedge $-1 $148 $148 $236 $237 reversed $93 $-1 #
face $-1 $238 $239 $49 $-1 $240 reversed single #
loop $-1 $-1 $241 $95 #
plane-surface $-1 44.324223770478156 -38.831557849555907 4.7839854645269355 0 -0.57357644374324357 0.81915203911291934 1 0 0 forward_v I I I I #
coedge $-1 $242 $243 $244 $245 reversed $96 $-1 #
face $-1 $-1 $246 $50 $-1 $247 forward single #
loop $-1 $248 $249 $98 #
cone-surface $-1 40.144771509983102 -34.26920168620174 4.6427900637853217 0 0.57357644374324357 -0.81915203911291934 0.5 0 0 1 I I -0.70710678118654746 0.70710678118654746 0.5 forward I I I I #
loop $-1 $-1 $250 $63 #
coedge $-1 $157 $157 $251 $252 reversed $99 $-1 #
face $-1 $-1 $253 $51 $-1 $254 forward single #
loop $-1 $255 $256 $101 #
cone-surface $-1 48.50367603097321 -34.26920168620174 4.6427900637853217 0 0.57357644374324357 -0.81915203911291934 0.5 0 0 1 I I -0.70710678118654746 0.70710678118654746 0.5 forward I I I I #
loop $-1 $-1 $257 $64 #
coedge $-1 $162 $162 $258 $259 reversed $102 $-1 #
face $-1 $260 $261 $39 $-1 $262 reversed single #
loop $-1 $-1 $263 $104 #
plane-surface $-1 0 -38.8315578495559 0 0 1 0 0 0 1 forward_v I I I I #
coedge $-1 $264 $265 $266 $267 forward $105 $-1 #
coedge $-1 $268 $107 $269 $270 forward $66 $-1 #
coedge $-1 $107 $268 $271 $272 forward $66 $-1 #
coedge $-1 $273 $274 $107 $170 reversed $275 $-1 #
edge $-1 $276 -38.8315578495559 $277 38.8315578495559 $169 $278 forward 7 unknown #
face $-1 $279 $280 $40 $-1 $281 reversed single #
loop $-1 $-1 $282 $108 #
plane-surface $-1 0 38.8315578495559 0 0 -1 0 0 0 -1 forward_v I I I I #
coedge $-1 $177 $283 $284 $285 reversed $109 $-1 #
coedge $-1 $286 $111 $287 $288 reversed $69 $-1 #
coedge $-1 $111 $286 $289 $290 reversed $69 $-1 #
coedge $-1 $291 $174 $111 $178 reversed $109 $-1 #
edge $-1 $292 -38.8315578495559 $293 38.8315578495559 $177 $294 forward 7 unknown #
face $-1 $295 $296 $41 $-1 $297 reversed single #
loop $-1 $-1 $298 $112 #
plane-surface $-1 0 0 8.978294180853311 0 0 1 1 0 0 forward_v I I I I #
coedge $-1 $299 $300 $301 $302 reversed $113 $-1 #
coedge $-1 $303 $115 $304 $305 reversed $72 $-1 #
coedge $-1 $115 $303 $306 $307 reversed $72 $-1 #
coedge $-1 $308 $309 $115 $186 forward $310 $-1 #
edge $-1 $311 -38.8315578495559 $312 38.8315578495559 $185 $313 forward 7 unknown #
face $-1 $314 $315 $42 $-1 $316 reversed single #
loop $-1 $-1 $317 $116 #
plane-surface $-1 22.196678020989143 44.643976070213263 153.05330147593986 -1 0 0 0 0.54463904215088732 0.83867056331134215 forward_v I I I I #
coedge $-1 $318 $319 $320 $321 reversed $117 $-1 #
coedge $-1 $192 $119 $322 $323 reversed $75 $-1 #
coedge $-1 $119 $191 $318 $324 reversed $75 $-1 #
coedge $-1 $320 $325 $119 $194 forward $326 $-1 #
edge $-1 $327 -16.509569814449268 $328 -5.0053872969621658 $193 $329 forward 7 unknown #
loop $-1 $-1 $200 $120 #
plane-surface $-1 9.4688932041591443 -26.302211142332133 43.805755506120605 0 0.54463904215088732 0.83867056331134215 1 0 0 forward_v I I I I #
loop $-1 $-1 $330 $77 #
coedge $-1 $198 $198 $199 $331 reversed $121 $-1 #
coedge $-1 $199 $199 $198 $331 forward $123 $-1 #
coedge $-1 $200 $200 $124 $201 forward $195 $-1 #
edge $-1 $332 -7.1226941426639431e-016 $332 6.2831853071795996 $200 $333 forward 7 unknown #
loop $-1 $-1 $207 $125 #
plane-surface $-1 9.4688932041591443 -26.302211142332133 43.805755506120605 0 0.54463904215088732 0.83867056331134215 1 0 0 forward_v I I I I #
loop $-1 $-1 $334 $80 #
coedge $-1 $205 $205 $206 $335 reversed $126 $-1 #
coedge $-1 $206 $206 $205 $335 forward $128 $-1 #
coedge $-1 $207 $207 $129 $208 forward $202 $-1 #
edge $-1 $336 -7.1226941426639431e-016 $336 6.2831853071795996 $207 $337 forward 7 unknown #
loop $-1 $-1 $214 $130 #
plane-surface $-1 9.4688932041591443 -26.302211142332133 43.805755506120605 0 0.54463904215088732 0.83867056331134215 1 0 0 forward_v I I I I #
loop $-1 $-1 $338 $83 #
coedge $-1 $212 $212 $213 $339 reversed $131 $-1 #
coedge $-1 $213 $213 $212 $339 forward $133 $-1 #
coedge $-1 $214 $214 $134 $215 forward $209 $-1 #
edge $-1 $340 -7.1226941426639431e-016 $340 6.2831853071795996 $214 $341 forward 7 unknown #
face $-1 $342 $343 $46 $-1 $344 forward single #
loop $-1 $-1 $345 $135 #
plane-surface $-1 -22.582421137014524 -113.54721098710775 111.4889945159035 1 0 0 0 0.57357644374324357 -0.81915203911291934 forward_v I I I I #
coedge $-1 $346 $347 $348 $349 reversed $136 $-1 #
coedge $-1 $221 $138 $350 $351 reversed $87 $-1 #
coedge $-1 $138 $220 $346 $352 reversed $87 $-1 #
coedge $-1 $348 $353 $138 $223 forward $343 $-1 #
edge $-1 $354 17.942047643997974 $355 23.932141161830501 $222 $356 forward 7 unknown #
loop $-1 $-1 $229 $139 #
plane-surface $-1 -12.830365862526065 -38.831557849555907 4.7839854645269355 0 -0.57357644374324357 0.81915203911291934 1 0 0 forward_v I I I I #
loop $-1 $-1 $357 $89 #
coedge $-1 $227 $227 $228 $358 reversed $140 $-1 #
coedge $-1 $228 $228 $227 $358 forward $142 $-1 #
coedge $-1 $229 $229 $143 $230 forward $224 $-1 #
edge $-1 $359 -7.2604311493666442e-016 $359 6.2831853071795996 $229 $360 forward 7 unknown #
loop $-1 $-1 $236 $144 #
plane-surface $-1 -12.830365862526065 -38.831557849555907 4.7839854645269355 0 -0.57357644374324357 0.81915203911291934 1 0 0 forward_v I I I I #
loop $-1 $-1 $361 $92 #
coedge $-1 $234 $234 $235 $362 reversed $145 $-1 #
coedge $-1 $235 $235 $234 $362 forward $147 $-1 #
coedge $-1 $236 $236 $148 $237 forward $231 $-1 #
edge $-1 $363 -7.2604311493666442e-016 $363 6.2831853071795996 $236 $364 forward 7 unknown #
face $-1 $365 $366 $49 $-1 $367 reversed single #
loop $-1 $-1 $368 $149 #
plane-surface $-1 34.5721684959897 -113.54721098710775 111.4889945159035 1 0 0 0 0.57357644374324357 -0.81915203911291934 forward_v I I I I #
coedge $-1 $369 $370 $371 $372 reversed $150 $-1 #
coedge $-1 $243 $152 $373 $374 reversed $96 $-1 #
coedge $-1 $152 $242 $369 $375 reversed $96 $-1 #
coedge $-1 $371 $376 $152 $245 forward $377 $-1 #
edge $-1 $378 17.942047643997974 $379 23.932141161830501 $244 $380 forward 7 unknown #
loop $-1 $-1 $251 $153 #
plane-surface $-1 44.324223770478156 -38.831557849555907 4.7839854645269355 0 -0.57357644374324357 0.81915203911291934 1 0 0 forward_v I I I I #
loop $-1 $-1 $381 $98 #
coedge $-1 $249 $249 $250 $382 reversed $154 $-1 #
coedge $-1 $250 $250 $249 $382 forward $156 $-1 #
coedge $-1 $251 $251 $157 $252 forward $246 $-1 #
edge $-1 $383 -7.2604311493666442e-016 $383 6.2831853071795996 $251 $384 forward 7 unknown #
loop $-1 $-1 $258 $158 #
plane-surface $-1 44.324223770478156 -38.831557849555907 4.7839854645269355 0 -0.57357644374324357 0.81915203911291934 1 0 0 forward_v I I I I #
loop $-1 $-1 $385 $101 #
coedge $-1 $256 $256 $257 $386 reversed $159 $-1 #
coedge $-1 $257 $257 $256 $386 forward $161 $-1 #
coedge $-1 $258 $258 $162 $259 forward $253 $-1 #
edge $-1 $387 -7.2604311493666442e-016 $387 6.2831853071795996 $258 $388 forward 7 unknown #
face $-1 $389 $390 $39 $-1 $391 reversed single #
loop $-1 $-1 $392 $163 #
plane-surface $-1 -65.131382183294164 0 0 1 0 0 0 0 -1 forward_v I I I I #
coedge $-1 $393 $271 $394 $395 forward $164 $-1 #
coedge $-1 $396 $166 $393 $397 forward $105 $-1 #
coedge $-1 $166 $396 $398 $399 forward $105 $-1 #
coedge $-1 $274 $273 $166 $267 reversed $275 $-1 #
edge $-1 $400 -38.8315578495559 $401 38.8315578495559 $266 $402 forward 7 unknown #
coedge $-1 $168 $167 $403 $404 forward $66 $-1 #
coedge $-1 $405 $406 $167 $270 reversed $390 $-1 #
edge $-1 $277 -65.131382183294164 $407 65.131382183294164 $269 $408 forward 7 unknown #
coedge $-1 $263 $409 $168 $272 reversed $164 $-1 #
edge $-1 $410 -65.131382183294164 $276 65.131382183294164 $271 $411 forward 7 unknown #
coedge $-1 $266 $169 $409 $412 forward $275 $-1 #
coedge $-1 $169 $266 $405 $413 reversed $275 $-1 #
loop $-1 $-1 $273 $389 #
vertex $-1 $170 $414 #
vertex $-1 $170 $415 #
straight-curve $-1 65.131382183294164 0 8.978294180853311 0 1 0 I I #
face $-1 $416 $417 $40 $-1 $418 forward single #
loop $-1 $-1 $419 $171 #
plane-surface $-1 -65.131382183294164 0 0 1 0 0 0 0 -1 forward_v I I I I #
coedge $-1 $289 $420 $291 $421 forward $172 $-1 #
coedge $-1 $174 $291 $422 $423 reversed $109 $-1 #
coedge $-1 $424 $287 $174 $285 forward $425 $-1 #
edge $-1 $293 2.1036258073480694 $426 5.2843208514528506 $284 $427 forward 7 unknown #
coedge $-1 $176 $175 $419 $428 reversed $69 $-1 #
coedge $-1 $284 $429 $175 $288 forward $425 $-1 #
edge $-1 $430 -34.559889229219564 $293 -26.583096678929625 $287 $431 forward 7 unknown #
coedge $-1 $432 $282 $176 $290 forward $172 $-1 #
edge $-1 $292 26.583096678929625 $433 34.559889229219564 $289 $434 forward 7 unknown #
coedge $-1 $283 $177 $282 $421 reversed $109 $-1 #
vertex $-1 $290 $435 #
vertex $-1 $288 $436 #
straight-curve $-1 -57.154589633004221 0 5.7975991367485298 0 -1 0 I I #
face $-1 $437 $438 $41 $-1 $439 reversed single #
loop $-1 $-1 $440 $179 #
plane-surface $-1 0 -38.8315578495559 0 0 1 0 0 0 1 forward_v I I I I #
coedge $-1 $441 $442 $300 $443 forward $180 $-1 #
coedge $-1 $444 $182 $303 $445 reversed $113 $-1 #
coedge $-1 $182 $444 $298 $443 reversed $113 $-1 #
coedge $-1 $446 $306 $182 $302 forward $438 $-1 #
edge $-1 $447 2.1036258073480694 $448 5.2843208514528506 $301 $449 forward 7 unknown #
coedge $-1 $184 $183 $299 $445 forward $72 $-1 #
coedge $-1 $450 $440 $183 $305 forward $296 $-1 #
edge $-1 $451 26.583096678929628 $311 34.559889229219564 $304 $452 forward 7 unknown #
coedge $-1 $301 $453 $184 $307 forward $438 $-1 #
edge $-1 $312 -34.559889229219564 $447 -26.583096678929628 $306 $454 forward 7 unknown #
coedge $-1 $455 $185 $453 $456 reversed $310 $-1 #
coedge $-1 $185 $455 $450 $457 forward $310 $-1 #
loop $-1 $-1 $185 $437 #
vertex $-1 $305 $458 #
vertex $-1 $186 $459 #
straight-curve $-1 65.131382183294164 0 5.7975991367485298 0 1 0 I I #
face $-1 $-1 $326 $42 $-1 $460 forward single #
loop $-1 $-1 $461 $187 #
plane-surface $-1 0 38.8315578495559 0 0 -1 0 0 0 -1 forward_v I I I I #
coedge $-1 $462 $463 $464 $465 reversed $188 $-1 #
coedge $-1 $466 $190 $192 $324 forward $117 $-1 #
coedge $-1 $190 $466 $462 $467 forward $117 $-1 #
coedge $-1 $464 $193 $190 $321 forward $326 $-1 #
edge $-1 $328 -7.9933382147504268 $468 17.462231418909571 $320 $469 forward 7 unknown #
coedge $-1 $470 $471 $191 $323 forward $315 $-1 #
edge $-1 $472 -75.019260176667117 $327 -67.54835655711662 $322 $473 forward 7 unknown #
edge $-1 $328 63.945950675380814 $472 77.663115699111799 $192 $474 forward 7 unknown #
coedge $-1 $193 $464 $470 $475 forward $326 $-1 #
loop $-1 $-1 $464 $314 #
vertex $-1 $323 $476 #
vertex $-1 $194 $477 #
straight-curve $-1 -3.2588916126708547 22.321988035106632 8.978294180853311 0 -1 0 I I #
coedge $-1 $330 $330 $-1 $478 reversed $197 $-1 #
edge $-1 $479 0 $479 6.2831853071796004 $198 $480 forward 7 unknown #
vertex $-1 $201 $481 #
ellipse-curve $-1 1.8322223140611413 33.079466590812359 5.2428423710780541 0 0.54463904215088732 0.83867056331134215 2.5 0 0 1 I I #
coedge $-1 $334 $334 $-1 $482 reversed $204 $-1 #
edge $-1 $483 0 $483 6.2831853071796004 $205 $484 forward 7 unknown #
vertex $-1 $208 $485 #
ellipse-curve $-1 9.4688932041591443 33.079466590812359 5.2428423710780541 0 0.54463904215088732 0.83867056331134215 2.5 0 0 1 I I #
coedge $-1 $338 $338 $-1 $486 reversed $211 $-1 #
edge $-1 $487 0 $487 6.2831853071796004 $212 $488 forward 7 unknown #
vertex $-1 $215 $489 #
ellipse-curve $-1 17.105564094257147 33.079466590812359 5.2428423710780541 0 0.54463904215088732 0.83867056331134215 2.5 0 0 1 I I #
face $-1 $-1 $490 $46 $-1 $491 reversed single #
loop $-1 $-1 $222 $216 #
plane-surface $-1 0 0 8.978294180853311 0 0 1 1 0 0 forward_v I I I I #
coedge $-1 $492 $493 $494 $495 reversed $217 $-1 #
coedge $-1 $496 $219 $221 $352 forward $136 $-1 #
coedge $-1 $219 $496 $492 $497 forward $136 $-1 #
coedge $-1 $494 $222 $219 $349 forward $343 $-1 #
edge $-1 $355 -3.3368723432254264 $498 16.167238205751492 $348 $499 forward 7 unknown #
coedge $-1 $500 $501 $220 $351 forward $490 $-1 #
edge $-1 $502 -50.960511793424807 $354 -46.766203077098439 $350 $503 forward 7 unknown #
edge $-1 $355 -7.3125539970813715 $502 -8.8770546250341341e-015 $221 $504 forward 7 unknown #
coedge $-1 $222 $494 $500 $505 forward $343 $-1 #
vertex $-1 $351 $506 #
vertex $-1 $223 $507 #
straight-curve $-1 -3.0783105880376063 -56.773605493553873 8.978294180853311 0 1 0 I I #
coedge $-1 $357 $357 $-1 $508 reversed $226 $-1 #
edge $-1 $509 0 $509 6.2831853071796004 $227 $510 forward 7 unknown #
vertex $-1 $230 $511 #
ellipse-curve $-1 -17.00981812302112 -35.83651109063964 6.8811398226901233 0 -0.57357644374324357 0.81915203911291934 1 0 0 1 I I #
coedge $-1 $361 $361 $-1 $512 reversed $233 $-1 #
edge $-1 $513 0 $513 6.2831853071796004 $234 $514 forward 7 unknown #
vertex $-1 $237 $515 #
ellipse-curve $-1 -8.6509136020310109 -35.83651109063964 6.8811398226901233 0 -0.57357644374324357 0.81915203911291934 1 0 0 1 I I #
face $-1 $-1 $377 $49 $-1 $516 forward single #
loop $-1 $-1 $517 $238 #
plane-surface $-1 0 -38.8315578495559 0 0 1 0 0 0 1 forward_v I I I I #
coedge $-1 $518 $519 $520 $521 reversed $239 $-1 #
coedge $-1 $522 $241 $243 $375 forward $150 $-1 #
coedge $-1 $241 $522 $518 $523 forward $150 $-1 #
coedge $-1 $520 $244 $241 $372 forward $377 $-1 #
edge $-1 $379 -31.914167159727533 $524 -12.410056610750622 $371 $525 forward 7 unknown #
coedge $-1 $526 $527 $242 $374 forward $366 $-1 #
edge $-1 $528 -50.960511793424807 $378 -46.766203077098439 $373 $529 forward 7 unknown #
edge $-1 $379 -7.3125539970813715 $528 -8.8770546250341341e-015 $243 $530 forward 7 unknown #
coedge $-1 $244 $520 $526 $531 forward $377 $-1 #
loop $-1 $-1 $520 $365 #
vertex $-1 $374 $532 #
vertex $-1 $245 $533 #
straight-curve $-1 54.076279044966611 -56.773605493553873 8.978294180853311 0 1 0 I I #
coedge $-1 $381 $381 $-1 $534 reversed $248 $-1 #
edge $-1 $535 0 $535 6.2831853071796004 $249 $536 forward 7 unknown #
vertex $-1 $252 $537 #
ellipse-curve $-1 40.144771509983102 -35.83651109063964 6.8811398226901233 0 -0.57357644374324357 0.81915203911291934 1 0 0 1 I I #
coedge $-1 $385 $385 $-1 $538 reversed $255 $-1 #
edge $-1 $539 0 $539 6.2831853071796004 $256 $540 forward 7 unknown #
vertex $-1 $259 $541 #
ellipse-curve $-1 48.50367603097321 -35.83651109063964 6.8811398226901233 0 -0.57357644374324357 0.81915203911291934 1 0 0 1 I I #
face $-1 $-1 $275 $39 $-1 $542 reversed single #
loop $-1 $-1 $405 $260 #
plane-surface $-1 0 38.8315578495559 0 0 -1 0 0 0 -1 forward_v I I I I #
coedge $-1 $543 $403 $406 $544 forward $261 $-1 #
coedge $-1 $409 $263 $264 $397 reversed $164 $-1 #
coedge $-1 $403 $543 $263 $395 reversed $261 $-1 #
edge $-1 $410 -8.978294180853311 $545 8.978294180853311 $394 $546 forward 7 unknown #
coedge $-1 $265 $264 $543 $547 forward $105 $-1 #
edge $-1 $401 -65.131382183294164 $545 65.131382183294164 $393 $548 forward 7 unknown #
coedge $-1 $406 $405 $265 $399 reversed $390 $-1 #
edge $-1 $549 -65.131382183294164 $400 65.131382183294164 $398 $550 forward 7 unknown #
vertex $-1 $267 $551 #
vertex $-1 $412 $552 #
straight-curve $-1 65.131382183294164 0 -8.978294180853311 0 -1 0 I I #
coedge $-1 $392 $394 $268 $404 reversed $261 $-1 #
edge $-1 $407 -38.8315578495559 $410 38.8315578495559 $403 $553 forward 7 unknown #
coedge $-1 $398 $269 $274 $413 forward $390 $-1 #
coedge $-1 $269 $398 $392 $544 reversed $390 $-1 #
vertex $-1 $270 $554 #
straight-curve $-1 0 38.8315578495559 8.978294180853311 -1 0 0 I I #
coedge $-1 $271 $393 $273 $412 reversed $164 $-1 #
vertex $-1 $404 $555 #
straight-curve $-1 0 -38.8315578495559 8.978294180853311 1 0 0 I I #
edge $-1 $276 -8.978294180853311 $401 8.978294180853311 $273 $556 forward 7 unknown #
edge $-1 $277 -8.978294180853311 $400 8.978294180853311 $274 $557 forward 7 unknown #
point $-1 65.131382183294164 -38.8315578495559 8.978294180853311 #
point $-1 65.131382183294164 38.8315578495559 8.978294180853311 #
face $-1 $-1 $425 $40 $-1 $558 reversed single #
loop $-1 $-1 $422 $279 #
plane-surface $-1 0 0 8.978294180853311 0 0 1 1 0 0 forward_v I I I I #
coedge $-1 $559 $560 $286 $428 forward $280 $-1 #
coedge $-1 $282 $432 $561 $562 reversed $172 $-1 #
edge $-1 $563 -5.2843208514528506 $292 -2.1036258073480694 $282 $564 forward 7 unknown #
coedge $-1 $561 $565 $283 $423 forward $417 $-1 #
edge $-1 $426 -38.8315578495559 $563 38.8315578495559 $422 $566 forward 7 unknown #
coedge $-1 $429 $284 $565 $567 reversed $425 $-1 #
loop $-1 $-1 $284 $416 #
vertex $-1 $285 $568 #
straight-curve $-1 -57.154589633004221 -38.8315578495559 3.6939733294004604 0 0 1 I I #
edge $-1 $433 -38.8315578495559 $430 38.8315578495559 $419 $569 forward 7 unknown #
coedge $-1 $287 $424 $559 $570 forward $425 $-1 #
vertex $-1 $428 $571 #
straight-curve $-1 -30.571492954074596 -38.8315578495559 5.7975991367485298 1 0 0 I I #
coedge $-1 $420 $289 $560 $572 reversed $172 $-1 #
vertex $-1 $428 $573 #
straight-curve $-1 -30.571492954074596 38.8315578495559 5.7975991367485298 -1 0 0 I I #
point $-1 -57.154589633004221 38.8315578495559 5.7975991367485298 #
point $-1 -57.154589633004221 -38.8315578495559 5.7975991367485298 #
face $-1 $-1 $310 $41 $-1 $574 reversed single #
loop $-1 $-1 $301 $295 #
plane-surface $-1 0 38.8315578495559 0 0 -1 0 0 0 -1 forward_v I I I I #
coedge $-1 $304 $575 $444 $576 forward $296 $-1 #
coedge $-1 $577 $298 $575 $578 forward $180 $-1 #
coedge $-1 $298 $577 $446 $579 forward $180 $-1 #
edge $-1 $448 -38.8315578495559 $580 38.8315578495559 $298 $581 forward 7 unknown #
coedge $-1 $300 $299 $440 $576 reversed $113 $-1 #
edge $-1 $451 -38.8315578495559 $447 38.8315578495559 $299 $582 forward 7 unknown #
coedge $-1 $453 $301 $442 $579 reversed $438 $-1 #
vertex $-1 $307 $583 #
vertex $-1 $302 $584 #
straight-curve $-1 57.154589633004228 38.8315578495559 3.6939733294004604 0 0 1 I I #
coedge $-1 $575 $304 $309 $457 reversed $296 $-1 #
vertex $-1 $305 $585 #
straight-curve $-1 30.5714929540746 -38.8315578495559 5.7975991367485298 1 0 0 I I #
coedge $-1 $306 $446 $308 $456 forward $438 $-1 #
straight-curve $-1 30.5714929540746 38.8315578495559 5.7975991367485298 -1 0 0 I I #
coedge $-1 $309 $308 $577 $586 reversed $310 $-1 #
edge $-1 $587 -8.978294180853311 $312 -5.7975991367485298 $308 $588 forward 7 unknown #
edge $-1 $589 -8.978294180853311 $311 -5.7975991367485298 $309 $590 forward 7 unknown #
point $-1 65.131382183294164 -38.8315578495559 5.7975991367485298 #
point $-1 65.131382183294164 38.8315578495559 5.7975991367485298 #
plane-surface $-1 0 0 8.978294180853311 0 0 1 1 0 0 forward_v I I I I #
coedge $-1 $471 $470 $463 $591 forward $315 $-1 #
coedge $-1 $463 $317 $319 $467 reversed $188 $-1 #
coedge $-1 $317 $462 $461 $591 reversed $188 $-1 #
coedge $-1 $325 $320 $317 $465 forward $326 $-1 #
edge $-1 $468 5.0053872969621658 $592 16.509569814449268 $464 $593 forward 7 unknown #
coedge $-1 $319 $318 $471 $594 reversed $117 $-1 #
edge $-1 $595 -77.663115699111799 $468 -63.945950675380814 $462 $596 forward 7 unknown #
vertex $-1 $321 $597 #
straight-curve $-1 4.7344466020795721 27.327375332068801 8.9782941808533074 1 0 0 I I #
coedge $-1 $461 $322 $325 $475 reversed $315 $-1 #
coedge $-1 $322 $461 $466 $594 forward $315 $-1 #
vertex $-1 $323 $598 #
straight-curve $-1 -3.2588916126708547 38.8315578495559 76.526650737969931 0 0 1 I I #
straight-curve $-1 -3.2588916126708547 -26.302211142332133 43.805755506120605 0 0.83867056331134215 -0.54463904215088732 I I #
edge $-1 $592 -22.196678020989143 $327 3.2588916126708547 $470 $599 forward 7 unknown #
point $-1 -3.2588916126708547 38.8315578495559 8.978294180853311 #
point $-1 -3.2588916126708547 27.327375332068797 8.978294180853311 #
edge $-1 $600 1 $600 0 $330 $-1 forward 7 unknown #
vertex $-1 $331 $601 #
ellipse-curve $-1 1.8322223140611413 31.072245584002435 2.1519931256336378 0 0.54463904215088732 0.83867056331134215 2.5 0 0 1 I I #
point $-1 4.3322223140611413 33.079466590812366 5.2428423710780683 #
edge $-1 $602 1 $602 0 $334 $-1 forward 7 unknown #
vertex $-1 $335 $603 #
ellipse-curve $-1 9.4688932041591443 31.072245584002435 2.1519931256336378 0 0.54463904215088732 0.83867056331134215 2.5 0 0 1 I I #
point $-1 11.968893204159144 33.079466590812366 5.2428423710780683 #
edge $-1 $604 1 $604 0 $338 $-1 forward 7 unknown #
vertex $-1 $339 $605 #
ellipse-curve $-1 17.105564094257147 31.072245584002435 2.1519931256336378 0 0.54463904215088732 0.83867056331134215 2.5 0 0 1 I I #
point $-1 19.605564094257147 33.079466590812366 5.2428423710780683 #
loop $-1 $-1 $350 $342 #
plane-surface $-1 0 -38.8315578495559 0 0 1 0 0 0 1 forward_v I I I I #
coedge $-1 $493 $345 $347 $497 reversed $217 $-1 #
coedge $-1 $345 $492 $606 $607 reversed $217 $-1 #
coedge $-1 $353 $348 $345 $495 forward $343 $-1 #
edge $-1 $498 -23.932141161830501 $608 -17.942047643997974 $494 $609 forward 7 unknown #
coedge $-1 $347 $346 $501 $610 reversed $136 $-1 #
edge $-1 $611 8.8770546250341341e-015 $498 7.3125539970813715 $492 $612 forward 7 unknown #
vertex $-1 $349 $613 #
straight-curve $-1 -6.4151829312630326 -32.841464331723373 8.978294180853311 -1 0 0 I I #
coedge $-1 $606 $350 $353 $505 reversed $490 $-1 #
coedge $-1 $350 $606 $496 $610 forward $490 $-1 #
vertex $-1 $351 $614 #
straight-curve $-1 -3.0783105880376063 -38.8315578495559 55.74449725795175 0 0 1 I I #
straight-curve $-1 -3.0783105880376063 -38.831557849555907 4.7839854645269355 0 -0.81915203911291934 -0.57357644374324357 I I #
edge $-1 $608 -22.582421137014524 $354 -3.0783105880376063 $500 $615 forward 7 unknown #
point $-1 -3.0783105880376063 -38.8315578495559 8.978294180853311 #
point $-1 -3.0783105880376063 -32.841464331723373 8.978294180853311 #
edge $-1 $616 1 $616 0 $357 $-1 forward 7 unknown #
vertex $-1 $358 $617 #
ellipse-curve $-1 -17.00981812302112 -34.555989908073364 5.0523660833417816 0 -0.57357644374324357 0.81915203911291934 1 0 0 1 I I #
point $-1 -16.00981812302112 -35.836511090639647 6.8811398226901321 #
edge $-1 $618 1 $618 0 $361 $-1 forward 7 unknown #
vertex $-1 $362 $619 #
ellipse-curve $-1 -8.6509136020310109 -34.555989908073364 5.0523660833417816 0 -0.57357644374324357 0.81915203911291934 1 0 0 1 I I #
point $-1 -7.6509136020310109 -35.836511090639647 6.8811398226901321 #
plane-surface $-1 0 0 8.978294180853311 0 0 1 1 0 0 forward_v I I I I #
coedge $-1 $527 $526 $519 $620 forward $366 $-1 #
coedge $-1 $519 $368 $370 $523 reversed $239 $-1 #
coedge $-1 $368 $518 $517 $620 reversed $239 $-1 #
coedge $-1 $376 $371 $368 $521 forward $377 $-1 #
edge $-1 $524 -23.932141161830501 $621 -17.942047643997974 $520 $622 forward 7 unknown #
coedge $-1 $370 $369 $527 $623 reversed $150 $-1 #
edge $-1 $624 8.8770546250341341e-015 $524 7.3125539970813715 $518 $625 forward 7 unknown #
vertex $-1 $372 $626 #
straight-curve $-1 22.162111885239078 -32.841464331723373 8.978294180853311 -1 0 0 I I #
coedge $-1 $517 $373 $376 $531 reversed $366 $-1 #
coedge $-1 $373 $517 $522 $623 forward $366 $-1 #
vertex $-1 $374 $627 #
straight-curve $-1 54.076279044966611 -38.8315578495559 55.74449725795175 0 0 1 I I #
straight-curve $-1 54.076279044966611 -38.831557849555907 4.7839854645269355 0 -0.81915203911291934 -0.57357644374324357 I I #
edge $-1 $621 34.5721684959897 $378 54.076279044966611 $526 $628 forward 7 unknown #
point $-1 54.076279044966611 -38.8315578495559 8.978294180853311 #
point $-1 54.076279044966611 -32.841464331723373 8.978294180853311 #
edge $-1 $629 1 $629 0 $381 $-1 forward 7 unknown #
vertex $-1 $382 $630 #
ellipse-curve $-1 40.144771509983102 -34.555989908073364 5.0523660833417816 0 -0.57357644374324357 0.81915203911291934 1 0 0 1 I I #
point $-1 41.144771509983102 -35.836511090639647 6.8811398226901321 #
edge $-1 $631 1 $631 0 $385 $-1 forward 7 unknown #
vertex $-1 $386 $632 #
ellipse-curve $-1 48.50367603097321 -34.555989908073364 5.0523660833417816 0 -0.57357644374324357 0.81915203911291934 1 0 0 1 I I #
point $-1 49.50367603097321 -35.836511090639647 6.8811398226901321 #
plane-surface $-1 65.131382183294164 0 0 -1 0 0 0 0 1 forward_v I I I I #
coedge $-1 $394 $392 $396 $547 reversed $261 $-1 #
edge $-1 $407 -8.978294180853311 $549 8.978294180853311 $406 $633 forward 7 unknown #
vertex $-1 $547 $634 #
straight-curve $-1 -65.131382183294164 -38.8315578495559 0 0 0 -1 I I #
edge $-1 $545 -38.8315578495559 $549 38.8315578495559 $543 $635 forward 7 unknown #
straight-curve $-1 0 -38.8315578495559 -8.978294180853311 -1 0 0 I I #
vertex $-1 $399 $636 #
straight-curve $-1 0 38.8315578495559 -8.978294180853311 1 0 0 I I #
point $-1 65.131382183294164 38.8315578495559 -8.978294180853311 #
point $-1 65.131382183294164 -38.8315578495559 -8.978294180853311 #
straight-curve $-1 -65.131382183294164 0 8.978294180853311 0 -1 0 I I #
point $-1 -65.131382183294164 38.8315578495559 8.978294180853311 #
point $-1 -65.131382183294164 -38.8315578495559 8.978294180853311 #
straight-curve $-1 65.131382183294164 -38.8315578495559 0 0 0 -1 I I #
straight-curve $-1 65.131382183294164 38.8315578495559 0 0 0 -1 I I #
plane-surface $-1 0 -38.8315578495559 0 0 1 0 0 0 1 forward_v I I I I #
coedge $-1 $637 $419 $429 $570 reversed $280 $-1 #
coedge $-1 $419 $637 $432 $572 forward $280 $-1 #
coedge $-1 $638 $422 $420 $562 forward $417 $-1 #
edge $-1 $563 57.154589633004221 $639 65.131382183294164 $420 $640 forward 7 unknown #
vertex $-1 $562 $641 #
straight-curve $-1 -57.154589633004221 38.8315578495559 3.6939733294004604 0 0 -1 I I #
coedge $-1 $422 $638 $424 $567 forward $417 $-1 #
straight-curve $-1 -57.154589633004221 0 8.978294180853311 0 1 0 I I #
edge $-1 $642 -65.131382183294164 $426 -57.154589633004221 $424 $643 forward 7 unknown #
point $-1 -57.154589633004221 -38.8315578495559 8.978294180853311 #
straight-curve $-1 -65.131382183294164 0 5.7975991367485298 0 -1 0 I I #
edge $-1 $642 -8.978294180853311 $430 -5.7975991367485298 $559 $644 forward 7 unknown #
point $-1 -65.131382183294164 -38.8315578495559 5.7975991367485298 #
edge $-1 $639 -8.978294180853311 $433 -5.7975991367485298 $432 $645 forward 7 unknown #
point $-1 -65.131382183294164 38.8315578495559 5.7975991367485298 #
plane-surface $-1 65.131382183294164 0 0 -1 0 0 0 0 1 forward_v I I I I #
coedge $-1 $440 $450 $441 $578 reversed $296 $-1 #
edge $-1 $580 -5.2843208514528506 $451 -2.1036258073480694 $440 $646 forward 7 unknown #
coedge $-1 $442 $441 $455 $586 forward $180 $-1 #
edge $-1 $580 57.154589633004228 $589 65.131382183294164 $575 $647 forward 7 unknown #
edge $-1 $587 -65.131382183294164 $448 -57.154589633004228 $446 $648 forward 7 unknown #
vertex $-1 $578 $649 #
straight-curve $-1 57.154589633004228 0 8.978294180853311 0 -1 0 I I #
straight-curve $-1 57.154589633004228 0 5.7975991367485298 0 1 0 I I #
point $-1 57.154589633004228 38.8315578495559 5.7975991367485298 #
point $-1 57.154589633004228 38.8315578495559 8.978294180853311 #
point $-1 57.154589633004228 -38.8315578495559 5.7975991367485298 #
edge $-1 $589 -38.8315578495559 $587 38.8315578495559 $455 $650 forward 7 unknown #
vertex $-1 $586 $651 #
straight-curve $-1 65.131382183294164 38.8315578495559 0 0 0 -1 I I #
vertex $-1 $586 $652 #
straight-curve $-1 65.131382183294164 -38.8315578495559 0 0 0 -1 I I #
edge $-1 $592 67.54835655711662 $595 75.019260176667117 $461 $653 forward 7 unknown #
vertex $-1 $475 $654 #
straight-curve $-1 22.196678020989143 22.321988035106632 8.978294180853311 0 1 0 I I #
edge $-1 $595 -17.462231418909571 $472 7.9933382147504268 $471 $655 forward 7 unknown #
vertex $-1 $594 $656 #
straight-curve $-1 22.196678020989143 -26.302211142332133 43.805755506120605 0 -0.83867056331134215 0.54463904215088732 I I #
point $-1 22.196678020989143 27.327375332068797 8.978294180853311 #
point $-1 -3.2588916126708547 38.8315578495559 1.5073905613028131 #
straight-curve $-1 0 38.8315578495559 8.978294180853311 -1 0 0 I I #
vertex $-1 $478 $657 #
point $-1 4.3322223140611413 31.072245584002435 2.1519931256336378 #
vertex $-1 $482 $658 #
point $-1 11.968893204159144 31.072245584002435 2.1519931256336378 #
vertex $-1 $486 $659 #
point $-1 19.605564094257147 31.072245584002435 2.1519931256336378 #
coedge $-1 $501 $500 $493 $607 forward $490 $-1 #
edge $-1 $608 46.766203077098439 $611 50.960511793424807 $606 $660 forward 7 unknown #
vertex $-1 $505 $661 #
straight-curve $-1 -22.582421137014524 -56.773605493553873 8.978294180853311 0 -1 0 I I #
edge $-1 $611 -16.167238205751492 $502 3.3368723432254264 $501 $662 forward 7 unknown #
vertex $-1 $610 $663 #
straight-curve $-1 -22.582421137014524 -38.831557849555907 4.7839854645269355 0 0.81915203911291934 0.57357644374324357 I I #
point $-1 -22.582421137014524 -32.841464331723373 8.978294180853311 #
point $-1 -3.0783105880376063 -38.8315578495559 4.7839854645269408 #
straight-curve $-1 0 -38.8315578495559 8.978294180853311 1 0 0 I I #
vertex $-1 $508 $664 #
point $-1 -16.00981812302112 -34.555989908073364 5.0523660833417816 #
vertex $-1 $512 $665 #
point $-1 -7.6509136020310109 -34.555989908073364 5.0523660833417816 #
edge $-1 $621 46.766203077098439 $624 50.960511793424807 $517 $666 forward 7 unknown #
vertex $-1 $531 $667 #
straight-curve $-1 34.5721684959897 -56.773605493553873 8.978294180853311 0 -1 0 I I #
edge $-1 $624 12.410056610750622 $528 31.914167159727533 $527 $668 forward 7 unknown #
vertex $-1 $623 $669 #
straight-curve $-1 34.5721684959897 -38.831557849555907 4.7839854645269355 0 0.81915203911291934 0.57357644374324357 I I #
point $-1 34.5721684959897 -32.841464331723373 8.978294180853311 #
point $-1 54.076279044966611 -38.8315578495559 4.7839854645269408 #
straight-curve $-1 0 -38.8315578495559 8.978294180853311 1 0 0 I I #
vertex $-1 $534 $670 #
point $-1 41.144771509983102 -34.555989908073364 5.0523660833417816 #
vertex $-1 $538 $671 #
point $-1 49.50367603097321 -34.555989908073364 5.0523660833417816 #
straight-curve $-1 -65.131382183294164 38.8315578495559 0 0 0 -1 I I #
point $-1 -65.131382183294164 -38.8315578495559 -8.978294180853311 #
straight-curve $-1 -65.131382183294164 0 -8.978294180853311 0 1 0 I I #
point $-1 -65.131382183294164 38.8315578495559 -8.978294180853311 #
coedge $-1 $560 $559 $638 $672 reversed $280 $-1 #
coedge $-1 $565 $561 $637 $672 forward $417 $-1 #
vertex $-1 $562 $673 #
straight-curve $-1 0 38.8315578495559 8.978294180853311 -1 0 0 I I #
point $-1 -57.154589633004221 38.8315578495559 8.978294180853311 #
vertex $-1 $672 $674 #
straight-curve $-1 0 -38.8315578495559 8.978294180853311 1 0 0 I I #
straight-curve $-1 -65.131382183294164 -38.8315578495559 0 0 0 -1 I I #
straight-curve $-1 -65.131382183294164 38.8315578495559 0 0 0 -1 I I #
straight-curve $-1 57.154589633004228 -38.8315578495559 3.6939733294004604 0 0 -1 I I #
straight-curve $-1 0 -38.8315578495559 8.978294180853311 1 0 0 I I #
straight-curve $-1 0 38.8315578495559 8.978294180853311 -1 0 0 I I #
point $-1 57.154589633004228 -38.8315578495559 8.978294180853311 #
straight-curve $-1 65.131382183294164 0 8.978294180853311 0 1 0 I I #
point $-1 65.131382183294164 38.8315578495559 8.978294180853311 #
point $-1 65.131382183294164 -38.8315578495559 8.978294180853311 #
straight-curve $-1 22.196678020989143 38.8315578495559 76.526650737969931 0 0 -1 I I #
point $-1 22.196678020989143 38.8315578495559 8.978294180853311 #
straight-curve $-1 4.7344466020795721 38.8315578495559 1.5073905613028167 -1 0 0 I I #
point $-1 22.196678020989143 38.8315578495559 1.5073905613028131 #
point $-1 1.8322223140611413 29.710647978625214 0.055316717355282208 #
point $-1 9.4688932041591443 29.710647978625214 0.055316717355282208 #
point $-1 17.105564094257147 29.710647978625214 0.055316717355282208 #
straight-curve $-1 -22.582421137014524 -38.8315578495559 55.74449725795175 0 0 -1 I I #
point $-1 -22.582421137014524 -38.8315578495559 8.978294180853311 #
straight-curve $-1 -6.4151829312630326 -38.8315578495559 4.7839854645269408 1 0 0 I I #
point $-1 -22.582421137014524 -38.8315578495559 4.7839854645269408 #
point $-1 -17.00981812302112 -33.982413464330115 4.2332140442288617 #
point $-1 -8.6509136020310109 -33.982413464330115 4.2332140442288617 #
straight-curve $-1 34.5721684959897 -38.8315578495559 55.74449725795175 0 0 -1 I I #
point $-1 34.5721684959897 -38.8315578495559 8.978294180853311 #
straight-curve $-1 22.162111885239078 -38.8315578495559 4.7839854645269408 1 0 0 I I #
point $-1 34.5721684959897 -38.8315578495559 4.7839854645269408 #
point $-1 40.144771509983102 -33.982413464330115 4.2332140442288617 #
point $-1 48.50367603097321 -33.982413464330115 4.2332140442288617 #
edge $-1 $639 -38.8315578495559 $642 38.8315578495559 $637 $675 forward 7 unknown #
point $-1 -65.131382183294164 38.8315578495559 8.978294180853311 #
point $-1 -65.131382183294164 -38.8315578495559 8.978294180853311 #
straight-curve $-1 -65.131382183294164 0 8.978294180853311 0 -1 0 I I #
End-of-ACIS-data 