500 0 6 0           
7 Unknown 11 ACIS 5.0 NT 24 Thu Mar 25 23:41:12 1999 
-1 9.9999999999999995e-007 1e-010 
body $-1 $6 $-1 $7 #
body $-1 $8 $-1 $9 #
body $-1 $10 $-1 $11 #
body $-1 $12 $-1 $13 #
body $-1 $14 $-1 $15 #
body $-1 $16 $-1 $17 #
lump $-1 $-1 $18 $0 #
transform $-1 1 0 0 0 1 0 0 0 1 52.394177068391983 35.911285882927793 14.307414893516571 1 rotate no_reflect no_shear #
lump $-1 $-1 $19 $1 #
transform $-1 1 0 0 0 1 0 0 0 1 52.394177068391983 35.911285882927793 14.307414893516571 1 rotate no_reflect no_shear #
lump $-1 $-1 $20 $2 #
transform $-1 1 0 0 0 1 0 0 0 1 52.394177068391983 35.911285882927793 14.307414893516571 1 rotate no_reflect no_shear #
lump $-1 $-1 $21 $3 #
transform $-1 1 0 0 0 1 0 0 0 1 52.394177068391983 35.911285882927793 14.307414893516571 1 rotate no_reflect no_shear #
lump $-1 $-1 $22 $4 #
transform $-1 1 0 0 0 1 0 0 0 1 52.394177068391983 35.911285882927793 14.307414893516571 1 rotate no_reflect no_shear #
lump $-1 $-1 $23 $5 #
transform $-1 1 0 0 0 1 0 0 0 1 52.394177068391983 35.911285882927793 14.307414893516571 1 rotate no_reflect no_shear #
shell $-1 $-1 $-1 $24 $-1 $6 #
shell $-1 $-1 $-1 $25 $-1 $8 #
shell $-1 $-1 $-1 $26 $-1 $10 #
shell $-1 $-1 $-1 $27 $-1 $12 #
shell $-1 $-1 $-1 $28 $-1 $14 #
shell $-1 $-1 $-1 $29 $-1 $16 #
face $-1 $30 $31 $18 $-1 $32 reversed single #
face $-1 $33 $34 $19 $-1 $35 forward single #
face $-1 $36 $37 $20 $-1 $38 forward single #
face $-1 $39 $40 $21 $-1 $41 reversed single #
face $-1 $42 $43 $22 $-1 $44 forward single #
face $-1 $45 $46 $23 $-1 $47 forward single #
face $-1 $48 $49 $18 $-1 $50 forward single #
loop $-1 $-1 $51 $24 #
plane-surface $-1 0 -35.911285882927793 0 0 1 0 0 0 1 forward_v I I I I #
face $-1 $52 $53 $19 $-1 $54 forward single #
loop $-1 $-1 $55 $25 #
plane-surface $-1 0 -35.911285882927793 0 0 1 0 0 0 1 forward_v I I I I #
face $-1 $56 $57 $20 $-1 $58 forward single #
loop $-1 $-1 $59 $26 #
plane-surface $-1 0 35.911285882927793 0 0 -1 0 0 0 -1 forward_v I I I I #
face $-1 $60 $61 $21 $-1 $62 reversed single #
loop $-1 $-1 $63 $27 #
plane-surface $-1 -131.47895269974578 11.353181392214946 76.222930937863168 0 1 0 -0.75470958851134928 0 0.65605901945558964 forward_v I I I I #
face $-1 $64 $65 $22 $-1 $66 forward single #
loop $-1 $67 $68 $28 #
cone-surface $-1 -49.047413255342377 13.138340143379843 10.563470973290283 0.75470958851134928 0 -0.65605901945558964 0.32802950972779482 0 0.37735479425567464 1 I I 0 1 0.5 forward I I I I #
face $-1 $69 $70 $23 $-1 $71 forward single #
loop $-1 $72 $73 $29 #
cone-surface $-1 -49.047413255342377 15.816078270127178 10.563470973290283 0.75470958851134928 0 -0.65605901945558964 0.32802950972779482 0 0.37735479425567464 1 I I 0 1 0.5 forward I I I I #
face $-1 $74 $75 $18 $-1 $76 reversed single #
loop $-1 $-1 $77 $30 #
plane-surface $-1 0 0 14.307414893516571 0 0 1 1 0 0 forward_v I I I I #
coedge $-1 $78 $79 $80 $81 reversed $31 $-1 #
face $-1 $82 $83 $19 $-1 $84 reversed single #
loop $-1 $-1 $85 $33 #
plane-surface $-1 0 0 14.307414893516571 0 0 1 1 0 0 forward_v I I I I #
coedge $-1 $86 $87 $88 $89 forward $34 $-1 #
face $-1 $90 $91 $20 $-1 $92 reversed single #
loop $-1 $-1 $93 $36 #
plane-surface $-1 0 0 14.307414893516571 0 0 1 1 0 0 forward_v I I I I #
coedge $-1 $94 $95 $96 $97 forward $37 $-1 #
face $-1 $98 $99 $21 $-1 $100 reversed single #
loop $-1 $-1 $101 $39 #
plane-surface $-1 -52.394177068391997 14.477209206753507 7.4755860725196044 -0.75470958851134928 0 0.65605901945558964 0.65605901945558964 0 0.75470958851134928 forward_v I I I I #
coedge $-1 $102 $103 $104 $105 reversed $40 $-1 #
face $-1 $-1 $106 $22 $-1 $107 forward single #
loop $-1 $108 $109 $42 #
cone-surface $-1 -48.481381063958864 13.138340143379843 10.07142670869859 0.75470958851134928 0 -0.65605901945558964 0.16401475486389741 0 0.18867739712783732 1 I I -0.70710678118654746 0.70710678118654746 0.25 forward I I I I #
loop $-1 $-1 $110 $28 #
coedge $-1 $68 $68 $111 $112 reversed $43 $-1 #
face $-1 $-1 $113 $23 $-1 $114 forward single #
loop $-1 $115 $116 $45 #
cone-surface $-1 -48.481381063958864 15.816078270127178 10.07142670869859 0.75470958851134928 0 -0.65605901945558964 0.16401475486389741 0 0.18867739712783732 1 I I -0.70710678118654746 0.70710678118654746 0.25 forward I I I I #
loop $-1 $-1 $117 $29 #
coedge $-1 $73 $73 $118 $119 reversed $46 $-1 #
face $-1 $120 $121 $18 $-1 $122 reversed single #
loop $-1 $-1 $123 $48 #
plane-surface $-1 0 0 -14.307414893516571 0 0 1 1 0 0 forward_v I I I I #
coedge $-1 $124 $125 $126 $127 forward $49 $-1 #
coedge $-1 $128 $51 $129 $130 reversed $31 $-1 #
coedge $-1 $51 $128 $131 $132 forward $31 $-1 #
coedge $-1 $133 $123 $51 $81 forward $75 $-1 #
edge $-1 $134 -52.394177068391983 $135 52.394177068391983 $51 $136 forward 7 unknown #
face $-1 $137 $138 $19 $-1 $139 reversed single #
loop $-1 $-1 $140 $52 #
plane-surface $-1 -52.394177068391983 0 0 1 0 0 0 0 -1 forward_v I I I I #
coedge $-1 $141 $142 $87 $143 forward $53 $-1 #
coedge $-1 $144 $55 $145 $146 reversed $34 $-1 #
coedge $-1 $55 $144 $85 $143 reversed $34 $-1 #
coedge $-1 $147 $148 $55 $89 reversed $149 $-1 #
edge $-1 $150 -14.307414893516571 $151 14.307414893516571 $88 $152 forward 7 unknown #
face $-1 $153 $154 $20 $-1 $155 reversed single #
loop $-1 $-1 $156 $56 #
plane-surface $-1 -49.059768247494759 50.124185470561898 0 0 -1 0 0 0 -1 forward_v I I I I #
coedge $-1 $157 $158 $94 $159 forward $57 $-1 #
coedge $-1 $160 $59 $93 $159 reversed $37 $-1 #
coedge $-1 $59 $160 $161 $162 reversed $37 $-1 #
coedge $-1 $163 $164 $59 $97 reversed $154 $-1 #
edge $-1 $165 -14.307414893516571 $166 14.307414893516571 $96 $167 forward 7 unknown #
face $-1 $168 $169 $21 $-1 $170 reversed single #
loop $-1 $-1 $171 $60 #
plane-surface $-1 -131.47895269974578 17.601237021292068 76.222930937863168 0 -1 0 0.75470958851134928 0 -0.65605901945558964 forward_v I I I I #
coedge $-1 $172 $173 $174 $175 reversed $61 $-1 #
coedge $-1 $103 $63 $176 $177 reversed $40 $-1 #
coedge $-1 $63 $102 $172 $178 reversed $40 $-1 #
coedge $-1 $174 $179 $63 $105 forward $180 $-1 #
edge $-1 $181 13.345299281480905 $182 19.284117319068741 $104 $183 forward 7 unknown #
loop $-1 $-1 $111 $64 #
plane-surface $-1 -52.394177068391997 14.477209206753507 7.4755860725196044 -0.75470958851134928 0 0.65605901945558964 0.65605901945558964 0 0.75470958851134928 forward_v I I I I #
loop $-1 $-1 $184 $42 #
coedge $-1 $109 $109 $110 $185 reversed $65 $-1 #
coedge $-1 $110 $110 $109 $185 forward $67 $-1 #
coedge $-1 $111 $111 $68 $112 forward $106 $-1 #
edge $-1 $186 0 $186 6.2831853071796004 $111 $187 forward 7 unknown #
loop $-1 $-1 $118 $69 #
plane-surface $-1 -52.394177068391997 14.477209206753507 7.4755860725196044 -0.75470958851134928 0 0.65605901945558964 0.65605901945558964 0 0.75470958851134928 forward_v I I I I #
loop $-1 $-1 $188 $45 #
coedge $-1 $116 $116 $117 $189 reversed $70 $-1 #
coedge $-1 $117 $117 $116 $189 forward $72 $-1 #
coedge $-1 $118 $118 $73 $119 forward $113 $-1 #
edge $-1 $190 0 $190 6.2831853071796004 $118 $191 forward 7 unknown #
face $-1 $192 $193 $18 $-1 $194 reversed single #
loop $-1 $-1 $195 $74 #
plane-surface $-1 -52.394177068391983 0 0 1 0 0 0 0 -1 forward_v I I I I #
coedge $-1 $80 $196 $197 $198 forward $75 $-1 #
coedge $-1 $199 $77 $200 $201 forward $49 $-1 #
coedge $-1 $77 $199 $128 $202 forward $49 $-1 #
coedge $-1 $129 $203 $77 $127 reversed $204 $-1 #
edge $-1 $205 -35.911285882927793 $206 35.911285882927793 $126 $207 forward 7 unknown #
coedge $-1 $79 $78 $125 $202 reversed $31 $-1 #
coedge $-1 $197 $126 $78 $130 forward $204 $-1 #
edge $-1 $205 -14.307414893516571 $134 14.307414893516571 $129 $208 forward 7 unknown #
coedge $-1 $209 $210 $79 $132 reversed $121 $-1 #
edge $-1 $211 -14.307414893516571 $135 14.307414893516571 $131 $212 forward 7 unknown #
coedge $-1 $196 $80 $210 $213 forward $75 $-1 #
vertex $-1 $130 $214 #
vertex $-1 $213 $215 #
straight-curve $-1 0 -35.911285882927793 -14.307414893516571 -1 0 0 I I #
face $-1 $216 $149 $19 $-1 $217 reversed single #
loop $-1 $-1 $218 $82 #
plane-surface $-1 -49.059768247494759 -50.124185470561905 0 0 1 0 0 0 1 forward_v I I I I #
coedge $-1 $219 $220 $144 $221 forward $83 $-1 #
coedge $-1 $222 $85 $220 $223 forward $53 $-1 #
coedge $-1 $85 $222 $147 $224 forward $53 $-1 #
edge $-1 $150 45.725359426597535 $225 52.394177068391983 $85 $226 forward 7 unknown #
coedge $-1 $87 $86 $140 $221 reversed $34 $-1 #
coedge $-1 $227 $228 $86 $146 forward $229 $-1 #
edge $-1 $230 -52.394177068391983 $151 -45.725359426597535 $145 $231 forward 7 unknown #
coedge $-1 $232 $88 $142 $224 reversed $149 $-1 #
coedge $-1 $88 $232 $227 $233 reversed $149 $-1 #
loop $-1 $-1 $232 $137 #
vertex $-1 $143 $234 #
vertex $-1 $233 $235 #
straight-curve $-1 -45.725359426597535 -35.911285882927793 0 0 0 -1 I I #
face $-1 $236 $237 $20 $-1 $238 reversed single #
loop $-1 $-1 $96 $90 #
plane-surface $-1 -45.725359426597535 43.017735676744842 0 -1 0 0 0 0 1 forward_v I I I I #
coedge $-1 $239 $240 $241 $242 forward $91 $-1 #
coedge $-1 $243 $93 $164 $244 forward $57 $-1 #
coedge $-1 $93 $243 $245 $246 forward $57 $-1 #
edge $-1 $247 -52.394177068391983 $166 -45.725359426597535 $93 $248 forward 7 unknown #
coedge $-1 $95 $94 $249 $250 reversed $37 $-1 #
coedge $-1 $251 $252 $95 $162 forward $237 $-1 #
edge $-1 $165 45.725359426597535 $253 52.394177068391983 $161 $254 forward 7 unknown #
coedge $-1 $241 $96 $252 $255 reversed $154 $-1 #
coedge $-1 $96 $241 $157 $244 reversed $154 $-1 #
vertex $-1 $162 $256 #
vertex $-1 $244 $257 #
straight-curve $-1 -45.725359426597535 35.911285882927793 0 0 0 1 I I #
face $-1 $-1 $180 $21 $-1 $258 forward single #
loop $-1 $-1 $259 $98 #
plane-surface $-1 -52.394177068391983 0 0 1 0 0 0 0 -1 forward_v I I I I #
coedge $-1 $260 $261 $262 $263 reversed $99 $-1 #
coedge $-1 $264 $101 $103 $178 forward $61 $-1 #
coedge $-1 $101 $264 $260 $265 forward $61 $-1 #
coedge $-1 $262 $104 $101 $175 forward $180 $-1 #
edge $-1 $182 4.1145767888381926 $266 10.362632417915314 $174 $267 forward 7 unknown #
coedge $-1 $268 $269 $102 $177 forward $169 $-1 #
edge $-1 $270 -30.635879396411966 $181 -23.804050575415012 $176 $271 forward 7 unknown #
edge $-1 $182 -9.0522618567396549 $270 -2.1388861263899031e-014 $103 $272 forward 7 unknown #
coedge $-1 $104 $262 $268 $273 forward $180 $-1 #
loop $-1 $-1 $262 $168 #
vertex $-1 $177 $274 #
vertex $-1 $105 $275 #
straight-curve $-1 -65.739476349872888 11.353181392214946 14.307414893516572 1 0 0 I I #
coedge $-1 $184 $184 $-1 $276 reversed $108 $-1 #
edge $-1 $277 0 $277 6.2831853071796004 $109 $278 forward 7 unknown #
vertex $-1 $112 $279 #
ellipse-curve $-1 -49.424768049598065 13.138340143379843 10.891500483018092 -0.75470958851134928 0 0.65605901945558964 0.32802950972779482 0 0.37735479425567464 1 I I #
coedge $-1 $188 $188 $-1 $280 reversed $115 $-1 #
edge $-1 $281 0 $281 6.2831853071796004 $116 $282 forward 7 unknown #
vertex $-1 $119 $283 #
ellipse-curve $-1 -49.424768049598065 15.816078270127178 10.891500483018092 -0.75470958851134928 0 0.65605901945558964 0.32802950972779482 0 0.37735479425567464 1 I I #
face $-1 $-1 $204 $18 $-1 $284 reversed single #
loop $-1 $-1 $200 $120 #
plane-surface $-1 0 35.911285882927793 0 0 -1 0 0 0 -1 forward_v I I I I #
coedge $-1 $210 $209 $285 $286 forward $121 $-1 #
coedge $-1 $123 $133 $287 $288 forward $75 $-1 #
coedge $-1 $203 $129 $123 $198 reversed $204 $-1 #
edge $-1 $289 -35.911285882927793 $134 35.911285882927793 $197 $290 forward 7 unknown #
coedge $-1 $125 $124 $209 $291 forward $49 $-1 #
coedge $-1 $292 $285 $124 $201 reversed $193 $-1 #
edge $-1 $206 -52.394177068391983 $293 52.394177068391983 $200 $294 forward 7 unknown #
edge $-1 $211 -52.394177068391983 $205 52.394177068391983 $128 $295 forward 7 unknown #
coedge $-1 $126 $197 $292 $296 reversed $204 $-1 #
loop $-1 $-1 $129 $192 #
vertex $-1 $127 $297 #
vertex $-1 $127 $298 #
straight-curve $-1 52.394177068391983 0 14.307414893516571 0 1 0 I I #
straight-curve $-1 52.394177068391983 -35.911285882927793 0 0 0 -1 I I #
coedge $-1 $195 $131 $199 $291 reversed $121 $-1 #
coedge $-1 $131 $195 $133 $213 reversed $121 $-1 #
vertex $-1 $291 $299 #
straight-curve $-1 -52.394177068391983 -35.911285882927793 0 0 0 -1 I I #
edge $-1 $135 -35.911285882927793 $300 35.911285882927793 $210 $301 forward 7 unknown #
point $-1 52.394177068391983 -35.911285882927793 -14.307414893516571 #
point $-1 -52.394177068391983 -35.911285882927793 -14.307414893516571 #
face $-1 $-1 $229 $19 $-1 $302 reversed single #
plane-surface $-1 -45.725359426597535 -43.017735676744849 0 -1 0 0 0 0 1 forward_v I I I I #
coedge $-1 $303 $304 $305 $306 forward $138 $-1 #
coedge $-1 $305 $140 $228 $307 reversed $83 $-1 #
coedge $-1 $140 $305 $141 $223 reversed $83 $-1 #
edge $-1 $225 -14.307414893516571 $230 14.307414893516571 $140 $308 forward 7 unknown #
coedge $-1 $142 $141 $304 $309 forward $53 $-1 #
edge $-1 $225 35.911285882927793 $310 50.124185470561905 $220 $311 forward 7 unknown #
edge $-1 $312 -7.1064497938170561 $150 7.1064497938170561 $147 $313 forward 7 unknown #
vertex $-1 $223 $314 #
straight-curve $-1 0 -35.911285882927793 14.307414893516571 -1 0 0 I I #
coedge $-1 $315 $145 $148 $233 forward $229 $-1 #
coedge $-1 $145 $315 $219 $307 forward $229 $-1 #
loop $-1 $-1 $145 $216 #
vertex $-1 $221 $316 #
straight-curve $-1 0 -35.911285882927793 -14.307414893516571 1 0 0 I I #
coedge $-1 $148 $147 $317 $318 forward $149 $-1 #
edge $-1 $151 -7.1064497938170561 $319 7.1064497938170561 $148 $320 forward 7 unknown #
point $-1 -45.725359426597535 -35.911285882927793 14.307414893516571 #
point $-1 -45.725359426597535 -35.911285882927793 -14.307414893516571 #
face $-1 $-1 $321 $20 $-1 $322 reversed single #
loop $-1 $-1 $161 $153 #
plane-surface $-1 0 0 -14.307414893516571 0 0 1 1 0 0 forward_v I I I I #
coedge $-1 $323 $156 $324 $325 reversed $91 $-1 #
coedge $-1 $156 $323 $243 $326 reversed $91 $-1 #
coedge $-1 $164 $163 $156 $242 reversed $154 $-1 #
edge $-1 $327 -14.307414893516571 $328 14.307414893516571 $241 $329 forward 7 unknown #
coedge $-1 $158 $157 $240 $326 forward $57 $-1 #
edge $-1 $166 -7.1064497938170561 $327 7.1064497938170561 $164 $330 forward 7 unknown #
coedge $-1 $331 $249 $158 $246 reversed $321 $-1 #
edge $-1 $332 -50.124185470561898 $247 -35.911285882927793 $245 $333 forward 7 unknown #
vertex $-1 $250 $334 #
straight-curve $-1 0 35.911285882927793 14.307414893516571 1 0 0 I I #
coedge $-1 $245 $335 $160 $250 forward $321 $-1 #
edge $-1 $253 -14.307414893516571 $247 14.307414893516571 $249 $336 forward 7 unknown #
coedge $-1 $324 $161 $335 $337 forward $237 $-1 #
coedge $-1 $161 $324 $163 $255 forward $237 $-1 #
vertex $-1 $337 $338 #
straight-curve $-1 0 35.911285882927793 -14.307414893516571 -1 0 0 I I #
edge $-1 $328 -7.1064497938170561 $165 7.1064497938170561 $163 $339 forward 7 unknown #
point $-1 -45.725359426597535 35.911285882927785 -14.307414893516571 #
point $-1 -45.725359426597535 35.911285882927785 14.307414893516571 #
plane-surface $-1 0 0 14.307414893516571 0 0 1 1 0 0 forward_v I I I I #
coedge $-1 $269 $268 $261 $340 forward $169 $-1 #
coedge $-1 $261 $171 $173 $265 reversed $99 $-1 #
coedge $-1 $171 $260 $259 $340 reversed $99 $-1 #
coedge $-1 $179 $174 $171 $263 forward $180 $-1 #
edge $-1 $266 -19.284117319068741 $341 -13.345299281480905 $262 $342 forward 7 unknown #
coedge $-1 $173 $172 $269 $343 reversed $61 $-1 #
edge $-1 $344 2.1388861263899031e-014 $266 9.0522618567396549 $260 $345 forward 7 unknown #
vertex $-1 $175 $346 #
straight-curve $-1 -46.455359030804146 7.2386046033767535 14.307414893516571 0 1 0 I I #
coedge $-1 $259 $176 $179 $273 reversed $169 $-1 #
coedge $-1 $176 $259 $264 $343 forward $169 $-1 #
vertex $-1 $177 $347 #
straight-curve $-1 -52.394177068391983 11.353181392214946 38.111465468931584 0 0 1 I I #
straight-curve $-1 -52.394177068391997 11.353181392214946 7.4755860725196044 -0.65605901945558964 0 -0.75470958851134928 I I #
edge $-1 $341 -17.601237021292068 $181 -11.353181392214946 $268 $348 forward 7 unknown #
point $-1 -52.394177068391983 11.353181392214946 14.307414893516571 #
point $-1 -46.455359030804146 11.353181392214946 14.307414893516571 #
edge $-1 $349 1 $349 0 $184 $-1 forward 7 unknown #
vertex $-1 $185 $350 #
ellipse-curve $-1 -48.670058461086704 13.138340143379843 10.235441463562488 -0.75470958851134928 0 0.65605901945558964 0.32802950972779482 0 0.37735479425567464 1 I I #
point $-1 -49.096738539870259 13.138340143379843 11.268855277273751 #
edge $-1 $351 1 $351 0 $188 $-1 forward 7 unknown #
vertex $-1 $189 $352 #
ellipse-curve $-1 -48.670058461086704 15.816078270127178 10.235441463562488 -0.75470958851134928 0 0.65605901945558964 0.32802950972779482 0 0.37735479425567464 1 I I #
point $-1 -49.096738539870259 15.816078270127178 11.268855277273751 #
plane-surface $-1 52.394177068391983 0 0 -1 0 0 0 0 1 forward_v I I I I #
coedge $-1 $200 $287 $195 $286 reversed $193 $-1 #
edge $-1 $293 -14.307414893516571 $300 14.307414893516571 $285 $353 forward 7 unknown #
coedge $-1 $285 $292 $196 $288 reversed $193 $-1 #
edge $-1 $300 -52.394177068391983 $289 52.394177068391983 $287 $354 forward 7 unknown #
vertex $-1 $198 $355 #
straight-curve $-1 52.394177068391983 0 -14.307414893516571 0 -1 0 I I #
edge $-1 $293 -35.911285882927793 $211 35.911285882927793 $209 $356 forward 7 unknown #
coedge $-1 $287 $200 $203 $296 forward $193 $-1 #
vertex $-1 $201 $357 #
straight-curve $-1 0 35.911285882927793 14.307414893516571 -1 0 0 I I #
straight-curve $-1 0 -35.911285882927793 14.307414893516571 1 0 0 I I #
edge $-1 $206 -14.307414893516571 $289 14.307414893516571 $203 $358 forward 7 unknown #
point $-1 52.394177068391983 -35.911285882927793 14.307414893516571 #
point $-1 52.394177068391983 35.911285882927793 14.307414893516571 #
point $-1 -52.394177068391983 -35.911285882927793 14.307414893516571 #
vertex $-1 $288 $359 #
straight-curve $-1 -52.394177068391983 0 -14.307414893516571 0 1 0 I I #
plane-surface $-1 0 0 -14.307414893516571 0 0 1 1 0 0 forward_v I I I I #
coedge $-1 $317 $218 $315 $360 reversed $138 $-1 #
coedge $-1 $218 $317 $222 $309 reversed $138 $-1 #
coedge $-1 $220 $219 $218 $306 reversed $83 $-1 #
edge $-1 $310 -14.307414893516571 $361 14.307414893516571 $305 $362 forward 7 unknown #
edge $-1 $361 -50.124185470561905 $230 -35.911285882927793 $219 $363 forward 7 unknown #
straight-curve $-1 -52.394177068391983 -35.911285882927793 0 0 0 -1 I I #
edge $-1 $310 -3.3344088208972238 $312 3.3344088208972238 $304 $364 forward 7 unknown #
vertex $-1 $223 $365 #
straight-curve $-1 -52.394177068391983 0 14.307414893516571 0 -1 0 I I #
vertex $-1 $224 $366 #
straight-curve $-1 -45.725359426597535 -43.017735676744849 14.307414893516571 0 1 0 I I #
point $-1 -52.394177068391983 -35.911285882927793 14.307414893516571 #
coedge $-1 $228 $227 $303 $360 forward $229 $-1 #
point $-1 -52.394177068391983 -35.911285882927793 -14.307414893516571 #
coedge $-1 $304 $303 $232 $318 reversed $138 $-1 #
edge $-1 $312 -14.307414893516571 $319 14.307414893516571 $232 $367 forward 7 unknown #
vertex $-1 $318 $368 #
straight-curve $-1 -45.725359426597535 -43.017735676744849 -14.307414893516571 0 -1 0 I I #
loop $-1 $-1 $249 $236 #
plane-surface $-1 -52.394177068391983 0 0 1 0 0 0 0 -1 forward_v I I I I #
coedge $-1 $240 $239 $331 $369 reversed $91 $-1 #
coedge $-1 $252 $251 $239 $325 forward $237 $-1 #
edge $-1 $370 -3.3344088208972238 $328 3.3344088208972238 $239 $371 forward 7 unknown #
edge $-1 $327 -3.3344088208972238 $332 3.3344088208972238 $240 $372 forward 7 unknown #
vertex $-1 $244 $373 #
vertex $-1 $255 $374 #
straight-curve $-1 -45.725359426597535 50.124185470561898 0 0 0 -1 I I #
straight-curve $-1 -45.725359426597535 43.017735676744842 14.307414893516571 0 1 0 I I #
coedge $-1 $335 $245 $323 $369 forward $321 $-1 #
vertex $-1 $326 $375 #
straight-curve $-1 -52.394177068391983 0 14.307414893516571 0 -1 0 I I #
point $-1 -52.394177068391983 35.911285882927793 14.307414893516571 #
coedge $-1 $249 $331 $251 $337 reversed $321 $-1 #
straight-curve $-1 -52.394177068391983 35.911285882927793 0 0 0 1 I I #
edge $-1 $253 -7.106449793817049 $370 7.1064497938170561 $335 $376 forward 7 unknown #
point $-1 -52.394177068391983 35.911285882927793 -14.307414893516571 #
straight-curve $-1 -45.725359426597535 43.017735676744842 -14.307414893516571 0 -1 0 I I #
edge $-1 $341 23.804050575415012 $344 30.635879396411966 $259 $377 forward 7 unknown #
vertex $-1 $273 $378 #
straight-curve $-1 -65.739476349872888 17.601237021292068 14.307414893516572 -1 0 0 I I #
edge $-1 $344 -10.362632417915314 $270 -4.1145767888381926 $269 $379 forward 7 unknown #
vertex $-1 $343 $380 #
straight-curve $-1 -52.394177068391997 17.601237021292068 7.4755860725196044 0.65605901945558964 0 0.75470958851134928 I I #
point $-1 -46.455359030804146 17.601237021292068 14.307414893516571 #
point $-1 -52.394177068391983 11.353181392214946 7.4755860725196204 #
straight-curve $-1 -52.394177068391983 0 14.307414893516571 0 -1 0 I I #
vertex $-1 $276 $381 #
point $-1 -48.342028951358905 13.138340143379843 10.612796257818163 #
vertex $-1 $280 $382 #
point $-1 -48.342028951358905 15.816078270127178 10.612796257818163 #
straight-curve $-1 -52.394177068391983 35.911285882927793 0 0 0 -1 I I #
straight-curve $-1 0 35.911285882927793 -14.307414893516571 1 0 0 I I #
point $-1 52.394177068391983 35.911285882927793 -14.307414893516571 #
straight-curve $-1 -52.394177068391983 0 14.307414893516571 0 -1 0 I I #
point $-1 -52.394177068391983 35.911285882927793 14.307414893516571 #
straight-curve $-1 52.394177068391983 35.911285882927793 0 0 0 -1 I I #
point $-1 -52.394177068391983 35.911285882927793 -14.307414893516571 #
edge $-1 $319 -3.3344088208972238 $361 3.3344088208972238 $303 $383 forward 7 unknown #
vertex $-1 $307 $384 #
straight-curve $-1 -52.394177068391983 -50.124185470561905 0 0 0 -1 I I #
straight-curve $-1 -52.394177068391983 0 -14.307414893516571 0 1 0 I I #
straight-curve $-1 -49.059768247494759 -50.124185470561905 14.307414893516571 1 0 0 I I #
point $-1 -52.394177068391983 -50.124185470561905 14.307414893516571 #
point $-1 -45.725359426597535 -50.124185470561905 14.307414893516571 #
straight-curve $-1 -45.725359426597535 -50.124185470561905 0 0 0 -1 I I #
point $-1 -45.725359426597535 -50.124185470561905 -14.307414893516571 #
edge $-1 $332 -14.307414893516571 $370 14.307414893516571 $323 $385 forward 7 unknown #
vertex $-1 $325 $386 #
straight-curve $-1 -49.059768247494759 50.124185470561898 -14.307414893516571 1 0 0 I I #
straight-curve $-1 -49.059768247494759 50.124185470561898 14.307414893516571 -1 0 0 I I #
point $-1 -45.725359426597535 50.124185470561898 14.307414893516571 #
point $-1 -45.725359426597535 50.124185470561898 -14.307414893516571 #
point $-1 -52.394177068391983 50.124185470561898 14.307414893516571 #
straight-curve $-1 -52.394177068391983 43.017735676744842 -14.307414893516571 0 1 0 I I #
straight-curve $-1 -52.394177068391983 17.601237021292068 38.111465468931584 0 0 -1 I I #
point $-1 -52.394177068391983 17.601237021292068 14.307414893516571 #
straight-curve $-1 -52.394177068391983 7.2386046033767535 7.4755860725196221 0 -1 0 I I #
point $-1 -52.394177068391983 17.601237021292068 7.4755860725196204 #
point $-1 -48.292703666831024 13.138340143379843 9.9074119538346928 #
point $-1 -48.292703666831024 15.816078270127178 9.9074119538346928 #
straight-curve $-1 -49.059768247494759 -50.124185470561905 -14.307414893516571 -1 0 0 I I #
point $-1 -52.394177068391983 -50.124185470561905 -14.307414893516571 #
straight-curve $-1 -52.394177068391983 50.124185470561898 0 0 0 -1 I I #
point $-1 -52.394177068391983 50.124185470561898 -14.307414893516571 #
End-of-ACIS-data 