500 0 7 0           
7 Unknown 11 ACIS 5.0 NT 24 Fri Mar 26 17:11:44 1999 
-1 9.9999999999999995e-007 1e-010 
body $-1 $7 $-1 $8 #
body $-1 $9 $-1 $10 #
body $-1 $11 $-1 $12 #
body $-1 $13 $-1 $14 #
body $-1 $15 $-1 $16 #
body $-1 $17 $-1 $18 #
body $-1 $19 $-1 $20 #
lump $-1 $-1 $21 $0 #
transform $-1 1 0 0 0 1 0 0 0 1 60.435193945127722 32.514233939648825 14.78089315220255 1 rotate no_reflect no_shear #
lump $-1 $-1 $22 $1 #
transform $-1 1 0 0 0 0.62932038083071107 0.77714596973225614 0 -0.77714596973225614 0.62932038083071107 33.267645608666179 -93.933934808886519 101.43109183128273 1 rotate no_reflect no_shear #
lump $-1 $-1 $23 $2 #
transform $-1 1 0 0 0 -0.62932038083071107 -0.77714596973225614 0 0.77714596973225614 -0.62932038083071107 30.659385432346738 4.5792016068308232 25.131232153131517 1 rotate no_reflect no_shear #
lump $-1 $-1 $24 $3 #
transform $-1 1 0 0 0 -0.62932038083071107 -0.77714596973225614 0 0.77714596973225614 -0.62932038083071107 35.875905784985619 4.5792016068308232 25.131232153131517 1 rotate no_reflect no_shear #
lump $-1 $-1 $25 $4 #
transform $-1 1 0 0 0 0.62932038083071107 -0.77714596973225614 0 0.77714596973225614 0.62932038083071107 33.267645608666179 118.03866251754691 151.96770356154238 1 rotate no_reflect no_shear #
lump $-1 $-1 $26 $5 #
transform $-1 1 0 0 0 -0.62932038083071107 0.77714596973225614 0 -0.77714596973225614 -0.62932038083071107 30.659385432346738 60.449266272466822 25.131232153131513 1 rotate no_reflect no_shear #
lump $-1 $-1 $27 $6 #
transform $-1 1 0 0 0 -0.62932038083071107 0.77714596973225614 0 -0.77714596973225614 -0.62932038083071107 35.875905784985619 60.449266272466822 25.131232153131513 1 rotate no_reflect no_shear #
shell $-1 $-1 $-1 $28 $-1 $7 #
shell $-1 $-1 $-1 $29 $-1 $9 #
shell $-1 $-1 $-1 $30 $-1 $11 #
shell $-1 $-1 $-1 $31 $-1 $13 #
shell $-1 $-1 $-1 $32 $-1 $15 #
shell $-1 $-1 $-1 $33 $-1 $17 #
shell $-1 $-1 $-1 $34 $-1 $19 #
face $-1 $35 $36 $21 $-1 $37 forward single #
face $-1 $38 $39 $22 $-1 $40 forward single #
face $-1 $41 $42 $23 $-1 $43 forward single #
face $-1 $44 $45 $24 $-1 $46 forward single #
face $-1 $47 $48 $25 $-1 $49 forward single #
face $-1 $50 $51 $26 $-1 $52 forward single #
face $-1 $53 $54 $27 $-1 $55 forward single #
face $-1 $56 $57 $21 $-1 $58 reversed single #
loop $-1 $-1 $59 $28 #
plane-surface $-1 0 0 14.78089315220255 0 0 1 1 0 0 forward_v I I I I #
face $-1 $60 $61 $22 $-1 $62 reversed single #
loop $-1 $-1 $63 $29 #
plane-surface $-1 0 0 120.87038789025544 0 0 1 1 0 0 forward_v I I I I #
face $-1 $64 $65 $23 $-1 $66 forward single #
loop $-1 $67 $68 $30 #
cone-surface $-1 0 0 -2.1028778954435872 0 0 1 1 0 0 1 I I 0 1 1 forward I I I I #
face $-1 $69 $70 $24 $-1 $71 forward single #
loop $-1 $72 $73 $31 #
cone-surface $-1 0 0 -2.1028778954435872 0 0 1 1 0 0 1 I I 0 1 1 forward I I I I #
face $-1 $74 $75 $25 $-1 $76 reversed single #
loop $-1 $-1 $77 $32 #
plane-surface $-1 0 0 120.87038789025544 0 0 1 1 0 0 forward_v I I I I #
face $-1 $78 $79 $26 $-1 $80 forward single #
loop $-1 $81 $82 $33 #
cone-surface $-1 0 0 -2.1028778954435872 0 0 1 1 0 0 1 I I 0 1 1 forward I I I I #
face $-1 $83 $84 $27 $-1 $85 forward single #
loop $-1 $86 $87 $34 #
cone-surface $-1 0 0 -2.1028778954435872 0 0 1 1 0 0 1 I I 0 1 1 forward I I I I #
face $-1 $88 $89 $21 $-1 $90 reversed single #
loop $-1 $-1 $91 $35 #
plane-surface $-1 0 0 -14.78089315220255 0 0 1 1 0 0 forward_v I I I I #
coedge $-1 $92 $93 $94 $95 forward $36 $-1 #
face $-1 $96 $97 $22 $-1 $98 reversed single #
loop $-1 $-1 $99 $38 #
plane-surface $-1 0 0 -120.87038789025544 0 0 1 1 0 0 forward_v I I I I #
coedge $-1 $100 $101 $102 $103 forward $39 $-1 #
face $-1 $-1 $104 $23 $-1 $105 forward single #
loop $-1 $-1 $106 $41 #
plane-surface $-1 0 0 -3.7057557908871743 0 0 -1 -1 0 0 forward_v I I I I #
loop $-1 $-1 $107 $30 #
coedge $-1 $68 $68 $106 $108 reversed $42 $-1 #
face $-1 $-1 $109 $24 $-1 $110 forward single #
loop $-1 $-1 $111 $44 #
plane-surface $-1 0 0 -3.7057557908871743 0 0 -1 -1 0 0 forward_v I I I I #
loop $-1 $-1 $112 $31 #
coedge $-1 $73 $73 $111 $113 reversed $45 $-1 #
face $-1 $114 $115 $25 $-1 $116 reversed single #
loop $-1 $-1 $117 $47 #
plane-surface $-1 0 0 -120.87038789025544 0 0 1 1 0 0 forward_v I I I I #
coedge $-1 $118 $119 $120 $121 forward $48 $-1 #
face $-1 $-1 $122 $26 $-1 $123 forward single #
loop $-1 $-1 $124 $50 #
plane-surface $-1 0 0 -3.7057557908871743 0 0 -1 -1 0 0 forward_v I I I I #
loop $-1 $-1 $125 $33 #
coedge $-1 $82 $82 $124 $126 reversed $51 $-1 #
face $-1 $-1 $127 $27 $-1 $128 forward single #
loop $-1 $-1 $129 $53 #
plane-surface $-1 0 0 -3.7057557908871743 0 0 -1 -1 0 0 forward_v I I I I #
loop $-1 $-1 $130 $34 #
coedge $-1 $87 $87 $129 $131 reversed $54 $-1 #
face $-1 $132 $133 $21 $-1 $134 reversed single #
loop $-1 $-1 $135 $56 #
plane-surface $-1 0 -32.514233939648825 0 0 1 0 0 0 1 forward_v I I I I #
coedge $-1 $136 $137 $138 $139 forward $57 $-1 #
coedge $-1 $140 $59 $141 $142 forward $36 $-1 #
coedge $-1 $59 $140 $143 $144 forward $36 $-1 #
coedge $-1 $145 $146 $59 $95 reversed $147 $-1 #
edge $-1 $148 -32.514233939648825 $149 32.514233939648825 $94 $150 forward 7 unknown #
face $-1 $151 $152 $22 $-1 $153 reversed single #
loop $-1 $-1 $154 $60 #
plane-surface $-1 0 -241.74077578051089 0 0 1 0 0 0 1 forward_v I I I I #
coedge $-1 $155 $156 $157 $158 forward $61 $-1 #
coedge $-1 $159 $63 $160 $161 forward $39 $-1 #
coedge $-1 $63 $159 $162 $163 forward $39 $-1 #
coedge $-1 $164 $165 $63 $103 reversed $166 $-1 #
edge $-1 $167 -241.74077578051089 $168 241.74077578051089 $102 $169 forward 7 unknown #
loop $-1 $170 $171 $64 #
cone-surface $-1 0 0 0 0 0 1 0.5 0 0 1 I I -0.70710678118654746 0.70710678118654746 0.5 forward I I I I #
coedge $-1 $106 $106 $68 $108 forward $65 $-1 #
coedge $-1 $107 $107 $171 $172 forward $67 $-1 #
edge $-1 $173 0 $173 6.2831853071796004 $106 $174 forward 7 unknown #
loop $-1 $175 $176 $69 #
cone-surface $-1 0 0 0 0 0 1 0.5 0 0 1 I I -0.70710678118654746 0.70710678118654746 0.5 forward I I I I #
coedge $-1 $111 $111 $73 $113 forward $70 $-1 #
coedge $-1 $112 $112 $176 $177 forward $72 $-1 #
edge $-1 $178 0 $178 6.2831853071796004 $111 $179 forward 7 unknown #
face $-1 $180 $181 $25 $-1 $182 reversed single #
loop $-1 $-1 $183 $74 #
plane-surface $-1 0 -241.74077578051089 0 0 1 0 0 0 1 forward_v I I I I #
coedge $-1 $184 $185 $186 $187 forward $75 $-1 #
coedge $-1 $188 $77 $189 $190 forward $48 $-1 #
coedge $-1 $77 $188 $191 $192 forward $48 $-1 #
coedge $-1 $193 $194 $77 $121 reversed $195 $-1 #
edge $-1 $196 -241.74077578051089 $197 241.74077578051089 $120 $198 forward 7 unknown #
loop $-1 $199 $200 $78 #
cone-surface $-1 0 0 0 0 0 1 0.5 0 0 1 I I -0.70710678118654746 0.70710678118654746 0.5 forward I I I I #
coedge $-1 $124 $124 $82 $126 forward $79 $-1 #
coedge $-1 $125 $125 $200 $201 forward $81 $-1 #
edge $-1 $202 0 $202 6.2831853071796004 $124 $203 forward 7 unknown #
loop $-1 $204 $205 $83 #
cone-surface $-1 0 0 0 0 0 1 0.5 0 0 1 I I -0.70710678118654746 0.70710678118654746 0.5 forward I I I I #
coedge $-1 $129 $129 $87 $131 forward $84 $-1 #
coedge $-1 $130 $130 $205 $206 forward $86 $-1 #
edge $-1 $207 0 $207 6.2831853071796004 $129 $208 forward 7 unknown #
face $-1 $209 $210 $21 $-1 $211 reversed single #
loop $-1 $-1 $212 $88 #
plane-surface $-1 -60.435193945127722 0 0 1 0 0 0 0 -1 forward_v I I I I #
coedge $-1 $213 $143 $214 $215 forward $89 $-1 #
coedge $-1 $216 $91 $213 $217 forward $57 $-1 #
coedge $-1 $91 $216 $218 $219 forward $57 $-1 #
coedge $-1 $146 $145 $91 $139 reversed $147 $-1 #
edge $-1 $220 -32.514233939648825 $221 32.514233939648825 $138 $222 forward 7 unknown #
coedge $-1 $93 $92 $223 $224 forward $36 $-1 #
coedge $-1 $225 $226 $92 $142 reversed $210 $-1 #
edge $-1 $149 -60.435193945127722 $227 60.435193945127722 $141 $228 forward 7 unknown #
coedge $-1 $135 $229 $93 $144 reversed $89 $-1 #
edge $-1 $230 -60.435193945127722 $148 60.435193945127722 $143 $231 forward 7 unknown #
coedge $-1 $138 $94 $229 $232 forward $147 $-1 #
coedge $-1 $94 $138 $225 $233 reversed $147 $-1 #
loop $-1 $-1 $145 $209 #
vertex $-1 $95 $234 #
vertex $-1 $95 $235 #
straight-curve $-1 60.435193945127722 0 14.78089315220255 0 1 0 I I #
face $-1 $236 $237 $22 $-1 $238 reversed single #
loop $-1 $-1 $239 $96 #
plane-surface $-1 -6.0859404114120306 0 0 1 0 0 0 0 -1 forward_v I I I I #
coedge $-1 $240 $162 $241 $242 forward $97 $-1 #
coedge $-1 $243 $99 $240 $244 forward $61 $-1 #
coedge $-1 $99 $243 $245 $246 forward $61 $-1 #
coedge $-1 $165 $164 $99 $158 reversed $166 $-1 #
edge $-1 $247 -241.74077578051089 $248 241.74077578051089 $157 $249 forward 7 unknown #
coedge $-1 $101 $100 $250 $251 forward $39 $-1 #
coedge $-1 $252 $253 $100 $161 reversed $237 $-1 #
edge $-1 $168 -6.0859404114120306 $254 6.0859404114120306 $160 $255 forward 7 unknown #
coedge $-1 $154 $256 $101 $163 reversed $97 $-1 #
edge $-1 $257 -6.0859404114120306 $167 6.0859404114120306 $162 $258 forward 7 unknown #
coedge $-1 $157 $102 $256 $259 forward $166 $-1 #
coedge $-1 $102 $157 $252 $260 reversed $166 $-1 #
loop $-1 $-1 $164 $236 #
vertex $-1 $103 $261 #
vertex $-1 $103 $262 #
straight-curve $-1 6.0859404114120306 0 120.87038789025544 0 1 0 I I #
loop $-1 $-1 $263 $64 #
coedge $-1 $171 $171 $107 $172 reversed $104 $-1 #
edge $-1 $264 0 $264 6.2831853071796004 $171 $265 forward 7 unknown #
vertex $-1 $108 $266 #
ellipse-curve $-1 0 0 -3.7057557908871743 0 0 -1 1 0 0 1 I I #
loop $-1 $-1 $267 $69 #
coedge $-1 $176 $176 $112 $177 reversed $109 $-1 #
edge $-1 $268 0 $268 6.2831853071796004 $176 $269 forward 7 unknown #
vertex $-1 $113 $270 #
ellipse-curve $-1 0 0 -3.7057557908871743 0 0 -1 1 0 0 1 I I #
face $-1 $271 $272 $25 $-1 $273 reversed single #
loop $-1 $-1 $274 $114 #
plane-surface $-1 -6.0859404114120306 0 0 1 0 0 0 0 -1 forward_v I I I I #
coedge $-1 $275 $191 $276 $277 forward $115 $-1 #
coedge $-1 $278 $117 $275 $279 forward $75 $-1 #
coedge $-1 $117 $278 $280 $281 forward $75 $-1 #
coedge $-1 $194 $193 $117 $187 reversed $195 $-1 #
edge $-1 $282 -241.74077578051089 $283 241.74077578051089 $186 $284 forward 7 unknown #
coedge $-1 $119 $118 $285 $286 forward $48 $-1 #
coedge $-1 $287 $288 $118 $190 reversed $272 $-1 #
edge $-1 $197 -6.0859404114120306 $289 6.0859404114120306 $189 $290 forward 7 unknown #
coedge $-1 $183 $291 $119 $192 reversed $115 $-1 #
edge $-1 $292 -6.0859404114120306 $196 6.0859404114120306 $191 $293 forward 7 unknown #
coedge $-1 $186 $120 $291 $294 forward $195 $-1 #
coedge $-1 $120 $186 $287 $295 reversed $195 $-1 #
loop $-1 $-1 $193 $271 #
vertex $-1 $121 $296 #
vertex $-1 $121 $297 #
straight-curve $-1 6.0859404114120306 0 120.87038789025544 0 1 0 I I #
loop $-1 $-1 $298 $78 #
coedge $-1 $200 $200 $125 $201 reversed $122 $-1 #
edge $-1 $299 0 $299 6.2831853071796004 $200 $300 forward 7 unknown #
vertex $-1 $126 $301 #
ellipse-curve $-1 0 0 -3.7057557908871743 0 0 -1 1 0 0 1 I I #
loop $-1 $-1 $302 $83 #
coedge $-1 $205 $205 $130 $206 reversed $127 $-1 #
edge $-1 $303 0 $303 6.2831853071796004 $205 $304 forward 7 unknown #
vertex $-1 $131 $305 #
ellipse-curve $-1 0 0 -3.7057557908871743 0 0 -1 1 0 0 1 I I #
face $-1 $-1 $147 $21 $-1 $306 reversed single #
loop $-1 $-1 $225 $132 #
plane-surface $-1 0 32.514233939648825 0 0 -1 0 0 0 -1 forward_v I I I I #
coedge $-1 $307 $223 $226 $308 forward $133 $-1 #
coedge $-1 $229 $135 $136 $217 reversed $89 $-1 #
coedge $-1 $223 $307 $135 $215 reversed $133 $-1 #
edge $-1 $230 -14.78089315220255 $309 14.78089315220255 $214 $310 forward 7 unknown #
coedge $-1 $137 $136 $307 $311 forward $57 $-1 #
edge $-1 $221 -60.435193945127722 $309 60.435193945127722 $213 $312 forward 7 unknown #
coedge $-1 $226 $225 $137 $219 reversed $210 $-1 #
edge $-1 $313 -60.435193945127722 $220 60.435193945127722 $218 $314 forward 7 unknown #
vertex $-1 $139 $315 #
vertex $-1 $232 $316 #
straight-curve $-1 60.435193945127722 0 -14.78089315220255 0 -1 0 I I #
coedge $-1 $212 $214 $140 $224 reversed $133 $-1 #
edge $-1 $227 -32.514233939648825 $230 32.514233939648825 $223 $317 forward 7 unknown #
coedge $-1 $218 $141 $146 $233 forward $210 $-1 #
coedge $-1 $141 $218 $212 $308 reversed $210 $-1 #
vertex $-1 $142 $318 #
straight-curve $-1 0 32.514233939648825 14.78089315220255 -1 0 0 I I #
coedge $-1 $143 $213 $145 $232 reversed $89 $-1 #
vertex $-1 $224 $319 #
straight-curve $-1 0 -32.514233939648825 14.78089315220255 1 0 0 I I #
edge $-1 $148 -14.78089315220255 $221 14.78089315220255 $145 $320 forward 7 unknown #
edge $-1 $149 -14.78089315220255 $220 14.78089315220255 $146 $321 forward 7 unknown #
point $-1 60.435193945127722 -32.514233939648825 14.78089315220255 #
point $-1 60.435193945127722 32.514233939648825 14.78089315220255 #
face $-1 $-1 $166 $22 $-1 $322 reversed single #
loop $-1 $-1 $252 $151 #
plane-surface $-1 0 241.74077578051089 0 0 -1 0 0 0 -1 forward_v I I I I #
coedge $-1 $323 $250 $253 $324 forward $152 $-1 #
coedge $-1 $256 $154 $155 $244 reversed $97 $-1 #
coedge $-1 $250 $323 $154 $242 reversed $152 $-1 #
edge $-1 $257 -120.87038789025544 $325 120.87038789025544 $241 $326 forward 7 unknown #
coedge $-1 $156 $155 $323 $327 forward $61 $-1 #
edge $-1 $248 -6.0859404114120306 $325 6.0859404114120306 $240 $328 forward 7 unknown #
coedge $-1 $253 $252 $156 $246 reversed $237 $-1 #
edge $-1 $329 -6.0859404114120306 $247 6.0859404114120306 $245 $330 forward 7 unknown #
vertex $-1 $158 $331 #
vertex $-1 $259 $332 #
straight-curve $-1 6.0859404114120306 0 -120.87038789025544 0 -1 0 I I #
coedge $-1 $239 $241 $159 $251 reversed $152 $-1 #
edge $-1 $254 -241.74077578051089 $257 241.74077578051089 $250 $333 forward 7 unknown #
coedge $-1 $245 $160 $165 $260 forward $237 $-1 #
coedge $-1 $160 $245 $239 $324 reversed $237 $-1 #
vertex $-1 $161 $334 #
straight-curve $-1 0 241.74077578051089 120.87038789025544 -1 0 0 I I #
coedge $-1 $162 $240 $164 $259 reversed $97 $-1 #
vertex $-1 $251 $335 #
straight-curve $-1 0 -241.74077578051089 120.87038789025544 1 0 0 I I #
edge $-1 $167 -120.87038789025544 $248 120.87038789025544 $164 $336 forward 7 unknown #
edge $-1 $168 -120.87038789025544 $247 120.87038789025544 $165 $337 forward 7 unknown #
point $-1 6.0859404114120306 -241.74077578051089 120.87038789025544 #
point $-1 6.0859404114120306 241.74077578051089 120.87038789025544 #
coedge $-1 $263 $263 $-1 $338 reversed $170 $-1 #
vertex $-1 $172 $339 #
ellipse-curve $-1 0 0 -0.5 0 0 -1 1 0 0 1 I I #
point $-1 1 0 -3.7057557908871743 #
coedge $-1 $267 $267 $-1 $340 reversed $175 $-1 #
vertex $-1 $177 $341 #
ellipse-curve $-1 0 0 -0.5 0 0 -1 1 0 0 1 I I #
point $-1 1 0 -3.7057557908871743 #
face $-1 $-1 $195 $25 $-1 $342 reversed single #
loop $-1 $-1 $287 $180 #
plane-surface $-1 0 241.74077578051089 0 0 -1 0 0 0 -1 forward_v I I I I #
coedge $-1 $343 $285 $288 $344 forward $181 $-1 #
coedge $-1 $291 $183 $184 $279 reversed $115 $-1 #
coedge $-1 $285 $343 $183 $277 reversed $181 $-1 #
edge $-1 $292 -120.87038789025544 $345 120.87038789025544 $276 $346 forward 7 unknown #
coedge $-1 $185 $184 $343 $347 forward $75 $-1 #
edge $-1 $283 -6.0859404114120306 $345 6.0859404114120306 $275 $348 forward 7 unknown #
coedge $-1 $288 $287 $185 $281 reversed $272 $-1 #
edge $-1 $349 -6.0859404114120306 $282 6.0859404114120306 $280 $350 forward 7 unknown #
vertex $-1 $187 $351 #
vertex $-1 $294 $352 #
straight-curve $-1 6.0859404114120306 0 -120.87038789025544 0 -1 0 I I #
coedge $-1 $274 $276 $188 $286 reversed $181 $-1 #
edge $-1 $289 -241.74077578051089 $292 241.74077578051089 $285 $353 forward 7 unknown #
coedge $-1 $280 $189 $194 $295 forward $272 $-1 #
coedge $-1 $189 $280 $274 $344 reversed $272 $-1 #
vertex $-1 $190 $354 #
straight-curve $-1 0 241.74077578051089 120.87038789025544 -1 0 0 I I #
coedge $-1 $191 $275 $193 $294 reversed $115 $-1 #
vertex $-1 $286 $355 #
straight-curve $-1 0 -241.74077578051089 120.87038789025544 1 0 0 I I #
edge $-1 $196 -120.87038789025544 $283 120.87038789025544 $193 $356 forward 7 unknown #
edge $-1 $197 -120.87038789025544 $282 120.87038789025544 $194 $357 forward 7 unknown #
point $-1 6.0859404114120306 -241.74077578051089 120.87038789025544 #
point $-1 6.0859404114120306 241.74077578051089 120.87038789025544 #
coedge $-1 $298 $298 $-1 $358 reversed $199 $-1 #
vertex $-1 $201 $359 #
ellipse-curve $-1 0 0 -0.5 0 0 -1 1 0 0 1 I I #
point $-1 1 0 -3.7057557908871743 #
coedge $-1 $302 $302 $-1 $360 reversed $204 $-1 #
vertex $-1 $206 $361 #
ellipse-curve $-1 0 0 -0.5 0 0 -1 1 0 0 1 I I #
point $-1 1 0 -3.7057557908871743 #
plane-surface $-1 60.435193945127722 0 0 -1 0 0 0 0 1 forward_v I I I I #
coedge $-1 $214 $212 $216 $311 reversed $133 $-1 #
edge $-1 $227 -14.78089315220255 $313 14.78089315220255 $226 $362 forward 7 unknown #
vertex $-1 $311 $363 #
straight-curve $-1 -60.435193945127722 -32.514233939648825 0 0 0 -1 I I #
edge $-1 $309 -32.514233939648825 $313 32.514233939648825 $307 $364 forward 7 unknown #
straight-curve $-1 0 -32.514233939648825 -14.78089315220255 -1 0 0 I I #
vertex $-1 $219 $365 #
straight-curve $-1 0 32.514233939648825 -14.78089315220255 1 0 0 I I #
point $-1 60.435193945127722 32.514233939648825 -14.78089315220255 #
point $-1 60.435193945127722 -32.514233939648825 -14.78089315220255 #
straight-curve $-1 -60.435193945127722 0 14.78089315220255 0 -1 0 I I #
point $-1 -60.435193945127722 32.514233939648825 14.78089315220255 #
point $-1 -60.435193945127722 -32.514233939648825 14.78089315220255 #
straight-curve $-1 60.435193945127722 -32.514233939648825 0 0 0 -1 I I #
straight-curve $-1 60.435193945127722 32.514233939648825 0 0 0 -1 I I #
plane-surface $-1 6.0859404114120306 0 0 -1 0 0 0 0 1 forward_v I I I I #
coedge $-1 $241 $239 $243 $327 reversed $152 $-1 #
edge $-1 $254 -120.87038789025544 $329 120.87038789025544 $253 $366 forward 7 unknown #
vertex $-1 $327 $367 #
straight-curve $-1 -6.0859404114120306 -241.74077578051089 0 0 0 -1 I I #
edge $-1 $325 -241.74077578051089 $329 241.74077578051089 $323 $368 forward 7 unknown #
straight-curve $-1 0 -241.74077578051089 -120.87038789025544 -1 0 0 I I #
vertex $-1 $246 $369 #
straight-curve $-1 0 241.74077578051089 -120.87038789025544 1 0 0 I I #
point $-1 6.0859404114120306 241.74077578051089 -120.87038789025544 #
point $-1 6.0859404114120306 -241.74077578051089 -120.87038789025544 #
straight-curve $-1 -6.0859404114120306 0 120.87038789025544 0 -1 0 I I #
point $-1 -6.0859404114120306 241.74077578051089 120.87038789025544 #
point $-1 -6.0859404114120306 -241.74077578051089 120.87038789025544 #
straight-curve $-1 6.0859404114120306 -241.74077578051089 0 0 0 -1 I I #
straight-curve $-1 6.0859404114120306 241.74077578051089 0 0 0 -1 I I #
edge $-1 $370 1 $370 0 $263 $-1 forward 7 unknown #
point $-1 1 0 -0.5 #
edge $-1 $371 1 $371 0 $267 $-1 forward 7 unknown #
point $-1 1 0 -0.5 #
plane-surface $-1 6.0859404114120306 0 0 -1 0 0 0 0 1 forward_v I I I I #
coedge $-1 $276 $274 $278 $347 reversed $181 $-1 #
edge $-1 $289 -120.87038789025544 $349 120.87038789025544 $288 $372 forward 7 unknown #
vertex $-1 $347 $373 #
straight-curve $-1 -6.0859404114120306 -241.74077578051089 0 0 0 -1 I I #
edge $-1 $345 -241.74077578051089 $349 241.74077578051089 $343 $374 forward 7 unknown #
straight-curve $-1 0 -241.74077578051089 -120.87038789025544 -1 0 0 I I #
vertex $-1 $281 $375 #
straight-curve $-1 0 241.74077578051089 -120.87038789025544 1 0 0 I I #
point $-1 6.0859404114120306 241.74077578051089 -120.87038789025544 #
point $-1 6.0859404114120306 -241.74077578051089 -120.87038789025544 #
straight-curve $-1 -6.0859404114120306 0 120.87038789025544 0 -1 0 I I #
point $-1 -6.0859404114120306 241.74077578051089 120.87038789025544 #
point $-1 -6.0859404114120306 -241.74077578051089 120.87038789025544 #
straight-curve $-1 6.0859404114120306 -241.74077578051089 0 0 0 -1 I I #
straight-curve $-1 6.0859404114120306 241.74077578051089 0 0 0 -1 I I #
edge $-1 $376 1 $376 0 $298 $-1 forward 7 unknown #
point $-1 1 0 -0.5 #
edge $-1 $377 1 $377 0 $302 $-1 forward 7 unknown #
point $-1 1 0 -0.5 #
straight-curve $-1 -60.435193945127722 32.514233939648825 0 0 0 -1 I I #
point $-1 -60.435193945127722 -32.514233939648825 -14.78089315220255 #
straight-curve $-1 -60.435193945127722 0 -14.78089315220255 0 1 0 I I #
point $-1 -60.435193945127722 32.514233939648825 -14.78089315220255 #
straight-curve $-1 -6.0859404114120306 241.74077578051089 0 0 0 -1 I I #
point $-1 -6.0859404114120306 -241.74077578051089 -120.87038789025544 #
straight-curve $-1 -6.0859404114120306 0 -120.87038789025544 0 1 0 I I #
point $-1 -6.0859404114120306 241.74077578051089 -120.87038789025544 #
vertex $-1 $338 $378 #
vertex $-1 $340 $379 #
straight-curve $-1 -6.0859404114120306 241.74077578051089 0 0 0 -1 I I #
point $-1 -6.0859404114120306 -241.74077578051089 -120.87038789025544 #
straight-curve $-1 -6.0859404114120306 0 -120.87038789025544 0 1 0 I I #
point $-1 -6.0859404114120306 241.74077578051089 -120.87038789025544 #
vertex $-1 $358 $380 #
vertex $-1 $360 $381 #
point $-1 0 0 0.5 #
point $-1 0 0 0.5 #
point $-1 0 0 0.5 #
point $-1 0 0 0.5 #
End-of-ACIS-data 