500 0 5 0           
7 Unknown 11 ACIS 5.0 NT 24 Fri Mar 26 17:42:52 1999 
-1 9.9999999999999995e-007 1e-010 
body $-1 $5 $-1 $6 #
body $-1 $7 $-1 $8 #
body $-1 $9 $-1 $10 #
body $-1 $11 $-1 $12 #
body $-1 $13 $-1 $14 #
lump $-1 $-1 $15 $0 #
transform $-1 1 0 0 0 1 0 0 0 1 61.862239448225353 31.800895221222493 7.9577453037023176 1 rotate no_reflect no_shear #
lump $-1 $-1 $16 $1 #
transform $-1 1 0 0 0 1 0 0 0 1 61.862239448225353 31.800895221222493 7.9577453037023176 1 rotate no_reflect no_shear #
lump $-1 $-1 $17 $2 #
transform $-1 1 0 0 0 1 0 0 0 1 61.862239448225353 31.800895221222493 7.9577453037023176 1 rotate no_reflect no_shear #
lump $-1 $-1 $18 $3 #
transform $-1 1 0 0 0 1 0 0 0 1 61.862239448225353 31.800895221222493 7.9577453037023176 1 rotate no_reflect no_shear #
lump $-1 $-1 $19 $4 #
transform $-1 1 0 0 0 1 0 0 0 1 61.862239448225353 31.800895221222493 7.9577453037023176 1 rotate no_reflect no_shear #
shell $-1 $-1 $-1 $20 $-1 $5 #
shell $-1 $-1 $-1 $21 $-1 $7 #
shell $-1 $-1 $-1 $22 $-1 $9 #
shell $-1 $-1 $-1 $23 $-1 $11 #
shell $-1 $-1 $-1 $24 $-1 $13 #
face $-1 $25 $26 $15 $-1 $27 forward single #
face $-1 $28 $29 $16 $-1 $30 forward single #
face $-1 $31 $32 $17 $-1 $33 reversed single #
face $-1 $34 $35 $18 $-1 $36 forward single #
face $-1 $37 $38 $19 $-1 $39 forward single #
face $-1 $40 $41 $15 $-1 $42 reversed single #
loop $-1 $-1 $43 $20 #
plane-surface $-1 0 0 7.9577453037023176 0 0 1 1 0 0 forward_v I I I I #
face $-1 $44 $45 $16 $-1 $46 reversed single #
loop $-1 $-1 $47 $21 #
plane-surface $-1 0 -31.800895221222493 0 0 1 0 0 0 1 forward_v I I I I #
face $-1 $48 $49 $17 $-1 $50 reversed single #
loop $-1 $-1 $51 $22 #
plane-surface $-1 -10.784806275475511 38.582369494894877 143.09271823377202 1 0 0 0 -0.50000000669873634 -0.8660253999169214 forward_v I I I I #
face $-1 $52 $53 $18 $-1 $54 forward single #
loop $-1 $55 $56 $23 #
cone-surface $-1 -0.62842627926977457 28.003423628547576 5.1947955109832744 0 -0.50000000669873634 -0.8660253999169214 0.5 0 0 1 I I 0 1 0.5 forward I I I I #
face $-1 $57 $58 $19 $-1 $59 forward single #
loop $-1 $60 $61 $24 #
cone-surface $-1 14.606143715038826 28.003423628547576 5.1947955109832744 0 -0.50000000669873634 -0.8660253999169214 0.5 0 0 1 I I 0 1 0.5 forward I I I I #
face $-1 $62 $63 $15 $-1 $64 reversed single #
loop $-1 $-1 $65 $25 #
plane-surface $-1 0 0 -7.9577453037023176 0 0 1 1 0 0 forward_v I I I I #
coedge $-1 $66 $67 $68 $69 forward $26 $-1 #
face $-1 $70 $71 $16 $-1 $72 forward single #
loop $-1 $-1 $73 $28 #
plane-surface $-1 -61.862239448225353 0 0 1 0 0 0 0 -1 forward_v I I I I #
coedge $-1 $74 $75 $76 $77 forward $29 $-1 #
face $-1 $78 $79 $17 $-1 $80 reversed single #
loop $-1 $-1 $81 $31 #
plane-surface $-1 6.9888587178845114 -23.279870782128135 35.94417691796059 0 0.50000000669873634 0.8660253999169214 1 0 0 forward_v I I I I #
coedge $-1 $82 $83 $84 $85 reversed $32 $-1 #
face $-1 $-1 $86 $18 $-1 $87 forward single #
loop $-1 $88 $89 $34 #
cone-surface $-1 -0.62842627926977457 27.384374729601706 4.1225713847929129 0 -0.50000000669873634 -0.8660253999169214 0.25 0 0 1 I I -0.70710678118654879 0.70710678118654635 0.25 forward I I I I #
loop $-1 $-1 $90 $23 #
coedge $-1 $56 $56 $91 $92 reversed $35 $-1 #
face $-1 $-1 $93 $19 $-1 $94 forward single #
loop $-1 $95 $96 $37 #
cone-surface $-1 14.606143715038826 27.384374729601706 4.1225713847929129 0 -0.50000000669873634 -0.8660253999169214 0.25 0 0 1 I I -0.70710678118654879 0.70710678118654635 0.25 forward I I I I #
loop $-1 $-1 $97 $24 #
coedge $-1 $61 $61 $98 $99 reversed $38 $-1 #
face $-1 $100 $101 $15 $-1 $102 reversed single #
loop $-1 $-1 $103 $40 #
plane-surface $-1 0 -31.800895221222493 0 0 1 0 0 0 1 forward_v I I I I #
coedge $-1 $104 $105 $106 $107 forward $41 $-1 #
coedge $-1 $108 $43 $109 $110 forward $26 $-1 #
coedge $-1 $43 $108 $111 $112 forward $26 $-1 #
coedge $-1 $113 $114 $43 $69 reversed $115 $-1 #
edge $-1 $116 -31.800895221222493 $117 31.800895221222493 $68 $118 forward 7 unknown #
face $-1 $119 $120 $16 $-1 $121 reversed single #
loop $-1 $-1 $122 $44 #
plane-surface $-1 0 -35.443969818507284 2.1053087610925973 0 0 1 1 0 0 forward_v I I I I #
coedge $-1 $123 $124 $75 $125 forward $45 $-1 #
coedge $-1 $126 $47 $127 $128 reversed $29 $-1 #
coedge $-1 $47 $126 $73 $125 reversed $29 $-1 #
coedge $-1 $129 $122 $47 $77 reversed $71 $-1 #
edge $-1 $130 -61.862239448225353 $131 61.862239448225353 $76 $132 forward 7 unknown #
face $-1 $133 $134 $17 $-1 $135 forward single #
loop $-1 $-1 $136 $48 #
plane-surface $-1 24.762523711244533 38.582369494894877 143.09271823377202 -1 0 0 0 0.50000000669873634 0.8660253999169214 forward_v I I I I #
coedge $-1 $137 $138 $139 $140 reversed $49 $-1 #
coedge $-1 $83 $51 $141 $142 reversed $32 $-1 #
coedge $-1 $51 $82 $137 $143 reversed $32 $-1 #
coedge $-1 $139 $144 $51 $85 forward $134 $-1 #
edge $-1 $145 -12.509710473775055 $146 -5.9028650829675868 $84 $147 forward 7 unknown #
loop $-1 $-1 $91 $52 #
plane-surface $-1 6.9888587178845114 -23.279870782128135 35.94417691796059 0 0.50000000669873634 0.8660253999169214 1 0 0 forward_v I I I I #
loop $-1 $-1 $148 $34 #
coedge $-1 $89 $89 $90 $149 reversed $53 $-1 #
coedge $-1 $90 $90 $89 $149 forward $55 $-1 #
coedge $-1 $91 $91 $56 $92 forward $86 $-1 #
edge $-1 $150 3.4251768218993699e-015 $150 6.283185307179604 $91 $151 forward 7 unknown #
loop $-1 $-1 $98 $57 #
plane-surface $-1 6.9888587178845114 -23.279870782128135 35.94417691796059 0 0.50000000669873634 0.8660253999169214 1 0 0 forward_v I I I I #
loop $-1 $-1 $152 $37 #
coedge $-1 $96 $96 $97 $153 reversed $58 $-1 #
coedge $-1 $97 $97 $96 $153 forward $60 $-1 #
coedge $-1 $98 $98 $61 $99 forward $93 $-1 #
edge $-1 $154 3.4251768218993699e-015 $154 6.283185307179604 $98 $155 forward 7 unknown #
face $-1 $156 $157 $15 $-1 $158 reversed single #
loop $-1 $-1 $159 $62 #
plane-surface $-1 -61.862239448225353 0 0 1 0 0 0 0 -1 forward_v I I I I #
coedge $-1 $160 $111 $161 $162 forward $63 $-1 #
coedge $-1 $163 $65 $160 $164 forward $41 $-1 #
coedge $-1 $65 $163 $165 $166 forward $41 $-1 #
coedge $-1 $114 $113 $65 $107 reversed $115 $-1 #
edge $-1 $167 -31.800895221222493 $168 31.800895221222493 $106 $169 forward 7 unknown #
coedge $-1 $67 $66 $170 $171 forward $26 $-1 #
coedge $-1 $172 $173 $66 $110 reversed $157 $-1 #
edge $-1 $117 -61.862239448225353 $174 61.862239448225353 $109 $175 forward 7 unknown #
coedge $-1 $103 $176 $67 $112 reversed $63 $-1 #
edge $-1 $177 -61.862239448225353 $116 61.862239448225353 $111 $178 forward 7 unknown #
coedge $-1 $106 $68 $176 $179 forward $115 $-1 #
coedge $-1 $68 $106 $172 $180 reversed $115 $-1 #
loop $-1 $-1 $113 $156 #
vertex $-1 $69 $181 #
vertex $-1 $69 $182 #
straight-curve $-1 61.862239448225353 0 7.9577453037023176 0 1 0 I I #
face $-1 $183 $184 $16 $-1 $185 reversed single #
loop $-1 $-1 $186 $70 #
plane-surface $-1 0 -35.443969818507284 -1.4540743597339012 0 0 1 1 0 0 forward_v I I I I #
coedge $-1 $76 $187 $188 $189 forward $71 $-1 #
coedge $-1 $190 $73 $191 $192 reversed $45 $-1 #
coedge $-1 $73 $190 $129 $193 reversed $45 $-1 #
edge $-1 $130 -2.1053087610925973 $194 1.4540743597339012 $73 $195 forward 7 unknown #
coedge $-1 $75 $74 $196 $197 forward $29 $-1 #
coedge $-1 $188 $198 $74 $128 forward $199 $-1 #
edge $-1 $200 -1.4540743597339012 $131 2.1053087610925973 $127 $201 forward 7 unknown #
coedge $-1 $187 $76 $124 $193 forward $71 $-1 #
vertex $-1 $125 $202 #
vertex $-1 $189 $203 #
straight-curve $-1 0 -31.800895221222493 2.1053087610925973 1 0 0 I I #
face $-1 $-1 $204 $17 $-1 $205 reversed single #
loop $-1 $-1 $84 $78 #
plane-surface $-1 0 0 7.9577453037023176 0 0 1 1 0 0 forward_v I I I I #
coedge $-1 $206 $207 $208 $209 reversed $79 $-1 #
coedge $-1 $210 $81 $83 $143 forward $49 $-1 #
coedge $-1 $81 $210 $206 $211 forward $49 $-1 #
coedge $-1 $208 $84 $81 $140 forward $134 $-1 #
edge $-1 $146 -14.279235634417766 $212 21.268094352302278 $139 $213 forward 7 unknown #
coedge $-1 $214 $215 $82 $142 forward $204 $-1 #
edge $-1 $216 -67.403077846199523 $145 -63.588613813183692 $141 $217 forward 7 unknown #
edge $-1 $146 55.972862478621657 $216 63.601790442444965 $83 $218 forward 7 unknown #
coedge $-1 $84 $208 $214 $219 forward $134 $-1 #
vertex $-1 $142 $220 #
vertex $-1 $85 $221 #
straight-curve $-1 -10.784806275475511 19.291184747447438 7.9577453037023247 0 -1 0 I I #
coedge $-1 $148 $148 $-1 $222 reversed $88 $-1 #
edge $-1 $223 0 $223 6.2831853071796004 $89 $224 forward 7 unknown #
vertex $-1 $92 $225 #
ellipse-curve $-1 -0.62842627926977457 28.497472525818758 6.0505132871943976 0 0.50000000669873634 0.8660253999169214 0.5 0 0 1 I I #
coedge $-1 $152 $152 $-1 $226 reversed $95 $-1 #
edge $-1 $227 0 $227 6.2831853071796004 $96 $228 forward 7 unknown #
vertex $-1 $99 $229 #
ellipse-curve $-1 14.606143715038826 28.497472525818758 6.0505132871943976 0 0.50000000669873634 0.8660253999169214 0.5 0 0 1 I I #
face $-1 $-1 $115 $15 $-1 $230 reversed single #
loop $-1 $-1 $172 $100 #
plane-surface $-1 0 31.800895221222493 0 0 -1 0 0 0 -1 forward_v I I I I #
coedge $-1 $231 $170 $173 $232 forward $101 $-1 #
coedge $-1 $176 $103 $104 $164 reversed $63 $-1 #
coedge $-1 $170 $231 $103 $162 reversed $101 $-1 #
edge $-1 $177 -7.9577453037023176 $233 7.9577453037023176 $161 $234 forward 7 unknown #
coedge $-1 $105 $104 $231 $235 forward $41 $-1 #
edge $-1 $168 -61.862239448225353 $233 61.862239448225353 $160 $236 forward 7 unknown #
coedge $-1 $173 $172 $105 $166 reversed $157 $-1 #
edge $-1 $237 -61.862239448225353 $167 61.862239448225353 $165 $238 forward 7 unknown #
vertex $-1 $107 $239 #
vertex $-1 $179 $240 #
straight-curve $-1 61.862239448225353 0 -7.9577453037023176 0 -1 0 I I #
coedge $-1 $159 $161 $108 $171 reversed $101 $-1 #
edge $-1 $174 -31.800895221222493 $177 31.800895221222493 $170 $241 forward 7 unknown #
coedge $-1 $165 $109 $114 $180 forward $157 $-1 #
coedge $-1 $109 $165 $159 $232 reversed $157 $-1 #
vertex $-1 $110 $242 #
straight-curve $-1 0 31.800895221222493 7.9577453037023176 -1 0 0 I I #
coedge $-1 $111 $160 $113 $179 reversed $63 $-1 #
vertex $-1 $171 $243 #
straight-curve $-1 0 -31.800895221222493 7.9577453037023176 1 0 0 I I #
edge $-1 $116 -7.9577453037023176 $168 7.9577453037023176 $113 $244 forward 7 unknown #
edge $-1 $117 -7.9577453037023176 $167 7.9577453037023176 $114 $245 forward 7 unknown #
point $-1 61.862239448225353 -31.800895221222493 7.9577453037023176 #
point $-1 61.862239448225353 31.800895221222493 7.9577453037023176 #
face $-1 $-1 $199 $16 $-1 $246 reversed single #
loop $-1 $-1 $247 $119 #
plane-surface $-1 0 -39.087044415792079 0.32561720067934807 0 1 0 0 0 1 forward_v I I I I #
coedge $-1 $248 $196 $198 $249 forward $120 $-1 #
coedge $-1 $122 $129 $250 $251 forward $71 $-1 #
coedge $-1 $252 $127 $122 $189 reversed $199 $-1 #
edge $-1 $253 -3.6430745972847944 $131 3.6430745972847909 $188 $254 forward 7 unknown #
coedge $-1 $124 $123 $247 $255 reversed $45 $-1 #
coedge $-1 $196 $248 $123 $192 forward $120 $-1 #
edge $-1 $256 -3.6430745972847944 $194 3.6430745972847909 $123 $257 forward 7 unknown #
edge $-1 $130 -3.6430745972847909 $258 3.6430745972847944 $124 $259 forward 7 unknown #
vertex $-1 $125 $260 #
straight-curve $-1 -61.862239448225353 -31.800895221222493 0 0 0 -1 I I #
coedge $-1 $186 $191 $126 $197 reversed $120 $-1 #
edge $-1 $200 -61.862239448225353 $194 61.862239448225353 $196 $261 forward 7 unknown #
coedge $-1 $127 $252 $186 $249 reversed $199 $-1 #
loop $-1 $-1 $127 $183 #
vertex $-1 $128 $262 #
straight-curve $-1 61.862239448225353 -31.800895221222493 0 0 0 1 I I #
point $-1 -61.862239448225353 -31.800895221222493 2.1053087610925973 #
point $-1 61.862239448225353 -31.800895221222493 2.1053087610925973 #
loop $-1 $-1 $141 $133 #
plane-surface $-1 0 31.800895221222493 0 0 -1 0 0 0 -1 forward_v I I I I #
coedge $-1 $207 $136 $138 $211 reversed $79 $-1 #
coedge $-1 $136 $206 $263 $264 reversed $79 $-1 #
coedge $-1 $144 $139 $136 $209 forward $134 $-1 #
edge $-1 $212 5.9028650829675868 $265 12.509710473775055 $208 $266 forward 7 unknown #
coedge $-1 $138 $137 $215 $267 reversed $49 $-1 #
edge $-1 $268 -63.601790442444965 $212 -55.972862478621657 $206 $269 forward 7 unknown #
vertex $-1 $140 $270 #
straight-curve $-1 3.4944293589422557 25.194049830415011 7.9577453037023211 1 0 0 I I #
coedge $-1 $263 $141 $144 $219 reversed $204 $-1 #
coedge $-1 $141 $263 $210 $267 forward $204 $-1 #
vertex $-1 $142 $271 #
straight-curve $-1 -10.784806275475511 31.800895221222493 71.546359116886009 0 0 1 I I #
straight-curve $-1 -10.784806275475511 -23.279870782128135 35.94417691796059 0 0.8660253999169214 -0.50000000669873634 I I #
edge $-1 $265 -24.762523711244533 $145 10.784806275475511 $214 $272 forward 7 unknown #
point $-1 -10.784806275475511 31.800895221222493 7.9577453037023176 #
point $-1 -10.784806275475511 25.194049830415025 7.9577453037023176 #
edge $-1 $273 1 $273 0 $148 $-1 forward 7 unknown #
vertex $-1 $149 $274 #
ellipse-curve $-1 -0.62842627926977457 27.509374731276392 4.3390777347721423 0 0.50000000669873634 0.8660253999169214 0.5 0 0 1 I I #
point $-1 -0.12842627926977457 28.497472525818765 6.0505132871944065 #
edge $-1 $275 1 $275 0 $152 $-1 forward 7 unknown #
vertex $-1 $153 $276 #
ellipse-curve $-1 14.606143715038826 27.509374731276392 4.3390777347721423 0 0.50000000669873634 0.8660253999169214 0.5 0 0 1 I I #
point $-1 15.106143715038826 28.497472525818765 6.0505132871944065 #
plane-surface $-1 61.862239448225353 0 0 -1 0 0 0 0 1 forward_v I I I I #
coedge $-1 $161 $159 $163 $235 reversed $101 $-1 #
edge $-1 $174 -7.9577453037023176 $237 7.9577453037023176 $173 $277 forward 7 unknown #
vertex $-1 $235 $278 #
straight-curve $-1 -61.862239448225353 -31.800895221222493 0 0 0 -1 I I #
edge $-1 $233 -31.800895221222493 $237 31.800895221222493 $231 $279 forward 7 unknown #
straight-curve $-1 0 -31.800895221222493 -7.9577453037023176 -1 0 0 I I #
vertex $-1 $166 $280 #
straight-curve $-1 0 31.800895221222493 -7.9577453037023176 1 0 0 I I #
point $-1 61.862239448225353 31.800895221222493 -7.9577453037023176 #
point $-1 61.862239448225353 -31.800895221222493 -7.9577453037023176 #
straight-curve $-1 -61.862239448225353 0 7.9577453037023176 0 -1 0 I I #
point $-1 -61.862239448225353 31.800895221222493 7.9577453037023176 #
point $-1 -61.862239448225353 -31.800895221222493 7.9577453037023176 #
straight-curve $-1 61.862239448225353 -31.800895221222493 0 0 0 -1 I I #
straight-curve $-1 61.862239448225353 31.800895221222493 0 0 0 -1 I I #
plane-surface $-1 61.862239448225353 0 0 -1 0 0 0 0 1 forward_v I I I I #
coedge $-1 $281 $250 $190 $255 forward $184 $-1 #
coedge $-1 $191 $186 $281 $282 forward $120 $-1 #
edge $-1 $200 -3.6430745972847909 $283 3.6430745972847944 $198 $284 forward 7 unknown #
coedge $-1 $247 $285 $187 $251 reversed $184 $-1 #
edge $-1 $258 -61.862239448225353 $253 61.862239448225353 $250 $286 forward 7 unknown #
coedge $-1 $198 $188 $285 $287 forward $199 $-1 #
vertex $-1 $189 $288 #
straight-curve $-1 61.862239448225353 -35.443969818507284 2.1053087610925973 0 1 0 I I #
edge $-1 $258 -1.7796915604132493 $256 1.7796915604132493 $190 $289 forward 7 unknown #
vertex $-1 $192 $290 #
straight-curve $-1 -61.862239448225353 -35.443969818507284 -1.4540743597339012 0 1 0 I I #
vertex $-1 $193 $291 #
straight-curve $-1 -61.862239448225353 -35.443969818507284 2.1053087610925973 0 -1 0 I I #
point $-1 -61.862239448225353 -31.800895221222493 -1.4540743597339012 #
straight-curve $-1 0 -31.800895221222493 -1.4540743597339012 -1 0 0 I I #
point $-1 61.862239448225353 -31.800895221222493 -1.4540743597339012 #
coedge $-1 $215 $214 $207 $264 forward $204 $-1 #
edge $-1 $265 63.588613813183692 $268 67.403077846199523 $263 $292 forward 7 unknown #
vertex $-1 $219 $293 #
straight-curve $-1 24.762523711244533 19.291184747447438 7.9577453037023247 0 1 0 I I #
edge $-1 $268 -21.268094352302278 $216 14.279235634417766 $215 $294 forward 7 unknown #
vertex $-1 $267 $295 #
straight-curve $-1 24.762523711244533 -23.279870782128135 35.94417691796059 0 -0.8660253999169214 0.50000000669873634 I I #
point $-1 24.762523711244533 25.194049830415025 7.9577453037023176 #
point $-1 -10.784806275475511 31.800895221222497 4.143281270686483 #
straight-curve $-1 0 31.800895221222493 7.9577453037023176 -1 0 0 I I #
vertex $-1 $222 $296 #
point $-1 -0.12842627926977457 27.509374731276392 4.3390777347721423 #
vertex $-1 $226 $297 #
point $-1 15.106143715038826 27.509374731276392 4.3390777347721423 #
straight-curve $-1 -61.862239448225353 31.800895221222493 0 0 0 -1 I I #
point $-1 -61.862239448225353 -31.800895221222493 -7.9577453037023176 #
straight-curve $-1 -61.862239448225353 0 -7.9577453037023176 0 1 0 I I #
point $-1 -61.862239448225353 31.800895221222493 -7.9577453037023176 #
coedge $-1 $285 $247 $248 $282 reversed $184 $-1 #
edge $-1 $283 -61.862239448225353 $256 61.862239448225353 $281 $298 forward 7 unknown #
vertex $-1 $287 $299 #
straight-curve $-1 61.862239448225353 -35.443969818507284 -1.4540743597339012 0 -1 0 I I #
coedge $-1 $250 $281 $252 $287 reversed $184 $-1 #
straight-curve $-1 0 -39.087044415792079 2.1053087610925973 1 0 0 I I #
edge $-1 $253 -1.7796915604132493 $283 1.7796915604132493 $252 $300 forward 7 unknown #
point $-1 61.862239448225353 -39.087044415792079 2.1053087610925973 #
straight-curve $-1 -61.862239448225353 -39.087044415792079 0.32561720067934807 0 0 -1 I I #
point $-1 -61.862239448225353 -39.087044415792079 -1.4540743597339012 #
point $-1 -61.862239448225353 -39.087044415792079 2.1053087610925973 #
straight-curve $-1 24.762523711244533 31.800895221222493 71.546359116886009 0 0 -1 I I #
point $-1 24.762523711244533 31.800895221222493 7.9577453037023176 #
straight-curve $-1 3.4944293589422557 31.80089522122249 4.1432812706864848 -1 0 0 I I #
point $-1 24.762523711244533 31.800895221222497 4.143281270686483 #
point $-1 -0.62842627926977457 27.259374727927021 3.9060650348136834 #
point $-1 14.606143715038826 27.259374727927021 3.9060650348136834 #
straight-curve $-1 0 -39.087044415792079 -1.4540743597339012 -1 0 0 I I #
point $-1 61.862239448225353 -39.087044415792079 -1.4540743597339012 #
straight-curve $-1 61.862239448225353 -39.087044415792079 0.32561720067934807 0 0 -1 I I #
End-of-ACIS-data 