500 0 7 0           
7 Unknown 11 ACIS 5.0 NT 24 Thu Mar 25 15:51:08 1999 
-1 9.9999999999999995e-007 1e-010 
body $-1 $7 $-1 $8 #
body $-1 $9 $-1 $10 #
body $-1 $11 $-1 $12 #
body $-1 $13 $-1 $14 #
body $-1 $15 $-1 $16 #
body $-1 $17 $-1 $18 #
body $-1 $19 $-1 $20 #
lump $-1 $-1 $21 $0 #
transform $-1 1 0 0 0 1 0 0 0 1 59.180272835474717 40.845351245341696 15.51031378949593 1 rotate no_reflect no_shear #
lump $-1 $-1 $22 $1 #
transform $-1 1 0 0 0 1 0 0 0 1 59.180272835474717 40.845351245341696 15.51031378949593 1 rotate no_reflect no_shear #
lump $-1 $-1 $23 $2 #
transform $-1 1 0 0 0 1 0 0 0 1 59.180272835474717 40.845351245341696 15.51031378949593 1 rotate no_reflect no_shear #
lump $-1 $-1 $24 $3 #
transform $-1 1 0 0 0 1 0 0 0 1 59.180272835474717 40.845351245341696 15.51031378949593 1 rotate no_reflect no_shear #
lump $-1 $-1 $25 $4 #
transform $-1 1 0 0 0 1 0 0 0 1 59.180272835474717 40.845351245341696 15.51031378949593 1 rotate no_reflect no_shear #
lump $-1 $-1 $26 $5 #
transform $-1 1 0 0 0 1 0 0 0 1 59.180272835474717 40.845351245341696 15.51031378949593 1 rotate no_reflect no_shear #
lump $-1 $-1 $27 $6 #
transform $-1 1 0 0 0 1 0 0 0 1 59.180272835474717 40.845351245341696 15.51031378949593 1 rotate no_reflect no_shear #
shell $-1 $-1 $-1 $28 $-1 $7 #
shell $-1 $-1 $-1 $29 $-1 $9 #
shell $-1 $-1 $-1 $30 $-1 $11 #
shell $-1 $-1 $-1 $31 $-1 $13 #
shell $-1 $-1 $-1 $32 $-1 $15 #
shell $-1 $-1 $-1 $33 $-1 $17 #
shell $-1 $-1 $-1 $34 $-1 $19 #
face $-1 $35 $36 $21 $-1 $37 forward single #
face $-1 $38 $39 $22 $-1 $40 forward single #
face $-1 $41 $42 $23 $-1 $43 reversed single #
face $-1 $44 $45 $24 $-1 $46 reversed single #
face $-1 $47 $48 $25 $-1 $49 forward single #
face $-1 $50 $51 $26 $-1 $52 forward single #
face $-1 $53 $54 $27 $-1 $55 forward single #
face $-1 $56 $57 $21 $-1 $58 reversed single #
loop $-1 $-1 $59 $28 #
plane-surface $-1 0 0 15.51031378949593 0 0 1 1 0 0 forward_v I I I I #
face $-1 $60 $61 $22 $-1 $62 reversed single #
loop $-1 $-1 $63 $29 #
plane-surface $-1 -59.180272835474717 0 0 1 0 0 0 0 -1 forward_v I I I I #
face $-1 $64 $65 $23 $-1 $66 reversed single #
loop $-1 $-1 $67 $30 #
plane-surface $-1 47.961242109243194 -36.200304086685044 0 1 0 0 0 0 -1 forward_v I I I I #
face $-1 $68 $69 $24 $-1 $70 reversed single #
loop $-1 $-1 $71 $31 #
plane-surface $-1 -45.698753720744719 49.34222878771309 149.41919016492491 1 0 0 0 -0.61566148304635926 -0.78801074757464917 forward_v I I I I #
face $-1 $72 $73 $25 $-1 $74 forward single #
loop $-1 $75 $76 $32 #
cone-surface $-1 -41.801718132662536 33.013037177897893 8.5663480151454081 0 -0.61566148304635926 -0.78801074757464917 1.5 0 0 1 I I 0 1 1.5 forward I I I I #
face $-1 $77 $78 $26 $-1 $79 forward single #
loop $-1 $80 $81 $33 #
cone-surface $-1 -35.956164750539259 33.013037177897893 8.5663480151454081 0 -0.61566148304635926 -0.78801074757464917 1.5 0 0 1 I I 0 1 1.5 forward I I I I #
face $-1 $82 $83 $27 $-1 $84 forward single #
loop $-1 $85 $86 $34 #
cone-surface $-1 -30.110611368415981 33.013037177897893 8.5663480151454081 0 -0.61566148304635926 -0.78801074757464917 1.5 0 0 1 I I 0 1 1.5 forward I I I I #
face $-1 $87 $88 $21 $-1 $89 reversed single #
loop $-1 $-1 $90 $35 #
plane-surface $-1 0 0 -15.51031378949593 0 0 1 1 0 0 forward_v I I I I #
coedge $-1 $91 $92 $93 $94 forward $36 $-1 #
face $-1 $95 $96 $22 $-1 $97 reversed single #
loop $-1 $-1 $98 $38 #
plane-surface $-1 0 0 -15.51031378949593 0 0 1 1 0 0 forward_v I I I I #
coedge $-1 $99 $100 $101 $102 forward $39 $-1 #
face $-1 $103 $104 $23 $-1 $105 forward single #
loop $-1 $-1 $106 $41 #
plane-surface $-1 53.570757472358956 -31.555256928028392 0 0 -1 0 0 0 -1 forward_v I I I I #
coedge $-1 $107 $108 $109 $110 forward $42 $-1 #
face $-1 $111 $112 $24 $-1 $113 reversed single #
loop $-1 $-1 $114 $44 #
plane-surface $-1 -35.956164750539259 -23.527800294239974 56.149808087416659 0 0.61566148304635926 0.78801074757464917 1 0 0 forward_v I I I I #
coedge $-1 $115 $116 $117 $118 reversed $45 $-1 #
face $-1 $-1 $119 $25 $-1 $120 forward single #
loop $-1 $121 $122 $47 #
cone-surface $-1 -41.801718132662536 30.897462961610536 5.85853655441006 0 -0.61566148304635926 -0.78801074757464917 0.75 0 0 1 I I -0.70710678118654757 0.70710678118654757 0.75 forward I I I I #
loop $-1 $-1 $123 $32 #
coedge $-1 $76 $76 $124 $125 reversed $48 $-1 #
face $-1 $-1 $126 $26 $-1 $127 forward single #
loop $-1 $128 $129 $50 #
cone-surface $-1 -35.956164750539259 30.897462961610536 5.85853655441006 0 -0.61566148304635926 -0.78801074757464917 0.75 0 0 1 I I -0.70710678118654757 0.70710678118654757 0.75 forward I I I I #
loop $-1 $-1 $130 $33 #
coedge $-1 $81 $81 $131 $132 reversed $51 $-1 #
face $-1 $-1 $133 $27 $-1 $134 forward single #
loop $-1 $135 $136 $53 #
cone-surface $-1 -30.110611368415981 30.897462961610536 5.85853655441006 0 -0.61566148304635926 -0.78801074757464917 0.75 0 0 1 I I -0.70710678118654757 0.70710678118654757 0.75 forward I I I I #
loop $-1 $-1 $137 $34 #
coedge $-1 $86 $86 $138 $139 reversed $54 $-1 #
face $-1 $140 $141 $21 $-1 $142 reversed single #
loop $-1 $-1 $143 $56 #
plane-surface $-1 0 -40.845351245341696 0 0 1 0 0 0 1 forward_v I I I I #
coedge $-1 $144 $145 $146 $147 forward $57 $-1 #
coedge $-1 $148 $59 $149 $150 forward $36 $-1 #
coedge $-1 $59 $148 $151 $152 forward $36 $-1 #
coedge $-1 $153 $154 $59 $94 reversed $155 $-1 #
edge $-1 $156 -40.845351245341696 $157 40.845351245341696 $93 $158 forward 7 unknown #
face $-1 $159 $160 $22 $-1 $161 reversed single #
loop $-1 $-1 $162 $60 #
plane-surface $-1 -65.92103239283972 -18.320912582261041 0 0 1 0 0 0 1 forward_v I I I I #
coedge $-1 $163 $164 $100 $165 forward $61 $-1 #
coedge $-1 $166 $63 $167 $168 reversed $39 $-1 #
coedge $-1 $63 $166 $98 $165 reversed $39 $-1 #
coedge $-1 $169 $170 $63 $102 reversed $171 $-1 #
edge $-1 $172 -15.51031378949593 $173 15.51031378949593 $101 $174 forward 7 unknown #
face $-1 $175 $176 $23 $-1 $177 reversed single #
loop $-1 $-1 $178 $64 #
plane-surface $-1 0 0 15.51031378949593 0 0 1 1 0 0 forward_v I I I I #
coedge $-1 $179 $180 $181 $182 reversed $65 $-1 #
coedge $-1 $183 $67 $184 $185 reversed $42 $-1 #
coedge $-1 $67 $183 $186 $187 reversed $42 $-1 #
coedge $-1 $180 $179 $67 $110 reversed $65 $-1 #
edge $-1 $188 -15.51031378949593 $189 15.51031378949593 $109 $190 forward 7 unknown #
face $-1 $191 $192 $24 $-1 $193 reversed single #
loop $-1 $-1 $194 $68 #
plane-surface $-1 -26.213575780333798 49.34222878771309 149.41919016492491 -1 0 0 0 0.61566148304635926 0.78801074757464917 forward_v I I I I #
coedge $-1 $195 $196 $197 $198 reversed $69 $-1 #
coedge $-1 $116 $71 $199 $200 reversed $45 $-1 #
coedge $-1 $71 $115 $195 $201 reversed $45 $-1 #
coedge $-1 $197 $202 $71 $118 forward $203 $-1 #
edge $-1 $204 -16.174236851485151 $205 -3.8172649246027071 $117 $206 forward 7 unknown #
loop $-1 $-1 $124 $72 #
plane-surface $-1 -35.956164750539259 -23.527800294239974 56.149808087416659 0 0.61566148304635926 0.78801074757464917 1 0 0 forward_v I I I I #
loop $-1 $-1 $207 $47 #
coedge $-1 $122 $122 $123 $208 reversed $73 $-1 #
coedge $-1 $123 $123 $122 $208 forward $75 $-1 #
coedge $-1 $124 $124 $76 $125 forward $119 $-1 #
edge $-1 $209 2.2745894343807507e-015 $209 6.2831853071796031 $124 $210 forward 7 unknown #
loop $-1 $-1 $131 $77 #
plane-surface $-1 -35.956164750539259 -23.527800294239974 56.149808087416659 0 0.61566148304635926 0.78801074757464917 1 0 0 forward_v I I I I #
loop $-1 $-1 $211 $50 #
coedge $-1 $129 $129 $130 $212 reversed $78 $-1 #
coedge $-1 $130 $130 $129 $212 forward $80 $-1 #
coedge $-1 $131 $131 $81 $132 forward $126 $-1 #
edge $-1 $213 2.2745894343807507e-015 $213 6.2831853071796031 $131 $214 forward 7 unknown #
loop $-1 $-1 $138 $82 #
plane-surface $-1 -35.956164750539259 -23.527800294239974 56.149808087416659 0 0.61566148304635926 0.78801074757464917 1 0 0 forward_v I I I I #
loop $-1 $-1 $215 $53 #
coedge $-1 $136 $136 $137 $216 reversed $83 $-1 #
coedge $-1 $137 $137 $136 $216 forward $85 $-1 #
coedge $-1 $138 $138 $86 $139 forward $133 $-1 #
edge $-1 $217 2.2745894343807507e-015 $217 6.2831853071796031 $138 $218 forward 7 unknown #
face $-1 $219 $220 $21 $-1 $221 reversed single #
loop $-1 $-1 $222 $87 #
plane-surface $-1 -59.180272835474717 0 0 1 0 0 0 0 -1 forward_v I I I I #
coedge $-1 $223 $151 $224 $225 forward $88 $-1 #
coedge $-1 $226 $90 $223 $227 forward $57 $-1 #
coedge $-1 $90 $226 $228 $229 forward $57 $-1 #
coedge $-1 $154 $153 $90 $147 reversed $155 $-1 #
edge $-1 $230 -40.845351245341696 $231 40.845351245341696 $146 $232 forward 7 unknown #
coedge $-1 $92 $91 $233 $234 forward $36 $-1 #
coedge $-1 $235 $236 $91 $150 reversed $220 $-1 #
edge $-1 $157 -59.180272835474717 $237 59.180272835474717 $149 $238 forward 7 unknown #
coedge $-1 $143 $239 $92 $152 reversed $88 $-1 #
edge $-1 $240 -59.180272835474717 $156 59.180272835474717 $151 $241 forward 7 unknown #
coedge $-1 $146 $93 $239 $242 forward $155 $-1 #
coedge $-1 $93 $146 $235 $243 reversed $155 $-1 #
loop $-1 $-1 $153 $219 #
vertex $-1 $94 $244 #
vertex $-1 $94 $245 #
straight-curve $-1 59.180272835474717 0 15.51031378949593 0 1 0 I I #
face $-1 $246 $171 $22 $-1 $247 reversed single #
loop $-1 $-1 $248 $95 #
plane-surface $-1 -72.661791950204716 -14.072818124305439 0 1 0 0 0 0 -1 forward_v I I I I #
coedge $-1 $249 $250 $251 $252 forward $96 $-1 #
coedge $-1 $253 $98 $249 $254 forward $61 $-1 #
coedge $-1 $98 $253 $169 $255 forward $61 $-1 #
edge $-1 $172 9.8247236663498363 $256 18.320912582261041 $98 $257 forward 7 unknown #
coedge $-1 $100 $99 $258 $259 forward $39 $-1 #
coedge $-1 $260 $261 $99 $168 forward $262 $-1 #
edge $-1 $263 -18.320912582261041 $173 -9.8247236663498363 $167 $264 forward 7 unknown #
coedge $-1 $265 $101 $164 $255 reversed $171 $-1 #
coedge $-1 $101 $265 $260 $266 reversed $171 $-1 #
loop $-1 $-1 $101 $159 #
vertex $-1 $165 $267 #
vertex $-1 $266 $268 #
straight-curve $-1 -59.180272835474717 -9.8247236663498363 0 0 0 1 I I #
face $-1 $269 $270 $23 $-1 $271 reversed single #
loop $-1 $-1 $272 $103 #
plane-surface $-1 0 -40.845351245341696 0 0 1 0 0 0 1 forward_v I I I I #
coedge $-1 $186 $273 $180 $274 forward $104 $-1 #
coedge $-1 $109 $106 $275 $276 reversed $65 $-1 #
coedge $-1 $106 $109 $178 $274 reversed $65 $-1 #
coedge $-1 $277 $278 $106 $182 forward $279 $-1 #
edge $-1 $280 -15.51031378949593 $281 15.51031378949593 $181 $282 forward 7 unknown #
coedge $-1 $108 $107 $272 $283 reversed $42 $-1 #
coedge $-1 $275 $284 $107 $185 forward $270 $-1 #
edge $-1 $285 -22.745199201999174 $189 -13.45510488468587 $184 $286 forward 7 unknown #
coedge $-1 $287 $178 $108 $187 forward $104 $-1 #
edge $-1 $188 13.45510488468587 $288 22.745199201999174 $186 $289 forward 7 unknown #
vertex $-1 $187 $290 #
vertex $-1 $185 $291 #
straight-curve $-1 47.961242109243194 -31.555256928028392 0 0 0 -1 I I #
face $-1 $-1 $203 $24 $-1 $292 forward single #
loop $-1 $-1 $293 $111 #
plane-surface $-1 0 40.845351245341696 0 0 -1 0 0 0 -1 forward_v I I I I #
coedge $-1 $294 $295 $296 $297 reversed $112 $-1 #
coedge $-1 $298 $114 $116 $201 forward $69 $-1 #
coedge $-1 $114 $298 $294 $299 forward $69 $-1 #
coedge $-1 $296 $117 $114 $198 forward $203 $-1 #
edge $-1 $205 -27.72067134547509 $300 -8.2354934050641688 $197 $301 forward 7 unknown #
coedge $-1 $302 $303 $115 $200 forward $192 $-1 #
edge $-1 $304 -68.853606041558848 $204 -59.199281292966525 $199 $305 forward 7 unknown #
edge $-1 $205 66.009479912292278 $304 81.690702490683378 $116 $306 forward 7 unknown #
coedge $-1 $117 $296 $302 $307 forward $203 $-1 #
loop $-1 $-1 $296 $191 #
vertex $-1 $200 $308 #
vertex $-1 $118 $309 #
straight-curve $-1 -45.698753720744719 24.671114393856545 15.510313789495925 0 -1 0 I I #
coedge $-1 $207 $207 $-1 $310 reversed $121 $-1 #
edge $-1 $311 0 $311 6.2831853071796004 $122 $312 forward 7 unknown #
vertex $-1 $125 $313 #
ellipse-curve $-1 -41.801718132662536 34.666865281900478 10.683151415199767 0 0.61566148304635926 0.78801074757464917 1.5 0 0 1 I I #
coedge $-1 $211 $211 $-1 $314 reversed $128 $-1 #
edge $-1 $315 0 $315 6.2831853071796004 $129 $316 forward 7 unknown #
vertex $-1 $132 $317 #
ellipse-curve $-1 -35.956164750539259 34.666865281900478 10.683151415199767 0 0.61566148304635926 0.78801074757464917 1.5 0 0 1 I I #
coedge $-1 $215 $215 $-1 $318 reversed $135 $-1 #
edge $-1 $319 0 $319 6.2831853071796004 $136 $320 forward 7 unknown #
vertex $-1 $139 $321 #
ellipse-curve $-1 -30.110611368415981 34.666865281900478 10.683151415199767 0 0.61566148304635926 0.78801074757464917 1.5 0 0 1 I I #
face $-1 $-1 $155 $21 $-1 $322 reversed single #
loop $-1 $-1 $235 $140 #
plane-surface $-1 0 40.845351245341696 0 0 -1 0 0 0 -1 forward_v I I I I #
coedge $-1 $323 $233 $236 $324 forward $141 $-1 #
coedge $-1 $239 $143 $144 $227 reversed $88 $-1 #
coedge $-1 $233 $323 $143 $225 reversed $141 $-1 #
edge $-1 $240 -15.51031378949593 $325 15.51031378949593 $224 $326 forward 7 unknown #
coedge $-1 $145 $144 $323 $327 forward $57 $-1 #
edge $-1 $231 -59.180272835474717 $325 59.180272835474717 $223 $328 forward 7 unknown #
coedge $-1 $236 $235 $145 $229 reversed $220 $-1 #
edge $-1 $329 -59.180272835474717 $230 59.180272835474717 $228 $330 forward 7 unknown #
vertex $-1 $147 $331 #
vertex $-1 $242 $332 #
straight-curve $-1 59.180272835474717 0 -15.51031378949593 0 -1 0 I I #
coedge $-1 $222 $224 $148 $234 reversed $141 $-1 #
edge $-1 $237 -40.845351245341696 $240 40.845351245341696 $233 $333 forward 7 unknown #
coedge $-1 $228 $149 $154 $243 forward $220 $-1 #
coedge $-1 $149 $228 $222 $324 reversed $220 $-1 #
vertex $-1 $150 $334 #
straight-curve $-1 0 40.845351245341696 15.51031378949593 -1 0 0 I I #
coedge $-1 $151 $223 $153 $242 reversed $88 $-1 #
vertex $-1 $234 $335 #
straight-curve $-1 0 -40.845351245341696 15.51031378949593 1 0 0 I I #
edge $-1 $156 -15.51031378949593 $231 15.51031378949593 $153 $336 forward 7 unknown #
edge $-1 $157 -15.51031378949593 $230 15.51031378949593 $154 $337 forward 7 unknown #
point $-1 59.180272835474717 -40.845351245341696 15.51031378949593 #
point $-1 59.180272835474717 40.845351245341696 15.51031378949593 #
face $-1 $-1 $262 $22 $-1 $338 forward single #
plane-surface $-1 -65.92103239283972 -9.8247236663498363 0 0 -1 0 0 0 -1 forward_v I I I I #
coedge $-1 $339 $340 $265 $341 forward $160 $-1 #
coedge $-1 $258 $162 $163 $254 reversed $96 $-1 #
coedge $-1 $162 $258 $261 $342 reversed $96 $-1 #
coedge $-1 $340 $339 $162 $252 reversed $160 $-1 #
edge $-1 $343 -15.51031378949593 $344 15.51031378949593 $251 $345 forward 7 unknown #
coedge $-1 $164 $163 $339 $346 forward $61 $-1 #
edge $-1 $256 -6.7407595573649957 $344 6.7407595573649957 $249 $347 forward 7 unknown #
edge $-1 $348 -6.7407595573649957 $172 6.7407595573649957 $169 $349 forward 7 unknown #
vertex $-1 $254 $350 #
straight-curve $-1 -59.180272835474717 0 -15.51031378949593 0 -1 0 I I #
coedge $-1 $250 $249 $166 $259 reversed $96 $-1 #
edge $-1 $263 -15.51031378949593 $256 15.51031378949593 $258 $351 forward 7 unknown #
coedge $-1 $352 $167 $170 $266 forward $262 $-1 #
coedge $-1 $167 $352 $250 $342 forward $262 $-1 #
loop $-1 $-1 $167 $246 #
vertex $-1 $168 $353 #
straight-curve $-1 -59.180272835474717 0 15.51031378949593 0 1 0 I I #
coedge $-1 $170 $169 $248 $341 reversed $171 $-1 #
edge $-1 $173 -6.7407595573649957 $354 6.7407595573649957 $170 $355 forward 7 unknown #
point $-1 -59.180272835474725 -9.8247236663498363 -15.51031378949593 #
point $-1 -59.180272835474725 -9.8247236663498363 15.51031378949593 #
face $-1 $-1 $279 $23 $-1 $356 reversed single #
loop $-1 $-1 $275 $175 #
plane-surface $-1 0 0 -15.51031378949593 0 0 1 1 0 0 forward_v I I I I #
coedge $-1 $357 $358 $183 $283 forward $176 $-1 #
coedge $-1 $178 $287 $277 $359 forward $104 $-1 #
edge $-1 $281 -32.394894099295243 $188 -21.175863373063716 $178 $360 forward 7 unknown #
coedge $-1 $361 $184 $179 $276 forward $270 $-1 #
edge $-1 $189 21.175863373063716 $280 32.394894099295243 $275 $362 forward 7 unknown #
coedge $-1 $363 $181 $273 $359 reversed $279 $-1 #
coedge $-1 $181 $363 $361 $364 reversed $279 $-1 #
loop $-1 $-1 $181 $269 #
vertex $-1 $364 $365 #
vertex $-1 $274 $366 #
straight-curve $-1 59.180272835474717 -31.555256928028392 0 0 0 1 I I #
edge $-1 $288 -15.51031378949593 $285 15.51031378949593 $272 $367 forward 7 unknown #
coedge $-1 $184 $361 $357 $368 forward $270 $-1 #
vertex $-1 $283 $369 #
straight-curve $-1 47.961242109243194 -18.100152043342522 -15.51031378949593 0 1 0 I I #
coedge $-1 $273 $186 $358 $370 forward $104 $-1 #
vertex $-1 $370 $371 #
straight-curve $-1 47.961242109243194 -18.100152043342522 15.51031378949593 0 -1 0 I I #
point $-1 47.961242109243194 -31.555256928028392 15.51031378949593 #
point $-1 47.961242109243194 -31.555256928028392 -15.51031378949593 #
plane-surface $-1 0 0 15.51031378949593 0 0 1 1 0 0 forward_v I I I I #
coedge $-1 $303 $302 $295 $372 forward $192 $-1 #
coedge $-1 $295 $194 $196 $299 reversed $112 $-1 #
coedge $-1 $194 $294 $293 $372 reversed $112 $-1 #
coedge $-1 $202 $197 $194 $297 forward $203 $-1 #
edge $-1 $300 3.8172649246027071 $373 16.174236851485151 $296 $374 forward 7 unknown #
coedge $-1 $196 $195 $303 $375 reversed $69 $-1 #
edge $-1 $376 -81.690702490683378 $300 -66.009479912292278 $294 $377 forward 7 unknown #
vertex $-1 $198 $378 #
straight-curve $-1 -17.978082375269629 28.488379318459256 15.510313789495932 1 0 0 I I #
coedge $-1 $293 $199 $202 $307 reversed $192 $-1 #
coedge $-1 $199 $293 $298 $375 forward $192 $-1 #
vertex $-1 $200 $379 #
straight-curve $-1 -45.698753720744719 40.845351245341696 74.709595082462457 0 0 1 I I #
straight-curve $-1 -45.698753720744719 -23.527800294239974 56.149808087416659 0 0.78801074757464917 -0.61566148304635926 I I #
edge $-1 $373 26.213575780333798 $204 45.698753720744719 $302 $380 forward 7 unknown #
point $-1 -45.698753720744719 40.845351245341696 15.51031378949593 #
point $-1 -45.698753720744719 28.488379318459252 15.510313789495932 #
edge $-1 $381 1 $381 0 $207 $-1 forward 7 unknown #
vertex $-1 $208 $382 #
ellipse-curve $-1 -41.801718132662536 31.359209073895304 6.4495446150910469 0 0.61566148304635926 0.78801074757464917 1.5 0 0 1 I I #
point $-1 -40.301718132662536 34.666865281900485 10.68315141519977 #
edge $-1 $383 1 $383 0 $211 $-1 forward 7 unknown #
vertex $-1 $212 $384 #
ellipse-curve $-1 -35.956164750539259 31.359209073895304 6.4495446150910469 0 0.61566148304635926 0.78801074757464917 1.5 0 0 1 I I #
point $-1 -34.456164750539259 34.666865281900485 10.68315141519977 #
edge $-1 $385 1 $385 0 $215 $-1 forward 7 unknown #
vertex $-1 $216 $386 #
ellipse-curve $-1 -30.110611368415981 31.359209073895304 6.4495446150910469 0 0.61566148304635926 0.78801074757464917 1.5 0 0 1 I I #
point $-1 -28.610611368415981 34.666865281900485 10.68315141519977 #
plane-surface $-1 59.180272835474717 0 0 -1 0 0 0 0 1 forward_v I I I I #
coedge $-1 $224 $222 $226 $327 reversed $141 $-1 #
edge $-1 $237 -15.51031378949593 $329 15.51031378949593 $236 $387 forward 7 unknown #
vertex $-1 $327 $388 #
straight-curve $-1 -59.180272835474717 -40.845351245341696 0 0 0 -1 I I #
edge $-1 $325 -40.845351245341696 $329 40.845351245341696 $323 $389 forward 7 unknown #
straight-curve $-1 0 -40.845351245341696 -15.51031378949593 -1 0 0 I I #
vertex $-1 $229 $390 #
straight-curve $-1 0 40.845351245341696 -15.51031378949593 1 0 0 I I #
point $-1 59.180272835474717 40.845351245341696 -15.51031378949593 #
point $-1 59.180272835474717 -40.845351245341696 -15.51031378949593 #
straight-curve $-1 -59.180272835474717 0 15.51031378949593 0 -1 0 I I #
point $-1 -59.180272835474717 40.845351245341696 15.51031378949593 #
point $-1 -59.180272835474717 -40.845351245341696 15.51031378949593 #
straight-curve $-1 59.180272835474717 -40.845351245341696 0 0 0 -1 I I #
straight-curve $-1 59.180272835474717 40.845351245341696 0 0 0 -1 I I #
plane-surface $-1 0 0 15.51031378949593 0 0 1 1 0 0 forward_v I I I I #
coedge $-1 $251 $248 $253 $346 reversed $160 $-1 #
coedge $-1 $248 $251 $352 $391 reversed $160 $-1 #
edge $-1 $354 -15.51031378949593 $348 15.51031378949593 $265 $392 forward 7 unknown #
edge $-1 $343 -6.7407595573649957 $263 6.7407595573649957 $250 $393 forward 7 unknown #
vertex $-1 $391 $394 #
vertex $-1 $346 $395 #
straight-curve $-1 -72.661791950204716 -18.320912582261041 0 0 0 -1 I I #
edge $-1 $344 -4.2480944579556024 $348 4.2480944579556024 $339 $396 forward 7 unknown #
straight-curve $-1 -65.92103239283972 -18.320912582261041 -15.51031378949593 -1 0 0 I I #
vertex $-1 $255 $397 #
straight-curve $-1 -65.92103239283972 -9.8247236663498363 -15.51031378949593 1 0 0 I I #
point $-1 -59.180272835474725 -18.320912582261041 -15.51031378949593 #
straight-curve $-1 -59.180272835474717 -18.320912582261041 0 0 0 -1 I I #
coedge $-1 $261 $260 $340 $391 forward $262 $-1 #
point $-1 -59.180272835474725 -18.320912582261041 15.51031378949593 #
vertex $-1 $266 $398 #
straight-curve $-1 -65.92103239283972 -9.8247236663498363 15.51031378949593 -1 0 0 I I #
plane-surface $-1 59.180272835474717 0 0 -1 0 0 0 0 1 forward_v I I I I #
coedge $-1 $399 $272 $284 $368 reversed $176 $-1 #
coedge $-1 $272 $399 $287 $370 reversed $176 $-1 #
edge $-1 $400 -40.845351245341696 $281 -31.555256928028392 $277 $401 forward 7 unknown #
straight-curve $-1 26.785378736179478 -31.555256928028392 15.51031378949593 -1 0 0 I I #
coedge $-1 $284 $275 $278 $364 forward $270 $-1 #
straight-curve $-1 26.785378736179478 -31.555256928028392 -15.51031378949593 1 0 0 I I #
coedge $-1 $278 $277 $399 $402 forward $279 $-1 #
edge $-1 $280 31.555256928028392 $403 40.845351245341696 $278 $404 forward 7 unknown #
point $-1 59.180272835474717 -31.555256928028392 -15.51031378949593 #
point $-1 59.180272835474717 -31.555256928028392 15.51031378949593 #
straight-curve $-1 47.961242109243194 -40.845351245341696 0 0 0 -1 I I #
edge $-1 $403 -59.180272835474717 $285 -47.961242109243194 $357 $405 forward 7 unknown #
point $-1 47.961242109243194 -40.845351245341696 -15.51031378949593 #
edge $-1 $288 47.961242109243194 $400 59.180272835474717 $358 $406 forward 7 unknown #
point $-1 47.961242109243194 -40.845351245341696 15.51031378949593 #
edge $-1 $373 59.199281292966525 $376 68.853606041558848 $293 $407 forward 7 unknown #
vertex $-1 $307 $408 #
straight-curve $-1 -26.213575780333798 24.671114393856545 15.510313789495925 0 1 0 I I #
edge $-1 $376 8.2354934050641688 $304 27.72067134547509 $303 $409 forward 7 unknown #
vertex $-1 $375 $410 #
straight-curve $-1 -26.213575780333798 -23.527800294239974 56.149808087416659 0 -0.78801074757464917 0.61566148304635926 I I #
point $-1 -26.213575780333798 28.488379318459252 15.510313789495932 #
point $-1 -45.698753720744719 40.845351245341696 5.8559890409036086 #
straight-curve $-1 0 40.845351245341696 15.51031378949593 -1 0 0 I I #
vertex $-1 $310 $411 #
point $-1 -40.301718132662536 31.359209073895304 6.4495446150910469 #
vertex $-1 $314 $412 #
point $-1 -34.456164750539259 31.359209073895304 6.4495446150910469 #
vertex $-1 $318 $413 #
point $-1 -28.610611368415981 31.359209073895304 6.4495446150910469 #
straight-curve $-1 -59.180272835474717 40.845351245341696 0 0 0 -1 I I #
point $-1 -59.180272835474717 -40.845351245341696 -15.51031378949593 #
straight-curve $-1 -59.180272835474717 0 -15.51031378949593 0 1 0 I I #
point $-1 -59.180272835474717 40.845351245341696 -15.51031378949593 #
edge $-1 $354 -4.2480944579556024 $343 4.2480944579556024 $340 $414 forward 7 unknown #
straight-curve $-1 -72.661791950204716 -9.8247236663498363 0 0 0 -1 I I #
straight-curve $-1 -65.92103239283972 -18.320912582261041 15.51031378949593 1 0 0 I I #
point $-1 -72.661791950204716 -18.320912582261041 15.51031378949593 #
point $-1 -72.661791950204716 -18.320912582261041 -15.51031378949593 #
straight-curve $-1 -72.661791950204716 -14.072818124305439 -15.51031378949593 0 1 0 I I #
point $-1 -72.661791950204716 -9.8247236663498363 -15.51031378949593 #
point $-1 -72.661791950204716 -9.8247236663498363 15.51031378949593 #
coedge $-1 $358 $357 $363 $402 reversed $176 $-1 #
vertex $-1 $359 $415 #
straight-curve $-1 59.180272835474717 0 15.51031378949593 0 1 0 I I #
edge $-1 $400 -15.51031378949593 $403 15.51031378949593 $363 $416 forward 7 unknown #
vertex $-1 $402 $417 #
straight-curve $-1 59.180272835474717 0 -15.51031378949593 0 -1 0 I I #
straight-curve $-1 0 -40.845351245341696 -15.51031378949593 -1 0 0 I I #
straight-curve $-1 0 -40.845351245341696 15.51031378949593 1 0 0 I I #
straight-curve $-1 -26.213575780333798 40.845351245341696 74.709595082462457 0 0 -1 I I #
point $-1 -26.213575780333798 40.845351245341696 15.51031378949593 #
straight-curve $-1 -17.978082375269629 40.845351245341696 5.8559890409036122 -1 0 0 I I #
point $-1 -26.213575780333798 40.845351245341696 5.8559890409036086 #
point $-1 -41.801718132662536 30.435716849325768 5.2675284937290732 #
point $-1 -35.956164750539259 30.435716849325768 5.2675284937290732 #
point $-1 -30.110611368415981 30.435716849325768 5.2675284937290732 #
straight-curve $-1 -72.661791950204716 -14.072818124305439 15.51031378949593 0 -1 0 I I #
point $-1 59.180272835474717 -40.845351245341696 15.51031378949593 #
straight-curve $-1 59.180272835474717 -40.845351245341696 0 0 0 -1 I I #
point $-1 59.180272835474717 -40.845351245341696 -15.51031378949593 #
End-of-ACIS-data 