500 0 18 0           
7 Unknown 11 ACIS 5.0 NT 24 Fri Mar 26 14:45:12 1999 
-1 9.9999999999999995e-007 1e-010 
body $-1 $18 $-1 $19 #
body $-1 $20 $-1 $21 #
body $-1 $22 $-1 $23 #
body $-1 $24 $-1 $25 #
body $-1 $26 $-1 $27 #
body $-1 $28 $-1 $29 #
body $-1 $30 $-1 $31 #
body $-1 $32 $-1 $33 #
body $-1 $34 $-1 $35 #
body $-1 $36 $-1 $37 #
body $-1 $38 $-1 $39 #
body $-1 $40 $-1 $41 #
body $-1 $42 $-1 $43 #
body $-1 $44 $-1 $45 #
body $-1 $46 $-1 $47 #
body $-1 $48 $-1 $49 #
body $-1 $50 $-1 $51 #
body $-1 $52 $-1 $53 #
lump $-1 $-1 $54 $0 #
transform $-1 1 0 0 0 1 0 0 0 1 66.028626361888485 40.487898478681963 18.619218940271217 1 rotate no_reflect no_shear #
lump $-1 $-1 $55 $1 #
transform $-1 1 0 0 0 1 0 0 0 1 66.028626361888485 40.487898478681963 18.619218940271217 1 rotate no_reflect no_shear #
lump $-1 $-1 $56 $2 #
transform $-1 1 0 0 0 1 0 0 0 1 66.028626361888485 40.487898478681963 18.619218940271217 1 rotate no_reflect no_shear #
lump $-1 $-1 $57 $3 #
transform $-1 1 0 0 0 1 0 0 0 1 66.028626361888485 40.487898478681963 18.619218940271217 1 rotate no_reflect no_shear #
lump $-1 $-1 $58 $4 #
transform $-1 1 0 0 0 1 0 0 0 1 66.028626361888485 40.487898478681963 18.619218940271217 1 rotate no_reflect no_shear #
lump $-1 $-1 $59 $5 #
transform $-1 1 0 0 0 1 0 0 0 1 66.028626361888485 40.487898478681963 18.619218940271217 1 rotate no_reflect no_shear #
lump $-1 $-1 $60 $6 #
transform $-1 1 0 0 0 1 0 0 0 1 66.028626361888485 40.487898478681963 18.619218940271217 1 rotate no_reflect no_shear #
lump $-1 $-1 $61 $7 #
transform $-1 1 0 0 0 1 0 0 0 1 66.028626361888485 40.487898478681963 18.619218940271217 1 rotate no_reflect no_shear #
lump $-1 $-1 $62 $8 #
transform $-1 1 0 0 0 1 0 0 0 1 66.028626361888485 40.487898478681963 18.619218940271217 1 rotate no_reflect no_shear #
lump $-1 $-1 $63 $9 #
transform $-1 1 0 0 0 1 0 0 0 1 66.028626361888485 40.487898478681963 18.619218940271217 1 rotate no_reflect no_shear #
lump $-1 $-1 $64 $10 #
transform $-1 1 0 0 0 1 0 0 0 1 66.028626361888485 40.487898478681963 18.619218940271217 1 rotate no_reflect no_shear #
lump $-1 $-1 $65 $11 #
transform $-1 1 0 0 0 1 0 0 0 1 66.028626361888485 40.487898478681963 18.619218940271217 1 rotate no_reflect no_shear #
lump $-1 $-1 $66 $12 #
transform $-1 1 0 0 0 1 0 0 0 1 66.028626361888485 40.487898478681963 18.619218940271217 1 rotate no_reflect no_shear #
lump $-1 $-1 $67 $13 #
transform $-1 1 0 0 0 1 0 0 0 1 66.028626361888485 40.487898478681963 18.619218940271217 1 rotate no_reflect no_shear #
lump $-1 $-1 $68 $14 #
transform $-1 1 0 0 0 1 0 0 0 1 66.028626361888485 40.487898478681963 18.619218940271217 1 rotate no_reflect no_shear #
lump $-1 $-1 $69 $15 #
transform $-1 1 0 0 0 1 0 0 0 1 66.028626361888485 40.487898478681963 18.619218940271217 1 rotate no_reflect no_shear #
lump $-1 $-1 $70 $16 #
transform $-1 1 0 0 0 1 0 0 0 1 66.028626361888485 40.487898478681963 18.619218940271217 1 rotate no_reflect no_shear #
lump $-1 $-1 $71 $17 #
transform $-1 1 0 0 0 1 0 0 0 1 66.028626361888485 40.487898478681963 18.619218940271217 1 rotate no_reflect no_shear #
shell $-1 $-1 $-1 $72 $-1 $18 #
shell $-1 $-1 $-1 $73 $-1 $20 #
shell $-1 $-1 $-1 $74 $-1 $22 #
shell $-1 $-1 $-1 $75 $-1 $24 #
shell $-1 $-1 $-1 $76 $-1 $26 #
shell $-1 $-1 $-1 $77 $-1 $28 #
shell $-1 $-1 $-1 $78 $-1 $30 #
shell $-1 $-1 $-1 $79 $-1 $32 #
shell $-1 $-1 $-1 $80 $-1 $34 #
shell $-1 $-1 $-1 $81 $-1 $36 #
shell $-1 $-1 $-1 $82 $-1 $38 #
shell $-1 $-1 $-1 $83 $-1 $40 #
shell $-1 $-1 $-1 $84 $-1 $42 #
shell $-1 $-1 $-1 $85 $-1 $44 #
shell $-1 $-1 $-1 $86 $-1 $46 #
shell $-1 $-1 $-1 $87 $-1 $48 #
shell $-1 $-1 $-1 $88 $-1 $50 #
shell $-1 $-1 $-1 $89 $-1 $52 #
face $-1 $90 $91 $54 $-1 $92 forward single #
face $-1 $93 $94 $55 $-1 $95 forward single #
face $-1 $96 $97 $56 $-1 $98 reversed single #
face $-1 $99 $100 $57 $-1 $101 forward single #
face $-1 $102 $103 $58 $-1 $104 forward single #
face $-1 $105 $106 $59 $-1 $107 forward single #
face $-1 $108 $109 $60 $-1 $110 reversed single #
face $-1 $111 $112 $61 $-1 $113 forward single #
face $-1 $114 $115 $62 $-1 $116 forward single #
face $-1 $117 $118 $63 $-1 $119 forward single #
face $-1 $120 $121 $64 $-1 $122 reversed single #
face $-1 $123 $124 $65 $-1 $125 forward single #
face $-1 $126 $127 $66 $-1 $128 forward single #
face $-1 $129 $130 $67 $-1 $131 forward single #
face $-1 $132 $133 $68 $-1 $134 reversed single #
face $-1 $135 $136 $69 $-1 $137 forward single #
face $-1 $138 $139 $70 $-1 $140 forward single #
face $-1 $141 $142 $71 $-1 $143 forward single #
face $-1 $144 $145 $54 $-1 $146 reversed single #
loop $-1 $-1 $147 $72 #
plane-surface $-1 0 0 18.619218940271217 0 0 1 1 0 0 forward_v I I I I #
face $-1 $148 $149 $55 $-1 $150 reversed single #
loop $-1 $-1 $151 $73 #
plane-surface $-1 0 -40.487898478681963 0 0 1 0 0 0 1 forward_v I I I I #
face $-1 $152 $153 $56 $-1 $154 reversed single #
loop $-1 $-1 $155 $74 #
plane-surface $-1 104.85762549954819 -4.1154024251445147 185.92937405716097 0 -1 0 -0.83867057594974714 0 -0.54463902268945019 forward_v I I I I #
face $-1 $156 $157 $57 $-1 $158 forward single #
loop $-1 $159 $160 $75 #
cone-surface $-1 60.61992187189815 -10.442987468971172 10.663944356009901 -0.83867057594974714 0 -0.54463902268945019 0.2723195113447251 0 -0.41933528797487357 1 I I 0 1 0.5 forward I I I I #
face $-1 $161 $162 $58 $-1 $163 forward single #
loop $-1 $164 $165 $76 #
cone-surface $-1 60.61992187189815 -8.07014307753618 10.663944356009901 -0.83867057594974714 0 -0.54463902268945019 0.2723195113447251 0 -0.41933528797487357 1 I I 0 1 0.5 forward I I I I #
face $-1 $166 $167 $59 $-1 $168 forward single #
loop $-1 $169 $170 $77 #
cone-surface $-1 60.61992187189815 -5.6972986861011847 10.663944356009901 -0.83867057594974714 0 -0.54463902268945019 0.2723195113447251 0 -0.41933528797487357 1 I I 0 1 0.5 forward I I I I #
face $-1 $171 $172 $60 $-1 $173 reversed single #
loop $-1 $-1 $174 $78 #
plane-surface $-1 104.85762549954819 10.752364542797645 185.92937405716097 0 -1 0 -0.83867057594974714 0 -0.54463902268945019 forward_v I I I I #
face $-1 $175 $176 $61 $-1 $177 forward single #
loop $-1 $178 $179 $79 #
cone-surface $-1 60.61992187189815 4.4247794989709845 10.663944356009901 -0.83867057594974714 0 -0.54463902268945019 0.2723195113447251 0 -0.41933528797487357 1 I I 0 1 0.5 forward I I I I #
face $-1 $180 $181 $62 $-1 $182 forward single #
loop $-1 $183 $184 $80 #
cone-surface $-1 60.61992187189815 6.7976238904059798 10.663944356009901 -0.83867057594974714 0 -0.54463902268945019 0.2723195113447251 0 -0.41933528797487357 1 I I 0 1 0.5 forward I I I I #
face $-1 $185 $186 $63 $-1 $187 forward single #
loop $-1 $188 $189 $81 #
cone-surface $-1 60.61992187189815 9.1704682818409751 10.663944356009901 -0.83867057594974714 0 -0.54463902268945019 0.2723195113447251 0 -0.41933528797487357 1 I I 0 1 0.5 forward I I I I #
face $-1 $190 $191 $64 $-1 $192 reversed single #
loop $-1 $-1 $193 $82 #
plane-surface $-1 104.85762549954819 25.620131510739803 185.92937405716097 0 -1 0 -0.83867057594974714 0 -0.54463902268945019 forward_v I I I I #
face $-1 $194 $195 $65 $-1 $196 forward single #
loop $-1 $197 $198 $83 #
cone-surface $-1 60.61992187189815 19.292546466913144 10.663944356009901 -0.83867057594974714 0 -0.54463902268945019 0.2723195113447251 0 -0.41933528797487357 1 I I 0 1 0.5 forward I I I I #
face $-1 $199 $200 $66 $-1 $201 forward single #
loop $-1 $202 $203 $84 #
cone-surface $-1 60.61992187189815 21.66539085834814 10.663944356009901 -0.83867057594974714 0 -0.54463902268945019 0.2723195113447251 0 -0.41933528797487357 1 I I 0 1 0.5 forward I I I I #
face $-1 $204 $205 $67 $-1 $206 forward single #
loop $-1 $207 $208 $85 #
cone-surface $-1 60.61992187189815 24.038235249783135 10.663944356009901 -0.83867057594974714 0 -0.54463902268945019 0.2723195113447251 0 -0.41933528797487357 1 I I 0 1 0.5 forward I I I I #
face $-1 $209 $210 $68 $-1 $211 reversed single #
loop $-1 $-1 $212 $86 #
plane-surface $-1 104.85762549954819 32.578417173898643 185.92937405716097 0 1 0 0.83867057594974714 0 0.54463902268945019 forward_v I I I I #
face $-1 $213 $214 $69 $-1 $215 forward single #
loop $-1 $216 $217 $87 #
cone-surface $-1 60.61992187189815 34.160313434855304 10.663944356009901 -0.83867057594974714 0 -0.54463902268945019 0.2723195113447251 0 -0.41933528797487357 1 I I 0 1 0.5 forward I I I I #
face $-1 $218 $219 $70 $-1 $220 forward single #
loop $-1 $221 $222 $88 #
cone-surface $-1 60.61992187189815 36.533157826290299 10.663944356009901 -0.83867057594974714 0 -0.54463902268945019 0.2723195113447251 0 -0.41933528797487357 1 I I 0 1 0.5 forward I I I I #
face $-1 $223 $224 $71 $-1 $225 forward single #
loop $-1 $226 $227 $89 #
cone-surface $-1 60.61992187189815 38.906002217725295 10.663944356009901 -0.83867057594974714 0 -0.54463902268945019 0.2723195113447251 0 -0.41933528797487357 1 I I 0 1 0.5 forward I I I I #
face $-1 $228 $229 $54 $-1 $230 reversed single #
loop $-1 $-1 $231 $90 #
plane-surface $-1 0 0 -18.619218940271217 0 0 1 1 0 0 forward_v I I I I #
coedge $-1 $232 $233 $234 $235 forward $91 $-1 #
face $-1 $236 $237 $55 $-1 $238 reversed single #
loop $-1 $-1 $239 $93 #
plane-surface $-1 0 0 -18.619218940271217 0 0 1 1 0 0 forward_v I I I I #
coedge $-1 $240 $241 $242 $243 forward $94 $-1 #
face $-1 $244 $245 $56 $-1 $246 reversed single #
loop $-1 $-1 $247 $96 #
plane-surface $-1 -5.8949067006431477 -8.0701430775361729 114.00584099462935 0.83867057594974714 0 0.54463902268945019 0.54463902268945019 0 -0.83867057594974714 forward_v I I I I #
coedge $-1 $248 $249 $250 $251 reversed $97 $-1 #
face $-1 $-1 $252 $57 $-1 $253 forward single #
loop $-1 $254 $255 $99 #
cone-surface $-1 59.990918939935838 -10.442987468971172 10.255465088992814 -0.83867057594974714 0 -0.54463902268945019 0.13615975567236255 0 -0.20966764398743679 1 I I -0.70710678118654746 0.70710678118654746 0.25 forward I I I I #
loop $-1 $-1 $256 $75 #
coedge $-1 $160 $160 $257 $258 reversed $100 $-1 #
face $-1 $-1 $259 $58 $-1 $260 forward single #
loop $-1 $261 $262 $102 #
cone-surface $-1 59.990918939935838 -8.07014307753618 10.255465088992814 -0.83867057594974714 0 -0.54463902268945019 0.13615975567236255 0 -0.20966764398743679 1 I I -0.70710678118654746 0.70710678118654746 0.25 forward I I I I #
loop $-1 $-1 $263 $76 #
coedge $-1 $165 $165 $264 $265 reversed $103 $-1 #
face $-1 $-1 $266 $59 $-1 $267 forward single #
loop $-1 $268 $269 $105 #
cone-surface $-1 59.990918939935838 -5.6972986861011847 10.255465088992814 -0.83867057594974714 0 -0.54463902268945019 0.13615975567236255 0 -0.20966764398743679 1 I I -0.70710678118654746 0.70710678118654746 0.25 forward I I I I #
loop $-1 $-1 $270 $77 #
coedge $-1 $170 $170 $271 $272 reversed $106 $-1 #
face $-1 $273 $274 $60 $-1 $275 reversed single #
loop $-1 $-1 $276 $108 #
plane-surface $-1 -5.8949067006431477 6.7976238904059869 114.00584099462935 0.83867057594974714 0 0.54463902268945019 0.54463902268945019 0 -0.83867057594974714 forward_v I I I I #
coedge $-1 $277 $278 $279 $280 reversed $109 $-1 #
face $-1 $-1 $281 $61 $-1 $282 forward single #
loop $-1 $283 $284 $111 #
cone-surface $-1 59.990918939935838 4.4247794989709845 10.255465088992814 -0.83867057594974714 0 -0.54463902268945019 0.13615975567236255 0 -0.20966764398743679 1 I I -0.70710678118654746 0.70710678118654746 0.25 forward I I I I #
loop $-1 $-1 $285 $79 #
coedge $-1 $179 $179 $286 $287 reversed $112 $-1 #
face $-1 $-1 $288 $62 $-1 $289 forward single #
loop $-1 $290 $291 $114 #
cone-surface $-1 59.990918939935838 6.7976238904059798 10.255465088992814 -0.83867057594974714 0 -0.54463902268945019 0.13615975567236255 0 -0.20966764398743679 1 I I -0.70710678118654746 0.70710678118654746 0.25 forward I I I I #
loop $-1 $-1 $292 $80 #
coedge $-1 $184 $184 $293 $294 reversed $115 $-1 #
face $-1 $-1 $295 $63 $-1 $296 forward single #
loop $-1 $297 $298 $117 #
cone-surface $-1 59.990918939935838 9.1704682818409751 10.255465088992814 -0.83867057594974714 0 -0.54463902268945019 0.13615975567236255 0 -0.20966764398743679 1 I I -0.70710678118654746 0.70710678118654746 0.25 forward I I I I #
loop $-1 $-1 $299 $81 #
coedge $-1 $189 $189 $300 $301 reversed $118 $-1 #
face $-1 $302 $303 $64 $-1 $304 reversed single #
loop $-1 $-1 $305 $120 #
plane-surface $-1 -5.8949067006431477 21.665390858348147 114.00584099462935 0.83867057594974714 0 0.54463902268945019 0.54463902268945019 0 -0.83867057594974714 forward_v I I I I #
coedge $-1 $306 $307 $308 $309 reversed $121 $-1 #
face $-1 $-1 $310 $65 $-1 $311 forward single #
loop $-1 $312 $313 $123 #
cone-surface $-1 59.990918939935838 19.292546466913144 10.255465088992814 -0.83867057594974714 0 -0.54463902268945019 0.13615975567236255 0 -0.20966764398743679 1 I I -0.70710678118654746 0.70710678118654746 0.25 forward I I I I #
loop $-1 $-1 $314 $83 #
coedge $-1 $198 $198 $315 $316 reversed $124 $-1 #
face $-1 $-1 $317 $66 $-1 $318 forward single #
loop $-1 $319 $320 $126 #
cone-surface $-1 59.990918939935838 21.66539085834814 10.255465088992814 -0.83867057594974714 0 -0.54463902268945019 0.13615975567236255 0 -0.20966764398743679 1 I I -0.70710678118654746 0.70710678118654746 0.25 forward I I I I #
loop $-1 $-1 $321 $84 #
coedge $-1 $203 $203 $322 $323 reversed $127 $-1 #
face $-1 $-1 $324 $67 $-1 $325 forward single #
loop $-1 $326 $327 $129 #
cone-surface $-1 59.990918939935838 24.038235249783135 10.255465088992814 -0.83867057594974714 0 -0.54463902268945019 0.13615975567236255 0 -0.20966764398743679 1 I I -0.70710678118654746 0.70710678118654746 0.25 forward I I I I #
loop $-1 $-1 $328 $85 #
coedge $-1 $208 $208 $329 $330 reversed $130 $-1 #
face $-1 $331 $332 $68 $-1 $333 reversed single #
loop $-1 $-1 $334 $132 #
plane-surface $-1 -5.8949067006431477 36.533157826290299 114.00584099462935 0.83867057594974714 0 0.54463902268945019 0.54463902268945019 0 -0.83867057594974714 forward_v I I I I #
coedge $-1 $335 $336 $337 $338 reversed $133 $-1 #
face $-1 $-1 $339 $69 $-1 $340 forward single #
loop $-1 $341 $342 $135 #
cone-surface $-1 59.990918939935838 34.160313434855304 10.255465088992814 -0.83867057594974714 0 -0.54463902268945019 0.13615975567236255 0 -0.20966764398743679 1 I I -0.70710678118654746 0.70710678118654746 0.25 forward I I I I #
loop $-1 $-1 $343 $87 #
coedge $-1 $217 $217 $344 $345 reversed $136 $-1 #
face $-1 $-1 $346 $70 $-1 $347 forward single #
loop $-1 $348 $349 $138 #
cone-surface $-1 59.990918939935838 36.533157826290299 10.255465088992814 -0.83867057594974714 0 -0.54463902268945019 0.13615975567236255 0 -0.20966764398743679 1 I I -0.70710678118654746 0.70710678118654746 0.25 forward I I I I #
loop $-1 $-1 $350 $88 #
coedge $-1 $222 $222 $351 $352 reversed $139 $-1 #
face $-1 $-1 $353 $71 $-1 $354 forward single #
loop $-1 $355 $356 $141 #
cone-surface $-1 59.990918939935838 38.906002217725295 10.255465088992814 -0.83867057594974714 0 -0.54463902268945019 0.13615975567236255 0 -0.20966764398743679 1 I I -0.70710678118654746 0.70710678118654746 0.25 forward I I I I #
loop $-1 $-1 $357 $89 #
coedge $-1 $227 $227 $358 $359 reversed $142 $-1 #
face $-1 $360 $361 $54 $-1 $362 reversed single #
loop $-1 $-1 $363 $144 #
plane-surface $-1 0 -40.487898478681963 0 0 1 0 0 0 1 forward_v I I I I #
coedge $-1 $364 $365 $366 $367 forward $145 $-1 #
coedge $-1 $368 $147 $369 $370 forward $91 $-1 #
coedge $-1 $147 $368 $371 $372 forward $91 $-1 #
coedge $-1 $373 $374 $147 $235 reversed $375 $-1 #
edge $-1 $376 -40.487898478681963 $377 40.487898478681963 $234 $378 forward 7 unknown #
face $-1 $379 $380 $55 $-1 $381 reversed single #
loop $-1 $-1 $382 $148 #
plane-surface $-1 -63.576355769124731 -61.99262756427725 0 0 1 0 0 0 1 forward_v I I I I #
coedge $-1 $383 $384 $241 $385 forward $149 $-1 #
coedge $-1 $386 $151 $387 $388 reversed $94 $-1 #
coedge $-1 $151 $386 $239 $385 reversed $94 $-1 #
coedge $-1 $389 $390 $151 $243 reversed $380 $-1 #
edge $-1 $391 -18.619218940271217 $392 18.619218940271217 $242 $393 forward 7 unknown #
face $-1 $394 $395 $56 $-1 $396 forward single #
loop $-1 $-1 $397 $152 #
plane-surface $-1 104.85762549954819 -12.024883729927831 185.92937405716097 0 1 0 0.83867057594974714 0 0.54463902268945019 forward_v I I I I #
coedge $-1 $398 $399 $400 $401 reversed $153 $-1 #
coedge $-1 $249 $155 $402 $403 reversed $97 $-1 #
coedge $-1 $155 $248 $398 $404 reversed $97 $-1 #
coedge $-1 $400 $405 $155 $251 forward $395 $-1 #
edge $-1 $406 -13.599813612114389 $407 -3.6210752080834112 $250 $408 forward 7 unknown #
loop $-1 $-1 $257 $156 #
plane-surface $-1 -5.8949067006431477 -8.0701430775361729 114.00584099462935 0.83867057594974714 0 0.54463902268945019 0.54463902268945019 0 -0.83867057594974714 forward_v I I I I #
loop $-1 $-1 $409 $99 #
coedge $-1 $255 $255 $256 $410 reversed $157 $-1 #
coedge $-1 $256 $256 $255 $410 forward $159 $-1 #
coedge $-1 $257 $257 $160 $258 forward $252 $-1 #
edge $-1 $411 0 $411 6.2831853071796004 $257 $412 forward 7 unknown #
loop $-1 $-1 $264 $161 #
plane-surface $-1 -5.8949067006431477 -8.0701430775361729 114.00584099462935 0.83867057594974714 0 0.54463902268945019 0.54463902268945019 0 -0.83867057594974714 forward_v I I I I #
loop $-1 $-1 $413 $102 #
coedge $-1 $262 $262 $263 $414 reversed $162 $-1 #
coedge $-1 $263 $263 $262 $414 forward $164 $-1 #
coedge $-1 $264 $264 $165 $265 forward $259 $-1 #
edge $-1 $415 0 $415 6.2831853071796004 $264 $416 forward 7 unknown #
loop $-1 $-1 $271 $166 #
plane-surface $-1 -5.8949067006431477 -8.0701430775361729 114.00584099462935 0.83867057594974714 0 0.54463902268945019 0.54463902268945019 0 -0.83867057594974714 forward_v I I I I #
loop $-1 $-1 $417 $105 #
coedge $-1 $269 $269 $270 $418 reversed $167 $-1 #
coedge $-1 $270 $270 $269 $418 forward $169 $-1 #
coedge $-1 $271 $271 $170 $272 forward $266 $-1 #
edge $-1 $419 0 $419 6.2831853071796004 $271 $420 forward 7 unknown #
face $-1 $421 $422 $60 $-1 $423 reversed single #
loop $-1 $-1 $424 $171 #
plane-surface $-1 104.85762549954819 2.8428832380143287 185.92937405716097 0 1 0 0.83867057594974714 0 0.54463902268945019 forward_v I I I I #
coedge $-1 $425 $426 $427 $428 reversed $172 $-1 #
coedge $-1 $278 $174 $429 $430 reversed $109 $-1 #
coedge $-1 $174 $277 $425 $431 reversed $109 $-1 #
coedge $-1 $427 $432 $174 $280 forward $433 $-1 #
edge $-1 $434 -13.599813612114389 $435 -3.6210752080834112 $279 $436 forward 7 unknown #
loop $-1 $-1 $286 $175 #
plane-surface $-1 -5.8949067006431477 6.7976238904059869 114.00584099462935 0.83867057594974714 0 0.54463902268945019 0.54463902268945019 0 -0.83867057594974714 forward_v I I I I #
loop $-1 $-1 $437 $111 #
coedge $-1 $284 $284 $285 $438 reversed $176 $-1 #
coedge $-1 $285 $285 $284 $438 forward $178 $-1 #
coedge $-1 $286 $286 $179 $287 forward $281 $-1 #
edge $-1 $439 0 $439 6.2831853071796004 $286 $440 forward 7 unknown #
loop $-1 $-1 $293 $180 #
plane-surface $-1 -5.8949067006431477 6.7976238904059869 114.00584099462935 0.83867057594974714 0 0.54463902268945019 0.54463902268945019 0 -0.83867057594974714 forward_v I I I I #
loop $-1 $-1 $441 $114 #
coedge $-1 $291 $291 $292 $442 reversed $181 $-1 #
coedge $-1 $292 $292 $291 $442 forward $183 $-1 #
coedge $-1 $293 $293 $184 $294 forward $288 $-1 #
edge $-1 $443 0 $443 6.2831853071796004 $293 $444 forward 7 unknown #
loop $-1 $-1 $300 $185 #
plane-surface $-1 -5.8949067006431477 6.7976238904059869 114.00584099462935 0.83867057594974714 0 0.54463902268945019 0.54463902268945019 0 -0.83867057594974714 forward_v I I I I #
loop $-1 $-1 $445 $117 #
coedge $-1 $298 $298 $299 $446 reversed $186 $-1 #
coedge $-1 $299 $299 $298 $446 forward $188 $-1 #
coedge $-1 $300 $300 $189 $301 forward $295 $-1 #
edge $-1 $447 0 $447 6.2831853071796004 $300 $448 forward 7 unknown #
face $-1 $449 $450 $64 $-1 $451 reversed single #
loop $-1 $-1 $452 $190 #
plane-surface $-1 104.85762549954819 17.71065020595649 185.92937405716097 0 1 0 0.83867057594974714 0 0.54463902268945019 forward_v I I I I #
coedge $-1 $453 $454 $455 $456 reversed $191 $-1 #
coedge $-1 $307 $193 $457 $458 reversed $121 $-1 #
coedge $-1 $193 $306 $453 $459 reversed $121 $-1 #
coedge $-1 $455 $460 $193 $309 forward $461 $-1 #
edge $-1 $462 -13.599813612114389 $463 -3.6210752080834112 $308 $464 forward 7 unknown #
loop $-1 $-1 $315 $194 #
plane-surface $-1 -5.8949067006431477 21.665390858348147 114.00584099462935 0.83867057594974714 0 0.54463902268945019 0.54463902268945019 0 -0.83867057594974714 forward_v I I I I #
loop $-1 $-1 $465 $123 #
coedge $-1 $313 $313 $314 $466 reversed $195 $-1 #
coedge $-1 $314 $314 $313 $466 forward $197 $-1 #
coedge $-1 $315 $315 $198 $316 forward $310 $-1 #
edge $-1 $467 0 $467 6.2831853071796004 $315 $468 forward 7 unknown #
loop $-1 $-1 $322 $199 #
plane-surface $-1 -5.8949067006431477 21.665390858348147 114.00584099462935 0.83867057594974714 0 0.54463902268945019 0.54463902268945019 0 -0.83867057594974714 forward_v I I I I #
loop $-1 $-1 $469 $126 #
coedge $-1 $320 $320 $321 $470 reversed $200 $-1 #
coedge $-1 $321 $321 $320 $470 forward $202 $-1 #
coedge $-1 $322 $322 $203 $323 forward $317 $-1 #
edge $-1 $471 0 $471 6.2831853071796004 $322 $472 forward 7 unknown #
loop $-1 $-1 $329 $204 #
plane-surface $-1 -5.8949067006431477 21.665390858348147 114.00584099462935 0.83867057594974714 0 0.54463902268945019 0.54463902268945019 0 -0.83867057594974714 forward_v I I I I #
loop $-1 $-1 $473 $129 #
coedge $-1 $327 $327 $328 $474 reversed $205 $-1 #
coedge $-1 $328 $328 $327 $474 forward $207 $-1 #
coedge $-1 $329 $329 $208 $330 forward $324 $-1 #
edge $-1 $475 0 $475 6.2831853071796004 $329 $476 forward 7 unknown #
face $-1 $477 $478 $68 $-1 $479 reversed single #
loop $-1 $-1 $337 $209 #
plane-surface $-1 66.028626361888485 0 0 -1 0 0 0 0 1 forward_v I I I I #
coedge $-1 $480 $481 $482 $483 reversed $210 $-1 #
coedge $-1 $336 $212 $484 $485 reversed $133 $-1 #
coedge $-1 $212 $335 $480 $486 reversed $133 $-1 #
coedge $-1 $482 $487 $212 $338 forward $332 $-1 #
edge $-1 $488 74.345468088309275 $489 89.711378234142501 $337 $490 forward 7 unknown #
loop $-1 $-1 $344 $213 #
plane-surface $-1 -5.8949067006431477 36.533157826290299 114.00584099462935 0.83867057594974714 0 0.54463902268945019 0.54463902268945019 0 -0.83867057594974714 forward_v I I I I #
loop $-1 $-1 $491 $135 #
coedge $-1 $342 $342 $343 $492 reversed $214 $-1 #
coedge $-1 $343 $343 $342 $492 forward $216 $-1 #
coedge $-1 $344 $344 $217 $345 forward $339 $-1 #
edge $-1 $493 0 $493 6.2831853071796004 $344 $494 forward 7 unknown #
loop $-1 $-1 $351 $218 #
plane-surface $-1 -5.8949067006431477 36.533157826290299 114.00584099462935 0.83867057594974714 0 0.54463902268945019 0.54463902268945019 0 -0.83867057594974714 forward_v I I I I #
loop $-1 $-1 $495 $138 #
coedge $-1 $349 $349 $350 $496 reversed $219 $-1 #
coedge $-1 $350 $350 $349 $496 forward $221 $-1 #
coedge $-1 $351 $351 $222 $352 forward $346 $-1 #
edge $-1 $497 0 $497 6.2831853071796004 $351 $498 forward 7 unknown #
loop $-1 $-1 $358 $223 #
plane-surface $-1 -5.8949067006431477 36.533157826290299 114.00584099462935 0.83867057594974714 0 0.54463902268945019 0.54463902268945019 0 -0.83867057594974714 forward_v I I I I #
loop $-1 $-1 $499 $141 #
coedge $-1 $356 $356 $357 $500 reversed $224 $-1 #
coedge $-1 $357 $357 $356 $500 forward $226 $-1 #
coedge $-1 $358 $358 $227 $359 forward $353 $-1 #
edge $-1 $501 0 $501 6.2831853071796004 $358 $502 forward 7 unknown #
face $-1 $503 $504 $54 $-1 $505 reversed single #
loop $-1 $-1 $506 $228 #
plane-surface $-1 -66.028626361888485 0 0 1 0 0 0 0 -1 forward_v I I I I #
coedge $-1 $507 $371 $508 $509 forward $229 $-1 #
coedge $-1 $510 $231 $507 $511 forward $145 $-1 #
coedge $-1 $231 $510 $512 $513 forward $145 $-1 #
coedge $-1 $374 $373 $231 $367 reversed $375 $-1 #
edge $-1 $514 -40.487898478681963 $515 40.487898478681963 $366 $516 forward 7 unknown #
coedge $-1 $233 $232 $517 $518 forward $91 $-1 #
coedge $-1 $519 $520 $232 $370 reversed $504 $-1 #
edge $-1 $377 -66.028626361888485 $521 66.028626361888485 $369 $522 forward 7 unknown #
coedge $-1 $363 $523 $233 $372 reversed $229 $-1 #
edge $-1 $524 -66.028626361888485 $376 66.028626361888485 $371 $525 forward 7 unknown #
coedge $-1 $366 $234 $523 $526 forward $375 $-1 #
coedge $-1 $234 $366 $519 $527 reversed $375 $-1 #
loop $-1 $-1 $373 $503 #
vertex $-1 $235 $528 #
vertex $-1 $235 $529 #
straight-curve $-1 66.028626361888485 0 18.619218940271217 0 1 0 I I #
face $-1 $530 $531 $55 $-1 $532 reversed single #
loop $-1 $-1 $242 $236 #
plane-surface $-1 -65.528626361888485 -51.240263021479606 0 1 0 0 0 0 -1 forward_v I I I I #
coedge $-1 $533 $534 $535 $536 forward $237 $-1 #
coedge $-1 $537 $239 $538 $539 forward $149 $-1 #
coedge $-1 $239 $537 $389 $540 forward $149 $-1 #
edge $-1 $391 -65.528626361888485 $541 -61.624085176360978 $239 $542 forward 7 unknown #
coedge $-1 $241 $240 $543 $544 forward $94 $-1 #
coedge $-1 $545 $546 $240 $388 forward $547 $-1 #
edge $-1 $548 61.624085176360978 $392 65.528626361888485 $387 $549 forward 7 unknown #
coedge $-1 $535 $242 $384 $540 reversed $380 $-1 #
coedge $-1 $242 $535 $545 $550 reversed $380 $-1 #
vertex $-1 $385 $551 #
vertex $-1 $550 $552 #
straight-curve $-1 -65.528626361888485 -40.487898478681963 0 0 0 1 I I #
face $-1 $-1 $553 $56 $-1 $554 reversed single #
loop $-1 $-1 $250 $244 #
plane-surface $-1 0 0 18.619218940271217 0 0 1 1 0 0 forward_v I I I I #
coedge $-1 $555 $556 $557 $558 reversed $245 $-1 #
coedge $-1 $559 $247 $249 $404 forward $153 $-1 #
coedge $-1 $247 $559 $555 $560 forward $153 $-1 #
coedge $-1 $557 $250 $247 $401 forward $395 $-1 #
edge $-1 $407 0.080330886376428268 $561 7.9898121911597446 $400 $562 forward 7 unknown #
coedge $-1 $563 $564 $248 $403 forward $553 $-1 #
edge $-1 $565 -89.711378234142501 $406 -74.345468088309275 $402 $566 forward 7 unknown #
edge $-1 $407 113.73550567973385 $565 132.057252723777 $249 $567 forward 7 unknown #
coedge $-1 $250 $557 $563 $568 forward $395 $-1 #
vertex $-1 $251 $569 #
vertex $-1 $251 $570 #
straight-curve $-1 52.428812749774096 -4.1154024251445147 18.619218940271224 -1 0 0 I I #
coedge $-1 $409 $409 $-1 $571 reversed $254 $-1 #
edge $-1 $572 0 $572 6.2831853071796004 $255 $573 forward 7 unknown #
vertex $-1 $258 $574 #
ellipse-curve $-1 61.039257159873003 -10.442987468971172 10.936263867354612 0.83867057594974714 0 0.54463902268945019 0.2723195113447251 0 -0.41933528797487357 1 I I #
coedge $-1 $413 $413 $-1 $575 reversed $261 $-1 #
edge $-1 $576 0 $576 6.2831853071796004 $262 $577 forward 7 unknown #
vertex $-1 $265 $578 #
ellipse-curve $-1 61.039257159873003 -8.07014307753618 10.936263867354612 0.83867057594974714 0 0.54463902268945019 0.2723195113447251 0 -0.41933528797487357 1 I I #
coedge $-1 $417 $417 $-1 $579 reversed $268 $-1 #
edge $-1 $580 0 $580 6.2831853071796004 $269 $581 forward 7 unknown #
vertex $-1 $272 $582 #
ellipse-curve $-1 61.039257159873003 -5.6972986861011847 10.936263867354612 0.83867057594974714 0 0.54463902268945019 0.2723195113447251 0 -0.41933528797487357 1 I I #
face $-1 $-1 $433 $60 $-1 $583 forward single #
loop $-1 $-1 $584 $273 #
plane-surface $-1 66.028626361888485 0 0 -1 0 0 0 0 1 forward_v I I I I #
coedge $-1 $585 $586 $587 $588 reversed $274 $-1 #
coedge $-1 $589 $276 $278 $431 forward $172 $-1 #
coedge $-1 $276 $589 $585 $590 forward $172 $-1 #
coedge $-1 $587 $279 $276 $428 forward $433 $-1 #
edge $-1 $435 -7.3535525975946516 $591 0.55592870718866472 $427 $592 forward 7 unknown #
coedge $-1 $593 $594 $277 $430 forward $422 $-1 #
edge $-1 $595 -89.711378234142501 $434 -74.345468088309275 $429 $596 forward 7 unknown #
edge $-1 $435 113.73550567973385 $595 132.057252723777 $278 $597 forward 7 unknown #
coedge $-1 $279 $587 $593 $598 forward $433 $-1 #
loop $-1 $-1 $587 $421 #
vertex $-1 $430 $599 #
vertex $-1 $280 $600 #
straight-curve $-1 52.428812749774096 10.752364542797645 18.619218940271224 -1 0 0 I I #
coedge $-1 $437 $437 $-1 $601 reversed $283 $-1 #
edge $-1 $602 0 $602 6.2831853071796004 $284 $603 forward 7 unknown #
vertex $-1 $287 $604 #
ellipse-curve $-1 61.039257159873003 4.4247794989709845 10.936263867354612 0.83867057594974714 0 0.54463902268945019 0.2723195113447251 0 -0.41933528797487357 1 I I #
coedge $-1 $441 $441 $-1 $605 reversed $290 $-1 #
edge $-1 $606 0 $606 6.2831853071796004 $291 $607 forward 7 unknown #
vertex $-1 $294 $608 #
ellipse-curve $-1 61.039257159873003 6.7976238904059798 10.936263867354612 0.83867057594974714 0 0.54463902268945019 0.2723195113447251 0 -0.41933528797487357 1 I I #
coedge $-1 $445 $445 $-1 $609 reversed $297 $-1 #
edge $-1 $610 0 $610 6.2831853071796004 $298 $611 forward 7 unknown #
vertex $-1 $301 $612 #
ellipse-curve $-1 61.039257159873003 9.1704682818409751 10.936263867354612 0.83867057594974714 0 0.54463902268945019 0.2723195113447251 0 -0.41933528797487357 1 I I #
face $-1 $-1 $461 $64 $-1 $613 forward single #
loop $-1 $-1 $614 $302 #
plane-surface $-1 66.028626361888485 0 0 -1 0 0 0 0 1 forward_v I I I I #
coedge $-1 $615 $616 $617 $618 reversed $303 $-1 #
coedge $-1 $619 $305 $307 $459 forward $191 $-1 #
coedge $-1 $305 $619 $615 $620 forward $191 $-1 #
coedge $-1 $617 $308 $305 $456 forward $461 $-1 #
edge $-1 $463 -14.78743608156573 $621 -6.877954776782417 $455 $622 forward 7 unknown #
coedge $-1 $623 $624 $306 $458 forward $450 $-1 #
edge $-1 $625 -89.711378234142501 $462 -74.345468088309275 $457 $626 forward 7 unknown #
edge $-1 $463 113.73550567973385 $625 132.057252723777 $307 $627 forward 7 unknown #
coedge $-1 $308 $617 $623 $628 forward $461 $-1 #
loop $-1 $-1 $617 $449 #
vertex $-1 $458 $629 #
vertex $-1 $309 $630 #
straight-curve $-1 52.428812749774096 25.620131510739803 18.619218940271224 -1 0 0 I I #
coedge $-1 $465 $465 $-1 $631 reversed $312 $-1 #
edge $-1 $632 0 $632 6.2831853071796004 $313 $633 forward 7 unknown #
vertex $-1 $316 $634 #
ellipse-curve $-1 61.039257159873003 19.292546466913144 10.936263867354612 0.83867057594974714 0 0.54463902268945019 0.2723195113447251 0 -0.41933528797487357 1 I I #
coedge $-1 $469 $469 $-1 $635 reversed $319 $-1 #
edge $-1 $636 0 $636 6.2831853071796004 $320 $637 forward 7 unknown #
vertex $-1 $323 $638 #
ellipse-curve $-1 61.039257159873003 21.66539085834814 10.936263867354612 0.83867057594974714 0 0.54463902268945019 0.2723195113447251 0 -0.41933528797487357 1 I I #
coedge $-1 $473 $473 $-1 $639 reversed $326 $-1 #
edge $-1 $640 0 $640 6.2831853071796004 $327 $641 forward 7 unknown #
vertex $-1 $330 $642 #
ellipse-curve $-1 61.039257159873003 24.038235249783135 10.936263867354612 0.83867057594974714 0 0.54463902268945019 0.2723195113447251 0 -0.41933528797487357 1 I I #
face $-1 $-1 $643 $68 $-1 $644 forward single #
loop $-1 $-1 $645 $331 #
plane-surface $-1 0 40.487898478681963 0 0 -1 0 0 0 -1 forward_v I I I I #
coedge $-1 $646 $334 $336 $486 forward $210 $-1 #
coedge $-1 $334 $646 $645 $647 reversed $210 $-1 #
coedge $-1 $648 $337 $334 $483 forward $332 $-1 #
edge $-1 $489 14.311838260753493 $649 22.221319565536813 $482 $650 forward 7 unknown #
coedge $-1 $651 $652 $335 $485 forward $643 $-1 #
edge $-1 $653 3.6210752080834112 $488 13.599813612114389 $484 $654 forward 7 unknown #
edge $-1 $489 -132.057252723777 $653 -113.73550567973385 $336 $655 forward 7 unknown #
coedge $-1 $337 $648 $651 $656 reversed $332 $-1 #
vertex $-1 $656 $657 #
vertex $-1 $338 $658 #
straight-curve $-1 66.028626361888485 32.578417173898643 92.964687028580485 0 0 -1 I I #
coedge $-1 $491 $491 $-1 $659 reversed $341 $-1 #
edge $-1 $660 0 $660 6.2831853071796004 $342 $661 forward 7 unknown #
vertex $-1 $345 $662 #
ellipse-curve $-1 61.039257159873003 34.160313434855304 10.936263867354612 0.83867057594974714 0 0.54463902268945019 0.2723195113447251 0 -0.41933528797487357 1 I I #
coedge $-1 $495 $495 $-1 $663 reversed $348 $-1 #
edge $-1 $664 0 $664 6.2831853071796004 $349 $665 forward 7 unknown #
vertex $-1 $352 $666 #
ellipse-curve $-1 61.039257159873003 36.533157826290299 10.936263867354612 0.83867057594974714 0 0.54463902268945019 0.2723195113447251 0 -0.41933528797487357 1 I I #
coedge $-1 $499 $499 $-1 $667 reversed $355 $-1 #
edge $-1 $668 0 $668 6.2831853071796004 $356 $669 forward 7 unknown #
vertex $-1 $359 $670 #
ellipse-curve $-1 61.039257159873003 38.906002217725295 10.936263867354612 0.83867057594974714 0 0.54463902268945019 0.2723195113447251 0 -0.41933528797487357 1 I I #
face $-1 $-1 $375 $54 $-1 $671 reversed single #
loop $-1 $-1 $519 $360 #
plane-surface $-1 0 40.487898478681963 0 0 -1 0 0 0 -1 forward_v I I I I #
coedge $-1 $672 $517 $520 $673 forward $361 $-1 #
coedge $-1 $523 $363 $364 $511 reversed $229 $-1 #
coedge $-1 $517 $672 $363 $509 reversed $361 $-1 #
edge $-1 $524 -18.619218940271217 $674 18.619218940271217 $508 $675 forward 7 unknown #
coedge $-1 $365 $364 $672 $676 forward $145 $-1 #
edge $-1 $515 -66.028626361888485 $674 66.028626361888485 $507 $677 forward 7 unknown #
coedge $-1 $520 $519 $365 $513 reversed $504 $-1 #
edge $-1 $678 -66.028626361888485 $514 66.028626361888485 $512 $679 forward 7 unknown #
vertex $-1 $367 $680 #
vertex $-1 $526 $681 #
straight-curve $-1 66.028626361888485 0 -18.619218940271217 0 -1 0 I I #
coedge $-1 $506 $508 $368 $518 reversed $361 $-1 #
edge $-1 $521 -40.487898478681963 $524 40.487898478681963 $517 $682 forward 7 unknown #
coedge $-1 $512 $369 $374 $527 forward $504 $-1 #
coedge $-1 $369 $512 $506 $673 reversed $504 $-1 #
vertex $-1 $370 $683 #
straight-curve $-1 0 40.487898478681963 18.619218940271217 -1 0 0 I I #
coedge $-1 $371 $507 $373 $526 reversed $229 $-1 #
vertex $-1 $518 $684 #
straight-curve $-1 0 -40.487898478681963 18.619218940271217 1 0 0 I I #
edge $-1 $376 -18.619218940271217 $515 18.619218940271217 $373 $685 forward 7 unknown #
edge $-1 $377 -18.619218940271217 $514 18.619218940271217 $374 $686 forward 7 unknown #
point $-1 66.028626361888485 -40.487898478681963 18.619218940271217 #
point $-1 66.028626361888485 40.487898478681963 18.619218940271217 #
face $-1 $-1 $547 $55 $-1 $687 forward single #
loop $-1 $-1 $688 $379 #
plane-surface $-1 -61.624085176360978 -51.240263021479606 0 -1 0 0 0 0 1 forward_v I I I I #
coedge $-1 $689 $382 $537 $690 reversed $237 $-1 #
coedge $-1 $382 $689 $691 $692 reversed $237 $-1 #
coedge $-1 $390 $389 $382 $536 reversed $380 $-1 #
edge $-1 $693 -18.619218940271217 $694 18.619218940271217 $535 $695 forward 7 unknown #
coedge $-1 $384 $383 $533 $690 forward $149 $-1 #
coedge $-1 $543 $688 $383 $539 reversed $531 $-1 #
edge $-1 $541 -10.752364542797643 $696 10.752364542797643 $538 $697 forward 7 unknown #
edge $-1 $694 -10.752364542797643 $391 10.752364542797643 $389 $698 forward 7 unknown #
vertex $-1 $539 $699 #
straight-curve $-1 0 -40.487898478681963 -18.619218940271217 1 0 0 I I #
coedge $-1 $700 $538 $386 $544 reversed $531 $-1 #
edge $-1 $548 -18.619218940271217 $541 18.619218940271217 $543 $701 forward 7 unknown #
coedge $-1 $691 $387 $390 $550 forward $547 $-1 #
coedge $-1 $387 $691 $700 $702 forward $547 $-1 #
loop $-1 $-1 $387 $530 #
vertex $-1 $388 $703 #
straight-curve $-1 0 -40.487898478681963 18.619218940271217 -1 0 0 I I #
edge $-1 $392 -10.752364542797643 $693 10.752364542797643 $390 $704 forward 7 unknown #
point $-1 -65.528626361888485 -40.487898478681963 -18.619218940271217 #
point $-1 -65.528626361888485 -40.487898478681963 18.619218940271217 #
loop $-1 $-1 $402 $394 #
plane-surface $-1 66.028626361888485 0 0 -1 0 0 0 0 1 forward_v I I I I #
coedge $-1 $556 $397 $399 $560 reversed $245 $-1 #
coedge $-1 $397 $555 $705 $706 reversed $245 $-1 #
coedge $-1 $405 $400 $397 $558 forward $395 $-1 #
edge $-1 $561 3.6210752080834112 $707 13.599813612114389 $557 $708 forward 7 unknown #
coedge $-1 $399 $398 $564 $709 reversed $153 $-1 #
edge $-1 $710 -132.057252723777 $561 -113.73550567973385 $555 $711 forward 7 unknown #
vertex $-1 $401 $712 #
straight-curve $-1 56.049887957857521 -4.0350715387680864 18.619218940271217 0 -1 0 I I #
coedge $-1 $705 $402 $405 $568 reversed $553 $-1 #
coedge $-1 $402 $705 $559 $709 forward $553 $-1 #
vertex $-1 $403 $713 #
straight-curve $-1 66.028626361888485 -4.1154024251445147 92.964687028580485 0 0 1 I I #
straight-curve $-1 -5.8949067006431477 -4.1154024251445147 114.00584099462935 0.54463902268945019 0 -0.83867057594974714 I I #
edge $-1 $707 -12.024883729927831 $406 -4.1154024251445147 $563 $714 forward 7 unknown #
point $-1 66.028626361888485 -4.1154024251445147 18.619218940271217 #
point $-1 56.049887957857507 -4.1154024251445147 18.619218940271224 #
edge $-1 $715 1 $715 0 $409 $-1 forward 7 unknown #
vertex $-1 $410 $716 #
ellipse-curve $-1 60.200586583923275 -10.442987468971172 10.391624844665177 0.83867057594974714 0 0.54463902268945019 0.2723195113447251 0 -0.41933528797487357 1 I I #
point $-1 61.31157667121775 -10.442987468971172 10.516928579379753 #
edge $-1 $717 1 $717 0 $413 $-1 forward 7 unknown #
vertex $-1 $414 $718 #
ellipse-curve $-1 60.200586583923275 -8.07014307753618 10.391624844665177 0.83867057594974714 0 0.54463902268945019 0.2723195113447251 0 -0.41933528797487357 1 I I #
point $-1 61.31157667121775 -8.07014307753618 10.516928579379753 #
edge $-1 $719 1 $719 0 $417 $-1 forward 7 unknown #
vertex $-1 $418 $720 #
ellipse-curve $-1 60.200586583923275 -5.6972986861011847 10.391624844665177 0.83867057594974714 0 0.54463902268945019 0.2723195113447251 0 -0.41933528797487357 1 I I #
point $-1 61.31157667121775 -5.6972986861011847 10.516928579379753 #
plane-surface $-1 0 0 18.619218940271217 0 0 1 1 0 0 forward_v I I I I #
coedge $-1 $594 $593 $586 $721 forward $422 $-1 #
coedge $-1 $586 $424 $426 $590 reversed $274 $-1 #
coedge $-1 $424 $585 $584 $721 reversed $274 $-1 #
coedge $-1 $432 $427 $424 $588 forward $433 $-1 #
edge $-1 $591 3.6210752080834112 $722 13.599813612114389 $587 $723 forward 7 unknown #
coedge $-1 $426 $425 $594 $724 reversed $172 $-1 #
edge $-1 $725 -132.057252723777 $591 -113.73550567973385 $585 $726 forward 7 unknown #
vertex $-1 $428 $727 #
straight-curve $-1 56.049887957857521 3.3988119452029935 18.619218940271217 0 -1 0 I I #
coedge $-1 $584 $429 $432 $598 reversed $422 $-1 #
coedge $-1 $429 $584 $589 $724 forward $422 $-1 #
vertex $-1 $430 $728 #
straight-curve $-1 66.028626361888485 10.752364542797645 92.964687028580485 0 0 1 I I #
straight-curve $-1 -5.8949067006431477 10.752364542797645 114.00584099462935 0.54463902268945019 0 -0.83867057594974714 I I #
edge $-1 $722 2.8428832380143287 $434 10.752364542797645 $593 $729 forward 7 unknown #
point $-1 66.028626361888485 10.752364542797645 18.619218940271217 #
point $-1 56.049887957857507 10.752364542797645 18.619218940271224 #
edge $-1 $730 1 $730 0 $437 $-1 forward 7 unknown #
vertex $-1 $438 $731 #
ellipse-curve $-1 60.200586583923275 4.4247794989709845 10.391624844665177 0.83867057594974714 0 0.54463902268945019 0.2723195113447251 0 -0.41933528797487357 1 I I #
point $-1 61.31157667121775 4.4247794989709845 10.516928579379753 #
edge $-1 $732 1 $732 0 $441 $-1 forward 7 unknown #
vertex $-1 $442 $733 #
ellipse-curve $-1 60.200586583923275 6.7976238904059798 10.391624844665177 0.83867057594974714 0 0.54463902268945019 0.2723195113447251 0 -0.41933528797487357 1 I I #
point $-1 61.31157667121775 6.7976238904059798 10.516928579379753 #
edge $-1 $734 1 $734 0 $445 $-1 forward 7 unknown #
vertex $-1 $446 $735 #
ellipse-curve $-1 60.200586583923275 9.1704682818409751 10.391624844665177 0.83867057594974714 0 0.54463902268945019 0.2723195113447251 0 -0.41933528797487357 1 I I #
point $-1 61.31157667121775 9.1704682818409751 10.516928579379753 #
plane-surface $-1 0 0 18.619218940271217 0 0 1 1 0 0 forward_v I I I I #
coedge $-1 $624 $623 $616 $736 forward $450 $-1 #
coedge $-1 $616 $452 $454 $620 reversed $303 $-1 #
coedge $-1 $452 $615 $614 $736 reversed $303 $-1 #
coedge $-1 $460 $455 $452 $618 forward $461 $-1 #
edge $-1 $621 3.6210752080834112 $737 13.599813612114389 $617 $738 forward 7 unknown #
coedge $-1 $454 $453 $624 $739 reversed $191 $-1 #
edge $-1 $740 -132.057252723777 $621 -113.73550567973385 $615 $741 forward 7 unknown #
vertex $-1 $456 $742 #
straight-curve $-1 56.049887957857521 10.832695429174073 18.619218940271217 0 -1 0 I I #
coedge $-1 $614 $457 $460 $628 reversed $450 $-1 #
coedge $-1 $457 $614 $619 $739 forward $450 $-1 #
vertex $-1 $458 $743 #
straight-curve $-1 66.028626361888485 25.620131510739803 92.964687028580485 0 0 1 I I #
straight-curve $-1 -5.8949067006431477 25.620131510739803 114.00584099462935 0.54463902268945019 0 -0.83867057594974714 I I #
edge $-1 $737 17.71065020595649 $462 25.620131510739803 $623 $744 forward 7 unknown #
point $-1 66.028626361888485 25.620131510739803 18.619218940271217 #
point $-1 56.049887957857507 25.620131510739803 18.619218940271224 #
edge $-1 $745 1 $745 0 $465 $-1 forward 7 unknown #
vertex $-1 $466 $746 #
ellipse-curve $-1 60.200586583923275 19.292546466913144 10.391624844665177 0.83867057594974714 0 0.54463902268945019 0.2723195113447251 0 -0.41933528797487357 1 I I #
point $-1 61.31157667121775 19.292546466913144 10.516928579379753 #
edge $-1 $747 1 $747 0 $469 $-1 forward 7 unknown #
vertex $-1 $470 $748 #
ellipse-curve $-1 60.200586583923275 21.66539085834814 10.391624844665177 0.83867057594974714 0 0.54463902268945019 0.2723195113447251 0 -0.41933528797487357 1 I I #
point $-1 61.31157667121775 21.66539085834814 10.516928579379753 #
edge $-1 $749 1 $749 0 $473 $-1 forward 7 unknown #
vertex $-1 $474 $750 #
ellipse-curve $-1 60.200586583923275 24.038235249783135 10.391624844665177 0.83867057594974714 0 0.54463902268945019 0.2723195113447251 0 -0.41933528797487357 1 I I #
point $-1 61.31157667121775 24.038235249783135 10.516928579379753 #
loop $-1 $-1 $484 $477 #
plane-surface $-1 0 0 18.619218940271217 0 0 1 1 0 0 forward_v I I I I #
coedge $-1 $751 $752 $481 $647 forward $478 $-1 #
coedge $-1 $481 $480 $652 $753 reversed $210 $-1 #
edge $-1 $649 -82.645282447334566 $754 -64.32353540329143 $645 $755 forward 7 unknown #
coedge $-1 $487 $482 $752 $756 reversed $332 $-1 #
vertex $-1 $647 $757 #
straight-curve $-1 66.028626361888485 18.26657891314515 3.2533087944379844 0 1 0 I I #
coedge $-1 $758 $484 $487 $656 forward $643 $-1 #
coedge $-1 $484 $758 $646 $753 forward $643 $-1 #
vertex $-1 $485 $759 #
straight-curve $-1 52.428812749774096 32.578417173898643 18.619218940271224 1 0 0 I I #
straight-curve $-1 -5.8949067006431477 32.578417173898643 114.00584099462935 -0.54463902268945019 0 0.83867057594974714 I I #
edge $-1 $488 32.578417173898643 $760 40.487898478681963 $487 $761 forward 7 unknown #
point $-1 66.028626361888485 32.578417173898643 18.619218940271217 #
point $-1 66.028626361888485 32.578417173898643 3.2533087944379844 #
edge $-1 $762 1 $762 0 $491 $-1 forward 7 unknown #
vertex $-1 $492 $763 #
ellipse-curve $-1 60.200586583923275 34.160313434855304 10.391624844665177 0.83867057594974714 0 0.54463902268945019 0.2723195113447251 0 -0.41933528797487357 1 I I #
point $-1 61.31157667121775 34.160313434855304 10.516928579379753 #
edge $-1 $764 1 $764 0 $495 $-1 forward 7 unknown #
vertex $-1 $496 $765 #
ellipse-curve $-1 60.200586583923275 36.533157826290299 10.391624844665177 0.83867057594974714 0 0.54463902268945019 0.2723195113447251 0 -0.41933528797487357 1 I I #
point $-1 61.31157667121775 36.533157826290299 10.516928579379753 #
edge $-1 $766 1 $766 0 $499 $-1 forward 7 unknown #
vertex $-1 $500 $767 #
ellipse-curve $-1 60.200586583923275 38.906002217725295 10.391624844665177 0.83867057594974714 0 0.54463902268945019 0.2723195113447251 0 -0.41933528797487357 1 I I #
point $-1 61.31157667121775 38.906002217725295 10.516928579379753 #
plane-surface $-1 66.028626361888485 0 0 -1 0 0 0 0 1 forward_v I I I I #
coedge $-1 $508 $506 $510 $676 reversed $361 $-1 #
edge $-1 $521 -18.619218940271217 $678 18.619218940271217 $520 $768 forward 7 unknown #
vertex $-1 $676 $769 #
straight-curve $-1 -66.028626361888485 -40.487898478681963 0 0 0 -1 I I #
edge $-1 $674 -40.487898478681963 $678 40.487898478681963 $672 $770 forward 7 unknown #
straight-curve $-1 0 -40.487898478681963 -18.619218940271217 -1 0 0 I I #
vertex $-1 $513 $771 #
straight-curve $-1 0 40.487898478681963 -18.619218940271217 1 0 0 I I #
point $-1 66.028626361888485 40.487898478681963 -18.619218940271217 #
point $-1 66.028626361888485 -40.487898478681963 -18.619218940271217 #
straight-curve $-1 -66.028626361888485 0 18.619218940271217 0 -1 0 I I #
point $-1 -66.028626361888485 40.487898478681963 18.619218940271217 #
point $-1 -66.028626361888485 -40.487898478681963 18.619218940271217 #
straight-curve $-1 66.028626361888485 -40.487898478681963 0 0 0 -1 I I #
straight-curve $-1 66.028626361888485 40.487898478681963 0 0 0 -1 I I #
plane-surface $-1 0 0 18.619218940271217 0 0 1 1 0 0 forward_v I I I I #
coedge $-1 $538 $700 $689 $772 forward $531 $-1 #
coedge $-1 $534 $533 $688 $772 reversed $237 $-1 #
edge $-1 $696 -1.9522705927637531 $694 1.9522705927637531 $533 $773 forward 7 unknown #
coedge $-1 $546 $545 $534 $692 forward $547 $-1 #
edge $-1 $693 -1.9522705927637531 $774 1.9522705927637531 $534 $775 forward 7 unknown #
vertex $-1 $550 $776 #
vertex $-1 $540 $777 #
straight-curve $-1 -65.528626361888485 -61.99262756427725 0 0 0 -1 I I #
vertex $-1 $772 $778 #
straight-curve $-1 -61.624085176360978 -51.240263021479606 -18.619218940271217 0 -1 0 I I #
straight-curve $-1 -65.528626361888485 -51.240263021479606 -18.619218940271217 0 1 0 I I #
point $-1 -61.624085176360978 -40.487898478681963 -18.619218940271217 #
coedge $-1 $688 $543 $546 $702 reversed $531 $-1 #
straight-curve $-1 -61.624085176360978 -40.487898478681963 0 0 0 -1 I I #
edge $-1 $774 -10.752364542797643 $548 10.752364542797643 $700 $779 forward 7 unknown #
point $-1 -61.624085176360978 -40.487898478681963 18.619218940271217 #
straight-curve $-1 -65.528626361888485 -51.240263021479606 18.619218940271217 0 -1 0 I I #
coedge $-1 $564 $563 $556 $706 forward $553 $-1 #
edge $-1 $707 74.345468088309275 $710 89.711378234142501 $705 $780 forward 7 unknown #
vertex $-1 $568 $781 #
straight-curve $-1 52.428812749774096 -12.024883729927831 18.619218940271224 1 0 0 I I #
edge $-1 $710 -7.9898121911597446 $565 -0.080330886376428268 $564 $782 forward 7 unknown #
vertex $-1 $709 $783 #
straight-curve $-1 -5.8949067006431477 -12.024883729927831 114.00584099462935 -0.54463902268945019 0 0.83867057594974714 I I #
point $-1 56.049887957857507 -12.024883729927831 18.619218940271224 #
point $-1 66.028626361888485 -4.1154024251445147 3.2533087944379844 #
straight-curve $-1 66.028626361888485 0 18.619218940271217 0 1 0 I I #
vertex $-1 $571 $784 #
point $-1 60.472906095268002 -10.442987468971172 9.9722895566903027 #
vertex $-1 $575 $785 #
point $-1 60.472906095268002 -8.07014307753618 9.9722895566903027 #
vertex $-1 $579 $786 #
point $-1 60.472906095268002 -5.6972986861011847 9.9722895566903027 #
edge $-1 $722 74.345468088309275 $725 89.711378234142501 $584 $787 forward 7 unknown #
vertex $-1 $598 $788 #
straight-curve $-1 52.428812749774096 2.8428832380143287 18.619218940271224 1 0 0 I I #
edge $-1 $725 -0.55592870718866472 $595 7.3535525975946516 $594 $789 forward 7 unknown #
vertex $-1 $724 $790 #
straight-curve $-1 -5.8949067006431477 2.8428832380143287 114.00584099462935 -0.54463902268945019 0 0.83867057594974714 I I #
point $-1 56.049887957857507 2.8428832380143287 18.619218940271224 #
point $-1 66.028626361888485 10.752364542797645 3.2533087944379844 #
straight-curve $-1 66.028626361888485 0 18.619218940271217 0 1 0 I I #
vertex $-1 $601 $791 #
point $-1 60.472906095268002 4.4247794989709845 9.9722895566903027 #
vertex $-1 $605 $792 #
point $-1 60.472906095268002 6.7976238904059798 9.9722895566903027 #
vertex $-1 $609 $793 #
point $-1 60.472906095268002 9.1704682818409751 9.9722895566903027 #
edge $-1 $737 74.345468088309275 $740 89.711378234142501 $614 $794 forward 7 unknown #
vertex $-1 $628 $795 #
straight-curve $-1 52.428812749774096 17.71065020595649 18.619218940271224 1 0 0 I I #
edge $-1 $740 6.877954776782417 $625 14.78743608156573 $624 $796 forward 7 unknown #
vertex $-1 $739 $797 #
straight-curve $-1 -5.8949067006431477 17.71065020595649 114.00584099462935 -0.54463902268945019 0 0.83867057594974714 I I #
point $-1 56.049887957857507 17.71065020595649 18.619218940271224 #
point $-1 66.028626361888485 25.620131510739803 3.2533087944379844 #
straight-curve $-1 66.028626361888485 0 18.619218940271217 0 1 0 I I #
vertex $-1 $631 $798 #
point $-1 60.472906095268002 19.292546466913144 9.9722895566903027 #
vertex $-1 $635 $799 #
point $-1 60.472906095268002 21.66539085834814 9.9722895566903027 #
vertex $-1 $639 $800 #
point $-1 60.472906095268002 24.038235249783135 9.9722895566903027 #
coedge $-1 $752 $645 $758 $801 reversed $478 $-1 #
coedge $-1 $645 $751 $648 $756 forward $478 $-1 #
edge $-1 $754 -22.221319565536806 $653 -14.311838260753493 $652 $802 forward 7 unknown #
vertex $-1 $647 $803 #
straight-curve $-1 21.016780499878621 40.487898478681963 72.565475424073597 -0.54463902268945019 0 0.83867057594974714 I I #
edge $-1 $760 -18.619218940271217 $649 -3.2533087944379826 $648 $804 forward 7 unknown #
point $-1 66.028626361888485 40.487898478681963 3.2533087944379826 #
coedge $-1 $652 $651 $751 $801 forward $643 $-1 #
point $-1 56.049887957857507 32.578417173898643 18.619218940271224 #
vertex $-1 $656 $805 #
straight-curve $-1 66.028626361888485 0 18.619218940271217 0 1 0 I I #
vertex $-1 $659 $806 #
point $-1 60.472906095268002 34.160313434855304 9.9722895566903027 #
vertex $-1 $663 $807 #
point $-1 60.472906095268002 36.533157826290299 9.9722895566903027 #
vertex $-1 $667 $808 #
point $-1 60.472906095268002 38.906002217725295 9.9722895566903027 #
straight-curve $-1 -66.028626361888485 40.487898478681963 0 0 0 -1 I I #
point $-1 -66.028626361888485 -40.487898478681963 -18.619218940271217 #
straight-curve $-1 -66.028626361888485 0 -18.619218940271217 0 1 0 I I #
point $-1 -66.028626361888485 40.487898478681963 -18.619218940271217 #
edge $-1 $774 -18.619218940271217 $696 18.619218940271217 $688 $809 forward 7 unknown #
straight-curve $-1 -63.576355769124731 -61.99262756427725 -18.619218940271217 -1 0 0 I I #
vertex $-1 $702 $810 #
straight-curve $-1 -63.576355769124731 -61.99262756427725 18.619218940271217 1 0 0 I I #
point $-1 -65.528626361888485 -61.99262756427725 18.619218940271217 #
point $-1 -65.528626361888485 -61.99262756427725 -18.619218940271217 #
point $-1 -61.624085176360978 -61.99262756427725 -18.619218940271217 #
straight-curve $-1 -61.624085176360978 -51.240263021479606 18.619218940271217 0 1 0 I I #
straight-curve $-1 66.028626361888485 -12.024883729927831 92.964687028580485 0 0 -1 I I #
point $-1 66.028626361888485 -12.024883729927831 18.619218940271217 #
straight-curve $-1 66.028626361888485 -4.0350715387680864 3.2533087944379844 0 1 0 I I #
point $-1 66.028626361888485 -12.024883729927831 3.2533087944379844 #
point $-1 59.781251295948401 -10.442987468971172 10.119305333320451 #
point $-1 59.781251295948401 -8.07014307753618 10.119305333320451 #
point $-1 59.781251295948401 -5.6972986861011847 10.119305333320451 #
straight-curve $-1 66.028626361888485 2.8428832380143287 92.964687028580485 0 0 -1 I I #
point $-1 66.028626361888485 2.8428832380143287 18.619218940271217 #
straight-curve $-1 66.028626361888485 3.3988119452029935 3.2533087944379844 0 1 0 I I #
point $-1 66.028626361888485 2.8428832380143287 3.2533087944379844 #
point $-1 59.781251295948401 4.4247794989709845 10.119305333320451 #
point $-1 59.781251295948401 6.7976238904059798 10.119305333320451 #
point $-1 59.781251295948401 9.1704682818409751 10.119305333320451 #
straight-curve $-1 66.028626361888485 17.71065020595649 92.964687028580485 0 0 -1 I I #
point $-1 66.028626361888485 17.71065020595649 18.619218940271217 #
straight-curve $-1 66.028626361888485 10.832695429174073 3.2533087944379844 0 1 0 I I #
point $-1 66.028626361888485 17.71065020595649 3.2533087944379844 #
point $-1 59.781251295948401 19.292546466913144 10.119305333320451 #
point $-1 59.781251295948401 21.66539085834814 10.119305333320451 #
point $-1 59.781251295948401 24.038235249783135 10.119305333320451 #
edge $-1 $760 -66.028626361888485 $754 -56.049887957857507 $751 $811 forward 7 unknown #
straight-curve $-1 56.049887957857521 18.26657891314515 18.619218940271217 0 -1 0 I I #
point $-1 56.049887957857507 40.487898478681956 18.619218940271224 #
straight-curve $-1 66.028626361888485 40.487898478681963 0 0 0 -1 I I #
point $-1 66.028626361888485 40.487898478681963 18.619218940271217 #
point $-1 59.781251295948401 34.160313434855304 10.119305333320451 #
point $-1 59.781251295948401 36.533157826290299 10.119305333320451 #
point $-1 59.781251295948401 38.906002217725295 10.119305333320451 #
straight-curve $-1 -61.624085176360978 -61.99262756427725 0 0 0 -1 I I #
point $-1 -61.624085176360978 -61.99262756427725 18.619218940271217 #
straight-curve $-1 0 40.487898478681963 18.619218940271217 -1 0 0 I I #
End-of-ACIS-data 