500 0 2 0           
7 Unknown 11 ACIS 5.0 NT 24 Fri Mar 26 16:55:10 1999 
-1 9.9999999999999995e-007 1e-010 
body $-1 $2 $-1 $3 #
body $-1 $4 $-1 $5 #
lump $-1 $-1 $6 $0 #
transform $-1 1 0 0 0 1 0 0 0 1 64.92019409772027 34.446317776511876 7.0084753365413182 1 rotate no_reflect no_shear #
lump $-1 $-1 $7 $1 #
transform $-1 1 0 0 0 1 0 0 0 1 64.92019409772027 34.446317776511876 7.0084753365413182 1 rotate no_reflect no_shear #
shell $-1 $-1 $-1 $8 $-1 $2 #
shell $-1 $-1 $-1 $9 $-1 $4 #
face $-1 $10 $11 $6 $-1 $12 forward single #
face $-1 $13 $14 $7 $-1 $15 reversed single #
face $-1 $16 $17 $6 $-1 $18 reversed single #
loop $-1 $-1 $19 $8 #
plane-surface $-1 0 0 7.0084753365413182 0 0 1 1 0 0 forward_v I I I I #
face $-1 $20 $21 $7 $-1 $22 reversed single #
loop $-1 $-1 $23 $9 #
plane-surface $-1 -54.437232944445292 -31.162367864783185 0 1 0 0 0 0 -1 forward_v I I I I #
face $-1 $24 $25 $6 $-1 $26 reversed single #
loop $-1 $-1 $27 $10 #
plane-surface $-1 0 0 -7.0084753365413182 0 0 1 1 0 0 forward_v I I I I #
coedge $-1 $28 $29 $30 $31 forward $11 $-1 #
face $-1 $32 $33 $7 $-1 $34 reversed single #
loop $-1 $-1 $35 $13 #
plane-surface $-1 -52.670238184541461 -27.878417953054495 0 0 -1 0 0 0 -1 forward_v I I I I #
coedge $-1 $36 $37 $38 $39 forward $14 $-1 #
face $-1 $40 $41 $6 $-1 $42 reversed single #
loop $-1 $-1 $43 $16 #
plane-surface $-1 0 -34.446317776511876 0 0 1 0 0 0 1 forward_v I I I I #
coedge $-1 $44 $45 $46 $47 forward $17 $-1 #
coedge $-1 $48 $19 $49 $50 forward $11 $-1 #
coedge $-1 $19 $48 $51 $52 forward $11 $-1 #
coedge $-1 $53 $54 $19 $31 reversed $55 $-1 #
edge $-1 $56 -34.446317776511876 $57 34.446317776511876 $30 $58 forward 7 unknown #
face $-1 $59 $60 $7 $-1 $61 forward single #
loop $-1 $-1 $62 $20 #
plane-surface $-1 -50.90324342463763 -31.162367864783185 0 -1 0 0 0 0 1 forward_v I I I I #
coedge $-1 $63 $64 $65 $66 forward $21 $-1 #
coedge $-1 $67 $23 $68 $69 reversed $14 $-1 #
coedge $-1 $23 $67 $70 $71 reversed $14 $-1 #
coedge $-1 $64 $63 $23 $39 reversed $21 $-1 #
edge $-1 $72 -7.0084753365413182 $73 7.0084753365413182 $38 $74 forward 7 unknown #
face $-1 $75 $76 $6 $-1 $77 reversed single #
loop $-1 $-1 $78 $24 #
plane-surface $-1 -64.92019409772027 0 0 1 0 0 0 0 -1 forward_v I I I I #
coedge $-1 $79 $51 $80 $81 forward $25 $-1 #
coedge $-1 $82 $27 $79 $83 forward $17 $-1 #
coedge $-1 $27 $82 $84 $85 forward $17 $-1 #
coedge $-1 $54 $53 $27 $47 reversed $55 $-1 #
edge $-1 $86 -34.446317776511876 $87 34.446317776511876 $46 $88 forward 7 unknown #
coedge $-1 $29 $28 $89 $90 forward $11 $-1 #
coedge $-1 $91 $92 $28 $50 reversed $76 $-1 #
edge $-1 $57 -64.92019409772027 $93 64.92019409772027 $49 $94 forward 7 unknown #
coedge $-1 $43 $95 $29 $52 reversed $25 $-1 #
edge $-1 $96 -64.92019409772027 $56 64.92019409772027 $51 $97 forward 7 unknown #
coedge $-1 $46 $30 $95 $98 forward $55 $-1 #
coedge $-1 $30 $46 $91 $99 reversed $55 $-1 #
loop $-1 $-1 $53 $75 #
vertex $-1 $31 $100 #
vertex $-1 $31 $101 #
straight-curve $-1 64.92019409772027 0 7.0084753365413182 0 1 0 I I #
face $-1 $102 $103 $7 $-1 $104 reversed single #
loop $-1 $-1 $105 $32 #
plane-surface $-1 0 0 7.0084753365413182 0 0 1 1 0 0 forward_v I I I I #
coedge $-1 $106 $107 $108 $109 reversed $33 $-1 #
coedge $-1 $38 $35 $110 $111 reversed $21 $-1 #
coedge $-1 $35 $38 $112 $113 reversed $21 $-1 #
coedge $-1 $107 $106 $35 $66 reversed $33 $-1 #
edge $-1 $114 -7.0084753365413182 $115 7.0084753365413182 $65 $116 forward 7 unknown #
coedge $-1 $37 $36 $117 $118 reversed $14 $-1 #
coedge $-1 $110 $119 $36 $69 forward $103 $-1 #
edge $-1 $120 -18.865133844120283 $73 -12.297234020662902 $68 $121 forward 7 unknown #
coedge $-1 $122 $112 $37 $71 forward $60 $-1 #
edge $-1 $72 12.297234020662902 $123 18.865133844120283 $70 $124 forward 7 unknown #
vertex $-1 $71 $125 #
vertex $-1 $69 $126 #
straight-curve $-1 -54.437232944445292 -27.878417953054495 0 0 0 -1 I I #
face $-1 $-1 $55 $6 $-1 $127 reversed single #
loop $-1 $-1 $91 $40 #
plane-surface $-1 0 34.446317776511876 0 0 -1 0 0 0 -1 forward_v I I I I #
coedge $-1 $128 $89 $92 $129 forward $41 $-1 #
coedge $-1 $95 $43 $44 $83 reversed $25 $-1 #
coedge $-1 $89 $128 $43 $81 reversed $41 $-1 #
edge $-1 $96 -7.0084753365413182 $130 7.0084753365413182 $80 $131 forward 7 unknown #
coedge $-1 $45 $44 $128 $132 forward $17 $-1 #
edge $-1 $87 -64.92019409772027 $130 64.92019409772027 $79 $133 forward 7 unknown #
coedge $-1 $92 $91 $45 $85 reversed $76 $-1 #
edge $-1 $134 -64.92019409772027 $86 64.92019409772027 $84 $135 forward 7 unknown #
vertex $-1 $47 $136 #
vertex $-1 $98 $137 #
straight-curve $-1 64.92019409772027 0 -7.0084753365413182 0 -1 0 I I #
coedge $-1 $78 $80 $48 $90 reversed $41 $-1 #
edge $-1 $93 -34.446317776511876 $96 34.446317776511876 $89 $138 forward 7 unknown #
coedge $-1 $84 $49 $54 $99 forward $76 $-1 #
coedge $-1 $49 $84 $78 $129 reversed $76 $-1 #
vertex $-1 $50 $139 #
straight-curve $-1 0 34.446317776511876 7.0084753365413182 -1 0 0 I I #
coedge $-1 $51 $79 $53 $98 reversed $25 $-1 #
vertex $-1 $90 $140 #
straight-curve $-1 0 -34.446317776511876 7.0084753365413182 1 0 0 I I #
edge $-1 $56 -7.0084753365413182 $87 7.0084753365413182 $53 $141 forward 7 unknown #
edge $-1 $57 -7.0084753365413182 $86 7.0084753365413182 $54 $142 forward 7 unknown #
point $-1 64.92019409772027 -34.446317776511876 7.0084753365413182 #
point $-1 64.92019409772027 34.446317776511876 7.0084753365413182 #
face $-1 $-1 $143 $7 $-1 $144 reversed single #
loop $-1 $-1 $145 $59 #
plane-surface $-1 0 0 -7.0084753365413182 0 0 1 1 0 0 forward_v I I I I #
coedge $-1 $112 $122 $107 $146 forward $60 $-1 #
coedge $-1 $65 $62 $145 $147 reversed $33 $-1 #
coedge $-1 $62 $65 $105 $146 reversed $33 $-1 #
coedge $-1 $148 $149 $62 $109 forward $143 $-1 #
edge $-1 $150 -7.0084753365413182 $151 7.0084753365413182 $108 $152 forward 7 unknown #
coedge $-1 $145 $68 $63 $111 forward $103 $-1 #
edge $-1 $73 -28.102113852174561 $115 -24.568124332366899 $110 $153 forward 7 unknown #
coedge $-1 $70 $105 $64 $113 forward $60 $-1 #
edge $-1 $114 24.568124332366899 $72 28.102113852174561 $112 $154 forward 7 unknown #
vertex $-1 $113 $155 #
vertex $-1 $111 $156 #
straight-curve $-1 -50.90324342463763 -27.878417953054495 0 0 0 -1 I I #
coedge $-1 $149 $148 $67 $118 forward $143 $-1 #
edge $-1 $123 -7.0084753365413182 $120 7.0084753365413182 $117 $157 forward 7 unknown #
coedge $-1 $68 $145 $149 $158 forward $103 $-1 #
vertex $-1 $69 $159 #
straight-curve $-1 -54.437232944445292 -15.581183932391593 -7.0084753365413182 0 1 0 I I #
coedge $-1 $105 $70 $148 $160 forward $60 $-1 #
vertex $-1 $160 $161 #
straight-curve $-1 -54.437232944445292 -15.581183932391593 7.0084753365413182 0 -1 0 I I #
point $-1 -54.437232944445292 -27.878417953054495 7.0084753365413182 #
point $-1 -54.437232944445292 -27.878417953054495 -7.0084753365413182 #
plane-surface $-1 64.92019409772027 0 0 -1 0 0 0 0 1 forward_v I I I I #
coedge $-1 $80 $78 $82 $132 reversed $41 $-1 #
edge $-1 $93 -7.0084753365413182 $134 7.0084753365413182 $92 $162 forward 7 unknown #
vertex $-1 $132 $163 #
straight-curve $-1 -64.92019409772027 -34.446317776511876 0 0 0 -1 I I #
edge $-1 $130 -34.446317776511876 $134 34.446317776511876 $128 $164 forward 7 unknown #
straight-curve $-1 0 -34.446317776511876 -7.0084753365413182 -1 0 0 I I #
vertex $-1 $85 $165 #
straight-curve $-1 0 34.446317776511876 -7.0084753365413182 1 0 0 I I #
point $-1 64.92019409772027 34.446317776511876 -7.0084753365413182 #
point $-1 64.92019409772027 -34.446317776511876 -7.0084753365413182 #
straight-curve $-1 -64.92019409772027 0 7.0084753365413182 0 -1 0 I I #
point $-1 -64.92019409772027 34.446317776511876 7.0084753365413182 #
point $-1 -64.92019409772027 -34.446317776511876 7.0084753365413182 #
straight-curve $-1 64.92019409772027 -34.446317776511876 0 0 0 -1 I I #
straight-curve $-1 64.92019409772027 34.446317776511876 0 0 0 -1 I I #
loop $-1 $-1 $108 $102 #
plane-surface $-1 0 -34.446317776511876 0 0 1 0 0 0 1 forward_v I I I I #
coedge $-1 $119 $110 $106 $147 forward $103 $-1 #
edge $-1 $151 -18.865133844120283 $114 -12.297234020662902 $105 $166 forward 7 unknown #
edge $-1 $115 12.297234020662902 $150 18.865133844120283 $145 $167 forward 7 unknown #
coedge $-1 $117 $108 $122 $160 reversed $143 $-1 #
coedge $-1 $108 $117 $119 $158 reversed $143 $-1 #
vertex $-1 $158 $168 #
vertex $-1 $109 $169 #
straight-curve $-1 -50.90324342463763 -34.446317776511876 0 0 0 1 I I #
straight-curve $-1 -26.33511909227073 -27.878417953054495 -7.0084753365413182 1 0 0 I I #
straight-curve $-1 -26.33511909227073 -27.878417953054495 7.0084753365413182 -1 0 0 I I #
point $-1 -50.90324342463763 -27.878417953054495 7.0084753365413182 #
point $-1 -50.90324342463763 -27.878417953054495 -7.0084753365413182 #
straight-curve $-1 -54.437232944445292 -34.446317776511876 0 0 0 -1 I I #
edge $-1 $150 50.90324342463763 $120 54.437232944445292 $149 $170 forward 7 unknown #
point $-1 -54.437232944445292 -34.446317776511876 -7.0084753365413182 #
edge $-1 $123 -54.437232944445292 $151 -50.90324342463763 $148 $171 forward 7 unknown #
point $-1 -54.437232944445292 -34.446317776511876 7.0084753365413182 #
straight-curve $-1 -64.92019409772027 34.446317776511876 0 0 0 -1 I I #
point $-1 -64.92019409772027 -34.446317776511876 -7.0084753365413182 #
straight-curve $-1 -64.92019409772027 0 -7.0084753365413182 0 1 0 I I #
point $-1 -64.92019409772027 34.446317776511876 -7.0084753365413182 #
straight-curve $-1 -50.90324342463763 -15.581183932391593 7.0084753365413182 0 1 0 I I #
straight-curve $-1 -50.90324342463763 -15.581183932391593 -7.0084753365413182 0 -1 0 I I #
point $-1 -50.90324342463763 -34.446317776511876 -7.0084753365413182 #
point $-1 -50.90324342463763 -34.446317776511876 7.0084753365413182 #
straight-curve $-1 0 -34.446317776511876 -7.0084753365413182 -1 0 0 I I #
straight-curve $-1 0 -34.446317776511876 7.0084753365413182 1 0 0 I I #
End-of-ACIS-data 