500 0 13 0           
7 Unknown 11 ACIS 5.0 NT 24 Thu Mar 25 17:21:26 1999 
-1 9.9999999999999995e-007 1e-010 
body $-1 $13 $-1 $14 #
body $-1 $15 $-1 $16 #
body $-1 $17 $-1 $18 #
body $-1 $19 $-1 $20 #
body $-1 $21 $-1 $22 #
body $-1 $23 $-1 $24 #
body $-1 $25 $-1 $26 #
body $-1 $27 $-1 $28 #
body $-1 $29 $-1 $30 #
body $-1 $31 $-1 $32 #
body $-1 $33 $-1 $34 #
body $-1 $35 $-1 $36 #
body $-1 $37 $-1 $38 #
lump $-1 $-1 $39 $0 #
transform $-1 1 0 0 0 1 0 0 0 1 61.132236701559492 38.823177379490403 17.192528998163805 1 rotate no_reflect no_shear #
lump $-1 $-1 $40 $1 #
transform $-1 1 0 0 0 1 0 0 0 1 61.132236701559492 38.823177379490403 17.192528998163805 1 rotate no_reflect no_shear #
lump $-1 $-1 $41 $2 #
transform $-1 1 0 0 0 1 0 0 0 1 61.132236701559492 38.823177379490403 17.192528998163805 1 rotate no_reflect no_shear #
lump $-1 $-1 $42 $3 #
transform $-1 1 0 0 0 1 0 0 0 1 61.132236701559492 38.823177379490403 17.192528998163805 1 rotate no_reflect no_shear #
lump $-1 $-1 $43 $4 #
transform $-1 1 0 0 0 1 0 0 0 1 61.132236701559492 38.823177379490403 17.192528998163805 1 rotate no_reflect no_shear #
lump $-1 $-1 $44 $5 #
transform $-1 1 0 0 0 1 0 0 0 1 61.132236701559492 38.823177379490403 17.192528998163805 1 rotate no_reflect no_shear #
lump $-1 $-1 $45 $6 #
transform $-1 1 0 0 0 1 0 0 0 1 61.132236701559492 38.823177379490403 17.192528998163805 1 rotate no_reflect no_shear #
lump $-1 $-1 $46 $7 #
transform $-1 1 0 0 0 1 0 0 0 1 61.132236701559492 38.823177379490403 17.192528998163805 1 rotate no_reflect no_shear #
lump $-1 $-1 $47 $8 #
transform $-1 1 0 0 0 1 0 0 0 1 61.132236701559492 38.823177379490403 17.192528998163805 1 rotate no_reflect no_shear #
lump $-1 $-1 $48 $9 #
transform $-1 1 0 0 0 1 0 0 0 1 61.132236701559492 38.823177379490403 17.192528998163805 1 rotate no_reflect no_shear #
lump $-1 $-1 $49 $10 #
transform $-1 1 0 0 0 1 0 0 0 1 61.132236701559492 38.823177379490403 17.192528998163805 1 rotate no_reflect no_shear #
lump $-1 $-1 $50 $11 #
transform $-1 1 0 0 0 1 0 0 0 1 61.132236701559492 38.823177379490403 17.192528998163805 1 rotate no_reflect no_shear #
lump $-1 $-1 $51 $12 #
transform $-1 1 0 0 0 1 0 0 0 1 61.132236701559492 38.823177379490403 17.192528998163805 1 rotate no_reflect no_shear #
shell $-1 $-1 $-1 $52 $-1 $13 #
shell $-1 $-1 $-1 $53 $-1 $15 #
shell $-1 $-1 $-1 $54 $-1 $17 #
shell $-1 $-1 $-1 $55 $-1 $19 #
shell $-1 $-1 $-1 $56 $-1 $21 #
shell $-1 $-1 $-1 $57 $-1 $23 #
shell $-1 $-1 $-1 $58 $-1 $25 #
shell $-1 $-1 $-1 $59 $-1 $27 #
shell $-1 $-1 $-1 $60 $-1 $29 #
shell $-1 $-1 $-1 $61 $-1 $31 #
shell $-1 $-1 $-1 $62 $-1 $33 #
shell $-1 $-1 $-1 $63 $-1 $35 #
shell $-1 $-1 $-1 $64 $-1 $37 #
face $-1 $65 $66 $39 $-1 $67 forward single #
face $-1 $68 $69 $40 $-1 $70 reversed single #
face $-1 $71 $72 $41 $-1 $73 reversed single #
face $-1 $74 $75 $42 $-1 $76 reversed single #
face $-1 $77 $78 $43 $-1 $79 forward single #
face $-1 $80 $81 $44 $-1 $82 forward single #
face $-1 $83 $84 $45 $-1 $85 reversed single #
face $-1 $86 $87 $46 $-1 $88 forward single #
face $-1 $89 $90 $47 $-1 $91 forward single #
face $-1 $92 $93 $48 $-1 $94 reversed single #
face $-1 $95 $96 $49 $-1 $97 forward single #
face $-1 $98 $99 $50 $-1 $100 reversed single #
face $-1 $101 $102 $51 $-1 $103 forward single #
face $-1 $104 $105 $39 $-1 $106 reversed single #
loop $-1 $-1 $107 $52 #
plane-surface $-1 0 0 17.192528998163805 0 0 1 1 0 0 forward_v I I I I #
face $-1 $108 $109 $40 $-1 $110 reversed single #
loop $-1 $-1 $111 $53 #
plane-surface $-1 -58.678207422793903 -20.507601136608749 0 0 -1 0 0 0 -1 forward_v I I I I #
face $-1 $112 $113 $41 $-1 $114 reversed single #
loop $-1 $-1 $115 $54 #
plane-surface $-1 -58.678207422793903 20.507601136608745 0 0 1 0 0 0 1 forward_v I I I I #
face $-1 $116 $117 $42 $-1 $118 reversed single #
loop $-1 $-1 $119 $55 #
plane-surface $-1 76.202170755113428 -4.1173225562448081 173.59802444862126 0 -1 0 -0.7660444514056185 0 -0.64278759981090561 forward_v I I I I #
face $-1 $120 $121 $43 $-1 $122 forward single #
loop $-1 $123 $124 $56 #
cone-surface $-1 53.71014814098843 -9.9828492900711261 8.620352987945914 -0.7660444514056185 0 -0.64278759981090561 0.64278759981090561 0 -0.7660444514056185 1 I I 0 1 1 forward I I I I #
face $-1 $125 $126 $44 $-1 $127 forward single #
loop $-1 $128 $129 $57 #
cone-surface $-1 53.71014814098843 -6.4635332497753382 8.620352987945914 -0.7660444514056185 0 -0.64278759981090561 0.64278759981090561 0 -0.7660444514056185 1 I I 0 1 1 forward I I I I #
face $-1 $130 $131 $45 $-1 $132 reversed single #
loop $-1 $-1 $133 $58 #
plane-surface $-1 76.202170755113428 16.390278580363944 173.59802444862126 0 -1 0 -0.7660444514056185 0 -0.64278759981090561 forward_v I I I I #
face $-1 $134 $135 $46 $-1 $136 forward single #
loop $-1 $137 $138 $59 #
cone-surface $-1 53.71014814098843 10.524751846537626 8.620352987945914 -0.7660444514056185 0 -0.64278759981090561 0.64278759981090561 0 -0.7660444514056185 1 I I 0 1 1 forward I I I I #
face $-1 $139 $140 $47 $-1 $141 forward single #
loop $-1 $142 $143 $60 #
cone-surface $-1 53.71014814098843 14.04406788683341 8.620352987945914 -0.7660444514056185 0 -0.64278759981090561 0.64278759981090561 0 -0.7660444514056185 1 I I 0 1 1 forward I I I I #
face $-1 $144 $145 $48 $-1 $146 reversed single #
loop $-1 $-1 $147 $61 #
plane-surface $-1 -134.71283452484931 -17.66400532573536 102.838902264994 0 1 0 -0.6018150307709319 0 0.79863550430605224 forward_v I I I I #
face $-1 $148 $149 $49 $-1 $150 forward single #
loop $-1 $151 $152 $62 #
cone-surface $-1 -52.279085639976017 -13.408194912896455 10.009670362423645 0.6018150307709319 0 -0.79863550430605224 0.79863550430605224 0 0.6018150307709319 1 I I 0 1 1 forward I I I I #
face $-1 $153 $154 $50 $-1 $155 reversed single #
loop $-1 $-1 $156 $63 #
plane-surface $-1 -134.71283452484931 9.1523845000575577 102.838902264994 0 1 0 -0.6018150307709319 0 0.79863550430605224 forward_v I I I I #
face $-1 $157 $158 $51 $-1 $159 forward single #
loop $-1 $160 $161 $64 #
cone-surface $-1 -52.279085639976017 13.408194912896462 10.009670362423645 0.6018150307709319 0 -0.79863550430605224 0.79863550430605224 0 0.6018150307709319 1 I I 0 1 1 forward I I I I #
face $-1 $162 $163 $39 $-1 $164 reversed single #
loop $-1 $-1 $165 $65 #
plane-surface $-1 0 0 -17.192528998163805 0 0 1 1 0 0 forward_v I I I I #
coedge $-1 $166 $167 $168 $169 forward $66 $-1 #
face $-1 $170 $171 $40 $-1 $172 forward single #
loop $-1 $-1 $173 $68 #
plane-surface $-1 -56.224178144028315 -29.665389258049576 0 -1 0 0 0 0 1 forward_v I I I I #
coedge $-1 $174 $175 $176 $177 forward $69 $-1 #
face $-1 $178 $179 $41 $-1 $180 reversed single #
loop $-1 $-1 $181 $71 #
plane-surface $-1 -56.224178144028315 29.665389258049572 0 -1 0 0 0 0 1 forward_v I I I I #
coedge $-1 $182 $183 $184 $185 reversed $72 $-1 #
face $-1 $186 $187 $42 $-1 $188 reversed single #
loop $-1 $-1 $189 $74 #
plane-surface $-1 -17.457850699375683 -8.2231912699232304 95.007937047686113 0.7660444514056185 0 0.64278759981090561 0.64278759981090561 0 -0.7660444514056185 forward_v I I I I #
coedge $-1 $190 $191 $192 $193 reversed $75 $-1 #
face $-1 $-1 $194 $43 $-1 $195 forward single #
loop $-1 $196 $197 $77 #
cone-surface $-1 52.552641812799422 -9.9828492900711261 7.6490898803059828 -0.7660444514056185 0 -0.64278759981090561 0.3213937999054528 0 -0.38302222570280925 1 I I -0.70710678118654746 0.70710678118654746 0.5 forward I I I I #
loop $-1 $-1 $198 $56 #
coedge $-1 $124 $124 $199 $200 reversed $78 $-1 #
face $-1 $-1 $201 $44 $-1 $202 forward single #
loop $-1 $203 $204 $80 #
cone-surface $-1 52.552641812799422 -6.4635332497753382 7.6490898803059828 -0.7660444514056185 0 -0.64278759981090561 0.3213937999054528 0 -0.38302222570280925 1 I I -0.70710678118654746 0.70710678118654746 0.5 forward I I I I #
loop $-1 $-1 $205 $57 #
coedge $-1 $129 $129 $206 $207 reversed $81 $-1 #
face $-1 $208 $209 $45 $-1 $210 reversed single #
loop $-1 $-1 $211 $83 #
plane-surface $-1 -17.457850699375683 12.284409866685522 95.007937047686113 0.7660444514056185 0 0.64278759981090561 0.64278759981090561 0 -0.7660444514056185 forward_v I I I I #
coedge $-1 $212 $213 $214 $215 reversed $84 $-1 #
face $-1 $-1 $216 $46 $-1 $217 forward single #
loop $-1 $218 $219 $86 #
cone-surface $-1 52.552641812799422 10.524751846537626 7.6490898803059828 -0.7660444514056185 0 -0.64278759981090561 0.3213937999054528 0 -0.38302222570280925 1 I I -0.70710678118654746 0.70710678118654746 0.5 forward I I I I #
loop $-1 $-1 $220 $59 #
coedge $-1 $138 $138 $221 $222 reversed $87 $-1 #
face $-1 $-1 $223 $47 $-1 $224 forward single #
loop $-1 $225 $226 $89 #
cone-surface $-1 52.552641812799422 14.04406788683341 7.6490898803059828 -0.7660444514056185 0 -0.64278759981090561 0.3213937999054528 0 -0.38302222570280925 1 I I -0.70710678118654746 0.70710678118654746 0.5 forward I I I I #
loop $-1 $-1 $227 $60 #
coedge $-1 $143 $143 $228 $229 reversed $90 $-1 #
face $-1 $230 $231 $48 $-1 $232 reversed single #
loop $-1 $-1 $233 $92 #
plane-surface $-1 -61.132236701559478 -13.408194912896455 5.1941528899801597 -0.6018150307709319 0 0.79863550430605224 0.79863550430605224 0 0.6018150307709319 forward_v I I I I #
coedge $-1 $234 $235 $236 $237 reversed $93 $-1 #
face $-1 $-1 $238 $49 $-1 $239 forward single #
loop $-1 $240 $241 $95 #
cone-surface $-1 -51.086218346097709 -13.408194912896455 8.4266820286222739 0.6018150307709319 0 -0.79863550430605224 0.39931775215302612 0 0.30090751538546595 1 I I -0.70710678118654746 0.70710678118654746 0.5 forward I I I I #
loop $-1 $-1 $242 $62 #
coedge $-1 $152 $152 $243 $244 reversed $96 $-1 #
face $-1 $245 $246 $50 $-1 $247 reversed single #
loop $-1 $-1 $248 $98 #
plane-surface $-1 -61.132236701559478 13.408194912896462 5.1941528899801597 -0.6018150307709319 0 0.79863550430605224 0.79863550430605224 0 0.6018150307709319 forward_v I I I I #
coedge $-1 $249 $250 $251 $252 reversed $99 $-1 #
face $-1 $-1 $253 $51 $-1 $254 forward single #
loop $-1 $255 $256 $101 #
cone-surface $-1 -51.086218346097709 13.408194912896462 8.4266820286222739 0.6018150307709319 0 -0.79863550430605224 0.39931775215302612 0 0.30090751538546595 1 I I -0.70710678118654746 0.70710678118654746 0.5 forward I I I I #
loop $-1 $-1 $257 $64 #
coedge $-1 $161 $161 $258 $259 reversed $102 $-1 #
face $-1 $260 $261 $39 $-1 $262 reversed single #
loop $-1 $-1 $263 $104 #
plane-surface $-1 0 -38.823177379490403 0 0 1 0 0 0 1 forward_v I I I I #
coedge $-1 $264 $265 $266 $267 forward $105 $-1 #
coedge $-1 $268 $107 $269 $270 forward $66 $-1 #
coedge $-1 $107 $268 $271 $272 forward $66 $-1 #
coedge $-1 $273 $274 $107 $169 reversed $275 $-1 #
edge $-1 $276 -38.823177379490403 $277 38.823177379490403 $168 $278 forward 7 unknown #
face $-1 $279 $280 $40 $-1 $281 reversed single #
loop $-1 $-1 $282 $108 #
plane-surface $-1 0 0 17.192528998163805 0 0 1 1 0 0 forward_v I I I I #
coedge $-1 $283 $284 $285 $286 reversed $109 $-1 #
coedge $-1 $287 $111 $288 $289 reversed $69 $-1 #
coedge $-1 $111 $287 $290 $291 reversed $69 $-1 #
coedge $-1 $284 $283 $111 $177 reversed $109 $-1 #
edge $-1 $292 -17.192528998163805 $293 17.192528998163805 $176 $294 forward 7 unknown #
face $-1 $295 $296 $41 $-1 $297 reversed single #
loop $-1 $-1 $298 $112 #
plane-surface $-1 0 0 -17.192528998163805 0 0 1 1 0 0 forward_v I I I I #
coedge $-1 $299 $300 $301 $302 forward $113 $-1 #
coedge $-1 $301 $115 $303 $304 reversed $72 $-1 #
coedge $-1 $115 $301 $305 $306 reversed $72 $-1 #
coedge $-1 $307 $308 $115 $185 forward $296 $-1 #
edge $-1 $309 -17.192528998163805 $310 17.192528998163805 $184 $311 forward 7 unknown #
face $-1 $312 $313 $42 $-1 $314 reversed single #
loop $-1 $-1 $315 $116 #
plane-surface $-1 76.202170755113428 -12.329059983601653 173.59802444862126 0 1 0 0.7660444514056185 0 0.64278759981090561 forward_v I I I I #
coedge $-1 $316 $317 $318 $319 reversed $117 $-1 #
coedge $-1 $191 $119 $320 $321 reversed $75 $-1 #
coedge $-1 $119 $190 $316 $322 reversed $75 $-1 #
coedge $-1 $318 $323 $119 $193 forward $324 $-1 #
edge $-1 $325 -23.031151324002778 $326 -9.7359424078330505 $192 $327 forward 7 unknown #
loop $-1 $-1 $199 $120 #
plane-surface $-1 -17.457850699375683 -8.2231912699232304 95.007937047686113 0.7660444514056185 0 0.64278759981090561 0.64278759981090561 0 -0.7660444514056185 forward_v I I I I #
loop $-1 $-1 $328 $77 #
coedge $-1 $197 $197 $198 $329 reversed $121 $-1 #
coedge $-1 $198 $198 $197 $329 forward $123 $-1 #
coedge $-1 $199 $199 $124 $200 forward $194 $-1 #
edge $-1 $330 0 $330 6.2831853071796004 $199 $331 forward 7 unknown #
loop $-1 $-1 $206 $125 #
plane-surface $-1 -17.457850699375683 -8.2231912699232304 95.007937047686113 0.7660444514056185 0 0.64278759981090561 0.64278759981090561 0 -0.7660444514056185 forward_v I I I I #
loop $-1 $-1 $332 $80 #
coedge $-1 $204 $204 $205 $333 reversed $126 $-1 #
coedge $-1 $205 $205 $204 $333 forward $128 $-1 #
coedge $-1 $206 $206 $129 $207 forward $201 $-1 #
edge $-1 $334 0 $334 6.2831853071796004 $206 $335 forward 7 unknown #
face $-1 $336 $337 $45 $-1 $338 reversed single #
loop $-1 $-1 $339 $130 #
plane-surface $-1 76.202170755113428 8.1785411530070995 173.59802444862126 0 1 0 0.7660444514056185 0 0.64278759981090561 forward_v I I I I #
coedge $-1 $340 $341 $342 $343 reversed $131 $-1 #
coedge $-1 $213 $133 $344 $345 reversed $84 $-1 #
coedge $-1 $133 $212 $340 $346 reversed $84 $-1 #
coedge $-1 $342 $347 $133 $215 forward $348 $-1 #
edge $-1 $349 -23.031151324002778 $350 -9.7359424078330505 $214 $351 forward 7 unknown #
loop $-1 $-1 $221 $134 #
plane-surface $-1 -17.457850699375683 12.284409866685522 95.007937047686113 0.7660444514056185 0 0.64278759981090561 0.64278759981090561 0 -0.7660444514056185 forward_v I I I I #
loop $-1 $-1 $352 $86 #
coedge $-1 $219 $219 $220 $353 reversed $135 $-1 #
coedge $-1 $220 $220 $219 $353 forward $137 $-1 #
coedge $-1 $221 $221 $138 $222 forward $216 $-1 #
edge $-1 $354 0 $354 6.2831853071796004 $221 $355 forward 7 unknown #
loop $-1 $-1 $228 $139 #
plane-surface $-1 -17.457850699375683 12.284409866685522 95.007937047686113 0.7660444514056185 0 0.64278759981090561 0.64278759981090561 0 -0.7660444514056185 forward_v I I I I #
loop $-1 $-1 $356 $89 #
coedge $-1 $226 $226 $227 $357 reversed $140 $-1 #
coedge $-1 $227 $227 $226 $357 forward $142 $-1 #
coedge $-1 $228 $228 $143 $229 forward $223 $-1 #
edge $-1 $358 0 $358 6.2831853071796004 $228 $359 forward 7 unknown #
face $-1 $360 $361 $48 $-1 $362 forward single #
loop $-1 $-1 $363 $144 #
plane-surface $-1 -134.71283452484931 -9.1523845000575506 102.838902264994 0 -1 0 0.6018150307709319 0 -0.79863550430605224 forward_v I I I I #
coedge $-1 $364 $365 $366 $367 reversed $145 $-1 #
coedge $-1 $235 $147 $368 $369 reversed $93 $-1 #
coedge $-1 $147 $234 $364 $370 reversed $93 $-1 #
coedge $-1 $366 $371 $147 $237 forward $361 $-1 #
edge $-1 $372 6.2241805608651646 $373 22.146563127046456 $236 $374 forward 7 unknown #
loop $-1 $-1 $243 $148 #
plane-surface $-1 -61.132236701559478 -13.408194912896455 5.1941528899801597 -0.6018150307709319 0 0.79863550430605224 0.79863550430605224 0 0.6018150307709319 forward_v I I I I #
loop $-1 $-1 $375 $95 #
coedge $-1 $241 $241 $242 $376 reversed $149 $-1 #
coedge $-1 $242 $242 $241 $376 forward $151 $-1 #
coedge $-1 $243 $243 $152 $244 forward $238 $-1 #
edge $-1 $377 0 $377 6.2831853071796004 $243 $378 forward 7 unknown #
face $-1 $379 $380 $50 $-1 $381 forward single #
loop $-1 $-1 $382 $153 #
plane-surface $-1 -134.71283452484931 17.664005325735367 102.838902264994 0 -1 0 0.6018150307709319 0 -0.79863550430605224 forward_v I I I I #
coedge $-1 $383 $384 $385 $386 reversed $154 $-1 #
coedge $-1 $250 $156 $387 $388 reversed $99 $-1 #
coedge $-1 $156 $249 $383 $389 reversed $99 $-1 #
coedge $-1 $385 $390 $156 $252 forward $380 $-1 #
edge $-1 $391 6.2241805608651646 $392 22.146563127046456 $251 $393 forward 7 unknown #
loop $-1 $-1 $258 $157 #
plane-surface $-1 -61.132236701559478 13.408194912896462 5.1941528899801597 -0.6018150307709319 0 0.79863550430605224 0.79863550430605224 0 0.6018150307709319 forward_v I I I I #
loop $-1 $-1 $394 $101 #
coedge $-1 $256 $256 $257 $395 reversed $158 $-1 #
coedge $-1 $257 $257 $256 $395 forward $160 $-1 #
coedge $-1 $258 $258 $161 $259 forward $253 $-1 #
edge $-1 $396 0 $396 6.2831853071796004 $258 $397 forward 7 unknown #
face $-1 $398 $399 $39 $-1 $400 reversed single #
loop $-1 $-1 $401 $162 #
plane-surface $-1 -61.132236701559492 0 0 1 0 0 0 0 -1 forward_v I I I I #
coedge $-1 $402 $271 $403 $404 forward $163 $-1 #
coedge $-1 $405 $165 $402 $406 forward $105 $-1 #
coedge $-1 $165 $405 $407 $408 forward $105 $-1 #
coedge $-1 $274 $273 $165 $267 reversed $275 $-1 #
edge $-1 $409 -38.823177379490403 $410 38.823177379490403 $266 $411 forward 7 unknown #
coedge $-1 $167 $166 $412 $413 forward $66 $-1 #
coedge $-1 $414 $415 $166 $270 reversed $399 $-1 #
edge $-1 $277 -61.132236701559492 $416 61.132236701559492 $269 $417 forward 7 unknown #
coedge $-1 $263 $418 $167 $272 reversed $163 $-1 #
edge $-1 $419 -61.132236701559492 $276 61.132236701559492 $271 $420 forward 7 unknown #
coedge $-1 $266 $168 $418 $421 forward $275 $-1 #
coedge $-1 $168 $266 $414 $422 reversed $275 $-1 #
loop $-1 $-1 $273 $398 #
vertex $-1 $169 $423 #
vertex $-1 $169 $424 #
straight-curve $-1 61.132236701559492 0 17.192528998163805 0 1 0 I I #
face $-1 $425 $426 $40 $-1 $427 reversed single #
loop $-1 $-1 $428 $170 #
plane-surface $-1 -61.132236701559492 0 0 1 0 0 0 0 -1 forward_v I I I I #
coedge $-1 $290 $429 $284 $430 forward $171 $-1 #
coedge $-1 $176 $173 $431 $432 reversed $109 $-1 #
coedge $-1 $173 $176 $282 $430 reversed $109 $-1 #
coedge $-1 $433 $434 $173 $286 forward $435 $-1 #
edge $-1 $436 -17.192528998163805 $437 17.192528998163805 $285 $438 forward 7 unknown #
coedge $-1 $175 $174 $428 $439 reversed $69 $-1 #
coedge $-1 $431 $440 $174 $289 forward $426 $-1 #
edge $-1 $441 -31.79313299016254 $293 -26.885074432631363 $288 $442 forward 7 unknown #
coedge $-1 $443 $282 $175 $291 forward $171 $-1 #
edge $-1 $292 26.885074432631363 $444 31.79313299016254 $290 $445 forward 7 unknown #
vertex $-1 $291 $446 #
vertex $-1 $289 $447 #
straight-curve $-1 -56.224178144028315 -20.507601136608749 0 0 0 -1 I I #
face $-1 $448 $449 $41 $-1 $450 forward single #
loop $-1 $-1 $184 $178 #
plane-surface $-1 -61.132236701559492 0 0 1 0 0 0 0 -1 forward_v I I I I #
coedge $-1 $303 $451 $299 $452 forward $179 $-1 #
coedge $-1 $453 $181 $298 $452 reversed $113 $-1 #
coedge $-1 $181 $453 $454 $455 reversed $113 $-1 #
coedge $-1 $183 $182 $181 $302 reversed $72 $-1 #
edge $-1 $456 -17.192528998163805 $457 17.192528998163805 $181 $458 forward 7 unknown #
coedge $-1 $459 $298 $182 $304 forward $179 $-1 #
edge $-1 $457 26.885074432631363 $309 31.79313299016254 $303 $460 forward 7 unknown #
coedge $-1 $454 $461 $183 $306 forward $449 $-1 #
edge $-1 $310 -31.79313299016254 $456 -26.885074432631363 $305 $462 forward 7 unknown #
coedge $-1 $463 $184 $461 $464 reversed $296 $-1 #
coedge $-1 $184 $463 $459 $465 reversed $296 $-1 #
vertex $-1 $465 $466 #
vertex $-1 $185 $467 #
straight-curve $-1 -61.132236701559492 20.507601136608745 0 0 0 1 I I #
face $-1 $-1 $324 $42 $-1 $468 forward single #
loop $-1 $-1 $469 $186 #
plane-surface $-1 61.132236701559492 0 0 -1 0 0 0 0 1 forward_v I I I I #
coedge $-1 $470 $471 $472 $473 reversed $187 $-1 #
coedge $-1 $474 $189 $191 $322 forward $117 $-1 #
coedge $-1 $189 $474 $470 $475 forward $117 $-1 #
coedge $-1 $472 $192 $189 $319 forward $324 $-1 #
edge $-1 $326 0.005726921283192965 $476 8.2174643486400374 $318 $477 forward 7 unknown #
coedge $-1 $478 $479 $190 $321 forward $313 $-1 #
edge $-1 $480 -85.451096631113643 $325 -69.606483226146821 $320 $481 forward 7 unknown #
edge $-1 $326 101.58079979136782 $480 122.26447340311903 $191 $482 forward 7 unknown #
coedge $-1 $192 $472 $478 $483 forward $324 $-1 #
loop $-1 $-1 $472 $312 #
vertex $-1 $321 $484 #
vertex $-1 $193 $485 #
straight-curve $-1 38.101085377556714 -4.1173225562448081 17.192528998163809 -1 0 0 I I #
coedge $-1 $328 $328 $-1 $486 reversed $196 $-1 #
edge $-1 $487 0 $487 6.2831853071796004 $197 $488 forward 7 unknown #
vertex $-1 $200 $489 #
ellipse-curve $-1 54.484632243474628 -9.9828492900711261 9.2702222956803926 0.7660444514056185 0 0.64278759981090561 0.64278759981090561 0 -0.7660444514056185 1 I I #
coedge $-1 $332 $332 $-1 $490 reversed $203 $-1 #
edge $-1 $491 0 $491 6.2831853071796004 $204 $492 forward 7 unknown #
vertex $-1 $207 $493 #
ellipse-curve $-1 54.484632243474628 -6.4635332497753382 9.2702222956803926 0.7660444514056185 0 0.64278759981090561 0.64278759981090561 0 -0.7660444514056185 1 I I #
face $-1 $-1 $348 $45 $-1 $494 forward single #
loop $-1 $-1 $495 $208 #
plane-surface $-1 61.132236701559492 0 0 -1 0 0 0 0 1 forward_v I I I I #
coedge $-1 $496 $497 $498 $499 reversed $209 $-1 #
coedge $-1 $500 $211 $213 $346 forward $131 $-1 #
coedge $-1 $211 $500 $496 $501 forward $131 $-1 #
coedge $-1 $498 $214 $211 $343 forward $348 $-1 #
edge $-1 $350 -10.248073647021183 $502 -2.0363362196643386 $342 $503 forward 7 unknown #
coedge $-1 $504 $505 $212 $345 forward $337 $-1 #
edge $-1 $506 -85.451096631113643 $349 -69.606483226146821 $344 $507 forward 7 unknown #
edge $-1 $350 101.58079979136782 $506 122.26447340311903 $213 $508 forward 7 unknown #
coedge $-1 $214 $498 $504 $509 forward $348 $-1 #
loop $-1 $-1 $498 $336 #
vertex $-1 $345 $510 #
vertex $-1 $215 $511 #
straight-curve $-1 38.101085377556714 16.390278580363944 17.192528998163809 -1 0 0 I I #
coedge $-1 $352 $352 $-1 $512 reversed $218 $-1 #
edge $-1 $513 0 $513 6.2831853071796004 $219 $514 forward 7 unknown #
vertex $-1 $222 $515 #
ellipse-curve $-1 54.484632243474628 10.524751846537626 9.2702222956803926 0.7660444514056185 0 0.64278759981090561 0.64278759981090561 0 -0.7660444514056185 1 I I #
coedge $-1 $356 $356 $-1 $516 reversed $225 $-1 #
edge $-1 $517 0 $517 6.2831853071796004 $226 $518 forward 7 unknown #
vertex $-1 $229 $519 #
ellipse-curve $-1 54.484632243474628 14.04406788683341 9.2702222956803926 0.7660444514056185 0 0.64278759981090561 0.64278759981090561 0 -0.7660444514056185 1 I I #
face $-1 $-1 $520 $48 $-1 $521 reversed single #
loop $-1 $-1 $236 $230 #
plane-surface $-1 0 0 17.192528998163805 0 0 1 1 0 0 forward_v I I I I #
coedge $-1 $522 $523 $524 $525 reversed $231 $-1 #
coedge $-1 $526 $233 $235 $370 forward $145 $-1 #
coedge $-1 $233 $526 $522 $527 forward $145 $-1 #
coedge $-1 $524 $236 $233 $367 forward $361 $-1 #
edge $-1 $373 -10.959907869287132 $528 -2.4482870436093229 $366 $529 forward 7 unknown #
coedge $-1 $530 $531 $234 $369 forward $520 $-1 #
edge $-1 $532 -46.225298242516857 $372 -34.226922134333194 $368 $533 forward 7 unknown #
edge $-1 $373 -19.936983117243834 $532 1.7763522597878294e-014 $235 $534 forward 7 unknown #
coedge $-1 $236 $524 $530 $535 forward $361 $-1 #
vertex $-1 $237 $536 #
vertex $-1 $237 $537 #
straight-curve $-1 -67.356417262424657 -17.66400532573536 17.192528998163802 1 0 0 I I #
coedge $-1 $375 $375 $-1 $538 reversed $240 $-1 #
edge $-1 $539 0 $539 6.2831853071796004 $241 $540 forward 7 unknown #
vertex $-1 $244 $541 #
ellipse-curve $-1 -53.17104541846885 -13.408194912896455 11.193340944071975 -0.6018150307709319 0 0.79863550430605224 0.79863550430605224 0 0.6018150307709319 1 I I #
face $-1 $-1 $542 $50 $-1 $543 reversed single #
loop $-1 $-1 $251 $245 #
plane-surface $-1 0 0 17.192528998163805 0 0 1 1 0 0 forward_v I I I I #
coedge $-1 $544 $545 $546 $547 reversed $246 $-1 #
coedge $-1 $548 $248 $250 $389 forward $154 $-1 #
coedge $-1 $248 $548 $544 $549 forward $154 $-1 #
coedge $-1 $546 $251 $248 $386 forward $380 $-1 #
edge $-1 $392 2.4482870436093265 $550 10.959907869287136 $385 $551 forward 7 unknown #
coedge $-1 $552 $553 $249 $388 forward $542 $-1 #
edge $-1 $554 -46.225298242516857 $391 -34.226922134333194 $387 $555 forward 7 unknown #
edge $-1 $392 -19.936983117243834 $554 1.7763522597878294e-014 $250 $556 forward 7 unknown #
coedge $-1 $251 $546 $552 $557 forward $380 $-1 #
vertex $-1 $252 $558 #
vertex $-1 $252 $559 #
straight-curve $-1 -67.356417262424657 9.1523845000575577 17.192528998163802 1 0 0 I I #
coedge $-1 $394 $394 $-1 $560 reversed $255 $-1 #
edge $-1 $561 0 $561 6.2831853071796004 $256 $562 forward 7 unknown #
vertex $-1 $259 $563 #
ellipse-curve $-1 -53.17104541846885 13.408194912896462 11.193340944071975 -0.6018150307709319 0 0.79863550430605224 0.79863550430605224 0 0.6018150307709319 1 I I #
face $-1 $-1 $275 $39 $-1 $564 reversed single #
loop $-1 $-1 $414 $260 #
plane-surface $-1 0 38.823177379490403 0 0 -1 0 0 0 -1 forward_v I I I I #
coedge $-1 $565 $412 $415 $566 forward $261 $-1 #
coedge $-1 $418 $263 $264 $406 reversed $163 $-1 #
coedge $-1 $412 $565 $263 $404 reversed $261 $-1 #
edge $-1 $419 -17.192528998163805 $567 17.192528998163805 $403 $568 forward 7 unknown #
coedge $-1 $265 $264 $565 $569 forward $105 $-1 #
edge $-1 $410 -61.132236701559492 $567 61.132236701559492 $402 $570 forward 7 unknown #
coedge $-1 $415 $414 $265 $408 reversed $399 $-1 #
edge $-1 $571 -61.132236701559492 $409 61.132236701559492 $407 $572 forward 7 unknown #
vertex $-1 $267 $573 #
vertex $-1 $421 $574 #
straight-curve $-1 61.132236701559492 0 -17.192528998163805 0 -1 0 I I #
coedge $-1 $401 $403 $268 $413 reversed $261 $-1 #
edge $-1 $416 -38.823177379490403 $419 38.823177379490403 $412 $575 forward 7 unknown #
coedge $-1 $407 $269 $274 $422 forward $399 $-1 #
coedge $-1 $269 $407 $401 $566 reversed $399 $-1 #
vertex $-1 $270 $576 #
straight-curve $-1 0 38.823177379490403 17.192528998163805 -1 0 0 I I #
coedge $-1 $271 $402 $273 $421 reversed $163 $-1 #
vertex $-1 $413 $577 #
straight-curve $-1 0 -38.823177379490403 17.192528998163805 1 0 0 I I #
edge $-1 $276 -17.192528998163805 $410 17.192528998163805 $273 $578 forward 7 unknown #
edge $-1 $277 -17.192528998163805 $409 17.192528998163805 $274 $579 forward 7 unknown #
point $-1 61.132236701559492 -38.823177379490403 17.192528998163805 #
point $-1 61.132236701559492 38.823177379490403 17.192528998163805 #
face $-1 $-1 $435 $40 $-1 $580 reversed single #
loop $-1 $-1 $431 $279 #
plane-surface $-1 0 0 -17.192528998163805 0 0 1 1 0 0 forward_v I I I I #
coedge $-1 $581 $582 $287 $439 forward $280 $-1 #
coedge $-1 $282 $443 $433 $583 forward $171 $-1 #
edge $-1 $437 -23.990482750465617 $292 -5.6749065075839606 $282 $584 forward 7 unknown #
coedge $-1 $585 $288 $283 $432 forward $426 $-1 #
edge $-1 $293 5.6749065075839606 $436 23.990482750465617 $431 $586 forward 7 unknown #
coedge $-1 $587 $285 $429 $583 reversed $435 $-1 #
coedge $-1 $285 $587 $585 $588 reversed $435 $-1 #
loop $-1 $-1 $285 $425 #
vertex $-1 $588 $589 #
vertex $-1 $286 $590 #
straight-curve $-1 -56.224178144028315 -38.823177379490403 0 0 0 1 I I #
edge $-1 $444 -17.192528998163805 $441 17.192528998163805 $428 $591 forward 7 unknown #
coedge $-1 $288 $585 $581 $592 forward $426 $-1 #
vertex $-1 $289 $593 #
straight-curve $-1 -29.339103711396952 -20.507601136608749 -17.192528998163805 1 0 0 I I #
coedge $-1 $429 $290 $582 $594 forward $171 $-1 #
vertex $-1 $594 $595 #
straight-curve $-1 -29.339103711396952 -20.507601136608749 17.192528998163805 -1 0 0 I I #
point $-1 -56.224178144028315 -20.507601136608749 17.192528998163805 #
point $-1 -56.224178144028315 -20.507601136608749 -17.192528998163805 #
face $-1 $-1 $596 $41 $-1 $597 reversed single #
loop $-1 $-1 $454 $295 #
plane-surface $-1 0 0 17.192528998163805 0 0 1 1 0 0 forward_v I I I I #
coedge $-1 $298 $459 $598 $599 forward $179 $-1 #
edge $-1 $600 -23.990482750465617 $457 -5.6749065075839589 $298 $601 forward 7 unknown #
coedge $-1 $300 $299 $602 $603 reversed $113 $-1 #
coedge $-1 $604 $305 $300 $455 forward $449 $-1 #
edge $-1 $456 5.6749065075839589 $605 23.990482750465617 $454 $606 forward 7 unknown #
vertex $-1 $306 $607 #
vertex $-1 $304 $608 #
straight-curve $-1 -56.224178144028315 20.507601136608745 0 0 0 -1 I I #
coedge $-1 $451 $303 $308 $465 forward $179 $-1 #
straight-curve $-1 -29.339103711396952 20.507601136608745 -17.192528998163805 -1 0 0 I I #
coedge $-1 $305 $604 $307 $464 forward $449 $-1 #
straight-curve $-1 -29.339103711396952 20.507601136608745 17.192528998163805 1 0 0 I I #
coedge $-1 $308 $307 $609 $610 forward $296 $-1 #
edge $-1 $611 -38.823177379490403 $310 -20.507601136608745 $307 $612 forward 7 unknown #
edge $-1 $309 20.507601136608745 $613 38.823177379490403 $308 $614 forward 7 unknown #
point $-1 -61.132236701559492 20.507601136608745 -17.192528998163805 #
point $-1 -61.132236701559492 20.507601136608745 17.192528998163805 #
plane-surface $-1 0 0 17.192528998163805 0 0 1 1 0 0 forward_v I I I I #
coedge $-1 $479 $478 $471 $615 forward $313 $-1 #
coedge $-1 $471 $315 $317 $475 reversed $187 $-1 #
coedge $-1 $315 $470 $469 $615 reversed $187 $-1 #
coedge $-1 $323 $318 $315 $473 forward $324 $-1 #
edge $-1 $476 9.7359424078330505 $616 23.031151324002778 $472 $617 forward 7 unknown #
coedge $-1 $317 $316 $479 $618 reversed $117 $-1 #
edge $-1 $619 -122.26447340311903 $476 -101.58079979136782 $470 $620 forward 7 unknown #
vertex $-1 $319 $621 #
straight-curve $-1 47.837027785389765 -4.1115956349616152 17.192528998163802 0 -1 0 I I #
coedge $-1 $469 $320 $323 $483 reversed $313 $-1 #
coedge $-1 $320 $469 $474 $618 forward $313 $-1 #
vertex $-1 $321 $622 #
straight-curve $-1 61.132236701559492 -4.1173225562448081 86.79901222431063 0 0 1 I I #
straight-curve $-1 -17.457850699375683 -4.1173225562448081 95.007937047686113 0.64278759981090561 0 -0.7660444514056185 I I #
edge $-1 $616 -12.329059983601653 $325 -4.1173225562448081 $478 $623 forward 7 unknown #
point $-1 61.132236701559492 -4.1173225562448081 17.192528998163805 #
point $-1 47.837027785389765 -4.1173225562448081 17.192528998163809 #
edge $-1 $624 1 $624 0 $328 $-1 forward 7 unknown #
vertex $-1 $329 $625 #
ellipse-curve $-1 52.935664038502232 -9.9828492900711261 7.9704836802114354 0.7660444514056185 0 0.64278759981090561 0.64278759981090561 0 -0.7660444514056185 1 I I #
point $-1 55.127419843285537 -9.9828492900711261 8.5041778442747749 #
edge $-1 $626 1 $626 0 $332 $-1 forward 7 unknown #
vertex $-1 $333 $627 #
ellipse-curve $-1 52.935664038502232 -6.4635332497753382 7.9704836802114354 0.7660444514056185 0 0.64278759981090561 0.64278759981090561 0 -0.7660444514056185 1 I I #
point $-1 55.127419843285537 -6.4635332497753382 8.5041778442747749 #
plane-surface $-1 0 0 17.192528998163805 0 0 1 1 0 0 forward_v I I I I #
coedge $-1 $505 $504 $497 $628 forward $337 $-1 #
coedge $-1 $497 $339 $341 $501 reversed $209 $-1 #
coedge $-1 $339 $496 $495 $628 reversed $209 $-1 #
coedge $-1 $347 $342 $339 $499 forward $348 $-1 #
edge $-1 $502 9.7359424078330505 $629 23.031151324002778 $498 $630 forward 7 unknown #
coedge $-1 $341 $340 $505 $631 reversed $131 $-1 #
edge $-1 $632 -122.26447340311903 $502 -101.58079979136782 $496 $633 forward 7 unknown #
vertex $-1 $343 $634 #
straight-curve $-1 47.837027785389765 6.1422049333427609 17.192528998163802 0 -1 0 I I #
coedge $-1 $495 $344 $347 $509 reversed $337 $-1 #
coedge $-1 $344 $495 $500 $631 forward $337 $-1 #
vertex $-1 $345 $635 #
straight-curve $-1 61.132236701559492 16.390278580363944 86.79901222431063 0 0 1 I I #
straight-curve $-1 -17.457850699375683 16.390278580363944 95.007937047686113 0.64278759981090561 0 -0.7660444514056185 I I #
edge $-1 $629 8.1785411530070995 $349 16.390278580363944 $504 $636 forward 7 unknown #
point $-1 61.132236701559492 16.390278580363944 17.192528998163805 #
point $-1 47.837027785389765 16.390278580363944 17.192528998163809 #
edge $-1 $637 1 $637 0 $352 $-1 forward 7 unknown #
vertex $-1 $353 $638 #
ellipse-curve $-1 52.935664038502232 10.524751846537626 7.9704836802114354 0.7660444514056185 0 0.64278759981090561 0.64278759981090561 0 -0.7660444514056185 1 I I #
point $-1 55.127419843285537 10.524751846537626 8.5041778442747749 #
edge $-1 $639 1 $639 0 $356 $-1 forward 7 unknown #
vertex $-1 $357 $640 #
ellipse-curve $-1 52.935664038502232 14.04406788683341 7.9704836802114354 0.7660444514056185 0 0.64278759981090561 0.64278759981090561 0 -0.7660444514056185 1 I I #
point $-1 55.127419843285537 14.04406788683341 8.5041778442747749 #
loop $-1 $-1 $368 $360 #
plane-surface $-1 -61.132236701559492 0 0 1 0 0 0 0 -1 forward_v I I I I #
coedge $-1 $523 $363 $365 $527 reversed $231 $-1 #
coedge $-1 $363 $522 $641 $642 reversed $231 $-1 #
coedge $-1 $371 $366 $363 $525 forward $361 $-1 #
edge $-1 $528 -22.146563127046456 $643 -6.2241805608651646 $524 $644 forward 7 unknown #
coedge $-1 $365 $364 $531 $645 reversed $145 $-1 #
edge $-1 $646 -1.7763522597878294e-014 $528 19.936983117243834 $522 $647 forward 7 unknown #
vertex $-1 $367 $648 #
straight-curve $-1 -45.209854135378201 -6.7040974564482276 17.192528998163805 0 1 0 I I #
coedge $-1 $641 $368 $371 $535 reversed $520 $-1 #
coedge $-1 $368 $641 $526 $645 forward $520 $-1 #
vertex $-1 $369 $649 #
straight-curve $-1 -61.132236701559492 -17.66400532573536 51.419451132497002 0 0 1 I I #
straight-curve $-1 -61.132236701559478 -17.66400532573536 5.1941528899801597 -0.79863550430605224 0 -0.6018150307709319 I I #
edge $-1 $643 9.1523845000575506 $372 17.66400532573536 $530 $650 forward 7 unknown #
point $-1 -61.132236701559492 -17.66400532573536 17.192528998163805 #
point $-1 -45.209854135378201 -17.66400532573536 17.192528998163805 #
edge $-1 $651 1 $651 0 $375 $-1 forward 7 unknown #
vertex $-1 $376 $652 #
ellipse-curve $-1 -51.387125861483177 -13.408194912896455 8.8259997807752999 -0.6018150307709319 0 0.79863550430605224 0.79863550430605224 0 0.6018150307709319 1 I I #
point $-1 -52.372409914162809 -13.408194912896455 11.79515597484292 #
loop $-1 $-1 $387 $379 #
plane-surface $-1 -61.132236701559492 0 0 1 0 0 0 0 -1 forward_v I I I I #
coedge $-1 $545 $382 $384 $549 reversed $246 $-1 #
coedge $-1 $382 $544 $653 $654 reversed $246 $-1 #
coedge $-1 $390 $385 $382 $547 forward $380 $-1 #
edge $-1 $550 -22.146563127046456 $655 -6.2241805608651646 $546 $656 forward 7 unknown #
coedge $-1 $384 $383 $553 $657 reversed $154 $-1 #
edge $-1 $658 -1.7763522597878294e-014 $550 19.936983117243834 $544 $659 forward 7 unknown #
vertex $-1 $386 $660 #
straight-curve $-1 -45.209854135378201 6.7040974564482312 17.192528998163805 0 1 0 I I #
coedge $-1 $653 $387 $390 $557 reversed $542 $-1 #
coedge $-1 $387 $653 $548 $657 forward $542 $-1 #
vertex $-1 $388 $661 #
straight-curve $-1 -61.132236701559492 9.1523845000575577 51.419451132497002 0 0 1 I I #
straight-curve $-1 -61.132236701559478 9.1523845000575577 5.1941528899801597 -0.79863550430605224 0 -0.6018150307709319 I I #
edge $-1 $655 -17.664005325735367 $391 -9.1523845000575577 $552 $662 forward 7 unknown #
point $-1 -61.132236701559492 9.1523845000575577 17.192528998163805 #
point $-1 -45.209854135378201 9.1523845000575577 17.192528998163805 #
edge $-1 $663 1 $663 0 $394 $-1 forward 7 unknown #
vertex $-1 $395 $664 #
ellipse-curve $-1 -51.387125861483177 13.408194912896462 8.8259997807752999 -0.6018150307709319 0 0.79863550430605224 0.79863550430605224 0 0.6018150307709319 1 I I #
point $-1 -52.372409914162809 13.408194912896462 11.79515597484292 #
plane-surface $-1 61.132236701559492 0 0 -1 0 0 0 0 1 forward_v I I I I #
coedge $-1 $403 $401 $405 $569 reversed $261 $-1 #
edge $-1 $416 -17.192528998163805 $571 17.192528998163805 $415 $665 forward 7 unknown #
vertex $-1 $569 $666 #
straight-curve $-1 -61.132236701559492 -38.823177379490403 0 0 0 -1 I I #
edge $-1 $567 -38.823177379490403 $571 38.823177379490403 $565 $667 forward 7 unknown #
straight-curve $-1 0 -38.823177379490403 -17.192528998163805 -1 0 0 I I #
vertex $-1 $408 $668 #
straight-curve $-1 0 38.823177379490403 -17.192528998163805 1 0 0 I I #
point $-1 61.132236701559492 38.823177379490403 -17.192528998163805 #
point $-1 61.132236701559492 -38.823177379490403 -17.192528998163805 #
straight-curve $-1 -61.132236701559492 0 17.192528998163805 0 -1 0 I I #
point $-1 -61.132236701559492 38.823177379490403 17.192528998163805 #
point $-1 -61.132236701559492 -38.823177379490403 17.192528998163805 #
straight-curve $-1 61.132236701559492 -38.823177379490403 0 0 0 -1 I I #
straight-curve $-1 61.132236701559492 38.823177379490403 0 0 0 -1 I I #
plane-surface $-1 0 -38.823177379490403 0 0 1 0 0 0 1 forward_v I I I I #
coedge $-1 $669 $428 $440 $592 reversed $280 $-1 #
coedge $-1 $428 $669 $443 $594 reversed $280 $-1 #
edge $-1 $670 -61.132236701559492 $437 -56.224178144028315 $433 $671 forward 7 unknown #
straight-curve $-1 -56.224178144028315 -14.832694629024788 17.192528998163805 0 1 0 I I #
coedge $-1 $440 $431 $434 $588 forward $426 $-1 #
straight-curve $-1 -56.224178144028315 -14.832694629024788 -17.192528998163805 0 -1 0 I I #
coedge $-1 $434 $433 $669 $672 forward $435 $-1 #
edge $-1 $436 56.224178144028315 $673 61.132236701559492 $434 $674 forward 7 unknown #
point $-1 -56.224178144028315 -38.823177379490403 -17.192528998163805 #
point $-1 -56.224178144028315 -38.823177379490403 17.192528998163805 #
straight-curve $-1 -61.132236701559492 -20.507601136608749 0 0 0 -1 I I #
edge $-1 $673 -38.823177379490403 $441 -20.507601136608749 $581 $675 forward 7 unknown #
point $-1 -61.132236701559492 -20.507601136608749 -17.192528998163805 #
edge $-1 $444 20.507601136608749 $670 38.823177379490403 $582 $676 forward 7 unknown #
point $-1 -61.132236701559492 -20.507601136608749 17.192528998163805 #
loop $-1 $-1 $602 $448 #
plane-surface $-1 0 38.823177379490403 0 0 -1 0 0 0 -1 forward_v I I I I #
coedge $-1 $609 $602 $451 $599 reversed $596 $-1 #
edge $-1 $613 -61.132236701559492 $600 -56.224178144028315 $598 $677 forward 7 unknown #
vertex $-1 $452 $678 #
straight-curve $-1 -56.224178144028315 14.832694629024786 -17.192528998163805 0 -1 0 I I #
coedge $-1 $598 $679 $453 $603 forward $596 $-1 #
edge $-1 $605 -17.192528998163805 $600 17.192528998163805 $602 $680 forward 7 unknown #
coedge $-1 $461 $454 $679 $681 forward $449 $-1 #
vertex $-1 $681 $682 #
straight-curve $-1 -56.224178144028315 14.832694629024786 17.192528998163805 0 1 0 I I #
point $-1 -56.224178144028315 20.507601136608745 17.192528998163805 #
point $-1 -56.224178144028315 20.507601136608745 -17.192528998163805 #
coedge $-1 $679 $598 $463 $610 reversed $596 $-1 #
edge $-1 $611 -17.192528998163805 $613 17.192528998163805 $609 $683 forward 7 unknown #
vertex $-1 $681 $684 #
straight-curve $-1 -61.132236701559492 0 17.192528998163805 0 -1 0 I I #
vertex $-1 $599 $685 #
straight-curve $-1 -61.132236701559492 0 -17.192528998163805 0 1 0 I I #
edge $-1 $616 69.606483226146821 $619 85.451096631113643 $469 $686 forward 7 unknown #
vertex $-1 $483 $687 #
straight-curve $-1 38.101085377556714 -12.329059983601653 17.192528998163809 1 0 0 I I #
edge $-1 $619 -8.2174643486400374 $480 -0.005726921283192965 $479 $688 forward 7 unknown #
vertex $-1 $618 $689 #
straight-curve $-1 -17.457850699375683 -12.329059983601653 95.007937047686113 -0.64278759981090561 0 0.7660444514056185 I I #
point $-1 47.837027785389765 -12.329059983601653 17.192528998163809 #
point $-1 61.132236701559492 -4.1173225562448081 1.3479155931969871 #
straight-curve $-1 61.132236701559492 0 17.192528998163805 0 1 0 I I #
vertex $-1 $486 $690 #
point $-1 53.57845163831314 -9.9828492900711261 7.2044392288058168 #
vertex $-1 $490 $691 #
point $-1 53.57845163831314 -6.4635332497753382 7.2044392288058168 #
edge $-1 $629 69.606483226146821 $632 85.451096631113643 $495 $692 forward 7 unknown #
vertex $-1 $509 $693 #
straight-curve $-1 38.101085377556714 8.1785411530070995 17.192528998163809 1 0 0 I I #
edge $-1 $632 2.0363362196643386 $506 10.248073647021183 $505 $694 forward 7 unknown #
vertex $-1 $631 $695 #
straight-curve $-1 -17.457850699375683 8.1785411530070995 95.007937047686113 -0.64278759981090561 0 0.7660444514056185 I I #
point $-1 47.837027785389765 8.1785411530070995 17.192528998163809 #
point $-1 61.132236701559492 16.390278580363944 1.3479155931969871 #
straight-curve $-1 61.132236701559492 0 17.192528998163805 0 1 0 I I #
vertex $-1 $512 $696 #
point $-1 53.57845163831314 10.524751846537626 7.2044392288058168 #
vertex $-1 $516 $697 #
point $-1 53.57845163831314 14.04406788683341 7.2044392288058168 #
coedge $-1 $531 $530 $523 $642 forward $520 $-1 #
edge $-1 $643 34.226922134333194 $646 46.225298242516857 $641 $698 forward 7 unknown #
vertex $-1 $535 $699 #
straight-curve $-1 -67.356417262424657 -9.1523845000575506 17.192528998163802 -1 0 0 I I #
edge $-1 $646 2.4482870436093229 $532 10.959907869287132 $531 $700 forward 7 unknown #
vertex $-1 $645 $701 #
straight-curve $-1 -61.132236701559478 -9.1523845000575506 5.1941528899801597 0.79863550430605224 0 0.6018150307709319 I I #
point $-1 -45.209854135378201 -9.1523845000575506 17.192528998163805 #
point $-1 -61.132236701559492 -17.66400532573536 5.194152889980149 #
straight-curve $-1 -61.132236701559492 0 17.192528998163805 0 -1 0 I I #
vertex $-1 $538 $702 #
point $-1 -50.588490357177122 -13.408194912896455 9.4278148115462326 #
coedge $-1 $553 $552 $545 $654 forward $542 $-1 #
edge $-1 $655 34.226922134333194 $658 46.225298242516857 $653 $703 forward 7 unknown #
vertex $-1 $557 $704 #
straight-curve $-1 -67.356417262424657 17.664005325735367 17.192528998163802 -1 0 0 I I #
edge $-1 $658 -10.959907869287136 $554 -2.4482870436093265 $553 $705 forward 7 unknown #
vertex $-1 $657 $706 #
straight-curve $-1 -61.132236701559478 17.664005325735367 5.1941528899801597 0.79863550430605224 0 0.6018150307709319 I I #
point $-1 -45.209854135378201 17.664005325735367 17.192528998163805 #
point $-1 -61.132236701559492 9.1523845000575577 5.194152889980149 #
straight-curve $-1 -61.132236701559492 0 17.192528998163805 0 -1 0 I I #
vertex $-1 $560 $707 #
point $-1 -50.588490357177122 13.408194912896462 9.4278148115462326 #
straight-curve $-1 -61.132236701559492 38.823177379490403 0 0 0 -1 I I #
point $-1 -61.132236701559492 -38.823177379490403 -17.192528998163805 #
straight-curve $-1 -61.132236701559492 0 -17.192528998163805 0 1 0 I I #
point $-1 -61.132236701559492 38.823177379490403 -17.192528998163805 #
coedge $-1 $582 $581 $587 $672 reversed $280 $-1 #
vertex $-1 $594 $708 #
straight-curve $-1 0 -38.823177379490403 17.192528998163805 1 0 0 I I #
edge $-1 $670 -17.192528998163805 $673 17.192528998163805 $669 $709 forward 7 unknown #
vertex $-1 $592 $710 #
straight-curve $-1 0 -38.823177379490403 -17.192528998163805 -1 0 0 I I #
straight-curve $-1 -61.132236701559492 0 -17.192528998163805 0 1 0 I I #
straight-curve $-1 -61.132236701559492 0 17.192528998163805 0 -1 0 I I #
straight-curve $-1 0 38.823177379490403 -17.192528998163805 1 0 0 I I #
point $-1 -56.224178144028315 38.823177379490403 -17.192528998163805 #
coedge $-1 $602 $609 $604 $681 reversed $596 $-1 #
straight-curve $-1 -56.224178144028315 38.823177379490403 0 0 0 -1 I I #
edge $-1 $605 56.224178144028315 $611 61.132236701559492 $679 $711 forward 7 unknown #
point $-1 -56.224178144028315 38.823177379490403 17.192528998163805 #
straight-curve $-1 -61.132236701559492 38.823177379490403 0 0 0 -1 I I #
point $-1 -61.132236701559492 38.823177379490403 17.192528998163805 #
point $-1 -61.132236701559492 38.823177379490403 -17.192528998163805 #
straight-curve $-1 61.132236701559492 -12.329059983601653 86.79901222431063 0 0 -1 I I #
point $-1 61.132236701559492 -12.329059983601653 17.192528998163805 #
straight-curve $-1 61.132236701559492 -4.1115956349616152 1.34791559319698 0 1 0 I I #
point $-1 61.132236701559492 -12.329059983601653 1.3479155931969871 #
point $-1 52.169619587096612 -9.9828492900711261 7.3276960804005302 #
point $-1 52.169619587096612 -6.4635332497753382 7.3276960804005302 #
straight-curve $-1 61.132236701559492 8.1785411530070995 86.79901222431063 0 0 -1 I I #
point $-1 61.132236701559492 8.1785411530070995 17.192528998163805 #
straight-curve $-1 61.132236701559492 6.1422049333427609 1.34791559319698 0 1 0 I I #
point $-1 61.132236701559492 8.1785411530070995 1.3479155931969871 #
point $-1 52.169619587096612 10.524751846537626 7.3276960804005302 #
point $-1 52.169619587096612 14.04406788683341 7.3276960804005302 #
straight-curve $-1 -61.132236701559492 -9.1523845000575506 51.419451132497002 0 0 -1 I I #
point $-1 -61.132236701559492 -9.1523845000575506 17.192528998163805 #
straight-curve $-1 -61.132236701559492 -6.7040974564482276 5.1941528899801499 0 -1 0 I I #
point $-1 -61.132236701559492 -9.1523845000575506 5.194152889980149 #
point $-1 -50.785310830712241 -13.408194912896455 8.0273642764692479 #
straight-curve $-1 -61.132236701559492 17.664005325735367 51.419451132497002 0 0 -1 I I #
point $-1 -61.132236701559492 17.664005325735367 17.192528998163805 #
straight-curve $-1 -61.132236701559492 6.7040974564482312 5.1941528899801499 0 -1 0 I I #
point $-1 -61.132236701559492 17.664005325735367 5.194152889980149 #
point $-1 -50.785310830712241 13.408194912896462 8.0273642764692479 #
point $-1 -61.132236701559492 -38.823177379490403 17.192528998163805 #
straight-curve $-1 -61.132236701559492 -38.823177379490403 0 0 0 -1 I I #
point $-1 -61.132236701559492 -38.823177379490403 -17.192528998163805 #
straight-curve $-1 0 38.823177379490403 17.192528998163805 -1 0 0 I I #
End-of-ACIS-data 