500 0 7 0           
7 Unknown 11 ACIS 5.0 NT 24 Fri Mar 26 01:12:52 1999 
-1 9.9999999999999995e-007 1e-010 
body $-1 $7 $-1 $8 #
body $-1 $9 $-1 $10 #
body $-1 $11 $-1 $12 #
body $-1 $13 $-1 $14 #
body $-1 $15 $-1 $16 #
body $-1 $17 $-1 $18 #
body $-1 $19 $-1 $20 #
lump $-1 $-1 $21 $0 #
transform $-1 1 0 0 0 1 0 0 0 1 59.851680043946658 27.247702466492676 13.436999866193482 1 rotate no_reflect no_shear #
lump $-1 $-1 $22 $1 #
transform $-1 1 0 0 0 1 0 0 0 1 59.851680043946658 27.247702466492676 13.436999866193482 1 rotate no_reflect no_shear #
lump $-1 $-1 $23 $2 #
transform $-1 1 0 0 0 1 0 0 0 1 59.851680043946658 27.247702466492676 13.436999866193482 1 rotate no_reflect no_shear #
lump $-1 $-1 $24 $3 #
transform $-1 1 0 0 0 1 0 0 0 1 59.851680043946658 27.247702466492676 13.436999866193482 1 rotate no_reflect no_shear #
lump $-1 $-1 $25 $4 #
transform $-1 1 0 0 0 1 0 0 0 1 59.851680043946658 27.247702466492676 13.436999866193482 1 rotate no_reflect no_shear #
lump $-1 $-1 $26 $5 #
transform $-1 1 0 0 0 1 0 0 0 1 59.851680043946658 27.247702466492676 13.436999866193482 1 rotate no_reflect no_shear #
lump $-1 $-1 $27 $6 #
transform $-1 1 0 0 0 1 0 0 0 1 59.851680043946658 27.247702466492676 13.436999866193482 1 rotate no_reflect no_shear #
shell $-1 $-1 $-1 $28 $-1 $7 #
shell $-1 $-1 $-1 $29 $-1 $9 #
shell $-1 $-1 $-1 $30 $-1 $11 #
shell $-1 $-1 $-1 $31 $-1 $13 #
shell $-1 $-1 $-1 $32 $-1 $15 #
shell $-1 $-1 $-1 $33 $-1 $17 #
shell $-1 $-1 $-1 $34 $-1 $19 #
face $-1 $35 $36 $21 $-1 $37 forward single #
face $-1 $38 $39 $22 $-1 $40 forward single #
face $-1 $41 $42 $23 $-1 $43 reversed single #
face $-1 $44 $45 $24 $-1 $46 reversed single #
face $-1 $47 $48 $25 $-1 $49 forward single #
face $-1 $50 $51 $26 $-1 $52 forward single #
face $-1 $53 $54 $27 $-1 $55 forward single #
face $-1 $56 $57 $21 $-1 $58 reversed single #
loop $-1 $-1 $59 $28 #
plane-surface $-1 0 0 13.436999866193482 0 0 1 1 0 0 forward_v I I I I #
face $-1 $60 $61 $22 $-1 $62 forward single #
loop $-1 $-1 $63 $29 #
plane-surface $-1 0 -27.247702466492676 0 0 1 0 0 0 1 forward_v I I I I #
face $-1 $64 $65 $23 $-1 $66 reversed single #
loop $-1 $-1 $67 $30 #
plane-surface $-1 -34.918944805305642 12.629302970961323 0 0 1 0 0 0 1 forward_v I I I I #
face $-1 $68 $69 $24 $-1 $70 reversed single #
loop $-1 $-1 $71 $31 #
plane-surface $-1 -141.48917628846726 5.7274064664346369 88.385754781467227 0 1 0 -0.68199836817093118 0 0.7313536940579346 forward_v I I I I #
face $-1 $72 $73 $25 $-1 $74 forward single #
loop $-1 $75 $76 $32 #
cone-surface $-1 -52.756506271475303 7.1077857673399691 6.7729531810874333 0.68199836817093118 0 -0.7313536940579346 0.18283842351448365 0 0.17049959204273279 1 I I 0 1 0.25 forward I I I I #
face $-1 $77 $78 $26 $-1 $79 forward single #
loop $-1 $80 $81 $33 #
cone-surface $-1 -52.756506271475303 9.1783547186979746 6.7729531810874333 0.68199836817093118 0 -0.7313536940579346 0.18283842351448365 0 0.17049959204273279 1 I I 0 1 0.25 forward I I I I #
face $-1 $82 $83 $27 $-1 $84 forward single #
loop $-1 $85 $86 $34 #
cone-surface $-1 -52.756506271475303 11.24892367005598 6.7729531810874333 0.68199836817093118 0 -0.7313536940579346 0.18283842351448365 0 0.17049959204273279 1 I I 0 1 0.25 forward I I I I #
face $-1 $87 $88 $21 $-1 $89 reversed single #
loop $-1 $-1 $90 $35 #
plane-surface $-1 0 0 -13.436999866193482 0 0 1 1 0 0 forward_v I I I I #
coedge $-1 $91 $92 $93 $94 forward $36 $-1 #
face $-1 $95 $96 $22 $-1 $97 reversed single #
loop $-1 $-1 $98 $38 #
plane-surface $-1 0 0 13.436999866193482 0 0 1 1 0 0 forward_v I I I I #
coedge $-1 $99 $100 $101 $102 forward $39 $-1 #
face $-1 $103 $104 $23 $-1 $105 reversed single #
loop $-1 $-1 $106 $41 #
plane-surface $-1 -36.86020929905159 19.938502718727001 0 1 0 0 0 0 -1 forward_v I I I I #
coedge $-1 $107 $108 $109 $110 forward $42 $-1 #
face $-1 $111 $112 $24 $-1 $113 reversed single #
loop $-1 $-1 $114 $44 #
plane-surface $-1 -59.851680043946644 9.1783547186979746 0.84026019003931651 -0.68199836817093118 0 0.7313536940579346 0.7313536940579346 0 0.68199836817093118 forward_v I I I I #
coedge $-1 $115 $116 $117 $118 reversed $45 $-1 #
face $-1 $-1 $119 $25 $-1 $120 forward single #
loop $-1 $121 $122 $47 #
cone-surface $-1 -52.330257291368468 7.1077857673399691 6.3158571223012245 0.68199836817093118 0 -0.7313536940579346 0.091419211757241825 0 0.085249796021366397 1 I I -0.70710678118654746 0.70710678118654746 0.125 forward I I I I #
loop $-1 $-1 $123 $32 #
coedge $-1 $76 $76 $124 $125 reversed $48 $-1 #
face $-1 $-1 $126 $26 $-1 $127 forward single #
loop $-1 $128 $129 $50 #
cone-surface $-1 -52.330257291368468 9.1783547186979746 6.3158571223012245 0.68199836817093118 0 -0.7313536940579346 0.091419211757241825 0 0.085249796021366397 1 I I -0.70710678118654746 0.70710678118654746 0.125 forward I I I I #
loop $-1 $-1 $130 $33 #
coedge $-1 $81 $81 $131 $132 reversed $51 $-1 #
face $-1 $-1 $133 $27 $-1 $134 forward single #
loop $-1 $135 $136 $53 #
cone-surface $-1 -52.330257291368468 11.24892367005598 6.3158571223012245 0.68199836817093118 0 -0.7313536940579346 0.091419211757241825 0 0.085249796021366397 1 I I -0.70710678118654746 0.70710678118654746 0.125 forward I I I I #
loop $-1 $-1 $137 $34 #
coedge $-1 $86 $86 $138 $139 reversed $54 $-1 #
face $-1 $140 $141 $21 $-1 $142 reversed single #
loop $-1 $-1 $143 $56 #
plane-surface $-1 0 -27.247702466492676 0 0 1 0 0 0 1 forward_v I I I I #
coedge $-1 $144 $145 $146 $147 forward $57 $-1 #
coedge $-1 $148 $59 $149 $150 forward $36 $-1 #
coedge $-1 $59 $148 $151 $152 forward $36 $-1 #
coedge $-1 $153 $154 $59 $94 reversed $155 $-1 #
edge $-1 $156 -27.247702466492676 $157 27.247702466492676 $93 $158 forward 7 unknown #
face $-1 $159 $160 $22 $-1 $161 reversed single #
loop $-1 $-1 $162 $60 #
plane-surface $-1 -59.851680043946658 0 0 1 0 0 0 0 -1 forward_v I I I I #
coedge $-1 $163 $164 $165 $166 forward $61 $-1 #
coedge $-1 $165 $63 $162 $167 reversed $39 $-1 #
coedge $-1 $63 $165 $168 $169 reversed $39 $-1 #
coedge $-1 $170 $171 $63 $102 reversed $160 $-1 #
edge $-1 $172 -59.851680043946658 $173 59.851680043946658 $101 $174 forward 7 unknown #
face $-1 $175 $176 $23 $-1 $177 reversed single #
loop $-1 $-1 $178 $64 #
plane-surface $-1 -32.977680311559695 19.938502718727001 0 -1 0 0 0 0 1 forward_v I I I I #
coedge $-1 $179 $180 $181 $182 reversed $65 $-1 #
coedge $-1 $183 $67 $184 $185 reversed $42 $-1 #
coedge $-1 $67 $183 $186 $187 reversed $42 $-1 #
coedge $-1 $180 $179 $67 $110 reversed $65 $-1 #
edge $-1 $188 -13.436999866193482 $189 13.436999866193482 $109 $190 forward 7 unknown #
face $-1 $191 $192 $24 $-1 $193 forward single #
loop $-1 $-1 $194 $68 #
plane-surface $-1 -141.48917628846726 12.629302970961312 88.385754781467227 0 -1 0 0.68199836817093118 0 -0.7313536940579346 forward_v I I I I #
coedge $-1 $195 $196 $197 $198 reversed $69 $-1 #
coedge $-1 $116 $71 $199 $200 reversed $45 $-1 #
coedge $-1 $71 $115 $195 $201 reversed $45 $-1 #
coedge $-1 $197 $202 $71 $118 forward $192 $-1 #
edge $-1 $203 10.892908100286974 $204 24.401257277058775 $117 $205 forward 7 unknown #
loop $-1 $-1 $124 $72 #
plane-surface $-1 -59.851680043946644 9.1783547186979746 0.84026019003931651 -0.68199836817093118 0 0.7313536940579346 0.7313536940579346 0 0.68199836817093118 forward_v I I I I #
loop $-1 $-1 $206 $47 #
coedge $-1 $122 $122 $123 $207 reversed $73 $-1 #
coedge $-1 $123 $123 $122 $207 forward $75 $-1 #
coedge $-1 $124 $124 $76 $125 forward $119 $-1 #
edge $-1 $208 0 $208 6.2831853071796004 $124 $209 forward 7 unknown #
loop $-1 $-1 $131 $77 #
plane-surface $-1 -59.851680043946644 9.1783547186979746 0.84026019003931651 -0.68199836817093118 0 0.7313536940579346 0.7313536940579346 0 0.68199836817093118 forward_v I I I I #
loop $-1 $-1 $210 $50 #
coedge $-1 $129 $129 $130 $211 reversed $78 $-1 #
coedge $-1 $130 $130 $129 $211 forward $80 $-1 #
coedge $-1 $131 $131 $81 $132 forward $126 $-1 #
edge $-1 $212 0 $212 6.2831853071796004 $131 $213 forward 7 unknown #
loop $-1 $-1 $138 $82 #
plane-surface $-1 -59.851680043946644 9.1783547186979746 0.84026019003931651 -0.68199836817093118 0 0.7313536940579346 0.7313536940579346 0 0.68199836817093118 forward_v I I I I #
loop $-1 $-1 $214 $53 #
coedge $-1 $136 $136 $137 $215 reversed $83 $-1 #
coedge $-1 $137 $137 $136 $215 forward $85 $-1 #
coedge $-1 $138 $138 $86 $139 forward $133 $-1 #
edge $-1 $216 0 $216 6.2831853071796004 $138 $217 forward 7 unknown #
face $-1 $218 $219 $21 $-1 $220 reversed single #
loop $-1 $-1 $221 $87 #
plane-surface $-1 -59.851680043946658 0 0 1 0 0 0 0 -1 forward_v I I I I #
coedge $-1 $222 $151 $223 $224 forward $88 $-1 #
coedge $-1 $225 $90 $222 $226 forward $57 $-1 #
coedge $-1 $90 $225 $227 $228 forward $57 $-1 #
coedge $-1 $154 $153 $90 $147 reversed $155 $-1 #
edge $-1 $229 -27.247702466492676 $230 27.247702466492676 $146 $231 forward 7 unknown #
coedge $-1 $92 $91 $232 $233 forward $36 $-1 #
coedge $-1 $234 $235 $91 $150 reversed $219 $-1 #
edge $-1 $157 -59.851680043946658 $236 59.851680043946658 $149 $237 forward 7 unknown #
coedge $-1 $143 $238 $92 $152 reversed $88 $-1 #
edge $-1 $239 -59.851680043946658 $156 59.851680043946658 $151 $240 forward 7 unknown #
coedge $-1 $146 $93 $238 $241 forward $155 $-1 #
coedge $-1 $93 $146 $234 $242 reversed $155 $-1 #
loop $-1 $-1 $153 $218 #
vertex $-1 $94 $243 #
vertex $-1 $94 $244 #
straight-curve $-1 59.851680043946658 0 13.436999866193482 0 1 0 I I #
face $-1 $245 $246 $22 $-1 $247 reversed single #
loop $-1 $-1 $170 $95 #
plane-surface $-1 0 -34.574088550034965 9.695373407282915 0 0 1 1 0 0 forward_v I I I I #
coedge $-1 $248 $249 $99 $167 forward $96 $-1 #
coedge $-1 $250 $98 $249 $251 forward $61 $-1 #
coedge $-1 $98 $250 $252 $253 forward $61 $-1 #
coedge $-1 $100 $99 $98 $166 reversed $39 $-1 #
edge $-1 $254 -59.851680043946658 $255 59.851680043946658 $98 $256 forward 7 unknown #
edge $-1 $255 -13.436999866193482 $173 -9.695373407282915 $162 $257 forward 7 unknown #
coedge $-1 $252 $258 $100 $169 forward $259 $-1 #
edge $-1 $172 9.695373407282915 $254 13.436999866193482 $168 $260 forward 7 unknown #
coedge $-1 $261 $101 $258 $262 forward $160 $-1 #
coedge $-1 $101 $261 $248 $263 forward $160 $-1 #
vertex $-1 $169 $264 #
vertex $-1 $167 $265 #
straight-curve $-1 0 -27.247702466492676 9.695373407282915 -1 0 0 I I #
face $-1 $266 $267 $23 $-1 $268 reversed single #
loop $-1 $-1 $269 $103 #
plane-surface $-1 0 27.247702466492676 0 0 -1 0 0 0 -1 forward_v I I I I #
coedge $-1 $270 $271 $183 $272 forward $104 $-1 #
coedge $-1 $109 $106 $273 $274 reversed $65 $-1 #
coedge $-1 $106 $109 $275 $276 reversed $65 $-1 #
coedge $-1 $277 $278 $106 $182 forward $176 $-1 #
edge $-1 $279 -13.436999866193482 $280 13.436999866193482 $181 $281 forward 7 unknown #
coedge $-1 $108 $107 $178 $272 reversed $42 $-1 #
coedge $-1 $273 $282 $107 $185 forward $267 $-1 #
edge $-1 $283 15.518207908906874 $189 19.400736896398769 $184 $284 forward 7 unknown #
coedge $-1 $285 $275 $108 $187 forward $286 $-1 #
edge $-1 $188 -19.400736896398769 $287 -15.518207908906874 $186 $288 forward 7 unknown #
vertex $-1 $187 $289 #
vertex $-1 $185 $290 #
straight-curve $-1 -36.86020929905159 12.629302970961323 0 0 0 -1 I I #
face $-1 $-1 $291 $24 $-1 $292 reversed single #
loop $-1 $-1 $117 $111 #
plane-surface $-1 0 0 13.436999866193482 0 0 1 1 0 0 forward_v I I I I #
coedge $-1 $293 $294 $295 $296 reversed $112 $-1 #
coedge $-1 $297 $114 $116 $201 forward $69 $-1 #
coedge $-1 $114 $297 $293 $298 forward $69 $-1 #
coedge $-1 $295 $117 $114 $198 forward $192 $-1 #
edge $-1 $204 1.1382291070856496 $299 8.040125611612325 $197 $300 forward 7 unknown #
coedge $-1 $301 $302 $115 $200 forward $291 $-1 #
edge $-1 $303 -43.352617200694311 $203 -30.755877524540132 $199 $304 forward 7 unknown #
edge $-1 $204 -18.470336974467671 $303 1.9403487555775418e-014 $116 $305 forward 7 unknown #
coedge $-1 $117 $295 $301 $306 forward $192 $-1 #
vertex $-1 $200 $307 #
vertex $-1 $118 $308 #
straight-curve $-1 -70.744588144233632 5.7274064664346369 13.436999866193482 1 0 0 I I #
coedge $-1 $206 $206 $-1 $309 reversed $121 $-1 #
edge $-1 $310 0 $310 6.2831853071796004 $122 $311 forward 7 unknown #
vertex $-1 $125 $312 #
ellipse-curve $-1 -53.097505455560757 7.1077857673399691 7.138630028116391 -0.68199836817093118 0 0.7313536940579346 0.18283842351448365 0 0.17049959204273279 1 I I #
coedge $-1 $210 $210 $-1 $313 reversed $128 $-1 #
edge $-1 $314 0 $314 6.2831853071796004 $129 $315 forward 7 unknown #
vertex $-1 $132 $316 #
ellipse-curve $-1 -53.097505455560757 9.1783547186979746 7.138630028116391 -0.68199836817093118 0 0.7313536940579346 0.18283842351448365 0 0.17049959204273279 1 I I #
coedge $-1 $214 $214 $-1 $317 reversed $135 $-1 #
edge $-1 $318 0 $318 6.2831853071796004 $136 $319 forward 7 unknown #
vertex $-1 $139 $320 #
ellipse-curve $-1 -53.097505455560757 11.24892367005598 7.138630028116391 -0.68199836817093118 0 0.7313536940579346 0.18283842351448365 0 0.17049959204273279 1 I I #
face $-1 $-1 $155 $21 $-1 $321 reversed single #
loop $-1 $-1 $234 $140 #
plane-surface $-1 0 27.247702466492676 0 0 -1 0 0 0 -1 forward_v I I I I #
coedge $-1 $322 $232 $235 $323 forward $141 $-1 #
coedge $-1 $238 $143 $144 $226 reversed $88 $-1 #
coedge $-1 $232 $322 $143 $224 reversed $141 $-1 #
edge $-1 $239 -13.436999866193482 $324 13.436999866193482 $223 $325 forward 7 unknown #
coedge $-1 $145 $144 $322 $326 forward $57 $-1 #
edge $-1 $230 -59.851680043946658 $324 59.851680043946658 $222 $327 forward 7 unknown #
coedge $-1 $235 $234 $145 $228 reversed $219 $-1 #
edge $-1 $328 -59.851680043946658 $229 59.851680043946658 $227 $329 forward 7 unknown #
vertex $-1 $147 $330 #
vertex $-1 $241 $331 #
straight-curve $-1 59.851680043946658 0 -13.436999866193482 0 -1 0 I I #
coedge $-1 $221 $223 $148 $233 reversed $141 $-1 #
edge $-1 $236 -27.247702466492676 $239 27.247702466492676 $232 $332 forward 7 unknown #
coedge $-1 $227 $149 $154 $242 forward $219 $-1 #
coedge $-1 $149 $227 $221 $323 reversed $219 $-1 #
vertex $-1 $150 $333 #
straight-curve $-1 0 27.247702466492676 13.436999866193482 -1 0 0 I I #
coedge $-1 $151 $222 $153 $241 reversed $88 $-1 #
vertex $-1 $233 $334 #
straight-curve $-1 0 -27.247702466492676 13.436999866193482 1 0 0 I I #
edge $-1 $156 -13.436999866193482 $230 13.436999866193482 $153 $335 forward 7 unknown #
edge $-1 $157 -13.436999866193482 $229 13.436999866193482 $154 $336 forward 7 unknown #
point $-1 59.851680043946658 -27.247702466492676 13.436999866193482 #
point $-1 59.851680043946658 27.247702466492676 13.436999866193482 #
face $-1 $-1 $259 $22 $-1 $337 reversed single #
loop $-1 $-1 $338 $159 #
plane-surface $-1 0 -41.900474633577254 11.566186636738198 0 1 0 0 0 1 forward_v I I I I #
coedge $-1 $339 $162 $171 $263 reversed $96 $-1 #
coedge $-1 $162 $339 $163 $251 reversed $96 $-1 #
coedge $-1 $164 $163 $340 $341 forward $61 $-1 #
edge $-1 $255 27.247702466492676 $342 41.900474633577254 $249 $343 forward 7 unknown #
coedge $-1 $344 $168 $164 $253 reversed $259 $-1 #
edge $-1 $345 -41.900474633577254 $254 -27.247702466492676 $252 $346 forward 7 unknown #
vertex $-1 $169 $347 #
vertex $-1 $251 $348 #
straight-curve $-1 0 -27.247702466492676 13.436999866193482 -1 0 0 I I #
straight-curve $-1 -59.851680043946658 -27.247702466492676 0 0 0 -1 I I #
coedge $-1 $168 $344 $170 $262 reversed $259 $-1 #
loop $-1 $-1 $168 $245 #
straight-curve $-1 59.851680043946658 -27.247702466492676 0 0 0 1 I I #
coedge $-1 $171 $170 $349 $350 forward $160 $-1 #
edge $-1 $172 -7.3263860835422889 $351 7.3263860835422889 $258 $352 forward 7 unknown #
edge $-1 $353 -7.3263860835422889 $173 7.3263860835422889 $248 $354 forward 7 unknown #
point $-1 59.851680043946658 -27.247702466492676 9.695373407282915 #
point $-1 -59.851680043946658 -27.247702466492676 9.695373407282915 #
face $-1 $-1 $286 $23 $-1 $355 forward single #
loop $-1 $-1 $282 $175 #
plane-surface $-1 0 0 -13.436999866193482 0 0 1 1 0 0 forward_v I I I I #
coedge $-1 $278 $277 $356 $357 forward $176 $-1 #
coedge $-1 $356 $178 $282 $358 reversed $104 $-1 #
coedge $-1 $178 $356 $285 $359 reversed $104 $-1 #
edge $-1 $287 -13.436999866193482 $283 13.436999866193482 $178 $360 forward 7 unknown #
coedge $-1 $361 $184 $179 $274 forward $267 $-1 #
edge $-1 $189 2.6600516115978223 $279 17.278451107129179 $273 $362 forward 7 unknown #
coedge $-1 $186 $363 $180 $276 forward $286 $-1 #
edge $-1 $280 -17.278451107129179 $188 -2.6600516115978223 $275 $364 forward 7 unknown #
coedge $-1 $269 $181 $363 $365 reversed $176 $-1 #
coedge $-1 $181 $269 $361 $366 reversed $176 $-1 #
vertex $-1 $366 $367 #
vertex $-1 $182 $368 #
straight-curve $-1 -36.86020929905159 27.247702466492676 0 0 0 1 I I #
coedge $-1 $184 $361 $270 $358 forward $267 $-1 #
vertex $-1 $185 $369 #
straight-curve $-1 -17.459472402652821 12.629302970961323 -13.436999866193482 -1 0 0 I I #
coedge $-1 $363 $186 $271 $359 forward $286 $-1 #
loop $-1 $-1 $285 $266 #
vertex $-1 $187 $370 #
straight-curve $-1 -17.459472402652821 12.629302970961323 13.436999866193482 1 0 0 I I #
point $-1 -36.86020929905159 12.629302970961323 13.436999866193482 #
point $-1 -36.86020929905159 12.629302970961323 -13.436999866193482 #
loop $-1 $-1 $199 $191 #
plane-surface $-1 -59.851680043946658 0 0 1 0 0 0 0 -1 forward_v I I I I #
coedge $-1 $294 $194 $196 $298 reversed $112 $-1 #
coedge $-1 $194 $293 $371 $372 reversed $112 $-1 #
coedge $-1 $202 $197 $194 $296 forward $192 $-1 #
edge $-1 $299 -24.401257277058775 $373 -10.892908100286974 $295 $374 forward 7 unknown #
coedge $-1 $196 $195 $302 $375 reversed $69 $-1 #
edge $-1 $376 -1.9403487555775418e-014 $299 18.470336974467671 $293 $377 forward 7 unknown #
vertex $-1 $198 $378 #
straight-curve $-1 -46.343330867174856 4.5891773593489873 13.436999866193482 0 1 0 I I #
coedge $-1 $371 $199 $202 $306 reversed $291 $-1 #
coedge $-1 $199 $371 $297 $375 forward $291 $-1 #
vertex $-1 $200 $379 #
straight-curve $-1 -59.851680043946658 5.7274064664346369 44.192877390733614 0 0 1 I I #
straight-curve $-1 -59.851680043946644 5.7274064664346369 0.84026019003931651 -0.7313536940579346 0 -0.68199836817093118 I I #
edge $-1 $373 -12.629302970961312 $203 -5.7274064664346369 $301 $380 forward 7 unknown #
point $-1 -59.851680043946658 5.7274064664346369 13.436999866193482 #
point $-1 -46.343330867174856 5.7274064664346369 13.436999866193482 #
edge $-1 $381 1 $381 0 $206 $-1 forward 7 unknown #
vertex $-1 $207 $382 #
ellipse-curve $-1 -52.415507087389834 7.1077857673399691 6.4072763340584666 -0.68199836817093118 0 0.7313536940579346 0.18283842351448365 0 0.17049959204273279 1 I I #
point $-1 -52.914667032046282 7.1077857673399691 7.3091296201591334 #
edge $-1 $383 1 $383 0 $210 $-1 forward 7 unknown #
vertex $-1 $211 $384 #
ellipse-curve $-1 -52.415507087389834 9.1783547186979746 6.4072763340584666 -0.68199836817093118 0 0.7313536940579346 0.18283842351448365 0 0.17049959204273279 1 I I #
point $-1 -52.914667032046282 9.1783547186979746 7.3091296201591334 #
edge $-1 $385 1 $385 0 $214 $-1 forward 7 unknown #
vertex $-1 $215 $386 #
ellipse-curve $-1 -52.415507087389834 11.24892367005598 6.4072763340584666 -0.68199836817093118 0 0.7313536940579346 0.18283842351448365 0 0.17049959204273279 1 I I #
point $-1 -52.914667032046282 11.24892367005598 7.3091296201591334 #
plane-surface $-1 59.851680043946658 0 0 -1 0 0 0 0 1 forward_v I I I I #
coedge $-1 $223 $221 $225 $326 reversed $141 $-1 #
edge $-1 $236 -13.436999866193482 $328 13.436999866193482 $235 $387 forward 7 unknown #
vertex $-1 $326 $388 #
straight-curve $-1 -59.851680043946658 -27.247702466492676 0 0 0 -1 I I #
edge $-1 $324 -27.247702466492676 $328 27.247702466492676 $322 $389 forward 7 unknown #
straight-curve $-1 0 -27.247702466492676 -13.436999866193482 -1 0 0 I I #
vertex $-1 $228 $390 #
straight-curve $-1 0 27.247702466492676 -13.436999866193482 1 0 0 I I #
point $-1 59.851680043946658 27.247702466492676 -13.436999866193482 #
point $-1 59.851680043946658 -27.247702466492676 -13.436999866193482 #
straight-curve $-1 -59.851680043946658 0 13.436999866193482 0 -1 0 I I #
point $-1 -59.851680043946658 27.247702466492676 13.436999866193482 #
point $-1 -59.851680043946658 -27.247702466492676 13.436999866193482 #
straight-curve $-1 59.851680043946658 -27.247702466492676 0 0 0 -1 I I #
straight-curve $-1 59.851680043946658 27.247702466492676 0 0 0 -1 I I #
plane-surface $-1 59.851680043946658 0 0 -1 0 0 0 0 1 forward_v I I I I #
coedge $-1 $349 $340 $339 $391 forward $246 $-1 #
coedge $-1 $249 $248 $338 $391 reversed $96 $-1 #
coedge $-1 $338 $392 $250 $341 reversed $246 $-1 #
edge $-1 $342 -59.851680043946658 $345 59.851680043946658 $340 $393 forward 7 unknown #
vertex $-1 $251 $394 #
straight-curve $-1 -59.851680043946658 0 13.436999866193482 0 -1 0 I I #
coedge $-1 $258 $252 $392 $395 forward $259 $-1 #
vertex $-1 $253 $396 #
straight-curve $-1 59.851680043946658 0 13.436999866193482 0 1 0 I I #
point $-1 59.851680043946658 -27.247702466492676 13.436999866193482 #
point $-1 -59.851680043946658 -27.247702466492676 13.436999866193482 #
coedge $-1 $392 $338 $261 $350 reversed $246 $-1 #
edge $-1 $351 -59.851680043946658 $353 59.851680043946658 $349 $397 forward 7 unknown #
vertex $-1 $395 $398 #
straight-curve $-1 59.851680043946658 -34.574088550034965 9.695373407282915 0 -1 0 I I #
vertex $-1 $263 $399 #
straight-curve $-1 -59.851680043946658 -34.574088550034965 9.695373407282915 0 1 0 I I #
plane-surface $-1 0 0 13.436999866193482 0 0 1 1 0 0 forward_v I I I I #
coedge $-1 $271 $270 $269 $357 reversed $104 $-1 #
edge $-1 $400 -13.436999866193482 $401 13.436999866193482 $269 $402 forward 7 unknown #
edge $-1 $401 -17.278451107129179 $283 -2.6600516115978223 $282 $403 forward 7 unknown #
edge $-1 $287 2.6600516115978223 $400 17.278451107129179 $285 $404 forward 7 unknown #
straight-curve $-1 -32.977680311559695 12.629302970961323 0 0 0 -1 I I #
coedge $-1 $282 $273 $278 $366 forward $267 $-1 #
straight-curve $-1 -36.86020929905159 9.9692513593635006 -13.436999866193482 0 1 0 I I #
coedge $-1 $275 $285 $277 $365 forward $286 $-1 #
straight-curve $-1 -36.86020929905159 9.9692513593635006 13.436999866193482 0 -1 0 I I #
edge $-1 $400 32.977680311559695 $280 36.86020929905159 $277 $405 forward 7 unknown #
edge $-1 $279 -36.86020929905159 $401 -32.977680311559695 $278 $406 forward 7 unknown #
point $-1 -36.86020929905159 27.247702466492679 -13.436999866193482 #
point $-1 -36.86020929905159 27.247702466492679 13.436999866193482 #
point $-1 -32.977680311559695 12.629302970961323 -13.436999866193482 #
point $-1 -32.977680311559695 12.629302970961323 13.436999866193482 #
coedge $-1 $302 $301 $294 $372 forward $291 $-1 #
edge $-1 $373 30.755877524540132 $376 43.352617200694311 $371 $407 forward 7 unknown #
vertex $-1 $306 $408 #
straight-curve $-1 -70.744588144233632 12.629302970961312 13.436999866193482 -1 0 0 I I #
edge $-1 $376 -8.040125611612325 $303 -1.1382291070856496 $302 $409 forward 7 unknown #
vertex $-1 $375 $410 #
straight-curve $-1 -59.851680043946644 12.629302970961312 0.84026019003931651 0.7313536940579346 0 0.68199836817093118 I I #
point $-1 -46.343330867174856 12.629302970961312 13.436999866193482 #
point $-1 -59.851680043946658 5.7274064664346369 0.8402601900393033 #
straight-curve $-1 -59.851680043946658 0 13.436999866193482 0 -1 0 I I #
vertex $-1 $309 $411 #
point $-1 -52.232668663875351 7.1077857673399691 6.5777759261011992 #
vertex $-1 $313 $412 #
point $-1 -52.232668663875351 9.1783547186979746 6.5777759261011992 #
vertex $-1 $317 $413 #
point $-1 -52.232668663875351 11.24892367005598 6.5777759261011992 #
straight-curve $-1 -59.851680043946658 27.247702466492676 0 0 0 -1 I I #
point $-1 -59.851680043946658 -27.247702466492676 -13.436999866193482 #
straight-curve $-1 -59.851680043946658 0 -13.436999866193482 0 1 0 I I #
point $-1 -59.851680043946658 27.247702466492676 -13.436999866193482 #
edge $-1 $342 -1.8708132294552833 $353 1.8708132294552833 $339 $414 forward 7 unknown #
coedge $-1 $340 $349 $344 $395 reversed $246 $-1 #
straight-curve $-1 0 -41.900474633577254 13.436999866193482 1 0 0 I I #
point $-1 -59.851680043946658 -41.900474633577254 13.436999866193482 #
edge $-1 $345 -1.8708132294552833 $351 1.8708132294552833 $344 $415 forward 7 unknown #
point $-1 59.851680043946658 -41.900474633577254 13.436999866193482 #
straight-curve $-1 0 -41.900474633577254 9.695373407282915 -1 0 0 I I #
point $-1 59.851680043946658 -41.900474633577254 9.695373407282915 #
point $-1 -59.851680043946658 -41.900474633577254 9.695373407282915 #
vertex $-1 $365 $416 #
vertex $-1 $357 $417 #
straight-curve $-1 -32.977680311559695 27.247702466492676 0 0 0 -1 I I #
straight-curve $-1 -32.977680311559695 9.9692513593635006 -13.436999866193482 0 -1 0 I I #
straight-curve $-1 -32.977680311559695 9.9692513593635006 13.436999866193482 0 1 0 I I #
straight-curve $-1 0 27.247702466492676 13.436999866193482 -1 0 0 I I #
straight-curve $-1 0 27.247702466492676 -13.436999866193482 1 0 0 I I #
straight-curve $-1 -59.851680043946658 12.629302970961312 44.192877390733614 0 0 -1 I I #
point $-1 -59.851680043946658 12.629302970961312 13.436999866193482 #
straight-curve $-1 -59.851680043946658 4.5891773593489873 0.84026019003930441 0 -1 0 I I #
point $-1 -59.851680043946658 12.629302970961312 0.8402601900393033 #
point $-1 -52.245007495347103 7.1077857673399691 6.2244379105439824 #
point $-1 -52.245007495347103 9.1783547186979746 6.2244379105439824 #
point $-1 -52.245007495347103 11.24892367005598 6.2244379105439824 #
straight-curve $-1 -59.851680043946658 -41.900474633577254 11.566186636738198 0 0 -1 I I #
straight-curve $-1 59.851680043946658 -41.900474633577254 11.566186636738198 0 0 -1 I I #
point $-1 -32.977680311559695 27.247702466492679 13.436999866193482 #
point $-1 -32.977680311559695 27.247702466492679 -13.436999866193482 #
End-of-ACIS-data 