500 0 9 0           
7 Unknown 11 ACIS 5.0 NT 24 Fri Mar 26 19:04:09 1999 
-1 9.9999999999999995e-007 1e-010 
body $-1 $9 $-1 $10 #
body $-1 $11 $-1 $12 #
body $-1 $13 $-1 $14 #
body $-1 $15 $-1 $16 #
body $-1 $17 $-1 $18 #
body $-1 $19 $-1 $20 #
body $-1 $21 $-1 $22 #
body $-1 $23 $-1 $24 #
body $-1 $25 $-1 $26 #
lump $-1 $-1 $27 $0 #
transform $-1 1 0 0 0 1 0 0 0 1 49.267860957670827 29.242408332629203 11.797986942880279 1 rotate no_reflect no_shear #
lump $-1 $-1 $28 $1 #
transform $-1 1 0 0 0 1 0 0 0 1 49.267860957670827 29.242408332629203 11.797986942880279 1 rotate no_reflect no_shear #
lump $-1 $-1 $29 $2 #
transform $-1 1 0 0 0 1 0 0 0 1 49.267860957670827 29.242408332629203 11.797986942880279 1 rotate no_reflect no_shear #
lump $-1 $-1 $30 $3 #
transform $-1 1 0 0 0 1 0 0 0 1 49.267860957670827 29.242408332629203 11.797986942880279 1 rotate no_reflect no_shear #
lump $-1 $-1 $31 $4 #
transform $-1 1 0 0 0 1 0 0 0 1 49.267860957670827 29.242408332629203 11.797986942880279 1 rotate no_reflect no_shear #
lump $-1 $-1 $32 $5 #
transform $-1 1 0 0 0 1 0 0 0 1 49.267860957670827 29.242408332629203 11.797986942880279 1 rotate no_reflect no_shear #
lump $-1 $-1 $33 $6 #
transform $-1 1 0 0 0 1 0 0 0 1 49.267860957670827 29.242408332629203 11.797986942880279 1 rotate no_reflect no_shear #
lump $-1 $-1 $34 $7 #
transform $-1 1 0 0 0 1 0 0 0 1 49.267860957670827 29.242408332629203 11.797986942880279 1 rotate no_reflect no_shear #
lump $-1 $-1 $35 $8 #
transform $-1 1 0 0 0 1 0 0 0 1 49.267860957670827 29.242408332629203 11.797986942880279 1 rotate no_reflect no_shear #
shell $-1 $-1 $-1 $36 $-1 $9 #
shell $-1 $-1 $-1 $37 $-1 $11 #
shell $-1 $-1 $-1 $38 $-1 $13 #
shell $-1 $-1 $-1 $39 $-1 $15 #
shell $-1 $-1 $-1 $40 $-1 $17 #
shell $-1 $-1 $-1 $41 $-1 $19 #
shell $-1 $-1 $-1 $42 $-1 $21 #
shell $-1 $-1 $-1 $43 $-1 $23 #
shell $-1 $-1 $-1 $44 $-1 $25 #
face $-1 $45 $46 $27 $-1 $47 forward single #
face $-1 $48 $49 $28 $-1 $50 reversed single #
face $-1 $51 $52 $29 $-1 $53 reversed single #
face $-1 $54 $55 $30 $-1 $56 reversed single #
face $-1 $57 $58 $31 $-1 $59 forward single #
face $-1 $60 $61 $32 $-1 $62 forward single #
face $-1 $63 $64 $33 $-1 $65 reversed single #
face $-1 $66 $67 $34 $-1 $68 forward single #
face $-1 $69 $70 $35 $-1 $71 forward single #
face $-1 $72 $73 $27 $-1 $74 reversed single #
loop $-1 $-1 $75 $36 #
plane-surface $-1 0 0 11.797986942880279 0 0 1 1 0 0 forward_v I I I I #
face $-1 $76 $77 $28 $-1 $78 reversed single #
loop $-1 $-1 $79 $37 #
plane-surface $-1 -40.051132468640816 -23.928593861373603 0 1 0 0 0 0 -1 forward_v I I I I #
face $-1 $80 $81 $29 $-1 $82 reversed single #
loop $-1 $-1 $83 $38 #
plane-surface $-1 -37.704965205281269 18.614779390118006 0 0 1 0 0 0 1 forward_v I I I I #
face $-1 $84 $85 $30 $-1 $86 reversed single #
loop $-1 $-1 $87 $39 #
plane-surface $-1 -49.267860957670834 -15.131141653252399 4.3526769716797986 -0.52991927123019833 0 0.84804809178421925 0.84804809178421925 0 0.52991927123019833 forward_v I I I I #
face $-1 $88 $89 $31 $-1 $90 forward single #
loop $-1 $91 $92 $40 #
cone-surface $-1 -43.045408118269435 -16.624129254766228 7.6513079113879297 0.52991927123019833 0 -0.84804809178421925 0.21201202294605481 0 0.13247981780754958 1 I I 0 1 0.25 forward I I I I #
face $-1 $93 $94 $32 $-1 $95 forward single #
loop $-1 $96 $97 $41 #
cone-surface $-1 -43.045408118269435 -13.638154051738567 7.6513079113879297 0.52991927123019833 0 -0.84804809178421925 0.21201202294605481 0 0.13247981780754958 1 I I 0 1 0.25 forward I I I I #
face $-1 $98 $99 $33 $-1 $100 reversed single #
loop $-1 $-1 $101 $42 #
plane-surface $-1 -101.48383890519017 11.647503916386803 87.915707914565758 0 1 0 -0.52991927123019833 0 0.84804809178421925 forward_v I I I I #
face $-1 $102 $103 $34 $-1 $104 forward single #
loop $-1 $105 $106 $43 #
cone-surface $-1 -43.045408118269435 13.638154051738574 7.6513079113879297 0.52991927123019833 0 -0.84804809178421925 0.21201202294605481 0 0.13247981780754958 1 I I 0 1 0.25 forward I I I I #
face $-1 $107 $108 $35 $-1 $109 forward single #
loop $-1 $110 $111 $44 #
cone-surface $-1 -43.045408118269435 16.624129254766238 7.6513079113879297 0.52991927123019833 0 -0.84804809178421925 0.21201202294605481 0 0.13247981780754958 1 I I 0 1 0.25 forward I I I I #
face $-1 $112 $113 $27 $-1 $114 reversed single #
loop $-1 $-1 $115 $45 #
plane-surface $-1 0 0 -11.797986942880279 0 0 1 1 0 0 forward_v I I I I #
coedge $-1 $116 $117 $118 $119 forward $46 $-1 #
face $-1 $120 $121 $28 $-1 $122 reversed single #
loop $-1 $-1 $123 $48 #
plane-surface $-1 -37.704965205281269 -18.614779390118002 0 0 -1 0 0 0 -1 forward_v I I I I #
coedge $-1 $124 $125 $126 $127 forward $49 $-1 #
face $-1 $128 $129 $29 $-1 $130 reversed single #
loop $-1 $-1 $131 $51 #
plane-surface $-1 -40.051132468640816 23.928593861373606 0 1 0 0 0 0 -1 forward_v I I I I #
coedge $-1 $132 $133 $134 $135 forward $52 $-1 #
face $-1 $136 $137 $30 $-1 $138 forward single #
loop $-1 $-1 $139 $54 #
plane-surface $-1 -101.48383890519017 -11.647503916386796 87.915707914565758 0 -1 0 0.52991927123019833 0 -0.84804809178421925 forward_v I I I I #
coedge $-1 $140 $141 $142 $143 reversed $55 $-1 #
face $-1 $-1 $144 $31 $-1 $145 forward single #
loop $-1 $146 $147 $57 #
cone-surface $-1 -42.714208573750561 -16.624129254766228 7.121277854022793 0.52991927123019833 0 -0.84804809178421925 0.10600601147302741 0 0.066239908903774791 1 I I -0.70710678118654746 0.70710678118654746 0.125 forward I I I I #
loop $-1 $-1 $148 $40 #
coedge $-1 $92 $92 $149 $150 reversed $58 $-1 #
face $-1 $-1 $151 $32 $-1 $152 forward single #
loop $-1 $153 $154 $60 #
cone-surface $-1 -42.714208573750561 -13.638154051738567 7.121277854022793 0.52991927123019833 0 -0.84804809178421925 0.10600601147302741 0 0.066239908903774791 1 I I -0.70710678118654746 0.70710678118654746 0.125 forward I I I I #
loop $-1 $-1 $155 $41 #
coedge $-1 $97 $97 $156 $157 reversed $61 $-1 #
face $-1 $158 $159 $33 $-1 $160 forward single #
loop $-1 $-1 $161 $63 #
plane-surface $-1 -49.267860957670834 15.131141653252406 4.3526769716797986 -0.52991927123019833 0 0.84804809178421925 0.84804809178421925 0 0.52991927123019833 forward_v I I I I #
coedge $-1 $162 $163 $164 $165 reversed $64 $-1 #
face $-1 $-1 $166 $34 $-1 $167 forward single #
loop $-1 $168 $169 $66 #
cone-surface $-1 -42.714208573750561 13.638154051738574 7.121277854022793 0.52991927123019833 0 -0.84804809178421925 0.10600601147302741 0 0.066239908903774791 1 I I -0.70710678118654746 0.70710678118654746 0.125 forward I I I I #
loop $-1 $-1 $170 $43 #
coedge $-1 $106 $106 $171 $172 reversed $67 $-1 #
face $-1 $-1 $173 $35 $-1 $174 forward single #
loop $-1 $175 $176 $69 #
cone-surface $-1 -42.714208573750561 16.624129254766238 7.121277854022793 0.52991927123019833 0 -0.84804809178421925 0.10600601147302741 0 0.066239908903774791 1 I I -0.70710678118654746 0.70710678118654746 0.125 forward I I I I #
loop $-1 $-1 $177 $44 #
coedge $-1 $111 $111 $178 $179 reversed $70 $-1 #
face $-1 $180 $181 $27 $-1 $182 reversed single #
loop $-1 $-1 $183 $72 #
plane-surface $-1 0 -29.242408332629203 0 0 1 0 0 0 1 forward_v I I I I #
coedge $-1 $184 $185 $186 $187 forward $73 $-1 #
coedge $-1 $188 $75 $189 $190 forward $46 $-1 #
coedge $-1 $75 $188 $191 $192 forward $46 $-1 #
coedge $-1 $193 $194 $75 $119 reversed $195 $-1 #
edge $-1 $196 -29.242408332629203 $197 29.242408332629203 $118 $198 forward 7 unknown #
face $-1 $199 $200 $28 $-1 $201 forward single #
loop $-1 $-1 $202 $76 #
plane-surface $-1 -35.358797941921722 -23.928593861373603 0 -1 0 0 0 0 1 forward_v I I I I #
coedge $-1 $203 $126 $204 $205 reversed $77 $-1 #
coedge $-1 $206 $79 $207 $208 reversed $49 $-1 #
coedge $-1 $79 $206 $209 $210 reversed $49 $-1 #
coedge $-1 $123 $211 $79 $127 reversed $77 $-1 #
edge $-1 $212 -11.797986942880279 $213 11.797986942880279 $126 $214 forward 7 unknown #
face $-1 $215 $216 $29 $-1 $217 reversed single #
loop $-1 $-1 $218 $80 #
plane-surface $-1 -35.358797941921722 23.928593861373606 0 -1 0 0 0 0 1 forward_v I I I I #
coedge $-1 $219 $220 $221 $222 reversed $81 $-1 #
coedge $-1 $223 $83 $224 $225 reversed $52 $-1 #
coedge $-1 $83 $223 $226 $227 reversed $52 $-1 #
coedge $-1 $220 $219 $83 $135 reversed $81 $-1 #
edge $-1 $228 -11.797986942880279 $229 11.797986942880279 $134 $230 forward 7 unknown #
face $-1 $231 $232 $30 $-1 $233 forward single #
loop $-1 $-1 $234 $84 #
plane-surface $-1 -37.704965205281269 -18.614779390118002 0 0 -1 0 0 0 -1 forward_v I I I I #
coedge $-1 $235 $236 $237 $238 reversed $85 $-1 #
coedge $-1 $239 $87 $234 $240 reversed $55 $-1 #
coedge $-1 $87 $239 $235 $241 forward $55 $-1 #
coedge $-1 $237 $242 $87 $143 forward $232 $-1 #
edge $-1 $243 -11.049208563491803 $244 -4.0819330897605965 $142 $245 forward 7 unknown #
loop $-1 $-1 $149 $88 #
plane-surface $-1 -49.267860957670834 -15.131141653252399 4.3526769716797986 -0.52991927123019833 0 0.84804809178421925 0.84804809178421925 0 0.52991927123019833 forward_v I I I I #
loop $-1 $-1 $246 $57 #
coedge $-1 $147 $147 $148 $247 reversed $89 $-1 #
coedge $-1 $148 $148 $147 $247 forward $91 $-1 #
coedge $-1 $149 $149 $92 $150 forward $144 $-1 #
edge $-1 $248 0 $248 6.2831853071796004 $149 $249 forward 7 unknown #
loop $-1 $-1 $156 $93 #
plane-surface $-1 -49.267860957670834 -15.131141653252399 4.3526769716797986 -0.52991927123019833 0 0.84804809178421925 0.84804809178421925 0 0.52991927123019833 forward_v I I I I #
loop $-1 $-1 $250 $60 #
coedge $-1 $154 $154 $155 $251 reversed $94 $-1 #
coedge $-1 $155 $155 $154 $251 forward $96 $-1 #
coedge $-1 $156 $156 $97 $157 forward $151 $-1 #
edge $-1 $252 0 $252 6.2831853071796004 $156 $253 forward 7 unknown #
face $-1 $254 $255 $33 $-1 $256 reversed single #
loop $-1 $-1 $257 $98 #
plane-surface $-1 -37.704965205281269 18.614779390118006 0 0 1 0 0 0 1 forward_v I I I I #
coedge $-1 $258 $259 $260 $261 reversed $99 $-1 #
coedge $-1 $163 $101 $262 $263 reversed $64 $-1 #
coedge $-1 $101 $162 $258 $264 reversed $64 $-1 #
coedge $-1 $260 $265 $101 $165 forward $266 $-1 #
edge $-1 $267 1.4740584949242574 $268 13.389044902496842 $164 $269 forward 7 unknown #
loop $-1 $-1 $171 $102 #
plane-surface $-1 -49.267860957670834 15.131141653252406 4.3526769716797986 -0.52991927123019833 0 0.84804809178421925 0.84804809178421925 0 0.52991927123019833 forward_v I I I I #
loop $-1 $-1 $270 $66 #
coedge $-1 $169 $169 $170 $271 reversed $103 $-1 #
coedge $-1 $170 $170 $169 $271 forward $105 $-1 #
coedge $-1 $171 $171 $106 $172 forward $166 $-1 #
edge $-1 $272 0 $272 6.2831853071796004 $171 $273 forward 7 unknown #
loop $-1 $-1 $178 $107 #
plane-surface $-1 -49.267860957670834 15.131141653252406 4.3526769716797986 -0.52991927123019833 0 0.84804809178421925 0.84804809178421925 0 0.52991927123019833 forward_v I I I I #
loop $-1 $-1 $274 $69 #
coedge $-1 $176 $176 $177 $275 reversed $108 $-1 #
coedge $-1 $177 $177 $176 $275 forward $110 $-1 #
coedge $-1 $178 $178 $111 $179 forward $173 $-1 #
edge $-1 $276 0 $276 6.2831853071796004 $178 $277 forward 7 unknown #
face $-1 $278 $279 $27 $-1 $280 reversed single #
loop $-1 $-1 $281 $112 #
plane-surface $-1 -49.267860957670827 0 0 1 0 0 0 0 -1 forward_v I I I I #
coedge $-1 $282 $191 $283 $284 forward $113 $-1 #
coedge $-1 $285 $115 $282 $286 forward $73 $-1 #
coedge $-1 $115 $285 $287 $288 forward $73 $-1 #
coedge $-1 $194 $193 $115 $187 reversed $195 $-1 #
edge $-1 $289 -29.242408332629203 $290 29.242408332629203 $186 $291 forward 7 unknown #
coedge $-1 $117 $116 $292 $293 forward $46 $-1 #
coedge $-1 $294 $295 $116 $190 reversed $279 $-1 #
edge $-1 $197 -49.267860957670827 $296 49.267860957670827 $189 $297 forward 7 unknown #
coedge $-1 $183 $298 $117 $192 reversed $113 $-1 #
edge $-1 $299 -49.267860957670827 $196 49.267860957670827 $191 $300 forward 7 unknown #
coedge $-1 $186 $118 $298 $301 forward $195 $-1 #
coedge $-1 $118 $186 $294 $302 reversed $195 $-1 #
loop $-1 $-1 $193 $278 #
vertex $-1 $119 $303 #
vertex $-1 $119 $304 #
straight-curve $-1 49.267860957670827 0 11.797986942880279 0 1 0 I I #
face $-1 $305 $306 $28 $-1 $307 reversed single #
loop $-1 $-1 $308 $120 #
plane-surface $-1 0 0 11.797986942880279 0 0 1 1 0 0 forward_v I I I I #
coedge $-1 $309 $310 $311 $312 reversed $121 $-1 #
coedge $-1 $211 $123 $313 $314 forward $77 $-1 #
coedge $-1 $209 $308 $123 $205 forward $200 $-1 #
edge $-1 $315 16.506315339281088 $212 21.198649866000181 $204 $316 forward 7 unknown #
coedge $-1 $125 $124 $317 $318 reversed $49 $-1 #
coedge $-1 $319 $320 $124 $208 forward $306 $-1 #
edge $-1 $321 -17.278111401942404 $213 -6.6504824594312009 $207 $322 forward 7 unknown #
coedge $-1 $323 $204 $125 $210 forward $200 $-1 #
edge $-1 $212 6.6504824594312009 $324 17.278111401942404 $209 $325 forward 7 unknown #
coedge $-1 $126 $203 $319 $326 reversed $77 $-1 #
vertex $-1 $210 $327 #
vertex $-1 $208 $328 #
straight-curve $-1 -40.051132468640816 -18.614779390118002 0 0 0 -1 I I #
face $-1 $329 $330 $29 $-1 $331 forward single #
loop $-1 $-1 $332 $128 #
plane-surface $-1 0 0 -11.797986942880279 0 0 1 1 0 0 forward_v I I I I #
coedge $-1 $333 $334 $223 $335 forward $129 $-1 #
coedge $-1 $134 $131 $336 $337 reversed $81 $-1 #
coedge $-1 $131 $134 $338 $339 reversed $81 $-1 #
coedge $-1 $340 $341 $131 $222 forward $342 $-1 #
edge $-1 $343 -11.797986942880279 $344 11.797986942880279 $221 $345 forward 7 unknown #
coedge $-1 $133 $132 $218 $335 reversed $52 $-1 #
coedge $-1 $336 $332 $132 $225 forward $216 $-1 #
edge $-1 $346 16.506315339281088 $229 21.198649866000181 $224 $347 forward 7 unknown #
coedge $-1 $348 $338 $133 $227 forward $330 $-1 #
edge $-1 $228 -21.198649866000181 $349 -16.506315339281088 $226 $350 forward 7 unknown #
vertex $-1 $227 $351 #
vertex $-1 $225 $352 #
straight-curve $-1 -40.051132468640816 18.614779390118006 0 0 0 -1 I I #
face $-1 $-1 $353 $30 $-1 $354 reversed single #
loop $-1 $-1 $242 $136 #
plane-surface $-1 0 0 11.797986942880279 0 0 1 1 0 0 forward_v I I I I #
coedge $-1 $355 $356 $140 $240 forward $137 $-1 #
coedge $-1 $236 $139 $141 $241 reversed $85 $-1 #
coedge $-1 $139 $235 $357 $358 reversed $85 $-1 #
coedge $-1 $359 $142 $139 $238 forward $232 $-1 #
edge $-1 $244 -13.389044902496842 $360 -1.4740584949242574 $237 $361 forward 7 unknown #
coedge $-1 $141 $140 $362 $363 reversed $55 $-1 #
edge $-1 $364 -3.7496621347903885 $243 10.300232585807937 $234 $365 forward 7 unknown #
edge $-1 $366 8.3790584163743152e-015 $244 14.049894720598333 $235 $367 forward 7 unknown #
coedge $-1 $142 $359 $355 $368 forward $232 $-1 #
vertex $-1 $143 $369 #
vertex $-1 $143 $370 #
straight-curve $-1 -37.352874550098242 -7.5655708266261996 11.797986942880279 0 1 0 I I #
coedge $-1 $246 $246 $-1 $371 reversed $146 $-1 #
edge $-1 $372 0 $372 6.2831853071796004 $147 $373 forward 7 unknown #
vertex $-1 $150 $374 #
ellipse-curve $-1 -43.310367753884535 -16.624129254766228 8.0753319572800404 -0.52991927123019833 0 0.84804809178421925 0.21201202294605481 0 0.13247981780754958 1 I I #
coedge $-1 $250 $250 $-1 $375 reversed $153 $-1 #
edge $-1 $376 0 $376 6.2831853071796004 $154 $377 forward 7 unknown #
vertex $-1 $157 $378 #
ellipse-curve $-1 -43.310367753884535 -13.638154051738567 8.0753319572800404 -0.52991927123019833 0 0.84804809178421925 0.21201202294605481 0 0.13247981780754958 1 I I #
face $-1 $-1 $266 $33 $-1 $379 forward single #
loop $-1 $-1 $380 $158 #
plane-surface $-1 -49.267860957670827 0 0 1 0 0 0 0 -1 forward_v I I I I #
coedge $-1 $381 $382 $259 $383 forward $159 $-1 #
coedge $-1 $384 $161 $163 $264 forward $99 $-1 #
coedge $-1 $161 $384 $257 $383 reversed $99 $-1 #
coedge $-1 $385 $164 $161 $261 forward $266 $-1 #
edge $-1 $268 4.0819330897606001 $386 11.049208563491803 $260 $387 forward 7 unknown #
coedge $-1 $388 $389 $162 $263 forward $255 $-1 #
edge $-1 $390 -39.605176985603073 $267 -32.1598670144026 $262 $391 forward 7 unknown #
edge $-1 $268 -14.049894720598333 $390 -8.3790584163743152e-015 $163 $392 forward 7 unknown #
coedge $-1 $164 $385 $388 $393 forward $266 $-1 #
loop $-1 $-1 $260 $254 #
vertex $-1 $263 $394 #
vertex $-1 $165 $395 #
straight-curve $-1 -50.741919452595084 11.647503916386803 11.797986942880279 1 0 0 I I #
coedge $-1 $270 $270 $-1 $396 reversed $168 $-1 #
edge $-1 $397 0 $397 6.2831853071796004 $169 $398 forward 7 unknown #
vertex $-1 $172 $399 #
ellipse-curve $-1 -43.310367753884535 13.638154051738574 8.0753319572800404 -0.52991927123019833 0 0.84804809178421925 0.21201202294605481 0 0.13247981780754958 1 I I #
coedge $-1 $274 $274 $-1 $400 reversed $175 $-1 #
edge $-1 $401 0 $401 6.2831853071796004 $176 $402 forward 7 unknown #
vertex $-1 $179 $403 #
ellipse-curve $-1 -43.310367753884535 16.624129254766238 8.0753319572800404 -0.52991927123019833 0 0.84804809178421925 0.21201202294605481 0 0.13247981780754958 1 I I #
face $-1 $-1 $195 $27 $-1 $404 reversed single #
loop $-1 $-1 $294 $180 #
plane-surface $-1 0 29.242408332629203 0 0 -1 0 0 0 -1 forward_v I I I I #
coedge $-1 $405 $292 $295 $406 forward $181 $-1 #
coedge $-1 $298 $183 $184 $286 reversed $113 $-1 #
coedge $-1 $292 $405 $183 $284 reversed $181 $-1 #
edge $-1 $299 -11.797986942880279 $407 11.797986942880279 $283 $408 forward 7 unknown #
coedge $-1 $185 $184 $405 $409 forward $73 $-1 #
edge $-1 $290 -49.267860957670827 $407 49.267860957670827 $282 $410 forward 7 unknown #
coedge $-1 $295 $294 $185 $288 reversed $279 $-1 #
edge $-1 $411 -49.267860957670827 $289 49.267860957670827 $287 $412 forward 7 unknown #
vertex $-1 $187 $413 #
vertex $-1 $301 $414 #
straight-curve $-1 49.267860957670827 0 -11.797986942880279 0 -1 0 I I #
coedge $-1 $281 $283 $188 $293 reversed $181 $-1 #
edge $-1 $296 -29.242408332629203 $299 29.242408332629203 $292 $415 forward 7 unknown #
coedge $-1 $287 $189 $194 $302 forward $279 $-1 #
coedge $-1 $189 $287 $281 $406 reversed $279 $-1 #
vertex $-1 $190 $416 #
straight-curve $-1 0 29.242408332629203 11.797986942880279 -1 0 0 I I #
coedge $-1 $191 $282 $193 $301 reversed $113 $-1 #
vertex $-1 $293 $417 #
straight-curve $-1 0 -29.242408332629203 11.797986942880279 1 0 0 I I #
edge $-1 $196 -11.797986942880279 $290 11.797986942880279 $193 $418 forward 7 unknown #
edge $-1 $197 -11.797986942880279 $289 11.797986942880279 $194 $419 forward 7 unknown #
point $-1 49.267860957670827 -29.242408332629203 11.797986942880279 #
point $-1 49.267860957670827 29.242408332629203 11.797986942880279 #
face $-1 $-1 $420 $28 $-1 $421 reversed single #
loop $-1 $-1 $422 $199 #
plane-surface $-1 0 0 -11.797986942880279 0 0 1 1 0 0 forward_v I I I I #
coedge $-1 $204 $323 $310 $423 forward $200 $-1 #
coedge $-1 $313 $202 $422 $424 reversed $121 $-1 #
coedge $-1 $202 $313 $308 $423 reversed $121 $-1 #
coedge $-1 $425 $426 $202 $312 forward $420 $-1 #
edge $-1 $427 -11.797986942880279 $428 11.797986942880279 $311 $429 forward 7 unknown #
coedge $-1 $310 $309 $203 $314 reversed $121 $-1 #
edge $-1 $315 -11.797986942880279 $430 11.797986942880279 $313 $431 forward 7 unknown #
vertex $-1 $205 $432 #
straight-curve $-1 -18.852482602640634 -18.614779390118002 11.797986942880279 -1 0 0 I I #
coedge $-1 $426 $425 $206 $318 forward $420 $-1 #
edge $-1 $324 -11.797986942880279 $321 11.797986942880279 $317 $433 forward 7 unknown #
coedge $-1 $422 $207 $211 $326 forward $306 $-1 #
coedge $-1 $207 $422 $426 $434 forward $306 $-1 #
vertex $-1 $208 $435 #
straight-curve $-1 -40.051132468640816 -11.964296930686801 -11.797986942880279 0 1 0 I I #
coedge $-1 $308 $209 $425 $436 forward $200 $-1 #
vertex $-1 $436 $437 #
straight-curve $-1 -40.051132468640816 -11.964296930686801 11.797986942880279 0 -1 0 I I #
edge $-1 $213 -21.198649866000181 $430 -16.506315339281088 $319 $438 forward 7 unknown #
point $-1 -40.051132468640816 -18.614779390118002 11.797986942880279 #
point $-1 -40.051132468640816 -18.614779390118002 -11.797986942880279 #
face $-1 $-1 $342 $29 $-1 $439 reversed single #
loop $-1 $-1 $348 $215 #
plane-surface $-1 0 0 11.797986942880279 0 0 1 1 0 0 forward_v I I I I #
coedge $-1 $224 $440 $333 $441 forward $216 $-1 #
coedge $-1 $442 $218 $332 $441 reversed $129 $-1 #
coedge $-1 $218 $442 $348 $443 reversed $129 $-1 #
edge $-1 $349 -11.797986942880279 $346 11.797986942880279 $218 $444 forward 7 unknown #
coedge $-1 $440 $224 $219 $337 forward $216 $-1 #
edge $-1 $229 6.6504824594312026 $343 17.278111401942404 $336 $445 forward 7 unknown #
coedge $-1 $226 $446 $220 $339 forward $330 $-1 #
edge $-1 $344 -17.278111401942404 $228 -6.6504824594312026 $338 $447 forward 7 unknown #
coedge $-1 $448 $221 $446 $449 reversed $342 $-1 #
coedge $-1 $221 $448 $440 $450 reversed $342 $-1 #
loop $-1 $-1 $448 $329 #
vertex $-1 $450 $451 #
vertex $-1 $222 $452 #
straight-curve $-1 -40.051132468640816 29.242408332629203 0 0 0 1 I I #
vertex $-1 $225 $453 #
straight-curve $-1 -18.852482602640634 18.614779390118006 -11.797986942880279 -1 0 0 I I #
coedge $-1 $446 $226 $334 $443 forward $330 $-1 #
vertex $-1 $227 $454 #
straight-curve $-1 -18.852482602640634 18.614779390118006 11.797986942880279 1 0 0 I I #
point $-1 -40.051132468640816 18.614779390118006 11.797986942880279 #
point $-1 -40.051132468640816 18.614779390118006 -11.797986942880279 #
loop $-1 $-1 $455 $231 #
plane-surface $-1 -49.267860957670827 0 0 1 0 0 0 0 -1 forward_v I I I I #
coedge $-1 $356 $234 $242 $368 reversed $137 $-1 #
coedge $-1 $234 $355 $455 $456 reversed $137 $-1 #
coedge $-1 $362 $457 $236 $358 forward $353 $-1 #
edge $-1 $360 32.1598670144026 $366 39.605176985603073 $357 $458 forward 7 unknown #
coedge $-1 $242 $237 $457 $459 forward $232 $-1 #
vertex $-1 $459 $460 #
straight-curve $-1 -50.741919452595084 -11.647503916386796 11.797986942880279 -1 0 0 I I #
coedge $-1 $455 $357 $239 $363 forward $353 $-1 #
edge $-1 $366 4.0819330897605965 $364 11.049208563491803 $362 $461 forward 7 unknown #
vertex $-1 $456 $462 #
straight-curve $-1 -46.087967139426297 -18.614779390118002 6.339695197507397 0.84804809178421925 0 0.52991927123019833 I I #
vertex $-1 $363 $463 #
straight-curve $-1 -49.267860957670834 -11.647503916386796 4.3526769716797986 0.84804809178421925 0 0.52991927123019833 I I #
edge $-1 $464 1.4740584949242574 $243 13.389044902496842 $242 $465 forward 7 unknown #
point $-1 -37.352874550098242 -18.614779390118002 11.797986942880279 #
point $-1 -37.352874550098242 -11.647503916386796 11.797986942880279 #
edge $-1 $466 1 $466 0 $246 $-1 forward 7 unknown #
vertex $-1 $247 $467 #
ellipse-curve $-1 -42.780448482654336 -16.624129254766228 7.2272838654958207 -0.52991927123019833 0 0.84804809178421925 0.21201202294605481 0 0.13247981780754958 1 I I #
point $-1 -43.098355730938479 -16.624129254766228 8.2078117750875883 #
edge $-1 $468 1 $468 0 $250 $-1 forward 7 unknown #
vertex $-1 $251 $469 #
ellipse-curve $-1 -42.780448482654336 -13.638154051738567 7.2272838654958207 -0.52991927123019833 0 0.84804809178421925 0.21201202294605481 0 0.13247981780754958 1 I I #
point $-1 -43.098355730938479 -13.638154051738567 8.2078117750875883 #
plane-surface $-1 0 0 11.797986942880279 0 0 1 1 0 0 forward_v I I I I #
coedge $-1 $389 $388 $381 $470 forward $255 $-1 #
coedge $-1 $382 $257 $380 $470 reversed $159 $-1 #
coedge $-1 $257 $381 $385 $471 reversed $159 $-1 #
edge $-1 $386 -10.300232585807942 $472 3.7496621347903885 $257 $473 forward 7 unknown #
coedge $-1 $259 $258 $389 $474 reversed $99 $-1 #
coedge $-1 $265 $260 $382 $471 forward $266 $-1 #
vertex $-1 $471 $475 #
straight-curve $-1 -37.352874550098242 7.5655708266262032 11.797986942880279 0 1 0 I I #
coedge $-1 $380 $262 $265 $393 reversed $255 $-1 #
coedge $-1 $262 $380 $384 $474 forward $255 $-1 #
vertex $-1 $263 $476 #
straight-curve $-1 -49.267860957670827 11.647503916386803 43.957853957282879 0 0 1 I I #
straight-curve $-1 -49.267860957670834 11.647503916386803 4.3526769716797986 -0.84804809178421925 0 -0.52991927123019833 I I #
edge $-1 $477 -18.614779390118009 $267 -11.647503916386803 $388 $478 forward 7 unknown #
point $-1 -49.267860957670827 11.647503916386803 11.797986942880279 #
point $-1 -37.352874550098242 11.647503916386803 11.797986942880279 #
edge $-1 $479 1 $479 0 $270 $-1 forward 7 unknown #
vertex $-1 $271 $480 #
ellipse-curve $-1 -42.780448482654336 13.638154051738574 7.2272838654958207 -0.52991927123019833 0 0.84804809178421925 0.21201202294605481 0 0.13247981780754958 1 I I #
point $-1 -43.098355730938479 13.638154051738574 8.2078117750875883 #
edge $-1 $481 1 $481 0 $274 $-1 forward 7 unknown #
vertex $-1 $275 $482 #
ellipse-curve $-1 -42.780448482654336 16.624129254766238 7.2272838654958207 -0.52991927123019833 0 0.84804809178421925 0.21201202294605481 0 0.13247981780754958 1 I I #
point $-1 -43.098355730938479 16.624129254766238 8.2078117750875883 #
plane-surface $-1 49.267860957670827 0 0 -1 0 0 0 0 1 forward_v I I I I #
coedge $-1 $283 $281 $285 $409 reversed $181 $-1 #
edge $-1 $296 -11.797986942880279 $411 11.797986942880279 $295 $483 forward 7 unknown #
vertex $-1 $409 $484 #
straight-curve $-1 -49.267860957670827 -29.242408332629203 0 0 0 -1 I I #
edge $-1 $407 -29.242408332629203 $411 29.242408332629203 $405 $485 forward 7 unknown #
straight-curve $-1 0 -29.242408332629203 -11.797986942880279 -1 0 0 I I #
vertex $-1 $288 $486 #
straight-curve $-1 0 29.242408332629203 -11.797986942880279 1 0 0 I I #
point $-1 49.267860957670827 29.242408332629203 -11.797986942880279 #
point $-1 49.267860957670827 -29.242408332629203 -11.797986942880279 #
straight-curve $-1 -49.267860957670827 0 11.797986942880279 0 -1 0 I I #
point $-1 -49.267860957670827 29.242408332629203 11.797986942880279 #
point $-1 -49.267860957670827 -29.242408332629203 11.797986942880279 #
straight-curve $-1 49.267860957670827 -29.242408332629203 0 0 0 -1 I I #
straight-curve $-1 49.267860957670827 29.242408332629203 0 0 0 -1 I I #
loop $-1 $-1 $311 $305 #
plane-surface $-1 0 -29.242408332629203 0 0 1 0 0 0 1 forward_v I I I I #
coedge $-1 $320 $319 $309 $424 forward $306 $-1 #
edge $-1 $428 -17.278111401942404 $315 -6.6504824594312009 $308 $487 forward 7 unknown #
edge $-1 $430 6.6504824594312009 $427 17.278111401942404 $422 $488 forward 7 unknown #
coedge $-1 $317 $311 $323 $436 reversed $420 $-1 #
coedge $-1 $311 $317 $320 $434 reversed $420 $-1 #
vertex $-1 $434 $489 #
vertex $-1 $312 $490 #
straight-curve $-1 -35.358797941921722 -29.242408332629203 0 0 0 1 I I #
vertex $-1 $326 $491 #
straight-curve $-1 -35.358797941921722 -18.614779390118002 0 0 0 -1 I I #
point $-1 -35.358797941921722 -18.614779390118002 11.797986942880279 #
straight-curve $-1 -40.051132468640816 -29.242408332629203 0 0 0 -1 I I #
edge $-1 $427 35.358797941921722 $321 40.051132468640816 $426 $492 forward 7 unknown #
point $-1 -40.051132468640816 -29.242408332629203 -11.797986942880279 #
edge $-1 $324 -40.051132468640816 $428 -35.358797941921722 $425 $493 forward 7 unknown #
point $-1 -40.051132468640816 -29.242408332629203 11.797986942880279 #
straight-curve $-1 -18.852482602640634 -18.614779390118002 -11.797986942880279 1 0 0 I I #
plane-surface $-1 0 29.242408332629203 0 0 -1 0 0 0 -1 forward_v I I I I #
coedge $-1 $332 $336 $341 $450 forward $216 $-1 #
edge $-1 $494 -17.278111401942404 $346 -6.6504824594312026 $332 $495 forward 7 unknown #
coedge $-1 $334 $333 $448 $496 reversed $129 $-1 #
edge $-1 $349 6.6504824594312026 $497 17.278111401942404 $348 $498 forward 7 unknown #
straight-curve $-1 -35.358797941921722 18.614779390118006 0 0 0 -1 I I #
straight-curve $-1 -40.051132468640816 11.964296930686803 -11.797986942880279 0 1 0 I I #
coedge $-1 $338 $348 $340 $449 forward $330 $-1 #
straight-curve $-1 -40.051132468640816 11.964296930686803 11.797986942880279 0 -1 0 I I #
coedge $-1 $341 $340 $442 $496 forward $342 $-1 #
edge $-1 $497 35.358797941921722 $344 40.051132468640816 $340 $499 forward 7 unknown #
edge $-1 $343 -40.051132468640816 $494 -35.358797941921722 $341 $500 forward 7 unknown #
point $-1 -40.051132468640816 29.242408332629207 -11.797986942880279 #
point $-1 -40.051132468640816 29.242408332629207 11.797986942880279 #
point $-1 -35.358797941921722 18.614779390118006 -11.797986942880279 #
point $-1 -35.358797941921722 18.614779390118006 11.797986942880279 #
coedge $-1 $457 $362 $356 $456 forward $353 $-1 #
edge $-1 $364 -39.605176985603073 $464 -32.1598670144026 $455 $501 forward 7 unknown #
coedge $-1 $357 $455 $359 $459 reversed $353 $-1 #
straight-curve $-1 -49.267860957670827 -11.647503916386796 43.957853957282879 0 0 -1 I I #
edge $-1 $360 11.647503916386796 $464 18.614779390118002 $457 $502 forward 7 unknown #
point $-1 -49.267860957670827 -11.647503916386796 11.797986942880279 #
straight-curve $-1 -49.267860957670827 -7.5655708266261996 4.3526769716798048 0 -1 0 I I #
point $-1 -49.267860957670827 -18.614779390118002 4.3526769716798031 #
point $-1 -49.267860957670827 -11.647503916386796 4.3526769716798031 #
vertex $-1 $456 $503 #
straight-curve $-1 -50.741919452595084 -18.614779390118002 11.797986942880279 1 0 0 I I #
vertex $-1 $371 $504 #
point $-1 -42.56843645970828 -16.624129254766228 7.3597636833033704 #
vertex $-1 $375 $505 #
point $-1 -42.56843645970828 -13.638154051738567 7.3597636833033704 #
edge $-1 $477 32.1598670144026 $472 39.605176985603073 $380 $506 forward 7 unknown #
edge $-1 $386 18.500391947457601 $477 30.415378355030192 $385 $507 forward 7 unknown #
vertex $-1 $474 $508 #
straight-curve $-1 -46.087967139426297 18.614779390118006 6.339695197507397 -0.84804809178421925 0 -0.52991927123019833 I I #
edge $-1 $472 -11.049208563491806 $390 -4.0819330897606001 $389 $509 forward 7 unknown #
point $-1 -37.352874550098235 18.614779390118006 11.797986942880279 #
point $-1 -49.267860957670827 11.647503916386803 4.3526769716798031 #
vertex $-1 $393 $510 #
straight-curve $-1 -49.267860957670827 0 11.797986942880279 0 -1 0 I I #
vertex $-1 $396 $511 #
point $-1 -42.56843645970828 13.638154051738574 7.3597636833033704 #
vertex $-1 $400 $512 #
point $-1 -42.56843645970828 16.624129254766238 7.3597636833033704 #
straight-curve $-1 -49.267860957670827 29.242408332629203 0 0 0 -1 I I #
point $-1 -49.267860957670827 -29.242408332629203 -11.797986942880279 #
straight-curve $-1 -49.267860957670827 0 -11.797986942880279 0 1 0 I I #
point $-1 -49.267860957670827 29.242408332629203 -11.797986942880279 #
straight-curve $-1 -35.358797941921722 -11.964296930686801 11.797986942880279 0 1 0 I I #
straight-curve $-1 -35.358797941921722 -11.964296930686801 -11.797986942880279 0 -1 0 I I #
point $-1 -35.358797941921722 -29.242408332629203 -11.797986942880279 #
point $-1 -35.358797941921722 -29.242408332629203 11.797986942880279 #
point $-1 -35.358797941921722 -18.614779390118002 -11.797986942880279 #
straight-curve $-1 0 -29.242408332629203 -11.797986942880279 -1 0 0 I I #
straight-curve $-1 0 -29.242408332629203 11.797986942880279 1 0 0 I I #
vertex $-1 $496 $513 #
straight-curve $-1 -35.358797941921722 11.964296930686803 -11.797986942880279 0 -1 0 I I #
edge $-1 $497 -11.797986942880279 $494 11.797986942880279 $448 $514 forward 7 unknown #
vertex $-1 $449 $515 #
straight-curve $-1 -35.358797941921722 11.964296930686803 11.797986942880279 0 1 0 I I #
straight-curve $-1 0 29.242408332629203 11.797986942880279 -1 0 0 I I #
straight-curve $-1 0 29.242408332629203 -11.797986942880279 1 0 0 I I #
straight-curve $-1 -49.267860957670827 -18.614779390118002 43.957853957282879 0 0 1 I I #
straight-curve $-1 -49.267860957670827 0 11.797986942880279 0 -1 0 I I #
point $-1 -49.267860957670827 -18.614779390118002 11.797986942880279 #
point $-1 -42.647968664846786 -16.624129254766228 7.0152718425497653 #
point $-1 -42.647968664846786 -13.638154051738567 7.0152718425497653 #
straight-curve $-1 -49.267860957670827 18.614779390118009 43.957853957282879 0 0 -1 I I #
straight-curve $-1 -18.852482602640634 18.614779390118006 11.797986942880279 -1 0 0 I I #
point $-1 -49.267860957670827 18.614779390118009 4.3526769716798031 #
straight-curve $-1 -49.267860957670827 7.5655708266262032 4.3526769716798048 0 -1 0 I I #
point $-1 -49.267860957670827 18.614779390118009 11.797986942880279 #
point $-1 -42.647968664846786 13.638154051738574 7.0152718425497653 #
point $-1 -42.647968664846786 16.624129254766238 7.0152718425497653 #
point $-1 -35.358797941921722 29.242408332629207 -11.797986942880279 #
straight-curve $-1 -35.358797941921722 29.242408332629203 0 0 0 -1 I I #
point $-1 -35.358797941921722 29.242408332629207 11.797986942880279 #
End-of-ACIS-data 