500 0 9 0           
7 Unknown 11 ACIS 5.0 NT 24 Fri Mar 26 18:26:57 1999 
-1 9.9999999999999995e-007 1e-010 
body $-1 $9 $-1 $10 #
body $-1 $11 $-1 $12 #
body $-1 $13 $-1 $14 #
body $-1 $15 $-1 $16 #
body $-1 $17 $-1 $18 #
body $-1 $19 $-1 $20 #
body $-1 $21 $-1 $22 #
body $-1 $23 $-1 $24 #
body $-1 $25 $-1 $26 #
lump $-1 $-1 $27 $0 #
transform $-1 1 0 0 0 1 0 0 0 1 52.038941618091371 26.700628744163314 6.9325317881967781 1 rotate no_reflect no_shear #
lump $-1 $-1 $28 $1 #
transform $-1 1 0 0 0 1 0 0 0 1 52.038941618091371 26.700628744163314 6.9325317881967781 1 rotate no_reflect no_shear #
lump $-1 $-1 $29 $2 #
transform $-1 1 0 0 0 1 0 0 0 1 52.038941618091371 26.700628744163314 6.9325317881967781 1 rotate no_reflect no_shear #
lump $-1 $-1 $30 $3 #
transform $-1 1 0 0 0 1 0 0 0 1 52.038941618091371 26.700628744163314 6.9325317881967781 1 rotate no_reflect no_shear #
lump $-1 $-1 $31 $4 #
transform $-1 1 0 0 0 1 0 0 0 1 52.038941618091371 26.700628744163314 6.9325317881967781 1 rotate no_reflect no_shear #
lump $-1 $-1 $32 $5 #
transform $-1 1 0 0 0 1 0 0 0 1 52.038941618091371 26.700628744163314 6.9325317881967781 1 rotate no_reflect no_shear #
lump $-1 $-1 $33 $6 #
transform $-1 1 0 0 0 1 0 0 0 1 52.038941618091371 26.700628744163314 6.9325317881967781 1 rotate no_reflect no_shear #
lump $-1 $-1 $34 $7 #
transform $-1 1 0 0 0 1 0 0 0 1 52.038941618091371 26.700628744163314 6.9325317881967781 1 rotate no_reflect no_shear #
lump $-1 $-1 $35 $8 #
transform $-1 1 0 0 0 1 0 0 0 1 52.038941618091371 26.700628744163314 6.9325317881967781 1 rotate no_reflect no_shear #
shell $-1 $-1 $-1 $36 $-1 $9 #
shell $-1 $-1 $-1 $37 $-1 $11 #
shell $-1 $-1 $-1 $38 $-1 $13 #
shell $-1 $-1 $-1 $39 $-1 $15 #
shell $-1 $-1 $-1 $40 $-1 $17 #
shell $-1 $-1 $-1 $41 $-1 $19 #
shell $-1 $-1 $-1 $42 $-1 $21 #
shell $-1 $-1 $-1 $43 $-1 $23 #
shell $-1 $-1 $-1 $44 $-1 $25 #
face $-1 $45 $46 $27 $-1 $47 forward single #
face $-1 $48 $49 $28 $-1 $50 forward single #
face $-1 $51 $52 $29 $-1 $53 reversed single #
face $-1 $54 $55 $30 $-1 $56 forward single #
face $-1 $57 $58 $31 $-1 $59 forward single #
face $-1 $60 $61 $32 $-1 $62 reversed single #
face $-1 $63 $64 $33 $-1 $65 forward single #
face $-1 $66 $67 $34 $-1 $68 forward single #
face $-1 $69 $70 $35 $-1 $71 forward single #
face $-1 $72 $73 $27 $-1 $74 reversed single #
loop $-1 $-1 $75 $36 #
plane-surface $-1 0 0 6.9325317881967781 0 0 1 1 0 0 forward_v I I I I #
face $-1 $76 $77 $28 $-1 $78 reversed single #
loop $-1 $-1 $79 $37 #
plane-surface $-1 0 -24.214050800497816 -1.4559193472628058 0 0 1 1 0 0 forward_v I I I I #
face $-1 $80 $81 $29 $-1 $82 reversed single #
loop $-1 $-1 $83 $38 #
plane-surface $-1 -142.17303327778217 -21.727472856832321 54.534532313427974 0 1 0 -0.86602541151947299 0 0.49999998660252726 forward_v I I I I #
face $-1 $84 $85 $30 $-1 $86 forward single #
loop $-1 $87 $88 $39 #
cone-surface $-1 -49.778592506182434 -19.292374158703673 4.1485387142651922 0.86602541151947299 0 -0.49999998660252726 0.49999998660252726 0 0.86602541151947299 1 I I 0 1 1 forward I I I I #
face $-1 $89 $90 $31 $-1 $91 forward single #
loop $-1 $92 $93 $40 #
cone-surface $-1 -49.778592506182434 -15.639726111510695 4.1485387142651922 0.86602541151947299 0 -0.49999998660252726 0.49999998660252726 0 0.86602541151947299 1 I I 0 1 1 forward I I I I #
face $-1 $94 $95 $32 $-1 $96 reversed single #
loop $-1 $-1 $97 $41 #
plane-surface $-1 39.210632812281233 21.987397641559937 147.92009957661801 0 -1 0 -0.64278761758704617 0 -0.76604443648966558 forward_v I I I I #
face $-1 $98 $99 $33 $-1 $100 forward single #
loop $-1 $101 $102 $42 #
cone-surface $-1 47.711445974675016 11.683935108529159 2.9605483770957837 -0.64278761758704617 0 -0.76604443648966558 0.76604443648966558 0 -0.64278761758704617 1 I I 0 1 1 forward I I I I #
face $-1 $103 $104 $34 $-1 $105 forward single #
loop $-1 $106 $107 $43 #
cone-surface $-1 47.711445974675016 15.547733558415704 2.9605483770957837 -0.64278761758704617 0 -0.76604443648966558 0.76604443648966558 0 -0.64278761758704617 1 I I 0 1 1 forward I I I I #
face $-1 $108 $109 $35 $-1 $110 forward single #
loop $-1 $111 $112 $44 #
cone-surface $-1 47.711445974675016 19.411532008302249 2.9605483770957837 -0.64278761758704617 0 -0.76604443648966558 0.76604443648966558 0 -0.64278761758704617 1 I I 0 1 1 forward I I I I #
face $-1 $113 $114 $27 $-1 $115 reversed single #
loop $-1 $-1 $116 $45 #
plane-surface $-1 0 0 -6.9325317881967781 0 0 1 1 0 0 forward_v I I I I #
coedge $-1 $117 $118 $119 $120 forward $46 $-1 #
face $-1 $121 $122 $28 $-1 $123 reversed single #
loop $-1 $-1 $124 $48 #
plane-surface $-1 0 -24.214050800497816 -4.4559193472628058 0 0 1 1 0 0 forward_v I I I I #
coedge $-1 $125 $126 $127 $128 reversed $49 $-1 #
face $-1 $129 $130 $29 $-1 $131 reversed single #
loop $-1 $-1 $132 $51 #
plane-surface $-1 -52.038941618091343 -17.466050135107182 2.4955920897172064 -0.86602541151947299 0 0.49999998660252726 0.49999998660252726 0 0.86602541151947299 forward_v I I I I #
coedge $-1 $133 $134 $135 $136 reversed $52 $-1 #
face $-1 $-1 $137 $30 $-1 $138 forward single #
loop $-1 $139 $140 $54 #
cone-surface $-1 -48.366064807401571 -19.292374158703673 3.333015496272127 0.86602541151947299 0 -0.49999998660252726 0.24999999330126363 0 0.43301270575973649 1 I I -0.70710678118654746 0.70710678118654746 0.5 forward I I I I #
loop $-1 $-1 $141 $39 #
coedge $-1 $88 $88 $142 $143 reversed $55 $-1 #
face $-1 $-1 $144 $31 $-1 $145 forward single #
loop $-1 $146 $147 $57 #
cone-surface $-1 -48.366064807401571 -15.639726111510695 3.333015496272127 0.86602541151947299 0 -0.49999998660252726 0.24999999330126363 0 0.43301270575973649 1 I I -0.70710678118654746 0.70710678118654746 0.5 forward I I I I #
loop $-1 $-1 $148 $40 #
coedge $-1 $93 $93 $149 $150 reversed $58 $-1 #
face $-1 $151 $152 $32 $-1 $153 reversed single #
loop $-1 $-1 $154 $60 #
plane-surface $-1 -27.689341796607437 15.547733558415697 68.191816161919192 0.64278761758704617 0 0.76604443648966558 0.76604443648966558 0 -0.64278761758704617 forward_v I I I I #
coedge $-1 $155 $156 $157 $158 reversed $61 $-1 #
face $-1 $-1 $159 $33 $-1 $160 forward single #
loop $-1 $161 $162 $63 #
cone-surface $-1 46.423712878301103 11.683935108529159 1.4258878653331077 -0.64278761758704617 0 -0.76604443648966558 0.38302221824483279 0 -0.32139380879352308 1 I I -0.70710678118654746 0.70710678118654746 0.5 forward I I I I #
loop $-1 $-1 $163 $42 #
coedge $-1 $102 $102 $164 $165 reversed $64 $-1 #
face $-1 $-1 $166 $34 $-1 $167 forward single #
loop $-1 $168 $169 $66 #
cone-surface $-1 46.423712878301103 15.547733558415704 1.4258878653331077 -0.64278761758704617 0 -0.76604443648966558 0.38302221824483279 0 -0.32139380879352308 1 I I -0.70710678118654746 0.70710678118654746 0.5 forward I I I I #
loop $-1 $-1 $170 $43 #
coedge $-1 $107 $107 $171 $172 reversed $67 $-1 #
face $-1 $-1 $173 $35 $-1 $174 forward single #
loop $-1 $175 $176 $69 #
cone-surface $-1 46.423712878301103 19.411532008302249 1.4258878653331077 -0.64278761758704617 0 -0.76604443648966558 0.38302221824483279 0 -0.32139380879352308 1 I I -0.70710678118654746 0.70710678118654746 0.5 forward I I I I #
loop $-1 $-1 $177 $44 #
coedge $-1 $112 $112 $178 $179 reversed $70 $-1 #
face $-1 $180 $181 $27 $-1 $182 reversed single #
loop $-1 $-1 $183 $72 #
plane-surface $-1 0 -26.700628744163314 0 0 1 0 0 0 1 forward_v I I I I #
coedge $-1 $184 $185 $186 $187 forward $73 $-1 #
coedge $-1 $188 $75 $189 $190 forward $46 $-1 #
coedge $-1 $75 $188 $191 $192 forward $46 $-1 #
coedge $-1 $193 $194 $75 $120 reversed $195 $-1 #
edge $-1 $196 -26.700628744163314 $197 26.700628744163314 $119 $198 forward 7 unknown #
face $-1 $199 $200 $28 $-1 $201 reversed single #
loop $-1 $-1 $202 $76 #
plane-surface $-1 0 -21.727472856832321 -2.9559193472628058 0 -1 0 0 0 -1 forward_v I I I I #
coedge $-1 $203 $204 $205 $206 reversed $77 $-1 #
coedge $-1 $207 $79 $208 $209 forward $49 $-1 #
coedge $-1 $79 $207 $210 $211 reversed $49 $-1 #
coedge $-1 $212 $213 $79 $128 forward $214 $-1 #
edge $-1 $215 9.6204474565834133 $216 14.593603343914403 $127 $217 forward 7 unknown #
face $-1 $218 $219 $29 $-1 $220 reversed single #
loop $-1 $-1 $221 $80 #
plane-surface $-1 -142.17303327778217 -13.204627413382044 54.534532313427974 0 -1 0 0.86602541151947299 0 -0.49999998660252726 forward_v I I I I #
coedge $-1 $222 $223 $224 $225 reversed $81 $-1 #
coedge $-1 $134 $83 $226 $227 reversed $52 $-1 #
coedge $-1 $83 $133 $222 $228 reversed $52 $-1 #
coedge $-1 $224 $229 $83 $136 forward $230 $-1 #
edge $-1 $231 19.047575020799712 $232 21.609243258575376 $135 $233 forward 7 unknown #
loop $-1 $-1 $142 $84 #
plane-surface $-1 -52.038941618091343 -17.466050135107182 2.4955920897172064 -0.86602541151947299 0 0.49999998660252726 0.49999998660252726 0 0.86602541151947299 forward_v I I I I #
loop $-1 $-1 $234 $54 #
coedge $-1 $140 $140 $141 $235 reversed $85 $-1 #
coedge $-1 $141 $141 $140 $235 forward $87 $-1 #
coedge $-1 $142 $142 $88 $143 forward $137 $-1 #
edge $-1 $236 0 $236 6.2831853071796004 $142 $237 forward 7 unknown #
loop $-1 $-1 $149 $89 #
plane-surface $-1 -52.038941618091343 -17.466050135107182 2.4955920897172064 -0.86602541151947299 0 0.49999998660252726 0.49999998660252726 0 0.86602541151947299 forward_v I I I I #
loop $-1 $-1 $238 $57 #
coedge $-1 $147 $147 $148 $239 reversed $90 $-1 #
coedge $-1 $148 $148 $147 $239 forward $92 $-1 #
coedge $-1 $149 $149 $93 $150 forward $144 $-1 #
edge $-1 $240 0 $240 6.2831853071796004 $149 $241 forward 7 unknown #
face $-1 $242 $243 $32 $-1 $244 forward single #
loop $-1 $-1 $245 $94 #
plane-surface $-1 39.210632812281233 9.1080694752714564 147.92009957661801 0 1 0 0.64278761758704617 0 0.76604443648966558 forward_v I I I I #
coedge $-1 $246 $247 $248 $249 reversed $95 $-1 #
coedge $-1 $156 $97 $250 $251 reversed $61 $-1 #
coedge $-1 $97 $155 $246 $252 reversed $61 $-1 #
coedge $-1 $248 $253 $97 $158 forward $243 $-1 #
edge $-1 $254 -32.433625211950755 $255 -25.711312500278865 $157 $256 forward 7 unknown #
loop $-1 $-1 $164 $98 #
plane-surface $-1 -27.689341796607437 15.547733558415697 68.191816161919192 0.64278761758704617 0 0.76604443648966558 0.76604443648966558 0 -0.64278761758704617 forward_v I I I I #
loop $-1 $-1 $257 $63 #
coedge $-1 $162 $162 $163 $258 reversed $99 $-1 #
coedge $-1 $163 $163 $162 $258 forward $101 $-1 #
coedge $-1 $164 $164 $102 $165 forward $159 $-1 #
edge $-1 $259 0 $259 6.2831853071796004 $164 $260 forward 7 unknown #
loop $-1 $-1 $171 $103 #
plane-surface $-1 -27.689341796607437 15.547733558415697 68.191816161919192 0.64278761758704617 0 0.76604443648966558 0.76604443648966558 0 -0.64278761758704617 forward_v I I I I #
loop $-1 $-1 $261 $66 #
coedge $-1 $169 $169 $170 $262 reversed $104 $-1 #
coedge $-1 $170 $170 $169 $262 forward $106 $-1 #
coedge $-1 $171 $171 $107 $172 forward $166 $-1 #
edge $-1 $263 0 $263 6.2831853071796004 $171 $264 forward 7 unknown #
loop $-1 $-1 $178 $108 #
plane-surface $-1 -27.689341796607437 15.547733558415697 68.191816161919192 0.64278761758704617 0 0.76604443648966558 0.76604443648966558 0 -0.64278761758704617 forward_v I I I I #
loop $-1 $-1 $265 $69 #
coedge $-1 $176 $176 $177 $266 reversed $109 $-1 #
coedge $-1 $177 $177 $176 $266 forward $111 $-1 #
coedge $-1 $178 $178 $112 $179 forward $173 $-1 #
edge $-1 $267 0 $267 6.2831853071796004 $178 $268 forward 7 unknown #
face $-1 $269 $270 $27 $-1 $271 reversed single #
loop $-1 $-1 $272 $113 #
plane-surface $-1 -52.038941618091371 0 0 1 0 0 0 0 -1 forward_v I I I I #
coedge $-1 $273 $191 $274 $275 forward $114 $-1 #
coedge $-1 $276 $116 $273 $277 forward $73 $-1 #
coedge $-1 $116 $276 $278 $279 forward $73 $-1 #
coedge $-1 $194 $193 $116 $187 reversed $195 $-1 #
edge $-1 $280 -26.700628744163314 $281 26.700628744163314 $186 $282 forward 7 unknown #
coedge $-1 $118 $117 $283 $284 forward $46 $-1 #
coedge $-1 $285 $286 $117 $190 reversed $270 $-1 #
edge $-1 $197 -52.038941618091371 $287 52.038941618091371 $189 $288 forward 7 unknown #
coedge $-1 $183 $289 $118 $192 reversed $114 $-1 #
edge $-1 $290 -52.038941618091371 $196 52.038941618091371 $191 $291 forward 7 unknown #
coedge $-1 $186 $119 $289 $292 forward $195 $-1 #
coedge $-1 $119 $186 $285 $293 reversed $195 $-1 #
loop $-1 $-1 $193 $269 #
vertex $-1 $120 $294 #
vertex $-1 $120 $295 #
straight-curve $-1 52.038941618091371 0 6.9325317881967781 0 1 0 I I #
face $-1 $296 $297 $28 $-1 $298 reversed single #
loop $-1 $-1 $299 $121 #
plane-surface $-1 -52.038941618091371 0 0 1 0 0 0 0 -1 forward_v I I I I #
coedge $-1 $300 $208 $213 $301 reversed $122 $-1 #
coedge $-1 $302 $124 $303 $304 reversed $77 $-1 #
coedge $-1 $124 $302 $300 $305 forward $77 $-1 #
coedge $-1 $213 $212 $124 $206 forward $214 $-1 #
edge $-1 $306 -14.593603343914403 $307 -9.6204474565834133 $205 $308 forward 7 unknown #
coedge $-1 $126 $125 $299 $309 reversed $49 $-1 #
coedge $-1 $202 $310 $125 $209 reversed $122 $-1 #
edge $-1 $215 -52.038941618091371 $311 52.038941618091371 $208 $312 forward 7 unknown #
coedge $-1 $313 $314 $126 $211 forward $297 $-1 #
edge $-1 $216 -52.038941618091371 $315 52.038941618091371 $210 $316 forward 7 unknown #
coedge $-1 $205 $127 $314 $317 forward $214 $-1 #
coedge $-1 $127 $205 $202 $301 forward $214 $-1 #
loop $-1 $-1 $127 $296 #
vertex $-1 $128 $318 #
vertex $-1 $317 $319 #
straight-curve $-1 52.038941618091371 -12.107025400248908 -1.4559193472628058 0 -1 0 I I #
face $-1 $-1 $230 $29 $-1 $320 forward single #
loop $-1 $-1 $321 $129 #
plane-surface $-1 -52.038941618091371 0 0 1 0 0 0 0 -1 forward_v I I I I #
coedge $-1 $322 $323 $324 $325 reversed $130 $-1 #
coedge $-1 $326 $132 $134 $228 forward $81 $-1 #
coedge $-1 $132 $326 $322 $327 forward $81 $-1 #
coedge $-1 $324 $135 $132 $225 forward $230 $-1 #
edge $-1 $232 -12.99444778927873 $328 -4.4716023458284528 $224 $329 forward 7 unknown #
coedge $-1 $330 $331 $133 $227 forward $219 $-1 #
edge $-1 $332 -24.77167406699683 $231 -20.334734368517211 $226 $333 forward 7 unknown #
edge $-1 $232 -5.1233366128307942 $332 5.6900626353428066e-014 $134 $334 forward 7 unknown #
coedge $-1 $135 $324 $330 $335 forward $230 $-1 #
loop $-1 $-1 $324 $218 #
vertex $-1 $227 $336 #
vertex $-1 $136 $337 #
straight-curve $-1 -71.086516638891084 -21.727472856832321 6.9325317881967798 1 0 0 I I #
coedge $-1 $234 $234 $-1 $338 reversed $139 $-1 #
edge $-1 $339 0 $339 6.2831853071796004 $140 $340 forward 7 unknown #
vertex $-1 $143 $341 #
ellipse-curve $-1 -50.758107499203533 -19.292374158703673 4.7140619389569789 -0.86602541151947299 0 0.49999998660252726 0.49999998660252726 0 0.86602541151947299 1 I I #
coedge $-1 $238 $238 $-1 $342 reversed $146 $-1 #
edge $-1 $343 0 $343 6.2831853071796004 $147 $344 forward 7 unknown #
vertex $-1 $150 $345 #
ellipse-curve $-1 -50.758107499203533 -15.639726111510695 4.7140619389569789 -0.86602541151947299 0 0.49999998660252726 0.49999998660252726 0 0.86602541151947299 1 I I #
face $-1 $-1 $346 $32 $-1 $347 reversed single #
loop $-1 $-1 $157 $151 #
plane-surface $-1 0 0 6.9325317881967781 0 0 1 1 0 0 forward_v I I I I #
coedge $-1 $348 $349 $350 $351 reversed $152 $-1 #
coedge $-1 $352 $154 $156 $252 forward $95 $-1 #
coedge $-1 $154 $352 $348 $353 forward $95 $-1 #
coedge $-1 $350 $157 $154 $249 forward $243 $-1 #
edge $-1 $255 -14.213530862352089 $354 -1.334202696063608 $248 $355 forward 7 unknown #
coedge $-1 $356 $357 $155 $251 forward $346 $-1 #
edge $-1 $358 -72.668208235278485 $254 -67.027518000112224 $250 $359 forward 7 unknown #
edge $-1 $255 95.302527145253691 $358 104.07788323618273 $156 $360 forward 7 unknown #
coedge $-1 $157 $350 $356 $361 forward $243 $-1 #
vertex $-1 $251 $362 #
vertex $-1 $158 $363 #
straight-curve $-1 19.605316406140616 21.987397641559937 6.9325317881967834 -1 0 0 I I #
coedge $-1 $257 $257 $-1 $364 reversed $161 $-1 #
edge $-1 $365 0 $365 6.2831853071796004 $162 $366 forward 7 unknown #
vertex $-1 $165 $367 #
ellipse-curve $-1 48.677785262255426 11.683935108529159 4.1121866706136485 0.64278761758704617 0 0.76604443648966558 0.76604443648966558 0 -0.64278761758704617 1 I I #
coedge $-1 $261 $261 $-1 $368 reversed $168 $-1 #
edge $-1 $369 0 $369 6.2831853071796004 $169 $370 forward 7 unknown #
vertex $-1 $172 $371 #
ellipse-curve $-1 48.677785262255426 15.547733558415704 4.1121866706136485 0.64278761758704617 0 0.76604443648966558 0.76604443648966558 0 -0.64278761758704617 1 I I #
coedge $-1 $265 $265 $-1 $372 reversed $175 $-1 #
edge $-1 $373 0 $373 6.2831853071796004 $176 $374 forward 7 unknown #
vertex $-1 $179 $375 #
ellipse-curve $-1 48.677785262255426 19.411532008302249 4.1121866706136485 0.64278761758704617 0 0.76604443648966558 0.76604443648966558 0 -0.64278761758704617 1 I I #
face $-1 $-1 $195 $27 $-1 $376 reversed single #
loop $-1 $-1 $285 $180 #
plane-surface $-1 0 26.700628744163314 0 0 -1 0 0 0 -1 forward_v I I I I #
coedge $-1 $377 $283 $286 $378 forward $181 $-1 #
coedge $-1 $289 $183 $184 $277 reversed $114 $-1 #
coedge $-1 $283 $377 $183 $275 reversed $181 $-1 #
edge $-1 $290 -6.9325317881967781 $379 6.9325317881967781 $274 $380 forward 7 unknown #
coedge $-1 $185 $184 $377 $381 forward $73 $-1 #
edge $-1 $281 -52.038941618091371 $379 52.038941618091371 $273 $382 forward 7 unknown #
coedge $-1 $286 $285 $185 $279 reversed $270 $-1 #
edge $-1 $383 -52.038941618091371 $280 52.038941618091371 $278 $384 forward 7 unknown #
vertex $-1 $187 $385 #
vertex $-1 $292 $386 #
straight-curve $-1 52.038941618091371 0 -6.9325317881967781 0 -1 0 I I #
coedge $-1 $272 $274 $188 $284 reversed $181 $-1 #
edge $-1 $287 -26.700628744163314 $290 26.700628744163314 $283 $387 forward 7 unknown #
coedge $-1 $278 $189 $194 $293 forward $270 $-1 #
coedge $-1 $189 $278 $272 $378 reversed $270 $-1 #
vertex $-1 $190 $388 #
straight-curve $-1 0 26.700628744163314 6.9325317881967781 -1 0 0 I I #
coedge $-1 $191 $273 $193 $292 reversed $114 $-1 #
vertex $-1 $284 $389 #
straight-curve $-1 0 -26.700628744163314 6.9325317881967781 1 0 0 I I #
edge $-1 $196 -6.9325317881967781 $281 6.9325317881967781 $193 $390 forward 7 unknown #
edge $-1 $197 -6.9325317881967781 $280 6.9325317881967781 $194 $391 forward 7 unknown #
point $-1 52.038941618091371 -26.700628744163314 6.9325317881967781 #
point $-1 52.038941618091371 26.700628744163314 6.9325317881967781 #
face $-1 $-1 $214 $28 $-1 $392 reversed single #
loop $-1 $-1 $210 $199 #
plane-surface $-1 0 -26.700628744163314 0 0 1 0 0 0 1 forward_v I I I I #
coedge $-1 $393 $394 $207 $309 forward $200 $-1 #
coedge $-1 $310 $202 $204 $305 reversed $122 $-1 #
edge $-1 $307 -2.9779596736314029 $215 0.022040326368597096 $213 $395 forward 7 unknown #
coedge $-1 $204 $203 $396 $397 reversed $77 $-1 #
coedge $-1 $314 $313 $203 $304 forward $297 $-1 #
edge $-1 $398 -52.038941618091371 $306 52.038941618091371 $303 $399 forward 7 unknown #
edge $-1 $400 -52.038941618091371 $307 52.038941618091371 $300 $401 forward 7 unknown #
vertex $-1 $304 $402 #
vertex $-1 $206 $403 #
straight-curve $-1 52.038941618091371 -12.107025400248908 -4.4559193472628058 0 1 0 I I #
edge $-1 $315 -14.593603343914403 $311 -9.6204474565834133 $299 $404 forward 7 unknown #
coedge $-1 $208 $300 $393 $405 reversed $122 $-1 #
vertex $-1 $309 $406 #
straight-curve $-1 0 -21.727472856832321 -1.4559193472628058 -1 0 0 I I #
coedge $-1 $303 $210 $394 $407 forward $297 $-1 #
coedge $-1 $210 $303 $212 $317 reversed $297 $-1 #
vertex $-1 $407 $408 #
straight-curve $-1 0 -26.700628744163314 -1.4559193472628058 -1 0 0 I I #
edge $-1 $216 1.4559193472628058 $306 4.4559193472628058 $212 $409 forward 7 unknown #
point $-1 52.038941618091371 -21.727472856832321 -1.4559193472628058 #
point $-1 52.038941618091371 -26.700628744163311 -1.4559193472628058 #
plane-surface $-1 0 0 6.9325317881967781 0 0 1 1 0 0 forward_v I I I I #
coedge $-1 $331 $330 $323 $410 forward $219 $-1 #
coedge $-1 $323 $221 $223 $327 reversed $130 $-1 #
coedge $-1 $221 $322 $321 $410 reversed $130 $-1 #
coedge $-1 $229 $224 $221 $325 forward $230 $-1 #
edge $-1 $328 -21.609243258575376 $411 -19.047575020799712 $324 $412 forward 7 unknown #
coedge $-1 $223 $222 $331 $413 reversed $81 $-1 #
edge $-1 $414 -5.6900626353428066e-014 $328 5.1233366128307942 $322 $415 forward 7 unknown #
vertex $-1 $225 $416 #
straight-curve $-1 -49.477273380315708 -8.7330250675535908 6.9325317881967781 0 1 0 I I #
coedge $-1 $321 $226 $229 $335 reversed $219 $-1 #
coedge $-1 $226 $321 $326 $413 forward $219 $-1 #
vertex $-1 $227 $417 #
straight-curve $-1 -52.038941618091371 -21.727472856832321 27.267266156713987 0 0 1 I I #
straight-curve $-1 -52.038941618091343 -21.727472856832321 2.4955920897172064 -0.49999998660252726 0 -0.86602541151947299 I I #
edge $-1 $411 13.204627413382044 $231 21.727472856832321 $330 $418 forward 7 unknown #
point $-1 -52.038941618091371 -21.727472856832321 6.9325317881967781 #
point $-1 -49.477273380315708 -21.727472856832321 6.9325317881967781 #
edge $-1 $419 1 $419 0 $234 $-1 forward 7 unknown #
vertex $-1 $235 $420 #
ellipse-curve $-1 -48.799077513161308 -19.292374158703673 3.5830154895733908 -0.86602541151947299 0 0.49999998660252726 0.49999998660252726 0 0.86602541151947299 1 I I #
point $-1 -50.258107512601029 -19.292374158703673 5.5800873504764663 #
edge $-1 $421 1 $421 0 $238 $-1 forward 7 unknown #
vertex $-1 $239 $422 #
ellipse-curve $-1 -48.799077513161308 -15.639726111510695 3.5830154895733908 -0.86602541151947299 0 0.49999998660252726 0.49999998660252726 0 0.86602541151947299 1 I I #
point $-1 -50.258107512601029 -15.639726111510695 5.5800873504764663 #
loop $-1 $-1 $250 $242 #
plane-surface $-1 52.038941618091371 0 0 -1 0 0 0 0 1 forward_v I I I I #
coedge $-1 $349 $245 $247 $353 reversed $152 $-1 #
coedge $-1 $245 $348 $423 $424 reversed $152 $-1 #
coedge $-1 $253 $248 $245 $351 forward $243 $-1 #
edge $-1 $354 25.711312500278865 $425 32.433625211950755 $350 $426 forward 7 unknown #
coedge $-1 $247 $246 $357 $427 reversed $95 $-1 #
edge $-1 $428 -104.07788323618273 $354 -95.302527145253691 $348 $429 forward 7 unknown #
vertex $-1 $249 $430 #
straight-curve $-1 45.316628906419481 7.7738667792078484 6.9325317881967763 0 -1 0 I I #
coedge $-1 $423 $250 $253 $361 reversed $346 $-1 #
coedge $-1 $250 $423 $352 $427 forward $346 $-1 #
vertex $-1 $251 $431 #
straight-curve $-1 52.038941618091371 21.987397641559937 73.960049788309007 0 0 1 I I #
straight-curve $-1 -27.689341796607437 21.987397641559937 68.191816161919192 0.76604443648966558 0 -0.64278761758704617 I I #
edge $-1 $425 9.1080694752714564 $254 21.987397641559937 $356 $432 forward 7 unknown #
point $-1 52.038941618091371 21.987397641559937 6.9325317881967781 #
point $-1 45.316628906419481 21.987397641559937 6.9325317881967763 #
edge $-1 $433 1 $433 0 $257 $-1 forward 7 unknown #
vertex $-1 $258 $434 #
ellipse-curve $-1 46.745106687094626 11.683935108529159 1.8089100835779406 0.64278761758704617 0 0.76604443648966558 0.76604443648966558 0 -0.64278761758704617 1 I I #
point $-1 49.443829698745077 11.683935108529159 3.469399053026581 #
edge $-1 $435 1 $435 0 $261 $-1 forward 7 unknown #
vertex $-1 $262 $436 #
ellipse-curve $-1 46.745106687094626 15.547733558415704 1.8089100835779406 0.64278761758704617 0 0.76604443648966558 0.76604443648966558 0 -0.64278761758704617 1 I I #
point $-1 49.443829698745077 15.547733558415704 3.469399053026581 #
edge $-1 $437 1 $437 0 $265 $-1 forward 7 unknown #
vertex $-1 $266 $438 #
ellipse-curve $-1 46.745106687094626 19.411532008302249 1.8089100835779406 0.64278761758704617 0 0.76604443648966558 0.76604443648966558 0 -0.64278761758704617 1 I I #
point $-1 49.443829698745077 19.411532008302249 3.469399053026581 #
plane-surface $-1 52.038941618091371 0 0 -1 0 0 0 0 1 forward_v I I I I #
coedge $-1 $274 $272 $276 $381 reversed $181 $-1 #
edge $-1 $287 -6.9325317881967781 $383 6.9325317881967781 $286 $439 forward 7 unknown #
vertex $-1 $381 $440 #
straight-curve $-1 -52.038941618091371 -26.700628744163314 0 0 0 -1 I I #
edge $-1 $379 -26.700628744163314 $383 26.700628744163314 $377 $441 forward 7 unknown #
straight-curve $-1 0 -26.700628744163314 -6.9325317881967781 -1 0 0 I I #
vertex $-1 $279 $442 #
straight-curve $-1 0 26.700628744163314 -6.9325317881967781 1 0 0 I I #
point $-1 52.038941618091371 26.700628744163314 -6.9325317881967781 #
point $-1 52.038941618091371 -26.700628744163314 -6.9325317881967781 #
straight-curve $-1 -52.038941618091371 0 6.9325317881967781 0 -1 0 I I #
point $-1 -52.038941618091371 26.700628744163314 6.9325317881967781 #
point $-1 -52.038941618091371 -26.700628744163314 6.9325317881967781 #
straight-curve $-1 52.038941618091371 -26.700628744163314 0 0 0 -1 I I #
straight-curve $-1 52.038941618091371 26.700628744163314 0 0 0 -1 I I #
plane-surface $-1 52.038941618091371 0 0 -1 0 0 0 0 1 forward_v I I I I #
coedge $-1 $396 $299 $310 $405 forward $200 $-1 #
coedge $-1 $299 $396 $313 $407 reversed $200 $-1 #
straight-curve $-1 52.038941618091371 -21.727472856832321 -1.4779596736314029 0 0 1 I I #
coedge $-1 $394 $393 $302 $397 forward $200 $-1 #
edge $-1 $400 9.6204474565834133 $398 14.593603343914403 $396 $443 forward 7 unknown #
vertex $-1 $304 $444 #
straight-curve $-1 0 -26.700628744163314 -4.4559193472628058 1 0 0 I I #
vertex $-1 $397 $445 #
straight-curve $-1 0 -21.727472856832321 -4.4559193472628058 1 0 0 I I #
point $-1 52.038941618091371 -26.700628744163311 -4.4559193472628058 #
point $-1 52.038941618091371 -21.727472856832321 -4.4559193472628058 #
straight-curve $-1 -52.038941618091371 -12.107025400248908 -1.4559193472628058 0 1 0 I I #
edge $-1 $311 -0.022040326368597096 $400 2.9779596736314029 $393 $446 forward 7 unknown #
point $-1 -52.038941618091371 -21.727472856832321 -1.4559193472628058 #
edge $-1 $315 1.4559193472628058 $398 4.4559193472628058 $394 $447 forward 7 unknown #
point $-1 -52.038941618091371 -26.700628744163311 -1.4559193472628058 #
straight-curve $-1 52.038941618091371 -26.700628744163314 0 0 0 -1 I I #
edge $-1 $411 20.334734368517211 $414 24.77167406699683 $321 $448 forward 7 unknown #
vertex $-1 $335 $449 #
straight-curve $-1 -71.086516638891084 -13.204627413382044 6.9325317881967798 -1 0 0 I I #
edge $-1 $414 4.4716023458284528 $332 12.99444778927873 $331 $450 forward 7 unknown #
vertex $-1 $413 $451 #
straight-curve $-1 -52.038941618091343 -13.204627413382044 2.4955920897172064 0.49999998660252726 0 0.86602541151947299 I I #
point $-1 -49.477273380315708 -13.204627413382044 6.9325317881967781 #
point $-1 -52.038941618091371 -21.727472856832321 2.4955920897171571 #
straight-curve $-1 -52.038941618091371 0 6.9325317881967781 0 -1 0 I I #
vertex $-1 $338 $452 #
point $-1 -48.299077526558783 -19.292374158703673 4.4490409010928635 #
vertex $-1 $342 $453 #
point $-1 -48.299077526558783 -15.639726111510695 4.4490409010928635 #
coedge $-1 $357 $356 $349 $424 forward $346 $-1 #
edge $-1 $425 67.027518000112224 $428 72.668208235278485 $423 $454 forward 7 unknown #
vertex $-1 $361 $455 #
straight-curve $-1 19.605316406140616 9.1080694752714564 6.9325317881967834 1 0 0 I I #
edge $-1 $428 1.334202696063608 $358 14.213530862352089 $357 $456 forward 7 unknown #
vertex $-1 $427 $457 #
straight-curve $-1 -27.689341796607437 9.1080694752714564 68.191816161919192 -0.76604443648966558 0 0.64278761758704617 I I #
point $-1 45.316628906419481 9.1080694752714564 6.9325317881967763 #
point $-1 52.038941618091371 21.987397641559937 1.2918415530305225 #
straight-curve $-1 52.038941618091371 0 6.9325317881967781 0 1 0 I I #
vertex $-1 $364 $458 #
point $-1 47.511151123584291 11.683935108529159 1.1661224659908944 #
vertex $-1 $368 $459 #
point $-1 47.511151123584291 15.547733558415704 1.1661224659908944 #
vertex $-1 $372 $460 #
point $-1 47.511151123584291 19.411532008302249 1.1661224659908944 #
straight-curve $-1 -52.038941618091371 26.700628744163314 0 0 0 -1 I I #
point $-1 -52.038941618091371 -26.700628744163314 -6.9325317881967781 #
straight-curve $-1 -52.038941618091371 0 -6.9325317881967781 0 1 0 I I #
point $-1 -52.038941618091371 26.700628744163314 -6.9325317881967781 #
straight-curve $-1 -52.038941618091371 -12.107025400248908 -4.4559193472628058 0 -1 0 I I #
point $-1 -52.038941618091371 -26.700628744163311 -4.4559193472628058 #
point $-1 -52.038941618091371 -21.727472856832321 -4.4559193472628058 #
straight-curve $-1 -52.038941618091371 -21.727472856832321 -1.4779596736314029 0 0 -1 I I #
straight-curve $-1 -52.038941618091371 -26.700628744163314 0 0 0 -1 I I #
straight-curve $-1 -52.038941618091371 -13.204627413382044 27.267266156713987 0 0 -1 I I #
point $-1 -52.038941618091371 -13.204627413382044 6.9325317881967781 #
straight-curve $-1 -52.038941618091371 -8.7330250675535908 2.4955920897171535 0 -1 0 I I #
point $-1 -52.038941618091371 -13.204627413382044 2.4955920897171571 #
point $-1 -47.933052101641834 -19.292374158703673 3.0830155029708632 #
point $-1 -47.933052101641834 -15.639726111510695 3.0830155029708632 #
straight-curve $-1 52.038941618091371 9.1080694752714564 73.960049788309007 0 0 -1 I I #
point $-1 52.038941618091371 9.1080694752714564 6.9325317881967781 #
straight-curve $-1 52.038941618091364 7.7738667792078484 1.2918415530305367 0 1 0 I I #
point $-1 52.038941618091371 9.1080694752714564 1.2918415530305225 #
point $-1 46.10231906950758 11.683935108529159 1.0428656470882749 #
point $-1 46.10231906950758 15.547733558415704 1.0428656470882749 #
point $-1 46.10231906950758 19.411532008302249 1.0428656470882749 #
End-of-ACIS-data 