500 0 9 0           
7 Unknown 11 ACIS 5.0 NT 24 Fri Mar 26 16:55:09 1999 
-1 9.9999999999999995e-007 1e-010 
body $-1 $9 $-1 $10 #
body $-1 $11 $-1 $12 #
body $-1 $13 $-1 $14 #
body $-1 $15 $-1 $16 #
body $-1 $17 $-1 $18 #
body $-1 $19 $-1 $20 #
body $-1 $21 $-1 $22 #
body $-1 $23 $-1 $24 #
body $-1 $25 $-1 $26 #
lump $-1 $-1 $27 $0 #
transform $-1 1 0 0 0 1 0 0 0 1 71.299783318582712 29.847033229957077 11.394285063433733 1 rotate no_reflect no_shear #
lump $-1 $-1 $28 $1 #
transform $-1 1 0 0 0 1 0 0 0 1 71.299783318582712 29.847033229957077 11.394285063433733 1 rotate no_reflect no_shear #
lump $-1 $-1 $29 $2 #
transform $-1 1 0 0 0 1 0 0 0 1 71.299783318582712 29.847033229957077 11.394285063433733 1 rotate no_reflect no_shear #
lump $-1 $-1 $30 $3 #
transform $-1 1 0 0 0 1 0 0 0 1 71.299783318582712 29.847033229957077 11.394285063433733 1 rotate no_reflect no_shear #
lump $-1 $-1 $31 $4 #
transform $-1 1 0 0 0 1 0 0 0 1 71.299783318582712 29.847033229957077 11.394285063433733 1 rotate no_reflect no_shear #
lump $-1 $-1 $32 $5 #
transform $-1 1 0 0 0 1 0 0 0 1 71.299783318582712 29.847033229957077 11.394285063433733 1 rotate no_reflect no_shear #
lump $-1 $-1 $33 $6 #
transform $-1 1 0 0 0 1 0 0 0 1 71.299783318582712 29.847033229957077 11.394285063433733 1 rotate no_reflect no_shear #
lump $-1 $-1 $34 $7 #
transform $-1 1 0 0 0 1 0 0 0 1 71.299783318582712 29.847033229957077 11.394285063433733 1 rotate no_reflect no_shear #
lump $-1 $-1 $35 $8 #
transform $-1 1 0 0 0 1 0 0 0 1 71.299783318582712 29.847033229957077 11.394285063433733 1 rotate no_reflect no_shear #
shell $-1 $-1 $-1 $36 $-1 $9 #
shell $-1 $-1 $-1 $37 $-1 $11 #
shell $-1 $-1 $-1 $38 $-1 $13 #
shell $-1 $-1 $-1 $39 $-1 $15 #
shell $-1 $-1 $-1 $40 $-1 $17 #
shell $-1 $-1 $-1 $41 $-1 $19 #
shell $-1 $-1 $-1 $42 $-1 $21 #
shell $-1 $-1 $-1 $43 $-1 $23 #
shell $-1 $-1 $-1 $44 $-1 $25 #
face $-1 $45 $46 $27 $-1 $47 forward single #
face $-1 $48 $49 $28 $-1 $50 forward single #
face $-1 $51 $52 $29 $-1 $53 forward single #
face $-1 $54 $55 $30 $-1 $56 reversed single #
face $-1 $57 $58 $31 $-1 $59 forward single #
face $-1 $60 $61 $32 $-1 $62 forward single #
face $-1 $63 $64 $33 $-1 $65 reversed single #
face $-1 $66 $67 $34 $-1 $68 forward single #
face $-1 $69 $70 $35 $-1 $71 forward single #
face $-1 $72 $73 $27 $-1 $74 reversed single #
loop $-1 $-1 $75 $36 #
plane-surface $-1 0 0 11.394285063433733 0 0 1 1 0 0 forward_v I I I I #
face $-1 $76 $77 $28 $-1 $78 reversed single #
loop $-1 $-1 $79 $37 #
plane-surface $-1 0 -23.001897439520594 -8.3942850634337329 0 0 1 1 0 0 forward_v I I I I #
face $-1 $80 $81 $29 $-1 $82 reversed single #
loop $-1 $-1 $83 $38 #
plane-surface $-1 0 24.547391879271785 9.5554983403567206 0 0 1 1 0 0 forward_v I I I I #
face $-1 $84 $85 $30 $-1 $86 reversed single #
loop $-1 $-1 $87 $39 #
plane-surface $-1 -41.07020779099102 14.369492608183705 88.386888393814985 0.61566148304635926 0 0.78801074757464917 0.78801074757464917 0 -0.61566148304635926 forward_v I I I I #
face $-1 $88 $89 $31 $-1 $90 forward single #
loop $-1 $91 $92 $40 #
cone-surface $-1 63.614466590216793 12.27881064229679 5.0042271604315838 -0.61566148304635926 0 -0.78801074757464917 0.78801074757464917 0 -0.61566148304635926 1 I I 0 1 1 forward I I I I #
face $-1 $93 $94 $32 $-1 $95 forward single #
loop $-1 $96 $97 $41 #
cone-surface $-1 63.614466590216793 16.460174574070621 5.0042271604315838 -0.61566148304635926 0 -0.78801074757464917 0.78801074757464917 0 -0.61566148304635926 1 I I 0 1 1 forward I I I I #
face $-1 $98 $99 $33 $-1 $100 reversed single #
loop $-1 $-1 $101 $42 #
plane-surface $-1 -71.299783318582698 14.369492608183705 0.59382771620957442 -0.61566148304635926 0 0.78801074757464917 0.78801074757464917 0 0.61566148304635926 forward_v I I I I #
face $-1 $102 $103 $34 $-1 $104 forward single #
loop $-1 $105 $106 $43 #
cone-surface $-1 -63.614466590216793 12.27881064229679 5.0042271604315713 0.61566148304635926 0 -0.78801074757464917 0.78801074757464917 0 0.61566148304635926 1 I I 0 1 1 forward I I I I #
face $-1 $107 $108 $35 $-1 $109 forward single #
loop $-1 $110 $111 $44 #
cone-surface $-1 -63.614466590216793 16.460174574070621 5.0042271604315713 0.61566148304635926 0 -0.78801074757464917 0.78801074757464917 0 0.61566148304635926 1 I I 0 1 1 forward I I I I #
face $-1 $112 $113 $27 $-1 $114 reversed single #
loop $-1 $-1 $115 $45 #
plane-surface $-1 0 0 -11.394285063433733 0 0 1 1 0 0 forward_v I I I I #
coedge $-1 $116 $117 $118 $119 forward $46 $-1 #
face $-1 $120 $121 $28 $-1 $122 reversed single #
loop $-1 $-1 $123 $48 #
plane-surface $-1 0 -16.15676164908411 -9.8942850634337329 0 -1 0 0 0 -1 forward_v I I I I #
coedge $-1 $124 $125 $126 $127 reversed $49 $-1 #
face $-1 $128 $129 $29 $-1 $130 reversed single #
loop $-1 $-1 $131 $51 #
plane-surface $-1 0 24.547391879271785 6.1217385427743132 0 0 1 1 0 0 forward_v I I I I #
coedge $-1 $132 $133 $134 $135 reversed $52 $-1 #
face $-1 $136 $137 $30 $-1 $138 reversed single #
loop $-1 $-1 $139 $54 #
plane-surface $-1 46.722852886614376 9.4912346877809064 200.75687950338872 0 1 0 0.61566148304635926 0 0.78801074757464917 forward_v I I I I #
coedge $-1 $140 $141 $142 $143 reversed $55 $-1 #
face $-1 $-1 $144 $31 $-1 $145 forward single #
loop $-1 $146 $147 $57 #
cone-surface $-1 62.533296483457093 12.27881064229679 3.6203925572541724 -0.61566148304635926 0 -0.78801074757464917 0.39400537378732459 0 -0.30783074152317963 1 I I -0.70710678118654746 0.70710678118654746 0.5 forward I I I I #
loop $-1 $-1 $148 $40 #
coedge $-1 $92 $92 $149 $150 reversed $58 $-1 #
face $-1 $-1 $151 $32 $-1 $152 forward single #
loop $-1 $153 $154 $60 #
cone-surface $-1 62.533296483457093 16.460174574070621 3.6203925572541724 -0.61566148304635926 0 -0.78801074757464917 0.39400537378732459 0 -0.30783074152317963 1 I I -0.70710678118654746 0.70710678118654746 0.5 forward I I I I #
loop $-1 $-1 $155 $41 #
coedge $-1 $97 $97 $156 $157 reversed $61 $-1 #
face $-1 $158 $159 $33 $-1 $160 forward single #
loop $-1 $-1 $161 $63 #
plane-surface $-1 -159.09284399618809 9.4912346877809064 112.96381882578331 0 1 0 -0.61566148304635926 0 0.78801074757464917 forward_v I I I I #
coedge $-1 $162 $163 $164 $165 reversed $64 $-1 #
face $-1 $-1 $166 $34 $-1 $167 forward single #
loop $-1 $168 $169 $66 #
cone-surface $-1 -62.533296483457093 12.27881064229679 3.62039255725416 0.61566148304635926 0 -0.78801074757464917 0.39400537378732459 0 0.30783074152317963 1 I I -0.70710678118654746 0.70710678118654746 0.5 forward I I I I #
loop $-1 $-1 $170 $43 #
coedge $-1 $106 $106 $171 $172 reversed $67 $-1 #
face $-1 $-1 $173 $35 $-1 $174 forward single #
loop $-1 $175 $176 $69 #
cone-surface $-1 -62.533296483457093 16.460174574070621 3.62039255725416 0.61566148304635926 0 -0.78801074757464917 0.39400537378732459 0 0.30783074152317963 1 I I -0.70710678118654746 0.70710678118654746 0.5 forward I I I I #
loop $-1 $-1 $177 $44 #
coedge $-1 $111 $111 $178 $179 reversed $70 $-1 #
face $-1 $180 $181 $27 $-1 $182 reversed single #
loop $-1 $-1 $183 $72 #
plane-surface $-1 0 -29.847033229957077 0 0 1 0 0 0 1 forward_v I I I I #
coedge $-1 $184 $185 $186 $187 forward $73 $-1 #
coedge $-1 $188 $75 $189 $190 forward $46 $-1 #
coedge $-1 $75 $188 $191 $192 forward $46 $-1 #
coedge $-1 $193 $194 $75 $119 reversed $195 $-1 #
edge $-1 $196 -29.847033229957077 $197 29.847033229957077 $118 $198 forward 7 unknown #
face $-1 $199 $200 $28 $-1 $201 reversed single #
loop $-1 $-1 $202 $76 #
plane-surface $-1 0 0 -11.394285063433733 0 0 1 1 0 0 forward_v I I I I #
coedge $-1 $203 $204 $205 $206 reversed $77 $-1 #
coedge $-1 $207 $79 $204 $208 forward $49 $-1 #
coedge $-1 $79 $207 $209 $210 reversed $49 $-1 #
coedge $-1 $211 $205 $79 $127 forward $200 $-1 #
edge $-1 $212 4.6558129293238135 $213 18.346084510196782 $126 $214 forward 7 unknown #
face $-1 $215 $216 $29 $-1 $217 reversed single #
loop $-1 $-1 $218 $80 #
plane-surface $-1 0 19.247750528586497 7.8386184415655169 0 1 0 0 0 1 forward_v I I I I #
coedge $-1 $219 $220 $221 $222 reversed $81 $-1 #
coedge $-1 $223 $83 $224 $225 reversed $52 $-1 #
coedge $-1 $83 $223 $226 $227 forward $52 $-1 #
coedge $-1 $228 $229 $83 $135 forward $216 $-1 #
edge $-1 $230 -17.573337290321181 $231 -6.9740545889506045 $134 $232 forward 7 unknown #
face $-1 $233 $234 $30 $-1 $235 forward single #
loop $-1 $-1 $236 $84 #
plane-surface $-1 71.299783318582712 0 0 -1 0 0 0 0 1 forward_v I I I I #
coedge $-1 $237 $238 $239 $240 reversed $85 $-1 #
coedge $-1 $241 $87 $242 $243 forward $55 $-1 #
coedge $-1 $87 $241 $237 $244 forward $55 $-1 #
coedge $-1 $239 $245 $87 $143 forward $234 $-1 #
edge $-1 $246 -12.063004224494652 $247 -2.3064883836890537 $142 $248 forward 7 unknown #
loop $-1 $-1 $149 $88 #
plane-surface $-1 -41.07020779099102 14.369492608183705 88.386888393814985 0.61566148304635926 0 0.78801074757464917 0.78801074757464917 0 -0.61566148304635926 forward_v I I I I #
loop $-1 $-1 $249 $57 #
coedge $-1 $147 $147 $148 $250 reversed $89 $-1 #
coedge $-1 $148 $148 $147 $250 forward $91 $-1 #
coedge $-1 $149 $149 $92 $150 forward $144 $-1 #
edge $-1 $251 0 $251 6.2831853071796004 $149 $252 forward 7 unknown #
loop $-1 $-1 $156 $93 #
plane-surface $-1 -41.07020779099102 14.369492608183705 88.386888393814985 0.61566148304635926 0 0.78801074757464917 0.78801074757464917 0 -0.61566148304635926 forward_v I I I I #
loop $-1 $-1 $253 $60 #
coedge $-1 $154 $154 $155 $254 reversed $94 $-1 #
coedge $-1 $155 $155 $154 $254 forward $96 $-1 #
coedge $-1 $156 $156 $97 $157 forward $151 $-1 #
edge $-1 $255 0 $255 6.2831853071796004 $156 $256 forward 7 unknown #
face $-1 $257 $258 $33 $-1 $259 reversed single #
loop $-1 $-1 $260 $98 #
plane-surface $-1 0 19.247750528586497 7.8386184415655169 0 1 0 0 0 1 forward_v I I I I #
coedge $-1 $261 $262 $263 $264 reversed $99 $-1 #
coedge $-1 $265 $101 $260 $266 forward $64 $-1 #
coedge $-1 $101 $265 $261 $267 forward $64 $-1 #
coedge $-1 $263 $268 $101 $165 forward $258 $-1 #
edge $-1 $269 -12.063004224494652 $270 -2.3064883836890537 $164 $271 forward 7 unknown #
loop $-1 $-1 $171 $102 #
plane-surface $-1 -71.299783318582698 14.369492608183705 0.59382771620957442 -0.61566148304635926 0 0.78801074757464917 0.78801074757464917 0 0.61566148304635926 forward_v I I I I #
loop $-1 $-1 $272 $66 #
coedge $-1 $169 $169 $170 $273 reversed $103 $-1 #
coedge $-1 $170 $170 $169 $273 forward $105 $-1 #
coedge $-1 $171 $171 $106 $172 forward $166 $-1 #
edge $-1 $274 0 $274 6.2831853071796004 $171 $275 forward 7 unknown #
loop $-1 $-1 $178 $107 #
plane-surface $-1 -71.299783318582698 14.369492608183705 0.59382771620957442 -0.61566148304635926 0 0.78801074757464917 0.78801074757464917 0 0.61566148304635926 forward_v I I I I #
loop $-1 $-1 $276 $69 #
coedge $-1 $176 $176 $177 $277 reversed $108 $-1 #
coedge $-1 $177 $177 $176 $277 forward $110 $-1 #
coedge $-1 $178 $178 $111 $179 forward $173 $-1 #
edge $-1 $278 0 $278 6.2831853071796004 $178 $279 forward 7 unknown #
face $-1 $280 $281 $27 $-1 $282 reversed single #
loop $-1 $-1 $283 $112 #
plane-surface $-1 -71.299783318582712 0 0 1 0 0 0 0 -1 forward_v I I I I #
coedge $-1 $284 $191 $285 $286 forward $113 $-1 #
coedge $-1 $287 $115 $284 $288 forward $73 $-1 #
coedge $-1 $115 $287 $289 $290 forward $73 $-1 #
coedge $-1 $194 $193 $115 $187 reversed $195 $-1 #
edge $-1 $291 -29.847033229957077 $292 29.847033229957077 $186 $293 forward 7 unknown #
coedge $-1 $117 $116 $294 $295 forward $46 $-1 #
coedge $-1 $296 $297 $116 $190 reversed $281 $-1 #
edge $-1 $197 -71.299783318582712 $298 71.299783318582712 $189 $299 forward 7 unknown #
coedge $-1 $183 $300 $117 $192 reversed $113 $-1 #
edge $-1 $301 -71.299783318582712 $196 71.299783318582712 $191 $302 forward 7 unknown #
coedge $-1 $186 $118 $300 $303 forward $195 $-1 #
coedge $-1 $118 $186 $296 $304 reversed $195 $-1 #
loop $-1 $-1 $193 $280 #
vertex $-1 $119 $305 #
vertex $-1 $119 $306 #
straight-curve $-1 71.299783318582712 0 11.394285063433733 0 1 0 I I #
face $-1 $307 $308 $28 $-1 $309 reversed single #
loop $-1 $-1 $205 $120 #
plane-surface $-1 71.299783318582712 0 0 -1 0 0 0 0 1 forward_v I I I I #
coedge $-1 $310 $311 $203 $312 forward $121 $-1 #
coedge $-1 $313 $123 $202 $312 reversed $77 $-1 #
coedge $-1 $123 $313 $124 $208 reversed $77 $-1 #
coedge $-1 $126 $314 $123 $206 forward $200 $-1 #
edge $-1 $315 -6.4471425317168665 $212 -3.4471425317168665 $205 $316 forward 7 unknown #
coedge $-1 $125 $124 $317 $318 reversed $49 $-1 #
edge $-1 $212 -71.299783318582712 $319 71.299783318582712 $204 $320 forward 7 unknown #
coedge $-1 $321 $322 $125 $210 forward $308 $-1 #
edge $-1 $213 -71.299783318582712 $323 71.299783318582712 $209 $324 forward 7 unknown #
coedge $-1 $314 $126 $322 $325 forward $200 $-1 #
vertex $-1 $127 $326 #
vertex $-1 $325 $327 #
straight-curve $-1 71.299783318582712 -11.500948719760297 -8.3942850634337329 0 -1 0 I I #
face $-1 $328 $329 $29 $-1 $330 reversed single #
loop $-1 $-1 $134 $128 #
plane-surface $-1 71.299783318582712 0 0 -1 0 0 0 0 1 forward_v I I I I #
coedge $-1 $331 $226 $332 $333 reversed $129 $-1 #
coedge $-1 $334 $131 $331 $335 forward $81 $-1 #
coedge $-1 $131 $334 $336 $337 reversed $81 $-1 #
coedge $-1 $229 $228 $131 $222 forward $216 $-1 #
edge $-1 $338 6.9740545889506045 $339 17.573337290321181 $221 $340 forward 7 unknown #
coedge $-1 $133 $132 $341 $342 reversed $52 $-1 #
coedge $-1 $343 $344 $132 $225 forward $345 $-1 #
edge $-1 $346 -71.299783318582712 $230 71.299783318582712 $224 $347 forward 7 unknown #
coedge $-1 $218 $348 $133 $227 reversed $129 $-1 #
edge $-1 $349 -71.299783318582712 $231 71.299783318582712 $226 $350 forward 7 unknown #
coedge $-1 $221 $134 $348 $351 forward $216 $-1 #
coedge $-1 $134 $221 $343 $352 reversed $216 $-1 #
vertex $-1 $352 $353 #
vertex $-1 $135 $354 #
straight-curve $-1 71.299783318582712 12.273695939635893 9.5554983403567206 0 -1 0 I I #
face $-1 $-1 $355 $30 $-1 $356 forward single #
loop $-1 $-1 $245 $136 #
plane-surface $-1 0 0 11.394285063433733 0 0 1 1 0 0 forward_v I I I I #
coedge $-1 $357 $358 $359 $360 forward $137 $-1 #
coedge $-1 $238 $139 $141 $244 reversed $85 $-1 #
coedge $-1 $139 $237 $361 $362 reversed $85 $-1 #
coedge $-1 $363 $142 $139 $240 forward $234 $-1 #
edge $-1 $247 34.114402149016748 $364 47.938356875275524 $239 $365 forward 7 unknown #
coedge $-1 $141 $140 $358 $366 reversed $55 $-1 #
coedge $-1 $367 $359 $140 $243 reversed $355 $-1 #
edge $-1 $246 125.05671615091717 $368 142.59956663716542 $242 $369 forward 7 unknown #
edge $-1 $370 -142.59956663716542 $247 -125.05671615091717 $237 $371 forward 7 unknown #
coedge $-1 $142 $363 $367 $372 forward $234 $-1 #
vertex $-1 $372 $373 #
vertex $-1 $143 $374 #
straight-curve $-1 57.475828592323928 7.1847463040918527 11.394285063433728 0 -1 0 I I #
coedge $-1 $249 $249 $-1 $375 reversed $146 $-1 #
edge $-1 $376 0 $376 6.2831853071796004 $147 $377 forward 7 unknown #
vertex $-1 $150 $378 #
ellipse-curve $-1 64.387805955453317 12.27881064229679 5.9940563898216652 0.61566148304635926 0 0.78801074757464917 0.78801074757464917 0 -0.61566148304635926 1 I I #
coedge $-1 $253 $253 $-1 $379 reversed $153 $-1 #
edge $-1 $380 0 $380 6.2831853071796004 $154 $381 forward 7 unknown #
vertex $-1 $157 $382 #
ellipse-curve $-1 64.387805955453317 16.460174574070621 5.9940563898216652 0.61566148304635926 0 0.78801074757464917 0.78801074757464917 0 -0.61566148304635926 1 I I #
face $-1 $-1 $383 $33 $-1 $384 forward single #
loop $-1 $-1 $268 $158 #
plane-surface $-1 -71.299783318582712 0 0 1 0 0 0 0 -1 forward_v I I I I #
coedge $-1 $385 $386 $162 $266 reversed $159 $-1 #
coedge $-1 $262 $161 $163 $267 reversed $99 $-1 #
coedge $-1 $161 $261 $387 $388 reversed $99 $-1 #
coedge $-1 $389 $164 $161 $264 forward $258 $-1 #
edge $-1 $270 -55.888081696682093 $390 -45.087624349457919 $263 $391 forward 7 unknown #
coedge $-1 $163 $162 $392 $393 reversed $64 $-1 #
edge $-1 $269 -1.8033521786330445e-014 $394 17.542850486248277 $260 $395 forward 7 unknown #
edge $-1 $396 -17.542850486248277 $270 1.8033521786330445e-014 $261 $397 forward 7 unknown #
coedge $-1 $164 $389 $385 $398 forward $258 $-1 #
vertex $-1 $165 $399 #
vertex $-1 $165 $400 #
straight-curve $-1 -71.299783318582712 7.1847463040918527 0.59382771620957131 0 -1 0 I I #
coedge $-1 $272 $272 $-1 $401 reversed $168 $-1 #
edge $-1 $402 0 $402 6.2831853071796004 $169 $403 forward 7 unknown #
vertex $-1 $172 $404 #
ellipse-curve $-1 -64.387805955453302 12.27881064229679 5.9940563898216466 -0.61566148304635926 0 0.78801074757464917 0.78801074757464917 0 0.61566148304635926 1 I I #
coedge $-1 $276 $276 $-1 $405 reversed $175 $-1 #
edge $-1 $406 0 $406 6.2831853071796004 $176 $407 forward 7 unknown #
vertex $-1 $179 $408 #
ellipse-curve $-1 -64.387805955453302 16.460174574070621 5.9940563898216466 -0.61566148304635926 0 0.78801074757464917 0.78801074757464917 0 0.61566148304635926 1 I I #
face $-1 $-1 $195 $27 $-1 $409 reversed single #
loop $-1 $-1 $296 $180 #
plane-surface $-1 0 29.847033229957077 0 0 -1 0 0 0 -1 forward_v I I I I #
coedge $-1 $410 $294 $297 $411 forward $181 $-1 #
coedge $-1 $300 $183 $184 $288 reversed $113 $-1 #
coedge $-1 $294 $410 $183 $286 reversed $181 $-1 #
edge $-1 $301 -11.394285063433733 $412 11.394285063433733 $285 $413 forward 7 unknown #
coedge $-1 $185 $184 $410 $414 forward $73 $-1 #
edge $-1 $292 -71.299783318582712 $412 71.299783318582712 $284 $415 forward 7 unknown #
coedge $-1 $297 $296 $185 $290 reversed $281 $-1 #
edge $-1 $416 -71.299783318582712 $291 71.299783318582712 $289 $417 forward 7 unknown #
vertex $-1 $187 $418 #
vertex $-1 $303 $419 #
straight-curve $-1 71.299783318582712 0 -11.394285063433733 0 -1 0 I I #
coedge $-1 $283 $285 $188 $295 reversed $181 $-1 #
edge $-1 $298 -29.847033229957077 $301 29.847033229957077 $294 $420 forward 7 unknown #
coedge $-1 $289 $189 $194 $304 forward $281 $-1 #
coedge $-1 $189 $289 $283 $411 reversed $281 $-1 #
vertex $-1 $190 $421 #
straight-curve $-1 0 29.847033229957077 11.394285063433733 -1 0 0 I I #
coedge $-1 $191 $284 $193 $303 reversed $113 $-1 #
vertex $-1 $295 $422 #
straight-curve $-1 0 -29.847033229957077 11.394285063433733 1 0 0 I I #
edge $-1 $196 -11.394285063433733 $292 11.394285063433733 $193 $423 forward 7 unknown #
edge $-1 $197 -11.394285063433733 $291 11.394285063433733 $194 $424 forward 7 unknown #
point $-1 71.299783318582712 -29.847033229957077 11.394285063433733 #
point $-1 71.299783318582712 29.847033229957077 11.394285063433733 #
face $-1 $-1 $425 $28 $-1 $426 reversed single #
loop $-1 $-1 $209 $199 #
plane-surface $-1 0 -29.847033229957077 0 0 1 0 0 0 1 forward_v I I I I #
coedge $-1 $427 $202 $314 $428 forward $121 $-1 #
coedge $-1 $202 $427 $429 $430 forward $121 $-1 #
edge $-1 $431 -71.299783318582712 $315 71.299783318582712 $202 $432 forward 7 unknown #
coedge $-1 $204 $203 $433 $434 reversed $77 $-1 #
coedge $-1 $205 $211 $310 $428 reversed $200 $-1 #
vertex $-1 $428 $435 #
straight-curve $-1 71.299783318582712 -16.15676164908411 -4.9471425317168665 0 0 1 I I #
coedge $-1 $433 $436 $207 $318 forward $425 $-1 #
edge $-1 $323 -18.346084510196782 $319 -4.6558129293238135 $317 $437 forward 7 unknown #
vertex $-1 $318 $438 #
straight-curve $-1 0 -16.15676164908411 -8.3942850634337329 -1 0 0 I I #
coedge $-1 $439 $209 $436 $440 forward $308 $-1 #
coedge $-1 $209 $439 $211 $325 reversed $308 $-1 #
vertex $-1 $440 $441 #
straight-curve $-1 0 -29.847033229957077 -8.3942850634337329 -1 0 0 I I #
edge $-1 $213 8.3942850634337329 $442 11.394285063433733 $211 $443 forward 7 unknown #
point $-1 71.299783318582712 -16.15676164908411 -8.3942850634337329 #
point $-1 71.299783318582712 -29.847033229957077 -8.3942850634337329 #
face $-1 $-1 $345 $29 $-1 $444 reversed single #
loop $-1 $-1 $341 $215 #
plane-surface $-1 -71.299783318582712 0 0 1 0 0 0 0 -1 forward_v I I I I #
coedge $-1 $348 $218 $219 $335 reversed $129 $-1 #
coedge $-1 $341 $445 $218 $333 forward $329 $-1 #
edge $-1 $446 2.2024293219915547 $349 5.6361891195739622 $332 $447 forward 7 unknown #
coedge $-1 $220 $219 $445 $448 reversed $81 $-1 #
edge $-1 $338 -71.299783318582712 $446 71.299783318582712 $331 $449 forward 7 unknown #
coedge $-1 $344 $343 $220 $337 forward $345 $-1 #
edge $-1 $339 -71.299783318582712 $450 71.299783318582712 $336 $451 forward 7 unknown #
vertex $-1 $222 $452 #
vertex $-1 $337 $453 #
straight-curve $-1 71.299783318582712 12.273695939635893 6.1217385427743132 0 1 0 I I #
coedge $-1 $454 $332 $223 $342 forward $329 $-1 #
edge $-1 $349 6.9740545889506045 $346 17.573337290321181 $341 $455 forward 7 unknown #
coedge $-1 $336 $224 $229 $352 forward $345 $-1 #
coedge $-1 $224 $336 $454 $456 reversed $345 $-1 #
loop $-1 $-1 $224 $328 #
vertex $-1 $456 $457 #
straight-curve $-1 0 29.847033229957077 9.5554983403567206 1 0 0 I I #
coedge $-1 $226 $331 $228 $351 reversed $129 $-1 #
vertex $-1 $342 $458 #
straight-curve $-1 0 19.247750528586497 9.5554983403567206 1 0 0 I I #
edge $-1 $231 -5.6361891195739622 $338 -2.2024293219915547 $228 $459 forward 7 unknown #
edge $-1 $230 -9.5554983403567206 $339 -6.1217385427743132 $229 $460 forward 7 unknown #
point $-1 71.299783318582712 29.847033229957074 9.5554983403567206 #
point $-1 71.299783318582712 19.247750528586497 9.5554983403567206 #
loop $-1 $-1 $242 $233 #
plane-surface $-1 0 19.247750528586497 7.8386184415655169 0 1 0 0 0 1 forward_v I I I I #
coedge $-1 $361 $236 $363 $461 reversed $137 $-1 #
coedge $-1 $236 $361 $241 $366 forward $137 $-1 #
coedge $-1 $242 $367 $236 $360 reversed $355 $-1 #
edge $-1 $368 -99.78461203548477 $462 -88.984154688260631 $236 $463 forward 7 unknown #
coedge $-1 $358 $357 $238 $362 forward $137 $-1 #
edge $-1 $364 88.984154688260631 $370 99.78461203548477 $361 $464 forward 7 unknown #
coedge $-1 $245 $239 $357 $461 forward $234 $-1 #
vertex $-1 $461 $465 #
straight-curve $-1 23.361426443307188 9.4912346877809064 11.394285063433728 1 0 0 I I #
edge $-1 $370 2.3064883836890537 $368 12.063004224494652 $358 $466 forward 7 unknown #
coedge $-1 $359 $242 $245 $372 reversed $355 $-1 #
vertex $-1 $360 $467 #
straight-curve $-1 -41.07020779099102 19.247750528586504 88.386888393814985 0.78801074757464917 0 -0.61566148304635926 I I #
vertex $-1 $366 $468 #
straight-curve $-1 -41.07020779099102 9.4912346877809064 88.386888393814985 -0.78801074757464917 0 0.61566148304635926 I I #
edge $-1 $462 -47.938356875275524 $246 -34.114402149016748 $245 $469 forward 7 unknown #
point $-1 57.475828592323936 19.247750528586504 11.394285063433728 #
point $-1 57.475828592323936 9.4912346877809064 11.394285063433728 #
edge $-1 $470 1 $470 0 $249 $-1 forward 7 unknown #
vertex $-1 $250 $471 #
ellipse-curve $-1 62.841127224980269 12.27881064229679 4.014397931041497 0.61566148304635926 0 0.78801074757464917 0.78801074757464917 0 -0.61566148304635926 1 I I #
point $-1 65.175816703027962 12.27881064229679 5.3783949067753118 #
edge $-1 $472 1 $472 0 $253 $-1 forward 7 unknown #
vertex $-1 $254 $473 #
ellipse-curve $-1 62.841127224980269 16.460174574070621 4.014397931041497 0.61566148304635926 0 0.78801074757464917 0.78801074757464917 0 -0.61566148304635926 1 I I #
point $-1 65.175816703027962 16.460174574070621 5.3783949067753118 #
loop $-1 $-1 $474 $257 #
plane-surface $-1 0 0 11.394285063433733 0 0 1 1 0 0 forward_v I I I I #
coedge $-1 $386 $260 $268 $398 reversed $159 $-1 #
coedge $-1 $260 $385 $474 $475 reversed $159 $-1 #
coedge $-1 $392 $476 $262 $388 forward $383 $-1 #
edge $-1 $390 8.2466386795113351 $396 22.070593405770154 $387 $477 forward 7 unknown #
coedge $-1 $268 $263 $476 $478 reversed $258 $-1 #
vertex $-1 $388 $479 #
straight-curve $-1 -71.299783318582712 9.4912346877809064 56.481909412891653 0 0 1 I I #
coedge $-1 $474 $387 $265 $393 forward $383 $-1 #
edge $-1 $396 2.3064883836890537 $394 12.063004224494652 $392 $480 forward 7 unknown #
vertex $-1 $475 $481 #
straight-curve $-1 -71.299783318582698 19.247750528586504 0.59382771620957442 0.78801074757464917 0 0.61566148304635926 I I #
vertex $-1 $393 $482 #
straight-curve $-1 -71.299783318582698 9.4912346877809064 0.59382771620957442 -0.78801074757464917 0 -0.61566148304635926 I I #
edge $-1 $483 45.087624349457919 $269 55.888081696682093 $268 $484 forward 7 unknown #
point $-1 -71.299783318582712 19.247750528586504 0.59382771620956332 #
point $-1 -71.299783318582712 9.4912346877809064 0.59382771620956332 #
edge $-1 $485 1 $485 0 $272 $-1 forward 7 unknown #
vertex $-1 $273 $486 #
ellipse-curve $-1 -62.841127224980269 12.27881064229679 4.0143979310414846 -0.61566148304635926 0 0.78801074757464917 0.78801074757464917 0 0.61566148304635926 1 I I #
point $-1 -63.599795207878664 12.27881064229679 6.6097178728680177 #
edge $-1 $487 1 $487 0 $276 $-1 forward 7 unknown #
vertex $-1 $277 $488 #
ellipse-curve $-1 -62.841127224980269 16.460174574070621 4.0143979310414846 -0.61566148304635926 0 0.78801074757464917 0.78801074757464917 0 0.61566148304635926 1 I I #
point $-1 -63.599795207878664 16.460174574070621 6.6097178728680177 #
plane-surface $-1 71.299783318582712 0 0 -1 0 0 0 0 1 forward_v I I I I #
coedge $-1 $285 $283 $287 $414 reversed $181 $-1 #
edge $-1 $298 -11.394285063433733 $416 11.394285063433733 $297 $489 forward 7 unknown #
vertex $-1 $414 $490 #
straight-curve $-1 -71.299783318582712 -29.847033229957077 0 0 0 -1 I I #
edge $-1 $412 -29.847033229957077 $416 29.847033229957077 $410 $491 forward 7 unknown #
straight-curve $-1 0 -29.847033229957077 -11.394285063433733 -1 0 0 I I #
vertex $-1 $290 $492 #
straight-curve $-1 0 29.847033229957077 -11.394285063433733 1 0 0 I I #
point $-1 71.299783318582712 29.847033229957077 -11.394285063433733 #
point $-1 71.299783318582712 -29.847033229957077 -11.394285063433733 #
straight-curve $-1 -71.299783318582712 0 11.394285063433733 0 -1 0 I I #
point $-1 -71.299783318582712 29.847033229957077 11.394285063433733 #
point $-1 -71.299783318582712 -29.847033229957077 11.394285063433733 #
straight-curve $-1 71.299783318582712 -29.847033229957077 0 0 0 -1 I I #
straight-curve $-1 71.299783318582712 29.847033229957077 0 0 0 -1 I I #
loop $-1 $-1 $433 $307 #
plane-surface $-1 -71.299783318582712 0 0 1 0 0 0 0 -1 forward_v I I I I #
coedge $-1 $311 $310 $439 $493 forward $121 $-1 #
edge $-1 $315 16.15676164908411 $442 29.847033229957077 $314 $494 forward 7 unknown #
coedge $-1 $436 $433 $311 $430 reversed $425 $-1 #
edge $-1 $495 -29.847033229957077 $431 -16.15676164908411 $429 $496 forward 7 unknown #
vertex $-1 $434 $497 #
straight-curve $-1 0 -16.15676164908411 -11.394285063433733 1 0 0 I I #
coedge $-1 $429 $317 $313 $434 forward $425 $-1 #
edge $-1 $319 3.4471425317168665 $431 6.4471425317168665 $433 $498 forward 7 unknown #
point $-1 71.299783318582712 -16.15676164908411 -11.394285063433733 #
coedge $-1 $317 $429 $321 $440 reversed $425 $-1 #
straight-curve $-1 -71.299783318582712 -11.500948719760297 -8.3942850634337329 0 1 0 I I #
point $-1 -71.299783318582712 -16.15676164908411 -8.3942850634337329 #
coedge $-1 $322 $321 $427 $493 reversed $308 $-1 #
edge $-1 $323 8.3942850634337329 $495 11.394285063433733 $436 $499 forward 7 unknown #
point $-1 -71.299783318582712 -29.847033229957077 -8.3942850634337329 #
vertex $-1 $325 $500 #
straight-curve $-1 71.299783318582712 -29.847033229957077 0 0 0 -1 I I #
plane-surface $-1 0 29.847033229957077 0 0 -1 0 0 0 -1 forward_v I I I I #
coedge $-1 $332 $454 $334 $448 forward $329 $-1 #
vertex $-1 $448 $501 #
straight-curve $-1 -71.299783318582712 19.247750528586497 3.9193092207827585 0 0 1 I I #
edge $-1 $450 -17.573337290321181 $446 -6.9740545889506045 $445 $502 forward 7 unknown #
straight-curve $-1 0 19.247750528586497 6.1217385427743132 -1 0 0 I I #
vertex $-1 $337 $503 #
straight-curve $-1 0 29.847033229957077 6.1217385427743132 -1 0 0 I I #
point $-1 71.299783318582712 19.247750528586497 6.1217385427743132 #
point $-1 71.299783318582712 29.847033229957074 6.1217385427743132 #
coedge $-1 $445 $341 $344 $456 forward $329 $-1 #
straight-curve $-1 -71.299783318582712 12.273695939635893 9.5554983403567206 0 1 0 I I #
edge $-1 $346 -9.5554983403567206 $450 -6.1217385427743132 $344 $504 forward 7 unknown #
point $-1 -71.299783318582712 29.847033229957074 9.5554983403567206 #
point $-1 -71.299783318582712 19.247750528586497 9.5554983403567206 #
straight-curve $-1 71.299783318582712 19.247750528586497 3.9193092207827585 0 0 -1 I I #
straight-curve $-1 71.299783318582712 29.847033229957077 0 0 0 -1 I I #
edge $-1 $364 9.4912346877809064 $462 19.247750528586504 $357 $505 forward 7 unknown #
vertex $-1 $360 $506 #
straight-curve $-1 71.299783318582712 19.247750528586504 100.37843975169436 0 0 1 I I #
straight-curve $-1 71.299783318582712 9.4912346877809064 100.37843975169436 0 0 -1 I I #
point $-1 71.299783318582712 9.4912346877809064 11.394285063433733 #
straight-curve $-1 71.299783318582726 7.1847463040918527 0.59382771620958863 0 1 0 I I #
point $-1 71.299783318582712 19.247750528586504 0.59382771620958863 #
point $-1 71.299783318582712 9.4912346877809064 0.59382771620958863 #
straight-curve $-1 23.361426443307188 19.247750528586504 11.394285063433728 -1 0 0 I I #
vertex $-1 $375 $507 #
point $-1 63.629137972554922 12.27881064229679 3.3987364479951379 #
vertex $-1 $379 $508 #
point $-1 63.629137972554922 16.460174574070621 3.3987364479951379 #
coedge $-1 $476 $392 $386 $475 forward $383 $-1 #
edge $-1 $394 -22.070593405770154 $483 -8.2466386795113351 $474 $509 forward 7 unknown #
coedge $-1 $387 $474 $389 $478 forward $383 $-1 #
straight-curve $-1 -79.546421998094047 9.4912346877809064 11.394285063433735 1 0 0 I I #
edge $-1 $483 -19.247750528586504 $390 -9.4912346877809064 $389 $510 forward 7 unknown #
point $-1 -71.299783318582712 9.4912346877809064 11.394285063433733 #
straight-curve $-1 -57.475828592323907 7.1847463040918527 11.394285063433733 0 1 0 I I #
point $-1 -57.475828592323893 19.247750528586504 11.394285063433733 #
point $-1 -57.475828592323893 9.4912346877809064 11.394285063433733 #
vertex $-1 $478 $511 #
straight-curve $-1 -71.299783318582712 19.247750528586504 56.481909412891653 0 0 -1 I I #
vertex $-1 $401 $512 #
point $-1 -62.053116477405624 12.27881064229679 4.6300594140878442 #
vertex $-1 $405 $513 #
point $-1 -62.053116477405624 16.460174574070621 4.6300594140878442 #
straight-curve $-1 -71.299783318582712 29.847033229957077 0 0 0 -1 I I #
point $-1 -71.299783318582712 -29.847033229957077 -11.394285063433733 #
straight-curve $-1 -71.299783318582712 0 -11.394285063433733 0 1 0 I I #
point $-1 -71.299783318582712 29.847033229957077 -11.394285063433733 #
edge $-1 $442 -71.299783318582712 $495 71.299783318582712 $439 $514 forward 7 unknown #
straight-curve $-1 71.299783318582712 0 -11.394285063433733 0 -1 0 I I #
vertex $-1 $430 $515 #
straight-curve $-1 -71.299783318582712 0 -11.394285063433733 0 1 0 I I #
point $-1 -71.299783318582712 -16.15676164908411 -11.394285063433733 #
straight-curve $-1 -71.299783318582712 -16.15676164908411 -4.9471425317168665 0 0 -1 I I #
straight-curve $-1 -71.299783318582712 -29.847033229957077 0 0 0 -1 I I #
point $-1 71.299783318582712 -29.847033229957077 -11.394285063433733 #
point $-1 -71.299783318582712 19.247750528586497 6.1217385427743132 #
straight-curve $-1 -71.299783318582712 12.273695939635893 6.1217385427743132 0 -1 0 I I #
point $-1 -71.299783318582712 29.847033229957074 6.1217385427743132 #
straight-curve $-1 -71.299783318582712 29.847033229957077 0 0 0 -1 I I #
straight-curve $-1 71.299783318582712 0 11.394285063433733 0 1 0 I I #
point $-1 71.299783318582712 19.247750528586504 11.394285063433733 #
point $-1 62.225465741933917 12.27881064229679 3.2263871834668478 #
point $-1 62.225465741933917 16.460174574070621 3.2263871834668478 #
straight-curve $-1 -79.546421998094047 19.247750528586504 11.394285063433735 -1 0 0 I I #
straight-curve $-1 -71.299783318582712 0 11.394285063433733 0 -1 0 I I #
point $-1 -71.299783318582712 19.247750528586504 11.394285063433733 #
point $-1 -62.225465741933917 12.27881064229679 3.2263871834668354 #
point $-1 -62.225465741933917 16.460174574070621 3.2263871834668354 #
straight-curve $-1 0 -29.847033229957077 -11.394285063433733 -1 0 0 I I #
point $-1 -71.299783318582712 -29.847033229957077 -11.394285063433733 #
End-of-ACIS-data 