500 0 17 0           
7 Unknown 11 ACIS 5.0 NT 24 Fri Mar 26 01:07:55 1999 
-1 9.9999999999999995e-007 1e-010 
body $-1 $17 $-1 $18 #
body $-1 $19 $-1 $20 #
body $-1 $21 $-1 $22 #
body $-1 $23 $-1 $24 #
body $-1 $25 $-1 $26 #
body $-1 $27 $-1 $28 #
body $-1 $29 $-1 $30 #
body $-1 $31 $-1 $32 #
body $-1 $33 $-1 $34 #
body $-1 $35 $-1 $36 #
body $-1 $37 $-1 $38 #
body $-1 $39 $-1 $40 #
body $-1 $41 $-1 $42 #
body $-1 $43 $-1 $44 #
body $-1 $45 $-1 $46 #
body $-1 $47 $-1 $48 #
body $-1 $49 $-1 $50 #
lump $-1 $-1 $51 $0 #
transform $-1 1 0 0 0 1 0 0 0 1 71.480452894680624 41.30473767033147 9.2952362165366758 1 rotate no_reflect no_shear #
lump $-1 $-1 $52 $1 #
transform $-1 1 0 0 0 1 0 0 0 1 71.480452894680624 41.30473767033147 9.2952362165366758 1 rotate no_reflect no_shear #
lump $-1 $-1 $53 $2 #
transform $-1 1 0 0 0 1 0 0 0 1 71.480452894680624 41.30473767033147 9.2952362165366758 1 rotate no_reflect no_shear #
lump $-1 $-1 $54 $3 #
transform $-1 1 0 0 0 1 0 0 0 1 71.480452894680624 41.30473767033147 9.2952362165366758 1 rotate no_reflect no_shear #
lump $-1 $-1 $55 $4 #
transform $-1 1 0 0 0 1 0 0 0 1 71.480452894680624 41.30473767033147 9.2952362165366758 1 rotate no_reflect no_shear #
lump $-1 $-1 $56 $5 #
transform $-1 1 0 0 0 1 0 0 0 1 71.480452894680624 41.30473767033147 9.2952362165366758 1 rotate no_reflect no_shear #
lump $-1 $-1 $57 $6 #
transform $-1 1 0 0 0 1 0 0 0 1 71.480452894680624 41.30473767033147 9.2952362165366758 1 rotate no_reflect no_shear #
lump $-1 $-1 $58 $7 #
transform $-1 1 0 0 0 1 0 0 0 1 71.480452894680624 41.30473767033147 9.2952362165366758 1 rotate no_reflect no_shear #
lump $-1 $-1 $59 $8 #
transform $-1 1 0 0 0 1 0 0 0 1 71.480452894680624 41.30473767033147 9.2952362165366758 1 rotate no_reflect no_shear #
lump $-1 $-1 $60 $9 #
transform $-1 1 0 0 0 1 0 0 0 1 71.480452894680624 41.30473767033147 9.2952362165366758 1 rotate no_reflect no_shear #
lump $-1 $-1 $61 $10 #
transform $-1 1 0 0 0 1 0 0 0 1 71.480452894680624 41.30473767033147 9.2952362165366758 1 rotate no_reflect no_shear #
lump $-1 $-1 $62 $11 #
transform $-1 1 0 0 0 1 0 0 0 1 71.480452894680624 41.30473767033147 9.2952362165366758 1 rotate no_reflect no_shear #
lump $-1 $-1 $63 $12 #
transform $-1 1 0 0 0 1 0 0 0 1 71.480452894680624 41.30473767033147 9.2952362165366758 1 rotate no_reflect no_shear #
lump $-1 $-1 $64 $13 #
transform $-1 1 0 0 0 1 0 0 0 1 71.480452894680624 41.30473767033147 9.2952362165366758 1 rotate no_reflect no_shear #
lump $-1 $-1 $65 $14 #
transform $-1 1 0 0 0 1 0 0 0 1 71.480452894680624 41.30473767033147 9.2952362165366758 1 rotate no_reflect no_shear #
lump $-1 $-1 $66 $15 #
transform $-1 1 0 0 0 1 0 0 0 1 71.480452894680624 41.30473767033147 9.2952362165366758 1 rotate no_reflect no_shear #
lump $-1 $-1 $67 $16 #
transform $-1 1 0 0 0 1 0 0 0 1 71.480452894680624 41.30473767033147 9.2952362165366758 1 rotate no_reflect no_shear #
shell $-1 $-1 $-1 $68 $-1 $17 #
shell $-1 $-1 $-1 $69 $-1 $19 #
shell $-1 $-1 $-1 $70 $-1 $21 #
shell $-1 $-1 $-1 $71 $-1 $23 #
shell $-1 $-1 $-1 $72 $-1 $25 #
shell $-1 $-1 $-1 $73 $-1 $27 #
shell $-1 $-1 $-1 $74 $-1 $29 #
shell $-1 $-1 $-1 $75 $-1 $31 #
shell $-1 $-1 $-1 $76 $-1 $33 #
shell $-1 $-1 $-1 $77 $-1 $35 #
shell $-1 $-1 $-1 $78 $-1 $37 #
shell $-1 $-1 $-1 $79 $-1 $39 #
shell $-1 $-1 $-1 $80 $-1 $41 #
shell $-1 $-1 $-1 $81 $-1 $43 #
shell $-1 $-1 $-1 $82 $-1 $45 #
shell $-1 $-1 $-1 $83 $-1 $47 #
shell $-1 $-1 $-1 $84 $-1 $49 #
face $-1 $85 $86 $51 $-1 $87 reversed single #
face $-1 $88 $89 $52 $-1 $90 forward single #
face $-1 $91 $92 $53 $-1 $93 forward single #
face $-1 $94 $95 $54 $-1 $96 reversed single #
face $-1 $97 $98 $55 $-1 $99 forward single #
face $-1 $100 $101 $56 $-1 $102 forward single #
face $-1 $103 $104 $57 $-1 $105 forward single #
face $-1 $106 $107 $58 $-1 $108 reversed single #
face $-1 $109 $110 $59 $-1 $111 forward single #
face $-1 $112 $113 $60 $-1 $114 forward single #
face $-1 $115 $116 $61 $-1 $117 forward single #
face $-1 $118 $119 $62 $-1 $120 reversed single #
face $-1 $121 $122 $63 $-1 $123 forward single #
face $-1 $124 $125 $64 $-1 $126 forward single #
face $-1 $127 $128 $65 $-1 $129 reversed single #
face $-1 $130 $131 $66 $-1 $132 forward single #
face $-1 $133 $134 $67 $-1 $135 forward single #
face $-1 $136 $137 $51 $-1 $138 forward single #
loop $-1 $-1 $139 $68 #
plane-surface $-1 71.480452894680624 0 0 -1 0 0 0 0 1 forward_v I I I I #
face $-1 $140 $141 $52 $-1 $142 reversed single #
loop $-1 $-1 $143 $69 #
plane-surface $-1 -71.480452894680624 0 0 1 0 0 0 0 -1 forward_v I I I I #
face $-1 $144 $145 $53 $-1 $146 reversed single #
loop $-1 $-1 $147 $70 #
plane-surface $-1 71.480452894680624 0 0 -1 0 0 0 0 1 forward_v I I I I #
face $-1 $148 $149 $54 $-1 $150 reversed single #
loop $-1 $-1 $151 $71 #
plane-surface $-1 -31.281278860583669 92.268868671235055 158.95385818900445 1 0 0 0 -0.74314483375859142 -0.66913059716165679 forward_v I I I I #
face $-1 $152 $153 $55 $-1 $154 forward single #
loop $-1 $155 $156 $72 #
cone-surface $-1 -26.581336930154137 37.514813498304967 5.1832502048216398 0 -0.74314483375859142 -0.66913059716165679 1 0 0 1 I I 0 1 1 forward I I I I #
face $-1 $157 $158 $56 $-1 $159 forward single #
loop $-1 $160 $161 $73 #
cone-surface $-1 -19.53142403450984 37.514813498304967 5.1832502048216398 0 -0.74314483375859142 -0.66913059716165679 1 0 0 1 I I 0 1 1 forward I I I I #
face $-1 $162 $163 $57 $-1 $164 forward single #
loop $-1 $165 $166 $74 #
cone-surface $-1 -12.481511138865542 37.514813498304967 5.1832502048216398 0 -0.74314483375859142 -0.66913059716165679 1 0 0 1 I I 0 1 1 forward I I I I #
face $-1 $167 $168 $58 $-1 $169 reversed single #
loop $-1 $-1 $170 $75 #
plane-surface $-1 7.7815692084360109 92.268868671235055 158.95385818900445 1 0 0 0 -0.74314483375859142 -0.66913059716165679 forward_v I I I I #
face $-1 $171 $172 $59 $-1 $173 forward single #
loop $-1 $174 $175 $76 #
cone-surface $-1 12.481511138865542 37.514813498304967 5.1832502048216398 0 -0.74314483375859142 -0.66913059716165679 1 0 0 1 I I 0 1 1 forward I I I I #
face $-1 $176 $177 $60 $-1 $178 forward single #
loop $-1 $179 $180 $77 #
cone-surface $-1 19.53142403450984 37.514813498304967 5.1832502048216398 0 -0.74314483375859142 -0.66913059716165679 1 0 0 1 I I 0 1 1 forward I I I I #
face $-1 $181 $182 $61 $-1 $183 forward single #
loop $-1 $184 $185 $78 #
cone-surface $-1 26.581336930154137 37.514813498304967 5.1832502048216398 0 -0.74314483375859142 -0.66913059716165679 1 0 0 1 I I 0 1 1 forward I I I I #
face $-1 $186 $187 $62 $-1 $188 reversed single #
loop $-1 $-1 $189 $79 #
plane-surface $-1 -10.525798384140433 -114.93504835493917 123.96829747933113 -1 0 0 0 -0.51503808176128008 0.85716729658548041 forward_v I I I I #
face $-1 $190 $191 $63 $-1 $192 forward single #
loop $-1 $193 $194 $80 #
cone-surface $-1 -24.206517772815673 -33.714958890490159 3.6265305788244495 0 0.51503808176128008 -0.85716729658548041 1.5 0 0 1 I I 0 1 1.5 forward I I I I #
face $-1 $195 $196 $64 $-1 $197 forward single #
loop $-1 $198 $199 $81 #
cone-surface $-1 -15.998086139610535 -33.714958890490159 3.6265305788244495 0 0.51503808176128008 -0.85716729658548041 1.5 0 0 1 I I 0 1 1.5 forward I I I I #
face $-1 $200 $201 $65 $-1 $202 reversed single #
loop $-1 $-1 $203 $82 #
plane-surface $-1 29.678805528285775 -114.93504835493917 123.96829747933113 -1 0 0 0 -0.51503808176128008 0.85716729658548041 forward_v I I I I #
face $-1 $204 $205 $66 $-1 $206 forward single #
loop $-1 $207 $208 $83 #
cone-surface $-1 15.998086139610521 -33.714958890490159 3.6265305788244495 0 0.51503808176128008 -0.85716729658548041 1.5 0 0 1 I I 0 1 1.5 forward I I I I #
face $-1 $209 $210 $67 $-1 $211 forward single #
loop $-1 $212 $213 $84 #
cone-surface $-1 24.206517772815673 -33.714958890490159 3.6265305788244495 0 0.51503808176128008 -0.85716729658548041 1.5 0 0 1 I I 0 1 1.5 forward I I I I #
face $-1 $214 $215 $51 $-1 $216 reversed single #
loop $-1 $-1 $217 $85 #
plane-surface $-1 0 0 9.2952362165366758 0 0 1 1 0 0 forward_v I I I I #
coedge $-1 $218 $219 $220 $221 reversed $86 $-1 #
face $-1 $222 $223 $52 $-1 $224 forward single #
loop $-1 $-1 $225 $88 #
plane-surface $-1 0 41.30473767033147 0 0 -1 0 0 0 -1 forward_v I I I I #
coedge $-1 $226 $227 $228 $229 forward $89 $-1 #
face $-1 $230 $231 $53 $-1 $232 forward single #
loop $-1 $-1 $233 $91 #
plane-surface $-1 0 -41.30473767033147 0 0 1 0 0 0 1 forward_v I I I I #
coedge $-1 $234 $235 $236 $237 forward $92 $-1 #
face $-1 $238 $239 $54 $-1 $240 reversed single #
loop $-1 $-1 $241 $94 #
plane-surface $-1 -19.53142403450984 -13.971789895577459 63.294341927397795 0 0.74314483375859142 0.66913059716165679 1 0 0 forward_v I I I I #
coedge $-1 $242 $243 $244 $245 reversed $95 $-1 #
face $-1 $-1 $246 $55 $-1 $247 forward single #
loop $-1 $248 $249 $97 #
cone-surface $-1 -26.581336930154137 36.681074712141559 4.4325484485559379 0 -0.74314483375859142 -0.66913059716165679 0.5 0 0 1 I I -0.70710678118654746 0.70710678118654746 0.5 forward I I I I #
loop $-1 $-1 $250 $72 #
coedge $-1 $156 $156 $251 $252 reversed $98 $-1 #
face $-1 $-1 $253 $56 $-1 $254 forward single #
loop $-1 $255 $256 $100 #
cone-surface $-1 -19.53142403450984 36.681074712141559 4.4325484485559379 0 -0.74314483375859142 -0.66913059716165679 0.5 0 0 1 I I -0.70710678118654746 0.70710678118654746 0.5 forward I I I I #
loop $-1 $-1 $257 $73 #
coedge $-1 $161 $161 $258 $259 reversed $101 $-1 #
face $-1 $-1 $260 $57 $-1 $261 forward single #
loop $-1 $262 $263 $103 #
cone-surface $-1 -12.481511138865542 36.681074712141559 4.4325484485559379 0 -0.74314483375859142 -0.66913059716165679 0.5 0 0 1 I I -0.70710678118654746 0.70710678118654746 0.5 forward I I I I #
loop $-1 $-1 $264 $74 #
coedge $-1 $166 $166 $265 $266 reversed $104 $-1 #
face $-1 $267 $268 $58 $-1 $269 reversed single #
loop $-1 $-1 $270 $106 #
plane-surface $-1 19.53142403450984 -13.971789895577459 63.294341927397795 0 0.74314483375859142 0.66913059716165679 1 0 0 forward_v I I I I #
coedge $-1 $271 $272 $273 $274 reversed $107 $-1 #
face $-1 $-1 $275 $59 $-1 $276 forward single #
loop $-1 $277 $278 $109 #
cone-surface $-1 12.481511138865542 36.681074712141559 4.4325484485559379 0 -0.74314483375859142 -0.66913059716165679 0.5 0 0 1 I I -0.70710678118654746 0.70710678118654746 0.5 forward I I I I #
loop $-1 $-1 $279 $76 #
coedge $-1 $175 $175 $280 $281 reversed $110 $-1 #
face $-1 $-1 $282 $60 $-1 $283 forward single #
loop $-1 $284 $285 $112 #
cone-surface $-1 19.53142403450984 36.681074712141559 4.4325484485559379 0 -0.74314483375859142 -0.66913059716165679 0.5 0 0 1 I I -0.70710678118654746 0.70710678118654746 0.5 forward I I I I #
loop $-1 $-1 $286 $77 #
coedge $-1 $180 $180 $287 $288 reversed $113 $-1 #
face $-1 $-1 $289 $61 $-1 $290 forward single #
loop $-1 $291 $292 $115 #
cone-surface $-1 26.581336930154137 36.681074712141559 4.4325484485559379 0 -0.74314483375859142 -0.66913059716165679 0.5 0 0 1 I I -0.70710678118654746 0.70710678118654746 0.5 forward I I I I #
loop $-1 $-1 $293 $78 #
coedge $-1 $185 $185 $294 $295 reversed $116 $-1 #
face $-1 $296 $297 $62 $-1 $298 reversed single #
loop $-1 $-1 $299 $118 #
plane-surface $-1 -20.102301956213097 -41.304737670331477 1.4268843464527947 0 -0.51503808176128008 0.85716729658548041 1 0 0 forward_v I I I I #
coedge $-1 $300 $301 $302 $303 reversed $119 $-1 #
face $-1 $-1 $304 $63 $-1 $305 forward single #
loop $-1 $306 $307 $121 #
cone-surface $-1 -24.206517772815673 -32.286469719431857 1.2491254037150643 0 0.51503808176128008 -0.85716729658548041 0.75 0 0 1 I I -0.70710678118654757 0.70710678118654757 0.75 forward I I I I #
loop $-1 $-1 $308 $80 #
coedge $-1 $194 $194 $309 $310 reversed $122 $-1 #
face $-1 $-1 $311 $64 $-1 $312 forward single #
loop $-1 $313 $314 $124 #
cone-surface $-1 -15.998086139610535 -32.286469719431857 1.2491254037150643 0 0.51503808176128008 -0.85716729658548041 0.75 0 0 1 I I -0.70710678118654757 0.70710678118654757 0.75 forward I I I I #
loop $-1 $-1 $315 $81 #
coedge $-1 $199 $199 $316 $317 reversed $125 $-1 #
face $-1 $318 $319 $65 $-1 $320 reversed single #
loop $-1 $-1 $321 $127 #
plane-surface $-1 20.102301956213111 -41.304737670331477 1.4268843464527947 0 -0.51503808176128008 0.85716729658548041 1 0 0 forward_v I I I I #
coedge $-1 $322 $323 $324 $325 reversed $128 $-1 #
face $-1 $-1 $326 $66 $-1 $327 forward single #
loop $-1 $328 $329 $130 #
cone-surface $-1 15.998086139610521 -32.286469719431857 1.2491254037150643 0 0.51503808176128008 -0.85716729658548041 0.75 0 0 1 I I -0.70710678118654757 0.70710678118654757 0.75 forward I I I I #
loop $-1 $-1 $330 $83 #
coedge $-1 $208 $208 $331 $332 reversed $131 $-1 #
face $-1 $-1 $333 $67 $-1 $334 forward single #
loop $-1 $335 $336 $133 #
cone-surface $-1 24.206517772815673 -32.286469719431857 1.2491254037150643 0 0.51503808176128008 -0.85716729658548041 0.75 0 0 1 I I -0.70710678118654757 0.70710678118654757 0.75 forward I I I I #
loop $-1 $-1 $337 $84 #
coedge $-1 $213 $213 $338 $339 reversed $134 $-1 #
face $-1 $340 $341 $51 $-1 $342 reversed single #
loop $-1 $-1 $343 $136 #
plane-surface $-1 0 0 -9.2952362165366758 0 0 1 1 0 0 forward_v I I I I #
coedge $-1 $344 $345 $218 $346 forward $137 $-1 #
coedge $-1 $347 $139 $217 $346 reversed $86 $-1 #
coedge $-1 $139 $347 $343 $348 reversed $86 $-1 #
coedge $-1 $349 $350 $139 $221 forward $351 $-1 #
edge $-1 $352 -9.2952362165366758 $353 9.2952362165366758 $139 $354 forward 7 unknown #
face $-1 $355 $356 $52 $-1 $357 reversed single #
loop $-1 $-1 $228 $140 #
plane-surface $-1 -77.206686616494636 0 -2.2542859248847833 0 0 1 1 0 0 forward_v I I I I #
coedge $-1 $358 $359 $227 $360 forward $141 $-1 #
coedge $-1 $361 $143 $362 $363 reversed $89 $-1 #
coedge $-1 $143 $361 $225 $360 reversed $89 $-1 #
coedge $-1 $364 $365 $143 $229 reversed $223 $-1 #
edge $-1 $366 -41.30473767033147 $367 41.30473767033147 $228 $368 forward 7 unknown #
face $-1 $369 $370 $53 $-1 $371 reversed single #
loop $-1 $-1 $372 $144 #
plane-surface $-1 77.206686616494622 0 -2.2542859248847833 0 0 1 1 0 0 forward_v I I I I #
coedge $-1 $373 $374 $235 $375 forward $145 $-1 #
coedge $-1 $376 $147 $377 $378 reversed $92 $-1 #
coedge $-1 $147 $376 $233 $375 reversed $92 $-1 #
coedge $-1 $379 $380 $147 $237 reversed $231 $-1 #
edge $-1 $381 -41.30473767033147 $382 41.30473767033147 $236 $383 forward 7 unknown #
face $-1 $384 $385 $54 $-1 $386 reversed single #
loop $-1 $-1 $387 $148 #
plane-surface $-1 -7.7815692084360109 92.268868671235055 158.95385818900445 -1 0 0 0 0.74314483375859142 0.66913059716165679 forward_v I I I I #
coedge $-1 $388 $389 $390 $391 reversed $149 $-1 #
coedge $-1 $243 $151 $392 $393 reversed $95 $-1 #
coedge $-1 $151 $242 $388 $394 reversed $95 $-1 #
coedge $-1 $390 $395 $151 $245 forward $396 $-1 #
edge $-1 $397 4.8296966652860576 $398 11.485212270770781 $244 $399 forward 7 unknown #
loop $-1 $-1 $251 $152 #
plane-surface $-1 -19.53142403450984 -13.971789895577459 63.294341927397795 0 0.74314483375859142 0.66913059716165679 1 0 0 forward_v I I I I #
loop $-1 $-1 $400 $97 #
coedge $-1 $249 $249 $250 $401 reversed $153 $-1 #
coedge $-1 $250 $250 $249 $401 forward $155 $-1 #
coedge $-1 $251 $251 $156 $252 forward $246 $-1 #
edge $-1 $402 7.8352071815921243e-016 $402 6.2831853071796013 $251 $403 forward 7 unknown #
loop $-1 $-1 $258 $157 #
plane-surface $-1 -19.53142403450984 -13.971789895577459 63.294341927397795 0 0.74314483375859142 0.66913059716165679 1 0 0 forward_v I I I I #
loop $-1 $-1 $404 $100 #
coedge $-1 $256 $256 $257 $405 reversed $158 $-1 #
coedge $-1 $257 $257 $256 $405 forward $160 $-1 #
coedge $-1 $258 $258 $161 $259 forward $253 $-1 #
edge $-1 $406 7.8352071815921243e-016 $406 6.2831853071796013 $258 $407 forward 7 unknown #
loop $-1 $-1 $265 $162 #
plane-surface $-1 -19.53142403450984 -13.971789895577459 63.294341927397795 0 0.74314483375859142 0.66913059716165679 1 0 0 forward_v I I I I #
loop $-1 $-1 $408 $103 #
coedge $-1 $263 $263 $264 $409 reversed $163 $-1 #
coedge $-1 $264 $264 $263 $409 forward $165 $-1 #
coedge $-1 $265 $265 $166 $266 forward $260 $-1 #
edge $-1 $410 7.8352071815921243e-016 $410 6.2831853071796013 $265 $411 forward 7 unknown #
face $-1 $412 $413 $58 $-1 $414 forward single #
loop $-1 $-1 $415 $167 #
plane-surface $-1 31.281278860583669 92.268868671235055 158.95385818900445 -1 0 0 0 0.74314483375859142 0.66913059716165679 forward_v I I I I #
coedge $-1 $416 $417 $418 $419 reversed $168 $-1 #
coedge $-1 $272 $170 $420 $421 reversed $107 $-1 #
coedge $-1 $170 $271 $416 $422 reversed $107 $-1 #
coedge $-1 $418 $423 $170 $274 forward $413 $-1 #
edge $-1 $424 4.8296966652860576 $425 11.485212270770781 $273 $426 forward 7 unknown #
loop $-1 $-1 $280 $171 #
plane-surface $-1 19.53142403450984 -13.971789895577459 63.294341927397795 0 0.74314483375859142 0.66913059716165679 1 0 0 forward_v I I I I #
loop $-1 $-1 $427 $109 #
coedge $-1 $278 $278 $279 $428 reversed $172 $-1 #
coedge $-1 $279 $279 $278 $428 forward $174 $-1 #
coedge $-1 $280 $280 $175 $281 forward $275 $-1 #
edge $-1 $429 7.8352071815921243e-016 $429 6.2831853071796013 $280 $430 forward 7 unknown #
loop $-1 $-1 $287 $176 #
plane-surface $-1 19.53142403450984 -13.971789895577459 63.294341927397795 0 0.74314483375859142 0.66913059716165679 1 0 0 forward_v I I I I #
loop $-1 $-1 $431 $112 #
coedge $-1 $285 $285 $286 $432 reversed $177 $-1 #
coedge $-1 $286 $286 $285 $432 forward $179 $-1 #
coedge $-1 $287 $287 $180 $288 forward $282 $-1 #
edge $-1 $433 7.8352071815921243e-016 $433 6.2831853071796013 $287 $434 forward 7 unknown #
loop $-1 $-1 $294 $181 #
plane-surface $-1 19.53142403450984 -13.971789895577459 63.294341927397795 0 0.74314483375859142 0.66913059716165679 1 0 0 forward_v I I I I #
loop $-1 $-1 $435 $115 #
coedge $-1 $292 $292 $293 $436 reversed $182 $-1 #
coedge $-1 $293 $293 $292 $436 forward $184 $-1 #
coedge $-1 $294 $294 $185 $295 forward $289 $-1 #
edge $-1 $437 7.8352071815921243e-016 $437 6.2831853071796013 $294 $438 forward 7 unknown #
face $-1 $439 $440 $62 $-1 $441 forward single #
loop $-1 $-1 $442 $186 #
plane-surface $-1 -29.678805528285761 -114.93504835493917 123.96829747933113 1 0 0 0 0.51503808176128008 -0.85716729658548041 forward_v I I I I #
coedge $-1 $443 $444 $445 $446 reversed $187 $-1 #
coedge $-1 $301 $189 $447 $448 reversed $119 $-1 #
coedge $-1 $189 $300 $443 $449 reversed $119 $-1 #
coedge $-1 $445 $450 $189 $303 forward $440 $-1 #
edge $-1 $451 16.162786507138115 $452 29.257922847346016 $302 $453 forward 7 unknown #
loop $-1 $-1 $309 $190 #
plane-surface $-1 -20.102301956213097 -41.304737670331477 1.4268843464527947 0 -0.51503808176128008 0.85716729658548041 1 0 0 forward_v I I I I #
loop $-1 $-1 $454 $121 #
coedge $-1 $307 $307 $308 $455 reversed $191 $-1 #
coedge $-1 $308 $308 $307 $455 forward $193 $-1 #
coedge $-1 $309 $309 $194 $310 forward $304 $-1 #
edge $-1 $456 1.7164800119815054e-015 $456 6.2831853071796022 $309 $457 forward 7 unknown #
loop $-1 $-1 $316 $195 #
plane-surface $-1 -20.102301956213097 -41.304737670331477 1.4268843464527947 0 -0.51503808176128008 0.85716729658548041 1 0 0 forward_v I I I I #
loop $-1 $-1 $458 $124 #
coedge $-1 $314 $314 $315 $459 reversed $196 $-1 #
coedge $-1 $315 $315 $314 $459 forward $198 $-1 #
coedge $-1 $316 $316 $199 $317 forward $311 $-1 #
edge $-1 $460 1.7164800119815054e-015 $460 6.2831853071796022 $316 $461 forward 7 unknown #
face $-1 $462 $463 $65 $-1 $464 reversed single #
loop $-1 $-1 $465 $200 #
plane-surface $-1 10.525798384140447 -114.93504835493917 123.96829747933113 1 0 0 0 0.51503808176128008 -0.85716729658548041 forward_v I I I I #
coedge $-1 $466 $467 $468 $469 reversed $201 $-1 #
coedge $-1 $323 $203 $470 $471 reversed $128 $-1 #
coedge $-1 $203 $322 $466 $472 reversed $128 $-1 #
coedge $-1 $468 $473 $203 $325 forward $474 $-1 #
edge $-1 $475 16.162786507138115 $476 29.257922847346016 $324 $477 forward 7 unknown #
loop $-1 $-1 $331 $204 #
plane-surface $-1 20.102301956213111 -41.304737670331477 1.4268843464527947 0 -0.51503808176128008 0.85716729658548041 1 0 0 forward_v I I I I #
loop $-1 $-1 $478 $130 #
coedge $-1 $329 $329 $330 $479 reversed $205 $-1 #
coedge $-1 $330 $330 $329 $479 forward $207 $-1 #
coedge $-1 $331 $331 $208 $332 forward $326 $-1 #
edge $-1 $480 1.7164800119815054e-015 $480 6.2831853071796022 $331 $481 forward 7 unknown #
loop $-1 $-1 $338 $209 #
plane-surface $-1 20.102301956213111 -41.304737670331477 1.4268843464527947 0 -0.51503808176128008 0.85716729658548041 1 0 0 forward_v I I I I #
loop $-1 $-1 $482 $133 #
coedge $-1 $336 $336 $337 $483 reversed $210 $-1 #
coedge $-1 $337 $337 $336 $483 forward $212 $-1 #
coedge $-1 $338 $338 $213 $339 forward $333 $-1 #
edge $-1 $484 1.7164800119815054e-015 $484 6.2831853071796022 $338 $485 forward 7 unknown #
face $-1 $486 $487 $51 $-1 $488 reversed single #
loop $-1 $-1 $489 $214 #
plane-surface $-1 0 -41.30473767033147 0 0 1 0 0 0 1 forward_v I I I I #
coedge $-1 $490 $491 $219 $348 forward $215 $-1 #
coedge $-1 $492 $217 $350 $493 forward $137 $-1 #
coedge $-1 $217 $492 $494 $495 forward $137 $-1 #
edge $-1 $496 -41.30473767033147 $352 41.30473767033147 $218 $497 forward 7 unknown #
coedge $-1 $219 $218 $498 $499 forward $86 $-1 #
edge $-1 $353 -41.30473767033147 $500 41.30473767033147 $219 $501 forward 7 unknown #
coedge $-1 $502 $220 $491 $503 reversed $351 $-1 #
coedge $-1 $220 $502 $344 $493 reversed $351 $-1 #
loop $-1 $-1 $220 $486 #
vertex $-1 $346 $504 #
vertex $-1 $348 $505 #
straight-curve $-1 71.480452894680624 41.30473767033147 0 0 0 -1 I I #
face $-1 $506 $507 $52 $-1 $508 reversed single #
loop $-1 $-1 $509 $222 #
plane-surface $-1 -77.206686616494636 0 -5.6572155371877297 0 0 1 1 0 0 forward_v I I I I #
coedge $-1 $510 $225 $511 $512 reversed $141 $-1 #
coedge $-1 $225 $510 $364 $513 reversed $141 $-1 #
edge $-1 $366 2.2542859248847833 $514 5.6572155371877297 $225 $515 forward 7 unknown #
coedge $-1 $227 $226 $509 $516 forward $89 $-1 #
coedge $-1 $517 $518 $226 $363 forward $519 $-1 #
edge $-1 $520 -5.6572155371877297 $367 -2.2542859248847833 $362 $521 forward 7 unknown #
coedge $-1 $522 $228 $359 $513 forward $223 $-1 #
coedge $-1 $228 $522 $517 $523 forward $223 $-1 #
vertex $-1 $360 $524 #
vertex $-1 $523 $525 #
straight-curve $-1 -71.480452894680624 0 -2.2542859248847833 0 -1 0 I I #
face $-1 $526 $527 $53 $-1 $528 reversed single #
loop $-1 $-1 $529 $230 #
plane-surface $-1 77.206686616494622 0 -5.6572155371877297 0 0 1 1 0 0 forward_v I I I I #
coedge $-1 $380 $379 $530 $531 forward $231 $-1 #
coedge $-1 $532 $233 $533 $534 reversed $145 $-1 #
coedge $-1 $233 $532 $379 $535 reversed $145 $-1 #
edge $-1 $381 2.2542859248847833 $536 5.6572155371877297 $233 $537 forward 7 unknown #
coedge $-1 $235 $234 $538 $539 forward $92 $-1 #
coedge $-1 $540 $541 $234 $378 forward $542 $-1 #
edge $-1 $543 -5.6572155371877297 $382 -2.2542859248847833 $377 $544 forward 7 unknown #
coedge $-1 $372 $236 $374 $535 forward $231 $-1 #
coedge $-1 $236 $372 $540 $545 forward $231 $-1 #
vertex $-1 $375 $546 #
vertex $-1 $545 $547 #
straight-curve $-1 71.480452894680624 0 -2.2542859248847833 0 1 0 I I #
face $-1 $-1 $396 $54 $-1 $548 forward single #
loop $-1 $-1 $549 $238 #
plane-surface $-1 0 41.30473767033147 0 0 -1 0 0 0 -1 forward_v I I I I #
coedge $-1 $550 $551 $552 $553 reversed $239 $-1 #
coedge $-1 $554 $241 $243 $394 forward $149 $-1 #
coedge $-1 $241 $554 $550 $555 forward $149 $-1 #
coedge $-1 $552 $244 $241 $391 forward $396 $-1 #
edge $-1 $398 -21.515566843328749 $556 1.984142808818909 $390 $557 forward 7 unknown #
coedge $-1 $558 $559 $242 $393 forward $385 $-1 #
edge $-1 $560 -77.573391986025825 $397 -70.181692877965546 $392 $561 forward 7 unknown #
edge $-1 $398 72.662963204293192 $560 82.609475340662897 $243 $562 forward 7 unknown #
coedge $-1 $244 $552 $558 $563 forward $396 $-1 #
loop $-1 $-1 $552 $384 #
vertex $-1 $393 $564 #
vertex $-1 $245 $565 #
straight-curve $-1 -31.281278860583669 46.134434335617527 9.2952362165366793 0 -1 0 I I #
coedge $-1 $400 $400 $-1 $566 reversed $248 $-1 #
edge $-1 $567 0 $567 6.2831853071796004 $249 $568 forward 7 unknown #
vertex $-1 $252 $569 #
ellipse-curve $-1 -26.581336930154137 37.976979867589108 5.5993866625065394 0 0.74314483375859142 0.66913059716165679 1 0 0 1 I I #
coedge $-1 $404 $404 $-1 $570 reversed $255 $-1 #
edge $-1 $571 0 $571 6.2831853071796004 $256 $572 forward 7 unknown #
vertex $-1 $259 $573 #
ellipse-curve $-1 -19.53142403450984 37.976979867589108 5.5993866625065394 0 0.74314483375859142 0.66913059716165679 1 0 0 1 I I #
coedge $-1 $408 $408 $-1 $574 reversed $262 $-1 #
edge $-1 $575 0 $575 6.2831853071796004 $263 $576 forward 7 unknown #
vertex $-1 $266 $577 #
ellipse-curve $-1 -12.481511138865542 37.976979867589108 5.5993866625065394 0 0.74314483375859142 0.66913059716165679 1 0 0 1 I I #
face $-1 $-1 $578 $58 $-1 $579 reversed single #
loop $-1 $-1 $273 $267 #
plane-surface $-1 0 0 9.2952362165366758 0 0 1 1 0 0 forward_v I I I I #
coedge $-1 $580 $581 $582 $583 reversed $268 $-1 #
coedge $-1 $584 $270 $272 $422 forward $168 $-1 #
coedge $-1 $270 $584 $580 $585 forward $168 $-1 #
coedge $-1 $582 $273 $270 $419 forward $413 $-1 #
edge $-1 $425 -1.984142808818909 $586 21.515566843328749 $418 $587 forward 7 unknown #
coedge $-1 $588 $589 $271 $421 forward $578 $-1 #
edge $-1 $590 -77.573391986025825 $424 -70.181692877965546 $420 $591 forward 7 unknown #
edge $-1 $425 72.662963204293192 $590 82.609475340662897 $272 $592 forward 7 unknown #
coedge $-1 $273 $582 $588 $593 forward $413 $-1 #
vertex $-1 $274 $594 #
vertex $-1 $274 $595 #
straight-curve $-1 7.7815692084360109 46.134434335617527 9.2952362165366793 0 -1 0 I I #
coedge $-1 $427 $427 $-1 $596 reversed $277 $-1 #
edge $-1 $597 0 $597 6.2831853071796004 $278 $598 forward 7 unknown #
vertex $-1 $281 $599 #
ellipse-curve $-1 12.481511138865542 37.976979867589108 5.5993866625065394 0 0.74314483375859142 0.66913059716165679 1 0 0 1 I I #
coedge $-1 $431 $431 $-1 $600 reversed $284 $-1 #
edge $-1 $601 0 $601 6.2831853071796004 $285 $602 forward 7 unknown #
vertex $-1 $288 $603 #
ellipse-curve $-1 19.53142403450984 37.976979867589108 5.5993866625065394 0 0.74314483375859142 0.66913059716165679 1 0 0 1 I I #
coedge $-1 $435 $435 $-1 $604 reversed $291 $-1 #
edge $-1 $605 0 $605 6.2831853071796004 $292 $606 forward 7 unknown #
vertex $-1 $295 $607 #
ellipse-curve $-1 26.581336930154137 37.976979867589108 5.5993866625065394 0 0.74314483375859142 0.66913059716165679 1 0 0 1 I I #
face $-1 $-1 $608 $62 $-1 $609 reversed single #
loop $-1 $-1 $302 $296 #
plane-surface $-1 0 0 9.2952362165366758 0 0 1 1 0 0 forward_v I I I I #
coedge $-1 $610 $611 $612 $613 reversed $297 $-1 #
coedge $-1 $614 $299 $301 $449 forward $187 $-1 #
coedge $-1 $299 $614 $610 $615 forward $187 $-1 #
coedge $-1 $612 $302 $299 $446 forward $440 $-1 #
edge $-1 $452 0.47464740603388478 $616 19.627654550179212 $445 $617 forward 7 unknown #
coedge $-1 $618 $619 $300 $448 forward $608 $-1 #
edge $-1 $620 -60.557264393212762 $451 -52.688912523128892 $447 $621 forward 7 unknown #
edge $-1 $452 -15.277223468945078 $620 -8.2634070795339233e-015 $301 $622 forward 7 unknown #
coedge $-1 $302 $612 $618 $623 forward $440 $-1 #
vertex $-1 $448 $624 #
vertex $-1 $303 $625 #
straight-curve $-1 -10.525798384140433 -57.467524177469585 9.2952362165366793 0 1 0 I I #
coedge $-1 $454 $454 $-1 $626 reversed $306 $-1 #
edge $-1 $627 0 $627 6.2831853071796004 $307 $628 forward 7 unknown #
vertex $-1 $310 $629 #
ellipse-curve $-1 -24.206517772815673 -34.757169500227512 5.3610602814947423 0 -0.51503808176128008 0.85716729658548041 1.5 0 0 1 I I #
coedge $-1 $458 $458 $-1 $630 reversed $313 $-1 #
edge $-1 $631 0 $631 6.2831853071796004 $314 $632 forward 7 unknown #
vertex $-1 $317 $633 #
ellipse-curve $-1 -15.998086139610535 -34.757169500227512 5.3610602814947423 0 -0.51503808176128008 0.85716729658548041 1.5 0 0 1 I I #
face $-1 $-1 $474 $65 $-1 $634 forward single #
loop $-1 $-1 $635 $318 #
plane-surface $-1 0 -41.30473767033147 0 0 1 0 0 0 1 forward_v I I I I #
coedge $-1 $636 $637 $638 $639 reversed $319 $-1 #
coedge $-1 $640 $321 $323 $472 forward $201 $-1 #
coedge $-1 $321 $640 $636 $641 forward $201 $-1 #
coedge $-1 $638 $324 $321 $469 forward $474 $-1 #
edge $-1 $476 -19.627654550179219 $642 -0.47464740603389188 $468 $643 forward 7 unknown #
coedge $-1 $644 $645 $322 $471 forward $463 $-1 #
edge $-1 $646 -60.557264393212762 $475 -52.688912523128892 $470 $647 forward 7 unknown #
edge $-1 $476 -15.277223468945078 $646 -8.2634070795339233e-015 $323 $648 forward 7 unknown #
coedge $-1 $324 $638 $644 $649 forward $474 $-1 #
loop $-1 $-1 $638 $462 #
vertex $-1 $471 $650 #
vertex $-1 $325 $651 #
straight-curve $-1 29.678805528285775 -57.467524177469585 9.2952362165366793 0 1 0 I I #
coedge $-1 $478 $478 $-1 $652 reversed $328 $-1 #
edge $-1 $653 0 $653 6.2831853071796004 $329 $654 forward 7 unknown #
vertex $-1 $332 $655 #
ellipse-curve $-1 15.998086139610521 -34.757169500227512 5.3610602814947423 0 -0.51503808176128008 0.85716729658548041 1.5 0 0 1 I I #
coedge $-1 $482 $482 $-1 $656 reversed $335 $-1 #
edge $-1 $657 0 $657 6.2831853071796004 $336 $658 forward 7 unknown #
vertex $-1 $339 $659 #
ellipse-curve $-1 24.206517772815673 -34.757169500227512 5.3610602814947423 0 -0.51503808176128008 0.85716729658548041 1.5 0 0 1 I I #
face $-1 $-1 $351 $51 $-1 $660 reversed single #
loop $-1 $-1 $661 $340 #
plane-surface $-1 -71.480452894680624 0 0 1 0 0 0 0 -1 forward_v I I I I #
coedge $-1 $662 $494 $661 $663 forward $341 $-1 #
coedge $-1 $664 $343 $662 $665 forward $215 $-1 #
coedge $-1 $343 $664 $349 $503 forward $215 $-1 #
coedge $-1 $345 $344 $666 $667 forward $137 $-1 #
edge $-1 $352 -71.480452894680624 $668 71.480452894680624 $350 $669 forward 7 unknown #
coedge $-1 $489 $498 $345 $495 reversed $341 $-1 #
edge $-1 $670 -71.480452894680624 $496 71.480452894680624 $494 $671 forward 7 unknown #
vertex $-1 $346 $672 #
straight-curve $-1 71.480452894680624 0 9.2952362165366758 0 1 0 I I #
coedge $-1 $494 $662 $347 $499 reversed $341 $-1 #
edge $-1 $496 -9.2952362165366758 $500 9.2952362165366758 $347 $673 forward 7 unknown #
vertex $-1 $499 $674 #
straight-curve $-1 71.480452894680624 0 -9.2952362165366758 0 -1 0 I I #
coedge $-1 $350 $349 $675 $676 reversed $351 $-1 #
edge $-1 $677 -71.480452894680624 $353 71.480452894680624 $349 $678 forward 7 unknown #
point $-1 71.480452894680624 41.30473767033147 9.2952362165366758 #
point $-1 71.480452894680624 41.30473767033147 -9.2952362165366758 #
face $-1 $-1 $519 $52 $-1 $679 reversed single #
loop $-1 $-1 $680 $355 #
plane-surface $-1 -82.932920338308648 0 -3.9557507310362565 1 0 0 0 0 -1 forward_v I I I I #
coedge $-1 $681 $511 $361 $516 reversed $356 $-1 #
coedge $-1 $359 $358 $680 $682 reversed $141 $-1 #
coedge $-1 $509 $683 $358 $512 forward $356 $-1 #
edge $-1 $684 -5.7262337218140118 $514 5.7262337218140118 $358 $685 forward 7 unknown #
edge $-1 $366 -5.7262337218140118 $686 5.7262337218140118 $359 $687 forward 7 unknown #
vertex $-1 $360 $688 #
straight-curve $-1 -71.480452894680624 41.30473767033147 0 0 0 -1 I I #
edge $-1 $520 -41.30473767033147 $514 41.30473767033147 $509 $689 forward 7 unknown #
coedge $-1 $690 $362 $365 $523 reversed $519 $-1 #
coedge $-1 $362 $690 $681 $691 reversed $519 $-1 #
loop $-1 $-1 $362 $506 #
vertex $-1 $363 $692 #
straight-curve $-1 -71.480452894680624 -41.30473767033147 0 0 0 1 I I #
coedge $-1 $365 $364 $693 $694 forward $223 $-1 #
edge $-1 $695 -5.7262337218140118 $367 5.7262337218140118 $517 $696 forward 7 unknown #
point $-1 -71.480452894680624 41.30473767033147 -2.2542859248847833 #
point $-1 -71.480452894680624 -41.30473767033147 -2.2542859248847833 #
face $-1 $-1 $542 $53 $-1 $697 reversed single #
loop $-1 $-1 $698 $369 #
plane-surface $-1 82.932920338308634 0 -3.9557507310362565 -1 0 0 0 0 1 forward_v I I I I #
coedge $-1 $533 $699 $700 $701 forward $370 $-1 #
coedge $-1 $698 $702 $372 $531 reversed $527 $-1 #
edge $-1 $703 -41.30473767033147 $704 41.30473767033147 $530 $705 forward 7 unknown #
coedge $-1 $374 $373 $698 $706 reversed $145 $-1 #
coedge $-1 $538 $529 $373 $534 forward $370 $-1 #
edge $-1 $707 -5.7262337218140118 $536 5.7262337218140118 $373 $708 forward 7 unknown #
edge $-1 $381 -5.7262337218140118 $703 5.7262337218140118 $374 $709 forward 7 unknown #
vertex $-1 $375 $710 #
straight-curve $-1 71.480452894680624 -41.30473767033147 0 0 0 -1 I I #
coedge $-1 $699 $533 $376 $539 reversed $370 $-1 #
edge $-1 $543 -41.30473767033147 $536 41.30473767033147 $538 $711 forward 7 unknown #
coedge $-1 $712 $377 $380 $545 reversed $542 $-1 #
coedge $-1 $377 $712 $699 $713 reversed $542 $-1 #
loop $-1 $-1 $377 $526 #
vertex $-1 $378 $714 #
straight-curve $-1 71.480452894680624 41.30473767033147 0 0 0 1 I I #
edge $-1 $704 -5.7262337218140118 $382 5.7262337218140118 $540 $715 forward 7 unknown #
point $-1 71.48045289468061 -41.30473767033147 -2.2542859248847833 #
point $-1 71.48045289468061 41.30473767033147 -2.2542859248847833 #
plane-surface $-1 0 0 9.2952362165366758 0 0 1 1 0 0 forward_v I I I I #
coedge $-1 $559 $558 $551 $716 forward $385 $-1 #
coedge $-1 $551 $387 $389 $555 reversed $239 $-1 #
coedge $-1 $387 $550 $549 $716 reversed $239 $-1 #
coedge $-1 $395 $390 $387 $553 forward $396 $-1 #
edge $-1 $556 -11.485212270770781 $717 -4.8296966652860576 $552 $718 forward 7 unknown #
coedge $-1 $389 $388 $559 $719 reversed $149 $-1 #
edge $-1 $720 -82.609475340662897 $556 -72.662963204293192 $550 $721 forward 7 unknown #
vertex $-1 $391 $722 #
straight-curve $-1 -9.7657120172549199 34.649222064846739 9.2952362165366793 1 0 0 I I #
coedge $-1 $549 $392 $395 $563 reversed $385 $-1 #
coedge $-1 $392 $549 $554 $719 forward $385 $-1 #
vertex $-1 $393 $723 #
straight-curve $-1 -31.281278860583669 41.30473767033147 79.476929094502225 0 0 1 I I #
straight-curve $-1 -31.281278860583669 -13.971789895577459 63.294341927397795 0 0.66913059716165679 -0.74314483375859142 I I #
edge $-1 $717 7.7815692084360109 $397 31.281278860583669 $558 $724 forward 7 unknown #
point $-1 -31.281278860583669 41.30473767033147 9.2952362165366758 #
point $-1 -31.281278860583669 34.649222064846747 9.2952362165366722 #
edge $-1 $725 1 $725 0 $400 $-1 forward 7 unknown #
vertex $-1 $401 $726 #
ellipse-curve $-1 -26.581336930154137 37.052647129020855 4.7671137471367659 0 0.74314483375859142 0.66913059716165679 1 0 0 1 I I #
point $-1 -25.581336930154137 37.97697986758908 5.5993866625065127 #
edge $-1 $727 1 $727 0 $404 $-1 forward 7 unknown #
vertex $-1 $405 $728 #
ellipse-curve $-1 -19.53142403450984 37.052647129020855 4.7671137471367659 0 0.74314483375859142 0.66913059716165679 1 0 0 1 I I #
point $-1 -18.53142403450984 37.97697986758908 5.5993866625065127 #
edge $-1 $729 1 $729 0 $408 $-1 forward 7 unknown #
vertex $-1 $409 $730 #
ellipse-curve $-1 -12.481511138865542 37.052647129020855 4.7671137471367659 0 0.74314483375859142 0.66913059716165679 1 0 0 1 I I #
point $-1 -11.481511138865542 37.97697986758908 5.5993866625065127 #
loop $-1 $-1 $420 $412 #
plane-surface $-1 0 41.30473767033147 0 0 -1 0 0 0 -1 forward_v I I I I #
coedge $-1 $581 $415 $417 $585 reversed $268 $-1 #
coedge $-1 $415 $580 $731 $732 reversed $268 $-1 #
coedge $-1 $423 $418 $415 $583 forward $413 $-1 #
edge $-1 $586 -11.485212270770781 $733 -4.8296966652860576 $582 $734 forward 7 unknown #
coedge $-1 $417 $416 $589 $735 reversed $168 $-1 #
edge $-1 $736 -82.609475340662897 $586 -72.662963204293192 $580 $737 forward 7 unknown #
vertex $-1 $419 $738 #
straight-curve $-1 9.7657120172549199 34.649222064846739 9.2952362165366793 1 0 0 I I #
coedge $-1 $731 $420 $423 $593 reversed $578 $-1 #
coedge $-1 $420 $731 $584 $735 forward $578 $-1 #
vertex $-1 $421 $739 #
straight-curve $-1 7.7815692084360109 41.30473767033147 79.476929094502225 0 0 1 I I #
straight-curve $-1 7.7815692084360109 -13.971789895577459 63.294341927397795 0 0.66913059716165679 -0.74314483375859142 I I #
edge $-1 $733 -31.281278860583669 $424 -7.7815692084360109 $588 $740 forward 7 unknown #
point $-1 7.7815692084360109 41.30473767033147 9.2952362165366758 #
point $-1 7.7815692084360109 34.649222064846747 9.2952362165366722 #
edge $-1 $741 1 $741 0 $427 $-1 forward 7 unknown #
vertex $-1 $428 $742 #
ellipse-curve $-1 12.481511138865542 37.052647129020855 4.7671137471367659 0 0.74314483375859142 0.66913059716165679 1 0 0 1 I I #
point $-1 13.481511138865542 37.97697986758908 5.5993866625065127 #
edge $-1 $743 1 $743 0 $431 $-1 forward 7 unknown #
vertex $-1 $432 $744 #
ellipse-curve $-1 19.53142403450984 37.052647129020855 4.7671137471367659 0 0.74314483375859142 0.66913059716165679 1 0 0 1 I I #
point $-1 20.53142403450984 37.97697986758908 5.5993866625065127 #
edge $-1 $745 1 $745 0 $435 $-1 forward 7 unknown #
vertex $-1 $436 $746 #
ellipse-curve $-1 26.581336930154137 37.052647129020855 4.7671137471367659 0 0.74314483375859142 0.66913059716165679 1 0 0 1 I I #
point $-1 27.581336930154137 37.97697986758908 5.5993866625065127 #
loop $-1 $-1 $447 $439 #
plane-surface $-1 0 -41.30473767033147 0 0 1 0 0 0 1 forward_v I I I I #
coedge $-1 $611 $442 $444 $615 reversed $297 $-1 #
coedge $-1 $442 $610 $747 $748 reversed $297 $-1 #
coedge $-1 $450 $445 $442 $613 forward $440 $-1 #
edge $-1 $616 -29.257922847346016 $749 -16.162786507138115 $612 $750 forward 7 unknown #
coedge $-1 $444 $443 $619 $751 reversed $187 $-1 #
edge $-1 $752 8.2634070795339233e-015 $616 15.277223468945078 $610 $753 forward 7 unknown #
vertex $-1 $446 $754 #
straight-curve $-1 -10.051150978106548 -28.209601330123569 9.2952362165366758 -1 0 0 I I #
coedge $-1 $747 $447 $450 $623 reversed $608 $-1 #
coedge $-1 $447 $747 $614 $751 forward $608 $-1 #
vertex $-1 $448 $755 #
straight-curve $-1 -10.525798384140433 -41.30473767033147 61.984148739665564 0 0 1 I I #
straight-curve $-1 -10.525798384140433 -41.304737670331477 1.4268843464527947 0 -0.85716729658548041 -0.51503808176128008 I I #
edge $-1 $749 -29.678805528285761 $451 -10.525798384140433 $618 $756 forward 7 unknown #
point $-1 -10.525798384140433 -41.30473767033147 9.2952362165366758 #
point $-1 -10.525798384140433 -28.209601330123569 9.2952362165366758 #
edge $-1 $757 1 $757 0 $454 $-1 forward 7 unknown #
vertex $-1 $455 $758 #
ellipse-curve $-1 -24.206517772815673 -32.672748280752813 1.8920008761541747 0 -0.51503808176128008 0.85716729658548041 1.5 0 0 1 I I #
point $-1 -22.706517772815673 -34.757169500227498 5.3610602814947237 #
edge $-1 $759 1 $759 0 $458 $-1 forward 7 unknown #
vertex $-1 $459 $760 #
ellipse-curve $-1 -15.998086139610535 -32.672748280752813 1.8920008761541747 0 -0.51503808176128008 0.85716729658548041 1.5 0 0 1 I I #
point $-1 -14.498086139610535 -34.757169500227498 5.3610602814947237 #
plane-surface $-1 0 0 9.2952362165366758 0 0 1 1 0 0 forward_v I I I I #
coedge $-1 $645 $644 $637 $761 forward $463 $-1 #
coedge $-1 $637 $465 $467 $641 reversed $319 $-1 #
coedge $-1 $465 $636 $635 $761 reversed $319 $-1 #
coedge $-1 $473 $468 $465 $639 forward $474 $-1 #
edge $-1 $642 -29.257922847346016 $762 -16.162786507138115 $638 $763 forward 7 unknown #
coedge $-1 $467 $466 $645 $764 reversed $201 $-1 #
edge $-1 $765 8.2634070795339233e-015 $642 15.277223468945078 $636 $766 forward 7 unknown #
vertex $-1 $469 $767 #
straight-curve $-1 10.051150978106556 -28.209601330123569 9.2952362165366758 -1 0 0 I I #
coedge $-1 $635 $470 $473 $649 reversed $463 $-1 #
coedge $-1 $470 $635 $640 $764 forward $463 $-1 #
vertex $-1 $471 $768 #
straight-curve $-1 29.678805528285775 -41.30473767033147 61.984148739665564 0 0 1 I I #
straight-curve $-1 29.678805528285775 -41.304737670331477 1.4268843464527947 0 -0.85716729658548041 -0.51503808176128008 I I #
edge $-1 $762 10.525798384140447 $475 29.678805528285775 $644 $769 forward 7 unknown #
point $-1 29.678805528285775 -41.30473767033147 9.2952362165366758 #
point $-1 29.678805528285775 -28.209601330123569 9.2952362165366758 #
edge $-1 $770 1 $770 0 $478 $-1 forward 7 unknown #
vertex $-1 $479 $771 #
ellipse-curve $-1 15.998086139610521 -32.672748280752813 1.8920008761541747 0 -0.51503808176128008 0.85716729658548041 1.5 0 0 1 I I #
point $-1 17.498086139610521 -34.757169500227498 5.3610602814947237 #
edge $-1 $772 1 $772 0 $482 $-1 forward 7 unknown #
vertex $-1 $483 $773 #
ellipse-curve $-1 24.206517772815673 -32.672748280752813 1.8920008761541747 0 -0.51503808176128008 0.85716729658548041 1.5 0 0 1 I I #
point $-1 25.706517772815673 -34.757169500227498 5.3610602814947237 #
plane-surface $-1 0 41.30473767033147 0 0 -1 0 0 0 -1 forward_v I I I I #
coedge $-1 $666 $774 $489 $663 reversed $487 $-1 #
coedge $-1 $498 $489 $490 $665 reversed $341 $-1 #
edge $-1 $670 -9.2952362165366758 $775 9.2952362165366758 $661 $776 forward 7 unknown #
coedge $-1 $491 $490 $774 $777 forward $215 $-1 #
edge $-1 $500 -71.480452894680624 $775 71.480452894680624 $662 $778 forward 7 unknown #
coedge $-1 $675 $661 $492 $667 reversed $487 $-1 #
edge $-1 $668 -41.30473767033147 $670 41.30473767033147 $666 $779 forward 7 unknown #
vertex $-1 $493 $780 #
straight-curve $-1 0 41.30473767033147 9.2952362165366758 -1 0 0 I I #
vertex $-1 $667 $781 #
straight-curve $-1 0 -41.30473767033147 9.2952362165366758 1 0 0 I I #
point $-1 71.480452894680624 -41.30473767033147 9.2952362165366758 #
straight-curve $-1 71.480452894680624 -41.30473767033147 0 0 0 -1 I I #
point $-1 71.480452894680624 -41.30473767033147 -9.2952362165366758 #
coedge $-1 $774 $666 $502 $676 forward $487 $-1 #
edge $-1 $668 -9.2952362165366758 $677 9.2952362165366758 $502 $782 forward 7 unknown #
vertex $-1 $503 $783 #
straight-curve $-1 0 41.30473767033147 -9.2952362165366758 1 0 0 I I #
plane-surface $-1 0 -41.30473767033147 0 0 1 0 0 0 1 forward_v I I I I #
coedge $-1 $784 $693 $510 $682 forward $507 $-1 #
coedge $-1 $683 $509 $518 $691 forward $356 $-1 #
edge $-1 $686 -1.7014648061514732 $684 1.7014648061514732 $510 $785 forward 7 unknown #
coedge $-1 $511 $681 $784 $786 forward $356 $-1 #
vertex $-1 $512 $787 #
straight-curve $-1 -77.206686616494636 41.30473767033147 -5.6572155371877297 1 0 0 I I #
vertex $-1 $513 $788 #
straight-curve $-1 -77.206686616494636 41.30473767033147 -2.2542859248847833 -1 0 0 I I #
point $-1 -71.480452894680624 41.30473767033147 -5.6572155371877297 #
straight-curve $-1 -71.480452894680624 0 -5.6572155371877297 0 1 0 I I #
coedge $-1 $518 $517 $789 $790 forward $519 $-1 #
edge $-1 $520 -5.7262337218140118 $791 5.7262337218140118 $518 $792 forward 7 unknown #
point $-1 -71.480452894680624 -41.30473767033147 -5.6572155371877297 #
coedge $-1 $680 $789 $522 $694 reversed $507 $-1 #
edge $-1 $686 -41.30473767033147 $695 41.30473767033147 $693 $793 forward 7 unknown #
vertex $-1 $694 $794 #
straight-curve $-1 -77.206686616494636 -41.30473767033147 -2.2542859248847833 1 0 0 I I #
plane-surface $-1 0 41.30473767033147 0 0 -1 0 0 0 -1 forward_v I I I I #
coedge $-1 $700 $530 $532 $706 forward $527 $-1 #
coedge $-1 $529 $538 $541 $713 forward $370 $-1 #
coedge $-1 $702 $698 $529 $701 reversed $527 $-1 #
edge $-1 $795 -41.30473767033147 $707 41.30473767033147 $700 $796 forward 7 unknown #
coedge $-1 $530 $700 $712 $797 reversed $527 $-1 #
vertex $-1 $531 $798 #
vertex $-1 $531 $799 #
straight-curve $-1 82.932920338308634 0 -2.2542859248847833 0 1 0 I I #
edge $-1 $703 -1.7014648061514732 $707 1.7014648061514732 $698 $800 forward 7 unknown #
vertex $-1 $706 $801 #
straight-curve $-1 77.206686616494622 -41.30473767033147 -5.6572155371877297 -1 0 0 I I #
straight-curve $-1 77.206686616494622 -41.30473767033147 -2.2542859248847833 1 0 0 I I #
point $-1 71.48045289468061 -41.30473767033147 -5.6572155371877297 #
straight-curve $-1 71.480452894680624 0 -5.6572155371877297 0 -1 0 I I #
coedge $-1 $541 $540 $702 $797 forward $542 $-1 #
edge $-1 $543 -5.7262337218140118 $795 5.7262337218140118 $541 $802 forward 7 unknown #
point $-1 71.48045289468061 41.30473767033147 -5.6572155371877297 #
straight-curve $-1 77.206686616494622 41.30473767033147 -2.2542859248847833 -1 0 0 I I #
edge $-1 $717 70.181692877965546 $720 77.573391986025825 $549 $803 forward 7 unknown #
vertex $-1 $563 $804 #
straight-curve $-1 -7.7815692084360109 46.134434335617527 9.2952362165366793 0 1 0 I I #
edge $-1 $720 -1.984142808818909 $560 21.515566843328749 $559 $805 forward 7 unknown #
vertex $-1 $719 $806 #
straight-curve $-1 -7.7815692084360109 -13.971789895577459 63.294341927397795 0 -0.66913059716165679 0.74314483375859142 I I #
point $-1 -7.7815692084360109 34.649222064846747 9.2952362165366722 #
point $-1 -31.281278860583669 41.30473767033147 1.9035371084764066 #
straight-curve $-1 0 41.30473767033147 9.2952362165366758 -1 0 0 I I #
vertex $-1 $566 $807 #
point $-1 -25.581336930154137 37.052647129020855 4.7671137471367659 #
vertex $-1 $570 $808 #
point $-1 -18.53142403450984 37.052647129020855 4.7671137471367659 #
vertex $-1 $574 $809 #
point $-1 -11.481511138865542 37.052647129020855 4.7671137471367659 #
coedge $-1 $589 $588 $581 $732 forward $578 $-1 #
edge $-1 $733 70.181692877965546 $736 77.573391986025825 $731 $810 forward 7 unknown #
vertex $-1 $593 $811 #
straight-curve $-1 31.281278860583669 46.134434335617527 9.2952362165366793 0 1 0 I I #
edge $-1 $736 -21.515566843328749 $590 1.984142808818909 $589 $812 forward 7 unknown #
vertex $-1 $735 $813 #
straight-curve $-1 31.281278860583669 -13.971789895577459 63.294341927397795 0 -0.66913059716165679 0.74314483375859142 I I #
point $-1 31.281278860583669 34.649222064846747 9.2952362165366722 #
point $-1 7.7815692084360109 41.30473767033147 1.9035371084764066 #
straight-curve $-1 0 41.30473767033147 9.2952362165366758 -1 0 0 I I #
vertex $-1 $596 $814 #
point $-1 13.481511138865542 37.052647129020855 4.7671137471367659 #
vertex $-1 $600 $815 #
point $-1 20.53142403450984 37.052647129020855 4.7671137471367659 #
vertex $-1 $604 $816 #
point $-1 27.581336930154137 37.052647129020855 4.7671137471367659 #
coedge $-1 $619 $618 $611 $748 forward $608 $-1 #
edge $-1 $749 52.688912523128892 $752 60.557264393212762 $747 $817 forward 7 unknown #
vertex $-1 $623 $818 #
straight-curve $-1 -29.678805528285761 -57.467524177469585 9.2952362165366793 0 -1 0 I I #
edge $-1 $752 -19.627654550179212 $620 -0.47464740603388478 $619 $819 forward 7 unknown #
vertex $-1 $751 $820 #
straight-curve $-1 -29.678805528285761 -41.304737670331477 1.4268843464527947 0 0.85716729658548041 0.51503808176128008 I I #
point $-1 -29.678805528285761 -28.209601330123569 9.2952362165366758 #
point $-1 -10.525798384140433 -41.30473767033147 1.4268843464527989 #
straight-curve $-1 0 -41.30473767033147 9.2952362165366758 1 0 0 I I #
vertex $-1 $626 $821 #
point $-1 -22.706517772815673 -32.672748280752813 1.8920008761541747 #
vertex $-1 $630 $822 #
point $-1 -14.498086139610535 -32.672748280752813 1.8920008761541747 #
edge $-1 $762 52.688912523128892 $765 60.557264393212762 $635 $823 forward 7 unknown #
vertex $-1 $649 $824 #
straight-curve $-1 10.525798384140447 -57.467524177469585 9.2952362165366793 0 -1 0 I I #
edge $-1 $765 0.47464740603389188 $646 19.627654550179219 $645 $825 forward 7 unknown #
vertex $-1 $764 $826 #
straight-curve $-1 10.525798384140447 -41.304737670331477 1.4268843464527947 0 0.85716729658548041 0.51503808176128008 I I #
point $-1 10.525798384140447 -28.209601330123569 9.2952362165366758 #
point $-1 29.678805528285775 -41.30473767033147 1.4268843464527989 #
straight-curve $-1 0 -41.30473767033147 9.2952362165366758 1 0 0 I I #
vertex $-1 $652 $827 #
point $-1 17.498086139610521 -32.672748280752813 1.8920008761541747 #
vertex $-1 $656 $828 #
point $-1 25.706517772815673 -32.672748280752813 1.8920008761541747 #
coedge $-1 $661 $675 $664 $777 reversed $487 $-1 #
vertex $-1 $777 $829 #
straight-curve $-1 -71.480452894680624 -41.30473767033147 0 0 0 -1 I I #
edge $-1 $775 -41.30473767033147 $677 41.30473767033147 $774 $830 forward 7 unknown #
straight-curve $-1 0 -41.30473767033147 -9.2952362165366758 -1 0 0 I I #
straight-curve $-1 -71.480452894680624 0 9.2952362165366758 0 -1 0 I I #
point $-1 -71.480452894680624 41.30473767033147 9.2952362165366758 #
point $-1 -71.480452894680624 -41.30473767033147 9.2952362165366758 #
straight-curve $-1 -71.480452894680624 41.30473767033147 0 0 0 -1 I I #
point $-1 -71.480452894680624 41.30473767033147 -9.2952362165366758 #
coedge $-1 $789 $680 $683 $786 reversed $507 $-1 #
straight-curve $-1 -82.932920338308648 41.30473767033147 -3.9557507310362565 0 0 -1 I I #
edge $-1 $791 -41.30473767033147 $684 41.30473767033147 $784 $831 forward 7 unknown #
point $-1 -82.932920338308648 41.30473767033147 -5.6572155371877297 #
point $-1 -82.932920338308648 41.30473767033147 -2.2542859248847833 #
coedge $-1 $693 $784 $690 $790 reversed $507 $-1 #
edge $-1 $695 -1.7014648061514732 $791 1.7014648061514732 $789 $832 forward 7 unknown #
vertex $-1 $786 $833 #
straight-curve $-1 -77.206686616494636 -41.30473767033147 -5.6572155371877297 -1 0 0 I I #
straight-curve $-1 -82.932920338308648 0 -2.2542859248847833 0 -1 0 I I #
point $-1 -82.932920338308648 -41.30473767033147 -2.2542859248847833 #
vertex $-1 $701 $834 #
straight-curve $-1 82.932920338308634 0 -5.6572155371877297 0 -1 0 I I #
edge $-1 $704 -1.7014648061514732 $795 1.7014648061514732 $702 $835 forward 7 unknown #
point $-1 82.932920338308634 -41.30473767033147 -2.2542859248847833 #
point $-1 82.932920338308634 41.30473767033147 -2.2542859248847833 #
straight-curve $-1 82.932920338308634 -41.30473767033147 -3.9557507310362565 0 0 -1 I I #
point $-1 82.932920338308634 -41.30473767033147 -5.6572155371877297 #
straight-curve $-1 77.206686616494622 41.30473767033147 -5.6572155371877297 1 0 0 I I #
straight-curve $-1 -7.7815692084360109 41.30473767033147 79.476929094502225 0 0 -1 I I #
point $-1 -7.7815692084360109 41.30473767033147 9.2952362165366758 #
straight-curve $-1 -9.7657120172549199 41.304737670331463 1.9035371084764137 -1 0 0 I I #
point $-1 -7.7815692084360109 41.30473767033147 1.9035371084764066 #
point $-1 -26.581336930154137 36.309502295262263 4.0979831499751098 #
point $-1 -19.53142403450984 36.309502295262263 4.0979831499751098 #
point $-1 -12.481511138865542 36.309502295262263 4.0979831499751098 #
straight-curve $-1 31.281278860583669 41.30473767033147 79.476929094502225 0 0 -1 I I #
point $-1 31.281278860583669 41.30473767033147 9.2952362165366758 #
straight-curve $-1 9.7657120172549199 41.304737670331463 1.9035371084764137 -1 0 0 I I #
point $-1 31.281278860583669 41.30473767033147 1.9035371084764066 #
point $-1 12.481511138865542 36.309502295262263 4.0979831499751098 #
point $-1 19.53142403450984 36.309502295262263 4.0979831499751098 #
point $-1 26.581336930154137 36.309502295262263 4.0979831499751098 #
straight-curve $-1 -29.678805528285761 -41.30473767033147 61.984148739665564 0 0 -1 I I #
point $-1 -29.678805528285761 -41.30473767033147 9.2952362165366758 #
straight-curve $-1 -10.051150978106548 -41.30473767033147 1.4268843464528009 1 0 0 I I #
point $-1 -29.678805528285761 -41.30473767033147 1.4268843464527989 #
point $-1 -24.206517772815673 -31.900191158110896 0.60624993127595395 #
point $-1 -15.998086139610535 -31.900191158110896 0.60624993127595395 #
straight-curve $-1 10.525798384140447 -41.30473767033147 61.984148739665564 0 0 -1 I I #
point $-1 10.525798384140447 -41.30473767033147 9.2952362165366758 #
straight-curve $-1 10.051150978106556 -41.30473767033147 1.4268843464528009 1 0 0 I I #
point $-1 10.525798384140447 -41.30473767033147 1.4268843464527989 #
point $-1 15.998086139610521 -31.900191158110896 0.60624993127595395 #
point $-1 24.206517772815673 -31.900191158110896 0.60624993127595395 #
point $-1 -71.480452894680624 -41.30473767033147 -9.2952362165366758 #
straight-curve $-1 -71.480452894680624 0 -9.2952362165366758 0 1 0 I I #
straight-curve $-1 -82.932920338308648 0 -5.6572155371877297 0 1 0 I I #
straight-curve $-1 -82.932920338308648 -41.30473767033147 -3.9557507310362565 0 0 -1 I I #
point $-1 -82.932920338308648 -41.30473767033147 -5.6572155371877297 #
point $-1 82.932920338308634 41.30473767033147 -5.6572155371877297 #
straight-curve $-1 82.932920338308634 41.30473767033147 -3.9557507310362565 0 0 -1 I I #
End-of-ACIS-data 