500 0 9 0           
7 Unknown 11 ACIS 5.0 NT 24 Fri Mar 26 20:37:42 1999 
-1 9.9999999999999995e-007 1e-010 
body $-1 $9 $-1 $10 #
body $-1 $11 $-1 $12 #
body $-1 $13 $-1 $14 #
body $-1 $15 $-1 $16 #
body $-1 $17 $-1 $18 #
body $-1 $19 $-1 $20 #
body $-1 $21 $-1 $22 #
body $-1 $23 $-1 $24 #
body $-1 $25 $-1 $26 #
lump $-1 $-1 $27 $0 #
transform $-1 1 0 0 0 1 0 0 0 1 48.015381328775902 31.591210713604571 9.1368372085256251 1 rotate no_reflect no_shear #
lump $-1 $-1 $28 $1 #
transform $-1 1 0 0 0 1 0 0 0 1 48.015381328775902 31.591210713604571 9.1368372085256251 1 rotate no_reflect no_shear #
lump $-1 $-1 $29 $2 #
transform $-1 1 0 0 0 1 0 0 0 1 48.015381328775902 31.591210713604571 9.1368372085256251 1 rotate no_reflect no_shear #
lump $-1 $-1 $30 $3 #
transform $-1 1 0 0 0 1 0 0 0 1 48.015381328775902 31.591210713604571 9.1368372085256251 1 rotate no_reflect no_shear #
lump $-1 $-1 $31 $4 #
transform $-1 1 0 0 0 1 0 0 0 1 48.015381328775902 31.591210713604571 9.1368372085256251 1 rotate no_reflect no_shear #
lump $-1 $-1 $32 $5 #
transform $-1 1 0 0 0 1 0 0 0 1 48.015381328775902 31.591210713604571 9.1368372085256251 1 rotate no_reflect no_shear #
lump $-1 $-1 $33 $6 #
transform $-1 1 0 0 0 1 0 0 0 1 48.015381328775902 31.591210713604571 9.1368372085256251 1 rotate no_reflect no_shear #
lump $-1 $-1 $34 $7 #
transform $-1 1 0 0 0 1 0 0 0 1 48.015381328775902 31.591210713604571 9.1368372085256251 1 rotate no_reflect no_shear #
lump $-1 $-1 $35 $8 #
transform $-1 1 0 0 0 1 0 0 0 1 48.015381328775902 31.591210713604571 9.1368372085256251 1 rotate no_reflect no_shear #
shell $-1 $-1 $-1 $36 $-1 $9 #
shell $-1 $-1 $-1 $37 $-1 $11 #
shell $-1 $-1 $-1 $38 $-1 $13 #
shell $-1 $-1 $-1 $39 $-1 $15 #
shell $-1 $-1 $-1 $40 $-1 $17 #
shell $-1 $-1 $-1 $41 $-1 $19 #
shell $-1 $-1 $-1 $42 $-1 $21 #
shell $-1 $-1 $-1 $43 $-1 $23 #
shell $-1 $-1 $-1 $44 $-1 $25 #
face $-1 $45 $46 $27 $-1 $47 forward single #
face $-1 $48 $49 $28 $-1 $50 reversed single #
face $-1 $51 $52 $29 $-1 $53 forward single #
face $-1 $54 $55 $30 $-1 $56 reversed single #
face $-1 $57 $58 $31 $-1 $59 forward single #
face $-1 $60 $61 $32 $-1 $62 reversed single #
face $-1 $63 $64 $33 $-1 $65 forward single #
face $-1 $66 $67 $34 $-1 $68 forward single #
face $-1 $69 $70 $35 $-1 $71 forward single #
face $-1 $72 $73 $27 $-1 $74 reversed single #
loop $-1 $-1 $75 $36 #
plane-surface $-1 0 0 9.1368372085256251 0 0 1 1 0 0 forward_v I I I I #
face $-1 $76 $77 $28 $-1 $78 reversed single #
loop $-1 $-1 $79 $37 #
plane-surface $-1 -27.820094850907324 79.54833544490242 108.70971392617663 1 0 0 0 -0.84804810408105047 -0.52991925155115449 forward_v I I I I #
face $-1 $80 $81 $29 $-1 $82 forward single #
loop $-1 $83 $84 $38 #
cone-surface $-1 -22.32046022872559 28.517331675892461 5.7234862030533513 0 -0.84804810408105047 -0.52991925155115449 1 0 0 1 I I 0 1 1 forward I I I I #
face $-1 $85 $86 $30 $-1 $87 reversed single #
loop $-1 $-1 $88 $39 #
plane-surface $-1 20.195286477868574 79.54833544490242 108.70971392617663 1 0 0 0 -0.84804810408105047 -0.52991925155115449 forward_v I I I I #
face $-1 $89 $90 $31 $-1 $91 forward single #
loop $-1 $92 $93 $40 #
cone-surface $-1 25.694921100050308 28.517331675892461 5.7234862030533513 0 -0.84804810408105047 -0.52991925155115449 1 0 0 1 I I 0 1 1 forward I I I I #
face $-1 $94 $95 $32 $-1 $96 reversed single #
loop $-1 $-1 $97 $41 #
plane-surface $-1 34.181670356324688 -31.591210713604582 1.0793356984995199 0 -0.6018150307709319 0.79863550430605224 1 0 0 forward_v I I I I #
face $-1 $98 $99 $33 $-1 $100 forward single #
loop $-1 $101 $102 $42 #
cone-surface $-1 25.881443772853956 -25.269437890430833 3.8136337427115041 0 0.6018150307709319 -0.79863550430605224 1.5 0 0 1 I I 0 1 1.5 forward I I I I #
face $-1 $103 $104 $34 $-1 $105 forward single #
loop $-1 $106 $107 $43 #
cone-surface $-1 34.181670356324688 -25.269437890430833 3.8136337427115041 0 0.6018150307709319 -0.79863550430605224 1.5 0 0 1 I I 0 1 1.5 forward I I I I #
face $-1 $108 $109 $35 $-1 $110 forward single #
loop $-1 $111 $112 $44 #
cone-surface $-1 42.481896939795419 -25.269437890430833 3.8136337427115041 0 0.6018150307709319 -0.79863550430605224 1.5 0 0 1 I I 0 1 1.5 forward I I I I #
face $-1 $113 $114 $27 $-1 $115 reversed single #
loop $-1 $-1 $116 $45 #
plane-surface $-1 0 0 -9.1368372085256251 0 0 1 1 0 0 forward_v I I I I #
coedge $-1 $117 $118 $119 $120 forward $46 $-1 #
face $-1 $121 $122 $28 $-1 $123 reversed single #
loop $-1 $-1 $124 $48 #
plane-surface $-1 -22.32046022872559 -1.8903707602917308 57.821164052800228 0 0.84804810408105047 0.52991925155115449 1 0 0 forward_v I I I I #
coedge $-1 $125 $126 $127 $128 reversed $49 $-1 #
face $-1 $-1 $129 $29 $-1 $130 forward single #
loop $-1 $131 $132 $51 #
cone-surface $-1 -22.32046022872559 26.549547947585371 4.4938785009655309 0 -0.84804810408105047 -0.52991925155115449 0.5 0 0 1 I I -0.70710678118654746 0.70710678118654746 0.5 forward I I I I #
loop $-1 $-1 $133 $38 #
coedge $-1 $84 $84 $134 $135 reversed $52 $-1 #
face $-1 $136 $137 $30 $-1 $138 reversed single #
loop $-1 $-1 $139 $54 #
plane-surface $-1 25.694921100050308 -1.8903707602917308 57.821164052800228 0 0.84804810408105047 0.52991925155115449 1 0 0 forward_v I I I I #
coedge $-1 $140 $141 $142 $143 reversed $55 $-1 #
face $-1 $-1 $144 $31 $-1 $145 forward single #
loop $-1 $146 $147 $57 #
cone-surface $-1 25.694921100050308 26.549547947585371 4.4938785009655309 0 -0.84804810408105047 -0.52991925155115449 0.5 0 0 1 I I -0.70710678118654746 0.70710678118654746 0.5 forward I I I I #
loop $-1 $-1 $148 $40 #
coedge $-1 $93 $93 $149 $150 reversed $58 $-1 #
face $-1 $151 $152 $32 $-1 $153 reversed single #
loop $-1 $-1 $154 $60 #
plane-surface $-1 20.347959383873473 -89.383967097315178 77.772912262408212 1 0 0 0 0.6018150307709319 -0.79863550430605224 forward_v I I I I #
coedge $-1 $155 $156 $157 $158 reversed $61 $-1 #
face $-1 $-1 $159 $33 $-1 $160 forward single #
loop $-1 $161 $162 $63 #
cone-surface $-1 25.881443772853956 -23.842636515100779 1.9202044036809038 0 0.6018150307709319 -0.79863550430605224 0.75 0 0 1 I I -0.70710678118654757 0.70710678118654757 0.75 forward I I I I #
loop $-1 $-1 $163 $42 #
coedge $-1 $102 $102 $164 $165 reversed $64 $-1 #
face $-1 $-1 $166 $34 $-1 $167 forward single #
loop $-1 $168 $169 $66 #
cone-surface $-1 34.181670356324688 -23.842636515100779 1.9202044036809038 0 0.6018150307709319 -0.79863550430605224 0.75 0 0 1 I I -0.70710678118654757 0.70710678118654757 0.75 forward I I I I #
loop $-1 $-1 $170 $43 #
coedge $-1 $107 $107 $171 $172 reversed $67 $-1 #
face $-1 $-1 $173 $35 $-1 $174 forward single #
loop $-1 $175 $176 $69 #
cone-surface $-1 42.481896939795419 -23.842636515100779 1.9202044036809038 0 0.6018150307709319 -0.79863550430605224 0.75 0 0 1 I I -0.70710678118654757 0.70710678118654757 0.75 forward I I I I #
loop $-1 $-1 $177 $44 #
coedge $-1 $112 $112 $178 $179 reversed $70 $-1 #
face $-1 $180 $181 $27 $-1 $182 reversed single #
loop $-1 $-1 $183 $72 #
plane-surface $-1 0 -31.591210713604571 0 0 1 0 0 0 1 forward_v I I I I #
coedge $-1 $184 $185 $186 $187 forward $73 $-1 #
coedge $-1 $188 $75 $189 $190 forward $46 $-1 #
coedge $-1 $75 $188 $191 $192 forward $46 $-1 #
coedge $-1 $193 $194 $75 $120 reversed $195 $-1 #
edge $-1 $196 -31.591210713604571 $197 31.591210713604571 $119 $198 forward 7 unknown #
face $-1 $199 $200 $28 $-1 $201 reversed single #
loop $-1 $-1 $202 $76 #
plane-surface $-1 -16.820825606543856 79.54833544490242 108.70971392617663 -1 0 0 0 0.84804810408105047 0.52991925155115449 forward_v I I I I #
coedge $-1 $203 $204 $205 $206 reversed $77 $-1 #
coedge $-1 $126 $79 $207 $208 reversed $49 $-1 #
coedge $-1 $79 $125 $203 $209 reversed $49 $-1 #
coedge $-1 $205 $210 $79 $128 forward $211 $-1 #
edge $-1 $212 8.182957008846639 $213 11.243195731737732 $127 $214 forward 7 unknown #
loop $-1 $-1 $134 $80 #
plane-surface $-1 -22.32046022872559 -1.8903707602917308 57.821164052800228 0 0.84804810408105047 0.52991925155115449 1 0 0 forward_v I I I I #
loop $-1 $-1 $215 $51 #
coedge $-1 $132 $132 $133 $216 reversed $81 $-1 #
coedge $-1 $133 $133 $132 $216 forward $83 $-1 #
coedge $-1 $134 $134 $84 $135 forward $129 $-1 #
edge $-1 $217 1.5064360498247893e-015 $217 6.2831853071796022 $134 $218 forward 7 unknown #
face $-1 $219 $220 $30 $-1 $221 forward single #
loop $-1 $-1 $222 $85 #
plane-surface $-1 31.194555722232042 79.54833544490242 108.70971392617663 -1 0 0 0 0.84804810408105047 0.52991925155115449 forward_v I I I I #
coedge $-1 $223 $224 $225 $226 reversed $86 $-1 #
coedge $-1 $141 $88 $227 $228 reversed $55 $-1 #
coedge $-1 $88 $140 $223 $229 reversed $55 $-1 #
coedge $-1 $225 $230 $88 $143 forward $220 $-1 #
edge $-1 $231 8.182957008846639 $232 11.243195731737732 $142 $233 forward 7 unknown #
loop $-1 $-1 $149 $89 #
plane-surface $-1 25.694921100050308 -1.8903707602917308 57.821164052800228 0 0.84804810408105047 0.52991925155115449 1 0 0 forward_v I I I I #
loop $-1 $-1 $234 $57 #
coedge $-1 $147 $147 $148 $235 reversed $90 $-1 #
coedge $-1 $148 $148 $147 $235 forward $92 $-1 #
coedge $-1 $149 $149 $93 $150 forward $144 $-1 #
edge $-1 $236 1.5064360498247893e-015 $236 6.2831853071796022 $149 $237 forward 7 unknown #
face $-1 $238 $239 $32 $-1 $240 forward single #
loop $-1 $-1 $241 $94 #
plane-surface $-1 0 -31.591210713604571 0 0 1 0 0 0 1 forward_v I I I I #
coedge $-1 $242 $243 $244 $245 reversed $95 $-1 #
coedge $-1 $246 $97 $247 $248 reversed $61 $-1 #
coedge $-1 $97 $246 $242 $249 forward $61 $-1 #
coedge $-1 $244 $250 $97 $158 forward $239 $-1 #
edge $-1 $251 -30.924546150613558 $252 -3.2571242057111292 $157 $253 forward 7 unknown #
loop $-1 $-1 $164 $98 #
plane-surface $-1 34.181670356324688 -31.591210713604582 1.0793356984995199 0 -0.6018150307709319 0.79863550430605224 1 0 0 forward_v I I I I #
loop $-1 $-1 $254 $63 #
coedge $-1 $162 $162 $163 $255 reversed $99 $-1 #
coedge $-1 $163 $163 $162 $255 forward $101 $-1 #
coedge $-1 $164 $164 $102 $165 forward $159 $-1 #
edge $-1 $256 1.5083120209352982e-015 $256 6.2831853071796022 $164 $257 forward 7 unknown #
loop $-1 $-1 $171 $103 #
plane-surface $-1 34.181670356324688 -31.591210713604582 1.0793356984995199 0 -0.6018150307709319 0.79863550430605224 1 0 0 forward_v I I I I #
loop $-1 $-1 $258 $66 #
coedge $-1 $169 $169 $170 $259 reversed $104 $-1 #
coedge $-1 $170 $170 $169 $259 forward $106 $-1 #
coedge $-1 $171 $171 $107 $172 forward $166 $-1 #
edge $-1 $260 1.5083120209352982e-015 $260 6.2831853071796022 $171 $261 forward 7 unknown #
loop $-1 $-1 $178 $108 #
plane-surface $-1 34.181670356324688 -31.591210713604582 1.0793356984995199 0 -0.6018150307709319 0.79863550430605224 1 0 0 forward_v I I I I #
loop $-1 $-1 $262 $69 #
coedge $-1 $176 $176 $177 $263 reversed $109 $-1 #
coedge $-1 $177 $177 $176 $263 forward $111 $-1 #
coedge $-1 $178 $178 $112 $179 forward $173 $-1 #
edge $-1 $264 1.5083120209352982e-015 $264 6.2831853071796022 $178 $265 forward 7 unknown #
face $-1 $266 $267 $27 $-1 $268 reversed single #
loop $-1 $-1 $269 $113 #
plane-surface $-1 -48.015381328775902 0 0 1 0 0 0 0 -1 forward_v I I I I #
coedge $-1 $270 $191 $271 $272 forward $114 $-1 #
coedge $-1 $273 $116 $270 $274 forward $73 $-1 #
coedge $-1 $116 $273 $275 $276 forward $73 $-1 #
coedge $-1 $194 $193 $116 $187 reversed $195 $-1 #
edge $-1 $277 -31.591210713604571 $278 31.591210713604571 $186 $279 forward 7 unknown #
coedge $-1 $118 $117 $280 $281 forward $46 $-1 #
coedge $-1 $282 $283 $117 $190 reversed $267 $-1 #
edge $-1 $197 -48.015381328775902 $284 48.015381328775902 $189 $285 forward 7 unknown #
coedge $-1 $183 $286 $118 $192 reversed $114 $-1 #
edge $-1 $287 -48.015381328775902 $196 48.015381328775902 $191 $288 forward 7 unknown #
coedge $-1 $186 $119 $286 $289 forward $195 $-1 #
coedge $-1 $119 $186 $282 $290 reversed $195 $-1 #
loop $-1 $-1 $193 $266 #
vertex $-1 $120 $291 #
vertex $-1 $120 $292 #
straight-curve $-1 48.015381328775902 0 9.1368372085256251 0 1 0 I I #
face $-1 $-1 $211 $28 $-1 $293 forward single #
loop $-1 $-1 $294 $121 #
plane-surface $-1 0 31.591210713604571 0 0 -1 0 0 0 -1 forward_v I I I I #
coedge $-1 $295 $296 $297 $298 reversed $122 $-1 #
coedge $-1 $299 $124 $126 $209 forward $77 $-1 #
coedge $-1 $124 $299 $295 $300 forward $77 $-1 #
coedge $-1 $297 $127 $124 $206 forward $211 $-1 #
edge $-1 $213 -16.659864736544527 $301 -5.6605954921810611 $205 $302 forward 7 unknown #
coedge $-1 $303 $304 $125 $208 forward $200 $-1 #
edge $-1 $305 -50.115425612882746 $212 -45.21801975456269 $207 $306 forward 7 unknown #
edge $-1 $213 57.407506260543087 $305 63.18242142720915 $126 $307 forward 7 unknown #
coedge $-1 $127 $297 $303 $308 forward $211 $-1 #
loop $-1 $-1 $297 $199 #
vertex $-1 $208 $309 #
vertex $-1 $128 $310 #
straight-curve $-1 -27.820094850907324 39.77416772245121 9.1368372085256269 0 -1 0 I I #
coedge $-1 $215 $215 $-1 $311 reversed $131 $-1 #
edge $-1 $312 0 $312 6.2831853071796004 $132 $313 forward 7 unknown #
vertex $-1 $135 $314 #
ellipse-curve $-1 -22.32046022872559 30.061091352159025 6.6881342793655953 0 0.84804810408105047 0.52991925155115449 1 0 0 1 I I #
face $-1 $-1 $315 $30 $-1 $316 reversed single #
loop $-1 $-1 $142 $136 #
plane-surface $-1 0 0 9.1368372085256251 0 0 1 1 0 0 forward_v I I I I #
coedge $-1 $317 $318 $319 $320 reversed $137 $-1 #
coedge $-1 $321 $139 $141 $229 forward $86 $-1 #
coedge $-1 $139 $321 $317 $322 forward $86 $-1 #
coedge $-1 $319 $142 $139 $226 forward $220 $-1 #
edge $-1 $232 7.3478259278434201 $323 18.347095172206888 $225 $324 forward 7 unknown #
coedge $-1 $325 $326 $140 $228 forward $315 $-1 #
edge $-1 $327 -50.115425612882746 $231 -45.21801975456269 $227 $328 forward 7 unknown #
edge $-1 $232 57.407506260543087 $327 63.18242142720915 $141 $329 forward 7 unknown #
coedge $-1 $142 $319 $325 $330 forward $220 $-1 #
vertex $-1 $143 $331 #
vertex $-1 $143 $332 #
straight-curve $-1 20.195286477868574 39.77416772245121 9.1368372085256269 0 -1 0 I I #
coedge $-1 $234 $234 $-1 $333 reversed $146 $-1 #
edge $-1 $334 0 $334 6.2831853071796004 $147 $335 forward 7 unknown #
vertex $-1 $150 $336 #
ellipse-curve $-1 25.694921100050308 30.061091352159025 6.6881342793655953 0 0.84804810408105047 0.52991925155115449 1 0 0 1 I I #
face $-1 $-1 $337 $32 $-1 $338 reversed single #
loop $-1 $-1 $244 $151 #
plane-surface $-1 0 0 9.1368372085256251 0 0 1 1 0 0 forward_v I I I I #
coedge $-1 $339 $340 $243 $341 forward $152 $-1 #
coedge $-1 $243 $154 $156 $249 reversed $95 $-1 #
coedge $-1 $154 $242 $241 $341 reversed $95 $-1 #
coedge $-1 $342 $157 $154 $245 forward $239 $-1 #
edge $-1 $252 -23.793438276896758 $343 -13.100772835053018 $244 $344 forward 7 unknown #
coedge $-1 $156 $155 $339 $345 reversed $61 $-1 #
coedge $-1 $346 $347 $155 $248 forward $337 $-1 #
edge $-1 $348 -12.290151026646839 $251 1.0985167500691198 $247 $349 forward 7 unknown #
edge $-1 $350 1.3322641948408722e-014 $252 13.388667776715971 $242 $351 forward 7 unknown #
coedge $-1 $157 $342 $346 $352 forward $239 $-1 #
vertex $-1 $248 $353 #
vertex $-1 $158 $354 #
straight-curve $-1 17.090835178162344 -20.898545271760831 9.1368372085256251 -1 0 0 I I #
coedge $-1 $254 $254 $-1 $355 reversed $161 $-1 #
edge $-1 $356 0 $356 6.2831853071796004 $162 $357 forward 7 unknown #
vertex $-1 $165 $358 #
ellipse-curve $-1 25.881443772853956 -26.244877992682699 5.1080864535125796 0 -0.6018150307709319 0.79863550430605224 1.5 0 0 1 I I #
coedge $-1 $258 $258 $-1 $359 reversed $168 $-1 #
edge $-1 $360 0 $360 6.2831853071796004 $169 $361 forward 7 unknown #
vertex $-1 $172 $362 #
ellipse-curve $-1 34.181670356324688 -26.244877992682699 5.1080864535125796 0 -0.6018150307709319 0.79863550430605224 1.5 0 0 1 I I #
coedge $-1 $262 $262 $-1 $363 reversed $175 $-1 #
edge $-1 $364 0 $364 6.2831853071796004 $176 $365 forward 7 unknown #
vertex $-1 $179 $366 #
ellipse-curve $-1 42.481896939795419 -26.244877992682699 5.1080864535125796 0 -0.6018150307709319 0.79863550430605224 1.5 0 0 1 I I #
face $-1 $-1 $195 $27 $-1 $367 reversed single #
loop $-1 $-1 $282 $180 #
plane-surface $-1 0 31.591210713604571 0 0 -1 0 0 0 -1 forward_v I I I I #
coedge $-1 $368 $280 $283 $369 forward $181 $-1 #
coedge $-1 $286 $183 $184 $274 reversed $114 $-1 #
coedge $-1 $280 $368 $183 $272 reversed $181 $-1 #
edge $-1 $287 -9.1368372085256251 $370 9.1368372085256251 $271 $371 forward 7 unknown #
coedge $-1 $185 $184 $368 $372 forward $73 $-1 #
edge $-1 $278 -48.015381328775902 $370 48.015381328775902 $270 $373 forward 7 unknown #
coedge $-1 $283 $282 $185 $276 reversed $267 $-1 #
edge $-1 $374 -48.015381328775902 $277 48.015381328775902 $275 $375 forward 7 unknown #
vertex $-1 $187 $376 #
vertex $-1 $289 $377 #
straight-curve $-1 48.015381328775902 0 -9.1368372085256251 0 -1 0 I I #
coedge $-1 $269 $271 $188 $281 reversed $181 $-1 #
edge $-1 $284 -31.591210713604571 $287 31.591210713604571 $280 $378 forward 7 unknown #
coedge $-1 $275 $189 $194 $290 forward $267 $-1 #
coedge $-1 $189 $275 $269 $369 reversed $267 $-1 #
vertex $-1 $190 $379 #
straight-curve $-1 0 31.591210713604571 9.1368372085256251 -1 0 0 I I #
coedge $-1 $191 $270 $193 $289 reversed $114 $-1 #
vertex $-1 $281 $380 #
straight-curve $-1 0 -31.591210713604571 9.1368372085256251 1 0 0 I I #
edge $-1 $196 -9.1368372085256251 $278 9.1368372085256251 $193 $381 forward 7 unknown #
edge $-1 $197 -9.1368372085256251 $277 9.1368372085256251 $194 $382 forward 7 unknown #
point $-1 48.015381328775902 -31.591210713604571 9.1368372085256251 #
point $-1 48.015381328775902 31.591210713604571 9.1368372085256251 #
plane-surface $-1 0 0 9.1368372085256251 0 0 1 1 0 0 forward_v I I I I #
coedge $-1 $304 $303 $296 $383 forward $200 $-1 #
coedge $-1 $296 $202 $204 $300 reversed $122 $-1 #
coedge $-1 $202 $295 $294 $383 reversed $122 $-1 #
coedge $-1 $210 $205 $202 $298 forward $211 $-1 #
edge $-1 $301 -11.243195731737732 $384 -8.182957008846639 $297 $385 forward 7 unknown #
coedge $-1 $204 $203 $304 $386 reversed $77 $-1 #
edge $-1 $387 -63.18242142720915 $301 -57.407506260543087 $295 $388 forward 7 unknown #
vertex $-1 $206 $389 #
straight-curve $-1 -11.160230114362795 28.530971990713471 9.1368372085256304 1 0 0 I I #
coedge $-1 $294 $207 $210 $308 reversed $200 $-1 #
coedge $-1 $207 $294 $299 $386 forward $200 $-1 #
vertex $-1 $208 $390 #
straight-curve $-1 -27.820094850907324 31.591210713604571 54.354856963088316 0 0 1 I I #
straight-curve $-1 -27.820094850907324 -1.8903707602917308 57.821164052800228 0 0.52991925155115449 -0.84804810408105047 I I #
edge $-1 $384 16.820825606543856 $212 27.820094850907324 $303 $391 forward 7 unknown #
point $-1 -27.820094850907324 31.591210713604571 9.1368372085256251 #
point $-1 -27.820094850907324 28.530971990713478 9.1368372085256269 #
edge $-1 $392 1 $392 0 $215 $-1 forward 7 unknown #
vertex $-1 $216 $393 #
ellipse-curve $-1 -22.32046022872559 26.973571999625896 4.7588381267411082 0 0.84804810408105047 0.52991925155115449 1 0 0 1 I I #
point $-1 -21.32046022872559 30.061091352159025 6.6881342793655936 #
loop $-1 $-1 $227 $219 #
plane-surface $-1 0 31.591210713604571 0 0 -1 0 0 0 -1 forward_v I I I I #
coedge $-1 $318 $222 $224 $322 reversed $137 $-1 #
coedge $-1 $222 $317 $394 $395 reversed $137 $-1 #
coedge $-1 $230 $225 $222 $320 forward $220 $-1 #
edge $-1 $323 -11.243195731737732 $396 -8.182957008846639 $319 $397 forward 7 unknown #
coedge $-1 $224 $223 $326 $398 reversed $86 $-1 #
edge $-1 $399 -63.18242142720915 $323 -57.407506260543087 $317 $400 forward 7 unknown #
vertex $-1 $226 $401 #
straight-curve $-1 12.847460550025154 28.530971990713471 9.1368372085256304 1 0 0 I I #
coedge $-1 $394 $227 $230 $330 reversed $315 $-1 #
coedge $-1 $227 $394 $321 $398 forward $315 $-1 #
vertex $-1 $228 $402 #
straight-curve $-1 20.195286477868574 31.591210713604571 54.354856963088316 0 0 1 I I #
straight-curve $-1 20.195286477868574 -1.8903707602917308 57.821164052800228 0 0.52991925155115449 -0.84804810408105047 I I #
edge $-1 $396 -31.194555722232042 $231 -20.195286477868574 $325 $403 forward 7 unknown #
point $-1 20.195286477868574 31.591210713604571 9.1368372085256251 #
point $-1 20.195286477868574 28.530971990713478 9.1368372085256269 #
edge $-1 $404 1 $404 0 $234 $-1 forward 7 unknown #
vertex $-1 $235 $405 #
ellipse-curve $-1 25.694921100050308 26.973571999625896 4.7588381267411082 0 0.84804810408105047 0.52991925155115449 1 0 0 1 I I #
point $-1 26.694921100050308 30.061091352159025 6.6881342793655936 #
loop $-1 $-1 $247 $238 #
plane-surface $-1 48.015381328775902 0 0 -1 0 0 0 0 1 forward_v I I I I #
coedge $-1 $406 $241 $246 $345 forward $152 $-1 #
coedge $-1 $241 $406 $342 $407 reversed $152 $-1 #
edge $-1 $343 29.749618922678479 $350 37.807120432704579 $241 $408 forward 7 unknown #
coedge $-1 $250 $244 $340 $407 forward $239 $-1 #
vertex $-1 $407 $409 #
straight-curve $-1 20.347959383873473 -44.691983548657589 9.1368372085256269 0 -1 0 I I #
edge $-1 $350 3.2571242057111292 $348 30.924546150613558 $339 $410 forward 7 unknown #
coedge $-1 $347 $247 $250 $352 reversed $337 $-1 #
coedge $-1 $247 $346 $406 $411 forward $337 $-1 #
vertex $-1 $345 $412 #
straight-curve $-1 48.015381328775902 -21.775859750440929 8.4757333167803957 0 0.79863550430605224 0.6018150307709319 I I #
vertex $-1 $345 $413 #
straight-curve $-1 20.347959383873473 -31.591210713604582 1.0793356984995199 0 0.79863550430605224 0.6018150307709319 I I #
edge $-1 $414 -31.591210713604571 $251 -20.898545271760831 $346 $415 forward 7 unknown #
point $-1 48.015381328775902 -20.898545271760831 9.1368372085256251 #
point $-1 20.347959383873473 -20.898545271760831 9.1368372085256251 #
edge $-1 $416 1 $416 0 $254 $-1 forward 7 unknown #
vertex $-1 $255 $417 #
ellipse-curve $-1 25.881443772853956 -24.293997788178977 2.5191810319104428 0 -0.6018150307709319 0.79863550430605224 1.5 0 0 1 I I #
point $-1 27.381443772853956 -26.244877992682685 5.1080864535125645 #
edge $-1 $418 1 $418 0 $258 $-1 forward 7 unknown #
vertex $-1 $259 $419 #
ellipse-curve $-1 34.181670356324688 -24.293997788178977 2.5191810319104428 0 -0.6018150307709319 0.79863550430605224 1.5 0 0 1 I I #
point $-1 35.681670356324688 -26.244877992682685 5.1080864535125645 #
edge $-1 $420 1 $420 0 $262 $-1 forward 7 unknown #
vertex $-1 $263 $421 #
ellipse-curve $-1 42.481896939795419 -24.293997788178977 2.5191810319104428 0 -0.6018150307709319 0.79863550430605224 1.5 0 0 1 I I #
point $-1 43.981896939795419 -26.244877992682685 5.1080864535125645 #
plane-surface $-1 48.015381328775902 0 0 -1 0 0 0 0 1 forward_v I I I I #
coedge $-1 $271 $269 $273 $372 reversed $181 $-1 #
edge $-1 $284 -9.1368372085256251 $374 9.1368372085256251 $283 $422 forward 7 unknown #
vertex $-1 $372 $423 #
straight-curve $-1 -48.015381328775902 -31.591210713604571 0 0 0 -1 I I #
edge $-1 $370 -31.591210713604571 $374 31.591210713604571 $368 $424 forward 7 unknown #
straight-curve $-1 0 -31.591210713604571 -9.1368372085256251 -1 0 0 I I #
vertex $-1 $276 $425 #
straight-curve $-1 0 31.591210713604571 -9.1368372085256251 1 0 0 I I #
point $-1 48.015381328775902 31.591210713604571 -9.1368372085256251 #
point $-1 48.015381328775902 -31.591210713604571 -9.1368372085256251 #
straight-curve $-1 -48.015381328775902 0 9.1368372085256251 0 -1 0 I I #
point $-1 -48.015381328775902 31.591210713604571 9.1368372085256251 #
point $-1 -48.015381328775902 -31.591210713604571 9.1368372085256251 #
straight-curve $-1 48.015381328775902 -31.591210713604571 0 0 0 -1 I I #
straight-curve $-1 48.015381328775902 31.591210713604571 0 0 0 -1 I I #
edge $-1 $384 45.21801975456269 $387 50.115425612882746 $294 $426 forward 7 unknown #
vertex $-1 $308 $427 #
straight-curve $-1 -16.820825606543856 39.77416772245121 9.1368372085256269 0 1 0 I I #
edge $-1 $387 5.6605954921810611 $305 16.659864736544527 $304 $428 forward 7 unknown #
vertex $-1 $386 $429 #
straight-curve $-1 -16.820825606543856 -1.8903707602917308 57.821164052800228 0 -0.52991925155115449 0.84804810408105047 I I #
point $-1 -16.820825606543856 28.530971990713478 9.1368372085256269 #
point $-1 -27.820094850907324 31.591210713604568 4.2394313502055709 #
straight-curve $-1 0 31.591210713604571 9.1368372085256251 -1 0 0 I I #
vertex $-1 $311 $430 #
point $-1 -21.32046022872559 26.973571999625896 4.7588381267411082 #
coedge $-1 $326 $325 $318 $395 forward $315 $-1 #
edge $-1 $396 45.21801975456269 $399 50.115425612882746 $394 $431 forward 7 unknown #
vertex $-1 $330 $432 #
straight-curve $-1 31.194555722232042 39.77416772245121 9.1368372085256269 0 1 0 I I #
edge $-1 $399 -18.347095172206888 $327 -7.3478259278434201 $326 $433 forward 7 unknown #
vertex $-1 $398 $434 #
straight-curve $-1 31.194555722232042 -1.8903707602917308 57.821164052800228 0 -0.52991925155115449 0.84804810408105047 I I #
point $-1 31.194555722232042 28.530971990713478 9.1368372085256269 #
point $-1 20.195286477868574 31.591210713604568 4.2394313502055709 #
straight-curve $-1 0 31.591210713604571 9.1368372085256251 -1 0 0 I I #
vertex $-1 $333 $435 #
point $-1 26.694921100050308 26.973571999625896 4.7588381267411082 #
coedge $-1 $340 $339 $347 $411 reversed $152 $-1 #
edge $-1 $343 20.347959383873473 $414 48.015381328775902 $340 $436 forward 7 unknown #
straight-curve $-1 20.347959383873473 -31.591210713604571 38.886456131204106 0 0 -1 I I #
point $-1 20.347959383873473 -31.591210713604571 9.1368372085256251 #
straight-curve $-1 17.090835178162344 -31.591210713604571 1.0793356984995273 1 0 0 I I #
edge $-1 $414 -9.1368372085256251 $348 -1.0793356984995279 $347 $437 forward 7 unknown #
point $-1 48.015381328775902 -31.591210713604571 1.0793356984995279 #
point $-1 20.347959383873473 -31.591210713604571 1.0793356984995279 #
vertex $-1 $352 $438 #
straight-curve $-1 48.015381328775902 0 9.1368372085256251 0 1 0 I I #
vertex $-1 $355 $439 #
point $-1 27.381443772853956 -24.293997788178977 2.5191810319104428 #
vertex $-1 $359 $440 #
point $-1 35.681670356324688 -24.293997788178977 2.5191810319104428 #
vertex $-1 $363 $441 #
point $-1 43.981896939795419 -24.293997788178977 2.5191810319104428 #
straight-curve $-1 -48.015381328775902 31.591210713604571 0 0 0 -1 I I #
point $-1 -48.015381328775902 -31.591210713604571 -9.1368372085256251 #
straight-curve $-1 -48.015381328775902 0 -9.1368372085256251 0 1 0 I I #
point $-1 -48.015381328775902 31.591210713604571 -9.1368372085256251 #
straight-curve $-1 -16.820825606543856 31.591210713604571 54.354856963088316 0 0 -1 I I #
point $-1 -16.820825606543856 31.591210713604571 9.1368372085256251 #
straight-curve $-1 -11.160230114362795 31.591210713604571 4.2394313502055709 -1 0 0 I I #
point $-1 -16.820825606543856 31.591210713604568 4.2394313502055709 #
point $-1 -22.32046022872559 26.125523895544845 4.2289188751899536 #
straight-curve $-1 31.194555722232042 31.591210713604571 54.354856963088316 0 0 -1 I I #
point $-1 31.194555722232042 31.591210713604571 9.1368372085256251 #
straight-curve $-1 12.847460550025154 31.591210713604571 4.2394313502055709 -1 0 0 I I #
point $-1 31.194555722232042 31.591210713604568 4.2394313502055709 #
point $-1 25.694921100050308 26.125523895544845 4.2289188751899536 #
straight-curve $-1 0 -31.591210713604571 9.1368372085256251 1 0 0 I I #
straight-curve $-1 48.015381328775902 -31.591210713604571 0 0 0 -1 I I #
point $-1 48.015381328775902 -31.591210713604571 9.1368372085256251 #
point $-1 25.881443772853956 -23.39127524202258 1.3212277754513646 #
point $-1 34.181670356324688 -23.39127524202258 1.3212277754513646 #
point $-1 42.481896939795419 -23.39127524202258 1.3212277754513646 #
End-of-ACIS-data 