500 0 4 0           
7 Unknown 11 ACIS 5.0 NT 24 Thu Mar 25 23:52:20 1999 
-1 9.9999999999999995e-007 1e-010 
body $-1 $4 $-1 $5 #
body $-1 $6 $-1 $7 #
body $-1 $8 $-1 $9 #
body $-1 $10 $-1 $11 #
lump $-1 $-1 $12 $0 #
transform $-1 1 0 0 0 1 0 0 0 1 62.246772667622913 32.119387887497624 15.905894939886744 1 rotate no_reflect no_shear #
lump $-1 $-1 $13 $1 #
transform $-1 1 0 0 0 1 0 0 0 1 62.246772667622913 32.119387887497624 15.905894939886744 1 rotate no_reflect no_shear #
lump $-1 $-1 $14 $2 #
transform $-1 1 0 0 0 1 0 0 0 1 62.246772667622913 32.119387887497624 15.905894939886744 1 rotate no_reflect no_shear #
lump $-1 $-1 $15 $3 #
transform $-1 1 0 0 0 1 0 0 0 1 62.246772667622913 32.119387887497624 15.905894939886744 1 rotate no_reflect no_shear #
shell $-1 $-1 $-1 $16 $-1 $4 #
shell $-1 $-1 $-1 $17 $-1 $6 #
shell $-1 $-1 $-1 $18 $-1 $8 #
shell $-1 $-1 $-1 $19 $-1 $10 #
face $-1 $20 $21 $12 $-1 $22 forward single #
face $-1 $23 $24 $13 $-1 $25 reversed single #
face $-1 $26 $27 $14 $-1 $28 forward single #
face $-1 $29 $30 $15 $-1 $31 forward single #
face $-1 $32 $33 $12 $-1 $34 reversed single #
loop $-1 $-1 $35 $16 #
plane-surface $-1 0 0 15.905894939886744 0 0 1 1 0 0 forward_v I I I I #
face $-1 $36 $37 $13 $-1 $38 reversed single #
loop $-1 $-1 $39 $17 #
plane-surface $-1 -22.657619986031406 -25.369189797661054 92.003160041933654 0.73135370988377701 0 0.68199835119979291 0.68199835119979291 0 -0.73135370988377701 forward_v I I I I #
face $-1 $40 $41 $14 $-1 $42 forward single #
loop $-1 $43 $44 $18 #
cone-surface $-1 54.594856272303545 -28.262131836162443 7.7954094591348007 -0.73135370988377701 0 -0.68199835119979291 1.0229975267996894 0 -1.0970305648256655 1 I I 0 1 1.5 forward I I I I #
face $-1 $45 $46 $15 $-1 $47 forward single #
loop $-1 $48 $49 $19 #
cone-surface $-1 54.594856272303545 -22.476247759159669 7.7954094591348007 -0.73135370988377701 0 -0.68199835119979291 1.0229975267996894 0 -1.0970305648256655 1 I I 0 1 1.5 forward I I I I #
face $-1 $50 $51 $12 $-1 $52 reversed single #
loop $-1 $-1 $53 $20 #
plane-surface $-1 0 0 -15.905894939886744 0 0 1 1 0 0 forward_v I I I I #
coedge $-1 $54 $55 $56 $57 forward $21 $-1 #
face $-1 $58 $59 $13 $-1 $60 forward single #
loop $-1 $-1 $61 $23 #
plane-surface $-1 68.391196251484814 -18.618991707824485 176.90755269558798 0 -1 0 -0.73135370988377701 0 -0.68199835119979291 forward_v I I I I #
coedge $-1 $62 $63 $64 $65 reversed $24 $-1 #
face $-1 $-1 $66 $14 $-1 $67 forward single #
loop $-1 $68 $69 $26 #
cone-surface $-1 53.36569792269183 -28.262131836162443 6.6492007827176618 -0.73135370988377701 0 -0.68199835119979291 0.51149876339984468 0 -0.54851528241283276 1 I I -0.70710678118654757 0.70710678118654757 0.75 forward I I I I #
loop $-1 $-1 $70 $18 #
coedge $-1 $44 $44 $71 $72 reversed $27 $-1 #
face $-1 $-1 $73 $15 $-1 $74 forward single #
loop $-1 $75 $76 $29 #
cone-surface $-1 53.36569792269183 -22.476247759159669 6.6492007827176618 -0.73135370988377701 0 -0.68199835119979291 0.51149876339984468 0 -0.54851528241283276 1 I I -0.70710678118654757 0.70710678118654757 0.75 forward I I I I #
loop $-1 $-1 $77 $19 #
coedge $-1 $49 $49 $78 $79 reversed $30 $-1 #
face $-1 $80 $81 $12 $-1 $82 reversed single #
loop $-1 $-1 $83 $32 #
plane-surface $-1 0 -32.119387887497624 0 0 1 0 0 0 1 forward_v I I I I #
coedge $-1 $84 $85 $86 $87 forward $33 $-1 #
coedge $-1 $88 $35 $89 $90 forward $21 $-1 #
coedge $-1 $35 $88 $91 $92 forward $21 $-1 #
coedge $-1 $93 $94 $35 $57 reversed $95 $-1 #
edge $-1 $96 -32.119387887497624 $97 32.119387887497624 $56 $98 forward 7 unknown #
face $-1 $99 $100 $13 $-1 $101 reversed single #
loop $-1 $-1 $102 $36 #
plane-surface $-1 0 0 15.905894939886744 0 0 1 1 0 0 forward_v I I I I #
coedge $-1 $103 $104 $105 $106 reversed $37 $-1 #
coedge $-1 $107 $39 $108 $109 reversed $24 $-1 #
coedge $-1 $39 $107 $103 $110 forward $24 $-1 #
coedge $-1 $105 $111 $39 $65 forward $112 $-1 #
edge $-1 $113 -19.434792988667098 $114 -5.9343968089939576 $64 $115 forward 7 unknown #
loop $-1 $-1 $71 $40 #
plane-surface $-1 -22.657619986031406 -25.369189797661054 92.003160041933654 0.73135370988377701 0 0.68199835119979291 0.68199835119979291 0 -0.73135370988377701 forward_v I I I I #
loop $-1 $-1 $116 $26 #
coedge $-1 $69 $69 $70 $117 reversed $41 $-1 #
coedge $-1 $70 $70 $69 $117 forward $43 $-1 #
coedge $-1 $71 $71 $44 $72 forward $66 $-1 #
edge $-1 $118 0 $118 6.2831853071796004 $71 $119 forward 7 unknown #
loop $-1 $-1 $78 $45 #
plane-surface $-1 -22.657619986031406 -25.369189797661054 92.003160041933654 0.73135370988377701 0 0.68199835119979291 0.68199835119979291 0 -0.73135370988377701 forward_v I I I I #
loop $-1 $-1 $120 $29 #
coedge $-1 $76 $76 $77 $121 reversed $46 $-1 #
coedge $-1 $77 $77 $76 $121 forward $48 $-1 #
coedge $-1 $78 $78 $49 $79 forward $73 $-1 #
edge $-1 $122 0 $122 6.2831853071796004 $78 $123 forward 7 unknown #
face $-1 $124 $125 $12 $-1 $126 reversed single #
loop $-1 $-1 $127 $50 #
plane-surface $-1 -62.246772667622913 0 0 1 0 0 0 0 -1 forward_v I I I I #
coedge $-1 $128 $91 $129 $130 forward $51 $-1 #
coedge $-1 $131 $53 $128 $132 forward $33 $-1 #
coedge $-1 $53 $131 $133 $134 forward $33 $-1 #
coedge $-1 $94 $93 $53 $87 reversed $95 $-1 #
edge $-1 $135 -32.119387887497624 $136 32.119387887497624 $86 $137 forward 7 unknown #
coedge $-1 $55 $54 $138 $139 forward $21 $-1 #
coedge $-1 $140 $141 $54 $90 reversed $125 $-1 #
edge $-1 $97 -62.246772667622913 $142 62.246772667622913 $89 $143 forward 7 unknown #
coedge $-1 $83 $144 $55 $92 reversed $51 $-1 #
edge $-1 $145 -62.246772667622913 $96 62.246772667622913 $91 $146 forward 7 unknown #
coedge $-1 $86 $56 $144 $147 forward $95 $-1 #
coedge $-1 $56 $86 $140 $148 reversed $95 $-1 #
loop $-1 $-1 $93 $124 #
vertex $-1 $57 $149 #
vertex $-1 $57 $150 #
straight-curve $-1 62.246772667622913 0 15.905894939886744 0 1 0 I I #
face $-1 $-1 $112 $13 $-1 $151 reversed single #
loop $-1 $-1 $108 $58 #
plane-surface $-1 0 -32.119387887497624 0 0 1 0 0 0 1 forward_v I I I I #
coedge $-1 $152 $153 $104 $154 forward $59 $-1 #
coedge $-1 $104 $61 $63 $110 reversed $37 $-1 #
coedge $-1 $61 $103 $102 $154 reversed $37 $-1 #
coedge $-1 $155 $64 $61 $106 forward $112 $-1 #
edge $-1 $114 -87.499432543376557 $156 -72.547881407907241 $105 $157 forward 7 unknown #
coedge $-1 $63 $62 $152 $158 reversed $24 $-1 #
coedge $-1 $159 $160 $62 $109 forward $100 $-1 #
edge $-1 $161 62.680223167578859 $113 83.123889390103841 $108 $162 forward 7 unknown #
edge $-1 $163 104.04987911272083 $114 124.49354533524581 $103 $164 forward 7 unknown #
coedge $-1 $64 $155 $159 $165 forward $112 $-1 #
loop $-1 $-1 $105 $99 #
vertex $-1 $109 $166 #
vertex $-1 $65 $167 #
straight-curve $-1 62.246772667622906 -12.684594898830527 0.95434380441744793 0 1 0 I I #
coedge $-1 $116 $116 $-1 $168 reversed $68 $-1 #
edge $-1 $169 0 $169 6.2831853071796004 $69 $170 forward 7 unknown #
vertex $-1 $72 $171 #
ellipse-curve $-1 55.275499339502439 -28.262131836162443 8.4301193721521059 0.73135370988377701 0 0.68199835119979291 1.0229975267996894 0 -1.0970305648256655 1 I I #
coedge $-1 $120 $120 $-1 $172 reversed $75 $-1 #
edge $-1 $173 0 $173 6.2831853071796004 $76 $174 forward 7 unknown #
vertex $-1 $79 $175 #
ellipse-curve $-1 55.275499339502439 -22.476247759159669 8.4301193721521059 0.73135370988377701 0 0.68199835119979291 1.0229975267996894 0 -1.0970305648256655 1 I I #
face $-1 $-1 $95 $12 $-1 $176 reversed single #
loop $-1 $-1 $140 $80 #
plane-surface $-1 0 32.119387887497624 0 0 -1 0 0 0 -1 forward_v I I I I #
coedge $-1 $177 $138 $141 $178 forward $81 $-1 #
coedge $-1 $144 $83 $84 $132 reversed $51 $-1 #
coedge $-1 $138 $177 $83 $130 reversed $81 $-1 #
edge $-1 $145 -15.905894939886744 $179 15.905894939886744 $129 $180 forward 7 unknown #
coedge $-1 $85 $84 $177 $181 forward $33 $-1 #
edge $-1 $136 -62.246772667622913 $179 62.246772667622913 $128 $182 forward 7 unknown #
coedge $-1 $141 $140 $85 $134 reversed $125 $-1 #
edge $-1 $183 -62.246772667622913 $135 62.246772667622913 $133 $184 forward 7 unknown #
vertex $-1 $87 $185 #
vertex $-1 $147 $186 #
straight-curve $-1 62.246772667622913 0 -15.905894939886744 0 -1 0 I I #
coedge $-1 $127 $129 $88 $139 reversed $81 $-1 #
edge $-1 $142 -32.119387887497624 $145 32.119387887497624 $138 $187 forward 7 unknown #
coedge $-1 $133 $89 $94 $148 forward $125 $-1 #
coedge $-1 $89 $133 $127 $178 reversed $125 $-1 #
vertex $-1 $90 $188 #
straight-curve $-1 0 32.119387887497624 15.905894939886744 -1 0 0 I I #
coedge $-1 $91 $128 $93 $147 reversed $51 $-1 #
vertex $-1 $139 $189 #
straight-curve $-1 0 -32.119387887497624 15.905894939886744 1 0 0 I I #
edge $-1 $96 -15.905894939886744 $136 15.905894939886744 $93 $190 forward 7 unknown #
edge $-1 $97 -15.905894939886744 $135 15.905894939886744 $94 $191 forward 7 unknown #
point $-1 62.246772667622913 -32.119387887497624 15.905894939886744 #
point $-1 62.246772667622913 32.119387887497624 15.905894939886744 #
plane-surface $-1 62.246772667622913 0 0 -1 0 0 0 0 1 forward_v I I I I #
coedge $-1 $192 $102 $107 $158 forward $59 $-1 #
coedge $-1 $102 $192 $155 $193 forward $59 $-1 #
edge $-1 $156 -28.051174541880506 $163 -14.108627885639564 $102 $194 forward 7 unknown #
coedge $-1 $111 $105 $153 $193 reversed $112 $-1 #
vertex $-1 $106 $195 #
straight-curve $-1 62.246772667622913 -18.618991707824485 88.45377634779399 0 0 1 I I #
edge $-1 $163 5.9343968089939576 $161 19.434792988667098 $152 $196 forward 7 unknown #
coedge $-1 $160 $108 $111 $165 reversed $100 $-1 #
coedge $-1 $108 $159 $192 $197 reversed $100 $-1 #
vertex $-1 $197 $198 #
straight-curve $-1 5.5564171582581316 -32.119387887497624 61.747308689838619 0.68199835119979291 0 -0.73135370988377701 I I #
vertex $-1 $158 $199 #
straight-curve $-1 -22.657619986031406 -18.618991707824485 92.003160041933654 0.68199835119979291 0 -0.73135370988377701 I I #
edge $-1 $200 -15.905894939886744 $113 -0.95434380441743039 $111 $201 forward 7 unknown #
point $-1 62.246772667622913 -32.119387887497624 0.95434380441743039 #
point $-1 62.24677266762292 -18.618991707824485 0.95434380441743372 #
edge $-1 $202 1 $202 0 $116 $-1 forward 7 unknown #
vertex $-1 $117 $203 #
ellipse-curve $-1 53.914213205104659 -28.262131836162443 7.160699546117506 0.73135370988377701 0 0.68199835119979291 1.0229975267996894 0 -1.0970305648256655 1 I I #
point $-1 56.298496866302116 -28.262131836162443 7.3330888073264298 #
edge $-1 $204 1 $204 0 $120 $-1 forward 7 unknown #
vertex $-1 $121 $205 #
ellipse-curve $-1 53.914213205104659 -22.476247759159669 7.160699546117506 0.73135370988377701 0 0.68199835119979291 1.0229975267996894 0 -1.0970305648256655 1 I I #
point $-1 56.298496866302116 -22.476247759159669 7.3330888073264298 #
plane-surface $-1 62.246772667622913 0 0 -1 0 0 0 0 1 forward_v I I I I #
coedge $-1 $129 $127 $131 $181 reversed $81 $-1 #
edge $-1 $142 -15.905894939886744 $183 15.905894939886744 $141 $206 forward 7 unknown #
vertex $-1 $181 $207 #
straight-curve $-1 -62.246772667622913 -32.119387887497624 0 0 0 -1 I I #
edge $-1 $179 -32.119387887497624 $183 32.119387887497624 $177 $208 forward 7 unknown #
straight-curve $-1 0 -32.119387887497624 -15.905894939886744 -1 0 0 I I #
vertex $-1 $134 $209 #
straight-curve $-1 0 32.119387887497624 -15.905894939886744 1 0 0 I I #
point $-1 62.246772667622913 32.119387887497624 -15.905894939886744 #
point $-1 62.246772667622913 -32.119387887497624 -15.905894939886744 #
straight-curve $-1 -62.246772667622913 0 15.905894939886744 0 -1 0 I I #
point $-1 -62.246772667622913 32.119387887497624 15.905894939886744 #
point $-1 -62.246772667622913 -32.119387887497624 15.905894939886744 #
straight-curve $-1 62.246772667622913 -32.119387887497624 0 0 0 -1 I I #
straight-curve $-1 62.246772667622913 32.119387887497624 0 0 0 -1 I I #
coedge $-1 $153 $152 $160 $197 forward $59 $-1 #
edge $-1 $200 -32.119387887497624 $156 -18.618991707824485 $155 $210 forward 7 unknown #
straight-curve $-1 34.195598125742407 -18.618991707824485 15.90589493988675 -1 0 0 I I #
point $-1 62.246772667622913 -18.618991707824485 15.905894939886744 #
straight-curve $-1 48.304226011381985 -12.684594898830527 15.90589493988675 0 -1 0 I I #
edge $-1 $161 48.304226011381971 $200 62.246772667622913 $160 $211 forward 7 unknown #
point $-1 48.304226011381971 -32.119387887497624 15.90589493988675 #
point $-1 48.304226011381971 -18.618991707824485 15.90589493988675 #
vertex $-1 $193 $212 #
straight-curve $-1 62.246772667622913 -32.119387887497624 0 0 0 -1 I I #
vertex $-1 $168 $213 #
point $-1 54.937210731904351 -28.262131836162443 6.0636689812918405 #
vertex $-1 $172 $214 #
point $-1 54.937210731904351 -22.476247759159669 6.0636689812918405 #
straight-curve $-1 -62.246772667622913 32.119387887497624 0 0 0 -1 I I #
point $-1 -62.246772667622913 -32.119387887497624 -15.905894939886744 #
straight-curve $-1 -62.246772667622913 0 -15.905894939886744 0 1 0 I I #
point $-1 -62.246772667622913 32.119387887497624 -15.905894939886744 #
straight-curve $-1 62.246772667622913 0 15.905894939886744 0 1 0 I I #
straight-curve $-1 0 -32.119387887497624 15.905894939886744 1 0 0 I I #
point $-1 62.246772667622913 -32.119387887497624 15.905894939886744 #
point $-1 52.817182640279 -28.262131836162443 6.1377020193178176 #
point $-1 52.817182640279 -22.476247759159669 6.1377020193178176 #
End-of-ACIS-data 