500 0 8 0           
7 Unknown 11 ACIS 5.0 NT 24 Fri Mar 26 03:28:32 1999 
-1 9.9999999999999995e-007 1e-010 
body $-1 $8 $-1 $9 #
body $-1 $10 $-1 $11 #
body $-1 $12 $-1 $13 #
body $-1 $14 $-1 $15 #
body $-1 $16 $-1 $17 #
body $-1 $18 $-1 $19 #
body $-1 $20 $-1 $21 #
body $-1 $22 $-1 $23 #
lump $-1 $-1 $24 $0 #
transform $-1 1 0 0 0 1 0 0 0 1 61.182287057100133 42.478622716422869 15.000332517150103 1 rotate no_reflect no_shear #
lump $-1 $-1 $25 $1 #
transform $-1 1 0 0 0 1 0 0 0 1 61.182287057100133 42.478622716422869 15.000332517150103 1 rotate no_reflect no_shear #
lump $-1 $-1 $26 $2 #
transform $-1 1 0 0 0 1 0 0 0 1 61.182287057100133 42.478622716422869 15.000332517150103 1 rotate no_reflect no_shear #
lump $-1 $-1 $27 $3 #
transform $-1 1 0 0 0 1 0 0 0 1 61.182287057100133 42.478622716422869 15.000332517150103 1 rotate no_reflect no_shear #
lump $-1 $-1 $28 $4 #
transform $-1 1 0 0 0 1 0 0 0 1 61.182287057100133 42.478622716422869 15.000332517150103 1 rotate no_reflect no_shear #
lump $-1 $-1 $29 $5 #
transform $-1 1 0 0 0 1 0 0 0 1 61.182287057100133 42.478622716422869 15.000332517150103 1 rotate no_reflect no_shear #
lump $-1 $-1 $30 $6 #
transform $-1 1 0 0 0 1 0 0 0 1 61.182287057100133 42.478622716422869 15.000332517150103 1 rotate no_reflect no_shear #
lump $-1 $-1 $31 $7 #
transform $-1 1 0 0 0 1 0 0 0 1 61.182287057100133 42.478622716422869 15.000332517150103 1 rotate no_reflect no_shear #
shell $-1 $-1 $-1 $32 $-1 $8 #
shell $-1 $-1 $-1 $33 $-1 $10 #
shell $-1 $-1 $-1 $34 $-1 $12 #
shell $-1 $-1 $-1 $35 $-1 $14 #
shell $-1 $-1 $-1 $36 $-1 $16 #
shell $-1 $-1 $-1 $37 $-1 $18 #
shell $-1 $-1 $-1 $38 $-1 $20 #
shell $-1 $-1 $-1 $39 $-1 $22 #
face $-1 $40 $41 $24 $-1 $42 forward single #
face $-1 $43 $44 $25 $-1 $45 reversed single #
face $-1 $46 $47 $26 $-1 $48 forward single #
face $-1 $49 $50 $27 $-1 $51 reversed single #
face $-1 $52 $53 $28 $-1 $54 forward single #
face $-1 $55 $56 $29 $-1 $57 reversed single #
face $-1 $58 $59 $30 $-1 $60 forward single #
face $-1 $61 $62 $31 $-1 $63 forward single #
face $-1 $64 $65 $24 $-1 $66 reversed single #
loop $-1 $-1 $67 $32 #
plane-surface $-1 0 0 15.000332517150103 0 0 1 1 0 0 forward_v I I I I #
face $-1 $68 $69 $25 $-1 $70 reversed single #
loop $-1 $-1 $71 $33 #
plane-surface $-1 -32.002991937697907 98.831159441691852 143.25217707438077 1 0 0 0 -0.83867057594974714 -0.54463902268945019 forward_v I I I I #
face $-1 $72 $73 $26 $-1 $74 forward single #
loop $-1 $75 $76 $34 #
cone-surface $-1 -17.579585653459844 37.57540022232304 9.027777901789845 0 -0.83867057594974714 -0.54463902268945019 2 0 0 1 I I 0 1 2 forward I I I I #
face $-1 $77 $78 $27 $-1 $79 reversed single #
loop $-1 $-1 $80 $35 #
plane-surface $-1 3.1561793692217748 98.831159441691852 143.25217707438077 1 0 0 0 -0.83867057594974714 -0.54463902268945019 forward_v I I I I #
face $-1 $81 $82 $28 $-1 $83 forward single #
loop $-1 $84 $85 $36 #
cone-surface $-1 17.579585653459837 37.57540022232304 9.027777901789845 0 -0.83867057594974714 -0.54463902268945019 2 0 0 1 I I 0 1 2 forward I I I I #
face $-1 $86 $87 $29 $-1 $88 reversed single #
loop $-1 $-1 $89 $37 #
plane-surface $-1 50.337821436233646 -42.478622716422869 4.0812923237135266 0 -0.51503808176128008 0.85716729658548041 1 0 0 forward_v I I I I #
face $-1 $90 $91 $30 $-1 $92 forward single #
loop $-1 $93 $94 $38 #
cone-surface $-1 45.69019331300516 -31.143280194978768 5.7975560086217977 0 0.51503808176128008 -0.85716729658548041 2.5 0 0 1 I I 0 1 2.5 forward I I I I #
face $-1 $95 $96 $31 $-1 $97 forward single #
loop $-1 $98 $99 $39 #
cone-surface $-1 54.985449559462147 -31.143280194978768 5.7975560086217977 0 0.51503808176128008 -0.85716729658548041 2.5 0 0 1 I I 0 1 2.5 forward I I I I #
face $-1 $100 $101 $24 $-1 $102 reversed single #
loop $-1 $-1 $103 $40 #
plane-surface $-1 0 0 -15.000332517150103 0 0 1 1 0 0 forward_v I I I I #
coedge $-1 $104 $105 $106 $107 forward $41 $-1 #
face $-1 $108 $109 $25 $-1 $110 reversed single #
loop $-1 $-1 $111 $43 #
plane-surface $-1 -17.579585653459844 -3.7924084065100203 76.607655017011936 0 0.83867057594974714 0.54463902268945019 1 0 0 forward_v I I I I #
coedge $-1 $112 $113 $114 $115 reversed $44 $-1 #
face $-1 $-1 $116 $26 $-1 $117 forward single #
loop $-1 $118 $119 $46 #
cone-surface $-1 -17.579585653459844 34.964891843379512 7.3324939929435935 0 -0.83867057594974714 -0.54463902268945019 1 0 0 1 I I -0.70710678118654746 0.70710678118654746 1 forward I I I I #
loop $-1 $-1 $120 $34 #
coedge $-1 $76 $76 $121 $122 reversed $47 $-1 #
face $-1 $123 $124 $27 $-1 $125 reversed single #
loop $-1 $-1 $126 $49 #
plane-surface $-1 17.579585653459837 -3.7924084065100203 76.607655017011936 0 0.83867057594974714 0.54463902268945019 1 0 0 forward_v I I I I #
coedge $-1 $127 $128 $129 $130 reversed $50 $-1 #
face $-1 $-1 $131 $28 $-1 $132 forward single #
loop $-1 $133 $134 $52 #
cone-surface $-1 17.579585653459837 34.964891843379512 7.3324939929435935 0 -0.83867057594974714 -0.54463902268945019 1 0 0 1 I I -0.70710678118654746 0.70710678118654746 1 forward I I I I #
loop $-1 $-1 $135 $36 #
coedge $-1 $85 $85 $136 $137 reversed $53 $-1 #
face $-1 $138 $139 $29 $-1 $140 reversed single #
loop $-1 $-1 $141 $55 #
plane-surface $-1 39.493355815367174 -105.50103824373656 108.96820351501623 1 0 0 0 0.51503808176128008 -0.85716729658548041 forward_v I I I I #
coedge $-1 $142 $143 $144 $145 reversed $56 $-1 #
face $-1 $-1 $146 $30 $-1 $147 forward single #
loop $-1 $148 $149 $58 #
cone-surface $-1 45.69019331300516 -28.250307187276874 0.98284047607993763 0 0.51503808176128008 -0.85716729658548041 1.25 0 0 1 I I -0.70710678118654746 0.70710678118654746 1.25 forward I I I I #
loop $-1 $-1 $150 $38 #
coedge $-1 $94 $94 $151 $152 reversed $59 $-1 #
face $-1 $-1 $153 $31 $-1 $154 forward single #
loop $-1 $155 $156 $61 #
cone-surface $-1 54.985449559462147 -28.250307187276874 0.98284047607993763 0 0.51503808176128008 -0.85716729658548041 1.25 0 0 1 I I -0.70710678118654746 0.70710678118654746 1.25 forward I I I I #
loop $-1 $-1 $157 $39 #
coedge $-1 $99 $99 $158 $159 reversed $62 $-1 #
face $-1 $160 $161 $24 $-1 $162 reversed single #
loop $-1 $-1 $163 $64 #
plane-surface $-1 0 -42.478622716422869 0 0 1 0 0 0 1 forward_v I I I I #
coedge $-1 $164 $165 $166 $167 forward $65 $-1 #
coedge $-1 $168 $67 $169 $170 forward $41 $-1 #
coedge $-1 $67 $168 $171 $172 forward $41 $-1 #
coedge $-1 $173 $174 $67 $107 reversed $175 $-1 #
edge $-1 $176 -42.478622716422869 $177 42.478622716422869 $106 $178 forward 7 unknown #
face $-1 $179 $180 $25 $-1 $181 reversed single #
loop $-1 $-1 $182 $68 #
plane-surface $-1 -3.1561793692217819 98.831159441691852 143.25217707438077 -1 0 0 0 0.83867057594974714 0.54463902268945019 forward_v I I I I #
coedge $-1 $183 $184 $185 $186 reversed $69 $-1 #
coedge $-1 $113 $71 $187 $188 reversed $44 $-1 #
coedge $-1 $71 $112 $183 $189 reversed $44 $-1 #
coedge $-1 $185 $190 $71 $115 forward $191 $-1 #
edge $-1 $192 6.9369570044230571 $193 13.19972638663517 $114 $194 forward 7 unknown #
loop $-1 $-1 $121 $72 #
plane-surface $-1 -17.579585653459844 -3.7924084065100203 76.607655017011936 0 0.83867057594974714 0.54463902268945019 1 0 0 forward_v I I I I #
loop $-1 $-1 $195 $46 #
coedge $-1 $119 $119 $120 $196 reversed $73 $-1 #
coedge $-1 $120 $120 $119 $196 forward $75 $-1 #
coedge $-1 $121 $121 $76 $122 forward $116 $-1 #
edge $-1 $197 5.9061577017975664e-016 $197 6.2831853071796013 $121 $198 forward 7 unknown #
face $-1 $199 $200 $27 $-1 $201 forward single #
loop $-1 $-1 $202 $77 #
plane-surface $-1 32.0029919376979 98.831159441691852 143.25217707438077 -1 0 0 0 0.83867057594974714 0.54463902268945019 forward_v I I I I #
coedge $-1 $203 $204 $205 $206 reversed $78 $-1 #
coedge $-1 $128 $80 $207 $208 reversed $50 $-1 #
coedge $-1 $80 $127 $203 $209 reversed $50 $-1 #
coedge $-1 $205 $210 $80 $130 forward $200 $-1 #
edge $-1 $211 6.9369570044230571 $212 13.19972638663517 $129 $213 forward 7 unknown #
loop $-1 $-1 $136 $81 #
plane-surface $-1 17.579585653459837 -3.7924084065100203 76.607655017011936 0 0.83867057594974714 0.54463902268945019 1 0 0 forward_v I I I I #
loop $-1 $-1 $214 $52 #
coedge $-1 $134 $134 $135 $215 reversed $82 $-1 #
coedge $-1 $135 $135 $134 $215 forward $84 $-1 #
coedge $-1 $136 $136 $85 $137 forward $131 $-1 #
edge $-1 $216 5.9061577017975664e-016 $216 6.2831853071796013 $136 $217 forward 7 unknown #
face $-1 $218 $219 $29 $-1 $220 forward single #
loop $-1 $-1 $221 $86 #
plane-surface $-1 0 -42.478622716422869 0 0 1 0 0 0 1 forward_v I I I I #
coedge $-1 $222 $223 $224 $225 reversed $87 $-1 #
coedge $-1 $226 $89 $227 $228 reversed $56 $-1 #
coedge $-1 $89 $226 $222 $229 forward $56 $-1 #
coedge $-1 $224 $230 $89 $145 forward $219 $-1 #
edge $-1 $231 -36.013376338983292 $232 -14.324445097250351 $144 $233 forward 7 unknown #
loop $-1 $-1 $151 $90 #
plane-surface $-1 50.337821436233646 -42.478622716422869 4.0812923237135266 0 -0.51503808176128008 0.85716729658548041 1 0 0 forward_v I I I I #
loop $-1 $-1 $234 $58 #
coedge $-1 $149 $149 $150 $235 reversed $91 $-1 #
coedge $-1 $150 $150 $149 $235 forward $93 $-1 #
coedge $-1 $151 $151 $94 $152 forward $146 $-1 #
edge $-1 $236 -1.8297828381764705e-015 $236 6.2831853071795987 $151 $237 forward 7 unknown #
loop $-1 $-1 $158 $95 #
plane-surface $-1 50.337821436233646 -42.478622716422869 4.0812923237135266 0 -0.51503808176128008 0.85716729658548041 1 0 0 forward_v I I I I #
loop $-1 $-1 $238 $61 #
coedge $-1 $156 $156 $157 $239 reversed $96 $-1 #
coedge $-1 $157 $157 $156 $239 forward $98 $-1 #
coedge $-1 $158 $158 $99 $159 forward $153 $-1 #
edge $-1 $240 -1.8297828381764705e-015 $240 6.2831853071795987 $158 $241 forward 7 unknown #
face $-1 $242 $243 $24 $-1 $244 reversed single #
loop $-1 $-1 $245 $100 #
plane-surface $-1 -61.182287057100133 0 0 1 0 0 0 0 -1 forward_v I I I I #
coedge $-1 $246 $171 $247 $248 forward $101 $-1 #
coedge $-1 $249 $103 $246 $250 forward $65 $-1 #
coedge $-1 $103 $249 $251 $252 forward $65 $-1 #
coedge $-1 $174 $173 $103 $167 reversed $175 $-1 #
edge $-1 $253 -42.478622716422869 $254 42.478622716422869 $166 $255 forward 7 unknown #
coedge $-1 $105 $104 $256 $257 forward $41 $-1 #
coedge $-1 $258 $259 $104 $170 reversed $243 $-1 #
edge $-1 $177 -61.182287057100133 $260 61.182287057100133 $169 $261 forward 7 unknown #
coedge $-1 $163 $262 $105 $172 reversed $101 $-1 #
edge $-1 $263 -61.182287057100133 $176 61.182287057100133 $171 $264 forward 7 unknown #
coedge $-1 $166 $106 $262 $265 forward $175 $-1 #
coedge $-1 $106 $166 $258 $266 reversed $175 $-1 #
loop $-1 $-1 $173 $242 #
vertex $-1 $107 $267 #
vertex $-1 $107 $268 #
straight-curve $-1 61.182287057100133 0 15.000332517150103 0 1 0 I I #
face $-1 $-1 $191 $25 $-1 $269 forward single #
loop $-1 $-1 $270 $108 #
plane-surface $-1 0 42.478622716422869 0 0 -1 0 0 0 -1 forward_v I I I I #
coedge $-1 $271 $272 $273 $274 reversed $109 $-1 #
coedge $-1 $275 $111 $113 $189 forward $69 $-1 #
coedge $-1 $111 $275 $271 $276 forward $69 $-1 #
coedge $-1 $273 $114 $111 $186 forward $191 $-1 #
edge $-1 $193 -23.213199110967984 $277 5.6336134575081402 $185 $278 forward 7 unknown #
coedge $-1 $279 $280 $112 $188 forward $180 $-1 #
edge $-1 $281 -66.269575478447251 $192 -56.625756020040285 $187 $282 forward 7 unknown #
edge $-1 $193 73.458309217650822 $281 84.957245432845795 $113 $283 forward 7 unknown #
coedge $-1 $114 $273 $279 $284 forward $191 $-1 #
loop $-1 $-1 $273 $179 #
vertex $-1 $188 $285 #
vertex $-1 $115 $286 #
straight-curve $-1 -32.002991937697907 49.415579720845926 15.000332517150099 0 -1 0 I I #
coedge $-1 $195 $195 $-1 $287 reversed $118 $-1 #
edge $-1 $288 0 $288 6.2831853071796004 $119 $289 forward 7 unknown #
vertex $-1 $122 $290 #
ellipse-curve $-1 -17.579585653459844 39.347238025316798 10.178422787946632 0 0.83867057594974714 0.54463902268945019 2 0 0 1 I I #
face $-1 $-1 $291 $27 $-1 $292 reversed single #
loop $-1 $-1 $129 $123 #
plane-surface $-1 0 0 15.000332517150103 0 0 1 1 0 0 forward_v I I I I #
coedge $-1 $293 $294 $295 $296 reversed $124 $-1 #
coedge $-1 $297 $126 $128 $209 forward $78 $-1 #
coedge $-1 $126 $297 $293 $298 forward $78 $-1 #
coedge $-1 $295 $129 $126 $206 forward $200 $-1 #
edge $-1 $212 -5.6336134575081438 $299 23.213199110967981 $205 $300 forward 7 unknown #
coedge $-1 $301 $302 $127 $208 forward $291 $-1 #
edge $-1 $303 -66.269575478447251 $211 -56.625756020040285 $207 $304 forward 7 unknown #
edge $-1 $212 73.458309217650822 $303 84.957245432845795 $128 $305 forward 7 unknown #
coedge $-1 $129 $295 $301 $306 forward $200 $-1 #
vertex $-1 $130 $307 #
vertex $-1 $130 $308 #
straight-curve $-1 3.1561793692217748 49.415579720845926 15.000332517150099 0 -1 0 I I #
coedge $-1 $214 $214 $-1 $309 reversed $133 $-1 #
edge $-1 $310 0 $310 6.2831853071796004 $134 $311 forward 7 unknown #
vertex $-1 $137 $312 #
ellipse-curve $-1 17.579585653459837 39.347238025316798 10.178422787946632 0 0.83867057594974714 0.54463902268945019 2 0 0 1 I I #
face $-1 $-1 $313 $29 $-1 $314 reversed single #
loop $-1 $-1 $224 $138 #
plane-surface $-1 0 0 15.000332517150103 0 0 1 1 0 0 forward_v I I I I #
coedge $-1 $315 $316 $223 $317 forward $139 $-1 #
coedge $-1 $223 $141 $143 $229 reversed $87 $-1 #
coedge $-1 $141 $222 $221 $317 reversed $87 $-1 #
coedge $-1 $318 $144 $141 $225 forward $219 $-1 #
edge $-1 $232 -28.444230637333003 $319 -10.27189640544541 $224 $320 forward 7 unknown #
coedge $-1 $143 $142 $315 $321 reversed $56 $-1 #
coedge $-1 $322 $323 $142 $228 forward $313 $-1 #
edge $-1 $324 -17.154632613499157 $231 4.0458195085976039 $227 $325 forward 7 unknown #
edge $-1 $326 0 $232 21.20045212209676 $222 $327 forward 7 unknown #
coedge $-1 $144 $318 $322 $328 forward $219 $-1 #
vertex $-1 $228 $329 #
vertex $-1 $145 $330 #
straight-curve $-1 25.168910718116823 -24.306288484535273 15.000332517150103 -1 0 0 I I #
coedge $-1 $234 $234 $-1 $331 reversed $148 $-1 #
edge $-1 $332 0 $332 6.2831853071796004 $149 $333 forward 7 unknown #
vertex $-1 $152 $334 #
ellipse-curve $-1 45.69019331300516 -33.392455600479067 9.5408124204318163 0 -0.51503808176128008 0.85716729658548041 2.5 0 0 1 I I #
coedge $-1 $238 $238 $-1 $335 reversed $155 $-1 #
edge $-1 $336 0 $336 6.2831853071796004 $156 $337 forward 7 unknown #
vertex $-1 $159 $338 #
ellipse-curve $-1 54.985449559462147 -33.392455600479067 9.5408124204318163 0 -0.51503808176128008 0.85716729658548041 2.5 0 0 1 I I #
face $-1 $-1 $175 $24 $-1 $339 reversed single #
loop $-1 $-1 $258 $160 #
plane-surface $-1 0 42.478622716422869 0 0 -1 0 0 0 -1 forward_v I I I I #
coedge $-1 $340 $256 $259 $341 forward $161 $-1 #
coedge $-1 $262 $163 $164 $250 reversed $101 $-1 #
coedge $-1 $256 $340 $163 $248 reversed $161 $-1 #
edge $-1 $263 -15.000332517150103 $342 15.000332517150103 $247 $343 forward 7 unknown #
coedge $-1 $165 $164 $340 $344 forward $65 $-1 #
edge $-1 $254 -61.182287057100133 $342 61.182287057100133 $246 $345 forward 7 unknown #
coedge $-1 $259 $258 $165 $252 reversed $243 $-1 #
edge $-1 $346 -61.182287057100133 $253 61.182287057100133 $251 $347 forward 7 unknown #
vertex $-1 $167 $348 #
vertex $-1 $265 $349 #
straight-curve $-1 61.182287057100133 0 -15.000332517150103 0 -1 0 I I #
coedge $-1 $245 $247 $168 $257 reversed $161 $-1 #
edge $-1 $260 -42.478622716422869 $263 42.478622716422869 $256 $350 forward 7 unknown #
coedge $-1 $251 $169 $174 $266 forward $243 $-1 #
coedge $-1 $169 $251 $245 $341 reversed $243 $-1 #
vertex $-1 $170 $351 #
straight-curve $-1 0 42.478622716422869 15.000332517150103 -1 0 0 I I #
coedge $-1 $171 $246 $173 $265 reversed $101 $-1 #
vertex $-1 $257 $352 #
straight-curve $-1 0 -42.478622716422869 15.000332517150103 1 0 0 I I #
edge $-1 $176 -15.000332517150103 $254 15.000332517150103 $173 $353 forward 7 unknown #
edge $-1 $177 -15.000332517150103 $253 15.000332517150103 $174 $354 forward 7 unknown #
point $-1 61.182287057100133 -42.478622716422869 15.000332517150103 #
point $-1 61.182287057100133 42.478622716422869 15.000332517150103 #
plane-surface $-1 0 0 15.000332517150103 0 0 1 1 0 0 forward_v I I I I #
coedge $-1 $280 $279 $272 $355 forward $180 $-1 #
coedge $-1 $272 $182 $184 $276 reversed $109 $-1 #
coedge $-1 $182 $271 $270 $355 reversed $109 $-1 #
coedge $-1 $190 $185 $182 $274 forward $191 $-1 #
edge $-1 $277 -13.19972638663517 $356 -6.9369570044230571 $273 $357 forward 7 unknown #
coedge $-1 $184 $183 $280 $358 reversed $69 $-1 #
edge $-1 $359 -84.957245432845795 $277 -73.458309217650822 $271 $360 forward 7 unknown #
vertex $-1 $186 $361 #
straight-curve $-1 -8.7897928267299221 36.215853334210763 15.000332517150099 1 0 0 I I #
coedge $-1 $270 $187 $190 $284 reversed $180 $-1 #
coedge $-1 $187 $270 $275 $358 forward $180 $-1 #
vertex $-1 $188 $362 #
straight-curve $-1 -32.002991937697907 42.478622716422869 71.626088537190384 0 0 1 I I #
straight-curve $-1 -32.002991937697907 -3.7924084065100203 76.607655017011936 0 0.54463902268945019 -0.83867057594974714 I I #
edge $-1 $356 3.1561793692217819 $192 32.002991937697907 $279 $363 forward 7 unknown #
point $-1 -32.002991937697907 42.478622716422869 15.000332517150103 #
point $-1 -32.002991937697907 36.215853334210756 15.000332517150099 #
edge $-1 $364 1 $364 0 $195 $-1 forward 7 unknown #
vertex $-1 $196 $365 #
ellipse-curve $-1 -17.579585653459844 35.803562419329261 7.8771330156330439 0 0.83867057594974714 0.54463902268945019 2 0 0 1 I I #
point $-1 -15.579585653459844 39.34723802531682 10.178422787946644 #
loop $-1 $-1 $207 $199 #
plane-surface $-1 0 42.478622716422869 0 0 -1 0 0 0 -1 forward_v I I I I #
coedge $-1 $294 $202 $204 $298 reversed $124 $-1 #
coedge $-1 $202 $293 $366 $367 reversed $124 $-1 #
coedge $-1 $210 $205 $202 $296 forward $200 $-1 #
edge $-1 $299 -13.19972638663517 $368 -6.9369570044230571 $295 $369 forward 7 unknown #
coedge $-1 $204 $203 $302 $370 reversed $78 $-1 #
edge $-1 $371 -84.957245432845795 $299 -73.458309217650822 $293 $372 forward 7 unknown #
vertex $-1 $206 $373 #
straight-curve $-1 8.7897928267299186 36.215853334210763 15.000332517150099 1 0 0 I I #
coedge $-1 $366 $207 $210 $306 reversed $291 $-1 #
coedge $-1 $207 $366 $297 $370 forward $291 $-1 #
vertex $-1 $208 $374 #
straight-curve $-1 3.1561793692217748 42.478622716422869 71.626088537190384 0 0 1 I I #
straight-curve $-1 3.1561793692217748 -3.7924084065100203 76.607655017011936 0 0.54463902268945019 -0.83867057594974714 I I #
edge $-1 $368 -32.0029919376979 $211 -3.1561793692217748 $301 $375 forward 7 unknown #
point $-1 3.1561793692217748 42.478622716422869 15.000332517150103 #
point $-1 3.1561793692217748 36.215853334210756 15.000332517150099 #
edge $-1 $376 1 $376 0 $214 $-1 forward 7 unknown #
vertex $-1 $215 $377 #
ellipse-curve $-1 17.579585653459837 35.803562419329261 7.8771330156330439 0 0.83867057594974714 0.54463902268945019 2 0 0 1 I I #
point $-1 19.579585653459837 39.34723802531682 10.178422787946644 #
loop $-1 $-1 $227 $218 #
plane-surface $-1 61.182287057100133 0 0 -1 0 0 0 0 1 forward_v I I I I #
coedge $-1 $378 $221 $226 $321 forward $139 $-1 #
coedge $-1 $221 $378 $318 $379 reversed $139 $-1 #
edge $-1 $319 39.483769240358015 $326 50.402809433794587 $221 $380 forward 7 unknown #
coedge $-1 $230 $224 $316 $379 forward $219 $-1 #
vertex $-1 $379 $381 #
straight-curve $-1 39.493355815367174 -52.75051912186828 15.000332517150099 0 -1 0 I I #
edge $-1 $326 14.324445097250351 $324 36.013376338983292 $315 $382 forward 7 unknown #
coedge $-1 $323 $227 $230 $328 reversed $313 $-1 #
coedge $-1 $227 $322 $378 $383 forward $313 $-1 #
vertex $-1 $321 $384 #
straight-curve $-1 61.182287057100133 -27.77423265519268 12.916581398289626 0 0.85716729658548041 0.51503808176128008 I I #
vertex $-1 $321 $385 #
straight-curve $-1 39.493355815367174 -42.478622716422869 4.0812923237135266 0 0.85716729658548041 0.51503808176128008 I I #
edge $-1 $386 -42.478622716422869 $231 -24.306288484535276 $322 $387 forward 7 unknown #
point $-1 61.182287057100119 -24.306288484535276 15.000332517150103 #
point $-1 39.493355815367174 -24.306288484535276 15.000332517150103 #
edge $-1 $388 1 $388 0 $234 $-1 forward 7 unknown #
vertex $-1 $235 $389 #
ellipse-curve $-1 45.69019331300516 -28.894104789478476 2.0542995968117879 0 -0.51503808176128008 0.85716729658548041 2.5 0 0 1 I I #
point $-1 48.19019331300516 -33.392455600479067 9.5408124204318074 #
edge $-1 $390 1 $390 0 $238 $-1 forward 7 unknown #
vertex $-1 $239 $391 #
ellipse-curve $-1 54.985449559462147 -28.894104789478476 2.0542995968117879 0 -0.51503808176128008 0.85716729658548041 2.5 0 0 1 I I #
point $-1 57.485449559462147 -33.392455600479067 9.5408124204318074 #
plane-surface $-1 61.182287057100133 0 0 -1 0 0 0 0 1 forward_v I I I I #
coedge $-1 $247 $245 $249 $344 reversed $161 $-1 #
edge $-1 $260 -15.000332517150103 $346 15.000332517150103 $259 $392 forward 7 unknown #
vertex $-1 $344 $393 #
straight-curve $-1 -61.182287057100133 -42.478622716422869 0 0 0 -1 I I #
edge $-1 $342 -42.478622716422869 $346 42.478622716422869 $340 $394 forward 7 unknown #
straight-curve $-1 0 -42.478622716422869 -15.000332517150103 -1 0 0 I I #
vertex $-1 $252 $395 #
straight-curve $-1 0 42.478622716422869 -15.000332517150103 1 0 0 I I #
point $-1 61.182287057100133 42.478622716422869 -15.000332517150103 #
point $-1 61.182287057100133 -42.478622716422869 -15.000332517150103 #
straight-curve $-1 -61.182287057100133 0 15.000332517150103 0 -1 0 I I #
point $-1 -61.182287057100133 42.478622716422869 15.000332517150103 #
point $-1 -61.182287057100133 -42.478622716422869 15.000332517150103 #
straight-curve $-1 61.182287057100133 -42.478622716422869 0 0 0 -1 I I #
straight-curve $-1 61.182287057100133 42.478622716422869 0 0 0 -1 I I #
edge $-1 $356 56.625756020040285 $359 66.269575478447251 $270 $396 forward 7 unknown #
vertex $-1 $284 $397 #
straight-curve $-1 -3.1561793692217819 49.415579720845926 15.000332517150099 0 1 0 I I #
edge $-1 $359 -5.6336134575081402 $281 23.213199110967984 $280 $398 forward 7 unknown #
vertex $-1 $358 $399 #
straight-curve $-1 -3.1561793692217819 -3.7924084065100203 76.607655017011936 0 -0.54463902268945019 0.83867057594974714 I I #
point $-1 -3.1561793692217819 36.215853334210756 15.000332517150099 #
point $-1 -32.002991937697907 42.478622716422869 5.3565130587431327 #
straight-curve $-1 0 42.478622716422869 15.000332517150103 -1 0 0 I I #
vertex $-1 $287 $400 #
point $-1 -15.579585653459844 35.803562419329261 7.8771330156330439 #
coedge $-1 $302 $301 $294 $367 forward $291 $-1 #
edge $-1 $368 56.625756020040285 $371 66.269575478447251 $366 $401 forward 7 unknown #
vertex $-1 $306 $402 #
straight-curve $-1 32.0029919376979 49.415579720845926 15.000332517150099 0 1 0 I I #
edge $-1 $371 -23.213199110967981 $303 5.6336134575081438 $302 $403 forward 7 unknown #
vertex $-1 $370 $404 #
straight-curve $-1 32.0029919376979 -3.7924084065100203 76.607655017011936 0 -0.54463902268945019 0.83867057594974714 I I #
point $-1 32.0029919376979 36.215853334210756 15.000332517150099 #
point $-1 3.1561793692217748 42.478622716422869 5.3565130587431327 #
straight-curve $-1 0 42.478622716422869 15.000332517150103 -1 0 0 I I #
vertex $-1 $309 $405 #
point $-1 19.579585653459837 35.803562419329261 7.8771330156330439 #
coedge $-1 $316 $315 $323 $383 reversed $139 $-1 #
edge $-1 $319 39.493355815367174 $386 61.182287057100133 $316 $406 forward 7 unknown #
straight-curve $-1 39.493355815367174 -42.478622716422869 54.484101757508114 0 0 -1 I I #
point $-1 39.493355815367174 -42.478622716422869 15.000332517150103 #
straight-curve $-1 25.168910718116823 -42.478622716422869 4.0812923237135257 1 0 0 I I #
edge $-1 $386 -15.000332517150103 $324 -4.0812923237135266 $323 $407 forward 7 unknown #
point $-1 61.182287057100119 -42.478622716422869 4.0812923237135266 #
point $-1 39.493355815367174 -42.478622716422869 4.0812923237135266 #
vertex $-1 $328 $408 #
straight-curve $-1 61.182287057100133 0 15.000332517150103 0 1 0 I I #
vertex $-1 $331 $409 #
point $-1 48.19019331300516 -28.894104789478476 2.0542995968117879 #
vertex $-1 $335 $410 #
point $-1 57.485449559462147 -28.894104789478476 2.0542995968117879 #
straight-curve $-1 -61.182287057100133 42.478622716422869 0 0 0 -1 I I #
point $-1 -61.182287057100133 -42.478622716422869 -15.000332517150103 #
straight-curve $-1 -61.182287057100133 0 -15.000332517150103 0 1 0 I I #
point $-1 -61.182287057100133 42.478622716422869 -15.000332517150103 #
straight-curve $-1 -3.1561793692217819 42.478622716422869 71.626088537190384 0 0 -1 I I #
point $-1 -3.1561793692217819 42.478622716422869 15.000332517150103 #
straight-curve $-1 -8.7897928267299221 42.478622716422869 5.3565130587431327 -1 0 0 I I #
point $-1 -3.1561793692217819 42.478622716422869 5.3565130587431327 #
point $-1 -17.579585653459844 34.126221267429763 6.7878549702541431 #
straight-curve $-1 32.0029919376979 42.478622716422869 71.626088537190384 0 0 -1 I I #
point $-1 32.0029919376979 42.478622716422869 15.000332517150103 #
straight-curve $-1 8.7897928267299186 42.478622716422869 5.3565130587431327 -1 0 0 I I #
point $-1 32.0029919376979 42.478622716422869 5.3565130587431327 #
point $-1 17.579585653459837 34.126221267429763 6.7878549702541431 #
straight-curve $-1 0 -42.478622716422869 15.000332517150103 1 0 0 I I #
straight-curve $-1 61.182287057100133 -42.478622716422869 0 0 0 -1 I I #
point $-1 61.182287057100133 -42.478622716422869 15.000332517150103 #
point $-1 45.69019331300516 -27.606509585075273 -0.088618644651912826 #
point $-1 54.985449559462147 -27.606509585075273 -0.088618644651912826 #
End-of-ACIS-data 