500 0 15 0           
7 Unknown 11 ACIS 5.0 NT 24 Fri Mar 26 17:15:27 1999 
-1 9.9999999999999995e-007 1e-010 
body $-1 $15 $-1 $16 #
body $-1 $17 $-1 $18 #
body $-1 $19 $-1 $20 #
body $-1 $21 $-1 $22 #
body $-1 $23 $-1 $24 #
body $-1 $25 $-1 $26 #
body $-1 $27 $-1 $28 #
body $-1 $29 $-1 $30 #
body $-1 $31 $-1 $32 #
body $-1 $33 $-1 $34 #
body $-1 $35 $-1 $36 #
body $-1 $37 $-1 $38 #
body $-1 $39 $-1 $40 #
body $-1 $41 $-1 $42 #
body $-1 $43 $-1 $44 #
lump $-1 $-1 $45 $0 #
transform $-1 1 0 0 0 1 0 0 0 1 74.441969054231393 46.618752073419401 21.763005553339251 1 rotate no_reflect no_shear #
lump $-1 $-1 $46 $1 #
transform $-1 1 0 0 0 1 0 0 0 1 74.441969054231393 46.618752073419401 21.763005553339251 1 rotate no_reflect no_shear #
lump $-1 $-1 $47 $2 #
transform $-1 1 0 0 0 1 0 0 0 1 74.441969054231393 46.618752073419401 21.763005553339251 1 rotate no_reflect no_shear #
lump $-1 $-1 $48 $3 #
transform $-1 1 0 0 0 1 0 0 0 1 74.441969054231393 46.618752073419401 21.763005553339251 1 rotate no_reflect no_shear #
lump $-1 $-1 $49 $4 #
transform $-1 1 0 0 0 1 0 0 0 1 74.441969054231393 46.618752073419401 21.763005553339251 1 rotate no_reflect no_shear #
lump $-1 $-1 $50 $5 #
transform $-1 1 0 0 0 1 0 0 0 1 74.441969054231393 46.618752073419401 21.763005553339251 1 rotate no_reflect no_shear #
lump $-1 $-1 $51 $6 #
transform $-1 1 0 0 0 1 0 0 0 1 74.441969054231393 46.618752073419401 21.763005553339251 1 rotate no_reflect no_shear #
lump $-1 $-1 $52 $7 #
transform $-1 1 0 0 0 1 0 0 0 1 74.441969054231393 46.618752073419401 21.763005553339251 1 rotate no_reflect no_shear #
lump $-1 $-1 $53 $8 #
transform $-1 1 0 0 0 1 0 0 0 1 74.441969054231393 46.618752073419401 21.763005553339251 1 rotate no_reflect no_shear #
lump $-1 $-1 $54 $9 #
transform $-1 1 0 0 0 1 0 0 0 1 74.441969054231393 46.618752073419401 21.763005553339251 1 rotate no_reflect no_shear #
lump $-1 $-1 $55 $10 #
transform $-1 1 0 0 0 1 0 0 0 1 74.441969054231393 46.618752073419401 21.763005553339251 1 rotate no_reflect no_shear #
lump $-1 $-1 $56 $11 #
transform $-1 1 0 0 0 1 0 0 0 1 74.441969054231393 46.618752073419401 21.763005553339251 1 rotate no_reflect no_shear #
lump $-1 $-1 $57 $12 #
transform $-1 1 0 0 0 1 0 0 0 1 74.441969054231393 46.618752073419401 21.763005553339251 1 rotate no_reflect no_shear #
lump $-1 $-1 $58 $13 #
transform $-1 1 0 0 0 1 0 0 0 1 74.441969054231393 46.618752073419401 21.763005553339251 1 rotate no_reflect no_shear #
lump $-1 $-1 $59 $14 #
transform $-1 1 0 0 0 1 0 0 0 1 74.441969054231393 46.618752073419401 21.763005553339251 1 rotate no_reflect no_shear #
shell $-1 $-1 $-1 $60 $-1 $15 #
shell $-1 $-1 $-1 $61 $-1 $17 #
shell $-1 $-1 $-1 $62 $-1 $19 #
shell $-1 $-1 $-1 $63 $-1 $21 #
shell $-1 $-1 $-1 $64 $-1 $23 #
shell $-1 $-1 $-1 $65 $-1 $25 #
shell $-1 $-1 $-1 $66 $-1 $27 #
shell $-1 $-1 $-1 $67 $-1 $29 #
shell $-1 $-1 $-1 $68 $-1 $31 #
shell $-1 $-1 $-1 $69 $-1 $33 #
shell $-1 $-1 $-1 $70 $-1 $35 #
shell $-1 $-1 $-1 $71 $-1 $37 #
shell $-1 $-1 $-1 $72 $-1 $39 #
shell $-1 $-1 $-1 $73 $-1 $41 #
shell $-1 $-1 $-1 $74 $-1 $43 #
face $-1 $75 $76 $45 $-1 $77 forward single #
face $-1 $78 $79 $46 $-1 $80 reversed single #
face $-1 $81 $82 $47 $-1 $83 forward single #
face $-1 $84 $85 $48 $-1 $86 reversed single #
face $-1 $87 $88 $49 $-1 $89 forward single #
face $-1 $90 $91 $50 $-1 $92 forward single #
face $-1 $93 $94 $51 $-1 $95 reversed single #
face $-1 $96 $97 $52 $-1 $98 forward single #
face $-1 $99 $100 $53 $-1 $101 forward single #
face $-1 $102 $103 $54 $-1 $104 reversed single #
face $-1 $105 $106 $55 $-1 $107 forward single #
face $-1 $108 $109 $56 $-1 $110 forward single #
face $-1 $111 $112 $57 $-1 $113 reversed single #
face $-1 $114 $115 $58 $-1 $116 forward single #
face $-1 $117 $118 $59 $-1 $119 forward single #
face $-1 $120 $121 $45 $-1 $122 reversed single #
loop $-1 $-1 $123 $60 #
plane-surface $-1 0 0 21.763005553339251 0 0 1 1 0 0 forward_v I I I I #
face $-1 $124 $125 $46 $-1 $126 reversed single #
loop $-1 $-1 $127 $61 #
plane-surface $-1 -43.144605844735167 -34.096040920255774 0 1 0 0 0 0 -1 forward_v I I I I #
face $-1 $128 $129 $47 $-1 $130 reversed single #
loop $-1 $-1 $131 $62 #
plane-surface $-1 0 46.618752073419401 0 0 -1 0 0 0 -1 forward_v I I I I #
face $-1 $132 $133 $48 $-1 $134 reversed single #
loop $-1 $-1 $135 $63 #
plane-surface $-1 -159.83828880497265 -21.573329767092147 124.52162397010228 0 1 0 -0.57357644374324357 0 0.81915203911291934 forward_v I I I I #
face $-1 $136 $137 $49 $-1 $138 forward single #
loop $-1 $139 $140 $64 #
cone-surface $-1 -60.125884702844225 -18.345430987662542 11.297723269804727 0.57357644374324357 0 -0.81915203911291934 0.81915203911291934 0 0.57357644374324357 1 I I 0 1 1 forward I I I I #
face $-1 $141 $142 $50 $-1 $143 forward single #
loop $-1 $144 $145 $65 #
cone-surface $-1 -60.125884702844225 -13.50358281851814 11.297723269804727 0.57357644374324357 0 -0.81915203911291934 0.81915203911291934 0 0.57357644374324357 1 I I 0 1 1 forward I I I I #
face $-1 $146 $147 $51 $-1 $148 reversed single #
loop $-1 $-1 $149 $66 #
plane-surface $-1 -159.83828880497265 4.2369218395345474 124.52162397010228 0 1 0 -0.57357644374324357 0 0.81915203911291934 forward_v I I I I #
face $-1 $150 $151 $52 $-1 $152 forward single #
loop $-1 $153 $154 $67 #
cone-surface $-1 -60.125884702844225 7.4648206189641542 11.297723269804727 0.57357644374324357 0 -0.81915203911291934 0.81915203911291934 0 0.57357644374324357 1 I I 0 1 1 forward I I I I #
face $-1 $155 $156 $53 $-1 $157 forward single #
loop $-1 $158 $159 $68 #
cone-surface $-1 -60.125884702844225 12.306668788108553 11.297723269804727 0.57357644374324357 0 -0.81915203911291934 0.81915203911291934 0 0.57357644374324357 1 I I 0 1 1 forward I I I I #
face $-1 $160 $161 $54 $-1 $162 reversed single #
loop $-1 $-1 $163 $69 #
plane-surface $-1 37.87970731226369 -10.275684039088533 209.91794372084354 0 -1 0 -0.57357644374324357 0 -0.81915203911291934 forward_v I I I I #
face $-1 $164 $165 $55 $-1 $166 forward single #
loop $-1 $167 $168 $70 #
cone-surface $-1 60.125884702844196 -18.345430987662542 11.297723269804703 -0.57357644374324357 0 -0.81915203911291934 0.81915203911291934 0 -0.57357644374324357 1 I I 0 1 1 forward I I I I #
face $-1 $169 $170 $56 $-1 $171 forward single #
loop $-1 $172 $173 $71 #
cone-surface $-1 60.125884702844196 -13.50358281851814 11.297723269804703 -0.57357644374324357 0 -0.81915203911291934 0.81915203911291934 0 -0.57357644374324357 1 I I 0 1 1 forward I I I I #
face $-1 $174 $175 $57 $-1 $176 reversed single #
loop $-1 $-1 $177 $72 #
plane-surface $-1 37.87970731226369 15.53456756753816 209.91794372084354 0 -1 0 -0.57357644374324357 0 -0.81915203911291934 forward_v I I I I #
face $-1 $178 $179 $58 $-1 $180 forward single #
loop $-1 $181 $182 $73 #
cone-surface $-1 60.125884702844196 7.4648206189641542 11.297723269804703 -0.57357644374324357 0 -0.81915203911291934 0.81915203911291934 0 -0.57357644374324357 1 I I 0 1 1 forward I I I I #
face $-1 $183 $184 $59 $-1 $185 forward single #
loop $-1 $186 $187 $74 #
cone-surface $-1 60.125884702844196 12.306668788108553 11.297723269804703 -0.57357644374324357 0 -0.81915203911291934 0.81915203911291934 0 -0.57357644374324357 1 I I 0 1 1 forward I I I I #
face $-1 $188 $189 $45 $-1 $190 reversed single #
loop $-1 $-1 $191 $75 #
plane-surface $-1 0 0 -21.763005553339251 0 0 1 1 0 0 forward_v I I I I #
coedge $-1 $192 $193 $194 $195 forward $76 $-1 #
face $-1 $196 $197 $46 $-1 $198 reversed single #
loop $-1 $-1 $199 $78 #
plane-surface $-1 -37.030281896144032 -21.573329767092147 0 0 -1 0 0 0 -1 forward_v I I I I #
coedge $-1 $200 $201 $202 $203 forward $79 $-1 #
face $-1 $204 $205 $47 $-1 $206 forward single #
loop $-1 $-1 $207 $81 #
plane-surface $-1 74.441969054231393 0 0 -1 0 0 0 0 1 forward_v I I I I #
coedge $-1 $208 $209 $210 $211 forward $82 $-1 #
face $-1 $212 $213 $48 $-1 $214 reversed single #
loop $-1 $-1 $215 $84 #
plane-surface $-1 -74.441969054231393 -15.924506903090339 2.56304247739331 -0.57357644374324357 0 0.81915203911291934 0.81915203911291934 0 0.57357644374324357 forward_v I I I I #
coedge $-1 $216 $217 $218 $219 reversed $85 $-1 #
face $-1 $-1 $220 $49 $-1 $221 forward single #
loop $-1 $222 $223 $87 #
cone-surface $-1 -59.233206364474754 -18.345430987662542 10.022846504686711 0.57357644374324357 0 -0.81915203911291934 0.40957601955645967 0 0.28678822187162178 1 I I -0.70710678118654746 0.70710678118654746 0.5 forward I I I I #
loop $-1 $-1 $224 $64 #
coedge $-1 $140 $140 $225 $226 reversed $88 $-1 #
face $-1 $-1 $227 $50 $-1 $228 forward single #
loop $-1 $229 $230 $90 #
cone-surface $-1 -59.233206364474754 -13.50358281851814 10.022846504686711 0.57357644374324357 0 -0.81915203911291934 0.40957601955645967 0 0.28678822187162178 1 I I -0.70710678118654746 0.70710678118654746 0.5 forward I I I I #
loop $-1 $-1 $231 $65 #
coedge $-1 $145 $145 $232 $233 reversed $91 $-1 #
face $-1 $234 $235 $51 $-1 $236 reversed single #
loop $-1 $-1 $237 $93 #
plane-surface $-1 -74.441969054231393 9.8857447035363535 2.56304247739331 -0.57357644374324357 0 0.81915203911291934 0.81915203911291934 0 0.57357644374324357 forward_v I I I I #
coedge $-1 $238 $239 $240 $241 reversed $94 $-1 #
face $-1 $-1 $242 $52 $-1 $243 forward single #
loop $-1 $244 $245 $96 #
cone-surface $-1 -59.233206364474754 7.4648206189641542 10.022846504686711 0.57357644374324357 0 -0.81915203911291934 0.40957601955645967 0 0.28678822187162178 1 I I -0.70710678118654746 0.70710678118654746 0.5 forward I I I I #
loop $-1 $-1 $246 $67 #
coedge $-1 $154 $154 $247 $248 reversed $97 $-1 #
face $-1 $-1 $249 $53 $-1 $250 forward single #
loop $-1 $251 $252 $99 #
cone-surface $-1 -59.233206364474754 12.306668788108553 10.022846504686711 0.57357644374324357 0 -0.81915203911291934 0.40957601955645967 0 0.28678822187162178 1 I I -0.70710678118654746 0.70710678118654746 0.5 forward I I I I #
loop $-1 $-1 $253 $68 #
coedge $-1 $159 $159 $254 $255 reversed $100 $-1 #
face $-1 $256 $257 $54 $-1 $258 reversed single #
loop $-1 $-1 $259 $102 #
plane-surface $-1 -47.516612438477566 -15.924506903090339 87.959362228134566 0.57357644374324357 0 0.81915203911291934 0.81915203911291934 0 -0.57357644374324357 forward_v I I I I #
coedge $-1 $260 $261 $262 $263 reversed $103 $-1 #
face $-1 $-1 $264 $55 $-1 $265 forward single #
loop $-1 $266 $267 $105 #
cone-surface $-1 59.233206364474725 -18.345430987662542 10.022846504686687 -0.57357644374324357 0 -0.81915203911291934 0.40957601955645967 0 -0.28678822187162178 1 I I -0.70710678118654746 0.70710678118654746 0.5 forward I I I I #
loop $-1 $-1 $268 $70 #
coedge $-1 $168 $168 $269 $270 reversed $106 $-1 #
face $-1 $-1 $271 $56 $-1 $272 forward single #
loop $-1 $273 $274 $108 #
cone-surface $-1 59.233206364474725 -13.50358281851814 10.022846504686687 -0.57357644374324357 0 -0.81915203911291934 0.40957601955645967 0 -0.28678822187162178 1 I I -0.70710678118654746 0.70710678118654746 0.5 forward I I I I #
loop $-1 $-1 $275 $71 #
coedge $-1 $173 $173 $276 $277 reversed $109 $-1 #
face $-1 $278 $279 $57 $-1 $280 reversed single #
loop $-1 $-1 $281 $111 #
plane-surface $-1 -47.516612438477566 9.8857447035363535 87.959362228134566 0.57357644374324357 0 0.81915203911291934 0.81915203911291934 0 -0.57357644374324357 forward_v I I I I #
coedge $-1 $282 $283 $284 $285 reversed $112 $-1 #
face $-1 $-1 $286 $58 $-1 $287 forward single #
loop $-1 $288 $289 $114 #
cone-surface $-1 59.233206364474725 7.4648206189641542 10.022846504686687 -0.57357644374324357 0 -0.81915203911291934 0.40957601955645967 0 -0.28678822187162178 1 I I -0.70710678118654746 0.70710678118654746 0.5 forward I I I I #
loop $-1 $-1 $290 $73 #
coedge $-1 $182 $182 $291 $292 reversed $115 $-1 #
face $-1 $-1 $293 $59 $-1 $294 forward single #
loop $-1 $295 $296 $117 #
cone-surface $-1 59.233206364474725 12.306668788108553 10.022846504686687 -0.57357644374324357 0 -0.81915203911291934 0.40957601955645967 0 -0.28678822187162178 1 I I -0.70710678118654746 0.70710678118654746 0.5 forward I I I I #
loop $-1 $-1 $297 $74 #
coedge $-1 $187 $187 $298 $299 reversed $118 $-1 #
face $-1 $300 $301 $45 $-1 $302 reversed single #
loop $-1 $-1 $303 $120 #
plane-surface $-1 0 -46.618752073419401 0 0 1 0 0 0 1 forward_v I I I I #
coedge $-1 $304 $305 $306 $307 forward $121 $-1 #
coedge $-1 $308 $123 $309 $310 forward $76 $-1 #
coedge $-1 $123 $308 $311 $312 forward $76 $-1 #
coedge $-1 $313 $314 $123 $195 reversed $315 $-1 #
edge $-1 $316 -46.618752073419401 $317 46.618752073419401 $194 $318 forward 7 unknown #
face $-1 $319 $320 $46 $-1 $321 forward single #
loop $-1 $-1 $322 $124 #
plane-surface $-1 -30.915957947552894 -34.096040920255774 0 -1 0 0 0 0 1 forward_v I I I I #
coedge $-1 $323 $324 $325 $326 forward $125 $-1 #
coedge $-1 $327 $127 $328 $329 reversed $79 $-1 #
coedge $-1 $127 $327 $330 $331 reversed $79 $-1 #
coedge $-1 $324 $323 $127 $203 reversed $125 $-1 #
edge $-1 $332 -21.763005553339251 $333 21.763005553339251 $202 $334 forward 7 unknown #
face $-1 $335 $336 $47 $-1 $337 reversed single #
loop $-1 $-1 $338 $128 #
plane-surface $-1 0 54.904541387048482 -5.3256693804757598 0 0 1 1 0 0 forward_v I I I I #
coedge $-1 $339 $340 $209 $341 forward $129 $-1 #
coedge $-1 $342 $131 $343 $344 reversed $82 $-1 #
coedge $-1 $131 $342 $207 $341 reversed $82 $-1 #
coedge $-1 $338 $345 $131 $211 reversed $205 $-1 #
edge $-1 $346 -74.441969054231393 $347 74.441969054231393 $210 $348 forward 7 unknown #
face $-1 $349 $350 $48 $-1 $351 reversed single #
loop $-1 $-1 $352 $132 #
plane-surface $-1 -159.83828880497265 -10.275684039088533 124.52162397010228 0 -1 0 0.57357644374324357 0 -0.81915203911291934 forward_v I I I I #
coedge $-1 $353 $354 $355 $356 reversed $133 $-1 #
coedge $-1 $217 $135 $357 $358 reversed $85 $-1 #
coedge $-1 $135 $216 $353 $359 reversed $85 $-1 #
coedge $-1 $355 $360 $135 $219 forward $361 $-1 #
edge $-1 $362 5.4771753482549315 $363 32.897563818033575 $218 $364 forward 7 unknown #
loop $-1 $-1 $225 $136 #
plane-surface $-1 -74.441969054231393 -15.924506903090339 2.56304247739331 -0.57357644374324357 0 0.81915203911291934 0.81915203911291934 0 0.57357644374324357 forward_v I I I I #
loop $-1 $-1 $365 $87 #
coedge $-1 $223 $223 $224 $366 reversed $137 $-1 #
coedge $-1 $224 $224 $223 $366 forward $139 $-1 #
coedge $-1 $225 $225 $140 $226 forward $220 $-1 #
edge $-1 $367 0 $367 6.2831853071796004 $225 $368 forward 7 unknown #
loop $-1 $-1 $232 $141 #
plane-surface $-1 -74.441969054231393 -15.924506903090339 2.56304247739331 -0.57357644374324357 0 0.81915203911291934 0.81915203911291934 0 0.57357644374324357 forward_v I I I I #
loop $-1 $-1 $369 $90 #
coedge $-1 $230 $230 $231 $370 reversed $142 $-1 #
coedge $-1 $231 $231 $230 $370 forward $144 $-1 #
coedge $-1 $232 $232 $145 $233 forward $227 $-1 #
edge $-1 $371 0 $371 6.2831853071796004 $232 $372 forward 7 unknown #
face $-1 $373 $374 $51 $-1 $375 forward single #
loop $-1 $-1 $376 $146 #
plane-surface $-1 -159.83828880497265 15.53456756753816 124.52162397010228 0 -1 0 0.57357644374324357 0 -0.81915203911291934 forward_v I I I I #
coedge $-1 $377 $378 $379 $380 reversed $147 $-1 #
coedge $-1 $239 $149 $381 $382 reversed $94 $-1 #
coedge $-1 $149 $238 $377 $383 reversed $94 $-1 #
coedge $-1 $379 $384 $149 $241 forward $374 $-1 #
edge $-1 $385 5.4771753482549315 $386 32.897563818033575 $240 $387 forward 7 unknown #
loop $-1 $-1 $247 $150 #
plane-surface $-1 -74.441969054231393 9.8857447035363535 2.56304247739331 -0.57357644374324357 0 0.81915203911291934 0.81915203911291934 0 0.57357644374324357 forward_v I I I I #
loop $-1 $-1 $388 $96 #
coedge $-1 $245 $245 $246 $389 reversed $151 $-1 #
coedge $-1 $246 $246 $245 $389 forward $153 $-1 #
coedge $-1 $247 $247 $154 $248 forward $242 $-1 #
edge $-1 $390 0 $390 6.2831853071796004 $247 $391 forward 7 unknown #
loop $-1 $-1 $254 $155 #
plane-surface $-1 -74.441969054231393 9.8857447035363535 2.56304247739331 -0.57357644374324357 0 0.81915203911291934 0.81915203911291934 0 0.57357644374324357 forward_v I I I I #
loop $-1 $-1 $392 $99 #
coedge $-1 $252 $252 $253 $393 reversed $156 $-1 #
coedge $-1 $253 $253 $252 $393 forward $158 $-1 #
coedge $-1 $254 $254 $159 $255 forward $249 $-1 #
edge $-1 $394 0 $394 6.2831853071796004 $254 $395 forward 7 unknown #
face $-1 $396 $397 $54 $-1 $398 forward single #
loop $-1 $-1 $399 $160 #
plane-surface $-1 37.87970731226369 -21.573329767092147 209.91794372084354 0 1 0 0.57357644374324357 0 0.81915203911291934 forward_v I I I I #
coedge $-1 $400 $401 $402 $403 reversed $161 $-1 #
coedge $-1 $261 $163 $404 $405 reversed $103 $-1 #
coedge $-1 $163 $260 $400 $406 reversed $103 $-1 #
coedge $-1 $402 $407 $163 $263 forward $397 $-1 #
edge $-1 $408 -55.502115398099548 $409 -28.081726928320904 $262 $410 forward 7 unknown #
loop $-1 $-1 $269 $164 #
plane-surface $-1 -47.516612438477566 -15.924506903090339 87.959362228134566 0.57357644374324357 0 0.81915203911291934 0.81915203911291934 0 -0.57357644374324357 forward_v I I I I #
loop $-1 $-1 $411 $105 #
coedge $-1 $267 $267 $268 $412 reversed $165 $-1 #
coedge $-1 $268 $268 $267 $412 forward $167 $-1 #
coedge $-1 $269 $269 $168 $270 forward $264 $-1 #
edge $-1 $413 0 $413 6.2831853071796004 $269 $414 forward 7 unknown #
loop $-1 $-1 $276 $169 #
plane-surface $-1 -47.516612438477566 -15.924506903090339 87.959362228134566 0.57357644374324357 0 0.81915203911291934 0.81915203911291934 0 -0.57357644374324357 forward_v I I I I #
loop $-1 $-1 $415 $108 #
coedge $-1 $274 $274 $275 $416 reversed $170 $-1 #
coedge $-1 $275 $275 $274 $416 forward $172 $-1 #
coedge $-1 $276 $276 $173 $277 forward $271 $-1 #
edge $-1 $417 0 $417 6.2831853071796004 $276 $418 forward 7 unknown #
face $-1 $419 $420 $57 $-1 $421 reversed single #
loop $-1 $-1 $422 $174 #
plane-surface $-1 37.87970731226369 4.2369218395345474 209.91794372084354 0 1 0 0.57357644374324357 0 0.81915203911291934 forward_v I I I I #
coedge $-1 $423 $424 $425 $426 reversed $175 $-1 #
coedge $-1 $283 $177 $427 $428 reversed $112 $-1 #
coedge $-1 $177 $282 $423 $429 reversed $112 $-1 #
coedge $-1 $425 $430 $177 $285 forward $431 $-1 #
edge $-1 $432 -55.502115398099548 $433 -28.081726928320904 $284 $434 forward 7 unknown #
loop $-1 $-1 $291 $178 #
plane-surface $-1 -47.516612438477566 9.8857447035363535 87.959362228134566 0.57357644374324357 0 0.81915203911291934 0.81915203911291934 0 -0.57357644374324357 forward_v I I I I #
loop $-1 $-1 $435 $114 #
coedge $-1 $289 $289 $290 $436 reversed $179 $-1 #
coedge $-1 $290 $290 $289 $436 forward $181 $-1 #
coedge $-1 $291 $291 $182 $292 forward $286 $-1 #
edge $-1 $437 0 $437 6.2831853071796004 $291 $438 forward 7 unknown #
loop $-1 $-1 $298 $183 #
plane-surface $-1 -47.516612438477566 9.8857447035363535 87.959362228134566 0.57357644374324357 0 0.81915203911291934 0.81915203911291934 0 -0.57357644374324357 forward_v I I I I #
loop $-1 $-1 $439 $117 #
coedge $-1 $296 $296 $297 $440 reversed $184 $-1 #
coedge $-1 $297 $297 $296 $440 forward $186 $-1 #
coedge $-1 $298 $298 $187 $299 forward $293 $-1 #
edge $-1 $441 0 $441 6.2831853071796004 $298 $442 forward 7 unknown #
face $-1 $443 $444 $45 $-1 $445 reversed single #
loop $-1 $-1 $446 $188 #
plane-surface $-1 -74.441969054231393 0 0 1 0 0 0 0 -1 forward_v I I I I #
coedge $-1 $447 $311 $448 $449 forward $189 $-1 #
coedge $-1 $450 $191 $447 $451 forward $121 $-1 #
coedge $-1 $191 $450 $452 $453 forward $121 $-1 #
coedge $-1 $314 $313 $191 $307 reversed $315 $-1 #
edge $-1 $454 -46.618752073419401 $455 46.618752073419401 $306 $456 forward 7 unknown #
coedge $-1 $193 $192 $457 $458 forward $76 $-1 #
coedge $-1 $459 $460 $192 $310 reversed $444 $-1 #
edge $-1 $317 -74.441969054231393 $461 74.441969054231393 $309 $462 forward 7 unknown #
coedge $-1 $303 $463 $193 $312 reversed $189 $-1 #
edge $-1 $464 -74.441969054231393 $316 74.441969054231393 $311 $465 forward 7 unknown #
coedge $-1 $306 $194 $463 $466 forward $315 $-1 #
coedge $-1 $194 $306 $459 $467 reversed $315 $-1 #
loop $-1 $-1 $313 $443 #
vertex $-1 $195 $468 #
vertex $-1 $195 $469 #
straight-curve $-1 74.441969054231393 0 21.763005553339251 0 1 0 I I #
face $-1 $470 $471 $46 $-1 $472 reversed single #
loop $-1 $-1 $473 $196 #
plane-surface $-1 0 0 21.763005553339251 0 0 1 1 0 0 forward_v I I I I #
coedge $-1 $474 $475 $476 $477 reversed $197 $-1 #
coedge $-1 $202 $199 $478 $479 reversed $125 $-1 #
coedge $-1 $199 $202 $480 $481 reversed $125 $-1 #
coedge $-1 $475 $474 $199 $326 reversed $197 $-1 #
edge $-1 $482 -21.763005553339251 $483 21.763005553339251 $325 $484 forward 7 unknown #
coedge $-1 $201 $200 $485 $486 reversed $79 $-1 #
coedge $-1 $478 $487 $200 $329 forward $471 $-1 #
edge $-1 $488 -29.570731613291514 $333 -4.5253093069642603 $328 $489 forward 7 unknown #
coedge $-1 $490 $480 $201 $331 forward $320 $-1 #
edge $-1 $332 4.5253093069642603 $491 29.570731613291514 $330 $492 forward 7 unknown #
vertex $-1 $331 $493 #
vertex $-1 $329 $494 #
straight-curve $-1 -43.144605844735167 -21.573329767092147 0 0 0 -1 I I #
face $-1 $495 $496 $47 $-1 $497 reversed single #
loop $-1 $-1 $498 $204 #
plane-surface $-1 0 54.904541387048482 -12.315308891026973 0 0 1 1 0 0 forward_v I I I I #
coedge $-1 $499 $210 $340 $500 forward $205 $-1 #
coedge $-1 $501 $207 $498 $502 reversed $129 $-1 #
coedge $-1 $207 $501 $338 $500 reversed $129 $-1 #
edge $-1 $346 5.3256693804757598 $503 12.315308891026973 $207 $504 forward 7 unknown #
coedge $-1 $209 $208 $505 $506 forward $82 $-1 #
coedge $-1 $507 $508 $208 $344 forward $509 $-1 #
edge $-1 $510 -12.315308891026973 $347 -5.3256693804757598 $343 $511 forward 7 unknown #
coedge $-1 $210 $499 $507 $512 forward $205 $-1 #
vertex $-1 $341 $513 #
vertex $-1 $512 $514 #
straight-curve $-1 0 46.618752073419401 -5.3256693804757598 -1 0 0 I I #
face $-1 $-1 $361 $48 $-1 $515 forward single #
loop $-1 $-1 $516 $212 #
plane-surface $-1 -74.441969054231393 0 0 1 0 0 0 0 -1 forward_v I I I I #
coedge $-1 $517 $518 $519 $520 reversed $213 $-1 #
coedge $-1 $521 $215 $217 $359 forward $133 $-1 #
coedge $-1 $215 $521 $517 $522 forward $133 $-1 #
coedge $-1 $519 $218 $215 $356 forward $361 $-1 #
edge $-1 $363 -13.611076315546978 $523 -2.3134305875433636 $355 $524 forward 7 unknown #
coedge $-1 $525 $526 $216 $358 forward $350 $-1 #
edge $-1 $527 -59.697769507657831 $362 -40.497806431711894 $357 $528 forward 7 unknown #
edge $-1 $363 -33.474113669390221 $527 0 $217 $529 forward 7 unknown #
coedge $-1 $218 $519 $525 $530 forward $361 $-1 #
loop $-1 $-1 $519 $349 #
vertex $-1 $358 $531 #
vertex $-1 $219 $532 #
straight-curve $-1 -79.919144402486324 -21.573329767092147 21.763005553339255 1 0 0 I I #
coedge $-1 $365 $365 $-1 $533 reversed $222 $-1 #
edge $-1 $534 0 $534 6.2831853071796004 $223 $535 forward 7 unknown #
vertex $-1 $226 $536 #
ellipse-curve $-1 -60.731774819342071 -18.345430987662542 12.163024015366281 -0.57357644374324357 0 0.81915203911291934 0.81915203911291934 0 0.57357644374324357 1 I I #
coedge $-1 $369 $369 $-1 $537 reversed $229 $-1 #
edge $-1 $538 0 $538 6.2831853071796004 $230 $539 forward 7 unknown #
vertex $-1 $233 $540 #
ellipse-curve $-1 -60.731774819342071 -13.50358281851814 12.163024015366281 -0.57357644374324357 0 0.81915203911291934 0.81915203911291934 0 0.57357644374324357 1 I I #
face $-1 $-1 $541 $51 $-1 $542 reversed single #
loop $-1 $-1 $240 $234 #
plane-surface $-1 0 0 21.763005553339251 0 0 1 1 0 0 forward_v I I I I #
coedge $-1 $543 $544 $545 $546 reversed $235 $-1 #
coedge $-1 $547 $237 $239 $383 forward $147 $-1 #
coedge $-1 $237 $547 $543 $548 forward $147 $-1 #
coedge $-1 $545 $240 $237 $380 forward $374 $-1 #
edge $-1 $386 -0.70595051223362937 $549 10.591695215769983 $379 $550 forward 7 unknown #
coedge $-1 $551 $552 $238 $382 forward $541 $-1 #
edge $-1 $553 -59.697769507657831 $385 -40.497806431711894 $381 $554 forward 7 unknown #
edge $-1 $386 -33.474113669390221 $553 0 $239 $555 forward 7 unknown #
coedge $-1 $240 $545 $551 $556 forward $374 $-1 #
vertex $-1 $382 $557 #
vertex $-1 $241 $558 #
straight-curve $-1 -79.919144402486324 4.2369218395345474 21.763005553339255 1 0 0 I I #
coedge $-1 $388 $388 $-1 $559 reversed $244 $-1 #
edge $-1 $560 0 $560 6.2831853071796004 $245 $561 forward 7 unknown #
vertex $-1 $248 $562 #
ellipse-curve $-1 -60.731774819342071 7.4648206189641542 12.163024015366281 -0.57357644374324357 0 0.81915203911291934 0.81915203911291934 0 0.57357644374324357 1 I I #
coedge $-1 $392 $392 $-1 $563 reversed $251 $-1 #
edge $-1 $564 0 $564 6.2831853071796004 $252 $565 forward 7 unknown #
vertex $-1 $255 $566 #
ellipse-curve $-1 -60.731774819342071 12.306668788108553 12.163024015366281 -0.57357644374324357 0 0.81915203911291934 0.81915203911291934 0 0.57357644374324357 1 I I #
face $-1 $-1 $567 $54 $-1 $568 reversed single #
loop $-1 $-1 $262 $256 #
plane-surface $-1 0 0 21.763005553339251 0 0 1 1 0 0 forward_v I I I I #
coedge $-1 $569 $570 $571 $572 reversed $257 $-1 #
coedge $-1 $573 $259 $261 $406 forward $161 $-1 #
coedge $-1 $259 $573 $569 $574 forward $161 $-1 #
coedge $-1 $571 $262 $259 $403 forward $397 $-1 #
edge $-1 $409 2.3134305875433636 $575 13.611076315546978 $402 $576 forward 7 unknown #
coedge $-1 $577 $578 $260 $405 forward $567 $-1 #
edge $-1 $579 -102.39592938302846 $408 -83.195966307082514 $404 $580 forward 7 unknown #
edge $-1 $409 115.40982443907255 $579 148.88393810846279 $261 $581 forward 7 unknown #
coedge $-1 $262 $571 $577 $582 forward $397 $-1 #
vertex $-1 $263 $583 #
vertex $-1 $263 $584 #
straight-curve $-1 18.939853656131845 -10.275684039088533 21.763005553339255 -1 0 0 I I #
coedge $-1 $411 $411 $-1 $585 reversed $266 $-1 #
edge $-1 $586 0 $586 6.2831853071796004 $267 $587 forward 7 unknown #
vertex $-1 $270 $588 #
ellipse-curve $-1 60.731774819342057 -18.345430987662542 12.163024015366279 0.57357644374324357 0 0.81915203911291934 0.81915203911291934 0 -0.57357644374324357 1 I I #
coedge $-1 $415 $415 $-1 $589 reversed $273 $-1 #
edge $-1 $590 0 $590 6.2831853071796004 $274 $591 forward 7 unknown #
vertex $-1 $277 $592 #
ellipse-curve $-1 60.731774819342057 -13.50358281851814 12.163024015366279 0.57357644374324357 0 0.81915203911291934 0.81915203911291934 0 -0.57357644374324357 1 I I #
face $-1 $-1 $431 $57 $-1 $593 forward single #
loop $-1 $-1 $594 $278 #
plane-surface $-1 74.441969054231393 0 0 -1 0 0 0 0 1 forward_v I I I I #
coedge $-1 $595 $596 $597 $598 reversed $279 $-1 #
coedge $-1 $599 $281 $283 $429 forward $175 $-1 #
coedge $-1 $281 $599 $595 $600 forward $175 $-1 #
coedge $-1 $597 $284 $281 $426 forward $431 $-1 #
edge $-1 $433 -10.591695215769983 $601 0.70595051223362937 $425 $602 forward 7 unknown #
coedge $-1 $603 $604 $282 $428 forward $420 $-1 #
edge $-1 $605 -102.39592938302846 $432 -83.195966307082514 $427 $606 forward 7 unknown #
edge $-1 $433 115.40982443907255 $605 148.88393810846279 $283 $607 forward 7 unknown #
coedge $-1 $284 $597 $603 $608 forward $431 $-1 #
loop $-1 $-1 $597 $419 #
vertex $-1 $428 $609 #
vertex $-1 $285 $610 #
straight-curve $-1 18.939853656131845 15.53456756753816 21.763005553339255 -1 0 0 I I #
coedge $-1 $435 $435 $-1 $611 reversed $288 $-1 #
edge $-1 $612 0 $612 6.2831853071796004 $289 $613 forward 7 unknown #
vertex $-1 $292 $614 #
ellipse-curve $-1 60.731774819342057 7.4648206189641542 12.163024015366279 0.57357644374324357 0 0.81915203911291934 0.81915203911291934 0 -0.57357644374324357 1 I I #
coedge $-1 $439 $439 $-1 $615 reversed $295 $-1 #
edge $-1 $616 0 $616 6.2831853071796004 $296 $617 forward 7 unknown #
vertex $-1 $299 $618 #
ellipse-curve $-1 60.731774819342057 12.306668788108553 12.163024015366279 0.57357644374324357 0 0.81915203911291934 0.81915203911291934 0 -0.57357644374324357 1 I I #
face $-1 $-1 $315 $45 $-1 $619 reversed single #
loop $-1 $-1 $460 $300 #
plane-surface $-1 0 46.618752073419401 0 0 -1 0 0 0 -1 forward_v I I I I #
coedge $-1 $620 $457 $460 $621 forward $301 $-1 #
coedge $-1 $463 $303 $304 $451 reversed $189 $-1 #
coedge $-1 $457 $620 $303 $449 reversed $301 $-1 #
edge $-1 $464 -21.763005553339251 $622 21.763005553339251 $448 $623 forward 7 unknown #
coedge $-1 $305 $304 $620 $624 forward $121 $-1 #
edge $-1 $455 -74.441969054231393 $622 74.441969054231393 $447 $625 forward 7 unknown #
coedge $-1 $460 $459 $305 $453 reversed $444 $-1 #
edge $-1 $626 -74.441969054231393 $454 74.441969054231393 $452 $627 forward 7 unknown #
vertex $-1 $307 $628 #
vertex $-1 $466 $629 #
straight-curve $-1 74.441969054231393 0 -21.763005553339251 0 -1 0 I I #
coedge $-1 $446 $448 $308 $458 reversed $301 $-1 #
edge $-1 $461 -46.618752073419401 $464 46.618752073419401 $457 $630 forward 7 unknown #
coedge $-1 $452 $309 $314 $467 forward $444 $-1 #
coedge $-1 $309 $452 $446 $621 reversed $444 $-1 #
vertex $-1 $310 $631 #
straight-curve $-1 0 46.618752073419401 21.763005553339251 -1 0 0 I I #
coedge $-1 $311 $447 $313 $466 reversed $189 $-1 #
vertex $-1 $458 $632 #
straight-curve $-1 0 -46.618752073419401 21.763005553339251 1 0 0 I I #
edge $-1 $316 -21.763005553339251 $455 21.763005553339251 $313 $633 forward 7 unknown #
edge $-1 $317 -21.763005553339251 $454 21.763005553339251 $314 $634 forward 7 unknown #
point $-1 74.441969054231393 -46.618752073419401 21.763005553339251 #
point $-1 74.441969054231393 46.618752073419401 21.763005553339251 #
face $-1 $-1 $635 $46 $-1 $636 reversed single #
loop $-1 $-1 $637 $319 #
plane-surface $-1 0 0 -21.763005553339251 0 0 1 1 0 0 forward_v I I I I #
coedge $-1 $480 $490 $475 $638 forward $320 $-1 #
coedge $-1 $325 $322 $637 $639 reversed $197 $-1 #
coedge $-1 $322 $325 $473 $638 reversed $197 $-1 #
coedge $-1 $640 $641 $322 $477 forward $635 $-1 #
edge $-1 $642 -21.763005553339251 $643 21.763005553339251 $476 $644 forward 7 unknown #
coedge $-1 $637 $328 $323 $479 forward $471 $-1 #
edge $-1 $333 -24.629464896663151 $483 -12.400816999480877 $478 $645 forward 7 unknown #
coedge $-1 $330 $473 $324 $481 forward $320 $-1 #
edge $-1 $482 12.400816999480877 $332 24.629464896663151 $480 $646 forward 7 unknown #
vertex $-1 $481 $647 #
vertex $-1 $479 $648 #
straight-curve $-1 -30.915957947552894 -21.573329767092147 0 0 0 -1 I I #
coedge $-1 $641 $640 $327 $486 forward $635 $-1 #
edge $-1 $491 -21.763005553339251 $488 21.763005553339251 $485 $649 forward 7 unknown #
coedge $-1 $328 $637 $641 $650 forward $471 $-1 #
vertex $-1 $329 $651 #
straight-curve $-1 -43.144605844735167 -17.048020460127887 -21.763005553339251 0 1 0 I I #
coedge $-1 $473 $330 $640 $652 forward $320 $-1 #
vertex $-1 $652 $653 #
straight-curve $-1 -43.144605844735167 -17.048020460127887 21.763005553339251 0 -1 0 I I #
point $-1 -43.144605844735167 -21.573329767092147 21.763005553339251 #
point $-1 -43.144605844735167 -21.573329767092147 -21.763005553339251 #
face $-1 $-1 $509 $47 $-1 $654 reversed single #
loop $-1 $-1 $655 $335 #
plane-surface $-1 0 63.190330700677563 -8.820489135751366 0 -1 0 0 0 -1 forward_v I I I I #
coedge $-1 $505 $656 $339 $502 forward $336 $-1 #
coedge $-1 $345 $338 $657 $658 forward $205 $-1 #
edge $-1 $346 -8.2857893136290812 $659 8.2857893136290812 $340 $660 forward 7 unknown #
coedge $-1 $340 $339 $655 $661 reversed $129 $-1 #
edge $-1 $662 -8.2857893136290812 $503 8.2857893136290812 $339 $663 forward 7 unknown #
vertex $-1 $341 $664 #
straight-curve $-1 74.441969054231393 46.618752073419401 0 0 0 -1 I I #
coedge $-1 $665 $498 $342 $506 reversed $336 $-1 #
edge $-1 $510 -74.441969054231393 $503 74.441969054231393 $505 $666 forward 7 unknown #
coedge $-1 $667 $343 $345 $512 reversed $509 $-1 #
coedge $-1 $343 $667 $665 $668 reversed $509 $-1 #
loop $-1 $-1 $343 $495 #
vertex $-1 $344 $669 #
straight-curve $-1 -74.441969054231393 46.618752073419401 0 0 0 1 I I #
edge $-1 $670 -8.2857893136290812 $347 8.2857893136290812 $507 $671 forward 7 unknown #
point $-1 74.441969054231393 46.618752073419401 -5.3256693804757598 #
point $-1 -74.441969054231393 46.618752073419401 -5.3256693804757598 #
plane-surface $-1 0 0 21.763005553339251 0 0 1 1 0 0 forward_v I I I I #
coedge $-1 $526 $525 $518 $672 forward $350 $-1 #
coedge $-1 $518 $352 $354 $522 reversed $213 $-1 #
coedge $-1 $352 $517 $516 $672 reversed $213 $-1 #
coedge $-1 $360 $355 $352 $520 forward $361 $-1 #
edge $-1 $523 -32.897563818033575 $673 -5.4771753482549315 $519 $674 forward 7 unknown #
coedge $-1 $354 $353 $526 $675 reversed $133 $-1 #
edge $-1 $676 0 $523 33.474113669390221 $517 $677 forward 7 unknown #
vertex $-1 $356 $678 #
straight-curve $-1 -47.021580584452742 -7.9622534515451697 21.763005553339251 0 1 0 I I #
coedge $-1 $516 $357 $360 $530 reversed $350 $-1 #
coedge $-1 $357 $516 $521 $675 forward $350 $-1 #
vertex $-1 $358 $679 #
straight-curve $-1 -74.441969054231393 -21.573329767092147 62.260811985051141 0 0 1 I I #
straight-curve $-1 -74.441969054231393 -21.573329767092147 2.56304247739331 -0.81915203911291934 0 -0.57357644374324357 I I #
edge $-1 $673 10.275684039088533 $362 21.573329767092147 $525 $680 forward 7 unknown #
point $-1 -74.441969054231393 -21.573329767092147 21.763005553339251 #
point $-1 -47.021580584452749 -21.573329767092147 21.763005553339251 #
edge $-1 $681 1 $681 0 $365 $-1 forward 7 unknown #
vertex $-1 $366 $682 #
ellipse-curve $-1 -59.519994586346378 -18.345430987662542 10.432422524243171 -0.57357644374324357 0 0.81915203911291934 0.81915203911291934 0 0.57357644374324357 1 I I #
point $-1 -59.91262278022915 -18.345430987662542 12.736600459109527 #
edge $-1 $683 1 $683 0 $369 $-1 forward 7 unknown #
vertex $-1 $370 $684 #
ellipse-curve $-1 -59.519994586346378 -13.50358281851814 10.432422524243171 -0.57357644374324357 0 0.81915203911291934 0.81915203911291934 0 0.57357644374324357 1 I I #
point $-1 -59.91262278022915 -13.50358281851814 12.736600459109527 #
loop $-1 $-1 $381 $373 #
plane-surface $-1 -74.441969054231393 0 0 1 0 0 0 0 -1 forward_v I I I I #
coedge $-1 $544 $376 $378 $548 reversed $235 $-1 #
coedge $-1 $376 $543 $685 $686 reversed $235 $-1 #
coedge $-1 $384 $379 $376 $546 forward $374 $-1 #
edge $-1 $549 -32.897563818033575 $687 -5.4771753482549315 $545 $688 forward 7 unknown #
coedge $-1 $378 $377 $552 $689 reversed $147 $-1 #
edge $-1 $690 0 $549 33.474113669390221 $543 $691 forward 7 unknown #
vertex $-1 $380 $692 #
straight-curve $-1 -47.021580584452742 4.9428723517681767 21.763005553339251 0 1 0 I I #
coedge $-1 $685 $381 $384 $556 reversed $541 $-1 #
coedge $-1 $381 $685 $547 $689 forward $541 $-1 #
vertex $-1 $382 $693 #
straight-curve $-1 -74.441969054231393 4.2369218395345474 62.260811985051141 0 0 1 I I #
straight-curve $-1 -74.441969054231393 4.2369218395345474 2.56304247739331 -0.81915203911291934 0 -0.57357644374324357 I I #
edge $-1 $687 -15.53456756753816 $385 -4.2369218395345474 $551 $694 forward 7 unknown #
point $-1 -74.441969054231393 4.2369218395345474 21.763005553339251 #
point $-1 -47.021580584452749 4.2369218395345474 21.763005553339251 #
edge $-1 $695 1 $695 0 $388 $-1 forward 7 unknown #
vertex $-1 $389 $696 #
ellipse-curve $-1 -59.519994586346378 7.4648206189641542 10.432422524243171 -0.57357644374324357 0 0.81915203911291934 0.81915203911291934 0 0.57357644374324357 1 I I #
point $-1 -59.91262278022915 7.4648206189641542 12.736600459109527 #
edge $-1 $697 1 $697 0 $392 $-1 forward 7 unknown #
vertex $-1 $393 $698 #
ellipse-curve $-1 -59.519994586346378 12.306668788108553 10.432422524243171 -0.57357644374324357 0 0.81915203911291934 0.81915203911291934 0 0.57357644374324357 1 I I #
point $-1 -59.91262278022915 12.306668788108553 12.736600459109527 #
loop $-1 $-1 $404 $396 #
plane-surface $-1 74.441969054231393 0 0 -1 0 0 0 0 1 forward_v I I I I #
coedge $-1 $570 $399 $401 $574 reversed $257 $-1 #
coedge $-1 $399 $569 $699 $700 reversed $257 $-1 #
coedge $-1 $407 $402 $399 $572 forward $397 $-1 #
edge $-1 $575 28.081726928320904 $701 55.502115398099548 $571 $702 forward 7 unknown #
coedge $-1 $401 $400 $578 $703 reversed $161 $-1 #
edge $-1 $704 -148.88393810846279 $575 -115.40982443907255 $569 $705 forward 7 unknown #
vertex $-1 $403 $706 #
straight-curve $-1 47.021580584452728 -7.9622534515451697 21.763005553339262 0 -1 0 I I #
coedge $-1 $699 $404 $407 $582 reversed $567 $-1 #
coedge $-1 $404 $699 $573 $703 forward $567 $-1 #
vertex $-1 $405 $707 #
straight-curve $-1 74.441969054231393 -10.275684039088533 104.95897186042177 0 0 1 I I #
straight-curve $-1 -47.516612438477566 -10.275684039088533 87.959362228134566 0.81915203911291934 0 -0.57357644374324357 I I #
edge $-1 $701 -21.573329767092147 $408 -10.275684039088533 $577 $708 forward 7 unknown #
point $-1 74.441969054231393 -10.275684039088533 21.763005553339251 #
point $-1 47.021580584452749 -10.275684039088533 21.763005553339255 #
edge $-1 $709 1 $709 0 $411 $-1 forward 7 unknown #
vertex $-1 $412 $710 #
ellipse-curve $-1 59.51999458634635 -18.345430987662542 10.432422524243146 0.57357644374324357 0 0.81915203911291934 0.81915203911291934 0 -0.57357644374324357 1 I I #
point $-1 61.550926858454957 -18.345430987662542 11.589447571623015 #
edge $-1 $711 1 $711 0 $415 $-1 forward 7 unknown #
vertex $-1 $416 $712 #
ellipse-curve $-1 59.51999458634635 -13.50358281851814 10.432422524243146 0.57357644374324357 0 0.81915203911291934 0.81915203911291934 0 -0.57357644374324357 1 I I #
point $-1 61.550926858454957 -13.50358281851814 11.589447571623015 #
plane-surface $-1 0 0 21.763005553339251 0 0 1 1 0 0 forward_v I I I I #
coedge $-1 $604 $603 $596 $713 forward $420 $-1 #
coedge $-1 $596 $422 $424 $600 reversed $279 $-1 #
coedge $-1 $422 $595 $594 $713 reversed $279 $-1 #
coedge $-1 $430 $425 $422 $598 forward $431 $-1 #
edge $-1 $601 28.081726928320904 $714 55.502115398099548 $597 $715 forward 7 unknown #
coedge $-1 $424 $423 $604 $716 reversed $175 $-1 #
edge $-1 $717 -148.88393810846279 $601 -115.40982443907255 $595 $718 forward 7 unknown #
vertex $-1 $426 $719 #
straight-curve $-1 47.021580584452728 4.9428723517681767 21.763005553339262 0 -1 0 I I #
coedge $-1 $594 $427 $430 $608 reversed $420 $-1 #
coedge $-1 $427 $594 $599 $716 forward $420 $-1 #
vertex $-1 $428 $720 #
straight-curve $-1 74.441969054231393 15.53456756753816 104.95897186042177 0 0 1 I I #
straight-curve $-1 -47.516612438477566 15.53456756753816 87.959362228134566 0.81915203911291934 0 -0.57357644374324357 I I #
edge $-1 $714 4.2369218395345474 $432 15.53456756753816 $603 $721 forward 7 unknown #
point $-1 74.441969054231393 15.53456756753816 21.763005553339251 #
point $-1 47.021580584452749 15.53456756753816 21.763005553339255 #
edge $-1 $722 1 $722 0 $435 $-1 forward 7 unknown #
vertex $-1 $436 $723 #
ellipse-curve $-1 59.51999458634635 7.4648206189641542 10.432422524243146 0.57357644374324357 0 0.81915203911291934 0.81915203911291934 0 -0.57357644374324357 1 I I #
point $-1 61.550926858454957 7.4648206189641542 11.589447571623015 #
edge $-1 $724 1 $724 0 $439 $-1 forward 7 unknown #
vertex $-1 $440 $725 #
ellipse-curve $-1 59.51999458634635 12.306668788108553 10.432422524243146 0.57357644374324357 0 0.81915203911291934 0.81915203911291934 0 -0.57357644374324357 1 I I #
point $-1 61.550926858454957 12.306668788108553 11.589447571623015 #
plane-surface $-1 74.441969054231393 0 0 -1 0 0 0 0 1 forward_v I I I I #
coedge $-1 $448 $446 $450 $624 reversed $301 $-1 #
edge $-1 $461 -21.763005553339251 $626 21.763005553339251 $460 $726 forward 7 unknown #
vertex $-1 $624 $727 #
straight-curve $-1 -74.441969054231393 -46.618752073419401 0 0 0 -1 I I #
edge $-1 $622 -46.618752073419401 $626 46.618752073419401 $620 $728 forward 7 unknown #
straight-curve $-1 0 -46.618752073419401 -21.763005553339251 -1 0 0 I I #
vertex $-1 $453 $729 #
straight-curve $-1 0 46.618752073419401 -21.763005553339251 1 0 0 I I #
point $-1 74.441969054231393 46.618752073419401 -21.763005553339251 #
point $-1 74.441969054231393 -46.618752073419401 -21.763005553339251 #
straight-curve $-1 -74.441969054231393 0 21.763005553339251 0 -1 0 I I #
point $-1 -74.441969054231393 46.618752073419401 21.763005553339251 #
point $-1 -74.441969054231393 -46.618752073419401 21.763005553339251 #
straight-curve $-1 74.441969054231393 -46.618752073419401 0 0 0 -1 I I #
straight-curve $-1 74.441969054231393 46.618752073419401 0 0 0 -1 I I #
loop $-1 $-1 $476 $470 #
plane-surface $-1 0 -46.618752073419401 0 0 1 0 0 0 1 forward_v I I I I #
coedge $-1 $487 $478 $474 $639 forward $471 $-1 #
edge $-1 $643 -29.570731613291514 $482 -4.5253093069642603 $473 $730 forward 7 unknown #
edge $-1 $483 4.5253093069642603 $642 29.570731613291514 $637 $731 forward 7 unknown #
coedge $-1 $485 $476 $490 $652 reversed $635 $-1 #
coedge $-1 $476 $485 $487 $650 reversed $635 $-1 #
vertex $-1 $650 $732 #
vertex $-1 $477 $733 #
straight-curve $-1 -30.915957947552894 -46.618752073419401 0 0 0 1 I I #
straight-curve $-1 -18.515140948072016 -21.573329767092147 -21.763005553339251 1 0 0 I I #
straight-curve $-1 -18.515140948072016 -21.573329767092147 21.763005553339251 -1 0 0 I I #
point $-1 -30.915957947552894 -21.573329767092147 21.763005553339251 #
point $-1 -30.915957947552894 -21.573329767092147 -21.763005553339251 #
straight-curve $-1 -43.144605844735167 -46.618752073419401 0 0 0 -1 I I #
edge $-1 $642 30.915957947552894 $488 43.144605844735167 $641 $734 forward 7 unknown #
point $-1 -43.144605844735167 -46.618752073419401 -21.763005553339251 #
edge $-1 $491 -43.144605844735167 $643 -30.915957947552894 $640 $735 forward 7 unknown #
point $-1 -43.144605844735167 -46.618752073419401 21.763005553339251 #
plane-surface $-1 -74.441969054231393 0 0 1 0 0 0 0 -1 forward_v I I I I #
coedge $-1 $736 $657 $501 $661 forward $496 $-1 #
coedge $-1 $498 $665 $736 $737 forward $336 $-1 #
coedge $-1 $655 $738 $499 $658 reversed $496 $-1 #
edge $-1 $659 -74.441969054231393 $670 74.441969054231393 $657 $739 forward 7 unknown #
vertex $-1 $500 $740 #
straight-curve $-1 74.441969054231393 54.904541387048482 -5.3256693804757598 0 1 0 I I #
edge $-1 $659 -3.4948197552756062 $662 3.4948197552756071 $501 $741 forward 7 unknown #
vertex $-1 $502 $742 #
straight-curve $-1 74.441969054231393 54.904541387048482 -12.315308891026973 0 -1 0 I I #
point $-1 74.441969054231393 46.618752073419401 -12.315308891026973 #
coedge $-1 $656 $505 $508 $668 forward $336 $-1 #
straight-curve $-1 0 46.618752073419401 -12.315308891026973 1 0 0 I I #
coedge $-1 $508 $507 $738 $743 forward $509 $-1 #
edge $-1 $510 -8.2857893136290812 $744 8.2857893136290812 $508 $745 forward 7 unknown #
point $-1 -74.441969054231393 46.618752073419401 -12.315308891026973 #
vertex $-1 $658 $746 #
straight-curve $-1 -74.441969054231393 54.904541387048482 -5.3256693804757598 0 -1 0 I I #
edge $-1 $673 40.497806431711894 $676 59.697769507657831 $516 $747 forward 7 unknown #
vertex $-1 $530 $748 #
straight-curve $-1 -79.919144402486324 -10.275684039088533 21.763005553339255 -1 0 0 I I #
edge $-1 $676 2.3134305875433636 $527 13.611076315546978 $526 $749 forward 7 unknown #
vertex $-1 $675 $750 #
straight-curve $-1 -74.441969054231393 -10.275684039088533 2.56304247739331 0.81915203911291934 0 0.57357644374324357 I I #
point $-1 -47.021580584452749 -10.275684039088533 21.763005553339251 #
point $-1 -74.441969054231393 -21.573329767092147 2.56304247739331 #
straight-curve $-1 -74.441969054231393 0 21.763005553339251 0 -1 0 I I #
vertex $-1 $533 $751 #
point $-1 -58.700842547233457 -18.345430987662542 11.005998967986415 #
vertex $-1 $537 $752 #
point $-1 -58.700842547233457 -13.50358281851814 11.005998967986415 #
coedge $-1 $552 $551 $544 $686 forward $541 $-1 #
edge $-1 $687 40.497806431711894 $690 59.697769507657831 $685 $753 forward 7 unknown #
vertex $-1 $556 $754 #
straight-curve $-1 -79.919144402486324 15.53456756753816 21.763005553339255 -1 0 0 I I #
edge $-1 $690 -10.591695215769983 $553 0.70595051223362937 $552 $755 forward 7 unknown #
vertex $-1 $689 $756 #
straight-curve $-1 -74.441969054231393 15.53456756753816 2.56304247739331 0.81915203911291934 0 0.57357644374324357 I I #
point $-1 -47.021580584452749 15.53456756753816 21.763005553339251 #
point $-1 -74.441969054231393 4.2369218395345474 2.56304247739331 #
straight-curve $-1 -74.441969054231393 0 21.763005553339251 0 -1 0 I I #
vertex $-1 $559 $757 #
point $-1 -58.700842547233457 7.4648206189641542 11.005998967986415 #
vertex $-1 $563 $758 #
point $-1 -58.700842547233457 12.306668788108553 11.005998967986415 #
coedge $-1 $578 $577 $570 $700 forward $567 $-1 #
edge $-1 $701 83.195966307082514 $704 102.39592938302846 $699 $759 forward 7 unknown #
vertex $-1 $582 $760 #
straight-curve $-1 18.939853656131845 -21.573329767092147 21.763005553339255 1 0 0 I I #
edge $-1 $704 -13.611076315546978 $579 -2.3134305875433636 $578 $761 forward 7 unknown #
vertex $-1 $703 $762 #
straight-curve $-1 -47.516612438477566 -21.573329767092147 87.959362228134566 -0.81915203911291934 0 0.57357644374324357 I I #
point $-1 47.021580584452749 -21.573329767092147 21.763005553339255 #
point $-1 74.441969054231407 -10.275684039088533 2.56304247739331 #
straight-curve $-1 74.441969054231393 0 21.763005553339251 0 1 0 I I #
vertex $-1 $585 $763 #
point $-1 60.339146625459264 -18.345430987662542 9.8588460804999034 #
vertex $-1 $589 $764 #
point $-1 60.339146625459264 -13.50358281851814 9.8588460804999034 #
edge $-1 $714 83.195966307082514 $717 102.39592938302846 $594 $765 forward 7 unknown #
vertex $-1 $608 $766 #
straight-curve $-1 18.939853656131845 4.2369218395345474 21.763005553339255 1 0 0 I I #
edge $-1 $717 -0.70595051223362937 $605 10.591695215769983 $604 $767 forward 7 unknown #
vertex $-1 $716 $768 #
straight-curve $-1 -47.516612438477566 4.2369218395345474 87.959362228134566 -0.81915203911291934 0 0.57357644374324357 I I #
point $-1 47.021580584452749 4.2369218395345474 21.763005553339255 #
point $-1 74.441969054231407 15.53456756753816 2.56304247739331 #
straight-curve $-1 74.441969054231393 0 21.763005553339251 0 1 0 I I #
vertex $-1 $611 $769 #
point $-1 60.339146625459264 7.4648206189641542 9.8588460804999034 #
vertex $-1 $615 $770 #
point $-1 60.339146625459264 12.306668788108553 9.8588460804999034 #
straight-curve $-1 -74.441969054231393 46.618752073419401 0 0 0 -1 I I #
point $-1 -74.441969054231393 -46.618752073419401 -21.763005553339251 #
straight-curve $-1 -74.441969054231393 0 -21.763005553339251 0 1 0 I I #
point $-1 -74.441969054231393 46.618752073419401 -21.763005553339251 #
straight-curve $-1 -30.915957947552894 -17.048020460127887 21.763005553339251 0 1 0 I I #
straight-curve $-1 -30.915957947552894 -17.048020460127887 -21.763005553339251 0 -1 0 I I #
point $-1 -30.915957947552894 -46.618752073419401 -21.763005553339251 #
point $-1 -30.915957947552894 -46.618752073419401 21.763005553339251 #
straight-curve $-1 0 -46.618752073419401 -21.763005553339251 -1 0 0 I I #
straight-curve $-1 0 -46.618752073419401 21.763005553339251 1 0 0 I I #
coedge $-1 $738 $655 $656 $737 reversed $496 $-1 #
edge $-1 $744 -74.441969054231393 $662 74.441969054231393 $736 $771 forward 7 unknown #
coedge $-1 $657 $736 $667 $743 reversed $496 $-1 #
straight-curve $-1 0 63.190330700677563 -5.3256693804757598 -1 0 0 I I #
point $-1 74.441969054231393 63.190330700677563 -5.3256693804757598 #
straight-curve $-1 74.441969054231393 63.190330700677563 -8.820489135751366 0 0 -1 I I #
point $-1 74.441969054231393 63.190330700677563 -12.315308891026973 #
edge $-1 $670 -3.4948197552756062 $744 3.4948197552756071 $738 $772 forward 7 unknown #
vertex $-1 $737 $773 #
straight-curve $-1 -74.441969054231393 54.904541387048482 -12.315308891026973 0 1 0 I I #
point $-1 -74.441969054231393 63.190330700677563 -5.3256693804757598 #
straight-curve $-1 -74.441969054231393 -10.275684039088533 62.260811985051141 0 0 -1 I I #
point $-1 -74.441969054231393 -10.275684039088533 21.763005553339251 #
straight-curve $-1 -74.441969054231393 -7.9622534515451697 2.5630424773933131 0 -1 0 I I #
point $-1 -74.441969054231393 -10.275684039088533 2.56304247739331 #
point $-1 -58.946418142603129 -18.345430987662542 9.6132704851302524 #
point $-1 -58.946418142603129 -13.50358281851814 9.6132704851302524 #
straight-curve $-1 -74.441969054231393 15.53456756753816 62.260811985051141 0 0 -1 I I #
point $-1 -74.441969054231393 15.53456756753816 21.763005553339251 #
straight-curve $-1 -74.441969054231393 4.9428723517681767 2.5630424773933131 0 -1 0 I I #
point $-1 -74.441969054231393 15.53456756753816 2.56304247739331 #
point $-1 -58.946418142603129 7.4648206189641542 9.6132704851302524 #
point $-1 -58.946418142603129 12.306668788108553 9.6132704851302524 #
straight-curve $-1 74.441969054231393 -21.573329767092147 104.95897186042177 0 0 -1 I I #
point $-1 74.441969054231393 -21.573329767092147 21.763005553339251 #
straight-curve $-1 74.441969054231407 -7.9622534515451697 2.5630424773933029 0 1 0 I I #
point $-1 74.441969054231407 -21.573329767092147 2.56304247739331 #
point $-1 58.9464181426031 -18.345430987662542 9.6132704851302275 #
point $-1 58.9464181426031 -13.50358281851814 9.6132704851302275 #
straight-curve $-1 74.441969054231393 4.2369218395345474 104.95897186042177 0 0 -1 I I #
point $-1 74.441969054231393 4.2369218395345474 21.763005553339251 #
straight-curve $-1 74.441969054231407 4.9428723517681767 2.5630424773933029 0 1 0 I I #
point $-1 74.441969054231407 4.2369218395345474 2.56304247739331 #
point $-1 58.9464181426031 7.4648206189641542 9.6132704851302275 #
point $-1 58.9464181426031 12.306668788108553 9.6132704851302275 #
straight-curve $-1 0 63.190330700677563 -12.315308891026973 1 0 0 I I #
straight-curve $-1 -74.441969054231393 63.190330700677563 -8.820489135751366 0 0 -1 I I #
point $-1 -74.441969054231393 63.190330700677563 -12.315308891026973 #
End-of-ACIS-data 