500 0 11 0           
7 Unknown 11 ACIS 5.0 NT 24 Fri Mar 26 01:23:38 1999 
-1 9.9999999999999995e-007 1e-010 
body $-1 $11 $-1 $12 #
body $-1 $13 $-1 $14 #
body $-1 $15 $-1 $16 #
body $-1 $17 $-1 $18 #
body $-1 $19 $-1 $20 #
body $-1 $21 $-1 $22 #
body $-1 $23 $-1 $24 #
body $-1 $25 $-1 $26 #
body $-1 $27 $-1 $28 #
body $-1 $29 $-1 $30 #
body $-1 $31 $-1 $32 #
lump $-1 $-1 $33 $0 #
transform $-1 1 0 0 0 1 0 0 0 1 70.234076967680892 33.636564929301514 12.767358897525002 1 rotate no_reflect no_shear #
lump $-1 $-1 $34 $1 #
transform $-1 1 0 0 0 1 0 0 0 1 70.234076967680892 33.636564929301514 12.767358897525002 1 rotate no_reflect no_shear #
lump $-1 $-1 $35 $2 #
transform $-1 1 0 0 0 1 0 0 0 1 70.234076967680892 33.636564929301514 12.767358897525002 1 rotate no_reflect no_shear #
lump $-1 $-1 $36 $3 #
transform $-1 1 0 0 0 1 0 0 0 1 70.234076967680892 33.636564929301514 12.767358897525002 1 rotate no_reflect no_shear #
lump $-1 $-1 $37 $4 #
transform $-1 1 0 0 0 1 0 0 0 1 70.234076967680892 33.636564929301514 12.767358897525002 1 rotate no_reflect no_shear #
lump $-1 $-1 $38 $5 #
transform $-1 1 0 0 0 1 0 0 0 1 70.234076967680892 33.636564929301514 12.767358897525002 1 rotate no_reflect no_shear #
lump $-1 $-1 $39 $6 #
transform $-1 1 0 0 0 1 0 0 0 1 70.234076967680892 33.636564929301514 12.767358897525002 1 rotate no_reflect no_shear #
lump $-1 $-1 $40 $7 #
transform $-1 1 0 0 0 1 0 0 0 1 70.234076967680892 33.636564929301514 12.767358897525002 1 rotate no_reflect no_shear #
lump $-1 $-1 $41 $8 #
transform $-1 1 0 0 0 1 0 0 0 1 70.234076967680892 33.636564929301514 12.767358897525002 1 rotate no_reflect no_shear #
lump $-1 $-1 $42 $9 #
transform $-1 1 0 0 0 1 0 0 0 1 70.234076967680892 33.636564929301514 12.767358897525002 1 rotate no_reflect no_shear #
lump $-1 $-1 $43 $10 #
transform $-1 1 0 0 0 1 0 0 0 1 70.234076967680892 33.636564929301514 12.767358897525002 1 rotate no_reflect no_shear #
shell $-1 $-1 $-1 $44 $-1 $11 #
shell $-1 $-1 $-1 $45 $-1 $13 #
shell $-1 $-1 $-1 $46 $-1 $15 #
shell $-1 $-1 $-1 $47 $-1 $17 #
shell $-1 $-1 $-1 $48 $-1 $19 #
shell $-1 $-1 $-1 $49 $-1 $21 #
shell $-1 $-1 $-1 $50 $-1 $23 #
shell $-1 $-1 $-1 $51 $-1 $25 #
shell $-1 $-1 $-1 $52 $-1 $27 #
shell $-1 $-1 $-1 $53 $-1 $29 #
shell $-1 $-1 $-1 $54 $-1 $31 #
face $-1 $55 $56 $33 $-1 $57 forward single #
face $-1 $58 $59 $34 $-1 $60 forward single #
face $-1 $61 $62 $35 $-1 $63 reversed single #
face $-1 $64 $65 $36 $-1 $66 forward single #
face $-1 $67 $68 $37 $-1 $69 forward single #
face $-1 $70 $71 $38 $-1 $72 reversed single #
face $-1 $73 $74 $39 $-1 $75 forward single #
face $-1 $76 $77 $40 $-1 $78 forward single #
face $-1 $79 $80 $41 $-1 $81 reversed single #
face $-1 $82 $83 $42 $-1 $84 forward single #
face $-1 $85 $86 $43 $-1 $87 forward single #
face $-1 $88 $89 $33 $-1 $90 reversed single #
loop $-1 $-1 $91 $44 #
plane-surface $-1 0 0 12.767358897525002 0 0 1 1 0 0 forward_v I I I I #
face $-1 $92 $93 $34 $-1 $94 reversed single #
loop $-1 $-1 $95 $45 #
plane-surface $-1 -70.234076967680892 0 0 1 0 0 0 0 -1 forward_v I I I I #
face $-1 $96 $97 $35 $-1 $98 reversed single #
loop $-1 $-1 $99 $46 #
plane-surface $-1 55.059000930559975 -116.20167528407769 121.01426122525719 -1 0 0 0 -0.5877852598018023 0.80901698891910034 forward_v I I I I #
face $-1 $100 $101 $36 $-1 $102 forward single #
loop $-1 $103 $104 $47 #
cone-surface $-1 36.947376693991487 -28.356877802851386 7.9128617263704122 0 0.5877852598018023 -0.80901698891910034 2 0 0 1 I I 0 1 2 forward I I I I #
face $-1 $105 $106 $37 $-1 $107 forward single #
loop $-1 $108 $109 $48 #
cone-surface $-1 47.814351235932577 -28.356877802851386 7.9128617263704122 0 0.5877852598018023 -0.80901698891910034 2 0 0 1 I I 0 1 2 forward I I I I #
face $-1 $110 $111 $38 $-1 $112 reversed single #
loop $-1 $-1 $113 $49 #
plane-surface $-1 -21.702143334073796 72.393548090833548 151.93638614453749 1 0 0 0 -0.64278761758704617 -0.76604443648966558 forward_v I I I I #
face $-1 $114 $115 $39 $-1 $116 forward single #
loop $-1 $117 $118 $50 #
cone-surface $-1 -15.556870559038728 24.785962550818059 4.673649471639342 0 -0.64278761758704617 -0.76604443648966558 1.5 0 0 1 I I 0 1 1.5 forward I I I I #
face $-1 $119 $120 $40 $-1 $121 forward single #
loop $-1 $122 $123 $51 #
cone-surface $-1 -6.3389613964861269 24.785962550818059 4.673649471639342 0 -0.64278761758704617 -0.76604443648966558 1.5 0 0 1 I I 0 1 1.5 forward I I I I #
face $-1 $124 $125 $41 $-1 $126 reversed single #
loop $-1 $-1 $127 $52 #
plane-surface $-1 11.001731146913237 72.393548090833548 151.93638614453749 1 0 0 0 -0.64278761758704617 -0.76604443648966558 forward_v I I I I #
face $-1 $128 $129 $42 $-1 $130 forward single #
loop $-1 $131 $132 $53 #
cone-surface $-1 17.147003921948311 24.785962550818059 4.673649471639342 0 -0.64278761758704617 -0.76604443648966558 1.5 0 0 1 I I 0 1 1.5 forward I I I I #
face $-1 $133 $134 $43 $-1 $135 forward single #
loop $-1 $136 $137 $54 #
cone-surface $-1 26.364913084500913 24.785962550818059 4.673649471639342 0 -0.64278761758704617 -0.76604443648966558 1.5 0 0 1 I I 0 1 1.5 forward I I I I #
face $-1 $138 $139 $33 $-1 $140 reversed single #
loop $-1 $-1 $141 $55 #
plane-surface $-1 0 0 -12.767358897525002 0 0 1 1 0 0 forward_v I I I I #
coedge $-1 $142 $143 $144 $145 forward $56 $-1 #
face $-1 $146 $147 $34 $-1 $148 reversed single #
loop $-1 $-1 $149 $58 #
plane-surface $-1 0 0 -12.767358897525002 0 0 1 1 0 0 forward_v I I I I #
coedge $-1 $150 $151 $152 $153 forward $59 $-1 #
face $-1 $154 $155 $35 $-1 $156 reversed single #
loop $-1 $-1 $157 $61 #
plane-surface $-1 42.380863964962032 -33.636564929301514 7.3731382894461177 0 -0.5877852598018023 0.80901698891910034 1 0 0 forward_v I I I I #
coedge $-1 $158 $159 $160 $161 reversed $62 $-1 #
face $-1 $-1 $162 $36 $-1 $163 forward single #
loop $-1 $164 $165 $64 #
cone-surface $-1 36.947376693991487 -26.201659204134771 4.9464578703361628 0 0.5877852598018023 -0.80901698891910034 1 0 0 1 I I -0.70710678118654746 0.70710678118654746 1 forward I I I I #
loop $-1 $-1 $166 $47 #
coedge $-1 $104 $104 $167 $168 reversed $65 $-1 #
face $-1 $-1 $169 $37 $-1 $170 forward single #
loop $-1 $171 $172 $67 #
cone-surface $-1 47.814351235932577 -26.201659204134771 4.9464578703361628 0 0.5877852598018023 -0.80901698891910034 1 0 0 1 I I -0.70710678118654746 0.70710678118654746 1 forward I I I I #
loop $-1 $-1 $173 $48 #
coedge $-1 $109 $109 $174 $175 reversed $68 $-1 #
face $-1 $176 $177 $38 $-1 $178 reversed single #
loop $-1 $-1 $179 $70 #
plane-surface $-1 -10.947915977762428 -17.897641924128123 44.331538318379671 0 0.64278761758704617 0.76604443648966558 1 0 0 forward_v I I I I #
coedge $-1 $180 $181 $182 $183 reversed $71 $-1 #
face $-1 $-1 $184 $39 $-1 $185 forward single #
loop $-1 $186 $187 $73 #
cone-surface $-1 -15.556870559038728 22.412011168753629 1.8444844426768139 0 -0.64278761758704617 -0.76604443648966558 0.75 0 0 1 I I -0.70710678118654757 0.70710678118654757 0.75 forward I I I I #
loop $-1 $-1 $188 $50 #
coedge $-1 $118 $118 $189 $190 reversed $74 $-1 #
face $-1 $-1 $191 $40 $-1 $192 forward single #
loop $-1 $193 $194 $76 #
cone-surface $-1 -6.3389613964861269 22.412011168753629 1.8444844426768139 0 -0.64278761758704617 -0.76604443648966558 0.75 0 0 1 I I -0.70710678118654757 0.70710678118654757 0.75 forward I I I I #
loop $-1 $-1 $195 $51 #
coedge $-1 $123 $123 $196 $197 reversed $77 $-1 #
face $-1 $198 $199 $41 $-1 $200 reversed single #
loop $-1 $-1 $201 $79 #
plane-surface $-1 21.755958503224605 -17.897641924128123 44.331538318379671 0 0.64278761758704617 0.76604443648966558 1 0 0 forward_v I I I I #
coedge $-1 $202 $203 $204 $205 reversed $80 $-1 #
face $-1 $-1 $206 $42 $-1 $207 forward single #
loop $-1 $208 $209 $82 #
cone-surface $-1 17.147003921948311 22.412011168753629 1.8444844426768139 0 -0.64278761758704617 -0.76604443648966558 0.75 0 0 1 I I -0.70710678118654757 0.70710678118654757 0.75 forward I I I I #
loop $-1 $-1 $210 $53 #
coedge $-1 $132 $132 $211 $212 reversed $83 $-1 #
face $-1 $-1 $213 $43 $-1 $214 forward single #
loop $-1 $215 $216 $85 #
cone-surface $-1 26.364913084500913 22.412011168753629 1.8444844426768139 0 -0.64278761758704617 -0.76604443648966558 0.75 0 0 1 I I -0.70710678118654757 0.70710678118654757 0.75 forward I I I I #
loop $-1 $-1 $217 $54 #
coedge $-1 $137 $137 $218 $219 reversed $86 $-1 #
face $-1 $220 $221 $33 $-1 $222 reversed single #
loop $-1 $-1 $223 $88 #
plane-surface $-1 0 -33.636564929301514 0 0 1 0 0 0 1 forward_v I I I I #
coedge $-1 $224 $225 $226 $227 forward $89 $-1 #
coedge $-1 $228 $91 $229 $230 forward $56 $-1 #
coedge $-1 $91 $228 $231 $232 forward $56 $-1 #
coedge $-1 $233 $234 $91 $145 reversed $235 $-1 #
edge $-1 $236 -33.636564929301514 $237 33.636564929301514 $144 $238 forward 7 unknown #
face $-1 $239 $240 $34 $-1 $241 reversed single #
loop $-1 $-1 $242 $92 #
plane-surface $-1 -75.638098230411984 -13.632330203183372 0 0 1 0 0 0 1 forward_v I I I I #
coedge $-1 $243 $244 $151 $245 forward $93 $-1 #
coedge $-1 $246 $95 $247 $248 reversed $59 $-1 #
coedge $-1 $95 $246 $149 $245 reversed $59 $-1 #
coedge $-1 $249 $250 $95 $153 reversed $251 $-1 #
edge $-1 $252 -12.767358897525002 $253 12.767358897525002 $152 $254 forward 7 unknown #
face $-1 $255 $256 $35 $-1 $257 forward single #
loop $-1 $-1 $258 $96 #
plane-surface $-1 29.702726999364089 -116.20167528407769 121.01426122525719 1 0 0 0 0.5877852598018023 -0.80901698891910034 forward_v I I I I #
coedge $-1 $259 $260 $261 $262 reversed $97 $-1 #
coedge $-1 $159 $99 $263 $264 reversed $62 $-1 #
coedge $-1 $99 $158 $259 $265 reversed $62 $-1 #
coedge $-1 $261 $266 $99 $161 forward $256 $-1 #
edge $-1 $267 24.464272712737333 $268 31.888780287807961 $160 $269 forward 7 unknown #
loop $-1 $-1 $167 $100 #
plane-surface $-1 42.380863964962032 -33.636564929301514 7.3731382894461177 0 -0.5877852598018023 0.80901698891910034 1 0 0 forward_v I I I I #
loop $-1 $-1 $270 $64 #
coedge $-1 $165 $165 $166 $271 reversed $101 $-1 #
coedge $-1 $166 $166 $165 $271 forward $103 $-1 #
coedge $-1 $167 $167 $104 $168 forward $162 $-1 #
edge $-1 $272 0 $272 6.2831853071796004 $167 $273 forward 7 unknown #
loop $-1 $-1 $174 $105 #
plane-surface $-1 42.380863964962032 -33.636564929301514 7.3731382894461177 0 -0.5877852598018023 0.80901698891910034 1 0 0 forward_v I I I I #
loop $-1 $-1 $274 $67 #
coedge $-1 $172 $172 $173 $275 reversed $106 $-1 #
coedge $-1 $173 $173 $172 $275 forward $108 $-1 #
coedge $-1 $174 $174 $109 $175 forward $169 $-1 #
edge $-1 $276 0 $276 6.2831853071796004 $174 $277 forward 7 unknown #
face $-1 $278 $279 $38 $-1 $280 reversed single #
loop $-1 $-1 $281 $110 #
plane-surface $-1 -0.19368862145105936 72.393548090833548 151.93638614453749 -1 0 0 0 0.64278761758704617 0.76604443648966558 forward_v I I I I #
coedge $-1 $282 $283 $284 $285 reversed $111 $-1 #
coedge $-1 $181 $113 $286 $287 reversed $71 $-1 #
coedge $-1 $113 $180 $282 $288 reversed $71 $-1 #
coedge $-1 $284 $289 $113 $183 forward $290 $-1 #
edge $-1 $291 2.56020911611526 $292 16.477692535333865 $182 $293 forward 7 unknown #
loop $-1 $-1 $189 $114 #
plane-surface $-1 -10.947915977762428 -17.897641924128123 44.331538318379671 0 0.64278761758704617 0.76604443648966558 1 0 0 forward_v I I I I #
loop $-1 $-1 $294 $73 #
coedge $-1 $187 $187 $188 $295 reversed $115 $-1 #
coedge $-1 $188 $188 $187 $295 forward $117 $-1 #
coedge $-1 $189 $189 $118 $190 forward $184 $-1 #
edge $-1 $296 2.3723162974787502e-015 $296 6.2831853071796031 $189 $297 forward 7 unknown #
loop $-1 $-1 $196 $119 #
plane-surface $-1 -10.947915977762428 -17.897641924128123 44.331538318379671 0 0.64278761758704617 0.76604443648966558 1 0 0 forward_v I I I I #
loop $-1 $-1 $298 $76 #
coedge $-1 $194 $194 $195 $299 reversed $120 $-1 #
coedge $-1 $195 $195 $194 $299 forward $122 $-1 #
coedge $-1 $196 $196 $123 $197 forward $191 $-1 #
edge $-1 $300 2.3723162974787502e-015 $300 6.2831853071796031 $196 $301 forward 7 unknown #
face $-1 $302 $303 $41 $-1 $304 forward single #
loop $-1 $-1 $305 $124 #
plane-surface $-1 32.510185859535973 72.393548090833548 151.93638614453749 -1 0 0 0 0.64278761758704617 0.76604443648966558 forward_v I I I I #
coedge $-1 $306 $307 $308 $309 reversed $125 $-1 #
coedge $-1 $203 $127 $310 $311 reversed $80 $-1 #
coedge $-1 $127 $202 $306 $312 reversed $80 $-1 #
coedge $-1 $308 $313 $127 $205 forward $303 $-1 #
edge $-1 $314 2.56020911611526 $315 16.477692535333865 $204 $316 forward 7 unknown #
loop $-1 $-1 $211 $128 #
plane-surface $-1 21.755958503224605 -17.897641924128123 44.331538318379671 0 0.64278761758704617 0.76604443648966558 1 0 0 forward_v I I I I #
loop $-1 $-1 $317 $82 #
coedge $-1 $209 $209 $210 $318 reversed $129 $-1 #
coedge $-1 $210 $210 $209 $318 forward $131 $-1 #
coedge $-1 $211 $211 $132 $212 forward $206 $-1 #
edge $-1 $319 2.3723162974787502e-015 $319 6.2831853071796031 $211 $320 forward 7 unknown #
loop $-1 $-1 $218 $133 #
plane-surface $-1 21.755958503224605 -17.897641924128123 44.331538318379671 0 0.64278761758704617 0.76604443648966558 1 0 0 forward_v I I I I #
loop $-1 $-1 $321 $85 #
coedge $-1 $216 $216 $217 $322 reversed $134 $-1 #
coedge $-1 $217 $217 $216 $322 forward $136 $-1 #
coedge $-1 $218 $218 $137 $219 forward $213 $-1 #
edge $-1 $323 2.3723162974787502e-015 $323 6.2831853071796031 $218 $324 forward 7 unknown #
face $-1 $325 $326 $33 $-1 $327 reversed single #
loop $-1 $-1 $328 $138 #
plane-surface $-1 -70.234076967680892 0 0 1 0 0 0 0 -1 forward_v I I I I #
coedge $-1 $329 $231 $330 $331 forward $139 $-1 #
coedge $-1 $332 $141 $329 $333 forward $89 $-1 #
coedge $-1 $141 $332 $334 $335 forward $89 $-1 #
coedge $-1 $234 $233 $141 $227 reversed $235 $-1 #
edge $-1 $336 -33.636564929301514 $337 33.636564929301514 $226 $338 forward 7 unknown #
coedge $-1 $143 $142 $339 $340 forward $56 $-1 #
coedge $-1 $341 $342 $142 $230 reversed $326 $-1 #
edge $-1 $237 -70.234076967680892 $343 70.234076967680892 $229 $344 forward 7 unknown #
coedge $-1 $223 $345 $143 $232 reversed $139 $-1 #
edge $-1 $346 -70.234076967680892 $236 70.234076967680892 $231 $347 forward 7 unknown #
coedge $-1 $226 $144 $345 $348 forward $235 $-1 #
coedge $-1 $144 $226 $341 $349 reversed $235 $-1 #
loop $-1 $-1 $233 $325 #
vertex $-1 $145 $350 #
vertex $-1 $145 $351 #
straight-curve $-1 70.234076967680892 0 12.767358897525002 0 1 0 I I #
face $-1 $352 $251 $34 $-1 $353 reversed single #
loop $-1 $-1 $354 $146 #
plane-surface $-1 -81.042119493143076 -10.86708866871744 0 1 0 0 0 0 -1 forward_v I I I I #
coedge $-1 $355 $356 $357 $358 forward $147 $-1 #
coedge $-1 $359 $149 $355 $360 forward $93 $-1 #
coedge $-1 $149 $359 $249 $361 forward $93 $-1 #
edge $-1 $252 8.101847134251507 $362 13.632330203183372 $149 $363 forward 7 unknown #
coedge $-1 $151 $150 $364 $365 forward $59 $-1 #
coedge $-1 $366 $367 $150 $248 forward $368 $-1 #
edge $-1 $369 -13.632330203183372 $253 -8.101847134251507 $247 $370 forward 7 unknown #
coedge $-1 $371 $152 $244 $361 reversed $251 $-1 #
coedge $-1 $152 $371 $366 $372 reversed $251 $-1 #
loop $-1 $-1 $152 $239 #
vertex $-1 $245 $373 #
vertex $-1 $372 $374 #
straight-curve $-1 -70.234076967680892 -8.101847134251507 0 0 0 1 I I #
face $-1 $-1 $375 $35 $-1 $376 reversed single #
loop $-1 $-1 $160 $154 #
plane-surface $-1 0 0 12.767358897525002 0 0 1 1 0 0 forward_v I I I I #
coedge $-1 $377 $378 $379 $380 reversed $155 $-1 #
coedge $-1 $381 $157 $159 $265 forward $97 $-1 #
coedge $-1 $157 $381 $377 $382 forward $97 $-1 #
coedge $-1 $379 $160 $157 $262 forward $256 $-1 #
edge $-1 $268 -33.868568948078959 $383 -8.5122950168830727 $261 $384 forward 7 unknown #
coedge $-1 $385 $386 $158 $264 forward $375 $-1 #
edge $-1 $387 -53.133992323182476 $267 -47.739771715103593 $263 $388 forward 7 unknown #
edge $-1 $268 -9.1771961241385718 $387 0 $159 $389 forward 7 unknown #
coedge $-1 $160 $379 $385 $390 forward $256 $-1 #
vertex $-1 $161 $391 #
vertex $-1 $161 $392 #
straight-curve $-1 55.059000930559975 -58.100837642038847 12.767358897525 0 1 0 I I #
coedge $-1 $270 $270 $-1 $393 reversed $164 $-1 #
edge $-1 $394 0 $394 6.2831853071796004 $165 $395 forward 7 unknown #
vertex $-1 $168 $396 #
ellipse-curve $-1 36.947376693991487 -29.9243111417662 10.070248593485561 0 -0.5877852598018023 0.80901698891910034 2 0 0 1 I I #
coedge $-1 $274 $274 $-1 $397 reversed $171 $-1 #
edge $-1 $398 0 $398 6.2831853071796004 $172 $399 forward 7 unknown #
vertex $-1 $175 $400 #
ellipse-curve $-1 47.814351235932577 -29.9243111417662 10.070248593485561 0 -0.5877852598018023 0.80901698891910034 2 0 0 1 I I #
face $-1 $-1 $290 $38 $-1 $401 forward single #
loop $-1 $-1 $402 $176 #
plane-surface $-1 0 33.636564929301514 0 0 -1 0 0 0 -1 forward_v I I I I #
coedge $-1 $403 $404 $405 $406 reversed $177 $-1 #
coedge $-1 $407 $179 $181 $288 forward $111 $-1 #
coedge $-1 $179 $407 $403 $408 forward $111 $-1 #
coedge $-1 $405 $182 $179 $285 forward $290 $-1 #
edge $-1 $292 -16.228185345192582 $409 5.2802693674301544 $284 $410 forward 7 unknown #
coedge $-1 $411 $412 $180 $287 forward $279 $-1 #
edge $-1 $413 -74.878989623324486 $291 -63.200834174743747 $286 $414 forward 7 unknown #
edge $-1 $292 49.105145396769032 $413 67.273129858603014 $181 $415 forward 7 unknown #
coedge $-1 $182 $405 $411 $416 forward $290 $-1 #
loop $-1 $-1 $405 $278 #
vertex $-1 $287 $417 #
vertex $-1 $183 $418 #
straight-curve $-1 -21.702143334073796 36.196774045416774 12.767358897525 0 -1 0 I I #
coedge $-1 $294 $294 $-1 $419 reversed $186 $-1 #
edge $-1 $420 0 $420 6.2831853071796004 $187 $421 forward 7 unknown #
vertex $-1 $190 $422 #
ellipse-curve $-1 -15.556870559038728 26.677823219692211 6.9282811732346294 0 0.64278761758704617 0.76604443648966558 1.5 0 0 1 I I #
coedge $-1 $298 $298 $-1 $423 reversed $193 $-1 #
edge $-1 $424 0 $424 6.2831853071796004 $194 $425 forward 7 unknown #
vertex $-1 $197 $426 #
ellipse-curve $-1 -6.3389613964861269 26.677823219692211 6.9282811732346294 0 0.64278761758704617 0.76604443648966558 1.5 0 0 1 I I #
face $-1 $-1 $427 $41 $-1 $428 reversed single #
loop $-1 $-1 $204 $198 #
plane-surface $-1 0 0 12.767358897525002 0 0 1 1 0 0 forward_v I I I I #
coedge $-1 $429 $430 $431 $432 reversed $199 $-1 #
coedge $-1 $433 $201 $203 $312 forward $125 $-1 #
coedge $-1 $201 $433 $429 $434 forward $125 $-1 #
coedge $-1 $431 $204 $201 $309 forward $303 $-1 #
edge $-1 $315 0.12375189530093422 $435 21.632206607923671 $308 $436 forward 7 unknown #
coedge $-1 $437 $438 $202 $311 forward $427 $-1 #
edge $-1 $439 -74.878989623324486 $314 -63.200834174743747 $310 $440 forward 7 unknown #
edge $-1 $315 49.105145396769032 $439 67.273129858603014 $203 $441 forward 7 unknown #
coedge $-1 $204 $431 $437 $442 forward $303 $-1 #
vertex $-1 $205 $443 #
vertex $-1 $205 $444 #
straight-curve $-1 11.001731146913237 36.196774045416774 12.767358897525 0 -1 0 I I #
coedge $-1 $317 $317 $-1 $445 reversed $208 $-1 #
edge $-1 $446 0 $446 6.2831853071796004 $209 $447 forward 7 unknown #
vertex $-1 $212 $448 #
ellipse-curve $-1 17.147003921948311 26.677823219692211 6.9282811732346294 0 0.64278761758704617 0.76604443648966558 1.5 0 0 1 I I #
coedge $-1 $321 $321 $-1 $449 reversed $215 $-1 #
edge $-1 $450 0 $450 6.2831853071796004 $216 $451 forward 7 unknown #
vertex $-1 $219 $452 #
ellipse-curve $-1 26.364913084500913 26.677823219692211 6.9282811732346294 0 0.64278761758704617 0.76604443648966558 1.5 0 0 1 I I #
face $-1 $-1 $235 $33 $-1 $453 reversed single #
loop $-1 $-1 $341 $220 #
plane-surface $-1 0 33.636564929301514 0 0 -1 0 0 0 -1 forward_v I I I I #
coedge $-1 $454 $339 $342 $455 forward $221 $-1 #
coedge $-1 $345 $223 $224 $333 reversed $139 $-1 #
coedge $-1 $339 $454 $223 $331 reversed $221 $-1 #
edge $-1 $346 -12.767358897525002 $456 12.767358897525002 $330 $457 forward 7 unknown #
coedge $-1 $225 $224 $454 $458 forward $89 $-1 #
edge $-1 $337 -70.234076967680892 $456 70.234076967680892 $329 $459 forward 7 unknown #
coedge $-1 $342 $341 $225 $335 reversed $326 $-1 #
edge $-1 $460 -70.234076967680892 $336 70.234076967680892 $334 $461 forward 7 unknown #
vertex $-1 $227 $462 #
vertex $-1 $348 $463 #
straight-curve $-1 70.234076967680892 0 -12.767358897525002 0 -1 0 I I #
coedge $-1 $328 $330 $228 $340 reversed $221 $-1 #
edge $-1 $343 -33.636564929301514 $346 33.636564929301514 $339 $464 forward 7 unknown #
coedge $-1 $334 $229 $234 $349 forward $326 $-1 #
coedge $-1 $229 $334 $328 $455 reversed $326 $-1 #
vertex $-1 $230 $465 #
straight-curve $-1 0 33.636564929301514 12.767358897525002 -1 0 0 I I #
coedge $-1 $231 $329 $233 $348 reversed $139 $-1 #
vertex $-1 $340 $466 #
straight-curve $-1 0 -33.636564929301514 12.767358897525002 1 0 0 I I #
edge $-1 $236 -12.767358897525002 $337 12.767358897525002 $233 $467 forward 7 unknown #
edge $-1 $237 -12.767358897525002 $336 12.767358897525002 $234 $468 forward 7 unknown #
point $-1 70.234076967680892 -33.636564929301514 12.767358897525002 #
point $-1 70.234076967680892 33.636564929301514 12.767358897525002 #
face $-1 $-1 $368 $34 $-1 $469 forward single #
plane-surface $-1 -75.638098230411984 -8.101847134251507 0 0 -1 0 0 0 -1 forward_v I I I I #
coedge $-1 $470 $471 $371 $472 forward $240 $-1 #
coedge $-1 $364 $242 $243 $360 reversed $147 $-1 #
coedge $-1 $242 $364 $367 $473 reversed $147 $-1 #
coedge $-1 $471 $470 $242 $358 reversed $240 $-1 #
edge $-1 $474 -12.767358897525002 $475 12.767358897525002 $357 $476 forward 7 unknown #
coedge $-1 $244 $243 $470 $477 forward $93 $-1 #
edge $-1 $362 -5.4040212627310922 $475 5.4040212627310922 $355 $478 forward 7 unknown #
edge $-1 $479 -5.4040212627310922 $252 5.4040212627310922 $249 $480 forward 7 unknown #
vertex $-1 $360 $481 #
straight-curve $-1 -70.234076967680892 0 -12.767358897525002 0 -1 0 I I #
coedge $-1 $356 $355 $246 $365 reversed $147 $-1 #
edge $-1 $369 -12.767358897525002 $362 12.767358897525002 $364 $482 forward 7 unknown #
coedge $-1 $483 $247 $250 $372 forward $368 $-1 #
coedge $-1 $247 $483 $356 $473 forward $368 $-1 #
loop $-1 $-1 $247 $352 #
vertex $-1 $248 $484 #
straight-curve $-1 -70.234076967680892 0 12.767358897525002 0 1 0 I I #
coedge $-1 $250 $249 $354 $472 reversed $251 $-1 #
edge $-1 $253 -5.4040212627310922 $485 5.4040212627310922 $250 $486 forward 7 unknown #
point $-1 -70.234076967680892 -8.101847134251507 -12.767358897525002 #
point $-1 -70.234076967680892 -8.101847134251507 12.767358897525002 #
loop $-1 $-1 $263 $255 #
plane-surface $-1 0 -33.636564929301514 0 0 1 0 0 0 1 forward_v I I I I #
coedge $-1 $378 $258 $260 $382 reversed $155 $-1 #
coedge $-1 $258 $377 $487 $488 reversed $155 $-1 #
coedge $-1 $266 $261 $258 $380 forward $256 $-1 #
edge $-1 $383 -31.888780287807961 $489 -24.464272712737333 $379 $490 forward 7 unknown #
coedge $-1 $260 $259 $386 $491 reversed $97 $-1 #
edge $-1 $492 0 $383 9.1771961241385718 $377 $493 forward 7 unknown #
vertex $-1 $262 $494 #
straight-curve $-1 21.190431982481016 -26.212057354230883 12.767358897525002 -1 0 0 I I #
coedge $-1 $487 $263 $266 $390 reversed $375 $-1 #
coedge $-1 $263 $487 $381 $491 forward $375 $-1 #
vertex $-1 $264 $495 #
straight-curve $-1 55.059000930559975 -33.636564929301514 60.507130612628593 0 0 1 I I #
straight-curve $-1 55.059000930559975 -33.636564929301514 7.3731382894461177 0 -0.80901698891910034 -0.5877852598018023 I I #
edge $-1 $489 29.702726999364089 $267 55.059000930559975 $385 $496 forward 7 unknown #
point $-1 55.059000930559975 -33.636564929301514 12.767358897525002 #
point $-1 55.059000930559975 -26.212057354230886 12.767358897525 #
edge $-1 $497 1 $497 0 $270 $-1 forward 7 unknown #
vertex $-1 $271 $498 #
ellipse-curve $-1 36.947376693991487 -26.789444463936572 5.7554748592552629 0 -0.5877852598018023 0.80901698891910034 2 0 0 1 I I #
point $-1 38.947376693991487 -29.9243111417662 10.070248593485561 #
edge $-1 $499 1 $499 0 $274 $-1 forward 7 unknown #
vertex $-1 $275 $500 #
ellipse-curve $-1 47.814351235932577 -26.789444463936572 5.7554748592552629 0 -0.5877852598018023 0.80901698891910034 2 0 0 1 I I #
point $-1 49.814351235932577 -29.9243111417662 10.070248593485561 #
plane-surface $-1 0 0 12.767358897525002 0 0 1 1 0 0 forward_v I I I I #
coedge $-1 $412 $411 $404 $501 forward $279 $-1 #
coedge $-1 $404 $281 $283 $408 reversed $177 $-1 #
coedge $-1 $281 $403 $402 $501 reversed $177 $-1 #
coedge $-1 $289 $284 $281 $406 forward $290 $-1 #
edge $-1 $409 -16.477692535333865 $502 -2.56020911611526 $405 $503 forward 7 unknown #
coedge $-1 $283 $282 $412 $504 reversed $111 $-1 #
edge $-1 $505 -67.273129858603014 $409 -49.105145396769032 $403 $506 forward 7 unknown #
vertex $-1 $285 $507 #
straight-curve $-1 -5.4739579888812138 19.719081510082898 12.767358897525003 1 0 0 I I #
coedge $-1 $402 $286 $289 $416 reversed $279 $-1 #
coedge $-1 $286 $402 $407 $504 forward $279 $-1 #
vertex $-1 $287 $508 #
straight-curve $-1 -21.702143334073796 33.636564929301514 75.968193072268747 0 0 1 I I #
straight-curve $-1 -21.702143334073796 -17.897641924128123 44.331538318379671 0 0.76604443648966558 -0.64278761758704617 I I #
edge $-1 $502 0.19368862145105936 $291 21.702143334073796 $411 $509 forward 7 unknown #
point $-1 -21.702143334073796 33.636564929301514 12.767358897525002 #
point $-1 -21.702143334073796 19.719081510082908 12.767358897525 #
edge $-1 $510 1 $510 0 $294 $-1 forward 7 unknown #
vertex $-1 $295 $511 #
ellipse-curve $-1 -15.556870559038728 22.894101881943914 2.4190177700440629 0 0.64278761758704617 0.76604443648966558 1.5 0 0 1 I I #
point $-1 -14.056870559038728 26.677823219692208 6.9282811732346197 #
edge $-1 $512 1 $512 0 $298 $-1 forward 7 unknown #
vertex $-1 $299 $513 #
ellipse-curve $-1 -6.3389613964861269 22.894101881943914 2.4190177700440629 0 0.64278761758704617 0.76604443648966558 1.5 0 0 1 I I #
point $-1 -4.8389613964861269 26.677823219692208 6.9282811732346197 #
loop $-1 $-1 $310 $302 #
plane-surface $-1 0 33.636564929301514 0 0 -1 0 0 0 -1 forward_v I I I I #
coedge $-1 $430 $305 $307 $434 reversed $199 $-1 #
coedge $-1 $305 $429 $514 $515 reversed $199 $-1 #
coedge $-1 $313 $308 $305 $432 forward $303 $-1 #
edge $-1 $435 -16.477692535333865 $516 -2.56020911611526 $431 $517 forward 7 unknown #
coedge $-1 $307 $306 $438 $518 reversed $125 $-1 #
edge $-1 $519 -67.273129858603014 $435 -49.105145396769032 $429 $520 forward 7 unknown #
vertex $-1 $309 $521 #
straight-curve $-1 10.877979251612302 19.719081510082898 12.767358897525003 1 0 0 I I #
coedge $-1 $514 $310 $313 $442 reversed $427 $-1 #
coedge $-1 $310 $514 $433 $518 forward $427 $-1 #
vertex $-1 $311 $522 #
straight-curve $-1 11.001731146913237 33.636564929301514 75.968193072268747 0 0 1 I I #
straight-curve $-1 11.001731146913237 -17.897641924128123 44.331538318379671 0 0.76604443648966558 -0.64278761758704617 I I #
edge $-1 $516 -32.510185859535973 $314 -11.001731146913237 $437 $523 forward 7 unknown #
point $-1 11.001731146913237 33.636564929301514 12.767358897525002 #
point $-1 11.001731146913237 19.719081510082908 12.767358897525 #
edge $-1 $524 1 $524 0 $317 $-1 forward 7 unknown #
vertex $-1 $318 $525 #
ellipse-curve $-1 17.147003921948311 22.894101881943914 2.4190177700440629 0 0.64278761758704617 0.76604443648966558 1.5 0 0 1 I I #
point $-1 18.647003921948311 26.677823219692208 6.9282811732346197 #
edge $-1 $526 1 $526 0 $321 $-1 forward 7 unknown #
vertex $-1 $322 $527 #
ellipse-curve $-1 26.364913084500913 22.894101881943914 2.4190177700440629 0 0.64278761758704617 0.76604443648966558 1.5 0 0 1 I I #
point $-1 27.864913084500913 26.677823219692208 6.9282811732346197 #
plane-surface $-1 70.234076967680892 0 0 -1 0 0 0 0 1 forward_v I I I I #
coedge $-1 $330 $328 $332 $458 reversed $221 $-1 #
edge $-1 $343 -12.767358897525002 $460 12.767358897525002 $342 $528 forward 7 unknown #
vertex $-1 $458 $529 #
straight-curve $-1 -70.234076967680892 -33.636564929301514 0 0 0 -1 I I #
edge $-1 $456 -33.636564929301514 $460 33.636564929301514 $454 $530 forward 7 unknown #
straight-curve $-1 0 -33.636564929301514 -12.767358897525002 -1 0 0 I I #
vertex $-1 $335 $531 #
straight-curve $-1 0 33.636564929301514 -12.767358897525002 1 0 0 I I #
point $-1 70.234076967680892 33.636564929301514 -12.767358897525002 #
point $-1 70.234076967680892 -33.636564929301514 -12.767358897525002 #
straight-curve $-1 -70.234076967680892 0 12.767358897525002 0 -1 0 I I #
point $-1 -70.234076967680892 33.636564929301514 12.767358897525002 #
point $-1 -70.234076967680892 -33.636564929301514 12.767358897525002 #
straight-curve $-1 70.234076967680892 -33.636564929301514 0 0 0 -1 I I #
straight-curve $-1 70.234076967680892 33.636564929301514 0 0 0 -1 I I #
plane-surface $-1 0 0 12.767358897525002 0 0 1 1 0 0 forward_v I I I I #
coedge $-1 $357 $354 $359 $477 reversed $240 $-1 #
coedge $-1 $354 $357 $483 $532 reversed $240 $-1 #
edge $-1 $485 -12.767358897525002 $479 12.767358897525002 $371 $533 forward 7 unknown #
edge $-1 $474 -5.4040212627310922 $369 5.4040212627310922 $356 $534 forward 7 unknown #
vertex $-1 $532 $535 #
vertex $-1 $477 $536 #
straight-curve $-1 -81.042119493143076 -13.632330203183372 0 0 0 -1 I I #
edge $-1 $475 -2.7652415344659325 $479 2.7652415344659325 $470 $537 forward 7 unknown #
straight-curve $-1 -75.638098230411984 -13.632330203183372 -12.767358897525002 -1 0 0 I I #
vertex $-1 $361 $538 #
straight-curve $-1 -75.638098230411984 -8.101847134251507 -12.767358897525002 1 0 0 I I #
point $-1 -70.234076967680892 -13.632330203183372 -12.767358897525002 #
straight-curve $-1 -70.234076967680892 -13.632330203183372 0 0 0 -1 I I #
coedge $-1 $367 $366 $471 $532 forward $368 $-1 #
point $-1 -70.234076967680892 -13.632330203183372 12.767358897525002 #
vertex $-1 $372 $539 #
straight-curve $-1 -75.638098230411984 -8.101847134251507 12.767358897525002 -1 0 0 I I #
coedge $-1 $386 $385 $378 $488 forward $375 $-1 #
edge $-1 $489 47.739771715103593 $492 53.133992323182476 $487 $540 forward 7 unknown #
vertex $-1 $390 $541 #
straight-curve $-1 29.702726999364089 -58.100837642038847 12.767358897525 0 -1 0 I I #
edge $-1 $492 8.5122950168830727 $387 33.868568948078959 $386 $542 forward 7 unknown #
vertex $-1 $491 $543 #
straight-curve $-1 29.702726999364089 -33.636564929301514 7.3731382894461177 0 0.80901698891910034 0.5877852598018023 I I #
point $-1 29.702726999364089 -26.212057354230886 12.767358897525 #
point $-1 55.059000930559975 -33.636564929301514 7.3731382894461177 #
straight-curve $-1 0 -33.636564929301514 12.767358897525002 1 0 0 I I #
vertex $-1 $393 $544 #
point $-1 38.947376693991487 -26.789444463936572 5.7554748592552629 #
vertex $-1 $397 $545 #
point $-1 49.814351235932577 -26.789444463936572 5.7554748592552629 #
edge $-1 $502 63.200834174743747 $505 74.878989623324486 $402 $546 forward 7 unknown #
vertex $-1 $416 $547 #
straight-curve $-1 -0.19368862145105936 36.196774045416774 12.767358897525 0 1 0 I I #
edge $-1 $505 -5.2802693674301544 $413 16.228185345192582 $412 $548 forward 7 unknown #
vertex $-1 $504 $549 #
straight-curve $-1 -0.19368862145105936 -17.897641924128123 44.331538318379671 0 -0.76604443648966558 0.64278761758704617 I I #
point $-1 -0.19368862145105936 19.719081510082908 12.767358897525 #
point $-1 -21.702143334073796 33.636564929301521 1.0892034489442608 #
straight-curve $-1 0 33.636564929301514 12.767358897525002 -1 0 0 I I #
vertex $-1 $419 $550 #
point $-1 -14.056870559038728 22.894101881943914 2.4190177700440629 #
vertex $-1 $423 $551 #
point $-1 -4.8389613964861269 22.894101881943914 2.4190177700440629 #
coedge $-1 $438 $437 $430 $515 forward $427 $-1 #
edge $-1 $516 63.200834174743747 $519 74.878989623324486 $514 $552 forward 7 unknown #
vertex $-1 $442 $553 #
straight-curve $-1 32.510185859535973 36.196774045416774 12.767358897525 0 1 0 I I #
edge $-1 $519 -21.632206607923671 $439 -0.12375189530093422 $438 $554 forward 7 unknown #
vertex $-1 $518 $555 #
straight-curve $-1 32.510185859535973 -17.897641924128123 44.331538318379671 0 -0.76604443648966558 0.64278761758704617 I I #
point $-1 32.510185859535973 19.719081510082908 12.767358897525 #
point $-1 11.001731146913237 33.636564929301521 1.0892034489442608 #
straight-curve $-1 0 33.636564929301514 12.767358897525002 -1 0 0 I I #
vertex $-1 $445 $556 #
point $-1 18.647003921948311 22.894101881943914 2.4190177700440629 #
vertex $-1 $449 $557 #
point $-1 27.864913084500913 22.894101881943914 2.4190177700440629 #
straight-curve $-1 -70.234076967680892 33.636564929301514 0 0 0 -1 I I #
point $-1 -70.234076967680892 -33.636564929301514 -12.767358897525002 #
straight-curve $-1 -70.234076967680892 0 -12.767358897525002 0 1 0 I I #
point $-1 -70.234076967680892 33.636564929301514 -12.767358897525002 #
edge $-1 $485 -2.7652415344659325 $474 2.7652415344659325 $471 $558 forward 7 unknown #
straight-curve $-1 -81.042119493143076 -8.101847134251507 0 0 0 -1 I I #
straight-curve $-1 -75.638098230411984 -13.632330203183372 12.767358897525002 1 0 0 I I #
point $-1 -81.042119493143076 -13.632330203183372 12.767358897525002 #
point $-1 -81.042119493143076 -13.632330203183372 -12.767358897525002 #
straight-curve $-1 -81.042119493143076 -10.86708866871744 -12.767358897525002 0 1 0 I I #
point $-1 -81.042119493143076 -8.101847134251507 -12.767358897525002 #
point $-1 -81.042119493143076 -8.101847134251507 12.767358897525002 #
straight-curve $-1 29.702726999364089 -33.636564929301514 60.507130612628593 0 0 -1 I I #
point $-1 29.702726999364089 -33.636564929301514 12.767358897525002 #
straight-curve $-1 21.190431982481016 -33.636564929301514 7.3731382894461159 1 0 0 I I #
point $-1 29.702726999364089 -33.636564929301514 7.3731382894461177 #
point $-1 36.947376693991487 -25.613873944332969 4.1374408814170627 #
point $-1 47.814351235932577 -25.613873944332969 4.1374408814170627 #
straight-curve $-1 -0.19368862145105936 33.636564929301514 75.968193072268747 0 0 -1 I I #
point $-1 -0.19368862145105936 33.636564929301514 12.767358897525002 #
straight-curve $-1 -5.4739579888812138 33.636564929301514 1.0892034489442644 -1 0 0 I I #
point $-1 -0.19368862145105936 33.636564929301521 1.0892034489442608 #
point $-1 -15.556870559038728 21.929920455563344 1.2699511153095648 #
point $-1 -6.3389613964861269 21.929920455563344 1.2699511153095648 #
straight-curve $-1 32.510185859535973 33.636564929301514 75.968193072268747 0 0 -1 I I #
point $-1 32.510185859535973 33.636564929301514 12.767358897525002 #
straight-curve $-1 10.877979251612302 33.636564929301514 1.0892034489442644 -1 0 0 I I #
point $-1 32.510185859535973 33.636564929301521 1.0892034489442608 #
point $-1 17.147003921948311 21.929920455563344 1.2699511153095648 #
point $-1 26.364913084500913 21.929920455563344 1.2699511153095648 #
straight-curve $-1 -81.042119493143076 -10.86708866871744 12.767358897525002 0 -1 0 I I #
End-of-ACIS-data 