500 0 11 0           
7 Unknown 11 ACIS 5.0 NT 24 Fri Mar 26 18:16:21 1999 
-1 9.9999999999999995e-007 1e-010 
body $-1 $11 $-1 $12 #
body $-1 $13 $-1 $14 #
body $-1 $15 $-1 $16 #
body $-1 $17 $-1 $18 #
body $-1 $19 $-1 $20 #
body $-1 $21 $-1 $22 #
body $-1 $23 $-1 $24 #
body $-1 $25 $-1 $26 #
body $-1 $27 $-1 $28 #
body $-1 $29 $-1 $30 #
body $-1 $31 $-1 $32 #
lump $-1 $-1 $33 $0 #
transform $-1 1 0 0 0 1 0 0 0 1 77.092196417126985 42.24295688437244 18.37008470511454 1 rotate no_reflect no_shear #
lump $-1 $-1 $34 $1 #
transform $-1 1 0 0 0 1 0 0 0 1 77.092196417126985 42.24295688437244 18.37008470511454 1 rotate no_reflect no_shear #
lump $-1 $-1 $35 $2 #
transform $-1 1 0 0 0 1 0 0 0 1 77.092196417126985 42.24295688437244 18.37008470511454 1 rotate no_reflect no_shear #
lump $-1 $-1 $36 $3 #
transform $-1 1 0 0 0 1 0 0 0 1 77.092196417126985 42.24295688437244 18.37008470511454 1 rotate no_reflect no_shear #
lump $-1 $-1 $37 $4 #
transform $-1 1 0 0 0 1 0 0 0 1 77.092196417126985 42.24295688437244 18.37008470511454 1 rotate no_reflect no_shear #
lump $-1 $-1 $38 $5 #
transform $-1 1 0 0 0 1 0 0 0 1 77.092196417126985 42.24295688437244 18.37008470511454 1 rotate no_reflect no_shear #
lump $-1 $-1 $39 $6 #
transform $-1 1 0 0 0 1 0 0 0 1 77.092196417126985 42.24295688437244 18.37008470511454 1 rotate no_reflect no_shear #
lump $-1 $-1 $40 $7 #
transform $-1 1 0 0 0 1 0 0 0 1 77.092196417126985 42.24295688437244 18.37008470511454 1 rotate no_reflect no_shear #
lump $-1 $-1 $41 $8 #
transform $-1 1 0 0 0 1 0 0 0 1 77.092196417126985 42.24295688437244 18.37008470511454 1 rotate no_reflect no_shear #
lump $-1 $-1 $42 $9 #
transform $-1 1 0 0 0 1 0 0 0 1 77.092196417126985 42.24295688437244 18.37008470511454 1 rotate no_reflect no_shear #
lump $-1 $-1 $43 $10 #
transform $-1 1 0 0 0 1 0 0 0 1 77.092196417126985 42.24295688437244 18.37008470511454 1 rotate no_reflect no_shear #
shell $-1 $-1 $-1 $44 $-1 $11 #
shell $-1 $-1 $-1 $45 $-1 $13 #
shell $-1 $-1 $-1 $46 $-1 $15 #
shell $-1 $-1 $-1 $47 $-1 $17 #
shell $-1 $-1 $-1 $48 $-1 $19 #
shell $-1 $-1 $-1 $49 $-1 $21 #
shell $-1 $-1 $-1 $50 $-1 $23 #
shell $-1 $-1 $-1 $51 $-1 $25 #
shell $-1 $-1 $-1 $52 $-1 $27 #
shell $-1 $-1 $-1 $53 $-1 $29 #
shell $-1 $-1 $-1 $54 $-1 $31 #
face $-1 $55 $56 $33 $-1 $57 forward single #
face $-1 $58 $59 $34 $-1 $60 reversed single #
face $-1 $61 $62 $35 $-1 $63 reversed single #
face $-1 $64 $65 $36 $-1 $66 reversed single #
face $-1 $67 $68 $37 $-1 $69 forward single #
face $-1 $70 $71 $38 $-1 $72 forward single #
face $-1 $73 $74 $39 $-1 $75 forward single #
face $-1 $76 $77 $40 $-1 $78 reversed single #
face $-1 $79 $80 $41 $-1 $81 forward single #
face $-1 $82 $83 $42 $-1 $84 forward single #
face $-1 $85 $86 $43 $-1 $87 forward single #
face $-1 $88 $89 $33 $-1 $90 reversed single #
loop $-1 $-1 $91 $44 #
plane-surface $-1 0 0 18.37008470511454 0 0 1 1 0 0 forward_v I I I I #
face $-1 $92 $93 $34 $-1 $94 reversed single #
loop $-1 $-1 $95 $45 #
plane-surface $-1 0 -30.347184759067321 9.8479844944621711 0 0 1 1 0 0 forward_v I I I I #
face $-1 $96 $97 $35 $-1 $98 reversed single #
loop $-1 $-1 $99 $46 #
plane-surface $-1 0 30.347184759067325 9.8479844944621711 0 0 1 1 0 0 forward_v I I I I #
face $-1 $100 $101 $36 $-1 $102 reversed single #
loop $-1 $-1 $103 $47 #
plane-surface $-1 -207.847978439104 -9.0172024569258333 90.416884641867384 0 1 0 -0.84804810408105047 0 0.52991925155115449 forward_v I I I I #
face $-1 $104 $105 $37 $-1 $106 forward single #
loop $-1 $107 $108 $48 #
cone-surface $-1 -73.257717617341441 -7.2137619655406695 13.03043024505544 0.84804810408105047 0 -0.52991925155115449 0.26495962577557725 0 0.42402405204052523 1 I I 0 1 0.5 forward I I I I #
face $-1 $109 $110 $38 $-1 $111 forward single #
loop $-1 $112 $113 $49 #
cone-surface $-1 -73.257717617341441 -4.508601228462922 13.03043024505544 0.84804810408105047 0 -0.52991925155115449 0.26495962577557725 0 0.42402405204052523 1 I I 0 1 0.5 forward I I I I #
face $-1 $114 $115 $39 $-1 $116 forward single #
loop $-1 $117 $118 $50 #
cone-surface $-1 -73.257717617341441 -1.8034404913851745 13.03043024505544 0.84804810408105047 0 -0.52991925155115449 0.26495962577557725 0 0.42402405204052523 1 I I 0 1 0.5 forward I I I I #
face $-1 $119 $120 $40 $-1 $121 reversed single #
loop $-1 $-1 $122 $51 #
plane-surface $-1 -207.847978439104 9.4342101768363698 90.416884641867384 0 1 0 -0.84804810408105047 0 0.52991925155115449 forward_v I I I I #
face $-1 $123 $124 $41 $-1 $125 forward single #
loop $-1 $126 $127 $52 #
cone-surface $-1 -73.257717617341441 11.237650668221534 13.03043024505544 0.84804810408105047 0 -0.52991925155115449 0.26495962577557725 0 0.42402405204052523 1 I I 0 1 0.5 forward I I I I #
face $-1 $128 $129 $42 $-1 $130 forward single #
loop $-1 $131 $132 $53 #
cone-surface $-1 -73.257717617341441 13.942811405299281 13.03043024505544 0.84804810408105047 0 -0.52991925155115449 0.26495962577557725 0 0.42402405204052523 1 I I 0 1 0.5 forward I I I I #
face $-1 $133 $134 $43 $-1 $135 forward single #
loop $-1 $136 $137 $54 #
cone-surface $-1 -73.257717617341441 16.647972142377029 13.03043024505544 0.84804810408105047 0 -0.52991925155115449 0.26495962577557725 0 0.42402405204052523 1 I I 0 1 0.5 forward I I I I #
face $-1 $138 $139 $33 $-1 $140 reversed single #
loop $-1 $-1 $141 $55 #
plane-surface $-1 0 0 -18.37008470511454 0 0 1 1 0 0 forward_v I I I I #
coedge $-1 $142 $143 $144 $145 forward $56 $-1 #
face $-1 $146 $147 $34 $-1 $148 reversed single #
loop $-1 $-1 $149 $58 #
plane-surface $-1 0 -18.451412633762203 14.109034599788355 0 -1 0 0 0 -1 forward_v I I I I #
coedge $-1 $150 $151 $152 $153 reversed $59 $-1 #
face $-1 $154 $155 $35 $-1 $156 forward single #
loop $-1 $-1 $157 $61 #
plane-surface $-1 0 18.451412633762207 14.109034599788355 0 1 0 0 0 1 forward_v I I I I #
coedge $-1 $158 $159 $160 $161 reversed $62 $-1 #
face $-1 $162 $163 $36 $-1 $164 reversed single #
loop $-1 $-1 $165 $64 #
plane-surface $-1 -77.092196417127013 -4.5086012284629149 8.7116065902703355 -0.84804810408105047 0 0.52991925155115449 0.52991925155115449 0 0.84804810408105047 forward_v I I I I #
coedge $-1 $166 $167 $168 $169 reversed $65 $-1 #
face $-1 $-1 $170 $37 $-1 $171 forward single #
loop $-1 $172 $173 $67 #
cone-surface $-1 -72.228870171145331 -7.2137619655406695 12.387535029530671 0.84804810408105047 0 -0.52991925155115449 0.13247981288778862 0 0.21201202602026262 1 I I -0.70710678118654746 0.70710678118654746 0.25 forward I I I I #
loop $-1 $-1 $174 $48 #
coedge $-1 $108 $108 $175 $176 reversed $68 $-1 #
face $-1 $-1 $177 $38 $-1 $178 forward single #
loop $-1 $179 $180 $70 #
cone-surface $-1 -72.228870171145331 -4.508601228462922 12.387535029530671 0.84804810408105047 0 -0.52991925155115449 0.13247981288778862 0 0.21201202602026262 1 I I -0.70710678118654746 0.70710678118654746 0.25 forward I I I I #
loop $-1 $-1 $181 $49 #
coedge $-1 $113 $113 $182 $183 reversed $71 $-1 #
face $-1 $-1 $184 $39 $-1 $185 forward single #
loop $-1 $186 $187 $73 #
cone-surface $-1 -72.228870171145331 -1.8034404913851745 12.387535029530671 0.84804810408105047 0 -0.52991925155115449 0.13247981288778862 0 0.21201202602026262 1 I I -0.70710678118654746 0.70710678118654746 0.25 forward I I I I #
loop $-1 $-1 $188 $50 #
coedge $-1 $118 $118 $189 $190 reversed $74 $-1 #
face $-1 $191 $192 $40 $-1 $193 forward single #
loop $-1 $-1 $194 $76 #
plane-surface $-1 -77.092196417127013 13.942811405299288 8.7116065902703355 -0.84804810408105047 0 0.52991925155115449 0.52991925155115449 0 0.84804810408105047 forward_v I I I I #
coedge $-1 $195 $196 $197 $198 reversed $77 $-1 #
face $-1 $-1 $199 $41 $-1 $200 forward single #
loop $-1 $201 $202 $79 #
cone-surface $-1 -72.228870171145331 11.237650668221534 12.387535029530671 0.84804810408105047 0 -0.52991925155115449 0.13247981288778862 0 0.21201202602026262 1 I I -0.70710678118654746 0.70710678118654746 0.25 forward I I I I #
loop $-1 $-1 $203 $52 #
coedge $-1 $127 $127 $204 $205 reversed $80 $-1 #
face $-1 $-1 $206 $42 $-1 $207 forward single #
loop $-1 $208 $209 $82 #
cone-surface $-1 -72.228870171145331 13.942811405299281 12.387535029530671 0.84804810408105047 0 -0.52991925155115449 0.13247981288778862 0 0.21201202602026262 1 I I -0.70710678118654746 0.70710678118654746 0.25 forward I I I I #
loop $-1 $-1 $210 $53 #
coedge $-1 $132 $132 $211 $212 reversed $83 $-1 #
face $-1 $-1 $213 $43 $-1 $214 forward single #
loop $-1 $215 $216 $85 #
cone-surface $-1 -72.228870171145331 16.647972142377029 12.387535029530671 0.84804810408105047 0 -0.52991925155115449 0.13247981288778862 0 0.21201202602026262 1 I I -0.70710678118654746 0.70710678118654746 0.25 forward I I I I #
loop $-1 $-1 $217 $54 #
coedge $-1 $137 $137 $218 $219 reversed $86 $-1 #
face $-1 $220 $221 $33 $-1 $222 reversed single #
loop $-1 $-1 $223 $88 #
plane-surface $-1 0 -42.24295688437244 0 0 1 0 0 0 1 forward_v I I I I #
coedge $-1 $224 $225 $226 $227 forward $89 $-1 #
coedge $-1 $228 $91 $229 $230 forward $56 $-1 #
coedge $-1 $91 $228 $231 $232 forward $56 $-1 #
coedge $-1 $233 $234 $91 $145 reversed $235 $-1 #
edge $-1 $236 -42.24295688437244 $237 42.24295688437244 $144 $238 forward 7 unknown #
face $-1 $239 $240 $34 $-1 $241 reversed single #
loop $-1 $-1 $242 $92 #
plane-surface $-1 -77.092196417126985 0 0 1 0 0 0 0 -1 forward_v I I I I #
coedge $-1 $243 $244 $245 $246 reversed $93 $-1 #
coedge $-1 $247 $95 $248 $249 reversed $59 $-1 #
coedge $-1 $95 $247 $243 $250 forward $59 $-1 #
coedge $-1 $245 $251 $95 $153 forward $252 $-1 #
edge $-1 $253 -27.069364504838781 $254 -3.2778202542285424 $152 $255 forward 7 unknown #
face $-1 $256 $257 $35 $-1 $258 reversed single #
loop $-1 $-1 $259 $96 #
plane-surface $-1 0 0 18.37008470511454 0 0 1 1 0 0 forward_v I I I I #
coedge $-1 $260 $261 $158 $262 reversed $97 $-1 #
coedge $-1 $263 $99 $157 $262 forward $62 $-1 #
coedge $-1 $99 $263 $264 $265 reversed $62 $-1 #
coedge $-1 $266 $267 $99 $161 forward $257 $-1 #
edge $-1 $268 3.2778202542285442 $269 27.069364504838784 $160 $270 forward 7 unknown #
face $-1 $271 $272 $36 $-1 $273 reversed single #
loop $-1 $-1 $274 $100 #
plane-surface $-1 -207.847978439104 3.5527136788005009e-015 90.416884641867384 0 -1 0 0.84804810408105047 0 -0.52991925155115449 forward_v I I I I #
coedge $-1 $275 $276 $277 $278 reversed $101 $-1 #
coedge $-1 $167 $103 $279 $280 reversed $65 $-1 #
coedge $-1 $103 $166 $275 $281 reversed $65 $-1 #
coedge $-1 $277 $282 $103 $169 forward $283 $-1 #
edge $-1 $284 26.831792802425014 $285 32.867079561644346 $168 $286 forward 7 unknown #
loop $-1 $-1 $175 $104 #
plane-surface $-1 -77.092196417127013 -4.5086012284629149 8.7116065902703355 -0.84804810408105047 0 0.52991925155115449 0.52991925155115449 0 0.84804810408105047 forward_v I I I I #
loop $-1 $-1 $287 $67 #
coedge $-1 $173 $173 $174 $288 reversed $105 $-1 #
coedge $-1 $174 $174 $173 $288 forward $107 $-1 #
coedge $-1 $175 $175 $108 $176 forward $170 $-1 #
edge $-1 $289 0 $289 6.2831853071796004 $175 $290 forward 7 unknown #
loop $-1 $-1 $182 $109 #
plane-surface $-1 -77.092196417127013 -4.5086012284629149 8.7116065902703355 -0.84804810408105047 0 0.52991925155115449 0.52991925155115449 0 0.84804810408105047 forward_v I I I I #
loop $-1 $-1 $291 $70 #
coedge $-1 $180 $180 $181 $292 reversed $110 $-1 #
coedge $-1 $181 $181 $180 $292 forward $112 $-1 #
coedge $-1 $182 $182 $113 $183 forward $177 $-1 #
edge $-1 $293 0 $293 6.2831853071796004 $182 $294 forward 7 unknown #
loop $-1 $-1 $189 $114 #
plane-surface $-1 -77.092196417127013 -4.5086012284629149 8.7116065902703355 -0.84804810408105047 0 0.52991925155115449 0.52991925155115449 0 0.84804810408105047 forward_v I I I I #
loop $-1 $-1 $295 $73 #
coedge $-1 $187 $187 $188 $296 reversed $115 $-1 #
coedge $-1 $188 $188 $187 $296 forward $117 $-1 #
coedge $-1 $189 $189 $118 $190 forward $184 $-1 #
edge $-1 $297 0 $297 6.2831853071796004 $189 $298 forward 7 unknown #
face $-1 $299 $300 $40 $-1 $301 forward single #
loop $-1 $-1 $197 $119 #
plane-surface $-1 0 0 18.37008470511454 0 0 1 1 0 0 forward_v I I I I #
coedge $-1 $302 $303 $304 $305 reversed $120 $-1 #
coedge $-1 $196 $122 $306 $307 reversed $77 $-1 #
coedge $-1 $122 $195 $302 $308 reversed $77 $-1 #
coedge $-1 $304 $309 $122 $198 forward $192 $-1 #
edge $-1 $310 26.831792802425014 $311 32.867079561644346 $197 $312 forward 7 unknown #
loop $-1 $-1 $204 $123 #
plane-surface $-1 -77.092196417127013 13.942811405299288 8.7116065902703355 -0.84804810408105047 0 0.52991925155115449 0.52991925155115449 0 0.84804810408105047 forward_v I I I I #
loop $-1 $-1 $313 $79 #
coedge $-1 $202 $202 $203 $314 reversed $124 $-1 #
coedge $-1 $203 $203 $202 $314 forward $126 $-1 #
coedge $-1 $204 $204 $127 $205 forward $199 $-1 #
edge $-1 $315 0 $315 6.2831853071796004 $204 $316 forward 7 unknown #
loop $-1 $-1 $211 $128 #
plane-surface $-1 -77.092196417127013 13.942811405299288 8.7116065902703355 -0.84804810408105047 0 0.52991925155115449 0.52991925155115449 0 0.84804810408105047 forward_v I I I I #
loop $-1 $-1 $317 $82 #
coedge $-1 $209 $209 $210 $318 reversed $129 $-1 #
coedge $-1 $210 $210 $209 $318 forward $131 $-1 #
coedge $-1 $211 $211 $132 $212 forward $206 $-1 #
edge $-1 $319 0 $319 6.2831853071796004 $211 $320 forward 7 unknown #
loop $-1 $-1 $218 $133 #
plane-surface $-1 -77.092196417127013 13.942811405299288 8.7116065902703355 -0.84804810408105047 0 0.52991925155115449 0.52991925155115449 0 0.84804810408105047 forward_v I I I I #
loop $-1 $-1 $321 $85 #
coedge $-1 $216 $216 $217 $322 reversed $134 $-1 #
coedge $-1 $217 $217 $216 $322 forward $136 $-1 #
coedge $-1 $218 $218 $137 $219 forward $213 $-1 #
edge $-1 $323 0 $323 6.2831853071796004 $218 $324 forward 7 unknown #
face $-1 $325 $326 $33 $-1 $327 reversed single #
loop $-1 $-1 $328 $138 #
plane-surface $-1 -77.092196417126985 0 0 1 0 0 0 0 -1 forward_v I I I I #
coedge $-1 $329 $231 $330 $331 forward $139 $-1 #
coedge $-1 $332 $141 $329 $333 forward $89 $-1 #
coedge $-1 $141 $332 $334 $335 forward $89 $-1 #
coedge $-1 $234 $233 $141 $227 reversed $235 $-1 #
edge $-1 $336 -42.24295688437244 $337 42.24295688437244 $226 $338 forward 7 unknown #
coedge $-1 $143 $142 $339 $340 forward $56 $-1 #
coedge $-1 $341 $342 $142 $230 reversed $326 $-1 #
edge $-1 $237 -77.092196417126985 $343 77.092196417126985 $229 $344 forward 7 unknown #
coedge $-1 $223 $345 $143 $232 reversed $139 $-1 #
edge $-1 $346 -77.092196417126985 $236 77.092196417126985 $231 $347 forward 7 unknown #
coedge $-1 $226 $144 $345 $348 forward $235 $-1 #
coedge $-1 $144 $226 $341 $349 reversed $235 $-1 #
loop $-1 $-1 $233 $325 #
vertex $-1 $145 $350 #
vertex $-1 $145 $351 #
straight-curve $-1 77.092196417126985 0 18.37008470511454 0 1 0 I I #
face $-1 $352 $353 $34 $-1 $354 forward single #
loop $-1 $-1 $248 $146 #
plane-surface $-1 0 -42.24295688437244 0 0 1 0 0 0 1 forward_v I I I I #
coedge $-1 $355 $356 $357 $358 forward $147 $-1 #
coedge $-1 $357 $149 $151 $250 reversed $93 $-1 #
coedge $-1 $149 $357 $359 $360 reversed $93 $-1 #
coedge $-1 $361 $152 $149 $246 forward $252 $-1 #
edge $-1 $254 2.7934671945679934 $362 11.315567405220362 $245 $363 forward 7 unknown #
coedge $-1 $151 $150 $355 $364 reversed $59 $-1 #
coedge $-1 $365 $366 $150 $249 forward $240 $-1 #
edge $-1 $367 -77.092196417126985 $253 77.092196417126985 $248 $368 forward 7 unknown #
edge $-1 $369 -77.092196417126985 $254 77.092196417126985 $243 $370 forward 7 unknown #
coedge $-1 $152 $361 $365 $371 forward $252 $-1 #
loop $-1 $-1 $245 $352 #
vertex $-1 $249 $372 #
vertex $-1 $153 $373 #
straight-curve $-1 77.092196417126985 -15.173592379533661 9.8479844944621711 0 1 0 I I #
face $-1 $374 $375 $35 $-1 $376 reversed single #
loop $-1 $-1 $267 $154 #
plane-surface $-1 77.092196417126985 0 0 -1 0 0 0 0 1 forward_v I I I I #
coedge $-1 $377 $378 $379 $380 forward $155 $-1 #
coedge $-1 $379 $157 $267 $381 reversed $97 $-1 #
coedge $-1 $157 $379 $382 $383 reversed $97 $-1 #
edge $-1 $268 -77.092196417126985 $384 77.092196417126985 $157 $385 forward 7 unknown #
coedge $-1 $159 $158 $386 $387 reversed $62 $-1 #
coedge $-1 $388 $389 $159 $265 forward $390 $-1 #
edge $-1 $269 -77.092196417126985 $391 77.092196417126985 $264 $392 forward 7 unknown #
coedge $-1 $393 $160 $389 $394 reversed $257 $-1 #
coedge $-1 $160 $393 $260 $381 forward $257 $-1 #
vertex $-1 $161 $395 #
vertex $-1 $265 $396 #
straight-curve $-1 77.092196417126985 15.173592379533662 9.8479844944621711 0 1 0 I I #
face $-1 $-1 $283 $36 $-1 $397 forward single #
loop $-1 $-1 $398 $162 #
plane-surface $-1 -77.092196417126985 0 0 1 0 0 0 0 -1 forward_v I I I I #
coedge $-1 $399 $400 $401 $402 reversed $163 $-1 #
coedge $-1 $403 $165 $167 $281 forward $101 $-1 #
coedge $-1 $165 $403 $399 $404 forward $101 $-1 #
coedge $-1 $401 $168 $165 $278 forward $283 $-1 #
edge $-1 $285 -6.7629018426943759 $405 2.254300614231461 $277 $406 forward 7 unknown #
coedge $-1 $407 $408 $166 $280 forward $272 $-1 #
edge $-1 $409 -36.496835730663307 $284 -26.838357615819152 $279 $410 forward 7 unknown #
edge $-1 $285 -11.389068695944061 $409 -5.4228548284608603e-014 $167 $411 forward 7 unknown #
coedge $-1 $168 $401 $407 $412 forward $283 $-1 #
loop $-1 $-1 $401 $271 #
vertex $-1 $280 $413 #
vertex $-1 $169 $414 #
straight-curve $-1 -103.923989219552 -9.0172024569258333 18.370084705114536 1 0 0 I I #
coedge $-1 $287 $287 $-1 $415 reversed $172 $-1 #
edge $-1 $416 0 $416 6.2831853071796004 $173 $417 forward 7 unknown #
vertex $-1 $176 $418 #
ellipse-curve $-1 -74.074553037517333 -7.2137619655406695 13.540845647692446 -0.84804810408105047 0 0.52991925155115449 0.26495962577557725 0 0.42402405204052523 1 I I #
coedge $-1 $291 $291 $-1 $419 reversed $179 $-1 #
edge $-1 $420 0 $420 6.2831853071796004 $180 $421 forward 7 unknown #
vertex $-1 $183 $422 #
ellipse-curve $-1 -74.074553037517333 -4.508601228462922 13.540845647692446 -0.84804810408105047 0 0.52991925155115449 0.26495962577557725 0 0.42402405204052523 1 I I #
coedge $-1 $295 $295 $-1 $423 reversed $186 $-1 #
edge $-1 $424 0 $424 6.2831853071796004 $187 $425 forward 7 unknown #
vertex $-1 $190 $426 #
ellipse-curve $-1 -74.074553037517333 -1.8034404913851745 13.540845647692446 -0.84804810408105047 0 0.52991925155115449 0.26495962577557725 0 0.42402405204052523 1 I I #
face $-1 $-1 $427 $40 $-1 $428 reversed single #
loop $-1 $-1 $429 $191 #
plane-surface $-1 0 18.451412633762207 14.109034599788355 0 1 0 0 0 1 forward_v I I I I #
coedge $-1 $430 $194 $196 $308 forward $120 $-1 #
coedge $-1 $194 $430 $429 $431 forward $120 $-1 #
coedge $-1 $432 $197 $194 $305 forward $192 $-1 #
edge $-1 $311 2.4628044741867257 $433 11.480006931112563 $304 $434 forward 7 unknown #
coedge $-1 $435 $436 $195 $307 forward $427 $-1 #
edge $-1 $437 -36.496835730663307 $310 -26.838357615819152 $306 $438 forward 7 unknown #
edge $-1 $311 -11.389068695944061 $437 -5.4228548284608603e-014 $196 $439 forward 7 unknown #
coedge $-1 $197 $432 $435 $440 forward $192 $-1 #
vertex $-1 $307 $441 #
vertex $-1 $198 $442 #
straight-curve $-1 -103.923989219552 9.4342101768363698 18.370084705114536 1 0 0 I I #
coedge $-1 $313 $313 $-1 $443 reversed $201 $-1 #
edge $-1 $444 0 $444 6.2831853071796004 $202 $445 forward 7 unknown #
vertex $-1 $205 $446 #
ellipse-curve $-1 -74.074553037517333 11.237650668221534 13.540845647692446 -0.84804810408105047 0 0.52991925155115449 0.26495962577557725 0 0.42402405204052523 1 I I #
coedge $-1 $317 $317 $-1 $447 reversed $208 $-1 #
edge $-1 $448 0 $448 6.2831853071796004 $209 $449 forward 7 unknown #
vertex $-1 $212 $450 #
ellipse-curve $-1 -74.074553037517333 13.942811405299281 13.540845647692446 -0.84804810408105047 0 0.52991925155115449 0.26495962577557725 0 0.42402405204052523 1 I I #
coedge $-1 $321 $321 $-1 $451 reversed $215 $-1 #
edge $-1 $452 0 $452 6.2831853071796004 $216 $453 forward 7 unknown #
vertex $-1 $219 $454 #
ellipse-curve $-1 -74.074553037517333 16.647972142377029 13.540845647692446 -0.84804810408105047 0 0.52991925155115449 0.26495962577557725 0 0.42402405204052523 1 I I #
face $-1 $-1 $235 $33 $-1 $455 reversed single #
loop $-1 $-1 $341 $220 #
plane-surface $-1 0 42.24295688437244 0 0 -1 0 0 0 -1 forward_v I I I I #
coedge $-1 $456 $339 $342 $457 forward $221 $-1 #
coedge $-1 $345 $223 $224 $333 reversed $139 $-1 #
coedge $-1 $339 $456 $223 $331 reversed $221 $-1 #
edge $-1 $346 -18.37008470511454 $458 18.37008470511454 $330 $459 forward 7 unknown #
coedge $-1 $225 $224 $456 $460 forward $89 $-1 #
edge $-1 $337 -77.092196417126985 $458 77.092196417126985 $329 $461 forward 7 unknown #
coedge $-1 $342 $341 $225 $335 reversed $326 $-1 #
edge $-1 $462 -77.092196417126985 $336 77.092196417126985 $334 $463 forward 7 unknown #
vertex $-1 $227 $464 #
vertex $-1 $348 $465 #
straight-curve $-1 77.092196417126985 0 -18.37008470511454 0 -1 0 I I #
coedge $-1 $328 $330 $228 $340 reversed $221 $-1 #
edge $-1 $343 -42.24295688437244 $346 42.24295688437244 $339 $466 forward 7 unknown #
coedge $-1 $334 $229 $234 $349 forward $326 $-1 #
coedge $-1 $229 $334 $328 $457 reversed $326 $-1 #
vertex $-1 $230 $467 #
straight-curve $-1 0 42.24295688437244 18.37008470511454 -1 0 0 I I #
coedge $-1 $231 $329 $233 $348 reversed $139 $-1 #
vertex $-1 $340 $468 #
straight-curve $-1 0 -42.24295688437244 18.37008470511454 1 0 0 I I #
edge $-1 $236 -18.37008470511454 $337 18.37008470511454 $233 $469 forward 7 unknown #
edge $-1 $237 -18.37008470511454 $336 18.37008470511454 $234 $470 forward 7 unknown #
point $-1 77.092196417126985 -42.24295688437244 18.37008470511454 #
point $-1 77.092196417126985 42.24295688437244 18.37008470511454 #
face $-1 $-1 $252 $34 $-1 $471 reversed single #
loop $-1 $-1 $359 $239 #
plane-surface $-1 0 0 18.37008470511454 0 0 1 1 0 0 forward_v I I I I #
coedge $-1 $472 $242 $247 $364 forward $147 $-1 #
coedge $-1 $242 $472 $473 $474 reversed $147 $-1 #
coedge $-1 $244 $243 $242 $358 reversed $93 $-1 #
edge $-1 $475 -11.315567405220362 $369 -2.7934671945679934 $242 $476 forward 7 unknown #
coedge $-1 $473 $477 $244 $360 forward $353 $-1 #
edge $-1 $362 -77.092196417126985 $475 77.092196417126985 $359 $478 forward 7 unknown #
coedge $-1 $251 $245 $477 $479 reversed $252 $-1 #
vertex $-1 $246 $480 #
straight-curve $-1 77.092196417126985 -18.451412633762203 7.0545172998941776 0 0 1 I I #
edge $-1 $369 3.2778202542285424 $367 27.069364504838781 $355 $481 forward 7 unknown #
coedge $-1 $482 $248 $251 $371 reversed $240 $-1 #
coedge $-1 $248 $482 $472 $483 forward $240 $-1 #
vertex $-1 $249 $484 #
straight-curve $-1 0 -42.24295688437244 9.8479844944621711 1 0 0 I I #
vertex $-1 $364 $485 #
straight-curve $-1 0 -18.451412633762203 9.8479844944621711 1 0 0 I I #
edge $-1 $486 -18.37008470511454 $253 -9.8479844944621711 $251 $487 forward 7 unknown #
point $-1 77.092196417126985 -42.24295688437244 9.8479844944621711 #
point $-1 77.092196417126985 -18.451412633762203 9.8479844944621711 #
face $-1 $-1 $390 $35 $-1 $488 reversed single #
loop $-1 $-1 $382 $256 #
plane-surface $-1 -77.092196417126985 0 0 1 0 0 0 0 -1 forward_v I I I I #
coedge $-1 $489 $259 $393 $490 forward $155 $-1 #
coedge $-1 $259 $489 $491 $492 forward $155 $-1 #
coedge $-1 $261 $260 $259 $380 reversed $97 $-1 #
edge $-1 $493 -77.092196417126985 $494 77.092196417126985 $259 $495 forward 7 unknown #
edge $-1 $494 -11.315567405220362 $268 -2.7934671945679934 $267 $496 forward 7 unknown #
coedge $-1 $491 $386 $261 $383 forward $375 $-1 #
edge $-1 $384 2.7934671945679934 $493 11.315567405220362 $382 $497 forward 7 unknown #
vertex $-1 $387 $498 #
straight-curve $-1 0 18.451412633762207 9.8479844944621711 -1 0 0 I I #
coedge $-1 $382 $499 $263 $387 forward $375 $-1 #
edge $-1 $391 -27.069364504838784 $384 -3.2778202542285442 $386 $500 forward 7 unknown #
coedge $-1 $501 $264 $499 $502 reversed $390 $-1 #
coedge $-1 $264 $501 $266 $394 forward $390 $-1 #
loop $-1 $-1 $264 $374 #
vertex $-1 $265 $503 #
straight-curve $-1 0 42.24295688437244 9.8479844944621711 -1 0 0 I I #
coedge $-1 $267 $266 $377 $490 reversed $257 $-1 #
edge $-1 $504 -18.37008470511454 $269 -9.8479844944621711 $266 $505 forward 7 unknown #
point $-1 77.092196417126985 18.451412633762207 9.8479844944621711 #
point $-1 77.092196417126985 42.242956884372447 9.8479844944621711 #
plane-surface $-1 0 0 18.37008470511454 0 0 1 1 0 0 forward_v I I I I #
coedge $-1 $408 $407 $400 $506 forward $272 $-1 #
coedge $-1 $400 $274 $276 $404 reversed $163 $-1 #
coedge $-1 $274 $399 $398 $506 reversed $163 $-1 #
coedge $-1 $282 $277 $274 $402 forward $283 $-1 #
edge $-1 $405 -32.867079561644346 $507 -26.831792802425014 $401 $508 forward 7 unknown #
coedge $-1 $276 $275 $408 $509 reversed $101 $-1 #
edge $-1 $510 5.4228548284608603e-014 $405 11.389068695944061 $399 $511 forward 7 unknown #
vertex $-1 $278 $512 #
straight-curve $-1 -71.056909657907653 -2.2543006142314574 18.370084705114543 0 1 0 I I #
coedge $-1 $398 $279 $282 $412 reversed $272 $-1 #
coedge $-1 $279 $398 $403 $509 forward $272 $-1 #
vertex $-1 $280 $513 #
straight-curve $-1 -77.092196417126985 -9.0172024569258333 45.208442320933692 0 0 1 I I #
straight-curve $-1 -77.092196417127013 -9.0172024569258333 8.7116065902703355 -0.52991925155115449 0 -0.84804810408105047 I I #
edge $-1 $507 -3.5527136788005009e-015 $284 9.0172024569258333 $407 $514 forward 7 unknown #
point $-1 -77.092196417126985 -9.0172024569258333 18.37008470511454 #
point $-1 -71.056909657907653 -9.0172024569258333 18.37008470511454 #
edge $-1 $515 1 $515 0 $287 $-1 forward 7 unknown #
vertex $-1 $288 $516 #
ellipse-curve $-1 -72.440882197165593 -7.2137619655406695 12.52001484241846 -0.84804810408105047 0 0.52991925155115449 0.26495962577557725 0 0.42402405204052523 1 I I #
point $-1 -73.809593411741716 -7.2137619655406695 13.964869699732947 #
edge $-1 $517 1 $517 0 $291 $-1 forward 7 unknown #
vertex $-1 $292 $518 #
ellipse-curve $-1 -72.440882197165593 -4.508601228462922 12.52001484241846 -0.84804810408105047 0 0.52991925155115449 0.26495962577557725 0 0.42402405204052523 1 I I #
point $-1 -73.809593411741716 -4.508601228462922 13.964869699732947 #
edge $-1 $519 1 $519 0 $295 $-1 forward 7 unknown #
vertex $-1 $296 $520 #
ellipse-curve $-1 -72.440882197165593 -1.8034404913851745 12.52001484241846 -0.84804810408105047 0 0.52991925155115449 0.26495962577557725 0 0.42402405204052523 1 I I #
point $-1 -73.809593411741716 -1.8034404913851745 13.964869699732947 #
loop $-1 $-1 $306 $299 #
plane-surface $-1 -77.092196417126985 0 0 1 0 0 0 0 -1 forward_v I I I I #
coedge $-1 $521 $522 $303 $431 reversed $300 $-1 #
coedge $-1 $303 $302 $436 $523 reversed $120 $-1 #
edge $-1 $524 5.4228548284608603e-014 $433 11.389068695944061 $429 $525 forward 7 unknown #
coedge $-1 $309 $304 $522 $526 forward $192 $-1 #
vertex $-1 $526 $527 #
straight-curve $-1 -71.056909657907653 6.9714057026496441 18.370084705114543 0 1 0 I I #
coedge $-1 $528 $306 $309 $440 reversed $427 $-1 #
coedge $-1 $306 $528 $430 $523 forward $427 $-1 #
vertex $-1 $307 $529 #
straight-curve $-1 -77.092196417126985 9.4342101768363698 45.208442320933692 0 0 1 I I #
straight-curve $-1 -77.092196417127013 9.4342101768363698 8.7116065902703355 -0.52991925155115449 0 -0.84804810408105047 I I #
edge $-1 $530 -18.451412633762207 $310 -9.4342101768363698 $435 $531 forward 7 unknown #
point $-1 -77.092196417126985 9.4342101768363698 18.37008470511454 #
point $-1 -71.056909657907653 9.4342101768363698 18.37008470511454 #
edge $-1 $532 1 $532 0 $313 $-1 forward 7 unknown #
vertex $-1 $314 $533 #
ellipse-curve $-1 -72.440882197165593 11.237650668221534 12.52001484241846 -0.84804810408105047 0 0.52991925155115449 0.26495962577557725 0 0.42402405204052523 1 I I #
point $-1 -73.809593411741716 11.237650668221534 13.964869699732947 #
edge $-1 $534 1 $534 0 $317 $-1 forward 7 unknown #
vertex $-1 $318 $535 #
ellipse-curve $-1 -72.440882197165593 13.942811405299281 12.52001484241846 -0.84804810408105047 0 0.52991925155115449 0.26495962577557725 0 0.42402405204052523 1 I I #
point $-1 -73.809593411741716 13.942811405299281 13.964869699732947 #
edge $-1 $536 1 $536 0 $321 $-1 forward 7 unknown #
vertex $-1 $322 $537 #
ellipse-curve $-1 -72.440882197165593 16.647972142377029 12.52001484241846 -0.84804810408105047 0 0.52991925155115449 0.26495962577557725 0 0.42402405204052523 1 I I #
point $-1 -73.809593411741716 16.647972142377029 13.964869699732947 #
plane-surface $-1 77.092196417126985 0 0 -1 0 0 0 0 1 forward_v I I I I #
coedge $-1 $330 $328 $332 $460 reversed $221 $-1 #
edge $-1 $343 -18.37008470511454 $462 18.37008470511454 $342 $538 forward 7 unknown #
vertex $-1 $460 $539 #
straight-curve $-1 -77.092196417126985 -42.24295688437244 0 0 0 -1 I I #
edge $-1 $458 -42.24295688437244 $462 42.24295688437244 $456 $540 forward 7 unknown #
straight-curve $-1 0 -42.24295688437244 -18.37008470511454 -1 0 0 I I #
vertex $-1 $335 $541 #
straight-curve $-1 0 42.24295688437244 -18.37008470511454 1 0 0 I I #
point $-1 77.092196417126985 42.24295688437244 -18.37008470511454 #
point $-1 77.092196417126985 -42.24295688437244 -18.37008470511454 #
straight-curve $-1 -77.092196417126985 0 18.37008470511454 0 -1 0 I I #
point $-1 -77.092196417126985 42.24295688437244 18.37008470511454 #
point $-1 -77.092196417126985 -42.24295688437244 18.37008470511454 #
straight-curve $-1 77.092196417126985 -42.24295688437244 0 0 0 -1 I I #
straight-curve $-1 77.092196417126985 42.24295688437244 0 0 0 -1 I I #
plane-surface $-1 77.092196417126985 0 0 -1 0 0 0 0 1 forward_v I I I I #
coedge $-1 $356 $355 $366 $483 reversed $147 $-1 #
coedge $-1 $542 $359 $356 $474 forward $353 $-1 #
edge $-1 $475 18.451412633762203 $543 42.24295688437244 $356 $544 forward 7 unknown #
vertex $-1 $474 $545 #
straight-curve $-1 -77.092196417126985 -18.451412633762203 7.0545172998941776 0 0 -1 I I #
coedge $-1 $359 $542 $361 $479 forward $353 $-1 #
straight-curve $-1 0 -18.451412633762203 18.37008470511454 -1 0 0 I I #
edge $-1 $486 -42.24295688437244 $362 -18.451412633762203 $361 $546 forward 7 unknown #
point $-1 77.092196417126985 -18.451412633762203 18.37008470511454 #
straight-curve $-1 -77.092196417126985 -15.173592379533661 9.8479844944621711 0 -1 0 I I #
coedge $-1 $366 $365 $542 $547 reversed $240 $-1 #
edge $-1 $543 -18.37008470511454 $367 -9.8479844944621711 $472 $548 forward 7 unknown #
point $-1 -77.092196417126985 -42.24295688437244 9.8479844944621711 #
point $-1 -77.092196417126985 -18.451412633762203 9.8479844944621711 #
vertex $-1 $479 $549 #
straight-curve $-1 77.092196417126985 -42.24295688437244 0 0 0 -1 I I #
plane-surface $-1 0 42.24295688437244 0 0 -1 0 0 0 -1 forward_v I I I I #
coedge $-1 $378 $377 $501 $550 forward $155 $-1 #
edge $-1 $494 18.451412633762207 $504 42.24295688437244 $393 $551 forward 7 unknown #
coedge $-1 $499 $382 $378 $492 reversed $375 $-1 #
edge $-1 $552 -42.24295688437244 $493 -18.451412633762207 $491 $553 forward 7 unknown #
vertex $-1 $383 $554 #
vertex $-1 $490 $555 #
straight-curve $-1 0 18.451412633762207 18.37008470511454 1 0 0 I I #
straight-curve $-1 77.092196417126985 18.451412633762207 7.0545172998941776 0 0 -1 I I #
straight-curve $-1 -77.092196417126985 18.451412633762207 7.0545172998941776 0 0 1 I I #
point $-1 -77.092196417126985 18.451412633762207 9.8479844944621711 #
coedge $-1 $386 $491 $388 $502 forward $375 $-1 #
straight-curve $-1 -77.092196417126985 15.173592379533662 9.8479844944621711 0 -1 0 I I #
coedge $-1 $389 $388 $489 $550 reversed $390 $-1 #
edge $-1 $552 -18.37008470511454 $391 -9.8479844944621711 $388 $556 forward 7 unknown #
point $-1 -77.092196417126985 42.242956884372447 9.8479844944621711 #
vertex $-1 $490 $557 #
straight-curve $-1 77.092196417126985 42.24295688437244 0 0 0 -1 I I #
edge $-1 $507 26.838357615819152 $510 36.496835730663307 $398 $558 forward 7 unknown #
vertex $-1 $412 $559 #
straight-curve $-1 -103.923989219552 3.5527136788005009e-015 18.370084705114536 -1 0 0 I I #
edge $-1 $510 -2.254300614231461 $409 6.7629018426943759 $408 $560 forward 7 unknown #
vertex $-1 $509 $561 #
straight-curve $-1 -77.092196417127013 3.5527136788005009e-015 8.7116065902703355 0.52991925155115449 0 0.84804810408105047 I I #
point $-1 -71.056909657907653 3.5527136788005009e-015 18.37008470511454 #
point $-1 -77.092196417126985 -9.0172024569258333 8.7116065902703816 #
straight-curve $-1 -77.092196417126985 0 18.37008470511454 0 -1 0 I I #
vertex $-1 $415 $562 #
point $-1 -72.175922571390018 -7.2137619655406695 12.944038894458984 #
vertex $-1 $419 $563 #
point $-1 -72.175922571390018 -4.508601228462922 12.944038894458984 #
vertex $-1 $423 $564 #
point $-1 -72.175922571390018 -1.8034404913851745 12.944038894458984 #
coedge $-1 $522 $429 $528 $565 reversed $300 $-1 #
coedge $-1 $429 $521 $432 $526 reversed $300 $-1 #
edge $-1 $524 -11.480006931112563 $437 -2.4628044741867257 $436 $566 forward 7 unknown #
vertex $-1 $565 $567 #
straight-curve $-1 -77.092196417127013 18.451412633762207 8.7116065902703355 0.52991925155115449 0 0.84804810408105047 I I #
edge $-1 $433 71.056909657907653 $530 77.092196417126985 $432 $568 forward 7 unknown #
point $-1 -71.056909657907653 18.451412633762207 18.37008470511454 #
coedge $-1 $436 $435 $521 $565 forward $427 $-1 #
point $-1 -77.092196417126985 9.4342101768363698 8.7116065902703816 #
vertex $-1 $440 $569 #
straight-curve $-1 -77.092196417126985 0 18.37008470511454 0 -1 0 I I #
vertex $-1 $443 $570 #
point $-1 -72.175922571390018 11.237650668221534 12.944038894458984 #
vertex $-1 $447 $571 #
point $-1 -72.175922571390018 13.942811405299281 12.944038894458984 #
vertex $-1 $451 $572 #
point $-1 -72.175922571390018 16.647972142377029 12.944038894458984 #
straight-curve $-1 -77.092196417126985 42.24295688437244 0 0 0 -1 I I #
point $-1 -77.092196417126985 -42.24295688437244 -18.37008470511454 #
straight-curve $-1 -77.092196417126985 0 -18.37008470511454 0 1 0 I I #
point $-1 -77.092196417126985 42.24295688437244 -18.37008470511454 #
coedge $-1 $477 $473 $482 $547 forward $353 $-1 #
vertex $-1 $474 $573 #
straight-curve $-1 -77.092196417126985 0 18.37008470511454 0 -1 0 I I #
point $-1 -77.092196417126985 -18.451412633762203 18.37008470511454 #
straight-curve $-1 77.092196417126985 0 18.37008470511454 0 1 0 I I #
edge $-1 $543 -77.092196417126985 $486 77.092196417126985 $482 $574 forward 7 unknown #
straight-curve $-1 -77.092196417126985 -42.24295688437244 0 0 0 -1 I I #
point $-1 77.092196417126985 -42.24295688437244 18.37008470511454 #
edge $-1 $504 -77.092196417126985 $552 77.092196417126985 $501 $575 forward 7 unknown #
straight-curve $-1 77.092196417126985 0 18.37008470511454 0 1 0 I I #
vertex $-1 $550 $576 #
straight-curve $-1 -77.092196417126985 0 18.37008470511454 0 -1 0 I I #
point $-1 -77.092196417126985 18.451412633762207 18.37008470511454 #
point $-1 77.092196417126985 18.451412633762207 18.37008470511454 #
straight-curve $-1 -77.092196417126985 42.24295688437244 0 0 0 -1 I I #
point $-1 77.092196417126985 42.24295688437244 18.37008470511454 #
straight-curve $-1 -77.092196417126985 3.5527136788005009e-015 45.208442320933692 0 0 -1 I I #
point $-1 -77.092196417126985 3.5527136788005009e-015 18.37008470511454 #
straight-curve $-1 -77.092196417126985 -2.2543006142314574 8.7116065902703888 0 -1 0 I I #
point $-1 -77.092196417126985 3.5527136788005009e-015 8.7116065902703816 #
point $-1 -72.01685814512507 -7.2137619655406695 12.255055216642882 #
point $-1 -72.01685814512507 -4.508601228462922 12.255055216642882 #
point $-1 -72.01685814512507 -1.8034404913851745 12.255055216642882 #
edge $-1 $530 26.838357615819152 $524 36.496835730663307 $528 $577 forward 7 unknown #
straight-curve $-1 -77.092196417126985 6.9714057026496441 8.7116065902703888 0 -1 0 I I #
point $-1 -77.092196417126985 18.451412633762207 8.7116065902703816 #
straight-curve $-1 0 18.451412633762207 18.37008470511454 -1 0 0 I I #
point $-1 -77.092196417126985 18.451412633762207 18.37008470511454 #
point $-1 -72.01685814512507 11.237650668221534 12.255055216642882 #
point $-1 -72.01685814512507 13.942811405299281 12.255055216642882 #
point $-1 -72.01685814512507 16.647972142377029 12.255055216642882 #
point $-1 -77.092196417126985 -42.24295688437244 18.37008470511454 #
straight-curve $-1 0 -42.24295688437244 18.37008470511454 1 0 0 I I #
straight-curve $-1 0 42.24295688437244 18.37008470511454 -1 0 0 I I #
point $-1 -77.092196417126985 42.24295688437244 18.37008470511454 #
straight-curve $-1 -77.092196417126985 18.451412633762207 45.208442320933692 0 0 -1 I I #
End-of-ACIS-data 