500 0 4 0           
7 Unknown 11 ACIS 5.0 NT 24 Fri Mar 26 15:29:29 1999 
-1 9.9999999999999995e-007 1e-010 
body $-1 $4 $-1 $5 #
body $-1 $6 $-1 $7 #
body $-1 $8 $-1 $9 #
body $-1 $10 $-1 $11 #
lump $-1 $-1 $12 $0 #
transform $-1 1 0 0 0 1 0 0 0 1 59.059419537949765 25.575232201108989 7.2645929193579457 1 rotate no_reflect no_shear #
lump $-1 $-1 $13 $1 #
transform $-1 1 0 0 0 1 0 0 0 1 59.059419537949765 25.575232201108989 7.2645929193579457 1 rotate no_reflect no_shear #
lump $-1 $-1 $14 $2 #
transform $-1 1 0 0 0 1 0 0 0 1 59.059419537949765 25.575232201108989 7.2645929193579457 1 rotate no_reflect no_shear #
lump $-1 $-1 $15 $3 #
transform $-1 1 0 0 0 1 0 0 0 1 59.059419537949765 25.575232201108989 7.2645929193579457 1 rotate no_reflect no_shear #
shell $-1 $-1 $-1 $16 $-1 $4 #
shell $-1 $-1 $-1 $17 $-1 $6 #
shell $-1 $-1 $-1 $18 $-1 $8 #
shell $-1 $-1 $-1 $19 $-1 $10 #
face $-1 $20 $21 $12 $-1 $22 forward single #
face $-1 $23 $24 $13 $-1 $25 reversed single #
face $-1 $26 $27 $14 $-1 $28 forward single #
face $-1 $29 $30 $15 $-1 $31 forward single #
face $-1 $32 $33 $12 $-1 $34 reversed single #
loop $-1 $-1 $35 $16 #
plane-surface $-1 0 0 7.2645929193579457 0 0 1 1 0 0 forward_v I I I I #
face $-1 $36 $37 $13 $-1 $38 reversed single #
loop $-1 $-1 $39 $17 #
plane-surface $-1 -30.483386204788566 -113.35463722992615 80.300806454492673 -1 0 0 0 -0.74314483375859142 0.66913059716165679 forward_v I I I I #
face $-1 $40 $41 $14 $-1 $42 forward single #
loop $-1 $43 $44 $18 #
cone-surface $-1 -39.606390157585579 -21.488616256241432 3.0171019547009279 0 0.74314483375859142 -0.66913059716165679 1 0 0 1 I I 0 1 1 forward I I I I #
face $-1 $45 $46 $15 $-1 $47 forward single #
loop $-1 $48 $49 $19 #
cone-surface $-1 -34.132587785907376 -21.488616256241432 3.0171019547009279 0 0.74314483375859142 -0.66913059716165679 1 0 0 1 I I 0 1 1 forward I I I I #
face $-1 $50 $51 $12 $-1 $52 reversed single #
loop $-1 $-1 $53 $20 #
plane-surface $-1 0 0 -7.2645929193579457 0 0 1 1 0 0 forward_v I I I I #
coedge $-1 $54 $55 $56 $57 forward $21 $-1 #
face $-1 $58 $59 $13 $-1 $60 reversed single #
loop $-1 $-1 $61 $23 #
plane-surface $-1 -36.869488971746478 -25.575232201108989 1.2638771275943839 0 -0.74314483375859142 0.66913059716165679 1 0 0 forward_v I I I I #
coedge $-1 $62 $63 $64 $65 reversed $24 $-1 #
face $-1 $-1 $66 $14 $-1 $67 forward single #
loop $-1 $68 $69 $26 #
cone-surface $-1 -39.606390157585579 -19.731962211050487 1.4354035873448643 0 0.74314483375859142 -0.66913059716165679 0.5 0 0 1 I I -0.70710678118654746 0.70710678118654746 0.5 forward I I I I #
loop $-1 $-1 $70 $18 #
coedge $-1 $44 $44 $71 $72 reversed $27 $-1 #
face $-1 $-1 $73 $15 $-1 $74 forward single #
loop $-1 $75 $76 $29 #
cone-surface $-1 -34.132587785907376 -19.731962211050487 1.4354035873448643 0 0.74314483375859142 -0.66913059716165679 0.5 0 0 1 I I -0.70710678118654746 0.70710678118654746 0.5 forward I I I I #
loop $-1 $-1 $77 $19 #
coedge $-1 $49 $49 $78 $79 reversed $30 $-1 #
face $-1 $80 $81 $12 $-1 $82 reversed single #
loop $-1 $-1 $83 $32 #
plane-surface $-1 0 -25.575232201108989 0 0 1 0 0 0 1 forward_v I I I I #
coedge $-1 $84 $85 $86 $87 forward $33 $-1 #
coedge $-1 $88 $35 $89 $90 forward $21 $-1 #
coedge $-1 $35 $88 $91 $92 forward $21 $-1 #
coedge $-1 $93 $94 $35 $57 reversed $95 $-1 #
edge $-1 $96 -25.575232201108989 $97 25.575232201108989 $56 $98 forward 7 unknown #
face $-1 $99 $100 $13 $-1 $101 reversed single #
loop $-1 $-1 $102 $36 #
plane-surface $-1 -43.255591738704389 -113.35463722992615 80.300806454492673 1 0 0 0 0.74314483375859142 -0.66913059716165679 forward_v I I I I #
coedge $-1 $103 $104 $105 $106 reversed $37 $-1 #
coedge $-1 $63 $39 $107 $108 reversed $24 $-1 #
coedge $-1 $39 $62 $103 $109 reversed $24 $-1 #
coedge $-1 $105 $110 $39 $65 forward $111 $-1 #
edge $-1 $112 31.102086413854089 $113 36.505155046965896 $64 $114 forward 7 unknown #
loop $-1 $-1 $71 $40 #
plane-surface $-1 -36.869488971746478 -25.575232201108989 1.2638771275943839 0 -0.74314483375859142 0.66913059716165679 1 0 0 forward_v I I I I #
loop $-1 $-1 $115 $26 #
coedge $-1 $69 $69 $70 $116 reversed $41 $-1 #
coedge $-1 $70 $70 $69 $116 forward $43 $-1 #
coedge $-1 $71 $71 $44 $72 forward $66 $-1 #
edge $-1 $117 1.0571390173281295e-015 $117 6.2831853071796013 $71 $118 forward 7 unknown #
loop $-1 $-1 $78 $45 #
plane-surface $-1 -36.869488971746478 -25.575232201108989 1.2638771275943839 0 -0.74314483375859142 0.66913059716165679 1 0 0 forward_v I I I I #
loop $-1 $-1 $119 $29 #
coedge $-1 $76 $76 $77 $120 reversed $46 $-1 #
coedge $-1 $77 $77 $76 $120 forward $48 $-1 #
coedge $-1 $78 $78 $49 $79 forward $73 $-1 #
edge $-1 $121 1.0571390173281295e-015 $121 6.2831853071796013 $78 $122 forward 7 unknown #
face $-1 $123 $124 $12 $-1 $125 reversed single #
loop $-1 $-1 $126 $50 #
plane-surface $-1 -59.059419537949765 0 0 1 0 0 0 0 -1 forward_v I I I I #
coedge $-1 $127 $91 $128 $129 forward $51 $-1 #
coedge $-1 $130 $53 $127 $131 forward $33 $-1 #
coedge $-1 $53 $130 $132 $133 forward $33 $-1 #
coedge $-1 $94 $93 $53 $87 reversed $95 $-1 #
edge $-1 $134 -25.575232201108989 $135 25.575232201108989 $86 $136 forward 7 unknown #
coedge $-1 $55 $54 $137 $138 forward $21 $-1 #
coedge $-1 $139 $140 $54 $90 reversed $124 $-1 #
edge $-1 $97 -59.059419537949765 $141 59.059419537949765 $89 $142 forward 7 unknown #
coedge $-1 $83 $143 $55 $92 reversed $51 $-1 #
edge $-1 $144 -59.059419537949765 $96 59.059419537949765 $91 $145 forward 7 unknown #
coedge $-1 $86 $56 $143 $146 forward $95 $-1 #
coedge $-1 $56 $86 $139 $147 reversed $95 $-1 #
loop $-1 $-1 $93 $123 #
vertex $-1 $57 $148 #
vertex $-1 $57 $149 #
straight-curve $-1 59.059419537949765 0 7.2645929193579457 0 1 0 I I #
face $-1 $-1 $111 $13 $-1 $150 forward single #
loop $-1 $-1 $151 $58 #
plane-surface $-1 0 -25.575232201108989 0 0 1 0 0 0 1 forward_v I I I I #
coedge $-1 $152 $153 $154 $155 reversed $59 $-1 #
coedge $-1 $156 $61 $63 $109 forward $37 $-1 #
coedge $-1 $61 $156 $152 $157 forward $37 $-1 #
coedge $-1 $154 $64 $61 $106 forward $111 $-1 #
edge $-1 $113 12.048641718915327 $158 24.82084725283115 $105 $159 forward 7 unknown #
coedge $-1 $160 $161 $62 $108 forward $100 $-1 #
edge $-1 $162 -38.886526099651952 $112 -32.885810307888391 $107 $163 forward 7 unknown #
edge $-1 $113 -8.0747594804822107 $162 0 $63 $164 forward 7 unknown #
coedge $-1 $64 $154 $160 $165 forward $111 $-1 #
loop $-1 $-1 $154 $99 #
vertex $-1 $108 $166 #
vertex $-1 $65 $167 #
straight-curve $-1 -30.483386204788566 -56.677318614963077 7.2645929193579448 0 1 0 I I #
coedge $-1 $115 $115 $-1 $168 reversed $68 $-1 #
edge $-1 $169 0 $169 6.2831853071796004 $69 $170 forward 7 unknown #
vertex $-1 $72 $171 #
ellipse-curve $-1 -39.606390157585579 -22.873697884553085 4.2642350234761643 0 -0.74314483375859142 0.66913059716165679 1 0 0 1 I I #
coedge $-1 $119 $119 $-1 $172 reversed $75 $-1 #
edge $-1 $173 0 $173 6.2831853071796004 $76 $174 forward 7 unknown #
vertex $-1 $79 $175 #
ellipse-curve $-1 -34.132587785907376 -22.873697884553085 4.2642350234761643 0 -0.74314483375859142 0.66913059716165679 1 0 0 1 I I #
face $-1 $-1 $95 $12 $-1 $176 reversed single #
loop $-1 $-1 $139 $80 #
plane-surface $-1 0 25.575232201108989 0 0 -1 0 0 0 -1 forward_v I I I I #
coedge $-1 $177 $137 $140 $178 forward $81 $-1 #
coedge $-1 $143 $83 $84 $131 reversed $51 $-1 #
coedge $-1 $137 $177 $83 $129 reversed $81 $-1 #
edge $-1 $144 -7.2645929193579457 $179 7.2645929193579457 $128 $180 forward 7 unknown #
coedge $-1 $85 $84 $177 $181 forward $33 $-1 #
edge $-1 $135 -59.059419537949765 $179 59.059419537949765 $127 $182 forward 7 unknown #
coedge $-1 $140 $139 $85 $133 reversed $124 $-1 #
edge $-1 $183 -59.059419537949765 $134 59.059419537949765 $132 $184 forward 7 unknown #
vertex $-1 $87 $185 #
vertex $-1 $146 $186 #
straight-curve $-1 59.059419537949765 0 -7.2645929193579457 0 -1 0 I I #
coedge $-1 $126 $128 $88 $138 reversed $81 $-1 #
edge $-1 $141 -25.575232201108989 $144 25.575232201108989 $137 $187 forward 7 unknown #
coedge $-1 $132 $89 $94 $147 forward $124 $-1 #
coedge $-1 $89 $132 $126 $178 reversed $124 $-1 #
vertex $-1 $90 $188 #
straight-curve $-1 0 25.575232201108989 7.2645929193579457 -1 0 0 I I #
coedge $-1 $91 $127 $93 $146 reversed $51 $-1 #
vertex $-1 $138 $189 #
straight-curve $-1 0 -25.575232201108989 7.2645929193579457 1 0 0 I I #
edge $-1 $96 -7.2645929193579457 $135 7.2645929193579457 $93 $190 forward 7 unknown #
edge $-1 $97 -7.2645929193579457 $134 7.2645929193579457 $94 $191 forward 7 unknown #
point $-1 59.059419537949765 -25.575232201108989 7.2645929193579457 #
point $-1 59.059419537949765 25.575232201108989 7.2645929193579457 #
plane-surface $-1 0 0 7.2645929193579457 0 0 1 1 0 0 forward_v I I I I #
coedge $-1 $161 $160 $153 $192 forward $100 $-1 #
coedge $-1 $153 $102 $104 $157 reversed $59 $-1 #
coedge $-1 $102 $152 $151 $192 reversed $59 $-1 #
coedge $-1 $110 $105 $102 $155 forward $111 $-1 #
edge $-1 $158 -36.505155046965896 $193 -31.102086413854089 $154 $194 forward 7 unknown #
coedge $-1 $104 $103 $161 $195 reversed $37 $-1 #
edge $-1 $196 0 $158 8.0747594804822107 $152 $197 forward 7 unknown #
vertex $-1 $106 $198 #
straight-curve $-1 -18.434744485873239 -20.172163567997178 7.2645929193579457 -1 0 0 I I #
coedge $-1 $151 $107 $110 $165 reversed $100 $-1 #
coedge $-1 $107 $151 $156 $195 forward $100 $-1 #
vertex $-1 $108 $199 #
straight-curve $-1 -30.483386204788566 -25.575232201108989 40.150403227246336 0 0 1 I I #
straight-curve $-1 -30.483386204788566 -25.575232201108989 1.2638771275943839 0 -0.66913059716165679 -0.74314483375859142 I I #
edge $-1 $193 -43.255591738704389 $112 -30.483386204788566 $160 $200 forward 7 unknown #
point $-1 -30.483386204788566 -25.575232201108989 7.2645929193579457 #
point $-1 -30.483386204788566 -20.172163567997178 7.2645929193579466 #
edge $-1 $201 1 $201 0 $115 $-1 forward 7 unknown #
vertex $-1 $116 $202 #
ellipse-curve $-1 -39.606390157585579 -20.103534627929783 1.7699688859256928 0 -0.74314483375859142 0.66913059716165679 1 0 0 1 I I #
point $-1 -38.606390157585579 -22.873697884553081 4.2642350234761626 #
edge $-1 $203 1 $203 0 $119 $-1 forward 7 unknown #
vertex $-1 $120 $204 #
ellipse-curve $-1 -34.132587785907376 -20.103534627929783 1.7699688859256928 0 -0.74314483375859142 0.66913059716165679 1 0 0 1 I I #
point $-1 -33.132587785907376 -22.873697884553081 4.2642350234761626 #
plane-surface $-1 59.059419537949765 0 0 -1 0 0 0 0 1 forward_v I I I I #
coedge $-1 $128 $126 $130 $181 reversed $81 $-1 #
edge $-1 $141 -7.2645929193579457 $183 7.2645929193579457 $140 $205 forward 7 unknown #
vertex $-1 $181 $206 #
straight-curve $-1 -59.059419537949765 -25.575232201108989 0 0 0 -1 I I #
edge $-1 $179 -25.575232201108989 $183 25.575232201108989 $177 $207 forward 7 unknown #
straight-curve $-1 0 -25.575232201108989 -7.2645929193579457 -1 0 0 I I #
vertex $-1 $133 $208 #
straight-curve $-1 0 25.575232201108989 -7.2645929193579457 1 0 0 I I #
point $-1 59.059419537949765 25.575232201108989 -7.2645929193579457 #
point $-1 59.059419537949765 -25.575232201108989 -7.2645929193579457 #
straight-curve $-1 -59.059419537949765 0 7.2645929193579457 0 -1 0 I I #
point $-1 -59.059419537949765 25.575232201108989 7.2645929193579457 #
point $-1 -59.059419537949765 -25.575232201108989 7.2645929193579457 #
straight-curve $-1 59.059419537949765 -25.575232201108989 0 0 0 -1 I I #
straight-curve $-1 59.059419537949765 25.575232201108989 0 0 0 -1 I I #
edge $-1 $193 32.885810307888391 $196 38.886526099651952 $151 $209 forward 7 unknown #
vertex $-1 $165 $210 #
straight-curve $-1 -43.255591738704389 -56.677318614963077 7.2645929193579448 0 -1 0 I I #
edge $-1 $196 -24.82084725283115 $162 -12.048641718915327 $161 $211 forward 7 unknown #
vertex $-1 $195 $212 #
straight-curve $-1 -43.255591738704389 -25.575232201108989 1.2638771275943839 0 0.66913059716165679 0.74314483375859142 I I #
point $-1 -43.255591738704389 -20.172163567997178 7.2645929193579466 #
point $-1 -30.483386204788566 -25.575232201108989 1.2638771275943839 #
straight-curve $-1 0 -25.575232201108989 7.2645929193579457 1 0 0 I I #
vertex $-1 $168 $213 #
point $-1 -38.606390157585579 -20.103534627929783 1.7699688859256928 #
vertex $-1 $172 $214 #
point $-1 -33.132587785907376 -20.103534627929783 1.7699688859256928 #
straight-curve $-1 -59.059419537949765 25.575232201108989 0 0 0 -1 I I #
point $-1 -59.059419537949765 -25.575232201108989 -7.2645929193579457 #
straight-curve $-1 -59.059419537949765 0 -7.2645929193579457 0 1 0 I I #
point $-1 -59.059419537949765 25.575232201108989 -7.2645929193579457 #
straight-curve $-1 -43.255591738704389 -25.575232201108989 40.150403227246336 0 0 -1 I I #
point $-1 -43.255591738704389 -25.575232201108989 7.2645929193579457 #
straight-curve $-1 -18.434744485873239 -25.575232201108989 1.2638771275943836 1 0 0 I I #
point $-1 -43.255591738704389 -25.575232201108989 1.2638771275943839 #
point $-1 -39.606390157585579 -19.360389794171191 1.1008382887640358 #
point $-1 -34.132587785907376 -19.360389794171191 1.1008382887640358 #
End-of-ACIS-data 