500 0 18 0           
7 Unknown 11 ACIS 5.0 NT 24 Thu Mar 25 17:23:06 1999 
-1 9.9999999999999995e-007 1e-010 
body $-1 $18 $-1 $19 #
body $-1 $20 $-1 $21 #
body $-1 $22 $-1 $23 #
body $-1 $24 $-1 $25 #
body $-1 $26 $-1 $27 #
body $-1 $28 $-1 $29 #
body $-1 $30 $-1 $31 #
body $-1 $32 $-1 $33 #
body $-1 $34 $-1 $35 #
body $-1 $36 $-1 $37 #
body $-1 $38 $-1 $39 #
body $-1 $40 $-1 $41 #
body $-1 $42 $-1 $43 #
body $-1 $44 $-1 $45 #
body $-1 $46 $-1 $47 #
body $-1 $48 $-1 $49 #
body $-1 $50 $-1 $51 #
body $-1 $52 $-1 $53 #
lump $-1 $-1 $54 $0 #
transform $-1 1 0 0 0 1 0 0 0 1 61.054109317300941 40.307972534541086 15.385966566233487 1 rotate no_reflect no_shear #
lump $-1 $-1 $55 $1 #
transform $-1 1 0 0 0 1 0 0 0 1 61.054109317300941 6.2836837777027839 28.710719794785916 1 rotate no_reflect no_shear #
lump $-1 $-1 $56 $2 #
transform $-1 0.81915203911291934 0 0.57357644374324357 0 1 0 -0.57357644374324357 0 0.81915203911291934 -70.038397796257428 19.582391511930368 127.65084294033318 1 rotate no_reflect no_shear #
lump $-1 $-1 $57 $3 #
transform $-1 0.81915203911291934 0 0.57357644374324357 0 -1 0 0.57357644374324357 0 -0.81915203911291934 4.7320946555882788 15.373377138015488 25.649251886700391 1 rotate no_reflect no_shear #
lump $-1 $-1 $58 $4 #
transform $-1 0.81915203911291934 0 0.57357644374324357 0 -1 0 0.57357644374324357 0 -0.81915203911291934 4.7320946555882788 19.582391511930368 25.649251886700391 1 rotate no_reflect no_shear #
lump $-1 $-1 $59 $5 #
transform $-1 0.81915203911291934 0 0.57357644374324357 0 -1 0 0.57357644374324357 0 -0.81915203911291934 4.7320946555882788 23.791405885845251 25.649251886700391 1 rotate no_reflect no_shear #
lump $-1 $-1 $60 $6 #
transform $-1 0.81915203911291934 0 0.57357644374324357 0 1 0 -0.57357644374324357 0 0.81915203911291934 -70.038397796257428 53.60668026876867 127.65084294033318 1 rotate no_reflect no_shear #
lump $-1 $-1 $61 $7 #
transform $-1 0.81915203911291934 0 0.57357644374324357 0 -1 0 0.57357644374324357 0 -0.81915203911291934 4.7320946555882788 49.397665894853787 25.649251886700391 1 rotate no_reflect no_shear #
lump $-1 $-1 $62 $8 #
transform $-1 0.81915203911291934 0 0.57357644374324357 0 -1 0 0.57357644374324357 0 -0.81915203911291934 4.7320946555882788 53.60668026876867 25.649251886700391 1 rotate no_reflect no_shear #
lump $-1 $-1 $63 $9 #
transform $-1 0.81915203911291934 0 0.57357644374324357 0 -1 0 0.57357644374324357 0 -0.81915203911291934 4.7320946555882788 57.815694642683553 25.649251886700391 1 rotate no_reflect no_shear #
lump $-1 $-1 $64 $10 #
transform $-1 0.83867056331134215 0 -0.54463904215088732 0 1 0 0.54463904215088732 0 0.83867056331134215 86.204553363276503 20.612709942374959 184.80671597078444 1 rotate no_reflect no_shear #
lump $-1 $-1 $65 $11 #
transform $-1 0.83867056331134215 0 -0.54463904215088732 0 -1 0 -0.54463904215088732 0 -0.83867056331134215 108.68176749802612 20.612709942374963 20.297722044853877 1 rotate no_reflect no_shear #
lump $-1 $-1 $66 $12 #
transform $-1 0.83867056331134215 0 -0.54463904215088732 0 1 0 0.54463904215088732 0 0.83867056331134215 86.204553363276503 37.932007522287563 184.80671597078444 1 rotate no_reflect no_shear #
lump $-1 $-1 $67 $13 #
transform $-1 0.83867056331134215 0 -0.54463904215088732 0 -1 0 -0.54463904215088732 0 -0.83867056331134215 108.68176749802612 37.93200752228757 20.297722044853877 1 rotate no_reflect no_shear #
lump $-1 $-1 $68 $14 #
transform $-1 0.83867056331134215 0 -0.54463904215088732 0 1 0 0.54463904215088732 0 0.83867056331134215 86.204553363276503 55.25130510220017 184.80671597078444 1 rotate no_reflect no_shear #
lump $-1 $-1 $69 $15 #
transform $-1 0.83867056331134215 0 -0.54463904215088732 0 -1 0 -0.54463904215088732 0 -0.83867056331134215 108.68176749802612 55.251305102200178 20.297722044853877 1 rotate no_reflect no_shear #
lump $-1 $-1 $70 $16 #
transform $-1 0.83867056331134215 0 -0.54463904215088732 0 1 0 0.54463904215088732 0 0.83867056331134215 86.204553363276503 72.570602682112778 184.80671597078444 1 rotate no_reflect no_shear #
lump $-1 $-1 $71 $17 #
transform $-1 0.83867056331134215 0 -0.54463904215088732 0 -1 0 -0.54463904215088732 0 -0.83867056331134215 108.68176749802612 72.570602682112792 20.297722044853877 1 rotate no_reflect no_shear #
shell $-1 $-1 $-1 $72 $-1 $18 #
shell $-1 $-1 $-1 $73 $-1 $20 #
shell $-1 $-1 $-1 $74 $-1 $22 #
shell $-1 $-1 $-1 $75 $-1 $24 #
shell $-1 $-1 $-1 $76 $-1 $26 #
shell $-1 $-1 $-1 $77 $-1 $28 #
shell $-1 $-1 $-1 $78 $-1 $30 #
shell $-1 $-1 $-1 $79 $-1 $32 #
shell $-1 $-1 $-1 $80 $-1 $34 #
shell $-1 $-1 $-1 $81 $-1 $36 #
shell $-1 $-1 $-1 $82 $-1 $38 #
shell $-1 $-1 $-1 $83 $-1 $40 #
shell $-1 $-1 $-1 $84 $-1 $42 #
shell $-1 $-1 $-1 $85 $-1 $44 #
shell $-1 $-1 $-1 $86 $-1 $46 #
shell $-1 $-1 $-1 $87 $-1 $48 #
shell $-1 $-1 $-1 $88 $-1 $50 #
shell $-1 $-1 $-1 $89 $-1 $52 #
face $-1 $90 $91 $54 $-1 $92 forward single #
face $-1 $93 $94 $55 $-1 $95 forward single #
face $-1 $96 $97 $56 $-1 $98 forward single #
face $-1 $99 $100 $57 $-1 $101 forward single #
face $-1 $102 $103 $58 $-1 $104 forward single #
face $-1 $105 $106 $59 $-1 $107 forward single #
face $-1 $108 $109 $60 $-1 $110 forward single #
face $-1 $111 $112 $61 $-1 $113 forward single #
face $-1 $114 $115 $62 $-1 $116 forward single #
face $-1 $117 $118 $63 $-1 $119 forward single #
face $-1 $120 $121 $64 $-1 $122 forward single #
face $-1 $123 $124 $65 $-1 $125 forward single #
face $-1 $126 $127 $66 $-1 $128 forward single #
face $-1 $129 $130 $67 $-1 $131 forward single #
face $-1 $132 $133 $68 $-1 $134 forward single #
face $-1 $135 $136 $69 $-1 $137 forward single #
face $-1 $138 $139 $70 $-1 $140 forward single #
face $-1 $141 $142 $71 $-1 $143 forward single #
face $-1 $144 $145 $54 $-1 $146 reversed single #
loop $-1 $-1 $147 $72 #
plane-surface $-1 0 0 15.385966566233487 0 0 1 1 0 0 forward_v I I I I #
face $-1 $148 $149 $55 $-1 $150 reversed single #
loop $-1 $-1 $151 $73 #
plane-surface $-1 0 0 2.0612133376810551 0 0 1 1 0 0 forward_v I I I I #
face $-1 $152 $153 $56 $-1 $154 reversed single #
loop $-1 $-1 $155 $74 #
plane-surface $-1 0 0 122.1082186346019 0 0 1 1 0 0 forward_v I I I I #
face $-1 $156 $157 $57 $-1 $158 forward single #
loop $-1 $159 $160 $75 #
cone-surface $-1 0 0 -2.4165929136020985 0 0 1 1 0 0 1 I I 0 1 1 forward I I I I #
face $-1 $161 $162 $58 $-1 $163 forward single #
loop $-1 $164 $165 $76 #
cone-surface $-1 0 0 -2.4165929136020985 0 0 1 1 0 0 1 I I 0 1 1 forward I I I I #
face $-1 $166 $167 $59 $-1 $168 forward single #
loop $-1 $169 $170 $77 #
cone-surface $-1 0 0 -2.4165929136020985 0 0 1 1 0 0 1 I I 0 1 1 forward I I I I #
face $-1 $171 $172 $60 $-1 $173 reversed single #
loop $-1 $-1 $174 $78 #
plane-surface $-1 0 0 122.1082186346019 0 0 1 1 0 0 forward_v I I I I #
face $-1 $175 $176 $61 $-1 $177 forward single #
loop $-1 $178 $179 $79 #
cone-surface $-1 0 0 -2.4165929136020985 0 0 1 1 0 0 1 I I 0 1 1 forward I I I I #
face $-1 $180 $181 $62 $-1 $182 forward single #
loop $-1 $183 $184 $80 #
cone-surface $-1 0 0 -2.4165929136020985 0 0 1 1 0 0 1 I I 0 1 1 forward I I I I #
face $-1 $185 $186 $63 $-1 $187 forward single #
loop $-1 $188 $189 $81 #
cone-surface $-1 0 0 -2.4165929136020985 0 0 1 1 0 0 1 I I 0 1 1 forward I I I I #
face $-1 $190 $191 $64 $-1 $192 reversed single #
loop $-1 $-1 $193 $82 #
plane-surface $-1 0 0 122.10821863460188 0 0 1 1 0 0 forward_v I I I I #
face $-1 $194 $195 $65 $-1 $196 forward single #
loop $-1 $197 $198 $83 #
cone-surface $-1 0 0 -2.1843317972350231 0 0 1 1.5 0 0 1 I I 0 1 1.5 forward I I I I #
face $-1 $199 $200 $66 $-1 $201 reversed single #
loop $-1 $-1 $202 $84 #
plane-surface $-1 0 0 122.10821863460188 0 0 1 1 0 0 forward_v I I I I #
face $-1 $203 $204 $67 $-1 $205 forward single #
loop $-1 $206 $207 $85 #
cone-surface $-1 0 0 -2.1843317972350231 0 0 1 1.5 0 0 1 I I 0 1 1.5 forward I I I I #
face $-1 $208 $209 $68 $-1 $210 reversed single #
loop $-1 $-1 $211 $86 #
plane-surface $-1 0 0 122.10821863460188 0 0 1 1 0 0 forward_v I I I I #
face $-1 $212 $213 $69 $-1 $214 forward single #
loop $-1 $215 $216 $87 #
cone-surface $-1 0 0 -2.1843317972350231 0 0 1 1.5 0 0 1 I I 0 1 1.5 forward I I I I #
face $-1 $217 $218 $70 $-1 $219 reversed single #
loop $-1 $-1 $220 $88 #
plane-surface $-1 0 0 122.10821863460188 0 0 1 1 0 0 forward_v I I I I #
face $-1 $221 $222 $71 $-1 $223 forward single #
loop $-1 $224 $225 $89 #
cone-surface $-1 0 0 -2.1843317972350231 0 0 1 1.5 0 0 1 I I 0 1 1.5 forward I I I I #
face $-1 $226 $227 $54 $-1 $228 reversed single #
loop $-1 $-1 $229 $90 #
plane-surface $-1 0 0 -15.385966566233487 0 0 1 1 0 0 forward_v I I I I #
coedge $-1 $230 $231 $232 $233 forward $91 $-1 #
face $-1 $234 $235 $55 $-1 $236 reversed single #
loop $-1 $-1 $237 $93 #
plane-surface $-1 0 0 -2.0612133376810551 0 0 1 1 0 0 forward_v I I I I #
coedge $-1 $238 $239 $240 $241 forward $94 $-1 #
face $-1 $242 $243 $56 $-1 $244 reversed single #
loop $-1 $-1 $245 $96 #
plane-surface $-1 0 0 -122.1082186346019 0 0 1 1 0 0 forward_v I I I I #
coedge $-1 $246 $247 $248 $249 forward $97 $-1 #
face $-1 $-1 $250 $57 $-1 $251 forward single #
loop $-1 $-1 $252 $99 #
plane-surface $-1 0 0 -4.3331858272041988 0 0 -1 -1 0 0 forward_v I I I I #
loop $-1 $-1 $253 $75 #
coedge $-1 $160 $160 $252 $254 reversed $100 $-1 #
face $-1 $-1 $255 $58 $-1 $256 forward single #
loop $-1 $-1 $257 $102 #
plane-surface $-1 0 0 -4.3331858272041988 0 0 -1 -1 0 0 forward_v I I I I #
loop $-1 $-1 $258 $76 #
coedge $-1 $165 $165 $257 $259 reversed $103 $-1 #
face $-1 $-1 $260 $59 $-1 $261 forward single #
loop $-1 $-1 $262 $105 #
plane-surface $-1 0 0 -4.3331858272041988 0 0 -1 -1 0 0 forward_v I I I I #
loop $-1 $-1 $263 $77 #
coedge $-1 $170 $170 $262 $264 reversed $106 $-1 #
face $-1 $265 $266 $60 $-1 $267 reversed single #
loop $-1 $-1 $268 $108 #
plane-surface $-1 0 0 -122.1082186346019 0 0 1 1 0 0 forward_v I I I I #
coedge $-1 $269 $270 $271 $272 forward $109 $-1 #
face $-1 $-1 $273 $61 $-1 $274 forward single #
loop $-1 $-1 $275 $111 #
plane-surface $-1 0 0 -4.3331858272041988 0 0 -1 -1 0 0 forward_v I I I I #
loop $-1 $-1 $276 $79 #
coedge $-1 $179 $179 $275 $277 reversed $112 $-1 #
face $-1 $-1 $278 $62 $-1 $279 forward single #
loop $-1 $-1 $280 $114 #
plane-surface $-1 0 0 -4.3331858272041988 0 0 -1 -1 0 0 forward_v I I I I #
loop $-1 $-1 $281 $80 #
coedge $-1 $184 $184 $280 $282 reversed $115 $-1 #
face $-1 $-1 $283 $63 $-1 $284 forward single #
loop $-1 $-1 $285 $117 #
plane-surface $-1 0 0 -4.3331858272041988 0 0 -1 -1 0 0 forward_v I I I I #
loop $-1 $-1 $286 $81 #
coedge $-1 $189 $189 $285 $287 reversed $118 $-1 #
face $-1 $288 $289 $64 $-1 $290 reversed single #
loop $-1 $-1 $291 $120 #
plane-surface $-1 0 0 -122.10821863460188 0 0 1 1 0 0 forward_v I I I I #
coedge $-1 $292 $293 $294 $295 forward $121 $-1 #
face $-1 $-1 $296 $65 $-1 $297 forward single #
loop $-1 $-1 $298 $123 #
plane-surface $-1 0 0 -3.6186635944700463 0 0 -1 -1 0 0 forward_v I I I I #
loop $-1 $-1 $299 $83 #
coedge $-1 $198 $198 $298 $300 reversed $124 $-1 #
face $-1 $301 $302 $66 $-1 $303 reversed single #
loop $-1 $-1 $304 $126 #
plane-surface $-1 0 0 -122.10821863460188 0 0 1 1 0 0 forward_v I I I I #
coedge $-1 $305 $306 $307 $308 forward $127 $-1 #
face $-1 $-1 $309 $67 $-1 $310 forward single #
loop $-1 $-1 $311 $129 #
plane-surface $-1 0 0 -3.6186635944700463 0 0 -1 -1 0 0 forward_v I I I I #
loop $-1 $-1 $312 $85 #
coedge $-1 $207 $207 $311 $313 reversed $130 $-1 #
face $-1 $314 $315 $68 $-1 $316 reversed single #
loop $-1 $-1 $317 $132 #
plane-surface $-1 0 0 -122.10821863460188 0 0 1 1 0 0 forward_v I I I I #
coedge $-1 $318 $319 $320 $321 forward $133 $-1 #
face $-1 $-1 $322 $69 $-1 $323 forward single #
loop $-1 $-1 $324 $135 #
plane-surface $-1 0 0 -3.6186635944700463 0 0 -1 -1 0 0 forward_v I I I I #
loop $-1 $-1 $325 $87 #
coedge $-1 $216 $216 $324 $326 reversed $136 $-1 #
face $-1 $327 $328 $70 $-1 $329 reversed single #
loop $-1 $-1 $330 $138 #
plane-surface $-1 0 0 -122.10821863460188 0 0 1 1 0 0 forward_v I I I I #
coedge $-1 $331 $332 $333 $334 forward $139 $-1 #
face $-1 $-1 $335 $71 $-1 $336 forward single #
loop $-1 $-1 $337 $141 #
plane-surface $-1 0 0 -3.6186635944700463 0 0 -1 -1 0 0 forward_v I I I I #
loop $-1 $-1 $338 $89 #
coedge $-1 $225 $225 $337 $339 reversed $142 $-1 #
face $-1 $340 $341 $54 $-1 $342 reversed single #
loop $-1 $-1 $343 $144 #
plane-surface $-1 0 -40.307972534541086 0 0 1 0 0 0 1 forward_v I I I I #
coedge $-1 $344 $345 $346 $347 forward $145 $-1 #
coedge $-1 $348 $147 $349 $350 forward $91 $-1 #
coedge $-1 $147 $348 $351 $352 forward $91 $-1 #
coedge $-1 $353 $354 $147 $233 reversed $355 $-1 #
edge $-1 $356 -40.307972534541086 $357 40.307972534541086 $232 $358 forward 7 unknown #
face $-1 $359 $360 $55 $-1 $361 reversed single #
loop $-1 $-1 $362 $148 #
plane-surface $-1 0 -6.2836837777027839 0 0 1 0 0 0 1 forward_v I I I I #
coedge $-1 $363 $364 $365 $366 forward $149 $-1 #
coedge $-1 $367 $151 $368 $369 forward $94 $-1 #
coedge $-1 $151 $367 $370 $371 forward $94 $-1 #
coedge $-1 $372 $373 $151 $241 reversed $374 $-1 #
edge $-1 $375 -6.2836837777027839 $376 6.2836837777027839 $240 $377 forward 7 unknown #
face $-1 $378 $379 $56 $-1 $380 reversed single #
loop $-1 $-1 $381 $152 #
plane-surface $-1 0 -7.0150239565248018 0 0 1 0 0 0 1 forward_v I I I I #
coedge $-1 $382 $383 $384 $385 forward $153 $-1 #
coedge $-1 $386 $155 $387 $388 forward $97 $-1 #
coedge $-1 $155 $386 $389 $390 forward $97 $-1 #
coedge $-1 $391 $392 $155 $249 reversed $393 $-1 #
edge $-1 $394 -7.0150239565248018 $395 7.0150239565248018 $248 $396 forward 7 unknown #
loop $-1 $397 $398 $156 #
cone-surface $-1 0 0 0 0 0 1 0.5 0 0 1 I I -0.70710678118654746 0.70710678118654746 0.5 forward I I I I #
coedge $-1 $252 $252 $160 $254 forward $157 $-1 #
coedge $-1 $253 $253 $398 $399 forward $159 $-1 #
edge $-1 $400 0 $400 6.2831853071796004 $252 $401 forward 7 unknown #
loop $-1 $402 $403 $161 #
cone-surface $-1 0 0 0 0 0 1 0.5 0 0 1 I I -0.70710678118654746 0.70710678118654746 0.5 forward I I I I #
coedge $-1 $257 $257 $165 $259 forward $162 $-1 #
coedge $-1 $258 $258 $403 $404 forward $164 $-1 #
edge $-1 $405 0 $405 6.2831853071796004 $257 $406 forward 7 unknown #
loop $-1 $407 $408 $166 #
cone-surface $-1 0 0 0 0 0 1 0.5 0 0 1 I I -0.70710678118654746 0.70710678118654746 0.5 forward I I I I #
coedge $-1 $262 $262 $170 $264 forward $167 $-1 #
coedge $-1 $263 $263 $408 $409 forward $169 $-1 #
edge $-1 $410 0 $410 6.2831853071796004 $262 $411 forward 7 unknown #
face $-1 $412 $413 $60 $-1 $414 reversed single #
loop $-1 $-1 $415 $171 #
plane-surface $-1 0 -7.0150239565248018 0 0 1 0 0 0 1 forward_v I I I I #
coedge $-1 $416 $417 $418 $419 forward $172 $-1 #
coedge $-1 $420 $174 $421 $422 forward $109 $-1 #
coedge $-1 $174 $420 $423 $424 forward $109 $-1 #
coedge $-1 $425 $426 $174 $272 reversed $427 $-1 #
edge $-1 $428 -7.0150239565248018 $429 7.0150239565248018 $271 $430 forward 7 unknown #
loop $-1 $431 $432 $175 #
cone-surface $-1 0 0 0 0 0 1 0.5 0 0 1 I I -0.70710678118654746 0.70710678118654746 0.5 forward I I I I #
coedge $-1 $275 $275 $179 $277 forward $176 $-1 #
coedge $-1 $276 $276 $432 $433 forward $178 $-1 #
edge $-1 $434 0 $434 6.2831853071796004 $275 $435 forward 7 unknown #
loop $-1 $436 $437 $180 #
cone-surface $-1 0 0 0 0 0 1 0.5 0 0 1 I I -0.70710678118654746 0.70710678118654746 0.5 forward I I I I #
coedge $-1 $280 $280 $184 $282 forward $181 $-1 #
coedge $-1 $281 $281 $437 $438 forward $183 $-1 #
edge $-1 $439 0 $439 6.2831853071796004 $280 $440 forward 7 unknown #
loop $-1 $441 $442 $185 #
cone-surface $-1 0 0 0 0 0 1 0.5 0 0 1 I I -0.70710678118654746 0.70710678118654746 0.5 forward I I I I #
coedge $-1 $285 $285 $189 $287 forward $186 $-1 #
coedge $-1 $286 $286 $442 $443 forward $188 $-1 #
edge $-1 $444 0 $444 6.2831853071796004 $285 $445 forward 7 unknown #
face $-1 $446 $447 $64 $-1 $448 reversed single #
loop $-1 $-1 $449 $190 #
plane-surface $-1 0 -5.7931213778752619 0 0 1 0 0 0 1 forward_v I I I I #
coedge $-1 $450 $451 $452 $453 forward $191 $-1 #
coedge $-1 $454 $193 $455 $456 forward $121 $-1 #
coedge $-1 $193 $454 $457 $458 forward $121 $-1 #
coedge $-1 $459 $460 $193 $295 reversed $461 $-1 #
edge $-1 $462 -5.7931213778752619 $463 5.7931213778752619 $294 $464 forward 7 unknown #
loop $-1 $465 $466 $194 #
cone-surface $-1 0 0 0 0 0 1 0.75 0 0 1 I I -0.70710678118654757 0.70710678118654757 0.75 forward I I I I #
coedge $-1 $298 $298 $198 $300 forward $195 $-1 #
coedge $-1 $299 $299 $466 $467 forward $197 $-1 #
edge $-1 $468 0 $468 6.2831853071796004 $298 $469 forward 7 unknown #
face $-1 $470 $471 $66 $-1 $472 reversed single #
loop $-1 $-1 $473 $199 #
plane-surface $-1 0 -5.7931213778752619 0 0 1 0 0 0 1 forward_v I I I I #
coedge $-1 $474 $475 $476 $477 forward $200 $-1 #
coedge $-1 $478 $202 $479 $480 forward $127 $-1 #
coedge $-1 $202 $478 $481 $482 forward $127 $-1 #
coedge $-1 $483 $484 $202 $308 reversed $485 $-1 #
edge $-1 $486 -5.7931213778752619 $487 5.7931213778752619 $307 $488 forward 7 unknown #
loop $-1 $489 $490 $203 #
cone-surface $-1 0 0 0 0 0 1 0.75 0 0 1 I I -0.70710678118654757 0.70710678118654757 0.75 forward I I I I #
coedge $-1 $311 $311 $207 $313 forward $204 $-1 #
coedge $-1 $312 $312 $490 $491 forward $206 $-1 #
edge $-1 $492 0 $492 6.2831853071796004 $311 $493 forward 7 unknown #
face $-1 $494 $495 $68 $-1 $496 reversed single #
loop $-1 $-1 $497 $208 #
plane-surface $-1 0 -5.7931213778752619 0 0 1 0 0 0 1 forward_v I I I I #
coedge $-1 $498 $499 $500 $501 forward $209 $-1 #
coedge $-1 $502 $211 $503 $504 forward $133 $-1 #
coedge $-1 $211 $502 $505 $506 forward $133 $-1 #
coedge $-1 $507 $508 $211 $321 reversed $509 $-1 #
edge $-1 $510 -5.7931213778752619 $511 5.7931213778752619 $320 $512 forward 7 unknown #
loop $-1 $513 $514 $212 #
cone-surface $-1 0 0 0 0 0 1 0.75 0 0 1 I I -0.70710678118654757 0.70710678118654757 0.75 forward I I I I #
coedge $-1 $324 $324 $216 $326 forward $213 $-1 #
coedge $-1 $325 $325 $514 $515 forward $215 $-1 #
edge $-1 $516 0 $516 6.2831853071796004 $324 $517 forward 7 unknown #
face $-1 $518 $519 $70 $-1 $520 reversed single #
loop $-1 $-1 $521 $217 #
plane-surface $-1 0 -5.7931213778752619 0 0 1 0 0 0 1 forward_v I I I I #
coedge $-1 $522 $523 $524 $525 forward $218 $-1 #
coedge $-1 $526 $220 $527 $528 forward $139 $-1 #
coedge $-1 $220 $526 $529 $530 forward $139 $-1 #
coedge $-1 $531 $532 $220 $334 reversed $533 $-1 #
edge $-1 $534 -5.7931213778752619 $535 5.7931213778752619 $333 $536 forward 7 unknown #
loop $-1 $537 $538 $221 #
cone-surface $-1 0 0 0 0 0 1 0.75 0 0 1 I I -0.70710678118654757 0.70710678118654757 0.75 forward I I I I #
coedge $-1 $337 $337 $225 $339 forward $222 $-1 #
coedge $-1 $338 $338 $538 $539 forward $224 $-1 #
edge $-1 $540 0 $540 6.2831853071796004 $337 $541 forward 7 unknown #
face $-1 $542 $543 $54 $-1 $544 reversed single #
loop $-1 $-1 $545 $226 #
plane-surface $-1 -61.054109317300941 0 0 1 0 0 0 0 -1 forward_v I I I I #
coedge $-1 $546 $351 $547 $548 forward $227 $-1 #
coedge $-1 $549 $229 $546 $550 forward $145 $-1 #
coedge $-1 $229 $549 $551 $552 forward $145 $-1 #
coedge $-1 $354 $353 $229 $347 reversed $355 $-1 #
edge $-1 $553 -40.307972534541086 $554 40.307972534541086 $346 $555 forward 7 unknown #
coedge $-1 $231 $230 $556 $557 forward $91 $-1 #
coedge $-1 $558 $559 $230 $350 reversed $543 $-1 #
edge $-1 $357 -61.054109317300941 $560 61.054109317300941 $349 $561 forward 7 unknown #
coedge $-1 $343 $562 $231 $352 reversed $227 $-1 #
edge $-1 $563 -61.054109317300941 $356 61.054109317300941 $351 $564 forward 7 unknown #
coedge $-1 $346 $232 $562 $565 forward $355 $-1 #
coedge $-1 $232 $346 $558 $566 reversed $355 $-1 #
loop $-1 $-1 $353 $542 #
vertex $-1 $233 $567 #
vertex $-1 $233 $568 #
straight-curve $-1 61.054109317300941 0 15.385966566233487 0 1 0 I I #
face $-1 $569 $570 $55 $-1 $571 reversed single #
loop $-1 $-1 $572 $234 #
plane-surface $-1 -61.054109317300941 0 0 1 0 0 0 0 -1 forward_v I I I I #
coedge $-1 $573 $370 $574 $575 forward $235 $-1 #
coedge $-1 $576 $237 $573 $577 forward $149 $-1 #
coedge $-1 $237 $576 $578 $579 forward $149 $-1 #
coedge $-1 $373 $372 $237 $366 reversed $374 $-1 #
edge $-1 $580 -6.2836837777027839 $581 6.2836837777027839 $365 $582 forward 7 unknown #
coedge $-1 $239 $238 $583 $584 forward $94 $-1 #
coedge $-1 $585 $586 $238 $369 reversed $570 $-1 #
edge $-1 $376 -61.054109317300941 $587 61.054109317300941 $368 $588 forward 7 unknown #
coedge $-1 $362 $589 $239 $371 reversed $235 $-1 #
edge $-1 $590 -61.054109317300941 $375 61.054109317300941 $370 $591 forward 7 unknown #
coedge $-1 $365 $240 $589 $592 forward $374 $-1 #
coedge $-1 $240 $365 $585 $593 reversed $374 $-1 #
loop $-1 $-1 $372 $569 #
vertex $-1 $241 $594 #
vertex $-1 $241 $595 #
straight-curve $-1 61.054109317300941 0 2.0612133376810551 0 1 0 I I #
face $-1 $596 $597 $56 $-1 $598 reversed single #
loop $-1 $-1 $599 $242 #
plane-surface $-1 -244.21643726920377 0 0 1 0 0 0 0 -1 forward_v I I I I #
coedge $-1 $600 $389 $601 $602 forward $243 $-1 #
coedge $-1 $603 $245 $600 $604 forward $153 $-1 #
coedge $-1 $245 $603 $605 $606 forward $153 $-1 #
coedge $-1 $392 $391 $245 $385 reversed $393 $-1 #
edge $-1 $607 -7.0150239565248018 $608 7.0150239565248018 $384 $609 forward 7 unknown #
coedge $-1 $247 $246 $610 $611 forward $97 $-1 #
coedge $-1 $612 $613 $246 $388 reversed $597 $-1 #
edge $-1 $395 -244.21643726920377 $614 244.21643726920377 $387 $615 forward 7 unknown #
coedge $-1 $381 $616 $247 $390 reversed $243 $-1 #
edge $-1 $617 -244.21643726920377 $394 244.21643726920377 $389 $618 forward 7 unknown #
coedge $-1 $384 $248 $616 $619 forward $393 $-1 #
coedge $-1 $248 $384 $612 $620 reversed $393 $-1 #
loop $-1 $-1 $391 $596 #
vertex $-1 $249 $621 #
vertex $-1 $249 $622 #
straight-curve $-1 244.21643726920377 0 122.1082186346019 0 1 0 I I #
loop $-1 $-1 $623 $156 #
coedge $-1 $398 $398 $253 $399 reversed $250 $-1 #
edge $-1 $624 0 $624 6.2831853071796004 $398 $625 forward 7 unknown #
vertex $-1 $254 $626 #
ellipse-curve $-1 0 0 -4.3331858272041988 0 0 -1 1 0 0 1 I I #
loop $-1 $-1 $627 $161 #
coedge $-1 $403 $403 $258 $404 reversed $255 $-1 #
edge $-1 $628 0 $628 6.2831853071796004 $403 $629 forward 7 unknown #
vertex $-1 $259 $630 #
ellipse-curve $-1 0 0 -4.3331858272041988 0 0 -1 1 0 0 1 I I #
loop $-1 $-1 $631 $166 #
coedge $-1 $408 $408 $263 $409 reversed $260 $-1 #
edge $-1 $632 0 $632 6.2831853071796004 $408 $633 forward 7 unknown #
vertex $-1 $264 $634 #
ellipse-curve $-1 0 0 -4.3331858272041988 0 0 -1 1 0 0 1 I I #
face $-1 $635 $636 $60 $-1 $637 reversed single #
loop $-1 $-1 $638 $265 #
plane-surface $-1 -244.21643726920377 0 0 1 0 0 0 0 -1 forward_v I I I I #
coedge $-1 $639 $423 $640 $641 forward $266 $-1 #
coedge $-1 $642 $268 $639 $643 forward $172 $-1 #
coedge $-1 $268 $642 $644 $645 forward $172 $-1 #
coedge $-1 $426 $425 $268 $419 reversed $427 $-1 #
edge $-1 $646 -7.0150239565248018 $647 7.0150239565248018 $418 $648 forward 7 unknown #
coedge $-1 $270 $269 $649 $650 forward $109 $-1 #
coedge $-1 $651 $652 $269 $422 reversed $636 $-1 #
edge $-1 $429 -244.21643726920377 $653 244.21643726920377 $421 $654 forward 7 unknown #
coedge $-1 $415 $655 $270 $424 reversed $266 $-1 #
edge $-1 $656 -244.21643726920377 $428 244.21643726920377 $423 $657 forward 7 unknown #
coedge $-1 $418 $271 $655 $658 forward $427 $-1 #
coedge $-1 $271 $418 $651 $659 reversed $427 $-1 #
loop $-1 $-1 $425 $635 #
vertex $-1 $272 $660 #
vertex $-1 $272 $661 #
straight-curve $-1 244.21643726920377 0 122.1082186346019 0 1 0 I I #
loop $-1 $-1 $662 $175 #
coedge $-1 $432 $432 $276 $433 reversed $273 $-1 #
edge $-1 $663 0 $663 6.2831853071796004 $432 $664 forward 7 unknown #
vertex $-1 $277 $665 #
ellipse-curve $-1 0 0 -4.3331858272041988 0 0 -1 1 0 0 1 I I #
loop $-1 $-1 $666 $180 #
coedge $-1 $437 $437 $281 $438 reversed $278 $-1 #
edge $-1 $667 0 $667 6.2831853071796004 $437 $668 forward 7 unknown #
vertex $-1 $282 $669 #
ellipse-curve $-1 0 0 -4.3331858272041988 0 0 -1 1 0 0 1 I I #
loop $-1 $-1 $670 $185 #
coedge $-1 $442 $442 $286 $443 reversed $283 $-1 #
edge $-1 $671 0 $671 6.2831853071796004 $442 $672 forward 7 unknown #
vertex $-1 $287 $673 #
ellipse-curve $-1 0 0 -4.3331858272041988 0 0 -1 1 0 0 1 I I #
face $-1 $674 $675 $64 $-1 $676 reversed single #
loop $-1 $-1 $677 $288 #
plane-surface $-1 -244.21643726920377 0 0 1 0 0 0 0 -1 forward_v I I I I #
coedge $-1 $678 $457 $679 $680 forward $289 $-1 #
coedge $-1 $681 $291 $678 $682 forward $191 $-1 #
coedge $-1 $291 $681 $683 $684 forward $191 $-1 #
coedge $-1 $460 $459 $291 $453 reversed $461 $-1 #
edge $-1 $685 -5.7931213778752619 $686 5.7931213778752619 $452 $687 forward 7 unknown #
coedge $-1 $293 $292 $688 $689 forward $121 $-1 #
coedge $-1 $690 $691 $292 $456 reversed $675 $-1 #
edge $-1 $463 -244.21643726920377 $692 244.21643726920377 $455 $693 forward 7 unknown #
coedge $-1 $449 $694 $293 $458 reversed $289 $-1 #
edge $-1 $695 -244.21643726920377 $462 244.21643726920377 $457 $696 forward 7 unknown #
coedge $-1 $452 $294 $694 $697 forward $461 $-1 #
coedge $-1 $294 $452 $690 $698 reversed $461 $-1 #
loop $-1 $-1 $459 $674 #
vertex $-1 $295 $699 #
vertex $-1 $295 $700 #
straight-curve $-1 244.21643726920377 0 122.10821863460188 0 1 0 I I #
loop $-1 $-1 $701 $194 #
coedge $-1 $466 $466 $299 $467 reversed $296 $-1 #
edge $-1 $702 0 $702 6.2831853071796004 $466 $703 forward 7 unknown #
vertex $-1 $300 $704 #
ellipse-curve $-1 0 0 -3.6186635944700463 0 0 -1 1.5 0 0 1 I I #
face $-1 $705 $706 $66 $-1 $707 reversed single #
loop $-1 $-1 $708 $301 #
plane-surface $-1 -244.21643726920377 0 0 1 0 0 0 0 -1 forward_v I I I I #
coedge $-1 $709 $481 $710 $711 forward $302 $-1 #
coedge $-1 $712 $304 $709 $713 forward $200 $-1 #
coedge $-1 $304 $712 $714 $715 forward $200 $-1 #
coedge $-1 $484 $483 $304 $477 reversed $485 $-1 #
edge $-1 $716 -5.7931213778752619 $717 5.7931213778752619 $476 $718 forward 7 unknown #
coedge $-1 $306 $305 $719 $720 forward $127 $-1 #
coedge $-1 $721 $722 $305 $480 reversed $706 $-1 #
edge $-1 $487 -244.21643726920377 $723 244.21643726920377 $479 $724 forward 7 unknown #
coedge $-1 $473 $725 $306 $482 reversed $302 $-1 #
edge $-1 $726 -244.21643726920377 $486 244.21643726920377 $481 $727 forward 7 unknown #
coedge $-1 $476 $307 $725 $728 forward $485 $-1 #
coedge $-1 $307 $476 $721 $729 reversed $485 $-1 #
loop $-1 $-1 $483 $705 #
vertex $-1 $308 $730 #
vertex $-1 $308 $731 #
straight-curve $-1 244.21643726920377 0 122.10821863460188 0 1 0 I I #
loop $-1 $-1 $732 $203 #
coedge $-1 $490 $490 $312 $491 reversed $309 $-1 #
edge $-1 $733 0 $733 6.2831853071796004 $490 $734 forward 7 unknown #
vertex $-1 $313 $735 #
ellipse-curve $-1 0 0 -3.6186635944700463 0 0 -1 1.5 0 0 1 I I #
face $-1 $736 $737 $68 $-1 $738 reversed single #
loop $-1 $-1 $739 $314 #
plane-surface $-1 -244.21643726920377 0 0 1 0 0 0 0 -1 forward_v I I I I #
coedge $-1 $740 $505 $741 $742 forward $315 $-1 #
coedge $-1 $743 $317 $740 $744 forward $209 $-1 #
coedge $-1 $317 $743 $745 $746 forward $209 $-1 #
coedge $-1 $508 $507 $317 $501 reversed $509 $-1 #
edge $-1 $747 -5.7931213778752619 $748 5.7931213778752619 $500 $749 forward 7 unknown #
coedge $-1 $319 $318 $750 $751 forward $133 $-1 #
coedge $-1 $752 $753 $318 $504 reversed $737 $-1 #
edge $-1 $511 -244.21643726920377 $754 244.21643726920377 $503 $755 forward 7 unknown #
coedge $-1 $497 $756 $319 $506 reversed $315 $-1 #
edge $-1 $757 -244.21643726920377 $510 244.21643726920377 $505 $758 forward 7 unknown #
coedge $-1 $500 $320 $756 $759 forward $509 $-1 #
coedge $-1 $320 $500 $752 $760 reversed $509 $-1 #
loop $-1 $-1 $507 $736 #
vertex $-1 $321 $761 #
vertex $-1 $321 $762 #
straight-curve $-1 244.21643726920377 0 122.10821863460188 0 1 0 I I #
loop $-1 $-1 $763 $212 #
coedge $-1 $514 $514 $325 $515 reversed $322 $-1 #
edge $-1 $764 0 $764 6.2831853071796004 $514 $765 forward 7 unknown #
vertex $-1 $326 $766 #
ellipse-curve $-1 0 0 -3.6186635944700463 0 0 -1 1.5 0 0 1 I I #
face $-1 $767 $768 $70 $-1 $769 reversed single #
loop $-1 $-1 $770 $327 #
plane-surface $-1 -244.21643726920377 0 0 1 0 0 0 0 -1 forward_v I I I I #
coedge $-1 $771 $529 $772 $773 forward $328 $-1 #
coedge $-1 $774 $330 $771 $775 forward $218 $-1 #
coedge $-1 $330 $774 $776 $777 forward $218 $-1 #
coedge $-1 $532 $531 $330 $525 reversed $533 $-1 #
edge $-1 $778 -5.7931213778752619 $779 5.7931213778752619 $524 $780 forward 7 unknown #
coedge $-1 $332 $331 $781 $782 forward $139 $-1 #
coedge $-1 $783 $784 $331 $528 reversed $768 $-1 #
edge $-1 $535 -244.21643726920377 $785 244.21643726920377 $527 $786 forward 7 unknown #
coedge $-1 $521 $787 $332 $530 reversed $328 $-1 #
edge $-1 $788 -244.21643726920377 $534 244.21643726920377 $529 $789 forward 7 unknown #
coedge $-1 $524 $333 $787 $790 forward $533 $-1 #
coedge $-1 $333 $524 $783 $791 reversed $533 $-1 #
loop $-1 $-1 $531 $767 #
vertex $-1 $334 $792 #
vertex $-1 $334 $793 #
straight-curve $-1 244.21643726920377 0 122.10821863460188 0 1 0 I I #
loop $-1 $-1 $794 $221 #
coedge $-1 $538 $538 $338 $539 reversed $335 $-1 #
edge $-1 $795 0 $795 6.2831853071796004 $538 $796 forward 7 unknown #
vertex $-1 $339 $797 #
ellipse-curve $-1 0 0 -3.6186635944700463 0 0 -1 1.5 0 0 1 I I #
face $-1 $-1 $355 $54 $-1 $798 reversed single #
loop $-1 $-1 $558 $340 #
plane-surface $-1 0 40.307972534541086 0 0 -1 0 0 0 -1 forward_v I I I I #
coedge $-1 $799 $556 $559 $800 forward $341 $-1 #
coedge $-1 $562 $343 $344 $550 reversed $227 $-1 #
coedge $-1 $556 $799 $343 $548 reversed $341 $-1 #
edge $-1 $563 -15.385966566233487 $801 15.385966566233487 $547 $802 forward 7 unknown #
coedge $-1 $345 $344 $799 $803 forward $145 $-1 #
edge $-1 $554 -61.054109317300941 $801 61.054109317300941 $546 $804 forward 7 unknown #
coedge $-1 $559 $558 $345 $552 reversed $543 $-1 #
edge $-1 $805 -61.054109317300941 $553 61.054109317300941 $551 $806 forward 7 unknown #
vertex $-1 $347 $807 #
vertex $-1 $565 $808 #
straight-curve $-1 61.054109317300941 0 -15.385966566233487 0 -1 0 I I #
coedge $-1 $545 $547 $348 $557 reversed $341 $-1 #
edge $-1 $560 -40.307972534541086 $563 40.307972534541086 $556 $809 forward 7 unknown #
coedge $-1 $551 $349 $354 $566 forward $543 $-1 #
coedge $-1 $349 $551 $545 $800 reversed $543 $-1 #
vertex $-1 $350 $810 #
straight-curve $-1 0 40.307972534541086 15.385966566233487 -1 0 0 I I #
coedge $-1 $351 $546 $353 $565 reversed $227 $-1 #
vertex $-1 $557 $811 #
straight-curve $-1 0 -40.307972534541086 15.385966566233487 1 0 0 I I #
edge $-1 $356 -15.385966566233487 $554 15.385966566233487 $353 $812 forward 7 unknown #
edge $-1 $357 -15.385966566233487 $553 15.385966566233487 $354 $813 forward 7 unknown #
point $-1 61.054109317300941 -40.307972534541086 15.385966566233487 #
point $-1 61.054109317300941 40.307972534541086 15.385966566233487 #
face $-1 $-1 $374 $55 $-1 $814 reversed single #
loop $-1 $-1 $585 $359 #
plane-surface $-1 0 6.2836837777027839 0 0 -1 0 0 0 -1 forward_v I I I I #
coedge $-1 $815 $583 $586 $816 forward $360 $-1 #
coedge $-1 $589 $362 $363 $577 reversed $235 $-1 #
coedge $-1 $583 $815 $362 $575 reversed $360 $-1 #
edge $-1 $590 -2.0612133376810551 $817 2.0612133376810551 $574 $818 forward 7 unknown #
coedge $-1 $364 $363 $815 $819 forward $149 $-1 #
edge $-1 $581 -61.054109317300941 $817 61.054109317300941 $573 $820 forward 7 unknown #
coedge $-1 $586 $585 $364 $579 reversed $570 $-1 #
edge $-1 $821 -61.054109317300941 $580 61.054109317300941 $578 $822 forward 7 unknown #
vertex $-1 $366 $823 #
vertex $-1 $592 $824 #
straight-curve $-1 61.054109317300941 0 -2.0612133376810551 0 -1 0 I I #
coedge $-1 $572 $574 $367 $584 reversed $360 $-1 #
edge $-1 $587 -6.2836837777027839 $590 6.2836837777027839 $583 $825 forward 7 unknown #
coedge $-1 $578 $368 $373 $593 forward $570 $-1 #
coedge $-1 $368 $578 $572 $816 reversed $570 $-1 #
vertex $-1 $369 $826 #
straight-curve $-1 0 6.2836837777027839 2.0612133376810551 -1 0 0 I I #
coedge $-1 $370 $573 $372 $592 reversed $235 $-1 #
vertex $-1 $584 $827 #
straight-curve $-1 0 -6.2836837777027839 2.0612133376810551 1 0 0 I I #
edge $-1 $375 -2.0612133376810551 $581 2.0612133376810551 $372 $828 forward 7 unknown #
edge $-1 $376 -2.0612133376810551 $580 2.0612133376810551 $373 $829 forward 7 unknown #
point $-1 61.054109317300941 -6.2836837777027839 2.0612133376810551 #
point $-1 61.054109317300941 6.2836837777027839 2.0612133376810551 #
face $-1 $-1 $393 $56 $-1 $830 reversed single #
loop $-1 $-1 $612 $378 #
plane-surface $-1 0 7.0150239565248018 0 0 -1 0 0 0 -1 forward_v I I I I #
coedge $-1 $831 $610 $613 $832 forward $379 $-1 #
coedge $-1 $616 $381 $382 $604 reversed $243 $-1 #
coedge $-1 $610 $831 $381 $602 reversed $379 $-1 #
edge $-1 $617 -122.1082186346019 $833 122.1082186346019 $601 $834 forward 7 unknown #
coedge $-1 $383 $382 $831 $835 forward $153 $-1 #
edge $-1 $608 -244.21643726920377 $833 244.21643726920377 $600 $836 forward 7 unknown #
coedge $-1 $613 $612 $383 $606 reversed $597 $-1 #
edge $-1 $837 -244.21643726920377 $607 244.21643726920377 $605 $838 forward 7 unknown #
vertex $-1 $385 $839 #
vertex $-1 $619 $840 #
straight-curve $-1 244.21643726920377 0 -122.1082186346019 0 -1 0 I I #
coedge $-1 $599 $601 $386 $611 reversed $379 $-1 #
edge $-1 $614 -7.0150239565248018 $617 7.0150239565248018 $610 $841 forward 7 unknown #
coedge $-1 $605 $387 $392 $620 forward $597 $-1 #
coedge $-1 $387 $605 $599 $832 reversed $597 $-1 #
vertex $-1 $388 $842 #
straight-curve $-1 0 7.0150239565248018 122.1082186346019 -1 0 0 I I #
coedge $-1 $389 $600 $391 $619 reversed $243 $-1 #
vertex $-1 $611 $843 #
straight-curve $-1 0 -7.0150239565248018 122.1082186346019 1 0 0 I I #
edge $-1 $394 -122.1082186346019 $608 122.1082186346019 $391 $844 forward 7 unknown #
edge $-1 $395 -122.1082186346019 $607 122.1082186346019 $392 $845 forward 7 unknown #
point $-1 244.21643726920377 -7.0150239565248018 122.1082186346019 #
point $-1 244.21643726920377 7.0150239565248018 122.1082186346019 #
coedge $-1 $623 $623 $-1 $846 reversed $397 $-1 #
vertex $-1 $399 $847 #
ellipse-curve $-1 0 0 -0.5 0 0 -1 1 0 0 1 I I #
point $-1 1 0 -4.3331858272041988 #
coedge $-1 $627 $627 $-1 $848 reversed $402 $-1 #
vertex $-1 $404 $849 #
ellipse-curve $-1 0 0 -0.5 0 0 -1 1 0 0 1 I I #
point $-1 1 0 -4.3331858272041988 #
coedge $-1 $631 $631 $-1 $850 reversed $407 $-1 #
vertex $-1 $409 $851 #
ellipse-curve $-1 0 0 -0.5 0 0 -1 1 0 0 1 I I #
point $-1 1 0 -4.3331858272041988 #
face $-1 $-1 $427 $60 $-1 $852 reversed single #
loop $-1 $-1 $651 $412 #
plane-surface $-1 0 7.0150239565248018 0 0 -1 0 0 0 -1 forward_v I I I I #
coedge $-1 $853 $649 $652 $854 forward $413 $-1 #
coedge $-1 $655 $415 $416 $643 reversed $266 $-1 #
coedge $-1 $649 $853 $415 $641 reversed $413 $-1 #
edge $-1 $656 -122.1082186346019 $855 122.1082186346019 $640 $856 forward 7 unknown #
coedge $-1 $417 $416 $853 $857 forward $172 $-1 #
edge $-1 $647 -244.21643726920377 $855 244.21643726920377 $639 $858 forward 7 unknown #
coedge $-1 $652 $651 $417 $645 reversed $636 $-1 #
edge $-1 $859 -244.21643726920377 $646 244.21643726920377 $644 $860 forward 7 unknown #
vertex $-1 $419 $861 #
vertex $-1 $658 $862 #
straight-curve $-1 244.21643726920377 0 -122.1082186346019 0 -1 0 I I #
coedge $-1 $638 $640 $420 $650 reversed $413 $-1 #
edge $-1 $653 -7.0150239565248018 $656 7.0150239565248018 $649 $863 forward 7 unknown #
coedge $-1 $644 $421 $426 $659 forward $636 $-1 #
coedge $-1 $421 $644 $638 $854 reversed $636 $-1 #
vertex $-1 $422 $864 #
straight-curve $-1 0 7.0150239565248018 122.1082186346019 -1 0 0 I I #
coedge $-1 $423 $639 $425 $658 reversed $266 $-1 #
vertex $-1 $650 $865 #
straight-curve $-1 0 -7.0150239565248018 122.1082186346019 1 0 0 I I #
edge $-1 $428 -122.1082186346019 $647 122.1082186346019 $425 $866 forward 7 unknown #
edge $-1 $429 -122.1082186346019 $646 122.1082186346019 $426 $867 forward 7 unknown #
point $-1 244.21643726920377 -7.0150239565248018 122.1082186346019 #
point $-1 244.21643726920377 7.0150239565248018 122.1082186346019 #
coedge $-1 $662 $662 $-1 $868 reversed $431 $-1 #
vertex $-1 $433 $869 #
ellipse-curve $-1 0 0 -0.5 0 0 -1 1 0 0 1 I I #
point $-1 1 0 -4.3331858272041988 #
coedge $-1 $666 $666 $-1 $870 reversed $436 $-1 #
vertex $-1 $438 $871 #
ellipse-curve $-1 0 0 -0.5 0 0 -1 1 0 0 1 I I #
point $-1 1 0 -4.3331858272041988 #
coedge $-1 $670 $670 $-1 $872 reversed $441 $-1 #
vertex $-1 $443 $873 #
ellipse-curve $-1 0 0 -0.5 0 0 -1 1 0 0 1 I I #
point $-1 1 0 -4.3331858272041988 #
face $-1 $-1 $461 $64 $-1 $874 reversed single #
loop $-1 $-1 $690 $446 #
plane-surface $-1 0 5.7931213778752619 0 0 -1 0 0 0 -1 forward_v I I I I #
coedge $-1 $875 $688 $691 $876 forward $447 $-1 #
coedge $-1 $694 $449 $450 $682 reversed $289 $-1 #
coedge $-1 $688 $875 $449 $680 reversed $447 $-1 #
edge $-1 $695 -122.10821863460188 $877 122.10821863460188 $679 $878 forward 7 unknown #
coedge $-1 $451 $450 $875 $879 forward $191 $-1 #
edge $-1 $686 -244.21643726920377 $877 244.21643726920377 $678 $880 forward 7 unknown #
coedge $-1 $691 $690 $451 $684 reversed $675 $-1 #
edge $-1 $881 -244.21643726920377 $685 244.21643726920377 $683 $882 forward 7 unknown #
vertex $-1 $453 $883 #
vertex $-1 $697 $884 #
straight-curve $-1 244.21643726920377 0 -122.10821863460188 0 -1 0 I I #
coedge $-1 $677 $679 $454 $689 reversed $447 $-1 #
edge $-1 $692 -5.7931213778752619 $695 5.7931213778752619 $688 $885 forward 7 unknown #
coedge $-1 $683 $455 $460 $698 forward $675 $-1 #
coedge $-1 $455 $683 $677 $876 reversed $675 $-1 #
vertex $-1 $456 $886 #
straight-curve $-1 0 5.7931213778752619 122.10821863460188 -1 0 0 I I #
coedge $-1 $457 $678 $459 $697 reversed $289 $-1 #
vertex $-1 $689 $887 #
straight-curve $-1 0 -5.7931213778752619 122.10821863460188 1 0 0 I I #
edge $-1 $462 -122.10821863460188 $686 122.10821863460188 $459 $888 forward 7 unknown #
edge $-1 $463 -122.10821863460188 $685 122.10821863460188 $460 $889 forward 7 unknown #
point $-1 244.21643726920377 -5.7931213778752619 122.10821863460188 #
point $-1 244.21643726920377 5.7931213778752619 122.10821863460188 #
coedge $-1 $701 $701 $-1 $890 reversed $465 $-1 #
vertex $-1 $467 $891 #
ellipse-curve $-1 0 0 -0.75 0 0 -1 1.5 0 0 1 I I #
point $-1 1.5 0 -3.6186635944700463 #
face $-1 $-1 $485 $66 $-1 $892 reversed single #
loop $-1 $-1 $721 $470 #
plane-surface $-1 0 5.7931213778752619 0 0 -1 0 0 0 -1 forward_v I I I I #
coedge $-1 $893 $719 $722 $894 forward $471 $-1 #
coedge $-1 $725 $473 $474 $713 reversed $302 $-1 #
coedge $-1 $719 $893 $473 $711 reversed $471 $-1 #
edge $-1 $726 -122.10821863460188 $895 122.10821863460188 $710 $896 forward 7 unknown #
coedge $-1 $475 $474 $893 $897 forward $200 $-1 #
edge $-1 $717 -244.21643726920377 $895 244.21643726920377 $709 $898 forward 7 unknown #
coedge $-1 $722 $721 $475 $715 reversed $706 $-1 #
edge $-1 $899 -244.21643726920377 $716 244.21643726920377 $714 $900 forward 7 unknown #
vertex $-1 $477 $901 #
vertex $-1 $728 $902 #
straight-curve $-1 244.21643726920377 0 -122.10821863460188 0 -1 0 I I #
coedge $-1 $708 $710 $478 $720 reversed $471 $-1 #
edge $-1 $723 -5.7931213778752619 $726 5.7931213778752619 $719 $903 forward 7 unknown #
coedge $-1 $714 $479 $484 $729 forward $706 $-1 #
coedge $-1 $479 $714 $708 $894 reversed $706 $-1 #
vertex $-1 $480 $904 #
straight-curve $-1 0 5.7931213778752619 122.10821863460188 -1 0 0 I I #
coedge $-1 $481 $709 $483 $728 reversed $302 $-1 #
vertex $-1 $720 $905 #
straight-curve $-1 0 -5.7931213778752619 122.10821863460188 1 0 0 I I #
edge $-1 $486 -122.10821863460188 $717 122.10821863460188 $483 $906 forward 7 unknown #
edge $-1 $487 -122.10821863460188 $716 122.10821863460188 $484 $907 forward 7 unknown #
point $-1 244.21643726920377 -5.7931213778752619 122.10821863460188 #
point $-1 244.21643726920377 5.7931213778752619 122.10821863460188 #
coedge $-1 $732 $732 $-1 $908 reversed $489 $-1 #
vertex $-1 $491 $909 #
ellipse-curve $-1 0 0 -0.75 0 0 -1 1.5 0 0 1 I I #
point $-1 1.5 0 -3.6186635944700463 #
face $-1 $-1 $509 $68 $-1 $910 reversed single #
loop $-1 $-1 $752 $494 #
plane-surface $-1 0 5.7931213778752619 0 0 -1 0 0 0 -1 forward_v I I I I #
coedge $-1 $911 $750 $753 $912 forward $495 $-1 #
coedge $-1 $756 $497 $498 $744 reversed $315 $-1 #
coedge $-1 $750 $911 $497 $742 reversed $495 $-1 #
edge $-1 $757 -122.10821863460188 $913 122.10821863460188 $741 $914 forward 7 unknown #
coedge $-1 $499 $498 $911 $915 forward $209 $-1 #
edge $-1 $748 -244.21643726920377 $913 244.21643726920377 $740 $916 forward 7 unknown #
coedge $-1 $753 $752 $499 $746 reversed $737 $-1 #
edge $-1 $917 -244.21643726920377 $747 244.21643726920377 $745 $918 forward 7 unknown #
vertex $-1 $501 $919 #
vertex $-1 $759 $920 #
straight-curve $-1 244.21643726920377 0 -122.10821863460188 0 -1 0 I I #
coedge $-1 $739 $741 $502 $751 reversed $495 $-1 #
edge $-1 $754 -5.7931213778752619 $757 5.7931213778752619 $750 $921 forward 7 unknown #
coedge $-1 $745 $503 $508 $760 forward $737 $-1 #
coedge $-1 $503 $745 $739 $912 reversed $737 $-1 #
vertex $-1 $504 $922 #
straight-curve $-1 0 5.7931213778752619 122.10821863460188 -1 0 0 I I #
coedge $-1 $505 $740 $507 $759 reversed $315 $-1 #
vertex $-1 $751 $923 #
straight-curve $-1 0 -5.7931213778752619 122.10821863460188 1 0 0 I I #
edge $-1 $510 -122.10821863460188 $748 122.10821863460188 $507 $924 forward 7 unknown #
edge $-1 $511 -122.10821863460188 $747 122.10821863460188 $508 $925 forward 7 unknown #
point $-1 244.21643726920377 -5.7931213778752619 122.10821863460188 #
point $-1 244.21643726920377 5.7931213778752619 122.10821863460188 #
coedge $-1 $763 $763 $-1 $926 reversed $513 $-1 #
vertex $-1 $515 $927 #
ellipse-curve $-1 0 0 -0.75 0 0 -1 1.5 0 0 1 I I #
point $-1 1.5 0 -3.6186635944700463 #
face $-1 $-1 $533 $70 $-1 $928 reversed single #
loop $-1 $-1 $783 $518 #
plane-surface $-1 0 5.7931213778752619 0 0 -1 0 0 0 -1 forward_v I I I I #
coedge $-1 $929 $781 $784 $930 forward $519 $-1 #
coedge $-1 $787 $521 $522 $775 reversed $328 $-1 #
coedge $-1 $781 $929 $521 $773 reversed $519 $-1 #
edge $-1 $788 -122.10821863460188 $931 122.10821863460188 $772 $932 forward 7 unknown #
coedge $-1 $523 $522 $929 $933 forward $218 $-1 #
edge $-1 $779 -244.21643726920377 $931 244.21643726920377 $771 $934 forward 7 unknown #
coedge $-1 $784 $783 $523 $777 reversed $768 $-1 #
edge $-1 $935 -244.21643726920377 $778 244.21643726920377 $776 $936 forward 7 unknown #
vertex $-1 $525 $937 #
vertex $-1 $790 $938 #
straight-curve $-1 244.21643726920377 0 -122.10821863460188 0 -1 0 I I #
coedge $-1 $770 $772 $526 $782 reversed $519 $-1 #
edge $-1 $785 -5.7931213778752619 $788 5.7931213778752619 $781 $939 forward 7 unknown #
coedge $-1 $776 $527 $532 $791 forward $768 $-1 #
coedge $-1 $527 $776 $770 $930 reversed $768 $-1 #
vertex $-1 $528 $940 #
straight-curve $-1 0 5.7931213778752619 122.10821863460188 -1 0 0 I I #
coedge $-1 $529 $771 $531 $790 reversed $328 $-1 #
vertex $-1 $782 $941 #
straight-curve $-1 0 -5.7931213778752619 122.10821863460188 1 0 0 I I #
edge $-1 $534 -122.10821863460188 $779 122.10821863460188 $531 $942 forward 7 unknown #
edge $-1 $535 -122.10821863460188 $778 122.10821863460188 $532 $943 forward 7 unknown #
point $-1 244.21643726920377 -5.7931213778752619 122.10821863460188 #
point $-1 244.21643726920377 5.7931213778752619 122.10821863460188 #
coedge $-1 $794 $794 $-1 $944 reversed $537 $-1 #
vertex $-1 $539 $945 #
ellipse-curve $-1 0 0 -0.75 0 0 -1 1.5 0 0 1 I I #
point $-1 1.5 0 -3.6186635944700463 #
plane-surface $-1 61.054109317300941 0 0 -1 0 0 0 0 1 forward_v I I I I #
coedge $-1 $547 $545 $549 $803 reversed $341 $-1 #
edge $-1 $560 -15.385966566233487 $805 15.385966566233487 $559 $946 forward 7 unknown #
vertex $-1 $803 $947 #
straight-curve $-1 -61.054109317300941 -40.307972534541086 0 0 0 -1 I I #
edge $-1 $801 -40.307972534541086 $805 40.307972534541086 $799 $948 forward 7 unknown #
straight-curve $-1 0 -40.307972534541086 -15.385966566233487 -1 0 0 I I #
vertex $-1 $552 $949 #
straight-curve $-1 0 40.307972534541086 -15.385966566233487 1 0 0 I I #
point $-1 61.054109317300941 40.307972534541086 -15.385966566233487 #
point $-1 61.054109317300941 -40.307972534541086 -15.385966566233487 #
straight-curve $-1 -61.054109317300941 0 15.385966566233487 0 -1 0 I I #
point $-1 -61.054109317300941 40.307972534541086 15.385966566233487 #
point $-1 -61.054109317300941 -40.307972534541086 15.385966566233487 #
straight-curve $-1 61.054109317300941 -40.307972534541086 0 0 0 -1 I I #
straight-curve $-1 61.054109317300941 40.307972534541086 0 0 0 -1 I I #
plane-surface $-1 61.054109317300941 0 0 -1 0 0 0 0 1 forward_v I I I I #
coedge $-1 $574 $572 $576 $819 reversed $360 $-1 #
edge $-1 $587 -2.0612133376810551 $821 2.0612133376810551 $586 $950 forward 7 unknown #
vertex $-1 $819 $951 #
straight-curve $-1 -61.054109317300941 -6.2836837777027839 0 0 0 -1 I I #
edge $-1 $817 -6.2836837777027839 $821 6.2836837777027839 $815 $952 forward 7 unknown #
straight-curve $-1 0 -6.2836837777027839 -2.0612133376810551 -1 0 0 I I #
vertex $-1 $579 $953 #
straight-curve $-1 0 6.2836837777027839 -2.0612133376810551 1 0 0 I I #
point $-1 61.054109317300941 6.2836837777027839 -2.0612133376810551 #
point $-1 61.054109317300941 -6.2836837777027839 -2.0612133376810551 #
straight-curve $-1 -61.054109317300941 0 2.0612133376810551 0 -1 0 I I #
point $-1 -61.054109317300941 6.2836837777027839 2.0612133376810551 #
point $-1 -61.054109317300941 -6.2836837777027839 2.0612133376810551 #
straight-curve $-1 61.054109317300941 -6.2836837777027839 0 0 0 -1 I I #
straight-curve $-1 61.054109317300941 6.2836837777027839 0 0 0 -1 I I #
plane-surface $-1 244.21643726920377 0 0 -1 0 0 0 0 1 forward_v I I I I #
coedge $-1 $601 $599 $603 $835 reversed $379 $-1 #
edge $-1 $614 -122.1082186346019 $837 122.1082186346019 $613 $954 forward 7 unknown #
vertex $-1 $835 $955 #
straight-curve $-1 -244.21643726920377 -7.0150239565248018 0 0 0 -1 I I #
edge $-1 $833 -7.0150239565248018 $837 7.0150239565248018 $831 $956 forward 7 unknown #
straight-curve $-1 0 -7.0150239565248018 -122.1082186346019 -1 0 0 I I #
vertex $-1 $606 $957 #
straight-curve $-1 0 7.0150239565248018 -122.1082186346019 1 0 0 I I #
point $-1 244.21643726920377 7.0150239565248018 -122.1082186346019 #
point $-1 244.21643726920377 -7.0150239565248018 -122.1082186346019 #
straight-curve $-1 -244.21643726920377 0 122.1082186346019 0 -1 0 I I #
point $-1 -244.21643726920377 7.0150239565248018 122.1082186346019 #
point $-1 -244.21643726920377 -7.0150239565248018 122.1082186346019 #
straight-curve $-1 244.21643726920377 -7.0150239565248018 0 0 0 -1 I I #
straight-curve $-1 244.21643726920377 7.0150239565248018 0 0 0 -1 I I #
edge $-1 $958 1 $958 0 $623 $-1 forward 7 unknown #
point $-1 1 0 -0.5 #
edge $-1 $959 1 $959 0 $627 $-1 forward 7 unknown #
point $-1 1 0 -0.5 #
edge $-1 $960 1 $960 0 $631 $-1 forward 7 unknown #
point $-1 1 0 -0.5 #
plane-surface $-1 244.21643726920377 0 0 -1 0 0 0 0 1 forward_v I I I I #
coedge $-1 $640 $638 $642 $857 reversed $413 $-1 #
edge $-1 $653 -122.1082186346019 $859 122.1082186346019 $652 $961 forward 7 unknown #
vertex $-1 $857 $962 #
straight-curve $-1 -244.21643726920377 -7.0150239565248018 0 0 0 -1 I I #
edge $-1 $855 -7.0150239565248018 $859 7.0150239565248018 $853 $963 forward 7 unknown #
straight-curve $-1 0 -7.0150239565248018 -122.1082186346019 -1 0 0 I I #
vertex $-1 $645 $964 #
straight-curve $-1 0 7.0150239565248018 -122.1082186346019 1 0 0 I I #
point $-1 244.21643726920377 7.0150239565248018 -122.1082186346019 #
point $-1 244.21643726920377 -7.0150239565248018 -122.1082186346019 #
straight-curve $-1 -244.21643726920377 0 122.1082186346019 0 -1 0 I I #
point $-1 -244.21643726920377 7.0150239565248018 122.1082186346019 #
point $-1 -244.21643726920377 -7.0150239565248018 122.1082186346019 #
straight-curve $-1 244.21643726920377 -7.0150239565248018 0 0 0 -1 I I #
straight-curve $-1 244.21643726920377 7.0150239565248018 0 0 0 -1 I I #
edge $-1 $965 1 $965 0 $662 $-1 forward 7 unknown #
point $-1 1 0 -0.5 #
edge $-1 $966 1 $966 0 $666 $-1 forward 7 unknown #
point $-1 1 0 -0.5 #
edge $-1 $967 1 $967 0 $670 $-1 forward 7 unknown #
point $-1 1 0 -0.5 #
plane-surface $-1 244.21643726920377 0 0 -1 0 0 0 0 1 forward_v I I I I #
coedge $-1 $679 $677 $681 $879 reversed $447 $-1 #
edge $-1 $692 -122.10821863460188 $881 122.10821863460188 $691 $968 forward 7 unknown #
vertex $-1 $879 $969 #
straight-curve $-1 -244.21643726920377 -5.7931213778752619 0 0 0 -1 I I #
edge $-1 $877 -5.7931213778752619 $881 5.7931213778752619 $875 $970 forward 7 unknown #
straight-curve $-1 0 -5.7931213778752619 -122.10821863460188 -1 0 0 I I #
vertex $-1 $684 $971 #
straight-curve $-1 0 5.7931213778752619 -122.10821863460188 1 0 0 I I #
point $-1 244.21643726920377 5.7931213778752619 -122.10821863460188 #
point $-1 244.21643726920377 -5.7931213778752619 -122.10821863460188 #
straight-curve $-1 -244.21643726920377 0 122.10821863460188 0 -1 0 I I #
point $-1 -244.21643726920377 5.7931213778752619 122.10821863460188 #
point $-1 -244.21643726920377 -5.7931213778752619 122.10821863460188 #
straight-curve $-1 244.21643726920377 -5.7931213778752619 0 0 0 -1 I I #
straight-curve $-1 244.21643726920377 5.7931213778752619 0 0 0 -1 I I #
edge $-1 $972 1 $972 0 $701 $-1 forward 7 unknown #
point $-1 1.5 0 -0.75 #
plane-surface $-1 244.21643726920377 0 0 -1 0 0 0 0 1 forward_v I I I I #
coedge $-1 $710 $708 $712 $897 reversed $471 $-1 #
edge $-1 $723 -122.10821863460188 $899 122.10821863460188 $722 $973 forward 7 unknown #
vertex $-1 $897 $974 #
straight-curve $-1 -244.21643726920377 -5.7931213778752619 0 0 0 -1 I I #
edge $-1 $895 -5.7931213778752619 $899 5.7931213778752619 $893 $975 forward 7 unknown #
straight-curve $-1 0 -5.7931213778752619 -122.10821863460188 -1 0 0 I I #
vertex $-1 $715 $976 #
straight-curve $-1 0 5.7931213778752619 -122.10821863460188 1 0 0 I I #
point $-1 244.21643726920377 5.7931213778752619 -122.10821863460188 #
point $-1 244.21643726920377 -5.7931213778752619 -122.10821863460188 #
straight-curve $-1 -244.21643726920377 0 122.10821863460188 0 -1 0 I I #
point $-1 -244.21643726920377 5.7931213778752619 122.10821863460188 #
point $-1 -244.21643726920377 -5.7931213778752619 122.10821863460188 #
straight-curve $-1 244.21643726920377 -5.7931213778752619 0 0 0 -1 I I #
straight-curve $-1 244.21643726920377 5.7931213778752619 0 0 0 -1 I I #
edge $-1 $977 1 $977 0 $732 $-1 forward 7 unknown #
point $-1 1.5 0 -0.75 #
plane-surface $-1 244.21643726920377 0 0 -1 0 0 0 0 1 forward_v I I I I #
coedge $-1 $741 $739 $743 $915 reversed $495 $-1 #
edge $-1 $754 -122.10821863460188 $917 122.10821863460188 $753 $978 forward 7 unknown #
vertex $-1 $915 $979 #
straight-curve $-1 -244.21643726920377 -5.7931213778752619 0 0 0 -1 I I #
edge $-1 $913 -5.7931213778752619 $917 5.7931213778752619 $911 $980 forward 7 unknown #
straight-curve $-1 0 -5.7931213778752619 -122.10821863460188 -1 0 0 I I #
vertex $-1 $746 $981 #
straight-curve $-1 0 5.7931213778752619 -122.10821863460188 1 0 0 I I #
point $-1 244.21643726920377 5.7931213778752619 -122.10821863460188 #
point $-1 244.21643726920377 -5.7931213778752619 -122.10821863460188 #
straight-curve $-1 -244.21643726920377 0 122.10821863460188 0 -1 0 I I #
point $-1 -244.21643726920377 5.7931213778752619 122.10821863460188 #
point $-1 -244.21643726920377 -5.7931213778752619 122.10821863460188 #
straight-curve $-1 244.21643726920377 -5.7931213778752619 0 0 0 -1 I I #
straight-curve $-1 244.21643726920377 5.7931213778752619 0 0 0 -1 I I #
edge $-1 $982 1 $982 0 $763 $-1 forward 7 unknown #
point $-1 1.5 0 -0.75 #
plane-surface $-1 244.21643726920377 0 0 -1 0 0 0 0 1 forward_v I I I I #
coedge $-1 $772 $770 $774 $933 reversed $519 $-1 #
edge $-1 $785 -122.10821863460188 $935 122.10821863460188 $784 $983 forward 7 unknown #
vertex $-1 $933 $984 #
straight-curve $-1 -244.21643726920377 -5.7931213778752619 0 0 0 -1 I I #
edge $-1 $931 -5.7931213778752619 $935 5.7931213778752619 $929 $985 forward 7 unknown #
straight-curve $-1 0 -5.7931213778752619 -122.10821863460188 -1 0 0 I I #
vertex $-1 $777 $986 #
straight-curve $-1 0 5.7931213778752619 -122.10821863460188 1 0 0 I I #
point $-1 244.21643726920377 5.7931213778752619 -122.10821863460188 #
point $-1 244.21643726920377 -5.7931213778752619 -122.10821863460188 #
straight-curve $-1 -244.21643726920377 0 122.10821863460188 0 -1 0 I I #
point $-1 -244.21643726920377 5.7931213778752619 122.10821863460188 #
point $-1 -244.21643726920377 -5.7931213778752619 122.10821863460188 #
straight-curve $-1 244.21643726920377 -5.7931213778752619 0 0 0 -1 I I #
straight-curve $-1 244.21643726920377 5.7931213778752619 0 0 0 -1 I I #
edge $-1 $987 1 $987 0 $794 $-1 forward 7 unknown #
point $-1 1.5 0 -0.75 #
straight-curve $-1 -61.054109317300941 40.307972534541086 0 0 0 -1 I I #
point $-1 -61.054109317300941 -40.307972534541086 -15.385966566233487 #
straight-curve $-1 -61.054109317300941 0 -15.385966566233487 0 1 0 I I #
point $-1 -61.054109317300941 40.307972534541086 -15.385966566233487 #
straight-curve $-1 -61.054109317300941 6.2836837777027839 0 0 0 -1 I I #
point $-1 -61.054109317300941 -6.2836837777027839 -2.0612133376810551 #
straight-curve $-1 -61.054109317300941 0 -2.0612133376810551 0 1 0 I I #
point $-1 -61.054109317300941 6.2836837777027839 -2.0612133376810551 #
straight-curve $-1 -244.21643726920377 7.0150239565248018 0 0 0 -1 I I #
point $-1 -244.21643726920377 -7.0150239565248018 -122.1082186346019 #
straight-curve $-1 -244.21643726920377 0 -122.1082186346019 0 1 0 I I #
point $-1 -244.21643726920377 7.0150239565248018 -122.1082186346019 #
vertex $-1 $846 $988 #
vertex $-1 $848 $989 #
vertex $-1 $850 $990 #
straight-curve $-1 -244.21643726920377 7.0150239565248018 0 0 0 -1 I I #
point $-1 -244.21643726920377 -7.0150239565248018 -122.1082186346019 #
straight-curve $-1 -244.21643726920377 0 -122.1082186346019 0 1 0 I I #
point $-1 -244.21643726920377 7.0150239565248018 -122.1082186346019 #
vertex $-1 $868 $991 #
vertex $-1 $870 $992 #
vertex $-1 $872 $993 #
straight-curve $-1 -244.21643726920377 5.7931213778752619 0 0 0 -1 I I #
point $-1 -244.21643726920377 -5.7931213778752619 -122.10821863460188 #
straight-curve $-1 -244.21643726920377 0 -122.10821863460188 0 1 0 I I #
point $-1 -244.21643726920377 5.7931213778752619 -122.10821863460188 #
vertex $-1 $890 $994 #
straight-curve $-1 -244.21643726920377 5.7931213778752619 0 0 0 -1 I I #
point $-1 -244.21643726920377 -5.7931213778752619 -122.10821863460188 #
straight-curve $-1 -244.21643726920377 0 -122.10821863460188 0 1 0 I I #
point $-1 -244.21643726920377 5.7931213778752619 -122.10821863460188 #
vertex $-1 $908 $995 #
straight-curve $-1 -244.21643726920377 5.7931213778752619 0 0 0 -1 I I #
point $-1 -244.21643726920377 -5.7931213778752619 -122.10821863460188 #
straight-curve $-1 -244.21643726920377 0 -122.10821863460188 0 1 0 I I #
point $-1 -244.21643726920377 5.7931213778752619 -122.10821863460188 #
vertex $-1 $926 $996 #
straight-curve $-1 -244.21643726920377 5.7931213778752619 0 0 0 -1 I I #
point $-1 -244.21643726920377 -5.7931213778752619 -122.10821863460188 #
straight-curve $-1 -244.21643726920377 0 -122.10821863460188 0 1 0 I I #
point $-1 -244.21643726920377 5.7931213778752619 -122.10821863460188 #
vertex $-1 $944 $997 #
point $-1 0 0 0.5 #
point $-1 0 0 0.5 #
point $-1 0 0 0.5 #
point $-1 0 0 0.5 #
point $-1 0 0 0.5 #
point $-1 0 0 0.5 #
point $-1 0 0 0.75 #
point $-1 0 0 0.75 #
point $-1 0 0 0.75 #
point $-1 0 0 0.75 #
End-of-ACIS-data 