500 0 8 0           
7 Unknown 11 ACIS 5.0 NT 24 Thu Mar 25 23:56:45 1999 
-1 9.9999999999999995e-007 1e-010 
body $-1 $8 $-1 $9 #
body $-1 $10 $-1 $11 #
body $-1 $12 $-1 $13 #
body $-1 $14 $-1 $15 #
body $-1 $16 $-1 $17 #
body $-1 $18 $-1 $19 #
body $-1 $20 $-1 $21 #
body $-1 $22 $-1 $23 #
lump $-1 $-1 $24 $0 #
transform $-1 1 0 0 0 1 0 0 0 1 61.550950651570176 35.975569832109798 17.128771706525718 1 rotate no_reflect no_shear #
lump $-1 $-1 $25 $1 #
transform $-1 1 0 0 0 1 0 0 0 1 61.550950651570176 35.975569832109798 17.128771706525718 1 rotate no_reflect no_shear #
lump $-1 $-1 $26 $2 #
transform $-1 1 0 0 0 1 0 0 0 1 61.550950651570176 35.975569832109798 17.128771706525718 1 rotate no_reflect no_shear #
lump $-1 $-1 $27 $3 #
transform $-1 1 0 0 0 1 0 0 0 1 61.550950651570176 35.975569832109798 17.128771706525718 1 rotate no_reflect no_shear #
lump $-1 $-1 $28 $4 #
transform $-1 1 0 0 0 1 0 0 0 1 61.550950651570176 35.975569832109798 17.128771706525718 1 rotate no_reflect no_shear #
lump $-1 $-1 $29 $5 #
transform $-1 1 0 0 0 1 0 0 0 1 61.550950651570176 35.975569832109798 17.128771706525718 1 rotate no_reflect no_shear #
lump $-1 $-1 $30 $6 #
transform $-1 1 0 0 0 1 0 0 0 1 61.550950651570176 35.975569832109798 17.128771706525718 1 rotate no_reflect no_shear #
lump $-1 $-1 $31 $7 #
transform $-1 1 0 0 0 1 0 0 0 1 61.550950651570176 35.975569832109798 17.128771706525718 1 rotate no_reflect no_shear #
shell $-1 $-1 $-1 $32 $-1 $8 #
shell $-1 $-1 $-1 $33 $-1 $10 #
shell $-1 $-1 $-1 $34 $-1 $12 #
shell $-1 $-1 $-1 $35 $-1 $14 #
shell $-1 $-1 $-1 $36 $-1 $16 #
shell $-1 $-1 $-1 $37 $-1 $18 #
shell $-1 $-1 $-1 $38 $-1 $20 #
shell $-1 $-1 $-1 $39 $-1 $22 #
face $-1 $40 $41 $24 $-1 $42 forward single #
face $-1 $43 $44 $25 $-1 $45 forward single #
face $-1 $46 $47 $26 $-1 $48 reversed single #
face $-1 $49 $50 $27 $-1 $51 forward single #
face $-1 $52 $53 $28 $-1 $54 forward single #
face $-1 $55 $56 $29 $-1 $57 reversed single #
face $-1 $58 $59 $30 $-1 $60 forward single #
face $-1 $61 $62 $31 $-1 $63 forward single #
face $-1 $64 $65 $24 $-1 $66 reversed single #
loop $-1 $-1 $67 $32 #
plane-surface $-1 0 0 17.128771706525718 0 0 1 1 0 0 forward_v I I I I #
face $-1 $68 $69 $25 $-1 $70 reversed single #
loop $-1 $-1 $71 $33 #
plane-surface $-1 0 -35.975569832109798 0 0 1 0 0 0 1 forward_v I I I I #
face $-1 $72 $73 $26 $-1 $74 reversed single #
loop $-1 $-1 $75 $34 #
plane-surface $-1 -135.63552517227981 12.798102002522867 108.11188907340699 0 1 0 -0.6018150307709319 0 0.79863550430605224 forward_v I I I I #
face $-1 $76 $77 $27 $-1 $78 forward single #
loop $-1 $79 $80 $35 #
cone-surface $-1 -55.513113625140186 15.108805892628062 11.905696275358732 0.6018150307709319 0 -0.79863550430605224 0.79863550430605224 0 0.6018150307709319 1 I I 0 1 1 forward I I I I #
face $-1 $81 $82 $28 $-1 $83 forward single #
loop $-1 $84 $85 $36 #
cone-surface $-1 -55.513113625140186 18.574861727785859 11.905696275358732 0.6018150307709319 0 -0.79863550430605224 0.79863550430605224 0 0.6018150307709319 1 I I 0 1 1 forward I I I I #
face $-1 $86 $87 $29 $-1 $88 reversed single #
loop $-1 $-1 $89 $37 #
plane-surface $-1 76.724103431518316 7.6769802459976084 177.92548119032276 0 -1 0 -0.7660444514056185 0 -0.64278759981090561 forward_v I I I I #
face $-1 $90 $91 $30 $-1 $92 forward single #
loop $-1 $93 $94 $38 #
cone-surface $-1 54.729513493465419 -1.8748257647304953 9.5357504809499396 -0.7660444514056185 0 -0.64278759981090561 0.64278759981090561 0 -0.7660444514056185 1 I I 0 1 1 forward I I I I #
face $-1 $95 $96 $31 $-1 $97 forward single #
loop $-1 $98 $99 $39 #
cone-surface $-1 54.729513493465419 3.8562578417063662 9.5357504809499396 -0.7660444514056185 0 -0.64278759981090561 0.64278759981090561 0 -0.7660444514056185 1 I I 0 1 1 forward I I I I #
face $-1 $100 $101 $24 $-1 $102 reversed single #
loop $-1 $-1 $103 $40 #
plane-surface $-1 0 0 -17.128771706525718 0 0 1 1 0 0 forward_v I I I I #
coedge $-1 $104 $105 $106 $107 forward $41 $-1 #
face $-1 $108 $109 $25 $-1 $110 reversed single #
loop $-1 $-1 $111 $43 #
plane-surface $-1 0 0 -17.128771706525718 0 0 1 1 0 0 forward_v I I I I #
coedge $-1 $112 $113 $114 $115 forward $44 $-1 #
face $-1 $116 $117 $26 $-1 $118 reversed single #
loop $-1 $-1 $119 $46 #
plane-surface $-1 -61.55095065157019 16.841833810206964 9.7983400451396392 -0.6018150307709319 0 0.79863550430605224 0.79863550430605224 0 0.6018150307709319 forward_v I I I I #
coedge $-1 $120 $121 $122 $123 reversed $47 $-1 #
face $-1 $-1 $124 $27 $-1 $125 forward single #
loop $-1 $126 $127 $49 #
cone-surface $-1 -54.038274675025093 15.108805892628062 9.9485189227317541 0.6018150307709319 0 -0.79863550430605224 0.39931775215302612 0 0.30090751538546595 1 I I -0.70710678118654746 0.70710678118654746 0.5 forward I I I I #
loop $-1 $-1 $128 $35 #
coedge $-1 $80 $80 $129 $130 reversed $50 $-1 #
face $-1 $-1 $131 $28 $-1 $132 forward single #
loop $-1 $133 $134 $52 #
cone-surface $-1 -54.038274675025093 18.574861727785859 9.9485189227317541 0.6018150307709319 0 -0.79863550430605224 0.39931775215302612 0 0.30090751538546595 1 I I -0.70710678118654746 0.70710678118654746 0.5 forward I I I I #
loop $-1 $-1 $135 $36 #
coedge $-1 $85 $85 $136 $137 reversed $53 $-1 #
face $-1 $138 $139 $29 $-1 $140 reversed single #
loop $-1 $-1 $141 $55 #
plane-surface $-1 -17.577425019234425 0.99071603848793188 98.797105519518183 0.7660444514056185 0 0.64278759981090561 0.64278759981090561 0 -0.7660444514056185 forward_v I I I I #
coedge $-1 $142 $143 $144 $145 reversed $56 $-1 #
face $-1 $-1 $146 $30 $-1 $147 forward single #
loop $-1 $148 $149 $58 #
cone-surface $-1 52.825308451458554 -1.8748257647304953 7.9379327743488446 -0.7660444514056185 0 -0.64278759981090561 0.3213937999054528 0 -0.38302222570280925 1 I I -0.70710678118654746 0.70710678118654746 0.5 forward I I I I #
loop $-1 $-1 $150 $38 #
coedge $-1 $94 $94 $151 $152 reversed $59 $-1 #
face $-1 $-1 $153 $31 $-1 $154 forward single #
loop $-1 $155 $156 $61 #
cone-surface $-1 52.825308451458554 3.8562578417063662 7.9379327743488446 -0.7660444514056185 0 -0.64278759981090561 0.3213937999054528 0 -0.38302222570280925 1 I I -0.70710678118654746 0.70710678118654746 0.5 forward I I I I #
loop $-1 $-1 $157 $39 #
coedge $-1 $99 $99 $158 $159 reversed $62 $-1 #
face $-1 $160 $161 $24 $-1 $162 reversed single #
loop $-1 $-1 $163 $64 #
plane-surface $-1 0 -35.975569832109798 0 0 1 0 0 0 1 forward_v I I I I #
coedge $-1 $164 $165 $166 $167 forward $65 $-1 #
coedge $-1 $168 $67 $169 $170 forward $41 $-1 #
coedge $-1 $67 $168 $171 $172 forward $41 $-1 #
coedge $-1 $173 $174 $67 $107 reversed $175 $-1 #
edge $-1 $176 -35.975569832109798 $177 35.975569832109798 $106 $178 forward 7 unknown #
face $-1 $179 $180 $25 $-1 $181 forward single #
loop $-1 $-1 $182 $68 #
plane-surface $-1 61.550950651570176 0 0 -1 0 0 0 0 1 forward_v I I I I #
coedge $-1 $183 $184 $185 $186 forward $69 $-1 #
coedge $-1 $185 $71 $182 $187 reversed $44 $-1 #
coedge $-1 $71 $185 $188 $189 reversed $44 $-1 #
coedge $-1 $190 $191 $71 $115 reversed $180 $-1 #
edge $-1 $192 -61.550950651570176 $193 61.550950651570176 $114 $194 forward 7 unknown #
face $-1 $195 $196 $26 $-1 $197 forward single #
loop $-1 $-1 $198 $72 #
plane-surface $-1 -135.63552517227981 20.885565617891061 108.11188907340699 0 -1 0 0.6018150307709319 0 -0.79863550430605224 forward_v I I I I #
coedge $-1 $199 $200 $201 $202 reversed $73 $-1 #
coedge $-1 $121 $75 $203 $204 reversed $47 $-1 #
coedge $-1 $75 $120 $199 $205 reversed $47 $-1 #
coedge $-1 $201 $206 $75 $123 forward $196 $-1 #
edge $-1 $207 6.2668119345697306 $208 15.994623117970441 $122 $209 forward 7 unknown #
loop $-1 $-1 $129 $76 #
plane-surface $-1 -61.55095065157019 16.841833810206964 9.7983400451396392 -0.6018150307709319 0 0.79863550430605224 0.79863550430605224 0 0.6018150307709319 forward_v I I I I #
loop $-1 $-1 $210 $49 #
coedge $-1 $127 $127 $128 $211 reversed $77 $-1 #
coedge $-1 $128 $128 $127 $211 forward $79 $-1 #
coedge $-1 $129 $129 $80 $130 forward $124 $-1 #
edge $-1 $212 0 $212 6.2831853071796004 $129 $213 forward 7 unknown #
loop $-1 $-1 $136 $81 #
plane-surface $-1 -61.55095065157019 16.841833810206964 9.7983400451396392 -0.6018150307709319 0 0.79863550430605224 0.79863550430605224 0 0.6018150307709319 forward_v I I I I #
loop $-1 $-1 $214 $52 #
coedge $-1 $134 $134 $135 $215 reversed $82 $-1 #
coedge $-1 $135 $135 $134 $215 forward $84 $-1 #
coedge $-1 $136 $136 $85 $137 forward $131 $-1 #
edge $-1 $216 0 $216 6.2831853071796004 $136 $217 forward 7 unknown #
face $-1 $218 $219 $29 $-1 $220 reversed single #
loop $-1 $-1 $221 $86 #
plane-surface $-1 76.724103431518316 -5.6955481690217447 177.92548119032276 0 1 0 0.7660444514056185 0 0.64278759981090561 forward_v I I I I #
coedge $-1 $222 $223 $224 $225 reversed $87 $-1 #
coedge $-1 $143 $89 $226 $227 reversed $56 $-1 #
coedge $-1 $89 $142 $222 $228 reversed $56 $-1 #
coedge $-1 $224 $229 $89 $145 forward $230 $-1 #
edge $-1 $231 -23.188898935811018 $232 -12.588390252209599 $144 $233 forward 7 unknown #
loop $-1 $-1 $151 $90 #
plane-surface $-1 -17.577425019234425 0.99071603848793188 98.797105519518183 0.7660444514056185 0 0.64278759981090561 0.64278759981090561 0 -0.7660444514056185 forward_v I I I I #
loop $-1 $-1 $234 $58 #
coedge $-1 $149 $149 $150 $235 reversed $91 $-1 #
coedge $-1 $150 $150 $149 $235 forward $93 $-1 #
coedge $-1 $151 $151 $94 $152 forward $146 $-1 #
edge $-1 $236 0 $236 6.2831853071796004 $151 $237 forward 7 unknown #
loop $-1 $-1 $158 $95 #
plane-surface $-1 -17.577425019234425 0.99071603848793188 98.797105519518183 0.7660444514056185 0 0.64278759981090561 0.64278759981090561 0 -0.7660444514056185 forward_v I I I I #
loop $-1 $-1 $238 $61 #
coedge $-1 $156 $156 $157 $239 reversed $96 $-1 #
coedge $-1 $157 $157 $156 $239 forward $98 $-1 #
coedge $-1 $158 $158 $99 $159 forward $153 $-1 #
edge $-1 $240 0 $240 6.2831853071796004 $158 $241 forward 7 unknown #
face $-1 $242 $243 $24 $-1 $244 reversed single #
loop $-1 $-1 $245 $100 #
plane-surface $-1 -61.550950651570176 0 0 1 0 0 0 0 -1 forward_v I I I I #
coedge $-1 $171 $246 $173 $247 reversed $101 $-1 #
coedge $-1 $248 $103 $246 $249 forward $65 $-1 #
coedge $-1 $103 $248 $250 $251 forward $65 $-1 #
coedge $-1 $174 $173 $103 $167 reversed $175 $-1 #
edge $-1 $252 -35.975569832109798 $253 35.975569832109798 $166 $254 forward 7 unknown #
coedge $-1 $105 $104 $255 $256 forward $41 $-1 #
coedge $-1 $257 $258 $104 $170 reversed $243 $-1 #
edge $-1 $177 -61.550950651570176 $259 61.550950651570176 $169 $260 forward 7 unknown #
coedge $-1 $261 $163 $105 $172 reversed $101 $-1 #
edge $-1 $262 -61.550950651570176 $176 61.550950651570176 $171 $263 forward 7 unknown #
coedge $-1 $166 $106 $163 $247 forward $175 $-1 #
coedge $-1 $106 $166 $257 $264 reversed $175 $-1 #
loop $-1 $-1 $173 $242 #
vertex $-1 $107 $265 #
vertex $-1 $107 $266 #
straight-curve $-1 61.550950651570176 0 17.128771706525718 0 1 0 I I #
face $-1 $267 $268 $25 $-1 $269 reversed single #
loop $-1 $-1 $191 $108 #
plane-surface $-1 0 -45.688676448630083 -8.633858608162523 0 0 1 1 0 0 forward_v I I I I #
coedge $-1 $270 $271 $112 $187 forward $109 $-1 #
coedge $-1 $272 $111 $271 $273 forward $69 $-1 #
coedge $-1 $111 $272 $274 $275 forward $69 $-1 #
coedge $-1 $113 $112 $111 $186 reversed $44 $-1 #
edge $-1 $276 -61.550950651570176 $277 61.550950651570176 $111 $278 forward 7 unknown #
edge $-1 $277 -17.128771706525718 $193 -8.633858608162523 $182 $279 forward 7 unknown #
coedge $-1 $274 $280 $113 $189 forward $281 $-1 #
edge $-1 $192 8.633858608162523 $276 17.128771706525718 $188 $282 forward 7 unknown #
coedge $-1 $283 $114 $280 $284 forward $180 $-1 #
coedge $-1 $114 $283 $270 $285 forward $180 $-1 #
vertex $-1 $189 $286 #
vertex $-1 $285 $287 #
straight-curve $-1 0 -35.975569832109798 -8.633858608162523 1 0 0 I I #
face $-1 $-1 $288 $26 $-1 $289 reversed single #
loop $-1 $-1 $122 $116 #
plane-surface $-1 0 0 17.128771706525718 0 0 1 1 0 0 forward_v I I I I #
coedge $-1 $290 $291 $292 $293 reversed $117 $-1 #
coedge $-1 $294 $119 $121 $205 forward $73 $-1 #
coedge $-1 $119 $294 $290 $295 forward $73 $-1 #
coedge $-1 $292 $122 $119 $202 forward $196 $-1 #
edge $-1 $208 4.3771850974193853 $296 12.464648712787579 $201 $297 forward 7 unknown #
coedge $-1 $298 $299 $120 $204 forward $288 $-1 #
edge $-1 $300 -44.257604491563839 $207 -36.927172830177774 $203 $301 forward 7 unknown #
edge $-1 $208 -12.180539346110569 $300 -1.7763522597878294e-014 $121 $302 forward 7 unknown #
coedge $-1 $122 $292 $298 $303 forward $196 $-1 #
vertex $-1 $204 $304 #
vertex $-1 $123 $305 #
straight-curve $-1 -67.817762586139906 12.798102002522867 17.128771706525718 1 0 0 I I #
coedge $-1 $210 $210 $-1 $306 reversed $126 $-1 #
edge $-1 $307 0 $307 6.2831853071796004 $127 $308 forward 7 unknown #
vertex $-1 $130 $309 #
ellipse-curve $-1 -56.687045059869817 15.108805892628062 13.463555875832688 -0.6018150307709319 0 0.79863550430605224 0.79863550430605224 0 0.6018150307709319 1 I I #
coedge $-1 $214 $214 $-1 $310 reversed $133 $-1 #
edge $-1 $311 0 $311 6.2831853071796004 $134 $312 forward 7 unknown #
vertex $-1 $137 $313 #
ellipse-curve $-1 -56.687045059869817 18.574861727785859 13.463555875832688 -0.6018150307709319 0 0.79863550430605224 0.79863550430605224 0 0.6018150307709319 1 I I #
face $-1 $-1 $230 $29 $-1 $314 forward single #
loop $-1 $-1 $315 $138 #
plane-surface $-1 61.550950651570176 0 0 -1 0 0 0 0 1 forward_v I I I I #
coedge $-1 $316 $317 $318 $319 reversed $139 $-1 #
coedge $-1 $320 $141 $143 $228 forward $87 $-1 #
coedge $-1 $141 $320 $316 $321 forward $87 $-1 #
coedge $-1 $318 $144 $141 $225 forward $230 $-1 #
edge $-1 $232 -7.1816222267536425 $322 6.1909061882657106 $224 $323 forward 7 unknown #
coedge $-1 $324 $325 $142 $227 forward $219 $-1 #
edge $-1 $326 -84.467163526395964 $231 -71.833968888635667 $226 $327 forward 7 unknown #
edge $-1 $232 106.6104371138501 $326 123.10190130314041 $143 $328 forward 7 unknown #
coedge $-1 $144 $318 $324 $329 forward $230 $-1 #
loop $-1 $-1 $318 $218 #
vertex $-1 $227 $330 #
vertex $-1 $145 $331 #
straight-curve $-1 38.362051715759158 7.6769802459976084 17.128771706525725 -1 0 0 I I #
coedge $-1 $234 $234 $-1 $332 reversed $148 $-1 #
edge $-1 $333 0 $333 6.2831853071796004 $149 $334 forward 7 unknown #
vertex $-1 $152 $335 #
ellipse-curve $-1 56.250696309769459 -1.8748257647304953 10.812174387645568 0.7660444514056185 0 0.64278759981090561 0.64278759981090561 0 -0.7660444514056185 1 I I #
coedge $-1 $238 $238 $-1 $336 reversed $155 $-1 #
edge $-1 $337 0 $337 6.2831853071796004 $156 $338 forward 7 unknown #
vertex $-1 $159 $339 #
ellipse-curve $-1 56.250696309769459 3.8562578417063662 10.812174387645568 0.7660444514056185 0 0.64278759981090561 0.64278759981090561 0 -0.7660444514056185 1 I I #
face $-1 $-1 $175 $24 $-1 $340 reversed single #
loop $-1 $-1 $257 $160 #
plane-surface $-1 0 35.975569832109798 0 0 -1 0 0 0 -1 forward_v I I I I #
coedge $-1 $341 $255 $258 $342 forward $161 $-1 #
coedge $-1 $163 $261 $164 $249 reversed $101 $-1 #
edge $-1 $176 -17.128771706525718 $253 17.128771706525718 $173 $343 forward 7 unknown #
coedge $-1 $165 $164 $341 $344 forward $65 $-1 #
edge $-1 $253 -61.550950651570176 $345 61.550950651570176 $246 $346 forward 7 unknown #
coedge $-1 $258 $257 $165 $251 reversed $243 $-1 #
edge $-1 $347 -61.550950651570176 $252 61.550950651570176 $250 $348 forward 7 unknown #
vertex $-1 $167 $349 #
vertex $-1 $247 $350 #
straight-curve $-1 61.550950651570176 0 -17.128771706525718 0 -1 0 I I #
coedge $-1 $245 $351 $168 $256 reversed $161 $-1 #
edge $-1 $259 -35.975569832109798 $262 35.975569832109798 $255 $352 forward 7 unknown #
coedge $-1 $250 $169 $174 $264 forward $243 $-1 #
coedge $-1 $169 $250 $245 $342 reversed $243 $-1 #
vertex $-1 $170 $353 #
straight-curve $-1 0 35.975569832109798 17.128771706525718 -1 0 0 I I #
coedge $-1 $246 $171 $351 $354 forward $101 $-1 #
vertex $-1 $256 $355 #
straight-curve $-1 0 -35.975569832109798 17.128771706525718 1 0 0 I I #
edge $-1 $177 -17.128771706525718 $252 17.128771706525718 $174 $356 forward 7 unknown #
point $-1 61.550950651570176 -35.975569832109798 17.128771706525718 #
point $-1 61.550950651570176 35.975569832109798 17.128771706525718 #
face $-1 $-1 $281 $25 $-1 $357 reversed single #
loop $-1 $-1 $358 $179 #
plane-surface $-1 0 -55.401783065150369 -12.881315157344121 0 1 0 0 0 1 forward_v I I I I #
coedge $-1 $359 $182 $191 $285 reversed $109 $-1 #
coedge $-1 $182 $359 $183 $273 reversed $109 $-1 #
coedge $-1 $184 $183 $360 $361 forward $69 $-1 #
edge $-1 $277 35.975569832109798 $362 55.401783065150369 $271 $363 forward 7 unknown #
coedge $-1 $364 $188 $184 $275 reversed $281 $-1 #
edge $-1 $365 -55.401783065150369 $276 -35.975569832109798 $274 $366 forward 7 unknown #
vertex $-1 $189 $367 #
vertex $-1 $273 $368 #
straight-curve $-1 0 -35.975569832109798 -17.128771706525718 1 0 0 I I #
straight-curve $-1 61.550950651570176 -35.975569832109798 0 0 0 1 I I #
coedge $-1 $188 $364 $190 $284 reversed $281 $-1 #
loop $-1 $-1 $188 $267 #
straight-curve $-1 -61.550950651570176 -35.975569832109798 0 0 0 -1 I I #
coedge $-1 $191 $190 $369 $370 forward $180 $-1 #
edge $-1 $192 -9.7131066165202853 $371 9.7131066165202853 $280 $372 forward 7 unknown #
edge $-1 $373 -9.7131066165202853 $193 9.7131066165202853 $270 $374 forward 7 unknown #
point $-1 -61.550950651570176 -35.975569832109798 -8.633858608162523 #
point $-1 61.550950651570176 -35.975569832109798 -8.633858608162523 #
loop $-1 $-1 $203 $195 #
plane-surface $-1 -61.550950651570176 0 0 1 0 0 0 0 -1 forward_v I I I I #
coedge $-1 $291 $198 $200 $295 reversed $117 $-1 #
coedge $-1 $198 $290 $375 $376 reversed $117 $-1 #
coedge $-1 $206 $201 $198 $293 forward $196 $-1 #
edge $-1 $296 -15.994623117970441 $377 -6.2668119345697306 $292 $378 forward 7 unknown #
coedge $-1 $200 $199 $299 $379 reversed $73 $-1 #
edge $-1 $380 1.7763522597878294e-014 $296 12.180539346110569 $290 $381 forward 7 unknown #
vertex $-1 $202 $382 #
straight-curve $-1 -51.823139468169465 8.420916905103482 17.128771706525718 0 1 0 I I #
coedge $-1 $375 $203 $206 $303 reversed $288 $-1 #
coedge $-1 $203 $375 $294 $379 forward $288 $-1 #
vertex $-1 $204 $383 #
straight-curve $-1 -61.550950651570176 12.798102002522867 54.055944536703493 0 0 1 I I #
straight-curve $-1 -61.55095065157019 12.798102002522867 9.7983400451396392 -0.79863550430605224 0 -0.6018150307709319 I I #
edge $-1 $377 -20.885565617891061 $207 -12.798102002522867 $298 $384 forward 7 unknown #
point $-1 -61.550950651570176 12.798102002522867 17.128771706525718 #
point $-1 -51.823139468169465 12.798102002522867 17.128771706525718 #
edge $-1 $385 1 $385 0 $210 $-1 forward 7 unknown #
vertex $-1 $211 $386 #
ellipse-curve $-1 -54.339182190410561 15.108805892628062 10.34783667488478 -0.6018150307709319 0 0.79863550430605224 0.79863550430605224 0 0.6018150307709319 1 I I #
point $-1 -55.888409555563761 15.108805892628062 14.065370906603615 #
edge $-1 $387 1 $387 0 $214 $-1 forward 7 unknown #
vertex $-1 $215 $388 #
ellipse-curve $-1 -54.339182190410561 18.574861727785859 10.34783667488478 -0.6018150307709319 0 0.79863550430605224 0.79863550430605224 0 0.6018150307709319 1 I I #
point $-1 -55.888409555563761 18.574861727785859 14.065370906603615 #
plane-surface $-1 0 0 17.128771706525718 0 0 1 1 0 0 forward_v I I I I #
coedge $-1 $325 $324 $317 $389 forward $219 $-1 #
coedge $-1 $317 $221 $223 $321 reversed $139 $-1 #
coedge $-1 $221 $316 $315 $389 reversed $139 $-1 #
coedge $-1 $229 $224 $221 $319 forward $230 $-1 #
edge $-1 $322 12.588390252209599 $390 23.188898935811018 $318 $391 forward 7 unknown #
coedge $-1 $223 $222 $325 $392 reversed $87 $-1 #
edge $-1 $393 -123.10190130314041 $322 -106.6104371138501 $316 $394 forward 7 unknown #
vertex $-1 $225 $395 #
straight-curve $-1 50.95044196796875 0.49535801924396594 17.128771706525711 0 -1 0 I I #
coedge $-1 $315 $226 $229 $329 reversed $219 $-1 #
coedge $-1 $226 $315 $320 $392 forward $219 $-1 #
vertex $-1 $227 $396 #
straight-curve $-1 61.550950651570176 7.6769802459976084 88.962740595161378 0 0 1 I I #
straight-curve $-1 -17.577425019234425 7.6769802459976084 98.797105519518183 0.64278759981090561 0 -0.7660444514056185 I I #
edge $-1 $390 -5.6955481690217447 $231 7.6769802459976084 $324 $397 forward 7 unknown #
point $-1 61.550950651570176 7.6769802459976084 17.128771706525718 #
point $-1 50.950441967968757 7.6769802459976084 17.128771706525711 #
edge $-1 $398 1 $398 0 $234 $-1 forward 7 unknown #
vertex $-1 $235 $399 #
ellipse-curve $-1 53.208330677161364 -1.8748257647304953 8.2593265742542972 0.7660444514056185 0 0.64278759981090561 0.64278759981090561 0 -0.7660444514056185 1 I I #
point $-1 56.893483909580382 -1.8748257647304953 10.046129936239964 #
edge $-1 $400 1 $400 0 $238 $-1 forward 7 unknown #
vertex $-1 $239 $401 #
ellipse-curve $-1 53.208330677161364 3.8562578417063662 8.2593265742542972 0.7660444514056185 0 0.64278759981090561 0.64278759981090561 0 -0.7660444514056185 1 I I #
point $-1 56.893483909580382 3.8562578417063662 10.046129936239964 #
plane-surface $-1 61.550950651570176 0 0 -1 0 0 0 0 1 forward_v I I I I #
coedge $-1 $351 $245 $248 $344 reversed $161 $-1 #
edge $-1 $259 -17.128771706525718 $347 17.128771706525718 $258 $402 forward 7 unknown #
straight-curve $-1 61.550950651570176 -35.975569832109798 0 0 0 -1 I I #
edge $-1 $345 -35.975569832109798 $347 35.975569832109798 $341 $403 forward 7 unknown #
vertex $-1 $344 $404 #
straight-curve $-1 0 -35.975569832109798 -17.128771706525718 -1 0 0 I I #
vertex $-1 $251 $405 #
straight-curve $-1 0 35.975569832109798 -17.128771706525718 1 0 0 I I #
point $-1 61.550950651570176 35.975569832109798 -17.128771706525718 #
point $-1 61.550950651570176 -35.975569832109798 -17.128771706525718 #
coedge $-1 $255 $341 $261 $354 reversed $161 $-1 #
straight-curve $-1 -61.550950651570176 0 17.128771706525718 0 -1 0 I I #
point $-1 -61.550950651570176 35.975569832109798 17.128771706525718 #
edge $-1 $262 -17.128771706525718 $345 17.128771706525718 $351 $406 forward 7 unknown #
point $-1 -61.550950651570176 -35.975569832109798 17.128771706525718 #
straight-curve $-1 61.550950651570176 35.975569832109798 0 0 0 -1 I I #
plane-surface $-1 -61.550950651570176 0 0 1 0 0 0 0 -1 forward_v I I I I #
coedge $-1 $360 $369 $364 $407 forward $268 $-1 #
coedge $-1 $271 $270 $408 $409 forward $109 $-1 #
coedge $-1 $408 $358 $272 $361 reversed $268 $-1 #
edge $-1 $362 -61.550950651570176 $365 61.550950651570176 $360 $410 forward 7 unknown #
vertex $-1 $409 $411 #
straight-curve $-1 61.550950651570176 0 -17.128771706525718 0 -1 0 I I #
coedge $-1 $280 $274 $358 $407 reversed $281 $-1 #
vertex $-1 $275 $412 #
straight-curve $-1 -61.550950651570176 0 -17.128771706525718 0 1 0 I I #
point $-1 -61.550950651570176 -35.975569832109798 -17.128771706525718 #
point $-1 61.550950651570176 -35.975569832109798 -17.128771706525718 #
coedge $-1 $358 $408 $283 $370 reversed $268 $-1 #
edge $-1 $371 -61.550950651570176 $373 61.550950651570176 $369 $413 forward 7 unknown #
vertex $-1 $284 $414 #
straight-curve $-1 -61.550950651570176 -45.688676448630083 -8.633858608162523 0 -1 0 I I #
vertex $-1 $285 $415 #
straight-curve $-1 61.550950651570176 -45.688676448630083 -8.633858608162523 0 1 0 I I #
coedge $-1 $299 $298 $291 $376 forward $288 $-1 #
edge $-1 $377 36.927172830177774 $380 44.257604491563839 $375 $416 forward 7 unknown #
vertex $-1 $303 $417 #
straight-curve $-1 -67.817762586139906 20.885565617891061 17.128771706525718 -1 0 0 I I #
edge $-1 $380 -12.464648712787579 $300 -4.3771850974193853 $299 $418 forward 7 unknown #
vertex $-1 $379 $419 #
straight-curve $-1 -61.55095065157019 20.885565617891061 9.7983400451396392 0.79863550430605224 0 0.6018150307709319 I I #
point $-1 -51.823139468169465 20.885565617891061 17.128771706525718 #
point $-1 -61.550950651570176 12.798102002522867 9.7983400451396498 #
straight-curve $-1 -61.550950651570176 0 17.128771706525718 0 -1 0 I I #
vertex $-1 $306 $420 #
point $-1 -53.540546686104506 15.108805892628062 10.949651705655713 #
vertex $-1 $310 $421 #
point $-1 -53.540546686104506 18.574861727785859 10.949651705655713 #
edge $-1 $390 71.833968888635667 $393 84.467163526395964 $315 $422 forward 7 unknown #
vertex $-1 $329 $423 #
straight-curve $-1 38.362051715759158 -5.6955481690217447 17.128771706525725 1 0 0 I I #
edge $-1 $393 -6.1909061882657106 $326 7.1816222267536425 $325 $424 forward 7 unknown #
vertex $-1 $392 $425 #
straight-curve $-1 -17.577425019234425 -5.6955481690217447 98.797105519518183 -0.64278759981090561 0 0.7660444514056185 I I #
point $-1 50.950441967968757 -5.6955481690217447 17.128771706525711 #
point $-1 61.550950651570176 7.6769802459976084 4.4955770687654137 #
straight-curve $-1 61.550950651570176 0 17.128771706525718 0 1 0 I I #
vertex $-1 $332 $426 #
point $-1 53.851118276972272 -1.8748257647304953 7.4932821228486786 #
vertex $-1 $336 $427 #
point $-1 53.851118276972272 3.8562578417063662 7.4932821228486786 #
straight-curve $-1 -61.550950651570176 35.975569832109798 0 0 0 -1 I I #
straight-curve $-1 -61.550950651570176 0 -17.128771706525718 0 1 0 I I #
point $-1 -61.550950651570176 -35.975569832109798 -17.128771706525718 #
point $-1 -61.550950651570176 35.975569832109798 -17.128771706525718 #
straight-curve $-1 -61.550950651570176 -35.975569832109798 0 0 0 -1 I I #
edge $-1 $371 -4.2474565491815977 $365 4.2474565491815977 $364 $428 forward 7 unknown #
coedge $-1 $369 $360 $359 $409 reversed $268 $-1 #
edge $-1 $373 -4.2474565491815977 $362 4.2474565491815977 $359 $429 forward 7 unknown #
straight-curve $-1 0 -55.401783065150369 -17.128771706525718 -1 0 0 I I #
point $-1 61.550950651570176 -55.401783065150369 -17.128771706525718 #
point $-1 -61.550950651570176 -55.401783065150369 -17.128771706525718 #
straight-curve $-1 0 -55.401783065150369 -8.633858608162523 1 0 0 I I #
point $-1 -61.550950651570176 -55.401783065150369 -8.633858608162523 #
point $-1 61.550950651570176 -55.401783065150369 -8.633858608162523 #
straight-curve $-1 -61.550950651570176 20.885565617891061 54.055944536703493 0 0 -1 I I #
point $-1 -61.550950651570176 20.885565617891061 17.128771706525718 #
straight-curve $-1 -61.550950651570176 8.420916905103482 9.7983400451396498 0 -1 0 I I #
point $-1 -61.550950651570176 20.885565617891061 9.7983400451396498 #
point $-1 -53.737367159639625 15.108805892628062 9.5492011705787281 #
point $-1 -53.737367159639625 18.574861727785859 9.5492011705787281 #
straight-curve $-1 61.550950651570176 -5.6955481690217447 88.962740595161378 0 0 -1 I I #
point $-1 61.550950651570176 -5.6955481690217447 17.128771706525718 #
straight-curve $-1 61.550950651570176 0.49535801924396594 4.4955770687654137 0 1 0 I I #
point $-1 61.550950651570176 -5.6955481690217447 4.4955770687654137 #
point $-1 52.442286225755744 -1.8748257647304953 7.616538974443392 #
point $-1 52.442286225755744 3.8562578417063662 7.616538974443392 #
straight-curve $-1 -61.550950651570176 -55.401783065150369 -12.881315157344121 0 0 -1 I I #
straight-curve $-1 61.550950651570176 -55.401783065150369 -12.881315157344121 0 0 -1 I I #
End-of-ACIS-data 