500 0 7 0           
7 Unknown 11 ACIS 5.0 NT 24 Thu Mar 25 21:07:02 1999 
-1 9.9999999999999995e-007 1e-010 
body $-1 $7 $-1 $8 #
body $-1 $9 $-1 $10 #
body $-1 $11 $-1 $12 #
body $-1 $13 $-1 $14 #
body $-1 $15 $-1 $16 #
body $-1 $17 $-1 $18 #
body $-1 $19 $-1 $20 #
lump $-1 $-1 $21 $0 #
transform $-1 1 0 0 0 1 0 0 0 1 68.987701040681173 40.095482570538543 18.873400191395991 1 rotate no_reflect no_shear #
lump $-1 $-1 $22 $1 #
transform $-1 1 0 0 0 1 0 0 0 1 68.987701040681173 40.095482570538543 18.873400191395991 1 rotate no_reflect no_shear #
lump $-1 $-1 $23 $2 #
transform $-1 1 0 0 0 1 0 0 0 1 68.987701040681173 40.095482570538543 18.873400191395991 1 rotate no_reflect no_shear #
lump $-1 $-1 $24 $3 #
transform $-1 1 0 0 0 1 0 0 0 1 68.987701040681173 40.095482570538543 18.873400191395991 1 rotate no_reflect no_shear #
lump $-1 $-1 $25 $4 #
transform $-1 1 0 0 0 1 0 0 0 1 68.987701040681173 40.095482570538543 18.873400191395991 1 rotate no_reflect no_shear #
lump $-1 $-1 $26 $5 #
transform $-1 1 0 0 0 1 0 0 0 1 68.987701040681173 40.095482570538543 18.873400191395991 1 rotate no_reflect no_shear #
lump $-1 $-1 $27 $6 #
transform $-1 1 0 0 0 1 0 0 0 1 68.987701040681173 40.095482570538543 18.873400191395991 1 rotate no_reflect no_shear #
shell $-1 $-1 $-1 $28 $-1 $7 #
shell $-1 $-1 $-1 $29 $-1 $9 #
shell $-1 $-1 $-1 $30 $-1 $11 #
shell $-1 $-1 $-1 $31 $-1 $13 #
shell $-1 $-1 $-1 $32 $-1 $15 #
shell $-1 $-1 $-1 $33 $-1 $17 #
shell $-1 $-1 $-1 $34 $-1 $19 #
face $-1 $35 $36 $21 $-1 $37 reversed single #
face $-1 $38 $39 $22 $-1 $40 forward single #
face $-1 $41 $42 $23 $-1 $43 reversed single #
face $-1 $44 $45 $24 $-1 $46 forward single #
face $-1 $47 $48 $25 $-1 $49 forward single #
face $-1 $50 $51 $26 $-1 $52 reversed single #
face $-1 $53 $54 $27 $-1 $55 forward single #
face $-1 $56 $57 $21 $-1 $58 forward single #
loop $-1 $-1 $59 $28 #
plane-surface $-1 0 -40.095482570538543 0 0 1 0 0 0 1 forward_v I I I I #
face $-1 $60 $61 $22 $-1 $62 forward single #
loop $-1 $-1 $63 $29 #
plane-surface $-1 0 -40.095482570538543 0 0 1 0 0 0 1 forward_v I I I I #
face $-1 $64 $65 $23 $-1 $66 reversed single #
loop $-1 $-1 $67 $30 #
plane-surface $-1 -153.93384171001043 23.174480701143217 113.39554474501047 0 1 0 -0.61566148304635926 0 0.78801074757464917 forward_v I I I I #
face $-1 $68 $69 $24 $-1 $70 forward single #
loop $-1 $71 $72 $31 #
cone-surface $-1 -59.324320486382575 26.164675532124157 11.037678223343386 0.61566148304635926 0 -0.78801074757464917 0.78801074757464917 0 0.61566148304635926 1 I I 0 1 1 forward I I I I #
face $-1 $73 $74 $25 $-1 $75 forward single #
loop $-1 $76 $77 $32 #
cone-surface $-1 -59.324320486382575 30.649967778595574 11.037678223343386 0.61566148304635926 0 -0.78801074757464917 0.78801074757464917 0 0.61566148304635926 1 I I 0 1 1 forward I I I I #
face $-1 $78 $79 $26 $-1 $80 reversed single #
loop $-1 $-1 $81 $33 #
plane-surface $-1 58.775561508203552 -5.780549237726925 195.60578117214089 0 -1 0 -0.66913061440640931 0 -0.74314481823134659 forward_v I I I I #
face $-1 $82 $83 $27 $-1 $84 forward single #
loop $-1 $85 $86 $34 #
cone-surface $-1 57.673776053516519 -15.081792438006534 8.4239665615973927 -0.66913061440640931 0 -0.74314481823134659 2.2294344546940397 0 -2.0073918432192279 1 I I 0 1 3 forward I I I I #
face $-1 $87 $88 $21 $-1 $89 reversed single #
loop $-1 $-1 $90 $35 #
plane-surface $-1 0 0 18.873400191395991 0 0 1 1 0 0 forward_v I I I I #
coedge $-1 $91 $92 $93 $94 reversed $36 $-1 #
face $-1 $95 $96 $22 $-1 $97 reversed single #
loop $-1 $-1 $98 $38 #
plane-surface $-1 0 0 18.873400191395991 0 0 1 1 0 0 forward_v I I I I #
coedge $-1 $99 $100 $101 $102 forward $39 $-1 #
face $-1 $103 $104 $23 $-1 $105 reversed single #
loop $-1 $-1 $106 $41 #
plane-surface $-1 -68.987701040681159 28.407321655359873 4.6694450039633182 -0.61566148304635926 0 0.78801074757464917 0.78801074757464917 0 0.61566148304635926 forward_v I I I I #
coedge $-1 $107 $108 $109 $110 reversed $42 $-1 #
face $-1 $-1 $111 $24 $-1 $112 forward single #
loop $-1 $113 $114 $44 #
cone-surface $-1 -58.44322580008307 26.164675532124157 9.9099284752198002 0.61566148304635926 0 -0.78801074757464917 0.39400537378732459 0 0.30783074152317963 1 I I -0.70710678118654746 0.70710678118654746 0.5 forward I I I I #
loop $-1 $-1 $115 $31 #
coedge $-1 $72 $72 $116 $117 reversed $45 $-1 #
face $-1 $-1 $118 $25 $-1 $119 forward single #
loop $-1 $120 $121 $47 #
cone-surface $-1 -58.44322580008307 30.649967778595574 9.9099284752198002 0.61566148304635926 0 -0.78801074757464917 0.39400537378732459 0 0.30783074152317963 1 I I -0.70710678118654746 0.70710678118654746 0.5 forward I I I I #
loop $-1 $-1 $122 $32 #
coedge $-1 $77 $77 $123 $124 reversed $48 $-1 #
face $-1 $125 $126 $26 $-1 $127 reversed single #
loop $-1 $-1 $128 $50 #
plane-surface $-1 -33.548004059469804 -15.081792438006538 93.070076071989916 0.66913061440640931 0 0.74314481823134659 0.74314481823134659 0 -0.66913061440640931 forward_v I I I I #
coedge $-1 $129 $130 $131 $132 reversed $51 $-1 #
face $-1 $-1 $133 $27 $-1 $134 forward single #
loop $-1 $135 $136 $53 #
cone-surface $-1 55.422130196230853 -15.081792438006534 5.9232605479914859 -0.66913061440640931 0 -0.74314481823134659 1.1147172273470198 0 -1.003695921609614 1 I I -0.70710678118654757 0.70710678118654757 1.5 forward I I I I #
loop $-1 $-1 $137 $34 #
coedge $-1 $86 $86 $138 $139 reversed $54 $-1 #
face $-1 $140 $141 $21 $-1 $142 reversed single #
loop $-1 $-1 $143 $56 #
plane-surface $-1 0 0 -18.873400191395991 0 0 1 1 0 0 forward_v I I I I #
coedge $-1 $144 $145 $146 $147 forward $57 $-1 #
coedge $-1 $148 $59 $149 $150 reversed $36 $-1 #
coedge $-1 $59 $148 $151 $152 forward $36 $-1 #
coedge $-1 $153 $143 $59 $94 forward $88 $-1 #
edge $-1 $154 -68.987701040681173 $155 68.987701040681173 $59 $156 forward 7 unknown #
face $-1 $157 $158 $22 $-1 $159 reversed single #
loop $-1 $-1 $160 $60 #
plane-surface $-1 -68.987701040681173 0 0 1 0 0 0 0 -1 forward_v I I I I #
coedge $-1 $161 $162 $100 $163 forward $61 $-1 #
coedge $-1 $164 $63 $165 $166 reversed $39 $-1 #
coedge $-1 $63 $164 $98 $163 reversed $39 $-1 #
coedge $-1 $167 $168 $63 $102 reversed $169 $-1 #
edge $-1 $170 -18.873400191395991 $171 18.873400191395991 $101 $172 forward 7 unknown #
face $-1 $173 $174 $23 $-1 $175 reversed single #
loop $-1 $-1 $176 $64 #
plane-surface $-1 -153.93384171001043 33.640162609576528 113.39554474501047 0 -1 0 0.61566148304635926 0 -0.78801074757464917 forward_v I I I I #
coedge $-1 $177 $178 $179 $180 reversed $65 $-1 #
coedge $-1 $108 $67 $181 $182 reversed $42 $-1 #
coedge $-1 $67 $107 $177 $183 reversed $42 $-1 #
coedge $-1 $179 $184 $67 $110 forward $185 $-1 #
edge $-1 $186 7.9792198143240398 $187 26.159453033368578 $109 $188 forward 7 unknown #
loop $-1 $-1 $116 $68 #
plane-surface $-1 -68.987701040681159 28.407321655359873 4.6694450039633182 -0.61566148304635926 0 0.78801074757464917 0.78801074757464917 0 0.61566148304635926 forward_v I I I I #
loop $-1 $-1 $189 $44 #
coedge $-1 $114 $114 $115 $190 reversed $69 $-1 #
coedge $-1 $115 $115 $114 $190 forward $71 $-1 #
coedge $-1 $116 $116 $72 $117 forward $111 $-1 #
edge $-1 $191 0 $191 6.2831853071796004 $116 $192 forward 7 unknown #
loop $-1 $-1 $123 $73 #
plane-surface $-1 -68.987701040681159 28.407321655359873 4.6694450039633182 -0.61566148304635926 0 0.78801074757464917 0.78801074757464917 0 0.61566148304635926 forward_v I I I I #
loop $-1 $-1 $193 $47 #
coedge $-1 $121 $121 $122 $194 reversed $74 $-1 #
coedge $-1 $122 $122 $121 $194 forward $76 $-1 #
coedge $-1 $123 $123 $77 $124 forward $118 $-1 #
edge $-1 $195 0 $195 6.2831853071796004 $123 $196 forward 7 unknown #
face $-1 $197 $198 $26 $-1 $199 forward single #
loop $-1 $-1 $200 $78 #
plane-surface $-1 58.775561508203552 -24.383035638286152 195.60578117214089 0 1 0 0.66913061440640931 0 0.74314481823134659 forward_v I I I I #
coedge $-1 $201 $202 $203 $204 reversed $79 $-1 #
coedge $-1 $130 $81 $205 $206 reversed $51 $-1 #
coedge $-1 $81 $129 $201 $207 reversed $51 $-1 #
coedge $-1 $203 $208 $81 $132 forward $198 $-1 #
edge $-1 $209 -39.599920286579398 $210 -19.467970183602198 $131 $211 forward 7 unknown #
loop $-1 $-1 $138 $82 #
plane-surface $-1 -33.548004059469804 -15.081792438006538 93.070076071989916 0.66913061440640931 0 0.74314481823134659 0.74314481823134659 0 -0.66913061440640931 forward_v I I I I #
loop $-1 $-1 $212 $53 #
coedge $-1 $136 $136 $137 $213 reversed $83 $-1 #
coedge $-1 $137 $137 $136 $213 forward $85 $-1 #
coedge $-1 $138 $138 $86 $139 forward $133 $-1 #
edge $-1 $214 0 $214 6.2831853071796004 $138 $215 forward 7 unknown #
face $-1 $216 $217 $21 $-1 $218 reversed single #
loop $-1 $-1 $219 $87 #
plane-surface $-1 -68.987701040681173 0 0 1 0 0 0 0 -1 forward_v I I I I #
coedge $-1 $93 $220 $221 $222 forward $88 $-1 #
coedge $-1 $223 $90 $224 $225 forward $57 $-1 #
coedge $-1 $90 $223 $148 $226 forward $57 $-1 #
coedge $-1 $149 $227 $90 $147 reversed $228 $-1 #
edge $-1 $229 -40.095482570538543 $230 40.095482570538543 $146 $231 forward 7 unknown #
coedge $-1 $92 $91 $145 $226 reversed $36 $-1 #
coedge $-1 $221 $146 $91 $150 forward $228 $-1 #
edge $-1 $229 -18.873400191395991 $154 18.873400191395991 $149 $232 forward 7 unknown #
coedge $-1 $233 $234 $92 $152 reversed $141 $-1 #
edge $-1 $235 -18.873400191395991 $155 18.873400191395991 $151 $236 forward 7 unknown #
coedge $-1 $220 $93 $234 $237 forward $88 $-1 #
vertex $-1 $150 $238 #
vertex $-1 $237 $239 #
straight-curve $-1 0 -40.095482570538543 -18.873400191395991 -1 0 0 I I #
face $-1 $240 $169 $22 $-1 $241 reversed single #
loop $-1 $-1 $242 $95 #
plane-surface $-1 -65.833072130245171 -55.807929502790934 0 0 1 0 0 0 1 forward_v I I I I #
coedge $-1 $243 $244 $164 $245 forward $96 $-1 #
coedge $-1 $246 $98 $244 $247 forward $61 $-1 #
coedge $-1 $98 $246 $167 $248 forward $61 $-1 #
edge $-1 $170 62.678443219809161 $249 68.987701040681173 $98 $250 forward 7 unknown #
coedge $-1 $100 $99 $160 $245 reversed $39 $-1 #
coedge $-1 $251 $252 $99 $166 forward $253 $-1 #
edge $-1 $254 -68.987701040681173 $171 -62.678443219809161 $165 $255 forward 7 unknown #
coedge $-1 $256 $101 $162 $248 reversed $169 $-1 #
coedge $-1 $101 $256 $251 $257 reversed $169 $-1 #
loop $-1 $-1 $256 $157 #
vertex $-1 $163 $258 #
vertex $-1 $257 $259 #
straight-curve $-1 -62.678443219809161 -40.095482570538543 0 0 0 -1 I I #
face $-1 $-1 $185 $23 $-1 $260 forward single #
loop $-1 $-1 $261 $103 #
plane-surface $-1 -68.987701040681173 0 0 1 0 0 0 0 -1 forward_v I I I I #
coedge $-1 $262 $263 $264 $265 reversed $104 $-1 #
coedge $-1 $266 $106 $108 $183 forward $65 $-1 #
coedge $-1 $106 $266 $262 $267 forward $65 $-1 #
coedge $-1 $264 $109 $106 $180 forward $185 $-1 #
edge $-1 $187 8.9708198734632809 $268 19.436501781896592 $179 $269 forward 7 unknown #
coedge $-1 $270 $271 $107 $182 forward $174 $-1 #
edge $-1 $272 -52.02832736854193 $186 -37.82437218110924 $181 $273 forward 7 unknown #
edge $-1 $187 -23.071047285839573 $272 1.830693040787162e-014 $108 $274 forward 7 unknown #
coedge $-1 $109 $264 $270 $275 forward $185 $-1 #
loop $-1 $-1 $264 $173 #
vertex $-1 $182 $276 #
vertex $-1 $110 $277 #
straight-curve $-1 -76.966920855005213 23.174480701143217 18.873400191395987 1 0 0 I I #
coedge $-1 $189 $189 $-1 $278 reversed $113 $-1 #
edge $-1 $279 0 $279 6.2831853071796004 $114 $280 forward 7 unknown #
vertex $-1 $117 $281 #
ellipse-curve $-1 -59.897584431158904 26.164675532124157 11.771422597679649 -0.61566148304635926 0 0.78801074757464917 0.78801074757464917 0 0.61566148304635926 1 I I #
coedge $-1 $193 $193 $-1 $282 reversed $120 $-1 #
edge $-1 $283 0 $283 6.2831853071796004 $121 $284 forward 7 unknown #
vertex $-1 $124 $285 #
ellipse-curve $-1 -59.897584431158904 30.649967778595574 11.771422597679649 -0.61566148304635926 0 0.78801074757464917 0.78801074757464917 0 0.61566148304635926 1 I I #
face $-1 $-1 $286 $26 $-1 $287 reversed single #
loop $-1 $-1 $131 $125 #
plane-surface $-1 0 0 18.873400191395991 0 0 1 1 0 0 forward_v I I I I #
coedge $-1 $288 $289 $290 $291 reversed $126 $-1 #
coedge $-1 $292 $128 $130 $207 forward $79 $-1 #
coedge $-1 $128 $292 $288 $293 forward $79 $-1 #
coedge $-1 $290 $131 $128 $204 forward $198 $-1 #
edge $-1 $210 -1.7603469812763439 $294 16.842139419282883 $203 $295 forward 7 unknown #
coedge $-1 $296 $297 $129 $206 forward $286 $-1 #
edge $-1 $298 -97.056380081753886 $209 -78.92949039467446 $205 $299 forward 7 unknown #
edge $-1 $210 110.88519084785015 $298 137.97540208136235 $130 $300 forward 7 unknown #
coedge $-1 $131 $290 $296 $301 forward $198 $-1 #
vertex $-1 $132 $302 #
vertex $-1 $132 $303 #
straight-curve $-1 29.387780754101776 -5.780549237726925 18.873400191395987 -1 0 0 I I #
coedge $-1 $212 $212 $-1 $304 reversed $135 $-1 #
edge $-1 $305 0 $305 6.2831853071796004 $136 $306 forward 7 unknown #
vertex $-1 $139 $307 #
ellipse-curve $-1 58.921725989192574 -15.081792438006534 9.8099553478562775 0.66913061440640931 0 0.74314481823134659 2.2294344546940397 0 -2.0073918432192279 1 I I #
face $-1 $-1 $228 $21 $-1 $308 reversed single #
loop $-1 $-1 $309 $140 #
plane-surface $-1 0 40.095482570538543 0 0 -1 0 0 0 -1 forward_v I I I I #
coedge $-1 $234 $233 $310 $311 forward $141 $-1 #
coedge $-1 $143 $153 $312 $313 forward $88 $-1 #
coedge $-1 $227 $149 $143 $222 reversed $228 $-1 #
edge $-1 $314 -40.095482570538543 $154 40.095482570538543 $221 $315 forward 7 unknown #
coedge $-1 $145 $144 $233 $316 forward $57 $-1 #
coedge $-1 $309 $310 $144 $225 reversed $217 $-1 #
edge $-1 $230 -68.987701040681173 $317 68.987701040681173 $224 $318 forward 7 unknown #
edge $-1 $235 -68.987701040681173 $229 68.987701040681173 $148 $319 forward 7 unknown #
coedge $-1 $146 $221 $309 $320 reversed $228 $-1 #
loop $-1 $-1 $149 $216 #
vertex $-1 $147 $321 #
vertex $-1 $147 $322 #
straight-curve $-1 68.987701040681173 0 18.873400191395991 0 1 0 I I #
straight-curve $-1 68.987701040681173 -40.095482570538543 0 0 0 -1 I I #
coedge $-1 $219 $151 $223 $316 reversed $141 $-1 #
coedge $-1 $151 $219 $153 $237 reversed $141 $-1 #
vertex $-1 $316 $323 #
straight-curve $-1 -68.987701040681173 -40.095482570538543 0 0 0 -1 I I #
edge $-1 $155 -40.095482570538543 $324 40.095482570538543 $234 $325 forward 7 unknown #
point $-1 68.987701040681173 -40.095482570538543 -18.873400191395991 #
point $-1 -68.987701040681173 -40.095482570538543 -18.873400191395991 #
face $-1 $-1 $253 $22 $-1 $326 reversed single #
plane-surface $-1 -62.678443219809161 -47.951706036664739 0 -1 0 0 0 0 1 forward_v I I I I #
coedge $-1 $327 $328 $329 $330 forward $158 $-1 #
coedge $-1 $329 $160 $252 $331 reversed $96 $-1 #
coedge $-1 $160 $329 $161 $247 reversed $96 $-1 #
edge $-1 $249 -18.873400191395991 $254 18.873400191395991 $160 $332 forward 7 unknown #
coedge $-1 $162 $161 $328 $333 forward $61 $-1 #
edge $-1 $249 40.095482570538543 $334 55.807929502790934 $244 $335 forward 7 unknown #
edge $-1 $336 -7.8562234661261954 $170 7.8562234661261954 $167 $337 forward 7 unknown #
vertex $-1 $247 $338 #
straight-curve $-1 0 -40.095482570538543 18.873400191395991 -1 0 0 I I #
coedge $-1 $339 $165 $168 $257 forward $253 $-1 #
coedge $-1 $165 $339 $243 $331 forward $253 $-1 #
loop $-1 $-1 $165 $240 #
vertex $-1 $245 $340 #
straight-curve $-1 0 -40.095482570538543 -18.873400191395991 1 0 0 I I #
coedge $-1 $168 $167 $341 $342 forward $169 $-1 #
edge $-1 $171 -7.8562234661261954 $343 7.8562234661261954 $168 $344 forward 7 unknown #
point $-1 -62.678443219809161 -40.095482570538543 18.873400191395991 #
point $-1 -62.678443219809161 -40.095482570538543 -18.873400191395991 #
plane-surface $-1 0 0 18.873400191395991 0 0 1 1 0 0 forward_v I I I I #
coedge $-1 $271 $270 $263 $345 forward $174 $-1 #
coedge $-1 $263 $176 $178 $267 reversed $104 $-1 #
coedge $-1 $176 $262 $261 $345 reversed $104 $-1 #
coedge $-1 $184 $179 $176 $265 forward $185 $-1 #
edge $-1 $268 -26.159453033368578 $346 -7.9792198143240398 $264 $347 forward 7 unknown #
coedge $-1 $178 $177 $271 $348 reversed $65 $-1 #
edge $-1 $349 -1.830693040787162e-014 $268 23.071047285839573 $262 $350 forward 7 unknown #
vertex $-1 $180 $351 #
straight-curve $-1 -50.807467821636635 14.203660827679936 18.873400191395991 0 1 0 I I #
coedge $-1 $261 $181 $184 $275 reversed $174 $-1 #
coedge $-1 $181 $261 $266 $348 forward $174 $-1 #
vertex $-1 $182 $352 #
straight-curve $-1 -68.987701040681173 23.174480701143217 56.697772372505234 0 0 1 I I #
straight-curve $-1 -68.987701040681159 23.174480701143217 4.6694450039633182 -0.78801074757464917 0 -0.61566148304635926 I I #
edge $-1 $346 -33.640162609576528 $186 -23.174480701143217 $270 $353 forward 7 unknown #
point $-1 -68.987701040681173 23.174480701143217 18.873400191395991 #
point $-1 -50.807467821636635 23.174480701143217 18.873400191395991 #
edge $-1 $354 1 $354 0 $189 $-1 forward 7 unknown #
vertex $-1 $190 $355 #
ellipse-curve $-1 -58.751056541606246 26.164675532124157 10.303933849007125 -0.61566148304635926 0 0.78801074757464917 0.78801074757464917 0 0.61566148304635926 1 I I #
point $-1 -59.109573683584259 26.164675532124157 12.387084080726009 #
edge $-1 $356 1 $356 0 $193 $-1 forward 7 unknown #
vertex $-1 $194 $357 #
ellipse-curve $-1 -58.751056541606246 30.649967778595574 10.303933849007125 -0.61566148304635926 0 0.78801074757464917 0.78801074757464917 0 0.61566148304635926 1 I I #
point $-1 -59.109573683584259 30.649967778595574 12.387084080726009 #
loop $-1 $-1 $205 $197 #
plane-surface $-1 68.987701040681173 0 0 -1 0 0 0 0 1 forward_v I I I I #
coedge $-1 $289 $200 $202 $293 reversed $126 $-1 #
coedge $-1 $200 $288 $358 $359 reversed $126 $-1 #
coedge $-1 $208 $203 $200 $291 forward $198 $-1 #
edge $-1 $294 19.467970183602198 $360 39.599920286579398 $290 $361 forward 7 unknown #
coedge $-1 $202 $201 $297 $362 reversed $79 $-1 #
edge $-1 $363 -137.97540208136235 $294 -110.88519084785015 $288 $364 forward 7 unknown #
vertex $-1 $204 $365 #
straight-curve $-1 48.855750937703995 -7.5408962190032689 18.873400191395973 0 -1 0 I I #
coedge $-1 $358 $205 $208 $301 reversed $286 $-1 #
coedge $-1 $205 $358 $292 $362 forward $286 $-1 #
vertex $-1 $206 $366 #
straight-curve $-1 68.987701040681173 -5.780549237726925 97.802890586070447 0 0 1 I I #
straight-curve $-1 -33.548004059469804 -5.780549237726925 93.070076071989916 0.74314481823134659 0 -0.66913061440640931 I I #
edge $-1 $360 -24.383035638286152 $209 -5.780549237726925 $296 $367 forward 7 unknown #
point $-1 68.987701040681173 -5.780549237726925 18.873400191395991 #
point $-1 48.855750937703974 -5.780549237726925 18.873400191395987 #
edge $-1 $368 1 $368 0 $212 $-1 forward 7 unknown #
vertex $-1 $213 $369 #
ellipse-curve $-1 56.425826117840465 -15.081792438006534 7.037977775338506 0.66913061440640931 0 0.74314481823134659 2.2294344546940397 0 -2.0073918432192279 1 I I #
point $-1 61.151160443886617 -15.081792438006534 7.8025635046370514 #
plane-surface $-1 68.987701040681173 0 0 -1 0 0 0 0 1 forward_v I I I I #
coedge $-1 $312 $224 $227 $320 forward $217 $-1 #
coedge $-1 $224 $312 $219 $311 reversed $217 $-1 #
edge $-1 $317 -18.873400191395991 $324 18.873400191395991 $310 $370 forward 7 unknown #
coedge $-1 $310 $309 $220 $313 reversed $217 $-1 #
edge $-1 $324 -68.987701040681173 $314 68.987701040681173 $312 $371 forward 7 unknown #
vertex $-1 $222 $372 #
straight-curve $-1 68.987701040681173 0 -18.873400191395991 0 -1 0 I I #
edge $-1 $317 -40.095482570538543 $235 40.095482570538543 $233 $373 forward 7 unknown #
vertex $-1 $225 $374 #
straight-curve $-1 0 40.095482570538543 18.873400191395991 -1 0 0 I I #
straight-curve $-1 0 -40.095482570538543 18.873400191395991 1 0 0 I I #
edge $-1 $230 -18.873400191395991 $314 18.873400191395991 $227 $375 forward 7 unknown #
point $-1 68.987701040681173 -40.095482570538543 18.873400191395991 #
point $-1 68.987701040681173 40.095482570538543 18.873400191395991 #
point $-1 -68.987701040681173 -40.095482570538543 18.873400191395991 #
vertex $-1 $313 $376 #
straight-curve $-1 -68.987701040681173 0 -18.873400191395991 0 1 0 I I #
plane-surface $-1 0 0 -18.873400191395991 0 0 1 1 0 0 forward_v I I I I #
coedge $-1 $341 $242 $339 $377 reversed $158 $-1 #
coedge $-1 $242 $341 $246 $333 reversed $158 $-1 #
coedge $-1 $244 $243 $242 $330 reversed $96 $-1 #
edge $-1 $334 -18.873400191395991 $378 18.873400191395991 $329 $379 forward 7 unknown #
edge $-1 $378 -55.807929502790934 $254 -40.095482570538543 $243 $380 forward 7 unknown #
straight-curve $-1 -68.987701040681173 -40.095482570538543 0 0 0 -1 I I #
edge $-1 $334 -3.1546289104360028 $336 3.1546289104360099 $328 $381 forward 7 unknown #
vertex $-1 $247 $382 #
straight-curve $-1 -68.987701040681173 0 18.873400191395991 0 -1 0 I I #
vertex $-1 $248 $383 #
straight-curve $-1 -62.678443219809161 -47.951706036664739 18.873400191395991 0 1 0 I I #
point $-1 -68.987701040681173 -40.095482570538543 18.873400191395991 #
coedge $-1 $252 $251 $327 $377 forward $253 $-1 #
point $-1 -68.987701040681173 -40.095482570538543 -18.873400191395991 #
coedge $-1 $328 $327 $256 $342 reversed $158 $-1 #
edge $-1 $336 -18.873400191395991 $343 18.873400191395991 $256 $384 forward 7 unknown #
vertex $-1 $342 $385 #
straight-curve $-1 -62.678443219809161 -47.951706036664739 -18.873400191395991 0 -1 0 I I #
edge $-1 $346 37.82437218110924 $349 52.02832736854193 $261 $386 forward 7 unknown #
vertex $-1 $275 $387 #
straight-curve $-1 -76.966920855005213 33.640162609576528 18.873400191395987 -1 0 0 I I #
edge $-1 $349 -19.436501781896592 $272 -8.9708198734632809 $271 $388 forward 7 unknown #
vertex $-1 $348 $389 #
straight-curve $-1 -68.987701040681159 33.640162609576528 4.6694450039633182 0.78801074757464917 0 0.61566148304635926 I I #
point $-1 -50.807467821636635 33.640162609576528 18.873400191395991 #
point $-1 -68.987701040681173 23.174480701143217 4.6694450039633066 #
straight-curve $-1 -68.987701040681173 0 18.873400191395991 0 -1 0 I I #
vertex $-1 $278 $390 #
point $-1 -57.963045794031601 26.164675532124157 10.919595332053484 #
vertex $-1 $282 $391 #
point $-1 -57.963045794031601 30.649967778595574 10.919595332053484 #
coedge $-1 $297 $296 $289 $359 forward $286 $-1 #
edge $-1 $360 78.92949039467446 $363 97.056380081753886 $358 $392 forward 7 unknown #
vertex $-1 $301 $393 #
straight-curve $-1 29.387780754101776 -24.383035638286152 18.873400191395987 1 0 0 I I #
edge $-1 $363 -16.842139419282883 $298 1.7603469812763439 $297 $394 forward 7 unknown #
vertex $-1 $362 $395 #
straight-curve $-1 -33.548004059469804 -24.383035638286152 93.070076071989916 -0.74314481823134659 0 0.66913061440640931 I I #
point $-1 48.855750937703974 -24.383035638286152 18.873400191395987 #
point $-1 68.987701040681173 -5.780549237726925 0.74651050431656074 #
straight-curve $-1 68.987701040681173 0 18.873400191395991 0 1 0 I I #
vertex $-1 $304 $396 #
point $-1 58.655260572534509 -15.081792438006534 5.0305859321192781 #
straight-curve $-1 -68.987701040681173 40.095482570538543 0 0 0 -1 I I #
straight-curve $-1 0 40.095482570538543 -18.873400191395991 1 0 0 I I #
point $-1 68.987701040681173 40.095482570538543 -18.873400191395991 #
straight-curve $-1 -68.987701040681173 0 18.873400191395991 0 -1 0 I I #
point $-1 -68.987701040681173 40.095482570538543 18.873400191395991 #
straight-curve $-1 68.987701040681173 40.095482570538543 0 0 0 -1 I I #
point $-1 -68.987701040681173 40.095482570538543 -18.873400191395991 #
edge $-1 $343 -3.1546289104360099 $378 3.1546289104360028 $327 $397 forward 7 unknown #
vertex $-1 $331 $398 #
straight-curve $-1 -68.987701040681173 -55.807929502790934 0 0 0 -1 I I #
straight-curve $-1 -68.987701040681173 0 -18.873400191395991 0 1 0 I I #
straight-curve $-1 -65.833072130245171 -55.807929502790934 18.873400191395991 1 0 0 I I #
point $-1 -68.987701040681173 -55.807929502790934 18.873400191395991 #
point $-1 -62.678443219809161 -55.807929502790934 18.873400191395991 #
straight-curve $-1 -62.678443219809161 -55.807929502790934 0 0 0 -1 I I #
point $-1 -62.678443219809161 -55.807929502790934 -18.873400191395991 #
straight-curve $-1 -68.987701040681173 33.640162609576528 56.697772372505234 0 0 -1 I I #
point $-1 -68.987701040681173 33.640162609576528 18.873400191395991 #
straight-curve $-1 -68.987701040681173 14.203660827679936 4.6694450039633075 0 -1 0 I I #
point $-1 -68.987701040681173 33.640162609576528 4.6694450039633066 #
point $-1 -58.135395058559894 26.164675532124157 9.5159231014324757 #
point $-1 -58.135395058559894 30.649967778595574 9.5159231014324757 #
straight-curve $-1 68.987701040681173 -24.383035638286152 97.802890586070447 0 0 -1 I I #
point $-1 68.987701040681173 -24.383035638286152 18.873400191395991 #
straight-curve $-1 68.987701040681173 -7.5408962190032689 0.74651050431656785 0 1 0 I I #
point $-1 68.987701040681173 -24.383035638286152 0.74651050431656074 #
point $-1 54.418434274621241 -15.081792438006534 4.8085433206444659 #
straight-curve $-1 -65.833072130245171 -55.807929502790934 -18.873400191395991 -1 0 0 I I #
point $-1 -68.987701040681173 -55.807929502790934 -18.873400191395991 #
End-of-ACIS-data 