500 0 11 0           
7 Unknown 11 ACIS 5.0 NT 24 Fri Mar 26 19:36:51 1999 
-1 9.9999999999999995e-007 1e-010 
body $-1 $11 $-1 $12 #
body $-1 $13 $-1 $14 #
body $-1 $15 $-1 $16 #
body $-1 $17 $-1 $18 #
body $-1 $19 $-1 $20 #
body $-1 $21 $-1 $22 #
body $-1 $23 $-1 $24 #
body $-1 $25 $-1 $26 #
body $-1 $27 $-1 $28 #
body $-1 $29 $-1 $30 #
body $-1 $31 $-1 $32 #
lump $-1 $-1 $33 $0 #
transform $-1 1 0 0 0 1 0 0 0 1 72.817163609729306 31.157576955674024 7.0134263238003145 1 rotate no_reflect no_shear #
lump $-1 $-1 $34 $1 #
transform $-1 1 0 0 0 1 0 0 0 1 72.817163609729306 31.157576955674024 7.0134263238003145 1 rotate no_reflect no_shear #
lump $-1 $-1 $35 $2 #
transform $-1 1 0 0 0 1 0 0 0 1 72.817163609729306 31.157576955674024 7.0134263238003145 1 rotate no_reflect no_shear #
lump $-1 $-1 $36 $3 #
transform $-1 1 0 0 0 1 0 0 0 1 72.817163609729306 31.157576955674024 7.0134263238003145 1 rotate no_reflect no_shear #
lump $-1 $-1 $37 $4 #
transform $-1 1 0 0 0 1 0 0 0 1 72.817163609729306 31.157576955674024 7.0134263238003145 1 rotate no_reflect no_shear #
lump $-1 $-1 $38 $5 #
transform $-1 1 0 0 0 1 0 0 0 1 72.817163609729306 31.157576955674024 7.0134263238003145 1 rotate no_reflect no_shear #
lump $-1 $-1 $39 $6 #
transform $-1 1 0 0 0 1 0 0 0 1 72.817163609729306 31.157576955674024 7.0134263238003145 1 rotate no_reflect no_shear #
lump $-1 $-1 $40 $7 #
transform $-1 1 0 0 0 1 0 0 0 1 72.817163609729306 31.157576955674024 7.0134263238003145 1 rotate no_reflect no_shear #
lump $-1 $-1 $41 $8 #
transform $-1 1 0 0 0 1 0 0 0 1 72.817163609729306 31.157576955674024 7.0134263238003145 1 rotate no_reflect no_shear #
lump $-1 $-1 $42 $9 #
transform $-1 1 0 0 0 1 0 0 0 1 72.817163609729306 31.157576955674024 7.0134263238003145 1 rotate no_reflect no_shear #
lump $-1 $-1 $43 $10 #
transform $-1 1 0 0 0 1 0 0 0 1 72.817163609729306 31.157576955674024 7.0134263238003145 1 rotate no_reflect no_shear #
shell $-1 $-1 $-1 $44 $-1 $11 #
shell $-1 $-1 $-1 $45 $-1 $13 #
shell $-1 $-1 $-1 $46 $-1 $15 #
shell $-1 $-1 $-1 $47 $-1 $17 #
shell $-1 $-1 $-1 $48 $-1 $19 #
shell $-1 $-1 $-1 $49 $-1 $21 #
shell $-1 $-1 $-1 $50 $-1 $23 #
shell $-1 $-1 $-1 $51 $-1 $25 #
shell $-1 $-1 $-1 $52 $-1 $27 #
shell $-1 $-1 $-1 $53 $-1 $29 #
shell $-1 $-1 $-1 $54 $-1 $31 #
face $-1 $55 $56 $33 $-1 $57 forward single #
face $-1 $58 $59 $34 $-1 $60 forward single #
face $-1 $61 $62 $35 $-1 $63 forward single #
face $-1 $64 $65 $36 $-1 $66 reversed single #
face $-1 $67 $68 $37 $-1 $69 forward single #
face $-1 $70 $71 $38 $-1 $72 forward single #
face $-1 $73 $74 $39 $-1 $75 forward single #
face $-1 $76 $77 $40 $-1 $78 reversed single #
face $-1 $79 $80 $41 $-1 $81 forward single #
face $-1 $82 $83 $42 $-1 $84 forward single #
face $-1 $85 $86 $43 $-1 $87 forward single #
face $-1 $88 $89 $33 $-1 $90 reversed single #
loop $-1 $-1 $91 $44 #
plane-surface $-1 0 0 7.0134263238003145 0 0 1 1 0 0 forward_v I I I I #
face $-1 $92 $93 $34 $-1 $94 reversed single #
loop $-1 $-1 $95 $45 #
plane-surface $-1 0 -27.339017069425463 1.1808873950835261 0 0 1 1 0 0 forward_v I I I I #
face $-1 $96 $97 $35 $-1 $98 reversed single #
loop $-1 $-1 $99 $46 #
plane-surface $-1 0 27.339017069425459 1.1808873950835261 0 0 1 1 0 0 forward_v I I I I #
face $-1 $100 $101 $36 $-1 $102 reversed single #
loop $-1 $-1 $103 $47 #
plane-surface $-1 -6.5009740371122149 -18.799071542844331 123.03151949220495 0.83867057594974714 0 0.54463902268945019 0.54463902268945019 0 -0.83867057594974714 forward_v I I I I #
face $-1 $104 $105 $37 $-1 $106 forward single #
loop $-1 $107 $108 $48 #
cone-surface $-1 70.410273612189769 -21.631902927043875 3.6805408530592341 -0.83867057594974714 0 -0.54463902268945019 0.13615975567236255 0 -0.20966764398743679 1 I I 0 1 0.25 forward I I I I #
face $-1 $109 $110 $38 $-1 $111 forward single #
loop $-1 $112 $113 $49 #
cone-surface $-1 70.410273612189769 -18.799071542844331 3.6805408530592341 -0.83867057594974714 0 -0.54463902268945019 0.13615975567236255 0 -0.20966764398743679 1 I I 0 1 0.25 forward I I I I #
face $-1 $114 $115 $39 $-1 $116 forward single #
loop $-1 $117 $118 $50 #
cone-surface $-1 70.410273612189769 -15.966240158644787 3.6805408530592341 -0.83867057594974714 0 -0.54463902268945019 0.13615975567236255 0 -0.20966764398743679 1 I I 0 1 0.25 forward I I I I #
face $-1 $119 $120 $40 $-1 $121 reversed single #
loop $-1 $-1 $122 $51 #
plane-surface $-1 -72.817163609729306 19.459600363268216 0.33425826098364553 -0.6018150307709319 0 0.79863550430605224 0.79863550430605224 0 0.6018150307709319 forward_v I I I I #
face $-1 $123 $124 $41 $-1 $125 forward single #
loop $-1 $126 $127 $52 #
cone-surface $-1 -67.991061888036825 17.02308627132301 3.1505565287097745 0.6018150307709319 0 -0.79863550430605224 0.39931775215302612 0 0.30090751538546595 1 I I 0 1 0.5 forward I I I I #
face $-1 $128 $129 $42 $-1 $130 forward single #
loop $-1 $131 $132 $53 #
cone-surface $-1 -67.991061888036825 19.459600363268216 3.1505565287097745 0.6018150307709319 0 -0.79863550430605224 0.39931775215302612 0 0.30090751538546595 1 I I 0 1 0.5 forward I I I I #
face $-1 $133 $134 $43 $-1 $135 forward single #
loop $-1 $136 $137 $54 #
cone-surface $-1 -67.991061888036825 21.896114455213429 3.1505565287097745 0.6018150307709319 0 -0.79863550430605224 0.39931775215302612 0 0.30090751538546595 1 I I 0 1 0.5 forward I I I I #
face $-1 $138 $139 $33 $-1 $140 reversed single #
loop $-1 $-1 $141 $55 #
plane-surface $-1 0 0 -7.0134263238003145 0 0 1 1 0 0 forward_v I I I I #
coedge $-1 $142 $143 $144 $145 forward $56 $-1 #
face $-1 $146 $147 $34 $-1 $148 reversed single #
loop $-1 $-1 $149 $58 #
plane-surface $-1 0 -27.339017069425463 -2.778283480549395 0 0 1 1 0 0 forward_v I I I I #
coedge $-1 $150 $151 $152 $153 reversed $59 $-1 #
face $-1 $154 $155 $35 $-1 $156 reversed single #
loop $-1 $-1 $157 $61 #
plane-surface $-1 0 27.339017069425459 -2.778283480549395 0 0 1 1 0 0 forward_v I I I I #
coedge $-1 $158 $159 $160 $161 reversed $62 $-1 #
face $-1 $162 $163 $36 $-1 $164 forward single #
loop $-1 $-1 $165 $64 #
plane-surface $-1 115.63825105008507 -14.077685902511758 202.34965713904649 0 -1 0 -0.83867057594974714 0 -0.54463902268945019 forward_v I I I I #
coedge $-1 $166 $167 $168 $169 reversed $65 $-1 #
face $-1 $-1 $170 $37 $-1 $171 forward single #
loop $-1 $172 $173 $67 #
cone-surface $-1 69.886104502221173 -21.631902927043875 3.3401414638783278 -0.83867057594974714 0 -0.54463902268945019 0.068079877836181274 0 -0.10483382199371839 1 I I -0.70710678118654746 0.70710678118654746 0.125 forward I I I I #
loop $-1 $-1 $174 $48 #
coedge $-1 $108 $108 $175 $176 reversed $68 $-1 #
face $-1 $-1 $177 $38 $-1 $178 forward single #
loop $-1 $179 $180 $70 #
cone-surface $-1 69.886104502221173 -18.799071542844331 3.3401414638783278 -0.83867057594974714 0 -0.54463902268945019 0.068079877836181274 0 -0.10483382199371839 1 I I -0.70710678118654746 0.70710678118654746 0.125 forward I I I I #
loop $-1 $-1 $181 $49 #
coedge $-1 $113 $113 $182 $183 reversed $71 $-1 #
face $-1 $-1 $184 $39 $-1 $185 forward single #
loop $-1 $186 $187 $73 #
cone-surface $-1 69.886104502221173 -15.966240158644787 3.3401414638783278 -0.83867057594974714 0 -0.54463902268945019 0.068079877836181274 0 -0.10483382199371839 1 I I -0.70710678118654746 0.70710678118654746 0.125 forward I I I I #
loop $-1 $-1 $188 $50 #
coedge $-1 $118 $118 $189 $190 reversed $74 $-1 #
face $-1 $191 $192 $40 $-1 $193 reversed single #
loop $-1 $-1 $194 $76 #
plane-surface $-1 -160.46209072661176 15.398743543359533 116.6430026241686 0 1 0 -0.6018150307709319 0 0.79863550430605224 forward_v I I I I #
coedge $-1 $195 $196 $197 $198 reversed $77 $-1 #
face $-1 $-1 $199 $41 $-1 $200 forward single #
loop $-1 $201 $202 $79 #
cone-surface $-1 -67.446284015933429 17.02308627132301 2.4276118889510547 0.6018150307709319 0 -0.79863550430605224 0.19965887607651306 0 0.15045375769273298 1 I I -0.70710678118654746 0.70710678118654746 0.25 forward I I I I #
loop $-1 $-1 $203 $52 #
coedge $-1 $127 $127 $204 $205 reversed $80 $-1 #
face $-1 $-1 $206 $42 $-1 $207 forward single #
loop $-1 $208 $209 $82 #
cone-surface $-1 -67.446284015933429 19.459600363268216 2.4276118889510547 0.6018150307709319 0 -0.79863550430605224 0.19965887607651306 0 0.15045375769273298 1 I I -0.70710678118654746 0.70710678118654746 0.25 forward I I I I #
loop $-1 $-1 $210 $53 #
coedge $-1 $132 $132 $211 $212 reversed $83 $-1 #
face $-1 $-1 $213 $43 $-1 $214 forward single #
loop $-1 $215 $216 $85 #
cone-surface $-1 -67.446284015933429 21.896114455213429 2.4276118889510547 0.6018150307709319 0 -0.79863550430605224 0.19965887607651306 0 0.15045375769273298 1 I I -0.70710678118654746 0.70710678118654746 0.25 forward I I I I #
loop $-1 $-1 $217 $54 #
coedge $-1 $137 $137 $218 $219 reversed $86 $-1 #
face $-1 $220 $221 $33 $-1 $222 reversed single #
loop $-1 $-1 $223 $88 #
plane-surface $-1 0 -31.157576955674024 0 0 1 0 0 0 1 forward_v I I I I #
coedge $-1 $224 $225 $226 $227 forward $89 $-1 #
coedge $-1 $228 $91 $229 $230 forward $56 $-1 #
coedge $-1 $91 $228 $231 $232 forward $56 $-1 #
coedge $-1 $233 $234 $91 $145 reversed $235 $-1 #
edge $-1 $236 -31.157576955674024 $237 31.157576955674024 $144 $238 forward 7 unknown #
face $-1 $239 $240 $34 $-1 $241 reversed single #
loop $-1 $-1 $242 $92 #
plane-surface $-1 0 -23.520457183176902 -0.79869804273293443 0 -1 0 0 0 -1 forward_v I I I I #
coedge $-1 $243 $244 $245 $246 reversed $93 $-1 #
coedge $-1 $247 $95 $248 $249 forward $59 $-1 #
coedge $-1 $95 $247 $250 $251 reversed $59 $-1 #
coedge $-1 $252 $253 $95 $153 forward $254 $-1 #
edge $-1 $255 9.8509486484641702 $256 17.488068420961291 $152 $257 forward 7 unknown #
face $-1 $258 $259 $35 $-1 $260 reversed single #
loop $-1 $-1 $261 $96 #
plane-surface $-1 0 23.520457183176898 -0.79869804273293443 0 1 0 0 0 1 forward_v I I I I #
coedge $-1 $262 $263 $264 $265 reversed $97 $-1 #
coedge $-1 $266 $99 $267 $268 reversed $62 $-1 #
coedge $-1 $99 $266 $269 $270 forward $62 $-1 #
coedge $-1 $271 $272 $99 $161 forward $259 $-1 #
edge $-1 $273 -17.488068420961291 $274 -9.8509486484641684 $160 $275 forward 7 unknown #
face $-1 $276 $277 $36 $-1 $278 reversed single #
loop $-1 $-1 $279 $100 #
plane-surface $-1 0 -23.520457183176902 -0.79869804273293443 0 -1 0 0 0 -1 forward_v I I I I #
coedge $-1 $280 $281 $282 $283 reversed $101 $-1 #
coedge $-1 $284 $103 $279 $285 reversed $65 $-1 #
coedge $-1 $103 $284 $280 $286 forward $65 $-1 #
coedge $-1 $282 $287 $103 $169 forward $277 $-1 #
edge $-1 $288 -14.120921411754736 $289 -4.678150131089593 $168 $290 forward 7 unknown #
loop $-1 $-1 $175 $104 #
plane-surface $-1 -6.5009740371122149 -18.799071542844331 123.03151949220495 0.83867057594974714 0 0.54463902268945019 0.54463902268945019 0 -0.83867057594974714 forward_v I I I I #
loop $-1 $-1 $291 $67 #
coedge $-1 $173 $173 $174 $292 reversed $105 $-1 #
coedge $-1 $174 $174 $173 $292 forward $107 $-1 #
coedge $-1 $175 $175 $108 $176 forward $170 $-1 #
edge $-1 $293 0 $293 6.2831853071796004 $175 $294 forward 7 unknown #
loop $-1 $-1 $182 $109 #
plane-surface $-1 -6.5009740371122149 -18.799071542844331 123.03151949220495 0.83867057594974714 0 0.54463902268945019 0.54463902268945019 0 -0.83867057594974714 forward_v I I I I #
loop $-1 $-1 $295 $70 #
coedge $-1 $180 $180 $181 $296 reversed $110 $-1 #
coedge $-1 $181 $181 $180 $296 forward $112 $-1 #
coedge $-1 $182 $182 $113 $183 forward $177 $-1 #
edge $-1 $297 0 $297 6.2831853071796004 $182 $298 forward 7 unknown #
loop $-1 $-1 $189 $114 #
plane-surface $-1 -6.5009740371122149 -18.799071542844331 123.03151949220495 0.83867057594974714 0 0.54463902268945019 0.54463902268945019 0 -0.83867057594974714 forward_v I I I I #
loop $-1 $-1 $299 $73 #
coedge $-1 $187 $187 $188 $300 reversed $115 $-1 #
coedge $-1 $188 $188 $187 $300 forward $117 $-1 #
coedge $-1 $189 $189 $118 $190 forward $184 $-1 #
edge $-1 $301 0 $301 6.2831853071796004 $189 $302 forward 7 unknown #
face $-1 $303 $304 $40 $-1 $305 forward single #
loop $-1 $-1 $306 $119 #
plane-surface $-1 -72.817163609729306 0 0 1 0 0 0 0 -1 forward_v I I I I #
coedge $-1 $307 $308 $309 $310 reversed $120 $-1 #
coedge $-1 $311 $122 $312 $313 reversed $77 $-1 #
coedge $-1 $122 $311 $307 $314 forward $77 $-1 #
coedge $-1 $309 $306 $122 $198 forward $192 $-1 #
edge $-1 $315 -13.79065700154279 $316 -5.6689433617254252 $197 $317 forward 7 unknown #
loop $-1 $-1 $204 $123 #
plane-surface $-1 -72.817163609729306 19.459600363268216 0.33425826098364553 -0.6018150307709319 0 0.79863550430605224 0.79863550430605224 0 0.6018150307709319 forward_v I I I I #
loop $-1 $-1 $318 $79 #
coedge $-1 $202 $202 $203 $319 reversed $124 $-1 #
coedge $-1 $203 $203 $202 $319 forward $126 $-1 #
coedge $-1 $204 $204 $127 $205 forward $199 $-1 #
edge $-1 $320 0 $320 6.2831853071796004 $204 $321 forward 7 unknown #
loop $-1 $-1 $211 $128 #
plane-surface $-1 -72.817163609729306 19.459600363268216 0.33425826098364553 -0.6018150307709319 0 0.79863550430605224 0.79863550430605224 0 0.6018150307709319 forward_v I I I I #
loop $-1 $-1 $322 $82 #
coedge $-1 $209 $209 $210 $323 reversed $129 $-1 #
coedge $-1 $210 $210 $209 $323 forward $131 $-1 #
coedge $-1 $211 $211 $132 $212 forward $206 $-1 #
edge $-1 $324 0 $324 6.2831853071796004 $211 $325 forward 7 unknown #
loop $-1 $-1 $218 $133 #
plane-surface $-1 -72.817163609729306 19.459600363268216 0.33425826098364553 -0.6018150307709319 0 0.79863550430605224 0.79863550430605224 0 0.6018150307709319 forward_v I I I I #
loop $-1 $-1 $326 $85 #
coedge $-1 $216 $216 $217 $327 reversed $134 $-1 #
coedge $-1 $217 $217 $216 $327 forward $136 $-1 #
coedge $-1 $218 $218 $137 $219 forward $213 $-1 #
edge $-1 $328 0 $328 6.2831853071796004 $218 $329 forward 7 unknown #
face $-1 $330 $331 $33 $-1 $332 reversed single #
loop $-1 $-1 $333 $138 #
plane-surface $-1 -72.817163609729306 0 0 1 0 0 0 0 -1 forward_v I I I I #
coedge $-1 $334 $231 $335 $336 forward $139 $-1 #
coedge $-1 $337 $141 $334 $338 forward $89 $-1 #
coedge $-1 $141 $337 $339 $340 forward $89 $-1 #
coedge $-1 $234 $233 $141 $227 reversed $235 $-1 #
edge $-1 $341 -31.157576955674024 $342 31.157576955674024 $226 $343 forward 7 unknown #
coedge $-1 $143 $142 $344 $345 forward $56 $-1 #
coedge $-1 $346 $347 $142 $230 reversed $331 $-1 #
edge $-1 $237 -72.817163609729306 $348 72.817163609729306 $229 $349 forward 7 unknown #
coedge $-1 $223 $350 $143 $232 reversed $139 $-1 #
edge $-1 $351 -72.817163609729306 $236 72.817163609729306 $231 $352 forward 7 unknown #
coedge $-1 $226 $144 $350 $353 forward $235 $-1 #
coedge $-1 $144 $226 $346 $354 reversed $235 $-1 #
loop $-1 $-1 $233 $330 #
vertex $-1 $145 $355 #
vertex $-1 $145 $356 #
straight-curve $-1 72.817163609729306 0 7.0134263238003145 0 1 0 I I #
face $-1 $357 $358 $34 $-1 $359 reversed single #
loop $-1 $-1 $360 $146 #
plane-surface $-1 -72.817163609729306 0 0 1 0 0 0 0 -1 forward_v I I I I #
coedge $-1 $361 $248 $253 $362 reversed $147 $-1 #
coedge $-1 $363 $149 $364 $365 reversed $93 $-1 #
coedge $-1 $149 $363 $361 $366 forward $93 $-1 #
coedge $-1 $253 $252 $149 $246 forward $254 $-1 #
edge $-1 $367 -17.488068420961291 $368 -9.8509486484641702 $245 $369 forward 7 unknown #
coedge $-1 $151 $150 $360 $370 reversed $59 $-1 #
coedge $-1 $242 $371 $150 $249 reversed $147 $-1 #
edge $-1 $255 -72.817163609729306 $372 72.817163609729306 $248 $373 forward 7 unknown #
coedge $-1 $374 $375 $151 $251 forward $358 $-1 #
edge $-1 $256 -72.817163609729306 $376 72.817163609729306 $250 $377 forward 7 unknown #
coedge $-1 $245 $152 $375 $378 forward $254 $-1 #
coedge $-1 $152 $245 $242 $362 forward $254 $-1 #
loop $-1 $-1 $152 $357 #
vertex $-1 $153 $379 #
vertex $-1 $378 $380 #
straight-curve $-1 72.817163609729306 -13.669508534712731 1.1808873950835261 0 -1 0 I I #
face $-1 $381 $382 $35 $-1 $383 reversed single #
loop $-1 $-1 $160 $154 #
plane-surface $-1 72.817163609729306 0 0 -1 0 0 0 0 1 forward_v I I I I #
coedge $-1 $384 $269 $385 $386 reversed $155 $-1 #
coedge $-1 $387 $157 $384 $388 forward $97 $-1 #
coedge $-1 $157 $387 $389 $390 reversed $97 $-1 #
coedge $-1 $272 $271 $157 $265 forward $259 $-1 #
edge $-1 $391 9.8509486484641684 $392 17.488068420961291 $264 $393 forward 7 unknown #
coedge $-1 $159 $158 $394 $395 reversed $62 $-1 #
coedge $-1 $396 $397 $158 $268 forward $398 $-1 #
edge $-1 $399 -72.817163609729306 $273 72.817163609729306 $267 $400 forward 7 unknown #
coedge $-1 $261 $401 $159 $270 reversed $155 $-1 #
edge $-1 $402 -72.817163609729306 $274 72.817163609729306 $269 $403 forward 7 unknown #
coedge $-1 $264 $160 $401 $404 forward $259 $-1 #
coedge $-1 $160 $264 $396 $405 reversed $259 $-1 #
vertex $-1 $405 $406 #
vertex $-1 $161 $407 #
straight-curve $-1 72.817163609729306 13.66950853471273 1.1808873950835261 0 -1 0 I I #
face $-1 $-1 $408 $36 $-1 $409 forward single #
loop $-1 $-1 $287 $162 #
plane-surface $-1 72.817163609729306 0 0 -1 0 0 0 0 1 forward_v I I I I #
coedge $-1 $410 $411 $166 $285 forward $163 $-1 #
coedge $-1 $281 $165 $167 $286 reversed $101 $-1 #
coedge $-1 $165 $280 $412 $413 reversed $101 $-1 #
coedge $-1 $414 $168 $165 $283 forward $277 $-1 #
edge $-1 $289 -100.28253416451555 $415 -94.161402245722925 $282 $416 forward 7 unknown #
coedge $-1 $167 $166 $417 $418 reversed $65 $-1 #
edge $-1 $419 84.638992275486629 $288 91.937605216403028 $279 $420 forward 7 unknown #
edge $-1 $421 138.33571427854218 $289 145.63432721945858 $280 $422 forward 7 unknown #
coedge $-1 $168 $414 $410 $423 forward $277 $-1 #
vertex $-1 $285 $424 #
vertex $-1 $169 $425 #
straight-curve $-1 72.817163609729306 -9.3995357714221655 0.89229440500768931 0 1 0 I I #
coedge $-1 $291 $291 $-1 $426 reversed $172 $-1 #
edge $-1 $427 0 $427 6.2831853071796004 $173 $428 forward 7 unknown #
vertex $-1 $176 $429 #
ellipse-curve $-1 70.829608900164672 -21.631902927043875 3.9528603644039824 0.83867057594974714 0 0.54463902268945019 0.13615975567236255 0 -0.20966764398743679 1 I I #
coedge $-1 $295 $295 $-1 $430 reversed $179 $-1 #
edge $-1 $431 0 $431 6.2831853071796004 $180 $432 forward 7 unknown #
vertex $-1 $183 $433 #
ellipse-curve $-1 70.829608900164672 -18.799071542844331 3.9528603644039824 0.83867057594974714 0 0.54463902268945019 0.13615975567236255 0 -0.20966764398743679 1 I I #
coedge $-1 $299 $299 $-1 $434 reversed $186 $-1 #
edge $-1 $435 0 $435 6.2831853071796004 $187 $436 forward 7 unknown #
vertex $-1 $190 $437 #
ellipse-curve $-1 70.829608900164672 -15.966240158644787 3.9528603644039824 0.83867057594974714 0 0.54463902268945019 0.13615975567236255 0 -0.20966764398743679 1 I I #
face $-1 $-1 $438 $40 $-1 $439 forward single #
loop $-1 $-1 $312 $191 #
plane-surface $-1 0 23.520457183176898 -0.79869804273293443 0 1 0 0 0 1 forward_v I I I I #
coedge $-1 $197 $440 $441 $442 forward $192 $-1 #
coedge $-1 $308 $194 $196 $314 reversed $120 $-1 #
coedge $-1 $194 $307 $443 $444 reversed $120 $-1 #
coedge $-1 $440 $197 $194 $310 forward $192 $-1 #
edge $-1 $316 -57.987243051100656 $445 -51.308074988283984 $309 $446 forward 7 unknown #
coedge $-1 $196 $195 $447 $448 reversed $77 $-1 #
coedge $-1 $441 $449 $195 $313 forward $304 $-1 #
edge $-1 $450 17.637897402428781 $315 28.736271024404584 $312 $451 forward 7 unknown #
edge $-1 $452 -11.098373621975805 $316 0 $307 $453 forward 7 unknown #
vertex $-1 $313 $454 #
vertex $-1 $198 $455 #
straight-curve $-1 -72.817163609729306 9.7298001816341078 0.33425826098364675 0 -1 0 I I #
coedge $-1 $318 $318 $-1 $456 reversed $201 $-1 #
edge $-1 $457 0 $457 6.2831853071796004 $202 $458 forward 7 unknown #
vertex $-1 $205 $459 #
ellipse-curve $-1 -68.38538600244749 17.02308627132301 3.6738422923919805 -0.6018150307709319 0 0.79863550430605224 0.39931775215302612 0 0.30090751538546595 1 I I #
coedge $-1 $322 $322 $-1 $460 reversed $208 $-1 #
edge $-1 $461 0 $461 6.2831853071796004 $209 $462 forward 7 unknown #
vertex $-1 $212 $463 #
ellipse-curve $-1 -68.38538600244749 19.459600363268216 3.6738422923919805 -0.6018150307709319 0 0.79863550430605224 0.39931775215302612 0 0.30090751538546595 1 I I #
coedge $-1 $326 $326 $-1 $464 reversed $215 $-1 #
edge $-1 $465 0 $465 6.2831853071796004 $216 $466 forward 7 unknown #
vertex $-1 $219 $467 #
ellipse-curve $-1 -68.38538600244749 21.896114455213429 3.6738422923919805 -0.6018150307709319 0 0.79863550430605224 0.39931775215302612 0 0.30090751538546595 1 I I #
face $-1 $-1 $235 $33 $-1 $468 reversed single #
loop $-1 $-1 $346 $220 #
plane-surface $-1 0 31.157576955674024 0 0 -1 0 0 0 -1 forward_v I I I I #
coedge $-1 $469 $344 $347 $470 forward $221 $-1 #
coedge $-1 $350 $223 $224 $338 reversed $139 $-1 #
coedge $-1 $344 $469 $223 $336 reversed $221 $-1 #
edge $-1 $351 -7.0134263238003145 $471 7.0134263238003145 $335 $472 forward 7 unknown #
coedge $-1 $225 $224 $469 $473 forward $89 $-1 #
edge $-1 $342 -72.817163609729306 $471 72.817163609729306 $334 $474 forward 7 unknown #
coedge $-1 $347 $346 $225 $340 reversed $331 $-1 #
edge $-1 $475 -72.817163609729306 $341 72.817163609729306 $339 $476 forward 7 unknown #
vertex $-1 $227 $477 #
vertex $-1 $353 $478 #
straight-curve $-1 72.817163609729306 0 -7.0134263238003145 0 -1 0 I I #
coedge $-1 $333 $335 $228 $345 reversed $221 $-1 #
edge $-1 $348 -31.157576955674024 $351 31.157576955674024 $344 $479 forward 7 unknown #
coedge $-1 $339 $229 $234 $354 forward $331 $-1 #
coedge $-1 $229 $339 $333 $470 reversed $331 $-1 #
vertex $-1 $230 $480 #
straight-curve $-1 0 31.157576955674024 7.0134263238003145 -1 0 0 I I #
coedge $-1 $231 $334 $233 $353 reversed $139 $-1 #
vertex $-1 $345 $481 #
straight-curve $-1 0 -31.157576955674024 7.0134263238003145 1 0 0 I I #
edge $-1 $236 -7.0134263238003145 $342 7.0134263238003145 $233 $482 forward 7 unknown #
edge $-1 $237 -7.0134263238003145 $341 7.0134263238003145 $234 $483 forward 7 unknown #
point $-1 72.817163609729306 -31.157576955674024 7.0134263238003145 #
point $-1 72.817163609729306 31.157576955674024 7.0134263238003145 #
face $-1 $-1 $254 $34 $-1 $484 reversed single #
loop $-1 $-1 $250 $239 #
plane-surface $-1 0 -31.157576955674024 0 0 1 0 0 0 1 forward_v I I I I #
coedge $-1 $485 $486 $247 $370 forward $240 $-1 #
coedge $-1 $371 $242 $244 $366 reversed $147 $-1 #
edge $-1 $368 -2.3789344591829278 $255 1.5802364164499934 $253 $487 forward 7 unknown #
coedge $-1 $244 $243 $488 $489 reversed $93 $-1 #
coedge $-1 $375 $374 $243 $365 forward $358 $-1 #
edge $-1 $490 -72.817163609729306 $367 72.817163609729306 $364 $491 forward 7 unknown #
edge $-1 $492 -72.817163609729306 $368 72.817163609729306 $361 $493 forward 7 unknown #
vertex $-1 $365 $494 #
vertex $-1 $246 $495 #
straight-curve $-1 72.817163609729306 -13.669508534712731 -2.778283480549395 0 1 0 I I #
edge $-1 $376 -17.488068420961291 $372 -9.8509486484641702 $360 $496 forward 7 unknown #
coedge $-1 $248 $361 $485 $497 reversed $147 $-1 #
vertex $-1 $370 $498 #
straight-curve $-1 0 -23.520457183176902 1.1808873950835261 -1 0 0 I I #
coedge $-1 $364 $250 $486 $499 forward $358 $-1 #
coedge $-1 $250 $364 $252 $378 reversed $358 $-1 #
vertex $-1 $499 $500 #
straight-curve $-1 0 -31.157576955674024 1.1808873950835261 -1 0 0 I I #
edge $-1 $256 -1.1808873950835261 $367 2.778283480549395 $252 $501 forward 7 unknown #
point $-1 72.817163609729306 -23.520457183176902 1.1808873950835261 #
point $-1 72.817163609729306 -31.157576955674024 1.1808873950835261 #
face $-1 $-1 $398 $35 $-1 $502 reversed single #
loop $-1 $-1 $394 $258 #
plane-surface $-1 -72.817163609729306 0 0 1 0 0 0 0 -1 forward_v I I I I #
coedge $-1 $401 $261 $262 $388 reversed $155 $-1 #
coedge $-1 $394 $503 $261 $386 forward $382 $-1 #
edge $-1 $504 -2.3789344591829278 $402 1.5802364164499934 $385 $505 forward 7 unknown #
coedge $-1 $263 $262 $503 $506 reversed $97 $-1 #
edge $-1 $391 -72.817163609729306 $504 72.817163609729306 $384 $507 forward 7 unknown #
coedge $-1 $397 $396 $263 $390 forward $398 $-1 #
edge $-1 $392 -72.817163609729306 $508 72.817163609729306 $389 $509 forward 7 unknown #
vertex $-1 $265 $510 #
vertex $-1 $390 $511 #
straight-curve $-1 72.817163609729306 13.66950853471273 -2.778283480549395 0 1 0 I I #
coedge $-1 $512 $385 $266 $395 forward $382 $-1 #
edge $-1 $402 9.8509486484641684 $399 17.488068420961291 $394 $513 forward 7 unknown #
coedge $-1 $389 $267 $272 $405 forward $398 $-1 #
coedge $-1 $267 $389 $512 $514 reversed $398 $-1 #
loop $-1 $-1 $267 $381 #
vertex $-1 $514 $515 #
straight-curve $-1 0 31.157576955674024 1.1808873950835261 1 0 0 I I #
coedge $-1 $269 $384 $271 $404 reversed $155 $-1 #
vertex $-1 $395 $516 #
straight-curve $-1 0 23.520457183176898 1.1808873950835261 1 0 0 I I #
edge $-1 $274 -1.5802364164499934 $391 2.3789344591829278 $271 $517 forward 7 unknown #
edge $-1 $273 -1.1808873950835261 $392 2.778283480549395 $272 $518 forward 7 unknown #
point $-1 72.817163609729306 31.157576955674021 1.1808873950835261 #
point $-1 72.817163609729306 23.520457183176898 1.1808873950835261 #
loop $-1 $-1 $519 $276 #
plane-surface $-1 0 0 7.0134263238003145 0 0 1 1 0 0 forward_v I I I I #
coedge $-1 $411 $279 $287 $423 reversed $163 $-1 #
coedge $-1 $279 $410 $519 $520 reversed $163 $-1 #
coedge $-1 $417 $521 $281 $413 forward $408 $-1 #
edge $-1 $415 -14.998038084686769 $421 -11.022928665557487 $412 $522 forward 7 unknown #
coedge $-1 $287 $282 $521 $523 reversed $277 $-1 #
vertex $-1 $413 $524 #
straight-curve $-1 72.817163609729306 -14.077685902511758 101.17482856952324 0 0 1 I I #
coedge $-1 $519 $412 $284 $418 forward $408 $-1 #
edge $-1 $421 4.678150131089593 $419 14.120921411754736 $417 $525 forward 7 unknown #
vertex $-1 $520 $526 #
straight-curve $-1 22.744356156259062 -23.520457183176902 77.997658723288879 0.54463902268945019 0 -0.83867057594974714 I I #
vertex $-1 $418 $527 #
straight-curve $-1 -6.5009740371122149 -14.077685902511758 123.03151949220495 0.54463902268945019 0 -0.83867057594974714 I I #
edge $-1 $528 94.161402245722925 $288 100.28253416451555 $287 $529 forward 7 unknown #
point $-1 72.817163609729306 -23.520457183176902 0.89229440500768331 #
point $-1 72.817163609729306 -14.077685902511758 0.89229440500768931 #
edge $-1 $530 1 $530 0 $291 $-1 forward 7 unknown #
vertex $-1 $292 $531 #
ellipse-curve $-1 69.990938324214895 -21.631902927043875 3.4082213417145089 0.83867057594974714 0 0.54463902268945019 0.13615975567236255 0 -0.20966764398743679 1 I I #
point $-1 70.965768655836996 -21.631902927043875 3.7431927204165225 #
edge $-1 $532 1 $532 0 $295 $-1 forward 7 unknown #
vertex $-1 $296 $533 #
ellipse-curve $-1 69.990938324214895 -18.799071542844331 3.4082213417145089 0.83867057594974714 0 0.54463902268945019 0.13615975567236255 0 -0.20966764398743679 1 I I #
point $-1 70.965768655836996 -18.799071542844331 3.7431927204165225 #
edge $-1 $534 1 $534 0 $299 $-1 forward 7 unknown #
vertex $-1 $300 $535 #
ellipse-curve $-1 69.990938324214895 -15.966240158644787 3.4082213417145089 0.83867057594974714 0 0.54463902268945019 0.13615975567236255 0 -0.20966764398743679 1 I I #
point $-1 70.965768655836996 -15.966240158644787 3.7431927204165225 #
loop $-1 $-1 $536 $303 #
plane-surface $-1 0 0 7.0134263238003145 0 0 1 1 0 0 forward_v I I I I #
coedge $-1 $306 $309 $537 $538 reversed $192 $-1 #
coedge $-1 $449 $312 $306 $442 reversed $304 $-1 #
edge $-1 $539 51.308074988283984 $315 57.987243051100656 $306 $540 forward 7 unknown #
coedge $-1 $447 $537 $308 $444 forward $438 $-1 #
edge $-1 $445 7.4138817535765753 $452 16.277436968140208 $443 $541 forward 7 unknown #
vertex $-1 $310 $542 #
straight-curve $-1 -72.817163609729306 15.398743543359533 58.321501312084301 0 0 1 I I #
coedge $-1 $536 $443 $311 $448 forward $438 $-1 #
edge $-1 $452 5.6689433617254252 $450 13.79065700154279 $447 $543 forward 7 unknown #
coedge $-1 $312 $441 $536 $544 reversed $304 $-1 #
vertex $-1 $544 $545 #
straight-curve $-1 -49.867357308278557 23.520457183176898 17.628178091777528 -0.79863550430605224 0 -0.6018150307709319 I I #
vertex $-1 $448 $546 #
straight-curve $-1 -72.817163609729306 15.398743543359533 0.33425826098364553 -0.79863550430605224 0 -0.6018150307709319 I I #
point $-1 -72.817163609729306 23.520457183176898 0.33425826098364553 #
point $-1 -72.817163609729306 15.398743543359533 0.33425826098364553 #
edge $-1 $547 1 $547 0 $318 $-1 forward 7 unknown #
vertex $-1 $319 $548 #
ellipse-curve $-1 -67.59673777362616 17.02308627132301 2.6272707650275677 -0.6018150307709319 0 0.79863550430605224 0.39931775215302612 0 0.30090751538546595 1 I I #
point $-1 -67.986068250294466 17.02308627132301 3.9747498077774468 #
edge $-1 $549 1 $549 0 $322 $-1 forward 7 unknown #
vertex $-1 $323 $550 #
ellipse-curve $-1 -67.59673777362616 19.459600363268216 2.6272707650275677 -0.6018150307709319 0 0.79863550430605224 0.39931775215302612 0 0.30090751538546595 1 I I #
point $-1 -67.986068250294466 19.459600363268216 3.9747498077774468 #
edge $-1 $551 1 $551 0 $326 $-1 forward 7 unknown #
vertex $-1 $327 $552 #
ellipse-curve $-1 -67.59673777362616 21.896114455213429 2.6272707650275677 -0.6018150307709319 0 0.79863550430605224 0.39931775215302612 0 0.30090751538546595 1 I I #
point $-1 -67.986068250294466 21.896114455213429 3.9747498077774468 #
plane-surface $-1 72.817163609729306 0 0 -1 0 0 0 0 1 forward_v I I I I #
coedge $-1 $335 $333 $337 $473 reversed $221 $-1 #
edge $-1 $348 -7.0134263238003145 $475 7.0134263238003145 $347 $553 forward 7 unknown #
vertex $-1 $473 $554 #
straight-curve $-1 -72.817163609729306 -31.157576955674024 0 0 0 -1 I I #
edge $-1 $471 -31.157576955674024 $475 31.157576955674024 $469 $555 forward 7 unknown #
straight-curve $-1 0 -31.157576955674024 -7.0134263238003145 -1 0 0 I I #
vertex $-1 $340 $556 #
straight-curve $-1 0 31.157576955674024 -7.0134263238003145 1 0 0 I I #
point $-1 72.817163609729306 31.157576955674024 -7.0134263238003145 #
point $-1 72.817163609729306 -31.157576955674024 -7.0134263238003145 #
straight-curve $-1 -72.817163609729306 0 7.0134263238003145 0 -1 0 I I #
point $-1 -72.817163609729306 31.157576955674024 7.0134263238003145 #
point $-1 -72.817163609729306 -31.157576955674024 7.0134263238003145 #
straight-curve $-1 72.817163609729306 -31.157576955674024 0 0 0 -1 I I #
straight-curve $-1 72.817163609729306 31.157576955674024 0 0 0 -1 I I #
plane-surface $-1 72.817163609729306 0 0 -1 0 0 0 0 1 forward_v I I I I #
coedge $-1 $488 $360 $371 $497 forward $240 $-1 #
coedge $-1 $360 $488 $374 $499 reversed $240 $-1 #
straight-curve $-1 72.817163609729306 -23.520457183176902 -0.39934902136646722 0 0 1 I I #
coedge $-1 $486 $485 $363 $489 forward $240 $-1 #
edge $-1 $492 9.8509486484641702 $490 17.488068420961291 $488 $557 forward 7 unknown #
vertex $-1 $365 $558 #
straight-curve $-1 0 -31.157576955674024 -2.778283480549395 1 0 0 I I #
vertex $-1 $489 $559 #
straight-curve $-1 0 -23.520457183176902 -2.778283480549395 1 0 0 I I #
point $-1 72.817163609729306 -31.157576955674024 -2.778283480549395 #
point $-1 72.817163609729306 -23.520457183176902 -2.778283480549395 #
straight-curve $-1 -72.817163609729306 -13.669508534712731 1.1808873950835261 0 1 0 I I #
edge $-1 $372 -1.5802364164499934 $492 2.3789344591829278 $485 $560 forward 7 unknown #
point $-1 -72.817163609729306 -23.520457183176902 1.1808873950835261 #
edge $-1 $376 -1.1808873950835261 $490 2.778283480549395 $486 $561 forward 7 unknown #
point $-1 -72.817163609729306 -31.157576955674024 1.1808873950835261 #
straight-curve $-1 72.817163609729306 -31.157576955674024 0 0 0 -1 I I #
plane-surface $-1 0 31.157576955674024 0 0 -1 0 0 0 -1 forward_v I I I I #
coedge $-1 $385 $512 $387 $506 forward $382 $-1 #
vertex $-1 $506 $562 #
straight-curve $-1 -72.817163609729306 23.520457183176898 -0.39934902136646722 0 0 1 I I #
edge $-1 $508 -17.488068420961291 $504 -9.8509486484641684 $503 $563 forward 7 unknown #
straight-curve $-1 0 23.520457183176898 -2.778283480549395 -1 0 0 I I #
vertex $-1 $390 $564 #
straight-curve $-1 0 31.157576955674024 -2.778283480549395 -1 0 0 I I #
point $-1 72.817163609729306 23.520457183176898 -2.778283480549395 #
point $-1 72.817163609729306 31.157576955674021 -2.778283480549395 #
coedge $-1 $503 $394 $397 $514 forward $382 $-1 #
straight-curve $-1 -72.817163609729306 13.66950853471273 1.1808873950835261 0 1 0 I I #
edge $-1 $399 -1.1808873950835261 $508 2.778283480549395 $397 $565 forward 7 unknown #
point $-1 -72.817163609729306 31.157576955674021 1.1808873950835261 #
point $-1 -72.817163609729306 23.520457183176898 1.1808873950835261 #
straight-curve $-1 72.817163609729306 23.520457183176898 -0.39934902136646722 0 0 -1 I I #
straight-curve $-1 72.817163609729306 31.157576955674024 0 0 0 -1 I I #
coedge $-1 $521 $417 $411 $520 forward $408 $-1 #
edge $-1 $419 11.022928665557487 $528 14.998038084686769 $519 $566 forward 7 unknown #
coedge $-1 $412 $519 $414 $523 forward $408 $-1 #
straight-curve $-1 57.819125525042537 -14.077685902511758 7.0134263238003172 -1 0 0 I I #
edge $-1 $528 -23.520457183176902 $415 -14.077685902511758 $414 $567 forward 7 unknown #
point $-1 72.817163609729306 -14.077685902511758 7.0134263238003145 #
straight-curve $-1 68.84205419060001 -9.3995357714221655 7.0134263238003172 0 -1 0 I I #
point $-1 68.842054190600024 -23.520457183176902 7.0134263238003172 #
point $-1 68.842054190600024 -14.077685902511758 7.0134263238003172 #
vertex $-1 $523 $568 #
straight-curve $-1 72.817163609729306 -23.520457183176902 101.17482856952324 0 0 -1 I I #
vertex $-1 $426 $569 #
point $-1 70.127098079887247 -21.631902927043875 3.1985536977270721 #
vertex $-1 $430 $570 #
point $-1 70.127098079887247 -18.799071542844331 3.1985536977270721 #
vertex $-1 $434 $571 #
point $-1 70.127098079887247 -15.966240158644787 3.1985536977270721 #
coedge $-1 $537 $447 $449 $544 forward $438 $-1 #
coedge $-1 $443 $536 $440 $538 forward $438 $-1 #
edge $-1 $539 -23.520457183176898 $445 -15.398743543359533 $440 $572 forward 7 unknown #
vertex $-1 $538 $573 #
straight-curve $-1 -72.817163609729306 23.520457183176898 58.321501312084301 0 0 -1 I I #
straight-curve $-1 -80.231045363305881 15.398743543359533 7.0134263238003172 1 0 0 I I #
point $-1 -72.817163609729306 15.398743543359533 7.0134263238003145 #
straight-curve $-1 -63.953608395165674 9.7298001816341078 7.0134263238003136 0 1 0 I I #
edge $-1 $450 -16.277436968140208 $539 -7.4138817535765753 $536 $574 forward 7 unknown #
point $-1 -63.953608395165674 23.520457183176898 7.0134263238003145 #
point $-1 -63.953608395165674 15.398743543359533 7.0134263238003145 #
vertex $-1 $456 $575 #
point $-1 -67.197420021473135 17.02308627132301 2.9281782804130336 #
vertex $-1 $460 $576 #
point $-1 -67.197420021473135 19.459600363268216 2.9281782804130336 #
vertex $-1 $464 $577 #
point $-1 -67.197420021473135 21.896114455213429 2.9281782804130336 #
straight-curve $-1 -72.817163609729306 31.157576955674024 0 0 0 -1 I I #
point $-1 -72.817163609729306 -31.157576955674024 -7.0134263238003145 #
straight-curve $-1 -72.817163609729306 0 -7.0134263238003145 0 1 0 I I #
point $-1 -72.817163609729306 31.157576955674024 -7.0134263238003145 #
straight-curve $-1 -72.817163609729306 -13.669508534712731 -2.778283480549395 0 -1 0 I I #
point $-1 -72.817163609729306 -31.157576955674024 -2.778283480549395 #
point $-1 -72.817163609729306 -23.520457183176902 -2.778283480549395 #
straight-curve $-1 -72.817163609729306 -23.520457183176902 -0.39934902136646722 0 0 -1 I I #
straight-curve $-1 -72.817163609729306 -31.157576955674024 0 0 0 -1 I I #
point $-1 -72.817163609729306 23.520457183176898 -2.778283480549395 #
straight-curve $-1 -72.817163609729306 13.66950853471273 -2.778283480549395 0 -1 0 I I #
point $-1 -72.817163609729306 31.157576955674021 -2.778283480549395 #
straight-curve $-1 -72.817163609729306 31.157576955674024 0 0 0 -1 I I #
straight-curve $-1 57.819125525042537 -23.520457183176902 7.0134263238003172 1 0 0 I I #
straight-curve $-1 72.817163609729306 0 7.0134263238003145 0 1 0 I I #
point $-1 72.817163609729306 -23.520457183176902 7.0134263238003145 #
point $-1 69.78127068022745 -21.631902927043875 3.2720615860421467 #
point $-1 69.78127068022745 -18.799071542844331 3.2720615860421467 #
point $-1 69.78127068022745 -15.966240158644787 3.2720615860421467 #
straight-curve $-1 -72.817163609729306 0 7.0134263238003145 0 -1 0 I I #
point $-1 -72.817163609729306 23.520457183176898 7.0134263238003145 #
straight-curve $-1 -80.231045363305881 23.520457183176898 7.0134263238003172 -1 0 0 I I #
point $-1 -67.295830258240699 17.02308627132301 2.2279530128745417 #
point $-1 -67.295830258240699 19.459600363268216 2.2279530128745417 #
point $-1 -67.295830258240699 21.896114455213429 2.2279530128745417 #
End-of-ACIS-data 