500 0 5 0           
7 Unknown 11 ACIS 5.0 NT 24 Thu Mar 25 23:17:14 1999 
-1 9.9999999999999995e-007 1e-010 
body $-1 $5 $-1 $6 #
body $-1 $7 $-1 $8 #
body $-1 $9 $-1 $10 #
body $-1 $11 $-1 $12 #
body $-1 $13 $-1 $14 #
lump $-1 $-1 $15 $0 #
transform $-1 1 0 0 0 1 0 0 0 1 55.476546525467697 26.009149541720017 6.3372248942895073 1 rotate no_reflect no_shear #
lump $-1 $-1 $16 $1 #
transform $-1 1 0 0 0 1 0 0 0 1 55.476546525467697 26.009149541720017 6.3372248942895073 1 rotate no_reflect no_shear #
lump $-1 $-1 $17 $2 #
transform $-1 1 0 0 0 1 0 0 0 1 55.476546525467697 26.009149541720017 6.3372248942895073 1 rotate no_reflect no_shear #
lump $-1 $-1 $18 $3 #
transform $-1 1 0 0 0 1 0 0 0 1 55.476546525467697 26.009149541720017 6.3372248942895073 1 rotate no_reflect no_shear #
lump $-1 $-1 $19 $4 #
transform $-1 1 0 0 0 1 0 0 0 1 55.476546525467697 26.009149541720017 6.3372248942895073 1 rotate no_reflect no_shear #
shell $-1 $-1 $-1 $20 $-1 $5 #
shell $-1 $-1 $-1 $21 $-1 $7 #
shell $-1 $-1 $-1 $22 $-1 $9 #
shell $-1 $-1 $-1 $23 $-1 $11 #
shell $-1 $-1 $-1 $24 $-1 $13 #
face $-1 $25 $26 $15 $-1 $27 forward single #
face $-1 $28 $29 $16 $-1 $30 forward single #
face $-1 $31 $32 $17 $-1 $33 reversed single #
face $-1 $34 $35 $18 $-1 $36 forward single #
face $-1 $37 $38 $19 $-1 $39 forward single #
face $-1 $40 $41 $15 $-1 $42 reversed single #
loop $-1 $-1 $43 $20 #
plane-surface $-1 0 0 6.3372248942895073 0 0 1 1 0 0 forward_v I I I I #
face $-1 $44 $45 $16 $-1 $46 reversed single #
loop $-1 $-1 $47 $21 #
plane-surface $-1 0 -26.009149541720017 0 0 1 0 0 0 1 forward_v I I I I #
face $-1 $48 $49 $17 $-1 $50 reversed single #
loop $-1 $-1 $51 $22 #
plane-surface $-1 -132.55104224707162 3.7172311629780523 82.697489331223011 0 1 0 -0.69465837861970381 0 0.71933979245794832 forward_v I I I I #
face $-1 $52 $53 $18 $-1 $54 forward single #
loop $-1 $55 $56 $23 #
cone-surface $-1 -52.851583013388208 6.9815508385924367 3.7438508261449526 0.69465837861970381 0 -0.71933979245794832 0.71933979245794832 0 0.69465837861970381 1 I I 0 1 1 forward I I I I #
face $-1 $57 $58 $19 $-1 $59 forward single #
loop $-1 $60 $61 $24 #
cone-surface $-1 -52.851583013388208 11.878030352014026 3.7438508261449526 0.69465837861970381 0 -0.71933979245794832 0.71933979245794832 0 0.69465837861970381 1 I I 0 1 1 forward I I I I #
face $-1 $62 $63 $15 $-1 $64 reversed single #
loop $-1 $-1 $65 $25 #
plane-surface $-1 0 0 -6.3372248942895073 0 0 1 1 0 0 forward_v I I I I #
coedge $-1 $66 $67 $68 $69 forward $26 $-1 #
face $-1 $70 $71 $16 $-1 $72 reversed single #
loop $-1 $-1 $73 $28 #
plane-surface $-1 0 0 -6.3372248942895073 0 0 1 1 0 0 forward_v I I I I #
coedge $-1 $74 $75 $76 $77 forward $29 $-1 #
face $-1 $78 $79 $17 $-1 $80 reversed single #
loop $-1 $-1 $81 $31 #
plane-surface $-1 -55.476546525467711 9.4297905953032348 2.8845144033957126 -0.69465837861970381 0 0.71933979245794832 0.71933979245794832 0 0.69465837861970381 forward_v I I I I #
coedge $-1 $82 $83 $84 $85 reversed $32 $-1 #
face $-1 $-1 $86 $18 $-1 $87 forward single #
loop $-1 $88 $89 $34 #
cone-surface $-1 -51.666983460444008 6.9815508385924367 2.5171621072183186 0.69465837861970381 0 -0.71933979245794832 0.35966989622897416 0 0.3473291893098519 1 I I -0.70710678118654746 0.70710678118654746 0.5 forward I I I I #
loop $-1 $-1 $90 $23 #
coedge $-1 $56 $56 $91 $92 reversed $35 $-1 #
face $-1 $-1 $93 $19 $-1 $94 forward single #
loop $-1 $95 $96 $37 #
cone-surface $-1 -51.666983460444008 11.878030352014026 2.5171621072183186 0.69465837861970381 0 -0.71933979245794832 0.35966989622897416 0 0.3473291893098519 1 I I -0.70710678118654746 0.70710678118654746 0.5 forward I I I I #
loop $-1 $-1 $97 $24 #
coedge $-1 $61 $61 $98 $99 reversed $38 $-1 #
face $-1 $100 $101 $15 $-1 $102 reversed single #
loop $-1 $-1 $103 $40 #
plane-surface $-1 0 -26.009149541720017 0 0 1 0 0 0 1 forward_v I I I I #
coedge $-1 $104 $105 $106 $107 forward $41 $-1 #
coedge $-1 $108 $43 $109 $110 forward $26 $-1 #
coedge $-1 $43 $108 $111 $112 forward $26 $-1 #
coedge $-1 $113 $114 $43 $69 reversed $115 $-1 #
edge $-1 $116 -26.009149541720017 $117 26.009149541720017 $68 $118 forward 7 unknown #
face $-1 $119 $120 $16 $-1 $121 reversed single #
loop $-1 $-1 $122 $44 #
plane-surface $-1 -44.634335497868648 -30.384718352410378 0 0 1 0 0 0 1 forward_v I I I I #
coedge $-1 $123 $124 $75 $125 forward $45 $-1 #
coedge $-1 $126 $47 $127 $128 reversed $29 $-1 #
coedge $-1 $47 $126 $73 $125 reversed $29 $-1 #
coedge $-1 $129 $130 $47 $77 reversed $120 $-1 #
edge $-1 $131 -6.3372248942895073 $132 6.3372248942895073 $76 $133 forward 7 unknown #
face $-1 $134 $135 $17 $-1 $136 reversed single #
loop $-1 $-1 $137 $48 #
plane-surface $-1 -132.55104224707162 15.142350027628417 82.697489331223011 0 -1 0 0.69465837861970381 0 -0.71933979245794832 forward_v I I I I #
coedge $-1 $138 $139 $140 $141 reversed $49 $-1 #
coedge $-1 $83 $51 $142 $143 reversed $32 $-1 #
coedge $-1 $51 $82 $138 $144 reversed $32 $-1 #
coedge $-1 $140 $145 $51 $85 forward $146 $-1 #
edge $-1 $147 10.798974598068114 $148 14.3743608949584 $84 $149 forward 7 unknown #
loop $-1 $-1 $91 $52 #
plane-surface $-1 -55.476546525467711 9.4297905953032348 2.8845144033957126 -0.69465837861970381 0 0.71933979245794832 0.71933979245794832 0 0.69465837861970381 forward_v I I I I #
loop $-1 $-1 $150 $34 #
coedge $-1 $89 $89 $90 $151 reversed $53 $-1 #
coedge $-1 $90 $90 $89 $151 forward $55 $-1 #
coedge $-1 $91 $91 $56 $92 forward $86 $-1 #
edge $-1 $152 0 $152 6.2831853071796004 $91 $153 forward 7 unknown #
loop $-1 $-1 $98 $57 #
plane-surface $-1 -55.476546525467711 9.4297905953032348 2.8845144033957126 -0.69465837861970381 0 0.71933979245794832 0.71933979245794832 0 0.69465837861970381 forward_v I I I I #
loop $-1 $-1 $154 $37 #
coedge $-1 $96 $96 $97 $155 reversed $58 $-1 #
coedge $-1 $97 $97 $96 $155 forward $60 $-1 #
coedge $-1 $98 $98 $61 $99 forward $93 $-1 #
edge $-1 $156 0 $156 6.2831853071796004 $98 $157 forward 7 unknown #
face $-1 $158 $159 $15 $-1 $160 reversed single #
loop $-1 $-1 $161 $62 #
plane-surface $-1 -55.476546525467697 0 0 1 0 0 0 0 -1 forward_v I I I I #
coedge $-1 $162 $111 $163 $164 forward $63 $-1 #
coedge $-1 $165 $65 $162 $166 forward $41 $-1 #
coedge $-1 $65 $165 $167 $168 forward $41 $-1 #
coedge $-1 $114 $113 $65 $107 reversed $115 $-1 #
edge $-1 $169 -26.009149541720017 $170 26.009149541720017 $106 $171 forward 7 unknown #
coedge $-1 $67 $66 $172 $173 forward $26 $-1 #
coedge $-1 $174 $175 $66 $110 reversed $159 $-1 #
edge $-1 $117 -55.476546525467697 $176 55.476546525467697 $109 $177 forward 7 unknown #
coedge $-1 $103 $178 $67 $112 reversed $63 $-1 #
edge $-1 $179 -55.476546525467697 $116 55.476546525467697 $111 $180 forward 7 unknown #
coedge $-1 $106 $68 $178 $181 forward $115 $-1 #
coedge $-1 $68 $106 $174 $182 reversed $115 $-1 #
loop $-1 $-1 $113 $158 #
vertex $-1 $69 $183 #
vertex $-1 $69 $184 #
straight-curve $-1 55.476546525467697 0 6.3372248942895073 0 1 0 I I #
face $-1 $185 $186 $16 $-1 $187 reversed single #
loop $-1 $-1 $76 $70 #
plane-surface $-1 -46.46657425884861 -28.196933947065197 0 1 0 0 0 0 -1 forward_v I I I I #
coedge $-1 $188 $189 $190 $191 forward $71 $-1 #
coedge $-1 $192 $73 $193 $194 forward $45 $-1 #
coedge $-1 $73 $192 $129 $195 forward $45 $-1 #
edge $-1 $131 -46.46657425884861 $196 -42.802096736888686 $73 $197 forward 7 unknown #
coedge $-1 $75 $74 $198 $199 forward $29 $-1 #
coedge $-1 $200 $201 $74 $128 forward $202 $-1 #
edge $-1 $203 42.802096736888686 $132 46.46657425884861 $127 $204 forward 7 unknown #
coedge $-1 $190 $76 $124 $195 reversed $120 $-1 #
coedge $-1 $76 $190 $200 $205 reversed $120 $-1 #
vertex $-1 $125 $206 #
vertex $-1 $205 $207 #
straight-curve $-1 -46.46657425884861 -26.009149541720017 0 0 0 1 I I #
face $-1 $-1 $146 $17 $-1 $208 forward single #
loop $-1 $-1 $209 $78 #
plane-surface $-1 -55.476546525467697 0 0 1 0 0 0 0 -1 forward_v I I I I #
coedge $-1 $210 $211 $212 $213 reversed $79 $-1 #
coedge $-1 $214 $81 $83 $144 forward $49 $-1 #
coedge $-1 $81 $214 $210 $215 forward $49 $-1 #
coedge $-1 $212 $84 $81 $141 forward $146 $-1 #
edge $-1 $148 -0.99766413467356507 $216 10.4274547299768 $140 $217 forward 7 unknown #
coedge $-1 $218 $219 $82 $143 forward $135 $-1 #
edge $-1 $220 -38.464230262215779 $147 -35.011519771322 $142 $221 forward 7 unknown #
edge $-1 $148 -4.9703719082095859 $220 -1.9785632286268914e-014 $83 $222 forward 7 unknown #
coedge $-1 $84 $212 $218 $223 forward $146 $-1 #
loop $-1 $-1 $212 $134 #
vertex $-1 $143 $224 #
vertex $-1 $85 $225 #
straight-curve $-1 -66.27552112353581 3.7172311629780523 6.3372248942895055 1 0 0 I I #
coedge $-1 $150 $150 $-1 $226 reversed $88 $-1 #
edge $-1 $227 0 $227 6.2831853071796004 $89 $228 forward 7 unknown #
vertex $-1 $92 $229 #
ellipse-curve $-1 -53.688853377022554 6.9815508385924367 4.6108696488426153 -0.69465837861970381 0 0.71933979245794832 0.71933979245794832 0 0.69465837861970381 1 I I #
coedge $-1 $154 $154 $-1 $230 reversed $95 $-1 #
edge $-1 $231 0 $231 6.2831853071796004 $96 $232 forward 7 unknown #
vertex $-1 $99 $233 #
ellipse-curve $-1 -53.688853377022554 11.878030352014026 4.6108696488426153 -0.69465837861970381 0 0.71933979245794832 0.71933979245794832 0 0.69465837861970381 1 I I #
face $-1 $-1 $115 $15 $-1 $234 reversed single #
loop $-1 $-1 $174 $100 #
plane-surface $-1 0 26.009149541720017 0 0 -1 0 0 0 -1 forward_v I I I I #
coedge $-1 $235 $172 $175 $236 forward $101 $-1 #
coedge $-1 $178 $103 $104 $166 reversed $63 $-1 #
coedge $-1 $172 $235 $103 $164 reversed $101 $-1 #
edge $-1 $179 -6.3372248942895073 $237 6.3372248942895073 $163 $238 forward 7 unknown #
coedge $-1 $105 $104 $235 $239 forward $41 $-1 #
edge $-1 $170 -55.476546525467697 $237 55.476546525467697 $162 $240 forward 7 unknown #
coedge $-1 $175 $174 $105 $168 reversed $159 $-1 #
edge $-1 $241 -55.476546525467697 $169 55.476546525467697 $167 $242 forward 7 unknown #
vertex $-1 $107 $243 #
vertex $-1 $181 $244 #
straight-curve $-1 55.476546525467697 0 -6.3372248942895073 0 -1 0 I I #
coedge $-1 $161 $163 $108 $173 reversed $101 $-1 #
edge $-1 $176 -26.009149541720017 $179 26.009149541720017 $172 $245 forward 7 unknown #
coedge $-1 $167 $109 $114 $182 forward $159 $-1 #
coedge $-1 $109 $167 $161 $236 reversed $159 $-1 #
vertex $-1 $110 $246 #
straight-curve $-1 0 26.009149541720017 6.3372248942895073 -1 0 0 I I #
coedge $-1 $111 $162 $113 $181 reversed $63 $-1 #
vertex $-1 $173 $247 #
straight-curve $-1 0 -26.009149541720017 6.3372248942895073 1 0 0 I I #
edge $-1 $116 -6.3372248942895073 $170 6.3372248942895073 $113 $248 forward 7 unknown #
edge $-1 $117 -6.3372248942895073 $169 6.3372248942895073 $114 $249 forward 7 unknown #
point $-1 55.476546525467697 -26.009149541720017 6.3372248942895073 #
point $-1 55.476546525467697 26.009149541720017 6.3372248942895073 #
face $-1 $-1 $202 $16 $-1 $250 forward single #
loop $-1 $-1 $251 $119 #
plane-surface $-1 -42.802096736888686 -28.196933947065197 0 -1 0 0 0 0 1 forward_v I I I I #
coedge $-1 $252 $122 $192 $253 reversed $71 $-1 #
coedge $-1 $122 $252 $254 $255 reversed $71 $-1 #
coedge $-1 $130 $129 $122 $191 reversed $120 $-1 #
edge $-1 $256 -6.3372248942895073 $257 6.3372248942895073 $190 $258 forward 7 unknown #
coedge $-1 $124 $123 $188 $253 forward $45 $-1 #
coedge $-1 $198 $251 $123 $194 reversed $186 $-1 #
edge $-1 $196 -2.1877844053451803 $259 2.1877844053451803 $193 $260 forward 7 unknown #
edge $-1 $257 -2.1877844053451803 $131 2.1877844053451803 $129 $261 forward 7 unknown #
vertex $-1 $194 $262 #
straight-curve $-1 0 -26.009149541720017 -6.3372248942895073 1 0 0 I I #
coedge $-1 $263 $193 $126 $199 reversed $186 $-1 #
edge $-1 $203 -6.3372248942895073 $196 6.3372248942895073 $198 $264 forward 7 unknown #
coedge $-1 $254 $127 $130 $205 forward $202 $-1 #
coedge $-1 $127 $254 $263 $265 forward $202 $-1 #
loop $-1 $-1 $127 $185 #
vertex $-1 $128 $266 #
straight-curve $-1 0 -26.009149541720017 6.3372248942895073 -1 0 0 I I #
edge $-1 $132 -2.1877844053451803 $256 2.1877844053451803 $130 $267 forward 7 unknown #
point $-1 -46.46657425884861 -26.009149541720017 -6.3372248942895073 #
point $-1 -46.46657425884861 -26.009149541720017 6.3372248942895073 #
plane-surface $-1 0 0 6.3372248942895073 0 0 1 1 0 0 forward_v I I I I #
coedge $-1 $219 $218 $211 $268 forward $135 $-1 #
coedge $-1 $211 $137 $139 $215 reversed $79 $-1 #
coedge $-1 $137 $210 $209 $268 reversed $79 $-1 #
coedge $-1 $145 $140 $137 $213 forward $146 $-1 #
edge $-1 $216 -14.3743608949584 $269 -10.798974598068114 $212 $270 forward 7 unknown #
coedge $-1 $139 $138 $219 $271 reversed $49 $-1 #
edge $-1 $272 1.9785632286268914e-014 $216 4.9703719082095859 $210 $273 forward 7 unknown #
vertex $-1 $141 $274 #
straight-curve $-1 -51.90116022857741 4.7148952976516174 6.3372248942895055 0 1 0 I I #
coedge $-1 $209 $142 $145 $223 reversed $135 $-1 #
coedge $-1 $142 $209 $214 $271 forward $135 $-1 #
vertex $-1 $143 $275 #
straight-curve $-1 -55.476546525467697 3.7172311629780523 41.348744665611505 0 0 1 I I #
straight-curve $-1 -55.476546525467711 3.7172311629780523 2.8845144033957126 -0.71933979245794832 0 -0.69465837861970381 I I #
edge $-1 $269 -15.142350027628417 $147 -3.7172311629780523 $218 $276 forward 7 unknown #
point $-1 -55.476546525467697 3.7172311629780523 6.3372248942895073 #
point $-1 -51.90116022857741 3.7172311629780523 6.3372248942895073 #
edge $-1 $277 1 $277 0 $150 $-1 forward 7 unknown #
vertex $-1 $151 $278 #
ellipse-curve $-1 -52.014312649753862 6.9815508385924367 2.8768320034472925 -0.69465837861970381 0 0.71933979245794832 0.71933979245794832 0 0.69465837861970381 1 I I #
point $-1 -52.969513584564602 6.9815508385924367 5.3055280274623158 #
edge $-1 $279 1 $279 0 $154 $-1 forward 7 unknown #
vertex $-1 $155 $280 #
ellipse-curve $-1 -52.014312649753862 11.878030352014026 2.8768320034472925 -0.69465837861970381 0 0.71933979245794832 0.71933979245794832 0 0.69465837861970381 1 I I #
point $-1 -52.969513584564602 11.878030352014026 5.3055280274623158 #
plane-surface $-1 55.476546525467697 0 0 -1 0 0 0 0 1 forward_v I I I I #
coedge $-1 $163 $161 $165 $239 reversed $101 $-1 #
edge $-1 $176 -6.3372248942895073 $241 6.3372248942895073 $175 $281 forward 7 unknown #
vertex $-1 $239 $282 #
straight-curve $-1 -55.476546525467697 -26.009149541720017 0 0 0 -1 I I #
edge $-1 $237 -26.009149541720017 $241 26.009149541720017 $235 $283 forward 7 unknown #
straight-curve $-1 0 -26.009149541720017 -6.3372248942895073 -1 0 0 I I #
vertex $-1 $168 $284 #
straight-curve $-1 0 26.009149541720017 -6.3372248942895073 1 0 0 I I #
point $-1 55.476546525467697 26.009149541720017 -6.3372248942895073 #
point $-1 55.476546525467697 -26.009149541720017 -6.3372248942895073 #
straight-curve $-1 -55.476546525467697 0 6.3372248942895073 0 -1 0 I I #
point $-1 -55.476546525467697 26.009149541720017 6.3372248942895073 #
point $-1 -55.476546525467697 -26.009149541720017 6.3372248942895073 #
straight-curve $-1 55.476546525467697 -26.009149541720017 0 0 0 -1 I I #
straight-curve $-1 55.476546525467697 26.009149541720017 0 0 0 -1 I I #
plane-surface $-1 0 0 6.3372248942895073 0 0 1 1 0 0 forward_v I I I I #
coedge $-1 $193 $263 $252 $285 forward $186 $-1 #
coedge $-1 $189 $188 $251 $285 reversed $71 $-1 #
edge $-1 $259 -1.832238760979962 $257 1.832238760979962 $188 $286 forward 7 unknown #
coedge $-1 $201 $200 $189 $255 forward $202 $-1 #
edge $-1 $256 -1.832238760979962 $287 1.832238760979962 $189 $288 forward 7 unknown #
vertex $-1 $205 $289 #
vertex $-1 $195 $290 #
straight-curve $-1 -46.46657425884861 -30.384718352410378 0 0 0 -1 I I #
vertex $-1 $285 $291 #
straight-curve $-1 -42.802096736888686 -28.196933947065197 -6.3372248942895073 0 -1 0 I I #
straight-curve $-1 -46.46657425884861 -28.196933947065197 -6.3372248942895073 0 1 0 I I #
point $-1 -42.802096736888686 -26.009149541720017 -6.3372248942895073 #
coedge $-1 $251 $198 $201 $265 reversed $186 $-1 #
straight-curve $-1 -42.802096736888686 -26.009149541720017 0 0 0 -1 I I #
edge $-1 $287 -2.1877844053451803 $203 2.1877844053451803 $263 $292 forward 7 unknown #
point $-1 -42.802096736888686 -26.009149541720017 6.3372248942895073 #
straight-curve $-1 -46.46657425884861 -28.196933947065197 6.3372248942895073 0 -1 0 I I #
edge $-1 $269 35.011519771322 $272 38.464230262215779 $209 $293 forward 7 unknown #
vertex $-1 $223 $294 #
straight-curve $-1 -66.27552112353581 15.142350027628417 6.3372248942895055 -1 0 0 I I #
edge $-1 $272 -10.4274547299768 $220 0.99766413467356507 $219 $295 forward 7 unknown #
vertex $-1 $271 $296 #
straight-curve $-1 -55.476546525467711 15.142350027628417 2.8845144033957126 0.71933979245794832 0 0.69465837861970381 I I #
point $-1 -51.90116022857741 15.142350027628417 6.3372248942895073 #
point $-1 -55.476546525467697 3.7172311629780523 2.8845144033957264 #
straight-curve $-1 -55.476546525467697 0 6.3372248942895073 0 -1 0 I I #
vertex $-1 $226 $297 #
point $-1 -51.29497285729591 6.9815508385924367 3.5714903820669965 #
vertex $-1 $230 $298 #
point $-1 -51.29497285729591 11.878030352014026 3.5714903820669965 #
straight-curve $-1 -55.476546525467697 26.009149541720017 0 0 0 -1 I I #
point $-1 -55.476546525467697 -26.009149541720017 -6.3372248942895073 #
straight-curve $-1 -55.476546525467697 0 -6.3372248942895073 0 1 0 I I #
point $-1 -55.476546525467697 26.009149541720017 -6.3372248942895073 #
edge $-1 $287 -6.3372248942895073 $259 6.3372248942895073 $251 $299 forward 7 unknown #
straight-curve $-1 -44.634335497868648 -30.384718352410378 -6.3372248942895073 -1 0 0 I I #
vertex $-1 $265 $300 #
straight-curve $-1 -44.634335497868648 -30.384718352410378 6.3372248942895073 1 0 0 I I #
point $-1 -46.46657425884861 -30.384718352410378 6.3372248942895073 #
point $-1 -46.46657425884861 -30.384718352410378 -6.3372248942895073 #
point $-1 -42.802096736888686 -30.384718352410378 -6.3372248942895073 #
straight-curve $-1 -42.802096736888686 -28.196933947065197 6.3372248942895073 0 1 0 I I #
straight-curve $-1 -55.476546525467697 15.142350027628417 41.348744665611505 0 0 -1 I I #
point $-1 -55.476546525467697 15.142350027628417 6.3372248942895073 #
straight-curve $-1 -55.476546525467697 4.7148952976516174 2.8845144033957295 0 -1 0 I I #
point $-1 -55.476546525467697 15.142350027628417 2.8845144033957264 #
point $-1 -51.319654271134155 6.9815508385924367 2.1574922109893446 #
point $-1 -51.319654271134155 11.878030352014026 2.1574922109893446 #
straight-curve $-1 -42.802096736888686 -30.384718352410378 0 0 0 -1 I I #
point $-1 -42.802096736888686 -30.384718352410378 6.3372248942895073 #
End-of-ACIS-data 