500 0 7 0           
7 Unknown 11 ACIS 5.0 NT 24 Fri Mar 26 18:10:24 1999 
-1 9.9999999999999995e-007 1e-010 
body $-1 $7 $-1 $8 #
body $-1 $9 $-1 $10 #
body $-1 $11 $-1 $12 #
body $-1 $13 $-1 $14 #
body $-1 $15 $-1 $16 #
body $-1 $17 $-1 $18 #
body $-1 $19 $-1 $20 #
lump $-1 $-1 $21 $0 #
transform $-1 1 0 0 0 1 0 0 0 1 64.894558549760433 42.416843723369212 13.235991811966477 1 rotate no_reflect no_shear #
lump $-1 $-1 $22 $1 #
transform $-1 1 0 0 0 1 0 0 0 1 64.894558549760433 42.416843723369212 13.235991811966477 1 rotate no_reflect no_shear #
lump $-1 $-1 $23 $2 #
transform $-1 1 0 0 0 1 0 0 0 1 64.894558549760433 42.416843723369212 13.235991811966477 1 rotate no_reflect no_shear #
lump $-1 $-1 $24 $3 #
transform $-1 1 0 0 0 1 0 0 0 1 64.894558549760433 42.416843723369212 13.235991811966477 1 rotate no_reflect no_shear #
lump $-1 $-1 $25 $4 #
transform $-1 1 0 0 0 1 0 0 0 1 64.894558549760433 42.416843723369212 13.235991811966477 1 rotate no_reflect no_shear #
lump $-1 $-1 $26 $5 #
transform $-1 1 0 0 0 1 0 0 0 1 64.894558549760433 42.416843723369212 13.235991811966477 1 rotate no_reflect no_shear #
lump $-1 $-1 $27 $6 #
transform $-1 1 0 0 0 1 0 0 0 1 64.894558549760433 42.416843723369212 13.235991811966477 1 rotate no_reflect no_shear #
shell $-1 $-1 $-1 $28 $-1 $7 #
shell $-1 $-1 $-1 $29 $-1 $9 #
shell $-1 $-1 $-1 $30 $-1 $11 #
shell $-1 $-1 $-1 $31 $-1 $13 #
shell $-1 $-1 $-1 $32 $-1 $15 #
shell $-1 $-1 $-1 $33 $-1 $17 #
shell $-1 $-1 $-1 $34 $-1 $19 #
face $-1 $35 $36 $21 $-1 $37 forward single #
face $-1 $38 $39 $22 $-1 $40 reversed single #
face $-1 $41 $42 $23 $-1 $43 reversed single #
face $-1 $44 $45 $24 $-1 $46 forward single #
face $-1 $47 $48 $25 $-1 $49 reversed single #
face $-1 $50 $51 $26 $-1 $52 forward single #
face $-1 $53 $54 $27 $-1 $55 forward single #
face $-1 $56 $57 $21 $-1 $58 reversed single #
loop $-1 $-1 $59 $28 #
plane-surface $-1 0 0 13.235991811966477 0 0 1 1 0 0 forward_v I I I I #
face $-1 $60 $61 $22 $-1 $62 reversed single #
loop $-1 $-1 $63 $29 #
plane-surface $-1 0 -34.286809347261979 6.6202983796100039 0 0 1 1 0 0 forward_v I I I I #
face $-1 $64 $65 $23 $-1 $66 reversed single #
loop $-1 $-1 $67 $30 #
plane-surface $-1 -139.33853877227904 15.886285202955005 109.70423447848678 0 1 0 -0.57357644374324357 0 0.81915203911291934 forward_v I I I I #
face $-1 $68 $69 $24 $-1 $70 forward single #
loop $-1 $71 $72 $31 #
cone-surface $-1 -56.429130859579701 25.186217312567123 6.26553553327226 0.57357644374324357 0 -0.81915203911291934 2.0478800977822984 0 1.4339411093581089 1 I I 0 1 2.5 forward I I I I #
face $-1 $73 $74 $25 $-1 $75 reversed single #
loop $-1 $-1 $76 $32 #
plane-surface $-1 17.38844592796724 -17.801830731091634 181.10416874960714 0 -1 0 -0.50000000669873634 0 -0.8660253999169214 forward_v I I I I #
face $-1 $77 $78 $26 $-1 $79 forward single #
loop $-1 $80 $81 $33 #
cone-surface $-1 56.256407834055686 -23.769648045422429 7.7013301735186932 -0.50000000669873634 0 -0.8660253999169214 0.8660253999169214 0 -0.50000000669873634 1 I I 0 1 1 forward I I I I #
face $-1 $82 $83 $27 $-1 $84 forward single #
loop $-1 $85 $86 $34 #
cone-surface $-1 56.256407834055686 -20.188957656823952 7.7013301735186932 -0.50000000669873634 0 -0.8660253999169214 0.8660253999169214 0 -0.50000000669873634 1 I I 0 1 1 forward I I I I #
face $-1 $87 $88 $21 $-1 $89 reversed single #
loop $-1 $-1 $90 $35 #
plane-surface $-1 0 0 -13.235991811966477 0 0 1 1 0 0 forward_v I I I I #
coedge $-1 $91 $92 $93 $94 forward $36 $-1 #
face $-1 $95 $96 $22 $-1 $97 reversed single #
loop $-1 $-1 $98 $38 #
plane-surface $-1 0 -26.156774971154746 9.9281450957882402 0 -1 0 0 0 -1 forward_v I I I I #
coedge $-1 $99 $100 $101 $102 reversed $39 $-1 #
face $-1 $103 $104 $23 $-1 $105 reversed single #
loop $-1 $-1 $106 $41 #
plane-surface $-1 -64.894558549760461 25.186217312567123 3.3872145517487979 -0.57357644374324357 0 0.81915203911291934 0.81915203911291934 0 0.57357644374324357 forward_v I I I I #
coedge $-1 $107 $108 $109 $110 reversed $42 $-1 #
face $-1 $-1 $111 $24 $-1 $112 forward single #
loop $-1 $113 $114 $44 #
cone-surface $-1 -54.279488286157225 25.186217312567123 3.1955278357957386 0.57357644374324357 0 -0.81915203911291934 1.0239400488911492 0 0.71697055467905446 1 I I -0.70710678118654746 0.70710678118654746 1.25 forward I I I I #
loop $-1 $-1 $115 $31 #
coedge $-1 $72 $72 $116 $117 reversed $45 $-1 #
face $-1 $118 $119 $25 $-1 $120 forward single #
loop $-1 $-1 $121 $47 #
plane-surface $-1 -47.506113491216269 -21.97930285112319 68.703496708630439 0.50000000669873634 0 0.8660253999169214 0.8660253999169214 0 -0.50000000669873634 forward_v I I I I #
coedge $-1 $122 $123 $124 $125 reversed $48 $-1 #
face $-1 $-1 $126 $26 $-1 $127 forward single #
loop $-1 $128 $129 $50 #
cone-surface $-1 55.532325668527307 -23.769648045422429 6.4471830963722443 -0.50000000669873634 0 -0.8660253999169214 0.4330126999584607 0 -0.25000000334936817 1 I I -0.70710678118654746 0.70710678118654746 0.5 forward I I I I #
loop $-1 $-1 $130 $33 #
coedge $-1 $81 $81 $131 $132 reversed $51 $-1 #
face $-1 $-1 $133 $27 $-1 $134 forward single #
loop $-1 $135 $136 $53 #
cone-surface $-1 55.532325668527307 -20.188957656823952 6.4471830963722443 -0.50000000669873634 0 -0.8660253999169214 0.4330126999584607 0 -0.25000000334936817 1 I I -0.70710678118654746 0.70710678118654746 0.5 forward I I I I #
loop $-1 $-1 $137 $34 #
coedge $-1 $86 $86 $138 $139 reversed $54 $-1 #
face $-1 $140 $141 $21 $-1 $142 reversed single #
loop $-1 $-1 $143 $56 #
plane-surface $-1 0 -42.416843723369212 0 0 1 0 0 0 1 forward_v I I I I #
coedge $-1 $144 $145 $146 $147 forward $57 $-1 #
coedge $-1 $148 $59 $149 $150 forward $36 $-1 #
coedge $-1 $59 $148 $151 $152 forward $36 $-1 #
coedge $-1 $153 $154 $59 $94 reversed $155 $-1 #
edge $-1 $156 -42.416843723369212 $157 42.416843723369212 $93 $158 forward 7 unknown #
face $-1 $159 $160 $22 $-1 $161 reversed single #
loop $-1 $-1 $162 $60 #
plane-surface $-1 -64.894558549760433 0 0 1 0 0 0 0 -1 forward_v I I I I #
coedge $-1 $163 $164 $100 $165 reversed $61 $-1 #
coedge $-1 $166 $63 $167 $168 reversed $39 $-1 #
coedge $-1 $63 $166 $98 $165 forward $39 $-1 #
coedge $-1 $169 $170 $63 $102 forward $171 $-1 #
edge $-1 $172 -25.273439049738222 $173 -9.0133702975237568 $101 $174 forward 7 unknown #
face $-1 $175 $176 $23 $-1 $177 forward single #
loop $-1 $-1 $178 $64 #
plane-surface $-1 -139.33853877227904 34.486149422179238 109.70423447848678 0 -1 0 0.57357644374324357 0 -0.81915203911291934 forward_v I I I I #
coedge $-1 $179 $180 $181 $182 reversed $65 $-1 #
coedge $-1 $108 $67 $183 $184 reversed $42 $-1 #
coedge $-1 $67 $107 $179 $185 reversed $42 $-1 #
coedge $-1 $181 $186 $67 $110 forward $176 $-1 #
edge $-1 $187 4.7747108363790858 $188 18.840222179253651 $109 $189 forward 7 unknown #
loop $-1 $-1 $116 $68 #
plane-surface $-1 -64.894558549760461 25.186217312567123 3.3872145517487979 -0.57357644374324357 0 0.81915203911291934 0.81915203911291934 0 0.57357644374324357 forward_v I I I I #
loop $-1 $-1 $190 $44 #
coedge $-1 $114 $114 $115 $191 reversed $69 $-1 #
coedge $-1 $115 $115 $114 $191 forward $71 $-1 #
coedge $-1 $116 $116 $72 $117 forward $111 $-1 #
edge $-1 $192 0 $192 6.2831853071796004 $116 $193 forward 7 unknown #
face $-1 $194 $195 $25 $-1 $196 forward single #
loop $-1 $-1 $197 $73 #
plane-surface $-1 0 -26.156774971154746 9.9281450957882402 0 -1 0 0 0 -1 forward_v I I I I #
coedge $-1 $198 $199 $200 $201 reversed $74 $-1 #
coedge $-1 $123 $76 $202 $203 reversed $48 $-1 #
coedge $-1 $76 $122 $198 $204 reversed $48 $-1 #
coedge $-1 $200 $205 $76 $125 forward $195 $-1 #
edge $-1 $206 -56.200335585776813 $207 -39.872198478725352 $124 $208 forward 7 unknown #
loop $-1 $-1 $131 $77 #
plane-surface $-1 -47.506113491216269 -21.97930285112319 68.703496708630439 0.50000000669873634 0 0.8660253999169214 0.8660253999169214 0 -0.50000000669873634 forward_v I I I I #
loop $-1 $-1 $209 $50 #
coedge $-1 $129 $129 $130 $210 reversed $78 $-1 #
coedge $-1 $130 $130 $129 $210 forward $80 $-1 #
coedge $-1 $131 $131 $81 $132 forward $126 $-1 #
edge $-1 $211 0 $211 6.2831853071796004 $131 $212 forward 7 unknown #
loop $-1 $-1 $138 $82 #
plane-surface $-1 -47.506113491216269 -21.97930285112319 68.703496708630439 0.50000000669873634 0 0.8660253999169214 0.8660253999169214 0 -0.50000000669873634 forward_v I I I I #
loop $-1 $-1 $213 $53 #
coedge $-1 $136 $136 $137 $214 reversed $83 $-1 #
coedge $-1 $137 $137 $136 $214 forward $85 $-1 #
coedge $-1 $138 $138 $86 $139 forward $133 $-1 #
edge $-1 $215 0 $215 6.2831853071796004 $138 $216 forward 7 unknown #
face $-1 $217 $218 $21 $-1 $219 reversed single #
loop $-1 $-1 $220 $87 #
plane-surface $-1 -64.894558549760433 0 0 1 0 0 0 0 -1 forward_v I I I I #
coedge $-1 $221 $151 $222 $223 forward $88 $-1 #
coedge $-1 $224 $90 $221 $225 forward $57 $-1 #
coedge $-1 $90 $224 $226 $227 forward $57 $-1 #
coedge $-1 $154 $153 $90 $147 reversed $155 $-1 #
edge $-1 $228 -42.416843723369212 $229 42.416843723369212 $146 $230 forward 7 unknown #
coedge $-1 $92 $91 $231 $232 forward $36 $-1 #
coedge $-1 $233 $234 $91 $150 reversed $218 $-1 #
edge $-1 $157 -64.894558549760433 $235 64.894558549760433 $149 $236 forward 7 unknown #
coedge $-1 $143 $237 $92 $152 reversed $88 $-1 #
edge $-1 $238 -64.894558549760433 $156 64.894558549760433 $151 $239 forward 7 unknown #
coedge $-1 $146 $93 $237 $240 forward $155 $-1 #
coedge $-1 $93 $146 $233 $241 reversed $155 $-1 #
loop $-1 $-1 $153 $217 #
vertex $-1 $94 $242 #
vertex $-1 $94 $243 #
straight-curve $-1 64.894558549760433 0 13.235991811966477 0 1 0 I I #
face $-1 $244 $245 $22 $-1 $246 forward single #
loop $-1 $-1 $167 $95 #
plane-surface $-1 0 -42.416843723369212 0 0 1 0 0 0 1 forward_v I I I I #
coedge $-1 $247 $248 $163 $249 forward $96 $-1 #
coedge $-1 $250 $98 $162 $249 reversed $61 $-1 #
coedge $-1 $98 $250 $169 $251 reversed $61 $-1 #
edge $-1 $252 -64.894558549760433 $173 64.894558549760433 $98 $253 forward 7 unknown #
coedge $-1 $100 $99 $247 $254 reversed $39 $-1 #
coedge $-1 $255 $256 $99 $168 forward $160 $-1 #
edge $-1 $257 -64.894558549760433 $172 64.894558549760433 $167 $258 forward 7 unknown #
coedge $-1 $259 $101 $164 $251 forward $171 $-1 #
coedge $-1 $101 $259 $255 $260 forward $171 $-1 #
loop $-1 $-1 $169 $244 #
vertex $-1 $168 $261 #
vertex $-1 $102 $262 #
straight-curve $-1 64.894558549760433 -17.14340467363099 6.6202983796100039 0 1 0 I I #
face $-1 $-1 $263 $23 $-1 $264 reversed single #
loop $-1 $-1 $109 $103 #
plane-surface $-1 0 0 13.235991811966477 0 0 1 1 0 0 forward_v I I I I #
coedge $-1 $265 $266 $267 $268 reversed $104 $-1 #
coedge $-1 $269 $106 $108 $185 forward $65 $-1 #
coedge $-1 $106 $269 $265 $270 forward $65 $-1 #
coedge $-1 $267 $109 $106 $182 forward $176 $-1 #
edge $-1 $188 3.2931765466714431 $271 21.893040765895677 $181 $272 forward 7 unknown #
coedge $-1 $273 $274 $107 $184 forward $263 $-1 #
edge $-1 $275 -51.464902687494572 $187 -41.616125427276913 $183 $276 forward 7 unknown #
edge $-1 $188 -17.170818933816602 $275 -3.4744061171064897e-014 $108 $277 forward 7 unknown #
coedge $-1 $109 $267 $273 $278 forward $176 $-1 #
vertex $-1 $184 $279 #
vertex $-1 $110 $280 #
straight-curve $-1 -69.669269386139518 15.886285202955005 13.235991811966478 1 0 0 I I #
coedge $-1 $190 $190 $-1 $281 reversed $113 $-1 #
edge $-1 $282 0 $282 6.2831853071796004 $114 $283 forward 7 unknown #
vertex $-1 $117 $284 #
ellipse-curve $-1 -57.86180287832314 25.186217312567123 8.3116031818576559 -0.57357644374324357 0 0.81915203911291934 2.0478800977822984 0 1.4339411093581089 1 I I #
face $-1 $-1 $285 $25 $-1 $286 reversed single #
loop $-1 $-1 $200 $118 #
plane-surface $-1 0 0 13.235991811966477 0 0 1 1 0 0 forward_v I I I I #
coedge $-1 $287 $288 $199 $289 reversed $119 $-1 #
coedge $-1 $290 $121 $123 $204 forward $74 $-1 #
coedge $-1 $121 $290 $197 $289 forward $74 $-1 #
coedge $-1 $291 $124 $121 $201 forward $195 $-1 #
edge $-1 $207 6.812179305530039 $292 15.167123545593151 $200 $293 forward 7 unknown #
coedge $-1 $294 $295 $122 $203 forward $285 $-1 #
edge $-1 $296 -86.74314708535664 $206 -77.316092562837099 $202 $297 forward 7 unknown #
edge $-1 $207 110.93500830707919 $296 129.78911709952087 $123 $298 forward 7 unknown #
coedge $-1 $124 $291 $294 $299 forward $195 $-1 #
vertex $-1 $203 $300 #
vertex $-1 $125 $301 #
straight-curve $-1 8.6942229639836199 -17.801830731091634 13.235991811966471 -1 0 0 I I #
coedge $-1 $209 $209 $-1 $302 reversed $128 $-1 #
edge $-1 $303 0 $303 6.2831853071796004 $129 $304 forward 7 unknown #
vertex $-1 $132 $305 #
ellipse-curve $-1 56.730489996234709 -23.769648045422429 8.5224645507066974 0.50000000669873634 0 0.8660253999169214 0.8660253999169214 0 -0.50000000669873634 1 I I #
coedge $-1 $213 $213 $-1 $306 reversed $135 $-1 #
edge $-1 $307 0 $307 6.2831853071796004 $136 $308 forward 7 unknown #
vertex $-1 $139 $309 #
ellipse-curve $-1 56.730489996234709 -20.188957656823952 8.5224645507066974 0.50000000669873634 0 0.8660253999169214 0.8660253999169214 0 -0.50000000669873634 1 I I #
face $-1 $-1 $155 $21 $-1 $310 reversed single #
loop $-1 $-1 $233 $140 #
plane-surface $-1 0 42.416843723369212 0 0 -1 0 0 0 -1 forward_v I I I I #
coedge $-1 $311 $231 $234 $312 forward $141 $-1 #
coedge $-1 $237 $143 $144 $225 reversed $88 $-1 #
coedge $-1 $231 $311 $143 $223 reversed $141 $-1 #
edge $-1 $238 -13.235991811966477 $313 13.235991811966477 $222 $314 forward 7 unknown #
coedge $-1 $145 $144 $311 $315 forward $57 $-1 #
edge $-1 $229 -64.894558549760433 $313 64.894558549760433 $221 $316 forward 7 unknown #
coedge $-1 $234 $233 $145 $227 reversed $218 $-1 #
edge $-1 $317 -64.894558549760433 $228 64.894558549760433 $226 $318 forward 7 unknown #
vertex $-1 $147 $319 #
vertex $-1 $240 $320 #
straight-curve $-1 64.894558549760433 0 -13.235991811966477 0 -1 0 I I #
coedge $-1 $220 $222 $148 $232 reversed $141 $-1 #
edge $-1 $235 -42.416843723369212 $238 42.416843723369212 $231 $321 forward 7 unknown #
coedge $-1 $226 $149 $154 $241 forward $218 $-1 #
coedge $-1 $149 $226 $220 $312 reversed $218 $-1 #
vertex $-1 $150 $322 #
straight-curve $-1 0 42.416843723369212 13.235991811966477 -1 0 0 I I #
coedge $-1 $151 $221 $153 $240 reversed $88 $-1 #
vertex $-1 $232 $323 #
straight-curve $-1 0 -42.416843723369212 13.235991811966477 1 0 0 I I #
edge $-1 $156 -13.235991811966477 $229 13.235991811966477 $153 $324 forward 7 unknown #
edge $-1 $157 -13.235991811966477 $228 13.235991811966477 $154 $325 forward 7 unknown #
point $-1 64.894558549760433 -42.416843723369212 13.235991811966477 #
point $-1 64.894558549760433 42.416843723369212 13.235991811966477 #
face $-1 $-1 $171 $22 $-1 $326 reversed single #
loop $-1 $-1 $327 $159 #
plane-surface $-1 0 0 13.235991811966477 0 0 1 1 0 0 forward_v I I I I #
coedge $-1 $328 $162 $166 $254 forward $96 $-1 #
coedge $-1 $162 $328 $329 $330 reversed $96 $-1 #
edge $-1 $331 -8.2719192640723556 $252 -1.6562258317158838 $162 $332 forward 7 unknown #
coedge $-1 $164 $163 $327 $333 reversed $61 $-1 #
edge $-1 $173 1.6562258317158838 $334 8.2719192640723556 $169 $335 forward 7 unknown #
vertex $-1 $254 $336 #
straight-curve $-1 0 -26.156774971154746 6.6202983796100039 1 0 0 I I #
edge $-1 $252 9.0133702975237568 $257 25.273439049738222 $247 $337 forward 7 unknown #
coedge $-1 $338 $167 $170 $260 reversed $160 $-1 #
coedge $-1 $167 $338 $328 $339 forward $160 $-1 #
vertex $-1 $168 $340 #
straight-curve $-1 0 -42.416843723369212 6.6202983796100039 1 0 0 I I #
coedge $-1 $170 $169 $341 $342 reversed $171 $-1 #
edge $-1 $343 -13.235991811966477 $172 -6.6202983796100039 $170 $344 forward 7 unknown #
point $-1 64.894558549760433 -42.416843723369212 6.6202983796100039 #
point $-1 64.894558549760433 -26.156774971154746 6.6202983796100039 #
loop $-1 $-1 $183 $175 #
plane-surface $-1 -64.894558549760433 0 0 1 0 0 0 0 -1 forward_v I I I I #
coedge $-1 $266 $178 $180 $270 reversed $104 $-1 #
coedge $-1 $178 $265 $345 $346 reversed $104 $-1 #
coedge $-1 $186 $181 $178 $268 forward $176 $-1 #
edge $-1 $271 -18.840222179253651 $347 -4.7747108363790858 $267 $348 forward 7 unknown #
coedge $-1 $180 $179 $274 $349 reversed $65 $-1 #
edge $-1 $350 3.4744061171064897e-014 $271 17.170818933816602 $265 $351 forward 7 unknown #
vertex $-1 $182 $352 #
straight-curve $-1 -50.829047206885875 12.593108656283562 13.235991811966478 0 1 0 I I #
coedge $-1 $345 $183 $186 $278 reversed $263 $-1 #
coedge $-1 $183 $345 $269 $349 forward $263 $-1 #
vertex $-1 $184 $353 #
straight-curve $-1 -64.894558549760433 15.886285202955005 54.852117239243391 0 0 1 I I #
straight-curve $-1 -64.894558549760461 15.886285202955005 3.3872145517487979 -0.81915203911291934 0 -0.57357644374324357 I I #
edge $-1 $347 -34.486149422179238 $187 -15.886285202955005 $273 $354 forward 7 unknown #
point $-1 -64.894558549760433 15.886285202955005 13.235991811966477 #
point $-1 -50.829047206885868 15.886285202955005 13.235991811966477 #
edge $-1 $355 1 $355 0 $190 $-1 forward 7 unknown #
vertex $-1 $191 $356 #
ellipse-curve $-1 -54.996458840836276 25.186217312567123 4.219467884686888 -0.57357644374324357 0 0.81915203911291934 2.0478800977822984 0 1.4339411093581089 1 I I #
point $-1 -55.813922780540828 25.186217312567123 9.7455442912157402 #
loop $-1 $-1 $202 $194 #
plane-surface $-1 64.894558549760433 0 0 -1 0 0 0 0 1 forward_v I I I I #
coedge $-1 $288 $197 $357 $358 reversed $119 $-1 #
coedge $-1 $197 $287 $291 $359 reversed $119 $-1 #
edge $-1 $360 -129.78911709952087 $292 -110.93500830707919 $197 $361 forward 7 unknown #
coedge $-1 $199 $198 $295 $362 reversed $74 $-1 #
coedge $-1 $205 $200 $288 $359 forward $195 $-1 #
vertex $-1 $359 $363 #
straight-curve $-1 48.566421442708958 -10.989651425561595 13.235991811966478 0 -1 0 I I #
coedge $-1 $357 $202 $205 $299 reversed $285 $-1 #
coedge $-1 $202 $357 $290 $362 forward $285 $-1 #
vertex $-1 $203 $364 #
straight-curve $-1 64.894558549760433 -17.801830731091634 90.55208437480357 0 0 1 I I #
straight-curve $-1 -47.506113491216269 -17.801830731091634 68.703496708630439 0.8660253999169214 0 -0.50000000669873634 I I #
edge $-1 $365 -26.156774971154746 $206 -17.801830731091634 $294 $366 forward 7 unknown #
point $-1 64.894558549760433 -17.801830731091634 13.235991811966477 #
point $-1 48.566421442708972 -17.801830731091634 13.235991811966478 #
edge $-1 $367 1 $367 0 $209 $-1 forward 7 unknown #
vertex $-1 $210 $368 #
ellipse-curve $-1 55.782325671876677 -23.769648045422429 6.880195796330705 0.50000000669873634 0 0.8660253999169214 0.8660253999169214 0 -0.50000000669873634 1 I I #
point $-1 57.596515396151617 -23.769648045422429 8.0224645440079474 #
edge $-1 $369 1 $369 0 $213 $-1 forward 7 unknown #
vertex $-1 $214 $370 #
ellipse-curve $-1 55.782325671876677 -20.188957656823952 6.880195796330705 0.50000000669873634 0 0.8660253999169214 0.8660253999169214 0 -0.50000000669873634 1 I I #
point $-1 57.596515396151617 -20.188957656823952 8.0224645440079474 #
plane-surface $-1 64.894558549760433 0 0 -1 0 0 0 0 1 forward_v I I I I #
coedge $-1 $222 $220 $224 $315 reversed $141 $-1 #
edge $-1 $235 -13.235991811966477 $317 13.235991811966477 $234 $371 forward 7 unknown #
vertex $-1 $315 $372 #
straight-curve $-1 -64.894558549760433 -42.416843723369212 0 0 0 -1 I I #
edge $-1 $313 -42.416843723369212 $317 42.416843723369212 $311 $373 forward 7 unknown #
straight-curve $-1 0 -42.416843723369212 -13.235991811966477 -1 0 0 I I #
vertex $-1 $227 $374 #
straight-curve $-1 0 42.416843723369212 -13.235991811966477 1 0 0 I I #
point $-1 64.894558549760433 42.416843723369212 -13.235991811966477 #
point $-1 64.894558549760433 -42.416843723369212 -13.235991811966477 #
straight-curve $-1 -64.894558549760433 0 13.235991811966477 0 -1 0 I I #
point $-1 -64.894558549760433 42.416843723369212 13.235991811966477 #
point $-1 -64.894558549760433 -42.416843723369212 13.235991811966477 #
straight-curve $-1 64.894558549760433 -42.416843723369212 0 0 0 -1 I I #
straight-curve $-1 64.894558549760433 42.416843723369212 0 0 0 -1 I I #
plane-surface $-1 64.894558549760433 0 0 -1 0 0 0 0 1 forward_v I I I I #
coedge $-1 $329 $341 $250 $333 forward $245 $-1 #
coedge $-1 $248 $247 $256 $339 reversed $96 $-1 #
coedge $-1 $375 $327 $248 $330 forward $245 $-1 #
edge $-1 $331 26.156774971154746 $376 42.416843723369212 $248 $377 forward 7 unknown #
vertex $-1 $330 $378 #
straight-curve $-1 -64.894558549760433 -26.156774971154746 4.9640725478941201 0 0 -1 I I #
edge $-1 $334 -64.894558549760433 $331 64.894558549760433 $327 $379 forward 7 unknown #
vertex $-1 $251 $380 #
straight-curve $-1 64.894558549760433 -26.156774971154746 4.9640725478941201 0 0 1 I I #
point $-1 -64.894558549760433 -26.156774971154746 6.6202983796100039 #
straight-curve $-1 -64.894558549760433 -17.14340467363099 6.6202983796100039 0 -1 0 I I #
coedge $-1 $256 $255 $375 $381 reversed $160 $-1 #
edge $-1 $376 -13.235991811966477 $257 -6.6202983796100039 $328 $382 forward 7 unknown #
point $-1 -64.894558549760433 -42.416843723369212 6.6202983796100039 #
coedge $-1 $327 $375 $259 $342 forward $245 $-1 #
edge $-1 $343 -42.416843723369212 $334 -26.156774971154746 $259 $383 forward 7 unknown #
vertex $-1 $342 $384 #
straight-curve $-1 64.894558549760433 -42.416843723369212 0 0 0 -1 I I #
coedge $-1 $274 $273 $266 $346 forward $263 $-1 #
edge $-1 $347 41.616125427276913 $350 51.464902687494572 $345 $385 forward 7 unknown #
vertex $-1 $278 $386 #
straight-curve $-1 -69.669269386139518 34.486149422179238 13.235991811966478 -1 0 0 I I #
edge $-1 $350 -21.893040765895677 $275 -3.2931765466714431 $274 $387 forward 7 unknown #
vertex $-1 $349 $388 #
straight-curve $-1 -64.894558549760461 34.486149422179238 3.3872145517487979 0.81915203911291934 0 0.57357644374324357 I I #
point $-1 -50.829047206885868 34.486149422179238 13.235991811966477 #
point $-1 -64.894558549760433 15.886285202955005 3.3872145517488179 #
straight-curve $-1 -64.894558549760433 0 13.235991811966477 0 -1 0 I I #
vertex $-1 $281 $389 #
point $-1 -52.948578743053979 25.186217312567123 5.6534089940449963 #
coedge $-1 $295 $294 $287 $358 forward $285 $-1 #
edge $-1 $365 77.316092562837099 $360 86.74314708535664 $357 $390 forward 7 unknown #
edge $-1 $292 48.566421442708972 $365 64.894558549760433 $291 $391 forward 7 unknown #
vertex $-1 $358 $392 #
straight-curve $-1 -47.506113491216269 -26.156774971154746 68.703496708630439 -0.8660253999169214 0 0.50000000669873634 I I #
edge $-1 $360 -15.167123545593151 $296 -6.812179305530039 $295 $393 forward 7 unknown #
point $-1 48.566421442708972 -26.156774971154746 13.235991811966478 #
point $-1 64.894558549760433 -17.801830731091634 3.8089372894469307 #
vertex $-1 $299 $394 #
straight-curve $-1 64.894558549760433 0 13.235991811966477 0 1 0 I I #
vertex $-1 $302 $395 #
point $-1 56.648351071793599 -23.769648045422429 6.3801957896319683 #
vertex $-1 $306 $396 #
point $-1 56.648351071793599 -20.188957656823952 6.3801957896319683 #
straight-curve $-1 -64.894558549760433 42.416843723369212 0 0 0 -1 I I #
point $-1 -64.894558549760433 -42.416843723369212 -13.235991811966477 #
straight-curve $-1 -64.894558549760433 0 -13.235991811966477 0 1 0 I I #
point $-1 -64.894558549760433 42.416843723369212 -13.235991811966477 #
coedge $-1 $341 $329 $338 $381 forward $245 $-1 #
vertex $-1 $330 $397 #
straight-curve $-1 -64.894558549760433 0 13.235991811966477 0 -1 0 I I #
point $-1 -64.894558549760433 -26.156774971154746 13.235991811966477 #
straight-curve $-1 0 -26.156774971154746 13.235991811966477 -1 0 0 I I #
point $-1 64.894558549760433 -26.156774971154746 13.235991811966477 #
edge $-1 $376 -64.894558549760433 $343 64.894558549760433 $338 $398 forward 7 unknown #
straight-curve $-1 -64.894558549760433 -42.416843723369212 0 0 0 -1 I I #
straight-curve $-1 64.894558549760433 0 13.235991811966477 0 1 0 I I #
point $-1 64.894558549760433 -42.416843723369212 13.235991811966477 #
straight-curve $-1 -64.894558549760433 34.486149422179238 54.852117239243391 0 0 -1 I I #
point $-1 -64.894558549760433 34.486149422179238 13.235991811966477 #
straight-curve $-1 -64.894558549760433 12.593108656283562 3.3872145517488152 0 -1 0 I I #
point $-1 -64.894558549760433 34.486149422179238 3.3872145517488179 #
point $-1 -53.562517731478174 25.186217312567123 2.1715877869045892 #
straight-curve $-1 64.894558549760433 -26.156774971154746 90.55208437480357 0 0 -1 I I #
straight-curve $-1 0 -26.156774971154746 13.235991811966477 1 0 0 I I #
point $-1 64.894558549760433 -26.156774971154746 3.8089372894469307 #
straight-curve $-1 64.894558549760447 -10.989651425561595 3.80893728944692 0 1 0 I I #
point $-1 64.894558549760433 -26.156774971154746 13.235991811966477 #
point $-1 55.282325665177936 -23.769648045422429 6.0141703964137836 #
point $-1 55.282325665177936 -20.188957656823952 6.0141703964137836 #
point $-1 -64.894558549760433 -42.416843723369212 13.235991811966477 #
straight-curve $-1 0 -42.416843723369212 13.235991811966477 1 0 0 I I #
End-of-ACIS-data 