500 0 10 0           
7 Unknown 11 ACIS 5.0 NT 24 Thu Mar 25 22:24:30 1999 
-1 9.9999999999999995e-007 1e-010 
body $-1 $10 $-1 $11 #
body $-1 $12 $-1 $13 #
body $-1 $14 $-1 $15 #
body $-1 $16 $-1 $17 #
body $-1 $18 $-1 $19 #
body $-1 $20 $-1 $21 #
body $-1 $22 $-1 $23 #
body $-1 $24 $-1 $25 #
body $-1 $26 $-1 $27 #
body $-1 $28 $-1 $29 #
lump $-1 $-1 $30 $0 #
transform $-1 1 0 0 0 1 0 0 0 1 50.655842768639175 20.654696886949694 9.3748257082268935 1 rotate no_reflect no_shear #
lump $-1 $-1 $31 $1 #
transform $-1 1 0 0 0 1 0 0 0 1 50.655842768639175 20.654696886949694 9.3748257082268935 1 rotate no_reflect no_shear #
lump $-1 $-1 $32 $2 #
transform $-1 1 0 0 0 1 0 0 0 1 50.655842768639175 20.654696886949694 9.3748257082268935 1 rotate no_reflect no_shear #
lump $-1 $-1 $33 $3 #
transform $-1 1 0 0 0 1 0 0 0 1 50.655842768639175 20.654696886949694 9.3748257082268935 1 rotate no_reflect no_shear #
lump $-1 $-1 $34 $4 #
transform $-1 1 0 0 0 1 0 0 0 1 50.655842768639175 20.654696886949694 9.3748257082268935 1 rotate no_reflect no_shear #
lump $-1 $-1 $35 $5 #
transform $-1 1 0 0 0 1 0 0 0 1 50.655842768639175 20.654696886949694 9.3748257082268935 1 rotate no_reflect no_shear #
lump $-1 $-1 $36 $6 #
transform $-1 1 0 0 0 1 0 0 0 1 50.655842768639175 20.654696886949694 9.3748257082268935 1 rotate no_reflect no_shear #
lump $-1 $-1 $37 $7 #
transform $-1 1 0 0 0 1 0 0 0 1 50.655842768639175 20.654696886949694 9.3748257082268935 1 rotate no_reflect no_shear #
lump $-1 $-1 $38 $8 #
transform $-1 1 0 0 0 1 0 0 0 1 50.655842768639175 20.654696886949694 9.3748257082268935 1 rotate no_reflect no_shear #
lump $-1 $-1 $39 $9 #
transform $-1 1 0 0 0 1 0 0 0 1 50.655842768639175 20.654696886949694 9.3748257082268935 1 rotate no_reflect no_shear #
shell $-1 $-1 $-1 $40 $-1 $10 #
shell $-1 $-1 $-1 $41 $-1 $12 #
shell $-1 $-1 $-1 $42 $-1 $14 #
shell $-1 $-1 $-1 $43 $-1 $16 #
shell $-1 $-1 $-1 $44 $-1 $18 #
shell $-1 $-1 $-1 $45 $-1 $20 #
shell $-1 $-1 $-1 $46 $-1 $22 #
shell $-1 $-1 $-1 $47 $-1 $24 #
shell $-1 $-1 $-1 $48 $-1 $26 #
shell $-1 $-1 $-1 $49 $-1 $28 #
face $-1 $50 $51 $30 $-1 $52 forward single #
face $-1 $53 $54 $31 $-1 $55 forward single #
face $-1 $56 $57 $32 $-1 $58 reversed single #
face $-1 $59 $60 $33 $-1 $61 forward single #
face $-1 $62 $63 $34 $-1 $64 reversed single #
face $-1 $65 $66 $35 $-1 $67 forward single #
face $-1 $68 $69 $36 $-1 $70 reversed single #
face $-1 $71 $72 $37 $-1 $73 forward single #
face $-1 $74 $75 $38 $-1 $76 reversed single #
face $-1 $77 $78 $39 $-1 $79 forward single #
face $-1 $80 $81 $30 $-1 $82 reversed single #
loop $-1 $-1 $83 $40 #
plane-surface $-1 0 0 9.3748257082268935 0 0 1 1 0 0 forward_v I I I I #
face $-1 $84 $85 $31 $-1 $86 reversed single #
loop $-1 $-1 $87 $41 #
plane-surface $-1 0 -20.654696886949694 0 0 1 0 0 0 1 forward_v I I I I #
face $-1 $88 $89 $32 $-1 $90 reversed single #
loop $-1 $-1 $91 $42 #
plane-surface $-1 87.738495516473463 2.1487523021991084 142.72404979931733 0 -1 0 -0.86602541151947299 0 -0.49999998660252726 forward_v I I I I #
face $-1 $92 $93 $33 $-1 $94 forward single #
loop $-1 $95 $96 $43 #
cone-surface $-1 47.764015460737554 -1.2305246083409109 6.0235246066670882 -0.86602541151947299 0 -0.49999998660252726 0.49999998660252726 0 -0.86602541151947299 1 I I 0 1 1 forward I I I I #
face $-1 $97 $98 $34 $-1 $99 reversed single #
loop $-1 $-1 $100 $44 #
plane-surface $-1 87.738495516473463 14.136640911463887 142.72404979931733 0 -1 0 -0.86602541151947299 0 -0.49999998660252726 forward_v I I I I #
face $-1 $101 $102 $35 $-1 $103 forward single #
loop $-1 $104 $105 $45 #
cone-surface $-1 47.764015460737554 10.757364000923864 6.0235246066670882 -0.86602541151947299 0 -0.49999998660252726 0.49999998660252726 0 -0.86602541151947299 1 I I 0 1 1 forward I I I I #
face $-1 $106 $107 $36 $-1 $108 reversed single #
loop $-1 $-1 $109 $46 #
plane-surface $-1 -138.3943369277921 -4.6098015188809232 54.985555640164407 0 1 0 -0.86602541151947299 0 0.49999998660252726 forward_v I I I I #
face $-1 $110 $111 $37 $-1 $112 forward single #
loop $-1 $113 $114 $47 #
cone-surface $-1 -47.764015460737546 -1.2305246083409109 6.0235246066670811 0.86602541151947299 0 -0.49999998660252726 0.49999998660252726 0 0.86602541151947299 1 I I 0 1 1 forward I I I I #
face $-1 $115 $116 $38 $-1 $117 reversed single #
loop $-1 $-1 $118 $48 #
plane-surface $-1 -138.3943369277921 7.3780870903838558 54.985555640164407 0 1 0 -0.86602541151947299 0 0.49999998660252726 forward_v I I I I #
face $-1 $119 $120 $39 $-1 $121 forward single #
loop $-1 $122 $123 $49 #
cone-surface $-1 -47.764015460737546 10.757364000923864 6.0235246066670811 0.86602541151947299 0 -0.49999998660252726 0.49999998660252726 0 0.86602541151947299 1 I I 0 1 1 forward I I I I #
face $-1 $124 $125 $30 $-1 $126 reversed single #
loop $-1 $-1 $127 $50 #
plane-surface $-1 0 0 -9.3748257082268935 0 0 1 1 0 0 forward_v I I I I #
coedge $-1 $128 $129 $130 $131 forward $51 $-1 #
face $-1 $132 $133 $31 $-1 $134 reversed single #
loop $-1 $-1 $135 $53 #
plane-surface $-1 0 0 -9.3748257082268935 0 0 1 1 0 0 forward_v I I I I #
coedge $-1 $136 $137 $138 $139 forward $54 $-1 #
face $-1 $140 $141 $32 $-1 $142 reversed single #
loop $-1 $-1 $143 $56 #
plane-surface $-1 1.3573205421835155e-006 -1.2305246083409074 92.068208387998695 0.86602541151947299 0 0.49999998660252726 0.49999998660252726 0 -0.86602541151947299 forward_v I I I I #
coedge $-1 $144 $145 $146 $147 reversed $57 $-1 #
face $-1 $-1 $148 $33 $-1 $149 forward single #
loop $-1 $150 $151 $59 #
cone-surface $-1 45.895573630400222 -1.2305246083409109 4.9447792514965698 -0.86602541151947299 0 -0.49999998660252726 0.24999999330126363 0 -0.43301270575973649 1 I I -0.70710678118654746 0.70710678118654746 0.5 forward I I I I #
loop $-1 $-1 $152 $43 #
coedge $-1 $96 $96 $153 $154 reversed $60 $-1 #
face $-1 $155 $156 $34 $-1 $157 reversed single #
loop $-1 $-1 $158 $62 #
plane-surface $-1 1.3573205421835155e-006 10.757364000923872 92.068208387998695 0.86602541151947299 0 0.49999998660252726 0.49999998660252726 0 -0.86602541151947299 forward_v I I I I #
coedge $-1 $159 $160 $161 $162 reversed $63 $-1 #
face $-1 $-1 $163 $35 $-1 $164 forward single #
loop $-1 $165 $166 $65 #
cone-surface $-1 45.895573630400222 10.757364000923864 4.9447792514965698 -0.86602541151947299 0 -0.49999998660252726 0.24999999330126363 0 -0.43301270575973649 1 I I -0.70710678118654746 0.70710678118654746 0.5 forward I I I I #
loop $-1 $-1 $167 $45 #
coedge $-1 $105 $105 $168 $169 reversed $66 $-1 #
face $-1 $170 $171 $36 $-1 $172 reversed single #
loop $-1 $-1 $173 $68 #
plane-surface $-1 -50.655842768639175 -1.2305246083409074 4.3297142288457735 -0.86602541151947299 0 0.49999998660252726 0.49999998660252726 0 0.86602541151947299 forward_v I I I I #
coedge $-1 $174 $175 $176 $177 reversed $69 $-1 #
face $-1 $-1 $178 $37 $-1 $179 forward single #
loop $-1 $180 $181 $71 #
cone-surface $-1 -45.895573630400214 -1.2305246083409109 4.9447792514965627 0.86602541151947299 0 -0.49999998660252726 0.24999999330126363 0 0.43301270575973649 1 I I -0.70710678118654746 0.70710678118654746 0.5 forward I I I I #
loop $-1 $-1 $182 $47 #
coedge $-1 $114 $114 $183 $184 reversed $72 $-1 #
face $-1 $185 $186 $38 $-1 $187 reversed single #
loop $-1 $-1 $188 $74 #
plane-surface $-1 -50.655842768639175 10.757364000923872 4.3297142288457735 -0.86602541151947299 0 0.49999998660252726 0.49999998660252726 0 0.86602541151947299 forward_v I I I I #
coedge $-1 $189 $190 $191 $192 reversed $75 $-1 #
face $-1 $-1 $193 $39 $-1 $194 forward single #
loop $-1 $195 $196 $77 #
cone-surface $-1 -45.895573630400214 10.757364000923864 4.9447792514965627 0.86602541151947299 0 -0.49999998660252726 0.24999999330126363 0 0.43301270575973649 1 I I -0.70710678118654746 0.70710678118654746 0.5 forward I I I I #
loop $-1 $-1 $197 $49 #
coedge $-1 $123 $123 $198 $199 reversed $78 $-1 #
face $-1 $200 $201 $30 $-1 $202 reversed single #
loop $-1 $-1 $203 $80 #
plane-surface $-1 0 -20.654696886949694 0 0 1 0 0 0 1 forward_v I I I I #
coedge $-1 $204 $205 $206 $207 forward $81 $-1 #
coedge $-1 $208 $83 $209 $210 forward $51 $-1 #
coedge $-1 $83 $208 $211 $212 forward $51 $-1 #
coedge $-1 $213 $214 $83 $131 reversed $215 $-1 #
edge $-1 $216 -20.654696886949694 $217 20.654696886949694 $130 $218 forward 7 unknown #
face $-1 $219 $220 $31 $-1 $221 forward single #
loop $-1 $-1 $222 $84 #
plane-surface $-1 50.655842768639175 0 0 -1 0 0 0 0 1 forward_v I I I I #
coedge $-1 $223 $224 $225 $226 forward $85 $-1 #
coedge $-1 $225 $87 $222 $227 reversed $54 $-1 #
coedge $-1 $87 $225 $228 $229 reversed $54 $-1 #
coedge $-1 $230 $231 $87 $139 reversed $220 $-1 #
edge $-1 $232 -50.655842768639175 $233 50.655842768639175 $138 $234 forward 7 unknown #
face $-1 $235 $236 $32 $-1 $237 reversed single #
loop $-1 $-1 $238 $88 #
plane-surface $-1 87.738495516473463 -4.6098015188809232 142.72404979931733 0 1 0 0.86602541151947299 0 0.49999998660252726 forward_v I I I I #
coedge $-1 $239 $240 $241 $242 reversed $89 $-1 #
coedge $-1 $145 $91 $243 $244 reversed $57 $-1 #
coedge $-1 $91 $144 $239 $245 reversed $57 $-1 #
coedge $-1 $241 $246 $91 $147 forward $247 $-1 #
edge $-1 $248 -6.7865950104024435 $249 -3.8737986437543697 $146 $250 forward 7 unknown #
loop $-1 $-1 $153 $92 #
plane-surface $-1 1.3573205421835155e-006 -1.2305246083409074 92.068208387998695 0.86602541151947299 0 0.49999998660252726 0.49999998660252726 0 -0.86602541151947299 forward_v I I I I #
loop $-1 $-1 $251 $59 #
coedge $-1 $151 $151 $152 $252 reversed $93 $-1 #
coedge $-1 $152 $152 $151 $252 forward $95 $-1 #
coedge $-1 $153 $153 $96 $154 forward $148 $-1 #
edge $-1 $253 0 $253 6.2831853071796004 $153 $254 forward 7 unknown #
face $-1 $255 $256 $34 $-1 $257 reversed single #
loop $-1 $-1 $258 $97 #
plane-surface $-1 87.738495516473463 7.3780870903838558 142.72404979931733 0 1 0 0.86602541151947299 0 0.49999998660252726 forward_v I I I I #
coedge $-1 $259 $260 $261 $262 reversed $98 $-1 #
coedge $-1 $160 $100 $263 $264 reversed $63 $-1 #
coedge $-1 $100 $159 $259 $265 reversed $63 $-1 #
coedge $-1 $261 $266 $100 $162 forward $267 $-1 #
edge $-1 $268 -6.7865950104024435 $269 -3.8737986437543697 $161 $270 forward 7 unknown #
loop $-1 $-1 $168 $101 #
plane-surface $-1 1.3573205421835155e-006 10.757364000923872 92.068208387998695 0.86602541151947299 0 0.49999998660252726 0.49999998660252726 0 -0.86602541151947299 forward_v I I I I #
loop $-1 $-1 $271 $65 #
coedge $-1 $166 $166 $167 $272 reversed $102 $-1 #
coedge $-1 $167 $167 $166 $272 forward $104 $-1 #
coedge $-1 $168 $168 $105 $169 forward $163 $-1 #
edge $-1 $273 0 $273 6.2831853071796004 $168 $274 forward 7 unknown #
face $-1 $275 $276 $36 $-1 $277 forward single #
loop $-1 $-1 $278 $106 #
plane-surface $-1 -138.3943369277921 2.1487523021991084 54.985555640164407 0 -1 0 0.86602541151947299 0 -0.49999998660252726 forward_v I I I I #
coedge $-1 $279 $280 $281 $282 reversed $107 $-1 #
coedge $-1 $175 $109 $283 $284 reversed $69 $-1 #
coedge $-1 $109 $174 $279 $285 reversed $69 $-1 #
coedge $-1 $281 $286 $109 $177 forward $276 $-1 #
edge $-1 $287 18.541325695256873 $288 21.45412206190494 $176 $289 forward 7 unknown #
loop $-1 $-1 $183 $110 #
plane-surface $-1 -50.655842768639175 -1.2305246083409074 4.3297142288457735 -0.86602541151947299 0 0.49999998660252726 0.49999998660252726 0 0.86602541151947299 forward_v I I I I #
loop $-1 $-1 $290 $71 #
coedge $-1 $181 $181 $182 $291 reversed $111 $-1 #
coedge $-1 $182 $182 $181 $291 forward $113 $-1 #
coedge $-1 $183 $183 $114 $184 forward $178 $-1 #
edge $-1 $292 0 $292 6.2831853071796004 $183 $293 forward 7 unknown #
face $-1 $294 $295 $38 $-1 $296 forward single #
loop $-1 $-1 $297 $115 #
plane-surface $-1 -138.3943369277921 14.136640911463887 54.985555640164407 0 -1 0 0.86602541151947299 0 -0.49999998660252726 forward_v I I I I #
coedge $-1 $298 $299 $300 $301 reversed $116 $-1 #
coedge $-1 $190 $118 $302 $303 reversed $75 $-1 #
coedge $-1 $118 $189 $298 $304 reversed $75 $-1 #
coedge $-1 $300 $305 $118 $192 forward $295 $-1 #
edge $-1 $306 18.541325695256873 $307 21.45412206190494 $191 $308 forward 7 unknown #
loop $-1 $-1 $198 $119 #
plane-surface $-1 -50.655842768639175 10.757364000923872 4.3297142288457735 -0.86602541151947299 0 0.49999998660252726 0.49999998660252726 0 0.86602541151947299 forward_v I I I I #
loop $-1 $-1 $309 $77 #
coedge $-1 $196 $196 $197 $310 reversed $120 $-1 #
coedge $-1 $197 $197 $196 $310 forward $122 $-1 #
coedge $-1 $198 $198 $123 $199 forward $193 $-1 #
edge $-1 $311 0 $311 6.2831853071796004 $198 $312 forward 7 unknown #
face $-1 $313 $314 $30 $-1 $315 reversed single #
loop $-1 $-1 $316 $124 #
plane-surface $-1 -50.655842768639175 0 0 1 0 0 0 0 -1 forward_v I I I I #
coedge $-1 $211 $317 $213 $318 reversed $125 $-1 #
coedge $-1 $319 $127 $317 $320 forward $81 $-1 #
coedge $-1 $127 $319 $321 $322 forward $81 $-1 #
coedge $-1 $214 $213 $127 $207 reversed $215 $-1 #
edge $-1 $323 -20.654696886949694 $324 20.654696886949694 $206 $325 forward 7 unknown #
coedge $-1 $129 $128 $326 $327 forward $51 $-1 #
coedge $-1 $328 $329 $128 $210 reversed $314 $-1 #
edge $-1 $217 -50.655842768639175 $330 50.655842768639175 $209 $331 forward 7 unknown #
coedge $-1 $332 $203 $129 $212 reversed $125 $-1 #
edge $-1 $333 -50.655842768639175 $216 50.655842768639175 $211 $334 forward 7 unknown #
coedge $-1 $206 $130 $203 $318 forward $215 $-1 #
coedge $-1 $130 $206 $328 $335 reversed $215 $-1 #
loop $-1 $-1 $213 $313 #
vertex $-1 $131 $336 #
vertex $-1 $131 $337 #
straight-curve $-1 50.655842768639175 0 9.3748257082268935 0 1 0 I I #
face $-1 $338 $339 $31 $-1 $340 reversed single #
loop $-1 $-1 $231 $132 #
plane-surface $-1 0 -25.418116583241172 -5.0867305896697168 0 0 1 1 0 0 forward_v I I I I #
coedge $-1 $341 $342 $136 $227 forward $133 $-1 #
coedge $-1 $343 $135 $342 $344 forward $85 $-1 #
coedge $-1 $135 $343 $345 $346 forward $85 $-1 #
coedge $-1 $137 $136 $135 $226 reversed $54 $-1 #
edge $-1 $347 -50.655842768639175 $348 50.655842768639175 $135 $349 forward 7 unknown #
edge $-1 $348 -9.3748257082268935 $233 -5.0867305896697168 $222 $350 forward 7 unknown #
coedge $-1 $345 $351 $137 $229 forward $352 $-1 #
edge $-1 $232 5.0867305896697168 $347 9.3748257082268935 $228 $353 forward 7 unknown #
coedge $-1 $354 $138 $351 $355 forward $220 $-1 #
coedge $-1 $138 $354 $341 $356 forward $220 $-1 #
vertex $-1 $229 $357 #
vertex $-1 $356 $358 #
straight-curve $-1 0 -20.654696886949694 -5.0867305896697168 1 0 0 I I #
face $-1 $-1 $247 $32 $-1 $359 forward single #
loop $-1 $-1 $360 $140 #
plane-surface $-1 50.655842768639175 0 0 -1 0 0 0 0 1 forward_v I I I I #
coedge $-1 $361 $362 $363 $364 reversed $141 $-1 #
coedge $-1 $365 $143 $145 $245 forward $89 $-1 #
coedge $-1 $143 $365 $361 $366 forward $89 $-1 #
coedge $-1 $363 $146 $143 $242 forward $247 $-1 #
edge $-1 $249 -2.7640146063695621 $367 3.9945392147104695 $241 $368 forward 7 unknown #
coedge $-1 $369 $370 $144 $244 forward $236 $-1 #
edge $-1 $371 -67.03231067081289 $248 -61.98719919143177 $243 $372 forward 7 unknown #
edge $-1 $249 95.486092647885755 $371 101.31168553727835 $145 $373 forward 7 unknown #
coedge $-1 $146 $363 $369 $374 forward $247 $-1 #
loop $-1 $-1 $363 $235 #
vertex $-1 $244 $375 #
vertex $-1 $147 $376 #
straight-curve $-1 43.869247758236732 2.1487523021991084 9.3748257082268935 -1 0 0 I I #
coedge $-1 $251 $251 $-1 $377 reversed $150 $-1 #
edge $-1 $378 0 $378 6.2831853071796004 $151 $379 forward 7 unknown #
vertex $-1 $154 $380 #
ellipse-curve $-1 49.199444585315135 -1.2305246083409109 6.8522699685363335 0.86602541151947299 0 0.49999998660252726 0.49999998660252726 0 -0.86602541151947299 1 I I #
face $-1 $-1 $267 $34 $-1 $381 forward single #
loop $-1 $-1 $382 $155 #
plane-surface $-1 50.655842768639175 0 0 -1 0 0 0 0 1 forward_v I I I I #
coedge $-1 $383 $384 $385 $386 reversed $156 $-1 #
coedge $-1 $387 $158 $160 $265 forward $98 $-1 #
coedge $-1 $158 $387 $383 $388 forward $98 $-1 #
coedge $-1 $385 $161 $158 $262 forward $267 $-1 #
edge $-1 $269 -8.7579589110019516 $389 -1.99940508992192 $261 $390 forward 7 unknown #
coedge $-1 $391 $392 $159 $264 forward $256 $-1 #
edge $-1 $393 -67.03231067081289 $268 -61.98719919143177 $263 $394 forward 7 unknown #
edge $-1 $269 95.486092647885755 $393 101.31168553727835 $160 $395 forward 7 unknown #
coedge $-1 $161 $385 $391 $396 forward $267 $-1 #
loop $-1 $-1 $385 $255 #
vertex $-1 $264 $397 #
vertex $-1 $162 $398 #
straight-curve $-1 43.869247758236732 14.136640911463887 9.3748257082268935 -1 0 0 I I #
coedge $-1 $271 $271 $-1 $399 reversed $165 $-1 #
edge $-1 $400 0 $400 6.2831853071796004 $166 $401 forward 7 unknown #
vertex $-1 $169 $402 #
ellipse-curve $-1 49.199444585315135 10.757364000923864 6.8522699685363335 0.86602541151947299 0 0.49999998660252726 0.49999998660252726 0 -0.86602541151947299 1 I I #
face $-1 $-1 $403 $36 $-1 $404 reversed single #
loop $-1 $-1 $176 $170 #
plane-surface $-1 0 0 9.3748257082268935 0 0 1 1 0 0 forward_v I I I I #
coedge $-1 $405 $406 $407 $408 reversed $171 $-1 #
coedge $-1 $409 $173 $175 $285 forward $107 $-1 #
coedge $-1 $173 $409 $405 $410 forward $107 $-1 #
coedge $-1 $407 $176 $173 $282 forward $276 $-1 #
edge $-1 $288 -3.9945392147104695 $411 2.7640146063695621 $281 $412 forward 7 unknown #
coedge $-1 $413 $414 $174 $284 forward $403 $-1 #
edge $-1 $415 -23.16306359123643 $287 -18.11795211185531 $283 $416 forward 7 unknown #
edge $-1 $288 -5.825592889392575 $415 0 $175 $417 forward 7 unknown #
coedge $-1 $176 $407 $413 $418 forward $276 $-1 #
vertex $-1 $284 $419 #
vertex $-1 $177 $420 #
straight-curve $-1 -69.197168463896048 -4.6098015188809232 9.3748257082268935 1 0 0 I I #
coedge $-1 $290 $290 $-1 $421 reversed $180 $-1 #
edge $-1 $422 0 $422 6.2831853071796004 $181 $423 forward 7 unknown #
vertex $-1 $184 $424 #
ellipse-curve $-1 -49.199444585315142 -1.2305246083409109 6.8522699685363353 -0.86602541151947299 0 0.49999998660252726 0.49999998660252726 0 0.86602541151947299 1 I I #
face $-1 $-1 $425 $38 $-1 $426 reversed single #
loop $-1 $-1 $191 $185 #
plane-surface $-1 0 0 9.3748257082268935 0 0 1 1 0 0 forward_v I I I I #
coedge $-1 $427 $428 $429 $430 reversed $186 $-1 #
coedge $-1 $431 $188 $190 $304 forward $116 $-1 #
coedge $-1 $188 $431 $427 $432 forward $116 $-1 #
coedge $-1 $429 $191 $188 $301 forward $295 $-1 #
edge $-1 $307 1.99940508992192 $433 8.7579589110019516 $300 $434 forward 7 unknown #
coedge $-1 $435 $436 $189 $303 forward $425 $-1 #
edge $-1 $437 -23.16306359123643 $306 -18.11795211185531 $302 $438 forward 7 unknown #
edge $-1 $307 -5.825592889392575 $437 0 $190 $439 forward 7 unknown #
coedge $-1 $191 $429 $435 $440 forward $295 $-1 #
vertex $-1 $192 $441 #
vertex $-1 $192 $442 #
straight-curve $-1 -69.197168463896048 7.3780870903838558 9.3748257082268935 1 0 0 I I #
coedge $-1 $309 $309 $-1 $443 reversed $195 $-1 #
edge $-1 $444 0 $444 6.2831853071796004 $196 $445 forward 7 unknown #
vertex $-1 $199 $446 #
ellipse-curve $-1 -49.199444585315142 10.757364000923864 6.8522699685363353 -0.86602541151947299 0 0.49999998660252726 0.49999998660252726 0 0.86602541151947299 1 I I #
face $-1 $-1 $215 $30 $-1 $447 reversed single #
loop $-1 $-1 $328 $200 #
plane-surface $-1 0 20.654696886949694 0 0 -1 0 0 0 -1 forward_v I I I I #
coedge $-1 $448 $326 $329 $449 forward $201 $-1 #
coedge $-1 $203 $332 $204 $320 reversed $125 $-1 #
edge $-1 $216 -9.3748257082268935 $324 9.3748257082268935 $213 $450 forward 7 unknown #
coedge $-1 $205 $204 $448 $451 forward $81 $-1 #
edge $-1 $324 -50.655842768639175 $452 50.655842768639175 $317 $453 forward 7 unknown #
coedge $-1 $329 $328 $205 $322 reversed $314 $-1 #
edge $-1 $454 -50.655842768639175 $323 50.655842768639175 $321 $455 forward 7 unknown #
vertex $-1 $207 $456 #
vertex $-1 $318 $457 #
straight-curve $-1 50.655842768639175 0 -9.3748257082268935 0 -1 0 I I #
coedge $-1 $316 $458 $208 $327 reversed $201 $-1 #
edge $-1 $330 -20.654696886949694 $333 20.654696886949694 $326 $459 forward 7 unknown #
coedge $-1 $321 $209 $214 $335 forward $314 $-1 #
coedge $-1 $209 $321 $316 $449 reversed $314 $-1 #
vertex $-1 $210 $460 #
straight-curve $-1 0 20.654696886949694 9.3748257082268935 -1 0 0 I I #
coedge $-1 $317 $211 $458 $461 forward $125 $-1 #
vertex $-1 $327 $462 #
straight-curve $-1 0 -20.654696886949694 9.3748257082268935 1 0 0 I I #
edge $-1 $217 -9.3748257082268935 $323 9.3748257082268935 $214 $463 forward 7 unknown #
point $-1 50.655842768639175 -20.654696886949694 9.3748257082268935 #
point $-1 50.655842768639175 20.654696886949694 9.3748257082268935 #
face $-1 $-1 $352 $31 $-1 $464 reversed single #
loop $-1 $-1 $465 $219 #
plane-surface $-1 0 -30.181536279532651 -7.2307781489483052 0 1 0 0 0 1 forward_v I I I I #
coedge $-1 $466 $222 $231 $356 reversed $133 $-1 #
coedge $-1 $222 $466 $223 $344 reversed $133 $-1 #
coedge $-1 $224 $223 $467 $468 forward $85 $-1 #
edge $-1 $348 20.654696886949694 $469 30.181536279532651 $342 $470 forward 7 unknown #
coedge $-1 $471 $228 $224 $346 reversed $352 $-1 #
edge $-1 $472 -30.181536279532651 $347 -20.654696886949694 $345 $473 forward 7 unknown #
vertex $-1 $229 $474 #
vertex $-1 $344 $475 #
straight-curve $-1 0 -20.654696886949694 -9.3748257082268935 1 0 0 I I #
straight-curve $-1 50.655842768639175 -20.654696886949694 0 0 0 1 I I #
coedge $-1 $228 $471 $230 $355 reversed $352 $-1 #
loop $-1 $-1 $228 $338 #
straight-curve $-1 -50.655842768639175 -20.654696886949694 0 0 0 -1 I I #
coedge $-1 $231 $230 $476 $477 forward $220 $-1 #
edge $-1 $232 -4.7634196962914785 $478 4.7634196962914785 $351 $479 forward 7 unknown #
edge $-1 $480 -4.7634196962914785 $233 4.7634196962914785 $341 $481 forward 7 unknown #
point $-1 -50.655842768639175 -20.654696886949694 -5.0867305896697168 #
point $-1 50.655842768639175 -20.654696886949694 -5.0867305896697168 #
plane-surface $-1 0 0 9.3748257082268935 0 0 1 1 0 0 forward_v I I I I #
coedge $-1 $370 $369 $362 $482 forward $236 $-1 #
coedge $-1 $362 $238 $240 $366 reversed $141 $-1 #
coedge $-1 $238 $361 $360 $482 reversed $141 $-1 #
coedge $-1 $246 $241 $238 $364 forward $247 $-1 #
edge $-1 $367 3.8737986437543697 $483 6.7865950104024435 $363 $484 forward 7 unknown #
coedge $-1 $240 $239 $370 $485 reversed $89 $-1 #
edge $-1 $486 -101.31168553727835 $367 -95.486092647885755 $361 $487 forward 7 unknown #
vertex $-1 $242 $488 #
straight-curve $-1 47.743046401991108 -0.61526230417045369 9.3748257082268864 0 -1 0 I I #
coedge $-1 $360 $243 $246 $374 reversed $236 $-1 #
coedge $-1 $243 $360 $365 $485 forward $236 $-1 #
vertex $-1 $244 $489 #
straight-curve $-1 50.655842768639175 2.1487523021991084 71.362024899658664 0 0 1 I I #
straight-curve $-1 1.3573205421835155e-006 2.1487523021991084 92.068208387998695 0.49999998660252726 0 -0.86602541151947299 I I #
edge $-1 $483 -4.6098015188809232 $248 2.1487523021991084 $369 $490 forward 7 unknown #
point $-1 50.655842768639175 2.1487523021991084 9.3748257082268935 #
point $-1 47.743046401991101 2.1487523021991084 9.3748257082268935 #
edge $-1 $491 1 $491 0 $251 $-1 forward 7 unknown #
vertex $-1 $252 $492 #
ellipse-curve $-1 46.328586336159958 -1.2305246083409109 5.1947792447978332 0.86602541151947299 0 0.49999998660252726 0.49999998660252726 0 -0.86602541151947299 1 I I #
point $-1 49.699444571917681 -1.2305246083409109 5.9862445570168692 #
plane-surface $-1 0 0 9.3748257082268935 0 0 1 1 0 0 forward_v I I I I #
coedge $-1 $392 $391 $384 $493 forward $256 $-1 #
coedge $-1 $384 $258 $260 $388 reversed $156 $-1 #
coedge $-1 $258 $383 $382 $493 reversed $156 $-1 #
coedge $-1 $266 $261 $258 $386 forward $267 $-1 #
edge $-1 $389 3.8737986437543697 $494 6.7865950104024435 $385 $495 forward 7 unknown #
coedge $-1 $260 $259 $392 $496 reversed $98 $-1 #
edge $-1 $497 -101.31168553727835 $389 -95.486092647885755 $383 $498 forward 7 unknown #
vertex $-1 $262 $499 #
straight-curve $-1 47.743046401991108 5.3786820004619358 9.3748257082268864 0 -1 0 I I #
coedge $-1 $382 $263 $266 $396 reversed $256 $-1 #
coedge $-1 $263 $382 $387 $496 forward $256 $-1 #
vertex $-1 $264 $500 #
straight-curve $-1 50.655842768639175 14.136640911463887 71.362024899658664 0 0 1 I I #
straight-curve $-1 1.3573205421835155e-006 14.136640911463887 92.068208387998695 0.49999998660252726 0 -0.86602541151947299 I I #
edge $-1 $494 7.3780870903838558 $268 14.136640911463887 $391 $501 forward 7 unknown #
point $-1 50.655842768639175 14.136640911463887 9.3748257082268935 #
point $-1 47.743046401991101 14.136640911463887 9.3748257082268935 #
edge $-1 $502 1 $502 0 $271 $-1 forward 7 unknown #
vertex $-1 $272 $503 #
ellipse-curve $-1 46.328586336159958 10.757364000923864 5.1947792447978332 0.86602541151947299 0 0.49999998660252726 0.49999998660252726 0 -0.86602541151947299 1 I I #
point $-1 49.699444571917681 10.757364000923864 5.9862445570168692 #
loop $-1 $-1 $283 $275 #
plane-surface $-1 -50.655842768639175 0 0 1 0 0 0 0 -1 forward_v I I I I #
coedge $-1 $406 $278 $280 $410 reversed $171 $-1 #
coedge $-1 $278 $405 $504 $505 reversed $171 $-1 #
coedge $-1 $286 $281 $278 $408 forward $276 $-1 #
edge $-1 $411 -21.45412206190494 $506 -18.541325695256873 $407 $507 forward 7 unknown #
coedge $-1 $280 $279 $414 $508 reversed $107 $-1 #
edge $-1 $509 0 $411 5.825592889392575 $405 $510 forward 7 unknown #
vertex $-1 $282 $511 #
straight-curve $-1 -47.743046401991108 -0.61526230417045369 9.3748257082268935 0 1 0 I I #
coedge $-1 $504 $283 $286 $418 reversed $403 $-1 #
coedge $-1 $283 $504 $409 $508 forward $403 $-1 #
vertex $-1 $284 $512 #
straight-curve $-1 -50.655842768639175 -4.6098015188809232 27.492777820082203 0 0 1 I I #
straight-curve $-1 -50.655842768639175 -4.6098015188809232 4.3297142288457735 -0.49999998660252726 0 -0.86602541151947299 I I #
edge $-1 $506 -2.1487523021991084 $287 4.6098015188809232 $413 $513 forward 7 unknown #
point $-1 -50.655842768639175 -4.6098015188809232 9.3748257082268935 #
point $-1 -47.743046401991108 -4.6098015188809232 9.3748257082268935 #
edge $-1 $514 1 $514 0 $290 $-1 forward 7 unknown #
vertex $-1 $291 $515 #
ellipse-curve $-1 -46.328586336159951 -1.2305246083409109 5.194779244797826 -0.86602541151947299 0 0.49999998660252726 0.49999998660252726 0 0.86602541151947299 1 I I #
point $-1 -48.699444598712617 -1.2305246083409109 7.7182953800558085 #
loop $-1 $-1 $302 $294 #
plane-surface $-1 -50.655842768639175 0 0 1 0 0 0 0 -1 forward_v I I I I #
coedge $-1 $428 $297 $299 $432 reversed $186 $-1 #
coedge $-1 $297 $427 $516 $517 reversed $186 $-1 #
coedge $-1 $305 $300 $297 $430 forward $295 $-1 #
edge $-1 $433 -21.45412206190494 $518 -18.541325695256873 $429 $519 forward 7 unknown #
coedge $-1 $299 $298 $436 $520 reversed $116 $-1 #
edge $-1 $521 0 $433 5.825592889392575 $427 $522 forward 7 unknown #
vertex $-1 $301 $523 #
straight-curve $-1 -47.743046401991108 5.3786820004619358 9.3748257082268935 0 1 0 I I #
coedge $-1 $516 $302 $305 $440 reversed $425 $-1 #
coedge $-1 $302 $516 $431 $520 forward $425 $-1 #
vertex $-1 $303 $524 #
straight-curve $-1 -50.655842768639175 7.3780870903838558 27.492777820082203 0 0 1 I I #
straight-curve $-1 -50.655842768639175 7.3780870903838558 4.3297142288457735 -0.49999998660252726 0 -0.86602541151947299 I I #
edge $-1 $518 -14.136640911463887 $306 -7.3780870903838558 $435 $525 forward 7 unknown #
point $-1 -50.655842768639175 7.3780870903838558 9.3748257082268935 #
point $-1 -47.743046401991108 7.3780870903838558 9.3748257082268935 #
edge $-1 $526 1 $526 0 $309 $-1 forward 7 unknown #
vertex $-1 $310 $527 #
ellipse-curve $-1 -46.328586336159951 10.757364000923864 5.194779244797826 -0.86602541151947299 0 0.49999998660252726 0.49999998660252726 0 0.86602541151947299 1 I I #
point $-1 -48.699444598712617 10.757364000923864 7.7182953800558085 #
plane-surface $-1 50.655842768639175 0 0 -1 0 0 0 0 1 forward_v I I I I #
coedge $-1 $458 $316 $319 $451 reversed $201 $-1 #
edge $-1 $330 -9.3748257082268935 $454 9.3748257082268935 $329 $528 forward 7 unknown #
straight-curve $-1 50.655842768639175 -20.654696886949694 0 0 0 -1 I I #
edge $-1 $452 -20.654696886949694 $454 20.654696886949694 $448 $529 forward 7 unknown #
vertex $-1 $451 $530 #
straight-curve $-1 0 -20.654696886949694 -9.3748257082268935 -1 0 0 I I #
vertex $-1 $322 $531 #
straight-curve $-1 0 20.654696886949694 -9.3748257082268935 1 0 0 I I #
point $-1 50.655842768639175 20.654696886949694 -9.3748257082268935 #
point $-1 50.655842768639175 -20.654696886949694 -9.3748257082268935 #
coedge $-1 $326 $448 $332 $461 reversed $201 $-1 #
straight-curve $-1 -50.655842768639175 0 9.3748257082268935 0 -1 0 I I #
point $-1 -50.655842768639175 20.654696886949694 9.3748257082268935 #
edge $-1 $333 -9.3748257082268935 $452 9.3748257082268935 $458 $532 forward 7 unknown #
point $-1 -50.655842768639175 -20.654696886949694 9.3748257082268935 #
straight-curve $-1 50.655842768639175 20.654696886949694 0 0 0 -1 I I #
plane-surface $-1 -50.655842768639175 0 0 1 0 0 0 0 -1 forward_v I I I I #
coedge $-1 $467 $476 $471 $533 forward $339 $-1 #
coedge $-1 $342 $341 $534 $535 forward $133 $-1 #
coedge $-1 $534 $465 $343 $468 reversed $339 $-1 #
edge $-1 $469 -50.655842768639175 $472 50.655842768639175 $467 $536 forward 7 unknown #
vertex $-1 $535 $537 #
straight-curve $-1 50.655842768639175 0 -9.3748257082268935 0 -1 0 I I #
coedge $-1 $351 $345 $465 $533 reversed $352 $-1 #
vertex $-1 $346 $538 #
straight-curve $-1 -50.655842768639175 0 -9.3748257082268935 0 1 0 I I #
point $-1 -50.655842768639175 -20.654696886949694 -9.3748257082268935 #
point $-1 50.655842768639175 -20.654696886949694 -9.3748257082268935 #
coedge $-1 $465 $534 $354 $477 reversed $339 $-1 #
edge $-1 $478 -50.655842768639175 $480 50.655842768639175 $476 $539 forward 7 unknown #
vertex $-1 $355 $540 #
straight-curve $-1 -50.655842768639175 -25.418116583241172 -5.0867305896697168 0 -1 0 I I #
vertex $-1 $356 $541 #
straight-curve $-1 50.655842768639175 -25.418116583241172 -5.0867305896697168 0 1 0 I I #
edge $-1 $483 61.98719919143177 $486 67.03231067081289 $360 $542 forward 7 unknown #
vertex $-1 $374 $543 #
straight-curve $-1 43.869247758236732 -4.6098015188809232 9.3748257082268935 1 0 0 I I #
edge $-1 $486 -3.9945392147104695 $371 2.7640146063695621 $370 $544 forward 7 unknown #
vertex $-1 $485 $545 #
straight-curve $-1 1.3573205421835155e-006 -4.6098015188809232 92.068208387998695 -0.49999998660252726 0 0.86602541151947299 I I #
point $-1 47.743046401991101 -4.6098015188809232 9.3748257082268935 #
point $-1 50.655842768639175 2.1487523021991084 4.3297142288457735 #
straight-curve $-1 50.655842768639175 0 9.3748257082268935 0 1 0 I I #
vertex $-1 $377 $546 #
point $-1 46.828586322762483 -1.2305246083409109 4.3287538332783608 #
edge $-1 $494 61.98719919143177 $497 67.03231067081289 $382 $547 forward 7 unknown #
vertex $-1 $396 $548 #
straight-curve $-1 43.869247758236732 7.3780870903838558 9.3748257082268935 1 0 0 I I #
edge $-1 $497 1.99940508992192 $393 8.7579589110019516 $392 $549 forward 7 unknown #
vertex $-1 $496 $550 #
straight-curve $-1 1.3573205421835155e-006 7.3780870903838558 92.068208387998695 -0.49999998660252726 0 0.86602541151947299 I I #
point $-1 47.743046401991101 7.3780870903838558 9.3748257082268935 #
point $-1 50.655842768639175 14.136640911463887 4.3297142288457735 #
straight-curve $-1 50.655842768639175 0 9.3748257082268935 0 1 0 I I #
vertex $-1 $399 $551 #
point $-1 46.828586322762483 10.757364000923864 4.3287538332783608 #
coedge $-1 $414 $413 $406 $505 forward $403 $-1 #
edge $-1 $506 18.11795211185531 $509 23.16306359123643 $504 $552 forward 7 unknown #
vertex $-1 $418 $553 #
straight-curve $-1 -69.197168463896048 2.1487523021991084 9.3748257082268935 -1 0 0 I I #
edge $-1 $509 -2.7640146063695621 $415 3.9945392147104695 $414 $554 forward 7 unknown #
vertex $-1 $508 $555 #
straight-curve $-1 -50.655842768639175 2.1487523021991084 4.3297142288457735 0.49999998660252726 0 0.86602541151947299 I I #
point $-1 -47.743046401991108 2.1487523021991084 9.3748257082268935 #
point $-1 -50.655842768639175 -4.6098015188809232 4.3297142288457735 #
straight-curve $-1 -50.655842768639175 0 9.3748257082268935 0 -1 0 I I #
vertex $-1 $421 $556 #
point $-1 -45.828586349557426 -1.2305246083409109 6.0608046563172993 #
coedge $-1 $436 $435 $428 $517 forward $425 $-1 #
edge $-1 $518 18.11795211185531 $521 23.16306359123643 $516 $557 forward 7 unknown #
vertex $-1 $440 $558 #
straight-curve $-1 -69.197168463896048 14.136640911463887 9.3748257082268935 -1 0 0 I I #
edge $-1 $521 -8.7579589110019516 $437 -1.99940508992192 $436 $559 forward 7 unknown #
vertex $-1 $520 $560 #
straight-curve $-1 -50.655842768639175 14.136640911463887 4.3297142288457735 0.49999998660252726 0 0.86602541151947299 I I #
point $-1 -47.743046401991108 14.136640911463887 9.3748257082268935 #
point $-1 -50.655842768639175 7.3780870903838558 4.3297142288457735 #
straight-curve $-1 -50.655842768639175 0 9.3748257082268935 0 -1 0 I I #
vertex $-1 $443 $561 #
point $-1 -45.828586349557426 10.757364000923864 6.0608046563172993 #
straight-curve $-1 -50.655842768639175 20.654696886949694 0 0 0 -1 I I #
straight-curve $-1 -50.655842768639175 0 -9.3748257082268935 0 1 0 I I #
point $-1 -50.655842768639175 -20.654696886949694 -9.3748257082268935 #
point $-1 -50.655842768639175 20.654696886949694 -9.3748257082268935 #
straight-curve $-1 -50.655842768639175 -20.654696886949694 0 0 0 -1 I I #
edge $-1 $478 -2.1440475592785884 $472 2.1440475592785884 $471 $562 forward 7 unknown #
coedge $-1 $476 $467 $466 $535 reversed $339 $-1 #
edge $-1 $480 -2.1440475592785884 $469 2.1440475592785884 $466 $563 forward 7 unknown #
straight-curve $-1 0 -30.181536279532651 -9.3748257082268935 -1 0 0 I I #
point $-1 50.655842768639175 -30.181536279532651 -9.3748257082268935 #
point $-1 -50.655842768639175 -30.181536279532651 -9.3748257082268935 #
straight-curve $-1 0 -30.181536279532651 -5.0867305896697168 1 0 0 I I #
point $-1 -50.655842768639175 -30.181536279532651 -5.0867305896697168 #
point $-1 50.655842768639175 -30.181536279532651 -5.0867305896697168 #
straight-curve $-1 50.655842768639175 -4.6098015188809232 71.362024899658664 0 0 -1 I I #
point $-1 50.655842768639175 -4.6098015188809232 9.3748257082268935 #
straight-curve $-1 50.655842768639175 -0.61526230417045369 4.3297142288457664 0 1 0 I I #
point $-1 50.655842768639175 -4.6098015188809232 4.3297142288457735 #
point $-1 45.462560924640485 -1.2305246083409109 4.6947792581953065 #
straight-curve $-1 50.655842768639175 7.3780870903838558 71.362024899658664 0 0 -1 I I #
point $-1 50.655842768639175 7.3780870903838558 9.3748257082268935 #
straight-curve $-1 50.655842768639175 5.3786820004619358 4.3297142288457664 0 1 0 I I #
point $-1 50.655842768639175 7.3780870903838558 4.3297142288457735 #
point $-1 45.462560924640485 10.757364000923864 4.6947792581953065 #
straight-curve $-1 -50.655842768639175 2.1487523021991084 27.492777820082203 0 0 -1 I I #
point $-1 -50.655842768639175 2.1487523021991084 9.3748257082268935 #
straight-curve $-1 -50.655842768639175 -0.61526230417045369 4.3297142288457771 0 -1 0 I I #
point $-1 -50.655842768639175 2.1487523021991084 4.3297142288457735 #
point $-1 -45.462560924640478 -1.2305246083409109 4.6947792581952994 #
straight-curve $-1 -50.655842768639175 14.136640911463887 27.492777820082203 0 0 -1 I I #
point $-1 -50.655842768639175 14.136640911463887 9.3748257082268935 #
straight-curve $-1 -50.655842768639175 5.3786820004619358 4.3297142288457771 0 -1 0 I I #
point $-1 -50.655842768639175 14.136640911463887 4.3297142288457735 #
point $-1 -45.462560924640478 10.757364000923864 4.6947792581952994 #
straight-curve $-1 -50.655842768639175 -30.181536279532651 -7.2307781489483052 0 0 -1 I I #
straight-curve $-1 50.655842768639175 -30.181536279532651 -7.2307781489483052 0 0 -1 I I #
End-of-ACIS-data 