500 0 10 0           
7 Unknown 11 ACIS 5.0 NT 24 Fri Mar 26 00:36:18 1999 
-1 9.9999999999999995e-007 1e-010 
body $-1 $10 $-1 $11 #
body $-1 $12 $-1 $13 #
body $-1 $14 $-1 $15 #
body $-1 $16 $-1 $17 #
body $-1 $18 $-1 $19 #
body $-1 $20 $-1 $21 #
body $-1 $22 $-1 $23 #
body $-1 $24 $-1 $25 #
body $-1 $26 $-1 $27 #
body $-1 $28 $-1 $29 #
lump $-1 $-1 $30 $0 #
transform $-1 1 0 0 0 1 0 0 0 1 61.203039643543811 40.266209540928024 14.933901122076538 1 rotate no_reflect no_shear #
lump $-1 $-1 $31 $1 #
transform $-1 1 0 0 0 1 0 0 0 1 61.203039643543811 40.266209540928024 14.933901122076538 1 rotate no_reflect no_shear #
lump $-1 $-1 $32 $2 #
transform $-1 1 0 0 0 1 0 0 0 1 61.203039643543811 40.266209540928024 14.933901122076538 1 rotate no_reflect no_shear #
lump $-1 $-1 $33 $3 #
transform $-1 1 0 0 0 1 0 0 0 1 61.203039643543811 40.266209540928024 14.933901122076538 1 rotate no_reflect no_shear #
lump $-1 $-1 $34 $4 #
transform $-1 1 0 0 0 1 0 0 0 1 61.203039643543811 40.266209540928024 14.933901122076538 1 rotate no_reflect no_shear #
lump $-1 $-1 $35 $5 #
transform $-1 1 0 0 0 1 0 0 0 1 61.203039643543811 40.266209540928024 14.933901122076538 1 rotate no_reflect no_shear #
lump $-1 $-1 $36 $6 #
transform $-1 1 0 0 0 1 0 0 0 1 61.203039643543811 40.266209540928024 14.933901122076538 1 rotate no_reflect no_shear #
lump $-1 $-1 $37 $7 #
transform $-1 1 0 0 0 1 0 0 0 1 61.203039643543811 40.266209540928024 14.933901122076538 1 rotate no_reflect no_shear #
lump $-1 $-1 $38 $8 #
transform $-1 1 0 0 0 1 0 0 0 1 61.203039643543811 40.266209540928024 14.933901122076538 1 rotate no_reflect no_shear #
lump $-1 $-1 $39 $9 #
transform $-1 1 0 0 0 1 0 0 0 1 61.203039643543811 40.266209540928024 14.933901122076538 1 rotate no_reflect no_shear #
shell $-1 $-1 $-1 $40 $-1 $10 #
shell $-1 $-1 $-1 $41 $-1 $12 #
shell $-1 $-1 $-1 $42 $-1 $14 #
shell $-1 $-1 $-1 $43 $-1 $16 #
shell $-1 $-1 $-1 $44 $-1 $18 #
shell $-1 $-1 $-1 $45 $-1 $20 #
shell $-1 $-1 $-1 $46 $-1 $22 #
shell $-1 $-1 $-1 $47 $-1 $24 #
shell $-1 $-1 $-1 $48 $-1 $26 #
shell $-1 $-1 $-1 $49 $-1 $28 #
face $-1 $50 $51 $30 $-1 $52 forward single #
face $-1 $53 $54 $31 $-1 $55 forward single #
face $-1 $56 $57 $32 $-1 $58 reversed single #
face $-1 $59 $60 $33 $-1 $61 forward single #
face $-1 $62 $63 $34 $-1 $64 forward single #
face $-1 $65 $66 $35 $-1 $67 reversed single #
face $-1 $68 $69 $36 $-1 $70 forward single #
face $-1 $71 $72 $37 $-1 $73 forward single #
face $-1 $74 $75 $38 $-1 $76 reversed single #
face $-1 $77 $78 $39 $-1 $79 forward single #
face $-1 $80 $81 $30 $-1 $82 reversed single #
loop $-1 $-1 $83 $40 #
plane-surface $-1 0 0 14.933901122076538 0 0 1 1 0 0 forward_v I I I I #
face $-1 $84 $85 $31 $-1 $86 forward single #
loop $-1 $-1 $87 $41 #
plane-surface $-1 0 -40.266209540928024 0 0 1 0 0 0 1 forward_v I I I I #
face $-1 $88 $89 $32 $-1 $90 reversed single #
loop $-1 $-1 $91 $42 #
plane-surface $-1 -157.6603474389965 -22.691128443634177 76.136826656993094 0 1 0 -0.78801076186113728 0 0.61566146476048833 forward_v I I I I #
face $-1 $92 $93 $33 $-1 $94 forward single #
loop $-1 $95 $96 $43 #
cone-surface $-1 -55.278399198011861 -18.073499949992808 7.5471801224161545 0.78801076186113728 0 -0.61566146476048833 0.30783073238024417 0 0.39400538093056864 1 I I 0 1 0.5 forward I I I I #
face $-1 $97 $98 $34 $-1 $99 forward single #
loop $-1 $100 $101 $44 #
cone-surface $-1 -55.278399198011861 -11.147057209530757 7.5471801224161545 0.78801076186113728 0 -0.61566146476048833 0.30783073238024417 0 0.39400538093056864 1 I I 0 1 0.5 forward I I I I #
face $-1 $102 $103 $35 $-1 $104 reversed single #
loop $-1 $-1 $105 $45 #
plane-surface $-1 -157.6603474389965 10.834261682980205 76.136826656993094 0 1 0 -0.78801076186113728 0 0.61566146476048833 forward_v I I I I #
face $-1 $106 $107 $36 $-1 $108 forward single #
loop $-1 $109 $110 $46 #
cone-surface $-1 -55.278399198011861 15.451890176621575 7.5471801224161545 0.78801076186113728 0 -0.61566146476048833 0.30783073238024417 0 0.39400538093056864 1 I I 0 1 0.5 forward I I I I #
face $-1 $111 $112 $37 $-1 $113 forward single #
loop $-1 $114 $115 $47 #
cone-surface $-1 -55.278399198011861 22.378332917083625 7.5471801224161545 0.78801076186113728 0 -0.61566146476048833 0.30783073238024417 0 0.39400538093056864 1 I I 0 1 0.5 forward I I I I #
face $-1 $116 $117 $38 $-1 $118 reversed single #
loop $-1 $-1 $119 $48 #
plane-surface $-1 52.143251141777888 -0.26033999997859247 175.232967193664 0 -1 0 -0.66913061440640931 0 -0.74314481823134659 forward_v I I I I #
face $-1 $120 $121 $39 $-1 $122 forward single #
loop $-1 $123 $124 $49 #
cone-surface $-1 53.336017543645241 -6.6082381280511555 7.6642221248678375 -0.66913061440640931 0 -0.74314481823134659 1.4862896364626932 0 -1.3382612288128186 1 I I 0 1 2 forward I I I I #
face $-1 $125 $126 $30 $-1 $127 reversed single #
loop $-1 $-1 $128 $50 #
plane-surface $-1 0 0 -14.933901122076538 0 0 1 1 0 0 forward_v I I I I #
coedge $-1 $129 $130 $131 $132 forward $51 $-1 #
face $-1 $133 $134 $31 $-1 $135 reversed single #
loop $-1 $-1 $136 $53 #
plane-surface $-1 0 0 14.933901122076538 0 0 1 1 0 0 forward_v I I I I #
coedge $-1 $137 $138 $139 $140 forward $54 $-1 #
face $-1 $141 $142 $32 $-1 $143 reversed single #
loop $-1 $-1 $144 $56 #
plane-surface $-1 -61.203039643543804 -14.610278579761783 0.77612058751626023 -0.78801076186113728 0 0.61566146476048833 0.61566146476048833 0 0.78801076186113728 forward_v I I I I #
coedge $-1 $145 $146 $147 $148 reversed $57 $-1 #
face $-1 $-1 $149 $33 $-1 $150 forward single #
loop $-1 $151 $152 $59 #
cone-surface $-1 -54.687391126616006 -18.073499949992808 7.0854340238457887 0.78801076186113728 0 -0.61566146476048833 0.15391536619012208 0 0.19700269046528432 1 I I -0.70710678118654746 0.70710678118654746 0.25 forward I I I I #
loop $-1 $-1 $153 $43 #
coedge $-1 $96 $96 $154 $155 reversed $60 $-1 #
face $-1 $-1 $156 $34 $-1 $157 forward single #
loop $-1 $158 $159 $62 #
cone-surface $-1 -54.687391126616006 -11.147057209530757 7.0854340238457887 0.78801076186113728 0 -0.61566146476048833 0.15391536619012208 0 0.19700269046528432 1 I I -0.70710678118654746 0.70710678118654746 0.25 forward I I I I #
loop $-1 $-1 $160 $44 #
coedge $-1 $101 $101 $161 $162 reversed $63 $-1 #
face $-1 $163 $164 $35 $-1 $165 reversed single #
loop $-1 $-1 $166 $65 #
plane-surface $-1 -61.203039643543804 18.9151115468526 0.77612058751626023 -0.78801076186113728 0 0.61566146476048833 0.61566146476048833 0 0.78801076186113728 forward_v I I I I #
coedge $-1 $167 $168 $169 $170 reversed $66 $-1 #
face $-1 $-1 $171 $36 $-1 $172 forward single #
loop $-1 $173 $174 $68 #
cone-surface $-1 -54.687391126616006 15.451890176621575 7.0854340238457887 0.78801076186113728 0 -0.61566146476048833 0.15391536619012208 0 0.19700269046528432 1 I I -0.70710678118654746 0.70710678118654746 0.25 forward I I I I #
loop $-1 $-1 $175 $46 #
coedge $-1 $110 $110 $176 $177 reversed $69 $-1 #
face $-1 $-1 $178 $37 $-1 $179 forward single #
loop $-1 $180 $181 $71 #
cone-surface $-1 -54.687391126616006 22.378332917083625 7.0854340238457887 0.78801076186113728 0 -0.61566146476048833 0.15391536619012208 0 0.19700269046528432 1 I I -0.70710678118654746 0.70710678118654746 0.25 forward I I I I #
loop $-1 $-1 $182 $47 #
coedge $-1 $115 $115 $183 $184 reversed $72 $-1 #
face $-1 $185 $186 $38 $-1 $187 reversed single #
loop $-1 $-1 $188 $74 #
plane-surface $-1 -29.762403898670705 -6.6082381280511555 84.267523651449466 0.66913061440640931 0 0.74314481823134659 0.74314481823134659 0 -0.66913061440640931 forward_v I I I I #
coedge $-1 $189 $190 $191 $192 reversed $75 $-1 #
face $-1 $-1 $193 $39 $-1 $194 forward single #
loop $-1 $195 $196 $77 #
cone-surface $-1 51.78119299912516 -6.6082381280511555 5.9374145649656036 -0.66913061440640931 0 -0.74314481823134659 0.74314481823134659 0 -0.66913061440640931 1 I I -0.70710678118654746 0.70710678118654746 1 forward I I I I #
loop $-1 $-1 $197 $49 #
coedge $-1 $124 $124 $198 $199 reversed $78 $-1 #
face $-1 $200 $201 $30 $-1 $202 reversed single #
loop $-1 $-1 $203 $80 #
plane-surface $-1 0 -40.266209540928024 0 0 1 0 0 0 1 forward_v I I I I #
coedge $-1 $204 $205 $206 $207 forward $81 $-1 #
coedge $-1 $208 $83 $209 $210 forward $51 $-1 #
coedge $-1 $83 $208 $211 $212 forward $51 $-1 #
coedge $-1 $213 $214 $83 $132 reversed $215 $-1 #
edge $-1 $216 -40.266209540928024 $217 40.266209540928024 $131 $218 forward 7 unknown #
face $-1 $219 $220 $31 $-1 $221 reversed single #
loop $-1 $-1 $222 $84 #
plane-surface $-1 -61.203039643543811 0 0 1 0 0 0 0 -1 forward_v I I I I #
coedge $-1 $223 $224 $225 $226 forward $85 $-1 #
coedge $-1 $225 $87 $222 $227 reversed $54 $-1 #
coedge $-1 $87 $225 $228 $229 reversed $54 $-1 #
coedge $-1 $230 $231 $87 $140 reversed $220 $-1 #
edge $-1 $232 -61.203039643543811 $233 61.203039643543811 $139 $234 forward 7 unknown #
face $-1 $235 $236 $32 $-1 $237 forward single #
loop $-1 $-1 $238 $88 #
plane-surface $-1 -157.6603474389965 -6.529428715889388 76.136826656993094 0 -1 0 0.78801076186113728 0 -0.61566146476048833 forward_v I I I I #
coedge $-1 $239 $240 $241 $242 reversed $89 $-1 #
coedge $-1 $146 $91 $243 $244 reversed $57 $-1 #
coedge $-1 $91 $145 $239 $245 reversed $57 $-1 #
coedge $-1 $241 $246 $91 $148 forward $236 $-1 #
edge $-1 $247 17.627134075954437 $248 28.688404205157205 $147 $249 forward 7 unknown #
loop $-1 $-1 $154 $92 #
plane-surface $-1 -61.203039643543804 -14.610278579761783 0.77612058751626023 -0.78801076186113728 0 0.61566146476048833 0.61566146476048833 0 0.78801076186113728 forward_v I I I I #
loop $-1 $-1 $250 $59 #
coedge $-1 $152 $152 $153 $251 reversed $93 $-1 #
coedge $-1 $153 $153 $152 $251 forward $95 $-1 #
coedge $-1 $154 $154 $96 $155 forward $149 $-1 #
edge $-1 $252 0 $252 6.2831853071796004 $154 $253 forward 7 unknown #
loop $-1 $-1 $161 $97 #
plane-surface $-1 -61.203039643543804 -14.610278579761783 0.77612058751626023 -0.78801076186113728 0 0.61566146476048833 0.61566146476048833 0 0.78801076186113728 forward_v I I I I #
loop $-1 $-1 $254 $62 #
coedge $-1 $159 $159 $160 $255 reversed $98 $-1 #
coedge $-1 $160 $160 $159 $255 forward $100 $-1 #
coedge $-1 $161 $161 $101 $162 forward $156 $-1 #
edge $-1 $256 0 $256 6.2831853071796004 $161 $257 forward 7 unknown #
face $-1 $258 $259 $35 $-1 $260 forward single #
loop $-1 $-1 $261 $102 #
plane-surface $-1 -157.6603474389965 26.995961410724995 76.136826656993094 0 -1 0 0.78801076186113728 0 -0.61566146476048833 forward_v I I I I #
coedge $-1 $262 $263 $264 $265 reversed $103 $-1 #
coedge $-1 $168 $105 $266 $267 reversed $66 $-1 #
coedge $-1 $105 $167 $262 $268 reversed $66 $-1 #
coedge $-1 $264 $269 $105 $170 forward $259 $-1 #
edge $-1 $270 17.627134075954437 $271 28.688404205157205 $169 $272 forward 7 unknown #
loop $-1 $-1 $176 $106 #
plane-surface $-1 -61.203039643543804 18.9151115468526 0.77612058751626023 -0.78801076186113728 0 0.61566146476048833 0.61566146476048833 0 0.78801076186113728 forward_v I I I I #
loop $-1 $-1 $273 $68 #
coedge $-1 $174 $174 $175 $274 reversed $107 $-1 #
coedge $-1 $175 $175 $174 $274 forward $109 $-1 #
coedge $-1 $176 $176 $110 $177 forward $171 $-1 #
edge $-1 $275 0 $275 6.2831853071796004 $176 $276 forward 7 unknown #
loop $-1 $-1 $183 $111 #
plane-surface $-1 -61.203039643543804 18.9151115468526 0.77612058751626023 -0.78801076186113728 0 0.61566146476048833 0.61566146476048833 0 0.78801076186113728 forward_v I I I I #
loop $-1 $-1 $277 $71 #
coedge $-1 $181 $181 $182 $278 reversed $112 $-1 #
coedge $-1 $182 $182 $181 $278 forward $114 $-1 #
coedge $-1 $183 $183 $115 $184 forward $178 $-1 #
edge $-1 $279 0 $279 6.2831853071796004 $183 $280 forward 7 unknown #
face $-1 $281 $282 $38 $-1 $283 reversed single #
loop $-1 $-1 $284 $116 #
plane-surface $-1 52.143251141777888 -12.956136256123719 175.232967193664 0 1 0 0.66913061440640931 0 0.74314481823134659 forward_v I I I I #
coedge $-1 $285 $286 $287 $288 reversed $117 $-1 #
coedge $-1 $190 $119 $289 $290 reversed $75 $-1 #
coedge $-1 $119 $189 $285 $291 reversed $75 $-1 #
coedge $-1 $287 $292 $119 $192 forward $293 $-1 #
edge $-1 $294 -35.131414072654863 $295 -21.168757733085062 $191 $296 forward 7 unknown #
loop $-1 $-1 $198 $120 #
plane-surface $-1 -29.762403898670705 -6.6082381280511555 84.267523651449466 0.66913061440640931 0 0.74314481823134659 0.74314481823134659 0 -0.66913061440640931 forward_v I I I I #
loop $-1 $-1 $297 $77 #
coedge $-1 $196 $196 $197 $298 reversed $121 $-1 #
coedge $-1 $197 $197 $196 $298 forward $123 $-1 #
coedge $-1 $198 $198 $124 $199 forward $193 $-1 #
edge $-1 $299 0 $299 6.2831853071796004 $198 $300 forward 7 unknown #
face $-1 $301 $302 $30 $-1 $303 reversed single #
loop $-1 $-1 $304 $125 #
plane-surface $-1 -61.203039643543811 0 0 1 0 0 0 0 -1 forward_v I I I I #
coedge $-1 $305 $211 $306 $307 forward $126 $-1 #
coedge $-1 $308 $128 $305 $309 forward $81 $-1 #
coedge $-1 $128 $308 $310 $311 forward $81 $-1 #
coedge $-1 $214 $213 $128 $207 reversed $215 $-1 #
edge $-1 $312 -40.266209540928024 $313 40.266209540928024 $206 $314 forward 7 unknown #
coedge $-1 $130 $129 $315 $316 forward $51 $-1 #
coedge $-1 $317 $318 $129 $210 reversed $302 $-1 #
edge $-1 $217 -61.203039643543811 $319 61.203039643543811 $209 $320 forward 7 unknown #
coedge $-1 $203 $321 $130 $212 reversed $126 $-1 #
edge $-1 $322 -61.203039643543811 $216 61.203039643543811 $211 $323 forward 7 unknown #
coedge $-1 $206 $131 $321 $324 forward $215 $-1 #
coedge $-1 $131 $206 $317 $325 reversed $215 $-1 #
loop $-1 $-1 $213 $301 #
vertex $-1 $132 $326 #
vertex $-1 $132 $327 #
straight-curve $-1 61.203039643543811 0 14.933901122076538 0 1 0 I I #
face $-1 $328 $329 $31 $-1 $330 reversed single #
loop $-1 $-1 $230 $133 #
plane-surface $-1 0 -47.007028955241665 6.8971133292827762 0 0 1 1 0 0 forward_v I I I I #
coedge $-1 $331 $332 $137 $227 forward $134 $-1 #
coedge $-1 $333 $136 $332 $334 forward $85 $-1 #
coedge $-1 $136 $333 $335 $336 forward $85 $-1 #
coedge $-1 $138 $137 $136 $226 reversed $54 $-1 #
edge $-1 $337 -61.203039643543811 $338 61.203039643543811 $136 $339 forward 7 unknown #
edge $-1 $338 -14.933901122076538 $233 -6.8971133292827762 $222 $340 forward 7 unknown #
coedge $-1 $335 $341 $138 $229 forward $342 $-1 #
edge $-1 $232 6.8971133292827762 $337 14.933901122076538 $228 $343 forward 7 unknown #
coedge $-1 $344 $139 $341 $345 forward $220 $-1 #
coedge $-1 $139 $344 $331 $346 forward $220 $-1 #
vertex $-1 $229 $347 #
vertex $-1 $227 $348 #
straight-curve $-1 0 -40.266209540928024 6.8971133292827762 -1 0 0 I I #
face $-1 $-1 $349 $32 $-1 $350 reversed single #
loop $-1 $-1 $147 $141 #
plane-surface $-1 0 0 14.933901122076538 0 0 1 1 0 0 forward_v I I I I #
coedge $-1 $351 $352 $353 $354 reversed $142 $-1 #
coedge $-1 $355 $144 $146 $245 forward $89 $-1 #
coedge $-1 $144 $355 $351 $356 forward $89 $-1 #
coedge $-1 $353 $147 $144 $242 forward $236 $-1 #
edge $-1 $248 -15.385989153753286 $357 0.77571057399150334 $241 $358 forward 7 unknown #
coedge $-1 $359 $360 $145 $244 forward $349 $-1 #
edge $-1 $361 -37.292292740980294 $247 -23.134512206420009 $243 $362 forward 7 unknown #
edge $-1 $248 -17.966481195158032 $361 1.1548452884789174e-014 $146 $363 forward 7 unknown #
coedge $-1 $147 $353 $359 $364 forward $236 $-1 #
vertex $-1 $244 $365 #
vertex $-1 $148 $366 #
straight-curve $-1 -78.830173719498248 -22.691128443634177 14.933901122076538 1 0 0 I I #
coedge $-1 $250 $250 $-1 $367 reversed $151 $-1 #
edge $-1 $368 0 $368 6.2831853071796004 $152 $369 forward 7 unknown #
vertex $-1 $155 $370 #
ellipse-curve $-1 -55.672404578942427 -18.073499949992808 7.8550108547963946 -0.78801076186113728 0 0.61566146476048833 0.30783073238024417 0 0.39400538093056864 1 I I #
coedge $-1 $254 $254 $-1 $371 reversed $158 $-1 #
edge $-1 $372 0 $372 6.2831853071796004 $159 $373 forward 7 unknown #
vertex $-1 $162 $374 #
ellipse-curve $-1 -55.672404578942427 -11.147057209530757 7.8550108547963946 -0.78801076186113728 0 0.61566146476048833 0.30783073238024417 0 0.39400538093056864 1 I I #
face $-1 $-1 $375 $35 $-1 $376 reversed single #
loop $-1 $-1 $169 $163 #
plane-surface $-1 0 0 14.933901122076538 0 0 1 1 0 0 forward_v I I I I #
coedge $-1 $377 $378 $379 $380 reversed $164 $-1 #
coedge $-1 $381 $166 $168 $268 forward $103 $-1 #
coedge $-1 $166 $381 $377 $382 forward $103 $-1 #
coedge $-1 $379 $169 $166 $265 forward $259 $-1 #
edge $-1 $271 1.3767059095539054 $383 17.538405637298695 $264 $384 forward 7 unknown #
coedge $-1 $385 $386 $167 $267 forward $375 $-1 #
edge $-1 $387 -37.292292740980294 $270 -23.134512206420009 $266 $388 forward 7 unknown #
edge $-1 $271 -17.966481195158032 $387 1.1548452884789174e-014 $168 $389 forward 7 unknown #
coedge $-1 $169 $379 $385 $390 forward $259 $-1 #
vertex $-1 $170 $391 #
vertex $-1 $170 $392 #
straight-curve $-1 -78.830173719498248 10.834261682980205 14.933901122076538 1 0 0 I I #
coedge $-1 $273 $273 $-1 $393 reversed $173 $-1 #
edge $-1 $394 0 $394 6.2831853071796004 $174 $395 forward 7 unknown #
vertex $-1 $177 $396 #
ellipse-curve $-1 -55.672404578942427 15.451890176621575 7.8550108547963946 -0.78801076186113728 0 0.61566146476048833 0.30783073238024417 0 0.39400538093056864 1 I I #
coedge $-1 $277 $277 $-1 $397 reversed $180 $-1 #
edge $-1 $398 0 $398 6.2831853071796004 $181 $399 forward 7 unknown #
vertex $-1 $184 $400 #
ellipse-curve $-1 -55.672404578942427 22.378332917083625 7.8550108547963946 -0.78801076186113728 0 0.61566146476048833 0.30783073238024417 0 0.39400538093056864 1 I I #
face $-1 $-1 $293 $38 $-1 $401 forward single #
loop $-1 $-1 $402 $185 #
plane-surface $-1 61.203039643543811 0 0 -1 0 0 0 0 1 forward_v I I I I #
coedge $-1 $403 $404 $405 $406 reversed $186 $-1 #
coedge $-1 $407 $188 $190 $291 forward $117 $-1 #
coedge $-1 $188 $407 $403 $408 forward $117 $-1 #
coedge $-1 $405 $191 $188 $288 forward $293 $-1 #
edge $-1 $295 -3.0437790640469853 $409 9.6520171920981408 $287 $410 forward 7 unknown #
coedge $-1 $411 $412 $189 $290 forward $282 $-1 #
edge $-1 $413 -85.254614985831111 $294 -72.682582474755463 $289 $414 forward 7 unknown #
edge $-1 $295 103.61747174111784 $413 122.40607928708759 $190 $415 forward 7 unknown #
coedge $-1 $191 $405 $411 $416 forward $293 $-1 #
loop $-1 $-1 $405 $281 #
vertex $-1 $290 $417 #
vertex $-1 $192 $418 #
straight-curve $-1 26.071625570888944 -0.26033999997859247 14.933901122076534 -1 0 0 I I #
coedge $-1 $297 $297 $-1 $419 reversed $195 $-1 #
edge $-1 $420 0 $420 6.2831853071796004 $196 $421 forward 7 unknown #
vertex $-1 $199 $422 #
ellipse-curve $-1 54.221711473758901 -6.6082381280511555 8.6478848665387069 0.66913061440640931 0 0.74314481823134659 1.4862896364626932 0 -1.3382612288128186 1 I I #
face $-1 $-1 $215 $30 $-1 $423 reversed single #
loop $-1 $-1 $317 $200 #
plane-surface $-1 0 40.266209540928024 0 0 -1 0 0 0 -1 forward_v I I I I #
coedge $-1 $424 $315 $318 $425 forward $201 $-1 #
coedge $-1 $321 $203 $204 $309 reversed $126 $-1 #
coedge $-1 $315 $424 $203 $307 reversed $201 $-1 #
edge $-1 $322 -14.933901122076538 $426 14.933901122076538 $306 $427 forward 7 unknown #
coedge $-1 $205 $204 $424 $428 forward $81 $-1 #
edge $-1 $313 -61.203039643543811 $426 61.203039643543811 $305 $429 forward 7 unknown #
coedge $-1 $318 $317 $205 $311 reversed $302 $-1 #
edge $-1 $430 -61.203039643543811 $312 61.203039643543811 $310 $431 forward 7 unknown #
vertex $-1 $207 $432 #
vertex $-1 $324 $433 #
straight-curve $-1 61.203039643543811 0 -14.933901122076538 0 -1 0 I I #
coedge $-1 $304 $306 $208 $316 reversed $201 $-1 #
edge $-1 $319 -40.266209540928024 $322 40.266209540928024 $315 $434 forward 7 unknown #
coedge $-1 $310 $209 $214 $325 forward $302 $-1 #
coedge $-1 $209 $310 $304 $425 reversed $302 $-1 #
vertex $-1 $210 $435 #
straight-curve $-1 0 40.266209540928024 14.933901122076538 -1 0 0 I I #
coedge $-1 $211 $305 $213 $324 reversed $126 $-1 #
vertex $-1 $316 $436 #
straight-curve $-1 0 -40.266209540928024 14.933901122076538 1 0 0 I I #
edge $-1 $216 -14.933901122076538 $313 14.933901122076538 $213 $437 forward 7 unknown #
edge $-1 $217 -14.933901122076538 $312 14.933901122076538 $214 $438 forward 7 unknown #
point $-1 61.203039643543811 -40.266209540928024 14.933901122076538 #
point $-1 61.203039643543811 40.266209540928024 14.933901122076538 #
face $-1 $-1 $342 $31 $-1 $439 reversed single #
loop $-1 $-1 $440 $219 #
plane-surface $-1 0 -53.7478483695553 10.915507225679658 0 1 0 0 0 1 forward_v I I I I #
coedge $-1 $441 $222 $231 $346 reversed $134 $-1 #
coedge $-1 $222 $441 $223 $334 reversed $134 $-1 #
coedge $-1 $224 $223 $442 $443 forward $85 $-1 #
edge $-1 $338 40.266209540928024 $444 53.7478483695553 $332 $445 forward 7 unknown #
coedge $-1 $446 $228 $224 $336 reversed $342 $-1 #
edge $-1 $447 -53.7478483695553 $337 -40.266209540928024 $335 $448 forward 7 unknown #
vertex $-1 $229 $449 #
vertex $-1 $334 $450 #
straight-curve $-1 0 -40.266209540928024 14.933901122076538 -1 0 0 I I #
straight-curve $-1 -61.203039643543811 -40.266209540928024 0 0 0 -1 I I #
coedge $-1 $228 $446 $230 $345 reversed $342 $-1 #
loop $-1 $-1 $228 $328 #
straight-curve $-1 61.203039643543811 -40.266209540928024 0 0 0 1 I I #
coedge $-1 $231 $230 $451 $452 forward $220 $-1 #
edge $-1 $232 -6.7408194143136342 $453 6.7408194143136342 $341 $454 forward 7 unknown #
edge $-1 $455 -6.7408194143136342 $233 6.7408194143136342 $331 $456 forward 7 unknown #
point $-1 61.203039643543811 -40.266209540928031 6.8971133292827762 #
point $-1 -61.203039643543811 -40.266209540928031 6.8971133292827762 #
loop $-1 $-1 $243 $235 #
plane-surface $-1 -61.203039643543811 0 0 1 0 0 0 0 -1 forward_v I I I I #
coedge $-1 $352 $238 $240 $356 reversed $142 $-1 #
coedge $-1 $238 $351 $457 $458 reversed $142 $-1 #
coedge $-1 $246 $241 $238 $354 forward $236 $-1 #
edge $-1 $357 -28.688404205157205 $459 -17.627134075954437 $353 $460 forward 7 unknown #
coedge $-1 $240 $239 $360 $461 reversed $89 $-1 #
edge $-1 $462 -1.1548452884789174e-014 $357 17.966481195158032 $351 $463 forward 7 unknown #
vertex $-1 $242 $464 #
straight-curve $-1 -50.141769514341043 -7.3051392898808913 14.933901122076538 0 1 0 I I #
coedge $-1 $457 $243 $246 $364 reversed $349 $-1 #
coedge $-1 $243 $457 $355 $461 forward $349 $-1 #
vertex $-1 $244 $465 #
straight-curve $-1 -61.203039643543811 -22.691128443634177 38.068413328496547 0 0 1 I I #
straight-curve $-1 -61.203039643543804 -22.691128443634177 0.77612058751626023 -0.61566146476048833 0 -0.78801076186113728 I I #
edge $-1 $459 6.529428715889388 $247 22.691128443634177 $359 $466 forward 7 unknown #
point $-1 -61.203039643543811 -22.691128443634177 14.933901122076538 #
point $-1 -50.141769514341043 -22.691128443634177 14.933901122076538 #
edge $-1 $467 1 $467 0 $250 $-1 forward 7 unknown #
vertex $-1 $251 $468 #
ellipse-curve $-1 -54.884393817081289 -18.073499949992808 7.2393493900359109 -0.78801076186113728 0 0.61566146476048833 0.30783073238024417 0 0.39400538093056864 1 I I #
point $-1 -55.36457384656218 -18.073499949992808 8.2490162357269678 #
edge $-1 $469 1 $469 0 $254 $-1 forward 7 unknown #
vertex $-1 $255 $470 #
ellipse-curve $-1 -54.884393817081289 -11.147057209530757 7.2393493900359109 -0.78801076186113728 0 0.61566146476048833 0.30783073238024417 0 0.39400538093056864 1 I I #
point $-1 -55.36457384656218 -11.147057209530757 8.2490162357269678 #
loop $-1 $-1 $266 $258 #
plane-surface $-1 -61.203039643543811 0 0 1 0 0 0 0 -1 forward_v I I I I #
coedge $-1 $378 $261 $263 $382 reversed $164 $-1 #
coedge $-1 $261 $377 $471 $472 reversed $164 $-1 #
coedge $-1 $269 $264 $261 $380 forward $259 $-1 #
edge $-1 $383 -28.688404205157205 $473 -17.627134075954437 $379 $474 forward 7 unknown #
coedge $-1 $263 $262 $386 $475 reversed $103 $-1 #
edge $-1 $476 -1.1548452884789174e-014 $383 17.966481195158032 $377 $477 forward 7 unknown #
vertex $-1 $265 $478 #
straight-curve $-1 -50.141769514341043 9.4575557734263 14.933901122076538 0 1 0 I I #
coedge $-1 $471 $266 $269 $390 reversed $375 $-1 #
coedge $-1 $266 $471 $381 $475 forward $375 $-1 #
vertex $-1 $267 $479 #
straight-curve $-1 -61.203039643543811 10.834261682980205 38.068413328496547 0 0 1 I I #
straight-curve $-1 -61.203039643543804 10.834261682980205 0.77612058751626023 -0.61566146476048833 0 -0.78801076186113728 I I #
edge $-1 $473 -26.995961410724995 $270 -10.834261682980205 $385 $480 forward 7 unknown #
point $-1 -61.203039643543811 10.834261682980205 14.933901122076538 #
point $-1 -50.141769514341043 10.834261682980205 14.933901122076538 #
edge $-1 $481 1 $481 0 $273 $-1 forward 7 unknown #
vertex $-1 $274 $482 #
ellipse-curve $-1 -54.884393817081289 15.451890176621575 7.2393493900359109 -0.78801076186113728 0 0.61566146476048833 0.30783073238024417 0 0.39400538093056864 1 I I #
point $-1 -55.36457384656218 15.451890176621575 8.2490162357269678 #
edge $-1 $483 1 $483 0 $277 $-1 forward 7 unknown #
vertex $-1 $278 $484 #
ellipse-curve $-1 -54.884393817081289 22.378332917083625 7.2393493900359109 -0.78801076186113728 0 0.61566146476048833 0.30783073238024417 0 0.39400538093056864 1 I I #
point $-1 -55.36457384656218 22.378332917083625 8.2490162357269678 #
plane-surface $-1 0 0 14.933901122076538 0 0 1 1 0 0 forward_v I I I I #
coedge $-1 $412 $411 $404 $485 forward $282 $-1 #
coedge $-1 $404 $284 $286 $408 reversed $186 $-1 #
coedge $-1 $284 $403 $402 $485 reversed $186 $-1 #
coedge $-1 $292 $287 $284 $406 forward $293 $-1 #
edge $-1 $409 21.168757733085062 $486 35.131414072654863 $405 $487 forward 7 unknown #
coedge $-1 $286 $285 $412 $488 reversed $117 $-1 #
edge $-1 $489 -122.40607928708759 $409 -103.61747174111784 $403 $490 forward 7 unknown #
vertex $-1 $288 $491 #
straight-curve $-1 47.240383303974014 -3.3041190640255778 14.933901122076527 0 -1 0 I I #
coedge $-1 $402 $289 $292 $416 reversed $282 $-1 #
coedge $-1 $289 $402 $407 $488 forward $282 $-1 #
vertex $-1 $290 $492 #
straight-curve $-1 61.203039643543811 -0.26033999997859247 87.616483596831998 0 0 1 I I #
straight-curve $-1 -29.762403898670705 -0.26033999997859247 84.267523651449466 0.74314481823134659 0 -0.66913061440640931 I I #
edge $-1 $486 -12.956136256123719 $294 -0.26033999997859247 $411 $493 forward 7 unknown #
point $-1 61.203039643543811 -0.26033999997859247 14.933901122076538 #
point $-1 47.240383303974006 -0.26033999997859247 14.933901122076534 #
edge $-1 $494 1 $494 0 $297 $-1 forward 7 unknown #
vertex $-1 $298 $495 #
ellipse-curve $-1 52.450323613531566 -6.6082381280511555 6.6805593831969503 0.66913061440640931 0 0.74314481823134659 1.4862896364626932 0 -1.3382612288128186 1 I I #
point $-1 55.708001110221609 -6.6082381280511555 7.3096236377259061 #
plane-surface $-1 61.203039643543811 0 0 -1 0 0 0 0 1 forward_v I I I I #
coedge $-1 $306 $304 $308 $428 reversed $201 $-1 #
edge $-1 $319 -14.933901122076538 $430 14.933901122076538 $318 $496 forward 7 unknown #
vertex $-1 $428 $497 #
straight-curve $-1 -61.203039643543811 -40.266209540928024 0 0 0 -1 I I #
edge $-1 $426 -40.266209540928024 $430 40.266209540928024 $424 $498 forward 7 unknown #
straight-curve $-1 0 -40.266209540928024 -14.933901122076538 -1 0 0 I I #
vertex $-1 $311 $499 #
straight-curve $-1 0 40.266209540928024 -14.933901122076538 1 0 0 I I #
point $-1 61.203039643543811 40.266209540928024 -14.933901122076538 #
point $-1 61.203039643543811 -40.266209540928024 -14.933901122076538 #
straight-curve $-1 -61.203039643543811 0 14.933901122076538 0 -1 0 I I #
point $-1 -61.203039643543811 40.266209540928024 14.933901122076538 #
point $-1 -61.203039643543811 -40.266209540928024 14.933901122076538 #
straight-curve $-1 61.203039643543811 -40.266209540928024 0 0 0 -1 I I #
straight-curve $-1 61.203039643543811 40.266209540928024 0 0 0 -1 I I #
plane-surface $-1 61.203039643543811 0 0 -1 0 0 0 0 1 forward_v I I I I #
coedge $-1 $451 $442 $441 $500 forward $329 $-1 #
coedge $-1 $332 $331 $440 $500 reversed $134 $-1 #
coedge $-1 $440 $501 $333 $443 reversed $329 $-1 #
edge $-1 $444 -61.203039643543811 $447 61.203039643543811 $442 $502 forward 7 unknown #
vertex $-1 $334 $503 #
straight-curve $-1 -61.203039643543811 0 14.933901122076538 0 -1 0 I I #
coedge $-1 $341 $335 $501 $504 forward $342 $-1 #
vertex $-1 $336 $505 #
straight-curve $-1 61.203039643543811 0 14.933901122076538 0 1 0 I I #
point $-1 61.203039643543811 -40.266209540928024 14.933901122076538 #
point $-1 -61.203039643543811 -40.266209540928024 14.933901122076538 #
coedge $-1 $501 $440 $344 $452 reversed $329 $-1 #
edge $-1 $453 -61.203039643543811 $455 61.203039643543811 $451 $506 forward 7 unknown #
vertex $-1 $504 $507 #
straight-curve $-1 61.203039643543811 -47.007028955241665 6.8971133292827762 0 -1 0 I I #
vertex $-1 $346 $508 #
straight-curve $-1 -61.203039643543811 -47.007028955241665 6.8971133292827762 0 1 0 I I #
coedge $-1 $360 $359 $352 $458 forward $349 $-1 #
edge $-1 $459 23.134512206420009 $462 37.292292740980294 $457 $509 forward 7 unknown #
vertex $-1 $364 $510 #
straight-curve $-1 -78.830173719498248 -6.529428715889388 14.933901122076538 -1 0 0 I I #
edge $-1 $462 -0.77571057399150334 $361 15.385989153753286 $360 $511 forward 7 unknown #
vertex $-1 $461 $512 #
straight-curve $-1 -61.203039643543804 -6.529428715889388 0.77612058751626023 0.61566146476048833 0 0.78801076186113728 I I #
point $-1 -50.141769514341043 -6.529428715889388 14.933901122076538 #
point $-1 -61.203039643543811 -22.691128443634177 0.77612058751625113 #
straight-curve $-1 -61.203039643543811 0 14.933901122076538 0 -1 0 I I #
vertex $-1 $367 $513 #
point $-1 -54.57656308470105 -18.073499949992808 7.6333547709664797 #
vertex $-1 $371 $514 #
point $-1 -54.57656308470105 -11.147057209530757 7.6333547709664797 #
coedge $-1 $386 $385 $378 $472 forward $375 $-1 #
edge $-1 $473 23.134512206420009 $476 37.292292740980294 $471 $515 forward 7 unknown #
vertex $-1 $390 $516 #
straight-curve $-1 -78.830173719498248 26.995961410724995 14.933901122076538 -1 0 0 I I #
edge $-1 $476 -17.538405637298695 $387 -1.3767059095539054 $386 $517 forward 7 unknown #
vertex $-1 $475 $518 #
straight-curve $-1 -61.203039643543804 26.995961410724995 0.77612058751626023 0.61566146476048833 0 0.78801076186113728 I I #
point $-1 -50.141769514341043 26.995961410724995 14.933901122076538 #
point $-1 -61.203039643543811 10.834261682980205 0.77612058751625113 #
straight-curve $-1 -61.203039643543811 0 14.933901122076538 0 -1 0 I I #
vertex $-1 $393 $519 #
point $-1 -54.57656308470105 15.451890176621575 7.6333547709664797 #
vertex $-1 $397 $520 #
point $-1 -54.57656308470105 22.378332917083625 7.6333547709664797 #
edge $-1 $486 72.682582474755463 $489 85.254614985831111 $402 $521 forward 7 unknown #
vertex $-1 $416 $522 #
straight-curve $-1 26.071625570888944 -12.956136256123719 14.933901122076534 1 0 0 I I #
edge $-1 $489 -9.6520171920981408 $413 3.0437790640469853 $412 $523 forward 7 unknown #
vertex $-1 $488 $524 #
straight-curve $-1 -29.762403898670705 -12.956136256123719 84.267523651449466 -0.74314481823134659 0 0.66913061440640931 I I #
point $-1 47.240383303974006 -12.956136256123719 14.933901122076534 #
point $-1 61.203039643543811 -0.26033999997859247 2.3618686110008866 #
straight-curve $-1 61.203039643543811 0 14.933901122076538 0 1 0 I I #
vertex $-1 $419 $525 #
point $-1 53.936613249994267 -6.6082381280511555 5.3422981543841317 #
straight-curve $-1 -61.203039643543811 40.266209540928024 0 0 0 -1 I I #
point $-1 -61.203039643543811 -40.266209540928024 -14.933901122076538 #
straight-curve $-1 -61.203039643543811 0 -14.933901122076538 0 1 0 I I #
point $-1 -61.203039643543811 40.266209540928024 -14.933901122076538 #
edge $-1 $444 -4.0183938963968817 $455 4.0183938963968817 $441 $526 forward 7 unknown #
coedge $-1 $442 $451 $446 $504 reversed $329 $-1 #
straight-curve $-1 0 -53.7478483695553 14.93390112207654 1 0 0 I I #
point $-1 -61.203039643543811 -53.7478483695553 14.93390112207654 #
edge $-1 $447 -4.0183938963968817 $453 4.0183938963968817 $446 $527 forward 7 unknown #
point $-1 61.203039643543811 -53.7478483695553 14.93390112207654 #
straight-curve $-1 0 -53.7478483695553 6.8971133292827762 -1 0 0 I I #
point $-1 61.203039643543811 -53.7478483695553 6.8971133292827762 #
point $-1 -61.203039643543811 -53.7478483695553 6.8971133292827762 #
straight-curve $-1 -61.203039643543811 -6.529428715889388 38.068413328496547 0 0 -1 I I #
point $-1 -61.203039643543811 -6.529428715889388 14.933901122076538 #
straight-curve $-1 -61.203039643543811 -7.3051392898808913 0.77612058751624846 0 -1 0 I I #
point $-1 -61.203039643543811 -6.529428715889388 0.77612058751625113 #
point $-1 -54.490388436150724 -18.073499949992808 6.9315186576556664 #
point $-1 -54.490388436150724 -11.147057209530757 6.9315186576556664 #
straight-curve $-1 -61.203039643543811 26.995961410724995 38.068413328496547 0 0 -1 I I #
point $-1 -61.203039643543811 26.995961410724995 14.933901122076538 #
straight-curve $-1 -61.203039643543811 9.4575557734263 0.77612058751624846 0 -1 0 I I #
point $-1 -61.203039643543811 26.995961410724995 0.77612058751625113 #
point $-1 -54.490388436150724 15.451890176621575 6.9315186576556664 #
point $-1 -54.490388436150724 22.378332917083625 6.9315186576556664 #
straight-curve $-1 61.203039643543811 -12.956136256123719 87.616483596831998 0 0 -1 I I #
point $-1 61.203039643543811 -12.956136256123719 14.933901122076538 #
straight-curve $-1 61.203039643543804 -3.3041190640255778 2.3618686110008866 0 1 0 I I #
point $-1 61.203039643543811 -12.956136256123719 2.3618686110008866 #
point $-1 51.112062384718755 -6.6082381280511555 5.1942697467342569 #
straight-curve $-1 -61.203039643543811 -53.7478483695553 10.915507225679658 0 0 -1 I I #
straight-curve $-1 61.203039643543811 -53.7478483695553 10.915507225679658 0 0 -1 I I #
End-of-ACIS-data 