500 0 8 0           
7 Unknown 11 ACIS 5.0 NT 24 Fri Mar 26 03:12:07 1999 
-1 9.9999999999999995e-007 1e-010 
body $-1 $8 $-1 $9 #
body $-1 $10 $-1 $11 #
body $-1 $12 $-1 $13 #
body $-1 $14 $-1 $15 #
body $-1 $16 $-1 $17 #
body $-1 $18 $-1 $19 #
body $-1 $20 $-1 $21 #
body $-1 $22 $-1 $23 #
lump $-1 $-1 $24 $0 #
transform $-1 1 0 0 0 1 0 0 0 1 63.772698141422772 35.18270878756455 15.527549817208959 1 rotate no_reflect no_shear #
lump $-1 $-1 $25 $1 #
transform $-1 1 0 0 0 1 0 0 0 1 63.772698141422772 35.18270878756455 15.527549817208959 1 rotate no_reflect no_shear #
lump $-1 $-1 $26 $2 #
transform $-1 1 0 0 0 1 0 0 0 1 63.772698141422772 35.18270878756455 15.527549817208959 1 rotate no_reflect no_shear #
lump $-1 $-1 $27 $3 #
transform $-1 1 0 0 0 1 0 0 0 1 63.772698141422772 35.18270878756455 15.527549817208959 1 rotate no_reflect no_shear #
lump $-1 $-1 $28 $4 #
transform $-1 1 0 0 0 1 0 0 0 1 63.772698141422772 35.18270878756455 15.527549817208959 1 rotate no_reflect no_shear #
lump $-1 $-1 $29 $5 #
transform $-1 1 0 0 0 1 0 0 0 1 63.772698141422772 35.18270878756455 15.527549817208959 1 rotate no_reflect no_shear #
lump $-1 $-1 $30 $6 #
transform $-1 1 0 0 0 1 0 0 0 1 63.772698141422772 35.18270878756455 15.527549817208959 1 rotate no_reflect no_shear #
lump $-1 $-1 $31 $7 #
transform $-1 1 0 0 0 1 0 0 0 1 63.772698141422772 35.18270878756455 15.527549817208959 1 rotate no_reflect no_shear #
shell $-1 $-1 $-1 $32 $-1 $8 #
shell $-1 $-1 $-1 $33 $-1 $10 #
shell $-1 $-1 $-1 $34 $-1 $12 #
shell $-1 $-1 $-1 $35 $-1 $14 #
shell $-1 $-1 $-1 $36 $-1 $16 #
shell $-1 $-1 $-1 $37 $-1 $18 #
shell $-1 $-1 $-1 $38 $-1 $20 #
shell $-1 $-1 $-1 $39 $-1 $22 #
face $-1 $40 $41 $24 $-1 $42 forward single #
face $-1 $43 $44 $25 $-1 $45 forward single #
face $-1 $46 $47 $26 $-1 $48 reversed single #
face $-1 $49 $50 $27 $-1 $51 forward single #
face $-1 $52 $53 $28 $-1 $54 forward single #
face $-1 $55 $56 $29 $-1 $57 reversed single #
face $-1 $58 $59 $30 $-1 $60 forward single #
face $-1 $61 $62 $31 $-1 $63 forward single #
face $-1 $64 $65 $24 $-1 $66 reversed single #
loop $-1 $-1 $67 $32 #
plane-surface $-1 0 0 15.527549817208959 0 0 1 1 0 0 forward_v I I I I #
face $-1 $68 $69 $25 $-1 $70 forward single #
loop $-1 $-1 $71 $33 #
plane-surface $-1 0 -35.18270878756455 0 0 1 0 0 0 1 forward_v I I I I #
face $-1 $72 $73 $26 $-1 $74 reversed single #
loop $-1 $-1 $75 $34 #
plane-surface $-1 -140.53143473007418 -24.673684680099562 113.92110474626257 0 1 0 -0.6018150307709319 0 0.79863550430605224 forward_v I I I I #
face $-1 $76 $77 $27 $-1 $78 forward single #
loop $-1 $79 $80 $35 #
cone-surface $-1 -60.692665294081358 -21.40781305598529 12.760141919927886 0.6018150307709319 0 -0.79863550430605224 0.79863550430605224 0 0.6018150307709319 1 I I 0 1 1 forward I I I I #
face $-1 $81 $82 $28 $-1 $83 forward single #
loop $-1 $84 $85 $36 #
cone-surface $-1 -60.692665294081358 -16.509005619813884 12.760141919927886 0.6018150307709319 0 -0.79863550430605224 0.79863550430605224 0 0.6018150307709319 1 I I 0 1 1 forward I I I I #
face $-1 $86 $87 $29 $-1 $88 reversed single #
loop $-1 $-1 $89 $37 #
plane-surface $-1 38.66915284780854 -13.243133995699608 190.67984133491396 0 -1 0 -0.6018150307709319 0 -0.79863550430605224 forward_v I I I I #
face $-1 $90 $91 $30 $-1 $92 forward single #
loop $-1 $93 $94 $38 #
cone-surface $-1 60.692665294081358 -21.40781305598529 12.760141919927889 -0.6018150307709319 0 -0.79863550430605224 0.79863550430605224 0 -0.6018150307709319 1 I I 0 1 1 forward I I I I #
face $-1 $95 $96 $31 $-1 $97 forward single #
loop $-1 $98 $99 $39 #
cone-surface $-1 60.692665294081358 -16.509005619813884 12.760141919927889 -0.6018150307709319 0 -0.79863550430605224 0.79863550430605224 0 -0.6018150307709319 1 I I 0 1 1 forward I I I I #
face $-1 $100 $101 $24 $-1 $102 reversed single #
loop $-1 $-1 $103 $40 #
plane-surface $-1 0 0 -15.527549817208959 0 0 1 1 0 0 forward_v I I I I #
coedge $-1 $104 $105 $106 $107 forward $41 $-1 #
face $-1 $108 $109 $25 $-1 $110 reversed single #
loop $-1 $-1 $111 $43 #
plane-surface $-1 0 0 15.527549817208959 0 0 1 1 0 0 forward_v I I I I #
coedge $-1 $112 $113 $114 $115 forward $44 $-1 #
face $-1 $116 $117 $26 $-1 $118 reversed single #
loop $-1 $-1 $119 $46 #
plane-surface $-1 -63.772698141422779 -18.958409337899585 12.058822863996923 -0.6018150307709319 0 0.79863550430605224 0.79863550430605224 0 0.6018150307709319 forward_v I I I I #
coedge $-1 $120 $121 $122 $123 reversed $47 $-1 #
face $-1 $-1 $124 $27 $-1 $125 forward single #
loop $-1 $126 $127 $49 #
cone-surface $-1 -59.613302956108818 -21.40781305598529 11.327779747099791 0.6018150307709319 0 -0.79863550430605224 0.39931775215302612 0 0.30090751538546595 1 I I -0.70710678118654746 0.70710678118654746 0.5 forward I I I I #
loop $-1 $-1 $128 $35 #
coedge $-1 $80 $80 $129 $130 reversed $50 $-1 #
face $-1 $-1 $131 $28 $-1 $132 forward single #
loop $-1 $133 $134 $52 #
cone-surface $-1 -59.613302956108818 -16.509005619813884 11.327779747099791 0.6018150307709319 0 -0.79863550430605224 0.39931775215302612 0 0.30090751538546595 1 I I -0.70710678118654746 0.70710678118654746 0.5 forward I I I I #
loop $-1 $-1 $135 $36 #
coedge $-1 $85 $85 $136 $137 reversed $53 $-1 #
face $-1 $138 $139 $29 $-1 $140 reversed single #
loop $-1 $-1 $141 $55 #
plane-surface $-1 -38.089583740842862 -18.958409337899585 88.817559452648311 0.6018150307709319 0 0.79863550430605224 0.79863550430605224 0 -0.6018150307709319 forward_v I I I I #
coedge $-1 $142 $143 $144 $145 reversed $56 $-1 #
face $-1 $-1 $146 $30 $-1 $147 forward single #
loop $-1 $148 $149 $58 #
cone-surface $-1 59.613302956108818 -21.40781305598529 11.327779747099795 -0.6018150307709319 0 -0.79863550430605224 0.39931775215302612 0 -0.30090751538546595 1 I I -0.70710678118654746 0.70710678118654746 0.5 forward I I I I #
loop $-1 $-1 $150 $38 #
coedge $-1 $94 $94 $151 $152 reversed $59 $-1 #
face $-1 $-1 $153 $31 $-1 $154 forward single #
loop $-1 $155 $156 $61 #
cone-surface $-1 59.613302956108818 -16.509005619813884 11.327779747099795 -0.6018150307709319 0 -0.79863550430605224 0.39931775215302612 0 -0.30090751538546595 1 I I -0.70710678118654746 0.70710678118654746 0.5 forward I I I I #
loop $-1 $-1 $157 $39 #
coedge $-1 $99 $99 $158 $159 reversed $62 $-1 #
face $-1 $160 $161 $24 $-1 $162 reversed single #
loop $-1 $-1 $163 $64 #
plane-surface $-1 0 -35.18270878756455 0 0 1 0 0 0 1 forward_v I I I I #
coedge $-1 $164 $165 $166 $167 forward $65 $-1 #
coedge $-1 $168 $67 $169 $170 forward $41 $-1 #
coedge $-1 $67 $168 $171 $172 forward $41 $-1 #
coedge $-1 $173 $174 $67 $107 reversed $175 $-1 #
edge $-1 $176 -35.18270878756455 $177 35.18270878756455 $106 $178 forward 7 unknown #
face $-1 $179 $180 $25 $-1 $181 reversed single #
loop $-1 $-1 $182 $68 #
plane-surface $-1 -63.772698141422772 0 0 1 0 0 0 0 -1 forward_v I I I I #
coedge $-1 $183 $184 $113 $185 forward $69 $-1 #
coedge $-1 $186 $71 $187 $188 reversed $44 $-1 #
coedge $-1 $71 $186 $111 $185 reversed $44 $-1 #
coedge $-1 $189 $190 $71 $115 reversed $191 $-1 #
edge $-1 $192 -15.527549817208959 $193 15.527549817208959 $114 $194 forward 7 unknown #
face $-1 $195 $196 $26 $-1 $197 reversed single #
loop $-1 $-1 $198 $72 #
plane-surface $-1 -140.53143473007418 -13.243133995699608 113.92110474626257 0 -1 0 0.6018150307709319 0 -0.79863550430605224 forward_v I I I I #
coedge $-1 $199 $200 $201 $202 reversed $73 $-1 #
coedge $-1 $121 $75 $203 $204 reversed $47 $-1 #
coedge $-1 $75 $120 $199 $205 reversed $47 $-1 #
coedge $-1 $201 $206 $75 $123 forward $207 $-1 #
edge $-1 $208 6.4930192236143185 $209 11.096175273123031 $122 $210 forward 7 unknown #
loop $-1 $-1 $129 $76 #
plane-surface $-1 -63.772698141422779 -18.958409337899585 12.058822863996923 -0.6018150307709319 0 0.79863550430605224 0.79863550430605224 0 0.6018150307709319 forward_v I I I I #
loop $-1 $-1 $211 $49 #
coedge $-1 $127 $127 $128 $212 reversed $77 $-1 #
coedge $-1 $128 $128 $127 $212 forward $79 $-1 #
coedge $-1 $129 $129 $80 $130 forward $124 $-1 #
edge $-1 $213 0 $213 6.2831853071796004 $129 $214 forward 7 unknown #
loop $-1 $-1 $136 $81 #
plane-surface $-1 -63.772698141422779 -18.958409337899585 12.058822863996923 -0.6018150307709319 0 0.79863550430605224 0.79863550430605224 0 0.6018150307709319 forward_v I I I I #
loop $-1 $-1 $215 $52 #
coedge $-1 $134 $134 $135 $216 reversed $82 $-1 #
coedge $-1 $135 $135 $134 $216 forward $84 $-1 #
coedge $-1 $136 $136 $85 $137 forward $131 $-1 #
edge $-1 $217 0 $217 6.2831853071796004 $136 $218 forward 7 unknown #
face $-1 $219 $220 $29 $-1 $221 forward single #
loop $-1 $-1 $222 $86 #
plane-surface $-1 38.66915284780854 -24.673684680099562 190.67984133491396 0 1 0 0.6018150307709319 0 0.79863550430605224 forward_v I I I I #
coedge $-1 $223 $224 $225 $226 reversed $87 $-1 #
coedge $-1 $143 $89 $227 $228 reversed $56 $-1 #
coedge $-1 $89 $142 $223 $229 reversed $56 $-1 #
coedge $-1 $225 $230 $89 $145 forward $220 $-1 #
edge $-1 $231 -44.438121717518499 $232 -39.834965668009758 $144 $233 forward 7 unknown #
loop $-1 $-1 $151 $90 #
plane-surface $-1 -38.089583740842862 -18.958409337899585 88.817559452648311 0.6018150307709319 0 0.79863550430605224 0.79863550430605224 0 -0.6018150307709319 forward_v I I I I #
loop $-1 $-1 $234 $58 #
coedge $-1 $149 $149 $150 $235 reversed $91 $-1 #
coedge $-1 $150 $150 $149 $235 forward $93 $-1 #
coedge $-1 $151 $151 $94 $152 forward $146 $-1 #
edge $-1 $236 0 $236 6.2831853071796004 $151 $237 forward 7 unknown #
loop $-1 $-1 $158 $95 #
plane-surface $-1 -38.089583740842862 -18.958409337899585 88.817559452648311 0.6018150307709319 0 0.79863550430605224 0.79863550430605224 0 -0.6018150307709319 forward_v I I I I #
loop $-1 $-1 $238 $61 #
coedge $-1 $156 $156 $157 $239 reversed $96 $-1 #
coedge $-1 $157 $157 $156 $239 forward $98 $-1 #
coedge $-1 $158 $158 $99 $159 forward $153 $-1 #
edge $-1 $240 0 $240 6.2831853071796004 $158 $241 forward 7 unknown #
face $-1 $242 $243 $24 $-1 $244 reversed single #
loop $-1 $-1 $245 $100 #
plane-surface $-1 -63.772698141422772 0 0 1 0 0 0 0 -1 forward_v I I I I #
coedge $-1 $246 $171 $247 $248 forward $101 $-1 #
coedge $-1 $249 $103 $246 $250 forward $65 $-1 #
coedge $-1 $103 $249 $251 $252 forward $65 $-1 #
coedge $-1 $174 $173 $103 $167 reversed $175 $-1 #
edge $-1 $253 -35.18270878756455 $254 35.18270878756455 $166 $255 forward 7 unknown #
coedge $-1 $105 $104 $256 $257 forward $41 $-1 #
coedge $-1 $258 $259 $104 $170 reversed $243 $-1 #
edge $-1 $177 -63.772698141422772 $260 63.772698141422772 $169 $261 forward 7 unknown #
coedge $-1 $163 $262 $105 $172 reversed $101 $-1 #
edge $-1 $263 -63.772698141422772 $176 63.772698141422772 $171 $264 forward 7 unknown #
coedge $-1 $166 $106 $262 $265 forward $175 $-1 #
coedge $-1 $106 $166 $258 $266 reversed $175 $-1 #
loop $-1 $-1 $173 $242 #
vertex $-1 $107 $267 #
vertex $-1 $107 $268 #
straight-curve $-1 63.772698141422772 0 15.527549817208959 0 1 0 I I #
face $-1 $269 $191 $25 $-1 $270 reversed single #
loop $-1 $-1 $271 $108 #
plane-surface $-1 -61.813450889027052 -45.691732895029546 0 0 1 0 0 0 1 forward_v I I I I #
coedge $-1 $272 $273 $186 $274 forward $109 $-1 #
coedge $-1 $275 $111 $273 $276 forward $69 $-1 #
coedge $-1 $111 $275 $189 $277 forward $69 $-1 #
edge $-1 $192 59.85420363663134 $278 63.772698141422772 $111 $279 forward 7 unknown #
coedge $-1 $113 $112 $182 $274 reversed $44 $-1 #
coedge $-1 $280 $281 $112 $188 forward $282 $-1 #
edge $-1 $283 -63.772698141422772 $193 -59.85420363663134 $187 $284 forward 7 unknown #
coedge $-1 $285 $114 $184 $277 reversed $191 $-1 #
coedge $-1 $114 $285 $280 $286 reversed $191 $-1 #
loop $-1 $-1 $285 $179 #
vertex $-1 $185 $287 #
vertex $-1 $286 $288 #
straight-curve $-1 -59.85420363663134 -35.18270878756455 0 0 0 -1 I I #
face $-1 $-1 $207 $26 $-1 $289 forward single #
loop $-1 $-1 $290 $116 #
plane-surface $-1 -63.772698141422772 0 0 1 0 0 0 0 -1 forward_v I I I I #
coedge $-1 $291 $292 $293 $294 reversed $117 $-1 #
coedge $-1 $295 $119 $121 $205 forward $73 $-1 #
coedge $-1 $119 $295 $291 $296 forward $73 $-1 #
coedge $-1 $293 $122 $119 $202 forward $207 $-1 #
edge $-1 $209 -15.19448001114977 $297 -3.7639293267498157 $201 $298 forward 7 unknown #
coedge $-1 $299 $300 $120 $204 forward $196 $-1 #
edge $-1 $301 -44.901729509134356 $208 -41.433002555922329 $203 $302 forward 7 unknown #
edge $-1 $209 -5.763775871082113 $301 -8.8817612989391469e-015 $121 $303 forward 7 unknown #
coedge $-1 $122 $293 $299 $304 forward $207 $-1 #
loop $-1 $-1 $293 $195 #
vertex $-1 $204 $305 #
vertex $-1 $123 $306 #
straight-curve $-1 -70.265717365037091 -24.673684680099562 15.527549817208957 1 0 0 I I #
coedge $-1 $211 $211 $-1 $307 reversed $126 $-1 #
edge $-1 $308 0 $308 6.2831853071796004 $127 $309 forward 7 unknown #
vertex $-1 $130 $310 #
ellipse-curve $-1 -61.471120116668423 -21.40781305598529 13.79318634060294 -0.6018150307709319 0 0.79863550430605224 0.79863550430605224 0 0.6018150307709319 1 I I #
coedge $-1 $215 $215 $-1 $311 reversed $133 $-1 #
edge $-1 $312 0 $312 6.2831853071796004 $134 $313 forward 7 unknown #
vertex $-1 $137 $314 #
ellipse-curve $-1 -61.471120116668423 -16.509005619813884 13.79318634060294 -0.6018150307709319 0 0.79863550430605224 0.79863550430605224 0 0.6018150307709319 1 I I #
face $-1 $-1 $315 $29 $-1 $316 reversed single #
loop $-1 $-1 $144 $138 #
plane-surface $-1 0 0 15.527549817208959 0 0 1 1 0 0 forward_v I I I I #
coedge $-1 $317 $318 $319 $320 reversed $139 $-1 #
coedge $-1 $321 $141 $143 $229 forward $87 $-1 #
coedge $-1 $141 $321 $317 $322 forward $87 $-1 #
coedge $-1 $319 $144 $141 $226 forward $220 $-1 #
edge $-1 $232 3.7639293267498157 $323 15.19448001114977 $225 $324 forward 7 unknown #
coedge $-1 $325 $326 $142 $228 forward $315 $-1 #
edge $-1 $327 -83.281097803460057 $231 -79.812370850248016 $227 $328 forward 7 unknown #
edge $-1 $232 121.78162041176341 $327 127.54539628284556 $143 $329 forward 7 unknown #
coedge $-1 $144 $319 $325 $330 forward $220 $-1 #
vertex $-1 $145 $331 #
vertex $-1 $145 $332 #
straight-curve $-1 19.33457642390427 -13.243133995699608 15.527549817208964 -1 0 0 I I #
coedge $-1 $234 $234 $-1 $333 reversed $148 $-1 #
edge $-1 $334 0 $334 6.2831853071796004 $149 $335 forward 7 unknown #
vertex $-1 $152 $336 #
ellipse-curve $-1 61.471120116668409 -21.40781305598529 13.793186340602931 0.6018150307709319 0 0.79863550430605224 0.79863550430605224 0 -0.6018150307709319 1 I I #
coedge $-1 $238 $238 $-1 $337 reversed $155 $-1 #
edge $-1 $338 0 $338 6.2831853071796004 $156 $339 forward 7 unknown #
vertex $-1 $159 $340 #
ellipse-curve $-1 61.471120116668409 -16.509005619813884 13.793186340602931 0.6018150307709319 0 0.79863550430605224 0.79863550430605224 0 -0.6018150307709319 1 I I #
face $-1 $-1 $175 $24 $-1 $341 reversed single #
loop $-1 $-1 $258 $160 #
plane-surface $-1 0 35.18270878756455 0 0 -1 0 0 0 -1 forward_v I I I I #
coedge $-1 $342 $256 $259 $343 forward $161 $-1 #
coedge $-1 $262 $163 $164 $250 reversed $101 $-1 #
coedge $-1 $256 $342 $163 $248 reversed $161 $-1 #
edge $-1 $263 -15.527549817208959 $344 15.527549817208959 $247 $345 forward 7 unknown #
coedge $-1 $165 $164 $342 $346 forward $65 $-1 #
edge $-1 $254 -63.772698141422772 $344 63.772698141422772 $246 $347 forward 7 unknown #
coedge $-1 $259 $258 $165 $252 reversed $243 $-1 #
edge $-1 $348 -63.772698141422772 $253 63.772698141422772 $251 $349 forward 7 unknown #
vertex $-1 $167 $350 #
vertex $-1 $265 $351 #
straight-curve $-1 63.772698141422772 0 -15.527549817208959 0 -1 0 I I #
coedge $-1 $245 $247 $168 $257 reversed $161 $-1 #
edge $-1 $260 -35.18270878756455 $263 35.18270878756455 $256 $352 forward 7 unknown #
coedge $-1 $251 $169 $174 $266 forward $243 $-1 #
coedge $-1 $169 $251 $245 $343 reversed $243 $-1 #
vertex $-1 $170 $353 #
straight-curve $-1 0 35.18270878756455 15.527549817208959 -1 0 0 I I #
coedge $-1 $171 $246 $173 $265 reversed $101 $-1 #
vertex $-1 $257 $354 #
straight-curve $-1 0 -35.18270878756455 15.527549817208959 1 0 0 I I #
edge $-1 $176 -15.527549817208959 $254 15.527549817208959 $173 $355 forward 7 unknown #
edge $-1 $177 -15.527549817208959 $253 15.527549817208959 $174 $356 forward 7 unknown #
point $-1 63.772698141422772 -35.18270878756455 15.527549817208959 #
point $-1 63.772698141422772 35.18270878756455 15.527549817208959 #
face $-1 $-1 $282 $25 $-1 $357 reversed single #
plane-surface $-1 -59.85420363663134 -40.437220841297048 0 -1 0 0 0 0 1 forward_v I I I I #
coedge $-1 $358 $359 $360 $361 forward $180 $-1 #
coedge $-1 $360 $182 $281 $362 reversed $109 $-1 #
coedge $-1 $182 $360 $183 $276 reversed $109 $-1 #
edge $-1 $278 -15.527549817208959 $283 15.527549817208959 $182 $363 forward 7 unknown #
coedge $-1 $184 $183 $359 $364 forward $69 $-1 #
edge $-1 $278 35.18270878756455 $365 45.691732895029546 $273 $366 forward 7 unknown #
edge $-1 $367 -5.2545120537324976 $192 5.2545120537324976 $189 $368 forward 7 unknown #
vertex $-1 $276 $369 #
straight-curve $-1 0 -35.18270878756455 15.527549817208959 -1 0 0 I I #
coedge $-1 $370 $187 $190 $286 forward $282 $-1 #
coedge $-1 $187 $370 $272 $362 forward $282 $-1 #
loop $-1 $-1 $187 $269 #
vertex $-1 $274 $371 #
straight-curve $-1 0 -35.18270878756455 -15.527549817208959 1 0 0 I I #
coedge $-1 $190 $189 $372 $373 forward $191 $-1 #
edge $-1 $193 -5.2545120537324976 $374 5.2545120537324976 $190 $375 forward 7 unknown #
point $-1 -59.85420363663134 -35.18270878756455 15.527549817208959 #
point $-1 -59.85420363663134 -35.18270878756455 -15.527549817208959 #
plane-surface $-1 0 0 15.527549817208959 0 0 1 1 0 0 forward_v I I I I #
coedge $-1 $300 $299 $292 $376 forward $196 $-1 #
coedge $-1 $292 $198 $200 $296 reversed $117 $-1 #
coedge $-1 $198 $291 $290 $376 reversed $117 $-1 #
coedge $-1 $206 $201 $198 $294 forward $207 $-1 #
edge $-1 $297 -11.096175273123031 $377 -6.4930192236143185 $293 $378 forward 7 unknown #
coedge $-1 $200 $199 $300 $379 reversed $73 $-1 #
edge $-1 $380 8.8817612989391469e-015 $297 5.763775871082113 $291 $381 forward 7 unknown #
vertex $-1 $202 $382 #
straight-curve $-1 -59.16954209191406 -9.4792046689497926 15.527549817208959 0 1 0 I I #
coedge $-1 $290 $203 $206 $304 reversed $196 $-1 #
coedge $-1 $203 $290 $295 $379 forward $196 $-1 #
vertex $-1 $204 $383 #
straight-curve $-1 -63.772698141422772 -24.673684680099562 56.960552373131286 0 0 1 I I #
straight-curve $-1 -63.772698141422779 -24.673684680099562 12.058822863996923 -0.79863550430605224 0 -0.6018150307709319 I I #
edge $-1 $377 13.243133995699608 $208 24.673684680099562 $299 $384 forward 7 unknown #
point $-1 -63.772698141422772 -24.673684680099562 15.527549817208959 #
point $-1 -59.16954209191406 -24.673684680099562 15.527549817208959 #
edge $-1 $385 1 $385 0 $211 $-1 forward 7 unknown #
vertex $-1 $212 $386 #
ellipse-curve $-1 -59.914210471494286 -21.40781305598529 11.727097499252817 -0.6018150307709319 0 0.79863550430605224 0.79863550430605224 0 0.6018150307709319 1 I I #
point $-1 -60.672484612362375 -21.40781305598529 14.395001371373883 #
edge $-1 $387 1 $387 0 $215 $-1 forward 7 unknown #
vertex $-1 $216 $388 #
ellipse-curve $-1 -59.914210471494286 -16.509005619813884 11.727097499252817 -0.6018150307709319 0 0.79863550430605224 0.79863550430605224 0 0.6018150307709319 1 I I #
point $-1 -60.672484612362375 -16.509005619813884 14.395001371373883 #
loop $-1 $-1 $227 $219 #
plane-surface $-1 63.772698141422772 0 0 -1 0 0 0 0 1 forward_v I I I I #
coedge $-1 $318 $222 $224 $322 reversed $139 $-1 #
coedge $-1 $222 $317 $389 $390 reversed $139 $-1 #
coedge $-1 $230 $225 $222 $320 forward $220 $-1 #
edge $-1 $323 39.834965668009758 $391 44.438121717518499 $319 $392 forward 7 unknown #
coedge $-1 $224 $223 $326 $393 reversed $87 $-1 #
edge $-1 $394 -127.54539628284556 $323 -121.78162041176341 $317 $395 forward 7 unknown #
vertex $-1 $226 $396 #
straight-curve $-1 59.169542091914046 -9.4792046689497926 15.52754981720895 0 -1 0 I I #
coedge $-1 $389 $227 $230 $330 reversed $315 $-1 #
coedge $-1 $227 $389 $321 $393 forward $315 $-1 #
vertex $-1 $228 $397 #
straight-curve $-1 63.772698141422772 -13.243133995699608 95.33992066745698 0 0 1 I I #
straight-curve $-1 -38.089583740842862 -13.243133995699608 88.817559452648311 0.79863550430605224 0 -0.6018150307709319 I I #
edge $-1 $391 -24.673684680099562 $231 -13.243133995699608 $325 $398 forward 7 unknown #
point $-1 63.772698141422772 -13.243133995699608 15.527549817208959 #
point $-1 59.169542091914032 -13.243133995699608 15.527549817208964 #
edge $-1 $399 1 $399 0 $234 $-1 forward 7 unknown #
vertex $-1 $235 $400 #
ellipse-curve $-1 59.914210471494286 -21.40781305598529 11.727097499252821 0.6018150307709319 0 0.79863550430605224 0.79863550430605224 0 -0.6018150307709319 1 I I #
point $-1 62.269755620974479 -21.40781305598529 13.191371309832022 #
edge $-1 $401 1 $401 0 $238 $-1 forward 7 unknown #
vertex $-1 $239 $402 #
ellipse-curve $-1 59.914210471494286 -16.509005619813884 11.727097499252821 0.6018150307709319 0 0.79863550430605224 0.79863550430605224 0 -0.6018150307709319 1 I I #
point $-1 62.269755620974479 -16.509005619813884 13.191371309832022 #
plane-surface $-1 63.772698141422772 0 0 -1 0 0 0 0 1 forward_v I I I I #
coedge $-1 $247 $245 $249 $346 reversed $161 $-1 #
edge $-1 $260 -15.527549817208959 $348 15.527549817208959 $259 $403 forward 7 unknown #
vertex $-1 $346 $404 #
straight-curve $-1 -63.772698141422772 -35.18270878756455 0 0 0 -1 I I #
edge $-1 $344 -35.18270878756455 $348 35.18270878756455 $342 $405 forward 7 unknown #
straight-curve $-1 0 -35.18270878756455 -15.527549817208959 -1 0 0 I I #
vertex $-1 $252 $406 #
straight-curve $-1 0 35.18270878756455 -15.527549817208959 1 0 0 I I #
point $-1 63.772698141422772 35.18270878756455 -15.527549817208959 #
point $-1 63.772698141422772 -35.18270878756455 -15.527549817208959 #
straight-curve $-1 -63.772698141422772 0 15.527549817208959 0 -1 0 I I #
point $-1 -63.772698141422772 35.18270878756455 15.527549817208959 #
point $-1 -63.772698141422772 -35.18270878756455 15.527549817208959 #
straight-curve $-1 63.772698141422772 -35.18270878756455 0 0 0 -1 I I #
straight-curve $-1 63.772698141422772 35.18270878756455 0 0 0 -1 I I #
plane-surface $-1 0 0 -15.527549817208959 0 0 1 1 0 0 forward_v I I I I #
coedge $-1 $372 $271 $370 $407 reversed $180 $-1 #
coedge $-1 $271 $372 $275 $364 reversed $180 $-1 #
coedge $-1 $273 $272 $271 $361 reversed $109 $-1 #
edge $-1 $365 -15.527549817208959 $408 15.527549817208959 $360 $409 forward 7 unknown #
edge $-1 $408 -45.691732895029546 $283 -35.18270878756455 $272 $410 forward 7 unknown #
straight-curve $-1 -63.772698141422772 -35.18270878756455 0 0 0 -1 I I #
edge $-1 $365 -1.9592472523957127 $367 1.9592472523957127 $359 $411 forward 7 unknown #
vertex $-1 $276 $412 #
straight-curve $-1 -63.772698141422772 0 15.527549817208959 0 -1 0 I I #
vertex $-1 $277 $413 #
straight-curve $-1 -59.85420363663134 -40.437220841297048 15.527549817208959 0 1 0 I I #
point $-1 -63.772698141422772 -35.18270878756455 15.527549817208959 #
coedge $-1 $281 $280 $358 $407 forward $282 $-1 #
point $-1 -63.772698141422772 -35.18270878756455 -15.527549817208959 #
coedge $-1 $359 $358 $285 $373 reversed $180 $-1 #
edge $-1 $367 -15.527549817208959 $374 15.527549817208959 $285 $414 forward 7 unknown #
vertex $-1 $373 $415 #
straight-curve $-1 -59.85420363663134 -40.437220841297048 -15.527549817208959 0 -1 0 I I #
edge $-1 $377 41.433002555922329 $380 44.901729509134356 $290 $416 forward 7 unknown #
vertex $-1 $304 $417 #
straight-curve $-1 -70.265717365037091 -13.243133995699608 15.527549817208957 -1 0 0 I I #
edge $-1 $380 3.7639293267498157 $301 15.19448001114977 $300 $418 forward 7 unknown #
vertex $-1 $379 $419 #
straight-curve $-1 -63.772698141422779 -13.243133995699608 12.058822863996923 0.79863550430605224 0 0.6018150307709319 I I #
point $-1 -59.16954209191406 -13.243133995699608 15.527549817208959 #
point $-1 -63.772698141422772 -24.673684680099562 12.058822863996928 #
straight-curve $-1 -63.772698141422772 0 15.527549817208959 0 -1 0 I I #
vertex $-1 $307 $420 #
point $-1 -59.11557496718823 -21.40781305598529 12.32891253002375 #
vertex $-1 $311 $421 #
point $-1 -59.11557496718823 -16.509005619813884 12.32891253002375 #
coedge $-1 $326 $325 $318 $390 forward $315 $-1 #
edge $-1 $391 79.812370850248016 $394 83.281097803460057 $389 $422 forward 7 unknown #
vertex $-1 $330 $423 #
straight-curve $-1 19.33457642390427 -24.673684680099562 15.527549817208964 1 0 0 I I #
edge $-1 $394 -15.19448001114977 $327 -3.7639293267498157 $326 $424 forward 7 unknown #
vertex $-1 $393 $425 #
straight-curve $-1 -38.089583740842862 -24.673684680099562 88.817559452648311 -0.79863550430605224 0 0.6018150307709319 I I #
point $-1 59.169542091914032 -24.673684680099562 15.527549817208964 #
point $-1 63.772698141422772 -13.243133995699608 12.058822863996923 #
straight-curve $-1 63.772698141422772 0 15.527549817208959 0 1 0 I I #
vertex $-1 $333 $426 #
point $-1 60.712845975800334 -21.40781305598529 11.125282468481888 #
vertex $-1 $337 $427 #
point $-1 60.712845975800334 -16.509005619813884 11.125282468481888 #
straight-curve $-1 -63.772698141422772 35.18270878756455 0 0 0 -1 I I #
point $-1 -63.772698141422772 -35.18270878756455 -15.527549817208959 #
straight-curve $-1 -63.772698141422772 0 -15.527549817208959 0 1 0 I I #
point $-1 -63.772698141422772 35.18270878756455 -15.527549817208959 #
edge $-1 $374 -1.9592472523957127 $408 1.9592472523957127 $358 $428 forward 7 unknown #
vertex $-1 $362 $429 #
straight-curve $-1 -63.772698141422765 -45.691732895029546 0 0 0 -1 I I #
straight-curve $-1 -63.772698141422772 0 -15.527549817208959 0 1 0 I I #
straight-curve $-1 -61.813450889027052 -45.691732895029546 15.527549817208959 1 0 0 I I #
point $-1 -63.772698141422765 -45.691732895029546 15.527549817208959 #
point $-1 -59.85420363663134 -45.691732895029546 15.527549817208959 #
straight-curve $-1 -59.85420363663134 -45.691732895029546 0 0 0 -1 I I #
point $-1 -59.85420363663134 -45.691732895029546 -15.527549817208959 #
straight-curve $-1 -63.772698141422772 -13.243133995699608 56.960552373131286 0 0 -1 I I #
point $-1 -63.772698141422772 -13.243133995699608 15.527549817208959 #
straight-curve $-1 -63.772698141422772 -9.4792046689497926 12.058822863996932 0 -1 0 I I #
point $-1 -63.772698141422772 -13.243133995699608 12.058822863996928 #
point $-1 -59.31239544072335 -21.40781305598529 10.928461994946765 #
point $-1 -59.31239544072335 -16.509005619813884 10.928461994946765 #
straight-curve $-1 63.772698141422772 -24.673684680099562 95.33992066745698 0 0 -1 I I #
point $-1 63.772698141422772 -24.673684680099562 15.527549817208959 #
straight-curve $-1 63.772698141422779 -9.4792046689497926 12.058822863996916 0 1 0 I I #
point $-1 63.772698141422772 -24.673684680099562 12.058822863996923 #
point $-1 59.31239544072335 -21.40781305598529 10.928461994946769 #
point $-1 59.31239544072335 -16.509005619813884 10.928461994946769 #
straight-curve $-1 -61.813450889027052 -45.691732895029546 -15.527549817208959 -1 0 0 I I #
point $-1 -63.772698141422765 -45.691732895029546 -15.527549817208959 #
End-of-ACIS-data 