500 0 5 0           
7 Unknown 11 ACIS 5.0 NT 24 Thu Mar 25 17:42:55 1999 
-1 9.9999999999999995e-007 1e-010 
body $-1 $5 $-1 $6 #
body $-1 $7 $-1 $8 #
body $-1 $9 $-1 $10 #
body $-1 $11 $-1 $12 #
body $-1 $13 $-1 $14 #
lump $-1 $-1 $15 $0 #
transform $-1 1 0 0 0 1 0 0 0 1 58.17804498428297 37.339094327340597 9.0150774572727723 1 rotate no_reflect no_shear #
lump $-1 $-1 $16 $1 #
transform $-1 1 0 0 0 1 0 0 0 1 58.17804498428297 37.339094327340597 9.0150774572727723 1 rotate no_reflect no_shear #
lump $-1 $-1 $17 $2 #
transform $-1 1 0 0 0 1 0 0 0 1 58.17804498428297 37.339094327340597 9.0150774572727723 1 rotate no_reflect no_shear #
lump $-1 $-1 $18 $3 #
transform $-1 1 0 0 0 1 0 0 0 1 58.17804498428297 37.339094327340597 9.0150774572727723 1 rotate no_reflect no_shear #
lump $-1 $-1 $19 $4 #
transform $-1 1 0 0 0 1 0 0 0 1 58.17804498428297 37.339094327340597 9.0150774572727723 1 rotate no_reflect no_shear #
shell $-1 $-1 $-1 $20 $-1 $5 #
shell $-1 $-1 $-1 $21 $-1 $7 #
shell $-1 $-1 $-1 $22 $-1 $9 #
shell $-1 $-1 $-1 $23 $-1 $11 #
shell $-1 $-1 $-1 $24 $-1 $13 #
face $-1 $25 $26 $15 $-1 $27 reversed single #
face $-1 $28 $29 $16 $-1 $30 forward single #
face $-1 $31 $32 $17 $-1 $33 reversed single #
face $-1 $34 $35 $18 $-1 $36 forward single #
face $-1 $37 $38 $19 $-1 $39 forward single #
face $-1 $40 $41 $15 $-1 $42 forward single #
loop $-1 $-1 $43 $20 #
plane-surface $-1 0 -37.339094327340597 0 0 1 0 0 0 1 forward_v I I I I #
face $-1 $44 $45 $16 $-1 $46 reversed single #
loop $-1 $-1 $47 $21 #
plane-surface $-1 0 -37.339094327340597 0 0 1 0 0 0 1 forward_v I I I I #
face $-1 $48 $49 $17 $-1 $50 reversed single #
loop $-1 $-1 $51 $22 #
plane-surface $-1 28.771739352437166 76.160851884796841 133.53682912659173 1 0 0 0 -0.75470958851134928 -0.65605901945558964 forward_v I I I I #
face $-1 $52 $53 $18 $-1 $54 forward single #
loop $-1 $55 $56 $23 #
cone-surface $-1 37.17354096153597 31.364039146026155 2.8222923366576631 0 -0.75470958851134928 -0.65605901945558964 2.5 0 0 1 I I 0 1 2.5 forward I I I I #
face $-1 $57 $58 $19 $-1 $59 forward single #
loop $-1 $60 $61 $24 #
cone-surface $-1 49.776243375184173 31.364039146026155 2.8222923366576631 0 -0.75470958851134928 -0.65605901945558964 2.5 0 0 1 I I 0 1 2.5 forward I I I I #
face $-1 $62 $63 $15 $-1 $64 reversed single #
loop $-1 $-1 $65 $25 #
plane-surface $-1 0 0 9.0150774572727723 0 0 1 1 0 0 forward_v I I I I #
coedge $-1 $66 $67 $68 $69 reversed $26 $-1 #
face $-1 $70 $71 $16 $-1 $72 reversed single #
loop $-1 $-1 $73 $28 #
plane-surface $-1 0 0 -9.0150774572727723 0 0 1 1 0 0 forward_v I I I I #
coedge $-1 $74 $75 $76 $77 forward $29 $-1 #
face $-1 $78 $79 $17 $-1 $80 forward single #
loop $-1 $-1 $81 $31 #
plane-surface $-1 43.474892168360064 -11.654204896169105 57.200366834127976 0 0.75470958851134928 0.65605901945558964 1 0 0 forward_v I I I I #
coedge $-1 $82 $83 $84 $85 reversed $32 $-1 #
face $-1 $-1 $86 $18 $-1 $87 forward single #
loop $-1 $88 $89 $34 #
cone-surface $-1 37.17354096153597 27.998830618652995 -0.10303873153085696 0 -0.75470958851134928 -0.65605901945558964 1.25 0 0 1 I I -0.70710678118654757 0.70710678118654735 1.25 forward I I I I #
loop $-1 $-1 $90 $23 #
coedge $-1 $56 $56 $91 $92 reversed $35 $-1 #
face $-1 $-1 $93 $19 $-1 $94 forward single #
loop $-1 $95 $96 $37 #
cone-surface $-1 49.776243375184173 27.998830618652995 -0.10303873153085696 0 -0.75470958851134928 -0.65605901945558964 1.25 0 0 1 I I -0.70710678118654757 0.70710678118654735 1.25 forward I I I I #
loop $-1 $-1 $97 $24 #
coedge $-1 $61 $61 $98 $99 reversed $38 $-1 #
face $-1 $100 $101 $15 $-1 $102 reversed single #
loop $-1 $-1 $103 $40 #
plane-surface $-1 0 0 -9.0150774572727723 0 0 1 1 0 0 forward_v I I I I #
coedge $-1 $104 $105 $106 $107 forward $41 $-1 #
coedge $-1 $108 $43 $109 $110 reversed $26 $-1 #
coedge $-1 $43 $108 $111 $112 forward $26 $-1 #
coedge $-1 $113 $103 $43 $69 forward $63 $-1 #
edge $-1 $114 -58.17804498428297 $115 58.17804498428297 $43 $116 forward 7 unknown #
face $-1 $117 $118 $16 $-1 $119 reversed single #
loop $-1 $-1 $120 $44 #
plane-surface $-1 -49.272305488626074 -48.003683070113432 0 0 1 0 0 0 1 forward_v I I I I #
coedge $-1 $121 $122 $75 $123 forward $45 $-1 #
coedge $-1 $124 $47 $125 $126 reversed $29 $-1 #
coedge $-1 $47 $124 $73 $123 reversed $29 $-1 #
coedge $-1 $127 $128 $47 $77 reversed $118 $-1 #
edge $-1 $129 -9.0150774572727723 $130 9.0150774572727723 $76 $131 forward 7 unknown #
face $-1 $132 $133 $17 $-1 $134 reversed single #
loop $-1 $-1 $84 $48 #
plane-surface $-1 0 0 9.0150774572727723 0 0 1 1 0 0 forward_v I I I I #
coedge $-1 $135 $136 $137 $138 reversed $49 $-1 #
coedge $-1 $83 $51 $139 $140 reversed $32 $-1 #
coedge $-1 $51 $82 $135 $141 reversed $32 $-1 #
coedge $-1 $137 $142 $51 $85 forward $79 $-1 #
edge $-1 $143 0.74133161505782397 $144 7.8477988942188048 $84 $145 forward 7 unknown #
loop $-1 $-1 $91 $52 #
plane-surface $-1 43.474892168360064 -11.654204896169105 57.200366834127976 0 0.75470958851134928 0.65605901945558964 1 0 0 forward_v I I I I #
loop $-1 $-1 $146 $34 #
coedge $-1 $89 $89 $90 $147 reversed $53 $-1 #
coedge $-1 $90 $90 $89 $147 forward $55 $-1 #
coedge $-1 $91 $91 $56 $92 forward $86 $-1 #
edge $-1 $148 -2.4510146044127572e-017 $148 6.2831853071796004 $91 $149 forward 7 unknown #
loop $-1 $-1 $98 $57 #
plane-surface $-1 43.474892168360064 -11.654204896169105 57.200366834127976 0 0.75470958851134928 0.65605901945558964 1 0 0 forward_v I I I I #
loop $-1 $-1 $150 $37 #
coedge $-1 $96 $96 $97 $151 reversed $58 $-1 #
coedge $-1 $97 $97 $96 $151 forward $60 $-1 #
coedge $-1 $98 $98 $61 $99 forward $93 $-1 #
edge $-1 $152 -2.4510146044127572e-017 $152 6.2831853071796004 $98 $153 forward 7 unknown #
face $-1 $154 $155 $15 $-1 $156 reversed single #
loop $-1 $-1 $157 $62 #
plane-surface $-1 -58.17804498428297 0 0 1 0 0 0 0 -1 forward_v I I I I #
coedge $-1 $68 $158 $159 $160 forward $63 $-1 #
coedge $-1 $161 $65 $162 $163 forward $41 $-1 #
coedge $-1 $65 $161 $108 $164 forward $41 $-1 #
coedge $-1 $109 $165 $65 $107 reversed $166 $-1 #
edge $-1 $167 -37.339094327340597 $168 37.339094327340597 $106 $169 forward 7 unknown #
coedge $-1 $67 $66 $105 $164 reversed $26 $-1 #
coedge $-1 $159 $106 $66 $110 forward $166 $-1 #
edge $-1 $167 -9.0150774572727723 $114 9.0150774572727723 $109 $170 forward 7 unknown #
coedge $-1 $171 $172 $67 $112 reversed $101 $-1 #
edge $-1 $173 -9.0150774572727723 $115 9.0150774572727723 $111 $174 forward 7 unknown #
coedge $-1 $158 $68 $172 $175 forward $63 $-1 #
vertex $-1 $110 $176 #
vertex $-1 $175 $177 #
straight-curve $-1 0 -37.339094327340597 -9.0150774572727723 -1 0 0 I I #
face $-1 $178 $179 $16 $-1 $180 reversed single #
loop $-1 $-1 $76 $70 #
plane-surface $-1 -51.049651656469571 -42.671388698727014 0 1 0 0 0 0 -1 forward_v I I I I #
coedge $-1 $181 $182 $183 $184 forward $71 $-1 #
coedge $-1 $185 $73 $186 $187 forward $45 $-1 #
coedge $-1 $73 $185 $127 $188 forward $45 $-1 #
edge $-1 $129 -51.049651656469571 $189 -47.494959320782577 $73 $190 forward 7 unknown #
coedge $-1 $75 $74 $191 $192 forward $29 $-1 #
coedge $-1 $193 $194 $74 $126 forward $195 $-1 #
edge $-1 $196 47.494959320782577 $130 51.049651656469571 $125 $197 forward 7 unknown #
coedge $-1 $183 $76 $122 $188 reversed $118 $-1 #
coedge $-1 $76 $183 $193 $198 reversed $118 $-1 #
vertex $-1 $123 $199 #
vertex $-1 $198 $200 #
straight-curve $-1 -51.049651656469571 -37.339094327340597 0 0 0 1 I I #
face $-1 $-1 $201 $17 $-1 $202 reversed single #
loop $-1 $-1 $203 $78 #
plane-surface $-1 58.17804498428297 0 0 -1 0 0 0 0 1 forward_v I I I I #
coedge $-1 $204 $81 $83 $141 forward $49 $-1 #
coedge $-1 $81 $204 $203 $205 reversed $49 $-1 #
coedge $-1 $206 $84 $81 $138 forward $79 $-1 #
edge $-1 $144 7.0342932682571337 $207 36.440598900102927 $137 $208 forward 7 unknown #
coedge $-1 $209 $210 $82 $140 forward $201 $-1 #
edge $-1 $211 -65.928392759515262 $143 -57.753337106023089 $139 $212 forward 7 unknown #
edge $-1 $144 63.846133811417189 $211 74.67818865468125 $83 $213 forward 7 unknown #
coedge $-1 $84 $206 $209 $214 forward $79 $-1 #
vertex $-1 $140 $215 #
vertex $-1 $85 $216 #
straight-curve $-1 28.771739352437166 38.080425942398421 9.0150774572727741 0 -1 0 I I #
coedge $-1 $146 $146 $-1 $217 reversed $88 $-1 #
edge $-1 $218 0 $218 6.2831853071796004 $89 $219 forward 7 unknown #
vertex $-1 $92 $220 #
ellipse-curve $-1 37.17354096153597 33.785860687760113 4.9275496305266833 0 0.75470958851134928 0.65605901945558964 2.5 0 0 1 I I #
coedge $-1 $150 $150 $-1 $221 reversed $95 $-1 #
edge $-1 $222 0 $222 6.2831853071796004 $96 $223 forward 7 unknown #
vertex $-1 $99 $224 #
ellipse-curve $-1 49.776243375184173 33.785860687760113 4.9275496305266833 0 0.75470958851134928 0.65605901945558964 2.5 0 0 1 I I #
face $-1 $-1 $166 $15 $-1 $225 reversed single #
loop $-1 $-1 $226 $100 #
plane-surface $-1 0 37.339094327340597 0 0 -1 0 0 0 -1 forward_v I I I I #
coedge $-1 $172 $171 $227 $228 forward $101 $-1 #
coedge $-1 $103 $113 $229 $230 forward $63 $-1 #
coedge $-1 $165 $109 $103 $160 reversed $166 $-1 #
edge $-1 $231 -37.339094327340597 $114 37.339094327340597 $159 $232 forward 7 unknown #
coedge $-1 $105 $104 $171 $233 forward $41 $-1 #
coedge $-1 $226 $227 $104 $163 reversed $155 $-1 #
edge $-1 $168 -58.17804498428297 $234 58.17804498428297 $162 $235 forward 7 unknown #
edge $-1 $173 -58.17804498428297 $167 58.17804498428297 $108 $236 forward 7 unknown #
coedge $-1 $106 $159 $226 $237 reversed $166 $-1 #
loop $-1 $-1 $109 $154 #
vertex $-1 $107 $238 #
vertex $-1 $107 $239 #
straight-curve $-1 58.17804498428297 0 9.0150774572727723 0 1 0 I I #
straight-curve $-1 58.17804498428297 -37.339094327340597 0 0 0 -1 I I #
coedge $-1 $157 $111 $161 $233 reversed $101 $-1 #
coedge $-1 $111 $157 $113 $175 reversed $101 $-1 #
vertex $-1 $233 $240 #
straight-curve $-1 -58.17804498428297 -37.339094327340597 0 0 0 -1 I I #
edge $-1 $115 -37.339094327340597 $241 37.339094327340597 $172 $242 forward 7 unknown #
point $-1 58.17804498428297 -37.339094327340597 -9.0150774572727723 #
point $-1 -58.17804498428297 -37.339094327340597 -9.0150774572727723 #
face $-1 $-1 $195 $16 $-1 $243 forward single #
loop $-1 $-1 $244 $117 #
plane-surface $-1 -47.494959320782577 -42.671388698727014 0 -1 0 0 0 0 1 forward_v I I I I #
coedge $-1 $245 $120 $185 $246 reversed $71 $-1 #
coedge $-1 $120 $245 $247 $248 reversed $71 $-1 #
coedge $-1 $128 $127 $120 $184 reversed $118 $-1 #
edge $-1 $249 -9.0150774572727723 $250 9.0150774572727723 $183 $251 forward 7 unknown #
coedge $-1 $122 $121 $181 $246 forward $45 $-1 #
coedge $-1 $191 $244 $121 $187 reversed $179 $-1 #
edge $-1 $189 -5.3322943713864177 $252 5.3322943713864177 $186 $253 forward 7 unknown #
edge $-1 $250 -5.3322943713864177 $129 5.3322943713864177 $127 $254 forward 7 unknown #
vertex $-1 $187 $255 #
straight-curve $-1 0 -37.339094327340597 -9.0150774572727723 1 0 0 I I #
coedge $-1 $256 $186 $124 $192 reversed $179 $-1 #
edge $-1 $196 -9.0150774572727723 $189 9.0150774572727723 $191 $257 forward 7 unknown #
coedge $-1 $247 $125 $128 $198 forward $195 $-1 #
coedge $-1 $125 $247 $256 $258 forward $195 $-1 #
loop $-1 $-1 $125 $178 #
vertex $-1 $126 $259 #
straight-curve $-1 0 -37.339094327340597 9.0150774572727723 -1 0 0 I I #
edge $-1 $130 -5.3322943713864177 $249 5.3322943713864177 $128 $260 forward 7 unknown #
point $-1 -51.049651656469571 -37.339094327340597 -9.0150774572727723 #
point $-1 -51.049651656469571 -37.339094327340597 9.0150774572727723 #
loop $-1 $-1 $139 $132 #
plane-surface $-1 0 37.339094327340597 0 0 -1 0 0 0 -1 forward_v I I I I #
coedge $-1 $261 $262 $136 $205 forward $133 $-1 #
coedge $-1 $136 $135 $210 $263 reversed $49 $-1 #
edge $-1 $207 38.438378035018076 $264 49.270432878282122 $203 $265 forward 7 unknown #
coedge $-1 $142 $137 $262 $266 forward $79 $-1 #
vertex $-1 $266 $267 #
straight-curve $-1 21.737446084180032 30.232627048179609 9.0150774572727705 1 0 0 I I #
coedge $-1 $268 $139 $142 $214 reversed $201 $-1 #
coedge $-1 $139 $268 $204 $263 forward $201 $-1 #
vertex $-1 $140 $269 #
straight-curve $-1 28.771739352437166 37.339094327340597 66.768414563295863 0 0 1 I I #
straight-curve $-1 28.771739352437166 -11.654204896169105 57.200366834127976 0 0.65605901945558964 -0.75470958851134928 I I #
edge $-1 $270 -58.17804498428297 $143 -28.771739352437166 $209 $271 forward 7 unknown #
point $-1 28.771739352437166 37.339094327340597 9.0150774572727723 #
point $-1 28.771739352437166 30.232627048179616 9.0150774572727741 #
edge $-1 $272 1 $272 0 $146 $-1 forward 7 unknown #
vertex $-1 $147 $273 #
ellipse-curve $-1 37.17354096153597 28.942217604292182 0.71703504278862984 0 0.75470958851134928 0.65605901945558964 2.5 0 0 1 I I #
point $-1 39.67354096153597 33.785860687760128 4.9275496305266957 #
edge $-1 $274 1 $274 0 $150 $-1 forward 7 unknown #
vertex $-1 $151 $275 #
ellipse-curve $-1 49.776243375184173 28.942217604292182 0.71703504278862984 0 0.75470958851134928 0.65605901945558964 2.5 0 0 1 I I #
point $-1 52.276243375184173 33.785860687760128 4.9275496305266957 #
plane-surface $-1 58.17804498428297 0 0 -1 0 0 0 0 1 forward_v I I I I #
coedge $-1 $229 $162 $165 $237 forward $155 $-1 #
coedge $-1 $162 $229 $157 $228 reversed $155 $-1 #
edge $-1 $234 -9.0150774572727723 $241 9.0150774572727723 $227 $276 forward 7 unknown #
coedge $-1 $227 $226 $158 $230 reversed $155 $-1 #
edge $-1 $241 -58.17804498428297 $231 58.17804498428297 $229 $277 forward 7 unknown #
vertex $-1 $160 $278 #
straight-curve $-1 58.17804498428297 0 -9.0150774572727723 0 -1 0 I I #
edge $-1 $234 -37.339094327340597 $173 37.339094327340597 $171 $279 forward 7 unknown #
vertex $-1 $163 $280 #
straight-curve $-1 0 37.339094327340597 9.0150774572727723 -1 0 0 I I #
straight-curve $-1 0 -37.339094327340597 9.0150774572727723 1 0 0 I I #
edge $-1 $168 -9.0150774572727723 $231 9.0150774572727723 $165 $281 forward 7 unknown #
point $-1 58.17804498428297 -37.339094327340597 9.0150774572727723 #
point $-1 58.17804498428297 37.339094327340597 9.0150774572727723 #
point $-1 -58.17804498428297 -37.339094327340597 9.0150774572727723 #
vertex $-1 $230 $282 #
straight-curve $-1 -58.17804498428297 0 -9.0150774572727723 0 1 0 I I #
plane-surface $-1 0 0 9.0150774572727723 0 0 1 1 0 0 forward_v I I I I #
coedge $-1 $186 $256 $245 $283 forward $179 $-1 #
coedge $-1 $182 $181 $244 $283 reversed $71 $-1 #
edge $-1 $252 -1.777346167843497 $250 1.777346167843497 $181 $284 forward 7 unknown #
coedge $-1 $194 $193 $182 $248 forward $195 $-1 #
edge $-1 $249 -1.777346167843497 $285 1.777346167843497 $182 $286 forward 7 unknown #
vertex $-1 $198 $287 #
vertex $-1 $188 $288 #
straight-curve $-1 -51.049651656469571 -48.003683070113432 0 0 0 -1 I I #
vertex $-1 $283 $289 #
straight-curve $-1 -47.494959320782577 -42.671388698727014 -9.0150774572727723 0 -1 0 I I #
straight-curve $-1 -51.049651656469571 -42.671388698727014 -9.0150774572727723 0 1 0 I I #
point $-1 -47.494959320782577 -37.339094327340597 -9.0150774572727723 #
coedge $-1 $244 $191 $194 $258 reversed $179 $-1 #
straight-curve $-1 -47.494959320782577 -37.339094327340597 0 0 0 -1 I I #
edge $-1 $285 -5.3322943713864177 $196 5.3322943713864177 $256 $290 forward 7 unknown #
point $-1 -47.494959320782577 -37.339094327340597 9.0150774572727723 #
straight-curve $-1 -51.049651656469571 -42.671388698727014 9.0150774572727723 0 -1 0 I I #
coedge $-1 $262 $203 $268 $291 reversed $133 $-1 #
coedge $-1 $203 $261 $206 $266 reversed $133 $-1 #
edge $-1 $264 -36.440598900102927 $211 -7.0342932682571337 $210 $292 forward 7 unknown #
vertex $-1 $205 $293 #
straight-curve $-1 58.17804498428297 5.0147824450623784 38.024889927124953 0 0.65605901945558975 -0.75470958851134939 I I #
edge $-1 $207 30.232627048179616 $270 37.339094327340597 $262 $294 forward 7 unknown #
point $-1 58.178044984282963 30.232627048179616 9.0150774572727741 #
coedge $-1 $210 $209 $261 $291 forward $201 $-1 #
point $-1 28.771739352437166 37.339094327340597 0.84002180378060132 #
vertex $-1 $266 $295 #
straight-curve $-1 0 37.339094327340597 9.0150774572727723 -1 0 0 I I #
vertex $-1 $217 $296 #
point $-1 39.67354096153597 28.942217604292182 0.71703504278862984 #
vertex $-1 $221 $297 #
point $-1 52.276243375184173 28.942217604292182 0.71703504278862984 #
straight-curve $-1 -58.17804498428297 37.339094327340597 0 0 0 -1 I I #
straight-curve $-1 0 37.339094327340597 -9.0150774572727723 1 0 0 I I #
point $-1 58.17804498428297 37.339094327340597 -9.0150774572727723 #
straight-curve $-1 -58.17804498428297 0 9.0150774572727723 0 -1 0 I I #
point $-1 -58.17804498428297 37.339094327340597 9.0150774572727723 #
straight-curve $-1 58.17804498428297 37.339094327340597 0 0 0 -1 I I #
point $-1 -58.17804498428297 37.339094327340597 -9.0150774572727723 #
edge $-1 $285 -9.0150774572727723 $252 9.0150774572727723 $244 $298 forward 7 unknown #
straight-curve $-1 -49.272305488626074 -48.003683070113432 -9.0150774572727723 -1 0 0 I I #
vertex $-1 $258 $299 #
straight-curve $-1 -49.272305488626074 -48.003683070113432 9.0150774572727723 1 0 0 I I #
point $-1 -51.049651656469571 -48.003683070113432 9.0150774572727723 #
point $-1 -51.049651656469571 -48.003683070113432 -9.0150774572727723 #
point $-1 -47.494959320782577 -48.003683070113432 -9.0150774572727723 #
straight-curve $-1 -47.494959320782577 -42.671388698727014 9.0150774572727723 0 1 0 I I #
edge $-1 $270 -9.0150774572727723 $264 -0.84002180378060132 $261 $300 forward 7 unknown #
straight-curve $-1 21.737446084180032 37.33909432734059 0.84002180378060132 -1 0 0 I I #
point $-1 58.178044984282963 37.339094327340597 0.84002180378060132 #
straight-curve $-1 58.17804498428297 0 9.0150774572727723 0 1 0 I I #
point $-1 58.17804498428297 37.339094327340597 9.0150774572727723 #
point $-1 37.17354096153597 27.055443633013809 -0.92311250585034377 #
point $-1 49.776243375184173 27.055443633013809 -0.92311250585034377 #
straight-curve $-1 -47.494959320782577 -48.003683070113432 0 0 0 -1 I I #
point $-1 -47.494959320782577 -48.003683070113432 9.0150774572727723 #
straight-curve $-1 58.17804498428297 37.339094327340597 0 0 0 -1 I I #
End-of-ACIS-data 