500 0 6 0           
7 Unknown 11 ACIS 5.0 NT 24 Fri Mar 26 16:38:50 1999 
-1 9.9999999999999995e-007 1e-010 
body $-1 $6 $-1 $7 #
body $-1 $8 $-1 $9 #
body $-1 $10 $-1 $11 #
body $-1 $12 $-1 $13 #
body $-1 $14 $-1 $15 #
body $-1 $16 $-1 $17 #
lump $-1 $-1 $18 $0 #
transform $-1 1 0 0 0 1 0 0 0 1 57.307657094027533 23.45194358669497 5.7798552088599475 1 rotate no_reflect no_shear #
lump $-1 $-1 $19 $1 #
transform $-1 1 0 0 0 1 0 0 0 1 57.307657094027533 23.45194358669497 5.7798552088599475 1 rotate no_reflect no_shear #
lump $-1 $-1 $20 $2 #
transform $-1 1 0 0 0 1 0 0 0 1 57.307657094027533 23.45194358669497 5.7798552088599475 1 rotate no_reflect no_shear #
lump $-1 $-1 $21 $3 #
transform $-1 1 0 0 0 1 0 0 0 1 57.307657094027533 23.45194358669497 5.7798552088599475 1 rotate no_reflect no_shear #
lump $-1 $-1 $22 $4 #
transform $-1 1 0 0 0 1 0 0 0 1 57.307657094027533 23.45194358669497 5.7798552088599475 1 rotate no_reflect no_shear #
lump $-1 $-1 $23 $5 #
transform $-1 1 0 0 0 1 0 0 0 1 57.307657094027533 23.45194358669497 5.7798552088599475 1 rotate no_reflect no_shear #
shell $-1 $-1 $-1 $24 $-1 $6 #
shell $-1 $-1 $-1 $25 $-1 $8 #
shell $-1 $-1 $-1 $26 $-1 $10 #
shell $-1 $-1 $-1 $27 $-1 $12 #
shell $-1 $-1 $-1 $28 $-1 $14 #
shell $-1 $-1 $-1 $29 $-1 $16 #
face $-1 $30 $31 $18 $-1 $32 forward single #
face $-1 $33 $34 $19 $-1 $35 forward single #
face $-1 $36 $37 $20 $-1 $38 reversed single #
face $-1 $39 $40 $21 $-1 $41 forward single #
face $-1 $42 $43 $22 $-1 $44 reversed single #
face $-1 $45 $46 $23 $-1 $47 forward single #
face $-1 $48 $49 $18 $-1 $50 reversed single #
loop $-1 $-1 $51 $24 #
plane-surface $-1 0 0 5.7798552088599475 0 0 1 1 0 0 forward_v I I I I #
face $-1 $52 $53 $19 $-1 $54 reversed single #
loop $-1 $-1 $55 $25 #
plane-surface $-1 0 -23.45194358669497 0 0 1 0 0 0 1 forward_v I I I I #
face $-1 $56 $57 $20 $-1 $58 reversed single #
loop $-1 $-1 $59 $26 #
plane-surface $-1 48.824495868253592 17.886775896021074 162.08464204052069 0 -1 0 -0.66913061440640931 0 -0.74314481823134659 forward_v I I I I #
face $-1 $60 $61 $21 $-1 $62 forward single #
loop $-1 $63 $64 $27 #
cone-surface $-1 53.406351142088084 13.691936188811898 2.0964560608688361 -0.66913061440640931 0 -0.74314481823134659 0.74314481823134659 0 -0.66913061440640931 1 I I 0 1 1 forward I I I I #
face $-1 $65 $66 $22 $-1 $67 reversed single #
loop $-1 $-1 $68 $28 #
plane-surface $-1 -134.00027269706447 9.4970964816027212 85.39202643748375 0 1 0 -0.66913061440640931 0 0.74314481823134659 forward_v I I I I #
face $-1 $69 $70 $23 $-1 $71 forward single #
loop $-1 $72 $73 $29 #
cone-surface $-1 -53.406351142088077 13.691936188811898 2.0964560608688352 0.66913061440640931 0 -0.74314481823134659 0.74314481823134659 0 0.66913061440640931 1 I I 0 1 1 forward I I I I #
face $-1 $74 $75 $18 $-1 $76 reversed single #
loop $-1 $-1 $77 $30 #
plane-surface $-1 0 0 -5.7798552088599475 0 0 1 1 0 0 forward_v I I I I #
coedge $-1 $78 $79 $80 $81 forward $31 $-1 #
face $-1 $82 $83 $19 $-1 $84 reversed single #
loop $-1 $-1 $85 $33 #
plane-surface $-1 0 0 -5.7798552088599475 0 0 1 1 0 0 forward_v I I I I #
coedge $-1 $86 $87 $88 $89 forward $34 $-1 #
face $-1 $90 $91 $20 $-1 $92 reversed single #
loop $-1 $-1 $93 $36 #
plane-surface $-1 -27.868119734783335 13.691936188811898 76.908865211709823 0.66913061440640931 0 0.74314481823134659 0.74314481823134659 0 -0.66913061440640931 forward_v I I I I #
coedge $-1 $94 $95 $96 $97 reversed $37 $-1 #
face $-1 $-1 $98 $21 $-1 $99 forward single #
loop $-1 $100 $101 $39 #
cone-surface $-1 52.25998481923483 13.691936188811898 0.82328730385558835 -0.66913061440640931 0 -0.74314481823134659 0.3715724091156733 0 -0.33456530720320465 1 I I -0.70710678118654746 0.70710678118654746 0.5 forward I I I I #
loop $-1 $-1 $102 $27 #
coedge $-1 $64 $64 $103 $104 reversed $40 $-1 #
face $-1 $105 $106 $22 $-1 $107 reversed single #
loop $-1 $-1 $108 $42 #
plane-surface $-1 -57.307657094027547 13.691936188811898 0.21624960867288223 -0.66913061440640931 0 0.74314481823134659 0.74314481823134659 0 0.66913061440640931 forward_v I I I I #
coedge $-1 $109 $110 $111 $112 reversed $43 $-1 #
face $-1 $-1 $113 $23 $-1 $114 forward single #
loop $-1 $115 $116 $45 #
cone-surface $-1 -52.259984819234823 13.691936188811898 0.82328730385558746 0.66913061440640931 0 -0.74314481823134659 0.3715724091156733 0 0.33456530720320465 1 I I -0.70710678118654746 0.70710678118654746 0.5 forward I I I I #
loop $-1 $-1 $117 $29 #
coedge $-1 $73 $73 $118 $119 reversed $46 $-1 #
face $-1 $120 $121 $18 $-1 $122 reversed single #
loop $-1 $-1 $123 $48 #
plane-surface $-1 0 -23.45194358669497 0 0 1 0 0 0 1 forward_v I I I I #
coedge $-1 $124 $125 $126 $127 forward $49 $-1 #
coedge $-1 $128 $51 $129 $130 forward $31 $-1 #
coedge $-1 $51 $128 $131 $132 forward $31 $-1 #
coedge $-1 $133 $134 $51 $81 reversed $135 $-1 #
edge $-1 $136 -23.45194358669497 $137 23.45194358669497 $80 $138 forward 7 unknown #
face $-1 $139 $140 $19 $-1 $141 forward single #
loop $-1 $-1 $142 $52 #
plane-surface $-1 57.307657094027533 0 0 -1 0 0 0 0 1 forward_v I I I I #
coedge $-1 $143 $144 $145 $146 forward $53 $-1 #
coedge $-1 $145 $55 $142 $147 reversed $34 $-1 #
coedge $-1 $55 $145 $148 $149 reversed $34 $-1 #
coedge $-1 $150 $151 $55 $89 reversed $140 $-1 #
edge $-1 $152 -57.307657094027533 $153 57.307657094027533 $88 $154 forward 7 unknown #
face $-1 $155 $156 $20 $-1 $157 reversed single #
loop $-1 $-1 $158 $56 #
plane-surface $-1 48.824495868253592 9.4970964816027212 162.08464204052069 0 1 0 0.66913061440640931 0 0.74314481823134659 forward_v I I I I #
coedge $-1 $159 $160 $161 $162 reversed $57 $-1 #
coedge $-1 $95 $59 $163 $164 reversed $37 $-1 #
coedge $-1 $59 $94 $159 $165 reversed $37 $-1 #
coedge $-1 $161 $166 $59 $97 forward $167 $-1 #
edge $-1 $168 -32.895409159900737 $169 -26.716399287321948 $96 $170 forward 7 unknown #
loop $-1 $-1 $103 $60 #
plane-surface $-1 -27.868119734783335 13.691936188811898 76.908865211709823 0.66913061440640931 0 0.74314481823134659 0.74314481823134659 0 -0.66913061440640931 forward_v I I I I #
loop $-1 $-1 $171 $39 #
coedge $-1 $101 $101 $102 $172 reversed $61 $-1 #
coedge $-1 $102 $102 $101 $172 forward $63 $-1 #
coedge $-1 $103 $103 $64 $104 forward $98 $-1 #
edge $-1 $173 0 $173 6.2831853071796004 $103 $174 forward 7 unknown #
face $-1 $175 $176 $22 $-1 $177 forward single #
loop $-1 $-1 $178 $65 #
plane-surface $-1 -134.00027269706447 17.886775896021074 85.39202643748375 0 -1 0 0.66913061440640931 0 -0.74314481823134659 forward_v I I I I #
coedge $-1 $179 $180 $181 $182 reversed $66 $-1 #
coedge $-1 $110 $68 $183 $184 reversed $43 $-1 #
coedge $-1 $68 $109 $179 $185 reversed $43 $-1 #
coedge $-1 $181 $186 $68 $112 forward $176 $-1 #
edge $-1 $187 9.692479254504704 $188 15.871489127083485 $111 $189 forward 7 unknown #
loop $-1 $-1 $118 $69 #
plane-surface $-1 -57.307657094027547 13.691936188811898 0.21624960867288223 -0.66913061440640931 0 0.74314481823134659 0.74314481823134659 0 0.66913061440640931 forward_v I I I I #
loop $-1 $-1 $190 $45 #
coedge $-1 $116 $116 $117 $191 reversed $70 $-1 #
coedge $-1 $117 $117 $116 $191 forward $72 $-1 #
coedge $-1 $118 $118 $73 $119 forward $113 $-1 #
edge $-1 $192 0 $192 6.2831853071796004 $118 $193 forward 7 unknown #
face $-1 $194 $195 $18 $-1 $196 reversed single #
loop $-1 $-1 $197 $74 #
plane-surface $-1 -57.307657094027533 0 0 1 0 0 0 0 -1 forward_v I I I I #
coedge $-1 $198 $131 $199 $200 forward $75 $-1 #
coedge $-1 $201 $77 $198 $202 forward $49 $-1 #
coedge $-1 $77 $201 $203 $204 forward $49 $-1 #
coedge $-1 $134 $133 $77 $127 reversed $135 $-1 #
edge $-1 $205 -23.45194358669497 $206 23.45194358669497 $126 $207 forward 7 unknown #
coedge $-1 $79 $78 $208 $209 forward $31 $-1 #
coedge $-1 $210 $211 $78 $130 reversed $195 $-1 #
edge $-1 $137 -57.307657094027533 $212 57.307657094027533 $129 $213 forward 7 unknown #
coedge $-1 $123 $214 $79 $132 reversed $75 $-1 #
edge $-1 $215 -57.307657094027533 $136 57.307657094027533 $131 $216 forward 7 unknown #
coedge $-1 $126 $80 $214 $217 forward $135 $-1 #
coedge $-1 $80 $126 $210 $218 reversed $135 $-1 #
loop $-1 $-1 $133 $194 #
vertex $-1 $81 $219 #
vertex $-1 $81 $220 #
straight-curve $-1 57.307657094027533 0 5.7798552088599475 0 1 0 I I #
face $-1 $221 $222 $19 $-1 $223 reversed single #
loop $-1 $-1 $151 $82 #
plane-surface $-1 0 -25.494167325478564 -2.3146232505465938 0 0 1 1 0 0 forward_v I I I I #
coedge $-1 $224 $225 $86 $147 forward $83 $-1 #
coedge $-1 $226 $85 $225 $227 forward $53 $-1 #
coedge $-1 $85 $226 $228 $229 forward $53 $-1 #
coedge $-1 $87 $86 $85 $146 reversed $34 $-1 #
edge $-1 $230 -57.307657094027533 $231 57.307657094027533 $85 $232 forward 7 unknown #
edge $-1 $231 -5.7798552088599475 $153 -2.3146232505465938 $142 $233 forward 7 unknown #
coedge $-1 $228 $234 $87 $149 forward $235 $-1 #
edge $-1 $152 2.3146232505465938 $230 5.7798552088599475 $148 $236 forward 7 unknown #
coedge $-1 $237 $88 $234 $238 forward $140 $-1 #
coedge $-1 $88 $237 $224 $239 forward $140 $-1 #
vertex $-1 $149 $240 #
vertex $-1 $239 $241 #
straight-curve $-1 0 -23.45194358669497 -2.3146232505465938 1 0 0 I I #
face $-1 $-1 $167 $20 $-1 $242 forward single #
loop $-1 $-1 $243 $90 #
plane-surface $-1 57.307657094027533 0 0 -1 0 0 0 0 1 forward_v I I I I #
coedge $-1 $244 $245 $246 $247 reversed $91 $-1 #
coedge $-1 $248 $93 $95 $165 forward $57 $-1 #
coedge $-1 $93 $248 $244 $249 forward $57 $-1 #
coedge $-1 $246 $96 $93 $162 forward $167 $-1 #
edge $-1 $169 -11.040807801615125 $250 -2.6511283871967724 $161 $251 forward 7 unknown #
coedge $-1 $252 $253 $94 $164 forward $156 $-1 #
edge $-1 $254 -80.826071411587463 $168 -75.262465811400403 $163 $255 forward 7 unknown #
edge $-1 $169 106.30063618587971 $254 114.61531418805507 $95 $256 forward 7 unknown #
coedge $-1 $96 $246 $252 $257 forward $167 $-1 #
loop $-1 $-1 $246 $155 #
vertex $-1 $164 $258 #
vertex $-1 $97 $259 #
straight-curve $-1 24.412247934126796 17.886775896021074 5.7798552088599422 -1 0 0 I I #
coedge $-1 $171 $171 $-1 $260 reversed $100 $-1 #
edge $-1 $261 0 $261 6.2831853071796004 $101 $262 forward 7 unknown #
vertex $-1 $104 $263 #
ellipse-curve $-1 54.218152157738146 13.691936188811898 2.9980524087664224 0.66913061440640931 0 0.74314481823134659 0.74314481823134659 0 -0.66913061440640931 1 I I #
face $-1 $-1 $264 $22 $-1 $265 reversed single #
loop $-1 $-1 $111 $105 #
plane-surface $-1 0 0 5.7798552088599475 0 0 1 1 0 0 forward_v I I I I #
coedge $-1 $266 $267 $268 $269 reversed $106 $-1 #
coedge $-1 $270 $108 $110 $185 forward $66 $-1 #
coedge $-1 $108 $270 $266 $271 forward $66 $-1 #
coedge $-1 $268 $111 $108 $182 forward $176 $-1 #
edge $-1 $188 2.6511283871967724 $272 11.040807801615125 $181 $273 forward 7 unknown #
coedge $-1 $274 $275 $109 $184 forward $264 $-1 #
edge $-1 $276 -42.479763610068979 $187 -36.916158009881926 $183 $277 forward 7 unknown #
edge $-1 $188 -8.314678002175377 $276 -1.9122463617454847e-014 $110 $278 forward 7 unknown #
coedge $-1 $111 $268 $274 $279 forward $176 $-1 #
vertex $-1 $184 $280 #
vertex $-1 $112 $281 #
straight-curve $-1 -67.000136348532237 9.4970964816027212 5.7798552088599493 1 0 0 I I #
coedge $-1 $190 $190 $-1 $282 reversed $115 $-1 #
edge $-1 $283 0 $283 6.2831853071796004 $116 $284 forward 7 unknown #
vertex $-1 $119 $285 #
ellipse-curve $-1 -54.218152157738139 13.691936188811898 2.9980524087664238 -0.66913061440640931 0 0.74314481823134659 0.74314481823134659 0 0.66913061440640931 1 I I #
face $-1 $-1 $135 $18 $-1 $286 reversed single #
loop $-1 $-1 $210 $120 #
plane-surface $-1 0 23.45194358669497 0 0 -1 0 0 0 -1 forward_v I I I I #
coedge $-1 $287 $208 $211 $288 forward $121 $-1 #
coedge $-1 $214 $123 $124 $202 reversed $75 $-1 #
coedge $-1 $208 $287 $123 $200 reversed $121 $-1 #
edge $-1 $215 -5.7798552088599475 $289 5.7798552088599475 $199 $290 forward 7 unknown #
coedge $-1 $125 $124 $287 $291 forward $49 $-1 #
edge $-1 $206 -57.307657094027533 $289 57.307657094027533 $198 $292 forward 7 unknown #
coedge $-1 $211 $210 $125 $204 reversed $195 $-1 #
edge $-1 $293 -57.307657094027533 $205 57.307657094027533 $203 $294 forward 7 unknown #
vertex $-1 $127 $295 #
vertex $-1 $217 $296 #
straight-curve $-1 57.307657094027533 0 -5.7798552088599475 0 -1 0 I I #
coedge $-1 $197 $199 $128 $209 reversed $121 $-1 #
edge $-1 $212 -23.45194358669497 $215 23.45194358669497 $208 $297 forward 7 unknown #
coedge $-1 $203 $129 $134 $218 forward $195 $-1 #
coedge $-1 $129 $203 $197 $288 reversed $195 $-1 #
vertex $-1 $130 $298 #
straight-curve $-1 0 23.45194358669497 5.7798552088599475 -1 0 0 I I #
coedge $-1 $131 $198 $133 $217 reversed $75 $-1 #
vertex $-1 $209 $299 #
straight-curve $-1 0 -23.45194358669497 5.7798552088599475 1 0 0 I I #
edge $-1 $136 -5.7798552088599475 $206 5.7798552088599475 $133 $300 forward 7 unknown #
edge $-1 $137 -5.7798552088599475 $205 5.7798552088599475 $134 $301 forward 7 unknown #
point $-1 57.307657094027533 -23.45194358669497 5.7798552088599475 #
point $-1 57.307657094027533 23.45194358669497 5.7798552088599475 #
face $-1 $-1 $235 $19 $-1 $302 reversed single #
loop $-1 $-1 $303 $139 #
plane-surface $-1 0 -27.536391064262158 -4.0472392297032709 0 1 0 0 0 1 forward_v I I I I #
coedge $-1 $304 $142 $151 $239 reversed $83 $-1 #
coedge $-1 $142 $304 $143 $227 reversed $83 $-1 #
coedge $-1 $144 $143 $305 $306 forward $53 $-1 #
edge $-1 $231 23.45194358669497 $307 27.536391064262158 $225 $308 forward 7 unknown #
coedge $-1 $309 $148 $144 $229 reversed $235 $-1 #
edge $-1 $310 -27.536391064262158 $230 -23.45194358669497 $228 $311 forward 7 unknown #
vertex $-1 $149 $312 #
vertex $-1 $227 $313 #
straight-curve $-1 0 -23.45194358669497 -5.7798552088599475 1 0 0 I I #
straight-curve $-1 57.307657094027533 -23.45194358669497 0 0 0 1 I I #
coedge $-1 $148 $309 $150 $238 reversed $235 $-1 #
loop $-1 $-1 $148 $221 #
straight-curve $-1 -57.307657094027533 -23.45194358669497 0 0 0 -1 I I #
coedge $-1 $151 $150 $314 $315 forward $140 $-1 #
edge $-1 $152 -2.0422237387835942 $316 2.0422237387835942 $234 $317 forward 7 unknown #
edge $-1 $318 -2.0422237387835942 $153 2.0422237387835942 $224 $319 forward 7 unknown #
point $-1 -57.307657094027533 -23.45194358669497 -2.3146232505465938 #
point $-1 57.307657094027533 -23.45194358669497 -2.3146232505465938 #
plane-surface $-1 0 0 5.7798552088599475 0 0 1 1 0 0 forward_v I I I I #
coedge $-1 $253 $252 $245 $320 forward $156 $-1 #
coedge $-1 $245 $158 $160 $249 reversed $91 $-1 #
coedge $-1 $158 $244 $243 $320 reversed $91 $-1 #
coedge $-1 $166 $161 $158 $247 forward $167 $-1 #
edge $-1 $250 26.716399287321948 $321 32.895409159900737 $246 $322 forward 7 unknown #
coedge $-1 $160 $159 $253 $323 reversed $57 $-1 #
edge $-1 $324 -114.61531418805507 $250 -106.30063618587971 $244 $325 forward 7 unknown #
vertex $-1 $162 $326 #
straight-curve $-1 51.128647221448752 6.8459680944059489 5.7798552088599493 0 -1 0 I I #
coedge $-1 $243 $163 $166 $257 reversed $156 $-1 #
coedge $-1 $163 $243 $248 $323 forward $156 $-1 #
vertex $-1 $164 $327 #
straight-curve $-1 57.307657094027533 17.886775896021074 81.042321020260346 0 0 1 I I #
straight-curve $-1 -27.868119734783335 17.886775896021074 76.908865211709823 0.74314481823134659 0 -0.66913061440640931 I I #
edge $-1 $321 9.4970964816027212 $168 17.886775896021074 $252 $328 forward 7 unknown #
point $-1 57.307657094027533 17.886775896021074 5.7798552088599475 #
point $-1 51.128647221448745 17.886775896021074 5.7798552088599422 #
edge $-1 $329 1 $329 0 $171 $-1 forward 7 unknown #
vertex $-1 $172 $330 #
ellipse-curve $-1 52.594550126438037 13.691936188811898 1.1948597129712617 0.66913061440640931 0 0.74314481823134659 0.74314481823134659 0 -0.66913061440640931 1 I I #
point $-1 54.961296975969482 13.691936188811898 2.3289217943600016 #
loop $-1 $-1 $183 $175 #
plane-surface $-1 -57.307657094027533 0 0 1 0 0 0 0 -1 forward_v I I I I #
coedge $-1 $267 $178 $180 $271 reversed $106 $-1 #
coedge $-1 $178 $266 $331 $332 reversed $106 $-1 #
coedge $-1 $186 $181 $178 $269 forward $176 $-1 #
edge $-1 $272 -15.871489127083485 $333 -9.692479254504704 $268 $334 forward 7 unknown #
coedge $-1 $180 $179 $275 $335 reversed $66 $-1 #
edge $-1 $336 1.9122463617454847e-014 $272 8.314678002175377 $266 $337 forward 7 unknown #
vertex $-1 $182 $338 #
straight-curve $-1 -51.128647221448752 6.8459680944059489 5.7798552088599457 0 1 0 I I #
coedge $-1 $331 $183 $186 $279 reversed $264 $-1 #
coedge $-1 $183 $331 $270 $335 forward $264 $-1 #
vertex $-1 $184 $339 #
straight-curve $-1 -57.307657094027533 9.4970964816027212 42.696013218741875 0 0 1 I I #
straight-curve $-1 -57.307657094027547 9.4970964816027212 0.21624960867288223 -0.74314481823134659 0 -0.66913061440640931 I I #
edge $-1 $333 -17.886775896021074 $187 -9.4970964816027212 $274 $340 forward 7 unknown #
point $-1 -57.307657094027533 9.4970964816027212 5.7798552088599475 #
point $-1 -51.128647221448752 9.4970964816027212 5.7798552088599484 #
edge $-1 $341 1 $341 0 $190 $-1 forward 7 unknown #
vertex $-1 $191 $342 #
ellipse-curve $-1 -52.59455012643803 13.691936188811898 1.1948597129712608 -0.66913061440640931 0 0.74314481823134659 0.74314481823134659 0 0.66913061440640931 1 I I #
point $-1 -53.475007339506782 13.691936188811898 3.6671830231728193 #
plane-surface $-1 57.307657094027533 0 0 -1 0 0 0 0 1 forward_v I I I I #
coedge $-1 $199 $197 $201 $291 reversed $121 $-1 #
edge $-1 $212 -5.7798552088599475 $293 5.7798552088599475 $211 $343 forward 7 unknown #
vertex $-1 $291 $344 #
straight-curve $-1 -57.307657094027533 -23.45194358669497 0 0 0 -1 I I #
edge $-1 $289 -23.45194358669497 $293 23.45194358669497 $287 $345 forward 7 unknown #
straight-curve $-1 0 -23.45194358669497 -5.7798552088599475 -1 0 0 I I #
vertex $-1 $204 $346 #
straight-curve $-1 0 23.45194358669497 -5.7798552088599475 1 0 0 I I #
point $-1 57.307657094027533 23.45194358669497 -5.7798552088599475 #
point $-1 57.307657094027533 -23.45194358669497 -5.7798552088599475 #
straight-curve $-1 -57.307657094027533 0 5.7798552088599475 0 -1 0 I I #
point $-1 -57.307657094027533 23.45194358669497 5.7798552088599475 #
point $-1 -57.307657094027533 -23.45194358669497 5.7798552088599475 #
straight-curve $-1 57.307657094027533 -23.45194358669497 0 0 0 -1 I I #
straight-curve $-1 57.307657094027533 23.45194358669497 0 0 0 -1 I I #
plane-surface $-1 -57.307657094027533 0 0 1 0 0 0 0 -1 forward_v I I I I #
coedge $-1 $305 $314 $309 $347 forward $222 $-1 #
coedge $-1 $225 $224 $348 $349 forward $83 $-1 #
coedge $-1 $348 $303 $226 $306 reversed $222 $-1 #
edge $-1 $307 -57.307657094027533 $310 57.307657094027533 $305 $350 forward 7 unknown #
vertex $-1 $349 $351 #
straight-curve $-1 57.307657094027533 0 -5.7798552088599475 0 -1 0 I I #
coedge $-1 $234 $228 $303 $347 reversed $235 $-1 #
vertex $-1 $229 $352 #
straight-curve $-1 -57.307657094027533 0 -5.7798552088599475 0 1 0 I I #
point $-1 -57.307657094027533 -23.45194358669497 -5.7798552088599475 #
point $-1 57.307657094027533 -23.45194358669497 -5.7798552088599475 #
coedge $-1 $303 $348 $237 $315 reversed $222 $-1 #
edge $-1 $316 -57.307657094027533 $318 57.307657094027533 $314 $353 forward 7 unknown #
vertex $-1 $238 $354 #
straight-curve $-1 -57.307657094027533 -25.494167325478564 -2.3146232505465938 0 -1 0 I I #
vertex $-1 $239 $355 #
straight-curve $-1 57.307657094027533 -25.494167325478564 -2.3146232505465938 0 1 0 I I #
edge $-1 $321 75.262465811400403 $324 80.826071411587463 $243 $356 forward 7 unknown #
vertex $-1 $257 $357 #
straight-curve $-1 24.412247934126796 9.4970964816027212 5.7798552088599422 1 0 0 I I #
edge $-1 $324 2.6511283871967724 $254 11.040807801615125 $253 $358 forward 7 unknown #
vertex $-1 $323 $359 #
straight-curve $-1 -27.868119734783335 9.4970964816027212 76.908865211709823 -0.74314481823134659 0 0.66913061440640931 I I #
point $-1 51.128647221448745 9.4970964816027212 5.7798552088599422 #
point $-1 57.307657094027533 17.886775896021074 0.21624960867288223 #
straight-curve $-1 57.307657094027533 0 5.7798552088599475 0 1 0 I I #
vertex $-1 $260 $360 #
point $-1 53.33769494466938 13.691936188811898 0.52572909856485239 #
coedge $-1 $275 $274 $267 $332 forward $264 $-1 #
edge $-1 $333 36.916158009881926 $336 42.479763610068979 $331 $361 forward 7 unknown #
vertex $-1 $279 $362 #
straight-curve $-1 -67.000136348532237 17.886775896021074 5.7798552088599493 -1 0 0 I I #
edge $-1 $336 -11.040807801615125 $276 -2.6511283871967724 $275 $363 forward 7 unknown #
vertex $-1 $335 $364 #
straight-curve $-1 -57.307657094027547 17.886775896021074 0.21624960867288223 0.74314481823134659 0 0.66913061440640931 I I #
point $-1 -51.128647221448752 17.886775896021074 5.7798552088599484 #
point $-1 -57.307657094027533 9.4970964816027212 0.21624960867289503 #
straight-curve $-1 -57.307657094027533 0 5.7798552088599475 0 -1 0 I I #
vertex $-1 $282 $365 #
point $-1 -51.851405308206679 13.691936188811898 1.8639903273776701 #
straight-curve $-1 -57.307657094027533 23.45194358669497 0 0 0 -1 I I #
point $-1 -57.307657094027533 -23.45194358669497 -5.7798552088599475 #
straight-curve $-1 -57.307657094027533 0 -5.7798552088599475 0 1 0 I I #
point $-1 -57.307657094027533 23.45194358669497 -5.7798552088599475 #
edge $-1 $316 -1.7326159791566771 $310 1.7326159791566766 $309 $366 forward 7 unknown #
coedge $-1 $314 $305 $304 $349 reversed $222 $-1 #
edge $-1 $318 -1.7326159791566771 $307 1.7326159791566766 $304 $367 forward 7 unknown #
straight-curve $-1 0 -27.536391064262158 -5.7798552088599475 -1 0 0 I I #
point $-1 57.307657094027533 -27.536391064262158 -5.7798552088599475 #
point $-1 -57.307657094027533 -27.536391064262158 -5.7798552088599475 #
straight-curve $-1 0 -27.536391064262158 -2.3146232505465938 1 0 0 I I #
point $-1 -57.307657094027533 -27.536391064262158 -2.3146232505465938 #
point $-1 57.307657094027533 -27.536391064262158 -2.3146232505465938 #
straight-curve $-1 57.307657094027533 9.4970964816027212 81.042321020260346 0 0 -1 I I #
point $-1 57.307657094027533 9.4970964816027212 5.7798552088599475 #
straight-curve $-1 57.307657094027526 6.8459680944059489 0.21624960867289644 0 1 0 I I #
point $-1 57.307657094027533 9.4970964816027212 0.21624960867288223 #
point $-1 51.925419512031624 13.691936188811898 0.45171489473991505 #
straight-curve $-1 -57.307657094027533 17.886775896021074 42.696013218741875 0 0 -1 I I #
point $-1 -57.307657094027533 17.886775896021074 5.7798552088599475 #
straight-curve $-1 -57.307657094027533 6.8459680944059489 0.21624960867289336 0 -1 0 I I #
point $-1 -57.307657094027533 17.886775896021074 0.21624960867289503 #
point $-1 -51.925419512031617 13.691936188811898 0.45171489473991416 #
straight-curve $-1 -57.307657094027533 -27.536391064262158 -4.0472392297032709 0 0 -1 I I #
straight-curve $-1 57.307657094027533 -27.536391064262158 -4.0472392297032709 0 0 -1 I I #
End-of-ACIS-data 