500 0 5 0           
7 Unknown 11 ACIS 5.0 NT 24 Fri Mar 26 14:59:44 1999 
-1 9.9999999999999995e-007 1e-010 
body $-1 $5 $-1 $6 #
body $-1 $7 $-1 $8 #
body $-1 $9 $-1 $10 #
body $-1 $11 $-1 $12 #
body $-1 $13 $-1 $14 #
lump $-1 $-1 $15 $0 #
transform $-1 1 0 0 0 1 0 0 0 1 56.731467635120701 26.129509457761714 8.36603624449201 1 rotate no_reflect no_shear #
lump $-1 $-1 $16 $1 #
transform $-1 1 0 0 0 1 0 0 0 1 56.731467635120701 26.129509457761714 8.36603624449201 1 rotate no_reflect no_shear #
lump $-1 $-1 $17 $2 #
transform $-1 1 0 0 0 1 0 0 0 1 56.731467635120701 26.129509457761714 8.36603624449201 1 rotate no_reflect no_shear #
lump $-1 $-1 $18 $3 #
transform $-1 1 0 0 0 1 0 0 0 1 56.731467635120701 26.129509457761714 8.36603624449201 1 rotate no_reflect no_shear #
lump $-1 $-1 $19 $4 #
transform $-1 1 0 0 0 1 0 0 0 1 56.731467635120701 26.129509457761714 8.36603624449201 1 rotate no_reflect no_shear #
shell $-1 $-1 $-1 $20 $-1 $5 #
shell $-1 $-1 $-1 $21 $-1 $7 #
shell $-1 $-1 $-1 $22 $-1 $9 #
shell $-1 $-1 $-1 $23 $-1 $11 #
shell $-1 $-1 $-1 $24 $-1 $13 #
face $-1 $25 $26 $15 $-1 $27 forward single #
face $-1 $28 $29 $16 $-1 $30 reversed single #
face $-1 $31 $32 $17 $-1 $33 forward single #
face $-1 $34 $35 $18 $-1 $36 forward single #
face $-1 $37 $38 $19 $-1 $39 forward single #
face $-1 $40 $41 $15 $-1 $42 reversed single #
loop $-1 $-1 $43 $20 #
plane-surface $-1 0 0 8.36603624449201 0 0 1 1 0 0 forward_v I I I I #
face $-1 $44 $45 $16 $-1 $46 reversed single #
loop $-1 $-1 $47 $21 #
plane-surface $-1 92.82730103731646 16.623408624358024 160.12427799887487 0 -1 0 -0.84804810408105047 0 -0.52991925155115449 forward_v I I I I #
face $-1 $48 $49 $17 $-1 $50 forward single #
loop $-1 $51 $52 $22 #
cone-surface $-1 53.80232183655869 6.1049764764519097 5.1368187893315493 -0.84804810408105047 0 -0.52991925155115449 0.52991925155115449 0 -0.84804810408105047 1 I I 0 1 1 forward I I I I #
face $-1 $53 $54 $18 $-1 $55 forward single #
loop $-1 $56 $57 $23 #
cone-surface $-1 53.80232183655869 10.049388531916698 5.1368187893315493 -0.84804810408105047 0 -0.52991925155115449 0.52991925155115449 0 -0.84804810408105047 1 I I 0 1 1 forward I I I I #
face $-1 $58 $59 $19 $-1 $60 forward single #
loop $-1 $61 $62 $24 #
cone-surface $-1 53.80232183655869 13.993800587381486 5.1368187893315493 -0.84804810408105047 0 -0.52991925155115449 0.52991925155115449 0 -0.84804810408105047 1 I I 0 1 1 forward I I I I #
face $-1 $63 $64 $15 $-1 $65 reversed single #
loop $-1 $-1 $66 $25 #
plane-surface $-1 0 0 -8.36603624449201 0 0 1 1 0 0 forward_v I I I I #
coedge $-1 $67 $68 $69 $70 forward $26 $-1 #
face $-1 $71 $72 $16 $-1 $73 reversed single #
loop $-1 $-1 $74 $28 #
plane-surface $-1 -3.3947261020827142 10.049388531916705 99.998084261671465 0.84804810408105047 0 0.52991925155115449 0.52991925155115449 0 -0.84804810408105047 forward_v I I I I #
coedge $-1 $75 $76 $77 $78 reversed $29 $-1 #
face $-1 $-1 $79 $17 $-1 $80 forward single #
loop $-1 $81 $82 $31 #
cone-surface $-1 51.883220577924639 6.1049764764519097 3.9376312695053866 -0.84804810408105047 0 -0.52991925155115449 0.26495962577557725 0 -0.42402405204052523 1 I I -0.70710678118654779 0.70710678118654713 0.5 forward I I I I #
loop $-1 $-1 $83 $22 #
coedge $-1 $52 $52 $84 $85 reversed $32 $-1 #
face $-1 $-1 $86 $18 $-1 $87 forward single #
loop $-1 $88 $89 $34 #
cone-surface $-1 51.883220577924639 10.049388531916698 3.9376312695053866 -0.84804810408105047 0 -0.52991925155115449 0.26495962577557725 0 -0.42402405204052523 1 I I -0.70710678118654779 0.70710678118654713 0.5 forward I I I I #
loop $-1 $-1 $90 $23 #
coedge $-1 $57 $57 $91 $92 reversed $35 $-1 #
face $-1 $-1 $93 $19 $-1 $94 forward single #
loop $-1 $95 $96 $37 #
cone-surface $-1 51.883220577924639 13.993800587381486 3.9376312695053866 -0.84804810408105047 0 -0.52991925155115449 0.26495962577557725 0 -0.42402405204052523 1 I I -0.70710678118654779 0.70710678118654713 0.5 forward I I I I #
loop $-1 $-1 $97 $24 #
coedge $-1 $62 $62 $98 $99 reversed $38 $-1 #
face $-1 $100 $101 $15 $-1 $102 reversed single #
loop $-1 $-1 $103 $40 #
plane-surface $-1 0 -26.129509457761714 0 0 1 0 0 0 1 forward_v I I I I #
coedge $-1 $104 $105 $106 $107 forward $41 $-1 #
coedge $-1 $108 $43 $109 $110 forward $26 $-1 #
coedge $-1 $43 $108 $111 $112 forward $26 $-1 #
coedge $-1 $113 $114 $43 $70 reversed $115 $-1 #
edge $-1 $116 -26.129509457761714 $117 26.129509457761714 $69 $118 forward 7 unknown #
face $-1 $119 $120 $16 $-1 $121 forward single #
loop $-1 $-1 $122 $44 #
plane-surface $-1 92.82730103731646 3.4753684394753854 160.12427799887487 0 1 0 0.84804810408105047 0 0.52991925155115449 forward_v I I I I #
coedge $-1 $123 $124 $125 $126 reversed $45 $-1 #
coedge $-1 $76 $47 $127 $128 reversed $29 $-1 #
coedge $-1 $47 $75 $123 $129 reversed $29 $-1 #
coedge $-1 $125 $130 $47 $78 forward $120 $-1 #
edge $-1 $131 -10.317817116462471 $132 -7.4496799325255125 $77 $133 forward 7 unknown #
loop $-1 $-1 $84 $48 #
plane-surface $-1 -3.3947261020827142 10.049388531916705 99.998084261671465 0.84804810408105047 0 0.52991925155115449 0.52991925155115449 0 -0.84804810408105047 forward_v I I I I #
loop $-1 $-1 $134 $31 #
coedge $-1 $82 $82 $83 $135 reversed $49 $-1 #
coedge $-1 $83 $83 $82 $135 forward $51 $-1 #
coedge $-1 $84 $84 $52 $85 forward $79 $-1 #
edge $-1 $136 0 $136 6.2831853071796004 $84 $137 forward 7 unknown #
loop $-1 $-1 $91 $53 #
plane-surface $-1 -3.3947261020827142 10.049388531916705 99.998084261671465 0.84804810408105047 0 0.52991925155115449 0.52991925155115449 0 -0.84804810408105047 forward_v I I I I #
loop $-1 $-1 $138 $34 #
coedge $-1 $89 $89 $90 $139 reversed $54 $-1 #
coedge $-1 $90 $90 $89 $139 forward $56 $-1 #
coedge $-1 $91 $91 $57 $92 forward $86 $-1 #
edge $-1 $140 0 $140 6.2831853071796004 $91 $141 forward 7 unknown #
loop $-1 $-1 $98 $58 #
plane-surface $-1 -3.3947261020827142 10.049388531916705 99.998084261671465 0.84804810408105047 0 0.52991925155115449 0.52991925155115449 0 -0.84804810408105047 forward_v I I I I #
loop $-1 $-1 $142 $37 #
coedge $-1 $96 $96 $97 $143 reversed $59 $-1 #
coedge $-1 $97 $97 $96 $143 forward $61 $-1 #
coedge $-1 $98 $98 $62 $99 forward $93 $-1 #
edge $-1 $144 0 $144 6.2831853071796004 $98 $145 forward 7 unknown #
face $-1 $146 $147 $15 $-1 $148 reversed single #
loop $-1 $-1 $149 $63 #
plane-surface $-1 -56.731467635120701 0 0 1 0 0 0 0 -1 forward_v I I I I #
coedge $-1 $150 $111 $151 $152 forward $64 $-1 #
coedge $-1 $153 $66 $150 $154 forward $41 $-1 #
coedge $-1 $66 $153 $155 $156 forward $41 $-1 #
coedge $-1 $114 $113 $66 $107 reversed $115 $-1 #
edge $-1 $157 -26.129509457761714 $158 26.129509457761714 $106 $159 forward 7 unknown #
coedge $-1 $68 $67 $160 $161 forward $26 $-1 #
coedge $-1 $162 $163 $67 $110 reversed $147 $-1 #
edge $-1 $117 -56.731467635120701 $164 56.731467635120701 $109 $165 forward 7 unknown #
coedge $-1 $103 $166 $68 $112 reversed $64 $-1 #
edge $-1 $167 -56.731467635120701 $116 56.731467635120701 $111 $168 forward 7 unknown #
coedge $-1 $106 $69 $166 $169 forward $115 $-1 #
coedge $-1 $69 $106 $162 $170 reversed $115 $-1 #
loop $-1 $-1 $113 $146 #
vertex $-1 $70 $171 #
vertex $-1 $70 $172 #
straight-curve $-1 56.731467635120701 0 8.36603624449201 0 1 0 I I #
face $-1 $-1 $173 $16 $-1 $174 reversed single #
loop $-1 $-1 $77 $71 #
plane-surface $-1 0 0 8.36603624449201 0 0 1 1 0 0 forward_v I I I I #
coedge $-1 $175 $176 $177 $178 reversed $72 $-1 #
coedge $-1 $179 $74 $76 $129 forward $45 $-1 #
coedge $-1 $74 $179 $175 $180 forward $45 $-1 #
coedge $-1 $177 $77 $74 $126 forward $120 $-1 #
edge $-1 $132 -11.598714358399672 $181 1.549325826482967 $125 $182 forward 7 unknown #
coedge $-1 $183 $184 $75 $128 forward $173 $-1 #
edge $-1 $185 -76.286081877165145 $131 -71.696102754945429 $127 $186 forward 7 unknown #
edge $-1 $132 108.05053106801346 $185 113.46293527024139 $76 $187 forward 7 unknown #
coedge $-1 $77 $177 $183 $188 forward $120 $-1 #
vertex $-1 $128 $189 #
vertex $-1 $78 $190 #
straight-curve $-1 46.41365051865823 16.623408624358024 8.3660362444920082 -1 0 0 I I #
coedge $-1 $134 $134 $-1 $191 reversed $81 $-1 #
edge $-1 $192 0 $192 6.2831853071796004 $82 $193 forward 7 unknown #
vertex $-1 $85 $194 #
ellipse-curve $-1 55.297399043152218 6.1049764764519097 6.0710466833821384 0.84804810408105047 0 0.52991925155115449 0.52991925155115449 0 -0.84804810408105047 1 I I #
coedge $-1 $138 $138 $-1 $195 reversed $88 $-1 #
edge $-1 $196 0 $196 6.2831853071796004 $89 $197 forward 7 unknown #
vertex $-1 $92 $198 #
ellipse-curve $-1 55.297399043152218 10.049388531916698 6.0710466833821384 0.84804810408105047 0 0.52991925155115449 0.52991925155115449 0 -0.84804810408105047 1 I I #
coedge $-1 $142 $142 $-1 $199 reversed $95 $-1 #
edge $-1 $200 0 $200 6.2831853071796004 $96 $201 forward 7 unknown #
vertex $-1 $99 $202 #
ellipse-curve $-1 55.297399043152218 13.993800587381486 6.0710466833821384 0.84804810408105047 0 0.52991925155115449 0.52991925155115449 0 -0.84804810408105047 1 I I #
face $-1 $-1 $115 $15 $-1 $203 reversed single #
loop $-1 $-1 $162 $100 #
plane-surface $-1 0 26.129509457761714 0 0 -1 0 0 0 -1 forward_v I I I I #
coedge $-1 $204 $160 $163 $205 forward $101 $-1 #
coedge $-1 $166 $103 $104 $154 reversed $64 $-1 #
coedge $-1 $160 $204 $103 $152 reversed $101 $-1 #
edge $-1 $167 -8.36603624449201 $206 8.36603624449201 $151 $207 forward 7 unknown #
coedge $-1 $105 $104 $204 $208 forward $41 $-1 #
edge $-1 $158 -56.731467635120701 $206 56.731467635120701 $150 $209 forward 7 unknown #
coedge $-1 $163 $162 $105 $156 reversed $147 $-1 #
edge $-1 $210 -56.731467635120701 $157 56.731467635120701 $155 $211 forward 7 unknown #
vertex $-1 $107 $212 #
vertex $-1 $169 $213 #
straight-curve $-1 56.731467635120701 0 -8.36603624449201 0 -1 0 I I #
coedge $-1 $149 $151 $108 $161 reversed $101 $-1 #
edge $-1 $164 -26.129509457761714 $167 26.129509457761714 $160 $214 forward 7 unknown #
coedge $-1 $155 $109 $114 $170 forward $147 $-1 #
coedge $-1 $109 $155 $149 $205 reversed $147 $-1 #
vertex $-1 $110 $215 #
straight-curve $-1 0 26.129509457761714 8.36603624449201 -1 0 0 I I #
coedge $-1 $111 $150 $113 $169 reversed $64 $-1 #
vertex $-1 $161 $216 #
straight-curve $-1 0 -26.129509457761714 8.36603624449201 1 0 0 I I #
edge $-1 $116 -8.36603624449201 $158 8.36603624449201 $113 $217 forward 7 unknown #
edge $-1 $117 -8.36603624449201 $157 8.36603624449201 $114 $218 forward 7 unknown #
point $-1 56.731467635120701 -26.129509457761714 8.36603624449201 #
point $-1 56.731467635120701 26.129509457761714 8.36603624449201 #
loop $-1 $-1 $127 $119 #
plane-surface $-1 56.731467635120701 0 0 -1 0 0 0 0 1 forward_v I I I I #
coedge $-1 $176 $122 $124 $180 reversed $72 $-1 #
coedge $-1 $122 $175 $219 $220 reversed $72 $-1 #
coedge $-1 $130 $125 $122 $178 forward $120 $-1 #
edge $-1 $181 7.4496799325255125 $221 10.317817116462471 $177 $222 forward 7 unknown #
coedge $-1 $124 $123 $184 $223 reversed $45 $-1 #
edge $-1 $224 -113.46293527024139 $181 -108.05053106801346 $175 $225 forward 7 unknown #
vertex $-1 $126 $226 #
straight-curve $-1 53.863330451183742 5.0246942659583524 8.3660362444920153 0 -1 0 I I #
coedge $-1 $219 $127 $130 $188 reversed $173 $-1 #
coedge $-1 $127 $219 $179 $223 forward $173 $-1 #
vertex $-1 $128 $227 #
straight-curve $-1 56.731467635120701 16.623408624358024 80.062138999437437 0 0 1 I I #
straight-curve $-1 -3.3947261020827142 16.623408624358024 99.998084261671465 0.52991925155115449 0 -0.84804810408105047 I I #
edge $-1 $221 3.4753684394753854 $131 16.623408624358024 $183 $228 forward 7 unknown #
point $-1 56.731467635120701 16.623408624358024 8.36603624449201 #
point $-1 53.863330451183742 16.623408624358024 8.3660362444920082 #
edge $-1 $229 1 $229 0 $134 $-1 forward 7 unknown #
vertex $-1 $135 $230 #
ellipse-curve $-1 52.307244629965162 6.1049764764519097 4.2025908952809639 0.84804810408105047 0 0.52991925155115449 0.52991925155115449 0 -0.84804810408105047 1 I I #
point $-1 55.827318294703367 6.1049764764519097 5.2229985793010849 #
edge $-1 $231 1 $231 0 $138 $-1 forward 7 unknown #
vertex $-1 $139 $232 #
ellipse-curve $-1 52.307244629965162 10.049388531916698 4.2025908952809639 0.84804810408105047 0 0.52991925155115449 0.52991925155115449 0 -0.84804810408105047 1 I I #
point $-1 55.827318294703367 10.049388531916698 5.2229985793010849 #
edge $-1 $233 1 $233 0 $142 $-1 forward 7 unknown #
vertex $-1 $143 $234 #
ellipse-curve $-1 52.307244629965162 13.993800587381486 4.2025908952809639 0.84804810408105047 0 0.52991925155115449 0.52991925155115449 0 -0.84804810408105047 1 I I #
point $-1 55.827318294703367 13.993800587381486 5.2229985793010849 #
plane-surface $-1 56.731467635120701 0 0 -1 0 0 0 0 1 forward_v I I I I #
coedge $-1 $151 $149 $153 $208 reversed $101 $-1 #
edge $-1 $164 -8.36603624449201 $210 8.36603624449201 $163 $235 forward 7 unknown #
vertex $-1 $208 $236 #
straight-curve $-1 -56.731467635120701 -26.129509457761714 0 0 0 -1 I I #
edge $-1 $206 -26.129509457761714 $210 26.129509457761714 $204 $237 forward 7 unknown #
straight-curve $-1 0 -26.129509457761714 -8.36603624449201 -1 0 0 I I #
vertex $-1 $156 $238 #
straight-curve $-1 0 26.129509457761714 -8.36603624449201 1 0 0 I I #
point $-1 56.731467635120701 26.129509457761714 -8.36603624449201 #
point $-1 56.731467635120701 -26.129509457761714 -8.36603624449201 #
straight-curve $-1 -56.731467635120701 0 8.36603624449201 0 -1 0 I I #
point $-1 -56.731467635120701 26.129509457761714 8.36603624449201 #
point $-1 -56.731467635120701 -26.129509457761714 8.36603624449201 #
straight-curve $-1 56.731467635120701 -26.129509457761714 0 0 0 -1 I I #
straight-curve $-1 56.731467635120701 26.129509457761714 0 0 0 -1 I I #
coedge $-1 $184 $183 $176 $220 forward $173 $-1 #
edge $-1 $221 71.696102754945429 $224 76.286081877165145 $219 $239 forward 7 unknown #
vertex $-1 $188 $240 #
straight-curve $-1 46.41365051865823 3.4753684394753854 8.3660362444920082 1 0 0 I I #
edge $-1 $224 -1.549325826482967 $185 11.598714358399672 $184 $241 forward 7 unknown #
vertex $-1 $223 $242 #
straight-curve $-1 -3.3947261020827142 3.4753684394753854 99.998084261671465 -0.52991925155115449 0 0.84804810408105047 I I #
point $-1 53.863330451183742 3.4753684394753854 8.3660362444920082 #
point $-1 56.731467635120701 16.623408624358024 3.7760571222722916 #
straight-curve $-1 56.731467635120701 0 8.36603624449201 0 1 0 I I #
vertex $-1 $191 $243 #
point $-1 52.837163881516318 6.1049764764519097 3.3545427911999131 #
vertex $-1 $195 $244 #
point $-1 52.837163881516318 10.049388531916698 3.3545427911999131 #
vertex $-1 $199 $245 #
point $-1 52.837163881516318 13.993800587381486 3.3545427911999131 #
straight-curve $-1 -56.731467635120701 26.129509457761714 0 0 0 -1 I I #
point $-1 -56.731467635120701 -26.129509457761714 -8.36603624449201 #
straight-curve $-1 -56.731467635120701 0 -8.36603624449201 0 1 0 I I #
point $-1 -56.731467635120701 26.129509457761714 -8.36603624449201 #
straight-curve $-1 56.731467635120701 3.4753684394753854 80.062138999437437 0 0 -1 I I #
point $-1 56.731467635120701 3.4753684394753854 8.36603624449201 #
straight-curve $-1 56.731467635120701 5.0246942659583524 3.7760571222722916 0 1 0 I I #
point $-1 56.731467635120701 3.4753684394753854 3.7760571222722916 #
point $-1 51.459196525884117 6.1049764764519097 3.6726716437298097 #
point $-1 51.459196525884117 10.049388531916698 3.6726716437298097 #
point $-1 51.459196525884117 13.993800587381486 3.6726716437298097 #
End-of-ACIS-data 