500 0 5 0           
7 Unknown 11 ACIS 5.0 NT 24 Fri Mar 26 18:41:27 1999 
-1 9.9999999999999995e-007 1e-010 
body $-1 $5 $-1 $6 #
body $-1 $7 $-1 $8 #
body $-1 $9 $-1 $10 #
body $-1 $11 $-1 $12 #
body $-1 $13 $-1 $14 #
lump $-1 $-1 $15 $0 #
transform $-1 1 0 0 0 1 0 0 0 1 54.171575060274051 33.951840827137794 10.237671074814669 1 rotate no_reflect no_shear #
lump $-1 $-1 $16 $1 #
transform $-1 1 0 0 0 1 0 0 0 1 54.171575060274051 33.951840827137794 10.237671074814669 1 rotate no_reflect no_shear #
lump $-1 $-1 $17 $2 #
transform $-1 1 0 0 0 1 0 0 0 1 54.171575060274051 33.951840827137794 10.237671074814669 1 rotate no_reflect no_shear #
lump $-1 $-1 $18 $3 #
transform $-1 1 0 0 0 1 0 0 0 1 54.171575060274051 33.951840827137794 10.237671074814669 1 rotate no_reflect no_shear #
lump $-1 $-1 $19 $4 #
transform $-1 1 0 0 0 1 0 0 0 1 54.171575060274051 33.951840827137794 10.237671074814669 1 rotate no_reflect no_shear #
shell $-1 $-1 $-1 $20 $-1 $5 #
shell $-1 $-1 $-1 $21 $-1 $7 #
shell $-1 $-1 $-1 $22 $-1 $9 #
shell $-1 $-1 $-1 $23 $-1 $11 #
shell $-1 $-1 $-1 $24 $-1 $13 #
face $-1 $25 $26 $15 $-1 $27 forward single #
face $-1 $28 $29 $16 $-1 $30 forward single #
face $-1 $31 $32 $17 $-1 $33 forward single #
face $-1 $34 $35 $18 $-1 $36 reversed single #
face $-1 $37 $38 $19 $-1 $39 forward single #
face $-1 $40 $41 $15 $-1 $42 reversed single #
loop $-1 $-1 $43 $20 #
plane-surface $-1 0 0 10.237671074814669 0 0 1 1 0 0 forward_v I I I I #
face $-1 $44 $45 $16 $-1 $46 reversed single #
loop $-1 $-1 $47 $21 #
plane-surface $-1 -54.171575060274051 0 0 1 0 0 0 0 -1 forward_v I I I I #
face $-1 $48 $49 $17 $-1 $50 reversed single #
loop $-1 $-1 $51 $22 #
plane-surface $-1 54.171575060274051 0 0 -1 0 0 0 0 1 forward_v I I I I #
face $-1 $52 $53 $18 $-1 $54 reversed single #
loop $-1 $-1 $55 $23 #
plane-surface $-1 -22.958835734125731 -89.752689037199289 94.077539152097913 -1 0 0 0 -0.51503808176128008 0.85716729658548041 forward_v I I I I #
face $-1 $56 $57 $19 $-1 $58 forward single #
loop $-1 $59 $60 $24 #
cone-surface $-1 -34.613202538890519 -23.619960456666796 1.0318280936985973 0 0.51503808176128008 -0.85716729658548041 3 0 0 1 I I 0 1 3 forward I I I I #
face $-1 $61 $62 $15 $-1 $63 reversed single #
loop $-1 $-1 $64 $25 #
plane-surface $-1 0 0 -10.237671074814669 0 0 1 1 0 0 forward_v I I I I #
coedge $-1 $65 $66 $67 $68 forward $26 $-1 #
face $-1 $69 $70 $16 $-1 $71 forward single #
loop $-1 $-1 $72 $28 #
plane-surface $-1 0 33.951840827137794 0 0 -1 0 0 0 -1 forward_v I I I I #
coedge $-1 $73 $74 $75 $76 forward $29 $-1 #
face $-1 $77 $78 $17 $-1 $79 forward single #
loop $-1 $-1 $80 $31 #
plane-surface $-1 0 -33.951840827137794 0 0 1 0 0 0 1 forward_v I I I I #
coedge $-1 $81 $82 $83 $84 forward $32 $-1 #
face $-1 $85 $86 $18 $-1 $87 reversed single #
loop $-1 $-1 $88 $34 #
plane-surface $-1 -34.613202538890519 -33.951840827137794 1.2093340597128304 0 -0.51503808176128008 0.85716729658548041 1 0 0 forward_v I I I I #
coedge $-1 $89 $90 $91 $92 reversed $35 $-1 #
face $-1 $-1 $93 $19 $-1 $94 forward single #
loop $-1 $95 $96 $37 #
cone-surface $-1 -34.613202538890519 -20.028360854524042 -4.9455973247447753 0 0.51503808176128008 -0.85716729658548041 1.5 0 0 1 I I -0.70710678118654757 0.70710678118654757 1.5 forward I I I I #
loop $-1 $-1 $97 $24 #
coedge $-1 $60 $60 $98 $99 reversed $38 $-1 #
face $-1 $100 $101 $15 $-1 $102 reversed single #
loop $-1 $-1 $103 $40 #
plane-surface $-1 0 -33.951840827137794 0 0 1 0 0 0 1 forward_v I I I I #
coedge $-1 $104 $105 $106 $107 forward $41 $-1 #
coedge $-1 $108 $43 $109 $110 forward $26 $-1 #
coedge $-1 $43 $108 $111 $112 forward $26 $-1 #
coedge $-1 $113 $114 $43 $68 reversed $115 $-1 #
edge $-1 $116 -33.951840827137794 $117 33.951840827137794 $67 $118 forward 7 unknown #
face $-1 $119 $120 $16 $-1 $121 reversed single #
loop $-1 $-1 $75 $44 #
plane-surface $-1 -58.123577918583422 0 -6.1259449451524279 0 0 1 1 0 0 forward_v I I I I #
coedge $-1 $122 $123 $74 $124 forward $45 $-1 #
coedge $-1 $125 $47 $126 $127 reversed $29 $-1 #
coedge $-1 $47 $125 $72 $124 reversed $29 $-1 #
coedge $-1 $128 $129 $47 $76 reversed $70 $-1 #
edge $-1 $130 -33.951840827137794 $131 33.951840827137794 $75 $132 forward 7 unknown #
face $-1 $133 $134 $17 $-1 $135 reversed single #
loop $-1 $-1 $136 $48 #
plane-surface $-1 58.123577918583422 0 -6.1259449451524279 0 0 1 1 0 0 forward_v I I I I #
coedge $-1 $137 $138 $82 $139 forward $49 $-1 #
coedge $-1 $140 $51 $141 $142 reversed $32 $-1 #
coedge $-1 $51 $140 $80 $139 reversed $32 $-1 #
coedge $-1 $143 $144 $51 $84 reversed $78 $-1 #
edge $-1 $145 -33.951840827137794 $146 33.951840827137794 $83 $147 forward 7 unknown #
face $-1 $148 $149 $18 $-1 $150 forward single #
loop $-1 $-1 $151 $52 #
plane-surface $-1 -46.26756934365531 -89.752689037199289 94.077539152097913 1 0 0 0 0.51503808176128008 -0.85716729658548041 forward_v I I I I #
coedge $-1 $152 $153 $154 $155 reversed $53 $-1 #
coedge $-1 $90 $55 $156 $157 reversed $35 $-1 #
coedge $-1 $55 $89 $152 $158 reversed $35 $-1 #
coedge $-1 $154 $159 $55 $92 forward $149 $-1 #
edge $-1 $160 10.924503691461851 $161 25.95017947340218 $91 $162 forward 7 unknown #
loop $-1 $-1 $98 $56 #
plane-surface $-1 -34.613202538890519 -33.951840827137794 1.2093340597128304 0 -0.51503808176128008 0.85716729658548041 1 0 0 forward_v I I I I #
loop $-1 $-1 $163 $37 #
coedge $-1 $96 $96 $97 $164 reversed $57 $-1 #
coedge $-1 $97 $97 $96 $164 forward $59 $-1 #
coedge $-1 $98 $98 $60 $99 forward $93 $-1 #
edge $-1 $165 0 $165 6.2831853071796004 $98 $166 forward 7 unknown #
face $-1 $167 $168 $15 $-1 $169 reversed single #
loop $-1 $-1 $170 $61 #
plane-surface $-1 -54.171575060274051 0 0 1 0 0 0 0 -1 forward_v I I I I #
coedge $-1 $171 $111 $172 $173 forward $62 $-1 #
coedge $-1 $174 $64 $171 $175 forward $41 $-1 #
coedge $-1 $64 $174 $176 $177 forward $41 $-1 #
coedge $-1 $114 $113 $64 $107 reversed $115 $-1 #
edge $-1 $178 -33.951840827137794 $179 33.951840827137794 $106 $180 forward 7 unknown #
coedge $-1 $66 $65 $181 $182 forward $26 $-1 #
coedge $-1 $183 $184 $65 $110 reversed $168 $-1 #
edge $-1 $117 -54.171575060274051 $185 54.171575060274051 $109 $186 forward 7 unknown #
coedge $-1 $103 $187 $66 $112 reversed $62 $-1 #
edge $-1 $188 -54.171575060274051 $116 54.171575060274051 $111 $189 forward 7 unknown #
coedge $-1 $106 $67 $187 $190 forward $115 $-1 #
coedge $-1 $67 $106 $183 $191 reversed $115 $-1 #
loop $-1 $-1 $113 $167 #
vertex $-1 $68 $192 #
vertex $-1 $68 $193 #
straight-curve $-1 54.171575060274051 0 10.237671074814669 0 1 0 I I #
face $-1 $194 $195 $16 $-1 $196 reversed single #
loop $-1 $-1 $197 $69 #
plane-surface $-1 -58.123577918583422 0 -9.7376710748146689 0 0 1 1 0 0 forward_v I I I I #
coedge $-1 $198 $72 $199 $200 reversed $45 $-1 #
coedge $-1 $72 $198 $128 $201 reversed $45 $-1 #
edge $-1 $130 6.1259449451524279 $202 9.7376710748146689 $72 $203 forward 7 unknown #
coedge $-1 $74 $73 $197 $204 forward $29 $-1 #
coedge $-1 $205 $206 $73 $127 forward $207 $-1 #
edge $-1 $208 -9.7376710748146689 $131 -6.1259449451524279 $126 $209 forward 7 unknown #
coedge $-1 $210 $75 $123 $201 forward $70 $-1 #
coedge $-1 $75 $210 $205 $211 forward $70 $-1 #
vertex $-1 $124 $212 #
vertex $-1 $211 $213 #
straight-curve $-1 -54.171575060274051 0 -6.1259449451524279 0 -1 0 I I #
face $-1 $214 $215 $17 $-1 $216 reversed single #
loop $-1 $-1 $217 $77 #
plane-surface $-1 58.123577918583422 0 -9.7376710748146689 0 0 1 1 0 0 forward_v I I I I #
coedge $-1 $144 $143 $218 $219 forward $78 $-1 #
coedge $-1 $220 $80 $221 $222 reversed $49 $-1 #
coedge $-1 $80 $220 $143 $223 reversed $49 $-1 #
edge $-1 $145 6.1259449451524279 $224 9.7376710748146689 $80 $225 forward 7 unknown #
coedge $-1 $82 $81 $226 $227 forward $32 $-1 #
coedge $-1 $228 $229 $81 $142 forward $230 $-1 #
edge $-1 $231 -9.7376710748146689 $146 -6.1259449451524279 $141 $232 forward 7 unknown #
coedge $-1 $136 $83 $138 $223 forward $78 $-1 #
coedge $-1 $83 $136 $228 $233 forward $78 $-1 #
vertex $-1 $139 $234 #
vertex $-1 $233 $235 #
straight-curve $-1 54.171575060274051 0 -6.1259449451524279 0 1 0 I I #
face $-1 $-1 $236 $18 $-1 $237 reversed single #
loop $-1 $-1 $91 $85 #
plane-surface $-1 0 0 10.237671074814669 0 0 1 1 0 0 forward_v I I I I #
coedge $-1 $238 $239 $240 $241 reversed $86 $-1 #
coedge $-1 $242 $88 $90 $158 forward $53 $-1 #
coedge $-1 $88 $242 $238 $243 forward $53 $-1 #
coedge $-1 $240 $91 $88 $155 forward $149 $-1 #
edge $-1 $161 5.6522344646804719 $244 28.960968074210051 $154 $245 forward 7 unknown #
coedge $-1 $246 $247 $89 $157 forward $236 $-1 #
edge $-1 $248 -45.829435516336126 $160 -36.801098501234286 $156 $249 forward 7 unknown #
edge $-1 $161 -17.529455267128128 $248 0 $90 $250 forward 7 unknown #
coedge $-1 $91 $240 $246 $251 forward $149 $-1 #
vertex $-1 $157 $252 #
vertex $-1 $92 $253 #
straight-curve $-1 -22.958835734125731 -44.876344518599645 10.237671074814671 0 1 0 I I #
coedge $-1 $163 $163 $-1 $254 reversed $95 $-1 #
edge $-1 $255 0 $255 6.2831853071796004 $96 $256 forward 7 unknown #
vertex $-1 $99 $257 #
ellipse-curve $-1 -34.613202538890519 -26.439002936167629 5.7235025672637496 0 -0.51503808176128008 0.85716729658548041 3 0 0 1 I I #
face $-1 $-1 $115 $15 $-1 $258 reversed single #
loop $-1 $-1 $183 $100 #
plane-surface $-1 0 33.951840827137794 0 0 -1 0 0 0 -1 forward_v I I I I #
coedge $-1 $259 $181 $184 $260 forward $101 $-1 #
coedge $-1 $187 $103 $104 $175 reversed $62 $-1 #
coedge $-1 $181 $259 $103 $173 reversed $101 $-1 #
edge $-1 $188 -10.237671074814669 $261 10.237671074814669 $172 $262 forward 7 unknown #
coedge $-1 $105 $104 $259 $263 forward $41 $-1 #
edge $-1 $179 -54.171575060274051 $261 54.171575060274051 $171 $264 forward 7 unknown #
coedge $-1 $184 $183 $105 $177 reversed $168 $-1 #
edge $-1 $265 -54.171575060274051 $178 54.171575060274051 $176 $266 forward 7 unknown #
vertex $-1 $107 $267 #
vertex $-1 $190 $268 #
straight-curve $-1 54.171575060274051 0 -10.237671074814669 0 -1 0 I I #
coedge $-1 $170 $172 $108 $182 reversed $101 $-1 #
edge $-1 $185 -33.951840827137794 $188 33.951840827137794 $181 $269 forward 7 unknown #
coedge $-1 $176 $109 $114 $191 forward $168 $-1 #
coedge $-1 $109 $176 $170 $260 reversed $168 $-1 #
vertex $-1 $110 $270 #
straight-curve $-1 0 33.951840827137794 10.237671074814669 -1 0 0 I I #
coedge $-1 $111 $171 $113 $190 reversed $62 $-1 #
vertex $-1 $182 $271 #
straight-curve $-1 0 -33.951840827137794 10.237671074814669 1 0 0 I I #
edge $-1 $116 -10.237671074814669 $179 10.237671074814669 $113 $272 forward 7 unknown #
edge $-1 $117 -10.237671074814669 $178 10.237671074814669 $114 $273 forward 7 unknown #
point $-1 54.171575060274051 -33.951840827137794 10.237671074814669 #
point $-1 54.171575060274051 33.951840827137794 10.237671074814669 #
face $-1 $-1 $207 $16 $-1 $274 reversed single #
loop $-1 $-1 $275 $119 #
plane-surface $-1 -62.075580776892792 0 -7.9318080099835484 1 0 0 0 0 -1 forward_v I I I I #
coedge $-1 $276 $199 $125 $204 reversed $120 $-1 #
coedge $-1 $123 $122 $275 $277 reversed $45 $-1 #
coedge $-1 $197 $278 $122 $200 forward $120 $-1 #
edge $-1 $279 -3.9520028583093705 $202 3.9520028583093705 $122 $280 forward 7 unknown #
edge $-1 $130 -3.9520028583093705 $281 3.9520028583093705 $123 $282 forward 7 unknown #
vertex $-1 $124 $283 #
straight-curve $-1 -54.171575060274051 33.951840827137794 0 0 0 -1 I I #
edge $-1 $208 -33.951840827137794 $202 33.951840827137794 $197 $284 forward 7 unknown #
coedge $-1 $285 $126 $129 $211 reversed $207 $-1 #
coedge $-1 $126 $285 $276 $286 reversed $207 $-1 #
loop $-1 $-1 $126 $194 #
vertex $-1 $127 $287 #
straight-curve $-1 -54.171575060274051 -33.951840827137794 0 0 0 1 I I #
coedge $-1 $129 $128 $288 $289 forward $70 $-1 #
edge $-1 $290 -3.9520028583093705 $131 3.9520028583093705 $205 $291 forward 7 unknown #
point $-1 -54.171575060274051 33.951840827137794 -6.1259449451524279 #
point $-1 -54.171575060274051 -33.951840827137794 -6.1259449451524279 #
face $-1 $-1 $230 $17 $-1 $292 reversed single #
loop $-1 $-1 $293 $133 #
plane-surface $-1 62.075580776892792 0 -7.9318080099835484 -1 0 0 0 0 1 forward_v I I I I #
coedge $-1 $221 $294 $295 $296 forward $134 $-1 #
coedge $-1 $293 $297 $136 $219 reversed $215 $-1 #
edge $-1 $298 -33.951840827137794 $299 33.951840827137794 $218 $300 forward 7 unknown #
coedge $-1 $138 $137 $293 $301 reversed $49 $-1 #
coedge $-1 $226 $217 $137 $222 forward $134 $-1 #
edge $-1 $302 -3.9520028583093705 $224 3.9520028583093705 $137 $303 forward 7 unknown #
edge $-1 $145 -3.9520028583093705 $298 3.9520028583093705 $138 $304 forward 7 unknown #
vertex $-1 $139 $305 #
straight-curve $-1 54.171575060274051 -33.951840827137794 0 0 0 -1 I I #
coedge $-1 $294 $221 $140 $227 reversed $134 $-1 #
edge $-1 $231 -33.951840827137794 $224 33.951840827137794 $226 $306 forward 7 unknown #
coedge $-1 $307 $141 $144 $233 reversed $230 $-1 #
coedge $-1 $141 $307 $294 $308 reversed $230 $-1 #
loop $-1 $-1 $141 $214 #
vertex $-1 $142 $309 #
straight-curve $-1 54.171575060274051 33.951840827137794 0 0 0 1 I I #
edge $-1 $299 -3.9520028583093705 $146 3.9520028583093705 $228 $310 forward 7 unknown #
point $-1 54.171575060274051 -33.951840827137794 -6.1259449451524279 #
point $-1 54.171575060274051 33.951840827137794 -6.1259449451524279 #
loop $-1 $-1 $156 $148 #
plane-surface $-1 0 -33.951840827137794 0 0 1 0 0 0 1 forward_v I I I I #
coedge $-1 $239 $151 $153 $243 reversed $86 $-1 #
coedge $-1 $151 $238 $311 $312 reversed $86 $-1 #
coedge $-1 $159 $154 $151 $241 forward $149 $-1 #
edge $-1 $244 -25.95017947340218 $313 -10.924503691461851 $240 $314 forward 7 unknown #
coedge $-1 $153 $152 $247 $315 reversed $53 $-1 #
edge $-1 $316 0 $244 17.529455267128128 $238 $317 forward 7 unknown #
vertex $-1 $155 $318 #
straight-curve $-1 -17.30660126944526 -18.926165045197465 10.237671074814669 -1 0 0 I I #
coedge $-1 $311 $156 $159 $251 reversed $236 $-1 #
coedge $-1 $156 $311 $242 $315 forward $236 $-1 #
vertex $-1 $157 $319 #
straight-curve $-1 -22.958835734125731 -33.951840827137794 47.038769576048956 0 0 1 I I #
straight-curve $-1 -22.958835734125731 -33.951840827137794 1.2093340597128304 0 -0.85716729658548041 -0.51503808176128008 I I #
edge $-1 $313 -46.26756934365531 $160 -22.958835734125731 $246 $320 forward 7 unknown #
point $-1 -22.958835734125731 -33.951840827137794 10.237671074814669 #
point $-1 -22.958835734125731 -18.926165045197465 10.237671074814669 #
edge $-1 $321 1 $321 0 $163 $-1 forward 7 unknown #
vertex $-1 $164 $322 #
ellipse-curve $-1 -34.613202538890519 -20.800917977165962 -3.6598463798665546 0 -0.51503808176128008 0.85716729658548041 3 0 0 1 I I #
point $-1 -31.613202538890519 -26.439002936167629 5.7235025672637496 #
plane-surface $-1 54.171575060274051 0 0 -1 0 0 0 0 1 forward_v I I I I #
coedge $-1 $172 $170 $174 $263 reversed $101 $-1 #
edge $-1 $185 -10.237671074814669 $265 10.237671074814669 $184 $323 forward 7 unknown #
vertex $-1 $263 $324 #
straight-curve $-1 -54.171575060274051 -33.951840827137794 0 0 0 -1 I I #
edge $-1 $261 -33.951840827137794 $265 33.951840827137794 $259 $325 forward 7 unknown #
straight-curve $-1 0 -33.951840827137794 -10.237671074814669 -1 0 0 I I #
vertex $-1 $177 $326 #
straight-curve $-1 0 33.951840827137794 -10.237671074814669 1 0 0 I I #
point $-1 54.171575060274051 33.951840827137794 -10.237671074814669 #
point $-1 54.171575060274051 -33.951840827137794 -10.237671074814669 #
straight-curve $-1 -54.171575060274051 0 10.237671074814669 0 -1 0 I I #
point $-1 -54.171575060274051 33.951840827137794 10.237671074814669 #
point $-1 -54.171575060274051 -33.951840827137794 10.237671074814669 #
straight-curve $-1 54.171575060274051 -33.951840827137794 0 0 0 -1 I I #
straight-curve $-1 54.171575060274051 33.951840827137794 0 0 0 -1 I I #
plane-surface $-1 0 -33.951840827137794 0 0 1 0 0 0 1 forward_v I I I I #
coedge $-1 $327 $288 $198 $277 forward $195 $-1 #
coedge $-1 $278 $197 $206 $286 forward $120 $-1 #
edge $-1 $281 -1.8058630648311205 $279 1.8058630648311205 $198 $328 forward 7 unknown #
coedge $-1 $199 $276 $327 $329 forward $120 $-1 #
vertex $-1 $200 $330 #
straight-curve $-1 -58.123577918583422 33.951840827137794 -9.7376710748146689 1 0 0 I I #
vertex $-1 $201 $331 #
straight-curve $-1 -58.123577918583422 33.951840827137794 -6.1259449451524279 -1 0 0 I I #
point $-1 -54.171575060274051 33.951840827137794 -9.7376710748146689 #
straight-curve $-1 -54.171575060274051 0 -9.7376710748146689 0 1 0 I I #
coedge $-1 $206 $205 $332 $333 forward $207 $-1 #
edge $-1 $208 -3.9520028583093705 $334 3.9520028583093705 $206 $335 forward 7 unknown #
point $-1 -54.171575060274051 -33.951840827137794 -9.7376710748146689 #
coedge $-1 $275 $332 $210 $289 reversed $195 $-1 #
edge $-1 $281 -33.951840827137794 $290 33.951840827137794 $288 $336 forward 7 unknown #
vertex $-1 $289 $337 #
straight-curve $-1 -58.123577918583422 -33.951840827137794 -6.1259449451524279 1 0 0 I I #
plane-surface $-1 0 33.951840827137794 0 0 -1 0 0 0 -1 forward_v I I I I #
coedge $-1 $295 $218 $220 $301 forward $215 $-1 #
coedge $-1 $217 $226 $229 $308 forward $134 $-1 #
coedge $-1 $297 $293 $217 $296 reversed $215 $-1 #
edge $-1 $338 -33.951840827137794 $302 33.951840827137794 $295 $339 forward 7 unknown #
coedge $-1 $218 $295 $307 $340 reversed $215 $-1 #
vertex $-1 $219 $341 #
vertex $-1 $219 $342 #
straight-curve $-1 62.075580776892792 0 -6.1259449451524279 0 1 0 I I #
edge $-1 $298 -1.8058630648311205 $302 1.8058630648311205 $293 $343 forward 7 unknown #
vertex $-1 $301 $344 #
straight-curve $-1 58.123577918583422 -33.951840827137794 -9.7376710748146689 -1 0 0 I I #
straight-curve $-1 58.123577918583422 -33.951840827137794 -6.1259449451524279 1 0 0 I I #
point $-1 54.171575060274051 -33.951840827137794 -9.7376710748146689 #
straight-curve $-1 54.171575060274051 0 -9.7376710748146689 0 -1 0 I I #
coedge $-1 $229 $228 $297 $340 forward $230 $-1 #
edge $-1 $231 -3.9520028583093705 $338 3.9520028583093705 $229 $345 forward 7 unknown #
point $-1 54.171575060274051 33.951840827137794 -9.7376710748146689 #
straight-curve $-1 58.123577918583422 33.951840827137794 -6.1259449451524279 -1 0 0 I I #
coedge $-1 $247 $246 $239 $312 forward $236 $-1 #
edge $-1 $313 36.801098501234286 $316 45.829435516336126 $311 $346 forward 7 unknown #
vertex $-1 $251 $347 #
straight-curve $-1 -46.26756934365531 -44.876344518599645 10.237671074814671 0 -1 0 I I #
edge $-1 $316 -28.960968074210051 $248 -5.6522344646804719 $247 $348 forward 7 unknown #
vertex $-1 $315 $349 #
straight-curve $-1 -46.26756934365531 -33.951840827137794 1.2093340597128304 0 0.85716729658548041 0.51503808176128008 I I #
point $-1 -46.26756934365531 -18.926165045197465 10.237671074814669 #
point $-1 -22.958835734125731 -33.951840827137794 1.2093340597128304 #
straight-curve $-1 0 -33.951840827137794 10.237671074814669 1 0 0 I I #
vertex $-1 $254 $350 #
point $-1 -31.613202538890519 -20.800917977165962 -3.6598463798665546 #
straight-curve $-1 -54.171575060274051 33.951840827137794 0 0 0 -1 I I #
point $-1 -54.171575060274051 -33.951840827137794 -10.237671074814669 #
straight-curve $-1 -54.171575060274051 0 -10.237671074814669 0 1 0 I I #
point $-1 -54.171575060274051 33.951840827137794 -10.237671074814669 #
coedge $-1 $332 $275 $278 $329 reversed $195 $-1 #
straight-curve $-1 -62.075580776892792 33.951840827137794 -7.9318080099835484 0 0 -1 I I #
edge $-1 $334 -33.951840827137794 $279 33.951840827137794 $327 $351 forward 7 unknown #
point $-1 -62.075580776892792 33.951840827137794 -9.7376710748146689 #
point $-1 -62.075580776892792 33.951840827137794 -6.1259449451524279 #
coedge $-1 $288 $327 $285 $333 reversed $195 $-1 #
edge $-1 $290 -1.8058630648311205 $334 1.8058630648311205 $332 $352 forward 7 unknown #
vertex $-1 $329 $353 #
straight-curve $-1 -58.123577918583422 -33.951840827137794 -9.7376710748146689 -1 0 0 I I #
straight-curve $-1 -62.075580776892792 0 -6.1259449451524279 0 -1 0 I I #
point $-1 -62.075580776892792 -33.951840827137794 -6.1259449451524279 #
vertex $-1 $296 $354 #
straight-curve $-1 62.075580776892792 0 -9.7376710748146689 0 -1 0 I I #
edge $-1 $299 -1.8058630648311205 $338 1.8058630648311205 $297 $355 forward 7 unknown #
point $-1 62.075580776892792 -33.951840827137794 -6.1259449451524279 #
point $-1 62.075580776892792 33.951840827137794 -6.1259449451524279 #
straight-curve $-1 62.075580776892792 -33.951840827137794 -7.9318080099835484 0 0 -1 I I #
point $-1 62.075580776892792 -33.951840827137794 -9.7376710748146689 #
straight-curve $-1 58.123577918583422 33.951840827137794 -9.7376710748146689 1 0 0 I I #
straight-curve $-1 -46.26756934365531 -33.951840827137794 47.038769576048956 0 0 -1 I I #
point $-1 -46.26756934365531 -33.951840827137794 10.237671074814669 #
straight-curve $-1 -17.30660126944526 -33.951840827137794 1.2093340597128319 1 0 0 I I #
point $-1 -46.26756934365531 -33.951840827137794 1.2093340597128304 #
point $-1 -34.613202538890519 -19.255803731882121 -6.2313482696229965 #
straight-curve $-1 -62.075580776892792 0 -9.7376710748146689 0 1 0 I I #
straight-curve $-1 -62.075580776892792 -33.951840827137794 -7.9318080099835484 0 0 -1 I I #
point $-1 -62.075580776892792 -33.951840827137794 -9.7376710748146689 #
point $-1 62.075580776892792 33.951840827137794 -9.7376710748146689 #
straight-curve $-1 62.075580776892792 33.951840827137794 -7.9318080099835484 0 0 -1 I I #
End-of-ACIS-data 