500 0 8 0           
7 Unknown 11 ACIS 5.0 NT 24 Fri Mar 26 19:35:08 1999 
-1 9.9999999999999995e-007 1e-010 
body $-1 $8 $-1 $9 #
body $-1 $10 $-1 $11 #
body $-1 $12 $-1 $13 #
body $-1 $14 $-1 $15 #
body $-1 $16 $-1 $17 #
body $-1 $18 $-1 $19 #
body $-1 $20 $-1 $21 #
body $-1 $22 $-1 $23 #
lump $-1 $-1 $24 $0 #
transform $-1 1 0 0 0 1 0 0 0 1 67.945188756981111 43.464019058727672 15.347506323898948 1 rotate no_reflect no_shear #
lump $-1 $-1 $25 $1 #
transform $-1 1 0 0 0 1 0 0 0 1 67.945188756981111 43.464019058727672 15.347506323898948 1 rotate no_reflect no_shear #
lump $-1 $-1 $26 $2 #
transform $-1 1 0 0 0 1 0 0 0 1 67.945188756981111 43.464019058727672 15.347506323898948 1 rotate no_reflect no_shear #
lump $-1 $-1 $27 $3 #
transform $-1 1 0 0 0 1 0 0 0 1 67.945188756981111 43.464019058727672 15.347506323898948 1 rotate no_reflect no_shear #
lump $-1 $-1 $28 $4 #
transform $-1 1 0 0 0 1 0 0 0 1 67.945188756981111 43.464019058727672 15.347506323898948 1 rotate no_reflect no_shear #
lump $-1 $-1 $29 $5 #
transform $-1 1 0 0 0 1 0 0 0 1 67.945188756981111 43.464019058727672 15.347506323898948 1 rotate no_reflect no_shear #
lump $-1 $-1 $30 $6 #
transform $-1 1 0 0 0 1 0 0 0 1 67.945188756981111 43.464019058727672 15.347506323898948 1 rotate no_reflect no_shear #
lump $-1 $-1 $31 $7 #
transform $-1 1 0 0 0 1 0 0 0 1 67.945188756981111 43.464019058727672 15.347506323898948 1 rotate no_reflect no_shear #
shell $-1 $-1 $-1 $32 $-1 $8 #
shell $-1 $-1 $-1 $33 $-1 $10 #
shell $-1 $-1 $-1 $34 $-1 $12 #
shell $-1 $-1 $-1 $35 $-1 $14 #
shell $-1 $-1 $-1 $36 $-1 $16 #
shell $-1 $-1 $-1 $37 $-1 $18 #
shell $-1 $-1 $-1 $38 $-1 $20 #
shell $-1 $-1 $-1 $39 $-1 $22 #
face $-1 $40 $41 $24 $-1 $42 reversed single #
face $-1 $43 $44 $25 $-1 $45 forward single #
face $-1 $46 $47 $26 $-1 $48 reversed single #
face $-1 $49 $50 $27 $-1 $51 forward single #
face $-1 $52 $53 $28 $-1 $54 forward single #
face $-1 $55 $56 $29 $-1 $57 reversed single #
face $-1 $58 $59 $30 $-1 $60 forward single #
face $-1 $61 $62 $31 $-1 $63 forward single #
face $-1 $64 $65 $24 $-1 $66 forward single #
loop $-1 $-1 $67 $32 #
plane-surface $-1 0 -43.464019058727672 0 0 1 0 0 0 1 forward_v I I I I #
face $-1 $68 $69 $25 $-1 $70 reversed single #
loop $-1 $-1 $71 $33 #
plane-surface $-1 0 -43.464019058727672 0 0 1 0 0 0 1 forward_v I I I I #
face $-1 $72 $73 $26 $-1 $74 reversed single #
loop $-1 $-1 $75 $34 #
plane-surface $-1 101.31655351174308 -1.9627773567127385 199.59816799922035 0 -1 0 -0.81915205242281985 0 -0.57357642473473569 forward_v I I I I #
face $-1 $76 $77 $27 $-1 $78 forward single #
loop $-1 $79 $80 $35 #
cone-surface $-1 65.358909597461462 -12.71796187101754 12.260328857292247 -0.81915205242281985 0 -0.57357642473473569 0.57357642473473569 0 -0.81915205242281985 1 I I 0 1 1 forward I I I I #
face $-1 $81 $82 $28 $-1 $83 forward single #
loop $-1 $84 $85 $36 #
cone-surface $-1 65.358909597461462 -6.2648511624346597 12.260328857292247 -0.81915205242281985 0 -0.57357642473473569 0.57357642473473569 0 -0.81915205242281985 1 I I 0 1 1 forward I I I I #
face $-1 $86 $87 $29 $-1 $88 reversed single #
loop $-1 $-1 $89 $37 #
plane-surface $-1 101.31655351174308 33.635304945576038 199.59816799922035 0 -1 0 -0.81915205242281985 0 -0.57357642473473569 forward_v I I I I #
face $-1 $90 $91 $30 $-1 $92 forward single #
loop $-1 $93 $94 $38 #
cone-surface $-1 65.358909597461462 22.880120431271237 12.260328857292247 -0.81915205242281985 0 -0.57357642473473569 0.57357642473473569 0 -0.81915205242281985 1 I I 0 1 1 forward I I I I #
face $-1 $95 $96 $31 $-1 $97 forward single #
loop $-1 $98 $99 $39 #
cone-surface $-1 65.358909597461462 29.333231139854121 12.260328857292247 -0.81915205242281985 0 -0.57357642473473569 0.57357642473473569 0 -0.81915205242281985 1 I I 0 1 1 forward I I I I #
face $-1 $100 $101 $24 $-1 $102 reversed single #
loop $-1 $-1 $103 $40 #
plane-surface $-1 0 0 15.347506323898948 0 0 1 1 0 0 forward_v I I I I #
coedge $-1 $104 $105 $106 $107 reversed $41 $-1 #
face $-1 $108 $109 $25 $-1 $110 reversed single #
loop $-1 $-1 $111 $43 #
plane-surface $-1 0 0 -15.347506323898948 0 0 1 1 0 0 forward_v I I I I #
coedge $-1 $112 $113 $114 $115 forward $44 $-1 #
face $-1 $116 $117 $26 $-1 $118 reversed single #
loop $-1 $-1 $119 $46 #
plane-surface $-1 -9.9983281333308867 -9.4914065167261015 121.65465110890838 0.81915205242281985 0 0.57357642473473569 0.57357642473473569 0 -0.81915205242281985 forward_v I I I I #
coedge $-1 $120 $121 $122 $123 reversed $47 $-1 #
face $-1 $-1 $124 $27 $-1 $125 forward single #
loop $-1 $126 $127 $49 #
cone-surface $-1 64.116281908208407 -12.71796187101754 11.390231608350412 -0.81915205242281985 0 -0.57357642473473569 0.28678821236736785 0 -0.40957602621140993 1 I I -0.70710678118654746 0.70710678118654746 0.5 forward I I I I #
loop $-1 $-1 $128 $35 #
coedge $-1 $80 $80 $129 $130 reversed $50 $-1 #
face $-1 $-1 $131 $28 $-1 $132 forward single #
loop $-1 $133 $134 $52 #
cone-surface $-1 64.116281908208407 -6.2648511624346597 11.390231608350412 -0.81915205242281985 0 -0.57357642473473569 0.28678821236736785 0 -0.40957602621140993 1 I I -0.70710678118654746 0.70710678118654746 0.5 forward I I I I #
loop $-1 $-1 $135 $36 #
coedge $-1 $85 $85 $136 $137 reversed $53 $-1 #
face $-1 $138 $139 $29 $-1 $140 reversed single #
loop $-1 $-1 $141 $55 #
plane-surface $-1 -9.9983281333308867 26.106675785562672 121.65465110890838 0.81915205242281985 0 0.57357642473473569 0.57357642473473569 0 -0.81915205242281985 forward_v I I I I #
coedge $-1 $142 $143 $144 $145 reversed $56 $-1 #
face $-1 $-1 $146 $30 $-1 $147 forward single #
loop $-1 $148 $149 $58 #
cone-surface $-1 64.116281908208407 22.880120431271237 11.390231608350412 -0.81915205242281985 0 -0.57357642473473569 0.28678821236736785 0 -0.40957602621140993 1 I I -0.70710678118654746 0.70710678118654746 0.5 forward I I I I #
loop $-1 $-1 $150 $38 #
coedge $-1 $94 $94 $151 $152 reversed $59 $-1 #
face $-1 $-1 $153 $31 $-1 $154 forward single #
loop $-1 $155 $156 $61 #
cone-surface $-1 64.116281908208407 29.333231139854121 11.390231608350412 -0.81915205242281985 0 -0.57357642473473569 0.28678821236736785 0 -0.40957602621140993 1 I I -0.70710678118654746 0.70710678118654746 0.5 forward I I I I #
loop $-1 $-1 $157 $39 #
coedge $-1 $99 $99 $158 $159 reversed $62 $-1 #
face $-1 $160 $161 $24 $-1 $162 reversed single #
loop $-1 $-1 $163 $64 #
plane-surface $-1 0 0 -15.347506323898948 0 0 1 1 0 0 forward_v I I I I #
coedge $-1 $164 $165 $166 $167 forward $65 $-1 #
coedge $-1 $168 $67 $169 $170 reversed $41 $-1 #
coedge $-1 $67 $168 $171 $172 forward $41 $-1 #
coedge $-1 $173 $163 $67 $107 forward $101 $-1 #
edge $-1 $174 -67.945188756981111 $175 67.945188756981111 $67 $176 forward 7 unknown #
face $-1 $177 $178 $25 $-1 $179 reversed single #
loop $-1 $-1 $180 $68 #
plane-surface $-1 -55.915593001740952 -60.079288327564228 0 0 1 0 0 0 1 forward_v I I I I #
coedge $-1 $181 $182 $113 $183 forward $69 $-1 #
coedge $-1 $184 $71 $185 $186 reversed $44 $-1 #
coedge $-1 $71 $184 $111 $183 reversed $44 $-1 #
coedge $-1 $187 $188 $71 $115 reversed $178 $-1 #
edge $-1 $189 -15.347506323898948 $190 15.347506323898948 $114 $191 forward 7 unknown #
face $-1 $192 $193 $26 $-1 $194 forward single #
loop $-1 $-1 $195 $72 #
plane-surface $-1 101.31655351174308 -17.020035676739464 199.59816799922035 0 1 0 0.81915205242281985 0 0.57357642473473569 forward_v I I I I #
coedge $-1 $196 $197 $198 $199 reversed $73 $-1 #
coedge $-1 $121 $75 $200 $201 reversed $47 $-1 #
coedge $-1 $75 $120 $196 $202 reversed $47 $-1 #
coedge $-1 $198 $203 $75 $123 forward $193 $-1 #
edge $-1 $204 -17.28691200110957 $205 -13.780457008153519 $122 $206 forward 7 unknown #
loop $-1 $-1 $129 $76 #
plane-surface $-1 -9.9983281333308867 -9.4914065167261015 121.65465110890838 0.81915205242281985 0 0.57357642473473569 0.57357642473473569 0 -0.81915205242281985 forward_v I I I I #
loop $-1 $-1 $207 $49 #
coedge $-1 $127 $127 $128 $208 reversed $77 $-1 #
coedge $-1 $128 $128 $127 $208 forward $79 $-1 #
coedge $-1 $129 $129 $80 $130 forward $124 $-1 #
edge $-1 $209 0 $209 6.2831853071796004 $129 $210 forward 7 unknown #
loop $-1 $-1 $136 $81 #
plane-surface $-1 -9.9983281333308867 -9.4914065167261015 121.65465110890838 0.81915205242281985 0 0.57357642473473569 0.57357642473473569 0 -0.81915205242281985 forward_v I I I I #
loop $-1 $-1 $211 $52 #
coedge $-1 $134 $134 $135 $212 reversed $82 $-1 #
coedge $-1 $135 $135 $134 $212 forward $84 $-1 #
coedge $-1 $136 $136 $85 $137 forward $131 $-1 #
edge $-1 $213 0 $213 6.2831853071796004 $136 $214 forward 7 unknown #
face $-1 $215 $216 $29 $-1 $217 reversed single #
loop $-1 $-1 $218 $86 #
plane-surface $-1 101.31655351174308 18.578046625549309 199.59816799922035 0 1 0 0.81915205242281985 0 0.57357642473473569 forward_v I I I I #
coedge $-1 $219 $220 $221 $222 reversed $87 $-1 #
coedge $-1 $143 $89 $223 $224 reversed $56 $-1 #
coedge $-1 $89 $142 $219 $225 reversed $56 $-1 #
coedge $-1 $221 $226 $89 $145 forward $227 $-1 #
edge $-1 $228 -17.28691200110957 $229 -13.780457008153519 $144 $230 forward 7 unknown #
loop $-1 $-1 $151 $90 #
plane-surface $-1 -9.9983281333308867 26.106675785562672 121.65465110890838 0.81915205242281985 0 0.57357642473473569 0.57357642473473569 0 -0.81915205242281985 forward_v I I I I #
loop $-1 $-1 $231 $58 #
coedge $-1 $149 $149 $150 $232 reversed $91 $-1 #
coedge $-1 $150 $150 $149 $232 forward $93 $-1 #
coedge $-1 $151 $151 $94 $152 forward $146 $-1 #
edge $-1 $233 0 $233 6.2831853071796004 $151 $234 forward 7 unknown #
loop $-1 $-1 $158 $95 #
plane-surface $-1 -9.9983281333308867 26.106675785562672 121.65465110890838 0.81915205242281985 0 0.57357642473473569 0.57357642473473569 0 -0.81915205242281985 forward_v I I I I #
loop $-1 $-1 $235 $61 #
coedge $-1 $156 $156 $157 $236 reversed $96 $-1 #
coedge $-1 $157 $157 $156 $236 forward $98 $-1 #
coedge $-1 $158 $158 $99 $159 forward $153 $-1 #
edge $-1 $237 0 $237 6.2831853071796004 $158 $238 forward 7 unknown #
face $-1 $239 $240 $24 $-1 $241 reversed single #
loop $-1 $-1 $242 $100 #
plane-surface $-1 -67.945188756981111 0 0 1 0 0 0 0 -1 forward_v I I I I #
coedge $-1 $106 $243 $244 $245 forward $101 $-1 #
coedge $-1 $246 $103 $247 $248 forward $65 $-1 #
coedge $-1 $103 $246 $168 $249 forward $65 $-1 #
coedge $-1 $169 $250 $103 $167 reversed $251 $-1 #
edge $-1 $252 -43.464019058727672 $253 43.464019058727672 $166 $254 forward 7 unknown #
coedge $-1 $105 $104 $165 $249 reversed $41 $-1 #
coedge $-1 $244 $166 $104 $170 forward $251 $-1 #
edge $-1 $252 -15.347506323898948 $174 15.347506323898948 $169 $255 forward 7 unknown #
coedge $-1 $256 $257 $105 $172 reversed $161 $-1 #
edge $-1 $258 -15.347506323898948 $175 15.347506323898948 $171 $259 forward 7 unknown #
coedge $-1 $243 $106 $257 $260 forward $101 $-1 #
vertex $-1 $170 $261 #
vertex $-1 $260 $262 #
straight-curve $-1 0 -43.464019058727672 -15.347506323898948 -1 0 0 I I #
face $-1 $263 $264 $25 $-1 $265 reversed single #
loop $-1 $-1 $114 $108 #
plane-surface $-1 -58.870761972027388 -51.77165369314595 0 1 0 0 0 0 -1 forward_v I I I I #
coedge $-1 $266 $267 $268 $269 forward $109 $-1 #
coedge $-1 $270 $111 $271 $272 forward $69 $-1 #
coedge $-1 $111 $270 $187 $273 forward $69 $-1 #
edge $-1 $189 -58.870761972027388 $274 -52.960424031454515 $111 $275 forward 7 unknown #
coedge $-1 $113 $112 $276 $277 forward $44 $-1 #
coedge $-1 $278 $279 $112 $186 forward $280 $-1 #
edge $-1 $281 52.960424031454515 $190 58.870761972027388 $185 $282 forward 7 unknown #
coedge $-1 $268 $114 $182 $273 reversed $178 $-1 #
coedge $-1 $114 $268 $278 $283 reversed $178 $-1 #
vertex $-1 $183 $284 #
vertex $-1 $283 $285 #
straight-curve $-1 -58.870761972027388 -43.464019058727672 0 0 0 1 I I #
face $-1 $-1 $286 $26 $-1 $287 reversed single #
loop $-1 $-1 $122 $116 #
plane-surface $-1 0 0 15.347506323898948 0 0 1 1 0 0 forward_v I I I I #
coedge $-1 $288 $289 $290 $291 reversed $117 $-1 #
coedge $-1 $292 $119 $121 $202 forward $73 $-1 #
coedge $-1 $119 $292 $288 $293 forward $73 $-1 #
coedge $-1 $290 $122 $119 $199 forward $193 $-1 #
edge $-1 $205 -2.7829259016503123 $294 12.274332418376414 $198 $295 forward 7 unknown #
coedge $-1 $296 $297 $120 $201 forward $286 $-1 #
edge $-1 $298 -89.459314535775803 $204 -84.451577675711235 $200 $299 forward 7 unknown #
edge $-1 $205 129.77705966869397 $298 135.89037751396231 $121 $300 forward 7 unknown #
coedge $-1 $122 $290 $296 $301 forward $193 $-1 #
vertex $-1 $123 $302 #
vertex $-1 $123 $303 #
straight-curve $-1 50.65827675587154 -1.9627773567127385 15.347506323898955 -1 0 0 I I #
coedge $-1 $207 $207 $-1 $304 reversed $126 $-1 #
edge $-1 $305 0 $305 6.2831853071796004 $127 $306 forward 7 unknown #
vertex $-1 $130 $307 #
ellipse-curve $-1 66.191961260503064 -12.71796187101754 12.843637893866687 0.81915205242281985 0 0.57357642473473569 0.57357642473473569 0 -0.81915205242281985 1 I I #
coedge $-1 $211 $211 $-1 $308 reversed $133 $-1 #
edge $-1 $309 0 $309 6.2831853071796004 $134 $310 forward 7 unknown #
vertex $-1 $137 $311 #
ellipse-curve $-1 66.191961260503064 -6.2648511624346597 12.843637893866687 0.81915205242281985 0 0.57357642473473569 0.57357642473473569 0 -0.81915205242281985 1 I I #
face $-1 $-1 $227 $29 $-1 $312 forward single #
loop $-1 $-1 $313 $138 #
plane-surface $-1 67.945188756981111 0 0 -1 0 0 0 0 1 forward_v I I I I #
coedge $-1 $314 $315 $316 $317 reversed $139 $-1 #
coedge $-1 $318 $141 $143 $225 forward $87 $-1 #
coedge $-1 $141 $318 $314 $319 forward $87 $-1 #
coedge $-1 $316 $144 $141 $222 forward $227 $-1 #
edge $-1 $229 -20.581967052794703 $320 -5.5247087327679729 $221 $321 forward 7 unknown #
coedge $-1 $322 $323 $142 $224 forward $216 $-1 #
edge $-1 $324 -89.459314535775803 $228 -84.451577675711235 $223 $325 forward 7 unknown #
edge $-1 $229 129.77705966869397 $324 135.89037751396231 $143 $326 forward 7 unknown #
coedge $-1 $144 $316 $322 $327 forward $227 $-1 #
loop $-1 $-1 $316 $215 #
vertex $-1 $224 $328 #
vertex $-1 $145 $329 #
straight-curve $-1 50.65827675587154 33.635304945576038 15.347506323898955 -1 0 0 I I #
coedge $-1 $231 $231 $-1 $330 reversed $148 $-1 #
edge $-1 $331 0 $331 6.2831853071796004 $149 $332 forward 7 unknown #
vertex $-1 $152 $333 #
ellipse-curve $-1 66.191961260503064 22.880120431271237 12.843637893866687 0.81915205242281985 0 0.57357642473473569 0.57357642473473569 0 -0.81915205242281985 1 I I #
coedge $-1 $235 $235 $-1 $334 reversed $155 $-1 #
edge $-1 $335 0 $335 6.2831853071796004 $156 $336 forward 7 unknown #
vertex $-1 $159 $337 #
ellipse-curve $-1 66.191961260503064 29.333231139854121 12.843637893866687 0.81915205242281985 0 0.57357642473473569 0.57357642473473569 0 -0.81915205242281985 1 I I #
face $-1 $-1 $251 $24 $-1 $338 reversed single #
loop $-1 $-1 $339 $160 #
plane-surface $-1 0 43.464019058727672 0 0 -1 0 0 0 -1 forward_v I I I I #
coedge $-1 $257 $256 $340 $341 forward $161 $-1 #
coedge $-1 $163 $173 $342 $343 forward $101 $-1 #
coedge $-1 $250 $169 $163 $245 reversed $251 $-1 #
edge $-1 $344 -43.464019058727672 $174 43.464019058727672 $244 $345 forward 7 unknown #
coedge $-1 $165 $164 $256 $346 forward $65 $-1 #
coedge $-1 $339 $340 $164 $248 reversed $240 $-1 #
edge $-1 $253 -67.945188756981111 $347 67.945188756981111 $247 $348 forward 7 unknown #
edge $-1 $258 -67.945188756981111 $252 67.945188756981111 $168 $349 forward 7 unknown #
coedge $-1 $166 $244 $339 $350 reversed $251 $-1 #
loop $-1 $-1 $169 $239 #
vertex $-1 $167 $351 #
vertex $-1 $167 $352 #
straight-curve $-1 67.945188756981111 0 15.347506323898948 0 1 0 I I #
straight-curve $-1 67.945188756981111 -43.464019058727672 0 0 0 -1 I I #
coedge $-1 $242 $171 $246 $346 reversed $161 $-1 #
coedge $-1 $171 $242 $173 $260 reversed $161 $-1 #
vertex $-1 $346 $353 #
straight-curve $-1 -67.945188756981111 -43.464019058727672 0 0 0 -1 I I #
edge $-1 $175 -43.464019058727672 $354 43.464019058727672 $257 $355 forward 7 unknown #
point $-1 67.945188756981111 -43.464019058727672 -15.347506323898948 #
point $-1 -67.945188756981111 -43.464019058727672 -15.347506323898948 #
face $-1 $-1 $280 $25 $-1 $356 forward single #
loop $-1 $-1 $357 $177 #
plane-surface $-1 -52.960424031454515 -51.77165369314595 0 -1 0 0 0 0 1 forward_v I I I I #
coedge $-1 $358 $180 $270 $359 reversed $109 $-1 #
coedge $-1 $180 $358 $360 $361 reversed $109 $-1 #
coedge $-1 $188 $187 $180 $269 reversed $178 $-1 #
edge $-1 $362 -15.347506323898948 $363 15.347506323898948 $268 $364 forward 7 unknown #
coedge $-1 $182 $181 $266 $359 forward $69 $-1 #
coedge $-1 $276 $357 $181 $272 reversed $264 $-1 #
edge $-1 $274 -8.3076346344182781 $365 8.3076346344182781 $271 $366 forward 7 unknown #
edge $-1 $363 -8.3076346344182781 $189 8.3076346344182781 $187 $367 forward 7 unknown #
vertex $-1 $272 $368 #
straight-curve $-1 0 -43.464019058727672 -15.347506323898948 1 0 0 I I #
coedge $-1 $369 $271 $184 $277 reversed $264 $-1 #
edge $-1 $281 -15.347506323898948 $274 15.347506323898948 $276 $370 forward 7 unknown #
coedge $-1 $360 $185 $188 $283 forward $280 $-1 #
coedge $-1 $185 $360 $369 $371 forward $280 $-1 #
loop $-1 $-1 $185 $263 #
vertex $-1 $186 $372 #
straight-curve $-1 0 -43.464019058727672 15.347506323898948 -1 0 0 I I #
edge $-1 $190 -8.3076346344182781 $362 8.3076346344182781 $188 $373 forward 7 unknown #
point $-1 -58.870761972027388 -43.464019058727672 -15.347506323898948 #
point $-1 -58.870761972027388 -43.464019058727672 15.347506323898948 #
loop $-1 $-1 $200 $192 #
plane-surface $-1 67.945188756981111 0 0 -1 0 0 0 0 1 forward_v I I I I #
coedge $-1 $289 $195 $197 $293 reversed $117 $-1 #
coedge $-1 $195 $288 $374 $375 reversed $117 $-1 #
coedge $-1 $203 $198 $195 $291 forward $193 $-1 #
edge $-1 $294 13.780457008153519 $376 17.28691200110957 $290 $377 forward 7 unknown #
coedge $-1 $197 $196 $297 $378 reversed $73 $-1 #
edge $-1 $379 -135.89037751396231 $294 -129.77705966869397 $288 $380 forward 7 unknown #
vertex $-1 $199 $381 #
straight-curve $-1 64.438733764025088 -4.7457032583630507 15.347506323898941 0 -1 0 I I #
coedge $-1 $374 $200 $203 $301 reversed $286 $-1 #
coedge $-1 $200 $374 $292 $378 forward $286 $-1 #
vertex $-1 $201 $382 #
straight-curve $-1 67.945188756981111 -1.9627773567127385 99.799083999610176 0 0 1 I I #
straight-curve $-1 -9.9983281333308867 -1.9627773567127385 121.65465110890838 0.57357642473473569 0 -0.81915205242281985 I I #
edge $-1 $376 -17.020035676739464 $204 -1.9627773567127385 $296 $383 forward 7 unknown #
point $-1 67.945188756981111 -1.9627773567127385 15.347506323898948 #
point $-1 64.438733764025059 -1.9627773567127385 15.347506323898969 #
edge $-1 $384 1 $384 0 $207 $-1 forward 7 unknown #
vertex $-1 $208 $385 #
ellipse-curve $-1 64.525857934419818 -12.71796187101754 11.67701982071778 0.81915205242281985 0 0.57357642473473569 0.57357642473473569 0 -0.81915205242281985 1 I I #
point $-1 66.765537685237845 -12.71796187101754 12.024485841443896 #
edge $-1 $386 1 $386 0 $211 $-1 forward 7 unknown #
vertex $-1 $212 $387 #
ellipse-curve $-1 64.525857934419818 -6.2648511624346597 11.67701982071778 0.81915205242281985 0 0.57357642473473569 0.57357642473473569 0 -0.81915205242281985 1 I I #
point $-1 66.765537685237845 -6.2648511624346597 12.024485841443896 #
plane-surface $-1 0 0 15.347506323898948 0 0 1 1 0 0 forward_v I I I I #
coedge $-1 $323 $322 $315 $388 forward $216 $-1 #
coedge $-1 $315 $218 $220 $319 reversed $139 $-1 #
coedge $-1 $218 $314 $313 $388 reversed $139 $-1 #
coedge $-1 $226 $221 $218 $317 forward $227 $-1 #
edge $-1 $320 13.780457008153519 $389 17.28691200110957 $316 $390 forward 7 unknown #
coedge $-1 $220 $219 $323 $391 reversed $87 $-1 #
edge $-1 $392 -135.89037751396231 $320 -129.77705966869397 $314 $393 forward 7 unknown #
vertex $-1 $222 $394 #
straight-curve $-1 64.438733764025088 13.053337892781336 15.347506323898941 0 -1 0 I I #
coedge $-1 $313 $223 $226 $327 reversed $216 $-1 #
coedge $-1 $223 $313 $318 $391 forward $216 $-1 #
vertex $-1 $224 $395 #
straight-curve $-1 67.945188756981111 33.635304945576038 99.799083999610176 0 0 1 I I #
straight-curve $-1 -9.9983281333308867 33.635304945576038 121.65465110890838 0.57357642473473569 0 -0.81915205242281985 I I #
edge $-1 $389 18.578046625549309 $228 33.635304945576038 $322 $396 forward 7 unknown #
point $-1 67.945188756981111 33.635304945576038 15.347506323898948 #
point $-1 64.438733764025059 33.635304945576038 15.347506323898969 #
edge $-1 $397 1 $397 0 $231 $-1 forward 7 unknown #
vertex $-1 $232 $398 #
ellipse-curve $-1 64.525857934419818 22.880120431271237 11.67701982071778 0.81915205242281985 0 0.57357642473473569 0.57357642473473569 0 -0.81915205242281985 1 I I #
point $-1 66.765537685237845 22.880120431271237 12.024485841443896 #
edge $-1 $399 1 $399 0 $235 $-1 forward 7 unknown #
vertex $-1 $236 $400 #
ellipse-curve $-1 64.525857934419818 29.333231139854121 11.67701982071778 0.81915205242281985 0 0.57357642473473569 0.57357642473473569 0 -0.81915205242281985 1 I I #
point $-1 66.765537685237845 29.333231139854121 12.024485841443896 #
plane-surface $-1 67.945188756981111 0 0 -1 0 0 0 0 1 forward_v I I I I #
coedge $-1 $342 $247 $250 $350 forward $240 $-1 #
coedge $-1 $247 $342 $242 $341 reversed $240 $-1 #
edge $-1 $347 -15.347506323898948 $354 15.347506323898948 $340 $401 forward 7 unknown #
coedge $-1 $340 $339 $243 $343 reversed $240 $-1 #
edge $-1 $354 -67.945188756981111 $344 67.945188756981111 $342 $402 forward 7 unknown #
vertex $-1 $245 $403 #
straight-curve $-1 67.945188756981111 0 -15.347506323898948 0 -1 0 I I #
edge $-1 $347 -43.464019058727672 $258 43.464019058727672 $256 $404 forward 7 unknown #
vertex $-1 $248 $405 #
straight-curve $-1 0 43.464019058727672 15.347506323898948 -1 0 0 I I #
straight-curve $-1 0 -43.464019058727672 15.347506323898948 1 0 0 I I #
edge $-1 $253 -15.347506323898948 $344 15.347506323898948 $250 $406 forward 7 unknown #
point $-1 67.945188756981111 -43.464019058727672 15.347506323898948 #
point $-1 67.945188756981111 43.464019058727672 15.347506323898948 #
point $-1 -67.945188756981111 -43.464019058727672 15.347506323898948 #
vertex $-1 $343 $407 #
straight-curve $-1 -67.945188756981111 0 -15.347506323898948 0 1 0 I I #
plane-surface $-1 0 0 15.347506323898948 0 0 1 1 0 0 forward_v I I I I #
coedge $-1 $271 $369 $358 $408 forward $264 $-1 #
coedge $-1 $267 $266 $357 $408 reversed $109 $-1 #
edge $-1 $365 -2.9551689702864365 $363 2.9551689702864365 $266 $409 forward 7 unknown #
coedge $-1 $279 $278 $267 $361 forward $280 $-1 #
edge $-1 $362 -2.9551689702864365 $410 2.9551689702864365 $267 $411 forward 7 unknown #
vertex $-1 $283 $412 #
vertex $-1 $273 $413 #
straight-curve $-1 -58.870761972027388 -60.079288327564228 0 0 0 -1 I I #
vertex $-1 $408 $414 #
straight-curve $-1 -52.960424031454515 -51.77165369314595 -15.347506323898948 0 -1 0 I I #
straight-curve $-1 -58.870761972027388 -51.77165369314595 -15.347506323898948 0 1 0 I I #
point $-1 -52.960424031454515 -43.464019058727672 -15.347506323898948 #
coedge $-1 $357 $276 $279 $371 reversed $264 $-1 #
straight-curve $-1 -52.960424031454515 -43.464019058727672 0 0 0 -1 I I #
edge $-1 $410 -8.3076346344182781 $281 8.3076346344182781 $369 $415 forward 7 unknown #
point $-1 -52.960424031454515 -43.464019058727672 15.347506323898948 #
straight-curve $-1 -58.870761972027388 -51.77165369314595 15.347506323898948 0 -1 0 I I #
coedge $-1 $297 $296 $289 $375 forward $286 $-1 #
edge $-1 $376 84.451577675711235 $379 89.459314535775803 $374 $416 forward 7 unknown #
vertex $-1 $301 $417 #
straight-curve $-1 50.65827675587154 -17.020035676739464 15.347506323898955 1 0 0 I I #
edge $-1 $379 -12.274332418376414 $298 2.7829259016503123 $297 $418 forward 7 unknown #
vertex $-1 $378 $419 #
straight-curve $-1 -9.9983281333308867 -17.020035676739464 121.65465110890838 -0.57357642473473569 0 0.81915205242281985 I I #
point $-1 64.438733764025059 -17.020035676739464 15.347506323898969 #
point $-1 67.945188756981111 -1.9627773567127385 10.339769463834372 #
straight-curve $-1 67.945188756981111 0 15.347506323898948 0 1 0 I I #
vertex $-1 $304 $420 #
point $-1 65.099434359154557 -12.71796187101754 10.857867768294959 #
vertex $-1 $308 $421 #
point $-1 65.099434359154557 -6.2648511624346597 10.857867768294959 #
edge $-1 $389 84.451577675711235 $392 89.459314535775803 $313 $422 forward 7 unknown #
vertex $-1 $327 $423 #
straight-curve $-1 50.65827675587154 18.578046625549309 15.347506323898955 1 0 0 I I #
edge $-1 $392 5.5247087327679729 $324 20.581967052794703 $323 $424 forward 7 unknown #
vertex $-1 $391 $425 #
straight-curve $-1 -9.9983281333308867 18.578046625549309 121.65465110890838 -0.57357642473473569 0 0.81915205242281985 I I #
point $-1 64.438733764025059 18.578046625549309 15.347506323898969 #
point $-1 67.945188756981111 33.635304945576038 10.339769463834372 #
straight-curve $-1 67.945188756981111 0 15.347506323898948 0 1 0 I I #
vertex $-1 $330 $426 #
point $-1 65.099434359154557 22.880120431271237 10.857867768294959 #
vertex $-1 $334 $427 #
point $-1 65.099434359154557 29.333231139854121 10.857867768294959 #
straight-curve $-1 -67.945188756981111 43.464019058727672 0 0 0 -1 I I #
straight-curve $-1 0 43.464019058727672 -15.347506323898948 1 0 0 I I #
point $-1 67.945188756981111 43.464019058727672 -15.347506323898948 #
straight-curve $-1 -67.945188756981111 0 15.347506323898948 0 -1 0 I I #
point $-1 -67.945188756981111 43.464019058727672 15.347506323898948 #
straight-curve $-1 67.945188756981111 43.464019058727672 0 0 0 -1 I I #
point $-1 -67.945188756981111 43.464019058727672 -15.347506323898948 #
edge $-1 $410 -15.347506323898948 $365 15.347506323898948 $357 $428 forward 7 unknown #
straight-curve $-1 -55.915593001740952 -60.079288327564228 -15.347506323898948 -1 0 0 I I #
vertex $-1 $371 $429 #
straight-curve $-1 -55.915593001740952 -60.079288327564228 15.347506323898948 1 0 0 I I #
point $-1 -58.870761972027388 -60.079288327564228 15.347506323898948 #
point $-1 -58.870761972027388 -60.079288327564228 -15.347506323898948 #
point $-1 -52.960424031454515 -60.079288327564228 -15.347506323898948 #
straight-curve $-1 -52.960424031454515 -51.77165369314595 15.347506323898948 0 1 0 I I #
straight-curve $-1 67.945188756981111 -17.020035676739464 99.799083999610176 0 0 -1 I I #
point $-1 67.945188756981111 -17.020035676739464 15.347506323898948 #
straight-curve $-1 67.945188756981111 -4.7457032583630507 10.339769463834365 0 1 0 I I #
point $-1 67.945188756981111 -17.020035676739464 10.339769463834372 #
point $-1 63.706705881996996 -12.71796187101754 11.103443395983044 #
point $-1 63.706705881996996 -6.2648511624346597 11.103443395983044 #
straight-curve $-1 67.945188756981111 18.578046625549309 99.799083999610176 0 0 -1 I I #
point $-1 67.945188756981111 18.578046625549309 15.347506323898948 #
straight-curve $-1 67.945188756981111 13.053337892781336 10.339769463834365 0 1 0 I I #
point $-1 67.945188756981111 18.578046625549309 10.339769463834372 #
point $-1 63.706705881996996 22.880120431271237 11.103443395983044 #
point $-1 63.706705881996996 29.333231139854121 11.103443395983044 #
straight-curve $-1 -52.960424031454515 -60.079288327564228 0 0 0 -1 I I #
point $-1 -52.960424031454515 -60.079288327564228 15.347506323898948 #
End-of-ACIS-data 