500 0 9 0           
7 Unknown 11 ACIS 5.0 NT 24 Fri Mar 26 03:38:27 1999 
-1 9.9999999999999995e-007 1e-010 
body $-1 $9 $-1 $10 #
body $-1 $11 $-1 $12 #
body $-1 $13 $-1 $14 #
body $-1 $15 $-1 $16 #
body $-1 $17 $-1 $18 #
body $-1 $19 $-1 $20 #
body $-1 $21 $-1 $22 #
body $-1 $23 $-1 $24 #
body $-1 $25 $-1 $26 #
lump $-1 $-1 $27 $0 #
transform $-1 1 0 0 0 1 0 0 0 1 43.071382793664355 25.706518680510783 7.1347808309591123 1 rotate no_reflect no_shear #
lump $-1 $-1 $28 $1 #
transform $-1 1 0 0 0 1 0 0 0 1 43.071382793664355 25.706518680510783 7.1347808309591123 1 rotate no_reflect no_shear #
lump $-1 $-1 $29 $2 #
transform $-1 1 0 0 0 1 0 0 0 1 43.071382793664355 25.706518680510783 7.1347808309591123 1 rotate no_reflect no_shear #
lump $-1 $-1 $30 $3 #
transform $-1 1 0 0 0 1 0 0 0 1 43.071382793664355 25.706518680510783 7.1347808309591123 1 rotate no_reflect no_shear #
lump $-1 $-1 $31 $4 #
transform $-1 1 0 0 0 1 0 0 0 1 43.071382793664355 25.706518680510783 7.1347808309591123 1 rotate no_reflect no_shear #
lump $-1 $-1 $32 $5 #
transform $-1 1 0 0 0 1 0 0 0 1 43.071382793664355 25.706518680510783 7.1347808309591123 1 rotate no_reflect no_shear #
lump $-1 $-1 $33 $6 #
transform $-1 1 0 0 0 1 0 0 0 1 43.071382793664355 25.706518680510783 7.1347808309591123 1 rotate no_reflect no_shear #
lump $-1 $-1 $34 $7 #
transform $-1 1 0 0 0 1 0 0 0 1 43.071382793664355 25.706518680510783 7.1347808309591123 1 rotate no_reflect no_shear #
lump $-1 $-1 $35 $8 #
transform $-1 1 0 0 0 1 0 0 0 1 43.071382793664355 25.706518680510783 7.1347808309591123 1 rotate no_reflect no_shear #
shell $-1 $-1 $-1 $36 $-1 $9 #
shell $-1 $-1 $-1 $37 $-1 $11 #
shell $-1 $-1 $-1 $38 $-1 $13 #
shell $-1 $-1 $-1 $39 $-1 $15 #
shell $-1 $-1 $-1 $40 $-1 $17 #
shell $-1 $-1 $-1 $41 $-1 $19 #
shell $-1 $-1 $-1 $42 $-1 $21 #
shell $-1 $-1 $-1 $43 $-1 $23 #
shell $-1 $-1 $-1 $44 $-1 $25 #
face $-1 $45 $46 $27 $-1 $47 forward single #
face $-1 $48 $49 $28 $-1 $50 forward single #
face $-1 $51 $52 $29 $-1 $53 forward single #
face $-1 $54 $55 $30 $-1 $56 reversed single #
face $-1 $57 $58 $31 $-1 $59 forward single #
face $-1 $60 $61 $32 $-1 $62 reversed single #
face $-1 $63 $64 $33 $-1 $65 forward single #
face $-1 $66 $67 $34 $-1 $68 reversed single #
face $-1 $69 $70 $35 $-1 $71 forward single #
face $-1 $72 $73 $27 $-1 $74 reversed single #
loop $-1 $-1 $75 $36 #
plane-surface $-1 0 0 7.1347808309591123 0 0 1 1 0 0 forward_v I I I I #
face $-1 $76 $77 $28 $-1 $78 reversed single #
loop $-1 $-1 $79 $37 #
plane-surface $-1 0 -21.277439138256952 0.40750564229001007 0 0 1 1 0 0 forward_v I I I I #
face $-1 $80 $81 $29 $-1 $82 reversed single #
loop $-1 $-1 $83 $38 #
plane-surface $-1 0 21.277439138256952 0.40750564229001007 0 0 1 1 0 0 forward_v I I I I #
face $-1 $84 $85 $30 $-1 $86 reversed single #
loop $-1 $-1 $87 $39 #
plane-surface $-1 -103.98351719736384 -8.4921995242973907 61.829010260582933 0 -1 0 0.70710678939079041 0 -0.70710677298230451 forward_v I I I I #
face $-1 $88 $89 $31 $-1 $90 forward single #
loop $-1 $91 $92 $40 #
cone-surface $-1 -38.253533929878273 -12.670279560150256 2.3169319346846167 0.70710678939079041 0 -0.70710677298230451 1.0606601594734568 0 1.0606601840861856 1 I I 0 1 1.5 forward I I I I #
face $-1 $93 $94 $32 $-1 $95 reversed single #
loop $-1 $-1 $96 $41 #
plane-surface $-1 47.322989887257322 -11.288214016224586 125.64596347154024 0 1 0 0.73135370988377701 0 0.68199835119979291 forward_v I I I I #
face $-1 $97 $98 $33 $-1 $99 forward single #
loop $-1 $100 $101 $42 #
cone-surface $-1 40.227791873834505 -7.3160119005124855 4.2718896125669339 -0.73135370988377701 0 -0.68199835119979291 0.68199835119979291 0 -0.73135370988377701 1 I I 0 1 1 forward I I I I #
face $-1 $102 $103 $34 $-1 $104 reversed single #
loop $-1 $-1 $105 $43 #
plane-surface $-1 47.322989887257322 5.5601455797785375 125.64596347154024 0 1 0 0.73135370988377701 0 0.68199835119979291 forward_v I I I I #
face $-1 $106 $107 $35 $-1 $108 forward single #
loop $-1 $109 $110 $44 #
cone-surface $-1 40.227791873834505 9.5323476954906354 4.2718896125669339 -0.73135370988377701 0 -0.68199835119979291 0.68199835119979291 0 -0.73135370988377701 1 I I 0 1 1 forward I I I I #
face $-1 $111 $112 $27 $-1 $113 reversed single #
loop $-1 $-1 $114 $45 #
plane-surface $-1 0 0 -7.1347808309591123 0 0 1 1 0 0 forward_v I I I I #
coedge $-1 $115 $116 $117 $118 forward $46 $-1 #
face $-1 $119 $120 $28 $-1 $121 reversed single #
loop $-1 $-1 $122 $48 #
plane-surface $-1 0 -21.277439138256952 -2.5924943577099899 0 0 1 1 0 0 forward_v I I I I #
coedge $-1 $123 $124 $125 $126 reversed $49 $-1 #
face $-1 $127 $128 $29 $-1 $129 reversed single #
loop $-1 $-1 $130 $51 #
plane-surface $-1 0 21.277439138256952 -2.5924943577099899 0 0 1 1 0 0 forward_v I I I I #
coedge $-1 $131 $132 $133 $134 reversed $52 $-1 #
face $-1 $135 $136 $30 $-1 $137 reversed single #
loop $-1 $-1 $138 $54 #
plane-surface $-1 -43.07138279366437 -12.670279560150256 0.91687727035581901 -0.70710678939079041 0 0.70710677298230451 0.70710677298230451 0 0.70710678939079041 forward_v I I I I #
coedge $-1 $139 $140 $141 $142 reversed $55 $-1 #
face $-1 $-1 $143 $31 $-1 $144 forward single #
loop $-1 $145 $146 $57 #
cone-surface $-1 -36.014306682207199 -12.670279560150256 0.077704738975043597 0.70710678939079041 0 -0.70710677298230451 0.53033007973672841 0 0.53033009204309278 1 I I -0.70710678118654757 0.70710678118654757 0.75 forward I I I I #
loop $-1 $-1 $147 $40 #
coedge $-1 $92 $92 $148 $149 reversed $58 $-1 #
face $-1 $150 $151 $32 $-1 $152 reversed single #
loop $-1 $-1 $153 $60 #
plane-surface $-1 -15.677841304684094 -7.316011900512482 66.896739373191792 0.73135370988377701 0 0.68199835119979291 0.68199835119979291 0 -0.73135370988377701 forward_v I I I I #
coedge $-1 $154 $155 $156 $157 reversed $61 $-1 #
face $-1 $-1 $158 $33 $-1 $159 forward single #
loop $-1 $160 $161 $63 #
cone-surface $-1 38.528672866338781 -7.3160119005124855 2.6874355434292205 -0.73135370988377701 0 -0.68199835119979291 0.34099917559989645 0 -0.36567685494188851 1 I I -0.70710678118654746 0.70710678118654746 0.5 forward I I I I #
loop $-1 $-1 $162 $42 #
coedge $-1 $101 $101 $163 $164 reversed $64 $-1 #
face $-1 $165 $166 $34 $-1 $167 reversed single #
loop $-1 $-1 $168 $66 #
plane-surface $-1 -15.677841304684094 9.5323476954906425 66.896739373191792 0.73135370988377701 0 0.68199835119979291 0.68199835119979291 0 -0.73135370988377701 forward_v I I I I #
coedge $-1 $169 $170 $171 $172 reversed $67 $-1 #
face $-1 $-1 $173 $35 $-1 $174 forward single #
loop $-1 $175 $176 $69 #
cone-surface $-1 38.528672866338781 9.5323476954906354 2.6874355434292205 -0.73135370988377701 0 -0.68199835119979291 0.34099917559989645 0 -0.36567685494188851 1 I I -0.70710678118654746 0.70710678118654746 0.5 forward I I I I #
loop $-1 $-1 $177 $44 #
coedge $-1 $110 $110 $178 $179 reversed $70 $-1 #
face $-1 $180 $181 $27 $-1 $182 reversed single #
loop $-1 $-1 $183 $72 #
plane-surface $-1 0 -25.706518680510783 0 0 1 0 0 0 1 forward_v I I I I #
coedge $-1 $184 $185 $186 $187 forward $73 $-1 #
coedge $-1 $188 $75 $189 $190 forward $46 $-1 #
coedge $-1 $75 $188 $191 $192 forward $46 $-1 #
coedge $-1 $193 $194 $75 $118 reversed $195 $-1 #
edge $-1 $196 -25.706518680510783 $197 25.706518680510783 $117 $198 forward 7 unknown #
face $-1 $199 $200 $28 $-1 $201 reversed single #
loop $-1 $-1 $202 $76 #
plane-surface $-1 0 -16.848359596003121 -1.0924943577099899 0 -1 0 0 0 -1 forward_v I I I I #
coedge $-1 $203 $204 $205 $206 reversed $77 $-1 #
coedge $-1 $207 $79 $208 $209 forward $49 $-1 #
coedge $-1 $79 $207 $210 $211 reversed $49 $-1 #
coedge $-1 $212 $213 $79 $126 forward $214 $-1 #
edge $-1 $215 6.209640026874645 $216 15.067799111382307 $125 $217 forward 7 unknown #
face $-1 $218 $219 $29 $-1 $220 reversed single #
loop $-1 $-1 $221 $80 #
plane-surface $-1 0 16.848359596003121 -1.0924943577099899 0 1 0 0 0 1 forward_v I I I I #
coedge $-1 $222 $223 $224 $225 reversed $81 $-1 #
coedge $-1 $226 $83 $227 $228 reversed $52 $-1 #
coedge $-1 $83 $226 $229 $230 forward $52 $-1 #
coedge $-1 $231 $232 $83 $134 forward $219 $-1 #
edge $-1 $233 -15.067799111382307 $234 -6.209640026874645 $133 $235 forward 7 unknown #
face $-1 $236 $237 $30 $-1 $238 reversed single #
loop $-1 $-1 $239 $84 #
plane-surface $-1 -103.98351719736384 -16.848359596003121 61.829010260582933 0 1 0 -0.70710678939079041 0 0.70710677298230451 forward_v I I I I #
coedge $-1 $240 $241 $242 $243 reversed $85 $-1 #
coedge $-1 $140 $87 $244 $245 reversed $55 $-1 #
coedge $-1 $87 $139 $240 $246 reversed $55 $-1 #
coedge $-1 $242 $247 $87 $142 forward $237 $-1 #
edge $-1 $248 23.779724299332354 $249 29.997627859935633 $141 $250 forward 7 unknown #
loop $-1 $-1 $148 $88 #
plane-surface $-1 -43.07138279366437 -12.670279560150256 0.91687727035581901 -0.70710678939079041 0 0.70710677298230451 0.70710677298230451 0 0.70710678939079041 forward_v I I I I #
loop $-1 $-1 $251 $57 #
coedge $-1 $146 $146 $147 $252 reversed $89 $-1 #
coedge $-1 $147 $147 $146 $252 forward $91 $-1 #
coedge $-1 $148 $148 $92 $149 forward $143 $-1 #
edge $-1 $253 0 $253 6.2831853071796004 $148 $254 forward 7 unknown #
face $-1 $255 $256 $32 $-1 $257 forward single #
loop $-1 $-1 $258 $93 #
plane-surface $-1 47.322989887257322 -3.3438097848003769 125.64596347154024 0 -1 0 -0.73135370988377701 0 -0.68199835119979291 forward_v I I I I #
coedge $-1 $259 $260 $261 $262 reversed $94 $-1 #
coedge $-1 $155 $96 $263 $264 reversed $61 $-1 #
coedge $-1 $96 $154 $259 $265 reversed $61 $-1 #
coedge $-1 $261 $266 $96 $157 forward $267 $-1 #
edge $-1 $268 55.688200904811012 $269 58.927073554519751 $156 $270 forward 7 unknown #
loop $-1 $-1 $163 $97 #
plane-surface $-1 -15.677841304684094 -7.316011900512482 66.896739373191792 0.73135370988377701 0 0.68199835119979291 0.68199835119979291 0 -0.73135370988377701 forward_v I I I I #
loop $-1 $-1 $271 $63 #
coedge $-1 $161 $161 $162 $272 reversed $98 $-1 #
coedge $-1 $162 $162 $161 $272 forward $100 $-1 #
coedge $-1 $163 $163 $101 $164 forward $158 $-1 #
edge $-1 $273 0 $273 6.2831853071796004 $163 $274 forward 7 unknown #
face $-1 $275 $276 $34 $-1 $277 reversed single #
loop $-1 $-1 $278 $102 #
plane-surface $-1 47.322989887257322 13.504549811202747 125.64596347154024 0 -1 0 -0.73135370988377701 0 -0.68199835119979291 forward_v I I I I #
coedge $-1 $279 $280 $281 $282 reversed $103 $-1 #
coedge $-1 $170 $105 $283 $284 reversed $67 $-1 #
coedge $-1 $105 $169 $279 $285 reversed $67 $-1 #
coedge $-1 $281 $286 $105 $172 forward $276 $-1 #
edge $-1 $287 55.688200904811012 $288 58.927073554519751 $171 $289 forward 7 unknown #
loop $-1 $-1 $178 $106 #
plane-surface $-1 -15.677841304684094 9.5323476954906425 66.896739373191792 0.73135370988377701 0 0.68199835119979291 0.68199835119979291 0 -0.73135370988377701 forward_v I I I I #
loop $-1 $-1 $290 $69 #
coedge $-1 $176 $176 $177 $291 reversed $107 $-1 #
coedge $-1 $177 $177 $176 $291 forward $109 $-1 #
coedge $-1 $178 $178 $110 $179 forward $173 $-1 #
edge $-1 $292 0 $292 6.2831853071796004 $178 $293 forward 7 unknown #
face $-1 $294 $295 $27 $-1 $296 reversed single #
loop $-1 $-1 $297 $111 #
plane-surface $-1 -43.071382793664355 0 0 1 0 0 0 0 -1 forward_v I I I I #
coedge $-1 $298 $191 $299 $300 forward $112 $-1 #
coedge $-1 $301 $114 $298 $302 forward $73 $-1 #
coedge $-1 $114 $301 $303 $304 forward $73 $-1 #
coedge $-1 $194 $193 $114 $187 reversed $195 $-1 #
edge $-1 $305 -25.706518680510783 $306 25.706518680510783 $186 $307 forward 7 unknown #
coedge $-1 $116 $115 $308 $309 forward $46 $-1 #
coedge $-1 $310 $311 $115 $190 reversed $295 $-1 #
edge $-1 $197 -43.071382793664355 $312 43.071382793664355 $189 $313 forward 7 unknown #
coedge $-1 $183 $314 $116 $192 reversed $112 $-1 #
edge $-1 $315 -43.071382793664355 $196 43.071382793664355 $191 $316 forward 7 unknown #
coedge $-1 $186 $117 $314 $317 forward $195 $-1 #
coedge $-1 $117 $186 $310 $318 reversed $195 $-1 #
loop $-1 $-1 $193 $294 #
vertex $-1 $118 $319 #
vertex $-1 $118 $320 #
straight-curve $-1 43.071382793664355 0 7.1347808309591123 0 1 0 I I #
face $-1 $321 $322 $28 $-1 $323 reversed single #
loop $-1 $-1 $324 $119 #
plane-surface $-1 -43.071382793664355 0 0 1 0 0 0 0 -1 forward_v I I I I #
coedge $-1 $325 $208 $213 $326 reversed $120 $-1 #
coedge $-1 $327 $122 $328 $329 reversed $77 $-1 #
coedge $-1 $122 $327 $325 $330 forward $77 $-1 #
coedge $-1 $213 $212 $122 $206 forward $214 $-1 #
edge $-1 $331 -15.067799111382307 $332 -6.209640026874645 $205 $333 forward 7 unknown #
coedge $-1 $124 $123 $324 $334 reversed $49 $-1 #
coedge $-1 $202 $335 $123 $209 reversed $120 $-1 #
edge $-1 $215 -43.071382793664355 $336 43.071382793664355 $208 $337 forward 7 unknown #
coedge $-1 $338 $339 $124 $211 forward $322 $-1 #
edge $-1 $216 -43.071382793664355 $340 43.071382793664355 $210 $341 forward 7 unknown #
coedge $-1 $205 $125 $339 $342 forward $214 $-1 #
coedge $-1 $125 $205 $202 $326 forward $214 $-1 #
loop $-1 $-1 $125 $321 #
vertex $-1 $126 $343 #
vertex $-1 $342 $344 #
straight-curve $-1 43.071382793664355 -10.638719569128476 0.40750564229001007 0 -1 0 I I #
face $-1 $345 $346 $29 $-1 $347 reversed single #
loop $-1 $-1 $133 $127 #
plane-surface $-1 43.071382793664355 0 0 -1 0 0 0 0 1 forward_v I I I I #
coedge $-1 $348 $229 $349 $350 reversed $128 $-1 #
coedge $-1 $351 $130 $348 $352 forward $81 $-1 #
coedge $-1 $130 $351 $353 $354 reversed $81 $-1 #
coedge $-1 $232 $231 $130 $225 forward $219 $-1 #
edge $-1 $355 6.209640026874645 $356 15.067799111382307 $224 $357 forward 7 unknown #
coedge $-1 $132 $131 $358 $359 reversed $52 $-1 #
coedge $-1 $360 $361 $131 $228 forward $362 $-1 #
edge $-1 $363 -43.071382793664355 $233 43.071382793664355 $227 $364 forward 7 unknown #
coedge $-1 $221 $365 $132 $230 reversed $128 $-1 #
edge $-1 $366 -43.071382793664355 $234 43.071382793664355 $229 $367 forward 7 unknown #
coedge $-1 $224 $133 $365 $368 forward $219 $-1 #
coedge $-1 $133 $224 $360 $369 reversed $219 $-1 #
vertex $-1 $369 $370 #
vertex $-1 $134 $371 #
straight-curve $-1 43.071382793664355 10.638719569128476 0.40750564229001007 0 -1 0 I I #
face $-1 $-1 $372 $30 $-1 $373 forward single #
loop $-1 $-1 $141 $135 #
plane-surface $-1 -43.071382793664355 0 0 1 0 0 0 0 -1 forward_v I I I I #
coedge $-1 $374 $375 $376 $377 reversed $136 $-1 #
coedge $-1 $378 $138 $140 $246 forward $85 $-1 #
coedge $-1 $138 $378 $374 $379 forward $85 $-1 #
coedge $-1 $376 $141 $138 $243 forward $237 $-1 #
edge $-1 $249 2.1570597442222628 $380 10.513219815927993 $242 $381 forward 7 unknown #
coedge $-1 $382 $383 $139 $245 forward $372 $-1 #
edge $-1 $384 -15.138279221333754 $248 -8.9203758050175637 $244 $385 forward 7 unknown #
edge $-1 $249 2.0097183471152325e-014 $384 8.7934434429067601 $140 $386 forward 7 unknown #
coedge $-1 $141 $376 $382 $387 reversed $237 $-1 #
vertex $-1 $387 $388 #
vertex $-1 $142 $389 #
straight-curve $-1 -43.071382793664355 -8.4921995242973907 30.914505130291467 0 0 -1 I I #
coedge $-1 $251 $251 $-1 $390 reversed $145 $-1 #
edge $-1 $391 0 $391 6.2831853071796004 $146 $392 forward 7 unknown #
vertex $-1 $149 $393 #
ellipse-curve $-1 -39.96243108550626 -12.670279560150256 4.0258290506574719 -0.70710678939079041 0 0.70710677298230451 1.0606601594734568 0 1.0606601840861856 1 I I #
face $-1 $-1 $267 $32 $-1 $394 reversed single #
loop $-1 $-1 $395 $150 #
plane-surface $-1 0 0 7.1347808309591123 0 0 1 1 0 0 forward_v I I I I #
coedge $-1 $396 $397 $398 $399 reversed $151 $-1 #
coedge $-1 $400 $153 $155 $265 forward $94 $-1 #
coedge $-1 $153 $400 $396 $401 forward $94 $-1 #
coedge $-1 $398 $156 $153 $262 forward $267 $-1 #
edge $-1 $269 -7.6302080659683451 $402 0.31419616545586404 $261 $403 forward 7 unknown #
coedge $-1 $404 $405 $154 $264 forward $256 $-1 #
edge $-1 $406 16.389590315483638 $268 19.409887850035695 $263 $407 forward 7 unknown #
edge $-1 $269 -86.142765587328711 $406 -81.71416612042583 $155 $408 forward 7 unknown #
coedge $-1 $156 $398 $404 $409 reversed $267 $-1 #
loop $-1 $-1 $398 $255 #
vertex $-1 $409 $410 #
vertex $-1 $157 $411 #
straight-curve $-1 43.071382793664355 -11.288214016224586 62.822981735770121 0 0 -1 I I #
coedge $-1 $271 $271 $-1 $412 reversed $160 $-1 #
edge $-1 $413 0 $413 6.2831853071796004 $161 $414 forward 7 unknown #
vertex $-1 $164 $415 #
ellipse-curve $-1 41.561234026388327 -7.3160119005124855 5.5153445061047393 0.73135370988377701 0 0.68199835119979291 0.68199835119979291 0 -0.73135370988377701 1 I I #
face $-1 $-1 $416 $34 $-1 $417 forward single #
loop $-1 $-1 $171 $165 #
plane-surface $-1 43.071382793664355 0 0 -1 0 0 0 0 1 forward_v I I I I #
coedge $-1 $418 $419 $420 $421 reversed $166 $-1 #
coedge $-1 $422 $168 $170 $285 forward $103 $-1 #
coedge $-1 $168 $422 $418 $423 forward $103 $-1 #
coedge $-1 $420 $171 $168 $282 forward $276 $-1 #
edge $-1 $288 0.79397173203321625 $424 8.7383759634574254 $281 $425 forward 7 unknown #
coedge $-1 $426 $427 $169 $284 forward $416 $-1 #
edge $-1 $428 16.389590315483638 $287 19.409887850035695 $283 $429 forward 7 unknown #
edge $-1 $288 -86.142765587328711 $428 -81.71416612042583 $170 $430 forward 7 unknown #
coedge $-1 $171 $420 $426 $431 reversed $276 $-1 #
vertex $-1 $431 $432 #
vertex $-1 $172 $433 #
straight-curve $-1 43.071382793664355 5.5601455797785375 62.822981735770121 0 0 -1 I I #
coedge $-1 $290 $290 $-1 $434 reversed $175 $-1 #
edge $-1 $435 0 $435 6.2831853071796004 $176 $436 forward 7 unknown #
vertex $-1 $179 $437 #
ellipse-curve $-1 41.561234026388327 9.5323476954906354 5.5153445061047393 0.73135370988377701 0 0.68199835119979291 0.68199835119979291 0 -0.73135370988377701 1 I I #
face $-1 $-1 $195 $27 $-1 $438 reversed single #
loop $-1 $-1 $310 $180 #
plane-surface $-1 0 25.706518680510783 0 0 -1 0 0 0 -1 forward_v I I I I #
coedge $-1 $439 $308 $311 $440 forward $181 $-1 #
coedge $-1 $314 $183 $184 $302 reversed $112 $-1 #
coedge $-1 $308 $439 $183 $300 reversed $181 $-1 #
edge $-1 $315 -7.1347808309591123 $441 7.1347808309591123 $299 $442 forward 7 unknown #
coedge $-1 $185 $184 $439 $443 forward $73 $-1 #
edge $-1 $306 -43.071382793664355 $441 43.071382793664355 $298 $444 forward 7 unknown #
coedge $-1 $311 $310 $185 $304 reversed $295 $-1 #
edge $-1 $445 -43.071382793664355 $305 43.071382793664355 $303 $446 forward 7 unknown #
vertex $-1 $187 $447 #
vertex $-1 $317 $448 #
straight-curve $-1 43.071382793664355 0 -7.1347808309591123 0 -1 0 I I #
coedge $-1 $297 $299 $188 $309 reversed $181 $-1 #
edge $-1 $312 -25.706518680510783 $315 25.706518680510783 $308 $449 forward 7 unknown #
coedge $-1 $303 $189 $194 $318 forward $295 $-1 #
coedge $-1 $189 $303 $297 $440 reversed $295 $-1 #
vertex $-1 $190 $450 #
straight-curve $-1 0 25.706518680510783 7.1347808309591123 -1 0 0 I I #
coedge $-1 $191 $298 $193 $317 reversed $112 $-1 #
vertex $-1 $309 $451 #
straight-curve $-1 0 -25.706518680510783 7.1347808309591123 1 0 0 I I #
edge $-1 $196 -7.1347808309591123 $306 7.1347808309591123 $193 $452 forward 7 unknown #
edge $-1 $197 -7.1347808309591123 $305 7.1347808309591123 $194 $453 forward 7 unknown #
point $-1 43.071382793664355 -25.706518680510783 7.1347808309591123 #
point $-1 43.071382793664355 25.706518680510783 7.1347808309591123 #
face $-1 $-1 $214 $28 $-1 $454 reversed single #
loop $-1 $-1 $210 $199 #
plane-surface $-1 0 -25.706518680510783 0 0 1 0 0 0 1 forward_v I I I I #
coedge $-1 $455 $456 $207 $334 forward $200 $-1 #
coedge $-1 $335 $202 $204 $330 reversed $120 $-1 #
edge $-1 $332 -2.046247178854995 $215 0.95375282114500504 $213 $457 forward 7 unknown #
coedge $-1 $204 $203 $458 $459 reversed $77 $-1 #
coedge $-1 $339 $338 $203 $329 forward $322 $-1 #
edge $-1 $460 -43.071382793664355 $331 43.071382793664355 $328 $461 forward 7 unknown #
edge $-1 $462 -43.071382793664355 $332 43.071382793664355 $325 $463 forward 7 unknown #
vertex $-1 $329 $464 #
vertex $-1 $206 $465 #
straight-curve $-1 43.071382793664355 -10.638719569128476 -2.5924943577099899 0 1 0 I I #
edge $-1 $340 -15.067799111382307 $336 -6.209640026874645 $324 $466 forward 7 unknown #
coedge $-1 $208 $325 $455 $467 reversed $120 $-1 #
vertex $-1 $334 $468 #
straight-curve $-1 0 -16.848359596003121 0.40750564229001007 -1 0 0 I I #
coedge $-1 $328 $210 $456 $469 forward $322 $-1 #
coedge $-1 $210 $328 $212 $342 reversed $322 $-1 #
vertex $-1 $469 $470 #
straight-curve $-1 0 -25.706518680510783 0.40750564229001007 -1 0 0 I I #
edge $-1 $216 -0.40750564229001007 $331 2.5924943577099899 $212 $471 forward 7 unknown #
point $-1 43.071382793664355 -16.848359596003121 0.40750564229001007 #
point $-1 43.071382793664355 -25.706518680510783 0.40750564229001007 #
face $-1 $-1 $362 $29 $-1 $472 reversed single #
loop $-1 $-1 $358 $218 #
plane-surface $-1 -43.071382793664355 0 0 1 0 0 0 0 -1 forward_v I I I I #
coedge $-1 $365 $221 $222 $352 reversed $128 $-1 #
coedge $-1 $358 $473 $221 $350 forward $346 $-1 #
edge $-1 $474 -2.046247178854995 $366 0.95375282114500504 $349 $475 forward 7 unknown #
coedge $-1 $223 $222 $473 $476 reversed $81 $-1 #
edge $-1 $355 -43.071382793664355 $474 43.071382793664355 $348 $477 forward 7 unknown #
coedge $-1 $361 $360 $223 $354 forward $362 $-1 #
edge $-1 $356 -43.071382793664355 $478 43.071382793664355 $353 $479 forward 7 unknown #
vertex $-1 $225 $480 #
vertex $-1 $354 $481 #
straight-curve $-1 43.071382793664355 10.638719569128476 -2.5924943577099899 0 1 0 I I #
coedge $-1 $482 $349 $226 $359 forward $346 $-1 #
edge $-1 $366 6.209640026874645 $363 15.067799111382307 $358 $483 forward 7 unknown #
coedge $-1 $353 $227 $232 $369 forward $362 $-1 #
coedge $-1 $227 $353 $482 $484 reversed $362 $-1 #
loop $-1 $-1 $227 $345 #
vertex $-1 $484 $485 #
straight-curve $-1 0 25.706518680510783 0.40750564229001007 1 0 0 I I #
coedge $-1 $229 $348 $231 $368 reversed $128 $-1 #
vertex $-1 $359 $486 #
straight-curve $-1 0 16.848359596003121 0.40750564229001007 1 0 0 I I #
edge $-1 $234 -0.95375282114500504 $355 2.046247178854995 $231 $487 forward 7 unknown #
edge $-1 $233 -0.40750564229001007 $356 2.5924943577099899 $232 $488 forward 7 unknown #
point $-1 43.071382793664355 25.706518680510783 0.40750564229001007 #
point $-1 43.071382793664355 16.848359596003121 0.40750564229001007 #
loop $-1 $-1 $244 $236 #
plane-surface $-1 0 0 7.1347808309591123 0 0 1 1 0 0 forward_v I I I I #
coedge $-1 $375 $239 $241 $379 reversed $136 $-1 #
coedge $-1 $239 $374 $489 $490 reversed $136 $-1 #
coedge $-1 $247 $242 $239 $377 forward $237 $-1 #
edge $-1 $380 -29.997627859935633 $491 -23.779724299332354 $376 $492 forward 7 unknown #
coedge $-1 $241 $240 $383 $493 reversed $85 $-1 #
edge $-1 $494 -8.7934434429067601 $380 -2.0097183471152325e-014 $374 $495 forward 7 unknown #
vertex $-1 $243 $496 #
straight-curve $-1 -43.071382793664355 -6.3351397800751279 0.91687727035583155 0 -1 0 I I #
coedge $-1 $489 $244 $247 $387 forward $372 $-1 #
coedge $-1 $244 $489 $378 $493 forward $372 $-1 #
vertex $-1 $245 $497 #
straight-curve $-1 -51.991758598681919 -8.4921995242973907 7.1347808309591123 -1 0 0 I I #
straight-curve $-1 -43.07138279366437 -8.4921995242973907 0.91687727035581901 0.70710677298230451 0 0.70710678939079041 I I #
edge $-1 $248 8.4921995242973907 $491 16.848359596003121 $247 $498 forward 7 unknown #
point $-1 -43.071382793664355 -8.4921995242973907 7.1347808309591123 #
point $-1 -43.071382793664355 -8.4921995242973907 0.91687727035583322 #
edge $-1 $499 1 $499 0 $251 $-1 forward 7 unknown #
vertex $-1 $252 $500 #
ellipse-curve $-1 -36.544636774250293 -12.670279560150256 0.60803481871177201 -0.70710678939079041 0 0.70710677298230451 1.0606601594734568 0 1.0606601840861856 1 I I #
point $-1 -38.901770926032796 -12.670279560150256 5.086489234743647 #
plane-surface $-1 43.071382793664355 0 0 -1 0 0 0 0 1 forward_v I I I I #
coedge $-1 $405 $404 $397 $501 forward $256 $-1 #
coedge $-1 $397 $258 $260 $401 reversed $151 $-1 #
coedge $-1 $258 $396 $395 $501 reversed $151 $-1 #
coedge $-1 $266 $261 $258 $399 forward $267 $-1 #
edge $-1 $402 -58.927073554519751 $502 -55.688200904811012 $398 $503 forward 7 unknown #
coedge $-1 $260 $259 $405 $504 reversed $94 $-1 #
edge $-1 $505 81.71416612042583 $402 86.142765587328711 $396 $506 forward 7 unknown #
vertex $-1 $262 $507 #
straight-curve $-1 43.071382793664355 -3.658005950256241 3.8959081812503733 0 1 0 I I #
coedge $-1 $395 $263 $266 $409 forward $256 $-1 #
coedge $-1 $263 $395 $400 $504 forward $256 $-1 #
vertex $-1 $264 $508 #
straight-curve $-1 23.661494943628661 -11.288214016224586 7.1347808309591159 1 0 0 I I #
straight-curve $-1 -15.677841304684094 -11.288214016224586 66.896739373191792 -0.68199835119979291 0 0.73135370988377701 I I #
edge $-1 $268 -11.288214016224586 $502 -3.3438097848003769 $266 $509 forward 7 unknown #
point $-1 43.071382793664355 -11.288214016224586 7.1347808309591123 #
point $-1 43.071382793664355 -11.288214016224586 3.8959081812503698 #
edge $-1 $510 1 $510 0 $271 $-1 forward 7 unknown #
vertex $-1 $272 $511 #
ellipse-curve $-1 38.894349721280669 -7.3160119005124855 3.028434719029117 0.73135370988377701 0 0.68199835119979291 0.68199835119979291 0 -0.73135370988377701 1 I I #
point $-1 42.243232377588136 -7.3160119005124855 4.7839907962209729 #
loop $-1 $-1 $283 $275 #
plane-surface $-1 0 0 7.1347808309591123 0 0 1 1 0 0 forward_v I I I I #
coedge $-1 $419 $278 $280 $423 reversed $166 $-1 #
coedge $-1 $278 $418 $512 $513 reversed $166 $-1 #
coedge $-1 $286 $281 $278 $421 forward $276 $-1 #
edge $-1 $424 -58.927073554519751 $514 -55.688200904811012 $420 $515 forward 7 unknown #
coedge $-1 $280 $279 $427 $516 reversed $103 $-1 #
edge $-1 $517 81.71416612042583 $424 86.142765587328711 $418 $518 forward 7 unknown #
vertex $-1 $282 $519 #
straight-curve $-1 43.071382793664355 4.7661738477453213 3.8959081812503733 0 1 0 I I #
coedge $-1 $512 $283 $286 $431 forward $416 $-1 #
coedge $-1 $283 $512 $422 $516 forward $416 $-1 #
vertex $-1 $284 $520 #
straight-curve $-1 23.661494943628661 5.5601455797785375 7.1347808309591159 1 0 0 I I #
straight-curve $-1 -15.677841304684094 5.5601455797785375 66.896739373191792 -0.68199835119979291 0 0.73135370988377701 I I #
edge $-1 $287 5.5601455797785375 $514 13.504549811202747 $286 $521 forward 7 unknown #
point $-1 43.071382793664355 5.5601455797785375 7.1347808309591123 #
point $-1 43.071382793664355 5.5601455797785375 3.8959081812503698 #
edge $-1 $522 1 $522 0 $290 $-1 forward 7 unknown #
vertex $-1 $291 $523 #
ellipse-curve $-1 38.894349721280669 9.5323476954906354 3.028434719029117 0.73135370988377701 0 0.68199835119979291 0.68199835119979291 0 -0.73135370988377701 1 I I #
point $-1 42.243232377588136 9.5323476954906354 4.7839907962209729 #
plane-surface $-1 43.071382793664355 0 0 -1 0 0 0 0 1 forward_v I I I I #
coedge $-1 $299 $297 $301 $443 reversed $181 $-1 #
edge $-1 $312 -7.1347808309591123 $445 7.1347808309591123 $311 $524 forward 7 unknown #
vertex $-1 $443 $525 #
straight-curve $-1 -43.071382793664355 -25.706518680510783 0 0 0 -1 I I #
edge $-1 $441 -25.706518680510783 $445 25.706518680510783 $439 $526 forward 7 unknown #
straight-curve $-1 0 -25.706518680510783 -7.1347808309591123 -1 0 0 I I #
vertex $-1 $304 $527 #
straight-curve $-1 0 25.706518680510783 -7.1347808309591123 1 0 0 I I #
point $-1 43.071382793664355 25.706518680510783 -7.1347808309591123 #
point $-1 43.071382793664355 -25.706518680510783 -7.1347808309591123 #
straight-curve $-1 -43.071382793664355 0 7.1347808309591123 0 -1 0 I I #
point $-1 -43.071382793664355 25.706518680510783 7.1347808309591123 #
point $-1 -43.071382793664355 -25.706518680510783 7.1347808309591123 #
straight-curve $-1 43.071382793664355 -25.706518680510783 0 0 0 -1 I I #
straight-curve $-1 43.071382793664355 25.706518680510783 0 0 0 -1 I I #
plane-surface $-1 43.071382793664355 0 0 -1 0 0 0 0 1 forward_v I I I I #
coedge $-1 $458 $324 $335 $467 forward $200 $-1 #
coedge $-1 $324 $458 $338 $469 reversed $200 $-1 #
straight-curve $-1 43.071382793664355 -16.848359596003121 -0.54624717885499496 0 0 1 I I #
coedge $-1 $456 $455 $327 $459 forward $200 $-1 #
edge $-1 $462 6.209640026874645 $460 15.067799111382307 $458 $528 forward 7 unknown #
vertex $-1 $329 $529 #
straight-curve $-1 0 -25.706518680510783 -2.5924943577099899 1 0 0 I I #
vertex $-1 $459 $530 #
straight-curve $-1 0 -16.848359596003121 -2.5924943577099899 1 0 0 I I #
point $-1 43.071382793664355 -25.706518680510783 -2.5924943577099899 #
point $-1 43.071382793664355 -16.848359596003121 -2.5924943577099899 #
straight-curve $-1 -43.071382793664355 -10.638719569128476 0.40750564229001007 0 1 0 I I #
edge $-1 $336 -0.95375282114500504 $462 2.046247178854995 $455 $531 forward 7 unknown #
point $-1 -43.071382793664355 -16.848359596003121 0.40750564229001007 #
edge $-1 $340 -0.40750564229001007 $460 2.5924943577099899 $456 $532 forward 7 unknown #
point $-1 -43.071382793664355 -25.706518680510783 0.40750564229001007 #
straight-curve $-1 43.071382793664355 -25.706518680510783 0 0 0 -1 I I #
plane-surface $-1 0 25.706518680510783 0 0 -1 0 0 0 -1 forward_v I I I I #
coedge $-1 $349 $482 $351 $476 forward $346 $-1 #
vertex $-1 $476 $533 #
straight-curve $-1 -43.071382793664355 16.848359596003121 -0.54624717885499496 0 0 1 I I #
edge $-1 $478 -15.067799111382307 $474 -6.209640026874645 $473 $534 forward 7 unknown #
straight-curve $-1 0 16.848359596003121 -2.5924943577099899 -1 0 0 I I #
vertex $-1 $354 $535 #
straight-curve $-1 0 25.706518680510783 -2.5924943577099899 -1 0 0 I I #
point $-1 43.071382793664355 16.848359596003121 -2.5924943577099899 #
point $-1 43.071382793664355 25.706518680510783 -2.5924943577099899 #
coedge $-1 $473 $358 $361 $484 forward $346 $-1 #
straight-curve $-1 -43.071382793664355 10.638719569128476 0.40750564229001007 0 1 0 I I #
edge $-1 $363 -0.40750564229001007 $478 2.5924943577099899 $361 $536 forward 7 unknown #
point $-1 -43.071382793664355 25.706518680510783 0.40750564229001007 #
point $-1 -43.071382793664355 16.848359596003121 0.40750564229001007 #
straight-curve $-1 43.071382793664355 16.848359596003121 -0.54624717885499496 0 0 -1 I I #
straight-curve $-1 43.071382793664355 25.706518680510783 0 0 0 -1 I I #
coedge $-1 $383 $382 $375 $490 forward $372 $-1 #
edge $-1 $491 8.9203758050175637 $494 15.138279221333754 $489 $537 forward 7 unknown #
vertex $-1 $490 $538 #
straight-curve $-1 -43.071382793664355 -16.848359596003121 30.914505130291467 0 0 1 I I #
edge $-1 $494 -10.513219815927993 $384 -2.1570597442222628 $383 $539 forward 7 unknown #
vertex $-1 $493 $540 #
straight-curve $-1 -43.07138279366437 -16.848359596003121 0.91687727035581901 -0.70710677298230451 0 -0.70710678939079041 I I #
point $-1 -43.071382793664355 -16.848359596003121 0.91687727035583322 #
point $-1 -36.853479377348165 -8.4921995242973907 7.1347808309591123 #
straight-curve $-1 -43.071382793664355 0 7.1347808309591123 0 -1 0 I I #
vertex $-1 $390 $541 #
point $-1 -35.483976614776836 -12.670279560150256 1.6686950027979575 #
edge $-1 $502 -19.409887850035695 $505 -16.389590315483638 $395 $542 forward 7 unknown #
vertex $-1 $399 $543 #
straight-curve $-1 43.071382793664355 -3.3438097848003769 62.822981735770121 0 0 1 I I #
edge $-1 $505 -0.31419616545586404 $406 7.6302080659683451 $405 $544 forward 7 unknown #
vertex $-1 $504 $545 #
straight-curve $-1 -15.677841304684094 -3.3438097848003769 66.896739373191792 0.68199835119979291 0 -0.73135370988377701 I I #
point $-1 43.071382793664355 -3.3438097848003769 3.8959081812503698 #
point $-1 40.051085259112298 -11.288214016224586 7.1347808309591159 #
straight-curve $-1 43.071382793664355 0 7.1347808309591123 0 1 0 I I #
vertex $-1 $412 $546 #
point $-1 39.576348072480464 -7.3160119005124855 2.29708100914534 #
coedge $-1 $427 $426 $419 $513 forward $416 $-1 #
edge $-1 $514 -19.409887850035695 $517 -16.389590315483638 $512 $547 forward 7 unknown #
vertex $-1 $513 $548 #
straight-curve $-1 43.071382793664355 13.504549811202747 62.822981735770121 0 0 1 I I #
edge $-1 $517 -8.7383759634574254 $428 -0.79397173203321625 $427 $549 forward 7 unknown #
vertex $-1 $516 $550 #
straight-curve $-1 -15.677841304684094 13.504549811202747 66.896739373191792 0.68199835119979291 0 -0.73135370988377701 I I #
point $-1 43.071382793664355 13.504549811202747 3.8959081812503698 #
point $-1 40.051085259112298 5.5601455797785375 7.1347808309591159 #
straight-curve $-1 43.071382793664355 0 7.1347808309591123 0 1 0 I I #
vertex $-1 $434 $551 #
point $-1 39.576348072480464 9.5323476954906354 2.29708100914534 #
straight-curve $-1 -43.071382793664355 25.706518680510783 0 0 0 -1 I I #
point $-1 -43.071382793664355 -25.706518680510783 -7.1347808309591123 #
straight-curve $-1 -43.071382793664355 0 -7.1347808309591123 0 1 0 I I #
point $-1 -43.071382793664355 25.706518680510783 -7.1347808309591123 #
straight-curve $-1 -43.071382793664355 -10.638719569128476 -2.5924943577099899 0 -1 0 I I #
point $-1 -43.071382793664355 -25.706518680510783 -2.5924943577099899 #
point $-1 -43.071382793664355 -16.848359596003121 -2.5924943577099899 #
straight-curve $-1 -43.071382793664355 -16.848359596003121 -0.54624717885499496 0 0 -1 I I #
straight-curve $-1 -43.071382793664355 -25.706518680510783 0 0 0 -1 I I #
point $-1 -43.071382793664355 16.848359596003121 -2.5924943577099899 #
straight-curve $-1 -43.071382793664355 10.638719569128476 -2.5924943577099899 0 -1 0 I I #
point $-1 -43.071382793664355 25.706518680510783 -2.5924943577099899 #
straight-curve $-1 -43.071382793664355 25.706518680510783 0 0 0 -1 I I #
straight-curve $-1 -51.991758598681919 -16.848359596003121 7.1347808309591123 1 0 0 I I #
point $-1 -43.071382793664355 -16.848359596003121 7.1347808309591123 #
straight-curve $-1 -36.853479377348172 -6.3351397800751279 7.1347808309591105 0 1 0 I I #
point $-1 -36.853479377348165 -16.848359596003121 7.1347808309591123 #
point $-1 -35.483976590164104 -12.670279560150256 -0.45262534076168481 #
straight-curve $-1 23.661494943628661 -3.3438097848003769 7.1347808309591159 -1 0 0 I I #
point $-1 43.071382793664355 -3.3438097848003769 7.1347808309591123 #
straight-curve $-1 40.051085259112313 -3.658005950256241 7.1347808309591088 0 -1 0 I I #
point $-1 40.051085259112298 -3.3438097848003769 7.1347808309591159 #
point $-1 38.162996011396892 -7.3160119005124855 2.3464363678293241 #
straight-curve $-1 23.661494943628661 13.504549811202747 7.1347808309591159 -1 0 0 I I #
point $-1 43.071382793664355 13.504549811202747 7.1347808309591123 #
straight-curve $-1 40.051085259112313 4.7661738477453213 7.1347808309591088 0 -1 0 I I #
point $-1 40.051085259112298 13.504549811202747 7.1347808309591159 #
point $-1 38.162996011396892 9.5323476954906354 2.3464363678293241 #
End-of-ACIS-data 