500 0 5 0           
7 Unknown 11 ACIS 5.0 NT 24 Thu Mar 25 16:48:05 1999 
-1 9.9999999999999995e-007 1e-010 
body $-1 $5 $-1 $6 #
body $-1 $7 $-1 $8 #
body $-1 $9 $-1 $10 #
body $-1 $11 $-1 $12 #
body $-1 $13 $-1 $14 #
lump $-1 $-1 $15 $0 #
transform $-1 1 0 0 0 1 0 0 0 1 65.61845759453108 42.501904251328767 16.43120738805986 1 rotate no_reflect no_shear #
lump $-1 $-1 $16 $1 #
transform $-1 1 0 0 0 1 0 0 0 1 65.61845759453108 42.501904251328767 16.43120738805986 1 rotate no_reflect no_shear #
lump $-1 $-1 $17 $2 #
transform $-1 1 0 0 0 1 0 0 0 1 65.61845759453108 42.501904251328767 16.43120738805986 1 rotate no_reflect no_shear #
lump $-1 $-1 $18 $3 #
transform $-1 1 0 0 0 1 0 0 0 1 65.61845759453108 42.501904251328767 16.43120738805986 1 rotate no_reflect no_shear #
lump $-1 $-1 $19 $4 #
transform $-1 1 0 0 0 1 0 0 0 1 65.61845759453108 42.501904251328767 16.43120738805986 1 rotate no_reflect no_shear #
shell $-1 $-1 $-1 $20 $-1 $5 #
shell $-1 $-1 $-1 $21 $-1 $7 #
shell $-1 $-1 $-1 $22 $-1 $9 #
shell $-1 $-1 $-1 $23 $-1 $11 #
shell $-1 $-1 $-1 $24 $-1 $13 #
face $-1 $25 $26 $15 $-1 $27 forward single #
face $-1 $28 $29 $16 $-1 $30 forward single #
face $-1 $31 $32 $17 $-1 $33 forward single #
face $-1 $34 $35 $18 $-1 $36 forward single #
face $-1 $37 $38 $19 $-1 $39 reversed single #
face $-1 $40 $41 $15 $-1 $42 reversed single #
loop $-1 $-1 $43 $20 #
plane-surface $-1 0 0 16.43120738805986 0 0 1 1 0 0 forward_v I I I I #
face $-1 $44 $45 $16 $-1 $46 forward single #
loop $-1 $-1 $47 $21 #
plane-surface $-1 -57.511900513209284 0 10.793739212821158 0 0 1 1 0 0 forward_v I I I I #
face $-1 $48 $49 $17 $-1 $50 forward single #
loop $-1 $-1 $51 $22 #
plane-surface $-1 57.511900513209284 0 10.793739212821158 0 0 1 1 0 0 forward_v I I I I #
face $-1 $52 $53 $18 $-1 $54 forward single #
loop $-1 $-1 $55 $23 #
plane-surface $-1 -21.674236121996113 93.584436520800921 150.45274843718528 1 0 0 0 -0.78801076186113728 -0.61566146476048833 forward_v I I I I #
face $-1 $56 $57 $19 $-1 $58 reversed single #
loop $-1 $59 $60 $24 #
cone-surface $-1 -8.9713619534939895 33.874569083919468 7.010418275603838 0 -0.78801076186113728 -0.61566146476048833 4 0 0 1 I I 0 1 4 forward I I I I #
face $-1 $61 $62 $15 $-1 $63 reversed single #
loop $-1 $-1 $64 $25 #
plane-surface $-1 0 0 -16.43120738805986 0 0 1 1 0 0 forward_v I I I I #
coedge $-1 $65 $66 $67 $68 forward $26 $-1 #
face $-1 $69 $70 $16 $-1 $71 forward single #
loop $-1 $-1 $72 $28 #
plane-surface $-1 -49.405343431887488 0 13.612473300440509 -1 0 0 0 0 1 forward_v I I I I #
coedge $-1 $73 $74 $75 $76 reversed $29 $-1 #
face $-1 $77 $78 $17 $-1 $79 forward single #
loop $-1 $-1 $80 $31 #
plane-surface $-1 49.405343431887488 0 13.612473300440509 1 0 0 0 0 -1 forward_v I I I I #
coedge $-1 $81 $82 $83 $84 reversed $32 $-1 #
face $-1 $85 $86 $18 $-1 $87 forward single #
loop $-1 $-1 $88 $34 #
plane-surface $-1 -8.9713619534939966 -9.8316650016374041 69.655237001239286 0 0.78801076186113728 0.61566146476048833 1 0 0 forward_v I I I I #
coedge $-1 $89 $90 $91 $92 reversed $35 $-1 #
face $-1 $93 $94 $19 $-1 $95 forward single #
loop $-1 $96 $97 $37 #
cone-surface $-1 -8.9713619534939895 29.046412933088163 3.2382493766758103 0 -0.78801076186113728 -0.61566146476048833 2 0 0 1 I I -0.70710678118654746 0.70710678118654746 2 forward I I I I #
loop $-1 $-1 $98 $24 #
coedge $-1 $60 $60 $99 $100 reversed $38 $-1 #
face $-1 $101 $102 $15 $-1 $103 reversed single #
loop $-1 $-1 $104 $40 #
plane-surface $-1 0 -42.501904251328767 0 0 1 0 0 0 1 forward_v I I I I #
coedge $-1 $105 $106 $107 $108 forward $41 $-1 #
coedge $-1 $109 $43 $110 $111 forward $26 $-1 #
coedge $-1 $43 $109 $112 $113 forward $26 $-1 #
coedge $-1 $114 $115 $43 $68 reversed $116 $-1 #
edge $-1 $117 -42.501904251328767 $118 42.501904251328767 $67 $119 forward 7 unknown #
face $-1 $120 $121 $16 $-1 $122 reversed single #
loop $-1 $-1 $123 $44 #
plane-surface $-1 0 0 16.43120738805986 0 0 1 1 0 0 forward_v I I I I #
coedge $-1 $124 $75 $125 $126 reversed $45 $-1 #
coedge $-1 $127 $47 $128 $129 reversed $29 $-1 #
coedge $-1 $47 $127 $130 $131 reversed $29 $-1 #
coedge $-1 $72 $132 $47 $76 forward $45 $-1 #
edge $-1 $133 -42.501904251328767 $134 42.501904251328767 $75 $135 forward 7 unknown #
face $-1 $136 $137 $17 $-1 $138 reversed single #
loop $-1 $-1 $139 $48 #
plane-surface $-1 0 0 16.43120738805986 0 0 1 1 0 0 forward_v I I I I #
coedge $-1 $140 $141 $142 $143 reversed $49 $-1 #
coedge $-1 $144 $51 $145 $146 reversed $32 $-1 #
coedge $-1 $51 $144 $147 $148 reversed $32 $-1 #
coedge $-1 $149 $150 $51 $84 forward $151 $-1 #
edge $-1 $152 -42.501904251328767 $153 42.501904251328767 $83 $154 forward 7 unknown #
face $-1 $155 $156 $18 $-1 $157 forward single #
loop $-1 $-1 $158 $52 #
plane-surface $-1 3.7315122150081201 93.584436520800921 150.45274843718528 -1 0 0 0 0.78801076186113728 0.61566146476048833 forward_v I I I I #
coedge $-1 $159 $160 $161 $162 reversed $53 $-1 #
coedge $-1 $90 $55 $160 $163 forward $35 $-1 #
coedge $-1 $55 $89 $164 $165 reversed $35 $-1 #
coedge $-1 $166 $161 $55 $92 forward $156 $-1 #
edge $-1 $167 -15.040715089672211 $168 -4.2903140090716931 $91 $169 forward 7 unknown #
face $-1 $170 $171 $19 $-1 $172 forward single #
loop $-1 $-1 $173 $56 #
plane-surface $-1 -21.674236121996113 93.584436520800921 150.45274843718528 1 0 0 0 -0.78801076186113728 -0.61566146476048833 forward_v I I I I #
loop $-1 $-1 $174 $37 #
coedge $-1 $97 $97 $98 $175 forward $57 $-1 #
coedge $-1 $98 $98 $97 $175 reversed $59 $-1 #
coedge $-1 $99 $99 $60 $100 forward $171 $-1 #
edge $-1 $176 -3.0615385267056351e-016 $176 6.2831853071796004 $99 $177 forward 7 unknown #
face $-1 $178 $179 $15 $-1 $180 reversed single #
loop $-1 $-1 $181 $61 #
plane-surface $-1 -65.61845759453108 0 0 1 0 0 0 0 -1 forward_v I I I I #
coedge $-1 $182 $112 $183 $184 forward $62 $-1 #
coedge $-1 $185 $64 $182 $186 forward $41 $-1 #
coedge $-1 $64 $185 $187 $188 forward $41 $-1 #
coedge $-1 $115 $114 $64 $108 reversed $116 $-1 #
edge $-1 $189 -42.501904251328767 $190 42.501904251328767 $107 $191 forward 7 unknown #
coedge $-1 $66 $65 $192 $193 forward $26 $-1 #
coedge $-1 $194 $195 $65 $111 reversed $179 $-1 #
edge $-1 $118 -65.61845759453108 $196 65.61845759453108 $110 $197 forward 7 unknown #
coedge $-1 $104 $198 $66 $113 reversed $62 $-1 #
edge $-1 $199 -65.61845759453108 $117 65.61845759453108 $112 $200 forward 7 unknown #
coedge $-1 $107 $67 $198 $201 forward $116 $-1 #
coedge $-1 $67 $107 $194 $202 reversed $116 $-1 #
loop $-1 $-1 $114 $178 #
vertex $-1 $68 $203 #
vertex $-1 $68 $204 #
straight-curve $-1 65.61845759453108 0 16.43120738805986 0 1 0 I I #
face $-1 $205 $206 $16 $-1 $207 reversed single #
loop $-1 $-1 $125 $69 #
plane-surface $-1 0 -42.501904251328767 0 0 1 0 0 0 1 forward_v I I I I #
coedge $-1 $208 $209 $124 $210 forward $70 $-1 #
coedge $-1 $132 $72 $123 $210 reversed $45 $-1 #
coedge $-1 $130 $211 $72 $126 forward $121 $-1 #
edge $-1 $212 -9.6249707378396057 $134 -3.9875025626009037 $125 $213 forward 7 unknown #
coedge $-1 $74 $73 $214 $215 reversed $29 $-1 #
coedge $-1 $216 $217 $73 $129 forward $218 $-1 #
edge $-1 $219 -36.862507337926438 $133 -20.649393175282846 $128 $220 forward 7 unknown #
coedge $-1 $221 $125 $74 $131 forward $121 $-1 #
edge $-1 $134 20.649393175282846 $222 36.862507337926438 $130 $223 forward 7 unknown #
coedge $-1 $75 $124 $216 $224 reversed $45 $-1 #
vertex $-1 $129 $225 #
vertex $-1 $131 $226 #
straight-curve $-1 -49.405343431887488 0 10.793739212821158 0 -1 0 I I #
face $-1 $227 $228 $17 $-1 $229 forward single #
loop $-1 $-1 $142 $77 #
plane-surface $-1 0 42.501904251328767 0 0 -1 0 0 0 -1 forward_v I I I I #
coedge $-1 $230 $231 $140 $232 forward $78 $-1 #
coedge $-1 $233 $80 $139 $232 reversed $49 $-1 #
coedge $-1 $80 $233 $144 $234 forward $49 $-1 #
coedge $-1 $145 $235 $80 $143 forward $137 $-1 #
edge $-1 $236 -9.6249707378396057 $237 -3.9875025626009037 $142 $238 forward 7 unknown #
coedge $-1 $82 $81 $141 $234 reversed $32 $-1 #
coedge $-1 $239 $142 $81 $146 forward $137 $-1 #
edge $-1 $237 20.649393175282846 $152 36.862507337926438 $145 $240 forward 7 unknown #
coedge $-1 $241 $242 $82 $148 forward $243 $-1 #
edge $-1 $153 -36.862507337926438 $244 -20.649393175282846 $147 $245 forward 7 unknown #
coedge $-1 $246 $83 $242 $247 forward $151 $-1 #
coedge $-1 $83 $246 $239 $248 reversed $151 $-1 #
loop $-1 $-1 $83 $249 #
vertex $-1 $248 $250 #
vertex $-1 $247 $251 #
straight-curve $-1 65.61845759453108 0 10.793739212821158 0 -1 0 I I #
face $-1 $252 $253 $18 $-1 $254 forward single #
loop $-1 $-1 $255 $85 #
plane-surface $-1 0 0 16.43120738805986 0 0 1 1 0 0 forward_v I I I I #
coedge $-1 $256 $257 $255 $258 reversed $86 $-1 #
coedge $-1 $259 $88 $257 $260 reversed $53 $-1 #
coedge $-1 $88 $259 $89 $163 reversed $53 $-1 #
coedge $-1 $91 $255 $88 $162 forward $156 $-1 #
edge $-1 $261 -8.2171931917551184 $167 17.188555145249115 $161 $262 forward 7 unknown #
edge $-1 $167 67.542262351181606 $263 85.003808502657506 $89 $264 forward 7 unknown #
coedge $-1 $265 $266 $90 $165 forward $267 $-1 #
edge $-1 $168 58.795166830532779 $263 72.555053116630717 $164 $268 forward 7 unknown #
coedge $-1 $269 $91 $266 $270 forward $156 $-1 #
vertex $-1 $162 $271 #
vertex $-1 $270 $272 #
straight-curve $-1 -21.674236121996113 46.79221826040046 16.43120738805986 0 1 0 I I #
face $-1 $273 $274 $19 $-1 $275 forward single #
loop $-1 $276 $99 $93 #
plane-surface $-1 -8.9713619534939966 -9.8316650016374041 69.655237001239286 0 0.78801076186113728 0.61566146476048833 1 0 0 forward_v I I I I #
coedge $-1 $277 $278 $279 $280 reversed $94 $-1 #
coedge $-1 $174 $174 $-1 $281 forward $96 $-1 #
edge $-1 $282 0 $282 6.2831853071796004 $97 $283 forward 7 unknown #
vertex $-1 $100 $284 #
ellipse-curve $-1 -8.9713619534939895 37.126703711028505 9.5512642450108949 0 -0.78801076186113728 -0.61566146476048833 4 0 0 1 I I #
face $-1 $-1 $116 $15 $-1 $285 reversed single #
loop $-1 $-1 $194 $101 #
plane-surface $-1 0 42.501904251328767 0 0 -1 0 0 0 -1 forward_v I I I I #
coedge $-1 $286 $192 $195 $287 forward $102 $-1 #
coedge $-1 $198 $104 $105 $186 reversed $62 $-1 #
coedge $-1 $192 $286 $104 $184 reversed $102 $-1 #
edge $-1 $199 -16.43120738805986 $288 16.43120738805986 $183 $289 forward 7 unknown #
coedge $-1 $106 $105 $286 $290 forward $41 $-1 #
edge $-1 $190 -65.61845759453108 $288 65.61845759453108 $182 $291 forward 7 unknown #
coedge $-1 $195 $194 $106 $188 reversed $179 $-1 #
edge $-1 $292 -65.61845759453108 $189 65.61845759453108 $187 $293 forward 7 unknown #
vertex $-1 $108 $294 #
vertex $-1 $201 $295 #
straight-curve $-1 65.61845759453108 0 -16.43120738805986 0 -1 0 I I #
coedge $-1 $181 $183 $109 $193 reversed $102 $-1 #
edge $-1 $196 -42.501904251328767 $199 42.501904251328767 $192 $296 forward 7 unknown #
coedge $-1 $187 $110 $115 $202 forward $179 $-1 #
coedge $-1 $110 $187 $181 $287 reversed $179 $-1 #
vertex $-1 $111 $297 #
straight-curve $-1 0 42.501904251328767 16.43120738805986 -1 0 0 I I #
coedge $-1 $112 $182 $114 $201 reversed $62 $-1 #
vertex $-1 $193 $298 #
straight-curve $-1 0 -42.501904251328767 16.43120738805986 1 0 0 I I #
edge $-1 $117 -16.43120738805986 $190 16.43120738805986 $114 $299 forward 7 unknown #
edge $-1 $118 -16.43120738805986 $189 16.43120738805986 $115 $300 forward 7 unknown #
point $-1 65.61845759453108 -42.501904251328767 16.43120738805986 #
point $-1 65.61845759453108 42.501904251328767 16.43120738805986 #
face $-1 $301 $302 $16 $-1 $303 reversed single #
loop $-1 $-1 $304 $120 #
plane-surface $-1 0 0 -16.43120738805986 0 0 1 1 0 0 forward_v I I I I #
coedge $-1 $305 $123 $211 $306 forward $70 $-1 #
coedge $-1 $123 $305 $307 $308 forward $70 $-1 #
edge $-1 $309 -42.501904251328767 $212 42.501904251328767 $123 $310 forward 7 unknown #
coedge $-1 $125 $311 $208 $306 reversed $121 $-1 #
vertex $-1 $306 $312 #
straight-curve $-1 -49.405343431887488 -42.501904251328767 6.8062366502202547 0 0 -1 I I #
coedge $-1 $313 $314 $127 $215 forward $302 $-1 #
edge $-1 $222 -42.501904251328767 $219 42.501904251328767 $214 $315 forward 7 unknown #
coedge $-1 $307 $128 $132 $224 forward $218 $-1 #
coedge $-1 $128 $316 $313 $317 reversed $218 $-1 #
loop $-1 $-1 $216 $301 #
vertex $-1 $317 $318 #
straight-curve $-1 -28.755950256604642 42.501904251328767 10.793739212821158 1 0 0 I I #
coedge $-1 $319 $130 $314 $320 forward $121 $-1 #
vertex $-1 $320 $321 #
straight-curve $-1 -28.755950256604642 -42.501904251328767 10.793739212821158 -1 0 0 I I #
edge $-1 $133 3.9875025626009037 $309 9.6249707378396057 $216 $322 forward 7 unknown #
point $-1 -49.405343431887488 42.501904251328767 10.793739212821158 #
point $-1 -49.405343431887488 -42.501904251328767 10.793739212821158 #
face $-1 $323 $324 $17 $-1 $325 forward single #
loop $-1 $-1 $326 $136 #
plane-surface $-1 -57.511900513209284 0 10.793739212821158 0 0 1 1 0 0 forward_v I I I I #
coedge $-1 $327 $139 $235 $328 forward $78 $-1 #
coedge $-1 $139 $327 $329 $330 forward $78 $-1 #
edge $-1 $331 -42.501904251328767 $236 42.501904251328767 $139 $332 forward 7 unknown #
coedge $-1 $141 $140 $241 $333 reversed $49 $-1 #
edge $-1 $244 -42.501904251328767 $237 42.501904251328767 $141 $334 forward 7 unknown #
coedge $-1 $142 $335 $230 $328 reversed $137 $-1 #
vertex $-1 $328 $336 #
vertex $-1 $146 $337 #
straight-curve $-1 49.405343431887488 42.501904251328767 6.8062366502202547 0 0 -1 I I #
coedge $-1 $338 $145 $150 $248 forward $137 $-1 #
straight-curve $-1 28.755950256604642 42.501904251328767 10.793739212821158 1 0 0 I I #
coedge $-1 $329 $147 $233 $333 forward $243 $-1 #
coedge $-1 $147 $339 $149 $247 reversed $243 $-1 #
loop $-1 $-1 $241 $323 #
vertex $-1 $148 $340 #
straight-curve $-1 28.755950256604642 -42.501904251328767 10.793739212821158 -1 0 0 I I #
coedge $-1 $150 $149 $341 $342 reversed $151 $-1 #
edge $-1 $153 -10.793739212821158 $343 16.43120738805986 $149 $344 forward 7 unknown #
edge $-1 $152 -10.793739212821158 $345 16.43120738805986 $150 $346 forward 7 unknown #
face $-1 $-1 $151 $17 $-1 $347 reversed single #
point $-1 65.61845759453108 42.501904251328767 10.793739212821158 #
point $-1 65.61845759453108 -42.501904251328767 10.793739212821158 #
face $-1 $348 $349 $18 $-1 $350 forward single #
loop $-1 $-1 $351 $155 #
plane-surface $-1 57.511900513209284 0 10.793739212821158 0 0 1 1 0 0 forward_v I I I I #
coedge $-1 $161 $352 $158 $258 forward $156 $-1 #
coedge $-1 $257 $158 $353 $354 reversed $86 $-1 #
coedge $-1 $158 $256 $159 $260 forward $86 $-1 #
edge $-1 $355 4.2903140090716931 $261 15.040715089672211 $255 $356 forward 7 unknown #
coedge $-1 $160 $159 $265 $357 reversed $53 $-1 #
edge $-1 $358 -85.003808502657506 $261 -67.542262351181606 $257 $359 forward 7 unknown #
vertex $-1 $162 $360 #
straight-curve $-1 -4.4856809767469983 31.751503170728249 16.43120738805986 -1 0 0 I I #
vertex $-1 $357 $361 #
straight-curve $-1 -21.674236121996113 -9.8316650016374041 69.655237001239286 0 0.61566146476048833 -0.78801076186113728 I I #
coedge $-1 $353 $164 $259 $357 forward $267 $-1 #
coedge $-1 $164 $362 $166 $270 reversed $267 $-1 #
loop $-1 $-1 $353 $348 #
straight-curve $-1 -21.674236121996113 42.501904251328767 75.226374218592639 0 0 -1 I I #
coedge $-1 $363 $166 $364 $365 forward $156 $-1 #
edge $-1 $168 21.674236121996113 $366 49.405343431887488 $266 $367 forward 7 unknown #
point $-1 -21.674236121996113 31.751503170728249 16.43120738805986 #
point $-1 -21.674236121996113 42.501904251328767 16.43120738805986 #
face $-1 $368 $369 $19 $-1 $370 forward single #
loop $-1 $-1 $371 $170 #
plane-surface $-1 3.7315122150081201 93.584436520800921 150.45274843718528 -1 0 0 0 0.78801076186113728 0.61566146476048833 forward_v I I I I #
loop $-1 $-1 $372 $93 #
coedge $-1 $278 $173 $373 $374 forward $94 $-1 #
coedge $-1 $173 $277 $375 $376 reversed $94 $-1 #
coedge $-1 $377 $378 $173 $280 forward $369 $-1 #
edge $-1 $379 -15.040715089672211 $380 -4.2903140090716931 $279 $381 forward 7 unknown #
edge $-1 $382 1 $382 0 $174 $-1 forward 7 unknown #
vertex $-1 $175 $383 #
ellipse-curve $-1 -8.9713619534939895 30.622434456810439 4.4695723061967865 0 0.78801076186113728 0.61566146476048833 4 0 0 1 I I #
point $-1 -4.9713619534939895 37.126703711028497 9.5512642450108878 #
plane-surface $-1 65.61845759453108 0 0 -1 0 0 0 0 1 forward_v I I I I #
coedge $-1 $183 $181 $185 $290 reversed $102 $-1 #
edge $-1 $196 -16.43120738805986 $292 16.43120738805986 $195 $384 forward 7 unknown #
vertex $-1 $290 $385 #
straight-curve $-1 -65.61845759453108 -42.501904251328767 0 0 0 -1 I I #
edge $-1 $288 -42.501904251328767 $292 42.501904251328767 $286 $386 forward 7 unknown #
straight-curve $-1 0 -42.501904251328767 -16.43120738805986 -1 0 0 I I #
vertex $-1 $188 $387 #
straight-curve $-1 0 42.501904251328767 -16.43120738805986 1 0 0 I I #
point $-1 65.61845759453108 42.501904251328767 -16.43120738805986 #
point $-1 65.61845759453108 -42.501904251328767 -16.43120738805986 #
straight-curve $-1 -65.61845759453108 0 16.43120738805986 0 -1 0 I I #
point $-1 -65.61845759453108 42.501904251328767 16.43120738805986 #
point $-1 -65.61845759453108 -42.501904251328767 16.43120738805986 #
straight-curve $-1 65.61845759453108 -42.501904251328767 0 0 0 -1 I I #
straight-curve $-1 65.61845759453108 42.501904251328767 0 0 0 -1 I I #
face $-1 $388 $218 $16 $-1 $389 reversed single #
loop $-1 $-1 $214 $205 #
plane-surface $-1 -65.61845759453108 0 0 1 0 0 0 0 -1 forward_v I I I I #
coedge $-1 $390 $391 $392 $393 forward $206 $-1 #
coedge $-1 $209 $208 $394 $395 forward $70 $-1 #
edge $-1 $212 -49.405343431887488 $396 65.61845759453108 $211 $397 forward 7 unknown #
coedge $-1 $398 $216 $209 $308 reversed $218 $-1 #
edge $-1 $399 -65.61845759453108 $309 49.405343431887488 $307 $400 forward 7 unknown #
vertex $-1 $210 $401 #
straight-curve $-1 -49.405343431887488 0 16.43120738805986 0 -1 0 I I #
coedge $-1 $211 $319 $402 $403 reversed $121 $-1 #
point $-1 -49.405343431887488 -42.501904251328767 16.43120738805986 #
coedge $-1 $404 $214 $217 $317 forward $302 $-1 #
coedge $-1 $214 $404 $221 $320 reversed $302 $-1 #
straight-curve $-1 -65.61845759453108 0 10.793739212821158 0 1 0 I I #
coedge $-1 $217 $398 $391 $405 reversed $218 $-1 #
edge $-1 $219 -10.793739212821158 $406 16.43120738805986 $217 $407 forward 7 unknown #
point $-1 -65.61845759453108 42.501904251328767 10.793739212821158 #
coedge $-1 $311 $221 $390 $408 reversed $121 $-1 #
edge $-1 $222 -10.793739212821158 $409 16.43120738805986 $314 $410 forward 7 unknown #
point $-1 -65.61845759453108 -42.501904251328767 10.793739212821158 #
straight-curve $-1 -49.405343431887488 42.501904251328767 6.8062366502202547 0 0 1 I I #
face $-1 $411 $243 $17 $-1 $412 reversed single #
loop $-1 $-1 $413 $227 #
plane-surface $-1 -49.405343431887488 0 13.612473300440509 -1 0 0 0 0 1 forward_v I I I I #
coedge $-1 $414 $415 $416 $417 reversed $228 $-1 #
coedge $-1 $231 $230 $418 $419 forward $78 $-1 #
edge $-1 $236 -49.405343431887488 $420 49.405343431887488 $235 $421 forward 7 unknown #
coedge $-1 $422 $241 $231 $330 reversed $243 $-1 #
edge $-1 $423 -49.405343431887488 $331 49.405343431887488 $329 $424 forward 7 unknown #
vertex $-1 $232 $425 #
straight-curve $-1 49.405343431887488 0 16.43120738805986 0 1 0 I I #
edge $-1 $244 3.9875025626009037 $331 9.6249707378396057 $241 $426 forward 7 unknown #
straight-curve $-1 49.405343431887488 0 10.793739212821158 0 1 0 I I #
coedge $-1 $235 $427 $428 $429 forward $137 $-1 #
point $-1 49.405343431887488 42.501904251328767 16.43120738805986 #
point $-1 49.405343431887488 42.501904251328767 10.793739212821158 #
coedge $-1 $430 $239 $431 $432 reversed $137 $-1 #
coedge $-1 $242 $433 $434 $435 reversed $243 $-1 #
point $-1 49.405343431887488 -42.501904251328767 10.793739212821158 #
coedge $-1 $434 $431 $246 $342 forward $436 $-1 #
edge $-1 $345 -42.501904251328767 $343 42.501904251328767 $246 $437 forward 7 unknown #
vertex $-1 $247 $438 #
straight-curve $-1 65.61845759453108 -42.501904251328767 0 0 0 -1 I I #
vertex $-1 $342 $439 #
straight-curve $-1 65.61845759453108 42.501904251328767 0 0 0 -1 I I #
plane-surface $-1 65.61845759453108 0 0 -1 0 0 0 0 1 forward_v I I I I #
face $-1 $440 $267 $18 $-1 $441 reversed single #
loop $-1 $-1 $442 $252 #
plane-surface $-1 49.405343431887488 0 13.612473300440509 1 0 0 0 0 -1 forward_v I I I I #
coedge $-1 $443 $444 $445 $446 reversed $253 $-1 #
coedge $-1 $255 $447 $448 $449 forward $156 $-1 #
coedge $-1 $448 $265 $256 $354 forward $267 $-1 #
edge $-1 $358 -72.555053116630717 $355 -58.795166830532779 $353 $450 forward 7 unknown #
vertex $-1 $354 $451 #
straight-curve $-1 3.7315122150081201 46.79221826040046 16.43120738805986 0 -1 0 I I #
edge $-1 $263 -17.188555145249115 $358 8.2171931917551184 $265 $452 forward 7 unknown #
vertex $-1 $357 $453 #
straight-curve $-1 3.7315122150081201 -9.8316650016374041 69.655237001239286 0 -0.61566146476048833 0.78801076186113728 I I #
point $-1 3.7315122150081201 31.751503170728249 16.43120738805986 #
point $-1 -21.674236121996113 42.501904251328767 2.6713211019619223 #
coedge $-1 $266 $454 $455 $456 forward $267 $-1 #
coedge $-1 $447 $269 $457 $458 forward $156 $-1 #
coedge $-1 $455 $459 $269 $365 reversed $460 $-1 #
edge $-1 $366 -42.501904251328767 $461 42.501904251328767 $269 $462 forward 7 unknown #
vertex $-1 $365 $463 #
straight-curve $-1 0 42.501904251328767 16.43120738805986 -1 0 0 I I #
face $-1 $464 $465 $19 $-1 $466 forward single #
loop $-1 $-1 $467 $273 #
plane-surface $-1 0 0 16.43120738805986 0 0 1 1 0 0 forward_v I I I I #
coedge $-1 $468 $469 $467 $470 reversed $274 $-1 #
coedge $-1 $471 $373 $378 $472 reversed $276 $-1 #
coedge $-1 $372 $473 $277 $374 reversed $276 $-1 #
edge $-1 $379 67.542262351181606 $474 85.003808502657506 $277 $475 forward 7 unknown #
coedge $-1 $476 $477 $278 $376 forward $478 $-1 #
edge $-1 $380 58.795166830532779 $474 72.555053116630717 $375 $479 forward 7 unknown #
coedge $-1 $480 $279 $477 $481 forward $369 $-1 #
coedge $-1 $279 $467 $372 $472 forward $369 $-1 #
vertex $-1 $472 $482 #
vertex $-1 $481 $483 #
straight-curve $-1 -21.674236121996113 46.79221826040046 16.43120738805986 0 1 0 I I #
vertex $-1 $281 $484 #
point $-1 -4.9713619534939895 30.622434456810439 4.4695723061967865 #
straight-curve $-1 -65.61845759453108 42.501904251328767 0 0 0 -1 I I #
point $-1 -65.61845759453108 -42.501904251328767 -16.43120738805986 #
straight-curve $-1 -65.61845759453108 0 -16.43120738805986 0 1 0 I I #
point $-1 -65.61845759453108 42.501904251328767 -16.43120738805986 #
face $-1 $-1 $485 $16 $-1 $486 reversed single #
plane-surface $-1 0 42.501904251328767 0 0 -1 0 0 0 -1 forward_v I I I I #
coedge $-1 $487 $304 $319 $408 forward $206 $-1 #
coedge $-1 $304 $487 $316 $405 forward $206 $-1 #
coedge $-1 $488 $402 $304 $393 reversed $485 $-1 #
edge $-1 $489 -42.501904251328767 $490 42.501904251328767 $392 $491 forward 7 unknown #
coedge $-1 $402 $488 $305 $395 reversed $485 $-1 #
edge $-1 $396 -42.501904251328767 $399 42.501904251328767 $394 $492 forward 7 unknown #
vertex $-1 $395 $493 #
straight-curve $-1 0 -42.501904251328767 16.43120738805986 1 0 0 I I #
coedge $-1 $316 $307 $488 $494 forward $218 $-1 #
vertex $-1 $395 $495 #
straight-curve $-1 0 42.501904251328767 16.43120738805986 -1 0 0 I I #
point $-1 -49.405343431887488 42.501904251328767 16.43120738805986 #
coedge $-1 $392 $394 $311 $403 forward $485 $-1 #
edge $-1 $396 -16.43120738805986 $490 16.43120738805986 $402 $496 forward 7 unknown #
coedge $-1 $314 $313 $487 $497 reversed $302 $-1 #
edge $-1 $406 -65.61845759453108 $489 65.61845759453108 $316 $498 forward 7 unknown #
vertex $-1 $405 $499 #
straight-curve $-1 -65.61845759453108 42.501904251328767 0 0 0 -1 I I #
edge $-1 $490 -65.61845759453108 $409 65.61845759453108 $319 $500 forward 7 unknown #
vertex $-1 $497 $501 #
straight-curve $-1 -65.61845759453108 -42.501904251328767 0 0 0 -1 I I #
face $-1 $502 $436 $17 $-1 $503 reversed single #
plane-surface $-1 0 -42.501904251328767 0 0 1 0 0 0 1 forward_v I I I I #
coedge $-1 $418 $416 $422 $504 reversed $324 $-1 #
coedge $-1 $505 $326 $427 $506 reversed $228 $-1 #
coedge $-1 $326 $505 $507 $508 reversed $228 $-1 #
coedge $-1 $413 $428 $326 $417 forward $324 $-1 #
edge $-1 $509 -42.501904251328767 $510 42.501904251328767 $416 $511 forward 7 unknown #
coedge $-1 $428 $413 $327 $419 reversed $324 $-1 #
edge $-1 $420 -42.501904251328767 $423 42.501904251328767 $327 $512 forward 7 unknown #
vertex $-1 $419 $513 #
straight-curve $-1 0 42.501904251328767 16.43120738805986 -1 0 0 I I #
coedge $-1 $507 $329 $413 $504 forward $243 $-1 #
vertex $-1 $330 $514 #
straight-curve $-1 0 -42.501904251328767 16.43120738805986 1 0 0 I I #
point $-1 49.405343431887488 -42.501904251328767 16.43120738805986 #
straight-curve $-1 49.405343431887488 -42.501904251328767 6.8062366502202547 0 0 1 I I #
coedge $-1 $335 $430 $414 $506 forward $137 $-1 #
coedge $-1 $416 $418 $335 $429 reversed $324 $-1 #
edge $-1 $509 3.9875025626009037 $420 9.6249707378396057 $335 $515 forward 7 unknown #
coedge $-1 $427 $338 $516 $517 reversed $137 $-1 #
coedge $-1 $341 $518 $338 $432 forward $436 $-1 #
edge $-1 $519 -65.61845759453108 $345 65.61845759453108 $338 $520 forward 7 unknown #
coedge $-1 $339 $507 $521 $522 forward $243 $-1 #
coedge $-1 $518 $341 $339 $435 forward $436 $-1 #
edge $-1 $343 -65.61845759453108 $523 65.61845759453108 $339 $524 forward 7 unknown #
loop $-1 $-1 $341 $411 #
straight-curve $-1 65.61845759453108 0 -16.43120738805986 0 -1 0 I I #
point $-1 65.61845759453108 -42.501904251328767 -16.43120738805986 #
point $-1 65.61845759453108 42.501904251328767 -16.43120738805986 #
face $-1 $525 $526 $18 $-1 $527 forward single #
plane-surface $-1 0 42.501904251328767 0 0 -1 0 0 0 -1 forward_v I I I I #
coedge $-1 $528 $529 $530 $531 reversed $349 $-1 #
coedge $-1 $532 $351 $533 $534 reversed $253 $-1 #
coedge $-1 $351 $532 $535 $536 reversed $253 $-1 #
coedge $-1 $537 $538 $351 $446 forward $539 $-1 #
edge $-1 $540 -42.501904251328767 $541 42.501904251328767 $445 $542 forward 7 unknown #
coedge $-1 $352 $363 $528 $543 forward $156 $-1 #
coedge $-1 $530 $353 $352 $449 reversed $267 $-1 #
edge $-1 $544 -49.405343431887488 $355 -3.7315122150081201 $448 $367 forward 7 unknown #
straight-curve $-1 3.7315122150081201 42.501904251328767 75.226374218592639 0 0 1 I I #
point $-1 3.7315122150081201 42.501904251328767 16.43120738805986 #
straight-curve $-1 -4.4856809767469983 42.501904251328767 2.6713211019619294 1 0 0 I I #
point $-1 3.7315122150081201 42.501904251328767 2.6713211019619223 #
coedge $-1 $362 $545 $546 $547 forward $267 $-1 #
coedge $-1 $548 $364 $362 $456 reversed $460 $-1 #
edge $-1 $549 3.9875025626009037 $366 9.6249707378396057 $362 $550 forward 7 unknown #
coedge $-1 $551 $552 $363 $458 reversed $553 $-1 #
edge $-1 $461 -49.405343431887488 $554 49.405343431887488 $457 $555 forward 7 unknown #
coedge $-1 $364 $548 $551 $556 reversed $460 $-1 #
loop $-1 $-1 $459 $525 #
vertex $-1 $458 $557 #
straight-curve $-1 -49.405343431887488 0 16.43120738805986 0 -1 0 I I #
point $-1 -49.405343431887488 42.501904251328767 16.43120738805986 #
face $-1 $558 $559 $19 $-1 $560 forward single #
loop $-1 $-1 $561 $368 #
plane-surface $-1 57.511900513209284 0 10.793739212821158 0 0 1 1 0 0 forward_v I I I I #
coedge $-1 $378 $562 $371 $470 forward $369 $-1 #
coedge $-1 $469 $371 $563 $564 reversed $274 $-1 #
coedge $-1 $371 $468 $471 $565 forward $274 $-1 #
edge $-1 $566 4.2903140090716931 $567 15.040715089672211 $467 $568 forward 7 unknown #
coedge $-1 $473 $372 $469 $565 reversed $276 $-1 #
edge $-1 $567 -8.2171931917551184 $379 17.188555145249115 $378 $569 forward 7 unknown #
coedge $-1 $373 $471 $476 $570 reversed $276 $-1 #
vertex $-1 $570 $571 #
straight-curve $-1 -21.674236121996113 -9.8316650016374041 69.655237001239286 0 0.61566146476048833 -0.78801076186113728 I I #
coedge $-1 $563 $375 $473 $570 forward $478 $-1 #
coedge $-1 $375 $572 $377 $481 reversed $478 $-1 #
loop $-1 $-1 $563 $558 #
straight-curve $-1 -21.674236121996113 42.501904251328767 75.226374218592639 0 0 -1 I I #
coedge $-1 $573 $377 $574 $575 forward $369 $-1 #
edge $-1 $380 21.674236121996113 $576 49.405343431887488 $477 $577 forward 7 unknown #
point $-1 -21.674236121996113 31.751503170728249 16.43120738805986 #
point $-1 -21.674236121996113 42.501904251328767 16.43120738805986 #
point $-1 -8.9713619534939895 27.470391409365888 2.0069264471548336 #
loop $-1 $-1 $402 $388 #
plane-surface $-1 65.61845759453108 0 0 -1 0 0 0 0 1 forward_v I I I I #
coedge $-1 $391 $390 $404 $497 forward $206 $-1 #
coedge $-1 $394 $392 $398 $494 reversed $485 $-1 #
vertex $-1 $393 $578 #
vertex $-1 $403 $579 #
straight-curve $-1 65.61845759453108 0 -16.43120738805986 0 -1 0 I I #
straight-curve $-1 65.61845759453108 0 16.43120738805986 0 1 0 I I #
point $-1 65.61845759453108 -42.501904251328767 16.43120738805986 #
edge $-1 $399 -16.43120738805986 $489 16.43120738805986 $488 $580 forward 7 unknown #
point $-1 65.61845759453108 42.501904251328767 16.43120738805986 #
straight-curve $-1 65.61845759453108 -42.501904251328767 0 0 0 -1 I I #
edge $-1 $409 -42.501904251328767 $406 42.501904251328767 $404 $581 forward 7 unknown #
straight-curve $-1 0 42.501904251328767 -16.43120738805986 1 0 0 I I #
point $-1 -65.61845759453108 42.501904251328767 -16.43120738805986 #
straight-curve $-1 0 -42.501904251328767 -16.43120738805986 -1 0 0 I I #
point $-1 -65.61845759453108 -42.501904251328767 -16.43120738805986 #
face $-1 $249 $582 $17 $-1 $583 reversed single #
plane-surface $-1 0 0 -16.43120738805986 0 0 1 1 0 0 forward_v I I I I #
edge $-1 $423 -9.6249707378396057 $510 -3.9875025626009037 $422 $584 forward 7 unknown #
coedge $-1 $415 $414 $585 $586 reversed $228 $-1 #
edge $-1 $587 -36.862507337926438 $509 -20.649393175282846 $427 $588 forward 7 unknown #
coedge $-1 $433 $422 $415 $508 forward $243 $-1 #
edge $-1 $510 20.649393175282846 $589 36.862507337926438 $507 $590 forward 7 unknown #
vertex $-1 $506 $591 #
vertex $-1 $508 $592 #
straight-curve $-1 -49.405343431887488 0 10.793739212821158 0 -1 0 I I #
straight-curve $-1 -49.405343431887488 0 16.43120738805986 0 -1 0 I I #
point $-1 -49.405343431887488 42.501904251328767 16.43120738805986 #
point $-1 -49.405343431887488 -42.501904251328767 16.43120738805986 #
straight-curve $-1 -49.405343431887488 42.501904251328767 6.8062366502202547 0 0 1 I I #
coedge $-1 $593 $585 $430 $517 forward $582 $-1 #
edge $-1 $587 -10.793739212821158 $519 16.43120738805986 $430 $594 forward 7 unknown #
coedge $-1 $431 $434 $593 $595 forward $436 $-1 #
vertex $-1 $432 $596 #
straight-curve $-1 0 42.501904251328767 -16.43120738805986 1 0 0 I I #
coedge $-1 $585 $593 $433 $522 reversed $582 $-1 #
edge $-1 $589 -10.793739212821158 $523 16.43120738805986 $521 $597 forward 7 unknown #
vertex $-1 $595 $598 #
straight-curve $-1 0 -42.501904251328767 -16.43120738805986 -1 0 0 I I #
face $-1 $599 $460 $18 $-1 $600 forward single #
loop $-1 $-1 $601 $440 #
plane-surface $-1 -57.511900513209284 0 10.793739212821158 0 0 1 1 0 0 forward_v I I I I #
coedge $-1 $602 $442 $447 $543 reversed $349 $-1 #
coedge $-1 $442 $602 $532 $603 forward $349 $-1 #
coedge $-1 $533 $448 $442 $531 forward $267 $-1 #
edge $-1 $544 -9.6249707378396057 $604 -3.9875025626009037 $530 $605 forward 7 unknown #
coedge $-1 $444 $443 $529 $603 reversed $253 $-1 #
coedge $-1 $606 $530 $443 $534 forward $267 $-1 #
edge $-1 $604 20.649393175282846 $540 36.862507337926438 $533 $607 forward 7 unknown #
coedge $-1 $552 $608 $444 $536 forward $553 $-1 #
edge $-1 $541 -36.862507337926438 $609 -20.649393175282846 $535 $610 forward 7 unknown #
coedge $-1 $611 $445 $608 $612 forward $539 $-1 #
coedge $-1 $445 $611 $606 $613 reversed $539 $-1 #
loop $-1 $-1 $445 $614 #
vertex $-1 $613 $615 #
vertex $-1 $612 $616 #
straight-curve $-1 65.61845759453108 0 10.793739212821158 0 -1 0 I I #
edge $-1 $554 -42.501904251328767 $544 42.501904251328767 $447 $617 forward 7 unknown #
vertex $-1 $449 $618 #
coedge $-1 $454 $619 $620 $621 reversed $267 $-1 #
coedge $-1 $622 $601 $454 $547 reversed $526 $-1 #
edge $-1 $623 -36.862507337926438 $549 -20.649393175282846 $454 $624 forward 7 unknown #
coedge $-1 $459 $455 $601 $625 forward $460 $-1 #
vertex $-1 $547 $626 #
straight-curve $-1 -49.405343431887488 42.501904251328767 6.8062366502202547 0 0 1 I I #
coedge $-1 $627 $457 $459 $556 forward $553 $-1 #
coedge $-1 $457 $535 $602 $628 forward $553 $-1 #
loop $-1 $-1 $552 $599 #
vertex $-1 $543 $629 #
straight-curve $-1 0 -42.501904251328767 16.43120738805986 1 0 0 I I #
edge $-1 $461 -9.6249707378396057 $630 -3.9875025626009037 $551 $631 forward 7 unknown #
point $-1 -49.405343431887488 -42.501904251328767 16.43120738805986 #
face $-1 $632 $478 $19 $-1 $633 reversed single #
loop $-1 $-1 $634 $464 #
plane-surface $-1 49.405343431887488 0 13.612473300440509 1 0 0 0 0 -1 forward_v I I I I #
coedge $-1 $635 $636 $637 $638 reversed $465 $-1 #
coedge $-1 $467 $639 $640 $641 forward $369 $-1 #
coedge $-1 $640 $476 $468 $564 forward $478 $-1 #
edge $-1 $642 -72.555053116630717 $566 -58.795166830532779 $563 $643 forward 7 unknown #
edge $-1 $642 -85.003808502657506 $567 -67.542262351181606 $469 $644 forward 7 unknown #
vertex $-1 $564 $645 #
vertex $-1 $472 $646 #
straight-curve $-1 3.7315122150081201 46.79221826040046 16.43120738805986 0 -1 0 I I #
straight-curve $-1 -4.4856809767469983 31.751503170728249 16.43120738805986 -1 0 0 I I #
edge $-1 $474 -17.188555145249115 $642 8.2171931917551184 $476 $647 forward 7 unknown #
point $-1 -21.674236121996113 42.501904251328767 2.6713211019619223 #
coedge $-1 $477 $648 $649 $650 forward $478 $-1 #
coedge $-1 $639 $480 $651 $652 forward $369 $-1 #
coedge $-1 $649 $653 $480 $575 reversed $654 $-1 #
edge $-1 $576 -42.501904251328767 $655 42.501904251328767 $480 $656 forward 7 unknown #
vertex $-1 $575 $657 #
straight-curve $-1 0 42.501904251328767 16.43120738805986 -1 0 0 I I #
point $-1 65.61845759453108 42.501904251328767 -16.43120738805986 #
point $-1 65.61845759453108 -42.501904251328767 -16.43120738805986 #
straight-curve $-1 65.61845759453108 42.501904251328767 0 0 0 -1 I I #
straight-curve $-1 -65.61845759453108 0 -16.43120738805986 0 1 0 I I #
loop $-1 $-1 $585 $502 #
plane-surface $-1 -65.61845759453108 0 0 1 0 0 0 0 -1 forward_v I I I I #
straight-curve $-1 -49.405343431887488 -42.501904251328767 6.8062366502202547 0 0 -1 I I #
coedge $-1 $516 $521 $505 $586 forward $582 $-1 #
edge $-1 $589 -42.501904251328767 $587 42.501904251328767 $585 $658 forward 7 unknown #
vertex $-1 $517 $659 #
straight-curve $-1 -28.755950256604642 42.501904251328767 10.793739212821158 1 0 0 I I #
vertex $-1 $522 $660 #
straight-curve $-1 -28.755950256604642 -42.501904251328767 10.793739212821158 -1 0 0 I I #
point $-1 -49.405343431887488 42.501904251328767 10.793739212821158 #
point $-1 -49.405343431887488 -42.501904251328767 10.793739212821158 #
coedge $-1 $521 $516 $518 $595 reversed $582 $-1 #
straight-curve $-1 -65.61845759453108 42.501904251328767 0 0 0 -1 I I #
edge $-1 $523 -42.501904251328767 $519 42.501904251328767 $593 $661 forward 7 unknown #
point $-1 -65.61845759453108 42.501904251328767 -16.43120738805986 #
straight-curve $-1 -65.61845759453108 -42.501904251328767 0 0 0 -1 I I #
point $-1 -65.61845759453108 -42.501904251328767 -16.43120738805986 #
face $-1 $662 $553 $18 $-1 $663 reversed single #
plane-surface $-1 -49.405343431887488 0 13.612473300440509 -1 0 0 0 0 1 forward_v I I I I #
coedge $-1 $546 $664 $548 $625 reversed $526 $-1 #
coedge $-1 $529 $528 $552 $628 reversed $349 $-1 #
edge $-1 $609 -42.501904251328767 $604 42.501904251328767 $529 $665 forward 7 unknown #
vertex $-1 $534 $666 #
straight-curve $-1 49.405343431887488 42.501904251328767 6.8062366502202547 0 0 -1 I I #
coedge $-1 $619 $533 $538 $613 forward $267 $-1 #
straight-curve $-1 28.755950256604642 42.501904251328767 10.793739212821158 1 0 0 I I #
coedge $-1 $535 $667 $537 $612 reversed $553 $-1 #
vertex $-1 $536 $668 #
straight-curve $-1 28.755950256604642 -42.501904251328767 10.793739212821158 -1 0 0 I I #
coedge $-1 $538 $537 $669 $670 reversed $539 $-1 #
edge $-1 $541 -10.793739212821158 $671 16.43120738805986 $537 $672 forward 7 unknown #
edge $-1 $540 -10.793739212821158 $673 16.43120738805986 $538 $674 forward 7 unknown #
face $-1 $-1 $539 $18 $-1 $675 reversed single #
point $-1 65.61845759453108 42.501904251328767 10.793739212821158 #
point $-1 65.61845759453108 -42.501904251328767 10.793739212821158 #
straight-curve $-1 49.405343431887488 0 16.43120738805986 0 1 0 I I #
point $-1 49.405343431887488 42.501904251328767 16.43120738805986 #
coedge $-1 $545 $606 $676 $677 reversed $267 $-1 #
coedge $-1 $678 $679 $545 $621 forward $680 $-1 #
edge $-1 $623 -10.793739212821158 $681 16.43120738805986 $545 $682 forward 7 unknown #
coedge $-1 $664 $546 $679 $683 reversed $526 $-1 #
vertex $-1 $621 $684 #
straight-curve $-1 -28.755950256604642 42.501904251328767 10.793739212821158 1 0 0 I I #
edge $-1 $549 -42.501904251328767 $630 42.501904251328767 $548 $685 forward 7 unknown #
point $-1 -49.405343431887488 42.501904251328767 10.793739212821158 #
coedge $-1 $686 $551 $664 $687 forward $553 $-1 #
edge $-1 $609 3.9875025626009037 $554 9.6249707378396057 $552 $688 forward 7 unknown #
point $-1 49.405343431887488 -42.501904251328767 16.43120738805986 #
vertex $-1 $687 $689 #
straight-curve $-1 -49.405343431887488 -42.501904251328767 6.8062366502202547 0 0 -1 I I #
face $-1 $690 $691 $19 $-1 $692 forward single #
plane-surface $-1 0 42.501904251328767 0 0 -1 0 0 0 -1 forward_v I I I I #
coedge $-1 $693 $694 $695 $696 reversed $559 $-1 #
coedge $-1 $697 $561 $698 $699 reversed $465 $-1 #
coedge $-1 $561 $697 $700 $701 reversed $465 $-1 #
coedge $-1 $702 $703 $561 $638 forward $704 $-1 #
edge $-1 $705 -42.501904251328767 $706 42.501904251328767 $637 $707 forward 7 unknown #
coedge $-1 $562 $573 $693 $708 forward $369 $-1 #
coedge $-1 $695 $563 $562 $641 reversed $478 $-1 #
edge $-1 $709 -49.405343431887488 $566 -3.7315122150081201 $640 $577 forward 7 unknown #
vertex $-1 $570 $710 #
straight-curve $-1 3.7315122150081201 42.501904251328767 75.226374218592639 0 0 1 I I #
straight-curve $-1 3.7315122150081201 -9.8316650016374041 69.655237001239286 0 -0.61566146476048833 0.78801076186113728 I I #
point $-1 3.7315122150081201 42.501904251328767 16.43120738805986 #
point $-1 3.7315122150081201 31.751503170728249 16.43120738805986 #
straight-curve $-1 -4.4856809767469983 42.501904251328767 2.6713211019619294 1 0 0 I I #
coedge $-1 $572 $711 $712 $713 forward $478 $-1 #
coedge $-1 $714 $574 $572 $650 reversed $654 $-1 #
edge $-1 $715 3.9875025626009037 $576 9.6249707378396057 $572 $716 forward 7 unknown #
coedge $-1 $717 $718 $573 $652 reversed $719 $-1 #
edge $-1 $655 -49.405343431887488 $720 49.405343431887488 $651 $721 forward 7 unknown #
coedge $-1 $574 $714 $717 $722 reversed $654 $-1 #
loop $-1 $-1 $653 $690 #
vertex $-1 $652 $723 #
straight-curve $-1 -49.405343431887488 0 16.43120738805986 0 -1 0 I I #
point $-1 -49.405343431887488 42.501904251328767 16.43120738805986 #
straight-curve $-1 -65.61845759453108 0 10.793739212821158 0 1 0 I I #
point $-1 -65.61845759453108 42.501904251328767 10.793739212821158 #
point $-1 -65.61845759453108 -42.501904251328767 10.793739212821158 #
straight-curve $-1 -65.61845759453108 0 -16.43120738805986 0 1 0 I I #
face $-1 $724 $725 $18 $-1 $726 reversed single #
plane-surface $-1 0 -42.501904251328767 0 0 1 0 0 0 1 forward_v I I I I #
coedge $-1 $601 $622 $627 $687 reversed $526 $-1 #
straight-curve $-1 49.405343431887488 0 10.793739212821158 0 1 0 I I #
point $-1 49.405343431887488 42.501904251328767 10.793739212821158 #
coedge $-1 $608 $686 $727 $728 reversed $553 $-1 #
point $-1 49.405343431887488 -42.501904251328767 10.793739212821158 #
coedge $-1 $727 $676 $611 $670 forward $725 $-1 #
edge $-1 $673 -42.501904251328767 $671 42.501904251328767 $611 $729 forward 7 unknown #
vertex $-1 $612 $730 #
straight-curve $-1 65.61845759453108 -42.501904251328767 0 0 0 -1 I I #
vertex $-1 $670 $731 #
straight-curve $-1 65.61845759453108 42.501904251328767 0 0 0 -1 I I #
plane-surface $-1 65.61845759453108 0 0 -1 0 0 0 0 1 forward_v I I I I #
coedge $-1 $669 $732 $619 $677 forward $725 $-1 #
edge $-1 $681 -65.61845759453108 $673 65.61845759453108 $619 $733 forward 7 unknown #
coedge $-1 $734 $620 $732 $735 reversed $680 $-1 #
coedge $-1 $620 $734 $622 $683 forward $680 $-1 #
loop $-1 $-1 $679 $724 #
vertex $-1 $677 $736 #
straight-curve $-1 -65.61845759453108 42.501904251328767 0 0 0 -1 I I #
edge $-1 $737 -42.501904251328767 $623 42.501904251328767 $679 $738 forward 7 unknown #
point $-1 -65.61845759453108 42.501904251328767 10.793739212821158 #
straight-curve $-1 -49.405343431887488 0 10.793739212821158 0 -1 0 I I #
coedge $-1 $667 $627 $734 $739 forward $553 $-1 #
edge $-1 $630 20.649393175282846 $737 36.862507337926438 $627 $740 forward 7 unknown #
straight-curve $-1 49.405343431887488 -42.501904251328767 6.8062366502202547 0 0 1 I I #
point $-1 -49.405343431887488 -42.501904251328767 10.793739212821158 #
face $-1 $741 $654 $19 $-1 $742 forward single #
loop $-1 $-1 $743 $632 #
plane-surface $-1 -57.511900513209284 0 10.793739212821158 0 0 1 1 0 0 forward_v I I I I #
coedge $-1 $744 $634 $639 $708 reversed $559 $-1 #
coedge $-1 $634 $744 $697 $745 forward $559 $-1 #
coedge $-1 $698 $640 $634 $696 forward $478 $-1 #
edge $-1 $709 -9.6249707378396057 $746 -3.9875025626009037 $695 $747 forward 7 unknown #
coedge $-1 $636 $635 $694 $745 reversed $465 $-1 #
coedge $-1 $748 $695 $635 $699 forward $478 $-1 #
edge $-1 $746 20.649393175282846 $705 36.862507337926438 $698 $749 forward 7 unknown #
coedge $-1 $718 $750 $636 $701 forward $719 $-1 #
edge $-1 $706 -36.862507337926438 $751 -20.649393175282846 $700 $752 forward 7 unknown #
coedge $-1 $753 $637 $750 $754 forward $704 $-1 #
coedge $-1 $637 $753 $748 $755 reversed $704 $-1 #
loop $-1 $-1 $637 $756 #
vertex $-1 $755 $757 #
vertex $-1 $754 $758 #
straight-curve $-1 65.61845759453108 0 10.793739212821158 0 -1 0 I I #
edge $-1 $720 -42.501904251328767 $709 42.501904251328767 $639 $759 forward 7 unknown #
vertex $-1 $641 $760 #
point $-1 3.7315122150081201 42.501904251328767 2.6713211019619223 #
coedge $-1 $648 $761 $762 $763 reversed $478 $-1 #
coedge $-1 $764 $743 $648 $713 reversed $691 $-1 #
edge $-1 $765 -36.862507337926438 $715 -20.649393175282846 $648 $766 forward 7 unknown #
coedge $-1 $653 $649 $743 $767 forward $654 $-1 #
vertex $-1 $713 $768 #
straight-curve $-1 -49.405343431887488 42.501904251328767 6.8062366502202547 0 0 1 I I #
coedge $-1 $769 $651 $653 $722 forward $719 $-1 #
coedge $-1 $651 $700 $744 $770 forward $719 $-1 #
loop $-1 $-1 $718 $741 #
vertex $-1 $708 $771 #
straight-curve $-1 0 -42.501904251328767 16.43120738805986 1 0 0 I I #
edge $-1 $655 -9.6249707378396057 $772 -3.9875025626009037 $717 $773 forward 7 unknown #
point $-1 -49.405343431887488 -42.501904251328767 16.43120738805986 #
face $-1 $614 $680 $18 $-1 $774 reversed single #
loop $-1 $-1 $669 $662 #
plane-surface $-1 0 0 -16.43120738805986 0 0 1 1 0 0 forward_v I I I I #
coedge $-1 $732 $669 $667 $728 forward $725 $-1 #
edge $-1 $671 -65.61845759453108 $775 65.61845759453108 $667 $776 forward 7 unknown #
straight-curve $-1 65.61845759453108 0 -16.43120738805986 0 -1 0 I I #
point $-1 65.61845759453108 -42.501904251328767 -16.43120738805986 #
point $-1 65.61845759453108 42.501904251328767 -16.43120738805986 #
coedge $-1 $676 $727 $678 $735 forward $725 $-1 #
straight-curve $-1 0 42.501904251328767 -16.43120738805986 1 0 0 I I #
coedge $-1 $679 $678 $686 $739 reversed $680 $-1 #
edge $-1 $775 -42.501904251328767 $681 42.501904251328767 $678 $777 forward 7 unknown #
point $-1 -65.61845759453108 42.501904251328767 -16.43120738805986 #
vertex $-1 $739 $778 #
straight-curve $-1 -65.61845759453108 0 10.793739212821158 0 1 0 I I #
edge $-1 $737 -10.793739212821158 $775 16.43120738805986 $734 $779 forward 7 unknown #
straight-curve $-1 -28.755950256604642 -42.501904251328767 10.793739212821158 -1 0 0 I I #
face $-1 $780 $719 $19 $-1 $781 reversed single #
plane-surface $-1 -49.405343431887488 0 13.612473300440509 -1 0 0 0 0 1 forward_v I I I I #
coedge $-1 $712 $782 $714 $767 reversed $691 $-1 #
coedge $-1 $694 $693 $718 $770 reversed $559 $-1 #
edge $-1 $751 -42.501904251328767 $746 42.501904251328767 $694 $783 forward 7 unknown #
vertex $-1 $699 $784 #
straight-curve $-1 49.405343431887488 42.501904251328767 6.8062366502202547 0 0 -1 I I #
coedge $-1 $761 $698 $703 $755 forward $478 $-1 #
straight-curve $-1 28.755950256604642 42.501904251328767 10.793739212821158 1 0 0 I I #
coedge $-1 $700 $785 $702 $754 reversed $719 $-1 #
vertex $-1 $701 $786 #
straight-curve $-1 28.755950256604642 -42.501904251328767 10.793739212821158 -1 0 0 I I #
coedge $-1 $703 $702 $787 $788 reversed $704 $-1 #
edge $-1 $706 -10.793739212821158 $789 16.43120738805986 $702 $790 forward 7 unknown #
edge $-1 $705 -10.793739212821158 $791 16.43120738805986 $703 $792 forward 7 unknown #
face $-1 $-1 $704 $19 $-1 $793 reversed single #
point $-1 65.61845759453108 42.501904251328767 10.793739212821158 #
point $-1 65.61845759453108 -42.501904251328767 10.793739212821158 #
straight-curve $-1 49.405343431887488 0 16.43120738805986 0 1 0 I I #
point $-1 49.405343431887488 42.501904251328767 16.43120738805986 #
coedge $-1 $711 $748 $794 $795 reversed $478 $-1 #
coedge $-1 $796 $797 $711 $763 forward $798 $-1 #
edge $-1 $765 -10.793739212821158 $799 16.43120738805986 $711 $800 forward 7 unknown #
coedge $-1 $782 $712 $797 $801 reversed $691 $-1 #
vertex $-1 $763 $802 #
straight-curve $-1 -28.755950256604642 42.501904251328767 10.793739212821158 1 0 0 I I #
edge $-1 $715 -42.501904251328767 $772 42.501904251328767 $714 $803 forward 7 unknown #
point $-1 -49.405343431887488 42.501904251328767 10.793739212821158 #
coedge $-1 $804 $717 $782 $805 forward $719 $-1 #
edge $-1 $751 3.9875025626009037 $720 9.6249707378396057 $718 $806 forward 7 unknown #
point $-1 49.405343431887488 -42.501904251328767 16.43120738805986 #
vertex $-1 $805 $807 #
straight-curve $-1 -49.405343431887488 -42.501904251328767 6.8062366502202547 0 0 -1 I I #
plane-surface $-1 -65.61845759453108 0 0 1 0 0 0 0 -1 forward_v I I I I #
vertex $-1 $735 $808 #
straight-curve $-1 0 -42.501904251328767 -16.43120738805986 -1 0 0 I I #
straight-curve $-1 -65.61845759453108 0 -16.43120738805986 0 1 0 I I #
point $-1 -65.61845759453108 -42.501904251328767 10.793739212821158 #
straight-curve $-1 -65.61845759453108 -42.501904251328767 0 0 0 -1 I I #
face $-1 $809 $810 $19 $-1 $811 reversed single #
plane-surface $-1 0 -42.501904251328767 0 0 1 0 0 0 1 forward_v I I I I #
coedge $-1 $743 $764 $769 $805 reversed $691 $-1 #
straight-curve $-1 49.405343431887488 0 10.793739212821158 0 1 0 I I #
point $-1 49.405343431887488 42.501904251328767 10.793739212821158 #
coedge $-1 $750 $804 $812 $813 reversed $719 $-1 #
point $-1 49.405343431887488 -42.501904251328767 10.793739212821158 #
coedge $-1 $812 $794 $753 $788 forward $810 $-1 #
edge $-1 $791 -42.501904251328767 $789 42.501904251328767 $753 $814 forward 7 unknown #
vertex $-1 $754 $815 #
straight-curve $-1 65.61845759453108 -42.501904251328767 0 0 0 -1 I I #
vertex $-1 $788 $816 #
straight-curve $-1 65.61845759453108 42.501904251328767 0 0 0 -1 I I #
plane-surface $-1 65.61845759453108 0 0 -1 0 0 0 0 1 forward_v I I I I #
coedge $-1 $787 $817 $761 $795 forward $810 $-1 #
edge $-1 $799 -65.61845759453108 $791 65.61845759453108 $761 $818 forward 7 unknown #
coedge $-1 $819 $762 $817 $820 reversed $798 $-1 #
coedge $-1 $762 $819 $764 $801 forward $798 $-1 #
loop $-1 $-1 $797 $809 #
vertex $-1 $795 $821 #
straight-curve $-1 -65.61845759453108 42.501904251328767 0 0 0 -1 I I #
edge $-1 $822 -42.501904251328767 $765 42.501904251328767 $797 $823 forward 7 unknown #
point $-1 -65.61845759453108 42.501904251328767 10.793739212821158 #
straight-curve $-1 -49.405343431887488 0 10.793739212821158 0 -1 0 I I #
coedge $-1 $785 $769 $819 $824 forward $719 $-1 #
edge $-1 $772 20.649393175282846 $822 36.862507337926438 $769 $825 forward 7 unknown #
straight-curve $-1 49.405343431887488 -42.501904251328767 6.8062366502202547 0 0 1 I I #
point $-1 -49.405343431887488 -42.501904251328767 10.793739212821158 #
point $-1 -65.61845759453108 -42.501904251328767 -16.43120738805986 #
face $-1 $756 $798 $19 $-1 $826 reversed single #
loop $-1 $-1 $787 $780 #
plane-surface $-1 0 0 -16.43120738805986 0 0 1 1 0 0 forward_v I I I I #
coedge $-1 $817 $787 $785 $813 forward $810 $-1 #
edge $-1 $789 -65.61845759453108 $827 65.61845759453108 $785 $828 forward 7 unknown #
straight-curve $-1 65.61845759453108 0 -16.43120738805986 0 -1 0 I I #
point $-1 65.61845759453108 -42.501904251328767 -16.43120738805986 #
point $-1 65.61845759453108 42.501904251328767 -16.43120738805986 #
coedge $-1 $794 $812 $796 $820 forward $810 $-1 #
straight-curve $-1 0 42.501904251328767 -16.43120738805986 1 0 0 I I #
coedge $-1 $797 $796 $804 $824 reversed $798 $-1 #
edge $-1 $827 -42.501904251328767 $799 42.501904251328767 $796 $829 forward 7 unknown #
point $-1 -65.61845759453108 42.501904251328767 -16.43120738805986 #
vertex $-1 $824 $830 #
straight-curve $-1 -65.61845759453108 0 10.793739212821158 0 1 0 I I #
edge $-1 $822 -10.793739212821158 $827 16.43120738805986 $819 $831 forward 7 unknown #
straight-curve $-1 -28.755950256604642 -42.501904251328767 10.793739212821158 -1 0 0 I I #
plane-surface $-1 -65.61845759453108 0 0 1 0 0 0 0 -1 forward_v I I I I #
vertex $-1 $820 $832 #
straight-curve $-1 0 -42.501904251328767 -16.43120738805986 -1 0 0 I I #
straight-curve $-1 -65.61845759453108 0 -16.43120738805986 0 1 0 I I #
point $-1 -65.61845759453108 -42.501904251328767 10.793739212821158 #
straight-curve $-1 -65.61845759453108 -42.501904251328767 0 0 0 -1 I I #
point $-1 -65.61845759453108 -42.501904251328767 -16.43120738805986 #
End-of-ACIS-data 