500 0 10 0           
7 Unknown 11 ACIS 5.0 NT 24 Fri Mar 26 17:32:01 1999 
-1 9.9999999999999995e-007 1e-010 
body $-1 $10 $-1 $11 #
body $-1 $12 $-1 $13 #
body $-1 $14 $-1 $15 #
body $-1 $16 $-1 $17 #
body $-1 $18 $-1 $19 #
body $-1 $20 $-1 $21 #
body $-1 $22 $-1 $23 #
body $-1 $24 $-1 $25 #
body $-1 $26 $-1 $27 #
body $-1 $28 $-1 $29 #
lump $-1 $-1 $30 $0 #
transform $-1 1 0 0 0 1 0 0 0 1 41.463667714468826 18.721224963178823 5.5052411040133631 1 rotate no_reflect no_shear #
lump $-1 $-1 $31 $1 #
transform $-1 1 0 0 0 1 0 0 0 1 41.463667714468826 18.721224963178823 5.5052411040133631 1 rotate no_reflect no_shear #
lump $-1 $-1 $32 $2 #
transform $-1 1 0 0 0 1 0 0 0 1 41.463667714468826 18.721224963178823 5.5052411040133631 1 rotate no_reflect no_shear #
lump $-1 $-1 $33 $3 #
transform $-1 1 0 0 0 1 0 0 0 1 41.463667714468826 18.721224963178823 5.5052411040133631 1 rotate no_reflect no_shear #
lump $-1 $-1 $34 $4 #
transform $-1 1 0 0 0 1 0 0 0 1 41.463667714468826 18.721224963178823 5.5052411040133631 1 rotate no_reflect no_shear #
lump $-1 $-1 $35 $5 #
transform $-1 1 0 0 0 1 0 0 0 1 41.463667714468826 18.721224963178823 5.5052411040133631 1 rotate no_reflect no_shear #
lump $-1 $-1 $36 $6 #
transform $-1 1 0 0 0 1 0 0 0 1 41.463667714468826 18.721224963178823 5.5052411040133631 1 rotate no_reflect no_shear #
lump $-1 $-1 $37 $7 #
transform $-1 1 0 0 0 1 0 0 0 1 41.463667714468826 18.721224963178823 5.5052411040133631 1 rotate no_reflect no_shear #
lump $-1 $-1 $38 $8 #
transform $-1 1 0 0 0 1 0 0 0 1 41.463667714468826 18.721224963178823 5.5052411040133631 1 rotate no_reflect no_shear #
lump $-1 $-1 $39 $9 #
transform $-1 1 0 0 0 1 0 0 0 1 41.463667714468826 18.721224963178823 5.5052411040133631 1 rotate no_reflect no_shear #
shell $-1 $-1 $-1 $40 $-1 $10 #
shell $-1 $-1 $-1 $41 $-1 $12 #
shell $-1 $-1 $-1 $42 $-1 $14 #
shell $-1 $-1 $-1 $43 $-1 $16 #
shell $-1 $-1 $-1 $44 $-1 $18 #
shell $-1 $-1 $-1 $45 $-1 $20 #
shell $-1 $-1 $-1 $46 $-1 $22 #
shell $-1 $-1 $-1 $47 $-1 $24 #
shell $-1 $-1 $-1 $48 $-1 $26 #
shell $-1 $-1 $-1 $49 $-1 $28 #
face $-1 $50 $51 $30 $-1 $52 forward single #
face $-1 $53 $54 $31 $-1 $55 reversed single #
face $-1 $56 $57 $32 $-1 $58 reversed single #
face $-1 $59 $60 $33 $-1 $61 forward single #
face $-1 $62 $63 $34 $-1 $64 forward single #
face $-1 $65 $66 $35 $-1 $67 forward single #
face $-1 $68 $69 $36 $-1 $70 reversed single #
face $-1 $71 $72 $37 $-1 $73 forward single #
face $-1 $74 $75 $38 $-1 $76 forward single #
face $-1 $77 $78 $39 $-1 $79 forward single #
face $-1 $80 $81 $30 $-1 $82 reversed single #
loop $-1 $-1 $83 $40 #
plane-surface $-1 0 0 5.5052411040133631 0 0 1 1 0 0 forward_v I I I I #
face $-1 $84 $85 $31 $-1 $86 reversed single #
loop $-1 $-1 $87 $41 #
plane-surface $-1 0 -16.45928105510842 2.5052411040133631 0 0 1 1 0 0 forward_v I I I I #
face $-1 $88 $89 $32 $-1 $90 reversed single #
loop $-1 $-1 $91 $42 #
plane-surface $-1 35.325867007372494 -7.5656219436565486 117.26616917639369 0 -1 0 -0.66913061440640931 0 -0.74314481823134659 forward_v I I I I #
face $-1 $92 $93 $33 $-1 $94 forward single #
loop $-1 $95 $96 $43 #
cone-surface $-1 37.961128973513475 -12.870994106361721 2.2404034974173364 -0.66913061440640931 0 -0.74314481823134659 0.3715724091156733 0 -0.33456530720320465 1 I I 0 1 0.5 forward I I I I #
face $-1 $97 $98 $34 $-1 $99 forward single #
loop $-1 $100 $101 $44 #
cone-surface $-1 37.961128973513475 -10.881479545347283 2.2404034974173364 -0.66913061440640931 0 -0.74314481823134659 0.3715724091156733 0 -0.33456530720320465 1 I I 0 1 0.5 forward I I I I #
face $-1 $102 $103 $35 $-1 $104 forward single #
loop $-1 $105 $106 $45 #
cone-surface $-1 37.961128973513475 -8.8919649843328425 2.2404034974173364 -0.66913061440640931 0 -0.74314481823134659 0.3715724091156733 0 -0.33456530720320465 1 I I 0 1 0.5 forward I I I I #
face $-1 $107 $108 $36 $-1 $109 reversed single #
loop $-1 $-1 $110 $46 #
plane-surface $-1 -41.463667714468826 -10.881479545347281 0.14993065599445998 -0.66913061440640931 0 0.74314481823134659 0.74314481823134659 0 0.66913061440640931 forward_v I I I I #
face $-1 $111 $112 $37 $-1 $113 forward single #
loop $-1 $114 $115 $47 #
cone-surface $-1 -37.961128973513468 -12.870994106361721 2.2404034974173381 0.66913061440640931 0 -0.74314481823134659 0.3715724091156733 0 0.33456530720320465 1 I I 0 1 0.5 forward I I I I #
face $-1 $116 $117 $38 $-1 $118 forward single #
loop $-1 $119 $120 $48 #
cone-surface $-1 -37.961128973513468 -10.881479545347283 2.2404034974173381 0.66913061440640931 0 -0.74314481823134659 0.3715724091156733 0 0.33456530720320465 1 I I 0 1 0.5 forward I I I I #
face $-1 $121 $122 $39 $-1 $123 forward single #
loop $-1 $124 $125 $49 #
cone-surface $-1 -37.961128973513468 -8.8919649843328425 2.2404034974173381 0.66913061440640931 0 -0.74314481823134659 0.3715724091156733 0 0.33456530720320465 1 I I 0 1 0.5 forward I I I I #
face $-1 $126 $127 $30 $-1 $128 reversed single #
loop $-1 $-1 $129 $50 #
plane-surface $-1 0 0 -5.5052411040133631 0 0 1 1 0 0 forward_v I I I I #
coedge $-1 $130 $131 $132 $133 forward $51 $-1 #
face $-1 $134 $135 $31 $-1 $136 reversed single #
loop $-1 $-1 $137 $53 #
plane-surface $-1 0 -14.197337147038015 4.0052411040133631 0 -1 0 0 0 -1 forward_v I I I I #
coedge $-1 $138 $139 $140 $141 reversed $54 $-1 #
face $-1 $142 $143 $32 $-1 $144 forward single #
loop $-1 $-1 $145 $56 #
plane-surface $-1 -20.16335189927895 -10.881479545347281 55.639149562645905 0.66913061440640931 0 0.74314481823134659 0.74314481823134659 0 -0.66913061440640931 forward_v I I I I #
coedge $-1 $146 $147 $148 $149 reversed $57 $-1 #
face $-1 $-1 $150 $33 $-1 $151 forward single #
loop $-1 $152 $153 $59 #
cone-surface $-1 37.265144916376741 -12.870994106361721 1.4674349102729298 -0.66913061440640931 0 -0.74314481823134659 0.18578620455783665 0 -0.16728265360160233 1 I I -0.70710678118654779 0.70710678118654713 0.25 forward I I I I #
loop $-1 $-1 $154 $43 #
coedge $-1 $96 $96 $155 $156 reversed $60 $-1 #
face $-1 $-1 $157 $34 $-1 $158 forward single #
loop $-1 $159 $160 $62 #
cone-surface $-1 37.265144916376741 -10.881479545347283 1.4674349102729298 -0.66913061440640931 0 -0.74314481823134659 0.18578620455783665 0 -0.16728265360160233 1 I I -0.70710678118654779 0.70710678118654713 0.25 forward I I I I #
loop $-1 $-1 $161 $44 #
coedge $-1 $101 $101 $162 $163 reversed $63 $-1 #
face $-1 $-1 $164 $35 $-1 $165 forward single #
loop $-1 $166 $167 $65 #
cone-surface $-1 37.265144916376741 -8.8919649843328425 1.4674349102729298 -0.66913061440640931 0 -0.74314481823134659 0.18578620455783665 0 -0.16728265360160233 1 I I -0.70710678118654779 0.70710678118654713 0.25 forward I I I I #
loop $-1 $-1 $168 $45 #
coedge $-1 $106 $106 $169 $170 reversed $66 $-1 #
face $-1 $171 $172 $36 $-1 $173 forward single #
loop $-1 $-1 $174 $68 #
plane-surface $-1 -96.952886621120271 -7.5656219436565486 61.776950269742244 0 -1 0 0.66913061440640931 0 -0.74314481823134659 forward_v I I I I #
coedge $-1 $175 $176 $177 $178 reversed $69 $-1 #
face $-1 $-1 $179 $37 $-1 $180 forward single #
loop $-1 $181 $182 $71 #
cone-surface $-1 -37.265144916376734 -12.870994106361721 1.4674349102729316 0.66913061440640931 0 -0.74314481823134659 0.18578620455783665 0 0.16728265360160233 1 I I -0.70710678118654779 0.70710678118654713 0.25 forward I I I I #
loop $-1 $-1 $183 $47 #
coedge $-1 $115 $115 $184 $185 reversed $72 $-1 #
face $-1 $-1 $186 $38 $-1 $187 forward single #
loop $-1 $188 $189 $74 #
cone-surface $-1 -37.265144916376734 -10.881479545347283 1.4674349102729316 0.66913061440640931 0 -0.74314481823134659 0.18578620455783665 0 0.16728265360160233 1 I I -0.70710678118654779 0.70710678118654713 0.25 forward I I I I #
loop $-1 $-1 $190 $48 #
coedge $-1 $120 $120 $191 $192 reversed $75 $-1 #
face $-1 $-1 $193 $39 $-1 $194 forward single #
loop $-1 $195 $196 $77 #
cone-surface $-1 -37.265144916376734 -8.8919649843328425 1.4674349102729316 0.66913061440640931 0 -0.74314481823134659 0.18578620455783665 0 0.16728265360160233 1 I I -0.70710678118654779 0.70710678118654713 0.25 forward I I I I #
loop $-1 $-1 $197 $49 #
coedge $-1 $125 $125 $198 $199 reversed $78 $-1 #
face $-1 $200 $201 $30 $-1 $202 reversed single #
loop $-1 $-1 $203 $80 #
plane-surface $-1 0 -18.721224963178823 0 0 1 0 0 0 1 forward_v I I I I #
coedge $-1 $204 $205 $206 $207 forward $81 $-1 #
coedge $-1 $208 $83 $209 $210 forward $51 $-1 #
coedge $-1 $83 $208 $211 $212 forward $51 $-1 #
coedge $-1 $213 $214 $83 $133 reversed $215 $-1 #
edge $-1 $216 -18.721224963178823 $217 18.721224963178823 $132 $218 forward 7 unknown #
face $-1 $219 $220 $31 $-1 $221 reversed single #
loop $-1 $-1 $222 $84 #
plane-surface $-1 -41.463667714468826 0 0 1 0 0 0 0 -1 forward_v I I I I #
coedge $-1 $223 $224 $225 $226 reversed $85 $-1 #
coedge $-1 $227 $87 $228 $229 reversed $54 $-1 #
coedge $-1 $87 $227 $223 $230 forward $54 $-1 #
coedge $-1 $225 $231 $87 $141 forward $232 $-1 #
edge $-1 $233 -10.491584435624613 $234 -5.9676966194838048 $140 $235 forward 7 unknown #
face $-1 $236 $237 $32 $-1 $238 forward single #
loop $-1 $-1 $239 $88 #
plane-surface $-1 0 -14.197337147038015 4.0052411040133631 0 -1 0 0 0 -1 forward_v I I I I #
coedge $-1 $240 $241 $242 $243 reversed $89 $-1 #
coedge $-1 $147 $91 $244 $245 reversed $57 $-1 #
coedge $-1 $91 $146 $240 $246 reversed $57 $-1 #
coedge $-1 $242 $247 $91 $149 forward $237 $-1 #
edge $-1 $248 -23.800734210782579 $249 -17.853059535942123 $148 $250 forward 7 unknown #
loop $-1 $-1 $155 $92 #
plane-surface $-1 -20.16335189927895 -10.881479545347281 55.639149562645905 0.66913061440640931 0 0.74314481823134659 0.74314481823134659 0 -0.66913061440640931 forward_v I I I I #
loop $-1 $-1 $251 $59 #
coedge $-1 $153 $153 $154 $252 reversed $93 $-1 #
coedge $-1 $154 $154 $153 $252 forward $95 $-1 #
coedge $-1 $155 $155 $96 $156 forward $150 $-1 #
edge $-1 $253 0 $253 6.2831853071796004 $155 $254 forward 7 unknown #
loop $-1 $-1 $162 $97 #
plane-surface $-1 -20.16335189927895 -10.881479545347281 55.639149562645905 0.66913061440640931 0 0.74314481823134659 0.74314481823134659 0 -0.66913061440640931 forward_v I I I I #
loop $-1 $-1 $255 $62 #
coedge $-1 $160 $160 $161 $256 reversed $98 $-1 #
coedge $-1 $161 $161 $160 $256 forward $100 $-1 #
coedge $-1 $162 $162 $101 $163 forward $157 $-1 #
edge $-1 $257 0 $257 6.2831853071796004 $162 $258 forward 7 unknown #
loop $-1 $-1 $169 $102 #
plane-surface $-1 -20.16335189927895 -10.881479545347281 55.639149562645905 0.66913061440640931 0 0.74314481823134659 0.74314481823134659 0 -0.66913061440640931 forward_v I I I I #
loop $-1 $-1 $259 $65 #
coedge $-1 $167 $167 $168 $260 reversed $103 $-1 #
coedge $-1 $168 $168 $167 $260 forward $105 $-1 #
coedge $-1 $169 $169 $106 $170 forward $164 $-1 #
edge $-1 $261 0 $261 6.2831853071796004 $169 $262 forward 7 unknown #
face $-1 $263 $264 $36 $-1 $265 reversed single #
loop $-1 $-1 $177 $107 #
plane-surface $-1 0 0 5.5052411040133631 0 0 1 1 0 0 forward_v I I I I #
coedge $-1 $266 $267 $268 $269 reversed $108 $-1 #
coedge $-1 $270 $110 $271 $272 reversed $69 $-1 #
coedge $-1 $110 $270 $266 $273 forward $69 $-1 #
coedge $-1 $268 $274 $110 $178 forward $172 $-1 #
edge $-1 $275 -8.7565973743643717 $276 -2.1248821709829082 $177 $277 forward 7 unknown #
loop $-1 $-1 $184 $111 #
plane-surface $-1 -41.463667714468826 -10.881479545347281 0.14993065599445998 -0.66913061440640931 0 0.74314481823134659 0.74314481823134659 0 0.66913061440640931 forward_v I I I I #
loop $-1 $-1 $278 $71 #
coedge $-1 $182 $182 $183 $279 reversed $112 $-1 #
coedge $-1 $183 $183 $182 $279 forward $114 $-1 #
coedge $-1 $184 $184 $115 $185 forward $179 $-1 #
edge $-1 $280 0 $280 6.2831853071796004 $184 $281 forward 7 unknown #
loop $-1 $-1 $191 $116 #
plane-surface $-1 -41.463667714468826 -10.881479545347281 0.14993065599445998 -0.66913061440640931 0 0.74314481823134659 0.74314481823134659 0 0.66913061440640931 forward_v I I I I #
loop $-1 $-1 $282 $74 #
coedge $-1 $189 $189 $190 $283 reversed $117 $-1 #
coedge $-1 $190 $190 $189 $283 forward $119 $-1 #
coedge $-1 $191 $191 $120 $192 forward $186 $-1 #
edge $-1 $284 0 $284 6.2831853071796004 $191 $285 forward 7 unknown #
loop $-1 $-1 $198 $121 #
plane-surface $-1 -41.463667714468826 -10.881479545347281 0.14993065599445998 -0.66913061440640931 0 0.74314481823134659 0.74314481823134659 0 0.66913061440640931 forward_v I I I I #
loop $-1 $-1 $286 $77 #
coedge $-1 $196 $196 $197 $287 reversed $122 $-1 #
coedge $-1 $197 $197 $196 $287 forward $124 $-1 #
coedge $-1 $198 $198 $125 $199 forward $193 $-1 #
edge $-1 $288 0 $288 6.2831853071796004 $198 $289 forward 7 unknown #
face $-1 $290 $291 $30 $-1 $292 reversed single #
loop $-1 $-1 $293 $126 #
plane-surface $-1 -41.463667714468826 0 0 1 0 0 0 0 -1 forward_v I I I I #
coedge $-1 $294 $211 $295 $296 forward $127 $-1 #
coedge $-1 $297 $129 $294 $298 forward $81 $-1 #
coedge $-1 $129 $297 $299 $300 forward $81 $-1 #
coedge $-1 $214 $213 $129 $207 reversed $215 $-1 #
edge $-1 $301 -18.721224963178823 $302 18.721224963178823 $206 $303 forward 7 unknown #
coedge $-1 $131 $130 $304 $305 forward $51 $-1 #
coedge $-1 $306 $307 $130 $210 reversed $291 $-1 #
edge $-1 $217 -41.463667714468826 $308 41.463667714468826 $209 $309 forward 7 unknown #
coedge $-1 $203 $310 $131 $212 reversed $127 $-1 #
edge $-1 $311 -41.463667714468826 $216 41.463667714468826 $211 $312 forward 7 unknown #
coedge $-1 $206 $132 $310 $313 forward $215 $-1 #
coedge $-1 $132 $206 $306 $314 reversed $215 $-1 #
loop $-1 $-1 $213 $290 #
vertex $-1 $133 $315 #
vertex $-1 $133 $316 #
straight-curve $-1 41.463667714468826 0 5.5052411040133631 0 1 0 I I #
face $-1 $317 $318 $31 $-1 $319 forward single #
loop $-1 $-1 $228 $134 #
plane-surface $-1 0 -18.721224963178823 0 0 1 0 0 0 1 forward_v I I I I #
coedge $-1 $320 $321 $322 $323 forward $135 $-1 #
coedge $-1 $322 $137 $139 $230 reversed $85 $-1 #
coedge $-1 $137 $322 $324 $325 reversed $85 $-1 #
coedge $-1 $326 $140 $137 $226 forward $232 $-1 #
edge $-1 $234 0.50262055200668154 $327 3.5026205520066815 $225 $328 forward 7 unknown #
coedge $-1 $139 $138 $320 $329 reversed $54 $-1 #
coedge $-1 $330 $331 $138 $229 forward $220 $-1 #
edge $-1 $332 -41.463667714468826 $233 41.463667714468826 $228 $333 forward 7 unknown #
edge $-1 $334 -41.463667714468826 $234 41.463667714468826 $223 $335 forward 7 unknown #
coedge $-1 $140 $326 $330 $336 forward $232 $-1 #
loop $-1 $-1 $225 $317 #
vertex $-1 $229 $337 #
vertex $-1 $141 $338 #
straight-curve $-1 41.463667714468826 -8.2296405275542099 2.5052411040133631 0 1 0 I I #
face $-1 $-1 $339 $32 $-1 $340 reversed single #
loop $-1 $-1 $242 $142 #
plane-surface $-1 0 0 5.5052411040133631 0 0 1 1 0 0 forward_v I I I I #
coedge $-1 $341 $342 $241 $343 reversed $143 $-1 #
coedge $-1 $344 $145 $147 $246 forward $89 $-1 #
coedge $-1 $145 $344 $239 $343 forward $89 $-1 #
coedge $-1 $345 $148 $145 $243 forward $237 $-1 #
edge $-1 $249 2.1248821709829082 $346 8.7565973743643752 $242 $347 forward 7 unknown #
coedge $-1 $348 $349 $146 $245 forward $339 $-1 #
edge $-1 $350 -58.483153932202384 $248 -53.127843484183479 $244 $351 forward 7 unknown #
edge $-1 $249 74.923949643384205 $350 82.927335428937653 $147 $352 forward 7 unknown #
coedge $-1 $148 $345 $348 $353 forward $237 $-1 #
vertex $-1 $245 $354 #
vertex $-1 $149 $355 #
straight-curve $-1 17.662933503686247 -7.5656219436565486 5.5052411040133649 -1 0 0 I I #
coedge $-1 $251 $251 $-1 $356 reversed $152 $-1 #
edge $-1 $357 0 $357 6.2831853071796004 $153 $358 forward 7 unknown #
vertex $-1 $156 $359 #
ellipse-curve $-1 38.489830377048605 -12.870994106361721 2.8275858800039049 0.66913061440640931 0 0.74314481823134659 0.3715724091156733 0 -0.33456530720320465 1 I I #
coedge $-1 $255 $255 $-1 $360 reversed $159 $-1 #
edge $-1 $361 0 $361 6.2831853071796004 $160 $362 forward 7 unknown #
vertex $-1 $163 $363 #
ellipse-curve $-1 38.489830377048605 -10.881479545347283 2.8275858800039049 0.66913061440640931 0 0.74314481823134659 0.3715724091156733 0 -0.33456530720320465 1 I I #
coedge $-1 $259 $259 $-1 $364 reversed $166 $-1 #
edge $-1 $365 0 $365 6.2831853071796004 $167 $366 forward 7 unknown #
vertex $-1 $170 $367 #
ellipse-curve $-1 38.489830377048605 -8.8919649843328425 2.8275858800039049 0.66913061440640931 0 0.74314481823134659 0.3715724091156733 0 -0.33456530720320465 1 I I #
face $-1 $-1 $368 $36 $-1 $369 forward single #
loop $-1 $-1 $370 $171 #
plane-surface $-1 -41.463667714468826 0 0 1 0 0 0 0 -1 forward_v I I I I #
coedge $-1 $267 $174 $176 $273 reversed $108 $-1 #
coedge $-1 $174 $266 $370 $371 reversed $108 $-1 #
coedge $-1 $372 $177 $174 $269 forward $172 $-1 #
edge $-1 $276 -12.960450270931773 $373 -7.0127755960913092 $268 $374 forward 7 unknown #
coedge $-1 $176 $175 $375 $376 reversed $69 $-1 #
coedge $-1 $377 $378 $175 $272 forward $368 $-1 #
edge $-1 $379 -16.696608027842114 $275 -8.6932222422886642 $271 $380 forward 7 unknown #
edge $-1 $381 0 $276 8.0033857855534514 $266 $382 forward 7 unknown #
coedge $-1 $177 $372 $377 $383 forward $172 $-1 #
vertex $-1 $272 $384 #
vertex $-1 $178 $385 #
straight-curve $-1 -35.515993039628363 -5.4407397726736404 5.5052411040133622 0 1 0 I I #
coedge $-1 $278 $278 $-1 $386 reversed $181 $-1 #
edge $-1 $387 0 $387 6.2831853071796004 $182 $388 forward 7 unknown #
vertex $-1 $185 $389 #
ellipse-curve $-1 -38.489830377048598 -12.870994106361721 2.8275858800039098 -0.66913061440640931 0 0.74314481823134659 0.3715724091156733 0 0.33456530720320465 1 I I #
coedge $-1 $282 $282 $-1 $390 reversed $188 $-1 #
edge $-1 $391 0 $391 6.2831853071796004 $189 $392 forward 7 unknown #
vertex $-1 $192 $393 #
ellipse-curve $-1 -38.489830377048598 -10.881479545347283 2.8275858800039098 -0.66913061440640931 0 0.74314481823134659 0.3715724091156733 0 0.33456530720320465 1 I I #
coedge $-1 $286 $286 $-1 $394 reversed $195 $-1 #
edge $-1 $395 0 $395 6.2831853071796004 $196 $396 forward 7 unknown #
vertex $-1 $199 $397 #
ellipse-curve $-1 -38.489830377048598 -8.8919649843328425 2.8275858800039098 -0.66913061440640931 0 0.74314481823134659 0.3715724091156733 0 0.33456530720320465 1 I I #
face $-1 $-1 $215 $30 $-1 $398 reversed single #
loop $-1 $-1 $306 $200 #
plane-surface $-1 0 18.721224963178823 0 0 -1 0 0 0 -1 forward_v I I I I #
coedge $-1 $399 $304 $307 $400 forward $201 $-1 #
coedge $-1 $310 $203 $204 $298 reversed $127 $-1 #
coedge $-1 $304 $399 $203 $296 reversed $201 $-1 #
edge $-1 $311 -5.5052411040133631 $401 5.5052411040133631 $295 $402 forward 7 unknown #
coedge $-1 $205 $204 $399 $403 forward $81 $-1 #
edge $-1 $302 -41.463667714468826 $401 41.463667714468826 $294 $404 forward 7 unknown #
coedge $-1 $307 $306 $205 $300 reversed $291 $-1 #
edge $-1 $405 -41.463667714468826 $301 41.463667714468826 $299 $406 forward 7 unknown #
vertex $-1 $207 $407 #
vertex $-1 $313 $408 #
straight-curve $-1 41.463667714468826 0 -5.5052411040133631 0 -1 0 I I #
coedge $-1 $293 $295 $208 $305 reversed $201 $-1 #
edge $-1 $308 -18.721224963178823 $311 18.721224963178823 $304 $409 forward 7 unknown #
coedge $-1 $299 $209 $214 $314 forward $291 $-1 #
coedge $-1 $209 $299 $293 $400 reversed $291 $-1 #
vertex $-1 $210 $410 #
straight-curve $-1 0 18.721224963178823 5.5052411040133631 -1 0 0 I I #
coedge $-1 $211 $294 $213 $313 reversed $127 $-1 #
vertex $-1 $305 $411 #
straight-curve $-1 0 -18.721224963178823 5.5052411040133631 1 0 0 I I #
edge $-1 $216 -5.5052411040133631 $302 5.5052411040133631 $213 $412 forward 7 unknown #
edge $-1 $217 -5.5052411040133631 $301 5.5052411040133631 $214 $413 forward 7 unknown #
point $-1 41.463667714468826 -18.721224963178823 5.5052411040133631 #
point $-1 41.463667714468826 18.721224963178823 5.5052411040133631 #
face $-1 $-1 $232 $31 $-1 $414 reversed single #
loop $-1 $-1 $324 $219 #
plane-surface $-1 0 0 5.5052411040133631 0 0 1 1 0 0 forward_v I I I I #
coedge $-1 $415 $222 $227 $329 forward $135 $-1 #
coedge $-1 $222 $415 $416 $417 reversed $135 $-1 #
coedge $-1 $224 $223 $222 $323 reversed $85 $-1 #
edge $-1 $418 -3.5026205520066815 $334 -0.50262055200668154 $222 $419 forward 7 unknown #
coedge $-1 $416 $420 $224 $325 forward $318 $-1 #
edge $-1 $327 -41.463667714468826 $418 41.463667714468826 $324 $421 forward 7 unknown #
coedge $-1 $231 $225 $420 $422 reversed $232 $-1 #
vertex $-1 $226 $423 #
straight-curve $-1 41.463667714468826 -14.197337147038015 2.0026205520066815 0 0 1 I I #
edge $-1 $334 5.9676966194838048 $332 10.491584435624613 $320 $424 forward 7 unknown #
coedge $-1 $425 $228 $231 $336 reversed $220 $-1 #
coedge $-1 $228 $425 $415 $426 forward $220 $-1 #
vertex $-1 $229 $427 #
straight-curve $-1 0 -18.721224963178823 2.5052411040133631 1 0 0 I I #
vertex $-1 $329 $428 #
straight-curve $-1 0 -14.197337147038015 2.5052411040133631 1 0 0 I I #
edge $-1 $429 -5.5052411040133631 $233 -2.5052411040133631 $231 $430 forward 7 unknown #
point $-1 41.463667714468826 -18.721224963178823 2.5052411040133631 #
point $-1 41.463667714468826 -14.197337147038015 2.5052411040133631 #
loop $-1 $-1 $244 $236 #
plane-surface $-1 41.463667714468826 0 0 -1 0 0 0 0 1 forward_v I I I I #
coedge $-1 $342 $239 $431 $432 reversed $143 $-1 #
coedge $-1 $239 $341 $345 $433 reversed $143 $-1 #
edge $-1 $434 -82.927335428937653 $346 -74.923949643384191 $239 $435 forward 7 unknown #
coedge $-1 $241 $240 $349 $436 reversed $89 $-1 #
coedge $-1 $247 $242 $342 $433 forward $237 $-1 #
vertex $-1 $433 $437 #
straight-curve $-1 35.51599303962837 -5.4407397726736404 5.5052411040133578 0 -1 0 I I #
coedge $-1 $431 $244 $247 $353 reversed $339 $-1 #
coedge $-1 $244 $431 $344 $436 forward $339 $-1 #
vertex $-1 $245 $438 #
straight-curve $-1 41.463667714468826 -7.5656219436565486 58.633084588196844 0 0 1 I I #
straight-curve $-1 -20.16335189927895 -7.5656219436565486 55.639149562645905 0.74314481823134659 0 -0.66913061440640931 I I #
edge $-1 $439 -14.197337147038015 $248 -7.5656219436565486 $348 $440 forward 7 unknown #
point $-1 41.463667714468826 -7.5656219436565486 5.5052411040133631 #
point $-1 35.51599303962837 -7.5656219436565486 5.5052411040133578 #
edge $-1 $441 1 $441 0 $251 $-1 forward 7 unknown #
vertex $-1 $252 $442 #
ellipse-curve $-1 37.432427569978344 -12.870994106361721 1.6532211148307663 0.66913061440640931 0 0.74314481823134659 0.3715724091156733 0 -0.33456530720320465 1 I I #
point $-1 38.861402786164277 -12.870994106361721 2.4930205728007016 #
edge $-1 $443 1 $443 0 $255 $-1 forward 7 unknown #
vertex $-1 $256 $444 #
ellipse-curve $-1 37.432427569978344 -10.881479545347283 1.6532211148307663 0.66913061440640931 0 0.74314481823134659 0.3715724091156733 0 -0.33456530720320465 1 I I #
point $-1 38.861402786164277 -10.881479545347283 2.4930205728007016 #
edge $-1 $445 1 $445 0 $259 $-1 forward 7 unknown #
vertex $-1 $260 $446 #
ellipse-curve $-1 37.432427569978344 -8.8919649843328425 1.6532211148307663 0.66913061440640931 0 0.74314481823134659 0.3715724091156733 0 -0.33456530720320465 1 I I #
point $-1 38.861402786164277 -8.8919649843328425 2.4930205728007016 #
loop $-1 $-1 $271 $263 #
plane-surface $-1 0 -14.197337147038015 4.0052411040133631 0 -1 0 0 0 -1 forward_v I I I I #
coedge $-1 $375 $447 $267 $371 forward $264 $-1 #
edge $-1 $373 25.383234030857757 $381 30.738544478876662 $370 $448 forward 7 unknown #
coedge $-1 $274 $268 $447 $449 forward $172 $-1 #
vertex $-1 $449 $450 #
straight-curve $-1 -48.476443310560136 -7.5656219436565486 5.5052411040133649 -1 0 0 I I #
coedge $-1 $451 $370 $270 $376 forward $264 $-1 #
edge $-1 $381 2.1248821709829082 $379 8.7565973743643717 $375 $452 forward 7 unknown #
coedge $-1 $378 $271 $274 $383 reversed $368 $-1 #
coedge $-1 $271 $377 $451 $453 reversed $368 $-1 #
vertex $-1 $453 $454 #
straight-curve $-1 -29.055669976538056 -14.197337147038015 11.322142244167441 0.74314481823134659 0 0.66913061440640931 I I #
vertex $-1 $376 $455 #
straight-curve $-1 -41.463667714468826 -7.5656219436565486 0.14993065599445998 0.74314481823134659 0 0.66913061440640931 I I #
edge $-1 $456 -41.463667714468826 $275 -35.515993039628363 $274 $457 forward 7 unknown #
point $-1 -35.515993039628363 -14.197337147038013 5.5052411040133622 #
point $-1 -35.515993039628363 -7.5656219436565486 5.5052411040133622 #
edge $-1 $458 1 $458 0 $278 $-1 forward 7 unknown #
vertex $-1 $279 $459 #
ellipse-curve $-1 -37.432427569978337 -12.870994106361721 1.6532211148307681 -0.66913061440640931 0 0.74314481823134659 0.3715724091156733 0 0.33456530720320465 1 I I #
point $-1 -38.118257967932919 -12.870994106361721 3.1621511872071126 #
edge $-1 $460 1 $460 0 $282 $-1 forward 7 unknown #
vertex $-1 $283 $461 #
ellipse-curve $-1 -37.432427569978337 -10.881479545347283 1.6532211148307681 -0.66913061440640931 0 0.74314481823134659 0.3715724091156733 0 0.33456530720320465 1 I I #
point $-1 -38.118257967932919 -10.881479545347283 3.1621511872071126 #
edge $-1 $462 1 $462 0 $286 $-1 forward 7 unknown #
vertex $-1 $287 $463 #
ellipse-curve $-1 -37.432427569978337 -8.8919649843328425 1.6532211148307681 -0.66913061440640931 0 0.74314481823134659 0.3715724091156733 0 0.33456530720320465 1 I I #
point $-1 -38.118257967932919 -8.8919649843328425 3.1621511872071126 #
plane-surface $-1 41.463667714468826 0 0 -1 0 0 0 0 1 forward_v I I I I #
coedge $-1 $295 $293 $297 $403 reversed $201 $-1 #
edge $-1 $308 -5.5052411040133631 $405 5.5052411040133631 $307 $464 forward 7 unknown #
vertex $-1 $403 $465 #
straight-curve $-1 -41.463667714468826 -18.721224963178823 0 0 0 -1 I I #
edge $-1 $401 -18.721224963178823 $405 18.721224963178823 $399 $466 forward 7 unknown #
straight-curve $-1 0 -18.721224963178823 -5.5052411040133631 -1 0 0 I I #
vertex $-1 $300 $467 #
straight-curve $-1 0 18.721224963178823 -5.5052411040133631 1 0 0 I I #
point $-1 41.463667714468826 18.721224963178823 -5.5052411040133631 #
point $-1 41.463667714468826 -18.721224963178823 -5.5052411040133631 #
straight-curve $-1 -41.463667714468826 0 5.5052411040133631 0 -1 0 I I #
point $-1 -41.463667714468826 18.721224963178823 5.5052411040133631 #
point $-1 -41.463667714468826 -18.721224963178823 5.5052411040133631 #
straight-curve $-1 41.463667714468826 -18.721224963178823 0 0 0 -1 I I #
straight-curve $-1 41.463667714468826 18.721224963178823 0 0 0 -1 I I #
plane-surface $-1 41.463667714468826 0 0 -1 0 0 0 0 1 forward_v I I I I #
coedge $-1 $321 $320 $331 $426 reversed $135 $-1 #
coedge $-1 $468 $324 $321 $417 forward $318 $-1 #
edge $-1 $418 14.197337147038015 $469 18.721224963178823 $321 $470 forward 7 unknown #
vertex $-1 $417 $471 #
straight-curve $-1 -41.463667714468826 -14.197337147038015 2.0026205520066815 0 0 -1 I I #
coedge $-1 $324 $468 $326 $422 forward $318 $-1 #
straight-curve $-1 0 -14.197337147038015 5.5052411040133631 -1 0 0 I I #
edge $-1 $429 -18.721224963178823 $327 -14.197337147038015 $326 $472 forward 7 unknown #
point $-1 41.463667714468826 -14.197337147038015 5.5052411040133631 #
straight-curve $-1 -41.463667714468826 -8.2296405275542099 2.5052411040133631 0 -1 0 I I #
coedge $-1 $331 $330 $468 $473 reversed $220 $-1 #
edge $-1 $469 -5.5052411040133631 $332 -2.5052411040133631 $415 $474 forward 7 unknown #
point $-1 -41.463667714468826 -18.721224963178823 2.5052411040133631 #
point $-1 -41.463667714468826 -14.197337147038015 2.5052411040133631 #
vertex $-1 $422 $475 #
straight-curve $-1 41.463667714468826 -18.721224963178823 0 0 0 -1 I I #
coedge $-1 $349 $348 $341 $432 forward $339 $-1 #
edge $-1 $439 53.127843484183479 $434 58.483153932202384 $431 $476 forward 7 unknown #
edge $-1 $346 35.515993039628363 $439 41.463667714468826 $345 $477 forward 7 unknown #
vertex $-1 $432 $478 #
straight-curve $-1 -20.16335189927895 -14.197337147038013 55.639149562645905 -0.74314481823134659 0 0.66913061440640931 I I #
edge $-1 $434 -8.7565973743643717 $350 -2.1248821709829082 $349 $479 forward 7 unknown #
point $-1 35.515993039628363 -14.197337147038015 5.5052411040133631 #
point $-1 41.463667714468833 -7.5656219436565486 0.14993065599445998 #
vertex $-1 $353 $480 #
straight-curve $-1 41.463667714468826 0 5.5052411040133631 0 1 0 I I #
vertex $-1 $356 $481 #
point $-1 37.803999979094016 -12.870994106361721 1.3186558076275616 #
vertex $-1 $360 $482 #
point $-1 37.803999979094016 -10.881479545347283 1.3186558076275616 #
vertex $-1 $364 $483 #
point $-1 37.803999979094016 -8.8919649843328425 1.3186558076275616 #
coedge $-1 $370 $451 $372 $449 reversed $264 $-1 #
straight-curve $-1 -41.463667714468826 -7.5656219436565486 30.888475134871122 0 0 -1 I I #
edge $-1 $373 7.5656219436565486 $456 14.197337147038015 $447 $484 forward 7 unknown #
point $-1 -41.463667714468826 -7.5656219436565486 5.5052411040133631 #
coedge $-1 $447 $375 $378 $453 forward $264 $-1 #
straight-curve $-1 -41.463667714468826 -5.4407397726736404 0.14993065599446095 0 -1 0 I I #
edge $-1 $379 -30.738544478876662 $456 -25.383234030857757 $451 $485 forward 7 unknown #
point $-1 -41.463667714468826 -14.197337147038013 0.14993065599445998 #
point $-1 -41.463667714468826 -7.5656219436565486 0.14993065599445998 #
vertex $-1 $453 $486 #
straight-curve $-1 0 -14.197337147038015 5.5052411040133631 1 0 0 I I #
vertex $-1 $386 $487 #
point $-1 -37.060855160862666 -12.870994106361721 1.9877864220339727 #
vertex $-1 $390 $488 #
point $-1 -37.060855160862666 -10.881479545347283 1.9877864220339727 #
vertex $-1 $394 $489 #
point $-1 -37.060855160862666 -8.8919649843328425 1.9877864220339727 #
straight-curve $-1 -41.463667714468826 18.721224963178823 0 0 0 -1 I I #
point $-1 -41.463667714468826 -18.721224963178823 -5.5052411040133631 #
straight-curve $-1 -41.463667714468826 0 -5.5052411040133631 0 1 0 I I #
point $-1 -41.463667714468826 18.721224963178823 -5.5052411040133631 #
coedge $-1 $420 $416 $425 $473 forward $318 $-1 #
vertex $-1 $417 $490 #
straight-curve $-1 -41.463667714468826 0 5.5052411040133631 0 -1 0 I I #
point $-1 -41.463667714468826 -14.197337147038015 5.5052411040133631 #
straight-curve $-1 41.463667714468826 0 5.5052411040133631 0 1 0 I I #
edge $-1 $469 -41.463667714468826 $429 41.463667714468826 $425 $491 forward 7 unknown #
straight-curve $-1 -41.463667714468826 -18.721224963178823 0 0 0 -1 I I #
point $-1 41.463667714468826 -18.721224963178823 5.5052411040133631 #
straight-curve $-1 41.463667714468826 -14.197337147038013 58.633084588196844 0 0 -1 I I #
straight-curve $-1 0 -14.197337147038015 5.5052411040133631 1 0 0 I I #
point $-1 41.463667714468833 -14.197337147038013 0.14993065599445998 #
straight-curve $-1 41.463667714468826 -5.4407397726736404 0.14993065599446709 0 1 0 I I #
point $-1 41.463667714468826 -14.197337147038015 5.5052411040133631 #
point $-1 37.097862262775138 -12.870994106361721 1.2816487057150934 #
point $-1 37.097862262775138 -10.881479545347283 1.2816487057150934 #
point $-1 37.097862262775138 -8.8919649843328425 1.2816487057150934 #
straight-curve $-1 -41.463667714468826 0 5.5052411040133631 0 -1 0 I I #
straight-curve $-1 -41.463667714468826 -14.197337147038013 30.888475134871122 0 0 1 I I #
point $-1 -41.463667714468826 -14.197337147038015 5.5052411040133631 #
point $-1 -37.097862262775131 -12.870994106361721 1.2816487057150951 #
point $-1 -37.097862262775131 -10.881479545347283 1.2816487057150951 #
point $-1 -37.097862262775131 -8.8919649843328425 1.2816487057150951 #
point $-1 -41.463667714468826 -18.721224963178823 5.5052411040133631 #
straight-curve $-1 0 -18.721224963178823 5.5052411040133631 1 0 0 I I #
End-of-ACIS-data 