500 0 14 0           
7 Unknown 11 ACIS 5.0 NT 24 Fri Mar 26 01:32:18 1999 
-1 9.9999999999999995e-007 1e-010 
body $-1 $14 $-1 $15 #
body $-1 $16 $-1 $17 #
body $-1 $18 $-1 $19 #
body $-1 $20 $-1 $21 #
body $-1 $22 $-1 $23 #
body $-1 $24 $-1 $25 #
body $-1 $26 $-1 $27 #
body $-1 $28 $-1 $29 #
body $-1 $30 $-1 $31 #
body $-1 $32 $-1 $33 #
body $-1 $34 $-1 $35 #
body $-1 $36 $-1 $37 #
body $-1 $38 $-1 $39 #
body $-1 $40 $-1 $41 #
lump $-1 $-1 $42 $0 #
transform $-1 1 0 0 0 1 0 0 0 1 54.145939512314214 31.657866871268865 7.7958716936023578 1 rotate no_reflect no_shear #
lump $-1 $-1 $43 $1 #
transform $-1 1 0 0 0 1 0 0 0 1 54.145939512314214 31.657866871268865 7.7958716936023578 1 rotate no_reflect no_shear #
lump $-1 $-1 $44 $2 #
transform $-1 1 0 0 0 1 0 0 0 1 54.145939512314214 31.657866871268865 7.7958716936023578 1 rotate no_reflect no_shear #
lump $-1 $-1 $45 $3 #
transform $-1 1 0 0 0 1 0 0 0 1 54.145939512314214 31.657866871268865 7.7958716936023578 1 rotate no_reflect no_shear #
lump $-1 $-1 $46 $4 #
transform $-1 1 0 0 0 1 0 0 0 1 54.145939512314214 31.657866871268865 7.7958716936023578 1 rotate no_reflect no_shear #
lump $-1 $-1 $47 $5 #
transform $-1 1 0 0 0 1 0 0 0 1 54.145939512314214 31.657866871268865 7.7958716936023578 1 rotate no_reflect no_shear #
lump $-1 $-1 $48 $6 #
transform $-1 1 0 0 0 1 0 0 0 1 54.145939512314214 31.657866871268865 7.7958716936023578 1 rotate no_reflect no_shear #
lump $-1 $-1 $49 $7 #
transform $-1 1 0 0 0 1 0 0 0 1 54.145939512314214 31.657866871268865 7.7958716936023578 1 rotate no_reflect no_shear #
lump $-1 $-1 $50 $8 #
transform $-1 1 0 0 0 1 0 0 0 1 54.145939512314214 31.657866871268865 7.7958716936023578 1 rotate no_reflect no_shear #
lump $-1 $-1 $51 $9 #
transform $-1 1 0 0 0 1 0 0 0 1 54.145939512314214 31.657866871268865 7.7958716936023578 1 rotate no_reflect no_shear #
lump $-1 $-1 $52 $10 #
transform $-1 1 0 0 0 1 0 0 0 1 54.145939512314214 31.657866871268865 7.7958716936023578 1 rotate no_reflect no_shear #
lump $-1 $-1 $53 $11 #
transform $-1 1 0 0 0 1 0 0 0 1 54.145939512314214 31.657866871268865 7.7958716936023578 1 rotate no_reflect no_shear #
lump $-1 $-1 $54 $12 #
transform $-1 1 0 0 0 1 0 0 0 1 54.145939512314214 31.657866871268865 7.7958716936023578 1 rotate no_reflect no_shear #
lump $-1 $-1 $55 $13 #
transform $-1 1 0 0 0 1 0 0 0 1 54.145939512314214 31.657866871268865 7.7958716936023578 1 rotate no_reflect no_shear #
shell $-1 $-1 $-1 $56 $-1 $14 #
shell $-1 $-1 $-1 $57 $-1 $16 #
shell $-1 $-1 $-1 $58 $-1 $18 #
shell $-1 $-1 $-1 $59 $-1 $20 #
shell $-1 $-1 $-1 $60 $-1 $22 #
shell $-1 $-1 $-1 $61 $-1 $24 #
shell $-1 $-1 $-1 $62 $-1 $26 #
shell $-1 $-1 $-1 $63 $-1 $28 #
shell $-1 $-1 $-1 $64 $-1 $30 #
shell $-1 $-1 $-1 $65 $-1 $32 #
shell $-1 $-1 $-1 $66 $-1 $34 #
shell $-1 $-1 $-1 $67 $-1 $36 #
shell $-1 $-1 $-1 $68 $-1 $38 #
shell $-1 $-1 $-1 $69 $-1 $40 #
face $-1 $70 $71 $42 $-1 $72 reversed single #
face $-1 $73 $74 $43 $-1 $75 forward single #
face $-1 $76 $77 $44 $-1 $78 reversed single #
face $-1 $79 $80 $45 $-1 $81 forward single #
face $-1 $82 $83 $46 $-1 $84 forward single #
face $-1 $85 $86 $47 $-1 $87 reversed single #
face $-1 $88 $89 $48 $-1 $90 forward single #
face $-1 $91 $92 $49 $-1 $93 forward single #
face $-1 $94 $95 $50 $-1 $96 reversed single #
face $-1 $97 $98 $51 $-1 $99 forward single #
face $-1 $100 $101 $52 $-1 $102 forward single #
face $-1 $103 $104 $53 $-1 $105 reversed single #
face $-1 $106 $107 $54 $-1 $108 forward single #
face $-1 $109 $110 $55 $-1 $111 forward single #
face $-1 $112 $113 $42 $-1 $114 forward single #
loop $-1 $-1 $115 $56 #
plane-surface $-1 0 -31.657866871268865 0 0 1 0 0 0 1 forward_v I I I I #
face $-1 $116 $117 $43 $-1 $118 reversed single #
loop $-1 $-1 $119 $57 #
plane-surface $-1 0 -31.657866871268865 0 0 1 0 0 0 1 forward_v I I I I #
face $-1 $120 $121 $44 $-1 $122 reversed single #
loop $-1 $-1 $123 $58 #
plane-surface $-1 -39.249237644289636 52.763880217802367 124.24480340054942 -1 0 0 0 0.64278761758704617 0.76604443648966558 forward_v I I I I #
face $-1 $124 $125 $45 $-1 $126 forward single #
loop $-1 $127 $128 $59 #
cone-surface $-1 -49.889738978592909 25.936565498931781 2.4917530137097441 0 -0.64278761758704617 -0.76604443648966558 1.5 0 0 1 I I 0 1 1.5 forward I I I I #
face $-1 $129 $130 $46 $-1 $131 forward single #
loop $-1 $132 $133 $60 #
cone-surface $-1 -43.505438178010948 25.936565498931781 2.4917530137097441 0 -0.64278761758704617 -0.76604443648966558 1.5 0 0 1 I I 0 1 1.5 forward I I I I #
face $-1 $134 $135 $47 $-1 $136 reversed single #
loop $-1 $-1 $137 $61 #
plane-surface $-1 -8.1175119254216881 52.763880217802367 124.24480340054942 -1 0 0 0 0.64278761758704617 0.76604443648966558 forward_v I I I I #
face $-1 $138 $139 $48 $-1 $140 forward single #
loop $-1 $141 $142 $62 #
cone-surface $-1 -18.758013259724962 25.936565498931781 2.4917530137097441 0 -0.64278761758704617 -0.76604443648966558 1.5 0 0 1 I I 0 1 1.5 forward I I I I #
face $-1 $143 $144 $49 $-1 $145 forward single #
loop $-1 $146 $147 $63 #
cone-surface $-1 -12.373712459142993 25.936565498931781 2.4917530137097441 0 -0.64278761758704617 -0.76604443648966558 1.5 0 0 1 I I 0 1 1.5 forward I I I I #
face $-1 $148 $149 $50 $-1 $150 reversed single #
loop $-1 $-1 $151 $64 #
plane-surface $-1 23.014213793446253 52.763880217802367 124.24480340054942 -1 0 0 0 0.64278761758704617 0.76604443648966558 forward_v I I I I #
face $-1 $152 $153 $51 $-1 $154 forward single #
loop $-1 $155 $156 $65 #
cone-surface $-1 12.373712459142979 25.936565498931781 2.4917530137097441 0 -0.64278761758704617 -0.76604443648966558 1.5 0 0 1 I I 0 1 1.5 forward I I I I #
face $-1 $157 $158 $52 $-1 $159 forward single #
loop $-1 $160 $161 $66 #
cone-surface $-1 18.758013259724947 25.936565498931781 2.4917530137097441 0 -0.64278761758704617 -0.76604443648966558 1.5 0 0 1 I I 0 1 1.5 forward I I I I #
face $-1 $162 $163 $53 $-1 $164 reversed single #
loop $-1 $-1 $165 $67 #
plane-surface $-1 46.697588578301918 -16.844798704463159 41.288411956720893 0 0.64278761758704617 0.76604443648966558 1 0 0 forward_v I I I I #
face $-1 $166 $167 $54 $-1 $168 forward single #
loop $-1 $169 $170 $68 #
cone-surface $-1 43.505438178010934 25.936565498931781 2.4917530137097441 0 -0.64278761758704617 -0.76604443648966558 1.5 0 0 1 I I 0 1 1.5 forward I I I I #
face $-1 $171 $172 $55 $-1 $173 forward single #
loop $-1 $174 $175 $69 #
cone-surface $-1 49.889738978592902 25.936565498931781 2.4917530137097441 0 -0.64278761758704617 -0.76604443648966558 1.5 0 0 1 I I 0 1 1.5 forward I I I I #
face $-1 $176 $177 $42 $-1 $178 reversed single #
loop $-1 $-1 $179 $70 #
plane-surface $-1 0 0 7.7958716936023578 0 0 1 1 0 0 forward_v I I I I #
coedge $-1 $180 $181 $182 $183 reversed $71 $-1 #
face $-1 $184 $185 $43 $-1 $186 reversed single #
loop $-1 $-1 $187 $73 #
plane-surface $-1 0 0 -7.7958716936023578 0 0 1 1 0 0 forward_v I I I I #
coedge $-1 $188 $189 $190 $191 forward $74 $-1 #
face $-1 $192 $193 $44 $-1 $194 reversed single #
loop $-1 $-1 $195 $76 #
plane-surface $-1 -46.697588578301925 -16.844798704463159 41.288411956720893 0 0.64278761758704617 0.76604443648966558 1 0 0 forward_v I I I I #
coedge $-1 $196 $197 $198 $199 reversed $77 $-1 #
face $-1 $-1 $200 $45 $-1 $201 forward single #
loop $-1 $202 $203 $79 #
cone-surface $-1 -49.889738978592909 24.027079027439086 0.21611569896141702 0 -0.64278761758704617 -0.76604443648966558 0.75 0 0 1 I I -0.70710678118654757 0.70710678118654757 0.75 forward I I I I #
loop $-1 $-1 $204 $59 #
coedge $-1 $128 $128 $205 $206 reversed $80 $-1 #
face $-1 $-1 $207 $46 $-1 $208 forward single #
loop $-1 $209 $210 $82 #
cone-surface $-1 -43.505438178010948 24.027079027439086 0.21611569896141702 0 -0.64278761758704617 -0.76604443648966558 0.75 0 0 1 I I -0.70710678118654757 0.70710678118654757 0.75 forward I I I I #
loop $-1 $-1 $211 $60 #
coedge $-1 $133 $133 $212 $213 reversed $83 $-1 #
face $-1 $214 $215 $47 $-1 $216 reversed single #
loop $-1 $-1 $217 $85 #
plane-surface $-1 -15.565862859433977 -16.844798704463159 41.288411956720893 0 0.64278761758704617 0.76604443648966558 1 0 0 forward_v I I I I #
coedge $-1 $218 $219 $220 $221 reversed $86 $-1 #
face $-1 $-1 $222 $48 $-1 $223 forward single #
loop $-1 $224 $225 $88 #
cone-surface $-1 -18.758013259724962 24.027079027439086 0.21611569896141702 0 -0.64278761758704617 -0.76604443648966558 0.75 0 0 1 I I -0.70710678118654757 0.70710678118654757 0.75 forward I I I I #
loop $-1 $-1 $226 $62 #
coedge $-1 $142 $142 $227 $228 reversed $89 $-1 #
face $-1 $-1 $229 $49 $-1 $230 forward single #
loop $-1 $231 $232 $91 #
cone-surface $-1 -12.373712459142993 24.027079027439086 0.21611569896141702 0 -0.64278761758704617 -0.76604443648966558 0.75 0 0 1 I I -0.70710678118654757 0.70710678118654757 0.75 forward I I I I #
loop $-1 $-1 $233 $63 #
coedge $-1 $147 $147 $234 $235 reversed $92 $-1 #
face $-1 $236 $237 $50 $-1 $238 reversed single #
loop $-1 $-1 $239 $94 #
plane-surface $-1 15.565862859433963 -16.844798704463159 41.288411956720893 0 0.64278761758704617 0.76604443648966558 1 0 0 forward_v I I I I #
coedge $-1 $240 $241 $242 $243 reversed $95 $-1 #
face $-1 $-1 $244 $51 $-1 $245 forward single #
loop $-1 $246 $247 $97 #
cone-surface $-1 12.373712459142979 24.027079027439086 0.21611569896141702 0 -0.64278761758704617 -0.76604443648966558 0.75 0 0 1 I I -0.70710678118654757 0.70710678118654757 0.75 forward I I I I #
loop $-1 $-1 $248 $65 #
coedge $-1 $156 $156 $249 $250 reversed $98 $-1 #
face $-1 $-1 $251 $52 $-1 $252 forward single #
loop $-1 $253 $254 $100 #
cone-surface $-1 18.758013259724947 24.027079027439086 0.21611569896141702 0 -0.64278761758704617 -0.76604443648966558 0.75 0 0 1 I I -0.70710678118654757 0.70710678118654757 0.75 forward I I I I #
loop $-1 $-1 $255 $66 #
coedge $-1 $161 $161 $256 $257 reversed $101 $-1 #
face $-1 $258 $259 $53 $-1 $260 forward single #
loop $-1 $-1 $261 $103 #
plane-surface $-1 39.249237644289629 52.763880217802367 124.24480340054942 1 0 0 0 -0.64278761758704617 -0.76604443648966558 forward_v I I I I #
coedge $-1 $262 $263 $264 $265 reversed $104 $-1 #
face $-1 $-1 $266 $54 $-1 $267 forward single #
loop $-1 $268 $269 $106 #
cone-surface $-1 43.505438178010934 24.027079027439086 0.21611569896141702 0 -0.64278761758704617 -0.76604443648966558 0.75 0 0 1 I I -0.70710678118654757 0.70710678118654757 0.75 forward I I I I #
loop $-1 $-1 $270 $68 #
coedge $-1 $170 $170 $271 $272 reversed $107 $-1 #
face $-1 $-1 $273 $55 $-1 $274 forward single #
loop $-1 $275 $276 $109 #
cone-surface $-1 49.889738978592902 24.027079027439086 0.21611569896141702 0 -0.64278761758704617 -0.76604443648966558 0.75 0 0 1 I I -0.70710678118654757 0.70710678118654757 0.75 forward I I I I #
loop $-1 $-1 $277 $69 #
coedge $-1 $175 $175 $278 $279 reversed $110 $-1 #
face $-1 $280 $281 $42 $-1 $282 reversed single #
loop $-1 $-1 $283 $112 #
plane-surface $-1 0 0 -7.7958716936023578 0 0 1 1 0 0 forward_v I I I I #
coedge $-1 $284 $285 $286 $287 forward $113 $-1 #
coedge $-1 $288 $115 $289 $290 reversed $71 $-1 #
coedge $-1 $115 $288 $291 $292 forward $71 $-1 #
coedge $-1 $293 $283 $115 $183 forward $177 $-1 #
edge $-1 $294 -54.145939512314214 $295 54.145939512314214 $115 $296 forward 7 unknown #
face $-1 $297 $298 $43 $-1 $299 reversed single #
loop $-1 $-1 $300 $116 #
plane-surface $-1 -45.243409555377099 -40.865565289916901 0 0 1 0 0 0 1 forward_v I I I I #
coedge $-1 $301 $302 $189 $303 forward $117 $-1 #
coedge $-1 $304 $119 $305 $306 reversed $74 $-1 #
coedge $-1 $119 $304 $187 $303 reversed $74 $-1 #
coedge $-1 $307 $308 $119 $191 reversed $298 $-1 #
edge $-1 $309 -7.7958716936023578 $310 7.7958716936023578 $190 $311 forward 7 unknown #
face $-1 $312 $313 $44 $-1 $314 forward single #
loop $-1 $-1 $315 $120 #
plane-surface $-1 -54.145939512314214 0 0 1 0 0 0 0 -1 forward_v I I I I #
coedge $-1 $316 $317 $318 $319 reversed $121 $-1 #
coedge $-1 $197 $123 $320 $321 reversed $77 $-1 #
coedge $-1 $123 $196 $316 $322 reversed $77 $-1 #
coedge $-1 $318 $323 $123 $199 forward $324 $-1 #
edge $-1 $325 54.32653000667235 $326 61.532559391695401 $198 $327 forward 7 unknown #
loop $-1 $-1 $205 $124 #
plane-surface $-1 -46.697588578301925 -16.844798704463159 41.288411956720893 0 0.64278761758704617 0.76604443648966558 1 0 0 forward_v I I I I #
loop $-1 $-1 $328 $79 #
coedge $-1 $203 $203 $204 $329 reversed $125 $-1 #
coedge $-1 $204 $204 $203 $329 forward $127 $-1 #
coedge $-1 $205 $205 $128 $206 forward $200 $-1 #
edge $-1 $330 -1.4596539550692403e-015 $330 6.2831853071795987 $205 $331 forward 7 unknown #
loop $-1 $-1 $212 $129 #
plane-surface $-1 -46.697588578301925 -16.844798704463159 41.288411956720893 0 0.64278761758704617 0.76604443648966558 1 0 0 forward_v I I I I #
loop $-1 $-1 $332 $82 #
coedge $-1 $210 $210 $211 $333 reversed $130 $-1 #
coedge $-1 $211 $211 $210 $333 forward $132 $-1 #
coedge $-1 $212 $212 $133 $213 forward $207 $-1 #
edge $-1 $334 -1.4596539550692403e-015 $334 6.2831853071795987 $212 $335 forward 7 unknown #
face $-1 $336 $337 $47 $-1 $338 forward single #
loop $-1 $-1 $339 $134 #
plane-surface $-1 -23.014213793446267 52.763880217802367 124.24480340054942 1 0 0 0 -0.64278761758704617 -0.76604443648966558 forward_v I I I I #
coedge $-1 $340 $341 $342 $343 reversed $135 $-1 #
coedge $-1 $219 $137 $344 $345 reversed $86 $-1 #
coedge $-1 $137 $218 $340 $346 reversed $86 $-1 #
coedge $-1 $342 $347 $137 $221 forward $348 $-1 #
edge $-1 $349 54.32653000667235 $350 61.532559391695401 $220 $351 forward 7 unknown #
loop $-1 $-1 $227 $138 #
plane-surface $-1 -15.565862859433977 -16.844798704463159 41.288411956720893 0 0.64278761758704617 0.76604443648966558 1 0 0 forward_v I I I I #
loop $-1 $-1 $352 $88 #
coedge $-1 $225 $225 $226 $353 reversed $139 $-1 #
coedge $-1 $226 $226 $225 $353 forward $141 $-1 #
coedge $-1 $227 $227 $142 $228 forward $222 $-1 #
edge $-1 $354 -1.4596539550692403e-015 $354 6.2831853071795987 $227 $355 forward 7 unknown #
loop $-1 $-1 $234 $143 #
plane-surface $-1 -15.565862859433977 -16.844798704463159 41.288411956720893 0 0.64278761758704617 0.76604443648966558 1 0 0 forward_v I I I I #
loop $-1 $-1 $356 $91 #
coedge $-1 $232 $232 $233 $357 reversed $144 $-1 #
coedge $-1 $233 $233 $232 $357 forward $146 $-1 #
coedge $-1 $234 $234 $147 $235 forward $229 $-1 #
edge $-1 $358 -1.4596539550692403e-015 $358 6.2831853071795987 $234 $359 forward 7 unknown #
face $-1 $360 $361 $50 $-1 $362 forward single #
loop $-1 $-1 $363 $148 #
plane-surface $-1 8.1175119254216739 52.763880217802367 124.24480340054942 1 0 0 0 -0.64278761758704617 -0.76604443648966558 forward_v I I I I #
coedge $-1 $364 $365 $366 $367 reversed $149 $-1 #
coedge $-1 $241 $151 $368 $369 reversed $95 $-1 #
coedge $-1 $151 $240 $364 $370 reversed $95 $-1 #
coedge $-1 $366 $371 $151 $243 forward $372 $-1 #
edge $-1 $373 54.32653000667235 $374 61.532559391695401 $242 $375 forward 7 unknown #
loop $-1 $-1 $249 $152 #
plane-surface $-1 15.565862859433963 -16.844798704463159 41.288411956720893 0 0.64278761758704617 0.76604443648966558 1 0 0 forward_v I I I I #
loop $-1 $-1 $376 $97 #
coedge $-1 $247 $247 $248 $377 reversed $153 $-1 #
coedge $-1 $248 $248 $247 $377 forward $155 $-1 #
coedge $-1 $249 $249 $156 $250 forward $244 $-1 #
edge $-1 $378 -1.4596539550692403e-015 $378 6.2831853071795987 $249 $379 forward 7 unknown #
loop $-1 $-1 $256 $157 #
plane-surface $-1 15.565862859433963 -16.844798704463159 41.288411956720893 0 0.64278761758704617 0.76604443648966558 1 0 0 forward_v I I I I #
loop $-1 $-1 $380 $100 #
coedge $-1 $254 $254 $255 $381 reversed $158 $-1 #
coedge $-1 $255 $255 $254 $381 forward $160 $-1 #
coedge $-1 $256 $256 $161 $257 forward $251 $-1 #
edge $-1 $382 -1.4596539550692403e-015 $382 6.2831853071795987 $256 $383 forward 7 unknown #
face $-1 $384 $385 $53 $-1 $386 reversed single #
loop $-1 $-1 $387 $162 #
plane-surface $-1 0 0 7.7958716936023578 0 0 1 1 0 0 forward_v I I I I #
coedge $-1 $388 $389 $390 $391 reversed $163 $-1 #
coedge $-1 $392 $165 $393 $394 reversed $104 $-1 #
coedge $-1 $165 $392 $388 $395 forward $104 $-1 #
coedge $-1 $390 $396 $165 $265 forward $385 $-1 #
edge $-1 $397 -30.797145223163248 $398 -15.90044335513867 $264 $399 forward 7 unknown #
loop $-1 $-1 $271 $166 #
plane-surface $-1 46.697588578301918 -16.844798704463159 41.288411956720893 0 0.64278761758704617 0.76604443648966558 1 0 0 forward_v I I I I #
loop $-1 $-1 $400 $106 #
coedge $-1 $269 $269 $270 $401 reversed $167 $-1 #
coedge $-1 $270 $270 $269 $401 forward $169 $-1 #
coedge $-1 $271 $271 $170 $272 forward $266 $-1 #
edge $-1 $402 -1.4596539550692403e-015 $402 6.2831853071795987 $271 $403 forward 7 unknown #
loop $-1 $-1 $278 $171 #
plane-surface $-1 46.697588578301918 -16.844798704463159 41.288411956720893 0 0.64278761758704617 0.76604443648966558 1 0 0 forward_v I I I I #
loop $-1 $-1 $404 $109 #
coedge $-1 $276 $276 $277 $405 reversed $172 $-1 #
coedge $-1 $277 $277 $276 $405 forward $174 $-1 #
coedge $-1 $278 $278 $175 $279 forward $273 $-1 #
edge $-1 $406 -1.4596539550692403e-015 $406 6.2831853071795987 $278 $407 forward 7 unknown #
face $-1 $408 $409 $42 $-1 $410 reversed single #
loop $-1 $-1 $411 $176 #
plane-surface $-1 -54.145939512314214 0 0 1 0 0 0 0 -1 forward_v I I I I #
coedge $-1 $182 $412 $413 $414 forward $177 $-1 #
coedge $-1 $415 $179 $416 $417 forward $113 $-1 #
coedge $-1 $179 $415 $288 $418 forward $113 $-1 #
coedge $-1 $289 $419 $179 $287 reversed $420 $-1 #
edge $-1 $421 -31.657866871268865 $422 31.657866871268865 $286 $423 forward 7 unknown #
coedge $-1 $181 $180 $285 $418 reversed $71 $-1 #
coedge $-1 $413 $286 $180 $290 forward $420 $-1 #
edge $-1 $421 -7.7958716936023578 $294 7.7958716936023578 $289 $424 forward 7 unknown #
coedge $-1 $425 $426 $181 $292 reversed $281 $-1 #
edge $-1 $427 -7.7958716936023578 $295 7.7958716936023578 $291 $428 forward 7 unknown #
coedge $-1 $412 $182 $426 $429 forward $177 $-1 #
vertex $-1 $290 $430 #
vertex $-1 $429 $431 #
straight-curve $-1 0 -31.657866871268865 -7.7958716936023578 -1 0 0 I I #
face $-1 $432 $433 $43 $-1 $434 reversed single #
loop $-1 $-1 $190 $184 #
plane-surface $-1 -47.381320363554273 -36.261716080592883 0 1 0 0 0 0 -1 forward_v I I I I #
coedge $-1 $435 $436 $437 $438 forward $185 $-1 #
coedge $-1 $439 $187 $440 $441 forward $117 $-1 #
coedge $-1 $187 $439 $307 $442 forward $117 $-1 #
edge $-1 $309 -47.381320363554273 $443 -43.105498747199924 $187 $444 forward 7 unknown #
coedge $-1 $189 $188 $445 $446 forward $74 $-1 #
coedge $-1 $447 $448 $188 $306 forward $449 $-1 #
edge $-1 $450 43.105498747199924 $310 47.381320363554273 $305 $451 forward 7 unknown #
coedge $-1 $437 $190 $302 $442 reversed $298 $-1 #
coedge $-1 $190 $437 $447 $452 reversed $298 $-1 #
vertex $-1 $303 $453 #
vertex $-1 $452 $454 #
straight-curve $-1 -47.381320363554273 -31.657866871268865 0 0 0 1 I I #
face $-1 $-1 $324 $44 $-1 $455 reversed single #
loop $-1 $-1 $320 $192 #
plane-surface $-1 0 0 7.7958716936023578 0 0 1 1 0 0 forward_v I I I I #
coedge $-1 $456 $457 $317 $458 forward $193 $-1 #
coedge $-1 $459 $195 $197 $322 forward $121 $-1 #
coedge $-1 $195 $459 $315 $458 reversed $121 $-1 #
coedge $-1 $460 $198 $195 $319 forward $324 $-1 #
edge $-1 $326 15.900443355138673 $461 30.797145223163252 $318 $462 forward 7 unknown #
coedge $-1 $463 $464 $196 $321 forward $313 $-1 #
edge $-1 $465 -3.3118844657016169 $325 5.275926762367682 $320 $466 forward 7 unknown #
edge $-1 $326 -63.315733742537738 $465 -52.105142268990555 $197 $467 forward 7 unknown #
coedge $-1 $198 $460 $463 $468 reversed $324 $-1 #
loop $-1 $-1 $318 $312 #
vertex $-1 $468 $469 #
vertex $-1 $199 $470 #
straight-curve $-1 -39.249237644289636 31.657866871268865 62.122401700274708 0 0 -1 I I #
coedge $-1 $328 $328 $-1 $471 reversed $202 $-1 #
edge $-1 $472 0 $472 6.2831853071796004 $203 $473 forward 7 unknown #
vertex $-1 $206 $474 #
ellipse-curve $-1 -49.889738978592909 27.363961257234205 4.1928570010908395 0 0.64278761758704617 0.76604443648966558 1.5 0 0 1 I I #
coedge $-1 $332 $332 $-1 $475 reversed $209 $-1 #
edge $-1 $476 0 $476 6.2831853071796004 $210 $477 forward 7 unknown #
vertex $-1 $213 $478 #
ellipse-curve $-1 -43.505438178010948 27.363961257234205 4.1928570010908395 0 0.64278761758704617 0.76604443648966558 1.5 0 0 1 I I #
face $-1 $-1 $348 $47 $-1 $479 reversed single #
loop $-1 $-1 $480 $214 #
plane-surface $-1 0 0 7.7958716936023578 0 0 1 1 0 0 forward_v I I I I #
coedge $-1 $481 $482 $483 $484 reversed $215 $-1 #
coedge $-1 $485 $217 $219 $346 forward $135 $-1 #
coedge $-1 $217 $485 $481 $486 forward $135 $-1 #
coedge $-1 $483 $220 $217 $343 forward $348 $-1 #
edge $-1 $350 0.33458049570469939 $487 15.231282363729278 $342 $488 forward 7 unknown #
coedge $-1 $489 $490 $218 $345 forward $337 $-1 #
edge $-1 $491 -3.3118844657016169 $349 5.275926762367682 $344 $492 forward 7 unknown #
edge $-1 $350 -63.315733742537738 $491 -52.105142268990555 $219 $493 forward 7 unknown #
coedge $-1 $220 $483 $489 $494 reversed $348 $-1 #
loop $-1 $-1 $483 $336 #
vertex $-1 $494 $495 #
vertex $-1 $221 $496 #
straight-curve $-1 -8.1175119254216881 31.657866871268865 62.122401700274708 0 0 -1 I I #
coedge $-1 $352 $352 $-1 $497 reversed $224 $-1 #
edge $-1 $498 0 $498 6.2831853071796004 $225 $499 forward 7 unknown #
vertex $-1 $228 $500 #
ellipse-curve $-1 -18.758013259724962 27.363961257234205 4.1928570010908395 0 0.64278761758704617 0.76604443648966558 1.5 0 0 1 I I #
coedge $-1 $356 $356 $-1 $501 reversed $231 $-1 #
edge $-1 $502 0 $502 6.2831853071796004 $232 $503 forward 7 unknown #
vertex $-1 $235 $504 #
ellipse-curve $-1 -12.373712459142993 27.363961257234205 4.1928570010908395 0 0.64278761758704617 0.76604443648966558 1.5 0 0 1 I I #
face $-1 $-1 $372 $50 $-1 $505 reversed single #
loop $-1 $-1 $506 $236 #
plane-surface $-1 0 0 7.7958716936023578 0 0 1 1 0 0 forward_v I I I I #
coedge $-1 $507 $508 $509 $510 reversed $237 $-1 #
coedge $-1 $511 $239 $241 $370 forward $149 $-1 #
coedge $-1 $239 $511 $507 $512 forward $149 $-1 #
coedge $-1 $509 $242 $239 $367 forward $372 $-1 #
edge $-1 $374 -15.231282363729271 $513 -0.33458049570469228 $366 $514 forward 7 unknown #
coedge $-1 $515 $516 $240 $369 forward $361 $-1 #
edge $-1 $517 -3.3118844657016169 $373 5.275926762367682 $368 $518 forward 7 unknown #
edge $-1 $374 -63.315733742537738 $517 -52.105142268990555 $241 $519 forward 7 unknown #
coedge $-1 $242 $509 $515 $520 reversed $372 $-1 #
loop $-1 $-1 $509 $360 #
vertex $-1 $520 $521 #
vertex $-1 $243 $522 #
straight-curve $-1 23.014213793446253 31.657866871268865 62.122401700274708 0 0 -1 I I #
coedge $-1 $376 $376 $-1 $523 reversed $246 $-1 #
edge $-1 $524 0 $524 6.2831853071796004 $247 $525 forward 7 unknown #
vertex $-1 $250 $526 #
ellipse-curve $-1 12.373712459142979 27.363961257234205 4.1928570010908395 0 0.64278761758704617 0.76604443648966558 1.5 0 0 1 I I #
coedge $-1 $380 $380 $-1 $527 reversed $253 $-1 #
edge $-1 $528 0 $528 6.2831853071796004 $254 $529 forward 7 unknown #
vertex $-1 $257 $530 #
ellipse-curve $-1 18.758013259724947 27.363961257234205 4.1928570010908395 0 0.64278761758704617 0.76604443648966558 1.5 0 0 1 I I #
face $-1 $-1 $531 $53 $-1 $532 reversed single #
loop $-1 $-1 $390 $258 #
plane-surface $-1 0 31.657866871268865 0 0 -1 0 0 0 -1 forward_v I I I I #
coedge $-1 $533 $534 $389 $535 forward $259 $-1 #
coedge $-1 $389 $261 $263 $395 reversed $163 $-1 #
coedge $-1 $261 $388 $387 $535 reversed $163 $-1 #
coedge $-1 $536 $264 $261 $391 forward $385 $-1 #
edge $-1 $398 -61.532559391695401 $537 -54.32653000667235 $390 $538 forward 7 unknown #
coedge $-1 $263 $262 $533 $539 reversed $104 $-1 #
coedge $-1 $540 $541 $262 $394 forward $531 $-1 #
edge $-1 $542 32.383370125512819 $397 43.593961599060009 $393 $543 forward 7 unknown #
edge $-1 $544 52.105142268990555 $398 63.315733742537738 $388 $545 forward 7 unknown #
coedge $-1 $264 $536 $540 $546 forward $385 $-1 #
vertex $-1 $394 $547 #
vertex $-1 $265 $548 #
straight-curve $-1 23.348794289150959 31.657866871268858 0.58984230857931763 -1 0 0 I I #
coedge $-1 $400 $400 $-1 $549 reversed $268 $-1 #
edge $-1 $550 0 $550 6.2831853071796004 $269 $551 forward 7 unknown #
vertex $-1 $272 $552 #
ellipse-curve $-1 43.505438178010934 27.363961257234205 4.1928570010908395 0 0.64278761758704617 0.76604443648966558 1.5 0 0 1 I I #
coedge $-1 $404 $404 $-1 $553 reversed $275 $-1 #
edge $-1 $554 0 $554 6.2831853071796004 $276 $555 forward 7 unknown #
vertex $-1 $279 $556 #
ellipse-curve $-1 49.889738978592902 27.363961257234205 4.1928570010908395 0 0.64278761758704617 0.76604443648966558 1.5 0 0 1 I I #
face $-1 $-1 $420 $42 $-1 $557 reversed single #
loop $-1 $-1 $558 $280 #
plane-surface $-1 0 31.657866871268865 0 0 -1 0 0 0 -1 forward_v I I I I #
coedge $-1 $426 $425 $559 $560 forward $281 $-1 #
coedge $-1 $283 $293 $561 $562 forward $177 $-1 #
coedge $-1 $419 $289 $283 $414 reversed $420 $-1 #
edge $-1 $563 -31.657866871268865 $294 31.657866871268865 $413 $564 forward 7 unknown #
coedge $-1 $285 $284 $425 $565 forward $113 $-1 #
coedge $-1 $558 $559 $284 $417 reversed $409 $-1 #
edge $-1 $422 -54.145939512314214 $566 54.145939512314214 $416 $567 forward 7 unknown #
edge $-1 $427 -54.145939512314214 $421 54.145939512314214 $288 $568 forward 7 unknown #
coedge $-1 $286 $413 $558 $569 reversed $420 $-1 #
loop $-1 $-1 $289 $408 #
vertex $-1 $287 $570 #
vertex $-1 $287 $571 #
straight-curve $-1 54.145939512314214 0 7.7958716936023578 0 1 0 I I #
straight-curve $-1 54.145939512314214 -31.657866871268865 0 0 0 -1 I I #
coedge $-1 $411 $291 $415 $565 reversed $281 $-1 #
coedge $-1 $291 $411 $293 $429 reversed $281 $-1 #
vertex $-1 $565 $572 #
straight-curve $-1 -54.145939512314214 -31.657866871268865 0 0 0 -1 I I #
edge $-1 $295 -31.657866871268865 $573 31.657866871268865 $426 $574 forward 7 unknown #
point $-1 54.145939512314214 -31.657866871268865 -7.7958716936023578 #
point $-1 -54.145939512314214 -31.657866871268865 -7.7958716936023578 #
face $-1 $-1 $449 $43 $-1 $575 forward single #
loop $-1 $-1 $576 $297 #
plane-surface $-1 -43.105498747199924 -36.261716080592883 0 -1 0 0 0 0 1 forward_v I I I I #
coedge $-1 $577 $300 $439 $578 reversed $185 $-1 #
coedge $-1 $300 $577 $579 $580 reversed $185 $-1 #
coedge $-1 $308 $307 $300 $438 reversed $298 $-1 #
edge $-1 $581 -7.7958716936023578 $582 7.7958716936023578 $437 $583 forward 7 unknown #
coedge $-1 $302 $301 $435 $578 forward $117 $-1 #
coedge $-1 $445 $576 $301 $441 reversed $433 $-1 #
edge $-1 $443 -4.6038492093240215 $584 4.603849209324018 $440 $585 forward 7 unknown #
edge $-1 $582 -4.603849209324018 $309 4.6038492093240215 $307 $586 forward 7 unknown #
vertex $-1 $441 $587 #
straight-curve $-1 0 -31.657866871268865 -7.7958716936023578 1 0 0 I I #
coedge $-1 $588 $440 $304 $446 reversed $433 $-1 #
edge $-1 $450 -7.7958716936023578 $443 7.7958716936023578 $445 $589 forward 7 unknown #
coedge $-1 $579 $305 $308 $452 forward $449 $-1 #
coedge $-1 $305 $579 $588 $590 forward $449 $-1 #
loop $-1 $-1 $305 $432 #
vertex $-1 $306 $591 #
straight-curve $-1 0 -31.657866871268865 7.7958716936023578 -1 0 0 I I #
edge $-1 $310 -4.6038492093240215 $581 4.603849209324018 $308 $592 forward 7 unknown #
point $-1 -47.381320363554273 -31.657866871268862 -7.7958716936023578 #
point $-1 -47.381320363554273 -31.657866871268862 7.7958716936023578 #
plane-surface $-1 0 31.657866871268865 0 0 -1 0 0 0 -1 forward_v I I I I #
coedge $-1 $457 $315 $593 $594 reversed $193 $-1 #
coedge $-1 $315 $456 $460 $595 forward $193 $-1 #
edge $-1 $461 -43.593961599060002 $596 -32.383370125512819 $315 $597 forward 7 unknown #
coedge $-1 $317 $316 $464 $598 reversed $121 $-1 #
coedge $-1 $323 $318 $457 $595 reversed $324 $-1 #
vertex $-1 $458 $599 #
straight-curve $-1 -23.348794289150963 31.657866871268858 0.58984230857931763 -1 0 0 I I #
coedge $-1 $593 $320 $323 $468 forward $313 $-1 #
coedge $-1 $320 $593 $459 $598 forward $313 $-1 #
vertex $-1 $321 $600 #
straight-curve $-1 -39.249237644289636 26.381940108901183 7.7958716936023578 0 1 0 I I #
straight-curve $-1 -39.249237644289636 -16.844798704463159 41.288411956720893 0 -0.76604443648966558 0.64278761758704617 I I #
edge $-1 $325 39.249237644289636 $601 54.145939512314214 $323 $602 forward 7 unknown #
point $-1 -39.249237644289636 31.657866871268865 7.7958716936023578 #
point $-1 -39.249237644289636 31.657866871268865 0.58984230857930697 #
edge $-1 $603 1 $603 0 $328 $-1 forward 7 unknown #
vertex $-1 $329 $604 #
ellipse-curve $-1 -49.889738978592909 24.509169740629371 0.79064902632866618 0 0.64278761758704617 0.76604443648966558 1.5 0 0 1 I I #
point $-1 -48.389738978592909 27.363961257234187 4.1928570010908217 #
edge $-1 $605 1 $605 0 $332 $-1 forward 7 unknown #
vertex $-1 $333 $606 #
ellipse-curve $-1 -43.505438178010948 24.509169740629371 0.79064902632866618 0 0.64278761758704617 0.76604443648966558 1.5 0 0 1 I I #
point $-1 -42.005438178010948 27.363961257234187 4.1928570010908217 #
plane-surface $-1 0 31.657866871268865 0 0 -1 0 0 0 -1 forward_v I I I I #
coedge $-1 $490 $489 $482 $607 forward $337 $-1 #
coedge $-1 $482 $339 $341 $486 reversed $215 $-1 #
coedge $-1 $339 $481 $480 $607 reversed $215 $-1 #
coedge $-1 $347 $342 $339 $484 forward $348 $-1 #
edge $-1 $487 -61.532559391695401 $608 -54.32653000667235 $483 $609 forward 7 unknown #
coedge $-1 $341 $340 $490 $610 reversed $135 $-1 #
edge $-1 $611 52.105142268990555 $487 63.315733742537738 $481 $612 forward 7 unknown #
vertex $-1 $343 $613 #
straight-curve $-1 -7.7829314297169887 31.657866871268858 0.58984230857931763 -1 0 0 I I #
coedge $-1 $480 $344 $347 $494 forward $337 $-1 #
coedge $-1 $344 $480 $485 $610 forward $337 $-1 #
vertex $-1 $345 $614 #
straight-curve $-1 -8.1175119254216881 26.381940108901183 7.7958716936023578 0 1 0 I I #
straight-curve $-1 -8.1175119254216881 -16.844798704463159 41.288411956720893 0 -0.76604443648966558 0.64278761758704617 I I #
edge $-1 $349 8.1175119254216881 $608 23.014213793446267 $347 $615 forward 7 unknown #
point $-1 -8.1175119254216881 31.657866871268865 7.7958716936023578 #
point $-1 -8.1175119254216881 31.657866871268865 0.58984230857930697 #
edge $-1 $616 1 $616 0 $352 $-1 forward 7 unknown #
vertex $-1 $353 $617 #
ellipse-curve $-1 -18.758013259724962 24.509169740629371 0.79064902632866618 0 0.64278761758704617 0.76604443648966558 1.5 0 0 1 I I #
point $-1 -17.258013259724962 27.363961257234187 4.1928570010908217 #
edge $-1 $618 1 $618 0 $356 $-1 forward 7 unknown #
vertex $-1 $357 $619 #
ellipse-curve $-1 -12.373712459142993 24.509169740629371 0.79064902632866618 0 0.64278761758704617 0.76604443648966558 1.5 0 0 1 I I #
point $-1 -10.873712459142993 27.363961257234187 4.1928570010908217 #
plane-surface $-1 0 31.657866871268865 0 0 -1 0 0 0 -1 forward_v I I I I #
coedge $-1 $516 $515 $508 $620 forward $361 $-1 #
coedge $-1 $508 $363 $365 $512 reversed $237 $-1 #
coedge $-1 $363 $507 $506 $620 reversed $237 $-1 #
coedge $-1 $371 $366 $363 $510 forward $372 $-1 #
edge $-1 $513 -61.532559391695401 $621 -54.32653000667235 $509 $622 forward 7 unknown #
coedge $-1 $365 $364 $516 $623 reversed $149 $-1 #
edge $-1 $624 52.105142268990555 $513 63.315733742537738 $507 $625 forward 7 unknown #
vertex $-1 $367 $626 #
straight-curve $-1 7.7829314297169816 31.657866871268858 0.58984230857931763 -1 0 0 I I #
coedge $-1 $506 $368 $371 $520 forward $361 $-1 #
coedge $-1 $368 $506 $511 $623 forward $361 $-1 #
vertex $-1 $369 $627 #
straight-curve $-1 23.014213793446253 26.381940108901183 7.7958716936023578 0 1 0 I I #
straight-curve $-1 23.014213793446253 -16.844798704463159 41.288411956720893 0 -0.76604443648966558 0.64278761758704617 I I #
edge $-1 $373 -23.014213793446253 $621 -8.1175119254216739 $371 $628 forward 7 unknown #
point $-1 23.014213793446253 31.657866871268865 7.7958716936023578 #
point $-1 23.014213793446253 31.657866871268865 0.58984230857930697 #
edge $-1 $629 1 $629 0 $376 $-1 forward 7 unknown #
vertex $-1 $377 $630 #
ellipse-curve $-1 12.373712459142979 24.509169740629371 0.79064902632866618 0 0.64278761758704617 0.76604443648966558 1.5 0 0 1 I I #
point $-1 13.873712459142979 27.363961257234187 4.1928570010908217 #
edge $-1 $631 1 $631 0 $380 $-1 forward 7 unknown #
vertex $-1 $381 $632 #
ellipse-curve $-1 18.758013259724947 24.509169740629371 0.79064902632866618 0 0.64278761758704617 0.76604443648966558 1.5 0 0 1 I I #
point $-1 20.258013259724947 27.363961257234187 4.1928570010908217 #
loop $-1 $-1 $393 $384 #
plane-surface $-1 54.145939512314214 0 0 -1 0 0 0 0 1 forward_v I I I I #
coedge $-1 $633 $387 $392 $539 forward $259 $-1 #
coedge $-1 $387 $633 $536 $634 forward $259 $-1 #
edge $-1 $537 -5.275926762367682 $544 3.3118844657016169 $387 $635 forward 7 unknown #
coedge $-1 $396 $390 $534 $634 reversed $385 $-1 #
vertex $-1 $535 $636 #
straight-curve $-1 39.249237644289629 31.657866871268865 62.122401700274708 0 0 1 I I #
edge $-1 $544 15.90044335513867 $542 30.797145223163248 $533 $637 forward 7 unknown #
coedge $-1 $541 $393 $396 $546 reversed $531 $-1 #
coedge $-1 $393 $540 $633 $638 reversed $531 $-1 #
vertex $-1 $638 $639 #
straight-curve $-1 54.145939512314214 -1.737044876235176 28.611501026020267 0 0.76604443648966558 -0.64278761758704617 I I #
vertex $-1 $539 $640 #
straight-curve $-1 39.249237644289629 -16.844798704463159 41.288411956720893 0 0.76604443648966558 -0.64278761758704617 I I #
edge $-1 $641 -7.7958716936023578 $397 -0.58984230857930697 $540 $642 forward 7 unknown #
point $-1 54.145939512314207 31.657866871268865 0.58984230857930697 #
point $-1 39.249237644289629 31.657866871268865 0.58984230857930697 #
edge $-1 $643 1 $643 0 $400 $-1 forward 7 unknown #
vertex $-1 $401 $644 #
ellipse-curve $-1 43.505438178010934 24.509169740629371 0.79064902632866618 0 0.64278761758704617 0.76604443648966558 1.5 0 0 1 I I #
point $-1 45.005438178010934 27.363961257234187 4.1928570010908217 #
edge $-1 $645 1 $645 0 $404 $-1 forward 7 unknown #
vertex $-1 $405 $646 #
ellipse-curve $-1 49.889738978592902 24.509169740629371 0.79064902632866618 0 0.64278761758704617 0.76604443648966558 1.5 0 0 1 I I #
point $-1 51.389738978592902 27.363961257234187 4.1928570010908217 #
plane-surface $-1 54.145939512314214 0 0 -1 0 0 0 0 1 forward_v I I I I #
coedge $-1 $561 $416 $419 $569 forward $409 $-1 #
coedge $-1 $416 $561 $411 $560 reversed $409 $-1 #
edge $-1 $566 -7.7958716936023578 $573 7.7958716936023578 $559 $647 forward 7 unknown #
coedge $-1 $559 $558 $412 $562 reversed $409 $-1 #
edge $-1 $573 -54.145939512314214 $563 54.145939512314214 $561 $648 forward 7 unknown #
vertex $-1 $414 $649 #
straight-curve $-1 54.145939512314214 0 -7.7958716936023578 0 -1 0 I I #
edge $-1 $566 -31.657866871268865 $427 31.657866871268865 $425 $650 forward 7 unknown #
vertex $-1 $417 $651 #
straight-curve $-1 0 31.657866871268865 7.7958716936023578 -1 0 0 I I #
straight-curve $-1 0 -31.657866871268865 7.7958716936023578 1 0 0 I I #
edge $-1 $422 -7.7958716936023578 $563 7.7958716936023578 $419 $652 forward 7 unknown #
point $-1 54.145939512314214 -31.657866871268865 7.7958716936023578 #
point $-1 54.145939512314214 31.657866871268865 7.7958716936023578 #
point $-1 -54.145939512314214 -31.657866871268865 7.7958716936023578 #
vertex $-1 $562 $653 #
straight-curve $-1 -54.145939512314214 0 -7.7958716936023578 0 1 0 I I #
plane-surface $-1 0 0 7.7958716936023578 0 0 1 1 0 0 forward_v I I I I #
coedge $-1 $440 $588 $577 $654 forward $433 $-1 #
coedge $-1 $436 $435 $576 $654 reversed $185 $-1 #
edge $-1 $584 -2.1379108081771747 $582 2.1379108081771747 $435 $655 forward 7 unknown #
coedge $-1 $448 $447 $436 $580 forward $449 $-1 #
edge $-1 $581 -2.1379108081771747 $656 2.1379108081771747 $436 $657 forward 7 unknown #
vertex $-1 $452 $658 #
vertex $-1 $442 $659 #
straight-curve $-1 -47.381320363554273 -40.865565289916901 0 0 0 -1 I I #
vertex $-1 $654 $660 #
straight-curve $-1 -43.105498747199924 -36.261716080592883 -7.7958716936023578 0 -1 0 I I #
straight-curve $-1 -47.381320363554273 -36.261716080592883 -7.7958716936023578 0 1 0 I I #
point $-1 -43.105498747199924 -31.657866871268862 -7.7958716936023578 #
coedge $-1 $576 $445 $448 $590 reversed $433 $-1 #
straight-curve $-1 -43.105498747199924 -31.657866871268865 0 0 0 -1 I I #
edge $-1 $656 -4.603849209324018 $450 4.6038492093240215 $588 $661 forward 7 unknown #
point $-1 -43.105498747199924 -31.657866871268862 7.7958716936023578 #
straight-curve $-1 -47.381320363554273 -36.261716080592883 7.7958716936023578 0 -1 0 I I #
coedge $-1 $464 $463 $456 $594 forward $313 $-1 #
edge $-1 $601 -31.657866871268865 $596 -23.070055643199566 $456 $662 forward 7 unknown #
edge $-1 $601 -7.7958716936023578 $461 -0.58984230857931164 $460 $663 forward 7 unknown #
vertex $-1 $458 $664 #
straight-curve $-1 -54.145939512314214 -1.737044876235176 28.611501026020267 0 -0.76604443648966558 0.64278761758704617 I I #
edge $-1 $596 -30.797145223163252 $465 -15.900443355138673 $464 $665 forward 7 unknown #
point $-1 -54.145939512314214 31.657866871268865 0.58984230857931164 #
point $-1 -39.249237644289636 23.070055643199566 7.7958716936023578 #
vertex $-1 $468 $666 #
straight-curve $-1 0 31.657866871268865 7.7958716936023578 -1 0 0 I I #
vertex $-1 $471 $667 #
point $-1 -48.389738978592909 24.509169740629371 0.79064902632866618 #
vertex $-1 $475 $668 #
point $-1 -42.005438178010948 24.509169740629371 0.79064902632866618 #
edge $-1 $608 -5.275926762367682 $611 3.3118844657016169 $480 $669 forward 7 unknown #
vertex $-1 $484 $670 #
straight-curve $-1 -23.014213793446267 31.657866871268865 62.122401700274708 0 0 1 I I #
edge $-1 $611 -15.231282363729278 $491 -0.33458049570469939 $490 $671 forward 7 unknown #
vertex $-1 $610 $672 #
straight-curve $-1 -23.014213793446267 -16.844798704463159 41.288411956720893 0 0.76604443648966558 -0.64278761758704617 I I #
point $-1 -23.014213793446267 31.657866871268865 0.58984230857930697 #
point $-1 -8.1175119254216881 23.070055643199566 7.7958716936023578 #
straight-curve $-1 0 31.657866871268865 7.7958716936023578 -1 0 0 I I #
vertex $-1 $497 $673 #
point $-1 -17.258013259724962 24.509169740629371 0.79064902632866618 #
vertex $-1 $501 $674 #
point $-1 -10.873712459142993 24.509169740629371 0.79064902632866618 #
edge $-1 $621 -5.275926762367682 $624 3.3118844657016169 $506 $675 forward 7 unknown #
vertex $-1 $510 $676 #
straight-curve $-1 8.1175119254216739 31.657866871268865 62.122401700274708 0 0 1 I I #
edge $-1 $624 0.33458049570469228 $517 15.231282363729271 $516 $677 forward 7 unknown #
vertex $-1 $623 $678 #
straight-curve $-1 8.1175119254216739 -16.844798704463159 41.288411956720893 0 0.76604443648966558 -0.64278761758704617 I I #
point $-1 8.1175119254216739 31.657866871268865 0.58984230857930697 #
point $-1 23.014213793446253 23.070055643199566 7.7958716936023578 #
straight-curve $-1 0 31.657866871268865 7.7958716936023578 -1 0 0 I I #
vertex $-1 $523 $679 #
point $-1 13.873712459142979 24.509169740629371 0.79064902632866618 #
vertex $-1 $527 $680 #
point $-1 20.258013259724947 24.509169740629371 0.79064902632866618 #
coedge $-1 $534 $533 $541 $638 forward $259 $-1 #
edge $-1 $641 -54.145939512314214 $537 -39.249237644289629 $536 $681 forward 7 unknown #
straight-curve $-1 39.249237644289629 26.381940108901183 7.7958716936023578 0 -1 0 I I #
point $-1 39.249237644289629 31.657866871268865 7.7958716936023578 #
straight-curve $-1 23.348794289150959 23.070055643199563 7.7958716936023613 1 0 0 I I #
edge $-1 $542 23.070055643199566 $641 31.657866871268865 $541 $682 forward 7 unknown #
point $-1 54.145939512314207 23.070055643199566 7.7958716936023578 #
point $-1 39.249237644289629 23.070055643199566 7.7958716936023578 #
vertex $-1 $638 $683 #
straight-curve $-1 54.145939512314214 31.657866871268865 0 0 0 -1 I I #
vertex $-1 $549 $684 #
point $-1 45.005438178010934 24.509169740629371 0.79064902632866618 #
vertex $-1 $553 $685 #
point $-1 51.389738978592902 24.509169740629371 0.79064902632866618 #
straight-curve $-1 -54.145939512314214 31.657866871268865 0 0 0 -1 I I #
straight-curve $-1 0 31.657866871268865 -7.7958716936023578 1 0 0 I I #
point $-1 54.145939512314214 31.657866871268865 -7.7958716936023578 #
straight-curve $-1 -54.145939512314214 0 7.7958716936023578 0 -1 0 I I #
point $-1 -54.145939512314214 31.657866871268865 7.7958716936023578 #
straight-curve $-1 54.145939512314214 31.657866871268865 0 0 0 -1 I I #
point $-1 -54.145939512314214 31.657866871268865 -7.7958716936023578 #
edge $-1 $656 -7.7958716936023578 $584 7.7958716936023578 $576 $686 forward 7 unknown #
straight-curve $-1 -45.243409555377099 -40.865565289916901 -7.7958716936023578 -1 0 0 I I #
vertex $-1 $590 $687 #
straight-curve $-1 -45.243409555377099 -40.865565289916901 7.7958716936023578 1 0 0 I I #
point $-1 -47.381320363554273 -40.865565289916901 7.7958716936023578 #
point $-1 -47.381320363554273 -40.865565289916901 -7.7958716936023578 #
point $-1 -43.105498747199924 -40.865565289916901 -7.7958716936023578 #
straight-curve $-1 -43.105498747199924 -36.261716080592883 7.7958716936023578 0 1 0 I I #
straight-curve $-1 -54.145939512314214 0 7.7958716936023578 0 -1 0 I I #
straight-curve $-1 -54.145939512314214 31.657866871268865 0 0 0 -1 I I #
point $-1 -54.145939512314214 23.070055643199566 7.7958716936023578 #
straight-curve $-1 -23.348794289150963 23.070055643199563 7.7958716936023613 1 0 0 I I #
point $-1 -54.145939512314214 31.657866871268865 7.7958716936023578 #
point $-1 -49.889738978592909 23.544988314248801 -0.35841762840583213 #
point $-1 -43.505438178010948 23.544988314248801 -0.35841762840583213 #
straight-curve $-1 -23.014213793446267 26.381940108901183 7.7958716936023578 0 -1 0 I I #
point $-1 -23.014213793446267 31.657866871268865 7.7958716936023578 #
straight-curve $-1 -7.7829314297169887 23.070055643199563 7.7958716936023613 1 0 0 I I #
point $-1 -23.014213793446267 23.070055643199566 7.7958716936023578 #
point $-1 -18.758013259724962 23.544988314248801 -0.35841762840583213 #
point $-1 -12.373712459142993 23.544988314248801 -0.35841762840583213 #
straight-curve $-1 8.1175119254216739 26.381940108901183 7.7958716936023578 0 -1 0 I I #
point $-1 8.1175119254216739 31.657866871268865 7.7958716936023578 #
straight-curve $-1 7.7829314297169816 23.070055643199563 7.7958716936023613 1 0 0 I I #
point $-1 8.1175119254216739 23.070055643199566 7.7958716936023578 #
point $-1 12.373712459142979 23.544988314248801 -0.35841762840583213 #
point $-1 18.758013259724947 23.544988314248801 -0.35841762840583213 #
straight-curve $-1 0 31.657866871268865 7.7958716936023578 -1 0 0 I I #
straight-curve $-1 54.145939512314214 0 7.7958716936023578 0 1 0 I I #
point $-1 54.145939512314214 31.657866871268865 7.7958716936023578 #
point $-1 43.505438178010934 23.544988314248801 -0.35841762840583213 #
point $-1 49.889738978592902 23.544988314248801 -0.35841762840583213 #
straight-curve $-1 -43.105498747199924 -40.865565289916901 0 0 0 -1 I I #
point $-1 -43.105498747199924 -40.865565289916901 7.7958716936023578 #
End-of-ACIS-data 