500 0 8 0           
7 Unknown 11 ACIS 5.0 NT 24 Thu Mar 25 23:23:11 1999 
-1 9.9999999999999995e-007 1e-010 
body $-1 $8 $-1 $9 #
body $-1 $10 $-1 $11 #
body $-1 $12 $-1 $13 #
body $-1 $14 $-1 $15 #
body $-1 $16 $-1 $17 #
body $-1 $18 $-1 $19 #
body $-1 $20 $-1 $21 #
body $-1 $22 $-1 $23 #
lump $-1 $-1 $24 $0 #
transform $-1 1 0 0 0 1 0 0 0 1 77.352214117862474 43.04264627380627 21.042516881621836 1 rotate no_reflect no_shear #
lump $-1 $-1 $25 $1 #
transform $-1 1 0 0 0 1 0 0 0 1 77.352214117862474 43.04264627380627 21.042516881621836 1 rotate no_reflect no_shear #
lump $-1 $-1 $26 $2 #
transform $-1 1 0 0 0 1 0 0 0 1 77.352214117862474 43.04264627380627 21.042516881621836 1 rotate no_reflect no_shear #
lump $-1 $-1 $27 $3 #
transform $-1 1 0 0 0 1 0 0 0 1 77.352214117862474 43.04264627380627 21.042516881621836 1 rotate no_reflect no_shear #
lump $-1 $-1 $28 $4 #
transform $-1 1 0 0 0 1 0 0 0 1 77.352214117862474 43.04264627380627 21.042516881621836 1 rotate no_reflect no_shear #
lump $-1 $-1 $29 $5 #
transform $-1 1 0 0 0 1 0 0 0 1 77.352214117862474 43.04264627380627 21.042516881621836 1 rotate no_reflect no_shear #
lump $-1 $-1 $30 $6 #
transform $-1 1 0 0 0 1 0 0 0 1 77.352214117862474 43.04264627380627 21.042516881621836 1 rotate no_reflect no_shear #
lump $-1 $-1 $31 $7 #
transform $-1 1 0 0 0 1 0 0 0 1 77.352214117862474 43.04264627380627 21.042516881621836 1 rotate no_reflect no_shear #
shell $-1 $-1 $-1 $32 $-1 $8 #
shell $-1 $-1 $-1 $33 $-1 $10 #
shell $-1 $-1 $-1 $34 $-1 $12 #
shell $-1 $-1 $-1 $35 $-1 $14 #
shell $-1 $-1 $-1 $36 $-1 $16 #
shell $-1 $-1 $-1 $37 $-1 $18 #
shell $-1 $-1 $-1 $38 $-1 $20 #
shell $-1 $-1 $-1 $39 $-1 $22 #
face $-1 $40 $41 $24 $-1 $42 forward single #
face $-1 $43 $44 $25 $-1 $45 forward single #
face $-1 $46 $47 $26 $-1 $48 reversed single #
face $-1 $49 $50 $27 $-1 $51 forward single #
face $-1 $52 $53 $28 $-1 $54 forward single #
face $-1 $55 $56 $29 $-1 $57 reversed single #
face $-1 $58 $59 $30 $-1 $60 forward single #
face $-1 $61 $62 $31 $-1 $63 forward single #
face $-1 $64 $65 $24 $-1 $66 reversed single #
loop $-1 $-1 $67 $32 #
plane-surface $-1 0 0 21.042516881621836 0 0 1 1 0 0 forward_v I I I I #
face $-1 $68 $69 $25 $-1 $70 reversed single #
loop $-1 $-1 $71 $33 #
plane-surface $-1 -77.352214117862474 0 0 1 0 0 0 0 -1 forward_v I I I I #
face $-1 $72 $73 $26 $-1 $74 reversed single #
loop $-1 $-1 $75 $34 #
plane-surface $-1 57.270107313485795 52.019036064877056 186.34481655931268 1 0 0 0 -0.52991927123019833 -0.84804809178421925 forward_v I I I I #
face $-1 $76 $77 $27 $-1 $78 forward single #
loop $-1 $79 $80 $35 #
cone-surface $-1 63.007852114736266 32.594378617586806 13.307901707376116 0 -0.52991927123019833 -0.84804809178421925 1.5 0 0 1 I I 0 1 1.5 forward I I I I #
face $-1 $81 $82 $28 $-1 $83 forward single #
loop $-1 $84 $85 $36 #
cone-surface $-1 71.614469316612002 32.594378617586806 13.307901707376116 0 -0.52991927123019833 -0.84804809178421925 1.5 0 0 1 I I 0 1 1.5 forward I I I I #
face $-1 $86 $87 $29 $-1 $88 reversed single #
loop $-1 $-1 $89 $37 #
plane-surface $-1 -18.360719312594174 -140.40129875721144 127.16476648498922 -1 0 0 0 -0.62932039886446345 0.77714595512881146 forward_v I I I I #
face $-1 $90 $91 $30 $-1 $92 forward single #
loop $-1 $93 $94 $38 #
cone-surface $-1 -40.754897843707212 -32.163676755120754 11.31064221667843 0 0.62932039886446345 -0.77714595512881146 2 0 0 1 I I 0 1 2 forward I I I I #
face $-1 $95 $96 $31 $-1 $97 forward single #
loop $-1 $98 $99 $39 #
cone-surface $-1 -27.318390725039393 -32.163676755120754 11.31064221667843 0 0.62932039886446345 -0.77714595512881146 2 0 0 1 I I 0 1 2 forward I I I I #
face $-1 $100 $101 $24 $-1 $102 reversed single #
loop $-1 $-1 $103 $40 #
plane-surface $-1 0 0 -21.042516881621836 0 0 1 1 0 0 forward_v I I I I #
coedge $-1 $104 $105 $106 $107 forward $41 $-1 #
face $-1 $108 $109 $25 $-1 $110 reversed single #
loop $-1 $-1 $111 $43 #
plane-surface $-1 0 0 -21.042516881621836 0 0 1 1 0 0 forward_v I I I I #
coedge $-1 $112 $113 $114 $115 forward $44 $-1 #
face $-1 $116 $117 $26 $-1 $118 forward single #
loop $-1 $-1 $119 $46 #
plane-surface $-1 67.311160715674134 -29.96182180188282 55.14802140343744 0 0.52991927123019833 0.84804809178421925 1 0 0 forward_v I I I I #
coedge $-1 $120 $121 $122 $123 reversed $47 $-1 #
face $-1 $-1 $124 $27 $-1 $125 forward single #
loop $-1 $126 $127 $49 #
cone-surface $-1 63.007852114736266 30.960797788508287 10.693625948619047 0 -0.52991927123019833 -0.84804809178421925 0.75 0 0 1 I I -0.70710678118654757 0.70710678118654757 0.75 forward I I I I #
loop $-1 $-1 $128 $35 #
coedge $-1 $80 $80 $129 $130 reversed $50 $-1 #
face $-1 $-1 $131 $28 $-1 $132 forward single #
loop $-1 $133 $134 $52 #
cone-surface $-1 71.614469316612002 30.960797788508287 10.693625948619047 0 -0.52991927123019833 -0.84804809178421925 0.75 0 0 1 I I -0.70710678118654757 0.70710678118654757 0.75 forward I I I I #
loop $-1 $-1 $135 $36 #
coedge $-1 $85 $85 $136 $137 reversed $53 $-1 #
face $-1 $138 $139 $29 $-1 $140 reversed single #
loop $-1 $-1 $141 $55 #
plane-surface $-1 -34.036644284373295 -43.042646273806255 6.9368458410800855 0 -0.62932039886446345 0.77714595512881146 1 0 0 forward_v I I I I #
coedge $-1 $142 $143 $144 $145 reversed $56 $-1 #
face $-1 $-1 $146 $30 $-1 $147 forward single #
loop $-1 $148 $149 $58 #
cone-surface $-1 -40.754897843707212 -29.364913187991476 7.8544571168770787 0 0.62932039886446345 -0.77714595512881146 1 0 0 1 I I -0.70710678118654746 0.70710678118654746 1 forward I I I I #
loop $-1 $-1 $150 $38 #
coedge $-1 $94 $94 $151 $152 reversed $59 $-1 #
face $-1 $-1 $153 $31 $-1 $154 forward single #
loop $-1 $155 $156 $61 #
cone-surface $-1 -27.318390725039393 -29.364913187991476 7.8544571168770787 0 0.62932039886446345 -0.77714595512881146 1 0 0 1 I I -0.70710678118654746 0.70710678118654746 1 forward I I I I #
loop $-1 $-1 $157 $39 #
coedge $-1 $99 $99 $158 $159 reversed $62 $-1 #
face $-1 $160 $161 $24 $-1 $162 reversed single #
loop $-1 $-1 $163 $64 #
plane-surface $-1 0 -43.04264627380627 0 0 1 0 0 0 1 forward_v I I I I #
coedge $-1 $164 $165 $166 $167 forward $65 $-1 #
coedge $-1 $168 $67 $169 $170 forward $41 $-1 #
coedge $-1 $67 $168 $171 $172 forward $41 $-1 #
coedge $-1 $173 $174 $67 $107 reversed $175 $-1 #
edge $-1 $176 -43.04264627380627 $177 43.04264627380627 $106 $178 forward 7 unknown #
face $-1 $179 $180 $25 $-1 $181 reversed single #
loop $-1 $-1 $182 $68 #
plane-surface $-1 -91.1720365487175 -12.924753295163656 0 0 1 0 0 0 1 forward_v I I I I #
coedge $-1 $183 $184 $113 $185 forward $69 $-1 #
coedge $-1 $186 $71 $187 $188 reversed $44 $-1 #
coedge $-1 $71 $186 $111 $185 reversed $44 $-1 #
coedge $-1 $189 $190 $71 $115 reversed $191 $-1 #
edge $-1 $192 -21.042516881621836 $193 21.042516881621836 $114 $194 forward 7 unknown #
face $-1 $195 $196 $26 $-1 $197 reversed single #
loop $-1 $-1 $122 $72 #
plane-surface $-1 0 0 21.042516881621836 0 0 1 1 0 0 forward_v I I I I #
coedge $-1 $198 $199 $200 $201 reversed $73 $-1 #
coedge $-1 $121 $75 $202 $203 reversed $47 $-1 #
coedge $-1 $75 $120 $198 $204 reversed $47 $-1 #
coedge $-1 $200 $205 $75 $123 forward $117 $-1 #
edge $-1 $206 -17.033128241367741 $207 1.3911243197594843 $122 $208 forward 7 unknown #
loop $-1 $-1 $129 $76 #
plane-surface $-1 67.311160715674134 -29.96182180188282 55.14802140343744 0 0.52991927123019833 0.84804809178421925 1 0 0 forward_v I I I I #
loop $-1 $-1 $209 $49 #
coedge $-1 $127 $127 $128 $210 reversed $77 $-1 #
coedge $-1 $128 $128 $127 $210 forward $79 $-1 #
coedge $-1 $129 $129 $80 $130 forward $124 $-1 #
edge $-1 $211 1.1312701895149883e-015 $211 6.2831853071796013 $129 $212 forward 7 unknown #
loop $-1 $-1 $136 $81 #
plane-surface $-1 67.311160715674134 -29.96182180188282 55.14802140343744 0 0.52991927123019833 0.84804809178421925 1 0 0 forward_v I I I I #
loop $-1 $-1 $213 $52 #
coedge $-1 $134 $134 $135 $214 reversed $82 $-1 #
coedge $-1 $135 $135 $134 $214 forward $84 $-1 #
coedge $-1 $136 $136 $85 $137 forward $131 $-1 #
edge $-1 $215 1.1312701895149883e-015 $215 6.2831853071796013 $136 $216 forward 7 unknown #
face $-1 $217 $218 $29 $-1 $219 forward single #
loop $-1 $-1 $220 $86 #
plane-surface $-1 -49.71256925615242 -140.40129875721144 127.16476648498922 1 0 0 0 0.62932039886446345 -0.77714595512881146 forward_v I I I I #
coedge $-1 $221 $222 $223 $224 reversed $87 $-1 #
coedge $-1 $143 $89 $225 $226 reversed $56 $-1 #
coedge $-1 $89 $142 $221 $227 reversed $56 $-1 #
coedge $-1 $223 $228 $89 $145 forward $218 $-1 #
edge $-1 $229 27.158003104799448 $230 44.577055805640889 $144 $231 forward 7 unknown #
loop $-1 $-1 $151 $90 #
plane-surface $-1 -34.036644284373295 -43.042646273806255 6.9368458410800855 0 -0.62932039886446345 0.77714595512881146 1 0 0 forward_v I I I I #
loop $-1 $-1 $232 $58 #
coedge $-1 $149 $149 $150 $233 reversed $91 $-1 #
coedge $-1 $150 $150 $149 $233 forward $93 $-1 #
coedge $-1 $151 $151 $94 $152 forward $146 $-1 #
edge $-1 $234 6.2648264041219126e-016 $234 6.2831853071796013 $151 $235 forward 7 unknown #
loop $-1 $-1 $158 $95 #
plane-surface $-1 -34.036644284373295 -43.042646273806255 6.9368458410800855 0 -0.62932039886446345 0.77714595512881146 1 0 0 forward_v I I I I #
loop $-1 $-1 $236 $61 #
coedge $-1 $156 $156 $157 $237 reversed $96 $-1 #
coedge $-1 $157 $157 $156 $237 forward $98 $-1 #
coedge $-1 $158 $158 $99 $159 forward $153 $-1 #
edge $-1 $238 6.2648264041219126e-016 $238 6.2831853071796013 $158 $239 forward 7 unknown #
face $-1 $240 $241 $24 $-1 $242 reversed single #
loop $-1 $-1 $243 $100 #
plane-surface $-1 -77.352214117862474 0 0 1 0 0 0 0 -1 forward_v I I I I #
coedge $-1 $244 $171 $245 $246 forward $101 $-1 #
coedge $-1 $247 $103 $244 $248 forward $65 $-1 #
coedge $-1 $103 $247 $249 $250 forward $65 $-1 #
coedge $-1 $174 $173 $103 $167 reversed $175 $-1 #
edge $-1 $251 -43.04264627380627 $252 43.04264627380627 $166 $253 forward 7 unknown #
coedge $-1 $105 $104 $254 $255 forward $41 $-1 #
coedge $-1 $256 $257 $104 $170 reversed $241 $-1 #
edge $-1 $177 -77.352214117862474 $258 77.352214117862474 $169 $259 forward 7 unknown #
coedge $-1 $163 $260 $105 $172 reversed $101 $-1 #
edge $-1 $261 -77.352214117862474 $176 77.352214117862474 $171 $262 forward 7 unknown #
coedge $-1 $166 $106 $260 $263 forward $175 $-1 #
coedge $-1 $106 $166 $256 $264 reversed $175 $-1 #
loop $-1 $-1 $173 $240 #
vertex $-1 $107 $265 #
vertex $-1 $107 $266 #
straight-curve $-1 77.352214117862474 0 21.042516881621836 0 1 0 I I #
face $-1 $267 $191 $25 $-1 $268 reversed single #
loop $-1 $-1 $269 $108 #
plane-surface $-1 -104.99185897957253 -6.941182902863126 0 1 0 0 0 0 -1 forward_v I I I I #
coedge $-1 $270 $271 $272 $273 forward $109 $-1 #
coedge $-1 $274 $111 $270 $275 forward $69 $-1 #
coedge $-1 $111 $274 $189 $276 forward $69 $-1 #
edge $-1 $192 0.95761251056259589 $277 12.924753295163656 $111 $278 forward 7 unknown #
coedge $-1 $113 $112 $279 $280 forward $44 $-1 #
coedge $-1 $281 $282 $112 $188 forward $283 $-1 #
edge $-1 $284 -12.924753295163656 $193 -0.95761251056259589 $187 $285 forward 7 unknown #
coedge $-1 $286 $114 $184 $276 reversed $191 $-1 #
coedge $-1 $114 $286 $281 $287 reversed $191 $-1 #
loop $-1 $-1 $114 $179 #
vertex $-1 $185 $288 #
vertex $-1 $287 $289 #
straight-curve $-1 -77.352214117862474 -0.95761251056259589 0 0 0 1 I I #
face $-1 $-1 $290 $26 $-1 $291 reversed single #
loop $-1 $-1 $202 $116 #
plane-surface $-1 0 43.04264627380627 0 0 -1 0 0 0 -1 forward_v I I I I #
coedge $-1 $292 $119 $121 $204 forward $73 $-1 #
coedge $-1 $119 $292 $293 $294 reversed $73 $-1 #
coedge $-1 $295 $122 $119 $201 forward $117 $-1 #
edge $-1 $207 23.614526955648728 $296 43.696633760025406 $200 $297 forward 7 unknown #
coedge $-1 $298 $299 $120 $203 forward $196 $-1 #
edge $-1 $300 -83.642642366688165 $206 -72.129891398034502 $202 $301 forward 7 unknown #
edge $-1 $207 64.359811717434383 $300 86.085292547612539 $121 $302 forward 7 unknown #
coedge $-1 $122 $295 $298 $303 forward $117 $-1 #
vertex $-1 $123 $304 #
vertex $-1 $123 $305 #
straight-curve $-1 57.270107313485795 26.009518032438528 21.042516881621836 0 -1 0 I I #
coedge $-1 $209 $209 $-1 $306 reversed $126 $-1 #
edge $-1 $307 0 $307 6.2831853071796004 $127 $308 forward 7 unknown #
vertex $-1 $130 $309 #
ellipse-curve $-1 63.007852114736266 33.83051999324266 15.286141397294999 0 0.52991927123019833 0.84804809178421925 1.5 0 0 1 I I #
coedge $-1 $213 $213 $-1 $310 reversed $133 $-1 #
edge $-1 $311 0 $311 6.2831853071796004 $134 $312 forward 7 unknown #
vertex $-1 $137 $313 #
ellipse-curve $-1 71.614469316612002 33.83051999324266 15.286141397294999 0 0.52991927123019833 0.84804809178421925 1.5 0 0 1 I I #
face $-1 $-1 $314 $29 $-1 $315 reversed single #
loop $-1 $-1 $144 $138 #
plane-surface $-1 0 0 21.042516881621836 0 0 1 1 0 0 forward_v I I I I #
coedge $-1 $316 $317 $318 $319 reversed $139 $-1 #
coedge $-1 $320 $141 $143 $227 forward $87 $-1 #
coedge $-1 $141 $320 $316 $321 forward $87 $-1 #
coedge $-1 $318 $144 $141 $224 forward $218 $-1 #
edge $-1 $230 1.3423971704075264 $322 32.694247113965773 $223 $323 forward 7 unknown #
coedge $-1 $324 $325 $142 $226 forward $314 $-1 #
edge $-1 $326 -56.645537401414536 $229 -42.539866360872772 $225 $327 forward 7 unknown #
edge $-1 $230 -22.414132874119158 $326 1.8310242626372826e-014 $143 $328 forward 7 unknown #
coedge $-1 $144 $318 $324 $329 forward $218 $-1 #
vertex $-1 $145 $330 #
vertex $-1 $145 $331 #
straight-curve $-1 -18.360719312594174 -70.200649378605718 21.042516881621836 0 1 0 I I #
coedge $-1 $232 $232 $-1 $332 reversed $148 $-1 #
edge $-1 $333 0 $333 6.2831853071796004 $149 $334 forward 7 unknown #
vertex $-1 $152 $335 #
ellipse-curve $-1 -40.754897843707212 -34.333119923385553 13.989681361350952 0 -0.62932039886446345 0.77714595512881146 2 0 0 1 I I #
coedge $-1 $236 $236 $-1 $336 reversed $155 $-1 #
edge $-1 $337 0 $337 6.2831853071796004 $156 $338 forward 7 unknown #
vertex $-1 $159 $339 #
ellipse-curve $-1 -27.318390725039393 -34.333119923385553 13.989681361350952 0 -0.62932039886446345 0.77714595512881146 2 0 0 1 I I #
face $-1 $-1 $175 $24 $-1 $340 reversed single #
loop $-1 $-1 $256 $160 #
plane-surface $-1 0 43.04264627380627 0 0 -1 0 0 0 -1 forward_v I I I I #
coedge $-1 $341 $254 $257 $342 forward $161 $-1 #
coedge $-1 $260 $163 $164 $248 reversed $101 $-1 #
coedge $-1 $254 $341 $163 $246 reversed $161 $-1 #
edge $-1 $261 -21.042516881621836 $343 21.042516881621836 $245 $344 forward 7 unknown #
coedge $-1 $165 $164 $341 $345 forward $65 $-1 #
edge $-1 $252 -77.352214117862474 $343 77.352214117862474 $244 $346 forward 7 unknown #
coedge $-1 $257 $256 $165 $250 reversed $241 $-1 #
edge $-1 $347 -77.352214117862474 $251 77.352214117862474 $249 $348 forward 7 unknown #
vertex $-1 $167 $349 #
vertex $-1 $263 $350 #
straight-curve $-1 77.352214117862474 0 -21.042516881621836 0 -1 0 I I #
coedge $-1 $243 $245 $168 $255 reversed $161 $-1 #
edge $-1 $258 -43.04264627380627 $261 43.04264627380627 $254 $351 forward 7 unknown #
coedge $-1 $249 $169 $174 $264 forward $241 $-1 #
coedge $-1 $169 $249 $243 $342 reversed $241 $-1 #
vertex $-1 $170 $352 #
straight-curve $-1 0 43.04264627380627 21.042516881621836 -1 0 0 I I #
coedge $-1 $171 $244 $173 $263 reversed $101 $-1 #
vertex $-1 $255 $353 #
straight-curve $-1 0 -43.04264627380627 21.042516881621836 1 0 0 I I #
edge $-1 $176 -21.042516881621836 $252 21.042516881621836 $173 $354 forward 7 unknown #
edge $-1 $177 -21.042516881621836 $251 21.042516881621836 $174 $355 forward 7 unknown #
point $-1 77.352214117862474 -43.04264627380627 21.042516881621836 #
point $-1 77.352214117862474 43.04264627380627 21.042516881621836 #
face $-1 $-1 $283 $25 $-1 $356 forward single #
plane-surface $-1 -91.1720365487175 -0.95761251056259589 0 0 -1 0 0 0 -1 forward_v I I I I #
coedge $-1 $357 $358 $286 $359 forward $180 $-1 #
coedge $-1 $279 $182 $183 $275 reversed $109 $-1 #
coedge $-1 $182 $279 $282 $360 reversed $109 $-1 #
coedge $-1 $358 $357 $182 $273 reversed $180 $-1 #
edge $-1 $361 -21.042516881621836 $362 21.042516881621836 $272 $363 forward 7 unknown #
coedge $-1 $184 $183 $357 $364 forward $69 $-1 #
edge $-1 $277 -13.819822430855027 $362 13.819822430855027 $270 $365 forward 7 unknown #
edge $-1 $366 -13.819822430855027 $192 13.819822430855027 $189 $367 forward 7 unknown #
vertex $-1 $275 $368 #
straight-curve $-1 -77.352214117862474 0 -21.042516881621836 0 -1 0 I I #
coedge $-1 $271 $270 $186 $280 reversed $109 $-1 #
edge $-1 $284 -21.042516881621836 $277 21.042516881621836 $279 $369 forward 7 unknown #
coedge $-1 $370 $187 $190 $287 forward $283 $-1 #
coedge $-1 $187 $370 $271 $360 forward $283 $-1 #
loop $-1 $-1 $187 $267 #
vertex $-1 $188 $371 #
straight-curve $-1 -77.352214117862474 0 21.042516881621836 0 1 0 I I #
coedge $-1 $190 $189 $269 $359 reversed $191 $-1 #
edge $-1 $193 -13.819822430855027 $372 13.819822430855027 $190 $373 forward 7 unknown #
point $-1 -77.352214117862474 -0.95761251056259589 -21.042516881621836 #
point $-1 -77.352214117862474 -0.95761251056259589 21.042516881621836 #
loop $-1 $-1 $293 $195 #
plane-surface $-1 77.352214117862474 0 0 -1 0 0 0 0 1 forward_v I I I I #
coedge $-1 $199 $198 $299 $374 reversed $73 $-1 #
coedge $-1 $375 $376 $199 $294 forward $290 $-1 #
edge $-1 $296 37.043279158753137 $377 58.768759988931308 $293 $378 forward 7 unknown #
coedge $-1 $205 $200 $376 $379 forward $117 $-1 #
vertex $-1 $379 $380 #
straight-curve $-1 33.655580357837067 24.618393712679044 21.042516881621836 1 0 0 I I #
coedge $-1 $381 $202 $205 $303 reversed $196 $-1 #
coedge $-1 $202 $381 $292 $374 forward $196 $-1 #
vertex $-1 $203 $382 #
straight-curve $-1 57.270107313485795 43.04264627380627 93.172408279656338 0 0 1 I I #
straight-curve $-1 57.270107313485795 -29.96182180188282 55.14802140343744 0 0.84804809178421925 -0.52991927123019833 I I #
edge $-1 $383 -77.352214117862474 $206 -57.270107313485795 $298 $384 forward 7 unknown #
point $-1 57.270107313485795 43.04264627380627 21.042516881621836 #
point $-1 57.270107313485795 24.618393712679044 21.042516881621836 #
edge $-1 $385 1 $385 0 $209 $-1 forward 7 unknown #
vertex $-1 $210 $386 #
ellipse-curve $-1 63.007852114736266 31.358237241930937 11.329662017457212 0 0.52991927123019833 0.84804809178421925 1.5 0 0 1 I I #
point $-1 64.507852114736266 33.830519993242675 15.286141397295019 #
edge $-1 $387 1 $387 0 $213 $-1 forward 7 unknown #
vertex $-1 $214 $388 #
ellipse-curve $-1 71.614469316612002 31.358237241930937 11.329662017457212 0 0.52991927123019833 0.84804809178421925 1.5 0 0 1 I I #
point $-1 73.114469316612002 33.830519993242675 15.286141397295019 #
loop $-1 $-1 $225 $217 #
plane-surface $-1 0 -43.04264627380627 0 0 1 0 0 0 1 forward_v I I I I #
coedge $-1 $317 $220 $222 $321 reversed $139 $-1 #
coedge $-1 $220 $316 $389 $390 reversed $139 $-1 #
coedge $-1 $228 $223 $220 $319 forward $218 $-1 #
edge $-1 $322 -44.577055805640889 $391 -27.158003104799448 $318 $392 forward 7 unknown #
coedge $-1 $222 $221 $325 $393 reversed $87 $-1 #
edge $-1 $394 -1.8310242626372826e-014 $322 22.414132874119158 $316 $395 forward 7 unknown #
vertex $-1 $224 $396 #
straight-curve $-1 -17.018322142186648 -25.623593572964833 21.042516881621836 -1 0 0 I I #
coedge $-1 $389 $225 $228 $329 reversed $314 $-1 #
coedge $-1 $225 $389 $320 $393 forward $314 $-1 #
vertex $-1 $226 $397 #
straight-curve $-1 -18.360719312594174 -43.04264627380627 63.582383242494608 0 0 1 I I #
straight-curve $-1 -18.360719312594174 -43.042646273806255 6.9368458410800855 0 -0.77714595512881146 -0.62932039886446345 I I #
edge $-1 $391 -49.71256925615242 $229 -18.360719312594174 $324 $398 forward 7 unknown #
point $-1 -18.360719312594174 -43.04264627380627 21.042516881621836 #
point $-1 -18.360719312594174 -25.623593572964829 21.042516881621836 #
edge $-1 $399 1 $399 0 $232 $-1 forward 7 unknown #
vertex $-1 $233 $400 #
ellipse-curve $-1 -40.754897843707212 -29.994233586855941 8.6316030720058894 0 -0.62932039886446345 0.77714595512881146 2 0 0 1 I I #
point $-1 -38.754897843707212 -34.333119923385567 13.989681361350971 #
edge $-1 $401 1 $401 0 $236 $-1 forward 7 unknown #
vertex $-1 $237 $402 #
ellipse-curve $-1 -27.318390725039393 -29.994233586855941 8.6316030720058894 0 -0.62932039886446345 0.77714595512881146 2 0 0 1 I I #
point $-1 -25.318390725039393 -34.333119923385567 13.989681361350971 #
plane-surface $-1 77.352214117862474 0 0 -1 0 0 0 0 1 forward_v I I I I #
coedge $-1 $245 $243 $247 $345 reversed $161 $-1 #
edge $-1 $258 -21.042516881621836 $347 21.042516881621836 $257 $403 forward 7 unknown #
vertex $-1 $345 $404 #
straight-curve $-1 -77.352214117862474 -43.04264627380627 0 0 0 -1 I I #
edge $-1 $343 -43.04264627380627 $347 43.04264627380627 $341 $405 forward 7 unknown #
straight-curve $-1 0 -43.04264627380627 -21.042516881621836 -1 0 0 I I #
vertex $-1 $250 $406 #
straight-curve $-1 0 43.04264627380627 -21.042516881621836 1 0 0 I I #
point $-1 77.352214117862474 43.04264627380627 -21.042516881621836 #
point $-1 77.352214117862474 -43.04264627380627 -21.042516881621836 #
straight-curve $-1 -77.352214117862474 0 21.042516881621836 0 -1 0 I I #
point $-1 -77.352214117862474 43.04264627380627 21.042516881621836 #
point $-1 -77.352214117862474 -43.04264627380627 21.042516881621836 #
straight-curve $-1 77.352214117862474 -43.04264627380627 0 0 0 -1 I I #
straight-curve $-1 77.352214117862474 43.04264627380627 0 0 0 -1 I I #
plane-surface $-1 0 0 21.042516881621836 0 0 1 1 0 0 forward_v I I I I #
coedge $-1 $272 $269 $274 $364 reversed $180 $-1 #
coedge $-1 $269 $272 $370 $407 reversed $180 $-1 #
edge $-1 $372 -21.042516881621836 $366 21.042516881621836 $286 $408 forward 7 unknown #
edge $-1 $361 -13.819822430855027 $284 13.819822430855027 $271 $409 forward 7 unknown #
vertex $-1 $407 $410 #
vertex $-1 $364 $411 #
straight-curve $-1 -104.99185897957253 -12.924753295163656 0 0 0 -1 I I #
edge $-1 $362 -5.9835703923005301 $366 5.9835703923005301 $357 $412 forward 7 unknown #
straight-curve $-1 -91.1720365487175 -12.924753295163656 -21.042516881621836 -1 0 0 I I #
vertex $-1 $276 $413 #
straight-curve $-1 -91.1720365487175 -0.95761251056259589 -21.042516881621836 1 0 0 I I #
point $-1 -77.352214117862474 -12.924753295163656 -21.042516881621836 #
straight-curve $-1 -77.352214117862474 -12.924753295163656 0 0 0 -1 I I #
coedge $-1 $282 $281 $358 $407 forward $283 $-1 #
point $-1 -77.352214117862474 -12.924753295163656 21.042516881621836 #
vertex $-1 $287 $414 #
straight-curve $-1 -91.1720365487175 -0.95761251056259589 21.042516881621836 -1 0 0 I I #
edge $-1 $377 -43.696633760025406 $300 -23.614526955648728 $299 $415 forward 7 unknown #
coedge $-1 $376 $293 $381 $416 reversed $290 $-1 #
coedge $-1 $293 $375 $295 $379 reversed $290 $-1 #
vertex $-1 $294 $417 #
straight-curve $-1 77.352214117862474 -6.7960884913316946 40.672464377405092 0 0.84804809178421925 -0.52991927123019833 I I #
edge $-1 $296 24.618393712679044 $383 43.04264627380627 $376 $418 forward 7 unknown #
point $-1 77.352214117862474 24.618393712679044 21.042516881621836 #
coedge $-1 $299 $298 $375 $416 forward $196 $-1 #
point $-1 57.270107313485795 43.04264627380627 9.5297659129681804 #
vertex $-1 $379 $419 #
straight-curve $-1 0 43.04264627380627 21.042516881621836 -1 0 0 I I #
vertex $-1 $306 $420 #
point $-1 64.507852114736266 31.358237241930937 11.329662017457212 #
vertex $-1 $310 $421 #
point $-1 73.114469316612002 31.358237241930937 11.329662017457212 #
coedge $-1 $325 $324 $317 $390 forward $314 $-1 #
edge $-1 $391 42.539866360872772 $394 56.645537401414536 $389 $422 forward 7 unknown #
vertex $-1 $329 $423 #
straight-curve $-1 -49.71256925615242 -70.200649378605718 21.042516881621836 0 -1 0 I I #
edge $-1 $394 -32.694247113965773 $326 -1.3423971704075264 $325 $424 forward 7 unknown #
vertex $-1 $393 $425 #
straight-curve $-1 -49.71256925615242 -43.042646273806255 6.9368458410800855 0 0.77714595512881146 0.62932039886446345 I I #
point $-1 -49.71256925615242 -25.623593572964829 21.042516881621836 #
point $-1 -18.360719312594174 -43.04264627380627 6.936845841080074 #
straight-curve $-1 0 -43.04264627380627 21.042516881621836 1 0 0 I I #
vertex $-1 $332 $426 #
point $-1 -38.754897843707212 -29.994233586855941 8.6316030720058894 #
vertex $-1 $336 $427 #
point $-1 -25.318390725039393 -29.994233586855941 8.6316030720058894 #
straight-curve $-1 -77.352214117862474 43.04264627380627 0 0 0 -1 I I #
point $-1 -77.352214117862474 -43.04264627380627 -21.042516881621836 #
straight-curve $-1 -77.352214117862474 0 -21.042516881621836 0 1 0 I I #
point $-1 -77.352214117862474 43.04264627380627 -21.042516881621836 #
edge $-1 $372 -5.9835703923005301 $361 5.9835703923005301 $358 $428 forward 7 unknown #
straight-curve $-1 -104.99185897957253 -0.95761251056259589 0 0 0 -1 I I #
straight-curve $-1 -91.1720365487175 -12.924753295163656 21.042516881621836 1 0 0 I I #
point $-1 -104.99185897957253 -12.924753295163656 21.042516881621836 #
point $-1 -104.99185897957253 -12.924753295163656 -21.042516881621836 #
straight-curve $-1 -104.99185897957253 -6.941182902863126 -21.042516881621836 0 1 0 I I #
point $-1 -104.99185897957253 -0.95761251056259589 -21.042516881621836 #
point $-1 -104.99185897957253 -0.95761251056259589 21.042516881621836 #
straight-curve $-1 33.655580357837067 43.042646273806277 9.5297659129681733 -1 0 0 I I #
edge $-1 $383 -21.042516881621836 $377 -9.5297659129681804 $375 $429 forward 7 unknown #
point $-1 77.352214117862474 43.04264627380627 9.5297659129681804 #
straight-curve $-1 77.352214117862474 0 21.042516881621836 0 1 0 I I #
point $-1 77.352214117862474 43.04264627380627 21.042516881621836 #
point $-1 63.007852114736266 30.563358335085638 10.057589879780883 #
point $-1 71.614469316612002 30.563358335085638 10.057589879780883 #
straight-curve $-1 -49.71256925615242 -43.04264627380627 63.582383242494608 0 0 -1 I I #
point $-1 -49.71256925615242 -43.04264627380627 21.042516881621836 #
straight-curve $-1 -17.018322142186648 -43.04264627380627 6.9368458410800757 1 0 0 I I #
point $-1 -49.71256925615242 -43.04264627380627 6.936845841080074 #
point $-1 -40.754897843707212 -28.735592789127011 7.0773111617482671 #
point $-1 -27.318390725039393 -28.735592789127011 7.0773111617482671 #
straight-curve $-1 -104.99185897957253 -6.941182902863126 21.042516881621836 0 -1 0 I I #
straight-curve $-1 77.352214117862474 43.04264627380627 0 0 0 -1 I I #
End-of-ACIS-data 