500 0 9 0           
7 Unknown 11 ACIS 5.0 NT 24 Fri Mar 26 01:03:11 1999 
-1 9.9999999999999995e-007 1e-010 
body $-1 $9 $-1 $10 #
body $-1 $11 $-1 $12 #
body $-1 $13 $-1 $14 #
body $-1 $15 $-1 $16 #
body $-1 $17 $-1 $18 #
body $-1 $19 $-1 $20 #
body $-1 $21 $-1 $22 #
body $-1 $23 $-1 $24 #
body $-1 $25 $-1 $26 #
lump $-1 $-1 $27 $0 #
transform $-1 1 0 0 0 1 0 0 0 1 51.544541764580217 34.949989929413448 16.758865223240974 1 rotate no_reflect no_shear #
lump $-1 $-1 $28 $1 #
transform $-1 1 0 0 0 1 0 0 0 1 51.544541764580217 34.949989929413448 16.758865223240974 1 rotate no_reflect no_shear #
lump $-1 $-1 $29 $2 #
transform $-1 1 0 0 0 1 0 0 0 1 51.544541764580217 34.949989929413448 16.758865223240974 1 rotate no_reflect no_shear #
lump $-1 $-1 $30 $3 #
transform $-1 1 0 0 0 1 0 0 0 1 51.544541764580217 34.949989929413448 16.758865223240974 1 rotate no_reflect no_shear #
lump $-1 $-1 $31 $4 #
transform $-1 1 0 0 0 1 0 0 0 1 51.544541764580217 34.949989929413448 16.758865223240974 1 rotate no_reflect no_shear #
lump $-1 $-1 $32 $5 #
transform $-1 1 0 0 0 1 0 0 0 1 51.544541764580217 34.949989929413448 16.758865223240974 1 rotate no_reflect no_shear #
lump $-1 $-1 $33 $6 #
transform $-1 1 0 0 0 1 0 0 0 1 51.544541764580217 34.949989929413448 16.758865223240974 1 rotate no_reflect no_shear #
lump $-1 $-1 $34 $7 #
transform $-1 1 0 0 0 1 0 0 0 1 51.544541764580217 34.949989929413448 16.758865223240974 1 rotate no_reflect no_shear #
lump $-1 $-1 $35 $8 #
transform $-1 1 0 0 0 1 0 0 0 1 51.544541764580217 34.949989929413448 16.758865223240974 1 rotate no_reflect no_shear #
shell $-1 $-1 $-1 $36 $-1 $9 #
shell $-1 $-1 $-1 $37 $-1 $11 #
shell $-1 $-1 $-1 $38 $-1 $13 #
shell $-1 $-1 $-1 $39 $-1 $15 #
shell $-1 $-1 $-1 $40 $-1 $17 #
shell $-1 $-1 $-1 $41 $-1 $19 #
shell $-1 $-1 $-1 $42 $-1 $21 #
shell $-1 $-1 $-1 $43 $-1 $23 #
shell $-1 $-1 $-1 $44 $-1 $25 #
face $-1 $45 $46 $27 $-1 $47 forward single #
face $-1 $48 $49 $28 $-1 $50 forward single #
face $-1 $51 $52 $29 $-1 $53 reversed single #
face $-1 $54 $55 $30 $-1 $56 reversed single #
face $-1 $57 $58 $31 $-1 $59 forward single #
face $-1 $60 $61 $32 $-1 $62 forward single #
face $-1 $63 $64 $33 $-1 $65 reversed single #
face $-1 $66 $67 $34 $-1 $68 forward single #
face $-1 $69 $70 $35 $-1 $71 forward single #
face $-1 $72 $73 $27 $-1 $74 reversed single #
loop $-1 $-1 $75 $36 #
plane-surface $-1 0 0 16.758865223240974 0 0 1 1 0 0 forward_v I I I I #
face $-1 $76 $77 $28 $-1 $78 reversed single #
loop $-1 $-1 $79 $37 #
plane-surface $-1 -42.432259785839598 0 -11.369862283966679 0 0 1 1 0 0 forward_v I I I I #
face $-1 $80 $81 $29 $-1 $82 reversed single #
loop $-1 $-1 $83 $38 #
plane-surface $-1 43.067886560403622 -11.051409292178066 0 0 1 0 0 0 1 forward_v I I I I #
face $-1 $84 $85 $30 $-1 $86 reversed single #
loop $-1 $-1 $87 $39 #
plane-surface $-1 0.63562677456402739 -119.39562428471274 62.737249264139081 -1 0 0 0 -0.81915205242281985 0.57357642473473569 forward_v I I I I #
face $-1 $88 $89 $31 $-1 $90 forward single #
loop $-1 $91 $92 $40 #
cone-surface $-1 -4.6921562008575464 -28.857550210591945 9.141277370762209 0 0.81915205242281985 -0.57357642473473569 1 0 0 1 I I 0 1 1 forward I I I I #
face $-1 $93 $94 $32 $-1 $95 forward single #
loop $-1 $96 $97 $41 #
cone-surface $-1 -1.4954864156046028 -28.857550210591945 9.141277370762209 0 0.81915205242281985 -0.57357642473473569 1 0 0 1 I I 0 1 1 forward I I I I #
face $-1 $98 $99 $33 $-1 $100 reversed single #
loop $-1 $-1 $101 $42 #
plane-surface $-1 -3.093821308231071 -34.949989929413462 3.607781304302712 0 -0.81915205242281985 0.57357642473473569 1 0 0 forward_v I I I I #
face $-1 $102 $103 $34 $-1 $104 forward single #
loop $-1 $105 $106 $43 #
cone-surface $-1 2.7667399647326505 -28.857550210591945 9.141277370762209 0 0.81915205242281985 -0.57357642473473569 1 0 0 1 I I 0 1 1 forward I I I I #
face $-1 $107 $108 $35 $-1 $109 forward single #
loop $-1 $110 $111 $44 #
cone-surface $-1 5.963409749985594 -28.857550210591945 9.141277370762209 0 0.81915205242281985 -0.57357642473473569 1 0 0 1 I I 0 1 1 forward I I I I #
face $-1 $112 $113 $27 $-1 $114 reversed single #
loop $-1 $-1 $115 $45 #
plane-surface $-1 0 0 -16.758865223240974 0 0 1 1 0 0 forward_v I I I I #
coedge $-1 $116 $117 $118 $119 forward $46 $-1 #
face $-1 $120 $121 $28 $-1 $122 reversed single #
loop $-1 $-1 $123 $48 #
plane-surface $-1 -33.319977807098979 0 -14.064363753603827 -1 0 0 0 0 1 forward_v I I I I #
coedge $-1 $124 $125 $126 $127 forward $49 $-1 #
face $-1 $128 $129 $29 $-1 $130 reversed single #
loop $-1 $-1 $131 $51 #
plane-surface $-1 34.591231356227027 -6.2418343875547819 0 1 0 0 0 0 -1 forward_v I I I I #
coedge $-1 $132 $133 $134 $135 forward $52 $-1 #
face $-1 $136 $137 $30 $-1 $138 reversed single #
loop $-1 $-1 $139 $54 #
plane-surface $-1 -3.093821308231071 -34.949989929413462 3.607781304302712 0 -0.81915205242281985 0.57357642473473569 1 0 0 forward_v I I I I #
coedge $-1 $140 $141 $142 $143 reversed $55 $-1 #
face $-1 $-1 $144 $31 $-1 $145 forward single #
loop $-1 $146 $147 $57 #
cone-surface $-1 -4.6921562008575464 -26.959778374428318 7.8124432653852125 0 0.81915205242281985 -0.57357642473473569 0.5 0 0 1 I I -0.70710678118654746 0.70710678118654746 0.5 forward I I I I #
loop $-1 $-1 $148 $40 #
coedge $-1 $92 $92 $149 $150 reversed $58 $-1 #
face $-1 $-1 $151 $32 $-1 $152 forward single #
loop $-1 $153 $154 $60 #
cone-surface $-1 -1.4954864156046028 -26.959778374428318 7.8124432653852125 0 0.81915205242281985 -0.57357642473473569 0.5 0 0 1 I I -0.70710678118654746 0.70710678118654746 0.5 forward I I I I #
loop $-1 $-1 $155 $41 #
coedge $-1 $97 $97 $156 $157 reversed $61 $-1 #
face $-1 $158 $159 $33 $-1 $160 reversed single #
loop $-1 $-1 $161 $63 #
plane-surface $-1 8.0945229401542242 -119.39562428471274 62.737249264139081 -1 0 0 0 -0.81915205242281985 0.57357642473473569 forward_v I I I I #
coedge $-1 $162 $163 $164 $165 reversed $64 $-1 #
face $-1 $-1 $166 $34 $-1 $167 forward single #
loop $-1 $168 $169 $66 #
cone-surface $-1 2.7667399647326505 -26.959778374428318 7.8124432653852125 0 0.81915205242281985 -0.57357642473473569 0.5 0 0 1 I I -0.70710678118654746 0.70710678118654746 0.5 forward I I I I #
loop $-1 $-1 $170 $43 #
coedge $-1 $106 $106 $171 $172 reversed $67 $-1 #
face $-1 $-1 $173 $35 $-1 $174 forward single #
loop $-1 $175 $176 $69 #
cone-surface $-1 5.963409749985594 -26.959778374428318 7.8124432653852125 0 0.81915205242281985 -0.57357642473473569 0.5 0 0 1 I I -0.70710678118654746 0.70710678118654746 0.5 forward I I I I #
loop $-1 $-1 $177 $44 #
coedge $-1 $111 $111 $178 $179 reversed $70 $-1 #
face $-1 $180 $181 $27 $-1 $182 reversed single #
loop $-1 $-1 $183 $72 #
plane-surface $-1 0 -34.949989929413448 0 0 1 0 0 0 1 forward_v I I I I #
coedge $-1 $184 $185 $186 $187 forward $73 $-1 #
coedge $-1 $188 $75 $189 $190 forward $46 $-1 #
coedge $-1 $75 $188 $191 $192 forward $46 $-1 #
coedge $-1 $193 $194 $75 $119 reversed $195 $-1 #
edge $-1 $196 -34.949989929413448 $197 34.949989929413448 $118 $198 forward 7 unknown #
face $-1 $199 $200 $28 $-1 $201 reversed single #
loop $-1 $-1 $202 $76 #
plane-surface $-1 0 0 -16.758865223240974 0 0 1 1 0 0 forward_v I I I I #
coedge $-1 $203 $126 $204 $205 reversed $77 $-1 #
coedge $-1 $206 $79 $207 $208 reversed $49 $-1 #
coedge $-1 $79 $206 $209 $210 reversed $49 $-1 #
coedge $-1 $123 $211 $79 $127 reversed $77 $-1 #
edge $-1 $212 -34.949989929413448 $213 34.949989929413448 $126 $214 forward 7 unknown #
face $-1 $215 $216 $29 $-1 $217 reversed single #
loop $-1 $-1 $218 $80 #
plane-surface $-1 43.067886560403622 -1.4322594829314976 0 0 -1 0 0 0 -1 forward_v I I I I #
coedge $-1 $219 $220 $221 $222 forward $81 $-1 #
coedge $-1 $223 $83 $224 $225 reversed $52 $-1 #
coedge $-1 $83 $223 $226 $227 reversed $52 $-1 #
coedge $-1 $220 $219 $83 $135 reversed $81 $-1 #
edge $-1 $228 -16.758865223240974 $229 16.758865223240974 $134 $230 forward 7 unknown #
face $-1 $231 $232 $30 $-1 $233 forward single #
loop $-1 $-1 $234 $84 #
plane-surface $-1 -6.8232693910261695 -119.39562428471274 62.737249264139081 1 0 0 0 0.81915205242281985 -0.57357642473473569 forward_v I I I I #
coedge $-1 $235 $236 $237 $238 reversed $85 $-1 #
coedge $-1 $141 $87 $239 $240 reversed $55 $-1 #
coedge $-1 $87 $140 $235 $241 reversed $55 $-1 #
coedge $-1 $237 $242 $87 $143 forward $232 $-1 #
edge $-1 $243 24.747822212942921 $244 33.956310030681479 $142 $245 forward 7 unknown #
loop $-1 $-1 $149 $88 #
plane-surface $-1 -3.093821308231071 -34.949989929413462 3.607781304302712 0 -0.81915205242281985 0.57357642473473569 1 0 0 forward_v I I I I #
loop $-1 $-1 $246 $57 #
coedge $-1 $147 $147 $148 $247 reversed $89 $-1 #
coedge $-1 $148 $148 $147 $247 forward $91 $-1 #
coedge $-1 $149 $149 $92 $150 forward $144 $-1 #
edge $-1 $248 8.754794858201828e-016 $248 6.2831853071796013 $149 $249 forward 7 unknown #
loop $-1 $-1 $156 $93 #
plane-surface $-1 -3.093821308231071 -34.949989929413462 3.607781304302712 0 -0.81915205242281985 0.57357642473473569 1 0 0 forward_v I I I I #
loop $-1 $-1 $250 $60 #
coedge $-1 $154 $154 $155 $251 reversed $94 $-1 #
coedge $-1 $155 $155 $154 $251 forward $96 $-1 #
coedge $-1 $156 $156 $97 $157 forward $151 $-1 #
edge $-1 $252 8.754794858201828e-016 $252 6.2831853071796013 $156 $253 forward 7 unknown #
face $-1 $254 $255 $33 $-1 $256 forward single #
loop $-1 $-1 $257 $98 #
plane-surface $-1 0 -34.949989929413448 0 0 1 0 0 0 1 forward_v I I I I #
coedge $-1 $258 $259 $260 $261 reversed $99 $-1 #
coedge $-1 $262 $101 $263 $264 reversed $64 $-1 #
coedge $-1 $101 $262 $257 $265 reversed $64 $-1 #
coedge $-1 $266 $267 $101 $165 forward $255 $-1 #
edge $-1 $268 -16.054508903494877 $269 -2.4884734274515653e-014 $164 $270 forward 7 unknown #
loop $-1 $-1 $171 $102 #
plane-surface $-1 -3.093821308231071 -34.949989929413462 3.607781304302712 0 -0.81915205242281985 0.57357642473473569 1 0 0 forward_v I I I I #
loop $-1 $-1 $271 $66 #
coedge $-1 $169 $169 $170 $272 reversed $103 $-1 #
coedge $-1 $170 $170 $169 $272 forward $105 $-1 #
coedge $-1 $171 $171 $106 $172 forward $166 $-1 #
edge $-1 $273 8.754794858201828e-016 $273 6.2831853071796013 $171 $274 forward 7 unknown #
loop $-1 $-1 $178 $107 #
plane-surface $-1 -3.093821308231071 -34.949989929413462 3.607781304302712 0 -0.81915205242281985 0.57357642473473569 1 0 0 forward_v I I I I #
loop $-1 $-1 $275 $69 #
coedge $-1 $176 $176 $177 $276 reversed $108 $-1 #
coedge $-1 $177 $177 $176 $276 forward $110 $-1 #
coedge $-1 $178 $178 $111 $179 forward $173 $-1 #
edge $-1 $277 8.754794858201828e-016 $277 6.2831853071796013 $178 $278 forward 7 unknown #
face $-1 $279 $280 $27 $-1 $281 reversed single #
loop $-1 $-1 $282 $112 #
plane-surface $-1 -51.544541764580217 0 0 1 0 0 0 0 -1 forward_v I I I I #
coedge $-1 $283 $191 $284 $285 forward $113 $-1 #
coedge $-1 $286 $115 $283 $287 forward $73 $-1 #
coedge $-1 $115 $286 $288 $289 forward $73 $-1 #
coedge $-1 $194 $193 $115 $187 reversed $195 $-1 #
edge $-1 $290 -34.949989929413448 $291 34.949989929413448 $186 $292 forward 7 unknown #
coedge $-1 $117 $116 $293 $294 forward $46 $-1 #
coedge $-1 $295 $296 $116 $190 reversed $280 $-1 #
edge $-1 $197 -51.544541764580217 $297 51.544541764580217 $189 $298 forward 7 unknown #
coedge $-1 $183 $299 $117 $192 reversed $113 $-1 #
edge $-1 $300 -51.544541764580217 $196 51.544541764580217 $191 $301 forward 7 unknown #
coedge $-1 $186 $118 $299 $302 forward $195 $-1 #
coedge $-1 $118 $186 $295 $303 reversed $195 $-1 #
loop $-1 $-1 $193 $279 #
vertex $-1 $119 $304 #
vertex $-1 $119 $305 #
straight-curve $-1 51.544541764580217 0 16.758865223240974 0 1 0 I I #
face $-1 $306 $307 $28 $-1 $308 reversed single #
loop $-1 $-1 $204 $120 #
plane-surface $-1 0 -34.949989929413448 0 0 1 0 0 0 1 forward_v I I I I #
coedge $-1 $309 $310 $203 $311 forward $121 $-1 #
coedge $-1 $211 $123 $202 $311 reversed $77 $-1 #
coedge $-1 $209 $312 $123 $205 forward $200 $-1 #
edge $-1 $313 -9.7266833464390601 $212 -4.3376804071647657 $204 $314 forward 7 unknown #
coedge $-1 $125 $124 $315 $316 reversed $49 $-1 #
coedge $-1 $317 $318 $124 $208 forward $319 $-1 #
edge $-1 $320 -30.328411871660418 $213 -12.10384791417918 $207 $321 forward 7 unknown #
coedge $-1 $322 $204 $125 $210 forward $200 $-1 #
edge $-1 $212 12.10384791417918 $323 30.328411871660418 $209 $324 forward 7 unknown #
coedge $-1 $126 $203 $317 $325 reversed $77 $-1 #
vertex $-1 $210 $326 #
vertex $-1 $208 $327 #
straight-curve $-1 -33.319977807098979 0 -11.369862283966679 0 1 0 I I #
face $-1 $328 $329 $29 $-1 $330 forward single #
loop $-1 $-1 $224 $128 #
plane-surface $-1 0 0 -16.758865223240974 0 0 1 1 0 0 forward_v I I I I #
coedge $-1 $331 $332 $333 $334 reversed $129 $-1 #
coedge $-1 $134 $131 $335 $336 reversed $81 $-1 #
coedge $-1 $131 $134 $337 $338 reversed $81 $-1 #
coedge $-1 $332 $331 $131 $222 reversed $129 $-1 #
edge $-1 $339 -16.758865223240974 $340 16.758865223240974 $221 $341 forward 7 unknown #
coedge $-1 $133 $132 $342 $343 reversed $52 $-1 #
coedge $-1 $335 $344 $132 $225 forward $216 $-1 #
edge $-1 $345 -30.010598484378406 $229 -13.057288076025216 $224 $346 forward 7 unknown #
coedge $-1 $347 $337 $133 $227 forward $329 $-1 #
edge $-1 $228 13.057288076025216 $348 30.010598484378406 $226 $349 forward 7 unknown #
vertex $-1 $227 $350 #
vertex $-1 $225 $351 #
straight-curve $-1 34.591231356227027 -11.051409292178066 0 0 0 -1 I I #
face $-1 $-1 $352 $30 $-1 $353 reversed single #
loop $-1 $-1 $142 $136 #
plane-surface $-1 0 0 16.758865223240974 0 0 1 1 0 0 forward_v I I I I #
coedge $-1 $354 $355 $356 $357 reversed $137 $-1 #
coedge $-1 $358 $139 $141 $241 forward $85 $-1 #
coedge $-1 $139 $358 $354 $359 forward $85 $-1 #
coedge $-1 $356 $142 $139 $238 forward $232 $-1 #
edge $-1 $244 -2.1825374286795629 $360 5.276358736910634 $237 $361 forward 7 unknown #
coedge $-1 $362 $363 $140 $240 forward $352 $-1 #
edge $-1 $364 -27.760843327766807 $243 -14.609759408828566 $239 $365 forward 7 unknown #
edge $-1 $244 -16.054508903494877 $364 -2.4884734274515653e-014 $141 $366 forward 7 unknown #
coedge $-1 $142 $356 $362 $367 forward $232 $-1 #
vertex $-1 $143 $368 #
vertex $-1 $143 $369 #
straight-curve $-1 0.63562677456402739 -59.697812142356369 16.758865223240974 0 1 0 I I #
coedge $-1 $246 $246 $-1 $370 reversed $146 $-1 #
edge $-1 $371 0 $371 6.2831853071796004 $147 $372 forward 7 unknown #
vertex $-1 $150 $373 #
ellipse-curve $-1 -4.6921562008575464 -30.345746020544176 10.183323263771845 0 -0.81915205242281985 0.57357642473473569 1 0 0 1 I I #
coedge $-1 $250 $250 $-1 $374 reversed $153 $-1 #
edge $-1 $375 0 $375 6.2831853071796004 $154 $376 forward 7 unknown #
vertex $-1 $157 $377 #
ellipse-curve $-1 -1.4954864156046028 -30.345746020544176 10.183323263771845 0 -0.81915205242281985 0.57357642473473569 1 0 0 1 I I #
face $-1 $-1 $378 $33 $-1 $379 forward single #
loop $-1 $-1 $267 $158 #
plane-surface $-1 0.63562677456402739 -119.39562428471274 62.737249264139081 -1 0 0 0 -0.81915205242281985 0.57357642473473569 forward_v I I I I #
coedge $-1 $260 $380 $163 $265 forward $159 $-1 #
coedge $-1 $259 $161 $262 $381 reversed $99 $-1 #
coedge $-1 $161 $258 $382 $383 reversed $99 $-1 #
coedge $-1 $384 $257 $161 $261 forward $159 $-1 #
edge $-1 $385 -27.760843327766807 $386 -14.609759408828566 $260 $387 forward 7 unknown #
coedge $-1 $163 $162 $258 $381 forward $64 $-1 #
coedge $-1 $388 $382 $162 $264 forward $378 $-1 #
edge $-1 $389 -9.6414335942697598 $268 -2.1825374286795629 $263 $390 forward 7 unknown #
edge $-1 $269 2.1825374286795629 $385 9.6414335942697598 $257 $391 forward 7 unknown #
coedge $-1 $267 $164 $380 $392 reversed $255 $-1 #
coedge $-1 $164 $266 $388 $393 reversed $255 $-1 #
vertex $-1 $264 $394 #
vertex $-1 $265 $395 #
straight-curve $-1 0.63562677456402739 -34.949989929413462 3.607781304302712 0 -0.57357642473473569 -0.81915205242281985 I I #
coedge $-1 $271 $271 $-1 $396 reversed $168 $-1 #
edge $-1 $397 0 $397 6.2831853071796004 $169 $398 forward 7 unknown #
vertex $-1 $172 $399 #
ellipse-curve $-1 2.7667399647326505 -30.345746020544176 10.183323263771845 0 -0.81915205242281985 0.57357642473473569 1 0 0 1 I I #
coedge $-1 $275 $275 $-1 $400 reversed $175 $-1 #
edge $-1 $401 0 $401 6.2831853071796004 $176 $402 forward 7 unknown #
vertex $-1 $179 $403 #
ellipse-curve $-1 5.963409749985594 -30.345746020544176 10.183323263771845 0 -0.81915205242281985 0.57357642473473569 1 0 0 1 I I #
face $-1 $-1 $195 $27 $-1 $404 reversed single #
loop $-1 $-1 $295 $180 #
plane-surface $-1 0 34.949989929413448 0 0 -1 0 0 0 -1 forward_v I I I I #
coedge $-1 $405 $293 $296 $406 forward $181 $-1 #
coedge $-1 $299 $183 $184 $287 reversed $113 $-1 #
coedge $-1 $293 $405 $183 $285 reversed $181 $-1 #
edge $-1 $300 -16.758865223240974 $407 16.758865223240974 $284 $408 forward 7 unknown #
coedge $-1 $185 $184 $405 $409 forward $73 $-1 #
edge $-1 $291 -51.544541764580217 $407 51.544541764580217 $283 $410 forward 7 unknown #
coedge $-1 $296 $295 $185 $289 reversed $280 $-1 #
edge $-1 $411 -51.544541764580217 $290 51.544541764580217 $288 $412 forward 7 unknown #
vertex $-1 $187 $413 #
vertex $-1 $302 $414 #
straight-curve $-1 51.544541764580217 0 -16.758865223240974 0 -1 0 I I #
coedge $-1 $282 $284 $188 $294 reversed $181 $-1 #
edge $-1 $297 -34.949989929413448 $300 34.949989929413448 $293 $415 forward 7 unknown #
coedge $-1 $288 $189 $194 $303 forward $280 $-1 #
coedge $-1 $189 $288 $282 $406 reversed $280 $-1 #
vertex $-1 $190 $416 #
straight-curve $-1 0 34.949989929413448 16.758865223240974 -1 0 0 I I #
coedge $-1 $191 $283 $193 $302 reversed $113 $-1 #
vertex $-1 $294 $417 #
straight-curve $-1 0 -34.949989929413448 16.758865223240974 1 0 0 I I #
edge $-1 $196 -16.758865223240974 $291 16.758865223240974 $193 $418 forward 7 unknown #
edge $-1 $197 -16.758865223240974 $290 16.758865223240974 $194 $419 forward 7 unknown #
point $-1 51.544541764580217 -34.949989929413448 16.758865223240974 #
point $-1 51.544541764580217 34.949989929413448 16.758865223240974 #
face $-1 $-1 $319 $28 $-1 $420 reversed single #
loop $-1 $-1 $315 $199 #
plane-surface $-1 -51.544541764580217 0 0 1 0 0 0 0 -1 forward_v I I I I #
coedge $-1 $421 $202 $312 $422 forward $121 $-1 #
coedge $-1 $202 $421 $423 $424 forward $121 $-1 #
edge $-1 $425 -34.949989929413448 $313 34.949989929413448 $202 $426 forward 7 unknown #
coedge $-1 $204 $322 $309 $422 reversed $200 $-1 #
vertex $-1 $422 $427 #
straight-curve $-1 -33.319977807098979 -34.949989929413448 -7.0321818768019133 0 0 1 I I #
coedge $-1 $428 $429 $206 $316 forward $307 $-1 #
edge $-1 $323 -34.949989929413448 $320 34.949989929413448 $315 $430 forward 7 unknown #
coedge $-1 $423 $207 $211 $325 forward $319 $-1 #
coedge $-1 $207 $423 $428 $431 reversed $319 $-1 #
loop $-1 $-1 $317 $306 #
vertex $-1 $431 $432 #
straight-curve $-1 -21.216129892919799 34.949989929413448 -11.369862283966679 1 0 0 I I #
coedge $-1 $312 $209 $429 $433 forward $200 $-1 #
vertex $-1 $433 $434 #
straight-curve $-1 -21.216129892919799 -34.949989929413448 -11.369862283966679 -1 0 0 I I #
edge $-1 $213 4.3376804071647657 $425 9.7266833464390601 $317 $435 forward 7 unknown #
point $-1 -33.319977807098979 -34.949989929413448 -11.369862283966679 #
point $-1 -33.319977807098979 34.949989929413448 -11.369862283966679 #
face $-1 $-1 $436 $29 $-1 $437 reversed single #
loop $-1 $-1 $438 $215 #
plane-surface $-1 0 0 16.758865223240974 0 0 1 1 0 0 forward_v I I I I #
coedge $-1 $221 $218 $439 $440 reversed $129 $-1 #
coedge $-1 $218 $221 $438 $441 reversed $129 $-1 #
coedge $-1 $442 $443 $218 $334 forward $436 $-1 #
edge $-1 $444 -16.758865223240974 $445 16.758865223240974 $333 $446 forward 7 unknown #
coedge $-1 $439 $224 $219 $336 forward $216 $-1 #
edge $-1 $229 -7.9304920984006753 $340 1.6886577108458933 $335 $447 forward 7 unknown #
coedge $-1 $226 $438 $220 $338 forward $329 $-1 #
edge $-1 $339 -1.6886577108458933 $228 7.9304920984006753 $337 $448 forward 7 unknown #
vertex $-1 $338 $449 #
vertex $-1 $336 $450 #
straight-curve $-1 34.591231356227027 -1.4322594829314976 0 0 0 -1 I I #
coedge $-1 $443 $442 $223 $343 forward $436 $-1 #
edge $-1 $348 -16.758865223240974 $345 16.758865223240974 $342 $451 forward 7 unknown #
coedge $-1 $224 $439 $443 $452 forward $216 $-1 #
vertex $-1 $343 $453 #
straight-curve $-1 21.533943280201811 -11.051409292178066 -16.758865223240974 -1 0 0 I I #
coedge $-1 $438 $226 $442 $454 forward $329 $-1 #
vertex $-1 $454 $455 #
straight-curve $-1 21.533943280201811 -11.051409292178066 16.758865223240974 1 0 0 I I #
point $-1 34.591231356227027 -11.051409292178066 16.758865223240974 #
point $-1 34.591231356227027 -11.051409292178066 -16.758865223240974 #
loop $-1 $-1 $239 $231 #
plane-surface $-1 0 -34.949989929413448 0 0 1 0 0 0 1 forward_v I I I I #
coedge $-1 $355 $234 $236 $359 reversed $137 $-1 #
coedge $-1 $234 $354 $456 $457 reversed $137 $-1 #
coedge $-1 $242 $237 $234 $357 forward $232 $-1 #
edge $-1 $360 -33.956310030681479 $458 -24.747822212942921 $356 $459 forward 7 unknown #
coedge $-1 $236 $235 $363 $460 reversed $85 $-1 #
edge $-1 $461 2.4884734274515653e-014 $360 16.054508903494877 $354 $462 forward 7 unknown #
vertex $-1 $238 $463 #
straight-curve $-1 -1.5469106541155355 -25.741502111674894 16.758865223240974 -1 0 0 I I #
coedge $-1 $456 $239 $242 $367 reversed $352 $-1 #
coedge $-1 $239 $456 $358 $460 forward $352 $-1 #
vertex $-1 $240 $464 #
straight-curve $-1 0.63562677456402739 -34.949989929413448 31.36862463206954 0 0 1 I I #
straight-curve $-1 0.63562677456402739 -34.949989929413462 3.607781304302712 0 -0.57357642473473569 -0.81915205242281985 I I #
edge $-1 $458 -6.8232693910261695 $243 0.63562677456402739 $362 $465 forward 7 unknown #
point $-1 0.63562677456402739 -34.949989929413448 16.758865223240974 #
point $-1 0.63562677456402739 -25.74150211167489 16.758865223240974 #
edge $-1 $466 1 $466 0 $246 $-1 forward 7 unknown #
vertex $-1 $247 $467 #
ellipse-curve $-1 -4.6921562008575464 -27.369354400639729 8.0992314777525802 0 -0.81915205242281985 0.57357642473473569 1 0 0 1 I I #
point $-1 -3.6921562008575464 -30.345746020544162 10.183323263771836 #
edge $-1 $468 1 $468 0 $250 $-1 forward 7 unknown #
vertex $-1 $251 $469 #
ellipse-curve $-1 -1.4954864156046028 -27.369354400639729 8.0992314777525802 0 -0.81915205242281985 0.57357642473473569 1 0 0 1 I I #
point $-1 -0.49548641560460283 -30.345746020544162 10.183323263771836 #
loop $-1 $-1 $263 $254 #
plane-surface $-1 0 0 16.758865223240974 0 0 1 1 0 0 forward_v I I I I #
coedge $-1 $257 $384 $266 $392 forward $159 $-1 #
edge $-1 $389 -16.054508903494877 $385 -2.4884734274515653e-014 $258 $470 forward 7 unknown #
coedge $-1 $263 $471 $259 $383 forward $378 $-1 #
edge $-1 $386 24.747822212942921 $389 33.956310030681479 $382 $472 forward 7 unknown #
coedge $-1 $380 $260 $471 $473 reversed $159 $-1 #
vertex $-1 $261 $474 #
vertex $-1 $261 $475 #
straight-curve $-1 8.0945229401542242 -34.949989929413448 31.36862463206954 0 0 1 I I #
coedge $-1 $471 $263 $267 $393 forward $378 $-1 #
vertex $-1 $383 $476 #
straight-curve $-1 -1.5469106541155355 -25.741502111674894 16.758865223240974 -1 0 0 I I #
straight-curve $-1 -1.5469106541155355 -34.949989929413448 3.6077813043027285 1 0 0 I I #
edge $-1 $477 14.609759408828566 $269 27.760843327766807 $380 $478 forward 7 unknown #
edge $-1 $268 -33.956310030681479 $477 -24.747822212942921 $388 $479 forward 7 unknown #
point $-1 0.63562677456402739 -25.74150211167489 16.758865223240974 #
point $-1 0.63562677456402739 -34.949989929413448 3.6077813043027325 #
edge $-1 $480 1 $480 0 $271 $-1 forward 7 unknown #
vertex $-1 $272 $481 #
ellipse-curve $-1 2.7667399647326505 -27.369354400639729 8.0992314777525802 0 -0.81915205242281985 0.57357642473473569 1 0 0 1 I I #
point $-1 3.7667399647326505 -30.345746020544162 10.183323263771836 #
edge $-1 $482 1 $482 0 $275 $-1 forward 7 unknown #
vertex $-1 $276 $483 #
ellipse-curve $-1 5.963409749985594 -27.369354400639729 8.0992314777525802 0 -0.81915205242281985 0.57357642473473569 1 0 0 1 I I #
point $-1 6.963409749985594 -30.345746020544162 10.183323263771836 #
plane-surface $-1 51.544541764580217 0 0 -1 0 0 0 0 1 forward_v I I I I #
coedge $-1 $284 $282 $286 $409 reversed $181 $-1 #
edge $-1 $297 -16.758865223240974 $411 16.758865223240974 $296 $484 forward 7 unknown #
vertex $-1 $409 $485 #
straight-curve $-1 -51.544541764580217 -34.949989929413448 0 0 0 -1 I I #
edge $-1 $407 -34.949989929413448 $411 34.949989929413448 $405 $486 forward 7 unknown #
straight-curve $-1 0 -34.949989929413448 -16.758865223240974 -1 0 0 I I #
vertex $-1 $289 $487 #
straight-curve $-1 0 34.949989929413448 -16.758865223240974 1 0 0 I I #
point $-1 51.544541764580217 34.949989929413448 -16.758865223240974 #
point $-1 51.544541764580217 -34.949989929413448 -16.758865223240974 #
straight-curve $-1 -51.544541764580217 0 16.758865223240974 0 -1 0 I I #
point $-1 -51.544541764580217 34.949989929413448 16.758865223240974 #
point $-1 -51.544541764580217 -34.949989929413448 16.758865223240974 #
straight-curve $-1 51.544541764580217 -34.949989929413448 0 0 0 -1 I I #
straight-curve $-1 51.544541764580217 34.949989929413448 0 0 0 -1 I I #
plane-surface $-1 0 34.949989929413448 0 0 -1 0 0 0 -1 forward_v I I I I #
coedge $-1 $310 $309 $488 $489 forward $121 $-1 #
edge $-1 $313 33.319977807098979 $490 51.544541764580217 $312 $491 forward 7 unknown #
coedge $-1 $318 $317 $310 $424 reversed $319 $-1 #
edge $-1 $492 -51.544541764580217 $425 -33.319977807098979 $423 $493 forward 7 unknown #
vertex $-1 $325 $494 #
straight-curve $-1 -33.319977807098979 0 -16.758865223240974 0 -1 0 I I #
point $-1 -33.319977807098979 -34.949989929413448 -16.758865223240974 #
coedge $-1 $488 $315 $318 $431 forward $307 $-1 #
coedge $-1 $315 $488 $322 $433 reversed $307 $-1 #
straight-curve $-1 -51.544541764580217 0 -11.369862283966679 0 1 0 I I #
edge $-1 $320 11.369862283966679 $492 16.758865223240974 $318 $495 forward 7 unknown #
point $-1 -51.544541764580217 34.949989929413448 -11.369862283966679 #
edge $-1 $323 11.369862283966679 $490 16.758865223240974 $429 $496 forward 7 unknown #
point $-1 -51.544541764580217 -34.949989929413448 -11.369862283966679 #
straight-curve $-1 -33.319977807098979 34.949989929413448 -7.0321818768019133 0 0 -1 I I #
loop $-1 $-1 $342 $328 #
plane-surface $-1 51.544541764580217 0 0 -1 0 0 0 0 1 forward_v I I I I #
coedge $-1 $337 $347 $332 $441 forward $329 $-1 #
coedge $-1 $344 $335 $331 $440 forward $216 $-1 #
edge $-1 $340 13.057288076025216 $444 30.010598484378406 $439 $497 forward 7 unknown #
edge $-1 $445 -30.010598484378406 $339 -13.057288076025216 $438 $498 forward 7 unknown #
coedge $-1 $342 $333 $347 $454 reversed $436 $-1 #
coedge $-1 $333 $342 $344 $452 reversed $436 $-1 #
vertex $-1 $452 $499 #
vertex $-1 $334 $500 #
straight-curve $-1 51.544541764580217 -1.4322594829314976 0 0 0 1 I I #
straight-curve $-1 34.591231356227027 -3.120917193777391 -16.758865223240974 0 1 0 I I #
straight-curve $-1 34.591231356227027 -3.120917193777391 16.758865223240974 0 -1 0 I I #
point $-1 34.591231356227027 -1.4322594829314976 16.758865223240974 #
point $-1 34.591231356227027 -1.4322594829314976 -16.758865223240974 #
straight-curve $-1 51.544541764580217 -11.051409292178066 0 0 0 -1 I I #
edge $-1 $444 1.4322594829314976 $345 11.051409292178066 $443 $501 forward 7 unknown #
point $-1 51.544541764580217 -11.051409292178066 -16.758865223240974 #
edge $-1 $348 -11.051409292178066 $445 -1.4322594829314976 $442 $502 forward 7 unknown #
point $-1 51.544541764580217 -11.051409292178066 16.758865223240974 #
coedge $-1 $363 $362 $355 $457 forward $352 $-1 #
edge $-1 $458 14.609759408828566 $461 27.760843327766807 $456 $503 forward 7 unknown #
vertex $-1 $367 $504 #
straight-curve $-1 -6.8232693910261695 -59.697812142356369 16.758865223240974 0 -1 0 I I #
edge $-1 $461 -5.276358736910634 $364 2.1825374286795629 $363 $505 forward 7 unknown #
vertex $-1 $460 $506 #
straight-curve $-1 -6.8232693910261695 -34.949989929413462 3.607781304302712 0 0.57357642473473569 0.81915205242281985 I I #
point $-1 -6.8232693910261695 -25.74150211167489 16.758865223240974 #
point $-1 0.63562677456402739 -34.949989929413448 3.6077813043027325 #
straight-curve $-1 0 -34.949989929413448 16.758865223240974 1 0 0 I I #
vertex $-1 $370 $507 #
point $-1 -3.6921562008575464 -27.369354400639729 8.0992314777525802 #
vertex $-1 $374 $508 #
point $-1 -0.49548641560460283 -27.369354400639729 8.0992314777525802 #
straight-curve $-1 8.0945229401542242 -34.949989929413462 3.607781304302712 0 -0.57357642473473569 -0.81915205242281985 I I #
coedge $-1 $382 $388 $384 $473 forward $378 $-1 #
straight-curve $-1 8.0945229401542242 -59.697812142356369 16.758865223240974 0 1 0 I I #
edge $-1 $477 0.63562677456402739 $386 8.0945229401542242 $384 $509 forward 7 unknown #
point $-1 8.0945229401542242 -34.949989929413448 3.6077813043027325 #
point $-1 8.0945229401542242 -34.949989929413448 16.758865223240974 #
point $-1 8.0945229401542242 -25.74150211167489 16.758865223240974 #
vertex $-1 $473 $510 #
straight-curve $-1 0.63562677456402739 -34.949989929413448 31.36862463206954 0 0 -1 I I #
straight-curve $-1 0.63562677456402739 -59.697812142356369 16.758865223240974 0 -1 0 I I #
vertex $-1 $396 $511 #
point $-1 3.7667399647326505 -27.369354400639729 8.0992314777525802 #
vertex $-1 $400 $512 #
point $-1 6.963409749985594 -27.369354400639729 8.0992314777525802 #
straight-curve $-1 -51.544541764580217 34.949989929413448 0 0 0 -1 I I #
point $-1 -51.544541764580217 -34.949989929413448 -16.758865223240974 #
straight-curve $-1 -51.544541764580217 0 -16.758865223240974 0 1 0 I I #
point $-1 -51.544541764580217 34.949989929413448 -16.758865223240974 #
coedge $-1 $429 $428 $421 $489 reversed $307 $-1 #
edge $-1 $490 -34.949989929413448 $492 34.949989929413448 $488 $513 forward 7 unknown #
vertex $-1 $489 $514 #
straight-curve $-1 0 -34.949989929413448 -16.758865223240974 -1 0 0 I I #
vertex $-1 $424 $515 #
straight-curve $-1 0 34.949989929413448 -16.758865223240974 1 0 0 I I #
point $-1 -33.319977807098979 34.949989929413448 -16.758865223240974 #
straight-curve $-1 -51.544541764580217 34.949989929413448 0 0 0 -1 I I #
straight-curve $-1 -51.544541764580217 -34.949989929413448 0 0 0 -1 I I #
straight-curve $-1 21.533943280201811 -1.4322594829314976 -16.758865223240974 1 0 0 I I #
straight-curve $-1 21.533943280201811 -1.4322594829314976 16.758865223240974 -1 0 0 I I #
point $-1 51.544541764580217 -1.4322594829314976 -16.758865223240974 #
point $-1 51.544541764580217 -1.4322594829314976 16.758865223240974 #
straight-curve $-1 51.544541764580217 0 -16.758865223240974 0 -1 0 I I #
straight-curve $-1 51.544541764580217 0 16.758865223240974 0 1 0 I I #
straight-curve $-1 -6.8232693910261695 -34.949989929413448 31.36862463206954 0 0 -1 I I #
point $-1 -6.8232693910261695 -34.949989929413448 16.758865223240974 #
straight-curve $-1 -1.5469106541155355 -34.949989929413448 3.6077813043027285 1 0 0 I I #
point $-1 -6.8232693910261695 -34.949989929413448 3.6077813043027325 #
point $-1 -4.6921562008575464 -26.550202348216907 7.5256550530178448 #
point $-1 -1.4954864156046028 -26.550202348216907 7.5256550530178448 #
straight-curve $-1 0 -34.949989929413448 16.758865223240974 1 0 0 I I #
point $-1 0.63562677456402739 -34.949989929413448 16.758865223240974 #
point $-1 2.7667399647326505 -26.550202348216907 7.5256550530178448 #
point $-1 5.963409749985594 -26.550202348216907 7.5256550530178448 #
straight-curve $-1 -51.544541764580217 0 -16.758865223240974 0 1 0 I I #
point $-1 -51.544541764580217 -34.949989929413448 -16.758865223240974 #
point $-1 -51.544541764580217 34.949989929413448 -16.758865223240974 #
End-of-ACIS-data 