500 0 10 0           
7 Unknown 11 ACIS 5.0 NT 24 Fri Mar 26 15:28:27 1999 
-1 9.9999999999999995e-007 1e-010 
body $-1 $10 $-1 $11 #
body $-1 $12 $-1 $13 #
body $-1 $14 $-1 $15 #
body $-1 $16 $-1 $17 #
body $-1 $18 $-1 $19 #
body $-1 $20 $-1 $21 #
body $-1 $22 $-1 $23 #
body $-1 $24 $-1 $25 #
body $-1 $26 $-1 $27 #
body $-1 $28 $-1 $29 #
lump $-1 $-1 $30 $0 #
transform $-1 1 0 0 0 1 0 0 0 1 60.689107943968011 24.454560009381002 8.5889859879745245 1 rotate no_reflect no_shear #
lump $-1 $-1 $31 $1 #
transform $-1 1 0 0 0 1 0 0 0 1 60.689107943968011 24.454560009381002 8.5889859879745245 1 rotate no_reflect no_shear #
lump $-1 $-1 $32 $2 #
transform $-1 1 0 0 0 1 0 0 0 1 60.689107943968011 24.454560009381002 8.5889859879745245 1 rotate no_reflect no_shear #
lump $-1 $-1 $33 $3 #
transform $-1 1 0 0 0 1 0 0 0 1 60.689107943968011 24.454560009381002 8.5889859879745245 1 rotate no_reflect no_shear #
lump $-1 $-1 $34 $4 #
transform $-1 1 0 0 0 1 0 0 0 1 60.689107943968011 24.454560009381002 8.5889859879745245 1 rotate no_reflect no_shear #
lump $-1 $-1 $35 $5 #
transform $-1 1 0 0 0 1 0 0 0 1 60.689107943968011 24.454560009381002 8.5889859879745245 1 rotate no_reflect no_shear #
lump $-1 $-1 $36 $6 #
transform $-1 1 0 0 0 1 0 0 0 1 60.689107943968011 24.454560009381002 8.5889859879745245 1 rotate no_reflect no_shear #
lump $-1 $-1 $37 $7 #
transform $-1 1 0 0 0 1 0 0 0 1 60.689107943968011 24.454560009381002 8.5889859879745245 1 rotate no_reflect no_shear #
lump $-1 $-1 $38 $8 #
transform $-1 1 0 0 0 1 0 0 0 1 60.689107943968011 24.454560009381002 8.5889859879745245 1 rotate no_reflect no_shear #
lump $-1 $-1 $39 $9 #
transform $-1 1 0 0 0 1 0 0 0 1 60.689107943968011 24.454560009381002 8.5889859879745245 1 rotate no_reflect no_shear #
shell $-1 $-1 $-1 $40 $-1 $10 #
shell $-1 $-1 $-1 $41 $-1 $12 #
shell $-1 $-1 $-1 $42 $-1 $14 #
shell $-1 $-1 $-1 $43 $-1 $16 #
shell $-1 $-1 $-1 $44 $-1 $18 #
shell $-1 $-1 $-1 $45 $-1 $20 #
shell $-1 $-1 $-1 $46 $-1 $22 #
shell $-1 $-1 $-1 $47 $-1 $24 #
shell $-1 $-1 $-1 $48 $-1 $26 #
shell $-1 $-1 $-1 $49 $-1 $28 #
face $-1 $50 $51 $30 $-1 $52 reversed single #
face $-1 $53 $54 $31 $-1 $55 forward single #
face $-1 $56 $57 $32 $-1 $58 reversed single #
face $-1 $59 $60 $33 $-1 $61 forward single #
face $-1 $62 $63 $34 $-1 $64 forward single #
face $-1 $65 $66 $35 $-1 $67 forward single #
face $-1 $68 $69 $36 $-1 $70 reversed single #
face $-1 $71 $72 $37 $-1 $73 forward single #
face $-1 $74 $75 $38 $-1 $76 forward single #
face $-1 $77 $78 $39 $-1 $79 forward single #
face $-1 $80 $81 $30 $-1 $82 forward single #
loop $-1 $-1 $83 $40 #
plane-surface $-1 0 -24.454560009381002 0 0 1 0 0 0 1 forward_v I I I I #
face $-1 $84 $85 $31 $-1 $86 reversed single #
loop $-1 $-1 $87 $41 #
plane-surface $-1 0 -24.454560009381002 0 0 1 0 0 0 1 forward_v I I I I #
face $-1 $88 $89 $32 $-1 $90 reversed single #
loop $-1 $-1 $91 $42 #
plane-surface $-1 -130.30879336087003 18.139694271932331 103.79135366216677 0 1 0 -0.57357644374324357 0 0.81915203911291934 forward_v I I I I #
face $-1 $92 $93 $33 $-1 $94 forward single #
loop $-1 $95 $96 $43 #
cone-surface $-1 -57.293401570157471 19.402667419422063 5.935503466768937 0.57357644374324357 0 -0.81915203911291934 0.40957601955645967 0 0.28678822187162178 1 I I 0 1 0.5 forward I I I I #
face $-1 $97 $98 $34 $-1 $99 forward single #
loop $-1 $100 $101 $44 #
cone-surface $-1 -57.293401570157471 21.297127140656666 5.935503466768937 0.57357644374324357 0 -0.81915203911291934 0.40957601955645967 0 0.28678822187162178 1 I I 0 1 0.5 forward I I I I #
face $-1 $102 $103 $35 $-1 $104 forward single #
loop $-1 $105 $106 $45 #
cone-surface $-1 -57.293401570157471 23.19158686189127 5.935503466768937 0.57357644374324357 0 -0.81915203911291934 0.40957601955645967 0 0.28678822187162178 1 I I 0 1 0.5 forward I I I I #
face $-1 $107 $108 $36 $-1 $109 reversed single #
loop $-1 $-1 $110 $46 #
plane-surface $-1 25.000086490696106 20.306627982742214 168.35719097220993 0 -1 0 -0.54463904215088732 0 -0.83867056331134215 forward_v I I I I #
face $-1 $111 $112 $37 $-1 $113 forward single #
loop $-1 $114 $115 $47 #
cone-surface $-1 53.670702288761326 10.433445794322513 3.3591866376003159 -0.54463904215088732 0 -0.83867056331134215 0.83867056331134215 0 -0.54463904215088732 1 I I 0 1 1 forward I I I I #
face $-1 $116 $117 $38 $-1 $118 forward single #
loop $-1 $119 $120 $48 #
cone-surface $-1 53.670702288761326 14.1358891149799 3.3591866376003159 -0.54463904215088732 0 -0.83867056331134215 0.83867056331134215 0 -0.54463904215088732 1 I I 0 1 1 forward I I I I #
face $-1 $121 $122 $39 $-1 $123 forward single #
loop $-1 $124 $125 $49 #
cone-surface $-1 53.670702288761326 17.838332435637287 3.3591866376003159 -0.54463904215088732 0 -0.83867056331134215 0.83867056331134215 0 -0.54463904215088732 1 I I 0 1 1 forward I I I I #
face $-1 $126 $127 $30 $-1 $128 reversed single #
loop $-1 $-1 $129 $50 #
plane-surface $-1 0 0 8.5889859879745245 0 0 1 1 0 0 forward_v I I I I #
coedge $-1 $130 $131 $132 $133 reversed $51 $-1 #
face $-1 $134 $135 $31 $-1 $136 reversed single #
loop $-1 $-1 $137 $53 #
plane-surface $-1 0 0 -8.5889859879745245 0 0 1 1 0 0 forward_v I I I I #
coedge $-1 $138 $139 $140 $141 forward $54 $-1 #
face $-1 $142 $143 $32 $-1 $144 reversed single #
loop $-1 $-1 $145 $56 #
plane-surface $-1 -60.689107943968011 21.297127140656666 4.3641406136758292 -0.57357644374324357 0 0.81915203911291934 0.81915203911291934 0 0.57357644374324357 forward_v I I I I #
coedge $-1 $146 $147 $148 $149 reversed $57 $-1 #
face $-1 $-1 $150 $33 $-1 $151 forward single #
loop $-1 $152 $153 $59 #
cone-surface $-1 -56.77115327751644 19.402667419422063 5.189655622934465 0.57357644374324357 0 -0.81915203911291934 0.20478800977822983 0 0.14339411093581089 1 I I -0.70710678118654746 0.70710678118654746 0.25 forward I I I I #
loop $-1 $-1 $154 $43 #
coedge $-1 $96 $96 $155 $156 reversed $60 $-1 #
face $-1 $-1 $157 $34 $-1 $158 forward single #
loop $-1 $159 $160 $62 #
cone-surface $-1 -56.77115327751644 21.297127140656666 5.189655622934465 0.57357644374324357 0 -0.81915203911291934 0.20478800977822983 0 0.14339411093581089 1 I I -0.70710678118654746 0.70710678118654746 0.25 forward I I I I #
loop $-1 $-1 $161 $44 #
coedge $-1 $101 $101 $162 $163 reversed $63 $-1 #
face $-1 $-1 $164 $35 $-1 $165 forward single #
loop $-1 $166 $167 $65 #
cone-surface $-1 -56.77115327751644 23.19158686189127 5.189655622934465 0.57357644374324357 0 -0.81915203911291934 0.20478800977822983 0 0.14339411093581089 1 I I -0.70710678118654746 0.70710678118654746 0.25 forward I I I I #
loop $-1 $-1 $168 $45 #
coedge $-1 $106 $106 $169 $170 reversed $66 $-1 #
face $-1 $171 $172 $36 $-1 $173 reversed single #
loop $-1 $-1 $174 $68 #
plane-surface $-1 -41.107228748492986 14.1358891149799 66.560854279748938 0.54463904215088732 0 0.83867056331134215 0.83867056331134215 0 -0.54463904215088732 forward_v I I I I #
coedge $-1 $175 $176 $177 $178 reversed $69 $-1 #
face $-1 $-1 $179 $37 $-1 $180 forward single #
loop $-1 $181 $182 $71 #
cone-surface $-1 52.643721855449314 10.433445794322513 1.7777754792777785 -0.54463904215088732 0 -0.83867056331134215 0.41933528165567108 0 -0.27231952107544366 1 I I -0.70710678118654746 0.70710678118654746 0.5 forward I I I I #
loop $-1 $-1 $183 $47 #
coedge $-1 $115 $115 $184 $185 reversed $72 $-1 #
face $-1 $-1 $186 $38 $-1 $187 forward single #
loop $-1 $188 $189 $74 #
cone-surface $-1 52.643721855449314 14.1358891149799 1.7777754792777785 -0.54463904215088732 0 -0.83867056331134215 0.41933528165567108 0 -0.27231952107544366 1 I I -0.70710678118654746 0.70710678118654746 0.5 forward I I I I #
loop $-1 $-1 $190 $48 #
coedge $-1 $120 $120 $191 $192 reversed $75 $-1 #
face $-1 $-1 $193 $39 $-1 $194 forward single #
loop $-1 $195 $196 $77 #
cone-surface $-1 52.643721855449314 17.838332435637287 1.7777754792777785 -0.54463904215088732 0 -0.83867056331134215 0.41933528165567108 0 -0.27231952107544366 1 I I -0.70710678118654746 0.70710678118654746 0.5 forward I I I I #
loop $-1 $-1 $197 $49 #
coedge $-1 $125 $125 $198 $199 reversed $78 $-1 #
face $-1 $200 $201 $30 $-1 $202 reversed single #
loop $-1 $-1 $203 $80 #
plane-surface $-1 0 0 -8.5889859879745245 0 0 1 1 0 0 forward_v I I I I #
coedge $-1 $204 $205 $206 $207 forward $81 $-1 #
coedge $-1 $208 $83 $209 $210 reversed $51 $-1 #
coedge $-1 $83 $208 $211 $212 forward $51 $-1 #
coedge $-1 $213 $203 $83 $133 forward $127 $-1 #
edge $-1 $214 -60.689107943968011 $215 60.689107943968011 $83 $216 forward 7 unknown #
face $-1 $217 $218 $31 $-1 $219 reversed single #
loop $-1 $-1 $220 $84 #
plane-surface $-1 -45.011135968018962 -31.032066134245721 0 0 1 0 0 0 1 forward_v I I I I #
coedge $-1 $221 $222 $139 $223 forward $85 $-1 #
coedge $-1 $224 $87 $225 $226 reversed $54 $-1 #
coedge $-1 $87 $224 $137 $223 reversed $54 $-1 #
coedge $-1 $227 $228 $87 $141 reversed $218 $-1 #
edge $-1 $229 -8.5889859879745245 $230 8.5889859879745245 $140 $231 forward 7 unknown #
face $-1 $232 $233 $32 $-1 $234 forward single #
loop $-1 $-1 $235 $88 #
plane-surface $-1 -60.689107943968011 0 0 1 0 0 0 0 -1 forward_v I I I I #
coedge $-1 $236 $237 $238 $239 reversed $89 $-1 #
coedge $-1 $147 $91 $240 $241 reversed $57 $-1 #
coedge $-1 $91 $146 $236 $242 reversed $57 $-1 #
coedge $-1 $238 $243 $91 $149 forward $233 $-1 #
edge $-1 $244 4.4652887364670022 $245 10.498993120677653 $148 $246 forward 7 unknown #
loop $-1 $-1 $155 $92 #
plane-surface $-1 -60.689107943968011 21.297127140656666 4.3641406136758292 -0.57357644374324357 0 0.81915203911291934 0.81915203911291934 0 0.57357644374324357 forward_v I I I I #
loop $-1 $-1 $247 $59 #
coedge $-1 $153 $153 $154 $248 reversed $93 $-1 #
coedge $-1 $154 $154 $153 $248 forward $95 $-1 #
coedge $-1 $155 $155 $96 $156 forward $150 $-1 #
edge $-1 $249 0 $249 6.2831853071796004 $155 $250 forward 7 unknown #
loop $-1 $-1 $162 $97 #
plane-surface $-1 -60.689107943968011 21.297127140656666 4.3641406136758292 -0.57357644374324357 0 0.81915203911291934 0.81915203911291934 0 0.57357644374324357 forward_v I I I I #
loop $-1 $-1 $251 $62 #
coedge $-1 $160 $160 $161 $252 reversed $98 $-1 #
coedge $-1 $161 $161 $160 $252 forward $100 $-1 #
coedge $-1 $162 $162 $101 $163 forward $157 $-1 #
edge $-1 $253 0 $253 6.2831853071796004 $162 $254 forward 7 unknown #
loop $-1 $-1 $169 $102 #
plane-surface $-1 -60.689107943968011 21.297127140656666 4.3641406136758292 -0.57357644374324357 0 0.81915203911291934 0.81915203911291934 0 0.57357644374324357 forward_v I I I I #
loop $-1 $-1 $255 $65 #
coedge $-1 $167 $167 $168 $256 reversed $103 $-1 #
coedge $-1 $168 $168 $167 $256 forward $105 $-1 #
coedge $-1 $169 $169 $106 $170 forward $164 $-1 #
edge $-1 $257 0 $257 6.2831853071796004 $169 $258 forward 7 unknown #
face $-1 $259 $260 $36 $-1 $261 forward single #
loop $-1 $-1 $262 $107 #
plane-surface $-1 25.000086490696106 7.9651502472175864 168.35719097220993 0 1 0 0.54463904215088732 0 0.83867056331134215 forward_v I I I I #
coedge $-1 $263 $264 $265 $266 reversed $108 $-1 #
coedge $-1 $176 $110 $267 $268 reversed $69 $-1 #
coedge $-1 $110 $175 $263 $269 reversed $69 $-1 #
coedge $-1 $265 $270 $110 $178 forward $260 $-1 #
edge $-1 $271 -48.189064698619958 $272 -35.661575212679722 $177 $273 forward 7 unknown #
loop $-1 $-1 $184 $111 #
plane-surface $-1 -41.107228748492986 14.1358891149799 66.560854279748938 0.54463904215088732 0 0.83867056331134215 0.83867056331134215 0 -0.54463904215088732 forward_v I I I I #
loop $-1 $-1 $274 $71 #
coedge $-1 $182 $182 $183 $275 reversed $112 $-1 #
coedge $-1 $183 $183 $182 $275 forward $114 $-1 #
coedge $-1 $184 $184 $115 $185 forward $179 $-1 #
edge $-1 $276 0 $276 6.2831853071796004 $184 $277 forward 7 unknown #
loop $-1 $-1 $191 $116 #
plane-surface $-1 -41.107228748492986 14.1358891149799 66.560854279748938 0.54463904215088732 0 0.83867056331134215 0.83867056331134215 0 -0.54463904215088732 forward_v I I I I #
loop $-1 $-1 $278 $74 #
coedge $-1 $189 $189 $190 $279 reversed $117 $-1 #
coedge $-1 $190 $190 $189 $279 forward $119 $-1 #
coedge $-1 $191 $191 $120 $192 forward $186 $-1 #
edge $-1 $280 0 $280 6.2831853071796004 $191 $281 forward 7 unknown #
loop $-1 $-1 $198 $121 #
plane-surface $-1 -41.107228748492986 14.1358891149799 66.560854279748938 0.54463904215088732 0 0.83867056331134215 0.83867056331134215 0 -0.54463904215088732 forward_v I I I I #
loop $-1 $-1 $282 $77 #
coedge $-1 $196 $196 $197 $283 reversed $122 $-1 #
coedge $-1 $197 $197 $196 $283 forward $124 $-1 #
coedge $-1 $198 $198 $125 $199 forward $193 $-1 #
edge $-1 $284 0 $284 6.2831853071796004 $198 $285 forward 7 unknown #
face $-1 $286 $287 $30 $-1 $288 reversed single #
loop $-1 $-1 $289 $126 #
plane-surface $-1 -60.689107943968011 0 0 1 0 0 0 0 -1 forward_v I I I I #
coedge $-1 $132 $290 $291 $292 forward $127 $-1 #
coedge $-1 $293 $129 $294 $295 forward $81 $-1 #
coedge $-1 $129 $293 $208 $296 forward $81 $-1 #
coedge $-1 $209 $297 $129 $207 reversed $298 $-1 #
edge $-1 $299 -24.454560009381002 $300 24.454560009381002 $206 $301 forward 7 unknown #
coedge $-1 $131 $130 $205 $296 reversed $51 $-1 #
coedge $-1 $291 $206 $130 $210 forward $298 $-1 #
edge $-1 $299 -8.5889859879745245 $214 8.5889859879745245 $209 $302 forward 7 unknown #
coedge $-1 $303 $304 $131 $212 reversed $201 $-1 #
edge $-1 $305 -8.5889859879745245 $215 8.5889859879745245 $211 $306 forward 7 unknown #
coedge $-1 $290 $132 $304 $307 forward $127 $-1 #
vertex $-1 $210 $308 #
vertex $-1 $307 $309 #
straight-curve $-1 0 -24.454560009381002 -8.5889859879745245 -1 0 0 I I #
face $-1 $310 $311 $31 $-1 $312 reversed single #
loop $-1 $-1 $140 $134 #
plane-surface $-1 -46.511135968018962 -27.743313071813361 0 1 0 0 0 0 -1 forward_v I I I I #
coedge $-1 $313 $314 $315 $316 forward $135 $-1 #
coedge $-1 $317 $137 $318 $319 forward $85 $-1 #
coedge $-1 $137 $317 $227 $320 forward $85 $-1 #
edge $-1 $229 -46.511135968018962 $321 -43.511135968018962 $137 $322 forward 7 unknown #
coedge $-1 $139 $138 $323 $324 forward $54 $-1 #
coedge $-1 $325 $326 $138 $226 forward $327 $-1 #
edge $-1 $328 43.511135968018962 $230 46.511135968018962 $225 $329 forward 7 unknown #
coedge $-1 $315 $140 $222 $320 reversed $218 $-1 #
coedge $-1 $140 $315 $325 $330 reversed $218 $-1 #
vertex $-1 $223 $331 #
vertex $-1 $330 $332 #
straight-curve $-1 -46.511135968018962 -24.454560009381002 0 0 0 1 I I #
face $-1 $-1 $333 $32 $-1 $334 reversed single #
loop $-1 $-1 $238 $142 #
plane-surface $-1 0 0 8.5889859879745245 0 0 1 1 0 0 forward_v I I I I #
coedge $-1 $240 $335 $336 $337 forward $143 $-1 #
coedge $-1 $336 $145 $147 $242 forward $89 $-1 #
coedge $-1 $145 $336 $338 $339 reversed $89 $-1 #
coedge $-1 $340 $148 $145 $239 forward $233 $-1 #
edge $-1 $245 7.4911307016039981 $341 13.805996439052668 $238 $342 forward 7 unknown #
coedge $-1 $343 $235 $146 $241 forward $143 $-1 #
edge $-1 $344 -47.531536217407556 $244 -43.306690843108861 $240 $345 forward 7 unknown #
edge $-1 $245 -7.365793034886055 $344 0 $147 $346 forward 7 unknown #
coedge $-1 $148 $340 $343 $347 forward $233 $-1 #
vertex $-1 $241 $348 #
vertex $-1 $149 $349 #
straight-curve $-1 -65.154396680435013 18.139694271932331 8.5889859879745245 1 0 0 I I #
coedge $-1 $247 $247 $-1 $350 reversed $152 $-1 #
edge $-1 $351 0 $351 6.2831853071796004 $153 $352 forward 7 unknown #
vertex $-1 $156 $353 #
ellipse-curve $-1 -57.672255751862693 19.402667419422063 6.4765633008251751 -0.57357644374324357 0 0.81915203911291934 0.40957601955645967 0 0.28678822187162178 1 I I #
coedge $-1 $251 $251 $-1 $354 reversed $159 $-1 #
edge $-1 $355 0 $355 6.2831853071796004 $160 $356 forward 7 unknown #
vertex $-1 $163 $357 #
ellipse-curve $-1 -57.672255751862693 21.297127140656666 6.4765633008251751 -0.57357644374324357 0 0.81915203911291934 0.40957601955645967 0 0.28678822187162178 1 I I #
coedge $-1 $255 $255 $-1 $358 reversed $166 $-1 #
edge $-1 $359 0 $359 6.2831853071796004 $167 $360 forward 7 unknown #
vertex $-1 $170 $361 #
ellipse-curve $-1 -57.672255751862693 23.19158686189127 6.4765633008251751 -0.57357644374324357 0 0.81915203911291934 0.40957601955645967 0 0.28678822187162178 1 I I #
face $-1 $-1 $362 $36 $-1 $363 reversed single #
loop $-1 $-1 $177 $171 #
plane-surface $-1 0 0 8.5889859879745245 0 0 1 1 0 0 forward_v I I I I #
coedge $-1 $364 $365 $366 $367 reversed $172 $-1 #
coedge $-1 $368 $174 $176 $269 forward $108 $-1 #
coedge $-1 $174 $368 $364 $369 forward $108 $-1 #
coedge $-1 $366 $177 $174 $266 forward $260 $-1 #
edge $-1 $272 -13.238683425252264 $370 -0.89720568972763637 $265 $371 forward 7 unknown #
coedge $-1 $372 $373 $175 $268 forward $362 $-1 #
edge $-1 $374 -83.725056445545107 $271 -75.589609498130443 $267 $375 forward 7 unknown #
edge $-1 $272 106.44089719097632 $374 121.37821588793601 $176 $376 forward 7 unknown #
coedge $-1 $177 $366 $372 $377 forward $260 $-1 #
vertex $-1 $178 $378 #
vertex $-1 $178 $379 #
straight-curve $-1 12.500043245348053 20.306627982742214 8.5889859879745245 -1 0 0 I I #
coedge $-1 $274 $274 $-1 $380 reversed $181 $-1 #
edge $-1 $381 0 $381 6.2831853071796004 $182 $382 forward 7 unknown #
vertex $-1 $185 $383 #
ellipse-curve $-1 54.4253632009979 10.433445794322513 4.5212625142671854 0.54463904215088732 0 0.83867056331134215 0.83867056331134215 0 -0.54463904215088732 1 I I #
coedge $-1 $278 $278 $-1 $384 reversed $188 $-1 #
edge $-1 $385 0 $385 6.2831853071796004 $189 $386 forward 7 unknown #
vertex $-1 $192 $387 #
ellipse-curve $-1 54.4253632009979 14.1358891149799 4.5212625142671854 0.54463904215088732 0 0.83867056331134215 0.83867056331134215 0 -0.54463904215088732 1 I I #
coedge $-1 $282 $282 $-1 $388 reversed $195 $-1 #
edge $-1 $389 0 $389 6.2831853071796004 $196 $390 forward 7 unknown #
vertex $-1 $199 $391 #
ellipse-curve $-1 54.4253632009979 17.838332435637287 4.5212625142671854 0.54463904215088732 0 0.83867056331134215 0.83867056331134215 0 -0.54463904215088732 1 I I #
face $-1 $-1 $298 $30 $-1 $392 reversed single #
loop $-1 $-1 $393 $200 #
plane-surface $-1 0 24.454560009381002 0 0 -1 0 0 0 -1 forward_v I I I I #
coedge $-1 $304 $303 $394 $395 forward $201 $-1 #
coedge $-1 $203 $213 $396 $397 forward $127 $-1 #
coedge $-1 $297 $209 $203 $292 reversed $298 $-1 #
edge $-1 $398 -24.454560009381002 $214 24.454560009381002 $291 $399 forward 7 unknown #
coedge $-1 $205 $204 $303 $400 forward $81 $-1 #
coedge $-1 $393 $394 $204 $295 reversed $287 $-1 #
edge $-1 $300 -60.689107943968011 $401 60.689107943968011 $294 $402 forward 7 unknown #
edge $-1 $305 -60.689107943968011 $299 60.689107943968011 $208 $403 forward 7 unknown #
coedge $-1 $206 $291 $393 $404 reversed $298 $-1 #
loop $-1 $-1 $209 $286 #
vertex $-1 $207 $405 #
vertex $-1 $207 $406 #
straight-curve $-1 60.689107943968011 0 8.5889859879745245 0 1 0 I I #
straight-curve $-1 60.689107943968011 -24.454560009381002 0 0 0 -1 I I #
coedge $-1 $289 $211 $293 $400 reversed $201 $-1 #
coedge $-1 $211 $289 $213 $307 reversed $201 $-1 #
vertex $-1 $400 $407 #
straight-curve $-1 -60.689107943968011 -24.454560009381002 0 0 0 -1 I I #
edge $-1 $215 -24.454560009381002 $408 24.454560009381002 $304 $409 forward 7 unknown #
point $-1 60.689107943968011 -24.454560009381002 -8.5889859879745245 #
point $-1 -60.689107943968011 -24.454560009381002 -8.5889859879745245 #
face $-1 $-1 $327 $31 $-1 $410 forward single #
loop $-1 $-1 $411 $217 #
plane-surface $-1 -43.511135968018962 -27.743313071813361 0 -1 0 0 0 0 1 forward_v I I I I #
coedge $-1 $412 $220 $317 $413 reversed $135 $-1 #
coedge $-1 $220 $412 $414 $415 reversed $135 $-1 #
coedge $-1 $228 $227 $220 $316 reversed $218 $-1 #
edge $-1 $416 -8.5889859879745245 $417 8.5889859879745245 $315 $418 forward 7 unknown #
coedge $-1 $222 $221 $313 $413 forward $85 $-1 #
coedge $-1 $323 $411 $221 $319 reversed $311 $-1 #
edge $-1 $321 -3.2887530624323595 $419 3.2887530624323595 $318 $420 forward 7 unknown #
edge $-1 $417 -3.2887530624323595 $229 3.2887530624323595 $227 $421 forward 7 unknown #
vertex $-1 $319 $422 #
straight-curve $-1 0 -24.454560009381002 -8.5889859879745245 1 0 0 I I #
coedge $-1 $423 $318 $224 $324 reversed $311 $-1 #
edge $-1 $328 -8.5889859879745245 $321 8.5889859879745245 $323 $424 forward 7 unknown #
coedge $-1 $414 $225 $228 $330 forward $327 $-1 #
coedge $-1 $225 $414 $423 $425 forward $327 $-1 #
loop $-1 $-1 $225 $310 #
vertex $-1 $226 $426 #
straight-curve $-1 0 -24.454560009381002 8.5889859879745245 -1 0 0 I I #
edge $-1 $230 -3.2887530624323595 $416 3.2887530624323595 $228 $427 forward 7 unknown #
point $-1 -46.511135968018962 -24.454560009381002 -8.5889859879745245 #
point $-1 -46.511135968018962 -24.454560009381002 8.5889859879745245 #
loop $-1 $-1 $338 $232 #
plane-surface $-1 0 24.454560009381002 0 0 -1 0 0 0 -1 forward_v I I I I #
coedge $-1 $235 $343 $428 $429 forward $143 $-1 #
coedge $-1 $237 $236 $235 $337 reversed $89 $-1 #
edge $-1 $430 -13.805996439052668 $344 -7.4911307016039981 $235 $431 forward 7 unknown #
coedge $-1 $428 $432 $237 $339 forward $333 $-1 #
edge $-1 $341 16.239426100642863 $430 23.605219135528916 $338 $433 forward 7 unknown #
coedge $-1 $243 $238 $432 $434 forward $233 $-1 #
vertex $-1 $434 $435 #
straight-curve $-1 -54.65540355975736 10.648563570328333 8.5889859879745263 0 1 0 I I #
coedge $-1 $335 $240 $243 $347 reversed $143 $-1 #
vertex $-1 $241 $436 #
straight-curve $-1 -60.689107943968011 18.139694271932331 51.895676831083385 0 0 1 I I #
straight-curve $-1 -60.689107943968011 18.139694271932331 4.3641406136758292 -0.81915203911291934 0 -0.57357644374324357 I I #
edge $-1 $437 -24.454560009381002 $244 -18.139694271932331 $343 $438 forward 7 unknown #
point $-1 -60.689107943968011 18.139694271932331 8.5889859879745245 #
point $-1 -54.65540355975736 18.139694271932331 8.5889859879745245 #
edge $-1 $439 1 $439 0 $247 $-1 forward 7 unknown #
vertex $-1 $248 $440 #
ellipse-curve $-1 -56.914547388452249 19.402667419422063 5.3944436327126946 -0.57357644374324357 0 0.81915203911291934 0.40957601955645967 0 0.28678822187162178 1 I I #
point $-1 -57.262679732306232 19.402667419422063 6.7633515226968015 #
edge $-1 $441 1 $441 0 $251 $-1 forward 7 unknown #
vertex $-1 $252 $442 #
ellipse-curve $-1 -56.914547388452249 21.297127140656666 5.3944436327126946 -0.57357644374324357 0 0.81915203911291934 0.40957601955645967 0 0.28678822187162178 1 I I #
point $-1 -57.262679732306232 21.297127140656666 6.7633515226968015 #
edge $-1 $443 1 $443 0 $255 $-1 forward 7 unknown #
vertex $-1 $256 $444 #
ellipse-curve $-1 -56.914547388452249 23.19158686189127 5.3944436327126946 -0.57357644374324357 0 0.81915203911291934 0.40957601955645967 0 0.28678822187162178 1 I I #
point $-1 -57.262679732306232 23.19158686189127 6.7633515226968015 #
loop $-1 $-1 $267 $259 #
plane-surface $-1 60.689107943968011 0 0 -1 0 0 0 0 1 forward_v I I I I #
coedge $-1 $365 $262 $264 $369 reversed $172 $-1 #
coedge $-1 $262 $364 $445 $446 reversed $172 $-1 #
coedge $-1 $270 $265 $262 $367 forward $260 $-1 #
edge $-1 $370 35.661575212679722 $447 48.189064698619958 $366 $448 forward 7 unknown #
coedge $-1 $264 $263 $373 $449 reversed $108 $-1 #
edge $-1 $450 -121.37821588793601 $370 -106.44089719097632 $364 $451 forward 7 unknown #
vertex $-1 $266 $452 #
straight-curve $-1 48.161618458027775 7.06794455748995 8.5889859879745245 0 -1 0 I I #
coedge $-1 $445 $267 $270 $377 reversed $362 $-1 #
coedge $-1 $267 $445 $368 $449 forward $362 $-1 #
vertex $-1 $268 $453 #
straight-curve $-1 60.689107943968011 20.306627982742214 84.178595486104967 0 0 1 I I #
straight-curve $-1 -41.107228748492986 20.306627982742214 66.560854279748938 0.83867056331134215 0 -0.54463904215088732 I I #
edge $-1 $447 7.9651502472175864 $271 20.306627982742214 $372 $454 forward 7 unknown #
point $-1 60.689107943968011 20.306627982742214 8.5889859879745245 #
point $-1 48.161618458027775 20.306627982742214 8.5889859879745245 #
edge $-1 $455 1 $455 0 $274 $-1 forward 7 unknown #
vertex $-1 $275 $456 #
ellipse-curve $-1 52.91604137652476 10.433445794322513 2.1971107609334495 0.54463904215088732 0 0.83867056331134215 0.83867056331134215 0 -0.54463904215088732 1 I I #
point $-1 55.264033764309239 10.433445794322513 3.9766234721162945 #
edge $-1 $457 1 $457 0 $278 $-1 forward 7 unknown #
vertex $-1 $279 $458 #
ellipse-curve $-1 52.91604137652476 14.1358891149799 2.1971107609334495 0.54463904215088732 0 0.83867056331134215 0.83867056331134215 0 -0.54463904215088732 1 I I #
point $-1 55.264033764309239 14.1358891149799 3.9766234721162945 #
edge $-1 $459 1 $459 0 $282 $-1 forward 7 unknown #
vertex $-1 $283 $460 #
ellipse-curve $-1 52.91604137652476 17.838332435637287 2.1971107609334495 0.54463904215088732 0 0.83867056331134215 0.83867056331134215 0 -0.54463904215088732 1 I I #
point $-1 55.264033764309239 17.838332435637287 3.9766234721162945 #
plane-surface $-1 60.689107943968011 0 0 -1 0 0 0 0 1 forward_v I I I I #
coedge $-1 $396 $294 $297 $404 forward $287 $-1 #
coedge $-1 $294 $396 $289 $395 reversed $287 $-1 #
edge $-1 $401 -8.5889859879745245 $408 8.5889859879745245 $394 $461 forward 7 unknown #
coedge $-1 $394 $393 $290 $397 reversed $287 $-1 #
edge $-1 $408 -60.689107943968011 $398 60.689107943968011 $396 $462 forward 7 unknown #
vertex $-1 $292 $463 #
straight-curve $-1 60.689107943968011 0 -8.5889859879745245 0 -1 0 I I #
edge $-1 $401 -24.454560009381002 $305 24.454560009381002 $303 $464 forward 7 unknown #
vertex $-1 $295 $465 #
straight-curve $-1 0 24.454560009381002 8.5889859879745245 -1 0 0 I I #
straight-curve $-1 0 -24.454560009381002 8.5889859879745245 1 0 0 I I #
edge $-1 $300 -8.5889859879745245 $398 8.5889859879745245 $297 $466 forward 7 unknown #
point $-1 60.689107943968011 -24.454560009381002 8.5889859879745245 #
point $-1 60.689107943968011 24.454560009381002 8.5889859879745245 #
point $-1 -60.689107943968011 -24.454560009381002 8.5889859879745245 #
vertex $-1 $397 $467 #
straight-curve $-1 -60.689107943968011 0 -8.5889859879745245 0 1 0 I I #
plane-surface $-1 0 0 8.5889859879745245 0 0 1 1 0 0 forward_v I I I I #
coedge $-1 $318 $423 $412 $468 forward $311 $-1 #
coedge $-1 $314 $313 $411 $468 reversed $135 $-1 #
edge $-1 $419 -1.5 $417 1.5 $313 $469 forward 7 unknown #
coedge $-1 $326 $325 $314 $415 forward $327 $-1 #
edge $-1 $416 -1.5 $470 1.5 $314 $471 forward 7 unknown #
vertex $-1 $330 $472 #
vertex $-1 $320 $473 #
straight-curve $-1 -46.511135968018962 -31.032066134245721 0 0 0 -1 I I #
vertex $-1 $468 $474 #
straight-curve $-1 -43.511135968018962 -27.743313071813361 -8.5889859879745245 0 -1 0 I I #
straight-curve $-1 -46.511135968018962 -27.743313071813361 -8.5889859879745245 0 1 0 I I #
point $-1 -43.511135968018962 -24.454560009381002 -8.5889859879745245 #
coedge $-1 $411 $323 $326 $425 reversed $311 $-1 #
straight-curve $-1 -43.511135968018962 -24.454560009381002 0 0 0 -1 I I #
edge $-1 $470 -3.2887530624323595 $328 3.2887530624323595 $423 $475 forward 7 unknown #
point $-1 -43.511135968018962 -24.454560009381002 8.5889859879745245 #
straight-curve $-1 -46.511135968018962 -27.743313071813361 8.5889859879745245 0 -1 0 I I #
coedge $-1 $432 $338 $335 $429 reversed $333 $-1 #
edge $-1 $437 -8.5889859879745245 $430 -4.3641406136758292 $428 $476 forward 7 unknown #
vertex $-1 $339 $477 #
straight-curve $-1 -60.689107943968011 10.648563570328333 4.3641406136758309 0 -1 0 I I #
coedge $-1 $338 $428 $340 $434 reversed $333 $-1 #
straight-curve $-1 -41.352844555392196 24.454560009381002 17.903538259212468 -0.81915203911291934 0 -0.57357644374324357 I I #
edge $-1 $341 54.65540355975736 $437 60.689107943968011 $432 $478 forward 7 unknown #
point $-1 -54.65540355975736 24.454560009381002 8.5889859879745245 #
point $-1 -60.689107943968011 18.139694271932331 4.3641406136758292 #
vertex $-1 $434 $479 #
straight-curve $-1 -60.689107943968011 0 8.5889859879745245 0 -1 0 I I #
vertex $-1 $350 $480 #
point $-1 -56.504971368895788 19.402667419422063 5.6812318545843166 #
vertex $-1 $354 $481 #
point $-1 -56.504971368895788 21.297127140656666 5.6812318545843166 #
vertex $-1 $358 $482 #
point $-1 -56.504971368895788 23.19158686189127 5.6812318545843166 #
coedge $-1 $373 $372 $365 $446 forward $362 $-1 #
edge $-1 $447 75.589609498130443 $450 83.725056445545107 $445 $483 forward 7 unknown #
vertex $-1 $377 $484 #
straight-curve $-1 12.500043245348053 7.9651502472175864 8.5889859879745245 1 0 0 I I #
edge $-1 $450 0.89720568972763637 $374 13.238683425252264 $373 $485 forward 7 unknown #
vertex $-1 $449 $486 #
straight-curve $-1 -41.107228748492986 7.9651502472175864 66.560854279748938 -0.83867056331134215 0 0.54463904215088732 I I #
point $-1 48.161618458027775 7.9651502472175864 8.5889859879745245 #
point $-1 60.689107943968011 20.306627982742214 0.4535390405598605 #
straight-curve $-1 60.689107943968011 0 8.5889859879745245 0 1 0 I I #
vertex $-1 $380 $487 #
point $-1 53.754711939836099 10.433445794322513 1.6524717187825622 #
vertex $-1 $384 $488 #
point $-1 53.754711939836099 14.1358891149799 1.6524717187825622 #
vertex $-1 $388 $489 #
point $-1 53.754711939836099 17.838332435637287 1.6524717187825622 #
straight-curve $-1 -60.689107943968011 24.454560009381002 0 0 0 -1 I I #
straight-curve $-1 0 24.454560009381002 -8.5889859879745245 1 0 0 I I #
point $-1 60.689107943968011 24.454560009381002 -8.5889859879745245 #
straight-curve $-1 -60.689107943968011 0 8.5889859879745245 0 -1 0 I I #
point $-1 -60.689107943968011 24.454560009381002 8.5889859879745245 #
straight-curve $-1 60.689107943968011 24.454560009381002 0 0 0 -1 I I #
point $-1 -60.689107943968011 24.454560009381002 -8.5889859879745245 #
edge $-1 $470 -8.5889859879745245 $419 8.5889859879745245 $411 $490 forward 7 unknown #
straight-curve $-1 -45.011135968018962 -31.032066134245721 -8.5889859879745245 -1 0 0 I I #
vertex $-1 $425 $491 #
straight-curve $-1 -45.011135968018962 -31.032066134245721 8.5889859879745245 1 0 0 I I #
point $-1 -46.511135968018962 -31.032066134245721 8.5889859879745245 #
point $-1 -46.511135968018962 -31.032066134245721 -8.5889859879745245 #
point $-1 -43.511135968018962 -31.032066134245721 -8.5889859879745245 #
straight-curve $-1 -43.511135968018962 -27.743313071813361 8.5889859879745245 0 1 0 I I #
straight-curve $-1 -60.689107943968011 24.454560009381002 0 0 0 -1 I I #
point $-1 -60.689107943968011 24.454560009381002 4.3641406136758292 #
straight-curve $-1 0 24.454560009381002 8.5889859879745245 -1 0 0 I I #
point $-1 -60.689107943968011 24.454560009381002 8.5889859879745245 #
point $-1 -56.627759166580631 19.402667419422063 4.9848676131562355 #
point $-1 -56.627759166580631 21.297127140656666 4.9848676131562355 #
point $-1 -56.627759166580631 23.19158686189127 4.9848676131562355 #
straight-curve $-1 60.689107943968011 7.9651502472175864 84.178595486104967 0 0 -1 I I #
point $-1 60.689107943968011 7.9651502472175864 8.5889859879745245 #
straight-curve $-1 60.689107943968011 7.06794455748995 0.45353904055985339 0 1 0 I I #
point $-1 60.689107943968011 7.9651502472175864 0.4535390405598605 #
point $-1 52.371402334373869 10.433445794322513 1.3584401976221074 #
point $-1 52.371402334373869 14.1358891149799 1.3584401976221074 #
point $-1 52.371402334373869 17.838332435637287 1.3584401976221074 #
straight-curve $-1 -43.511135968018962 -31.032066134245721 0 0 0 -1 I I #
point $-1 -43.511135968018962 -31.032066134245721 8.5889859879745245 #
End-of-ACIS-data 