500 0 15 0           
7 Unknown 11 ACIS 5.0 NT 24 Thu Mar 25 23:05:10 1999 
-1 9.9999999999999995e-007 1e-010 
body $-1 $15 $-1 $16 #
body $-1 $17 $-1 $18 #
body $-1 $19 $-1 $20 #
body $-1 $21 $-1 $22 #
body $-1 $23 $-1 $24 #
body $-1 $25 $-1 $26 #
body $-1 $27 $-1 $28 #
body $-1 $29 $-1 $30 #
body $-1 $31 $-1 $32 #
body $-1 $33 $-1 $34 #
body $-1 $35 $-1 $36 #
body $-1 $37 $-1 $38 #
body $-1 $39 $-1 $40 #
body $-1 $41 $-1 $42 #
body $-1 $43 $-1 $44 #
lump $-1 $-1 $45 $0 #
transform $-1 1 0 0 0 1 0 0 0 1 61.20670186468093 31.159062282318875 13.862440203228493 1 rotate no_reflect no_shear #
lump $-1 $-1 $46 $1 #
transform $-1 1 0 0 0 1 0 0 0 1 61.20670186468093 31.159062282318875 13.862440203228493 1 rotate no_reflect no_shear #
lump $-1 $-1 $47 $2 #
transform $-1 1 0 0 0 1 0 0 0 1 61.20670186468093 31.159062282318875 13.862440203228493 1 rotate no_reflect no_shear #
lump $-1 $-1 $48 $3 #
transform $-1 1 0 0 0 1 0 0 0 1 61.20670186468093 31.159062282318875 13.862440203228493 1 rotate no_reflect no_shear #
lump $-1 $-1 $49 $4 #
transform $-1 1 0 0 0 1 0 0 0 1 61.20670186468093 31.159062282318875 13.862440203228493 1 rotate no_reflect no_shear #
lump $-1 $-1 $50 $5 #
transform $-1 1 0 0 0 1 0 0 0 1 61.20670186468093 31.159062282318875 13.862440203228493 1 rotate no_reflect no_shear #
lump $-1 $-1 $51 $6 #
transform $-1 1 0 0 0 1 0 0 0 1 61.20670186468093 31.159062282318875 13.862440203228493 1 rotate no_reflect no_shear #
lump $-1 $-1 $52 $7 #
transform $-1 1 0 0 0 1 0 0 0 1 61.20670186468093 31.159062282318875 13.862440203228493 1 rotate no_reflect no_shear #
lump $-1 $-1 $53 $8 #
transform $-1 1 0 0 0 1 0 0 0 1 61.20670186468093 31.159062282318875 13.862440203228493 1 rotate no_reflect no_shear #
lump $-1 $-1 $54 $9 #
transform $-1 1 0 0 0 1 0 0 0 1 61.20670186468093 31.159062282318875 13.862440203228493 1 rotate no_reflect no_shear #
lump $-1 $-1 $55 $10 #
transform $-1 1 0 0 0 1 0 0 0 1 61.20670186468093 31.159062282318875 13.862440203228493 1 rotate no_reflect no_shear #
lump $-1 $-1 $56 $11 #
transform $-1 1 0 0 0 1 0 0 0 1 61.20670186468093 31.159062282318875 13.862440203228493 1 rotate no_reflect no_shear #
lump $-1 $-1 $57 $12 #
transform $-1 1 0 0 0 1 0 0 0 1 61.20670186468093 31.159062282318875 13.862440203228493 1 rotate no_reflect no_shear #
lump $-1 $-1 $58 $13 #
transform $-1 1 0 0 0 1 0 0 0 1 61.20670186468093 31.159062282318875 13.862440203228493 1 rotate no_reflect no_shear #
lump $-1 $-1 $59 $14 #
transform $-1 1 0 0 0 1 0 0 0 1 61.20670186468093 31.159062282318875 13.862440203228493 1 rotate no_reflect no_shear #
shell $-1 $-1 $-1 $60 $-1 $15 #
shell $-1 $-1 $-1 $61 $-1 $17 #
shell $-1 $-1 $-1 $62 $-1 $19 #
shell $-1 $-1 $-1 $63 $-1 $21 #
shell $-1 $-1 $-1 $64 $-1 $23 #
shell $-1 $-1 $-1 $65 $-1 $25 #
shell $-1 $-1 $-1 $66 $-1 $27 #
shell $-1 $-1 $-1 $67 $-1 $29 #
shell $-1 $-1 $-1 $68 $-1 $31 #
shell $-1 $-1 $-1 $69 $-1 $33 #
shell $-1 $-1 $-1 $70 $-1 $35 #
shell $-1 $-1 $-1 $71 $-1 $37 #
shell $-1 $-1 $-1 $72 $-1 $39 #
shell $-1 $-1 $-1 $73 $-1 $41 #
shell $-1 $-1 $-1 $74 $-1 $43 #
face $-1 $75 $76 $45 $-1 $77 forward single #
face $-1 $78 $79 $46 $-1 $80 forward single #
face $-1 $81 $82 $47 $-1 $83 forward single #
face $-1 $84 $85 $48 $-1 $86 reversed single #
face $-1 $87 $88 $49 $-1 $89 forward single #
face $-1 $90 $91 $50 $-1 $92 forward single #
face $-1 $93 $94 $51 $-1 $95 reversed single #
face $-1 $96 $97 $52 $-1 $98 forward single #
face $-1 $99 $100 $53 $-1 $101 forward single #
face $-1 $102 $103 $54 $-1 $104 reversed single #
face $-1 $105 $106 $55 $-1 $107 forward single #
face $-1 $108 $109 $56 $-1 $110 forward single #
face $-1 $111 $112 $57 $-1 $113 reversed single #
face $-1 $114 $115 $58 $-1 $116 forward single #
face $-1 $117 $118 $59 $-1 $119 forward single #
face $-1 $120 $121 $45 $-1 $122 reversed single #
loop $-1 $-1 $123 $60 #
plane-surface $-1 0 0 13.862440203228493 0 0 1 1 0 0 forward_v I I I I #
face $-1 $124 $125 $46 $-1 $126 reversed single #
loop $-1 $-1 $127 $61 #
plane-surface $-1 0 -31.159062282318875 0 0 1 0 0 0 1 forward_v I I I I #
face $-1 $128 $129 $47 $-1 $130 reversed single #
loop $-1 $-1 $131 $62 #
plane-surface $-1 0 31.159062282318875 0 0 -1 0 0 0 -1 forward_v I I I I #
face $-1 $132 $133 $48 $-1 $134 reversed single #
loop $-1 $-1 $135 $63 #
plane-surface $-1 -149.2635362706886 -8.1043199023868304 91.588363420247447 0 1 0 -0.71933980857756763 0 0.69465836192734942 forward_v I I I I #
face $-1 $136 $137 $49 $-1 $138 forward single #
loop $-1 $139 $140 $64 #
cone-surface $-1 -57.211914572545837 -5.7887999302763049 9.7582211740450315 0.71933980857756763 0 -0.69465836192734942 0.34732918096367471 0 0.35966990428878381 1 I I 0 1 0.5 forward I I I I #
face $-1 $141 $142 $50 $-1 $143 forward single #
loop $-1 $144 $145 $65 #
cone-surface $-1 -57.211914572545837 -2.3155199721105184 9.7582211740450315 0.71933980857756763 0 -0.69465836192734942 0.34732918096367471 0 0.35966990428878381 1 I I 0 1 0.5 forward I I I I #
face $-1 $146 $147 $51 $-1 $148 reversed single #
loop $-1 $-1 $149 $66 #
plane-surface $-1 -61.206701864680937 -4.0521599511934134 6.5528689076576541 -0.71933980857756763 0 0.69465836192734942 0.69465836192734942 0 0.71933980857756763 forward_v I I I I #
face $-1 $150 $151 $52 $-1 $152 forward single #
loop $-1 $153 $154 $67 #
cone-surface $-1 -57.211914572545837 2.3155199721105326 9.7582211740450315 0.71933980857756763 0 -0.69465836192734942 0.34732918096367471 0 0.35966990428878381 1 I I 0 1 0.5 forward I I I I #
face $-1 $155 $156 $53 $-1 $157 forward single #
loop $-1 $158 $159 $68 #
cone-surface $-1 -57.211914572545837 5.7887999302763156 9.7582211740450315 0.71933980857756763 0 -0.69465836192734942 0.34732918096367471 0 0.35966990428878381 1 I I 0 1 0.5 forward I I I I #
face $-1 $160 $161 $54 $-1 $162 reversed single #
loop $-1 $-1 $163 $69 #
plane-surface $-1 64.228041758098811 3.5527136788005009e-015 179.6451978262551 0 -1 0 -0.71933980857756763 0 -0.69465836192734942 forward_v I I I I #
face $-1 $164 $165 $55 $-1 $166 forward single #
loop $-1 $167 $168 $70 #
cone-surface $-1 57.21191457254583 -5.7887999302763049 9.7582211740450386 -0.71933980857756763 0 -0.69465836192734942 0.34732918096367471 0 -0.35966990428878381 1 I I 0 1 0.5 forward I I I I #
face $-1 $169 $170 $56 $-1 $171 forward single #
loop $-1 $172 $173 $71 #
cone-surface $-1 57.21191457254583 -2.3155199721105184 9.7582211740450386 -0.71933980857756763 0 -0.69465836192734942 0.34732918096367471 0 -0.35966990428878381 1 I I 0 1 0.5 forward I I I I #
face $-1 $174 $175 $57 $-1 $176 reversed single #
loop $-1 $-1 $177 $72 #
plane-surface $-1 64.228041758098811 8.1043199023868375 179.6451978262551 0 -1 0 -0.71933980857756763 0 -0.69465836192734942 forward_v I I I I #
face $-1 $178 $179 $58 $-1 $180 forward single #
loop $-1 $181 $182 $73 #
cone-surface $-1 57.21191457254583 2.3155199721105326 9.7582211740450386 -0.71933980857756763 0 -0.69465836192734942 0.34732918096367471 0 -0.35966990428878381 1 I I 0 1 0.5 forward I I I I #
face $-1 $183 $184 $59 $-1 $185 forward single #
loop $-1 $186 $187 $74 #
cone-surface $-1 57.21191457254583 5.7887999302763156 9.7582211740450386 -0.71933980857756763 0 -0.69465836192734942 0.34732918096367471 0 -0.35966990428878381 1 I I 0 1 0.5 forward I I I I #
face $-1 $188 $189 $45 $-1 $190 reversed single #
loop $-1 $-1 $191 $75 #
plane-surface $-1 0 0 -13.862440203228493 0 0 1 1 0 0 forward_v I I I I #
coedge $-1 $192 $193 $194 $195 forward $76 $-1 #
face $-1 $196 $197 $46 $-1 $198 reversed single #
loop $-1 $-1 $199 $78 #
plane-surface $-1 0 0 -13.862440203228493 0 0 1 1 0 0 forward_v I I I I #
coedge $-1 $200 $201 $202 $203 forward $79 $-1 #
face $-1 $204 $205 $47 $-1 $206 forward single #
loop $-1 $-1 $207 $81 #
plane-surface $-1 -61.20670186468093 0 0 1 0 0 0 0 -1 forward_v I I I I #
coedge $-1 $208 $209 $210 $211 forward $82 $-1 #
face $-1 $212 $213 $48 $-1 $214 reversed single #
loop $-1 $-1 $215 $84 #
plane-surface $-1 -61.206701864680937 -4.0521599511934134 6.5528689076576541 -0.71933980857756763 0 0.69465836192734942 0.69465836192734942 0 0.71933980857756763 forward_v I I I I #
coedge $-1 $216 $217 $218 $219 reversed $85 $-1 #
face $-1 $-1 $220 $49 $-1 $221 forward single #
loop $-1 $222 $223 $87 #
cone-surface $-1 -56.566677718887959 -5.7887999302763049 9.1351232021651629 0.71933980857756763 0 -0.69465836192734942 0.17366459048183736 0 0.17983495214439191 1 I I -0.70710678118654746 0.70710678118654746 0.25 forward I I I I #
loop $-1 $-1 $224 $64 #
coedge $-1 $140 $140 $225 $226 reversed $88 $-1 #
face $-1 $-1 $227 $50 $-1 $228 forward single #
loop $-1 $229 $230 $90 #
cone-surface $-1 -56.566677718887959 -2.3155199721105184 9.1351232021651629 0.71933980857756763 0 -0.69465836192734942 0.17366459048183736 0 0.17983495214439191 1 I I -0.70710678118654746 0.70710678118654746 0.25 forward I I I I #
loop $-1 $-1 $231 $65 #
coedge $-1 $145 $145 $232 $233 reversed $91 $-1 #
face $-1 $234 $235 $51 $-1 $236 forward single #
loop $-1 $-1 $237 $93 #
plane-surface $-1 -149.2635362706886 8.1043199023868375 91.588363420247447 0 -1 0 0.71933980857756763 0 -0.69465836192734942 forward_v I I I I #
coedge $-1 $238 $239 $240 $241 reversed $94 $-1 #
face $-1 $-1 $242 $52 $-1 $243 forward single #
loop $-1 $244 $245 $96 #
cone-surface $-1 -56.566677718887959 2.3155199721105326 9.1351232021651629 0.71933980857756763 0 -0.69465836192734942 0.17366459048183736 0 0.17983495214439191 1 I I -0.70710678118654746 0.70710678118654746 0.25 forward I I I I #
loop $-1 $-1 $246 $67 #
coedge $-1 $154 $154 $247 $248 reversed $97 $-1 #
face $-1 $-1 $249 $53 $-1 $250 forward single #
loop $-1 $251 $252 $99 #
cone-surface $-1 -56.566677718887959 5.7887999302763156 9.1351232021651629 0.71933980857756763 0 -0.69465836192734942 0.17366459048183736 0 0.17983495214439191 1 I I -0.70710678118654746 0.70710678118654746 0.25 forward I I I I #
loop $-1 $-1 $253 $68 #
coedge $-1 $159 $159 $254 $255 reversed $100 $-1 #
face $-1 $256 $257 $54 $-1 $258 reversed single #
loop $-1 $-1 $259 $102 #
plane-surface $-1 -23.828792647908855 -4.0521599511934134 94.609703313665307 0.71933980857756763 0 0.69465836192734942 0.69465836192734942 0 -0.71933980857756763 forward_v I I I I #
coedge $-1 $260 $261 $262 $263 reversed $103 $-1 #
face $-1 $-1 $264 $55 $-1 $265 forward single #
loop $-1 $266 $267 $105 #
cone-surface $-1 56.566677718887952 -5.7887999302763049 9.13512320216517 -0.71933980857756763 0 -0.69465836192734942 0.17366459048183736 0 -0.17983495214439191 1 I I -0.70710678118654746 0.70710678118654746 0.25 forward I I I I #
loop $-1 $-1 $268 $70 #
coedge $-1 $168 $168 $269 $270 reversed $106 $-1 #
face $-1 $-1 $271 $56 $-1 $272 forward single #
loop $-1 $273 $274 $108 #
cone-surface $-1 56.566677718887952 -2.3155199721105184 9.13512320216517 -0.71933980857756763 0 -0.69465836192734942 0.17366459048183736 0 -0.17983495214439191 1 I I -0.70710678118654746 0.70710678118654746 0.25 forward I I I I #
loop $-1 $-1 $275 $71 #
coedge $-1 $173 $173 $276 $277 reversed $109 $-1 #
face $-1 $278 $279 $57 $-1 $280 reversed single #
loop $-1 $-1 $281 $111 #
plane-surface $-1 -23.828792647908855 -4.0521599511934134 94.609703313665307 0.71933980857756763 0 0.69465836192734942 0.69465836192734942 0 -0.71933980857756763 forward_v I I I I #
coedge $-1 $282 $283 $284 $285 reversed $112 $-1 #
face $-1 $-1 $286 $58 $-1 $287 forward single #
loop $-1 $288 $289 $114 #
cone-surface $-1 56.566677718887952 2.3155199721105326 9.13512320216517 -0.71933980857756763 0 -0.69465836192734942 0.17366459048183736 0 -0.17983495214439191 1 I I -0.70710678118654746 0.70710678118654746 0.25 forward I I I I #
loop $-1 $-1 $290 $73 #
coedge $-1 $182 $182 $291 $292 reversed $115 $-1 #
face $-1 $-1 $293 $59 $-1 $294 forward single #
loop $-1 $295 $296 $117 #
cone-surface $-1 56.566677718887952 5.7887999302763156 9.13512320216517 -0.71933980857756763 0 -0.69465836192734942 0.17366459048183736 0 -0.17983495214439191 1 I I -0.70710678118654746 0.70710678118654746 0.25 forward I I I I #
loop $-1 $-1 $297 $74 #
coedge $-1 $187 $187 $298 $299 reversed $118 $-1 #
face $-1 $300 $301 $45 $-1 $302 reversed single #
loop $-1 $-1 $303 $120 #
plane-surface $-1 0 -31.159062282318875 0 0 1 0 0 0 1 forward_v I I I I #
coedge $-1 $304 $305 $306 $307 forward $121 $-1 #
coedge $-1 $308 $123 $309 $310 forward $76 $-1 #
coedge $-1 $123 $308 $311 $312 forward $76 $-1 #
coedge $-1 $313 $314 $123 $195 reversed $315 $-1 #
edge $-1 $316 -31.159062282318875 $317 31.159062282318875 $194 $318 forward 7 unknown #
face $-1 $319 $320 $46 $-1 $321 forward single #
loop $-1 $-1 $322 $124 #
plane-surface $-1 61.20670186468093 0 0 -1 0 0 0 0 1 forward_v I I I I #
coedge $-1 $323 $324 $325 $326 forward $125 $-1 #
coedge $-1 $325 $127 $322 $327 reversed $79 $-1 #
coedge $-1 $127 $325 $328 $329 reversed $79 $-1 #
coedge $-1 $330 $331 $127 $203 reversed $320 $-1 #
edge $-1 $332 -61.20670186468093 $333 61.20670186468093 $202 $334 forward 7 unknown #
face $-1 $335 $336 $47 $-1 $337 reversed single #
loop $-1 $-1 $338 $128 #
plane-surface $-1 0 38.518052065707181 -6.2244120676918921 0 0 1 1 0 0 forward_v I I I I #
coedge $-1 $339 $340 $208 $341 forward $129 $-1 #
coedge $-1 $342 $131 $207 $341 reversed $82 $-1 #
coedge $-1 $131 $342 $343 $344 reversed $82 $-1 #
coedge $-1 $338 $345 $131 $211 reversed $205 $-1 #
edge $-1 $346 -61.20670186468093 $347 61.20670186468093 $210 $348 forward 7 unknown #
face $-1 $349 $350 $48 $-1 $351 reversed single #
loop $-1 $-1 $352 $132 #
plane-surface $-1 -149.2635362706886 3.5527136788005009e-015 91.588363420247447 0 -1 0 0.71933980857756763 0 -0.69465836192734942 forward_v I I I I #
coedge $-1 $353 $354 $355 $356 reversed $133 $-1 #
coedge $-1 $217 $135 $357 $358 reversed $85 $-1 #
coedge $-1 $135 $216 $353 $359 reversed $85 $-1 #
coedge $-1 $355 $360 $135 $219 forward $361 $-1 #
edge $-1 $362 13.425066270663372 $363 20.483837051906569 $218 $364 forward 7 unknown #
loop $-1 $-1 $225 $136 #
plane-surface $-1 -61.206701864680937 -4.0521599511934134 6.5528689076576541 -0.71933980857756763 0 0.69465836192734942 0.69465836192734942 0 0.71933980857756763 forward_v I I I I #
loop $-1 $-1 $365 $87 #
coedge $-1 $223 $223 $224 $366 reversed $137 $-1 #
coedge $-1 $224 $224 $223 $366 forward $139 $-1 #
coedge $-1 $225 $225 $140 $226 forward $220 $-1 #
edge $-1 $367 0 $367 6.2831853071796004 $225 $368 forward 7 unknown #
loop $-1 $-1 $232 $141 #
plane-surface $-1 -61.206701864680937 -4.0521599511934134 6.5528689076576541 -0.71933980857756763 0 0.69465836192734942 0.69465836192734942 0 0.71933980857756763 forward_v I I I I #
loop $-1 $-1 $369 $90 #
coedge $-1 $230 $230 $231 $370 reversed $142 $-1 #
coedge $-1 $231 $231 $230 $370 forward $144 $-1 #
coedge $-1 $232 $232 $145 $233 forward $227 $-1 #
edge $-1 $371 0 $371 6.2831853071796004 $232 $372 forward 7 unknown #
face $-1 $373 $374 $51 $-1 $375 forward single #
loop $-1 $-1 $376 $146 #
plane-surface $-1 0 0 13.862440203228493 0 0 1 1 0 0 forward_v I I I I #
coedge $-1 $377 $378 $379 $380 reversed $147 $-1 #
coedge $-1 $381 $149 $382 $383 reversed $94 $-1 #
coedge $-1 $149 $381 $376 $384 reversed $94 $-1 #
coedge $-1 $385 $386 $149 $241 forward $374 $-1 #
edge $-1 $387 1.0047061284303404e-014 $388 10.161499764659052 $240 $389 forward 7 unknown #
loop $-1 $-1 $247 $150 #
plane-surface $-1 -61.206701864680937 -4.0521599511934134 6.5528689076576541 -0.71933980857756763 0 0.69465836192734942 0.69465836192734942 0 0.71933980857756763 forward_v I I I I #
loop $-1 $-1 $390 $96 #
coedge $-1 $245 $245 $246 $391 reversed $151 $-1 #
coedge $-1 $246 $246 $245 $391 forward $153 $-1 #
coedge $-1 $247 $247 $154 $248 forward $242 $-1 #
edge $-1 $392 0 $392 6.2831853071796004 $247 $393 forward 7 unknown #
loop $-1 $-1 $254 $155 #
plane-surface $-1 -61.206701864680937 -4.0521599511934134 6.5528689076576541 -0.71933980857756763 0 0.69465836192734942 0.69465836192734942 0 0.71933980857756763 forward_v I I I I #
loop $-1 $-1 $394 $99 #
coedge $-1 $252 $252 $253 $395 reversed $156 $-1 #
coedge $-1 $253 $253 $252 $395 forward $158 $-1 #
coedge $-1 $254 $254 $159 $255 forward $249 $-1 #
edge $-1 $396 0 $396 6.2831853071796004 $254 $397 forward 7 unknown #
face $-1 $398 $399 $54 $-1 $400 forward single #
loop $-1 $-1 $401 $160 #
plane-surface $-1 64.228041758098811 -8.1043199023868304 179.6451978262551 0 1 0 0.71933980857756763 0 0.69465836192734942 forward_v I I I I #
coedge $-1 $402 $403 $404 $405 reversed $161 $-1 #
coedge $-1 $261 $163 $406 $407 reversed $103 $-1 #
coedge $-1 $163 $260 $402 $408 reversed $103 $-1 #
coedge $-1 $404 $409 $163 $263 forward $399 $-1 #
edge $-1 $410 -29.092680985631524 $411 -22.033910204388334 $262 $412 forward 7 unknown #
loop $-1 $-1 $269 $164 #
plane-surface $-1 -23.828792647908855 -4.0521599511934134 94.609703313665307 0.71933980857756763 0 0.69465836192734942 0.69465836192734942 0 -0.71933980857756763 forward_v I I I I #
loop $-1 $-1 $413 $105 #
coedge $-1 $267 $267 $268 $414 reversed $165 $-1 #
coedge $-1 $268 $268 $267 $414 forward $167 $-1 #
coedge $-1 $269 $269 $168 $270 forward $264 $-1 #
edge $-1 $415 0 $415 6.2831853071796004 $269 $416 forward 7 unknown #
loop $-1 $-1 $276 $169 #
plane-surface $-1 -23.828792647908855 -4.0521599511934134 94.609703313665307 0.71933980857756763 0 0.69465836192734942 0.69465836192734942 0 -0.71933980857756763 forward_v I I I I #
loop $-1 $-1 $417 $108 #
coedge $-1 $274 $274 $275 $418 reversed $170 $-1 #
coedge $-1 $275 $275 $274 $418 forward $172 $-1 #
coedge $-1 $276 $276 $173 $277 forward $271 $-1 #
edge $-1 $419 0 $419 6.2831853071796004 $276 $420 forward 7 unknown #
face $-1 $421 $422 $57 $-1 $423 forward single #
loop $-1 $-1 $424 $174 #
plane-surface $-1 61.20670186468093 0 0 -1 0 0 0 0 1 forward_v I I I I #
coedge $-1 $425 $426 $427 $428 reversed $175 $-1 #
coedge $-1 $283 $177 $429 $430 reversed $112 $-1 #
coedge $-1 $177 $282 $431 $432 reversed $112 $-1 #
coedge $-1 $433 $424 $177 $285 forward $279 $-1 #
edge $-1 $434 -83.26973000546991 $435 -75.960158709899062 $284 $436 forward 7 unknown #
loop $-1 $-1 $291 $178 #
plane-surface $-1 -23.828792647908855 -4.0521599511934134 94.609703313665307 0.71933980857756763 0 0.69465836192734942 0.69465836192734942 0 -0.71933980857756763 forward_v I I I I #
loop $-1 $-1 $437 $114 #
coedge $-1 $289 $289 $290 $438 reversed $179 $-1 #
coedge $-1 $290 $290 $289 $438 forward $181 $-1 #
coedge $-1 $291 $291 $182 $292 forward $286 $-1 #
edge $-1 $439 0 $439 6.2831853071796004 $291 $440 forward 7 unknown #
loop $-1 $-1 $298 $183 #
plane-surface $-1 -23.828792647908855 -4.0521599511934134 94.609703313665307 0.71933980857756763 0 0.69465836192734942 0.69465836192734942 0 -0.71933980857756763 forward_v I I I I #
loop $-1 $-1 $441 $117 #
coedge $-1 $296 $296 $297 $442 reversed $184 $-1 #
coedge $-1 $297 $297 $296 $442 forward $186 $-1 #
coedge $-1 $298 $298 $187 $299 forward $293 $-1 #
edge $-1 $443 0 $443 6.2831853071796004 $298 $444 forward 7 unknown #
face $-1 $445 $446 $45 $-1 $447 reversed single #
loop $-1 $-1 $448 $188 #
plane-surface $-1 -61.20670186468093 0 0 1 0 0 0 0 -1 forward_v I I I I #
coedge $-1 $449 $311 $450 $451 forward $189 $-1 #
coedge $-1 $452 $191 $449 $453 forward $121 $-1 #
coedge $-1 $191 $452 $454 $455 forward $121 $-1 #
coedge $-1 $314 $313 $191 $307 reversed $315 $-1 #
edge $-1 $456 -31.159062282318875 $457 31.159062282318875 $306 $458 forward 7 unknown #
coedge $-1 $193 $192 $459 $460 forward $76 $-1 #
coedge $-1 $461 $462 $192 $310 reversed $446 $-1 #
edge $-1 $317 -61.20670186468093 $463 61.20670186468093 $309 $464 forward 7 unknown #
coedge $-1 $303 $465 $193 $312 reversed $189 $-1 #
edge $-1 $466 -61.20670186468093 $316 61.20670186468093 $311 $467 forward 7 unknown #
coedge $-1 $306 $194 $465 $468 forward $315 $-1 #
coedge $-1 $194 $306 $461 $469 reversed $315 $-1 #
loop $-1 $-1 $313 $445 #
vertex $-1 $195 $470 #
vertex $-1 $195 $471 #
straight-curve $-1 61.20670186468093 0 13.862440203228493 0 1 0 I I #
face $-1 $472 $473 $46 $-1 $474 reversed single #
loop $-1 $-1 $331 $196 #
plane-surface $-1 0 -38.518052065707174 -6.2244120676918921 0 0 1 1 0 0 forward_v I I I I #
coedge $-1 $475 $476 $200 $327 forward $197 $-1 #
coedge $-1 $477 $199 $476 $478 forward $125 $-1 #
coedge $-1 $199 $477 $479 $480 forward $125 $-1 #
coedge $-1 $201 $200 $199 $326 reversed $79 $-1 #
edge $-1 $481 -61.20670186468093 $482 61.20670186468093 $199 $483 forward 7 unknown #
edge $-1 $482 -13.862440203228493 $333 -6.2244120676918921 $322 $484 forward 7 unknown #
coedge $-1 $479 $485 $201 $329 forward $486 $-1 #
edge $-1 $332 6.2244120676918921 $481 13.862440203228493 $328 $487 forward 7 unknown #
coedge $-1 $488 $202 $485 $489 forward $320 $-1 #
coedge $-1 $202 $488 $475 $490 forward $320 $-1 #
vertex $-1 $329 $491 #
vertex $-1 $490 $492 #
straight-curve $-1 0 -31.159062282318875 -6.2244120676918921 1 0 0 I I #
face $-1 $493 $494 $47 $-1 $495 reversed single #
loop $-1 $-1 $496 $204 #
plane-surface $-1 0 45.877041849095477 -10.043426135460193 0 -1 0 0 0 -1 forward_v I I I I #
coedge $-1 $497 $210 $498 $499 forward $205 $-1 #
coedge $-1 $500 $207 $345 $501 reversed $129 $-1 #
coedge $-1 $207 $500 $502 $503 reversed $129 $-1 #
edge $-1 $504 -13.862440203228493 $347 -6.2244120676918921 $207 $505 forward 7 unknown #
coedge $-1 $209 $208 $506 $507 reversed $82 $-1 #
coedge $-1 $508 $498 $209 $344 forward $509 $-1 #
edge $-1 $346 6.2244120676918921 $510 13.862440203228493 $343 $511 forward 7 unknown #
coedge $-1 $210 $497 $339 $501 forward $205 $-1 #
vertex $-1 $344 $512 #
vertex $-1 $501 $513 #
straight-curve $-1 0 31.159062282318875 -6.2244120676918921 -1 0 0 I I #
face $-1 $-1 $361 $48 $-1 $514 forward single #
loop $-1 $-1 $515 $212 #
plane-surface $-1 -61.20670186468093 0 0 1 0 0 0 0 -1 forward_v I I I I #
coedge $-1 $516 $517 $518 $519 reversed $213 $-1 #
coedge $-1 $520 $215 $217 $359 forward $133 $-1 #
coedge $-1 $215 $520 $516 $521 forward $133 $-1 #
coedge $-1 $518 $218 $215 $356 forward $361 $-1 #
edge $-1 $363 -6.0782399267901237 $522 2.0260799755967103 $355 $523 forward 7 unknown #
coedge $-1 $524 $525 $216 $358 forward $350 $-1 #
edge $-1 $526 -39.241312802466062 $362 -31.931741506895229 $357 $527 forward 7 unknown #
edge $-1 $363 -10.161499764659052 $526 -1.0047061284303404e-014 $217 $528 forward 7 unknown #
coedge $-1 $218 $518 $524 $529 forward $361 $-1 #
loop $-1 $-1 $518 $349 #
vertex $-1 $358 $530 #
vertex $-1 $219 $531 #
straight-curve $-1 -74.631768135344302 -8.1043199023868304 13.862440203228495 1 0 0 I I #
coedge $-1 $365 $365 $-1 $532 reversed $222 $-1 #
edge $-1 $533 0 $533 6.2831853071796004 $223 $534 forward 7 unknown #
vertex $-1 $226 $535 #
ellipse-curve $-1 -57.677316474059332 -5.7887999302763049 10.207654555443076 -0.71933980857756763 0 0.69465836192734942 0.34732918096367471 0 0.35966990428878381 1 I I #
coedge $-1 $369 $369 $-1 $536 reversed $229 $-1 #
edge $-1 $537 0 $537 6.2831853071796004 $230 $538 forward 7 unknown #
vertex $-1 $233 $539 #
ellipse-curve $-1 -57.677316474059332 -2.3155199721105184 10.207654555443076 -0.71933980857756763 0 0.69465836192734942 0.34732918096367471 0 0.35966990428878381 1 I I #
face $-1 $-1 $540 $51 $-1 $541 reversed single #
loop $-1 $-1 $385 $234 #
plane-surface $-1 -149.2635362706886 3.5527136788005009e-015 91.588363420247447 0 -1 0 0.71933980857756763 0 -0.69465836192734942 forward_v I I I I #
coedge $-1 $379 $542 $239 $384 forward $235 $-1 #
coedge $-1 $378 $237 $381 $543 reversed $147 $-1 #
coedge $-1 $237 $377 $544 $545 reversed $147 $-1 #
coedge $-1 $546 $376 $237 $380 forward $235 $-1 #
edge $-1 $547 -20.483837051906569 $548 -13.425066270663372 $379 $549 forward 7 unknown #
coedge $-1 $239 $238 $377 $543 forward $94 $-1 #
coedge $-1 $550 $544 $238 $383 forward $540 $-1 #
edge $-1 $551 -10.130399877983544 $387 -2.0260799755967103 $382 $552 forward 7 unknown #
edge $-1 $388 2.0260799755967103 $547 10.130399877983544 $376 $553 forward 7 unknown #
coedge $-1 $386 $240 $542 $554 reversed $374 $-1 #
coedge $-1 $240 $385 $550 $555 reversed $374 $-1 #
vertex $-1 $383 $556 #
vertex $-1 $384 $557 #
straight-curve $-1 -61.206701864680937 3.5527136788005009e-015 6.5528689076576541 0.69465836192734942 0 0.71933980857756763 I I #
coedge $-1 $390 $390 $-1 $558 reversed $244 $-1 #
edge $-1 $559 0 $559 6.2831853071796004 $245 $560 forward 7 unknown #
vertex $-1 $248 $561 #
ellipse-curve $-1 -57.677316474059332 2.3155199721105326 10.207654555443076 -0.71933980857756763 0 0.69465836192734942 0.34732918096367471 0 0.35966990428878381 1 I I #
coedge $-1 $394 $394 $-1 $562 reversed $251 $-1 #
edge $-1 $563 0 $563 6.2831853071796004 $252 $564 forward 7 unknown #
vertex $-1 $255 $565 #
ellipse-curve $-1 -57.677316474059332 5.7887999302763156 10.207654555443076 -0.71933980857756763 0 0.69465836192734942 0.34732918096367471 0 0.35966990428878381 1 I I #
face $-1 $-1 $566 $54 $-1 $567 reversed single #
loop $-1 $-1 $262 $256 #
plane-surface $-1 0 0 13.862440203228493 0 0 1 1 0 0 forward_v I I I I #
coedge $-1 $568 $569 $570 $571 reversed $257 $-1 #
coedge $-1 $572 $259 $261 $408 forward $161 $-1 #
coedge $-1 $259 $572 $568 $573 forward $161 $-1 #
coedge $-1 $570 $262 $259 $405 forward $399 $-1 #
edge $-1 $411 -2.0260799755967103 $574 6.0782399267901237 $404 $575 forward 7 unknown #
coedge $-1 $576 $577 $260 $407 forward $566 $-1 #
edge $-1 $578 -83.26973000546991 $410 -75.960158709899062 $406 $579 forward 7 unknown #
edge $-1 $411 112.25190396470282 $578 122.41340372936186 $261 $580 forward 7 unknown #
coedge $-1 $262 $570 $576 $581 forward $399 $-1 #
vertex $-1 $407 $582 #
vertex $-1 $263 $583 #
straight-curve $-1 32.114020879049406 3.5527136788005009e-015 13.862440203228488 -1 0 0 I I #
coedge $-1 $413 $413 $-1 $584 reversed $266 $-1 #
edge $-1 $585 0 $585 6.2831853071796004 $267 $586 forward 7 unknown #
vertex $-1 $270 $587 #
ellipse-curve $-1 57.677316474059324 -5.7887999302763049 10.207654555443083 0.71933980857756763 0 0.69465836192734942 0.34732918096367471 0 -0.35966990428878381 1 I I #
coedge $-1 $417 $417 $-1 $588 reversed $273 $-1 #
edge $-1 $589 0 $589 6.2831853071796004 $274 $590 forward 7 unknown #
vertex $-1 $277 $591 #
ellipse-curve $-1 57.677316474059324 -2.3155199721105184 10.207654555443083 0.71933980857756763 0 0.69465836192734942 0.34732918096367471 0 -0.35966990428878381 1 I I #
face $-1 $-1 $592 $57 $-1 $593 forward single #
loop $-1 $-1 $594 $278 #
plane-surface $-1 64.228041758098811 3.5527136788005009e-015 179.6451978262551 0 -1 0 -0.71933980857756763 0 -0.69465836192734942 forward_v I I I I #
coedge $-1 $284 $595 $426 $596 forward $279 $-1 #
coedge $-1 $429 $281 $597 $598 reversed $175 $-1 #
coedge $-1 $281 $429 $424 $596 reversed $175 $-1 #
coedge $-1 $599 $594 $281 $428 forward $422 $-1 #
edge $-1 $600 112.25190396470282 $601 122.41340372936186 $427 $602 forward 7 unknown #
coedge $-1 $426 $425 $282 $430 forward $175 $-1 #
edge $-1 $603 112.25190396470282 $434 122.41340372936186 $282 $604 forward 7 unknown #
coedge $-1 $597 $605 $283 $432 forward $592 $-1 #
edge $-1 $435 -29.092680985631524 $603 -22.033910204388334 $431 $606 forward 7 unknown #
coedge $-1 $595 $284 $605 $607 reversed $279 $-1 #
vertex $-1 $285 $608 #
vertex $-1 $285 $609 #
straight-curve $-1 61.20670186468093 8.1043199023868375 89.82259891312755 0 0 1 I I #
coedge $-1 $437 $437 $-1 $610 reversed $288 $-1 #
edge $-1 $611 0 $611 6.2831853071796004 $289 $612 forward 7 unknown #
vertex $-1 $292 $613 #
ellipse-curve $-1 57.677316474059324 2.3155199721105326 10.207654555443083 0.71933980857756763 0 0.69465836192734942 0.34732918096367471 0 -0.35966990428878381 1 I I #
coedge $-1 $441 $441 $-1 $614 reversed $295 $-1 #
edge $-1 $615 0 $615 6.2831853071796004 $296 $616 forward 7 unknown #
vertex $-1 $299 $617 #
ellipse-curve $-1 57.677316474059324 5.7887999302763156 10.207654555443083 0.71933980857756763 0 0.69465836192734942 0.34732918096367471 0 -0.35966990428878381 1 I I #
face $-1 $-1 $315 $45 $-1 $618 reversed single #
loop $-1 $-1 $461 $300 #
plane-surface $-1 0 31.159062282318875 0 0 -1 0 0 0 -1 forward_v I I I I #
coedge $-1 $619 $459 $462 $620 forward $301 $-1 #
coedge $-1 $465 $303 $304 $453 reversed $189 $-1 #
coedge $-1 $459 $619 $303 $451 reversed $301 $-1 #
edge $-1 $466 -13.862440203228493 $621 13.862440203228493 $450 $622 forward 7 unknown #
coedge $-1 $305 $304 $619 $623 forward $121 $-1 #
edge $-1 $457 -61.20670186468093 $621 61.20670186468093 $449 $624 forward 7 unknown #
coedge $-1 $462 $461 $305 $455 reversed $446 $-1 #
edge $-1 $625 -61.20670186468093 $456 61.20670186468093 $454 $626 forward 7 unknown #
vertex $-1 $307 $627 #
vertex $-1 $468 $628 #
straight-curve $-1 61.20670186468093 0 -13.862440203228493 0 -1 0 I I #
coedge $-1 $448 $450 $308 $460 reversed $301 $-1 #
edge $-1 $463 -31.159062282318875 $466 31.159062282318875 $459 $629 forward 7 unknown #
coedge $-1 $454 $309 $314 $469 forward $446 $-1 #
coedge $-1 $309 $454 $448 $620 reversed $446 $-1 #
vertex $-1 $310 $630 #
straight-curve $-1 0 31.159062282318875 13.862440203228493 -1 0 0 I I #
coedge $-1 $311 $449 $313 $468 reversed $189 $-1 #
vertex $-1 $460 $631 #
straight-curve $-1 0 -31.159062282318875 13.862440203228493 1 0 0 I I #
edge $-1 $316 -13.862440203228493 $457 13.862440203228493 $313 $632 forward 7 unknown #
edge $-1 $317 -13.862440203228493 $456 13.862440203228493 $314 $633 forward 7 unknown #
point $-1 61.20670186468093 -31.159062282318875 13.862440203228493 #
point $-1 61.20670186468093 31.159062282318875 13.862440203228493 #
face $-1 $-1 $486 $46 $-1 $634 reversed single #
loop $-1 $-1 $635 $319 #
plane-surface $-1 0 -45.877041849095477 -10.043426135460193 0 1 0 0 0 1 forward_v I I I I #
coedge $-1 $636 $322 $331 $490 reversed $197 $-1 #
coedge $-1 $322 $636 $323 $478 reversed $197 $-1 #
coedge $-1 $324 $323 $637 $638 forward $125 $-1 #
edge $-1 $482 31.159062282318875 $639 45.877041849095477 $476 $640 forward 7 unknown #
coedge $-1 $641 $328 $324 $480 reversed $486 $-1 #
edge $-1 $642 -45.877041849095477 $481 -31.159062282318875 $479 $643 forward 7 unknown #
vertex $-1 $329 $644 #
vertex $-1 $478 $645 #
straight-curve $-1 0 -31.159062282318875 -13.862440203228493 1 0 0 I I #
straight-curve $-1 61.20670186468093 -31.159062282318875 0 0 0 1 I I #
coedge $-1 $328 $641 $330 $489 reversed $486 $-1 #
loop $-1 $-1 $328 $472 #
straight-curve $-1 -61.20670186468093 -31.159062282318875 0 0 0 -1 I I #
coedge $-1 $331 $330 $646 $647 forward $320 $-1 #
edge $-1 $332 -7.3589897833882993 $648 7.3589897833883029 $485 $649 forward 7 unknown #
edge $-1 $650 -7.3589897833883029 $333 7.3589897833882993 $475 $651 forward 7 unknown #
point $-1 -61.20670186468093 -31.159062282318875 -6.2244120676918921 #
point $-1 61.20670186468093 -31.159062282318875 -6.2244120676918921 #
face $-1 $-1 $509 $47 $-1 $652 reversed single #
loop $-1 $-1 $506 $335 #
plane-surface $-1 0 0 -13.862440203228493 0 0 1 1 0 0 forward_v I I I I #
coedge $-1 $653 $654 $655 $656 forward $336 $-1 #
coedge $-1 $345 $338 $654 $657 forward $205 $-1 #
coedge $-1 $343 $655 $338 $499 reversed $509 $-1 #
edge $-1 $346 -7.3589897833882993 $658 7.3589897833882958 $498 $659 forward 7 unknown #
coedge $-1 $340 $339 $660 $661 forward $129 $-1 #
edge $-1 $662 -7.3589897833882958 $347 7.3589897833882993 $339 $663 forward 7 unknown #
coedge $-1 $664 $506 $340 $503 forward $494 $-1 #
edge $-1 $504 -7.3589897833883064 $665 7.3589897833882958 $340 $666 forward 7 unknown #
vertex $-1 $503 $667 #
straight-curve $-1 -61.20670186468093 31.159062282318875 0 0 0 1 I I #
coedge $-1 $502 $668 $342 $507 forward $494 $-1 #
edge $-1 $510 -61.20670186468093 $504 61.20670186468093 $506 $669 forward 7 unknown #
coedge $-1 $655 $343 $668 $670 reversed $509 $-1 #
loop $-1 $-1 $343 $493 #
vertex $-1 $344 $671 #
straight-curve $-1 61.20670186468093 31.159062282318875 0 0 0 -1 I I #
point $-1 61.20670186468093 31.159062282318882 -6.2244120676918921 #
point $-1 -61.20670186468093 31.159062282318882 -6.2244120676918921 #
plane-surface $-1 0 0 13.862440203228493 0 0 1 1 0 0 forward_v I I I I #
coedge $-1 $525 $524 $517 $672 forward $350 $-1 #
coedge $-1 $517 $352 $354 $521 reversed $213 $-1 #
coedge $-1 $352 $516 $515 $672 reversed $213 $-1 #
coedge $-1 $360 $355 $352 $519 forward $361 $-1 #
edge $-1 $522 -20.483837051906569 $673 -13.425066270663372 $518 $674 forward 7 unknown #
coedge $-1 $354 $353 $525 $675 reversed $133 $-1 #
edge $-1 $676 1.0047061284303404e-014 $522 10.161499764659052 $516 $677 forward 7 unknown #
vertex $-1 $356 $678 #
straight-curve $-1 -54.14793108343774 -2.0260799755967067 13.862440203228495 0 1 0 I I #
coedge $-1 $515 $357 $360 $529 reversed $350 $-1 #
coedge $-1 $357 $515 $520 $675 forward $350 $-1 #
vertex $-1 $358 $679 #
straight-curve $-1 -61.20670186468093 -8.1043199023868304 45.794181710123723 0 0 1 I I #
straight-curve $-1 -61.206701864680937 -8.1043199023868304 6.5528689076576541 -0.69465836192734942 0 -0.71933980857756763 I I #
edge $-1 $673 -3.5527136788005009e-015 $362 8.1043199023868304 $524 $680 forward 7 unknown #
point $-1 -61.20670186468093 -8.1043199023868304 13.862440203228493 #
point $-1 -54.147931083437733 -8.1043199023868304 13.862440203228495 #
edge $-1 $681 1 $681 0 $365 $-1 forward 7 unknown #
vertex $-1 $366 $682 #
ellipse-curve $-1 -56.746512671032349 -5.7887999302763049 9.3087877926470011 -0.71933980857756763 0 0.69465836192734942 0.34732918096367471 0 0.35966990428878381 1 I I #
point $-1 -57.329987293095641 -5.7887999302763049 10.567324459731848 #
edge $-1 $683 1 $683 0 $369 $-1 forward 7 unknown #
vertex $-1 $370 $684 #
ellipse-curve $-1 -56.746512671032349 -2.3155199721105184 9.3087877926470011 -0.71933980857756763 0 0.69465836192734942 0.34732918096367471 0 0.35966990428878381 1 I I #
point $-1 -57.329987293095641 -2.3155199721105184 10.567324459731848 #
loop $-1 $-1 $382 $373 #
plane-surface $-1 -61.20670186468093 0 0 1 0 0 0 0 -1 forward_v I I I I #
coedge $-1 $376 $546 $385 $554 forward $235 $-1 #
edge $-1 $551 1.0047061284303404e-014 $547 10.161499764659052 $377 $685 forward 7 unknown #
coedge $-1 $382 $686 $378 $545 forward $540 $-1 #
edge $-1 $548 31.931741506895229 $551 39.241312802466062 $544 $687 forward 7 unknown #
coedge $-1 $542 $379 $686 $688 forward $235 $-1 #
vertex $-1 $380 $689 #
vertex $-1 $688 $690 #
straight-curve $-1 -74.631768135344302 8.1043199023868375 13.862440203228495 -1 0 0 I I #
coedge $-1 $686 $382 $386 $555 forward $540 $-1 #
vertex $-1 $545 $691 #
straight-curve $-1 -61.20670186468093 -2.0260799755967067 6.5528689076576665 0 -1 0 I I #
straight-curve $-1 -54.14793108343774 -2.0260799755967067 13.862440203228495 0 1 0 I I #
edge $-1 $692 13.425066270663372 $388 20.483837051906569 $542 $693 forward 7 unknown #
edge $-1 $387 -39.241312802466062 $692 -31.931741506895229 $550 $694 forward 7 unknown #
point $-1 -61.20670186468093 3.5527136788005009e-015 6.5528689076576612 #
point $-1 -54.147931083437733 3.5527136788005009e-015 13.862440203228495 #
edge $-1 $695 1 $695 0 $390 $-1 forward 7 unknown #
vertex $-1 $391 $696 #
ellipse-curve $-1 -56.746512671032349 2.3155199721105326 9.3087877926470011 -0.71933980857756763 0 0.69465836192734942 0.34732918096367471 0 0.35966990428878381 1 I I #
point $-1 -57.329987293095641 2.3155199721105326 10.567324459731848 #
edge $-1 $697 1 $697 0 $394 $-1 forward 7 unknown #
vertex $-1 $395 $698 #
ellipse-curve $-1 -56.746512671032349 5.7887999302763156 9.3087877926470011 -0.71933980857756763 0 0.69465836192734942 0.34732918096367471 0 0.35966990428878381 1 I I #
point $-1 -57.329987293095641 5.7887999302763156 10.567324459731848 #
loop $-1 $-1 $406 $398 #
plane-surface $-1 61.20670186468093 0 0 -1 0 0 0 0 1 forward_v I I I I #
coedge $-1 $569 $401 $403 $573 reversed $257 $-1 #
coedge $-1 $401 $568 $699 $700 reversed $257 $-1 #
coedge $-1 $409 $404 $401 $571 forward $399 $-1 #
edge $-1 $574 22.033910204388334 $701 29.092680985631524 $570 $702 forward 7 unknown #
coedge $-1 $403 $402 $577 $703 reversed $161 $-1 #
edge $-1 $704 -122.41340372936186 $574 -112.25190396470282 $568 $705 forward 7 unknown #
vertex $-1 $405 $706 #
straight-curve $-1 54.147931083437726 -2.0260799755967067 13.862440203228502 0 -1 0 I I #
coedge $-1 $699 $406 $409 $581 reversed $566 $-1 #
coedge $-1 $406 $699 $572 $703 forward $566 $-1 #
vertex $-1 $407 $707 #
straight-curve $-1 61.20670186468093 3.5527136788005009e-015 89.82259891312755 0 0 1 I I #
straight-curve $-1 -23.828792647908855 3.5527136788005009e-015 94.609703313665307 0.69465836192734942 0 -0.71933980857756763 I I #
edge $-1 $701 -8.1043199023868304 $410 3.5527136788005009e-015 $576 $708 forward 7 unknown #
point $-1 61.20670186468093 3.5527136788005009e-015 13.862440203228493 #
point $-1 54.14793108343774 3.5527136788005009e-015 13.862440203228488 #
edge $-1 $709 1 $709 0 $413 $-1 forward 7 unknown #
vertex $-1 $414 $710 #
ellipse-curve $-1 56.746512671032342 -5.7887999302763049 9.3087877926470082 0.71933980857756763 0 0.69465836192734942 0.34732918096367471 0 -0.35966990428878381 1 I I #
point $-1 58.024645655022987 -5.7887999302763049 9.8479846511542881 #
edge $-1 $711 1 $711 0 $417 $-1 forward 7 unknown #
vertex $-1 $418 $712 #
ellipse-curve $-1 56.746512671032342 -2.3155199721105184 9.3087877926470082 0.71933980857756763 0 0.69465836192734942 0.34732918096367471 0 -0.35966990428878381 1 I I #
point $-1 58.024645655022987 -2.3155199721105184 9.8479846511542881 #
loop $-1 $-1 $597 $421 #
plane-surface $-1 0 0 13.862440203228493 0 0 1 1 0 0 forward_v I I I I #
coedge $-1 $427 $599 $713 $714 reversed $422 $-1 #
coedge $-1 $424 $433 $599 $715 forward $279 $-1 #
edge $-1 $601 2.0260799755967103 $434 10.130399877983544 $424 $716 forward 7 unknown #
coedge $-1 $713 $431 $425 $598 forward $592 $-1 #
edge $-1 $603 -10.130399877983544 $600 -2.0260799755967103 $597 $717 forward 7 unknown #
coedge $-1 $594 $427 $595 $715 reversed $422 $-1 #
vertex $-1 $598 $718 #
vertex $-1 $596 $719 #
straight-curve $-1 -23.828792647908855 3.5527136788005009e-015 94.609703313665307 0.69465836192734942 0 -0.71933980857756763 I I #
vertex $-1 $432 $720 #
straight-curve $-1 -23.828792647908855 8.1043199023868375 94.609703313665307 0.69465836192734942 0 -0.71933980857756763 I I #
coedge $-1 $431 $713 $433 $607 forward $592 $-1 #
straight-curve $-1 32.114020879049406 8.1043199023868375 13.862440203228488 -1 0 0 I I #
edge $-1 $721 3.5527136788005009e-015 $435 8.1043199023868375 $433 $722 forward 7 unknown #
point $-1 61.206701864680937 8.1043199023868375 6.5528689076576399 #
point $-1 61.20670186468093 8.1043199023868375 13.862440203228493 #
edge $-1 $723 1 $723 0 $437 $-1 forward 7 unknown #
vertex $-1 $438 $724 #
ellipse-curve $-1 56.746512671032342 2.3155199721105326 9.3087877926470082 0.71933980857756763 0 0.69465836192734942 0.34732918096367471 0 -0.35966990428878381 1 I I #
point $-1 58.024645655022987 2.3155199721105326 9.8479846511542881 #
edge $-1 $725 1 $725 0 $441 $-1 forward 7 unknown #
vertex $-1 $442 $726 #
ellipse-curve $-1 56.746512671032342 5.7887999302763156 9.3087877926470082 0.71933980857756763 0 0.69465836192734942 0.34732918096367471 0 -0.35966990428878381 1 I I #
point $-1 58.024645655022987 5.7887999302763156 9.8479846511542881 #
plane-surface $-1 61.20670186468093 0 0 -1 0 0 0 0 1 forward_v I I I I #
coedge $-1 $450 $448 $452 $623 reversed $301 $-1 #
edge $-1 $463 -13.862440203228493 $625 13.862440203228493 $462 $727 forward 7 unknown #
vertex $-1 $623 $728 #
straight-curve $-1 -61.20670186468093 -31.159062282318875 0 0 0 -1 I I #
edge $-1 $621 -31.159062282318875 $625 31.159062282318875 $619 $729 forward 7 unknown #
straight-curve $-1 0 -31.159062282318875 -13.862440203228493 -1 0 0 I I #
vertex $-1 $455 $730 #
straight-curve $-1 0 31.159062282318875 -13.862440203228493 1 0 0 I I #
point $-1 61.20670186468093 31.159062282318875 -13.862440203228493 #
point $-1 61.20670186468093 -31.159062282318875 -13.862440203228493 #
straight-curve $-1 -61.20670186468093 0 13.862440203228493 0 -1 0 I I #
point $-1 -61.20670186468093 31.159062282318875 13.862440203228493 #
point $-1 -61.20670186468093 -31.159062282318875 13.862440203228493 #
straight-curve $-1 61.20670186468093 -31.159062282318875 0 0 0 -1 I I #
straight-curve $-1 61.20670186468093 31.159062282318875 0 0 0 -1 I I #
plane-surface $-1 -61.20670186468093 0 0 1 0 0 0 0 -1 forward_v I I I I #
coedge $-1 $637 $646 $641 $731 forward $473 $-1 #
coedge $-1 $476 $475 $732 $733 forward $197 $-1 #
coedge $-1 $732 $635 $477 $638 reversed $473 $-1 #
edge $-1 $639 -61.20670186468093 $642 61.20670186468093 $637 $734 forward 7 unknown #
vertex $-1 $733 $735 #
straight-curve $-1 61.20670186468093 0 -13.862440203228493 0 -1 0 I I #
coedge $-1 $485 $479 $635 $731 reversed $486 $-1 #
vertex $-1 $480 $736 #
straight-curve $-1 -61.20670186468093 0 -13.862440203228493 0 1 0 I I #
point $-1 -61.20670186468093 -31.159062282318875 -13.862440203228493 #
point $-1 61.20670186468093 -31.159062282318875 -13.862440203228493 #
coedge $-1 $635 $732 $488 $647 reversed $473 $-1 #
edge $-1 $648 -61.20670186468093 $650 61.20670186468093 $646 $737 forward 7 unknown #
vertex $-1 $489 $738 #
straight-curve $-1 -61.20670186468093 -38.518052065707174 -6.2244120676918921 0 -1 0 I I #
vertex $-1 $490 $739 #
straight-curve $-1 61.20670186468093 -38.518052065707174 -6.2244120676918921 0 1 0 I I #
plane-surface $-1 61.20670186468093 0 0 -1 0 0 0 0 1 forward_v I I I I #
coedge $-1 $660 $496 $664 $740 reversed $336 $-1 #
coedge $-1 $496 $660 $497 $657 reversed $336 $-1 #
coedge $-1 $498 $508 $496 $656 reversed $509 $-1 #
edge $-1 $658 -3.8190140677683004 $741 3.8190140677683004 $655 $742 forward 7 unknown #
edge $-1 $658 -61.20670186468093 $662 61.20670186468093 $654 $743 forward 7 unknown #
vertex $-1 $499 $744 #
straight-curve $-1 61.20670186468093 38.518052065707181 -6.2244120676918921 0 1 0 I I #
coedge $-1 $654 $653 $500 $661 reversed $336 $-1 #
edge $-1 $662 -3.8190140677683004 $665 3.8190140677683004 $660 $745 forward 7 unknown #
vertex $-1 $657 $746 #
straight-curve $-1 -61.20670186468093 38.518052065707181 -6.2244120676918921 0 -1 0 I I #
coedge $-1 $668 $502 $653 $740 forward $494 $-1 #
vertex $-1 $740 $747 #
straight-curve $-1 -61.20670186468093 38.518052065707181 -13.862440203228493 0 1 0 I I #
point $-1 -61.20670186468093 31.159062282318875 -13.862440203228493 #
coedge $-1 $506 $664 $508 $670 forward $494 $-1 #
straight-curve $-1 0 31.159062282318875 -13.862440203228493 -1 0 0 I I #
edge $-1 $741 -45.877041849095477 $510 -31.159062282318875 $508 $748 forward 7 unknown #
point $-1 61.20670186468093 31.159062282318875 -13.862440203228493 #
edge $-1 $673 31.931741506895229 $676 39.241312802466062 $515 $749 forward 7 unknown #
vertex $-1 $529 $750 #
straight-curve $-1 -74.631768135344302 3.5527136788005009e-015 13.862440203228495 -1 0 0 I I #
edge $-1 $676 -2.0260799755967103 $526 6.0782399267901237 $525 $751 forward 7 unknown #
vertex $-1 $675 $752 #
straight-curve $-1 -61.206701864680937 3.5527136788005009e-015 6.5528689076576541 0.69465836192734942 0 0.71933980857756763 I I #
point $-1 -54.147931083437733 3.5527136788005009e-015 13.862440203228495 #
point $-1 -61.20670186468093 -8.1043199023868304 6.5528689076576612 #
straight-curve $-1 -61.20670186468093 0 13.862440203228493 0 -1 0 I I #
vertex $-1 $532 $753 #
point $-1 -56.39918349006868 -5.7887999302763049 9.6684576969357838 #
vertex $-1 $536 $754 #
point $-1 -56.39918349006868 -2.3155199721105184 9.6684576969357838 #
straight-curve $-1 -61.206701864680937 8.1043199023868375 6.5528689076576541 0.69465836192734942 0 0.71933980857756763 I I #
coedge $-1 $544 $550 $546 $688 reversed $540 $-1 #
straight-curve $-1 -61.20670186468093 8.1043199023868375 45.794181710123723 0 0 -1 I I #
edge $-1 $548 -8.1043199023868375 $692 -3.5527136788005009e-015 $686 $755 forward 7 unknown #
point $-1 -54.147931083437733 8.1043199023868375 13.862440203228495 #
point $-1 -61.20670186468093 8.1043199023868375 13.862440203228493 #
point $-1 -61.20670186468093 8.1043199023868375 6.5528689076576612 #
vertex $-1 $555 $756 #
straight-curve $-1 -74.631768135344302 3.5527136788005009e-015 13.862440203228495 1 0 0 I I #
straight-curve $-1 -61.20670186468093 3.5527136788005009e-015 45.794181710123723 0 0 1 I I #
vertex $-1 $558 $757 #
point $-1 -56.39918349006868 2.3155199721105326 9.6684576969357838 #
vertex $-1 $562 $758 #
point $-1 -56.39918349006868 5.7887999302763156 9.6684576969357838 #
coedge $-1 $577 $576 $569 $700 forward $566 $-1 #
edge $-1 $701 75.960158709899062 $704 83.26973000546991 $699 $759 forward 7 unknown #
vertex $-1 $581 $760 #
straight-curve $-1 32.114020879049406 -8.1043199023868304 13.862440203228488 1 0 0 I I #
edge $-1 $704 -6.0782399267901237 $578 2.0260799755967103 $577 $761 forward 7 unknown #
vertex $-1 $703 $762 #
straight-curve $-1 -23.828792647908855 -8.1043199023868304 94.609703313665307 -0.69465836192734942 0 0.71933980857756763 I I #
point $-1 54.14793108343774 -8.1043199023868304 13.862440203228488 #
point $-1 61.206701864680937 3.5527136788005009e-015 6.5528689076576399 #
straight-curve $-1 61.20670186468093 0 13.862440203228493 0 1 0 I I #
vertex $-1 $584 $763 #
point $-1 57.093841851996018 -5.7887999302763049 8.9491178883582236 #
vertex $-1 $588 $764 #
point $-1 57.093841851996018 -2.3155199721105184 8.9491178883582236 #
coedge $-1 $605 $597 $594 $714 forward $592 $-1 #
edge $-1 $600 22.033910204388334 $721 29.092680985631524 $713 $765 forward 7 unknown #
edge $-1 $721 75.960158709899062 $601 83.26973000546991 $595 $766 forward 7 unknown #
straight-curve $-1 61.206701864680937 -2.0260799755967067 6.552868907657647 0 1 0 I I #
straight-curve $-1 54.147931083437726 -2.0260799755967067 13.862440203228502 0 -1 0 I I #
point $-1 54.14793108343774 3.5527136788005009e-015 13.862440203228488 #
point $-1 61.206701864680937 3.5527136788005009e-015 6.5528689076576399 #
point $-1 54.14793108343774 8.1043199023868375 13.862440203228488 #
vertex $-1 $607 $767 #
straight-curve $-1 61.20670186468093 0 13.862440203228493 0 1 0 I I #
vertex $-1 $610 $768 #
point $-1 57.093841851996018 2.3155199721105326 8.9491178883582236 #
vertex $-1 $614 $769 #
point $-1 57.093841851996018 5.7887999302763156 8.9491178883582236 #
straight-curve $-1 -61.20670186468093 31.159062282318875 0 0 0 -1 I I #
point $-1 -61.20670186468093 -31.159062282318875 -13.862440203228493 #
straight-curve $-1 -61.20670186468093 0 -13.862440203228493 0 1 0 I I #
point $-1 -61.20670186468093 31.159062282318875 -13.862440203228493 #
edge $-1 $648 -3.8190140677683004 $642 3.8190140677683004 $641 $770 forward 7 unknown #
coedge $-1 $646 $637 $636 $733 reversed $473 $-1 #
edge $-1 $650 -3.8190140677683004 $639 3.8190140677683004 $636 $771 forward 7 unknown #
straight-curve $-1 0 -45.877041849095477 -13.862440203228493 -1 0 0 I I #
point $-1 61.20670186468093 -45.877041849095477 -13.862440203228493 #
point $-1 -61.20670186468093 -45.877041849095477 -13.862440203228493 #
straight-curve $-1 0 -45.877041849095477 -6.2244120676918921 1 0 0 I I #
point $-1 -61.20670186468093 -45.877041849095477 -6.2244120676918921 #
point $-1 61.20670186468093 -45.877041849095477 -6.2244120676918921 #
edge $-1 $665 -61.20670186468093 $741 61.20670186468093 $653 $772 forward 7 unknown #
vertex $-1 $670 $773 #
straight-curve $-1 61.20670186468093 45.877041849095477 -10.043426135460193 0 0 -1 I I #
straight-curve $-1 0 45.877041849095477 -6.2244120676918921 -1 0 0 I I #
point $-1 61.20670186468093 45.877041849095477 -6.2244120676918921 #
straight-curve $-1 -61.20670186468093 45.877041849095477 -10.043426135460193 0 0 -1 I I #
point $-1 -61.20670186468093 45.877041849095477 -6.2244120676918921 #
point $-1 -61.20670186468093 45.877041849095477 -13.862440203228493 #
straight-curve $-1 61.20670186468093 0 -13.862440203228493 0 -1 0 I I #
straight-curve $-1 -61.20670186468093 3.5527136788005009e-015 45.794181710123723 0 0 -1 I I #
point $-1 -61.20670186468093 3.5527136788005009e-015 13.862440203228493 #
straight-curve $-1 -61.20670186468093 -2.0260799755967067 6.5528689076576665 0 -1 0 I I #
point $-1 -61.20670186468093 3.5527136788005009e-015 6.5528689076576612 #
point $-1 -56.38684276674357 -5.7887999302763049 8.9614586116833248 #
point $-1 -56.38684276674357 -2.3155199721105184 8.9614586116833248 #
straight-curve $-1 -61.20670186468093 0 13.862440203228493 0 -1 0 I I #
point $-1 -61.20670186468093 3.5527136788005009e-015 13.862440203228493 #
point $-1 -56.38684276674357 2.3155199721105326 8.9614586116833248 #
point $-1 -56.38684276674357 5.7887999302763156 8.9614586116833248 #
straight-curve $-1 61.20670186468093 -8.1043199023868304 89.82259891312755 0 0 -1 I I #
point $-1 61.20670186468093 -8.1043199023868304 13.862440203228493 #
straight-curve $-1 61.206701864680937 -2.0260799755967067 6.552868907657647 0 1 0 I I #
point $-1 61.206701864680937 -8.1043199023868304 6.5528689076576399 #
point $-1 56.386842766743563 -5.7887999302763049 8.9614586116833319 #
point $-1 56.386842766743563 -2.3155199721105184 8.9614586116833319 #
straight-curve $-1 32.114020879049406 3.5527136788005009e-015 13.862440203228488 1 0 0 I I #
straight-curve $-1 61.20670186468093 3.5527136788005009e-015 89.82259891312755 0 0 -1 I I #
point $-1 61.20670186468093 3.5527136788005009e-015 13.862440203228493 #
point $-1 56.386842766743563 2.3155199721105326 8.9614586116833319 #
point $-1 56.386842766743563 5.7887999302763156 8.9614586116833319 #
straight-curve $-1 -61.20670186468093 -45.877041849095477 -10.043426135460193 0 0 -1 I I #
straight-curve $-1 61.20670186468093 -45.877041849095477 -10.043426135460193 0 0 -1 I I #
straight-curve $-1 0 45.877041849095477 -13.862440203228493 1 0 0 I I #
point $-1 61.20670186468093 45.877041849095477 -13.862440203228493 #
End-of-ACIS-data 