500 0 15 0           
7 Unknown 11 ACIS 5.0 NT 24 Thu Mar 25 18:28:08 1999 
-1 9.9999999999999995e-007 1e-010 
body $-1 $15 $-1 $16 #
body $-1 $17 $-1 $18 #
body $-1 $19 $-1 $20 #
body $-1 $21 $-1 $22 #
body $-1 $23 $-1 $24 #
body $-1 $25 $-1 $26 #
body $-1 $27 $-1 $28 #
body $-1 $29 $-1 $30 #
body $-1 $31 $-1 $32 #
body $-1 $33 $-1 $34 #
body $-1 $35 $-1 $36 #
body $-1 $37 $-1 $38 #
body $-1 $39 $-1 $40 #
body $-1 $41 $-1 $42 #
body $-1 $43 $-1 $44 #
lump $-1 $-1 $45 $0 #
transform $-1 1 0 0 0 1 0 0 0 1 61.281167027802361 37.246912882137785 9.5319677716350721 1 rotate no_reflect no_shear #
lump $-1 $-1 $46 $1 #
transform $-1 1 0 0 0 1 0 0 0 1 61.281167027802361 37.246912882137785 9.5319677716350721 1 rotate no_reflect no_shear #
lump $-1 $-1 $47 $2 #
transform $-1 1 0 0 0 1 0 0 0 1 61.281167027802361 37.246912882137785 9.5319677716350721 1 rotate no_reflect no_shear #
lump $-1 $-1 $48 $3 #
transform $-1 1 0 0 0 1 0 0 0 1 61.281167027802361 37.246912882137785 9.5319677716350721 1 rotate no_reflect no_shear #
lump $-1 $-1 $49 $4 #
transform $-1 1 0 0 0 1 0 0 0 1 61.281167027802361 37.246912882137785 9.5319677716350721 1 rotate no_reflect no_shear #
lump $-1 $-1 $50 $5 #
transform $-1 1 0 0 0 1 0 0 0 1 61.281167027802361 37.246912882137785 9.5319677716350721 1 rotate no_reflect no_shear #
lump $-1 $-1 $51 $6 #
transform $-1 1 0 0 0 1 0 0 0 1 61.281167027802361 37.246912882137785 9.5319677716350721 1 rotate no_reflect no_shear #
lump $-1 $-1 $52 $7 #
transform $-1 1 0 0 0 1 0 0 0 1 61.281167027802361 37.246912882137785 9.5319677716350721 1 rotate no_reflect no_shear #
lump $-1 $-1 $53 $8 #
transform $-1 1 0 0 0 1 0 0 0 1 61.281167027802361 37.246912882137785 9.5319677716350721 1 rotate no_reflect no_shear #
lump $-1 $-1 $54 $9 #
transform $-1 1 0 0 0 1 0 0 0 1 61.281167027802361 37.246912882137785 9.5319677716350721 1 rotate no_reflect no_shear #
lump $-1 $-1 $55 $10 #
transform $-1 1 0 0 0 1 0 0 0 1 61.281167027802361 37.246912882137785 9.5319677716350721 1 rotate no_reflect no_shear #
lump $-1 $-1 $56 $11 #
transform $-1 1 0 0 0 1 0 0 0 1 61.281167027802361 37.246912882137785 9.5319677716350721 1 rotate no_reflect no_shear #
lump $-1 $-1 $57 $12 #
transform $-1 1 0 0 0 1 0 0 0 1 61.281167027802361 37.246912882137785 9.5319677716350721 1 rotate no_reflect no_shear #
lump $-1 $-1 $58 $13 #
transform $-1 1 0 0 0 1 0 0 0 1 61.281167027802361 37.246912882137785 9.5319677716350721 1 rotate no_reflect no_shear #
lump $-1 $-1 $59 $14 #
transform $-1 1 0 0 0 1 0 0 0 1 61.281167027802361 37.246912882137785 9.5319677716350721 1 rotate no_reflect no_shear #
shell $-1 $-1 $-1 $60 $-1 $15 #
shell $-1 $-1 $-1 $61 $-1 $17 #
shell $-1 $-1 $-1 $62 $-1 $19 #
shell $-1 $-1 $-1 $63 $-1 $21 #
shell $-1 $-1 $-1 $64 $-1 $23 #
shell $-1 $-1 $-1 $65 $-1 $25 #
shell $-1 $-1 $-1 $66 $-1 $27 #
shell $-1 $-1 $-1 $67 $-1 $29 #
shell $-1 $-1 $-1 $68 $-1 $31 #
shell $-1 $-1 $-1 $69 $-1 $33 #
shell $-1 $-1 $-1 $70 $-1 $35 #
shell $-1 $-1 $-1 $71 $-1 $37 #
shell $-1 $-1 $-1 $72 $-1 $39 #
shell $-1 $-1 $-1 $73 $-1 $41 #
shell $-1 $-1 $-1 $74 $-1 $43 #
face $-1 $75 $76 $45 $-1 $77 forward single #
face $-1 $78 $79 $46 $-1 $80 reversed single #
face $-1 $81 $82 $47 $-1 $83 reversed single #
face $-1 $84 $85 $48 $-1 $86 reversed single #
face $-1 $87 $88 $49 $-1 $89 forward single #
face $-1 $90 $91 $50 $-1 $92 forward single #
face $-1 $93 $94 $51 $-1 $95 reversed single #
face $-1 $96 $97 $52 $-1 $98 forward single #
face $-1 $99 $100 $53 $-1 $101 forward single #
face $-1 $102 $103 $54 $-1 $104 reversed single #
face $-1 $105 $106 $55 $-1 $107 forward single #
face $-1 $108 $109 $56 $-1 $110 forward single #
face $-1 $111 $112 $57 $-1 $113 reversed single #
face $-1 $114 $115 $58 $-1 $116 forward single #
face $-1 $117 $118 $59 $-1 $119 forward single #
face $-1 $120 $121 $45 $-1 $122 reversed single #
loop $-1 $-1 $123 $60 #
plane-surface $-1 0 0 9.5319677716350721 0 0 1 1 0 0 forward_v I I I I #
face $-1 $124 $125 $46 $-1 $126 reversed single #
loop $-1 $-1 $127 $61 #
plane-surface $-1 0 -32.508381366040062 6.5319677716350721 0 0 1 1 0 0 forward_v I I I I #
face $-1 $128 $129 $47 $-1 $130 reversed single #
loop $-1 $-1 $131 $62 #
plane-surface $-1 0 32.508381366040062 6.5319677716350721 0 0 1 1 0 0 forward_v I I I I #
face $-1 $132 $133 $48 $-1 $134 reversed single #
loop $-1 $-1 $135 $63 #
plane-surface $-1 -153.78013572989835 -25.244021013826291 82.18230339369488 0 1 0 -0.75470958851134928 0 0.65605901945558964 forward_v I I I I #
face $-1 $136 $137 $49 $-1 $138 forward single #
loop $-1 $139 $140 $64 #
cone-surface $-1 -57.350011896400645 -22.922802893399059 5.1668953961358612 0.75470958851134928 0 -0.65605901945558964 0.32802950972779482 0 0.37735479425567464 1 I I 0 1 0.5 forward I I I I #
face $-1 $141 $142 $50 $-1 $143 forward single #
loop $-1 $144 $145 $65 #
cone-surface $-1 -57.350011896400645 -19.440975712758203 5.1668953961358612 0.75470958851134928 0 -0.65605901945558964 0.32802950972779482 0 0.37735479425567464 1 I I 0 1 0.5 forward I I I I #
face $-1 $146 $147 $51 $-1 $148 reversed single #
loop $-1 $-1 $149 $66 #
plane-surface $-1 -153.78013572989835 -11.122761478440541 82.18230339369488 0 1 0 -0.75470958851134928 0 0.65605901945558964 forward_v I I I I #
face $-1 $150 $151 $52 $-1 $152 forward single #
loop $-1 $153 $154 $67 #
cone-surface $-1 -57.350011896400645 -8.8015433580133084 5.1668953961358612 0.75470958851134928 0 -0.65605901945558964 0.32802950972779482 0 0.37735479425567464 1 I I 0 1 0.5 forward I I I I #
face $-1 $155 $156 $53 $-1 $157 forward single #
loop $-1 $158 $159 $68 #
cone-surface $-1 -57.350011896400645 -5.3197161773724559 5.1668953961358612 0.75470958851134928 0 -0.65605901945558964 0.32802950972779482 0 0.37735479425567464 1 I I 0 1 0.5 forward I I I I #
face $-1 $160 $161 $54 $-1 $162 reversed single #
loop $-1 $-1 $163 $69 #
plane-surface $-1 -153.78013572989835 2.9984980569452047 82.18230339369488 0 1 0 -0.75470958851134928 0 0.65605901945558964 forward_v I I I I #
face $-1 $164 $165 $55 $-1 $166 forward single #
loop $-1 $167 $168 $70 #
cone-surface $-1 -57.350011896400645 5.3197161773724417 5.1668953961358612 0.75470958851134928 0 -0.65605901945558964 0.32802950972779482 0 0.37735479425567464 1 I I 0 1 0.5 forward I I I I #
face $-1 $169 $170 $56 $-1 $171 forward single #
loop $-1 $172 $173 $71 #
cone-surface $-1 -57.350011896400645 8.8015433580132907 5.1668953961358612 0.75470958851134928 0 -0.65605901945558964 0.32802950972779482 0 0.37735479425567464 1 I I 0 1 0.5 forward I I I I #
face $-1 $174 $175 $57 $-1 $176 reversed single #
loop $-1 $-1 $177 $72 #
plane-surface $-1 -153.78013572989835 17.119757592330952 82.18230339369488 0 1 0 -0.75470958851134928 0 0.65605901945558964 forward_v I I I I #
face $-1 $178 $179 $58 $-1 $180 forward single #
loop $-1 $181 $182 $73 #
cone-surface $-1 -57.350011896400645 19.440975712758188 5.1668953961358612 0.75470958851134928 0 -0.65605901945558964 0.32802950972779482 0 0.37735479425567464 1 I I 0 1 0.5 forward I I I I #
face $-1 $183 $184 $59 $-1 $185 forward single #
loop $-1 $186 $187 $74 #
cone-surface $-1 -57.350011896400645 22.922802893399037 5.1668953961358612 0.75470958851134928 0 -0.65605901945558964 0.32802950972779482 0 0.37735479425567464 1 I I 0 1 0.5 forward I I I I #
face $-1 $188 $189 $45 $-1 $190 reversed single #
loop $-1 $-1 $191 $75 #
plane-surface $-1 0 0 -9.5319677716350721 0 0 1 1 0 0 forward_v I I I I #
coedge $-1 $192 $193 $194 $195 forward $76 $-1 #
face $-1 $196 $197 $46 $-1 $198 reversed single #
loop $-1 $-1 $199 $78 #
plane-surface $-1 0 -27.769849849942339 8.0319677716350721 0 -1 0 0 0 -1 forward_v I I I I #
coedge $-1 $200 $201 $202 $203 reversed $79 $-1 #
face $-1 $204 $205 $47 $-1 $206 forward single #
loop $-1 $-1 $207 $81 #
plane-surface $-1 0 27.769849849942339 8.0319677716350721 0 1 0 0 0 1 forward_v I I I I #
coedge $-1 $208 $209 $210 $211 reversed $82 $-1 #
face $-1 $212 $213 $48 $-1 $214 reversed single #
loop $-1 $-1 $215 $84 #
plane-surface $-1 -61.281167027802368 -21.181889303078631 1.7741786909864175 -0.75470958851134928 0 0.65605901945558964 0.65605901945558964 0 0.75470958851134928 forward_v I I I I #
coedge $-1 $216 $217 $218 $219 reversed $85 $-1 #
face $-1 $-1 $220 $49 $-1 $221 forward single #
loop $-1 $222 $223 $87 #
cone-surface $-1 -56.602050863125775 -22.922802893399059 4.5167028060970775 0.75470958851134928 0 -0.65605901945558964 0.16401475486389741 0 0.18867739712783732 1 I I -0.70710678118654746 0.70710678118654746 0.25 forward I I I I #
loop $-1 $-1 $224 $64 #
coedge $-1 $140 $140 $225 $226 reversed $88 $-1 #
face $-1 $-1 $227 $50 $-1 $228 forward single #
loop $-1 $229 $230 $90 #
cone-surface $-1 -56.602050863125775 -19.440975712758203 4.5167028060970775 0.75470958851134928 0 -0.65605901945558964 0.16401475486389741 0 0.18867739712783732 1 I I -0.70710678118654746 0.70710678118654746 0.25 forward I I I I #
loop $-1 $-1 $231 $65 #
coedge $-1 $145 $145 $232 $233 reversed $91 $-1 #
face $-1 $234 $235 $51 $-1 $236 reversed single #
loop $-1 $-1 $237 $93 #
plane-surface $-1 -61.281167027802368 -7.0606297676928804 1.7741786909864175 -0.75470958851134928 0 0.65605901945558964 0.65605901945558964 0 0.75470958851134928 forward_v I I I I #
coedge $-1 $238 $239 $240 $241 reversed $94 $-1 #
face $-1 $-1 $242 $52 $-1 $243 forward single #
loop $-1 $244 $245 $96 #
cone-surface $-1 -56.602050863125775 -8.8015433580133084 4.5167028060970775 0.75470958851134928 0 -0.65605901945558964 0.16401475486389741 0 0.18867739712783732 1 I I -0.70710678118654746 0.70710678118654746 0.25 forward I I I I #
loop $-1 $-1 $246 $67 #
coedge $-1 $154 $154 $247 $248 reversed $97 $-1 #
face $-1 $-1 $249 $53 $-1 $250 forward single #
loop $-1 $251 $252 $99 #
cone-surface $-1 -56.602050863125775 -5.3197161773724559 4.5167028060970775 0.75470958851134928 0 -0.65605901945558964 0.16401475486389741 0 0.18867739712783732 1 I I -0.70710678118654746 0.70710678118654746 0.25 forward I I I I #
loop $-1 $-1 $253 $68 #
coedge $-1 $159 $159 $254 $255 reversed $100 $-1 #
face $-1 $256 $257 $54 $-1 $258 reversed single #
loop $-1 $-1 $259 $102 #
plane-surface $-1 -61.281167027802368 7.0606297676928662 1.7741786909864175 -0.75470958851134928 0 0.65605901945558964 0.65605901945558964 0 0.75470958851134928 forward_v I I I I #
coedge $-1 $260 $261 $262 $263 reversed $103 $-1 #
face $-1 $-1 $264 $55 $-1 $265 forward single #
loop $-1 $266 $267 $105 #
cone-surface $-1 -56.602050863125775 5.3197161773724417 4.5167028060970775 0.75470958851134928 0 -0.65605901945558964 0.16401475486389741 0 0.18867739712783732 1 I I -0.70710678118654746 0.70710678118654746 0.25 forward I I I I #
loop $-1 $-1 $268 $70 #
coedge $-1 $168 $168 $269 $270 reversed $106 $-1 #
face $-1 $-1 $271 $56 $-1 $272 forward single #
loop $-1 $273 $274 $108 #
cone-surface $-1 -56.602050863125775 8.8015433580132907 4.5167028060970775 0.75470958851134928 0 -0.65605901945558964 0.16401475486389741 0 0.18867739712783732 1 I I -0.70710678118654746 0.70710678118654746 0.25 forward I I I I #
loop $-1 $-1 $275 $71 #
coedge $-1 $173 $173 $276 $277 reversed $109 $-1 #
face $-1 $278 $279 $57 $-1 $280 reversed single #
loop $-1 $-1 $281 $111 #
plane-surface $-1 -61.281167027802368 21.181889303078613 1.7741786909864175 -0.75470958851134928 0 0.65605901945558964 0.65605901945558964 0 0.75470958851134928 forward_v I I I I #
coedge $-1 $282 $283 $284 $285 reversed $112 $-1 #
face $-1 $-1 $286 $58 $-1 $287 forward single #
loop $-1 $288 $289 $114 #
cone-surface $-1 -56.602050863125775 19.440975712758188 4.5167028060970775 0.75470958851134928 0 -0.65605901945558964 0.16401475486389741 0 0.18867739712783732 1 I I -0.70710678118654746 0.70710678118654746 0.25 forward I I I I #
loop $-1 $-1 $290 $73 #
coedge $-1 $182 $182 $291 $292 reversed $115 $-1 #
face $-1 $-1 $293 $59 $-1 $294 forward single #
loop $-1 $295 $296 $117 #
cone-surface $-1 -56.602050863125775 22.922802893399037 4.5167028060970775 0.75470958851134928 0 -0.65605901945558964 0.16401475486389741 0 0.18867739712783732 1 I I -0.70710678118654746 0.70710678118654746 0.25 forward I I I I #
loop $-1 $-1 $297 $74 #
coedge $-1 $187 $187 $298 $299 reversed $118 $-1 #
face $-1 $300 $301 $45 $-1 $302 reversed single #
loop $-1 $-1 $303 $120 #
plane-surface $-1 0 -37.246912882137785 0 0 1 0 0 0 1 forward_v I I I I #
coedge $-1 $304 $305 $306 $307 forward $121 $-1 #
coedge $-1 $308 $123 $309 $310 forward $76 $-1 #
coedge $-1 $123 $308 $311 $312 forward $76 $-1 #
coedge $-1 $313 $314 $123 $195 reversed $315 $-1 #
edge $-1 $316 -37.246912882137785 $317 37.246912882137785 $194 $318 forward 7 unknown #
face $-1 $319 $320 $46 $-1 $321 reversed single #
loop $-1 $-1 $322 $124 #
plane-surface $-1 -61.281167027802361 0 0 1 0 0 0 0 -1 forward_v I I I I #
coedge $-1 $323 $324 $325 $326 reversed $125 $-1 #
coedge $-1 $327 $127 $328 $329 reversed $79 $-1 #
coedge $-1 $127 $327 $323 $330 forward $79 $-1 #
coedge $-1 $325 $331 $127 $203 forward $332 $-1 #
edge $-1 $333 -20.992722199117754 $334 -11.515659166922308 $202 $335 forward 7 unknown #
face $-1 $336 $337 $47 $-1 $338 reversed single #
loop $-1 $-1 $339 $128 #
plane-surface $-1 0 0 9.5319677716350721 0 0 1 1 0 0 forward_v I I I I #
coedge $-1 $340 $341 $342 $343 reversed $129 $-1 #
coedge $-1 $344 $131 $340 $345 forward $82 $-1 #
coedge $-1 $131 $344 $346 $347 reversed $82 $-1 #
coedge $-1 $348 $349 $131 $211 forward $337 $-1 #
edge $-1 $350 11.515659166922308 $351 20.992722199117754 $210 $352 forward 7 unknown #
face $-1 $353 $354 $48 $-1 $355 reversed single #
loop $-1 $-1 $356 $132 #
plane-surface $-1 -153.78013572989835 -17.11975759233097 82.18230339369488 0 -1 0 0.75470958851134928 0 -0.65605901945558964 forward_v I I I I #
coedge $-1 $357 $358 $359 $360 reversed $133 $-1 #
coedge $-1 $217 $135 $361 $362 reversed $85 $-1 #
coedge $-1 $135 $216 $357 $363 reversed $85 $-1 #
coedge $-1 $359 $364 $135 $219 forward $365 $-1 #
edge $-1 $366 15.608900837146813 $367 22.352643827656195 $218 $368 forward 7 unknown #
loop $-1 $-1 $225 $136 #
plane-surface $-1 -61.281167027802368 -21.181889303078631 1.7741786909864175 -0.75470958851134928 0 0.65605901945558964 0.65605901945558964 0 0.75470958851134928 forward_v I I I I #
loop $-1 $-1 $369 $87 #
coedge $-1 $223 $223 $224 $370 reversed $137 $-1 #
coedge $-1 $224 $224 $223 $370 forward $139 $-1 #
coedge $-1 $225 $225 $140 $226 forward $220 $-1 #
edge $-1 $371 0 $371 6.2831853071796004 $225 $372 forward 7 unknown #
loop $-1 $-1 $232 $141 #
plane-surface $-1 -61.281167027802368 -21.181889303078631 1.7741786909864175 -0.75470958851134928 0 0.65605901945558964 0.65605901945558964 0 0.75470958851134928 forward_v I I I I #
loop $-1 $-1 $373 $90 #
coedge $-1 $230 $230 $231 $374 reversed $142 $-1 #
coedge $-1 $231 $231 $230 $374 forward $144 $-1 #
coedge $-1 $232 $232 $145 $233 forward $227 $-1 #
edge $-1 $375 0 $375 6.2831853071796004 $232 $376 forward 7 unknown #
face $-1 $377 $378 $51 $-1 $379 forward single #
loop $-1 $-1 $380 $146 #
plane-surface $-1 -153.78013572989835 -2.9984980569452189 82.18230339369488 0 -1 0 0.75470958851134928 0 -0.65605901945558964 forward_v I I I I #
coedge $-1 $381 $382 $383 $384 reversed $147 $-1 #
coedge $-1 $239 $149 $385 $386 reversed $94 $-1 #
coedge $-1 $149 $238 $381 $387 reversed $94 $-1 #
coedge $-1 $383 $388 $149 $241 forward $378 $-1 #
edge $-1 $389 15.608900837146813 $390 22.352643827656195 $240 $391 forward 7 unknown #
loop $-1 $-1 $247 $150 #
plane-surface $-1 -61.281167027802368 -7.0606297676928804 1.7741786909864175 -0.75470958851134928 0 0.65605901945558964 0.65605901945558964 0 0.75470958851134928 forward_v I I I I #
loop $-1 $-1 $392 $96 #
coedge $-1 $245 $245 $246 $393 reversed $151 $-1 #
coedge $-1 $246 $246 $245 $393 forward $153 $-1 #
coedge $-1 $247 $247 $154 $248 forward $242 $-1 #
edge $-1 $394 0 $394 6.2831853071796004 $247 $395 forward 7 unknown #
loop $-1 $-1 $254 $155 #
plane-surface $-1 -61.281167027802368 -7.0606297676928804 1.7741786909864175 -0.75470958851134928 0 0.65605901945558964 0.65605901945558964 0 0.75470958851134928 forward_v I I I I #
loop $-1 $-1 $396 $99 #
coedge $-1 $252 $252 $253 $397 reversed $156 $-1 #
coedge $-1 $253 $253 $252 $397 forward $158 $-1 #
coedge $-1 $254 $254 $159 $255 forward $249 $-1 #
edge $-1 $398 0 $398 6.2831853071796004 $254 $399 forward 7 unknown #
face $-1 $400 $401 $54 $-1 $402 forward single #
loop $-1 $-1 $403 $160 #
plane-surface $-1 -153.78013572989835 11.122761478440527 82.18230339369488 0 -1 0 0.75470958851134928 0 -0.65605901945558964 forward_v I I I I #
coedge $-1 $404 $405 $406 $407 reversed $161 $-1 #
coedge $-1 $261 $163 $408 $409 reversed $103 $-1 #
coedge $-1 $163 $260 $404 $410 reversed $103 $-1 #
coedge $-1 $406 $411 $163 $263 forward $401 $-1 #
edge $-1 $412 15.608900837146813 $413 22.352643827656195 $262 $414 forward 7 unknown #
loop $-1 $-1 $269 $164 #
plane-surface $-1 -61.281167027802368 7.0606297676928662 1.7741786909864175 -0.75470958851134928 0 0.65605901945558964 0.65605901945558964 0 0.75470958851134928 forward_v I I I I #
loop $-1 $-1 $415 $105 #
coedge $-1 $267 $267 $268 $416 reversed $165 $-1 #
coedge $-1 $268 $268 $267 $416 forward $167 $-1 #
coedge $-1 $269 $269 $168 $270 forward $264 $-1 #
edge $-1 $417 0 $417 6.2831853071796004 $269 $418 forward 7 unknown #
loop $-1 $-1 $276 $169 #
plane-surface $-1 -61.281167027802368 7.0606297676928662 1.7741786909864175 -0.75470958851134928 0 0.65605901945558964 0.65605901945558964 0 0.75470958851134928 forward_v I I I I #
loop $-1 $-1 $419 $108 #
coedge $-1 $274 $274 $275 $420 reversed $170 $-1 #
coedge $-1 $275 $275 $274 $420 forward $172 $-1 #
coedge $-1 $276 $276 $173 $277 forward $271 $-1 #
edge $-1 $421 0 $421 6.2831853071796004 $276 $422 forward 7 unknown #
face $-1 $423 $424 $57 $-1 $425 forward single #
loop $-1 $-1 $426 $174 #
plane-surface $-1 -153.78013572989835 25.244021013826274 82.18230339369488 0 -1 0 0.75470958851134928 0 -0.65605901945558964 forward_v I I I I #
coedge $-1 $427 $428 $429 $430 reversed $175 $-1 #
coedge $-1 $283 $177 $431 $432 reversed $112 $-1 #
coedge $-1 $177 $282 $427 $433 reversed $112 $-1 #
coedge $-1 $429 $434 $177 $285 forward $424 $-1 #
edge $-1 $435 15.608900837146813 $436 22.352643827656195 $284 $437 forward 7 unknown #
loop $-1 $-1 $291 $178 #
plane-surface $-1 -61.281167027802368 21.181889303078613 1.7741786909864175 -0.75470958851134928 0 0.65605901945558964 0.65605901945558964 0 0.75470958851134928 forward_v I I I I #
loop $-1 $-1 $438 $114 #
coedge $-1 $289 $289 $290 $439 reversed $179 $-1 #
coedge $-1 $290 $290 $289 $439 forward $181 $-1 #
coedge $-1 $291 $291 $182 $292 forward $286 $-1 #
edge $-1 $440 0 $440 6.2831853071796004 $291 $441 forward 7 unknown #
loop $-1 $-1 $298 $183 #
plane-surface $-1 -61.281167027802368 21.181889303078613 1.7741786909864175 -0.75470958851134928 0 0.65605901945558964 0.65605901945558964 0 0.75470958851134928 forward_v I I I I #
loop $-1 $-1 $442 $117 #
coedge $-1 $296 $296 $297 $443 reversed $184 $-1 #
coedge $-1 $297 $297 $296 $443 forward $186 $-1 #
coedge $-1 $298 $298 $187 $299 forward $293 $-1 #
edge $-1 $444 0 $444 6.2831853071796004 $298 $445 forward 7 unknown #
face $-1 $446 $447 $45 $-1 $448 reversed single #
loop $-1 $-1 $449 $188 #
plane-surface $-1 -61.281167027802361 0 0 1 0 0 0 0 -1 forward_v I I I I #
coedge $-1 $450 $311 $451 $452 forward $189 $-1 #
coedge $-1 $453 $191 $450 $454 forward $121 $-1 #
coedge $-1 $191 $453 $455 $456 forward $121 $-1 #
coedge $-1 $314 $313 $191 $307 reversed $315 $-1 #
edge $-1 $457 -37.246912882137785 $458 37.246912882137785 $306 $459 forward 7 unknown #
coedge $-1 $193 $192 $460 $461 forward $76 $-1 #
coedge $-1 $462 $463 $192 $310 reversed $447 $-1 #
edge $-1 $317 -61.281167027802361 $464 61.281167027802361 $309 $465 forward 7 unknown #
coedge $-1 $303 $466 $193 $312 reversed $189 $-1 #
edge $-1 $467 -61.281167027802361 $316 61.281167027802361 $311 $468 forward 7 unknown #
coedge $-1 $306 $194 $466 $469 forward $315 $-1 #
coedge $-1 $194 $306 $462 $470 reversed $315 $-1 #
loop $-1 $-1 $313 $446 #
vertex $-1 $195 $471 #
vertex $-1 $195 $472 #
straight-curve $-1 61.281167027802361 0 9.5319677716350721 0 1 0 I I #
face $-1 $473 $474 $46 $-1 $475 forward single #
loop $-1 $-1 $328 $196 #
plane-surface $-1 0 -37.246912882137785 0 0 1 0 0 0 1 forward_v I I I I #
coedge $-1 $476 $477 $478 $479 forward $197 $-1 #
coedge $-1 $478 $199 $201 $330 reversed $125 $-1 #
coedge $-1 $199 $478 $480 $481 reversed $125 $-1 #
coedge $-1 $482 $202 $199 $326 forward $332 $-1 #
edge $-1 $334 2.5159838858175361 $483 5.5159838858175361 $325 $484 forward 7 unknown #
coedge $-1 $201 $200 $476 $485 reversed $79 $-1 #
coedge $-1 $486 $487 $200 $329 forward $320 $-1 #
edge $-1 $488 -61.281167027802361 $333 61.281167027802361 $328 $489 forward 7 unknown #
edge $-1 $490 -61.281167027802361 $334 61.281167027802361 $323 $491 forward 7 unknown #
coedge $-1 $202 $482 $486 $492 forward $332 $-1 #
loop $-1 $-1 $325 $473 #
vertex $-1 $329 $493 #
vertex $-1 $203 $494 #
straight-curve $-1 61.281167027802361 -16.254190683020031 6.5319677716350721 0 1 0 I I #
face $-1 $495 $496 $47 $-1 $497 reversed single #
loop $-1 $-1 $349 $204 #
plane-surface $-1 61.281167027802361 0 0 -1 0 0 0 0 1 forward_v I I I I #
coedge $-1 $498 $499 $341 $500 forward $205 $-1 #
coedge $-1 $501 $207 $208 $345 reversed $129 $-1 #
coedge $-1 $207 $501 $339 $500 reversed $129 $-1 #
coedge $-1 $502 $503 $207 $343 forward $496 $-1 #
edge $-1 $504 2.5159838858175361 $505 5.5159838858175361 $342 $506 forward 7 unknown #
coedge $-1 $209 $208 $503 $507 reversed $82 $-1 #
edge $-1 $350 -61.281167027802361 $504 61.281167027802361 $340 $508 forward 7 unknown #
coedge $-1 $509 $510 $209 $347 forward $511 $-1 #
edge $-1 $351 -61.281167027802361 $512 61.281167027802361 $346 $513 forward 7 unknown #
coedge $-1 $514 $210 $510 $515 reversed $337 $-1 #
coedge $-1 $210 $514 $501 $516 forward $337 $-1 #
vertex $-1 $211 $517 #
vertex $-1 $347 $518 #
straight-curve $-1 61.281167027802361 16.254190683020031 6.5319677716350721 0 1 0 I I #
face $-1 $-1 $365 $48 $-1 $519 forward single #
loop $-1 $-1 $520 $212 #
plane-surface $-1 -61.281167027802361 0 0 1 0 0 0 0 -1 forward_v I I I I #
coedge $-1 $521 $522 $523 $524 reversed $213 $-1 #
coedge $-1 $525 $215 $217 $363 forward $133 $-1 #
coedge $-1 $215 $525 $521 $526 forward $133 $-1 #
coedge $-1 $523 $218 $215 $360 forward $365 $-1 #
edge $-1 $367 -14.653076362286976 $527 -6.5288129407916546 $359 $528 forward 7 unknown #
coedge $-1 $529 $530 $216 $362 forward $354 $-1 #
edge $-1 $531 -39.316973005861016 $366 -31.559183925212366 $361 $532 forward 7 unknown #
edge $-1 $367 -10.279171218628283 $531 -1.086200982436365e-014 $217 $533 forward 7 unknown #
coedge $-1 $218 $523 $529 $534 forward $365 $-1 #
loop $-1 $-1 $523 $353 #
vertex $-1 $362 $535 #
vertex $-1 $219 $536 #
straight-curve $-1 -76.890067864949174 -25.244021013826291 9.5319677716350739 1 0 0 I I #
coedge $-1 $369 $369 $-1 $537 reversed $222 $-1 #
edge $-1 $538 0 $538 6.2831853071796004 $223 $539 forward 7 unknown #
vertex $-1 $226 $540 #
ellipse-curve $-1 -57.909295532547674 -22.922802893399059 5.6530732313107457 -0.75470958851134928 0 0.65605901945558964 0.32802950972779482 0 0.37735479425567464 1 I I #
coedge $-1 $373 $373 $-1 $541 reversed $229 $-1 #
edge $-1 $542 0 $542 6.2831853071796004 $230 $543 forward 7 unknown #
vertex $-1 $233 $544 #
ellipse-curve $-1 -57.909295532547674 -19.440975712758203 5.6530732313107457 -0.75470958851134928 0 0.65605901945558964 0.32802950972779482 0 0.37735479425567464 1 I I #
face $-1 $-1 $545 $51 $-1 $546 reversed single #
loop $-1 $-1 $240 $234 #
plane-surface $-1 0 0 9.5319677716350721 0 0 1 1 0 0 forward_v I I I I #
coedge $-1 $547 $548 $549 $550 reversed $235 $-1 #
coedge $-1 $551 $237 $239 $387 forward $147 $-1 #
coedge $-1 $237 $551 $547 $552 forward $147 $-1 #
coedge $-1 $549 $240 $237 $384 forward $378 $-1 #
edge $-1 $390 -7.5924465945941009 $553 0.53181682690122134 $383 $554 forward 7 unknown #
coedge $-1 $555 $556 $238 $386 forward $545 $-1 #
edge $-1 $557 -39.316973005861016 $389 -31.559183925212366 $385 $558 forward 7 unknown #
edge $-1 $390 -10.279171218628283 $557 -1.086200982436365e-014 $239 $559 forward 7 unknown #
coedge $-1 $240 $549 $555 $560 forward $378 $-1 #
vertex $-1 $241 $561 #
vertex $-1 $241 $562 #
straight-curve $-1 -76.890067864949174 -11.122761478440541 9.5319677716350739 1 0 0 I I #
coedge $-1 $392 $392 $-1 $563 reversed $244 $-1 #
edge $-1 $564 0 $564 6.2831853071796004 $245 $565 forward 7 unknown #
vertex $-1 $248 $566 #
ellipse-curve $-1 -57.909295532547674 -8.8015433580133084 5.6530732313107457 -0.75470958851134928 0 0.65605901945558964 0.32802950972779482 0 0.37735479425567464 1 I I #
coedge $-1 $396 $396 $-1 $567 reversed $251 $-1 #
edge $-1 $568 0 $568 6.2831853071796004 $252 $569 forward 7 unknown #
vertex $-1 $255 $570 #
ellipse-curve $-1 -57.909295532547674 -5.3197161773724559 5.6530732313107457 -0.75470958851134928 0 0.65605901945558964 0.32802950972779482 0 0.37735479425567464 1 I I #
face $-1 $-1 $571 $54 $-1 $572 reversed single #
loop $-1 $-1 $262 $256 #
plane-surface $-1 0 0 9.5319677716350721 0 0 1 1 0 0 forward_v I I I I #
coedge $-1 $573 $574 $575 $576 reversed $257 $-1 #
coedge $-1 $577 $259 $261 $410 forward $161 $-1 #
coedge $-1 $259 $577 $573 $578 forward $161 $-1 #
coedge $-1 $575 $262 $259 $407 forward $401 $-1 #
edge $-1 $413 -0.53181682690122845 $579 7.5924465945940938 $406 $580 forward 7 unknown #
coedge $-1 $581 $582 $260 $409 forward $571 $-1 #
edge $-1 $583 -39.316973005861016 $412 -31.559183925212366 $408 $584 forward 7 unknown #
edge $-1 $413 -10.279171218628283 $583 -1.086200982436365e-014 $261 $585 forward 7 unknown #
coedge $-1 $262 $575 $581 $586 forward $401 $-1 #
vertex $-1 $263 $587 #
vertex $-1 $263 $588 #
straight-curve $-1 -76.890067864949174 2.9984980569452047 9.5319677716350739 1 0 0 I I #
coedge $-1 $415 $415 $-1 $589 reversed $266 $-1 #
edge $-1 $590 0 $590 6.2831853071796004 $267 $591 forward 7 unknown #
vertex $-1 $270 $592 #
ellipse-curve $-1 -57.909295532547674 5.3197161773724417 5.6530732313107457 -0.75470958851134928 0 0.65605901945558964 0.32802950972779482 0 0.37735479425567464 1 I I #
coedge $-1 $419 $419 $-1 $593 reversed $273 $-1 #
edge $-1 $594 0 $594 6.2831853071796004 $274 $595 forward 7 unknown #
vertex $-1 $277 $596 #
ellipse-curve $-1 -57.909295532547674 8.8015433580132907 5.6530732313107457 -0.75470958851134928 0 0.65605901945558964 0.32802950972779482 0 0.37735479425567464 1 I I #
face $-1 $-1 $597 $57 $-1 $598 reversed single #
loop $-1 $-1 $284 $278 #
plane-surface $-1 0 0 9.5319677716350721 0 0 1 1 0 0 forward_v I I I I #
coedge $-1 $599 $600 $601 $602 reversed $279 $-1 #
coedge $-1 $603 $281 $283 $433 forward $175 $-1 #
coedge $-1 $281 $603 $599 $604 forward $175 $-1 #
coedge $-1 $601 $284 $281 $430 forward $424 $-1 #
edge $-1 $436 6.5288129407916458 $605 14.653076362286967 $429 $606 forward 7 unknown #
coedge $-1 $607 $608 $282 $432 forward $597 $-1 #
edge $-1 $609 -39.316973005861016 $435 -31.559183925212366 $431 $610 forward 7 unknown #
edge $-1 $436 -10.279171218628283 $609 -1.086200982436365e-014 $283 $611 forward 7 unknown #
coedge $-1 $284 $601 $607 $612 forward $424 $-1 #
vertex $-1 $285 $613 #
vertex $-1 $285 $614 #
straight-curve $-1 -76.890067864949174 17.119757592330952 9.5319677716350739 1 0 0 I I #
coedge $-1 $438 $438 $-1 $615 reversed $288 $-1 #
edge $-1 $616 0 $616 6.2831853071796004 $289 $617 forward 7 unknown #
vertex $-1 $292 $618 #
ellipse-curve $-1 -57.909295532547674 19.440975712758188 5.6530732313107457 -0.75470958851134928 0 0.65605901945558964 0.32802950972779482 0 0.37735479425567464 1 I I #
coedge $-1 $442 $442 $-1 $619 reversed $295 $-1 #
edge $-1 $620 0 $620 6.2831853071796004 $296 $621 forward 7 unknown #
vertex $-1 $299 $622 #
ellipse-curve $-1 -57.909295532547674 22.922802893399037 5.6530732313107457 -0.75470958851134928 0 0.65605901945558964 0.32802950972779482 0 0.37735479425567464 1 I I #
face $-1 $-1 $315 $45 $-1 $623 reversed single #
loop $-1 $-1 $462 $300 #
plane-surface $-1 0 37.246912882137785 0 0 -1 0 0 0 -1 forward_v I I I I #
coedge $-1 $624 $460 $463 $625 forward $301 $-1 #
coedge $-1 $466 $303 $304 $454 reversed $189 $-1 #
coedge $-1 $460 $624 $303 $452 reversed $301 $-1 #
edge $-1 $467 -9.5319677716350721 $626 9.5319677716350721 $451 $627 forward 7 unknown #
coedge $-1 $305 $304 $624 $628 forward $121 $-1 #
edge $-1 $458 -61.281167027802361 $626 61.281167027802361 $450 $629 forward 7 unknown #
coedge $-1 $463 $462 $305 $456 reversed $447 $-1 #
edge $-1 $630 -61.281167027802361 $457 61.281167027802361 $455 $631 forward 7 unknown #
vertex $-1 $307 $632 #
vertex $-1 $469 $633 #
straight-curve $-1 61.281167027802361 0 -9.5319677716350721 0 -1 0 I I #
coedge $-1 $449 $451 $308 $461 reversed $301 $-1 #
edge $-1 $464 -37.246912882137785 $467 37.246912882137785 $460 $634 forward 7 unknown #
coedge $-1 $455 $309 $314 $470 forward $447 $-1 #
coedge $-1 $309 $455 $449 $625 reversed $447 $-1 #
vertex $-1 $310 $635 #
straight-curve $-1 0 37.246912882137785 9.5319677716350721 -1 0 0 I I #
coedge $-1 $311 $450 $313 $469 reversed $189 $-1 #
vertex $-1 $461 $636 #
straight-curve $-1 0 -37.246912882137785 9.5319677716350721 1 0 0 I I #
edge $-1 $316 -9.5319677716350721 $458 9.5319677716350721 $313 $637 forward 7 unknown #
edge $-1 $317 -9.5319677716350721 $457 9.5319677716350721 $314 $638 forward 7 unknown #
point $-1 61.281167027802361 -37.246912882137785 9.5319677716350721 #
point $-1 61.281167027802361 37.246912882137785 9.5319677716350721 #
face $-1 $-1 $332 $46 $-1 $639 reversed single #
loop $-1 $-1 $480 $319 #
plane-surface $-1 0 0 9.5319677716350721 0 0 1 1 0 0 forward_v I I I I #
coedge $-1 $640 $322 $327 $485 forward $197 $-1 #
coedge $-1 $322 $640 $641 $642 reversed $197 $-1 #
coedge $-1 $324 $323 $322 $479 reversed $125 $-1 #
edge $-1 $643 -5.5159838858175361 $490 -2.5159838858175361 $322 $644 forward 7 unknown #
coedge $-1 $641 $645 $324 $481 forward $474 $-1 #
edge $-1 $483 -61.281167027802361 $643 61.281167027802361 $480 $646 forward 7 unknown #
coedge $-1 $331 $325 $645 $647 reversed $332 $-1 #
vertex $-1 $326 $648 #
straight-curve $-1 61.281167027802361 -27.769849849942339 4.0159838858175361 0 0 1 I I #
edge $-1 $490 11.515659166922308 $488 20.992722199117754 $476 $649 forward 7 unknown #
coedge $-1 $650 $328 $331 $492 reversed $320 $-1 #
coedge $-1 $328 $650 $640 $651 forward $320 $-1 #
vertex $-1 $329 $652 #
straight-curve $-1 0 -37.246912882137785 6.5319677716350721 1 0 0 I I #
vertex $-1 $485 $653 #
straight-curve $-1 0 -27.769849849942339 6.5319677716350721 1 0 0 I I #
edge $-1 $654 -9.5319677716350721 $333 -6.5319677716350721 $331 $655 forward 7 unknown #
point $-1 61.281167027802361 -37.246912882137785 6.5319677716350721 #
point $-1 61.281167027802361 -27.769849849942339 6.5319677716350721 #
face $-1 $-1 $511 $47 $-1 $656 reversed single #
loop $-1 $-1 $342 $336 #
plane-surface $-1 -61.281167027802361 0 0 1 0 0 0 0 -1 forward_v I I I I #
coedge $-1 $657 $339 $514 $658 forward $205 $-1 #
coedge $-1 $339 $657 $502 $659 forward $205 $-1 #
edge $-1 $505 -61.281167027802361 $660 61.281167027802361 $339 $661 forward 7 unknown #
coedge $-1 $341 $340 $349 $516 reversed $129 $-1 #
coedge $-1 $662 $342 $499 $659 reversed $496 $-1 #
coedge $-1 $342 $662 $344 $507 forward $496 $-1 #
vertex $-1 $507 $663 #
vertex $-1 $343 $664 #
straight-curve $-1 -61.281167027802361 27.769849849942339 4.0159838858175361 0 0 1 I I #
edge $-1 $512 -20.992722199117754 $504 -11.515659166922308 $503 $665 forward 7 unknown #
straight-curve $-1 0 27.769849849942339 6.5319677716350721 -1 0 0 I I #
coedge $-1 $666 $346 $662 $667 reversed $511 $-1 #
coedge $-1 $346 $666 $348 $515 forward $511 $-1 #
loop $-1 $-1 $346 $495 #
vertex $-1 $347 $668 #
straight-curve $-1 0 37.246912882137785 6.5319677716350721 -1 0 0 I I #
coedge $-1 $349 $348 $498 $658 reversed $337 $-1 #
edge $-1 $669 -9.5319677716350721 $351 -6.5319677716350721 $348 $670 forward 7 unknown #
edge $-1 $660 -5.5159838858175361 $350 -2.5159838858175361 $349 $671 forward 7 unknown #
point $-1 61.281167027802361 27.769849849942339 6.5319677716350721 #
point $-1 61.281167027802361 37.246912882137785 6.5319677716350721 #
plane-surface $-1 0 0 9.5319677716350721 0 0 1 1 0 0 forward_v I I I I #
coedge $-1 $530 $529 $522 $672 forward $354 $-1 #
coedge $-1 $522 $356 $358 $526 reversed $213 $-1 #
coedge $-1 $356 $521 $520 $672 reversed $213 $-1 #
coedge $-1 $364 $359 $356 $524 forward $365 $-1 #
edge $-1 $527 -22.352643827656195 $673 -15.608900837146813 $523 $674 forward 7 unknown #
coedge $-1 $358 $357 $530 $675 reversed $133 $-1 #
edge $-1 $676 1.086200982436365e-014 $527 10.279171218628283 $521 $677 forward 7 unknown #
vertex $-1 $360 $678 #
straight-curve $-1 -54.537424037292979 -10.590944651539315 9.5319677716350721 0 1 0 I I #
coedge $-1 $520 $361 $364 $534 reversed $354 $-1 #
coedge $-1 $361 $520 $525 $675 forward $354 $-1 #
vertex $-1 $362 $679 #
straight-curve $-1 -61.281167027802361 -25.244021013826291 41.09115169684744 0 0 1 I I #
straight-curve $-1 -61.281167027802368 -25.244021013826291 1.7741786909864175 -0.65605901945558964 0 -0.75470958851134928 I I #
edge $-1 $673 17.11975759233097 $366 25.244021013826291 $529 $680 forward 7 unknown #
point $-1 -61.281167027802361 -25.244021013826291 9.5319677716350721 #
point $-1 -54.537424037292979 -25.244021013826291 9.5319677716350721 #
edge $-1 $681 1 $681 0 $369 $-1 forward 7 unknown #
vertex $-1 $370 $682 #
ellipse-curve $-1 -56.790728260253616 -22.922802893399059 4.680717560960975 -0.75470958851134928 0 0.65605901945558964 0.32802950972779482 0 0.37735479425567464 1 I I #
point $-1 -57.581266022819875 -22.922802893399059 6.0304280255664224 #
edge $-1 $683 1 $683 0 $373 $-1 forward 7 unknown #
vertex $-1 $374 $684 #
ellipse-curve $-1 -56.790728260253616 -19.440975712758203 4.680717560960975 -0.75470958851134928 0 0.65605901945558964 0.32802950972779482 0 0.37735479425567464 1 I I #
point $-1 -57.581266022819875 -19.440975712758203 6.0304280255664224 #
loop $-1 $-1 $385 $377 #
plane-surface $-1 -61.281167027802361 0 0 1 0 0 0 0 -1 forward_v I I I I #
coedge $-1 $548 $380 $382 $552 reversed $235 $-1 #
coedge $-1 $380 $547 $685 $686 reversed $235 $-1 #
coedge $-1 $388 $383 $380 $550 forward $378 $-1 #
edge $-1 $553 -22.352643827656195 $687 -15.608900837146813 $549 $688 forward 7 unknown #
coedge $-1 $382 $381 $556 $689 reversed $147 $-1 #
edge $-1 $690 1.086200982436365e-014 $553 10.279171218628283 $547 $691 forward 7 unknown #
vertex $-1 $384 $692 #
straight-curve $-1 -54.537424037292979 -3.5303148838464402 9.5319677716350721 0 1 0 I I #
coedge $-1 $685 $385 $388 $560 reversed $545 $-1 #
coedge $-1 $385 $685 $551 $689 forward $545 $-1 #
vertex $-1 $386 $693 #
straight-curve $-1 -61.281167027802361 -11.122761478440541 41.09115169684744 0 0 1 I I #
straight-curve $-1 -61.281167027802368 -11.122761478440541 1.7741786909864175 -0.65605901945558964 0 -0.75470958851134928 I I #
edge $-1 $687 2.9984980569452189 $389 11.122761478440541 $555 $694 forward 7 unknown #
point $-1 -61.281167027802361 -11.122761478440541 9.5319677716350721 #
point $-1 -54.537424037292979 -11.122761478440541 9.5319677716350721 #
edge $-1 $695 1 $695 0 $392 $-1 forward 7 unknown #
vertex $-1 $393 $696 #
ellipse-curve $-1 -56.790728260253616 -8.8015433580133084 4.680717560960975 -0.75470958851134928 0 0.65605901945558964 0.32802950972779482 0 0.37735479425567464 1 I I #
point $-1 -57.581266022819875 -8.8015433580133084 6.0304280255664224 #
edge $-1 $697 1 $697 0 $396 $-1 forward 7 unknown #
vertex $-1 $397 $698 #
ellipse-curve $-1 -56.790728260253616 -5.3197161773724559 4.680717560960975 -0.75470958851134928 0 0.65605901945558964 0.32802950972779482 0 0.37735479425567464 1 I I #
point $-1 -57.581266022819875 -5.3197161773724559 6.0304280255664224 #
loop $-1 $-1 $408 $400 #
plane-surface $-1 -61.281167027802361 0 0 1 0 0 0 0 -1 forward_v I I I I #
coedge $-1 $574 $403 $405 $578 reversed $257 $-1 #
coedge $-1 $403 $573 $699 $700 reversed $257 $-1 #
coedge $-1 $411 $406 $403 $576 forward $401 $-1 #
edge $-1 $579 -22.352643827656195 $701 -15.608900837146813 $575 $702 forward 7 unknown #
coedge $-1 $405 $404 $582 $703 reversed $161 $-1 #
edge $-1 $704 1.086200982436365e-014 $579 10.279171218628283 $573 $705 forward 7 unknown #
vertex $-1 $407 $706 #
straight-curve $-1 -54.537424037292979 3.5303148838464331 9.5319677716350721 0 1 0 I I #
coedge $-1 $699 $408 $411 $586 reversed $571 $-1 #
coedge $-1 $408 $699 $577 $703 forward $571 $-1 #
vertex $-1 $409 $707 #
straight-curve $-1 -61.281167027802361 2.9984980569452047 41.09115169684744 0 0 1 I I #
straight-curve $-1 -61.281167027802368 2.9984980569452047 1.7741786909864175 -0.65605901945558964 0 -0.75470958851134928 I I #
edge $-1 $701 -11.122761478440527 $412 -2.9984980569452047 $581 $708 forward 7 unknown #
point $-1 -61.281167027802361 2.9984980569452047 9.5319677716350721 #
point $-1 -54.537424037292979 2.9984980569452047 9.5319677716350721 #
edge $-1 $709 1 $709 0 $415 $-1 forward 7 unknown #
vertex $-1 $416 $710 #
ellipse-curve $-1 -56.790728260253616 5.3197161773724417 4.680717560960975 -0.75470958851134928 0 0.65605901945558964 0.32802950972779482 0 0.37735479425567464 1 I I #
point $-1 -57.581266022819875 5.3197161773724417 6.0304280255664224 #
edge $-1 $711 1 $711 0 $419 $-1 forward 7 unknown #
vertex $-1 $420 $712 #
ellipse-curve $-1 -56.790728260253616 8.8015433580132907 4.680717560960975 -0.75470958851134928 0 0.65605901945558964 0.32802950972779482 0 0.37735479425567464 1 I I #
point $-1 -57.581266022819875 8.8015433580132907 6.0304280255664224 #
loop $-1 $-1 $431 $423 #
plane-surface $-1 -61.281167027802361 0 0 1 0 0 0 0 -1 forward_v I I I I #
coedge $-1 $600 $426 $428 $604 reversed $279 $-1 #
coedge $-1 $426 $599 $713 $714 reversed $279 $-1 #
coedge $-1 $434 $429 $426 $602 forward $424 $-1 #
edge $-1 $605 -22.352643827656195 $715 -15.608900837146813 $601 $716 forward 7 unknown #
coedge $-1 $428 $427 $608 $717 reversed $175 $-1 #
edge $-1 $718 1.086200982436365e-014 $605 10.279171218628283 $599 $719 forward 7 unknown #
vertex $-1 $430 $720 #
straight-curve $-1 -54.537424037292979 10.590944651539306 9.5319677716350721 0 1 0 I I #
coedge $-1 $713 $431 $434 $612 reversed $597 $-1 #
coedge $-1 $431 $713 $603 $717 forward $597 $-1 #
vertex $-1 $432 $721 #
straight-curve $-1 -61.281167027802361 17.119757592330952 41.09115169684744 0 0 1 I I #
straight-curve $-1 -61.281167027802368 17.119757592330952 1.7741786909864175 -0.65605901945558964 0 -0.75470958851134928 I I #
edge $-1 $715 -25.244021013826274 $435 -17.119757592330952 $607 $722 forward 7 unknown #
point $-1 -61.281167027802361 17.119757592330952 9.5319677716350721 #
point $-1 -54.537424037292979 17.119757592330952 9.5319677716350721 #
edge $-1 $723 1 $723 0 $438 $-1 forward 7 unknown #
vertex $-1 $439 $724 #
ellipse-curve $-1 -56.790728260253616 19.440975712758188 4.680717560960975 -0.75470958851134928 0 0.65605901945558964 0.32802950972779482 0 0.37735479425567464 1 I I #
point $-1 -57.581266022819875 19.440975712758188 6.0304280255664224 #
edge $-1 $725 1 $725 0 $442 $-1 forward 7 unknown #
vertex $-1 $443 $726 #
ellipse-curve $-1 -56.790728260253616 22.922802893399037 4.680717560960975 -0.75470958851134928 0 0.65605901945558964 0.32802950972779482 0 0.37735479425567464 1 I I #
point $-1 -57.581266022819875 22.922802893399037 6.0304280255664224 #
plane-surface $-1 61.281167027802361 0 0 -1 0 0 0 0 1 forward_v I I I I #
coedge $-1 $451 $449 $453 $628 reversed $301 $-1 #
edge $-1 $464 -9.5319677716350721 $630 9.5319677716350721 $463 $727 forward 7 unknown #
vertex $-1 $628 $728 #
straight-curve $-1 -61.281167027802361 -37.246912882137785 0 0 0 -1 I I #
edge $-1 $626 -37.246912882137785 $630 37.246912882137785 $624 $729 forward 7 unknown #
straight-curve $-1 0 -37.246912882137785 -9.5319677716350721 -1 0 0 I I #
vertex $-1 $456 $730 #
straight-curve $-1 0 37.246912882137785 -9.5319677716350721 1 0 0 I I #
point $-1 61.281167027802361 37.246912882137785 -9.5319677716350721 #
point $-1 61.281167027802361 -37.246912882137785 -9.5319677716350721 #
straight-curve $-1 -61.281167027802361 0 9.5319677716350721 0 -1 0 I I #
point $-1 -61.281167027802361 37.246912882137785 9.5319677716350721 #
point $-1 -61.281167027802361 -37.246912882137785 9.5319677716350721 #
straight-curve $-1 61.281167027802361 -37.246912882137785 0 0 0 -1 I I #
straight-curve $-1 61.281167027802361 37.246912882137785 0 0 0 -1 I I #
plane-surface $-1 61.281167027802361 0 0 -1 0 0 0 0 1 forward_v I I I I #
coedge $-1 $477 $476 $487 $651 reversed $197 $-1 #
coedge $-1 $731 $480 $477 $642 forward $474 $-1 #
edge $-1 $643 27.769849849942339 $732 37.246912882137785 $477 $733 forward 7 unknown #
vertex $-1 $642 $734 #
straight-curve $-1 -61.281167027802361 -27.769849849942339 4.0159838858175361 0 0 -1 I I #
coedge $-1 $480 $731 $482 $647 forward $474 $-1 #
straight-curve $-1 0 -27.769849849942339 9.5319677716350721 -1 0 0 I I #
edge $-1 $654 -37.246912882137785 $483 -27.769849849942339 $482 $735 forward 7 unknown #
point $-1 61.281167027802361 -27.769849849942339 9.5319677716350721 #
straight-curve $-1 -61.281167027802361 -16.254190683020031 6.5319677716350721 0 -1 0 I I #
coedge $-1 $487 $486 $731 $736 reversed $320 $-1 #
edge $-1 $732 -9.5319677716350721 $488 -6.5319677716350721 $640 $737 forward 7 unknown #
point $-1 -61.281167027802361 -37.246912882137785 6.5319677716350721 #
point $-1 -61.281167027802361 -27.769849849942339 6.5319677716350721 #
vertex $-1 $647 $738 #
straight-curve $-1 61.281167027802361 -37.246912882137785 0 0 0 -1 I I #
plane-surface $-1 0 37.246912882137785 0 0 -1 0 0 0 -1 forward_v I I I I #
coedge $-1 $499 $498 $666 $739 forward $205 $-1 #
edge $-1 $660 27.769849849942339 $669 37.246912882137785 $514 $740 forward 7 unknown #
edge $-1 $741 -37.246912882137785 $505 -27.769849849942339 $502 $742 forward 7 unknown #
vertex $-1 $658 $743 #
straight-curve $-1 0 27.769849849942339 9.5319677716350721 1 0 0 I I #
coedge $-1 $503 $502 $509 $667 forward $496 $-1 #
point $-1 -61.281167027802361 27.769849849942339 6.5319677716350721 #
point $-1 -61.281167027802361 27.769849849942339 9.5319677716350721 #
straight-curve $-1 -61.281167027802361 16.254190683020031 6.5319677716350721 0 -1 0 I I #
coedge $-1 $510 $509 $657 $739 reversed $511 $-1 #
edge $-1 $741 -9.5319677716350721 $512 -6.5319677716350721 $509 $744 forward 7 unknown #
point $-1 -61.281167027802361 37.246912882137785 6.5319677716350721 #
vertex $-1 $658 $745 #
straight-curve $-1 61.281167027802361 37.246912882137785 0 0 0 -1 I I #
straight-curve $-1 61.281167027802361 27.769849849942339 4.0159838858175361 0 0 -1 I I #
edge $-1 $673 31.559183925212366 $676 39.316973005861016 $520 $746 forward 7 unknown #
vertex $-1 $534 $747 #
straight-curve $-1 -76.890067864949174 -17.11975759233097 9.5319677716350739 -1 0 0 I I #
edge $-1 $676 6.5288129407916546 $531 14.653076362286976 $530 $748 forward 7 unknown #
vertex $-1 $675 $749 #
straight-curve $-1 -61.281167027802368 -17.11975759233097 1.7741786909864175 0.65605901945558964 0 0.75470958851134928 I I #
point $-1 -54.537424037292979 -17.11975759233097 9.5319677716350721 #
point $-1 -61.281167027802361 -25.244021013826291 1.7741786909864257 #
straight-curve $-1 -61.281167027802361 0 9.5319677716350721 0 -1 0 I I #
vertex $-1 $537 $750 #
point $-1 -56.462698750525817 -22.922802893399059 5.05807235521665 #
vertex $-1 $541 $751 #
point $-1 -56.462698750525817 -19.440975712758203 5.05807235521665 #
coedge $-1 $556 $555 $548 $686 forward $545 $-1 #
edge $-1 $687 31.559183925212366 $690 39.316973005861016 $685 $752 forward 7 unknown #
vertex $-1 $560 $753 #
straight-curve $-1 -76.890067864949174 -2.9984980569452189 9.5319677716350739 -1 0 0 I I #
edge $-1 $690 -0.53181682690122134 $557 7.5924465945941009 $556 $754 forward 7 unknown #
vertex $-1 $689 $755 #
straight-curve $-1 -61.281167027802368 -2.9984980569452189 1.7741786909864175 0.65605901945558964 0 0.75470958851134928 I I #
point $-1 -54.537424037292979 -2.9984980569452189 9.5319677716350721 #
point $-1 -61.281167027802361 -11.122761478440541 1.7741786909864257 #
straight-curve $-1 -61.281167027802361 0 9.5319677716350721 0 -1 0 I I #
vertex $-1 $563 $756 #
point $-1 -56.462698750525817 -8.8015433580133084 5.05807235521665 #
vertex $-1 $567 $757 #
point $-1 -56.462698750525817 -5.3197161773724559 5.05807235521665 #
coedge $-1 $582 $581 $574 $700 forward $571 $-1 #
edge $-1 $701 31.559183925212366 $704 39.316973005861016 $699 $758 forward 7 unknown #
vertex $-1 $586 $759 #
straight-curve $-1 -76.890067864949174 11.122761478440527 9.5319677716350739 -1 0 0 I I #
edge $-1 $704 -7.5924465945940938 $583 0.53181682690122845 $582 $760 forward 7 unknown #
vertex $-1 $703 $761 #
straight-curve $-1 -61.281167027802368 11.122761478440527 1.7741786909864175 0.65605901945558964 0 0.75470958851134928 I I #
point $-1 -54.537424037292979 11.122761478440527 9.5319677716350721 #
point $-1 -61.281167027802361 2.9984980569452047 1.7741786909864257 #
straight-curve $-1 -61.281167027802361 0 9.5319677716350721 0 -1 0 I I #
vertex $-1 $589 $762 #
point $-1 -56.462698750525817 5.3197161773724417 5.05807235521665 #
vertex $-1 $593 $763 #
point $-1 -56.462698750525817 8.8015433580132907 5.05807235521665 #
coedge $-1 $608 $607 $600 $714 forward $597 $-1 #
edge $-1 $715 31.559183925212366 $718 39.316973005861016 $713 $764 forward 7 unknown #
vertex $-1 $612 $765 #
straight-curve $-1 -76.890067864949174 25.244021013826274 9.5319677716350739 -1 0 0 I I #
edge $-1 $718 -14.653076362286967 $609 -6.5288129407916458 $608 $766 forward 7 unknown #
vertex $-1 $717 $767 #
straight-curve $-1 -61.281167027802368 25.244021013826274 1.7741786909864175 0.65605901945558964 0 0.75470958851134928 I I #
point $-1 -54.537424037292979 25.244021013826274 9.5319677716350721 #
point $-1 -61.281167027802361 17.119757592330952 1.7741786909864257 #
straight-curve $-1 -61.281167027802361 0 9.5319677716350721 0 -1 0 I I #
vertex $-1 $615 $768 #
point $-1 -56.462698750525817 19.440975712758188 5.05807235521665 #
vertex $-1 $619 $769 #
point $-1 -56.462698750525817 22.922802893399037 5.05807235521665 #
straight-curve $-1 -61.281167027802361 37.246912882137785 0 0 0 -1 I I #
point $-1 -61.281167027802361 -37.246912882137785 -9.5319677716350721 #
straight-curve $-1 -61.281167027802361 0 -9.5319677716350721 0 1 0 I I #
point $-1 -61.281167027802361 37.246912882137785 -9.5319677716350721 #
coedge $-1 $645 $641 $650 $736 forward $474 $-1 #
vertex $-1 $642 $770 #
straight-curve $-1 -61.281167027802361 0 9.5319677716350721 0 -1 0 I I #
point $-1 -61.281167027802361 -27.769849849942339 9.5319677716350721 #
straight-curve $-1 61.281167027802361 0 9.5319677716350721 0 1 0 I I #
edge $-1 $732 -61.281167027802361 $654 61.281167027802361 $650 $771 forward 7 unknown #
straight-curve $-1 -61.281167027802361 -37.246912882137785 0 0 0 -1 I I #
point $-1 61.281167027802361 -37.246912882137785 9.5319677716350721 #
edge $-1 $669 -61.281167027802361 $741 61.281167027802361 $666 $772 forward 7 unknown #
straight-curve $-1 61.281167027802361 0 9.5319677716350721 0 1 0 I I #
vertex $-1 $739 $773 #
straight-curve $-1 -61.281167027802361 0 9.5319677716350721 0 -1 0 I I #
point $-1 61.281167027802361 27.769849849942339 9.5319677716350721 #
straight-curve $-1 -61.281167027802361 37.246912882137785 0 0 0 -1 I I #
point $-1 61.281167027802361 37.246912882137785 9.5319677716350721 #
straight-curve $-1 -61.281167027802361 -17.11975759233097 41.09115169684744 0 0 -1 I I #
point $-1 -61.281167027802361 -17.11975759233097 9.5319677716350721 #
straight-curve $-1 -61.281167027802361 -10.590944651539315 1.7741786909864299 0 -1 0 I I #
point $-1 -61.281167027802361 -17.11975759233097 1.7741786909864257 #
point $-1 -56.413373465997935 -22.922802893399059 4.35268805123318 #
point $-1 -56.413373465997935 -19.440975712758203 4.35268805123318 #
straight-curve $-1 -61.281167027802361 -2.9984980569452189 41.09115169684744 0 0 -1 I I #
point $-1 -61.281167027802361 -2.9984980569452189 9.5319677716350721 #
straight-curve $-1 -61.281167027802361 -3.5303148838464402 1.7741786909864299 0 -1 0 I I #
point $-1 -61.281167027802361 -2.9984980569452189 1.7741786909864257 #
point $-1 -56.413373465997935 -8.8015433580133084 4.35268805123318 #
point $-1 -56.413373465997935 -5.3197161773724559 4.35268805123318 #
straight-curve $-1 -61.281167027802361 11.122761478440527 41.09115169684744 0 0 -1 I I #
point $-1 -61.281167027802361 11.122761478440527 9.5319677716350721 #
straight-curve $-1 -61.281167027802361 3.5303148838464331 1.7741786909864299 0 -1 0 I I #
point $-1 -61.281167027802361 11.122761478440527 1.7741786909864257 #
point $-1 -56.413373465997935 5.3197161773724417 4.35268805123318 #
point $-1 -56.413373465997935 8.8015433580132907 4.35268805123318 #
straight-curve $-1 -61.281167027802361 25.244021013826274 41.09115169684744 0 0 -1 I I #
point $-1 -61.281167027802361 25.244021013826274 9.5319677716350721 #
straight-curve $-1 -61.281167027802361 10.590944651539306 1.7741786909864299 0 -1 0 I I #
point $-1 -61.281167027802361 25.244021013826274 1.7741786909864257 #
point $-1 -56.413373465997935 19.440975712758188 4.35268805123318 #
point $-1 -56.413373465997935 22.922802893399037 4.35268805123318 #
point $-1 -61.281167027802361 -37.246912882137785 9.5319677716350721 #
straight-curve $-1 0 -37.246912882137785 9.5319677716350721 1 0 0 I I #
straight-curve $-1 0 37.246912882137785 9.5319677716350721 -1 0 0 I I #
point $-1 -61.281167027802361 37.246912882137785 9.5319677716350721 #
End-of-ACIS-data 