500 0 15 0           
7 Unknown 11 ACIS 5.0 NT 24 Fri Mar 26 15:11:24 1999 
-1 9.9999999999999995e-007 1e-010 
body $-1 $15 $-1 $16 #
body $-1 $17 $-1 $18 #
body $-1 $19 $-1 $20 #
body $-1 $21 $-1 $22 #
body $-1 $23 $-1 $24 #
body $-1 $25 $-1 $26 #
body $-1 $27 $-1 $28 #
body $-1 $29 $-1 $30 #
body $-1 $31 $-1 $32 #
body $-1 $33 $-1 $34 #
body $-1 $35 $-1 $36 #
body $-1 $37 $-1 $38 #
body $-1 $39 $-1 $40 #
body $-1 $41 $-1 $42 #
body $-1 $43 $-1 $44 #
lump $-1 $-1 $45 $0 #
transform $-1 1 0 0 0 1 0 0 0 1 41.425824762718591 25.363472285825992 8.0246320135245242 1 rotate no_reflect no_shear #
lump $-1 $-1 $46 $1 #
transform $-1 1 0 0 0 1 0 0 0 1 41.425824762718591 25.363472285825992 8.0246320135245242 1 rotate no_reflect no_shear #
lump $-1 $-1 $47 $2 #
transform $-1 1 0 0 0 1 0 0 0 1 41.425824762718591 25.363472285825992 8.0246320135245242 1 rotate no_reflect no_shear #
lump $-1 $-1 $48 $3 #
transform $-1 1 0 0 0 1 0 0 0 1 41.425824762718591 25.363472285825992 8.0246320135245242 1 rotate no_reflect no_shear #
lump $-1 $-1 $49 $4 #
transform $-1 1 0 0 0 1 0 0 0 1 41.425824762718591 25.363472285825992 8.0246320135245242 1 rotate no_reflect no_shear #
lump $-1 $-1 $50 $5 #
transform $-1 1 0 0 0 1 0 0 0 1 41.425824762718591 25.363472285825992 8.0246320135245242 1 rotate no_reflect no_shear #
lump $-1 $-1 $51 $6 #
transform $-1 1 0 0 0 1 0 0 0 1 41.425824762718591 25.363472285825992 8.0246320135245242 1 rotate no_reflect no_shear #
lump $-1 $-1 $52 $7 #
transform $-1 1 0 0 0 1 0 0 0 1 41.425824762718591 25.363472285825992 8.0246320135245242 1 rotate no_reflect no_shear #
lump $-1 $-1 $53 $8 #
transform $-1 1 0 0 0 1 0 0 0 1 41.425824762718591 25.363472285825992 8.0246320135245242 1 rotate no_reflect no_shear #
lump $-1 $-1 $54 $9 #
transform $-1 1 0 0 0 1 0 0 0 1 41.425824762718591 25.363472285825992 8.0246320135245242 1 rotate no_reflect no_shear #
lump $-1 $-1 $55 $10 #
transform $-1 1 0 0 0 1 0 0 0 1 41.425824762718591 25.363472285825992 8.0246320135245242 1 rotate no_reflect no_shear #
lump $-1 $-1 $56 $11 #
transform $-1 1 0 0 0 1 0 0 0 1 41.425824762718591 25.363472285825992 8.0246320135245242 1 rotate no_reflect no_shear #
lump $-1 $-1 $57 $12 #
transform $-1 1 0 0 0 1 0 0 0 1 41.425824762718591 25.363472285825992 8.0246320135245242 1 rotate no_reflect no_shear #
lump $-1 $-1 $58 $13 #
transform $-1 1 0 0 0 1 0 0 0 1 41.425824762718591 25.363472285825992 8.0246320135245242 1 rotate no_reflect no_shear #
lump $-1 $-1 $59 $14 #
transform $-1 1 0 0 0 1 0 0 0 1 41.425824762718591 25.363472285825992 8.0246320135245242 1 rotate no_reflect no_shear #
shell $-1 $-1 $-1 $60 $-1 $15 #
shell $-1 $-1 $-1 $61 $-1 $17 #
shell $-1 $-1 $-1 $62 $-1 $19 #
shell $-1 $-1 $-1 $63 $-1 $21 #
shell $-1 $-1 $-1 $64 $-1 $23 #
shell $-1 $-1 $-1 $65 $-1 $25 #
shell $-1 $-1 $-1 $66 $-1 $27 #
shell $-1 $-1 $-1 $67 $-1 $29 #
shell $-1 $-1 $-1 $68 $-1 $31 #
shell $-1 $-1 $-1 $69 $-1 $33 #
shell $-1 $-1 $-1 $70 $-1 $35 #
shell $-1 $-1 $-1 $71 $-1 $37 #
shell $-1 $-1 $-1 $72 $-1 $39 #
shell $-1 $-1 $-1 $73 $-1 $41 #
shell $-1 $-1 $-1 $74 $-1 $43 #
face $-1 $75 $76 $45 $-1 $77 forward single #
face $-1 $78 $79 $46 $-1 $80 reversed single #
face $-1 $81 $82 $47 $-1 $83 forward single #
face $-1 $84 $85 $48 $-1 $86 reversed single #
face $-1 $87 $88 $49 $-1 $89 forward single #
face $-1 $90 $91 $50 $-1 $92 forward single #
face $-1 $93 $94 $51 $-1 $95 forward single #
face $-1 $96 $97 $52 $-1 $98 reversed single #
face $-1 $99 $100 $53 $-1 $101 forward single #
face $-1 $102 $103 $54 $-1 $104 forward single #
face $-1 $105 $106 $55 $-1 $107 forward single #
face $-1 $108 $109 $56 $-1 $110 reversed single #
face $-1 $111 $112 $57 $-1 $113 forward single #
face $-1 $114 $115 $58 $-1 $116 forward single #
face $-1 $117 $118 $59 $-1 $119 forward single #
face $-1 $120 $121 $45 $-1 $122 reversed single #
loop $-1 $-1 $123 $60 #
plane-surface $-1 0 0 8.0246320135245242 0 0 1 1 0 0 forward_v I I I I #
face $-1 $124 $125 $46 $-1 $126 reversed single #
loop $-1 $-1 $127 $61 #
plane-surface $-1 -39.925824762718591 -15.706171619329766 0 0 -1 0 0 0 -1 forward_v I I I I #
face $-1 $128 $129 $47 $-1 $130 reversed single #
loop $-1 $-1 $131 $62 #
plane-surface $-1 0 25.363472285825992 0 0 -1 0 0 0 -1 forward_v I I I I #
face $-1 $132 $133 $48 $-1 $134 reversed single #
loop $-1 $-1 $135 $63 #
plane-surface $-1 41.42582612218871 5.5026515747544149 121.63117155369571 0 -1 0 -0.70710678939079041 0 -0.70710677298230451 forward_v I I I I #
face $-1 $136 $137 $49 $-1 $138 forward single #
loop $-1 $139 $140 $64 #
cone-surface $-1 39.290577967525337 -1.024002641832098 5.8893851851911281 -0.70710678939079041 0 -0.70710677298230451 0.17677669324557613 0 -0.1767766973476976 1 I I 0 1 0.25 forward I I I I #
face $-1 $141 $142 $50 $-1 $143 forward single #
loop $-1 $144 $145 $65 #
cone-surface $-1 39.290577967525337 1.4234926893878459 5.8893851851911281 -0.70710678939079041 0 -0.70710677298230451 0.17677669324557613 0 -0.1767766973476976 1 I I 0 1 0.25 forward I I I I #
face $-1 $146 $147 $51 $-1 $148 forward single #
loop $-1 $149 $150 $66 #
cone-surface $-1 39.290577967525337 3.8709880206077898 5.8893851851911281 -0.70710678939079041 0 -0.70710677298230451 0.17677669324557613 0 -0.1767766973476976 1 I I 0 1 0.25 forward I I I I #
face $-1 $151 $152 $52 $-1 $153 reversed single #
loop $-1 $-1 $154 $67 #
plane-surface $-1 -41.425824762718591 -12.641551896086192 4.8949027528829774 -0.69465837861970381 0 0.71933979245794832 0.71933979245794832 0 0.69465837861970381 forward_v I I I I #
face $-1 $155 $156 $53 $-1 $157 forward single #
loop $-1 $158 $159 $68 #
cone-surface $-1 -39.321709945201739 -14.480323730032337 5.9589330623874552 0.69465837861970381 0 -0.71933979245794832 0.35966989622897416 0 0.3473291893098519 1 I I 0 1 0.5 forward I I I I #
face $-1 $160 $161 $54 $-1 $162 forward single #
loop $-1 $163 $164 $69 #
cone-surface $-1 -39.321709945201739 -12.641551896086192 5.9589330623874552 0.69465837861970381 0 -0.71933979245794832 0.35966989622897416 0 0.3473291893098519 1 I I 0 1 0.5 forward I I I I #
face $-1 $165 $166 $55 $-1 $167 forward single #
loop $-1 $168 $169 $70 #
cone-surface $-1 -39.321709945201739 -10.802780062140046 5.9589330623874552 0.69465837861970381 0 -0.71933979245794832 0.35966989622897416 0 0.3473291893098519 1 I I 0 1 0.5 forward I I I I #
face $-1 $170 $171 $56 $-1 $172 reversed single #
loop $-1 $-1 $173 $71 #
plane-surface $-1 -98.979417288026738 0.58656932648314264 64.493391127309636 0 1 0 -0.69465837861970381 0 0.71933979245794832 forward_v I I I I #
face $-1 $174 $175 $57 $-1 $176 forward single #
loop $-1 $177 $178 $72 #
cone-surface $-1 -39.321709945201739 1.8124172157805702 5.9589330623874552 0.69465837861970381 0 -0.71933979245794832 0.35966989622897416 0 0.3473291893098519 1 I I 0 1 0.5 forward I I I I #
face $-1 $179 $180 $58 $-1 $181 forward single #
loop $-1 $182 $183 $73 #
cone-surface $-1 -39.321709945201739 3.6511890497267174 5.9589330623874552 0.69465837861970381 0 -0.71933979245794832 0.35966989622897416 0 0.3473291893098519 1 I I 0 1 0.5 forward I I I I #
face $-1 $184 $185 $59 $-1 $186 forward single #
loop $-1 $187 $188 $74 #
cone-surface $-1 -39.321709945201739 5.4899608836728646 5.9589330623874552 0.69465837861970381 0 -0.71933979245794832 0.35966989622897416 0 0.3473291893098519 1 I I 0 1 0.5 forward I I I I #
face $-1 $189 $190 $45 $-1 $191 reversed single #
loop $-1 $-1 $192 $75 #
plane-surface $-1 0 0 -8.0246320135245242 0 0 1 1 0 0 forward_v I I I I #
coedge $-1 $193 $194 $195 $196 forward $76 $-1 #
face $-1 $197 $198 $46 $-1 $199 forward single #
loop $-1 $-1 $200 $78 #
plane-surface $-1 -38.425824762718591 -20.534821952577879 0 -1 0 0 0 0 1 forward_v I I I I #
coedge $-1 $201 $202 $203 $204 forward $79 $-1 #
face $-1 $205 $206 $47 $-1 $207 reversed single #
loop $-1 $-1 $208 $81 #
plane-surface $-1 -41.425824762718591 0 0 1 0 0 0 0 -1 forward_v I I I I #
coedge $-1 $209 $210 $211 $212 forward $82 $-1 #
face $-1 $213 $214 $48 $-1 $215 reversed single #
loop $-1 $-1 $216 $84 #
plane-surface $-1 -17.159137769474178 1.4234926893878423 63.046209021502939 0.70710678939079041 0 0.70710677298230451 0.70710677298230451 0 -0.70710678939079041 forward_v I I I I #
coedge $-1 $217 $218 $219 $220 reversed $85 $-1 #
face $-1 $-1 $221 $49 $-1 $222 forward single #
loop $-1 $223 $224 $87 #
cone-surface $-1 38.848636224156095 -1.024002641832098 5.4474434520771879 -0.70710678939079041 0 -0.70710677298230451 0.088388346622788064 0 -0.088388348673848802 1 I I -0.70710678118654746 0.70710678118654746 0.125 forward I I I I #
loop $-1 $-1 $225 $64 #
coedge $-1 $140 $140 $226 $227 reversed $88 $-1 #
face $-1 $-1 $228 $50 $-1 $229 forward single #
loop $-1 $230 $231 $90 #
cone-surface $-1 38.848636224156095 1.4234926893878459 5.4474434520771879 -0.70710678939079041 0 -0.70710677298230451 0.088388346622788064 0 -0.088388348673848802 1 I I -0.70710678118654746 0.70710678118654746 0.125 forward I I I I #
loop $-1 $-1 $232 $65 #
coedge $-1 $145 $145 $233 $234 reversed $91 $-1 #
face $-1 $-1 $235 $51 $-1 $236 forward single #
loop $-1 $237 $238 $93 #
cone-surface $-1 38.848636224156095 3.8709880206077898 5.4474434520771879 -0.70710678939079041 0 -0.70710677298230451 0.088388346622788064 0 -0.088388348673848802 1 I I -0.70710678118654746 0.70710678118654746 0.125 forward I I I I #
loop $-1 $-1 $239 $66 #
coedge $-1 $150 $150 $240 $241 reversed $94 $-1 #
face $-1 $242 $243 $52 $-1 $244 forward single #
loop $-1 $-1 $245 $96 #
plane-surface $-1 -98.979417288026738 -9.5769321728426178 64.493391127309636 0 -1 0 0.69465837861970381 0 -0.71933979245794832 forward_v I I I I #
coedge $-1 $246 $247 $248 $249 reversed $97 $-1 #
face $-1 $-1 $250 $53 $-1 $251 forward single #
loop $-1 $252 $253 $99 #
cone-surface $-1 -38.664395257915956 -14.480323730032337 5.2782637934566736 0.69465837861970381 0 -0.71933979245794832 0.17983494811448708 0 0.17366459465492595 1 I I -0.70710678118654746 0.70710678118654746 0.25 forward I I I I #
loop $-1 $-1 $254 $68 #
coedge $-1 $159 $159 $255 $256 reversed $100 $-1 #
face $-1 $-1 $257 $54 $-1 $258 forward single #
loop $-1 $259 $260 $102 #
cone-surface $-1 -38.664395257915956 -12.641551896086192 5.2782637934566736 0.69465837861970381 0 -0.71933979245794832 0.17983494811448708 0 0.17366459465492595 1 I I -0.70710678118654746 0.70710678118654746 0.25 forward I I I I #
loop $-1 $-1 $261 $69 #
coedge $-1 $164 $164 $262 $263 reversed $103 $-1 #
face $-1 $-1 $264 $55 $-1 $265 forward single #
loop $-1 $266 $267 $105 #
cone-surface $-1 -38.664395257915956 -10.802780062140046 5.2782637934566736 0.69465837861970381 0 -0.71933979245794832 0.17983494811448708 0 0.17366459465492595 1 I I -0.70710678118654746 0.70710678118654746 0.25 forward I I I I #
loop $-1 $-1 $268 $70 #
coedge $-1 $169 $169 $269 $270 reversed $106 $-1 #
face $-1 $271 $272 $56 $-1 $273 reversed single #
loop $-1 $-1 $274 $108 #
plane-surface $-1 -41.425824762718591 3.6511890497267174 4.8949027528829774 -0.69465837861970381 0 0.71933979245794832 0.71933979245794832 0 0.69465837861970381 forward_v I I I I #
coedge $-1 $275 $276 $277 $278 reversed $109 $-1 #
face $-1 $-1 $279 $57 $-1 $280 forward single #
loop $-1 $281 $282 $111 #
cone-surface $-1 -38.664395257915956 1.8124172157805702 5.2782637934566736 0.69465837861970381 0 -0.71933979245794832 0.17983494811448708 0 0.17366459465492595 1 I I -0.70710678118654746 0.70710678118654746 0.25 forward I I I I #
loop $-1 $-1 $283 $72 #
coedge $-1 $178 $178 $284 $285 reversed $112 $-1 #
face $-1 $-1 $286 $58 $-1 $287 forward single #
loop $-1 $288 $289 $114 #
cone-surface $-1 -38.664395257915956 3.6511890497267174 5.2782637934566736 0.69465837861970381 0 -0.71933979245794832 0.17983494811448708 0 0.17366459465492595 1 I I -0.70710678118654746 0.70710678118654746 0.25 forward I I I I #
loop $-1 $-1 $290 $73 #
coedge $-1 $183 $183 $291 $292 reversed $115 $-1 #
face $-1 $-1 $293 $59 $-1 $294 forward single #
loop $-1 $295 $296 $117 #
cone-surface $-1 -38.664395257915956 5.4899608836728646 5.2782637934566736 0.69465837861970381 0 -0.71933979245794832 0.17983494811448708 0 0.17366459465492595 1 I I -0.70710678118654746 0.70710678118654746 0.25 forward I I I I #
loop $-1 $-1 $297 $74 #
coedge $-1 $188 $188 $298 $299 reversed $118 $-1 #
face $-1 $300 $301 $45 $-1 $302 reversed single #
loop $-1 $-1 $303 $120 #
plane-surface $-1 0 -25.363472285825992 0 0 1 0 0 0 1 forward_v I I I I #
coedge $-1 $304 $305 $306 $307 forward $121 $-1 #
coedge $-1 $308 $123 $309 $310 forward $76 $-1 #
coedge $-1 $123 $308 $311 $312 forward $76 $-1 #
coedge $-1 $313 $314 $123 $196 reversed $315 $-1 #
edge $-1 $316 -25.363472285825992 $317 25.363472285825992 $195 $318 forward 7 unknown #
face $-1 $319 $320 $46 $-1 $321 reversed single #
loop $-1 $-1 $322 $124 #
plane-surface $-1 0 0 8.0246320135245242 0 0 1 1 0 0 forward_v I I I I #
coedge $-1 $323 $324 $325 $326 reversed $125 $-1 #
coedge $-1 $327 $127 $328 $329 reversed $79 $-1 #
coedge $-1 $127 $327 $330 $331 reversed $79 $-1 #
coedge $-1 $324 $323 $127 $204 reversed $125 $-1 #
edge $-1 $332 -8.0246320135245242 $333 8.0246320135245242 $203 $334 forward 7 unknown #
face $-1 $335 $336 $47 $-1 $337 reversed single #
loop $-1 $-1 $338 $128 #
plane-surface $-1 0 29.605553292590962 5.0246320135245242 0 0 1 1 0 0 forward_v I I I I #
coedge $-1 $339 $340 $210 $341 forward $129 $-1 #
coedge $-1 $342 $131 $343 $344 reversed $82 $-1 #
coedge $-1 $131 $342 $208 $341 reversed $82 $-1 #
coedge $-1 $345 $338 $131 $212 reversed $206 $-1 #
edge $-1 $346 -41.425824762718591 $347 41.425824762718591 $211 $348 forward 7 unknown #
face $-1 $349 $350 $48 $-1 $351 reversed single #
loop $-1 $-1 $352 $132 #
plane-surface $-1 41.42582612218871 -2.6556661959787302 121.63117155369571 0 1 0 0.70710678939079041 0 0.70710677298230451 forward_v I I I I #
coedge $-1 $353 $354 $355 $356 reversed $133 $-1 #
coedge $-1 $218 $135 $357 $358 reversed $85 $-1 #
coedge $-1 $135 $217 $353 $359 reversed $85 $-1 #
coedge $-1 $355 $360 $135 $220 forward $361 $-1 #
edge $-1 $362 -20.712911701624236 $363 -17.149524900628514 $219 $364 forward 7 unknown #
loop $-1 $-1 $226 $136 #
plane-surface $-1 -17.159137769474178 1.4234926893878423 63.046209021502939 0.70710678939079041 0 0.70710677298230451 0.70710677298230451 0 -0.70710678939079041 forward_v I I I I #
loop $-1 $-1 $365 $87 #
coedge $-1 $224 $224 $225 $366 reversed $137 $-1 #
coedge $-1 $225 $225 $224 $366 forward $139 $-1 #
coedge $-1 $226 $226 $140 $227 forward $221 $-1 #
edge $-1 $367 0 $367 6.2831853071796004 $226 $368 forward 7 unknown #
loop $-1 $-1 $233 $141 #
plane-surface $-1 -17.159137769474178 1.4234926893878423 63.046209021502939 0.70710678939079041 0 0.70710677298230451 0.70710677298230451 0 -0.70710678939079041 forward_v I I I I #
loop $-1 $-1 $369 $90 #
coedge $-1 $231 $231 $232 $370 reversed $142 $-1 #
coedge $-1 $232 $232 $231 $370 forward $144 $-1 #
coedge $-1 $233 $233 $145 $234 forward $228 $-1 #
edge $-1 $371 0 $371 6.2831853071796004 $233 $372 forward 7 unknown #
loop $-1 $-1 $240 $146 #
plane-surface $-1 -17.159137769474178 1.4234926893878423 63.046209021502939 0.70710678939079041 0 0.70710677298230451 0.70710677298230451 0 -0.70710678939079041 forward_v I I I I #
loop $-1 $-1 $373 $93 #
coedge $-1 $238 $238 $239 $374 reversed $147 $-1 #
coedge $-1 $239 $239 $238 $374 forward $149 $-1 #
coedge $-1 $240 $240 $150 $241 forward $235 $-1 #
edge $-1 $375 0 $375 6.2831853071796004 $240 $376 forward 7 unknown #
face $-1 $377 $378 $52 $-1 $379 forward single #
loop $-1 $-1 $380 $151 #
plane-surface $-1 0 0 8.0246320135245242 0 0 1 1 0 0 forward_v I I I I #
coedge $-1 $381 $382 $383 $384 reversed $152 $-1 #
coedge $-1 $385 $154 $386 $387 reversed $97 $-1 #
coedge $-1 $154 $385 $381 $388 forward $97 $-1 #
coedge $-1 $383 $380 $154 $249 forward $243 $-1 #
edge $-1 $389 -9.3853956712866697 $390 -3.2561562247995219 $248 $391 forward 7 unknown #
loop $-1 $-1 $255 $155 #
plane-surface $-1 -41.425824762718591 -12.641551896086192 4.8949027528829774 -0.69465837861970381 0 0.71933979245794832 0.71933979245794832 0 0.69465837861970381 forward_v I I I I #
loop $-1 $-1 $392 $99 #
coedge $-1 $253 $253 $254 $393 reversed $156 $-1 #
coedge $-1 $254 $254 $253 $393 forward $158 $-1 #
coedge $-1 $255 $255 $159 $256 forward $250 $-1 #
edge $-1 $394 0 $394 6.2831853071796004 $255 $395 forward 7 unknown #
loop $-1 $-1 $262 $160 #
plane-surface $-1 -41.425824762718591 -12.641551896086192 4.8949027528829774 -0.69465837861970381 0 0.71933979245794832 0.71933979245794832 0 0.69465837861970381 forward_v I I I I #
loop $-1 $-1 $396 $102 #
coedge $-1 $260 $260 $261 $397 reversed $161 $-1 #
coedge $-1 $261 $261 $260 $397 forward $163 $-1 #
coedge $-1 $262 $262 $164 $263 forward $257 $-1 #
edge $-1 $398 0 $398 6.2831853071796004 $262 $399 forward 7 unknown #
loop $-1 $-1 $269 $165 #
plane-surface $-1 -41.425824762718591 -12.641551896086192 4.8949027528829774 -0.69465837861970381 0 0.71933979245794832 0.71933979245794832 0 0.69465837861970381 forward_v I I I I #
loop $-1 $-1 $400 $105 #
coedge $-1 $267 $267 $268 $401 reversed $166 $-1 #
coedge $-1 $268 $268 $267 $401 forward $168 $-1 #
coedge $-1 $269 $269 $169 $270 forward $264 $-1 #
edge $-1 $402 0 $402 6.2831853071796004 $269 $403 forward 7 unknown #
face $-1 $404 $405 $56 $-1 $406 forward single #
loop $-1 $-1 $407 $170 #
plane-surface $-1 -98.979417288026738 6.7158087729702922 64.493391127309636 0 -1 0 0.69465837861970381 0 -0.71933979245794832 forward_v I I I I #
coedge $-1 $408 $409 $410 $411 reversed $171 $-1 #
coedge $-1 $276 $173 $412 $413 reversed $109 $-1 #
coedge $-1 $173 $275 $408 $414 reversed $109 $-1 #
coedge $-1 $410 $415 $173 $278 forward $405 $-1 #
edge $-1 $416 8.0638838812947782 $417 11.304813331066768 $277 $418 forward 7 unknown #
loop $-1 $-1 $284 $174 #
plane-surface $-1 -41.425824762718591 3.6511890497267174 4.8949027528829774 -0.69465837861970381 0 0.71933979245794832 0.71933979245794832 0 0.69465837861970381 forward_v I I I I #
loop $-1 $-1 $419 $111 #
coedge $-1 $282 $282 $283 $420 reversed $175 $-1 #
coedge $-1 $283 $283 $282 $420 forward $177 $-1 #
coedge $-1 $284 $284 $178 $285 forward $279 $-1 #
edge $-1 $421 0 $421 6.2831853071796004 $284 $422 forward 7 unknown #
loop $-1 $-1 $291 $179 #
plane-surface $-1 -41.425824762718591 3.6511890497267174 4.8949027528829774 -0.69465837861970381 0 0.71933979245794832 0.71933979245794832 0 0.69465837861970381 forward_v I I I I #
loop $-1 $-1 $423 $114 #
coedge $-1 $289 $289 $290 $424 reversed $180 $-1 #
coedge $-1 $290 $290 $289 $424 forward $182 $-1 #
coedge $-1 $291 $291 $183 $292 forward $286 $-1 #
edge $-1 $425 0 $425 6.2831853071796004 $291 $426 forward 7 unknown #
loop $-1 $-1 $298 $184 #
plane-surface $-1 -41.425824762718591 3.6511890497267174 4.8949027528829774 -0.69465837861970381 0 0.71933979245794832 0.71933979245794832 0 0.69465837861970381 forward_v I I I I #
loop $-1 $-1 $427 $117 #
coedge $-1 $296 $296 $297 $428 reversed $185 $-1 #
coedge $-1 $297 $297 $296 $428 forward $187 $-1 #
coedge $-1 $298 $298 $188 $299 forward $293 $-1 #
edge $-1 $429 0 $429 6.2831853071796004 $298 $430 forward 7 unknown #
face $-1 $431 $432 $45 $-1 $433 reversed single #
loop $-1 $-1 $434 $189 #
plane-surface $-1 -41.425824762718591 0 0 1 0 0 0 0 -1 forward_v I I I I #
coedge $-1 $435 $311 $436 $437 forward $190 $-1 #
coedge $-1 $438 $192 $435 $439 forward $121 $-1 #
coedge $-1 $192 $438 $440 $441 forward $121 $-1 #
coedge $-1 $314 $313 $192 $307 reversed $315 $-1 #
edge $-1 $442 -25.363472285825992 $443 25.363472285825992 $306 $444 forward 7 unknown #
coedge $-1 $194 $193 $445 $446 forward $76 $-1 #
coedge $-1 $447 $448 $193 $310 reversed $432 $-1 #
edge $-1 $317 -41.425824762718591 $449 41.425824762718591 $309 $450 forward 7 unknown #
coedge $-1 $303 $451 $194 $312 reversed $190 $-1 #
edge $-1 $452 -41.425824762718591 $316 41.425824762718591 $311 $453 forward 7 unknown #
coedge $-1 $306 $195 $451 $454 forward $315 $-1 #
coedge $-1 $195 $306 $447 $455 reversed $315 $-1 #
loop $-1 $-1 $313 $431 #
vertex $-1 $196 $456 #
vertex $-1 $196 $457 #
straight-curve $-1 41.425824762718591 0 8.0246320135245242 0 1 0 I I #
face $-1 $458 $459 $46 $-1 $460 reversed single #
loop $-1 $-1 $461 $197 #
plane-surface $-1 -41.425824762718591 0 0 1 0 0 0 0 -1 forward_v I I I I #
coedge $-1 $330 $462 $324 $463 forward $198 $-1 #
coedge $-1 $203 $200 $464 $465 reversed $125 $-1 #
coedge $-1 $200 $203 $322 $463 reversed $125 $-1 #
coedge $-1 $466 $467 $200 $326 forward $468 $-1 #
edge $-1 $469 -8.0246320135245242 $470 8.0246320135245242 $325 $471 forward 7 unknown #
coedge $-1 $202 $201 $461 $472 reversed $79 $-1 #
coedge $-1 $464 $473 $201 $329 forward $459 $-1 #
edge $-1 $474 -21.462912381359295 $333 -18.462912381359295 $328 $475 forward 7 unknown #
coedge $-1 $476 $322 $202 $331 forward $198 $-1 #
edge $-1 $332 18.462912381359295 $477 21.462912381359295 $330 $478 forward 7 unknown #
vertex $-1 $331 $479 #
vertex $-1 $329 $480 #
straight-curve $-1 -38.425824762718591 -15.706171619329766 0 0 0 -1 I I #
face $-1 $481 $482 $47 $-1 $483 forward single #
loop $-1 $-1 $484 $205 #
plane-surface $-1 0 33.847634299355931 6.5246320135245242 0 -1 0 0 0 -1 forward_v I I I I #
coedge $-1 $211 $485 $486 $487 forward $206 $-1 #
coedge $-1 $488 $208 $489 $490 reversed $129 $-1 #
coedge $-1 $208 $488 $345 $491 reversed $129 $-1 #
edge $-1 $346 5.0246320135245242 $492 8.0246320135245242 $208 $493 forward 7 unknown #
coedge $-1 $210 $209 $494 $495 reversed $82 $-1 #
coedge $-1 $486 $496 $209 $344 forward $497 $-1 #
edge $-1 $498 -8.0246320135245242 $347 -5.0246320135245242 $343 $499 forward 7 unknown #
coedge $-1 $485 $211 $340 $491 forward $206 $-1 #
vertex $-1 $341 $500 #
vertex $-1 $344 $501 #
straight-curve $-1 0 25.363472285825992 5.0246320135245242 1 0 0 I I #
face $-1 $-1 $361 $48 $-1 $502 forward single #
loop $-1 $-1 $503 $213 #
plane-surface $-1 41.425824762718591 0 0 -1 0 0 0 0 1 forward_v I I I I #
coedge $-1 $504 $505 $506 $507 reversed $214 $-1 #
coedge $-1 $508 $216 $218 $359 forward $133 $-1 #
coedge $-1 $216 $508 $504 $509 forward $133 $-1 #
coedge $-1 $506 $219 $216 $356 forward $361 $-1 #
edge $-1 $363 -4.7909052300604937 $510 3.3674125406726514 $355 $511 forward 7 unknown #
coedge $-1 $512 $513 $217 $358 forward $350 $-1 #
edge $-1 $514 -56.354340647007803 $362 -52.79095376332333 $357 $515 forward 7 unknown #
edge $-1 $363 77.812259525018007 $514 82.851649525437196 $218 $516 forward 7 unknown #
coedge $-1 $219 $506 $512 $517 forward $361 $-1 #
loop $-1 $-1 $506 $349 #
vertex $-1 $358 $518 #
vertex $-1 $220 $519 #
straight-curve $-1 20.712913061094355 5.5026515747544149 8.0246320135245242 -1 0 0 I I #
coedge $-1 $365 $365 $-1 $520 reversed $223 $-1 #
edge $-1 $521 0 $521 6.2831853071796004 $224 $522 forward 7 unknown #
vertex $-1 $227 $523 #
ellipse-curve $-1 39.644131362220733 -1.024002641832098 6.2429385716822807 0.70710678939079041 0 0.70710677298230451 0.17677669324557613 0 -0.1767766973476976 1 I I #
coedge $-1 $369 $369 $-1 $524 reversed $230 $-1 #
edge $-1 $525 0 $525 6.2831853071796004 $231 $526 forward 7 unknown #
vertex $-1 $234 $527 #
ellipse-curve $-1 39.644131362220733 1.4234926893878459 6.2429385716822807 0.70710678939079041 0 0.70710677298230451 0.17677669324557613 0 -0.1767766973476976 1 I I #
coedge $-1 $373 $373 $-1 $528 reversed $237 $-1 #
edge $-1 $529 0 $529 6.2831853071796004 $238 $530 forward 7 unknown #
vertex $-1 $241 $531 #
ellipse-curve $-1 39.644131362220733 3.8709880206077898 6.2429385716822807 0.70710678939079041 0 0.70710677298230451 0.17677669324557613 0 -0.1767766973476976 1 I I #
face $-1 $-1 $532 $52 $-1 $533 reversed single #
loop $-1 $-1 $386 $242 #
plane-surface $-1 -39.925824762718591 -15.706171619329766 0 0 -1 0 0 0 -1 forward_v I I I I #
coedge $-1 $248 $534 $535 $536 forward $243 $-1 #
coedge $-1 $382 $245 $247 $388 reversed $152 $-1 #
coedge $-1 $245 $381 $537 $538 reversed $152 $-1 #
coedge $-1 $534 $248 $245 $384 forward $243 $-1 #
edge $-1 $390 -11.304813331066768 $539 -8.0638838812947782 $383 $540 forward 7 unknown #
coedge $-1 $247 $246 $541 $542 reversed $97 $-1 #
coedge $-1 $535 $543 $246 $387 forward $378 $-1 #
edge $-1 $544 1.1606377605659484 $389 5.6660599320516853 $386 $545 forward 7 unknown #
edge $-1 $546 0 $390 4.505422171485737 $381 $547 forward 7 unknown #
vertex $-1 $249 $548 #
vertex $-1 $249 $549 #
straight-curve $-1 -38.184895312946601 -6.3207759480430958 8.0246320135245242 0 1 0 I I #
coedge $-1 $392 $392 $-1 $550 reversed $252 $-1 #
edge $-1 $551 0 $551 6.2831853071796004 $253 $552 forward 7 unknown #
vertex $-1 $256 $553 #
ellipse-curve $-1 -39.8053600378326 -14.480323730032337 6.4597673832037508 -0.69465837861970381 0 0.71933979245794832 0.35966989622897416 0 0.3473291893098519 1 I I #
coedge $-1 $396 $396 $-1 $554 reversed $259 $-1 #
edge $-1 $555 0 $555 6.2831853071796004 $260 $556 forward 7 unknown #
vertex $-1 $263 $557 #
ellipse-curve $-1 -39.8053600378326 -12.641551896086192 6.4597673832037508 -0.69465837861970381 0 0.71933979245794832 0.35966989622897416 0 0.3473291893098519 1 I I #
coedge $-1 $400 $400 $-1 $558 reversed $266 $-1 #
edge $-1 $559 0 $559 6.2831853071796004 $267 $560 forward 7 unknown #
vertex $-1 $270 $561 #
ellipse-curve $-1 -39.8053600378326 -10.802780062140046 6.4597673832037508 -0.69465837861970381 0 0.71933979245794832 0.35966989622897416 0 0.3473291893098519 1 I I #
face $-1 $-1 $562 $56 $-1 $563 reversed single #
loop $-1 $-1 $277 $271 #
plane-surface $-1 0 0 8.0246320135245242 0 0 1 1 0 0 forward_v I I I I #
coedge $-1 $564 $565 $566 $567 reversed $272 $-1 #
coedge $-1 $568 $274 $276 $414 forward $171 $-1 #
coedge $-1 $274 $568 $564 $569 forward $171 $-1 #
coedge $-1 $566 $277 $274 $411 forward $405 $-1 #
edge $-1 $417 -1.2390251983802161 $570 4.8902142481069335 $410 $571 forward 7 unknown #
coedge $-1 $572 $573 $275 $413 forward $562 $-1 #
edge $-1 $574 -27.35179281077184 $416 -24.222063550130294 $412 $575 forward 7 unknown #
edge $-1 $417 -4.505422171485737 $574 0 $276 $576 forward 7 unknown #
coedge $-1 $277 $566 $572 $577 forward $405 $-1 #
vertex $-1 $278 $578 #
vertex $-1 $278 $579 #
straight-curve $-1 -49.489708644013369 0.58656932648314264 8.0246320135245242 1 0 0 I I #
coedge $-1 $419 $419 $-1 $580 reversed $281 $-1 #
edge $-1 $581 0 $581 6.2831853071796004 $282 $582 forward 7 unknown #
vertex $-1 $285 $583 #
ellipse-curve $-1 -39.8053600378326 1.8124172157805702 6.4597673832037508 -0.69465837861970381 0 0.71933979245794832 0.35966989622897416 0 0.3473291893098519 1 I I #
coedge $-1 $423 $423 $-1 $584 reversed $288 $-1 #
edge $-1 $585 0 $585 6.2831853071796004 $289 $586 forward 7 unknown #
vertex $-1 $292 $587 #
ellipse-curve $-1 -39.8053600378326 3.6511890497267174 6.4597673832037508 -0.69465837861970381 0 0.71933979245794832 0.35966989622897416 0 0.3473291893098519 1 I I #
coedge $-1 $427 $427 $-1 $588 reversed $295 $-1 #
edge $-1 $589 0 $589 6.2831853071796004 $296 $590 forward 7 unknown #
vertex $-1 $299 $591 #
ellipse-curve $-1 -39.8053600378326 5.4899608836728646 6.4597673832037508 -0.69465837861970381 0 0.71933979245794832 0.35966989622897416 0 0.3473291893098519 1 I I #
face $-1 $-1 $315 $45 $-1 $592 reversed single #
loop $-1 $-1 $447 $300 #
plane-surface $-1 0 25.363472285825992 0 0 -1 0 0 0 -1 forward_v I I I I #
coedge $-1 $593 $445 $448 $594 forward $301 $-1 #
coedge $-1 $451 $303 $304 $439 reversed $190 $-1 #
coedge $-1 $445 $593 $303 $437 reversed $301 $-1 #
edge $-1 $452 -8.0246320135245242 $595 8.0246320135245242 $436 $596 forward 7 unknown #
coedge $-1 $305 $304 $593 $597 forward $121 $-1 #
edge $-1 $443 -41.425824762718591 $595 41.425824762718591 $435 $598 forward 7 unknown #
coedge $-1 $448 $447 $305 $441 reversed $432 $-1 #
edge $-1 $599 -41.425824762718591 $442 41.425824762718591 $440 $600 forward 7 unknown #
vertex $-1 $307 $601 #
vertex $-1 $454 $602 #
straight-curve $-1 41.425824762718591 0 -8.0246320135245242 0 -1 0 I I #
coedge $-1 $434 $436 $308 $446 reversed $301 $-1 #
edge $-1 $449 -25.363472285825992 $452 25.363472285825992 $445 $603 forward 7 unknown #
coedge $-1 $440 $309 $314 $455 forward $432 $-1 #
coedge $-1 $309 $440 $434 $594 reversed $432 $-1 #
vertex $-1 $310 $604 #
straight-curve $-1 0 25.363472285825992 8.0246320135245242 -1 0 0 I I #
coedge $-1 $311 $435 $313 $454 reversed $190 $-1 #
vertex $-1 $446 $605 #
straight-curve $-1 0 -25.363472285825992 8.0246320135245242 1 0 0 I I #
edge $-1 $316 -8.0246320135245242 $443 8.0246320135245242 $313 $606 forward 7 unknown #
edge $-1 $317 -8.0246320135245242 $442 8.0246320135245242 $314 $607 forward 7 unknown #
point $-1 41.425824762718591 -25.363472285825992 8.0246320135245242 #
point $-1 41.425824762718591 25.363472285825992 8.0246320135245242 #
face $-1 $-1 $468 $46 $-1 $608 reversed single #
loop $-1 $-1 $464 $319 #
plane-surface $-1 0 0 -8.0246320135245242 0 0 1 1 0 0 forward_v I I I I #
coedge $-1 $609 $610 $327 $472 forward $320 $-1 #
coedge $-1 $322 $476 $466 $611 forward $198 $-1 #
edge $-1 $470 -15.096061309537053 $332 -5.4387606430408262 $322 $612 forward 7 unknown #
coedge $-1 $613 $328 $323 $465 forward $459 $-1 #
edge $-1 $333 5.4387606430408262 $469 15.096061309537053 $464 $614 forward 7 unknown #
coedge $-1 $615 $325 $462 $611 reversed $468 $-1 #
coedge $-1 $325 $615 $613 $616 reversed $468 $-1 #
loop $-1 $-1 $325 $458 #
vertex $-1 $616 $617 #
vertex $-1 $326 $618 #
straight-curve $-1 -38.425824762718591 -25.363472285825992 0 0 0 1 I I #
edge $-1 $477 -8.0246320135245242 $474 8.0246320135245242 $461 $619 forward 7 unknown #
coedge $-1 $328 $613 $609 $620 forward $459 $-1 #
vertex $-1 $329 $621 #
straight-curve $-1 -19.962912381359295 -15.706171619329766 -8.0246320135245242 1 0 0 I I #
coedge $-1 $462 $330 $610 $622 forward $198 $-1 #
vertex $-1 $622 $623 #
straight-curve $-1 -19.962912381359295 -15.706171619329766 8.0246320135245242 -1 0 0 I I #
point $-1 -38.425824762718591 -15.706171619329766 8.0246320135245242 #
point $-1 -38.425824762718591 -15.706171619329766 -8.0246320135245242 #
face $-1 $-1 $497 $47 $-1 $624 reversed single #
loop $-1 $-1 $494 $335 #
plane-surface $-1 0 0 8.0246320135245242 0 0 1 1 0 0 forward_v I I I I #
coedge $-1 $625 $626 $627 $628 forward $336 $-1 #
coedge $-1 $338 $345 $625 $629 forward $206 $-1 #
coedge $-1 $627 $343 $338 $487 reversed $497 $-1 #
edge $-1 $630 -4.2420810067649697 $347 4.2420810067649697 $486 $631 forward 7 unknown #
coedge $-1 $340 $339 $632 $633 forward $129 $-1 #
coedge $-1 $494 $634 $339 $490 forward $482 $-1 #
edge $-1 $635 -33.847634299355931 $492 -25.363472285825992 $339 $636 forward 7 unknown #
edge $-1 $346 -4.2420810067649697 $637 4.2420810067649697 $340 $638 forward 7 unknown #
vertex $-1 $341 $639 #
straight-curve $-1 -41.425824762718591 25.363472285825992 0 0 0 1 I I #
coedge $-1 $640 $489 $342 $495 forward $482 $-1 #
edge $-1 $492 -41.425824762718591 $498 41.425824762718591 $494 $641 forward 7 unknown #
coedge $-1 $343 $627 $640 $642 reversed $497 $-1 #
loop $-1 $-1 $343 $481 #
vertex $-1 $642 $643 #
straight-curve $-1 41.425824762718591 25.363472285825992 0 0 0 -1 I I #
point $-1 -41.425824762718591 25.363472285825992 5.0246320135245242 #
point $-1 41.425824762718591 25.363472285825992 5.0246320135245242 #
plane-surface $-1 0 0 8.0246320135245242 0 0 1 1 0 0 forward_v I I I I #
coedge $-1 $513 $512 $505 $644 forward $350 $-1 #
coedge $-1 $505 $352 $354 $509 reversed $214 $-1 #
coedge $-1 $352 $504 $503 $644 reversed $214 $-1 #
coedge $-1 $360 $355 $352 $507 forward $361 $-1 #
edge $-1 $510 17.149524900628514 $645 20.712911701624236 $506 $646 forward 7 unknown #
coedge $-1 $354 $353 $513 $647 reversed $133 $-1 #
edge $-1 $648 -82.851649525437196 $510 -77.812259525018007 $504 $649 forward 7 unknown #
vertex $-1 $356 $650 #
straight-curve $-1 37.862437961722875 0.71174634469392117 8.0246320135245242 0 -1 0 I I #
coedge $-1 $503 $357 $360 $517 reversed $350 $-1 #
coedge $-1 $357 $503 $508 $647 forward $350 $-1 #
vertex $-1 $358 $651 #
straight-curve $-1 41.425824762718591 5.5026515747544149 60.815585776847854 0 0 1 I I #
straight-curve $-1 -17.159137769474178 5.5026515747544149 63.046209021502939 0.70710677298230451 0 -0.70710678939079041 I I #
edge $-1 $645 -2.6556661959787302 $362 5.5026515747544149 $512 $652 forward 7 unknown #
point $-1 41.425824762718591 5.5026515747544149 8.0246320135245242 #
point $-1 37.862437961722868 5.5026515747544149 8.0246320135245242 #
edge $-1 $653 1 $653 0 $365 $-1 forward 7 unknown #
vertex $-1 $366 $654 #
ellipse-curve $-1 38.937024572829941 -1.024002641832098 5.5358317986999763 0.70710678939079041 0 0.70710677298230451 0.17677669324557613 0 -0.1767766973476976 1 I I #
point $-1 39.820908055466312 -1.024002641832098 6.0661618743345826 #
edge $-1 $655 1 $655 0 $369 $-1 forward 7 unknown #
vertex $-1 $370 $656 #
ellipse-curve $-1 38.937024572829941 1.4234926893878459 5.5358317986999763 0.70710678939079041 0 0.70710677298230451 0.17677669324557613 0 -0.1767766973476976 1 I I #
point $-1 39.820908055466312 1.4234926893878459 6.0661618743345826 #
edge $-1 $657 1 $657 0 $373 $-1 forward 7 unknown #
vertex $-1 $374 $658 #
ellipse-curve $-1 38.937024572829941 3.8709880206077898 5.5358317986999763 0.70710678939079041 0 0.70710677298230451 0.17677669324557613 0 -0.1767766973476976 1 I I #
point $-1 39.820908055466312 3.8709880206077898 6.0661618743345826 #
loop $-1 $-1 $541 $377 #
plane-surface $-1 -41.425824762718591 0 0 1 0 0 0 0 -1 forward_v I I I I #
coedge $-1 $380 $383 $659 $660 forward $243 $-1 #
coedge $-1 $543 $386 $380 $536 reversed $378 $-1 #
edge $-1 $661 -21.462912381359295 $389 -18.221982931587306 $380 $662 forward 7 unknown #
coedge $-1 $541 $659 $382 $538 forward $532 $-1 #
edge $-1 $539 24.222063550130294 $546 27.35179281077184 $537 $663 forward 7 unknown #
vertex $-1 $660 $664 #
straight-curve $-1 -49.489708644013369 -9.5769321728426178 8.0246320135245242 -1 0 0 I I #
coedge $-1 $665 $537 $385 $542 forward $532 $-1 #
edge $-1 $546 3.2561562247995219 $544 9.3853956712866697 $541 $666 forward 7 unknown #
coedge $-1 $386 $535 $665 $667 reversed $378 $-1 #
vertex $-1 $667 $668 #
straight-curve $-1 -42.260717688522959 -15.706171619329766 4.0886560079634329 0.71933979245794832 0 0.69465837861970381 I I #
vertex $-1 $542 $669 #
straight-curve $-1 -41.425824762718591 -9.5769321728426178 4.8949027528829774 0.71933979245794832 0 0.69465837861970381 I I #
point $-1 -38.184895312946601 -15.706171619329766 8.0246320135245242 #
point $-1 -38.184895312946601 -9.5769321728426178 8.0246320135245242 #
edge $-1 $670 1 $670 0 $392 $-1 forward 7 unknown #
vertex $-1 $393 $671 #
ellipse-curve $-1 -38.838059852570879 -14.480323730032337 5.4580987415711606 -0.69465837861970381 0 0.71933979245794832 0.35966989622897416 0 0.3473291893098519 1 I I #
point $-1 -39.44569014160362 -14.480323730032337 6.8070965725136006 #
edge $-1 $672 1 $672 0 $396 $-1 forward 7 unknown #
vertex $-1 $397 $673 #
ellipse-curve $-1 -38.838059852570879 -12.641551896086192 5.4580987415711606 -0.69465837861970381 0 0.71933979245794832 0.35966989622897416 0 0.3473291893098519 1 I I #
point $-1 -39.44569014160362 -12.641551896086192 6.8070965725136006 #
edge $-1 $674 1 $674 0 $400 $-1 forward 7 unknown #
vertex $-1 $401 $675 #
ellipse-curve $-1 -38.838059852570879 -10.802780062140046 5.4580987415711606 -0.69465837861970381 0 0.71933979245794832 0.35966989622897416 0 0.3473291893098519 1 I I #
point $-1 -39.44569014160362 -10.802780062140046 6.8070965725136006 #
loop $-1 $-1 $412 $404 #
plane-surface $-1 -41.425824762718591 0 0 1 0 0 0 0 -1 forward_v I I I I #
coedge $-1 $565 $407 $409 $569 reversed $272 $-1 #
coedge $-1 $407 $564 $676 $677 reversed $272 $-1 #
coedge $-1 $415 $410 $407 $567 forward $405 $-1 #
edge $-1 $570 -11.304813331066768 $678 -8.0638838812947782 $566 $679 forward 7 unknown #
coedge $-1 $409 $408 $573 $680 reversed $171 $-1 #
edge $-1 $681 0 $570 4.505422171485737 $564 $682 forward 7 unknown #
vertex $-1 $411 $683 #
straight-curve $-1 -38.184895312946601 1.8255945248633587 8.0246320135245242 0 1 0 I I #
coedge $-1 $676 $412 $415 $577 reversed $562 $-1 #
coedge $-1 $412 $676 $568 $680 forward $562 $-1 #
vertex $-1 $413 $684 #
straight-curve $-1 -41.425824762718591 0.58656932648314264 32.246695563654818 0 0 1 I I #
straight-curve $-1 -41.425824762718591 0.58656932648314264 4.8949027528829774 -0.71933979245794832 0 -0.69465837861970381 I I #
edge $-1 $678 -6.7158087729702922 $416 -0.58656932648314264 $572 $685 forward 7 unknown #
point $-1 -41.425824762718591 0.58656932648314264 8.0246320135245242 #
point $-1 -38.184895312946601 0.58656932648314264 8.0246320135245242 #
edge $-1 $686 1 $686 0 $419 $-1 forward 7 unknown #
vertex $-1 $420 $687 #
ellipse-curve $-1 -38.838059852570879 1.8124172157805702 5.4580987415711606 -0.69465837861970381 0 0.71933979245794832 0.35966989622897416 0 0.3473291893098519 1 I I #
point $-1 -39.44569014160362 1.8124172157805702 6.8070965725136006 #
edge $-1 $688 1 $688 0 $423 $-1 forward 7 unknown #
vertex $-1 $424 $689 #
ellipse-curve $-1 -38.838059852570879 3.6511890497267174 5.4580987415711606 -0.69465837861970381 0 0.71933979245794832 0.35966989622897416 0 0.3473291893098519 1 I I #
point $-1 -39.44569014160362 3.6511890497267174 6.8070965725136006 #
edge $-1 $690 1 $690 0 $427 $-1 forward 7 unknown #
vertex $-1 $428 $691 #
ellipse-curve $-1 -38.838059852570879 5.4899608836728646 5.4580987415711606 -0.69465837861970381 0 0.71933979245794832 0.35966989622897416 0 0.3473291893098519 1 I I #
point $-1 -39.44569014160362 5.4899608836728646 6.8070965725136006 #
plane-surface $-1 41.425824762718591 0 0 -1 0 0 0 0 1 forward_v I I I I #
coedge $-1 $436 $434 $438 $597 reversed $301 $-1 #
edge $-1 $449 -8.0246320135245242 $599 8.0246320135245242 $448 $692 forward 7 unknown #
vertex $-1 $597 $693 #
straight-curve $-1 -41.425824762718591 -25.363472285825992 0 0 0 -1 I I #
edge $-1 $595 -25.363472285825992 $599 25.363472285825992 $593 $694 forward 7 unknown #
straight-curve $-1 0 -25.363472285825992 -8.0246320135245242 -1 0 0 I I #
vertex $-1 $441 $695 #
straight-curve $-1 0 25.363472285825992 -8.0246320135245242 1 0 0 I I #
point $-1 41.425824762718591 25.363472285825992 -8.0246320135245242 #
point $-1 41.425824762718591 -25.363472285825992 -8.0246320135245242 #
straight-curve $-1 -41.425824762718591 0 8.0246320135245242 0 -1 0 I I #
point $-1 -41.425824762718591 25.363472285825992 8.0246320135245242 #
point $-1 -41.425824762718591 -25.363472285825992 8.0246320135245242 #
straight-curve $-1 41.425824762718591 -25.363472285825992 0 0 0 -1 I I #
straight-curve $-1 41.425824762718591 25.363472285825992 0 0 0 -1 I I #
plane-surface $-1 0 -25.363472285825992 0 0 1 0 0 0 1 forward_v I I I I #
coedge $-1 $696 $461 $473 $620 reversed $320 $-1 #
coedge $-1 $461 $696 $476 $622 reversed $320 $-1 #
edge $-1 $697 -41.425824762718591 $470 -38.425824762718591 $466 $698 forward 7 unknown #
straight-curve $-1 -38.425824762718591 -10.267410976288939 8.0246320135245242 0 1 0 I I #
coedge $-1 $473 $464 $467 $616 forward $459 $-1 #
straight-curve $-1 -38.425824762718591 -10.267410976288939 -8.0246320135245242 0 -1 0 I I #
coedge $-1 $467 $466 $696 $699 forward $468 $-1 #
edge $-1 $469 38.425824762718591 $700 41.425824762718591 $467 $701 forward 7 unknown #
point $-1 -38.425824762718591 -25.363472285825992 -8.0246320135245242 #
point $-1 -38.425824762718591 -25.363472285825992 8.0246320135245242 #
straight-curve $-1 -41.425824762718591 -15.706171619329766 0 0 0 -1 I I #
edge $-1 $700 -25.363472285825992 $474 -15.706171619329766 $609 $702 forward 7 unknown #
point $-1 -41.425824762718591 -15.706171619329766 -8.0246320135245242 #
edge $-1 $477 15.706171619329766 $697 25.363472285825992 $610 $703 forward 7 unknown #
point $-1 -41.425824762718591 -15.706171619329766 8.0246320135245242 #
plane-surface $-1 41.425824762718591 0 0 -1 0 0 0 0 1 forward_v I I I I #
coedge $-1 $632 $484 $485 $629 reversed $336 $-1 #
coedge $-1 $484 $632 $634 $704 reversed $336 $-1 #
coedge $-1 $496 $486 $484 $628 reversed $497 $-1 #
edge $-1 $705 -1.5 $630 1.5 $627 $706 forward 7 unknown #
edge $-1 $637 -41.425824762718591 $630 41.425824762718591 $625 $707 forward 7 unknown #
vertex $-1 $487 $708 #
straight-curve $-1 41.425824762718591 29.605553292590962 5.0246320135245242 0 -1 0 I I #
coedge $-1 $626 $625 $488 $633 reversed $336 $-1 #
edge $-1 $635 -1.5 $637 1.5 $632 $709 forward 7 unknown #
coedge $-1 $489 $640 $626 $704 forward $482 $-1 #
vertex $-1 $704 $710 #
straight-curve $-1 -41.425824762718591 0 8.0246320135245242 0 -1 0 I I #
vertex $-1 $629 $711 #
straight-curve $-1 -41.425824762718591 29.605553292590962 5.0246320135245242 0 1 0 I I #
point $-1 -41.425824762718591 25.363472285825992 8.0246320135245242 #
coedge $-1 $634 $494 $496 $642 forward $482 $-1 #
straight-curve $-1 0 25.363472285825992 8.0246320135245242 1 0 0 I I #
edge $-1 $498 25.363472285825992 $705 33.847634299355931 $496 $712 forward 7 unknown #
point $-1 41.425824762718591 25.363472285825992 8.0246320135245242 #
edge $-1 $645 52.79095376332333 $648 56.354340647007803 $503 $713 forward 7 unknown #
vertex $-1 $517 $714 #
straight-curve $-1 20.712913061094355 -2.6556661959787302 8.0246320135245242 1 0 0 I I #
edge $-1 $648 -3.3674125406726514 $514 4.7909052300604937 $513 $715 forward 7 unknown #
vertex $-1 $647 $716 #
straight-curve $-1 -17.159137769474178 -2.6556661959787302 63.046209021502939 -0.70710677298230451 0 0.70710678939079041 I I #
point $-1 37.862437961722868 -2.6556661959787302 8.0246320135245242 #
point $-1 41.425824762718591 5.5026515747544149 4.4612451298400515 #
straight-curve $-1 41.425824762718591 0 8.0246320135245242 0 1 0 I I #
vertex $-1 $520 $717 #
point $-1 39.113801266075519 -1.024002641832098 5.3590551013522782 #
vertex $-1 $524 $718 #
point $-1 39.113801266075519 1.4234926893878459 5.3590551013522782 #
vertex $-1 $528 $719 #
point $-1 39.113801266075519 3.8709880206077898 5.3590551013522782 #
coedge $-1 $537 $665 $534 $660 reversed $532 $-1 #
edge $-1 $539 9.5769321728426178 $661 15.706171619329766 $659 $720 forward 7 unknown #
vertex $-1 $667 $721 #
straight-curve $-1 -19.962912381359295 -15.706171619329766 8.0246320135245242 1 0 0 I I #
straight-curve $-1 -41.425824762718591 -9.5769321728426178 32.246695563654818 0 0 -1 I I #
point $-1 -41.425824762718591 -9.5769321728426178 8.0246320135245242 #
coedge $-1 $659 $541 $543 $667 forward $532 $-1 #
straight-curve $-1 -41.425824762718591 -6.3207759480430958 4.8949027528829738 0 -1 0 I I #
edge $-1 $544 4.8949027528829774 $661 8.0246320135245242 $665 $722 forward 7 unknown #
point $-1 -41.425824762718591 -15.706171619329766 4.8949027528829774 #
point $-1 -41.425824762718591 -9.5769321728426178 4.8949027528829774 #
vertex $-1 $550 $723 #
point $-1 -38.478389956341907 -14.480323730032337 5.8054279308810131 #
vertex $-1 $554 $724 #
point $-1 -38.478389956341907 -12.641551896086192 5.8054279308810131 #
vertex $-1 $558 $725 #
point $-1 -38.478389956341907 -10.802780062140046 5.8054279308810131 #
coedge $-1 $573 $572 $565 $677 forward $562 $-1 #
edge $-1 $678 24.222063550130294 $681 27.35179281077184 $676 $726 forward 7 unknown #
vertex $-1 $577 $727 #
straight-curve $-1 -49.489708644013369 6.7158087729702922 8.0246320135245242 -1 0 0 I I #
edge $-1 $681 -4.8902142481069335 $574 1.2390251983802161 $573 $728 forward 7 unknown #
vertex $-1 $680 $729 #
straight-curve $-1 -41.425824762718591 6.7158087729702922 4.8949027528829774 0.71933979245794832 0 0.69465837861970381 I I #
point $-1 -38.184895312946601 6.7158087729702922 8.0246320135245242 #
point $-1 -41.425824762718591 0.58656932648314264 4.8949027528829774 #
straight-curve $-1 -41.425824762718591 0 8.0246320135245242 0 -1 0 I I #
vertex $-1 $580 $730 #
point $-1 -38.478389956341907 1.8124172157805702 5.8054279308810131 #
vertex $-1 $584 $731 #
point $-1 -38.478389956341907 3.6511890497267174 5.8054279308810131 #
vertex $-1 $588 $732 #
point $-1 -38.478389956341907 5.4899608836728646 5.8054279308810131 #
straight-curve $-1 -41.425824762718591 25.363472285825992 0 0 0 -1 I I #
point $-1 -41.425824762718591 -25.363472285825992 -8.0246320135245242 #
straight-curve $-1 -41.425824762718591 0 -8.0246320135245242 0 1 0 I I #
point $-1 -41.425824762718591 25.363472285825992 -8.0246320135245242 #
coedge $-1 $610 $609 $615 $699 reversed $320 $-1 #
vertex $-1 $622 $733 #
straight-curve $-1 0 -25.363472285825992 8.0246320135245242 1 0 0 I I #
edge $-1 $697 -8.0246320135245242 $700 8.0246320135245242 $696 $734 forward 7 unknown #
vertex $-1 $620 $735 #
straight-curve $-1 0 -25.363472285825992 -8.0246320135245242 -1 0 0 I I #
straight-curve $-1 -41.425824762718591 0 -8.0246320135245242 0 1 0 I I #
straight-curve $-1 -41.425824762718591 0 8.0246320135245242 0 -1 0 I I #
edge $-1 $705 -41.425824762718591 $635 41.425824762718591 $626 $736 forward 7 unknown #
vertex $-1 $642 $737 #
straight-curve $-1 41.425824762718591 33.847634299355931 6.5246320135245242 0 0 -1 I I #
straight-curve $-1 0 33.847634299355931 5.0246320135245242 1 0 0 I I #
point $-1 41.425824762718591 33.847634299355931 5.0246320135245242 #
straight-curve $-1 -41.425824762718591 33.847634299355931 6.5246320135245242 0 0 -1 I I #
point $-1 -41.425824762718591 33.847634299355931 8.0246320135245242 #
point $-1 -41.425824762718591 33.847634299355931 5.0246320135245242 #
straight-curve $-1 41.425824762718591 0 8.0246320135245242 0 1 0 I I #
straight-curve $-1 41.425824762718591 -2.6556661959787302 60.815585776847854 0 0 -1 I I #
point $-1 41.425824762718591 -2.6556661959787302 8.0246320135245242 #
straight-curve $-1 41.425824762718591 0.71174634469392117 4.4612451298400515 0 1 0 I I #
point $-1 41.425824762718591 -2.6556661959787302 4.4612451298400515 #
point $-1 38.76024787548225 -1.024002641832098 5.3590551054543996 #
point $-1 38.76024787548225 1.4234926893878459 5.3590551054543996 #
point $-1 38.76024787548225 3.8709880206077898 5.3590551054543996 #
straight-curve $-1 -41.425824762718591 0 8.0246320135245242 0 -1 0 I I #
point $-1 -41.425824762718591 -15.706171619329766 8.0246320135245242 #
straight-curve $-1 -41.425824762718591 -15.706171619329766 0 0 0 1 I I #
point $-1 -38.490730663261033 -14.480323730032337 5.0984288453421867 #
point $-1 -38.490730663261033 -12.641551896086192 5.0984288453421867 #
point $-1 -38.490730663261033 -10.802780062140046 5.0984288453421867 #
straight-curve $-1 -41.425824762718591 6.7158087729702922 32.246695563654818 0 0 -1 I I #
point $-1 -41.425824762718591 6.7158087729702922 8.0246320135245242 #
straight-curve $-1 -41.425824762718591 1.8255945248633587 4.8949027528829738 0 -1 0 I I #
point $-1 -41.425824762718591 6.7158087729702922 4.8949027528829774 #
point $-1 -38.490730663261033 1.8124172157805702 5.0984288453421867 #
point $-1 -38.490730663261033 3.6511890497267174 5.0984288453421867 #
point $-1 -38.490730663261033 5.4899608836728646 5.0984288453421867 #
point $-1 -41.425824762718591 -25.363472285825992 8.0246320135245242 #
straight-curve $-1 -41.425824762718591 -25.363472285825992 0 0 0 -1 I I #
point $-1 -41.425824762718591 -25.363472285825992 -8.0246320135245242 #
straight-curve $-1 0 33.847634299355931 8.0246320135245242 -1 0 0 I I #
point $-1 41.425824762718591 33.847634299355931 8.0246320135245242 #
End-of-ACIS-data 