500 0 14 0           
7 Unknown 11 ACIS 5.0 NT 24 Fri Mar 26 03:38:39 1999 
-1 9.9999999999999995e-007 1e-010 
body $-1 $14 $-1 $15 #
body $-1 $16 $-1 $17 #
body $-1 $18 $-1 $19 #
body $-1 $20 $-1 $21 #
body $-1 $22 $-1 $23 #
body $-1 $24 $-1 $25 #
body $-1 $26 $-1 $27 #
body $-1 $28 $-1 $29 #
body $-1 $30 $-1 $31 #
body $-1 $32 $-1 $33 #
body $-1 $34 $-1 $35 #
body $-1 $36 $-1 $37 #
body $-1 $38 $-1 $39 #
body $-1 $40 $-1 $41 #
lump $-1 $-1 $42 $0 #
transform $-1 1 0 0 0 1 0 0 0 1 40.377208777123329 19.250244316422641 9.1880305181033339 1 rotate no_reflect no_shear #
lump $-1 $-1 $43 $1 #
transform $-1 1 0 0 0 1 0 0 0 1 40.377208777123329 19.250244316422641 9.1880305181033339 1 rotate no_reflect no_shear #
lump $-1 $-1 $44 $2 #
transform $-1 1 0 0 0 1 0 0 0 1 40.377208777123329 19.250244316422641 9.1880305181033339 1 rotate no_reflect no_shear #
lump $-1 $-1 $45 $3 #
transform $-1 1 0 0 0 1 0 0 0 1 40.377208777123329 19.250244316422641 9.1880305181033339 1 rotate no_reflect no_shear #
lump $-1 $-1 $46 $4 #
transform $-1 1 0 0 0 1 0 0 0 1 40.377208777123329 19.250244316422641 9.1880305181033339 1 rotate no_reflect no_shear #
lump $-1 $-1 $47 $5 #
transform $-1 1 0 0 0 1 0 0 0 1 40.377208777123329 19.250244316422641 9.1880305181033339 1 rotate no_reflect no_shear #
lump $-1 $-1 $48 $6 #
transform $-1 1 0 0 0 1 0 0 0 1 40.377208777123329 19.250244316422641 9.1880305181033339 1 rotate no_reflect no_shear #
lump $-1 $-1 $49 $7 #
transform $-1 1 0 0 0 1 0 0 0 1 40.377208777123329 19.250244316422641 9.1880305181033339 1 rotate no_reflect no_shear #
lump $-1 $-1 $50 $8 #
transform $-1 1 0 0 0 1 0 0 0 1 40.377208777123329 19.250244316422641 9.1880305181033339 1 rotate no_reflect no_shear #
lump $-1 $-1 $51 $9 #
transform $-1 1 0 0 0 1 0 0 0 1 40.377208777123329 19.250244316422641 9.1880305181033339 1 rotate no_reflect no_shear #
lump $-1 $-1 $52 $10 #
transform $-1 1 0 0 0 1 0 0 0 1 40.377208777123329 19.250244316422641 9.1880305181033339 1 rotate no_reflect no_shear #
lump $-1 $-1 $53 $11 #
transform $-1 1 0 0 0 1 0 0 0 1 40.377208777123329 19.250244316422641 9.1880305181033339 1 rotate no_reflect no_shear #
lump $-1 $-1 $54 $12 #
transform $-1 1 0 0 0 1 0 0 0 1 40.377208777123329 19.250244316422641 9.1880305181033339 1 rotate no_reflect no_shear #
lump $-1 $-1 $55 $13 #
transform $-1 1 0 0 0 1 0 0 0 1 40.377208777123329 19.250244316422641 9.1880305181033339 1 rotate no_reflect no_shear #
shell $-1 $-1 $-1 $56 $-1 $14 #
shell $-1 $-1 $-1 $57 $-1 $16 #
shell $-1 $-1 $-1 $58 $-1 $18 #
shell $-1 $-1 $-1 $59 $-1 $20 #
shell $-1 $-1 $-1 $60 $-1 $22 #
shell $-1 $-1 $-1 $61 $-1 $24 #
shell $-1 $-1 $-1 $62 $-1 $26 #
shell $-1 $-1 $-1 $63 $-1 $28 #
shell $-1 $-1 $-1 $64 $-1 $30 #
shell $-1 $-1 $-1 $65 $-1 $32 #
shell $-1 $-1 $-1 $66 $-1 $34 #
shell $-1 $-1 $-1 $67 $-1 $36 #
shell $-1 $-1 $-1 $68 $-1 $38 #
shell $-1 $-1 $-1 $69 $-1 $40 #
face $-1 $70 $71 $42 $-1 $72 forward single #
face $-1 $73 $74 $43 $-1 $75 forward single #
face $-1 $76 $77 $44 $-1 $78 reversed single #
face $-1 $79 $80 $45 $-1 $81 forward single #
face $-1 $82 $83 $46 $-1 $84 forward single #
face $-1 $85 $86 $47 $-1 $87 reversed single #
face $-1 $88 $89 $48 $-1 $90 forward single #
face $-1 $91 $92 $49 $-1 $93 forward single #
face $-1 $94 $95 $50 $-1 $96 reversed single #
face $-1 $97 $98 $51 $-1 $99 forward single #
face $-1 $100 $101 $52 $-1 $102 forward single #
face $-1 $103 $104 $53 $-1 $105 reversed single #
face $-1 $106 $107 $54 $-1 $108 forward single #
face $-1 $109 $110 $55 $-1 $111 forward single #
face $-1 $112 $113 $42 $-1 $114 reversed single #
loop $-1 $-1 $115 $56 #
plane-surface $-1 0 0 9.1880305181033339 0 0 1 1 0 0 forward_v I I I I #
face $-1 $116 $117 $43 $-1 $118 reversed single #
loop $-1 $-1 $119 $57 #
plane-surface $-1 0 -19.250244316422641 0 0 1 0 0 0 1 forward_v I I I I #
face $-1 $120 $121 $44 $-1 $122 reversed single #
loop $-1 $-1 $123 $58 #
plane-surface $-1 42.370344625757895 1.4864546961602798 120.32042940268097 0 -1 0 -0.71933980857756763 0 -0.69465836192734942 forward_v I I I I #
face $-1 $124 $125 $45 $-1 $126 forward single #
loop $-1 $127 $128 $59 #
cone-surface $-1 38.183742044347071 -2.8437529333145761 6.9668287558846149 -0.71933980857756763 0 -0.69465836192734942 0.34732918096367471 0 -0.35966990428878381 1 I I 0 1 0.5 forward I I I I #
face $-1 $129 $130 $46 $-1 $131 forward single #
loop $-1 $132 $133 $60 #
cone-surface $-1 38.183742044347071 -0.24562835562966256 6.9668287558846149 -0.71933980857756763 0 -0.69465836192734942 0.34732918096367471 0 -0.35966990428878381 1 I I 0 1 0.5 forward I I I I #
face $-1 $134 $135 $47 $-1 $136 reversed single #
loop $-1 $-1 $137 $61 #
plane-surface $-1 42.370344625757895 15.916759984817208 120.32042940268097 0 -1 0 -0.71933980857756763 0 -0.69465836192734942 forward_v I I I I #
face $-1 $138 $139 $48 $-1 $140 forward single #
loop $-1 $141 $142 $62 #
cone-surface $-1 38.183742044347071 11.586552355342352 6.9668287558846149 -0.71933980857756763 0 -0.69465836192734942 0.34732918096367471 0 -0.35966990428878381 1 I I 0 1 0.5 forward I I I I #
face $-1 $143 $144 $49 $-1 $145 forward single #
loop $-1 $146 $147 $63 #
cone-surface $-1 38.183742044347071 14.184676933027266 6.9668287558846149 -0.71933980857756763 0 -0.69465836192734942 0.34732918096367471 0 -0.35966990428878381 1 I I 0 1 0.5 forward I I I I #
face $-1 $148 $149 $50 $-1 $150 reversed single #
loop $-1 $-1 $151 $64 #
plane-surface $-1 -98.467076042388072 -4.5758359851045185 62.230562137416214 0 1 0 -0.71933980857756763 0 0.69465836192734942 forward_v I I I I #
face $-1 $152 $153 $51 $-1 $154 forward single #
loop $-1 $155 $156 $65 #
cone-surface $-1 -38.183742044347078 -2.8437529333145761 6.9668287558846167 0.71933980857756763 0 -0.69465836192734942 0.34732918096367471 0 0.35966990428878381 1 I I 0 1 0.5 forward I I I I #
face $-1 $157 $158 $52 $-1 $159 forward single #
loop $-1 $160 $161 $66 #
cone-surface $-1 -38.183742044347078 -0.24562835562966256 6.9668287558846167 0.71933980857756763 0 -0.69465836192734942 0.34732918096367471 0 0.35966990428878381 1 I I 0 1 0.5 forward I I I I #
face $-1 $162 $163 $53 $-1 $164 reversed single #
loop $-1 $-1 $165 $67 #
plane-surface $-1 -98.467076042388072 9.8544693035524098 62.230562137416214 0 1 0 -0.71933980857756763 0 0.69465836192734942 forward_v I I I I #
face $-1 $166 $167 $54 $-1 $168 forward single #
loop $-1 $169 $170 $68 #
cone-surface $-1 -38.183742044347078 11.586552355342352 6.9668287558846167 0.71933980857756763 0 -0.69465836192734942 0.34732918096367471 0 0.35966990428878381 1 I I 0 1 0.5 forward I I I I #
face $-1 $171 $172 $55 $-1 $173 forward single #
loop $-1 $174 $175 $69 #
cone-surface $-1 -38.183742044347078 14.184676933027266 6.9668287558846167 0.71933980857756763 0 -0.69465836192734942 0.34732918096367471 0 0.35966990428878381 1 I I 0 1 0.5 forward I I I I #
face $-1 $176 $177 $42 $-1 $178 reversed single #
loop $-1 $-1 $179 $70 #
plane-surface $-1 0 0 -9.1880305181033339 0 0 1 1 0 0 forward_v I I I I #
coedge $-1 $180 $181 $182 $183 forward $71 $-1 #
face $-1 $184 $185 $43 $-1 $186 reversed single #
loop $-1 $-1 $187 $73 #
plane-surface $-1 0 0 -9.1880305181033339 0 0 1 1 0 0 forward_v I I I I #
coedge $-1 $188 $189 $190 $191 forward $74 $-1 #
face $-1 $192 $193 $44 $-1 $194 reversed single #
loop $-1 $-1 $195 $76 #
plane-surface $-1 -15.719522639506863 -1.5446906444721193 64.223697986050794 0.71933980857756763 0 0.69465836192734942 0.69465836192734942 0 -0.71933980857756763 forward_v I I I I #
coedge $-1 $196 $197 $198 $199 reversed $77 $-1 #
face $-1 $-1 $200 $45 $-1 $201 forward single #
loop $-1 $202 $203 $79 #
cone-surface $-1 37.285143554567682 -2.8437529333145761 6.0990623018427055 -0.71933980857756763 0 -0.69465836192734942 0.17366459048183736 0 -0.17983495214439191 1 I I -0.70710678118654746 0.70710678118654746 0.25 forward I I I I #
loop $-1 $-1 $204 $59 #
coedge $-1 $128 $128 $205 $206 reversed $80 $-1 #
face $-1 $-1 $207 $46 $-1 $208 forward single #
loop $-1 $209 $210 $82 #
cone-surface $-1 37.285143554567682 -0.24562835562966256 6.0990623018427055 -0.71933980857756763 0 -0.69465836192734942 0.17366459048183736 0 -0.17983495214439191 1 I I -0.70710678118654746 0.70710678118654746 0.25 forward I I I I #
loop $-1 $-1 $211 $60 #
coedge $-1 $133 $133 $212 $213 reversed $83 $-1 #
face $-1 $214 $215 $47 $-1 $216 reversed single #
loop $-1 $-1 $217 $85 #
plane-surface $-1 -15.719522639506863 12.885614644184809 64.223697986050794 0.71933980857756763 0 0.69465836192734942 0.69465836192734942 0 -0.71933980857756763 forward_v I I I I #
coedge $-1 $218 $219 $220 $221 reversed $86 $-1 #
face $-1 $-1 $222 $48 $-1 $223 forward single #
loop $-1 $224 $225 $88 #
cone-surface $-1 37.285143554567682 11.586552355342352 6.0990623018427055 -0.71933980857756763 0 -0.69465836192734942 0.17366459048183736 0 -0.17983495214439191 1 I I -0.70710678118654746 0.70710678118654746 0.25 forward I I I I #
loop $-1 $-1 $226 $62 #
coedge $-1 $142 $142 $227 $228 reversed $89 $-1 #
face $-1 $-1 $229 $49 $-1 $230 forward single #
loop $-1 $231 $232 $91 #
cone-surface $-1 37.285143554567682 14.184676933027266 6.0990623018427055 -0.71933980857756763 0 -0.69465836192734942 0.17366459048183736 0 -0.17983495214439191 1 I I -0.70710678118654746 0.70710678118654746 0.25 forward I I I I #
loop $-1 $-1 $233 $63 #
coedge $-1 $147 $147 $234 $235 reversed $92 $-1 #
face $-1 $236 $237 $50 $-1 $238 reversed single #
loop $-1 $-1 $239 $94 #
plane-surface $-1 -40.377208777123315 -1.5446906444721193 6.1338307207860367 -0.71933980857756763 0 0.69465836192734942 0.69465836192734942 0 0.71933980857756763 forward_v I I I I #
coedge $-1 $240 $241 $242 $243 reversed $95 $-1 #
face $-1 $-1 $244 $51 $-1 $245 forward single #
loop $-1 $246 $247 $97 #
cone-surface $-1 -37.285143554567689 -2.8437529333145761 6.0990623018427073 0.71933980857756763 0 -0.69465836192734942 0.17366459048183736 0 0.17983495214439191 1 I I -0.70710678118654746 0.70710678118654746 0.25 forward I I I I #
loop $-1 $-1 $248 $65 #
coedge $-1 $156 $156 $249 $250 reversed $98 $-1 #
face $-1 $-1 $251 $52 $-1 $252 forward single #
loop $-1 $253 $254 $100 #
cone-surface $-1 -37.285143554567689 -0.24562835562966256 6.0990623018427073 0.71933980857756763 0 -0.69465836192734942 0.17366459048183736 0 0.17983495214439191 1 I I -0.70710678118654746 0.70710678118654746 0.25 forward I I I I #
loop $-1 $-1 $255 $66 #
coedge $-1 $161 $161 $256 $257 reversed $101 $-1 #
face $-1 $258 $259 $53 $-1 $260 reversed single #
loop $-1 $-1 $261 $103 #
plane-surface $-1 -40.377208777123315 12.885614644184809 6.1338307207860367 -0.71933980857756763 0 0.69465836192734942 0.69465836192734942 0 0.71933980857756763 forward_v I I I I #
coedge $-1 $262 $263 $264 $265 reversed $104 $-1 #
face $-1 $-1 $266 $54 $-1 $267 forward single #
loop $-1 $268 $269 $106 #
cone-surface $-1 -37.285143554567689 11.586552355342352 6.0990623018427073 0.71933980857756763 0 -0.69465836192734942 0.17366459048183736 0 0.17983495214439191 1 I I -0.70710678118654746 0.70710678118654746 0.25 forward I I I I #
loop $-1 $-1 $270 $68 #
coedge $-1 $170 $170 $271 $272 reversed $107 $-1 #
face $-1 $-1 $273 $55 $-1 $274 forward single #
loop $-1 $275 $276 $109 #
cone-surface $-1 -37.285143554567689 14.184676933027266 6.0990623018427073 0.71933980857756763 0 -0.69465836192734942 0.17366459048183736 0 0.17983495214439191 1 I I -0.70710678118654746 0.70710678118654746 0.25 forward I I I I #
loop $-1 $-1 $277 $69 #
coedge $-1 $175 $175 $278 $279 reversed $110 $-1 #
face $-1 $280 $281 $42 $-1 $282 reversed single #
loop $-1 $-1 $283 $112 #
plane-surface $-1 0 -19.250244316422641 0 0 1 0 0 0 1 forward_v I I I I #
coedge $-1 $284 $285 $286 $287 forward $113 $-1 #
coedge $-1 $288 $115 $289 $290 forward $71 $-1 #
coedge $-1 $115 $288 $291 $292 forward $71 $-1 #
coedge $-1 $293 $294 $115 $183 reversed $295 $-1 #
edge $-1 $296 -19.250244316422641 $297 19.250244316422641 $182 $298 forward 7 unknown #
face $-1 $299 $300 $43 $-1 $301 forward single #
loop $-1 $-1 $302 $116 #
plane-surface $-1 40.377208777123329 0 0 -1 0 0 0 0 1 forward_v I I I I #
coedge $-1 $303 $304 $305 $306 forward $117 $-1 #
coedge $-1 $305 $119 $302 $307 reversed $74 $-1 #
coedge $-1 $119 $305 $308 $309 reversed $74 $-1 #
coedge $-1 $310 $311 $119 $191 reversed $300 $-1 #
edge $-1 $312 -40.377208777123329 $313 40.377208777123329 $190 $314 forward 7 unknown #
face $-1 $315 $316 $44 $-1 $317 reversed single #
loop $-1 $-1 $318 $120 #
plane-surface $-1 42.370344625757895 -4.5758359851045185 120.32042940268097 0 1 0 0.71933980857756763 0 0.69465836192734942 forward_v I I I I #
coedge $-1 $319 $320 $321 $322 reversed $121 $-1 #
coedge $-1 $197 $123 $323 $324 reversed $77 $-1 #
coedge $-1 $123 $196 $319 $325 reversed $77 $-1 #
coedge $-1 $321 $326 $123 $199 forward $327 $-1 #
edge $-1 $328 -19.192036464244381 $329 -16.242630073961855 $198 $330 forward 7 unknown #
loop $-1 $-1 $205 $124 #
plane-surface $-1 -15.719522639506863 -1.5446906444721193 64.223697986050794 0.71933980857756763 0 0.69465836192734942 0.69465836192734942 0 -0.71933980857756763 forward_v I I I I #
loop $-1 $-1 $331 $79 #
coedge $-1 $203 $203 $204 $332 reversed $125 $-1 #
coedge $-1 $204 $204 $203 $332 forward $127 $-1 #
coedge $-1 $205 $205 $128 $206 forward $200 $-1 #
edge $-1 $333 0 $333 6.2831853071796004 $205 $334 forward 7 unknown #
loop $-1 $-1 $212 $129 #
plane-surface $-1 -15.719522639506863 -1.5446906444721193 64.223697986050794 0.71933980857756763 0 0.69465836192734942 0.69465836192734942 0 -0.71933980857756763 forward_v I I I I #
loop $-1 $-1 $335 $82 #
coedge $-1 $210 $210 $211 $336 reversed $130 $-1 #
coedge $-1 $211 $211 $210 $336 forward $132 $-1 #
coedge $-1 $212 $212 $133 $213 forward $207 $-1 #
edge $-1 $337 0 $337 6.2831853071796004 $212 $338 forward 7 unknown #
face $-1 $339 $340 $47 $-1 $341 reversed single #
loop $-1 $-1 $342 $134 #
plane-surface $-1 42.370344625757895 9.8544693035524098 120.32042940268097 0 1 0 0.71933980857756763 0 0.69465836192734942 forward_v I I I I #
coedge $-1 $343 $344 $345 $346 reversed $135 $-1 #
coedge $-1 $219 $137 $347 $348 reversed $86 $-1 #
coedge $-1 $137 $218 $343 $349 reversed $86 $-1 #
coedge $-1 $345 $350 $137 $221 forward $351 $-1 #
edge $-1 $352 -19.192036464244381 $353 -16.242630073961855 $220 $354 forward 7 unknown #
loop $-1 $-1 $227 $138 #
plane-surface $-1 -15.719522639506863 12.885614644184809 64.223697986050794 0.71933980857756763 0 0.69465836192734942 0.69465836192734942 0 -0.71933980857756763 forward_v I I I I #
loop $-1 $-1 $355 $88 #
coedge $-1 $225 $225 $226 $356 reversed $139 $-1 #
coedge $-1 $226 $226 $225 $356 forward $141 $-1 #
coedge $-1 $227 $227 $142 $228 forward $222 $-1 #
edge $-1 $357 0 $357 6.2831853071796004 $227 $358 forward 7 unknown #
loop $-1 $-1 $234 $143 #
plane-surface $-1 -15.719522639506863 12.885614644184809 64.223697986050794 0.71933980857756763 0 0.69465836192734942 0.69465836192734942 0 -0.71933980857756763 forward_v I I I I #
loop $-1 $-1 $359 $91 #
coedge $-1 $232 $232 $233 $360 reversed $144 $-1 #
coedge $-1 $233 $233 $232 $360 forward $146 $-1 #
coedge $-1 $234 $234 $147 $235 forward $229 $-1 #
edge $-1 $361 0 $361 6.2831853071796004 $234 $362 forward 7 unknown #
face $-1 $363 $364 $50 $-1 $365 forward single #
loop $-1 $-1 $366 $148 #
plane-surface $-1 -98.467076042388072 1.4864546961602798 62.230562137416214 0 -1 0 0.71933980857756763 0 -0.69465836192734942 forward_v I I I I #
coedge $-1 $367 $368 $369 $370 reversed $149 $-1 #
coedge $-1 $241 $151 $371 $372 reversed $95 $-1 #
coedge $-1 $151 $240 $367 $373 reversed $95 $-1 #
coedge $-1 $369 $374 $151 $243 forward $364 $-1 #
edge $-1 $375 8.8563292440707073 $376 11.805735634353233 $242 $377 forward 7 unknown #
loop $-1 $-1 $249 $152 #
plane-surface $-1 -40.377208777123315 -1.5446906444721193 6.1338307207860367 -0.71933980857756763 0 0.69465836192734942 0.69465836192734942 0 0.71933980857756763 forward_v I I I I #
loop $-1 $-1 $378 $97 #
coedge $-1 $247 $247 $248 $379 reversed $153 $-1 #
coedge $-1 $248 $248 $247 $379 forward $155 $-1 #
coedge $-1 $249 $249 $156 $250 forward $244 $-1 #
edge $-1 $380 0 $380 6.2831853071796004 $249 $381 forward 7 unknown #
loop $-1 $-1 $256 $157 #
plane-surface $-1 -40.377208777123315 -1.5446906444721193 6.1338307207860367 -0.71933980857756763 0 0.69465836192734942 0.69465836192734942 0 0.71933980857756763 forward_v I I I I #
loop $-1 $-1 $382 $100 #
coedge $-1 $254 $254 $255 $383 reversed $158 $-1 #
coedge $-1 $255 $255 $254 $383 forward $160 $-1 #
coedge $-1 $256 $256 $161 $257 forward $251 $-1 #
edge $-1 $384 0 $384 6.2831853071796004 $256 $385 forward 7 unknown #
face $-1 $386 $387 $53 $-1 $388 forward single #
loop $-1 $-1 $389 $162 #
plane-surface $-1 -98.467076042388072 15.916759984817208 62.230562137416214 0 -1 0 0.71933980857756763 0 -0.69465836192734942 forward_v I I I I #
coedge $-1 $390 $391 $392 $393 reversed $163 $-1 #
coedge $-1 $263 $165 $394 $395 reversed $104 $-1 #
coedge $-1 $165 $262 $390 $396 reversed $104 $-1 #
coedge $-1 $392 $397 $165 $265 forward $387 $-1 #
edge $-1 $398 8.8563292440707073 $399 11.805735634353233 $264 $400 forward 7 unknown #
loop $-1 $-1 $271 $166 #
plane-surface $-1 -40.377208777123315 12.885614644184809 6.1338307207860367 -0.71933980857756763 0 0.69465836192734942 0.69465836192734942 0 0.71933980857756763 forward_v I I I I #
loop $-1 $-1 $401 $106 #
coedge $-1 $269 $269 $270 $402 reversed $167 $-1 #
coedge $-1 $270 $270 $269 $402 forward $169 $-1 #
coedge $-1 $271 $271 $170 $272 forward $266 $-1 #
edge $-1 $403 0 $403 6.2831853071796004 $271 $404 forward 7 unknown #
loop $-1 $-1 $278 $171 #
plane-surface $-1 -40.377208777123315 12.885614644184809 6.1338307207860367 -0.71933980857756763 0 0.69465836192734942 0.69465836192734942 0 0.71933980857756763 forward_v I I I I #
loop $-1 $-1 $405 $109 #
coedge $-1 $276 $276 $277 $406 reversed $172 $-1 #
coedge $-1 $277 $277 $276 $406 forward $174 $-1 #
coedge $-1 $278 $278 $175 $279 forward $273 $-1 #
edge $-1 $407 0 $407 6.2831853071796004 $278 $408 forward 7 unknown #
face $-1 $409 $410 $42 $-1 $411 reversed single #
loop $-1 $-1 $412 $176 #
plane-surface $-1 -40.377208777123329 0 0 1 0 0 0 0 -1 forward_v I I I I #
coedge $-1 $291 $413 $293 $414 reversed $177 $-1 #
coedge $-1 $415 $179 $413 $416 forward $113 $-1 #
coedge $-1 $179 $415 $417 $418 forward $113 $-1 #
coedge $-1 $294 $293 $179 $287 reversed $295 $-1 #
edge $-1 $419 -19.250244316422641 $420 19.250244316422641 $286 $421 forward 7 unknown #
coedge $-1 $181 $180 $422 $423 forward $71 $-1 #
coedge $-1 $424 $425 $180 $290 reversed $410 $-1 #
edge $-1 $297 -40.377208777123329 $426 40.377208777123329 $289 $427 forward 7 unknown #
coedge $-1 $428 $283 $181 $292 reversed $177 $-1 #
edge $-1 $429 -40.377208777123329 $296 40.377208777123329 $291 $430 forward 7 unknown #
coedge $-1 $286 $182 $283 $414 forward $295 $-1 #
coedge $-1 $182 $286 $424 $431 reversed $295 $-1 #
loop $-1 $-1 $293 $409 #
vertex $-1 $183 $432 #
vertex $-1 $183 $433 #
straight-curve $-1 40.377208777123329 0 9.1880305181033339 0 1 0 I I #
face $-1 $434 $435 $43 $-1 $436 reversed single #
loop $-1 $-1 $311 $184 #
plane-surface $-1 0 -24.920706316278988 -6.1880305181033339 0 0 1 1 0 0 forward_v I I I I #
coedge $-1 $437 $438 $188 $307 forward $185 $-1 #
coedge $-1 $439 $187 $438 $440 forward $117 $-1 #
coedge $-1 $187 $439 $441 $442 forward $117 $-1 #
coedge $-1 $189 $188 $187 $306 reversed $74 $-1 #
edge $-1 $443 -40.377208777123329 $444 40.377208777123329 $187 $445 forward 7 unknown #
edge $-1 $444 -9.1880305181033339 $313 -6.1880305181033339 $302 $446 forward 7 unknown #
coedge $-1 $441 $447 $189 $309 forward $448 $-1 #
edge $-1 $312 6.1880305181033339 $443 9.1880305181033339 $308 $449 forward 7 unknown #
coedge $-1 $450 $190 $447 $451 forward $300 $-1 #
coedge $-1 $190 $450 $437 $452 forward $300 $-1 #
vertex $-1 $309 $453 #
vertex $-1 $452 $454 #
straight-curve $-1 0 -19.250244316422641 -6.1880305181033339 1 0 0 I I #
face $-1 $-1 $327 $44 $-1 $455 forward single #
loop $-1 $-1 $456 $192 #
plane-surface $-1 40.377208777123329 0 0 -1 0 0 0 0 1 forward_v I I I I #
coedge $-1 $457 $458 $459 $460 reversed $193 $-1 #
coedge $-1 $461 $195 $197 $325 forward $121 $-1 #
coedge $-1 $195 $461 $457 $462 forward $121 $-1 #
coedge $-1 $459 $198 $195 $322 forward $327 $-1 #
edge $-1 $329 -2.2588000183963395 $463 3.8034906628684588 $321 $464 forward 7 unknown #
coedge $-1 $465 $466 $196 $324 forward $316 $-1 #
edge $-1 $467 -54.026383980554471 $328 -50.972184183237154 $323 $468 forward 7 unknown #
edge $-1 $329 76.508580244955084 $467 80.754417554246686 $197 $469 forward 7 unknown #
coedge $-1 $198 $459 $465 $470 forward $327 $-1 #
loop $-1 $-1 $459 $315 #
vertex $-1 $324 $471 #
vertex $-1 $199 $472 #
straight-curve $-1 21.185172312878947 1.4864546961602798 9.1880305181033322 -1 0 0 I I #
coedge $-1 $331 $331 $-1 $473 reversed $202 $-1 #
edge $-1 $474 0 $474 6.2831853071796004 $203 $475 forward 7 unknown #
vertex $-1 $206 $476 #
ellipse-curve $-1 38.902505581982062 -2.8437529333145761 7.6609306194446818 0.71933980857756763 0 0.69465836192734942 0.34732918096367471 0 -0.35966990428878381 1 I I #
coedge $-1 $335 $335 $-1 $477 reversed $209 $-1 #
edge $-1 $478 0 $478 6.2831853071796004 $210 $479 forward 7 unknown #
vertex $-1 $213 $480 #
ellipse-curve $-1 38.902505581982062 -0.24562835562966256 7.6609306194446818 0.71933980857756763 0 0.69465836192734942 0.34732918096367471 0 -0.35966990428878381 1 I I #
face $-1 $-1 $351 $47 $-1 $481 forward single #
loop $-1 $-1 $482 $214 #
plane-surface $-1 40.377208777123329 0 0 -1 0 0 0 0 1 forward_v I I I I #
coedge $-1 $483 $484 $485 $486 reversed $215 $-1 #
coedge $-1 $487 $217 $219 $349 forward $135 $-1 #
coedge $-1 $217 $487 $483 $488 forward $135 $-1 #
coedge $-1 $485 $220 $217 $346 forward $351 $-1 #
edge $-1 $353 -9.4739526627248036 $489 -3.4116619814600053 $345 $490 forward 7 unknown #
coedge $-1 $491 $492 $218 $348 forward $340 $-1 #
edge $-1 $493 -54.026383980554471 $352 -50.972184183237154 $347 $494 forward 7 unknown #
edge $-1 $353 76.508580244955084 $493 80.754417554246686 $219 $495 forward 7 unknown #
coedge $-1 $220 $485 $491 $496 forward $351 $-1 #
loop $-1 $-1 $485 $339 #
vertex $-1 $348 $497 #
vertex $-1 $221 $498 #
straight-curve $-1 21.185172312878947 15.916759984817208 9.1880305181033322 -1 0 0 I I #
coedge $-1 $355 $355 $-1 $499 reversed $224 $-1 #
edge $-1 $500 0 $500 6.2831853071796004 $225 $501 forward 7 unknown #
vertex $-1 $228 $502 #
ellipse-curve $-1 38.902505581982062 11.586552355342352 7.6609306194446818 0.71933980857756763 0 0.69465836192734942 0.34732918096367471 0 -0.35966990428878381 1 I I #
coedge $-1 $359 $359 $-1 $503 reversed $231 $-1 #
edge $-1 $504 0 $504 6.2831853071796004 $232 $505 forward 7 unknown #
vertex $-1 $235 $506 #
ellipse-curve $-1 38.902505581982062 14.184676933027266 7.6609306194446818 0.71933980857756763 0 0.69465836192734942 0.34732918096367471 0 -0.35966990428878381 1 I I #
face $-1 $-1 $507 $50 $-1 $508 reversed single #
loop $-1 $-1 $242 $236 #
plane-surface $-1 0 0 9.1880305181033339 0 0 1 1 0 0 forward_v I I I I #
coedge $-1 $509 $510 $511 $512 reversed $237 $-1 #
coedge $-1 $513 $239 $241 $373 forward $149 $-1 #
coedge $-1 $239 $513 $509 $514 forward $149 $-1 #
coedge $-1 $511 $242 $239 $370 forward $364 $-1 #
edge $-1 $376 -3.8034906628684588 $515 2.2588000183963395 $369 $516 forward 7 unknown #
coedge $-1 $517 $518 $240 $372 forward $507 $-1 #
edge $-1 $519 -24.981450347922085 $375 -21.927250550604775 $371 $520 forward 7 unknown #
edge $-1 $376 -4.2458373092915771 $519 2.0733024663016622e-014 $241 $521 forward 7 unknown #
coedge $-1 $242 $511 $517 $522 forward $364 $-1 #
vertex $-1 $372 $523 #
vertex $-1 $243 $524 #
straight-curve $-1 -49.233538021194036 -4.5758359851045185 9.1880305181033322 1 0 0 I I #
coedge $-1 $378 $378 $-1 $525 reversed $246 $-1 #
edge $-1 $526 0 $526 6.2831853071796004 $247 $527 forward 7 unknown #
vertex $-1 $250 $528 #
ellipse-curve $-1 -38.902505581982069 -2.8437529333145761 7.6609306194446782 -0.71933980857756763 0 0.69465836192734942 0.34732918096367471 0 0.35966990428878381 1 I I #
coedge $-1 $382 $382 $-1 $529 reversed $253 $-1 #
edge $-1 $530 0 $530 6.2831853071796004 $254 $531 forward 7 unknown #
vertex $-1 $257 $532 #
ellipse-curve $-1 -38.902505581982069 -0.24562835562966256 7.6609306194446782 -0.71933980857756763 0 0.69465836192734942 0.34732918096367471 0 0.35966990428878381 1 I I #
face $-1 $-1 $533 $53 $-1 $534 reversed single #
loop $-1 $-1 $264 $258 #
plane-surface $-1 0 0 9.1880305181033339 0 0 1 1 0 0 forward_v I I I I #
coedge $-1 $535 $536 $537 $538 reversed $259 $-1 #
coedge $-1 $539 $261 $263 $396 forward $163 $-1 #
coedge $-1 $261 $539 $535 $540 forward $163 $-1 #
coedge $-1 $537 $264 $261 $393 forward $387 $-1 #
edge $-1 $399 3.4116619814600053 $541 9.4739526627248036 $392 $542 forward 7 unknown #
coedge $-1 $543 $544 $262 $395 forward $533 $-1 #
edge $-1 $545 -24.981450347922085 $398 -21.927250550604775 $394 $546 forward 7 unknown #
edge $-1 $399 -4.2458373092915771 $545 2.0733024663016622e-014 $263 $547 forward 7 unknown #
coedge $-1 $264 $537 $543 $548 forward $387 $-1 #
vertex $-1 $265 $549 #
vertex $-1 $265 $550 #
straight-curve $-1 -49.233538021194036 9.8544693035524098 9.1880305181033322 1 0 0 I I #
coedge $-1 $401 $401 $-1 $551 reversed $268 $-1 #
edge $-1 $552 0 $552 6.2831853071796004 $269 $553 forward 7 unknown #
vertex $-1 $272 $554 #
ellipse-curve $-1 -38.902505581982069 11.586552355342352 7.6609306194446782 -0.71933980857756763 0 0.69465836192734942 0.34732918096367471 0 0.35966990428878381 1 I I #
coedge $-1 $405 $405 $-1 $555 reversed $275 $-1 #
edge $-1 $556 0 $556 6.2831853071796004 $276 $557 forward 7 unknown #
vertex $-1 $279 $558 #
ellipse-curve $-1 -38.902505581982069 14.184676933027266 7.6609306194446782 -0.71933980857756763 0 0.69465836192734942 0.34732918096367471 0 0.35966990428878381 1 I I #
face $-1 $-1 $295 $42 $-1 $559 reversed single #
loop $-1 $-1 $424 $280 #
plane-surface $-1 0 19.250244316422641 0 0 -1 0 0 0 -1 forward_v I I I I #
coedge $-1 $560 $422 $425 $561 forward $281 $-1 #
coedge $-1 $283 $428 $284 $416 reversed $177 $-1 #
edge $-1 $296 -9.1880305181033339 $420 9.1880305181033339 $293 $562 forward 7 unknown #
coedge $-1 $285 $284 $560 $563 forward $113 $-1 #
edge $-1 $420 -40.377208777123329 $564 40.377208777123329 $413 $565 forward 7 unknown #
coedge $-1 $425 $424 $285 $418 reversed $410 $-1 #
edge $-1 $566 -40.377208777123329 $419 40.377208777123329 $417 $567 forward 7 unknown #
vertex $-1 $287 $568 #
vertex $-1 $414 $569 #
straight-curve $-1 40.377208777123329 0 -9.1880305181033339 0 -1 0 I I #
coedge $-1 $412 $570 $288 $423 reversed $281 $-1 #
edge $-1 $426 -19.250244316422641 $429 19.250244316422641 $422 $571 forward 7 unknown #
coedge $-1 $417 $289 $294 $431 forward $410 $-1 #
coedge $-1 $289 $417 $412 $561 reversed $410 $-1 #
vertex $-1 $290 $572 #
straight-curve $-1 0 19.250244316422641 9.1880305181033339 -1 0 0 I I #
coedge $-1 $413 $291 $570 $573 forward $177 $-1 #
vertex $-1 $423 $574 #
straight-curve $-1 0 -19.250244316422641 9.1880305181033339 1 0 0 I I #
edge $-1 $297 -9.1880305181033339 $419 9.1880305181033339 $294 $575 forward 7 unknown #
point $-1 40.377208777123329 -19.250244316422641 9.1880305181033339 #
point $-1 40.377208777123329 19.250244316422641 9.1880305181033339 #
face $-1 $-1 $448 $43 $-1 $576 reversed single #
loop $-1 $-1 $577 $299 #
plane-surface $-1 0 -30.591168316135334 -7.6880305181033339 0 1 0 0 0 1 forward_v I I I I #
coedge $-1 $578 $302 $311 $452 reversed $185 $-1 #
coedge $-1 $302 $578 $303 $440 reversed $185 $-1 #
coedge $-1 $304 $303 $579 $580 forward $117 $-1 #
edge $-1 $444 19.250244316422641 $581 30.591168316135334 $438 $582 forward 7 unknown #
coedge $-1 $583 $308 $304 $442 reversed $448 $-1 #
edge $-1 $584 -30.591168316135334 $443 -19.250244316422641 $441 $585 forward 7 unknown #
vertex $-1 $309 $586 #
vertex $-1 $440 $587 #
straight-curve $-1 0 -19.250244316422641 -9.1880305181033339 1 0 0 I I #
straight-curve $-1 40.377208777123329 -19.250244316422641 0 0 0 1 I I #
coedge $-1 $308 $583 $310 $451 reversed $448 $-1 #
loop $-1 $-1 $308 $434 #
straight-curve $-1 -40.377208777123329 -19.250244316422641 0 0 0 -1 I I #
coedge $-1 $311 $310 $588 $589 forward $300 $-1 #
edge $-1 $312 -5.6704619998563466 $590 5.6704619998563466 $447 $591 forward 7 unknown #
edge $-1 $592 -5.6704619998563466 $313 5.6704619998563466 $437 $593 forward 7 unknown #
point $-1 -40.377208777123329 -19.250244316422641 -6.1880305181033339 #
point $-1 40.377208777123329 -19.250244316422641 -6.1880305181033339 #
plane-surface $-1 0 0 9.1880305181033339 0 0 1 1 0 0 forward_v I I I I #
coedge $-1 $466 $465 $458 $594 forward $316 $-1 #
coedge $-1 $458 $318 $320 $462 reversed $193 $-1 #
coedge $-1 $318 $457 $456 $594 reversed $193 $-1 #
coedge $-1 $326 $321 $318 $460 forward $327 $-1 #
edge $-1 $463 16.242630073961855 $595 19.192036464244381 $459 $596 forward 7 unknown #
coedge $-1 $320 $319 $466 $597 reversed $121 $-1 #
edge $-1 $598 -80.754417554246686 $463 -76.508580244955084 $457 $599 forward 7 unknown #
vertex $-1 $322 $600 #
straight-curve $-1 37.427802386840803 -0.77234532223605967 9.1880305181033393 0 -1 0 I I #
coedge $-1 $456 $323 $326 $470 reversed $316 $-1 #
coedge $-1 $323 $456 $461 $597 forward $316 $-1 #
vertex $-1 $324 $601 #
straight-curve $-1 40.377208777123329 1.4864546961602798 60.160214701340486 0 0 1 I I #
straight-curve $-1 -15.719522639506863 1.4864546961602798 64.223697986050794 0.69465836192734942 0 -0.71933980857756763 I I #
edge $-1 $595 -4.5758359851045185 $328 1.4864546961602798 $465 $602 forward 7 unknown #
point $-1 40.377208777123329 1.4864546961602798 9.1880305181033339 #
point $-1 37.427802386840803 1.4864546961602798 9.1880305181033322 #
edge $-1 $603 1 $603 0 $331 $-1 forward 7 unknown #
vertex $-1 $332 $604 #
ellipse-curve $-1 37.464978506712072 -2.8437529333145761 6.2727268923245427 0.71933980857756763 0 0.69465836192734942 0.34732918096367471 0 -0.35966990428878381 1 I I #
point $-1 39.249834762945746 -2.8437529333145761 7.3012607151559017 #
edge $-1 $605 1 $605 0 $335 $-1 forward 7 unknown #
vertex $-1 $336 $606 #
ellipse-curve $-1 37.464978506712072 -0.24562835562966256 6.2727268923245427 0.71933980857756763 0 0.69465836192734942 0.34732918096367471 0 -0.35966990428878381 1 I I #
point $-1 39.249834762945746 -0.24562835562966256 7.3012607151559017 #
plane-surface $-1 0 0 9.1880305181033339 0 0 1 1 0 0 forward_v I I I I #
coedge $-1 $492 $491 $484 $607 forward $340 $-1 #
coedge $-1 $484 $342 $344 $488 reversed $215 $-1 #
coedge $-1 $342 $483 $482 $607 reversed $215 $-1 #
coedge $-1 $350 $345 $342 $486 forward $351 $-1 #
edge $-1 $489 16.242630073961855 $608 19.192036464244381 $485 $609 forward 7 unknown #
coedge $-1 $344 $343 $492 $610 reversed $135 $-1 #
edge $-1 $611 -80.754417554246686 $489 -76.508580244955084 $483 $612 forward 7 unknown #
vertex $-1 $346 $613 #
straight-curve $-1 37.427802386840803 6.4428073220924045 9.1880305181033393 0 -1 0 I I #
coedge $-1 $482 $347 $350 $496 reversed $340 $-1 #
coedge $-1 $347 $482 $487 $610 forward $340 $-1 #
vertex $-1 $348 $614 #
straight-curve $-1 40.377208777123329 15.916759984817208 60.160214701340486 0 0 1 I I #
straight-curve $-1 -15.719522639506863 15.916759984817208 64.223697986050794 0.69465836192734942 0 -0.71933980857756763 I I #
edge $-1 $608 9.8544693035524098 $352 15.916759984817208 $491 $615 forward 7 unknown #
point $-1 40.377208777123329 15.916759984817208 9.1880305181033339 #
point $-1 37.427802386840803 15.916759984817208 9.1880305181033322 #
edge $-1 $616 1 $616 0 $355 $-1 forward 7 unknown #
vertex $-1 $356 $617 #
ellipse-curve $-1 37.464978506712072 11.586552355342352 6.2727268923245427 0.71933980857756763 0 0.69465836192734942 0.34732918096367471 0 -0.35966990428878381 1 I I #
point $-1 39.249834762945746 11.586552355342352 7.3012607151559017 #
edge $-1 $618 1 $618 0 $359 $-1 forward 7 unknown #
vertex $-1 $360 $619 #
ellipse-curve $-1 37.464978506712072 14.184676933027266 6.2727268923245427 0.71933980857756763 0 0.69465836192734942 0.34732918096367471 0 -0.35966990428878381 1 I I #
point $-1 39.249834762945746 14.184676933027266 7.3012607151559017 #
loop $-1 $-1 $371 $363 #
plane-surface $-1 -40.377208777123329 0 0 1 0 0 0 0 -1 forward_v I I I I #
coedge $-1 $510 $366 $368 $514 reversed $237 $-1 #
coedge $-1 $366 $509 $620 $621 reversed $237 $-1 #
coedge $-1 $374 $369 $366 $512 forward $364 $-1 #
edge $-1 $515 -11.805735634353233 $622 -8.8563292440707073 $511 $623 forward 7 unknown #
coedge $-1 $368 $367 $518 $624 reversed $149 $-1 #
edge $-1 $625 -2.0733024663016622e-014 $515 4.2458373092915771 $509 $626 forward 7 unknown #
vertex $-1 $370 $627 #
straight-curve $-1 -37.427802386840803 -0.77234532223605967 9.1880305181033357 0 1 0 I I #
coedge $-1 $620 $371 $374 $522 reversed $507 $-1 #
coedge $-1 $371 $620 $513 $624 forward $507 $-1 #
vertex $-1 $372 $628 #
straight-curve $-1 -40.377208777123329 -4.5758359851045185 31.115281068708107 0 0 1 I I #
straight-curve $-1 -40.377208777123315 -4.5758359851045185 6.1338307207860367 -0.69465836192734942 0 -0.71933980857756763 I I #
edge $-1 $622 -1.4864546961602798 $375 4.5758359851045185 $517 $629 forward 7 unknown #
point $-1 -40.377208777123329 -4.5758359851045185 9.1880305181033339 #
point $-1 -37.427802386840803 -4.5758359851045185 9.1880305181033339 #
edge $-1 $630 1 $630 0 $378 $-1 forward 7 unknown #
vertex $-1 $379 $631 #
ellipse-curve $-1 -37.464978506712079 -2.8437529333145761 6.2727268923245445 -0.71933980857756763 0 0.69465836192734942 0.34732918096367471 0 0.35966990428878381 1 I I #
point $-1 -38.5551764010184 -2.8437529333145761 8.0206005237334708 #
edge $-1 $632 1 $632 0 $382 $-1 forward 7 unknown #
vertex $-1 $383 $633 #
ellipse-curve $-1 -37.464978506712079 -0.24562835562966256 6.2727268923245445 -0.71933980857756763 0 0.69465836192734942 0.34732918096367471 0 0.35966990428878381 1 I I #
point $-1 -38.5551764010184 -0.24562835562966256 8.0206005237334708 #
loop $-1 $-1 $394 $386 #
plane-surface $-1 -40.377208777123329 0 0 1 0 0 0 0 -1 forward_v I I I I #
coedge $-1 $536 $389 $391 $540 reversed $259 $-1 #
coedge $-1 $389 $535 $634 $635 reversed $259 $-1 #
coedge $-1 $397 $392 $389 $538 forward $387 $-1 #
edge $-1 $541 -11.805735634353233 $636 -8.8563292440707073 $537 $637 forward 7 unknown #
coedge $-1 $391 $390 $544 $638 reversed $163 $-1 #
edge $-1 $639 -2.0733024663016622e-014 $541 4.2458373092915771 $535 $640 forward 7 unknown #
vertex $-1 $393 $641 #
straight-curve $-1 -37.427802386840803 6.4428073220924045 9.1880305181033357 0 1 0 I I #
coedge $-1 $634 $394 $397 $548 reversed $533 $-1 #
coedge $-1 $394 $634 $539 $638 forward $533 $-1 #
vertex $-1 $395 $642 #
straight-curve $-1 -40.377208777123329 9.8544693035524098 31.115281068708107 0 0 1 I I #
straight-curve $-1 -40.377208777123315 9.8544693035524098 6.1338307207860367 -0.69465836192734942 0 -0.71933980857756763 I I #
edge $-1 $636 -15.916759984817208 $398 -9.8544693035524098 $543 $643 forward 7 unknown #
point $-1 -40.377208777123329 9.8544693035524098 9.1880305181033339 #
point $-1 -37.427802386840803 9.8544693035524098 9.1880305181033339 #
edge $-1 $644 1 $644 0 $401 $-1 forward 7 unknown #
vertex $-1 $402 $645 #
ellipse-curve $-1 -37.464978506712079 11.586552355342352 6.2727268923245445 -0.71933980857756763 0 0.69465836192734942 0.34732918096367471 0 0.35966990428878381 1 I I #
point $-1 -38.5551764010184 11.586552355342352 8.0206005237334708 #
edge $-1 $646 1 $646 0 $405 $-1 forward 7 unknown #
vertex $-1 $406 $647 #
ellipse-curve $-1 -37.464978506712079 14.184676933027266 6.2727268923245445 -0.71933980857756763 0 0.69465836192734942 0.34732918096367471 0 0.35966990428878381 1 I I #
point $-1 -38.5551764010184 14.184676933027266 8.0206005237334708 #
plane-surface $-1 40.377208777123329 0 0 -1 0 0 0 0 1 forward_v I I I I #
coedge $-1 $570 $412 $415 $563 reversed $281 $-1 #
edge $-1 $426 -9.1880305181033339 $566 9.1880305181033339 $425 $648 forward 7 unknown #
straight-curve $-1 40.377208777123329 -19.250244316422641 0 0 0 -1 I I #
edge $-1 $564 -19.250244316422641 $566 19.250244316422641 $560 $649 forward 7 unknown #
vertex $-1 $563 $650 #
straight-curve $-1 0 -19.250244316422641 -9.1880305181033339 -1 0 0 I I #
vertex $-1 $418 $651 #
straight-curve $-1 0 19.250244316422641 -9.1880305181033339 1 0 0 I I #
point $-1 40.377208777123329 19.250244316422641 -9.1880305181033339 #
point $-1 40.377208777123329 -19.250244316422641 -9.1880305181033339 #
coedge $-1 $422 $560 $428 $573 reversed $281 $-1 #
straight-curve $-1 -40.377208777123329 0 9.1880305181033339 0 -1 0 I I #
point $-1 -40.377208777123329 19.250244316422641 9.1880305181033339 #
edge $-1 $429 -9.1880305181033339 $564 9.1880305181033339 $570 $652 forward 7 unknown #
point $-1 -40.377208777123329 -19.250244316422641 9.1880305181033339 #
straight-curve $-1 40.377208777123329 19.250244316422641 0 0 0 -1 I I #
plane-surface $-1 -40.377208777123329 0 0 1 0 0 0 0 -1 forward_v I I I I #
coedge $-1 $579 $588 $583 $653 forward $435 $-1 #
coedge $-1 $438 $437 $654 $655 forward $185 $-1 #
coedge $-1 $654 $577 $439 $580 reversed $435 $-1 #
edge $-1 $581 -40.377208777123329 $584 40.377208777123329 $579 $656 forward 7 unknown #
vertex $-1 $655 $657 #
straight-curve $-1 40.377208777123329 0 -9.1880305181033339 0 -1 0 I I #
coedge $-1 $447 $441 $577 $653 reversed $448 $-1 #
vertex $-1 $442 $658 #
straight-curve $-1 -40.377208777123329 0 -9.1880305181033339 0 1 0 I I #
point $-1 -40.377208777123329 -19.250244316422641 -9.1880305181033339 #
point $-1 40.377208777123329 -19.250244316422641 -9.1880305181033339 #
coedge $-1 $577 $654 $450 $589 reversed $435 $-1 #
edge $-1 $590 -40.377208777123329 $592 40.377208777123329 $588 $659 forward 7 unknown #
vertex $-1 $451 $660 #
straight-curve $-1 -40.377208777123329 -24.920706316278988 -6.1880305181033339 0 -1 0 I I #
vertex $-1 $452 $661 #
straight-curve $-1 40.377208777123329 -24.920706316278988 -6.1880305181033339 0 1 0 I I #
edge $-1 $595 50.972184183237154 $598 54.026383980554471 $456 $662 forward 7 unknown #
vertex $-1 $470 $663 #
straight-curve $-1 21.185172312878947 -4.5758359851045185 9.1880305181033322 1 0 0 I I #
edge $-1 $598 -3.8034906628684588 $467 2.2588000183963395 $466 $664 forward 7 unknown #
vertex $-1 $597 $665 #
straight-curve $-1 -15.719522639506863 -4.5758359851045185 64.223697986050794 -0.69465836192734942 0 0.71933980857756763 I I #
point $-1 37.427802386840803 -4.5758359851045185 9.1880305181033322 #
point $-1 40.377208777123329 1.4864546961602798 6.1338307207860154 #
straight-curve $-1 40.377208777123329 0 9.1880305181033339 0 1 0 I I #
vertex $-1 $473 $666 #
point $-1 37.812307687675748 -2.8437529333145761 5.9130569880357591 #
vertex $-1 $477 $667 #
point $-1 37.812307687675748 -0.24562835562966256 5.9130569880357591 #
edge $-1 $608 50.972184183237154 $611 54.026383980554471 $482 $668 forward 7 unknown #
vertex $-1 $496 $669 #
straight-curve $-1 21.185172312878947 9.8544693035524098 9.1880305181033322 1 0 0 I I #
edge $-1 $611 3.4116619814600053 $493 9.4739526627248036 $492 $670 forward 7 unknown #
vertex $-1 $610 $671 #
straight-curve $-1 -15.719522639506863 9.8544693035524098 64.223697986050794 -0.69465836192734942 0 0.71933980857756763 I I #
point $-1 37.427802386840803 9.8544693035524098 9.1880305181033322 #
point $-1 40.377208777123329 15.916759984817208 6.1338307207860154 #
straight-curve $-1 40.377208777123329 0 9.1880305181033339 0 1 0 I I #
vertex $-1 $499 $672 #
point $-1 37.812307687675748 11.586552355342352 5.9130569880357591 #
vertex $-1 $503 $673 #
point $-1 37.812307687675748 14.184676933027266 5.9130569880357591 #
coedge $-1 $518 $517 $510 $621 forward $507 $-1 #
edge $-1 $622 21.927250550604775 $625 24.981450347922085 $620 $674 forward 7 unknown #
vertex $-1 $522 $675 #
straight-curve $-1 -49.233538021194036 1.4864546961602798 9.1880305181033322 -1 0 0 I I #
edge $-1 $625 -2.2588000183963395 $519 3.8034906628684588 $518 $676 forward 7 unknown #
vertex $-1 $624 $677 #
straight-curve $-1 -40.377208777123315 1.4864546961602798 6.1338307207860367 0.69465836192734942 0 0.71933980857756763 I I #
point $-1 -37.427802386840803 1.4864546961602798 9.1880305181033339 #
point $-1 -40.377208777123329 -4.5758359851045185 6.1338307207860217 #
straight-curve $-1 -40.377208777123329 0 9.1880305181033339 0 -1 0 I I #
vertex $-1 $525 $678 #
point $-1 -37.11764932574841 -2.8437529333145761 6.6323967966133281 #
vertex $-1 $529 $679 #
point $-1 -37.11764932574841 -0.24562835562966256 6.6323967966133281 #
coedge $-1 $544 $543 $536 $635 forward $533 $-1 #
edge $-1 $636 21.927250550604775 $639 24.981450347922085 $634 $680 forward 7 unknown #
vertex $-1 $548 $681 #
straight-curve $-1 -49.233538021194036 15.916759984817208 9.1880305181033322 -1 0 0 I I #
edge $-1 $639 -9.4739526627248036 $545 -3.4116619814600053 $544 $682 forward 7 unknown #
vertex $-1 $638 $683 #
straight-curve $-1 -40.377208777123315 15.916759984817208 6.1338307207860367 0.69465836192734942 0 0.71933980857756763 I I #
point $-1 -37.427802386840803 15.916759984817208 9.1880305181033339 #
point $-1 -40.377208777123329 9.8544693035524098 6.1338307207860217 #
straight-curve $-1 -40.377208777123329 0 9.1880305181033339 0 -1 0 I I #
vertex $-1 $551 $684 #
point $-1 -37.11764932574841 11.586552355342352 6.6323967966133281 #
vertex $-1 $555 $685 #
point $-1 -37.11764932574841 14.184676933027266 6.6323967966133281 #
straight-curve $-1 -40.377208777123329 19.250244316422641 0 0 0 -1 I I #
straight-curve $-1 -40.377208777123329 0 -9.1880305181033339 0 1 0 I I #
point $-1 -40.377208777123329 -19.250244316422641 -9.1880305181033339 #
point $-1 -40.377208777123329 19.250244316422641 -9.1880305181033339 #
straight-curve $-1 -40.377208777123329 -19.250244316422641 0 0 0 -1 I I #
edge $-1 $590 -1.5 $584 1.5 $583 $686 forward 7 unknown #
coedge $-1 $588 $579 $578 $655 reversed $435 $-1 #
edge $-1 $592 -1.5 $581 1.5 $578 $687 forward 7 unknown #
straight-curve $-1 0 -30.591168316135334 -9.1880305181033339 -1 0 0 I I #
point $-1 40.377208777123329 -30.591168316135334 -9.1880305181033339 #
point $-1 -40.377208777123329 -30.591168316135334 -9.1880305181033339 #
straight-curve $-1 0 -30.591168316135334 -6.1880305181033339 1 0 0 I I #
point $-1 -40.377208777123329 -30.591168316135334 -6.1880305181033339 #
point $-1 40.377208777123329 -30.591168316135334 -6.1880305181033339 #
straight-curve $-1 40.377208777123329 -4.5758359851045185 60.160214701340486 0 0 -1 I I #
point $-1 40.377208777123329 -4.5758359851045185 9.1880305181033339 #
straight-curve $-1 40.377208777123329 -0.77234532223605967 6.133830720786019 0 1 0 I I #
point $-1 40.377208777123329 -4.5758359851045185 6.1338307207860154 #
point $-1 37.105308602423293 -2.8437529333145761 5.9253977113608682 #
point $-1 37.105308602423293 -0.24562835562966256 5.9253977113608682 #
straight-curve $-1 40.377208777123329 9.8544693035524098 60.160214701340486 0 0 -1 I I #
point $-1 40.377208777123329 9.8544693035524098 9.1880305181033339 #
straight-curve $-1 40.377208777123329 6.4428073220924045 6.133830720786019 0 1 0 I I #
point $-1 40.377208777123329 9.8544693035524098 6.1338307207860154 #
point $-1 37.105308602423293 11.586552355342352 5.9253977113608682 #
point $-1 37.105308602423293 14.184676933027266 5.9253977113608682 #
straight-curve $-1 -40.377208777123329 1.4864546961602798 31.115281068708107 0 0 -1 I I #
point $-1 -40.377208777123329 1.4864546961602798 9.1880305181033339 #
straight-curve $-1 -40.377208777123329 -0.77234532223605967 6.1338307207860181 0 -1 0 I I #
point $-1 -40.377208777123329 1.4864546961602798 6.1338307207860217 #
point $-1 -37.1053086024233 -2.8437529333145761 5.92539771136087 #
point $-1 -37.1053086024233 -0.24562835562966256 5.92539771136087 #
straight-curve $-1 -40.377208777123329 15.916759984817208 31.115281068708107 0 0 -1 I I #
point $-1 -40.377208777123329 15.916759984817208 9.1880305181033339 #
straight-curve $-1 -40.377208777123329 6.4428073220924045 6.1338307207860181 0 -1 0 I I #
point $-1 -40.377208777123329 15.916759984817208 6.1338307207860217 #
point $-1 -37.1053086024233 11.586552355342352 5.92539771136087 #
point $-1 -37.1053086024233 14.184676933027266 5.92539771136087 #
straight-curve $-1 -40.377208777123329 -30.591168316135334 -7.6880305181033339 0 0 -1 I I #
straight-curve $-1 40.377208777123329 -30.591168316135334 -7.6880305181033339 0 0 -1 I I #
End-of-ACIS-data 