500 0 15 0           
7 Unknown 11 ACIS 5.0 NT 24 Fri Mar 26 20:26:44 1999 
-1 9.9999999999999995e-007 1e-010 
body $-1 $15 $-1 $16 #
body $-1 $17 $-1 $18 #
body $-1 $19 $-1 $20 #
body $-1 $21 $-1 $22 #
body $-1 $23 $-1 $24 #
body $-1 $25 $-1 $26 #
body $-1 $27 $-1 $28 #
body $-1 $29 $-1 $30 #
body $-1 $31 $-1 $32 #
body $-1 $33 $-1 $34 #
body $-1 $35 $-1 $36 #
body $-1 $37 $-1 $38 #
body $-1 $39 $-1 $40 #
body $-1 $41 $-1 $42 #
body $-1 $43 $-1 $44 #
lump $-1 $-1 $45 $0 #
transform $-1 1 0 0 0 1 0 0 0 1 68.106326487014371 43.904438765155589 17.554674046500626 1 rotate no_reflect no_shear #
lump $-1 $-1 $46 $1 #
transform $-1 1 0 0 0 1 0 0 0 1 68.106326487014371 43.904438765155589 17.554674046500626 1 rotate no_reflect no_shear #
lump $-1 $-1 $47 $2 #
transform $-1 1 0 0 0 1 0 0 0 1 68.106326487014371 43.904438765155589 17.554674046500626 1 rotate no_reflect no_shear #
lump $-1 $-1 $48 $3 #
transform $-1 1 0 0 0 1 0 0 0 1 68.106326487014371 43.904438765155589 17.554674046500626 1 rotate no_reflect no_shear #
lump $-1 $-1 $49 $4 #
transform $-1 1 0 0 0 1 0 0 0 1 68.106326487014371 43.904438765155589 17.554674046500626 1 rotate no_reflect no_shear #
lump $-1 $-1 $50 $5 #
transform $-1 1 0 0 0 1 0 0 0 1 68.106326487014371 43.904438765155589 17.554674046500626 1 rotate no_reflect no_shear #
lump $-1 $-1 $51 $6 #
transform $-1 1 0 0 0 1 0 0 0 1 68.106326487014371 43.904438765155589 17.554674046500626 1 rotate no_reflect no_shear #
lump $-1 $-1 $52 $7 #
transform $-1 1 0 0 0 1 0 0 0 1 68.106326487014371 43.904438765155589 17.554674046500626 1 rotate no_reflect no_shear #
lump $-1 $-1 $53 $8 #
transform $-1 1 0 0 0 1 0 0 0 1 68.106326487014371 43.904438765155589 17.554674046500626 1 rotate no_reflect no_shear #
lump $-1 $-1 $54 $9 #
transform $-1 1 0 0 0 1 0 0 0 1 68.106326487014371 43.904438765155589 17.554674046500626 1 rotate no_reflect no_shear #
lump $-1 $-1 $55 $10 #
transform $-1 1 0 0 0 1 0 0 0 1 68.106326487014371 43.904438765155589 17.554674046500626 1 rotate no_reflect no_shear #
lump $-1 $-1 $56 $11 #
transform $-1 1 0 0 0 1 0 0 0 1 68.106326487014371 43.904438765155589 17.554674046500626 1 rotate no_reflect no_shear #
lump $-1 $-1 $57 $12 #
transform $-1 1 0 0 0 1 0 0 0 1 68.106326487014371 43.904438765155589 17.554674046500626 1 rotate no_reflect no_shear #
lump $-1 $-1 $58 $13 #
transform $-1 1 0 0 0 1 0 0 0 1 68.106326487014371 43.904438765155589 17.554674046500626 1 rotate no_reflect no_shear #
lump $-1 $-1 $59 $14 #
transform $-1 1 0 0 0 1 0 0 0 1 68.106326487014371 43.904438765155589 17.554674046500626 1 rotate no_reflect no_shear #
shell $-1 $-1 $-1 $60 $-1 $15 #
shell $-1 $-1 $-1 $61 $-1 $17 #
shell $-1 $-1 $-1 $62 $-1 $19 #
shell $-1 $-1 $-1 $63 $-1 $21 #
shell $-1 $-1 $-1 $64 $-1 $23 #
shell $-1 $-1 $-1 $65 $-1 $25 #
shell $-1 $-1 $-1 $66 $-1 $27 #
shell $-1 $-1 $-1 $67 $-1 $29 #
shell $-1 $-1 $-1 $68 $-1 $31 #
shell $-1 $-1 $-1 $69 $-1 $33 #
shell $-1 $-1 $-1 $70 $-1 $35 #
shell $-1 $-1 $-1 $71 $-1 $37 #
shell $-1 $-1 $-1 $72 $-1 $39 #
shell $-1 $-1 $-1 $73 $-1 $41 #
shell $-1 $-1 $-1 $74 $-1 $43 #
face $-1 $75 $76 $45 $-1 $77 reversed single #
face $-1 $78 $79 $46 $-1 $80 forward single #
face $-1 $81 $82 $47 $-1 $83 forward single #
face $-1 $84 $85 $48 $-1 $86 reversed single #
face $-1 $87 $88 $49 $-1 $89 forward single #
face $-1 $90 $91 $50 $-1 $92 forward single #
face $-1 $93 $94 $51 $-1 $95 reversed single #
face $-1 $96 $97 $52 $-1 $98 forward single #
face $-1 $99 $100 $53 $-1 $101 forward single #
face $-1 $102 $103 $54 $-1 $104 reversed single #
face $-1 $105 $106 $55 $-1 $107 forward single #
face $-1 $108 $109 $56 $-1 $110 forward single #
face $-1 $111 $112 $57 $-1 $113 reversed single #
face $-1 $114 $115 $58 $-1 $116 forward single #
face $-1 $117 $118 $59 $-1 $119 forward single #
face $-1 $120 $121 $45 $-1 $122 reversed single #
loop $-1 $-1 $123 $60 #
plane-surface $-1 68.106326487014371 0 0 -1 0 0 0 0 1 forward_v I I I I #
face $-1 $124 $125 $46 $-1 $126 reversed single #
loop $-1 $-1 $127 $61 #
plane-surface $-1 -68.106326487014371 0 0 1 0 0 0 0 -1 forward_v I I I I #
face $-1 $128 $129 $47 $-1 $130 reversed single #
loop $-1 $-1 $131 $62 #
plane-surface $-1 68.106326487014371 0 0 -1 0 0 0 0 1 forward_v I I I I #
face $-1 $132 $133 $48 $-1 $134 reversed single #
loop $-1 $-1 $135 $63 #
plane-surface $-1 -37.524570521156015 61.38552586807559 174.82064196268732 1 0 0 0 -0.62932039886446345 -0.77714595512881146 forward_v I I I I #
face $-1 $136 $137 $49 $-1 $138 forward single #
loop $-1 $139 $140 $64 #
cone-surface $-1 -33.017153194683345 39.842957313227203 13.550010097985208 0 -0.62932039886446345 -0.77714595512881146 1.5 0 0 1 I I 0 1 1.5 forward I I I I #
face $-1 $141 $142 $50 $-1 $143 forward single #
loop $-1 $144 $145 $65 #
cone-surface $-1 -26.256027204974345 39.842957313227203 13.550010097985208 0 -0.62932039886446345 -0.77714595512881146 1.5 0 0 1 I I 0 1 1.5 forward I I I I #
face $-1 $146 $147 $51 $-1 $148 reversed single #
loop $-1 $-1 $149 $66 #
plane-surface $-1 21.748609878501675 61.38552586807559 174.82064196268732 1 0 0 0 -0.62932039886446345 -0.77714595512881146 forward_v I I I I #
face $-1 $150 $151 $52 $-1 $152 forward single #
loop $-1 $153 $154 $67 #
cone-surface $-1 26.256027204974345 39.842957313227203 13.550010097985208 0 -0.62932039886446345 -0.77714595512881146 1.5 0 0 1 I I 0 1 1.5 forward I I I I #
face $-1 $155 $156 $53 $-1 $157 forward single #
loop $-1 $158 $159 $68 #
cone-surface $-1 33.017153194683345 39.842957313227203 13.550010097985208 0 -0.62932039886446345 -0.77714595512881146 1.5 0 0 1 I I 0 1 1.5 forward I I I I #
face $-1 $160 $161 $54 $-1 $162 reversed single #
loop $-1 $-1 $163 $69 #
plane-surface $-1 -21.748609878501675 -129.6258398651581 119.56072413147106 -1 0 0 0 -0.62932039886446345 0.77714595512881146 forward_v I I I I #
face $-1 $164 $165 $55 $-1 $166 forward single #
loop $-1 $167 $168 $70 #
cone-surface $-1 -33.017153194683345 -39.842957313227203 13.550010097985215 0 0.62932039886446345 -0.77714595512881146 1.5 0 0 1 I I 0 1 1.5 forward I I I I #
face $-1 $169 $170 $56 $-1 $171 forward single #
loop $-1 $172 $173 $71 #
cone-surface $-1 -26.256027204974345 -39.842957313227203 13.550010097985215 0 0.62932039886446345 -0.77714595512881146 1.5 0 0 1 I I 0 1 1.5 forward I I I I #
face $-1 $174 $175 $57 $-1 $176 reversed single #
loop $-1 $-1 $177 $72 #
plane-surface $-1 37.524570521156015 -129.6258398651581 119.56072413147106 -1 0 0 0 -0.62932039886446345 0.77714595512881146 forward_v I I I I #
face $-1 $178 $179 $58 $-1 $180 forward single #
loop $-1 $181 $182 $73 #
cone-surface $-1 26.256027204974345 -39.842957313227203 13.550010097985215 0 0.62932039886446345 -0.77714595512881146 1.5 0 0 1 I I 0 1 1.5 forward I I I I #
face $-1 $183 $184 $59 $-1 $185 forward single #
loop $-1 $186 $187 $74 #
cone-surface $-1 33.017153194683345 -39.842957313227203 13.550010097985215 0 0.62932039886446345 -0.77714595512881146 1.5 0 0 1 I I 0 1 1.5 forward I I I I #
face $-1 $188 $189 $45 $-1 $190 forward single #
loop $-1 $-1 $191 $75 #
plane-surface $-1 -68.106326487014371 0 0 1 0 0 0 0 -1 forward_v I I I I #
coedge $-1 $192 $193 $194 $195 reversed $76 $-1 #
face $-1 $196 $197 $46 $-1 $198 reversed single #
loop $-1 $-1 $199 $78 #
plane-surface $-1 0 0 -17.554674046500626 0 0 1 1 0 0 forward_v I I I I #
coedge $-1 $200 $201 $202 $203 forward $79 $-1 #
face $-1 $204 $205 $47 $-1 $206 reversed single #
loop $-1 $-1 $207 $81 #
plane-surface $-1 0 0 -17.554674046500626 0 0 1 1 0 0 forward_v I I I I #
coedge $-1 $208 $209 $210 $211 forward $82 $-1 #
face $-1 $212 $213 $48 $-1 $214 reversed single #
loop $-1 $-1 $215 $84 #
plane-surface $-1 -29.636590199828845 -24.33587523192692 68.963529666556411 0 0.62932039886446345 0.77714595512881146 1 0 0 forward_v I I I I #
coedge $-1 $216 $217 $218 $219 reversed $85 $-1 #
face $-1 $-1 $220 $49 $-1 $221 forward single #
loop $-1 $222 $223 $87 #
cone-surface $-1 -33.017153194683345 37.687318400362145 10.888017788703419 0 -0.62932039886446345 -0.77714595512881146 0.75 0 0 1 I I -0.70710678118654757 0.70710678118654757 0.75 forward I I I I #
loop $-1 $-1 $224 $64 #
coedge $-1 $140 $140 $225 $226 reversed $88 $-1 #
face $-1 $-1 $227 $50 $-1 $228 forward single #
loop $-1 $229 $230 $90 #
cone-surface $-1 -26.256027204974345 37.687318400362145 10.888017788703419 0 -0.62932039886446345 -0.77714595512881146 0.75 0 0 1 I I -0.70710678118654757 0.70710678118654757 0.75 forward I I I I #
loop $-1 $-1 $231 $65 #
coedge $-1 $145 $145 $232 $233 reversed $91 $-1 #
face $-1 $234 $235 $51 $-1 $236 reversed single #
loop $-1 $-1 $237 $93 #
plane-surface $-1 29.636590199828845 -24.33587523192692 68.963529666556411 0 0.62932039886446345 0.77714595512881146 1 0 0 forward_v I I I I #
coedge $-1 $238 $239 $240 $241 reversed $94 $-1 #
face $-1 $-1 $242 $52 $-1 $243 forward single #
loop $-1 $244 $245 $96 #
cone-surface $-1 26.256027204974345 37.687318400362145 10.888017788703419 0 -0.62932039886446345 -0.77714595512881146 0.75 0 0 1 I I -0.70710678118654757 0.70710678118654757 0.75 forward I I I I #
loop $-1 $-1 $246 $67 #
coedge $-1 $154 $154 $247 $248 reversed $97 $-1 #
face $-1 $-1 $249 $53 $-1 $250 forward single #
loop $-1 $251 $252 $99 #
cone-surface $-1 33.017153194683345 37.687318400362145 10.888017788703419 0 -0.62932039886446345 -0.77714595512881146 0.75 0 0 1 I I -0.70710678118654757 0.70710678118654757 0.75 forward I I I I #
loop $-1 $-1 $253 $68 #
coedge $-1 $159 $159 $254 $255 reversed $100 $-1 #
face $-1 $256 $257 $54 $-1 $258 reversed single #
loop $-1 $-1 $259 $102 #
plane-surface $-1 -29.636590199828845 -43.904438765155589 13.703611835340155 0 -0.62932039886446345 0.77714595512881146 1 0 0 forward_v I I I I #
coedge $-1 $260 $261 $262 $263 reversed $103 $-1 #
face $-1 $-1 $264 $55 $-1 $265 forward single #
loop $-1 $266 $267 $105 #
cone-surface $-1 -33.017153194683345 -37.687318400362145 10.888017788703426 0 0.62932039886446345 -0.77714595512881146 0.75 0 0 1 I I -0.70710678118654757 0.70710678118654757 0.75 forward I I I I #
loop $-1 $-1 $268 $70 #
coedge $-1 $168 $168 $269 $270 reversed $106 $-1 #
face $-1 $-1 $271 $56 $-1 $272 forward single #
loop $-1 $273 $274 $108 #
cone-surface $-1 -26.256027204974345 -37.687318400362145 10.888017788703426 0 0.62932039886446345 -0.77714595512881146 0.75 0 0 1 I I -0.70710678118654757 0.70710678118654757 0.75 forward I I I I #
loop $-1 $-1 $275 $71 #
coedge $-1 $173 $173 $276 $277 reversed $109 $-1 #
face $-1 $278 $279 $57 $-1 $280 reversed single #
loop $-1 $-1 $281 $111 #
plane-surface $-1 29.636590199828845 -43.904438765155589 13.703611835340155 0 -0.62932039886446345 0.77714595512881146 1 0 0 forward_v I I I I #
coedge $-1 $282 $283 $284 $285 reversed $112 $-1 #
face $-1 $-1 $286 $58 $-1 $287 forward single #
loop $-1 $288 $289 $114 #
cone-surface $-1 26.256027204974345 -37.687318400362145 10.888017788703426 0 0.62932039886446345 -0.77714595512881146 0.75 0 0 1 I I -0.70710678118654757 0.70710678118654757 0.75 forward I I I I #
loop $-1 $-1 $290 $73 #
coedge $-1 $182 $182 $291 $292 reversed $115 $-1 #
face $-1 $-1 $293 $59 $-1 $294 forward single #
loop $-1 $295 $296 $117 #
cone-surface $-1 33.017153194683345 -37.687318400362145 10.888017788703426 0 0.62932039886446345 -0.77714595512881146 0.75 0 0 1 I I -0.70710678118654757 0.70710678118654757 0.75 forward I I I I #
loop $-1 $-1 $297 $74 #
coedge $-1 $187 $187 $298 $299 reversed $118 $-1 #
face $-1 $300 $301 $45 $-1 $302 reversed single #
loop $-1 $-1 $303 $120 #
plane-surface $-1 0 0 17.554674046500626 0 0 1 1 0 0 forward_v I I I I #
coedge $-1 $304 $305 $306 $307 reversed $121 $-1 #
coedge $-1 $308 $123 $309 $310 reversed $76 $-1 #
coedge $-1 $123 $308 $311 $312 forward $76 $-1 #
coedge $-1 $313 $314 $123 $195 forward $301 $-1 #
edge $-1 $315 -43.904438765155589 $316 43.904438765155589 $123 $317 forward 7 unknown #
face $-1 $318 $319 $46 $-1 $320 reversed single #
loop $-1 $-1 $321 $124 #
plane-surface $-1 -77.445346647684417 -33.243312241391912 0 0 1 0 0 0 1 forward_v I I I I #
coedge $-1 $322 $323 $201 $324 forward $125 $-1 #
coedge $-1 $325 $127 $326 $327 reversed $79 $-1 #
coedge $-1 $127 $325 $199 $324 reversed $79 $-1 #
coedge $-1 $328 $329 $127 $203 reversed $330 $-1 #
edge $-1 $331 -17.554674046500626 $332 17.554674046500626 $202 $333 forward 7 unknown #
face $-1 $334 $335 $47 $-1 $336 reversed single #
loop $-1 $-1 $210 $128 #
plane-surface $-1 77.445346647684403 -33.243312241391912 0 0 1 0 0 0 1 forward_v I I I I #
coedge $-1 $337 $338 $209 $339 forward $129 $-1 #
coedge $-1 $340 $131 $341 $342 reversed $82 $-1 #
coedge $-1 $131 $340 $207 $339 reversed $82 $-1 #
coedge $-1 $343 $344 $131 $211 reversed $205 $-1 #
edge $-1 $345 -17.554674046500626 $346 17.554674046500626 $210 $347 forward 7 unknown #
face $-1 $348 $349 $48 $-1 $350 reversed single #
loop $-1 $-1 $351 $132 #
plane-surface $-1 -21.748609878501675 61.38552586807559 174.82064196268732 -1 0 0 0 0.62932039886446345 0.77714595512881146 forward_v I I I I #
coedge $-1 $352 $353 $354 $355 reversed $133 $-1 #
coedge $-1 $217 $135 $356 $357 reversed $85 $-1 #
coedge $-1 $135 $216 $352 $358 reversed $85 $-1 #
coedge $-1 $354 $359 $135 $219 forward $360 $-1 #
edge $-1 $361 -13.211675831117795 $362 -8.4560101546944608 $218 $363 forward 7 unknown #
loop $-1 $-1 $225 $136 #
plane-surface $-1 -29.636590199828845 -24.33587523192692 68.963529666556411 0 0.62932039886446345 0.77714595512881146 1 0 0 forward_v I I I I #
loop $-1 $-1 $364 $87 #
coedge $-1 $223 $223 $224 $365 reversed $137 $-1 #
coedge $-1 $224 $224 $223 $365 forward $139 $-1 #
coedge $-1 $225 $225 $140 $226 forward $220 $-1 #
edge $-1 $366 -7.0024250108885599e-016 $366 6.2831853071795996 $225 $367 forward 7 unknown #
loop $-1 $-1 $232 $141 #
plane-surface $-1 -29.636590199828845 -24.33587523192692 68.963529666556411 0 0.62932039886446345 0.77714595512881146 1 0 0 forward_v I I I I #
loop $-1 $-1 $368 $90 #
coedge $-1 $230 $230 $231 $369 reversed $142 $-1 #
coedge $-1 $231 $231 $230 $369 forward $144 $-1 #
coedge $-1 $232 $232 $145 $233 forward $227 $-1 #
edge $-1 $370 -7.0024250108885599e-016 $370 6.2831853071795996 $232 $371 forward 7 unknown #
face $-1 $372 $373 $51 $-1 $374 forward single #
loop $-1 $-1 $375 $146 #
plane-surface $-1 37.524570521156015 61.38552586807559 174.82064196268732 -1 0 0 0 0.62932039886446345 0.77714595512881146 forward_v I I I I #
coedge $-1 $376 $377 $378 $379 reversed $147 $-1 #
coedge $-1 $239 $149 $380 $381 reversed $94 $-1 #
coedge $-1 $149 $238 $376 $382 reversed $94 $-1 #
coedge $-1 $378 $383 $149 $241 forward $373 $-1 #
edge $-1 $384 -13.211675831117795 $385 -8.4560101546944608 $240 $386 forward 7 unknown #
loop $-1 $-1 $247 $150 #
plane-surface $-1 29.636590199828845 -24.33587523192692 68.963529666556411 0 0.62932039886446345 0.77714595512881146 1 0 0 forward_v I I I I #
loop $-1 $-1 $387 $96 #
coedge $-1 $245 $245 $246 $388 reversed $151 $-1 #
coedge $-1 $246 $246 $245 $388 forward $153 $-1 #
coedge $-1 $247 $247 $154 $248 forward $242 $-1 #
edge $-1 $389 -7.0024250108885599e-016 $389 6.2831853071795996 $247 $390 forward 7 unknown #
loop $-1 $-1 $254 $155 #
plane-surface $-1 29.636590199828845 -24.33587523192692 68.963529666556411 0 0.62932039886446345 0.77714595512881146 1 0 0 forward_v I I I I #
loop $-1 $-1 $391 $99 #
coedge $-1 $252 $252 $253 $392 reversed $156 $-1 #
coedge $-1 $253 $253 $252 $392 forward $158 $-1 #
coedge $-1 $254 $254 $159 $255 forward $249 $-1 #
edge $-1 $393 -7.0024250108885599e-016 $393 6.2831853071795996 $254 $394 forward 7 unknown #
face $-1 $395 $396 $54 $-1 $397 forward single #
loop $-1 $-1 $398 $160 #
plane-surface $-1 -37.524570521156015 -129.6258398651581 119.56072413147106 1 0 0 0 0.62932039886446345 -0.77714595512881146 forward_v I I I I #
coedge $-1 $399 $400 $401 $402 reversed $161 $-1 #
coedge $-1 $261 $163 $403 $404 reversed $103 $-1 #
coedge $-1 $163 $260 $399 $405 reversed $103 $-1 #
coedge $-1 $401 $406 $163 $263 forward $396 $-1 #
edge $-1 $407 20.90848116742346 $408 25.664146843846801 $262 $409 forward 7 unknown #
loop $-1 $-1 $269 $164 #
plane-surface $-1 -29.636590199828845 -43.904438765155589 13.703611835340155 0 -0.62932039886446345 0.77714595512881146 1 0 0 forward_v I I I I #
loop $-1 $-1 $410 $105 #
coedge $-1 $267 $267 $268 $411 reversed $165 $-1 #
coedge $-1 $268 $268 $267 $411 forward $167 $-1 #
coedge $-1 $269 $269 $168 $270 forward $264 $-1 #
edge $-1 $412 0 $412 6.2831853071796004 $269 $413 forward 7 unknown #
loop $-1 $-1 $276 $169 #
plane-surface $-1 -29.636590199828845 -43.904438765155589 13.703611835340155 0 -0.62932039886446345 0.77714595512881146 1 0 0 forward_v I I I I #
loop $-1 $-1 $414 $108 #
coedge $-1 $274 $274 $275 $415 reversed $170 $-1 #
coedge $-1 $275 $275 $274 $415 forward $172 $-1 #
coedge $-1 $276 $276 $173 $277 forward $271 $-1 #
edge $-1 $416 0 $416 6.2831853071796004 $276 $417 forward 7 unknown #
face $-1 $418 $419 $57 $-1 $420 reversed single #
loop $-1 $-1 $421 $174 #
plane-surface $-1 21.748609878501675 -129.6258398651581 119.56072413147106 1 0 0 0 0.62932039886446345 -0.77714595512881146 forward_v I I I I #
coedge $-1 $422 $423 $424 $425 reversed $175 $-1 #
coedge $-1 $283 $177 $426 $427 reversed $112 $-1 #
coedge $-1 $177 $282 $422 $428 reversed $112 $-1 #
coedge $-1 $424 $429 $177 $285 forward $430 $-1 #
edge $-1 $431 20.90848116742346 $432 25.664146843846801 $284 $433 forward 7 unknown #
loop $-1 $-1 $291 $178 #
plane-surface $-1 29.636590199828845 -43.904438765155589 13.703611835340155 0 -0.62932039886446345 0.77714595512881146 1 0 0 forward_v I I I I #
loop $-1 $-1 $434 $114 #
coedge $-1 $289 $289 $290 $435 reversed $179 $-1 #
coedge $-1 $290 $290 $289 $435 forward $181 $-1 #
coedge $-1 $291 $291 $182 $292 forward $286 $-1 #
edge $-1 $436 0 $436 6.2831853071796004 $291 $437 forward 7 unknown #
loop $-1 $-1 $298 $183 #
plane-surface $-1 29.636590199828845 -43.904438765155589 13.703611835340155 0 -0.62932039886446345 0.77714595512881146 1 0 0 forward_v I I I I #
loop $-1 $-1 $438 $117 #
coedge $-1 $296 $296 $297 $439 reversed $184 $-1 #
coedge $-1 $297 $297 $296 $439 forward $186 $-1 #
coedge $-1 $298 $298 $187 $299 forward $293 $-1 #
edge $-1 $440 0 $440 6.2831853071796004 $298 $441 forward 7 unknown #
face $-1 $442 $443 $45 $-1 $444 reversed single #
loop $-1 $-1 $194 $188 #
plane-surface $-1 0 0 -17.554674046500626 0 0 1 1 0 0 forward_v I I I I #
coedge $-1 $445 $446 $308 $447 forward $189 $-1 #
coedge $-1 $448 $191 $449 $450 reversed $121 $-1 #
coedge $-1 $191 $448 $451 $452 forward $121 $-1 #
coedge $-1 $314 $313 $191 $307 forward $301 $-1 #
edge $-1 $453 -43.904438765155589 $454 43.904438765155589 $191 $455 forward 7 unknown #
coedge $-1 $193 $192 $303 $447 reversed $76 $-1 #
coedge $-1 $456 $457 $192 $310 forward $458 $-1 #
edge $-1 $459 -17.554674046500626 $315 17.554674046500626 $192 $460 forward 7 unknown #
coedge $-1 $461 $462 $193 $312 reversed $443 $-1 #
edge $-1 $463 -17.554674046500626 $316 17.554674046500626 $193 $464 forward 7 unknown #
coedge $-1 $306 $194 $462 $465 forward $301 $-1 #
coedge $-1 $194 $306 $456 $466 forward $301 $-1 #
vertex $-1 $195 $467 #
vertex $-1 $312 $468 #
straight-curve $-1 68.106326487014371 0 -17.554674046500626 0 -1 0 I I #
face $-1 $469 $330 $46 $-1 $470 reversed single #
loop $-1 $-1 $471 $196 #
plane-surface $-1 -86.784366808354463 -31.106289038044451 0 1 0 0 0 0 -1 forward_v I I I I #
coedge $-1 $472 $473 $474 $475 forward $197 $-1 #
coedge $-1 $476 $199 $472 $477 forward $125 $-1 #
coedge $-1 $199 $476 $328 $478 forward $125 $-1 #
edge $-1 $331 28.969265834696987 $479 33.243312241391912 $199 $480 forward 7 unknown #
coedge $-1 $201 $200 $481 $482 forward $79 $-1 #
coedge $-1 $483 $484 $200 $327 forward $485 $-1 #
edge $-1 $486 -33.243312241391912 $332 -28.969265834696987 $326 $487 forward 7 unknown #
coedge $-1 $488 $202 $323 $478 reversed $330 $-1 #
coedge $-1 $202 $488 $483 $489 reversed $330 $-1 #
loop $-1 $-1 $202 $318 #
vertex $-1 $324 $490 #
vertex $-1 $489 $491 #
straight-curve $-1 -68.106326487014371 -28.969265834696987 0 0 0 1 I I #
face $-1 $492 $493 $47 $-1 $494 reversed single #
loop $-1 $-1 $495 $204 #
plane-surface $-1 77.445346647684403 -28.969265834696987 0 0 -1 0 0 0 -1 forward_v I I I I #
coedge $-1 $496 $207 $497 $498 forward $129 $-1 #
coedge $-1 $207 $496 $343 $499 forward $129 $-1 #
edge $-1 $345 -33.243312241391912 $500 -28.969265834696987 $207 $501 forward 7 unknown #
coedge $-1 $209 $208 $502 $503 forward $82 $-1 #
coedge $-1 $504 $505 $208 $342 forward $506 $-1 #
edge $-1 $507 28.969265834696987 $346 33.243312241391912 $341 $508 forward 7 unknown #
coedge $-1 $509 $210 $338 $499 reversed $205 $-1 #
coedge $-1 $210 $509 $504 $510 reversed $205 $-1 #
vertex $-1 $339 $511 #
vertex $-1 $510 $512 #
straight-curve $-1 68.106326487014371 -33.243312241391912 0 0 0 1 I I #
face $-1 $-1 $360 $48 $-1 $513 forward single #
loop $-1 $-1 $514 $212 #
plane-surface $-1 0 43.904438765155589 0 0 -1 0 0 0 -1 forward_v I I I I #
coedge $-1 $515 $516 $517 $518 reversed $213 $-1 #
coedge $-1 $519 $215 $217 $358 forward $133 $-1 #
coedge $-1 $215 $519 $515 $520 forward $133 $-1 #
coedge $-1 $517 $218 $215 $355 forward $360 $-1 #
edge $-1 $362 -22.706275421241592 $521 -6.9303147785872525 $354 $522 forward 7 unknown #
coedge $-1 $523 $524 $216 $357 forward $349 $-1 #
edge $-1 $525 -73.706709146003504 $361 -69.855646934843037 $356 $526 forward 7 unknown #
edge $-1 $362 81.689479179154489 $525 87.808877530311179 $217 $527 forward 7 unknown #
coedge $-1 $218 $517 $523 $528 forward $360 $-1 #
loop $-1 $-1 $517 $348 #
vertex $-1 $357 $529 #
vertex $-1 $219 $530 #
straight-curve $-1 -37.524570521156015 30.692762934037795 17.554674046500622 0 -1 0 I I #
coedge $-1 $364 $364 $-1 $531 reversed $222 $-1 #
edge $-1 $532 0 $532 6.2831853071796004 $223 $533 forward 7 unknown #
vertex $-1 $226 $534 #
ellipse-curve $-1 -33.017153194683345 41.526605926943922 15.629142940920394 0 0.62932039886446345 0.77714595512881146 1.5 0 0 1 I I #
coedge $-1 $368 $368 $-1 $535 reversed $229 $-1 #
edge $-1 $536 0 $536 6.2831853071796004 $230 $537 forward 7 unknown #
vertex $-1 $233 $538 #
ellipse-curve $-1 -26.256027204974345 41.526605926943922 15.629142940920394 0 0.62932039886446345 0.77714595512881146 1.5 0 0 1 I I #
face $-1 $-1 $539 $51 $-1 $540 reversed single #
loop $-1 $-1 $240 $234 #
plane-surface $-1 0 0 17.554674046500626 0 0 1 1 0 0 forward_v I I I I #
coedge $-1 $541 $542 $543 $544 reversed $235 $-1 #
coedge $-1 $545 $237 $239 $382 forward $147 $-1 #
coedge $-1 $237 $545 $541 $546 forward $147 $-1 #
coedge $-1 $543 $240 $237 $379 forward $373 $-1 #
edge $-1 $385 6.9303147785872525 $547 22.706275421241592 $378 $548 forward 7 unknown #
coedge $-1 $549 $550 $238 $381 forward $539 $-1 #
edge $-1 $551 -73.706709146003504 $384 -69.855646934843037 $380 $552 forward 7 unknown #
edge $-1 $385 81.689479179154489 $551 87.808877530311179 $239 $553 forward 7 unknown #
coedge $-1 $240 $543 $549 $554 forward $373 $-1 #
vertex $-1 $381 $555 #
vertex $-1 $241 $556 #
straight-curve $-1 21.748609878501675 30.692762934037795 17.554674046500622 0 -1 0 I I #
coedge $-1 $387 $387 $-1 $557 reversed $244 $-1 #
edge $-1 $558 0 $558 6.2831853071796004 $245 $559 forward 7 unknown #
vertex $-1 $248 $560 #
ellipse-curve $-1 26.256027204974345 41.526605926943922 15.629142940920394 0 0.62932039886446345 0.77714595512881146 1.5 0 0 1 I I #
coedge $-1 $391 $391 $-1 $561 reversed $251 $-1 #
edge $-1 $562 0 $562 6.2831853071796004 $252 $563 forward 7 unknown #
vertex $-1 $255 $564 #
ellipse-curve $-1 33.017153194683345 41.526605926943922 15.629142940920394 0 0.62932039886446345 0.77714595512881146 1.5 0 0 1 I I #
face $-1 $-1 $565 $54 $-1 $566 reversed single #
loop $-1 $-1 $262 $256 #
plane-surface $-1 0 0 17.554674046500626 0 0 1 1 0 0 forward_v I I I I #
coedge $-1 $567 $568 $569 $570 reversed $257 $-1 #
coedge $-1 $571 $259 $261 $405 forward $161 $-1 #
coedge $-1 $259 $571 $567 $572 forward $161 $-1 #
coedge $-1 $569 $262 $259 $402 forward $396 $-1 #
edge $-1 $408 6.9303147785872525 $573 22.706275421241592 $401 $574 forward 7 unknown #
coedge $-1 $575 $576 $260 $404 forward $565 $-1 #
edge $-1 $577 -46.076750230395376 $407 -42.225688019234909 $403 $578 forward 7 unknown #
edge $-1 $408 -6.1193983511566934 $577 0 $261 $579 forward 7 unknown #
coedge $-1 $262 $569 $575 $580 forward $396 $-1 #
vertex $-1 $263 $581 #
vertex $-1 $263 $582 #
straight-curve $-1 -21.748609878501675 -64.812919932579049 17.554674046500622 0 1 0 I I #
coedge $-1 $410 $410 $-1 $583 reversed $266 $-1 #
edge $-1 $584 0 $584 6.2831853071796004 $267 $585 forward 7 unknown #
vertex $-1 $270 $586 #
ellipse-curve $-1 -33.017153194683345 -41.526605926943915 15.629142940920394 0 -0.62932039886446345 0.77714595512881146 1.5 0 0 1 I I #
coedge $-1 $414 $414 $-1 $587 reversed $273 $-1 #
edge $-1 $588 0 $588 6.2831853071796004 $274 $589 forward 7 unknown #
vertex $-1 $277 $590 #
ellipse-curve $-1 -26.256027204974345 -41.526605926943915 15.629142940920394 0 -0.62932039886446345 0.77714595512881146 1.5 0 0 1 I I #
face $-1 $-1 $430 $57 $-1 $591 forward single #
loop $-1 $-1 $592 $278 #
plane-surface $-1 0 -43.904438765155589 0 0 1 0 0 0 1 forward_v I I I I #
coedge $-1 $593 $594 $595 $596 reversed $279 $-1 #
coedge $-1 $597 $281 $283 $428 forward $175 $-1 #
coedge $-1 $281 $597 $593 $598 forward $175 $-1 #
coedge $-1 $595 $284 $281 $425 forward $430 $-1 #
edge $-1 $432 -22.706275421241592 $599 -6.9303147785872525 $424 $600 forward 7 unknown #
coedge $-1 $601 $602 $282 $427 forward $419 $-1 #
edge $-1 $603 -46.076750230395376 $431 -42.225688019234909 $426 $604 forward 7 unknown #
edge $-1 $432 -6.1193983511566934 $603 0 $283 $605 forward 7 unknown #
coedge $-1 $284 $595 $601 $606 forward $430 $-1 #
loop $-1 $-1 $595 $418 #
vertex $-1 $427 $607 #
vertex $-1 $285 $608 #
straight-curve $-1 37.524570521156015 -64.812919932579049 17.554674046500622 0 1 0 I I #
coedge $-1 $434 $434 $-1 $609 reversed $288 $-1 #
edge $-1 $610 0 $610 6.2831853071796004 $289 $611 forward 7 unknown #
vertex $-1 $292 $612 #
ellipse-curve $-1 26.256027204974345 -41.526605926943915 15.629142940920394 0 -0.62932039886446345 0.77714595512881146 1.5 0 0 1 I I #
coedge $-1 $438 $438 $-1 $613 reversed $295 $-1 #
edge $-1 $614 0 $614 6.2831853071796004 $296 $615 forward 7 unknown #
vertex $-1 $299 $616 #
ellipse-curve $-1 33.017153194683345 -41.526605926943915 15.629142940920394 0 -0.62932039886446345 0.77714595512881146 1.5 0 0 1 I I #
face $-1 $-1 $458 $45 $-1 $617 reversed single #
loop $-1 $-1 $449 $300 #
plane-surface $-1 0 -43.904438765155589 0 0 1 0 0 0 1 forward_v I I I I #
coedge $-1 $618 $303 $457 $619 forward $189 $-1 #
coedge $-1 $303 $618 $461 $620 forward $189 $-1 #
edge $-1 $463 -43.904438765155589 $459 43.904438765155589 $308 $621 forward 7 unknown #
coedge $-1 $305 $304 $618 $622 reversed $121 $-1 #
coedge $-1 $462 $461 $304 $450 forward $443 $-1 #
edge $-1 $623 -17.554674046500626 $453 17.554674046500626 $304 $624 forward 7 unknown #
coedge $-1 $457 $456 $305 $452 reversed $458 $-1 #
edge $-1 $625 -17.554674046500626 $454 17.554674046500626 $451 $626 forward 7 unknown #
vertex $-1 $307 $627 #
vertex $-1 $466 $628 #
straight-curve $-1 -68.106326487014371 0 -17.554674046500626 0 1 0 I I #
coedge $-1 $451 $309 $314 $466 reversed $458 $-1 #
coedge $-1 $309 $451 $445 $619 reversed $458 $-1 #
loop $-1 $-1 $309 $442 #
vertex $-1 $447 $629 #
straight-curve $-1 68.106326487014371 43.904438765155589 0 0 0 -1 I I #
coedge $-1 $449 $311 $446 $620 reversed $443 $-1 #
coedge $-1 $311 $449 $313 $465 reversed $443 $-1 #
vertex $-1 $447 $630 #
straight-curve $-1 68.106326487014371 -43.904438765155589 0 0 0 -1 I I #
edge $-1 $316 -68.106326487014371 $453 68.106326487014371 $462 $631 forward 7 unknown #
edge $-1 $454 -68.106326487014371 $315 68.106326487014371 $456 $632 forward 7 unknown #
point $-1 68.106326487014371 43.904438765155589 -17.554674046500626 #
point $-1 68.106326487014371 -43.904438765155589 -17.554674046500626 #
face $-1 $-1 $485 $46 $-1 $633 forward single #
plane-surface $-1 -77.445346647684417 -28.969265834696987 0 0 -1 0 0 0 -1 forward_v I I I I #
coedge $-1 $634 $635 $488 $636 forward $319 $-1 #
coedge $-1 $481 $321 $322 $477 reversed $197 $-1 #
coedge $-1 $321 $481 $484 $637 reversed $197 $-1 #
coedge $-1 $635 $634 $321 $475 reversed $319 $-1 #
edge $-1 $638 -17.554674046500626 $639 17.554674046500626 $474 $640 forward 7 unknown #
coedge $-1 $323 $322 $634 $641 forward $125 $-1 #
edge $-1 $479 -9.3390201606700458 $639 9.3390201606700458 $472 $642 forward 7 unknown #
edge $-1 $643 -9.3390201606700458 $331 9.3390201606700458 $328 $644 forward 7 unknown #
vertex $-1 $477 $645 #
straight-curve $-1 -68.106326487014371 0 -17.554674046500626 0 -1 0 I I #
coedge $-1 $473 $472 $325 $482 reversed $197 $-1 #
edge $-1 $486 -17.554674046500626 $479 17.554674046500626 $481 $646 forward 7 unknown #
coedge $-1 $647 $326 $329 $489 forward $485 $-1 #
coedge $-1 $326 $647 $473 $637 forward $485 $-1 #
loop $-1 $-1 $326 $469 #
vertex $-1 $327 $648 #
straight-curve $-1 -68.106326487014371 0 17.554674046500626 0 1 0 I I #
coedge $-1 $329 $328 $471 $636 reversed $330 $-1 #
edge $-1 $332 -9.3390201606700458 $649 9.3390201606700458 $329 $650 forward 7 unknown #
point $-1 -68.106326487014371 -28.969265834696987 -17.554674046500626 #
point $-1 -68.106326487014371 -28.969265834696987 17.554674046500626 #
face $-1 $-1 $506 $47 $-1 $651 forward single #
loop $-1 $-1 $652 $334 #
plane-surface $-1 86.784366808354449 -31.106289038044451 0 -1 0 0 0 0 1 forward_v I I I I #
coedge $-1 $497 $653 $654 $655 forward $335 $-1 #
coedge $-1 $338 $337 $656 $657 forward $129 $-1 #
coedge $-1 $502 $495 $337 $498 reversed $335 $-1 #
edge $-1 $500 -9.3390201606700458 $658 9.3390201606700458 $497 $659 forward 7 unknown #
edge $-1 $660 -9.3390201606700458 $345 9.3390201606700458 $343 $661 forward 7 unknown #
vertex $-1 $498 $662 #
straight-curve $-1 68.106326487014371 0 -17.554674046500626 0 1 0 I I #
coedge $-1 $653 $497 $340 $503 reversed $335 $-1 #
edge $-1 $507 -17.554674046500626 $500 17.554674046500626 $502 $663 forward 7 unknown #
coedge $-1 $664 $341 $344 $510 forward $506 $-1 #
coedge $-1 $341 $664 $653 $665 forward $506 $-1 #
loop $-1 $-1 $341 $492 #
vertex $-1 $342 $666 #
straight-curve $-1 68.106326487014371 0 17.554674046500626 0 -1 0 I I #
coedge $-1 $344 $343 $652 $667 reversed $205 $-1 #
edge $-1 $346 -9.3390201606700458 $668 9.3390201606700458 $344 $669 forward 7 unknown #
point $-1 68.106326487014357 -33.243312241391912 -17.554674046500626 #
point $-1 68.106326487014357 -33.243312241391912 17.554674046500626 #
plane-surface $-1 0 0 17.554674046500626 0 0 1 1 0 0 forward_v I I I I #
coedge $-1 $524 $523 $516 $670 forward $349 $-1 #
coedge $-1 $516 $351 $353 $520 reversed $213 $-1 #
coedge $-1 $351 $515 $514 $670 reversed $213 $-1 #
coedge $-1 $359 $354 $351 $518 forward $360 $-1 #
edge $-1 $521 8.4560101546944608 $671 13.211675831117795 $517 $672 forward 7 unknown #
coedge $-1 $353 $352 $524 $673 reversed $133 $-1 #
edge $-1 $674 -87.808877530311179 $521 -81.689479179154489 $515 $675 forward 7 unknown #
vertex $-1 $355 $676 #
straight-curve $-1 -14.818295099914423 39.148773088732248 17.554674046500622 1 0 0 I I #
coedge $-1 $514 $356 $359 $528 reversed $349 $-1 #
coedge $-1 $356 $514 $519 $673 forward $349 $-1 #
vertex $-1 $357 $677 #
straight-curve $-1 -37.524570521156015 43.904438765155589 87.410320981343659 0 0 1 I I #
straight-curve $-1 -37.524570521156015 -24.33587523192692 68.963529666556411 0 0.77714595512881146 -0.62932039886446345 I I #
edge $-1 $671 21.748609878501675 $361 37.524570521156015 $523 $678 forward 7 unknown #
point $-1 -37.524570521156015 43.904438765155589 17.554674046500626 #
point $-1 -37.524570521156015 39.148773088732256 17.554674046500629 #
edge $-1 $679 1 $679 0 $364 $-1 forward 7 unknown #
vertex $-1 $365 $680 #
ellipse-curve $-1 -33.017153194683345 38.15930869951049 11.470877255050027 0 0.62932039886446345 0.77714595512881146 1.5 0 0 1 I I #
point $-1 -31.517153194683345 41.526605926943915 15.629142940920387 #
edge $-1 $681 1 $681 0 $368 $-1 forward 7 unknown #
vertex $-1 $369 $682 #
ellipse-curve $-1 -26.256027204974345 38.15930869951049 11.470877255050027 0 0.62932039886446345 0.77714595512881146 1.5 0 0 1 I I #
point $-1 -24.756027204974345 41.526605926943915 15.629142940920387 #
loop $-1 $-1 $380 $372 #
plane-surface $-1 0 43.904438765155589 0 0 -1 0 0 0 -1 forward_v I I I I #
coedge $-1 $542 $375 $377 $546 reversed $235 $-1 #
coedge $-1 $375 $541 $683 $684 reversed $235 $-1 #
coedge $-1 $383 $378 $375 $544 forward $373 $-1 #
edge $-1 $547 8.4560101546944608 $685 13.211675831117795 $543 $686 forward 7 unknown #
coedge $-1 $377 $376 $550 $687 reversed $147 $-1 #
edge $-1 $688 -87.808877530311179 $547 -81.689479179154489 $541 $689 forward 7 unknown #
vertex $-1 $379 $690 #
straight-curve $-1 14.818295099914423 39.148773088732248 17.554674046500622 1 0 0 I I #
coedge $-1 $683 $380 $383 $554 reversed $539 $-1 #
coedge $-1 $380 $683 $545 $687 forward $539 $-1 #
vertex $-1 $381 $691 #
straight-curve $-1 21.748609878501675 43.904438765155589 87.410320981343659 0 0 1 I I #
straight-curve $-1 21.748609878501675 -24.33587523192692 68.963529666556411 0 0.77714595512881146 -0.62932039886446345 I I #
edge $-1 $685 -37.524570521156015 $384 -21.748609878501675 $549 $692 forward 7 unknown #
point $-1 21.748609878501675 43.904438765155589 17.554674046500626 #
point $-1 21.748609878501675 39.148773088732256 17.554674046500629 #
edge $-1 $693 1 $693 0 $387 $-1 forward 7 unknown #
vertex $-1 $388 $694 #
ellipse-curve $-1 26.256027204974345 38.15930869951049 11.470877255050027 0 0.62932039886446345 0.77714595512881146 1.5 0 0 1 I I #
point $-1 27.756027204974345 41.526605926943915 15.629142940920387 #
edge $-1 $695 1 $695 0 $391 $-1 forward 7 unknown #
vertex $-1 $392 $696 #
ellipse-curve $-1 33.017153194683345 38.15930869951049 11.470877255050027 0 0.62932039886446345 0.77714595512881146 1.5 0 0 1 I I #
point $-1 34.517153194683345 41.526605926943915 15.629142940920387 #
loop $-1 $-1 $403 $395 #
plane-surface $-1 0 -43.904438765155589 0 0 1 0 0 0 1 forward_v I I I I #
coedge $-1 $568 $398 $400 $572 reversed $257 $-1 #
coedge $-1 $398 $567 $697 $698 reversed $257 $-1 #
coedge $-1 $406 $401 $398 $570 forward $396 $-1 #
edge $-1 $573 -25.664146843846801 $699 -20.90848116742346 $569 $700 forward 7 unknown #
coedge $-1 $400 $399 $576 $701 reversed $161 $-1 #
edge $-1 $702 0 $573 6.1193983511566934 $567 $703 forward 7 unknown #
vertex $-1 $402 $704 #
straight-curve $-1 -14.818295099914423 -39.148773088732248 17.554674046500626 -1 0 0 I I #
coedge $-1 $697 $403 $406 $580 reversed $565 $-1 #
coedge $-1 $403 $697 $571 $701 forward $565 $-1 #
vertex $-1 $404 $705 #
straight-curve $-1 -21.748609878501675 -43.904438765155589 59.780362065735531 0 0 1 I I #
straight-curve $-1 -21.748609878501675 -43.904438765155589 13.703611835340155 0 -0.77714595512881146 -0.62932039886446345 I I #
edge $-1 $699 -37.524570521156015 $407 -21.748609878501675 $575 $706 forward 7 unknown #
point $-1 -21.748609878501675 -43.904438765155589 17.554674046500626 #
point $-1 -21.748609878501675 -39.148773088732248 17.554674046500626 #
edge $-1 $707 1 $707 0 $410 $-1 forward 7 unknown #
vertex $-1 $411 $708 #
ellipse-curve $-1 -33.017153194683345 -38.15930869951049 11.470877255050034 0 -0.62932039886446345 0.77714595512881146 1.5 0 0 1 I I #
point $-1 -31.517153194683345 -41.526605926943915 15.629142940920394 #
edge $-1 $709 1 $709 0 $414 $-1 forward 7 unknown #
vertex $-1 $415 $710 #
ellipse-curve $-1 -26.256027204974345 -38.15930869951049 11.470877255050034 0 -0.62932039886446345 0.77714595512881146 1.5 0 0 1 I I #
point $-1 -24.756027204974345 -41.526605926943915 15.629142940920394 #
plane-surface $-1 0 0 17.554674046500626 0 0 1 1 0 0 forward_v I I I I #
coedge $-1 $602 $601 $594 $711 forward $419 $-1 #
coedge $-1 $594 $421 $423 $598 reversed $279 $-1 #
coedge $-1 $421 $593 $592 $711 reversed $279 $-1 #
coedge $-1 $429 $424 $421 $596 forward $430 $-1 #
edge $-1 $599 -25.664146843846801 $712 -20.90848116742346 $595 $713 forward 7 unknown #
coedge $-1 $423 $422 $602 $714 reversed $175 $-1 #
edge $-1 $715 0 $599 6.1193983511566934 $593 $716 forward 7 unknown #
vertex $-1 $425 $717 #
straight-curve $-1 14.818295099914423 -39.148773088732248 17.554674046500626 -1 0 0 I I #
coedge $-1 $592 $426 $429 $606 reversed $419 $-1 #
coedge $-1 $426 $592 $597 $714 forward $419 $-1 #
vertex $-1 $427 $718 #
straight-curve $-1 37.524570521156015 -43.904438765155589 59.780362065735531 0 0 1 I I #
straight-curve $-1 37.524570521156015 -43.904438765155589 13.703611835340155 0 -0.77714595512881146 -0.62932039886446345 I I #
edge $-1 $712 21.748609878501675 $431 37.524570521156015 $601 $719 forward 7 unknown #
point $-1 37.524570521156015 -43.904438765155589 17.554674046500626 #
point $-1 37.524570521156015 -39.148773088732248 17.554674046500626 #
edge $-1 $720 1 $720 0 $434 $-1 forward 7 unknown #
vertex $-1 $435 $721 #
ellipse-curve $-1 26.256027204974345 -38.15930869951049 11.470877255050034 0 -0.62932039886446345 0.77714595512881146 1.5 0 0 1 I I #
point $-1 27.756027204974345 -41.526605926943915 15.629142940920394 #
edge $-1 $722 1 $722 0 $438 $-1 forward 7 unknown #
vertex $-1 $439 $723 #
ellipse-curve $-1 33.017153194683345 -38.15930869951049 11.470877255050034 0 -0.62932039886446345 0.77714595512881146 1.5 0 0 1 I I #
point $-1 34.517153194683345 -41.526605926943915 15.629142940920394 #
plane-surface $-1 0 43.904438765155589 0 0 -1 0 0 0 -1 forward_v I I I I #
coedge $-1 $446 $445 $448 $622 forward $189 $-1 #
edge $-1 $459 -68.106326487014371 $625 68.106326487014371 $457 $724 forward 7 unknown #
edge $-1 $623 -68.106326487014371 $463 68.106326487014371 $461 $725 forward 7 unknown #
straight-curve $-1 68.106326487014371 0 17.554674046500626 0 1 0 I I #
edge $-1 $625 -43.904438765155589 $623 43.904438765155589 $448 $726 forward 7 unknown #
vertex $-1 $622 $727 #
straight-curve $-1 -68.106326487014371 -43.904438765155589 0 0 0 -1 I I #
vertex $-1 $619 $728 #
straight-curve $-1 -68.106326487014371 43.904438765155589 0 0 0 -1 I I #
point $-1 -68.106326487014371 -43.904438765155589 -17.554674046500626 #
point $-1 -68.106326487014371 43.904438765155589 -17.554674046500626 #
point $-1 68.106326487014371 43.904438765155589 17.554674046500626 #
point $-1 68.106326487014371 -43.904438765155589 17.554674046500626 #
straight-curve $-1 0 -43.904438765155589 -17.554674046500626 -1 0 0 I I #
straight-curve $-1 0 43.904438765155589 -17.554674046500626 1 0 0 I I #
plane-surface $-1 0 0 17.554674046500626 0 0 1 1 0 0 forward_v I I I I #
coedge $-1 $474 $471 $476 $641 reversed $319 $-1 #
coedge $-1 $471 $474 $647 $729 reversed $319 $-1 #
edge $-1 $649 -17.554674046500626 $643 17.554674046500626 $488 $730 forward 7 unknown #
edge $-1 $638 -9.3390201606700458 $486 9.3390201606700458 $473 $731 forward 7 unknown #
vertex $-1 $729 $732 #
vertex $-1 $641 $733 #
straight-curve $-1 -86.784366808354463 -33.243312241391912 0 0 0 -1 I I #
edge $-1 $639 -2.1370232033474608 $643 2.1370232033474643 $634 $734 forward 7 unknown #
straight-curve $-1 -77.445346647684417 -33.243312241391912 -17.554674046500626 -1 0 0 I I #
vertex $-1 $478 $735 #
straight-curve $-1 -77.445346647684417 -28.969265834696987 -17.554674046500626 1 0 0 I I #
point $-1 -68.106326487014371 -33.243312241391912 -17.554674046500626 #
straight-curve $-1 -68.106326487014371 -33.243312241391912 0 0 0 -1 I I #
coedge $-1 $484 $483 $635 $729 forward $485 $-1 #
point $-1 -68.106326487014371 -33.243312241391912 17.554674046500626 #
vertex $-1 $489 $736 #
straight-curve $-1 -77.445346647684417 -28.969265834696987 17.554674046500626 -1 0 0 I I #
plane-surface $-1 0 0 17.554674046500626 0 0 1 1 0 0 forward_v I I I I #
coedge $-1 $656 $737 $509 $667 forward $493 $-1 #
coedge $-1 $495 $502 $505 $665 reversed $335 $-1 #
coedge $-1 $737 $656 $495 $655 reversed $493 $-1 #
edge $-1 $738 -17.554674046500626 $658 17.554674046500626 $654 $739 forward 7 unknown #
coedge $-1 $654 $652 $496 $657 reversed $493 $-1 #
edge $-1 $658 -2.1370232033474643 $660 2.1370232033474608 $656 $740 forward 7 unknown #
vertex $-1 $657 $741 #
straight-curve $-1 77.445346647684403 -28.969265834696987 -17.554674046500626 1 0 0 I I #
vertex $-1 $667 $742 #
straight-curve $-1 77.445346647684403 -33.243312241391912 -17.554674046500626 -1 0 0 I I #
point $-1 68.106326487014357 -28.969265834696987 -17.554674046500626 #
straight-curve $-1 68.106326487014371 -28.969265834696987 0 0 0 -1 I I #
coedge $-1 $505 $504 $737 $743 forward $506 $-1 #
edge $-1 $738 -9.3390201606700458 $507 9.3390201606700458 $653 $744 forward 7 unknown #
point $-1 68.106326487014357 -28.969265834696987 17.554674046500626 #
edge $-1 $668 -17.554674046500626 $660 17.554674046500626 $652 $745 forward 7 unknown #
vertex $-1 $743 $746 #
straight-curve $-1 77.445346647684403 -33.243312241391912 17.554674046500626 1 0 0 I I #
edge $-1 $671 69.855646934843037 $674 73.706709146003504 $514 $747 forward 7 unknown #
vertex $-1 $528 $748 #
straight-curve $-1 -21.748609878501675 30.692762934037795 17.554674046500622 0 1 0 I I #
edge $-1 $674 6.9303147785872525 $525 22.706275421241592 $524 $749 forward 7 unknown #
vertex $-1 $673 $750 #
straight-curve $-1 -21.748609878501675 -24.33587523192692 68.963529666556411 0 -0.77714595512881146 0.62932039886446345 I I #
point $-1 -21.748609878501675 39.148773088732256 17.554674046500629 #
point $-1 -37.524570521156015 43.904438765155589 13.703611835340155 #
straight-curve $-1 0 43.904438765155589 17.554674046500626 -1 0 0 I I #
vertex $-1 $531 $751 #
point $-1 -31.517153194683345 38.15930869951049 11.470877255050027 #
vertex $-1 $535 $752 #
point $-1 -24.756027204974345 38.15930869951049 11.470877255050027 #
coedge $-1 $550 $549 $542 $684 forward $539 $-1 #
edge $-1 $685 69.855646934843037 $688 73.706709146003504 $683 $753 forward 7 unknown #
vertex $-1 $554 $754 #
straight-curve $-1 37.524570521156015 30.692762934037795 17.554674046500622 0 1 0 I I #
edge $-1 $688 -22.706275421241592 $551 -6.9303147785872525 $550 $755 forward 7 unknown #
vertex $-1 $687 $756 #
straight-curve $-1 37.524570521156015 -24.33587523192692 68.963529666556411 0 -0.77714595512881146 0.62932039886446345 I I #
point $-1 37.524570521156015 39.148773088732256 17.554674046500629 #
point $-1 21.748609878501675 43.904438765155589 13.703611835340155 #
straight-curve $-1 0 43.904438765155589 17.554674046500626 -1 0 0 I I #
vertex $-1 $557 $757 #
point $-1 27.756027204974345 38.15930869951049 11.470877255050027 #
vertex $-1 $561 $758 #
point $-1 34.517153194683345 38.15930869951049 11.470877255050027 #
coedge $-1 $576 $575 $568 $698 forward $565 $-1 #
edge $-1 $699 42.225688019234909 $702 46.076750230395376 $697 $759 forward 7 unknown #
vertex $-1 $580 $760 #
straight-curve $-1 -37.524570521156015 -64.812919932579049 17.554674046500622 0 -1 0 I I #
edge $-1 $702 -22.706275421241592 $577 -6.9303147785872525 $576 $761 forward 7 unknown #
vertex $-1 $701 $762 #
straight-curve $-1 -37.524570521156015 -43.904438765155589 13.703611835340155 0 0.77714595512881146 0.62932039886446345 I I #
point $-1 -37.524570521156015 -39.148773088732248 17.554674046500626 #
point $-1 -21.748609878501675 -43.904438765155589 13.703611835340155 #
straight-curve $-1 0 -43.904438765155589 17.554674046500626 1 0 0 I I #
vertex $-1 $583 $763 #
point $-1 -31.517153194683345 -38.15930869951049 11.470877255050034 #
vertex $-1 $587 $764 #
point $-1 -24.756027204974345 -38.15930869951049 11.470877255050034 #
edge $-1 $712 42.225688019234909 $715 46.076750230395376 $592 $765 forward 7 unknown #
vertex $-1 $606 $766 #
straight-curve $-1 21.748609878501675 -64.812919932579049 17.554674046500622 0 -1 0 I I #
edge $-1 $715 6.9303147785872525 $603 22.706275421241592 $602 $767 forward 7 unknown #
vertex $-1 $714 $768 #
straight-curve $-1 21.748609878501675 -43.904438765155589 13.703611835340155 0 0.77714595512881146 0.62932039886446345 I I #
point $-1 21.748609878501675 -39.148773088732248 17.554674046500626 #
point $-1 37.524570521156015 -43.904438765155589 13.703611835340155 #
straight-curve $-1 0 -43.904438765155589 17.554674046500626 1 0 0 I I #
vertex $-1 $609 $769 #
point $-1 27.756027204974345 -38.15930869951049 11.470877255050034 #
vertex $-1 $613 $770 #
point $-1 34.517153194683345 -38.15930869951049 11.470877255050034 #
straight-curve $-1 0 43.904438765155589 17.554674046500626 -1 0 0 I I #
straight-curve $-1 0 -43.904438765155589 17.554674046500626 1 0 0 I I #
straight-curve $-1 -68.106326487014371 0 17.554674046500626 0 -1 0 I I #
point $-1 -68.106326487014371 -43.904438765155589 17.554674046500626 #
point $-1 -68.106326487014371 43.904438765155589 17.554674046500626 #
edge $-1 $649 -2.1370232033474643 $638 2.1370232033474608 $635 $771 forward 7 unknown #
straight-curve $-1 -86.784366808354463 -28.969265834696987 0 0 0 -1 I I #
straight-curve $-1 -77.445346647684417 -33.243312241391912 17.554674046500626 1 0 0 I I #
point $-1 -86.784366808354463 -33.243312241391912 17.554674046500626 #
point $-1 -86.784366808354463 -33.243312241391912 -17.554674046500626 #
straight-curve $-1 -86.784366808354463 -31.106289038044451 -17.554674046500626 0 1 0 I I #
point $-1 -86.784366808354463 -28.969265834696987 -17.554674046500626 #
point $-1 -86.784366808354463 -28.969265834696987 17.554674046500626 #
coedge $-1 $652 $654 $664 $743 reversed $493 $-1 #
vertex $-1 $743 $772 #
straight-curve $-1 86.784366808354449 -28.969265834696987 0 0 0 -1 I I #
straight-curve $-1 86.784366808354449 -31.106289038044451 -17.554674046500626 0 -1 0 I I #
point $-1 86.784366808354449 -28.969265834696987 -17.554674046500626 #
point $-1 86.784366808354449 -33.243312241391912 -17.554674046500626 #
edge $-1 $668 -2.1370232033474608 $738 2.1370232033474643 $737 $773 forward 7 unknown #
straight-curve $-1 77.445346647684403 -28.969265834696987 17.554674046500626 -1 0 0 I I #
straight-curve $-1 86.784366808354449 -33.243312241391912 0 0 0 -1 I I #
point $-1 86.784366808354449 -33.243312241391912 17.554674046500626 #
straight-curve $-1 -21.748609878501675 43.904438765155589 87.410320981343659 0 0 -1 I I #
point $-1 -21.748609878501675 43.904438765155589 17.554674046500626 #
straight-curve $-1 -14.818295099914423 43.904438765155589 13.703611835340165 -1 0 0 I I #
point $-1 -21.748609878501675 43.904438765155589 13.703611835340155 #
point $-1 -33.017153194683345 37.2153281012138 10.30515832235681 #
point $-1 -26.256027204974345 37.2153281012138 10.30515832235681 #
straight-curve $-1 37.524570521156015 43.904438765155589 87.410320981343659 0 0 -1 I I #
point $-1 37.524570521156015 43.904438765155589 17.554674046500626 #
straight-curve $-1 14.818295099914423 43.904438765155589 13.703611835340165 -1 0 0 I I #
point $-1 37.524570521156015 43.904438765155589 13.703611835340155 #
point $-1 26.256027204974345 37.2153281012138 10.30515832235681 #
point $-1 33.017153194683345 37.2153281012138 10.30515832235681 #
straight-curve $-1 -37.524570521156015 -43.904438765155589 59.780362065735531 0 0 -1 I I #
point $-1 -37.524570521156015 -43.904438765155589 17.554674046500626 #
straight-curve $-1 -14.818295099914423 -43.904438765155589 13.703611835340158 1 0 0 I I #
point $-1 -37.524570521156015 -43.904438765155589 13.703611835340155 #
point $-1 -33.017153194683345 -37.2153281012138 10.305158322356817 #
point $-1 -26.256027204974345 -37.2153281012138 10.305158322356817 #
straight-curve $-1 21.748609878501675 -43.904438765155589 59.780362065735531 0 0 -1 I I #
point $-1 21.748609878501675 -43.904438765155589 17.554674046500626 #
straight-curve $-1 14.818295099914423 -43.904438765155589 13.703611835340158 1 0 0 I I #
point $-1 21.748609878501675 -43.904438765155589 13.703611835340155 #
point $-1 26.256027204974345 -37.2153281012138 10.305158322356817 #
point $-1 33.017153194683345 -37.2153281012138 10.305158322356817 #
straight-curve $-1 -86.784366808354463 -31.106289038044451 17.554674046500626 0 -1 0 I I #
point $-1 86.784366808354449 -28.969265834696987 17.554674046500626 #
straight-curve $-1 86.784366808354449 -31.106289038044451 17.554674046500626 0 1 0 I I #
End-of-ACIS-data 