500 0 6 0           
7 Unknown 11 ACIS 5.0 NT 24 Fri Mar 26 02:48:31 1999 
-1 9.9999999999999995e-007 1e-010 
body $-1 $6 $-1 $7 #
body $-1 $8 $-1 $9 #
body $-1 $10 $-1 $11 #
body $-1 $12 $-1 $13 #
body $-1 $14 $-1 $15 #
body $-1 $16 $-1 $17 #
lump $-1 $-1 $18 $0 #
transform $-1 1 0 0 0 1 0 0 0 1 45.389568773461107 22.026414779101081 5.8514155317130401 1 rotate no_reflect no_shear #
lump $-1 $-1 $19 $1 #
transform $-1 1 0 0 0 1 0 0 0 1 45.389568773461107 22.026414779101081 5.8514155317130401 1 rotate no_reflect no_shear #
lump $-1 $-1 $20 $2 #
transform $-1 1 0 0 0 1 0 0 0 1 45.389568773461107 22.026414779101081 5.8514155317130401 1 rotate no_reflect no_shear #
lump $-1 $-1 $21 $3 #
transform $-1 1 0 0 0 1 0 0 0 1 45.389568773461107 22.026414779101081 5.8514155317130401 1 rotate no_reflect no_shear #
lump $-1 $-1 $22 $4 #
transform $-1 1 0 0 0 1 0 0 0 1 45.389568773461107 22.026414779101081 5.8514155317130401 1 rotate no_reflect no_shear #
lump $-1 $-1 $23 $5 #
transform $-1 1 0 0 0 1 0 0 0 1 45.389568773461107 22.026414779101081 5.8514155317130401 1 rotate no_reflect no_shear #
shell $-1 $-1 $-1 $24 $-1 $6 #
shell $-1 $-1 $-1 $25 $-1 $8 #
shell $-1 $-1 $-1 $26 $-1 $10 #
shell $-1 $-1 $-1 $27 $-1 $12 #
shell $-1 $-1 $-1 $28 $-1 $14 #
shell $-1 $-1 $-1 $29 $-1 $16 #
face $-1 $30 $31 $18 $-1 $32 forward single #
face $-1 $33 $34 $19 $-1 $35 forward single #
face $-1 $36 $37 $20 $-1 $38 reversed single #
face $-1 $39 $40 $21 $-1 $41 forward single #
face $-1 $42 $43 $22 $-1 $44 forward single #
face $-1 $45 $46 $23 $-1 $47 forward single #
face $-1 $48 $49 $18 $-1 $50 reversed single #
loop $-1 $-1 $51 $24 #
plane-surface $-1 0 0 5.8514155317130401 0 0 1 1 0 0 forward_v I I I I #
face $-1 $52 $53 $19 $-1 $54 reversed single #
loop $-1 $-1 $55 $25 #
plane-surface $-1 0 -19.633552444144613 -2.8514155317130401 0 0 1 1 0 0 forward_v I I I I #
face $-1 $56 $57 $20 $-1 $58 reversed single #
loop $-1 $-1 $59 $26 #
plane-surface $-1 -5.3828528023049671 38.009224498048297 101.39201628462307 1 0 0 0 -0.57357644374324357 -0.81915203911291934 forward_v I I I I #
face $-1 $60 $61 $21 $-1 $62 forward single #
loop $-1 $63 $64 $27 #
cone-surface $-1 -2.8184744553039565 18.321039546057854 2.6850568815723568 0 -0.57357644374324357 -0.81915203911291934 1 0 0 1 I I 0 1 1 forward I I I I #
face $-1 $65 $66 $22 $-1 $67 forward single #
loop $-1 $68 $69 $28 #
cone-surface $-1 1.0280930651975595 18.321039546057854 2.6850568815723568 0 -0.57357644374324357 -0.81915203911291934 1 0 0 1 I I 0 1 1 forward I I I I #
face $-1 $70 $71 $23 $-1 $72 forward single #
loop $-1 $73 $74 $29 #
cone-surface $-1 4.8746605856990755 18.321039546057854 2.6850568815723568 0 -0.57357644374324357 -0.81915203911291934 1 0 0 1 I I 0 1 1 forward I I I I #
face $-1 $75 $76 $18 $-1 $77 reversed single #
loop $-1 $-1 $78 $30 #
plane-surface $-1 0 0 -5.8514155317130401 0 0 1 1 0 0 forward_v I I I I #
coedge $-1 $79 $80 $81 $82 forward $31 $-1 #
face $-1 $83 $84 $19 $-1 $85 reversed single #
loop $-1 $-1 $86 $33 #
plane-surface $-1 0 -17.240690109188144 -4.3514155317130401 0 -1 0 0 0 -1 forward_v I I I I #
coedge $-1 $87 $88 $89 $90 reversed $34 $-1 #
face $-1 $91 $92 $20 $-1 $93 reversed single #
loop $-1 $-1 $94 $36 #
plane-surface $-1 1.0280930651975595 -14.059550382194104 27.030100654149564 0 0.57357644374324357 0.81915203911291934 1 0 0 forward_v I I I I #
coedge $-1 $95 $96 $97 $98 reversed $37 $-1 #
face $-1 $-1 $99 $21 $-1 $100 forward single #
loop $-1 $101 $102 $39 #
cone-surface $-1 -2.8184744553039565 17.248710490743385 1.1536123080673706 0 -0.57357644374324357 -0.81915203911291934 0.5 0 0 1 I I -0.70710678118654768 0.70710678118654735 0.5 forward I I I I #
loop $-1 $-1 $103 $27 #
coedge $-1 $64 $64 $104 $105 reversed $40 $-1 #
face $-1 $-1 $106 $22 $-1 $107 forward single #
loop $-1 $108 $109 $42 #
cone-surface $-1 1.0280930651975595 17.248710490743385 1.1536123080673706 0 -0.57357644374324357 -0.81915203911291934 0.5 0 0 1 I I -0.70710678118654768 0.70710678118654735 0.5 forward I I I I #
loop $-1 $-1 $110 $28 #
coedge $-1 $69 $69 $111 $112 reversed $43 $-1 #
face $-1 $-1 $113 $23 $-1 $114 forward single #
loop $-1 $115 $116 $45 #
cone-surface $-1 4.8746605856990755 17.248710490743385 1.1536123080673706 0 -0.57357644374324357 -0.81915203911291934 0.5 0 0 1 I I -0.70710678118654768 0.70710678118654735 0.5 forward I I I I #
loop $-1 $-1 $117 $29 #
coedge $-1 $74 $74 $118 $119 reversed $46 $-1 #
face $-1 $120 $121 $18 $-1 $122 reversed single #
loop $-1 $-1 $123 $48 #
plane-surface $-1 0 -22.026414779101081 0 0 1 0 0 0 1 forward_v I I I I #
coedge $-1 $124 $125 $126 $127 forward $49 $-1 #
coedge $-1 $128 $51 $129 $130 forward $31 $-1 #
coedge $-1 $51 $128 $131 $132 forward $31 $-1 #
coedge $-1 $133 $134 $51 $82 reversed $135 $-1 #
edge $-1 $136 -22.026414779101081 $137 22.026414779101081 $81 $138 forward 7 unknown #
face $-1 $139 $140 $19 $-1 $141 reversed single #
loop $-1 $-1 $142 $52 #
plane-surface $-1 0 0 -5.8514155317130401 0 0 1 1 0 0 forward_v I I I I #
coedge $-1 $143 $144 $145 $146 reversed $53 $-1 #
coedge $-1 $147 $55 $144 $148 forward $34 $-1 #
coedge $-1 $55 $147 $149 $150 reversed $34 $-1 #
coedge $-1 $151 $145 $55 $90 forward $140 $-1 #
edge $-1 $152 7.4239138871158374 $153 12.209638557028775 $89 $154 forward 7 unknown #
face $-1 $155 $156 $20 $-1 $157 reversed single #
loop $-1 $-1 $158 $56 #
plane-surface $-1 7.4390389327000861 38.009224498048297 101.39201628462307 -1 0 0 0 0.57357644374324357 0.81915203911291934 forward_v I I I I #
coedge $-1 $159 $160 $161 $162 reversed $57 $-1 #
coedge $-1 $96 $59 $163 $164 reversed $37 $-1 #
coedge $-1 $59 $95 $159 $165 reversed $37 $-1 #
coedge $-1 $161 $166 $59 $98 forward $167 $-1 #
edge $-1 $168 -3.0218025300769327 $169 2.8178662691238294 $97 $170 forward 7 unknown #
loop $-1 $-1 $104 $60 #
plane-surface $-1 1.0280930651975595 -14.059550382194104 27.030100654149564 0 0.57357644374324357 0.81915203911291934 1 0 0 forward_v I I I I #
loop $-1 $-1 $171 $39 #
coedge $-1 $102 $102 $103 $172 reversed $61 $-1 #
coedge $-1 $103 $103 $102 $172 forward $63 $-1 #
coedge $-1 $104 $104 $64 $105 forward $99 $-1 #
edge $-1 $173 0 $173 6.2831853071796004 $104 $174 forward 7 unknown #
loop $-1 $-1 $111 $65 #
plane-surface $-1 1.0280930651975595 -14.059550382194104 27.030100654149564 0 0.57357644374324357 0.81915203911291934 1 0 0 forward_v I I I I #
loop $-1 $-1 $175 $42 #
coedge $-1 $109 $109 $110 $176 reversed $66 $-1 #
coedge $-1 $110 $110 $109 $176 forward $68 $-1 #
coedge $-1 $111 $111 $69 $112 forward $106 $-1 #
edge $-1 $177 0 $177 6.2831853071796004 $111 $178 forward 7 unknown #
loop $-1 $-1 $118 $70 #
plane-surface $-1 1.0280930651975595 -14.059550382194104 27.030100654149564 0 0.57357644374324357 0.81915203911291934 1 0 0 forward_v I I I I #
loop $-1 $-1 $179 $45 #
coedge $-1 $116 $116 $117 $180 reversed $71 $-1 #
coedge $-1 $117 $117 $116 $180 forward $73 $-1 #
coedge $-1 $118 $118 $74 $119 forward $113 $-1 #
edge $-1 $181 0 $181 6.2831853071796004 $118 $182 forward 7 unknown #
face $-1 $183 $184 $18 $-1 $185 reversed single #
loop $-1 $-1 $186 $75 #
plane-surface $-1 -45.389568773461107 0 0 1 0 0 0 0 -1 forward_v I I I I #
coedge $-1 $187 $131 $188 $189 forward $76 $-1 #
coedge $-1 $190 $78 $187 $191 forward $49 $-1 #
coedge $-1 $78 $190 $192 $193 forward $49 $-1 #
coedge $-1 $134 $133 $78 $127 reversed $135 $-1 #
edge $-1 $194 -22.026414779101081 $195 22.026414779101081 $126 $196 forward 7 unknown #
coedge $-1 $80 $79 $197 $198 forward $31 $-1 #
coedge $-1 $199 $200 $79 $130 reversed $184 $-1 #
edge $-1 $137 -45.389568773461107 $201 45.389568773461107 $129 $202 forward 7 unknown #
coedge $-1 $123 $203 $80 $132 reversed $76 $-1 #
edge $-1 $204 -45.389568773461107 $136 45.389568773461107 $131 $205 forward 7 unknown #
coedge $-1 $126 $81 $203 $206 forward $135 $-1 #
coedge $-1 $81 $126 $199 $207 reversed $135 $-1 #
loop $-1 $-1 $133 $183 #
vertex $-1 $82 $208 #
vertex $-1 $82 $209 #
straight-curve $-1 45.389568773461107 0 5.8514155317130401 0 1 0 I I #
face $-1 $210 $211 $19 $-1 $212 reversed single #
loop $-1 $-1 $145 $83 #
plane-surface $-1 45.389568773461107 0 0 -1 0 0 0 0 1 forward_v I I I I #
coedge $-1 $213 $214 $143 $215 forward $84 $-1 #
coedge $-1 $216 $86 $142 $215 reversed $53 $-1 #
coedge $-1 $86 $216 $87 $148 reversed $53 $-1 #
coedge $-1 $89 $217 $86 $146 forward $140 $-1 #
edge $-1 $218 -3.67570776585652 $152 -0.67570776585652004 $145 $219 forward 7 unknown #
coedge $-1 $88 $87 $220 $221 reversed $34 $-1 #
edge $-1 $152 -45.389568773461107 $222 45.389568773461107 $144 $223 forward 7 unknown #
coedge $-1 $224 $225 $88 $150 forward $211 $-1 #
edge $-1 $153 -45.389568773461107 $226 45.389568773461107 $149 $227 forward 7 unknown #
coedge $-1 $217 $89 $225 $228 forward $140 $-1 #
vertex $-1 $90 $229 #
vertex $-1 $228 $230 #
straight-curve $-1 45.389568773461107 -9.8167762220723063 -2.8514155317130401 0 -1 0 I I #
face $-1 $-1 $167 $20 $-1 $231 forward single #
loop $-1 $-1 $232 $91 #
plane-surface $-1 0 22.026414779101081 0 0 -1 0 0 0 -1 forward_v I I I I #
coedge $-1 $233 $234 $235 $236 reversed $92 $-1 #
coedge $-1 $237 $94 $96 $165 forward $57 $-1 #
coedge $-1 $94 $237 $233 $238 forward $57 $-1 #
coedge $-1 $235 $97 $94 $162 forward $167 $-1 #
edge $-1 $169 -5.8968993349037468 $239 6.9249924001013063 $161 $240 forward 7 unknown #
coedge $-1 $241 $242 $95 $164 forward $156 $-1 #
edge $-1 $243 -48.933572802982809 $168 -44.844592610598497 $163 $244 forward 7 unknown #
edge $-1 $169 36.923910236308402 $243 44.052829558202163 $96 $245 forward 7 unknown #
coedge $-1 $97 $235 $241 $246 forward $167 $-1 #
loop $-1 $-1 $235 $155 #
vertex $-1 $164 $247 #
vertex $-1 $98 $248 #
straight-curve $-1 -5.3828528023049671 19.004612249024149 5.8514155317130374 0 -1 0 I I #
coedge $-1 $171 $171 $-1 $249 reversed $101 $-1 #
edge $-1 $250 0 $250 6.2831853071796004 $102 $251 forward 7 unknown #
vertex $-1 $105 $252 #
ellipse-curve $-1 -2.8184744553039565 19.106580379500702 3.8069254355208835 0 0.57357644374324357 0.81915203911291934 1 0 0 1 I I #
coedge $-1 $175 $175 $-1 $253 reversed $108 $-1 #
edge $-1 $254 0 $254 6.2831853071796004 $109 $255 forward 7 unknown #
vertex $-1 $112 $256 #
ellipse-curve $-1 1.0280930651975595 19.106580379500702 3.8069254355208835 0 0.57357644374324357 0.81915203911291934 1 0 0 1 I I #
coedge $-1 $179 $179 $-1 $257 reversed $115 $-1 #
edge $-1 $258 0 $258 6.2831853071796004 $116 $259 forward 7 unknown #
vertex $-1 $119 $260 #
ellipse-curve $-1 4.8746605856990755 19.106580379500702 3.8069254355208835 0 0.57357644374324357 0.81915203911291934 1 0 0 1 I I #
face $-1 $-1 $135 $18 $-1 $261 reversed single #
loop $-1 $-1 $199 $120 #
plane-surface $-1 0 22.026414779101081 0 0 -1 0 0 0 -1 forward_v I I I I #
coedge $-1 $262 $197 $200 $263 forward $121 $-1 #
coedge $-1 $203 $123 $124 $191 reversed $76 $-1 #
coedge $-1 $197 $262 $123 $189 reversed $121 $-1 #
edge $-1 $204 -5.8514155317130401 $264 5.8514155317130401 $188 $265 forward 7 unknown #
coedge $-1 $125 $124 $262 $266 forward $49 $-1 #
edge $-1 $195 -45.389568773461107 $264 45.389568773461107 $187 $267 forward 7 unknown #
coedge $-1 $200 $199 $125 $193 reversed $184 $-1 #
edge $-1 $268 -45.389568773461107 $194 45.389568773461107 $192 $269 forward 7 unknown #
vertex $-1 $127 $270 #
vertex $-1 $206 $271 #
straight-curve $-1 45.389568773461107 0 -5.8514155317130401 0 -1 0 I I #
coedge $-1 $186 $188 $128 $198 reversed $121 $-1 #
edge $-1 $201 -22.026414779101081 $204 22.026414779101081 $197 $272 forward 7 unknown #
coedge $-1 $192 $129 $134 $207 forward $184 $-1 #
coedge $-1 $129 $192 $186 $263 reversed $184 $-1 #
vertex $-1 $130 $273 #
straight-curve $-1 0 22.026414779101081 5.8514155317130401 -1 0 0 I I #
coedge $-1 $131 $187 $133 $206 reversed $76 $-1 #
vertex $-1 $198 $274 #
straight-curve $-1 0 -22.026414779101081 5.8514155317130401 1 0 0 I I #
edge $-1 $136 -5.8514155317130401 $195 5.8514155317130401 $133 $275 forward 7 unknown #
edge $-1 $137 -5.8514155317130401 $194 5.8514155317130401 $134 $276 forward 7 unknown #
point $-1 45.389568773461107 -22.026414779101081 5.8514155317130401 #
point $-1 45.389568773461107 22.026414779101081 5.8514155317130401 #
face $-1 $-1 $277 $19 $-1 $278 reversed single #
loop $-1 $-1 $149 $139 #
plane-surface $-1 0 -22.026414779101081 0 0 1 0 0 0 1 forward_v I I I I #
coedge $-1 $279 $142 $217 $280 forward $84 $-1 #
coedge $-1 $142 $279 $281 $282 forward $84 $-1 #
edge $-1 $283 -45.389568773461107 $218 45.389568773461107 $142 $284 forward 7 unknown #
coedge $-1 $144 $143 $285 $286 reversed $53 $-1 #
coedge $-1 $145 $151 $213 $280 reversed $140 $-1 #
vertex $-1 $280 $287 #
straight-curve $-1 45.389568773461107 -17.240690109188144 -2.17570776585652 0 0 1 I I #
coedge $-1 $285 $288 $147 $221 forward $277 $-1 #
edge $-1 $226 -12.209638557028775 $222 -7.4239138871158374 $220 $289 forward 7 unknown #
vertex $-1 $221 $290 #
straight-curve $-1 0 -17.240690109188144 -2.8514155317130401 -1 0 0 I I #
coedge $-1 $291 $149 $288 $292 forward $211 $-1 #
coedge $-1 $149 $291 $151 $228 reversed $211 $-1 #
vertex $-1 $292 $293 #
straight-curve $-1 0 -22.026414779101081 -2.8514155317130401 -1 0 0 I I #
edge $-1 $153 2.8514155317130401 $294 5.8514155317130401 $151 $295 forward 7 unknown #
point $-1 45.389568773461107 -17.240690109188144 -2.8514155317130401 #
point $-1 45.389568773461107 -22.026414779101081 -2.8514155317130401 #
plane-surface $-1 0 0 5.8514155317130401 0 0 1 1 0 0 forward_v I I I I #
coedge $-1 $242 $241 $234 $296 forward $156 $-1 #
coedge $-1 $234 $158 $160 $238 reversed $92 $-1 #
coedge $-1 $158 $233 $232 $296 reversed $92 $-1 #
coedge $-1 $166 $161 $158 $236 forward $167 $-1 #
edge $-1 $239 -2.8178662691238294 $297 3.0218025300769327 $235 $298 forward 7 unknown #
coedge $-1 $160 $159 $242 $299 reversed $57 $-1 #
edge $-1 $300 -44.052829558202163 $239 -36.923910236308402 $233 $301 forward 7 unknown #
vertex $-1 $162 $302 #
straight-curve $-1 0.51404653259877975 16.186745979900309 5.8514155317130427 1 0 0 I I #
coedge $-1 $232 $163 $166 $246 reversed $156 $-1 #
coedge $-1 $163 $232 $237 $299 forward $156 $-1 #
vertex $-1 $164 $303 #
straight-curve $-1 -5.3828528023049671 22.026414779101081 50.696008142311534 0 0 1 I I #
straight-curve $-1 -5.3828528023049671 -14.059550382194104 27.030100654149564 0 0.81915203911291934 -0.57357644374324357 I I #
edge $-1 $297 -7.4390389327000861 $168 5.3828528023049671 $241 $304 forward 7 unknown #
point $-1 -5.3828528023049671 22.026414779101081 5.8514155317130401 #
point $-1 -5.3828528023049671 16.186745979900319 5.851415531713041 #
edge $-1 $305 1 $305 0 $171 $-1 forward 7 unknown #
vertex $-1 $172 $306 #
ellipse-curve $-1 -2.8184744553039565 17.535498712615006 1.5631883276238301 0 0.57357644374324357 0.81915203911291934 1 0 0 1 I I #
point $-1 -1.8184744553039565 19.106580379500702 3.8069254355208835 #
edge $-1 $307 1 $307 0 $175 $-1 forward 7 unknown #
vertex $-1 $176 $308 #
ellipse-curve $-1 1.0280930651975595 17.535498712615006 1.5631883276238301 0 0.57357644374324357 0.81915203911291934 1 0 0 1 I I #
point $-1 2.0280930651975595 19.106580379500702 3.8069254355208835 #
edge $-1 $309 1 $309 0 $179 $-1 forward 7 unknown #
vertex $-1 $180 $310 #
ellipse-curve $-1 4.8746605856990755 17.535498712615006 1.5631883276238301 0 0.57357644374324357 0.81915203911291934 1 0 0 1 I I #
point $-1 5.8746605856990755 19.106580379500702 3.8069254355208835 #
plane-surface $-1 45.389568773461107 0 0 -1 0 0 0 0 1 forward_v I I I I #
coedge $-1 $188 $186 $190 $266 reversed $121 $-1 #
edge $-1 $201 -5.8514155317130401 $268 5.8514155317130401 $200 $311 forward 7 unknown #
vertex $-1 $266 $312 #
straight-curve $-1 -45.389568773461107 -22.026414779101081 0 0 0 -1 I I #
edge $-1 $264 -22.026414779101081 $268 22.026414779101081 $262 $313 forward 7 unknown #
straight-curve $-1 0 -22.026414779101081 -5.8514155317130401 -1 0 0 I I #
vertex $-1 $193 $314 #
straight-curve $-1 0 22.026414779101081 -5.8514155317130401 1 0 0 I I #
point $-1 45.389568773461107 22.026414779101081 -5.8514155317130401 #
point $-1 45.389568773461107 -22.026414779101081 -5.8514155317130401 #
straight-curve $-1 -45.389568773461107 0 5.8514155317130401 0 -1 0 I I #
point $-1 -45.389568773461107 22.026414779101081 5.8514155317130401 #
point $-1 -45.389568773461107 -22.026414779101081 5.8514155317130401 #
straight-curve $-1 45.389568773461107 -22.026414779101081 0 0 0 -1 I I #
straight-curve $-1 45.389568773461107 22.026414779101081 0 0 0 -1 I I #
loop $-1 $-1 $285 $210 #
plane-surface $-1 -45.389568773461107 0 0 1 0 0 0 0 -1 forward_v I I I I #
coedge $-1 $214 $213 $291 $315 forward $84 $-1 #
edge $-1 $218 17.240690109188144 $294 22.026414779101081 $217 $316 forward 7 unknown #
coedge $-1 $288 $285 $214 $282 reversed $277 $-1 #
edge $-1 $317 -22.026414779101081 $283 -17.240690109188144 $281 $318 forward 7 unknown #
vertex $-1 $286 $319 #
straight-curve $-1 0 -17.240690109188144 -5.8514155317130401 1 0 0 I I #
coedge $-1 $281 $220 $216 $286 forward $277 $-1 #
edge $-1 $222 0.67570776585652004 $283 3.67570776585652 $285 $320 forward 7 unknown #
point $-1 45.389568773461107 -17.240690109188144 -5.8514155317130401 #
coedge $-1 $220 $281 $224 $292 reversed $277 $-1 #
straight-curve $-1 -45.389568773461107 -9.8167762220723063 -2.8514155317130401 0 1 0 I I #
point $-1 -45.389568773461107 -17.240690109188144 -2.8514155317130401 #
coedge $-1 $225 $224 $279 $315 reversed $211 $-1 #
edge $-1 $226 2.8514155317130401 $317 5.8514155317130401 $288 $321 forward 7 unknown #
point $-1 -45.389568773461107 -22.026414779101081 -2.8514155317130401 #
vertex $-1 $228 $322 #
straight-curve $-1 45.389568773461107 -22.026414779101081 0 0 0 -1 I I #
edge $-1 $297 44.844592610598497 $300 48.933572802982809 $232 $323 forward 7 unknown #
vertex $-1 $246 $324 #
straight-curve $-1 7.4390389327000861 19.004612249024149 5.8514155317130374 0 1 0 I I #
edge $-1 $300 -6.9249924001013063 $243 5.8968993349037468 $242 $325 forward 7 unknown #
vertex $-1 $299 $326 #
straight-curve $-1 7.4390389327000861 -14.059550382194104 27.030100654149564 0 -0.81915203911291934 0.57357644374324357 I I #
point $-1 7.4390389327000861 16.186745979900319 5.851415531713041 #
point $-1 -5.3828528023049671 22.026414779101081 1.7624353393287251 #
straight-curve $-1 0 22.026414779101081 5.8514155317130401 -1 0 0 I I #
vertex $-1 $249 $327 #
point $-1 -1.8184744553039565 17.535498712615006 1.5631883276238301 #
vertex $-1 $253 $328 #
point $-1 2.0280930651975595 17.535498712615006 1.5631883276238301 #
vertex $-1 $257 $329 #
point $-1 5.8746605856990755 17.535498712615006 1.5631883276238301 #
straight-curve $-1 -45.389568773461107 22.026414779101081 0 0 0 -1 I I #
point $-1 -45.389568773461107 -22.026414779101081 -5.8514155317130401 #
straight-curve $-1 -45.389568773461107 0 -5.8514155317130401 0 1 0 I I #
point $-1 -45.389568773461107 22.026414779101081 -5.8514155317130401 #
edge $-1 $294 -45.389568773461107 $317 45.389568773461107 $291 $330 forward 7 unknown #
straight-curve $-1 45.389568773461107 0 -5.8514155317130401 0 -1 0 I I #
vertex $-1 $282 $331 #
straight-curve $-1 -45.389568773461107 0 -5.8514155317130401 0 1 0 I I #
point $-1 -45.389568773461107 -17.240690109188144 -5.8514155317130401 #
straight-curve $-1 -45.389568773461107 -17.240690109188144 -2.17570776585652 0 0 -1 I I #
straight-curve $-1 -45.389568773461107 -22.026414779101081 0 0 0 -1 I I #
point $-1 45.389568773461107 -22.026414779101081 -5.8514155317130401 #
straight-curve $-1 7.4390389327000861 22.026414779101081 50.696008142311534 0 0 -1 I I #
point $-1 7.4390389327000861 22.026414779101081 5.8514155317130401 #
straight-curve $-1 0.51404653259877975 22.026414779101081 1.7624353393287233 -1 0 0 I I #
point $-1 7.4390389327000861 22.026414779101081 1.7624353393287251 #
point $-1 -2.8184744553039565 16.961922268871763 0.74403628851091108 #
point $-1 1.0280930651975595 16.961922268871763 0.74403628851091108 #
point $-1 4.8746605856990755 16.961922268871763 0.74403628851091108 #
straight-curve $-1 0 -22.026414779101081 -5.8514155317130401 -1 0 0 I I #
point $-1 -45.389568773461107 -22.026414779101081 -5.8514155317130401 #
End-of-ACIS-data 