500 0 14 0           
7 Unknown 11 ACIS 5.0 NT 24 Thu Mar 25 20:07:37 1999 
-1 9.9999999999999995e-007 1e-010 
body $-1 $14 $-1 $15 #
body $-1 $16 $-1 $17 #
body $-1 $18 $-1 $19 #
body $-1 $20 $-1 $21 #
body $-1 $22 $-1 $23 #
body $-1 $24 $-1 $25 #
body $-1 $26 $-1 $27 #
body $-1 $28 $-1 $29 #
body $-1 $30 $-1 $31 #
body $-1 $32 $-1 $33 #
body $-1 $34 $-1 $35 #
body $-1 $36 $-1 $37 #
body $-1 $38 $-1 $39 #
body $-1 $40 $-1 $41 #
lump $-1 $-1 $42 $0 #
transform $-1 1 0 0 0 1 0 0 0 1 40.61281167027802 24.788725611877606 10.858561790750572 1 rotate no_reflect no_shear #
lump $-1 $-1 $43 $1 #
transform $-1 1 0 0 0 1 0 0 0 1 40.61281167027802 24.788725611877606 10.858561790750572 1 rotate no_reflect no_shear #
lump $-1 $-1 $44 $2 #
transform $-1 1 0 0 0 1 0 0 0 1 40.61281167027802 24.788725611877606 10.858561790750572 1 rotate no_reflect no_shear #
lump $-1 $-1 $45 $3 #
transform $-1 1 0 0 0 1 0 0 0 1 40.61281167027802 24.788725611877606 10.858561790750572 1 rotate no_reflect no_shear #
lump $-1 $-1 $46 $4 #
transform $-1 1 0 0 0 1 0 0 0 1 40.61281167027802 24.788725611877606 10.858561790750572 1 rotate no_reflect no_shear #
lump $-1 $-1 $47 $5 #
transform $-1 1 0 0 0 1 0 0 0 1 40.61281167027802 24.788725611877606 10.858561790750572 1 rotate no_reflect no_shear #
lump $-1 $-1 $48 $6 #
transform $-1 1 0 0 0 1 0 0 0 1 40.61281167027802 24.788725611877606 10.858561790750572 1 rotate no_reflect no_shear #
lump $-1 $-1 $49 $7 #
transform $-1 1 0 0 0 1 0 0 0 1 40.61281167027802 24.788725611877606 10.858561790750572 1 rotate no_reflect no_shear #
lump $-1 $-1 $50 $8 #
transform $-1 1 0 0 0 1 0 0 0 1 40.61281167027802 24.788725611877606 10.858561790750572 1 rotate no_reflect no_shear #
lump $-1 $-1 $51 $9 #
transform $-1 1 0 0 0 1 0 0 0 1 40.61281167027802 24.788725611877606 10.858561790750572 1 rotate no_reflect no_shear #
lump $-1 $-1 $52 $10 #
transform $-1 1 0 0 0 1 0 0 0 1 40.61281167027802 24.788725611877606 10.858561790750572 1 rotate no_reflect no_shear #
lump $-1 $-1 $53 $11 #
transform $-1 1 0 0 0 1 0 0 0 1 40.61281167027802 24.788725611877606 10.858561790750572 1 rotate no_reflect no_shear #
lump $-1 $-1 $54 $12 #
transform $-1 1 0 0 0 1 0 0 0 1 40.61281167027802 24.788725611877606 10.858561790750572 1 rotate no_reflect no_shear #
lump $-1 $-1 $55 $13 #
transform $-1 1 0 0 0 1 0 0 0 1 40.61281167027802 24.788725611877606 10.858561790750572 1 rotate no_reflect no_shear #
shell $-1 $-1 $-1 $56 $-1 $14 #
shell $-1 $-1 $-1 $57 $-1 $16 #
shell $-1 $-1 $-1 $58 $-1 $18 #
shell $-1 $-1 $-1 $59 $-1 $20 #
shell $-1 $-1 $-1 $60 $-1 $22 #
shell $-1 $-1 $-1 $61 $-1 $24 #
shell $-1 $-1 $-1 $62 $-1 $26 #
shell $-1 $-1 $-1 $63 $-1 $28 #
shell $-1 $-1 $-1 $64 $-1 $30 #
shell $-1 $-1 $-1 $65 $-1 $32 #
shell $-1 $-1 $-1 $66 $-1 $34 #
shell $-1 $-1 $-1 $67 $-1 $36 #
shell $-1 $-1 $-1 $68 $-1 $38 #
shell $-1 $-1 $-1 $69 $-1 $40 #
face $-1 $70 $71 $42 $-1 $72 forward single #
face $-1 $73 $74 $43 $-1 $75 forward single #
face $-1 $76 $77 $44 $-1 $78 reversed single #
face $-1 $79 $80 $45 $-1 $81 forward single #
face $-1 $82 $83 $46 $-1 $84 reversed single #
face $-1 $85 $86 $47 $-1 $87 forward single #
face $-1 $88 $89 $48 $-1 $90 reversed single #
face $-1 $91 $92 $49 $-1 $93 forward single #
face $-1 $94 $95 $50 $-1 $96 reversed single #
face $-1 $97 $98 $51 $-1 $99 forward single #
face $-1 $100 $101 $52 $-1 $102 reversed single #
face $-1 $103 $104 $53 $-1 $105 forward single #
face $-1 $106 $107 $54 $-1 $108 reversed single #
face $-1 $109 $110 $55 $-1 $111 forward single #
face $-1 $112 $113 $42 $-1 $114 reversed single #
loop $-1 $-1 $115 $56 #
plane-surface $-1 0 0 10.858561790750572 0 0 1 1 0 0 forward_v I I I I #
face $-1 $116 $117 $43 $-1 $118 reversed single #
loop $-1 $-1 $119 $57 #
plane-surface $-1 0 -18.269800782635297 7.3358627403044334 0 0 1 1 0 0 forward_v I I I I #
face $-1 $120 $121 $44 $-1 $122 reversed single #
loop $-1 $-1 $123 $58 #
plane-surface $-1 26.613635226681296 -9.6710851929728303 119.70223777683822 0 1 0 0.61566148304635926 0 0.78801074757464917 forward_v I I I I #
face $-1 $124 $125 $45 $-1 $126 forward single #
loop $-1 $127 $128 $59 #
cone-surface $-1 35.564506791100101 -6.0896120901432802 6.0470557928563302 -0.61566148304635926 0 -0.78801074757464917 1.1820161213619738 0 -0.92349222456953894 1 I I 0 1 1.5 forward I I I I #
face $-1 $129 $130 $46 $-1 $131 reversed single #
loop $-1 $-1 $132 $60 #
plane-surface $-1 26.613635226681296 2.5087819954507022 119.70223777683822 0 1 0 0.61566148304635926 0 0.78801074757464917 forward_v I I I I #
face $-1 $133 $134 $47 $-1 $135 forward single #
loop $-1 $136 $137 $61 #
cone-surface $-1 35.564506791100101 6.0902550982802524 6.0470557928563302 -0.61566148304635926 0 -0.78801074757464917 1.1820161213619738 0 -0.92349222456953894 1 I I 0 1 1.5 forward I I I I #
face $-1 $138 $139 $48 $-1 $140 reversed single #
loop $-1 $-1 $141 $62 #
plane-surface $-1 26.613635226681296 14.688649183874235 119.70223777683822 0 1 0 0.61566148304635926 0 0.78801074757464917 forward_v I I I I #
face $-1 $142 $143 $49 $-1 $144 forward single #
loop $-1 $145 $146 $63 #
cone-surface $-1 35.564506791100101 18.270122286703785 6.0470557928563302 -0.61566148304635926 0 -0.78801074757464917 1.1820161213619738 0 -0.92349222456953894 1 I I 0 1 1.5 forward I I I I #
face $-1 $147 $148 $50 $-1 $149 reversed single #
loop $-1 $-1 $150 $64 #
plane-surface $-1 -90.620299397489731 -9.6710851929728303 69.694750049626506 0 1 0 -0.61566148304635926 0 0.78801074757464917 forward_v I I I I #
face $-1 $151 $152 $51 $-1 $153 forward single #
loop $-1 $154 $155 $65 #
cone-surface $-1 -35.564506791100087 -6.0896120901432802 6.0470557928563338 0.61566148304635926 0 -0.78801074757464917 1.1820161213619738 0 0.92349222456953894 1 I I 0 1 1.5 forward I I I I #
face $-1 $156 $157 $52 $-1 $158 reversed single #
loop $-1 $-1 $159 $66 #
plane-surface $-1 -90.620299397489731 2.5087819954507022 69.694750049626506 0 1 0 -0.61566148304635926 0 0.78801074757464917 forward_v I I I I #
face $-1 $160 $161 $53 $-1 $162 forward single #
loop $-1 $163 $164 $67 #
cone-surface $-1 -35.564506791100087 6.0902550982802524 6.0470557928563338 0.61566148304635926 0 -0.78801074757464917 1.1820161213619738 0 0.92349222456953894 1 I I 0 1 1.5 forward I I I I #
face $-1 $165 $166 $54 $-1 $167 reversed single #
loop $-1 $-1 $168 $68 #
plane-surface $-1 -90.620299397489731 14.688649183874235 69.694750049626506 0 1 0 -0.61566148304635926 0 0.78801074757464917 forward_v I I I I #
face $-1 $169 $170 $55 $-1 $171 forward single #
loop $-1 $172 $173 $69 #
cone-surface $-1 -35.564506791100087 18.270122286703785 6.0470557928563338 0.61566148304635926 0 -0.78801074757464917 1.1820161213619738 0 0.92349222456953894 1 I I 0 1 1.5 forward I I I I #
face $-1 $174 $175 $42 $-1 $176 reversed single #
loop $-1 $-1 $177 $70 #
plane-surface $-1 0 0 -10.858561790750572 0 0 1 1 0 0 forward_v I I I I #
coedge $-1 $178 $179 $180 $181 forward $71 $-1 #
face $-1 $182 $183 $43 $-1 $184 reversed single #
loop $-1 $-1 $185 $73 #
plane-surface $-1 0 -18.269800782635297 2.7319014695473403 0 0 1 1 0 0 forward_v I I I I #
coedge $-1 $186 $187 $188 $189 reversed $74 $-1 #
face $-1 $190 $191 $44 $-1 $192 reversed single #
loop $-1 $-1 $193 $76 #
plane-surface $-1 -23.393852500530407 -6.0896120901432802 55.695573606029782 0.61566148304635926 0 0.78801074757464917 0.78801074757464917 0 -0.61566148304635926 forward_v I I I I #
coedge $-1 $194 $195 $196 $197 reversed $77 $-1 #
face $-1 $-1 $198 $45 $-1 $199 forward single #
loop $-1 $200 $201 $79 #
cone-surface $-1 33.363409421779011 -6.0896120901432802 3.2297796902473603 -0.61566148304635926 0 -0.78801074757464917 0.59100806068098688 0 -0.46174611228476947 1 I I -0.70710678118654757 0.70710678118654757 0.75 forward I I I I #
loop $-1 $-1 $202 $59 #
coedge $-1 $128 $128 $203 $204 reversed $80 $-1 #
face $-1 $205 $206 $46 $-1 $207 reversed single #
loop $-1 $-1 $208 $82 #
plane-surface $-1 -23.393852500530407 6.0902550982802524 55.695573606029782 0.61566148304635926 0 0.78801074757464917 0.78801074757464917 0 -0.61566148304635926 forward_v I I I I #
coedge $-1 $209 $210 $211 $212 reversed $83 $-1 #
face $-1 $-1 $213 $47 $-1 $214 forward single #
loop $-1 $215 $216 $85 #
cone-surface $-1 33.363409421779011 6.0902550982802524 3.2297796902473603 -0.61566148304635926 0 -0.78801074757464917 0.59100806068098688 0 -0.46174611228476947 1 I I -0.70710678118654757 0.70710678118654757 0.75 forward I I I I #
loop $-1 $-1 $217 $61 #
coedge $-1 $137 $137 $218 $219 reversed $86 $-1 #
face $-1 $220 $221 $48 $-1 $222 reversed single #
loop $-1 $-1 $223 $88 #
plane-surface $-1 -23.393852500530407 18.270122286703785 55.695573606029782 0.61566148304635926 0 0.78801074757464917 0.78801074757464917 0 -0.61566148304635926 forward_v I I I I #
coedge $-1 $224 $225 $226 $227 reversed $89 $-1 #
face $-1 $-1 $228 $49 $-1 $229 forward single #
loop $-1 $230 $231 $91 #
cone-surface $-1 33.363409421779011 18.270122286703785 3.2297796902473603 -0.61566148304635926 0 -0.78801074757464917 0.59100806068098688 0 -0.46174611228476947 1 I I -0.70710678118654757 0.70710678118654757 0.75 forward I I I I #
loop $-1 $-1 $232 $63 #
coedge $-1 $146 $146 $233 $234 reversed $92 $-1 #
face $-1 $235 $236 $50 $-1 $237 reversed single #
loop $-1 $-1 $238 $94 #
plane-surface $-1 -40.612811670278028 -6.0896120901432802 5.6880858788180717 -0.61566148304635926 0 0.78801074757464917 0.78801074757464917 0 0.61566148304635926 forward_v I I I I #
coedge $-1 $239 $240 $241 $242 reversed $95 $-1 #
face $-1 $-1 $243 $51 $-1 $244 forward single #
loop $-1 $245 $246 $97 #
cone-surface $-1 -33.363409421778996 -6.0896120901432802 3.2297796902473639 0.61566148304635926 0 -0.78801074757464917 0.59100806068098688 0 0.46174611228476947 1 I I -0.70710678118654757 0.70710678118654757 0.75 forward I I I I #
loop $-1 $-1 $247 $65 #
coedge $-1 $155 $155 $248 $249 reversed $98 $-1 #
face $-1 $250 $251 $52 $-1 $252 reversed single #
loop $-1 $-1 $253 $100 #
plane-surface $-1 -40.612811670278028 6.0902550982802524 5.6880858788180717 -0.61566148304635926 0 0.78801074757464917 0.78801074757464917 0 0.61566148304635926 forward_v I I I I #
coedge $-1 $254 $255 $256 $257 reversed $101 $-1 #
face $-1 $-1 $258 $53 $-1 $259 forward single #
loop $-1 $260 $261 $103 #
cone-surface $-1 -33.363409421778996 6.0902550982802524 3.2297796902473639 0.61566148304635926 0 -0.78801074757464917 0.59100806068098688 0 0.46174611228476947 1 I I -0.70710678118654757 0.70710678118654757 0.75 forward I I I I #
loop $-1 $-1 $262 $67 #
coedge $-1 $164 $164 $263 $264 reversed $104 $-1 #
face $-1 $265 $266 $54 $-1 $267 reversed single #
loop $-1 $-1 $268 $106 #
plane-surface $-1 -40.612811670278028 18.270122286703785 5.6880858788180717 -0.61566148304635926 0 0.78801074757464917 0.78801074757464917 0 0.61566148304635926 forward_v I I I I #
coedge $-1 $269 $270 $271 $272 reversed $107 $-1 #
face $-1 $-1 $273 $55 $-1 $274 forward single #
loop $-1 $275 $276 $109 #
cone-surface $-1 -33.363409421778996 18.270122286703785 3.2297796902473639 0.61566148304635926 0 -0.78801074757464917 0.59100806068098688 0 0.46174611228476947 1 I I -0.70710678118654757 0.70710678118654757 0.75 forward I I I I #
loop $-1 $-1 $277 $69 #
coedge $-1 $173 $173 $278 $279 reversed $110 $-1 #
face $-1 $280 $281 $42 $-1 $282 reversed single #
loop $-1 $-1 $283 $112 #
plane-surface $-1 0 -24.788725611877606 0 0 1 0 0 0 1 forward_v I I I I #
coedge $-1 $284 $285 $286 $287 forward $113 $-1 #
coedge $-1 $288 $115 $289 $290 forward $71 $-1 #
coedge $-1 $115 $288 $291 $292 forward $71 $-1 #
coedge $-1 $293 $294 $115 $181 reversed $295 $-1 #
edge $-1 $296 -24.788725611877606 $297 24.788725611877606 $180 $298 forward 7 unknown #
face $-1 $299 $300 $43 $-1 $301 reversed single #
loop $-1 $-1 $302 $116 #
plane-surface $-1 0 -11.750875953392988 5.0338821049258868 0 -1 0 0 0 -1 forward_v I I I I #
coedge $-1 $303 $304 $305 $306 reversed $117 $-1 #
coedge $-1 $307 $119 $308 $309 forward $74 $-1 #
coedge $-1 $119 $307 $310 $311 reversed $74 $-1 #
coedge $-1 $312 $313 $119 $189 forward $314 $-1 #
edge $-1 $315 2.6159755620753398 $316 15.653825220559957 $188 $317 forward 7 unknown #
face $-1 $318 $319 $44 $-1 $320 forward single #
loop $-1 $-1 $321 $120 #
plane-surface $-1 26.613635226681296 -2.5081389873137301 119.70223777683822 0 -1 0 -0.61566148304635926 0 -0.78801074757464917 forward_v I I I I #
coedge $-1 $322 $323 $324 $325 reversed $121 $-1 #
coedge $-1 $195 $123 $326 $327 reversed $77 $-1 #
coedge $-1 $123 $194 $322 $328 reversed $77 $-1 #
coedge $-1 $324 $329 $123 $197 forward $330 $-1 #
edge $-1 $331 48.992557097668538 $332 54.163033009601016 $196 $333 forward 7 unknown #
loop $-1 $-1 $203 $124 #
plane-surface $-1 -23.393852500530407 -6.0896120901432802 55.695573606029782 0.61566148304635926 0 0.78801074757464917 0.78801074757464917 0 -0.61566148304635926 forward_v I I I I #
loop $-1 $-1 $334 $79 #
coedge $-1 $201 $201 $202 $335 reversed $125 $-1 #
coedge $-1 $202 $202 $201 $335 forward $127 $-1 #
coedge $-1 $203 $203 $128 $204 forward $198 $-1 #
edge $-1 $336 0 $336 6.2831853071796004 $203 $337 forward 7 unknown #
face $-1 $338 $339 $46 $-1 $340 reversed single #
loop $-1 $-1 $341 $129 #
plane-surface $-1 26.613635226681296 9.6717282011098025 119.70223777683822 0 -1 0 -0.61566148304635926 0 -0.78801074757464917 forward_v I I I I #
coedge $-1 $342 $343 $344 $345 reversed $130 $-1 #
coedge $-1 $210 $132 $346 $347 reversed $83 $-1 #
coedge $-1 $132 $209 $342 $348 reversed $83 $-1 #
coedge $-1 $344 $349 $132 $212 forward $339 $-1 #
edge $-1 $350 48.992557097668538 $351 54.163033009601016 $211 $352 forward 7 unknown #
loop $-1 $-1 $218 $133 #
plane-surface $-1 -23.393852500530407 6.0902550982802524 55.695573606029782 0.61566148304635926 0 0.78801074757464917 0.78801074757464917 0 -0.61566148304635926 forward_v I I I I #
loop $-1 $-1 $353 $85 #
coedge $-1 $216 $216 $217 $354 reversed $134 $-1 #
coedge $-1 $217 $217 $216 $354 forward $136 $-1 #
coedge $-1 $218 $218 $137 $219 forward $213 $-1 #
edge $-1 $355 0 $355 6.2831853071796004 $218 $356 forward 7 unknown #
face $-1 $357 $358 $48 $-1 $359 reversed single #
loop $-1 $-1 $360 $138 #
plane-surface $-1 26.613635226681296 21.851595389533337 119.70223777683822 0 -1 0 -0.61566148304635926 0 -0.78801074757464917 forward_v I I I I #
coedge $-1 $361 $362 $363 $364 reversed $139 $-1 #
coedge $-1 $225 $141 $365 $366 reversed $89 $-1 #
coedge $-1 $141 $224 $361 $367 reversed $89 $-1 #
coedge $-1 $363 $368 $141 $227 forward $358 $-1 #
edge $-1 $369 48.992557097668538 $370 54.163033009601016 $226 $371 forward 7 unknown #
loop $-1 $-1 $233 $142 #
plane-surface $-1 -23.393852500530407 18.270122286703785 55.695573606029782 0.61566148304635926 0 0.78801074757464917 0.78801074757464917 0 -0.61566148304635926 forward_v I I I I #
loop $-1 $-1 $372 $91 #
coedge $-1 $231 $231 $232 $373 reversed $143 $-1 #
coedge $-1 $232 $232 $231 $373 forward $145 $-1 #
coedge $-1 $233 $233 $146 $234 forward $228 $-1 #
edge $-1 $374 0 $374 6.2831853071796004 $233 $375 forward 7 unknown #
face $-1 $376 $377 $50 $-1 $378 reversed single #
loop $-1 $-1 $379 $147 #
plane-surface $-1 -90.620299397489731 -2.5081389873137301 69.694750049626506 0 -1 0 0.61566148304635926 0 -0.78801074757464917 forward_v I I I I #
coedge $-1 $380 $381 $382 $383 reversed $148 $-1 #
coedge $-1 $240 $150 $384 $385 reversed $95 $-1 #
coedge $-1 $150 $239 $380 $386 reversed $95 $-1 #
coedge $-1 $382 $387 $150 $242 forward $388 $-1 #
edge $-1 $389 4.6973380284668451 $390 11.315245272750047 $241 $391 forward 7 unknown #
loop $-1 $-1 $248 $151 #
plane-surface $-1 -40.612811670278028 -6.0896120901432802 5.6880858788180717 -0.61566148304635926 0 0.78801074757464917 0.78801074757464917 0 0.61566148304635926 forward_v I I I I #
loop $-1 $-1 $392 $97 #
coedge $-1 $246 $246 $247 $393 reversed $152 $-1 #
coedge $-1 $247 $247 $246 $393 forward $154 $-1 #
coedge $-1 $248 $248 $155 $249 forward $243 $-1 #
edge $-1 $394 0 $394 6.2831853071796004 $248 $395 forward 7 unknown #
face $-1 $396 $397 $52 $-1 $398 forward single #
loop $-1 $-1 $399 $156 #
plane-surface $-1 -90.620299397489731 9.6717282011098025 69.694750049626506 0 -1 0 0.61566148304635926 0 -0.78801074757464917 forward_v I I I I #
coedge $-1 $400 $401 $402 $403 reversed $157 $-1 #
coedge $-1 $255 $159 $404 $405 reversed $101 $-1 #
coedge $-1 $159 $254 $400 $406 reversed $101 $-1 #
coedge $-1 $402 $407 $159 $257 forward $397 $-1 #
edge $-1 $408 4.6973380284668451 $409 11.315245272750047 $256 $410 forward 7 unknown #
loop $-1 $-1 $263 $160 #
plane-surface $-1 -40.612811670278028 6.0902550982802524 5.6880858788180717 -0.61566148304635926 0 0.78801074757464917 0.78801074757464917 0 0.61566148304635926 forward_v I I I I #
loop $-1 $-1 $411 $103 #
coedge $-1 $261 $261 $262 $412 reversed $161 $-1 #
coedge $-1 $262 $262 $261 $412 forward $163 $-1 #
coedge $-1 $263 $263 $164 $264 forward $258 $-1 #
edge $-1 $413 0 $413 6.2831853071796004 $263 $414 forward 7 unknown #
face $-1 $415 $416 $54 $-1 $417 forward single #
loop $-1 $-1 $418 $165 #
plane-surface $-1 -90.620299397489731 21.851595389533337 69.694750049626506 0 -1 0 0.61566148304635926 0 -0.78801074757464917 forward_v I I I I #
coedge $-1 $419 $420 $421 $422 reversed $166 $-1 #
coedge $-1 $270 $168 $423 $424 reversed $107 $-1 #
coedge $-1 $168 $269 $419 $425 reversed $107 $-1 #
coedge $-1 $421 $426 $168 $272 forward $416 $-1 #
edge $-1 $427 4.6973380284668451 $428 11.315245272750047 $271 $429 forward 7 unknown #
loop $-1 $-1 $278 $169 #
plane-surface $-1 -40.612811670278028 18.270122286703785 5.6880858788180717 -0.61566148304635926 0 0.78801074757464917 0.78801074757464917 0 0.61566148304635926 forward_v I I I I #
loop $-1 $-1 $430 $109 #
coedge $-1 $276 $276 $277 $431 reversed $170 $-1 #
coedge $-1 $277 $277 $276 $431 forward $172 $-1 #
coedge $-1 $278 $278 $173 $279 forward $273 $-1 #
edge $-1 $432 0 $432 6.2831853071796004 $278 $433 forward 7 unknown #
face $-1 $434 $435 $42 $-1 $436 reversed single #
loop $-1 $-1 $437 $174 #
plane-surface $-1 -40.61281167027802 0 0 1 0 0 0 0 -1 forward_v I I I I #
coedge $-1 $438 $291 $439 $440 forward $175 $-1 #
coedge $-1 $441 $177 $438 $442 forward $113 $-1 #
coedge $-1 $177 $441 $443 $444 forward $113 $-1 #
coedge $-1 $294 $293 $177 $287 reversed $295 $-1 #
edge $-1 $445 -24.788725611877606 $446 24.788725611877606 $286 $447 forward 7 unknown #
coedge $-1 $179 $178 $448 $449 forward $71 $-1 #
coedge $-1 $450 $451 $178 $290 reversed $435 $-1 #
edge $-1 $297 -40.61281167027802 $452 40.61281167027802 $289 $453 forward 7 unknown #
coedge $-1 $283 $454 $179 $292 reversed $175 $-1 #
edge $-1 $455 -40.61281167027802 $296 40.61281167027802 $291 $456 forward 7 unknown #
coedge $-1 $286 $180 $454 $457 forward $295 $-1 #
coedge $-1 $180 $286 $450 $458 reversed $295 $-1 #
loop $-1 $-1 $293 $434 #
vertex $-1 $181 $459 #
vertex $-1 $181 $460 #
straight-curve $-1 40.61281167027802 0 10.858561790750572 0 1 0 I I #
face $-1 $461 $462 $43 $-1 $463 reversed single #
loop $-1 $-1 $464 $182 #
plane-surface $-1 -40.61281167027802 0 0 1 0 0 0 0 -1 forward_v I I I I #
coedge $-1 $465 $308 $313 $466 reversed $183 $-1 #
coedge $-1 $467 $185 $468 $469 reversed $117 $-1 #
coedge $-1 $185 $467 $465 $470 forward $117 $-1 #
coedge $-1 $313 $312 $185 $306 forward $314 $-1 #
edge $-1 $471 -15.653825220559957 $472 -2.6159755620753398 $305 $473 forward 7 unknown #
coedge $-1 $187 $186 $464 $474 reversed $74 $-1 #
coedge $-1 $302 $475 $186 $309 reversed $183 $-1 #
edge $-1 $315 -40.61281167027802 $476 40.61281167027802 $308 $477 forward 7 unknown #
coedge $-1 $478 $479 $187 $311 forward $462 $-1 #
edge $-1 $316 -40.61281167027802 $480 40.61281167027802 $310 $481 forward 7 unknown #
coedge $-1 $305 $188 $479 $482 forward $314 $-1 #
coedge $-1 $188 $305 $302 $466 forward $314 $-1 #
loop $-1 $-1 $188 $461 #
vertex $-1 $189 $483 #
vertex $-1 $482 $484 #
straight-curve $-1 40.61281167027802 -9.1349003913176485 7.3358627403044334 0 -1 0 I I #
face $-1 $-1 $330 $44 $-1 $485 reversed single #
loop $-1 $-1 $486 $190 #
plane-surface $-1 0 0 10.858561790750572 0 0 1 1 0 0 forward_v I I I I #
coedge $-1 $487 $488 $489 $490 reversed $191 $-1 #
coedge $-1 $491 $193 $195 $328 forward $121 $-1 #
coedge $-1 $193 $491 $487 $492 forward $121 $-1 #
coedge $-1 $489 $196 $193 $325 forward $330 $-1 #
edge $-1 $332 -6.6262791479011902 $493 0.53666705775791002 $324 $494 forward 7 unknown #
coedge $-1 $495 $496 $194 $327 forward $319 $-1 #
edge $-1 $497 20.688086812654177 $331 27.305994056937372 $326 $498 forward 7 unknown #
edge $-1 $332 -81.225623340556012 $497 -72.827378437612907 $195 $499 forward 7 unknown #
coedge $-1 $196 $489 $495 $500 reversed $330 $-1 #
loop $-1 $-1 $489 $318 #
vertex $-1 $500 $501 #
vertex $-1 $197 $502 #
straight-curve $-1 40.61281167027802 -9.6710851929728303 59.851118888419109 0 0 -1 I I #
coedge $-1 $334 $334 $-1 $503 reversed $200 $-1 #
edge $-1 $504 0 $504 6.2831853071796004 $201 $505 forward 7 unknown #
vertex $-1 $204 $506 #
ellipse-curve $-1 37.303858048136433 -6.0896120901432802 8.2733238347843283 0.61566148304635926 0 0.78801074757464917 1.1820161213619738 0 -0.92349222456953894 1 I I #
face $-1 $-1 $507 $46 $-1 $508 forward single #
loop $-1 $-1 $211 $205 #
plane-surface $-1 40.61281167027802 0 0 -1 0 0 0 0 1 forward_v I I I I #
coedge $-1 $509 $510 $511 $512 reversed $206 $-1 #
coedge $-1 $513 $208 $210 $348 forward $130 $-1 #
coedge $-1 $208 $513 $509 $514 forward $130 $-1 #
coedge $-1 $511 $211 $208 $345 forward $339 $-1 #
edge $-1 $351 -0.53634555368942394 $515 6.6266006519696763 $344 $516 forward 7 unknown #
coedge $-1 $517 $518 $209 $347 forward $507 $-1 #
edge $-1 $519 20.688086812654177 $350 27.305994056937372 $346 $520 forward 7 unknown #
edge $-1 $351 -81.225623340556012 $519 -72.827378437612907 $210 $521 forward 7 unknown #
coedge $-1 $211 $511 $517 $522 reversed $339 $-1 #
vertex $-1 $522 $523 #
vertex $-1 $212 $524 #
straight-curve $-1 40.61281167027802 2.5087819954507022 59.851118888419109 0 0 -1 I I #
coedge $-1 $353 $353 $-1 $525 reversed $215 $-1 #
edge $-1 $526 0 $526 6.2831853071796004 $216 $527 forward 7 unknown #
vertex $-1 $219 $528 #
ellipse-curve $-1 37.303858048136433 6.0902550982802524 8.2733238347843283 0.61566148304635926 0 0.78801074757464917 1.1820161213619738 0 -0.92349222456953894 1 I I #
face $-1 $-1 $529 $48 $-1 $530 forward single #
loop $-1 $-1 $226 $220 #
plane-surface $-1 40.61281167027802 0 0 -1 0 0 0 0 1 forward_v I I I I #
coedge $-1 $531 $532 $533 $534 reversed $221 $-1 #
coedge $-1 $535 $223 $225 $367 forward $139 $-1 #
coedge $-1 $223 $535 $531 $536 forward $139 $-1 #
coedge $-1 $533 $226 $223 $364 forward $358 $-1 #
edge $-1 $370 5.5535880405223423 $537 12.716534246181444 $363 $538 forward 7 unknown #
coedge $-1 $539 $540 $224 $366 forward $529 $-1 #
edge $-1 $541 20.688086812654177 $369 27.305994056937372 $365 $542 forward 7 unknown #
edge $-1 $370 -81.225623340556012 $541 -72.827378437612907 $225 $543 forward 7 unknown #
coedge $-1 $226 $533 $539 $544 reversed $358 $-1 #
vertex $-1 $544 $545 #
vertex $-1 $227 $546 #
straight-curve $-1 40.61281167027802 14.688649183874235 59.851118888419109 0 0 -1 I I #
coedge $-1 $372 $372 $-1 $547 reversed $230 $-1 #
edge $-1 $548 0 $548 6.2831853071796004 $231 $549 forward 7 unknown #
vertex $-1 $234 $550 #
ellipse-curve $-1 37.303858048136433 18.270122286703785 8.2733238347843283 0.61566148304635926 0 0.78801074757464917 1.1820161213619738 0 -0.92349222456953894 1 I I #
face $-1 $-1 $388 $50 $-1 $551 forward single #
loop $-1 $-1 $552 $235 #
plane-surface $-1 -40.61281167027802 0 0 1 0 0 0 0 -1 forward_v I I I I #
coedge $-1 $553 $554 $555 $556 reversed $236 $-1 #
coedge $-1 $557 $238 $240 $386 forward $148 $-1 #
coedge $-1 $238 $557 $553 $558 forward $148 $-1 #
coedge $-1 $555 $241 $238 $383 forward $388 $-1 #
edge $-1 $390 -6.6262791479011902 $559 0.53666705775791002 $382 $560 forward 7 unknown #
coedge $-1 $561 $562 $239 $385 forward $377 $-1 #
edge $-1 $563 -29.159289145995174 $389 -23.988813234062683 $384 $564 forward 7 unknown #
edge $-1 $390 -8.398244902943139 $563 -8.8800565823946346e-015 $240 $565 forward 7 unknown #
coedge $-1 $241 $555 $561 $566 forward $388 $-1 #
loop $-1 $-1 $555 $376 #
vertex $-1 $385 $567 #
vertex $-1 $242 $568 #
straight-curve $-1 -45.310149698744866 -9.6710851929728303 10.858561790750571 1 0 0 I I #
coedge $-1 $392 $392 $-1 $569 reversed $245 $-1 #
edge $-1 $570 0 $570 6.2831853071796004 $246 $571 forward 7 unknown #
vertex $-1 $249 $572 #
ellipse-curve $-1 -37.303858048136412 -6.0896120901432802 8.2733238347843283 -0.61566148304635926 0 0.78801074757464917 1.1820161213619738 0 0.92349222456953894 1 I I #
face $-1 $-1 $573 $52 $-1 $574 reversed single #
loop $-1 $-1 $256 $250 #
plane-surface $-1 0 0 10.858561790750572 0 0 1 1 0 0 forward_v I I I I #
coedge $-1 $575 $576 $577 $578 reversed $251 $-1 #
coedge $-1 $579 $253 $255 $406 forward $157 $-1 #
coedge $-1 $253 $579 $575 $580 forward $157 $-1 #
coedge $-1 $577 $256 $253 $403 forward $397 $-1 #
edge $-1 $409 -0.53634555368942394 $581 6.6266006519696763 $402 $582 forward 7 unknown #
coedge $-1 $583 $584 $254 $405 forward $573 $-1 #
edge $-1 $585 -29.159289145995174 $408 -23.988813234062683 $404 $586 forward 7 unknown #
edge $-1 $409 -8.398244902943139 $585 -8.8800565823946346e-015 $255 $587 forward 7 unknown #
coedge $-1 $256 $577 $583 $588 forward $397 $-1 #
vertex $-1 $257 $589 #
vertex $-1 $257 $590 #
straight-curve $-1 -45.310149698744866 2.5087819954507022 10.858561790750571 1 0 0 I I #
coedge $-1 $411 $411 $-1 $591 reversed $260 $-1 #
edge $-1 $592 0 $592 6.2831853071796004 $261 $593 forward 7 unknown #
vertex $-1 $264 $594 #
ellipse-curve $-1 -37.303858048136412 6.0902550982802524 8.2733238347843283 -0.61566148304635926 0 0.78801074757464917 1.1820161213619738 0 0.92349222456953894 1 I I #
face $-1 $-1 $595 $54 $-1 $596 reversed single #
loop $-1 $-1 $271 $265 #
plane-surface $-1 0 0 10.858561790750572 0 0 1 1 0 0 forward_v I I I I #
coedge $-1 $597 $598 $599 $600 reversed $266 $-1 #
coedge $-1 $601 $268 $270 $425 forward $166 $-1 #
coedge $-1 $268 $601 $597 $602 forward $166 $-1 #
coedge $-1 $599 $271 $268 $422 forward $416 $-1 #
edge $-1 $428 5.5535880405223423 $603 12.716534246181444 $421 $604 forward 7 unknown #
coedge $-1 $605 $606 $269 $424 forward $595 $-1 #
edge $-1 $607 -29.159289145995174 $427 -23.988813234062683 $423 $608 forward 7 unknown #
edge $-1 $428 -8.398244902943139 $607 -8.8800565823946346e-015 $270 $609 forward 7 unknown #
coedge $-1 $271 $599 $605 $610 forward $416 $-1 #
vertex $-1 $272 $611 #
vertex $-1 $272 $612 #
straight-curve $-1 -45.310149698744866 14.688649183874235 10.858561790750571 1 0 0 I I #
coedge $-1 $430 $430 $-1 $613 reversed $275 $-1 #
edge $-1 $614 0 $614 6.2831853071796004 $276 $615 forward 7 unknown #
vertex $-1 $279 $616 #
ellipse-curve $-1 -37.303858048136412 18.270122286703785 8.2733238347843283 -0.61566148304635926 0 0.78801074757464917 1.1820161213619738 0 0.92349222456953894 1 I I #
face $-1 $-1 $295 $42 $-1 $617 reversed single #
loop $-1 $-1 $450 $280 #
plane-surface $-1 0 24.788725611877606 0 0 -1 0 0 0 -1 forward_v I I I I #
coedge $-1 $618 $448 $451 $619 forward $281 $-1 #
coedge $-1 $454 $283 $284 $442 reversed $175 $-1 #
coedge $-1 $448 $618 $283 $440 reversed $281 $-1 #
edge $-1 $455 -10.858561790750572 $620 10.858561790750572 $439 $621 forward 7 unknown #
coedge $-1 $285 $284 $618 $622 forward $113 $-1 #
edge $-1 $446 -40.61281167027802 $620 40.61281167027802 $438 $623 forward 7 unknown #
coedge $-1 $451 $450 $285 $444 reversed $435 $-1 #
edge $-1 $624 -40.61281167027802 $445 40.61281167027802 $443 $625 forward 7 unknown #
vertex $-1 $287 $626 #
vertex $-1 $457 $627 #
straight-curve $-1 40.61281167027802 0 -10.858561790750572 0 -1 0 I I #
coedge $-1 $437 $439 $288 $449 reversed $281 $-1 #
edge $-1 $452 -24.788725611877606 $455 24.788725611877606 $448 $628 forward 7 unknown #
coedge $-1 $443 $289 $294 $458 forward $435 $-1 #
coedge $-1 $289 $443 $437 $619 reversed $435 $-1 #
vertex $-1 $290 $629 #
straight-curve $-1 0 24.788725611877606 10.858561790750572 -1 0 0 I I #
coedge $-1 $291 $438 $293 $457 reversed $175 $-1 #
vertex $-1 $449 $630 #
straight-curve $-1 0 -24.788725611877606 10.858561790750572 1 0 0 I I #
edge $-1 $296 -10.858561790750572 $446 10.858561790750572 $293 $631 forward 7 unknown #
edge $-1 $297 -10.858561790750572 $445 10.858561790750572 $294 $632 forward 7 unknown #
point $-1 40.61281167027802 -24.788725611877606 10.858561790750572 #
point $-1 40.61281167027802 24.788725611877606 10.858561790750572 #
face $-1 $-1 $314 $43 $-1 $633 reversed single #
loop $-1 $-1 $310 $299 #
plane-surface $-1 0 -24.788725611877606 0 0 1 0 0 0 1 forward_v I I I I #
coedge $-1 $634 $635 $307 $474 forward $300 $-1 #
coedge $-1 $475 $302 $304 $470 reversed $183 $-1 #
edge $-1 $472 0.21496041708439684 $315 4.81892168784149 $313 $636 forward 7 unknown #
coedge $-1 $304 $303 $637 $638 reversed $117 $-1 #
coedge $-1 $479 $478 $303 $469 forward $462 $-1 #
edge $-1 $639 -40.61281167027802 $471 40.61281167027802 $468 $640 forward 7 unknown #
edge $-1 $641 -40.61281167027802 $472 40.61281167027802 $465 $642 forward 7 unknown #
vertex $-1 $469 $643 #
vertex $-1 $306 $644 #
straight-curve $-1 40.61281167027802 -9.1349003913176485 2.7319014695473403 0 1 0 I I #
edge $-1 $480 -15.653825220559957 $476 -2.6159755620753398 $464 $645 forward 7 unknown #
coedge $-1 $308 $465 $634 $646 reversed $183 $-1 #
vertex $-1 $474 $647 #
straight-curve $-1 0 -11.750875953392988 7.3358627403044334 -1 0 0 I I #
coedge $-1 $468 $310 $635 $648 forward $462 $-1 #
coedge $-1 $310 $468 $312 $482 reversed $462 $-1 #
vertex $-1 $648 $649 #
straight-curve $-1 0 -24.788725611877606 7.3358627403044334 -1 0 0 I I #
edge $-1 $316 -7.3358627403044334 $471 -2.7319014695473403 $312 $650 forward 7 unknown #
point $-1 40.61281167027802 -11.750875953392988 7.3358627403044334 #
point $-1 40.61281167027802 -24.788725611877606 7.3358627403044334 #
plane-surface $-1 40.61281167027802 0 0 -1 0 0 0 0 1 forward_v I I I I #
coedge $-1 $496 $495 $488 $651 forward $319 $-1 #
coedge $-1 $488 $321 $323 $492 reversed $191 $-1 #
coedge $-1 $321 $487 $486 $651 reversed $191 $-1 #
coedge $-1 $329 $324 $321 $490 forward $330 $-1 #
edge $-1 $493 -54.163033009601016 $652 -48.992557097668538 $489 $653 forward 7 unknown #
coedge $-1 $323 $322 $496 $654 reversed $121 $-1 #
edge $-1 $655 72.827378437612907 $493 81.225623340556012 $487 $656 forward 7 unknown #
vertex $-1 $325 $657 #
straight-curve $-1 40.61281167027802 -3.0448060450716401 5.6880858788180859 0 1 0 I I #
coedge $-1 $486 $326 $329 $500 forward $319 $-1 #
coedge $-1 $326 $486 $491 $654 forward $319 $-1 #
vertex $-1 $327 $658 #
straight-curve $-1 13.306817613340648 -9.6710851929728303 10.858561790750571 1 0 0 I I #
straight-curve $-1 -23.393852500530407 -9.6710851929728303 55.695573606029782 -0.78801074757464917 0 0.61566148304635926 I I #
edge $-1 $331 -9.6710851929728303 $652 -2.5081389873137301 $329 $659 forward 7 unknown #
point $-1 40.61281167027802 -9.6710851929728303 10.858561790750572 #
point $-1 40.612811670278013 -9.6710851929728303 5.688085878818093 #
edge $-1 $660 1 $660 0 $334 $-1 forward 7 unknown #
vertex $-1 $335 $661 #
ellipse-curve $-1 33.825155534063782 -6.0896120901432802 3.8207877509283472 0.61566148304635926 0 0.78801074757464917 1.1820161213619738 0 -0.92349222456953894 1 I I #
point $-1 38.485874169498395 -6.0896120901432802 7.3498316102147729 #
loop $-1 $-1 $346 $338 #
plane-surface $-1 0 0 10.858561790750572 0 0 1 1 0 0 forward_v I I I I #
coedge $-1 $510 $341 $343 $514 reversed $206 $-1 #
coedge $-1 $341 $509 $662 $663 reversed $206 $-1 #
coedge $-1 $349 $344 $341 $512 forward $339 $-1 #
edge $-1 $515 -54.163033009601016 $664 -48.992557097668538 $511 $665 forward 7 unknown #
coedge $-1 $343 $342 $518 $666 reversed $130 $-1 #
edge $-1 $667 72.827378437612907 $515 81.225623340556012 $509 $668 forward 7 unknown #
vertex $-1 $345 $669 #
straight-curve $-1 40.61281167027802 3.0451275491401262 5.6880858788180859 0 1 0 I I #
coedge $-1 $662 $346 $349 $522 forward $507 $-1 #
coedge $-1 $346 $662 $513 $666 forward $507 $-1 #
vertex $-1 $347 $670 #
straight-curve $-1 13.306817613340648 2.5087819954507022 10.858561790750571 1 0 0 I I #
straight-curve $-1 -23.393852500530407 2.5087819954507022 55.695573606029782 -0.78801074757464917 0 0.61566148304635926 I I #
edge $-1 $350 2.5087819954507022 $664 9.6717282011098025 $349 $671 forward 7 unknown #
point $-1 40.61281167027802 2.5087819954507022 10.858561790750572 #
point $-1 40.612811670278013 2.5087819954507022 5.688085878818093 #
edge $-1 $672 1 $672 0 $353 $-1 forward 7 unknown #
vertex $-1 $354 $673 #
ellipse-curve $-1 33.825155534063782 6.0902550982802524 3.8207877509283472 0.61566148304635926 0 0.78801074757464917 1.1820161213619738 0 -0.92349222456953894 1 I I #
point $-1 38.485874169498395 6.0902550982802524 7.3498316102147729 #
loop $-1 $-1 $365 $357 #
plane-surface $-1 0 0 10.858561790750572 0 0 1 1 0 0 forward_v I I I I #
coedge $-1 $532 $360 $362 $536 reversed $221 $-1 #
coedge $-1 $360 $531 $674 $675 reversed $221 $-1 #
coedge $-1 $368 $363 $360 $534 forward $358 $-1 #
edge $-1 $537 -54.163033009601016 $676 -48.992557097668538 $533 $677 forward 7 unknown #
coedge $-1 $362 $361 $540 $678 reversed $139 $-1 #
edge $-1 $679 72.827378437612907 $537 81.225623340556012 $531 $680 forward 7 unknown #
vertex $-1 $364 $681 #
straight-curve $-1 40.61281167027802 9.1350611433518925 5.6880858788180859 0 1 0 I I #
coedge $-1 $674 $365 $368 $544 forward $529 $-1 #
coedge $-1 $365 $674 $535 $678 forward $529 $-1 #
vertex $-1 $366 $682 #
straight-curve $-1 13.306817613340648 14.688649183874235 10.858561790750571 1 0 0 I I #
straight-curve $-1 -23.393852500530407 14.688649183874235 55.695573606029782 -0.78801074757464917 0 0.61566148304635926 I I #
edge $-1 $369 14.688649183874235 $676 21.851595389533337 $368 $683 forward 7 unknown #
point $-1 40.61281167027802 14.688649183874235 10.858561790750572 #
point $-1 40.612811670278013 14.688649183874235 5.688085878818093 #
edge $-1 $684 1 $684 0 $372 $-1 forward 7 unknown #
vertex $-1 $373 $685 #
ellipse-curve $-1 33.825155534063782 18.270122286703785 3.8207877509283472 0.61566148304635926 0 0.78801074757464917 1.1820161213619738 0 -0.92349222456953894 1 I I #
point $-1 38.485874169498395 18.270122286703785 7.3498316102147729 #
plane-surface $-1 0 0 10.858561790750572 0 0 1 1 0 0 forward_v I I I I #
coedge $-1 $562 $561 $554 $686 forward $377 $-1 #
coedge $-1 $554 $379 $381 $558 reversed $236 $-1 #
coedge $-1 $379 $553 $552 $686 reversed $236 $-1 #
coedge $-1 $387 $382 $379 $556 forward $388 $-1 #
edge $-1 $559 -11.315245272750047 $687 -4.6973380284668451 $555 $688 forward 7 unknown #
coedge $-1 $381 $380 $562 $689 reversed $148 $-1 #
edge $-1 $690 8.8800565823946346e-015 $559 8.398244902943139 $553 $691 forward 7 unknown #
vertex $-1 $383 $692 #
straight-curve $-1 -33.994904425994818 -3.0448060450716401 10.858561790750572 0 1 0 I I #
coedge $-1 $552 $384 $387 $566 reversed $377 $-1 #
coedge $-1 $384 $552 $557 $689 forward $377 $-1 #
vertex $-1 $385 $693 #
straight-curve $-1 -40.61281167027802 -9.6710851929728303 34.847375024813253 0 0 1 I I #
straight-curve $-1 -40.612811670278028 -9.6710851929728303 5.6880858788180717 -0.78801074757464917 0 -0.61566148304635926 I I #
edge $-1 $687 2.5081389873137301 $389 9.6710851929728303 $561 $694 forward 7 unknown #
point $-1 -40.61281167027802 -9.6710851929728303 10.858561790750572 #
point $-1 -33.994904425994818 -9.6710851929728303 10.858561790750572 #
edge $-1 $695 1 $695 0 $392 $-1 forward 7 unknown #
vertex $-1 $393 $696 #
ellipse-curve $-1 -33.825155534063768 -6.0896120901432802 3.8207877509283508 -0.61566148304635926 0 0.78801074757464917 1.1820161213619738 0 0.92349222456953894 1 I I #
point $-1 -36.12184192677443 -6.0896120901432802 9.1968160593538553 #
loop $-1 $-1 $404 $396 #
plane-surface $-1 -40.61281167027802 0 0 1 0 0 0 0 -1 forward_v I I I I #
coedge $-1 $576 $399 $401 $580 reversed $251 $-1 #
coedge $-1 $399 $575 $697 $698 reversed $251 $-1 #
coedge $-1 $407 $402 $399 $578 forward $397 $-1 #
edge $-1 $581 -11.315245272750047 $699 -4.6973380284668451 $577 $700 forward 7 unknown #
coedge $-1 $401 $400 $584 $701 reversed $157 $-1 #
edge $-1 $702 8.8800565823946346e-015 $581 8.398244902943139 $575 $703 forward 7 unknown #
vertex $-1 $403 $704 #
straight-curve $-1 -33.994904425994818 3.0451275491401262 10.858561790750572 0 1 0 I I #
coedge $-1 $697 $404 $407 $588 reversed $573 $-1 #
coedge $-1 $404 $697 $579 $701 forward $573 $-1 #
vertex $-1 $405 $705 #
straight-curve $-1 -40.61281167027802 2.5087819954507022 34.847375024813253 0 0 1 I I #
straight-curve $-1 -40.612811670278028 2.5087819954507022 5.6880858788180717 -0.78801074757464917 0 -0.61566148304635926 I I #
edge $-1 $699 -9.6717282011098025 $408 -2.5087819954507022 $583 $706 forward 7 unknown #
point $-1 -40.61281167027802 2.5087819954507022 10.858561790750572 #
point $-1 -33.994904425994818 2.5087819954507022 10.858561790750572 #
edge $-1 $707 1 $707 0 $411 $-1 forward 7 unknown #
vertex $-1 $412 $708 #
ellipse-curve $-1 -33.825155534063768 6.0902550982802524 3.8207877509283508 -0.61566148304635926 0 0.78801074757464917 1.1820161213619738 0 0.92349222456953894 1 I I #
point $-1 -36.12184192677443 6.0902550982802524 9.1968160593538553 #
loop $-1 $-1 $423 $415 #
plane-surface $-1 -40.61281167027802 0 0 1 0 0 0 0 -1 forward_v I I I I #
coedge $-1 $598 $418 $420 $602 reversed $266 $-1 #
coedge $-1 $418 $597 $709 $710 reversed $266 $-1 #
coedge $-1 $426 $421 $418 $600 forward $416 $-1 #
edge $-1 $603 -11.315245272750047 $711 -4.6973380284668451 $599 $712 forward 7 unknown #
coedge $-1 $420 $419 $606 $713 reversed $166 $-1 #
edge $-1 $714 8.8800565823946346e-015 $603 8.398244902943139 $597 $715 forward 7 unknown #
vertex $-1 $422 $716 #
straight-curve $-1 -33.994904425994818 9.1350611433518925 10.858561790750572 0 1 0 I I #
coedge $-1 $709 $423 $426 $610 reversed $595 $-1 #
coedge $-1 $423 $709 $601 $713 forward $595 $-1 #
vertex $-1 $424 $717 #
straight-curve $-1 -40.61281167027802 14.688649183874235 34.847375024813253 0 0 1 I I #
straight-curve $-1 -40.612811670278028 14.688649183874235 5.6880858788180717 -0.78801074757464917 0 -0.61566148304635926 I I #
edge $-1 $711 -21.851595389533337 $427 -14.688649183874235 $605 $718 forward 7 unknown #
point $-1 -40.61281167027802 14.688649183874235 10.858561790750572 #
point $-1 -33.994904425994818 14.688649183874235 10.858561790750572 #
edge $-1 $719 1 $719 0 $430 $-1 forward 7 unknown #
vertex $-1 $431 $720 #
ellipse-curve $-1 -33.825155534063768 18.270122286703785 3.8207877509283508 -0.61566148304635926 0 0.78801074757464917 1.1820161213619738 0 0.92349222456953894 1 I I #
point $-1 -36.12184192677443 18.270122286703785 9.1968160593538553 #
plane-surface $-1 40.61281167027802 0 0 -1 0 0 0 0 1 forward_v I I I I #
coedge $-1 $439 $437 $441 $622 reversed $281 $-1 #
edge $-1 $452 -10.858561790750572 $624 10.858561790750572 $451 $721 forward 7 unknown #
vertex $-1 $622 $722 #
straight-curve $-1 -40.61281167027802 -24.788725611877606 0 0 0 -1 I I #
edge $-1 $620 -24.788725611877606 $624 24.788725611877606 $618 $723 forward 7 unknown #
straight-curve $-1 0 -24.788725611877606 -10.858561790750572 -1 0 0 I I #
vertex $-1 $444 $724 #
straight-curve $-1 0 24.788725611877606 -10.858561790750572 1 0 0 I I #
point $-1 40.61281167027802 24.788725611877606 -10.858561790750572 #
point $-1 40.61281167027802 -24.788725611877606 -10.858561790750572 #
straight-curve $-1 -40.61281167027802 0 10.858561790750572 0 -1 0 I I #
point $-1 -40.61281167027802 24.788725611877606 10.858561790750572 #
point $-1 -40.61281167027802 -24.788725611877606 10.858561790750572 #
straight-curve $-1 40.61281167027802 -24.788725611877606 0 0 0 -1 I I #
straight-curve $-1 40.61281167027802 24.788725611877606 0 0 0 -1 I I #
plane-surface $-1 40.61281167027802 0 0 -1 0 0 0 0 1 forward_v I I I I #
coedge $-1 $637 $464 $475 $646 forward $300 $-1 #
coedge $-1 $464 $637 $478 $648 reversed $300 $-1 #
straight-curve $-1 40.61281167027802 -11.750875953392988 2.5169410524629434 0 0 1 I I #
coedge $-1 $635 $634 $467 $638 forward $300 $-1 #
edge $-1 $641 2.6159755620753398 $639 15.653825220559957 $637 $725 forward 7 unknown #
vertex $-1 $469 $726 #
straight-curve $-1 0 -24.788725611877606 2.7319014695473403 1 0 0 I I #
vertex $-1 $638 $727 #
straight-curve $-1 0 -11.750875953392988 2.7319014695473403 1 0 0 I I #
point $-1 40.61281167027802 -24.788725611877606 2.7319014695473403 #
point $-1 40.61281167027802 -11.750875953392988 2.7319014695473403 #
straight-curve $-1 -40.61281167027802 -9.1349003913176485 7.3358627403044334 0 1 0 I I #
edge $-1 $476 -4.81892168784149 $641 -0.21496041708439684 $634 $728 forward 7 unknown #
point $-1 -40.61281167027802 -11.750875953392988 7.3358627403044334 #
edge $-1 $480 -7.3358627403044334 $639 -2.7319014695473403 $635 $729 forward 7 unknown #
point $-1 -40.61281167027802 -24.788725611877606 7.3358627403044334 #
straight-curve $-1 40.61281167027802 -24.788725611877606 0 0 0 -1 I I #
edge $-1 $652 -27.305994056937372 $655 -20.688086812654177 $486 $730 forward 7 unknown #
vertex $-1 $651 $731 #
straight-curve $-1 40.61281167027802 -2.5081389873137301 59.851118888419109 0 0 1 I I #
edge $-1 $655 -0.53666705775791002 $497 6.6262791479011902 $496 $732 forward 7 unknown #
vertex $-1 $654 $733 #
straight-curve $-1 -23.393852500530407 -2.5081389873137301 55.695573606029782 0.78801074757464917 0 -0.61566148304635926 I I #
point $-1 40.612811670278013 -2.5081389873137301 5.688085878818093 #
point $-1 33.994904425994825 -9.6710851929728303 10.858561790750571 #
straight-curve $-1 40.61281167027802 0 10.858561790750572 0 1 0 I I #
vertex $-1 $503 $734 #
point $-1 35.007171655425751 -6.0896120901432802 2.8972955263588083 #
coedge $-1 $518 $517 $510 $663 forward $507 $-1 #
edge $-1 $664 -27.305994056937372 $667 -20.688086812654177 $662 $735 forward 7 unknown #
vertex $-1 $663 $736 #
straight-curve $-1 40.61281167027802 9.6717282011098025 59.851118888419109 0 0 1 I I #
edge $-1 $667 -6.6266006519696763 $519 0.53634555368942394 $518 $737 forward 7 unknown #
vertex $-1 $666 $738 #
straight-curve $-1 -23.393852500530407 9.6717282011098025 55.695573606029782 0.78801074757464917 0 -0.61566148304635926 I I #
point $-1 40.612811670278013 9.6717282011098025 5.688085878818093 #
point $-1 33.994904425994825 2.5087819954507022 10.858561790750571 #
straight-curve $-1 40.61281167027802 0 10.858561790750572 0 1 0 I I #
vertex $-1 $525 $739 #
point $-1 35.007171655425751 6.0902550982802524 2.8972955263588083 #
coedge $-1 $540 $539 $532 $675 forward $529 $-1 #
edge $-1 $676 -27.305994056937372 $679 -20.688086812654177 $674 $740 forward 7 unknown #
vertex $-1 $675 $741 #
straight-curve $-1 40.61281167027802 21.851595389533337 59.851118888419109 0 0 1 I I #
edge $-1 $679 -12.716534246181444 $541 -5.5535880405223423 $540 $742 forward 7 unknown #
vertex $-1 $678 $743 #
straight-curve $-1 -23.393852500530407 21.851595389533337 55.695573606029782 0.78801074757464917 0 -0.61566148304635926 I I #
point $-1 40.612811670278013 21.851595389533337 5.688085878818093 #
point $-1 33.994904425994825 14.688649183874235 10.858561790750571 #
straight-curve $-1 40.61281167027802 0 10.858561790750572 0 1 0 I I #
vertex $-1 $547 $744 #
point $-1 35.007171655425751 18.270122286703785 2.8972955263588083 #
edge $-1 $687 23.988813234062683 $690 29.159289145995174 $552 $745 forward 7 unknown #
vertex $-1 $566 $746 #
straight-curve $-1 -45.310149698744866 -2.5081389873137301 10.858561790750571 -1 0 0 I I #
edge $-1 $690 -0.53666705775791002 $563 6.6262791479011902 $562 $747 forward 7 unknown #
vertex $-1 $689 $748 #
straight-curve $-1 -40.612811670278028 -2.5081389873137301 5.6880858788180717 0.78801074757464917 0 0.61566148304635926 I I #
point $-1 -33.994904425994818 -2.5081389873137301 10.858561790750572 #
point $-1 -40.61281167027802 -9.6710851929728303 5.688085878818077 #
straight-curve $-1 -40.61281167027802 0 10.858561790750572 0 -1 0 I I #
vertex $-1 $569 $749 #
point $-1 -32.643139412701792 -6.0896120901432802 4.7442799754978893 #
coedge $-1 $584 $583 $576 $698 forward $573 $-1 #
edge $-1 $699 23.988813234062683 $702 29.159289145995174 $697 $750 forward 7 unknown #
vertex $-1 $588 $751 #
straight-curve $-1 -45.310149698744866 9.6717282011098025 10.858561790750571 -1 0 0 I I #
edge $-1 $702 -6.6266006519696763 $585 0.53634555368942394 $584 $752 forward 7 unknown #
vertex $-1 $701 $753 #
straight-curve $-1 -40.612811670278028 9.6717282011098025 5.6880858788180717 0.78801074757464917 0 0.61566148304635926 I I #
point $-1 -33.994904425994818 9.6717282011098025 10.858561790750572 #
point $-1 -40.61281167027802 2.5087819954507022 5.688085878818077 #
straight-curve $-1 -40.61281167027802 0 10.858561790750572 0 -1 0 I I #
vertex $-1 $591 $754 #
point $-1 -32.643139412701792 6.0902550982802524 4.7442799754978893 #
coedge $-1 $606 $605 $598 $710 forward $595 $-1 #
edge $-1 $711 23.988813234062683 $714 29.159289145995174 $709 $755 forward 7 unknown #
vertex $-1 $610 $756 #
straight-curve $-1 -45.310149698744866 21.851595389533337 10.858561790750571 -1 0 0 I I #
edge $-1 $714 -12.716534246181444 $607 -5.5535880405223423 $606 $757 forward 7 unknown #
vertex $-1 $713 $758 #
straight-curve $-1 -40.612811670278028 21.851595389533337 5.6880858788180717 0.78801074757464917 0 0.61566148304635926 I I #
point $-1 -33.994904425994818 21.851595389533337 10.858561790750572 #
point $-1 -40.61281167027802 14.688649183874235 5.688085878818077 #
straight-curve $-1 -40.61281167027802 0 10.858561790750572 0 -1 0 I I #
vertex $-1 $613 $759 #
point $-1 -32.643139412701792 18.270122286703785 4.7442799754978893 #
straight-curve $-1 -40.61281167027802 24.788725611877606 0 0 0 -1 I I #
point $-1 -40.61281167027802 -24.788725611877606 -10.858561790750572 #
straight-curve $-1 -40.61281167027802 0 -10.858561790750572 0 1 0 I I #
point $-1 -40.61281167027802 24.788725611877606 -10.858561790750572 #
straight-curve $-1 -40.61281167027802 -9.1349003913176485 2.7319014695473403 0 -1 0 I I #
point $-1 -40.61281167027802 -24.788725611877606 2.7319014695473403 #
point $-1 -40.61281167027802 -11.750875953392988 2.7319014695473403 #
straight-curve $-1 -40.61281167027802 -11.750875953392988 2.5169410524629434 0 0 -1 I I #
straight-curve $-1 -40.61281167027802 -24.788725611877606 0 0 0 -1 I I #
straight-curve $-1 13.306817613340648 -2.5081389873137301 10.858561790750571 -1 0 0 I I #
point $-1 40.61281167027802 -2.5081389873137301 10.858561790750572 #
straight-curve $-1 33.994904425994832 -3.0448060450716401 10.858561790750567 0 -1 0 I I #
point $-1 33.994904425994825 -2.5081389873137301 10.858561790750571 #
point $-1 32.901663309494239 -6.0896120901432802 2.6387716295663735 #
straight-curve $-1 13.306817613340648 9.6717282011098025 10.858561790750571 -1 0 0 I I #
point $-1 40.61281167027802 9.6717282011098025 10.858561790750572 #
straight-curve $-1 33.994904425994832 3.0451275491401262 10.858561790750567 0 -1 0 I I #
point $-1 33.994904425994825 9.6717282011098025 10.858561790750571 #
point $-1 32.901663309494239 6.0902550982802524 2.6387716295663735 #
straight-curve $-1 13.306817613340648 21.851595389533337 10.858561790750571 -1 0 0 I I #
point $-1 40.61281167027802 21.851595389533337 10.858561790750572 #
straight-curve $-1 33.994904425994832 9.1350611433518925 10.858561790750567 0 -1 0 I I #
point $-1 33.994904425994825 21.851595389533337 10.858561790750571 #
point $-1 32.901663309494239 18.270122286703785 2.6387716295663735 #
straight-curve $-1 -40.61281167027802 -2.5081389873137301 34.847375024813253 0 0 -1 I I #
point $-1 -40.61281167027802 -2.5081389873137301 10.858561790750572 #
straight-curve $-1 -40.61281167027802 -3.0448060450716401 5.6880858788180717 0 -1 0 I I #
point $-1 -40.61281167027802 -2.5081389873137301 5.688085878818077 #
point $-1 -32.901663309494225 -6.0896120901432802 2.638771629566377 #
straight-curve $-1 -40.61281167027802 9.6717282011098025 34.847375024813253 0 0 -1 I I #
point $-1 -40.61281167027802 9.6717282011098025 10.858561790750572 #
straight-curve $-1 -40.61281167027802 3.0451275491401262 5.6880858788180717 0 -1 0 I I #
point $-1 -40.61281167027802 9.6717282011098025 5.688085878818077 #
point $-1 -32.901663309494225 6.0902550982802524 2.638771629566377 #
straight-curve $-1 -40.61281167027802 21.851595389533337 34.847375024813253 0 0 -1 I I #
point $-1 -40.61281167027802 21.851595389533337 10.858561790750572 #
straight-curve $-1 -40.61281167027802 9.1350611433518925 5.6880858788180717 0 -1 0 I I #
point $-1 -40.61281167027802 21.851595389533337 5.688085878818077 #
point $-1 -32.901663309494225 18.270122286703785 2.638771629566377 #
End-of-ACIS-data 