500 0 9 0           
7 Unknown 11 ACIS 5.0 NT 24 Fri Mar 26 19:23:46 1999 
-1 9.9999999999999995e-007 1e-010 
body $-1 $9 $-1 $10 #
body $-1 $11 $-1 $12 #
body $-1 $13 $-1 $14 #
body $-1 $15 $-1 $16 #
body $-1 $17 $-1 $18 #
body $-1 $19 $-1 $20 #
body $-1 $21 $-1 $22 #
body $-1 $23 $-1 $24 #
body $-1 $25 $-1 $26 #
lump $-1 $-1 $27 $0 #
transform $-1 1 0 0 0 1 0 0 0 1 76.79799798577838 48.697482319086589 20.369508733341494 1 rotate no_reflect no_shear #
lump $-1 $-1 $28 $1 #
transform $-1 1 0 0 0 1 0 0 0 1 76.79799798577838 48.697482319086589 20.369508733341494 1 rotate no_reflect no_shear #
lump $-1 $-1 $29 $2 #
transform $-1 1 0 0 0 1 0 0 0 1 76.79799798577838 48.697482319086589 20.369508733341494 1 rotate no_reflect no_shear #
lump $-1 $-1 $30 $3 #
transform $-1 1 0 0 0 1 0 0 0 1 76.79799798577838 48.697482319086589 20.369508733341494 1 rotate no_reflect no_shear #
lump $-1 $-1 $31 $4 #
transform $-1 1 0 0 0 1 0 0 0 1 76.79799798577838 48.697482319086589 20.369508733341494 1 rotate no_reflect no_shear #
lump $-1 $-1 $32 $5 #
transform $-1 1 0 0 0 1 0 0 0 1 76.79799798577838 48.697482319086589 20.369508733341494 1 rotate no_reflect no_shear #
lump $-1 $-1 $33 $6 #
transform $-1 1 0 0 0 1 0 0 0 1 76.79799798577838 48.697482319086589 20.369508733341494 1 rotate no_reflect no_shear #
lump $-1 $-1 $34 $7 #
transform $-1 1 0 0 0 1 0 0 0 1 76.79799798577838 48.697482319086589 20.369508733341494 1 rotate no_reflect no_shear #
lump $-1 $-1 $35 $8 #
transform $-1 1 0 0 0 1 0 0 0 1 76.79799798577838 48.697482319086589 20.369508733341494 1 rotate no_reflect no_shear #
shell $-1 $-1 $-1 $36 $-1 $9 #
shell $-1 $-1 $-1 $37 $-1 $11 #
shell $-1 $-1 $-1 $38 $-1 $13 #
shell $-1 $-1 $-1 $39 $-1 $15 #
shell $-1 $-1 $-1 $40 $-1 $17 #
shell $-1 $-1 $-1 $41 $-1 $19 #
shell $-1 $-1 $-1 $42 $-1 $21 #
shell $-1 $-1 $-1 $43 $-1 $23 #
shell $-1 $-1 $-1 $44 $-1 $25 #
face $-1 $45 $46 $27 $-1 $47 forward single #
face $-1 $48 $49 $28 $-1 $50 forward single #
face $-1 $51 $52 $29 $-1 $53 reversed single #
face $-1 $54 $55 $30 $-1 $56 reversed single #
face $-1 $57 $58 $31 $-1 $59 forward single #
face $-1 $60 $61 $32 $-1 $62 reversed single #
face $-1 $63 $64 $33 $-1 $65 forward single #
face $-1 $66 $67 $34 $-1 $68 reversed single #
face $-1 $69 $70 $35 $-1 $71 forward single #
face $-1 $72 $73 $27 $-1 $74 reversed single #
loop $-1 $-1 $75 $36 #
plane-surface $-1 0 0 20.369508733341494 0 0 1 1 0 0 forward_v I I I I #
face $-1 $76 $77 $28 $-1 $78 reversed single #
loop $-1 $-1 $79 $37 #
plane-surface $-1 0 -41.059578598186775 -11.517946840476371 0 0 1 1 0 0 forward_v I I I I #
face $-1 $80 $81 $29 $-1 $82 reversed single #
loop $-1 $-1 $83 $38 #
plane-surface $-1 0 39.919801173570335 13.049366116117167 0 0 1 1 0 0 forward_v I I I I #
face $-1 $84 $85 $30 $-1 $86 reversed single #
loop $-1 $-1 $87 $39 #
plane-surface $-1 -189.13099946287008 -26.034723943659451 115.15526202210276 0 1 0 -0.73135370988377701 0 0.68199835119979291 forward_v I I I I #
face $-1 $88 $89 $31 $-1 $90 forward single #
loop $-1 $91 $92 $40 #
cone-surface $-1 -69.107723624592452 -20.777228727247319 12.548320660865599 0.73135370988377701 0 -0.68199835119979291 1.7049958779994823 0 1.8283842747094425 1 I I 0 1 2.5 forward I I I I #
face $-1 $93 $94 $32 $-1 $95 reversed single #
loop $-1 $-1 $96 $41 #
plane-surface $-1 -189.13099946287008 13.240178661602309 115.15526202210276 0 1 0 -0.73135370988377701 0 0.68199835119979291 forward_v I I I I #
face $-1 $97 $98 $33 $-1 $99 forward single #
loop $-1 $100 $101 $42 #
cone-surface $-1 -69.107723624592452 18.497673878014439 12.548320660865599 0.73135370988377701 0 -0.68199835119979291 1.7049958779994823 0 1.8283842747094425 1 I I 0 1 2.5 forward I I I I #
face $-1 $102 $103 $34 $-1 $104 reversed single #
loop $-1 $-1 $105 $43 #
plane-surface $-1 110.77831073855728 -13.107445571061421 218.51361724045108 0 -1 0 -0.80901700255871778 0 -0.5877852410284794 forward_v I I I I #
face $-1 $106 $107 $35 $-1 $108 forward single #
loop $-1 $109 $110 $44 #
cone-surface $-1 70.018614601765492 -20.893543283949395 11.572690418378874 -0.80901700255871778 0 -0.5877852410284794 1.1755704820569588 0 -1.6180340051174356 1 I I 0 1 2 forward I I I I #
face $-1 $111 $112 $27 $-1 $113 reversed single #
loop $-1 $-1 $114 $45 #
plane-surface $-1 0 0 -20.369508733341494 0 0 1 1 0 0 forward_v I I I I #
coedge $-1 $115 $116 $117 $118 forward $46 $-1 #
face $-1 $119 $120 $28 $-1 $121 reversed single #
loop $-1 $-1 $122 $48 #
plane-surface $-1 0 -41.059578598186775 -16.465635674018195 0 0 1 1 0 0 forward_v I I I I #
coedge $-1 $123 $124 $125 $126 reversed $49 $-1 #
face $-1 $127 $128 $29 $-1 $129 reversed single #
loop $-1 $-1 $130 $51 #
plane-surface $-1 0 31.14212002805408 16.709437424729327 0 1 0 0 0 1 forward_v I I I I #
coedge $-1 $131 $132 $133 $134 reversed $52 $-1 #
face $-1 $135 $136 $30 $-1 $137 reversed single #
loop $-1 $-1 $138 $54 #
plane-surface $-1 -76.797997985778366 -20.777228727247319 10.403046018611022 -0.73135370988377701 0 0.68199835119979291 0.68199835119979291 0 0.73135370988377701 forward_v I I I I #
coedge $-1 $139 $140 $141 $142 reversed $55 $-1 #
face $-1 $-1 $143 $31 $-1 $144 forward single #
loop $-1 $145 $146 $57 #
cone-surface $-1 -65.150195431608893 -20.777228727247319 8.8578660067552057 0.73135370988377701 0 -0.68199835119979291 0.85249793899974113 0 0.91419213735472127 1 I I -0.70710678118654746 0.70710678118654746 1.25 forward I I I I #
loop $-1 $-1 $147 $40 #
coedge $-1 $92 $92 $148 $149 reversed $58 $-1 #
face $-1 $150 $151 $32 $-1 $152 reversed single #
loop $-1 $-1 $153 $60 #
plane-surface $-1 -76.797997985778366 18.497673878014439 10.403046018611022 -0.73135370988377701 0 0.68199835119979291 0.68199835119979291 0 0.73135370988377701 forward_v I I I I #
coedge $-1 $154 $155 $156 $157 reversed $61 $-1 #
face $-1 $-1 $158 $33 $-1 $159 forward single #
loop $-1 $160 $161 $63 #
cone-surface $-1 -65.150195431608893 18.497673878014439 8.8578660067552057 0.73135370988377701 0 -0.68199835119979291 0.85249793899974113 0 0.91419213735472127 1 I I -0.70710678118654746 0.70710678118654746 1.25 forward I I I I #
loop $-1 $-1 $162 $42 #
coedge $-1 $101 $101 $163 $164 reversed $64 $-1 #
face $-1 $165 $166 $34 $-1 $167 reversed single #
loop $-1 $-1 $168 $66 #
plane-surface $-1 -13.483461527372455 -20.893543283949398 128.23215772730026 0.80901700255871778 0 0.5877852410284794 0.5877852410284794 0 -0.80901700255871778 forward_v I I I I #
coedge $-1 $169 $170 $171 $172 reversed $67 $-1 #
face $-1 $-1 $173 $35 $-1 $174 forward single #
loop $-1 $175 $176 $69 #
cone-surface $-1 68.387544280312994 -20.893543283949395 10.387648498373277 -0.80901700255871778 0 -0.5877852410284794 0.5877852410284794 0 -0.80901700255871778 1 I I -0.70710678118654746 0.70710678118654746 1 forward I I I I #
loop $-1 $-1 $177 $44 #
coedge $-1 $110 $110 $178 $179 reversed $70 $-1 #
face $-1 $180 $181 $27 $-1 $182 reversed single #
loop $-1 $-1 $183 $72 #
plane-surface $-1 0 -48.697482319086589 0 0 1 0 0 0 1 forward_v I I I I #
coedge $-1 $184 $185 $186 $187 forward $73 $-1 #
coedge $-1 $188 $75 $189 $190 forward $46 $-1 #
coedge $-1 $75 $188 $191 $192 forward $46 $-1 #
coedge $-1 $193 $194 $75 $118 reversed $195 $-1 #
edge $-1 $196 -48.697482319086589 $197 48.697482319086589 $117 $198 forward 7 unknown #
face $-1 $199 $200 $28 $-1 $201 reversed single #
loop $-1 $-1 $202 $76 #
plane-surface $-1 0 -33.421674877286961 -13.991791257247284 0 -1 0 0 0 -1 forward_v I I I I #
coedge $-1 $203 $204 $205 $206 reversed $77 $-1 #
coedge $-1 $207 $79 $208 $209 forward $49 $-1 #
coedge $-1 $79 $207 $210 $211 reversed $49 $-1 #
coedge $-1 $212 $213 $79 $126 forward $214 $-1 #
edge $-1 $215 12.891885578193573 $216 28.167693019993202 $125 $217 forward 7 unknown #
face $-1 $218 $219 $29 $-1 $220 reversed single #
loop $-1 $-1 $221 $80 #
plane-surface $-1 76.79799798577838 0 0 -1 0 0 0 0 1 forward_v I I I I #
coedge $-1 $222 $223 $224 $225 reversed $81 $-1 #
coedge $-1 $226 $83 $222 $227 forward $52 $-1 #
coedge $-1 $83 $226 $228 $229 reversed $52 $-1 #
coedge $-1 $230 $221 $83 $134 forward $128 $-1 #
edge $-1 $231 11.182219441268913 $232 28.737581732301422 $133 $233 forward 7 unknown #
face $-1 $234 $235 $30 $-1 $236 reversed single #
loop $-1 $-1 $237 $84 #
plane-surface $-1 -189.13099946287008 -15.51973351083519 115.15526202210276 0 -1 0 0.73135370988377701 0 -0.68199835119979291 forward_v I I I I #
coedge $-1 $238 $239 $240 $241 reversed $85 $-1 #
coedge $-1 $140 $87 $242 $243 reversed $55 $-1 #
coedge $-1 $87 $139 $238 $244 reversed $55 $-1 #
coedge $-1 $240 $245 $87 $142 forward $246 $-1 #
edge $-1 $247 17.767501745656659 $248 27.061378356770817 $141 $249 forward 7 unknown #
loop $-1 $-1 $148 $88 #
plane-surface $-1 -76.797997985778366 -20.777228727247319 10.403046018611022 -0.73135370988377701 0 0.68199835119979291 0.68199835119979291 0 0.73135370988377701 forward_v I I I I #
loop $-1 $-1 $250 $57 #
coedge $-1 $146 $146 $147 $251 reversed $89 $-1 #
coedge $-1 $147 $147 $146 $251 forward $91 $-1 #
coedge $-1 $148 $148 $92 $149 forward $143 $-1 #
edge $-1 $252 0 $252 6.2831853071796004 $148 $253 forward 7 unknown #
face $-1 $254 $255 $32 $-1 $256 forward single #
loop $-1 $-1 $257 $93 #
plane-surface $-1 -189.13099946287008 23.75516909442657 115.15526202210276 0 -1 0 0.73135370988377701 0 -0.68199835119979291 forward_v I I I I #
coedge $-1 $258 $259 $260 $261 reversed $94 $-1 #
coedge $-1 $155 $96 $262 $263 reversed $61 $-1 #
coedge $-1 $96 $154 $258 $264 reversed $61 $-1 #
coedge $-1 $260 $265 $96 $157 forward $255 $-1 #
edge $-1 $266 17.767501745656659 $267 27.061378356770817 $156 $268 forward 7 unknown #
loop $-1 $-1 $163 $97 #
plane-surface $-1 -76.797997985778366 18.497673878014439 10.403046018611022 -0.73135370988377701 0 0.68199835119979291 0.68199835119979291 0 0.73135370988377701 forward_v I I I I #
loop $-1 $-1 $269 $63 #
coedge $-1 $161 $161 $162 $270 reversed $98 $-1 #
coedge $-1 $162 $162 $161 $270 forward $100 $-1 #
coedge $-1 $163 $163 $101 $164 forward $158 $-1 #
edge $-1 $271 0 $271 6.2831853071796004 $163 $272 forward 7 unknown #
face $-1 $273 $274 $34 $-1 $275 forward single #
loop $-1 $-1 $276 $102 #
plane-surface $-1 110.77831073855728 -28.679640996837378 218.51361724045108 0 1 0 0.80901700255871778 0 0.5877852410284794 forward_v I I I I #
coedge $-1 $277 $278 $279 $280 reversed $103 $-1 #
coedge $-1 $170 $105 $281 $282 reversed $67 $-1 #
coedge $-1 $105 $169 $277 $283 reversed $67 $-1 #
coedge $-1 $279 $284 $105 $172 forward $274 $-1 #
edge $-1 $285 -21.40884261649974 $286 -9.4941824862615078 $171 $287 forward 7 unknown #
loop $-1 $-1 $178 $106 #
plane-surface $-1 -13.483461527372455 -20.893543283949398 128.23215772730026 0.80901700255871778 0 0.5877852410284794 0.5877852410284794 0 -0.80901700255871778 forward_v I I I I #
loop $-1 $-1 $288 $69 #
coedge $-1 $176 $176 $177 $289 reversed $107 $-1 #
coedge $-1 $177 $177 $176 $289 forward $109 $-1 #
coedge $-1 $178 $178 $110 $179 forward $173 $-1 #
edge $-1 $290 0 $290 6.2831853071796004 $178 $291 forward 7 unknown #
face $-1 $292 $293 $27 $-1 $294 reversed single #
loop $-1 $-1 $295 $111 #
plane-surface $-1 -76.79799798577838 0 0 1 0 0 0 0 -1 forward_v I I I I #
coedge $-1 $296 $191 $297 $298 forward $112 $-1 #
coedge $-1 $299 $114 $296 $300 forward $73 $-1 #
coedge $-1 $114 $299 $301 $302 forward $73 $-1 #
coedge $-1 $194 $193 $114 $187 reversed $195 $-1 #
edge $-1 $303 -48.697482319086589 $304 48.697482319086589 $186 $305 forward 7 unknown #
coedge $-1 $116 $115 $306 $307 forward $46 $-1 #
coedge $-1 $308 $309 $115 $190 reversed $293 $-1 #
edge $-1 $197 -76.79799798577838 $310 76.79799798577838 $189 $311 forward 7 unknown #
coedge $-1 $183 $312 $116 $192 reversed $112 $-1 #
edge $-1 $313 -76.79799798577838 $196 76.79799798577838 $191 $314 forward 7 unknown #
coedge $-1 $186 $117 $312 $315 forward $195 $-1 #
coedge $-1 $117 $186 $308 $316 reversed $195 $-1 #
loop $-1 $-1 $193 $292 #
vertex $-1 $118 $317 #
vertex $-1 $118 $318 #
straight-curve $-1 76.79799798577838 0 20.369508733341494 0 1 0 I I #
face $-1 $319 $320 $28 $-1 $321 reversed single #
loop $-1 $-1 $322 $119 #
plane-surface $-1 -76.79799798577838 0 0 1 0 0 0 0 -1 forward_v I I I I #
coedge $-1 $323 $208 $213 $324 reversed $120 $-1 #
coedge $-1 $325 $122 $326 $327 reversed $77 $-1 #
coedge $-1 $122 $325 $323 $328 forward $77 $-1 #
coedge $-1 $213 $212 $122 $206 forward $214 $-1 #
edge $-1 $329 -28.167693019993202 $330 -12.891885578193573 $205 $331 forward 7 unknown #
coedge $-1 $124 $123 $322 $332 reversed $49 $-1 #
coedge $-1 $202 $333 $123 $209 reversed $120 $-1 #
edge $-1 $215 -76.79799798577838 $334 76.79799798577838 $208 $335 forward 7 unknown #
coedge $-1 $336 $337 $124 $211 forward $320 $-1 #
edge $-1 $216 -76.79799798577838 $338 76.79799798577838 $210 $339 forward 7 unknown #
coedge $-1 $205 $125 $337 $340 forward $214 $-1 #
coedge $-1 $125 $205 $202 $324 forward $214 $-1 #
loop $-1 $-1 $125 $319 #
vertex $-1 $126 $341 #
vertex $-1 $340 $342 #
straight-curve $-1 76.79799798577838 -20.529789299093387 -11.517946840476371 0 -1 0 I I #
face $-1 $343 $344 $29 $-1 $345 forward single #
loop $-1 $-1 $228 $127 #
plane-surface $-1 0 48.697482319086589 0 0 -1 0 0 0 -1 forward_v I I I I #
coedge $-1 $133 $346 $347 $348 forward $128 $-1 #
coedge $-1 $347 $130 $131 $227 reversed $81 $-1 #
coedge $-1 $130 $347 $349 $350 reversed $81 $-1 #
coedge $-1 $351 $352 $130 $225 forward $353 $-1 #
edge $-1 $354 4.6946474037525032 $355 12.014790020976823 $224 $356 forward 7 unknown #
coedge $-1 $132 $131 $352 $357 reversed $52 $-1 #
edge $-1 $231 -76.79799798577838 $354 76.79799798577838 $222 $358 forward 7 unknown #
coedge $-1 $359 $360 $132 $229 forward $219 $-1 #
edge $-1 $232 -76.79799798577838 $361 76.79799798577838 $228 $362 forward 7 unknown #
coedge $-1 $346 $133 $360 $363 reversed $128 $-1 #
vertex $-1 $134 $364 #
vertex $-1 $229 $365 #
straight-curve $-1 76.79799798577838 19.959900586785167 13.049366116117167 0 1 0 I I #
face $-1 $-1 $246 $30 $-1 $366 forward single #
loop $-1 $-1 $367 $135 #
plane-surface $-1 -76.79799798577838 0 0 1 0 0 0 0 -1 forward_v I I I I #
coedge $-1 $368 $369 $370 $371 reversed $136 $-1 #
coedge $-1 $372 $138 $140 $244 forward $85 $-1 #
coedge $-1 $138 $372 $368 $373 forward $85 $-1 #
coedge $-1 $370 $141 $138 $241 forward $246 $-1 #
edge $-1 $248 -15.646109580035791 $374 -5.1311191472115301 $240 $375 forward 7 unknown #
coedge $-1 $376 $377 $139 $243 forward $235 $-1 #
edge $-1 $378 -47.174584992440373 $247 -37.20812227770989 $242 $379 forward 7 unknown #
edge $-1 $248 -13.627418005870634 $378 2.1384085966062714e-014 $140 $380 forward 7 unknown #
coedge $-1 $141 $370 $376 $381 forward $246 $-1 #
loop $-1 $-1 $370 $234 #
vertex $-1 $243 $382 #
vertex $-1 $142 $383 #
straight-curve $-1 -94.56549973143504 -26.034723943659451 20.36950873334149 1 0 0 I I #
coedge $-1 $250 $250 $-1 $384 reversed $145 $-1 #
edge $-1 $385 0 $385 6.2831853071796004 $146 $386 forward 7 unknown #
vertex $-1 $149 $387 #
ellipse-curve $-1 -72.151059680221294 -20.777228727247319 15.386277375976253 -0.73135370988377701 0 0.68199835119979291 1.7049958779994823 0 1.8283842747094425 1 I I #
face $-1 $-1 $388 $32 $-1 $389 reversed single #
loop $-1 $-1 $156 $150 #
plane-surface $-1 0 0 20.369508733341494 0 0 1 1 0 0 forward_v I I I I #
coedge $-1 $390 $391 $392 $393 reversed $151 $-1 #
coedge $-1 $394 $153 $155 $264 forward $94 $-1 #
coedge $-1 $153 $394 $390 $395 forward $94 $-1 #
coedge $-1 $392 $156 $153 $261 forward $255 $-1 #
edge $-1 $267 3.9913417225950898 $396 14.506332155419351 $260 $397 forward 7 unknown #
coedge $-1 $398 $399 $154 $263 forward $388 $-1 #
edge $-1 $400 -47.174584992440373 $266 -37.20812227770989 $262 $401 forward 7 unknown #
edge $-1 $267 -13.627418005870634 $400 2.1384085966062714e-014 $155 $402 forward 7 unknown #
coedge $-1 $156 $392 $398 $403 forward $255 $-1 #
vertex $-1 $157 $404 #
vertex $-1 $157 $405 #
straight-curve $-1 -94.56549973143504 13.240178661602309 20.36950873334149 1 0 0 I I #
coedge $-1 $269 $269 $-1 $406 reversed $160 $-1 #
edge $-1 $407 0 $407 6.2831853071796004 $161 $408 forward 7 unknown #
vertex $-1 $164 $409 #
ellipse-curve $-1 -72.151059680221294 18.497673878014439 15.386277375976253 -0.73135370988377701 0 0.68199835119979291 1.7049958779994823 0 1.8283842747094425 1 I I #
face $-1 $-1 $410 $34 $-1 $411 reversed single #
loop $-1 $-1 $171 $165 #
plane-surface $-1 0 0 20.369508733341494 0 0 1 1 0 0 forward_v I I I I #
coedge $-1 $412 $413 $414 $415 reversed $166 $-1 #
coedge $-1 $416 $168 $170 $283 forward $103 $-1 #
coedge $-1 $168 $416 $412 $417 forward $103 $-1 #
coedge $-1 $414 $171 $168 $280 forward $274 $-1 #
edge $-1 $286 2.6606739290867214 $418 18.232869354862679 $279 $419 forward 7 unknown #
coedge $-1 $420 $421 $169 $282 forward $410 $-1 #
edge $-1 $422 -105.28642315885502 $285 -88.887299886884051 $281 $423 forward 7 unknown #
edge $-1 $286 133.32556504105139 $422 153.59599597155676 $170 $424 forward 7 unknown #
coedge $-1 $171 $414 $420 $425 forward $274 $-1 #
vertex $-1 $282 $426 #
vertex $-1 $172 $427 #
straight-curve $-1 55.38915536927864 -13.107445571061421 20.36950873334149 -1 0 0 I I #
coedge $-1 $288 $288 $-1 $428 reversed $175 $-1 #
edge $-1 $429 0 $429 6.2831853071796004 $176 $430 forward 7 unknown #
vertex $-1 $179 $431 #
ellipse-curve $-1 70.840667920659271 -20.893543283949395 12.169947097355992 0.80901700255871778 0 0.5877852410284794 1.1755704820569588 0 -1.6180340051174356 1 I I #
face $-1 $-1 $195 $27 $-1 $432 reversed single #
loop $-1 $-1 $308 $180 #
plane-surface $-1 0 48.697482319086589 0 0 -1 0 0 0 -1 forward_v I I I I #
coedge $-1 $433 $306 $309 $434 forward $181 $-1 #
coedge $-1 $312 $183 $184 $300 reversed $112 $-1 #
coedge $-1 $306 $433 $183 $298 reversed $181 $-1 #
edge $-1 $313 -20.369508733341494 $435 20.369508733341494 $297 $436 forward 7 unknown #
coedge $-1 $185 $184 $433 $437 forward $73 $-1 #
edge $-1 $304 -76.79799798577838 $435 76.79799798577838 $296 $438 forward 7 unknown #
coedge $-1 $309 $308 $185 $302 reversed $293 $-1 #
edge $-1 $439 -76.79799798577838 $303 76.79799798577838 $301 $440 forward 7 unknown #
vertex $-1 $187 $441 #
vertex $-1 $315 $442 #
straight-curve $-1 76.79799798577838 0 -20.369508733341494 0 -1 0 I I #
coedge $-1 $295 $297 $188 $307 reversed $181 $-1 #
edge $-1 $310 -48.697482319086589 $313 48.697482319086589 $306 $443 forward 7 unknown #
coedge $-1 $301 $189 $194 $316 forward $293 $-1 #
coedge $-1 $189 $301 $295 $434 reversed $293 $-1 #
vertex $-1 $190 $444 #
straight-curve $-1 0 48.697482319086589 20.369508733341494 -1 0 0 I I #
coedge $-1 $191 $296 $193 $315 reversed $112 $-1 #
vertex $-1 $307 $445 #
straight-curve $-1 0 -48.697482319086589 20.369508733341494 1 0 0 I I #
edge $-1 $196 -20.369508733341494 $304 20.369508733341494 $193 $446 forward 7 unknown #
edge $-1 $197 -20.369508733341494 $303 20.369508733341494 $194 $447 forward 7 unknown #
point $-1 76.79799798577838 -48.697482319086589 20.369508733341494 #
point $-1 76.79799798577838 48.697482319086589 20.369508733341494 #
face $-1 $-1 $214 $28 $-1 $448 reversed single #
loop $-1 $-1 $210 $199 #
plane-surface $-1 0 -48.697482319086589 0 0 1 0 0 0 1 forward_v I I I I #
coedge $-1 $449 $450 $207 $332 forward $200 $-1 #
coedge $-1 $333 $202 $204 $328 reversed $120 $-1 #
edge $-1 $330 -9.4697400453945519 $215 -4.5220512118527294 $213 $451 forward 7 unknown #
coedge $-1 $204 $203 $452 $453 reversed $77 $-1 #
coedge $-1 $337 $336 $203 $327 forward $320 $-1 #
edge $-1 $454 -76.79799798577838 $329 76.79799798577838 $326 $455 forward 7 unknown #
edge $-1 $456 -76.79799798577838 $330 76.79799798577838 $323 $457 forward 7 unknown #
vertex $-1 $327 $458 #
vertex $-1 $206 $459 #
straight-curve $-1 76.79799798577838 -20.529789299093387 -16.465635674018195 0 1 0 I I #
edge $-1 $338 -28.167693019993202 $334 -12.891885578193573 $322 $460 forward 7 unknown #
coedge $-1 $208 $323 $449 $461 reversed $120 $-1 #
vertex $-1 $332 $462 #
straight-curve $-1 0 -33.421674877286961 -11.517946840476371 -1 0 0 I I #
coedge $-1 $326 $210 $450 $463 forward $320 $-1 #
coedge $-1 $210 $326 $212 $340 reversed $320 $-1 #
vertex $-1 $463 $464 #
straight-curve $-1 0 -48.697482319086589 -11.517946840476371 -1 0 0 I I #
edge $-1 $216 11.517946840476371 $329 16.465635674018195 $212 $465 forward 7 unknown #
point $-1 76.79799798577838 -33.421674877286961 -11.517946840476371 #
point $-1 76.79799798577838 -48.697482319086589 -11.517946840476371 #
face $-1 $-1 $353 $29 $-1 $466 reversed single #
loop $-1 $-1 $349 $218 #
plane-surface $-1 0 0 20.369508733341494 0 0 1 1 0 0 forward_v I I I I #
coedge $-1 $221 $230 $467 $468 reversed $128 $-1 #
coedge $-1 $223 $222 $221 $348 reversed $81 $-1 #
edge $-1 $469 -12.014790020976823 $231 -4.6946474037525032 $221 $470 forward 7 unknown #
coedge $-1 $467 $471 $223 $350 forward $344 $-1 #
edge $-1 $355 -76.79799798577838 $469 76.79799798577838 $349 $472 forward 7 unknown #
coedge $-1 $473 $224 $471 $474 reversed $353 $-1 #
coedge $-1 $224 $473 $226 $357 forward $353 $-1 #
loop $-1 $-1 $224 $343 #
vertex $-1 $357 $475 #
vertex $-1 $225 $476 #
straight-curve $-1 -76.79799798577838 31.14212002805408 8.3547187123646633 0 0 1 I I #
edge $-1 $361 -28.737581732301422 $354 -11.182219441268913 $352 $477 forward 7 unknown #
straight-curve $-1 0 31.14212002805408 13.049366116117167 -1 0 0 I I #
coedge $-1 $478 $228 $473 $479 reversed $219 $-1 #
coedge $-1 $228 $478 $230 $363 forward $219 $-1 #
vertex $-1 $229 $480 #
straight-curve $-1 0 48.697482319086589 13.049366116117167 -1 0 0 I I #
edge $-1 $481 -20.369508733341494 $232 -13.049366116117167 $230 $482 forward 7 unknown #
point $-1 76.79799798577838 31.14212002805408 13.049366116117167 #
point $-1 76.79799798577838 48.697482319086589 13.049366116117167 #
plane-surface $-1 0 0 20.369508733341494 0 0 1 1 0 0 forward_v I I I I #
coedge $-1 $377 $376 $369 $483 forward $235 $-1 #
coedge $-1 $369 $237 $239 $373 reversed $136 $-1 #
coedge $-1 $237 $368 $367 $483 reversed $136 $-1 #
coedge $-1 $245 $240 $237 $371 forward $246 $-1 #
edge $-1 $374 -27.061378356770817 $484 -17.767501745656659 $370 $485 forward 7 unknown #
coedge $-1 $239 $238 $377 $486 reversed $85 $-1 #
edge $-1 $487 -2.1384085966062714e-014 $374 13.627418005870634 $368 $488 forward 7 unknown #
vertex $-1 $241 $489 #
straight-curve $-1 -67.504121374664223 -10.38861436362366 20.369508733341494 0 1 0 I I #
coedge $-1 $367 $242 $245 $381 reversed $235 $-1 #
coedge $-1 $242 $367 $372 $486 forward $235 $-1 #
vertex $-1 $243 $490 #
straight-curve $-1 -76.79799798577838 -26.034723943659451 57.57763101105138 0 0 1 I I #
straight-curve $-1 -76.797997985778366 -26.034723943659451 10.403046018611022 -0.68199835119979291 0 -0.73135370988377701 I I #
edge $-1 $484 15.51973351083519 $247 26.034723943659451 $376 $491 forward 7 unknown #
point $-1 -76.79799798577838 -26.034723943659451 20.369508733341494 #
point $-1 -67.504121374664223 -26.034723943659451 20.369508733341494 #
edge $-1 $492 1 $492 0 $250 $-1 forward 7 unknown #
vertex $-1 $251 $493 #
ellipse-curve $-1 -66.06438756896361 -20.777228727247319 9.7103639457549473 -0.73135370988377701 0 0.68199835119979291 1.7049958779994823 0 1.8283842747094425 1 I I #
point $-1 -70.446063802221815 -20.777228727247319 17.214661650685692 #
loop $-1 $-1 $262 $254 #
plane-surface $-1 -76.79799798577838 0 0 1 0 0 0 0 -1 forward_v I I I I #
coedge $-1 $391 $257 $259 $395 reversed $151 $-1 #
coedge $-1 $257 $390 $494 $495 reversed $151 $-1 #
coedge $-1 $265 $260 $257 $393 forward $255 $-1 #
edge $-1 $396 -27.061378356770817 $496 -17.767501745656659 $392 $497 forward 7 unknown #
coedge $-1 $259 $258 $399 $498 reversed $94 $-1 #
edge $-1 $499 -2.1384085966062714e-014 $396 13.627418005870634 $390 $500 forward 7 unknown #
vertex $-1 $261 $501 #
straight-curve $-1 -67.504121374664223 9.2488369390072194 20.369508733341494 0 1 0 I I #
coedge $-1 $494 $262 $265 $403 reversed $388 $-1 #
coedge $-1 $262 $494 $394 $498 forward $388 $-1 #
vertex $-1 $263 $502 #
straight-curve $-1 -76.79799798577838 13.240178661602309 57.57763101105138 0 0 1 I I #
straight-curve $-1 -76.797997985778366 13.240178661602309 10.403046018611022 -0.68199835119979291 0 -0.73135370988377701 I I #
edge $-1 $496 -23.75516909442657 $266 -13.240178661602309 $398 $503 forward 7 unknown #
point $-1 -76.79799798577838 13.240178661602309 20.369508733341494 #
point $-1 -67.504121374664223 13.240178661602309 20.369508733341494 #
edge $-1 $504 1 $504 0 $269 $-1 forward 7 unknown #
vertex $-1 $270 $505 #
ellipse-curve $-1 -66.06438756896361 18.497673878014439 9.7103639457549473 -0.73135370988377701 0 0.68199835119979291 1.7049958779994823 0 1.8283842747094425 1 I I #
point $-1 -70.446063802221815 18.497673878014439 17.214661650685692 #
loop $-1 $-1 $281 $273 #
plane-surface $-1 76.79799798577838 0 0 -1 0 0 0 0 1 forward_v I I I I #
coedge $-1 $413 $276 $278 $417 reversed $166 $-1 #
coedge $-1 $276 $412 $506 $507 reversed $166 $-1 #
coedge $-1 $284 $279 $276 $415 forward $274 $-1 #
edge $-1 $418 9.4941824862615078 $508 21.40884261649974 $414 $509 forward 7 unknown #
coedge $-1 $278 $277 $421 $510 reversed $103 $-1 #
edge $-1 $511 -153.59599597155676 $418 -133.32556504105139 $412 $512 forward 7 unknown #
vertex $-1 $280 $513 #
straight-curve $-1 64.883337855540148 -10.446771641974699 20.36950873334149 0 -1 0 I I #
coedge $-1 $506 $281 $284 $425 reversed $410 $-1 #
coedge $-1 $281 $506 $416 $510 forward $410 $-1 #
vertex $-1 $282 $514 #
straight-curve $-1 76.79799798577838 -13.107445571061421 109.25680862022554 0 0 1 I I #
straight-curve $-1 -13.483461527372455 -13.107445571061421 128.23215772730026 0.5877852410284794 0 -0.80901700255871778 I I #
edge $-1 $508 -28.679640996837378 $285 -13.107445571061421 $420 $515 forward 7 unknown #
point $-1 76.79799798577838 -13.107445571061421 20.369508733341494 #
point $-1 64.883337855540148 -13.107445571061421 20.36950873334149 #
edge $-1 $516 1 $516 0 $288 $-1 forward 7 unknown #
vertex $-1 $289 $517 #
ellipse-curve $-1 69.196561282871713 -20.893543283949395 10.975433739401756 0.80901700255871778 0 0.5877852410284794 1.1755704820569588 0 -1.6180340051174356 1 I I #
point $-1 72.016238402716226 -20.893543283949395 10.551913092238557 #
plane-surface $-1 76.79799798577838 0 0 -1 0 0 0 0 1 forward_v I I I I #
coedge $-1 $297 $295 $299 $437 reversed $181 $-1 #
edge $-1 $310 -20.369508733341494 $439 20.369508733341494 $309 $518 forward 7 unknown #
vertex $-1 $437 $519 #
straight-curve $-1 -76.79799798577838 -48.697482319086589 0 0 0 -1 I I #
edge $-1 $435 -48.697482319086589 $439 48.697482319086589 $433 $520 forward 7 unknown #
straight-curve $-1 0 -48.697482319086589 -20.369508733341494 -1 0 0 I I #
vertex $-1 $302 $521 #
straight-curve $-1 0 48.697482319086589 -20.369508733341494 1 0 0 I I #
point $-1 76.79799798577838 48.697482319086589 -20.369508733341494 #
point $-1 76.79799798577838 -48.697482319086589 -20.369508733341494 #
straight-curve $-1 -76.79799798577838 0 20.369508733341494 0 -1 0 I I #
point $-1 -76.79799798577838 48.697482319086589 20.369508733341494 #
point $-1 -76.79799798577838 -48.697482319086589 20.369508733341494 #
straight-curve $-1 76.79799798577838 -48.697482319086589 0 0 0 -1 I I #
straight-curve $-1 76.79799798577838 48.697482319086589 0 0 0 -1 I I #
plane-surface $-1 76.79799798577838 0 0 -1 0 0 0 0 1 forward_v I I I I #
coedge $-1 $452 $322 $333 $461 forward $200 $-1 #
coedge $-1 $322 $452 $336 $463 reversed $200 $-1 #
straight-curve $-1 76.79799798577838 -33.421674877286961 -6.995895628623642 0 0 1 I I #
coedge $-1 $450 $449 $325 $453 forward $200 $-1 #
edge $-1 $456 12.891885578193573 $454 28.167693019993202 $452 $522 forward 7 unknown #
vertex $-1 $327 $523 #
straight-curve $-1 0 -48.697482319086589 -16.465635674018195 1 0 0 I I #
vertex $-1 $453 $524 #
straight-curve $-1 0 -33.421674877286961 -16.465635674018195 1 0 0 I I #
point $-1 76.79799798577838 -48.697482319086589 -16.465635674018195 #
point $-1 76.79799798577838 -33.421674877286961 -16.465635674018195 #
straight-curve $-1 -76.79799798577838 -20.529789299093387 -11.517946840476371 0 1 0 I I #
edge $-1 $334 4.5220512118527294 $456 9.4697400453945519 $449 $525 forward 7 unknown #
point $-1 -76.79799798577838 -33.421674877286961 -11.517946840476371 #
edge $-1 $338 11.517946840476371 $454 16.465635674018195 $450 $526 forward 7 unknown #
point $-1 -76.79799798577838 -48.697482319086589 -11.517946840476371 #
straight-curve $-1 76.79799798577838 -48.697482319086589 0 0 0 -1 I I #
plane-surface $-1 -76.79799798577838 0 0 1 0 0 0 0 -1 forward_v I I I I #
coedge $-1 $527 $349 $346 $468 forward $344 $-1 #
edge $-1 $469 31.14212002805408 $481 48.697482319086589 $346 $528 forward 7 unknown #
vertex $-1 $468 $529 #
straight-curve $-1 76.79799798577838 31.14212002805408 8.3547187123646633 0 0 -1 I I #
coedge $-1 $349 $527 $351 $474 forward $344 $-1 #
straight-curve $-1 0 31.14212002805408 20.369508733341494 1 0 0 I I #
coedge $-1 $352 $351 $359 $479 forward $353 $-1 #
edge $-1 $530 -48.697482319086589 $355 -31.14212002805408 $351 $531 forward 7 unknown #
point $-1 -76.79799798577838 31.14212002805408 13.049366116117167 #
point $-1 -76.79799798577838 31.14212002805408 20.369508733341487 #
straight-curve $-1 -76.79799798577838 19.959900586785167 13.049366116117167 0 -1 0 I I #
coedge $-1 $360 $359 $527 $532 reversed $219 $-1 #
edge $-1 $530 -20.369508733341494 $361 -13.049366116117167 $359 $533 forward 7 unknown #
point $-1 -76.79799798577838 48.697482319086589 13.049366116117167 #
vertex $-1 $468 $534 #
straight-curve $-1 76.79799798577838 48.697482319086589 0 0 0 -1 I I #
edge $-1 $484 37.20812227770989 $487 47.174584992440373 $367 $535 forward 7 unknown #
vertex $-1 $381 $536 #
straight-curve $-1 -94.56549973143504 -15.51973351083519 20.36950873334149 -1 0 0 I I #
edge $-1 $487 5.1311191472115301 $378 15.646109580035791 $377 $537 forward 7 unknown #
vertex $-1 $486 $538 #
straight-curve $-1 -76.797997985778366 -15.51973351083519 10.403046018611022 0.68199835119979291 0 0.73135370988377701 I I #
point $-1 -67.504121374664223 -15.51973351083519 20.369508733341494 #
point $-1 -76.79799798577838 -26.034723943659451 10.403046018611006 #
straight-curve $-1 -76.79799798577838 0 20.369508733341494 0 -1 0 I I #
vertex $-1 $384 $539 #
point $-1 -64.359391690964131 -20.777228727247319 11.53874822046439 #
coedge $-1 $399 $398 $391 $495 forward $388 $-1 #
edge $-1 $496 37.20812227770989 $499 47.174584992440373 $494 $540 forward 7 unknown #
vertex $-1 $403 $541 #
straight-curve $-1 -94.56549973143504 23.75516909442657 20.36950873334149 -1 0 0 I I #
edge $-1 $499 -14.506332155419351 $400 -3.9913417225950898 $399 $542 forward 7 unknown #
vertex $-1 $498 $543 #
straight-curve $-1 -76.797997985778366 23.75516909442657 10.403046018611022 0.68199835119979291 0 0.73135370988377701 I I #
point $-1 -67.504121374664223 23.75516909442657 20.369508733341494 #
point $-1 -76.79799798577838 13.240178661602309 10.403046018611006 #
straight-curve $-1 -76.79799798577838 0 20.369508733341494 0 -1 0 I I #
vertex $-1 $406 $544 #
point $-1 -64.359391690964131 18.497673878014439 11.53874822046439 #
coedge $-1 $421 $420 $413 $507 forward $410 $-1 #
edge $-1 $508 88.887299886884051 $511 105.28642315885502 $506 $545 forward 7 unknown #
vertex $-1 $425 $546 #
straight-curve $-1 55.38915536927864 -28.679640996837378 20.36950873334149 1 0 0 I I #
edge $-1 $511 -18.232869354862679 $422 -2.6606739290867214 $421 $547 forward 7 unknown #
vertex $-1 $510 $548 #
straight-curve $-1 -13.483461527372455 -28.679640996837378 128.23215772730026 -0.5877852410284794 0 0.80901700255871778 I I #
point $-1 64.883337855540148 -28.679640996837378 20.36950873334149 #
point $-1 76.79799798577838 -13.107445571061421 3.9703854613705261 #
straight-curve $-1 76.79799798577838 0 20.369508733341494 0 1 0 I I #
vertex $-1 $428 $549 #
point $-1 70.372131764928668 -20.893543283949395 9.3573997342843214 #
straight-curve $-1 -76.79799798577838 48.697482319086589 0 0 0 -1 I I #
point $-1 -76.79799798577838 -48.697482319086589 -20.369508733341494 #
straight-curve $-1 -76.79799798577838 0 -20.369508733341494 0 1 0 I I #
point $-1 -76.79799798577838 48.697482319086589 -20.369508733341494 #
straight-curve $-1 -76.79799798577838 -20.529789299093387 -16.465635674018195 0 -1 0 I I #
point $-1 -76.79799798577838 -48.697482319086589 -16.465635674018195 #
point $-1 -76.79799798577838 -33.421674877286961 -16.465635674018195 #
straight-curve $-1 -76.79799798577838 -33.421674877286961 -6.995895628623642 0 0 -1 I I #
straight-curve $-1 -76.79799798577838 -48.697482319086589 0 0 0 -1 I I #
coedge $-1 $471 $467 $478 $532 forward $344 $-1 #
straight-curve $-1 76.79799798577838 0 20.369508733341494 0 1 0 I I #
point $-1 76.79799798577838 31.14212002805408 20.369508733341487 #
vertex $-1 $532 $550 #
straight-curve $-1 -76.79799798577838 0 20.369508733341494 0 -1 0 I I #
edge $-1 $481 -76.79799798577838 $530 76.79799798577838 $478 $551 forward 7 unknown #
straight-curve $-1 -76.79799798577838 48.697482319086589 0 0 0 -1 I I #
point $-1 76.79799798577838 48.697482319086589 20.369508733341494 #
straight-curve $-1 -76.79799798577838 -15.51973351083519 57.57763101105138 0 0 -1 I I #
point $-1 -76.79799798577838 -15.51973351083519 20.369508733341494 #
straight-curve $-1 -76.79799798577838 -10.38861436362366 10.403046018611018 0 -1 0 I I #
point $-1 -76.79799798577838 -15.51973351083519 10.403046018611006 #
point $-1 -64.236003294254175 -20.777228727247319 8.0053680677554642 #
straight-curve $-1 -76.79799798577838 23.75516909442657 57.57763101105138 0 0 -1 I I #
point $-1 -76.79799798577838 23.75516909442657 20.369508733341494 #
straight-curve $-1 -76.79799798577838 9.2488369390072194 10.403046018611018 0 -1 0 I I #
point $-1 -76.79799798577838 23.75516909442657 10.403046018611006 #
point $-1 -64.236003294254175 18.497673878014439 8.0053680677554642 #
straight-curve $-1 76.79799798577838 -28.679640996837378 109.25680862022554 0 0 -1 I I #
point $-1 76.79799798577838 -28.679640996837378 20.369508733341494 #
straight-curve $-1 76.79799798577838 -10.446771641974699 3.9703854613705261 0 1 0 I I #
point $-1 76.79799798577838 -28.679640996837378 3.9703854613705261 #
point $-1 67.578527277754276 -20.893543283949395 9.7998632573447981 #
point $-1 -76.79799798577838 48.697482319086589 20.369508733341494 #
straight-curve $-1 0 48.697482319086589 20.369508733341494 -1 0 0 I I #
End-of-ACIS-data 