500 0 11 0           
7 Unknown 11 ACIS 5.0 NT 24 Thu Mar 25 23:58:20 1999 
-1 9.9999999999999995e-007 1e-010 
body $-1 $11 $-1 $12 #
body $-1 $13 $-1 $14 #
body $-1 $15 $-1 $16 #
body $-1 $17 $-1 $18 #
body $-1 $19 $-1 $20 #
body $-1 $21 $-1 $22 #
body $-1 $23 $-1 $24 #
body $-1 $25 $-1 $26 #
body $-1 $27 $-1 $28 #
body $-1 $29 $-1 $30 #
body $-1 $31 $-1 $32 #
lump $-1 $-1 $33 $0 #
transform $-1 1 0 0 0 1 0 0 0 1 69.270912808618419 34.363167407155061 11.23223683933025 1 rotate no_reflect no_shear #
lump $-1 $-1 $34 $1 #
transform $-1 1 0 0 0 1 0 0 0 1 69.270912808618419 34.363167407155061 11.23223683933025 1 rotate no_reflect no_shear #
lump $-1 $-1 $35 $2 #
transform $-1 1 0 0 0 1 0 0 0 1 69.270912808618419 34.363167407155061 11.23223683933025 1 rotate no_reflect no_shear #
lump $-1 $-1 $36 $3 #
transform $-1 1 0 0 0 1 0 0 0 1 69.270912808618419 34.363167407155061 11.23223683933025 1 rotate no_reflect no_shear #
lump $-1 $-1 $37 $4 #
transform $-1 1 0 0 0 1 0 0 0 1 69.270912808618419 34.363167407155061 11.23223683933025 1 rotate no_reflect no_shear #
lump $-1 $-1 $38 $5 #
transform $-1 1 0 0 0 1 0 0 0 1 69.270912808618419 34.363167407155061 11.23223683933025 1 rotate no_reflect no_shear #
lump $-1 $-1 $39 $6 #
transform $-1 1 0 0 0 1 0 0 0 1 69.270912808618419 34.363167407155061 11.23223683933025 1 rotate no_reflect no_shear #
lump $-1 $-1 $40 $7 #
transform $-1 1 0 0 0 1 0 0 0 1 69.270912808618419 34.363167407155061 11.23223683933025 1 rotate no_reflect no_shear #
lump $-1 $-1 $41 $8 #
transform $-1 1 0 0 0 1 0 0 0 1 69.270912808618419 34.363167407155061 11.23223683933025 1 rotate no_reflect no_shear #
lump $-1 $-1 $42 $9 #
transform $-1 1 0 0 0 1 0 0 0 1 69.270912808618419 34.363167407155061 11.23223683933025 1 rotate no_reflect no_shear #
lump $-1 $-1 $43 $10 #
transform $-1 1 0 0 0 1 0 0 0 1 69.270912808618419 34.363167407155061 11.23223683933025 1 rotate no_reflect no_shear #
shell $-1 $-1 $-1 $44 $-1 $11 #
shell $-1 $-1 $-1 $45 $-1 $13 #
shell $-1 $-1 $-1 $46 $-1 $15 #
shell $-1 $-1 $-1 $47 $-1 $17 #
shell $-1 $-1 $-1 $48 $-1 $19 #
shell $-1 $-1 $-1 $49 $-1 $21 #
shell $-1 $-1 $-1 $50 $-1 $23 #
shell $-1 $-1 $-1 $51 $-1 $25 #
shell $-1 $-1 $-1 $52 $-1 $27 #
shell $-1 $-1 $-1 $53 $-1 $29 #
shell $-1 $-1 $-1 $54 $-1 $31 #
face $-1 $55 $56 $33 $-1 $57 forward single #
face $-1 $58 $59 $34 $-1 $60 forward single #
face $-1 $61 $62 $35 $-1 $63 reversed single #
face $-1 $64 $65 $36 $-1 $66 forward single #
face $-1 $67 $68 $37 $-1 $69 forward single #
face $-1 $70 $71 $38 $-1 $72 reversed single #
face $-1 $73 $74 $39 $-1 $75 forward single #
face $-1 $76 $77 $40 $-1 $78 forward single #
face $-1 $79 $80 $41 $-1 $81 reversed single #
face $-1 $82 $83 $42 $-1 $84 forward single #
face $-1 $85 $86 $43 $-1 $87 forward single #
face $-1 $88 $89 $33 $-1 $90 reversed single #
loop $-1 $-1 $91 $44 #
plane-surface $-1 0 0 11.23223683933025 0 0 1 1 0 0 forward_v I I I I #
face $-1 $92 $93 $34 $-1 $94 reversed single #
loop $-1 $-1 $95 $45 #
plane-surface $-1 -69.270912808618419 0 0 1 0 0 0 0 -1 forward_v I I I I #
face $-1 $96 $97 $35 $-1 $98 reversed single #
loop $-1 $-1 $99 $46 #
plane-surface $-1 7.1381942132238869 -153.11669119128325 71.844725241195633 -1 0 0 0 -0.85716730853699208 0.51503806187062418 forward_v I I I I #
face $-1 $100 $101 $36 $-1 $102 forward single #
loop $-1 $103 $104 $47 #
cone-surface $-1 -3.0612101898479693 -28.824533995554525 4.4724568848669133 0 0.85716730853699208 -0.51503806187062418 1.5 0 0 1 I I 0 1 1.5 forward I I I I #
face $-1 $105 $106 $37 $-1 $107 forward single #
loop $-1 $108 $109 $48 #
cone-surface $-1 3.0584324519951451 -28.824533995554525 4.4724568848669133 0 0.85716730853699208 -0.51503806187062418 1.5 0 0 1 I I 0 1 1.5 forward I I I I #
face $-1 $110 $111 $38 $-1 $112 reversed single #
loop $-1 $-1 $113 $49 #
plane-surface $-1 -59.890008573200078 93.833479781298138 145.43519478302778 1 0 0 0 -0.75470958851134928 -0.65605901945558964 forward_v I I I I #
face $-1 $114 $115 $39 $-1 $116 forward single #
loop $-1 $117 $118 $50 #
cone-surface $-1 -53.078298684352106 29.748496558467174 6.1753436936071466 0 -0.75470958851134928 -0.65605901945558964 2 0 0 1 I I 0 1 2 forward I I I I #
face $-1 $119 $120 $40 $-1 $121 forward single #
loop $-1 $122 $123 $51 #
cone-surface $-1 -42.86073385108017 29.748496558467174 6.1753436936071466 0 -0.75470958851134928 -0.65605901945558964 2 0 0 1 I I 0 1 2 forward I I I I #
face $-1 $124 $125 $41 $-1 $126 reversed single #
loop $-1 $-1 $127 $52 #
plane-surface $-1 4.6904521177091745 93.833479781298138 145.43519478302778 1 0 0 0 -0.75470958851134928 -0.65605901945558964 forward_v I I I I #
face $-1 $128 $129 $42 $-1 $130 forward single #
loop $-1 $131 $132 $53 #
cone-surface $-1 11.502162006557143 29.748496558467174 6.1753436936071466 0 -0.75470958851134928 -0.65605901945558964 2 0 0 1 I I 0 1 2 forward I I I I #
face $-1 $133 $134 $43 $-1 $135 forward single #
loop $-1 $136 $137 $54 #
cone-surface $-1 21.719726839829079 29.748496558467174 6.1753436936071466 0 -0.75470958851134928 -0.65605901945558964 2 0 0 1 I I 0 1 2 forward I I I I #
face $-1 $138 $139 $33 $-1 $140 reversed single #
loop $-1 $-1 $141 $55 #
plane-surface $-1 0 0 -11.23223683933025 0 0 1 1 0 0 forward_v I I I I #
coedge $-1 $142 $143 $144 $145 forward $56 $-1 #
face $-1 $146 $147 $34 $-1 $148 forward single #
loop $-1 $-1 $149 $58 #
plane-surface $-1 0 34.363167407155061 0 0 -1 0 0 0 -1 forward_v I I I I #
coedge $-1 $150 $151 $152 $153 forward $59 $-1 #
face $-1 $154 $155 $35 $-1 $156 reversed single #
loop $-1 $-1 $157 $61 #
plane-surface $-1 -0.0013888689264121012 -34.363167407155046 0.49041188727598239 0 -0.85716730853699208 0.51503806187062418 1 0 0 forward_v I I I I #
coedge $-1 $158 $159 $160 $161 reversed $62 $-1 #
face $-1 $-1 $162 $36 $-1 $163 forward single #
loop $-1 $164 $165 $64 #
cone-surface $-1 -3.0612101898479693 -25.870194786438446 2.697310860027736 0 0.85716730853699208 -0.51503806187062418 0.75 0 0 1 I I -0.70710678118654757 0.70710678118654757 0.75 forward I I I I #
loop $-1 $-1 $166 $47 #
coedge $-1 $104 $104 $167 $168 reversed $65 $-1 #
face $-1 $-1 $169 $37 $-1 $170 forward single #
loop $-1 $171 $172 $67 #
cone-surface $-1 3.0584324519951451 -25.870194786438446 2.697310860027736 0 0.85716730853699208 -0.51503806187062418 0.75 0 0 1 I I -0.70710678118654757 0.70710678118654757 0.75 forward I I I I #
loop $-1 $-1 $173 $48 #
coedge $-1 $109 $109 $174 $175 reversed $68 $-1 #
face $-1 $176 $177 $38 $-1 $178 reversed single #
loop $-1 $-1 $179 $70 #
plane-surface $-1 -47.969516267716145 -10.72536442189778 54.543580514996094 0 0.75470958851134928 0.65605901945558964 1 0 0 forward_v I I I I #
coedge $-1 $180 $181 $182 $183 reversed $71 $-1 #
face $-1 $-1 $184 $39 $-1 $185 forward single #
loop $-1 $186 $187 $73 #
cone-surface $-1 -53.078298684352106 28.098394189006129 4.740931624396131 0 -0.75470958851134928 -0.65605901945558964 1 0 0 1 I I -0.70710678118654746 0.70710678118654746 1 forward I I I I #
loop $-1 $-1 $188 $50 #
coedge $-1 $118 $118 $189 $190 reversed $74 $-1 #
face $-1 $-1 $191 $40 $-1 $192 forward single #
loop $-1 $193 $194 $76 #
cone-surface $-1 -42.86073385108017 28.098394189006129 4.740931624396131 0 -0.75470958851134928 -0.65605901945558964 1 0 0 1 I I -0.70710678118654746 0.70710678118654746 1 forward I I I I #
loop $-1 $-1 $195 $51 #
coedge $-1 $123 $123 $196 $197 reversed $77 $-1 #
face $-1 $198 $199 $41 $-1 $200 reversed single #
loop $-1 $-1 $201 $79 #
plane-surface $-1 16.610944423193104 -10.72536442189778 54.543580514996094 0 0.75470958851134928 0.65605901945558964 1 0 0 forward_v I I I I #
coedge $-1 $202 $203 $204 $205 reversed $80 $-1 #
face $-1 $-1 $206 $42 $-1 $207 forward single #
loop $-1 $208 $209 $82 #
cone-surface $-1 11.502162006557143 28.098394189006129 4.740931624396131 0 -0.75470958851134928 -0.65605901945558964 1 0 0 1 I I -0.70710678118654746 0.70710678118654746 1 forward I I I I #
loop $-1 $-1 $210 $53 #
coedge $-1 $132 $132 $211 $212 reversed $83 $-1 #
face $-1 $-1 $213 $43 $-1 $214 forward single #
loop $-1 $215 $216 $85 #
cone-surface $-1 21.719726839829079 28.098394189006129 4.740931624396131 0 -0.75470958851134928 -0.65605901945558964 1 0 0 1 I I -0.70710678118654746 0.70710678118654746 1 forward I I I I #
loop $-1 $-1 $217 $54 #
coedge $-1 $137 $137 $218 $219 reversed $86 $-1 #
face $-1 $220 $221 $33 $-1 $222 reversed single #
loop $-1 $-1 $223 $88 #
plane-surface $-1 0 -34.363167407155061 0 0 1 0 0 0 1 forward_v I I I I #
coedge $-1 $224 $225 $226 $227 forward $89 $-1 #
coedge $-1 $228 $91 $229 $230 forward $56 $-1 #
coedge $-1 $91 $228 $231 $232 forward $56 $-1 #
coedge $-1 $233 $234 $91 $145 reversed $235 $-1 #
edge $-1 $236 -34.363167407155061 $237 34.363167407155061 $144 $238 forward 7 unknown #
face $-1 $239 $240 $34 $-1 $241 reversed single #
loop $-1 $-1 $152 $92 #
plane-surface $-1 -73.96136492632759 0 -7.1945001612556307 0 0 1 1 0 0 forward_v I I I I #
coedge $-1 $242 $243 $151 $244 forward $93 $-1 #
coedge $-1 $245 $95 $246 $247 reversed $59 $-1 #
coedge $-1 $95 $245 $149 $244 reversed $59 $-1 #
coedge $-1 $248 $249 $95 $153 reversed $147 $-1 #
edge $-1 $250 -34.363167407155061 $251 34.363167407155061 $152 $252 forward 7 unknown #
face $-1 $253 $254 $35 $-1 $255 reversed single #
loop $-1 $-1 $256 $96 #
plane-surface $-1 -7.1409719510767111 -153.11669119128325 71.844725241195633 1 0 0 0 0.85716730853699208 -0.51503806187062418 forward_v I I I I #
coedge $-1 $257 $258 $259 $260 reversed $97 $-1 #
coedge $-1 $159 $99 $261 $262 reversed $62 $-1 #
coedge $-1 $99 $158 $257 $263 reversed $62 $-1 #
coedge $-1 $259 $264 $99 $161 forward $265 $-1 #
edge $-1 $266 42.195178188486565 $267 48.649517556260989 $160 $268 forward 7 unknown #
loop $-1 $-1 $167 $100 #
plane-surface $-1 -0.0013888689264121012 -34.363167407155046 0.49041188727598239 0 -0.85716730853699208 0.51503806187062418 1 0 0 forward_v I I I I #
loop $-1 $-1 $269 $64 #
coedge $-1 $165 $165 $166 $270 reversed $101 $-1 #
coedge $-1 $166 $166 $165 $270 forward $103 $-1 #
coedge $-1 $167 $167 $104 $168 forward $162 $-1 #
edge $-1 $271 -8.7358475822553679e-018 $271 6.2831853071796004 $167 $272 forward 7 unknown #
loop $-1 $-1 $174 $105 #
plane-surface $-1 -0.0013888689264121012 -34.363167407155046 0.49041188727598239 0 -0.85716730853699208 0.51503806187062418 1 0 0 forward_v I I I I #
loop $-1 $-1 $273 $67 #
coedge $-1 $172 $172 $173 $274 reversed $106 $-1 #
coedge $-1 $173 $173 $172 $274 forward $108 $-1 #
coedge $-1 $174 $174 $109 $175 forward $169 $-1 #
edge $-1 $275 -8.7358475822553679e-018 $275 6.2831853071796004 $174 $276 forward 7 unknown #
face $-1 $277 $278 $38 $-1 $279 forward single #
loop $-1 $-1 $280 $110 #
plane-surface $-1 -36.049023962232212 93.833479781298138 145.43519478302778 -1 0 0 0 0.75470958851134928 0.65605901945558964 forward_v I I I I #
coedge $-1 $281 $282 $283 $284 reversed $111 $-1 #
coedge $-1 $181 $113 $285 $286 reversed $71 $-1 #
coedge $-1 $113 $180 $281 $287 reversed $71 $-1 #
coedge $-1 $283 $288 $113 $183 forward $278 $-1 #
edge $-1 $289 12.553572483494008 $290 19.992128618970391 $182 $291 forward 7 unknown #
loop $-1 $-1 $189 $114 #
plane-surface $-1 -47.969516267716145 -10.72536442189778 54.543580514996094 0 0.75470958851134928 0.65605901945558964 1 0 0 forward_v I I I I #
loop $-1 $-1 $292 $73 #
coedge $-1 $187 $187 $188 $293 reversed $115 $-1 #
coedge $-1 $188 $188 $187 $293 forward $117 $-1 #
coedge $-1 $189 $189 $118 $190 forward $184 $-1 #
edge $-1 $294 4.9507815660361675e-016 $294 6.2831853071796013 $189 $295 forward 7 unknown #
loop $-1 $-1 $196 $119 #
plane-surface $-1 -47.969516267716145 -10.72536442189778 54.543580514996094 0 0.75470958851134928 0.65605901945558964 1 0 0 forward_v I I I I #
loop $-1 $-1 $296 $76 #
coedge $-1 $194 $194 $195 $297 reversed $120 $-1 #
coedge $-1 $195 $195 $194 $297 forward $122 $-1 #
coedge $-1 $196 $196 $123 $197 forward $191 $-1 #
edge $-1 $298 4.9507815660361675e-016 $298 6.2831853071796013 $196 $299 forward 7 unknown #
face $-1 $300 $301 $41 $-1 $302 forward single #
loop $-1 $-1 $303 $124 #
plane-surface $-1 28.531436728677033 93.833479781298138 145.43519478302778 -1 0 0 0 0.75470958851134928 0.65605901945558964 forward_v I I I I #
coedge $-1 $304 $305 $306 $307 reversed $125 $-1 #
coedge $-1 $203 $127 $308 $309 reversed $80 $-1 #
coedge $-1 $127 $202 $304 $310 reversed $80 $-1 #
coedge $-1 $306 $311 $127 $205 forward $301 $-1 #
edge $-1 $312 12.553572483494008 $313 19.992128618970391 $204 $314 forward 7 unknown #
loop $-1 $-1 $211 $128 #
plane-surface $-1 16.610944423193104 -10.72536442189778 54.543580514996094 0 0.75470958851134928 0.65605901945558964 1 0 0 forward_v I I I I #
loop $-1 $-1 $315 $82 #
coedge $-1 $209 $209 $210 $316 reversed $129 $-1 #
coedge $-1 $210 $210 $209 $316 forward $131 $-1 #
coedge $-1 $211 $211 $132 $212 forward $206 $-1 #
edge $-1 $317 4.9507815660361675e-016 $317 6.2831853071796013 $211 $318 forward 7 unknown #
loop $-1 $-1 $218 $133 #
plane-surface $-1 16.610944423193104 -10.72536442189778 54.543580514996094 0 0.75470958851134928 0.65605901945558964 1 0 0 forward_v I I I I #
loop $-1 $-1 $319 $85 #
coedge $-1 $216 $216 $217 $320 reversed $134 $-1 #
coedge $-1 $217 $217 $216 $320 forward $136 $-1 #
coedge $-1 $218 $218 $137 $219 forward $213 $-1 #
edge $-1 $321 4.9507815660361675e-016 $321 6.2831853071796013 $218 $322 forward 7 unknown #
face $-1 $323 $324 $33 $-1 $325 reversed single #
loop $-1 $-1 $326 $138 #
plane-surface $-1 -69.270912808618419 0 0 1 0 0 0 0 -1 forward_v I I I I #
coedge $-1 $327 $231 $328 $329 forward $139 $-1 #
coedge $-1 $330 $141 $327 $331 forward $89 $-1 #
coedge $-1 $141 $330 $332 $333 forward $89 $-1 #
coedge $-1 $234 $233 $141 $227 reversed $235 $-1 #
edge $-1 $334 -34.363167407155061 $335 34.363167407155061 $226 $336 forward 7 unknown #
coedge $-1 $143 $142 $337 $338 forward $56 $-1 #
coedge $-1 $339 $340 $142 $230 reversed $324 $-1 #
edge $-1 $237 -69.270912808618419 $341 69.270912808618419 $229 $342 forward 7 unknown #
coedge $-1 $223 $343 $143 $232 reversed $139 $-1 #
edge $-1 $344 -69.270912808618419 $236 69.270912808618419 $231 $345 forward 7 unknown #
coedge $-1 $226 $144 $343 $346 forward $235 $-1 #
coedge $-1 $144 $226 $339 $347 reversed $235 $-1 #
loop $-1 $-1 $233 $323 #
vertex $-1 $145 $348 #
vertex $-1 $145 $349 #
straight-curve $-1 69.270912808618419 0 11.23223683933025 0 1 0 I I #
face $-1 $350 $351 $34 $-1 $352 reversed single #
loop $-1 $-1 $353 $146 #
plane-surface $-1 -78.651817044036761 0 -9.2133685002929404 1 0 0 0 0 -1 forward_v I I I I #
coedge $-1 $354 $149 $355 $356 reversed $93 $-1 #
coedge $-1 $149 $354 $248 $357 reversed $93 $-1 #
edge $-1 $250 7.1945001612556307 $358 11.23223683933025 $149 $359 forward 7 unknown #
coedge $-1 $151 $150 $360 $361 reversed $59 $-1 #
coedge $-1 $362 $363 $150 $247 forward $364 $-1 #
edge $-1 $365 -11.23223683933025 $251 -7.1945001612556307 $246 $366 forward 7 unknown #
coedge $-1 $367 $152 $243 $357 forward $147 $-1 #
coedge $-1 $152 $367 $362 $368 forward $147 $-1 #
vertex $-1 $244 $369 #
vertex $-1 $368 $370 #
straight-curve $-1 -69.270912808618419 0 -7.1945001612556307 0 -1 0 I I #
face $-1 $-1 $265 $35 $-1 $371 forward single #
loop $-1 $-1 $372 $154 #
plane-surface $-1 0 -34.363167407155061 0 0 1 0 0 0 1 forward_v I I I I #
coedge $-1 $373 $374 $375 $376 reversed $155 $-1 #
coedge $-1 $377 $157 $159 $263 forward $97 $-1 #
coedge $-1 $157 $377 $373 $378 forward $97 $-1 #
coedge $-1 $375 $160 $157 $260 forward $265 $-1 #
edge $-1 $267 -7.138888647687093 $379 7.1402775166135051 $259 $380 forward 7 unknown #
coedge $-1 $381 $382 $158 $262 forward $254 $-1 #
edge $-1 $383 -35.431950733321855 $266 -24.690125781267568 $261 $384 forward 7 unknown #
edge $-1 $267 -12.531771621561665 $383 2.7589209654379419e-014 $159 $385 forward 7 unknown #
coedge $-1 $160 $375 $381 $386 forward $265 $-1 #
loop $-1 $-1 $375 $253 #
vertex $-1 $262 $387 #
vertex $-1 $161 $388 #
straight-curve $-1 7.1381942132238869 -76.558345595641626 11.232236839330248 0 1 0 I I #
coedge $-1 $269 $269 $-1 $389 reversed $164 $-1 #
edge $-1 $390 0 $390 6.2831853071796004 $165 $391 forward 7 unknown #
vertex $-1 $168 $392 #
ellipse-curve $-1 -3.0612101898479693 -31.135997723267845 5.8613243633031127 0 -0.85716730853699208 0.51503806187062418 1.5 0 0 1 I I #
coedge $-1 $273 $273 $-1 $393 reversed $171 $-1 #
edge $-1 $394 0 $394 6.2831853071796004 $172 $395 forward 7 unknown #
vertex $-1 $175 $396 #
ellipse-curve $-1 3.0584324519951451 -31.135997723267845 5.8613243633031127 0 -0.85716730853699208 0.51503806187062418 1.5 0 0 1 I I #
face $-1 $-1 $397 $38 $-1 $398 reversed single #
loop $-1 $-1 $182 $176 #
plane-surface $-1 0 0 11.23223683933025 0 0 1 1 0 0 forward_v I I I I #
coedge $-1 $399 $400 $401 $402 reversed $177 $-1 #
coedge $-1 $403 $179 $181 $287 forward $111 $-1 #
coedge $-1 $179 $403 $399 $404 forward $111 $-1 #
coedge $-1 $401 $182 $179 $284 forward $278 $-1 #
edge $-1 $290 -35.905250439342005 $405 -12.06426582837414 $283 $406 forward 7 unknown #
coedge $-1 $407 $408 $180 $286 forward $397 $-1 #
edge $-1 $409 -70.042440744118991 $289 -61.485360552183643 $285 $410 forward 7 unknown #
edge $-1 $290 57.38809249938997 $409 68.726334814310121 $181 $411 forward 7 unknown #
coedge $-1 $182 $401 $407 $412 forward $278 $-1 #
vertex $-1 $286 $413 #
vertex $-1 $183 $414 #
straight-curve $-1 -59.890008573200078 46.916739890649069 11.232236839330255 0 -1 0 I I #
coedge $-1 $292 $292 $-1 $415 reversed $186 $-1 #
edge $-1 $416 0 $416 6.2831853071796004 $187 $417 forward 7 unknown #
vertex $-1 $190 $418 #
ellipse-curve $-1 -53.078298684352106 30.643889339416869 6.9536967433625714 0 0.75470958851134928 0.65605901945558964 2 0 0 1 I I #
coedge $-1 $296 $296 $-1 $419 reversed $193 $-1 #
edge $-1 $420 0 $420 6.2831853071796004 $194 $421 forward 7 unknown #
vertex $-1 $197 $422 #
ellipse-curve $-1 -42.86073385108017 30.643889339416869 6.9536967433625714 0 0.75470958851134928 0.65605901945558964 2 0 0 1 I I #
face $-1 $-1 $423 $41 $-1 $424 reversed single #
loop $-1 $-1 $204 $198 #
plane-surface $-1 0 0 11.23223683933025 0 0 1 1 0 0 forward_v I I I I #
coedge $-1 $425 $426 $427 $428 reversed $199 $-1 #
coedge $-1 $429 $201 $203 $310 forward $125 $-1 #
coedge $-1 $201 $429 $425 $430 forward $125 $-1 #
coedge $-1 $427 $204 $201 $307 forward $301 $-1 #
edge $-1 $313 -3.6150200938873773 $431 20.225964517080481 $306 $432 forward 7 unknown #
coedge $-1 $433 $434 $202 $309 forward $423 $-1 #
edge $-1 $435 -70.042440744118991 $312 -61.485360552183643 $308 $436 forward 7 unknown #
edge $-1 $313 57.38809249938997 $435 68.726334814310121 $203 $437 forward 7 unknown #
coedge $-1 $204 $427 $433 $438 forward $301 $-1 #
vertex $-1 $205 $439 #
vertex $-1 $205 $440 #
straight-curve $-1 4.6904521177091745 46.916739890649069 11.232236839330255 0 -1 0 I I #
coedge $-1 $315 $315 $-1 $441 reversed $208 $-1 #
edge $-1 $442 0 $442 6.2831853071796004 $209 $443 forward 7 unknown #
vertex $-1 $212 $444 #
ellipse-curve $-1 11.502162006557143 30.643889339416869 6.9536967433625714 0 0.75470958851134928 0.65605901945558964 2 0 0 1 I I #
coedge $-1 $319 $319 $-1 $445 reversed $215 $-1 #
edge $-1 $446 0 $446 6.2831853071796004 $216 $447 forward 7 unknown #
vertex $-1 $219 $448 #
ellipse-curve $-1 21.719726839829079 30.643889339416869 6.9536967433625714 0 0.75470958851134928 0.65605901945558964 2 0 0 1 I I #
face $-1 $-1 $235 $33 $-1 $449 reversed single #
loop $-1 $-1 $339 $220 #
plane-surface $-1 0 34.363167407155061 0 0 -1 0 0 0 -1 forward_v I I I I #
coedge $-1 $450 $337 $340 $451 forward $221 $-1 #
coedge $-1 $343 $223 $224 $331 reversed $139 $-1 #
coedge $-1 $337 $450 $223 $329 reversed $221 $-1 #
edge $-1 $344 -11.23223683933025 $452 11.23223683933025 $328 $453 forward 7 unknown #
coedge $-1 $225 $224 $450 $454 forward $89 $-1 #
edge $-1 $335 -69.270912808618419 $452 69.270912808618419 $327 $455 forward 7 unknown #
coedge $-1 $340 $339 $225 $333 reversed $324 $-1 #
edge $-1 $456 -69.270912808618419 $334 69.270912808618419 $332 $457 forward 7 unknown #
vertex $-1 $227 $458 #
vertex $-1 $346 $459 #
straight-curve $-1 69.270912808618419 0 -11.23223683933025 0 -1 0 I I #
coedge $-1 $326 $328 $228 $338 reversed $221 $-1 #
edge $-1 $341 -34.363167407155061 $344 34.363167407155061 $337 $460 forward 7 unknown #
coedge $-1 $332 $229 $234 $347 forward $324 $-1 #
coedge $-1 $229 $332 $326 $451 reversed $324 $-1 #
vertex $-1 $230 $461 #
straight-curve $-1 0 34.363167407155061 11.23223683933025 -1 0 0 I I #
coedge $-1 $231 $327 $233 $346 reversed $139 $-1 #
vertex $-1 $338 $462 #
straight-curve $-1 0 -34.363167407155061 11.23223683933025 1 0 0 I I #
edge $-1 $236 -11.23223683933025 $335 11.23223683933025 $233 $463 forward 7 unknown #
edge $-1 $237 -11.23223683933025 $334 11.23223683933025 $234 $464 forward 7 unknown #
point $-1 69.270912808618419 -34.363167407155061 11.23223683933025 #
point $-1 69.270912808618419 34.363167407155061 11.23223683933025 #
face $-1 $-1 $364 $34 $-1 $465 reversed single #
loop $-1 $-1 $360 $239 #
plane-surface $-1 0 0 -11.23223683933025 0 0 1 1 0 0 forward_v I I I I #
coedge $-1 $466 $467 $354 $468 forward $240 $-1 #
coedge $-1 $243 $242 $353 $468 reversed $93 $-1 #
coedge $-1 $360 $469 $242 $356 forward $351 $-1 #
edge $-1 $470 -78.651817044036761 $358 -69.270912808618419 $242 $471 forward 7 unknown #
edge $-1 $250 -4.6904521177091709 $472 4.6904521177091709 $243 $473 forward 7 unknown #
vertex $-1 $244 $474 #
straight-curve $-1 -69.270912808618419 34.363167407155061 0 0 0 -1 I I #
coedge $-1 $475 $355 $245 $361 forward $351 $-1 #
edge $-1 $358 -34.363167407155061 $365 34.363167407155061 $360 $476 forward 7 unknown #
coedge $-1 $477 $246 $249 $368 reversed $364 $-1 #
coedge $-1 $246 $477 $475 $478 reversed $364 $-1 #
loop $-1 $-1 $246 $350 #
vertex $-1 $478 $479 #
straight-curve $-1 -69.270912808618419 -34.363167407155061 0 0 0 1 I I #
coedge $-1 $249 $248 $467 $480 forward $147 $-1 #
edge $-1 $481 -4.6904521177091709 $251 4.6904521177091709 $362 $482 forward 7 unknown #
point $-1 -69.270912808618419 34.363167407155061 -7.1945001612556307 #
point $-1 -69.270912808618419 -34.363167407155061 -7.1945001612556307 #
plane-surface $-1 0 0 11.23223683933025 0 0 1 1 0 0 forward_v I I I I #
coedge $-1 $382 $381 $374 $483 forward $254 $-1 #
coedge $-1 $374 $256 $258 $378 reversed $155 $-1 #
coedge $-1 $256 $373 $372 $483 reversed $155 $-1 #
coedge $-1 $264 $259 $256 $376 forward $265 $-1 #
edge $-1 $379 -48.649517556260989 $484 -42.195178188486565 $375 $485 forward 7 unknown #
coedge $-1 $258 $257 $382 $486 reversed $97 $-1 #
edge $-1 $487 -2.7589209654379419e-014 $379 12.531771621561665 $373 $488 forward 7 unknown #
vertex $-1 $260 $489 #
straight-curve $-1 -0.00069443446320605062 -27.908828039380637 11.23223683933025 -1 0 0 I I #
coedge $-1 $372 $261 $264 $386 reversed $254 $-1 #
coedge $-1 $261 $372 $377 $486 forward $254 $-1 #
vertex $-1 $262 $490 #
straight-curve $-1 7.1381942132238869 -34.363167407155061 35.922362620597816 0 0 1 I I #
straight-curve $-1 7.1381942132238869 -34.363167407155046 0.49041188727598239 0 -0.51503806187062418 -0.85716730853699208 I I #
edge $-1 $484 -7.1409719510767111 $266 7.1381942132238869 $381 $491 forward 7 unknown #
point $-1 7.1381942132238869 -34.363167407155061 11.23223683933025 #
point $-1 7.1381942132238869 -27.908828039380637 11.23223683933025 #
edge $-1 $492 1 $492 0 $269 $-1 forward 7 unknown #
vertex $-1 $270 $493 #
ellipse-curve $-1 -3.0612101898479693 -26.51307026784119 3.0835894064307041 0 -0.85716730853699208 0.51503806187062418 1.5 0 0 1 I I #
point $-1 -1.5612101898479693 -31.135997723267863 5.8613243633031233 #
edge $-1 $494 1 $494 0 $273 $-1 forward 7 unknown #
vertex $-1 $274 $495 #
ellipse-curve $-1 3.0584324519951451 -26.51307026784119 3.0835894064307041 0 -0.85716730853699208 0.51503806187062418 1.5 0 0 1 I I #
point $-1 4.5584324519951451 -31.135997723267863 5.8613243633031233 #
loop $-1 $-1 $285 $277 #
plane-surface $-1 0 34.363167407155061 0 0 -1 0 0 0 -1 forward_v I I I I #
coedge $-1 $400 $280 $282 $404 reversed $177 $-1 #
coedge $-1 $280 $399 $496 $497 reversed $177 $-1 #
coedge $-1 $288 $283 $280 $402 forward $278 $-1 #
edge $-1 $405 -19.992128618970391 $498 -12.553572483494008 $401 $499 forward 7 unknown #
coedge $-1 $282 $281 $408 $500 reversed $111 $-1 #
edge $-1 $501 -68.726334814310121 $405 -57.38809249938997 $399 $502 forward 7 unknown #
vertex $-1 $284 $503 #
straight-curve $-1 -23.984758133858072 26.924611271678685 11.232236839330241 1 0 0 I I #
coedge $-1 $496 $285 $288 $412 reversed $397 $-1 #
coedge $-1 $285 $496 $403 $500 forward $397 $-1 #
vertex $-1 $286 $504 #
straight-curve $-1 -59.890008573200078 34.363167407155061 72.717597391513891 0 0 1 I I #
straight-curve $-1 -59.890008573200078 -10.72536442189778 54.543580514996094 0 0.65605901945558964 -0.75470958851134928 I I #
edge $-1 $498 36.049023962232212 $289 59.890008573200078 $407 $505 forward 7 unknown #
point $-1 -59.890008573200078 34.363167407155061 11.23223683933025 #
point $-1 -59.890008573200078 26.924611271678678 11.232236839330248 #
edge $-1 $506 1 $506 0 $292 $-1 forward 7 unknown #
vertex $-1 $293 $507 #
ellipse-curve $-1 -53.078298684352106 28.853103777517479 5.396990643851721 0 0.75470958851134928 0.65605901945558964 2 0 0 1 I I #
point $-1 -51.078298684352106 30.643889339416873 6.9536967433625732 #
edge $-1 $508 1 $508 0 $296 $-1 forward 7 unknown #
vertex $-1 $297 $509 #
ellipse-curve $-1 -42.86073385108017 28.853103777517479 5.396990643851721 0 0.75470958851134928 0.65605901945558964 2 0 0 1 I I #
point $-1 -40.86073385108017 30.643889339416873 6.9536967433625732 #
loop $-1 $-1 $308 $300 #
plane-surface $-1 0 34.363167407155061 0 0 -1 0 0 0 -1 forward_v I I I I #
coedge $-1 $426 $303 $305 $430 reversed $199 $-1 #
coedge $-1 $303 $425 $510 $511 reversed $199 $-1 #
coedge $-1 $311 $306 $303 $428 forward $301 $-1 #
edge $-1 $431 -19.992128618970391 $512 -12.553572483494008 $427 $513 forward 7 unknown #
coedge $-1 $305 $304 $434 $514 reversed $125 $-1 #
edge $-1 $515 -68.726334814310121 $431 -57.38809249938997 $425 $516 forward 7 unknown #
vertex $-1 $307 $517 #
straight-curve $-1 8.3054722115965518 26.924611271678685 11.232236839330241 1 0 0 I I #
coedge $-1 $510 $308 $311 $438 reversed $423 $-1 #
coedge $-1 $308 $510 $429 $514 forward $423 $-1 #
vertex $-1 $309 $518 #
straight-curve $-1 4.6904521177091745 34.363167407155061 72.717597391513891 0 0 1 I I #
straight-curve $-1 4.6904521177091745 -10.72536442189778 54.543580514996094 0 0.65605901945558964 -0.75470958851134928 I I #
edge $-1 $512 -28.531436728677033 $312 -4.6904521177091745 $433 $519 forward 7 unknown #
point $-1 4.6904521177091745 34.363167407155061 11.23223683933025 #
point $-1 4.6904521177091745 26.924611271678678 11.232236839330248 #
edge $-1 $520 1 $520 0 $315 $-1 forward 7 unknown #
vertex $-1 $316 $521 #
ellipse-curve $-1 11.502162006557143 28.853103777517479 5.396990643851721 0 0.75470958851134928 0.65605901945558964 2 0 0 1 I I #
point $-1 13.502162006557143 30.643889339416873 6.9536967433625732 #
edge $-1 $522 1 $522 0 $319 $-1 forward 7 unknown #
vertex $-1 $320 $523 #
ellipse-curve $-1 21.719726839829079 28.853103777517479 5.396990643851721 0 0.75470958851134928 0.65605901945558964 2 0 0 1 I I #
point $-1 23.719726839829079 30.643889339416873 6.9536967433625732 #
plane-surface $-1 69.270912808618419 0 0 -1 0 0 0 0 1 forward_v I I I I #
coedge $-1 $328 $326 $330 $454 reversed $221 $-1 #
edge $-1 $341 -11.23223683933025 $456 11.23223683933025 $340 $524 forward 7 unknown #
vertex $-1 $454 $525 #
straight-curve $-1 -69.270912808618419 -34.363167407155061 0 0 0 -1 I I #
edge $-1 $452 -34.363167407155061 $456 34.363167407155061 $450 $526 forward 7 unknown #
straight-curve $-1 0 -34.363167407155061 -11.23223683933025 -1 0 0 I I #
vertex $-1 $333 $527 #
straight-curve $-1 0 34.363167407155061 -11.23223683933025 1 0 0 I I #
point $-1 69.270912808618419 34.363167407155061 -11.23223683933025 #
point $-1 69.270912808618419 -34.363167407155061 -11.23223683933025 #
straight-curve $-1 -69.270912808618419 0 11.23223683933025 0 -1 0 I I #
point $-1 -69.270912808618419 34.363167407155061 11.23223683933025 #
point $-1 -69.270912808618419 -34.363167407155061 11.23223683933025 #
straight-curve $-1 69.270912808618419 -34.363167407155061 0 0 0 -1 I I #
straight-curve $-1 69.270912808618419 34.363167407155061 0 0 0 -1 I I #
plane-surface $-1 0 -34.363167407155061 0 0 1 0 0 0 1 forward_v I I I I #
coedge $-1 $528 $353 $469 $529 reversed $240 $-1 #
coedge $-1 $353 $528 $367 $480 reversed $240 $-1 #
edge $-1 $472 -2.0188683390373097 $470 2.0188683390373097 $354 $530 forward 7 unknown #
coedge $-1 $355 $475 $466 $529 forward $351 $-1 #
vertex $-1 $356 $531 #
straight-curve $-1 0 34.363167407155061 -11.23223683933025 1 0 0 I I #
vertex $-1 $357 $532 #
straight-curve $-1 -73.96136492632759 34.363167407155061 -7.1945001612556307 -1 0 0 I I #
point $-1 -69.270912808618419 34.363167407155061 -11.23223683933025 #
coedge $-1 $469 $360 $363 $478 forward $351 $-1 #
straight-curve $-1 -69.270912808618419 0 -11.23223683933025 0 -1 0 I I #
coedge $-1 $363 $362 $528 $533 forward $364 $-1 #
edge $-1 $365 -4.6904521177091709 $534 4.6904521177091709 $363 $535 forward 7 unknown #
point $-1 -69.270912808618419 -34.363167407155061 -11.23223683933025 #
edge $-1 $472 -34.363167407155061 $481 34.363167407155061 $467 $536 forward 7 unknown #
vertex $-1 $480 $537 #
straight-curve $-1 -73.96136492632759 -34.363167407155061 -7.1945001612556307 1 0 0 I I #
edge $-1 $484 24.690125781267568 $487 35.431950733321855 $372 $538 forward 7 unknown #
vertex $-1 $386 $539 #
straight-curve $-1 -7.1409719510767111 -76.558345595641626 11.232236839330248 0 -1 0 I I #
edge $-1 $487 -7.1402775166135051 $383 7.138888647687093 $382 $540 forward 7 unknown #
vertex $-1 $486 $541 #
straight-curve $-1 -7.1409719510767111 -34.363167407155046 0.49041188727598239 0 0.51503806187062418 0.85716730853699208 I I #
point $-1 -7.1409719510767111 -27.908828039380637 11.23223683933025 #
point $-1 7.1381942132238869 -34.363167407155061 0.49041188727595875 #
straight-curve $-1 0 -34.363167407155061 11.23223683933025 1 0 0 I I #
vertex $-1 $389 $542 #
point $-1 -1.5612101898479693 -26.51307026784119 3.0835894064307041 #
vertex $-1 $393 $543 #
point $-1 4.5584324519951451 -26.51307026784119 3.0835894064307041 #
coedge $-1 $408 $407 $400 $497 forward $397 $-1 #
edge $-1 $498 61.485360552183643 $501 70.042440744118991 $496 $544 forward 7 unknown #
vertex $-1 $412 $545 #
straight-curve $-1 -36.049023962232212 46.916739890649069 11.232236839330255 0 1 0 I I #
edge $-1 $501 12.06426582837414 $409 35.905250439342005 $408 $546 forward 7 unknown #
vertex $-1 $500 $547 #
straight-curve $-1 -36.049023962232212 -10.72536442189778 54.543580514996094 0 -0.65605901945558964 0.75470958851134928 I I #
point $-1 -36.049023962232212 26.924611271678678 11.232236839330248 #
point $-1 -59.890008573200078 34.363167407155061 2.6751566473948998 #
straight-curve $-1 0 34.363167407155061 11.23223683933025 -1 0 0 I I #
vertex $-1 $415 $548 #
point $-1 -51.078298684352106 28.853103777517479 5.396990643851721 #
vertex $-1 $419 $549 #
point $-1 -40.86073385108017 28.853103777517479 5.396990643851721 #
coedge $-1 $434 $433 $426 $511 forward $423 $-1 #
edge $-1 $512 61.485360552183643 $515 70.042440744118991 $510 $550 forward 7 unknown #
vertex $-1 $438 $551 #
straight-curve $-1 28.531436728677033 46.916739890649069 11.232236839330255 0 1 0 I I #
edge $-1 $515 -20.225964517080481 $435 3.6150200938873773 $434 $552 forward 7 unknown #
vertex $-1 $514 $553 #
straight-curve $-1 28.531436728677033 -10.72536442189778 54.543580514996094 0 -0.65605901945558964 0.75470958851134928 I I #
point $-1 28.531436728677033 26.924611271678678 11.232236839330248 #
point $-1 4.6904521177091745 34.363167407155061 2.6751566473948998 #
straight-curve $-1 0 34.363167407155061 11.23223683933025 -1 0 0 I I #
vertex $-1 $441 $554 #
point $-1 13.502162006557143 28.853103777517479 5.396990643851721 #
vertex $-1 $445 $555 #
point $-1 23.719726839829079 28.853103777517479 5.396990643851721 #
straight-curve $-1 -69.270912808618419 34.363167407155061 0 0 0 -1 I I #
point $-1 -69.270912808618419 -34.363167407155061 -11.23223683933025 #
straight-curve $-1 -69.270912808618419 0 -11.23223683933025 0 1 0 I I #
point $-1 -69.270912808618419 34.363167407155061 -11.23223683933025 #
coedge $-1 $467 $466 $477 $533 reversed $240 $-1 #
edge $-1 $534 -34.363167407155061 $470 34.363167407155061 $466 $556 forward 7 unknown #
straight-curve $-1 -78.651817044036761 34.363167407155061 -9.2133685002929404 0 0 -1 I I #
point $-1 -78.651817044036761 34.363167407155061 -11.23223683933025 #
point $-1 -78.651817044036761 34.363167407155061 -7.1945001612556307 #
edge $-1 $481 -2.0188683390373097 $534 2.0188683390373097 $528 $557 forward 7 unknown #
vertex $-1 $529 $558 #
straight-curve $-1 -73.96136492632759 -34.363167407155061 -11.23223683933025 -1 0 0 I I #
straight-curve $-1 -78.651817044036761 0 -7.1945001612556307 0 -1 0 I I #
point $-1 -78.651817044036761 -34.363167407155061 -7.1945001612556307 #
straight-curve $-1 -7.1409719510767111 -34.363167407155061 35.922362620597816 0 0 -1 I I #
point $-1 -7.1409719510767111 -34.363167407155061 11.23223683933025 #
straight-curve $-1 -0.00069443446320605062 -34.363167407155061 0.49041188727595986 1 0 0 I I #
point $-1 -7.1409719510767111 -34.363167407155061 0.49041188727595875 #
point $-1 -3.0612101898479693 -25.227319305035703 2.3110323136247679 #
point $-1 3.0584324519951451 -25.227319305035703 2.3110323136247679 #
straight-curve $-1 -36.049023962232212 34.363167407155061 72.717597391513891 0 0 -1 I I #
point $-1 -36.049023962232212 34.363167407155061 11.23223683933025 #
straight-curve $-1 -23.984758133858072 34.363167407155061 2.6751566473948962 -1 0 0 I I #
point $-1 -36.049023962232212 34.363167407155061 2.6751566473948998 #
point $-1 -53.078298684352106 27.343684600494779 4.0848726049405411 #
point $-1 -42.86073385108017 27.343684600494779 4.0848726049405411 #
straight-curve $-1 28.531436728677033 34.363167407155061 72.717597391513891 0 0 -1 I I #
point $-1 28.531436728677033 34.363167407155061 11.23223683933025 #
straight-curve $-1 8.3054722115965518 34.363167407155061 2.6751566473948962 -1 0 0 I I #
point $-1 28.531436728677033 34.363167407155061 2.6751566473948998 #
point $-1 11.502162006557143 27.343684600494779 4.0848726049405411 #
point $-1 21.719726839829079 27.343684600494779 4.0848726049405411 #
straight-curve $-1 -78.651817044036761 0 -11.23223683933025 0 1 0 I I #
straight-curve $-1 -78.651817044036761 -34.363167407155061 -9.2133685002929404 0 0 -1 I I #
point $-1 -78.651817044036761 -34.363167407155061 -11.23223683933025 #
End-of-ACIS-data 