500 0 10 0           
7 Unknown 11 ACIS 5.0 NT 24 Thu Mar 25 21:18:07 1999 
-1 9.9999999999999995e-007 1e-010 
body $-1 $10 $-1 $11 #
body $-1 $12 $-1 $13 #
body $-1 $14 $-1 $15 #
body $-1 $16 $-1 $17 #
body $-1 $18 $-1 $19 #
body $-1 $20 $-1 $21 #
body $-1 $22 $-1 $23 #
body $-1 $24 $-1 $25 #
body $-1 $26 $-1 $27 #
body $-1 $28 $-1 $29 #
lump $-1 $-1 $30 $0 #
transform $-1 1 0 0 0 1 0 0 0 1 60.777001251258888 28.726764262184428 11.038154183155591 1 rotate no_reflect no_shear #
lump $-1 $-1 $31 $1 #
transform $-1 1 0 0 0 1 0 0 0 1 60.777001251258888 28.726764262184428 11.038154183155591 1 rotate no_reflect no_shear #
lump $-1 $-1 $32 $2 #
transform $-1 1 0 0 0 1 0 0 0 1 60.777001251258888 28.726764262184428 11.038154183155591 1 rotate no_reflect no_shear #
lump $-1 $-1 $33 $3 #
transform $-1 1 0 0 0 1 0 0 0 1 60.777001251258888 28.726764262184428 11.038154183155591 1 rotate no_reflect no_shear #
lump $-1 $-1 $34 $4 #
transform $-1 1 0 0 0 1 0 0 0 1 60.777001251258888 28.726764262184428 11.038154183155591 1 rotate no_reflect no_shear #
lump $-1 $-1 $35 $5 #
transform $-1 1 0 0 0 1 0 0 0 1 60.777001251258888 28.726764262184428 11.038154183155591 1 rotate no_reflect no_shear #
lump $-1 $-1 $36 $6 #
transform $-1 1 0 0 0 1 0 0 0 1 60.777001251258888 28.726764262184428 11.038154183155591 1 rotate no_reflect no_shear #
lump $-1 $-1 $37 $7 #
transform $-1 1 0 0 0 1 0 0 0 1 60.777001251258888 28.726764262184428 11.038154183155591 1 rotate no_reflect no_shear #
lump $-1 $-1 $38 $8 #
transform $-1 1 0 0 0 1 0 0 0 1 60.777001251258888 28.726764262184428 11.038154183155591 1 rotate no_reflect no_shear #
lump $-1 $-1 $39 $9 #
transform $-1 1 0 0 0 1 0 0 0 1 60.777001251258888 28.726764262184428 11.038154183155591 1 rotate no_reflect no_shear #
shell $-1 $-1 $-1 $40 $-1 $10 #
shell $-1 $-1 $-1 $41 $-1 $12 #
shell $-1 $-1 $-1 $42 $-1 $14 #
shell $-1 $-1 $-1 $43 $-1 $16 #
shell $-1 $-1 $-1 $44 $-1 $18 #
shell $-1 $-1 $-1 $45 $-1 $20 #
shell $-1 $-1 $-1 $46 $-1 $22 #
shell $-1 $-1 $-1 $47 $-1 $24 #
shell $-1 $-1 $-1 $48 $-1 $26 #
shell $-1 $-1 $-1 $49 $-1 $28 #
face $-1 $50 $51 $30 $-1 $52 forward single #
face $-1 $53 $54 $31 $-1 $55 reversed single #
face $-1 $56 $57 $32 $-1 $58 reversed single #
face $-1 $59 $60 $33 $-1 $61 forward single #
face $-1 $62 $63 $34 $-1 $64 forward single #
face $-1 $65 $66 $35 $-1 $67 forward single #
face $-1 $68 $69 $36 $-1 $70 reversed single #
face $-1 $71 $72 $37 $-1 $73 forward single #
face $-1 $74 $75 $38 $-1 $76 forward single #
face $-1 $77 $78 $39 $-1 $79 forward single #
face $-1 $80 $81 $30 $-1 $82 reversed single #
loop $-1 $-1 $83 $40 #
plane-surface $-1 0 0 11.038154183155591 0 0 1 1 0 0 forward_v I I I I #
face $-1 $84 $85 $31 $-1 $86 reversed single #
loop $-1 $-1 $87 $41 #
plane-surface $-1 -55.088614296329119 0 6.5314665311553401 0 0 1 1 0 0 forward_v I I I I #
face $-1 $88 $89 $32 $-1 $90 reversed single #
loop $-1 $-1 $91 $42 #
plane-surface $-1 -29.669737529733371 -103.56288171310538 102.83810369021521 -1 0 0 0 -0.61566148304635926 0.78801074757464917 forward_v I I I I #
face $-1 $92 $93 $33 $-1 $94 forward single #
loop $-1 $95 $96 $43 #
cone-surface $-1 -45.45412937906616 -25.01182079604451 7.5552483114847497 0 0.61566148304635926 -0.78801074757464917 1 0 0 1 I I 0 1 1 forward I I I I #
face $-1 $97 $98 $34 $-1 $99 forward single #
loop $-1 $100 $101 $44 #
cone-surface $-1 -39.534982435566363 -25.01182079604451 7.5552483114847497 0 0.61566148304635926 -0.78801074757464917 1 0 0 1 I I 0 1 1 forward I I I I #
face $-1 $102 $103 $35 $-1 $104 forward single #
loop $-1 $105 $106 $45 #
cone-surface $-1 -33.615835492066566 -25.01182079604451 7.5552483114847497 0 0.61566148304635926 -0.78801074757464917 1 0 0 1 I I 0 1 1 forward I I I I #
face $-1 $107 $108 $36 $-1 $109 reversed single #
loop $-1 $-1 $110 $46 #
plane-surface $-1 -29.669737529733371 58.288883749816037 138.21002826777442 -1 0 0 0 0.61566148304635926 0.78801074757464917 forward_v I I I I #
face $-1 $111 $112 $37 $-1 $113 forward single #
loop $-1 $114 $115 $47 #
cone-surface $-1 -45.45412937906616 25.01182079604451 7.5552483114847497 0 -0.61566148304635926 -0.78801074757464917 1 0 0 1 I I 0 1 1 forward I I I I #
face $-1 $116 $117 $38 $-1 $118 forward single #
loop $-1 $119 $120 $48 #
cone-surface $-1 -39.534982435566363 25.01182079604451 7.5552483114847497 0 -0.61566148304635926 -0.78801074757464917 1 0 0 1 I I 0 1 1 forward I I I I #
face $-1 $121 $122 $39 $-1 $123 forward single #
loop $-1 $124 $125 $49 #
cone-surface $-1 -33.615835492066566 25.01182079604451 7.5552483114847497 0 -0.61566148304635926 -0.78801074757464917 1 0 0 1 I I 0 1 1 forward I I I I #
face $-1 $126 $127 $30 $-1 $128 reversed single #
loop $-1 $-1 $129 $50 #
plane-surface $-1 0 0 -11.038154183155591 0 0 1 1 0 0 forward_v I I I I #
coedge $-1 $130 $131 $132 $133 forward $51 $-1 #
face $-1 $134 $135 $31 $-1 $136 reversed single #
loop $-1 $-1 $137 $53 #
plane-surface $-1 -49.400227341399351 0 8.7848103571554645 -1 0 0 0 0 1 forward_v I I I I #
coedge $-1 $138 $139 $140 $141 forward $54 $-1 #
face $-1 $142 $143 $32 $-1 $144 forward single #
loop $-1 $-1 $145 $56 #
plane-surface $-1 -39.534982435566363 -28.726764262184432 7.052243307515397 0 -0.61566148304635926 0.78801074757464917 1 0 0 forward_v I I I I #
coedge $-1 $146 $147 $148 $149 reversed $57 $-1 #
face $-1 $-1 $150 $33 $-1 $151 forward single #
loop $-1 $152 $153 $59 #
cone-surface $-1 -45.45412937906616 -23.539913172837405 5.6712925038466793 0 0.61566148304635926 -0.78801074757464917 0.5 0 0 1 I I -0.70710678118654746 0.70710678118654746 0.5 forward I I I I #
loop $-1 $-1 $154 $43 #
coedge $-1 $96 $96 $155 $156 reversed $60 $-1 #
face $-1 $-1 $157 $34 $-1 $158 forward single #
loop $-1 $159 $160 $62 #
cone-surface $-1 -39.534982435566363 -23.539913172837405 5.6712925038466793 0 0.61566148304635926 -0.78801074757464917 0.5 0 0 1 I I -0.70710678118654746 0.70710678118654746 0.5 forward I I I I #
loop $-1 $-1 $161 $44 #
coedge $-1 $101 $101 $162 $163 reversed $63 $-1 #
face $-1 $-1 $164 $35 $-1 $165 forward single #
loop $-1 $166 $167 $65 #
cone-surface $-1 -33.615835492066566 -23.539913172837405 5.6712925038466793 0 0.61566148304635926 -0.78801074757464917 0.5 0 0 1 I I -0.70710678118654746 0.70710678118654746 0.5 forward I I I I #
loop $-1 $-1 $168 $45 #
coedge $-1 $106 $106 $169 $170 reversed $66 $-1 #
face $-1 $171 $172 $36 $-1 $173 forward single #
loop $-1 $-1 $174 $68 #
plane-surface $-1 -39.534982435566363 -16.547233701104915 42.42416788507461 0 0.61566148304635926 0.78801074757464917 1 0 0 forward_v I I I I #
coedge $-1 $175 $176 $177 $178 reversed $69 $-1 #
face $-1 $-1 $179 $37 $-1 $180 forward single #
loop $-1 $181 $182 $71 #
cone-surface $-1 -45.45412937906616 23.539913172837405 5.6712925038466793 0 -0.61566148304635926 -0.78801074757464917 0.5 0 0 1 I I -0.70710678118654746 0.70710678118654746 0.5 forward I I I I #
loop $-1 $-1 $183 $47 #
coedge $-1 $115 $115 $184 $185 reversed $72 $-1 #
face $-1 $-1 $186 $38 $-1 $187 forward single #
loop $-1 $188 $189 $74 #
cone-surface $-1 -39.534982435566363 23.539913172837405 5.6712925038466793 0 -0.61566148304635926 -0.78801074757464917 0.5 0 0 1 I I -0.70710678118654746 0.70710678118654746 0.5 forward I I I I #
loop $-1 $-1 $190 $48 #
coedge $-1 $120 $120 $191 $192 reversed $75 $-1 #
face $-1 $-1 $193 $39 $-1 $194 forward single #
loop $-1 $195 $196 $77 #
cone-surface $-1 -33.615835492066566 23.539913172837405 5.6712925038466793 0 -0.61566148304635926 -0.78801074757464917 0.5 0 0 1 I I -0.70710678118654746 0.70710678118654746 0.5 forward I I I I #
loop $-1 $-1 $197 $49 #
coedge $-1 $125 $125 $198 $199 reversed $78 $-1 #
face $-1 $200 $201 $30 $-1 $202 reversed single #
loop $-1 $-1 $203 $80 #
plane-surface $-1 0 -28.726764262184428 0 0 1 0 0 0 1 forward_v I I I I #
coedge $-1 $204 $205 $206 $207 forward $81 $-1 #
coedge $-1 $208 $83 $209 $210 forward $51 $-1 #
coedge $-1 $83 $208 $211 $212 forward $51 $-1 #
coedge $-1 $213 $214 $83 $133 reversed $215 $-1 #
edge $-1 $216 -28.726764262184428 $217 28.726764262184428 $132 $218 forward 7 unknown #
face $-1 $219 $220 $31 $-1 $221 reversed single #
loop $-1 $-1 $222 $84 #
plane-surface $-1 0 28.726764262184428 0 0 -1 0 0 0 -1 forward_v I I I I #
coedge $-1 $223 $224 $225 $226 reversed $85 $-1 #
coedge $-1 $227 $87 $228 $229 reversed $54 $-1 #
coedge $-1 $87 $227 $230 $231 reversed $54 $-1 #
coedge $-1 $224 $223 $87 $141 reversed $85 $-1 #
edge $-1 $232 -28.726764262184428 $233 28.726764262184428 $140 $234 forward 7 unknown #
face $-1 $235 $236 $32 $-1 $237 reversed single #
loop $-1 $-1 $238 $88 #
plane-surface $-1 -49.400227341399351 0 8.7848103571554645 -1 0 0 0 0 1 forward_v I I I I #
coedge $-1 $239 $240 $241 $242 reversed $89 $-1 #
coedge $-1 $147 $91 $243 $244 reversed $57 $-1 #
coedge $-1 $91 $146 $239 $245 reversed $57 $-1 #
coedge $-1 $241 $246 $91 $149 forward $247 $-1 #
edge $-1 $248 23.054676594368264 $249 28.156409763280244 $148 $250 forward 7 unknown #
loop $-1 $-1 $155 $92 #
plane-surface $-1 -39.534982435566363 -28.726764262184432 7.052243307515397 0 -0.61566148304635926 0.78801074757464917 1 0 0 forward_v I I I I #
loop $-1 $-1 $251 $59 #
coedge $-1 $153 $153 $154 $252 reversed $93 $-1 #
coedge $-1 $154 $154 $153 $252 forward $95 $-1 #
coedge $-1 $155 $155 $96 $156 forward $150 $-1 #
edge $-1 $253 -2.1872689723294032e-015 $253 6.2831853071795987 $155 $254 forward 7 unknown #
loop $-1 $-1 $162 $97 #
plane-surface $-1 -39.534982435566363 -28.726764262184432 7.052243307515397 0 -0.61566148304635926 0.78801074757464917 1 0 0 forward_v I I I I #
loop $-1 $-1 $255 $62 #
coedge $-1 $160 $160 $161 $256 reversed $98 $-1 #
coedge $-1 $161 $161 $160 $256 forward $100 $-1 #
coedge $-1 $162 $162 $101 $163 forward $157 $-1 #
edge $-1 $257 -2.1872689723294032e-015 $257 6.2831853071795987 $162 $258 forward 7 unknown #
loop $-1 $-1 $169 $102 #
plane-surface $-1 -39.534982435566363 -28.726764262184432 7.052243307515397 0 -0.61566148304635926 0.78801074757464917 1 0 0 forward_v I I I I #
loop $-1 $-1 $259 $65 #
coedge $-1 $167 $167 $168 $260 reversed $103 $-1 #
coedge $-1 $168 $168 $167 $260 forward $105 $-1 #
coedge $-1 $169 $169 $106 $170 forward $164 $-1 #
edge $-1 $261 -2.1872689723294032e-015 $261 6.2831853071795987 $169 $262 forward 7 unknown #
face $-1 $263 $264 $36 $-1 $265 forward single #
loop $-1 $-1 $266 $107 #
plane-surface $-1 0 0 11.038154183155591 0 0 1 1 0 0 forward_v I I I I #
coedge $-1 $267 $268 $269 $270 reversed $108 $-1 #
coedge $-1 $176 $110 $271 $272 reversed $69 $-1 #
coedge $-1 $110 $175 $267 $273 reversed $69 $-1 #
coedge $-1 $269 $274 $110 $178 forward $275 $-1 #
edge $-1 $276 58.066859950731619 $277 62.052770826371841 $177 $278 forward 7 unknown #
loop $-1 $-1 $184 $111 #
plane-surface $-1 -39.534982435566363 -16.547233701104915 42.42416788507461 0 0.61566148304635926 0.78801074757464917 1 0 0 forward_v I I I I #
loop $-1 $-1 $279 $71 #
coedge $-1 $182 $182 $183 $280 reversed $112 $-1 #
coedge $-1 $183 $183 $182 $280 forward $114 $-1 #
coedge $-1 $184 $184 $115 $185 forward $179 $-1 #
edge $-1 $281 1.3555958723187451e-015 $281 6.2831853071796022 $184 $282 forward 7 unknown #
loop $-1 $-1 $191 $116 #
plane-surface $-1 -39.534982435566363 -16.547233701104915 42.42416788507461 0 0.61566148304635926 0.78801074757464917 1 0 0 forward_v I I I I #
loop $-1 $-1 $283 $74 #
coedge $-1 $189 $189 $190 $284 reversed $117 $-1 #
coedge $-1 $190 $190 $189 $284 forward $119 $-1 #
coedge $-1 $191 $191 $120 $192 forward $186 $-1 #
edge $-1 $285 1.3555958723187451e-015 $285 6.2831853071796022 $191 $286 forward 7 unknown #
loop $-1 $-1 $198 $121 #
plane-surface $-1 -39.534982435566363 -16.547233701104915 42.42416788507461 0 0.61566148304635926 0.78801074757464917 1 0 0 forward_v I I I I #
loop $-1 $-1 $287 $77 #
coedge $-1 $196 $196 $197 $288 reversed $122 $-1 #
coedge $-1 $197 $197 $196 $288 forward $124 $-1 #
coedge $-1 $198 $198 $125 $199 forward $193 $-1 #
edge $-1 $289 1.3555958723187451e-015 $289 6.2831853071796022 $198 $290 forward 7 unknown #
face $-1 $291 $292 $30 $-1 $293 reversed single #
loop $-1 $-1 $294 $126 #
plane-surface $-1 -60.777001251258888 0 0 1 0 0 0 0 -1 forward_v I I I I #
coedge $-1 $295 $211 $296 $297 forward $127 $-1 #
coedge $-1 $298 $129 $295 $299 forward $81 $-1 #
coedge $-1 $129 $298 $300 $301 forward $81 $-1 #
coedge $-1 $214 $213 $129 $207 reversed $215 $-1 #
edge $-1 $302 -28.726764262184428 $303 28.726764262184428 $206 $304 forward 7 unknown #
coedge $-1 $131 $130 $305 $306 forward $51 $-1 #
coedge $-1 $307 $308 $130 $210 reversed $292 $-1 #
edge $-1 $217 -60.777001251258888 $309 60.777001251258888 $209 $310 forward 7 unknown #
coedge $-1 $203 $311 $131 $212 reversed $127 $-1 #
edge $-1 $312 -60.777001251258888 $216 60.777001251258888 $211 $313 forward 7 unknown #
coedge $-1 $206 $132 $311 $314 forward $215 $-1 #
coedge $-1 $132 $206 $307 $315 reversed $215 $-1 #
loop $-1 $-1 $213 $291 #
vertex $-1 $133 $316 #
vertex $-1 $133 $317 #
straight-curve $-1 60.777001251258888 0 11.038154183155591 0 1 0 I I #
face $-1 $318 $319 $31 $-1 $320 forward single #
loop $-1 $-1 $321 $134 #
plane-surface $-1 -60.777001251258888 0 0 1 0 0 0 0 -1 forward_v I I I I #
coedge $-1 $230 $322 $224 $323 forward $135 $-1 #
coedge $-1 $140 $137 $324 $325 reversed $85 $-1 #
coedge $-1 $137 $140 $222 $323 reversed $85 $-1 #
coedge $-1 $326 $327 $137 $226 forward $319 $-1 #
edge $-1 $328 -28.726764262184428 $329 28.726764262184428 $225 $330 forward 7 unknown #
coedge $-1 $139 $138 $321 $331 reversed $54 $-1 #
coedge $-1 $324 $332 $138 $229 forward $333 $-1 #
edge $-1 $334 -33.232694103094332 $233 -21.855920193234791 $228 $335 forward 7 unknown #
coedge $-1 $336 $222 $139 $231 forward $135 $-1 #
edge $-1 $232 21.855920193234791 $337 33.232694103094332 $230 $338 forward 7 unknown #
vertex $-1 $231 $339 #
vertex $-1 $229 $340 #
straight-curve $-1 -49.400227341399351 0 6.5314665311553401 0 -1 0 I I #
face $-1 $-1 $247 $32 $-1 $341 forward single #
loop $-1 $-1 $342 $142 #
plane-surface $-1 0 -28.726764262184428 0 0 1 0 0 0 1 forward_v I I I I #
coedge $-1 $343 $344 $240 $345 forward $143 $-1 #
coedge $-1 $346 $145 $147 $245 forward $89 $-1 #
coedge $-1 $145 $346 $238 $345 reversed $89 $-1 #
coedge $-1 $347 $148 $145 $242 forward $247 $-1 #
edge $-1 $249 9.90224631195019 $348 29.632736123616169 $241 $349 forward 7 unknown #
coedge $-1 $350 $342 $146 $244 forward $236 $-1 #
edge $-1 $351 -44.366808537592206 $248 -40.380897661952012 $243 $352 forward 7 unknown #
edge $-1 $249 -6.4741923693479713 $351 -4.4400282911973173e-015 $147 $353 forward 7 unknown #
coedge $-1 $148 $347 $350 $354 forward $247 $-1 #
loop $-1 $-1 $241 $235 #
vertex $-1 $244 $355 #
vertex $-1 $149 $356 #
straight-curve $-1 -29.669737529733371 -51.781440856552692 11.038154183155591 0 1 0 I I #
coedge $-1 $251 $251 $-1 $357 reversed $152 $-1 #
edge $-1 $358 0 $358 6.2831853071796004 $153 $359 forward 7 unknown #
vertex $-1 $156 $360 #
ellipse-curve $-1 -45.45412937906616 -26.175897677728436 9.0451987453354974 0 -0.61566148304635926 0.78801074757464917 1 0 0 1 I I #
coedge $-1 $255 $255 $-1 $361 reversed $159 $-1 #
edge $-1 $362 0 $362 6.2831853071796004 $160 $363 forward 7 unknown #
vertex $-1 $163 $364 #
ellipse-curve $-1 -39.534982435566363 -26.175897677728436 9.0451987453354974 0 -0.61566148304635926 0.78801074757464917 1 0 0 1 I I #
coedge $-1 $259 $259 $-1 $365 reversed $166 $-1 #
edge $-1 $366 0 $366 6.2831853071796004 $167 $367 forward 7 unknown #
vertex $-1 $170 $368 #
ellipse-curve $-1 -33.615835492066566 -26.175897677728436 9.0451987453354974 0 -0.61566148304635926 0.78801074757464917 1 0 0 1 I I #
face $-1 $-1 $275 $36 $-1 $369 reversed single #
loop $-1 $-1 $370 $171 #
plane-surface $-1 -49.400227341399351 0 8.7848103571554645 -1 0 0 0 0 1 forward_v I I I I #
coedge $-1 $271 $371 $372 $373 forward $172 $-1 #
coedge $-1 $372 $174 $176 $273 forward $108 $-1 #
coedge $-1 $174 $372 $370 $374 reversed $108 $-1 #
coedge $-1 $375 $177 $174 $270 forward $275 $-1 #
edge $-1 $277 9.90224631195019 $376 29.632736123616169 $269 $377 forward 7 unknown #
coedge $-1 $378 $266 $175 $272 forward $172 $-1 #
edge $-1 $379 -5.5194107816356066 $276 -0.41767761272359039 $271 $380 forward 7 unknown #
edge $-1 $277 -57.45352852436887 $379 -50.979336155020853 $176 $381 forward 7 unknown #
coedge $-1 $177 $375 $378 $382 reversed $275 $-1 #
loop $-1 $-1 $269 $263 #
vertex $-1 $382 $383 #
vertex $-1 $178 $384 #
straight-curve $-1 -29.669737529733371 28.726764262184428 69.105014133887209 0 0 -1 I I #
coedge $-1 $279 $279 $-1 $385 reversed $181 $-1 #
edge $-1 $386 0 $386 6.2831853071796004 $182 $387 forward 7 unknown #
vertex $-1 $185 $388 #
ellipse-curve $-1 -45.45412937906616 26.175897677728422 9.0451987453354779 0 0.61566148304635926 0.78801074757464917 1 0 0 1 I I #
coedge $-1 $283 $283 $-1 $389 reversed $188 $-1 #
edge $-1 $390 0 $390 6.2831853071796004 $189 $391 forward 7 unknown #
vertex $-1 $192 $392 #
ellipse-curve $-1 -39.534982435566363 26.175897677728422 9.0451987453354779 0 0.61566148304635926 0.78801074757464917 1 0 0 1 I I #
coedge $-1 $287 $287 $-1 $393 reversed $195 $-1 #
edge $-1 $394 0 $394 6.2831853071796004 $196 $395 forward 7 unknown #
vertex $-1 $199 $396 #
ellipse-curve $-1 -33.615835492066566 26.175897677728422 9.0451987453354779 0 0.61566148304635926 0.78801074757464917 1 0 0 1 I I #
face $-1 $-1 $215 $30 $-1 $397 reversed single #
loop $-1 $-1 $307 $200 #
plane-surface $-1 0 28.726764262184428 0 0 -1 0 0 0 -1 forward_v I I I I #
coedge $-1 $398 $305 $308 $399 forward $201 $-1 #
coedge $-1 $311 $203 $204 $299 reversed $127 $-1 #
coedge $-1 $305 $398 $203 $297 reversed $201 $-1 #
edge $-1 $312 -11.038154183155591 $400 11.038154183155591 $296 $401 forward 7 unknown #
coedge $-1 $205 $204 $398 $402 forward $81 $-1 #
edge $-1 $303 -60.777001251258888 $400 60.777001251258888 $295 $403 forward 7 unknown #
coedge $-1 $308 $307 $205 $301 reversed $292 $-1 #
edge $-1 $404 -60.777001251258888 $302 60.777001251258888 $300 $405 forward 7 unknown #
vertex $-1 $207 $406 #
vertex $-1 $314 $407 #
straight-curve $-1 60.777001251258888 0 -11.038154183155591 0 -1 0 I I #
coedge $-1 $294 $296 $208 $306 reversed $201 $-1 #
edge $-1 $309 -28.726764262184428 $312 28.726764262184428 $305 $408 forward 7 unknown #
coedge $-1 $300 $209 $214 $315 forward $292 $-1 #
coedge $-1 $209 $300 $294 $399 reversed $292 $-1 #
vertex $-1 $210 $409 #
straight-curve $-1 0 28.726764262184428 11.038154183155591 -1 0 0 I I #
coedge $-1 $211 $295 $213 $314 reversed $127 $-1 #
vertex $-1 $306 $410 #
straight-curve $-1 0 -28.726764262184428 11.038154183155591 1 0 0 I I #
edge $-1 $216 -11.038154183155591 $303 11.038154183155591 $213 $411 forward 7 unknown #
edge $-1 $217 -11.038154183155591 $302 11.038154183155591 $214 $412 forward 7 unknown #
point $-1 60.777001251258888 -28.726764262184428 11.038154183155591 #
point $-1 60.777001251258888 28.726764262184428 11.038154183155591 #
face $-1 $-1 $333 $31 $-1 $413 reversed single #
loop $-1 $-1 $225 $219 #
plane-surface $-1 0 0 11.038154183155591 0 0 1 1 0 0 forward_v I I I I #
coedge $-1 $414 $415 $227 $331 forward $220 $-1 #
coedge $-1 $222 $336 $326 $416 reversed $135 $-1 #
edge $-1 $329 -6.6457490045778567 $232 -2.1390613525776079 $222 $417 forward 7 unknown #
coedge $-1 $418 $228 $223 $325 forward $333 $-1 #
edge $-1 $233 2.1390613525776079 $328 6.6457490045778567 $324 $419 forward 7 unknown #
coedge $-1 $420 $225 $322 $416 forward $319 $-1 #
coedge $-1 $225 $420 $418 $421 forward $319 $-1 #
vertex $-1 $325 $422 #
vertex $-1 $416 $423 #
straight-curve $-1 -49.400227341399351 0 11.038154183155591 0 1 0 I I #
edge $-1 $337 -28.726764262184428 $334 28.726764262184428 $321 $424 forward 7 unknown #
coedge $-1 $228 $418 $414 $425 forward $333 $-1 #
loop $-1 $-1 $324 $318 #
vertex $-1 $331 $426 #
straight-curve $-1 -27.54430714816456 -28.726764262184428 6.5314665311553401 1 0 0 I I #
coedge $-1 $322 $230 $415 $427 reversed $135 $-1 #
vertex $-1 $331 $428 #
straight-curve $-1 -27.54430714816456 28.726764262184428 6.5314665311553401 -1 0 0 I I #
point $-1 -49.400227341399351 28.726764262184428 6.5314665311553401 #
point $-1 -49.400227341399351 -28.726764262184428 6.5314665311553401 #
plane-surface $-1 0 0 11.038154183155591 0 0 1 1 0 0 forward_v I I I I #
coedge $-1 $243 $429 $346 $430 forward $236 $-1 #
coedge $-1 $344 $238 $429 $431 reversed $143 $-1 #
coedge $-1 $238 $343 $347 $432 reversed $143 $-1 #
edge $-1 $348 5.3776445211036954 $433 11.851836890451658 $238 $434 forward 7 unknown #
coedge $-1 $240 $239 $342 $430 reversed $89 $-1 #
coedge $-1 $246 $241 $344 $432 forward $247 $-1 #
vertex $-1 $432 $435 #
straight-curve $-1 -19.767491217783181 -23.625031093272451 11.038154183155591 -1 0 0 I I #
coedge $-1 $429 $243 $246 $354 reversed $236 $-1 #
vertex $-1 $244 $436 #
straight-curve $-1 -29.669737529733371 -28.726764262184432 51.419051845107603 0 0 1 I I #
straight-curve $-1 -29.669737529733371 -28.726764262184432 7.052243307515397 0 -0.78801074757464917 -0.61566148304635926 I I #
edge $-1 $437 -49.400227341399351 $248 -29.669737529733371 $350 $438 forward 7 unknown #
point $-1 -29.669737529733371 -28.726764262184428 11.038154183155591 #
point $-1 -29.669737529733371 -23.625031093272447 11.038154183155591 #
edge $-1 $439 1 $439 0 $251 $-1 forward 7 unknown #
vertex $-1 $252 $440 #
ellipse-curve $-1 -45.45412937906616 -23.847743914360585 6.0652978776340039 0 -0.61566148304635926 0.78801074757464917 1 0 0 1 I I #
point $-1 -44.45412937906616 -26.175897677728436 9.0451987453354938 #
edge $-1 $441 1 $441 0 $255 $-1 forward 7 unknown #
vertex $-1 $256 $442 #
ellipse-curve $-1 -39.534982435566363 -23.847743914360585 6.0652978776340039 0 -0.61566148304635926 0.78801074757464917 1 0 0 1 I I #
point $-1 -38.534982435566363 -26.175897677728436 9.0451987453354938 #
edge $-1 $443 1 $443 0 $259 $-1 forward 7 unknown #
vertex $-1 $260 $444 #
ellipse-curve $-1 -33.615835492066566 -23.847743914360585 6.0652978776340039 0 -0.61566148304635926 0.78801074757464917 1 0 0 1 I I #
point $-1 -32.615835492066566 -26.175897677728436 9.0451987453354938 #
plane-surface $-1 0 28.726764262184428 0 0 -1 0 0 0 -1 forward_v I I I I #
coedge $-1 $445 $446 $268 $374 forward $264 $-1 #
coedge $-1 $266 $378 $445 $447 forward $172 $-1 #
coedge $-1 $268 $267 $266 $373 reversed $108 $-1 #
edge $-1 $448 -29.632736123616169 $379 -9.90224631195019 $266 $449 forward 7 unknown #
edge $-1 $376 -40.578601152636111 $448 -34.104408783288093 $370 $450 forward 7 unknown #
coedge $-1 $274 $269 $446 $451 forward $275 $-1 #
vertex $-1 $451 $452 #
straight-curve $-1 -19.767491217783181 28.726764262184428 7.052243307515365 -1 0 0 I I #
coedge $-1 $371 $271 $274 $382 forward $172 $-1 #
vertex $-1 $272 $453 #
straight-curve $-1 -29.669737529733371 29.144441874908019 11.038154183155591 0 1 0 I I #
straight-curve $-1 -29.669737529733371 -16.547233701104915 42.42416788507461 0 -0.78801074757464917 0.61566148304635926 I I #
edge $-1 $276 29.669737529733371 $454 49.400227341399351 $274 $455 forward 7 unknown #
point $-1 -29.669737529733371 28.726764262184428 11.038154183155591 #
point $-1 -29.669737529733371 28.726764262184432 7.0522433075153685 #
edge $-1 $456 1 $456 0 $279 $-1 forward 7 unknown #
vertex $-1 $280 $457 #
ellipse-curve $-1 -45.45412937906616 23.847743914360585 6.0652978776340039 0 0.61566148304635926 0.78801074757464917 1 0 0 1 I I #
point $-1 -44.45412937906616 26.175897677728436 9.0451987453354938 #
edge $-1 $458 1 $458 0 $283 $-1 forward 7 unknown #
vertex $-1 $284 $459 #
ellipse-curve $-1 -39.534982435566363 23.847743914360585 6.0652978776340039 0 0.61566148304635926 0.78801074757464917 1 0 0 1 I I #
point $-1 -38.534982435566363 26.175897677728436 9.0451987453354938 #
edge $-1 $460 1 $460 0 $287 $-1 forward 7 unknown #
vertex $-1 $288 $461 #
ellipse-curve $-1 -33.615835492066566 23.847743914360585 6.0652978776340039 0 0.61566148304635926 0.78801074757464917 1 0 0 1 I I #
point $-1 -32.615835492066566 26.175897677728436 9.0451987453354938 #
plane-surface $-1 60.777001251258888 0 0 -1 0 0 0 0 1 forward_v I I I I #
coedge $-1 $296 $294 $298 $402 reversed $201 $-1 #
edge $-1 $309 -11.038154183155591 $404 11.038154183155591 $308 $462 forward 7 unknown #
vertex $-1 $402 $463 #
straight-curve $-1 -60.777001251258888 -28.726764262184428 0 0 0 -1 I I #
edge $-1 $400 -28.726764262184428 $404 28.726764262184428 $398 $464 forward 7 unknown #
straight-curve $-1 0 -28.726764262184428 -11.038154183155591 -1 0 0 I I #
vertex $-1 $301 $465 #
straight-curve $-1 0 28.726764262184428 -11.038154183155591 1 0 0 I I #
point $-1 60.777001251258888 28.726764262184428 -11.038154183155591 #
point $-1 60.777001251258888 -28.726764262184428 -11.038154183155591 #
straight-curve $-1 -60.777001251258888 0 11.038154183155591 0 -1 0 I I #
point $-1 -60.777001251258888 28.726764262184428 11.038154183155591 #
point $-1 -60.777001251258888 -28.726764262184428 11.038154183155591 #
straight-curve $-1 60.777001251258888 -28.726764262184428 0 0 0 -1 I I #
straight-curve $-1 60.777001251258888 28.726764262184428 0 0 0 -1 I I #
plane-surface $-1 0 -28.726764262184428 0 0 1 0 0 0 1 forward_v I I I I #
coedge $-1 $466 $321 $332 $425 reversed $220 $-1 #
coedge $-1 $321 $466 $336 $427 forward $220 $-1 #
edge $-1 $329 49.400227341399351 $467 60.777001251258888 $322 $468 forward 7 unknown #
straight-curve $-1 -49.400227341399351 28.726764262184428 4.3924051785777323 0 0 -1 I I #
coedge $-1 $332 $324 $327 $421 reversed $333 $-1 #
straight-curve $-1 -49.400227341399351 -28.726764262184428 4.3924051785777323 0 0 1 I I #
coedge $-1 $327 $326 $466 $469 forward $319 $-1 #
edge $-1 $470 -60.777001251258888 $328 -49.400227341399351 $418 $471 forward 7 unknown #
point $-1 -49.400227341399351 -28.726764262184428 11.038154183155589 #
point $-1 -49.400227341399351 28.726764262184428 11.038154183155589 #
straight-curve $-1 -60.777001251258888 0 6.5314665311553401 0 -1 0 I I #
edge $-1 $470 -11.038154183155591 $334 -6.5314665311553401 $414 $472 forward 7 unknown #
point $-1 -60.777001251258888 -28.726764262184428 6.5314665311553401 #
edge $-1 $467 -11.038154183155591 $337 -6.5314665311553401 $336 $473 forward 7 unknown #
point $-1 -60.777001251258888 28.726764262184428 6.5314665311553401 #
coedge $-1 $342 $350 $343 $431 forward $236 $-1 #
edge $-1 $433 -29.632736123616169 $351 -9.90224631195019 $342 $474 forward 7 unknown #
edge $-1 $437 -6.6457490045778567 $433 -2.6598381289376682 $429 $475 forward 7 unknown #
edge $-1 $348 23.625031093272451 $437 28.726764262184428 $347 $476 forward 7 unknown #
vertex $-1 $345 $477 #
straight-curve $-1 -49.400227341399351 -19.387389414006812 14.34896278431442 0 -0.78801074757464917 -0.61566148304635926 I I #
point $-1 -49.400227341399351 -23.625031093272451 11.038154183155591 #
point $-1 -29.669737529733371 -28.726764262184428 7.0522433075153996 #
vertex $-1 $354 $478 #
straight-curve $-1 0 -28.726764262184428 11.038154183155591 1 0 0 I I #
vertex $-1 $357 $479 #
point $-1 -44.45412937906616 -23.847743914360585 6.0652978776340039 #
vertex $-1 $361 $480 #
point $-1 -38.534982435566363 -23.847743914360585 6.0652978776340039 #
vertex $-1 $365 $481 #
point $-1 -32.615835492066566 -23.847743914360585 6.0652978776340039 #
coedge $-1 $446 $370 $371 $447 reversed $264 $-1 #
coedge $-1 $370 $445 $375 $451 reversed $264 $-1 #
edge $-1 $454 -28.726764262184428 $448 -23.625031093272408 $371 $482 forward 7 unknown #
vertex $-1 $374 $483 #
straight-curve $-1 -19.767491217783181 23.625031093272412 11.038154183155587 1 0 0 I I #
straight-curve $-1 -49.400227341399351 -3.2496095676378713 32.034925073094016 0 -0.78801074757464917 0.61566148304635926 I I #
edge $-1 $376 2.6598381289376283 $454 6.6457490045778567 $375 $484 forward 7 unknown #
point $-1 -49.400227341399351 28.726764262184428 7.0522433075153605 #
point $-1 -29.669737529733371 23.625031093272412 11.038154183155591 #
vertex $-1 $447 $485 #
straight-curve $-1 0 28.726764262184428 11.038154183155591 -1 0 0 I I #
vertex $-1 $385 $486 #
point $-1 -44.45412937906616 23.847743914360585 6.0652978776340039 #
vertex $-1 $389 $487 #
point $-1 -38.534982435566363 23.847743914360585 6.0652978776340039 #
vertex $-1 $393 $488 #
point $-1 -32.615835492066566 23.847743914360585 6.0652978776340039 #
straight-curve $-1 -60.777001251258888 28.726764262184428 0 0 0 -1 I I #
point $-1 -60.777001251258888 -28.726764262184428 -11.038154183155591 #
straight-curve $-1 -60.777001251258888 0 -11.038154183155591 0 1 0 I I #
point $-1 -60.777001251258888 28.726764262184428 -11.038154183155591 #
coedge $-1 $415 $414 $420 $469 reversed $220 $-1 #
vertex $-1 $416 $489 #
straight-curve $-1 0 28.726764262184428 11.038154183155591 -1 0 0 I I #
edge $-1 $467 -28.726764262184428 $470 28.726764262184428 $466 $490 forward 7 unknown #
vertex $-1 $469 $491 #
straight-curve $-1 0 -28.726764262184428 11.038154183155591 1 0 0 I I #
straight-curve $-1 -60.777001251258888 -28.726764262184428 0 0 0 -1 I I #
straight-curve $-1 -60.777001251258888 28.726764262184428 0 0 0 -1 I I #
straight-curve $-1 -19.767491217783181 -28.726764262184428 7.0522433075154005 1 0 0 I I #
straight-curve $-1 -49.400227341399351 -28.726764262184428 4.3924051785777323 0 0 -1 I I #
straight-curve $-1 -49.400227341399351 0 11.038154183155591 0 -1 0 I I #
point $-1 -49.400227341399351 -28.726764262184428 7.0522433075154005 #
point $-1 -49.400227341399351 -28.726764262184428 11.038154183155589 #
point $-1 -45.45412937906616 -23.232082431314225 5.2772871300593547 #
point $-1 -39.534982435566363 -23.232082431314225 5.2772871300593547 #
point $-1 -33.615835492066566 -23.232082431314225 5.2772871300593547 #
straight-curve $-1 -49.400227341399351 0 11.038154183155591 0 -1 0 I I #
point $-1 -49.400227341399351 23.625031093272408 11.038154183155591 #
straight-curve $-1 -49.400227341399351 28.726764262184428 4.3924051785777323 0 0 1 I I #
point $-1 -49.400227341399351 28.726764262184428 11.038154183155589 #
point $-1 -45.45412937906616 23.232082431314225 5.2772871300593547 #
point $-1 -39.534982435566363 23.232082431314225 5.2772871300593547 #
point $-1 -33.615835492066566 23.232082431314225 5.2772871300593547 #
point $-1 -60.777001251258888 28.726764262184428 11.038154183155591 #
straight-curve $-1 -60.777001251258888 0 11.038154183155591 0 -1 0 I I #
point $-1 -60.777001251258888 -28.726764262184428 11.038154183155591 #
End-of-ACIS-data 