500 0 7 0           
7 Unknown 11 ACIS 5.0 NT 24 Fri Mar 26 16:41:19 1999 
-1 9.9999999999999995e-007 1e-010 
body $-1 $7 $-1 $8 #
body $-1 $9 $-1 $10 #
body $-1 $11 $-1 $12 #
body $-1 $13 $-1 $14 #
body $-1 $15 $-1 $16 #
body $-1 $17 $-1 $18 #
body $-1 $19 $-1 $20 #
lump $-1 $-1 $21 $0 #
transform $-1 1 0 0 0 1 0 0 0 1 59.082613605151522 27.698164384069766 8.2933884880686932 1 rotate no_reflect no_shear #
lump $-1 $-1 $22 $1 #
transform $-1 1 0 0 0 1 0 0 0 1 59.082613605151522 27.698164384069766 8.2933884880686932 1 rotate no_reflect no_shear #
lump $-1 $-1 $23 $2 #
transform $-1 1 0 0 0 1 0 0 0 1 59.082613605151522 27.698164384069766 8.2933884880686932 1 rotate no_reflect no_shear #
lump $-1 $-1 $24 $3 #
transform $-1 1 0 0 0 1 0 0 0 1 59.082613605151522 27.698164384069766 8.2933884880686932 1 rotate no_reflect no_shear #
lump $-1 $-1 $25 $4 #
transform $-1 1 0 0 0 1 0 0 0 1 59.082613605151522 27.698164384069766 8.2933884880686932 1 rotate no_reflect no_shear #
lump $-1 $-1 $26 $5 #
transform $-1 1 0 0 0 1 0 0 0 1 59.082613605151522 27.698164384069766 8.2933884880686932 1 rotate no_reflect no_shear #
lump $-1 $-1 $27 $6 #
transform $-1 1 0 0 0 1 0 0 0 1 59.082613605151522 27.698164384069766 8.2933884880686932 1 rotate no_reflect no_shear #
shell $-1 $-1 $-1 $28 $-1 $7 #
shell $-1 $-1 $-1 $29 $-1 $9 #
shell $-1 $-1 $-1 $30 $-1 $11 #
shell $-1 $-1 $-1 $31 $-1 $13 #
shell $-1 $-1 $-1 $32 $-1 $15 #
shell $-1 $-1 $-1 $33 $-1 $17 #
shell $-1 $-1 $-1 $34 $-1 $19 #
face $-1 $35 $36 $21 $-1 $37 forward single #
face $-1 $38 $39 $22 $-1 $40 forward single #
face $-1 $41 $42 $23 $-1 $43 forward single #
face $-1 $44 $45 $24 $-1 $46 reversed single #
face $-1 $47 $48 $25 $-1 $49 forward single #
face $-1 $50 $51 $26 $-1 $52 reversed single #
face $-1 $53 $54 $27 $-1 $55 forward single #
face $-1 $56 $57 $21 $-1 $58 reversed single #
loop $-1 $-1 $59 $28 #
plane-surface $-1 0 0 8.2933884880686932 0 0 1 1 0 0 forward_v I I I I #
face $-1 $60 $61 $22 $-1 $62 reversed single #
loop $-1 $-1 $63 $29 #
plane-surface $-1 0 -23.867855052042639 4.1873196871496265 0 0 1 1 0 0 forward_v I I I I #
face $-1 $64 $65 $23 $-1 $66 reversed single #
loop $-1 $-1 $67 $30 #
plane-surface $-1 0 27.698164384069766 0 0 -1 0 0 0 -1 forward_v I I I I #
face $-1 $68 $69 $24 $-1 $70 reversed single #
loop $-1 $-1 $71 $31 #
plane-surface $-1 27.196358409357487 -10.400082758851404 165.08577463334541 0 1 0 0.55919291073839883 0 0.82903756765294845 forward_v I I I I #
face $-1 $72 $73 $25 $-1 $74 forward single #
loop $-1 $75 $76 $32 #
cone-surface $-1 53.121565746282691 -6.203943580737203 3.7973865143438084 -0.55919291073839883 0 -0.82903756765294845 0.82903756765294845 0 -0.55919291073839883 1 I I 0 1 1 forward I I I I #
face $-1 $77 $78 $26 $-1 $79 reversed single #
loop $-1 $-1 $80 $33 #
plane-surface $-1 -125.15977095694512 -10.400082758851404 99.008617281551807 0 1 0 -0.55919291073839883 0 0.82903756765294845 forward_v I I I I #
face $-1 $81 $82 $27 $-1 $83 forward single #
loop $-1 $84 $85 $34 #
cone-surface $-1 -53.121565746282691 -6.203943580737203 3.7973865143438084 0.55919291073839883 0 -0.82903756765294845 0.82903756765294845 0 0.55919291073839883 1 I I 0 1 1 forward I I I I #
face $-1 $86 $87 $21 $-1 $88 reversed single #
loop $-1 $-1 $89 $35 #
plane-surface $-1 0 0 -8.2933884880686932 0 0 1 1 0 0 forward_v I I I I #
coedge $-1 $90 $91 $92 $93 forward $36 $-1 #
face $-1 $94 $95 $22 $-1 $96 reversed single #
loop $-1 $-1 $97 $38 #
plane-surface $-1 0 -23.867855052042639 0.20415455173496433 0 0 1 1 0 0 forward_v I I I I #
coedge $-1 $98 $99 $100 $101 reversed $39 $-1 #
face $-1 $102 $103 $23 $-1 $104 forward single #
loop $-1 $-1 $105 $41 #
plane-surface $-1 -59.082613605151522 0 0 1 0 0 0 0 -1 forward_v I I I I #
coedge $-1 $106 $107 $108 $109 forward $42 $-1 #
face $-1 $110 $111 $24 $-1 $112 reversed single #
loop $-1 $-1 $113 $44 #
plane-surface $-1 -38.880798942436115 -6.203943580737203 67.122362085757771 0.55919291073839883 0 0.82903756765294845 0.82903756765294845 0 -0.55919291073839883 forward_v I I I I #
coedge $-1 $114 $115 $116 $117 reversed $45 $-1 #
face $-1 $-1 $118 $25 $-1 $119 forward single #
loop $-1 $120 $121 $47 #
cone-surface $-1 52.253858493665916 -6.203943580737203 2.5109576338447042 -0.55919291073839883 0 -0.82903756765294845 0.41451878382647422 0 -0.27959645536919941 1 I I -0.70710678118654746 0.70710678118654746 0.5 forward I I I I #
loop $-1 $-1 $122 $32 #
coedge $-1 $76 $76 $123 $124 reversed $48 $-1 #
face $-1 $125 $126 $26 $-1 $127 reversed single #
loop $-1 $-1 $128 $50 #
plane-surface $-1 -59.082613605151522 -6.203943580737203 1.0452047339641695 -0.55919291073839883 0 0.82903756765294845 0.82903756765294845 0 0.55919291073839883 forward_v I I I I #
coedge $-1 $129 $130 $131 $132 reversed $51 $-1 #
face $-1 $-1 $133 $27 $-1 $134 forward single #
loop $-1 $135 $136 $53 #
cone-surface $-1 -52.253858493665916 -6.203943580737203 2.5109576338447042 0.55919291073839883 0 -0.82903756765294845 0.41451878382647422 0 0.27959645536919941 1 I I -0.70710678118654746 0.70710678118654746 0.5 forward I I I I #
loop $-1 $-1 $137 $34 #
coedge $-1 $85 $85 $138 $139 reversed $54 $-1 #
face $-1 $140 $141 $21 $-1 $142 reversed single #
loop $-1 $-1 $143 $56 #
plane-surface $-1 0 -27.698164384069766 0 0 1 0 0 0 1 forward_v I I I I #
coedge $-1 $144 $145 $146 $147 forward $57 $-1 #
coedge $-1 $148 $59 $149 $150 forward $36 $-1 #
coedge $-1 $59 $148 $151 $152 forward $36 $-1 #
coedge $-1 $153 $154 $59 $93 reversed $155 $-1 #
edge $-1 $156 -27.698164384069766 $157 27.698164384069766 $92 $158 forward 7 unknown #
face $-1 $159 $160 $22 $-1 $161 reversed single #
loop $-1 $-1 $162 $60 #
plane-surface $-1 0 -20.037545720015512 2.1957371194422954 0 -1 0 0 0 -1 forward_v I I I I #
coedge $-1 $163 $164 $165 $166 reversed $61 $-1 #
coedge $-1 $167 $63 $168 $169 forward $39 $-1 #
coedge $-1 $63 $167 $170 $171 reversed $39 $-1 #
coedge $-1 $172 $173 $63 $101 forward $174 $-1 #
edge $-1 $175 8.1036181939941923 $176 15.764236858048447 $100 $177 forward 7 unknown #
face $-1 $178 $179 $23 $-1 $180 reversed single #
loop $-1 $-1 $181 $64 #
plane-surface $-1 0 31.239064399812765 7.1073400634877526 0 0 1 1 0 0 forward_v I I I I #
coedge $-1 $182 $183 $107 $184 forward $65 $-1 #
coedge $-1 $185 $67 $186 $187 reversed $42 $-1 #
coedge $-1 $67 $185 $105 $184 reversed $42 $-1 #
coedge $-1 $188 $189 $67 $109 reversed $179 $-1 #
edge $-1 $190 -59.082613605151522 $191 59.082613605151522 $108 $192 forward 7 unknown #
face $-1 $193 $194 $24 $-1 $195 forward single #
loop $-1 $-1 $196 $68 #
plane-surface $-1 27.196358409357487 -2.0078044026230017 165.08577463334541 0 -1 0 -0.55919291073839883 0 -0.82903756765294845 forward_v I I I I #
coedge $-1 $197 $198 $199 $200 reversed $69 $-1 #
coedge $-1 $115 $71 $201 $202 reversed $45 $-1 #
coedge $-1 $71 $114 $197 $203 reversed $45 $-1 #
coedge $-1 $199 $204 $71 $117 forward $205 $-1 #
edge $-1 $206 74.249498828604004 $207 81.497682582708535 $116 $208 forward 7 unknown #
loop $-1 $-1 $123 $72 #
plane-surface $-1 -38.880798942436115 -6.203943580737203 67.122362085757771 0.55919291073839883 0 0.82903756765294845 0.82903756765294845 0 -0.55919291073839883 forward_v I I I I #
loop $-1 $-1 $209 $47 #
coedge $-1 $121 $121 $122 $210 reversed $73 $-1 #
coedge $-1 $122 $122 $121 $210 forward $75 $-1 #
coedge $-1 $123 $123 $76 $124 forward $118 $-1 #
edge $-1 $211 0 $211 6.2831853071796004 $123 $212 forward 7 unknown #
face $-1 $213 $214 $26 $-1 $215 reversed single #
loop $-1 $-1 $216 $77 #
plane-surface $-1 -125.15977095694512 -2.0078044026230017 99.008617281551807 0 -1 0 0.55919291073839883 0 -0.82903756765294845 forward_v I I I I #
coedge $-1 $217 $218 $219 $220 reversed $78 $-1 #
coedge $-1 $130 $80 $221 $222 reversed $51 $-1 #
coedge $-1 $80 $129 $217 $223 reversed $51 $-1 #
coedge $-1 $219 $224 $80 $132 forward $225 $-1 #
edge $-1 $226 3.4972718733210399 $227 14.24314599656357 $131 $228 forward 7 unknown #
loop $-1 $-1 $138 $81 #
plane-surface $-1 -59.082613605151522 -6.203943580737203 1.0452047339641695 -0.55919291073839883 0 0.82903756765294845 0.82903756765294845 0 0.55919291073839883 forward_v I I I I #
loop $-1 $-1 $229 $53 #
coedge $-1 $136 $136 $137 $230 reversed $82 $-1 #
coedge $-1 $137 $137 $136 $230 forward $84 $-1 #
coedge $-1 $138 $138 $85 $139 forward $133 $-1 #
edge $-1 $231 0 $231 6.2831853071796004 $138 $232 forward 7 unknown #
face $-1 $233 $234 $21 $-1 $235 reversed single #
loop $-1 $-1 $236 $86 #
plane-surface $-1 -59.082613605151522 0 0 1 0 0 0 0 -1 forward_v I I I I #
coedge $-1 $237 $151 $238 $239 forward $87 $-1 #
coedge $-1 $240 $89 $237 $241 forward $57 $-1 #
coedge $-1 $89 $240 $242 $243 forward $57 $-1 #
coedge $-1 $154 $153 $89 $147 reversed $155 $-1 #
edge $-1 $244 -27.698164384069766 $245 27.698164384069766 $146 $246 forward 7 unknown #
coedge $-1 $91 $90 $247 $248 forward $36 $-1 #
coedge $-1 $249 $250 $90 $150 reversed $234 $-1 #
edge $-1 $157 -59.082613605151522 $251 59.082613605151522 $149 $252 forward 7 unknown #
coedge $-1 $143 $253 $91 $152 reversed $87 $-1 #
edge $-1 $254 -59.082613605151522 $156 59.082613605151522 $151 $255 forward 7 unknown #
coedge $-1 $146 $92 $253 $256 forward $155 $-1 #
coedge $-1 $92 $146 $249 $257 reversed $155 $-1 #
loop $-1 $-1 $153 $233 #
vertex $-1 $93 $258 #
vertex $-1 $93 $259 #
straight-curve $-1 59.082613605151522 0 8.2933884880686932 0 1 0 I I #
face $-1 $260 $261 $22 $-1 $262 reversed single #
loop $-1 $-1 $263 $94 #
plane-surface $-1 -59.082613605151522 0 0 1 0 0 0 0 -1 forward_v I I I I #
coedge $-1 $264 $168 $173 $265 reversed $95 $-1 #
coedge $-1 $266 $97 $267 $268 reversed $61 $-1 #
coedge $-1 $97 $266 $264 $269 forward $61 $-1 #
coedge $-1 $173 $172 $97 $166 forward $174 $-1 #
edge $-1 $270 -15.764236858048447 $271 -8.1036181939941923 $165 $272 forward 7 unknown #
coedge $-1 $99 $98 $263 $273 reversed $39 $-1 #
coedge $-1 $162 $274 $98 $169 reversed $95 $-1 #
edge $-1 $175 -59.082613605151522 $275 59.082613605151522 $168 $276 forward 7 unknown #
coedge $-1 $277 $278 $99 $171 forward $261 $-1 #
edge $-1 $176 -59.082613605151522 $279 59.082613605151522 $170 $280 forward 7 unknown #
coedge $-1 $165 $100 $278 $281 forward $174 $-1 #
coedge $-1 $100 $165 $162 $265 forward $174 $-1 #
loop $-1 $-1 $100 $260 #
vertex $-1 $101 $282 #
vertex $-1 $281 $283 #
straight-curve $-1 59.082613605151522 -11.93392752602132 4.1873196871496265 0 -1 0 I I #
face $-1 $284 $285 $23 $-1 $286 reversed single #
loop $-1 $-1 $189 $102 #
plane-surface $-1 0 31.239064399812765 3.5183051369301896 0 0 1 1 0 0 forward_v I I I I #
coedge $-1 $287 $288 $289 $290 forward $103 $-1 #
coedge $-1 $291 $105 $292 $293 reversed $65 $-1 #
coedge $-1 $105 $291 $188 $294 reversed $65 $-1 #
edge $-1 $190 3.5183051369301896 $295 7.1073400634877526 $105 $296 forward 7 unknown #
coedge $-1 $107 $106 $288 $297 forward $42 $-1 #
coedge $-1 $298 $289 $106 $187 forward $299 $-1 #
edge $-1 $300 -7.1073400634877526 $191 -3.5183051369301896 $186 $301 forward 7 unknown #
coedge $-1 $302 $108 $183 $294 forward $179 $-1 #
coedge $-1 $108 $302 $298 $303 forward $179 $-1 #
vertex $-1 $184 $304 #
vertex $-1 $187 $305 #
straight-curve $-1 0 27.698164384069766 3.5183051369301896 1 0 0 I I #
face $-1 $-1 $205 $24 $-1 $306 reversed single #
loop $-1 $-1 $307 $110 #
plane-surface $-1 0 0 8.2933884880686932 0 0 1 1 0 0 forward_v I I I I #
coedge $-1 $308 $309 $310 $311 reversed $111 $-1 #
coedge $-1 $312 $113 $115 $203 forward $69 $-1 #
coedge $-1 $113 $312 $308 $313 forward $69 $-1 #
coedge $-1 $310 $116 $113 $200 forward $205 $-1 #
edge $-1 $207 -7.2981109684828027 $314 1.0941673877455997 $199 $315 forward 7 unknown #
coedge $-1 $316 $317 $114 $202 forward $194 $-1 #
edge $-1 $318 34.738560277230249 $206 45.484434400472779 $201 $319 forward 7 unknown #
edge $-1 $207 -118.16522721030304 $318 -105.20336089384082 $115 $320 forward 7 unknown #
coedge $-1 $116 $310 $316 $321 reversed $205 $-1 #
loop $-1 $-1 $310 $193 #
vertex $-1 $321 $322 #
vertex $-1 $117 $323 #
straight-curve $-1 59.082613605151522 -10.400082758851404 82.542887316672704 0 0 -1 I I #
coedge $-1 $209 $209 $-1 $324 reversed $120 $-1 #
edge $-1 $325 0 $325 6.2831853071796004 $121 $326 forward 7 unknown #
vertex $-1 $124 $327 #
ellipse-curve $-1 53.709676543530257 -6.203943580737203 4.6692966110164198 0.55919291073839883 0 0.82903756765294845 0.82903756765294845 0 -0.55919291073839883 1 I I #
face $-1 $-1 $225 $26 $-1 $328 forward single #
loop $-1 $-1 $329 $125 #
plane-surface $-1 -59.082613605151522 0 0 1 0 0 0 0 -1 forward_v I I I I #
coedge $-1 $330 $331 $332 $333 reversed $126 $-1 #
coedge $-1 $334 $128 $130 $223 forward $78 $-1 #
coedge $-1 $128 $334 $330 $335 forward $78 $-1 #
coedge $-1 $332 $131 $128 $220 forward $225 $-1 #
edge $-1 $227 -7.2981109684828027 $336 1.0941673877455997 $219 $337 forward 7 unknown #
coedge $-1 $338 $339 $129 $222 forward $214 $-1 #
edge $-1 $340 -48.459103906811734 $226 -41.21092015270721 $221 $341 forward 7 unknown #
edge $-1 $227 -12.961866316462231 $340 0 $130 $342 forward 7 unknown #
coedge $-1 $131 $332 $338 $343 forward $225 $-1 #
loop $-1 $-1 $332 $213 #
vertex $-1 $222 $344 #
vertex $-1 $132 $345 #
straight-curve $-1 -62.579885478472562 -10.400082758851404 8.2933884880686932 1 0 0 I I #
coedge $-1 $229 $229 $-1 $346 reversed $135 $-1 #
edge $-1 $347 0 $347 6.2831853071796004 $136 $348 forward 7 unknown #
vertex $-1 $139 $349 #
ellipse-curve $-1 -53.709676543530257 -6.203943580737203 4.6692966110164287 -0.55919291073839883 0 0.82903756765294845 0.82903756765294845 0 0.55919291073839883 1 I I #
face $-1 $-1 $155 $21 $-1 $350 reversed single #
loop $-1 $-1 $249 $140 #
plane-surface $-1 0 27.698164384069766 0 0 -1 0 0 0 -1 forward_v I I I I #
coedge $-1 $351 $247 $250 $352 forward $141 $-1 #
coedge $-1 $253 $143 $144 $241 reversed $87 $-1 #
coedge $-1 $247 $351 $143 $239 reversed $141 $-1 #
edge $-1 $254 -8.2933884880686932 $353 8.2933884880686932 $238 $354 forward 7 unknown #
coedge $-1 $145 $144 $351 $355 forward $57 $-1 #
edge $-1 $245 -59.082613605151522 $353 59.082613605151522 $237 $356 forward 7 unknown #
coedge $-1 $250 $249 $145 $243 reversed $234 $-1 #
edge $-1 $357 -59.082613605151522 $244 59.082613605151522 $242 $358 forward 7 unknown #
vertex $-1 $147 $359 #
vertex $-1 $256 $360 #
straight-curve $-1 59.082613605151522 0 -8.2933884880686932 0 -1 0 I I #
coedge $-1 $236 $238 $148 $248 reversed $141 $-1 #
edge $-1 $251 -27.698164384069766 $254 27.698164384069766 $247 $361 forward 7 unknown #
coedge $-1 $242 $149 $154 $257 forward $234 $-1 #
coedge $-1 $149 $242 $236 $352 reversed $234 $-1 #
vertex $-1 $150 $362 #
straight-curve $-1 0 27.698164384069766 8.2933884880686932 -1 0 0 I I #
coedge $-1 $151 $237 $153 $256 reversed $87 $-1 #
vertex $-1 $248 $363 #
straight-curve $-1 0 -27.698164384069766 8.2933884880686932 1 0 0 I I #
edge $-1 $156 -8.2933884880686932 $245 8.2933884880686932 $153 $364 forward 7 unknown #
edge $-1 $157 -8.2933884880686932 $244 8.2933884880686932 $154 $365 forward 7 unknown #
point $-1 59.082613605151522 -27.698164384069766 8.2933884880686932 #
point $-1 59.082613605151522 27.698164384069766 8.2933884880686932 #
face $-1 $-1 $174 $22 $-1 $366 reversed single #
loop $-1 $-1 $170 $159 #
plane-surface $-1 0 -27.698164384069766 0 0 1 0 0 0 1 forward_v I I I I #
coedge $-1 $367 $368 $167 $273 forward $160 $-1 #
coedge $-1 $274 $162 $164 $269 reversed $95 $-1 #
edge $-1 $271 -0.89371400798618339 $175 3.0894511274284788 $173 $369 forward 7 unknown #
coedge $-1 $164 $163 $370 $371 reversed $61 $-1 #
coedge $-1 $278 $277 $163 $268 forward $261 $-1 #
edge $-1 $372 -59.082613605151522 $270 59.082613605151522 $267 $373 forward 7 unknown #
edge $-1 $374 -59.082613605151522 $271 59.082613605151522 $264 $375 forward 7 unknown #
vertex $-1 $268 $376 #
vertex $-1 $166 $377 #
straight-curve $-1 59.082613605151522 -11.93392752602132 0.20415455173496433 0 1 0 I I #
edge $-1 $279 -15.764236858048447 $275 -8.1036181939941923 $263 $378 forward 7 unknown #
coedge $-1 $168 $264 $367 $379 reversed $95 $-1 #
vertex $-1 $273 $380 #
straight-curve $-1 0 -20.037545720015512 4.1873196871496265 -1 0 0 I I #
coedge $-1 $267 $170 $368 $381 forward $261 $-1 #
coedge $-1 $170 $267 $172 $281 reversed $261 $-1 #
vertex $-1 $381 $382 #
straight-curve $-1 0 -27.698164384069766 4.1873196871496265 -1 0 0 I I #
edge $-1 $176 -4.1873196871496265 $270 -0.20415455173496433 $172 $383 forward 7 unknown #
point $-1 59.082613605151522 -20.037545720015512 4.1873196871496265 #
point $-1 59.082613605151522 -27.698164384069766 4.1873196871496265 #
face $-1 $-1 $299 $23 $-1 $384 reversed single #
loop $-1 $-1 $385 $178 #
plane-surface $-1 0 34.77996441555576 5.3128226002089711 0 -1 0 0 0 -1 forward_v I I I I #
coedge $-1 $292 $181 $386 $387 forward $103 $-1 #
coedge $-1 $181 $292 $185 $297 reversed $103 $-1 #
coedge $-1 $186 $388 $181 $290 reversed $299 $-1 #
edge $-1 $300 -3.5409000157429951 $389 3.5409000157429951 $289 $390 forward 7 unknown #
coedge $-1 $183 $182 $391 $392 forward $65 $-1 #
coedge $-1 $288 $287 $182 $293 forward $103 $-1 #
edge $-1 $393 -3.5409000157429951 $295 3.5409000157429951 $182 $394 forward 7 unknown #
edge $-1 $190 -3.5409000157429951 $395 3.5409000157429951 $183 $396 forward 7 unknown #
vertex $-1 $293 $397 #
straight-curve $-1 -59.082613605151522 27.698164384069766 0 0 0 1 I I #
edge $-1 $300 -59.082613605151522 $295 59.082613605151522 $288 $398 forward 7 unknown #
coedge $-1 $388 $186 $189 $303 reversed $299 $-1 #
loop $-1 $-1 $186 $284 #
vertex $-1 $187 $399 #
straight-curve $-1 59.082613605151522 27.698164384069766 0 0 0 -1 I I #
coedge $-1 $189 $188 $400 $401 forward $179 $-1 #
edge $-1 $402 -3.5409000157429951 $191 3.5409000157429951 $298 $403 forward 7 unknown #
point $-1 -59.082613605151522 27.69816438406977 3.5183051369301896 #
point $-1 59.082613605151522 27.69816438406977 3.5183051369301896 #
plane-surface $-1 59.082613605151522 0 0 -1 0 0 0 0 1 forward_v I I I I #
coedge $-1 $317 $316 $309 $404 forward $194 $-1 #
coedge $-1 $309 $196 $198 $313 reversed $111 $-1 #
coedge $-1 $196 $308 $307 $404 reversed $111 $-1 #
coedge $-1 $204 $199 $196 $311 forward $205 $-1 #
edge $-1 $314 -81.497682582708535 $405 -74.249498828604004 $310 $406 forward 7 unknown #
coedge $-1 $198 $197 $317 $407 reversed $69 $-1 #
edge $-1 $408 105.20336089384082 $314 118.16522721030304 $308 $409 forward 7 unknown #
vertex $-1 $200 $410 #
straight-curve $-1 59.082613605151522 -3.1019717903686015 1.0452047339641624 0 1 0 I I #
coedge $-1 $307 $201 $204 $321 forward $194 $-1 #
coedge $-1 $201 $307 $312 $407 forward $194 $-1 #
vertex $-1 $202 $411 #
straight-curve $-1 13.598179204678743 -10.400082758851404 8.2933884880686861 1 0 0 I I #
straight-curve $-1 -38.880798942436115 -10.400082758851404 67.122362085757771 -0.82903756765294845 0 0.55919291073839883 I I #
edge $-1 $206 -10.400082758851404 $405 -2.0078044026230017 $204 $412 forward 7 unknown #
point $-1 59.082613605151522 -10.400082758851404 8.2933884880686932 #
point $-1 59.082613605151522 -10.400082758851404 1.0452047339641695 #
edge $-1 $413 1 $413 0 $209 $-1 forward 7 unknown #
vertex $-1 $210 $414 #
ellipse-curve $-1 52.533454949035118 -6.203943580737203 2.9254764176711783 0.55919291073839883 0 0.82903756765294845 0.82903756765294845 0 -0.55919291073839883 1 I I #
point $-1 54.538714111183218 -6.203943580737203 4.1101037002780405 #
plane-surface $-1 0 0 8.2933884880686932 0 0 1 1 0 0 forward_v I I I I #
coedge $-1 $339 $338 $331 $415 forward $214 $-1 #
coedge $-1 $331 $216 $218 $335 reversed $126 $-1 #
coedge $-1 $216 $330 $329 $415 reversed $126 $-1 #
coedge $-1 $224 $219 $216 $333 forward $225 $-1 #
edge $-1 $336 -14.24314599656357 $416 -3.4972718733210399 $332 $417 forward 7 unknown #
coedge $-1 $218 $217 $339 $418 reversed $78 $-1 #
edge $-1 $419 0 $336 12.961866316462231 $330 $420 forward 7 unknown #
vertex $-1 $220 $421 #
straight-curve $-1 -48.336739481908992 -3.1019717903686015 8.2933884880686914 0 1 0 I I #
coedge $-1 $329 $221 $224 $343 reversed $214 $-1 #
coedge $-1 $221 $329 $334 $418 forward $214 $-1 #
vertex $-1 $222 $422 #
straight-curve $-1 -59.082613605151522 -10.400082758851404 49.504308640775903 0 0 1 I I #
straight-curve $-1 -59.082613605151522 -10.400082758851404 1.0452047339641695 -0.82903756765294845 0 -0.55919291073839883 I I #
edge $-1 $416 2.0078044026230017 $226 10.400082758851404 $338 $423 forward 7 unknown #
point $-1 -59.082613605151522 -10.400082758851404 8.2933884880686932 #
point $-1 -48.336739481908992 -10.400082758851404 8.2933884880686932 #
edge $-1 $424 1 $424 0 $229 $-1 forward 7 unknown #
vertex $-1 $230 $425 #
ellipse-curve $-1 -52.533454949035118 -6.203943580737203 2.9254764176711783 -0.55919291073839883 0 0.82903756765294845 0.82903756765294845 0 0.55919291073839883 1 I I #
point $-1 -52.880638975877318 -6.203943580737203 5.2284895217548382 #
plane-surface $-1 59.082613605151522 0 0 -1 0 0 0 0 1 forward_v I I I I #
coedge $-1 $238 $236 $240 $355 reversed $141 $-1 #
edge $-1 $251 -8.2933884880686932 $357 8.2933884880686932 $250 $426 forward 7 unknown #
vertex $-1 $355 $427 #
straight-curve $-1 -59.082613605151522 -27.698164384069766 0 0 0 -1 I I #
edge $-1 $353 -27.698164384069766 $357 27.698164384069766 $351 $428 forward 7 unknown #
straight-curve $-1 0 -27.698164384069766 -8.2933884880686932 -1 0 0 I I #
vertex $-1 $243 $429 #
straight-curve $-1 0 27.698164384069766 -8.2933884880686932 1 0 0 I I #
point $-1 59.082613605151522 27.698164384069766 -8.2933884880686932 #
point $-1 59.082613605151522 -27.698164384069766 -8.2933884880686932 #
straight-curve $-1 -59.082613605151522 0 8.2933884880686932 0 -1 0 I I #
point $-1 -59.082613605151522 27.698164384069766 8.2933884880686932 #
point $-1 -59.082613605151522 -27.698164384069766 8.2933884880686932 #
straight-curve $-1 59.082613605151522 -27.698164384069766 0 0 0 -1 I I #
straight-curve $-1 59.082613605151522 27.698164384069766 0 0 0 -1 I I #
plane-surface $-1 59.082613605151522 0 0 -1 0 0 0 0 1 forward_v I I I I #
coedge $-1 $370 $263 $274 $379 forward $160 $-1 #
coedge $-1 $263 $370 $277 $381 reversed $160 $-1 #
straight-curve $-1 59.082613605151522 -20.037545720015512 1.0978685597211477 0 0 1 I I #
coedge $-1 $368 $367 $266 $371 forward $160 $-1 #
edge $-1 $374 8.1036181939941923 $372 15.764236858048447 $370 $430 forward 7 unknown #
vertex $-1 $268 $431 #
straight-curve $-1 0 -27.698164384069766 0.20415455173496433 1 0 0 I I #
vertex $-1 $371 $432 #
straight-curve $-1 0 -20.037545720015512 0.20415455173496433 1 0 0 I I #
point $-1 59.082613605151522 -27.698164384069766 0.20415455173496433 #
point $-1 59.082613605151522 -20.037545720015512 0.20415455173496433 #
straight-curve $-1 -59.082613605151522 -11.93392752602132 4.1873196871496265 0 1 0 I I #
edge $-1 $275 -3.0894511274284788 $374 0.89371400798618339 $367 $433 forward 7 unknown #
point $-1 -59.082613605151522 -20.037545720015512 4.1873196871496265 #
edge $-1 $279 -4.1873196871496265 $372 -0.20415455173496433 $368 $434 forward 7 unknown #
point $-1 -59.082613605151522 -27.698164384069766 4.1873196871496265 #
straight-curve $-1 59.082613605151522 -27.698164384069766 0 0 0 -1 I I #
plane-surface $-1 59.082613605151522 0 0 -1 0 0 0 0 1 forward_v I I I I #
coedge $-1 $400 $386 $388 $435 forward $285 $-1 #
coedge $-1 $385 $391 $287 $387 reversed $285 $-1 #
edge $-1 $389 -59.082613605151522 $393 59.082613605151522 $386 $436 forward 7 unknown #
coedge $-1 $289 $298 $385 $435 reversed $299 $-1 #
vertex $-1 $290 $437 #
straight-curve $-1 59.082613605151522 31.239064399812765 7.1073400634877526 0 1 0 I I #
coedge $-1 $386 $400 $291 $392 reversed $285 $-1 #
edge $-1 $393 -1.7945174632787815 $395 1.7945174632787815 $391 $438 forward 7 unknown #
vertex $-1 $387 $439 #
straight-curve $-1 -59.082613605151522 31.239064399812765 7.1073400634877526 0 -1 0 I I #
vertex $-1 $401 $440 #
straight-curve $-1 -59.082613605151522 31.239064399812765 3.5183051369301896 0 1 0 I I #
point $-1 -59.082613605151522 27.69816438406977 7.1073400634877526 #
straight-curve $-1 0 27.698164384069766 7.1073400634877526 -1 0 0 I I #
point $-1 59.082613605151522 27.69816438406977 7.1073400634877526 #
coedge $-1 $391 $385 $302 $401 reversed $285 $-1 #
edge $-1 $395 -59.082613605151522 $402 59.082613605151522 $400 $441 forward 7 unknown #
vertex $-1 $303 $442 #
straight-curve $-1 59.082613605151522 31.239064399812765 3.5183051369301896 0 -1 0 I I #
edge $-1 $405 -45.484434400472779 $408 -34.738560277230249 $307 $443 forward 7 unknown #
vertex $-1 $311 $444 #
straight-curve $-1 59.082613605151522 -2.0078044026230017 82.542887316672704 0 0 1 I I #
edge $-1 $408 -1.0941673877455997 $318 7.2981109684828027 $317 $445 forward 7 unknown #
vertex $-1 $407 $446 #
straight-curve $-1 -38.880798942436115 -2.0078044026230017 67.122362085757771 0.82903756765294845 0 -0.55919291073839883 I I #
point $-1 59.082613605151522 -2.0078044026230017 1.0452047339641695 #
point $-1 48.336739481908992 -10.400082758851404 8.2933884880686861 #
straight-curve $-1 59.082613605151522 0 8.2933884880686932 0 1 0 I I #
vertex $-1 $324 $447 #
point $-1 53.362492516688064 -6.203943580737203 2.3662835069327794 #
edge $-1 $416 41.21092015270721 $419 48.459103906811734 $329 $448 forward 7 unknown #
vertex $-1 $343 $449 #
straight-curve $-1 -62.579885478472562 -2.0078044026230017 8.2933884880686932 -1 0 0 I I #
edge $-1 $419 -1.0941673877455997 $340 7.2981109684828027 $339 $450 forward 7 unknown #
vertex $-1 $418 $451 #
straight-curve $-1 -59.082613605151522 -2.0078044026230017 1.0452047339641695 0.82903756765294845 0 0.55919291073839883 I I #
point $-1 -48.336739481908992 -2.0078044026230017 8.2933884880686932 #
point $-1 -59.082613605151522 -10.400082758851404 1.0452047339641695 #
straight-curve $-1 -59.082613605151522 0 8.2933884880686932 0 -1 0 I I #
vertex $-1 $346 $452 #
point $-1 -51.704417381382164 -6.203943580737203 3.4846693284095771 #
straight-curve $-1 -59.082613605151522 27.698164384069766 0 0 0 -1 I I #
point $-1 -59.082613605151522 -27.698164384069766 -8.2933884880686932 #
straight-curve $-1 -59.082613605151522 0 -8.2933884880686932 0 1 0 I I #
point $-1 -59.082613605151522 27.698164384069766 -8.2933884880686932 #
straight-curve $-1 -59.082613605151522 -11.93392752602132 0.20415455173496433 0 -1 0 I I #
point $-1 -59.082613605151522 -27.698164384069766 0.20415455173496433 #
point $-1 -59.082613605151522 -20.037545720015512 0.20415455173496433 #
straight-curve $-1 -59.082613605151522 -20.037545720015512 1.0978685597211477 0 0 -1 I I #
straight-curve $-1 -59.082613605151522 -27.698164384069766 0 0 0 -1 I I #
edge $-1 $389 -1.7945174632787815 $402 1.7945174632787815 $388 $453 forward 7 unknown #
straight-curve $-1 0 34.77996441555576 7.1073400634877526 -1 0 0 I I #
point $-1 59.082613605151522 34.77996441555576 7.1073400634877526 #
straight-curve $-1 -59.082613605151522 34.77996441555576 5.3128226002089711 0 0 -1 I I #
point $-1 -59.082613605151522 34.77996441555576 7.1073400634877526 #
point $-1 -59.082613605151522 34.77996441555576 3.5183051369301896 #
straight-curve $-1 0 34.77996441555576 3.5183051369301896 1 0 0 I I #
point $-1 59.082613605151522 34.77996441555576 3.5183051369301896 #
straight-curve $-1 13.598179204678743 -2.0078044026230017 8.2933884880686861 -1 0 0 I I #
point $-1 59.082613605151522 -2.0078044026230017 8.2933884880686932 #
straight-curve $-1 48.336739481908992 -3.1019717903686015 8.2933884880686861 0 -1 0 I I #
point $-1 48.336739481908992 -2.0078044026230017 8.2933884880686861 #
point $-1 51.974262038296715 -6.203943580737203 2.09643885001823 #
straight-curve $-1 -59.082613605151522 -2.0078044026230017 49.504308640775903 0 0 -1 I I #
point $-1 -59.082613605151522 -2.0078044026230017 8.2933884880686932 #
straight-curve $-1 -59.082613605151522 -3.1019717903686015 1.0452047339641697 0 -1 0 I I #
point $-1 -59.082613605151522 -2.0078044026230017 1.0452047339641695 #
point $-1 -51.974262038296715 -6.203943580737203 2.09643885001823 #
straight-curve $-1 59.082613605151522 34.77996441555576 5.3128226002089711 0 0 -1 I I #
End-of-ACIS-data 