500 0 13 0           
7 Unknown 11 ACIS 5.0 NT 24 Thu Mar 25 17:59:43 1999 
-1 9.9999999999999995e-007 1e-010 
body $-1 $13 $-1 $14 #
body $-1 $15 $-1 $16 #
body $-1 $17 $-1 $18 #
body $-1 $19 $-1 $20 #
body $-1 $21 $-1 $22 #
body $-1 $23 $-1 $24 #
body $-1 $25 $-1 $26 #
body $-1 $27 $-1 $28 #
body $-1 $29 $-1 $30 #
body $-1 $31 $-1 $32 #
body $-1 $33 $-1 $34 #
body $-1 $35 $-1 $36 #
body $-1 $37 $-1 $38 #
lump $-1 $-1 $39 $0 #
transform $-1 1 0 0 0 1 0 0 0 1 51.661732840968043 33.709804911226826 11.320823853392813 1 rotate no_reflect no_shear #
lump $-1 $-1 $40 $1 #
transform $-1 1 0 0 0 1 0 0 0 1 51.661732840968043 33.709804911226826 11.320823853392813 1 rotate no_reflect no_shear #
lump $-1 $-1 $41 $2 #
transform $-1 1 0 0 0 1 0 0 0 1 51.661732840968043 33.709804911226826 11.320823853392813 1 rotate no_reflect no_shear #
lump $-1 $-1 $42 $3 #
transform $-1 1 0 0 0 1 0 0 0 1 51.661732840968043 33.709804911226826 11.320823853392813 1 rotate no_reflect no_shear #
lump $-1 $-1 $43 $4 #
transform $-1 1 0 0 0 1 0 0 0 1 51.661732840968043 33.709804911226826 11.320823853392813 1 rotate no_reflect no_shear #
lump $-1 $-1 $44 $5 #
transform $-1 1 0 0 0 1 0 0 0 1 51.661732840968043 33.709804911226826 11.320823853392813 1 rotate no_reflect no_shear #
lump $-1 $-1 $45 $6 #
transform $-1 1 0 0 0 1 0 0 0 1 51.661732840968043 33.709804911226826 11.320823853392813 1 rotate no_reflect no_shear #
lump $-1 $-1 $46 $7 #
transform $-1 1 0 0 0 1 0 0 0 1 51.661732840968043 33.709804911226826 11.320823853392813 1 rotate no_reflect no_shear #
lump $-1 $-1 $47 $8 #
transform $-1 1 0 0 0 1 0 0 0 1 51.661732840968043 33.709804911226826 11.320823853392813 1 rotate no_reflect no_shear #
lump $-1 $-1 $48 $9 #
transform $-1 1 0 0 0 1 0 0 0 1 51.661732840968043 33.709804911226826 11.320823853392813 1 rotate no_reflect no_shear #
lump $-1 $-1 $49 $10 #
transform $-1 1 0 0 0 1 0 0 0 1 51.661732840968043 33.709804911226826 11.320823853392813 1 rotate no_reflect no_shear #
lump $-1 $-1 $50 $11 #
transform $-1 1 0 0 0 1 0 0 0 1 51.661732840968043 33.709804911226826 11.320823853392813 1 rotate no_reflect no_shear #
lump $-1 $-1 $51 $12 #
transform $-1 1 0 0 0 1 0 0 0 1 51.661732840968043 33.709804911226826 11.320823853392813 1 rotate no_reflect no_shear #
shell $-1 $-1 $-1 $52 $-1 $13 #
shell $-1 $-1 $-1 $53 $-1 $15 #
shell $-1 $-1 $-1 $54 $-1 $17 #
shell $-1 $-1 $-1 $55 $-1 $19 #
shell $-1 $-1 $-1 $56 $-1 $21 #
shell $-1 $-1 $-1 $57 $-1 $23 #
shell $-1 $-1 $-1 $58 $-1 $25 #
shell $-1 $-1 $-1 $59 $-1 $27 #
shell $-1 $-1 $-1 $60 $-1 $29 #
shell $-1 $-1 $-1 $61 $-1 $31 #
shell $-1 $-1 $-1 $62 $-1 $33 #
shell $-1 $-1 $-1 $63 $-1 $35 #
shell $-1 $-1 $-1 $64 $-1 $37 #
face $-1 $65 $66 $39 $-1 $67 forward single #
face $-1 $68 $69 $40 $-1 $70 reversed single #
face $-1 $71 $72 $41 $-1 $73 forward single #
face $-1 $74 $75 $42 $-1 $76 reversed single #
face $-1 $77 $78 $43 $-1 $79 forward single #
face $-1 $80 $81 $44 $-1 $82 forward single #
face $-1 $83 $84 $45 $-1 $85 forward single #
face $-1 $86 $87 $46 $-1 $88 reversed single #
face $-1 $89 $90 $47 $-1 $91 forward single #
face $-1 $92 $93 $48 $-1 $94 forward single #
face $-1 $95 $96 $49 $-1 $97 forward single #
face $-1 $98 $99 $50 $-1 $100 reversed single #
face $-1 $101 $102 $51 $-1 $103 forward single #
face $-1 $104 $105 $39 $-1 $106 reversed single #
loop $-1 $-1 $107 $52 #
plane-surface $-1 0 0 11.320823853392813 0 0 1 1 0 0 forward_v I I I I #
face $-1 $108 $109 $40 $-1 $110 forward single #
loop $-1 $-1 $111 $53 #
plane-surface $-1 0 -25.005806058015189 7.9997439335583849 0 -1 0 0 0 -1 forward_v I I I I #
face $-1 $112 $113 $41 $-1 $114 reversed single #
loop $-1 $-1 $115 $54 #
plane-surface $-1 0 29.357805484621011 9.4997439335583849 0 0 1 1 0 0 forward_v I I I I #
face $-1 $116 $117 $42 $-1 $118 reversed single #
loop $-1 $-1 $119 $55 #
plane-surface $-1 -129.64094310934854 -12.977616736255319 70.570734269884213 0 -1 0 0.75470958851134928 0 -0.65605901945558964 forward_v I I I I #
face $-1 $120 $121 $43 $-1 $122 forward single #
loop $-1 $123 $124 $56 #
cone-surface $-1 -47.574096673304624 -22.600168193663215 6.7246037608885967 0.75470958851134928 0 -0.65605901945558964 0.32802950972779482 0 0.37735479425567464 1 I I 0 1 0.5 forward I I I I #
face $-1 $125 $126 $44 $-1 $127 forward single #
loop $-1 $128 $129 $57 #
cone-surface $-1 -47.574096673304624 -18.991711397135255 6.7246037608885967 0.75470958851134928 0 -0.65605901945558964 0.32802950972779482 0 0.37735479425567464 1 I I 0 1 0.5 forward I I I I #
face $-1 $130 $131 $45 $-1 $132 forward single #
loop $-1 $133 $134 $58 #
cone-surface $-1 -47.574096673304624 -15.383254600607291 6.7246037608885967 0.75470958851134928 0 -0.65605901945558964 0.32802950972779482 0 0.37735479425567464 1 I I 0 1 0.5 forward I I I I #
face $-1 $135 $136 $46 $-1 $137 reversed single #
loop $-1 $-1 $138 $59 #
plane-surface $-1 -129.64094310934854 12.977616736255319 70.570734269884213 0 1 0 -0.75470958851134928 0 0.65605901945558964 forward_v I I I I #
face $-1 $139 $140 $47 $-1 $141 forward single #
loop $-1 $142 $143 $60 #
cone-surface $-1 -47.574096673304624 15.383254600607295 6.7246037608885967 0.75470958851134928 0 -0.65605901945558964 0.32802950972779482 0 0.37735479425567464 1 I I 0 1 0.5 forward I I I I #
face $-1 $144 $145 $48 $-1 $146 forward single #
loop $-1 $147 $148 $61 #
cone-surface $-1 -47.574096673304624 18.991711397135255 6.7246037608885967 0.75470958851134928 0 -0.65605901945558964 0.32802950972779482 0 0.37735479425567464 1 I I 0 1 0.5 forward I I I I #
face $-1 $149 $150 $49 $-1 $151 forward single #
loop $-1 $152 $153 $62 #
cone-surface $-1 -47.574096673304624 22.600168193663222 6.7246037608885967 0.75470958851134928 0 -0.65605901945558964 0.32802950972779482 0 0.37735479425567464 1 I I 0 1 0.5 forward I I I I #
face $-1 $154 $155 $50 $-1 $156 reversed single #
loop $-1 $-1 $157 $63 #
plane-surface $-1 87.011712317687127 3.0007591527099002 144.68430070399685 0 -1 0 -0.85716730853699208 0 -0.51503806187062418 forward_v I I I I #
face $-1 $158 $159 $51 $-1 $160 forward single #
loop $-1 $161 $162 $64 #
cone-surface $-1 47.683431809115767 -0.27992136527945632 6.2411570563651182 -0.85716730853699208 0 -0.51503806187062418 0.77255709280593621 0 -1.2857509628054882 1 I I 0 1 1.5 forward I I I I #
face $-1 $163 $164 $39 $-1 $165 reversed single #
loop $-1 $-1 $166 $65 #
plane-surface $-1 0 0 -11.320823853392813 0 0 1 1 0 0 forward_v I I I I #
coedge $-1 $167 $168 $169 $170 forward $66 $-1 #
face $-1 $171 $172 $40 $-1 $173 reversed single #
loop $-1 $-1 $174 $68 #
plane-surface $-1 0 -29.357805484621007 9.4997439335583849 0 0 1 1 0 0 forward_v I I I I #
coedge $-1 $175 $176 $177 $178 reversed $69 $-1 #
face $-1 $179 $180 $41 $-1 $181 reversed single #
loop $-1 $-1 $182 $71 #
plane-surface $-1 0 29.357805484621011 6.4997439335583849 0 0 1 1 0 0 forward_v I I I I #
coedge $-1 $183 $184 $185 $186 reversed $72 $-1 #
face $-1 $187 $188 $42 $-1 $189 forward single #
loop $-1 $-1 $190 $74 #
plane-surface $-1 -51.661732840968043 -18.991711397135255 2.784442687839956 -0.75470958851134928 0 0.65605901945558964 0.65605901945558964 0 0.75470958851134928 forward_v I I I I #
coedge $-1 $191 $192 $193 $194 reversed $75 $-1 #
face $-1 $-1 $195 $43 $-1 $196 forward single #
loop $-1 $197 $198 $77 #
cone-surface $-1 -47.00806448192111 -22.600168193663215 6.2325594962969042 0.75470958851134928 0 -0.65605901945558964 0.16401475486389741 0 0.18867739712783732 1 I I -0.70710678118654746 0.70710678118654746 0.25 forward I I I I #
loop $-1 $-1 $199 $56 #
coedge $-1 $124 $124 $200 $201 reversed $78 $-1 #
face $-1 $-1 $202 $44 $-1 $203 forward single #
loop $-1 $204 $205 $80 #
cone-surface $-1 -47.00806448192111 -18.991711397135255 6.2325594962969042 0.75470958851134928 0 -0.65605901945558964 0.16401475486389741 0 0.18867739712783732 1 I I -0.70710678118654746 0.70710678118654746 0.25 forward I I I I #
loop $-1 $-1 $206 $57 #
coedge $-1 $129 $129 $207 $208 reversed $81 $-1 #
face $-1 $-1 $209 $45 $-1 $210 forward single #
loop $-1 $211 $212 $83 #
cone-surface $-1 -47.00806448192111 -15.383254600607291 6.2325594962969042 0.75470958851134928 0 -0.65605901945558964 0.16401475486389741 0 0.18867739712783732 1 I I -0.70710678118654746 0.70710678118654746 0.25 forward I I I I #
loop $-1 $-1 $213 $58 #
coedge $-1 $134 $134 $214 $215 reversed $84 $-1 #
face $-1 $216 $217 $46 $-1 $218 forward single #
loop $-1 $-1 $219 $86 #
plane-surface $-1 -51.661732840968043 18.991711397135255 2.784442687839956 -0.75470958851134928 0 0.65605901945558964 0.65605901945558964 0 0.75470958851134928 forward_v I I I I #
coedge $-1 $220 $221 $222 $223 reversed $87 $-1 #
face $-1 $-1 $224 $47 $-1 $225 forward single #
loop $-1 $226 $227 $89 #
cone-surface $-1 -47.00806448192111 15.383254600607295 6.2325594962969042 0.75470958851134928 0 -0.65605901945558964 0.16401475486389741 0 0.18867739712783732 1 I I -0.70710678118654746 0.70710678118654746 0.25 forward I I I I #
loop $-1 $-1 $228 $60 #
coedge $-1 $143 $143 $229 $230 reversed $90 $-1 #
face $-1 $-1 $231 $48 $-1 $232 forward single #
loop $-1 $233 $234 $92 #
cone-surface $-1 -47.00806448192111 18.991711397135255 6.2325594962969042 0.75470958851134928 0 -0.65605901945558964 0.16401475486389741 0 0.18867739712783732 1 I I -0.70710678118654746 0.70710678118654746 0.25 forward I I I I #
loop $-1 $-1 $235 $61 #
coedge $-1 $148 $148 $236 $237 reversed $93 $-1 #
face $-1 $-1 $238 $49 $-1 $239 forward single #
loop $-1 $240 $241 $95 #
cone-surface $-1 -47.00806448192111 22.600168193663222 6.2325594962969042 0.75470958851134928 0 -0.65605901945558964 0.16401475486389741 0 0.18867739712783732 1 I I -0.70710678118654746 0.70710678118654746 0.25 forward I I I I #
loop $-1 $-1 $242 $62 #
coedge $-1 $153 $153 $243 $244 reversed $96 $-1 #
face $-1 $245 $246 $50 $-1 $247 reversed single #
loop $-1 $-1 $248 $98 #
plane-surface $-1 -1.5537846696122983 -0.27992136527946343 91.468783193416542 0.85716730853699208 0 0.51503806187062418 0.51503806187062418 0 -0.85716730853699208 forward_v I I I I #
coedge $-1 $249 $250 $251 $252 reversed $99 $-1 #
face $-1 $-1 $253 $51 $-1 $254 forward single #
loop $-1 $255 $256 $101 #
cone-surface $-1 45.59113864943582 -0.27992136527945632 4.983980536572286 -0.85716730853699208 0 -0.51503806187062418 0.3862785464029681 0 -0.64287548140274409 1 I I -0.70710678118654757 0.70710678118654757 0.75 forward I I I I #
loop $-1 $-1 $257 $64 #
coedge $-1 $162 $162 $258 $259 reversed $102 $-1 #
face $-1 $260 $261 $39 $-1 $262 reversed single #
loop $-1 $-1 $263 $104 #
plane-surface $-1 0 -33.709804911226826 0 0 1 0 0 0 1 forward_v I I I I #
coedge $-1 $264 $265 $266 $267 forward $105 $-1 #
coedge $-1 $268 $107 $269 $270 forward $66 $-1 #
coedge $-1 $107 $268 $271 $272 forward $66 $-1 #
coedge $-1 $273 $274 $107 $170 reversed $275 $-1 #
edge $-1 $276 -33.709804911226826 $277 33.709804911226826 $169 $278 forward 7 unknown #
face $-1 $279 $280 $40 $-1 $281 reversed single #
loop $-1 $-1 $282 $108 #
plane-surface $-1 0 -29.357805484621007 6.4997439335583849 0 0 1 1 0 0 forward_v I I I I #
coedge $-1 $177 $283 $284 $285 reversed $109 $-1 #
coedge $-1 $286 $111 $287 $288 reversed $69 $-1 #
coedge $-1 $111 $286 $289 $290 reversed $69 $-1 #
coedge $-1 $291 $174 $111 $178 forward $109 $-1 #
edge $-1 $292 -51.661732840968043 $293 51.661732840968043 $111 $294 forward 7 unknown #
face $-1 $295 $296 $41 $-1 $297 reversed single #
loop $-1 $-1 $298 $112 #
plane-surface $-1 0 25.005806058015192 7.9997439335583849 0 1 0 0 0 1 forward_v I I I I #
coedge $-1 $299 $300 $301 $302 reversed $113 $-1 #
coedge $-1 $303 $115 $304 $305 reversed $72 $-1 #
coedge $-1 $115 $303 $306 $307 forward $72 $-1 #
coedge $-1 $308 $309 $115 $186 forward $296 $-1 #
edge $-1 $310 -19.03090216891632 $311 -10.326903315704687 $185 $312 forward 7 unknown #
face $-1 $313 $314 $42 $-1 $315 reversed single #
loop $-1 $-1 $316 $116 #
plane-surface $-1 0 0 11.320823853392813 0 0 1 1 0 0 forward_v I I I I #
coedge $-1 $317 $318 $319 $320 reversed $117 $-1 #
coedge $-1 $192 $119 $321 $322 reversed $75 $-1 #
coedge $-1 $119 $191 $317 $323 reversed $75 $-1 #
coedge $-1 $319 $324 $119 $194 forward $314 $-1 #
edge $-1 $325 23.964543281549293 $326 32.50092444710215 $193 $327 forward 7 unknown #
loop $-1 $-1 $200 $120 #
plane-surface $-1 -51.661732840968043 -18.991711397135255 2.784442687839956 -0.75470958851134928 0 0.65605901945558964 0.65605901945558964 0 0.75470958851134928 forward_v I I I I #
loop $-1 $-1 $328 $77 #
coedge $-1 $198 $198 $199 $329 reversed $121 $-1 #
coedge $-1 $199 $199 $198 $329 forward $123 $-1 #
coedge $-1 $200 $200 $124 $201 forward $195 $-1 #
edge $-1 $330 0 $330 6.2831853071796004 $200 $331 forward 7 unknown #
loop $-1 $-1 $207 $125 #
plane-surface $-1 -51.661732840968043 -18.991711397135255 2.784442687839956 -0.75470958851134928 0 0.65605901945558964 0.65605901945558964 0 0.75470958851134928 forward_v I I I I #
loop $-1 $-1 $332 $80 #
coedge $-1 $205 $205 $206 $333 reversed $126 $-1 #
coedge $-1 $206 $206 $205 $333 forward $128 $-1 #
coedge $-1 $207 $207 $129 $208 forward $202 $-1 #
edge $-1 $334 0 $334 6.2831853071796004 $207 $335 forward 7 unknown #
loop $-1 $-1 $214 $130 #
plane-surface $-1 -51.661732840968043 -18.991711397135255 2.784442687839956 -0.75470958851134928 0 0.65605901945558964 0.65605901945558964 0 0.75470958851134928 forward_v I I I I #
loop $-1 $-1 $336 $83 #
coedge $-1 $212 $212 $213 $337 reversed $131 $-1 #
coedge $-1 $213 $213 $212 $337 forward $133 $-1 #
coedge $-1 $214 $214 $134 $215 forward $209 $-1 #
edge $-1 $338 0 $338 6.2831853071796004 $214 $339 forward 7 unknown #
face $-1 $340 $341 $46 $-1 $342 forward single #
loop $-1 $-1 $222 $135 #
plane-surface $-1 0 0 11.320823853392813 0 0 1 1 0 0 forward_v I I I I #
coedge $-1 $343 $344 $345 $346 reversed $136 $-1 #
coedge $-1 $221 $138 $347 $348 reversed $87 $-1 #
coedge $-1 $138 $220 $343 $349 reversed $87 $-1 #
coedge $-1 $345 $350 $138 $223 forward $217 $-1 #
edge $-1 $351 13.158738713706228 $352 20.579301460521727 $222 $353 forward 7 unknown #
loop $-1 $-1 $229 $139 #
plane-surface $-1 -51.661732840968043 18.991711397135255 2.784442687839956 -0.75470958851134928 0 0.65605901945558964 0.65605901945558964 0 0.75470958851134928 forward_v I I I I #
loop $-1 $-1 $354 $89 #
coedge $-1 $227 $227 $228 $355 reversed $140 $-1 #
coedge $-1 $228 $228 $227 $355 forward $142 $-1 #
coedge $-1 $229 $229 $143 $230 forward $224 $-1 #
edge $-1 $356 0 $356 6.2831853071796004 $229 $357 forward 7 unknown #
loop $-1 $-1 $236 $144 #
plane-surface $-1 -51.661732840968043 18.991711397135255 2.784442687839956 -0.75470958851134928 0 0.65605901945558964 0.65605901945558964 0 0.75470958851134928 forward_v I I I I #
loop $-1 $-1 $358 $92 #
coedge $-1 $234 $234 $235 $359 reversed $145 $-1 #
coedge $-1 $235 $235 $234 $359 forward $147 $-1 #
coedge $-1 $236 $236 $148 $237 forward $231 $-1 #
edge $-1 $360 0 $360 6.2831853071796004 $236 $361 forward 7 unknown #
loop $-1 $-1 $243 $149 #
plane-surface $-1 -51.661732840968043 18.991711397135255 2.784442687839956 -0.75470958851134928 0 0.65605901945558964 0.65605901945558964 0 0.75470958851134928 forward_v I I I I #
loop $-1 $-1 $362 $95 #
coedge $-1 $241 $241 $242 $363 reversed $150 $-1 #
coedge $-1 $242 $242 $241 $363 forward $152 $-1 #
coedge $-1 $243 $243 $153 $244 forward $238 $-1 #
edge $-1 $364 0 $364 6.2831853071796004 $243 $365 forward 7 unknown #
face $-1 $366 $367 $50 $-1 $368 reversed single #
loop $-1 $-1 $369 $154 #
plane-surface $-1 87.011712317687127 -3.5606018832688271 144.68430070399685 0 1 0 0.85716730853699208 0 0.51503806187062418 forward_v I I I I #
coedge $-1 $370 $371 $372 $373 reversed $155 $-1 #
coedge $-1 $250 $157 $374 $375 reversed $99 $-1 #
coedge $-1 $157 $249 $370 $376 reversed $99 $-1 #
coedge $-1 $372 $377 $157 $252 forward $378 $-1 #
edge $-1 $379 -8.1558766821244788 $380 -3.0981099749743208 $251 $381 forward 7 unknown #
loop $-1 $-1 $258 $158 #
plane-surface $-1 -1.5537846696122983 -0.27992136527946343 91.468783193416542 0.85716730853699208 0 0.51503806187062418 0.51503806187062418 0 -0.85716730853699208 forward_v I I I I #
loop $-1 $-1 $382 $101 #
coedge $-1 $256 $256 $257 $383 reversed $159 $-1 #
coedge $-1 $257 $257 $256 $383 forward $161 $-1 #
coedge $-1 $258 $258 $162 $259 forward $253 $-1 #
edge $-1 $384 0 $384 6.2831853071796004 $258 $385 forward 7 unknown #
face $-1 $386 $387 $39 $-1 $388 reversed single #
loop $-1 $-1 $389 $163 #
plane-surface $-1 -51.661732840968043 0 0 1 0 0 0 0 -1 forward_v I I I I #
coedge $-1 $390 $271 $391 $392 forward $164 $-1 #
coedge $-1 $393 $166 $390 $394 forward $105 $-1 #
coedge $-1 $166 $393 $395 $396 forward $105 $-1 #
coedge $-1 $274 $273 $166 $267 reversed $275 $-1 #
edge $-1 $397 -33.709804911226826 $398 33.709804911226826 $266 $399 forward 7 unknown #
coedge $-1 $168 $167 $400 $401 forward $66 $-1 #
coedge $-1 $402 $403 $167 $270 reversed $387 $-1 #
edge $-1 $277 -51.661732840968043 $404 51.661732840968043 $269 $405 forward 7 unknown #
coedge $-1 $263 $406 $168 $272 reversed $164 $-1 #
edge $-1 $407 -51.661732840968043 $276 51.661732840968043 $271 $408 forward 7 unknown #
coedge $-1 $266 $169 $406 $409 forward $275 $-1 #
coedge $-1 $169 $266 $402 $410 reversed $275 $-1 #
loop $-1 $-1 $273 $386 #
vertex $-1 $170 $411 #
vertex $-1 $170 $412 #
straight-curve $-1 51.661732840968043 0 11.320823853392813 0 1 0 I I #
face $-1 $413 $414 $40 $-1 $415 reversed single #
loop $-1 $-1 $416 $171 #
plane-surface $-1 -51.661732840968043 0 0 1 0 0 0 0 -1 forward_v I I I I #
coedge $-1 $417 $418 $419 $420 reversed $172 $-1 #
coedge $-1 $174 $291 $421 $422 reversed $109 $-1 #
coedge $-1 $423 $287 $174 $285 forward $424 $-1 #
edge $-1 $292 10.326903315704685 $425 19.03090216891632 $284 $426 forward 7 unknown #
coedge $-1 $176 $175 $418 $427 reversed $69 $-1 #
coedge $-1 $284 $419 $175 $288 forward $424 $-1 #
edge $-1 $428 2.4998719667791924 $292 5.4998719667791924 $287 $429 forward 7 unknown #
coedge $-1 $430 $416 $176 $290 forward $280 $-1 #
edge $-1 $293 -5.4998719667791924 $431 -2.4998719667791924 $289 $432 forward 7 unknown #
coedge $-1 $283 $177 $416 $433 reversed $109 $-1 #
vertex $-1 $285 $434 #
vertex $-1 $433 $435 #
straight-curve $-1 0 -25.005806058015189 9.4997439335583849 -1 0 0 I I #
face $-1 $436 $437 $41 $-1 $438 reversed single #
loop $-1 $-1 $185 $179 #
plane-surface $-1 51.661732840968043 0 0 -1 0 0 0 0 1 forward_v I I I I #
coedge $-1 $439 $440 $299 $441 reversed $180 $-1 #
coedge $-1 $442 $182 $298 $441 forward $113 $-1 #
coedge $-1 $182 $442 $443 $444 reversed $113 $-1 #
coedge $-1 $309 $308 $182 $302 forward $296 $-1 #
edge $-1 $445 10.326903315704687 $446 19.03090216891632 $301 $447 forward 7 unknown #
coedge $-1 $184 $183 $448 $449 reversed $72 $-1 #
coedge $-1 $450 $451 $183 $305 forward $452 $-1 #
edge $-1 $453 -51.661732840968043 $310 51.661732840968043 $304 $454 forward 7 unknown #
coedge $-1 $440 $439 $184 $307 reversed $180 $-1 #
edge $-1 $455 -51.661732840968043 $311 51.661732840968043 $306 $456 forward 7 unknown #
coedge $-1 $301 $185 $439 $457 forward $296 $-1 #
coedge $-1 $185 $301 $450 $458 reversed $296 $-1 #
vertex $-1 $458 $459 #
vertex $-1 $186 $460 #
straight-curve $-1 51.661732840968043 14.678902742310505 9.4997439335583849 0 -1 0 I I #
face $-1 $-1 $461 $42 $-1 $462 forward single #
loop $-1 $-1 $463 $187 #
plane-surface $-1 -51.661732840968043 0 0 1 0 0 0 0 -1 forward_v I I I I #
coedge $-1 $464 $465 $466 $467 forward $188 $-1 #
coedge $-1 $468 $190 $192 $323 forward $117 $-1 #
coedge $-1 $190 $468 $469 $470 forward $117 $-1 #
coedge $-1 $463 $193 $190 $320 forward $314 $-1 #
edge $-1 $326 3.4817610376876917 $471 15.509950359447561 $319 $472 forward 7 unknown #
coedge $-1 $465 $464 $191 $322 forward $188 $-1 #
edge $-1 $473 -20.579301460521727 $325 -13.158738713706228 $321 $474 forward 7 unknown #
edge $-1 $326 0 $473 11.310815836314886 $192 $475 forward 7 unknown #
coedge $-1 $193 $463 $465 $476 reversed $314 $-1 #
vertex $-1 $476 $477 #
vertex $-1 $194 $478 #
straight-curve $-1 -51.661732840968043 -12.977616736255319 35.285367134942106 0 0 -1 I I #
coedge $-1 $328 $328 $-1 $479 reversed $197 $-1 #
edge $-1 $480 0 $480 6.2831853071796004 $198 $481 forward 7 unknown #
vertex $-1 $201 $482 #
ellipse-curve $-1 -47.95145146756029 -22.600168193663215 7.0526332706163872 -0.75470958851134928 0 0.65605901945558964 0.32802950972779482 0 0.37735479425567464 1 I I #
coedge $-1 $332 $332 $-1 $483 reversed $204 $-1 #
edge $-1 $484 0 $484 6.2831853071796004 $205 $485 forward 7 unknown #
vertex $-1 $208 $486 #
ellipse-curve $-1 -47.95145146756029 -18.991711397135255 7.0526332706163872 -0.75470958851134928 0 0.65605901945558964 0.32802950972779482 0 0.37735479425567464 1 I I #
coedge $-1 $336 $336 $-1 $487 reversed $211 $-1 #
edge $-1 $488 0 $488 6.2831853071796004 $212 $489 forward 7 unknown #
vertex $-1 $215 $490 #
ellipse-curve $-1 -47.95145146756029 -15.383254600607291 7.0526332706163872 -0.75470958851134928 0 0.65605901945558964 0.32802950972779482 0 0.37735479425567464 1 I I #
face $-1 $-1 $491 $46 $-1 $492 reversed single #
loop $-1 $-1 $493 $216 #
plane-surface $-1 0 25.005806058015192 7.9997439335583849 0 1 0 0 0 1 forward_v I I I I #
coedge $-1 $494 $219 $221 $349 forward $136 $-1 #
coedge $-1 $219 $494 $493 $495 forward $136 $-1 #
coedge $-1 $496 $222 $219 $346 forward $217 $-1 #
edge $-1 $352 3.4817610376876917 $497 15.509950359447561 $345 $498 forward 7 unknown #
coedge $-1 $499 $500 $220 $348 forward $491 $-1 #
edge $-1 $501 -32.50092444710215 $351 -23.964543281549293 $347 $502 forward 7 unknown #
edge $-1 $352 -11.310815836314886 $501 0 $221 $503 forward 7 unknown #
coedge $-1 $222 $496 $499 $504 forward $217 $-1 #
vertex $-1 $223 $505 #
vertex $-1 $223 $506 #
straight-curve $-1 -64.82047155467427 12.977616736255319 11.320823853392813 1 0 0 I I #
coedge $-1 $354 $354 $-1 $507 reversed $226 $-1 #
edge $-1 $508 0 $508 6.2831853071796004 $227 $509 forward 7 unknown #
vertex $-1 $230 $510 #
ellipse-curve $-1 -47.95145146756029 15.383254600607295 7.0526332706163872 -0.75470958851134928 0 0.65605901945558964 0.32802950972779482 0 0.37735479425567464 1 I I #
coedge $-1 $358 $358 $-1 $511 reversed $233 $-1 #
edge $-1 $512 0 $512 6.2831853071796004 $234 $513 forward 7 unknown #
vertex $-1 $237 $514 #
ellipse-curve $-1 -47.95145146756029 18.991711397135255 7.0526332706163872 -0.75470958851134928 0 0.65605901945558964 0.32802950972779482 0 0.37735479425567464 1 I I #
coedge $-1 $362 $362 $-1 $515 reversed $240 $-1 #
edge $-1 $516 0 $516 6.2831853071796004 $241 $517 forward 7 unknown #
vertex $-1 $244 $518 #
ellipse-curve $-1 -47.95145146756029 22.600168193663222 7.0526332706163872 -0.75470958851134928 0 0.65605901945558964 0.32802950972779482 0 0.37735479425567464 1 I I #
face $-1 $-1 $378 $50 $-1 $519 forward single #
loop $-1 $-1 $520 $245 #
plane-surface $-1 51.661732840968043 0 0 -1 0 0 0 0 1 forward_v I I I I #
coedge $-1 $521 $522 $523 $524 reversed $246 $-1 #
coedge $-1 $525 $248 $250 $376 forward $155 $-1 #
coedge $-1 $248 $525 $521 $526 forward $155 $-1 #
coedge $-1 $523 $251 $248 $373 forward $378 $-1 #
edge $-1 $380 -3.1407198353496319 $527 3.4206412006290954 $372 $528 forward 7 unknown #
coedge $-1 $529 $530 $249 $375 forward $367 $-1 #
edge $-1 $531 -69.438864145881354 $379 -61.021326498605617 $374 $532 forward 7 unknown #
edge $-1 $380 93.503285230067618 $531 103.32346568193617 $250 $533 forward 7 unknown #
coedge $-1 $251 $523 $529 $534 forward $378 $-1 #
loop $-1 $-1 $523 $366 #
vertex $-1 $375 $535 #
vertex $-1 $252 $536 #
straight-curve $-1 43.505856158843564 3.0007591527099002 11.32082385339281 -1 0 0 I I #
coedge $-1 $382 $382 $-1 $537 reversed $255 $-1 #
edge $-1 $538 0 $538 6.2831853071796004 $256 $539 forward 7 unknown #
vertex $-1 $259 $540 #
ellipse-curve $-1 49.132849487392946 -0.27992136527945632 7.1120550297549681 0.85716730853699208 0 0.51503806187062418 0.77255709280593621 0 -1.2857509628054882 1 I I #
face $-1 $-1 $275 $39 $-1 $541 reversed single #
loop $-1 $-1 $402 $260 #
plane-surface $-1 0 33.709804911226826 0 0 -1 0 0 0 -1 forward_v I I I I #
coedge $-1 $542 $400 $403 $543 forward $261 $-1 #
coedge $-1 $406 $263 $264 $394 reversed $164 $-1 #
coedge $-1 $400 $542 $263 $392 reversed $261 $-1 #
edge $-1 $407 -11.320823853392813 $544 11.320823853392813 $391 $545 forward 7 unknown #
coedge $-1 $265 $264 $542 $546 forward $105 $-1 #
edge $-1 $398 -51.661732840968043 $544 51.661732840968043 $390 $547 forward 7 unknown #
coedge $-1 $403 $402 $265 $396 reversed $387 $-1 #
edge $-1 $548 -51.661732840968043 $397 51.661732840968043 $395 $549 forward 7 unknown #
vertex $-1 $267 $550 #
vertex $-1 $409 $551 #
straight-curve $-1 51.661732840968043 0 -11.320823853392813 0 -1 0 I I #
coedge $-1 $389 $391 $268 $401 reversed $261 $-1 #
edge $-1 $404 -33.709804911226826 $407 33.709804911226826 $400 $552 forward 7 unknown #
coedge $-1 $395 $269 $274 $410 forward $387 $-1 #
coedge $-1 $269 $395 $389 $543 reversed $387 $-1 #
vertex $-1 $270 $553 #
straight-curve $-1 0 33.709804911226826 11.320823853392813 -1 0 0 I I #
coedge $-1 $271 $390 $273 $409 reversed $164 $-1 #
vertex $-1 $401 $554 #
straight-curve $-1 0 -33.709804911226826 11.320823853392813 1 0 0 I I #
edge $-1 $276 -11.320823853392813 $398 11.320823853392813 $273 $555 forward 7 unknown #
edge $-1 $277 -11.320823853392813 $397 11.320823853392813 $274 $556 forward 7 unknown #
point $-1 51.661732840968043 -33.709804911226826 11.320823853392813 #
point $-1 51.661732840968043 33.709804911226826 11.320823853392813 #
face $-1 $-1 $424 $40 $-1 $557 reversed single #
loop $-1 $-1 $421 $279 #
plane-surface $-1 0 -33.709804911226826 0 0 1 0 0 0 1 forward_v I I I I #
coedge $-1 $289 $558 $291 $433 forward $280 $-1 #
coedge $-1 $559 $282 $560 $561 reversed $172 $-1 #
coedge $-1 $282 $559 $286 $427 forward $172 $-1 #
coedge $-1 $287 $423 $282 $420 forward $424 $-1 #
edge $-1 $562 -19.03090216891632 $428 -10.326903315704685 $419 $563 forward 7 unknown #
coedge $-1 $564 $565 $283 $422 forward $414 $-1 #
edge $-1 $425 -51.661732840968043 $566 51.661732840968043 $421 $567 forward 7 unknown #
coedge $-1 $419 $284 $565 $568 forward $424 $-1 #
loop $-1 $-1 $284 $413 #
vertex $-1 $568 $569 #
straight-curve $-1 51.661732840968043 -14.678902742310504 9.4997439335583849 0 -1 0 I I #
edge $-1 $431 -51.661732840968043 $428 51.661732840968043 $286 $570 forward 7 unknown #
vertex $-1 $420 $571 #
straight-curve $-1 51.661732840968043 -25.005806058015189 3.9998719667791924 0 0 1 I I #
coedge $-1 $558 $289 $559 $572 forward $280 $-1 #
vertex $-1 $572 $573 #
straight-curve $-1 -51.661732840968043 -25.005806058015189 3.9998719667791924 0 0 -1 I I #
edge $-1 $566 -19.03090216891632 $293 -10.326903315704685 $416 $574 forward 7 unknown #
point $-1 51.661732840968043 -25.005806058015189 9.4997439335583849 #
point $-1 -51.661732840968043 -25.005806058015189 9.4997439335583849 #
face $-1 $-1 $452 $41 $-1 $575 reversed single #
loop $-1 $-1 $448 $295 #
plane-surface $-1 -51.661732840968043 0 0 1 0 0 0 0 -1 forward_v I I I I #
coedge $-1 $306 $298 $308 $457 reversed $180 $-1 #
coedge $-1 $298 $306 $576 $577 reversed $180 $-1 #
edge $-1 $445 -51.661732840968043 $578 51.661732840968043 $298 $579 forward 7 unknown #
coedge $-1 $300 $299 $580 $581 reversed $113 $-1 #
coedge $-1 $451 $450 $300 $444 forward $452 $-1 #
edge $-1 $446 -51.661732840968043 $582 51.661732840968043 $443 $583 forward 7 unknown #
vertex $-1 $302 $584 #
vertex $-1 $444 $585 #
straight-curve $-1 51.661732840968043 14.678902742310505 6.4997439335583849 0 1 0 I I #
coedge $-1 $586 $576 $303 $449 forward $437 $-1 #
edge $-1 $455 10.326903315704687 $453 19.03090216891632 $448 $587 forward 7 unknown #
coedge $-1 $443 $304 $309 $458 forward $452 $-1 #
coedge $-1 $304 $443 $586 $588 reversed $452 $-1 #
loop $-1 $-1 $304 $436 #
vertex $-1 $588 $589 #
straight-curve $-1 0 33.709804911226826 9.4997439335583849 1 0 0 I I #
vertex $-1 $449 $590 #
straight-curve $-1 0 25.005806058015192 9.4997439335583849 1 0 0 I I #
edge $-1 $311 -5.4998719667791924 $445 -2.4998719667791924 $308 $591 forward 7 unknown #
edge $-1 $310 -9.4997439335583849 $446 -6.4997439335583849 $309 $592 forward 7 unknown #
point $-1 51.661732840968043 33.709804911226826 9.4997439335583849 #
point $-1 51.661732840968043 25.005806058015192 9.4997439335583849 #
loop $-1 $-1 $469 $313 #
plane-surface $-1 0 -25.005806058015189 7.9997439335583849 0 -1 0 0 0 -1 forward_v I I I I #
coedge $-1 $324 $319 $593 $594 forward $314 $-1 #
coedge $-1 $321 $316 $468 $595 forward $188 $-1 #
coedge $-1 $316 $321 $324 $476 forward $188 $-1 #
coedge $-1 $593 $469 $316 $467 reversed $461 $-1 #
edge $-1 $596 13.158738713706228 $597 20.579301460521727 $316 $598 forward 7 unknown #
coedge $-1 $318 $317 $464 $595 reversed $117 $-1 #
coedge $-1 $466 $593 $318 $470 reversed $461 $-1 #
edge $-1 $597 -11.310815836314886 $471 0 $469 $599 forward 7 unknown #
vertex $-1 $320 $600 #
straight-curve $-1 -51.661732840968043 -9.4958556985676275 2.7844426878399529 0 -1 0 I I #
vertex $-1 $322 $601 #
straight-curve $-1 -64.82047155467427 -12.977616736255319 11.320823853392813 -1 0 0 I I #
straight-curve $-1 -51.661732840968043 -12.977616736255319 2.784442687839956 0.65605901945558964 0 0.75470958851134928 I I #
edge $-1 $325 12.977616736255319 $596 25.005806058015189 $324 $602 forward 7 unknown #
point $-1 -51.661732840968043 -12.977616736255319 11.320823853392813 #
point $-1 -51.661732840968043 -12.977616736255319 2.784442687839956 #
edge $-1 $603 1 $603 0 $328 $-1 forward 7 unknown #
vertex $-1 $329 $604 #
ellipse-curve $-1 -47.19674187904895 -22.600168193663215 6.3965742511608017 -0.75470958851134928 0 0.65605901945558964 0.32802950972779482 0 0.37735479425567464 1 I I #
point $-1 -47.623421957832505 -22.600168193663215 7.4299880648720658 #
edge $-1 $605 1 $605 0 $332 $-1 forward 7 unknown #
vertex $-1 $333 $606 #
ellipse-curve $-1 -47.19674187904895 -18.991711397135255 6.3965742511608017 -0.75470958851134928 0 0.65605901945558964 0.32802950972779482 0 0.37735479425567464 1 I I #
point $-1 -47.623421957832505 -18.991711397135255 7.4299880648720658 #
edge $-1 $607 1 $607 0 $336 $-1 forward 7 unknown #
vertex $-1 $337 $608 #
ellipse-curve $-1 -47.19674187904895 -15.383254600607291 6.3965742511608017 -0.75470958851134928 0 0.65605901945558964 0.32802950972779482 0 0.37735479425567464 1 I I #
point $-1 -47.623421957832505 -15.383254600607291 7.4299880648720658 #
loop $-1 $-1 $347 $340 #
plane-surface $-1 -51.661732840968043 0 0 1 0 0 0 0 -1 forward_v I I I I #
coedge $-1 $609 $610 $344 $495 reversed $341 $-1 #
coedge $-1 $344 $343 $500 $611 reversed $136 $-1 #
edge $-1 $612 0 $497 11.310815836314886 $493 $613 forward 7 unknown #
coedge $-1 $350 $345 $610 $614 forward $217 $-1 #
vertex $-1 $614 $615 #
straight-curve $-1 -44.241170094152544 9.4958556985676275 11.320823853392813 0 1 0 I I #
coedge $-1 $616 $347 $350 $504 reversed $491 $-1 #
coedge $-1 $347 $616 $494 $611 forward $491 $-1 #
vertex $-1 $348 $617 #
straight-curve $-1 -51.661732840968043 12.977616736255319 35.285367134942106 0 0 1 I I #
straight-curve $-1 -51.661732840968043 12.977616736255319 2.784442687839956 -0.65605901945558964 0 -0.75470958851134928 I I #
edge $-1 $618 -25.005806058015189 $351 -12.977616736255319 $499 $619 forward 7 unknown #
point $-1 -51.661732840968043 12.977616736255319 11.320823853392813 #
point $-1 -44.241170094152544 12.977616736255319 11.320823853392813 #
edge $-1 $620 1 $620 0 $354 $-1 forward 7 unknown #
vertex $-1 $355 $621 #
ellipse-curve $-1 -47.19674187904895 15.383254600607295 6.3965742511608017 -0.75470958851134928 0 0.65605901945558964 0.32802950972779482 0 0.37735479425567464 1 I I #
point $-1 -47.623421957832505 15.383254600607295 7.4299880648720658 #
edge $-1 $622 1 $622 0 $358 $-1 forward 7 unknown #
vertex $-1 $359 $623 #
ellipse-curve $-1 -47.19674187904895 18.991711397135255 6.3965742511608017 -0.75470958851134928 0 0.65605901945558964 0.32802950972779482 0 0.37735479425567464 1 I I #
point $-1 -47.623421957832505 18.991711397135255 7.4299880648720658 #
edge $-1 $624 1 $624 0 $362 $-1 forward 7 unknown #
vertex $-1 $363 $625 #
ellipse-curve $-1 -47.19674187904895 22.600168193663222 6.3965742511608017 -0.75470958851134928 0 0.65605901945558964 0.32802950972779482 0 0.37735479425567464 1 I I #
point $-1 -47.623421957832505 22.600168193663222 7.4299880648720658 #
plane-surface $-1 0 0 11.320823853392813 0 0 1 1 0 0 forward_v I I I I #
coedge $-1 $530 $529 $522 $626 forward $367 $-1 #
coedge $-1 $522 $369 $371 $526 reversed $246 $-1 #
coedge $-1 $369 $521 $520 $626 reversed $246 $-1 #
coedge $-1 $377 $372 $369 $524 forward $378 $-1 #
edge $-1 $527 3.0981099749743208 $627 8.1558766821244788 $523 $628 forward 7 unknown #
coedge $-1 $371 $370 $530 $629 reversed $155 $-1 #
edge $-1 $630 -103.32346568193617 $527 -93.503285230067618 $521 $631 forward 7 unknown #
vertex $-1 $373 $632 #
straight-curve $-1 46.603966133817877 -0.13996068263973171 11.32082385339281 0 -1 0 I I #
coedge $-1 $520 $374 $377 $534 reversed $367 $-1 #
coedge $-1 $374 $520 $525 $629 forward $367 $-1 #
vertex $-1 $375 $633 #
straight-curve $-1 51.661732840968043 3.0007591527099002 72.342150351998427 0 0 1 I I #
straight-curve $-1 -1.5537846696122983 3.0007591527099002 91.468783193416542 0.51503806187062418 0 -0.85716730853699208 I I #
edge $-1 $627 -3.5606018832688271 $379 3.0007591527099002 $529 $634 forward 7 unknown #
point $-1 51.661732840968043 3.0007591527099002 11.320823853392813 #
point $-1 46.603966133817885 3.0007591527099002 11.32082385339281 #
edge $-1 $635 1 $635 0 $382 $-1 forward 7 unknown #
vertex $-1 $383 $636 #
ellipse-curve $-1 46.234014130838567 -0.27992136527945632 5.3702590829752541 0.85716730853699208 0 0.51503806187062418 0.77255709280593621 0 -1.2857509628054882 1 I I #
point $-1 49.905406580198907 -0.27992136527945632 5.8263040669494934 #
plane-surface $-1 51.661732840968043 0 0 -1 0 0 0 0 1 forward_v I I I I #
coedge $-1 $391 $389 $393 $546 reversed $261 $-1 #
edge $-1 $404 -11.320823853392813 $548 11.320823853392813 $403 $637 forward 7 unknown #
vertex $-1 $546 $638 #
straight-curve $-1 -51.661732840968043 -33.709804911226826 0 0 0 -1 I I #
edge $-1 $544 -33.709804911226826 $548 33.709804911226826 $542 $639 forward 7 unknown #
straight-curve $-1 0 -33.709804911226826 -11.320823853392813 -1 0 0 I I #
vertex $-1 $396 $640 #
straight-curve $-1 0 33.709804911226826 -11.320823853392813 1 0 0 I I #
point $-1 51.661732840968043 33.709804911226826 -11.320823853392813 #
point $-1 51.661732840968043 -33.709804911226826 -11.320823853392813 #
straight-curve $-1 -51.661732840968043 0 11.320823853392813 0 -1 0 I I #
point $-1 -51.661732840968043 33.709804911226826 11.320823853392813 #
point $-1 -51.661732840968043 -33.709804911226826 11.320823853392813 #
straight-curve $-1 51.661732840968043 -33.709804911226826 0 0 0 -1 I I #
straight-curve $-1 51.661732840968043 33.709804911226826 0 0 0 -1 I I #
plane-surface $-1 51.661732840968043 0 0 -1 0 0 0 0 1 forward_v I I I I #
coedge $-1 $416 $430 $564 $641 reversed $280 $-1 #
coedge $-1 $418 $417 $430 $572 reversed $172 $-1 #
coedge $-1 $565 $564 $417 $561 forward $414 $-1 #
edge $-1 $642 -51.661732840968043 $562 51.661732840968043 $560 $643 forward 7 unknown #
vertex $-1 $561 $644 #
straight-curve $-1 51.661732840968043 -14.678902742310504 6.4997439335583849 0 1 0 I I #
coedge $-1 $560 $421 $558 $641 forward $414 $-1 #
coedge $-1 $421 $560 $423 $568 reversed $414 $-1 #
vertex $-1 $641 $645 #
straight-curve $-1 0 -33.709804911226826 9.4997439335583849 -1 0 0 I I #
edge $-1 $425 -9.4997439335583849 $562 -6.4997439335583849 $423 $646 forward 7 unknown #
point $-1 51.661732840968043 -33.709804911226826 9.4997439335583849 #
straight-curve $-1 0 -25.005806058015189 6.4997439335583849 1 0 0 I I #
point $-1 51.661732840968043 -25.005806058015189 6.4997439335583849 #
edge $-1 $431 10.326903315704685 $642 19.03090216891632 $430 $647 forward 7 unknown #
point $-1 -51.661732840968043 -25.005806058015189 6.4997439335583849 #
straight-curve $-1 -51.661732840968043 -14.678902742310504 9.4997439335583849 0 1 0 I I #
plane-surface $-1 0 33.709804911226826 0 0 -1 0 0 0 -1 forward_v I I I I #
coedge $-1 $448 $580 $440 $577 forward $437 $-1 #
edge $-1 $578 2.4998719667791924 $455 5.4998719667791924 $576 $648 forward 7 unknown #
vertex $-1 $581 $649 #
straight-curve $-1 0 25.005806058015192 6.4997439335583849 -1 0 0 I I #
coedge $-1 $576 $586 $442 $581 forward $437 $-1 #
edge $-1 $582 -19.03090216891632 $578 -10.326903315704687 $580 $650 forward 7 unknown #
vertex $-1 $444 $651 #
straight-curve $-1 0 33.709804911226826 6.4997439335583849 -1 0 0 I I #
point $-1 51.661732840968043 25.005806058015192 6.4997439335583849 #
point $-1 51.661732840968043 33.709804911226826 6.4997439335583849 #
coedge $-1 $580 $448 $451 $588 forward $437 $-1 #
straight-curve $-1 -51.661732840968043 14.678902742310505 9.4997439335583849 0 1 0 I I #
edge $-1 $453 -9.4997439335583849 $582 -6.4997439335583849 $451 $652 forward 7 unknown #
point $-1 -51.661732840968043 33.709804911226826 9.4997439335583849 #
point $-1 -51.661732840968043 25.005806058015192 9.4997439335583849 #
straight-curve $-1 51.661732840968043 25.005806058015192 3.9998719667791924 0 0 -1 I I #
straight-curve $-1 51.661732840968043 33.709804911226826 0 0 0 -1 I I #
coedge $-1 $469 $466 $463 $594 reversed $461 $-1 #
edge $-1 $471 -32.50092444710215 $596 -23.964543281549293 $463 $653 forward 7 unknown #
edge $-1 $597 -15.509950359447561 $473 -3.4817610376876917 $464 $654 forward 7 unknown #
vertex $-1 $467 $655 #
vertex $-1 $467 $656 #
straight-curve $-1 -64.82047155467427 -25.005806058015189 11.320823853392813 1 0 0 I I #
straight-curve $-1 -51.661732840968043 -25.005806058015189 2.784442687839956 -0.65605901945558964 0 -0.75470958851134928 I I #
point $-1 -51.661732840968043 -25.005806058015189 2.784442687839956 #
point $-1 -44.241170094152544 -12.977616736255319 11.320823853392813 #
straight-curve $-1 -51.661732840968043 0 11.320823853392813 0 -1 0 I I #
vertex $-1 $479 $657 #
point $-1 -46.868712369321152 -22.600168193663215 6.7739290454164767 #
vertex $-1 $483 $658 #
point $-1 -46.868712369321152 -18.991711397135255 6.7739290454164767 #
vertex $-1 $487 $659 #
point $-1 -46.868712369321152 -15.383254600607291 6.7739290454164767 #
coedge $-1 $610 $493 $616 $660 reversed $341 $-1 #
coedge $-1 $493 $609 $496 $614 reversed $341 $-1 #
edge $-1 $612 -15.509950359447561 $501 -3.4817610376876917 $500 $661 forward 7 unknown #
vertex $-1 $660 $662 #
straight-curve $-1 -51.661732840968043 25.005806058015189 2.784442687839956 0.65605901945558964 0 0.75470958851134928 I I #
edge $-1 $497 -20.579301460521727 $618 -13.158738713706228 $496 $663 forward 7 unknown #
point $-1 -44.241170094152544 25.005806058015189 11.320823853392813 #
coedge $-1 $500 $499 $609 $660 forward $491 $-1 #
point $-1 -51.661732840968043 12.977616736255319 2.784442687839956 #
vertex $-1 $504 $664 #
straight-curve $-1 -51.661732840968043 0 11.320823853392813 0 -1 0 I I #
vertex $-1 $507 $665 #
point $-1 -46.868712369321152 15.383254600607295 6.7739290454164767 #
vertex $-1 $511 $666 #
point $-1 -46.868712369321152 18.991711397135255 6.7739290454164767 #
vertex $-1 $515 $667 #
point $-1 -46.868712369321152 22.600168193663222 6.7739290454164767 #
edge $-1 $627 61.021326498605617 $630 69.438864145881354 $520 $668 forward 7 unknown #
vertex $-1 $534 $669 #
straight-curve $-1 43.505856158843564 -3.5606018832688271 11.32082385339281 1 0 0 I I #
edge $-1 $630 -3.4206412006290954 $531 3.1407198353496319 $530 $670 forward 7 unknown #
vertex $-1 $629 $671 #
straight-curve $-1 -1.5537846696122983 -3.5606018832688271 91.468783193416542 -0.51503806187062418 0 0.85716730853699208 I I #
point $-1 46.603966133817885 -3.5606018832688271 11.32082385339281 #
point $-1 51.66173284096805 3.0007591527099002 2.9032862061170732 #
straight-curve $-1 51.661732840968043 0 11.320823853392813 0 1 0 I I #
vertex $-1 $537 $672 #
point $-1 47.006571223644499 -0.27992136527945632 4.0845081201697662 #
straight-curve $-1 -51.661732840968043 33.709804911226826 0 0 0 -1 I I #
point $-1 -51.661732840968043 -33.709804911226826 -11.320823853392813 #
straight-curve $-1 -51.661732840968043 0 -11.320823853392813 0 1 0 I I #
point $-1 -51.661732840968043 33.709804911226826 -11.320823853392813 #
edge $-1 $566 -9.4997439335583849 $642 -6.4997439335583849 $558 $673 forward 7 unknown #
vertex $-1 $561 $674 #
straight-curve $-1 0 -33.709804911226826 6.4997439335583849 1 0 0 I I #
point $-1 51.661732840968043 -33.709804911226826 6.4997439335583849 #
point $-1 -51.661732840968043 -33.709804911226826 9.4997439335583849 #
straight-curve $-1 51.661732840968043 -33.709804911226826 0 0 0 -1 I I #
straight-curve $-1 -51.661732840968043 -14.678902742310504 6.4997439335583849 0 -1 0 I I #
straight-curve $-1 -51.661732840968043 25.005806058015192 3.9998719667791924 0 0 1 I I #
point $-1 -51.661732840968043 25.005806058015192 6.4997439335583849 #
straight-curve $-1 -51.661732840968043 14.678902742310505 6.4997439335583849 0 -1 0 I I #
point $-1 -51.661732840968043 33.709804911226826 6.4997439335583849 #
straight-curve $-1 -51.661732840968043 33.709804911226826 0 0 0 -1 I I #
straight-curve $-1 -51.661732840968043 -25.005806058015189 35.285367134942106 0 0 1 I I #
straight-curve $-1 -44.241170094152544 -9.4958556985676275 11.320823853392813 0 1 0 I I #
point $-1 -51.661732840968043 -25.005806058015189 11.320823853392813 #
point $-1 -44.241170094152544 -25.005806058015189 11.320823853392813 #
point $-1 -46.81938708479327 -22.600168193663215 6.0685447414330067 #
point $-1 -46.81938708479327 -18.991711397135255 6.0685447414330067 #
point $-1 -46.81938708479327 -15.383254600607291 6.0685447414330067 #
edge $-1 $618 23.964543281549293 $612 32.50092444710215 $616 $675 forward 7 unknown #
straight-curve $-1 -51.661732840968043 9.4958556985676275 2.7844426878399529 0 -1 0 I I #
point $-1 -51.661732840968043 25.005806058015189 2.784442687839956 #
straight-curve $-1 -64.82047155467427 25.005806058015189 11.320823853392813 -1 0 0 I I #
point $-1 -51.661732840968043 25.005806058015189 11.320823853392813 #
point $-1 -46.81938708479327 15.383254600607295 6.0685447414330067 #
point $-1 -46.81938708479327 18.991711397135255 6.0685447414330067 #
point $-1 -46.81938708479327 22.600168193663222 6.0685447414330067 #
straight-curve $-1 51.661732840968043 -3.5606018832688271 72.342150351998427 0 0 -1 I I #
point $-1 51.661732840968043 -3.5606018832688271 11.320823853392813 #
straight-curve $-1 51.661732840968043 -0.13996068263973171 2.9032862061170661 0 1 0 I I #
point $-1 51.66173284096805 -3.5606018832688271 2.9032862061170732 #
point $-1 44.948263168033073 -0.27992136527945632 4.5977019901693179 #
straight-curve $-1 -51.661732840968043 -33.709804911226826 0 0 0 -1 I I #
point $-1 -51.661732840968043 -33.709804911226826 6.4997439335583849 #
straight-curve $-1 -51.661732840968043 25.005806058015189 35.285367134942106 0 0 -1 I I #
End-of-ACIS-data 