500 0 15 0           
7 Unknown 11 ACIS 5.0 NT 24 Thu Mar 25 15:58:13 1999 
-1 9.9999999999999995e-007 1e-010 
body $-1 $15 $-1 $16 #
body $-1 $17 $-1 $18 #
body $-1 $19 $-1 $20 #
body $-1 $21 $-1 $22 #
body $-1 $23 $-1 $24 #
body $-1 $25 $-1 $26 #
body $-1 $27 $-1 $28 #
body $-1 $29 $-1 $30 #
body $-1 $31 $-1 $32 #
body $-1 $33 $-1 $34 #
body $-1 $35 $-1 $36 #
body $-1 $37 $-1 $38 #
body $-1 $39 $-1 $40 #
body $-1 $41 $-1 $42 #
body $-1 $43 $-1 $44 #
lump $-1 $-1 $45 $0 #
transform $-1 1 0 0 0 1 0 0 0 1 77.358317819757673 36.549898774936992 13.852419443840146 1 rotate no_reflect no_shear #
lump $-1 $-1 $46 $1 #
transform $-1 1 0 0 0 1 0 0 0 1 77.358317819757673 36.549898774936992 13.852419443840146 1 rotate no_reflect no_shear #
lump $-1 $-1 $47 $2 #
transform $-1 1 0 0 0 1 0 0 0 1 77.358317819757673 36.549898774936992 13.852419443840146 1 rotate no_reflect no_shear #
lump $-1 $-1 $48 $3 #
transform $-1 1 0 0 0 1 0 0 0 1 77.358317819757673 36.549898774936992 13.852419443840146 1 rotate no_reflect no_shear #
lump $-1 $-1 $49 $4 #
transform $-1 1 0 0 0 1 0 0 0 1 77.358317819757673 36.549898774936992 13.852419443840146 1 rotate no_reflect no_shear #
lump $-1 $-1 $50 $5 #
transform $-1 1 0 0 0 1 0 0 0 1 77.358317819757673 36.549898774936992 13.852419443840146 1 rotate no_reflect no_shear #
lump $-1 $-1 $51 $6 #
transform $-1 1 0 0 0 1 0 0 0 1 77.358317819757673 36.549898774936992 13.852419443840146 1 rotate no_reflect no_shear #
lump $-1 $-1 $52 $7 #
transform $-1 1 0 0 0 1 0 0 0 1 77.358317819757673 36.549898774936992 13.852419443840146 1 rotate no_reflect no_shear #
lump $-1 $-1 $53 $8 #
transform $-1 1 0 0 0 1 0 0 0 1 77.358317819757673 36.549898774936992 13.852419443840146 1 rotate no_reflect no_shear #
lump $-1 $-1 $54 $9 #
transform $-1 1 0 0 0 1 0 0 0 1 77.358317819757673 36.549898774936992 13.852419443840146 1 rotate no_reflect no_shear #
lump $-1 $-1 $55 $10 #
transform $-1 1 0 0 0 1 0 0 0 1 77.358317819757673 36.549898774936992 13.852419443840146 1 rotate no_reflect no_shear #
lump $-1 $-1 $56 $11 #
transform $-1 1 0 0 0 1 0 0 0 1 77.358317819757673 36.549898774936992 13.852419443840146 1 rotate no_reflect no_shear #
lump $-1 $-1 $57 $12 #
transform $-1 1 0 0 0 1 0 0 0 1 77.358317819757673 36.549898774936992 13.852419443840146 1 rotate no_reflect no_shear #
lump $-1 $-1 $58 $13 #
transform $-1 1 0 0 0 1 0 0 0 1 77.358317819757673 36.549898774936992 13.852419443840146 1 rotate no_reflect no_shear #
lump $-1 $-1 $59 $14 #
transform $-1 1 0 0 0 1 0 0 0 1 77.358317819757673 36.549898774936992 13.852419443840146 1 rotate no_reflect no_shear #
shell $-1 $-1 $-1 $60 $-1 $15 #
shell $-1 $-1 $-1 $61 $-1 $17 #
shell $-1 $-1 $-1 $62 $-1 $19 #
shell $-1 $-1 $-1 $63 $-1 $21 #
shell $-1 $-1 $-1 $64 $-1 $23 #
shell $-1 $-1 $-1 $65 $-1 $25 #
shell $-1 $-1 $-1 $66 $-1 $27 #
shell $-1 $-1 $-1 $67 $-1 $29 #
shell $-1 $-1 $-1 $68 $-1 $31 #
shell $-1 $-1 $-1 $69 $-1 $33 #
shell $-1 $-1 $-1 $70 $-1 $35 #
shell $-1 $-1 $-1 $71 $-1 $37 #
shell $-1 $-1 $-1 $72 $-1 $39 #
shell $-1 $-1 $-1 $73 $-1 $41 #
shell $-1 $-1 $-1 $74 $-1 $43 #
face $-1 $75 $76 $45 $-1 $77 forward single #
face $-1 $78 $79 $46 $-1 $80 forward single #
face $-1 $81 $82 $47 $-1 $83 forward single #
face $-1 $84 $85 $48 $-1 $86 reversed single #
face $-1 $87 $88 $49 $-1 $89 forward single #
face $-1 $90 $91 $50 $-1 $92 forward single #
face $-1 $93 $94 $51 $-1 $95 forward single #
face $-1 $96 $97 $52 $-1 $98 reversed single #
face $-1 $99 $100 $53 $-1 $101 forward single #
face $-1 $102 $103 $54 $-1 $104 reversed single #
face $-1 $105 $106 $55 $-1 $107 forward single #
face $-1 $108 $109 $56 $-1 $110 reversed single #
face $-1 $111 $112 $57 $-1 $113 forward single #
face $-1 $114 $115 $58 $-1 $116 reversed single #
face $-1 $117 $118 $59 $-1 $119 forward single #
face $-1 $120 $121 $45 $-1 $122 reversed single #
loop $-1 $-1 $123 $60 #
plane-surface $-1 0 0 13.852419443840146 0 0 1 1 0 0 forward_v I I I I #
face $-1 $124 $125 $46 $-1 $126 reversed single #
loop $-1 $-1 $127 $61 #
plane-surface $-1 0 -28.480685834830616 -8.0184823168188988 0 0 1 1 0 0 forward_v I I I I #
face $-1 $128 $129 $47 $-1 $130 reversed single #
loop $-1 $-1 $131 $62 #
plane-surface $-1 0 28.480685834830609 -8.0184823168188988 0 0 1 1 0 0 forward_v I I I I #
face $-1 $132 $133 $48 $-1 $134 reversed single #
loop $-1 $-1 $135 $63 #
plane-surface $-1 69.722227847628602 -7.9367454701999627 224.48759176808497 0 -1 0 -0.68199836817093118 0 -0.7313536940579346 forward_v I I I I #
face $-1 $136 $137 $49 $-1 $138 forward single #
loop $-1 $139 $140 $64 #
cone-surface $-1 72.491643064062359 -14.837812283973154 9.2359905746938207 -0.68199836817093118 0 -0.7313536940579346 0.3656768470289673 0 -0.34099918408546559 1 I I 0 1 0.5 forward I I I I #
face $-1 $141 $142 $50 $-1 $143 forward single #
loop $-1 $144 $145 $65 #
cone-surface $-1 72.491643064062359 -12.249912228808206 9.2359905746938207 -0.68199836817093118 0 -0.7313536940579346 0.3656768470289673 0 -0.34099918408546559 1 I I 0 1 0.5 forward I I I I #
face $-1 $146 $147 $51 $-1 $148 forward single #
loop $-1 $149 $150 $66 #
cone-surface $-1 72.491643064062359 -9.6620121736432623 9.2359905746938207 -0.68199836817093118 0 -0.7313536940579346 0.3656768470289673 0 -0.34099918408546559 1 I I 0 1 0.5 forward I I I I #
face $-1 $151 $152 $52 $-1 $153 reversed single #
loop $-1 $-1 $154 $67 #
plane-surface $-1 -195.87813809155318 -18.411369409132817 103.86118322012615 0 1 0 -0.7660444514056185 0 0.64278759981090561 forward_v I I I I #
face $-1 $155 $156 $53 $-1 $157 forward single #
loop $-1 $158 $159 $68 #
cone-surface $-1 -72.133666522065369 -15.33675878856932 8.0715393986214483 0.7660444514056185 0 -0.64278759981090561 0.64278759981090561 0 0.7660444514056185 1 I I 0 1 1 forward I I I I #
face $-1 $160 $161 $54 $-1 $162 reversed single #
loop $-1 $-1 $163 $69 #
plane-surface $-1 -195.87813809155318 -8.1868635500865992 103.86118322012615 0 1 0 -0.7660444514056185 0 0.64278759981090561 forward_v I I I I #
face $-1 $164 $165 $55 $-1 $166 forward single #
loop $-1 $167 $168 $70 #
cone-surface $-1 -72.133666522065369 -5.1122529295231018 8.0715393986214483 0.7660444514056185 0 -0.64278759981090561 0.64278759981090561 0 0.7660444514056185 1 I I 0 1 1 forward I I I I #
face $-1 $169 $170 $56 $-1 $171 reversed single #
loop $-1 $-1 $172 $71 #
plane-surface $-1 -195.87813809155318 2.0376423089596187 103.86118322012615 0 1 0 -0.7660444514056185 0 0.64278759981090561 forward_v I I I I #
face $-1 $173 $174 $57 $-1 $175 forward single #
loop $-1 $176 $177 $72 #
cone-surface $-1 -72.133666522065369 5.1122529295231161 8.0715393986214483 0.7660444514056185 0 -0.64278759981090561 0.64278759981090561 0 0.7660444514056185 1 I I 0 1 1 forward I I I I #
face $-1 $178 $179 $58 $-1 $180 reversed single #
loop $-1 $-1 $181 $73 #
plane-surface $-1 -195.87813809155318 12.262148168005837 103.86118322012615 0 1 0 -0.7660444514056185 0 0.64278759981090561 forward_v I I I I #
face $-1 $182 $183 $59 $-1 $184 forward single #
loop $-1 $185 $186 $74 #
cone-surface $-1 -72.133666522065369 15.336758788569334 8.0715393986214483 0.7660444514056185 0 -0.64278759981090561 0.64278759981090561 0 0.7660444514056185 1 I I 0 1 1 forward I I I I #
face $-1 $187 $188 $45 $-1 $189 reversed single #
loop $-1 $-1 $190 $75 #
plane-surface $-1 0 0 -13.852419443840146 0 0 1 1 0 0 forward_v I I I I #
coedge $-1 $191 $192 $193 $194 forward $76 $-1 #
face $-1 $195 $196 $46 $-1 $197 reversed single #
loop $-1 $-1 $198 $78 #
plane-surface $-1 0 -20.411472894724241 -10.935450880329523 0 -1 0 0 0 -1 forward_v I I I I #
coedge $-1 $199 $200 $201 $202 reversed $79 $-1 #
face $-1 $203 $204 $47 $-1 $205 reversed single #
loop $-1 $-1 $206 $81 #
plane-surface $-1 0 20.411472894724234 -10.935450880329523 0 1 0 0 0 1 forward_v I I I I #
coedge $-1 $207 $208 $209 $210 reversed $82 $-1 #
face $-1 $211 $212 $48 $-1 $213 reversed single #
loop $-1 $-1 $214 $84 #
plane-surface $-1 -35.794265187417395 -12.249912228808206 111.33500876090991 0.68199836817093118 0 0.7313536940579346 0.7313536940579346 0 -0.68199836817093118 forward_v I I I I #
coedge $-1 $215 $216 $217 $218 reversed $85 $-1 #
face $-1 $-1 $219 $49 $-1 $220 forward single #
loop $-1 $221 $222 $87 #
cone-surface $-1 71.762122103828489 -14.837812283973154 8.4536751410210957 -0.68199836817093118 0 -0.7313536940579346 0.18283842351448365 0 -0.17049959204273279 1 I I -0.70710678118654746 0.70710678118654746 0.25 forward I I I I #
loop $-1 $-1 $223 $64 #
coedge $-1 $140 $140 $224 $225 reversed $88 $-1 #
face $-1 $-1 $226 $50 $-1 $227 forward single #
loop $-1 $228 $229 $90 #
cone-surface $-1 71.762122103828489 -12.249912228808206 8.4536751410210957 -0.68199836817093118 0 -0.7313536940579346 0.18283842351448365 0 -0.17049959204273279 1 I I -0.70710678118654746 0.70710678118654746 0.25 forward I I I I #
loop $-1 $-1 $230 $65 #
coedge $-1 $145 $145 $231 $232 reversed $91 $-1 #
face $-1 $-1 $233 $51 $-1 $234 forward single #
loop $-1 $235 $236 $93 #
cone-surface $-1 71.762122103828489 -9.6620121736432623 8.4536751410210957 -0.68199836817093118 0 -0.7313536940579346 0.18283842351448365 0 -0.17049959204273279 1 I I -0.70710678118654746 0.70710678118654746 0.25 forward I I I I #
loop $-1 $-1 $237 $66 #
coedge $-1 $150 $150 $238 $239 reversed $94 $-1 #
face $-1 $240 $241 $52 $-1 $242 reversed single #
loop $-1 $-1 $243 $96 #
plane-surface $-1 -77.358317819757687 -15.33675878856932 4.4112483465836618 -0.7660444514056185 0 0.64278759981090561 0.64278759981090561 0 0.7660444514056185 forward_v I I I I #
coedge $-1 $244 $245 $246 $247 reversed $97 $-1 #
face $-1 $-1 $248 $53 $-1 $249 forward single #
loop $-1 $250 $251 $99 #
cone-surface $-1 -70.487034487760198 -15.33675878856932 6.6898511021255391 0.7660444514056185 0 -0.64278759981090561 0.3213937999054528 0 0.38302222570280925 1 I I -0.70710678118654746 0.70710678118654746 0.5 forward I I I I #
loop $-1 $-1 $252 $68 #
coedge $-1 $159 $159 $253 $254 reversed $100 $-1 #
face $-1 $255 $256 $54 $-1 $257 reversed single #
loop $-1 $-1 $258 $102 #
plane-surface $-1 -77.358317819757687 -5.1122529295231018 4.4112483465836618 -0.7660444514056185 0 0.64278759981090561 0.64278759981090561 0 0.7660444514056185 forward_v I I I I #
coedge $-1 $259 $260 $261 $262 reversed $103 $-1 #
face $-1 $-1 $263 $55 $-1 $264 forward single #
loop $-1 $265 $266 $105 #
cone-surface $-1 -70.487034487760198 -5.1122529295231018 6.6898511021255391 0.7660444514056185 0 -0.64278759981090561 0.3213937999054528 0 0.38302222570280925 1 I I -0.70710678118654746 0.70710678118654746 0.5 forward I I I I #
loop $-1 $-1 $267 $70 #
coedge $-1 $168 $168 $268 $269 reversed $106 $-1 #
face $-1 $270 $271 $56 $-1 $272 reversed single #
loop $-1 $-1 $273 $108 #
plane-surface $-1 -77.358317819757687 5.1122529295231161 4.4112483465836618 -0.7660444514056185 0 0.64278759981090561 0.64278759981090561 0 0.7660444514056185 forward_v I I I I #
coedge $-1 $274 $275 $276 $277 reversed $109 $-1 #
face $-1 $-1 $278 $57 $-1 $279 forward single #
loop $-1 $280 $281 $111 #
cone-surface $-1 -70.487034487760198 5.1122529295231161 6.6898511021255391 0.7660444514056185 0 -0.64278759981090561 0.3213937999054528 0 0.38302222570280925 1 I I -0.70710678118654746 0.70710678118654746 0.5 forward I I I I #
loop $-1 $-1 $282 $72 #
coedge $-1 $177 $177 $283 $284 reversed $112 $-1 #
face $-1 $285 $286 $58 $-1 $287 reversed single #
loop $-1 $-1 $288 $114 #
plane-surface $-1 -77.358317819757687 15.336758788569334 4.4112483465836618 -0.7660444514056185 0 0.64278759981090561 0.64278759981090561 0 0.7660444514056185 forward_v I I I I #
coedge $-1 $289 $290 $291 $292 reversed $115 $-1 #
face $-1 $-1 $293 $59 $-1 $294 forward single #
loop $-1 $295 $296 $117 #
cone-surface $-1 -70.487034487760198 15.336758788569334 6.6898511021255391 0.7660444514056185 0 -0.64278759981090561 0.3213937999054528 0 0.38302222570280925 1 I I -0.70710678118654746 0.70710678118654746 0.5 forward I I I I #
loop $-1 $-1 $297 $74 #
coedge $-1 $186 $186 $298 $299 reversed $118 $-1 #
face $-1 $300 $301 $45 $-1 $302 reversed single #
loop $-1 $-1 $303 $120 #
plane-surface $-1 0 -36.549898774936992 0 0 1 0 0 0 1 forward_v I I I I #
coedge $-1 $304 $305 $306 $307 forward $121 $-1 #
coedge $-1 $308 $123 $309 $310 forward $76 $-1 #
coedge $-1 $123 $308 $311 $312 forward $76 $-1 #
coedge $-1 $313 $314 $123 $194 reversed $315 $-1 #
edge $-1 $316 -36.549898774936992 $317 36.549898774936992 $193 $318 forward 7 unknown #
face $-1 $319 $320 $46 $-1 $321 reversed single #
loop $-1 $-1 $322 $124 #
plane-surface $-1 0 0 -13.852419443840146 0 0 1 1 0 0 forward_v I I I I #
coedge $-1 $323 $324 $325 $326 reversed $125 $-1 #
coedge $-1 $327 $127 $324 $328 forward $79 $-1 #
coedge $-1 $127 $327 $329 $330 reversed $79 $-1 #
coedge $-1 $331 $325 $127 $202 forward $320 $-1 #
edge $-1 $332 6.171129977308933 $333 22.309555857521683 $201 $334 forward 7 unknown #
face $-1 $335 $336 $47 $-1 $337 reversed single #
loop $-1 $-1 $209 $128 #
plane-surface $-1 77.358317819757673 0 0 -1 0 0 0 0 1 forward_v I I I I #
coedge $-1 $338 $339 $340 $341 reversed $129 $-1 #
coedge $-1 $342 $131 $343 $344 reversed $82 $-1 #
coedge $-1 $131 $342 $339 $345 forward $82 $-1 #
coedge $-1 $346 $347 $131 $210 forward $204 $-1 #
edge $-1 $348 -22.30955585752168 $349 -6.1711299773089294 $209 $350 forward 7 unknown #
face $-1 $351 $352 $48 $-1 $353 forward single #
loop $-1 $-1 $354 $132 #
plane-surface $-1 69.722227847628602 -16.56307898741645 224.48759176808497 0 1 0 0.68199836817093118 0 0.7313536940579346 forward_v I I I I #
coedge $-1 $355 $356 $357 $358 reversed $133 $-1 #
coedge $-1 $216 $135 $359 $360 reversed $85 $-1 #
coedge $-1 $135 $215 $355 $361 reversed $85 $-1 #
coedge $-1 $357 $362 $135 $218 forward $352 $-1 #
edge $-1 $363 -42.497203895943372 $364 -33.881897120934966 $217 $365 forward 7 unknown #
loop $-1 $-1 $224 $136 #
plane-surface $-1 -35.794265187417395 -12.249912228808206 111.33500876090991 0.68199836817093118 0 0.7313536940579346 0.7313536940579346 0 -0.68199836817093118 forward_v I I I I #
loop $-1 $-1 $366 $87 #
coedge $-1 $222 $222 $223 $367 reversed $137 $-1 #
coedge $-1 $223 $223 $222 $367 forward $139 $-1 #
coedge $-1 $224 $224 $140 $225 forward $219 $-1 #
edge $-1 $368 0 $368 6.2831853071796004 $224 $369 forward 7 unknown #
loop $-1 $-1 $231 $141 #
plane-surface $-1 -35.794265187417395 -12.249912228808206 111.33500876090991 0.68199836817093118 0 0.7313536940579346 0.7313536940579346 0 -0.68199836817093118 forward_v I I I I #
loop $-1 $-1 $370 $90 #
coedge $-1 $229 $229 $230 $371 reversed $142 $-1 #
coedge $-1 $230 $230 $229 $371 forward $144 $-1 #
coedge $-1 $231 $231 $145 $232 forward $226 $-1 #
edge $-1 $372 0 $372 6.2831853071796004 $231 $373 forward 7 unknown #
loop $-1 $-1 $238 $146 #
plane-surface $-1 -35.794265187417395 -12.249912228808206 111.33500876090991 0.68199836817093118 0 0.7313536940579346 0.7313536940579346 0 -0.68199836817093118 forward_v I I I I #
loop $-1 $-1 $374 $93 #
coedge $-1 $236 $236 $237 $375 reversed $147 $-1 #
coedge $-1 $237 $237 $236 $375 forward $149 $-1 #
coedge $-1 $238 $238 $150 $239 forward $233 $-1 #
edge $-1 $376 0 $376 6.2831853071796004 $238 $377 forward 7 unknown #
face $-1 $378 $379 $52 $-1 $380 reversed single #
loop $-1 $-1 $381 $151 #
plane-surface $-1 -195.87813809155318 -12.262148168005822 103.86118322012615 0 -1 0 0.7660444514056185 0 -0.64278759981090561 forward_v I I I I #
coedge $-1 $382 $383 $384 $385 reversed $152 $-1 #
coedge $-1 $245 $154 $386 $387 reversed $97 $-1 #
coedge $-1 $154 $244 $382 $388 reversed $97 $-1 #
coedge $-1 $384 $389 $154 $247 forward $390 $-1 #
edge $-1 $391 20.580751226018918 $392 28.502834204198777 $246 $393 forward 7 unknown #
loop $-1 $-1 $253 $155 #
plane-surface $-1 -77.358317819757687 -15.33675878856932 4.4112483465836618 -0.7660444514056185 0 0.64278759981090561 0.64278759981090561 0 0.7660444514056185 forward_v I I I I #
loop $-1 $-1 $394 $99 #
coedge $-1 $251 $251 $252 $395 reversed $156 $-1 #
coedge $-1 $252 $252 $251 $395 forward $158 $-1 #
coedge $-1 $253 $253 $159 $254 forward $248 $-1 #
edge $-1 $396 0 $396 6.2831853071796004 $253 $397 forward 7 unknown #
face $-1 $398 $399 $54 $-1 $400 forward single #
loop $-1 $-1 $401 $160 #
plane-surface $-1 -195.87813809155318 -2.0376423089596045 103.86118322012615 0 -1 0 0.7660444514056185 0 -0.64278759981090561 forward_v I I I I #
coedge $-1 $402 $403 $404 $405 reversed $161 $-1 #
coedge $-1 $260 $163 $406 $407 reversed $103 $-1 #
coedge $-1 $163 $259 $402 $408 reversed $103 $-1 #
coedge $-1 $404 $409 $163 $262 forward $399 $-1 #
edge $-1 $410 20.580751226018918 $411 28.502834204198777 $261 $412 forward 7 unknown #
loop $-1 $-1 $268 $164 #
plane-surface $-1 -77.358317819757687 -5.1122529295231018 4.4112483465836618 -0.7660444514056185 0 0.64278759981090561 0.64278759981090561 0 0.7660444514056185 forward_v I I I I #
loop $-1 $-1 $413 $105 #
coedge $-1 $266 $266 $267 $414 reversed $165 $-1 #
coedge $-1 $267 $267 $266 $414 forward $167 $-1 #
coedge $-1 $268 $268 $168 $269 forward $263 $-1 #
edge $-1 $415 0 $415 6.2831853071796004 $268 $416 forward 7 unknown #
face $-1 $417 $418 $56 $-1 $419 forward single #
loop $-1 $-1 $420 $169 #
plane-surface $-1 -195.87813809155318 8.1868635500866134 103.86118322012615 0 -1 0 0.7660444514056185 0 -0.64278759981090561 forward_v I I I I #
coedge $-1 $421 $422 $423 $424 reversed $170 $-1 #
coedge $-1 $275 $172 $425 $426 reversed $109 $-1 #
coedge $-1 $172 $274 $421 $427 reversed $109 $-1 #
coedge $-1 $423 $428 $172 $277 forward $418 $-1 #
edge $-1 $429 20.580751226018918 $430 28.502834204198777 $276 $431 forward 7 unknown #
loop $-1 $-1 $283 $173 #
plane-surface $-1 -77.358317819757687 5.1122529295231161 4.4112483465836618 -0.7660444514056185 0 0.64278759981090561 0.64278759981090561 0 0.7660444514056185 forward_v I I I I #
loop $-1 $-1 $432 $111 #
coedge $-1 $281 $281 $282 $433 reversed $174 $-1 #
coedge $-1 $282 $282 $281 $433 forward $176 $-1 #
coedge $-1 $283 $283 $177 $284 forward $278 $-1 #
edge $-1 $434 0 $434 6.2831853071796004 $283 $435 forward 7 unknown #
face $-1 $436 $437 $58 $-1 $438 forward single #
loop $-1 $-1 $439 $178 #
plane-surface $-1 -195.87813809155318 18.411369409132831 103.86118322012615 0 -1 0 0.7660444514056185 0 -0.64278759981090561 forward_v I I I I #
coedge $-1 $440 $441 $442 $443 reversed $179 $-1 #
coedge $-1 $290 $181 $444 $445 reversed $115 $-1 #
coedge $-1 $181 $289 $440 $446 reversed $115 $-1 #
coedge $-1 $442 $447 $181 $292 forward $437 $-1 #
edge $-1 $448 20.580751226018918 $449 28.502834204198777 $291 $450 forward 7 unknown #
loop $-1 $-1 $298 $182 #
plane-surface $-1 -77.358317819757687 15.336758788569334 4.4112483465836618 -0.7660444514056185 0 0.64278759981090561 0.64278759981090561 0 0.7660444514056185 forward_v I I I I #
loop $-1 $-1 $451 $117 #
coedge $-1 $296 $296 $297 $452 reversed $183 $-1 #
coedge $-1 $297 $297 $296 $452 forward $185 $-1 #
coedge $-1 $298 $298 $186 $299 forward $293 $-1 #
edge $-1 $453 0 $453 6.2831853071796004 $298 $454 forward 7 unknown #
face $-1 $455 $456 $45 $-1 $457 reversed single #
loop $-1 $-1 $458 $187 #
plane-surface $-1 -77.358317819757673 0 0 1 0 0 0 0 -1 forward_v I I I I #
coedge $-1 $459 $311 $460 $461 forward $188 $-1 #
coedge $-1 $462 $190 $459 $463 forward $121 $-1 #
coedge $-1 $190 $462 $464 $465 forward $121 $-1 #
coedge $-1 $314 $313 $190 $307 reversed $315 $-1 #
edge $-1 $466 -36.549898774936992 $467 36.549898774936992 $306 $468 forward 7 unknown #
coedge $-1 $192 $191 $469 $470 forward $76 $-1 #
coedge $-1 $471 $472 $191 $310 reversed $456 $-1 #
edge $-1 $317 -77.358317819757673 $473 77.358317819757673 $309 $474 forward 7 unknown #
coedge $-1 $303 $475 $192 $312 reversed $188 $-1 #
edge $-1 $476 -77.358317819757673 $316 77.358317819757673 $311 $477 forward 7 unknown #
coedge $-1 $306 $193 $475 $478 forward $315 $-1 #
coedge $-1 $193 $306 $471 $479 reversed $315 $-1 #
loop $-1 $-1 $313 $455 #
vertex $-1 $194 $480 #
vertex $-1 $194 $481 #
straight-curve $-1 77.358317819757673 0 13.852419443840146 0 1 0 I I #
face $-1 $482 $483 $46 $-1 $484 reversed single #
loop $-1 $-1 $325 $195 #
plane-surface $-1 77.358317819757673 0 0 -1 0 0 0 0 1 forward_v I I I I #
coedge $-1 $485 $486 $323 $487 forward $196 $-1 #
coedge $-1 $488 $198 $322 $487 reversed $125 $-1 #
coedge $-1 $198 $488 $199 $328 reversed $125 $-1 #
coedge $-1 $201 $489 $198 $326 forward $320 $-1 #
edge $-1 $490 -8.384694003675385 $332 -2.5507568766541375 $325 $491 forward 7 unknown #
coedge $-1 $200 $199 $492 $493 reversed $79 $-1 #
edge $-1 $332 -77.358317819757673 $494 77.358317819757673 $324 $495 forward 7 unknown #
coedge $-1 $496 $497 $200 $330 forward $483 $-1 #
edge $-1 $333 -77.358317819757673 $498 77.358317819757673 $329 $499 forward 7 unknown #
coedge $-1 $489 $201 $497 $500 forward $320 $-1 #
vertex $-1 $202 $501 #
vertex $-1 $500 $502 #
straight-curve $-1 77.358317819757673 -14.240342917415308 -8.0184823168188988 0 -1 0 I I #
face $-1 $503 $504 $47 $-1 $505 reversed single #
loop $-1 $-1 $506 $203 #
plane-surface $-1 0 0 -13.852419443840146 0 0 1 1 0 0 forward_v I I I I #
coedge $-1 $507 $206 $506 $508 reversed $129 $-1 #
coedge $-1 $206 $507 $208 $345 reversed $129 $-1 #
coedge $-1 $509 $510 $206 $341 forward $504 $-1 #
edge $-1 $511 -8.384694003675385 $512 -2.5507568766541375 $340 $513 forward 7 unknown #
coedge $-1 $208 $207 $509 $514 reversed $82 $-1 #
coedge $-1 $515 $516 $207 $344 forward $517 $-1 #
edge $-1 $518 -77.358317819757673 $348 77.358317819757673 $343 $519 forward 7 unknown #
edge $-1 $512 -77.358317819757673 $349 77.358317819757673 $339 $520 forward 7 unknown #
coedge $-1 $521 $209 $507 $522 forward $204 $-1 #
coedge $-1 $209 $521 $515 $523 reversed $204 $-1 #
vertex $-1 $523 $524 #
vertex $-1 $210 $525 #
straight-curve $-1 77.358317819757673 14.240342917415305 -8.0184823168188988 0 -1 0 I I #
face $-1 $-1 $526 $48 $-1 $527 reversed single #
loop $-1 $-1 $217 $211 #
plane-surface $-1 0 0 13.852419443840146 0 0 1 1 0 0 forward_v I I I I #
coedge $-1 $528 $529 $530 $531 reversed $212 $-1 #
coedge $-1 $532 $214 $216 $361 forward $133 $-1 #
coedge $-1 $214 $532 $528 $533 forward $133 $-1 #
coedge $-1 $530 $217 $214 $358 forward $352 $-1 #
edge $-1 $364 1.8117893557958595 $534 10.438122873012347 $357 $535 forward 7 unknown #
coedge $-1 $536 $537 $215 $360 forward $526 $-1 #
edge $-1 $538 -106.42528015817859 $363 -98.391376440202336 $359 $539 forward 7 unknown #
edge $-1 $364 142.93668997846845 $538 154.71663563951537 $216 $540 forward 7 unknown #
coedge $-1 $217 $530 $536 $541 forward $352 $-1 #
vertex $-1 $360 $542 #
vertex $-1 $218 $543 #
straight-curve $-1 34.861113923814301 -7.9367454701999627 13.852419443840148 -1 0 0 I I #
coedge $-1 $366 $366 $-1 $544 reversed $221 $-1 #
edge $-1 $545 0 $545 6.2831853071796004 $222 $546 forward 7 unknown #
vertex $-1 $225 $547 #
ellipse-curve $-1 73.050664432253456 -14.837812283973154 9.8354675848520223 0.68199836817093118 0 0.7313536940579346 0.3656768470289673 0 -0.34099918408546559 1 I I #
coedge $-1 $370 $370 $-1 $548 reversed $228 $-1 #
edge $-1 $549 0 $549 6.2831853071796004 $229 $550 forward 7 unknown #
vertex $-1 $232 $551 #
ellipse-curve $-1 73.050664432253456 -12.249912228808206 9.8354675848520223 0.68199836817093118 0 0.7313536940579346 0.3656768470289673 0 -0.34099918408546559 1 I I #
coedge $-1 $374 $374 $-1 $552 reversed $235 $-1 #
edge $-1 $553 0 $553 6.2831853071796004 $236 $554 forward 7 unknown #
vertex $-1 $239 $555 #
ellipse-curve $-1 73.050664432253456 -9.6620121736432623 9.8354675848520223 0.68199836817093118 0 0.7313536940579346 0.3656768470289673 0 -0.34099918408546559 1 I I #
face $-1 $-1 $390 $52 $-1 $556 forward single #
loop $-1 $-1 $557 $240 #
plane-surface $-1 -77.358317819757673 0 0 1 0 0 0 0 -1 forward_v I I I I #
coedge $-1 $558 $559 $560 $561 reversed $241 $-1 #
coedge $-1 $562 $243 $245 $388 forward $152 $-1 #
coedge $-1 $243 $562 $558 $563 forward $152 $-1 #
coedge $-1 $560 $246 $243 $385 forward $390 $-1 #
edge $-1 $392 -10.742990014848157 $564 -4.5937687737211625 $384 $565 forward 7 unknown #
coedge $-1 $566 $567 $244 $387 forward $379 $-1 #
edge $-1 $568 -47.519343263479399 $391 -38.078172166222927 $386 $569 forward 7 unknown #
edge $-1 $392 -12.324573436871498 $568 -2.2061860048766535e-014 $245 $570 forward 7 unknown #
coedge $-1 $246 $560 $566 $571 forward $390 $-1 #
loop $-1 $-1 $560 $378 #
vertex $-1 $387 $572 #
vertex $-1 $247 $573 #
straight-curve $-1 -97.939069045776591 -18.411369409132817 13.852419443840148 1 0 0 I I #
coedge $-1 $394 $394 $-1 $574 reversed $250 $-1 #
edge $-1 $575 0 $575 6.2831853071796004 $251 $576 forward 7 unknown #
vertex $-1 $254 $577 #
ellipse-curve $-1 -73.397276330667736 -15.33675878856932 9.131833895211912 -0.7660444514056185 0 0.64278759981090561 0.64278759981090561 0 0.7660444514056185 1 I I #
face $-1 $-1 $578 $54 $-1 $579 reversed single #
loop $-1 $-1 $261 $255 #
plane-surface $-1 0 0 13.852419443840146 0 0 1 1 0 0 forward_v I I I I #
coedge $-1 $580 $581 $582 $583 reversed $256 $-1 #
coedge $-1 $584 $258 $260 $408 forward $161 $-1 #
coedge $-1 $258 $584 $580 $585 forward $161 $-1 #
coedge $-1 $582 $261 $258 $405 forward $399 $-1 #
edge $-1 $411 -5.6307370853250482 $586 0.5184841558019464 $404 $587 forward 7 unknown #
coedge $-1 $588 $589 $259 $407 forward $578 $-1 #
edge $-1 $590 -47.519343263479399 $410 -38.078172166222927 $406 $591 forward 7 unknown #
edge $-1 $411 -12.324573436871498 $590 -2.2061860048766535e-014 $260 $592 forward 7 unknown #
coedge $-1 $261 $582 $588 $593 forward $399 $-1 #
vertex $-1 $407 $594 #
vertex $-1 $262 $595 #
straight-curve $-1 -97.939069045776591 -8.1868635500865992 13.852419443840148 1 0 0 I I #
coedge $-1 $413 $413 $-1 $596 reversed $265 $-1 #
edge $-1 $597 0 $597 6.2831853071796004 $266 $598 forward 7 unknown #
vertex $-1 $269 $599 #
ellipse-curve $-1 -73.397276330667736 -5.1122529295231018 9.131833895211912 -0.7660444514056185 0 0.64278759981090561 0.64278759981090561 0 0.7660444514056185 1 I I #
face $-1 $-1 $600 $56 $-1 $601 reversed single #
loop $-1 $-1 $276 $270 #
plane-surface $-1 0 0 13.852419443840146 0 0 1 1 0 0 forward_v I I I I #
coedge $-1 $602 $603 $604 $605 reversed $271 $-1 #
coedge $-1 $606 $273 $275 $427 forward $170 $-1 #
coedge $-1 $273 $606 $602 $607 forward $170 $-1 #
coedge $-1 $604 $276 $273 $424 forward $418 $-1 #
edge $-1 $430 -0.51848415580193929 $608 5.6307370853250553 $423 $609 forward 7 unknown #
coedge $-1 $610 $611 $274 $426 forward $600 $-1 #
edge $-1 $612 -47.519343263479399 $429 -38.078172166222927 $425 $613 forward 7 unknown #
edge $-1 $430 -12.324573436871498 $612 -2.2061860048766535e-014 $275 $614 forward 7 unknown #
coedge $-1 $276 $604 $610 $615 forward $418 $-1 #
vertex $-1 $277 $616 #
vertex $-1 $277 $617 #
straight-curve $-1 -97.939069045776591 2.0376423089596187 13.852419443840148 1 0 0 I I #
coedge $-1 $432 $432 $-1 $618 reversed $280 $-1 #
edge $-1 $619 0 $619 6.2831853071796004 $281 $620 forward 7 unknown #
vertex $-1 $284 $621 #
ellipse-curve $-1 -73.397276330667736 5.1122529295231161 9.131833895211912 -0.7660444514056185 0 0.64278759981090561 0.64278759981090561 0 0.7660444514056185 1 I I #
face $-1 $-1 $622 $58 $-1 $623 reversed single #
loop $-1 $-1 $291 $285 #
plane-surface $-1 0 0 13.852419443840146 0 0 1 1 0 0 forward_v I I I I #
coedge $-1 $624 $625 $626 $627 reversed $286 $-1 #
coedge $-1 $628 $288 $290 $446 forward $179 $-1 #
coedge $-1 $288 $628 $624 $629 forward $179 $-1 #
coedge $-1 $626 $291 $288 $443 forward $437 $-1 #
edge $-1 $449 4.5937687737211697 $630 10.742990014848164 $442 $631 forward 7 unknown #
coedge $-1 $632 $633 $289 $445 forward $622 $-1 #
edge $-1 $634 -47.519343263479399 $448 -38.078172166222927 $444 $635 forward 7 unknown #
edge $-1 $449 -12.324573436871498 $634 -2.2061860048766535e-014 $290 $636 forward 7 unknown #
coedge $-1 $291 $626 $632 $637 forward $437 $-1 #
vertex $-1 $292 $638 #
vertex $-1 $292 $639 #
straight-curve $-1 -97.939069045776591 12.262148168005837 13.852419443840148 1 0 0 I I #
coedge $-1 $451 $451 $-1 $640 reversed $295 $-1 #
edge $-1 $641 0 $641 6.2831853071796004 $296 $642 forward 7 unknown #
vertex $-1 $299 $643 #
ellipse-curve $-1 -73.397276330667736 15.336758788569334 9.131833895211912 -0.7660444514056185 0 0.64278759981090561 0.64278759981090561 0 0.7660444514056185 1 I I #
face $-1 $-1 $315 $45 $-1 $644 reversed single #
loop $-1 $-1 $471 $300 #
plane-surface $-1 0 36.549898774936992 0 0 -1 0 0 0 -1 forward_v I I I I #
coedge $-1 $645 $469 $472 $646 forward $301 $-1 #
coedge $-1 $475 $303 $304 $463 reversed $188 $-1 #
coedge $-1 $469 $645 $303 $461 reversed $301 $-1 #
edge $-1 $476 -13.852419443840146 $647 13.852419443840146 $460 $648 forward 7 unknown #
coedge $-1 $305 $304 $645 $649 forward $121 $-1 #
edge $-1 $467 -77.358317819757673 $647 77.358317819757673 $459 $650 forward 7 unknown #
coedge $-1 $472 $471 $305 $465 reversed $456 $-1 #
edge $-1 $651 -77.358317819757673 $466 77.358317819757673 $464 $652 forward 7 unknown #
vertex $-1 $307 $653 #
vertex $-1 $478 $654 #
straight-curve $-1 77.358317819757673 0 -13.852419443840146 0 -1 0 I I #
coedge $-1 $458 $460 $308 $470 reversed $301 $-1 #
edge $-1 $473 -36.549898774936992 $476 36.549898774936992 $469 $655 forward 7 unknown #
coedge $-1 $464 $309 $314 $479 forward $456 $-1 #
coedge $-1 $309 $464 $458 $646 reversed $456 $-1 #
vertex $-1 $310 $656 #
straight-curve $-1 0 36.549898774936992 13.852419443840146 -1 0 0 I I #
coedge $-1 $311 $459 $313 $478 reversed $188 $-1 #
vertex $-1 $470 $657 #
straight-curve $-1 0 -36.549898774936992 13.852419443840146 1 0 0 I I #
edge $-1 $316 -13.852419443840146 $467 13.852419443840146 $313 $658 forward 7 unknown #
edge $-1 $317 -13.852419443840146 $466 13.852419443840146 $314 $659 forward 7 unknown #
point $-1 77.358317819757673 -36.549898774936992 13.852419443840146 #
point $-1 77.358317819757673 36.549898774936992 13.852419443840146 #
face $-1 $-1 $660 $46 $-1 $661 reversed single #
loop $-1 $-1 $329 $319 #
plane-surface $-1 0 -36.549898774936992 0 0 1 0 0 0 1 forward_v I I I I #
coedge $-1 $662 $322 $489 $663 forward $196 $-1 #
coedge $-1 $322 $662 $664 $665 forward $196 $-1 #
edge $-1 $666 -77.358317819757673 $490 77.358317819757673 $322 $667 forward 7 unknown #
coedge $-1 $324 $323 $668 $669 reversed $125 $-1 #
coedge $-1 $325 $331 $485 $663 reversed $320 $-1 #
vertex $-1 $663 $670 #
straight-curve $-1 77.358317819757673 -20.411472894724241 -5.4677254401647613 0 0 1 I I #
coedge $-1 $668 $671 $327 $493 forward $660 $-1 #
edge $-1 $498 -22.309555857521683 $494 -6.171129977308933 $492 $672 forward 7 unknown #
vertex $-1 $493 $673 #
straight-curve $-1 0 -20.411472894724241 -8.0184823168188988 -1 0 0 I I #
coedge $-1 $674 $329 $671 $675 forward $483 $-1 #
coedge $-1 $329 $674 $331 $500 reversed $483 $-1 #
vertex $-1 $675 $676 #
straight-curve $-1 0 -36.549898774936992 -8.0184823168188988 -1 0 0 I I #
edge $-1 $333 8.0184823168188988 $677 13.852419443840146 $331 $678 forward 7 unknown #
point $-1 77.358317819757673 -20.411472894724241 -8.0184823168188988 #
point $-1 77.358317819757673 -36.549898774936992 -8.0184823168188988 #
face $-1 $-1 $517 $47 $-1 $679 reversed single #
loop $-1 $-1 $509 $335 #
plane-surface $-1 -77.358317819757673 0 0 1 0 0 0 0 -1 forward_v I I I I #
coedge $-1 $680 $681 $338 $508 forward $336 $-1 #
coedge $-1 $339 $338 $346 $522 reversed $129 $-1 #
edge $-1 $682 -77.358317819757673 $511 77.358317819757673 $506 $683 forward 7 unknown #
coedge $-1 $684 $340 $342 $514 forward $504 $-1 #
coedge $-1 $340 $684 $680 $685 reversed $504 $-1 #
vertex $-1 $685 $686 #
vertex $-1 $514 $687 #
straight-curve $-1 -77.358317819757673 20.411472894724234 -5.4677254401647613 0 0 1 I I #
edge $-1 $512 6.1711299773089294 $518 22.30955585752168 $509 $688 forward 7 unknown #
coedge $-1 $689 $343 $347 $523 forward $517 $-1 #
coedge $-1 $343 $689 $684 $690 reversed $517 $-1 #
loop $-1 $-1 $343 $503 #
vertex $-1 $690 $691 #
straight-curve $-1 0 36.549898774936992 -8.0184823168188988 1 0 0 I I #
straight-curve $-1 0 20.411472894724234 -8.0184823168188988 1 0 0 I I #
coedge $-1 $347 $346 $681 $692 reversed $204 $-1 #
edge $-1 $349 2.5507568766541375 $682 8.384694003675385 $346 $693 forward 7 unknown #
edge $-1 $348 8.0184823168188988 $694 13.852419443840146 $347 $695 forward 7 unknown #
point $-1 77.358317819757673 36.549898774936985 -8.0184823168188988 #
point $-1 77.358317819757673 20.411472894724234 -8.0184823168188988 #
loop $-1 $-1 $359 $351 #
plane-surface $-1 77.358317819757673 0 0 -1 0 0 0 0 1 forward_v I I I I #
coedge $-1 $529 $354 $356 $533 reversed $212 $-1 #
coedge $-1 $354 $528 $696 $697 reversed $212 $-1 #
coedge $-1 $362 $357 $354 $531 forward $352 $-1 #
edge $-1 $534 33.881897120934966 $698 42.497203895943372 $530 $699 forward 7 unknown #
coedge $-1 $356 $355 $537 $700 reversed $133 $-1 #
edge $-1 $701 -154.71663563951537 $534 -142.93668997846845 $528 $702 forward 7 unknown #
vertex $-1 $358 $703 #
straight-curve $-1 68.743011044749267 -6.1249561144041031 13.852419443840148 0 -1 0 I I #
coedge $-1 $696 $359 $362 $541 reversed $526 $-1 #
coedge $-1 $359 $696 $532 $700 forward $526 $-1 #
vertex $-1 $360 $704 #
straight-curve $-1 77.358317819757673 -7.9367454701999627 112.24379588404248 0 0 1 I I #
straight-curve $-1 -35.794265187417395 -7.9367454701999627 111.33500876090991 0.7313536940579346 0 -0.68199836817093118 I I #
edge $-1 $698 -16.56307898741645 $363 -7.9367454701999627 $536 $705 forward 7 unknown #
point $-1 77.358317819757673 -7.9367454701999627 13.852419443840146 #
point $-1 68.743011044749267 -7.9367454701999627 13.852419443840134 #
edge $-1 $706 1 $706 0 $366 $-1 forward 7 unknown #
vertex $-1 $367 $707 #
ellipse-curve $-1 71.932621695871219 -14.837812283973154 8.6365135645355799 0.68199836817093118 0 0.7313536940579346 0.3656768470289673 0 -0.34099918408546559 1 I I #
point $-1 73.416341279282463 -14.837812283973154 9.4944684007665945 #
edge $-1 $708 1 $708 0 $370 $-1 forward 7 unknown #
vertex $-1 $371 $709 #
ellipse-curve $-1 71.932621695871219 -12.249912228808206 8.6365135645355799 0.68199836817093118 0 0.7313536940579346 0.3656768470289673 0 -0.34099918408546559 1 I I #
point $-1 73.416341279282463 -12.249912228808206 9.4944684007665945 #
edge $-1 $710 1 $710 0 $374 $-1 forward 7 unknown #
vertex $-1 $375 $711 #
ellipse-curve $-1 71.932621695871219 -9.6620121736432623 8.6365135645355799 0.68199836817093118 0 0.7313536940579346 0.3656768470289673 0 -0.34099918408546559 1 I I #
point $-1 73.416341279282463 -9.6620121736432623 9.4944684007665945 #
plane-surface $-1 0 0 13.852419443840146 0 0 1 1 0 0 forward_v I I I I #
coedge $-1 $567 $566 $559 $712 forward $379 $-1 #
coedge $-1 $559 $381 $383 $563 reversed $241 $-1 #
coedge $-1 $381 $558 $557 $712 reversed $241 $-1 #
coedge $-1 $389 $384 $381 $561 forward $390 $-1 #
edge $-1 $564 -28.502834204198777 $713 -20.580751226018918 $560 $714 forward 7 unknown #
coedge $-1 $383 $382 $567 $715 reversed $152 $-1 #
edge $-1 $716 2.2061860048766535e-014 $564 12.324573436871498 $558 $717 forward 7 unknown #
vertex $-1 $385 $718 #
straight-curve $-1 -69.436234841577814 -7.6683793942846599 13.852419443840146 0 1 0 I I #
coedge $-1 $557 $386 $389 $571 reversed $379 $-1 #
coedge $-1 $386 $557 $562 $715 forward $379 $-1 #
vertex $-1 $387 $719 #
straight-curve $-1 -77.358317819757673 -18.411369409132817 51.930591610063075 0 0 1 I I #
straight-curve $-1 -77.358317819757687 -18.411369409132817 4.4112483465836618 -0.64278759981090561 0 -0.7660444514056185 I I #
edge $-1 $713 12.262148168005822 $391 18.411369409132817 $566 $720 forward 7 unknown #
point $-1 -77.358317819757673 -18.411369409132817 13.852419443840146 #
point $-1 -69.436234841577814 -18.411369409132817 13.852419443840146 #
edge $-1 $721 1 $721 0 $394 $-1 forward 7 unknown #
vertex $-1 $395 $722 #
ellipse-curve $-1 -70.870056713463001 -15.33675878856932 7.0112449020309917 -0.7660444514056185 0 0.64278759981090561 0.64278759981090561 0 0.7660444514056185 1 I I #
point $-1 -72.754488730856835 -15.33675878856932 9.8978783466175209 #
loop $-1 $-1 $406 $398 #
plane-surface $-1 -77.358317819757673 0 0 1 0 0 0 0 -1 forward_v I I I I #
coedge $-1 $581 $401 $403 $585 reversed $256 $-1 #
coedge $-1 $401 $580 $723 $724 reversed $256 $-1 #
coedge $-1 $409 $404 $401 $583 forward $399 $-1 #
edge $-1 $586 -28.502834204198777 $725 -20.580751226018918 $582 $726 forward 7 unknown #
coedge $-1 $403 $402 $589 $727 reversed $161 $-1 #
edge $-1 $728 2.2061860048766535e-014 $586 12.324573436871498 $580 $729 forward 7 unknown #
vertex $-1 $405 $730 #
straight-curve $-1 -69.436234841577814 -2.5561264647615509 13.852419443840146 0 1 0 I I #
coedge $-1 $723 $406 $409 $593 reversed $578 $-1 #
coedge $-1 $406 $723 $584 $727 forward $578 $-1 #
vertex $-1 $407 $731 #
straight-curve $-1 -77.358317819757673 -8.1868635500865992 51.930591610063075 0 0 1 I I #
straight-curve $-1 -77.358317819757687 -8.1868635500865992 4.4112483465836618 -0.64278759981090561 0 -0.7660444514056185 I I #
edge $-1 $725 2.0376423089596045 $410 8.1868635500865992 $588 $732 forward 7 unknown #
point $-1 -77.358317819757673 -8.1868635500865992 13.852419443840146 #
point $-1 -69.436234841577814 -8.1868635500865992 13.852419443840146 #
edge $-1 $733 1 $733 0 $413 $-1 forward 7 unknown #
vertex $-1 $414 $734 #
ellipse-curve $-1 -70.870056713463001 -5.1122529295231018 7.0112449020309917 -0.7660444514056185 0 0.64278759981090561 0.64278759981090561 0 0.7660444514056185 1 I I #
point $-1 -72.754488730856835 -5.1122529295231018 9.8978783466175209 #
loop $-1 $-1 $425 $417 #
plane-surface $-1 -77.358317819757673 0 0 1 0 0 0 0 -1 forward_v I I I I #
coedge $-1 $603 $420 $422 $607 reversed $271 $-1 #
coedge $-1 $420 $602 $735 $736 reversed $271 $-1 #
coedge $-1 $428 $423 $420 $605 forward $418 $-1 #
edge $-1 $608 -28.502834204198777 $737 -20.580751226018918 $604 $738 forward 7 unknown #
coedge $-1 $422 $421 $611 $739 reversed $170 $-1 #
edge $-1 $740 2.2061860048766535e-014 $608 12.324573436871498 $602 $741 forward 7 unknown #
vertex $-1 $424 $742 #
straight-curve $-1 -69.436234841577814 2.556126464761558 13.852419443840146 0 1 0 I I #
coedge $-1 $735 $425 $428 $615 reversed $600 $-1 #
coedge $-1 $425 $735 $606 $739 forward $600 $-1 #
vertex $-1 $426 $743 #
straight-curve $-1 -77.358317819757673 2.0376423089596187 51.930591610063075 0 0 1 I I #
straight-curve $-1 -77.358317819757687 2.0376423089596187 4.4112483465836618 -0.64278759981090561 0 -0.7660444514056185 I I #
edge $-1 $737 -8.1868635500866134 $429 -2.0376423089596187 $610 $744 forward 7 unknown #
point $-1 -77.358317819757673 2.0376423089596187 13.852419443840146 #
point $-1 -69.436234841577814 2.0376423089596187 13.852419443840146 #
edge $-1 $745 1 $745 0 $432 $-1 forward 7 unknown #
vertex $-1 $433 $746 #
ellipse-curve $-1 -70.870056713463001 5.1122529295231161 7.0112449020309917 -0.7660444514056185 0 0.64278759981090561 0.64278759981090561 0 0.7660444514056185 1 I I #
point $-1 -72.754488730856835 5.1122529295231161 9.8978783466175209 #
loop $-1 $-1 $444 $436 #
plane-surface $-1 -77.358317819757673 0 0 1 0 0 0 0 -1 forward_v I I I I #
coedge $-1 $625 $439 $441 $629 reversed $286 $-1 #
coedge $-1 $439 $624 $747 $748 reversed $286 $-1 #
coedge $-1 $447 $442 $439 $627 forward $437 $-1 #
edge $-1 $630 -28.502834204198777 $749 -20.580751226018918 $626 $750 forward 7 unknown #
coedge $-1 $441 $440 $633 $751 reversed $179 $-1 #
edge $-1 $752 2.2061860048766535e-014 $630 12.324573436871498 $624 $753 forward 7 unknown #
vertex $-1 $443 $754 #
straight-curve $-1 -69.436234841577814 7.668379394284667 13.852419443840146 0 1 0 I I #
coedge $-1 $747 $444 $447 $637 reversed $622 $-1 #
coedge $-1 $444 $747 $628 $751 forward $622 $-1 #
vertex $-1 $445 $755 #
straight-curve $-1 -77.358317819757673 12.262148168005837 51.930591610063075 0 0 1 I I #
straight-curve $-1 -77.358317819757687 12.262148168005837 4.4112483465836618 -0.64278759981090561 0 -0.7660444514056185 I I #
edge $-1 $749 -18.411369409132831 $448 -12.262148168005837 $632 $756 forward 7 unknown #
point $-1 -77.358317819757673 12.262148168005837 13.852419443840146 #
point $-1 -69.436234841577814 12.262148168005837 13.852419443840146 #
edge $-1 $757 1 $757 0 $451 $-1 forward 7 unknown #
vertex $-1 $452 $758 #
ellipse-curve $-1 -70.870056713463001 15.336758788569334 7.0112449020309917 -0.7660444514056185 0 0.64278759981090561 0.64278759981090561 0 0.7660444514056185 1 I I #
point $-1 -72.754488730856835 15.336758788569334 9.8978783466175209 #
plane-surface $-1 77.358317819757673 0 0 -1 0 0 0 0 1 forward_v I I I I #
coedge $-1 $460 $458 $462 $649 reversed $301 $-1 #
edge $-1 $473 -13.852419443840146 $651 13.852419443840146 $472 $759 forward 7 unknown #
vertex $-1 $649 $760 #
straight-curve $-1 -77.358317819757673 -36.549898774936992 0 0 0 -1 I I #
edge $-1 $647 -36.549898774936992 $651 36.549898774936992 $645 $761 forward 7 unknown #
straight-curve $-1 0 -36.549898774936992 -13.852419443840146 -1 0 0 I I #
vertex $-1 $465 $762 #
straight-curve $-1 0 36.549898774936992 -13.852419443840146 1 0 0 I I #
point $-1 77.358317819757673 36.549898774936992 -13.852419443840146 #
point $-1 77.358317819757673 -36.549898774936992 -13.852419443840146 #
straight-curve $-1 -77.358317819757673 0 13.852419443840146 0 -1 0 I I #
point $-1 -77.358317819757673 36.549898774936992 13.852419443840146 #
point $-1 -77.358317819757673 -36.549898774936992 13.852419443840146 #
straight-curve $-1 77.358317819757673 -36.549898774936992 0 0 0 -1 I I #
straight-curve $-1 77.358317819757673 36.549898774936992 0 0 0 -1 I I #
loop $-1 $-1 $668 $482 #
plane-surface $-1 -77.358317819757673 0 0 1 0 0 0 0 -1 forward_v I I I I #
coedge $-1 $486 $485 $674 $763 forward $196 $-1 #
edge $-1 $490 20.411472894724241 $677 36.549898774936992 $489 $764 forward 7 unknown #
coedge $-1 $671 $668 $486 $665 reversed $660 $-1 #
edge $-1 $765 -36.549898774936992 $666 -20.411472894724241 $664 $766 forward 7 unknown #
vertex $-1 $669 $767 #
straight-curve $-1 0 -20.411472894724241 -13.852419443840146 1 0 0 I I #
coedge $-1 $664 $492 $488 $669 forward $660 $-1 #
edge $-1 $494 2.5507568766541375 $666 8.384694003675385 $668 $768 forward 7 unknown #
point $-1 77.358317819757673 -20.411472894724241 -13.852419443840146 #
coedge $-1 $492 $664 $496 $675 reversed $660 $-1 #
straight-curve $-1 -77.358317819757673 -14.240342917415308 -8.0184823168188988 0 1 0 I I #
point $-1 -77.358317819757673 -20.411472894724241 -8.0184823168188988 #
coedge $-1 $497 $496 $662 $763 reversed $483 $-1 #
edge $-1 $498 8.0184823168188988 $765 13.852419443840146 $671 $769 forward 7 unknown #
point $-1 -77.358317819757673 -36.549898774936992 -8.0184823168188988 #
vertex $-1 $500 $770 #
straight-curve $-1 77.358317819757673 -36.549898774936992 0 0 0 -1 I I #
plane-surface $-1 0 36.549898774936992 0 0 -1 0 0 0 -1 forward_v I I I I #
coedge $-1 $771 $506 $510 $685 forward $336 $-1 #
coedge $-1 $506 $771 $521 $692 forward $336 $-1 #
vertex $-1 $508 $772 #
straight-curve $-1 0 20.411472894724234 -13.852419443840146 -1 0 0 I I #
coedge $-1 $510 $509 $516 $690 forward $504 $-1 #
edge $-1 $511 20.411472894724234 $773 36.549898774936992 $510 $774 forward 7 unknown #
point $-1 -77.358317819757673 20.411472894724234 -13.852419443840146 #
point $-1 -77.358317819757673 20.411472894724234 -8.0184823168188988 #
straight-curve $-1 -77.358317819757673 14.240342917415305 -8.0184823168188988 0 1 0 I I #
coedge $-1 $516 $515 $771 $775 reversed $517 $-1 #
edge $-1 $518 8.0184823168188988 $773 13.852419443840146 $516 $776 forward 7 unknown #
point $-1 -77.358317819757673 36.549898774936985 -8.0184823168188988 #
edge $-1 $694 -36.549898774936992 $682 -20.411472894724234 $521 $777 forward 7 unknown #
straight-curve $-1 77.358317819757673 20.411472894724234 -5.4677254401647613 0 0 -1 I I #
vertex $-1 $692 $778 #
straight-curve $-1 77.358317819757673 36.549898774936992 0 0 0 -1 I I #
coedge $-1 $537 $536 $529 $697 forward $526 $-1 #
edge $-1 $698 98.391376440202336 $701 106.42528015817859 $696 $779 forward 7 unknown #
vertex $-1 $541 $780 #
straight-curve $-1 34.861113923814301 -16.56307898741645 13.852419443840148 1 0 0 I I #
edge $-1 $701 -10.438122873012347 $538 -1.8117893557958595 $537 $781 forward 7 unknown #
vertex $-1 $700 $782 #
straight-curve $-1 -35.794265187417395 -16.56307898741645 111.33500876090991 -0.7313536940579346 0 0.68199836817093118 I I #
point $-1 68.743011044749267 -16.56307898741645 13.852419443840134 #
point $-1 77.358317819757673 -7.9367454701999627 5.8185157258638895 #
straight-curve $-1 77.358317819757673 0 13.852419443840146 0 1 0 I I #
vertex $-1 $544 $783 #
point $-1 72.298298542900184 -14.837812283973154 8.295514380450113 #
vertex $-1 $548 $784 #
point $-1 72.298298542900184 -12.249912228808206 8.295514380450113 #
vertex $-1 $552 $785 #
point $-1 72.298298542900184 -9.6620121736432623 8.295514380450113 #
edge $-1 $713 38.078172166222927 $716 47.519343263479399 $557 $786 forward 7 unknown #
vertex $-1 $571 $787 #
straight-curve $-1 -97.939069045776591 -12.262148168005822 13.852419443840148 -1 0 0 I I #
edge $-1 $716 4.5937687737211625 $568 10.742990014848157 $567 $788 forward 7 unknown #
vertex $-1 $715 $789 #
straight-curve $-1 -77.358317819757687 -12.262148168005822 4.4112483465836618 0.64278759981090561 0 0.7660444514056185 I I #
point $-1 -69.436234841577814 -12.262148168005822 13.852419443840146 #
point $-1 -77.358317819757673 -18.411369409132817 4.4112483465836787 #
straight-curve $-1 -77.358317819757673 0 13.852419443840146 0 -1 0 I I #
vertex $-1 $574 $790 #
point $-1 -70.227269113652099 -15.33675878856932 7.7772893534366103 #
coedge $-1 $589 $588 $581 $724 forward $578 $-1 #
edge $-1 $725 38.078172166222927 $728 47.519343263479399 $723 $791 forward 7 unknown #
vertex $-1 $593 $792 #
straight-curve $-1 -97.939069045776591 -2.0376423089596045 13.852419443840148 -1 0 0 I I #
edge $-1 $728 -0.5184841558019464 $590 5.6307370853250482 $589 $793 forward 7 unknown #
vertex $-1 $727 $794 #
straight-curve $-1 -77.358317819757687 -2.0376423089596045 4.4112483465836618 0.64278759981090561 0 0.7660444514056185 I I #
point $-1 -69.436234841577814 -2.0376423089596045 13.852419443840146 #
point $-1 -77.358317819757673 -8.1868635500865992 4.4112483465836787 #
straight-curve $-1 -77.358317819757673 0 13.852419443840146 0 -1 0 I I #
vertex $-1 $596 $795 #
point $-1 -70.227269113652099 -5.1122529295231018 7.7772893534366103 #
coedge $-1 $611 $610 $603 $736 forward $600 $-1 #
edge $-1 $737 38.078172166222927 $740 47.519343263479399 $735 $796 forward 7 unknown #
vertex $-1 $615 $797 #
straight-curve $-1 -97.939069045776591 8.1868635500866134 13.852419443840148 -1 0 0 I I #
edge $-1 $740 -5.6307370853250553 $612 0.51848415580193929 $611 $798 forward 7 unknown #
vertex $-1 $739 $799 #
straight-curve $-1 -77.358317819757687 8.1868635500866134 4.4112483465836618 0.64278759981090561 0 0.7660444514056185 I I #
point $-1 -69.436234841577814 8.1868635500866134 13.852419443840146 #
point $-1 -77.358317819757673 2.0376423089596187 4.4112483465836787 #
straight-curve $-1 -77.358317819757673 0 13.852419443840146 0 -1 0 I I #
vertex $-1 $618 $800 #
point $-1 -70.227269113652099 5.1122529295231161 7.7772893534366103 #
coedge $-1 $633 $632 $625 $748 forward $622 $-1 #
edge $-1 $749 38.078172166222927 $752 47.519343263479399 $747 $801 forward 7 unknown #
vertex $-1 $637 $802 #
straight-curve $-1 -97.939069045776591 18.411369409132831 13.852419443840148 -1 0 0 I I #
edge $-1 $752 -10.742990014848164 $634 -4.5937687737211697 $633 $803 forward 7 unknown #
vertex $-1 $751 $804 #
straight-curve $-1 -77.358317819757687 18.411369409132831 4.4112483465836618 0.64278759981090561 0 0.7660444514056185 I I #
point $-1 -69.436234841577814 18.411369409132831 13.852419443840146 #
point $-1 -77.358317819757673 12.262148168005837 4.4112483465836787 #
straight-curve $-1 -77.358317819757673 0 13.852419443840146 0 -1 0 I I #
vertex $-1 $640 $805 #
point $-1 -70.227269113652099 15.336758788569334 7.7772893534366103 #
straight-curve $-1 -77.358317819757673 36.549898774936992 0 0 0 -1 I I #
point $-1 -77.358317819757673 -36.549898774936992 -13.852419443840146 #
straight-curve $-1 -77.358317819757673 0 -13.852419443840146 0 1 0 I I #
point $-1 -77.358317819757673 36.549898774936992 -13.852419443840146 #
edge $-1 $677 -77.358317819757673 $765 77.358317819757673 $674 $806 forward 7 unknown #
straight-curve $-1 77.358317819757673 0 -13.852419443840146 0 -1 0 I I #
vertex $-1 $665 $807 #
straight-curve $-1 -77.358317819757673 0 -13.852419443840146 0 1 0 I I #
point $-1 -77.358317819757673 -20.411472894724241 -13.852419443840146 #
straight-curve $-1 -77.358317819757673 -20.411472894724241 -5.4677254401647613 0 0 -1 I I #
straight-curve $-1 -77.358317819757673 -36.549898774936992 0 0 0 -1 I I #
point $-1 77.358317819757673 -36.549898774936992 -13.852419443840146 #
coedge $-1 $681 $680 $689 $775 forward $336 $-1 #
point $-1 77.358317819757673 20.411472894724234 -13.852419443840146 #
vertex $-1 $775 $808 #
straight-curve $-1 -77.358317819757673 0 -13.852419443840146 0 1 0 I I #
edge $-1 $773 -77.358317819757673 $694 77.358317819757673 $689 $809 forward 7 unknown #
straight-curve $-1 -77.358317819757673 36.549898774936992 0 0 0 -1 I I #
straight-curve $-1 77.358317819757673 0 -13.852419443840146 0 -1 0 I I #
point $-1 77.358317819757673 36.549898774936992 -13.852419443840146 #
straight-curve $-1 77.358317819757673 -16.56307898741645 112.24379588404248 0 0 -1 I I #
point $-1 77.358317819757673 -16.56307898741645 13.852419443840146 #
straight-curve $-1 77.358317819757673 -6.1249561144041031 5.8185157258639038 0 1 0 I I #
point $-1 77.358317819757673 -16.56307898741645 5.8185157258638895 #
point $-1 71.591622511785758 -14.837812283973154 8.2708367175066115 #
point $-1 71.591622511785758 -12.249912228808206 8.2708367175066115 #
point $-1 71.591622511785758 -9.6620121736432623 8.2708367175066115 #
straight-curve $-1 -77.358317819757673 -12.262148168005822 51.930591610063075 0 0 -1 I I #
point $-1 -77.358317819757673 -12.262148168005822 13.852419443840146 #
straight-curve $-1 -77.358317819757673 -7.6683793942846599 4.4112483465836689 0 -1 0 I I #
point $-1 -77.358317819757673 -12.262148168005822 4.4112483465836787 #
point $-1 -70.104012262057395 -15.33675878856932 6.3684573022200865 #
straight-curve $-1 -77.358317819757673 -2.0376423089596045 51.930591610063075 0 0 -1 I I #
point $-1 -77.358317819757673 -2.0376423089596045 13.852419443840146 #
straight-curve $-1 -77.358317819757673 -2.5561264647615509 4.4112483465836689 0 -1 0 I I #
point $-1 -77.358317819757673 -2.0376423089596045 4.4112483465836787 #
point $-1 -70.104012262057395 -5.1122529295231018 6.3684573022200865 #
straight-curve $-1 -77.358317819757673 8.1868635500866134 51.930591610063075 0 0 -1 I I #
point $-1 -77.358317819757673 8.1868635500866134 13.852419443840146 #
straight-curve $-1 -77.358317819757673 2.556126464761558 4.4112483465836689 0 -1 0 I I #
point $-1 -77.358317819757673 8.1868635500866134 4.4112483465836787 #
point $-1 -70.104012262057395 5.1122529295231161 6.3684573022200865 #
straight-curve $-1 -77.358317819757673 18.411369409132831 51.930591610063075 0 0 -1 I I #
point $-1 -77.358317819757673 18.411369409132831 13.852419443840146 #
straight-curve $-1 -77.358317819757673 7.668379394284667 4.4112483465836689 0 -1 0 I I #
point $-1 -77.358317819757673 18.411369409132831 4.4112483465836787 #
point $-1 -70.104012262057395 15.336758788569334 6.3684573022200865 #
straight-curve $-1 0 -36.549898774936992 -13.852419443840146 -1 0 0 I I #
point $-1 -77.358317819757673 -36.549898774936992 -13.852419443840146 #
point $-1 -77.358317819757673 36.549898774936992 -13.852419443840146 #
straight-curve $-1 0 36.549898774936992 -13.852419443840146 1 0 0 I I #
End-of-ACIS-data 