500 0 4 0           
7 Unknown 11 ACIS 5.0 NT 24 Fri Mar 26 15:52:30 1999 
-1 9.9999999999999995e-007 1e-010 
body $-1 $4 $-1 $5 #
body $-1 $6 $-1 $7 #
body $-1 $8 $-1 $9 #
body $-1 $10 $-1 $11 #
lump $-1 $-1 $12 $0 #
transform $-1 1 0 0 0 1 0 0 0 1 62.217474898525957 31.945911578196363 11.895457513592623 1 rotate no_reflect no_shear #
lump $-1 $-1 $13 $1 #
transform $-1 0.49999998660252726 0 0.86602541151947299 0 1 0 -0.86602541151947299 0 0.49999998660252726 -107.76382860539685 59.748223840053349 76.031723851058771 1 rotate no_reflect no_shear #
lump $-1 $-1 $14 $2 #
transform $-1 0.49999998660252726 0 0.86602541151947299 0 -1 0 0.86602541151947299 0 -0.49999998660252726 4.3442128047842843 57.972395561622186 17.957227763209442 1 rotate no_reflect no_shear #
lump $-1 $-1 $15 $3 #
transform $-1 0.49999998660252726 0 0.86602541151947299 0 -1 0 0.86602541151947299 0 -0.49999998660252726 4.3442128047842843 61.524052118484512 17.957227763209442 1 rotate no_reflect no_shear #
shell $-1 $-1 $-1 $16 $-1 $4 #
shell $-1 $-1 $-1 $17 $-1 $6 #
shell $-1 $-1 $-1 $18 $-1 $8 #
shell $-1 $-1 $-1 $19 $-1 $10 #
face $-1 $20 $21 $12 $-1 $22 forward single #
face $-1 $23 $24 $13 $-1 $25 forward single #
face $-1 $26 $27 $14 $-1 $28 forward single #
face $-1 $29 $30 $15 $-1 $31 forward single #
face $-1 $32 $33 $12 $-1 $34 reversed single #
loop $-1 $-1 $35 $16 #
plane-surface $-1 0 0 11.895457513592623 0 0 1 1 0 0 forward_v I I I I #
face $-1 $36 $37 $13 $-1 $38 reversed single #
loop $-1 $-1 $39 $17 #
plane-surface $-1 0 0 124.43494979705193 0 0 1 1 0 0 forward_v I I I I #
face $-1 $40 $41 $14 $-1 $42 forward single #
loop $-1 $43 $44 $18 #
cone-surface $-1 0 0 -1.0953550828577523 0 0 1 1 0 0 1 I I 0 1 1 forward I I I I #
face $-1 $45 $46 $15 $-1 $47 forward single #
loop $-1 $48 $49 $19 #
cone-surface $-1 0 0 -1.0953550828577523 0 0 1 1 0 0 1 I I 0 1 1 forward I I I I #
face $-1 $50 $51 $12 $-1 $52 reversed single #
loop $-1 $-1 $53 $20 #
plane-surface $-1 0 0 -11.895457513592623 0 0 1 1 0 0 forward_v I I I I #
coedge $-1 $54 $55 $56 $57 forward $21 $-1 #
face $-1 $58 $59 $13 $-1 $60 reversed single #
loop $-1 $-1 $61 $23 #
plane-surface $-1 0 0 -124.43494979705193 0 0 1 1 0 0 forward_v I I I I #
coedge $-1 $62 $63 $64 $65 forward $24 $-1 #
face $-1 $-1 $66 $14 $-1 $67 forward single #
loop $-1 $-1 $68 $26 #
plane-surface $-1 0 0 -1.6907101657155055 0 0 -1 -1 0 0 forward_v I I I I #
loop $-1 $-1 $69 $18 #
coedge $-1 $44 $44 $68 $70 reversed $27 $-1 #
face $-1 $-1 $71 $15 $-1 $72 forward single #
loop $-1 $-1 $73 $29 #
plane-surface $-1 0 0 -1.6907101657155055 0 0 -1 -1 0 0 forward_v I I I I #
loop $-1 $-1 $74 $19 #
coedge $-1 $49 $49 $73 $75 reversed $30 $-1 #
face $-1 $76 $77 $12 $-1 $78 reversed single #
loop $-1 $-1 $79 $32 #
plane-surface $-1 0 -31.945911578196363 0 0 1 0 0 0 1 forward_v I I I I #
coedge $-1 $80 $81 $82 $83 forward $33 $-1 #
coedge $-1 $84 $35 $85 $86 forward $21 $-1 #
coedge $-1 $35 $84 $87 $88 forward $21 $-1 #
coedge $-1 $89 $90 $35 $57 reversed $91 $-1 #
edge $-1 $92 -31.945911578196363 $93 31.945911578196363 $56 $94 forward 7 unknown #
face $-1 $95 $96 $13 $-1 $97 reversed single #
loop $-1 $-1 $98 $36 #
plane-surface $-1 0 -4.1435993163393761 0 0 1 0 0 0 1 forward_v I I I I #
coedge $-1 $99 $100 $101 $102 forward $37 $-1 #
coedge $-1 $103 $39 $104 $105 forward $24 $-1 #
coedge $-1 $39 $103 $106 $107 forward $24 $-1 #
coedge $-1 $108 $109 $39 $65 reversed $110 $-1 #
edge $-1 $111 -4.1435993163393761 $112 4.1435993163393761 $64 $113 forward 7 unknown #
loop $-1 $114 $115 $40 #
cone-surface $-1 0 0 0 0 0 1 0.5 0 0 1 I I -0.70710678118654746 0.70710678118654746 0.5 forward I I I I #
coedge $-1 $68 $68 $44 $70 forward $41 $-1 #
coedge $-1 $69 $69 $115 $116 forward $43 $-1 #
edge $-1 $117 0 $117 6.2831853071796004 $68 $118 forward 7 unknown #
loop $-1 $119 $120 $45 #
cone-surface $-1 0 0 0 0 0 1 0.5 0 0 1 I I -0.70710678118654746 0.70710678118654746 0.5 forward I I I I #
coedge $-1 $73 $73 $49 $75 forward $46 $-1 #
coedge $-1 $74 $74 $120 $121 forward $48 $-1 #
edge $-1 $122 0 $122 6.2831853071796004 $73 $123 forward 7 unknown #
face $-1 $124 $125 $12 $-1 $126 reversed single #
loop $-1 $-1 $127 $50 #
plane-surface $-1 -62.217474898525957 0 0 1 0 0 0 0 -1 forward_v I I I I #
coedge $-1 $128 $87 $129 $130 forward $51 $-1 #
coedge $-1 $131 $53 $128 $132 forward $33 $-1 #
coedge $-1 $53 $131 $133 $134 forward $33 $-1 #
coedge $-1 $90 $89 $53 $83 reversed $91 $-1 #
edge $-1 $135 -31.945911578196363 $136 31.945911578196363 $82 $137 forward 7 unknown #
coedge $-1 $55 $54 $138 $139 forward $21 $-1 #
coedge $-1 $140 $141 $54 $86 reversed $125 $-1 #
edge $-1 $93 -62.217474898525957 $142 62.217474898525957 $85 $143 forward 7 unknown #
coedge $-1 $79 $144 $55 $88 reversed $51 $-1 #
edge $-1 $145 -62.217474898525957 $92 62.217474898525957 $87 $146 forward 7 unknown #
coedge $-1 $82 $56 $144 $147 forward $91 $-1 #
coedge $-1 $56 $82 $140 $148 reversed $91 $-1 #
loop $-1 $-1 $89 $124 #
vertex $-1 $57 $149 #
vertex $-1 $57 $150 #
straight-curve $-1 62.217474898525957 0 11.895457513592623 0 1 0 I I #
face $-1 $151 $152 $13 $-1 $153 reversed single #
loop $-1 $-1 $154 $58 #
plane-surface $-1 -248.86989959410383 0 0 1 0 0 0 0 -1 forward_v I I I I #
coedge $-1 $155 $106 $156 $157 forward $59 $-1 #
coedge $-1 $158 $61 $155 $159 forward $37 $-1 #
coedge $-1 $61 $158 $160 $161 forward $37 $-1 #
coedge $-1 $109 $108 $61 $102 reversed $110 $-1 #
edge $-1 $162 -4.1435993163393761 $163 4.1435993163393761 $101 $164 forward 7 unknown #
coedge $-1 $63 $62 $165 $166 forward $24 $-1 #
coedge $-1 $167 $168 $62 $105 reversed $152 $-1 #
edge $-1 $112 -248.86989959410383 $169 248.86989959410383 $104 $170 forward 7 unknown #
coedge $-1 $98 $171 $63 $107 reversed $59 $-1 #
edge $-1 $172 -248.86989959410383 $111 248.86989959410383 $106 $173 forward 7 unknown #
coedge $-1 $101 $64 $171 $174 forward $110 $-1 #
coedge $-1 $64 $101 $167 $175 reversed $110 $-1 #
loop $-1 $-1 $108 $151 #
vertex $-1 $65 $176 #
vertex $-1 $65 $177 #
straight-curve $-1 248.86989959410383 0 124.43494979705193 0 1 0 I I #
loop $-1 $-1 $178 $40 #
coedge $-1 $115 $115 $69 $116 reversed $66 $-1 #
edge $-1 $179 0 $179 6.2831853071796004 $115 $180 forward 7 unknown #
vertex $-1 $70 $181 #
ellipse-curve $-1 0 0 -1.6907101657155055 0 0 -1 1 0 0 1 I I #
loop $-1 $-1 $182 $45 #
coedge $-1 $120 $120 $74 $121 reversed $71 $-1 #
edge $-1 $183 0 $183 6.2831853071796004 $120 $184 forward 7 unknown #
vertex $-1 $75 $185 #
ellipse-curve $-1 0 0 -1.6907101657155055 0 0 -1 1 0 0 1 I I #
face $-1 $-1 $91 $12 $-1 $186 reversed single #
loop $-1 $-1 $140 $76 #
plane-surface $-1 0 31.945911578196363 0 0 -1 0 0 0 -1 forward_v I I I I #
coedge $-1 $187 $138 $141 $188 forward $77 $-1 #
coedge $-1 $144 $79 $80 $132 reversed $51 $-1 #
coedge $-1 $138 $187 $79 $130 reversed $77 $-1 #
edge $-1 $145 -11.895457513592623 $189 11.895457513592623 $129 $190 forward 7 unknown #
coedge $-1 $81 $80 $187 $191 forward $33 $-1 #
edge $-1 $136 -62.217474898525957 $189 62.217474898525957 $128 $192 forward 7 unknown #
coedge $-1 $141 $140 $81 $134 reversed $125 $-1 #
edge $-1 $193 -62.217474898525957 $135 62.217474898525957 $133 $194 forward 7 unknown #
vertex $-1 $83 $195 #
vertex $-1 $147 $196 #
straight-curve $-1 62.217474898525957 0 -11.895457513592623 0 -1 0 I I #
coedge $-1 $127 $129 $84 $139 reversed $77 $-1 #
edge $-1 $142 -31.945911578196363 $145 31.945911578196363 $138 $197 forward 7 unknown #
coedge $-1 $133 $85 $90 $148 forward $125 $-1 #
coedge $-1 $85 $133 $127 $188 reversed $125 $-1 #
vertex $-1 $86 $198 #
straight-curve $-1 0 31.945911578196363 11.895457513592623 -1 0 0 I I #
coedge $-1 $87 $128 $89 $147 reversed $51 $-1 #
vertex $-1 $139 $199 #
straight-curve $-1 0 -31.945911578196363 11.895457513592623 1 0 0 I I #
edge $-1 $92 -11.895457513592623 $136 11.895457513592623 $89 $200 forward 7 unknown #
edge $-1 $93 -11.895457513592623 $135 11.895457513592623 $90 $201 forward 7 unknown #
point $-1 62.217474898525957 -31.945911578196363 11.895457513592623 #
point $-1 62.217474898525957 31.945911578196363 11.895457513592623 #
face $-1 $-1 $110 $13 $-1 $202 reversed single #
loop $-1 $-1 $167 $95 #
plane-surface $-1 0 4.1435993163393761 0 0 -1 0 0 0 -1 forward_v I I I I #
coedge $-1 $203 $165 $168 $204 forward $96 $-1 #
coedge $-1 $171 $98 $99 $159 reversed $59 $-1 #
coedge $-1 $165 $203 $98 $157 reversed $96 $-1 #
edge $-1 $172 -124.43494979705193 $205 124.43494979705193 $156 $206 forward 7 unknown #
coedge $-1 $100 $99 $203 $207 forward $37 $-1 #
edge $-1 $163 -248.86989959410383 $205 248.86989959410383 $155 $208 forward 7 unknown #
coedge $-1 $168 $167 $100 $161 reversed $152 $-1 #
edge $-1 $209 -248.86989959410383 $162 248.86989959410383 $160 $210 forward 7 unknown #
vertex $-1 $102 $211 #
vertex $-1 $174 $212 #
straight-curve $-1 248.86989959410383 0 -124.43494979705193 0 -1 0 I I #
coedge $-1 $154 $156 $103 $166 reversed $96 $-1 #
edge $-1 $169 -4.1435993163393761 $172 4.1435993163393761 $165 $213 forward 7 unknown #
coedge $-1 $160 $104 $109 $175 forward $152 $-1 #
coedge $-1 $104 $160 $154 $204 reversed $152 $-1 #
vertex $-1 $105 $214 #
straight-curve $-1 0 4.1435993163393761 124.43494979705193 -1 0 0 I I #
coedge $-1 $106 $155 $108 $174 reversed $59 $-1 #
vertex $-1 $166 $215 #
straight-curve $-1 0 -4.1435993163393761 124.43494979705193 1 0 0 I I #
edge $-1 $111 -124.43494979705193 $163 124.43494979705193 $108 $216 forward 7 unknown #
edge $-1 $112 -124.43494979705193 $162 124.43494979705193 $109 $217 forward 7 unknown #
point $-1 248.86989959410383 -4.1435993163393761 124.43494979705193 #
point $-1 248.86989959410383 4.1435993163393761 124.43494979705193 #
coedge $-1 $178 $178 $-1 $218 reversed $114 $-1 #
vertex $-1 $116 $219 #
ellipse-curve $-1 0 0 -0.5 0 0 -1 1 0 0 1 I I #
point $-1 1 0 -1.6907101657155055 #
coedge $-1 $182 $182 $-1 $220 reversed $119 $-1 #
vertex $-1 $121 $221 #
ellipse-curve $-1 0 0 -0.5 0 0 -1 1 0 0 1 I I #
point $-1 1 0 -1.6907101657155055 #
plane-surface $-1 62.217474898525957 0 0 -1 0 0 0 0 1 forward_v I I I I #
coedge $-1 $129 $127 $131 $191 reversed $77 $-1 #
edge $-1 $142 -11.895457513592623 $193 11.895457513592623 $141 $222 forward 7 unknown #
vertex $-1 $191 $223 #
straight-curve $-1 -62.217474898525957 -31.945911578196363 0 0 0 -1 I I #
edge $-1 $189 -31.945911578196363 $193 31.945911578196363 $187 $224 forward 7 unknown #
straight-curve $-1 0 -31.945911578196363 -11.895457513592623 -1 0 0 I I #
vertex $-1 $134 $225 #
straight-curve $-1 0 31.945911578196363 -11.895457513592623 1 0 0 I I #
point $-1 62.217474898525957 31.945911578196363 -11.895457513592623 #
point $-1 62.217474898525957 -31.945911578196363 -11.895457513592623 #
straight-curve $-1 -62.217474898525957 0 11.895457513592623 0 -1 0 I I #
point $-1 -62.217474898525957 31.945911578196363 11.895457513592623 #
point $-1 -62.217474898525957 -31.945911578196363 11.895457513592623 #
straight-curve $-1 62.217474898525957 -31.945911578196363 0 0 0 -1 I I #
straight-curve $-1 62.217474898525957 31.945911578196363 0 0 0 -1 I I #
plane-surface $-1 248.86989959410383 0 0 -1 0 0 0 0 1 forward_v I I I I #
coedge $-1 $156 $154 $158 $207 reversed $96 $-1 #
edge $-1 $169 -124.43494979705193 $209 124.43494979705193 $168 $226 forward 7 unknown #
vertex $-1 $207 $227 #
straight-curve $-1 -248.86989959410383 -4.1435993163393761 0 0 0 -1 I I #
edge $-1 $205 -4.1435993163393761 $209 4.1435993163393761 $203 $228 forward 7 unknown #
straight-curve $-1 0 -4.1435993163393761 -124.43494979705193 -1 0 0 I I #
vertex $-1 $161 $229 #
straight-curve $-1 0 4.1435993163393761 -124.43494979705193 1 0 0 I I #
point $-1 248.86989959410383 4.1435993163393761 -124.43494979705193 #
point $-1 248.86989959410383 -4.1435993163393761 -124.43494979705193 #
straight-curve $-1 -248.86989959410383 0 124.43494979705193 0 -1 0 I I #
point $-1 -248.86989959410383 4.1435993163393761 124.43494979705193 #
point $-1 -248.86989959410383 -4.1435993163393761 124.43494979705193 #
straight-curve $-1 248.86989959410383 -4.1435993163393761 0 0 0 -1 I I #
straight-curve $-1 248.86989959410383 4.1435993163393761 0 0 0 -1 I I #
edge $-1 $230 1 $230 0 $178 $-1 forward 7 unknown #
point $-1 1 0 -0.5 #
edge $-1 $231 1 $231 0 $182 $-1 forward 7 unknown #
point $-1 1 0 -0.5 #
straight-curve $-1 -62.217474898525957 31.945911578196363 0 0 0 -1 I I #
point $-1 -62.217474898525957 -31.945911578196363 -11.895457513592623 #
straight-curve $-1 -62.217474898525957 0 -11.895457513592623 0 1 0 I I #
point $-1 -62.217474898525957 31.945911578196363 -11.895457513592623 #
straight-curve $-1 -248.86989959410383 4.1435993163393761 0 0 0 -1 I I #
point $-1 -248.86989959410383 -4.1435993163393761 -124.43494979705193 #
straight-curve $-1 -248.86989959410383 0 -124.43494979705193 0 1 0 I I #
point $-1 -248.86989959410383 4.1435993163393761 -124.43494979705193 #
vertex $-1 $218 $232 #
vertex $-1 $220 $233 #
point $-1 0 0 0.5 #
point $-1 0 0 0.5 #
End-of-ACIS-data 