500 0 5 0           
7 Unknown 11 ACIS 5.0 NT 24 Thu Mar 25 15:17:27 1999 
-1 9.9999999999999995e-007 1e-010 
body $-1 $5 $-1 $6 #
body $-1 $7 $-1 $8 #
body $-1 $9 $-1 $10 #
body $-1 $11 $-1 $12 #
body $-1 $13 $-1 $14 #
lump $-1 $-1 $15 $0 #
transform $-1 1 0 0 0 1 0 0 0 1 47.152317880794705 19.514529336877256 5.3211589928626637 1 rotate no_reflect no_shear #
lump $-1 $-1 $16 $1 #
transform $-1 1 0 0 0 1 0 0 0 1 47.152317880794705 19.514529336877256 5.3211589928626637 1 rotate no_reflect no_shear #
lump $-1 $-1 $17 $2 #
transform $-1 1 0 0 0 1 0 0 0 1 47.152317880794705 19.514529336877256 5.3211589928626637 1 rotate no_reflect no_shear #
lump $-1 $-1 $18 $3 #
transform $-1 1 0 0 0 1 0 0 0 1 47.152317880794705 19.514529336877256 5.3211589928626637 1 rotate no_reflect no_shear #
lump $-1 $-1 $19 $4 #
transform $-1 1 0 0 0 1 0 0 0 1 47.152317880794705 19.514529336877256 5.3211589928626637 1 rotate no_reflect no_shear #
shell $-1 $-1 $-1 $20 $-1 $5 #
shell $-1 $-1 $-1 $21 $-1 $7 #
shell $-1 $-1 $-1 $22 $-1 $9 #
shell $-1 $-1 $-1 $23 $-1 $11 #
shell $-1 $-1 $-1 $24 $-1 $13 #
face $-1 $25 $26 $15 $-1 $27 forward single #
face $-1 $28 $29 $16 $-1 $30 reversed single #
face $-1 $31 $32 $17 $-1 $33 forward single #
face $-1 $34 $35 $18 $-1 $36 reversed single #
face $-1 $37 $38 $19 $-1 $39 reversed single #
face $-1 $40 $41 $15 $-1 $42 reversed single #
loop $-1 $-1 $43 $20 #
plane-surface $-1 0 0 5.3211589928626637 0 0 1 1 0 0 forward_v I I I I #
face $-1 $44 $45 $16 $-1 $46 reversed single #
loop $-1 $-1 $47 $21 #
plane-surface $-1 -49.806575384990182 0 2.3211589928626637 0 0 1 1 0 0 forward_v I I I I #
face $-1 $48 $49 $17 $-1 $50 forward single #
loop $-1 $-1 $51 $22 #
plane-surface $-1 44.824746138698011 13.514795393980297 135.17003149873074 0 -1 0 -0.69465837861970381 0 -0.71933979245794832 forward_v I I I I #
face $-1 $52 $53 $18 $-1 $54 reversed single #
loop $-1 $55 $56 $23 #
cone-surface $-1 44.043878738096836 5.1690967213311545 2.22875851340928 -0.69465837861970381 0 -0.71933979245794832 0.71933979245794832 0 -0.69465837861970381 1 I I 0 1 1 forward I I I I #
face $-1 $57 $58 $19 $-1 $59 reversed single #
loop $-1 $60 $61 $24 #
cone-surface $-1 44.043878738096836 10.17651592492064 2.22875851340928 -0.69465837861970381 0 -0.71933979245794832 0.71933979245794832 0 -0.69465837861970381 1 I I 0 1 1 forward I I I I #
face $-1 $62 $63 $15 $-1 $64 reversed single #
loop $-1 $-1 $65 $25 #
plane-surface $-1 0 0 -5.3211589928626637 0 0 1 1 0 0 forward_v I I I I #
coedge $-1 $66 $67 $68 $69 forward $26 $-1 #
face $-1 $70 $71 $16 $-1 $72 forward single #
loop $-1 $-1 $73 $28 #
plane-surface $-1 -52.46083288918566 0 3.8211589928626637 1 0 0 0 0 -1 forward_v I I I I #
coedge $-1 $74 $75 $76 $77 reversed $29 $-1 #
face $-1 $78 $79 $17 $-1 $80 forward single #
loop $-1 $-1 $81 $31 #
plane-surface $-1 -20.684759235769427 7.6728063231258972 67.332954382166605 0.69465837861970381 0 0.71933979245794832 0.71933979245794832 0 -0.69465837861970381 forward_v I I I I #
coedge $-1 $82 $83 $84 $85 reversed $32 $-1 #
face $-1 $86 $87 $18 $-1 $88 forward single #
loop $-1 $89 $90 $34 #
cone-surface $-1 42.399102724216071 5.1690967213311545 0.52554313030867661 -0.69465837861970381 0 -0.71933979245794832 0.35966989622897416 0 -0.3473291893098519 1 I I -0.70710678118654735 0.70710678118654768 0.5 forward I I I I #
loop $-1 $-1 $91 $23 #
coedge $-1 $56 $56 $92 $93 reversed $35 $-1 #
face $-1 $94 $95 $19 $-1 $96 reversed single #
loop $-1 $97 $98 $37 #
cone-surface $-1 42.399102724216071 10.17651592492064 0.52554313030867661 -0.69465837861970381 0 -0.71933979245794832 0.35966989622897416 0 -0.3473291893098519 1 I I -0.70710678118654735 0.70710678118654768 0.5 forward I I I I #
loop $-1 $-1 $99 $24 #
coedge $-1 $61 $61 $100 $101 reversed $38 $-1 #
face $-1 $102 $103 $15 $-1 $104 reversed single #
loop $-1 $-1 $105 $40 #
plane-surface $-1 0 -19.514529336877256 0 0 1 0 0 0 1 forward_v I I I I #
coedge $-1 $106 $107 $108 $109 forward $41 $-1 #
coedge $-1 $110 $43 $111 $112 forward $26 $-1 #
coedge $-1 $43 $110 $113 $114 forward $26 $-1 #
coedge $-1 $115 $116 $43 $69 reversed $117 $-1 #
edge $-1 $118 -19.514529336877256 $119 19.514529336877256 $68 $120 forward 7 unknown #
face $-1 $121 $122 $16 $-1 $123 reversed single #
loop $-1 $-1 $124 $44 #
plane-surface $-1 0 0 5.3211589928626637 0 0 1 1 0 0 forward_v I I I I #
coedge $-1 $125 $126 $127 $128 forward $45 $-1 #
coedge $-1 $129 $47 $130 $131 forward $29 $-1 #
coedge $-1 $47 $129 $132 $133 forward $29 $-1 #
coedge $-1 $134 $135 $47 $77 forward $136 $-1 #
edge $-1 $137 -19.514529336877256 $138 19.514529336877256 $76 $139 forward 7 unknown #
face $-1 $140 $141 $17 $-1 $142 forward single #
loop $-1 $-1 $143 $48 #
plane-surface $-1 44.824746138698011 1.8308172522714976 135.17003149873074 0 1 0 0.69465837861970381 0 0.71933979245794832 forward_v I I I I #
coedge $-1 $144 $145 $146 $147 reversed $49 $-1 #
coedge $-1 $83 $51 $145 $148 forward $32 $-1 #
coedge $-1 $51 $82 $149 $150 reversed $32 $-1 #
coedge $-1 $151 $146 $51 $85 forward $141 $-1 #
edge $-1 $152 21.117960175191815 $153 24.739944811445699 $84 $154 forward 7 unknown #
face $-1 $155 $156 $18 $-1 $157 forward single #
loop $-1 $-1 $158 $52 #
plane-surface $-1 44.824746138698011 13.514795393980297 135.17003149873074 0 -1 0 -0.69465837861970381 0 -0.71933979245794832 forward_v I I I I #
loop $-1 $-1 $159 $34 #
coedge $-1 $90 $90 $91 $160 forward $53 $-1 #
coedge $-1 $91 $91 $90 $160 reversed $55 $-1 #
coedge $-1 $92 $92 $56 $93 forward $156 $-1 #
edge $-1 $161 0 $161 6.2831853071796004 $92 $162 forward 7 unknown #
face $-1 $163 $164 $19 $-1 $165 reversed single #
loop $-1 $166 $167 $57 #
cone-surface $-1 44.043878738096836 5.1690967213311545 2.22875851340928 -0.69465837861970381 0 -0.71933979245794832 0.71933979245794832 0 -0.69465837861970381 1 I I 0 1 1 forward I I I I #
loop $-1 $-1 $168 $37 #
coedge $-1 $98 $98 $99 $169 forward $58 $-1 #
coedge $-1 $99 $99 $98 $169 reversed $60 $-1 #
coedge $-1 $100 $100 $61 $101 forward $170 $-1 #
edge $-1 $171 0 $171 6.2831853071796004 $100 $172 forward 7 unknown #
face $-1 $173 $174 $15 $-1 $175 reversed single #
loop $-1 $-1 $176 $62 #
plane-surface $-1 -47.152317880794705 0 0 1 0 0 0 0 -1 forward_v I I I I #
coedge $-1 $177 $113 $178 $179 forward $63 $-1 #
coedge $-1 $180 $65 $177 $181 forward $41 $-1 #
coedge $-1 $65 $180 $182 $183 forward $41 $-1 #
coedge $-1 $116 $115 $65 $109 reversed $117 $-1 #
edge $-1 $184 -19.514529336877256 $185 19.514529336877256 $108 $186 forward 7 unknown #
coedge $-1 $67 $66 $187 $188 forward $26 $-1 #
coedge $-1 $189 $190 $66 $112 reversed $174 $-1 #
edge $-1 $119 -47.152317880794705 $191 47.152317880794705 $111 $192 forward 7 unknown #
coedge $-1 $105 $193 $67 $114 reversed $63 $-1 #
edge $-1 $194 -47.152317880794705 $118 47.152317880794705 $113 $195 forward 7 unknown #
coedge $-1 $108 $68 $193 $196 forward $117 $-1 #
coedge $-1 $68 $108 $189 $197 reversed $117 $-1 #
loop $-1 $-1 $115 $173 #
vertex $-1 $69 $198 #
vertex $-1 $69 $199 #
straight-curve $-1 47.152317880794705 0 5.3211589928626637 0 1 0 I I #
face $-1 $200 $201 $16 $-1 $202 reversed single #
loop $-1 $-1 $203 $70 #
plane-surface $-1 0 0 -5.3211589928626637 0 0 1 1 0 0 forward_v I I I I #
coedge $-1 $204 $205 $206 $207 forward $71 $-1 #
coedge $-1 $208 $73 $129 $209 reversed $45 $-1 #
coedge $-1 $73 $208 $210 $211 reversed $45 $-1 #
coedge $-1 $212 $132 $73 $128 reversed $213 $-1 #
edge $-1 $214 -1.5 $215 1.5 $127 $216 forward 7 unknown #
coedge $-1 $75 $74 $125 $209 forward $29 $-1 #
coedge $-1 $217 $218 $74 $131 reversed $201 $-1 #
edge $-1 $137 -2.6542575041954777 $219 2.6542575041954777 $130 $220 forward 7 unknown #
coedge $-1 $127 $221 $75 $133 reversed $213 $-1 #
edge $-1 $215 -2.6542575041954777 $138 2.6542575041954777 $132 $222 forward 7 unknown #
coedge $-1 $223 $76 $221 $224 forward $136 $-1 #
coedge $-1 $76 $223 $217 $225 reversed $136 $-1 #
loop $-1 $-1 $76 $200 #
vertex $-1 $225 $226 #
vertex $-1 $224 $227 #
straight-curve $-1 -47.152317880794705 0 2.3211589928626637 0 1 0 I I #
face $-1 $228 $229 $17 $-1 $230 reversed single #
loop $-1 $-1 $231 $78 #
plane-surface $-1 0 0 5.3211589928626637 0 0 1 1 0 0 forward_v I I I I #
coedge $-1 $232 $233 $231 $234 reversed $79 $-1 #
coedge $-1 $235 $81 $233 $236 reversed $49 $-1 #
coedge $-1 $81 $235 $82 $148 reversed $49 $-1 #
coedge $-1 $84 $231 $81 $147 forward $141 $-1 #
edge $-1 $237 -2.005585909291451 $152 9.6783922324173481 $146 $238 forward 7 unknown #
edge $-1 $152 89.269484537885035 $239 94.304635761589395 $82 $240 forward 7 unknown #
coedge $-1 $241 $242 $83 $150 forward $243 $-1 #
edge $-1 $153 62.263856756502705 $239 65.761566741666186 $149 $244 forward 7 unknown #
coedge $-1 $245 $84 $242 $246 forward $141 $-1 #
vertex $-1 $147 $247 #
vertex $-1 $246 $248 #
straight-curve $-1 22.412373069349005 13.514795393980297 5.3211589928626637 1 0 0 I I #
face $-1 $249 $250 $18 $-1 $251 forward single #
loop $-1 $252 $92 $86 #
plane-surface $-1 -20.684759235769427 7.6728063231258972 67.332954382166605 0.69465837861970381 0 0.71933979245794832 0.71933979245794832 0 -0.69465837861970381 forward_v I I I I #
coedge $-1 $253 $254 $255 $256 reversed $87 $-1 #
coedge $-1 $159 $159 $-1 $257 forward $89 $-1 #
edge $-1 $258 0 $258 6.2831853071796004 $90 $259 forward 7 unknown #
vertex $-1 $93 $260 #
ellipse-curve $-1 45.34132556266777 5.1690967213311545 3.5723040002809272 -0.69465837861970381 0 -0.71933979245794832 0.71933979245794832 0 -0.69465837861970381 1 I I #
face $-1 $261 $262 $19 $-1 $263 forward single #
loop $-1 $264 $265 $94 #
cone-surface $-1 42.399102724216071 5.1690967213311545 0.52554313030867661 -0.69465837861970381 0 -0.71933979245794832 0.35966989622897416 0 -0.3473291893098519 1 I I -0.70710678118654735 0.70710678118654768 0.5 forward I I I I #
loop $-1 $-1 $266 $57 #
coedge $-1 $167 $167 $267 $268 reversed $95 $-1 #
coedge $-1 $168 $168 $-1 $269 forward $97 $-1 #
edge $-1 $270 0 $270 6.2831853071796004 $98 $271 forward 7 unknown #
loop $-1 $272 $100 $261 #
vertex $-1 $101 $273 #
ellipse-curve $-1 45.34132556266777 10.17651592492064 3.5723040002809272 -0.69465837861970381 0 -0.71933979245794832 0.71933979245794832 0 -0.69465837861970381 1 I I #
face $-1 $-1 $117 $15 $-1 $274 reversed single #
loop $-1 $-1 $189 $102 #
plane-surface $-1 0 19.514529336877256 0 0 -1 0 0 0 -1 forward_v I I I I #
coedge $-1 $275 $187 $190 $276 forward $103 $-1 #
coedge $-1 $193 $105 $106 $181 reversed $63 $-1 #
coedge $-1 $187 $275 $105 $179 reversed $103 $-1 #
edge $-1 $194 -5.3211589928626637 $277 5.3211589928626637 $178 $278 forward 7 unknown #
coedge $-1 $107 $106 $275 $279 forward $41 $-1 #
edge $-1 $185 -47.152317880794705 $277 47.152317880794705 $177 $280 forward 7 unknown #
coedge $-1 $190 $189 $107 $183 reversed $174 $-1 #
edge $-1 $281 -47.152317880794705 $184 47.152317880794705 $182 $282 forward 7 unknown #
vertex $-1 $109 $283 #
vertex $-1 $196 $284 #
straight-curve $-1 47.152317880794705 0 -5.3211589928626637 0 -1 0 I I #
coedge $-1 $176 $178 $110 $188 reversed $103 $-1 #
edge $-1 $191 -19.514529336877256 $194 19.514529336877256 $187 $285 forward 7 unknown #
coedge $-1 $182 $111 $116 $197 forward $174 $-1 #
coedge $-1 $111 $182 $176 $276 reversed $174 $-1 #
vertex $-1 $112 $286 #
straight-curve $-1 0 19.514529336877256 5.3211589928626637 -1 0 0 I I #
coedge $-1 $113 $177 $115 $196 reversed $63 $-1 #
vertex $-1 $188 $287 #
straight-curve $-1 0 -19.514529336877256 5.3211589928626637 1 0 0 I I #
edge $-1 $118 -5.3211589928626637 $185 5.3211589928626637 $115 $288 forward 7 unknown #
edge $-1 $119 -5.3211589928626637 $184 5.3211589928626637 $116 $289 forward 7 unknown #
point $-1 47.152317880794705 -19.514529336877256 5.3211589928626637 #
point $-1 47.152317880794705 19.514529336877256 5.3211589928626637 #
face $-1 $290 $136 $16 $-1 $291 reversed single #
loop $-1 $-1 $217 $121 #
plane-surface $-1 0 -19.514529336877256 0 0 1 0 0 0 1 forward_v I I I I #
coedge $-1 $292 $293 $294 $295 forward $122 $-1 #
coedge $-1 $210 $124 $212 $296 forward $71 $-1 #
coedge $-1 $124 $210 $297 $298 forward $71 $-1 #
coedge $-1 $299 $300 $124 $207 reversed $301 $-1 #
edge $-1 $302 -19.514529336877256 $303 19.514529336877256 $206 $304 forward 7 unknown #
coedge $-1 $126 $125 $218 $305 reversed $45 $-1 #
edge $-1 $219 -19.514529336877256 $215 19.514529336877256 $125 $306 forward 7 unknown #
coedge $-1 $205 $204 $126 $211 forward $71 $-1 #
edge $-1 $214 -19.514529336877256 $307 19.514529336877256 $126 $308 forward 7 unknown #
coedge $-1 $309 $127 $204 $296 reversed $213 $-1 #
loop $-1 $-1 $309 $290 #
vertex $-1 $296 $310 #
vertex $-1 $133 $311 #
straight-curve $-1 -52.46083288918566 19.514529336877256 3.8211589928626637 0 0 -1 I I #
coedge $-1 $312 $130 $135 $225 forward $201 $-1 #
coedge $-1 $130 $297 $208 $305 forward $201 $-1 #
vertex $-1 $209 $313 #
straight-curve $-1 -49.806575384990182 -19.514529336877256 2.3211589928626637 -1 0 0 I I #
coedge $-1 $132 $314 $134 $224 reversed $213 $-1 #
straight-curve $-1 -49.806575384990182 19.514529336877256 2.3211589928626637 1 0 0 I I #
coedge $-1 $135 $134 $315 $316 reversed $136 $-1 #
edge $-1 $138 -2.3211589928626637 $317 5.3211589928626637 $221 $318 forward 7 unknown #
edge $-1 $137 -2.3211589928626637 $319 5.3211589928626637 $135 $320 forward 7 unknown #
point $-1 -47.152317880794705 -19.514529336877256 2.3211589928626637 #
point $-1 -47.152317880794705 19.514529336877256 2.3211589928626637 #
face $-1 $321 $322 $17 $-1 $323 reversed single #
loop $-1 $-1 $324 $140 #
plane-surface $-1 -49.806575384990182 0 2.3211589928626637 0 0 1 1 0 0 forward_v I I I I #
coedge $-1 $146 $325 $143 $234 forward $141 $-1 #
coedge $-1 $233 $143 $326 $327 reversed $79 $-1 #
coedge $-1 $143 $232 $144 $236 forward $79 $-1 #
edge $-1 $328 -24.739944811445699 $237 -21.117960175191815 $231 $329 forward 7 unknown #
coedge $-1 $145 $144 $241 $330 reversed $49 $-1 #
edge $-1 $331 -94.304635761589395 $237 -89.269484537885035 $233 $332 forward 7 unknown #
vertex $-1 $147 $333 #
straight-curve $-1 43.53033324454082 3.8364031615629486 5.3211589928626708 0 1 0 I I #
vertex $-1 $330 $334 #
straight-curve $-1 -20.684759235769427 13.514795393980297 67.332954382166605 0.71933979245794832 0 -0.69465837861970381 I I #
coedge $-1 $326 $149 $235 $330 forward $243 $-1 #
coedge $-1 $149 $335 $151 $246 reversed $243 $-1 #
loop $-1 $-1 $326 $336 #
straight-curve $-1 47.152317880794705 13.514795393980297 67.585015749365368 0 0 -1 I I #
coedge $-1 $337 $151 $338 $339 forward $141 $-1 #
edge $-1 $153 13.514795393980297 $340 19.514529336877256 $242 $341 forward 7 unknown #
point $-1 43.53033324454082 13.514795393980297 5.3211589928626708 #
point $-1 47.152317880794705 13.514795393980297 5.3211589928626637 #
face $-1 $342 $343 $18 $-1 $344 forward single #
loop $-1 $-1 $345 $155 #
plane-surface $-1 44.824746138698011 1.8308172522714976 135.17003149873074 0 1 0 0.69465837861970381 0 0.71933979245794832 forward_v I I I I #
loop $-1 $-1 $346 $86 #
coedge $-1 $254 $158 $347 $348 forward $87 $-1 #
coedge $-1 $158 $253 $349 $350 reversed $87 $-1 #
coedge $-1 $351 $352 $158 $256 forward $343 $-1 #
edge $-1 $353 21.117960175191815 $354 24.739944811445699 $255 $355 forward 7 unknown #
edge $-1 $356 1 $356 0 $159 $-1 forward 7 unknown #
vertex $-1 $160 $357 #
ellipse-curve $-1 42.746431913525925 5.1690967213311545 0.88521302653765099 0.69465837861970381 0 0.71933979245794832 0.71933979245794832 0 -0.69465837861970381 1 I I #
point $-1 46.0606653551257 5.1690967213311545 2.8776456216612054 #
face $-1 $358 $170 $19 $-1 $359 forward single #
loop $-1 $-1 $360 $163 #
plane-surface $-1 44.824746138698011 13.514795393980297 135.17003149873074 0 -1 0 -0.69465837861970381 0 -0.71933979245794832 forward_v I I I I #
loop $-1 $-1 $361 $94 #
coedge $-1 $265 $265 $266 $362 forward $164 $-1 #
coedge $-1 $266 $266 $265 $362 reversed $166 $-1 #
coedge $-1 $267 $267 $167 $268 forward $272 $-1 #
edge $-1 $363 0 $363 6.2831853071796004 $267 $364 forward 7 unknown #
edge $-1 $365 1 $365 0 $168 $-1 forward 7 unknown #
vertex $-1 $169 $366 #
ellipse-curve $-1 42.746431913525925 10.17651592492064 0.88521302653765099 0.69465837861970381 0 0.71933979245794832 0.71933979245794832 0 -0.69465837861970381 1 I I #
loop $-1 $367 $267 $261 #
point $-1 46.0606653551257 10.17651592492064 2.8776456216612054 #
plane-surface $-1 47.152317880794705 0 0 -1 0 0 0 0 1 forward_v I I I I #
coedge $-1 $178 $176 $180 $279 reversed $103 $-1 #
edge $-1 $191 -5.3211589928626637 $281 5.3211589928626637 $190 $368 forward 7 unknown #
vertex $-1 $279 $369 #
straight-curve $-1 -47.152317880794705 -19.514529336877256 0 0 0 -1 I I #
edge $-1 $277 -19.514529336877256 $281 19.514529336877256 $275 $370 forward 7 unknown #
straight-curve $-1 0 -19.514529336877256 -5.3211589928626637 -1 0 0 I I #
vertex $-1 $183 $371 #
straight-curve $-1 0 19.514529336877256 -5.3211589928626637 1 0 0 I I #
point $-1 47.152317880794705 19.514529336877256 -5.3211589928626637 #
point $-1 47.152317880794705 -19.514529336877256 -5.3211589928626637 #
straight-curve $-1 -47.152317880794705 0 5.3211589928626637 0 -1 0 I I #
point $-1 -47.152317880794705 19.514529336877256 5.3211589928626637 #
point $-1 -47.152317880794705 -19.514529336877256 5.3211589928626637 #
straight-curve $-1 47.152317880794705 -19.514529336877256 0 0 0 -1 I I #
straight-curve $-1 47.152317880794705 19.514529336877256 0 0 0 -1 I I #
face $-1 $372 $213 $16 $-1 $373 reversed single #
plane-surface $-1 -47.152317880794705 0 0 1 0 0 0 0 -1 forward_v I I I I #
coedge $-1 $315 $203 $312 $374 forward $122 $-1 #
coedge $-1 $203 $315 $314 $375 forward $122 $-1 #
coedge $-1 $300 $299 $203 $295 reversed $301 $-1 #
edge $-1 $376 -19.514529336877256 $377 19.514529336877256 $294 $378 forward 7 unknown #
edge $-1 $303 -47.152317880794705 $214 52.46083288918566 $212 $379 forward 7 unknown #
coedge $-1 $218 $380 $205 $298 reversed $201 $-1 #
edge $-1 $307 -52.46083288918566 $302 47.152317880794705 $297 $381 forward 7 unknown #
coedge $-1 $294 $206 $380 $382 forward $301 $-1 #
coedge $-1 $206 $294 $309 $383 reversed $301 $-1 #
loop $-1 $-1 $299 $372 #
vertex $-1 $207 $384 #
vertex $-1 $207 $385 #
straight-curve $-1 47.152317880794705 0 5.3211589928626637 0 1 0 I I #
edge $-1 $307 -1.5 $219 1.5 $208 $386 forward 7 unknown #
straight-curve $-1 -52.46083288918566 0 2.3211589928626637 0 1 0 I I #
vertex $-1 $211 $387 #
straight-curve $-1 -52.46083288918566 0 5.3211589928626637 0 -1 0 I I #
coedge $-1 $314 $212 $300 $383 forward $213 $-1 #
point $-1 -52.46083288918566 19.514529336877256 5.3211589928626637 #
point $-1 -52.46083288918566 19.514529336877256 2.3211589928626637 #
coedge $-1 $380 $217 $292 $374 reversed $201 $-1 #
point $-1 -52.46083288918566 -19.514529336877256 2.3211589928626637 #
coedge $-1 $221 $309 $293 $375 reversed $213 $-1 #
coedge $-1 $293 $292 $223 $316 forward $122 $-1 #
edge $-1 $319 -19.514529336877256 $317 19.514529336877256 $223 $388 forward 7 unknown #
vertex $-1 $375 $389 #
straight-curve $-1 -47.152317880794705 19.514529336877256 0 0 0 -1 I I #
vertex $-1 $316 $390 #
straight-curve $-1 -47.152317880794705 -19.514529336877256 0 0 0 -1 I I #
face $-1 $391 $392 $17 $-1 $393 reversed single #
loop $-1 $-1 $394 $228 #
plane-surface $-1 -52.46083288918566 0 3.8211589928626637 1 0 0 0 0 -1 forward_v I I I I #
coedge $-1 $395 $396 $397 $398 reversed $229 $-1 #
coedge $-1 $231 $399 $400 $401 forward $141 $-1 #
coedge $-1 $400 $241 $232 $327 forward $243 $-1 #
edge $-1 $331 -65.761566741666186 $328 -62.263856756502705 $326 $402 forward 7 unknown #
vertex $-1 $327 $403 #
straight-curve $-1 22.412373069349005 1.8308172522714976 5.3211589928626637 -1 0 0 I I #
edge $-1 $239 -9.6783922324173481 $331 2.005585909291451 $241 $404 forward 7 unknown #
vertex $-1 $330 $405 #
straight-curve $-1 -20.684759235769427 1.8308172522714976 67.332954382166605 -0.71933979245794832 0 0.69465837861970381 I I #
point $-1 43.53033324454082 1.8308172522714976 5.3211589928626708 #
point $-1 47.152317880794705 13.514795393980297 1.8234490076991818 #
coedge $-1 $242 $406 $407 $408 reversed $243 $-1 #
face $-1 $-1 $243 $17 $-1 $409 reversed single #
coedge $-1 $399 $245 $410 $411 forward $141 $-1 #
coedge $-1 $407 $412 $245 $339 reversed $413 $-1 #
edge $-1 $340 -47.152317880794705 $414 52.46083288918566 $338 $415 forward 7 unknown #
vertex $-1 $246 $416 #
straight-curve $-1 47.152317880794705 0 5.3211589928626637 0 1 0 I I #
face $-1 $417 $418 $18 $-1 $419 reversed single #
loop $-1 $-1 $420 $249 #
plane-surface $-1 0 0 5.3211589928626637 0 0 1 1 0 0 forward_v I I I I #
coedge $-1 $421 $422 $420 $423 reversed $250 $-1 #
coedge $-1 $424 $347 $352 $425 reversed $252 $-1 #
coedge $-1 $346 $426 $253 $348 reversed $252 $-1 #
edge $-1 $353 89.269484537885035 $427 94.304635761589395 $253 $428 forward 7 unknown #
coedge $-1 $429 $430 $254 $350 forward $431 $-1 #
edge $-1 $354 62.263856756502705 $427 65.761566741666186 $349 $432 forward 7 unknown #
coedge $-1 $433 $255 $430 $434 forward $343 $-1 #
coedge $-1 $255 $420 $346 $425 forward $343 $-1 #
vertex $-1 $425 $435 #
vertex $-1 $434 $436 #
straight-curve $-1 22.412373069349005 13.514795393980297 5.3211589928626637 1 0 0 I I #
vertex $-1 $257 $437 #
point $-1 43.465771705983869 5.1690967213311545 0.19055464791794713 #
face $-1 $438 $439 $19 $-1 $440 forward single #
plane-surface $-1 -20.684759235769427 7.6728063231258972 67.332954382166605 0.69465837861970381 0 0.71933979245794832 0.71933979245794832 0 -0.69465837861970381 forward_v I I I I #
coedge $-1 $441 $442 $443 $444 reversed $262 $-1 #
coedge $-1 $361 $361 $-1 $445 forward $264 $-1 #
edge $-1 $446 0 $446 6.2831853071796004 $265 $447 forward 7 unknown #
vertex $-1 $268 $448 #
ellipse-curve $-1 45.34132556266777 5.1690967213311545 3.5723040002809272 -0.69465837861970381 0 -0.71933979245794832 0.71933979245794832 0 -0.69465837861970381 1 I I #
vertex $-1 $269 $449 #
point $-1 43.465771705983869 10.17651592492064 0.19055464791794713 #
loop $-1 $-1 $450 $261 #
straight-curve $-1 -47.152317880794705 19.514529336877256 0 0 0 -1 I I #
point $-1 -47.152317880794705 -19.514529336877256 -5.3211589928626637 #
straight-curve $-1 -47.152317880794705 0 -5.3211589928626637 0 1 0 I I #
point $-1 -47.152317880794705 19.514529336877256 -5.3211589928626637 #
face $-1 $-1 $301 $16 $-1 $451 reversed single #
plane-surface $-1 0 19.514529336877256 0 0 -1 0 0 0 -1 forward_v I I I I #
edge $-1 $377 -47.152317880794705 $319 47.152317880794705 $312 $452 forward 7 unknown #
edge $-1 $317 -47.152317880794705 $376 47.152317880794705 $314 $453 forward 7 unknown #
vertex $-1 $295 $454 #
vertex $-1 $382 $455 #
straight-curve $-1 47.152317880794705 0 -5.3211589928626637 0 -1 0 I I #
straight-curve $-1 0 19.514529336877256 5.3211589928626637 -1 0 0 I I #
coedge $-1 $297 $312 $299 $382 reversed $201 $-1 #
straight-curve $-1 0 -19.514529336877256 5.3211589928626637 1 0 0 I I #
edge $-1 $302 -5.3211589928626637 $377 5.3211589928626637 $299 $456 forward 7 unknown #
edge $-1 $303 -5.3211589928626637 $376 5.3211589928626637 $300 $457 forward 7 unknown #
point $-1 47.152317880794705 -19.514529336877256 5.3211589928626637 #
point $-1 47.152317880794705 19.514529336877256 5.3211589928626637 #
straight-curve $-1 -52.46083288918566 -19.514529336877256 3.8211589928626637 0 0 -1 I I #
point $-1 -52.46083288918566 -19.514529336877256 5.3211589928626637 #
straight-curve $-1 -47.152317880794705 0 -5.3211589928626637 0 1 0 I I #
point $-1 -47.152317880794705 19.514529336877256 -5.3211589928626637 #
point $-1 -47.152317880794705 -19.514529336877256 -5.3211589928626637 #
face $-1 $458 $459 $17 $-1 $460 reversed single #
loop $-1 $-1 $461 $321 #
plane-surface $-1 0 0 -5.3211589928626637 0 0 1 1 0 0 forward_v I I I I #
coedge $-1 $462 $410 $412 $463 forward $322 $-1 #
coedge $-1 $464 $324 $465 $466 forward $229 $-1 #
coedge $-1 $324 $464 $467 $468 forward $229 $-1 #
coedge $-1 $469 $470 $324 $398 forward $471 $-1 #
edge $-1 $472 -19.514529336877256 $473 19.514529336877256 $397 $474 forward 7 unknown #
coedge $-1 $325 $337 $475 $476 forward $141 $-1 #
coedge $-1 $477 $326 $325 $401 reversed $243 $-1 #
edge $-1 $478 -19.514529336877256 $328 1.8308172522714976 $400 $341 forward 7 unknown #
straight-curve $-1 47.152317880794705 1.8308172522714976 67.585015749365368 0 0 1 I I #
point $-1 47.152317880794705 1.8308172522714976 5.3211589928626637 #
straight-curve $-1 47.152317880794705 3.8364031615629486 1.8234490076991818 0 -1 0 I I #
point $-1 47.152317880794705 1.8308172522714976 1.8234490076991818 #
coedge $-1 $335 $477 $461 $479 reversed $243 $-1 #
coedge $-1 $480 $338 $335 $408 forward $413 $-1 #
edge $-1 $340 -5.3211589928626637 $481 5.3211589928626637 $335 $482 forward 7 unknown #
plane-surface $-1 47.152317880794705 0 0 -1 0 0 0 0 1 forward_v I I I I #
coedge $-1 $394 $483 $337 $411 reversed $322 $-1 #
edge $-1 $414 -19.514529336877256 $484 19.514529336877256 $410 $485 forward 7 unknown #
coedge $-1 $338 $467 $394 $463 reversed $413 $-1 #
loop $-1 $-1 $407 $486 #
vertex $-1 $339 $487 #
straight-curve $-1 0 19.514529336877256 5.3211589928626637 -1 0 0 I I #
point $-1 47.152317880794705 19.514529336877256 5.3211589928626637 #
face $-1 $488 $489 $18 $-1 $490 reversed single #
loop $-1 $-1 $491 $342 #
plane-surface $-1 -49.806575384990182 0 2.3211589928626637 0 0 1 1 0 0 forward_v I I I I #
coedge $-1 $352 $492 $345 $423 forward $343 $-1 #
coedge $-1 $422 $345 $493 $494 reversed $250 $-1 #
coedge $-1 $345 $421 $424 $495 forward $250 $-1 #
edge $-1 $496 -24.739944811445699 $497 -21.117960175191815 $420 $498 forward 7 unknown #
coedge $-1 $426 $346 $422 $495 reversed $252 $-1 #
edge $-1 $497 -2.005585909291451 $353 9.6783922324173481 $352 $499 forward 7 unknown #
coedge $-1 $347 $424 $429 $500 reversed $252 $-1 #
vertex $-1 $500 $501 #
straight-curve $-1 -20.684759235769427 13.514795393980297 67.332954382166605 0.71933979245794832 0 -0.69465837861970381 I I #
coedge $-1 $493 $349 $426 $500 forward $431 $-1 #
coedge $-1 $349 $502 $351 $434 reversed $431 $-1 #
loop $-1 $-1 $493 $503 #
straight-curve $-1 47.152317880794705 13.514795393980297 67.585015749365368 0 0 -1 I I #
coedge $-1 $504 $351 $505 $506 forward $343 $-1 #
edge $-1 $354 13.514795393980297 $507 19.514529336877256 $430 $508 forward 7 unknown #
point $-1 43.53033324454082 13.514795393980297 5.3211589928626708 #
point $-1 47.152317880794705 13.514795393980297 5.3211589928626637 #
point $-1 42.051773534906218 5.1690967213311545 0.16587323407970228 #
face $-1 $509 $510 $19 $-1 $511 forward single #
loop $-1 $-1 $512 $358 #
plane-surface $-1 44.824746138698011 1.8308172522714976 135.17003149873074 0 1 0 0.69465837861970381 0 0.71933979245794832 forward_v I I I I #
coedge $-1 $442 $360 $513 $514 forward $262 $-1 #
coedge $-1 $360 $441 $515 $516 reversed $262 $-1 #
coedge $-1 $517 $518 $360 $444 forward $510 $-1 #
edge $-1 $519 21.117960175191815 $520 24.739944811445699 $443 $521 forward 7 unknown #
edge $-1 $522 1 $522 0 $361 $-1 forward 7 unknown #
vertex $-1 $362 $523 #
ellipse-curve $-1 42.746431913525925 5.1690967213311545 0.88521302653765099 0.69465837861970381 0 0.71933979245794832 0.71933979245794832 0 -0.69465837861970381 1 I I #
point $-1 46.0606653551257 5.1690967213311545 2.8776456216612054 #
point $-1 42.051773534906218 10.17651592492064 0.16587323407970228 #
coedge $-1 $524 $513 $518 $525 reversed $367 $-1 #
plane-surface $-1 47.152317880794705 0 0 -1 0 0 0 0 1 forward_v I I I I #
straight-curve $-1 0 -19.514529336877256 -5.3211589928626637 -1 0 0 I I #
straight-curve $-1 0 19.514529336877256 -5.3211589928626637 1 0 0 I I #
point $-1 47.152317880794705 19.514529336877256 -5.3211589928626637 #
point $-1 47.152317880794705 -19.514529336877256 -5.3211589928626637 #
straight-curve $-1 47.152317880794705 -19.514529336877256 0 0 0 -1 I I #
straight-curve $-1 47.152317880794705 19.514529336877256 0 0 0 -1 I I #
face $-1 $486 $471 $17 $-1 $526 reversed single #
loop $-1 $-1 $527 $391 #
plane-surface $-1 0 -19.514529336877256 0 0 1 0 0 0 1 forward_v I I I I #
coedge $-1 $528 $529 $406 $479 forward $392 $-1 #
coedge $-1 $483 $394 $464 $530 reversed $322 $-1 #
edge $-1 $414 -1.5 $531 1.5 $412 $532 forward 7 unknown #
coedge $-1 $396 $395 $462 $530 forward $229 $-1 #
coedge $-1 $527 $533 $395 $466 reversed $459 $-1 #
edge $-1 $472 -2.6542575041954777 $534 2.6542575041954777 $465 $535 forward 7 unknown #
coedge $-1 $412 $536 $396 $468 reversed $413 $-1 #
edge $-1 $531 -2.6542575041954777 $473 2.6542575041954777 $467 $537 forward 7 unknown #
coedge $-1 $538 $397 $536 $539 forward $471 $-1 #
coedge $-1 $397 $538 $527 $540 reversed $471 $-1 #
loop $-1 $-1 $397 $458 #
vertex $-1 $540 $541 #
vertex $-1 $539 $542 #
straight-curve $-1 -47.152317880794705 0 2.3211589928626637 0 1 0 I I #
coedge $-1 $533 $543 $399 $476 reversed $459 $-1 #
edge $-1 $484 -52.46083288918566 $478 47.152317880794705 $475 $544 forward 7 unknown #
coedge $-1 $406 $400 $543 $545 forward $243 $-1 #
vertex $-1 $401 $546 #
edge $-1 $481 -19.514529336877256 $547 19.514529336877256 $406 $548 forward 7 unknown #
coedge $-1 $536 $407 $529 $549 reversed $413 $-1 #
vertex $-1 $479 $550 #
straight-curve $-1 47.152317880794705 19.514529336877256 0 0 0 -1 I I #
coedge $-1 $410 $462 $533 $551 reversed $322 $-1 #
vertex $-1 $411 $552 #
straight-curve $-1 -52.46083288918566 0 5.3211589928626637 0 -1 0 I I #
face $-1 $336 $413 $17 $-1 $553 reversed single #
point $-1 -52.46083288918566 19.514529336877256 5.3211589928626637 #
face $-1 $554 $555 $18 $-1 $556 reversed single #
loop $-1 $-1 $557 $417 #
plane-surface $-1 -52.46083288918566 0 3.8211589928626637 1 0 0 0 0 -1 forward_v I I I I #
coedge $-1 $558 $559 $560 $561 reversed $418 $-1 #
coedge $-1 $420 $562 $563 $564 forward $343 $-1 #
coedge $-1 $563 $429 $421 $494 forward $431 $-1 #
edge $-1 $565 -65.761566741666186 $496 -62.263856756502705 $493 $566 forward 7 unknown #
edge $-1 $565 -94.304635761589395 $497 -89.269484537885035 $422 $567 forward 7 unknown #
vertex $-1 $494 $568 #
vertex $-1 $425 $569 #
straight-curve $-1 22.412373069349005 1.8308172522714976 5.3211589928626637 -1 0 0 I I #
straight-curve $-1 43.53033324454082 3.8364031615629486 5.3211589928626708 0 1 0 I I #
edge $-1 $427 -9.6783922324173481 $565 2.005585909291451 $429 $570 forward 7 unknown #
point $-1 47.152317880794705 13.514795393980297 1.8234490076991818 #
coedge $-1 $430 $571 $572 $573 reversed $431 $-1 #
face $-1 $-1 $431 $18 $-1 $574 reversed single #
coedge $-1 $562 $433 $575 $576 forward $343 $-1 #
coedge $-1 $572 $577 $433 $506 reversed $578 $-1 #
edge $-1 $507 -47.152317880794705 $579 52.46083288918566 $505 $580 forward 7 unknown #
vertex $-1 $434 $581 #
straight-curve $-1 47.152317880794705 0 5.3211589928626637 0 1 0 I I #
face $-1 $582 $583 $19 $-1 $584 reversed single #
loop $-1 $-1 $585 $438 #
plane-surface $-1 0 0 5.3211589928626637 0 0 1 1 0 0 forward_v I I I I #
coedge $-1 $586 $587 $585 $588 reversed $439 $-1 #
coedge $-1 $450 $589 $441 $514 reversed $367 $-1 #
edge $-1 $519 89.269484537885035 $590 94.304635761589395 $441 $591 forward 7 unknown #
coedge $-1 $592 $593 $442 $516 forward $594 $-1 #
edge $-1 $520 62.263856756502705 $590 65.761566741666186 $515 $595 forward 7 unknown #
coedge $-1 $596 $443 $593 $597 forward $510 $-1 #
coedge $-1 $443 $585 $450 $525 forward $510 $-1 #
vertex $-1 $525 $598 #
vertex $-1 $597 $599 #
straight-curve $-1 22.412373069349005 13.514795393980297 5.3211589928626637 1 0 0 I I #
vertex $-1 $445 $600 #
point $-1 43.465771705983869 5.1690967213311545 0.19055464791794713 #
coedge $-1 $589 $450 $587 $601 reversed $367 $-1 #
edge $-1 $602 -2.005585909291451 $519 9.6783922324173481 $518 $603 forward 7 unknown #
plane-surface $-1 -47.152317880794705 0 0 1 0 0 0 0 -1 forward_v I I I I #
coedge $-1 $604 $465 $470 $540 forward $459 $-1 #
coedge $-1 $605 $461 $604 $606 forward $392 $-1 #
coedge $-1 $461 $605 $480 $549 forward $392 $-1 #
edge $-1 $534 -19.514529336877256 $531 19.514529336877256 $462 $607 forward 7 unknown #
vertex $-1 $468 $608 #
straight-curve $-1 -52.46083288918566 19.514529336877256 3.8211589928626637 0 0 -1 I I #
coedge $-1 $465 $475 $483 $551 forward $459 $-1 #
vertex $-1 $530 $609 #
straight-curve $-1 -49.806575384990182 -19.514529336877256 2.3211589928626637 -1 0 0 I I #
coedge $-1 $467 $480 $469 $539 reversed $413 $-1 #
straight-curve $-1 -49.806575384990182 19.514529336877256 2.3211589928626637 1 0 0 I I #
coedge $-1 $470 $469 $605 $610 reversed $471 $-1 #
edge $-1 $473 -2.3211589928626637 $611 5.3211589928626637 $536 $612 forward 7 unknown #
edge $-1 $472 -2.3211589928626637 $613 5.3211589928626637 $470 $614 forward 7 unknown #
point $-1 -47.152317880794705 -19.514529336877256 2.3211589928626637 #
point $-1 -47.152317880794705 19.514529336877256 2.3211589928626637 #
coedge $-1 $475 $604 $477 $545 reversed $459 $-1 #
straight-curve $-1 0 -19.514529336877256 5.3211589928626637 1 0 0 I I #
edge $-1 $478 -5.3211589928626637 $547 5.3211589928626637 $477 $615 forward 7 unknown #
point $-1 47.152317880794705 -19.514529336877256 5.3211589928626637 #
vertex $-1 $545 $616 #
straight-curve $-1 47.152317880794705 0 -5.3211589928626637 0 -1 0 I I #
edge $-1 $611 -47.152317880794705 $481 47.152317880794705 $480 $617 forward 7 unknown #
point $-1 47.152317880794705 19.514529336877256 -5.3211589928626637 #
edge $-1 $484 -1.5 $534 1.5 $483 $618 forward 7 unknown #
point $-1 -52.46083288918566 -19.514529336877256 5.3211589928626637 #
plane-surface $-1 0 19.514529336877256 0 0 -1 0 0 0 -1 forward_v I I I I #
face $-1 $619 $620 $18 $-1 $621 reversed single #
loop $-1 $-1 $622 $488 #
plane-surface $-1 0 0 -5.3211589928626637 0 0 1 1 0 0 forward_v I I I I #
coedge $-1 $623 $575 $577 $624 forward $489 $-1 #
coedge $-1 $625 $491 $626 $627 forward $418 $-1 #
coedge $-1 $491 $625 $628 $629 forward $418 $-1 #
coedge $-1 $630 $631 $491 $561 forward $632 $-1 #
edge $-1 $633 -19.514529336877256 $634 19.514529336877256 $560 $635 forward 7 unknown #
coedge $-1 $492 $504 $636 $637 forward $343 $-1 #
coedge $-1 $638 $493 $492 $564 reversed $431 $-1 #
edge $-1 $639 -19.514529336877256 $496 1.8308172522714976 $563 $508 forward 7 unknown #
vertex $-1 $500 $640 #
straight-curve $-1 47.152317880794705 1.8308172522714976 67.585015749365368 0 0 1 I I #
straight-curve $-1 -20.684759235769427 1.8308172522714976 67.332954382166605 -0.71933979245794832 0 0.69465837861970381 I I #
point $-1 47.152317880794705 1.8308172522714976 5.3211589928626637 #
point $-1 43.53033324454082 1.8308172522714976 5.3211589928626708 #
straight-curve $-1 47.152317880794705 3.8364031615629486 1.8234490076991818 0 -1 0 I I #
coedge $-1 $502 $638 $622 $641 reversed $431 $-1 #
coedge $-1 $642 $505 $502 $573 forward $578 $-1 #
edge $-1 $507 -5.3211589928626637 $643 5.3211589928626637 $502 $644 forward 7 unknown #
plane-surface $-1 47.152317880794705 0 0 -1 0 0 0 0 1 forward_v I I I I #
coedge $-1 $557 $645 $504 $576 reversed $489 $-1 #
edge $-1 $579 -19.514529336877256 $646 19.514529336877256 $575 $647 forward 7 unknown #
coedge $-1 $505 $628 $557 $624 reversed $578 $-1 #
loop $-1 $-1 $572 $648 #
vertex $-1 $506 $649 #
straight-curve $-1 0 19.514529336877256 5.3211589928626637 -1 0 0 I I #
point $-1 47.152317880794705 19.514529336877256 5.3211589928626637 #
face $-1 $650 $651 $19 $-1 $652 reversed single #
loop $-1 $-1 $653 $509 #
plane-surface $-1 -49.806575384990182 0 2.3211589928626637 0 0 1 1 0 0 forward_v I I I I #
coedge $-1 $518 $654 $512 $588 forward $510 $-1 #
coedge $-1 $587 $512 $655 $656 reversed $439 $-1 #
coedge $-1 $512 $586 $524 $601 forward $439 $-1 #
edge $-1 $657 -24.739944811445699 $602 -21.117960175191815 $585 $658 forward 7 unknown #
coedge $-1 $513 $524 $592 $659 reversed $367 $-1 #
vertex $-1 $659 $660 #
straight-curve $-1 -20.684759235769427 13.514795393980297 67.332954382166605 0.71933979245794832 0 -0.69465837861970381 I I #
coedge $-1 $655 $515 $589 $659 forward $594 $-1 #
coedge $-1 $515 $661 $517 $597 reversed $594 $-1 #
loop $-1 $-1 $655 $662 #
straight-curve $-1 47.152317880794705 13.514795393980297 67.585015749365368 0 0 -1 I I #
coedge $-1 $663 $517 $664 $665 forward $510 $-1 #
edge $-1 $520 13.514795393980297 $666 19.514529336877256 $593 $667 forward 7 unknown #
point $-1 43.53033324454082 13.514795393980297 5.3211589928626708 #
point $-1 47.152317880794705 13.514795393980297 5.3211589928626637 #
point $-1 42.051773534906218 5.1690967213311545 0.16587323407970228 #
edge $-1 $668 -94.304635761589395 $602 -89.269484537885035 $587 $669 forward 7 unknown #
vertex $-1 $525 $670 #
straight-curve $-1 43.53033324454082 3.8364031615629486 5.3211589928626708 0 1 0 I I #
coedge $-1 $543 $527 $528 $606 reversed $459 $-1 #
coedge $-1 $529 $528 $538 $610 forward $392 $-1 #
edge $-1 $547 -47.152317880794705 $613 47.152317880794705 $604 $671 forward 7 unknown #
straight-curve $-1 -52.46083288918566 0 2.3211589928626637 0 1 0 I I #
point $-1 -52.46083288918566 19.514529336877256 2.3211589928626637 #
point $-1 -52.46083288918566 -19.514529336877256 2.3211589928626637 #
edge $-1 $613 -19.514529336877256 $611 19.514529336877256 $538 $672 forward 7 unknown #
vertex $-1 $549 $673 #
straight-curve $-1 -47.152317880794705 19.514529336877256 0 0 0 -1 I I #
vertex $-1 $610 $674 #
straight-curve $-1 -47.152317880794705 -19.514529336877256 0 0 0 -1 I I #
straight-curve $-1 47.152317880794705 -19.514529336877256 0 0 0 -1 I I #
point $-1 47.152317880794705 -19.514529336877256 -5.3211589928626637 #
straight-curve $-1 0 19.514529336877256 -5.3211589928626637 1 0 0 I I #
straight-curve $-1 -52.46083288918566 -19.514529336877256 3.8211589928626637 0 0 -1 I I #
face $-1 $648 $632 $18 $-1 $675 reversed single #
loop $-1 $-1 $676 $554 #
plane-surface $-1 0 -19.514529336877256 0 0 1 0 0 0 1 forward_v I I I I #
coedge $-1 $677 $678 $571 $641 forward $555 $-1 #
coedge $-1 $645 $557 $625 $679 reversed $489 $-1 #
edge $-1 $579 -1.5 $680 1.5 $577 $681 forward 7 unknown #
coedge $-1 $559 $558 $623 $679 forward $418 $-1 #
coedge $-1 $676 $682 $558 $627 reversed $620 $-1 #
edge $-1 $633 -2.6542575041954777 $683 2.6542575041954777 $626 $684 forward 7 unknown #
coedge $-1 $577 $685 $559 $629 reversed $578 $-1 #
edge $-1 $680 -2.6542575041954777 $634 2.6542575041954777 $628 $686 forward 7 unknown #
coedge $-1 $687 $560 $685 $688 forward $632 $-1 #
coedge $-1 $560 $687 $676 $689 reversed $632 $-1 #
loop $-1 $-1 $560 $619 #
vertex $-1 $689 $690 #
vertex $-1 $688 $691 #
straight-curve $-1 -47.152317880794705 0 2.3211589928626637 0 1 0 I I #
coedge $-1 $682 $692 $562 $637 reversed $620 $-1 #
edge $-1 $646 -52.46083288918566 $639 47.152317880794705 $636 $693 forward 7 unknown #
coedge $-1 $571 $563 $692 $694 forward $431 $-1 #
vertex $-1 $564 $695 #
point $-1 47.152317880794705 1.8308172522714976 1.8234490076991818 #
edge $-1 $643 -19.514529336877256 $696 19.514529336877256 $571 $697 forward 7 unknown #
coedge $-1 $685 $572 $678 $698 reversed $578 $-1 #
vertex $-1 $641 $699 #
straight-curve $-1 47.152317880794705 19.514529336877256 0 0 0 -1 I I #
coedge $-1 $575 $623 $682 $700 reversed $489 $-1 #
vertex $-1 $576 $701 #
straight-curve $-1 -52.46083288918566 0 5.3211589928626637 0 -1 0 I I #
face $-1 $503 $578 $18 $-1 $702 reversed single #
point $-1 -52.46083288918566 19.514529336877256 5.3211589928626637 #
face $-1 $703 $704 $19 $-1 $705 reversed single #
loop $-1 $-1 $706 $582 #
plane-surface $-1 -52.46083288918566 0 3.8211589928626637 1 0 0 0 0 -1 forward_v I I I I #
coedge $-1 $707 $708 $709 $710 reversed $583 $-1 #
coedge $-1 $585 $711 $712 $713 forward $510 $-1 #
coedge $-1 $712 $592 $586 $656 forward $594 $-1 #
edge $-1 $668 -65.761566741666186 $657 -62.263856756502705 $655 $714 forward 7 unknown #
vertex $-1 $656 $715 #
straight-curve $-1 22.412373069349005 1.8308172522714976 5.3211589928626637 -1 0 0 I I #
edge $-1 $590 -9.6783922324173481 $668 2.005585909291451 $592 $716 forward 7 unknown #
point $-1 47.152317880794705 13.514795393980297 1.8234490076991818 #
coedge $-1 $593 $717 $718 $719 reversed $594 $-1 #
face $-1 $-1 $594 $19 $-1 $720 reversed single #
coedge $-1 $711 $596 $721 $722 forward $510 $-1 #
coedge $-1 $718 $723 $596 $665 reversed $724 $-1 #
edge $-1 $666 -47.152317880794705 $725 52.46083288918566 $664 $726 forward 7 unknown #
vertex $-1 $597 $727 #
straight-curve $-1 47.152317880794705 0 5.3211589928626637 0 1 0 I I #
vertex $-1 $659 $728 #
straight-curve $-1 -20.684759235769427 1.8308172522714976 67.332954382166605 -0.71933979245794832 0 0.69465837861970381 I I #
point $-1 43.53033324454082 1.8308172522714976 5.3211589928626708 #
straight-curve $-1 0 -19.514529336877256 -5.3211589928626637 -1 0 0 I I #
straight-curve $-1 -47.152317880794705 0 -5.3211589928626637 0 1 0 I I #
point $-1 -47.152317880794705 19.514529336877256 -5.3211589928626637 #
point $-1 -47.152317880794705 -19.514529336877256 -5.3211589928626637 #
plane-surface $-1 -47.152317880794705 0 0 1 0 0 0 0 -1 forward_v I I I I #
coedge $-1 $729 $626 $631 $689 forward $620 $-1 #
coedge $-1 $730 $622 $729 $731 forward $555 $-1 #
coedge $-1 $622 $730 $642 $698 forward $555 $-1 #
edge $-1 $683 -19.514529336877256 $680 19.514529336877256 $623 $732 forward 7 unknown #
vertex $-1 $629 $733 #
straight-curve $-1 -52.46083288918566 19.514529336877256 3.8211589928626637 0 0 -1 I I #
coedge $-1 $626 $636 $645 $700 forward $620 $-1 #
vertex $-1 $679 $734 #
straight-curve $-1 -49.806575384990182 -19.514529336877256 2.3211589928626637 -1 0 0 I I #
coedge $-1 $628 $642 $630 $688 reversed $578 $-1 #
straight-curve $-1 -49.806575384990182 19.514529336877256 2.3211589928626637 1 0 0 I I #
coedge $-1 $631 $630 $730 $735 reversed $632 $-1 #
edge $-1 $634 -2.3211589928626637 $736 5.3211589928626637 $685 $737 forward 7 unknown #
edge $-1 $633 -2.3211589928626637 $738 5.3211589928626637 $631 $739 forward 7 unknown #
point $-1 -47.152317880794705 -19.514529336877256 2.3211589928626637 #
point $-1 -47.152317880794705 19.514529336877256 2.3211589928626637 #
coedge $-1 $636 $729 $638 $694 reversed $620 $-1 #
straight-curve $-1 0 -19.514529336877256 5.3211589928626637 1 0 0 I I #
edge $-1 $639 -5.3211589928626637 $696 5.3211589928626637 $638 $740 forward 7 unknown #
point $-1 47.152317880794705 -19.514529336877256 5.3211589928626637 #
vertex $-1 $694 $741 #
straight-curve $-1 47.152317880794705 0 -5.3211589928626637 0 -1 0 I I #
edge $-1 $736 -47.152317880794705 $643 47.152317880794705 $642 $742 forward 7 unknown #
point $-1 47.152317880794705 19.514529336877256 -5.3211589928626637 #
edge $-1 $646 -1.5 $683 1.5 $645 $743 forward 7 unknown #
point $-1 -52.46083288918566 -19.514529336877256 5.3211589928626637 #
plane-surface $-1 0 19.514529336877256 0 0 -1 0 0 0 -1 forward_v I I I I #
face $-1 $744 $745 $19 $-1 $746 reversed single #
loop $-1 $-1 $747 $650 #
plane-surface $-1 0 0 -5.3211589928626637 0 0 1 1 0 0 forward_v I I I I #
coedge $-1 $748 $721 $723 $749 forward $651 $-1 #
coedge $-1 $750 $653 $751 $752 forward $583 $-1 #
coedge $-1 $653 $750 $753 $754 forward $583 $-1 #
coedge $-1 $755 $756 $653 $710 forward $757 $-1 #
edge $-1 $758 -19.514529336877256 $759 19.514529336877256 $709 $760 forward 7 unknown #
coedge $-1 $654 $663 $761 $762 forward $510 $-1 #
coedge $-1 $763 $655 $654 $713 reversed $594 $-1 #
edge $-1 $764 -19.514529336877256 $657 1.8308172522714976 $712 $667 forward 7 unknown #
straight-curve $-1 47.152317880794705 1.8308172522714976 67.585015749365368 0 0 1 I I #
point $-1 47.152317880794705 1.8308172522714976 5.3211589928626637 #
straight-curve $-1 47.152317880794705 3.8364031615629486 1.8234490076991818 0 -1 0 I I #
coedge $-1 $661 $763 $747 $765 reversed $594 $-1 #
coedge $-1 $766 $664 $661 $719 forward $724 $-1 #
edge $-1 $666 -5.3211589928626637 $767 5.3211589928626637 $661 $768 forward 7 unknown #
plane-surface $-1 47.152317880794705 0 0 -1 0 0 0 0 1 forward_v I I I I #
coedge $-1 $706 $769 $663 $722 reversed $651 $-1 #
edge $-1 $725 -19.514529336877256 $770 19.514529336877256 $721 $771 forward 7 unknown #
coedge $-1 $664 $753 $706 $749 reversed $724 $-1 #
loop $-1 $-1 $718 $772 #
vertex $-1 $665 $773 #
straight-curve $-1 0 19.514529336877256 5.3211589928626637 -1 0 0 I I #
point $-1 47.152317880794705 19.514529336877256 5.3211589928626637 #
point $-1 47.152317880794705 1.8308172522714976 1.8234490076991818 #
coedge $-1 $692 $676 $677 $731 reversed $620 $-1 #
coedge $-1 $678 $677 $687 $735 forward $555 $-1 #
edge $-1 $696 -47.152317880794705 $738 47.152317880794705 $729 $774 forward 7 unknown #
straight-curve $-1 -52.46083288918566 0 2.3211589928626637 0 1 0 I I #
point $-1 -52.46083288918566 19.514529336877256 2.3211589928626637 #
point $-1 -52.46083288918566 -19.514529336877256 2.3211589928626637 #
edge $-1 $738 -19.514529336877256 $736 19.514529336877256 $687 $775 forward 7 unknown #
vertex $-1 $698 $776 #
straight-curve $-1 -47.152317880794705 19.514529336877256 0 0 0 -1 I I #
vertex $-1 $735 $777 #
straight-curve $-1 -47.152317880794705 -19.514529336877256 0 0 0 -1 I I #
straight-curve $-1 47.152317880794705 -19.514529336877256 0 0 0 -1 I I #
point $-1 47.152317880794705 -19.514529336877256 -5.3211589928626637 #
straight-curve $-1 0 19.514529336877256 -5.3211589928626637 1 0 0 I I #
straight-curve $-1 -52.46083288918566 -19.514529336877256 3.8211589928626637 0 0 -1 I I #
face $-1 $772 $757 $19 $-1 $778 reversed single #
loop $-1 $-1 $779 $703 #
plane-surface $-1 0 -19.514529336877256 0 0 1 0 0 0 1 forward_v I I I I #
coedge $-1 $780 $781 $717 $765 forward $704 $-1 #
coedge $-1 $769 $706 $750 $782 reversed $651 $-1 #
edge $-1 $725 -1.5 $783 1.5 $723 $784 forward 7 unknown #
coedge $-1 $708 $707 $748 $782 forward $583 $-1 #
coedge $-1 $779 $785 $707 $752 reversed $745 $-1 #
edge $-1 $758 -2.6542575041954777 $786 2.6542575041954777 $751 $787 forward 7 unknown #
coedge $-1 $723 $788 $708 $754 reversed $724 $-1 #
edge $-1 $783 -2.6542575041954777 $759 2.6542575041954777 $753 $789 forward 7 unknown #
coedge $-1 $790 $709 $788 $791 forward $757 $-1 #
coedge $-1 $709 $790 $779 $792 reversed $757 $-1 #
loop $-1 $-1 $709 $744 #
vertex $-1 $792 $793 #
vertex $-1 $791 $794 #
straight-curve $-1 -47.152317880794705 0 2.3211589928626637 0 1 0 I I #
coedge $-1 $785 $795 $711 $762 reversed $745 $-1 #
edge $-1 $770 -52.46083288918566 $764 47.152317880794705 $761 $796 forward 7 unknown #
coedge $-1 $717 $712 $795 $797 forward $594 $-1 #
vertex $-1 $713 $798 #
edge $-1 $767 -19.514529336877256 $799 19.514529336877256 $717 $800 forward 7 unknown #
coedge $-1 $788 $718 $781 $801 reversed $724 $-1 #
vertex $-1 $765 $802 #
straight-curve $-1 47.152317880794705 19.514529336877256 0 0 0 -1 I I #
coedge $-1 $721 $748 $785 $803 reversed $651 $-1 #
vertex $-1 $722 $804 #
straight-curve $-1 -52.46083288918566 0 5.3211589928626637 0 -1 0 I I #
face $-1 $662 $724 $19 $-1 $805 reversed single #
point $-1 -52.46083288918566 19.514529336877256 5.3211589928626637 #
straight-curve $-1 0 -19.514529336877256 -5.3211589928626637 -1 0 0 I I #
straight-curve $-1 -47.152317880794705 0 -5.3211589928626637 0 1 0 I I #
point $-1 -47.152317880794705 19.514529336877256 -5.3211589928626637 #
point $-1 -47.152317880794705 -19.514529336877256 -5.3211589928626637 #
plane-surface $-1 -47.152317880794705 0 0 1 0 0 0 0 -1 forward_v I I I I #
coedge $-1 $806 $751 $756 $792 forward $745 $-1 #
coedge $-1 $807 $747 $806 $808 forward $704 $-1 #
coedge $-1 $747 $807 $766 $801 forward $704 $-1 #
edge $-1 $786 -19.514529336877256 $783 19.514529336877256 $748 $809 forward 7 unknown #
vertex $-1 $754 $810 #
straight-curve $-1 -52.46083288918566 19.514529336877256 3.8211589928626637 0 0 -1 I I #
coedge $-1 $751 $761 $769 $803 forward $745 $-1 #
vertex $-1 $782 $811 #
straight-curve $-1 -49.806575384990182 -19.514529336877256 2.3211589928626637 -1 0 0 I I #
coedge $-1 $753 $766 $755 $791 reversed $724 $-1 #
straight-curve $-1 -49.806575384990182 19.514529336877256 2.3211589928626637 1 0 0 I I #
coedge $-1 $756 $755 $807 $812 reversed $757 $-1 #
edge $-1 $759 -2.3211589928626637 $813 5.3211589928626637 $788 $814 forward 7 unknown #
edge $-1 $758 -2.3211589928626637 $815 5.3211589928626637 $756 $816 forward 7 unknown #
point $-1 -47.152317880794705 -19.514529336877256 2.3211589928626637 #
point $-1 -47.152317880794705 19.514529336877256 2.3211589928626637 #
coedge $-1 $761 $806 $763 $797 reversed $745 $-1 #
straight-curve $-1 0 -19.514529336877256 5.3211589928626637 1 0 0 I I #
edge $-1 $764 -5.3211589928626637 $799 5.3211589928626637 $763 $817 forward 7 unknown #
point $-1 47.152317880794705 -19.514529336877256 5.3211589928626637 #
vertex $-1 $797 $818 #
straight-curve $-1 47.152317880794705 0 -5.3211589928626637 0 -1 0 I I #
edge $-1 $813 -47.152317880794705 $767 47.152317880794705 $766 $819 forward 7 unknown #
point $-1 47.152317880794705 19.514529336877256 -5.3211589928626637 #
edge $-1 $770 -1.5 $786 1.5 $769 $820 forward 7 unknown #
point $-1 -52.46083288918566 -19.514529336877256 5.3211589928626637 #
plane-surface $-1 0 19.514529336877256 0 0 -1 0 0 0 -1 forward_v I I I I #
coedge $-1 $795 $779 $780 $808 reversed $745 $-1 #
coedge $-1 $781 $780 $790 $812 forward $704 $-1 #
edge $-1 $799 -47.152317880794705 $815 47.152317880794705 $806 $821 forward 7 unknown #
straight-curve $-1 -52.46083288918566 0 2.3211589928626637 0 1 0 I I #
point $-1 -52.46083288918566 19.514529336877256 2.3211589928626637 #
point $-1 -52.46083288918566 -19.514529336877256 2.3211589928626637 #
edge $-1 $815 -19.514529336877256 $813 19.514529336877256 $790 $822 forward 7 unknown #
vertex $-1 $801 $823 #
straight-curve $-1 -47.152317880794705 19.514529336877256 0 0 0 -1 I I #
vertex $-1 $812 $824 #
straight-curve $-1 -47.152317880794705 -19.514529336877256 0 0 0 -1 I I #
straight-curve $-1 47.152317880794705 -19.514529336877256 0 0 0 -1 I I #
point $-1 47.152317880794705 -19.514529336877256 -5.3211589928626637 #
straight-curve $-1 0 19.514529336877256 -5.3211589928626637 1 0 0 I I #
straight-curve $-1 -52.46083288918566 -19.514529336877256 3.8211589928626637 0 0 -1 I I #
straight-curve $-1 0 -19.514529336877256 -5.3211589928626637 -1 0 0 I I #
straight-curve $-1 -47.152317880794705 0 -5.3211589928626637 0 1 0 I I #
point $-1 -47.152317880794705 19.514529336877256 -5.3211589928626637 #
point $-1 -47.152317880794705 -19.514529336877256 -5.3211589928626637 #
End-of-ACIS-data 