500 0 10 0           
7 Unknown 11 ACIS 5.0 NT 24 Fri Mar 26 16:30:42 1999 
-1 9.9999999999999995e-007 1e-010 
body $-1 $10 $-1 $11 #
body $-1 $12 $-1 $13 #
body $-1 $14 $-1 $15 #
body $-1 $16 $-1 $17 #
body $-1 $18 $-1 $19 #
body $-1 $20 $-1 $21 #
body $-1 $22 $-1 $23 #
body $-1 $24 $-1 $25 #
body $-1 $26 $-1 $27 #
body $-1 $28 $-1 $29 #
lump $-1 $-1 $30 $0 #
transform $-1 1 0 0 0 1 0 0 0 1 42.551347392193364 21.421636751819896 6.2789382006036263 1 rotate no_reflect no_shear #
lump $-1 $-1 $31 $1 #
transform $-1 1 0 0 0 1 0 0 0 1 42.551347392193364 21.421636751819896 6.2789382006036263 1 rotate no_reflect no_shear #
lump $-1 $-1 $32 $2 #
transform $-1 1 0 0 0 1 0 0 0 1 42.551347392193364 21.421636751819896 6.2789382006036263 1 rotate no_reflect no_shear #
lump $-1 $-1 $33 $3 #
transform $-1 1 0 0 0 1 0 0 0 1 42.551347392193364 21.421636751819896 6.2789382006036263 1 rotate no_reflect no_shear #
lump $-1 $-1 $34 $4 #
transform $-1 1 0 0 0 1 0 0 0 1 42.551347392193364 21.421636751819896 6.2789382006036263 1 rotate no_reflect no_shear #
lump $-1 $-1 $35 $5 #
transform $-1 1 0 0 0 1 0 0 0 1 42.551347392193364 21.421636751819896 6.2789382006036263 1 rotate no_reflect no_shear #
lump $-1 $-1 $36 $6 #
transform $-1 1 0 0 0 1 0 0 0 1 42.551347392193364 21.421636751819896 6.2789382006036263 1 rotate no_reflect no_shear #
lump $-1 $-1 $37 $7 #
transform $-1 1 0 0 0 1 0 0 0 1 42.551347392193364 21.421636751819896 6.2789382006036263 1 rotate no_reflect no_shear #
lump $-1 $-1 $38 $8 #
transform $-1 1 0 0 0 1 0 0 0 1 42.551347392193364 21.421636751819896 6.2789382006036263 1 rotate no_reflect no_shear #
lump $-1 $-1 $39 $9 #
transform $-1 1 0 0 0 1 0 0 0 1 42.551347392193364 21.421636751819896 6.2789382006036263 1 rotate no_reflect no_shear #
shell $-1 $-1 $-1 $40 $-1 $10 #
shell $-1 $-1 $-1 $41 $-1 $12 #
shell $-1 $-1 $-1 $42 $-1 $14 #
shell $-1 $-1 $-1 $43 $-1 $16 #
shell $-1 $-1 $-1 $44 $-1 $18 #
shell $-1 $-1 $-1 $45 $-1 $20 #
shell $-1 $-1 $-1 $46 $-1 $22 #
shell $-1 $-1 $-1 $47 $-1 $24 #
shell $-1 $-1 $-1 $48 $-1 $26 #
shell $-1 $-1 $-1 $49 $-1 $28 #
face $-1 $50 $51 $30 $-1 $52 forward single #
face $-1 $53 $54 $31 $-1 $55 forward single #
face $-1 $56 $57 $32 $-1 $58 reversed single #
face $-1 $59 $60 $33 $-1 $61 forward single #
face $-1 $62 $63 $34 $-1 $64 forward single #
face $-1 $65 $66 $35 $-1 $67 forward single #
face $-1 $68 $69 $36 $-1 $70 reversed single #
face $-1 $71 $72 $37 $-1 $73 forward single #
face $-1 $74 $75 $38 $-1 $76 reversed single #
face $-1 $77 $78 $39 $-1 $79 forward single #
face $-1 $80 $81 $30 $-1 $82 reversed single #
loop $-1 $-1 $83 $40 #
plane-surface $-1 0 0 6.2789382006036263 0 0 1 1 0 0 forward_v I I I I #
face $-1 $84 $85 $31 $-1 $86 reversed single #
loop $-1 $-1 $87 $41 #
plane-surface $-1 -38.873739159894811 0 -3.2789382006036263 0 0 1 1 0 0 forward_v I I I I #
face $-1 $88 $89 $32 $-1 $90 reversed single #
loop $-1 $-1 $91 $42 #
plane-surface $-1 -25.291152766950283 -89.387671507227083 52.391181426969631 1 0 0 0 0.79863551827123203 -0.60181501223851219 forward_v I I I I #
face $-1 $92 $93 $33 $-1 $94 forward single #
loop $-1 $95 $96 $43 #
cone-surface $-1 -23.232613467024045 -18.928619501767045 3.2974874848770011 0 0.79863551827123203 -0.60181501223851219 0.5 0 0 1 I I 0 1 0.5 forward I I I I #
face $-1 $97 $98 $34 $-1 $99 forward single #
loop $-1 $100 $101 $44 #
cone-surface $-1 -20.144804517134688 -18.928619501767045 3.2974874848770011 0 0.79863551827123203 -0.60181501223851219 0.5 0 0 1 I I 0 1 0.5 forward I I I I #
face $-1 $102 $103 $35 $-1 $104 forward single #
loop $-1 $105 $106 $45 #
cone-surface $-1 -17.05699556724533 -18.928619501767045 3.2974874848770011 0 0.79863551827123203 -0.60181501223851219 0.5 0 0 1 I I 0 1 0.5 forward I I I I #
face $-1 $107 $108 $36 $-1 $109 reversed single #
loop $-1 $-1 $110 $46 #
plane-surface $-1 -20.933526039703565 68.01731494903575 85.749609280395617 1 0 0 0 -0.82903758062907751 -0.55919289150049634 forward_v I I I I #
face $-1 $111 $112 $37 $-1 $113 forward single #
loop $-1 $114 $115 $47 #
cone-surface $-1 -11.901642745192714 19.674695360567728 4.1095043084820189 0 -0.82903758062907751 -0.55919289150049634 1 0 0 1 I I 0 1 1 forward I I I I #
face $-1 $116 $117 $38 $-1 $118 reversed single #
loop $-1 $-1 $119 $48 #
plane-surface $-1 10.224975915278966 68.01731494903575 85.749609280395617 1 0 0 0 -0.82903758062907751 -0.55919289150049634 forward_v I I I I #
face $-1 $120 $121 $39 $-1 $122 forward single #
loop $-1 $123 $124 $49 #
cone-surface $-1 19.256859209789823 19.674695360567728 4.1095043084820189 0 -0.82903758062907751 -0.55919289150049634 1 0 0 1 I I 0 1 1 forward I I I I #
face $-1 $125 $126 $30 $-1 $127 reversed single #
loop $-1 $-1 $128 $50 #
plane-surface $-1 0 0 -6.2789382006036263 0 0 1 1 0 0 forward_v I I I I #
coedge $-1 $129 $130 $131 $132 forward $51 $-1 #
face $-1 $133 $134 $31 $-1 $135 reversed single #
loop $-1 $-1 $136 $53 #
plane-surface $-1 -35.196130927596258 0 -4.7789382006036263 -1 0 0 0 0 1 forward_v I I I I #
coedge $-1 $137 $138 $139 $140 forward $54 $-1 #
face $-1 $141 $142 $32 $-1 $143 reversed single #
loop $-1 $-1 $144 $56 #
plane-surface $-1 -20.144804517134688 -21.421636751819918 1.1751021237735628 0 -0.79863551827123203 0.60181501223851219 1 0 0 forward_v I I I I #
coedge $-1 $145 $146 $147 $148 reversed $57 $-1 #
face $-1 $-1 $149 $33 $-1 $150 forward single #
loop $-1 $151 $152 $59 #
cone-surface $-1 -23.232613467024045 -18.158951490849716 2.7175010545057781 0 0.79863551827123203 -0.60181501223851219 0.25 0 0 1 I I -0.70710678118654746 0.70710678118654746 0.25 forward I I I I #
loop $-1 $-1 $153 $43 #
coedge $-1 $96 $96 $154 $155 reversed $60 $-1 #
face $-1 $-1 $156 $34 $-1 $157 forward single #
loop $-1 $158 $159 $62 #
cone-surface $-1 -20.144804517134688 -18.158951490849716 2.7175010545057781 0 0.79863551827123203 -0.60181501223851219 0.25 0 0 1 I I -0.70710678118654746 0.70710678118654746 0.25 forward I I I I #
loop $-1 $-1 $160 $44 #
coedge $-1 $101 $101 $161 $162 reversed $63 $-1 #
face $-1 $-1 $163 $35 $-1 $164 forward single #
loop $-1 $165 $166 $65 #
cone-surface $-1 -17.05699556724533 -18.158951490849716 2.7175010545057781 0 0.79863551827123203 -0.60181501223851219 0.25 0 0 1 I I -0.70710678118654746 0.70710678118654746 0.25 forward I I I I #
loop $-1 $-1 $167 $45 #
coedge $-1 $106 $106 $168 $169 reversed $66 $-1 #
face $-1 $170 $171 $36 $-1 $172 reversed single #
loop $-1 $-1 $173 $68 #
plane-surface $-1 -11.90164274519271 -2.5360172400270358 38.160787309430198 0 0.82903758062907751 0.55919289150049634 1 0 0 forward_v I I I I #
coedge $-1 $174 $175 $176 $177 reversed $69 $-1 #
face $-1 $-1 $178 $37 $-1 $179 forward single #
loop $-1 $180 $181 $71 #
cone-surface $-1 -11.901642745192714 18.739773131513935 3.4788913220405888 0 -0.82903758062907751 -0.55919289150049634 0.5 0 0 1 I I -0.70710678118654746 0.70710678118654746 0.5 forward I I I I #
loop $-1 $-1 $182 $47 #
coedge $-1 $115 $115 $183 $184 reversed $72 $-1 #
face $-1 $185 $186 $38 $-1 $187 reversed single #
loop $-1 $-1 $188 $74 #
plane-surface $-1 19.256859209789823 -2.5360172400270358 38.160787309430198 0 0.82903758062907751 0.55919289150049634 1 0 0 forward_v I I I I #
coedge $-1 $189 $190 $191 $192 reversed $75 $-1 #
face $-1 $-1 $193 $39 $-1 $194 forward single #
loop $-1 $195 $196 $77 #
cone-surface $-1 19.256859209789823 18.739773131513935 3.4788913220405888 0 -0.82903758062907751 -0.55919289150049634 0.5 0 0 1 I I -0.70710678118654746 0.70710678118654746 0.5 forward I I I I #
loop $-1 $-1 $197 $49 #
coedge $-1 $124 $124 $198 $199 reversed $78 $-1 #
face $-1 $200 $201 $30 $-1 $202 reversed single #
loop $-1 $-1 $203 $80 #
plane-surface $-1 0 -21.421636751819896 0 0 1 0 0 0 1 forward_v I I I I #
coedge $-1 $204 $205 $206 $207 forward $81 $-1 #
coedge $-1 $208 $83 $209 $210 forward $51 $-1 #
coedge $-1 $83 $208 $211 $212 forward $51 $-1 #
coedge $-1 $213 $214 $83 $132 reversed $215 $-1 #
edge $-1 $216 -21.421636751819896 $217 21.421636751819896 $131 $218 forward 7 unknown #
face $-1 $219 $220 $31 $-1 $221 reversed single #
loop $-1 $-1 $222 $84 #
plane-surface $-1 0 0 -6.2789382006036263 0 0 1 1 0 0 forward_v I I I I #
coedge $-1 $223 $139 $224 $225 reversed $85 $-1 #
coedge $-1 $226 $87 $227 $228 reversed $54 $-1 #
coedge $-1 $87 $226 $229 $230 reversed $54 $-1 #
coedge $-1 $136 $231 $87 $140 reversed $85 $-1 #
edge $-1 $232 -21.421636751819896 $233 21.421636751819896 $139 $234 forward 7 unknown #
face $-1 $235 $236 $32 $-1 $237 forward single #
loop $-1 $-1 $238 $88 #
plane-surface $-1 -14.99845626731909 -89.387671507227083 52.391181426969631 -1 0 0 0 -0.79863551827123203 0.60181501223851219 forward_v I I I I #
coedge $-1 $239 $240 $241 $242 reversed $89 $-1 #
coedge $-1 $146 $91 $243 $244 reversed $57 $-1 #
coedge $-1 $91 $145 $239 $245 reversed $57 $-1 #
coedge $-1 $241 $246 $91 $148 forward $247 $-1 #
edge $-1 $248 19.916652512881189 $249 25.020488589711224 $147 $250 forward 7 unknown #
loop $-1 $-1 $154 $92 #
plane-surface $-1 -20.144804517134688 -21.421636751819918 1.1751021237735628 0 -0.79863551827123203 0.60181501223851219 1 0 0 forward_v I I I I #
loop $-1 $-1 $251 $59 #
coedge $-1 $152 $152 $153 $252 reversed $93 $-1 #
coedge $-1 $153 $153 $152 $252 forward $95 $-1 #
coedge $-1 $154 $154 $96 $155 forward $149 $-1 #
edge $-1 $253 -2.7768197592362147e-015 $253 6.2831853071795978 $154 $254 forward 7 unknown #
loop $-1 $-1 $161 $97 #
plane-surface $-1 -20.144804517134688 -21.421636751819918 1.1751021237735628 0 -0.79863551827123203 0.60181501223851219 1 0 0 forward_v I I I I #
loop $-1 $-1 $255 $62 #
coedge $-1 $159 $159 $160 $256 reversed $98 $-1 #
coedge $-1 $160 $160 $159 $256 forward $100 $-1 #
coedge $-1 $161 $161 $101 $162 forward $156 $-1 #
edge $-1 $257 -2.7768197592362147e-015 $257 6.2831853071795978 $161 $258 forward 7 unknown #
loop $-1 $-1 $168 $102 #
plane-surface $-1 -20.144804517134688 -21.421636751819918 1.1751021237735628 0 -0.79863551827123203 0.60181501223851219 1 0 0 forward_v I I I I #
loop $-1 $-1 $259 $65 #
coedge $-1 $166 $166 $167 $260 reversed $103 $-1 #
coedge $-1 $167 $167 $166 $260 forward $105 $-1 #
coedge $-1 $168 $168 $106 $169 forward $163 $-1 #
edge $-1 $261 -2.7768197592362147e-015 $261 6.2831853071795978 $168 $262 forward 7 unknown #
face $-1 $263 $264 $36 $-1 $265 reversed single #
loop $-1 $-1 $266 $107 #
plane-surface $-1 -2.8697594506818529 68.01731494903575 85.749609280395617 -1 0 0 0 0.82903758062907751 0.55919289150049634 forward_v I I I I #
coedge $-1 $267 $268 $269 $270 reversed $108 $-1 #
coedge $-1 $175 $110 $271 $272 reversed $69 $-1 #
coedge $-1 $110 $174 $267 $273 reversed $69 $-1 #
coedge $-1 $269 $274 $110 $177 forward $275 $-1 #
edge $-1 $276 12.587020722697979 $277 15.040096627723795 $176 $278 forward 7 unknown #
loop $-1 $-1 $183 $111 #
plane-surface $-1 -11.90164274519271 -2.5360172400270358 38.160787309430198 0 0.82903758062907751 0.55919289150049634 1 0 0 forward_v I I I I #
loop $-1 $-1 $279 $71 #
coedge $-1 $181 $181 $182 $280 reversed $112 $-1 #
coedge $-1 $182 $182 $181 $280 forward $114 $-1 #
coedge $-1 $183 $183 $115 $184 forward $178 $-1 #
edge $-1 $281 -1.3196093447709273e-015 $281 6.2831853071795996 $183 $282 forward 7 unknown #
face $-1 $283 $284 $38 $-1 $285 forward single #
loop $-1 $-1 $286 $116 #
plane-surface $-1 28.288742504300679 68.01731494903575 85.749609280395617 -1 0 0 0 0.82903758062907751 0.55919289150049634 forward_v I I I I #
coedge $-1 $287 $288 $289 $290 reversed $117 $-1 #
coedge $-1 $190 $119 $291 $292 reversed $75 $-1 #
coedge $-1 $119 $189 $287 $293 reversed $75 $-1 #
coedge $-1 $289 $294 $119 $192 forward $284 $-1 #
edge $-1 $295 12.587020722697979 $296 15.040096627723795 $191 $297 forward 7 unknown #
loop $-1 $-1 $198 $120 #
plane-surface $-1 19.256859209789823 -2.5360172400270358 38.160787309430198 0 0.82903758062907751 0.55919289150049634 1 0 0 forward_v I I I I #
loop $-1 $-1 $298 $77 #
coedge $-1 $196 $196 $197 $299 reversed $121 $-1 #
coedge $-1 $197 $197 $196 $299 forward $123 $-1 #
coedge $-1 $198 $198 $124 $199 forward $193 $-1 #
edge $-1 $300 -1.3196093447709273e-015 $300 6.2831853071795996 $198 $301 forward 7 unknown #
face $-1 $302 $303 $30 $-1 $304 reversed single #
loop $-1 $-1 $305 $125 #
plane-surface $-1 -42.551347392193364 0 0 1 0 0 0 0 -1 forward_v I I I I #
coedge $-1 $306 $211 $307 $308 forward $126 $-1 #
coedge $-1 $309 $128 $306 $310 forward $81 $-1 #
coedge $-1 $128 $309 $311 $312 forward $81 $-1 #
coedge $-1 $214 $213 $128 $207 reversed $215 $-1 #
edge $-1 $313 -21.421636751819896 $314 21.421636751819896 $206 $315 forward 7 unknown #
coedge $-1 $130 $129 $316 $317 forward $51 $-1 #
coedge $-1 $318 $319 $129 $210 reversed $303 $-1 #
edge $-1 $217 -42.551347392193364 $320 42.551347392193364 $209 $321 forward 7 unknown #
coedge $-1 $203 $322 $130 $212 reversed $126 $-1 #
edge $-1 $323 -42.551347392193364 $216 42.551347392193364 $211 $324 forward 7 unknown #
coedge $-1 $206 $131 $322 $325 forward $215 $-1 #
coedge $-1 $131 $206 $318 $326 reversed $215 $-1 #
loop $-1 $-1 $213 $302 #
vertex $-1 $132 $327 #
vertex $-1 $132 $328 #
straight-curve $-1 42.551347392193364 0 6.2789382006036263 0 1 0 I I #
face $-1 $329 $330 $31 $-1 $331 reversed single #
loop $-1 $-1 $224 $133 #
plane-surface $-1 0 -21.421636751819896 0 0 1 0 0 0 1 forward_v I I I I #
coedge $-1 $332 $333 $223 $334 forward $134 $-1 #
coedge $-1 $231 $136 $222 $334 reversed $85 $-1 #
coedge $-1 $229 $335 $136 $225 forward $220 $-1 #
edge $-1 $336 -3.8894691003018131 $232 -0.88946910030181314 $224 $337 forward 7 unknown #
coedge $-1 $138 $137 $338 $339 reversed $54 $-1 #
coedge $-1 $340 $341 $137 $228 forward $342 $-1 #
edge $-1 $343 -23.114477812245958 $233 -15.759261347648852 $227 $344 forward 7 unknown #
coedge $-1 $345 $224 $138 $230 forward $220 $-1 #
edge $-1 $232 15.759261347648852 $346 23.114477812245958 $229 $347 forward 7 unknown #
coedge $-1 $139 $223 $340 $348 reversed $85 $-1 #
vertex $-1 $230 $349 #
vertex $-1 $228 $350 #
straight-curve $-1 -35.196130927596258 0 -3.2789382006036263 0 1 0 I I #
face $-1 $-1 $247 $32 $-1 $351 reversed single #
loop $-1 $-1 $352 $141 #
plane-surface $-1 0 0 6.2789382006036263 0 0 1 1 0 0 forward_v I I I I #
coedge $-1 $353 $354 $355 $356 reversed $142 $-1 #
coedge $-1 $357 $144 $146 $245 forward $89 $-1 #
coedge $-1 $144 $357 $353 $358 forward $89 $-1 #
coedge $-1 $355 $147 $144 $242 forward $247 $-1 #
edge $-1 $249 -15.218750508382939 $359 -4.9260540087517466 $241 $360 forward 7 unknown #
coedge $-1 $361 $362 $145 $244 forward $236 $-1 #
edge $-1 $363 -27.118215239200289 $248 -23.272199001793645 $243 $364 forward 7 unknown #
edge $-1 $249 3.5349712489494954e-014 $363 6.3906950793749981 $146 $365 forward 7 unknown #
coedge $-1 $147 $355 $361 $366 reversed $247 $-1 #
loop $-1 $-1 $355 $235 #
vertex $-1 $366 $367 #
vertex $-1 $148 $368 #
straight-curve $-1 -25.291152766950283 -21.421636751819896 26.195590713484815 0 0 -1 I I #
coedge $-1 $251 $251 $-1 $369 reversed $151 $-1 #
edge $-1 $370 0 $370 6.2831853071796004 $152 $371 forward 7 unknown #
vertex $-1 $155 $372 #
ellipse-curve $-1 -23.232613467024045 -19.498628633116578 3.7270201621886052 0 -0.79863551827123203 0.60181501223851219 0.5 0 0 1 I I #
coedge $-1 $255 $255 $-1 $373 reversed $158 $-1 #
edge $-1 $374 0 $374 6.2831853071796004 $159 $375 forward 7 unknown #
vertex $-1 $162 $376 #
ellipse-curve $-1 -20.144804517134688 -19.498628633116578 3.7270201621886052 0 -0.79863551827123203 0.60181501223851219 0.5 0 0 1 I I #
coedge $-1 $259 $259 $-1 $377 reversed $165 $-1 #
edge $-1 $378 0 $378 6.2831853071796004 $166 $379 forward 7 unknown #
vertex $-1 $169 $380 #
ellipse-curve $-1 -17.05699556724533 -19.498628633116578 3.7270201621886052 0 -0.79863551827123203 0.60181501223851219 0.5 0 0 1 I I #
face $-1 $-1 $275 $36 $-1 $381 forward single #
loop $-1 $-1 $382 $170 #
plane-surface $-1 0 21.421636751819896 0 0 -1 0 0 0 -1 forward_v I I I I #
coedge $-1 $383 $384 $385 $386 reversed $171 $-1 #
coedge $-1 $387 $173 $175 $273 forward $108 $-1 #
coedge $-1 $173 $387 $383 $388 forward $108 $-1 #
coedge $-1 $385 $176 $173 $270 forward $275 $-1 #
edge $-1 $277 -14.98270466710721 $389 3.0810619219145021 $269 $390 forward 7 unknown #
coedge $-1 $391 $392 $174 $272 forward $264 $-1 #
edge $-1 $393 -40.232701142454999 $276 -36.595866439594182 $271 $394 forward 7 unknown #
edge $-1 $277 38.4564582520306 $393 42.843273503639793 $175 $395 forward 7 unknown #
coedge $-1 $176 $385 $391 $396 forward $275 $-1 #
loop $-1 $-1 $385 $263 #
vertex $-1 $272 $397 #
vertex $-1 $177 $398 #
straight-curve $-1 -20.933526039703565 34.008657474517875 6.2789382006036263 0 -1 0 I I #
coedge $-1 $279 $279 $-1 $399 reversed $180 $-1 #
edge $-1 $400 0 $400 6.2831853071796004 $181 $401 forward 7 unknown #
vertex $-1 $184 $402 #
ellipse-curve $-1 -11.901642745192714 20.195098799306997 4.4605208491732089 0 0.82903758062907751 0.55919289150049634 1 0 0 1 I I #
face $-1 $-1 $403 $38 $-1 $404 reversed single #
loop $-1 $-1 $191 $185 #
plane-surface $-1 0 0 6.2789382006036263 0 0 1 1 0 0 forward_v I I I I #
coedge $-1 $405 $406 $407 $408 reversed $186 $-1 #
coedge $-1 $409 $188 $190 $293 forward $117 $-1 #
coedge $-1 $188 $409 $405 $410 forward $117 $-1 #
coedge $-1 $407 $191 $188 $290 forward $284 $-1 #
edge $-1 $296 0.59654631038405448 $411 18.660312899405767 $289 $412 forward 7 unknown #
coedge $-1 $413 $414 $189 $292 forward $403 $-1 #
edge $-1 $415 -40.232701142454999 $295 -36.595866439594182 $291 $416 forward 7 unknown #
edge $-1 $296 38.4564582520306 $415 42.843273503639793 $190 $417 forward 7 unknown #
coedge $-1 $191 $407 $413 $418 forward $284 $-1 #
vertex $-1 $292 $419 #
vertex $-1 $192 $420 #
straight-curve $-1 10.224975915278966 34.008657474517875 6.2789382006036263 0 -1 0 I I #
coedge $-1 $298 $298 $-1 $421 reversed $195 $-1 #
edge $-1 $422 0 $422 6.2831853071796004 $196 $423 forward 7 unknown #
vertex $-1 $199 $424 #
ellipse-curve $-1 19.256859209789823 20.195098799306997 4.4605208491732089 0 0.82903758062907751 0.55919289150049634 1 0 0 1 I I #
face $-1 $-1 $215 $30 $-1 $425 reversed single #
loop $-1 $-1 $318 $200 #
plane-surface $-1 0 21.421636751819896 0 0 -1 0 0 0 -1 forward_v I I I I #
coedge $-1 $426 $316 $319 $427 forward $201 $-1 #
coedge $-1 $322 $203 $204 $310 reversed $126 $-1 #
coedge $-1 $316 $426 $203 $308 reversed $201 $-1 #
edge $-1 $323 -6.2789382006036263 $428 6.2789382006036263 $307 $429 forward 7 unknown #
coedge $-1 $205 $204 $426 $430 forward $81 $-1 #
edge $-1 $314 -42.551347392193364 $428 42.551347392193364 $306 $431 forward 7 unknown #
coedge $-1 $319 $318 $205 $312 reversed $303 $-1 #
edge $-1 $432 -42.551347392193364 $313 42.551347392193364 $311 $433 forward 7 unknown #
vertex $-1 $207 $434 #
vertex $-1 $325 $435 #
straight-curve $-1 42.551347392193364 0 -6.2789382006036263 0 -1 0 I I #
coedge $-1 $305 $307 $208 $317 reversed $201 $-1 #
edge $-1 $320 -21.421636751819896 $323 21.421636751819896 $316 $436 forward 7 unknown #
coedge $-1 $311 $209 $214 $326 forward $303 $-1 #
coedge $-1 $209 $311 $305 $427 reversed $303 $-1 #
vertex $-1 $210 $437 #
straight-curve $-1 0 21.421636751819896 6.2789382006036263 -1 0 0 I I #
coedge $-1 $211 $306 $213 $325 reversed $126 $-1 #
vertex $-1 $317 $438 #
straight-curve $-1 0 -21.421636751819896 6.2789382006036263 1 0 0 I I #
edge $-1 $216 -6.2789382006036263 $314 6.2789382006036263 $213 $439 forward 7 unknown #
edge $-1 $217 -6.2789382006036263 $313 6.2789382006036263 $214 $440 forward 7 unknown #
point $-1 42.551347392193364 -21.421636751819896 6.2789382006036263 #
point $-1 42.551347392193364 21.421636751819896 6.2789382006036263 #
face $-1 $-1 $342 $31 $-1 $441 reversed single #
loop $-1 $-1 $338 $219 #
plane-surface $-1 -42.551347392193364 0 0 1 0 0 0 0 -1 forward_v I I I I #
coedge $-1 $442 $222 $335 $443 forward $134 $-1 #
coedge $-1 $222 $442 $444 $445 forward $134 $-1 #
edge $-1 $446 -21.421636751819896 $336 21.421636751819896 $222 $447 forward 7 unknown #
coedge $-1 $224 $345 $332 $443 reversed $220 $-1 #
vertex $-1 $443 $448 #
straight-curve $-1 -35.196130927596258 -21.421636751819896 -2.3894691003018131 0 0 1 I I #
coedge $-1 $449 $450 $226 $339 forward $330 $-1 #
edge $-1 $346 -21.421636751819896 $343 21.421636751819896 $338 $451 forward 7 unknown #
coedge $-1 $444 $227 $231 $348 forward $342 $-1 #
coedge $-1 $227 $444 $449 $452 reversed $342 $-1 #
loop $-1 $-1 $340 $329 #
vertex $-1 $452 $453 #
straight-curve $-1 -19.436869579947405 21.421636751819896 -3.2789382006036263 1 0 0 I I #
coedge $-1 $335 $229 $450 $454 forward $220 $-1 #
vertex $-1 $454 $455 #
straight-curve $-1 -19.436869579947405 -21.421636751819896 -3.2789382006036263 -1 0 0 I I #
edge $-1 $233 0.88946910030181314 $446 3.8894691003018131 $340 $456 forward 7 unknown #
point $-1 -35.196130927596258 -21.421636751819896 -3.2789382006036263 #
point $-1 -35.196130927596258 21.421636751819896 -3.2789382006036263 #
plane-surface $-1 0 -21.421636751819896 0 0 1 0 0 0 1 forward_v I I I I #
coedge $-1 $362 $361 $354 $457 forward $236 $-1 #
coedge $-1 $354 $238 $240 $358 reversed $142 $-1 #
coedge $-1 $238 $353 $352 $457 reversed $142 $-1 #
coedge $-1 $246 $241 $238 $356 forward $247 $-1 #
edge $-1 $359 -25.020488589711224 $458 -19.916652512881189 $355 $459 forward 7 unknown #
coedge $-1 $240 $239 $362 $460 reversed $89 $-1 #
edge $-1 $461 -6.3906950793749981 $359 -3.5349712489494954e-014 $353 $462 forward 7 unknown #
vertex $-1 $242 $463 #
straight-curve $-1 -10.072402258567344 -21.421636751819896 1.1751021237735908 1 0 0 I I #
coedge $-1 $352 $243 $246 $366 forward $236 $-1 #
coedge $-1 $243 $352 $357 $460 forward $236 $-1 #
vertex $-1 $244 $464 #
straight-curve $-1 -25.291152766950283 -44.693835753613541 6.2789382006036263 0 -1 0 I I #
straight-curve $-1 -25.291152766950283 -21.421636751819918 1.1751021237735628 0 0.60181501223851219 0.79863551827123203 I I #
edge $-1 $248 -25.291152766950283 $458 -14.99845626731909 $246 $465 forward 7 unknown #
point $-1 -25.291152766950283 -21.421636751819896 6.2789382006036263 #
point $-1 -25.291152766950283 -21.421636751819896 1.175102123773591 #
edge $-1 $466 1 $466 0 $251 $-1 forward 7 unknown #
vertex $-1 $252 $467 #
ellipse-curve $-1 -23.232613467024045 -18.358610370417523 2.8679548075654062 0 -0.79863551827123203 0.60181501223851219 0.5 0 0 1 I I #
point $-1 -22.732613467024045 -19.498628633116567 3.7270201621885954 #
edge $-1 $468 1 $468 0 $255 $-1 forward 7 unknown #
vertex $-1 $256 $469 #
ellipse-curve $-1 -20.144804517134688 -18.358610370417523 2.8679548075654062 0 -0.79863551827123203 0.60181501223851219 0.5 0 0 1 I I #
point $-1 -19.644804517134688 -19.498628633116567 3.7270201621885954 #
edge $-1 $470 1 $470 0 $259 $-1 forward 7 unknown #
vertex $-1 $260 $471 #
ellipse-curve $-1 -17.05699556724533 -18.358610370417523 2.8679548075654062 0 -0.79863551827123203 0.60181501223851219 0.5 0 0 1 I I #
point $-1 -16.55699556724533 -19.498628633116567 3.7270201621885954 #
plane-surface $-1 0 0 6.2789382006036263 0 0 1 1 0 0 forward_v I I I I #
coedge $-1 $392 $391 $384 $472 forward $264 $-1 #
coedge $-1 $384 $266 $268 $388 reversed $171 $-1 #
coedge $-1 $266 $383 $382 $472 reversed $171 $-1 #
coedge $-1 $274 $269 $266 $386 forward $275 $-1 #
edge $-1 $389 -15.040096627723795 $473 -12.587020722697979 $385 $474 forward 7 unknown #
coedge $-1 $268 $267 $392 $475 reversed $108 $-1 #
edge $-1 $476 -42.843273503639793 $389 -38.4564582520306 $383 $477 forward 7 unknown #
vertex $-1 $270 $478 #
straight-curve $-1 -5.950821372596355 18.96856084679408 6.2789382006036263 1 0 0 I I #
coedge $-1 $382 $271 $274 $396 reversed $264 $-1 #
coedge $-1 $271 $382 $387 $475 forward $264 $-1 #
vertex $-1 $272 $479 #
straight-curve $-1 -20.933526039703565 21.421636751819896 42.874804640197809 0 0 1 I I #
straight-curve $-1 -20.933526039703565 -2.5360172400270358 38.160787309430198 0 0.55919289150049634 -0.82903758062907751 I I #
edge $-1 $473 2.8697594506818529 $276 20.933526039703565 $391 $480 forward 7 unknown #
point $-1 -20.933526039703565 21.421636751819896 6.2789382006036263 #
point $-1 -20.933526039703565 18.96856084679408 6.2789382006036263 #
edge $-1 $481 1 $481 0 $279 $-1 forward 7 unknown #
vertex $-1 $280 $482 #
ellipse-curve $-1 -11.901642745192714 19.154291921828474 3.7584877677908368 0 0.82903758062907751 0.55919289150049634 1 0 0 1 I I #
point $-1 -10.901642745192714 20.195098799306983 4.4605208491732009 #
loop $-1 $-1 $291 $283 #
plane-surface $-1 0 21.421636751819896 0 0 -1 0 0 0 -1 forward_v I I I I #
coedge $-1 $406 $286 $288 $410 reversed $186 $-1 #
coedge $-1 $286 $405 $483 $484 reversed $186 $-1 #
coedge $-1 $294 $289 $286 $408 forward $284 $-1 #
edge $-1 $411 -15.040096627723795 $485 -12.587020722697979 $407 $486 forward 7 unknown #
coedge $-1 $288 $287 $414 $487 reversed $117 $-1 #
edge $-1 $488 -42.843273503639793 $411 -38.4564582520306 $405 $489 forward 7 unknown #
vertex $-1 $290 $490 #
straight-curve $-1 9.6284296048949116 18.96856084679408 6.2789382006036263 1 0 0 I I #
coedge $-1 $483 $291 $294 $418 reversed $403 $-1 #
coedge $-1 $291 $483 $409 $487 forward $403 $-1 #
vertex $-1 $292 $491 #
straight-curve $-1 10.224975915278966 21.421636751819896 42.874804640197809 0 0 1 I I #
straight-curve $-1 10.224975915278966 -2.5360172400270358 38.160787309430198 0 0.55919289150049634 -0.82903758062907751 I I #
edge $-1 $485 -28.288742504300679 $295 -10.224975915278966 $413 $492 forward 7 unknown #
point $-1 10.224975915278966 21.421636751819896 6.2789382006036263 #
point $-1 10.224975915278966 18.96856084679408 6.2789382006036263 #
edge $-1 $493 1 $493 0 $298 $-1 forward 7 unknown #
vertex $-1 $299 $494 #
ellipse-curve $-1 19.256859209789823 19.154291921828474 3.7584877677908368 0 0.82903758062907751 0.55919289150049634 1 0 0 1 I I #
point $-1 20.256859209789823 20.195098799306983 4.4605208491732009 #
plane-surface $-1 42.551347392193364 0 0 -1 0 0 0 0 1 forward_v I I I I #
coedge $-1 $307 $305 $309 $430 reversed $201 $-1 #
edge $-1 $320 -6.2789382006036263 $432 6.2789382006036263 $319 $495 forward 7 unknown #
vertex $-1 $430 $496 #
straight-curve $-1 -42.551347392193364 -21.421636751819896 0 0 0 -1 I I #
edge $-1 $428 -21.421636751819896 $432 21.421636751819896 $426 $497 forward 7 unknown #
straight-curve $-1 0 -21.421636751819896 -6.2789382006036263 -1 0 0 I I #
vertex $-1 $312 $498 #
straight-curve $-1 0 21.421636751819896 -6.2789382006036263 1 0 0 I I #
point $-1 42.551347392193364 21.421636751819896 -6.2789382006036263 #
point $-1 42.551347392193364 -21.421636751819896 -6.2789382006036263 #
straight-curve $-1 -42.551347392193364 0 6.2789382006036263 0 -1 0 I I #
point $-1 -42.551347392193364 21.421636751819896 6.2789382006036263 #
point $-1 -42.551347392193364 -21.421636751819896 6.2789382006036263 #
straight-curve $-1 42.551347392193364 -21.421636751819896 0 0 0 -1 I I #
straight-curve $-1 42.551347392193364 21.421636751819896 0 0 0 -1 I I #
plane-surface $-1 0 21.421636751819896 0 0 -1 0 0 0 -1 forward_v I I I I #
coedge $-1 $333 $332 $499 $500 forward $134 $-1 #
edge $-1 $336 35.196130927596258 $501 42.551347392193364 $335 $502 forward 7 unknown #
coedge $-1 $341 $340 $333 $445 reversed $342 $-1 #
edge $-1 $503 -42.551347392193364 $446 -35.196130927596258 $444 $504 forward 7 unknown #
vertex $-1 $348 $505 #
straight-curve $-1 -35.196130927596258 0 -6.2789382006036263 0 -1 0 I I #
point $-1 -35.196130927596258 -21.421636751819896 -6.2789382006036263 #
coedge $-1 $499 $338 $341 $452 forward $330 $-1 #
coedge $-1 $338 $499 $345 $454 reversed $330 $-1 #
straight-curve $-1 -42.551347392193364 0 -3.2789382006036263 0 1 0 I I #
edge $-1 $343 3.2789382006036263 $503 6.2789382006036263 $341 $506 forward 7 unknown #
point $-1 -42.551347392193364 21.421636751819896 -3.2789382006036263 #
edge $-1 $346 3.2789382006036263 $501 6.2789382006036263 $450 $507 forward 7 unknown #
point $-1 -42.551347392193364 -21.421636751819896 -3.2789382006036263 #
straight-curve $-1 -35.196130927596258 21.421636751819896 -2.3894691003018131 0 0 -1 I I #
edge $-1 $458 23.272199001793645 $461 27.118215239200289 $352 $508 forward 7 unknown #
vertex $-1 $356 $509 #
straight-curve $-1 -14.99845626731909 -21.421636751819896 26.195590713484815 0 0 1 I I #
edge $-1 $461 4.9260540087517466 $363 15.218750508382939 $362 $510 forward 7 unknown #
vertex $-1 $460 $511 #
straight-curve $-1 -14.99845626731909 -21.421636751819918 1.1751021237735628 0 -0.60181501223851219 -0.79863551827123203 I I #
point $-1 -14.99845626731909 -21.421636751819896 1.175102123773591 #
point $-1 -25.291152766950283 -17.575620514413252 6.2789382006036263 #
straight-curve $-1 0 -21.421636751819896 6.2789382006036263 1 0 0 I I #
vertex $-1 $369 $512 #
point $-1 -22.732613467024045 -18.358610370417523 2.8679548075654062 #
vertex $-1 $373 $513 #
point $-1 -19.644804517134688 -18.358610370417523 2.8679548075654062 #
vertex $-1 $377 $514 #
point $-1 -16.55699556724533 -18.358610370417523 2.8679548075654062 #
edge $-1 $473 36.595866439594182 $476 40.232701142454999 $382 $515 forward 7 unknown #
vertex $-1 $396 $516 #
straight-curve $-1 -2.8697594506818529 34.008657474517875 6.2789382006036263 0 1 0 I I #
edge $-1 $476 -3.0810619219145021 $393 14.98270466710721 $392 $517 forward 7 unknown #
vertex $-1 $475 $518 #
straight-curve $-1 -2.8697594506818529 -2.5360172400270358 38.160787309430198 0 -0.55919289150049634 0.82903758062907751 I I #
point $-1 -2.8697594506818529 18.96856084679408 6.2789382006036263 #
point $-1 -20.933526039703565 21.421636751819896 2.6421034977428093 #
straight-curve $-1 0 21.421636751819896 6.2789382006036263 -1 0 0 I I #
vertex $-1 $399 $519 #
point $-1 -10.901642745192714 19.154291921828474 3.7584877677908368 #
coedge $-1 $414 $413 $406 $484 forward $403 $-1 #
edge $-1 $485 36.595866439594182 $488 40.232701142454999 $483 $520 forward 7 unknown #
vertex $-1 $418 $521 #
straight-curve $-1 28.288742504300679 34.008657474517875 6.2789382006036263 0 1 0 I I #
edge $-1 $488 -18.660312899405767 $415 -0.59654631038405448 $414 $522 forward 7 unknown #
vertex $-1 $487 $523 #
straight-curve $-1 28.288742504300679 -2.5360172400270358 38.160787309430198 0 -0.55919289150049634 0.82903758062907751 I I #
point $-1 28.288742504300679 18.96856084679408 6.2789382006036263 #
point $-1 10.224975915278966 21.421636751819896 2.6421034977428093 #
straight-curve $-1 0 21.421636751819896 6.2789382006036263 -1 0 0 I I #
vertex $-1 $421 $524 #
point $-1 20.256859209789823 19.154291921828474 3.7584877677908368 #
straight-curve $-1 -42.551347392193364 21.421636751819896 0 0 0 -1 I I #
point $-1 -42.551347392193364 -21.421636751819896 -6.2789382006036263 #
straight-curve $-1 -42.551347392193364 0 -6.2789382006036263 0 1 0 I I #
point $-1 -42.551347392193364 21.421636751819896 -6.2789382006036263 #
coedge $-1 $450 $449 $442 $500 reversed $330 $-1 #
edge $-1 $501 -21.421636751819896 $503 21.421636751819896 $499 $525 forward 7 unknown #
vertex $-1 $500 $526 #
straight-curve $-1 0 -21.421636751819896 -6.2789382006036263 -1 0 0 I I #
vertex $-1 $445 $527 #
straight-curve $-1 0 21.421636751819896 -6.2789382006036263 1 0 0 I I #
point $-1 -35.196130927596258 21.421636751819896 -6.2789382006036263 #
straight-curve $-1 -42.551347392193364 21.421636751819896 0 0 0 -1 I I #
straight-curve $-1 -42.551347392193364 -21.421636751819896 0 0 0 -1 I I #
straight-curve $-1 -14.99845626731909 -44.693835753613541 6.2789382006036263 0 1 0 I I #
point $-1 -14.99845626731909 -21.421636751819896 6.2789382006036263 #
straight-curve $-1 -10.072402258567344 -17.575620514413256 6.2789382006036263 -1 0 0 I I #
point $-1 -14.99845626731909 -17.575620514413252 6.2789382006036263 #
point $-1 -23.232613467024045 -17.95929261128191 2.5670473014461499 #
point $-1 -20.144804517134688 -17.95929261128191 2.5670473014461499 #
point $-1 -17.05699556724533 -17.95929261128191 2.5670473014461499 #
straight-curve $-1 -2.8697594506818529 21.421636751819896 42.874804640197809 0 0 -1 I I #
point $-1 -2.8697594506818529 21.421636751819896 6.2789382006036263 #
straight-curve $-1 -5.950821372596355 21.421636751819896 2.6421034977428057 -1 0 0 I I #
point $-1 -2.8697594506818529 21.421636751819896 2.6421034977428093 #
point $-1 -11.901642745192714 18.325254341199397 3.1992948762903408 #
straight-curve $-1 28.288742504300679 21.421636751819896 42.874804640197809 0 0 -1 I I #
point $-1 28.288742504300679 21.421636751819896 6.2789382006036263 #
straight-curve $-1 9.6284296048949116 21.421636751819896 2.6421034977428057 -1 0 0 I I #
point $-1 28.288742504300679 21.421636751819896 2.6421034977428093 #
point $-1 19.256859209789823 18.325254341199397 3.1992948762903408 #
straight-curve $-1 -42.551347392193364 0 -6.2789382006036263 0 1 0 I I #
point $-1 -42.551347392193364 -21.421636751819896 -6.2789382006036263 #
point $-1 -42.551347392193364 21.421636751819896 -6.2789382006036263 #
End-of-ACIS-data 