500 0 12 0           
7 Unknown 11 ACIS 5.0 NT 24 Fri Mar 26 19:50:52 1999 
-1 9.9999999999999995e-007 1e-010 
body $-1 $12 $-1 $13 #
body $-1 $14 $-1 $15 #
body $-1 $16 $-1 $17 #
body $-1 $18 $-1 $19 #
body $-1 $20 $-1 $21 #
body $-1 $22 $-1 $23 #
body $-1 $24 $-1 $25 #
body $-1 $26 $-1 $27 #
body $-1 $28 $-1 $29 #
body $-1 $30 $-1 $31 #
body $-1 $32 $-1 $33 #
body $-1 $34 $-1 $35 #
lump $-1 $-1 $36 $0 #
transform $-1 1 0 0 0 1 0 0 0 1 72.608417004913491 45.219884817629612 17.247231437019192 1 rotate no_reflect no_shear #
lump $-1 $-1 $37 $1 #
transform $-1 1 0 0 0 1 0 0 0 1 72.608417004913491 45.219884817629612 17.247231437019192 1 rotate no_reflect no_shear #
lump $-1 $-1 $38 $2 #
transform $-1 1 0 0 0 1 0 0 0 1 72.608417004913491 45.219884817629612 17.247231437019192 1 rotate no_reflect no_shear #
lump $-1 $-1 $39 $3 #
transform $-1 1 0 0 0 1 0 0 0 1 72.608417004913491 45.219884817629612 17.247231437019192 1 rotate no_reflect no_shear #
lump $-1 $-1 $40 $4 #
transform $-1 1 0 0 0 1 0 0 0 1 72.608417004913491 45.219884817629612 17.247231437019192 1 rotate no_reflect no_shear #
lump $-1 $-1 $41 $5 #
transform $-1 1 0 0 0 1 0 0 0 1 72.608417004913491 45.219884817629612 17.247231437019192 1 rotate no_reflect no_shear #
lump $-1 $-1 $42 $6 #
transform $-1 1 0 0 0 1 0 0 0 1 72.608417004913491 45.219884817629612 17.247231437019192 1 rotate no_reflect no_shear #
lump $-1 $-1 $43 $7 #
transform $-1 1 0 0 0 1 0 0 0 1 72.608417004913491 45.219884817629612 17.247231437019192 1 rotate no_reflect no_shear #
lump $-1 $-1 $44 $8 #
transform $-1 1 0 0 0 1 0 0 0 1 72.608417004913491 45.219884817629612 17.247231437019192 1 rotate no_reflect no_shear #
lump $-1 $-1 $45 $9 #
transform $-1 1 0 0 0 1 0 0 0 1 72.608417004913491 45.219884817629612 17.247231437019192 1 rotate no_reflect no_shear #
lump $-1 $-1 $46 $10 #
transform $-1 1 0 0 0 1 0 0 0 1 72.608417004913491 45.219884817629612 17.247231437019192 1 rotate no_reflect no_shear #
lump $-1 $-1 $47 $11 #
transform $-1 1 0 0 0 1 0 0 0 1 72.608417004913491 45.219884817629612 17.247231437019192 1 rotate no_reflect no_shear #
shell $-1 $-1 $-1 $48 $-1 $12 #
shell $-1 $-1 $-1 $49 $-1 $14 #
shell $-1 $-1 $-1 $50 $-1 $16 #
shell $-1 $-1 $-1 $51 $-1 $18 #
shell $-1 $-1 $-1 $52 $-1 $20 #
shell $-1 $-1 $-1 $53 $-1 $22 #
shell $-1 $-1 $-1 $54 $-1 $24 #
shell $-1 $-1 $-1 $55 $-1 $26 #
shell $-1 $-1 $-1 $56 $-1 $28 #
shell $-1 $-1 $-1 $57 $-1 $30 #
shell $-1 $-1 $-1 $58 $-1 $32 #
shell $-1 $-1 $-1 $59 $-1 $34 #
face $-1 $60 $61 $36 $-1 $62 forward single #
face $-1 $63 $64 $37 $-1 $65 forward single #
face $-1 $66 $67 $38 $-1 $68 reversed single #
face $-1 $69 $70 $39 $-1 $71 forward single #
face $-1 $72 $73 $40 $-1 $74 forward single #
face $-1 $75 $76 $41 $-1 $77 reversed single #
face $-1 $78 $79 $42 $-1 $80 forward single #
face $-1 $81 $82 $43 $-1 $83 forward single #
face $-1 $84 $85 $44 $-1 $86 reversed single #
face $-1 $87 $88 $45 $-1 $89 forward single #
face $-1 $90 $91 $46 $-1 $92 forward single #
face $-1 $93 $94 $47 $-1 $95 forward single #
face $-1 $96 $97 $36 $-1 $98 reversed single #
loop $-1 $-1 $99 $48 #
plane-surface $-1 0 0 17.247231437019192 0 0 1 1 0 0 forward_v I I I I #
face $-1 $100 $101 $37 $-1 $102 reversed single #
loop $-1 $-1 $103 $49 #
plane-surface $-1 0 -45.219884817629612 0 0 1 0 0 0 1 forward_v I I I I #
face $-1 $104 $105 $38 $-1 $106 reversed single #
loop $-1 $-1 $107 $50 #
plane-surface $-1 -149.5616158537577 -2.5901632053474408 133.17266254129282 0 1 0 -0.52991927123019833 0 0.84804809178421925 forward_v I I I I #
face $-1 $108 $109 $39 $-1 $110 forward single #
loop $-1 $111 $112 $51 #
cone-surface $-1 -66.32196560366323 1.0153169757068667 12.826507569164967 0.52991927123019833 0 -0.84804809178421925 0.84804809178421925 0 0.52991927123019833 1 I I 0 1 1 forward I I I I #
face $-1 $113 $114 $40 $-1 $115 forward single #
loop $-1 $116 $117 $52 #
cone-surface $-1 -66.32196560366323 6.4235372472883228 12.826507569164967 0.52991927123019833 0 -0.84804809178421925 0.84804809178421925 0 0.52991927123019833 1 I I 0 1 1 forward I I I I #
face $-1 $118 $119 $41 $-1 $120 reversed single #
loop $-1 $-1 $121 $53 #
plane-surface $-1 -149.5616158537577 32.600704183939555 133.17266254129282 0 1 0 -0.52991927123019833 0 0.84804809178421925 forward_v I I I I #
face $-1 $122 $123 $42 $-1 $124 forward single #
loop $-1 $125 $126 $54 #
cone-surface $-1 -66.32196560366323 36.206184364993867 12.826507569164967 0.52991927123019833 0 -0.84804809178421925 0.84804809178421925 0 0.52991927123019833 1 I I 0 1 1 forward I I I I #
face $-1 $127 $128 $43 $-1 $129 forward single #
loop $-1 $130 $131 $55 #
cone-surface $-1 -66.32196560366323 41.614404636575323 12.826507569164967 0.52991927123019833 0 -0.84804809178421925 0.84804809178421925 0 0.52991927123019833 1 I I 0 1 1 forward I I I I #
face $-1 $132 $133 $44 $-1 $134 reversed single #
loop $-1 $-1 $135 $56 #
plane-surface $-1 129.21540679349627 26.102094650794143 204.89761236405656 0 1 0 0.87461971476443456 0 0.48480960649040278 forward_v I I I I #
face $-1 $136 $137 $45 $-1 $138 forward single #
loop $-1 $139 $140 $57 #
cone-surface $-1 68.333666065322532 29.925652684161243 11.496551423025734 -0.87461971476443456 0 -0.48480960649040278 0.48480960649040278 0 -0.87461971476443456 1 I I 0 1 1 forward I I I I #
face $-1 $141 $142 $46 $-1 $143 forward single #
loop $-1 $144 $145 $58 #
cone-surface $-1 68.333666065322532 35.660989734211888 11.496551423025734 -0.87461971476443456 0 -0.48480960649040278 0.48480960649040278 0 -0.87461971476443456 1 I I 0 1 1 forward I I I I #
face $-1 $146 $147 $47 $-1 $148 forward single #
loop $-1 $149 $150 $59 #
cone-surface $-1 68.333666065322532 41.396326784262534 11.496551423025734 -0.87461971476443456 0 -0.48480960649040278 0.48480960649040278 0 -0.87461971476443456 1 I I 0 1 1 forward I I I I #
face $-1 $151 $152 $36 $-1 $153 reversed single #
loop $-1 $-1 $154 $60 #
plane-surface $-1 0 0 -17.247231437019192 0 0 1 1 0 0 forward_v I I I I #
coedge $-1 $155 $156 $157 $158 forward $61 $-1 #
face $-1 $159 $160 $37 $-1 $161 reversed single #
loop $-1 $-1 $162 $63 #
plane-surface $-1 0 0 -17.247231437019192 0 0 1 1 0 0 forward_v I I I I #
coedge $-1 $163 $164 $165 $166 forward $64 $-1 #
face $-1 $167 $168 $38 $-1 $169 reversed single #
loop $-1 $-1 $170 $66 #
plane-surface $-1 -72.608417004913505 3.7194271114975876 10.021803564313345 -0.52991927123019833 0 0.84804809178421925 0.84804809178421925 0 0.52991927123019833 forward_v I I I I #
coedge $-1 $171 $172 $173 $174 reversed $67 $-1 #
face $-1 $-1 $175 $39 $-1 $176 forward single #
loop $-1 $177 $178 $69 #
cone-surface $-1 -65.552105316544882 1.0153169757068667 11.59447359177155 0.52991927123019833 0 -0.84804809178421925 0.42402404589210962 0 0.26495963561509916 1 I I -0.70710678118654746 0.70710678118654746 0.5 forward I I I I #
loop $-1 $-1 $179 $51 #
coedge $-1 $112 $112 $180 $181 reversed $70 $-1 #
face $-1 $-1 $182 $40 $-1 $183 forward single #
loop $-1 $184 $185 $72 #
cone-surface $-1 -65.552105316544882 6.4235372472883228 11.59447359177155 0.52991927123019833 0 -0.84804809178421925 0.42402404589210962 0 0.26495963561509916 1 I I -0.70710678118654746 0.70710678118654746 0.5 forward I I I I #
loop $-1 $-1 $186 $52 #
coedge $-1 $117 $117 $187 $188 reversed $73 $-1 #
face $-1 $189 $190 $41 $-1 $191 forward single #
loop $-1 $-1 $192 $75 #
plane-surface $-1 -72.608417004913505 38.91029450078458 10.021803564313345 -0.52991927123019833 0 0.84804809178421925 0.84804809178421925 0 0.52991927123019833 forward_v I I I I #
coedge $-1 $193 $194 $195 $196 reversed $76 $-1 #
face $-1 $-1 $197 $42 $-1 $198 forward single #
loop $-1 $199 $200 $78 #
cone-surface $-1 -65.552105316544882 36.206184364993867 11.59447359177155 0.52991927123019833 0 -0.84804809178421925 0.42402404589210962 0 0.26495963561509916 1 I I -0.70710678118654746 0.70710678118654746 0.5 forward I I I I #
loop $-1 $-1 $201 $54 #
coedge $-1 $126 $126 $202 $203 reversed $79 $-1 #
face $-1 $-1 $204 $43 $-1 $205 forward single #
loop $-1 $206 $207 $81 #
cone-surface $-1 -65.552105316544882 41.614404636575323 11.59447359177155 0.52991927123019833 0 -0.84804809178421925 0.42402404589210962 0 0.26495963561509916 1 I I -0.70710678118654746 0.70710678118654746 0.5 forward I I I I #
loop $-1 $-1 $208 $55 #
coedge $-1 $131 $131 $209 $210 reversed $82 $-1 #
face $-1 $211 $212 $44 $-1 $213 reversed single #
loop $-1 $-1 $214 $84 #
plane-surface $-1 2.2059008528271562 35.660989734211874 134.49509621197018 0.87461971476443456 0 0.48480960649040278 0.48480960649040278 0 -0.87461971476443456 forward_v I I I I #
coedge $-1 $215 $216 $217 $218 reversed $85 $-1 #
face $-1 $-1 $219 $45 $-1 $220 forward single #
loop $-1 $221 $222 $87 #
cone-surface $-1 66.327088195593348 29.925652684161243 10.384287188646145 -0.87461971476443456 0 -0.48480960649040278 0.24240480324520139 0 -0.43730985738221728 1 I I -0.70710678118654746 0.70710678118654746 0.5 forward I I I I #
loop $-1 $-1 $223 $57 #
coedge $-1 $140 $140 $224 $225 reversed $88 $-1 #
face $-1 $-1 $226 $46 $-1 $227 forward single #
loop $-1 $228 $229 $90 #
cone-surface $-1 66.327088195593348 35.660989734211888 10.384287188646145 -0.87461971476443456 0 -0.48480960649040278 0.24240480324520139 0 -0.43730985738221728 1 I I -0.70710678118654746 0.70710678118654746 0.5 forward I I I I #
loop $-1 $-1 $230 $58 #
coedge $-1 $145 $145 $231 $232 reversed $91 $-1 #
face $-1 $-1 $233 $47 $-1 $234 forward single #
loop $-1 $235 $236 $93 #
cone-surface $-1 66.327088195593348 41.396326784262534 10.384287188646145 -0.87461971476443456 0 -0.48480960649040278 0.24240480324520139 0 -0.43730985738221728 1 I I -0.70710678118654746 0.70710678118654746 0.5 forward I I I I #
loop $-1 $-1 $237 $59 #
coedge $-1 $150 $150 $238 $239 reversed $94 $-1 #
face $-1 $240 $241 $36 $-1 $242 reversed single #
loop $-1 $-1 $243 $96 #
plane-surface $-1 0 -45.219884817629612 0 0 1 0 0 0 1 forward_v I I I I #
coedge $-1 $244 $245 $246 $247 forward $97 $-1 #
coedge $-1 $248 $99 $249 $250 forward $61 $-1 #
coedge $-1 $99 $248 $251 $252 forward $61 $-1 #
coedge $-1 $253 $254 $99 $158 reversed $255 $-1 #
edge $-1 $256 -45.219884817629612 $257 45.219884817629612 $157 $258 forward 7 unknown #
face $-1 $259 $260 $37 $-1 $261 reversed single #
loop $-1 $-1 $262 $100 #
plane-surface $-1 -65.55059041016105 -65.277919674314859 0 0 1 0 0 0 1 forward_v I I I I #
coedge $-1 $263 $264 $164 $265 forward $101 $-1 #
coedge $-1 $266 $103 $267 $268 reversed $64 $-1 #
coedge $-1 $103 $266 $162 $265 reversed $64 $-1 #
coedge $-1 $269 $270 $103 $166 reversed $260 $-1 #
edge $-1 $271 -17.247231437019192 $272 17.247231437019192 $165 $273 forward 7 unknown #
face $-1 $274 $275 $38 $-1 $276 reversed single #
loop $-1 $-1 $277 $104 #
plane-surface $-1 -149.5616158537577 10.029017428342616 133.17266254129282 0 -1 0 0.52991927123019833 0 -0.84804809178421925 forward_v I I I I #
coedge $-1 $278 $279 $280 $281 reversed $105 $-1 #
coedge $-1 $172 $107 $282 $283 reversed $67 $-1 #
coedge $-1 $107 $171 $278 $284 reversed $67 $-1 #
coedge $-1 $280 $285 $107 $174 forward $286 $-1 #
edge $-1 $287 2.1723909219653592 $288 13.735492421459398 $173 $289 forward 7 unknown #
loop $-1 $-1 $180 $108 #
plane-surface $-1 -72.608417004913505 3.7194271114975876 10.021803564313345 -0.52991927123019833 0 0.84804809178421925 0.84804809178421925 0 0.52991927123019833 forward_v I I I I #
loop $-1 $-1 $290 $69 #
coedge $-1 $178 $178 $179 $291 reversed $109 $-1 #
coedge $-1 $179 $179 $178 $291 forward $111 $-1 #
coedge $-1 $180 $180 $112 $181 forward $175 $-1 #
edge $-1 $292 0 $292 6.2831853071796004 $180 $293 forward 7 unknown #
loop $-1 $-1 $187 $113 #
plane-surface $-1 -72.608417004913505 3.7194271114975876 10.021803564313345 -0.52991927123019833 0 0.84804809178421925 0.84804809178421925 0 0.52991927123019833 forward_v I I I I #
loop $-1 $-1 $294 $72 #
coedge $-1 $185 $185 $186 $295 reversed $114 $-1 #
coedge $-1 $186 $186 $185 $295 forward $116 $-1 #
coedge $-1 $187 $187 $117 $188 forward $182 $-1 #
edge $-1 $296 0 $296 6.2831853071796004 $187 $297 forward 7 unknown #
face $-1 $298 $299 $41 $-1 $300 reversed single #
loop $-1 $-1 $195 $118 #
plane-surface $-1 0 0 17.247231437019192 0 0 1 1 0 0 forward_v I I I I #
coedge $-1 $301 $302 $303 $304 reversed $119 $-1 #
coedge $-1 $194 $121 $305 $306 reversed $76 $-1 #
coedge $-1 $121 $193 $301 $307 reversed $76 $-1 #
coedge $-1 $303 $308 $121 $196 forward $190 $-1 #
edge $-1 $309 2.1723909219653592 $310 13.735492421459398 $195 $311 forward 7 unknown #
loop $-1 $-1 $202 $122 #
plane-surface $-1 -72.608417004913505 38.91029450078458 10.021803564313345 -0.52991927123019833 0 0.84804809178421925 0.84804809178421925 0 0.52991927123019833 forward_v I I I I #
loop $-1 $-1 $312 $78 #
coedge $-1 $200 $200 $201 $313 reversed $123 $-1 #
coedge $-1 $201 $201 $200 $313 forward $125 $-1 #
coedge $-1 $202 $202 $126 $203 forward $197 $-1 #
edge $-1 $314 0 $314 6.2831853071796004 $202 $315 forward 7 unknown #
loop $-1 $-1 $209 $127 #
plane-surface $-1 -72.608417004913505 38.91029450078458 10.021803564313345 -0.52991927123019833 0 0.84804809178421925 0.84804809178421925 0 0.52991927123019833 forward_v I I I I #
loop $-1 $-1 $316 $81 #
coedge $-1 $207 $207 $208 $317 reversed $128 $-1 #
coedge $-1 $208 $208 $207 $317 forward $130 $-1 #
coedge $-1 $209 $209 $131 $210 forward $204 $-1 #
edge $-1 $318 0 $318 6.2831853071796004 $209 $319 forward 7 unknown #
face $-1 $320 $321 $44 $-1 $322 forward single #
loop $-1 $-1 $323 $132 #
plane-surface $-1 0 45.219884817629612 0 0 -1 0 0 0 -1 forward_v I I I I #
coedge $-1 $324 $325 $326 $327 reversed $133 $-1 #
coedge $-1 $216 $135 $328 $329 reversed $85 $-1 #
coedge $-1 $135 $215 $324 $330 reversed $85 $-1 #
coedge $-1 $326 $331 $135 $218 forward $332 $-1 #
edge $-1 $333 85.201574745009083 $334 94.963215910727172 $217 $335 forward 7 unknown #
loop $-1 $-1 $224 $136 #
plane-surface $-1 2.2059008528271562 35.660989734211874 134.49509621197018 0.87461971476443456 0 0.48480960649040278 0.48480960649040278 0 -0.87461971476443456 forward_v I I I I #
loop $-1 $-1 $336 $87 #
coedge $-1 $222 $222 $223 $337 reversed $137 $-1 #
coedge $-1 $223 $223 $222 $337 forward $139 $-1 #
coedge $-1 $224 $224 $140 $225 forward $219 $-1 #
edge $-1 $338 0 $338 6.2831853071796004 $224 $339 forward 7 unknown #
loop $-1 $-1 $231 $141 #
plane-surface $-1 2.2059008528271562 35.660989734211874 134.49509621197018 0.87461971476443456 0 0.48480960649040278 0.48480960649040278 0 -0.87461971476443456 forward_v I I I I #
loop $-1 $-1 $340 $90 #
coedge $-1 $229 $229 $230 $341 reversed $142 $-1 #
coedge $-1 $230 $230 $229 $341 forward $144 $-1 #
coedge $-1 $231 $231 $145 $232 forward $226 $-1 #
edge $-1 $342 0 $342 6.2831853071796004 $231 $343 forward 7 unknown #
loop $-1 $-1 $238 $146 #
plane-surface $-1 2.2059008528271562 35.660989734211874 134.49509621197018 0.87461971476443456 0 0.48480960649040278 0.48480960649040278 0 -0.87461971476443456 forward_v I I I I #
loop $-1 $-1 $344 $93 #
coedge $-1 $236 $236 $237 $345 reversed $147 $-1 #
coedge $-1 $237 $237 $236 $345 forward $149 $-1 #
coedge $-1 $238 $238 $150 $239 forward $233 $-1 #
edge $-1 $346 0 $346 6.2831853071796004 $238 $347 forward 7 unknown #
face $-1 $348 $349 $36 $-1 $350 reversed single #
loop $-1 $-1 $351 $151 #
plane-surface $-1 -72.608417004913491 0 0 1 0 0 0 0 -1 forward_v I I I I #
coedge $-1 $352 $251 $353 $354 forward $152 $-1 #
coedge $-1 $355 $154 $352 $356 forward $97 $-1 #
coedge $-1 $154 $355 $357 $358 forward $97 $-1 #
coedge $-1 $254 $253 $154 $247 reversed $255 $-1 #
edge $-1 $359 -45.219884817629612 $360 45.219884817629612 $246 $361 forward 7 unknown #
coedge $-1 $156 $155 $362 $363 forward $61 $-1 #
coedge $-1 $364 $365 $155 $250 reversed $349 $-1 #
edge $-1 $257 -72.608417004913491 $366 72.608417004913491 $249 $367 forward 7 unknown #
coedge $-1 $243 $368 $156 $252 reversed $152 $-1 #
edge $-1 $369 -72.608417004913491 $256 72.608417004913491 $251 $370 forward 7 unknown #
coedge $-1 $246 $157 $368 $371 forward $255 $-1 #
coedge $-1 $157 $246 $364 $372 reversed $255 $-1 #
loop $-1 $-1 $253 $348 #
vertex $-1 $158 $373 #
vertex $-1 $158 $374 #
straight-curve $-1 72.608417004913491 0 17.247231437019192 0 1 0 I I #
face $-1 $375 $376 $37 $-1 $377 reversed single #
loop $-1 $-1 $165 $159 #
plane-surface $-1 -69.547187705554066 -55.248902245972232 0 1 0 0 0 0 -1 forward_v I I I I #
coedge $-1 $378 $379 $380 $381 forward $160 $-1 #
coedge $-1 $382 $162 $383 $384 forward $101 $-1 #
coedge $-1 $162 $382 $269 $385 forward $101 $-1 #
edge $-1 $271 -69.547187705554066 $386 -61.553993114768033 $162 $387 forward 7 unknown #
coedge $-1 $164 $163 $388 $389 forward $64 $-1 #
coedge $-1 $390 $391 $163 $268 forward $392 $-1 #
edge $-1 $393 61.553993114768033 $272 69.547187705554066 $267 $394 forward 7 unknown #
coedge $-1 $380 $165 $264 $385 reversed $260 $-1 #
coedge $-1 $165 $380 $390 $395 reversed $260 $-1 #
vertex $-1 $265 $396 #
vertex $-1 $395 $397 #
straight-curve $-1 -69.547187705554066 -45.219884817629612 0 0 0 1 I I #
face $-1 $-1 $286 $38 $-1 $398 forward single #
loop $-1 $-1 $399 $167 #
plane-surface $-1 -72.608417004913491 0 0 1 0 0 0 0 -1 forward_v I I I I #
coedge $-1 $400 $401 $402 $403 reversed $168 $-1 #
coedge $-1 $404 $170 $172 $284 forward $105 $-1 #
coedge $-1 $170 $404 $400 $405 forward $105 $-1 #
coedge $-1 $402 $173 $170 $281 forward $286 $-1 #
edge $-1 $288 -4.4498767610962346 $406 8.1693038725938223 $280 $407 forward 7 unknown #
coedge $-1 $408 $409 $171 $283 forward $275 $-1 #
edge $-1 $410 -56.56452770633306 $287 -49.339099833627216 $282 $411 forward 7 unknown #
edge $-1 $288 -13.63495963438382 $410 -1.675811683274863e-014 $172 $412 forward 7 unknown #
coedge $-1 $173 $402 $408 $413 forward $286 $-1 #
loop $-1 $-1 $402 $274 #
vertex $-1 $283 $414 #
vertex $-1 $174 $415 #
straight-curve $-1 -74.78080792687885 -2.5901632053474408 17.247231437019195 1 0 0 I I #
coedge $-1 $290 $290 $-1 $416 reversed $177 $-1 #
edge $-1 $417 0 $417 6.2831853071796004 $178 $418 forward 7 unknown #
vertex $-1 $181 $419 #
ellipse-curve $-1 -66.826866255166479 1.0153169757068667 13.634517500666272 -0.52991927123019833 0 0.84804809178421925 0.84804809178421925 0 0.52991927123019833 1 I I #
coedge $-1 $294 $294 $-1 $420 reversed $184 $-1 #
edge $-1 $421 0 $421 6.2831853071796004 $185 $422 forward 7 unknown #
vertex $-1 $188 $423 #
ellipse-curve $-1 -66.826866255166479 6.4235372472883228 13.634517500666272 -0.52991927123019833 0 0.84804809178421925 0.84804809178421925 0 0.52991927123019833 1 I I #
face $-1 $-1 $424 $41 $-1 $425 reversed single #
loop $-1 $-1 $305 $189 #
plane-surface $-1 -72.608417004913491 0 0 1 0 0 0 0 -1 forward_v I I I I #
coedge $-1 $426 $192 $194 $307 forward $119 $-1 #
coedge $-1 $192 $426 $427 $428 reversed $119 $-1 #
coedge $-1 $429 $195 $192 $304 forward $190 $-1 #
edge $-1 $310 13.145556933547265 $430 25.764737567237315 $303 $431 forward 7 unknown #
coedge $-1 $432 $433 $193 $306 forward $299 $-1 #
edge $-1 $434 -56.56452770633306 $309 -49.339099833627216 $305 $435 forward 7 unknown #
edge $-1 $310 -13.63495963438382 $434 -1.675811683274863e-014 $194 $436 forward 7 unknown #
coedge $-1 $195 $429 $432 $437 forward $190 $-1 #
vertex $-1 $196 $438 #
vertex $-1 $196 $439 #
straight-curve $-1 -74.78080792687885 32.600704183939555 17.247231437019195 1 0 0 I I #
coedge $-1 $312 $312 $-1 $440 reversed $199 $-1 #
edge $-1 $441 0 $441 6.2831853071796004 $200 $442 forward 7 unknown #
vertex $-1 $203 $443 #
ellipse-curve $-1 -66.826866255166479 36.206184364993867 13.634517500666272 -0.52991927123019833 0 0.84804809178421925 0.84804809178421925 0 0.52991927123019833 1 I I #
coedge $-1 $316 $316 $-1 $444 reversed $206 $-1 #
edge $-1 $445 0 $445 6.2831853071796004 $207 $446 forward 7 unknown #
vertex $-1 $210 $447 #
ellipse-curve $-1 -66.826866255166479 41.614404636575323 13.634517500666272 -0.52991927123019833 0 0.84804809178421925 0.84804809178421925 0 0.52991927123019833 1 I I #
face $-1 $-1 $332 $44 $-1 $448 reversed single #
loop $-1 $-1 $449 $211 #
plane-surface $-1 0 0 17.247231437019192 0 0 1 1 0 0 forward_v I I I I #
coedge $-1 $450 $451 $325 $452 forward $212 $-1 #
coedge $-1 $453 $214 $216 $330 forward $133 $-1 #
coedge $-1 $214 $453 $323 $452 reversed $133 $-1 #
coedge $-1 $454 $217 $214 $327 forward $332 $-1 #
edge $-1 $334 8.271599783688206 $455 27.389389950523675 $326 $456 forward 7 unknown #
coedge $-1 $457 $449 $215 $329 forward $321 $-1 #
edge $-1 $458 2.5897477536774574 $333 8.0007136081653556 $328 $459 forward 7 unknown #
edge $-1 $334 -145.21683400982695 $458 -134.05582197118656 $216 $460 forward 7 unknown #
coedge $-1 $217 $454 $457 $461 reversed $332 $-1 #
loop $-1 $-1 $326 $320 #
vertex $-1 $461 $462 #
vertex $-1 $218 $463 #
straight-curve $-1 72.608417004913491 26.102094650794143 102.44880618202828 0 0 -1 I I #
coedge $-1 $336 $336 $-1 $464 reversed $221 $-1 #
edge $-1 $465 0 $465 6.2831853071796004 $222 $466 forward 7 unknown #
vertex $-1 $225 $467 #
ellipse-curve $-1 69.902934077669542 29.925652684161243 12.366410854160142 0.87461971476443456 0 0.48480960649040278 0.48480960649040278 0 -0.87461971476443456 1 I I #
coedge $-1 $340 $340 $-1 $468 reversed $228 $-1 #
edge $-1 $469 0 $469 6.2831853071796004 $229 $470 forward 7 unknown #
vertex $-1 $232 $471 #
ellipse-curve $-1 69.902934077669542 35.660989734211888 12.366410854160142 0.87461971476443456 0 0.48480960649040278 0.48480960649040278 0 -0.87461971476443456 1 I I #
coedge $-1 $344 $344 $-1 $472 reversed $235 $-1 #
edge $-1 $473 0 $473 6.2831853071796004 $236 $474 forward 7 unknown #
vertex $-1 $239 $475 #
ellipse-curve $-1 69.902934077669542 41.396326784262534 12.366410854160142 0.87461971476443456 0 0.48480960649040278 0.48480960649040278 0 -0.87461971476443456 1 I I #
face $-1 $-1 $255 $36 $-1 $476 reversed single #
loop $-1 $-1 $364 $240 #
plane-surface $-1 0 45.219884817629612 0 0 -1 0 0 0 -1 forward_v I I I I #
coedge $-1 $477 $362 $365 $478 forward $241 $-1 #
coedge $-1 $368 $243 $244 $356 reversed $152 $-1 #
coedge $-1 $362 $477 $243 $354 reversed $241 $-1 #
edge $-1 $369 -17.247231437019192 $479 17.247231437019192 $353 $480 forward 7 unknown #
coedge $-1 $245 $244 $477 $481 forward $97 $-1 #
edge $-1 $360 -72.608417004913491 $479 72.608417004913491 $352 $482 forward 7 unknown #
coedge $-1 $365 $364 $245 $358 reversed $349 $-1 #
edge $-1 $483 -72.608417004913491 $359 72.608417004913491 $357 $484 forward 7 unknown #
vertex $-1 $247 $485 #
vertex $-1 $371 $486 #
straight-curve $-1 72.608417004913491 0 -17.247231437019192 0 -1 0 I I #
coedge $-1 $351 $353 $248 $363 reversed $241 $-1 #
edge $-1 $366 -45.219884817629612 $369 45.219884817629612 $362 $487 forward 7 unknown #
coedge $-1 $357 $249 $254 $372 forward $349 $-1 #
coedge $-1 $249 $357 $351 $478 reversed $349 $-1 #
vertex $-1 $250 $488 #
straight-curve $-1 0 45.219884817629612 17.247231437019192 -1 0 0 I I #
coedge $-1 $251 $352 $253 $371 reversed $152 $-1 #
vertex $-1 $363 $489 #
straight-curve $-1 0 -45.219884817629612 17.247231437019192 1 0 0 I I #
edge $-1 $256 -17.247231437019192 $360 17.247231437019192 $253 $490 forward 7 unknown #
edge $-1 $257 -17.247231437019192 $359 17.247231437019192 $254 $491 forward 7 unknown #
point $-1 72.608417004913491 -45.219884817629612 17.247231437019192 #
point $-1 72.608417004913491 45.219884817629612 17.247231437019192 #
face $-1 $-1 $392 $37 $-1 $492 forward single #
loop $-1 $-1 $493 $259 #
plane-surface $-1 -61.553993114768033 -55.248902245972232 0 -1 0 0 0 0 1 forward_v I I I I #
coedge $-1 $494 $262 $382 $495 reversed $160 $-1 #
coedge $-1 $262 $494 $496 $497 reversed $160 $-1 #
coedge $-1 $270 $269 $262 $381 reversed $260 $-1 #
edge $-1 $498 -17.247231437019192 $499 17.247231437019192 $380 $500 forward 7 unknown #
coedge $-1 $264 $263 $378 $495 forward $101 $-1 #
coedge $-1 $388 $493 $263 $384 reversed $376 $-1 #
edge $-1 $386 -10.02901742834262 $501 10.029017428342627 $383 $502 forward 7 unknown #
edge $-1 $499 -10.029017428342627 $271 10.02901742834262 $269 $503 forward 7 unknown #
vertex $-1 $384 $504 #
straight-curve $-1 0 -45.219884817629612 -17.247231437019192 1 0 0 I I #
coedge $-1 $505 $383 $266 $389 reversed $376 $-1 #
edge $-1 $393 -17.247231437019192 $386 17.247231437019192 $388 $506 forward 7 unknown #
coedge $-1 $496 $267 $270 $395 forward $392 $-1 #
coedge $-1 $267 $496 $505 $507 forward $392 $-1 #
loop $-1 $-1 $267 $375 #
vertex $-1 $268 $508 #
straight-curve $-1 0 -45.219884817629612 17.247231437019192 -1 0 0 I I #
edge $-1 $272 -10.02901742834262 $498 10.029017428342627 $270 $509 forward 7 unknown #
point $-1 -69.547187705554066 -45.219884817629612 -17.247231437019192 #
point $-1 -69.547187705554066 -45.219884817629612 17.247231437019192 #
plane-surface $-1 0 0 17.247231437019192 0 0 1 1 0 0 forward_v I I I I #
coedge $-1 $409 $408 $401 $510 forward $275 $-1 #
coedge $-1 $401 $277 $279 $405 reversed $168 $-1 #
coedge $-1 $277 $400 $399 $510 reversed $168 $-1 #
coedge $-1 $285 $280 $277 $403 forward $286 $-1 #
edge $-1 $406 -13.735492421459398 $511 -2.1723909219653592 $402 $512 forward 7 unknown #
coedge $-1 $279 $278 $409 $513 reversed $105 $-1 #
edge $-1 $514 1.675811683274863e-014 $406 13.63495963438382 $400 $515 forward 7 unknown #
vertex $-1 $281 $516 #
straight-curve $-1 -61.045315505419453 1.8597135557487938 17.247231437019188 0 1 0 I I #
coedge $-1 $399 $282 $285 $413 reversed $275 $-1 #
coedge $-1 $282 $399 $404 $513 forward $275 $-1 #
vertex $-1 $283 $517 #
straight-curve $-1 -72.608417004913491 -2.5901632053474408 66.586331270646411 0 0 1 I I #
straight-curve $-1 -72.608417004913505 -2.5901632053474408 10.021803564313345 -0.84804809178421925 0 -0.52991927123019833 I I #
edge $-1 $511 -10.029017428342616 $287 2.5901632053474408 $408 $518 forward 7 unknown #
point $-1 -72.608417004913491 -2.5901632053474408 17.247231437019192 #
point $-1 -61.045315505419453 -2.5901632053474408 17.247231437019192 #
edge $-1 $519 1 $519 0 $290 $-1 forward 7 unknown #
vertex $-1 $291 $520 #
ellipse-curve $-1 -65.817064952159981 1.0153169757068667 12.018497637663659 -0.52991927123019833 0 0.84804809178421925 0.84804809178421925 0 0.52991927123019833 1 I I #
point $-1 -65.978818163382243 1.0153169757068667 14.164436771896472 #
edge $-1 $521 1 $521 0 $294 $-1 forward 7 unknown #
vertex $-1 $295 $522 #
ellipse-curve $-1 -65.817064952159981 6.4235372472883228 12.018497637663659 -0.52991927123019833 0 0.84804809178421925 0.84804809178421925 0 0.52991927123019833 1 I I #
point $-1 -65.978818163382243 6.4235372472883228 14.164436771896472 #
loop $-1 $-1 $427 $298 #
plane-surface $-1 0 45.219884817629612 0 0 -1 0 0 0 -1 forward_v I I I I #
coedge $-1 $302 $301 $433 $523 reversed $119 $-1 #
coedge $-1 $524 $525 $302 $428 forward $424 $-1 #
edge $-1 $430 14.497381689254489 $526 28.132341323638293 $427 $527 forward 7 unknown #
coedge $-1 $308 $303 $525 $528 forward $190 $-1 #
vertex $-1 $528 $529 #
straight-curve $-1 -61.045315505419453 19.45514725039229 17.247231437019188 0 1 0 I I #
coedge $-1 $530 $305 $308 $437 reversed $299 $-1 #
coedge $-1 $305 $530 $426 $523 forward $299 $-1 #
vertex $-1 $306 $531 #
straight-curve $-1 -72.608417004913491 32.600704183939555 66.586331270646411 0 0 1 I I #
straight-curve $-1 -72.608417004913505 32.600704183939555 10.021803564313345 -0.84804809178421925 0 -0.52991927123019833 I I #
edge $-1 $532 -45.219884817629612 $309 -32.600704183939555 $432 $533 forward 7 unknown #
point $-1 -72.608417004913491 32.600704183939555 17.247231437019192 #
point $-1 -61.045315505419453 32.600704183939555 17.247231437019192 #
edge $-1 $534 1 $534 0 $312 $-1 forward 7 unknown #
vertex $-1 $313 $535 #
ellipse-curve $-1 -65.817064952159981 36.206184364993867 12.018497637663659 -0.52991927123019833 0 0.84804809178421925 0.84804809178421925 0 0.52991927123019833 1 I I #
point $-1 -65.978818163382243 36.206184364993867 14.164436771896472 #
edge $-1 $536 1 $536 0 $316 $-1 forward 7 unknown #
vertex $-1 $317 $537 #
ellipse-curve $-1 -65.817064952159981 41.614404636575323 12.018497637663659 -0.52991927123019833 0 0.84804809178421925 0.84804809178421925 0 0.52991927123019833 1 I I #
point $-1 -65.978818163382243 41.614404636575323 14.164436771896472 #
plane-surface $-1 72.608417004913491 0 0 -1 0 0 0 0 1 forward_v I I I I #
coedge $-1 $328 $538 $453 $539 forward $321 $-1 #
coedge $-1 $451 $323 $538 $540 reversed $212 $-1 #
coedge $-1 $323 $450 $454 $541 forward $212 $-1 #
edge $-1 $455 -86.935523628970671 $542 -75.774511590330263 $323 $543 forward 7 unknown #
coedge $-1 $325 $324 $449 $539 reversed $133 $-1 #
coedge $-1 $331 $326 $451 $541 reversed $332 $-1 #
vertex $-1 $327 $544 #
straight-curve $-1 72.608417004913491 17.830494867105937 7.4855902713011133 0 1 0 I I #
coedge $-1 $538 $328 $331 $461 forward $321 $-1 #
vertex $-1 $329 $545 #
straight-curve $-1 64.607703396748136 26.102094650794143 17.247231437019195 1 0 0 I I #
straight-curve $-1 2.2059008528271562 26.102094650794143 134.49509621197018 -0.48480960649040278 0 0.87461971476443456 I I #
edge $-1 $333 26.102094650794143 $546 45.219884817629612 $331 $547 forward 7 unknown #
point $-1 72.608417004913491 26.102094650794143 17.247231437019192 #
point $-1 72.608417004913491 26.102094650794143 7.4855902713011062 #
edge $-1 $548 1 $548 0 $336 $-1 forward 7 unknown #
vertex $-1 $337 $549 #
ellipse-curve $-1 66.764398052975565 29.925652684161243 10.626691991891345 0.87461971476443456 0 0.48480960649040278 0.48480960649040278 0 -0.87461971476443456 1 I I #
point $-1 70.387743684159915 29.925652684161243 11.491791139395689 #
edge $-1 $550 1 $550 0 $340 $-1 forward 7 unknown #
vertex $-1 $341 $551 #
ellipse-curve $-1 66.764398052975565 35.660989734211888 10.626691991891345 0.87461971476443456 0 0.48480960649040278 0.48480960649040278 0 -0.87461971476443456 1 I I #
point $-1 70.387743684159915 35.660989734211888 11.491791139395689 #
edge $-1 $552 1 $552 0 $344 $-1 forward 7 unknown #
vertex $-1 $345 $553 #
ellipse-curve $-1 66.764398052975565 41.396326784262534 10.626691991891345 0.87461971476443456 0 0.48480960649040278 0.48480960649040278 0 -0.87461971476443456 1 I I #
point $-1 70.387743684159915 41.396326784262534 11.491791139395689 #
plane-surface $-1 72.608417004913491 0 0 -1 0 0 0 0 1 forward_v I I I I #
coedge $-1 $353 $351 $355 $481 reversed $241 $-1 #
edge $-1 $366 -17.247231437019192 $483 17.247231437019192 $365 $554 forward 7 unknown #
vertex $-1 $481 $555 #
straight-curve $-1 -72.608417004913491 -45.219884817629612 0 0 0 -1 I I #
edge $-1 $479 -45.219884817629612 $483 45.219884817629612 $477 $556 forward 7 unknown #
straight-curve $-1 0 -45.219884817629612 -17.247231437019192 -1 0 0 I I #
vertex $-1 $358 $557 #
straight-curve $-1 0 45.219884817629612 -17.247231437019192 1 0 0 I I #
point $-1 72.608417004913491 45.219884817629612 -17.247231437019192 #
point $-1 72.608417004913491 -45.219884817629612 -17.247231437019192 #
straight-curve $-1 -72.608417004913491 0 17.247231437019192 0 -1 0 I I #
point $-1 -72.608417004913491 45.219884817629612 17.247231437019192 #
point $-1 -72.608417004913491 -45.219884817629612 17.247231437019192 #
straight-curve $-1 72.608417004913491 -45.219884817629612 0 0 0 -1 I I #
straight-curve $-1 72.608417004913491 45.219884817629612 0 0 0 -1 I I #
plane-surface $-1 0 0 17.247231437019192 0 0 1 1 0 0 forward_v I I I I #
coedge $-1 $383 $505 $494 $558 forward $376 $-1 #
coedge $-1 $379 $378 $493 $558 reversed $160 $-1 #
edge $-1 $501 -3.9965972953930162 $499 3.9965972953930162 $378 $559 forward 7 unknown #
coedge $-1 $391 $390 $379 $497 forward $392 $-1 #
edge $-1 $498 -3.9965972953930162 $560 3.9965972953930162 $379 $561 forward 7 unknown #
vertex $-1 $395 $562 #
vertex $-1 $385 $563 #
straight-curve $-1 -69.547187705554066 -65.277919674314859 0 0 0 -1 I I #
vertex $-1 $558 $564 #
straight-curve $-1 -61.553993114768033 -55.248902245972232 -17.247231437019192 0 -1 0 I I #
straight-curve $-1 -69.547187705554066 -55.248902245972232 -17.247231437019192 0 1 0 I I #
point $-1 -61.553993114768033 -45.219884817629612 -17.247231437019192 #
coedge $-1 $493 $388 $391 $507 reversed $376 $-1 #
straight-curve $-1 -61.553993114768033 -45.219884817629612 0 0 0 -1 I I #
edge $-1 $560 -10.029017428342627 $393 10.02901742834262 $505 $565 forward 7 unknown #
point $-1 -61.553993114768033 -45.219884817629612 17.247231437019192 #
straight-curve $-1 -69.547187705554066 -55.248902245972232 17.247231437019192 0 -1 0 I I #
edge $-1 $511 49.339099833627216 $514 56.56452770633306 $399 $566 forward 7 unknown #
vertex $-1 $413 $567 #
straight-curve $-1 -74.78080792687885 10.029017428342616 17.247231437019195 -1 0 0 I I #
edge $-1 $514 -8.1693038725938223 $410 4.4498767610962346 $409 $568 forward 7 unknown #
vertex $-1 $513 $569 #
straight-curve $-1 -72.608417004913505 10.029017428342616 10.021803564313345 0.84804809178421925 0 0.52991927123019833 I I #
point $-1 -61.045315505419453 10.029017428342616 17.247231437019192 #
point $-1 -72.608417004913491 -2.5901632053474408 10.021803564313354 #
straight-curve $-1 -72.608417004913491 0 17.247231437019192 0 -1 0 I I #
vertex $-1 $416 $570 #
point $-1 -64.96901686037576 1.0153169757068667 12.548416908893858 #
vertex $-1 $420 $571 #
point $-1 -64.96901686037576 6.4235372472883228 12.548416908893858 #
edge $-1 $526 -25.764737567237315 $434 -13.145556933547265 $433 $572 forward 7 unknown #
coedge $-1 $525 $427 $530 $573 reversed $424 $-1 #
coedge $-1 $427 $524 $429 $528 reversed $424 $-1 #
vertex $-1 $428 $574 #
straight-curve $-1 -48.750838627979704 45.219884817629612 24.929673376534954 -0.84804809178421925 0 -0.52991927123019833 I I #
edge $-1 $430 61.045315505419453 $532 72.608417004913491 $525 $575 forward 7 unknown #
point $-1 -61.045315505419453 45.219884817629605 17.247231437019192 #
coedge $-1 $433 $432 $524 $573 forward $299 $-1 #
point $-1 -72.608417004913491 32.600704183939555 10.021803564313354 #
vertex $-1 $528 $576 #
straight-curve $-1 -72.608417004913491 0 17.247231437019192 0 -1 0 I I #
vertex $-1 $440 $577 #
point $-1 -64.96901686037576 36.206184364993867 12.548416908893858 #
vertex $-1 $444 $578 #
point $-1 -64.96901686037576 41.614404636575323 12.548416908893858 #
coedge $-1 $449 $457 $450 $540 forward $321 $-1 #
edge $-1 $542 -27.389389950523668 $458 -8.271599783688206 $449 $579 forward 7 unknown #
edge $-1 $546 -72.608417004913491 $542 -67.197451150425593 $450 $580 forward 7 unknown #
edge $-1 $546 -17.247231437019192 $455 -7.4855902713011071 $454 $581 forward 7 unknown #
vertex $-1 $539 $582 #
straight-curve $-1 30.461240004315115 45.219884817629612 83.521113150568183 -0.48480960649040278 0 0.87461971476443456 I I #
point $-1 72.608417004913491 45.219884817629612 7.4855902713011071 #
point $-1 67.197451150425593 26.102094650794143 17.247231437019195 #
vertex $-1 $461 $583 #
straight-curve $-1 72.608417004913491 0 17.247231437019192 0 1 0 I I #
vertex $-1 $464 $584 #
point $-1 67.249207659465966 29.925652684161243 9.7520722771269117 #
vertex $-1 $468 $585 #
point $-1 67.249207659465966 35.660989734211888 9.7520722771269117 #
vertex $-1 $472 $586 #
point $-1 67.249207659465966 41.396326784262534 9.7520722771269117 #
straight-curve $-1 -72.608417004913491 45.219884817629612 0 0 0 -1 I I #
point $-1 -72.608417004913491 -45.219884817629612 -17.247231437019192 #
straight-curve $-1 -72.608417004913491 0 -17.247231437019192 0 1 0 I I #
point $-1 -72.608417004913491 45.219884817629612 -17.247231437019192 #
edge $-1 $560 -17.247231437019192 $501 17.247231437019192 $493 $587 forward 7 unknown #
straight-curve $-1 -65.55059041016105 -65.277919674314859 -17.247231437019192 -1 0 0 I I #
vertex $-1 $507 $588 #
straight-curve $-1 -65.55059041016105 -65.277919674314859 17.247231437019192 1 0 0 I I #
point $-1 -69.547187705554066 -65.277919674314859 17.247231437019192 #
point $-1 -69.547187705554066 -65.277919674314859 -17.247231437019192 #
point $-1 -61.553993114768033 -65.277919674314859 -17.247231437019192 #
straight-curve $-1 -61.553993114768033 -55.248902245972232 17.247231437019192 0 1 0 I I #
straight-curve $-1 -72.608417004913491 10.029017428342616 66.586331270646411 0 0 -1 I I #
point $-1 -72.608417004913491 10.029017428342616 17.247231437019192 #
straight-curve $-1 -72.608417004913491 1.8597135557487938 10.021803564313354 0 -1 0 I I #
point $-1 -72.608417004913491 10.029017428342616 10.021803564313354 #
point $-1 -65.287145680929783 1.0153169757068667 11.170449545879441 #
point $-1 -65.287145680929783 6.4235372472883228 11.170449545879441 #
straight-curve $-1 -72.608417004913491 19.45514725039229 10.021803564313354 0 -1 0 I I #
edge $-1 $532 -17.247231437019192 $526 -10.021803564313354 $524 $589 forward 7 unknown #
point $-1 -72.608417004913491 45.219884817629605 10.021803564313354 #
straight-curve $-1 0 45.219884817629612 17.247231437019192 -1 0 0 I I #
point $-1 -72.608417004913491 45.219884817629612 17.247231437019192 #
point $-1 -65.287145680929783 36.206184364993867 11.170449545879441 #
point $-1 -65.287145680929783 41.614404636575323 11.170449545879441 #
straight-curve $-1 67.197451150425593 17.830494867105937 17.247231437019209 0 -1 0 I I #
straight-curve $-1 0 45.219884817629612 17.247231437019192 -1 0 0 I I #
straight-curve $-1 72.608417004913491 45.219884817629612 0 0 0 -1 I I #
point $-1 67.197451150425593 45.219884817629605 17.247231437019195 #
point $-1 72.608417004913491 45.219884817629612 17.247231437019192 #
point $-1 65.88977833821113 29.925652684161243 10.141882385400944 #
point $-1 65.88977833821113 35.660989734211888 10.141882385400944 #
point $-1 65.88977833821113 41.396326784262534 10.141882385400944 #
straight-curve $-1 -61.553993114768033 -65.277919674314859 0 0 0 -1 I I #
point $-1 -61.553993114768033 -65.277919674314859 17.247231437019192 #
straight-curve $-1 -72.608417004913491 45.219884817629612 0 0 0 -1 I I #
End-of-ACIS-data 