500 0 3 0           
7 Unknown 11 ACIS 5.0 NT 24 Thu Mar 25 16:36:18 1999 
-1 9.9999999999999995e-007 1e-010 
body $-1 $3 $-1 $4 #
body $-1 $5 $-1 $6 #
body $-1 $7 $-1 $8 #
lump $-1 $-1 $9 $0 #
transform $-1 1 0 0 0 1 0 0 0 1 51.06845301675466 32.162667643673743 14.679081952707799 1 rotate no_reflect no_shear #
lump $-1 $-1 $10 $1 #
transform $-1 1 0 0 0 1 0 0 0 1 51.06845301675466 32.162667643673743 14.679081952707799 1 rotate no_reflect no_shear #
lump $-1 $-1 $11 $2 #
transform $-1 1 0 0 0 1 0 0 0 1 51.06845301675466 32.162667643673743 14.679081952707799 1 rotate no_reflect no_shear #
shell $-1 $-1 $-1 $12 $-1 $3 #
shell $-1 $-1 $-1 $13 $-1 $5 #
shell $-1 $-1 $-1 $14 $-1 $7 #
face $-1 $15 $16 $9 $-1 $17 forward single #
face $-1 $18 $19 $10 $-1 $20 forward single #
face $-1 $21 $22 $11 $-1 $23 reversed single #
face $-1 $24 $25 $9 $-1 $26 reversed single #
loop $-1 $-1 $27 $12 #
plane-surface $-1 0 0 14.679081952707799 0 0 1 1 0 0 forward_v I I I I #
face $-1 $28 $29 $10 $-1 $30 forward single #
loop $-1 $-1 $31 $13 #
plane-surface $-1 38.849242062381052 84.692443630847492 119.80903828348426 1 0 0 0 -0.84804810408105047 -0.52991925155115449 forward_v I I I I #
face $-1 $32 $33 $11 $-1 $34 reversed single #
loop $-1 $35 $36 $14 #
cone-surface $-1 44.958847539567856 30.584371908410859 12.612344552140096 0 -0.84804810408105047 -0.52991925155115449 1 0 0 1 I I 0 1 1 forward I I I I #
face $-1 $37 $38 $9 $-1 $39 reversed single #
loop $-1 $-1 $40 $15 #
plane-surface $-1 0 0 -14.679081952707799 0 0 1 1 0 0 forward_v I I I I #
coedge $-1 $41 $42 $43 $44 forward $16 $-1 #
face $-1 $45 $46 $10 $-1 $47 forward single #
loop $-1 $-1 $48 $18 #
plane-surface $-1 44.958847539567856 -1.924565887574488 65.6847254824564 0 0.84804810408105047 0.52991925155115449 1 0 0 forward_v I I I I #
coedge $-1 $49 $50 $51 $52 reversed $19 $-1 #
face $-1 $53 $54 $11 $-1 $55 forward single #
loop $-1 $56 $57 $21 #
cone-surface $-1 44.958847539567856 29.689737708948911 12.053315078328984 0 -0.84804810408105047 -0.52991925155115449 0.5 0 0 1 I I -0.70710678118654746 0.70710678118654746 0.5 forward I I I I #
loop $-1 $-1 $58 $14 #
coedge $-1 $36 $36 $59 $60 reversed $22 $-1 #
face $-1 $61 $62 $9 $-1 $63 reversed single #
loop $-1 $-1 $64 $24 #
plane-surface $-1 0 -32.162667643673743 0 0 1 0 0 0 1 forward_v I I I I #
coedge $-1 $65 $66 $67 $68 forward $25 $-1 #
coedge $-1 $69 $27 $70 $71 forward $16 $-1 #
coedge $-1 $27 $69 $72 $73 forward $16 $-1 #
coedge $-1 $74 $75 $27 $44 reversed $76 $-1 #
edge $-1 $77 -32.162667643673743 $78 32.162667643673743 $43 $79 forward 7 unknown #
face $-1 $80 $81 $10 $-1 $82 reversed single #
loop $-1 $-1 $83 $28 #
plane-surface $-1 0 0 14.679081952707799 0 0 1 1 0 0 forward_v I I I I #
coedge $-1 $84 $85 $83 $86 reversed $29 $-1 #
coedge $-1 $50 $31 $85 $87 forward $19 $-1 #
coedge $-1 $31 $49 $88 $89 reversed $19 $-1 #
coedge $-1 $90 $83 $31 $52 forward $46 $-1 #
edge $-1 $91 -12.398925347432925 $92 -10.183554171750004 $51 $93 forward 7 unknown #
face $-1 $94 $95 $11 $-1 $96 forward single #
loop $-1 $-1 $97 $32 #
plane-surface $-1 38.849242062381052 84.692443630847492 119.80903828348426 1 0 0 0 -0.84804810408105047 -0.52991925155115449 forward_v I I I I #
loop $-1 $-1 $98 $21 #
coedge $-1 $57 $57 $58 $99 forward $33 $-1 #
coedge $-1 $58 $58 $57 $99 reversed $35 $-1 #
coedge $-1 $59 $59 $36 $60 forward $95 $-1 #
edge $-1 $100 7.5243064764144144e-016 $100 6.2831853071796013 $59 $101 forward 7 unknown #
face $-1 $102 $103 $9 $-1 $104 reversed single #
loop $-1 $-1 $105 $37 #
plane-surface $-1 -51.06845301675466 0 0 1 0 0 0 0 -1 forward_v I I I I #
coedge $-1 $106 $72 $107 $108 forward $38 $-1 #
coedge $-1 $109 $40 $106 $110 forward $25 $-1 #
coedge $-1 $40 $109 $111 $112 forward $25 $-1 #
coedge $-1 $75 $74 $40 $68 reversed $76 $-1 #
edge $-1 $113 -32.162667643673743 $114 32.162667643673743 $67 $115 forward 7 unknown #
coedge $-1 $42 $41 $116 $117 forward $16 $-1 #
coedge $-1 $118 $119 $41 $71 reversed $103 $-1 #
edge $-1 $78 -51.06845301675466 $120 51.06845301675466 $70 $121 forward 7 unknown #
coedge $-1 $64 $122 $42 $73 reversed $38 $-1 #
edge $-1 $123 -51.06845301675466 $77 51.06845301675466 $72 $124 forward 7 unknown #
coedge $-1 $67 $43 $122 $125 forward $76 $-1 #
coedge $-1 $43 $67 $118 $126 reversed $76 $-1 #
loop $-1 $-1 $74 $102 #
vertex $-1 $44 $127 #
vertex $-1 $44 $128 #
straight-curve $-1 51.06845301675466 0 14.679081952707799 0 1 0 I I #
face $-1 $129 $130 $10 $-1 $131 reversed single #
loop $-1 $-1 $88 $45 #
plane-surface $-1 0 32.162667643673743 0 0 -1 0 0 0 -1 forward_v I I I I #
coedge $-1 $51 $132 $48 $86 forward $46 $-1 #
coedge $-1 $133 $48 $134 $135 reversed $29 $-1 #
coedge $-1 $48 $133 $49 $87 reversed $29 $-1 #
edge $-1 $136 -28.589029246970732 $91 -16.369818292597124 $83 $137 forward 7 unknown #
edge $-1 $91 60.144752737839788 $138 64.325335287347457 $49 $139 forward 7 unknown #
coedge $-1 $140 $141 $50 $89 forward $81 $-1 #
edge $-1 $92 45.225437189034331 $138 48.770772294098634 $88 $142 forward 7 unknown #
coedge $-1 $143 $51 $141 $144 forward $46 $-1 #
vertex $-1 $86 $145 #
vertex $-1 $144 $146 #
straight-curve $-1 38.849242062381052 42.346221815423746 14.679081952707797 0 1 0 I I #
face $-1 $147 $148 $11 $-1 $149 forward single #
loop $-1 $150 $59 $53 #
plane-surface $-1 44.958847539567856 -1.924565887574488 65.6847254824564 0 0.84804810408105047 0.52991925155115449 1 0 0 forward_v I I I I #
coedge $-1 $151 $152 $153 $154 reversed $54 $-1 #
coedge $-1 $98 $98 $-1 $155 forward $56 $-1 #
edge $-1 $156 0 $156 6.2831853071796004 $57 $157 forward 7 unknown #
vertex $-1 $60 $158 #
ellipse-curve $-1 44.958847539567856 31.054982055832291 12.906414400175636 0 -0.84804810408105047 -0.52991925155115449 1 0 0 1 I I #
face $-1 $-1 $76 $9 $-1 $159 reversed single #
loop $-1 $-1 $118 $61 #
plane-surface $-1 0 32.162667643673743 0 0 -1 0 0 0 -1 forward_v I I I I #
coedge $-1 $160 $116 $119 $161 forward $62 $-1 #
coedge $-1 $122 $64 $65 $110 reversed $38 $-1 #
coedge $-1 $116 $160 $64 $108 reversed $62 $-1 #
edge $-1 $123 -14.679081952707799 $162 14.679081952707799 $107 $163 forward 7 unknown #
coedge $-1 $66 $65 $160 $164 forward $25 $-1 #
edge $-1 $114 -51.06845301675466 $162 51.06845301675466 $106 $165 forward 7 unknown #
coedge $-1 $119 $118 $66 $112 reversed $103 $-1 #
edge $-1 $166 -51.06845301675466 $113 51.06845301675466 $111 $167 forward 7 unknown #
vertex $-1 $68 $168 #
vertex $-1 $125 $169 #
straight-curve $-1 51.06845301675466 0 -14.679081952707799 0 -1 0 I I #
coedge $-1 $105 $107 $69 $117 reversed $62 $-1 #
edge $-1 $120 -32.162667643673743 $123 32.162667643673743 $116 $170 forward 7 unknown #
coedge $-1 $111 $70 $75 $126 forward $103 $-1 #
coedge $-1 $70 $111 $105 $161 reversed $103 $-1 #
vertex $-1 $71 $171 #
straight-curve $-1 0 32.162667643673743 14.679081952707799 -1 0 0 I I #
coedge $-1 $72 $106 $74 $125 reversed $38 $-1 #
vertex $-1 $117 $172 #
straight-curve $-1 0 -32.162667643673743 14.679081952707799 1 0 0 I I #
edge $-1 $77 -14.679081952707799 $114 14.679081952707799 $74 $173 forward 7 unknown #
edge $-1 $78 -14.679081952707799 $113 14.679081952707799 $75 $174 forward 7 unknown #
point $-1 51.06845301675466 -32.162667643673743 14.679081952707799 #
point $-1 51.06845301675466 32.162667643673743 14.679081952707799 #
face $-1 $175 $176 $10 $-1 $177 reversed single #
loop $-1 $-1 $178 $80 #
plane-surface $-1 0 0 -14.679081952707799 0 0 1 1 0 0 forward_v I I I I #
coedge $-1 $83 $179 $180 $181 forward $46 $-1 #
coedge $-1 $85 $84 $140 $182 reversed $29 $-1 #
coedge $-1 $180 $183 $84 $135 forward $184 $-1 #
edge $-1 $185 -35.963499573754568 $136 -31.782917024246903 $134 $186 forward 7 unknown #
vertex $-1 $135 $187 #
straight-curve $-1 22.479423769783928 29.947296467990828 14.679081952707797 -1 0 0 I I #
vertex $-1 $182 $188 #
straight-curve $-1 38.849242062381052 -1.924565887574488 65.6847254824564 0 0.52991925155115449 -0.84804810408105047 I I #
coedge $-1 $189 $88 $133 $182 forward $81 $-1 #
coedge $-1 $88 $190 $90 $144 reversed $81 $-1 #
straight-curve $-1 38.849242062381052 32.162667643673743 59.904519141742128 0 0 -1 I I #
coedge $-1 $179 $90 $191 $192 forward $46 $-1 #
edge $-1 $92 -38.849242062381052 $193 51.06845301675466 $141 $194 forward 7 unknown #
point $-1 38.849242062381052 29.947296467990821 14.679081952707797 #
point $-1 38.849242062381052 32.162667643673743 14.679081952707799 #
face $-1 $195 $196 $11 $-1 $197 reversed single #
loop $-1 $-1 $198 $94 #
plane-surface $-1 0 0 14.679081952707799 0 0 1 1 0 0 forward_v I I I I #
loop $-1 $-1 $199 $53 #
coedge $-1 $152 $97 $200 $201 forward $54 $-1 #
coedge $-1 $97 $151 $202 $203 reversed $54 $-1 #
coedge $-1 $204 $198 $97 $154 forward $148 $-1 #
edge $-1 $205 -12.398925347432925 $206 -10.183554171750004 $153 $207 forward 7 unknown #
edge $-1 $208 1 $208 0 $98 $-1 forward 7 unknown #
vertex $-1 $99 $209 #
ellipse-curve $-1 44.958847539567856 30.113761760989437 12.31827470410456 0 0.84804810408105047 0.52991925155115449 1 0 0 1 I I #
point $-1 45.958847539567856 31.054982055832284 12.906414400175633 #
plane-surface $-1 51.06845301675466 0 0 -1 0 0 0 0 1 forward_v I I I I #
coedge $-1 $107 $105 $109 $164 reversed $62 $-1 #
edge $-1 $120 -14.679081952707799 $166 14.679081952707799 $119 $210 forward 7 unknown #
vertex $-1 $164 $211 #
straight-curve $-1 -51.06845301675466 -32.162667643673743 0 0 0 -1 I I #
edge $-1 $162 -32.162667643673743 $166 32.162667643673743 $160 $212 forward 7 unknown #
straight-curve $-1 0 -32.162667643673743 -14.679081952707799 -1 0 0 I I #
vertex $-1 $112 $213 #
straight-curve $-1 0 32.162667643673743 -14.679081952707799 1 0 0 I I #
point $-1 51.06845301675466 32.162667643673743 -14.679081952707799 #
point $-1 51.06845301675466 -32.162667643673743 -14.679081952707799 #
straight-curve $-1 -51.06845301675466 0 14.679081952707799 0 -1 0 I I #
point $-1 -51.06845301675466 32.162667643673743 14.679081952707799 #
point $-1 -51.06845301675466 -32.162667643673743 14.679081952707799 #
straight-curve $-1 51.06845301675466 -32.162667643673743 0 0 0 -1 I I #
straight-curve $-1 51.06845301675466 32.162667643673743 0 0 0 -1 I I #
face $-1 $214 $215 $10 $-1 $216 reversed single #
loop $-1 $-1 $217 $129 #
plane-surface $-1 0 -32.162667643673743 0 0 1 0 0 0 1 forward_v I I I I #
coedge $-1 $218 $219 $220 $221 forward $130 $-1 #
coedge $-1 $132 $143 $222 $223 forward $46 $-1 #
coedge $-1 $224 $134 $132 $181 reversed $184 $-1 #
edge $-1 $225 -32.162667643673743 $136 29.947296467990821 $180 $226 forward 7 unknown #
edge $-1 $138 16.369818292597124 $185 28.589029246970732 $140 $227 forward 7 unknown #
coedge $-1 $134 $220 $189 $228 reversed $184 $-1 #
loop $-1 $-1 $134 $214 #
vertex $-1 $228 $229 #
straight-curve $-1 51.06845301675466 13.104916866389459 41.632524477285727 0 -0.52991925155115449 0.84804810408105047 I I #
point $-1 51.06845301675466 29.947296467990821 14.679081952707797 #
point $-1 38.849242062381052 32.162667643673743 11.133746847643494 #
coedge $-1 $230 $140 $183 $228 forward $81 $-1 #
coedge $-1 $141 $230 $231 $232 reversed $81 $-1 #
coedge $-1 $231 $233 $143 $192 reversed $215 $-1 #
edge $-1 $193 -32.162667643673743 $234 32.162667643673743 $191 $235 forward 7 unknown #
vertex $-1 $144 $236 #
straight-curve $-1 0 32.162667643673743 14.679081952707799 -1 0 0 I I #
face $-1 $237 $238 $11 $-1 $239 reversed single #
loop $-1 $-1 $202 $147 #
plane-surface $-1 0 32.162667643673743 0 0 -1 0 0 0 -1 forward_v I I I I #
coedge $-1 $153 $240 $199 $241 forward $148 $-1 #
coedge $-1 $242 $200 $198 $241 reversed $150 $-1 #
coedge $-1 $199 $243 $151 $201 reversed $150 $-1 #
edge $-1 $205 60.144752737839788 $244 64.325335287347457 $151 $245 forward 7 unknown #
coedge $-1 $246 $247 $152 $203 forward $196 $-1 #
edge $-1 $206 45.225437189034331 $244 48.770772294098634 $202 $248 forward 7 unknown #
coedge $-1 $249 $153 $247 $250 forward $148 $-1 #
vertex $-1 $241 $251 #
vertex $-1 $250 $252 #
straight-curve $-1 38.849242062381052 42.346221815423746 14.679081952707797 0 1 0 I I #
vertex $-1 $155 $253 #
point $-1 45.958847539567856 30.113761760989437 12.31827470410456 #
straight-curve $-1 -51.06845301675466 32.162667643673743 0 0 0 -1 I I #
point $-1 -51.06845301675466 -32.162667643673743 -14.679081952707799 #
straight-curve $-1 -51.06845301675466 0 -14.679081952707799 0 1 0 I I #
point $-1 -51.06845301675466 32.162667643673743 -14.679081952707799 #
face $-1 $-1 $184 $10 $-1 $254 reversed single #
loop $-1 $-1 $231 $175 #
plane-surface $-1 -51.06845301675466 0 0 1 0 0 0 0 -1 forward_v I I I I #
coedge $-1 $255 $222 $233 $256 forward $176 $-1 #
coedge $-1 $257 $178 $255 $258 forward $130 $-1 #
coedge $-1 $178 $257 $230 $259 forward $130 $-1 #
coedge $-1 $183 $224 $178 $221 reversed $184 $-1 #
edge $-1 $260 -32.162667643673743 $261 32.162667643673743 $220 $262 forward 7 unknown #
coedge $-1 $217 $263 $179 $223 reversed $176 $-1 #
edge $-1 $234 -51.06845301675466 $225 51.06845301675466 $222 $264 forward 7 unknown #
coedge $-1 $220 $180 $263 $265 forward $184 $-1 #
vertex $-1 $181 $266 #
straight-curve $-1 51.06845301675466 0 14.679081952707799 0 1 0 I I #
straight-curve $-1 22.479423769783928 32.162667643673743 11.133746847643504 1 0 0 I I #
edge $-1 $185 -11.133746847643494 $260 14.679081952707799 $183 $267 forward 7 unknown #
point $-1 51.06845301675466 32.162667643673743 11.133746847643494 #
coedge $-1 $190 $189 $219 $259 reversed $81 $-1 #
coedge $-1 $268 $191 $190 $232 forward $215 $-1 #
edge $-1 $193 -14.679081952707799 $269 14.679081952707799 $190 $270 forward 7 unknown #
coedge $-1 $191 $268 $217 $256 reversed $215 $-1 #
vertex $-1 $192 $271 #
straight-curve $-1 -51.06845301675466 0 14.679081952707799 0 -1 0 I I #
point $-1 -51.06845301675466 32.162667643673743 14.679081952707799 #
face $-1 $272 $273 $11 $-1 $274 reversed single #
loop $-1 $-1 $275 $195 #
plane-surface $-1 0 0 -14.679081952707799 0 0 1 1 0 0 forward_v I I I I #
coedge $-1 $198 $276 $277 $278 forward $148 $-1 #
edge $-1 $279 -28.589029246970732 $205 -16.369818292597124 $198 $280 forward 7 unknown #
coedge $-1 $243 $199 $281 $282 reversed $150 $-1 #
coedge $-1 $200 $242 $246 $283 reversed $150 $-1 #
vertex $-1 $283 $284 #
straight-curve $-1 38.849242062381052 -1.924565887574488 65.6847254824564 0 0.52991925155115449 -0.84804810408105047 I I #
coedge $-1 $285 $202 $243 $283 forward $196 $-1 #
coedge $-1 $202 $286 $204 $250 reversed $196 $-1 #
straight-curve $-1 38.849242062381052 32.162667643673743 59.904519141742128 0 0 -1 I I #
coedge $-1 $276 $204 $287 $288 forward $148 $-1 #
edge $-1 $206 -38.849242062381052 $289 51.06845301675466 $247 $290 forward 7 unknown #
point $-1 38.849242062381052 29.947296467990821 14.679081952707797 #
point $-1 38.849242062381052 32.162667643673743 14.679081952707799 #
point $-1 44.958847539567856 29.265713656908385 11.788355452553407 #
plane-surface $-1 51.06845301675466 0 0 -1 0 0 0 0 1 forward_v I I I I #
coedge $-1 $263 $217 $218 $258 reversed $176 $-1 #
edge $-1 $234 -14.679081952707799 $291 14.679081952707799 $233 $292 forward 7 unknown #
coedge $-1 $219 $218 $268 $293 forward $130 $-1 #
edge $-1 $261 -51.06845301675466 $291 51.06845301675466 $255 $294 forward 7 unknown #
edge $-1 $269 -51.06845301675466 $260 51.06845301675466 $230 $295 forward 7 unknown #
vertex $-1 $221 $296 #
vertex $-1 $265 $297 #
straight-curve $-1 51.06845301675466 0 -14.679081952707799 0 -1 0 I I #
coedge $-1 $222 $255 $224 $265 reversed $176 $-1 #
straight-curve $-1 0 -32.162667643673743 14.679081952707799 1 0 0 I I #
edge $-1 $225 -14.679081952707799 $261 14.679081952707799 $224 $298 forward 7 unknown #
point $-1 51.06845301675466 -32.162667643673743 14.679081952707799 #
straight-curve $-1 51.06845301675466 32.162667643673743 0 0 0 -1 I I #
coedge $-1 $233 $231 $257 $293 reversed $215 $-1 #
vertex $-1 $259 $299 #
straight-curve $-1 -51.06845301675466 32.162667643673743 0 0 0 -1 I I #
point $-1 -51.06845301675466 -32.162667643673743 14.679081952707799 #
face $-1 $300 $301 $11 $-1 $302 reversed single #
loop $-1 $-1 $303 $237 #
plane-surface $-1 0 -32.162667643673743 0 0 1 0 0 0 1 forward_v I I I I #
coedge $-1 $304 $305 $306 $307 forward $238 $-1 #
coedge $-1 $240 $249 $308 $309 forward $148 $-1 #
coedge $-1 $310 $281 $240 $278 reversed $311 $-1 #
edge $-1 $312 -32.162667643673743 $279 29.947296467990821 $277 $313 forward 7 unknown #
vertex $-1 $282 $314 #
straight-curve $-1 22.479423769783928 29.947296467990828 14.679081952707797 -1 0 0 I I #
coedge $-1 $277 $315 $242 $282 forward $311 $-1 #
edge $-1 $316 -35.963499573754568 $279 -31.782917024246903 $281 $317 forward 7 unknown #
edge $-1 $244 16.369818292597124 $316 28.589029246970732 $246 $318 forward 7 unknown #
point $-1 38.849242062381052 32.162667643673743 11.133746847643494 #
coedge $-1 $319 $246 $315 $320 forward $196 $-1 #
coedge $-1 $247 $319 $321 $322 reversed $196 $-1 #
coedge $-1 $321 $323 $249 $288 reversed $301 $-1 #
edge $-1 $289 -32.162667643673743 $324 32.162667643673743 $287 $325 forward 7 unknown #
vertex $-1 $250 $326 #
straight-curve $-1 0 32.162667643673743 14.679081952707799 -1 0 0 I I #
vertex $-1 $293 $327 #
straight-curve $-1 -51.06845301675466 -32.162667643673743 0 0 0 -1 I I #
edge $-1 $291 -32.162667643673743 $269 32.162667643673743 $268 $328 forward 7 unknown #
straight-curve $-1 0 -32.162667643673743 -14.679081952707799 -1 0 0 I I #
straight-curve $-1 0 32.162667643673743 -14.679081952707799 1 0 0 I I #
point $-1 51.06845301675466 32.162667643673743 -14.679081952707799 #
point $-1 51.06845301675466 -32.162667643673743 -14.679081952707799 #
straight-curve $-1 51.06845301675466 -32.162667643673743 0 0 0 -1 I I #
point $-1 -51.06845301675466 32.162667643673743 -14.679081952707799 #
face $-1 $-1 $311 $11 $-1 $329 reversed single #
loop $-1 $-1 $321 $272 #
plane-surface $-1 -51.06845301675466 0 0 1 0 0 0 0 -1 forward_v I I I I #
coedge $-1 $330 $308 $323 $331 forward $273 $-1 #
coedge $-1 $332 $275 $330 $333 forward $238 $-1 #
coedge $-1 $275 $332 $319 $334 forward $238 $-1 #
coedge $-1 $315 $310 $275 $307 reversed $311 $-1 #
edge $-1 $335 -32.162667643673743 $336 32.162667643673743 $306 $337 forward 7 unknown #
coedge $-1 $303 $338 $276 $309 reversed $273 $-1 #
edge $-1 $324 -51.06845301675466 $312 51.06845301675466 $308 $339 forward 7 unknown #
coedge $-1 $306 $277 $338 $340 forward $311 $-1 #
loop $-1 $-1 $281 $300 #
vertex $-1 $278 $341 #
straight-curve $-1 51.06845301675466 0 14.679081952707799 0 1 0 I I #
point $-1 51.06845301675466 29.947296467990821 14.679081952707797 #
coedge $-1 $281 $306 $285 $320 reversed $311 $-1 #
vertex $-1 $320 $342 #
straight-curve $-1 51.06845301675466 13.104916866389459 41.632524477285727 0 -0.52991925155115449 0.84804810408105047 I I #
straight-curve $-1 22.479423769783928 32.162667643673743 11.133746847643504 1 0 0 I I #
coedge $-1 $286 $285 $305 $334 reversed $196 $-1 #
edge $-1 $316 -11.133746847643494 $335 14.679081952707799 $315 $343 forward 7 unknown #
coedge $-1 $344 $287 $286 $322 forward $301 $-1 #
edge $-1 $289 -14.679081952707799 $345 14.679081952707799 $286 $346 forward 7 unknown #
coedge $-1 $287 $344 $303 $331 reversed $301 $-1 #
vertex $-1 $288 $347 #
straight-curve $-1 -51.06845301675466 0 14.679081952707799 0 -1 0 I I #
point $-1 -51.06845301675466 32.162667643673743 14.679081952707799 #
point $-1 -51.06845301675466 -32.162667643673743 -14.679081952707799 #
straight-curve $-1 -51.06845301675466 0 -14.679081952707799 0 1 0 I I #
plane-surface $-1 51.06845301675466 0 0 -1 0 0 0 0 1 forward_v I I I I #
coedge $-1 $338 $303 $304 $333 reversed $273 $-1 #
edge $-1 $324 -14.679081952707799 $348 14.679081952707799 $323 $349 forward 7 unknown #
coedge $-1 $305 $304 $344 $350 forward $238 $-1 #
edge $-1 $336 -51.06845301675466 $348 51.06845301675466 $330 $351 forward 7 unknown #
edge $-1 $345 -51.06845301675466 $335 51.06845301675466 $319 $352 forward 7 unknown #
vertex $-1 $307 $353 #
vertex $-1 $340 $354 #
straight-curve $-1 51.06845301675466 0 -14.679081952707799 0 -1 0 I I #
coedge $-1 $308 $330 $310 $340 reversed $273 $-1 #
straight-curve $-1 0 -32.162667643673743 14.679081952707799 1 0 0 I I #
edge $-1 $312 -14.679081952707799 $336 14.679081952707799 $310 $355 forward 7 unknown #
point $-1 51.06845301675466 -32.162667643673743 14.679081952707799 #
point $-1 51.06845301675466 32.162667643673743 11.133746847643494 #
straight-curve $-1 51.06845301675466 32.162667643673743 0 0 0 -1 I I #
coedge $-1 $323 $321 $332 $350 reversed $301 $-1 #
vertex $-1 $334 $356 #
straight-curve $-1 -51.06845301675466 32.162667643673743 0 0 0 -1 I I #
point $-1 -51.06845301675466 -32.162667643673743 14.679081952707799 #
vertex $-1 $350 $357 #
straight-curve $-1 -51.06845301675466 -32.162667643673743 0 0 0 -1 I I #
edge $-1 $348 -32.162667643673743 $345 32.162667643673743 $344 $358 forward 7 unknown #
straight-curve $-1 0 -32.162667643673743 -14.679081952707799 -1 0 0 I I #
straight-curve $-1 0 32.162667643673743 -14.679081952707799 1 0 0 I I #
point $-1 51.06845301675466 32.162667643673743 -14.679081952707799 #
point $-1 51.06845301675466 -32.162667643673743 -14.679081952707799 #
straight-curve $-1 51.06845301675466 -32.162667643673743 0 0 0 -1 I I #
point $-1 -51.06845301675466 32.162667643673743 -14.679081952707799 #
point $-1 -51.06845301675466 -32.162667643673743 -14.679081952707799 #
straight-curve $-1 -51.06845301675466 0 -14.679081952707799 0 1 0 I I #
End-of-ACIS-data 