500 0 4 0           
7 Unknown 11 ACIS 5.0 NT 24 Fri Mar 26 19:47:06 1999 
-1 9.9999999999999995e-007 1e-010 
body $-1 $4 $-1 $5 #
body $-1 $6 $-1 $7 #
body $-1 $8 $-1 $9 #
body $-1 $10 $-1 $11 #
lump $-1 $-1 $12 $0 #
transform $-1 1 0 0 0 1 0 0 0 1 40.67873165074618 19.307220755808274 6.2230683703236034 1 rotate no_reflect no_shear #
lump $-1 $-1 $13 $1 #
transform $-1 1 0 0 0 1 0 0 0 1 40.67873165074618 19.307220755808274 6.2230683703236034 1 rotate no_reflect no_shear #
lump $-1 $-1 $14 $2 #
transform $-1 1 0 0 0 1 0 0 0 1 40.67873165074618 19.307220755808274 6.2230683703236034 1 rotate no_reflect no_shear #
lump $-1 $-1 $15 $3 #
transform $-1 1 0 0 0 1 0 0 0 1 40.67873165074618 19.307220755808274 6.2230683703236034 1 rotate no_reflect no_shear #
shell $-1 $-1 $-1 $16 $-1 $4 #
shell $-1 $-1 $-1 $17 $-1 $6 #
shell $-1 $-1 $-1 $18 $-1 $8 #
shell $-1 $-1 $-1 $19 $-1 $10 #
face $-1 $20 $21 $12 $-1 $22 forward single #
face $-1 $23 $24 $13 $-1 $25 reversed single #
face $-1 $26 $27 $14 $-1 $28 forward single #
face $-1 $29 $30 $15 $-1 $31 forward single #
face $-1 $32 $33 $12 $-1 $34 reversed single #
loop $-1 $-1 $35 $16 #
plane-surface $-1 0 0 6.2230683703236034 0 0 1 1 0 0 forward_v I I I I #
face $-1 $36 $37 $13 $-1 $38 reversed single #
loop $-1 $-1 $39 $17 #
plane-surface $-1 28.777902848891173 45.049868043027502 86.664196786571722 1 0 0 0 -0.66913061440640931 -0.74314481823134659 forward_v I I I I #
face $-1 $40 $41 $14 $-1 $42 forward single #
loop $-1 $43 $44 $18 #
cone-surface $-1 32.178139649421162 15.349238354540391 2.5110128964842455 0 -0.66913061440640931 -0.74314481823134659 1 0 0 1 I I 0 1 1 forward I I I I #
face $-1 $45 $46 $15 $-1 $47 forward single #
loop $-1 $48 $49 $19 #
cone-surface $-1 37.27849485021617 15.349238354540391 2.5110128964842455 0 -0.66913061440640931 -0.74314481823134659 1 0 0 1 I I 0 1 1 forward I I I I #
face $-1 $50 $51 $12 $-1 $52 reversed single #
loop $-1 $-1 $53 $20 #
plane-surface $-1 0 0 -6.2230683703236034 0 0 1 1 0 0 forward_v I I I I #
coedge $-1 $54 $55 $56 $57 forward $21 $-1 #
face $-1 $58 $59 $13 $-1 $60 forward single #
loop $-1 $-1 $61 $23 #
plane-surface $-1 34.72831724981868 -9.3889013624469797 26.203819509620729 0 0.66913061440640931 0.74314481823134659 1 0 0 forward_v I I I I #
coedge $-1 $62 $63 $64 $65 reversed $24 $-1 #
face $-1 $-1 $66 $14 $-1 $67 forward single #
loop $-1 $68 $69 $26 #
cone-surface $-1 32.178139649421162 14.309315811331089 1.3560619306948167 0 -0.66913061440640931 -0.74314481823134659 0.5 0 0 1 I I -0.70710678118654768 0.70710678118654735 0.5 forward I I I I #
loop $-1 $-1 $70 $18 #
coedge $-1 $44 $44 $71 $72 reversed $27 $-1 #
face $-1 $-1 $73 $15 $-1 $74 forward single #
loop $-1 $75 $76 $29 #
cone-surface $-1 37.27849485021617 14.309315811331089 1.3560619306948167 0 -0.66913061440640931 -0.74314481823134659 0.5 0 0 1 I I -0.70710678118654768 0.70710678118654735 0.5 forward I I I I #
loop $-1 $-1 $77 $19 #
coedge $-1 $49 $49 $78 $79 reversed $30 $-1 #
face $-1 $80 $81 $12 $-1 $82 reversed single #
loop $-1 $-1 $83 $32 #
plane-surface $-1 0 -19.307220755808274 0 0 1 0 0 0 1 forward_v I I I I #
coedge $-1 $84 $85 $86 $87 forward $33 $-1 #
coedge $-1 $88 $35 $89 $90 forward $21 $-1 #
coedge $-1 $35 $88 $91 $92 forward $21 $-1 #
coedge $-1 $93 $94 $35 $57 reversed $95 $-1 #
edge $-1 $96 -19.307220755808274 $97 19.307220755808274 $56 $98 forward 7 unknown #
face $-1 $99 $100 $13 $-1 $101 reversed single #
loop $-1 $-1 $64 $36 #
plane-surface $-1 0 0 6.2230683703236034 0 0 1 1 0 0 forward_v I I I I #
coedge $-1 $102 $103 $104 $105 reversed $37 $-1 #
coedge $-1 $63 $39 $106 $107 reversed $24 $-1 #
coedge $-1 $39 $62 $102 $108 reversed $24 $-1 #
coedge $-1 $104 $109 $39 $65 forward $59 $-1 #
edge $-1 $110 3.217713265705477 $111 9.7229635962290786 $64 $112 forward 7 unknown #
loop $-1 $-1 $71 $40 #
plane-surface $-1 34.72831724981868 -9.3889013624469797 26.203819509620729 0 0.66913061440640931 0.74314481823134659 1 0 0 forward_v I I I I #
loop $-1 $-1 $113 $26 #
coedge $-1 $69 $69 $70 $114 reversed $41 $-1 #
coedge $-1 $70 $70 $69 $114 forward $43 $-1 #
coedge $-1 $71 $71 $44 $72 forward $66 $-1 #
edge $-1 $115 1.9454645138669056e-016 $115 6.2831853071796004 $71 $116 forward 7 unknown #
loop $-1 $-1 $78 $45 #
plane-surface $-1 34.72831724981868 -9.3889013624469797 26.203819509620729 0 0.66913061440640931 0.74314481823134659 1 0 0 forward_v I I I I #
loop $-1 $-1 $117 $29 #
coedge $-1 $76 $76 $77 $118 reversed $46 $-1 #
coedge $-1 $77 $77 $76 $118 forward $48 $-1 #
coedge $-1 $78 $78 $49 $79 forward $73 $-1 #
edge $-1 $119 1.9454645138669056e-016 $119 6.2831853071796004 $78 $120 forward 7 unknown #
face $-1 $121 $122 $12 $-1 $123 reversed single #
loop $-1 $-1 $124 $50 #
plane-surface $-1 -40.67873165074618 0 0 1 0 0 0 0 -1 forward_v I I I I #
coedge $-1 $125 $91 $126 $127 forward $51 $-1 #
coedge $-1 $128 $53 $125 $129 forward $33 $-1 #
coedge $-1 $53 $128 $130 $131 forward $33 $-1 #
coedge $-1 $94 $93 $53 $87 reversed $95 $-1 #
edge $-1 $132 -19.307220755808274 $133 19.307220755808274 $86 $134 forward 7 unknown #
coedge $-1 $55 $54 $135 $136 forward $21 $-1 #
coedge $-1 $137 $138 $54 $90 reversed $122 $-1 #
edge $-1 $97 -40.67873165074618 $139 40.67873165074618 $89 $140 forward 7 unknown #
coedge $-1 $83 $141 $55 $92 reversed $51 $-1 #
edge $-1 $142 -40.67873165074618 $96 40.67873165074618 $91 $143 forward 7 unknown #
coedge $-1 $86 $56 $141 $144 forward $95 $-1 #
coedge $-1 $56 $86 $137 $145 reversed $95 $-1 #
loop $-1 $-1 $93 $121 #
vertex $-1 $57 $146 #
vertex $-1 $57 $147 #
straight-curve $-1 40.67873165074618 0 6.2230683703236034 0 1 0 I I #
face $-1 $-1 $148 $13 $-1 $149 reversed single #
loop $-1 $-1 $106 $58 #
plane-surface $-1 0 19.307220755808274 0 0 -1 0 0 0 -1 forward_v I I I I #
coedge $-1 $150 $61 $63 $108 forward $37 $-1 #
coedge $-1 $61 $150 $151 $152 reversed $37 $-1 #
coedge $-1 $153 $64 $61 $105 forward $59 $-1 #
edge $-1 $111 11.413744223981833 $154 23.314573025836847 $104 $155 forward 7 unknown #
coedge $-1 $156 $157 $62 $107 forward $100 $-1 #
edge $-1 $158 -42.966383857293479 $110 -37.109030022962258 $106 $159 forward 7 unknown #
edge $-1 $111 29.860763667228404 $158 38.614441511616562 $63 $160 forward 7 unknown #
coedge $-1 $64 $153 $156 $161 forward $59 $-1 #
vertex $-1 $107 $162 #
vertex $-1 $65 $163 #
straight-curve $-1 28.777902848891173 22.524934021513751 6.2230683703236025 0 -1 0 I I #
coedge $-1 $113 $113 $-1 $164 reversed $68 $-1 #
edge $-1 $165 0 $165 6.2831853071796004 $69 $166 forward 7 unknown #
vertex $-1 $72 $167 #
ellipse-curve $-1 32.178139649421162 16.054595590546477 3.2943914531579894 0 0.66913061440640931 0.74314481823134659 1 0 0 1 I I #
coedge $-1 $117 $117 $-1 $168 reversed $75 $-1 #
edge $-1 $169 0 $169 6.2831853071796004 $76 $170 forward 7 unknown #
vertex $-1 $79 $171 #
ellipse-curve $-1 37.27849485021617 16.054595590546477 3.2943914531579894 0 0.66913061440640931 0.74314481823134659 1 0 0 1 I I #
face $-1 $-1 $95 $12 $-1 $172 reversed single #
loop $-1 $-1 $137 $80 #
plane-surface $-1 0 19.307220755808274 0 0 -1 0 0 0 -1 forward_v I I I I #
coedge $-1 $173 $135 $138 $174 forward $81 $-1 #
coedge $-1 $141 $83 $84 $129 reversed $51 $-1 #
coedge $-1 $135 $173 $83 $127 reversed $81 $-1 #
edge $-1 $142 -6.2230683703236034 $175 6.2230683703236034 $126 $176 forward 7 unknown #
coedge $-1 $85 $84 $173 $177 forward $33 $-1 #
edge $-1 $133 -40.67873165074618 $175 40.67873165074618 $125 $178 forward 7 unknown #
coedge $-1 $138 $137 $85 $131 reversed $122 $-1 #
edge $-1 $179 -40.67873165074618 $132 40.67873165074618 $130 $180 forward 7 unknown #
vertex $-1 $87 $181 #
vertex $-1 $144 $182 #
straight-curve $-1 40.67873165074618 0 -6.2230683703236034 0 -1 0 I I #
coedge $-1 $124 $126 $88 $136 reversed $81 $-1 #
edge $-1 $139 -19.307220755808274 $142 19.307220755808274 $135 $183 forward 7 unknown #
coedge $-1 $130 $89 $94 $145 forward $122 $-1 #
coedge $-1 $89 $130 $124 $174 reversed $122 $-1 #
vertex $-1 $90 $184 #
straight-curve $-1 0 19.307220755808274 6.2230683703236034 -1 0 0 I I #
coedge $-1 $91 $125 $93 $144 reversed $51 $-1 #
vertex $-1 $136 $185 #
straight-curve $-1 0 -19.307220755808274 6.2230683703236034 1 0 0 I I #
edge $-1 $96 -6.2230683703236034 $133 6.2230683703236034 $93 $186 forward 7 unknown #
edge $-1 $97 -6.2230683703236034 $132 6.2230683703236034 $94 $187 forward 7 unknown #
point $-1 40.67873165074618 -19.307220755808274 6.2230683703236034 #
point $-1 40.67873165074618 19.307220755808274 6.2230683703236034 #
loop $-1 $-1 $151 $99 #
plane-surface $-1 40.67873165074618 0 0 -1 0 0 0 0 1 forward_v I I I I #
coedge $-1 $103 $102 $157 $188 reversed $37 $-1 #
coedge $-1 $189 $190 $103 $152 forward $148 $-1 #
edge $-1 $154 17.605218044900965 $191 26.358895889289123 $151 $192 forward 7 unknown #
coedge $-1 $109 $104 $190 $193 forward $59 $-1 #
vertex $-1 $193 $194 #
straight-curve $-1 17.36415862490934 12.801970425284672 6.2230683703236007 1 0 0 I I #
coedge $-1 $195 $106 $109 $161 reversed $100 $-1 #
coedge $-1 $106 $195 $150 $188 forward $100 $-1 #
vertex $-1 $107 $196 #
straight-curve $-1 28.777902848891173 19.307220755808274 43.332098393285861 0 0 1 I I #
straight-curve $-1 28.777902848891173 -9.3889013624469797 26.203819509620729 0 0.74314481823134659 -0.66913061440640931 I I #
edge $-1 $197 -40.67873165074618 $110 -28.777902848891173 $156 $198 forward 7 unknown #
point $-1 28.777902848891173 19.307220755808274 6.2230683703236034 #
point $-1 28.777902848891173 12.801970425284672 6.2230683703236025 #
edge $-1 $199 1 $199 0 $113 $-1 forward 7 unknown #
vertex $-1 $114 $200 #
ellipse-curve $-1 32.178139649421162 14.643881118534294 1.7276343398104899 0 0.66913061440640931 0.74314481823134659 1 0 0 1 I I #
point $-1 33.178139649421162 16.054595590546487 3.294391453158001 #
edge $-1 $201 1 $201 0 $117 $-1 forward 7 unknown #
vertex $-1 $118 $202 #
ellipse-curve $-1 37.27849485021617 14.643881118534294 1.7276343398104899 0 0.66913061440640931 0.74314481823134659 1 0 0 1 I I #
point $-1 38.27849485021617 16.054595590546487 3.294391453158001 #
plane-surface $-1 40.67873165074618 0 0 -1 0 0 0 0 1 forward_v I I I I #
coedge $-1 $126 $124 $128 $177 reversed $81 $-1 #
edge $-1 $139 -6.2230683703236034 $179 6.2230683703236034 $138 $203 forward 7 unknown #
vertex $-1 $177 $204 #
straight-curve $-1 -40.67873165074618 -19.307220755808274 0 0 0 -1 I I #
edge $-1 $175 -19.307220755808274 $179 19.307220755808274 $173 $205 forward 7 unknown #
straight-curve $-1 0 -19.307220755808274 -6.2230683703236034 -1 0 0 I I #
vertex $-1 $131 $206 #
straight-curve $-1 0 19.307220755808274 -6.2230683703236034 1 0 0 I I #
point $-1 40.67873165074618 19.307220755808274 -6.2230683703236034 #
point $-1 40.67873165074618 -19.307220755808274 -6.2230683703236034 #
straight-curve $-1 -40.67873165074618 0 6.2230683703236034 0 -1 0 I I #
point $-1 -40.67873165074618 19.307220755808274 6.2230683703236034 #
point $-1 -40.67873165074618 -19.307220755808274 6.2230683703236034 #
straight-curve $-1 40.67873165074618 -19.307220755808274 0 0 0 -1 I I #
straight-curve $-1 40.67873165074618 19.307220755808274 0 0 0 -1 I I #
edge $-1 $191 -23.314573025836847 $158 -11.413744223981833 $157 $207 forward 7 unknown #
coedge $-1 $190 $151 $195 $208 reversed $148 $-1 #
coedge $-1 $151 $189 $153 $193 reversed $148 $-1 #
vertex $-1 $152 $209 #
straight-curve $-1 40.67873165074618 -0.28125613861648002 18.003258737466989 0 0.74314481823134659 -0.66913061440640931 I I #
edge $-1 $154 12.801970425284672 $197 19.307220755808274 $190 $210 forward 7 unknown #
point $-1 40.678731650746187 12.801970425284672 6.2230683703236025 #
coedge $-1 $157 $156 $189 $208 forward $100 $-1 #
point $-1 28.777902848891173 19.307220755808274 0.36571453599238168 #
vertex $-1 $193 $211 #
straight-curve $-1 0 19.307220755808274 6.2230683703236034 -1 0 0 I I #
vertex $-1 $164 $212 #
point $-1 33.178139649421162 14.643881118534294 1.7276343398104899 #
vertex $-1 $168 $213 #
point $-1 38.27849485021617 14.643881118534294 1.7276343398104899 #
straight-curve $-1 -40.67873165074618 19.307220755808274 0 0 0 -1 I I #
point $-1 -40.67873165074618 -19.307220755808274 -6.2230683703236034 #
straight-curve $-1 -40.67873165074618 0 -6.2230683703236034 0 1 0 I I #
point $-1 -40.67873165074618 19.307220755808274 -6.2230683703236034 #
straight-curve $-1 17.36415862490934 19.307220755808274 0.36571453599238524 -1 0 0 I I #
edge $-1 $197 -6.2230683703236034 $191 -0.36571453599238168 $189 $214 forward 7 unknown #
point $-1 40.678731650746187 19.307220755808274 0.36571453599238168 #
straight-curve $-1 40.67873165074618 0 6.2230683703236034 0 1 0 I I #
point $-1 40.67873165074618 19.307220755808274 6.2230683703236034 #
point $-1 32.178139649421162 13.974750504127885 0.9844895215791436 #
point $-1 37.27849485021617 13.974750504127885 0.9844895215791436 #
straight-curve $-1 40.67873165074618 19.307220755808274 0 0 0 -1 I I #
End-of-ACIS-data 