500 0 12 0           
7 Unknown 11 ACIS 5.0 NT 24 Fri Mar 26 00:59:18 1999 
-1 9.9999999999999995e-007 1e-010 
body $-1 $12 $-1 $13 #
body $-1 $14 $-1 $15 #
body $-1 $16 $-1 $17 #
body $-1 $18 $-1 $19 #
body $-1 $20 $-1 $21 #
body $-1 $22 $-1 $23 #
body $-1 $24 $-1 $25 #
body $-1 $26 $-1 $27 #
body $-1 $28 $-1 $29 #
body $-1 $30 $-1 $31 #
body $-1 $32 $-1 $33 #
body $-1 $34 $-1 $35 #
lump $-1 $-1 $36 $0 #
transform $-1 1 0 0 0 1 0 0 0 1 41.28910184026612 23.172653127296545 11.142915402699302 1 rotate no_reflect no_shear #
lump $-1 $-1 $37 $1 #
transform $-1 1 0 0 0 1 0 0 0 1 41.28910184026612 23.172653127296545 11.142915402699302 1 rotate no_reflect no_shear #
lump $-1 $-1 $38 $2 #
transform $-1 1 0 0 0 1 0 0 0 1 41.28910184026612 23.172653127296545 11.142915402699302 1 rotate no_reflect no_shear #
lump $-1 $-1 $39 $3 #
transform $-1 1 0 0 0 1 0 0 0 1 41.28910184026612 23.172653127296545 11.142915402699302 1 rotate no_reflect no_shear #
lump $-1 $-1 $40 $4 #
transform $-1 1 0 0 0 1 0 0 0 1 41.28910184026612 23.172653127296545 11.142915402699302 1 rotate no_reflect no_shear #
lump $-1 $-1 $41 $5 #
transform $-1 1 0 0 0 1 0 0 0 1 41.28910184026612 23.172653127296545 11.142915402699302 1 rotate no_reflect no_shear #
lump $-1 $-1 $42 $6 #
transform $-1 1 0 0 0 1 0 0 0 1 41.28910184026612 23.172653127296545 11.142915402699302 1 rotate no_reflect no_shear #
lump $-1 $-1 $43 $7 #
transform $-1 1 0 0 0 1 0 0 0 1 41.28910184026612 23.172653127296545 11.142915402699302 1 rotate no_reflect no_shear #
lump $-1 $-1 $44 $8 #
transform $-1 1 0 0 0 1 0 0 0 1 41.28910184026612 23.172653127296545 11.142915402699302 1 rotate no_reflect no_shear #
lump $-1 $-1 $45 $9 #
transform $-1 1 0 0 0 1 0 0 0 1 41.28910184026612 23.172653127296545 11.142915402699302 1 rotate no_reflect no_shear #
lump $-1 $-1 $46 $10 #
transform $-1 1 0 0 0 1 0 0 0 1 41.28910184026612 23.172653127296545 11.142915402699302 1 rotate no_reflect no_shear #
lump $-1 $-1 $47 $11 #
transform $-1 1 0 0 0 1 0 0 0 1 41.28910184026612 23.172653127296545 11.142915402699302 1 rotate no_reflect no_shear #
shell $-1 $-1 $-1 $48 $-1 $12 #
shell $-1 $-1 $-1 $49 $-1 $14 #
shell $-1 $-1 $-1 $50 $-1 $16 #
shell $-1 $-1 $-1 $51 $-1 $18 #
shell $-1 $-1 $-1 $52 $-1 $20 #
shell $-1 $-1 $-1 $53 $-1 $22 #
shell $-1 $-1 $-1 $54 $-1 $24 #
shell $-1 $-1 $-1 $55 $-1 $26 #
shell $-1 $-1 $-1 $56 $-1 $28 #
shell $-1 $-1 $-1 $57 $-1 $30 #
shell $-1 $-1 $-1 $58 $-1 $32 #
shell $-1 $-1 $-1 $59 $-1 $34 #
face $-1 $60 $61 $36 $-1 $62 forward single #
face $-1 $63 $64 $37 $-1 $65 reversed single #
face $-1 $66 $67 $38 $-1 $68 reversed single #
face $-1 $69 $70 $39 $-1 $71 forward single #
face $-1 $72 $73 $40 $-1 $74 forward single #
face $-1 $75 $76 $41 $-1 $77 forward single #
face $-1 $78 $79 $42 $-1 $80 reversed single #
face $-1 $81 $82 $43 $-1 $83 forward single #
face $-1 $84 $85 $44 $-1 $86 forward single #
face $-1 $87 $88 $45 $-1 $89 reversed single #
face $-1 $90 $91 $46 $-1 $92 forward single #
face $-1 $93 $94 $47 $-1 $95 forward single #
face $-1 $96 $97 $36 $-1 $98 reversed single #
loop $-1 $-1 $99 $48 #
plane-surface $-1 0 0 11.142915402699302 0 0 1 1 0 0 forward_v I I I I #
face $-1 $100 $101 $37 $-1 $102 reversed single #
loop $-1 $-1 $103 $49 #
plane-surface $-1 0 -17.352396946778132 8.1429154026993018 0 0 1 1 0 0 forward_v I I I I #
face $-1 $104 $105 $38 $-1 $106 reversed single #
loop $-1 $-1 $107 $50 #
plane-surface $-1 -109.74953603226976 -2.8111022626175064 53.00469836455774 0 1 0 -0.82903758062907751 0 0.55919289150049634 forward_v I I I I #
face $-1 $108 $109 $39 $-1 $110 forward single #
loop $-1 $111 $112 $51 #
cone-surface $-1 -39.23184887740728 -1.0950634889061384 8.5792621689297732 0.82903758062907751 0 -0.55919289150049634 0.27959644575024817 0 0.41451879031453875 1 I I 0 1 0.5 forward I I I I #
face $-1 $113 $114 $40 $-1 $115 forward single #
loop $-1 $116 $117 $52 #
cone-surface $-1 -39.23184887740728 1.4789946716609101 8.5792621689297732 0.82903758062907751 0 -0.55919289150049634 0.27959644575024817 0 0.41451879031453875 1 I I 0 1 0.5 forward I I I I #
face $-1 $118 $119 $41 $-1 $120 forward single #
loop $-1 $121 $122 $53 #
cone-surface $-1 -39.23184887740728 4.0530528322279586 8.5792621689297732 0.82903758062907751 0 -0.55919289150049634 0.27959644575024817 0 0.41451879031453875 1 I I 0 1 0.5 forward I I I I #
face $-1 $123 $124 $42 $-1 $125 reversed single #
loop $-1 $-1 $126 $54 #
plane-surface $-1 17.00850699738136 5.8202561805184168 120.91116149993825 0 -1 0 -0.54463904215088732 0 -0.83867056331134215 forward_v I I I I #
face $-1 $127 $128 $43 $-1 $129 forward single #
loop $-1 $130 $131 $55 #
cone-surface $-1 37.580591997832464 0.34735794811849274 8.4920919931147605 -0.54463904215088732 0 -0.83867056331134215 0.41933528165567108 0 -0.27231952107544366 1 I I 0 1 0.5 forward I I I I #
face $-1 $132 $133 $44 $-1 $134 forward single #
loop $-1 $135 $136 $56 #
cone-surface $-1 37.580591997832464 3.6310968875584457 8.4920919931147605 -0.54463904215088732 0 -0.83867056331134215 0.41933528165567108 0 -0.27231952107544366 1 I I 0 1 0.5 forward I I I I #
face $-1 $137 $138 $45 $-1 $139 reversed single #
loop $-1 $-1 $140 $57 #
plane-surface $-1 17.00850699738136 13.482313705878305 120.91116149993825 0 -1 0 -0.54463904215088732 0 -0.83867056331134215 forward_v I I I I #
face $-1 $141 $142 $46 $-1 $143 forward single #
loop $-1 $144 $145 $58 #
cone-surface $-1 37.580591997832464 8.0094154734783807 8.4920919931147605 -0.54463904215088732 0 -0.83867056331134215 0.41933528165567108 0 -0.27231952107544366 1 I I 0 1 0.5 forward I I I I #
face $-1 $146 $147 $47 $-1 $148 forward single #
loop $-1 $149 $150 $59 #
cone-surface $-1 37.580591997832464 11.29315441291833 8.4920919931147605 -0.54463904215088732 0 -0.83867056331134215 0.41933528165567108 0 -0.27231952107544366 1 I I 0 1 0.5 forward I I I I #
face $-1 $151 $152 $36 $-1 $153 reversed single #
loop $-1 $-1 $154 $60 #
plane-surface $-1 0 0 -11.142915402699302 0 0 1 1 0 0 forward_v I I I I #
coedge $-1 $155 $156 $157 $158 forward $61 $-1 #
face $-1 $159 $160 $37 $-1 $161 reversed single #
loop $-1 $-1 $162 $63 #
plane-surface $-1 0 -11.532140766259719 9.6429154026993018 0 -1 0 0 0 -1 forward_v I I I I #
coedge $-1 $163 $164 $165 $166 reversed $64 $-1 #
face $-1 $167 $168 $38 $-1 $169 reversed single #
loop $-1 $-1 $170 $66 #
plane-surface $-1 -41.289101840266127 1.4789946716609101 6.8275538735239891 -0.82903758062907751 0 0.55919289150049634 0.55919289150049634 0 0.82903758062907751 forward_v I I I I #
coedge $-1 $171 $172 $173 $174 reversed $67 $-1 #
face $-1 $-1 $175 $39 $-1 $176 forward single #
loop $-1 $177 $178 $69 #
cone-surface $-1 -38.422710526404494 -1.0950634889061384 8.0334914768727756 0.82903758062907751 0 -0.55919289150049634 0.13979822287512408 0 0.20725939515726938 1 I I -0.70710678118654746 0.70710678118654746 0.25 forward I I I I #
loop $-1 $-1 $179 $51 #
coedge $-1 $112 $112 $180 $181 reversed $70 $-1 #
face $-1 $-1 $182 $40 $-1 $183 forward single #
loop $-1 $184 $185 $72 #
cone-surface $-1 -38.422710526404494 1.4789946716609101 8.0334914768727756 0.82903758062907751 0 -0.55919289150049634 0.13979822287512408 0 0.20725939515726938 1 I I -0.70710678118654746 0.70710678118654746 0.25 forward I I I I #
loop $-1 $-1 $186 $52 #
coedge $-1 $117 $117 $187 $188 reversed $73 $-1 #
face $-1 $-1 $189 $41 $-1 $190 forward single #
loop $-1 $191 $192 $75 #
cone-surface $-1 -38.422710526404494 4.0530528322279586 8.0334914768727756 0.82903758062907751 0 -0.55919289150049634 0.13979822287512408 0 0.20725939515726938 1 I I -0.70710678118654746 0.70710678118654746 0.25 forward I I I I #
loop $-1 $-1 $193 $53 #
coedge $-1 $122 $122 $194 $195 reversed $76 $-1 #
face $-1 $196 $197 $42 $-1 $198 reversed single #
loop $-1 $-1 $199 $78 #
plane-surface $-1 -27.966806757724598 1.989227417838471 51.65525290194752 0.54463904215088732 0 0.83867056331134215 0.83867056331134215 0 -0.54463904215088732 forward_v I I I I #
coedge $-1 $200 $201 $202 $203 reversed $79 $-1 #
face $-1 $-1 $204 $43 $-1 $205 forward single #
loop $-1 $206 $207 $81 #
cone-surface $-1 37.172112716219296 0.34735794811849274 7.8630890706312542 -0.54463904215088732 0 -0.83867056331134215 0.20966764082783554 0 -0.13615976053772183 1 I I -0.70710678118654746 0.70710678118654746 0.25 forward I I I I #
loop $-1 $-1 $208 $55 #
coedge $-1 $131 $131 $209 $210 reversed $82 $-1 #
face $-1 $-1 $211 $44 $-1 $212 forward single #
loop $-1 $213 $214 $84 #
cone-surface $-1 37.172112716219296 3.6310968875584457 7.8630890706312542 -0.54463904215088732 0 -0.83867056331134215 0.20966764082783554 0 -0.13615976053772183 1 I I -0.70710678118654746 0.70710678118654746 0.25 forward I I I I #
loop $-1 $-1 $215 $56 #
coedge $-1 $136 $136 $216 $217 reversed $85 $-1 #
face $-1 $218 $219 $45 $-1 $220 reversed single #
loop $-1 $-1 $221 $87 #
plane-surface $-1 -27.966806757724598 1.989227417838471 51.65525290194752 0.54463904215088732 0 0.83867056331134215 0.83867056331134215 0 -0.54463904215088732 forward_v I I I I #
coedge $-1 $222 $223 $224 $225 reversed $88 $-1 #
face $-1 $-1 $226 $46 $-1 $227 forward single #
loop $-1 $228 $229 $90 #
cone-surface $-1 37.172112716219296 8.0094154734783807 7.8630890706312542 -0.54463904215088732 0 -0.83867056331134215 0.20966764082783554 0 -0.13615976053772183 1 I I -0.70710678118654746 0.70710678118654746 0.25 forward I I I I #
loop $-1 $-1 $230 $58 #
coedge $-1 $145 $145 $231 $232 reversed $91 $-1 #
face $-1 $-1 $233 $47 $-1 $234 forward single #
loop $-1 $235 $236 $93 #
cone-surface $-1 37.172112716219296 11.29315441291833 7.8630890706312542 -0.54463904215088732 0 -0.83867056331134215 0.20966764082783554 0 -0.13615976053772183 1 I I -0.70710678118654746 0.70710678118654746 0.25 forward I I I I #
loop $-1 $-1 $237 $59 #
coedge $-1 $150 $150 $238 $239 reversed $94 $-1 #
face $-1 $240 $241 $36 $-1 $242 reversed single #
loop $-1 $-1 $243 $96 #
plane-surface $-1 0 -23.172653127296545 0 0 1 0 0 0 1 forward_v I I I I #
coedge $-1 $244 $245 $246 $247 forward $97 $-1 #
coedge $-1 $248 $99 $249 $250 forward $61 $-1 #
coedge $-1 $99 $248 $251 $252 forward $61 $-1 #
coedge $-1 $253 $254 $99 $158 reversed $255 $-1 #
edge $-1 $256 -23.172653127296545 $257 23.172653127296545 $157 $258 forward 7 unknown #
face $-1 $259 $260 $37 $-1 $261 reversed single #
loop $-1 $-1 $262 $100 #
plane-surface $-1 -41.28910184026612 0 0 1 0 0 0 0 -1 forward_v I I I I #
coedge $-1 $263 $264 $265 $266 reversed $101 $-1 #
coedge $-1 $267 $103 $268 $269 reversed $64 $-1 #
coedge $-1 $103 $267 $263 $270 forward $64 $-1 #
coedge $-1 $265 $271 $103 $166 forward $272 $-1 #
edge $-1 $273 -14.496454653907479 $274 -2.8559422928706528 $165 $275 forward 7 unknown #
face $-1 $276 $277 $38 $-1 $278 forward single #
loop $-1 $-1 $279 $104 #
plane-surface $-1 -109.74953603226976 5.7690916059393267 53.00469836455774 0 -1 0 0.82903758062907751 0 -0.55919289150049634 forward_v I I I I #
coedge $-1 $280 $281 $282 $283 reversed $105 $-1 #
coedge $-1 $172 $107 $284 $285 reversed $67 $-1 #
coedge $-1 $107 $171 $280 $286 reversed $67 $-1 #
coedge $-1 $282 $287 $107 $174 forward $277 $-1 #
edge $-1 $288 13.585666175868759 $289 16.496414189895404 $173 $290 forward 7 unknown #
loop $-1 $-1 $180 $108 #
plane-surface $-1 -41.289101840266127 1.4789946716609101 6.8275538735239891 -0.82903758062907751 0 0.55919289150049634 0.55919289150049634 0 0.82903758062907751 forward_v I I I I #
loop $-1 $-1 $291 $69 #
coedge $-1 $178 $178 $179 $292 reversed $109 $-1 #
coedge $-1 $179 $179 $178 $292 forward $111 $-1 #
coedge $-1 $180 $180 $112 $181 forward $175 $-1 #
edge $-1 $293 0 $293 6.2831853071796004 $180 $294 forward 7 unknown #
loop $-1 $-1 $187 $113 #
plane-surface $-1 -41.289101840266127 1.4789946716609101 6.8275538735239891 -0.82903758062907751 0 0.55919289150049634 0.55919289150049634 0 0.82903758062907751 forward_v I I I I #
loop $-1 $-1 $295 $72 #
coedge $-1 $185 $185 $186 $296 reversed $114 $-1 #
coedge $-1 $186 $186 $185 $296 forward $116 $-1 #
coedge $-1 $187 $187 $117 $188 forward $182 $-1 #
edge $-1 $297 0 $297 6.2831853071796004 $187 $298 forward 7 unknown #
loop $-1 $-1 $194 $118 #
plane-surface $-1 -41.289101840266127 1.4789946716609101 6.8275538735239891 -0.82903758062907751 0 0.55919289150049634 0.55919289150049634 0 0.82903758062907751 forward_v I I I I #
loop $-1 $-1 $299 $75 #
coedge $-1 $192 $192 $193 $300 reversed $119 $-1 #
coedge $-1 $193 $193 $192 $300 forward $121 $-1 #
coedge $-1 $194 $194 $122 $195 forward $189 $-1 #
edge $-1 $301 0 $301 6.2831853071796004 $194 $302 forward 7 unknown #
face $-1 $303 $304 $42 $-1 $305 reversed single #
loop $-1 $-1 $306 $123 #
plane-surface $-1 17.00850699738136 -1.8418013448414747 120.91116149993825 0 1 0 0.54463904215088732 0 0.83867056331134215 forward_v I I I I #
coedge $-1 $307 $308 $309 $310 reversed $124 $-1 #
coedge $-1 $201 $126 $311 $312 reversed $79 $-1 #
coedge $-1 $126 $200 $307 $313 reversed $79 $-1 #
coedge $-1 $309 $314 $126 $203 forward $315 $-1 #
edge $-1 $316 -32.78484834157544 $317 -25.912467698859047 $202 $318 forward 7 unknown #
loop $-1 $-1 $209 $127 #
plane-surface $-1 -27.966806757724598 1.989227417838471 51.65525290194752 0.54463904215088732 0 0.83867056331134215 0.83867056331134215 0 -0.54463904215088732 forward_v I I I I #
loop $-1 $-1 $319 $81 #
coedge $-1 $207 $207 $208 $320 reversed $128 $-1 #
coedge $-1 $208 $208 $207 $320 forward $130 $-1 #
coedge $-1 $209 $209 $131 $210 forward $204 $-1 #
edge $-1 $321 0 $321 6.2831853071796004 $209 $322 forward 7 unknown #
loop $-1 $-1 $216 $132 #
plane-surface $-1 -27.966806757724598 1.989227417838471 51.65525290194752 0.54463904215088732 0 0.83867056331134215 0.83867056331134215 0 -0.54463904215088732 forward_v I I I I #
loop $-1 $-1 $323 $84 #
coedge $-1 $214 $214 $215 $324 reversed $133 $-1 #
coedge $-1 $215 $215 $214 $324 forward $135 $-1 #
coedge $-1 $216 $216 $136 $217 forward $211 $-1 #
edge $-1 $325 0 $325 6.2831853071796004 $216 $326 forward 7 unknown #
face $-1 $327 $328 $45 $-1 $329 forward single #
loop $-1 $-1 $330 $137 #
plane-surface $-1 41.28910184026612 0 0 -1 0 0 0 0 1 forward_v I I I I #
coedge $-1 $331 $332 $333 $334 reversed $138 $-1 #
coedge $-1 $223 $140 $335 $336 reversed $88 $-1 #
coedge $-1 $140 $222 $337 $338 reversed $88 $-1 #
coedge $-1 $339 $330 $140 $225 forward $219 $-1 #
edge $-1 $340 -53.775641603127561 $341 -49.312665347269821 $224 $342 forward 7 unknown #
loop $-1 $-1 $231 $141 #
plane-surface $-1 -27.966806757724598 1.989227417838471 51.65525290194752 0.54463904215088732 0 0.83867056331134215 0.83867056331134215 0 -0.54463904215088732 forward_v I I I I #
loop $-1 $-1 $343 $90 #
coedge $-1 $229 $229 $230 $344 reversed $142 $-1 #
coedge $-1 $230 $230 $229 $344 forward $144 $-1 #
coedge $-1 $231 $231 $145 $232 forward $226 $-1 #
edge $-1 $345 0 $345 6.2831853071796004 $231 $346 forward 7 unknown #
loop $-1 $-1 $238 $146 #
plane-surface $-1 -27.966806757724598 1.989227417838471 51.65525290194752 0.54463904215088732 0 0.83867056331134215 0.83867056331134215 0 -0.54463904215088732 forward_v I I I I #
loop $-1 $-1 $347 $93 #
coedge $-1 $236 $236 $237 $348 reversed $147 $-1 #
coedge $-1 $237 $237 $236 $348 forward $149 $-1 #
coedge $-1 $238 $238 $150 $239 forward $233 $-1 #
edge $-1 $349 0 $349 6.2831853071796004 $238 $350 forward 7 unknown #
face $-1 $351 $352 $36 $-1 $353 reversed single #
loop $-1 $-1 $354 $151 #
plane-surface $-1 -41.28910184026612 0 0 1 0 0 0 0 -1 forward_v I I I I #
coedge $-1 $355 $251 $356 $357 forward $152 $-1 #
coedge $-1 $358 $154 $355 $359 forward $97 $-1 #
coedge $-1 $154 $358 $360 $361 forward $97 $-1 #
coedge $-1 $254 $253 $154 $247 reversed $255 $-1 #
edge $-1 $362 -23.172653127296545 $363 23.172653127296545 $246 $364 forward 7 unknown #
coedge $-1 $156 $155 $365 $366 forward $61 $-1 #
coedge $-1 $367 $368 $155 $250 reversed $352 $-1 #
edge $-1 $257 -41.28910184026612 $369 41.28910184026612 $249 $370 forward 7 unknown #
coedge $-1 $243 $371 $156 $252 reversed $152 $-1 #
edge $-1 $372 -41.28910184026612 $256 41.28910184026612 $251 $373 forward 7 unknown #
coedge $-1 $246 $157 $371 $374 forward $255 $-1 #
coedge $-1 $157 $246 $367 $375 reversed $255 $-1 #
loop $-1 $-1 $253 $351 #
vertex $-1 $158 $376 #
vertex $-1 $158 $377 #
straight-curve $-1 41.28910184026612 0 11.142915402699302 0 1 0 I I #
face $-1 $378 $379 $37 $-1 $380 forward single #
loop $-1 $-1 $268 $159 #
plane-surface $-1 0 -23.172653127296545 0 0 1 0 0 0 1 forward_v I I I I #
coedge $-1 $381 $382 $383 $384 forward $160 $-1 #
coedge $-1 $383 $162 $164 $270 reversed $101 $-1 #
coedge $-1 $162 $383 $385 $386 reversed $101 $-1 #
coedge $-1 $387 $165 $162 $266 forward $272 $-1 #
edge $-1 $274 3.3214577013496509 $388 6.3214577013496509 $265 $389 forward 7 unknown #
coedge $-1 $164 $163 $381 $390 reversed $64 $-1 #
coedge $-1 $391 $392 $163 $269 forward $260 $-1 #
edge $-1 $393 -41.28910184026612 $273 41.28910184026612 $268 $394 forward 7 unknown #
edge $-1 $395 -41.28910184026612 $274 41.28910184026612 $263 $396 forward 7 unknown #
coedge $-1 $165 $387 $391 $397 forward $272 $-1 #
loop $-1 $-1 $265 $378 #
vertex $-1 $269 $398 #
vertex $-1 $166 $399 #
straight-curve $-1 41.28910184026612 -8.676198473389066 8.1429154026993018 0 1 0 I I #
face $-1 $-1 $400 $38 $-1 $401 reversed single #
loop $-1 $-1 $173 $167 #
plane-surface $-1 0 0 11.142915402699302 0 0 1 1 0 0 forward_v I I I I #
coedge $-1 $402 $403 $404 $405 reversed $168 $-1 #
coedge $-1 $406 $170 $172 $286 forward $105 $-1 #
coedge $-1 $170 $406 $402 $407 forward $105 $-1 #
coedge $-1 $404 $173 $170 $283 forward $277 $-1 #
edge $-1 $289 -3.5505995984479615 $408 5.0295942701088716 $282 $409 forward 7 unknown #
coedge $-1 $410 $411 $171 $285 forward $400 $-1 #
edge $-1 $412 -19.67479530875487 $288 -15.359433779579568 $284 $413 forward 7 unknown #
edge $-1 $289 -5.205266480080188 $412 -1.2809303928265426e-014 $172 $414 forward 7 unknown #
coedge $-1 $173 $404 $410 $415 forward $277 $-1 #
vertex $-1 $285 $416 #
vertex $-1 $174 $417 #
straight-curve $-1 -54.87476801613488 -2.8111022626175064 11.142915402699302 1 0 0 I I #
coedge $-1 $291 $291 $-1 $418 reversed $177 $-1 #
edge $-1 $419 0 $419 6.2831853071796004 $178 $420 forward 7 unknown #
vertex $-1 $181 $421 #
ellipse-curve $-1 -39.833727833252802 -1.0950634889061384 8.985234638111649 -0.82903758062907751 0 0.55919289150049634 0.27959644575024817 0 0.41451879031453875 1 I I #
coedge $-1 $295 $295 $-1 $422 reversed $184 $-1 #
edge $-1 $423 0 $423 6.2831853071796004 $185 $424 forward 7 unknown #
vertex $-1 $188 $425 #
ellipse-curve $-1 -39.833727833252802 1.4789946716609101 8.985234638111649 -0.82903758062907751 0 0.55919289150049634 0.27959644575024817 0 0.41451879031453875 1 I I #
coedge $-1 $299 $299 $-1 $426 reversed $191 $-1 #
edge $-1 $427 0 $427 6.2831853071796004 $192 $428 forward 7 unknown #
vertex $-1 $195 $429 #
ellipse-curve $-1 -39.833727833252802 4.0530528322279586 8.985234638111649 -0.82903758062907751 0 0.55919289150049634 0.27959644575024817 0 0.41451879031453875 1 I I #
face $-1 $-1 $315 $42 $-1 $430 forward single #
loop $-1 $-1 $431 $196 #
plane-surface $-1 41.28910184026612 0 0 -1 0 0 0 0 1 forward_v I I I I #
coedge $-1 $432 $433 $434 $435 reversed $197 $-1 #
coedge $-1 $436 $199 $201 $313 forward $124 $-1 #
coedge $-1 $199 $436 $432 $437 forward $124 $-1 #
coedge $-1 $434 $202 $199 $310 forward $315 $-1 #
edge $-1 $317 -4.8256424715991812 $438 2.8364150537607102 $309 $439 forward 7 unknown #
coedge $-1 $440 $441 $200 $312 forward $304 $-1 #
edge $-1 $442 -53.775641603127561 $316 -49.312665347269821 $311 $443 forward 7 unknown #
edge $-1 $317 74.383829222482802 $442 82.578203680532241 $201 $444 forward 7 unknown #
coedge $-1 $202 $434 $440 $445 forward $315 $-1 #
loop $-1 $-1 $434 $303 #
vertex $-1 $312 $446 #
vertex $-1 $203 $447 #
straight-curve $-1 8.5042534986906801 5.8202561805184168 11.142915402699302 -1 0 0 I I #
coedge $-1 $319 $319 $-1 $448 reversed $206 $-1 #
edge $-1 $449 0 $449 6.2831853071796004 $207 $450 forward 7 unknown #
vertex $-1 $210 $451 #
ellipse-curve $-1 37.852911518907916 0.34735794811849274 8.9114272747704426 0.54463904215088732 0 0.83867056331134215 0.41933528165567108 0 -0.27231952107544366 1 I I #
coedge $-1 $323 $323 $-1 $452 reversed $213 $-1 #
edge $-1 $453 0 $453 6.2831853071796004 $214 $454 forward 7 unknown #
vertex $-1 $217 $455 #
ellipse-curve $-1 37.852911518907916 3.6310968875584457 8.9114272747704426 0.54463904215088732 0 0.83867056331134215 0.41933528165567108 0 -0.27231952107544366 1 I I #
face $-1 $-1 $456 $45 $-1 $457 forward single #
loop $-1 $-1 $458 $218 #
plane-surface $-1 17.00850699738136 5.8202561805184168 120.91116149993825 0 -1 0 -0.54463904215088732 0 -0.83867056331134215 forward_v I I I I #
coedge $-1 $224 $459 $332 $460 forward $219 $-1 #
coedge $-1 $335 $221 $461 $462 reversed $138 $-1 #
coedge $-1 $221 $335 $330 $460 reversed $138 $-1 #
coedge $-1 $463 $458 $221 $334 forward $328 $-1 #
edge $-1 $464 74.383829222482802 $465 82.578203680532241 $333 $466 forward 7 unknown #
coedge $-1 $332 $331 $222 $336 forward $138 $-1 #
edge $-1 $467 74.383829222482802 $340 82.578203680532241 $222 $468 forward 7 unknown #
coedge $-1 $461 $469 $223 $338 forward $456 $-1 #
edge $-1 $341 -32.78484834157544 $467 -25.912467698859047 $337 $470 forward 7 unknown #
coedge $-1 $459 $224 $469 $471 reversed $219 $-1 #
vertex $-1 $225 $472 #
vertex $-1 $225 $473 #
straight-curve $-1 41.28910184026612 13.482313705878305 60.455580749969123 0 0 1 I I #
coedge $-1 $343 $343 $-1 $474 reversed $228 $-1 #
edge $-1 $475 0 $475 6.2831853071796004 $229 $476 forward 7 unknown #
vertex $-1 $232 $477 #
ellipse-curve $-1 37.852911518907916 8.0094154734783807 8.9114272747704426 0.54463904215088732 0 0.83867056331134215 0.41933528165567108 0 -0.27231952107544366 1 I I #
coedge $-1 $347 $347 $-1 $478 reversed $235 $-1 #
edge $-1 $479 0 $479 6.2831853071796004 $236 $480 forward 7 unknown #
vertex $-1 $239 $481 #
ellipse-curve $-1 37.852911518907916 11.29315441291833 8.9114272747704426 0.54463904215088732 0 0.83867056331134215 0.41933528165567108 0 -0.27231952107544366 1 I I #
face $-1 $-1 $255 $36 $-1 $482 reversed single #
loop $-1 $-1 $367 $240 #
plane-surface $-1 0 23.172653127296545 0 0 -1 0 0 0 -1 forward_v I I I I #
coedge $-1 $483 $365 $368 $484 forward $241 $-1 #
coedge $-1 $371 $243 $244 $359 reversed $152 $-1 #
coedge $-1 $365 $483 $243 $357 reversed $241 $-1 #
edge $-1 $372 -11.142915402699302 $485 11.142915402699302 $356 $486 forward 7 unknown #
coedge $-1 $245 $244 $483 $487 forward $97 $-1 #
edge $-1 $363 -41.28910184026612 $485 41.28910184026612 $355 $488 forward 7 unknown #
coedge $-1 $368 $367 $245 $361 reversed $352 $-1 #
edge $-1 $489 -41.28910184026612 $362 41.28910184026612 $360 $490 forward 7 unknown #
vertex $-1 $247 $491 #
vertex $-1 $374 $492 #
straight-curve $-1 41.28910184026612 0 -11.142915402699302 0 -1 0 I I #
coedge $-1 $354 $356 $248 $366 reversed $241 $-1 #
edge $-1 $369 -23.172653127296545 $372 23.172653127296545 $365 $493 forward 7 unknown #
coedge $-1 $360 $249 $254 $375 forward $352 $-1 #
coedge $-1 $249 $360 $354 $484 reversed $352 $-1 #
vertex $-1 $250 $494 #
straight-curve $-1 0 23.172653127296545 11.142915402699302 -1 0 0 I I #
coedge $-1 $251 $355 $253 $374 reversed $152 $-1 #
vertex $-1 $366 $495 #
straight-curve $-1 0 -23.172653127296545 11.142915402699302 1 0 0 I I #
edge $-1 $256 -11.142915402699302 $363 11.142915402699302 $253 $496 forward 7 unknown #
edge $-1 $257 -11.142915402699302 $362 11.142915402699302 $254 $497 forward 7 unknown #
point $-1 41.28910184026612 -23.172653127296545 11.142915402699302 #
point $-1 41.28910184026612 23.172653127296545 11.142915402699302 #
face $-1 $-1 $272 $37 $-1 $498 reversed single #
loop $-1 $-1 $385 $259 #
plane-surface $-1 0 0 11.142915402699302 0 0 1 1 0 0 forward_v I I I I #
coedge $-1 $499 $262 $267 $390 forward $160 $-1 #
coedge $-1 $262 $499 $500 $501 reversed $160 $-1 #
coedge $-1 $264 $263 $262 $384 reversed $101 $-1 #
edge $-1 $502 -6.3214577013496509 $395 -3.3214577013496509 $262 $503 forward 7 unknown #
coedge $-1 $500 $504 $264 $386 forward $379 $-1 #
edge $-1 $388 -41.28910184026612 $502 41.28910184026612 $385 $505 forward 7 unknown #
coedge $-1 $271 $265 $504 $506 reversed $272 $-1 #
vertex $-1 $266 $507 #
straight-curve $-1 41.28910184026612 -11.532140766259719 4.8214577013496509 0 0 1 I I #
edge $-1 $395 2.8559422928706528 $393 14.496454653907479 $381 $508 forward 7 unknown #
coedge $-1 $509 $268 $271 $397 reversed $260 $-1 #
coedge $-1 $268 $509 $499 $510 forward $260 $-1 #
vertex $-1 $269 $511 #
straight-curve $-1 0 -23.172653127296545 8.1429154026993018 1 0 0 I I #
vertex $-1 $390 $512 #
straight-curve $-1 0 -11.532140766259719 8.1429154026993018 1 0 0 I I #
edge $-1 $513 -11.142915402699302 $273 -8.1429154026993018 $271 $514 forward 7 unknown #
point $-1 41.28910184026612 -23.172653127296545 8.1429154026993018 #
point $-1 41.28910184026612 -11.532140766259719 8.1429154026993018 #
loop $-1 $-1 $284 $276 #
plane-surface $-1 -41.28910184026612 0 0 1 0 0 0 0 -1 forward_v I I I I #
coedge $-1 $403 $279 $281 $407 reversed $168 $-1 #
coedge $-1 $279 $402 $515 $516 reversed $168 $-1 #
coedge $-1 $287 $282 $279 $405 forward $277 $-1 #
edge $-1 $408 -16.496414189895404 $517 -13.585666175868759 $404 $518 forward 7 unknown #
coedge $-1 $281 $280 $411 $519 reversed $105 $-1 #
edge $-1 $520 1.2809303928265426e-014 $408 5.205266480080188 $402 $521 forward 7 unknown #
vertex $-1 $283 $522 #
straight-curve $-1 -38.378353826239476 0.73949733583045507 11.142915402699302 0 1 0 I I #
coedge $-1 $515 $284 $287 $415 reversed $400 $-1 #
coedge $-1 $284 $515 $406 $519 forward $400 $-1 #
vertex $-1 $285 $523 #
straight-curve $-1 -41.28910184026612 -2.8111022626175064 26.50234918227887 0 0 1 I I #
straight-curve $-1 -41.289101840266127 -2.8111022626175064 6.8275538735239891 -0.55919289150049634 0 -0.82903758062907751 I I #
edge $-1 $517 -5.7690916059393267 $288 2.8111022626175064 $410 $524 forward 7 unknown #
point $-1 -41.28910184026612 -2.8111022626175064 11.142915402699302 #
point $-1 -38.378353826239476 -2.8111022626175064 11.142915402699302 #
edge $-1 $525 1 $525 0 $291 $-1 forward 7 unknown #
vertex $-1 $292 $526 #
ellipse-curve $-1 -38.629969921561766 -1.0950634889061384 8.1732896997478992 -0.82903758062907751 0 0.55919289150049634 0.27959644575024817 0 0.41451879031453875 1 I I #
point $-1 -39.554131387502544 -1.0950634889061384 9.3997534284261857 #
edge $-1 $527 1 $527 0 $295 $-1 forward 7 unknown #
vertex $-1 $296 $528 #
ellipse-curve $-1 -38.629969921561766 1.4789946716609101 8.1732896997478992 -0.82903758062907751 0 0.55919289150049634 0.27959644575024817 0 0.41451879031453875 1 I I #
point $-1 -39.554131387502544 1.4789946716609101 9.3997534284261857 #
edge $-1 $529 1 $529 0 $299 $-1 forward 7 unknown #
vertex $-1 $300 $530 #
ellipse-curve $-1 -38.629969921561766 4.0530528322279586 8.1732896997478992 -0.82903758062907751 0 0.55919289150049634 0.27959644575024817 0 0.41451879031453875 1 I I #
point $-1 -39.554131387502544 4.0530528322279586 9.3997534284261857 #
plane-surface $-1 0 0 11.142915402699302 0 0 1 1 0 0 forward_v I I I I #
coedge $-1 $441 $440 $433 $531 forward $304 $-1 #
coedge $-1 $433 $306 $308 $437 reversed $197 $-1 #
coedge $-1 $306 $432 $431 $531 reversed $197 $-1 #
coedge $-1 $314 $309 $306 $435 forward $315 $-1 #
edge $-1 $438 25.912467698859047 $532 32.78484834157544 $434 $533 forward 7 unknown #
coedge $-1 $308 $307 $441 $534 reversed $124 $-1 #
edge $-1 $535 -82.578203680532241 $438 -74.383829222482802 $432 $536 forward 7 unknown #
vertex $-1 $310 $537 #
straight-curve $-1 34.416721197549741 0.99461370891923551 11.142915402699298 0 -1 0 I I #
coedge $-1 $431 $311 $314 $445 reversed $304 $-1 #
coedge $-1 $311 $431 $436 $534 forward $304 $-1 #
vertex $-1 $312 $538 #
straight-curve $-1 41.28910184026612 5.8202561805184168 60.455580749969123 0 0 1 I I #
straight-curve $-1 -27.966806757724598 5.8202561805184168 51.65525290194752 0.83867056331134215 0 -0.54463904215088732 I I #
edge $-1 $532 -1.8418013448414747 $316 5.8202561805184168 $440 $539 forward 7 unknown #
point $-1 41.28910184026612 5.8202561805184168 11.142915402699302 #
point $-1 34.416721197549727 5.8202561805184168 11.142915402699302 #
edge $-1 $540 1 $540 0 $319 $-1 forward 7 unknown #
vertex $-1 $320 $541 #
ellipse-curve $-1 37.308272476757018 0.34735794811849274 8.072756711459089 0.54463904215088732 0 0.83867056331134215 0.41933528165567108 0 -0.27231952107544366 1 I I #
point $-1 38.272246800563579 0.34735794811849274 8.6391077536949883 #
edge $-1 $542 1 $542 0 $323 $-1 forward 7 unknown #
vertex $-1 $324 $543 #
ellipse-curve $-1 37.308272476757018 3.6310968875584457 8.072756711459089 0.54463904215088732 0 0.83867056331134215 0.41933528165567108 0 -0.27231952107544366 1 I I #
point $-1 38.272246800563579 3.6310968875584457 8.6391077536949883 #
loop $-1 $-1 $461 $327 #
plane-surface $-1 0 0 11.142915402699302 0 0 1 1 0 0 forward_v I I I I #
coedge $-1 $333 $463 $544 $545 reversed $328 $-1 #
coedge $-1 $330 $339 $463 $546 forward $219 $-1 #
edge $-1 $465 4.8256424715991812 $340 12.487699996959069 $330 $547 forward 7 unknown #
coedge $-1 $544 $337 $331 $462 forward $456 $-1 #
edge $-1 $467 -12.487699996959069 $464 -4.8256424715991812 $461 $548 forward 7 unknown #
coedge $-1 $458 $333 $459 $546 reversed $328 $-1 #
vertex $-1 $462 $549 #
vertex $-1 $460 $550 #
straight-curve $-1 -27.966806757724598 5.8202561805184168 51.65525290194752 0.83867056331134215 0 -0.54463904215088732 I I #
vertex $-1 $338 $551 #
straight-curve $-1 -27.966806757724598 13.482313705878305 51.65525290194752 0.83867056331134215 0 -0.54463904215088732 I I #
coedge $-1 $337 $544 $339 $471 forward $456 $-1 #
straight-curve $-1 8.5042534986906801 13.482313705878305 11.142915402699302 -1 0 0 I I #
edge $-1 $552 5.8202561805184168 $341 13.482313705878305 $339 $553 forward 7 unknown #
point $-1 41.289101840266127 13.482313705878305 6.6799391468415621 #
point $-1 41.28910184026612 13.482313705878305 11.142915402699302 #
edge $-1 $554 1 $554 0 $343 $-1 forward 7 unknown #
vertex $-1 $344 $555 #
ellipse-curve $-1 37.308272476757018 8.0094154734783807 8.072756711459089 0.54463904215088732 0 0.83867056331134215 0.41933528165567108 0 -0.27231952107544366 1 I I #
point $-1 38.272246800563579 8.0094154734783807 8.6391077536949883 #
edge $-1 $556 1 $556 0 $347 $-1 forward 7 unknown #
vertex $-1 $348 $557 #
ellipse-curve $-1 37.308272476757018 11.29315441291833 8.072756711459089 0.54463904215088732 0 0.83867056331134215 0.41933528165567108 0 -0.27231952107544366 1 I I #
point $-1 38.272246800563579 11.29315441291833 8.6391077536949883 #
plane-surface $-1 41.28910184026612 0 0 -1 0 0 0 0 1 forward_v I I I I #
coedge $-1 $356 $354 $358 $487 reversed $241 $-1 #
edge $-1 $369 -11.142915402699302 $489 11.142915402699302 $368 $558 forward 7 unknown #
vertex $-1 $487 $559 #
straight-curve $-1 -41.28910184026612 -23.172653127296545 0 0 0 -1 I I #
edge $-1 $485 -23.172653127296545 $489 23.172653127296545 $483 $560 forward 7 unknown #
straight-curve $-1 0 -23.172653127296545 -11.142915402699302 -1 0 0 I I #
vertex $-1 $361 $561 #
straight-curve $-1 0 23.172653127296545 -11.142915402699302 1 0 0 I I #
point $-1 41.28910184026612 23.172653127296545 -11.142915402699302 #
point $-1 41.28910184026612 -23.172653127296545 -11.142915402699302 #
straight-curve $-1 -41.28910184026612 0 11.142915402699302 0 -1 0 I I #
point $-1 -41.28910184026612 23.172653127296545 11.142915402699302 #
point $-1 -41.28910184026612 -23.172653127296545 11.142915402699302 #
straight-curve $-1 41.28910184026612 -23.172653127296545 0 0 0 -1 I I #
straight-curve $-1 41.28910184026612 23.172653127296545 0 0 0 -1 I I #
plane-surface $-1 41.28910184026612 0 0 -1 0 0 0 0 1 forward_v I I I I #
coedge $-1 $382 $381 $392 $510 reversed $160 $-1 #
coedge $-1 $562 $385 $382 $501 forward $379 $-1 #
edge $-1 $502 11.532140766259719 $563 23.172653127296545 $382 $564 forward 7 unknown #
vertex $-1 $501 $565 #
straight-curve $-1 -41.28910184026612 -11.532140766259719 4.8214577013496509 0 0 -1 I I #
coedge $-1 $385 $562 $387 $506 forward $379 $-1 #
straight-curve $-1 0 -11.532140766259719 11.142915402699302 -1 0 0 I I #
edge $-1 $513 -23.172653127296545 $388 -11.532140766259719 $387 $566 forward 7 unknown #
point $-1 41.28910184026612 -11.532140766259719 11.142915402699302 #
straight-curve $-1 -41.28910184026612 -8.676198473389066 8.1429154026993018 0 -1 0 I I #
coedge $-1 $392 $391 $562 $567 reversed $260 $-1 #
edge $-1 $563 -11.142915402699302 $393 -8.1429154026993018 $499 $568 forward 7 unknown #
point $-1 -41.28910184026612 -23.172653127296545 8.1429154026993018 #
point $-1 -41.28910184026612 -11.532140766259719 8.1429154026993018 #
vertex $-1 $506 $569 #
straight-curve $-1 41.28910184026612 -23.172653127296545 0 0 0 -1 I I #
coedge $-1 $411 $410 $403 $516 forward $400 $-1 #
edge $-1 $517 15.359433779579568 $520 19.67479530875487 $515 $570 forward 7 unknown #
vertex $-1 $415 $571 #
straight-curve $-1 -54.87476801613488 5.7690916059393267 11.142915402699302 -1 0 0 I I #
edge $-1 $520 -5.0295942701088716 $412 3.5505995984479615 $411 $572 forward 7 unknown #
vertex $-1 $519 $573 #
straight-curve $-1 -41.289101840266127 5.7690916059393267 6.8275538735239891 0.55919289150049634 0 0.82903758062907751 I I #
point $-1 -38.378353826239476 5.7690916059393267 11.142915402699302 #
point $-1 -41.28910184026612 -2.8111022626175064 6.8275538735239998 #
straight-curve $-1 -41.28910184026612 0 11.142915402699302 0 -1 0 I I #
vertex $-1 $418 $574 #
point $-1 -38.350373475811516 -1.0950634889061384 8.5878084900624394 #
vertex $-1 $422 $575 #
point $-1 -38.350373475811516 1.4789946716609101 8.5878084900624394 #
vertex $-1 $426 $576 #
point $-1 -38.350373475811516 4.0530528322279586 8.5878084900624394 #
edge $-1 $532 49.312665347269821 $535 53.775641603127561 $431 $577 forward 7 unknown #
vertex $-1 $445 $578 #
straight-curve $-1 8.5042534986906801 -1.8418013448414747 11.142915402699302 1 0 0 I I #
edge $-1 $535 -2.8364150537607102 $442 4.8256424715991812 $441 $579 forward 7 unknown #
vertex $-1 $534 $580 #
straight-curve $-1 -27.966806757724598 -1.8418013448414747 51.65525290194752 -0.83867056331134215 0 0.54463904215088732 I I #
point $-1 34.416721197549727 -1.8418013448414747 11.142915402699302 #
point $-1 41.289101840266127 5.8202561805184168 6.6799391468415621 #
straight-curve $-1 41.28910184026612 0 11.142915402699302 0 1 0 I I #
vertex $-1 $448 $581 #
point $-1 37.727607758412688 0.34735794811849274 7.8004371903836462 #
vertex $-1 $452 $582 #
point $-1 37.727607758412688 3.6310968875584457 7.8004371903836462 #
coedge $-1 $469 $461 $458 $545 forward $456 $-1 #
edge $-1 $464 25.912467698859047 $552 32.78484834157544 $544 $583 forward 7 unknown #
edge $-1 $552 49.312665347269821 $465 53.775641603127561 $459 $584 forward 7 unknown #
straight-curve $-1 41.28910184026612 0.99461370891923551 6.6799391468415585 0 1 0 I I #
straight-curve $-1 34.416721197549741 0.99461370891923551 11.142915402699298 0 -1 0 I I #
point $-1 34.416721197549727 5.8202561805184168 11.142915402699302 #
point $-1 41.289101840266127 5.8202561805184168 6.6799391468415621 #
point $-1 34.416721197549727 13.482313705878305 11.142915402699302 #
vertex $-1 $471 $585 #
straight-curve $-1 41.28910184026612 0 11.142915402699302 0 1 0 I I #
vertex $-1 $474 $586 #
point $-1 37.727607758412688 8.0094154734783807 7.8004371903836462 #
vertex $-1 $478 $587 #
point $-1 37.727607758412688 11.29315441291833 7.8004371903836462 #
straight-curve $-1 -41.28910184026612 23.172653127296545 0 0 0 -1 I I #
point $-1 -41.28910184026612 -23.172653127296545 -11.142915402699302 #
straight-curve $-1 -41.28910184026612 0 -11.142915402699302 0 1 0 I I #
point $-1 -41.28910184026612 23.172653127296545 -11.142915402699302 #
coedge $-1 $504 $500 $509 $567 forward $379 $-1 #
vertex $-1 $501 $588 #
straight-curve $-1 -41.28910184026612 0 11.142915402699302 0 -1 0 I I #
point $-1 -41.28910184026612 -11.532140766259719 11.142915402699302 #
straight-curve $-1 41.28910184026612 0 11.142915402699302 0 1 0 I I #
edge $-1 $563 -41.28910184026612 $513 41.28910184026612 $509 $589 forward 7 unknown #
straight-curve $-1 -41.28910184026612 -23.172653127296545 0 0 0 -1 I I #
point $-1 41.28910184026612 -23.172653127296545 11.142915402699302 #
straight-curve $-1 -41.28910184026612 5.7690916059393267 26.50234918227887 0 0 -1 I I #
point $-1 -41.28910184026612 5.7690916059393267 11.142915402699302 #
straight-curve $-1 -41.28910184026612 0.73949733583045507 6.8275538735240007 0 -1 0 I I #
point $-1 -41.28910184026612 5.7690916059393267 6.8275538735239998 #
point $-1 -38.215451131247221 -1.0950634889061384 7.8936932539976512 #
point $-1 -38.215451131247221 1.4789946716609101 7.8936932539976512 #
point $-1 -38.215451131247221 4.0530528322279586 7.8936932539976512 #
straight-curve $-1 41.28910184026612 -1.8418013448414747 60.455580749969123 0 0 -1 I I #
point $-1 41.28910184026612 -1.8418013448414747 11.142915402699302 #
straight-curve $-1 41.28910184026612 0.99461370891923551 6.6799391468415585 0 1 0 I I #
point $-1 41.289101840266127 -1.8418013448414747 6.6799391468415621 #
point $-1 37.035952955681573 0.34735794811849274 7.6534214298034184 #
point $-1 37.035952955681573 3.6310968875584457 7.6534214298034184 #
straight-curve $-1 8.5042534986906801 5.8202561805184168 11.142915402699302 1 0 0 I I #
straight-curve $-1 41.28910184026612 5.8202561805184168 60.455580749969123 0 0 -1 I I #
point $-1 41.28910184026612 5.8202561805184168 11.142915402699302 #
point $-1 37.035952955681573 8.0094154734783807 7.6534214298034184 #
point $-1 37.035952955681573 11.29315441291833 7.6534214298034184 #
point $-1 -41.28910184026612 -23.172653127296545 11.142915402699302 #
straight-curve $-1 0 -23.172653127296545 11.142915402699302 1 0 0 I I #
End-of-ACIS-data 