500 0 8 0           
7 Unknown 11 ACIS 5.0 NT 24 Fri Mar 26 20:05:14 1999 
-1 9.9999999999999995e-007 1e-010 
body $-1 $8 $-1 $9 #
body $-1 $10 $-1 $11 #
body $-1 $12 $-1 $13 #
body $-1 $14 $-1 $15 #
body $-1 $16 $-1 $17 #
body $-1 $18 $-1 $19 #
body $-1 $20 $-1 $21 #
body $-1 $22 $-1 $23 #
lump $-1 $-1 $24 $0 #
transform $-1 1 0 0 0 1 0 0 0 1 61.455732902005067 28.831510619305483 6.1543356998098782 1 rotate no_reflect no_shear #
lump $-1 $-1 $25 $1 #
transform $-1 1 0 0 0 1 0 0 0 1 61.455732902005067 28.831510619305483 6.1543356998098782 1 rotate no_reflect no_shear #
lump $-1 $-1 $26 $2 #
transform $-1 1 0 0 0 1 0 0 0 1 61.455732902005067 28.831510619305483 6.1543356998098782 1 rotate no_reflect no_shear #
lump $-1 $-1 $27 $3 #
transform $-1 1 0 0 0 1 0 0 0 1 61.455732902005067 28.831510619305483 6.1543356998098782 1 rotate no_reflect no_shear #
lump $-1 $-1 $28 $4 #
transform $-1 1 0 0 0 1 0 0 0 1 61.455732902005067 28.831510619305483 6.1543356998098782 1 rotate no_reflect no_shear #
lump $-1 $-1 $29 $5 #
transform $-1 1 0 0 0 1 0 0 0 1 61.455732902005067 28.831510619305483 6.1543356998098782 1 rotate no_reflect no_shear #
lump $-1 $-1 $30 $6 #
transform $-1 1 0 0 0 1 0 0 0 1 61.455732902005067 28.831510619305483 6.1543356998098782 1 rotate no_reflect no_shear #
lump $-1 $-1 $31 $7 #
transform $-1 1 0 0 0 1 0 0 0 1 61.455732902005067 28.831510619305483 6.1543356998098782 1 rotate no_reflect no_shear #
shell $-1 $-1 $-1 $32 $-1 $8 #
shell $-1 $-1 $-1 $33 $-1 $10 #
shell $-1 $-1 $-1 $34 $-1 $12 #
shell $-1 $-1 $-1 $35 $-1 $14 #
shell $-1 $-1 $-1 $36 $-1 $16 #
shell $-1 $-1 $-1 $37 $-1 $18 #
shell $-1 $-1 $-1 $38 $-1 $20 #
shell $-1 $-1 $-1 $39 $-1 $22 #
face $-1 $40 $41 $24 $-1 $42 forward single #
face $-1 $43 $44 $25 $-1 $45 forward single #
face $-1 $46 $47 $26 $-1 $48 reversed single #
face $-1 $49 $50 $27 $-1 $51 forward single #
face $-1 $52 $53 $28 $-1 $54 reversed single #
face $-1 $55 $56 $29 $-1 $57 forward single #
face $-1 $58 $59 $30 $-1 $60 reversed single #
face $-1 $61 $62 $31 $-1 $63 forward single #
face $-1 $64 $65 $24 $-1 $66 reversed single #
loop $-1 $-1 $67 $32 #
plane-surface $-1 0 0 6.1543356998098782 0 0 1 1 0 0 forward_v I I I I #
face $-1 $68 $69 $25 $-1 $70 reversed single #
loop $-1 $-1 $71 $33 #
plane-surface $-1 -61.455732902005067 0 0 1 0 0 0 0 -1 forward_v I I I I #
face $-1 $72 $73 $26 $-1 $74 reversed single #
loop $-1 $-1 $75 $34 #
plane-surface $-1 -56.485230169179886 61.369619588007758 132.02786083987544 1 0 0 0 -0.62932039886446345 -0.77714595512881146 forward_v I I I I #
face $-1 $76 $77 $27 $-1 $78 forward single #
loop $-1 $79 $80 $35 #
cone-surface $-1 -49.153108253100989 23.096238928023464 0.62975281282147222 0 -0.62932039886446345 -0.77714595512881146 2 0 0 1 I I 0 1 2 forward I I I I #
face $-1 $81 $82 $28 $-1 $83 reversed single #
loop $-1 $-1 $84 $36 #
plane-surface $-1 2.4852513664125837 -126.99297281316791 74.632850383579949 -1 0 0 0 -0.79863551827123203 0.60181501223851219 forward_v I I I I #
face $-1 $85 $86 $29 $-1 $87 forward single #
loop $-1 $88 $89 $37 #
cone-surface $-1 -11.046896716669487 -25.619807688240368 2.5475614568322005 0 0.79863551827123203 -0.60181501223851219 1 0 0 1 I I 0 1 1 forward I I I I #
face $-1 $90 $91 $30 $-1 $92 reversed single #
loop $-1 $-1 $93 $38 #
plane-surface $-1 47.923584818922976 -28.831510619305462 0.66288508648611355 0 -0.79863551827123203 0.60181501223851219 1 0 0 forward_v I I I I #
face $-1 $94 $95 $31 $-1 $96 forward single #
loop $-1 $97 $98 $39 #
cone-surface $-1 47.923584818922976 -25.619807688240368 2.5475614568322005 0 0.79863551827123203 -0.60181501223851219 1 0 0 1 I I 0 1 1 forward I I I I #
face $-1 $99 $100 $24 $-1 $101 reversed single #
loop $-1 $-1 $102 $40 #
plane-surface $-1 0 0 -6.1543356998098782 0 0 1 1 0 0 forward_v I I I I #
coedge $-1 $103 $104 $105 $106 forward $41 $-1 #
face $-1 $107 $108 $25 $-1 $109 reversed single #
loop $-1 $-1 $110 $43 #
plane-surface $-1 0 28.831510619305483 0 0 -1 0 0 0 -1 forward_v I I I I #
coedge $-1 $111 $112 $113 $114 forward $44 $-1 #
face $-1 $115 $116 $26 $-1 $117 reversed single #
loop $-1 $-1 $118 $46 #
plane-surface $-1 -49.153108253100989 -15.98107309678776 36.507712351335741 0 0.62932039886446345 0.77714595512881146 1 0 0 forward_v I I I I #
coedge $-1 $119 $120 $121 $122 reversed $47 $-1 #
face $-1 $-1 $123 $27 $-1 $124 forward single #
loop $-1 $125 $126 $49 #
cone-surface $-1 -49.153108253100989 20.396289822155751 -2.7044065922523268 0 -0.62932039886446345 -0.77714595512881146 1 0 0 1 I I -0.70710678118654746 0.70710678118654746 1 forward I I I I #
loop $-1 $-1 $127 $35 #
coedge $-1 $80 $80 $128 $129 reversed $50 $-1 #
face $-1 $130 $131 $28 $-1 $132 reversed single #
loop $-1 $-1 $133 $52 #
plane-surface $-1 -11.046896716669487 -28.831510619305462 0.66288508648611355 0 -0.79863551827123203 0.60181501223851219 1 0 0 forward_v I I I I #
coedge $-1 $134 $135 $136 $137 reversed $53 $-1 #
face $-1 $-1 $138 $29 $-1 $139 forward single #
loop $-1 $140 $141 $55 #
cone-surface $-1 -11.046896716669487 -24.07783936451743 1.3856050143971448 0 0.79863551827123203 -0.60181501223851219 0.5 0 0 1 I I -0.70710678118654746 0.70710678118654746 0.5 forward I I I I #
loop $-1 $-1 $142 $37 #
coedge $-1 $89 $89 $143 $144 reversed $56 $-1 #
face $-1 $145 $146 $30 $-1 $147 reversed single #
loop $-1 $-1 $148 $58 #
plane-surface $-1 34.391436735840905 -126.99297281316791 74.632850383579949 1 0 0 0 0.79863551827123203 -0.60181501223851219 forward_v I I I I #
coedge $-1 $149 $150 $151 $152 reversed $59 $-1 #
face $-1 $-1 $153 $31 $-1 $154 forward single #
loop $-1 $155 $156 $61 #
cone-surface $-1 47.923584818922976 -24.07783936451743 1.3856050143971448 0 0.79863551827123203 -0.60181501223851219 0.5 0 0 1 I I -0.70710678118654746 0.70710678118654746 0.5 forward I I I I #
loop $-1 $-1 $157 $39 #
coedge $-1 $98 $98 $158 $159 reversed $62 $-1 #
face $-1 $160 $161 $24 $-1 $162 reversed single #
loop $-1 $-1 $163 $64 #
plane-surface $-1 0 -28.831510619305483 0 0 1 0 0 0 1 forward_v I I I I #
coedge $-1 $164 $165 $166 $167 forward $65 $-1 #
coedge $-1 $168 $67 $169 $170 forward $41 $-1 #
coedge $-1 $67 $168 $171 $172 forward $41 $-1 #
coedge $-1 $173 $174 $67 $106 reversed $175 $-1 #
edge $-1 $176 -28.831510619305483 $177 28.831510619305483 $105 $178 forward 7 unknown #
face $-1 $179 $180 $25 $-1 $181 reversed single #
loop $-1 $-1 $113 $68 #
plane-surface $-1 -63.940984268417658 0 3.1543356998098782 0 0 1 1 0 0 forward_v I I I I #
coedge $-1 $182 $183 $111 $184 forward $69 $-1 #
coedge $-1 $185 $71 $110 $184 reversed $44 $-1 #
coedge $-1 $71 $185 $186 $187 reversed $44 $-1 #
coedge $-1 $188 $189 $71 $114 reversed $108 $-1 #
edge $-1 $190 -28.831510619305483 $191 28.831510619305483 $113 $192 forward 7 unknown #
face $-1 $193 $194 $26 $-1 $195 forward single #
loop $-1 $-1 $196 $72 #
plane-surface $-1 -41.820986337022092 61.369619588007758 132.02786083987544 -1 0 0 0 0.62932039886446345 0.77714595512881146 forward_v I I I I #
coedge $-1 $197 $198 $199 $200 reversed $73 $-1 #
coedge $-1 $120 $75 $201 $202 reversed $47 $-1 #
coedge $-1 $75 $119 $197 $203 reversed $47 $-1 #
coedge $-1 $199 $204 $75 $122 forward $194 $-1 #
edge $-1 $205 1.853299174698396 $206 9.1825851432559098 $121 $207 forward 7 unknown #
loop $-1 $-1 $128 $76 #
plane-surface $-1 -49.153108253100989 -15.98107309678776 36.507712351335741 0 0.62932039886446345 0.77714595512881146 1 0 0 forward_v I I I I #
loop $-1 $-1 $208 $49 #
coedge $-1 $126 $126 $127 $209 reversed $77 $-1 #
coedge $-1 $127 $127 $126 $209 forward $79 $-1 #
coedge $-1 $128 $128 $80 $129 forward $123 $-1 #
edge $-1 $210 6.0959917964626573e-016 $210 6.2831853071796013 $128 $211 forward 7 unknown #
face $-1 $212 $213 $28 $-1 $214 reversed single #
loop $-1 $-1 $215 $81 #
plane-surface $-1 -24.579044799751557 -126.99297281316791 74.632850383579949 1 0 0 0 0.79863551827123203 -0.60181501223851219 forward_v I I I I #
coedge $-1 $216 $217 $218 $219 reversed $82 $-1 #
coedge $-1 $135 $84 $220 $221 reversed $53 $-1 #
coedge $-1 $84 $134 $216 $222 reversed $53 $-1 #
coedge $-1 $218 $223 $84 $137 forward $224 $-1 #
edge $-1 $225 34.664975787278472 $226 38.803080520234083 $136 $227 forward 7 unknown #
loop $-1 $-1 $143 $85 #
plane-surface $-1 -11.046896716669487 -28.831510619305462 0.66288508648611355 0 -0.79863551827123203 0.60181501223851219 1 0 0 forward_v I I I I #
loop $-1 $-1 $228 $55 #
coedge $-1 $141 $141 $142 $229 reversed $86 $-1 #
coedge $-1 $142 $142 $141 $229 forward $88 $-1 #
coedge $-1 $143 $143 $89 $144 forward $138 $-1 #
edge $-1 $230 -7.5975047495279938e-016 $230 6.2831853071795996 $143 $231 forward 7 unknown #
face $-1 $232 $233 $30 $-1 $234 forward single #
loop $-1 $-1 $235 $90 #
plane-surface $-1 0 -28.831510619305483 0 0 1 0 0 0 1 forward_v I I I I #
coedge $-1 $236 $237 $238 $239 reversed $91 $-1 #
coedge $-1 $240 $93 $241 $242 reversed $59 $-1 #
coedge $-1 $93 $240 $236 $243 forward $59 $-1 #
coedge $-1 $238 $244 $93 $152 forward $233 $-1 #
edge $-1 $245 -37.493940492543558 $246 -10.429644326379417 $151 $247 forward 7 unknown #
loop $-1 $-1 $158 $94 #
plane-surface $-1 47.923584818922976 -28.831510619305462 0.66288508648611355 0 -0.79863551827123203 0.60181501223851219 1 0 0 forward_v I I I I #
loop $-1 $-1 $248 $61 #
coedge $-1 $156 $156 $157 $249 reversed $95 $-1 #
coedge $-1 $157 $157 $156 $249 forward $97 $-1 #
coedge $-1 $158 $158 $98 $159 forward $153 $-1 #
edge $-1 $250 -7.5975047495279938e-016 $250 6.2831853071795996 $158 $251 forward 7 unknown #
face $-1 $252 $253 $24 $-1 $254 reversed single #
loop $-1 $-1 $255 $99 #
plane-surface $-1 -61.455732902005067 0 0 1 0 0 0 0 -1 forward_v I I I I #
coedge $-1 $256 $171 $257 $258 forward $100 $-1 #
coedge $-1 $259 $102 $256 $260 forward $65 $-1 #
coedge $-1 $102 $259 $261 $262 forward $65 $-1 #
coedge $-1 $174 $173 $102 $167 reversed $175 $-1 #
edge $-1 $263 -28.831510619305483 $264 28.831510619305483 $166 $265 forward 7 unknown #
coedge $-1 $104 $103 $266 $267 forward $41 $-1 #
coedge $-1 $268 $269 $103 $170 reversed $253 $-1 #
edge $-1 $177 -61.455732902005067 $270 61.455732902005067 $169 $271 forward 7 unknown #
coedge $-1 $163 $272 $104 $172 reversed $100 $-1 #
edge $-1 $273 -61.455732902005067 $176 61.455732902005067 $171 $274 forward 7 unknown #
coedge $-1 $166 $105 $272 $275 forward $175 $-1 #
coedge $-1 $105 $166 $268 $276 reversed $175 $-1 #
loop $-1 $-1 $173 $252 #
vertex $-1 $106 $277 #
vertex $-1 $106 $278 #
straight-curve $-1 61.455732902005067 0 6.1543356998098782 0 1 0 I I #
face $-1 $279 $280 $25 $-1 $281 forward single #
loop $-1 $-1 $282 $107 #
plane-surface $-1 -66.426235634830249 0 4.6543356998098782 1 0 0 0 0 -1 forward_v I I I I #
coedge $-1 $283 $110 $189 $284 reversed $69 $-1 #
coedge $-1 $110 $283 $285 $286 reversed $69 $-1 #
edge $-1 $287 -6.1543356998098782 $191 -3.1543356998098782 $110 $288 forward 7 unknown #
coedge $-1 $112 $111 $289 $290 reversed $44 $-1 #
coedge $-1 $291 $292 $112 $187 forward $293 $-1 #
edge $-1 $190 3.1543356998098782 $294 6.1543356998098782 $186 $295 forward 7 unknown #
coedge $-1 $296 $113 $292 $297 forward $108 $-1 #
coedge $-1 $113 $296 $182 $284 forward $108 $-1 #
vertex $-1 $187 $298 #
vertex $-1 $184 $299 #
straight-curve $-1 -61.455732902005067 0 3.1543356998098782 0 1 0 I I #
face $-1 $-1 $300 $26 $-1 $301 reversed single #
loop $-1 $-1 $121 $115 #
plane-surface $-1 0 0 6.1543356998098782 0 0 1 1 0 0 forward_v I I I I #
coedge $-1 $302 $303 $304 $305 reversed $116 $-1 #
coedge $-1 $306 $118 $120 $203 forward $73 $-1 #
coedge $-1 $118 $306 $302 $307 forward $73 $-1 #
coedge $-1 $304 $121 $118 $200 forward $194 $-1 #
edge $-1 $206 -31.908676042629391 $308 -17.244432210471597 $199 $309 forward 7 unknown #
coedge $-1 $310 $311 $119 $202 forward $300 $-1 #
edge $-1 $312 -65.794733594214648 $205 -59.859594720127845 $201 $313 forward 7 unknown #
edge $-1 $206 48.231992330607831 $312 57.663021238610952 $120 $314 forward 7 unknown #
coedge $-1 $121 $304 $310 $315 forward $194 $-1 #
vertex $-1 $202 $316 #
vertex $-1 $122 $317 #
straight-curve $-1 -56.485230169179886 30.684809794003879 6.1543356998098773 0 -1 0 I I #
coedge $-1 $208 $208 $-1 $318 reversed $125 $-1 #
edge $-1 $319 0 $319 6.2831853071796004 $126 $320 forward 7 unknown #
vertex $-1 $129 $321 #
ellipse-curve $-1 -49.153108253100989 25.166867635026726 3.1867662627664757 0 0.62932039886446345 0.77714595512881146 2 0 0 1 I I #
face $-1 $-1 $224 $28 $-1 $322 forward single #
loop $-1 $-1 $323 $130 #
plane-surface $-1 0 -28.831510619305483 0 0 1 0 0 0 1 forward_v I I I I #
coedge $-1 $324 $325 $326 $327 reversed $131 $-1 #
coedge $-1 $328 $133 $135 $222 forward $82 $-1 #
coedge $-1 $133 $328 $324 $329 forward $82 $-1 #
coedge $-1 $326 $136 $133 $219 forward $224 $-1 #
edge $-1 $226 -8.0086997247473271 $330 19.055596441416814 $218 $331 forward 7 unknown #
coedge $-1 $332 $333 $134 $221 forward $213 $-1 #
edge $-1 $334 -36.65354010530389 $225 -31.162089491980097 $220 $335 forward 7 unknown #
edge $-1 $226 -6.876041057140613 $334 3.543837884356177e-014 $135 $336 forward 7 unknown #
coedge $-1 $136 $326 $332 $337 forward $224 $-1 #
loop $-1 $-1 $326 $212 #
vertex $-1 $221 $338 #
vertex $-1 $137 $339 #
straight-curve $-1 2.4852513664125837 -63.496486406583955 6.1543356998098773 0 1 0 I I #
coedge $-1 $228 $228 $-1 $340 reversed $140 $-1 #
edge $-1 $341 0 $341 6.2831853071796004 $141 $342 forward 7 unknown #
vertex $-1 $144 $343 #
ellipse-curve $-1 -11.046896716669487 -26.76245825282767 3.4086103931479874 0 -0.79863551827123203 0.60181501223851219 1 0 0 1 I I #
face $-1 $-1 $344 $30 $-1 $345 reversed single #
loop $-1 $-1 $238 $145 #
plane-surface $-1 0 0 6.1543356998098782 0 0 1 1 0 0 forward_v I I I I #
coedge $-1 $346 $347 $237 $348 forward $146 $-1 #
coedge $-1 $237 $148 $150 $243 reversed $91 $-1 #
coedge $-1 $148 $236 $235 $348 reversed $91 $-1 #
coedge $-1 $349 $151 $148 $239 forward $233 $-1 #
edge $-1 $246 -38.803080520234083 $350 -34.664975787278472 $238 $351 forward 7 unknown #
coedge $-1 $150 $149 $346 $352 reversed $59 $-1 #
coedge $-1 $353 $354 $149 $242 forward $344 $-1 #
edge $-1 $355 -8.4109161708060363 $245 -1.5348751136653882 $241 $356 forward 7 unknown #
edge $-1 $357 -3.543837884356177e-014 $246 6.876041057140613 $236 $358 forward 7 unknown #
coedge $-1 $151 $349 $353 $359 forward $233 $-1 #
vertex $-1 $242 $360 #
vertex $-1 $152 $361 #
straight-curve $-1 23.961792409461488 -24.693405886349872 6.154335699809879 -1 0 0 I I #
coedge $-1 $248 $248 $-1 $362 reversed $155 $-1 #
edge $-1 $363 0 $363 6.2831853071796004 $156 $364 forward 7 unknown #
vertex $-1 $159 $365 #
ellipse-curve $-1 47.923584818922976 -26.76245825282767 3.4086103931479874 0 -0.79863551827123203 0.60181501223851219 1 0 0 1 I I #
face $-1 $-1 $175 $24 $-1 $366 reversed single #
loop $-1 $-1 $268 $160 #
plane-surface $-1 0 28.831510619305483 0 0 -1 0 0 0 -1 forward_v I I I I #
coedge $-1 $367 $266 $269 $368 forward $161 $-1 #
coedge $-1 $272 $163 $164 $260 reversed $100 $-1 #
coedge $-1 $266 $367 $163 $258 reversed $161 $-1 #
edge $-1 $273 -6.1543356998098782 $369 6.1543356998098782 $257 $370 forward 7 unknown #
coedge $-1 $165 $164 $367 $371 forward $65 $-1 #
edge $-1 $264 -61.455732902005067 $369 61.455732902005067 $256 $372 forward 7 unknown #
coedge $-1 $269 $268 $165 $262 reversed $253 $-1 #
edge $-1 $373 -61.455732902005067 $263 61.455732902005067 $261 $374 forward 7 unknown #
vertex $-1 $167 $375 #
vertex $-1 $275 $376 #
straight-curve $-1 61.455732902005067 0 -6.1543356998098782 0 -1 0 I I #
coedge $-1 $255 $257 $168 $267 reversed $161 $-1 #
edge $-1 $270 -28.831510619305483 $273 28.831510619305483 $266 $377 forward 7 unknown #
coedge $-1 $261 $169 $174 $276 forward $253 $-1 #
coedge $-1 $169 $261 $255 $368 reversed $253 $-1 #
vertex $-1 $170 $378 #
straight-curve $-1 0 28.831510619305483 6.1543356998098782 -1 0 0 I I #
coedge $-1 $171 $256 $173 $275 reversed $100 $-1 #
vertex $-1 $267 $379 #
straight-curve $-1 0 -28.831510619305483 6.1543356998098782 1 0 0 I I #
edge $-1 $176 -6.1543356998098782 $264 6.1543356998098782 $173 $380 forward 7 unknown #
edge $-1 $177 -6.1543356998098782 $263 6.1543356998098782 $174 $381 forward 7 unknown #
point $-1 61.455732902005067 -28.831510619305483 6.1543356998098782 #
point $-1 61.455732902005067 28.831510619305483 6.1543356998098782 #
face $-1 $-1 $293 $25 $-1 $382 reversed single #
loop $-1 $-1 $289 $179 #
plane-surface $-1 0 0 6.1543356998098782 0 0 1 1 0 0 forward_v I I I I #
coedge $-1 $383 $384 $283 $385 forward $180 $-1 #
coedge $-1 $183 $182 $282 $385 reversed $69 $-1 #
edge $-1 $386 -2.4852513664125908 $191 2.4852513664125908 $182 $387 forward 7 unknown #
coedge $-1 $388 $289 $183 $286 forward $280 $-1 #
edge $-1 $287 61.455732902005067 $389 66.426235634830249 $183 $390 forward 7 unknown #
vertex $-1 $286 $391 #
straight-curve $-1 -61.455732902005067 28.831510619305483 0 0 0 -1 I I #
coedge $-1 $285 $392 $185 $290 forward $280 $-1 #
edge $-1 $294 -28.831510619305483 $287 28.831510619305483 $289 $393 forward 7 unknown #
coedge $-1 $394 $186 $392 $395 reversed $293 $-1 #
coedge $-1 $186 $394 $188 $297 reversed $293 $-1 #
loop $-1 $-1 $186 $279 #
vertex $-1 $187 $396 #
straight-curve $-1 -61.455732902005067 -28.831510619305483 0 0 0 1 I I #
coedge $-1 $189 $188 $383 $397 forward $108 $-1 #
edge $-1 $190 -2.4852513664125908 $398 2.4852513664125908 $292 $399 forward 7 unknown #
point $-1 -61.455732902005067 -28.831510619305483 3.1543356998098782 #
point $-1 -61.455732902005067 28.831510619305483 3.1543356998098782 #
loop $-1 $-1 $201 $193 #
plane-surface $-1 0 28.831510619305483 0 0 -1 0 0 0 -1 forward_v I I I I #
coedge $-1 $303 $196 $198 $307 reversed $116 $-1 #
coedge $-1 $196 $302 $400 $401 reversed $116 $-1 #
coedge $-1 $204 $199 $196 $305 forward $194 $-1 #
edge $-1 $308 -9.1825851432559098 $402 -1.853299174698396 $304 $403 forward 7 unknown #
coedge $-1 $198 $197 $311 $404 reversed $73 $-1 #
edge $-1 $405 -57.663021238610952 $308 -48.231992330607831 $302 $406 forward 7 unknown #
vertex $-1 $200 $407 #
straight-curve $-1 -24.576554126550494 21.502224650747969 6.1543356998098773 1 0 0 I I #
coedge $-1 $400 $201 $204 $315 reversed $300 $-1 #
coedge $-1 $201 $400 $306 $404 forward $300 $-1 #
vertex $-1 $202 $408 #
straight-curve $-1 -56.485230169179886 28.831510619305483 66.013930419937722 0 0 1 I I #
straight-curve $-1 -56.485230169179886 -15.98107309678776 36.507712351335741 0 0.77714595512881146 -0.62932039886446345 I I #
edge $-1 $402 41.820986337022092 $205 56.485230169179886 $310 $409 forward 7 unknown #
point $-1 -56.485230169179886 28.831510619305483 6.1543356998098782 #
point $-1 -56.485230169179886 21.502224650747969 6.1543356998098773 #
edge $-1 $410 1 $410 0 $208 $-1 forward 7 unknown #
vertex $-1 $209 $411 #
ellipse-curve $-1 -49.153108253100989 21.025610221020216 -1.9272606371235153 0 0.62932039886446345 0.77714595512881146 2 0 0 1 I I #
point $-1 -47.153108253100989 25.166867635026716 3.1867662627664606 #
plane-surface $-1 0 0 6.1543356998098782 0 0 1 1 0 0 forward_v I I I I #
coedge $-1 $333 $332 $325 $412 forward $213 $-1 #
coedge $-1 $325 $215 $217 $329 reversed $131 $-1 #
coedge $-1 $215 $324 $323 $412 reversed $131 $-1 #
coedge $-1 $223 $218 $215 $327 forward $224 $-1 #
edge $-1 $330 -38.803080520234083 $413 -34.664975787278472 $326 $414 forward 7 unknown #
coedge $-1 $217 $216 $333 $415 reversed $82 $-1 #
edge $-1 $416 -3.543837884356177e-014 $330 6.876041057140613 $324 $417 forward 7 unknown #
vertex $-1 $219 $418 #
straight-curve $-1 -5.5234483583347433 -24.693405886349872 6.154335699809879 -1 0 0 I I #
coedge $-1 $323 $220 $223 $337 reversed $213 $-1 #
coedge $-1 $220 $323 $328 $415 forward $213 $-1 #
vertex $-1 $221 $419 #
straight-curve $-1 2.4852513664125837 -28.831510619305483 37.316425191789975 0 0 1 I I #
straight-curve $-1 2.4852513664125837 -28.831510619305462 0.66288508648611355 0 -0.60181501223851219 -0.79863551827123203 I I #
edge $-1 $413 -24.579044799751557 $225 2.4852513664125837 $332 $420 forward 7 unknown #
point $-1 2.4852513664125837 -28.831510619305483 6.1543356998098782 #
point $-1 2.4852513664125837 -24.693405886349872 6.1543356998098782 #
edge $-1 $421 1 $421 0 $228 $-1 forward 7 unknown #
vertex $-1 $229 $422 #
ellipse-curve $-1 -11.046896716669487 -24.477157123653047 1.6865125205164009 0 -0.79863551827123203 0.60181501223851219 1 0 0 1 I I #
point $-1 -10.046896716669487 -26.762458252827688 3.4086103931479999 #
loop $-1 $-1 $241 $232 #
plane-surface $-1 61.455732902005067 0 0 -1 0 0 0 0 1 forward_v I I I I #
coedge $-1 $423 $235 $240 $352 forward $146 $-1 #
coedge $-1 $235 $423 $349 $424 reversed $146 $-1 #
edge $-1 $350 31.162089491980097 $357 36.65354010530389 $235 $425 forward 7 unknown #
coedge $-1 $244 $238 $347 $424 forward $233 $-1 #
vertex $-1 $424 $426 #
straight-curve $-1 34.391436735840905 -63.496486406583955 6.1543356998098773 0 -1 0 I I #
edge $-1 $357 10.429644326379417 $355 37.493940492543558 $346 $427 forward 7 unknown #
coedge $-1 $354 $241 $244 $359 reversed $344 $-1 #
coedge $-1 $241 $353 $423 $428 forward $344 $-1 #
vertex $-1 $352 $429 #
straight-curve $-1 61.455732902005067 -23.769695001034748 7.3801414816936513 0 0.60181501223851219 0.79863551827123203 I I #
vertex $-1 $352 $430 #
straight-curve $-1 34.391436735840905 -28.831510619305462 0.66288508648611355 0 0.60181501223851219 0.79863551827123203 I I #
edge $-1 $431 -28.831510619305483 $245 -24.693405886349872 $353 $432 forward 7 unknown #
point $-1 61.455732902005046 -24.693405886349872 6.1543356998098782 #
point $-1 34.391436735840905 -24.693405886349872 6.1543356998098782 #
edge $-1 $433 1 $433 0 $248 $-1 forward 7 unknown #
vertex $-1 $249 $434 #
ellipse-curve $-1 47.923584818922976 -24.477157123653047 1.6865125205164009 0 -0.79863551827123203 0.60181501223851219 1 0 0 1 I I #
point $-1 48.923584818922976 -26.762458252827688 3.4086103931479999 #
plane-surface $-1 61.455732902005067 0 0 -1 0 0 0 0 1 forward_v I I I I #
coedge $-1 $257 $255 $259 $371 reversed $161 $-1 #
edge $-1 $270 -6.1543356998098782 $373 6.1543356998098782 $269 $435 forward 7 unknown #
vertex $-1 $371 $436 #
straight-curve $-1 -61.455732902005067 -28.831510619305483 0 0 0 -1 I I #
edge $-1 $369 -28.831510619305483 $373 28.831510619305483 $367 $437 forward 7 unknown #
straight-curve $-1 0 -28.831510619305483 -6.1543356998098782 -1 0 0 I I #
vertex $-1 $262 $438 #
straight-curve $-1 0 28.831510619305483 -6.1543356998098782 1 0 0 I I #
point $-1 61.455732902005067 28.831510619305483 -6.1543356998098782 #
point $-1 61.455732902005067 -28.831510619305483 -6.1543356998098782 #
straight-curve $-1 -61.455732902005067 0 6.1543356998098782 0 -1 0 I I #
point $-1 -61.455732902005067 28.831510619305483 6.1543356998098782 #
point $-1 -61.455732902005067 -28.831510619305483 6.1543356998098782 #
straight-curve $-1 61.455732902005067 -28.831510619305483 0 0 0 -1 I I #
straight-curve $-1 61.455732902005067 28.831510619305483 0 0 0 -1 I I #
plane-surface $-1 0 -28.831510619305483 0 0 1 0 0 0 1 forward_v I I I I #
coedge $-1 $439 $282 $296 $397 reversed $180 $-1 #
coedge $-1 $282 $439 $388 $440 reversed $180 $-1 #
edge $-1 $389 -1.5 $386 1.5 $283 $441 forward 7 unknown #
vertex $-1 $284 $442 #
straight-curve $-1 -63.940984268417658 28.831510619305483 3.1543356998098782 1 0 0 I I #
coedge $-1 $392 $285 $384 $440 forward $280 $-1 #
vertex $-1 $286 $443 #
straight-curve $-1 0 28.831510619305483 6.1543356998098782 -1 0 0 I I #
point $-1 -61.455732902005067 28.831510619305483 6.1543356998098782 #
coedge $-1 $289 $388 $291 $395 forward $280 $-1 #
straight-curve $-1 -61.455732902005067 0 6.1543356998098782 0 1 0 I I #
coedge $-1 $292 $291 $439 $444 forward $293 $-1 #
edge $-1 $445 -66.426235634830249 $294 -61.455732902005067 $291 $446 forward 7 unknown #
point $-1 -61.455732902005067 -28.831510619305483 6.1543356998098782 #
edge $-1 $398 -28.831510619305483 $386 28.831510619305483 $383 $447 forward 7 unknown #
vertex $-1 $397 $448 #
straight-curve $-1 -63.940984268417658 -28.831510619305483 3.1543356998098782 -1 0 0 I I #
coedge $-1 $311 $310 $303 $401 forward $300 $-1 #
edge $-1 $402 59.859594720127845 $405 65.794733594214648 $400 $449 forward 7 unknown #
vertex $-1 $315 $450 #
straight-curve $-1 -41.820986337022092 30.684809794003879 6.1543356998098773 0 1 0 I I #
edge $-1 $405 17.244432210471597 $312 31.908676042629391 $311 $451 forward 7 unknown #
vertex $-1 $404 $452 #
straight-curve $-1 -41.820986337022092 -15.98107309678776 36.507712351335741 0 -0.77714595512881146 0.62932039886446345 I I #
point $-1 -41.820986337022092 21.502224650747969 6.1543356998098773 #
point $-1 -56.485230169179886 28.831510619305483 0.21919682572307408 #
straight-curve $-1 0 28.831510619305483 6.1543356998098782 -1 0 0 I I #
vertex $-1 $318 $453 #
point $-1 -47.153108253100989 21.025610221020216 -1.9272606371235153 #
edge $-1 $413 31.162089491980097 $416 36.65354010530389 $323 $454 forward 7 unknown #
vertex $-1 $337 $455 #
straight-curve $-1 -24.579044799751557 -63.496486406583955 6.1543356998098773 0 -1 0 I I #
edge $-1 $416 -19.055596441416814 $334 8.0086997247473271 $333 $456 forward 7 unknown #
vertex $-1 $415 $457 #
straight-curve $-1 -24.579044799751557 -28.831510619305462 0.66288508648611355 0 0.60181501223851219 0.79863551827123203 I I #
point $-1 -24.579044799751557 -24.693405886349872 6.1543356998098782 #
point $-1 2.4852513664125837 -28.831510619305483 0.66288508648608524 #
straight-curve $-1 0 -28.831510619305483 6.1543356998098782 1 0 0 I I #
vertex $-1 $340 $458 #
point $-1 -10.046896716669487 -24.477157123653047 1.6865125205164009 #
coedge $-1 $347 $346 $354 $428 reversed $146 $-1 #
edge $-1 $350 34.391436735840905 $431 61.455732902005067 $347 $459 forward 7 unknown #
straight-curve $-1 34.391436735840905 -28.831510619305483 37.316425191789975 0 0 -1 I I #
point $-1 34.391436735840905 -28.831510619305483 6.1543356998098782 #
straight-curve $-1 23.961792409461488 -28.831510619305483 0.66288508648608391 1 0 0 I I #
edge $-1 $431 -6.1543356998098782 $355 -0.66288508648608524 $354 $460 forward 7 unknown #
point $-1 61.455732902005046 -28.831510619305483 0.66288508648608524 #
point $-1 34.391436735840905 -28.831510619305483 0.66288508648608524 #
vertex $-1 $359 $461 #
straight-curve $-1 61.455732902005067 0 6.1543356998098782 0 1 0 I I #
vertex $-1 $362 $462 #
point $-1 48.923584818922976 -24.477157123653047 1.6865125205164009 #
straight-curve $-1 -61.455732902005067 28.831510619305483 0 0 0 -1 I I #
point $-1 -61.455732902005067 -28.831510619305483 -6.1543356998098782 #
straight-curve $-1 -61.455732902005067 0 -6.1543356998098782 0 1 0 I I #
point $-1 -61.455732902005067 28.831510619305483 -6.1543356998098782 #
coedge $-1 $384 $383 $394 $444 reversed $180 $-1 #
edge $-1 $389 -28.831510619305483 $445 28.831510619305483 $384 $463 forward 7 unknown #
straight-curve $-1 -66.426235634830249 28.831510619305483 4.6543356998098782 0 0 -1 I I #
point $-1 -66.426235634830249 28.831510619305483 3.1543356998098782 #
point $-1 -66.426235634830249 28.831510619305483 6.1543356998098782 #
edge $-1 $445 -1.5 $398 1.5 $439 $464 forward 7 unknown #
vertex $-1 $440 $465 #
straight-curve $-1 0 -28.831510619305483 6.1543356998098782 1 0 0 I I #
straight-curve $-1 -66.426235634830249 0 3.1543356998098782 0 1 0 I I #
point $-1 -66.426235634830249 -28.831510619305483 3.1543356998098782 #
straight-curve $-1 -41.820986337022092 28.831510619305483 66.013930419937722 0 0 -1 I I #
point $-1 -41.820986337022092 28.831510619305483 6.1543356998098782 #
straight-curve $-1 -24.576554126550494 28.831510619305483 0.21919682572307408 -1 0 0 I I #
point $-1 -41.820986337022092 28.831510619305483 0.21919682572307408 #
point $-1 -49.153108253100989 19.766969423291286 -3.4815525473811384 #
straight-curve $-1 -24.579044799751557 -28.831510619305483 37.316425191789975 0 0 -1 I I #
point $-1 -24.579044799751557 -28.831510619305483 6.1543356998098782 #
straight-curve $-1 -5.5234483583347433 -28.831510619305483 0.66288508648608391 1 0 0 I I #
point $-1 -24.579044799751557 -28.831510619305483 0.66288508648608524 #
point $-1 -11.046896716669487 -23.678521605381814 1.0846975082778887 #
straight-curve $-1 0 -28.831510619305483 6.1543356998098782 1 0 0 I I #
straight-curve $-1 61.455732902005067 -28.831510619305483 0 0 0 -1 I I #
point $-1 61.455732902005067 -28.831510619305483 6.1543356998098782 #
point $-1 47.923584818922976 -23.678521605381814 1.0846975082778887 #
straight-curve $-1 -66.426235634830249 0 6.1543356998098782 0 -1 0 I I #
straight-curve $-1 -66.426235634830249 -28.831510619305483 4.6543356998098782 0 0 -1 I I #
point $-1 -66.426235634830249 -28.831510619305483 6.1543356998098782 #
End-of-ACIS-data 