500 0 10 0           
7 Unknown 11 ACIS 5.0 NT 24 Thu Mar 25 23:09:06 1999 
-1 9.9999999999999995e-007 1e-010 
body $-1 $10 $-1 $11 #
body $-1 $12 $-1 $13 #
body $-1 $14 $-1 $15 #
body $-1 $16 $-1 $17 #
body $-1 $18 $-1 $19 #
body $-1 $20 $-1 $21 #
body $-1 $22 $-1 $23 #
body $-1 $24 $-1 $25 #
body $-1 $26 $-1 $27 #
body $-1 $28 $-1 $29 #
lump $-1 $-1 $30 $0 #
transform $-1 1 0 0 0 1 0 0 0 1 74.162419507431252 36.203718068696212 12.161673803697409 1 rotate no_reflect no_shear #
lump $-1 $-1 $31 $1 #
transform $-1 1 0 0 0 1 0 0 0 1 74.162419507431252 36.203718068696212 12.161673803697409 1 rotate no_reflect no_shear #
lump $-1 $-1 $32 $2 #
transform $-1 1 0 0 0 1 0 0 0 1 74.162419507431252 36.203718068696212 12.161673803697409 1 rotate no_reflect no_shear #
lump $-1 $-1 $33 $3 #
transform $-1 1 0 0 0 1 0 0 0 1 74.162419507431252 36.203718068696212 12.161673803697409 1 rotate no_reflect no_shear #
lump $-1 $-1 $34 $4 #
transform $-1 1 0 0 0 1 0 0 0 1 74.162419507431252 36.203718068696212 12.161673803697409 1 rotate no_reflect no_shear #
lump $-1 $-1 $35 $5 #
transform $-1 1 0 0 0 1 0 0 0 1 74.162419507431252 36.203718068696212 12.161673803697409 1 rotate no_reflect no_shear #
lump $-1 $-1 $36 $6 #
transform $-1 1 0 0 0 1 0 0 0 1 74.162419507431252 36.203718068696212 12.161673803697409 1 rotate no_reflect no_shear #
lump $-1 $-1 $37 $7 #
transform $-1 1 0 0 0 1 0 0 0 1 74.162419507431252 36.203718068696212 12.161673803697409 1 rotate no_reflect no_shear #
lump $-1 $-1 $38 $8 #
transform $-1 1 0 0 0 1 0 0 0 1 74.162419507431252 36.203718068696212 12.161673803697409 1 rotate no_reflect no_shear #
lump $-1 $-1 $39 $9 #
transform $-1 1 0 0 0 1 0 0 0 1 74.162419507431252 36.203718068696212 12.161673803697409 1 rotate no_reflect no_shear #
shell $-1 $-1 $-1 $40 $-1 $10 #
shell $-1 $-1 $-1 $41 $-1 $12 #
shell $-1 $-1 $-1 $42 $-1 $14 #
shell $-1 $-1 $-1 $43 $-1 $16 #
shell $-1 $-1 $-1 $44 $-1 $18 #
shell $-1 $-1 $-1 $45 $-1 $20 #
shell $-1 $-1 $-1 $46 $-1 $22 #
shell $-1 $-1 $-1 $47 $-1 $24 #
shell $-1 $-1 $-1 $48 $-1 $26 #
shell $-1 $-1 $-1 $49 $-1 $28 #
face $-1 $50 $51 $30 $-1 $52 forward single #
face $-1 $53 $54 $31 $-1 $55 forward single #
face $-1 $56 $57 $32 $-1 $58 reversed single #
face $-1 $59 $60 $33 $-1 $61 forward single #
face $-1 $62 $63 $34 $-1 $64 forward single #
face $-1 $65 $66 $35 $-1 $67 forward single #
face $-1 $68 $69 $36 $-1 $70 reversed single #
face $-1 $71 $72 $37 $-1 $73 forward single #
face $-1 $74 $75 $38 $-1 $76 forward single #
face $-1 $77 $78 $39 $-1 $79 forward single #
face $-1 $80 $81 $30 $-1 $82 reversed single #
loop $-1 $-1 $83 $40 #
plane-surface $-1 0 0 12.161673803697409 0 0 1 1 0 0 forward_v I I I I #
face $-1 $84 $85 $31 $-1 $86 reversed single #
loop $-1 $-1 $87 $41 #
plane-surface $-1 0 -28.568709297218721 -1.1145146388463876 0 0 1 1 0 0 forward_v I I I I #
face $-1 $88 $89 $32 $-1 $90 reversed single #
loop $-1 $-1 $91 $42 #
plane-surface $-1 -33.313450125003186 61.966652790746657 167.35609737530177 1 0 0 0 -0.57357644374324357 -0.81915203911291934 forward_v I I I I #
face $-1 $92 $93 $33 $-1 $94 forward single #
loop $-1 $95 $96 $43 #
cone-surface $-1 -26.650760100002543 29.237250463085193 6.2864184071076412 0 -0.57357644374324357 -0.81915203911291934 2 0 0 1 I I 0 1 2 forward I I I I #
face $-1 $97 $98 $34 $-1 $99 forward single #
loop $-1 $100 $101 $44 #
cone-surface $-1 -16.656725062501593 29.237250463085193 6.2864184071076412 0 -0.57357644374324357 -0.81915203911291934 2 0 0 1 I I 0 1 2 forward I I I I #
face $-1 $102 $103 $35 $-1 $104 forward single #
loop $-1 $105 $106 $45 #
cone-surface $-1 -6.6626900250006429 29.237250463085193 6.2864184071076412 0 -0.57357644374324357 -0.81915203911291934 2 0 0 1 I I 0 1 2 forward I I I I #
face $-1 $107 $108 $36 $-1 $109 reversed single #
loop $-1 $-1 $110 $46 #
plane-surface $-1 -16.656725062501593 -23.10898089018729 45.855503045181663 0 0.57357644374324357 0.81915203911291934 1 0 0 forward_v I I I I #
face $-1 $111 $112 $37 $-1 $113 forward single #
loop $-1 $114 $115 $47 #
cone-surface $-1 6.6626900250006287 29.237250463085193 6.2864184071076412 0 -0.57357644374324357 -0.81915203911291934 2 0 0 1 I I 0 1 2 forward I I I I #
face $-1 $116 $117 $38 $-1 $118 forward single #
loop $-1 $119 $120 $48 #
cone-surface $-1 16.656725062501579 29.237250463085193 6.2864184071076412 0 -0.57357644374324357 -0.81915203911291934 2 0 0 1 I I 0 1 2 forward I I I I #
face $-1 $121 $122 $39 $-1 $123 forward single #
loop $-1 $124 $125 $49 #
cone-surface $-1 26.650760100002529 29.237250463085193 6.2864184071076412 0 -0.57357644374324357 -0.81915203911291934 2 0 0 1 I I 0 1 2 forward I I I I #
face $-1 $126 $127 $30 $-1 $128 reversed single #
loop $-1 $-1 $129 $50 #
plane-surface $-1 0 0 -12.161673803697409 0 0 1 1 0 0 forward_v I I I I #
coedge $-1 $130 $131 $132 $133 forward $51 $-1 #
face $-1 $134 $135 $31 $-1 $136 reversed single #
loop $-1 $-1 $137 $53 #
plane-surface $-1 0 -28.568709297218721 -5.0277624669021534 0 0 1 1 0 0 forward_v I I I I #
coedge $-1 $138 $139 $140 $141 reversed $54 $-1 #
face $-1 $142 $143 $32 $-1 $144 reversed single #
loop $-1 $-1 $145 $56 #
plane-surface $-1 -16.656725062501593 -23.10898089018729 45.855503045181663 0 0.57357644374324357 0.81915203911291934 1 0 0 forward_v I I I I #
coedge $-1 $146 $147 $148 $149 reversed $57 $-1 #
face $-1 $-1 $150 $33 $-1 $151 forward single #
loop $-1 $152 $153 $59 #
cone-surface $-1 -26.650760100002543 27.293668819916768 3.5106962107886108 0 -0.57357644374324357 -0.81915203911291934 1 0 0 1 I I -0.70710678118654746 0.70710678118654746 1 forward I I I I #
loop $-1 $-1 $154 $43 #
coedge $-1 $96 $96 $155 $156 reversed $60 $-1 #
face $-1 $-1 $157 $34 $-1 $158 forward single #
loop $-1 $159 $160 $62 #
cone-surface $-1 -16.656725062501593 27.293668819916768 3.5106962107886108 0 -0.57357644374324357 -0.81915203911291934 1 0 0 1 I I -0.70710678118654746 0.70710678118654746 1 forward I I I I #
loop $-1 $-1 $161 $44 #
coedge $-1 $101 $101 $162 $163 reversed $63 $-1 #
face $-1 $-1 $164 $35 $-1 $165 forward single #
loop $-1 $166 $167 $65 #
cone-surface $-1 -6.6626900250006429 27.293668819916768 3.5106962107886108 0 -0.57357644374324357 -0.81915203911291934 1 0 0 1 I I -0.70710678118654746 0.70710678118654746 1 forward I I I I #
loop $-1 $-1 $168 $45 #
coedge $-1 $106 $106 $169 $170 reversed $66 $-1 #
face $-1 $171 $172 $36 $-1 $173 forward single #
loop $-1 $-1 $174 $68 #
plane-surface $-1 33.313450125003172 61.966652790746657 167.35609737530177 -1 0 0 0 0.57357644374324357 0.81915203911291934 forward_v I I I I #
coedge $-1 $175 $176 $177 $178 reversed $69 $-1 #
face $-1 $-1 $179 $37 $-1 $180 forward single #
loop $-1 $181 $182 $71 #
cone-surface $-1 6.6626900250006287 27.293668819916768 3.5106962107886108 0 -0.57357644374324357 -0.81915203911291934 1 0 0 1 I I -0.70710678118654746 0.70710678118654746 1 forward I I I I #
loop $-1 $-1 $183 $47 #
coedge $-1 $115 $115 $184 $185 reversed $72 $-1 #
face $-1 $-1 $186 $38 $-1 $187 forward single #
loop $-1 $188 $189 $74 #
cone-surface $-1 16.656725062501579 27.293668819916768 3.5106962107886108 0 -0.57357644374324357 -0.81915203911291934 1 0 0 1 I I -0.70710678118654746 0.70710678118654746 1 forward I I I I #
loop $-1 $-1 $190 $48 #
coedge $-1 $120 $120 $191 $192 reversed $75 $-1 #
face $-1 $-1 $193 $39 $-1 $194 forward single #
loop $-1 $195 $196 $77 #
cone-surface $-1 26.650760100002529 27.293668819916768 3.5106962107886108 0 -0.57357644374324357 -0.81915203911291934 1 0 0 1 I I -0.70710678118654746 0.70710678118654746 1 forward I I I I #
loop $-1 $-1 $197 $49 #
coedge $-1 $125 $125 $198 $199 reversed $78 $-1 #
face $-1 $200 $201 $30 $-1 $202 reversed single #
loop $-1 $-1 $203 $80 #
plane-surface $-1 0 -36.203718068696212 0 0 1 0 0 0 1 forward_v I I I I #
coedge $-1 $204 $205 $206 $207 forward $81 $-1 #
coedge $-1 $208 $83 $209 $210 forward $51 $-1 #
coedge $-1 $83 $208 $211 $212 forward $51 $-1 #
coedge $-1 $213 $214 $83 $133 reversed $215 $-1 #
edge $-1 $216 -36.203718068696212 $217 36.203718068696212 $132 $218 forward 7 unknown #
face $-1 $219 $220 $31 $-1 $221 reversed single #
loop $-1 $-1 $222 $84 #
plane-surface $-1 0 -20.93370052574123 -3.0711385528742703 0 -1 0 0 0 -1 forward_v I I I I #
coedge $-1 $223 $224 $225 $226 reversed $85 $-1 #
coedge $-1 $227 $87 $228 $229 forward $54 $-1 #
coedge $-1 $87 $227 $230 $231 reversed $54 $-1 #
coedge $-1 $232 $233 $87 $141 forward $234 $-1 #
edge $-1 $235 6.6493458771318696 $236 21.919363420086853 $140 $237 forward 7 unknown #
face $-1 $238 $239 $32 $-1 $240 reversed single #
loop $-1 $-1 $241 $88 #
plane-surface $-1 -3.5527136788005009e-015 61.966652790746657 167.35609737530177 -1 0 0 0 0.57357644374324357 0.81915203911291934 forward_v I I I I #
coedge $-1 $242 $243 $244 $245 reversed $89 $-1 #
coedge $-1 $147 $91 $246 $247 reversed $57 $-1 #
coedge $-1 $91 $146 $242 $248 reversed $57 $-1 #
coedge $-1 $244 $249 $91 $149 forward $250 $-1 #
edge $-1 $251 -5.220391673322883 $252 5.9725331390487817 $148 $253 forward 7 unknown #
loop $-1 $-1 $155 $92 #
plane-surface $-1 -16.656725062501593 -23.10898089018729 45.855503045181663 0 0.57357644374324357 0.81915203911291934 1 0 0 forward_v I I I I #
loop $-1 $-1 $254 $59 #
coedge $-1 $153 $153 $154 $255 reversed $93 $-1 #
coedge $-1 $154 $154 $153 $255 forward $95 $-1 #
coedge $-1 $155 $155 $96 $156 forward $150 $-1 #
edge $-1 $256 0 $256 6.2831853071796004 $155 $257 forward 7 unknown #
loop $-1 $-1 $162 $97 #
plane-surface $-1 -16.656725062501593 -23.10898089018729 45.855503045181663 0 0.57357644374324357 0.81915203911291934 1 0 0 forward_v I I I I #
loop $-1 $-1 $258 $62 #
coedge $-1 $160 $160 $161 $259 reversed $98 $-1 #
coedge $-1 $161 $161 $160 $259 forward $100 $-1 #
coedge $-1 $162 $162 $101 $163 forward $157 $-1 #
edge $-1 $260 0 $260 6.2831853071796004 $162 $261 forward 7 unknown #
loop $-1 $-1 $169 $102 #
plane-surface $-1 -16.656725062501593 -23.10898089018729 45.855503045181663 0 0.57357644374324357 0.81915203911291934 1 0 0 forward_v I I I I #
loop $-1 $-1 $262 $65 #
coedge $-1 $167 $167 $168 $263 reversed $103 $-1 #
coedge $-1 $168 $168 $167 $263 forward $105 $-1 #
coedge $-1 $169 $169 $106 $170 forward $164 $-1 #
edge $-1 $264 0 $264 6.2831853071796004 $169 $265 forward 7 unknown #
face $-1 $266 $267 $36 $-1 $268 forward single #
loop $-1 $-1 $269 $107 #
plane-surface $-1 0 0 12.161673803697409 0 0 1 1 0 0 forward_v I I I I #
coedge $-1 $270 $271 $272 $273 reversed $108 $-1 #
coedge $-1 $274 $110 $275 $276 reversed $69 $-1 #
coedge $-1 $110 $274 $269 $277 reversed $69 $-1 #
coedge $-1 $278 $279 $110 $178 forward $267 $-1 #
edge $-1 $280 -72.407436137392438 $281 -58.743397866190961 $177 $282 forward 7 unknown #
loop $-1 $-1 $184 $111 #
plane-surface $-1 -16.656725062501593 -23.10898089018729 45.855503045181663 0 0.57357644374324357 0.81915203911291934 1 0 0 forward_v I I I I #
loop $-1 $-1 $283 $71 #
coedge $-1 $182 $182 $183 $284 reversed $112 $-1 #
coedge $-1 $183 $183 $182 $284 forward $114 $-1 #
coedge $-1 $184 $184 $115 $185 forward $179 $-1 #
edge $-1 $285 0 $285 6.2831853071796004 $184 $286 forward 7 unknown #
loop $-1 $-1 $191 $116 #
plane-surface $-1 -16.656725062501593 -23.10898089018729 45.855503045181663 0 0.57357644374324357 0.81915203911291934 1 0 0 forward_v I I I I #
loop $-1 $-1 $287 $74 #
coedge $-1 $189 $189 $190 $288 reversed $117 $-1 #
coedge $-1 $190 $190 $189 $288 forward $119 $-1 #
coedge $-1 $191 $191 $120 $192 forward $186 $-1 #
edge $-1 $289 0 $289 6.2831853071796004 $191 $290 forward 7 unknown #
loop $-1 $-1 $198 $121 #
plane-surface $-1 -16.656725062501593 -23.10898089018729 45.855503045181663 0 0.57357644374324357 0.81915203911291934 1 0 0 forward_v I I I I #
loop $-1 $-1 $291 $77 #
coedge $-1 $196 $196 $197 $292 reversed $122 $-1 #
coedge $-1 $197 $197 $196 $292 forward $124 $-1 #
coedge $-1 $198 $198 $125 $199 forward $193 $-1 #
edge $-1 $293 0 $293 6.2831853071796004 $198 $294 forward 7 unknown #
face $-1 $295 $296 $30 $-1 $297 reversed single #
loop $-1 $-1 $298 $126 #
plane-surface $-1 -74.162419507431252 0 0 1 0 0 0 0 -1 forward_v I I I I #
coedge $-1 $299 $211 $300 $301 forward $127 $-1 #
coedge $-1 $302 $129 $299 $303 forward $81 $-1 #
coedge $-1 $129 $302 $304 $305 forward $81 $-1 #
coedge $-1 $214 $213 $129 $207 reversed $215 $-1 #
edge $-1 $306 -36.203718068696212 $307 36.203718068696212 $206 $308 forward 7 unknown #
coedge $-1 $131 $130 $309 $310 forward $51 $-1 #
coedge $-1 $311 $312 $130 $210 reversed $296 $-1 #
edge $-1 $217 -74.162419507431252 $313 74.162419507431252 $209 $314 forward 7 unknown #
coedge $-1 $203 $315 $131 $212 reversed $127 $-1 #
edge $-1 $316 -74.162419507431252 $216 74.162419507431252 $211 $317 forward 7 unknown #
coedge $-1 $206 $132 $315 $318 forward $215 $-1 #
coedge $-1 $132 $206 $311 $319 reversed $215 $-1 #
loop $-1 $-1 $213 $295 #
vertex $-1 $133 $320 #
vertex $-1 $133 $321 #
straight-curve $-1 74.162419507431252 0 12.161673803697409 0 1 0 I I #
face $-1 $322 $323 $31 $-1 $324 reversed single #
loop $-1 $-1 $325 $134 #
plane-surface $-1 -74.162419507431252 0 0 1 0 0 0 0 -1 forward_v I I I I #
coedge $-1 $326 $228 $233 $327 reversed $135 $-1 #
coedge $-1 $328 $137 $329 $330 reversed $85 $-1 #
coedge $-1 $137 $328 $326 $331 forward $85 $-1 #
coedge $-1 $233 $232 $137 $226 forward $234 $-1 #
edge $-1 $332 -21.919363420086853 $333 -6.6493458771318696 $225 $334 forward 7 unknown #
coedge $-1 $139 $138 $325 $335 reversed $54 $-1 #
coedge $-1 $222 $336 $138 $229 reversed $135 $-1 #
edge $-1 $235 -74.162419507431252 $337 74.162419507431252 $228 $338 forward 7 unknown #
coedge $-1 $339 $340 $139 $231 forward $323 $-1 #
edge $-1 $236 -74.162419507431252 $341 74.162419507431252 $230 $342 forward 7 unknown #
coedge $-1 $225 $140 $340 $343 forward $234 $-1 #
coedge $-1 $140 $225 $222 $327 forward $234 $-1 #
loop $-1 $-1 $140 $322 #
vertex $-1 $141 $344 #
vertex $-1 $343 $345 #
straight-curve $-1 74.162419507431252 -14.28435464860936 -1.1145146388463876 0 -1 0 I I #
face $-1 $-1 $250 $32 $-1 $346 forward single #
loop $-1 $-1 $347 $142 #
plane-surface $-1 0 36.203718068696212 0 0 -1 0 0 0 -1 forward_v I I I I #
coedge $-1 $348 $349 $350 $351 reversed $143 $-1 #
coedge $-1 $352 $145 $147 $248 forward $89 $-1 #
coedge $-1 $145 $352 $348 $353 forward $89 $-1 #
coedge $-1 $350 $148 $145 $245 forward $250 $-1 #
edge $-1 $252 -24.98508759375239 $354 8.328362531250793 $244 $355 forward 7 unknown #
coedge $-1 $356 $357 $146 $247 forward $239 $-1 #
edge $-1 $358 -79.353745362720801 $251 -71.516374883953475 $246 $359 forward 7 unknown #
edge $-1 $252 58.743397866190961 $358 72.407436137392438 $147 $360 forward 7 unknown #
coedge $-1 $148 $350 $356 $361 forward $250 $-1 #
loop $-1 $-1 $350 $238 #
vertex $-1 $247 $362 #
vertex $-1 $149 $363 #
straight-curve $-1 -33.313450125003186 30.983326395373329 12.161673803697411 0 -1 0 I I #
coedge $-1 $254 $254 $-1 $364 reversed $152 $-1 #
edge $-1 $365 0 $365 6.2831853071796004 $153 $366 forward 7 unknown #
vertex $-1 $156 $367 #
ellipse-curve $-1 -26.650760100002543 30.607255662510376 8.2429885643137517 0 0.57357644374324357 0.81915203911291934 2 0 0 1 I I #
coedge $-1 $258 $258 $-1 $368 reversed $159 $-1 #
edge $-1 $369 0 $369 6.2831853071796004 $160 $370 forward 7 unknown #
vertex $-1 $163 $371 #
ellipse-curve $-1 -16.656725062501593 30.607255662510376 8.2429885643137517 0 0.57357644374324357 0.81915203911291934 2 0 0 1 I I #
coedge $-1 $262 $262 $-1 $372 reversed $166 $-1 #
edge $-1 $373 0 $373 6.2831853071796004 $167 $374 forward 7 unknown #
vertex $-1 $170 $375 #
ellipse-curve $-1 -6.6626900250006429 30.607255662510376 8.2429885643137517 0 0.57357644374324357 0.81915203911291934 2 0 0 1 I I #
face $-1 $-1 $376 $36 $-1 $377 reversed single #
loop $-1 $-1 $278 $171 #
plane-surface $-1 -3.5527136788005009e-015 61.966652790746657 167.35609737530177 -1 0 0 0 0.57357644374324357 0.81915203911291934 forward_v I I I I #
coedge $-1 $272 $378 $176 $277 forward $172 $-1 #
coedge $-1 $271 $174 $274 $379 reversed $108 $-1 #
coedge $-1 $174 $270 $380 $381 reversed $108 $-1 #
coedge $-1 $382 $269 $174 $273 forward $172 $-1 #
edge $-1 $383 -5.9725331390487817 $384 5.220391673322883 $272 $385 forward 7 unknown #
coedge $-1 $176 $175 $270 $379 forward $69 $-1 #
coedge $-1 $386 $380 $175 $276 forward $376 $-1 #
edge $-1 $387 -41.641812656253968 $280 -8.328362531250793 $275 $388 forward 7 unknown #
edge $-1 $281 8.328362531250793 $383 41.641812656253968 $269 $389 forward 7 unknown #
coedge $-1 $279 $177 $378 $390 reversed $267 $-1 #
coedge $-1 $177 $278 $386 $391 reversed $267 $-1 #
vertex $-1 $276 $392 #
vertex $-1 $277 $393 #
straight-curve $-1 -3.5527136788005009e-015 -23.10898089018729 45.855503045181663 0 -0.81915203911291934 0.57357644374324357 I I #
coedge $-1 $283 $283 $-1 $394 reversed $181 $-1 #
edge $-1 $395 0 $395 6.2831853071796004 $182 $396 forward 7 unknown #
vertex $-1 $185 $397 #
ellipse-curve $-1 6.6626900250006287 30.607255662510376 8.2429885643137517 0 0.57357644374324357 0.81915203911291934 2 0 0 1 I I #
coedge $-1 $287 $287 $-1 $398 reversed $188 $-1 #
edge $-1 $399 0 $399 6.2831853071796004 $189 $400 forward 7 unknown #
vertex $-1 $192 $401 #
ellipse-curve $-1 16.656725062501579 30.607255662510376 8.2429885643137517 0 0.57357644374324357 0.81915203911291934 2 0 0 1 I I #
coedge $-1 $291 $291 $-1 $402 reversed $195 $-1 #
edge $-1 $403 0 $403 6.2831853071796004 $196 $404 forward 7 unknown #
vertex $-1 $199 $405 #
ellipse-curve $-1 26.650760100002529 30.607255662510376 8.2429885643137517 0 0.57357644374324357 0.81915203911291934 2 0 0 1 I I #
face $-1 $-1 $215 $30 $-1 $406 reversed single #
loop $-1 $-1 $311 $200 #
plane-surface $-1 0 36.203718068696212 0 0 -1 0 0 0 -1 forward_v I I I I #
coedge $-1 $407 $309 $312 $408 forward $201 $-1 #
coedge $-1 $315 $203 $204 $303 reversed $127 $-1 #
coedge $-1 $309 $407 $203 $301 reversed $201 $-1 #
edge $-1 $316 -12.161673803697409 $409 12.161673803697409 $300 $410 forward 7 unknown #
coedge $-1 $205 $204 $407 $411 forward $81 $-1 #
edge $-1 $307 -74.162419507431252 $409 74.162419507431252 $299 $412 forward 7 unknown #
coedge $-1 $312 $311 $205 $305 reversed $296 $-1 #
edge $-1 $413 -74.162419507431252 $306 74.162419507431252 $304 $414 forward 7 unknown #
vertex $-1 $207 $415 #
vertex $-1 $318 $416 #
straight-curve $-1 74.162419507431252 0 -12.161673803697409 0 -1 0 I I #
coedge $-1 $298 $300 $208 $310 reversed $201 $-1 #
edge $-1 $313 -36.203718068696212 $316 36.203718068696212 $309 $417 forward 7 unknown #
coedge $-1 $304 $209 $214 $319 forward $296 $-1 #
coedge $-1 $209 $304 $298 $408 reversed $296 $-1 #
vertex $-1 $210 $418 #
straight-curve $-1 0 36.203718068696212 12.161673803697409 -1 0 0 I I #
coedge $-1 $211 $299 $213 $318 reversed $127 $-1 #
vertex $-1 $310 $419 #
straight-curve $-1 0 -36.203718068696212 12.161673803697409 1 0 0 I I #
edge $-1 $216 -12.161673803697409 $307 12.161673803697409 $213 $420 forward 7 unknown #
edge $-1 $217 -12.161673803697409 $306 12.161673803697409 $214 $421 forward 7 unknown #
point $-1 74.162419507431252 -36.203718068696212 12.161673803697409 #
point $-1 74.162419507431252 36.203718068696212 12.161673803697409 #
face $-1 $-1 $234 $31 $-1 $422 reversed single #
loop $-1 $-1 $230 $219 #
plane-surface $-1 0 -36.203718068696212 0 0 1 0 0 0 1 forward_v I I I I #
coedge $-1 $423 $424 $227 $335 forward $220 $-1 #
coedge $-1 $336 $222 $224 $331 reversed $135 $-1 #
edge $-1 $333 -3.4921931904650183 $235 0.42105463759074757 $233 $425 forward 7 unknown #
coedge $-1 $224 $223 $426 $427 reversed $85 $-1 #
coedge $-1 $340 $339 $223 $330 forward $323 $-1 #
edge $-1 $428 -74.162419507431252 $332 74.162419507431252 $329 $429 forward 7 unknown #
edge $-1 $430 -74.162419507431252 $333 74.162419507431252 $326 $431 forward 7 unknown #
vertex $-1 $330 $432 #
vertex $-1 $226 $433 #
straight-curve $-1 74.162419507431252 -14.28435464860936 -5.0277624669021534 0 1 0 I I #
edge $-1 $341 -21.919363420086853 $337 -6.6493458771318696 $325 $434 forward 7 unknown #
coedge $-1 $228 $326 $423 $435 reversed $135 $-1 #
vertex $-1 $335 $436 #
straight-curve $-1 0 -20.93370052574123 -1.1145146388463876 -1 0 0 I I #
coedge $-1 $329 $230 $424 $437 forward $323 $-1 #
coedge $-1 $230 $329 $232 $343 reversed $323 $-1 #
vertex $-1 $437 $438 #
straight-curve $-1 0 -36.203718068696212 -1.1145146388463876 -1 0 0 I I #
edge $-1 $236 1.1145146388463876 $332 5.0277624669021534 $232 $439 forward 7 unknown #
point $-1 74.162419507431252 -20.93370052574123 -1.1145146388463876 #
point $-1 74.162419507431252 -36.203718068696212 -1.1145146388463876 #
plane-surface $-1 0 0 12.161673803697409 0 0 1 1 0 0 forward_v I I I I #
coedge $-1 $357 $356 $349 $440 forward $239 $-1 #
coedge $-1 $349 $241 $243 $353 reversed $143 $-1 #
coedge $-1 $241 $348 $347 $440 reversed $143 $-1 #
coedge $-1 $249 $244 $241 $351 forward $250 $-1 #
edge $-1 $354 -5.9725331390487817 $441 5.220391673322883 $350 $442 forward 7 unknown #
coedge $-1 $243 $242 $357 $443 reversed $89 $-1 #
edge $-1 $444 -72.407436137392438 $354 -58.743397866190961 $348 $445 forward 7 unknown #
vertex $-1 $245 $446 #
straight-curve $-1 -8.3283625312507965 25.01079325632454 12.161673803697415 1 0 0 I I #
coedge $-1 $347 $246 $249 $361 reversed $239 $-1 #
coedge $-1 $246 $347 $352 $443 forward $239 $-1 #
vertex $-1 $247 $447 #
straight-curve $-1 -33.313450125003186 36.203718068696212 83.678048687650886 0 0 1 I I #
straight-curve $-1 -33.313450125003186 -23.10898089018729 45.855503045181663 0 0.81915203911291934 -0.57357644374324357 I I #
edge $-1 $441 3.5527136788005009e-015 $251 33.313450125003186 $356 $448 forward 7 unknown #
point $-1 -33.313450125003186 36.203718068696212 12.161673803697409 #
point $-1 -33.313450125003186 25.010793256324547 12.161673803697411 #
edge $-1 $449 1 $449 0 $254 $-1 forward 7 unknown #
vertex $-1 $255 $450 #
ellipse-curve $-1 -26.650760100002543 27.86724526366001 4.3298482499015298 0 0.57357644374324357 0.81915203911291934 2 0 0 1 I I #
point $-1 -24.650760100002543 30.607255662510376 8.2429885643137517 #
edge $-1 $451 1 $451 0 $258 $-1 forward 7 unknown #
vertex $-1 $259 $452 #
ellipse-curve $-1 -16.656725062501593 27.86724526366001 4.3298482499015298 0 0.57357644374324357 0.81915203911291934 2 0 0 1 I I #
point $-1 -14.656725062501593 30.607255662510376 8.2429885643137517 #
edge $-1 $453 1 $453 0 $262 $-1 forward 7 unknown #
vertex $-1 $263 $454 #
ellipse-curve $-1 -6.6626900250006429 27.86724526366001 4.3298482499015298 0 0.57357644374324357 0.81915203911291934 2 0 0 1 I I #
point $-1 -4.6626900250006429 30.607255662510376 8.2429885643137517 #
loop $-1 $-1 $275 $266 #
plane-surface $-1 0 36.203718068696212 0 0 -1 0 0 0 -1 forward_v I I I I #
coedge $-1 $269 $382 $278 $390 forward $172 $-1 #
edge $-1 $387 -72.407436137392438 $383 -58.743397866190961 $270 $455 forward 7 unknown #
coedge $-1 $275 $456 $271 $381 forward $376 $-1 #
edge $-1 $384 71.516374883953475 $387 79.353745362720801 $380 $457 forward 7 unknown #
coedge $-1 $378 $272 $456 $458 forward $172 $-1 #
vertex $-1 $273 $459 #
vertex $-1 $458 $460 #
straight-curve $-1 33.313450125003172 30.983326395373329 12.161673803697411 0 1 0 I I #
coedge $-1 $456 $275 $279 $391 forward $376 $-1 #
vertex $-1 $381 $461 #
straight-curve $-1 -8.3283625312507965 36.203718068696219 4.3243033249300851 -1 0 0 I I #
straight-curve $-1 -8.3283625312507965 25.01079325632454 12.161673803697415 1 0 0 I I #
edge $-1 $462 -5.220391673322883 $281 5.9725331390487817 $378 $463 forward 7 unknown #
edge $-1 $280 -79.353745362720801 $462 -71.516374883953475 $386 $464 forward 7 unknown #
point $-1 -3.5527136788005009e-015 36.203718068696212 4.3243033249300851 #
point $-1 -3.5527136788005009e-015 25.010793256324547 12.161673803697411 #
edge $-1 $465 1 $465 0 $283 $-1 forward 7 unknown #
vertex $-1 $284 $466 #
ellipse-curve $-1 6.6626900250006287 27.86724526366001 4.3298482499015298 0 0.57357644374324357 0.81915203911291934 2 0 0 1 I I #
point $-1 8.6626900250006287 30.607255662510376 8.2429885643137517 #
edge $-1 $467 1 $467 0 $287 $-1 forward 7 unknown #
vertex $-1 $288 $468 #
ellipse-curve $-1 16.656725062501579 27.86724526366001 4.3298482499015298 0 0.57357644374324357 0.81915203911291934 2 0 0 1 I I #
point $-1 18.656725062501579 30.607255662510376 8.2429885643137517 #
edge $-1 $469 1 $469 0 $291 $-1 forward 7 unknown #
vertex $-1 $292 $470 #
ellipse-curve $-1 26.650760100002529 27.86724526366001 4.3298482499015298 0 0.57357644374324357 0.81915203911291934 2 0 0 1 I I #
point $-1 28.650760100002529 30.607255662510376 8.2429885643137517 #
plane-surface $-1 74.162419507431252 0 0 -1 0 0 0 0 1 forward_v I I I I #
coedge $-1 $300 $298 $302 $411 reversed $201 $-1 #
edge $-1 $313 -12.161673803697409 $413 12.161673803697409 $312 $471 forward 7 unknown #
vertex $-1 $411 $472 #
straight-curve $-1 -74.162419507431252 -36.203718068696212 0 0 0 -1 I I #
edge $-1 $409 -36.203718068696212 $413 36.203718068696212 $407 $473 forward 7 unknown #
straight-curve $-1 0 -36.203718068696212 -12.161673803697409 -1 0 0 I I #
vertex $-1 $305 $474 #
straight-curve $-1 0 36.203718068696212 -12.161673803697409 1 0 0 I I #
point $-1 74.162419507431252 36.203718068696212 -12.161673803697409 #
point $-1 74.162419507431252 -36.203718068696212 -12.161673803697409 #
straight-curve $-1 -74.162419507431252 0 12.161673803697409 0 -1 0 I I #
point $-1 -74.162419507431252 36.203718068696212 12.161673803697409 #
point $-1 -74.162419507431252 -36.203718068696212 12.161673803697409 #
straight-curve $-1 74.162419507431252 -36.203718068696212 0 0 0 -1 I I #
straight-curve $-1 74.162419507431252 36.203718068696212 0 0 0 -1 I I #
plane-surface $-1 74.162419507431252 0 0 -1 0 0 0 0 1 forward_v I I I I #
coedge $-1 $426 $325 $336 $435 forward $220 $-1 #
coedge $-1 $325 $426 $339 $437 reversed $220 $-1 #
straight-curve $-1 74.162419507431252 -20.93370052574123 -1.5355692764371351 0 0 1 I I #
coedge $-1 $424 $423 $328 $427 forward $220 $-1 #
edge $-1 $430 6.6493458771318696 $428 21.919363420086853 $426 $475 forward 7 unknown #
vertex $-1 $330 $476 #
straight-curve $-1 0 -36.203718068696212 -5.0277624669021534 1 0 0 I I #
vertex $-1 $427 $477 #
straight-curve $-1 0 -20.93370052574123 -5.0277624669021534 1 0 0 I I #
point $-1 74.162419507431252 -36.203718068696212 -5.0277624669021534 #
point $-1 74.162419507431252 -20.93370052574123 -5.0277624669021534 #
straight-curve $-1 -74.162419507431252 -14.28435464860936 -1.1145146388463876 0 1 0 I I #
edge $-1 $337 -0.42105463759074757 $430 3.4921931904650183 $423 $478 forward 7 unknown #
point $-1 -74.162419507431252 -20.93370052574123 -1.1145146388463876 #
edge $-1 $341 1.1145146388463876 $428 5.0277624669021534 $424 $479 forward 7 unknown #
point $-1 -74.162419507431252 -36.203718068696212 -1.1145146388463876 #
straight-curve $-1 74.162419507431252 -36.203718068696212 0 0 0 -1 I I #
edge $-1 $441 71.516374883953475 $444 79.353745362720801 $347 $480 forward 7 unknown #
vertex $-1 $361 $481 #
straight-curve $-1 -3.5527136788005009e-015 30.983326395373329 12.161673803697411 0 1 0 I I #
edge $-1 $444 -8.328362531250793 $358 24.98508759375239 $357 $482 forward 7 unknown #
vertex $-1 $443 $483 #
straight-curve $-1 -3.5527136788005009e-015 -23.10898089018729 45.855503045181663 0 -0.81915203911291934 0.57357644374324357 I I #
point $-1 -3.5527136788005009e-015 25.010793256324547 12.161673803697411 #
point $-1 -33.313450125003186 36.203718068696212 4.3243033249300851 #
straight-curve $-1 0 36.203718068696212 12.161673803697409 -1 0 0 I I #
vertex $-1 $364 $484 #
point $-1 -24.650760100002543 27.86724526366001 4.3298482499015298 #
vertex $-1 $368 $485 #
point $-1 -14.656725062501593 27.86724526366001 4.3298482499015298 #
vertex $-1 $372 $486 #
point $-1 -4.6626900250006429 27.86724526366001 4.3298482499015298 #
straight-curve $-1 33.313450125003172 -23.10898089018729 45.855503045181663 0 -0.81915203911291934 0.57357644374324357 I I #
coedge $-1 $380 $386 $382 $458 reversed $376 $-1 #
straight-curve $-1 33.313450125003172 36.203718068696212 83.678048687650886 0 0 -1 I I #
edge $-1 $384 -33.313450125003172 $462 3.5527136788005009e-015 $456 $487 forward 7 unknown #
point $-1 33.313450125003172 25.010793256324547 12.161673803697411 #
point $-1 33.313450125003172 36.203718068696212 12.161673803697409 #
point $-1 33.313450125003172 36.203718068696212 4.3243033249300851 #
vertex $-1 $391 $488 #
straight-curve $-1 -3.5527136788005009e-015 30.983326395373329 12.161673803697411 0 -1 0 I I #
straight-curve $-1 -3.5527136788005009e-015 36.203718068696212 83.678048687650886 0 0 1 I I #
vertex $-1 $394 $489 #
point $-1 8.6626900250006287 27.86724526366001 4.3298482499015298 #
vertex $-1 $398 $490 #
point $-1 18.656725062501579 27.86724526366001 4.3298482499015298 #
vertex $-1 $402 $491 #
point $-1 28.650760100002529 27.86724526366001 4.3298482499015298 #
straight-curve $-1 -74.162419507431252 36.203718068696212 0 0 0 -1 I I #
point $-1 -74.162419507431252 -36.203718068696212 -12.161673803697409 #
straight-curve $-1 -74.162419507431252 0 -12.161673803697409 0 1 0 I I #
point $-1 -74.162419507431252 36.203718068696212 -12.161673803697409 #
straight-curve $-1 -74.162419507431252 -14.28435464860936 -5.0277624669021534 0 -1 0 I I #
point $-1 -74.162419507431252 -36.203718068696212 -5.0277624669021534 #
point $-1 -74.162419507431252 -20.93370052574123 -5.0277624669021534 #
straight-curve $-1 -74.162419507431252 -20.93370052574123 -1.5355692764371351 0 0 -1 I I #
straight-curve $-1 -74.162419507431252 -36.203718068696212 0 0 0 -1 I I #
straight-curve $-1 -3.5527136788005009e-015 36.203718068696212 83.678048687650886 0 0 -1 I I #
point $-1 -3.5527136788005009e-015 36.203718068696212 12.161673803697409 #
straight-curve $-1 -8.3283625312507965 36.203718068696219 4.3243033249300851 -1 0 0 I I #
point $-1 -3.5527136788005009e-015 36.203718068696212 4.3243033249300851 #
point $-1 -26.650760100002543 26.720092376173525 2.6915441716756914 #
point $-1 -16.656725062501593 26.720092376173525 2.6915441716756914 #
point $-1 -6.6626900250006429 26.720092376173525 2.6915441716756914 #
straight-curve $-1 0 36.203718068696212 12.161673803697409 -1 0 0 I I #
point $-1 -3.5527136788005009e-015 36.203718068696212 12.161673803697409 #
point $-1 6.6626900250006287 26.720092376173525 2.6915441716756914 #
point $-1 16.656725062501579 26.720092376173525 2.6915441716756914 #
point $-1 26.650760100002529 26.720092376173525 2.6915441716756914 #
End-of-ACIS-data 