500 0 17 0           
7 Unknown 11 ACIS 5.0 NT 24 Fri Mar 26 02:03:19 1999 
-1 9.9999999999999995e-007 1e-010 
body $-1 $17 $-1 $18 #
body $-1 $19 $-1 $20 #
body $-1 $21 $-1 $22 #
body $-1 $23 $-1 $24 #
body $-1 $25 $-1 $26 #
body $-1 $27 $-1 $28 #
body $-1 $29 $-1 $30 #
body $-1 $31 $-1 $32 #
body $-1 $33 $-1 $34 #
body $-1 $35 $-1 $36 #
body $-1 $37 $-1 $38 #
body $-1 $39 $-1 $40 #
body $-1 $41 $-1 $42 #
body $-1 $43 $-1 $44 #
body $-1 $45 $-1 $46 #
body $-1 $47 $-1 $48 #
body $-1 $49 $-1 $50 #
lump $-1 $-1 $51 $0 #
transform $-1 1 0 0 0 1 0 0 0 1 43.317972350230413 29.030457894371924 11.562037464923016 1 rotate no_reflect no_shear #
lump $-1 $-1 $52 $1 #
transform $-1 1 0 0 0 1 0 0 0 1 43.317972350230413 4.566643121090908 6.3439215023088824 1 rotate no_reflect no_shear #
lump $-1 $-1 $53 $2 #
transform $-1 0.57357642473473569 0 -0.81915205242281985 0 1 0 0.81915205242281985 0 0.57357642473473569 107.91162120062664 15.881560474029071 136.50196637374523 1 rotate no_reflect no_shear #
lump $-1 $-1 $54 $3 #
transform $-1 0.57357642473473569 0 -0.81915205242281985 0 -1 0 -0.81915205242281985 0 -0.57357642473473569 82.64087626609259 14.486230517886325 18.470729750538567 1 rotate no_reflect no_shear #
lump $-1 $-1 $55 $4 #
transform $-1 0.57357642473473569 0 -0.81915205242281985 0 -1 0 -0.81915205242281985 0 -0.57357642473473569 82.64087626609259 17.276890430171814 18.470729750538567 1 rotate no_reflect no_shear #
lump $-1 $-1 $56 $5 #
transform $-1 0.57357642473473569 0 -0.81915205242281985 0 1 0 0.81915205242281985 0 0.57357642473473569 107.91162120062664 28.11346786066958 136.50196637374523 1 rotate no_reflect no_shear #
lump $-1 $-1 $57 $6 #
transform $-1 0.57357642473473569 0 -0.81915205242281985 0 -1 0 -0.81915205242281985 0 -0.57357642473473569 82.64087626609259 26.718137904526834 18.470729750538567 1 rotate no_reflect no_shear #
lump $-1 $-1 $58 $7 #
transform $-1 0.57357642473473569 0 -0.81915205242281985 0 -1 0 -0.81915205242281985 0 -0.57357642473473569 82.64087626609259 29.508797816812322 18.470729750538567 1 rotate no_reflect no_shear #
lump $-1 $-1 $59 $8 #
transform $-1 0.57357642473473569 0 -0.81915205242281985 0 1 0 0.81915205242281985 0 0.57357642473473569 107.91162120062664 40.345375247310088 136.50196637374523 1 rotate no_reflect no_shear #
lump $-1 $-1 $60 $9 #
transform $-1 0.57357642473473569 0 -0.81915205242281985 0 -1 0 -0.81915205242281985 0 -0.57357642473473569 82.64087626609259 38.950045291167342 18.470729750538567 1 rotate no_reflect no_shear #
lump $-1 $-1 $61 $10 #
transform $-1 0.57357642473473569 0 -0.81915205242281985 0 -1 0 -0.81915205242281985 0 -0.57357642473473569 82.64087626609259 41.740705203452833 18.470729750538567 1 rotate no_reflect no_shear #
lump $-1 $-1 $62 $11 #
transform $-1 0.57357642473473569 0 -0.81915205242281985 0 1 0 0.81915205242281985 0 0.57357642473473569 107.91162120062664 52.577282633950595 136.50196637374523 1 rotate no_reflect no_shear #
lump $-1 $-1 $63 $12 #
transform $-1 0.57357642473473569 0 -0.81915205242281985 0 -1 0 -0.81915205242281985 0 -0.57357642473473569 82.64087626609259 51.18195267780785 18.470729750538567 1 rotate no_reflect no_shear #
lump $-1 $-1 $64 $13 #
transform $-1 0.57357642473473569 0 -0.81915205242281985 0 -1 0 -0.81915205242281985 0 -0.57357642473473569 82.64087626609259 53.972612590093341 18.470729750538567 1 rotate no_reflect no_shear #
lump $-1 $-1 $65 $14 #
transform $-1 0.75470957328743171 0 0.6560590369687036 0 1 0 -0.6560590369687036 0 0.75470957328743171 -56.838294447058196 51.889355708601506 83.735604467915692 1 rotate no_reflect no_shear #
lump $-1 $-1 $66 $15 #
transform $-1 0.75470957328743171 0 0.6560590369687036 0 -1 0 0.6560590369687036 0 -0.75470957328743171 5.6494039756469636 49.244401388540503 17.396920142838397 1 rotate no_reflect no_shear #
lump $-1 $-1 $67 $16 #
transform $-1 0.75470957328743171 0 0.6560590369687036 0 -1 0 0.6560590369687036 0 -0.75470957328743171 5.6494039756469636 54.53431002866251 17.396920142838397 1 rotate no_reflect no_shear #
shell $-1 $-1 $-1 $68 $-1 $17 #
shell $-1 $-1 $-1 $69 $-1 $19 #
shell $-1 $-1 $-1 $70 $-1 $21 #
shell $-1 $-1 $-1 $71 $-1 $23 #
shell $-1 $-1 $-1 $72 $-1 $25 #
shell $-1 $-1 $-1 $73 $-1 $27 #
shell $-1 $-1 $-1 $74 $-1 $29 #
shell $-1 $-1 $-1 $75 $-1 $31 #
shell $-1 $-1 $-1 $76 $-1 $33 #
shell $-1 $-1 $-1 $77 $-1 $35 #
shell $-1 $-1 $-1 $78 $-1 $37 #
shell $-1 $-1 $-1 $79 $-1 $39 #
shell $-1 $-1 $-1 $80 $-1 $41 #
shell $-1 $-1 $-1 $81 $-1 $43 #
shell $-1 $-1 $-1 $82 $-1 $45 #
shell $-1 $-1 $-1 $83 $-1 $47 #
shell $-1 $-1 $-1 $84 $-1 $49 #
face $-1 $85 $86 $51 $-1 $87 forward single #
face $-1 $88 $89 $52 $-1 $90 forward single #
face $-1 $91 $92 $53 $-1 $93 forward single #
face $-1 $94 $95 $54 $-1 $96 forward single #
face $-1 $97 $98 $55 $-1 $99 forward single #
face $-1 $100 $101 $56 $-1 $102 forward single #
face $-1 $103 $104 $57 $-1 $105 forward single #
face $-1 $106 $107 $58 $-1 $108 forward single #
face $-1 $109 $110 $59 $-1 $111 forward single #
face $-1 $112 $113 $60 $-1 $114 forward single #
face $-1 $115 $116 $61 $-1 $117 forward single #
face $-1 $118 $119 $62 $-1 $120 forward single #
face $-1 $121 $122 $63 $-1 $123 forward single #
face $-1 $124 $125 $64 $-1 $126 forward single #
face $-1 $127 $128 $65 $-1 $129 forward single #
face $-1 $130 $131 $66 $-1 $132 forward single #
face $-1 $133 $134 $67 $-1 $135 forward single #
face $-1 $136 $137 $51 $-1 $138 reversed single #
loop $-1 $-1 $139 $68 #
plane-surface $-1 0 0 11.562037464923016 0 0 1 1 0 0 forward_v I I I I #
face $-1 $140 $141 $52 $-1 $142 reversed single #
loop $-1 $-1 $143 $69 #
plane-surface $-1 0 0 1.5881702452428361 0 0 1 1 0 0 forward_v I I I I #
face $-1 $144 $145 $53 $-1 $146 reversed single #
loop $-1 $-1 $147 $70 #
plane-surface $-1 0 0 86.635944700460826 0 0 1 1 0 0 forward_v I I I I #
face $-1 $148 $149 $54 $-1 $150 forward single #
loop $-1 $151 $152 $71 #
cone-surface $-1 0 0 -1.0072862941373941 0 0 1 0.5 0 0 1 I I 0 1 0.5 forward I I I I #
face $-1 $153 $154 $55 $-1 $155 forward single #
loop $-1 $156 $157 $72 #
cone-surface $-1 0 0 -1.0072862941373941 0 0 1 0.5 0 0 1 I I 0 1 0.5 forward I I I I #
face $-1 $158 $159 $56 $-1 $160 reversed single #
loop $-1 $-1 $161 $73 #
plane-surface $-1 0 0 86.635944700460826 0 0 1 1 0 0 forward_v I I I I #
face $-1 $162 $163 $57 $-1 $164 forward single #
loop $-1 $165 $166 $74 #
cone-surface $-1 0 0 -1.0072862941373941 0 0 1 0.5 0 0 1 I I 0 1 0.5 forward I I I I #
face $-1 $167 $168 $58 $-1 $169 forward single #
loop $-1 $170 $171 $75 #
cone-surface $-1 0 0 -1.0072862941373941 0 0 1 0.5 0 0 1 I I 0 1 0.5 forward I I I I #
face $-1 $172 $173 $59 $-1 $174 reversed single #
loop $-1 $-1 $175 $76 #
plane-surface $-1 0 0 86.635944700460826 0 0 1 1 0 0 forward_v I I I I #
face $-1 $176 $177 $60 $-1 $178 forward single #
loop $-1 $179 $180 $77 #
cone-surface $-1 0 0 -1.0072862941373941 0 0 1 0.5 0 0 1 I I 0 1 0.5 forward I I I I #
face $-1 $181 $182 $61 $-1 $183 forward single #
loop $-1 $184 $185 $78 #
cone-surface $-1 0 0 -1.0072862941373941 0 0 1 0.5 0 0 1 I I 0 1 0.5 forward I I I I #
face $-1 $186 $187 $62 $-1 $188 reversed single #
loop $-1 $-1 $189 $79 #
plane-surface $-1 0 0 86.635944700460826 0 0 1 1 0 0 forward_v I I I I #
face $-1 $190 $191 $63 $-1 $192 forward single #
loop $-1 $193 $194 $80 #
cone-surface $-1 0 0 -1.0072862941373941 0 0 1 0.5 0 0 1 I I 0 1 0.5 forward I I I I #
face $-1 $195 $196 $64 $-1 $197 forward single #
loop $-1 $198 $199 $81 #
cone-surface $-1 0 0 -1.0072862941373941 0 0 1 0.5 0 0 1 I I 0 1 0.5 forward I I I I #
face $-1 $200 $201 $65 $-1 $202 reversed single #
loop $-1 $-1 $203 $82 #
plane-surface $-1 0 0 86.635944700460826 0 0 1 1 0 0 forward_v I I I I #
face $-1 $204 $205 $66 $-1 $206 forward single #
loop $-1 $207 $208 $83 #
cone-surface $-1 0 0 -2.4630573442793047 0 0 1 1 0 0 1 I I 0 1 1 forward I I I I #
face $-1 $209 $210 $67 $-1 $211 forward single #
loop $-1 $212 $213 $84 #
cone-surface $-1 0 0 -2.4630573442793047 0 0 1 1 0 0 1 I I 0 1 1 forward I I I I #
face $-1 $214 $215 $51 $-1 $216 reversed single #
loop $-1 $-1 $217 $85 #
plane-surface $-1 0 0 -11.562037464923016 0 0 1 1 0 0 forward_v I I I I #
coedge $-1 $218 $219 $220 $221 forward $86 $-1 #
face $-1 $222 $223 $52 $-1 $224 reversed single #
loop $-1 $-1 $225 $88 #
plane-surface $-1 0 0 -1.5881702452428361 0 0 1 1 0 0 forward_v I I I I #
coedge $-1 $226 $227 $228 $229 forward $89 $-1 #
face $-1 $230 $231 $53 $-1 $232 reversed single #
loop $-1 $-1 $233 $91 #
plane-surface $-1 0 0 -86.635944700460826 0 0 1 1 0 0 forward_v I I I I #
coedge $-1 $234 $235 $236 $237 forward $92 $-1 #
face $-1 $-1 $238 $54 $-1 $239 forward single #
loop $-1 $-1 $240 $94 #
plane-surface $-1 0 0 -1.7645725882747882 0 0 -1 -1 0 0 forward_v I I I I #
loop $-1 $-1 $241 $71 #
coedge $-1 $152 $152 $240 $242 reversed $95 $-1 #
face $-1 $-1 $243 $55 $-1 $244 forward single #
loop $-1 $-1 $245 $97 #
plane-surface $-1 0 0 -1.7645725882747882 0 0 -1 -1 0 0 forward_v I I I I #
loop $-1 $-1 $246 $72 #
coedge $-1 $157 $157 $245 $247 reversed $98 $-1 #
face $-1 $248 $249 $56 $-1 $250 reversed single #
loop $-1 $-1 $251 $100 #
plane-surface $-1 0 0 -86.635944700460826 0 0 1 1 0 0 forward_v I I I I #
coedge $-1 $252 $253 $254 $255 forward $101 $-1 #
face $-1 $-1 $256 $57 $-1 $257 forward single #
loop $-1 $-1 $258 $103 #
plane-surface $-1 0 0 -1.7645725882747882 0 0 -1 -1 0 0 forward_v I I I I #
loop $-1 $-1 $259 $74 #
coedge $-1 $166 $166 $258 $260 reversed $104 $-1 #
face $-1 $-1 $261 $58 $-1 $262 forward single #
loop $-1 $-1 $263 $106 #
plane-surface $-1 0 0 -1.7645725882747882 0 0 -1 -1 0 0 forward_v I I I I #
loop $-1 $-1 $264 $75 #
coedge $-1 $171 $171 $263 $265 reversed $107 $-1 #
face $-1 $266 $267 $59 $-1 $268 reversed single #
loop $-1 $-1 $269 $109 #
plane-surface $-1 0 0 -86.635944700460826 0 0 1 1 0 0 forward_v I I I I #
coedge $-1 $270 $271 $272 $273 forward $110 $-1 #
face $-1 $-1 $274 $60 $-1 $275 forward single #
loop $-1 $-1 $276 $112 #
plane-surface $-1 0 0 -1.7645725882747882 0 0 -1 -1 0 0 forward_v I I I I #
loop $-1 $-1 $277 $77 #
coedge $-1 $180 $180 $276 $278 reversed $113 $-1 #
face $-1 $-1 $279 $61 $-1 $280 forward single #
loop $-1 $-1 $281 $115 #
plane-surface $-1 0 0 -1.7645725882747882 0 0 -1 -1 0 0 forward_v I I I I #
loop $-1 $-1 $282 $78 #
coedge $-1 $185 $185 $281 $283 reversed $116 $-1 #
face $-1 $284 $285 $62 $-1 $286 reversed single #
loop $-1 $-1 $287 $118 #
plane-surface $-1 0 0 -86.635944700460826 0 0 1 1 0 0 forward_v I I I I #
coedge $-1 $288 $289 $290 $291 forward $119 $-1 #
face $-1 $-1 $292 $63 $-1 $293 forward single #
loop $-1 $-1 $294 $121 #
plane-surface $-1 0 0 -1.7645725882747882 0 0 -1 -1 0 0 forward_v I I I I #
loop $-1 $-1 $295 $80 #
coedge $-1 $194 $194 $294 $296 reversed $122 $-1 #
face $-1 $-1 $297 $64 $-1 $298 forward single #
loop $-1 $-1 $299 $124 #
plane-surface $-1 0 0 -1.7645725882747882 0 0 -1 -1 0 0 forward_v I I I I #
loop $-1 $-1 $300 $81 #
coedge $-1 $199 $199 $299 $301 reversed $125 $-1 #
face $-1 $302 $303 $65 $-1 $304 reversed single #
loop $-1 $-1 $305 $127 #
plane-surface $-1 0 0 -86.635944700460826 0 0 1 1 0 0 forward_v I I I I #
coedge $-1 $306 $307 $308 $309 forward $128 $-1 #
face $-1 $-1 $310 $66 $-1 $311 forward single #
loop $-1 $-1 $312 $130 #
plane-surface $-1 0 0 -4.4261146885586102 0 0 -1 -1 0 0 forward_v I I I I #
loop $-1 $-1 $313 $83 #
coedge $-1 $208 $208 $312 $314 reversed $131 $-1 #
face $-1 $-1 $315 $67 $-1 $316 forward single #
loop $-1 $-1 $317 $133 #
plane-surface $-1 0 0 -4.4261146885586102 0 0 -1 -1 0 0 forward_v I I I I #
loop $-1 $-1 $318 $84 #
coedge $-1 $213 $213 $317 $319 reversed $134 $-1 #
face $-1 $320 $321 $51 $-1 $322 reversed single #
loop $-1 $-1 $323 $136 #
plane-surface $-1 0 -29.030457894371924 0 0 1 0 0 0 1 forward_v I I I I #
coedge $-1 $324 $325 $326 $327 forward $137 $-1 #
coedge $-1 $328 $139 $329 $330 forward $86 $-1 #
coedge $-1 $139 $328 $331 $332 forward $86 $-1 #
coedge $-1 $333 $334 $139 $221 reversed $335 $-1 #
edge $-1 $336 -29.030457894371924 $337 29.030457894371924 $220 $338 forward 7 unknown #
face $-1 $339 $340 $52 $-1 $341 reversed single #
loop $-1 $-1 $342 $140 #
plane-surface $-1 0 -4.566643121090908 0 0 1 0 0 0 1 forward_v I I I I #
coedge $-1 $343 $344 $345 $346 forward $141 $-1 #
coedge $-1 $347 $143 $348 $349 forward $89 $-1 #
coedge $-1 $143 $347 $350 $351 forward $89 $-1 #
coedge $-1 $352 $353 $143 $229 reversed $354 $-1 #
edge $-1 $355 -4.566643121090908 $356 4.566643121090908 $228 $357 forward 7 unknown #
face $-1 $358 $359 $53 $-1 $360 reversed single #
loop $-1 $-1 $361 $144 #
plane-surface $-1 0 -3.255769897666406 0 0 1 0 0 0 1 forward_v I I I I #
coedge $-1 $362 $363 $364 $365 forward $145 $-1 #
coedge $-1 $366 $147 $367 $368 forward $92 $-1 #
coedge $-1 $147 $366 $369 $370 forward $92 $-1 #
coedge $-1 $371 $372 $147 $237 reversed $373 $-1 #
edge $-1 $374 -3.255769897666406 $375 3.255769897666406 $236 $376 forward 7 unknown #
loop $-1 $377 $378 $148 #
cone-surface $-1 0 0 0 0 0 1 0.25 0 0 1 I I -0.70710678118654746 0.70710678118654746 0.25 forward I I I I #
coedge $-1 $240 $240 $152 $242 forward $149 $-1 #
coedge $-1 $241 $241 $378 $379 forward $151 $-1 #
edge $-1 $380 0 $380 6.2831853071796004 $240 $381 forward 7 unknown #
loop $-1 $382 $383 $153 #
cone-surface $-1 0 0 0 0 0 1 0.25 0 0 1 I I -0.70710678118654746 0.70710678118654746 0.25 forward I I I I #
coedge $-1 $245 $245 $157 $247 forward $154 $-1 #
coedge $-1 $246 $246 $383 $384 forward $156 $-1 #
edge $-1 $385 0 $385 6.2831853071796004 $245 $386 forward 7 unknown #
face $-1 $387 $388 $56 $-1 $389 reversed single #
loop $-1 $-1 $390 $158 #
plane-surface $-1 0 -3.255769897666406 0 0 1 0 0 0 1 forward_v I I I I #
coedge $-1 $391 $392 $393 $394 forward $159 $-1 #
coedge $-1 $395 $161 $396 $397 forward $101 $-1 #
coedge $-1 $161 $395 $398 $399 forward $101 $-1 #
coedge $-1 $400 $401 $161 $255 reversed $402 $-1 #
edge $-1 $403 -3.255769897666406 $404 3.255769897666406 $254 $405 forward 7 unknown #
loop $-1 $406 $407 $162 #
cone-surface $-1 0 0 0 0 0 1 0.25 0 0 1 I I -0.70710678118654746 0.70710678118654746 0.25 forward I I I I #
coedge $-1 $258 $258 $166 $260 forward $163 $-1 #
coedge $-1 $259 $259 $407 $408 forward $165 $-1 #
edge $-1 $409 0 $409 6.2831853071796004 $258 $410 forward 7 unknown #
loop $-1 $411 $412 $167 #
cone-surface $-1 0 0 0 0 0 1 0.25 0 0 1 I I -0.70710678118654746 0.70710678118654746 0.25 forward I I I I #
coedge $-1 $263 $263 $171 $265 forward $168 $-1 #
coedge $-1 $264 $264 $412 $413 forward $170 $-1 #
edge $-1 $414 0 $414 6.2831853071796004 $263 $415 forward 7 unknown #
face $-1 $416 $417 $59 $-1 $418 reversed single #
loop $-1 $-1 $419 $172 #
plane-surface $-1 0 -3.255769897666406 0 0 1 0 0 0 1 forward_v I I I I #
coedge $-1 $420 $421 $422 $423 forward $173 $-1 #
coedge $-1 $424 $175 $425 $426 forward $110 $-1 #
coedge $-1 $175 $424 $427 $428 forward $110 $-1 #
coedge $-1 $429 $430 $175 $273 reversed $431 $-1 #
edge $-1 $432 -3.255769897666406 $433 3.255769897666406 $272 $434 forward 7 unknown #
loop $-1 $435 $436 $176 #
cone-surface $-1 0 0 0 0 0 1 0.25 0 0 1 I I -0.70710678118654746 0.70710678118654746 0.25 forward I I I I #
coedge $-1 $276 $276 $180 $278 forward $177 $-1 #
coedge $-1 $277 $277 $436 $437 forward $179 $-1 #
edge $-1 $438 0 $438 6.2831853071796004 $276 $439 forward 7 unknown #
loop $-1 $440 $441 $181 #
cone-surface $-1 0 0 0 0 0 1 0.25 0 0 1 I I -0.70710678118654746 0.70710678118654746 0.25 forward I I I I #
coedge $-1 $281 $281 $185 $283 forward $182 $-1 #
coedge $-1 $282 $282 $441 $442 forward $184 $-1 #
edge $-1 $443 0 $443 6.2831853071796004 $281 $444 forward 7 unknown #
face $-1 $445 $446 $62 $-1 $447 reversed single #
loop $-1 $-1 $448 $186 #
plane-surface $-1 0 -3.255769897666406 0 0 1 0 0 0 1 forward_v I I I I #
coedge $-1 $449 $450 $451 $452 forward $187 $-1 #
coedge $-1 $453 $189 $454 $455 forward $119 $-1 #
coedge $-1 $189 $453 $456 $457 forward $119 $-1 #
coedge $-1 $458 $459 $189 $291 reversed $460 $-1 #
edge $-1 $461 -3.255769897666406 $462 3.255769897666406 $290 $463 forward 7 unknown #
loop $-1 $464 $465 $190 #
cone-surface $-1 0 0 0 0 0 1 0.25 0 0 1 I I -0.70710678118654746 0.70710678118654746 0.25 forward I I I I #
coedge $-1 $294 $294 $194 $296 forward $191 $-1 #
coedge $-1 $295 $295 $465 $466 forward $193 $-1 #
edge $-1 $467 0 $467 6.2831853071796004 $294 $468 forward 7 unknown #
loop $-1 $469 $470 $195 #
cone-surface $-1 0 0 0 0 0 1 0.25 0 0 1 I I -0.70710678118654746 0.70710678118654746 0.25 forward I I I I #
coedge $-1 $299 $299 $199 $301 forward $196 $-1 #
coedge $-1 $300 $300 $470 $471 forward $198 $-1 #
edge $-1 $472 0 $472 6.2831853071796004 $299 $473 forward 7 unknown #
face $-1 $474 $475 $65 $-1 $476 reversed single #
loop $-1 $-1 $477 $200 #
plane-surface $-1 0 -6.171560080142342 0 0 1 0 0 0 1 forward_v I I I I #
coedge $-1 $478 $479 $480 $481 forward $201 $-1 #
coedge $-1 $482 $203 $483 $484 forward $128 $-1 #
coedge $-1 $203 $482 $485 $486 forward $128 $-1 #
coedge $-1 $487 $488 $203 $309 reversed $489 $-1 #
edge $-1 $490 -6.171560080142342 $491 6.171560080142342 $308 $492 forward 7 unknown #
loop $-1 $493 $494 $204 #
cone-surface $-1 0 0 0 0 0 1 0.5 0 0 1 I I -0.70710678118654746 0.70710678118654746 0.5 forward I I I I #
coedge $-1 $312 $312 $208 $314 forward $205 $-1 #
coedge $-1 $313 $313 $494 $495 forward $207 $-1 #
edge $-1 $496 0 $496 6.2831853071796004 $312 $497 forward 7 unknown #
loop $-1 $498 $499 $209 #
cone-surface $-1 0 0 0 0 0 1 0.5 0 0 1 I I -0.70710678118654746 0.70710678118654746 0.5 forward I I I I #
coedge $-1 $317 $317 $213 $319 forward $210 $-1 #
coedge $-1 $318 $318 $499 $500 forward $212 $-1 #
edge $-1 $501 0 $501 6.2831853071796004 $317 $502 forward 7 unknown #
face $-1 $503 $504 $51 $-1 $505 reversed single #
loop $-1 $-1 $506 $214 #
plane-surface $-1 -43.317972350230413 0 0 1 0 0 0 0 -1 forward_v I I I I #
coedge $-1 $507 $331 $508 $509 forward $215 $-1 #
coedge $-1 $510 $217 $507 $511 forward $137 $-1 #
coedge $-1 $217 $510 $512 $513 forward $137 $-1 #
coedge $-1 $334 $333 $217 $327 reversed $335 $-1 #
edge $-1 $514 -29.030457894371924 $515 29.030457894371924 $326 $516 forward 7 unknown #
coedge $-1 $219 $218 $517 $518 forward $86 $-1 #
coedge $-1 $519 $520 $218 $330 reversed $504 $-1 #
edge $-1 $337 -43.317972350230413 $521 43.317972350230413 $329 $522 forward 7 unknown #
coedge $-1 $323 $523 $219 $332 reversed $215 $-1 #
edge $-1 $524 -43.317972350230413 $336 43.317972350230413 $331 $525 forward 7 unknown #
coedge $-1 $326 $220 $523 $526 forward $335 $-1 #
coedge $-1 $220 $326 $519 $527 reversed $335 $-1 #
loop $-1 $-1 $333 $503 #
vertex $-1 $221 $528 #
vertex $-1 $221 $529 #
straight-curve $-1 43.317972350230413 0 11.562037464923016 0 1 0 I I #
face $-1 $530 $531 $52 $-1 $532 reversed single #
loop $-1 $-1 $533 $222 #
plane-surface $-1 -43.317972350230413 0 0 1 0 0 0 0 -1 forward_v I I I I #
coedge $-1 $534 $350 $535 $536 forward $223 $-1 #
coedge $-1 $537 $225 $534 $538 forward $141 $-1 #
coedge $-1 $225 $537 $539 $540 forward $141 $-1 #
coedge $-1 $353 $352 $225 $346 reversed $354 $-1 #
edge $-1 $541 -4.566643121090908 $542 4.566643121090908 $345 $543 forward 7 unknown #
coedge $-1 $227 $226 $544 $545 forward $89 $-1 #
coedge $-1 $546 $547 $226 $349 reversed $531 $-1 #
edge $-1 $356 -43.317972350230413 $548 43.317972350230413 $348 $549 forward 7 unknown #
coedge $-1 $342 $550 $227 $351 reversed $223 $-1 #
edge $-1 $551 -43.317972350230413 $355 43.317972350230413 $350 $552 forward 7 unknown #
coedge $-1 $345 $228 $550 $553 forward $354 $-1 #
coedge $-1 $228 $345 $546 $554 reversed $354 $-1 #
loop $-1 $-1 $352 $530 #
vertex $-1 $229 $555 #
vertex $-1 $229 $556 #
straight-curve $-1 43.317972350230413 0 1.5881702452428361 0 1 0 I I #
face $-1 $557 $558 $53 $-1 $559 reversed single #
loop $-1 $-1 $560 $230 #
plane-surface $-1 -173.27188940092165 0 0 1 0 0 0 0 -1 forward_v I I I I #
coedge $-1 $561 $369 $562 $563 forward $231 $-1 #
coedge $-1 $564 $233 $561 $565 forward $145 $-1 #
coedge $-1 $233 $564 $566 $567 forward $145 $-1 #
coedge $-1 $372 $371 $233 $365 reversed $373 $-1 #
edge $-1 $568 -3.255769897666406 $569 3.255769897666406 $364 $570 forward 7 unknown #
coedge $-1 $235 $234 $571 $572 forward $92 $-1 #
coedge $-1 $573 $574 $234 $368 reversed $558 $-1 #
edge $-1 $375 -173.27188940092165 $575 173.27188940092165 $367 $576 forward 7 unknown #
coedge $-1 $361 $577 $235 $370 reversed $231 $-1 #
edge $-1 $578 -173.27188940092165 $374 173.27188940092165 $369 $579 forward 7 unknown #
coedge $-1 $364 $236 $577 $580 forward $373 $-1 #
coedge $-1 $236 $364 $573 $581 reversed $373 $-1 #
loop $-1 $-1 $371 $557 #
vertex $-1 $237 $582 #
vertex $-1 $237 $583 #
straight-curve $-1 173.27188940092165 0 86.635944700460826 0 1 0 I I #
loop $-1 $-1 $584 $148 #
coedge $-1 $378 $378 $241 $379 reversed $238 $-1 #
edge $-1 $585 0 $585 6.2831853071796004 $378 $586 forward 7 unknown #
vertex $-1 $242 $587 #
ellipse-curve $-1 0 0 -1.7645725882747882 0 0 -1 0.5 0 0 1 I I #
loop $-1 $-1 $588 $153 #
coedge $-1 $383 $383 $246 $384 reversed $243 $-1 #
edge $-1 $589 0 $589 6.2831853071796004 $383 $590 forward 7 unknown #
vertex $-1 $247 $591 #
ellipse-curve $-1 0 0 -1.7645725882747882 0 0 -1 0.5 0 0 1 I I #
face $-1 $592 $593 $56 $-1 $594 reversed single #
loop $-1 $-1 $595 $248 #
plane-surface $-1 -173.27188940092165 0 0 1 0 0 0 0 -1 forward_v I I I I #
coedge $-1 $596 $398 $597 $598 forward $249 $-1 #
coedge $-1 $599 $251 $596 $600 forward $159 $-1 #
coedge $-1 $251 $599 $601 $602 forward $159 $-1 #
coedge $-1 $401 $400 $251 $394 reversed $402 $-1 #
edge $-1 $603 -3.255769897666406 $604 3.255769897666406 $393 $605 forward 7 unknown #
coedge $-1 $253 $252 $606 $607 forward $101 $-1 #
coedge $-1 $608 $609 $252 $397 reversed $593 $-1 #
edge $-1 $404 -173.27188940092165 $610 173.27188940092165 $396 $611 forward 7 unknown #
coedge $-1 $390 $612 $253 $399 reversed $249 $-1 #
edge $-1 $613 -173.27188940092165 $403 173.27188940092165 $398 $614 forward 7 unknown #
coedge $-1 $393 $254 $612 $615 forward $402 $-1 #
coedge $-1 $254 $393 $608 $616 reversed $402 $-1 #
loop $-1 $-1 $400 $592 #
vertex $-1 $255 $617 #
vertex $-1 $255 $618 #
straight-curve $-1 173.27188940092165 0 86.635944700460826 0 1 0 I I #
loop $-1 $-1 $619 $162 #
coedge $-1 $407 $407 $259 $408 reversed $256 $-1 #
edge $-1 $620 0 $620 6.2831853071796004 $407 $621 forward 7 unknown #
vertex $-1 $260 $622 #
ellipse-curve $-1 0 0 -1.7645725882747882 0 0 -1 0.5 0 0 1 I I #
loop $-1 $-1 $623 $167 #
coedge $-1 $412 $412 $264 $413 reversed $261 $-1 #
edge $-1 $624 0 $624 6.2831853071796004 $412 $625 forward 7 unknown #
vertex $-1 $265 $626 #
ellipse-curve $-1 0 0 -1.7645725882747882 0 0 -1 0.5 0 0 1 I I #
face $-1 $627 $628 $59 $-1 $629 reversed single #
loop $-1 $-1 $630 $266 #
plane-surface $-1 -173.27188940092165 0 0 1 0 0 0 0 -1 forward_v I I I I #
coedge $-1 $631 $427 $632 $633 forward $267 $-1 #
coedge $-1 $634 $269 $631 $635 forward $173 $-1 #
coedge $-1 $269 $634 $636 $637 forward $173 $-1 #
coedge $-1 $430 $429 $269 $423 reversed $431 $-1 #
edge $-1 $638 -3.255769897666406 $639 3.255769897666406 $422 $640 forward 7 unknown #
coedge $-1 $271 $270 $641 $642 forward $110 $-1 #
coedge $-1 $643 $644 $270 $426 reversed $628 $-1 #
edge $-1 $433 -173.27188940092165 $645 173.27188940092165 $425 $646 forward 7 unknown #
coedge $-1 $419 $647 $271 $428 reversed $267 $-1 #
edge $-1 $648 -173.27188940092165 $432 173.27188940092165 $427 $649 forward 7 unknown #
coedge $-1 $422 $272 $647 $650 forward $431 $-1 #
coedge $-1 $272 $422 $643 $651 reversed $431 $-1 #
loop $-1 $-1 $429 $627 #
vertex $-1 $273 $652 #
vertex $-1 $273 $653 #
straight-curve $-1 173.27188940092165 0 86.635944700460826 0 1 0 I I #
loop $-1 $-1 $654 $176 #
coedge $-1 $436 $436 $277 $437 reversed $274 $-1 #
edge $-1 $655 0 $655 6.2831853071796004 $436 $656 forward 7 unknown #
vertex $-1 $278 $657 #
ellipse-curve $-1 0 0 -1.7645725882747882 0 0 -1 0.5 0 0 1 I I #
loop $-1 $-1 $658 $181 #
coedge $-1 $441 $441 $282 $442 reversed $279 $-1 #
edge $-1 $659 0 $659 6.2831853071796004 $441 $660 forward 7 unknown #
vertex $-1 $283 $661 #
ellipse-curve $-1 0 0 -1.7645725882747882 0 0 -1 0.5 0 0 1 I I #
face $-1 $662 $663 $62 $-1 $664 reversed single #
loop $-1 $-1 $665 $284 #
plane-surface $-1 -173.27188940092165 0 0 1 0 0 0 0 -1 forward_v I I I I #
coedge $-1 $666 $456 $667 $668 forward $285 $-1 #
coedge $-1 $669 $287 $666 $670 forward $187 $-1 #
coedge $-1 $287 $669 $671 $672 forward $187 $-1 #
coedge $-1 $459 $458 $287 $452 reversed $460 $-1 #
edge $-1 $673 -3.255769897666406 $674 3.255769897666406 $451 $675 forward 7 unknown #
coedge $-1 $289 $288 $676 $677 forward $119 $-1 #
coedge $-1 $678 $679 $288 $455 reversed $663 $-1 #
edge $-1 $462 -173.27188940092165 $680 173.27188940092165 $454 $681 forward 7 unknown #
coedge $-1 $448 $682 $289 $457 reversed $285 $-1 #
edge $-1 $683 -173.27188940092165 $461 173.27188940092165 $456 $684 forward 7 unknown #
coedge $-1 $451 $290 $682 $685 forward $460 $-1 #
coedge $-1 $290 $451 $678 $686 reversed $460 $-1 #
loop $-1 $-1 $458 $662 #
vertex $-1 $291 $687 #
vertex $-1 $291 $688 #
straight-curve $-1 173.27188940092165 0 86.635944700460826 0 1 0 I I #
loop $-1 $-1 $689 $190 #
coedge $-1 $465 $465 $295 $466 reversed $292 $-1 #
edge $-1 $690 0 $690 6.2831853071796004 $465 $691 forward 7 unknown #
vertex $-1 $296 $692 #
ellipse-curve $-1 0 0 -1.7645725882747882 0 0 -1 0.5 0 0 1 I I #
loop $-1 $-1 $693 $195 #
coedge $-1 $470 $470 $300 $471 reversed $297 $-1 #
edge $-1 $694 0 $694 6.2831853071796004 $470 $695 forward 7 unknown #
vertex $-1 $301 $696 #
ellipse-curve $-1 0 0 -1.7645725882747882 0 0 -1 0.5 0 0 1 I I #
face $-1 $697 $698 $65 $-1 $699 reversed single #
loop $-1 $-1 $700 $302 #
plane-surface $-1 -173.27188940092165 0 0 1 0 0 0 0 -1 forward_v I I I I #
coedge $-1 $701 $485 $702 $703 forward $303 $-1 #
coedge $-1 $704 $305 $701 $705 forward $201 $-1 #
coedge $-1 $305 $704 $706 $707 forward $201 $-1 #
coedge $-1 $488 $487 $305 $481 reversed $489 $-1 #
edge $-1 $708 -6.171560080142342 $709 6.171560080142342 $480 $710 forward 7 unknown #
coedge $-1 $307 $306 $711 $712 forward $128 $-1 #
coedge $-1 $713 $714 $306 $484 reversed $698 $-1 #
edge $-1 $491 -173.27188940092165 $715 173.27188940092165 $483 $716 forward 7 unknown #
coedge $-1 $477 $717 $307 $486 reversed $303 $-1 #
edge $-1 $718 -173.27188940092165 $490 173.27188940092165 $485 $719 forward 7 unknown #
coedge $-1 $480 $308 $717 $720 forward $489 $-1 #
coedge $-1 $308 $480 $713 $721 reversed $489 $-1 #
loop $-1 $-1 $487 $697 #
vertex $-1 $309 $722 #
vertex $-1 $309 $723 #
straight-curve $-1 173.27188940092165 0 86.635944700460826 0 1 0 I I #
loop $-1 $-1 $724 $204 #
coedge $-1 $494 $494 $313 $495 reversed $310 $-1 #
edge $-1 $725 0 $725 6.2831853071796004 $494 $726 forward 7 unknown #
vertex $-1 $314 $727 #
ellipse-curve $-1 0 0 -4.4261146885586102 0 0 -1 1 0 0 1 I I #
loop $-1 $-1 $728 $209 #
coedge $-1 $499 $499 $318 $500 reversed $315 $-1 #
edge $-1 $729 0 $729 6.2831853071796004 $499 $730 forward 7 unknown #
vertex $-1 $319 $731 #
ellipse-curve $-1 0 0 -4.4261146885586102 0 0 -1 1 0 0 1 I I #
face $-1 $-1 $335 $51 $-1 $732 reversed single #
loop $-1 $-1 $519 $320 #
plane-surface $-1 0 29.030457894371924 0 0 -1 0 0 0 -1 forward_v I I I I #
coedge $-1 $733 $517 $520 $734 forward $321 $-1 #
coedge $-1 $523 $323 $324 $511 reversed $215 $-1 #
coedge $-1 $517 $733 $323 $509 reversed $321 $-1 #
edge $-1 $524 -11.562037464923016 $735 11.562037464923016 $508 $736 forward 7 unknown #
coedge $-1 $325 $324 $733 $737 forward $137 $-1 #
edge $-1 $515 -43.317972350230413 $735 43.317972350230413 $507 $738 forward 7 unknown #
coedge $-1 $520 $519 $325 $513 reversed $504 $-1 #
edge $-1 $739 -43.317972350230413 $514 43.317972350230413 $512 $740 forward 7 unknown #
vertex $-1 $327 $741 #
vertex $-1 $526 $742 #
straight-curve $-1 43.317972350230413 0 -11.562037464923016 0 -1 0 I I #
coedge $-1 $506 $508 $328 $518 reversed $321 $-1 #
edge $-1 $521 -29.030457894371924 $524 29.030457894371924 $517 $743 forward 7 unknown #
coedge $-1 $512 $329 $334 $527 forward $504 $-1 #
coedge $-1 $329 $512 $506 $734 reversed $504 $-1 #
vertex $-1 $330 $744 #
straight-curve $-1 0 29.030457894371924 11.562037464923016 -1 0 0 I I #
coedge $-1 $331 $507 $333 $526 reversed $215 $-1 #
vertex $-1 $518 $745 #
straight-curve $-1 0 -29.030457894371924 11.562037464923016 1 0 0 I I #
edge $-1 $336 -11.562037464923016 $515 11.562037464923016 $333 $746 forward 7 unknown #
edge $-1 $337 -11.562037464923016 $514 11.562037464923016 $334 $747 forward 7 unknown #
point $-1 43.317972350230413 -29.030457894371924 11.562037464923016 #
point $-1 43.317972350230413 29.030457894371924 11.562037464923016 #
face $-1 $-1 $354 $52 $-1 $748 reversed single #
loop $-1 $-1 $546 $339 #
plane-surface $-1 0 4.566643121090908 0 0 -1 0 0 0 -1 forward_v I I I I #
coedge $-1 $749 $544 $547 $750 forward $340 $-1 #
coedge $-1 $550 $342 $343 $538 reversed $223 $-1 #
coedge $-1 $544 $749 $342 $536 reversed $340 $-1 #
edge $-1 $551 -1.5881702452428361 $751 1.5881702452428361 $535 $752 forward 7 unknown #
coedge $-1 $344 $343 $749 $753 forward $141 $-1 #
edge $-1 $542 -43.317972350230413 $751 43.317972350230413 $534 $754 forward 7 unknown #
coedge $-1 $547 $546 $344 $540 reversed $531 $-1 #
edge $-1 $755 -43.317972350230413 $541 43.317972350230413 $539 $756 forward 7 unknown #
vertex $-1 $346 $757 #
vertex $-1 $553 $758 #
straight-curve $-1 43.317972350230413 0 -1.5881702452428361 0 -1 0 I I #
coedge $-1 $533 $535 $347 $545 reversed $340 $-1 #
edge $-1 $548 -4.566643121090908 $551 4.566643121090908 $544 $759 forward 7 unknown #
coedge $-1 $539 $348 $353 $554 forward $531 $-1 #
coedge $-1 $348 $539 $533 $750 reversed $531 $-1 #
vertex $-1 $349 $760 #
straight-curve $-1 0 4.566643121090908 1.5881702452428361 -1 0 0 I I #
coedge $-1 $350 $534 $352 $553 reversed $223 $-1 #
vertex $-1 $545 $761 #
straight-curve $-1 0 -4.566643121090908 1.5881702452428361 1 0 0 I I #
edge $-1 $355 -1.5881702452428361 $542 1.5881702452428361 $352 $762 forward 7 unknown #
edge $-1 $356 -1.5881702452428361 $541 1.5881702452428361 $353 $763 forward 7 unknown #
point $-1 43.317972350230413 -4.566643121090908 1.5881702452428361 #
point $-1 43.317972350230413 4.566643121090908 1.5881702452428361 #
face $-1 $-1 $373 $53 $-1 $764 reversed single #
loop $-1 $-1 $573 $358 #
plane-surface $-1 0 3.255769897666406 0 0 -1 0 0 0 -1 forward_v I I I I #
coedge $-1 $765 $571 $574 $766 forward $359 $-1 #
coedge $-1 $577 $361 $362 $565 reversed $231 $-1 #
coedge $-1 $571 $765 $361 $563 reversed $359 $-1 #
edge $-1 $578 -86.635944700460826 $767 86.635944700460826 $562 $768 forward 7 unknown #
coedge $-1 $363 $362 $765 $769 forward $145 $-1 #
edge $-1 $569 -173.27188940092165 $767 173.27188940092165 $561 $770 forward 7 unknown #
coedge $-1 $574 $573 $363 $567 reversed $558 $-1 #
edge $-1 $771 -173.27188940092165 $568 173.27188940092165 $566 $772 forward 7 unknown #
vertex $-1 $365 $773 #
vertex $-1 $580 $774 #
straight-curve $-1 173.27188940092165 0 -86.635944700460826 0 -1 0 I I #
coedge $-1 $560 $562 $366 $572 reversed $359 $-1 #
edge $-1 $575 -3.255769897666406 $578 3.255769897666406 $571 $775 forward 7 unknown #
coedge $-1 $566 $367 $372 $581 forward $558 $-1 #
coedge $-1 $367 $566 $560 $766 reversed $558 $-1 #
vertex $-1 $368 $776 #
straight-curve $-1 0 3.255769897666406 86.635944700460826 -1 0 0 I I #
coedge $-1 $369 $561 $371 $580 reversed $231 $-1 #
vertex $-1 $572 $777 #
straight-curve $-1 0 -3.255769897666406 86.635944700460826 1 0 0 I I #
edge $-1 $374 -86.635944700460826 $569 86.635944700460826 $371 $778 forward 7 unknown #
edge $-1 $375 -86.635944700460826 $568 86.635944700460826 $372 $779 forward 7 unknown #
point $-1 173.27188940092165 -3.255769897666406 86.635944700460826 #
point $-1 173.27188940092165 3.255769897666406 86.635944700460826 #
coedge $-1 $584 $584 $-1 $780 reversed $377 $-1 #
vertex $-1 $379 $781 #
ellipse-curve $-1 0 0 -0.25 0 0 -1 0.5 0 0 1 I I #
point $-1 0.5 0 -1.7645725882747882 #
coedge $-1 $588 $588 $-1 $782 reversed $382 $-1 #
vertex $-1 $384 $783 #
ellipse-curve $-1 0 0 -0.25 0 0 -1 0.5 0 0 1 I I #
point $-1 0.5 0 -1.7645725882747882 #
face $-1 $-1 $402 $56 $-1 $784 reversed single #
loop $-1 $-1 $608 $387 #
plane-surface $-1 0 3.255769897666406 0 0 -1 0 0 0 -1 forward_v I I I I #
coedge $-1 $785 $606 $609 $786 forward $388 $-1 #
coedge $-1 $612 $390 $391 $600 reversed $249 $-1 #
coedge $-1 $606 $785 $390 $598 reversed $388 $-1 #
edge $-1 $613 -86.635944700460826 $787 86.635944700460826 $597 $788 forward 7 unknown #
coedge $-1 $392 $391 $785 $789 forward $159 $-1 #
edge $-1 $604 -173.27188940092165 $787 173.27188940092165 $596 $790 forward 7 unknown #
coedge $-1 $609 $608 $392 $602 reversed $593 $-1 #
edge $-1 $791 -173.27188940092165 $603 173.27188940092165 $601 $792 forward 7 unknown #
vertex $-1 $394 $793 #
vertex $-1 $615 $794 #
straight-curve $-1 173.27188940092165 0 -86.635944700460826 0 -1 0 I I #
coedge $-1 $595 $597 $395 $607 reversed $388 $-1 #
edge $-1 $610 -3.255769897666406 $613 3.255769897666406 $606 $795 forward 7 unknown #
coedge $-1 $601 $396 $401 $616 forward $593 $-1 #
coedge $-1 $396 $601 $595 $786 reversed $593 $-1 #
vertex $-1 $397 $796 #
straight-curve $-1 0 3.255769897666406 86.635944700460826 -1 0 0 I I #
coedge $-1 $398 $596 $400 $615 reversed $249 $-1 #
vertex $-1 $607 $797 #
straight-curve $-1 0 -3.255769897666406 86.635944700460826 1 0 0 I I #
edge $-1 $403 -86.635944700460826 $604 86.635944700460826 $400 $798 forward 7 unknown #
edge $-1 $404 -86.635944700460826 $603 86.635944700460826 $401 $799 forward 7 unknown #
point $-1 173.27188940092165 -3.255769897666406 86.635944700460826 #
point $-1 173.27188940092165 3.255769897666406 86.635944700460826 #
coedge $-1 $619 $619 $-1 $800 reversed $406 $-1 #
vertex $-1 $408 $801 #
ellipse-curve $-1 0 0 -0.25 0 0 -1 0.5 0 0 1 I I #
point $-1 0.5 0 -1.7645725882747882 #
coedge $-1 $623 $623 $-1 $802 reversed $411 $-1 #
vertex $-1 $413 $803 #
ellipse-curve $-1 0 0 -0.25 0 0 -1 0.5 0 0 1 I I #
point $-1 0.5 0 -1.7645725882747882 #
face $-1 $-1 $431 $59 $-1 $804 reversed single #
loop $-1 $-1 $643 $416 #
plane-surface $-1 0 3.255769897666406 0 0 -1 0 0 0 -1 forward_v I I I I #
coedge $-1 $805 $641 $644 $806 forward $417 $-1 #
coedge $-1 $647 $419 $420 $635 reversed $267 $-1 #
coedge $-1 $641 $805 $419 $633 reversed $417 $-1 #
edge $-1 $648 -86.635944700460826 $807 86.635944700460826 $632 $808 forward 7 unknown #
coedge $-1 $421 $420 $805 $809 forward $173 $-1 #
edge $-1 $639 -173.27188940092165 $807 173.27188940092165 $631 $810 forward 7 unknown #
coedge $-1 $644 $643 $421 $637 reversed $628 $-1 #
edge $-1 $811 -173.27188940092165 $638 173.27188940092165 $636 $812 forward 7 unknown #
vertex $-1 $423 $813 #
vertex $-1 $650 $814 #
straight-curve $-1 173.27188940092165 0 -86.635944700460826 0 -1 0 I I #
coedge $-1 $630 $632 $424 $642 reversed $417 $-1 #
edge $-1 $645 -3.255769897666406 $648 3.255769897666406 $641 $815 forward 7 unknown #
coedge $-1 $636 $425 $430 $651 forward $628 $-1 #
coedge $-1 $425 $636 $630 $806 reversed $628 $-1 #
vertex $-1 $426 $816 #
straight-curve $-1 0 3.255769897666406 86.635944700460826 -1 0 0 I I #
coedge $-1 $427 $631 $429 $650 reversed $267 $-1 #
vertex $-1 $642 $817 #
straight-curve $-1 0 -3.255769897666406 86.635944700460826 1 0 0 I I #
edge $-1 $432 -86.635944700460826 $639 86.635944700460826 $429 $818 forward 7 unknown #
edge $-1 $433 -86.635944700460826 $638 86.635944700460826 $430 $819 forward 7 unknown #
point $-1 173.27188940092165 -3.255769897666406 86.635944700460826 #
point $-1 173.27188940092165 3.255769897666406 86.635944700460826 #
coedge $-1 $654 $654 $-1 $820 reversed $435 $-1 #
vertex $-1 $437 $821 #
ellipse-curve $-1 0 0 -0.25 0 0 -1 0.5 0 0 1 I I #
point $-1 0.5 0 -1.7645725882747882 #
coedge $-1 $658 $658 $-1 $822 reversed $440 $-1 #
vertex $-1 $442 $823 #
ellipse-curve $-1 0 0 -0.25 0 0 -1 0.5 0 0 1 I I #
point $-1 0.5 0 -1.7645725882747882 #
face $-1 $-1 $460 $62 $-1 $824 reversed single #
loop $-1 $-1 $678 $445 #
plane-surface $-1 0 3.255769897666406 0 0 -1 0 0 0 -1 forward_v I I I I #
coedge $-1 $825 $676 $679 $826 forward $446 $-1 #
coedge $-1 $682 $448 $449 $670 reversed $285 $-1 #
coedge $-1 $676 $825 $448 $668 reversed $446 $-1 #
edge $-1 $683 -86.635944700460826 $827 86.635944700460826 $667 $828 forward 7 unknown #
coedge $-1 $450 $449 $825 $829 forward $187 $-1 #
edge $-1 $674 -173.27188940092165 $827 173.27188940092165 $666 $830 forward 7 unknown #
coedge $-1 $679 $678 $450 $672 reversed $663 $-1 #
edge $-1 $831 -173.27188940092165 $673 173.27188940092165 $671 $832 forward 7 unknown #
vertex $-1 $452 $833 #
vertex $-1 $685 $834 #
straight-curve $-1 173.27188940092165 0 -86.635944700460826 0 -1 0 I I #
coedge $-1 $665 $667 $453 $677 reversed $446 $-1 #
edge $-1 $680 -3.255769897666406 $683 3.255769897666406 $676 $835 forward 7 unknown #
coedge $-1 $671 $454 $459 $686 forward $663 $-1 #
coedge $-1 $454 $671 $665 $826 reversed $663 $-1 #
vertex $-1 $455 $836 #
straight-curve $-1 0 3.255769897666406 86.635944700460826 -1 0 0 I I #
coedge $-1 $456 $666 $458 $685 reversed $285 $-1 #
vertex $-1 $677 $837 #
straight-curve $-1 0 -3.255769897666406 86.635944700460826 1 0 0 I I #
edge $-1 $461 -86.635944700460826 $674 86.635944700460826 $458 $838 forward 7 unknown #
edge $-1 $462 -86.635944700460826 $673 86.635944700460826 $459 $839 forward 7 unknown #
point $-1 173.27188940092165 -3.255769897666406 86.635944700460826 #
point $-1 173.27188940092165 3.255769897666406 86.635944700460826 #
coedge $-1 $689 $689 $-1 $840 reversed $464 $-1 #
vertex $-1 $466 $841 #
ellipse-curve $-1 0 0 -0.25 0 0 -1 0.5 0 0 1 I I #
point $-1 0.5 0 -1.7645725882747882 #
coedge $-1 $693 $693 $-1 $842 reversed $469 $-1 #
vertex $-1 $471 $843 #
ellipse-curve $-1 0 0 -0.25 0 0 -1 0.5 0 0 1 I I #
point $-1 0.5 0 -1.7645725882747882 #
face $-1 $-1 $489 $65 $-1 $844 reversed single #
loop $-1 $-1 $713 $474 #
plane-surface $-1 0 6.171560080142342 0 0 -1 0 0 0 -1 forward_v I I I I #
coedge $-1 $845 $711 $714 $846 forward $475 $-1 #
coedge $-1 $717 $477 $478 $705 reversed $303 $-1 #
coedge $-1 $711 $845 $477 $703 reversed $475 $-1 #
edge $-1 $718 -86.635944700460826 $847 86.635944700460826 $702 $848 forward 7 unknown #
coedge $-1 $479 $478 $845 $849 forward $201 $-1 #
edge $-1 $709 -173.27188940092165 $847 173.27188940092165 $701 $850 forward 7 unknown #
coedge $-1 $714 $713 $479 $707 reversed $698 $-1 #
edge $-1 $851 -173.27188940092165 $708 173.27188940092165 $706 $852 forward 7 unknown #
vertex $-1 $481 $853 #
vertex $-1 $720 $854 #
straight-curve $-1 173.27188940092165 0 -86.635944700460826 0 -1 0 I I #
coedge $-1 $700 $702 $482 $712 reversed $475 $-1 #
edge $-1 $715 -6.171560080142342 $718 6.171560080142342 $711 $855 forward 7 unknown #
coedge $-1 $706 $483 $488 $721 forward $698 $-1 #
coedge $-1 $483 $706 $700 $846 reversed $698 $-1 #
vertex $-1 $484 $856 #
straight-curve $-1 0 6.171560080142342 86.635944700460826 -1 0 0 I I #
coedge $-1 $485 $701 $487 $720 reversed $303 $-1 #
vertex $-1 $712 $857 #
straight-curve $-1 0 -6.171560080142342 86.635944700460826 1 0 0 I I #
edge $-1 $490 -86.635944700460826 $709 86.635944700460826 $487 $858 forward 7 unknown #
edge $-1 $491 -86.635944700460826 $708 86.635944700460826 $488 $859 forward 7 unknown #
point $-1 173.27188940092165 -6.171560080142342 86.635944700460826 #
point $-1 173.27188940092165 6.171560080142342 86.635944700460826 #
coedge $-1 $724 $724 $-1 $860 reversed $493 $-1 #
vertex $-1 $495 $861 #
ellipse-curve $-1 0 0 -0.5 0 0 -1 1 0 0 1 I I #
point $-1 1 0 -4.4261146885586102 #
coedge $-1 $728 $728 $-1 $862 reversed $498 $-1 #
vertex $-1 $500 $863 #
ellipse-curve $-1 0 0 -0.5 0 0 -1 1 0 0 1 I I #
point $-1 1 0 -4.4261146885586102 #
plane-surface $-1 43.317972350230413 0 0 -1 0 0 0 0 1 forward_v I I I I #
coedge $-1 $508 $506 $510 $737 reversed $321 $-1 #
edge $-1 $521 -11.562037464923016 $739 11.562037464923016 $520 $864 forward 7 unknown #
vertex $-1 $737 $865 #
straight-curve $-1 -43.317972350230413 -29.030457894371924 0 0 0 -1 I I #
edge $-1 $735 -29.030457894371924 $739 29.030457894371924 $733 $866 forward 7 unknown #
straight-curve $-1 0 -29.030457894371924 -11.562037464923016 -1 0 0 I I #
vertex $-1 $513 $867 #
straight-curve $-1 0 29.030457894371924 -11.562037464923016 1 0 0 I I #
point $-1 43.317972350230413 29.030457894371924 -11.562037464923016 #
point $-1 43.317972350230413 -29.030457894371924 -11.562037464923016 #
straight-curve $-1 -43.317972350230413 0 11.562037464923016 0 -1 0 I I #
point $-1 -43.317972350230413 29.030457894371924 11.562037464923016 #
point $-1 -43.317972350230413 -29.030457894371924 11.562037464923016 #
straight-curve $-1 43.317972350230413 -29.030457894371924 0 0 0 -1 I I #
straight-curve $-1 43.317972350230413 29.030457894371924 0 0 0 -1 I I #
plane-surface $-1 43.317972350230413 0 0 -1 0 0 0 0 1 forward_v I I I I #
coedge $-1 $535 $533 $537 $753 reversed $340 $-1 #
edge $-1 $548 -1.5881702452428361 $755 1.5881702452428361 $547 $868 forward 7 unknown #
vertex $-1 $753 $869 #
straight-curve $-1 -43.317972350230413 -4.566643121090908 0 0 0 -1 I I #
edge $-1 $751 -4.566643121090908 $755 4.566643121090908 $749 $870 forward 7 unknown #
straight-curve $-1 0 -4.566643121090908 -1.5881702452428361 -1 0 0 I I #
vertex $-1 $540 $871 #
straight-curve $-1 0 4.566643121090908 -1.5881702452428361 1 0 0 I I #
point $-1 43.317972350230413 4.566643121090908 -1.5881702452428361 #
point $-1 43.317972350230413 -4.566643121090908 -1.5881702452428361 #
straight-curve $-1 -43.317972350230413 0 1.5881702452428361 0 -1 0 I I #
point $-1 -43.317972350230413 4.566643121090908 1.5881702452428361 #
point $-1 -43.317972350230413 -4.566643121090908 1.5881702452428361 #
straight-curve $-1 43.317972350230413 -4.566643121090908 0 0 0 -1 I I #
straight-curve $-1 43.317972350230413 4.566643121090908 0 0 0 -1 I I #
plane-surface $-1 173.27188940092165 0 0 -1 0 0 0 0 1 forward_v I I I I #
coedge $-1 $562 $560 $564 $769 reversed $359 $-1 #
edge $-1 $575 -86.635944700460826 $771 86.635944700460826 $574 $872 forward 7 unknown #
vertex $-1 $769 $873 #
straight-curve $-1 -173.27188940092165 -3.255769897666406 0 0 0 -1 I I #
edge $-1 $767 -3.255769897666406 $771 3.255769897666406 $765 $874 forward 7 unknown #
straight-curve $-1 0 -3.255769897666406 -86.635944700460826 -1 0 0 I I #
vertex $-1 $567 $875 #
straight-curve $-1 0 3.255769897666406 -86.635944700460826 1 0 0 I I #
point $-1 173.27188940092165 3.255769897666406 -86.635944700460826 #
point $-1 173.27188940092165 -3.255769897666406 -86.635944700460826 #
straight-curve $-1 -173.27188940092165 0 86.635944700460826 0 -1 0 I I #
point $-1 -173.27188940092165 3.255769897666406 86.635944700460826 #
point $-1 -173.27188940092165 -3.255769897666406 86.635944700460826 #
straight-curve $-1 173.27188940092165 -3.255769897666406 0 0 0 -1 I I #
straight-curve $-1 173.27188940092165 3.255769897666406 0 0 0 -1 I I #
edge $-1 $876 1 $876 0 $584 $-1 forward 7 unknown #
point $-1 0.5 0 -0.25 #
edge $-1 $877 1 $877 0 $588 $-1 forward 7 unknown #
point $-1 0.5 0 -0.25 #
plane-surface $-1 173.27188940092165 0 0 -1 0 0 0 0 1 forward_v I I I I #
coedge $-1 $597 $595 $599 $789 reversed $388 $-1 #
edge $-1 $610 -86.635944700460826 $791 86.635944700460826 $609 $878 forward 7 unknown #
vertex $-1 $789 $879 #
straight-curve $-1 -173.27188940092165 -3.255769897666406 0 0 0 -1 I I #
edge $-1 $787 -3.255769897666406 $791 3.255769897666406 $785 $880 forward 7 unknown #
straight-curve $-1 0 -3.255769897666406 -86.635944700460826 -1 0 0 I I #
vertex $-1 $602 $881 #
straight-curve $-1 0 3.255769897666406 -86.635944700460826 1 0 0 I I #
point $-1 173.27188940092165 3.255769897666406 -86.635944700460826 #
point $-1 173.27188940092165 -3.255769897666406 -86.635944700460826 #
straight-curve $-1 -173.27188940092165 0 86.635944700460826 0 -1 0 I I #
point $-1 -173.27188940092165 3.255769897666406 86.635944700460826 #
point $-1 -173.27188940092165 -3.255769897666406 86.635944700460826 #
straight-curve $-1 173.27188940092165 -3.255769897666406 0 0 0 -1 I I #
straight-curve $-1 173.27188940092165 3.255769897666406 0 0 0 -1 I I #
edge $-1 $882 1 $882 0 $619 $-1 forward 7 unknown #
point $-1 0.5 0 -0.25 #
edge $-1 $883 1 $883 0 $623 $-1 forward 7 unknown #
point $-1 0.5 0 -0.25 #
plane-surface $-1 173.27188940092165 0 0 -1 0 0 0 0 1 forward_v I I I I #
coedge $-1 $632 $630 $634 $809 reversed $417 $-1 #
edge $-1 $645 -86.635944700460826 $811 86.635944700460826 $644 $884 forward 7 unknown #
vertex $-1 $809 $885 #
straight-curve $-1 -173.27188940092165 -3.255769897666406 0 0 0 -1 I I #
edge $-1 $807 -3.255769897666406 $811 3.255769897666406 $805 $886 forward 7 unknown #
straight-curve $-1 0 -3.255769897666406 -86.635944700460826 -1 0 0 I I #
vertex $-1 $637 $887 #
straight-curve $-1 0 3.255769897666406 -86.635944700460826 1 0 0 I I #
point $-1 173.27188940092165 3.255769897666406 -86.635944700460826 #
point $-1 173.27188940092165 -3.255769897666406 -86.635944700460826 #
straight-curve $-1 -173.27188940092165 0 86.635944700460826 0 -1 0 I I #
point $-1 -173.27188940092165 3.255769897666406 86.635944700460826 #
point $-1 -173.27188940092165 -3.255769897666406 86.635944700460826 #
straight-curve $-1 173.27188940092165 -3.255769897666406 0 0 0 -1 I I #
straight-curve $-1 173.27188940092165 3.255769897666406 0 0 0 -1 I I #
edge $-1 $888 1 $888 0 $654 $-1 forward 7 unknown #
point $-1 0.5 0 -0.25 #
edge $-1 $889 1 $889 0 $658 $-1 forward 7 unknown #
point $-1 0.5 0 -0.25 #
plane-surface $-1 173.27188940092165 0 0 -1 0 0 0 0 1 forward_v I I I I #
coedge $-1 $667 $665 $669 $829 reversed $446 $-1 #
edge $-1 $680 -86.635944700460826 $831 86.635944700460826 $679 $890 forward 7 unknown #
vertex $-1 $829 $891 #
straight-curve $-1 -173.27188940092165 -3.255769897666406 0 0 0 -1 I I #
edge $-1 $827 -3.255769897666406 $831 3.255769897666406 $825 $892 forward 7 unknown #
straight-curve $-1 0 -3.255769897666406 -86.635944700460826 -1 0 0 I I #
vertex $-1 $672 $893 #
straight-curve $-1 0 3.255769897666406 -86.635944700460826 1 0 0 I I #
point $-1 173.27188940092165 3.255769897666406 -86.635944700460826 #
point $-1 173.27188940092165 -3.255769897666406 -86.635944700460826 #
straight-curve $-1 -173.27188940092165 0 86.635944700460826 0 -1 0 I I #
point $-1 -173.27188940092165 3.255769897666406 86.635944700460826 #
point $-1 -173.27188940092165 -3.255769897666406 86.635944700460826 #
straight-curve $-1 173.27188940092165 -3.255769897666406 0 0 0 -1 I I #
straight-curve $-1 173.27188940092165 3.255769897666406 0 0 0 -1 I I #
edge $-1 $894 1 $894 0 $689 $-1 forward 7 unknown #
point $-1 0.5 0 -0.25 #
edge $-1 $895 1 $895 0 $693 $-1 forward 7 unknown #
point $-1 0.5 0 -0.25 #
plane-surface $-1 173.27188940092165 0 0 -1 0 0 0 0 1 forward_v I I I I #
coedge $-1 $702 $700 $704 $849 reversed $475 $-1 #
edge $-1 $715 -86.635944700460826 $851 86.635944700460826 $714 $896 forward 7 unknown #
vertex $-1 $849 $897 #
straight-curve $-1 -173.27188940092165 -6.171560080142342 0 0 0 -1 I I #
edge $-1 $847 -6.171560080142342 $851 6.171560080142342 $845 $898 forward 7 unknown #
straight-curve $-1 0 -6.171560080142342 -86.635944700460826 -1 0 0 I I #
vertex $-1 $707 $899 #
straight-curve $-1 0 6.171560080142342 -86.635944700460826 1 0 0 I I #
point $-1 173.27188940092165 6.171560080142342 -86.635944700460826 #
point $-1 173.27188940092165 -6.171560080142342 -86.635944700460826 #
straight-curve $-1 -173.27188940092165 0 86.635944700460826 0 -1 0 I I #
point $-1 -173.27188940092165 6.171560080142342 86.635944700460826 #
point $-1 -173.27188940092165 -6.171560080142342 86.635944700460826 #
straight-curve $-1 173.27188940092165 -6.171560080142342 0 0 0 -1 I I #
straight-curve $-1 173.27188940092165 6.171560080142342 0 0 0 -1 I I #
edge $-1 $900 1 $900 0 $724 $-1 forward 7 unknown #
point $-1 1 0 -0.5 #
edge $-1 $901 1 $901 0 $728 $-1 forward 7 unknown #
point $-1 1 0 -0.5 #
straight-curve $-1 -43.317972350230413 29.030457894371924 0 0 0 -1 I I #
point $-1 -43.317972350230413 -29.030457894371924 -11.562037464923016 #
straight-curve $-1 -43.317972350230413 0 -11.562037464923016 0 1 0 I I #
point $-1 -43.317972350230413 29.030457894371924 -11.562037464923016 #
straight-curve $-1 -43.317972350230413 4.566643121090908 0 0 0 -1 I I #
point $-1 -43.317972350230413 -4.566643121090908 -1.5881702452428361 #
straight-curve $-1 -43.317972350230413 0 -1.5881702452428361 0 1 0 I I #
point $-1 -43.317972350230413 4.566643121090908 -1.5881702452428361 #
straight-curve $-1 -173.27188940092165 3.255769897666406 0 0 0 -1 I I #
point $-1 -173.27188940092165 -3.255769897666406 -86.635944700460826 #
straight-curve $-1 -173.27188940092165 0 -86.635944700460826 0 1 0 I I #
point $-1 -173.27188940092165 3.255769897666406 -86.635944700460826 #
vertex $-1 $780 $902 #
vertex $-1 $782 $903 #
straight-curve $-1 -173.27188940092165 3.255769897666406 0 0 0 -1 I I #
point $-1 -173.27188940092165 -3.255769897666406 -86.635944700460826 #
straight-curve $-1 -173.27188940092165 0 -86.635944700460826 0 1 0 I I #
point $-1 -173.27188940092165 3.255769897666406 -86.635944700460826 #
vertex $-1 $800 $904 #
vertex $-1 $802 $905 #
straight-curve $-1 -173.27188940092165 3.255769897666406 0 0 0 -1 I I #
point $-1 -173.27188940092165 -3.255769897666406 -86.635944700460826 #
straight-curve $-1 -173.27188940092165 0 -86.635944700460826 0 1 0 I I #
point $-1 -173.27188940092165 3.255769897666406 -86.635944700460826 #
vertex $-1 $820 $906 #
vertex $-1 $822 $907 #
straight-curve $-1 -173.27188940092165 3.255769897666406 0 0 0 -1 I I #
point $-1 -173.27188940092165 -3.255769897666406 -86.635944700460826 #
straight-curve $-1 -173.27188940092165 0 -86.635944700460826 0 1 0 I I #
point $-1 -173.27188940092165 3.255769897666406 -86.635944700460826 #
vertex $-1 $840 $908 #
vertex $-1 $842 $909 #
straight-curve $-1 -173.27188940092165 6.171560080142342 0 0 0 -1 I I #
point $-1 -173.27188940092165 -6.171560080142342 -86.635944700460826 #
straight-curve $-1 -173.27188940092165 0 -86.635944700460826 0 1 0 I I #
point $-1 -173.27188940092165 6.171560080142342 -86.635944700460826 #
vertex $-1 $860 $910 #
vertex $-1 $862 $911 #
point $-1 0 0 0.25 #
point $-1 0 0 0.25 #
point $-1 0 0 0.25 #
point $-1 0 0 0.25 #
point $-1 0 0 0.25 #
point $-1 0 0 0.25 #
point $-1 0 0 0.25 #
point $-1 0 0 0.25 #
point $-1 0 0 0.5 #
point $-1 0 0 0.5 #
End-of-ACIS-data 