500 0 5 0           
7 Unknown 11 ACIS 5.0 NT 24 Thu Mar 25 16:24:38 1999 
-1 9.9999999999999995e-007 1e-010 
body $-1 $5 $-1 $6 #
body $-1 $7 $-1 $8 #
body $-1 $9 $-1 $10 #
body $-1 $11 $-1 $12 #
body $-1 $13 $-1 $14 #
lump $-1 $-1 $15 $0 #
transform $-1 1 0 0 0 1 0 0 0 1 47.776116214484084 22.557290528001964 6.1374252218480763 1 rotate no_reflect no_shear #
lump $-1 $-1 $16 $1 #
transform $-1 1 0 0 0 1 0 0 0 1 47.776116214484084 22.557290528001964 6.1374252218480763 1 rotate no_reflect no_shear #
lump $-1 $-1 $17 $2 #
transform $-1 1 0 0 0 1 0 0 0 1 47.776116214484084 22.557290528001964 6.1374252218480763 1 rotate no_reflect no_shear #
lump $-1 $-1 $18 $3 #
transform $-1 1 0 0 0 1 0 0 0 1 47.776116214484084 22.557290528001964 6.1374252218480763 1 rotate no_reflect no_shear #
lump $-1 $-1 $19 $4 #
transform $-1 1 0 0 0 1 0 0 0 1 47.776116214484084 22.557290528001964 6.1374252218480763 1 rotate no_reflect no_shear #
shell $-1 $-1 $-1 $20 $-1 $5 #
shell $-1 $-1 $-1 $21 $-1 $7 #
shell $-1 $-1 $-1 $22 $-1 $9 #
shell $-1 $-1 $-1 $23 $-1 $11 #
shell $-1 $-1 $-1 $24 $-1 $13 #
face $-1 $25 $26 $15 $-1 $27 forward single #
face $-1 $28 $29 $16 $-1 $30 forward single #
face $-1 $31 $32 $17 $-1 $33 reversed single #
face $-1 $34 $35 $18 $-1 $36 forward single #
face $-1 $37 $38 $19 $-1 $39 forward single #
face $-1 $40 $41 $15 $-1 $42 reversed single #
loop $-1 $-1 $43 $20 #
plane-surface $-1 0 0 6.1374252218480763 0 0 1 1 0 0 forward_v I I I I #
face $-1 $44 $45 $16 $-1 $46 reversed single #
loop $-1 $-1 $47 $21 #
plane-surface $-1 0 -18.589972479501178 3.4121754256535328 0 0 1 1 0 0 forward_v I I I I #
face $-1 $48 $49 $17 $-1 $50 reversed single #
loop $-1 $-1 $51 $22 #
plane-surface $-1 -22.913501784611107 71.718065045529812 94.761809374935922 1 0 0 0 -0.79863551827123203 -0.60181501223851219 forward_v I I I I #
face $-1 $52 $53 $18 $-1 $54 forward single #
loop $-1 $55 $56 $23 #
cone-surface $-1 -19.875163334352195 18.827703552755239 2.2659301436601069 0 -0.79863551827123203 -0.60181501223851219 1.5 0 0 1 I I 0 1 1.5 forward I I I I #
face $-1 $57 $58 $19 $-1 $59 forward single #
loop $-1 $60 $61 $24 #
cone-surface $-1 -15.317655658963822 18.827703552755239 2.2659301436601069 0 -0.79863551827123203 -0.60181501223851219 1.5 0 0 1 I I 0 1 1.5 forward I I I I #
face $-1 $62 $63 $15 $-1 $64 reversed single #
loop $-1 $-1 $65 $25 #
plane-surface $-1 0 0 -6.1374252218480763 0 0 1 1 0 0 forward_v I I I I #
coedge $-1 $66 $67 $68 $69 forward $26 $-1 #
face $-1 $70 $71 $16 $-1 $72 reversed single #
loop $-1 $-1 $73 $28 #
plane-surface $-1 0 -18.589972479501178 0.41217542565353371 0 0 1 1 0 0 forward_v I I I I #
coedge $-1 $74 $75 $76 $77 reversed $29 $-1 #
face $-1 $78 $79 $17 $-1 $80 reversed single #
loop $-1 $-1 $81 $31 #
plane-surface $-1 -17.596409496658012 -4.5933416223523977 37.257041446279281 0 0.79863551827123203 0.60181501223851219 1 0 0 forward_v I I I I #
coedge $-1 $82 $83 $84 $85 reversed $32 $-1 #
face $-1 $-1 $86 $18 $-1 $87 forward single #
loop $-1 $88 $89 $34 #
cone-surface $-1 -19.875163334352195 16.349299925567855 0.39831910570325135 0 -0.79863551827123203 -0.60181501223851219 0.75 0 0 1 I I -0.70710678118654757 0.70710678118654757 0.75 forward I I I I #
loop $-1 $-1 $90 $23 #
coedge $-1 $56 $56 $91 $92 reversed $35 $-1 #
face $-1 $-1 $93 $19 $-1 $94 forward single #
loop $-1 $95 $96 $37 #
cone-surface $-1 -15.317655658963822 16.349299925567855 0.39831910570325135 0 -0.79863551827123203 -0.60181501223851219 0.75 0 0 1 I I -0.70710678118654757 0.70710678118654757 0.75 forward I I I I #
loop $-1 $-1 $97 $24 #
coedge $-1 $61 $61 $98 $99 reversed $38 $-1 #
face $-1 $100 $101 $15 $-1 $102 reversed single #
loop $-1 $-1 $103 $40 #
plane-surface $-1 0 -22.557290528001964 0 0 1 0 0 0 1 forward_v I I I I #
coedge $-1 $104 $105 $106 $107 forward $41 $-1 #
coedge $-1 $108 $43 $109 $110 forward $26 $-1 #
coedge $-1 $43 $108 $111 $112 forward $26 $-1 #
coedge $-1 $113 $114 $43 $69 reversed $115 $-1 #
edge $-1 $116 -22.557290528001964 $117 22.557290528001964 $68 $118 forward 7 unknown #
face $-1 $119 $120 $16 $-1 $121 reversed single #
loop $-1 $-1 $122 $44 #
plane-surface $-1 0 -14.622654431000393 1.9121754256535333 0 -1 0 0 0 -1 forward_v I I I I #
coedge $-1 $123 $124 $125 $126 reversed $45 $-1 #
coedge $-1 $127 $47 $128 $129 forward $29 $-1 #
coedge $-1 $47 $127 $130 $131 reversed $29 $-1 #
coedge $-1 $132 $133 $47 $77 forward $134 $-1 #
edge $-1 $135 5.3276681912498045 $136 13.262304288251375 $76 $137 forward 7 unknown #
face $-1 $138 $139 $17 $-1 $140 reversed single #
loop $-1 $-1 $141 $48 #
plane-surface $-1 -12.279317208704917 71.718065045529812 94.761809374935922 -1 0 0 0 0.79863551827123203 0.60181501223851219 forward_v I I I I #
coedge $-1 $142 $143 $144 $145 reversed $49 $-1 #
coedge $-1 $83 $51 $146 $147 reversed $32 $-1 #
coedge $-1 $51 $82 $142 $148 reversed $32 $-1 #
coedge $-1 $144 $149 $51 $85 forward $150 $-1 #
edge $-1 $151 13.301741994762942 $152 17.002061968288483 $84 $153 forward 7 unknown #
loop $-1 $-1 $91 $52 #
plane-surface $-1 -17.596409496658012 -4.5933416223523977 37.257041446279281 0 0.79863551827123203 0.60181501223851219 1 0 0 forward_v I I I I #
loop $-1 $-1 $154 $34 #
coedge $-1 $89 $89 $90 $155 reversed $53 $-1 #
coedge $-1 $90 $90 $89 $155 forward $55 $-1 #
coedge $-1 $91 $91 $56 $92 forward $86 $-1 #
edge $-1 $156 -4.6616460270058674e-016 $156 6.2831853071795996 $91 $157 forward 7 unknown #
loop $-1 $-1 $98 $57 #
plane-surface $-1 -17.596409496658012 -4.5933416223523977 37.257041446279281 0 0.79863551827123203 0.60181501223851219 1 0 0 forward_v I I I I #
loop $-1 $-1 $158 $37 #
coedge $-1 $96 $96 $97 $159 reversed $58 $-1 #
coedge $-1 $97 $97 $96 $159 forward $60 $-1 #
coedge $-1 $98 $98 $61 $99 forward $93 $-1 #
edge $-1 $160 -4.6616460270058674e-016 $160 6.2831853071795996 $98 $161 forward 7 unknown #
face $-1 $162 $163 $15 $-1 $164 reversed single #
loop $-1 $-1 $165 $62 #
plane-surface $-1 -47.776116214484084 0 0 1 0 0 0 0 -1 forward_v I I I I #
coedge $-1 $166 $111 $167 $168 forward $63 $-1 #
coedge $-1 $169 $65 $166 $170 forward $41 $-1 #
coedge $-1 $65 $169 $171 $172 forward $41 $-1 #
coedge $-1 $114 $113 $65 $107 reversed $115 $-1 #
edge $-1 $173 -22.557290528001964 $174 22.557290528001964 $106 $175 forward 7 unknown #
coedge $-1 $67 $66 $176 $177 forward $26 $-1 #
coedge $-1 $178 $179 $66 $110 reversed $163 $-1 #
edge $-1 $117 -47.776116214484084 $180 47.776116214484084 $109 $181 forward 7 unknown #
coedge $-1 $103 $182 $67 $112 reversed $63 $-1 #
edge $-1 $183 -47.776116214484084 $116 47.776116214484084 $111 $184 forward 7 unknown #
coedge $-1 $106 $68 $182 $185 forward $115 $-1 #
coedge $-1 $68 $106 $178 $186 reversed $115 $-1 #
loop $-1 $-1 $113 $162 #
vertex $-1 $69 $187 #
vertex $-1 $69 $188 #
straight-curve $-1 47.776116214484084 0 6.1374252218480763 0 1 0 I I #
face $-1 $189 $190 $16 $-1 $191 reversed single #
loop $-1 $-1 $192 $70 #
plane-surface $-1 -47.776116214484084 0 0 1 0 0 0 0 -1 forward_v I I I I #
coedge $-1 $193 $128 $133 $194 reversed $71 $-1 #
coedge $-1 $195 $73 $196 $197 reversed $45 $-1 #
coedge $-1 $73 $195 $193 $198 forward $45 $-1 #
coedge $-1 $133 $132 $73 $126 forward $134 $-1 #
edge $-1 $199 -13.262304288251375 $200 -5.3276681912498045 $125 $201 forward 7 unknown #
coedge $-1 $75 $74 $192 $202 reversed $29 $-1 #
coedge $-1 $122 $203 $74 $129 reversed $71 $-1 #
edge $-1 $135 -47.776116214484084 $204 47.776116214484084 $128 $205 forward 7 unknown #
coedge $-1 $206 $207 $75 $131 forward $190 $-1 #
edge $-1 $136 -47.776116214484084 $208 47.776116214484084 $130 $209 forward 7 unknown #
coedge $-1 $125 $76 $207 $210 forward $134 $-1 #
coedge $-1 $76 $125 $122 $194 forward $134 $-1 #
loop $-1 $-1 $76 $189 #
vertex $-1 $77 $211 #
vertex $-1 $210 $212 #
straight-curve $-1 47.776116214484084 -9.2949862397505889 3.4121754256535328 0 -1 0 I I #
face $-1 $-1 $150 $17 $-1 $213 forward single #
loop $-1 $-1 $214 $78 #
plane-surface $-1 0 22.557290528001964 0 0 -1 0 0 0 -1 forward_v I I I I #
coedge $-1 $215 $216 $217 $218 reversed $79 $-1 #
coedge $-1 $219 $81 $83 $148 forward $49 $-1 #
coedge $-1 $81 $219 $215 $220 forward $49 $-1 #
coedge $-1 $217 $84 $81 $145 forward $150 $-1 #
edge $-1 $152 -14.115297036282101 $221 -3.4811124603759112 $144 $222 forward 7 unknown #
coedge $-1 $223 $224 $82 $147 forward $139 $-1 #
edge $-1 $225 -46.153970064439896 $151 -41.243479465619885 $146 $226 forward 7 unknown #
edge $-1 $152 38.965980741495628 $225 45.114581056003942 $83 $227 forward 7 unknown #
coedge $-1 $84 $217 $223 $228 forward $150 $-1 #
loop $-1 $-1 $217 $138 #
vertex $-1 $147 $229 #
vertex $-1 $85 $230 #
straight-curve $-1 -22.913501784611107 35.859032522764906 6.1374252218480763 0 -1 0 I I #
coedge $-1 $154 $154 $-1 $231 reversed $88 $-1 #
edge $-1 $232 0 $232 6.2831853071796004 $89 $233 forward 7 unknown #
vertex $-1 $92 $234 #
ellipse-curve $-1 -19.875163334352195 20.707130541239192 3.6821799224380749 0 0.79863551827123203 0.60181501223851219 1.5 0 0 1 I I #
coedge $-1 $158 $158 $-1 $235 reversed $95 $-1 #
edge $-1 $236 0 $236 6.2831853071796004 $96 $237 forward 7 unknown #
vertex $-1 $99 $238 #
ellipse-curve $-1 -15.317655658963822 20.707130541239192 3.6821799224380749 0 0.79863551827123203 0.60181501223851219 1.5 0 0 1 I I #
face $-1 $-1 $115 $15 $-1 $239 reversed single #
loop $-1 $-1 $178 $100 #
plane-surface $-1 0 22.557290528001964 0 0 -1 0 0 0 -1 forward_v I I I I #
coedge $-1 $240 $176 $179 $241 forward $101 $-1 #
coedge $-1 $182 $103 $104 $170 reversed $63 $-1 #
coedge $-1 $176 $240 $103 $168 reversed $101 $-1 #
edge $-1 $183 -6.1374252218480763 $242 6.1374252218480763 $167 $243 forward 7 unknown #
coedge $-1 $105 $104 $240 $244 forward $41 $-1 #
edge $-1 $174 -47.776116214484084 $242 47.776116214484084 $166 $245 forward 7 unknown #
coedge $-1 $179 $178 $105 $172 reversed $163 $-1 #
edge $-1 $246 -47.776116214484084 $173 47.776116214484084 $171 $247 forward 7 unknown #
vertex $-1 $107 $248 #
vertex $-1 $185 $249 #
straight-curve $-1 47.776116214484084 0 -6.1374252218480763 0 -1 0 I I #
coedge $-1 $165 $167 $108 $177 reversed $101 $-1 #
edge $-1 $180 -22.557290528001964 $183 22.557290528001964 $176 $250 forward 7 unknown #
coedge $-1 $171 $109 $114 $186 forward $163 $-1 #
coedge $-1 $109 $171 $165 $241 reversed $163 $-1 #
vertex $-1 $110 $251 #
straight-curve $-1 0 22.557290528001964 6.1374252218480763 -1 0 0 I I #
coedge $-1 $111 $166 $113 $185 reversed $63 $-1 #
vertex $-1 $177 $252 #
straight-curve $-1 0 -22.557290528001964 6.1374252218480763 1 0 0 I I #
edge $-1 $116 -6.1374252218480763 $174 6.1374252218480763 $113 $253 forward 7 unknown #
edge $-1 $117 -6.1374252218480763 $173 6.1374252218480763 $114 $254 forward 7 unknown #
point $-1 47.776116214484084 -22.557290528001964 6.1374252218480763 #
point $-1 47.776116214484084 22.557290528001964 6.1374252218480763 #
face $-1 $-1 $134 $16 $-1 $255 reversed single #
loop $-1 $-1 $130 $119 #
plane-surface $-1 0 -22.557290528001964 0 0 1 0 0 0 1 forward_v I I I I #
coedge $-1 $256 $257 $127 $202 forward $120 $-1 #
coedge $-1 $203 $122 $124 $198 reversed $71 $-1 #
edge $-1 $200 -0.54391228717323292 $135 2.4560877128267662 $133 $258 forward 7 unknown #
coedge $-1 $124 $123 $259 $260 reversed $45 $-1 #
coedge $-1 $207 $206 $123 $197 forward $190 $-1 #
edge $-1 $261 -47.776116214484084 $199 47.776116214484084 $196 $262 forward 7 unknown #
edge $-1 $263 -47.776116214484084 $200 47.776116214484084 $193 $264 forward 7 unknown #
vertex $-1 $197 $265 #
vertex $-1 $126 $266 #
straight-curve $-1 47.776116214484084 -9.2949862397505889 0.41217542565353371 0 1 0 I I #
edge $-1 $208 -13.262304288251375 $204 -5.3276681912498045 $192 $267 forward 7 unknown #
coedge $-1 $128 $193 $256 $268 reversed $71 $-1 #
vertex $-1 $202 $269 #
straight-curve $-1 0 -14.622654431000393 3.4121754256535328 -1 0 0 I I #
coedge $-1 $196 $130 $257 $270 forward $190 $-1 #
coedge $-1 $130 $196 $132 $210 reversed $190 $-1 #
vertex $-1 $270 $271 #
straight-curve $-1 0 -22.557290528001964 3.4121754256535328 -1 0 0 I I #
edge $-1 $136 -3.4121754256535328 $199 -0.41217542565353371 $132 $272 forward 7 unknown #
point $-1 47.776116214484084 -14.622654431000393 3.4121754256535328 #
point $-1 47.776116214484084 -22.557290528001964 3.4121754256535328 #
plane-surface $-1 0 0 6.1374252218480763 0 0 1 1 0 0 forward_v I I I I #
coedge $-1 $224 $223 $216 $273 forward $139 $-1 #
coedge $-1 $216 $141 $143 $220 reversed $79 $-1 #
coedge $-1 $141 $215 $214 $273 reversed $79 $-1 #
coedge $-1 $149 $144 $141 $218 forward $150 $-1 #
edge $-1 $221 -17.002061968288483 $274 -13.301741994762942 $217 $275 forward 7 unknown #
coedge $-1 $143 $142 $224 $276 reversed $49 $-1 #
edge $-1 $277 -45.114581056003942 $221 -38.965980741495628 $215 $278 forward 7 unknown #
vertex $-1 $145 $279 #
straight-curve $-1 -8.798204748329006 18.856970554476419 6.1374252218480763 1 0 0 I I #
coedge $-1 $214 $146 $149 $228 reversed $139 $-1 #
coedge $-1 $146 $214 $219 $276 forward $139 $-1 #
vertex $-1 $147 $280 #
straight-curve $-1 -22.913501784611107 22.557290528001964 47.380904687467961 0 0 1 I I #
straight-curve $-1 -22.913501784611107 -4.5933416223523977 37.257041446279281 0 0.60181501223851219 -0.79863551827123203 I I #
edge $-1 $274 12.279317208704917 $151 22.913501784611107 $223 $281 forward 7 unknown #
point $-1 -22.913501784611107 22.557290528001964 6.1374252218480763 #
point $-1 -22.913501784611107 18.856970554476423 6.1374252218480763 #
edge $-1 $282 1 $282 0 $154 $-1 forward 7 unknown #
vertex $-1 $155 $283 #
ellipse-curve $-1 -19.875163334352195 16.948276564271278 0.8496803648821355 0 0.79863551827123203 0.60181501223851219 1.5 0 0 1 I I #
point $-1 -18.375163334352195 20.707130541239195 3.6821799224380785 #
edge $-1 $284 1 $284 0 $158 $-1 forward 7 unknown #
vertex $-1 $159 $285 #
ellipse-curve $-1 -15.317655658963822 16.948276564271278 0.8496803648821355 0 0.79863551827123203 0.60181501223851219 1.5 0 0 1 I I #
point $-1 -13.817655658963822 20.707130541239195 3.6821799224380785 #
plane-surface $-1 47.776116214484084 0 0 -1 0 0 0 0 1 forward_v I I I I #
coedge $-1 $167 $165 $169 $244 reversed $101 $-1 #
edge $-1 $180 -6.1374252218480763 $246 6.1374252218480763 $179 $286 forward 7 unknown #
vertex $-1 $244 $287 #
straight-curve $-1 -47.776116214484084 -22.557290528001964 0 0 0 -1 I I #
edge $-1 $242 -22.557290528001964 $246 22.557290528001964 $240 $288 forward 7 unknown #
straight-curve $-1 0 -22.557290528001964 -6.1374252218480763 -1 0 0 I I #
vertex $-1 $172 $289 #
straight-curve $-1 0 22.557290528001964 -6.1374252218480763 1 0 0 I I #
point $-1 47.776116214484084 22.557290528001964 -6.1374252218480763 #
point $-1 47.776116214484084 -22.557290528001964 -6.1374252218480763 #
straight-curve $-1 -47.776116214484084 0 6.1374252218480763 0 -1 0 I I #
point $-1 -47.776116214484084 22.557290528001964 6.1374252218480763 #
point $-1 -47.776116214484084 -22.557290528001964 6.1374252218480763 #
straight-curve $-1 47.776116214484084 -22.557290528001964 0 0 0 -1 I I #
straight-curve $-1 47.776116214484084 22.557290528001964 0 0 0 -1 I I #
plane-surface $-1 47.776116214484084 0 0 -1 0 0 0 0 1 forward_v I I I I #
coedge $-1 $259 $192 $203 $268 forward $120 $-1 #
coedge $-1 $192 $259 $206 $270 reversed $120 $-1 #
straight-curve $-1 47.776116214484084 -14.622654431000393 0.95608771282676663 0 0 1 I I #
coedge $-1 $257 $256 $195 $260 forward $120 $-1 #
edge $-1 $263 5.3276681912498045 $261 13.262304288251375 $259 $290 forward 7 unknown #
vertex $-1 $197 $291 #
straight-curve $-1 0 -22.557290528001964 0.41217542565353371 1 0 0 I I #
vertex $-1 $260 $292 #
straight-curve $-1 0 -14.622654431000393 0.41217542565353371 1 0 0 I I #
point $-1 47.776116214484084 -22.557290528001964 0.41217542565353371 #
point $-1 47.776116214484084 -14.622654431000393 0.41217542565353371 #
straight-curve $-1 -47.776116214484084 -9.2949862397505889 3.4121754256535328 0 1 0 I I #
edge $-1 $204 -2.4560877128267662 $263 0.54391228717323292 $256 $293 forward 7 unknown #
point $-1 -47.776116214484084 -14.622654431000393 3.4121754256535328 #
edge $-1 $208 -3.4121754256535328 $261 -0.41217542565353371 $257 $294 forward 7 unknown #
point $-1 -47.776116214484084 -22.557290528001964 3.4121754256535328 #
straight-curve $-1 47.776116214484084 -22.557290528001964 0 0 0 -1 I I #
edge $-1 $274 41.243479465619885 $277 46.153970064439896 $214 $295 forward 7 unknown #
vertex $-1 $228 $296 #
straight-curve $-1 -12.279317208704917 35.859032522764906 6.1374252218480763 0 1 0 I I #
edge $-1 $277 3.4811124603759112 $225 14.115297036282101 $224 $297 forward 7 unknown #
vertex $-1 $276 $298 #
straight-curve $-1 -12.279317208704917 -4.5933416223523977 37.257041446279281 0 -0.60181501223851219 0.79863551827123203 I I #
point $-1 -12.279317208704917 18.856970554476423 6.1374252218480763 #
point $-1 -22.913501784611107 22.557290528001964 1.2269346230280647 #
straight-curve $-1 0 22.557290528001964 6.1374252218480763 -1 0 0 I I #
vertex $-1 $231 $299 #
point $-1 -18.375163334352195 16.948276564271278 0.8496803648821355 #
vertex $-1 $235 $300 #
point $-1 -13.817655658963822 16.948276564271278 0.8496803648821355 #
straight-curve $-1 -47.776116214484084 22.557290528001964 0 0 0 -1 I I #
point $-1 -47.776116214484084 -22.557290528001964 -6.1374252218480763 #
straight-curve $-1 -47.776116214484084 0 -6.1374252218480763 0 1 0 I I #
point $-1 -47.776116214484084 22.557290528001964 -6.1374252218480763 #
straight-curve $-1 -47.776116214484084 -9.2949862397505889 0.41217542565353371 0 -1 0 I I #
point $-1 -47.776116214484084 -22.557290528001964 0.41217542565353371 #
point $-1 -47.776116214484084 -14.622654431000393 0.41217542565353371 #
straight-curve $-1 -47.776116214484084 -14.622654431000393 0.95608771282676663 0 0 -1 I I #
straight-curve $-1 -47.776116214484084 -22.557290528001964 0 0 0 -1 I I #
straight-curve $-1 -12.279317208704917 22.557290528001964 47.380904687467961 0 0 -1 I I #
point $-1 -12.279317208704917 22.557290528001964 6.1374252218480763 #
straight-curve $-1 -8.798204748329006 22.557290528001964 1.2269346230280647 -1 0 0 I I #
point $-1 -12.279317208704917 22.557290528001964 1.2269346230280647 #
point $-1 -19.875163334352195 15.750323286864431 -0.053042153475632792 #
point $-1 -15.317655658963822 15.750323286864431 -0.053042153475632792 #
End-of-ACIS-data 