500 0 11 0           
7 Unknown 11 ACIS 5.0 NT 24 Fri Mar 26 16:23:55 1999 
-1 9.9999999999999995e-007 1e-010 
body $-1 $11 $-1 $12 #
body $-1 $13 $-1 $14 #
body $-1 $15 $-1 $16 #
body $-1 $17 $-1 $18 #
body $-1 $19 $-1 $20 #
body $-1 $21 $-1 $22 #
body $-1 $23 $-1 $24 #
body $-1 $25 $-1 $26 #
body $-1 $27 $-1 $28 #
body $-1 $29 $-1 $30 #
body $-1 $31 $-1 $32 #
lump $-1 $-1 $33 $0 #
transform $-1 1 0 0 0 1 0 0 0 1 78.885464033936586 34.432312151023019 13.656703853789647 1 rotate no_reflect no_shear #
lump $-1 $-1 $34 $1 #
transform $-1 1 0 0 0 1 0 0 0 1 78.885464033936586 34.432312151023019 13.656703853789647 1 rotate no_reflect no_shear #
lump $-1 $-1 $35 $2 #
transform $-1 1 0 0 0 1 0 0 0 1 78.885464033936586 34.432312151023019 13.656703853789647 1 rotate no_reflect no_shear #
lump $-1 $-1 $36 $3 #
transform $-1 1 0 0 0 1 0 0 0 1 78.885464033936586 34.432312151023019 13.656703853789647 1 rotate no_reflect no_shear #
lump $-1 $-1 $37 $4 #
transform $-1 1 0 0 0 1 0 0 0 1 78.885464033936586 34.432312151023019 13.656703853789647 1 rotate no_reflect no_shear #
lump $-1 $-1 $38 $5 #
transform $-1 1 0 0 0 1 0 0 0 1 78.885464033936586 34.432312151023019 13.656703853789647 1 rotate no_reflect no_shear #
lump $-1 $-1 $39 $6 #
transform $-1 1 0 0 0 1 0 0 0 1 78.885464033936586 34.432312151023019 13.656703853789647 1 rotate no_reflect no_shear #
lump $-1 $-1 $40 $7 #
transform $-1 1 0 0 0 1 0 0 0 1 78.885464033936586 34.432312151023019 13.656703853789647 1 rotate no_reflect no_shear #
lump $-1 $-1 $41 $8 #
transform $-1 1 0 0 0 1 0 0 0 1 78.885464033936586 34.432312151023019 13.656703853789647 1 rotate no_reflect no_shear #
lump $-1 $-1 $42 $9 #
transform $-1 1 0 0 0 1 0 0 0 1 78.885464033936586 34.432312151023019 13.656703853789647 1 rotate no_reflect no_shear #
lump $-1 $-1 $43 $10 #
transform $-1 1 0 0 0 1 0 0 0 1 78.885464033936586 34.432312151023019 13.656703853789647 1 rotate no_reflect no_shear #
shell $-1 $-1 $-1 $44 $-1 $11 #
shell $-1 $-1 $-1 $45 $-1 $13 #
shell $-1 $-1 $-1 $46 $-1 $15 #
shell $-1 $-1 $-1 $47 $-1 $17 #
shell $-1 $-1 $-1 $48 $-1 $19 #
shell $-1 $-1 $-1 $49 $-1 $21 #
shell $-1 $-1 $-1 $50 $-1 $23 #
shell $-1 $-1 $-1 $51 $-1 $25 #
shell $-1 $-1 $-1 $52 $-1 $27 #
shell $-1 $-1 $-1 $53 $-1 $29 #
shell $-1 $-1 $-1 $54 $-1 $31 #
face $-1 $55 $56 $33 $-1 $57 forward single #
face $-1 $58 $59 $34 $-1 $60 forward single #
face $-1 $61 $62 $35 $-1 $63 reversed single #
face $-1 $64 $65 $36 $-1 $66 forward single #
face $-1 $67 $68 $37 $-1 $69 forward single #
face $-1 $70 $71 $38 $-1 $72 reversed single #
face $-1 $73 $74 $39 $-1 $75 forward single #
face $-1 $76 $77 $40 $-1 $78 forward single #
face $-1 $79 $80 $41 $-1 $81 reversed single #
face $-1 $82 $83 $42 $-1 $84 forward single #
face $-1 $85 $86 $43 $-1 $87 forward single #
face $-1 $88 $89 $33 $-1 $90 reversed single #
loop $-1 $-1 $91 $44 #
plane-surface $-1 0 0 13.656703853789647 0 0 1 1 0 0 forward_v I I I I #
face $-1 $92 $93 $34 $-1 $94 reversed single #
loop $-1 $-1 $95 $45 #
plane-surface $-1 -78.885464033936586 0 0 1 0 0 0 0 -1 forward_v I I I I #
face $-1 $96 $97 $35 $-1 $98 reversed single #
loop $-1 $-1 $99 $46 #
plane-surface $-1 -50.008905639969043 121.59406567368706 149.98151889005885 1 0 0 0 -0.80901700255871778 -0.5877852410284794 forward_v I I I I #
face $-1 $100 $101 $36 $-1 $102 forward single #
loop $-1 $103 $104 $47 #
cone-surface $-1 -42.778321033780543 28.610087138023857 6.5646962700032354 0 -0.80901700255871778 -0.5877852410284794 2.5 0 0 1 I I 0 1 2.5 forward I I I I #
face $-1 $105 $106 $37 $-1 $107 forward single #
loop $-1 $108 $109 $48 #
cone-surface $-1 -31.932444124497799 28.610087138023857 6.5646962700032354 0 -0.80901700255871778 -0.5877852410284794 2.5 0 0 1 I I 0 1 2.5 forward I I I I #
face $-1 $110 $111 $38 $-1 $112 reversed single #
loop $-1 $-1 $113 $49 #
plane-surface $-1 35.56104591632544 121.59406567368706 149.98151889005885 1 0 0 0 -0.80901700255871778 -0.5877852410284794 forward_v I I I I #
face $-1 $114 $115 $39 $-1 $116 forward single #
loop $-1 $117 $118 $50 #
cone-surface $-1 42.791630522513941 28.610087138023857 6.5646962700032354 0 -0.80901700255871778 -0.5877852410284794 2.5 0 0 1 I I 0 1 2.5 forward I I I I #
face $-1 $119 $120 $40 $-1 $121 forward single #
loop $-1 $122 $123 $51 #
cone-surface $-1 53.637507431796678 28.610087138023857 6.5646962700032354 0 -0.80901700255871778 -0.5877852410284794 2.5 0 0 1 I I 0 1 2.5 forward I I I I #
face $-1 $124 $125 $41 $-1 $126 reversed single #
loop $-1 $-1 $127 $52 #
plane-surface $-1 -27.68035979893375 -118.0381673740624 137.46361527386742 -1 0 0 0 -0.52991927123019833 0.84804809178421925 forward_v I I I I #
face $-1 $128 $129 $42 $-1 $130 forward single #
loop $-1 $131 $132 $53 #
cone-surface $-1 -56.498872539638519 -23.935567521543291 4.6562787092035576 0 0.52991927123019833 -0.84804809178421925 4 0 0 1 I I 0 1 4 forward I I I I #
face $-1 $133 $134 $43 $-1 $135 forward single #
loop $-1 $136 $137 $54 #
cone-surface $-1 -39.207764895215661 -23.935567521543291 4.6562787092035576 0 0.52991927123019833 -0.84804809178421925 4 0 0 1 I I 0 1 4 forward I I I I #
face $-1 $138 $139 $33 $-1 $140 reversed single #
loop $-1 $-1 $141 $55 #
plane-surface $-1 0 0 -13.656703853789647 0 0 1 1 0 0 forward_v I I I I #
coedge $-1 $142 $143 $144 $145 forward $56 $-1 #
face $-1 $146 $147 $34 $-1 $148 forward single #
loop $-1 $-1 $149 $58 #
plane-surface $-1 0 34.432312151023019 0 0 -1 0 0 0 -1 forward_v I I I I #
coedge $-1 $150 $151 $152 $153 forward $59 $-1 #
face $-1 $154 $155 $35 $-1 $156 reversed single #
loop $-1 $-1 $157 $61 #
plane-surface $-1 -37.355382579139174 -6.0452976426907696 57.246095908397137 0 0.80901700255871778 0.5877852410284794 1 0 0 forward_v I I I I #
coedge $-1 $158 $159 $160 $161 reversed $62 $-1 #
face $-1 $-1 $162 $36 $-1 $163 forward single #
loop $-1 $164 $165 $64 #
cone-surface $-1 -42.778321033780543 26.180622683526202 4.7995870752142373 0 -0.80901700255871778 -0.5877852410284794 1.25 0 0 1 I I -0.70710678118654746 0.70710678118654746 1.25 forward I I I I #
loop $-1 $-1 $166 $47 #
coedge $-1 $104 $104 $167 $168 reversed $65 $-1 #
face $-1 $-1 $169 $37 $-1 $170 forward single #
loop $-1 $171 $172 $67 #
cone-surface $-1 -31.932444124497799 26.180622683526202 4.7995870752142373 0 -0.80901700255871778 -0.5877852410284794 1.25 0 0 1 I I -0.70710678118654746 0.70710678118654746 1.25 forward I I I I #
loop $-1 $-1 $173 $48 #
coedge $-1 $109 $109 $174 $175 reversed $68 $-1 #
face $-1 $176 $177 $38 $-1 $178 reversed single #
loop $-1 $-1 $179 $70 #
plane-surface $-1 48.214568977155309 -6.0452976426907696 57.246095908397137 0 0.80901700255871778 0.5877852410284794 1 0 0 forward_v I I I I #
coedge $-1 $180 $181 $182 $183 reversed $71 $-1 #
face $-1 $-1 $184 $39 $-1 $185 forward single #
loop $-1 $186 $187 $73 #
cone-surface $-1 42.791630522513941 26.180622683526202 4.7995870752142373 0 -0.80901700255871778 -0.5877852410284794 1.25 0 0 1 I I -0.70710678118654746 0.70710678118654746 1.25 forward I I I I #
loop $-1 $-1 $188 $50 #
coedge $-1 $118 $118 $189 $190 reversed $74 $-1 #
face $-1 $-1 $191 $40 $-1 $192 forward single #
loop $-1 $193 $194 $76 #
cone-surface $-1 53.637507431796678 26.180622683526202 4.7995870752142373 0 -0.80901700255871778 -0.5877852410284794 1.25 0 0 1 I I -0.70710678118654746 0.70710678118654746 1.25 forward I I I I #
loop $-1 $-1 $195 $51 #
coedge $-1 $123 $123 $196 $197 reversed $77 $-1 #
face $-1 $198 $199 $41 $-1 $200 reversed single #
loop $-1 $-1 $201 $79 #
plane-surface $-1 -47.853318717427086 -34.432312151022998 3.666280786882254 0 -0.52991927123019833 0.84804809178421925 1 0 0 forward_v I I I I #
coedge $-1 $202 $203 $204 $205 reversed $80 $-1 #
face $-1 $-1 $206 $42 $-1 $207 forward single #
loop $-1 $208 $209 $82 #
cone-surface $-1 -56.498872539638519 -20.372993699687218 -1.0450310854972713 0 0.52991927123019833 -0.84804809178421925 2 0 0 1 I I -0.70710678118654746 0.70710678118654746 2 forward I I I I #
loop $-1 $-1 $210 $53 #
coedge $-1 $132 $132 $211 $212 reversed $83 $-1 #
face $-1 $-1 $213 $43 $-1 $214 forward single #
loop $-1 $215 $216 $85 #
cone-surface $-1 -39.207764895215661 -20.372993699687218 -1.0450310854972713 0 0.52991927123019833 -0.84804809178421925 2 0 0 1 I I -0.70710678118654746 0.70710678118654746 2 forward I I I I #
loop $-1 $-1 $217 $54 #
coedge $-1 $137 $137 $218 $219 reversed $86 $-1 #
face $-1 $220 $221 $33 $-1 $222 reversed single #
loop $-1 $-1 $223 $88 #
plane-surface $-1 0 -34.432312151023019 0 0 1 0 0 0 1 forward_v I I I I #
coedge $-1 $224 $225 $226 $227 forward $89 $-1 #
coedge $-1 $228 $91 $229 $230 forward $56 $-1 #
coedge $-1 $91 $228 $231 $232 forward $56 $-1 #
coedge $-1 $233 $234 $91 $145 reversed $235 $-1 #
edge $-1 $236 -34.432312151023019 $237 34.432312151023019 $144 $238 forward 7 unknown #
face $-1 $239 $240 $34 $-1 $241 reversed single #
loop $-1 $-1 $152 $92 #
plane-surface $-1 -84.315057232944667 0 -5.2243765701753659 0 0 1 1 0 0 forward_v I I I I #
coedge $-1 $242 $243 $151 $244 forward $93 $-1 #
coedge $-1 $245 $95 $246 $247 reversed $59 $-1 #
coedge $-1 $95 $245 $149 $244 reversed $59 $-1 #
coedge $-1 $248 $249 $95 $153 reversed $147 $-1 #
edge $-1 $250 -34.432312151023019 $251 34.432312151023019 $152 $252 forward 7 unknown #
face $-1 $253 $254 $35 $-1 $255 forward single #
loop $-1 $-1 $256 $96 #
plane-surface $-1 -24.701859518309309 121.59406567368706 149.98151889005885 -1 0 0 0 0.80901700255871778 0.5877852410284794 forward_v I I I I #
coedge $-1 $257 $258 $259 $260 reversed $97 $-1 #
coedge $-1 $159 $99 $261 $262 reversed $62 $-1 #
coedge $-1 $99 $158 $257 $263 reversed $62 $-1 #
coedge $-1 $259 $264 $99 $161 forward $254 $-1 #
edge $-1 $265 26.364720685820508 $266 35.172784309220305 $160 $267 forward 7 unknown #
loop $-1 $-1 $167 $100 #
plane-surface $-1 -37.355382579139174 -6.0452976426907696 57.246095908397137 0 0.80901700255871778 0.5877852410284794 1 0 0 forward_v I I I I #
loop $-1 $-1 $268 $64 #
coedge $-1 $165 $165 $166 $269 reversed $101 $-1 #
coedge $-1 $166 $166 $165 $269 forward $103 $-1 #
coedge $-1 $167 $167 $104 $168 forward $162 $-1 #
edge $-1 $270 6.2877848429888667e-016 $270 6.2831853071796013 $167 $271 forward 7 unknown #
loop $-1 $-1 $174 $105 #
plane-surface $-1 -37.355382579139174 -6.0452976426907696 57.246095908397137 0 0.80901700255871778 0.5877852410284794 1 0 0 forward_v I I I I #
loop $-1 $-1 $272 $67 #
coedge $-1 $172 $172 $173 $273 reversed $106 $-1 #
coedge $-1 $173 $173 $172 $273 forward $108 $-1 #
coedge $-1 $174 $174 $109 $175 forward $169 $-1 #
edge $-1 $274 6.2877848429888667e-016 $274 6.2831853071796013 $174 $275 forward 7 unknown #
face $-1 $276 $277 $38 $-1 $278 forward single #
loop $-1 $-1 $279 $110 #
plane-surface $-1 60.868092037985178 121.59406567368706 149.98151889005885 -1 0 0 0 0.80901700255871778 0.5877852410284794 forward_v I I I I #
coedge $-1 $280 $281 $282 $283 reversed $111 $-1 #
coedge $-1 $181 $113 $284 $285 reversed $71 $-1 #
coedge $-1 $113 $180 $280 $286 reversed $71 $-1 #
coedge $-1 $282 $287 $113 $183 forward $277 $-1 #
edge $-1 $288 26.364720685820508 $289 35.172784309220305 $182 $290 forward 7 unknown #
loop $-1 $-1 $189 $114 #
plane-surface $-1 48.214568977155309 -6.0452976426907696 57.246095908397137 0 0.80901700255871778 0.5877852410284794 1 0 0 forward_v I I I I #
loop $-1 $-1 $291 $73 #
coedge $-1 $187 $187 $188 $292 reversed $115 $-1 #
coedge $-1 $188 $188 $187 $292 forward $117 $-1 #
coedge $-1 $189 $189 $118 $190 forward $184 $-1 #
edge $-1 $293 6.2877848429888667e-016 $293 6.2831853071796013 $189 $294 forward 7 unknown #
loop $-1 $-1 $196 $119 #
plane-surface $-1 48.214568977155309 -6.0452976426907696 57.246095908397137 0 0.80901700255871778 0.5877852410284794 1 0 0 forward_v I I I I #
loop $-1 $-1 $295 $76 #
coedge $-1 $194 $194 $195 $296 reversed $120 $-1 #
coedge $-1 $195 $195 $194 $296 forward $122 $-1 #
coedge $-1 $196 $196 $123 $197 forward $191 $-1 #
edge $-1 $297 6.2877848429888667e-016 $297 6.2831853071796013 $196 $298 forward 7 unknown #
face $-1 $299 $300 $41 $-1 $301 reversed single #
loop $-1 $-1 $302 $124 #
plane-surface $-1 -68.026277635920422 -118.0381673740624 137.46361527386742 1 0 0 0 0.52991927123019833 -0.84804809178421925 forward_v I I I I #
coedge $-1 $303 $304 $305 $306 reversed $125 $-1 #
coedge $-1 $203 $127 $307 $308 reversed $80 $-1 #
coedge $-1 $127 $202 $303 $309 reversed $80 $-1 #
coedge $-1 $305 $310 $127 $205 forward $311 $-1 #
edge $-1 $312 24.586771536008179 $313 40.574790236176298 $204 $314 forward 7 unknown #
loop $-1 $-1 $211 $128 #
plane-surface $-1 -47.853318717427086 -34.432312151022998 3.666280786882254 0 -0.52991927123019833 0.84804809178421925 1 0 0 forward_v I I I I #
loop $-1 $-1 $315 $82 #
coedge $-1 $209 $209 $210 $316 reversed $129 $-1 #
coedge $-1 $210 $210 $209 $316 forward $131 $-1 #
coedge $-1 $211 $211 $132 $212 forward $206 $-1 #
edge $-1 $317 9.4132572177975918e-016 $317 6.2831853071796013 $211 $318 forward 7 unknown #
loop $-1 $-1 $218 $133 #
plane-surface $-1 -47.853318717427086 -34.432312151022998 3.666280786882254 0 -0.52991927123019833 0.84804809178421925 1 0 0 forward_v I I I I #
loop $-1 $-1 $319 $85 #
coedge $-1 $216 $216 $217 $320 reversed $134 $-1 #
coedge $-1 $217 $217 $216 $320 forward $136 $-1 #
coedge $-1 $218 $218 $137 $219 forward $213 $-1 #
edge $-1 $321 9.4132572177975918e-016 $321 6.2831853071796013 $218 $322 forward 7 unknown #
face $-1 $323 $324 $33 $-1 $325 reversed single #
loop $-1 $-1 $326 $138 #
plane-surface $-1 -78.885464033936586 0 0 1 0 0 0 0 -1 forward_v I I I I #
coedge $-1 $327 $231 $328 $329 forward $139 $-1 #
coedge $-1 $330 $141 $327 $331 forward $89 $-1 #
coedge $-1 $141 $330 $332 $333 forward $89 $-1 #
coedge $-1 $234 $233 $141 $227 reversed $235 $-1 #
edge $-1 $334 -34.432312151023019 $335 34.432312151023019 $226 $336 forward 7 unknown #
coedge $-1 $143 $142 $337 $338 forward $56 $-1 #
coedge $-1 $339 $340 $142 $230 reversed $324 $-1 #
edge $-1 $237 -78.885464033936586 $341 78.885464033936586 $229 $342 forward 7 unknown #
coedge $-1 $223 $343 $143 $232 reversed $139 $-1 #
edge $-1 $344 -78.885464033936586 $236 78.885464033936586 $231 $345 forward 7 unknown #
coedge $-1 $226 $144 $343 $346 forward $235 $-1 #
coedge $-1 $144 $226 $339 $347 reversed $235 $-1 #
loop $-1 $-1 $233 $323 #
vertex $-1 $145 $348 #
vertex $-1 $145 $349 #
straight-curve $-1 78.885464033936586 0 13.656703853789647 0 1 0 I I #
face $-1 $350 $351 $34 $-1 $352 reversed single #
loop $-1 $-1 $353 $146 #
plane-surface $-1 -84.315057232944667 0 -10.61445464444277 0 0 1 1 0 0 forward_v I I I I #
coedge $-1 $354 $149 $355 $356 reversed $93 $-1 #
coedge $-1 $149 $354 $248 $357 reversed $93 $-1 #
edge $-1 $250 5.2243765701753659 $358 10.61445464444277 $149 $359 forward 7 unknown #
coedge $-1 $151 $150 $353 $360 forward $59 $-1 #
coedge $-1 $361 $362 $150 $247 forward $363 $-1 #
edge $-1 $364 -10.61445464444277 $251 -5.2243765701753659 $246 $365 forward 7 unknown #
coedge $-1 $366 $152 $243 $357 forward $147 $-1 #
coedge $-1 $152 $366 $361 $367 forward $147 $-1 #
vertex $-1 $244 $368 #
vertex $-1 $367 $369 #
straight-curve $-1 -78.885464033936586 0 -5.2243765701753659 0 -1 0 I I #
face $-1 $-1 $370 $35 $-1 $371 reversed single #
loop $-1 $-1 $160 $154 #
plane-surface $-1 0 0 13.656703853789647 0 0 1 1 0 0 forward_v I I I I #
coedge $-1 $372 $373 $374 $375 reversed $155 $-1 #
coedge $-1 $376 $157 $159 $263 forward $97 $-1 #
coedge $-1 $157 $376 $372 $377 forward $97 $-1 #
coedge $-1 $374 $160 $157 $260 forward $254 $-1 #
edge $-1 $266 -31.331214350399456 $378 -6.0241682287397218 $259 $379 forward 7 unknown #
coedge $-1 $380 $381 $158 $262 forward $370 $-1 #
edge $-1 $382 -73.457315471805771 $265 -61.334055591239775 $261 $383 forward 7 unknown #
edge $-1 $266 53.879451132355904 $382 68.864624302045996 $159 $384 forward 7 unknown #
coedge $-1 $160 $374 $380 $385 forward $254 $-1 #
vertex $-1 $262 $386 #
vertex $-1 $161 $387 #
straight-curve $-1 -50.008905639969043 60.797032836843528 13.656703853789651 0 -1 0 I I #
coedge $-1 $268 $268 $-1 $388 reversed $164 $-1 #
edge $-1 $389 0 $389 6.2831853071796004 $165 $390 forward 7 unknown #
vertex $-1 $168 $391 #
ellipse-curve $-1 -42.778321033780543 30.028280339323121 7.5950739135066403 0 0.80901700255871778 0.5877852410284794 2.5 0 0 1 I I #
coedge $-1 $272 $272 $-1 $392 reversed $171 $-1 #
edge $-1 $393 0 $393 6.2831853071796004 $172 $394 forward 7 unknown #
vertex $-1 $175 $395 #
ellipse-curve $-1 -31.932444124497799 30.028280339323121 7.5950739135066403 0 0.80901700255871778 0.5877852410284794 2.5 0 0 1 I I #
face $-1 $-1 $396 $38 $-1 $397 reversed single #
loop $-1 $-1 $182 $176 #
plane-surface $-1 0 0 13.656703853789647 0 0 1 1 0 0 forward_v I I I I #
coedge $-1 $398 $399 $400 $401 reversed $177 $-1 #
coedge $-1 $402 $179 $181 $286 forward $111 $-1 #
coedge $-1 $179 $402 $398 $403 forward $111 $-1 #
coedge $-1 $400 $182 $179 $283 forward $277 $-1 #
edge $-1 $289 11.453761427747786 $404 36.760807549407524 $282 $405 forward 7 unknown #
coedge $-1 $406 $407 $180 $285 forward $396 $-1 #
edge $-1 $408 -73.457315471805771 $288 -61.334055591239775 $284 $409 forward 7 unknown #
edge $-1 $289 53.879451132355904 $408 68.864624302045996 $181 $410 forward 7 unknown #
coedge $-1 $182 $400 $406 $411 forward $277 $-1 #
vertex $-1 $183 $412 #
vertex $-1 $183 $413 #
straight-curve $-1 35.56104591632544 60.797032836843528 13.656703853789651 0 -1 0 I I #
coedge $-1 $291 $291 $-1 $414 reversed $186 $-1 #
edge $-1 $415 0 $415 6.2831853071796004 $187 $416 forward 7 unknown #
vertex $-1 $190 $417 #
ellipse-curve $-1 42.791630522513941 30.028280339323121 7.5950739135066403 0 0.80901700255871778 0.5877852410284794 2.5 0 0 1 I I #
coedge $-1 $295 $295 $-1 $418 reversed $193 $-1 #
edge $-1 $419 0 $419 6.2831853071796004 $194 $420 forward 7 unknown #
vertex $-1 $197 $421 #
ellipse-curve $-1 53.637507431796678 30.028280339323121 7.5950739135066403 0 0.80901700255871778 0.5877852410284794 2.5 0 0 1 I I #
face $-1 $-1 $311 $41 $-1 $422 forward single #
loop $-1 $-1 $423 $198 #
plane-surface $-1 0 -34.432312151023019 0 0 1 0 0 0 1 forward_v I I I I #
coedge $-1 $424 $425 $426 $427 reversed $199 $-1 #
coedge $-1 $428 $201 $203 $309 forward $125 $-1 #
coedge $-1 $201 $428 $424 $429 forward $125 $-1 #
coedge $-1 $426 $204 $201 $306 forward $311 $-1 #
edge $-1 $313 3.7537004402202072 $430 44.099618277206879 $305 $431 forward 7 unknown #
coedge $-1 $432 $433 $202 $308 forward $300 $-1 #
edge $-1 $434 -65.065526850051469 $312 -55.075103783144058 $307 $435 forward 7 unknown #
edge $-1 $313 -18.852726460984897 $434 2.5137175249122944e-014 $203 $436 forward 7 unknown #
coedge $-1 $204 $426 $432 $437 forward $311 $-1 #
loop $-1 $-1 $426 $299 #
vertex $-1 $308 $438 #
vertex $-1 $205 $439 #
straight-curve $-1 -27.68035979893375 -59.019083687031198 13.656703853789651 0 1 0 I I #
coedge $-1 $315 $315 $-1 $440 reversed $208 $-1 #
edge $-1 $441 0 $441 6.2831853071796004 $209 $442 forward 7 unknown #
vertex $-1 $212 $443 #
ellipse-curve $-1 -56.498872539638519 -26.438302800938963 8.6614923203359417 0 -0.52991927123019833 0.84804809178421925 4 0 0 1 I I #
coedge $-1 $319 $319 $-1 $444 reversed $215 $-1 #
edge $-1 $445 0 $445 6.2831853071796004 $216 $446 forward 7 unknown #
vertex $-1 $219 $447 #
ellipse-curve $-1 -39.207764895215661 -26.438302800938963 8.6614923203359417 0 -0.52991927123019833 0.84804809178421925 4 0 0 1 I I #
face $-1 $-1 $235 $33 $-1 $448 reversed single #
loop $-1 $-1 $339 $220 #
plane-surface $-1 0 34.432312151023019 0 0 -1 0 0 0 -1 forward_v I I I I #
coedge $-1 $449 $337 $340 $450 forward $221 $-1 #
coedge $-1 $343 $223 $224 $331 reversed $139 $-1 #
coedge $-1 $337 $449 $223 $329 reversed $221 $-1 #
edge $-1 $344 -13.656703853789647 $451 13.656703853789647 $328 $452 forward 7 unknown #
coedge $-1 $225 $224 $449 $453 forward $89 $-1 #
edge $-1 $335 -78.885464033936586 $451 78.885464033936586 $327 $454 forward 7 unknown #
coedge $-1 $340 $339 $225 $333 reversed $324 $-1 #
edge $-1 $455 -78.885464033936586 $334 78.885464033936586 $332 $456 forward 7 unknown #
vertex $-1 $227 $457 #
vertex $-1 $346 $458 #
straight-curve $-1 78.885464033936586 0 -13.656703853789647 0 -1 0 I I #
coedge $-1 $326 $328 $228 $338 reversed $221 $-1 #
edge $-1 $341 -34.432312151023019 $344 34.432312151023019 $337 $459 forward 7 unknown #
coedge $-1 $332 $229 $234 $347 forward $324 $-1 #
coedge $-1 $229 $332 $326 $450 reversed $324 $-1 #
vertex $-1 $230 $460 #
straight-curve $-1 0 34.432312151023019 13.656703853789647 -1 0 0 I I #
coedge $-1 $231 $327 $233 $346 reversed $139 $-1 #
vertex $-1 $338 $461 #
straight-curve $-1 0 -34.432312151023019 13.656703853789647 1 0 0 I I #
edge $-1 $236 -13.656703853789647 $335 13.656703853789647 $233 $462 forward 7 unknown #
edge $-1 $237 -13.656703853789647 $334 13.656703853789647 $234 $463 forward 7 unknown #
point $-1 78.885464033936586 -34.432312151023019 13.656703853789647 #
point $-1 78.885464033936586 34.432312151023019 13.656703853789647 #
face $-1 $-1 $363 $34 $-1 $464 reversed single #
loop $-1 $-1 $465 $239 #
plane-surface $-1 -89.744650431952749 0 -7.9194156073090678 1 0 0 0 0 -1 forward_v I I I I #
coedge $-1 $466 $355 $245 $360 reversed $240 $-1 #
coedge $-1 $243 $242 $465 $467 reversed $93 $-1 #
coedge $-1 $353 $468 $242 $356 forward $240 $-1 #
edge $-1 $469 -5.4295931990080817 $358 5.4295931990080817 $242 $470 forward 7 unknown #
edge $-1 $250 -5.4295931990080817 $471 5.4295931990080817 $243 $472 forward 7 unknown #
vertex $-1 $244 $473 #
straight-curve $-1 -78.885464033936586 34.432312151023019 0 0 0 -1 I I #
edge $-1 $364 -34.432312151023019 $358 34.432312151023019 $353 $474 forward 7 unknown #
coedge $-1 $475 $246 $249 $367 reversed $363 $-1 #
coedge $-1 $246 $475 $466 $476 reversed $363 $-1 #
loop $-1 $-1 $246 $350 #
vertex $-1 $247 $477 #
straight-curve $-1 -78.885464033936586 -34.432312151023019 0 0 0 1 I I #
coedge $-1 $249 $248 $478 $479 forward $147 $-1 #
edge $-1 $480 -5.4295931990080817 $251 5.4295931990080817 $361 $481 forward 7 unknown #
point $-1 -78.885464033936586 34.432312151023019 -5.2243765701753659 #
point $-1 -78.885464033936586 -34.432312151023019 -5.2243765701753659 #
loop $-1 $-1 $261 $253 #
plane-surface $-1 0 34.432312151023019 0 0 -1 0 0 0 -1 forward_v I I I I #
coedge $-1 $373 $256 $258 $377 reversed $155 $-1 #
coedge $-1 $256 $372 $482 $483 reversed $155 $-1 #
coedge $-1 $264 $259 $256 $375 forward $254 $-1 #
edge $-1 $378 -35.172784309220305 $484 -26.364720685820508 $374 $485 forward 7 unknown #
coedge $-1 $258 $257 $381 $486 reversed $97 $-1 #
edge $-1 $487 -68.864624302045996 $378 -53.879451132355904 $372 $488 forward 7 unknown #
vertex $-1 $260 $489 #
straight-curve $-1 -18.677691289569587 25.624248527623223 13.656703853789647 1 0 0 I I #
coedge $-1 $482 $261 $264 $385 reversed $370 $-1 #
coedge $-1 $261 $482 $376 $486 forward $370 $-1 #
vertex $-1 $262 $490 #
straight-curve $-1 -50.008905639969043 34.432312151023019 74.990759445029425 0 0 1 I I #
straight-curve $-1 -50.008905639969043 -6.0452976426907696 57.246095908397137 0 0.5877852410284794 -0.80901700255871778 I I #
edge $-1 $484 24.701859518309309 $265 50.008905639969043 $380 $491 forward 7 unknown #
point $-1 -50.008905639969043 34.432312151023019 13.656703853789647 #
point $-1 -50.008905639969043 25.624248527623223 13.656703853789651 #
edge $-1 $492 1 $492 0 $268 $-1 forward 7 unknown #
vertex $-1 $269 $493 #
ellipse-curve $-1 -42.778321033780543 27.1918939367246 5.5343186264998367 0 0.80901700255871778 0.5877852410284794 2.5 0 0 1 I I #
point $-1 -40.278321033780543 30.028280339323114 7.5950739135066332 #
edge $-1 $494 1 $494 0 $272 $-1 forward 7 unknown #
vertex $-1 $273 $495 #
ellipse-curve $-1 -31.932444124497799 27.1918939367246 5.5343186264998367 0 0.80901700255871778 0.5877852410284794 2.5 0 0 1 I I #
point $-1 -29.432444124497799 30.028280339323114 7.5950739135066332 #
loop $-1 $-1 $284 $276 #
plane-surface $-1 0 34.432312151023019 0 0 -1 0 0 0 -1 forward_v I I I I #
coedge $-1 $399 $279 $281 $403 reversed $177 $-1 #
coedge $-1 $279 $398 $496 $497 reversed $177 $-1 #
coedge $-1 $287 $282 $279 $401 forward $277 $-1 #
edge $-1 $404 -35.172784309220305 $498 -26.364720685820508 $400 $499 forward 7 unknown #
coedge $-1 $281 $280 $407 $500 reversed $111 $-1 #
edge $-1 $501 -68.864624302045996 $404 -53.879451132355904 $398 $502 forward 7 unknown #
vertex $-1 $283 $503 #
straight-curve $-1 24.107284488577655 25.624248527623223 13.656703853789647 1 0 0 I I #
coedge $-1 $496 $284 $287 $411 reversed $396 $-1 #
coedge $-1 $284 $496 $402 $500 forward $396 $-1 #
vertex $-1 $285 $504 #
straight-curve $-1 35.56104591632544 34.432312151023019 74.990759445029425 0 0 1 I I #
straight-curve $-1 35.56104591632544 -6.0452976426907696 57.246095908397137 0 0.5877852410284794 -0.80901700255871778 I I #
edge $-1 $498 -60.868092037985178 $288 -35.56104591632544 $406 $505 forward 7 unknown #
point $-1 35.56104591632544 34.432312151023019 13.656703853789647 #
point $-1 35.56104591632544 25.624248527623223 13.656703853789651 #
edge $-1 $506 1 $506 0 $291 $-1 forward 7 unknown #
vertex $-1 $292 $507 #
ellipse-curve $-1 42.791630522513941 27.1918939367246 5.5343186264998367 0 0.80901700255871778 0.5877852410284794 2.5 0 0 1 I I #
point $-1 45.291630522513941 30.028280339323114 7.5950739135066332 #
edge $-1 $508 1 $508 0 $295 $-1 forward 7 unknown #
vertex $-1 $296 $509 #
ellipse-curve $-1 53.637507431796678 27.1918939367246 5.5343186264998367 0 0.80901700255871778 0.5877852410284794 2.5 0 0 1 I I #
point $-1 56.137507431796678 30.028280339323114 7.5950739135066332 #
plane-surface $-1 0 0 13.656703853789647 0 0 1 1 0 0 forward_v I I I I #
coedge $-1 $433 $432 $425 $510 forward $300 $-1 #
coedge $-1 $425 $302 $304 $429 reversed $199 $-1 #
coedge $-1 $302 $424 $423 $510 reversed $199 $-1 #
coedge $-1 $310 $305 $302 $427 forward $311 $-1 #
edge $-1 $430 -40.574790236176298 $511 -24.586771536008179 $426 $512 forward 7 unknown #
coedge $-1 $304 $303 $433 $513 reversed $125 $-1 #
edge $-1 $514 -2.5137175249122944e-014 $430 18.852726460984897 $424 $515 forward 7 unknown #
vertex $-1 $306 $516 #
straight-curve $-1 -23.926659358713543 -18.4442934508549 13.656703853789647 -1 0 0 I I #
coedge $-1 $423 $307 $310 $437 reversed $300 $-1 #
coedge $-1 $307 $423 $428 $513 forward $300 $-1 #
vertex $-1 $308 $517 #
straight-curve $-1 -27.68035979893375 -34.432312151023019 68.731807636933709 0 0 1 I I #
straight-curve $-1 -27.68035979893375 -34.432312151022998 3.666280786882254 0 -0.84804809178421925 -0.52991927123019833 I I #
edge $-1 $511 -68.026277635920422 $312 -27.68035979893375 $432 $518 forward 7 unknown #
point $-1 -27.68035979893375 -34.432312151023019 13.656703853789647 #
point $-1 -27.68035979893375 -18.4442934508549 13.656703853789647 #
edge $-1 $519 1 $519 0 $315 $-1 forward 7 unknown #
vertex $-1 $316 $520 #
ellipse-curve $-1 -56.498872539638519 -21.432832242147615 0.65106509807116719 0 -0.52991927123019833 0.84804809178421925 4 0 0 1 I I #
point $-1 -52.498872539638519 -26.438302800938963 8.6614923203359488 #
edge $-1 $521 1 $521 0 $319 $-1 forward 7 unknown #
vertex $-1 $320 $522 #
ellipse-curve $-1 -39.207764895215661 -21.432832242147615 0.65106509807116719 0 -0.52991927123019833 0.84804809178421925 4 0 0 1 I I #
point $-1 -35.207764895215661 -26.438302800938963 8.6614923203359488 #
plane-surface $-1 78.885464033936586 0 0 -1 0 0 0 0 1 forward_v I I I I #
coedge $-1 $328 $326 $330 $453 reversed $221 $-1 #
edge $-1 $341 -13.656703853789647 $455 13.656703853789647 $340 $523 forward 7 unknown #
vertex $-1 $453 $524 #
straight-curve $-1 -78.885464033936586 -34.432312151023019 0 0 0 -1 I I #
edge $-1 $451 -34.432312151023019 $455 34.432312151023019 $449 $525 forward 7 unknown #
straight-curve $-1 0 -34.432312151023019 -13.656703853789647 -1 0 0 I I #
vertex $-1 $333 $526 #
straight-curve $-1 0 34.432312151023019 -13.656703853789647 1 0 0 I I #
point $-1 78.885464033936586 34.432312151023019 -13.656703853789647 #
point $-1 78.885464033936586 -34.432312151023019 -13.656703853789647 #
straight-curve $-1 -78.885464033936586 0 13.656703853789647 0 -1 0 I I #
point $-1 -78.885464033936586 34.432312151023019 13.656703853789647 #
point $-1 -78.885464033936586 -34.432312151023019 13.656703853789647 #
straight-curve $-1 78.885464033936586 -34.432312151023019 0 0 0 -1 I I #
straight-curve $-1 78.885464033936586 34.432312151023019 0 0 0 -1 I I #
plane-surface $-1 0 -34.432312151023019 0 0 1 0 0 0 1 forward_v I I I I #
coedge $-1 $527 $478 $354 $467 forward $351 $-1 #
coedge $-1 $468 $353 $362 $476 forward $240 $-1 #
edge $-1 $471 -2.6950390371337019 $469 2.6950390371337019 $354 $528 forward 7 unknown #
coedge $-1 $355 $466 $527 $529 forward $240 $-1 #
vertex $-1 $356 $530 #
straight-curve $-1 -84.315057232944667 34.432312151023019 -10.61445464444277 1 0 0 I I #
vertex $-1 $357 $531 #
straight-curve $-1 -84.315057232944667 34.432312151023019 -5.2243765701753659 -1 0 0 I I #
point $-1 -78.885464033936586 34.432312151023019 -10.61445464444277 #
straight-curve $-1 -78.885464033936586 0 -10.61445464444277 0 1 0 I I #
coedge $-1 $362 $361 $532 $533 forward $363 $-1 #
edge $-1 $364 -5.4295931990080817 $534 5.4295931990080817 $362 $535 forward 7 unknown #
point $-1 -78.885464033936586 -34.432312151023019 -10.61445464444277 #
coedge $-1 $465 $532 $366 $479 reversed $351 $-1 #
edge $-1 $471 -34.432312151023019 $480 34.432312151023019 $478 $536 forward 7 unknown #
vertex $-1 $479 $537 #
straight-curve $-1 -84.315057232944667 -34.432312151023019 -5.2243765701753659 1 0 0 I I #
coedge $-1 $381 $380 $373 $483 forward $370 $-1 #
edge $-1 $484 61.334055591239775 $487 73.457315471805771 $482 $538 forward 7 unknown #
vertex $-1 $385 $539 #
straight-curve $-1 -24.701859518309309 60.797032836843528 13.656703853789651 0 1 0 I I #
edge $-1 $487 6.0241682287397218 $382 31.331214350399456 $381 $540 forward 7 unknown #
vertex $-1 $486 $541 #
straight-curve $-1 -24.701859518309309 -6.0452976426907696 57.246095908397137 0 -0.5877852410284794 0.80901700255871778 I I #
point $-1 -24.701859518309309 25.624248527623223 13.656703853789651 #
point $-1 -50.008905639969043 34.432312151023019 1.5334439732236547 #
straight-curve $-1 0 34.432312151023019 13.656703853789647 -1 0 0 I I #
vertex $-1 $388 $542 #
point $-1 -40.278321033780543 27.1918939367246 5.5343186264998367 #
vertex $-1 $392 $543 #
point $-1 -29.432444124497799 27.1918939367246 5.5343186264998367 #
coedge $-1 $407 $406 $399 $497 forward $396 $-1 #
edge $-1 $498 61.334055591239775 $501 73.457315471805771 $496 $544 forward 7 unknown #
vertex $-1 $411 $545 #
straight-curve $-1 60.868092037985178 60.797032836843528 13.656703853789651 0 1 0 I I #
edge $-1 $501 -36.760807549407524 $408 -11.453761427747786 $407 $546 forward 7 unknown #
vertex $-1 $500 $547 #
straight-curve $-1 60.868092037985178 -6.0452976426907696 57.246095908397137 0 -0.5877852410284794 0.80901700255871778 I I #
point $-1 60.868092037985178 25.624248527623223 13.656703853789651 #
point $-1 35.56104591632544 34.432312151023019 1.5334439732236547 #
straight-curve $-1 0 34.432312151023019 13.656703853789647 -1 0 0 I I #
vertex $-1 $414 $548 #
point $-1 45.291630522513941 27.1918939367246 5.5343186264998367 #
vertex $-1 $418 $549 #
point $-1 56.137507431796678 27.1918939367246 5.5343186264998367 #
edge $-1 $511 55.075103783144058 $514 65.065526850051469 $423 $550 forward 7 unknown #
vertex $-1 $437 $551 #
straight-curve $-1 -68.026277635920422 -59.019083687031198 13.656703853789651 0 -1 0 I I #
edge $-1 $514 -44.099618277206879 $434 -3.7537004402202072 $433 $552 forward 7 unknown #
vertex $-1 $513 $553 #
straight-curve $-1 -68.026277635920422 -34.432312151022998 3.666280786882254 0 0.84804809178421925 0.52991927123019833 I I #
point $-1 -68.026277635920422 -18.4442934508549 13.656703853789647 #
point $-1 -27.68035979893375 -34.432312151023019 3.6662807868822407 #
straight-curve $-1 0 -34.432312151023019 13.656703853789647 1 0 0 I I #
vertex $-1 $440 $554 #
point $-1 -52.498872539638519 -21.432832242147615 0.65106509807116719 #
vertex $-1 $444 $555 #
point $-1 -35.207764895215661 -21.432832242147615 0.65106509807116719 #
straight-curve $-1 -78.885464033936586 34.432312151023019 0 0 0 -1 I I #
point $-1 -78.885464033936586 -34.432312151023019 -13.656703853789647 #
straight-curve $-1 -78.885464033936586 0 -13.656703853789647 0 1 0 I I #
point $-1 -78.885464033936586 34.432312151023019 -13.656703853789647 #
coedge $-1 $532 $465 $468 $529 reversed $351 $-1 #
straight-curve $-1 -89.744650431952749 34.432312151023019 -7.9194156073090678 0 0 -1 I I #
edge $-1 $534 -34.432312151023019 $469 34.432312151023019 $527 $556 forward 7 unknown #
point $-1 -89.744650431952749 34.432312151023019 -10.61445464444277 #
point $-1 -89.744650431952749 34.432312151023019 -5.2243765701753659 #
coedge $-1 $478 $527 $475 $533 reversed $351 $-1 #
edge $-1 $480 -2.6950390371337019 $534 2.6950390371337019 $532 $557 forward 7 unknown #
vertex $-1 $529 $558 #
straight-curve $-1 -84.315057232944667 -34.432312151023019 -10.61445464444277 -1 0 0 I I #
straight-curve $-1 -89.744650431952749 0 -5.2243765701753659 0 -1 0 I I #
point $-1 -89.744650431952749 -34.432312151023019 -5.2243765701753659 #
straight-curve $-1 -24.701859518309309 34.432312151023019 74.990759445029425 0 0 -1 I I #
point $-1 -24.701859518309309 34.432312151023019 13.656703853789647 #
straight-curve $-1 -18.677691289569587 34.432312151023019 1.5334439732236547 -1 0 0 I I #
point $-1 -24.701859518309309 34.432312151023019 1.5334439732236547 #
point $-1 -42.778321033780543 25.169351430327804 4.0648555239286379 #
point $-1 -31.932444124497799 25.169351430327804 4.0648555239286379 #
straight-curve $-1 60.868092037985178 34.432312151023019 74.990759445029425 0 0 -1 I I #
point $-1 60.868092037985178 34.432312151023019 13.656703853789647 #
straight-curve $-1 24.107284488577655 34.432312151023019 1.5334439732236547 -1 0 0 I I #
point $-1 60.868092037985178 34.432312151023019 1.5334439732236547 #
point $-1 42.791630522513941 25.169351430327804 4.0648555239286379 #
point $-1 53.637507431796678 25.169351430327804 4.0648555239286379 #
straight-curve $-1 -68.026277635920422 -34.432312151023019 68.731807636933709 0 0 -1 I I #
point $-1 -68.026277635920422 -34.432312151023019 13.656703853789647 #
straight-curve $-1 -23.926659358713543 -34.432312151023019 3.6662807868822416 1 0 0 I I #
point $-1 -68.026277635920422 -34.432312151023019 3.6662807868822407 #
point $-1 -56.498872539638519 -19.31315515722682 -2.7411272690657098 #
point $-1 -39.207764895215661 -19.31315515722682 -2.7411272690657098 #
straight-curve $-1 -89.744650431952749 0 -10.61445464444277 0 1 0 I I #
straight-curve $-1 -89.744650431952749 -34.432312151023019 -7.9194156073090678 0 0 -1 I I #
point $-1 -89.744650431952749 -34.432312151023019 -10.61445464444277 #
End-of-ACIS-data 