500 0 14 0           
7 Unknown 11 ACIS 5.0 NT 24 Thu Mar 25 21:38:04 1999 
-1 9.9999999999999995e-007 1e-010 
body $-1 $14 $-1 $15 #
body $-1 $16 $-1 $17 #
body $-1 $18 $-1 $19 #
body $-1 $20 $-1 $21 #
body $-1 $22 $-1 $23 #
body $-1 $24 $-1 $25 #
body $-1 $26 $-1 $27 #
body $-1 $28 $-1 $29 #
body $-1 $30 $-1 $31 #
body $-1 $32 $-1 $33 #
body $-1 $34 $-1 $35 #
body $-1 $36 $-1 $37 #
body $-1 $38 $-1 $39 #
body $-1 $40 $-1 $41 #
lump $-1 $-1 $42 $0 #
transform $-1 1 0 0 0 1 0 0 0 1 70.52949613940855 40.593796397044215 18.788707404926061 1 rotate no_reflect no_shear #
lump $-1 $-1 $43 $1 #
transform $-1 1 0 0 0 1 0 0 0 1 70.52949613940855 40.593796397044215 18.788707404926061 1 rotate no_reflect no_shear #
lump $-1 $-1 $44 $2 #
transform $-1 1 0 0 0 1 0 0 0 1 70.52949613940855 40.593796397044215 18.788707404926061 1 rotate no_reflect no_shear #
lump $-1 $-1 $45 $3 #
transform $-1 1 0 0 0 1 0 0 0 1 70.52949613940855 40.593796397044215 18.788707404926061 1 rotate no_reflect no_shear #
lump $-1 $-1 $46 $4 #
transform $-1 1 0 0 0 1 0 0 0 1 70.52949613940855 40.593796397044215 18.788707404926061 1 rotate no_reflect no_shear #
lump $-1 $-1 $47 $5 #
transform $-1 1 0 0 0 1 0 0 0 1 70.52949613940855 40.593796397044215 18.788707404926061 1 rotate no_reflect no_shear #
lump $-1 $-1 $48 $6 #
transform $-1 1 0 0 0 1 0 0 0 1 70.52949613940855 40.593796397044215 18.788707404926061 1 rotate no_reflect no_shear #
lump $-1 $-1 $49 $7 #
transform $-1 1 0 0 0 1 0 0 0 1 70.52949613940855 40.593796397044215 18.788707404926061 1 rotate no_reflect no_shear #
lump $-1 $-1 $50 $8 #
transform $-1 1 0 0 0 1 0 0 0 1 70.52949613940855 40.593796397044215 18.788707404926061 1 rotate no_reflect no_shear #
lump $-1 $-1 $51 $9 #
transform $-1 1 0 0 0 1 0 0 0 1 70.52949613940855 40.593796397044215 18.788707404926061 1 rotate no_reflect no_shear #
lump $-1 $-1 $52 $10 #
transform $-1 1 0 0 0 1 0 0 0 1 70.52949613940855 40.593796397044215 18.788707404926061 1 rotate no_reflect no_shear #
lump $-1 $-1 $53 $11 #
transform $-1 1 0 0 0 1 0 0 0 1 70.52949613940855 40.593796397044215 18.788707404926061 1 rotate no_reflect no_shear #
lump $-1 $-1 $54 $12 #
transform $-1 1 0 0 0 1 0 0 0 1 70.52949613940855 40.593796397044215 18.788707404926061 1 rotate no_reflect no_shear #
lump $-1 $-1 $55 $13 #
transform $-1 1 0 0 0 1 0 0 0 1 70.52949613940855 40.593796397044215 18.788707404926061 1 rotate no_reflect no_shear #
shell $-1 $-1 $-1 $56 $-1 $14 #
shell $-1 $-1 $-1 $57 $-1 $16 #
shell $-1 $-1 $-1 $58 $-1 $18 #
shell $-1 $-1 $-1 $59 $-1 $20 #
shell $-1 $-1 $-1 $60 $-1 $22 #
shell $-1 $-1 $-1 $61 $-1 $24 #
shell $-1 $-1 $-1 $62 $-1 $26 #
shell $-1 $-1 $-1 $63 $-1 $28 #
shell $-1 $-1 $-1 $64 $-1 $30 #
shell $-1 $-1 $-1 $65 $-1 $32 #
shell $-1 $-1 $-1 $66 $-1 $34 #
shell $-1 $-1 $-1 $67 $-1 $36 #
shell $-1 $-1 $-1 $68 $-1 $38 #
shell $-1 $-1 $-1 $69 $-1 $40 #
face $-1 $70 $71 $42 $-1 $72 forward single #
face $-1 $73 $74 $43 $-1 $75 reversed single #
face $-1 $76 $77 $44 $-1 $78 reversed single #
face $-1 $79 $80 $45 $-1 $81 forward single #
face $-1 $82 $83 $46 $-1 $84 forward single #
face $-1 $85 $86 $47 $-1 $87 reversed single #
face $-1 $88 $89 $48 $-1 $90 forward single #
face $-1 $91 $92 $49 $-1 $93 forward single #
face $-1 $94 $95 $50 $-1 $96 reversed single #
face $-1 $97 $98 $51 $-1 $99 forward single #
face $-1 $100 $101 $52 $-1 $102 forward single #
face $-1 $103 $104 $53 $-1 $105 reversed single #
face $-1 $106 $107 $54 $-1 $108 forward single #
face $-1 $109 $110 $55 $-1 $111 forward single #
face $-1 $112 $113 $42 $-1 $114 reversed single #
loop $-1 $-1 $115 $56 #
plane-surface $-1 0 0 18.788707404926061 0 0 1 1 0 0 forward_v I I I I #
face $-1 $116 $117 $43 $-1 $118 reversed single #
loop $-1 $-1 $119 $57 #
plane-surface $-1 0 -29.458773628295411 12.42450367900442 0 0 1 1 0 0 forward_v I I I I #
face $-1 $120 $121 $44 $-1 $122 reversed single #
loop $-1 $-1 $123 $58 #
plane-surface $-1 32.465480763219034 -7.5445078443094147 209.51939836590185 0 -1 0 -0.55919291073839883 0 -0.82903756765294845 forward_v I I I I #
face $-1 $124 $125 $45 $-1 $126 forward single #
loop $-1 $127 $128 $59 #
cone-surface $-1 66.467090424279903 -12.283115516175958 15.815839245788672 -0.55919291073839883 0 -0.82903756765294845 0.41451878382647422 0 -0.27959645536919941 1 I I 0 1 0.5 forward I I I I #
face $-1 $129 $130 $46 $-1 $131 forward single #
loop $-1 $132 $133 $60 #
cone-surface $-1 66.467090424279903 -9.4399509130560304 15.815839245788672 -0.55919291073839883 0 -0.82903756765294845 0.41451878382647422 0 -0.27959645536919941 1 I I 0 1 0.5 forward I I I I #
face $-1 $134 $135 $47 $-1 $136 reversed single #
loop $-1 $-1 $137 $61 #
plane-surface $-1 32.465480763219034 21.914265783985996 209.51939836590185 0 -1 0 -0.55919291073839883 0 -0.82903756765294845 forward_v I I I I #
face $-1 $138 $139 $48 $-1 $140 forward single #
loop $-1 $141 $142 $62 #
cone-surface $-1 66.467090424279903 17.175658112119457 15.815839245788672 -0.55919291073839883 0 -0.82903756765294845 0.41451878382647422 0 -0.27959645536919941 1 I I 0 1 0.5 forward I I I I #
face $-1 $143 $144 $49 $-1 $145 forward single #
loop $-1 $146 $147 $63 #
cone-surface $-1 66.467090424279903 20.018822715239381 15.815839245788672 -0.55919291073839883 0 -0.82903756765294845 0.41451878382647422 0 -0.27959645536919941 1 I I 0 1 0.5 forward I I I I #
face $-1 $148 $149 $50 $-1 $150 reversed single #
loop $-1 $-1 $151 $64 #
plane-surface $-1 -149.40868461762562 -14.178558584922577 130.64020988768479 0 1 0 -0.55919291073839883 0 0.82903756765294845 forward_v I I I I #
face $-1 $152 $153 $51 $-1 $154 forward single #
loop $-1 $155 $156 $65 #
cone-surface $-1 -66.467090424279945 -12.283115516175958 15.815839245788679 0.55919291073839883 0 -0.82903756765294845 0.41451878382647422 0 0.27959645536919941 1 I I 0 1 0.5 forward I I I I #
face $-1 $157 $158 $52 $-1 $159 forward single #
loop $-1 $160 $161 $66 #
cone-surface $-1 -66.467090424279945 -9.4399509130560304 15.815839245788679 0.55919291073839883 0 -0.82903756765294845 0.41451878382647422 0 0.27959645536919941 1 I I 0 1 0.5 forward I I I I #
face $-1 $162 $163 $53 $-1 $164 reversed single #
loop $-1 $-1 $165 $67 #
plane-surface $-1 -149.40868461762562 15.280215043372834 130.64020988768479 0 1 0 -0.55919291073839883 0 0.82903756765294845 forward_v I I I I #
face $-1 $166 $167 $54 $-1 $168 forward single #
loop $-1 $169 $170 $68 #
cone-surface $-1 -66.467090424279945 17.175658112119457 15.815839245788679 0.55919291073839883 0 -0.82903756765294845 0.41451878382647422 0 0.27959645536919941 1 I I 0 1 0.5 forward I I I I #
face $-1 $171 $172 $55 $-1 $173 forward single #
loop $-1 $174 $175 $69 #
cone-surface $-1 -66.467090424279945 20.018822715239381 15.815839245788679 0.55919291073839883 0 -0.82903756765294845 0.41451878382647422 0 0.27959645536919941 1 I I 0 1 0.5 forward I I I I #
face $-1 $176 $177 $42 $-1 $178 reversed single #
loop $-1 $-1 $179 $70 #
plane-surface $-1 0 0 -18.788707404926061 0 0 1 1 0 0 forward_v I I I I #
coedge $-1 $180 $181 $182 $183 forward $71 $-1 #
face $-1 $184 $185 $43 $-1 $186 reversed single #
loop $-1 $-1 $187 $73 #
plane-surface $-1 0 -18.323750859546607 15.606605541965241 0 -1 0 0 0 -1 forward_v I I I I #
coedge $-1 $188 $189 $190 $191 reversed $74 $-1 #
face $-1 $192 $193 $44 $-1 $194 reversed single #
loop $-1 $-1 $195 $76 #
plane-surface $-1 -46.413707714998026 -10.861533214615996 92.576194511495288 0.55919291073839883 0 0.82903756765294845 0.82903756765294845 0 -0.55919291073839883 forward_v I I I I #
coedge $-1 $196 $197 $198 $199 reversed $77 $-1 #
face $-1 $-1 $200 $45 $-1 $201 forward single #
loop $-1 $202 $203 $79 #
cone-surface $-1 66.039265268558339 -12.283115516175958 15.18156238056196 -0.55919291073839883 0 -0.82903756765294845 0.20725939191323711 0 -0.13979822768459971 1 I I -0.70710678118654746 0.70710678118654746 0.25 forward I I I I #
loop $-1 $-1 $204 $59 #
coedge $-1 $128 $128 $205 $206 reversed $80 $-1 #
face $-1 $-1 $207 $46 $-1 $208 forward single #
loop $-1 $209 $210 $82 #
cone-surface $-1 66.039265268558339 -9.4399509130560304 15.18156238056196 -0.55919291073839883 0 -0.82903756765294845 0.20725939191323711 0 -0.13979822768459971 1 I I -0.70710678118654746 0.70710678118654746 0.25 forward I I I I #
loop $-1 $-1 $211 $60 #
coedge $-1 $133 $133 $212 $213 reversed $83 $-1 #
face $-1 $214 $215 $47 $-1 $216 reversed single #
loop $-1 $-1 $217 $85 #
plane-surface $-1 -46.413707714998026 18.597240413679415 92.576194511495288 0.55919291073839883 0 0.82903756765294845 0.82903756765294845 0 -0.55919291073839883 forward_v I I I I #
coedge $-1 $218 $219 $220 $221 reversed $86 $-1 #
face $-1 $-1 $222 $48 $-1 $223 forward single #
loop $-1 $224 $225 $88 #
cone-surface $-1 66.039265268558339 17.175658112119457 15.18156238056196 -0.55919291073839883 0 -0.82903756765294845 0.20725939191323711 0 -0.13979822768459971 1 I I -0.70710678118654746 0.70710678118654746 0.25 forward I I I I #
loop $-1 $-1 $226 $62 #
coedge $-1 $142 $142 $227 $228 reversed $89 $-1 #
face $-1 $-1 $229 $49 $-1 $230 forward single #
loop $-1 $231 $232 $91 #
cone-surface $-1 66.039265268558339 20.018822715239381 15.18156238056196 -0.55919291073839883 0 -0.82903756765294845 0.20725939191323711 0 -0.13979822768459971 1 I I -0.70710678118654746 0.70710678118654746 0.25 forward I I I I #
loop $-1 $-1 $233 $63 #
coedge $-1 $147 $147 $234 $235 reversed $92 $-1 #
face $-1 $236 $237 $50 $-1 $238 reversed single #
loop $-1 $-1 $239 $94 #
plane-surface $-1 -70.529496139408565 -10.861533214615996 13.697006033278228 -0.55919291073839883 0 0.82903756765294845 0.82903756765294845 0 0.55919291073839883 forward_v I I I I #
coedge $-1 $240 $241 $242 $243 reversed $95 $-1 #
face $-1 $-1 $244 $51 $-1 $245 forward single #
loop $-1 $246 $247 $97 #
cone-surface $-1 -66.039265268558381 -12.283115516175958 15.181562380561967 0.55919291073839883 0 -0.82903756765294845 0.20725939191323711 0 0.13979822768459971 1 I I -0.70710678118654746 0.70710678118654746 0.25 forward I I I I #
loop $-1 $-1 $248 $65 #
coedge $-1 $156 $156 $249 $250 reversed $98 $-1 #
face $-1 $-1 $251 $52 $-1 $252 forward single #
loop $-1 $253 $254 $100 #
cone-surface $-1 -66.039265268558381 -9.4399509130560304 15.181562380561967 0.55919291073839883 0 -0.82903756765294845 0.20725939191323711 0 0.13979822768459971 1 I I -0.70710678118654746 0.70710678118654746 0.25 forward I I I I #
loop $-1 $-1 $255 $66 #
coedge $-1 $161 $161 $256 $257 reversed $101 $-1 #
face $-1 $258 $259 $53 $-1 $260 reversed single #
loop $-1 $-1 $261 $103 #
plane-surface $-1 -70.529496139408565 18.597240413679415 13.697006033278228 -0.55919291073839883 0 0.82903756765294845 0.82903756765294845 0 0.55919291073839883 forward_v I I I I #
coedge $-1 $262 $263 $264 $265 reversed $104 $-1 #
face $-1 $-1 $266 $54 $-1 $267 forward single #
loop $-1 $268 $269 $106 #
cone-surface $-1 -66.039265268558381 17.175658112119457 15.181562380561967 0.55919291073839883 0 -0.82903756765294845 0.20725939191323711 0 0.13979822768459971 1 I I -0.70710678118654746 0.70710678118654746 0.25 forward I I I I #
loop $-1 $-1 $270 $68 #
coedge $-1 $170 $170 $271 $272 reversed $107 $-1 #
face $-1 $-1 $273 $55 $-1 $274 forward single #
loop $-1 $275 $276 $109 #
cone-surface $-1 -66.039265268558381 20.018822715239381 15.181562380561967 0.55919291073839883 0 -0.82903756765294845 0.20725939191323711 0 0.13979822768459971 1 I I -0.70710678118654746 0.70710678118654746 0.25 forward I I I I #
loop $-1 $-1 $277 $69 #
coedge $-1 $175 $175 $278 $279 reversed $110 $-1 #
face $-1 $280 $281 $42 $-1 $282 reversed single #
loop $-1 $-1 $283 $112 #
plane-surface $-1 0 -40.593796397044215 0 0 1 0 0 0 1 forward_v I I I I #
coedge $-1 $284 $285 $286 $287 forward $113 $-1 #
coedge $-1 $288 $115 $289 $290 forward $71 $-1 #
coedge $-1 $115 $288 $291 $292 forward $71 $-1 #
coedge $-1 $293 $294 $115 $183 reversed $295 $-1 #
edge $-1 $296 -40.593796397044215 $297 40.593796397044215 $182 $298 forward 7 unknown #
face $-1 $299 $300 $43 $-1 $301 reversed single #
loop $-1 $-1 $302 $116 #
plane-surface $-1 -70.52949613940855 0 0 1 0 0 0 0 -1 forward_v I I I I #
coedge $-1 $303 $304 $305 $306 reversed $117 $-1 #
coedge $-1 $307 $119 $308 $309 reversed $74 $-1 #
coedge $-1 $119 $307 $303 $310 forward $74 $-1 #
coedge $-1 $305 $311 $119 $191 forward $312 $-1 #
edge $-1 $313 -25.86440958289651 $314 -3.5943640453989012 $190 $315 forward 7 unknown #
face $-1 $316 $317 $44 $-1 $318 reversed single #
loop $-1 $-1 $319 $120 #
plane-surface $-1 32.465480763219034 -14.178558584922577 209.51939836590185 0 1 0 0.55919291073839883 0 0.82903756765294845 forward_v I I I I #
coedge $-1 $320 $321 $322 $323 reversed $121 $-1 #
coedge $-1 $197 $123 $324 $325 reversed $77 $-1 #
coedge $-1 $123 $196 $320 $326 reversed $77 $-1 #
coedge $-1 $322 $327 $123 $199 forward $328 $-1 #
edge $-1 $329 -54.296755757799033 $330 -46.747998183615721 $198 $331 forward 7 unknown #
loop $-1 $-1 $205 $124 #
plane-surface $-1 -46.413707714998026 -10.861533214615996 92.576194511495288 0.55919291073839883 0 0.82903756765294845 0.82903756765294845 0 -0.55919291073839883 forward_v I I I I #
loop $-1 $-1 $332 $79 #
coedge $-1 $203 $203 $204 $333 reversed $125 $-1 #
coedge $-1 $204 $204 $203 $333 forward $127 $-1 #
coedge $-1 $205 $205 $128 $206 forward $200 $-1 #
edge $-1 $334 0 $334 6.2831853071796004 $205 $335 forward 7 unknown #
loop $-1 $-1 $212 $129 #
plane-surface $-1 -46.413707714998026 -10.861533214615996 92.576194511495288 0.55919291073839883 0 0.82903756765294845 0.82903756765294845 0 -0.55919291073839883 forward_v I I I I #
loop $-1 $-1 $336 $82 #
coedge $-1 $210 $210 $211 $337 reversed $130 $-1 #
coedge $-1 $211 $211 $210 $337 forward $132 $-1 #
coedge $-1 $212 $212 $133 $213 forward $207 $-1 #
edge $-1 $338 0 $338 6.2831853071796004 $212 $339 forward 7 unknown #
face $-1 $340 $341 $47 $-1 $342 reversed single #
loop $-1 $-1 $343 $134 #
plane-surface $-1 32.465480763219034 15.280215043372834 209.51939836590185 0 1 0 0.55919291073839883 0 0.82903756765294845 forward_v I I I I #
coedge $-1 $344 $345 $346 $347 reversed $135 $-1 #
coedge $-1 $219 $137 $348 $349 reversed $86 $-1 #
coedge $-1 $137 $218 $344 $350 reversed $86 $-1 #
coedge $-1 $346 $351 $137 $221 forward $352 $-1 #
edge $-1 $353 -54.296755757799033 $354 -46.747998183615721 $220 $355 forward 7 unknown #
loop $-1 $-1 $227 $138 #
plane-surface $-1 -46.413707714998026 18.597240413679415 92.576194511495288 0.55919291073839883 0 0.82903756765294845 0.82903756765294845 0 -0.55919291073839883 forward_v I I I I #
loop $-1 $-1 $356 $88 #
coedge $-1 $225 $225 $226 $357 reversed $139 $-1 #
coedge $-1 $226 $226 $225 $357 forward $141 $-1 #
coedge $-1 $227 $227 $142 $228 forward $222 $-1 #
edge $-1 $358 0 $358 6.2831853071796004 $227 $359 forward 7 unknown #
loop $-1 $-1 $234 $143 #
plane-surface $-1 -46.413707714998026 18.597240413679415 92.576194511495288 0.55919291073839883 0 0.82903756765294845 0.82903756765294845 0 -0.55919291073839883 forward_v I I I I #
loop $-1 $-1 $360 $91 #
coedge $-1 $232 $232 $233 $361 reversed $144 $-1 #
coedge $-1 $233 $233 $232 $361 forward $146 $-1 #
coedge $-1 $234 $234 $147 $235 forward $229 $-1 #
edge $-1 $362 0 $362 6.2831853071796004 $234 $363 forward 7 unknown #
face $-1 $364 $365 $50 $-1 $366 forward single #
loop $-1 $-1 $367 $148 #
plane-surface $-1 -149.40868461762562 -7.5445078443094147 130.64020988768479 0 -1 0 0.55919291073839883 0 -0.82903756765294845 forward_v I I I I #
coedge $-1 $368 $369 $370 $371 reversed $149 $-1 #
coedge $-1 $241 $151 $372 $373 reversed $95 $-1 #
coedge $-1 $151 $240 $368 $374 reversed $95 $-1 #
coedge $-1 $370 $375 $151 $243 forward $365 $-1 #
edge $-1 $376 4.1748461694042618 $377 11.72360374358756 $242 $378 forward 7 unknown #
loop $-1 $-1 $249 $152 #
plane-surface $-1 -70.529496139408565 -10.861533214615996 13.697006033278228 -0.55919291073839883 0 0.82903756765294845 0.82903756765294845 0 0.55919291073839883 forward_v I I I I #
loop $-1 $-1 $379 $97 #
coedge $-1 $247 $247 $248 $380 reversed $153 $-1 #
coedge $-1 $248 $248 $247 $380 forward $155 $-1 #
coedge $-1 $249 $249 $156 $250 forward $244 $-1 #
edge $-1 $381 0 $381 6.2831853071796004 $249 $382 forward 7 unknown #
loop $-1 $-1 $256 $157 #
plane-surface $-1 -70.529496139408565 -10.861533214615996 13.697006033278228 -0.55919291073839883 0 0.82903756765294845 0.82903756765294845 0 0.55919291073839883 forward_v I I I I #
loop $-1 $-1 $383 $100 #
coedge $-1 $254 $254 $255 $384 reversed $158 $-1 #
coedge $-1 $255 $255 $254 $384 forward $160 $-1 #
coedge $-1 $256 $256 $161 $257 forward $251 $-1 #
edge $-1 $385 0 $385 6.2831853071796004 $256 $386 forward 7 unknown #
face $-1 $387 $388 $53 $-1 $389 forward single #
loop $-1 $-1 $390 $162 #
plane-surface $-1 -149.40868461762562 21.914265783985996 130.64020988768479 0 -1 0 0.55919291073839883 0 -0.82903756765294845 forward_v I I I I #
coedge $-1 $391 $392 $393 $394 reversed $163 $-1 #
coedge $-1 $263 $165 $395 $396 reversed $104 $-1 #
coedge $-1 $165 $262 $391 $397 reversed $104 $-1 #
coedge $-1 $393 $398 $165 $265 forward $388 $-1 #
edge $-1 $399 4.1748461694042618 $400 11.72360374358756 $264 $401 forward 7 unknown #
loop $-1 $-1 $271 $166 #
plane-surface $-1 -70.529496139408565 18.597240413679415 13.697006033278228 -0.55919291073839883 0 0.82903756765294845 0.82903756765294845 0 0.55919291073839883 forward_v I I I I #
loop $-1 $-1 $402 $106 #
coedge $-1 $269 $269 $270 $403 reversed $167 $-1 #
coedge $-1 $270 $270 $269 $403 forward $169 $-1 #
coedge $-1 $271 $271 $170 $272 forward $266 $-1 #
edge $-1 $404 0 $404 6.2831853071796004 $271 $405 forward 7 unknown #
loop $-1 $-1 $278 $171 #
plane-surface $-1 -70.529496139408565 18.597240413679415 13.697006033278228 -0.55919291073839883 0 0.82903756765294845 0.82903756765294845 0 0.55919291073839883 forward_v I I I I #
loop $-1 $-1 $406 $109 #
coedge $-1 $276 $276 $277 $407 reversed $172 $-1 #
coedge $-1 $277 $277 $276 $407 forward $174 $-1 #
coedge $-1 $278 $278 $175 $279 forward $273 $-1 #
edge $-1 $408 0 $408 6.2831853071796004 $278 $409 forward 7 unknown #
face $-1 $410 $411 $42 $-1 $412 reversed single #
loop $-1 $-1 $413 $176 #
plane-surface $-1 -70.52949613940855 0 0 1 0 0 0 0 -1 forward_v I I I I #
coedge $-1 $414 $291 $415 $416 forward $177 $-1 #
coedge $-1 $417 $179 $414 $418 forward $113 $-1 #
coedge $-1 $179 $417 $419 $420 forward $113 $-1 #
coedge $-1 $294 $293 $179 $287 reversed $295 $-1 #
edge $-1 $421 -40.593796397044215 $422 40.593796397044215 $286 $423 forward 7 unknown #
coedge $-1 $181 $180 $424 $425 forward $71 $-1 #
coedge $-1 $426 $427 $180 $290 reversed $411 $-1 #
edge $-1 $297 -70.52949613940855 $428 70.52949613940855 $289 $429 forward 7 unknown #
coedge $-1 $283 $430 $181 $292 reversed $177 $-1 #
edge $-1 $431 -70.52949613940855 $296 70.52949613940855 $291 $432 forward 7 unknown #
coedge $-1 $286 $182 $430 $433 forward $295 $-1 #
coedge $-1 $182 $286 $426 $434 reversed $295 $-1 #
loop $-1 $-1 $293 $410 #
vertex $-1 $183 $435 #
vertex $-1 $183 $436 #
straight-curve $-1 70.52949613940855 0 18.788707404926061 0 1 0 I I #
face $-1 $437 $438 $43 $-1 $439 forward single #
loop $-1 $-1 $308 $184 #
plane-surface $-1 0 -40.593796397044215 0 0 1 0 0 0 1 forward_v I I I I #
coedge $-1 $440 $441 $442 $443 forward $185 $-1 #
coedge $-1 $442 $187 $189 $310 reversed $117 $-1 #
coedge $-1 $187 $442 $444 $445 reversed $117 $-1 #
coedge $-1 $446 $190 $187 $306 forward $312 $-1 #
edge $-1 $314 4.6212009080217999 $447 10.985404633943441 $305 $448 forward 7 unknown #
coedge $-1 $189 $188 $440 $449 reversed $74 $-1 #
coedge $-1 $450 $451 $188 $309 forward $300 $-1 #
edge $-1 $452 -70.52949613940855 $313 70.52949613940855 $308 $453 forward 7 unknown #
edge $-1 $454 -70.52949613940855 $314 70.52949613940855 $303 $455 forward 7 unknown #
coedge $-1 $190 $446 $450 $456 forward $312 $-1 #
loop $-1 $-1 $305 $437 #
vertex $-1 $309 $457 #
vertex $-1 $191 $458 #
straight-curve $-1 70.52949613940855 -14.729386814147706 12.42450367900442 0 1 0 I I #
face $-1 $-1 $328 $44 $-1 $459 forward single #
loop $-1 $-1 $460 $192 #
plane-surface $-1 70.52949613940855 0 0 -1 0 0 0 0 1 forward_v I I I I #
coedge $-1 $461 $462 $463 $464 reversed $193 $-1 #
coedge $-1 $465 $195 $197 $326 forward $121 $-1 #
coedge $-1 $195 $465 $461 $466 forward $121 $-1 #
coedge $-1 $463 $198 $195 $323 forward $328 $-1 #
edge $-1 $330 2.1137412370014168 $467 8.7477919776145789 $322 $468 forward 7 unknown #
coedge $-1 $469 $470 $196 $325 forward $317 $-1 #
edge $-1 $471 -91.062693149672697 $329 -85.970991778024867 $324 $472 forward 7 unknown #
edge $-1 $330 131.95354535009196 $471 141.05899227881707 $197 $473 forward 7 unknown #
coedge $-1 $198 $463 $469 $474 forward $328 $-1 #
loop $-1 $-1 $463 $316 #
vertex $-1 $325 $475 #
vertex $-1 $199 $476 #
straight-curve $-1 16.232740381609517 -7.5445078443094147 18.788707404926058 -1 0 0 I I #
coedge $-1 $332 $332 $-1 $477 reversed $202 $-1 #
edge $-1 $478 0 $478 6.2831853071796004 $203 $479 forward 7 unknown #
vertex $-1 $206 $480 #
ellipse-curve $-1 66.755117352316873 -12.283115516175958 16.242856719102157 0.55919291073839883 0 0.82903756765294845 0.41451878382647422 0 -0.27959645536919941 1 I I #
coedge $-1 $336 $336 $-1 $481 reversed $209 $-1 #
edge $-1 $482 0 $482 6.2831853071796004 $210 $483 forward 7 unknown #
vertex $-1 $213 $484 #
ellipse-curve $-1 66.755117352316873 -9.4399509130560304 16.242856719102157 0.55919291073839883 0 0.82903756765294845 0.41451878382647422 0 -0.27959645536919941 1 I I #
face $-1 $-1 $352 $47 $-1 $485 forward single #
loop $-1 $-1 $486 $214 #
plane-surface $-1 70.52949613940855 0 0 -1 0 0 0 0 1 forward_v I I I I #
coedge $-1 $487 $488 $489 $490 reversed $215 $-1 #
coedge $-1 $491 $217 $219 $350 forward $135 $-1 #
coedge $-1 $217 $491 $487 $492 forward $135 $-1 #
coedge $-1 $489 $220 $217 $347 forward $352 $-1 #
edge $-1 $354 -12.615645577146289 $493 -5.9815948365331266 $346 $494 forward 7 unknown #
coedge $-1 $495 $496 $218 $349 forward $341 $-1 #
edge $-1 $497 -91.062693149672697 $353 -85.970991778024867 $348 $498 forward 7 unknown #
edge $-1 $354 131.95354535009196 $497 141.05899227881707 $219 $499 forward 7 unknown #
coedge $-1 $220 $489 $495 $500 forward $352 $-1 #
loop $-1 $-1 $489 $340 #
vertex $-1 $349 $501 #
vertex $-1 $221 $502 #
straight-curve $-1 16.232740381609517 21.914265783985996 18.788707404926058 -1 0 0 I I #
coedge $-1 $356 $356 $-1 $503 reversed $224 $-1 #
edge $-1 $504 0 $504 6.2831853071796004 $225 $505 forward 7 unknown #
vertex $-1 $228 $506 #
ellipse-curve $-1 66.755117352316873 17.175658112119457 16.242856719102157 0.55919291073839883 0 0.82903756765294845 0.41451878382647422 0 -0.27959645536919941 1 I I #
coedge $-1 $360 $360 $-1 $507 reversed $231 $-1 #
edge $-1 $508 0 $508 6.2831853071796004 $232 $509 forward 7 unknown #
vertex $-1 $235 $510 #
ellipse-curve $-1 66.755117352316873 20.018822715239381 16.242856719102157 0.55919291073839883 0 0.82903756765294845 0.41451878382647422 0 -0.27959645536919941 1 I I #
face $-1 $-1 $511 $50 $-1 $512 reversed single #
loop $-1 $-1 $242 $236 #
plane-surface $-1 0 0 18.788707404926061 0 0 1 1 0 0 forward_v I I I I #
coedge $-1 $513 $514 $515 $516 reversed $237 $-1 #
coedge $-1 $517 $239 $241 $374 forward $149 $-1 #
coedge $-1 $239 $517 $513 $518 forward $149 $-1 #
coedge $-1 $515 $242 $239 $371 forward $365 $-1 #
edge $-1 $377 -8.7477919776145789 $519 -2.1137412370014168 $370 $520 forward 7 unknown #
coedge $-1 $521 $522 $240 $373 forward $511 $-1 #
edge $-1 $523 -51.62309891056416 $376 -46.531397538916337 $372 $524 forward 7 unknown #
edge $-1 $377 -9.1054469287251543 $523 -1.6747963185031944e-014 $241 $525 forward 7 unknown #
coedge $-1 $242 $515 $521 $526 forward $365 $-1 #
vertex $-1 $373 $527 #
vertex $-1 $243 $528 #
straight-curve $-1 -74.704342308812812 -14.178558584922577 18.788707404926058 1 0 0 I I #
coedge $-1 $379 $379 $-1 $529 reversed $246 $-1 #
edge $-1 $530 0 $530 6.2831853071796004 $247 $531 forward 7 unknown #
vertex $-1 $250 $532 #
ellipse-curve $-1 -66.755117352316901 -12.283115516175958 16.242856719102146 -0.55919291073839883 0 0.82903756765294845 0.41451878382647422 0 0.27959645536919941 1 I I #
coedge $-1 $383 $383 $-1 $533 reversed $253 $-1 #
edge $-1 $534 0 $534 6.2831853071796004 $254 $535 forward 7 unknown #
vertex $-1 $257 $536 #
ellipse-curve $-1 -66.755117352316901 -9.4399509130560304 16.242856719102146 -0.55919291073839883 0 0.82903756765294845 0.41451878382647422 0 0.27959645536919941 1 I I #
face $-1 $-1 $537 $53 $-1 $538 reversed single #
loop $-1 $-1 $264 $258 #
plane-surface $-1 0 0 18.788707404926061 0 0 1 1 0 0 forward_v I I I I #
coedge $-1 $539 $540 $541 $542 reversed $259 $-1 #
coedge $-1 $543 $261 $263 $397 forward $163 $-1 #
coedge $-1 $261 $543 $539 $544 forward $163 $-1 #
coedge $-1 $541 $264 $261 $394 forward $388 $-1 #
edge $-1 $400 5.9815948365331266 $545 12.615645577146289 $393 $546 forward 7 unknown #
coedge $-1 $547 $548 $262 $396 forward $537 $-1 #
edge $-1 $549 -51.62309891056416 $399 -46.531397538916337 $395 $550 forward 7 unknown #
edge $-1 $400 -9.1054469287251543 $549 -1.6747963185031944e-014 $263 $551 forward 7 unknown #
coedge $-1 $264 $541 $547 $552 forward $388 $-1 #
vertex $-1 $265 $553 #
vertex $-1 $265 $554 #
straight-curve $-1 -74.704342308812812 15.280215043372834 18.788707404926058 1 0 0 I I #
coedge $-1 $402 $402 $-1 $555 reversed $268 $-1 #
edge $-1 $556 0 $556 6.2831853071796004 $269 $557 forward 7 unknown #
vertex $-1 $272 $558 #
ellipse-curve $-1 -66.755117352316901 17.175658112119457 16.242856719102146 -0.55919291073839883 0 0.82903756765294845 0.41451878382647422 0 0.27959645536919941 1 I I #
coedge $-1 $406 $406 $-1 $559 reversed $275 $-1 #
edge $-1 $560 0 $560 6.2831853071796004 $276 $561 forward 7 unknown #
vertex $-1 $279 $562 #
ellipse-curve $-1 -66.755117352316901 20.018822715239381 16.242856719102146 -0.55919291073839883 0 0.82903756765294845 0.41451878382647422 0 0.27959645536919941 1 I I #
face $-1 $-1 $295 $42 $-1 $563 reversed single #
loop $-1 $-1 $426 $280 #
plane-surface $-1 0 40.593796397044215 0 0 -1 0 0 0 -1 forward_v I I I I #
coedge $-1 $564 $424 $427 $565 forward $281 $-1 #
coedge $-1 $430 $283 $284 $418 reversed $177 $-1 #
coedge $-1 $424 $564 $283 $416 reversed $281 $-1 #
edge $-1 $431 -18.788707404926061 $566 18.788707404926061 $415 $567 forward 7 unknown #
coedge $-1 $285 $284 $564 $568 forward $113 $-1 #
edge $-1 $422 -70.52949613940855 $566 70.52949613940855 $414 $569 forward 7 unknown #
coedge $-1 $427 $426 $285 $420 reversed $411 $-1 #
edge $-1 $570 -70.52949613940855 $421 70.52949613940855 $419 $571 forward 7 unknown #
vertex $-1 $287 $572 #
vertex $-1 $433 $573 #
straight-curve $-1 70.52949613940855 0 -18.788707404926061 0 -1 0 I I #
coedge $-1 $413 $415 $288 $425 reversed $281 $-1 #
edge $-1 $428 -40.593796397044215 $431 40.593796397044215 $424 $574 forward 7 unknown #
coedge $-1 $419 $289 $294 $434 forward $411 $-1 #
coedge $-1 $289 $419 $413 $565 reversed $411 $-1 #
vertex $-1 $290 $575 #
straight-curve $-1 0 40.593796397044215 18.788707404926061 -1 0 0 I I #
coedge $-1 $291 $414 $293 $433 reversed $177 $-1 #
vertex $-1 $425 $576 #
straight-curve $-1 0 -40.593796397044215 18.788707404926061 1 0 0 I I #
edge $-1 $296 -18.788707404926061 $422 18.788707404926061 $293 $577 forward 7 unknown #
edge $-1 $297 -18.788707404926061 $421 18.788707404926061 $294 $578 forward 7 unknown #
point $-1 70.52949613940855 -40.593796397044215 18.788707404926061 #
point $-1 70.52949613940855 40.593796397044215 18.788707404926061 #
face $-1 $-1 $312 $43 $-1 $579 reversed single #
loop $-1 $-1 $444 $299 #
plane-surface $-1 0 0 18.788707404926061 0 0 1 1 0 0 forward_v I I I I #
coedge $-1 $580 $302 $307 $449 forward $185 $-1 #
coedge $-1 $302 $580 $581 $582 reversed $185 $-1 #
coedge $-1 $304 $303 $302 $443 reversed $117 $-1 #
edge $-1 $583 -10.985404633943441 $454 -4.6212009080217999 $302 $584 forward 7 unknown #
coedge $-1 $581 $585 $304 $445 forward $438 $-1 #
edge $-1 $447 -70.52949613940855 $583 70.52949613940855 $444 $586 forward 7 unknown #
coedge $-1 $311 $305 $585 $587 reversed $312 $-1 #
vertex $-1 $306 $588 #
straight-curve $-1 70.52949613940855 -18.323750859546607 7.8033027709826204 0 0 1 I I #
edge $-1 $454 3.5943640453989012 $452 25.86440958289651 $440 $589 forward 7 unknown #
coedge $-1 $590 $308 $311 $456 reversed $300 $-1 #
coedge $-1 $308 $590 $580 $591 forward $300 $-1 #
vertex $-1 $309 $592 #
straight-curve $-1 0 -40.593796397044215 12.42450367900442 1 0 0 I I #
vertex $-1 $449 $593 #
straight-curve $-1 0 -18.323750859546607 12.42450367900442 1 0 0 I I #
edge $-1 $594 -18.788707404926061 $313 -12.42450367900442 $311 $595 forward 7 unknown #
point $-1 70.52949613940855 -40.593796397044215 12.42450367900442 #
point $-1 70.52949613940855 -18.323750859546607 12.42450367900442 #
plane-surface $-1 0 0 18.788707404926061 0 0 1 1 0 0 forward_v I I I I #
coedge $-1 $470 $469 $462 $596 forward $317 $-1 #
coedge $-1 $462 $319 $321 $466 reversed $193 $-1 #
coedge $-1 $319 $461 $460 $596 reversed $193 $-1 #
coedge $-1 $327 $322 $319 $464 forward $328 $-1 #
edge $-1 $467 46.747998183615721 $597 54.296755757799033 $463 $598 forward 7 unknown #
coedge $-1 $321 $320 $470 $599 reversed $121 $-1 #
edge $-1 $600 -141.05899227881707 $467 -131.95354535009196 $461 $601 forward 7 unknown #
vertex $-1 $323 $602 #
straight-curve $-1 62.980738565225224 -5.4307666073079979 18.788707404926058 0 -1 0 I I #
coedge $-1 $460 $324 $327 $474 reversed $317 $-1 #
coedge $-1 $324 $460 $465 $599 forward $317 $-1 #
vertex $-1 $325 $603 #
straight-curve $-1 70.52949613940855 -7.5445078443094147 104.75969918295092 0 0 1 I I #
straight-curve $-1 -46.413707714998026 -7.5445078443094147 92.576194511495288 0.82903756765294845 0 -0.55919291073839883 I I #
edge $-1 $597 -14.178558584922577 $329 -7.5445078443094147 $469 $604 forward 7 unknown #
point $-1 70.52949613940855 -7.5445078443094147 18.788707404926061 #
point $-1 62.980738565225238 -7.5445078443094147 18.788707404926058 #
edge $-1 $605 1 $605 0 $332 $-1 forward 7 unknown #
vertex $-1 $333 $606 #
ellipse-curve $-1 66.179063496242932 -12.283115516175958 15.388821772475197 0.55919291073839883 0 0.82903756765294845 0.41451878382647422 0 -0.27959645536919941 1 I I #
point $-1 67.169636136143353 -12.283115516175958 15.963260263732947 #
edge $-1 $607 1 $607 0 $336 $-1 forward 7 unknown #
vertex $-1 $337 $608 #
ellipse-curve $-1 66.179063496242932 -9.4399509130560304 15.388821772475197 0.55919291073839883 0 0.82903756765294845 0.41451878382647422 0 -0.27959645536919941 1 I I #
point $-1 67.169636136143353 -9.4399509130560304 15.963260263732947 #
plane-surface $-1 0 0 18.788707404926061 0 0 1 1 0 0 forward_v I I I I #
coedge $-1 $496 $495 $488 $609 forward $341 $-1 #
coedge $-1 $488 $343 $345 $492 reversed $215 $-1 #
coedge $-1 $343 $487 $486 $609 reversed $215 $-1 #
coedge $-1 $351 $346 $343 $490 forward $352 $-1 #
edge $-1 $493 46.747998183615721 $610 54.296755757799033 $489 $611 forward 7 unknown #
coedge $-1 $345 $344 $496 $612 reversed $135 $-1 #
edge $-1 $613 -141.05899227881707 $493 -131.95354535009196 $487 $614 forward 7 unknown #
vertex $-1 $347 $615 #
straight-curve $-1 62.980738565225224 9.2986202068397077 18.788707404926058 0 -1 0 I I #
coedge $-1 $486 $348 $351 $500 reversed $341 $-1 #
coedge $-1 $348 $486 $491 $612 forward $341 $-1 #
vertex $-1 $349 $616 #
straight-curve $-1 70.52949613940855 21.914265783985996 104.75969918295092 0 0 1 I I #
straight-curve $-1 -46.413707714998026 21.914265783985996 92.576194511495288 0.82903756765294845 0 -0.55919291073839883 I I #
edge $-1 $610 15.280215043372834 $353 21.914265783985996 $495 $617 forward 7 unknown #
point $-1 70.52949613940855 21.914265783985996 18.788707404926061 #
point $-1 62.980738565225238 21.914265783985996 18.788707404926058 #
edge $-1 $618 1 $618 0 $356 $-1 forward 7 unknown #
vertex $-1 $357 $619 #
ellipse-curve $-1 66.179063496242932 17.175658112119457 15.388821772475197 0.55919291073839883 0 0.82903756765294845 0.41451878382647422 0 -0.27959645536919941 1 I I #
point $-1 67.169636136143353 17.175658112119457 15.963260263732947 #
edge $-1 $620 1 $620 0 $360 $-1 forward 7 unknown #
vertex $-1 $361 $621 #
ellipse-curve $-1 66.179063496242932 20.018822715239381 15.388821772475197 0.55919291073839883 0 0.82903756765294845 0.41451878382647422 0 -0.27959645536919941 1 I I #
point $-1 67.169636136143353 20.018822715239381 15.963260263732947 #
loop $-1 $-1 $372 $364 #
plane-surface $-1 -70.52949613940855 0 0 1 0 0 0 0 -1 forward_v I I I I #
coedge $-1 $514 $367 $369 $518 reversed $237 $-1 #
coedge $-1 $367 $513 $622 $623 reversed $237 $-1 #
coedge $-1 $375 $370 $367 $516 forward $365 $-1 #
edge $-1 $519 -11.72360374358756 $624 -4.1748461694042618 $515 $625 forward 7 unknown #
coedge $-1 $369 $368 $522 $626 reversed $149 $-1 #
edge $-1 $627 1.6747963185031944e-014 $519 9.1054469287251543 $513 $628 forward 7 unknown #
vertex $-1 $371 $629 #
straight-curve $-1 -62.980738565225252 -5.4307666073079979 18.788707404926061 0 1 0 I I #
coedge $-1 $622 $372 $375 $526 reversed $511 $-1 #
coedge $-1 $372 $622 $517 $626 forward $511 $-1 #
vertex $-1 $373 $630 #
straight-curve $-1 -70.52949613940855 -14.178558584922577 65.320104943842395 0 0 1 I I #
straight-curve $-1 -70.529496139408565 -14.178558584922577 13.697006033278228 -0.82903756765294845 0 -0.55919291073839883 I I #
edge $-1 $624 7.5445078443094147 $376 14.178558584922577 $521 $631 forward 7 unknown #
point $-1 -70.52949613940855 -14.178558584922577 18.788707404926061 #
point $-1 -62.980738565225252 -14.178558584922577 18.788707404926061 #
edge $-1 $632 1 $632 0 $379 $-1 forward 7 unknown #
vertex $-1 $380 $633 #
ellipse-curve $-1 -66.179063496242975 -12.283115516175958 15.388821772475204 -0.55919291073839883 0 0.82903756765294845 0.41451878382647422 0 0.27959645536919941 1 I I #
point $-1 -66.340598568490435 -12.283115516175958 16.522453174471352 #
edge $-1 $634 1 $634 0 $383 $-1 forward 7 unknown #
vertex $-1 $384 $635 #
ellipse-curve $-1 -66.179063496242975 -9.4399509130560304 15.388821772475204 -0.55919291073839883 0 0.82903756765294845 0.41451878382647422 0 0.27959645536919941 1 I I #
point $-1 -66.340598568490435 -9.4399509130560304 16.522453174471352 #
loop $-1 $-1 $395 $387 #
plane-surface $-1 -70.52949613940855 0 0 1 0 0 0 0 -1 forward_v I I I I #
coedge $-1 $540 $390 $392 $544 reversed $259 $-1 #
coedge $-1 $390 $539 $636 $637 reversed $259 $-1 #
coedge $-1 $398 $393 $390 $542 forward $388 $-1 #
edge $-1 $545 -11.72360374358756 $638 -4.1748461694042618 $541 $639 forward 7 unknown #
coedge $-1 $392 $391 $548 $640 reversed $163 $-1 #
edge $-1 $641 1.6747963185031944e-014 $545 9.1054469287251543 $539 $642 forward 7 unknown #
vertex $-1 $394 $643 #
straight-curve $-1 -62.980738565225252 9.2986202068397077 18.788707404926061 0 1 0 I I #
coedge $-1 $636 $395 $398 $552 reversed $537 $-1 #
coedge $-1 $395 $636 $543 $640 forward $537 $-1 #
vertex $-1 $396 $644 #
straight-curve $-1 -70.52949613940855 15.280215043372834 65.320104943842395 0 0 1 I I #
straight-curve $-1 -70.529496139408565 15.280215043372834 13.697006033278228 -0.82903756765294845 0 -0.55919291073839883 I I #
edge $-1 $638 -21.914265783985996 $399 -15.280215043372834 $547 $645 forward 7 unknown #
point $-1 -70.52949613940855 15.280215043372834 18.788707404926061 #
point $-1 -62.980738565225252 15.280215043372834 18.788707404926061 #
edge $-1 $646 1 $646 0 $402 $-1 forward 7 unknown #
vertex $-1 $403 $647 #
ellipse-curve $-1 -66.179063496242975 17.175658112119457 15.388821772475204 -0.55919291073839883 0 0.82903756765294845 0.41451878382647422 0 0.27959645536919941 1 I I #
point $-1 -66.340598568490435 17.175658112119457 16.522453174471352 #
edge $-1 $648 1 $648 0 $406 $-1 forward 7 unknown #
vertex $-1 $407 $649 #
ellipse-curve $-1 -66.179063496242975 20.018822715239381 15.388821772475204 -0.55919291073839883 0 0.82903756765294845 0.41451878382647422 0 0.27959645536919941 1 I I #
point $-1 -66.340598568490435 20.018822715239381 16.522453174471352 #
plane-surface $-1 70.52949613940855 0 0 -1 0 0 0 0 1 forward_v I I I I #
coedge $-1 $415 $413 $417 $568 reversed $281 $-1 #
edge $-1 $428 -18.788707404926061 $570 18.788707404926061 $427 $650 forward 7 unknown #
vertex $-1 $568 $651 #
straight-curve $-1 -70.52949613940855 -40.593796397044215 0 0 0 -1 I I #
edge $-1 $566 -40.593796397044215 $570 40.593796397044215 $564 $652 forward 7 unknown #
straight-curve $-1 0 -40.593796397044215 -18.788707404926061 -1 0 0 I I #
vertex $-1 $420 $653 #
straight-curve $-1 0 40.593796397044215 -18.788707404926061 1 0 0 I I #
point $-1 70.52949613940855 40.593796397044215 -18.788707404926061 #
point $-1 70.52949613940855 -40.593796397044215 -18.788707404926061 #
straight-curve $-1 -70.52949613940855 0 18.788707404926061 0 -1 0 I I #
point $-1 -70.52949613940855 40.593796397044215 18.788707404926061 #
point $-1 -70.52949613940855 -40.593796397044215 18.788707404926061 #
straight-curve $-1 70.52949613940855 -40.593796397044215 0 0 0 -1 I I #
straight-curve $-1 70.52949613940855 40.593796397044215 0 0 0 -1 I I #
plane-surface $-1 70.52949613940855 0 0 -1 0 0 0 0 1 forward_v I I I I #
coedge $-1 $441 $440 $451 $591 reversed $185 $-1 #
coedge $-1 $654 $444 $441 $582 forward $438 $-1 #
edge $-1 $583 18.323750859546607 $655 40.593796397044215 $441 $656 forward 7 unknown #
vertex $-1 $582 $657 #
straight-curve $-1 -70.52949613940855 -18.323750859546607 7.8033027709826204 0 0 -1 I I #
coedge $-1 $444 $654 $446 $587 forward $438 $-1 #
straight-curve $-1 0 -18.323750859546607 18.788707404926061 -1 0 0 I I #
edge $-1 $594 -40.593796397044215 $447 -18.323750859546607 $446 $658 forward 7 unknown #
point $-1 70.52949613940855 -18.323750859546607 18.788707404926061 #
straight-curve $-1 -70.52949613940855 -14.729386814147706 12.42450367900442 0 -1 0 I I #
coedge $-1 $451 $450 $654 $659 reversed $300 $-1 #
edge $-1 $655 -18.788707404926061 $452 -12.42450367900442 $580 $660 forward 7 unknown #
point $-1 -70.52949613940855 -40.593796397044215 12.42450367900442 #
point $-1 -70.52949613940855 -18.323750859546607 12.42450367900442 #
vertex $-1 $587 $661 #
straight-curve $-1 70.52949613940855 -40.593796397044215 0 0 0 -1 I I #
edge $-1 $597 85.970991778024867 $600 91.062693149672697 $460 $662 forward 7 unknown #
vertex $-1 $474 $663 #
straight-curve $-1 16.232740381609517 -14.178558584922577 18.788707404926058 1 0 0 I I #
edge $-1 $600 -8.7477919776145789 $471 -2.1137412370014168 $470 $664 forward 7 unknown #
vertex $-1 $599 $665 #
straight-curve $-1 -46.413707714998026 -14.178558584922577 92.576194511495288 -0.82903756765294845 0 0.55919291073839883 I I #
point $-1 62.980738565225238 -14.178558584922577 18.788707404926058 #
point $-1 70.529496139408536 -7.5445078443094147 13.697006033278228 #
straight-curve $-1 70.52949613940855 0 18.788707404926061 0 1 0 I I #
vertex $-1 $477 $666 #
point $-1 66.593582280069413 -12.283115516175958 15.109225317105999 #
vertex $-1 $481 $667 #
point $-1 66.593582280069413 -9.4399509130560304 15.109225317105999 #
edge $-1 $610 85.970991778024867 $613 91.062693149672697 $486 $668 forward 7 unknown #
vertex $-1 $500 $669 #
straight-curve $-1 16.232740381609517 15.280215043372834 18.788707404926058 1 0 0 I I #
edge $-1 $613 5.9815948365331266 $497 12.615645577146289 $496 $670 forward 7 unknown #
vertex $-1 $612 $671 #
straight-curve $-1 -46.413707714998026 15.280215043372834 92.576194511495288 -0.82903756765294845 0 0.55919291073839883 I I #
point $-1 62.980738565225238 15.280215043372834 18.788707404926058 #
point $-1 70.529496139408536 21.914265783985996 13.697006033278228 #
straight-curve $-1 70.52949613940855 0 18.788707404926061 0 1 0 I I #
vertex $-1 $503 $672 #
point $-1 66.593582280069413 17.175658112119457 15.109225317105999 #
vertex $-1 $507 $673 #
point $-1 66.593582280069413 20.018822715239381 15.109225317105999 #
coedge $-1 $522 $521 $514 $623 forward $511 $-1 #
edge $-1 $624 46.531397538916337 $627 51.62309891056416 $622 $674 forward 7 unknown #
vertex $-1 $526 $675 #
straight-curve $-1 -74.704342308812812 -7.5445078443094147 18.788707404926058 -1 0 0 I I #
edge $-1 $627 2.1137412370014168 $523 8.7477919776145789 $522 $676 forward 7 unknown #
vertex $-1 $626 $677 #
straight-curve $-1 -70.529496139408565 -7.5445078443094147 13.697006033278228 0.82903756765294845 0 0.55919291073839883 I I #
point $-1 -62.980738565225252 -7.5445078443094147 18.788707404926061 #
point $-1 -70.52949613940855 -14.178558584922577 13.697006033278237 #
straight-curve $-1 -70.52949613940855 0 18.788707404926061 0 -1 0 I I #
vertex $-1 $529 $678 #
point $-1 -65.764544712416509 -12.283115516175958 15.668418227844404 #
vertex $-1 $533 $679 #
point $-1 -65.764544712416509 -9.4399509130560304 15.668418227844404 #
coedge $-1 $548 $547 $540 $637 forward $537 $-1 #
edge $-1 $638 46.531397538916337 $641 51.62309891056416 $636 $680 forward 7 unknown #
vertex $-1 $552 $681 #
straight-curve $-1 -74.704342308812812 21.914265783985996 18.788707404926058 -1 0 0 I I #
edge $-1 $641 -12.615645577146289 $549 -5.9815948365331266 $548 $682 forward 7 unknown #
vertex $-1 $640 $683 #
straight-curve $-1 -70.529496139408565 21.914265783985996 13.697006033278228 0.82903756765294845 0 0.55919291073839883 I I #
point $-1 -62.980738565225252 21.914265783985996 18.788707404926061 #
point $-1 -70.52949613940855 15.280215043372834 13.697006033278237 #
straight-curve $-1 -70.52949613940855 0 18.788707404926061 0 -1 0 I I #
vertex $-1 $555 $684 #
point $-1 -65.764544712416509 17.175658112119457 15.668418227844404 #
vertex $-1 $559 $685 #
point $-1 -65.764544712416509 20.018822715239381 15.668418227844404 #
straight-curve $-1 -70.52949613940855 40.593796397044215 0 0 0 -1 I I #
point $-1 -70.52949613940855 -40.593796397044215 -18.788707404926061 #
straight-curve $-1 -70.52949613940855 0 -18.788707404926061 0 1 0 I I #
point $-1 -70.52949613940855 40.593796397044215 -18.788707404926061 #
coedge $-1 $585 $581 $590 $659 forward $438 $-1 #
vertex $-1 $582 $686 #
straight-curve $-1 -70.52949613940855 0 18.788707404926061 0 -1 0 I I #
point $-1 -70.52949613940855 -18.323750859546607 18.788707404926061 #
straight-curve $-1 70.52949613940855 0 18.788707404926061 0 1 0 I I #
edge $-1 $655 -70.52949613940855 $594 70.52949613940855 $590 $687 forward 7 unknown #
straight-curve $-1 -70.52949613940855 -40.593796397044215 0 0 0 -1 I I #
point $-1 70.52949613940855 -40.593796397044215 18.788707404926061 #
straight-curve $-1 70.52949613940855 -14.178558584922577 104.75969918295092 0 0 -1 I I #
point $-1 70.52949613940855 -14.178558584922577 18.788707404926061 #
straight-curve $-1 70.52949613940855 -5.4307666073079979 13.697006033278214 0 1 0 I I #
point $-1 70.529496139408536 -14.178558584922577 13.697006033278228 #
point $-1 65.899467040873745 -12.283115516175958 14.974302988648724 #
point $-1 65.899467040873745 -9.4399509130560304 14.974302988648724 #
straight-curve $-1 70.52949613940855 15.280215043372834 104.75969918295092 0 0 -1 I I #
point $-1 70.52949613940855 15.280215043372834 18.788707404926061 #
straight-curve $-1 70.52949613940855 9.2986202068397077 13.697006033278214 0 1 0 I I #
point $-1 70.529496139408536 15.280215043372834 13.697006033278228 #
point $-1 65.899467040873745 17.175658112119457 14.974302988648724 #
point $-1 65.899467040873745 20.018822715239381 14.974302988648724 #
straight-curve $-1 -70.52949613940855 -7.5445078443094147 65.320104943842395 0 0 -1 I I #
point $-1 -70.52949613940855 -7.5445078443094147 18.788707404926061 #
straight-curve $-1 -70.52949613940855 -5.4307666073079979 13.697006033278242 0 -1 0 I I #
point $-1 -70.52949613940855 -7.5445078443094147 13.697006033278237 #
point $-1 -65.899467040873787 -12.283115516175958 14.974302988648731 #
point $-1 -65.899467040873787 -9.4399509130560304 14.974302988648731 #
straight-curve $-1 -70.52949613940855 21.914265783985996 65.320104943842395 0 0 -1 I I #
point $-1 -70.52949613940855 21.914265783985996 18.788707404926061 #
straight-curve $-1 -70.52949613940855 9.2986202068397077 13.697006033278242 0 -1 0 I I #
point $-1 -70.52949613940855 21.914265783985996 13.697006033278237 #
point $-1 -65.899467040873787 17.175658112119457 14.974302988648731 #
point $-1 -65.899467040873787 20.018822715239381 14.974302988648731 #
point $-1 -70.52949613940855 -40.593796397044215 18.788707404926061 #
straight-curve $-1 0 -40.593796397044215 18.788707404926061 1 0 0 I I #
End-of-ACIS-data 