500 0 3 0           
7 Unknown 11 ACIS 5.0 NT 24 Fri Mar 26 18:38:29 1999 
-1 9.9999999999999995e-007 1e-010 
body $-1 $3 $-1 $4 #
body $-1 $5 $-1 $6 #
body $-1 $7 $-1 $8 #
lump $-1 $-1 $9 $0 #
transform $-1 1 0 0 0 1 0 0 0 1 53.267006439405499 26.494349322452067 11.187994406106901 1 rotate no_reflect no_shear #
lump $-1 $-1 $10 $1 #
transform $-1 1 0 0 0 1 0 0 0 1 53.267006439405499 26.494349322452067 11.187994406106901 1 rotate no_reflect no_shear #
lump $-1 $-1 $11 $2 #
transform $-1 1 0 0 0 1 0 0 0 1 53.267006439405499 26.494349322452067 11.187994406106901 1 rotate no_reflect no_shear #
shell $-1 $-1 $-1 $12 $-1 $3 #
shell $-1 $-1 $-1 $13 $-1 $5 #
shell $-1 $-1 $-1 $14 $-1 $7 #
face $-1 $15 $16 $9 $-1 $17 forward single #
face $-1 $18 $19 $10 $-1 $20 reversed single #
face $-1 $21 $22 $11 $-1 $23 forward single #
face $-1 $24 $25 $9 $-1 $26 reversed single #
loop $-1 $-1 $27 $12 #
plane-surface $-1 0 0 11.187994406106901 0 0 1 1 0 0 forward_v I I I I #
face $-1 $28 $29 $10 $-1 $30 reversed single #
loop $-1 $-1 $31 $13 #
plane-surface $-1 -6.2398110179616815 60.396891763228837 117.10285064757949 1 0 0 0 -0.68199836817093118 -0.7313536940579346 forward_v I I I I #
face $-1 $32 $33 $11 $-1 $34 forward single #
loop $-1 $35 $36 $14 #
cone-surface $-1 7.1360322293320095 20.476339837482946 5.3446706548196783 0 -0.68199836817093118 -0.7313536940579346 1.5 0 0 1 I I 0 1 1.5 forward I I I I #
face $-1 $37 $38 $9 $-1 $39 reversed single #
loop $-1 $-1 $40 $15 #
plane-surface $-1 0 0 -11.187994406106901 0 0 1 1 0 0 forward_v I I I I #
coedge $-1 $41 $42 $43 $44 forward $16 $-1 #
face $-1 $45 $46 $10 $-1 $47 reversed single #
loop $-1 $-1 $48 $18 #
plane-surface $-1 7.1360322293320095 -12.259131174821235 39.188806785845486 0 0.68199836817093118 0.7313536940579346 1 0 0 forward_v I I I I #
coedge $-1 $49 $50 $51 $52 reversed $19 $-1 #
face $-1 $-1 $53 $11 $-1 $54 forward single #
loop $-1 $55 $56 $21 #
cone-surface $-1 7.1360322293320095 18.309974633091478 3.0215284467826411 0 -0.68199836817093118 -0.7313536940579346 0.75 0 0 1 I I -0.70710678118654768 0.70710678118654735 0.75 forward I I I I #
loop $-1 $-1 $57 $14 #
coedge $-1 $36 $36 $58 $59 reversed $22 $-1 #
face $-1 $60 $61 $9 $-1 $62 reversed single #
loop $-1 $-1 $63 $24 #
plane-surface $-1 0 -26.494349322452067 0 0 1 0 0 0 1 forward_v I I I I #
coedge $-1 $64 $65 $66 $67 forward $25 $-1 #
coedge $-1 $68 $27 $69 $70 forward $16 $-1 #
coedge $-1 $27 $68 $71 $72 forward $16 $-1 #
coedge $-1 $73 $74 $27 $44 reversed $75 $-1 #
edge $-1 $76 -26.494349322452067 $77 26.494349322452067 $43 $78 forward 7 unknown #
face $-1 $79 $80 $10 $-1 $81 reversed single #
loop $-1 $-1 $82 $28 #
plane-surface $-1 20.511875476625701 60.396891763228837 117.10285064757949 -1 0 0 0 0.68199836817093118 0.7313536940579346 forward_v I I I I #
coedge $-1 $83 $84 $85 $86 reversed $29 $-1 #
coedge $-1 $50 $31 $87 $88 reversed $19 $-1 #
coedge $-1 $31 $49 $83 $89 reversed $19 $-1 #
coedge $-1 $85 $90 $31 $52 forward $91 $-1 #
edge $-1 $92 3.7040965591623518 $93 12.430382672574055 $51 $94 forward 7 unknown #
loop $-1 $-1 $58 $32 #
plane-surface $-1 7.1360322293320095 -12.259131174821235 39.188806785845486 0 0.68199836817093118 0.7313536940579346 1 0 0 forward_v I I I I #
loop $-1 $-1 $95 $21 #
coedge $-1 $56 $56 $57 $96 reversed $33 $-1 #
coedge $-1 $57 $57 $56 $96 forward $35 $-1 #
coedge $-1 $58 $58 $36 $59 forward $53 $-1 #
edge $-1 $97 2.869272609864724e-016 $97 6.2831853071796004 $58 $98 forward 7 unknown #
face $-1 $99 $100 $9 $-1 $101 reversed single #
loop $-1 $-1 $102 $37 #
plane-surface $-1 -53.267006439405499 0 0 1 0 0 0 0 -1 forward_v I I I I #
coedge $-1 $103 $71 $104 $105 forward $38 $-1 #
coedge $-1 $106 $40 $103 $107 forward $25 $-1 #
coedge $-1 $40 $106 $108 $109 forward $25 $-1 #
coedge $-1 $74 $73 $40 $67 reversed $75 $-1 #
edge $-1 $110 -26.494349322452067 $111 26.494349322452067 $66 $112 forward 7 unknown #
coedge $-1 $42 $41 $113 $114 forward $16 $-1 #
coedge $-1 $115 $116 $41 $70 reversed $100 $-1 #
edge $-1 $77 -53.267006439405499 $117 53.267006439405499 $69 $118 forward 7 unknown #
coedge $-1 $63 $119 $42 $72 reversed $38 $-1 #
edge $-1 $120 -53.267006439405499 $76 53.267006439405499 $71 $121 forward 7 unknown #
coedge $-1 $66 $43 $119 $122 forward $75 $-1 #
coedge $-1 $43 $66 $115 $123 reversed $75 $-1 #
loop $-1 $-1 $73 $99 #
vertex $-1 $44 $124 #
vertex $-1 $44 $125 #
straight-curve $-1 53.267006439405499 0 11.187994406106901 0 1 0 I I #
face $-1 $-1 $91 $10 $-1 $126 forward single #
loop $-1 $-1 $127 $45 #
plane-surface $-1 0 26.494349322452067 0 0 -1 0 0 0 -1 forward_v I I I I #
coedge $-1 $128 $129 $130 $131 reversed $46 $-1 #
coedge $-1 $132 $48 $50 $89 forward $29 $-1 #
coedge $-1 $48 $132 $128 $133 forward $29 $-1 #
coedge $-1 $130 $51 $48 $86 forward $91 $-1 #
edge $-1 $93 -9.8078271326276862 $134 16.943859361959696 $85 $135 forward 7 unknown #
coedge $-1 $136 $137 $49 $88 forward $80 $-1 #
edge $-1 $138 -55.500824545270099 $92 -47.363430917682841 $87 $139 forward 7 unknown #
edge $-1 $93 41.05700788527497 $138 52.988698644904119 $50 $140 forward 7 unknown #
coedge $-1 $51 $130 $136 $141 forward $91 $-1 #
loop $-1 $-1 $130 $79 #
vertex $-1 $88 $142 #
vertex $-1 $52 $143 #
straight-curve $-1 -6.2398110179616815 30.198445881614418 11.187994406106903 0 -1 0 I I #
coedge $-1 $95 $95 $-1 $144 reversed $55 $-1 #
edge $-1 $145 0 $145 6.2831853071796004 $56 $146 forward 7 unknown #
vertex $-1 $59 $147 #
ellipse-curve $-1 7.1360322293320095 22.131206265746222 7.1192975923132682 0 0.68199836817093118 0.7313536940579346 1.5 0 0 1 I I #
face $-1 $-1 $75 $9 $-1 $148 reversed single #
loop $-1 $-1 $115 $60 #
plane-surface $-1 0 26.494349322452067 0 0 -1 0 0 0 -1 forward_v I I I I #
coedge $-1 $149 $113 $116 $150 forward $61 $-1 #
coedge $-1 $119 $63 $64 $107 reversed $38 $-1 #
coedge $-1 $113 $149 $63 $105 reversed $61 $-1 #
edge $-1 $120 -11.187994406106901 $151 11.187994406106901 $104 $152 forward 7 unknown #
coedge $-1 $65 $64 $149 $153 forward $25 $-1 #
edge $-1 $111 -53.267006439405499 $151 53.267006439405499 $103 $154 forward 7 unknown #
coedge $-1 $116 $115 $65 $109 reversed $100 $-1 #
edge $-1 $155 -53.267006439405499 $110 53.267006439405499 $108 $156 forward 7 unknown #
vertex $-1 $67 $157 #
vertex $-1 $122 $158 #
straight-curve $-1 53.267006439405499 0 -11.187994406106901 0 -1 0 I I #
coedge $-1 $102 $104 $68 $114 reversed $61 $-1 #
edge $-1 $117 -26.494349322452067 $120 26.494349322452067 $113 $159 forward 7 unknown #
coedge $-1 $108 $69 $74 $123 forward $100 $-1 #
coedge $-1 $69 $108 $102 $150 reversed $100 $-1 #
vertex $-1 $70 $160 #
straight-curve $-1 0 26.494349322452067 11.187994406106901 -1 0 0 I I #
coedge $-1 $71 $103 $73 $122 reversed $38 $-1 #
vertex $-1 $114 $161 #
straight-curve $-1 0 -26.494349322452067 11.187994406106901 1 0 0 I I #
edge $-1 $76 -11.187994406106901 $111 11.187994406106901 $73 $162 forward 7 unknown #
edge $-1 $77 -11.187994406106901 $110 11.187994406106901 $74 $163 forward 7 unknown #
point $-1 53.267006439405499 -26.494349322452067 11.187994406106901 #
point $-1 53.267006439405499 26.494349322452067 11.187994406106901 #
plane-surface $-1 0 0 11.187994406106901 0 0 1 1 0 0 forward_v I I I I #
coedge $-1 $137 $136 $129 $164 forward $80 $-1 #
coedge $-1 $129 $82 $84 $133 reversed $46 $-1 #
coedge $-1 $82 $128 $127 $164 reversed $46 $-1 #
coedge $-1 $90 $85 $82 $131 forward $91 $-1 #
edge $-1 $134 -12.430382672574055 $165 -3.7040965591623518 $130 $166 forward 7 unknown #
coedge $-1 $84 $83 $137 $167 reversed $29 $-1 #
edge $-1 $168 -52.988698644904119 $134 -41.05700788527497 $128 $169 forward 7 unknown #
vertex $-1 $86 $170 #
straight-curve $-1 3.5680161146660048 17.76806320904036 11.187994406106903 1 0 0 I I #
coedge $-1 $127 $87 $90 $141 reversed $80 $-1 #
coedge $-1 $87 $127 $132 $167 forward $80 $-1 #
vertex $-1 $88 $171 #
straight-curve $-1 -6.2398110179616815 26.494349322452067 58.551425323789744 0 0 1 I I #
straight-curve $-1 -6.2398110179616815 -12.259131174821235 39.188806785845486 0 0.7313536940579346 -0.68199836817093118 I I #
edge $-1 $165 -20.511875476625701 $92 6.2398110179616815 $136 $172 forward 7 unknown #
point $-1 -6.2398110179616815 26.494349322452067 11.187994406106901 #
point $-1 -6.2398110179616815 17.768063209040363 11.187994406106903 #
edge $-1 $173 1 $173 0 $95 $-1 forward 7 unknown #
vertex $-1 $96 $174 #
ellipse-curve $-1 7.1360322293320095 18.821473409219678 3.5700437173260919 0 0.68199836817093118 0.7313536940579346 1.5 0 0 1 I I #
point $-1 8.6360322293320095 22.131206265746219 7.1192975923132638 #
plane-surface $-1 53.267006439405499 0 0 -1 0 0 0 0 1 forward_v I I I I #
coedge $-1 $104 $102 $106 $153 reversed $61 $-1 #
edge $-1 $117 -11.187994406106901 $155 11.187994406106901 $116 $175 forward 7 unknown #
vertex $-1 $153 $176 #
straight-curve $-1 -53.267006439405499 -26.494349322452067 0 0 0 -1 I I #
edge $-1 $151 -26.494349322452067 $155 26.494349322452067 $149 $177 forward 7 unknown #
straight-curve $-1 0 -26.494349322452067 -11.187994406106901 -1 0 0 I I #
vertex $-1 $109 $178 #
straight-curve $-1 0 26.494349322452067 -11.187994406106901 1 0 0 I I #
point $-1 53.267006439405499 26.494349322452067 -11.187994406106901 #
point $-1 53.267006439405499 -26.494349322452067 -11.187994406106901 #
straight-curve $-1 -53.267006439405499 0 11.187994406106901 0 -1 0 I I #
point $-1 -53.267006439405499 26.494349322452067 11.187994406106901 #
point $-1 -53.267006439405499 -26.494349322452067 11.187994406106901 #
straight-curve $-1 53.267006439405499 -26.494349322452067 0 0 0 -1 I I #
straight-curve $-1 53.267006439405499 26.494349322452067 0 0 0 -1 I I #
edge $-1 $165 47.363430917682841 $168 55.500824545270099 $127 $179 forward 7 unknown #
vertex $-1 $141 $180 #
straight-curve $-1 20.511875476625701 30.198445881614418 11.187994406106903 0 1 0 I I #
edge $-1 $168 -16.943859361959696 $138 9.8078271326276862 $137 $181 forward 7 unknown #
vertex $-1 $167 $182 #
straight-curve $-1 20.511875476625701 -12.259131174821235 39.188806785845486 0 -0.7313536940579346 0.68199836817093118 I I #
point $-1 20.511875476625701 17.768063209040363 11.187994406106903 #
point $-1 -6.2398110179616815 26.494349322452067 3.0506007785196445 #
straight-curve $-1 0 26.494349322452067 11.187994406106901 -1 0 0 I I #
vertex $-1 $144 $183 #
point $-1 8.6360322293320095 18.821473409219678 3.5700437173260919 #
straight-curve $-1 -53.267006439405499 26.494349322452067 0 0 0 -1 I I #
point $-1 -53.267006439405499 -26.494349322452067 -11.187994406106901 #
straight-curve $-1 -53.267006439405499 0 -11.187994406106901 0 1 0 I I #
point $-1 -53.267006439405499 26.494349322452067 -11.187994406106901 #
straight-curve $-1 20.511875476625701 26.494349322452067 58.551425323789744 0 0 -1 I I #
point $-1 20.511875476625701 26.494349322452067 11.187994406106901 #
straight-curve $-1 3.5680161146660048 26.494349322452067 3.050600778519641 -1 0 0 I I #
point $-1 20.511875476625701 26.494349322452067 3.0506007785196445 #
point $-1 7.1360322293320095 17.798475856963279 2.4730131762391903 #
End-of-ACIS-data 