500 0 6 0           
7 Unknown 11 ACIS 5.0 NT 24 Thu Mar 25 15:41:19 1999 
-1 9.9999999999999995e-007 1e-010 
body $-1 $6 $-1 $7 #
body $-1 $8 $-1 $9 #
body $-1 $10 $-1 $11 #
body $-1 $12 $-1 $13 #
body $-1 $14 $-1 $15 #
body $-1 $16 $-1 $17 #
lump $-1 $-1 $18 $0 #
transform $-1 1 0 0 0 1 0 0 0 1 44.398327585680718 18.957667193114293 4.8030872983122119 1 rotate no_reflect no_shear #
lump $-1 $-1 $19 $1 #
transform $-1 1 0 0 0 1 0 0 0 1 44.398327585680718 18.957667193114293 4.8030872983122119 1 rotate no_reflect no_shear #
lump $-1 $-1 $20 $2 #
transform $-1 1 0 0 0 1 0 0 0 1 44.398327585680718 18.957667193114293 4.8030872983122119 1 rotate no_reflect no_shear #
lump $-1 $-1 $21 $3 #
transform $-1 1 0 0 0 1 0 0 0 1 44.398327585680718 18.957667193114293 4.8030872983122119 1 rotate no_reflect no_shear #
lump $-1 $-1 $22 $4 #
transform $-1 1 0 0 0 1 0 0 0 1 44.398327585680718 18.957667193114293 4.8030872983122119 1 rotate no_reflect no_shear #
lump $-1 $-1 $23 $5 #
transform $-1 1 0 0 0 1 0 0 0 1 44.398327585680718 18.957667193114293 4.8030872983122119 1 rotate no_reflect no_shear #
shell $-1 $-1 $-1 $24 $-1 $6 #
shell $-1 $-1 $-1 $25 $-1 $8 #
shell $-1 $-1 $-1 $26 $-1 $10 #
shell $-1 $-1 $-1 $27 $-1 $12 #
shell $-1 $-1 $-1 $28 $-1 $14 #
shell $-1 $-1 $-1 $29 $-1 $16 #
face $-1 $30 $31 $18 $-1 $32 forward single #
face $-1 $33 $34 $19 $-1 $35 reversed single #
face $-1 $36 $37 $20 $-1 $38 forward single #
face $-1 $39 $40 $21 $-1 $41 reversed single #
face $-1 $42 $43 $22 $-1 $44 forward single #
face $-1 $45 $46 $23 $-1 $47 forward single #
face $-1 $48 $49 $18 $-1 $50 reversed single #
loop $-1 $-1 $51 $24 #
plane-surface $-1 0 0 4.8030872983122119 0 0 1 1 0 0 forward_v I I I I #
face $-1 $52 $53 $19 $-1 $54 reversed single #
loop $-1 $-1 $55 $25 #
plane-surface $-1 -42.178759482851397 -14.255301511432478 0 0 1 0 0 0 1 forward_v I I I I #
face $-1 $56 $57 $20 $-1 $58 reversed single #
loop $-1 $-1 $59 $26 #
plane-surface $-1 44.398327585680718 0 0 -1 0 0 0 0 1 forward_v I I I I #
face $-1 $60 $61 $21 $-1 $62 reversed single #
loop $-1 $-1 $63 $27 #
plane-surface $-1 -25.481105318589293 53.366998932941797 91.021691809685009 1 0 0 0 -0.69465837861970381 -0.71933979245794832 forward_v I I I I #
face $-1 $64 $65 $22 $-1 $66 forward single #
loop $-1 $67 $68 $28 #
cone-surface $-1 -21.96165901277503 16.237415165351962 2.1306334504808042 0 -0.69465837861970381 -0.71933979245794832 1 0 0 1 I I 0 1 1 forward I I I I #
face $-1 $69 $70 $23 $-1 $71 forward single #
loop $-1 $72 $73 $29 #
cone-surface $-1 -16.682489554053635 16.237415165351962 2.1306334504808042 0 -0.69465837861970381 -0.71933979245794832 1 0 0 1 I I 0 1 1 forward I I I I #
face $-1 $74 $75 $18 $-1 $76 reversed single #
loop $-1 $-1 $77 $30 #
plane-surface $-1 0 0 -4.8030872983122119 0 0 1 1 0 0 forward_v I I I I #
coedge $-1 $78 $79 $80 $81 forward $31 $-1 #
face $-1 $82 $83 $19 $-1 $84 reversed single #
loop $-1 $-1 $85 $33 #
plane-surface $-1 -42.178759482851397 -11.255301511432478 0 0 -1 0 0 0 -1 forward_v I I I I #
coedge $-1 $86 $87 $88 $89 reversed $34 $-1 #
face $-1 $90 $91 $20 $-1 $92 reversed single #
loop $-1 $-1 $93 $36 #
plane-surface $-1 0 18.957667193114293 0 0 -1 0 0 0 -1 forward_v I I I I #
coedge $-1 $94 $95 $96 $97 forward $37 $-1 #
face $-1 $98 $99 $21 $-1 $100 reversed single #
loop $-1 $-1 $101 $39 #
plane-surface $-1 -19.322074283414334 -8.3163415752490764 27.146724307757871 0 0.69465837861970381 0.71933979245794832 1 0 0 forward_v I I I I #
coedge $-1 $102 $103 $104 $105 reversed $40 $-1 #
face $-1 $-1 $106 $22 $-1 $107 forward single #
loop $-1 $108 $109 $42 #
cone-surface $-1 -21.96165901277503 15.238081873303106 1.0957935564783323 0 -0.69465837861970381 -0.71933979245794832 0.5 0 0 1 I I -0.70710678118654746 0.70710678118654746 0.5 forward I I I I #
loop $-1 $-1 $110 $28 #
coedge $-1 $68 $68 $111 $112 reversed $43 $-1 #
face $-1 $-1 $113 $23 $-1 $114 forward single #
loop $-1 $115 $116 $45 #
cone-surface $-1 -16.682489554053635 15.238081873303106 1.0957935564783323 0 -0.69465837861970381 -0.71933979245794832 0.5 0 0 1 I I -0.70710678118654746 0.70710678118654746 0.5 forward I I I I #
loop $-1 $-1 $117 $29 #
coedge $-1 $73 $73 $118 $119 reversed $46 $-1 #
face $-1 $120 $121 $18 $-1 $122 reversed single #
loop $-1 $-1 $123 $48 #
plane-surface $-1 0 -18.957667193114293 0 0 1 0 0 0 1 forward_v I I I I #
coedge $-1 $124 $125 $126 $127 forward $49 $-1 #
coedge $-1 $128 $51 $129 $130 forward $31 $-1 #
coedge $-1 $51 $128 $131 $132 forward $31 $-1 #
coedge $-1 $133 $134 $51 $81 reversed $135 $-1 #
edge $-1 $136 -18.957667193114293 $137 18.957667193114293 $80 $138 forward 7 unknown #
face $-1 $139 $140 $19 $-1 $141 reversed single #
loop $-1 $-1 $142 $52 #
plane-surface $-1 -39.959191380022077 -12.755301511432478 0 -1 0 0 0 0 1 forward_v I I I I #
coedge $-1 $143 $144 $145 $146 forward $53 $-1 #
coedge $-1 $147 $55 $148 $149 reversed $34 $-1 #
coedge $-1 $55 $147 $150 $151 reversed $34 $-1 #
coedge $-1 $152 $153 $55 $89 forward $154 $-1 #
edge $-1 $155 -4.8030872983122119 $156 4.8030872983122119 $88 $157 forward 7 unknown #
face $-1 $158 $159 $20 $-1 $160 reversed single #
loop $-1 $-1 $161 $56 #
plane-surface $-1 47.527345397593493 0 1.8030872983122119 0 0 1 1 0 0 forward_v I I I I #
coedge $-1 $162 $163 $95 $164 forward $57 $-1 #
coedge $-1 $165 $59 $166 $167 reversed $37 $-1 #
coedge $-1 $59 $165 $93 $164 reversed $37 $-1 #
coedge $-1 $168 $169 $59 $97 reversed $91 $-1 #
edge $-1 $170 -18.957667193114293 $171 18.957667193114293 $96 $172 forward 7 unknown #
face $-1 $173 $174 $21 $-1 $175 forward single #
loop $-1 $-1 $176 $60 #
plane-surface $-1 -13.163043248239376 53.366998932941797 91.021691809685009 -1 0 0 0 0.69465837861970381 0.71933979245794832 forward_v I I I I #
coedge $-1 $177 $178 $179 $180 reversed $61 $-1 #
coedge $-1 $103 $63 $181 $182 reversed $40 $-1 #
coedge $-1 $63 $102 $177 $183 reversed $40 $-1 #
coedge $-1 $179 $184 $63 $105 forward $174 $-1 #
edge $-1 $185 7.7258322733566054 $186 11.862328123403216 $104 $187 forward 7 unknown #
loop $-1 $-1 $111 $64 #
plane-surface $-1 -19.322074283414334 -8.3163415752490764 27.146724307757871 0 0.69465837861970381 0.71933979245794832 1 0 0 forward_v I I I I #
loop $-1 $-1 $188 $42 #
coedge $-1 $109 $109 $110 $189 reversed $65 $-1 #
coedge $-1 $110 $110 $109 $189 forward $67 $-1 #
coedge $-1 $111 $111 $68 $112 forward $106 $-1 #
edge $-1 $190 -5.2611597933160278e-016 $190 6.2831853071795996 $111 $191 forward 7 unknown #
loop $-1 $-1 $118 $69 #
plane-surface $-1 -19.322074283414334 -8.3163415752490764 27.146724307757871 0 0.69465837861970381 0.71933979245794832 1 0 0 forward_v I I I I #
loop $-1 $-1 $192 $45 #
coedge $-1 $116 $116 $117 $193 reversed $70 $-1 #
coedge $-1 $117 $117 $116 $193 forward $72 $-1 #
coedge $-1 $118 $118 $73 $119 forward $113 $-1 #
edge $-1 $194 -5.2611597933160278e-016 $194 6.2831853071795996 $118 $195 forward 7 unknown #
face $-1 $196 $197 $18 $-1 $198 reversed single #
loop $-1 $-1 $199 $74 #
plane-surface $-1 -44.398327585680718 0 0 1 0 0 0 0 -1 forward_v I I I I #
coedge $-1 $200 $131 $201 $202 forward $75 $-1 #
coedge $-1 $203 $77 $200 $204 forward $49 $-1 #
coedge $-1 $77 $203 $205 $206 forward $49 $-1 #
coedge $-1 $134 $133 $77 $127 reversed $135 $-1 #
edge $-1 $207 -18.957667193114293 $208 18.957667193114293 $126 $209 forward 7 unknown #
coedge $-1 $79 $78 $210 $211 forward $31 $-1 #
coedge $-1 $212 $213 $78 $130 reversed $197 $-1 #
edge $-1 $137 -44.398327585680718 $214 44.398327585680718 $129 $215 forward 7 unknown #
coedge $-1 $123 $216 $79 $132 reversed $75 $-1 #
edge $-1 $217 -44.398327585680718 $136 44.398327585680718 $131 $218 forward 7 unknown #
coedge $-1 $126 $80 $216 $219 forward $135 $-1 #
coedge $-1 $80 $126 $212 $220 reversed $135 $-1 #
loop $-1 $-1 $133 $196 #
vertex $-1 $81 $221 #
vertex $-1 $81 $222 #
straight-curve $-1 44.398327585680718 0 4.8030872983122119 0 1 0 I I #
face $-1 $223 $224 $19 $-1 $225 forward single #
loop $-1 $-1 $226 $82 #
plane-surface $-1 0 0 -4.8030872983122119 0 0 1 1 0 0 forward_v I I I I #
coedge $-1 $227 $228 $147 $229 forward $83 $-1 #
coedge $-1 $230 $85 $226 $231 reversed $53 $-1 #
coedge $-1 $85 $230 $232 $233 reversed $53 $-1 #
coedge $-1 $228 $227 $85 $146 reversed $83 $-1 #
edge $-1 $234 -4.8030872983122119 $235 4.8030872983122119 $145 $236 forward 7 unknown #
coedge $-1 $87 $86 $142 $229 reversed $34 $-1 #
coedge $-1 $237 $238 $86 $149 forward $140 $-1 #
edge $-1 $239 18.869811638596378 $155 23.30894784425502 $148 $240 forward 7 unknown #
coedge $-1 $241 $242 $87 $151 forward $224 $-1 #
edge $-1 $156 -23.30894784425502 $243 -18.869811638596378 $150 $244 forward 7 unknown #
coedge $-1 $245 $88 $242 $246 reversed $154 $-1 #
coedge $-1 $88 $245 $237 $247 reversed $154 $-1 #
loop $-1 $-1 $245 $223 #
vertex $-1 $247 $248 #
vertex $-1 $89 $249 #
straight-curve $-1 -44.398327585680718 -14.255301511432478 0 0 0 1 I I #
face $-1 $250 $251 $20 $-1 $252 forward single #
loop $-1 $-1 $253 $90 #
plane-surface $-1 50.656363209506267 0 3.3030872983122119 -1 0 0 0 0 1 forward_v I I I I #
coedge $-1 $169 $168 $254 $255 forward $91 $-1 #
coedge $-1 $256 $93 $257 $258 reversed $57 $-1 #
coedge $-1 $93 $256 $168 $259 reversed $57 $-1 #
edge $-1 $170 1.8030872983122119 $260 4.8030872983122119 $93 $261 forward 7 unknown #
coedge $-1 $95 $94 $262 $263 reversed $37 $-1 #
coedge $-1 $264 $265 $94 $167 forward $266 $-1 #
edge $-1 $267 -4.8030872983122119 $171 -1.8030872983122119 $166 $268 forward 7 unknown #
coedge $-1 $161 $96 $163 $259 forward $91 $-1 #
coedge $-1 $96 $161 $264 $269 forward $91 $-1 #
vertex $-1 $164 $270 #
vertex $-1 $167 $271 #
straight-curve $-1 44.398327585680718 0 1.8030872983122119 0 -1 0 I I #
face $-1 $-1 $272 $21 $-1 $273 reversed single #
loop $-1 $-1 $104 $98 #
plane-surface $-1 0 0 4.8030872983122119 0 0 1 1 0 0 forward_v I I I I #
coedge $-1 $274 $275 $276 $277 reversed $99 $-1 #
coedge $-1 $278 $101 $103 $183 forward $61 $-1 #
coedge $-1 $101 $278 $274 $279 forward $61 $-1 #
coedge $-1 $276 $104 $101 $180 forward $174 $-1 #
edge $-1 $186 -15.820068176882126 $280 -3.5020061065322086 $179 $281 forward 7 unknown #
coedge $-1 $282 $283 $102 $182 forward $272 $-1 #
edge $-1 $284 -44.702326306646071 $185 -40.707758606530291 $181 $285 forward 7 unknown #
edge $-1 $186 32.164928398103804 $284 37.915334386228565 $103 $286 forward 7 unknown #
coedge $-1 $104 $276 $282 $287 forward $174 $-1 #
vertex $-1 $105 $288 #
vertex $-1 $105 $289 #
straight-curve $-1 -25.481105318589293 26.683499466470899 4.8030872983122137 0 -1 0 I I #
coedge $-1 $188 $188 $-1 $290 reversed $108 $-1 #
edge $-1 $291 0 $291 6.2831853071796004 $109 $292 forward 7 unknown #
vertex $-1 $112 $293 #
ellipse-curve $-1 -21.96165901277503 16.88941926809099 2.8058034482543235 0 0.69465837861970381 0.71933979245794832 1 0 0 1 I I #
coedge $-1 $192 $192 $-1 $294 reversed $115 $-1 #
edge $-1 $295 0 $295 6.2831853071796004 $116 $296 forward 7 unknown #
vertex $-1 $119 $297 #
ellipse-curve $-1 -16.682489554053635 16.88941926809099 2.8058034482543235 0 0.69465837861970381 0.71933979245794832 1 0 0 1 I I #
face $-1 $-1 $135 $18 $-1 $298 reversed single #
loop $-1 $-1 $212 $120 #
plane-surface $-1 0 18.957667193114293 0 0 -1 0 0 0 -1 forward_v I I I I #
coedge $-1 $299 $210 $213 $300 forward $121 $-1 #
coedge $-1 $216 $123 $124 $204 reversed $75 $-1 #
coedge $-1 $210 $299 $123 $202 reversed $121 $-1 #
edge $-1 $217 -4.8030872983122119 $301 4.8030872983122119 $201 $302 forward 7 unknown #
coedge $-1 $125 $124 $299 $303 forward $49 $-1 #
edge $-1 $208 -44.398327585680718 $301 44.398327585680718 $200 $304 forward 7 unknown #
coedge $-1 $213 $212 $125 $206 reversed $197 $-1 #
edge $-1 $305 -44.398327585680718 $207 44.398327585680718 $205 $306 forward 7 unknown #
vertex $-1 $127 $307 #
vertex $-1 $219 $308 #
straight-curve $-1 44.398327585680718 0 -4.8030872983122119 0 -1 0 I I #
coedge $-1 $199 $201 $128 $211 reversed $121 $-1 #
edge $-1 $214 -18.957667193114293 $217 18.957667193114293 $210 $309 forward 7 unknown #
coedge $-1 $205 $129 $134 $220 forward $197 $-1 #
coedge $-1 $129 $205 $199 $300 reversed $197 $-1 #
vertex $-1 $130 $310 #
straight-curve $-1 0 18.957667193114293 4.8030872983122119 -1 0 0 I I #
coedge $-1 $131 $200 $133 $219 reversed $75 $-1 #
vertex $-1 $211 $311 #
straight-curve $-1 0 -18.957667193114293 4.8030872983122119 1 0 0 I I #
edge $-1 $136 -4.8030872983122119 $208 4.8030872983122119 $133 $312 forward 7 unknown #
edge $-1 $137 -4.8030872983122119 $207 4.8030872983122119 $134 $313 forward 7 unknown #
point $-1 44.398327585680718 -18.957667193114293 4.8030872983122119 #
point $-1 44.398327585680718 18.957667193114293 4.8030872983122119 #
face $-1 $-1 $154 $19 $-1 $314 reversed single #
loop $-1 $-1 $232 $139 #
plane-surface $-1 0 0 4.8030872983122119 0 0 1 1 0 0 forward_v I I I I #
coedge $-1 $238 $237 $143 $231 forward $140 $-1 #
coedge $-1 $145 $142 $238 $315 reversed $83 $-1 #
coedge $-1 $142 $145 $241 $316 reversed $83 $-1 #
edge $-1 $243 -4.8030872983122119 $239 4.8030872983122119 $142 $317 forward 7 unknown #
coedge $-1 $144 $143 $245 $318 reversed $53 $-1 #
edge $-1 $319 -23.30894784425502 $235 -18.869811638596378 $226 $320 forward 7 unknown #
coedge $-1 $242 $241 $144 $233 forward $224 $-1 #
edge $-1 $234 18.869811638596378 $321 23.30894784425502 $232 $322 forward 7 unknown #
vertex $-1 $233 $323 #
vertex $-1 $231 $324 #
straight-curve $-1 -39.959191380022077 -11.255301511432478 0 0 0 -1 I I #
coedge $-1 $226 $148 $153 $247 forward $140 $-1 #
coedge $-1 $148 $226 $227 $315 forward $140 $-1 #
vertex $-1 $149 $325 #
straight-curve $-1 -21.089379741425699 -14.255301511432478 -4.8030872983122119 -1 0 0 I I #
coedge $-1 $232 $150 $228 $316 forward $224 $-1 #
coedge $-1 $150 $232 $152 $246 forward $224 $-1 #
vertex $-1 $151 $326 #
straight-curve $-1 -21.089379741425699 -14.255301511432478 4.8030872983122119 1 0 0 I I #
coedge $-1 $153 $152 $230 $318 forward $154 $-1 #
edge $-1 $321 11.255301511432478 $156 14.255301511432478 $152 $327 forward 7 unknown #
edge $-1 $155 -14.255301511432478 $319 -11.255301511432478 $153 $328 forward 7 unknown #
point $-1 -44.398327585680718 -14.255301511432478 -4.8030872983122119 #
point $-1 -44.398327585680718 -14.255301511432478 4.8030872983122119 #
face $-1 $-1 $266 $20 $-1 $329 reversed single #
loop $-1 $-1 $262 $158 #
plane-surface $-1 0 0 4.8030872983122119 0 0 1 1 0 0 forward_v I I I I #
coedge $-1 $254 $330 $331 $332 forward $159 $-1 #
coedge $-1 $333 $253 $161 $255 reversed $159 $-1 #
edge $-1 $334 -18.957667193114293 $335 18.957667193114293 $254 $336 forward 7 unknown #
coedge $-1 $163 $162 $333 $337 forward $57 $-1 #
coedge $-1 $262 $338 $162 $258 forward $251 $-1 #
edge $-1 $339 -50.656363209506267 $260 -44.398327585680718 $162 $340 forward 7 unknown #
edge $-1 $170 -3.1290178119127745 $334 3.1290178119127745 $163 $341 forward 7 unknown #
vertex $-1 $164 $342 #
straight-curve $-1 44.398327585680718 18.957667193114293 0 0 0 1 I I #
coedge $-1 $343 $257 $165 $263 forward $251 $-1 #
edge $-1 $260 -18.957667193114293 $267 18.957667193114293 $262 $344 forward 7 unknown #
coedge $-1 $331 $166 $169 $269 reversed $266 $-1 #
coedge $-1 $166 $331 $343 $345 reversed $266 $-1 #
loop $-1 $-1 $166 $250 #
vertex $-1 $345 $346 #
straight-curve $-1 44.398327585680718 -18.957667193114293 0 0 0 -1 I I #
edge $-1 $335 -3.1290178119127745 $171 3.1290178119127745 $264 $347 forward 7 unknown #
point $-1 44.398327585680718 18.957667193114293 1.8030872983122119 #
point $-1 44.398327585680718 -18.957667193114293 1.8030872983122119 #
loop $-1 $-1 $181 $173 #
plane-surface $-1 0 18.957667193114293 0 0 -1 0 0 0 -1 forward_v I I I I #
coedge $-1 $275 $176 $178 $279 reversed $99 $-1 #
coedge $-1 $176 $274 $348 $349 reversed $99 $-1 #
coedge $-1 $184 $179 $176 $277 forward $174 $-1 #
edge $-1 $280 -11.862328123403216 $350 -7.7258322733566054 $276 $351 forward 7 unknown #
coedge $-1 $178 $177 $283 $352 reversed $61 $-1 #
edge $-1 $353 -37.915334386228565 $280 -32.164928398103804 $274 $354 forward 7 unknown #
vertex $-1 $180 $355 #
straight-curve $-1 -9.6610371417071672 14.821171343067689 4.8030872983122119 1 0 0 I I #
coedge $-1 $348 $181 $184 $287 reversed $272 $-1 #
coedge $-1 $181 $348 $278 $352 forward $272 $-1 #
vertex $-1 $182 $356 #
straight-curve $-1 -25.481105318589293 18.957667193114293 45.510845904842505 0 0 1 I I #
straight-curve $-1 -25.481105318589293 -8.3163415752490764 27.146724307757871 0 0.71933979245794832 -0.69465837861970381 I I #
edge $-1 $350 13.163043248239376 $185 25.481105318589293 $282 $357 forward 7 unknown #
point $-1 -25.481105318589293 18.957667193114293 4.8030872983122119 #
point $-1 -25.481105318589293 14.821171343067682 4.8030872983122173 #
edge $-1 $358 1 $358 0 $188 $-1 forward 7 unknown #
vertex $-1 $189 $359 #
ellipse-curve $-1 -21.96165901277503 15.585411062612957 1.4554634527073065 0 0.69465837861970381 0.71933979245794832 1 0 0 1 I I #
point $-1 -20.96165901277503 16.889419268090968 2.8058034482543022 #
edge $-1 $360 1 $360 0 $192 $-1 forward 7 unknown #
vertex $-1 $193 $361 #
ellipse-curve $-1 -16.682489554053635 15.585411062612957 1.4554634527073065 0 0.69465837861970381 0.71933979245794832 1 0 0 1 I I #
point $-1 -15.682489554053635 16.889419268090968 2.8058034482543022 #
plane-surface $-1 44.398327585680718 0 0 -1 0 0 0 0 1 forward_v I I I I #
coedge $-1 $201 $199 $203 $303 reversed $121 $-1 #
edge $-1 $214 -4.8030872983122119 $305 4.8030872983122119 $213 $362 forward 7 unknown #
vertex $-1 $303 $363 #
straight-curve $-1 -44.398327585680718 -18.957667193114293 0 0 0 -1 I I #
edge $-1 $301 -18.957667193114293 $305 18.957667193114293 $299 $364 forward 7 unknown #
straight-curve $-1 0 -18.957667193114293 -4.8030872983122119 -1 0 0 I I #
vertex $-1 $206 $365 #
straight-curve $-1 0 18.957667193114293 -4.8030872983122119 1 0 0 I I #
point $-1 44.398327585680718 18.957667193114293 -4.8030872983122119 #
point $-1 44.398327585680718 -18.957667193114293 -4.8030872983122119 #
straight-curve $-1 -44.398327585680718 0 4.8030872983122119 0 -1 0 I I #
point $-1 -44.398327585680718 18.957667193114293 4.8030872983122119 #
point $-1 -44.398327585680718 -18.957667193114293 4.8030872983122119 #
straight-curve $-1 44.398327585680718 -18.957667193114293 0 0 0 -1 I I #
straight-curve $-1 44.398327585680718 18.957667193114293 0 0 0 -1 I I #
plane-surface $-1 -44.398327585680718 0 0 1 0 0 0 0 -1 forward_v I I I I #
edge $-1 $235 4.877650755716239 $239 7.877650755716239 $238 $366 forward 7 unknown #
edge $-1 $243 -7.877650755716239 $234 -4.877650755716239 $241 $367 forward 7 unknown #
straight-curve $-1 -39.959191380022077 -14.255301511432478 0 0 0 -1 I I #
edge $-1 $321 -4.8030872983122119 $319 4.8030872983122119 $245 $368 forward 7 unknown #
vertex $-1 $318 $369 #
straight-curve $-1 -21.089379741425699 -11.255301511432478 -4.8030872983122119 1 0 0 I I #
vertex $-1 $246 $370 #
straight-curve $-1 -21.089379741425699 -11.255301511432478 4.8030872983122119 -1 0 0 I I #
point $-1 -39.959191380022077 -11.255301511432478 4.8030872983122119 #
point $-1 -39.959191380022077 -11.255301511432478 -4.8030872983122119 #
point $-1 -39.959191380022077 -14.255301511432478 -4.8030872983122119 #
point $-1 -39.959191380022077 -14.255301511432478 4.8030872983122119 #
straight-curve $-1 -44.398327585680718 0 4.8030872983122119 0 -1 0 I I #
straight-curve $-1 -44.398327585680718 0 -4.8030872983122119 0 1 0 I I #
plane-surface $-1 0 -18.957667193114293 0 0 1 0 0 0 1 forward_v I I I I #
coedge $-1 $253 $333 $338 $371 reversed $159 $-1 #
coedge $-1 $265 $264 $253 $332 reversed $266 $-1 #
edge $-1 $372 -1.5 $335 1.5 $253 $373 forward 7 unknown #
coedge $-1 $330 $254 $256 $337 reversed $159 $-1 #
vertex $-1 $255 $374 #
vertex $-1 $332 $375 #
straight-curve $-1 50.656363209506267 0 1.8030872983122119 0 -1 0 I I #
edge $-1 $339 -1.5 $334 1.5 $333 $376 forward 7 unknown #
coedge $-1 $257 $343 $330 $371 forward $251 $-1 #
vertex $-1 $371 $377 #
straight-curve $-1 0 18.957667193114293 4.8030872983122119 -1 0 0 I I #
straight-curve $-1 47.527345397593493 18.957667193114293 1.8030872983122119 1 0 0 I I #
point $-1 44.398327585680718 18.957667193114293 4.8030872983122119 #
coedge $-1 $338 $262 $265 $345 forward $251 $-1 #
straight-curve $-1 44.398327585680718 0 4.8030872983122119 0 -1 0 I I #
edge $-1 $267 -3.1290178119127745 $372 3.1290178119127745 $265 $378 forward 7 unknown #
point $-1 44.398327585680718 -18.957667193114293 4.8030872983122119 #
straight-curve $-1 47.527345397593493 -18.957667193114293 1.8030872983122119 -1 0 0 I I #
coedge $-1 $283 $282 $275 $349 forward $272 $-1 #
edge $-1 $350 40.707758606530291 $353 44.702326306646071 $348 $379 forward 7 unknown #
vertex $-1 $287 $380 #
straight-curve $-1 -13.163043248239376 26.683499466470899 4.8030872983122137 0 1 0 I I #
edge $-1 $353 3.5020061065322086 $284 15.820068176882126 $283 $381 forward 7 unknown #
vertex $-1 $352 $382 #
straight-curve $-1 -13.163043248239376 -8.3163415752490764 27.146724307757871 0 -0.71933979245794832 0.69465837861970381 I I #
point $-1 -13.163043248239376 14.821171343067682 4.8030872983122173 #
point $-1 -25.481105318589293 18.95766719311429 0.80851959819643326 #
straight-curve $-1 0 18.957667193114293 4.8030872983122119 -1 0 0 I I #
vertex $-1 $290 $383 #
point $-1 -20.96165901277503 15.585411062612957 1.4554634527073065 #
vertex $-1 $294 $384 #
point $-1 -15.682489554053635 15.585411062612957 1.4554634527073065 #
straight-curve $-1 -44.398327585680718 18.957667193114293 0 0 0 -1 I I #
point $-1 -44.398327585680718 -18.957667193114293 -4.8030872983122119 #
straight-curve $-1 -44.398327585680718 0 -4.8030872983122119 0 1 0 I I #
point $-1 -44.398327585680718 18.957667193114293 -4.8030872983122119 #
straight-curve $-1 -39.959191380022077 -6.377650755716239 -4.8030872983122119 0 -1 0 I I #
straight-curve $-1 -39.959191380022077 -6.377650755716239 4.8030872983122119 0 1 0 I I #
straight-curve $-1 -44.398327585680718 -11.255301511432478 0 0 0 -1 I I #
point $-1 -44.398327585680718 -11.255301511432478 -4.8030872983122119 #
point $-1 -44.398327585680718 -11.255301511432478 4.8030872983122119 #
edge $-1 $372 -18.957667193114293 $339 18.957667193114293 $330 $385 forward 7 unknown #
vertex $-1 $371 $386 #
straight-curve $-1 50.656363209506267 -18.957667193114293 3.3030872983122119 0 0 -1 I I #
point $-1 50.656363209506267 18.957667193114293 1.8030872983122119 #
point $-1 50.656363209506267 -18.957667193114293 1.8030872983122119 #
straight-curve $-1 50.656363209506267 18.957667193114293 3.3030872983122119 0 0 -1 I I #
point $-1 50.656363209506267 18.957667193114293 4.8030872983122119 #
straight-curve $-1 47.527345397593493 -18.957667193114293 4.8030872983122119 1 0 0 I I #
straight-curve $-1 -13.163043248239376 18.957667193114293 45.510845904842505 0 0 -1 I I #
point $-1 -13.163043248239376 18.957667193114293 4.8030872983122119 #
straight-curve $-1 -9.6610371417071672 18.957667193114293 0.80851959819643326 -1 0 0 I I #
point $-1 -13.163043248239376 18.95766719311429 0.80851959819643326 #
point $-1 -21.96165901277503 14.890752683993254 0.73612366024935816 #
point $-1 -16.682489554053635 14.890752683993254 0.73612366024935816 #
straight-curve $-1 50.656363209506267 0 4.8030872983122119 0 1 0 I I #
point $-1 50.656363209506267 -18.957667193114293 4.8030872983122119 #
End-of-ACIS-data 