500 0 13 0           
7 Unknown 11 ACIS 5.0 NT 24 Fri Mar 26 19:25:19 1999 
-1 9.9999999999999995e-007 1e-010 
body $-1 $13 $-1 $14 #
body $-1 $15 $-1 $16 #
body $-1 $17 $-1 $18 #
body $-1 $19 $-1 $20 #
body $-1 $21 $-1 $22 #
body $-1 $23 $-1 $24 #
body $-1 $25 $-1 $26 #
body $-1 $27 $-1 $28 #
body $-1 $29 $-1 $30 #
body $-1 $31 $-1 $32 #
body $-1 $33 $-1 $34 #
body $-1 $35 $-1 $36 #
body $-1 $37 $-1 $38 #
lump $-1 $-1 $39 $0 #
transform $-1 1 0 0 0 1 0 0 0 1 57.66411328470717 32.745550557650432 14.576351996790473 1 rotate no_reflect no_shear #
lump $-1 $-1 $40 $1 #
transform $-1 1 0 0 0 1 0 0 0 1 57.66411328470717 32.745550557650432 14.576351996790473 1 rotate no_reflect no_shear #
lump $-1 $-1 $41 $2 #
transform $-1 1 0 0 0 1 0 0 0 1 57.66411328470717 32.745550557650432 14.576351996790473 1 rotate no_reflect no_shear #
lump $-1 $-1 $42 $3 #
transform $-1 1 0 0 0 1 0 0 0 1 57.66411328470717 32.745550557650432 14.576351996790473 1 rotate no_reflect no_shear #
lump $-1 $-1 $43 $4 #
transform $-1 1 0 0 0 1 0 0 0 1 57.66411328470717 32.745550557650432 14.576351996790473 1 rotate no_reflect no_shear #
lump $-1 $-1 $44 $5 #
transform $-1 1 0 0 0 1 0 0 0 1 57.66411328470717 32.745550557650432 14.576351996790473 1 rotate no_reflect no_shear #
lump $-1 $-1 $45 $6 #
transform $-1 1 0 0 0 1 0 0 0 1 57.66411328470717 32.745550557650432 14.576351996790473 1 rotate no_reflect no_shear #
lump $-1 $-1 $46 $7 #
transform $-1 1 0 0 0 1 0 0 0 1 57.66411328470717 32.745550557650432 14.576351996790473 1 rotate no_reflect no_shear #
lump $-1 $-1 $47 $8 #
transform $-1 1 0 0 0 1 0 0 0 1 57.66411328470717 32.745550557650432 14.576351996790473 1 rotate no_reflect no_shear #
lump $-1 $-1 $48 $9 #
transform $-1 1 0 0 0 1 0 0 0 1 57.66411328470717 32.745550557650432 14.576351996790473 1 rotate no_reflect no_shear #
lump $-1 $-1 $49 $10 #
transform $-1 1 0 0 0 1 0 0 0 1 57.66411328470717 32.745550557650432 14.576351996790473 1 rotate no_reflect no_shear #
lump $-1 $-1 $50 $11 #
transform $-1 1 0 0 0 1 0 0 0 1 57.66411328470717 32.745550557650432 14.576351996790473 1 rotate no_reflect no_shear #
lump $-1 $-1 $51 $12 #
transform $-1 1 0 0 0 1 0 0 0 1 57.66411328470717 32.745550557650432 14.576351996790473 1 rotate no_reflect no_shear #
shell $-1 $-1 $-1 $52 $-1 $13 #
shell $-1 $-1 $-1 $53 $-1 $15 #
shell $-1 $-1 $-1 $54 $-1 $17 #
shell $-1 $-1 $-1 $55 $-1 $19 #
shell $-1 $-1 $-1 $56 $-1 $21 #
shell $-1 $-1 $-1 $57 $-1 $23 #
shell $-1 $-1 $-1 $58 $-1 $25 #
shell $-1 $-1 $-1 $59 $-1 $27 #
shell $-1 $-1 $-1 $60 $-1 $29 #
shell $-1 $-1 $-1 $61 $-1 $31 #
shell $-1 $-1 $-1 $62 $-1 $33 #
shell $-1 $-1 $-1 $63 $-1 $35 #
shell $-1 $-1 $-1 $64 $-1 $37 #
face $-1 $65 $66 $39 $-1 $67 forward single #
face $-1 $68 $69 $40 $-1 $70 forward single #
face $-1 $71 $72 $41 $-1 $73 reversed single #
face $-1 $74 $75 $42 $-1 $76 forward single #
face $-1 $77 $78 $43 $-1 $79 forward single #
face $-1 $80 $81 $44 $-1 $82 forward single #
face $-1 $83 $84 $45 $-1 $85 reversed single #
face $-1 $86 $87 $46 $-1 $88 forward single #
face $-1 $89 $90 $47 $-1 $91 forward single #
face $-1 $92 $93 $48 $-1 $94 forward single #
face $-1 $95 $96 $49 $-1 $97 reversed single #
face $-1 $98 $99 $50 $-1 $100 forward single #
face $-1 $101 $102 $51 $-1 $103 forward single #
face $-1 $104 $105 $39 $-1 $106 reversed single #
loop $-1 $-1 $107 $52 #
plane-surface $-1 0 0 14.576351996790473 0 0 1 1 0 0 forward_v I I I I #
face $-1 $108 $109 $40 $-1 $110 reversed single #
loop $-1 $-1 $111 $53 #
plane-surface $-1 0 -23.778711915711121 5.1020425939351934 0 0 1 1 0 0 forward_v I I I I #
face $-1 $112 $113 $41 $-1 $114 reversed single #
loop $-1 $-1 $115 $54 #
plane-surface $-1 -144.70343170265352 -12.068215315327226 83.350132388197025 0 1 0 -0.75470958851134928 0 0.65605901945558964 forward_v I I I I #
face $-1 $116 $117 $42 $-1 $118 forward single #
loop $-1 $119 $120 $55 #
cone-surface $-1 -54.227373408202823 -9.8182790451954141 10.747288744163058 0.75470958851134928 0 -0.65605901945558964 0.32802950972779482 0 0.37735479425567464 1 I I 0 1 0.5 forward I I I I #
face $-1 $121 $122 $43 $-1 $123 forward single #
loop $-1 $124 $125 $56 #
cone-surface $-1 -54.227373408202823 -6.4433746399976997 10.747288744163058 0.75470958851134928 0 -0.65605901945558964 0.32802950972779482 0 0.37735479425567464 1 I I 0 1 0.5 forward I I I I #
face $-1 $126 $127 $44 $-1 $128 forward single #
loop $-1 $129 $130 $57 #
cone-surface $-1 -54.227373408202823 -3.0684702347999817 10.747288744163058 0.75470958851134928 0 -0.65605901945558964 0.32802950972779482 0 0.37735479425567464 1 I I 0 1 0.5 forward I I I I #
face $-1 $131 $132 $45 $-1 $133 reversed single #
loop $-1 $-1 $134 $58 #
plane-surface $-1 -144.70343170265352 11.710496600383895 83.350132388197025 0 1 0 -0.75470958851134928 0 0.65605901945558964 forward_v I I I I #
face $-1 $135 $136 $46 $-1 $137 forward single #
loop $-1 $138 $139 $59 #
cone-surface $-1 -54.227373408202823 13.960432870515703 10.747288744163058 0.75470958851134928 0 -0.65605901945558964 0.32802950972779482 0 0.37735479425567464 1 I I 0 1 0.5 forward I I I I #
face $-1 $140 $141 $47 $-1 $142 forward single #
loop $-1 $143 $144 $60 #
cone-surface $-1 -54.227373408202823 17.335337275713421 10.747288744163058 0.75470958851134928 0 -0.65605901945558964 0.32802950972779482 0 0.37735479425567464 1 I I 0 1 0.5 forward I I I I #
face $-1 $145 $146 $48 $-1 $147 forward single #
loop $-1 $148 $149 $61 #
cone-surface $-1 -54.227373408202823 20.710241680911139 10.747288744163058 0.75470958851134928 0 -0.65605901945558964 0.32802950972779482 0 0.37735479425567464 1 I I 0 1 0.5 forward I I I I #
face $-1 $150 $151 $49 $-1 $152 reversed single #
loop $-1 $-1 $153 $62 #
plane-surface $-1 85.985914914644653 8.7989233652816523 171.11688734128737 0 -1 0 -0.81915205242281985 0 -0.57357642473473569 forward_v I I I I #
face $-1 $154 $155 $50 $-1 $156 forward single #
loop $-1 $157 $158 $63 #
cone-surface $-1 55.825984378686222 1.5632410976481665 12.249378775020553 -0.81915205242281985 0 -0.57357642473473569 0.14339410618368392 0 -0.20478801310570496 1 I I 0 1 0.25 forward I I I I #
face $-1 $159 $160 $51 $-1 $161 forward single #
loop $-1 $162 $163 $64 #
cone-surface $-1 55.825984378686222 5.9046504582282608 12.249378775020553 -0.81915205242281985 0 -0.57357642473473569 0.14339410618368392 0 -0.20478801310570496 1 I I 0 1 0.25 forward I I I I #
face $-1 $164 $165 $39 $-1 $166 reversed single #
loop $-1 $-1 $167 $65 #
plane-surface $-1 0 0 -14.576351996790473 0 0 1 1 0 0 forward_v I I I I #
coedge $-1 $168 $169 $170 $171 forward $66 $-1 #
face $-1 $172 $173 $40 $-1 $174 reversed single #
loop $-1 $-1 $175 $68 #
plane-surface $-1 0 -23.778711915711121 1.172339591852376 0 0 1 1 0 0 forward_v I I I I #
coedge $-1 $176 $177 $178 $179 reversed $69 $-1 #
face $-1 $180 $181 $41 $-1 $182 reversed single #
loop $-1 $-1 $183 $71 #
plane-surface $-1 -57.664113284707156 -6.4433746399976997 7.6880091495149685 -0.75470958851134928 0 0.65605901945558964 0.65605901945558964 0 0.75470958851134928 forward_v I I I I #
coedge $-1 $184 $185 $186 $187 reversed $72 $-1 #
face $-1 $-1 $188 $42 $-1 $189 forward single #
loop $-1 $190 $191 $74 #
cone-surface $-1 -53.59592859951006 -9.8182790451954141 10.198382160309491 0.75470958851134928 0 -0.65605901945558964 0.16401475486389741 0 0.18867739712783732 1 I I -0.70710678118654746 0.70710678118654746 0.25 forward I I I I #
loop $-1 $-1 $192 $55 #
coedge $-1 $120 $120 $193 $194 reversed $75 $-1 #
face $-1 $-1 $195 $43 $-1 $196 forward single #
loop $-1 $197 $198 $77 #
cone-surface $-1 -53.59592859951006 -6.4433746399976997 10.198382160309491 0.75470958851134928 0 -0.65605901945558964 0.16401475486389741 0 0.18867739712783732 1 I I -0.70710678118654746 0.70710678118654746 0.25 forward I I I I #
loop $-1 $-1 $199 $56 #
coedge $-1 $125 $125 $200 $201 reversed $78 $-1 #
face $-1 $-1 $202 $44 $-1 $203 forward single #
loop $-1 $204 $205 $80 #
cone-surface $-1 -53.59592859951006 -3.0684702347999817 10.198382160309491 0.75470958851134928 0 -0.65605901945558964 0.16401475486389741 0 0.18867739712783732 1 I I -0.70710678118654746 0.70710678118654746 0.25 forward I I I I #
loop $-1 $-1 $206 $57 #
coedge $-1 $130 $130 $207 $208 reversed $81 $-1 #
face $-1 $209 $210 $45 $-1 $211 reversed single #
loop $-1 $-1 $212 $83 #
plane-surface $-1 -57.664113284707156 17.335337275713421 7.6880091495149685 -0.75470958851134928 0 0.65605901945558964 0.65605901945558964 0 0.75470958851134928 forward_v I I I I #
coedge $-1 $213 $214 $215 $216 reversed $84 $-1 #
face $-1 $-1 $217 $46 $-1 $218 forward single #
loop $-1 $219 $220 $86 #
cone-surface $-1 -53.59592859951006 13.960432870515703 10.198382160309491 0.75470958851134928 0 -0.65605901945558964 0.16401475486389741 0 0.18867739712783732 1 I I -0.70710678118654746 0.70710678118654746 0.25 forward I I I I #
loop $-1 $-1 $221 $59 #
coedge $-1 $139 $139 $222 $223 reversed $87 $-1 #
face $-1 $-1 $224 $47 $-1 $225 forward single #
loop $-1 $226 $227 $89 #
cone-surface $-1 -53.59592859951006 17.335337275713421 10.198382160309491 0.75470958851134928 0 -0.65605901945558964 0.16401475486389741 0 0.18867739712783732 1 I I -0.70710678118654746 0.70710678118654746 0.25 forward I I I I #
loop $-1 $-1 $228 $60 #
coedge $-1 $144 $144 $229 $230 reversed $90 $-1 #
face $-1 $-1 $231 $48 $-1 $232 forward single #
loop $-1 $233 $234 $92 #
cone-surface $-1 -53.59592859951006 20.710241680911139 10.198382160309491 0.75470958851134928 0 -0.65605901945558964 0.16401475486389741 0 0.18867739712783732 1 I I -0.70710678118654746 0.70710678118654746 0.25 forward I I I I #
loop $-1 $-1 $235 $61 #
coedge $-1 $149 $149 $236 $237 reversed $93 $-1 #
face $-1 $238 $239 $49 $-1 $240 reversed single #
loop $-1 $-1 $241 $95 #
plane-surface $-1 -8.4854385819750888 3.7339457779382101 104.96733547460514 0.81915205242281985 0 0.57357642473473569 0.57357642473473569 0 -0.81915205242281985 forward_v I I I I #
coedge $-1 $242 $243 $244 $245 reversed $96 $-1 #
face $-1 $-1 $246 $50 $-1 $247 forward single #
loop $-1 $248 $249 $98 #
cone-surface $-1 55.314014345921962 1.5632410976481665 11.890893509561343 -0.81915205242281985 0 -0.57357642473473569 0.071697053091841961 0 -0.10239400655285248 1 I I -0.70710678118654746 0.70710678118654746 0.125 forward I I I I #
loop $-1 $-1 $250 $63 #
coedge $-1 $158 $158 $251 $252 reversed $99 $-1 #
face $-1 $-1 $253 $51 $-1 $254 forward single #
loop $-1 $255 $256 $101 #
cone-surface $-1 55.314014345921962 5.9046504582282608 11.890893509561343 -0.81915205242281985 0 -0.57357642473473569 0.071697053091841961 0 -0.10239400655285248 1 I I -0.70710678118654746 0.70710678118654746 0.125 forward I I I I #
loop $-1 $-1 $257 $64 #
coedge $-1 $163 $163 $258 $259 reversed $102 $-1 #
face $-1 $260 $261 $39 $-1 $262 reversed single #
loop $-1 $-1 $263 $104 #
plane-surface $-1 0 -32.745550557650432 0 0 1 0 0 0 1 forward_v I I I I #
coedge $-1 $264 $265 $266 $267 forward $105 $-1 #
coedge $-1 $268 $107 $269 $270 forward $66 $-1 #
coedge $-1 $107 $268 $271 $272 forward $66 $-1 #
coedge $-1 $273 $274 $107 $171 reversed $275 $-1 #
edge $-1 $276 -32.745550557650432 $277 32.745550557650432 $170 $278 forward 7 unknown #
face $-1 $279 $280 $40 $-1 $281 reversed single #
loop $-1 $-1 $282 $108 #
plane-surface $-1 0 -14.811873273771811 3.1371910928937847 0 -1 0 0 0 -1 forward_v I I I I #
coedge $-1 $283 $284 $285 $286 reversed $109 $-1 #
coedge $-1 $287 $111 $288 $289 forward $69 $-1 #
coedge $-1 $111 $287 $290 $291 reversed $69 $-1 #
coedge $-1 $292 $293 $111 $179 forward $294 $-1 #
edge $-1 $295 2.9225173159162505 $296 20.856194599794872 $178 $297 forward 7 unknown #
face $-1 $298 $299 $41 $-1 $300 reversed single #
loop $-1 $-1 $301 $112 #
plane-surface $-1 -144.70343170265352 -0.8185339646681733 83.350132388197025 0 -1 0 0.75470958851134928 0 -0.65605901945558964 forward_v I I I I #
coedge $-1 $302 $303 $304 $305 reversed $113 $-1 #
coedge $-1 $185 $115 $306 $307 reversed $72 $-1 #
coedge $-1 $115 $184 $302 $308 reversed $72 $-1 #
coedge $-1 $304 $309 $115 $187 forward $310 $-1 #
edge $-1 $311 14.687602566619589 $312 20.67554749649846 $186 $313 forward 7 unknown #
loop $-1 $-1 $193 $116 #
plane-surface $-1 -57.664113284707156 -6.4433746399976997 7.6880091495149685 -0.75470958851134928 0 0.65605901945558964 0.65605901945558964 0 0.75470958851134928 forward_v I I I I #
loop $-1 $-1 $314 $74 #
coedge $-1 $191 $191 $192 $315 reversed $117 $-1 #
coedge $-1 $192 $192 $191 $315 forward $119 $-1 #
coedge $-1 $193 $193 $120 $194 forward $188 $-1 #
edge $-1 $316 0 $316 6.2831853071796004 $193 $317 forward 7 unknown #
loop $-1 $-1 $200 $121 #
plane-surface $-1 -57.664113284707156 -6.4433746399976997 7.6880091495149685 -0.75470958851134928 0 0.65605901945558964 0.65605901945558964 0 0.75470958851134928 forward_v I I I I #
loop $-1 $-1 $318 $77 #
coedge $-1 $198 $198 $199 $319 reversed $122 $-1 #
coedge $-1 $199 $199 $198 $319 forward $124 $-1 #
coedge $-1 $200 $200 $125 $201 forward $195 $-1 #
edge $-1 $320 0 $320 6.2831853071796004 $200 $321 forward 7 unknown #
loop $-1 $-1 $207 $126 #
plane-surface $-1 -57.664113284707156 -6.4433746399976997 7.6880091495149685 -0.75470958851134928 0 0.65605901945558964 0.65605901945558964 0 0.75470958851134928 forward_v I I I I #
loop $-1 $-1 $322 $80 #
coedge $-1 $205 $205 $206 $323 reversed $127 $-1 #
coedge $-1 $206 $206 $205 $323 forward $129 $-1 #
coedge $-1 $207 $207 $130 $208 forward $202 $-1 #
edge $-1 $324 0 $324 6.2831853071796004 $207 $325 forward 7 unknown #
face $-1 $326 $327 $45 $-1 $328 forward single #
loop $-1 $-1 $329 $131 #
plane-surface $-1 -144.70343170265352 22.960177951042947 83.350132388197025 0 -1 0 0.75470958851134928 0 -0.65605901945558964 forward_v I I I I #
coedge $-1 $330 $331 $332 $333 reversed $132 $-1 #
coedge $-1 $214 $134 $334 $335 reversed $84 $-1 #
coedge $-1 $134 $213 $330 $336 reversed $84 $-1 #
coedge $-1 $332 $337 $134 $216 forward $327 $-1 #
edge $-1 $338 14.687602566619589 $339 20.67554749649846 $215 $340 forward 7 unknown #
loop $-1 $-1 $222 $135 #
plane-surface $-1 -57.664113284707156 17.335337275713421 7.6880091495149685 -0.75470958851134928 0 0.65605901945558964 0.65605901945558964 0 0.75470958851134928 forward_v I I I I #
loop $-1 $-1 $341 $86 #
coedge $-1 $220 $220 $221 $342 reversed $136 $-1 #
coedge $-1 $221 $221 $220 $342 forward $138 $-1 #
coedge $-1 $222 $222 $139 $223 forward $217 $-1 #
edge $-1 $343 0 $343 6.2831853071796004 $222 $344 forward 7 unknown #
loop $-1 $-1 $229 $140 #
plane-surface $-1 -57.664113284707156 17.335337275713421 7.6880091495149685 -0.75470958851134928 0 0.65605901945558964 0.65605901945558964 0 0.75470958851134928 forward_v I I I I #
loop $-1 $-1 $345 $89 #
coedge $-1 $227 $227 $228 $346 reversed $141 $-1 #
coedge $-1 $228 $228 $227 $346 forward $143 $-1 #
coedge $-1 $229 $229 $144 $230 forward $224 $-1 #
edge $-1 $347 0 $347 6.2831853071796004 $229 $348 forward 7 unknown #
loop $-1 $-1 $236 $145 #
plane-surface $-1 -57.664113284707156 17.335337275713421 7.6880091495149685 -0.75470958851134928 0 0.65605901945558964 0.65605901945558964 0 0.75470958851134928 forward_v I I I I #
loop $-1 $-1 $349 $92 #
coedge $-1 $234 $234 $235 $350 reversed $146 $-1 #
coedge $-1 $235 $235 $234 $350 forward $148 $-1 #
coedge $-1 $236 $236 $149 $237 forward $231 $-1 #
edge $-1 $351 0 $351 6.2831853071796004 $236 $352 forward 7 unknown #
face $-1 $353 $354 $49 $-1 $355 forward single #
loop $-1 $-1 $356 $150 #
plane-surface $-1 85.985914914644653 -1.331031809405232 171.11688734128737 0 1 0 0.81915205242281985 0 0.57357642473473569 forward_v I I I I #
coedge $-1 $357 $358 $359 $360 reversed $151 $-1 #
coedge $-1 $243 $153 $361 $362 reversed $96 $-1 #
coedge $-1 $153 $242 $357 $363 reversed $96 $-1 #
coedge $-1 $359 $364 $153 $245 forward $354 $-1 #
edge $-1 $365 -14.671155827384844 $366 -11.814050067765741 $244 $367 forward 7 unknown #
loop $-1 $-1 $251 $154 #
plane-surface $-1 -8.4854385819750888 3.7339457779382101 104.96733547460514 0.81915205242281985 0 0.57357642473473569 0.57357642473473569 0 -0.81915205242281985 forward_v I I I I #
loop $-1 $-1 $368 $98 #
coedge $-1 $249 $249 $250 $369 reversed $155 $-1 #
coedge $-1 $250 $250 $249 $369 forward $157 $-1 #
coedge $-1 $251 $251 $158 $252 forward $246 $-1 #
edge $-1 $370 0 $370 6.2831853071796004 $251 $371 forward 7 unknown #
loop $-1 $-1 $258 $159 #
plane-surface $-1 -8.4854385819750888 3.7339457779382101 104.96733547460514 0.81915205242281985 0 0.57357642473473569 0.57357642473473569 0 -0.81915205242281985 forward_v I I I I #
loop $-1 $-1 $372 $101 #
coedge $-1 $256 $256 $257 $373 reversed $160 $-1 #
coedge $-1 $257 $257 $256 $373 forward $162 $-1 #
coedge $-1 $258 $258 $163 $259 forward $253 $-1 #
edge $-1 $374 0 $374 6.2831853071796004 $258 $375 forward 7 unknown #
face $-1 $376 $377 $39 $-1 $378 reversed single #
loop $-1 $-1 $379 $164 #
plane-surface $-1 -57.66411328470717 0 0 1 0 0 0 0 -1 forward_v I I I I #
coedge $-1 $380 $271 $381 $382 forward $165 $-1 #
coedge $-1 $383 $167 $380 $384 forward $105 $-1 #
coedge $-1 $167 $383 $385 $386 forward $105 $-1 #
coedge $-1 $274 $273 $167 $267 reversed $275 $-1 #
edge $-1 $387 -32.745550557650432 $388 32.745550557650432 $266 $389 forward 7 unknown #
coedge $-1 $169 $168 $390 $391 forward $66 $-1 #
coedge $-1 $392 $393 $168 $270 reversed $377 $-1 #
edge $-1 $277 -57.66411328470717 $394 57.66411328470717 $269 $395 forward 7 unknown #
coedge $-1 $263 $396 $169 $272 reversed $165 $-1 #
edge $-1 $397 -57.66411328470717 $276 57.66411328470717 $271 $398 forward 7 unknown #
coedge $-1 $266 $170 $396 $399 forward $275 $-1 #
coedge $-1 $170 $266 $392 $400 reversed $275 $-1 #
loop $-1 $-1 $273 $376 #
vertex $-1 $171 $401 #
vertex $-1 $171 $402 #
straight-curve $-1 57.66411328470717 0 14.576351996790473 0 1 0 I I #
face $-1 $403 $404 $40 $-1 $405 reversed single #
loop $-1 $-1 $406 $172 #
plane-surface $-1 -57.66411328470717 0 0 1 0 0 0 0 -1 forward_v I I I I #
coedge $-1 $407 $288 $293 $408 reversed $173 $-1 #
coedge $-1 $409 $175 $410 $411 reversed $109 $-1 #
coedge $-1 $175 $409 $407 $412 forward $109 $-1 #
coedge $-1 $293 $292 $175 $286 forward $294 $-1 #
edge $-1 $413 -20.856194599794872 $414 -2.9225173159162505 $285 $415 forward 7 unknown #
coedge $-1 $177 $176 $406 $416 reversed $69 $-1 #
coedge $-1 $282 $417 $176 $289 reversed $173 $-1 #
edge $-1 $295 -57.66411328470717 $418 57.66411328470717 $288 $419 forward 7 unknown #
coedge $-1 $420 $421 $177 $291 forward $404 $-1 #
edge $-1 $296 -57.66411328470717 $422 57.66411328470717 $290 $423 forward 7 unknown #
coedge $-1 $285 $178 $421 $424 forward $294 $-1 #
coedge $-1 $178 $285 $282 $408 forward $294 $-1 #
loop $-1 $-1 $178 $403 #
vertex $-1 $179 $425 #
vertex $-1 $424 $426 #
straight-curve $-1 57.66411328470717 -11.88935595785556 5.1020425939351934 0 -1 0 I I #
face $-1 $-1 $310 $41 $-1 $427 forward single #
loop $-1 $-1 $428 $180 #
plane-surface $-1 -57.66411328470717 0 0 1 0 0 0 0 -1 forward_v I I I I #
coedge $-1 $429 $430 $431 $432 reversed $181 $-1 #
coedge $-1 $433 $183 $185 $308 forward $113 $-1 #
coedge $-1 $183 $433 $429 $434 forward $113 $-1 #
coedge $-1 $431 $186 $183 $305 forward $310 $-1 #
edge $-1 $312 -8.8465279953283762 $435 2.4031533553306765 $304 $436 forward 7 unknown #
coedge $-1 $437 $438 $184 $307 forward $299 $-1 #
edge $-1 $439 -33.987057044583558 $311 -27.098714197308041 $306 $440 forward 7 unknown #
edge $-1 $312 -9.1271436750427899 $439 2.1388861263899031e-014 $185 $441 forward 7 unknown #
coedge $-1 $186 $431 $437 $442 forward $310 $-1 #
loop $-1 $-1 $431 $298 #
vertex $-1 $307 $443 #
vertex $-1 $187 $444 #
straight-curve $-1 -72.351715851326759 -12.068215315327226 14.576351996790471 1 0 0 I I #
coedge $-1 $314 $314 $-1 $445 reversed $190 $-1 #
edge $-1 $446 0 $446 6.2831853071796004 $191 $447 forward 7 unknown #
vertex $-1 $194 $448 #
ellipse-curve $-1 -54.670140819767731 -9.8182790451954141 11.132180573152715 -0.75470958851134928 0 0.65605901945558964 0.32802950972779482 0 0.37735479425567464 1 I I #
coedge $-1 $318 $318 $-1 $449 reversed $197 $-1 #
edge $-1 $450 0 $450 6.2831853071796004 $198 $451 forward 7 unknown #
vertex $-1 $201 $452 #
ellipse-curve $-1 -54.670140819767731 -6.4433746399976997 11.132180573152715 -0.75470958851134928 0 0.65605901945558964 0.32802950972779482 0 0.37735479425567464 1 I I #
coedge $-1 $322 $322 $-1 $453 reversed $204 $-1 #
edge $-1 $454 0 $454 6.2831853071796004 $205 $455 forward 7 unknown #
vertex $-1 $208 $456 #
ellipse-curve $-1 -54.670140819767731 -3.0684702347999817 11.132180573152715 -0.75470958851134928 0 0.65605901945558964 0.32802950972779482 0 0.37735479425567464 1 I I #
face $-1 $-1 $457 $45 $-1 $458 reversed single #
loop $-1 $-1 $215 $209 #
plane-surface $-1 0 0 14.576351996790473 0 0 1 1 0 0 forward_v I I I I #
coedge $-1 $459 $460 $461 $462 reversed $210 $-1 #
coedge $-1 $463 $212 $214 $336 forward $132 $-1 #
coedge $-1 $212 $463 $459 $464 forward $132 $-1 #
coedge $-1 $461 $215 $212 $333 forward $327 $-1 #
edge $-1 $339 3.0428279625271841 $465 14.292509313186237 $332 $466 forward 7 unknown #
coedge $-1 $467 $468 $213 $335 forward $457 $-1 #
edge $-1 $469 -33.987057044583558 $338 -27.098714197308041 $334 $470 forward 7 unknown #
edge $-1 $339 -9.1271436750427899 $469 2.1388861263899031e-014 $214 $471 forward 7 unknown #
coedge $-1 $215 $461 $467 $472 forward $327 $-1 #
vertex $-1 $216 $473 #
vertex $-1 $216 $474 #
straight-curve $-1 -72.351715851326759 11.710496600383895 14.576351996790471 1 0 0 I I #
coedge $-1 $341 $341 $-1 $475 reversed $219 $-1 #
edge $-1 $476 0 $476 6.2831853071796004 $220 $477 forward 7 unknown #
vertex $-1 $223 $478 #
ellipse-curve $-1 -54.670140819767731 13.960432870515703 11.132180573152715 -0.75470958851134928 0 0.65605901945558964 0.32802950972779482 0 0.37735479425567464 1 I I #
coedge $-1 $345 $345 $-1 $479 reversed $226 $-1 #
edge $-1 $480 0 $480 6.2831853071796004 $227 $481 forward 7 unknown #
vertex $-1 $230 $482 #
ellipse-curve $-1 -54.670140819767731 17.335337275713421 11.132180573152715 -0.75470958851134928 0 0.65605901945558964 0.32802950972779482 0 0.37735479425567464 1 I I #
coedge $-1 $349 $349 $-1 $483 reversed $233 $-1 #
edge $-1 $484 0 $484 6.2831853071796004 $234 $485 forward 7 unknown #
vertex $-1 $237 $486 #
ellipse-curve $-1 -54.670140819767731 20.710241680911139 11.132180573152715 -0.75470958851134928 0 0.65605901945558964 0.32802950972779482 0 0.37735479425567464 1 I I #
face $-1 $-1 $487 $49 $-1 $488 reversed single #
loop $-1 $-1 $244 $238 #
plane-surface $-1 0 0 14.576351996790473 0 0 1 1 0 0 forward_v I I I I #
coedge $-1 $489 $490 $491 $492 reversed $239 $-1 #
coedge $-1 $493 $241 $243 $363 forward $151 $-1 #
coedge $-1 $241 $493 $489 $494 forward $151 $-1 #
coedge $-1 $491 $244 $241 $360 forward $354 $-1 #
edge $-1 $366 -6.9319504763125472 $495 3.1980046983743371 $359 $496 forward 7 unknown #
coedge $-1 $497 $498 $242 $362 forward $487 $-1 #
edge $-1 $499 -75.062461692658331 $365 -70.982091673853205 $361 $500 forward 7 unknown #
edge $-1 $366 110.3470145871743 $499 115.3282265694144 $243 $501 forward 7 unknown #
coedge $-1 $244 $491 $497 $502 forward $354 $-1 #
vertex $-1 $362 $503 #
vertex $-1 $245 $504 #
straight-curve $-1 42.992957457322326 8.7989233652816523 14.576351996790478 -1 0 0 I I #
coedge $-1 $368 $368 $-1 $505 reversed $248 $-1 #
edge $-1 $506 0 $506 6.2831853071796004 $249 $507 forward 7 unknown #
vertex $-1 $252 $508 #
ellipse-curve $-1 56.235560404897633 1.5632410976481665 12.53616698738792 0.81915205242281985 0 0.57357642473473569 0.14339410618368392 0 -0.20478801310570496 1 I I #
coedge $-1 $372 $372 $-1 $509 reversed $255 $-1 #
edge $-1 $510 0 $510 6.2831853071796004 $256 $511 forward 7 unknown #
vertex $-1 $259 $512 #
ellipse-curve $-1 56.235560404897633 5.9046504582282608 12.53616698738792 0.81915205242281985 0 0.57357642473473569 0.14339410618368392 0 -0.20478801310570496 1 I I #
face $-1 $-1 $275 $39 $-1 $513 reversed single #
loop $-1 $-1 $392 $260 #
plane-surface $-1 0 32.745550557650432 0 0 -1 0 0 0 -1 forward_v I I I I #
coedge $-1 $514 $390 $393 $515 forward $261 $-1 #
coedge $-1 $396 $263 $264 $384 reversed $165 $-1 #
coedge $-1 $390 $514 $263 $382 reversed $261 $-1 #
edge $-1 $397 -14.576351996790473 $516 14.576351996790473 $381 $517 forward 7 unknown #
coedge $-1 $265 $264 $514 $518 forward $105 $-1 #
edge $-1 $388 -57.66411328470717 $516 57.66411328470717 $380 $519 forward 7 unknown #
coedge $-1 $393 $392 $265 $386 reversed $377 $-1 #
edge $-1 $520 -57.66411328470717 $387 57.66411328470717 $385 $521 forward 7 unknown #
vertex $-1 $267 $522 #
vertex $-1 $399 $523 #
straight-curve $-1 57.66411328470717 0 -14.576351996790473 0 -1 0 I I #
coedge $-1 $379 $381 $268 $391 reversed $261 $-1 #
edge $-1 $394 -32.745550557650432 $397 32.745550557650432 $390 $524 forward 7 unknown #
coedge $-1 $385 $269 $274 $400 forward $377 $-1 #
coedge $-1 $269 $385 $379 $515 reversed $377 $-1 #
vertex $-1 $270 $525 #
straight-curve $-1 0 32.745550557650432 14.576351996790473 -1 0 0 I I #
coedge $-1 $271 $380 $273 $399 reversed $165 $-1 #
vertex $-1 $391 $526 #
straight-curve $-1 0 -32.745550557650432 14.576351996790473 1 0 0 I I #
edge $-1 $276 -14.576351996790473 $388 14.576351996790473 $273 $527 forward 7 unknown #
edge $-1 $277 -14.576351996790473 $387 14.576351996790473 $274 $528 forward 7 unknown #
point $-1 57.66411328470717 -32.745550557650432 14.576351996790473 #
point $-1 57.66411328470717 32.745550557650432 14.576351996790473 #
face $-1 $-1 $294 $40 $-1 $529 reversed single #
loop $-1 $-1 $290 $279 #
plane-surface $-1 0 -32.745550557650432 0 0 1 0 0 0 1 forward_v I I I I #
coedge $-1 $530 $531 $287 $416 forward $280 $-1 #
coedge $-1 $417 $282 $284 $412 reversed $173 $-1 #
edge $-1 $414 -0.39625595459451635 $295 3.5334470474883011 $293 $532 forward 7 unknown #
coedge $-1 $284 $283 $533 $534 reversed $109 $-1 #
coedge $-1 $421 $420 $283 $411 forward $404 $-1 #
edge $-1 $535 -57.66411328470717 $413 57.66411328470717 $410 $536 forward 7 unknown #
edge $-1 $537 -57.66411328470717 $414 57.66411328470717 $407 $538 forward 7 unknown #
vertex $-1 $411 $539 #
vertex $-1 $286 $540 #
straight-curve $-1 57.66411328470717 -11.88935595785556 1.172339591852376 0 1 0 I I #
edge $-1 $422 -20.856194599794872 $418 -2.9225173159162505 $406 $541 forward 7 unknown #
coedge $-1 $288 $407 $530 $542 reversed $173 $-1 #
vertex $-1 $416 $543 #
straight-curve $-1 0 -14.811873273771811 5.1020425939351934 -1 0 0 I I #
coedge $-1 $410 $290 $531 $544 forward $404 $-1 #
coedge $-1 $290 $410 $292 $424 reversed $404 $-1 #
vertex $-1 $544 $545 #
straight-curve $-1 0 -32.745550557650432 5.1020425939351934 -1 0 0 I I #
edge $-1 $296 -5.1020425939351934 $413 -1.172339591852376 $292 $546 forward 7 unknown #
point $-1 57.66411328470717 -14.811873273771811 5.1020425939351934 #
point $-1 57.66411328470717 -32.745550557650432 5.1020425939351934 #
plane-surface $-1 0 0 14.576351996790473 0 0 1 1 0 0 forward_v I I I I #
coedge $-1 $438 $437 $430 $547 forward $299 $-1 #
coedge $-1 $430 $301 $303 $434 reversed $181 $-1 #
coedge $-1 $301 $429 $428 $547 reversed $181 $-1 #
coedge $-1 $309 $304 $301 $432 forward $310 $-1 #
edge $-1 $435 -20.67554749649846 $548 -14.687602566619589 $431 $549 forward 7 unknown #
coedge $-1 $303 $302 $438 $550 reversed $113 $-1 #
edge $-1 $551 -2.1388861263899031e-014 $435 9.1271436750427899 $429 $552 forward 7 unknown #
vertex $-1 $305 $553 #
straight-curve $-1 -51.676168354828299 -3.2216873199988498 14.576351996790473 0 1 0 I I #
coedge $-1 $428 $306 $309 $442 reversed $299 $-1 #
coedge $-1 $306 $428 $433 $550 forward $299 $-1 #
vertex $-1 $307 $554 #
straight-curve $-1 -57.66411328470717 -12.068215315327226 41.675066194098513 0 0 1 I I #
straight-curve $-1 -57.664113284707156 -12.068215315327226 7.6880091495149685 -0.65605901945558964 0 -0.75470958851134928 I I #
edge $-1 $548 0.8185339646681733 $311 12.068215315327226 $437 $555 forward 7 unknown #
point $-1 -57.66411328470717 -12.068215315327226 14.576351996790473 #
point $-1 -51.676168354828299 -12.068215315327226 14.576351996790475 #
edge $-1 $556 1 $556 0 $314 $-1 forward 7 unknown #
vertex $-1 $315 $557 #
ellipse-curve $-1 -53.7846059966379 -9.8182790451954141 10.362396915173388 -0.75470958851134928 0 0.65605901945558964 0.32802950972779482 0 0.37735479425567464 1 I I #
point $-1 -54.342111310039954 -9.8182790451954141 11.5095353674084 #
edge $-1 $558 1 $558 0 $318 $-1 forward 7 unknown #
vertex $-1 $319 $559 #
ellipse-curve $-1 -53.7846059966379 -6.4433746399976997 10.362396915173388 -0.75470958851134928 0 0.65605901945558964 0.32802950972779482 0 0.37735479425567464 1 I I #
point $-1 -54.342111310039954 -6.4433746399976997 11.5095353674084 #
edge $-1 $560 1 $560 0 $322 $-1 forward 7 unknown #
vertex $-1 $323 $561 #
ellipse-curve $-1 -53.7846059966379 -3.0684702347999817 10.362396915173388 -0.75470958851134928 0 0.65605901945558964 0.32802950972779482 0 0.37735479425567464 1 I I #
point $-1 -54.342111310039954 -3.0684702347999817 11.5095353674084 #
loop $-1 $-1 $334 $326 #
plane-surface $-1 -57.66411328470717 0 0 1 0 0 0 0 -1 forward_v I I I I #
coedge $-1 $460 $329 $331 $464 reversed $210 $-1 #
coedge $-1 $329 $459 $562 $563 reversed $210 $-1 #
coedge $-1 $337 $332 $329 $462 forward $327 $-1 #
edge $-1 $465 -20.67554749649846 $564 -14.687602566619589 $461 $565 forward 7 unknown #
coedge $-1 $331 $330 $468 $566 reversed $132 $-1 #
edge $-1 $567 -2.1388861263899031e-014 $465 9.1271436750427899 $459 $568 forward 7 unknown #
vertex $-1 $333 $569 #
straight-curve $-1 -51.676168354828299 8.6676686378567105 14.576351996790473 0 1 0 I I #
coedge $-1 $562 $334 $337 $472 reversed $457 $-1 #
coedge $-1 $334 $562 $463 $566 forward $457 $-1 #
vertex $-1 $335 $570 #
straight-curve $-1 -57.66411328470717 11.710496600383895 41.675066194098513 0 0 1 I I #
straight-curve $-1 -57.664113284707156 11.710496600383895 7.6880091495149685 -0.65605901945558964 0 -0.75470958851134928 I I #
edge $-1 $564 -22.960177951042947 $338 -11.710496600383895 $467 $571 forward 7 unknown #
point $-1 -57.66411328470717 11.710496600383895 14.576351996790473 #
point $-1 -51.676168354828299 11.710496600383895 14.576351996790475 #
edge $-1 $572 1 $572 0 $341 $-1 forward 7 unknown #
vertex $-1 $342 $573 #
ellipse-curve $-1 -53.7846059966379 13.960432870515703 10.362396915173388 -0.75470958851134928 0 0.65605901945558964 0.32802950972779482 0 0.37735479425567464 1 I I #
point $-1 -54.342111310039954 13.960432870515703 11.5095353674084 #
edge $-1 $574 1 $574 0 $345 $-1 forward 7 unknown #
vertex $-1 $346 $575 #
ellipse-curve $-1 -53.7846059966379 17.335337275713421 10.362396915173388 -0.75470958851134928 0 0.65605901945558964 0.32802950972779482 0 0.37735479425567464 1 I I #
point $-1 -54.342111310039954 17.335337275713421 11.5095353674084 #
edge $-1 $576 1 $576 0 $349 $-1 forward 7 unknown #
vertex $-1 $350 $577 #
ellipse-curve $-1 -53.7846059966379 20.710241680911139 10.362396915173388 -0.75470958851134928 0 0.65605901945558964 0.32802950972779482 0 0.37735479425567464 1 I I #
point $-1 -54.342111310039954 20.710241680911139 11.5095353674084 #
loop $-1 $-1 $361 $353 #
plane-surface $-1 57.66411328470717 0 0 -1 0 0 0 0 1 forward_v I I I I #
coedge $-1 $490 $356 $358 $494 reversed $239 $-1 #
coedge $-1 $356 $489 $578 $579 reversed $239 $-1 #
coedge $-1 $364 $359 $356 $492 forward $354 $-1 #
edge $-1 $495 11.814050067765741 $580 14.671155827384844 $491 $581 forward 7 unknown #
coedge $-1 $358 $357 $498 $582 reversed $151 $-1 #
edge $-1 $583 -115.3282265694144 $495 -110.3470145871743 $489 $584 forward 7 unknown #
vertex $-1 $360 $585 #
straight-curve $-1 54.807007525088068 1.8669728889691051 14.576351996790471 0 -1 0 I I #
coedge $-1 $578 $361 $364 $502 reversed $487 $-1 #
coedge $-1 $361 $578 $493 $582 forward $487 $-1 #
vertex $-1 $362 $586 #
straight-curve $-1 57.66411328470717 8.7989233652816523 85.558443670643683 0 0 1 I I #
straight-curve $-1 -8.4854385819750888 8.7989233652816523 104.96733547460514 0.57357642473473569 0 -0.81915205242281985 I I #
edge $-1 $580 -1.331031809405232 $365 8.7989233652816523 $497 $587 forward 7 unknown #
point $-1 57.66411328470717 8.7989233652816523 14.576351996790473 #
point $-1 54.807007525088068 8.7989233652816523 14.576351996790478 #
edge $-1 $588 1 $588 0 $368 $-1 forward 7 unknown #
vertex $-1 $369 $589 #
ellipse-curve $-1 55.416408352474811 1.5632410976481665 11.962590562653185 0.81915205242281985 0 0.57357642473473569 0.14339410618368392 0 -0.20478801310570496 1 I I #
point $-1 56.378954511081318 1.5632410976481665 12.331378974282215 #
edge $-1 $590 1 $590 0 $372 $-1 forward 7 unknown #
vertex $-1 $373 $591 #
ellipse-curve $-1 55.416408352474811 5.9046504582282608 11.962590562653185 0.81915205242281985 0 0.57357642473473569 0.14339410618368392 0 -0.20478801310570496 1 I I #
point $-1 56.378954511081318 5.9046504582282608 12.331378974282215 #
plane-surface $-1 57.66411328470717 0 0 -1 0 0 0 0 1 forward_v I I I I #
coedge $-1 $381 $379 $383 $518 reversed $261 $-1 #
edge $-1 $394 -14.576351996790473 $520 14.576351996790473 $393 $592 forward 7 unknown #
vertex $-1 $518 $593 #
straight-curve $-1 -57.66411328470717 -32.745550557650432 0 0 0 -1 I I #
edge $-1 $516 -32.745550557650432 $520 32.745550557650432 $514 $594 forward 7 unknown #
straight-curve $-1 0 -32.745550557650432 -14.576351996790473 -1 0 0 I I #
vertex $-1 $386 $595 #
straight-curve $-1 0 32.745550557650432 -14.576351996790473 1 0 0 I I #
point $-1 57.66411328470717 32.745550557650432 -14.576351996790473 #
point $-1 57.66411328470717 -32.745550557650432 -14.576351996790473 #
straight-curve $-1 -57.66411328470717 0 14.576351996790473 0 -1 0 I I #
point $-1 -57.66411328470717 32.745550557650432 14.576351996790473 #
point $-1 -57.66411328470717 -32.745550557650432 14.576351996790473 #
straight-curve $-1 57.66411328470717 -32.745550557650432 0 0 0 -1 I I #
straight-curve $-1 57.66411328470717 32.745550557650432 0 0 0 -1 I I #
plane-surface $-1 57.66411328470717 0 0 -1 0 0 0 0 1 forward_v I I I I #
coedge $-1 $533 $406 $417 $542 forward $280 $-1 #
coedge $-1 $406 $533 $420 $544 reversed $280 $-1 #
straight-curve $-1 57.66411328470717 -14.811873273771811 1.5685955464468924 0 0 1 I I #
coedge $-1 $531 $530 $409 $534 forward $280 $-1 #
edge $-1 $537 2.9225173159162505 $535 20.856194599794872 $533 $596 forward 7 unknown #
vertex $-1 $411 $597 #
straight-curve $-1 0 -32.745550557650432 1.172339591852376 1 0 0 I I #
vertex $-1 $534 $598 #
straight-curve $-1 0 -14.811873273771811 1.172339591852376 1 0 0 I I #
point $-1 57.66411328470717 -32.745550557650432 1.172339591852376 #
point $-1 57.66411328470717 -14.811873273771811 1.172339591852376 #
straight-curve $-1 -57.66411328470717 -11.88935595785556 5.1020425939351934 0 1 0 I I #
edge $-1 $418 -3.5334470474883011 $537 0.39625595459451635 $530 $599 forward 7 unknown #
point $-1 -57.66411328470717 -14.811873273771811 5.1020425939351934 #
edge $-1 $422 -5.1020425939351934 $535 -1.172339591852376 $531 $600 forward 7 unknown #
point $-1 -57.66411328470717 -32.745550557650432 5.1020425939351934 #
straight-curve $-1 57.66411328470717 -32.745550557650432 0 0 0 -1 I I #
edge $-1 $548 27.098714197308041 $551 33.987057044583558 $428 $601 forward 7 unknown #
vertex $-1 $442 $602 #
straight-curve $-1 -72.351715851326759 -0.8185339646681733 14.576351996790471 -1 0 0 I I #
edge $-1 $551 -2.4031533553306765 $439 8.8465279953283762 $438 $603 forward 7 unknown #
vertex $-1 $550 $604 #
straight-curve $-1 -57.664113284707156 -0.8185339646681733 7.6880091495149685 0.65605901945558964 0 0.75470958851134928 I I #
point $-1 -51.676168354828299 -0.8185339646681733 14.576351996790475 #
point $-1 -57.66411328470717 -12.068215315327226 7.6880091495149525 #
straight-curve $-1 -57.66411328470717 0 14.576351996790473 0 -1 0 I I #
vertex $-1 $445 $605 #
point $-1 -53.456576486910102 -9.8182790451954141 10.739751709429063 #
vertex $-1 $449 $606 #
point $-1 -53.456576486910102 -6.4433746399976997 10.739751709429063 #
vertex $-1 $453 $607 #
point $-1 -53.456576486910102 -3.0684702347999817 10.739751709429063 #
coedge $-1 $468 $467 $460 $563 forward $457 $-1 #
edge $-1 $564 27.098714197308041 $567 33.987057044583558 $562 $608 forward 7 unknown #
vertex $-1 $472 $609 #
straight-curve $-1 -72.351715851326759 22.960177951042947 14.576351996790471 -1 0 0 I I #
edge $-1 $567 -14.292509313186237 $469 -3.0428279625271841 $468 $610 forward 7 unknown #
vertex $-1 $566 $611 #
straight-curve $-1 -57.664113284707156 22.960177951042947 7.6880091495149685 0.65605901945558964 0 0.75470958851134928 I I #
point $-1 -51.676168354828299 22.960177951042947 14.576351996790475 #
point $-1 -57.66411328470717 11.710496600383895 7.6880091495149525 #
straight-curve $-1 -57.66411328470717 0 14.576351996790473 0 -1 0 I I #
vertex $-1 $475 $612 #
point $-1 -53.456576486910102 13.960432870515703 10.739751709429063 #
vertex $-1 $479 $613 #
point $-1 -53.456576486910102 17.335337275713421 10.739751709429063 #
vertex $-1 $483 $614 #
point $-1 -53.456576486910102 20.710241680911139 10.739751709429063 #
coedge $-1 $498 $497 $490 $579 forward $487 $-1 #
edge $-1 $580 70.982091673853205 $583 75.062461692658331 $578 $615 forward 7 unknown #
vertex $-1 $502 $616 #
straight-curve $-1 42.992957457322326 -1.331031809405232 14.576351996790478 1 0 0 I I #
edge $-1 $583 -3.1980046983743371 $499 6.9319504763125472 $498 $617 forward 7 unknown #
vertex $-1 $582 $618 #
straight-curve $-1 -8.4854385819750888 -1.331031809405232 104.96733547460514 -0.57357642473473569 0 0.81915205242281985 I I #
point $-1 54.807007525088068 -1.331031809405232 14.576351996790478 #
point $-1 57.66411328470717 8.7989233652816523 10.495981977985352 #
straight-curve $-1 57.66411328470717 0 14.576351996790473 0 1 0 I I #
vertex $-1 $505 $619 #
point $-1 55.559802458658496 1.5632410976481665 11.757802549547479 #
vertex $-1 $509 $620 #
point $-1 55.559802458658496 5.9046504582282608 11.757802549547479 #
straight-curve $-1 -57.66411328470717 32.745550557650432 0 0 0 -1 I I #
point $-1 -57.66411328470717 -32.745550557650432 -14.576351996790473 #
straight-curve $-1 -57.66411328470717 0 -14.576351996790473 0 1 0 I I #
point $-1 -57.66411328470717 32.745550557650432 -14.576351996790473 #
straight-curve $-1 -57.66411328470717 -11.88935595785556 1.172339591852376 0 -1 0 I I #
point $-1 -57.66411328470717 -32.745550557650432 1.172339591852376 #
point $-1 -57.66411328470717 -14.811873273771811 1.172339591852376 #
straight-curve $-1 -57.66411328470717 -14.811873273771811 1.5685955464468924 0 0 -1 I I #
straight-curve $-1 -57.66411328470717 -32.745550557650432 0 0 0 -1 I I #
straight-curve $-1 -57.66411328470717 -0.8185339646681733 41.675066194098513 0 0 -1 I I #
point $-1 -57.66411328470717 -0.8185339646681733 14.576351996790473 #
straight-curve $-1 -57.66411328470717 -3.2216873199988498 7.6880091495149516 0 -1 0 I I #
point $-1 -57.66411328470717 -0.8185339646681733 7.6880091495149525 #
point $-1 -53.40725120238222 -9.8182790451954141 10.034367405445593 #
point $-1 -53.40725120238222 -6.4433746399976997 10.034367405445593 #
point $-1 -53.40725120238222 -3.0684702347999817 10.034367405445593 #
straight-curve $-1 -57.66411328470717 22.960177951042947 41.675066194098513 0 0 -1 I I #
point $-1 -57.66411328470717 22.960177951042947 14.576351996790473 #
straight-curve $-1 -57.66411328470717 8.6676686378567105 7.6880091495149516 0 -1 0 I I #
point $-1 -57.66411328470717 22.960177951042947 7.6880091495149525 #
point $-1 -53.40725120238222 13.960432870515703 10.034367405445593 #
point $-1 -53.40725120238222 17.335337275713421 10.034367405445593 #
point $-1 -53.40725120238222 20.710241680911139 10.034367405445593 #
straight-curve $-1 57.66411328470717 -1.331031809405232 85.558443670643683 0 0 -1 I I #
point $-1 57.66411328470717 -1.331031809405232 14.576351996790473 #
straight-curve $-1 57.66411328470717 1.8669728889691051 10.495981977985352 0 1 0 I I #
point $-1 57.66411328470717 -1.331031809405232 10.495981977985352 #
point $-1 55.211620339369112 1.5632410976481665 11.8191964564695 #
point $-1 55.211620339369112 5.9046504582282608 11.8191964564695 #
End-of-ACIS-data 