500 0 2 0           
7 Unknown 11 ACIS 5.0 NT 24 Fri Mar 26 20:45:13 1999 
-1 9.9999999999999995e-007 1e-010 
body $-1 $2 $-1 $3 #
body $-1 $4 $-1 $5 #
lump $-1 $-1 $6 $0 #
transform $-1 1 0 0 0 1 0 0 0 1 68.449354533524584 36.536333986229991 7.8491735423647997 1 rotate no_reflect no_shear #
lump $-1 $-1 $7 $1 #
transform $-1 1 0 0 0 1 0 0 0 1 68.449354533524584 36.536333986229991 7.8491735423647997 1 rotate no_reflect no_shear #
shell $-1 $-1 $-1 $8 $-1 $2 #
shell $-1 $-1 $-1 $9 $-1 $4 #
face $-1 $10 $11 $6 $-1 $12 forward single #
face $-1 $13 $14 $7 $-1 $15 forward single #
face $-1 $16 $17 $6 $-1 $18 reversed single #
loop $-1 $-1 $19 $8 #
plane-surface $-1 0 0 7.8491735423647997 0 0 1 1 0 0 forward_v I I I I #
face $-1 $20 $21 $7 $-1 $22 forward single #
loop $-1 $-1 $23 $9 #
plane-surface $-1 -68.449354533524584 0 0 1 0 0 0 0 -1 forward_v I I I I #
face $-1 $24 $25 $6 $-1 $26 reversed single #
loop $-1 $-1 $27 $10 #
plane-surface $-1 0 0 -7.8491735423647997 0 0 1 1 0 0 forward_v I I I I #
coedge $-1 $28 $29 $30 $31 forward $11 $-1 #
face $-1 $32 $33 $7 $-1 $34 reversed single #
loop $-1 $-1 $35 $13 #
plane-surface $-1 0 0 7.8491735423647997 0 0 1 1 0 0 forward_v I I I I #
coedge $-1 $36 $37 $38 $39 forward $14 $-1 #
face $-1 $40 $41 $6 $-1 $42 reversed single #
loop $-1 $-1 $43 $16 #
plane-surface $-1 0 -36.536333986229991 0 0 1 0 0 0 1 forward_v I I I I #
coedge $-1 $44 $45 $46 $47 forward $17 $-1 #
coedge $-1 $48 $19 $49 $50 forward $11 $-1 #
coedge $-1 $19 $48 $51 $52 forward $11 $-1 #
coedge $-1 $53 $54 $19 $31 reversed $55 $-1 #
edge $-1 $56 -36.536333986229991 $57 36.536333986229991 $30 $58 forward 7 unknown #
face $-1 $59 $60 $7 $-1 $61 reversed single #
loop $-1 $-1 $62 $20 #
plane-surface $-1 -75.743128441855603 -34.887808719919363 0 1 0 0 0 0 -1 forward_v I I I I #
coedge $-1 $63 $64 $36 $65 forward $21 $-1 #
coedge $-1 $66 $23 $35 $65 reversed $14 $-1 #
coedge $-1 $23 $66 $67 $68 reversed $14 $-1 #
coedge $-1 $69 $70 $23 $39 reversed $60 $-1 #
edge $-1 $71 -7.8491735423647997 $72 7.8491735423647997 $38 $73 forward 7 unknown #
face $-1 $74 $75 $6 $-1 $76 reversed single #
loop $-1 $-1 $77 $24 #
plane-surface $-1 -68.449354533524584 0 0 1 0 0 0 0 -1 forward_v I I I I #
coedge $-1 $78 $51 $79 $80 forward $25 $-1 #
coedge $-1 $81 $27 $78 $82 forward $17 $-1 #
coedge $-1 $27 $81 $83 $84 forward $17 $-1 #
coedge $-1 $54 $53 $27 $47 reversed $55 $-1 #
edge $-1 $85 -36.536333986229991 $86 36.536333986229991 $46 $87 forward 7 unknown #
coedge $-1 $29 $28 $77 $88 forward $11 $-1 #
coedge $-1 $89 $90 $28 $50 reversed $75 $-1 #
edge $-1 $57 -68.449354533524584 $91 68.449354533524584 $49 $92 forward 7 unknown #
coedge $-1 $43 $93 $29 $52 reversed $25 $-1 #
edge $-1 $94 -68.449354533524584 $56 68.449354533524584 $51 $95 forward 7 unknown #
coedge $-1 $46 $30 $93 $96 forward $55 $-1 #
coedge $-1 $30 $46 $89 $97 reversed $55 $-1 #
loop $-1 $-1 $53 $74 #
vertex $-1 $31 $98 #
vertex $-1 $31 $99 #
straight-curve $-1 68.449354533524584 0 7.8491735423647997 0 1 0 I I #
face $-1 $100 $101 $7 $-1 $102 reversed single #
loop $-1 $-1 $38 $32 #
plane-surface $-1 -72.096241487690094 -33.239283453608735 0 0 -1 0 0 0 -1 forward_v I I I I #
coedge $-1 $103 $104 $105 $106 forward $33 $-1 #
coedge $-1 $107 $35 $70 $108 forward $21 $-1 #
coedge $-1 $35 $107 $109 $110 forward $21 $-1 #
edge $-1 $111 -36.536333986229991 $72 -33.239283453608735 $35 $112 forward 7 unknown #
coedge $-1 $37 $36 $113 $114 reversed $14 $-1 #
coedge $-1 $115 $116 $37 $68 forward $101 $-1 #
edge $-1 $71 33.239283453608735 $117 36.536333986229991 $67 $118 forward 7 unknown #
coedge $-1 $105 $38 $116 $119 reversed $60 $-1 #
coedge $-1 $38 $105 $63 $108 reversed $60 $-1 #
vertex $-1 $68 $120 #
vertex $-1 $108 $121 #
straight-curve $-1 -68.449354533524584 -33.239283453608735 0 0 0 1 I I #
face $-1 $-1 $55 $6 $-1 $122 reversed single #
loop $-1 $-1 $89 $40 #
plane-surface $-1 0 36.536333986229991 0 0 -1 0 0 0 -1 forward_v I I I I #
coedge $-1 $123 $79 $48 $88 reversed $41 $-1 #
coedge $-1 $93 $43 $44 $82 reversed $25 $-1 #
coedge $-1 $77 $124 $43 $80 reversed $41 $-1 #
edge $-1 $94 -7.8491735423647997 $125 7.8491735423647997 $79 $126 forward 7 unknown #
coedge $-1 $45 $44 $124 $127 forward $17 $-1 #
edge $-1 $86 -68.449354533524584 $125 68.449354533524584 $78 $128 forward 7 unknown #
coedge $-1 $90 $89 $45 $84 reversed $75 $-1 #
edge $-1 $129 -68.449354533524584 $85 68.449354533524584 $83 $130 forward 7 unknown #
vertex $-1 $47 $131 #
vertex $-1 $96 $132 #
straight-curve $-1 68.449354533524584 0 -7.8491735423647997 0 -1 0 I I #
edge $-1 $91 -36.536333986229991 $94 36.536333986229991 $77 $133 forward 7 unknown #
coedge $-1 $83 $49 $54 $97 forward $75 $-1 #
coedge $-1 $49 $83 $123 $134 reversed $75 $-1 #
vertex $-1 $50 $135 #
straight-curve $-1 0 36.536333986229991 7.8491735423647997 -1 0 0 I I #
coedge $-1 $51 $78 $53 $96 reversed $25 $-1 #
vertex $-1 $88 $136 #
straight-curve $-1 0 -36.536333986229991 7.8491735423647997 1 0 0 I I #
edge $-1 $56 -7.8491735423647997 $86 7.8491735423647997 $53 $137 forward 7 unknown #
edge $-1 $57 -7.8491735423647997 $85 7.8491735423647997 $54 $138 forward 7 unknown #
point $-1 68.449354533524584 -36.536333986229991 7.8491735423647997 #
point $-1 68.449354533524584 36.536333986229991 7.8491735423647997 #
face $-1 $-1 $139 $7 $-1 $140 reversed single #
loop $-1 $-1 $67 $59 #
plane-surface $-1 0 0 -7.8491735423647997 0 0 1 1 0 0 forward_v I I I I #
coedge $-1 $141 $62 $142 $143 reversed $33 $-1 #
coedge $-1 $62 $141 $107 $144 reversed $33 $-1 #
coedge $-1 $70 $69 $62 $106 reversed $60 $-1 #
edge $-1 $145 -7.8491735423647997 $146 7.8491735423647997 $105 $147 forward 7 unknown #
coedge $-1 $64 $63 $104 $144 forward $21 $-1 #
edge $-1 $72 -3.6468869541655096 $145 3.6468869541655096 $70 $148 forward 7 unknown #
coedge $-1 $149 $113 $64 $110 reversed $139 $-1 #
edge $-1 $150 -75.743128441855603 $111 -68.449354533524584 $109 $151 forward 7 unknown #
vertex $-1 $114 $152 #
straight-curve $-1 -68.449354533524584 0 7.8491735423647997 0 1 0 I I #
coedge $-1 $109 $153 $66 $114 forward $139 $-1 #
edge $-1 $117 -7.8491735423647997 $111 7.8491735423647997 $113 $154 forward 7 unknown #
coedge $-1 $142 $67 $153 $155 forward $101 $-1 #
coedge $-1 $67 $142 $69 $119 forward $101 $-1 #
vertex $-1 $155 $156 #
straight-curve $-1 -68.449354533524584 0 -7.8491735423647997 0 -1 0 I I #
edge $-1 $146 -3.6468869541655096 $71 3.6468869541655096 $69 $157 forward 7 unknown #
point $-1 -68.449354533524584 -33.239283453608735 -7.8491735423647997 #
point $-1 -68.449354533524584 -33.239283453608735 7.8491735423647997 #
plane-surface $-1 68.449354533524584 0 0 -1 0 0 0 0 1 forward_v I I I I #
coedge $-1 $124 $77 $90 $134 forward $41 $-1 #
coedge $-1 $79 $123 $81 $127 reversed $41 $-1 #
vertex $-1 $127 $158 #
straight-curve $-1 -68.449354533524584 -36.536333986229991 0 0 0 -1 I I #
edge $-1 $125 -36.536333986229991 $129 36.536333986229991 $124 $159 forward 7 unknown #
straight-curve $-1 0 -36.536333986229991 -7.8491735423647997 -1 0 0 I I #
vertex $-1 $84 $160 #
straight-curve $-1 0 36.536333986229991 -7.8491735423647997 1 0 0 I I #
point $-1 68.449354533524584 36.536333986229991 -7.8491735423647997 #
point $-1 68.449354533524584 -36.536333986229991 -7.8491735423647997 #
straight-curve $-1 -68.449354533524584 0 7.8491735423647997 0 -1 0 I I #
edge $-1 $91 -7.8491735423647997 $129 7.8491735423647997 $90 $161 forward 7 unknown #
point $-1 -68.449354533524584 36.536333986229991 7.8491735423647997 #
point $-1 -68.449354533524584 -36.536333986229991 7.8491735423647997 #
straight-curve $-1 68.449354533524584 -36.536333986229991 0 0 0 -1 I I #
straight-curve $-1 68.449354533524584 36.536333986229991 0 0 0 -1 I I #
loop $-1 $-1 $113 $100 #
plane-surface $-1 0 -36.536333986229991 0 0 1 0 0 0 1 forward_v I I I I #
coedge $-1 $104 $103 $149 $162 reversed $33 $-1 #
coedge $-1 $116 $115 $103 $143 forward $101 $-1 #
edge $-1 $163 -1.648525266310628 $146 1.648525266310628 $103 $164 forward 7 unknown #
edge $-1 $145 -1.648525266310628 $150 1.648525266310628 $104 $165 forward 7 unknown #
vertex $-1 $108 $166 #
vertex $-1 $119 $167 #
straight-curve $-1 -75.743128441855603 -33.239283453608735 0 0 0 -1 I I #
straight-curve $-1 -72.096241487690094 -33.239283453608735 7.8491735423647997 -1 0 0 I I #
coedge $-1 $153 $109 $141 $162 forward $139 $-1 #
vertex $-1 $144 $168 #
straight-curve $-1 0 -36.536333986229991 7.8491735423647997 1 0 0 I I #
point $-1 -68.449354533524584 -36.536333986229991 7.8491735423647997 #
coedge $-1 $113 $149 $115 $155 reversed $139 $-1 #
straight-curve $-1 -68.449354533524584 -36.536333986229991 0 0 0 1 I I #
edge $-1 $117 -3.6468869541655096 $163 3.6468869541655096 $153 $169 forward 7 unknown #
point $-1 -68.449354533524584 -36.536333986229991 -7.8491735423647997 #
straight-curve $-1 -72.096241487690094 -33.239283453608735 -7.8491735423647997 1 0 0 I I #
point $-1 -68.449354533524584 -36.536333986229991 -7.8491735423647997 #
straight-curve $-1 -68.449354533524584 0 -7.8491735423647997 0 1 0 I I #
point $-1 -68.449354533524584 36.536333986229991 -7.8491735423647997 #
straight-curve $-1 -68.449354533524584 36.536333986229991 0 0 0 -1 I I #
edge $-1 $150 -7.8491735423647997 $163 7.8491735423647997 $141 $170 forward 7 unknown #
vertex $-1 $143 $171 #
straight-curve $-1 -75.743128441855603 -34.887808719919363 -7.8491735423647997 0 1 0 I I #
straight-curve $-1 -75.743128441855603 -34.887808719919363 7.8491735423647997 0 -1 0 I I #
point $-1 -75.743128441855603 -33.239283453608735 7.8491735423647997 #
point $-1 -75.743128441855603 -33.239283453608735 -7.8491735423647997 #
point $-1 -75.743128441855603 -36.536333986229991 7.8491735423647997 #
straight-curve $-1 -72.096241487690094 -36.536333986229991 -7.8491735423647997 -1 0 0 I I #
straight-curve $-1 -75.743128441855603 -36.536333986229991 0 0 0 -1 I I #
point $-1 -75.743128441855603 -36.536333986229991 -7.8491735423647997 #
End-of-ACIS-data 