500 0 10 0           
7 Unknown 11 ACIS 5.0 NT 24 Thu Mar 25 22:21:10 1999 
-1 9.9999999999999995e-007 1e-010 
body $-1 $10 $-1 $11 #
body $-1 $12 $-1 $13 #
body $-1 $14 $-1 $15 #
body $-1 $16 $-1 $17 #
body $-1 $18 $-1 $19 #
body $-1 $20 $-1 $21 #
body $-1 $22 $-1 $23 #
body $-1 $24 $-1 $25 #
body $-1 $26 $-1 $27 #
body $-1 $28 $-1 $29 #
lump $-1 $-1 $30 $0 #
transform $-1 1 0 0 0 1 0 0 0 1 75.045014801477095 43.293051524210384 18.768866341965104 1 rotate no_reflect no_shear #
lump $-1 $-1 $31 $1 #
transform $-1 1 0 0 0 1 0 0 0 1 75.045014801477095 43.293051524210384 18.768866341965104 1 rotate no_reflect no_shear #
lump $-1 $-1 $32 $2 #
transform $-1 1 0 0 0 1 0 0 0 1 75.045014801477095 43.293051524210384 18.768866341965104 1 rotate no_reflect no_shear #
lump $-1 $-1 $33 $3 #
transform $-1 1 0 0 0 1 0 0 0 1 75.045014801477095 43.293051524210384 18.768866341965104 1 rotate no_reflect no_shear #
lump $-1 $-1 $34 $4 #
transform $-1 1 0 0 0 1 0 0 0 1 75.045014801477095 43.293051524210384 18.768866341965104 1 rotate no_reflect no_shear #
lump $-1 $-1 $35 $5 #
transform $-1 1 0 0 0 1 0 0 0 1 75.045014801477095 43.293051524210384 18.768866341965104 1 rotate no_reflect no_shear #
lump $-1 $-1 $36 $6 #
transform $-1 1 0 0 0 1 0 0 0 1 75.045014801477095 43.293051524210384 18.768866341965104 1 rotate no_reflect no_shear #
lump $-1 $-1 $37 $7 #
transform $-1 1 0 0 0 1 0 0 0 1 75.045014801477095 43.293051524210384 18.768866341965104 1 rotate no_reflect no_shear #
lump $-1 $-1 $38 $8 #
transform $-1 1 0 0 0 1 0 0 0 1 75.045014801477095 43.293051524210384 18.768866341965104 1 rotate no_reflect no_shear #
lump $-1 $-1 $39 $9 #
transform $-1 1 0 0 0 1 0 0 0 1 75.045014801477095 43.293051524210384 18.768866341965104 1 rotate no_reflect no_shear #
shell $-1 $-1 $-1 $40 $-1 $10 #
shell $-1 $-1 $-1 $41 $-1 $12 #
shell $-1 $-1 $-1 $42 $-1 $14 #
shell $-1 $-1 $-1 $43 $-1 $16 #
shell $-1 $-1 $-1 $44 $-1 $18 #
shell $-1 $-1 $-1 $45 $-1 $20 #
shell $-1 $-1 $-1 $46 $-1 $22 #
shell $-1 $-1 $-1 $47 $-1 $24 #
shell $-1 $-1 $-1 $48 $-1 $26 #
shell $-1 $-1 $-1 $49 $-1 $28 #
face $-1 $50 $51 $30 $-1 $52 forward single #
face $-1 $53 $54 $31 $-1 $55 reversed single #
face $-1 $56 $57 $32 $-1 $58 reversed single #
face $-1 $59 $60 $33 $-1 $61 forward single #
face $-1 $62 $63 $34 $-1 $64 forward single #
face $-1 $65 $66 $35 $-1 $67 forward single #
face $-1 $68 $69 $36 $-1 $70 reversed single #
face $-1 $71 $72 $37 $-1 $73 forward single #
face $-1 $74 $75 $38 $-1 $76 forward single #
face $-1 $77 $78 $39 $-1 $79 forward single #
face $-1 $80 $81 $30 $-1 $82 reversed single #
loop $-1 $-1 $83 $40 #
plane-surface $-1 0 0 18.768866341965104 0 0 1 1 0 0 forward_v I I I I #
face $-1 $84 $85 $31 $-1 $86 reversed single #
loop $-1 $-1 $87 $41 #
plane-surface $-1 0 -33.027386082921637 11.849354052643319 0 0 1 1 0 0 forward_v I I I I #
face $-1 $88 $89 $32 $-1 $90 reversed single #
loop $-1 $-1 $91 $42 #
plane-surface $-1 129.98178166269534 -2.4494238928478183 214.91776537035452 0 -1 0 -0.86602541151947299 0 -0.49999998660252726 forward_v I I I I #
face $-1 $92 $93 $33 $-1 $94 forward single #
loop $-1 $95 $96 $43 #
cone-surface $-1 71.612092215348554 -13.367098232756081 13.827569723131452 -0.86602541151947299 0 -0.49999998660252726 0.49999998660252726 0 -0.86602541151947299 1 I I 0 1 1 forward I I I I #
face $-1 $97 $98 $34 $-1 $99 forward single #
loop $-1 $100 $101 $44 #
cone-surface $-1 71.612092215348554 -9.2729703552904823 13.827569723131452 -0.86602541151947299 0 -0.49999998660252726 0.49999998660252726 0 -0.86602541151947299 1 I I 0 1 1 forward I I I I #
face $-1 $102 $103 $35 $-1 $104 forward single #
loop $-1 $105 $106 $45 #
cone-surface $-1 71.612092215348554 -5.1788424778248867 13.827569723131452 -0.86602541151947299 0 -0.49999998660252726 0.49999998660252726 0 -0.86602541151947299 1 I I 0 1 1 forward I I I I #
face $-1 $107 $108 $36 $-1 $109 reversed single #
loop $-1 $-1 $110 $46 #
plane-surface $-1 129.98178166269534 36.627847700310639 214.91776537035452 0 -1 0 -0.86602541151947299 0 -0.49999998660252726 forward_v I I I I #
face $-1 $111 $112 $37 $-1 $113 forward single #
loop $-1 $114 $115 $47 #
cone-surface $-1 71.612092215348554 25.710173360402379 13.827569723131452 -0.86602541151947299 0 -0.49999998660252726 0.49999998660252726 0 -0.86602541151947299 1 I I 0 1 1 forward I I I I #
face $-1 $116 $117 $38 $-1 $118 forward single #
loop $-1 $119 $120 $48 #
cone-surface $-1 71.612092215348554 29.804301237867975 13.827569723131452 -0.86602541151947299 0 -0.49999998660252726 0.49999998660252726 0 -0.86602541151947299 1 I I 0 1 1 forward I I I I #
face $-1 $121 $122 $39 $-1 $123 forward single #
loop $-1 $124 $125 $49 #
cone-surface $-1 71.612092215348554 33.89842911533357 13.827569723131452 -0.86602541151947299 0 -0.49999998660252726 0.49999998660252726 0 -0.86602541151947299 1 I I 0 1 1 forward I I I I #
face $-1 $126 $127 $30 $-1 $128 reversed single #
loop $-1 $-1 $129 $50 #
plane-surface $-1 0 0 -18.768866341965104 0 0 1 1 0 0 forward_v I I I I #
coedge $-1 $130 $131 $132 $133 forward $51 $-1 #
face $-1 $134 $135 $31 $-1 $136 reversed single #
loop $-1 $-1 $137 $53 #
plane-surface $-1 0 -22.761720641632891 15.309110197304211 0 -1 0 0 0 -1 forward_v I I I I #
coedge $-1 $138 $139 $140 $141 reversed $54 $-1 #
face $-1 $142 $143 $32 $-1 $144 reversed single #
loop $-1 $-1 $145 $56 #
plane-surface $-1 2.0108270462060318e-006 -9.2729703552904823 139.8727525797045 0.86602541151947299 0 0.49999998660252726 0.49999998660252726 0 -0.86602541151947299 forward_v I I I I #
coedge $-1 $146 $147 $148 $149 reversed $57 $-1 #
face $-1 $-1 $150 $33 $-1 $151 forward single #
loop $-1 $152 $153 $59 #
cone-surface $-1 70.308983908141244 -13.367098232756081 13.075219818060976 -0.86602541151947299 0 -0.49999998660252726 0.24999999330126363 0 -0.43301270575973649 1 I I -0.70710678118654746 0.70710678118654746 0.5 forward I I I I #
loop $-1 $-1 $154 $43 #
coedge $-1 $96 $96 $155 $156 reversed $60 $-1 #
face $-1 $-1 $157 $34 $-1 $158 forward single #
loop $-1 $159 $160 $62 #
cone-surface $-1 70.308983908141244 -9.2729703552904823 13.075219818060976 -0.86602541151947299 0 -0.49999998660252726 0.24999999330126363 0 -0.43301270575973649 1 I I -0.70710678118654746 0.70710678118654746 0.5 forward I I I I #
loop $-1 $-1 $161 $44 #
coedge $-1 $101 $101 $162 $163 reversed $63 $-1 #
face $-1 $-1 $164 $35 $-1 $165 forward single #
loop $-1 $166 $167 $65 #
cone-surface $-1 70.308983908141244 -5.1788424778248867 13.075219818060976 -0.86602541151947299 0 -0.49999998660252726 0.24999999330126363 0 -0.43301270575973649 1 I I -0.70710678118654746 0.70710678118654746 0.5 forward I I I I #
loop $-1 $-1 $168 $45 #
coedge $-1 $106 $106 $169 $170 reversed $66 $-1 #
face $-1 $171 $172 $36 $-1 $173 reversed single #
loop $-1 $-1 $174 $68 #
plane-surface $-1 2.0108270462060318e-006 29.804301237867975 139.8727525797045 0.86602541151947299 0 0.49999998660252726 0.49999998660252726 0 -0.86602541151947299 forward_v I I I I #
coedge $-1 $175 $176 $177 $178 reversed $69 $-1 #
face $-1 $-1 $179 $37 $-1 $180 forward single #
loop $-1 $181 $182 $71 #
cone-surface $-1 70.308983908141244 25.710173360402379 13.075219818060976 -0.86602541151947299 0 -0.49999998660252726 0.24999999330126363 0 -0.43301270575973649 1 I I -0.70710678118654746 0.70710678118654746 0.5 forward I I I I #
loop $-1 $-1 $183 $47 #
coedge $-1 $115 $115 $184 $185 reversed $72 $-1 #
face $-1 $-1 $186 $38 $-1 $187 forward single #
loop $-1 $188 $189 $74 #
cone-surface $-1 70.308983908141244 29.804301237867975 13.075219818060976 -0.86602541151947299 0 -0.49999998660252726 0.24999999330126363 0 -0.43301270575973649 1 I I -0.70710678118654746 0.70710678118654746 0.5 forward I I I I #
loop $-1 $-1 $190 $48 #
coedge $-1 $120 $120 $191 $192 reversed $75 $-1 #
face $-1 $-1 $193 $39 $-1 $194 forward single #
loop $-1 $195 $196 $77 #
cone-surface $-1 70.308983908141244 33.89842911533357 13.075219818060976 -0.86602541151947299 0 -0.49999998660252726 0.24999999330126363 0 -0.43301270575973649 1 I I -0.70710678118654746 0.70710678118654746 0.5 forward I I I I #
loop $-1 $-1 $197 $49 #
coedge $-1 $125 $125 $198 $199 reversed $78 $-1 #
face $-1 $200 $201 $30 $-1 $202 reversed single #
loop $-1 $-1 $203 $80 #
plane-surface $-1 0 -43.293051524210384 0 0 1 0 0 0 1 forward_v I I I I #
coedge $-1 $204 $205 $206 $207 forward $81 $-1 #
coedge $-1 $208 $83 $209 $210 forward $51 $-1 #
coedge $-1 $83 $208 $211 $212 forward $51 $-1 #
coedge $-1 $213 $214 $83 $133 reversed $215 $-1 #
edge $-1 $216 -43.293051524210384 $217 43.293051524210384 $132 $218 forward 7 unknown #
face $-1 $219 $220 $31 $-1 $221 reversed single #
loop $-1 $-1 $222 $84 #
plane-surface $-1 -75.045014801477095 0 0 1 0 0 0 0 -1 forward_v I I I I #
coedge $-1 $223 $224 $225 $226 reversed $85 $-1 #
coedge $-1 $227 $87 $228 $229 reversed $54 $-1 #
coedge $-1 $87 $227 $223 $230 forward $54 $-1 #
coedge $-1 $225 $231 $87 $141 forward $232 $-1 #
edge $-1 $233 -26.779358482749565 $234 -6.2480276001720725 $140 $235 forward 7 unknown #
face $-1 $236 $237 $32 $-1 $238 reversed single #
loop $-1 $-1 $239 $88 #
plane-surface $-1 129.98178166269534 -16.096516817733146 214.91776537035452 0 1 0 0.86602541151947299 0 0.49999998660252726 forward_v I I I I #
coedge $-1 $240 $241 $242 $243 reversed $89 $-1 #
coedge $-1 $147 $91 $244 $245 reversed $57 $-1 #
coedge $-1 $91 $146 $240 $246 reversed $57 $-1 #
coedge $-1 $242 $247 $91 $149 forward $248 $-1 #
edge $-1 $249 -10.054123970129424 $250 -4.9284700007674331 $148 $251 forward 7 unknown #
loop $-1 $-1 $155 $92 #
plane-surface $-1 2.0108270462060318e-006 -9.2729703552904823 139.8727525797045 0.86602541151947299 0 0.49999998660252726 0.49999998660252726 0 -0.86602541151947299 forward_v I I I I #
loop $-1 $-1 $252 $59 #
coedge $-1 $153 $153 $154 $253 reversed $93 $-1 #
coedge $-1 $154 $154 $153 $253 forward $95 $-1 #
coedge $-1 $155 $155 $96 $156 forward $150 $-1 #
edge $-1 $254 0 $254 6.2831853071796004 $155 $255 forward 7 unknown #
loop $-1 $-1 $162 $97 #
plane-surface $-1 2.0108270462060318e-006 -9.2729703552904823 139.8727525797045 0.86602541151947299 0 0.49999998660252726 0.49999998660252726 0 -0.86602541151947299 forward_v I I I I #
loop $-1 $-1 $256 $62 #
coedge $-1 $160 $160 $161 $257 reversed $98 $-1 #
coedge $-1 $161 $161 $160 $257 forward $100 $-1 #
coedge $-1 $162 $162 $101 $163 forward $157 $-1 #
edge $-1 $258 0 $258 6.2831853071796004 $162 $259 forward 7 unknown #
loop $-1 $-1 $169 $102 #
plane-surface $-1 2.0108270462060318e-006 -9.2729703552904823 139.8727525797045 0.86602541151947299 0 0.49999998660252726 0.49999998660252726 0 -0.86602541151947299 forward_v I I I I #
loop $-1 $-1 $260 $65 #
coedge $-1 $167 $167 $168 $261 reversed $103 $-1 #
coedge $-1 $168 $168 $167 $261 forward $105 $-1 #
coedge $-1 $169 $169 $106 $170 forward $164 $-1 #
edge $-1 $262 0 $262 6.2831853071796004 $169 $263 forward 7 unknown #
face $-1 $264 $265 $36 $-1 $266 reversed single #
loop $-1 $-1 $267 $107 #
plane-surface $-1 129.98178166269534 22.980754775425311 214.91776537035452 0 1 0 0.86602541151947299 0 0.49999998660252726 forward_v I I I I #
coedge $-1 $268 $269 $270 $271 reversed $108 $-1 #
coedge $-1 $176 $110 $272 $273 reversed $69 $-1 #
coedge $-1 $110 $175 $268 $274 reversed $69 $-1 #
coedge $-1 $270 $275 $110 $178 forward $276 $-1 #
edge $-1 $277 -10.054123970129424 $278 -4.9284700007674331 $177 $279 forward 7 unknown #
loop $-1 $-1 $184 $111 #
plane-surface $-1 2.0108270462060318e-006 29.804301237867975 139.8727525797045 0.86602541151947299 0 0.49999998660252726 0.49999998660252726 0 -0.86602541151947299 forward_v I I I I #
loop $-1 $-1 $280 $71 #
coedge $-1 $182 $182 $183 $281 reversed $112 $-1 #
coedge $-1 $183 $183 $182 $281 forward $114 $-1 #
coedge $-1 $184 $184 $115 $185 forward $179 $-1 #
edge $-1 $282 0 $282 6.2831853071796004 $184 $283 forward 7 unknown #
loop $-1 $-1 $191 $116 #
plane-surface $-1 2.0108270462060318e-006 29.804301237867975 139.8727525797045 0.86602541151947299 0 0.49999998660252726 0.49999998660252726 0 -0.86602541151947299 forward_v I I I I #
loop $-1 $-1 $284 $74 #
coedge $-1 $189 $189 $190 $285 reversed $117 $-1 #
coedge $-1 $190 $190 $189 $285 forward $119 $-1 #
coedge $-1 $191 $191 $120 $192 forward $186 $-1 #
edge $-1 $286 0 $286 6.2831853071796004 $191 $287 forward 7 unknown #
loop $-1 $-1 $198 $121 #
plane-surface $-1 2.0108270462060318e-006 29.804301237867975 139.8727525797045 0.86602541151947299 0 0.49999998660252726 0.49999998660252726 0 -0.86602541151947299 forward_v I I I I #
loop $-1 $-1 $288 $77 #
coedge $-1 $196 $196 $197 $289 reversed $122 $-1 #
coedge $-1 $197 $197 $196 $289 forward $124 $-1 #
coedge $-1 $198 $198 $125 $199 forward $193 $-1 #
edge $-1 $290 0 $290 6.2831853071796004 $198 $291 forward 7 unknown #
face $-1 $292 $293 $30 $-1 $294 reversed single #
loop $-1 $-1 $295 $126 #
plane-surface $-1 -75.045014801477095 0 0 1 0 0 0 0 -1 forward_v I I I I #
coedge $-1 $296 $211 $297 $298 forward $127 $-1 #
coedge $-1 $299 $129 $296 $300 forward $81 $-1 #
coedge $-1 $129 $299 $301 $302 forward $81 $-1 #
coedge $-1 $214 $213 $129 $207 reversed $215 $-1 #
edge $-1 $303 -43.293051524210384 $304 43.293051524210384 $206 $305 forward 7 unknown #
coedge $-1 $131 $130 $306 $307 forward $51 $-1 #
coedge $-1 $308 $309 $130 $210 reversed $293 $-1 #
edge $-1 $217 -75.045014801477095 $310 75.045014801477095 $209 $311 forward 7 unknown #
coedge $-1 $203 $312 $131 $212 reversed $127 $-1 #
edge $-1 $313 -75.045014801477095 $216 75.045014801477095 $211 $314 forward 7 unknown #
coedge $-1 $206 $132 $312 $315 forward $215 $-1 #
coedge $-1 $132 $206 $308 $316 reversed $215 $-1 #
loop $-1 $-1 $213 $292 #
vertex $-1 $133 $317 #
vertex $-1 $133 $318 #
straight-curve $-1 75.045014801477095 0 18.768866341965104 0 1 0 I I #
face $-1 $319 $320 $31 $-1 $321 forward single #
loop $-1 $-1 $228 $134 #
plane-surface $-1 0 -43.293051524210384 0 0 1 0 0 0 1 forward_v I I I I #
coedge $-1 $322 $323 $324 $325 forward $135 $-1 #
coedge $-1 $324 $137 $139 $230 reversed $85 $-1 #
coedge $-1 $137 $324 $326 $327 reversed $85 $-1 #
coedge $-1 $328 $140 $137 $226 forward $232 $-1 #
edge $-1 $234 4.1947989539912136 $329 11.114311243312995 $225 $330 forward 7 unknown #
coedge $-1 $139 $138 $322 $331 reversed $54 $-1 #
coedge $-1 $332 $333 $138 $229 forward $220 $-1 #
edge $-1 $334 -75.045014801477095 $233 75.045014801477095 $228 $335 forward 7 unknown #
edge $-1 $336 -75.045014801477095 $234 75.045014801477095 $223 $337 forward 7 unknown #
coedge $-1 $140 $328 $332 $338 forward $232 $-1 #
loop $-1 $-1 $225 $319 #
vertex $-1 $229 $339 #
vertex $-1 $141 $340 #
straight-curve $-1 75.045014801477095 -16.513693041460819 11.849354052643319 0 1 0 I I #
face $-1 $-1 $248 $32 $-1 $341 forward single #
loop $-1 $-1 $342 $142 #
plane-surface $-1 75.045014801477095 0 0 -1 0 0 0 0 1 forward_v I I I I #
coedge $-1 $343 $344 $345 $346 reversed $143 $-1 #
coedge $-1 $347 $145 $147 $246 forward $89 $-1 #
coedge $-1 $145 $347 $343 $348 forward $89 $-1 #
coedge $-1 $345 $148 $145 $243 forward $248 $-1 #
edge $-1 $250 -2.1870612847974229 $349 11.460031640087905 $242 $350 forward 7 unknown #
coedge $-1 $351 $352 $146 $245 forward $237 $-1 #
edge $-1 $353 -97.567909757341084 $249 -88.69001634321215 $244 $354 forward 7 unknown #
edge $-1 $250 139.83872138954703 $353 150.09002960295425 $147 $355 forward 7 unknown #
coedge $-1 $148 $345 $351 $356 forward $248 $-1 #
loop $-1 $-1 $345 $236 #
vertex $-1 $245 $357 #
vertex $-1 $149 $358 #
straight-curve $-1 64.99089083134767 -2.4494238928478183 18.768866341965108 -1 0 0 I I #
coedge $-1 $252 $252 $-1 $359 reversed $152 $-1 #
edge $-1 $360 0 $360 6.2831853071796004 $153 $361 forward 7 unknown #
vertex $-1 $156 $362 #
ellipse-curve $-1 72.482187816796099 -13.367098232756081 14.329919634900648 0.86602541151947299 0 0.49999998660252726 0.49999998660252726 0 -0.86602541151947299 1 I I #
coedge $-1 $256 $256 $-1 $363 reversed $159 $-1 #
edge $-1 $364 0 $364 6.2831853071796004 $160 $365 forward 7 unknown #
vertex $-1 $163 $366 #
ellipse-curve $-1 72.482187816796099 -9.2729703552904823 14.329919634900648 0.86602541151947299 0 0.49999998660252726 0.49999998660252726 0 -0.86602541151947299 1 I I #
coedge $-1 $260 $260 $-1 $367 reversed $166 $-1 #
edge $-1 $368 0 $368 6.2831853071796004 $167 $369 forward 7 unknown #
vertex $-1 $170 $370 #
ellipse-curve $-1 72.482187816796099 -5.1788424778248867 14.329919634900648 0.86602541151947299 0 0.49999998660252726 0.49999998660252726 0 -0.86602541151947299 1 I I #
face $-1 $-1 $276 $36 $-1 $371 forward single #
loop $-1 $-1 $372 $171 #
plane-surface $-1 75.045014801477095 0 0 -1 0 0 0 0 1 forward_v I I I I #
coedge $-1 $373 $374 $375 $376 reversed $172 $-1 #
coedge $-1 $377 $174 $176 $274 forward $108 $-1 #
coedge $-1 $174 $377 $373 $378 forward $108 $-1 #
coedge $-1 $375 $177 $174 $271 forward $276 $-1 #
edge $-1 $278 -21.725697081376651 $379 -8.0786041564913234 $270 $380 forward 7 unknown #
coedge $-1 $381 $382 $175 $273 forward $265 $-1 #
edge $-1 $383 -97.567909757341084 $277 -88.69001634321215 $272 $384 forward 7 unknown #
edge $-1 $278 139.83872138954703 $383 150.09002960295425 $176 $385 forward 7 unknown #
coedge $-1 $177 $375 $381 $386 forward $276 $-1 #
loop $-1 $-1 $375 $264 #
vertex $-1 $273 $387 #
vertex $-1 $178 $388 #
straight-curve $-1 64.99089083134767 36.627847700310639 18.768866341965108 -1 0 0 I I #
coedge $-1 $280 $280 $-1 $389 reversed $181 $-1 #
edge $-1 $390 0 $390 6.2831853071796004 $182 $391 forward 7 unknown #
vertex $-1 $185 $392 #
ellipse-curve $-1 72.482187816796099 25.710173360402379 14.329919634900648 0.86602541151947299 0 0.49999998660252726 0.49999998660252726 0 -0.86602541151947299 1 I I #
coedge $-1 $284 $284 $-1 $393 reversed $188 $-1 #
edge $-1 $394 0 $394 6.2831853071796004 $189 $395 forward 7 unknown #
vertex $-1 $192 $396 #
ellipse-curve $-1 72.482187816796099 29.804301237867975 14.329919634900648 0.86602541151947299 0 0.49999998660252726 0.49999998660252726 0 -0.86602541151947299 1 I I #
coedge $-1 $288 $288 $-1 $397 reversed $195 $-1 #
edge $-1 $398 0 $398 6.2831853071796004 $196 $399 forward 7 unknown #
vertex $-1 $199 $400 #
ellipse-curve $-1 72.482187816796099 33.89842911533357 14.329919634900648 0.86602541151947299 0 0.49999998660252726 0.49999998660252726 0 -0.86602541151947299 1 I I #
face $-1 $-1 $215 $30 $-1 $401 reversed single #
loop $-1 $-1 $308 $200 #
plane-surface $-1 0 43.293051524210384 0 0 -1 0 0 0 -1 forward_v I I I I #
coedge $-1 $402 $306 $309 $403 forward $201 $-1 #
coedge $-1 $312 $203 $204 $300 reversed $127 $-1 #
coedge $-1 $306 $402 $203 $298 reversed $201 $-1 #
edge $-1 $313 -18.768866341965104 $404 18.768866341965104 $297 $405 forward 7 unknown #
coedge $-1 $205 $204 $402 $406 forward $81 $-1 #
edge $-1 $304 -75.045014801477095 $404 75.045014801477095 $296 $407 forward 7 unknown #
coedge $-1 $309 $308 $205 $302 reversed $293 $-1 #
edge $-1 $408 -75.045014801477095 $303 75.045014801477095 $301 $409 forward 7 unknown #
vertex $-1 $207 $410 #
vertex $-1 $315 $411 #
straight-curve $-1 75.045014801477095 0 -18.768866341965104 0 -1 0 I I #
coedge $-1 $295 $297 $208 $307 reversed $201 $-1 #
edge $-1 $310 -43.293051524210384 $313 43.293051524210384 $306 $412 forward 7 unknown #
coedge $-1 $301 $209 $214 $316 forward $293 $-1 #
coedge $-1 $209 $301 $295 $403 reversed $293 $-1 #
vertex $-1 $210 $413 #
straight-curve $-1 0 43.293051524210384 18.768866341965104 -1 0 0 I I #
coedge $-1 $211 $296 $213 $315 reversed $127 $-1 #
vertex $-1 $307 $414 #
straight-curve $-1 0 -43.293051524210384 18.768866341965104 1 0 0 I I #
edge $-1 $216 -18.768866341965104 $304 18.768866341965104 $213 $415 forward 7 unknown #
edge $-1 $217 -18.768866341965104 $303 18.768866341965104 $214 $416 forward 7 unknown #
point $-1 75.045014801477095 -43.293051524210384 18.768866341965104 #
point $-1 75.045014801477095 43.293051524210384 18.768866341965104 #
face $-1 $-1 $232 $31 $-1 $417 reversed single #
loop $-1 $-1 $326 $219 #
plane-surface $-1 0 0 18.768866341965104 0 0 1 1 0 0 forward_v I I I I #
coedge $-1 $418 $222 $227 $331 forward $135 $-1 #
coedge $-1 $222 $418 $419 $420 reversed $135 $-1 #
coedge $-1 $224 $223 $222 $325 reversed $85 $-1 #
edge $-1 $421 -11.114311243312995 $336 -4.1947989539912136 $222 $422 forward 7 unknown #
coedge $-1 $419 $423 $224 $327 forward $320 $-1 #
edge $-1 $329 -75.045014801477095 $421 75.045014801477095 $326 $424 forward 7 unknown #
coedge $-1 $231 $225 $423 $425 reversed $232 $-1 #
vertex $-1 $226 $426 #
straight-curve $-1 75.045014801477095 -22.761720641632891 7.6545550986521054 0 0 1 I I #
edge $-1 $336 6.2480276001720725 $334 26.779358482749565 $322 $427 forward 7 unknown #
coedge $-1 $428 $228 $231 $338 reversed $220 $-1 #
coedge $-1 $228 $428 $418 $429 forward $220 $-1 #
vertex $-1 $229 $430 #
straight-curve $-1 0 -43.293051524210384 11.849354052643319 1 0 0 I I #
vertex $-1 $331 $431 #
straight-curve $-1 0 -22.761720641632891 11.849354052643319 1 0 0 I I #
edge $-1 $432 -18.768866341965104 $233 -11.849354052643319 $231 $433 forward 7 unknown #
point $-1 75.045014801477095 -43.293051524210384 11.849354052643319 #
point $-1 75.045014801477095 -22.761720641632891 11.849354052643319 #
plane-surface $-1 0 0 18.768866341965104 0 0 1 1 0 0 forward_v I I I I #
coedge $-1 $352 $351 $344 $434 forward $237 $-1 #
coedge $-1 $344 $239 $241 $348 reversed $143 $-1 #
coedge $-1 $239 $343 $342 $434 reversed $143 $-1 #
coedge $-1 $247 $242 $239 $346 forward $248 $-1 #
edge $-1 $349 4.9284700007674331 $435 10.054123970129424 $345 $436 forward 7 unknown #
coedge $-1 $241 $240 $352 $437 reversed $89 $-1 #
edge $-1 $438 -150.09002960295425 $349 -139.83872138954703 $343 $439 forward 7 unknown #
vertex $-1 $243 $440 #
straight-curve $-1 69.919360832115103 -4.6364851776452412 18.768866341965094 0 -1 0 I I #
coedge $-1 $342 $244 $247 $356 reversed $237 $-1 #
coedge $-1 $244 $342 $347 $437 forward $237 $-1 #
vertex $-1 $245 $441 #
straight-curve $-1 75.045014801477095 -2.4494238928478183 107.45888268517726 0 0 1 I I #
straight-curve $-1 2.0108270462060318e-006 -2.4494238928478183 139.8727525797045 0.49999998660252726 0 -0.86602541151947299 I I #
edge $-1 $435 -16.096516817733146 $249 -2.4494238928478183 $351 $442 forward 7 unknown #
point $-1 75.045014801477095 -2.4494238928478183 18.768866341965104 #
point $-1 69.919360832115103 -2.4494238928478183 18.768866341965094 #
edge $-1 $443 1 $443 0 $252 $-1 forward 7 unknown #
vertex $-1 $253 $444 #
ellipse-curve $-1 70.74199661390098 -13.367098232756081 13.32521981136224 0.86602541151947299 0 0.49999998660252726 0.49999998660252726 0 -0.86602541151947299 1 I I #
point $-1 72.982187803398645 -13.367098232756081 13.463894223381192 #
edge $-1 $445 1 $445 0 $256 $-1 forward 7 unknown #
vertex $-1 $257 $446 #
ellipse-curve $-1 70.74199661390098 -9.2729703552904823 13.32521981136224 0.86602541151947299 0 0.49999998660252726 0.49999998660252726 0 -0.86602541151947299 1 I I #
point $-1 72.982187803398645 -9.2729703552904823 13.463894223381192 #
edge $-1 $447 1 $447 0 $260 $-1 forward 7 unknown #
vertex $-1 $261 $448 #
ellipse-curve $-1 70.74199661390098 -5.1788424778248867 13.32521981136224 0.86602541151947299 0 0.49999998660252726 0.49999998660252726 0 -0.86602541151947299 1 I I #
point $-1 72.982187803398645 -5.1788424778248867 13.463894223381192 #
plane-surface $-1 0 0 18.768866341965104 0 0 1 1 0 0 forward_v I I I I #
coedge $-1 $382 $381 $374 $449 forward $265 $-1 #
coedge $-1 $374 $267 $269 $378 reversed $172 $-1 #
coedge $-1 $267 $373 $372 $449 reversed $172 $-1 #
coedge $-1 $275 $270 $267 $376 forward $276 $-1 #
edge $-1 $379 4.9284700007674331 $450 10.054123970129424 $375 $451 forward 7 unknown #
coedge $-1 $269 $268 $382 $452 reversed $108 $-1 #
edge $-1 $453 -150.09002960295425 $379 -139.83872138954703 $373 $454 forward 7 unknown #
vertex $-1 $271 $455 #
straight-curve $-1 69.919360832115103 14.902150618933987 18.768866341965094 0 -1 0 I I #
coedge $-1 $372 $272 $275 $386 reversed $265 $-1 #
coedge $-1 $272 $372 $377 $452 forward $265 $-1 #
vertex $-1 $273 $456 #
straight-curve $-1 75.045014801477095 36.627847700310639 107.45888268517726 0 0 1 I I #
straight-curve $-1 2.0108270462060318e-006 36.627847700310639 139.8727525797045 0.49999998660252726 0 -0.86602541151947299 I I #
edge $-1 $450 22.980754775425311 $277 36.627847700310639 $381 $457 forward 7 unknown #
point $-1 75.045014801477095 36.627847700310639 18.768866341965104 #
point $-1 69.919360832115103 36.627847700310639 18.768866341965094 #
edge $-1 $458 1 $458 0 $280 $-1 forward 7 unknown #
vertex $-1 $281 $459 #
ellipse-curve $-1 70.74199661390098 25.710173360402379 13.32521981136224 0.86602541151947299 0 0.49999998660252726 0.49999998660252726 0 -0.86602541151947299 1 I I #
point $-1 72.982187803398645 25.710173360402379 13.463894223381192 #
edge $-1 $460 1 $460 0 $284 $-1 forward 7 unknown #
vertex $-1 $285 $461 #
ellipse-curve $-1 70.74199661390098 29.804301237867975 13.32521981136224 0.86602541151947299 0 0.49999998660252726 0.49999998660252726 0 -0.86602541151947299 1 I I #
point $-1 72.982187803398645 29.804301237867975 13.463894223381192 #
edge $-1 $462 1 $462 0 $288 $-1 forward 7 unknown #
vertex $-1 $289 $463 #
ellipse-curve $-1 70.74199661390098 33.89842911533357 13.32521981136224 0.86602541151947299 0 0.49999998660252726 0.49999998660252726 0 -0.86602541151947299 1 I I #
point $-1 72.982187803398645 33.89842911533357 13.463894223381192 #
plane-surface $-1 75.045014801477095 0 0 -1 0 0 0 0 1 forward_v I I I I #
coedge $-1 $297 $295 $299 $406 reversed $201 $-1 #
edge $-1 $310 -18.768866341965104 $408 18.768866341965104 $309 $464 forward 7 unknown #
vertex $-1 $406 $465 #
straight-curve $-1 -75.045014801477095 -43.293051524210384 0 0 0 -1 I I #
edge $-1 $404 -43.293051524210384 $408 43.293051524210384 $402 $466 forward 7 unknown #
straight-curve $-1 0 -43.293051524210384 -18.768866341965104 -1 0 0 I I #
vertex $-1 $302 $467 #
straight-curve $-1 0 43.293051524210384 -18.768866341965104 1 0 0 I I #
point $-1 75.045014801477095 43.293051524210384 -18.768866341965104 #
point $-1 75.045014801477095 -43.293051524210384 -18.768866341965104 #
straight-curve $-1 -75.045014801477095 0 18.768866341965104 0 -1 0 I I #
point $-1 -75.045014801477095 43.293051524210384 18.768866341965104 #
point $-1 -75.045014801477095 -43.293051524210384 18.768866341965104 #
straight-curve $-1 75.045014801477095 -43.293051524210384 0 0 0 -1 I I #
straight-curve $-1 75.045014801477095 43.293051524210384 0 0 0 -1 I I #
plane-surface $-1 75.045014801477095 0 0 -1 0 0 0 0 1 forward_v I I I I #
coedge $-1 $323 $322 $333 $429 reversed $135 $-1 #
coedge $-1 $468 $326 $323 $420 forward $320 $-1 #
edge $-1 $421 22.761720641632891 $469 43.293051524210384 $323 $470 forward 7 unknown #
vertex $-1 $420 $471 #
straight-curve $-1 -75.045014801477095 -22.761720641632891 7.6545550986521054 0 0 -1 I I #
coedge $-1 $326 $468 $328 $425 forward $320 $-1 #
straight-curve $-1 0 -22.761720641632891 18.768866341965104 -1 0 0 I I #
edge $-1 $432 -43.293051524210384 $329 -22.761720641632891 $328 $472 forward 7 unknown #
point $-1 75.045014801477095 -22.761720641632891 18.768866341965101 #
straight-curve $-1 -75.045014801477095 -16.513693041460819 11.849354052643319 0 -1 0 I I #
coedge $-1 $333 $332 $468 $473 reversed $220 $-1 #
edge $-1 $469 -18.768866341965104 $334 -11.849354052643319 $418 $474 forward 7 unknown #
point $-1 -75.045014801477095 -43.293051524210384 11.849354052643319 #
point $-1 -75.045014801477095 -22.761720641632891 11.849354052643319 #
vertex $-1 $425 $475 #
straight-curve $-1 75.045014801477095 -43.293051524210384 0 0 0 -1 I I #
edge $-1 $435 88.69001634321215 $438 97.567909757341084 $342 $476 forward 7 unknown #
vertex $-1 $356 $477 #
straight-curve $-1 64.99089083134767 -16.096516817733146 18.768866341965108 1 0 0 I I #
edge $-1 $438 -11.460031640087905 $353 2.1870612847974229 $352 $478 forward 7 unknown #
vertex $-1 $437 $479 #
straight-curve $-1 2.0108270462060318e-006 -16.096516817733146 139.8727525797045 -0.49999998660252726 0 0.86602541151947299 I I #
point $-1 69.919360832115103 -16.096516817733146 18.768866341965094 #
point $-1 75.045014801477095 -2.4494238928478183 9.8909729278361738 #
straight-curve $-1 75.045014801477095 0 18.768866341965104 0 1 0 I I #
vertex $-1 $359 $480 #
point $-1 71.241996600503512 -13.367098232756081 12.459194399842767 #
vertex $-1 $363 $481 #
point $-1 71.241996600503512 -9.2729703552904823 12.459194399842767 #
vertex $-1 $367 $482 #
point $-1 71.241996600503512 -5.1788424778248867 12.459194399842767 #
edge $-1 $450 88.69001634321215 $453 97.567909757341084 $372 $483 forward 7 unknown #
vertex $-1 $386 $484 #
straight-curve $-1 64.99089083134767 22.980754775425311 18.768866341965108 1 0 0 I I #
edge $-1 $453 8.0786041564913234 $383 21.725697081376651 $382 $485 forward 7 unknown #
vertex $-1 $452 $486 #
straight-curve $-1 2.0108270462060318e-006 22.980754775425311 139.8727525797045 -0.49999998660252726 0 0.86602541151947299 I I #
point $-1 69.919360832115103 22.980754775425311 18.768866341965094 #
point $-1 75.045014801477095 36.627847700310639 9.8909729278361738 #
straight-curve $-1 75.045014801477095 0 18.768866341965104 0 1 0 I I #
vertex $-1 $389 $487 #
point $-1 71.241996600503512 25.710173360402379 12.459194399842767 #
vertex $-1 $393 $488 #
point $-1 71.241996600503512 29.804301237867975 12.459194399842767 #
vertex $-1 $397 $489 #
point $-1 71.241996600503512 33.89842911533357 12.459194399842767 #
straight-curve $-1 -75.045014801477095 43.293051524210384 0 0 0 -1 I I #
point $-1 -75.045014801477095 -43.293051524210384 -18.768866341965104 #
straight-curve $-1 -75.045014801477095 0 -18.768866341965104 0 1 0 I I #
point $-1 -75.045014801477095 43.293051524210384 -18.768866341965104 #
coedge $-1 $423 $419 $428 $473 forward $320 $-1 #
vertex $-1 $420 $490 #
straight-curve $-1 -75.045014801477095 0 18.768866341965104 0 -1 0 I I #
point $-1 -75.045014801477095 -22.761720641632891 18.768866341965101 #
straight-curve $-1 75.045014801477095 0 18.768866341965104 0 1 0 I I #
edge $-1 $469 -75.045014801477095 $432 75.045014801477095 $428 $491 forward 7 unknown #
straight-curve $-1 -75.045014801477095 -43.293051524210384 0 0 0 -1 I I #
point $-1 75.045014801477095 -43.293051524210384 18.768866341965104 #
straight-curve $-1 75.045014801477095 -16.096516817733146 107.45888268517726 0 0 -1 I I #
point $-1 75.045014801477095 -16.096516817733146 18.768866341965104 #
straight-curve $-1 75.045014801477095 -4.6364851776452412 9.8909729278361667 0 1 0 I I #
point $-1 75.045014801477095 -16.096516817733146 9.8909729278361738 #
point $-1 69.875971202381507 -13.367098232756081 12.825219824759712 #
point $-1 69.875971202381507 -9.2729703552904823 12.825219824759712 #
point $-1 69.875971202381507 -5.1788424778248867 12.825219824759712 #
straight-curve $-1 75.045014801477095 22.980754775425311 107.45888268517726 0 0 -1 I I #
point $-1 75.045014801477095 22.980754775425311 18.768866341965104 #
straight-curve $-1 75.045014801477095 14.902150618933987 9.8909729278361667 0 1 0 I I #
point $-1 75.045014801477095 22.980754775425311 9.8909729278361738 #
point $-1 69.875971202381507 25.710173360402379 12.825219824759712 #
point $-1 69.875971202381507 29.804301237867975 12.825219824759712 #
point $-1 69.875971202381507 33.89842911533357 12.825219824759712 #
point $-1 -75.045014801477095 -43.293051524210384 18.768866341965104 #
straight-curve $-1 0 -43.293051524210384 18.768866341965104 1 0 0 I I #
End-of-ACIS-data 