500 0 6 0           
7 Unknown 11 ACIS 5.0 NT 24 Thu Mar 25 22:32:58 1999 
-1 9.9999999999999995e-007 1e-010 
body $-1 $6 $-1 $7 #
body $-1 $8 $-1 $9 #
body $-1 $10 $-1 $11 #
body $-1 $12 $-1 $13 #
body $-1 $14 $-1 $15 #
body $-1 $16 $-1 $17 #
lump $-1 $-1 $18 $0 #
transform $-1 1 0 0 0 1 0 0 0 1 72.682882168034922 45.575696232963942 22.176546548001863 1 rotate no_reflect no_shear #
lump $-1 $-1 $19 $1 #
transform $-1 1 0 0 0 1 0 0 0 1 72.682882168034922 45.575696232963942 22.176546548001863 1 rotate no_reflect no_shear #
lump $-1 $-1 $20 $2 #
transform $-1 1 0 0 0 1 0 0 0 1 72.682882168034922 45.575696232963942 22.176546548001863 1 rotate no_reflect no_shear #
lump $-1 $-1 $21 $3 #
transform $-1 1 0 0 0 1 0 0 0 1 72.682882168034922 45.575696232963942 22.176546548001863 1 rotate no_reflect no_shear #
lump $-1 $-1 $22 $4 #
transform $-1 1 0 0 0 1 0 0 0 1 72.682882168034922 45.575696232963942 22.176546548001863 1 rotate no_reflect no_shear #
lump $-1 $-1 $23 $5 #
transform $-1 1 0 0 0 1 0 0 0 1 72.682882168034922 45.575696232963942 22.176546548001863 1 rotate no_reflect no_shear #
shell $-1 $-1 $-1 $24 $-1 $6 #
shell $-1 $-1 $-1 $25 $-1 $8 #
shell $-1 $-1 $-1 $26 $-1 $10 #
shell $-1 $-1 $-1 $27 $-1 $12 #
shell $-1 $-1 $-1 $28 $-1 $14 #
shell $-1 $-1 $-1 $29 $-1 $16 #
face $-1 $30 $31 $18 $-1 $32 forward single #
face $-1 $33 $34 $19 $-1 $35 reversed single #
face $-1 $36 $37 $20 $-1 $38 reversed single #
face $-1 $39 $40 $21 $-1 $41 forward single #
face $-1 $42 $43 $22 $-1 $44 forward single #
face $-1 $45 $46 $23 $-1 $47 forward single #
face $-1 $48 $49 $18 $-1 $50 reversed single #
loop $-1 $-1 $51 $24 #
plane-surface $-1 0 0 22.176546548001863 0 0 1 1 0 0 forward_v I I I I #
face $-1 $52 $53 $19 $-1 $54 reversed single #
loop $-1 $-1 $55 $25 #
plane-surface $-1 -58.967425496407301 -35.911738343657056 0 0 -1 0 0 0 -1 forward_v I I I I #
face $-1 $56 $57 $20 $-1 $58 reversed single #
loop $-1 $-1 $59 $26 #
plane-surface $-1 31.679533250223848 86.824000346425834 176.91120684984861 1 0 0 0 -0.71933980857756763 -0.69465836192734942 forward_v I I I I #
face $-1 $60 $61 $21 $-1 $62 forward single #
loop $-1 $63 $64 $27 #
cone-surface $-1 37.452571437896054 38.049152646302922 14.509858891121606 0 -0.71933980857756763 -0.69465836192734942 2.5 0 0 1 I I 0 1 2.5 forward I I I I #
face $-1 $65 $66 $22 $-1 $67 forward single #
loop $-1 $68 $69 $28 #
cone-surface $-1 46.112128719404353 38.049152646302922 14.509858891121606 0 -0.71933980857756763 -0.69465836192734942 2.5 0 0 1 I I 0 1 2.5 forward I I I I #
face $-1 $70 $71 $23 $-1 $72 forward single #
loop $-1 $73 $74 $29 #
cone-surface $-1 54.771686000912638 38.049152646302922 14.509858891121606 0 -0.71933980857756763 -0.69465836192734942 2.5 0 0 1 I I 0 1 2.5 forward I I I I #
face $-1 $75 $76 $18 $-1 $77 reversed single #
loop $-1 $-1 $78 $30 #
plane-surface $-1 0 0 -22.176546548001863 0 0 1 1 0 0 forward_v I I I I #
coedge $-1 $79 $80 $81 $82 forward $31 $-1 #
face $-1 $83 $84 $19 $-1 $85 forward single #
loop $-1 $-1 $86 $33 #
plane-surface $-1 -45.251968824779681 -40.743717288310499 0 -1 0 0 0 0 1 forward_v I I I I #
coedge $-1 $87 $88 $89 $90 forward $34 $-1 #
face $-1 $91 $92 $20 $-1 $93 reversed single #
loop $-1 $-1 $94 $36 #
plane-surface $-1 46.112128719404325 -17.743380744814459 75.931663115837225 0 0.71933980857756763 0.69465836192734942 1 0 0 forward_v I I I I #
coedge $-1 $95 $96 $97 $98 reversed $37 $-1 #
face $-1 $-1 $99 $21 $-1 $100 forward single #
loop $-1 $101 $102 $39 #
cone-surface $-1 37.452571437896054 35.327617074863333 11.881702601924136 0 -0.71933980857756763 -0.69465836192734942 1.25 0 0 1 I I -0.70710678118654746 0.70710678118654746 1.25 forward I I I I #
loop $-1 $-1 $103 $27 #
coedge $-1 $64 $64 $104 $105 reversed $40 $-1 #
face $-1 $-1 $106 $22 $-1 $107 forward single #
loop $-1 $108 $109 $42 #
cone-surface $-1 46.112128719404353 35.327617074863333 11.881702601924136 0 -0.71933980857756763 -0.69465836192734942 1.25 0 0 1 I I -0.70710678118654746 0.70710678118654746 1.25 forward I I I I #
loop $-1 $-1 $110 $28 #
coedge $-1 $69 $69 $111 $112 reversed $43 $-1 #
face $-1 $-1 $113 $23 $-1 $114 forward single #
loop $-1 $115 $116 $45 #
cone-surface $-1 54.771686000912638 35.327617074863333 11.881702601924136 0 -0.71933980857756763 -0.69465836192734942 1.25 0 0 1 I I -0.70710678118654746 0.70710678118654746 1.25 forward I I I I #
loop $-1 $-1 $117 $29 #
coedge $-1 $74 $74 $118 $119 reversed $46 $-1 #
face $-1 $120 $121 $18 $-1 $122 reversed single #
loop $-1 $-1 $123 $48 #
plane-surface $-1 0 -45.575696232963942 0 0 1 0 0 0 1 forward_v I I I I #
coedge $-1 $124 $125 $126 $127 forward $49 $-1 #
coedge $-1 $128 $51 $129 $130 forward $31 $-1 #
coedge $-1 $51 $128 $131 $132 forward $31 $-1 #
coedge $-1 $133 $134 $51 $82 reversed $135 $-1 #
edge $-1 $136 -45.575696232963942 $137 45.575696232963942 $81 $138 forward 7 unknown #
face $-1 $139 $140 $19 $-1 $141 reversed single #
loop $-1 $-1 $142 $52 #
plane-surface $-1 0 0 22.176546548001863 0 0 1 1 0 0 forward_v I I I I #
coedge $-1 $143 $144 $145 $146 reversed $53 $-1 #
coedge $-1 $147 $55 $148 $149 reversed $34 $-1 #
coedge $-1 $55 $147 $150 $151 reversed $34 $-1 #
coedge $-1 $144 $143 $55 $90 reversed $53 $-1 #
edge $-1 $152 -22.176546548001863 $153 22.176546548001863 $89 $154 forward 7 unknown #
face $-1 $155 $156 $20 $-1 $157 reversed single #
loop $-1 $-1 $158 $56 #
plane-surface $-1 60.544724188584802 86.824000346425834 176.91120684984861 -1 0 0 0 0.71933980857756763 0.69465836192734942 forward_v I I I I #
coedge $-1 $159 $160 $161 $162 reversed $57 $-1 #
coedge $-1 $96 $59 $163 $164 reversed $37 $-1 #
coedge $-1 $59 $95 $159 $165 reversed $37 $-1 #
coedge $-1 $161 $166 $59 $98 forward $167 $-1 #
edge $-1 $168 -2.1636960597510253 $169 9.2446694921357562 $97 $170 forward 7 unknown #
loop $-1 $-1 $104 $60 #
plane-surface $-1 46.112128719404325 -17.743380744814459 75.931663115837225 0 0.71933980857756763 0.69465836192734942 1 0 0 forward_v I I I I #
loop $-1 $-1 $171 $39 #
coedge $-1 $102 $102 $103 $172 reversed $61 $-1 #
coedge $-1 $103 $103 $102 $172 forward $63 $-1 #
coedge $-1 $104 $104 $64 $105 forward $99 $-1 #
edge $-1 $173 1.0222433510557034e-015 $173 6.2831853071796013 $104 $174 forward 7 unknown #
loop $-1 $-1 $111 $65 #
plane-surface $-1 46.112128719404325 -17.743380744814459 75.931663115837225 0 0.71933980857756763 0.69465836192734942 1 0 0 forward_v I I I I #
loop $-1 $-1 $175 $42 #
coedge $-1 $109 $109 $110 $176 reversed $66 $-1 #
coedge $-1 $110 $110 $109 $176 forward $68 $-1 #
coedge $-1 $111 $111 $69 $112 forward $106 $-1 #
edge $-1 $177 1.0222433510557034e-015 $177 6.2831853071796013 $111 $178 forward 7 unknown #
loop $-1 $-1 $118 $70 #
plane-surface $-1 46.112128719404325 -17.743380744814459 75.931663115837225 0 0.71933980857756763 0.69465836192734942 1 0 0 forward_v I I I I #
loop $-1 $-1 $179 $45 #
coedge $-1 $116 $116 $117 $180 reversed $71 $-1 #
coedge $-1 $117 $117 $116 $180 forward $73 $-1 #
coedge $-1 $118 $118 $74 $119 forward $113 $-1 #
edge $-1 $181 1.0222433510557034e-015 $181 6.2831853071796013 $118 $182 forward 7 unknown #
face $-1 $183 $184 $18 $-1 $185 reversed single #
loop $-1 $-1 $186 $75 #
plane-surface $-1 -72.682882168034922 0 0 1 0 0 0 0 -1 forward_v I I I I #
coedge $-1 $187 $131 $188 $189 forward $76 $-1 #
coedge $-1 $190 $78 $187 $191 forward $49 $-1 #
coedge $-1 $78 $190 $192 $193 forward $49 $-1 #
coedge $-1 $134 $133 $78 $127 reversed $135 $-1 #
edge $-1 $194 -45.575696232963942 $195 45.575696232963942 $126 $196 forward 7 unknown #
coedge $-1 $80 $79 $197 $198 forward $31 $-1 #
coedge $-1 $199 $200 $79 $130 reversed $184 $-1 #
edge $-1 $137 -72.682882168034922 $201 72.682882168034922 $129 $202 forward 7 unknown #
coedge $-1 $123 $203 $80 $132 reversed $76 $-1 #
edge $-1 $204 -72.682882168034922 $136 72.682882168034922 $131 $205 forward 7 unknown #
coedge $-1 $126 $81 $203 $206 forward $135 $-1 #
coedge $-1 $81 $126 $199 $207 reversed $135 $-1 #
loop $-1 $-1 $133 $183 #
vertex $-1 $82 $208 #
vertex $-1 $82 $209 #
straight-curve $-1 72.682882168034922 0 22.176546548001863 0 1 0 I I #
face $-1 $210 $211 $19 $-1 $212 reversed single #
loop $-1 $-1 $213 $83 #
plane-surface $-1 -72.682882168034922 0 0 1 0 0 0 0 -1 forward_v I I I I #
coedge $-1 $150 $214 $144 $215 forward $84 $-1 #
coedge $-1 $89 $86 $216 $217 reversed $53 $-1 #
coedge $-1 $86 $89 $142 $215 reversed $53 $-1 #
coedge $-1 $218 $219 $86 $146 forward $220 $-1 #
edge $-1 $221 -22.176546548001863 $222 22.176546548001863 $145 $223 forward 7 unknown #
coedge $-1 $88 $87 $213 $224 reversed $34 $-1 #
coedge $-1 $216 $225 $87 $149 forward $211 $-1 #
edge $-1 $226 -43.199169419831271 $153 -15.76825607657603 $148 $227 forward 7 unknown #
coedge $-1 $228 $142 $88 $151 forward $84 $-1 #
edge $-1 $152 15.76825607657603 $229 43.199169419831271 $150 $230 forward 7 unknown #
vertex $-1 $151 $231 #
vertex $-1 $149 $232 #
straight-curve $-1 -45.251968824779681 -35.911738343657056 0 0 0 -1 I I #
face $-1 $-1 $167 $20 $-1 $233 forward single #
loop $-1 $-1 $234 $91 #
plane-surface $-1 0 45.575696232963942 0 0 -1 0 0 0 -1 forward_v I I I I #
coedge $-1 $235 $236 $237 $238 reversed $92 $-1 #
coedge $-1 $239 $94 $96 $165 forward $57 $-1 #
coedge $-1 $94 $239 $235 $240 forward $57 $-1 #
coedge $-1 $237 $97 $94 $162 forward $167 $-1 #
edge $-1 $169 8.6234688905216856 $241 37.488659828882639 $161 $242 forward 7 unknown #
coedge $-1 $243 $244 $95 $164 forward $156 $-1 #
edge $-1 $245 -78.092765517106386 $168 -66.279056876922439 $163 $246 forward 7 unknown #
edge $-1 $169 74.728405027564733 $245 91.151392465927884 $96 $247 forward 7 unknown #
coedge $-1 $97 $237 $243 $248 forward $167 $-1 #
loop $-1 $-1 $237 $155 #
vertex $-1 $164 $249 #
vertex $-1 $98 $250 #
straight-curve $-1 31.679533250223848 43.412000173212917 22.176546548001866 0 -1 0 I I #
coedge $-1 $171 $171 $-1 $251 reversed $101 $-1 #
edge $-1 $252 0 $252 6.2831853071796004 $102 $253 forward 7 unknown #
vertex $-1 $105 $254 #
ellipse-curve $-1 37.452571437896054 39.871513457020555 16.269692227909893 0 0.71933980857756763 0.69465836192734942 2.5 0 0 1 I I #
coedge $-1 $175 $175 $-1 $255 reversed $108 $-1 #
edge $-1 $256 0 $256 6.2831853071796004 $109 $257 forward 7 unknown #
vertex $-1 $112 $258 #
ellipse-curve $-1 46.112128719404353 39.871513457020555 16.269692227909893 0 0.71933980857756763 0.69465836192734942 2.5 0 0 1 I I #
coedge $-1 $179 $179 $-1 $259 reversed $115 $-1 #
edge $-1 $260 0 $260 6.2831853071796004 $116 $261 forward 7 unknown #
vertex $-1 $119 $262 #
ellipse-curve $-1 54.771686000912638 39.871513457020555 16.269692227909893 0 0.71933980857756763 0.69465836192734942 2.5 0 0 1 I I #
face $-1 $-1 $135 $18 $-1 $263 reversed single #
loop $-1 $-1 $199 $120 #
plane-surface $-1 0 45.575696232963942 0 0 -1 0 0 0 -1 forward_v I I I I #
coedge $-1 $264 $197 $200 $265 forward $121 $-1 #
coedge $-1 $203 $123 $124 $191 reversed $76 $-1 #
coedge $-1 $197 $264 $123 $189 reversed $121 $-1 #
edge $-1 $204 -22.176546548001863 $266 22.176546548001863 $188 $267 forward 7 unknown #
coedge $-1 $125 $124 $264 $268 forward $49 $-1 #
edge $-1 $195 -72.682882168034922 $266 72.682882168034922 $187 $269 forward 7 unknown #
coedge $-1 $200 $199 $125 $193 reversed $184 $-1 #
edge $-1 $270 -72.682882168034922 $194 72.682882168034922 $192 $271 forward 7 unknown #
vertex $-1 $127 $272 #
vertex $-1 $206 $273 #
straight-curve $-1 72.682882168034922 0 -22.176546548001863 0 -1 0 I I #
coedge $-1 $186 $188 $128 $198 reversed $121 $-1 #
edge $-1 $201 -45.575696232963942 $204 45.575696232963942 $197 $274 forward 7 unknown #
coedge $-1 $192 $129 $134 $207 forward $184 $-1 #
coedge $-1 $129 $192 $186 $265 reversed $184 $-1 #
vertex $-1 $130 $275 #
straight-curve $-1 0 45.575696232963942 22.176546548001863 -1 0 0 I I #
coedge $-1 $131 $187 $133 $206 reversed $76 $-1 #
vertex $-1 $198 $276 #
straight-curve $-1 0 -45.575696232963942 22.176546548001863 1 0 0 I I #
edge $-1 $136 -22.176546548001863 $195 22.176546548001863 $133 $277 forward 7 unknown #
edge $-1 $137 -22.176546548001863 $194 22.176546548001863 $134 $278 forward 7 unknown #
point $-1 72.682882168034922 -45.575696232963942 22.176546548001863 #
point $-1 72.682882168034922 45.575696232963942 22.176546548001863 #
face $-1 $-1 $220 $19 $-1 $279 reversed single #
loop $-1 $-1 $216 $139 #
plane-surface $-1 0 0 -22.176546548001863 0 0 1 1 0 0 forward_v I I I I #
coedge $-1 $280 $281 $147 $224 forward $140 $-1 #
coedge $-1 $142 $228 $218 $282 forward $84 $-1 #
edge $-1 $222 -25.203837588808693 $152 -15.539879699501807 $142 $283 forward 7 unknown #
coedge $-1 $284 $148 $143 $217 forward $211 $-1 #
edge $-1 $153 15.539879699501807 $221 25.203837588808693 $216 $285 forward 7 unknown #
coedge $-1 $286 $145 $214 $282 reversed $220 $-1 #
coedge $-1 $145 $286 $284 $287 reversed $220 $-1 #
loop $-1 $-1 $145 $210 #
vertex $-1 $287 $288 #
vertex $-1 $146 $289 #
straight-curve $-1 -45.251968824779681 -45.575696232963942 0 0 0 1 I I #
edge $-1 $229 -22.176546548001863 $226 22.176546548001863 $213 $290 forward 7 unknown #
coedge $-1 $148 $284 $280 $291 forward $211 $-1 #
vertex $-1 $149 $292 #
straight-curve $-1 -29.483712748203651 -35.911738343657056 -22.176546548001863 1 0 0 I I #
coedge $-1 $214 $150 $281 $293 forward $84 $-1 #
vertex $-1 $293 $294 #
straight-curve $-1 -29.483712748203651 -35.911738343657056 22.176546548001863 -1 0 0 I I #
point $-1 -45.251968824779681 -35.911738343657056 22.176546548001863 #
point $-1 -45.251968824779681 -35.911738343657056 -22.176546548001863 #
plane-surface $-1 0 0 22.176546548001863 0 0 1 1 0 0 forward_v I I I I #
coedge $-1 $244 $243 $236 $295 forward $156 $-1 #
coedge $-1 $236 $158 $160 $240 reversed $92 $-1 #
coedge $-1 $158 $235 $234 $295 reversed $92 $-1 #
coedge $-1 $166 $161 $158 $238 forward $167 $-1 #
edge $-1 $241 -9.2446694921357562 $296 2.1636960597510253 $237 $297 forward 7 unknown #
coedge $-1 $160 $159 $244 $298 reversed $57 $-1 #
edge $-1 $299 -91.151392465927884 $241 -74.728405027564733 $235 $300 forward 7 unknown #
vertex $-1 $162 $301 #
straight-curve $-1 23.056064359702162 34.167330681077161 22.176546548001873 1 0 0 I I #
coedge $-1 $234 $163 $166 $248 reversed $156 $-1 #
coedge $-1 $163 $234 $239 $298 forward $156 $-1 #
vertex $-1 $164 $302 #
straight-curve $-1 31.679533250223848 45.575696232963942 88.455603424924306 0 0 1 I I #
straight-curve $-1 31.679533250223848 -17.743380744814459 75.931663115837225 0 0.69465836192734942 -0.71933980857756763 I I #
edge $-1 $296 -60.544724188584802 $168 -31.679533250223848 $243 $303 forward 7 unknown #
point $-1 31.679533250223848 45.575696232963942 22.176546548001863 #
point $-1 31.679533250223848 34.167330681077161 22.176546548001866 #
edge $-1 $304 1 $304 0 $171 $-1 forward 7 unknown #
vertex $-1 $172 $305 #
ellipse-curve $-1 37.452571437896054 36.226791835585296 12.750025554333323 0 0.71933980857756763 0.69465836192734942 2.5 0 0 1 I I #
point $-1 39.952571437896054 39.871513457020555 16.269692227909889 #
edge $-1 $306 1 $306 0 $175 $-1 forward 7 unknown #
vertex $-1 $176 $307 #
ellipse-curve $-1 46.112128719404353 36.226791835585296 12.750025554333323 0 0.71933980857756763 0.69465836192734942 2.5 0 0 1 I I #
point $-1 48.612128719404353 39.871513457020555 16.269692227909889 #
edge $-1 $308 1 $308 0 $179 $-1 forward 7 unknown #
vertex $-1 $180 $309 #
ellipse-curve $-1 54.771686000912638 36.226791835585296 12.750025554333323 0 0.71933980857756763 0.69465836192734942 2.5 0 0 1 I I #
point $-1 57.271686000912638 39.871513457020555 16.269692227909889 #
plane-surface $-1 72.682882168034922 0 0 -1 0 0 0 0 1 forward_v I I I I #
coedge $-1 $188 $186 $190 $268 reversed $121 $-1 #
edge $-1 $201 -22.176546548001863 $270 22.176546548001863 $200 $310 forward 7 unknown #
vertex $-1 $268 $311 #
straight-curve $-1 -72.682882168034922 -45.575696232963942 0 0 0 -1 I I #
edge $-1 $266 -45.575696232963942 $270 45.575696232963942 $264 $312 forward 7 unknown #
straight-curve $-1 0 -45.575696232963942 -22.176546548001863 -1 0 0 I I #
vertex $-1 $193 $313 #
straight-curve $-1 0 45.575696232963942 -22.176546548001863 1 0 0 I I #
point $-1 72.682882168034922 45.575696232963942 -22.176546548001863 #
point $-1 72.682882168034922 -45.575696232963942 -22.176546548001863 #
straight-curve $-1 -72.682882168034922 0 22.176546548001863 0 -1 0 I I #
point $-1 -72.682882168034922 45.575696232963942 22.176546548001863 #
point $-1 -72.682882168034922 -45.575696232963942 22.176546548001863 #
straight-curve $-1 72.682882168034922 -45.575696232963942 0 0 0 -1 I I #
straight-curve $-1 72.682882168034922 45.575696232963942 0 0 0 -1 I I #
plane-surface $-1 0 -45.575696232963942 0 0 1 0 0 0 1 forward_v I I I I #
coedge $-1 $314 $213 $225 $291 reversed $140 $-1 #
coedge $-1 $213 $314 $228 $293 reversed $140 $-1 #
edge $-1 $315 -72.682882168034922 $222 -45.251968824779681 $218 $316 forward 7 unknown #
straight-curve $-1 -45.251968824779681 -20.37185864415525 22.176546548001863 0 1 0 I I #
coedge $-1 $225 $216 $219 $287 forward $211 $-1 #
straight-curve $-1 -45.251968824779681 -20.37185864415525 -22.176546548001863 0 -1 0 I I #
coedge $-1 $219 $218 $314 $317 forward $220 $-1 #
edge $-1 $221 45.251968824779681 $318 72.682882168034922 $219 $319 forward 7 unknown #
point $-1 -45.251968824779681 -45.575696232963942 -22.176546548001863 #
point $-1 -45.251968824779681 -45.575696232963942 22.176546548001863 #
straight-curve $-1 -72.682882168034922 -35.911738343657056 0 0 0 -1 I I #
edge $-1 $318 -45.575696232963942 $226 -35.911738343657056 $280 $320 forward 7 unknown #
point $-1 -72.682882168034922 -35.911738343657056 -22.176546548001863 #
edge $-1 $229 35.911738343657056 $315 45.575696232963942 $281 $321 forward 7 unknown #
point $-1 -72.682882168034922 -35.911738343657056 22.176546548001863 #
edge $-1 $296 66.279056876922439 $299 78.092765517106386 $234 $322 forward 7 unknown #
vertex $-1 $248 $323 #
straight-curve $-1 60.544724188584802 43.412000173212917 22.176546548001866 0 1 0 I I #
edge $-1 $299 -37.488659828882639 $245 -8.6234688905216856 $244 $324 forward 7 unknown #
vertex $-1 $298 $325 #
straight-curve $-1 60.544724188584802 -17.743380744814459 75.931663115837225 0 -0.69465836192734942 0.71933980857756763 I I #
point $-1 60.544724188584802 34.167330681077161 22.176546548001866 #
point $-1 31.679533250223848 45.575696232963942 10.362837907817919 #
straight-curve $-1 0 45.575696232963942 22.176546548001863 -1 0 0 I I #
vertex $-1 $251 $326 #
point $-1 39.952571437896054 36.226791835585296 12.750025554333323 #
vertex $-1 $255 $327 #
point $-1 48.612128719404353 36.226791835585296 12.750025554333323 #
vertex $-1 $259 $328 #
point $-1 57.271686000912638 36.226791835585296 12.750025554333323 #
straight-curve $-1 -72.682882168034922 45.575696232963942 0 0 0 -1 I I #
point $-1 -72.682882168034922 -45.575696232963942 -22.176546548001863 #
straight-curve $-1 -72.682882168034922 0 -22.176546548001863 0 1 0 I I #
point $-1 -72.682882168034922 45.575696232963942 -22.176546548001863 #
coedge $-1 $281 $280 $286 $317 reversed $140 $-1 #
vertex $-1 $293 $329 #
straight-curve $-1 0 -45.575696232963942 22.176546548001863 1 0 0 I I #
edge $-1 $315 -22.176546548001863 $318 22.176546548001863 $314 $330 forward 7 unknown #
vertex $-1 $291 $331 #
straight-curve $-1 0 -45.575696232963942 -22.176546548001863 -1 0 0 I I #
straight-curve $-1 -72.682882168034922 0 -22.176546548001863 0 1 0 I I #
straight-curve $-1 -72.682882168034922 0 22.176546548001863 0 -1 0 I I #
straight-curve $-1 60.544724188584802 45.575696232963942 88.455603424924306 0 0 -1 I I #
point $-1 60.544724188584802 45.575696232963942 22.176546548001863 #
straight-curve $-1 23.056064359702162 45.575696232963942 10.362837907817923 -1 0 0 I I #
point $-1 60.544724188584802 45.575696232963942 10.362837907817919 #
point $-1 37.452571437896054 34.428442314141371 11.013379649514949 #
point $-1 46.112128719404353 34.428442314141371 11.013379649514949 #
point $-1 54.771686000912638 34.428442314141371 11.013379649514949 #
point $-1 -72.682882168034922 -45.575696232963942 22.176546548001863 #
straight-curve $-1 -72.682882168034922 -45.575696232963942 0 0 0 -1 I I #
point $-1 -72.682882168034922 -45.575696232963942 -22.176546548001863 #
End-of-ACIS-data 