500 0 6 0           
7 Unknown 11 ACIS 5.0 NT 24 Fri Mar 26 14:34:52 1999 
-1 9.9999999999999995e-007 1e-010 
body $-1 $6 $-1 $7 #
body $-1 $8 $-1 $9 #
body $-1 $10 $-1 $11 #
body $-1 $12 $-1 $13 #
body $-1 $14 $-1 $15 #
body $-1 $16 $-1 $17 #
lump $-1 $-1 $18 $0 #
transform $-1 1 0 0 0 1 0 0 0 1 46.092715231788077 22.952531995423435 8.7874847829397567 1 rotate no_reflect no_shear #
lump $-1 $-1 $19 $1 #
transform $-1 1 0 0 0 1 0 0 0 1 46.092715231788077 22.952531995423435 8.7874847829397567 1 rotate no_reflect no_shear #
lump $-1 $-1 $20 $2 #
transform $-1 1 0 0 0 1 0 0 0 1 46.092715231788077 22.952531995423435 8.7874847829397567 1 rotate no_reflect no_shear #
lump $-1 $-1 $21 $3 #
transform $-1 1 0 0 0 1 0 0 0 1 46.092715231788077 22.952531995423435 8.7874847829397567 1 rotate no_reflect no_shear #
lump $-1 $-1 $22 $4 #
transform $-1 1 0 0 0 1 0 0 0 1 46.092715231788077 22.952531995423435 8.7874847829397567 1 rotate no_reflect no_shear #
lump $-1 $-1 $23 $5 #
transform $-1 1 0 0 0 1 0 0 0 1 46.092715231788077 22.952531995423435 8.7874847829397567 1 rotate no_reflect no_shear #
shell $-1 $-1 $-1 $24 $-1 $6 #
shell $-1 $-1 $-1 $25 $-1 $8 #
shell $-1 $-1 $-1 $26 $-1 $10 #
shell $-1 $-1 $-1 $27 $-1 $12 #
shell $-1 $-1 $-1 $28 $-1 $14 #
shell $-1 $-1 $-1 $29 $-1 $16 #
face $-1 $30 $31 $18 $-1 $32 forward single #
face $-1 $33 $34 $19 $-1 $35 reversed single #
face $-1 $36 $37 $20 $-1 $38 reversed single #
face $-1 $39 $40 $21 $-1 $41 forward single #
face $-1 $42 $43 $22 $-1 $44 reversed single #
face $-1 $45 $46 $23 $-1 $47 forward single #
face $-1 $48 $49 $18 $-1 $50 reversed single #
loop $-1 $-1 $51 $24 #
plane-surface $-1 0 0 8.7874847829397567 0 0 1 1 0 0 forward_v I I I I #
face $-1 $52 $53 $19 $-1 $54 reversed single #
loop $-1 $-1 $55 $25 #
plane-surface $-1 -44.584599729091408 -14.339032277572946 0 0 -1 0 0 0 -1 forward_v I I I I #
face $-1 $56 $57 $20 $-1 $58 reversed single #
loop $-1 $-1 $59 $26 #
plane-surface $-1 73.198140538962463 14.426634830815836 132.0917031539787 0 1 0 0.83867057594974714 0 0.54463902268945019 forward_v I I I I #
face $-1 $60 $61 $21 $-1 $62 forward single #
loop $-1 $63 $64 $27 #
cone-surface $-1 43.639297276478402 18.689583413119635 5.9750004952273486 -0.83867057594974714 0 -0.54463902268945019 0.54463902268945019 0 -0.83867057594974714 1 I I 0 1 1 forward I I I I #
face $-1 $65 $66 $22 $-1 $67 reversed single #
loop $-1 $-1 $68 $28 #
plane-surface $-1 -123.40592329285086 14.426634830815836 54.778495092915918 0 1 0 -0.83867057594974714 0 0.54463902268945019 forward_v I I I I #
face $-1 $69 $70 $23 $-1 $71 forward single #
loop $-1 $72 $73 $29 #
cone-surface $-1 -43.639297276478402 18.689583413119635 5.9750004952273486 0.83867057594974714 0 -0.54463902268945019 0.54463902268945019 0 0.83867057594974714 1 I I 0 1 1 forward I I I I #
face $-1 $74 $75 $18 $-1 $76 reversed single #
loop $-1 $-1 $77 $30 #
plane-surface $-1 0 0 -8.7874847829397567 0 0 1 1 0 0 forward_v I I I I #
coedge $-1 $78 $79 $80 $81 forward $31 $-1 #
face $-1 $82 $83 $19 $-1 $84 forward single #
loop $-1 $-1 $85 $33 #
plane-surface $-1 -43.07648422639474 -18.645782136498191 0 -1 0 0 0 0 1 forward_v I I I I #
coedge $-1 $86 $87 $88 $89 forward $34 $-1 #
face $-1 $90 $91 $20 $-1 $92 reversed single #
loop $-1 $-1 $93 $36 #
plane-surface $-1 -4.1150675221003183 18.689583413119635 81.883920400090318 0.83867057594974714 0 0.54463902268945019 0.54463902268945019 0 -0.83867057594974714 forward_v I I I I #
coedge $-1 $94 $95 $96 $97 reversed $37 $-1 #
face $-1 $-1 $98 $21 $-1 $99 forward single #
loop $-1 $100 $101 $39 #
cone-surface $-1 42.135746011071376 18.689583413119635 4.9985829181263313 -0.83867057594974714 0 -0.54463902268945019 0.2723195113447251 0 -0.41933528797487357 1 I I -0.70710678118654746 0.70710678118654746 0.5 forward I I I I #
loop $-1 $-1 $102 $27 #
coedge $-1 $64 $64 $103 $104 reversed $40 $-1 #
face $-1 $105 $106 $22 $-1 $107 reversed single #
loop $-1 $-1 $108 $42 #
plane-surface $-1 -46.092715231788077 18.689583413119635 4.5707123390275299 -0.83867057594974714 0 0.54463902268945019 0.54463902268945019 0 0.83867057594974714 forward_v I I I I #
coedge $-1 $109 $110 $111 $112 reversed $43 $-1 #
face $-1 $-1 $113 $23 $-1 $114 forward single #
loop $-1 $115 $116 $45 #
cone-surface $-1 -42.135746011071376 18.689583413119635 4.9985829181263313 0.83867057594974714 0 -0.54463902268945019 0.2723195113447251 0 0.41933528797487357 1 I I -0.70710678118654746 0.70710678118654746 0.5 forward I I I I #
loop $-1 $-1 $117 $29 #
coedge $-1 $73 $73 $118 $119 reversed $46 $-1 #
face $-1 $120 $121 $18 $-1 $122 reversed single #
loop $-1 $-1 $123 $48 #
plane-surface $-1 0 -22.952531995423435 0 0 1 0 0 0 1 forward_v I I I I #
coedge $-1 $124 $125 $126 $127 forward $49 $-1 #
coedge $-1 $128 $51 $129 $130 forward $31 $-1 #
coedge $-1 $51 $128 $131 $132 forward $31 $-1 #
coedge $-1 $133 $134 $51 $81 reversed $135 $-1 #
edge $-1 $136 -22.952531995423435 $137 22.952531995423435 $80 $138 forward 7 unknown #
face $-1 $139 $140 $19 $-1 $141 reversed single #
loop $-1 $-1 $142 $52 #
plane-surface $-1 0 0 8.7874847829397567 0 0 1 1 0 0 forward_v I I I I #
coedge $-1 $143 $144 $145 $146 reversed $53 $-1 #
coedge $-1 $147 $55 $148 $149 reversed $34 $-1 #
coedge $-1 $55 $147 $150 $151 reversed $34 $-1 #
coedge $-1 $144 $143 $55 $89 reversed $53 $-1 #
edge $-1 $152 -8.7874847829397567 $153 8.7874847829397567 $88 $154 forward 7 unknown #
face $-1 $155 $156 $20 $-1 $157 reversed single #
loop $-1 $-1 $96 $56 #
plane-surface $-1 46.092715231788077 0 0 -1 0 0 0 0 1 forward_v I I I I #
coedge $-1 $158 $159 $160 $161 reversed $57 $-1 #
coedge $-1 $95 $59 $162 $163 reversed $37 $-1 #
coedge $-1 $59 $94 $158 $164 reversed $37 $-1 #
coedge $-1 $160 $165 $59 $97 forward $91 $-1 #
edge $-1 $166 57.258366794049593 $167 61.475139237961827 $96 $168 forward 7 unknown #
loop $-1 $-1 $103 $60 #
plane-surface $-1 -4.1150675221003183 18.689583413119635 81.883920400090318 0.83867057594974714 0 0.54463902268945019 0.54463902268945019 0 -0.83867057594974714 forward_v I I I I #
loop $-1 $-1 $169 $39 #
coedge $-1 $101 $101 $102 $170 reversed $61 $-1 #
coedge $-1 $102 $102 $101 $170 forward $63 $-1 #
coedge $-1 $103 $103 $64 $104 forward $98 $-1 #
edge $-1 $171 0 $171 6.2831853071796004 $103 $172 forward 7 unknown #
face $-1 $173 $174 $22 $-1 $175 reversed single #
loop $-1 $-1 $176 $65 #
plane-surface $-1 0 22.952531995423435 0 0 -1 0 0 0 -1 forward_v I I I I #
coedge $-1 $177 $178 $179 $180 reversed $66 $-1 #
coedge $-1 $110 $68 $181 $182 reversed $43 $-1 #
coedge $-1 $68 $109 $177 $183 reversed $43 $-1 #
coedge $-1 $179 $184 $68 $112 forward $185 $-1 #
edge $-1 $186 15.610246414637352 $187 18.348650370392406 $111 $188 forward 7 unknown #
loop $-1 $-1 $118 $69 #
plane-surface $-1 -46.092715231788077 18.689583413119635 4.5707123390275299 -0.83867057594974714 0 0.54463902268945019 0.54463902268945019 0 0.83867057594974714 forward_v I I I I #
loop $-1 $-1 $189 $45 #
coedge $-1 $116 $116 $117 $190 reversed $70 $-1 #
coedge $-1 $117 $117 $116 $190 forward $72 $-1 #
coedge $-1 $118 $118 $73 $119 forward $113 $-1 #
edge $-1 $191 0 $191 6.2831853071796004 $118 $192 forward 7 unknown #
face $-1 $193 $194 $18 $-1 $195 reversed single #
loop $-1 $-1 $196 $74 #
plane-surface $-1 -46.092715231788077 0 0 1 0 0 0 0 -1 forward_v I I I I #
coedge $-1 $197 $131 $198 $199 forward $75 $-1 #
coedge $-1 $200 $77 $197 $201 forward $49 $-1 #
coedge $-1 $77 $200 $202 $203 forward $49 $-1 #
coedge $-1 $134 $133 $77 $127 reversed $135 $-1 #
edge $-1 $204 -22.952531995423435 $205 22.952531995423435 $126 $206 forward 7 unknown #
coedge $-1 $79 $78 $207 $208 forward $31 $-1 #
coedge $-1 $209 $210 $78 $130 reversed $194 $-1 #
edge $-1 $137 -46.092715231788077 $211 46.092715231788077 $129 $212 forward 7 unknown #
coedge $-1 $123 $213 $79 $132 reversed $75 $-1 #
edge $-1 $214 -46.092715231788077 $136 46.092715231788077 $131 $215 forward 7 unknown #
coedge $-1 $126 $80 $213 $216 forward $135 $-1 #
coedge $-1 $80 $126 $209 $217 reversed $135 $-1 #
loop $-1 $-1 $133 $193 #
vertex $-1 $81 $218 #
vertex $-1 $81 $219 #
straight-curve $-1 46.092715231788077 0 8.7874847829397567 0 1 0 I I #
face $-1 $220 $221 $19 $-1 $222 reversed single #
loop $-1 $-1 $223 $82 #
plane-surface $-1 -46.092715231788077 0 0 1 0 0 0 0 -1 forward_v I I I I #
coedge $-1 $150 $224 $144 $225 forward $83 $-1 #
coedge $-1 $88 $85 $226 $227 reversed $53 $-1 #
coedge $-1 $85 $88 $142 $225 reversed $53 $-1 #
coedge $-1 $228 $229 $85 $146 forward $230 $-1 #
edge $-1 $231 -8.7874847829397567 $232 8.7874847829397567 $145 $233 forward 7 unknown #
coedge $-1 $87 $86 $223 $234 reversed $34 $-1 #
coedge $-1 $226 $235 $86 $149 forward $221 $-1 #
edge $-1 $236 -23.800415367242373 $153 -20.784184361849036 $148 $237 forward 7 unknown #
coedge $-1 $238 $142 $87 $151 forward $83 $-1 #
edge $-1 $152 20.784184361849036 $239 23.800415367242373 $150 $240 forward 7 unknown #
vertex $-1 $151 $241 #
vertex $-1 $149 $242 #
straight-curve $-1 -43.07648422639474 -14.339032277572946 0 0 0 -1 I I #
face $-1 $-1 $243 $20 $-1 $244 forward single #
loop $-1 $-1 $245 $90 #
plane-surface $-1 0 22.952531995423435 0 0 -1 0 0 0 -1 forward_v I I I I #
coedge $-1 $246 $93 $95 $164 forward $57 $-1 #
coedge $-1 $93 $246 $245 $247 reversed $57 $-1 #
coedge $-1 $248 $96 $93 $161 forward $91 $-1 #
edge $-1 $167 5.081843124256018 $249 13.607740288863617 $160 $250 forward 7 unknown #
coedge $-1 $251 $252 $94 $163 forward $243 $-1 #
edge $-1 $253 6.7552410065517847 $166 9.4936449623068455 $162 $254 forward 7 unknown #
edge $-1 $167 -92.185430463576182 $253 -87.157505835199913 $95 $255 forward 7 unknown #
coedge $-1 $96 $248 $251 $256 reversed $91 $-1 #
vertex $-1 $256 $257 #
vertex $-1 $97 $258 #
straight-curve $-1 46.092715231788077 14.426634830815836 66.045851576989349 0 0 -1 I I #
coedge $-1 $169 $169 $-1 $259 reversed $100 $-1 #
edge $-1 $260 0 $260 6.2831853071796004 $101 $261 forward 7 unknown #
vertex $-1 $104 $262 #
ellipse-curve $-1 44.723513253910546 18.689583413119635 6.6790985609836371 0.83867057594974714 0 0.54463902268945019 0.54463902268945019 0 -0.83867057594974714 1 I I #
face $-1 $-1 $185 $22 $-1 $263 forward single #
loop $-1 $-1 $264 $105 #
plane-surface $-1 -46.092715231788077 0 0 1 0 0 0 0 -1 forward_v I I I I #
coedge $-1 $265 $266 $178 $267 forward $106 $-1 #
coedge $-1 $268 $108 $110 $183 forward $66 $-1 #
coedge $-1 $108 $268 $176 $267 reversed $66 $-1 #
coedge $-1 $269 $111 $108 $180 forward $185 $-1 #
edge $-1 $187 5.081843124256018 $270 13.607740288863617 $179 $271 forward 7 unknown #
coedge $-1 $272 $264 $109 $182 forward $174 $-1 #
edge $-1 $273 -22.818535207430429 $186 -18.601762763518202 $181 $274 forward 7 unknown #
edge $-1 $187 -5.0279246283762467 $273 0 $110 $275 forward 7 unknown #
coedge $-1 $111 $269 $272 $276 forward $185 $-1 #
loop $-1 $-1 $179 $173 #
vertex $-1 $182 $277 #
vertex $-1 $112 $278 #
straight-curve $-1 -61.702961646425429 14.426634830815836 8.7874847829397567 1 0 0 I I #
coedge $-1 $189 $189 $-1 $279 reversed $115 $-1 #
edge $-1 $280 0 $280 6.2831853071796004 $116 $281 forward 7 unknown #
vertex $-1 $119 $282 #
ellipse-curve $-1 -44.723513253910554 18.689583413119635 6.6790985609836406 -0.83867057594974714 0 0.54463902268945019 0.54463902268945019 0 0.83867057594974714 1 I I #
face $-1 $-1 $135 $18 $-1 $283 reversed single #
loop $-1 $-1 $209 $120 #
plane-surface $-1 0 22.952531995423435 0 0 -1 0 0 0 -1 forward_v I I I I #
coedge $-1 $284 $207 $210 $285 forward $121 $-1 #
coedge $-1 $213 $123 $124 $201 reversed $75 $-1 #
coedge $-1 $207 $284 $123 $199 reversed $121 $-1 #
edge $-1 $214 -8.7874847829397567 $286 8.7874847829397567 $198 $287 forward 7 unknown #
coedge $-1 $125 $124 $284 $288 forward $49 $-1 #
edge $-1 $205 -46.092715231788077 $286 46.092715231788077 $197 $289 forward 7 unknown #
coedge $-1 $210 $209 $125 $203 reversed $194 $-1 #
edge $-1 $290 -46.092715231788077 $204 46.092715231788077 $202 $291 forward 7 unknown #
vertex $-1 $127 $292 #
vertex $-1 $216 $293 #
straight-curve $-1 46.092715231788077 0 -8.7874847829397567 0 -1 0 I I #
coedge $-1 $196 $198 $128 $208 reversed $121 $-1 #
edge $-1 $211 -22.952531995423435 $214 22.952531995423435 $207 $294 forward 7 unknown #
coedge $-1 $202 $129 $134 $217 forward $194 $-1 #
coedge $-1 $129 $202 $196 $285 reversed $194 $-1 #
vertex $-1 $130 $295 #
straight-curve $-1 0 22.952531995423435 8.7874847829397567 -1 0 0 I I #
coedge $-1 $131 $197 $133 $216 reversed $75 $-1 #
vertex $-1 $208 $296 #
straight-curve $-1 0 -22.952531995423435 8.7874847829397567 1 0 0 I I #
edge $-1 $136 -8.7874847829397567 $205 8.7874847829397567 $133 $297 forward 7 unknown #
edge $-1 $137 -8.7874847829397567 $204 8.7874847829397567 $134 $298 forward 7 unknown #
point $-1 46.092715231788077 -22.952531995423435 8.7874847829397567 #
point $-1 46.092715231788077 22.952531995423435 8.7874847829397567 #
face $-1 $-1 $230 $19 $-1 $299 reversed single #
loop $-1 $-1 $226 $139 #
plane-surface $-1 0 0 -8.7874847829397567 0 0 1 1 0 0 forward_v I I I I #
coedge $-1 $300 $301 $147 $234 forward $140 $-1 #
coedge $-1 $142 $238 $228 $302 forward $83 $-1 #
edge $-1 $232 -13.629640927174339 $152 -5.01614120932385 $142 $303 forward 7 unknown #
coedge $-1 $304 $148 $143 $227 forward $221 $-1 #
edge $-1 $153 5.01614120932385 $231 13.629640927174339 $226 $305 forward 7 unknown #
coedge $-1 $306 $145 $224 $302 reversed $230 $-1 #
coedge $-1 $145 $306 $304 $307 reversed $230 $-1 #
loop $-1 $-1 $145 $220 #
vertex $-1 $307 $308 #
vertex $-1 $146 $309 #
straight-curve $-1 -43.07648422639474 -22.952531995423435 0 0 0 1 I I #
edge $-1 $239 -8.7874847829397567 $236 8.7874847829397567 $223 $310 forward 7 unknown #
coedge $-1 $148 $304 $300 $311 forward $221 $-1 #
vertex $-1 $149 $312 #
straight-curve $-1 -22.292299864545704 -14.339032277572946 -8.7874847829397567 1 0 0 I I #
coedge $-1 $224 $150 $301 $313 forward $83 $-1 #
vertex $-1 $313 $314 #
straight-curve $-1 -22.292299864545704 -14.339032277572946 8.7874847829397567 -1 0 0 I I #
point $-1 -43.07648422639474 -14.339032277572946 8.7874847829397567 #
point $-1 -43.07648422639474 -14.339032277572946 -8.7874847829397567 #
loop $-1 $-1 $162 $155 #
plane-surface $-1 0 0 8.7874847829397567 0 0 1 1 0 0 forward_v I I I I #
coedge $-1 $315 $316 $159 $247 forward $156 $-1 #
coedge $-1 $159 $158 $252 $317 reversed $57 $-1 #
edge $-1 $249 -56.727999945323759 $318 -51.700075316947505 $245 $319 forward 7 unknown #
coedge $-1 $165 $160 $316 $320 reversed $91 $-1 #
vertex $-1 $247 $321 #
straight-curve $-1 46.092715231788077 9.3447917065598176 4.5707123390275299 0 1 0 I I #
coedge $-1 $322 $162 $165 $256 forward $243 $-1 #
coedge $-1 $162 $322 $246 $317 forward $243 $-1 #
vertex $-1 $163 $323 #
straight-curve $-1 36.599070269481231 14.426634830815836 8.7874847829397567 1 0 0 I I #
straight-curve $-1 -4.1150675221003183 14.426634830815836 81.883920400090318 -0.54463902268945019 0 0.83867057594974714 I I #
edge $-1 $166 14.426634830815836 $324 22.952531995423435 $165 $325 forward 7 unknown #
point $-1 46.092715231788077 14.426634830815836 8.7874847829397567 #
point $-1 46.092715231788077 14.426634830815836 4.5707123390275228 #
edge $-1 $326 1 $326 0 $169 $-1 forward 7 unknown #
vertex $-1 $170 $327 #
ellipse-curve $-1 42.55508129904625 18.689583413119635 5.2709024294710565 0.83867057594974714 0 0.54463902268945019 0.54463902268945019 0 -0.83867057594974714 1 I I #
point $-1 45.268152276599999 18.689583413119635 5.8404279850338945 #
plane-surface $-1 0 0 8.7874847829397567 0 0 1 1 0 0 forward_v I I I I #
coedge $-1 $181 $328 $268 $329 forward $174 $-1 #
coedge $-1 $266 $176 $328 $330 reversed $106 $-1 #
coedge $-1 $176 $265 $269 $331 reversed $106 $-1 #
edge $-1 $270 5.6073600851594332 $332 10.635284713535679 $176 $333 forward 7 unknown #
coedge $-1 $178 $177 $264 $329 reversed $66 $-1 #
coedge $-1 $184 $179 $266 $331 forward $185 $-1 #
vertex $-1 $331 $334 #
straight-curve $-1 -43.354311276033016 9.3447917065598176 8.7874847829397567 0 1 0 I I #
coedge $-1 $328 $181 $184 $276 reversed $174 $-1 #
vertex $-1 $182 $335 #
straight-curve $-1 -46.092715231788077 14.426634830815836 27.389247546457959 0 0 1 I I #
straight-curve $-1 -46.092715231788077 14.426634830815836 4.5707123390275299 -0.54463902268945019 0 -0.83867057594974714 I I #
edge $-1 $336 -22.952531995423435 $186 -14.426634830815836 $272 $337 forward 7 unknown #
point $-1 -46.092715231788077 14.426634830815836 8.7874847829397567 #
point $-1 -43.354311276033023 14.426634830815836 8.7874847829397567 #
edge $-1 $338 1 $338 0 $189 $-1 forward 7 unknown #
vertex $-1 $190 $339 #
ellipse-curve $-1 -42.55508129904625 18.689583413119635 5.2709024294710565 -0.83867057594974714 0 0.54463902268945019 0.54463902268945019 0 0.83867057594974714 1 I I #
point $-1 -44.178874231221101 18.689583413119635 7.5177691369333886 #
plane-surface $-1 46.092715231788077 0 0 -1 0 0 0 0 1 forward_v I I I I #
coedge $-1 $198 $196 $200 $288 reversed $121 $-1 #
edge $-1 $211 -8.7874847829397567 $290 8.7874847829397567 $210 $340 forward 7 unknown #
vertex $-1 $288 $341 #
straight-curve $-1 -46.092715231788077 -22.952531995423435 0 0 0 -1 I I #
edge $-1 $286 -22.952531995423435 $290 22.952531995423435 $284 $342 forward 7 unknown #
straight-curve $-1 0 -22.952531995423435 -8.7874847829397567 -1 0 0 I I #
vertex $-1 $203 $343 #
straight-curve $-1 0 22.952531995423435 -8.7874847829397567 1 0 0 I I #
point $-1 46.092715231788077 22.952531995423435 -8.7874847829397567 #
point $-1 46.092715231788077 -22.952531995423435 -8.7874847829397567 #
straight-curve $-1 -46.092715231788077 0 8.7874847829397567 0 -1 0 I I #
point $-1 -46.092715231788077 22.952531995423435 8.7874847829397567 #
point $-1 -46.092715231788077 -22.952531995423435 8.7874847829397567 #
straight-curve $-1 46.092715231788077 -22.952531995423435 0 0 0 -1 I I #
straight-curve $-1 46.092715231788077 22.952531995423435 0 0 0 -1 I I #
plane-surface $-1 0 -22.952531995423435 0 0 1 0 0 0 1 forward_v I I I I #
coedge $-1 $344 $223 $235 $311 reversed $140 $-1 #
coedge $-1 $223 $344 $238 $313 reversed $140 $-1 #
edge $-1 $345 -46.092715231788077 $232 -43.07648422639474 $228 $346 forward 7 unknown #
straight-curve $-1 -43.07648422639474 -9.3228910682490955 8.7874847829397567 0 1 0 I I #
coedge $-1 $235 $226 $229 $307 forward $221 $-1 #
straight-curve $-1 -43.07648422639474 -9.3228910682490955 -8.7874847829397567 0 -1 0 I I #
coedge $-1 $229 $228 $344 $347 forward $230 $-1 #
edge $-1 $231 43.07648422639474 $348 46.092715231788077 $229 $349 forward 7 unknown #
point $-1 -43.07648422639474 -22.952531995423435 -8.7874847829397567 #
point $-1 -43.07648422639474 -22.952531995423435 8.7874847829397567 #
straight-curve $-1 -46.092715231788077 -14.339032277572946 0 0 0 -1 I I #
edge $-1 $348 -22.952531995423435 $236 -14.339032277572946 $300 $350 forward 7 unknown #
point $-1 -46.092715231788077 -14.339032277572946 -8.7874847829397567 #
edge $-1 $239 14.339032277572946 $345 22.952531995423435 $301 $351 forward 7 unknown #
point $-1 -46.092715231788077 -14.339032277572946 8.7874847829397567 #
coedge $-1 $316 $245 $322 $352 reversed $156 $-1 #
coedge $-1 $245 $315 $248 $320 forward $156 $-1 #
edge $-1 $318 -13.607740288863617 $253 -5.081843124256018 $252 $353 forward 7 unknown #
vertex $-1 $247 $354 #
straight-curve $-1 15.196432782439757 22.952531995423435 52.14681672564943 -0.54463902268945019 0 0.83867057594974714 I I #
edge $-1 $324 -8.7874847829397567 $249 -4.5707123390275273 $248 $355 forward 7 unknown #
point $-1 46.092715231788077 22.952531995423435 4.5707123390275273 #
coedge $-1 $252 $251 $315 $352 forward $243 $-1 #
point $-1 43.354311276033016 14.426634830815836 8.7874847829397567 #
vertex $-1 $256 $356 #
straight-curve $-1 46.092715231788077 0 8.7874847829397567 0 1 0 I I #
vertex $-1 $259 $357 #
point $-1 43.099720321735703 18.689583413119635 4.4322318535213094 #
coedge $-1 $264 $272 $265 $330 forward $174 $-1 #
edge $-1 $332 -13.607740288863617 $273 -5.081843124256018 $264 $358 forward 7 unknown #
edge $-1 $336 -8.7874847829397567 $332 -4.5707123390275299 $265 $359 forward 7 unknown #
edge $-1 $270 43.354311276033023 $336 46.092715231788077 $266 $360 forward 7 unknown #
vertex $-1 $329 $361 #
straight-curve $-1 -40.300324159383955 22.952531995423435 13.490212695118039 -0.54463902268945019 0 -0.83867057594974714 I I #
point $-1 -43.354311276033023 22.952531995423435 8.7874847829397567 #
point $-1 -46.092715231788077 14.426634830815836 4.5707123390275299 #
vertex $-1 $331 $362 #
straight-curve $-1 -46.092715231788077 0 8.7874847829397567 0 -1 0 I I #
vertex $-1 $279 $363 #
point $-1 -42.010442276356798 18.689583413119635 6.1095730054208035 #
straight-curve $-1 -46.092715231788077 22.952531995423435 0 0 0 -1 I I #
point $-1 -46.092715231788077 -22.952531995423435 -8.7874847829397567 #
straight-curve $-1 -46.092715231788077 0 -8.7874847829397567 0 1 0 I I #
point $-1 -46.092715231788077 22.952531995423435 -8.7874847829397567 #
coedge $-1 $301 $300 $306 $347 reversed $140 $-1 #
vertex $-1 $313 $364 #
straight-curve $-1 0 -22.952531995423435 8.7874847829397567 1 0 0 I I #
edge $-1 $345 -8.7874847829397567 $348 8.7874847829397567 $344 $365 forward 7 unknown #
vertex $-1 $311 $366 #
straight-curve $-1 0 -22.952531995423435 -8.7874847829397567 -1 0 0 I I #
straight-curve $-1 -46.092715231788077 0 -8.7874847829397567 0 1 0 I I #
straight-curve $-1 -46.092715231788077 0 8.7874847829397567 0 -1 0 I I #
edge $-1 $324 -46.092715231788077 $318 -43.354311276033016 $315 $367 forward 7 unknown #
straight-curve $-1 43.354311276033016 9.3447917065598176 8.7874847829397638 0 -1 0 I I #
point $-1 43.354311276033016 22.952531995423435 8.7874847829397567 #
straight-curve $-1 46.092715231788077 22.952531995423435 0 0 0 -1 I I #
point $-1 46.092715231788077 22.952531995423435 8.7874847829397567 #
point $-1 41.716410723096502 18.689583413119635 4.7262634067816061 #
straight-curve $-1 -46.092715231788077 9.3447917065598176 4.570712339027529 0 -1 0 I I #
straight-curve $-1 -46.092715231788077 22.952531995423435 0 0 0 -1 I I #
straight-curve $-1 0 22.952531995423435 8.7874847829397567 -1 0 0 I I #
point $-1 -46.092715231788077 22.952531995423435 4.5707123390275299 #
point $-1 -46.092715231788077 22.952531995423435 8.7874847829397567 #
point $-1 -41.716410723096502 18.689583413119635 4.7262634067816061 #
point $-1 -46.092715231788077 -22.952531995423435 8.7874847829397567 #
straight-curve $-1 -46.092715231788077 -22.952531995423435 0 0 0 -1 I I #
point $-1 -46.092715231788077 -22.952531995423435 -8.7874847829397567 #
straight-curve $-1 0 22.952531995423435 8.7874847829397567 -1 0 0 I I #
End-of-ACIS-data 