500 0 6 0           
7 Unknown 11 ACIS 5.0 NT 24 Thu Mar 25 22:00:21 1999 
-1 9.9999999999999995e-007 1e-010 
body $-1 $6 $-1 $7 #
body $-1 $8 $-1 $9 #
body $-1 $10 $-1 $11 #
body $-1 $12 $-1 $13 #
body $-1 $14 $-1 $15 #
body $-1 $16 $-1 $17 #
lump $-1 $-1 $18 $0 #
transform $-1 1 0 0 0 1 0 0 0 1 73.700979644154188 38.182941994726313 15.967571009586973 1 rotate no_reflect no_shear #
lump $-1 $-1 $19 $1 #
transform $-1 1 0 0 0 1 0 0 0 1 73.700979644154188 38.182941994726313 15.967571009586973 1 rotate no_reflect no_shear #
lump $-1 $-1 $20 $2 #
transform $-1 1 0 0 0 1 0 0 0 1 73.700979644154188 38.182941994726313 15.967571009586973 1 rotate no_reflect no_shear #
lump $-1 $-1 $21 $3 #
transform $-1 1 0 0 0 1 0 0 0 1 73.700979644154188 38.182941994726313 15.967571009586973 1 rotate no_reflect no_shear #
lump $-1 $-1 $22 $4 #
transform $-1 1 0 0 0 1 0 0 0 1 73.700979644154188 38.182941994726313 15.967571009586973 1 rotate no_reflect no_shear #
lump $-1 $-1 $23 $5 #
transform $-1 1 0 0 0 1 0 0 0 1 73.700979644154188 38.182941994726313 15.967571009586973 1 rotate no_reflect no_shear #
shell $-1 $-1 $-1 $24 $-1 $6 #
shell $-1 $-1 $-1 $25 $-1 $8 #
shell $-1 $-1 $-1 $26 $-1 $10 #
shell $-1 $-1 $-1 $27 $-1 $12 #
shell $-1 $-1 $-1 $28 $-1 $14 #
shell $-1 $-1 $-1 $29 $-1 $16 #
face $-1 $30 $31 $18 $-1 $32 forward single #
face $-1 $33 $34 $19 $-1 $35 forward single #
face $-1 $36 $37 $20 $-1 $38 reversed single #
face $-1 $39 $40 $21 $-1 $41 forward single #
face $-1 $42 $43 $22 $-1 $44 reversed single #
face $-1 $45 $46 $23 $-1 $47 forward single #
face $-1 $48 $49 $18 $-1 $50 reversed single #
loop $-1 $-1 $51 $24 #
plane-surface $-1 0 0 15.967571009586973 0 0 1 1 0 0 forward_v I I I I #
face $-1 $52 $53 $19 $-1 $54 reversed single #
loop $-1 $-1 $55 $25 #
plane-surface $-1 0 -30.929394977108529 -1.1551658324936902 0 0 1 1 0 0 forward_v I I I I #
face $-1 $56 $57 $20 $-1 $58 reversed single #
loop $-1 $-1 $59 $26 #
plane-surface $-1 124.13150093260978 -5.011954297257283 206.13382981923453 0 1 0 0.85716730853699208 0 0.51503806187062418 forward_v I I I I #
face $-1 $60 $61 $21 $-1 $62 forward single #
loop $-1 $63 $64 $27 #
cone-surface $-1 66.008066064970976 2.6514411616083748 7.479614093510218 -0.85716730853699208 0 -0.51503806187062418 1.2875951546765605 0 -2.1429182713424804 1 I I 0 1 2.5 forward I I I I #
face $-1 $65 $66 $22 $-1 $67 reversed single #
loop $-1 $-1 $68 $28 #
plane-surface $-1 -179.73307682256436 31.788645676664579 108.36271924212575 0 1 0 -0.71933980857756763 0 0.69465836192734942 forward_v I I I I #
face $-1 $69 $70 $23 $-1 $71 forward single #
loop $-1 $72 $73 $29 #
cone-surface $-1 -67.181157084402201 34.985793835695439 9.3342641274795533 0.71933980857756763 0 -0.69465836192734942 1.0419875428910241 0 1.0790097128663514 1 I I 0 1 1.5 forward I I I I #
face $-1 $74 $75 $18 $-1 $76 reversed single #
loop $-1 $-1 $77 $30 #
plane-surface $-1 0 0 -15.967571009586973 0 0 1 1 0 0 forward_v I I I I #
coedge $-1 $78 $79 $80 $81 forward $31 $-1 #
face $-1 $82 $83 $19 $-1 $84 reversed single #
loop $-1 $-1 $85 $33 #
plane-surface $-1 0 -30.929394977108529 -7.220669429293185 0 0 1 1 0 0 forward_v I I I I #
coedge $-1 $86 $87 $88 $89 reversed $34 $-1 #
face $-1 $90 $91 $20 $-1 $92 reversed single #
loop $-1 $-1 $93 $36 #
plane-surface $-1 -2.2166397836287928 2.6514411616083748 130.21621039145154 0.85716730853699208 0 0.51503806187062418 0.51503806187062418 0 -0.85716730853699208 forward_v I I I I #
coedge $-1 $94 $95 $96 $97 reversed $37 $-1 #
face $-1 $-1 $98 $21 $-1 $99 forward single #
loop $-1 $100 $101 $39 #
cone-surface $-1 60.878750155708673 2.6514411616083748 4.3976102672821646 -0.85716730853699208 0 -0.51503806187062418 0.64379757733828025 0 -1.0714591356712402 1 I I -0.70710678118654746 0.70710678118654746 1.25 forward I I I I #
loop $-1 $-1 $102 $27 #
coedge $-1 $64 $64 $103 $104 reversed $40 $-1 #
face $-1 $105 $106 $22 $-1 $107 forward single #
loop $-1 $-1 $108 $42 #
plane-surface $-1 -73.700979644154188 34.985793835695439 5.9687156580276053 -0.71933980857756763 0 0.69465836192734942 0.69465836192734942 0 0.71933980857756763 forward_v I I I I #
coedge $-1 $109 $110 $111 $112 reversed $43 $-1 #
face $-1 $-1 $113 $23 $-1 $114 forward single #
loop $-1 $115 $116 $45 #
cone-surface $-1 -64.949720740586201 34.985793835695439 7.1793911497063085 0.71933980857756763 0 -0.69465836192734942 0.52099377144551207 0 0.53950485643317569 1 I I -0.70710678118654791 0.70710678118654702 0.75 forward I I I I #
loop $-1 $-1 $117 $29 #
coedge $-1 $73 $73 $118 $119 reversed $46 $-1 #
face $-1 $120 $121 $18 $-1 $122 reversed single #
loop $-1 $-1 $123 $48 #
plane-surface $-1 0 -38.182941994726313 0 0 1 0 0 0 1 forward_v I I I I #
coedge $-1 $124 $125 $126 $127 forward $49 $-1 #
coedge $-1 $128 $51 $129 $130 forward $31 $-1 #
coedge $-1 $51 $128 $131 $132 forward $31 $-1 #
coedge $-1 $133 $134 $51 $81 reversed $135 $-1 #
edge $-1 $136 -38.182941994726313 $137 38.182941994726313 $80 $138 forward 7 unknown #
face $-1 $139 $140 $19 $-1 $141 reversed single #
loop $-1 $-1 $142 $52 #
plane-surface $-1 0 -23.675847959490746 -4.1879176308934376 0 -1 0 0 0 -1 forward_v I I I I #
coedge $-1 $143 $144 $145 $146 reversed $53 $-1 #
coedge $-1 $147 $55 $148 $149 forward $34 $-1 #
coedge $-1 $55 $147 $150 $151 reversed $34 $-1 #
coedge $-1 $152 $153 $55 $89 forward $154 $-1 #
edge $-1 $155 8.2111504709364809 $156 22.718244506172049 $88 $157 forward 7 unknown #
face $-1 $158 $159 $20 $-1 $160 forward single #
loop $-1 $-1 $161 $56 #
plane-surface $-1 124.13150093260978 10.314836620474033 206.13382981923453 0 -1 0 -0.85716730853699208 0 -0.51503806187062418 forward_v I I I I #
coedge $-1 $162 $163 $164 $165 reversed $57 $-1 #
coedge $-1 $95 $59 $166 $167 reversed $37 $-1 #
coedge $-1 $59 $94 $162 $168 reversed $37 $-1 #
coedge $-1 $164 $169 $59 $97 forward $170 $-1 #
edge $-1 $171 87.099343900030291 $172 99.19884523440426 $96 $173 forward 7 unknown #
loop $-1 $-1 $103 $60 #
plane-surface $-1 -2.2166397836287928 2.6514411616083748 130.21621039145154 0.85716730853699208 0 0.51503806187062418 0.51503806187062418 0 -0.85716730853699208 forward_v I I I I #
loop $-1 $-1 $174 $39 #
coedge $-1 $101 $101 $102 $175 reversed $61 $-1 #
coedge $-1 $102 $102 $101 $175 forward $63 $-1 #
coedge $-1 $103 $103 $64 $104 forward $98 $-1 #
edge $-1 $176 0 $176 6.2831853071796004 $103 $177 forward 7 unknown #
face $-1 $178 $179 $22 $-1 $180 reversed single #
loop $-1 $-1 $111 $65 #
plane-surface $-1 0 0 15.967571009586973 0 0 1 1 0 0 forward_v I I I I #
coedge $-1 $181 $182 $183 $184 reversed $66 $-1 #
coedge $-1 $110 $68 $185 $186 reversed $43 $-1 #
coedge $-1 $68 $109 $181 $187 reversed $43 $-1 #
coedge $-1 $183 $188 $68 $112 forward $106 $-1 #
edge $-1 $189 16.16555876712799 $190 25.821340911866287 $111 $191 forward 7 unknown #
loop $-1 $-1 $118 $69 #
plane-surface $-1 -73.700979644154188 34.985793835695439 5.9687156580276053 -0.71933980857756763 0 0.69465836192734942 0.69465836192734942 0 0.71933980857756763 forward_v I I I I #
loop $-1 $-1 $192 $45 #
coedge $-1 $116 $116 $117 $193 reversed $70 $-1 #
coedge $-1 $117 $117 $116 $193 forward $72 $-1 #
coedge $-1 $118 $118 $73 $119 forward $113 $-1 #
edge $-1 $194 0 $194 6.2831853071796004 $118 $195 forward 7 unknown #
face $-1 $196 $197 $18 $-1 $198 reversed single #
loop $-1 $-1 $199 $74 #
plane-surface $-1 -73.700979644154188 0 0 1 0 0 0 0 -1 forward_v I I I I #
coedge $-1 $200 $131 $201 $202 forward $75 $-1 #
coedge $-1 $203 $77 $200 $204 forward $49 $-1 #
coedge $-1 $77 $203 $205 $206 forward $49 $-1 #
coedge $-1 $134 $133 $77 $127 reversed $135 $-1 #
edge $-1 $207 -38.182941994726313 $208 38.182941994726313 $126 $209 forward 7 unknown #
coedge $-1 $79 $78 $210 $211 forward $31 $-1 #
coedge $-1 $212 $213 $78 $130 reversed $197 $-1 #
edge $-1 $137 -73.700979644154188 $214 73.700979644154188 $129 $215 forward 7 unknown #
coedge $-1 $123 $216 $79 $132 reversed $75 $-1 #
edge $-1 $217 -73.700979644154188 $136 73.700979644154188 $131 $218 forward 7 unknown #
coedge $-1 $126 $80 $216 $219 forward $135 $-1 #
coedge $-1 $80 $126 $212 $220 reversed $135 $-1 #
loop $-1 $-1 $133 $196 #
vertex $-1 $81 $221 #
vertex $-1 $81 $222 #
straight-curve $-1 73.700979644154188 0 15.967571009586973 0 1 0 I I #
face $-1 $223 $224 $19 $-1 $225 reversed single #
loop $-1 $-1 $226 $82 #
plane-surface $-1 -73.700979644154188 0 0 1 0 0 0 0 -1 forward_v I I I I #
coedge $-1 $227 $148 $153 $228 reversed $83 $-1 #
coedge $-1 $229 $85 $230 $231 reversed $53 $-1 #
coedge $-1 $85 $229 $227 $232 forward $53 $-1 #
coedge $-1 $153 $152 $85 $146 forward $154 $-1 #
edge $-1 $233 -22.718244506172049 $234 -8.2111504709364809 $145 $235 forward 7 unknown #
coedge $-1 $87 $86 $226 $236 reversed $34 $-1 #
coedge $-1 $142 $237 $86 $149 reversed $83 $-1 #
edge $-1 $155 -73.700979644154188 $238 73.700979644154188 $148 $239 forward 7 unknown #
coedge $-1 $240 $241 $87 $151 forward $224 $-1 #
edge $-1 $156 -73.700979644154188 $242 73.700979644154188 $150 $243 forward 7 unknown #
coedge $-1 $145 $88 $241 $244 forward $154 $-1 #
coedge $-1 $88 $145 $142 $228 forward $154 $-1 #
loop $-1 $-1 $88 $223 #
vertex $-1 $89 $245 #
vertex $-1 $244 $246 #
straight-curve $-1 73.700979644154188 -15.464697488554265 -1.1551658324936902 0 -1 0 I I #
face $-1 $-1 $170 $20 $-1 $247 reversed single #
loop $-1 $-1 $248 $90 #
plane-surface $-1 0 0 15.967571009586973 0 0 1 1 0 0 forward_v I I I I #
coedge $-1 $249 $250 $251 $252 reversed $91 $-1 #
coedge $-1 $253 $93 $95 $168 forward $57 $-1 #
coedge $-1 $93 $253 $249 $254 forward $57 $-1 #
coedge $-1 $251 $96 $93 $165 forward $170 $-1 #
edge $-1 $172 -6.3376748780614705 $255 8.9891160396698453 $164 $256 forward 7 unknown #
coedge $-1 $257 $258 $94 $167 forward $159 $-1 #
edge $-1 $259 4.365115566664997 $171 11.635229177849297 $166 $260 forward 7 unknown #
edge $-1 $172 -147.40195928830838 $259 -133.28627707099966 $95 $261 forward 7 unknown #
coedge $-1 $96 $251 $257 $262 reversed $170 $-1 #
loop $-1 $-1 $251 $158 #
vertex $-1 $262 $263 #
vertex $-1 $97 $264 #
straight-curve $-1 73.700979644154188 -5.011954297257283 103.06691490961727 0 0 -1 I I #
coedge $-1 $174 $174 $-1 $265 reversed $100 $-1 #
edge $-1 $266 0 $266 6.2831853071796004 $101 $267 forward 7 unknown #
vertex $-1 $104 $268 #
ellipse-curve $-1 70.065922838562031 2.6514411616083748 9.9178203423999882 0.85716730853699208 0 0.51503806187062418 1.2875951546765605 0 -2.1429182713424804 1 I I #
face $-1 $-1 $269 $22 $-1 $270 reversed single #
loop $-1 $-1 $271 $105 #
plane-surface $-1 0 38.182941994726313 0 0 -1 0 0 0 -1 forward_v I I I I #
coedge $-1 $272 $108 $110 $187 forward $66 $-1 #
coedge $-1 $108 $272 $271 $273 reversed $66 $-1 #
coedge $-1 $274 $111 $108 $184 forward $106 $-1 #
edge $-1 $190 14.29574875881686 $275 20.69004507687858 $183 $276 forward 7 unknown #
coedge $-1 $277 $278 $109 $186 forward $269 $-1 #
edge $-1 $279 -48.212643963035269 $189 -38.213788611475906 $185 $280 forward 7 unknown #
edge $-1 $190 -13.900044502376756 $279 0 $110 $281 forward 7 unknown #
coedge $-1 $111 $274 $277 $282 forward $106 $-1 #
vertex $-1 $186 $283 #
vertex $-1 $112 $284 #
straight-curve $-1 -89.866538411282178 31.788645676664579 15.967571009586969 1 0 0 I I #
coedge $-1 $192 $192 $-1 $285 reversed $115 $-1 #
edge $-1 $286 0 $286 6.2831853071796004 $116 $287 forward 7 unknown #
vertex $-1 $119 $288 #
ellipse-curve $-1 -68.873088571785033 34.985793835695439 10.968143333807292 -0.71933980857756763 0 0.69465836192734942 1.0419875428910241 0 1.0790097128663514 1 I I #
face $-1 $-1 $135 $18 $-1 $289 reversed single #
loop $-1 $-1 $212 $120 #
plane-surface $-1 0 38.182941994726313 0 0 -1 0 0 0 -1 forward_v I I I I #
coedge $-1 $290 $210 $213 $291 forward $121 $-1 #
coedge $-1 $216 $123 $124 $204 reversed $75 $-1 #
coedge $-1 $210 $290 $123 $202 reversed $121 $-1 #
edge $-1 $217 -15.967571009586973 $292 15.967571009586973 $201 $293 forward 7 unknown #
coedge $-1 $125 $124 $290 $294 forward $49 $-1 #
edge $-1 $208 -73.700979644154188 $292 73.700979644154188 $200 $295 forward 7 unknown #
coedge $-1 $213 $212 $125 $206 reversed $197 $-1 #
edge $-1 $296 -73.700979644154188 $207 73.700979644154188 $205 $297 forward 7 unknown #
vertex $-1 $127 $298 #
vertex $-1 $219 $299 #
straight-curve $-1 73.700979644154188 0 -15.967571009586973 0 -1 0 I I #
coedge $-1 $199 $201 $128 $211 reversed $121 $-1 #
edge $-1 $214 -38.182941994726313 $217 38.182941994726313 $210 $300 forward 7 unknown #
coedge $-1 $205 $129 $134 $220 forward $197 $-1 #
coedge $-1 $129 $205 $199 $291 reversed $197 $-1 #
vertex $-1 $130 $301 #
straight-curve $-1 0 38.182941994726313 15.967571009586973 -1 0 0 I I #
coedge $-1 $131 $200 $133 $219 reversed $75 $-1 #
vertex $-1 $211 $302 #
straight-curve $-1 0 -38.182941994726313 15.967571009586973 1 0 0 I I #
edge $-1 $136 -15.967571009586973 $208 15.967571009586973 $133 $303 forward 7 unknown #
edge $-1 $137 -15.967571009586973 $207 15.967571009586973 $134 $304 forward 7 unknown #
point $-1 73.700979644154188 -38.182941994726313 15.967571009586973 #
point $-1 73.700979644154188 38.182941994726313 15.967571009586973 #
face $-1 $-1 $154 $19 $-1 $305 reversed single #
loop $-1 $-1 $150 $139 #
plane-surface $-1 0 -38.182941994726313 0 0 1 0 0 0 1 forward_v I I I I #
coedge $-1 $306 $307 $147 $236 forward $140 $-1 #
coedge $-1 $237 $142 $144 $232 reversed $83 $-1 #
edge $-1 $234 -5.1267106138464662 $155 0.9387929829530286 $153 $308 forward 7 unknown #
coedge $-1 $144 $143 $309 $310 reversed $53 $-1 #
coedge $-1 $241 $240 $143 $231 forward $224 $-1 #
edge $-1 $311 -73.700979644154188 $233 73.700979644154188 $230 $312 forward 7 unknown #
edge $-1 $313 -73.700979644154188 $234 73.700979644154188 $227 $314 forward 7 unknown #
vertex $-1 $231 $315 #
vertex $-1 $146 $316 #
straight-curve $-1 73.700979644154188 -15.464697488554265 -7.220669429293185 0 1 0 I I #
edge $-1 $242 -22.718244506172049 $238 -8.2111504709364809 $226 $317 forward 7 unknown #
coedge $-1 $148 $227 $306 $318 reversed $83 $-1 #
vertex $-1 $236 $319 #
straight-curve $-1 0 -23.675847959490746 -1.1551658324936902 -1 0 0 I I #
coedge $-1 $230 $150 $307 $320 forward $224 $-1 #
coedge $-1 $150 $230 $152 $244 reversed $224 $-1 #
vertex $-1 $320 $321 #
straight-curve $-1 0 -38.182941994726313 -1.1551658324936902 -1 0 0 I I #
edge $-1 $156 1.1551658324936902 $233 7.220669429293185 $152 $322 forward 7 unknown #
point $-1 73.700979644154188 -23.675847959490746 -1.1551658324936902 #
point $-1 73.700979644154188 -38.182941994726313 -1.1551658324936902 #
plane-surface $-1 73.700979644154188 0 0 -1 0 0 0 0 1 forward_v I I I I #
coedge $-1 $258 $257 $250 $323 forward $159 $-1 #
coedge $-1 $250 $161 $163 $254 reversed $91 $-1 #
coedge $-1 $161 $249 $248 $323 reversed $91 $-1 #
coedge $-1 $169 $164 $161 $252 forward $170 $-1 #
edge $-1 $255 -99.19884523440426 $324 -87.099343900030291 $251 $325 forward 7 unknown #
coedge $-1 $163 $162 $258 $326 reversed $57 $-1 #
edge $-1 $327 133.28627707099966 $255 147.40195928830838 $249 $328 forward 7 unknown #
vertex $-1 $165 $329 #
straight-curve $-1 73.700979644154188 1.3257205808041874 3.8680696752129933 0 1 0 I I #
coedge $-1 $248 $166 $169 $262 forward $159 $-1 #
coedge $-1 $166 $248 $253 $326 forward $159 $-1 #
vertex $-1 $167 $330 #
straight-curve $-1 62.065750466304891 -5.011954297257283 15.967571009586976 1 0 0 I I #
straight-curve $-1 -2.2166397836287928 -5.011954297257283 130.21621039145154 -0.51503806187062418 0 0.85716730853699208 I I #
edge $-1 $171 -5.011954297257283 $324 10.314836620474033 $169 $331 forward 7 unknown #
point $-1 73.700979644154188 -5.011954297257283 15.967571009586973 #
point $-1 73.700979644154188 -5.011954297257283 3.8680696752130075 #
edge $-1 $332 1 $332 0 $174 $-1 forward 7 unknown #
vertex $-1 $175 $333 #
ellipse-curve $-1 61.950209291379913 2.6514411616083748 5.0414078446204451 0.85716730853699208 0 0.51503806187062418 1.2875951546765605 0 -2.1429182713424804 1 I I #
point $-1 71.353517993238583 2.6514411616083748 7.774902071057511 #
loop $-1 $-1 $185 $178 #
plane-surface $-1 -73.700979644154188 0 0 1 0 0 0 0 -1 forward_v I I I I #
coedge $-1 $334 $335 $182 $273 forward $179 $-1 #
coedge $-1 $182 $181 $278 $336 reversed $66 $-1 #
edge $-1 $275 9.5516890041980265 $337 23.451733506574783 $271 $338 forward 7 unknown #
coedge $-1 $188 $183 $335 $339 forward $106 $-1 #
vertex $-1 $339 $340 #
straight-curve $-1 -64.045197499415892 17.49289691784772 15.967571009586974 0 1 0 I I #
coedge $-1 $341 $185 $188 $282 reversed $269 $-1 #
coedge $-1 $185 $341 $272 $336 forward $269 $-1 #
vertex $-1 $186 $342 #
straight-curve $-1 -73.700979644154188 31.788645676664579 54.181359621062875 0 0 1 I I #
straight-curve $-1 -73.700979644154188 31.788645676664579 5.9687156580276053 -0.69465836192734942 0 -0.71933980857756763 I I #
edge $-1 $343 -38.182941994726313 $189 -31.788645676664579 $277 $344 forward 7 unknown #
point $-1 -73.700979644154188 31.788645676664579 15.967571009586973 #
point $-1 -64.045197499415892 31.788645676664579 15.967571009586973 #
edge $-1 $345 1 $345 0 $192 $-1 forward 7 unknown #
vertex $-1 $193 $346 #
ellipse-curve $-1 -65.48922559701937 34.985793835695439 7.7003849211518203 -0.71933980857756763 0 0.69465836192734942 1.0419875428910241 0 1.0790097128663514 1 I I #
point $-1 -67.831101028894011 34.985793835695439 12.047153046673639 #
plane-surface $-1 73.700979644154188 0 0 -1 0 0 0 0 1 forward_v I I I I #
coedge $-1 $201 $199 $203 $294 reversed $121 $-1 #
edge $-1 $214 -15.967571009586973 $296 15.967571009586973 $213 $347 forward 7 unknown #
vertex $-1 $294 $348 #
straight-curve $-1 -73.700979644154188 -38.182941994726313 0 0 0 -1 I I #
edge $-1 $292 -38.182941994726313 $296 38.182941994726313 $290 $349 forward 7 unknown #
straight-curve $-1 0 -38.182941994726313 -15.967571009586973 -1 0 0 I I #
vertex $-1 $206 $350 #
straight-curve $-1 0 38.182941994726313 -15.967571009586973 1 0 0 I I #
point $-1 73.700979644154188 38.182941994726313 -15.967571009586973 #
point $-1 73.700979644154188 -38.182941994726313 -15.967571009586973 #
straight-curve $-1 -73.700979644154188 0 15.967571009586973 0 -1 0 I I #
point $-1 -73.700979644154188 38.182941994726313 15.967571009586973 #
point $-1 -73.700979644154188 -38.182941994726313 15.967571009586973 #
straight-curve $-1 73.700979644154188 -38.182941994726313 0 0 0 -1 I I #
straight-curve $-1 73.700979644154188 38.182941994726313 0 0 0 -1 I I #
plane-surface $-1 73.700979644154188 0 0 -1 0 0 0 0 1 forward_v I I I I #
coedge $-1 $309 $226 $237 $318 forward $140 $-1 #
coedge $-1 $226 $309 $240 $320 reversed $140 $-1 #
straight-curve $-1 73.700979644154188 -23.675847959490746 -2.0939588154467188 0 0 1 I I #
coedge $-1 $307 $306 $229 $310 forward $140 $-1 #
edge $-1 $313 8.2111504709364809 $311 22.718244506172049 $309 $351 forward 7 unknown #
vertex $-1 $231 $352 #
straight-curve $-1 0 -38.182941994726313 -7.220669429293185 1 0 0 I I #
vertex $-1 $310 $353 #
straight-curve $-1 0 -23.675847959490746 -7.220669429293185 1 0 0 I I #
point $-1 73.700979644154188 -38.182941994726313 -7.220669429293185 #
point $-1 73.700979644154188 -23.675847959490746 -7.220669429293185 #
straight-curve $-1 -73.700979644154188 -15.464697488554265 -1.1551658324936902 0 1 0 I I #
edge $-1 $238 -0.9387929829530286 $313 5.1267106138464662 $306 $354 forward 7 unknown #
point $-1 -73.700979644154188 -23.675847959490746 -1.1551658324936902 #
edge $-1 $242 1.1551658324936902 $311 7.220669429293185 $307 $355 forward 7 unknown #
point $-1 -73.700979644154188 -38.182941994726313 -1.1551658324936902 #
straight-curve $-1 73.700979644154188 -38.182941994726313 0 0 0 -1 I I #
edge $-1 $324 -11.635229177849297 $327 -4.365115566664997 $248 $356 forward 7 unknown #
vertex $-1 $323 $357 #
straight-curve $-1 73.700979644154188 10.314836620474033 103.06691490961727 0 0 1 I I #
edge $-1 $327 -8.9891160396698453 $259 6.3376748780614705 $258 $358 forward 7 unknown #
vertex $-1 $326 $359 #
straight-curve $-1 -2.2166397836287928 10.314836620474033 130.21621039145154 0.51503806187062418 0 -0.85716730853699208 I I #
point $-1 73.700979644154188 10.314836620474033 3.8680696752130075 #
point $-1 66.430866032969888 -5.011954297257283 15.967571009586976 #
straight-curve $-1 73.700979644154188 0 15.967571009586973 0 1 0 I I #
vertex $-1 $265 $360 #
point $-1 63.237804446056472 2.6514411616083748 2.8984895732779643 #
coedge $-1 $335 $271 $341 $361 reversed $179 $-1 #
coedge $-1 $271 $334 $274 $339 reversed $179 $-1 #
edge $-1 $337 -20.69004507687858 $279 -14.29574875881686 $278 $362 forward 7 unknown #
vertex $-1 $273 $363 #
straight-curve $-1 -57.410036862120215 38.182941994726313 22.838481149459238 -0.69465836192734942 0 -0.71933980857756763 I I #
edge $-1 $275 64.045197499415892 $343 73.700979644154188 $335 $364 forward 7 unknown #
point $-1 -64.045197499415892 38.182941994726299 15.967571009586973 #
coedge $-1 $278 $277 $334 $361 forward $269 $-1 #
point $-1 -73.700979644154188 31.788645676664579 5.9687156580276053 #
vertex $-1 $339 $365 #
straight-curve $-1 -73.700979644154188 0 15.967571009586973 0 -1 0 I I #
vertex $-1 $285 $366 #
point $-1 -64.447238054128348 34.985793835695439 8.7793946340181712 #
straight-curve $-1 -73.700979644154188 38.182941994726313 0 0 0 -1 I I #
point $-1 -73.700979644154188 -38.182941994726313 -15.967571009586973 #
straight-curve $-1 -73.700979644154188 0 -15.967571009586973 0 1 0 I I #
point $-1 -73.700979644154188 38.182941994726313 -15.967571009586973 #
straight-curve $-1 -73.700979644154188 -15.464697488554265 -7.220669429293185 0 -1 0 I I #
point $-1 -73.700979644154188 -38.182941994726313 -7.220669429293185 #
point $-1 -73.700979644154188 -23.675847959490746 -7.220669429293185 #
straight-curve $-1 -73.700979644154188 -23.675847959490746 -2.0939588154467188 0 0 -1 I I #
straight-curve $-1 -73.700979644154188 -38.182941994726313 0 0 0 -1 I I #
straight-curve $-1 62.065750466304891 10.314836620474033 15.967571009586976 -1 0 0 I I #
point $-1 73.700979644154188 10.314836620474033 15.967571009586973 #
straight-curve $-1 66.430866032969874 1.3257205808041874 15.967571009586962 0 -1 0 I I #
point $-1 66.430866032969888 10.314836620474033 15.967571009586976 #
point $-1 59.807291020037432 2.6514411616083748 3.7538126899438842 #
edge $-1 $343 -15.967571009586973 $337 -5.9687156580276053 $334 $367 forward 7 unknown #
straight-curve $-1 -73.700979644154188 17.49289691784772 5.9687156580276071 0 -1 0 I I #
point $-1 -73.700979644154188 38.182941994726299 5.9687156580276053 #
straight-curve $-1 0 38.182941994726313 15.967571009586973 -1 0 0 I I #
point $-1 -73.700979644154188 38.182941994726313 15.967571009586973 #
point $-1 -64.410215884153033 34.985793835695439 6.6583973782607968 #
straight-curve $-1 -73.700979644154188 38.182941994726313 0 0 0 -1 I I #
End-of-ACIS-data 