500 0 13 0           
7 Unknown 11 ACIS 5.0 NT 24 Fri Mar 26 20:34:48 1999 
-1 9.9999999999999995e-007 1e-010 
body $-1 $13 $-1 $14 #
body $-1 $15 $-1 $16 #
body $-1 $17 $-1 $18 #
body $-1 $19 $-1 $20 #
body $-1 $21 $-1 $22 #
body $-1 $23 $-1 $24 #
body $-1 $25 $-1 $26 #
body $-1 $27 $-1 $28 #
body $-1 $29 $-1 $30 #
body $-1 $31 $-1 $32 #
body $-1 $33 $-1 $34 #
body $-1 $35 $-1 $36 #
body $-1 $37 $-1 $38 #
lump $-1 $-1 $39 $0 #
transform $-1 1 0 0 0 1 0 0 0 1 63.491927854243599 32.356720348510926 7.1897349524055674 1 rotate no_reflect no_shear #
lump $-1 $-1 $40 $1 #
transform $-1 1 0 0 0 1 0 0 0 1 63.491927854243599 32.356720348510926 7.1897349524055674 1 rotate no_reflect no_shear #
lump $-1 $-1 $41 $2 #
transform $-1 1 0 0 0 1 0 0 0 1 63.491927854243599 32.356720348510926 7.1897349524055674 1 rotate no_reflect no_shear #
lump $-1 $-1 $42 $3 #
transform $-1 1 0 0 0 1 0 0 0 1 63.491927854243599 32.356720348510926 7.1897349524055674 1 rotate no_reflect no_shear #
lump $-1 $-1 $43 $4 #
transform $-1 1 0 0 0 1 0 0 0 1 63.491927854243599 32.356720348510926 7.1897349524055674 1 rotate no_reflect no_shear #
lump $-1 $-1 $44 $5 #
transform $-1 1 0 0 0 1 0 0 0 1 63.491927854243599 32.356720348510926 7.1897349524055674 1 rotate no_reflect no_shear #
lump $-1 $-1 $45 $6 #
transform $-1 1 0 0 0 1 0 0 0 1 63.491927854243599 32.356720348510926 7.1897349524055674 1 rotate no_reflect no_shear #
lump $-1 $-1 $46 $7 #
transform $-1 1 0 0 0 1 0 0 0 1 63.491927854243599 32.356720348510926 7.1897349524055674 1 rotate no_reflect no_shear #
lump $-1 $-1 $47 $8 #
transform $-1 1 0 0 0 1 0 0 0 1 63.491927854243599 32.356720348510926 7.1897349524055674 1 rotate no_reflect no_shear #
lump $-1 $-1 $48 $9 #
transform $-1 1 0 0 0 1 0 0 0 1 63.491927854243599 32.356720348510926 7.1897349524055674 1 rotate no_reflect no_shear #
lump $-1 $-1 $49 $10 #
transform $-1 1 0 0 0 1 0 0 0 1 63.491927854243599 32.356720348510926 7.1897349524055674 1 rotate no_reflect no_shear #
lump $-1 $-1 $50 $11 #
transform $-1 1 0 0 0 1 0 0 0 1 63.491927854243599 32.356720348510926 7.1897349524055674 1 rotate no_reflect no_shear #
lump $-1 $-1 $51 $12 #
transform $-1 1 0 0 0 1 0 0 0 1 63.491927854243599 32.356720348510926 7.1897349524055674 1 rotate no_reflect no_shear #
shell $-1 $-1 $-1 $52 $-1 $13 #
shell $-1 $-1 $-1 $53 $-1 $15 #
shell $-1 $-1 $-1 $54 $-1 $17 #
shell $-1 $-1 $-1 $55 $-1 $19 #
shell $-1 $-1 $-1 $56 $-1 $21 #
shell $-1 $-1 $-1 $57 $-1 $23 #
shell $-1 $-1 $-1 $58 $-1 $25 #
shell $-1 $-1 $-1 $59 $-1 $27 #
shell $-1 $-1 $-1 $60 $-1 $29 #
shell $-1 $-1 $-1 $61 $-1 $31 #
shell $-1 $-1 $-1 $62 $-1 $33 #
shell $-1 $-1 $-1 $63 $-1 $35 #
shell $-1 $-1 $-1 $64 $-1 $37 #
face $-1 $65 $66 $39 $-1 $67 reversed single #
face $-1 $68 $69 $40 $-1 $70 forward single #
face $-1 $71 $72 $41 $-1 $73 forward single #
face $-1 $74 $75 $42 $-1 $76 reversed single #
face $-1 $77 $78 $43 $-1 $79 forward single #
face $-1 $80 $81 $44 $-1 $82 forward single #
face $-1 $83 $84 $45 $-1 $85 reversed single #
face $-1 $86 $87 $46 $-1 $88 forward single #
face $-1 $89 $90 $47 $-1 $91 forward single #
face $-1 $92 $93 $48 $-1 $94 reversed single #
face $-1 $95 $96 $49 $-1 $97 forward single #
face $-1 $98 $99 $50 $-1 $100 forward single #
face $-1 $101 $102 $51 $-1 $103 forward single #
face $-1 $104 $105 $39 $-1 $106 reversed single #
loop $-1 $-1 $107 $52 #
plane-surface $-1 63.491927854243599 0 0 -1 0 0 0 0 1 forward_v I I I I #
face $-1 $108 $109 $40 $-1 $110 reversed single #
loop $-1 $-1 $111 $53 #
plane-surface $-1 -63.491927854243599 0 0 1 0 0 0 0 -1 forward_v I I I I #
face $-1 $112 $113 $41 $-1 $114 reversed single #
loop $-1 $-1 $115 $54 #
plane-surface $-1 63.491927854243599 0 0 -1 0 0 0 0 1 forward_v I I I I #
face $-1 $116 $117 $42 $-1 $118 reversed single #
loop $-1 $-1 $119 $55 #
plane-surface $-1 0 -131.04171203342412 80.859469752152648 -1 0 0 0 -0.77714596973225614 0.62932038083071107 forward_v I I I I #
face $-1 $120 $121 $43 $-1 $122 forward single #
loop $-1 $123 $124 $56 #
cone-surface $-1 -14.639030263415215 -28.872541228735674 3.2935898821758585 0 0.77714596973225614 -0.62932038083071107 1 0 0 1 I I 0 1 1 forward I I I I #
face $-1 $125 $126 $44 $-1 $127 forward single #
loop $-1 $128 $129 $57 #
cone-surface $-1 -5.8556121053660846 -28.872541228735674 3.2935898821758585 0 0.77714596973225614 -0.62932038083071107 1 0 0 1 I I 0 1 1 forward I I I I #
face $-1 $130 $131 $45 $-1 $132 reversed single #
loop $-1 $-1 $133 $58 #
plane-surface $-1 20.494642368781307 -131.04171203342412 80.859469752152648 -1 0 0 0 -0.77714596973225614 0.62932038083071107 forward_v I I I I #
face $-1 $134 $135 $46 $-1 $136 forward single #
loop $-1 $137 $138 $59 #
cone-surface $-1 5.8556121053660917 -28.872541228735674 3.2935898821758585 0 0.77714596973225614 -0.62932038083071107 1 0 0 1 I I 0 1 1 forward I I I I #
face $-1 $139 $140 $47 $-1 $141 forward single #
loop $-1 $142 $143 $60 #
cone-surface $-1 14.639030263415222 -28.872541228735674 3.2935898821758585 0 0.77714596973225614 -0.62932038083071107 1 0 0 1 I I 0 1 1 forward I I I I #
face $-1 $144 $145 $48 $-1 $146 reversed single #
loop $-1 $-1 $147 $61 #
plane-surface $-1 -55.008391682395867 69.234047614512463 139.41052486311924 1 0 0 0 -0.66913061440640931 -0.74314481823134659 forward_v I I I I #
face $-1 $148 $149 $49 $-1 $150 forward single #
loop $-1 $151 $152 $62 #
cone-surface $-1 -52.506548182641822 28.43665143991069 3.4720434971553935 0 -0.66913061440640931 -0.74314481823134659 1 0 0 1 I I 0 1 1 forward I I I I #
face $-1 $153 $154 $50 $-1 $155 forward single #
loop $-1 $156 $157 $63 #
cone-surface $-1 -48.753782933010747 28.43665143991069 3.4720434971553935 0 -0.66913061440640931 -0.74314481823134659 1 0 0 1 I I 0 1 1 forward I I I I #
face $-1 $158 $159 $51 $-1 $160 forward single #
loop $-1 $161 $162 $64 #
cone-surface $-1 -45.001017683379672 28.43665143991069 3.4720434971553935 0 -0.66913061440640931 -0.74314481823134659 1 0 0 1 I I 0 1 1 forward I I I I #
face $-1 $163 $164 $39 $-1 $165 forward single #
loop $-1 $-1 $166 $65 #
plane-surface $-1 -63.491927854243599 0 0 1 0 0 0 0 -1 forward_v I I I I #
coedge $-1 $167 $168 $169 $170 reversed $66 $-1 #
face $-1 $171 $172 $40 $-1 $173 reversed single #
loop $-1 $-1 $174 $68 #
plane-surface $-1 0 0 -7.1897349524055674 0 0 1 1 0 0 forward_v I I I I #
coedge $-1 $175 $176 $177 $178 forward $69 $-1 #
face $-1 $179 $180 $41 $-1 $181 reversed single #
loop $-1 $-1 $182 $71 #
plane-surface $-1 0 0 -7.1897349524055674 0 0 1 1 0 0 forward_v I I I I #
coedge $-1 $183 $184 $185 $186 forward $72 $-1 #
face $-1 $187 $188 $42 $-1 $189 reversed single #
loop $-1 $-1 $190 $74 #
plane-surface $-1 -10.24732118439065 -32.356720348510947 0.94594131833541439 0 -0.77714596973225614 0.62932038083071107 1 0 0 forward_v I I I I #
coedge $-1 $191 $192 $193 $194 reversed $75 $-1 #
face $-1 $-1 $195 $43 $-1 $196 forward single #
loop $-1 $197 $198 $77 #
cone-surface $-1 -14.639030263415215 -27.527851251840477 2.2046814385658724 0 0.77714596973225614 -0.62932038083071107 0.5 0 0 1 I I -0.70710678118654746 0.70710678118654746 0.5 forward I I I I #
loop $-1 $-1 $199 $56 #
coedge $-1 $124 $124 $200 $201 reversed $78 $-1 #
face $-1 $-1 $202 $44 $-1 $203 forward single #
loop $-1 $204 $205 $80 #
cone-surface $-1 -5.8556121053660846 -27.527851251840477 2.2046814385658724 0 0.77714596973225614 -0.62932038083071107 0.5 0 0 1 I I -0.70710678118654746 0.70710678118654746 0.5 forward I I I I #
loop $-1 $-1 $206 $57 #
coedge $-1 $129 $129 $207 $208 reversed $81 $-1 #
face $-1 $209 $210 $45 $-1 $211 forward single #
loop $-1 $-1 $212 $83 #
plane-surface $-1 -10.24732118439065 -32.356720348510947 0.94594131833541439 0 -0.77714596973225614 0.62932038083071107 1 0 0 forward_v I I I I #
coedge $-1 $213 $214 $215 $216 reversed $84 $-1 #
face $-1 $-1 $217 $46 $-1 $218 forward single #
loop $-1 $219 $220 $86 #
cone-surface $-1 5.8556121053660917 -27.527851251840477 2.2046814385658724 0 0.77714596973225614 -0.62932038083071107 0.5 0 0 1 I I -0.70710678118654746 0.70710678118654746 0.5 forward I I I I #
loop $-1 $-1 $221 $59 #
coedge $-1 $138 $138 $222 $223 reversed $87 $-1 #
face $-1 $-1 $224 $47 $-1 $225 forward single #
loop $-1 $226 $227 $89 #
cone-surface $-1 14.639030263415222 -27.527851251840477 2.2046814385658724 0 0.77714596973225614 -0.62932038083071107 0.5 0 0 1 I I -0.70710678118654746 0.70710678118654746 0.5 forward I I I I #
loop $-1 $-1 $228 $60 #
coedge $-1 $143 $143 $229 $230 reversed $90 $-1 #
face $-1 $231 $232 $48 $-1 $233 reversed single #
loop $-1 $-1 $234 $92 #
plane-surface $-1 -48.753782933010747 -15.734737775402408 45.043130494319968 0 0.66913061440640931 0.74314481823134659 1 0 0 forward_v I I I I #
coedge $-1 $235 $236 $237 $238 reversed $93 $-1 #
face $-1 $-1 $239 $49 $-1 $240 forward single #
loop $-1 $241 $242 $95 #
cone-surface $-1 -52.506548182641822 27.207519335014858 2.1069540288078255 0 -0.66913061440640931 -0.74314481823134659 0.5 0 0 1 I I -0.70710678118654746 0.70710678118654746 0.5 forward I I I I #
loop $-1 $-1 $243 $62 #
coedge $-1 $152 $152 $244 $245 reversed $96 $-1 #
face $-1 $-1 $246 $50 $-1 $247 forward single #
loop $-1 $248 $249 $98 #
cone-surface $-1 -48.753782933010747 27.207519335014858 2.1069540288078255 0 -0.66913061440640931 -0.74314481823134659 0.5 0 0 1 I I -0.70710678118654746 0.70710678118654746 0.5 forward I I I I #
loop $-1 $-1 $250 $63 #
coedge $-1 $157 $157 $251 $252 reversed $99 $-1 #
face $-1 $-1 $253 $51 $-1 $254 forward single #
loop $-1 $255 $256 $101 #
cone-surface $-1 -45.001017683379672 27.207519335014858 2.1069540288078255 0 -0.66913061440640931 -0.74314481823134659 0.5 0 0 1 I I -0.70710678118654746 0.70710678118654746 0.5 forward I I I I #
loop $-1 $-1 $257 $64 #
coedge $-1 $162 $162 $258 $259 reversed $102 $-1 #
face $-1 $260 $261 $39 $-1 $262 reversed single #
loop $-1 $-1 $263 $104 #
plane-surface $-1 0 0 7.1897349524055674 0 0 1 1 0 0 forward_v I I I I #
coedge $-1 $264 $265 $266 $267 reversed $105 $-1 #
coedge $-1 $268 $107 $269 $270 reversed $66 $-1 #
coedge $-1 $107 $268 $271 $272 forward $66 $-1 #
coedge $-1 $273 $274 $107 $170 forward $261 $-1 #
edge $-1 $275 -32.356720348510926 $276 32.356720348510926 $107 $277 forward 7 unknown #
face $-1 $278 $279 $40 $-1 $280 reversed single #
loop $-1 $-1 $281 $108 #
plane-surface $-1 -67.733695940167465 -30.035818301516912 0 0 1 0 0 0 1 forward_v I I I I #
coedge $-1 $282 $283 $176 $284 forward $109 $-1 #
coedge $-1 $285 $111 $286 $287 reversed $69 $-1 #
coedge $-1 $111 $285 $174 $284 reversed $69 $-1 #
coedge $-1 $288 $289 $111 $178 reversed $290 $-1 #
edge $-1 $291 -7.1897349524055674 $292 7.1897349524055674 $177 $293 forward 7 unknown #
face $-1 $294 $295 $41 $-1 $296 reversed single #
loop $-1 $-1 $185 $112 #
plane-surface $-1 67.733695940167465 -30.035818301516912 0 0 1 0 0 0 1 forward_v I I I I #
coedge $-1 $297 $298 $184 $299 forward $113 $-1 #
coedge $-1 $300 $115 $301 $302 reversed $72 $-1 #
coedge $-1 $115 $300 $182 $299 reversed $72 $-1 #
coedge $-1 $303 $304 $115 $186 reversed $180 $-1 #
edge $-1 $305 -7.1897349524055674 $306 7.1897349524055674 $185 $307 forward 7 unknown #
face $-1 $308 $309 $42 $-1 $310 forward single #
loop $-1 $-1 $311 $116 #
plane-surface $-1 -20.4946423687813 -131.04171203342412 80.859469752152648 1 0 0 0 0.77714596973225614 -0.62932038083071107 forward_v I I I I #
coedge $-1 $312 $313 $314 $315 reversed $117 $-1 #
coedge $-1 $192 $119 $316 $317 reversed $75 $-1 #
coedge $-1 $119 $191 $312 $318 reversed $75 $-1 #
coedge $-1 $314 $319 $119 $194 forward $309 $-1 #
edge $-1 $320 33.164135668201133 $321 38.220259923693483 $193 $322 forward 7 unknown #
loop $-1 $-1 $200 $120 #
plane-surface $-1 -10.24732118439065 -32.356720348510947 0.94594131833541439 0 -0.77714596973225614 0.62932038083071107 1 0 0 forward_v I I I I #
loop $-1 $-1 $323 $77 #
coedge $-1 $198 $198 $199 $324 reversed $121 $-1 #
coedge $-1 $199 $199 $198 $324 forward $123 $-1 #
coedge $-1 $200 $200 $124 $201 forward $195 $-1 #
edge $-1 $325 -7.2023940852280121e-016 $325 6.2831853071795996 $200 $326 forward 7 unknown #
loop $-1 $-1 $207 $125 #
plane-surface $-1 -10.24732118439065 -32.356720348510947 0.94594131833541439 0 -0.77714596973225614 0.62932038083071107 1 0 0 forward_v I I I I #
loop $-1 $-1 $327 $80 #
coedge $-1 $205 $205 $206 $328 reversed $126 $-1 #
coedge $-1 $206 $206 $205 $328 forward $128 $-1 #
coedge $-1 $207 $207 $129 $208 forward $202 $-1 #
edge $-1 $329 -7.2023940852280121e-016 $329 6.2831853071795996 $207 $330 forward 7 unknown #
face $-1 $331 $332 $45 $-1 $333 forward single #
loop $-1 $-1 $334 $130 #
plane-surface $-1 0 0 7.1897349524055674 0 0 1 1 0 0 forward_v I I I I #
coedge $-1 $335 $336 $337 $338 reversed $131 $-1 #
coedge $-1 $214 $133 $339 $340 reversed $84 $-1 #
coedge $-1 $133 $213 $334 $341 reversed $84 $-1 #
coedge $-1 $342 $343 $133 $216 forward $344 $-1 #
edge $-1 $345 -39.483793557740881 $346 -33.239999923670759 $215 $347 forward 7 unknown #
loop $-1 $-1 $222 $134 #
plane-surface $-1 -10.24732118439065 -32.356720348510947 0.94594131833541439 0 -0.77714596973225614 0.62932038083071107 1 0 0 forward_v I I I I #
loop $-1 $-1 $348 $86 #
coedge $-1 $220 $220 $221 $349 reversed $135 $-1 #
coedge $-1 $221 $221 $220 $349 forward $137 $-1 #
coedge $-1 $222 $222 $138 $223 forward $217 $-1 #
edge $-1 $350 -7.2023940852280121e-016 $350 6.2831853071795996 $222 $351 forward 7 unknown #
loop $-1 $-1 $229 $139 #
plane-surface $-1 -10.24732118439065 -32.356720348510947 0.94594131833541439 0 -0.77714596973225614 0.62932038083071107 1 0 0 forward_v I I I I #
loop $-1 $-1 $352 $89 #
coedge $-1 $227 $227 $228 $353 reversed $140 $-1 #
coedge $-1 $228 $228 $227 $353 forward $142 $-1 #
coedge $-1 $229 $229 $143 $230 forward $224 $-1 #
edge $-1 $354 -7.2023940852280121e-016 $354 6.2831853071795996 $229 $355 forward 7 unknown #
face $-1 $356 $357 $48 $-1 $358 reversed single #
loop $-1 $-1 $359 $144 #
plane-surface $-1 -42.499174183625627 69.234047614512463 139.41052486311924 -1 0 0 0 0.66913061440640931 0.74314481823134659 forward_v I I I I #
coedge $-1 $360 $361 $362 $363 reversed $145 $-1 #
coedge $-1 $236 $147 $364 $365 reversed $93 $-1 #
coedge $-1 $147 $235 $360 $366 reversed $93 $-1 #
coedge $-1 $362 $367 $147 $238 forward $368 $-1 #
edge $-1 $369 2.2603034587453052 $370 8.3113076805605175 $237 $371 forward 7 unknown #
loop $-1 $-1 $244 $148 #
plane-surface $-1 -48.753782933010747 -15.734737775402408 45.043130494319968 0 0.66913061440640931 0.74314481823134659 1 0 0 forward_v I I I I #
loop $-1 $-1 $372 $95 #
coedge $-1 $242 $242 $243 $373 reversed $149 $-1 #
coedge $-1 $243 $243 $242 $373 forward $151 $-1 #
coedge $-1 $244 $244 $152 $245 forward $239 $-1 #
edge $-1 $374 -3.3135609732207542e-016 $374 6.2831853071796004 $244 $375 forward 7 unknown #
loop $-1 $-1 $251 $153 #
plane-surface $-1 -48.753782933010747 -15.734737775402408 45.043130494319968 0 0.66913061440640931 0.74314481823134659 1 0 0 forward_v I I I I #
loop $-1 $-1 $376 $98 #
coedge $-1 $249 $249 $250 $377 reversed $154 $-1 #
coedge $-1 $250 $250 $249 $377 forward $156 $-1 #
coedge $-1 $251 $251 $157 $252 forward $246 $-1 #
edge $-1 $378 -3.3135609732207542e-016 $378 6.2831853071796004 $251 $379 forward 7 unknown #
loop $-1 $-1 $258 $158 #
plane-surface $-1 -48.753782933010747 -15.734737775402408 45.043130494319968 0 0.66913061440640931 0.74314481823134659 1 0 0 forward_v I I I I #
loop $-1 $-1 $380 $101 #
coedge $-1 $256 $256 $257 $381 reversed $159 $-1 #
coedge $-1 $257 $257 $256 $381 forward $161 $-1 #
coedge $-1 $258 $258 $162 $259 forward $253 $-1 #
edge $-1 $382 -3.3135609732207542e-016 $382 6.2831853071796004 $258 $383 forward 7 unknown #
face $-1 $384 $385 $39 $-1 $386 reversed single #
loop $-1 $-1 $169 $163 #
plane-surface $-1 0 0 -7.1897349524055674 0 0 1 1 0 0 forward_v I I I I #
coedge $-1 $387 $388 $268 $389 forward $164 $-1 #
coedge $-1 $390 $166 $391 $392 reversed $105 $-1 #
coedge $-1 $166 $390 $393 $394 forward $105 $-1 #
coedge $-1 $274 $273 $166 $267 forward $261 $-1 #
edge $-1 $395 -32.356720348510926 $396 32.356720348510926 $166 $397 forward 7 unknown #
coedge $-1 $168 $167 $263 $389 reversed $66 $-1 #
coedge $-1 $398 $399 $167 $270 forward $400 $-1 #
edge $-1 $401 -7.1897349524055674 $275 7.1897349524055674 $167 $402 forward 7 unknown #
coedge $-1 $403 $404 $168 $272 reversed $385 $-1 #
edge $-1 $405 -7.1897349524055674 $276 7.1897349524055674 $168 $406 forward 7 unknown #
coedge $-1 $266 $169 $404 $407 forward $261 $-1 #
coedge $-1 $169 $266 $398 $408 forward $261 $-1 #
vertex $-1 $170 $409 #
vertex $-1 $272 $410 #
straight-curve $-1 63.491927854243599 0 -7.1897349524055674 0 -1 0 I I #
face $-1 $411 $290 $40 $-1 $412 reversed single #
loop $-1 $-1 $413 $171 #
plane-surface $-1 -71.975464026091331 -28.535818301516912 0 1 0 0 0 0 -1 forward_v I I I I #
coedge $-1 $414 $415 $416 $417 forward $172 $-1 #
coedge $-1 $418 $174 $414 $419 forward $109 $-1 #
coedge $-1 $174 $418 $288 $420 forward $109 $-1 #
edge $-1 $291 27.035818301516912 $421 30.035818301516912 $174 $422 forward 7 unknown #
coedge $-1 $176 $175 $423 $424 forward $69 $-1 #
coedge $-1 $425 $426 $175 $287 forward $427 $-1 #
edge $-1 $428 -30.035818301516912 $292 -27.035818301516912 $286 $429 forward 7 unknown #
coedge $-1 $430 $177 $283 $420 reversed $290 $-1 #
coedge $-1 $177 $430 $425 $431 reversed $290 $-1 #
loop $-1 $-1 $177 $278 #
vertex $-1 $284 $432 #
vertex $-1 $431 $433 #
straight-curve $-1 -63.491927854243599 -27.035818301516912 0 0 0 1 I I #
face $-1 $434 $435 $41 $-1 $436 reversed single #
loop $-1 $-1 $437 $179 #
plane-surface $-1 67.733695940167465 -27.035818301516912 0 0 -1 0 0 0 -1 forward_v I I I I #
coedge $-1 $438 $182 $439 $440 forward $113 $-1 #
coedge $-1 $182 $438 $303 $441 forward $113 $-1 #
edge $-1 $305 -30.035818301516912 $442 -27.035818301516912 $182 $443 forward 7 unknown #
coedge $-1 $184 $183 $444 $445 forward $72 $-1 #
coedge $-1 $446 $447 $183 $302 forward $448 $-1 #
edge $-1 $449 27.035818301516912 $306 30.035818301516912 $301 $450 forward 7 unknown #
coedge $-1 $451 $185 $298 $441 reversed $180 $-1 #
coedge $-1 $185 $451 $446 $452 reversed $180 $-1 #
vertex $-1 $299 $453 #
vertex $-1 $452 $454 #
straight-curve $-1 63.491927854243599 -30.035818301516912 0 0 0 1 I I #
face $-1 $-1 $455 $42 $-1 $456 reversed single #
loop $-1 $-1 $193 $187 #
plane-surface $-1 0 0 7.1897349524055674 0 0 1 1 0 0 forward_v I I I I #
coedge $-1 $457 $458 $459 $460 reversed $188 $-1 #
coedge $-1 $461 $190 $192 $318 forward $117 $-1 #
coedge $-1 $190 $461 $457 $462 forward $117 $-1 #
coedge $-1 $459 $193 $190 $315 forward $309 $-1 #
edge $-1 $321 -5.1236605921953249 $463 15.370981776585975 $314 $464 forward 7 unknown #
coedge $-1 $465 $466 $191 $317 forward $455 $-1 #
edge $-1 $467 -39.483793557740881 $320 -33.239999923670759 $316 $468 forward 7 unknown #
edge $-1 $321 -8.034261100551392 $467 -3.3863257525417323e-014 $192 $469 forward 7 unknown #
coedge $-1 $193 $459 $465 $470 forward $309 $-1 #
vertex $-1 $194 $471 #
vertex $-1 $194 $472 #
straight-curve $-1 0 -65.520856016712059 7.1897349524055656 0 1 0 I I #
coedge $-1 $323 $323 $-1 $473 reversed $197 $-1 #
edge $-1 $474 0 $474 6.2831853071796004 $198 $475 forward 7 unknown #
vertex $-1 $201 $476 #
ellipse-curve $-1 -14.639030263415215 -29.828658220764755 4.0678381353705007 0 -0.77714596973225614 0.62932038083071107 1 0 0 1 I I #
coedge $-1 $327 $327 $-1 $477 reversed $204 $-1 #
edge $-1 $478 0 $478 6.2831853071796004 $205 $479 forward 7 unknown #
vertex $-1 $208 $480 #
ellipse-curve $-1 -5.8556121053660846 -29.828658220764755 4.0678381353705007 0 -0.77714596973225614 0.62932038083071107 1 0 0 1 I I #
face $-1 $-1 $344 $45 $-1 $481 reversed single #
loop $-1 $-1 $482 $209 #
plane-surface $-1 0 -131.04171203342412 80.859469752152648 -1 0 0 0 -0.77714596973225614 0.62932038083071107 forward_v I I I I #
coedge $-1 $483 $484 $214 $341 forward $210 $-1 #
coedge $-1 $339 $212 $483 $485 reversed $131 $-1 #
coedge $-1 $212 $339 $343 $486 reversed $131 $-1 #
coedge $-1 $487 $482 $212 $338 forward $332 $-1 #
edge $-1 $488 -8.034261100551392 $489 -3.3863257525417323e-014 $337 $490 forward 7 unknown #
coedge $-1 $336 $335 $213 $340 forward $131 $-1 #
edge $-1 $491 -8.034261100551392 $345 -3.3863257525417323e-014 $213 $492 forward 7 unknown #
edge $-1 $346 33.164135668201133 $491 38.220259923693483 $334 $493 forward 7 unknown #
coedge $-1 $494 $215 $484 $495 reversed $344 $-1 #
coedge $-1 $215 $494 $336 $486 forward $344 $-1 #
loop $-1 $-1 $215 $331 #
vertex $-1 $216 $496 #
vertex $-1 $341 $497 #
straight-curve $-1 20.494642368781307 -32.356720348510926 40.429734876076324 0 0 1 I I #
coedge $-1 $348 $348 $-1 $498 reversed $219 $-1 #
edge $-1 $499 0 $499 6.2831853071796004 $220 $500 forward 7 unknown #
vertex $-1 $223 $501 #
ellipse-curve $-1 5.8556121053660917 -29.828658220764755 4.0678381353705007 0 -0.77714596973225614 0.62932038083071107 1 0 0 1 I I #
coedge $-1 $352 $352 $-1 $502 reversed $226 $-1 #
edge $-1 $503 0 $503 6.2831853071796004 $227 $504 forward 7 unknown #
vertex $-1 $230 $505 #
ellipse-curve $-1 14.639030263415222 -29.828658220764755 4.0678381353705007 0 -0.77714596973225614 0.62932038083071107 1 0 0 1 I I #
face $-1 $-1 $368 $48 $-1 $506 forward single #
loop $-1 $-1 $507 $231 #
plane-surface $-1 0 32.356720348510926 0 0 -1 0 0 0 -1 forward_v I I I I #
coedge $-1 $508 $509 $510 $511 reversed $232 $-1 #
coedge $-1 $512 $234 $236 $366 forward $145 $-1 #
coedge $-1 $234 $512 $508 $513 forward $145 $-1 #
coedge $-1 $510 $237 $234 $363 forward $368 $-1 #
edge $-1 $370 -30.631500215890494 $514 -18.122282717120253 $362 $515 forward 7 unknown #
coedge $-1 $516 $517 $235 $365 forward $357 $-1 #
edge $-1 $518 -67.963876271190614 $369 -62.515527479154052 $364 $519 forward 7 unknown #
edge $-1 $370 56.571011289768037 $518 64.713440697021852 $236 $520 forward 7 unknown #
coedge $-1 $237 $510 $516 $521 forward $368 $-1 #
loop $-1 $-1 $510 $356 #
vertex $-1 $365 $522 #
vertex $-1 $238 $523 #
straight-curve $-1 -55.008391682395867 34.617023807256231 7.1897349524055727 0 -1 0 I I #
coedge $-1 $372 $372 $-1 $524 reversed $241 $-1 #
edge $-1 $525 0 $525 6.2831853071796004 $242 $526 forward 7 unknown #
vertex $-1 $245 $527 #
ellipse-curve $-1 -52.506548182641822 29.331218237603316 4.4655605563872838 0 0.66913061440640931 0.74314481823134659 1 0 0 1 I I #
coedge $-1 $376 $376 $-1 $528 reversed $248 $-1 #
edge $-1 $529 0 $529 6.2831853071796004 $249 $530 forward 7 unknown #
vertex $-1 $252 $531 #
ellipse-curve $-1 -48.753782933010747 29.331218237603316 4.4655605563872838 0 0.66913061440640931 0.74314481823134659 1 0 0 1 I I #
coedge $-1 $380 $380 $-1 $532 reversed $255 $-1 #
edge $-1 $533 0 $533 6.2831853071796004 $256 $534 forward 7 unknown #
vertex $-1 $259 $535 #
ellipse-curve $-1 -45.001017683379672 29.331218237603316 4.4655605563872838 0 0.66913061440640931 0.74314481823134659 1 0 0 1 I I #
face $-1 $-1 $400 $39 $-1 $536 reversed single #
loop $-1 $-1 $391 $260 #
plane-surface $-1 0 -32.356720348510926 0 0 1 0 0 0 1 forward_v I I I I #
coedge $-1 $537 $263 $399 $538 forward $164 $-1 #
coedge $-1 $263 $537 $403 $539 forward $164 $-1 #
edge $-1 $405 -32.356720348510926 $401 32.356720348510926 $268 $540 forward 7 unknown #
coedge $-1 $265 $264 $537 $541 reversed $105 $-1 #
coedge $-1 $404 $403 $264 $392 forward $385 $-1 #
edge $-1 $542 -7.1897349524055674 $395 7.1897349524055674 $264 $543 forward 7 unknown #
coedge $-1 $399 $398 $265 $394 reversed $400 $-1 #
edge $-1 $544 -7.1897349524055674 $396 7.1897349524055674 $393 $545 forward 7 unknown #
vertex $-1 $267 $546 #
vertex $-1 $408 $547 #
straight-curve $-1 -63.491927854243599 0 -7.1897349524055674 0 1 0 I I #
coedge $-1 $393 $269 $274 $408 reversed $400 $-1 #
coedge $-1 $269 $393 $387 $538 reversed $400 $-1 #
loop $-1 $-1 $269 $384 #
vertex $-1 $389 $548 #
straight-curve $-1 63.491927854243599 32.356720348510926 0 0 0 -1 I I #
coedge $-1 $391 $271 $388 $539 reversed $385 $-1 #
coedge $-1 $271 $391 $273 $407 reversed $385 $-1 #
vertex $-1 $389 $549 #
straight-curve $-1 63.491927854243599 -32.356720348510926 0 0 0 -1 I I #
edge $-1 $276 -63.491927854243599 $395 63.491927854243599 $404 $550 forward 7 unknown #
edge $-1 $396 -63.491927854243599 $275 63.491927854243599 $398 $551 forward 7 unknown #
point $-1 63.491927854243599 32.356720348510926 -7.1897349524055674 #
point $-1 63.491927854243599 -32.356720348510926 -7.1897349524055674 #
face $-1 $-1 $427 $40 $-1 $552 forward single #
plane-surface $-1 -67.733695940167465 -27.035818301516912 0 0 -1 0 0 0 -1 forward_v I I I I #
coedge $-1 $553 $554 $430 $555 forward $279 $-1 #
coedge $-1 $423 $281 $282 $419 reversed $172 $-1 #
coedge $-1 $281 $423 $426 $556 reversed $172 $-1 #
coedge $-1 $554 $553 $281 $417 reversed $279 $-1 #
edge $-1 $557 -7.1897349524055674 $558 7.1897349524055674 $416 $559 forward 7 unknown #
coedge $-1 $283 $282 $553 $560 forward $109 $-1 #
edge $-1 $421 -4.2417680859238658 $558 4.2417680859238658 $414 $561 forward 7 unknown #
edge $-1 $562 -4.2417680859238658 $291 4.2417680859238658 $288 $563 forward 7 unknown #
vertex $-1 $419 $564 #
straight-curve $-1 -63.491927854243599 0 -7.1897349524055674 0 -1 0 I I #
coedge $-1 $415 $414 $285 $424 reversed $172 $-1 #
edge $-1 $428 -7.1897349524055674 $421 7.1897349524055674 $423 $565 forward 7 unknown #
coedge $-1 $566 $286 $289 $431 forward $427 $-1 #
coedge $-1 $286 $566 $415 $556 forward $427 $-1 #
loop $-1 $-1 $286 $411 #
vertex $-1 $287 $567 #
straight-curve $-1 -63.491927854243599 0 7.1897349524055674 0 1 0 I I #
coedge $-1 $289 $288 $413 $555 reversed $290 $-1 #
edge $-1 $292 -4.2417680859238658 $568 4.2417680859238658 $289 $569 forward 7 unknown #
point $-1 -63.491927854243599 -27.035818301516912 -7.1897349524055674 #
point $-1 -63.491927854243599 -27.035818301516912 7.1897349524055674 #
face $-1 $-1 $448 $41 $-1 $570 forward single #
loop $-1 $-1 $571 $294 #
plane-surface $-1 71.975464026091331 -28.535818301516912 0 -1 0 0 0 0 1 forward_v I I I I #
coedge $-1 $439 $572 $573 $574 forward $295 $-1 #
coedge $-1 $298 $297 $575 $576 forward $113 $-1 #
coedge $-1 $444 $437 $297 $440 reversed $295 $-1 #
edge $-1 $442 -4.2417680859238658 $577 4.2417680859238658 $439 $578 forward 7 unknown #
edge $-1 $579 -4.2417680859238658 $305 4.2417680859238658 $303 $580 forward 7 unknown #
vertex $-1 $440 $581 #
straight-curve $-1 63.491927854243599 0 -7.1897349524055674 0 1 0 I I #
coedge $-1 $572 $439 $300 $445 reversed $295 $-1 #
edge $-1 $449 -7.1897349524055674 $442 7.1897349524055674 $444 $582 forward 7 unknown #
coedge $-1 $583 $301 $304 $452 forward $448 $-1 #
coedge $-1 $301 $583 $572 $584 forward $448 $-1 #
loop $-1 $-1 $301 $434 #
vertex $-1 $302 $585 #
straight-curve $-1 63.491927854243599 0 7.1897349524055674 0 -1 0 I I #
coedge $-1 $304 $303 $571 $586 reversed $180 $-1 #
edge $-1 $306 -4.2417680859238658 $587 4.2417680859238658 $304 $588 forward 7 unknown #
point $-1 63.491927854243599 -30.035818301516912 -7.1897349524055674 #
point $-1 63.491927854243599 -30.035818301516912 7.1897349524055674 #
loop $-1 $-1 $316 $308 #
plane-surface $-1 0 -32.356720348510926 0 0 1 0 0 0 1 forward_v I I I I #
coedge $-1 $458 $311 $313 $462 reversed $188 $-1 #
coedge $-1 $311 $457 $589 $590 reversed $188 $-1 #
coedge $-1 $319 $314 $311 $460 forward $309 $-1 #
edge $-1 $463 -38.220259923693483 $591 -33.164135668201133 $459 $592 forward 7 unknown #
coedge $-1 $313 $312 $466 $593 reversed $117 $-1 #
edge $-1 $594 3.3863257525417323e-014 $463 8.034261100551392 $457 $595 forward 7 unknown #
vertex $-1 $315 $596 #
straight-curve $-1 -5.1236605921953249 -27.30059609301858 7.1897349524055674 -1 0 0 I I #
coedge $-1 $589 $316 $319 $470 reversed $455 $-1 #
coedge $-1 $316 $589 $461 $593 forward $455 $-1 #
vertex $-1 $317 $597 #
straight-curve $-1 0 -32.356720348510926 40.429734876076324 0 0 1 I I #
straight-curve $-1 0 -32.356720348510947 0.94594131833541439 0 -0.62932038083071107 -0.77714596973225614 I I #
edge $-1 $591 -20.4946423687813 $320 0 $465 $598 forward 7 unknown #
point $-1 0 -32.356720348510926 7.1897349524055674 #
point $-1 0 -27.300596093018576 7.1897349524055683 #
edge $-1 $599 1 $599 0 $323 $-1 forward 7 unknown #
vertex $-1 $324 $600 #
ellipse-curve $-1 -14.639030263415215 -27.916424236706604 2.5193416289812278 0 -0.77714596973225614 0.62932038083071107 1 0 0 1 I I #
point $-1 -13.639030263415215 -29.828658220764741 4.0678381353704882 #
edge $-1 $601 1 $601 0 $327 $-1 forward 7 unknown #
vertex $-1 $328 $602 #
ellipse-curve $-1 -5.8556121053660846 -27.916424236706604 2.5193416289812278 0 -0.77714596973225614 0.62932038083071107 1 0 0 1 I I #
point $-1 -4.8556121053660846 -29.828658220764741 4.0678381353704882 #
plane-surface $-1 0 -32.356720348510926 0 0 1 0 0 0 1 forward_v I I I I #
coedge $-1 $337 $487 $603 $604 reversed $332 $-1 #
coedge $-1 $603 $334 $335 $485 forward $210 $-1 #
coedge $-1 $334 $603 $342 $495 forward $210 $-1 #
edge $-1 $491 -25.618302960976632 $488 -5.1236605921953249 $483 $605 forward 7 unknown #
edge $-1 $489 5.1236605921953249 $345 25.618302960976632 $343 $606 forward 7 unknown #
coedge $-1 $482 $337 $494 $607 reversed $332 $-1 #
vertex $-1 $485 $608 #
vertex $-1 $486 $609 #
straight-curve $-1 0 -32.356720348510947 0.94594131833541439 0 -0.62932038083071107 -0.77714596973225614 I I #
vertex $-1 $341 $610 #
straight-curve $-1 20.494642368781307 -32.356720348510947 0.94594131833541439 0 -0.62932038083071107 -0.77714596973225614 I I #
straight-curve $-1 20.494642368781307 -65.520856016712059 7.1897349524055656 0 1 0 I I #
coedge $-1 $343 $342 $487 $607 forward $344 $-1 #
edge $-1 $611 0 $346 20.494642368781307 $342 $612 forward 7 unknown #
point $-1 20.494642368781307 -32.356720348510926 0.94594131833544071 #
point $-1 20.494642368781307 -32.356720348510926 7.1897349524055674 #
edge $-1 $613 1 $613 0 $348 $-1 forward 7 unknown #
vertex $-1 $349 $614 #
ellipse-curve $-1 5.8556121053660917 -27.916424236706604 2.5193416289812278 0 -0.77714596973225614 0.62932038083071107 1 0 0 1 I I #
point $-1 6.8556121053660917 -29.828658220764741 4.0678381353704882 #
edge $-1 $615 1 $615 0 $352 $-1 forward 7 unknown #
vertex $-1 $353 $616 #
ellipse-curve $-1 14.639030263415222 -27.916424236706604 2.5193416289812278 0 -0.77714596973225614 0.62932038083071107 1 0 0 1 I I #
point $-1 15.639030263415222 -29.828658220764741 4.0678381353704882 #
plane-surface $-1 0 0 7.1897349524055674 0 0 1 1 0 0 forward_v I I I I #
coedge $-1 $517 $516 $509 $617 forward $357 $-1 #
coedge $-1 $509 $359 $361 $513 reversed $232 $-1 #
coedge $-1 $359 $508 $507 $617 reversed $232 $-1 #
coedge $-1 $367 $362 $359 $511 forward $368 $-1 #
edge $-1 $514 -8.3113076805605175 $618 -2.2603034587453052 $510 $619 forward 7 unknown #
coedge $-1 $361 $360 $517 $620 reversed $145 $-1 #
edge $-1 $621 -64.713440697021852 $514 -56.571011289768037 $508 $622 forward 7 unknown #
vertex $-1 $363 $623 #
straight-curve $-1 -24.376891466505374 26.305716126695717 7.189734952405562 1 0 0 I I #
coedge $-1 $507 $364 $367 $521 reversed $357 $-1 #
coedge $-1 $364 $507 $512 $620 forward $357 $-1 #
vertex $-1 $365 $624 #
straight-curve $-1 -55.008391682395867 32.356720348510926 69.705262431559618 0 0 1 I I #
straight-curve $-1 -55.008391682395867 -15.734737775402408 45.043130494319968 0 0.74314481823134659 -0.66913061440640931 I I #
edge $-1 $618 42.499174183625627 $369 55.008391682395867 $516 $625 forward 7 unknown #
point $-1 -55.008391682395867 32.356720348510926 7.1897349524055674 #
point $-1 -55.008391682395867 26.305716126695714 7.1897349524055656 #
edge $-1 $626 1 $626 0 $372 $-1 forward 7 unknown #
vertex $-1 $373 $627 #
ellipse-curve $-1 -52.506548182641822 27.542084642218065 2.4785264379234988 0 0.66913061440640931 0.74314481823134659 1 0 0 1 I I #
point $-1 -51.506548182641822 29.33121823760332 4.4655605563872882 #
edge $-1 $628 1 $628 0 $376 $-1 forward 7 unknown #
vertex $-1 $377 $629 #
ellipse-curve $-1 -48.753782933010747 27.542084642218065 2.4785264379234988 0 0.66913061440640931 0.74314481823134659 1 0 0 1 I I #
point $-1 -47.753782933010747 29.33121823760332 4.4655605563872882 #
edge $-1 $630 1 $630 0 $380 $-1 forward 7 unknown #
vertex $-1 $381 $631 #
ellipse-curve $-1 -45.001017683379672 27.542084642218065 2.4785264379234988 0 0.66913061440640931 0.74314481823134659 1 0 0 1 I I #
point $-1 -44.001017683379672 29.33121823760332 4.4655605563872882 #
plane-surface $-1 0 32.356720348510926 0 0 -1 0 0 0 -1 forward_v I I I I #
coedge $-1 $388 $387 $390 $541 forward $164 $-1 #
edge $-1 $401 -63.491927854243599 $544 63.491927854243599 $399 $632 forward 7 unknown #
edge $-1 $542 -63.491927854243599 $405 63.491927854243599 $403 $633 forward 7 unknown #
straight-curve $-1 63.491927854243599 0 7.1897349524055674 0 1 0 I I #
edge $-1 $544 -32.356720348510926 $542 32.356720348510926 $390 $634 forward 7 unknown #
vertex $-1 $541 $635 #
straight-curve $-1 -63.491927854243599 -32.356720348510926 0 0 0 -1 I I #
vertex $-1 $538 $636 #
straight-curve $-1 -63.491927854243599 32.356720348510926 0 0 0 -1 I I #
point $-1 -63.491927854243599 -32.356720348510926 -7.1897349524055674 #
point $-1 -63.491927854243599 32.356720348510926 -7.1897349524055674 #
point $-1 63.491927854243599 32.356720348510926 7.1897349524055674 #
point $-1 63.491927854243599 -32.356720348510926 7.1897349524055674 #
straight-curve $-1 0 -32.356720348510926 -7.1897349524055674 -1 0 0 I I #
straight-curve $-1 0 32.356720348510926 -7.1897349524055674 1 0 0 I I #
plane-surface $-1 0 0 7.1897349524055674 0 0 1 1 0 0 forward_v I I I I #
coedge $-1 $416 $413 $418 $560 reversed $279 $-1 #
coedge $-1 $413 $416 $566 $637 reversed $279 $-1 #
edge $-1 $568 -7.1897349524055674 $562 7.1897349524055674 $430 $638 forward 7 unknown #
edge $-1 $557 -4.2417680859238658 $428 4.2417680859238658 $415 $639 forward 7 unknown #
vertex $-1 $637 $640 #
vertex $-1 $560 $641 #
straight-curve $-1 -71.975464026091331 -30.035818301516912 0 0 0 -1 I I #
edge $-1 $558 -1.5 $562 1.5 $553 $642 forward 7 unknown #
straight-curve $-1 -67.733695940167465 -30.035818301516912 -7.1897349524055674 -1 0 0 I I #
vertex $-1 $420 $643 #
straight-curve $-1 -67.733695940167465 -27.035818301516912 -7.1897349524055674 1 0 0 I I #
point $-1 -63.491927854243599 -30.035818301516912 -7.1897349524055674 #
straight-curve $-1 -63.491927854243599 -30.035818301516912 0 0 0 -1 I I #
coedge $-1 $426 $425 $554 $637 forward $427 $-1 #
point $-1 -63.491927854243599 -30.035818301516912 7.1897349524055674 #
vertex $-1 $431 $644 #
straight-curve $-1 -67.733695940167465 -27.035818301516912 7.1897349524055674 -1 0 0 I I #
plane-surface $-1 0 0 7.1897349524055674 0 0 1 1 0 0 forward_v I I I I #
coedge $-1 $575 $645 $451 $586 forward $435 $-1 #
coedge $-1 $437 $444 $447 $584 reversed $295 $-1 #
coedge $-1 $645 $575 $437 $574 reversed $435 $-1 #
edge $-1 $646 -7.1897349524055674 $577 7.1897349524055674 $573 $647 forward 7 unknown #
coedge $-1 $573 $571 $438 $576 reversed $435 $-1 #
edge $-1 $577 -1.5 $579 1.5 $575 $648 forward 7 unknown #
vertex $-1 $576 $649 #
straight-curve $-1 67.733695940167465 -27.035818301516912 -7.1897349524055674 1 0 0 I I #
vertex $-1 $586 $650 #
straight-curve $-1 67.733695940167465 -30.035818301516912 -7.1897349524055674 -1 0 0 I I #
point $-1 63.491927854243599 -27.035818301516912 -7.1897349524055674 #
straight-curve $-1 63.491927854243599 -27.035818301516912 0 0 0 -1 I I #
coedge $-1 $447 $446 $645 $651 forward $448 $-1 #
edge $-1 $646 -4.2417680859238658 $449 4.2417680859238658 $572 $652 forward 7 unknown #
point $-1 63.491927854243599 -27.035818301516912 7.1897349524055674 #
edge $-1 $587 -7.1897349524055674 $579 7.1897349524055674 $571 $653 forward 7 unknown #
vertex $-1 $651 $654 #
straight-curve $-1 67.733695940167465 -30.035818301516912 7.1897349524055674 1 0 0 I I #
coedge $-1 $466 $465 $458 $590 forward $455 $-1 #
edge $-1 $591 33.239999923670759 $594 39.483793557740881 $589 $655 forward 7 unknown #
vertex $-1 $470 $656 #
straight-curve $-1 -20.4946423687813 -65.520856016712059 7.1897349524055656 0 -1 0 I I #
edge $-1 $594 -15.370981776585975 $467 5.1236605921953249 $466 $657 forward 7 unknown #
vertex $-1 $593 $658 #
straight-curve $-1 -20.4946423687813 -32.356720348510947 0.94594131833541439 0 0.62932038083071107 0.77714596973225614 I I #
point $-1 -20.4946423687813 -27.300596093018576 7.1897349524055683 #
point $-1 0 -32.356720348510926 0.94594131833544071 #
straight-curve $-1 0 -32.356720348510926 7.1897349524055674 1 0 0 I I #
vertex $-1 $473 $659 #
point $-1 -13.639030263415215 -27.916424236706604 2.5193416289812278 #
vertex $-1 $477 $660 #
point $-1 -4.8556121053660846 -27.916424236706604 2.5193416289812278 #
coedge $-1 $484 $483 $482 $604 forward $210 $-1 #
edge $-1 $488 -38.220259923693483 $611 -33.164135668201133 $603 $661 forward 7 unknown #
straight-curve $-1 -5.1236605921953249 -27.30059609301858 7.1897349524055674 -1 0 0 I I #
straight-curve $-1 -5.1236605921953249 -32.356720348510926 0.94594131833543527 1 0 0 I I #
edge $-1 $611 33.239999923670759 $489 39.483793557740881 $494 $662 forward 7 unknown #
point $-1 0 -27.300596093018576 7.1897349524055683 #
point $-1 0 -32.356720348510926 0.94594131833544071 #
point $-1 20.494642368781307 -27.300596093018576 7.1897349524055683 #
vertex $-1 $495 $663 #
straight-curve $-1 0 -32.356720348510926 7.1897349524055674 1 0 0 I I #
vertex $-1 $498 $664 #
point $-1 6.8556121053660917 -27.916424236706604 2.5193416289812278 #
vertex $-1 $502 $665 #
point $-1 15.639030263415222 -27.916424236706604 2.5193416289812278 #
edge $-1 $618 62.515527479154052 $621 67.963876271190614 $507 $666 forward 7 unknown #
vertex $-1 $521 $667 #
straight-curve $-1 -42.499174183625627 34.617023807256231 7.1897349524055727 0 1 0 I I #
edge $-1 $621 18.122282717120253 $518 30.631500215890494 $517 $668 forward 7 unknown #
vertex $-1 $620 $669 #
straight-curve $-1 -42.499174183625627 -15.734737775402408 45.043130494319968 0 -0.74314481823134659 0.66913061440640931 I I #
point $-1 -42.499174183625627 26.305716126695714 7.1897349524055656 #
point $-1 -55.008391682395867 32.356720348510926 1.7413861603690037 #
straight-curve $-1 0 32.356720348510926 7.1897349524055674 -1 0 0 I I #
vertex $-1 $524 $670 #
point $-1 -51.506548182641822 27.542084642218065 2.4785264379234988 #
vertex $-1 $528 $671 #
point $-1 -47.753782933010747 27.542084642218065 2.4785264379234988 #
vertex $-1 $532 $672 #
point $-1 -44.001017683379672 27.542084642218065 2.4785264379234988 #
straight-curve $-1 0 32.356720348510926 7.1897349524055674 -1 0 0 I I #
straight-curve $-1 0 -32.356720348510926 7.1897349524055674 1 0 0 I I #
straight-curve $-1 -63.491927854243599 0 7.1897349524055674 0 -1 0 I I #
point $-1 -63.491927854243599 -32.356720348510926 7.1897349524055674 #
point $-1 -63.491927854243599 32.356720348510926 7.1897349524055674 #
edge $-1 $568 -1.5 $557 1.5 $554 $673 forward 7 unknown #
straight-curve $-1 -71.975464026091331 -27.035818301516912 0 0 0 -1 I I #
straight-curve $-1 -67.733695940167465 -30.035818301516912 7.1897349524055674 1 0 0 I I #
point $-1 -71.975464026091331 -30.035818301516912 7.1897349524055674 #
point $-1 -71.975464026091331 -30.035818301516912 -7.1897349524055674 #
straight-curve $-1 -71.975464026091331 -28.535818301516912 -7.1897349524055674 0 1 0 I I #
point $-1 -71.975464026091331 -27.035818301516912 -7.1897349524055674 #
point $-1 -71.975464026091331 -27.035818301516912 7.1897349524055674 #
coedge $-1 $571 $573 $583 $651 reversed $435 $-1 #
vertex $-1 $651 $674 #
straight-curve $-1 71.975464026091331 -27.035818301516912 0 0 0 -1 I I #
straight-curve $-1 71.975464026091331 -28.535818301516912 -7.1897349524055674 0 -1 0 I I #
point $-1 71.975464026091331 -27.035818301516912 -7.1897349524055674 #
point $-1 71.975464026091331 -30.035818301516912 -7.1897349524055674 #
edge $-1 $587 -1.5 $646 1.5 $645 $675 forward 7 unknown #
straight-curve $-1 67.733695940167465 -27.035818301516912 7.1897349524055674 -1 0 0 I I #
straight-curve $-1 71.975464026091331 -30.035818301516912 0 0 0 -1 I I #
point $-1 71.975464026091331 -30.035818301516912 7.1897349524055674 #
straight-curve $-1 -20.4946423687813 -32.356720348510926 40.429734876076324 0 0 -1 I I #
point $-1 -20.4946423687813 -32.356720348510926 7.1897349524055674 #
straight-curve $-1 -5.1236605921953249 -32.356720348510926 0.94594131833543527 1 0 0 I I #
point $-1 -20.4946423687813 -32.356720348510926 0.94594131833544071 #
point $-1 -14.639030263415215 -27.139278266974351 1.890021248150517 #
point $-1 -5.8556121053660846 -27.139278266974351 1.890021248150517 #
straight-curve $-1 0 -65.520856016712059 7.1897349524055656 0 -1 0 I I #
straight-curve $-1 0 -32.356720348510926 40.429734876076324 0 0 -1 I I #
point $-1 0 -32.356720348510926 7.1897349524055674 #
point $-1 5.8556121053660917 -27.139278266974351 1.890021248150517 #
point $-1 14.639030263415222 -27.139278266974351 1.890021248150517 #
straight-curve $-1 -42.499174183625627 32.356720348510926 69.705262431559618 0 0 -1 I I #
point $-1 -42.499174183625627 32.356720348510926 7.1897349524055674 #
straight-curve $-1 -24.376891466505374 32.356720348510919 1.7413861603690037 -1 0 0 I I #
point $-1 -42.499174183625627 32.356720348510926 1.7413861603690037 #
point $-1 -52.506548182641822 26.872954027811652 1.7353816196921521 #
point $-1 -48.753782933010747 26.872954027811652 1.7353816196921521 #
point $-1 -45.001017683379672 26.872954027811652 1.7353816196921521 #
straight-curve $-1 -71.975464026091331 -28.535818301516912 7.1897349524055674 0 -1 0 I I #
point $-1 71.975464026091331 -27.035818301516912 7.1897349524055674 #
straight-curve $-1 71.975464026091331 -28.535818301516912 7.1897349524055674 0 1 0 I I #
End-of-ACIS-data 