500 0 5 0           
7 Unknown 11 ACIS 5.0 NT 24 Fri Mar 26 02:23:38 1999 
-1 9.9999999999999995e-007 1e-010 
body $-1 $5 $-1 $6 #
body $-1 $7 $-1 $8 #
body $-1 $9 $-1 $10 #
body $-1 $11 $-1 $12 #
body $-1 $13 $-1 $14 #
lump $-1 $-1 $15 $0 #
transform $-1 1 0 0 0 1 0 0 0 1 41.323282570879236 28.725400588593974 10.475868768992592 1 rotate no_reflect no_shear #
lump $-1 $-1 $16 $1 #
transform $-1 1 0 0 0 1 0 0 0 1 41.323282570879236 28.725400588593974 10.475868768992592 1 rotate no_reflect no_shear #
lump $-1 $-1 $17 $2 #
transform $-1 1 0 0 0 1 0 0 0 1 41.323282570879236 28.725400588593974 10.475868768992592 1 rotate no_reflect no_shear #
lump $-1 $-1 $18 $3 #
transform $-1 1 0 0 0 1 0 0 0 1 41.323282570879236 28.725400588593974 10.475868768992592 1 rotate no_reflect no_shear #
lump $-1 $-1 $19 $4 #
transform $-1 1 0 0 0 1 0 0 0 1 41.323282570879236 28.725400588593974 10.475868768992592 1 rotate no_reflect no_shear #
shell $-1 $-1 $-1 $20 $-1 $5 #
shell $-1 $-1 $-1 $21 $-1 $7 #
shell $-1 $-1 $-1 $22 $-1 $9 #
shell $-1 $-1 $-1 $23 $-1 $11 #
shell $-1 $-1 $-1 $24 $-1 $13 #
face $-1 $25 $26 $15 $-1 $27 forward single #
face $-1 $28 $29 $16 $-1 $30 forward single #
face $-1 $31 $32 $17 $-1 $33 forward single #
face $-1 $34 $35 $18 $-1 $36 reversed single #
face $-1 $37 $38 $19 $-1 $39 reversed single #
face $-1 $40 $41 $15 $-1 $42 reversed single #
loop $-1 $-1 $43 $20 #
plane-surface $-1 0 0 10.475868768992592 0 0 1 1 0 0 forward_v I I I I #
face $-1 $44 $45 $16 $-1 $46 forward single #
loop $-1 $-1 $47 $21 #
plane-surface $-1 -39.823282570879236 -19.7791167211446 0 0 -1 0 0 0 -1 forward_v I I I I #
face $-1 $48 $49 $17 $-1 $50 forward single #
loop $-1 $-1 $51 $22 #
plane-surface $-1 26.082587058043906 68.369377905043663 97.863799794168173 1 0 0 0 -0.84804810408105047 -0.52991925155115449 forward_v I I I I #
face $-1 $52 $53 $18 $-1 $54 reversed single #
loop $-1 $55 $56 $23 #
cone-surface $-1 30.43707149028257 26.236728223974115 7.3575767712630036 0 -0.84804810408105047 -0.52991925155115449 1 0 0 1 I I 0 1 1 forward I I I I #
face $-1 $57 $58 $19 $-1 $59 reversed single #
loop $-1 $60 $61 $24 #
cone-surface $-1 36.968798138640572 26.236728223974115 7.3575767712630036 0 -0.84804810408105047 -0.52991925155115449 1 0 0 1 I I 0 1 1 forward I I I I #
face $-1 $62 $63 $15 $-1 $64 reversed single #
loop $-1 $-1 $65 $25 #
plane-surface $-1 0 0 -10.475868768992592 0 0 1 1 0 0 forward_v I I I I #
coedge $-1 $66 $67 $68 $69 forward $26 $-1 #
face $-1 $70 $71 $16 $-1 $72 forward single #
loop $-1 $-1 $73 $28 #
plane-surface $-1 -38.323282570879236 -24.252258654869287 0 -1 0 0 0 0 1 forward_v I I I I #
coedge $-1 $74 $75 $76 $77 reversed $29 $-1 #
face $-1 $78 $79 $17 $-1 $80 forward single #
loop $-1 $-1 $81 $31 #
plane-surface $-1 33.702934814461578 -1.7188849722356423 54.067793850973786 0 0.84804810408105047 0.52991925155115449 1 0 0 forward_v I I I I #
coedge $-1 $82 $83 $84 $85 reversed $32 $-1 #
face $-1 $86 $87 $18 $-1 $88 forward single #
loop $-1 $89 $90 $34 #
cone-surface $-1 30.43707149028257 24.926546053714556 6.5388841148930563 0 -0.84804810408105047 -0.52991925155115449 0.5 0 0 1 I I -0.70710678118654746 0.70710678118654746 0.5 forward I I I I #
loop $-1 $-1 $91 $23 #
coedge $-1 $56 $56 $92 $93 reversed $35 $-1 #
face $-1 $94 $95 $19 $-1 $96 reversed single #
loop $-1 $97 $98 $37 #
cone-surface $-1 36.968798138640572 24.926546053714556 6.5388841148930563 0 -0.84804810408105047 -0.52991925155115449 0.5 0 0 1 I I -0.70710678118654746 0.70710678118654746 0.5 forward I I I I #
loop $-1 $-1 $99 $24 #
coedge $-1 $61 $61 $100 $101 reversed $38 $-1 #
face $-1 $102 $103 $15 $-1 $104 reversed single #
loop $-1 $-1 $105 $40 #
plane-surface $-1 0 -28.725400588593974 0 0 1 0 0 0 1 forward_v I I I I #
coedge $-1 $106 $107 $108 $109 forward $41 $-1 #
coedge $-1 $110 $43 $111 $112 forward $26 $-1 #
coedge $-1 $43 $110 $113 $114 forward $26 $-1 #
coedge $-1 $115 $116 $43 $69 reversed $117 $-1 #
edge $-1 $118 -28.725400588593974 $119 28.725400588593974 $68 $120 forward 7 unknown #
face $-1 $121 $122 $16 $-1 $123 reversed single #
loop $-1 $-1 $124 $44 #
plane-surface $-1 0 0 10.475868768992592 0 0 1 1 0 0 forward_v I I I I #
coedge $-1 $125 $126 $127 $128 reversed $45 $-1 #
coedge $-1 $129 $47 $124 $130 reversed $29 $-1 #
coedge $-1 $47 $129 $131 $132 reversed $29 $-1 #
coedge $-1 $126 $125 $47 $77 forward $45 $-1 #
edge $-1 $133 -10.475868768992592 $134 10.475868768992592 $76 $135 forward 7 unknown #
face $-1 $136 $137 $17 $-1 $138 reversed single #
loop $-1 $-1 $139 $48 #
plane-surface $-1 0 0 10.475868768992592 0 0 1 1 0 0 forward_v I I I I #
coedge $-1 $140 $141 $139 $142 reversed $49 $-1 #
coedge $-1 $83 $51 $141 $143 forward $32 $-1 #
coedge $-1 $51 $82 $144 $145 reversed $32 $-1 #
coedge $-1 $146 $139 $51 $85 forward $79 $-1 #
edge $-1 $147 -8.6643168567295028 $148 -5.4592883639278575 $84 $149 forward 7 unknown #
face $-1 $150 $151 $18 $-1 $152 forward single #
loop $-1 $-1 $153 $52 #
plane-surface $-1 26.082587058043906 68.369377905043663 97.863799794168173 1 0 0 0 -0.84804810408105047 -0.52991925155115449 forward_v I I I I #
loop $-1 $-1 $154 $34 #
coedge $-1 $90 $90 $91 $155 forward $53 $-1 #
coedge $-1 $91 $91 $90 $155 reversed $55 $-1 #
coedge $-1 $92 $92 $56 $93 forward $151 $-1 #
edge $-1 $156 -1.1302207260040686e-015 $156 6.2831853071795996 $92 $157 forward 7 unknown #
face $-1 $158 $159 $19 $-1 $160 reversed single #
loop $-1 $161 $162 $57 #
cone-surface $-1 30.43707149028257 26.236728223974115 7.3575767712630036 0 -0.84804810408105047 -0.52991925155115449 1 0 0 1 I I 0 1 1 forward I I I I #
loop $-1 $-1 $163 $37 #
coedge $-1 $98 $98 $99 $164 forward $58 $-1 #
coedge $-1 $99 $99 $98 $164 reversed $60 $-1 #
coedge $-1 $100 $100 $61 $101 forward $165 $-1 #
edge $-1 $166 -1.1302207260040686e-015 $166 6.2831853071795996 $100 $167 forward 7 unknown #
face $-1 $168 $169 $15 $-1 $170 reversed single #
loop $-1 $-1 $171 $62 #
plane-surface $-1 -41.323282570879236 0 0 1 0 0 0 0 -1 forward_v I I I I #
coedge $-1 $172 $113 $173 $174 forward $63 $-1 #
coedge $-1 $175 $65 $172 $176 forward $41 $-1 #
coedge $-1 $65 $175 $177 $178 forward $41 $-1 #
coedge $-1 $116 $115 $65 $109 reversed $117 $-1 #
edge $-1 $179 -28.725400588593974 $180 28.725400588593974 $108 $181 forward 7 unknown #
coedge $-1 $67 $66 $182 $183 forward $26 $-1 #
coedge $-1 $184 $185 $66 $112 reversed $169 $-1 #
edge $-1 $119 -41.323282570879236 $186 41.323282570879236 $111 $187 forward 7 unknown #
coedge $-1 $105 $188 $67 $114 reversed $63 $-1 #
edge $-1 $189 -41.323282570879236 $118 41.323282570879236 $113 $190 forward 7 unknown #
coedge $-1 $108 $68 $188 $191 forward $117 $-1 #
coedge $-1 $68 $108 $184 $192 reversed $117 $-1 #
loop $-1 $-1 $115 $168 #
vertex $-1 $69 $193 #
vertex $-1 $69 $194 #
straight-curve $-1 41.323282570879236 0 10.475868768992592 0 1 0 I I #
face $-1 $195 $196 $16 $-1 $197 reversed single #
loop $-1 $-1 $127 $70 #
plane-surface $-1 0 -28.725400588593974 0 0 1 0 0 0 1 forward_v I I I I #
coedge $-1 $198 $199 $74 $130 forward $71 $-1 #
coedge $-1 $76 $73 $198 $200 reversed $45 $-1 #
coedge $-1 $73 $76 $201 $202 reversed $45 $-1 #
coedge $-1 $203 $204 $73 $128 forward $122 $-1 #
edge $-1 $205 -10.475868768992592 $206 10.475868768992592 $127 $207 forward 7 unknown #
coedge $-1 $75 $74 $208 $209 reversed $29 $-1 #
edge $-1 $210 -21.411641285439618 $133 -18.411641285439618 $124 $211 forward 7 unknown #
coedge $-1 $212 $201 $75 $132 forward $196 $-1 #
edge $-1 $134 18.411641285439618 $213 21.411641285439618 $131 $214 forward 7 unknown #
vertex $-1 $130 $215 #
vertex $-1 $132 $216 #
straight-curve $-1 -38.323282570879236 -19.7791167211446 0 0 0 -1 I I #
face $-1 $217 $218 $17 $-1 $219 forward single #
loop $-1 $-1 $144 $78 #
plane-surface $-1 0 28.725400588593974 0 0 -1 0 0 0 -1 forward_v I I I I #
coedge $-1 $84 $220 $81 $142 forward $79 $-1 #
coedge $-1 $221 $81 $222 $223 reversed $49 $-1 #
coedge $-1 $81 $221 $82 $143 reversed $49 $-1 #
edge $-1 $224 -24.471815163648461 $147 -9.2311196508131168 $139 $225 forward 7 unknown #
edge $-1 $147 51.402656137316214 $226 57.450801177187941 $82 $227 forward 7 unknown #
coedge $-1 $228 $229 $83 $145 forward $137 $-1 #
edge $-1 $148 38.456031128091496 $226 43.585149062361914 $144 $230 forward 7 unknown #
coedge $-1 $231 $84 $229 $232 forward $79 $-1 #
vertex $-1 $142 $233 #
vertex $-1 $232 $234 #
straight-curve $-1 26.082587058043906 34.184688952521832 10.475868768992591 0 1 0 I I #
face $-1 $235 $236 $18 $-1 $237 forward single #
loop $-1 $238 $92 $86 #
plane-surface $-1 33.702934814461578 -1.7188849722356423 54.067793850973786 0 0.84804810408105047 0.52991925155115449 1 0 0 forward_v I I I I #
coedge $-1 $239 $240 $241 $242 reversed $87 $-1 #
coedge $-1 $154 $154 $-1 $243 forward $89 $-1 #
edge $-1 $244 0 $244 6.2831853071796004 $90 $245 forward 7 unknown #
vertex $-1 $93 $246 #
ellipse-curve $-1 30.43707149028257 27.122886342193155 7.911309801857378 0 -0.84804810408105047 -0.52991925155115449 1 0 0 1 I I #
face $-1 $247 $248 $19 $-1 $249 forward single #
loop $-1 $250 $251 $94 #
cone-surface $-1 30.43707149028257 24.926546053714556 6.5388841148930563 0 -0.84804810408105047 -0.52991925155115449 0.5 0 0 1 I I -0.70710678118654746 0.70710678118654746 0.5 forward I I I I #
loop $-1 $-1 $252 $57 #
coedge $-1 $162 $162 $253 $254 reversed $95 $-1 #
coedge $-1 $163 $163 $-1 $255 forward $97 $-1 #
edge $-1 $256 0 $256 6.2831853071796004 $98 $257 forward 7 unknown #
loop $-1 $258 $100 $247 #
vertex $-1 $101 $259 #
ellipse-curve $-1 36.968798138640572 27.122886342193155 7.911309801857378 0 -0.84804810408105047 -0.52991925155115449 1 0 0 1 I I #
face $-1 $-1 $117 $15 $-1 $260 reversed single #
loop $-1 $-1 $184 $102 #
plane-surface $-1 0 28.725400588593974 0 0 -1 0 0 0 -1 forward_v I I I I #
coedge $-1 $261 $182 $185 $262 forward $103 $-1 #
coedge $-1 $188 $105 $106 $176 reversed $63 $-1 #
coedge $-1 $182 $261 $105 $174 reversed $103 $-1 #
edge $-1 $189 -10.475868768992592 $263 10.475868768992592 $173 $264 forward 7 unknown #
coedge $-1 $107 $106 $261 $265 forward $41 $-1 #
edge $-1 $180 -41.323282570879236 $263 41.323282570879236 $172 $266 forward 7 unknown #
coedge $-1 $185 $184 $107 $178 reversed $169 $-1 #
edge $-1 $267 -41.323282570879236 $179 41.323282570879236 $177 $268 forward 7 unknown #
vertex $-1 $109 $269 #
vertex $-1 $191 $270 #
straight-curve $-1 41.323282570879236 0 -10.475868768992592 0 -1 0 I I #
coedge $-1 $171 $173 $110 $183 reversed $103 $-1 #
edge $-1 $186 -28.725400588593974 $189 28.725400588593974 $182 $271 forward 7 unknown #
coedge $-1 $177 $111 $116 $192 forward $169 $-1 #
coedge $-1 $111 $177 $171 $262 reversed $169 $-1 #
vertex $-1 $112 $272 #
straight-curve $-1 0 28.725400588593974 10.475868768992592 -1 0 0 I I #
coedge $-1 $113 $172 $115 $191 reversed $63 $-1 #
vertex $-1 $183 $273 #
straight-curve $-1 0 -28.725400588593974 10.475868768992592 1 0 0 I I #
edge $-1 $118 -10.475868768992592 $180 10.475868768992592 $115 $274 forward 7 unknown #
edge $-1 $119 -10.475868768992592 $179 10.475868768992592 $116 $275 forward 7 unknown #
point $-1 41.323282570879236 -28.725400588593974 10.475868768992592 #
point $-1 41.323282570879236 28.725400588593974 10.475868768992592 #
face $-1 $276 $277 $16 $-1 $278 reversed single #
loop $-1 $-1 $131 $121 #
plane-surface $-1 0 0 -10.475868768992592 0 0 1 1 0 0 forward_v I I I I #
coedge $-1 $279 $124 $125 $200 forward $71 $-1 #
coedge $-1 $124 $280 $281 $282 forward $71 $-1 #
edge $-1 $133 7.6529873937099566 $205 16.59927126115933 $198 $283 forward 7 unknown #
coedge $-1 $131 $284 $126 $202 forward $196 $-1 #
edge $-1 $206 -16.59927126115933 $134 -7.6529873937099566 $201 $285 forward 7 unknown #
coedge $-1 $286 $127 $284 $287 reversed $122 $-1 #
coedge $-1 $127 $286 $279 $288 reversed $122 $-1 #
vertex $-1 $288 $289 #
vertex $-1 $128 $290 #
straight-curve $-1 -38.323282570879236 -28.725400588593974 0 0 0 -1 I I #
coedge $-1 $281 $291 $129 $209 forward $277 $-1 #
edge $-1 $213 -10.475868768992592 $210 10.475868768992592 $208 $292 forward 7 unknown #
vertex $-1 $209 $293 #
straight-curve $-1 -19.911641285439618 -19.7791167211446 10.475868768992592 1 0 0 I I #
coedge $-1 $294 $131 $291 $295 forward $196 $-1 #
vertex $-1 $295 $296 #
straight-curve $-1 -19.911641285439618 -19.7791167211446 -10.475868768992592 -1 0 0 I I #
point $-1 -38.323282570879236 -19.7791167211446 10.475868768992592 #
point $-1 -38.323282570879236 -19.7791167211446 -10.475868768992592 #
face $-1 $297 $298 $17 $-1 $299 forward single #
loop $-1 $-1 $300 $136 #
plane-surface $-1 -39.823282570879236 -19.7791167211446 0 0 -1 0 0 0 -1 forward_v I I I I #
coedge $-1 $139 $301 $302 $303 forward $79 $-1 #
coedge $-1 $141 $140 $228 $304 reversed $49 $-1 #
coedge $-1 $302 $305 $140 $223 forward $306 $-1 #
edge $-1 $307 -34.069321024611412 $224 -28.021175984739699 $222 $308 forward 7 unknown #
vertex $-1 $223 $309 #
straight-curve $-1 16.851467407230789 25.520372095792332 10.475868768992591 -1 0 0 I I #
vertex $-1 $304 $310 #
straight-curve $-1 26.082587058043906 -1.7188849722356423 54.067793850973786 0 0.52991925155115449 -0.84804810408105047 I I #
coedge $-1 $311 $144 $221 $304 forward $137 $-1 #
coedge $-1 $144 $312 $146 $232 reversed $137 $-1 #
straight-curve $-1 26.082587058043906 28.725400588593974 48.931899897084087 0 0 -1 I I #
coedge $-1 $313 $146 $314 $315 forward $79 $-1 #
edge $-1 $148 -26.082587058043906 $316 41.323282570879236 $229 $317 forward 7 unknown #
point $-1 26.082587058043906 25.520372095792329 10.475868768992591 #
point $-1 26.082587058043906 28.725400588593974 10.475868768992592 #
face $-1 $318 $319 $18 $-1 $320 reversed single #
loop $-1 $-1 $321 $150 #
plane-surface $-1 0 0 10.475868768992592 0 0 1 1 0 0 forward_v I I I I #
loop $-1 $-1 $322 $86 #
coedge $-1 $240 $153 $323 $324 forward $87 $-1 #
coedge $-1 $153 $239 $325 $326 reversed $87 $-1 #
coedge $-1 $327 $321 $153 $242 forward $236 $-1 #
edge $-1 $328 -8.6643168567295028 $329 -5.4592883639278575 $241 $330 forward 7 unknown #
edge $-1 $331 1 $331 0 $154 $-1 forward 7 unknown #
vertex $-1 $155 $332 #
ellipse-curve $-1 30.43707149028257 25.350570105755082 6.8038437406686336 0 0.84804810408105047 0.52991925155115449 1 0 0 1 I I #
point $-1 31.43707149028257 27.122886342193151 7.9113098018573744 #
face $-1 $333 $165 $19 $-1 $334 forward single #
loop $-1 $-1 $335 $158 #
plane-surface $-1 26.082587058043906 68.369377905043663 97.863799794168173 1 0 0 0 -0.84804810408105047 -0.52991925155115449 forward_v I I I I #
loop $-1 $-1 $336 $94 #
coedge $-1 $251 $251 $252 $337 forward $159 $-1 #
coedge $-1 $252 $252 $251 $337 reversed $161 $-1 #
coedge $-1 $253 $253 $162 $254 forward $258 $-1 #
edge $-1 $338 -1.1302207260040686e-015 $338 6.2831853071795996 $253 $339 forward 7 unknown #
edge $-1 $340 1 $340 0 $163 $-1 forward 7 unknown #
vertex $-1 $164 $341 #
ellipse-curve $-1 36.968798138640572 25.350570105755082 6.8038437406686336 0 0.84804810408105047 0.52991925155115449 1 0 0 1 I I #
loop $-1 $342 $253 $247 #
point $-1 37.968798138640572 27.122886342193151 7.9113098018573744 #
plane-surface $-1 41.323282570879236 0 0 -1 0 0 0 0 1 forward_v I I I I #
coedge $-1 $173 $171 $175 $265 reversed $103 $-1 #
edge $-1 $186 -10.475868768992592 $267 10.475868768992592 $185 $343 forward 7 unknown #
vertex $-1 $265 $344 #
straight-curve $-1 -41.323282570879236 -28.725400588593974 0 0 0 -1 I I #
edge $-1 $263 -28.725400588593974 $267 28.725400588593974 $261 $345 forward 7 unknown #
straight-curve $-1 0 -28.725400588593974 -10.475868768992592 -1 0 0 I I #
vertex $-1 $178 $346 #
straight-curve $-1 0 28.725400588593974 -10.475868768992592 1 0 0 I I #
point $-1 41.323282570879236 28.725400588593974 -10.475868768992592 #
point $-1 41.323282570879236 -28.725400588593974 -10.475868768992592 #
straight-curve $-1 -41.323282570879236 0 10.475868768992592 0 -1 0 I I #
point $-1 -41.323282570879236 28.725400588593974 10.475868768992592 #
point $-1 -41.323282570879236 -28.725400588593974 10.475868768992592 #
straight-curve $-1 41.323282570879236 -28.725400588593974 0 0 0 -1 I I #
straight-curve $-1 41.323282570879236 28.725400588593974 0 0 0 -1 I I #
face $-1 $347 $348 $16 $-1 $349 reversed single #
loop $-1 $-1 $208 $195 #
plane-surface $-1 -41.323282570879236 0 0 1 0 0 0 0 -1 forward_v I I I I #
coedge $-1 $350 $198 $204 $288 forward $71 $-1 #
coedge $-1 $199 $350 $351 $352 forward $71 $-1 #
coedge $-1 $353 $208 $199 $282 reversed $277 $-1 #
edge $-1 $354 -28.725400588593974 $210 19.7791167211446 $281 $355 forward 7 unknown #
straight-curve $-1 -38.323282570879236 -12.126129327434644 10.475868768992592 0 -1 0 I I #
coedge $-1 $201 $356 $203 $287 forward $196 $-1 #
straight-curve $-1 -38.323282570879236 -12.126129327434644 -10.475868768992592 0 1 0 I I #
coedge $-1 $204 $203 $357 $358 reversed $122 $-1 #
edge $-1 $359 -41.323282570879236 $206 38.323282570879236 $203 $360 forward 7 unknown #
edge $-1 $205 -38.323282570879236 $361 41.323282570879236 $204 $362 forward 7 unknown #
point $-1 -38.323282570879236 -28.725400588593974 10.475868768992592 #
point $-1 -38.323282570879236 -28.725400588593974 -10.475868768992592 #
coedge $-1 $208 $353 $212 $295 reversed $277 $-1 #
straight-curve $-1 -41.323282570879236 -19.7791167211446 0 0 0 1 I I #
point $-1 -41.323282570879236 -19.7791167211446 10.475868768992592 #
coedge $-1 $356 $212 $363 $364 forward $196 $-1 #
edge $-1 $213 -19.7791167211446 $365 28.725400588593974 $291 $366 forward 7 unknown #
point $-1 -41.323282570879236 -19.7791167211446 -10.475868768992592 #
face $-1 $367 $368 $17 $-1 $369 reversed single #
loop $-1 $-1 $370 $217 #
plane-surface $-1 -38.323282570879236 -24.252258654869287 0 -1 0 0 0 0 1 forward_v I I I I #
coedge $-1 $371 $372 $373 $374 reversed $218 $-1 #
coedge $-1 $220 $375 $376 $377 forward $79 $-1 #
coedge $-1 $378 $222 $220 $303 reversed $306 $-1 #
edge $-1 $379 -28.725400588593974 $224 25.520372095792329 $302 $380 forward 7 unknown #
edge $-1 $226 9.2311196508131168 $307 24.471815163648461 $228 $381 forward 7 unknown #
coedge $-1 $222 $382 $311 $383 reversed $306 $-1 #
loop $-1 $-1 $222 $384 #
vertex $-1 $383 $385 #
straight-curve $-1 41.323282570879236 10.671411490375881 34.239173936972556 0 -0.52991925155115449 0.84804810408105047 I I #
point $-1 41.32328257087925 25.520372095792329 10.475868768992591 #
point $-1 26.082587058043906 28.725400588593974 5.3467508347221724 #
coedge $-1 $386 $228 $305 $383 forward $137 $-1 #
coedge $-1 $229 $386 $387 $388 reversed $137 $-1 #
coedge $-1 $375 $231 $371 $389 forward $79 $-1 #
coedge $-1 $387 $390 $231 $315 reversed $391 $-1 #
edge $-1 $316 -28.725400588593974 $392 19.7791167211446 $314 $393 forward 7 unknown #
vertex $-1 $232 $394 #
straight-curve $-1 0 28.725400588593974 10.475868768992592 -1 0 0 I I #
face $-1 $395 $396 $18 $-1 $397 forward single #
loop $-1 $-1 $325 $235 #
plane-surface $-1 0 28.725400588593974 0 0 -1 0 0 0 -1 forward_v I I I I #
coedge $-1 $241 $398 $322 $399 forward $236 $-1 #
coedge $-1 $400 $323 $321 $399 reversed $238 $-1 #
coedge $-1 $322 $401 $239 $324 reversed $238 $-1 #
edge $-1 $328 51.402656137316214 $402 57.450801177187941 $239 $403 forward 7 unknown #
coedge $-1 $404 $405 $240 $326 forward $319 $-1 #
edge $-1 $329 38.456031128091496 $402 43.585149062361914 $325 $406 forward 7 unknown #
coedge $-1 $407 $241 $405 $408 forward $236 $-1 #
vertex $-1 $399 $409 #
vertex $-1 $408 $410 #
straight-curve $-1 26.082587058043906 34.184688952521832 10.475868768992591 0 1 0 I I #
vertex $-1 $243 $411 #
point $-1 31.43707149028257 25.350570105755082 6.8038437406686336 #
face $-1 $412 $413 $19 $-1 $414 forward single #
plane-surface $-1 33.702934814461578 -1.7188849722356423 54.067793850973786 0 0.84804810408105047 0.52991925155115449 1 0 0 forward_v I I I I #
coedge $-1 $415 $416 $417 $418 reversed $248 $-1 #
coedge $-1 $336 $336 $-1 $419 forward $250 $-1 #
edge $-1 $420 0 $420 6.2831853071796004 $251 $421 forward 7 unknown #
vertex $-1 $254 $422 #
ellipse-curve $-1 30.43707149028257 27.122886342193155 7.911309801857378 0 -0.84804810408105047 -0.52991925155115449 1 0 0 1 I I #
vertex $-1 $255 $423 #
point $-1 37.968798138640572 25.350570105755082 6.8038437406686336 #
loop $-1 $-1 $424 $247 #
straight-curve $-1 -41.323282570879236 28.725400588593974 0 0 0 -1 I I #
point $-1 -41.323282570879236 -28.725400588593974 -10.475868768992592 #
straight-curve $-1 -41.323282570879236 0 -10.475868768992592 0 1 0 I I #
point $-1 -41.323282570879236 28.725400588593974 -10.475868768992592 #
face $-1 $-1 $425 $16 $-1 $426 reversed single #
loop $-1 $-1 $427 $276 #
plane-surface $-1 0 28.725400588593974 0 0 -1 0 0 0 -1 forward_v I I I I #
coedge $-1 $280 $279 $428 $429 forward $71 $-1 #
coedge $-1 $427 $430 $280 $352 reversed $348 $-1 #
edge $-1 $431 -41.323282570879236 $354 41.323282570879236 $351 $432 forward 7 unknown #
coedge $-1 $291 $281 $430 $433 forward $277 $-1 #
vertex $-1 $352 $434 #
straight-curve $-1 -41.323282570879236 0 10.475868768992592 0 -1 0 I I #
coedge $-1 $284 $294 $435 $436 forward $196 $-1 #
coedge $-1 $435 $428 $286 $358 forward $425 $-1 #
edge $-1 $361 -10.475868768992592 $359 10.475868768992592 $357 $437 forward 7 unknown #
vertex $-1 $358 $438 #
straight-curve $-1 0 -28.725400588593974 -10.475868768992592 -1 0 0 I I #
vertex $-1 $429 $439 #
straight-curve $-1 0 -28.725400588593974 10.475868768992592 1 0 0 I I #
coedge $-1 $430 $427 $294 $364 reversed $348 $-1 #
edge $-1 $365 -41.323282570879236 $440 41.323282570879236 $363 $441 forward 7 unknown #
vertex $-1 $364 $442 #
straight-curve $-1 -41.323282570879236 0 -10.475868768992592 0 1 0 I I #
face $-1 $443 $444 $17 $-1 $445 reversed single #
loop $-1 $-1 $446 $297 #
plane-surface $-1 0 -28.725400588593974 0 0 1 0 0 0 1 forward_v I I I I #
coedge $-1 $447 $448 $446 $449 reversed $298 $-1 #
coedge $-1 $450 $300 $313 $389 reversed $218 $-1 #
coedge $-1 $300 $450 $451 $452 reversed $218 $-1 #
coedge $-1 $448 $447 $300 $374 forward $298 $-1 #
edge $-1 $453 -10.475868768992592 $454 10.475868768992592 $373 $455 forward 7 unknown #
coedge $-1 $301 $313 $447 $456 forward $79 $-1 #
coedge $-1 $446 $457 $301 $377 reversed $368 $-1 #
edge $-1 $458 -38.323282570879236 $379 41.323282570879236 $376 $459 forward 7 unknown #
coedge $-1 $382 $302 $457 $460 forward $306 $-1 #
vertex $-1 $303 $461 #
straight-curve $-1 41.323282570879236 0 10.475868768992592 0 1 0 I I #
straight-curve $-1 16.851467407230789 28.72540058859397 5.3467508347221759 1 0 0 I I #
coedge $-1 $305 $378 $462 $463 reversed $306 $-1 #
edge $-1 $307 -5.3467508347221724 $464 10.475868768992592 $305 $465 forward 7 unknown #
face $-1 $-1 $306 $17 $-1 $466 reversed single #
point $-1 41.32328257087925 28.725400588593974 5.3467508347221724 #
coedge $-1 $312 $311 $467 $468 reversed $137 $-1 #
coedge $-1 $469 $314 $312 $388 forward $391 $-1 #
edge $-1 $316 -10.475868768992592 $470 10.475868768992592 $312 $471 forward 7 unknown #
edge $-1 $392 -21.411641285439618 $453 -18.411641285439618 $313 $472 forward 7 unknown #
coedge $-1 $314 $469 $450 $473 forward $391 $-1 #
loop $-1 $-1 $390 $443 #
vertex $-1 $473 $474 #
straight-curve $-1 -41.323282570879236 0 10.475868768992592 0 -1 0 I I #
point $-1 -41.323282570879236 28.725400588593974 10.475868768992592 #
face $-1 $475 $476 $18 $-1 $477 forward single #
loop $-1 $-1 $478 $318 #
plane-surface $-1 -39.823282570879236 -19.7791167211446 0 0 -1 0 0 0 -1 forward_v I I I I #
coedge $-1 $321 $479 $480 $481 forward $236 $-1 #
edge $-1 $482 -24.471815163648461 $328 -9.2311196508131168 $321 $483 forward 7 unknown #
coedge $-1 $401 $322 $484 $485 reversed $238 $-1 #
coedge $-1 $323 $400 $404 $486 reversed $238 $-1 #
vertex $-1 $486 $487 #
straight-curve $-1 26.082587058043906 -1.7188849722356423 54.067793850973786 0 0.52991925155115449 -0.84804810408105047 I I #
coedge $-1 $488 $325 $401 $486 forward $319 $-1 #
coedge $-1 $325 $489 $327 $408 reversed $319 $-1 #
straight-curve $-1 26.082587058043906 28.725400588593974 48.931899897084087 0 0 -1 I I #
coedge $-1 $490 $327 $491 $492 forward $236 $-1 #
edge $-1 $329 -26.082587058043906 $493 41.323282570879236 $405 $494 forward 7 unknown #
point $-1 26.082587058043906 25.520372095792329 10.475868768992591 #
point $-1 26.082587058043906 28.725400588593974 10.475868768992592 #
point $-1 30.43707149028257 24.502522001674031 6.273924489117479 #
face $-1 $495 $496 $19 $-1 $497 reversed single #
loop $-1 $-1 $498 $333 #
plane-surface $-1 0 0 10.475868768992592 0 0 1 1 0 0 forward_v I I I I #
coedge $-1 $416 $335 $499 $500 forward $248 $-1 #
coedge $-1 $335 $415 $501 $502 reversed $248 $-1 #
coedge $-1 $503 $498 $335 $418 forward $413 $-1 #
edge $-1 $504 -8.6643168567295028 $505 -5.4592883639278575 $417 $506 forward 7 unknown #
edge $-1 $507 1 $507 0 $336 $-1 forward 7 unknown #
vertex $-1 $337 $508 #
ellipse-curve $-1 30.43707149028257 25.350570105755082 6.8038437406686336 0 0.84804810408105047 0.52991925155115449 1 0 0 1 I I #
point $-1 31.43707149028257 27.122886342193151 7.9113098018573744 #
point $-1 36.968798138640572 24.502522001674031 6.273924489117479 #
coedge $-1 $509 $499 $498 $510 reversed $342 $-1 #
loop $-1 $-1 $357 $347 #
plane-surface $-1 41.323282570879236 0 0 -1 0 0 0 0 1 forward_v I I I I #
coedge $-1 $363 $351 $511 $512 forward $348 $-1 #
coedge $-1 $357 $511 $350 $429 reversed $425 $-1 #
edge $-1 $361 -28.725400588593974 $431 28.725400588593974 $428 $513 forward 7 unknown #
coedge $-1 $351 $363 $353 $433 reversed $348 $-1 #
vertex $-1 $429 $514 #
straight-curve $-1 0 28.725400588593974 10.475868768992592 -1 0 0 I I #
edge $-1 $354 -10.475868768992592 $365 10.475868768992592 $430 $515 forward 7 unknown #
point $-1 -41.323282570879236 28.725400588593974 10.475868768992592 #
coedge $-1 $511 $357 $356 $436 reversed $425 $-1 #
edge $-1 $440 -28.725400588593974 $359 28.725400588593974 $435 $516 forward 7 unknown #
straight-curve $-1 41.323282570879236 -28.725400588593974 0 0 0 -1 I I #
point $-1 41.323282570879236 -28.725400588593974 -10.475868768992592 #
point $-1 41.323282570879236 -28.725400588593974 10.475868768992592 #
vertex $-1 $436 $517 #
straight-curve $-1 0 28.725400588593974 -10.475868768992592 1 0 0 I I #
point $-1 -41.323282570879236 28.725400588593974 -10.475868768992592 #
face $-1 $384 $391 $17 $-1 $518 reversed single #
loop $-1 $-1 $451 $367 #
plane-surface $-1 0 0 -10.475868768992592 0 0 1 1 0 0 forward_v I I I I #
coedge $-1 $519 $376 $370 $449 forward $368 $-1 #
coedge $-1 $373 $370 $375 $456 reversed $298 $-1 #
coedge $-1 $370 $373 $520 $521 reversed $298 $-1 #
edge $-1 $458 -10.475868768992592 $522 10.475868768992592 $446 $523 forward 7 unknown #
coedge $-1 $372 $371 $390 $473 reversed $218 $-1 #
coedge $-1 $524 $520 $372 $452 forward $444 $-1 #
edge $-1 $454 18.411641285439618 $525 21.411641285439618 $451 $526 forward 7 unknown #
vertex $-1 $389 $527 #
vertex $-1 $452 $528 #
straight-curve $-1 -38.323282570879236 -19.7791167211446 0 0 0 -1 I I #
edge $-1 $453 7.6529873937099566 $458 16.59927126115933 $375 $529 forward 7 unknown #
coedge $-1 $376 $519 $378 $460 reversed $368 $-1 #
vertex $-1 $377 $530 #
straight-curve $-1 0 -28.725400588593974 10.475868768992592 1 0 0 I I #
edge $-1 $379 -10.475868768992592 $531 10.475868768992592 $378 $532 forward 7 unknown #
point $-1 41.323282570879236 -28.725400588593974 10.475868768992592 #
coedge $-1 $533 $467 $382 $463 forward $444 $-1 #
edge $-1 $464 -28.725400588593974 $531 28.725400588593974 $382 $534 forward 7 unknown #
vertex $-1 $463 $535 #
straight-curve $-1 41.323282570879236 28.725400588593974 0 0 0 -1 I I #
plane-surface $-1 41.323282570879236 0 0 -1 0 0 0 0 1 forward_v I I I I #
coedge $-1 $462 $524 $386 $468 forward $444 $-1 #
edge $-1 $470 -41.323282570879236 $464 41.323282570879236 $386 $536 forward 7 unknown #
coedge $-1 $390 $387 $524 $537 reversed $391 $-1 #
vertex $-1 $468 $538 #
straight-curve $-1 -41.323282570879236 28.725400588593974 0 0 0 -1 I I #
straight-curve $-1 -19.911641285439618 -19.7791167211446 10.475868768992592 1 0 0 I I #
edge $-1 $525 -10.475868768992592 $392 10.475868768992592 $390 $539 forward 7 unknown #
point $-1 -41.323282570879236 -19.7791167211446 10.475868768992592 #
face $-1 $540 $541 $18 $-1 $542 reversed single #
loop $-1 $-1 $543 $395 #
plane-surface $-1 -38.323282570879236 -24.252258654869287 0 -1 0 0 0 0 1 forward_v I I I I #
coedge $-1 $544 $545 $546 $547 reversed $396 $-1 #
coedge $-1 $398 $548 $549 $550 forward $236 $-1 #
coedge $-1 $551 $484 $398 $481 reversed $552 $-1 #
edge $-1 $553 -28.725400588593974 $482 25.520372095792329 $480 $554 forward 7 unknown #
vertex $-1 $485 $555 #
straight-curve $-1 16.851467407230789 25.520372095792332 10.475868768992591 -1 0 0 I I #
coedge $-1 $480 $556 $400 $485 forward $552 $-1 #
edge $-1 $557 -34.069321024611412 $482 -28.021175984739699 $484 $558 forward 7 unknown #
edge $-1 $402 9.2311196508131168 $557 24.471815163648461 $404 $559 forward 7 unknown #
point $-1 26.082587058043906 28.725400588593974 5.3467508347221724 #
coedge $-1 $560 $404 $556 $561 forward $319 $-1 #
coedge $-1 $405 $560 $562 $563 reversed $319 $-1 #
coedge $-1 $548 $407 $544 $564 forward $236 $-1 #
coedge $-1 $562 $565 $407 $492 reversed $566 $-1 #
edge $-1 $493 -28.725400588593974 $567 19.7791167211446 $491 $568 forward 7 unknown #
vertex $-1 $408 $569 #
straight-curve $-1 0 28.725400588593974 10.475868768992592 -1 0 0 I I #
face $-1 $570 $571 $19 $-1 $572 forward single #
loop $-1 $-1 $501 $412 #
plane-surface $-1 0 28.725400588593974 0 0 -1 0 0 0 -1 forward_v I I I I #
coedge $-1 $417 $573 $424 $510 forward $413 $-1 #
coedge $-1 $424 $574 $415 $500 reversed $342 $-1 #
edge $-1 $504 51.402656137316214 $575 57.450801177187941 $415 $576 forward 7 unknown #
coedge $-1 $577 $578 $416 $502 forward $496 $-1 #
edge $-1 $505 38.456031128091496 $575 43.585149062361914 $501 $579 forward 7 unknown #
coedge $-1 $580 $417 $578 $581 forward $413 $-1 #
vertex $-1 $510 $582 #
vertex $-1 $581 $583 #
straight-curve $-1 26.082587058043906 34.184688952521832 10.475868768992591 0 1 0 I I #
vertex $-1 $419 $584 #
point $-1 31.43707149028257 25.350570105755082 6.8038437406686336 #
coedge $-1 $574 $424 $585 $586 reversed $342 $-1 #
edge $-1 $587 -24.471815163648461 $504 -9.2311196508131168 $498 $588 forward 7 unknown #
coedge $-1 $428 $435 $427 $512 reversed $425 $-1 #
edge $-1 $431 -10.475868768992592 $440 10.475868768992592 $511 $589 forward 7 unknown #
straight-curve $-1 41.323282570879236 0 10.475868768992592 0 1 0 I I #
point $-1 41.323282570879236 28.725400588593974 10.475868768992592 #
straight-curve $-1 -41.323282570879236 28.725400588593974 0 0 0 -1 I I #
straight-curve $-1 41.323282570879236 0 -10.475868768992592 0 -1 0 I I #
point $-1 41.323282570879236 28.725400588593974 -10.475868768992592 #
plane-surface $-1 -41.323282570879236 0 0 1 0 0 0 0 -1 forward_v I I I I #
coedge $-1 $457 $446 $533 $590 reversed $368 $-1 #
coedge $-1 $451 $533 $448 $521 forward $444 $-1 #
edge $-1 $522 -16.59927126115933 $454 -7.6529873937099566 $520 $591 forward 7 unknown #
vertex $-1 $449 $592 #
straight-curve $-1 -38.323282570879236 -28.725400588593974 0 0 0 -1 I I #
coedge $-1 $467 $451 $469 $537 forward $444 $-1 #
vertex $-1 $537 $593 #
straight-curve $-1 -19.911641285439618 -19.7791167211446 -10.475868768992592 -1 0 0 I I #
point $-1 -38.323282570879236 -19.7791167211446 10.475868768992592 #
point $-1 -38.323282570879236 -19.7791167211446 -10.475868768992592 #
straight-curve $-1 -38.323282570879236 -12.126129327434644 10.475868768992592 0 -1 0 I I #
point $-1 -38.323282570879236 -28.725400588593974 10.475868768992592 #
vertex $-1 $460 $594 #
straight-curve $-1 41.323282570879236 -28.725400588593974 0 0 0 -1 I I #
coedge $-1 $520 $462 $519 $590 forward $444 $-1 #
straight-curve $-1 41.323282570879236 0 -10.475868768992592 0 -1 0 I I #
point $-1 41.323282570879236 28.725400588593974 -10.475868768992592 #
straight-curve $-1 0 28.725400588593974 -10.475868768992592 1 0 0 I I #
edge $-1 $525 -19.7791167211446 $470 28.725400588593974 $469 $595 forward 7 unknown #
point $-1 -41.323282570879236 28.725400588593974 -10.475868768992592 #
straight-curve $-1 -41.323282570879236 -19.7791167211446 0 0 0 1 I I #
face $-1 $596 $597 $18 $-1 $598 reversed single #
loop $-1 $-1 $599 $475 #
plane-surface $-1 0 -28.725400588593974 0 0 1 0 0 0 1 forward_v I I I I #
coedge $-1 $600 $601 $599 $602 reversed $476 $-1 #
coedge $-1 $603 $478 $490 $564 reversed $396 $-1 #
coedge $-1 $478 $603 $604 $605 reversed $396 $-1 #
coedge $-1 $601 $600 $478 $547 forward $476 $-1 #
edge $-1 $606 -10.475868768992592 $607 10.475868768992592 $546 $608 forward 7 unknown #
coedge $-1 $479 $490 $600 $609 forward $236 $-1 #
coedge $-1 $599 $610 $479 $550 reversed $541 $-1 #
edge $-1 $611 -38.323282570879236 $553 41.323282570879236 $549 $612 forward 7 unknown #
coedge $-1 $613 $480 $610 $614 forward $552 $-1 #
loop $-1 $-1 $484 $615 #
vertex $-1 $481 $616 #
straight-curve $-1 41.323282570879236 0 10.475868768992592 0 1 0 I I #
point $-1 41.32328257087925 25.520372095792329 10.475868768992591 #
coedge $-1 $484 $613 $488 $561 reversed $552 $-1 #
vertex $-1 $561 $617 #
straight-curve $-1 41.323282570879236 10.671411490375881 34.239173936972556 0 -0.52991925155115449 0.84804810408105047 I I #
straight-curve $-1 16.851467407230789 28.72540058859397 5.3467508347221759 1 0 0 I I #
coedge $-1 $489 $488 $618 $619 reversed $319 $-1 #
edge $-1 $557 -5.3467508347221724 $620 10.475868768992592 $556 $621 forward 7 unknown #
coedge $-1 $622 $491 $489 $563 forward $566 $-1 #
edge $-1 $493 -10.475868768992592 $623 10.475868768992592 $489 $624 forward 7 unknown #
edge $-1 $567 -21.411641285439618 $606 -18.411641285439618 $490 $625 forward 7 unknown #
coedge $-1 $491 $622 $603 $626 forward $566 $-1 #
loop $-1 $-1 $565 $596 #
vertex $-1 $626 $627 #
straight-curve $-1 -41.323282570879236 0 10.475868768992592 0 -1 0 I I #
point $-1 -41.323282570879236 28.725400588593974 10.475868768992592 #
face $-1 $628 $629 $19 $-1 $630 forward single #
loop $-1 $-1 $631 $495 #
plane-surface $-1 -39.823282570879236 -19.7791167211446 0 0 -1 0 0 0 -1 forward_v I I I I #
coedge $-1 $498 $632 $633 $634 forward $413 $-1 #
coedge $-1 $499 $509 $577 $635 reversed $342 $-1 #
vertex $-1 $635 $636 #
straight-curve $-1 26.082587058043906 -1.7188849722356423 54.067793850973786 0 0.52991925155115449 -0.84804810408105047 I I #
coedge $-1 $637 $501 $574 $635 forward $496 $-1 #
coedge $-1 $501 $638 $503 $581 reversed $496 $-1 #
straight-curve $-1 26.082587058043906 28.725400588593974 48.931899897084087 0 0 -1 I I #
coedge $-1 $639 $503 $640 $641 forward $413 $-1 #
edge $-1 $505 -26.082587058043906 $642 41.323282570879236 $578 $643 forward 7 unknown #
point $-1 26.082587058043906 25.520372095792329 10.475868768992591 #
point $-1 26.082587058043906 28.725400588593974 10.475868768992592 #
point $-1 30.43707149028257 24.502522001674031 6.273924489117479 #
coedge $-1 $633 $644 $509 $586 forward $645 $-1 #
edge $-1 $646 -34.069321024611412 $587 -28.021175984739699 $585 $647 forward 7 unknown #
vertex $-1 $586 $648 #
straight-curve $-1 16.851467407230789 25.520372095792332 10.475868768992591 -1 0 0 I I #
straight-curve $-1 41.323282570879236 28.725400588593974 0 0 0 -1 I I #
edge $-1 $531 -41.323282570879236 $522 38.323282570879236 $519 $649 forward 7 unknown #
straight-curve $-1 -38.323282570879236 -12.126129327434644 -10.475868768992592 0 1 0 I I #
point $-1 -38.323282570879236 -28.725400588593974 -10.475868768992592 #
point $-1 -41.323282570879236 -19.7791167211446 -10.475868768992592 #
point $-1 41.323282570879236 -28.725400588593974 -10.475868768992592 #
straight-curve $-1 -41.323282570879236 0 -10.475868768992592 0 1 0 I I #
face $-1 $615 $566 $18 $-1 $650 reversed single #
loop $-1 $-1 $604 $540 #
plane-surface $-1 0 0 -10.475868768992592 0 0 1 1 0 0 forward_v I I I I #
coedge $-1 $651 $549 $543 $602 forward $541 $-1 #
coedge $-1 $546 $543 $548 $609 reversed $476 $-1 #
coedge $-1 $543 $546 $652 $653 reversed $476 $-1 #
edge $-1 $611 -10.475868768992592 $654 10.475868768992592 $599 $655 forward 7 unknown #
coedge $-1 $545 $544 $565 $626 reversed $396 $-1 #
coedge $-1 $656 $652 $545 $605 forward $597 $-1 #
edge $-1 $607 18.411641285439618 $657 21.411641285439618 $604 $658 forward 7 unknown #
vertex $-1 $564 $659 #
vertex $-1 $605 $660 #
straight-curve $-1 -38.323282570879236 -19.7791167211446 0 0 0 -1 I I #
edge $-1 $606 7.6529873937099566 $611 16.59927126115933 $548 $661 forward 7 unknown #
coedge $-1 $549 $651 $551 $614 reversed $541 $-1 #
vertex $-1 $550 $662 #
straight-curve $-1 0 -28.725400588593974 10.475868768992592 1 0 0 I I #
coedge $-1 $556 $551 $663 $664 reversed $552 $-1 #
edge $-1 $553 -10.475868768992592 $665 10.475868768992592 $551 $666 forward 7 unknown #
face $-1 $-1 $552 $18 $-1 $667 reversed single #
point $-1 41.323282570879236 -28.725400588593974 10.475868768992592 #
point $-1 41.32328257087925 28.725400588593974 5.3467508347221724 #
coedge $-1 $663 $656 $560 $619 forward $597 $-1 #
edge $-1 $623 -41.323282570879236 $620 41.323282570879236 $560 $668 forward 7 unknown #
vertex $-1 $664 $669 #
straight-curve $-1 41.323282570879236 28.725400588593974 0 0 0 -1 I I #
coedge $-1 $565 $562 $656 $670 reversed $566 $-1 #
vertex $-1 $619 $671 #
straight-curve $-1 -41.323282570879236 28.725400588593974 0 0 0 -1 I I #
straight-curve $-1 -19.911641285439618 -19.7791167211446 10.475868768992592 1 0 0 I I #
edge $-1 $657 -10.475868768992592 $567 10.475868768992592 $565 $672 forward 7 unknown #
point $-1 -41.323282570879236 -19.7791167211446 10.475868768992592 #
face $-1 $673 $674 $19 $-1 $675 reversed single #
loop $-1 $-1 $676 $570 #
plane-surface $-1 -38.323282570879236 -24.252258654869287 0 -1 0 0 0 0 1 forward_v I I I I #
coedge $-1 $677 $678 $679 $680 reversed $571 $-1 #
coedge $-1 $573 $681 $682 $683 forward $413 $-1 #
coedge $-1 $684 $585 $573 $634 reversed $645 $-1 #
edge $-1 $685 -28.725400588593974 $587 25.520372095792329 $633 $686 forward 7 unknown #
edge $-1 $575 9.2311196508131168 $646 24.471815163648461 $577 $687 forward 7 unknown #
point $-1 26.082587058043906 28.725400588593974 5.3467508347221724 #
coedge $-1 $688 $577 $644 $689 forward $496 $-1 #
coedge $-1 $578 $688 $690 $691 reversed $496 $-1 #
coedge $-1 $681 $580 $677 $692 forward $413 $-1 #
coedge $-1 $690 $693 $580 $641 reversed $694 $-1 #
edge $-1 $642 -28.725400588593974 $695 19.7791167211446 $640 $696 forward 7 unknown #
vertex $-1 $581 $697 #
straight-curve $-1 0 28.725400588593974 10.475868768992592 -1 0 0 I I #
coedge $-1 $585 $698 $637 $689 reversed $645 $-1 #
loop $-1 $-1 $585 $699 #
vertex $-1 $689 $700 #
straight-curve $-1 41.323282570879236 10.671411490375881 34.239173936972556 0 -0.52991925155115449 0.84804810408105047 I I #
point $-1 41.32328257087925 25.520372095792329 10.475868768992591 #
straight-curve $-1 0 -28.725400588593974 -10.475868768992592 -1 0 0 I I #
plane-surface $-1 -41.323282570879236 0 0 1 0 0 0 0 -1 forward_v I I I I #
coedge $-1 $610 $599 $701 $702 reversed $541 $-1 #
coedge $-1 $604 $701 $601 $653 forward $597 $-1 #
edge $-1 $654 -16.59927126115933 $607 -7.6529873937099566 $652 $703 forward 7 unknown #
vertex $-1 $602 $704 #
straight-curve $-1 -38.323282570879236 -28.725400588593974 0 0 0 -1 I I #
coedge $-1 $618 $604 $622 $670 forward $597 $-1 #
vertex $-1 $670 $705 #
straight-curve $-1 -19.911641285439618 -19.7791167211446 -10.475868768992592 -1 0 0 I I #
point $-1 -38.323282570879236 -19.7791167211446 10.475868768992592 #
point $-1 -38.323282570879236 -19.7791167211446 -10.475868768992592 #
straight-curve $-1 -38.323282570879236 -12.126129327434644 10.475868768992592 0 -1 0 I I #
point $-1 -38.323282570879236 -28.725400588593974 10.475868768992592 #
coedge $-1 $701 $618 $613 $664 forward $597 $-1 #
edge $-1 $620 -28.725400588593974 $665 28.725400588593974 $613 $706 forward 7 unknown #
vertex $-1 $614 $707 #
straight-curve $-1 41.323282570879236 -28.725400588593974 0 0 0 -1 I I #
plane-surface $-1 41.323282570879236 0 0 -1 0 0 0 0 1 forward_v I I I I #
straight-curve $-1 0 28.725400588593974 -10.475868768992592 1 0 0 I I #
point $-1 41.323282570879236 28.725400588593974 -10.475868768992592 #
edge $-1 $657 -19.7791167211446 $623 28.725400588593974 $622 $708 forward 7 unknown #
point $-1 -41.323282570879236 28.725400588593974 -10.475868768992592 #
straight-curve $-1 -41.323282570879236 -19.7791167211446 0 0 0 1 I I #
face $-1 $709 $710 $19 $-1 $711 reversed single #
loop $-1 $-1 $712 $628 #
plane-surface $-1 0 -28.725400588593974 0 0 1 0 0 0 1 forward_v I I I I #
coedge $-1 $713 $714 $712 $715 reversed $629 $-1 #
coedge $-1 $716 $631 $639 $692 reversed $571 $-1 #
coedge $-1 $631 $716 $717 $718 reversed $571 $-1 #
coedge $-1 $714 $713 $631 $680 forward $629 $-1 #
edge $-1 $719 -10.475868768992592 $720 10.475868768992592 $679 $721 forward 7 unknown #
coedge $-1 $632 $639 $713 $722 forward $413 $-1 #
coedge $-1 $712 $723 $632 $683 reversed $674 $-1 #
edge $-1 $724 -38.323282570879236 $685 41.323282570879236 $682 $725 forward 7 unknown #
coedge $-1 $698 $633 $723 $726 forward $645 $-1 #
vertex $-1 $634 $727 #
straight-curve $-1 41.323282570879236 0 10.475868768992592 0 1 0 I I #
straight-curve $-1 16.851467407230789 28.72540058859397 5.3467508347221759 1 0 0 I I #
coedge $-1 $638 $637 $728 $729 reversed $496 $-1 #
edge $-1 $646 -5.3467508347221724 $730 10.475868768992592 $644 $731 forward 7 unknown #
coedge $-1 $732 $640 $638 $691 forward $694 $-1 #
edge $-1 $642 -10.475868768992592 $733 10.475868768992592 $638 $734 forward 7 unknown #
edge $-1 $695 -21.411641285439618 $719 -18.411641285439618 $639 $735 forward 7 unknown #
coedge $-1 $640 $732 $716 $736 forward $694 $-1 #
loop $-1 $-1 $693 $709 #
vertex $-1 $736 $737 #
straight-curve $-1 -41.323282570879236 0 10.475868768992592 0 -1 0 I I #
point $-1 -41.323282570879236 28.725400588593974 10.475868768992592 #
coedge $-1 $644 $684 $738 $739 reversed $645 $-1 #
face $-1 $-1 $645 $19 $-1 $740 reversed single #
point $-1 41.32328257087925 28.725400588593974 5.3467508347221724 #
coedge $-1 $652 $663 $651 $702 forward $597 $-1 #
edge $-1 $665 -41.323282570879236 $654 38.323282570879236 $651 $741 forward 7 unknown #
straight-curve $-1 -38.323282570879236 -12.126129327434644 -10.475868768992592 0 1 0 I I #
point $-1 -38.323282570879236 -28.725400588593974 -10.475868768992592 #
point $-1 -41.323282570879236 -19.7791167211446 -10.475868768992592 #
straight-curve $-1 41.323282570879236 0 -10.475868768992592 0 -1 0 I I #
point $-1 41.323282570879236 -28.725400588593974 -10.475868768992592 #
straight-curve $-1 -41.323282570879236 0 -10.475868768992592 0 1 0 I I #
face $-1 $699 $694 $19 $-1 $742 reversed single #
loop $-1 $-1 $717 $673 #
plane-surface $-1 0 0 -10.475868768992592 0 0 1 1 0 0 forward_v I I I I #
coedge $-1 $743 $682 $676 $715 forward $674 $-1 #
coedge $-1 $679 $676 $681 $722 reversed $629 $-1 #
coedge $-1 $676 $679 $744 $745 reversed $629 $-1 #
edge $-1 $724 -10.475868768992592 $746 10.475868768992592 $712 $747 forward 7 unknown #
coedge $-1 $678 $677 $693 $736 reversed $571 $-1 #
coedge $-1 $748 $744 $678 $718 forward $710 $-1 #
edge $-1 $720 18.411641285439618 $749 21.411641285439618 $717 $750 forward 7 unknown #
vertex $-1 $692 $751 #
vertex $-1 $718 $752 #
straight-curve $-1 -38.323282570879236 -19.7791167211446 0 0 0 -1 I I #
edge $-1 $719 7.6529873937099566 $724 16.59927126115933 $681 $753 forward 7 unknown #
coedge $-1 $682 $743 $684 $726 reversed $674 $-1 #
vertex $-1 $683 $754 #
straight-curve $-1 0 -28.725400588593974 10.475868768992592 1 0 0 I I #
edge $-1 $685 -10.475868768992592 $755 10.475868768992592 $684 $756 forward 7 unknown #
point $-1 41.323282570879236 -28.725400588593974 10.475868768992592 #
coedge $-1 $738 $748 $688 $729 forward $710 $-1 #
edge $-1 $733 -41.323282570879236 $730 41.323282570879236 $688 $757 forward 7 unknown #
vertex $-1 $739 $758 #
straight-curve $-1 41.323282570879236 28.725400588593974 0 0 0 -1 I I #
coedge $-1 $693 $690 $748 $759 reversed $694 $-1 #
vertex $-1 $729 $760 #
straight-curve $-1 -41.323282570879236 28.725400588593974 0 0 0 -1 I I #
straight-curve $-1 -19.911641285439618 -19.7791167211446 10.475868768992592 1 0 0 I I #
edge $-1 $749 -10.475868768992592 $695 10.475868768992592 $693 $761 forward 7 unknown #
point $-1 -41.323282570879236 -19.7791167211446 10.475868768992592 #
coedge $-1 $762 $728 $698 $739 forward $710 $-1 #
edge $-1 $730 -28.725400588593974 $755 28.725400588593974 $698 $763 forward 7 unknown #
plane-surface $-1 41.323282570879236 0 0 -1 0 0 0 0 1 forward_v I I I I #
straight-curve $-1 0 -28.725400588593974 -10.475868768992592 -1 0 0 I I #
plane-surface $-1 -41.323282570879236 0 0 1 0 0 0 0 -1 forward_v I I I I #
coedge $-1 $723 $712 $762 $764 reversed $674 $-1 #
coedge $-1 $717 $762 $714 $745 forward $710 $-1 #
edge $-1 $746 -16.59927126115933 $720 -7.6529873937099566 $744 $765 forward 7 unknown #
vertex $-1 $715 $766 #
straight-curve $-1 -38.323282570879236 -28.725400588593974 0 0 0 -1 I I #
coedge $-1 $728 $717 $732 $759 forward $710 $-1 #
vertex $-1 $759 $767 #
straight-curve $-1 -19.911641285439618 -19.7791167211446 -10.475868768992592 -1 0 0 I I #
point $-1 -38.323282570879236 -19.7791167211446 10.475868768992592 #
point $-1 -38.323282570879236 -19.7791167211446 -10.475868768992592 #
straight-curve $-1 -38.323282570879236 -12.126129327434644 10.475868768992592 0 -1 0 I I #
point $-1 -38.323282570879236 -28.725400588593974 10.475868768992592 #
vertex $-1 $726 $768 #
straight-curve $-1 41.323282570879236 -28.725400588593974 0 0 0 -1 I I #
straight-curve $-1 0 28.725400588593974 -10.475868768992592 1 0 0 I I #
point $-1 41.323282570879236 28.725400588593974 -10.475868768992592 #
edge $-1 $749 -19.7791167211446 $733 28.725400588593974 $732 $769 forward 7 unknown #
point $-1 -41.323282570879236 28.725400588593974 -10.475868768992592 #
straight-curve $-1 -41.323282570879236 -19.7791167211446 0 0 0 1 I I #
coedge $-1 $744 $738 $743 $764 forward $710 $-1 #
straight-curve $-1 41.323282570879236 0 -10.475868768992592 0 -1 0 I I #
edge $-1 $755 -41.323282570879236 $746 38.323282570879236 $743 $770 forward 7 unknown #
straight-curve $-1 -38.323282570879236 -12.126129327434644 -10.475868768992592 0 1 0 I I #
point $-1 -38.323282570879236 -28.725400588593974 -10.475868768992592 #
point $-1 -41.323282570879236 -19.7791167211446 -10.475868768992592 #
point $-1 41.323282570879236 -28.725400588593974 -10.475868768992592 #
straight-curve $-1 -41.323282570879236 0 -10.475868768992592 0 1 0 I I #
straight-curve $-1 0 -28.725400588593974 -10.475868768992592 -1 0 0 I I #
End-of-ACIS-data 