500 0 14 0           
7 Unknown 11 ACIS 5.0 NT 24 Fri Mar 26 00:27:50 1999 
-1 9.9999999999999995e-007 1e-010 
body $-1 $14 $-1 $15 #
body $-1 $16 $-1 $17 #
body $-1 $18 $-1 $19 #
body $-1 $20 $-1 $21 #
body $-1 $22 $-1 $23 #
body $-1 $24 $-1 $25 #
body $-1 $26 $-1 $27 #
body $-1 $28 $-1 $29 #
body $-1 $30 $-1 $31 #
body $-1 $32 $-1 $33 #
body $-1 $34 $-1 $35 #
body $-1 $36 $-1 $37 #
body $-1 $38 $-1 $39 #
body $-1 $40 $-1 $41 #
lump $-1 $-1 $42 $0 #
transform $-1 1 0 0 0 1 0 0 0 1 72.763451033051552 33.448936741863733 15.692121505883289 1 rotate no_reflect no_shear #
lump $-1 $-1 $43 $1 #
transform $-1 1 0 0 0 1 0 0 0 1 72.763451033051552 33.448936741863733 15.692121505883289 1 rotate no_reflect no_shear #
lump $-1 $-1 $44 $2 #
transform $-1 1 0 0 0 1 0 0 0 1 72.763451033051552 33.448936741863733 15.692121505883289 1 rotate no_reflect no_shear #
lump $-1 $-1 $45 $3 #
transform $-1 1 0 0 0 1 0 0 0 1 72.763451033051552 33.448936741863733 15.692121505883289 1 rotate no_reflect no_shear #
lump $-1 $-1 $46 $4 #
transform $-1 1 0 0 0 1 0 0 0 1 72.763451033051552 33.448936741863733 15.692121505883289 1 rotate no_reflect no_shear #
lump $-1 $-1 $47 $5 #
transform $-1 1 0 0 0 1 0 0 0 1 72.763451033051552 33.448936741863733 15.692121505883289 1 rotate no_reflect no_shear #
lump $-1 $-1 $48 $6 #
transform $-1 1 0 0 0 1 0 0 0 1 72.763451033051552 33.448936741863733 15.692121505883289 1 rotate no_reflect no_shear #
lump $-1 $-1 $49 $7 #
transform $-1 1 0 0 0 1 0 0 0 1 72.763451033051552 33.448936741863733 15.692121505883289 1 rotate no_reflect no_shear #
lump $-1 $-1 $50 $8 #
transform $-1 1 0 0 0 1 0 0 0 1 72.763451033051552 33.448936741863733 15.692121505883289 1 rotate no_reflect no_shear #
lump $-1 $-1 $51 $9 #
transform $-1 1 0 0 0 1 0 0 0 1 72.763451033051552 33.448936741863733 15.692121505883289 1 rotate no_reflect no_shear #
lump $-1 $-1 $52 $10 #
transform $-1 1 0 0 0 1 0 0 0 1 72.763451033051552 33.448936741863733 15.692121505883289 1 rotate no_reflect no_shear #
lump $-1 $-1 $53 $11 #
transform $-1 1 0 0 0 1 0 0 0 1 72.763451033051552 33.448936741863733 15.692121505883289 1 rotate no_reflect no_shear #
lump $-1 $-1 $54 $12 #
transform $-1 1 0 0 0 1 0 0 0 1 72.763451033051552 33.448936741863733 15.692121505883289 1 rotate no_reflect no_shear #
lump $-1 $-1 $55 $13 #
transform $-1 1 0 0 0 1 0 0 0 1 72.763451033051552 33.448936741863733 15.692121505883289 1 rotate no_reflect no_shear #
shell $-1 $-1 $-1 $56 $-1 $14 #
shell $-1 $-1 $-1 $57 $-1 $16 #
shell $-1 $-1 $-1 $58 $-1 $18 #
shell $-1 $-1 $-1 $59 $-1 $20 #
shell $-1 $-1 $-1 $60 $-1 $22 #
shell $-1 $-1 $-1 $61 $-1 $24 #
shell $-1 $-1 $-1 $62 $-1 $26 #
shell $-1 $-1 $-1 $63 $-1 $28 #
shell $-1 $-1 $-1 $64 $-1 $30 #
shell $-1 $-1 $-1 $65 $-1 $32 #
shell $-1 $-1 $-1 $66 $-1 $34 #
shell $-1 $-1 $-1 $67 $-1 $36 #
shell $-1 $-1 $-1 $68 $-1 $38 #
shell $-1 $-1 $-1 $69 $-1 $40 #
face $-1 $70 $71 $42 $-1 $72 forward single #
face $-1 $73 $74 $43 $-1 $75 forward single #
face $-1 $76 $77 $44 $-1 $78 forward single #
face $-1 $79 $80 $45 $-1 $81 reversed single #
face $-1 $82 $83 $46 $-1 $84 forward single #
face $-1 $85 $86 $47 $-1 $87 forward single #
face $-1 $88 $89 $48 $-1 $90 reversed single #
face $-1 $91 $92 $49 $-1 $93 forward single #
face $-1 $94 $95 $50 $-1 $96 forward single #
face $-1 $97 $98 $51 $-1 $99 forward single #
face $-1 $100 $101 $52 $-1 $102 reversed single #
face $-1 $103 $104 $53 $-1 $105 forward single #
face $-1 $106 $107 $54 $-1 $108 forward single #
face $-1 $109 $110 $55 $-1 $111 forward single #
face $-1 $112 $113 $42 $-1 $114 reversed single #
loop $-1 $-1 $115 $56 #
plane-surface $-1 0 0 15.692121505883289 0 0 1 1 0 0 forward_v I I I I #
face $-1 $116 $117 $43 $-1 $118 reversed single #
loop $-1 $-1 $119 $57 #
plane-surface $-1 0 -33.448936741863733 0 0 1 0 0 0 1 forward_v I I I I #
face $-1 $120 $121 $44 $-1 $122 reversed single #
loop $-1 $-1 $123 $58 #
plane-surface $-1 0 33.448936741863733 0 0 -1 0 0 0 -1 forward_v I I I I #
face $-1 $124 $125 $45 $-1 $126 reversed single #
loop $-1 $-1 $127 $59 #
plane-surface $-1 -179.19509074698914 1.9415581176260766 107.31362247021939 0 1 0 -0.73135370988377701 0 0.68199835119979291 forward_v I I I I #
face $-1 $128 $129 $46 $-1 $130 forward single #
loop $-1 $131 $132 $60 #
cone-surface $-1 -68.581408608189321 4.8366870368376524 11.294924307471826 0.73135370988377701 0 -0.68199835119979291 0.68199835119979291 0 0.73135370988377701 1 I I 0 1 1 forward I I I I #
face $-1 $133 $134 $47 $-1 $135 forward single #
loop $-1 $136 $137 $61 #
cone-surface $-1 -68.581408608189321 9.1793804156550181 11.294924307471826 0.73135370988377701 0 -0.68199835119979291 0.68199835119979291 0 0.73135370988377701 1 I I 0 1 1 forward I I I I #
face $-1 $138 $139 $48 $-1 $140 reversed single #
loop $-1 $-1 $141 $62 #
plane-surface $-1 19.496909480481861 0 208.94768505555476 0 -1 0 -0.50000000669873634 0 -0.8660253999169214 forward_v I I I I #
face $-1 $142 $143 $49 $-1 $144 forward single #
loop $-1 $145 $146 $63 #
cone-surface $-1 67.717504604023532 -5.5150630279952502 12.49016779657782 -0.50000000669873634 0 -0.8660253999169214 0.21650634997923035 0 -0.12500000167468409 1 I I 0 1 0.25 forward I I I I #
face $-1 $147 $148 $50 $-1 $149 forward single #
loop $-1 $150 $151 $64 #
cone-surface $-1 67.717504604023532 -3.4469143924970318 12.49016779657782 -0.50000000669873634 0 -0.8660253999169214 0.21650634997923035 0 -0.12500000167468409 1 I I 0 1 0.25 forward I I I I #
face $-1 $152 $153 $51 $-1 $154 forward single #
loop $-1 $155 $156 $65 #
cone-surface $-1 67.717504604023532 -1.3787657569988099 12.49016779657782 -0.50000000669873634 0 -0.8660253999169214 0.21650634997923035 0 -0.12500000167468409 1 I I 0 1 0.25 forward I I I I #
face $-1 $157 $158 $52 $-1 $159 reversed single #
loop $-1 $-1 $160 $66 #
plane-surface $-1 19.496909480481861 6.8938287849940671 208.94768505555476 0 -1 0 -0.50000000669873634 0 -0.8660253999169214 forward_v I I I I #
face $-1 $161 $162 $53 $-1 $163 forward single #
loop $-1 $164 $165 $67 #
cone-surface $-1 67.717504604023532 1.378765756998817 12.49016779657782 -0.50000000669873634 0 -0.8660253999169214 0.21650634997923035 0 -0.12500000167468409 1 I I 0 1 0.25 forward I I I I #
face $-1 $166 $167 $54 $-1 $168 forward single #
loop $-1 $169 $170 $68 #
cone-surface $-1 67.717504604023532 3.4469143924970354 12.49016779657782 -0.50000000669873634 0 -0.8660253999169214 0.21650634997923035 0 -0.12500000167468409 1 I I 0 1 0.25 forward I I I I #
face $-1 $171 $172 $55 $-1 $173 forward single #
loop $-1 $174 $175 $69 #
cone-surface $-1 67.717504604023532 5.5150630279952537 12.49016779657782 -0.50000000669873634 0 -0.8660253999169214 0.21650634997923035 0 -0.12500000167468409 1 I I 0 1 0.25 forward I I I I #
face $-1 $176 $177 $42 $-1 $178 reversed single #
loop $-1 $-1 $179 $70 #
plane-surface $-1 0 0 -15.692121505883289 0 0 1 1 0 0 forward_v I I I I #
coedge $-1 $180 $181 $182 $183 forward $71 $-1 #
face $-1 $184 $185 $43 $-1 $186 reversed single #
loop $-1 $-1 $187 $73 #
plane-surface $-1 0 0 -15.692121505883289 0 0 1 1 0 0 forward_v I I I I #
coedge $-1 $188 $189 $190 $191 forward $74 $-1 #
face $-1 $192 $193 $44 $-1 $194 reversed single #
loop $-1 $-1 $195 $76 #
plane-surface $-1 0 0 -15.692121505883289 0 0 1 1 0 0 forward_v I I I I #
coedge $-1 $196 $197 $198 $199 forward $77 $-1 #
face $-1 $200 $201 $45 $-1 $202 reversed single #
loop $-1 $-1 $203 $79 #
plane-surface $-1 -72.763451033051538 7.0080337262463388 8.0645152059233283 -0.73135370988377701 0 0.68199835119979291 0.68199835119979291 0 0.73135370988377701 forward_v I I I I #
coedge $-1 $204 $205 $206 $207 reversed $80 $-1 #
face $-1 $-1 $208 $46 $-1 $209 forward single #
loop $-1 $210 $211 $82 #
cone-surface $-1 -67.590118214895213 4.8366870368376524 10.37053108344044 0.73135370988377701 0 -0.68199835119979291 0.34099917559989645 0 0.36567685494188851 1 I I -0.70710678118654746 0.70710678118654746 0.5 forward I I I I #
loop $-1 $-1 $212 $60 #
coedge $-1 $132 $132 $213 $214 reversed $83 $-1 #
face $-1 $-1 $215 $47 $-1 $216 forward single #
loop $-1 $217 $218 $85 #
cone-surface $-1 -67.590118214895213 9.1793804156550181 10.37053108344044 0.73135370988377701 0 -0.68199835119979291 0.34099917559989645 0 0.36567685494188851 1 I I -0.70710678118654746 0.70710678118654746 0.5 forward I I I I #
loop $-1 $-1 $219 $61 #
coedge $-1 $137 $137 $220 $221 reversed $86 $-1 #
face $-1 $222 $223 $48 $-1 $224 reversed single #
loop $-1 $-1 $225 $88 #
plane-surface $-1 -53.266542527416036 -3.4469143924970318 82.917691495087155 0.50000000669873634 0 0.8660253999169214 0.8660253999169214 0 -0.50000000669873634 forward_v I I I I #
coedge $-1 $226 $227 $228 $229 reversed $89 $-1 #
face $-1 $-1 $230 $49 $-1 $231 forward single #
loop $-1 $232 $233 $91 #
cone-surface $-1 67.405004599836815 -5.5150630279952502 11.948901921629744 -0.50000000669873634 0 -0.8660253999169214 0.10825317498961518 0 -0.062500000837342043 1 I I -0.70710678118654746 0.70710678118654746 0.125 forward I I I I #
loop $-1 $-1 $234 $63 #
coedge $-1 $146 $146 $235 $236 reversed $92 $-1 #
face $-1 $-1 $237 $50 $-1 $238 forward single #
loop $-1 $239 $240 $94 #
cone-surface $-1 67.405004599836815 -3.4469143924970318 11.948901921629744 -0.50000000669873634 0 -0.8660253999169214 0.10825317498961518 0 -0.062500000837342043 1 I I -0.70710678118654746 0.70710678118654746 0.125 forward I I I I #
loop $-1 $-1 $241 $64 #
coedge $-1 $151 $151 $242 $243 reversed $95 $-1 #
face $-1 $-1 $244 $51 $-1 $245 forward single #
loop $-1 $246 $247 $97 #
cone-surface $-1 67.405004599836815 -1.3787657569988099 11.948901921629744 -0.50000000669873634 0 -0.8660253999169214 0.10825317498961518 0 -0.062500000837342043 1 I I -0.70710678118654746 0.70710678118654746 0.125 forward I I I I #
loop $-1 $-1 $248 $65 #
coedge $-1 $156 $156 $249 $250 reversed $98 $-1 #
face $-1 $251 $252 $52 $-1 $253 forward single #
loop $-1 $-1 $254 $100 #
plane-surface $-1 -53.266542527416036 -3.4469143924970318 82.917691495087155 0.50000000669873634 0 0.8660253999169214 0.8660253999169214 0 -0.50000000669873634 forward_v I I I I #
coedge $-1 $255 $256 $257 $258 reversed $101 $-1 #
face $-1 $-1 $259 $53 $-1 $260 forward single #
loop $-1 $261 $262 $103 #
cone-surface $-1 67.405004599836815 1.378765756998817 11.948901921629744 -0.50000000669873634 0 -0.8660253999169214 0.10825317498961518 0 -0.062500000837342043 1 I I -0.70710678118654746 0.70710678118654746 0.125 forward I I I I #
loop $-1 $-1 $263 $67 #
coedge $-1 $165 $165 $264 $265 reversed $104 $-1 #
face $-1 $-1 $266 $54 $-1 $267 forward single #
loop $-1 $268 $269 $106 #
cone-surface $-1 67.405004599836815 3.4469143924970354 11.948901921629744 -0.50000000669873634 0 -0.8660253999169214 0.10825317498961518 0 -0.062500000837342043 1 I I -0.70710678118654746 0.70710678118654746 0.125 forward I I I I #
loop $-1 $-1 $270 $68 #
coedge $-1 $170 $170 $271 $272 reversed $107 $-1 #
face $-1 $-1 $273 $55 $-1 $274 forward single #
loop $-1 $275 $276 $109 #
cone-surface $-1 67.405004599836815 5.5150630279952537 11.948901921629744 -0.50000000669873634 0 -0.8660253999169214 0.10825317498961518 0 -0.062500000837342043 1 I I -0.70710678118654746 0.70710678118654746 0.125 forward I I I I #
loop $-1 $-1 $277 $69 #
coedge $-1 $175 $175 $278 $279 reversed $110 $-1 #
face $-1 $280 $281 $42 $-1 $282 reversed single #
loop $-1 $-1 $283 $112 #
plane-surface $-1 0 -33.448936741863733 0 0 1 0 0 0 1 forward_v I I I I #
coedge $-1 $284 $285 $286 $287 forward $113 $-1 #
coedge $-1 $288 $115 $289 $290 forward $71 $-1 #
coedge $-1 $115 $288 $291 $292 forward $71 $-1 #
coedge $-1 $293 $294 $115 $183 reversed $295 $-1 #
edge $-1 $296 -33.448936741863733 $297 33.448936741863733 $182 $298 forward 7 unknown #
face $-1 $299 $300 $43 $-1 $301 reversed single #
loop $-1 $-1 $302 $116 #
plane-surface $-1 -45.844329432595259 -48.808873941544419 0 0 1 0 0 0 1 forward_v I I I I #
coedge $-1 $303 $304 $189 $305 forward $117 $-1 #
coedge $-1 $306 $119 $307 $308 reversed $74 $-1 #
coedge $-1 $119 $306 $187 $305 reversed $74 $-1 #
coedge $-1 $309 $310 $119 $191 reversed $300 $-1 #
edge $-1 $311 -15.692121505883289 $312 15.692121505883289 $190 $313 forward 7 unknown #
face $-1 $314 $315 $44 $-1 $316 reversed single #
loop $-1 $-1 $317 $120 #
plane-surface $-1 -50.309450843905537 41.128905341704083 0 1 0 0 0 0 -1 forward_v I I I I #
coedge $-1 $318 $319 $197 $320 forward $121 $-1 #
coedge $-1 $321 $123 $322 $323 reversed $77 $-1 #
coedge $-1 $123 $321 $195 $320 reversed $77 $-1 #
coedge $-1 $324 $325 $123 $199 reversed $326 $-1 #
edge $-1 $327 -15.692121505883289 $328 15.692121505883289 $198 $329 forward 7 unknown #
face $-1 $330 $331 $45 $-1 $332 reversed single #
loop $-1 $-1 $333 $124 #
plane-surface $-1 -179.19509074698914 12.074509334866601 107.31362247021939 0 -1 0 0.73135370988377701 0 -0.68199835119979291 forward_v I I I I #
coedge $-1 $334 $335 $336 $337 reversed $125 $-1 #
coedge $-1 $205 $127 $338 $339 reversed $80 $-1 #
coedge $-1 $127 $204 $334 $340 reversed $80 $-1 #
coedge $-1 $336 $341 $127 $207 forward $342 $-1 #
edge $-1 $343 16.834094340443016 $344 23.946952113463041 $206 $345 forward 7 unknown #
loop $-1 $-1 $213 $128 #
plane-surface $-1 -72.763451033051538 7.0080337262463388 8.0645152059233283 -0.73135370988377701 0 0.68199835119979291 0.68199835119979291 0 0.73135370988377701 forward_v I I I I #
loop $-1 $-1 $346 $82 #
coedge $-1 $211 $211 $212 $347 reversed $129 $-1 #
coedge $-1 $212 $212 $211 $347 forward $131 $-1 #
coedge $-1 $213 $213 $132 $214 forward $208 $-1 #
edge $-1 $348 0 $348 6.2831853071796004 $213 $349 forward 7 unknown #
loop $-1 $-1 $220 $133 #
plane-surface $-1 -72.763451033051538 7.0080337262463388 8.0645152059233283 -0.73135370988377701 0 0.68199835119979291 0.68199835119979291 0 0.73135370988377701 forward_v I I I I #
loop $-1 $-1 $350 $85 #
coedge $-1 $218 $218 $219 $351 reversed $134 $-1 #
coedge $-1 $219 $219 $218 $351 forward $136 $-1 #
coedge $-1 $220 $220 $137 $221 forward $215 $-1 #
edge $-1 $352 0 $352 6.2831853071796004 $220 $353 forward 7 unknown #
face $-1 $354 $355 $48 $-1 $356 forward single #
loop $-1 $-1 $357 $138 #
plane-surface $-1 19.496909480481861 -6.8938287849940636 208.94768505555476 0 1 0 0.50000000669873634 0 0.8660253999169214 forward_v I I I I #
coedge $-1 $358 $359 $360 $361 reversed $139 $-1 #
coedge $-1 $227 $141 $362 $363 reversed $89 $-1 #
coedge $-1 $141 $226 $358 $364 reversed $89 $-1 #
coedge $-1 $360 $365 $141 $229 forward $355 $-1 #
edge $-1 $366 -63.014996292810622 $367 -53.423103441453293 $228 $368 forward 7 unknown #
loop $-1 $-1 $235 $142 #
plane-surface $-1 -53.266542527416036 -3.4469143924970318 82.917691495087155 0.50000000669873634 0 0.8660253999169214 0.8660253999169214 0 -0.50000000669873634 forward_v I I I I #
loop $-1 $-1 $369 $91 #
coedge $-1 $233 $233 $234 $370 reversed $143 $-1 #
coedge $-1 $234 $234 $233 $370 forward $145 $-1 #
coedge $-1 $235 $235 $146 $236 forward $230 $-1 #
edge $-1 $371 0 $371 6.2831853071796004 $235 $372 forward 7 unknown #
loop $-1 $-1 $242 $147 #
plane-surface $-1 -53.266542527416036 -3.4469143924970318 82.917691495087155 0.50000000669873634 0 0.8660253999169214 0.8660253999169214 0 -0.50000000669873634 forward_v I I I I #
loop $-1 $-1 $373 $94 #
coedge $-1 $240 $240 $241 $374 reversed $148 $-1 #
coedge $-1 $241 $241 $240 $374 forward $150 $-1 #
coedge $-1 $242 $242 $151 $243 forward $237 $-1 #
edge $-1 $375 0 $375 6.2831853071796004 $242 $376 forward 7 unknown #
loop $-1 $-1 $249 $152 #
plane-surface $-1 -53.266542527416036 -3.4469143924970318 82.917691495087155 0.50000000669873634 0 0.8660253999169214 0.8660253999169214 0 -0.50000000669873634 forward_v I I I I #
loop $-1 $-1 $377 $97 #
coedge $-1 $247 $247 $248 $378 reversed $153 $-1 #
coedge $-1 $248 $248 $247 $378 forward $155 $-1 #
coedge $-1 $249 $249 $156 $250 forward $244 $-1 #
edge $-1 $379 0 $379 6.2831853071796004 $249 $380 forward 7 unknown #
face $-1 $381 $382 $52 $-1 $383 forward single #
loop $-1 $-1 $384 $157 #
plane-surface $-1 0 0 15.692121505883289 0 0 1 1 0 0 forward_v I I I I #
coedge $-1 $385 $386 $387 $388 reversed $158 $-1 #
coedge $-1 $256 $160 $389 $390 reversed $101 $-1 #
coedge $-1 $160 $255 $384 $391 reversed $101 $-1 #
coedge $-1 $392 $393 $160 $258 forward $394 $-1 #
edge $-1 $395 -94.31960304058812 $396 -88.781721021894086 $257 $397 forward 7 unknown #
loop $-1 $-1 $264 $161 #
plane-surface $-1 -53.266542527416036 -3.4469143924970318 82.917691495087155 0.50000000669873634 0 0.8660253999169214 0.8660253999169214 0 -0.50000000669873634 forward_v I I I I #
loop $-1 $-1 $398 $103 #
coedge $-1 $262 $262 $263 $399 reversed $162 $-1 #
coedge $-1 $263 $263 $262 $399 forward $164 $-1 #
coedge $-1 $264 $264 $165 $265 forward $259 $-1 #
edge $-1 $400 0 $400 6.2831853071796004 $264 $401 forward 7 unknown #
loop $-1 $-1 $271 $166 #
plane-surface $-1 -53.266542527416036 -3.4469143924970318 82.917691495087155 0.50000000669873634 0 0.8660253999169214 0.8660253999169214 0 -0.50000000669873634 forward_v I I I I #
loop $-1 $-1 $402 $106 #
coedge $-1 $269 $269 $270 $403 reversed $167 $-1 #
coedge $-1 $270 $270 $269 $403 forward $169 $-1 #
coedge $-1 $271 $271 $170 $272 forward $266 $-1 #
edge $-1 $404 0 $404 6.2831853071796004 $271 $405 forward 7 unknown #
loop $-1 $-1 $278 $171 #
plane-surface $-1 -53.266542527416036 -3.4469143924970318 82.917691495087155 0.50000000669873634 0 0.8660253999169214 0.8660253999169214 0 -0.50000000669873634 forward_v I I I I #
loop $-1 $-1 $406 $109 #
coedge $-1 $276 $276 $277 $407 reversed $172 $-1 #
coedge $-1 $277 $277 $276 $407 forward $174 $-1 #
coedge $-1 $278 $278 $175 $279 forward $273 $-1 #
edge $-1 $408 0 $408 6.2831853071796004 $278 $409 forward 7 unknown #
face $-1 $410 $411 $42 $-1 $412 reversed single #
loop $-1 $-1 $413 $176 #
plane-surface $-1 -72.763451033051552 0 0 1 0 0 0 0 -1 forward_v I I I I #
coedge $-1 $414 $291 $415 $416 forward $177 $-1 #
coedge $-1 $417 $179 $414 $418 forward $113 $-1 #
coedge $-1 $179 $417 $419 $420 forward $113 $-1 #
coedge $-1 $294 $293 $179 $287 reversed $295 $-1 #
edge $-1 $421 -33.448936741863733 $422 33.448936741863733 $286 $423 forward 7 unknown #
coedge $-1 $181 $180 $424 $425 forward $71 $-1 #
coedge $-1 $426 $427 $180 $290 reversed $411 $-1 #
edge $-1 $297 -72.763451033051552 $428 72.763451033051552 $289 $429 forward 7 unknown #
coedge $-1 $283 $430 $181 $292 reversed $177 $-1 #
edge $-1 $431 -72.763451033051552 $296 72.763451033051552 $291 $432 forward 7 unknown #
coedge $-1 $286 $182 $430 $433 forward $295 $-1 #
coedge $-1 $182 $286 $426 $434 reversed $295 $-1 #
loop $-1 $-1 $293 $410 #
vertex $-1 $183 $435 #
vertex $-1 $183 $436 #
straight-curve $-1 72.763451033051552 0 15.692121505883289 0 1 0 I I #
face $-1 $437 $438 $43 $-1 $439 reversed single #
loop $-1 $-1 $190 $184 #
plane-surface $-1 -50.309450843905537 -41.128905341704076 0 1 0 0 0 0 -1 forward_v I I I I #
coedge $-1 $440 $441 $442 $443 forward $185 $-1 #
coedge $-1 $444 $187 $445 $446 forward $117 $-1 #
coedge $-1 $187 $444 $309 $447 forward $117 $-1 #
edge $-1 $311 -50.309450843905537 $448 -41.379208021284981 $187 $449 forward 7 unknown #
coedge $-1 $189 $188 $450 $451 forward $74 $-1 #
coedge $-1 $452 $453 $188 $308 forward $454 $-1 #
edge $-1 $455 41.379208021284981 $312 50.309450843905537 $307 $456 forward 7 unknown #
coedge $-1 $442 $190 $304 $447 reversed $300 $-1 #
coedge $-1 $190 $442 $452 $457 reversed $300 $-1 #
vertex $-1 $305 $458 #
vertex $-1 $457 $459 #
straight-curve $-1 -50.309450843905537 -33.448936741863733 0 0 0 1 I I #
face $-1 $460 $326 $44 $-1 $461 reversed single #
loop $-1 $-1 $462 $192 #
plane-surface $-1 -45.844329432595259 48.808873941544427 0 0 -1 0 0 0 -1 forward_v I I I I #
coedge $-1 $463 $464 $465 $466 forward $193 $-1 #
coedge $-1 $467 $195 $463 $468 forward $121 $-1 #
coedge $-1 $195 $467 $324 $469 forward $121 $-1 #
edge $-1 $327 41.379208021284981 $470 50.309450843905537 $195 $471 forward 7 unknown #
coedge $-1 $197 $196 $472 $473 forward $77 $-1 #
coedge $-1 $474 $475 $196 $323 forward $476 $-1 #
edge $-1 $477 -50.309450843905537 $328 -41.379208021284981 $322 $478 forward 7 unknown #
coedge $-1 $479 $198 $319 $469 reversed $326 $-1 #
coedge $-1 $198 $479 $474 $480 reversed $326 $-1 #
loop $-1 $-1 $198 $314 #
vertex $-1 $320 $481 #
vertex $-1 $480 $482 #
straight-curve $-1 -41.379208021284981 33.448936741863733 0 0 0 1 I I #
face $-1 $-1 $342 $45 $-1 $483 forward single #
loop $-1 $-1 $484 $200 #
plane-surface $-1 -72.763451033051552 0 0 1 0 0 0 0 -1 forward_v I I I I #
coedge $-1 $485 $486 $487 $488 reversed $201 $-1 #
coedge $-1 $489 $203 $205 $340 forward $125 $-1 #
coedge $-1 $203 $489 $485 $490 forward $125 $-1 #
coedge $-1 $487 $206 $203 $337 forward $342 $-1 #
edge $-1 $344 -1.5624587454970928 $491 8.5704924717434317 $336 $492 forward 7 unknown #
coedge $-1 $493 $494 $204 $339 forward $331 $-1 #
edge $-1 $495 -45.592296029186379 $343 -37.964689729226407 $338 $496 forward 7 unknown #
edge $-1 $344 -10.429435438526866 $495 2.1384085966062714e-014 $205 $497 forward 7 unknown #
coedge $-1 $206 $487 $493 $498 forward $342 $-1 #
loop $-1 $-1 $487 $330 #
vertex $-1 $339 $499 #
vertex $-1 $207 $500 #
straight-curve $-1 -89.597545373494569 1.9415581176260766 15.692121505883293 1 0 0 I I #
coedge $-1 $346 $346 $-1 $501 reversed $210 $-1 #
edge $-1 $502 0 $502 6.2831853071796004 $211 $503 forward 7 unknown #
vertex $-1 $214 $504 #
ellipse-curve $-1 -69.207022146541533 4.8366870368376524 11.878318355903305 -0.73135370988377701 0 0.68199835119979291 0.68199835119979291 0 0.73135370988377701 1 I I #
coedge $-1 $350 $350 $-1 $505 reversed $217 $-1 #
edge $-1 $506 0 $506 6.2831853071796004 $218 $507 forward 7 unknown #
vertex $-1 $221 $508 #
ellipse-curve $-1 -69.207022146541533 9.1793804156550181 11.878318355903305 -0.73135370988377701 0 0.68199835119979291 0.68199835119979291 0 0.73135370988377701 1 I I #
face $-1 $-1 $509 $48 $-1 $510 reversed single #
loop $-1 $-1 $228 $222 #
plane-surface $-1 0 0 15.692121505883289 0 0 1 1 0 0 forward_v I I I I #
coedge $-1 $511 $512 $513 $514 reversed $223 $-1 #
coedge $-1 $515 $225 $227 $364 forward $139 $-1 #
coedge $-1 $225 $515 $511 $516 forward $139 $-1 #
coedge $-1 $513 $228 $225 $361 forward $355 $-1 #
edge $-1 $367 -1.7234571962485159 $517 5.1703715887455477 $360 $518 forward 7 unknown #
coedge $-1 $519 $520 $226 $363 forward $509 $-1 #
edge $-1 $521 -94.31960304058812 $366 -88.781721021894086 $362 $522 forward 7 unknown #
edge $-1 $367 134.45113817710228 $521 145.5269020661031 $227 $523 forward 7 unknown #
coedge $-1 $228 $513 $519 $524 forward $355 $-1 #
vertex $-1 $229 $525 #
vertex $-1 $229 $526 #
straight-curve $-1 9.7484547402409305 0 15.692121505883293 -1 0 0 I I #
coedge $-1 $369 $369 $-1 $527 reversed $232 $-1 #
edge $-1 $528 0 $528 6.2831853071796004 $233 $529 forward 7 unknown #
vertex $-1 $236 $530 #
ellipse-curve $-1 67.967504607372888 -5.5150630279952502 12.923180496536268 0.50000000669873634 0 0.8660253999169214 0.21650634997923035 0 -0.12500000167468409 1 I I #
coedge $-1 $373 $373 $-1 $531 reversed $239 $-1 #
edge $-1 $532 0 $532 6.2831853071796004 $240 $533 forward 7 unknown #
vertex $-1 $243 $534 #
ellipse-curve $-1 67.967504607372888 -3.4469143924970318 12.923180496536268 0.50000000669873634 0 0.8660253999169214 0.21650634997923035 0 -0.12500000167468409 1 I I #
coedge $-1 $377 $377 $-1 $535 reversed $246 $-1 #
edge $-1 $536 0 $536 6.2831853071796004 $247 $537 forward 7 unknown #
vertex $-1 $250 $538 #
ellipse-curve $-1 67.967504607372888 -1.3787657569988099 12.923180496536268 0.50000000669873634 0 0.8660253999169214 0.21650634997923035 0 -0.12500000167468409 1 I I #
face $-1 $-1 $394 $52 $-1 $539 reversed single #
loop $-1 $-1 $540 $251 #
plane-surface $-1 19.496909480481861 0 208.94768505555476 0 -1 0 -0.50000000669873634 0 -0.8660253999169214 forward_v I I I I #
coedge $-1 $541 $542 $256 $391 forward $252 $-1 #
coedge $-1 $389 $254 $541 $543 reversed $158 $-1 #
coedge $-1 $254 $389 $393 $544 reversed $158 $-1 #
coedge $-1 $545 $540 $254 $388 forward $382 $-1 #
edge $-1 $546 134.45113817710228 $547 145.5269020661031 $387 $548 forward 7 unknown #
coedge $-1 $386 $385 $255 $390 forward $158 $-1 #
edge $-1 $549 134.45113817710228 $395 145.5269020661031 $255 $550 forward 7 unknown #
edge $-1 $396 -63.014996292810622 $549 -53.423103441453293 $384 $551 forward 7 unknown #
coedge $-1 $552 $257 $542 $553 reversed $394 $-1 #
coedge $-1 $257 $552 $386 $544 forward $394 $-1 #
loop $-1 $-1 $257 $381 #
vertex $-1 $258 $554 #
vertex $-1 $391 $555 #
straight-curve $-1 72.763451033051552 6.8938287849940671 104.47384252777738 0 0 1 I I #
coedge $-1 $398 $398 $-1 $556 reversed $261 $-1 #
edge $-1 $557 0 $557 6.2831853071796004 $262 $558 forward 7 unknown #
vertex $-1 $265 $559 #
ellipse-curve $-1 67.967504607372888 1.378765756998817 12.923180496536268 0.50000000669873634 0 0.8660253999169214 0.21650634997923035 0 -0.12500000167468409 1 I I #
coedge $-1 $402 $402 $-1 $560 reversed $268 $-1 #
edge $-1 $561 0 $561 6.2831853071796004 $269 $562 forward 7 unknown #
vertex $-1 $272 $563 #
ellipse-curve $-1 67.967504607372888 3.4469143924970354 12.923180496536268 0.50000000669873634 0 0.8660253999169214 0.21650634997923035 0 -0.12500000167468409 1 I I #
coedge $-1 $406 $406 $-1 $564 reversed $275 $-1 #
edge $-1 $565 0 $565 6.2831853071796004 $276 $566 forward 7 unknown #
vertex $-1 $279 $567 #
ellipse-curve $-1 67.967504607372888 5.5150630279952537 12.923180496536268 0.50000000669873634 0 0.8660253999169214 0.21650634997923035 0 -0.12500000167468409 1 I I #
face $-1 $-1 $295 $42 $-1 $568 reversed single #
loop $-1 $-1 $426 $280 #
plane-surface $-1 0 33.448936741863733 0 0 -1 0 0 0 -1 forward_v I I I I #
coedge $-1 $569 $424 $427 $570 forward $281 $-1 #
coedge $-1 $430 $283 $284 $418 reversed $177 $-1 #
coedge $-1 $424 $569 $283 $416 reversed $281 $-1 #
edge $-1 $431 -15.692121505883289 $571 15.692121505883289 $415 $572 forward 7 unknown #
coedge $-1 $285 $284 $569 $573 forward $113 $-1 #
edge $-1 $422 -72.763451033051552 $571 72.763451033051552 $414 $574 forward 7 unknown #
coedge $-1 $427 $426 $285 $420 reversed $411 $-1 #
edge $-1 $575 -72.763451033051552 $421 72.763451033051552 $419 $576 forward 7 unknown #
vertex $-1 $287 $577 #
vertex $-1 $433 $578 #
straight-curve $-1 72.763451033051552 0 -15.692121505883289 0 -1 0 I I #
coedge $-1 $413 $415 $288 $425 reversed $281 $-1 #
edge $-1 $428 -33.448936741863733 $431 33.448936741863733 $424 $579 forward 7 unknown #
coedge $-1 $419 $289 $294 $434 forward $411 $-1 #
coedge $-1 $289 $419 $413 $570 reversed $411 $-1 #
vertex $-1 $290 $580 #
straight-curve $-1 0 33.448936741863733 15.692121505883289 -1 0 0 I I #
coedge $-1 $291 $414 $293 $433 reversed $177 $-1 #
vertex $-1 $425 $581 #
straight-curve $-1 0 -33.448936741863733 15.692121505883289 1 0 0 I I #
edge $-1 $296 -15.692121505883289 $422 15.692121505883289 $293 $582 forward 7 unknown #
edge $-1 $297 -15.692121505883289 $421 15.692121505883289 $294 $583 forward 7 unknown #
point $-1 72.763451033051552 -33.448936741863733 15.692121505883289 #
point $-1 72.763451033051552 33.448936741863733 15.692121505883289 #
face $-1 $-1 $454 $43 $-1 $584 forward single #
loop $-1 $-1 $585 $299 #
plane-surface $-1 -41.379208021284981 -41.128905341704076 0 -1 0 0 0 0 1 forward_v I I I I #
coedge $-1 $586 $302 $444 $587 reversed $185 $-1 #
coedge $-1 $302 $586 $588 $589 reversed $185 $-1 #
coedge $-1 $310 $309 $302 $443 reversed $300 $-1 #
edge $-1 $590 -15.692121505883289 $591 15.692121505883289 $442 $592 forward 7 unknown #
coedge $-1 $304 $303 $440 $587 forward $117 $-1 #
coedge $-1 $450 $585 $303 $446 reversed $438 $-1 #
edge $-1 $448 -7.6799685998403433 $593 7.6799685998403433 $445 $594 forward 7 unknown #
edge $-1 $591 -7.6799685998403433 $311 7.6799685998403433 $309 $595 forward 7 unknown #
vertex $-1 $446 $596 #
straight-curve $-1 0 -33.448936741863733 -15.692121505883289 1 0 0 I I #
coedge $-1 $597 $445 $306 $451 reversed $438 $-1 #
edge $-1 $455 -15.692121505883289 $448 15.692121505883289 $450 $598 forward 7 unknown #
coedge $-1 $588 $307 $310 $457 forward $454 $-1 #
coedge $-1 $307 $588 $597 $599 forward $454 $-1 #
loop $-1 $-1 $307 $437 #
vertex $-1 $308 $600 #
straight-curve $-1 0 -33.448936741863733 15.692121505883289 -1 0 0 I I #
edge $-1 $312 -7.6799685998403433 $590 7.6799685998403433 $310 $601 forward 7 unknown #
point $-1 -50.309450843905537 -33.448936741863733 -15.692121505883289 #
point $-1 -50.309450843905537 -33.448936741863733 15.692121505883289 #
face $-1 $-1 $476 $44 $-1 $602 forward single #
plane-surface $-1 -41.379208021284981 41.128905341704083 0 -1 0 0 0 0 1 forward_v I I I I #
coedge $-1 $603 $604 $479 $605 forward $315 $-1 #
coedge $-1 $472 $317 $318 $468 reversed $193 $-1 #
coedge $-1 $317 $472 $475 $606 reversed $193 $-1 #
coedge $-1 $604 $603 $317 $466 reversed $315 $-1 #
edge $-1 $607 -15.692121505883289 $608 15.692121505883289 $465 $609 forward 7 unknown #
coedge $-1 $319 $318 $603 $610 forward $121 $-1 #
edge $-1 $470 -7.6799685998403433 $608 7.6799685998403433 $463 $611 forward 7 unknown #
edge $-1 $612 -7.6799685998403433 $327 7.6799685998403433 $324 $613 forward 7 unknown #
vertex $-1 $468 $614 #
straight-curve $-1 0 33.448936741863733 -15.692121505883289 -1 0 0 I I #
coedge $-1 $464 $463 $321 $473 reversed $193 $-1 #
edge $-1 $477 -15.692121505883289 $470 15.692121505883289 $472 $615 forward 7 unknown #
coedge $-1 $616 $322 $325 $480 forward $476 $-1 #
coedge $-1 $322 $616 $464 $606 forward $476 $-1 #
loop $-1 $-1 $322 $460 #
vertex $-1 $323 $617 #
straight-curve $-1 0 33.448936741863733 15.692121505883289 1 0 0 I I #
coedge $-1 $325 $324 $462 $605 reversed $326 $-1 #
edge $-1 $328 -7.6799685998403433 $618 7.6799685998403433 $325 $619 forward 7 unknown #
point $-1 -41.379208021284981 33.44893674186374 -15.692121505883289 #
point $-1 -41.379208021284981 33.44893674186374 15.692121505883289 #
plane-surface $-1 0 0 15.692121505883289 0 0 1 1 0 0 forward_v I I I I #
coedge $-1 $494 $493 $486 $620 forward $331 $-1 #
coedge $-1 $486 $333 $335 $490 reversed $201 $-1 #
coedge $-1 $333 $485 $484 $620 reversed $201 $-1 #
coedge $-1 $341 $336 $333 $488 forward $342 $-1 #
edge $-1 $491 -23.946952113463041 $621 -16.834094340443016 $487 $622 forward 7 unknown #
coedge $-1 $335 $334 $494 $623 reversed $125 $-1 #
edge $-1 $624 -2.1384085966062714e-014 $491 10.429435438526866 $485 $625 forward 7 unknown #
vertex $-1 $337 $626 #
straight-curve $-1 -65.650593260031528 3.5040168631231694 15.692121505883287 0 1 0 I I #
coedge $-1 $484 $338 $341 $498 reversed $331 $-1 #
coedge $-1 $338 $484 $489 $623 forward $331 $-1 #
vertex $-1 $339 $627 #
straight-curve $-1 -72.763451033051552 1.9415581176260766 53.656811235109693 0 0 1 I I #
straight-curve $-1 -72.763451033051538 1.9415581176260766 8.0645152059233283 -0.68199835119979291 0 -0.73135370988377701 I I #
edge $-1 $621 -12.074509334866601 $343 -1.9415581176260766 $493 $628 forward 7 unknown #
point $-1 -72.763451033051552 1.9415581176260766 15.692121505883289 #
point $-1 -65.650593260031528 1.9415581176260766 15.692121505883289 #
edge $-1 $629 1 $629 0 $346 $-1 forward 7 unknown #
vertex $-1 $347 $630 #
ellipse-curve $-1 -67.955795069837109 4.8366870368376524 10.711530259040337 -0.73135370988377701 0 0.68199835119979291 0.68199835119979291 0 0.73135370988377701 1 I I #
point $-1 -68.525023795341752 4.8366870368376524 12.609672065787091 #
edge $-1 $631 1 $631 0 $350 $-1 forward 7 unknown #
vertex $-1 $351 $632 #
ellipse-curve $-1 -67.955795069837109 9.1793804156550181 10.711530259040337 -0.73135370988377701 0 0.68199835119979291 0.68199835119979291 0 0.73135370988377701 1 I I #
point $-1 -68.525023795341752 9.1793804156550181 12.609672065787091 #
loop $-1 $-1 $362 $354 #
plane-surface $-1 72.763451033051552 0 0 -1 0 0 0 0 1 forward_v I I I I #
coedge $-1 $512 $357 $359 $516 reversed $223 $-1 #
coedge $-1 $357 $511 $633 $634 reversed $223 $-1 #
coedge $-1 $365 $360 $357 $514 forward $355 $-1 #
edge $-1 $517 53.423103441453293 $635 63.014996292810622 $513 $636 forward 7 unknown #
coedge $-1 $359 $358 $520 $637 reversed $139 $-1 #
edge $-1 $638 -145.5269020661031 $517 -134.45113817710228 $511 $639 forward 7 unknown #
vertex $-1 $361 $640 #
straight-curve $-1 63.171558181694223 -1.7234571962485159 15.692121505883286 0 -1 0 I I #
coedge $-1 $633 $362 $365 $524 reversed $509 $-1 #
coedge $-1 $362 $633 $515 $637 forward $509 $-1 #
vertex $-1 $363 $641 #
straight-curve $-1 72.763451033051552 0 104.47384252777738 0 0 1 I I #
straight-curve $-1 -53.266542527416036 0 82.917691495087155 0.8660253999169214 0 -0.50000000669873634 I I #
edge $-1 $635 -6.8938287849940636 $366 0 $519 $642 forward 7 unknown #
point $-1 72.763451033051552 0 15.692121505883289 #
point $-1 63.171558181694223 0 15.692121505883293 #
edge $-1 $643 1 $643 0 $369 $-1 forward 7 unknown #
vertex $-1 $370 $644 #
ellipse-curve $-1 67.467504600674161 -5.5150630279952502 12.057155096619359 0.50000000669873634 0 0.8660253999169214 0.21650634997923035 0 -0.12500000167468409 1 I I #
point $-1 68.184010957352129 -5.5150630279952502 12.798180494861597 #
edge $-1 $645 1 $645 0 $373 $-1 forward 7 unknown #
vertex $-1 $374 $646 #
ellipse-curve $-1 67.467504600674161 -3.4469143924970318 12.057155096619359 0.50000000669873634 0 0.8660253999169214 0.21650634997923035 0 -0.12500000167468409 1 I I #
point $-1 68.184010957352129 -3.4469143924970318 12.798180494861597 #
edge $-1 $647 1 $647 0 $377 $-1 forward 7 unknown #
vertex $-1 $378 $648 #
ellipse-curve $-1 67.467504600674161 -1.3787657569988099 12.057155096619359 0.50000000669873634 0 0.8660253999169214 0.21650634997923035 0 -0.12500000167468409 1 I I #
point $-1 68.184010957352129 -1.3787657569988099 12.798180494861597 #
plane-surface $-1 72.763451033051552 0 0 -1 0 0 0 0 1 forward_v I I I I #
coedge $-1 $387 $545 $649 $650 reversed $382 $-1 #
coedge $-1 $649 $384 $385 $543 forward $252 $-1 #
coedge $-1 $384 $649 $392 $553 forward $252 $-1 #
edge $-1 $549 -8.617285981242583 $546 -1.7234571962485159 $541 $651 forward 7 unknown #
edge $-1 $547 1.7234571962485159 $395 8.617285981242583 $393 $652 forward 7 unknown #
coedge $-1 $540 $387 $552 $653 reversed $382 $-1 #
vertex $-1 $543 $654 #
vertex $-1 $544 $655 #
straight-curve $-1 -53.266542527416036 0 82.917691495087155 0.8660253999169214 0 -0.50000000669873634 I I #
vertex $-1 $391 $656 #
straight-curve $-1 -53.266542527416036 6.8938287849940671 82.917691495087155 0.8660253999169214 0 -0.50000000669873634 I I #
straight-curve $-1 9.7484547402409305 6.8938287849940671 15.692121505883293 -1 0 0 I I #
coedge $-1 $393 $392 $545 $653 forward $394 $-1 #
edge $-1 $657 0 $396 6.8938287849940671 $392 $658 forward 7 unknown #
point $-1 72.763451033051567 6.8938287849940671 10.154239487189258 #
point $-1 72.763451033051552 6.8938287849940671 15.692121505883289 #
edge $-1 $659 1 $659 0 $398 $-1 forward 7 unknown #
vertex $-1 $399 $660 #
ellipse-curve $-1 67.467504600674161 1.378765756998817 12.057155096619359 0.50000000669873634 0 0.8660253999169214 0.21650634997923035 0 -0.12500000167468409 1 I I #
point $-1 68.184010957352129 1.378765756998817 12.798180494861597 #
edge $-1 $661 1 $661 0 $402 $-1 forward 7 unknown #
vertex $-1 $403 $662 #
ellipse-curve $-1 67.467504600674161 3.4469143924970354 12.057155096619359 0.50000000669873634 0 0.8660253999169214 0.21650634997923035 0 -0.12500000167468409 1 I I #
point $-1 68.184010957352129 3.4469143924970354 12.798180494861597 #
edge $-1 $663 1 $663 0 $406 $-1 forward 7 unknown #
vertex $-1 $407 $664 #
ellipse-curve $-1 67.467504600674161 5.5150630279952537 12.057155096619359 0.50000000669873634 0 0.8660253999169214 0.21650634997923035 0 -0.12500000167468409 1 I I #
point $-1 68.184010957352129 5.5150630279952537 12.798180494861597 #
plane-surface $-1 72.763451033051552 0 0 -1 0 0 0 0 1 forward_v I I I I #
coedge $-1 $415 $413 $417 $573 reversed $281 $-1 #
edge $-1 $428 -15.692121505883289 $575 15.692121505883289 $427 $665 forward 7 unknown #
vertex $-1 $573 $666 #
straight-curve $-1 -72.763451033051552 -33.448936741863733 0 0 0 -1 I I #
edge $-1 $571 -33.448936741863733 $575 33.448936741863733 $569 $667 forward 7 unknown #
straight-curve $-1 0 -33.448936741863733 -15.692121505883289 -1 0 0 I I #
vertex $-1 $420 $668 #
straight-curve $-1 0 33.448936741863733 -15.692121505883289 1 0 0 I I #
point $-1 72.763451033051552 33.448936741863733 -15.692121505883289 #
point $-1 72.763451033051552 -33.448936741863733 -15.692121505883289 #
straight-curve $-1 -72.763451033051552 0 15.692121505883289 0 -1 0 I I #
point $-1 -72.763451033051552 33.448936741863733 15.692121505883289 #
point $-1 -72.763451033051552 -33.448936741863733 15.692121505883289 #
straight-curve $-1 72.763451033051552 -33.448936741863733 0 0 0 -1 I I #
straight-curve $-1 72.763451033051552 33.448936741863733 0 0 0 -1 I I #
plane-surface $-1 0 0 15.692121505883289 0 0 1 1 0 0 forward_v I I I I #
coedge $-1 $445 $597 $586 $669 forward $438 $-1 #
coedge $-1 $441 $440 $585 $669 reversed $185 $-1 #
edge $-1 $593 -4.4651214113102782 $591 4.4651214113102782 $440 $670 forward 7 unknown #
coedge $-1 $453 $452 $441 $589 forward $454 $-1 #
edge $-1 $590 -4.4651214113102782 $671 4.4651214113102782 $441 $672 forward 7 unknown #
vertex $-1 $457 $673 #
vertex $-1 $447 $674 #
straight-curve $-1 -50.309450843905537 -48.808873941544419 0 0 0 -1 I I #
vertex $-1 $669 $675 #
straight-curve $-1 -41.379208021284981 -41.128905341704076 -15.692121505883289 0 -1 0 I I #
straight-curve $-1 -50.309450843905537 -41.128905341704076 -15.692121505883289 0 1 0 I I #
point $-1 -41.379208021284981 -33.448936741863733 -15.692121505883289 #
coedge $-1 $585 $450 $453 $599 reversed $438 $-1 #
straight-curve $-1 -41.379208021284981 -33.448936741863733 0 0 0 -1 I I #
edge $-1 $671 -7.6799685998403433 $455 7.6799685998403433 $597 $676 forward 7 unknown #
point $-1 -41.379208021284981 -33.448936741863733 15.692121505883289 #
straight-curve $-1 -50.309450843905537 -41.128905341704076 15.692121505883289 0 -1 0 I I #
plane-surface $-1 0 0 15.692121505883289 0 0 1 1 0 0 forward_v I I I I #
coedge $-1 $465 $462 $467 $610 reversed $315 $-1 #
coedge $-1 $462 $465 $616 $677 reversed $315 $-1 #
edge $-1 $618 -15.692121505883289 $612 15.692121505883289 $479 $678 forward 7 unknown #
edge $-1 $607 -7.6799685998403433 $477 7.6799685998403433 $464 $679 forward 7 unknown #
vertex $-1 $677 $680 #
vertex $-1 $610 $681 #
straight-curve $-1 -50.309450843905537 48.808873941544427 0 0 0 -1 I I #
edge $-1 $608 -4.4651214113102782 $612 4.4651214113102782 $603 $682 forward 7 unknown #
straight-curve $-1 -50.309450843905537 41.128905341704083 -15.692121505883289 0 1 0 I I #
vertex $-1 $469 $683 #
straight-curve $-1 -41.379208021284981 41.128905341704083 -15.692121505883289 0 -1 0 I I #
point $-1 -50.309450843905537 33.44893674186374 -15.692121505883289 #
straight-curve $-1 -50.309450843905537 33.448936741863733 0 0 0 -1 I I #
coedge $-1 $475 $474 $604 $677 forward $476 $-1 #
point $-1 -50.309450843905537 33.44893674186374 15.692121505883289 #
vertex $-1 $480 $684 #
straight-curve $-1 -41.379208021284981 41.128905341704083 15.692121505883289 0 1 0 I I #
edge $-1 $621 37.964689729226407 $624 45.592296029186379 $484 $685 forward 7 unknown #
vertex $-1 $498 $686 #
straight-curve $-1 -89.597545373494569 12.074509334866601 15.692121505883293 -1 0 0 I I #
edge $-1 $624 -8.5704924717434317 $495 1.5624587454970928 $494 $687 forward 7 unknown #
vertex $-1 $623 $688 #
straight-curve $-1 -72.763451033051538 12.074509334866601 8.0645152059233283 0.68199835119979291 0 0.73135370988377701 I I #
point $-1 -65.650593260031528 12.074509334866601 15.692121505883289 #
point $-1 -72.763451033051552 1.9415581176260766 8.0645152059233123 #
straight-curve $-1 -72.763451033051552 0 15.692121505883289 0 -1 0 I I #
vertex $-1 $501 $689 #
point $-1 -67.273796718637314 4.8366870368376524 11.442883968924114 #
vertex $-1 $505 $690 #
point $-1 -67.273796718637314 9.1793804156550181 11.442883968924114 #
coedge $-1 $520 $519 $512 $634 forward $509 $-1 #
edge $-1 $635 88.781721021894086 $638 94.31960304058812 $633 $691 forward 7 unknown #
vertex $-1 $524 $692 #
straight-curve $-1 9.7484547402409305 -6.8938287849940636 15.692121505883293 1 0 0 I I #
edge $-1 $638 -5.1703715887455477 $521 1.7234571962485159 $520 $693 forward 7 unknown #
vertex $-1 $637 $694 #
straight-curve $-1 -53.266542527416036 -6.8938287849940636 82.917691495087155 -0.8660253999169214 0 0.50000000669873634 I I #
point $-1 63.171558181694223 -6.8938287849940636 15.692121505883293 #
point $-1 72.763451033051567 0 10.154239487189258 #
straight-curve $-1 72.763451033051552 0 15.692121505883289 0 1 0 I I #
vertex $-1 $527 $695 #
point $-1 67.684010950653388 -5.5150630279952502 11.932155094944676 #
vertex $-1 $531 $696 #
point $-1 67.684010950653388 -3.4469143924970318 11.932155094944676 #
vertex $-1 $535 $697 #
point $-1 67.684010950653388 -1.3787657569988099 11.932155094944676 #
coedge $-1 $542 $541 $540 $650 forward $252 $-1 #
edge $-1 $546 53.423103441453293 $657 63.014996292810622 $649 $698 forward 7 unknown #
straight-curve $-1 63.171558181694223 -1.7234571962485159 15.692121505883286 0 -1 0 I I #
straight-curve $-1 72.763451033051552 -1.7234571962485159 10.154239487189258 0 1 0 I I #
edge $-1 $657 88.781721021894086 $547 94.31960304058812 $552 $699 forward 7 unknown #
point $-1 63.171558181694223 0 15.692121505883293 #
point $-1 72.763451033051567 0 10.154239487189258 #
point $-1 63.171558181694223 6.8938287849940671 15.692121505883293 #
vertex $-1 $553 $700 #
straight-curve $-1 72.763451033051552 0 15.692121505883289 0 1 0 I I #
vertex $-1 $556 $701 #
point $-1 67.684010950653388 1.378765756998817 11.932155094944676 #
vertex $-1 $560 $702 #
point $-1 67.684010950653388 3.4469143924970354 11.932155094944676 #
vertex $-1 $564 $703 #
point $-1 67.684010950653388 5.5150630279952537 11.932155094944676 #
straight-curve $-1 -72.763451033051552 33.448936741863733 0 0 0 -1 I I #
point $-1 -72.763451033051552 -33.448936741863733 -15.692121505883289 #
straight-curve $-1 -72.763451033051552 0 -15.692121505883289 0 1 0 I I #
point $-1 -72.763451033051552 33.448936741863733 -15.692121505883289 #
edge $-1 $671 -15.692121505883289 $593 15.692121505883289 $585 $704 forward 7 unknown #
straight-curve $-1 -45.844329432595259 -48.808873941544419 -15.692121505883289 -1 0 0 I I #
vertex $-1 $599 $705 #
straight-curve $-1 -45.844329432595259 -48.808873941544419 15.692121505883289 1 0 0 I I #
point $-1 -50.309450843905537 -48.808873941544419 15.692121505883289 #
point $-1 -50.309450843905537 -48.808873941544419 -15.692121505883289 #
point $-1 -41.379208021284981 -48.808873941544419 -15.692121505883289 #
straight-curve $-1 -41.379208021284981 -41.128905341704076 15.692121505883289 0 1 0 I I #
edge $-1 $618 -4.4651214113102782 $607 4.4651214113102782 $604 $706 forward 7 unknown #
straight-curve $-1 -41.379208021284981 48.808873941544427 0 0 0 -1 I I #
straight-curve $-1 -50.309450843905537 41.128905341704083 15.692121505883289 0 -1 0 I I #
point $-1 -50.309450843905537 48.808873941544427 15.692121505883289 #
point $-1 -50.309450843905537 48.808873941544427 -15.692121505883289 #
straight-curve $-1 -45.844329432595259 48.808873941544427 -15.692121505883289 1 0 0 I I #
point $-1 -41.379208021284981 48.808873941544427 -15.692121505883289 #
point $-1 -41.379208021284981 48.808873941544427 15.692121505883289 #
straight-curve $-1 -72.763451033051552 12.074509334866601 53.656811235109693 0 0 -1 I I #
point $-1 -72.763451033051552 12.074509334866601 15.692121505883289 #
straight-curve $-1 -72.763451033051552 3.5040168631231694 8.0645152059233176 0 -1 0 I I #
point $-1 -72.763451033051552 12.074509334866601 8.0645152059233123 #
point $-1 -67.224441359953317 4.8366870368376524 10.029531907840543 #
point $-1 -67.224441359953317 9.1793804156550181 10.029531907840543 #
straight-curve $-1 72.763451033051552 -6.8938287849940636 104.47384252777738 0 0 -1 I I #
point $-1 72.763451033051552 -6.8938287849940636 15.692121505883289 #
straight-curve $-1 72.763451033051552 -1.7234571962485159 10.154239487189258 0 1 0 I I #
point $-1 72.763451033051567 -6.8938287849940636 10.154239487189258 #
point $-1 67.342504598999469 -5.5150630279952502 11.840648746640129 #
point $-1 67.342504598999469 -3.4469143924970318 11.840648746640129 #
point $-1 67.342504598999469 -1.3787657569988099 11.840648746640129 #
straight-curve $-1 9.7484547402409305 0 15.692121505883293 1 0 0 I I #
straight-curve $-1 72.763451033051552 0 104.47384252777738 0 0 -1 I I #
point $-1 72.763451033051552 0 15.692121505883289 #
point $-1 67.342504598999469 1.378765756998817 11.840648746640129 #
point $-1 67.342504598999469 3.4469143924970354 11.840648746640129 #
point $-1 67.342504598999469 5.5150630279952537 11.840648746640129 #
straight-curve $-1 -41.379208021284981 -48.808873941544419 0 0 0 -1 I I #
point $-1 -41.379208021284981 -48.808873941544419 15.692121505883289 #
straight-curve $-1 -45.844329432595259 48.808873941544427 15.692121505883289 -1 0 0 I I #
End-of-ACIS-data 