500 0 6 0           
7 Unknown 11 ACIS 5.0 NT 24 Fri Mar 26 16:09:17 1999 
-1 9.9999999999999995e-007 1e-010 
body $-1 $6 $-1 $7 #
body $-1 $8 $-1 $9 #
body $-1 $10 $-1 $11 #
body $-1 $12 $-1 $13 #
body $-1 $14 $-1 $15 #
body $-1 $16 $-1 $17 #
lump $-1 $-1 $18 $0 #
transform $-1 1 0 0 0 1 0 0 0 1 75.842158268990147 31.127064205848367 7.6625946227495554 1 rotate no_reflect no_shear #
lump $-1 $-1 $19 $1 #
transform $-1 1 0 0 0 1 0 0 0 1 75.842158268990147 31.127064205848367 7.6625946227495554 1 rotate no_reflect no_shear #
lump $-1 $-1 $20 $2 #
transform $-1 1 0 0 0 1 0 0 0 1 75.842158268990147 31.127064205848367 7.6625946227495554 1 rotate no_reflect no_shear #
lump $-1 $-1 $21 $3 #
transform $-1 1 0 0 0 1 0 0 0 1 75.842158268990147 31.127064205848367 7.6625946227495554 1 rotate no_reflect no_shear #
lump $-1 $-1 $22 $4 #
transform $-1 1 0 0 0 1 0 0 0 1 75.842158268990147 31.127064205848367 7.6625946227495554 1 rotate no_reflect no_shear #
lump $-1 $-1 $23 $5 #
transform $-1 1 0 0 0 1 0 0 0 1 75.842158268990147 31.127064205848367 7.6625946227495554 1 rotate no_reflect no_shear #
shell $-1 $-1 $-1 $24 $-1 $6 #
shell $-1 $-1 $-1 $25 $-1 $8 #
shell $-1 $-1 $-1 $26 $-1 $10 #
shell $-1 $-1 $-1 $27 $-1 $12 #
shell $-1 $-1 $-1 $28 $-1 $14 #
shell $-1 $-1 $-1 $29 $-1 $16 #
face $-1 $30 $31 $18 $-1 $32 forward single #
face $-1 $33 $34 $19 $-1 $35 forward single #
face $-1 $36 $37 $20 $-1 $38 reversed single #
face $-1 $39 $40 $21 $-1 $41 forward single #
face $-1 $42 $43 $22 $-1 $44 reversed single #
face $-1 $45 $46 $23 $-1 $47 forward single #
face $-1 $48 $49 $18 $-1 $50 reversed single #
loop $-1 $-1 $51 $24 #
plane-surface $-1 0 0 7.6625946227495554 0 0 1 1 0 0 forward_v I I I I #
face $-1 $52 $53 $19 $-1 $54 reversed single #
loop $-1 $-1 $55 $25 #
plane-surface $-1 -75.842158268990147 0 0 1 0 0 0 0 -1 forward_v I I I I #
face $-1 $56 $57 $20 $-1 $58 reversed single #
loop $-1 $-1 $59 $26 #
plane-surface $-1 -4.1097507218227918 -156.87906300787071 86.449220554648676 -1 0 0 0 -0.82903758062907751 0.55919289150049634 forward_v I I I I #
face $-1 $60 $61 $21 $-1 $62 forward single #
loop $-1 $63 $64 $27 #
cone-surface $-1 -12.906337546479726 -28.405157554842862 4.1822198068538654 0 0.82903758062907751 -0.55919289150049634 1 0 0 1 I I 0 1 1 forward I I I I #
face $-1 $65 $66 $22 $-1 $67 reversed single #
loop $-1 $-1 $68 $28 #
plane-surface $-1 57.842586565462568 122.06699693349083 136.53667530069129 1 0 0 0 -0.82903758062907751 -0.55919289150049634 forward_v I I I I #
face $-1 $69 $70 $23 $-1 $71 forward single #
loop $-1 $72 $73 $29 #
cone-surface $-1 66.842372417226358 27.484712842328463 3.1461735081259645 0 -0.82903758062907751 -0.55919289150049634 1.5 0 0 1 I I 0 1 1.5 forward I I I I #
face $-1 $74 $75 $18 $-1 $76 reversed single #
loop $-1 $-1 $77 $30 #
plane-surface $-1 0 0 -7.6625946227495554 0 0 1 1 0 0 forward_v I I I I #
coedge $-1 $78 $79 $80 $81 forward $31 $-1 #
face $-1 $82 $83 $19 $-1 $84 forward single #
loop $-1 $-1 $85 $33 #
plane-surface $-1 0 31.127064205848367 0 0 -1 0 0 0 -1 forward_v I I I I #
coedge $-1 $86 $87 $88 $89 forward $34 $-1 #
face $-1 $90 $91 $20 $-1 $92 reversed single #
loop $-1 $-1 $93 $36 #
plane-surface $-1 -12.906337546479726 -31.127064205848356 1.6284289944989183 0 -0.82903758062907751 0.55919289150049634 1 0 0 forward_v I I I I #
coedge $-1 $94 $95 $96 $97 reversed $37 $-1 #
face $-1 $-1 $98 $21 $-1 $99 forward single #
loop $-1 $100 $101 $39 #
cone-surface $-1 -12.906337546479726 -27.303780104286986 3.4393313593332469 0 0.82903758062907751 -0.55919289150049634 0.5 0 0 1 I I -0.70710678118654746 0.70710678118654746 0.5 forward I I I I #
loop $-1 $-1 $102 $27 #
coedge $-1 $64 $64 $103 $104 reversed $40 $-1 #
face $-1 $105 $106 $22 $-1 $107 forward single #
loop $-1 $-1 $108 $42 #
plane-surface $-1 66.842372417226358 -3.6850018685315291 51.715883740541528 0 0.82903758062907751 0.55919289150049634 1 0 0 forward_v I I I I #
coedge $-1 $109 $110 $111 $112 reversed $43 $-1 #
face $-1 $-1 $113 $23 $-1 $114 forward single #
loop $-1 $115 $116 $45 #
cone-surface $-1 66.842372417226358 25.769457440821835 1.9892191672835118 0 -0.82903758062907751 -0.55919289150049634 0.75 0 0 1 I I -0.70710678118654757 0.70710678118654757 0.75 forward I I I I #
loop $-1 $-1 $117 $29 #
coedge $-1 $73 $73 $118 $119 reversed $46 $-1 #
face $-1 $120 $121 $18 $-1 $122 reversed single #
loop $-1 $-1 $123 $48 #
plane-surface $-1 0 -31.127064205848367 0 0 1 0 0 0 1 forward_v I I I I #
coedge $-1 $124 $125 $126 $127 forward $49 $-1 #
coedge $-1 $128 $51 $129 $130 forward $31 $-1 #
coedge $-1 $51 $128 $131 $132 forward $31 $-1 #
coedge $-1 $133 $134 $51 $81 reversed $135 $-1 #
edge $-1 $136 -31.127064205848367 $137 31.127064205848367 $80 $138 forward 7 unknown #
face $-1 $139 $140 $19 $-1 $141 reversed single #
loop $-1 $-1 $88 $52 #
plane-surface $-1 -79.781265552989211 0 6.9688126547142 0 0 1 1 0 0 forward_v I I I I #
coedge $-1 $142 $143 $87 $144 forward $53 $-1 #
coedge $-1 $145 $55 $146 $147 reversed $34 $-1 #
coedge $-1 $55 $145 $85 $144 reversed $34 $-1 #
coedge $-1 $148 $149 $55 $89 reversed $83 $-1 #
edge $-1 $150 -31.127064205848367 $151 31.127064205848367 $88 $152 forward 7 unknown #
face $-1 $153 $154 $20 $-1 $155 reversed single #
loop $-1 $-1 $156 $56 #
plane-surface $-1 -21.70292437113666 -156.87906300787071 86.449220554648676 1 0 0 0 0.82903758062907751 -0.55919289150049634 forward_v I I I I #
coedge $-1 $157 $158 $159 $160 reversed $57 $-1 #
coedge $-1 $95 $59 $161 $162 reversed $37 $-1 #
coedge $-1 $59 $94 $157 $163 reversed $37 $-1 #
coedge $-1 $159 $164 $59 $97 forward $165 $-1 #
edge $-1 $166 47.312467298086986 $167 51.38256327961534 $96 $168 forward 7 unknown #
loop $-1 $-1 $103 $60 #
plane-surface $-1 -12.906337546479726 -31.127064205848356 1.6284289944989183 0 -0.82903758062907751 0.55919289150049634 1 0 0 forward_v I I I I #
loop $-1 $-1 $169 $39 #
coedge $-1 $101 $101 $102 $170 reversed $61 $-1 #
coedge $-1 $102 $102 $101 $170 forward $63 $-1 #
coedge $-1 $103 $103 $64 $104 forward $98 $-1 #
edge $-1 $171 4.4469525996725958e-016 $171 6.2831853071796013 $103 $172 forward 7 unknown #
face $-1 $173 $174 $22 $-1 $175 reversed single #
loop $-1 $-1 $111 $65 #
plane-surface $-1 0 0 7.6625946227495554 0 0 1 1 0 0 forward_v I I I I #
coedge $-1 $176 $177 $178 $179 reversed $66 $-1 #
coedge $-1 $110 $68 $180 $181 reversed $43 $-1 #
coedge $-1 $68 $109 $176 $182 reversed $43 $-1 #
coedge $-1 $178 $183 $68 $112 forward $106 $-1 #
edge $-1 $184 29.906434260897047 $185 35.004182555867189 $111 $186 forward 7 unknown #
loop $-1 $-1 $118 $69 #
plane-surface $-1 66.842372417226358 -3.6850018685315291 51.715883740541528 0 0.82903758062907751 0.55919289150049634 1 0 0 forward_v I I I I #
loop $-1 $-1 $187 $45 #
coedge $-1 $116 $116 $117 $188 reversed $70 $-1 #
coedge $-1 $117 $117 $116 $188 forward $72 $-1 #
coedge $-1 $118 $118 $73 $119 forward $113 $-1 #
edge $-1 $189 8.3837144270139608e-016 $189 6.2831853071796013 $118 $190 forward 7 unknown #
face $-1 $191 $192 $18 $-1 $193 reversed single #
loop $-1 $-1 $194 $74 #
plane-surface $-1 -75.842158268990147 0 0 1 0 0 0 0 -1 forward_v I I I I #
coedge $-1 $195 $131 $196 $197 forward $75 $-1 #
coedge $-1 $198 $77 $195 $199 forward $49 $-1 #
coedge $-1 $77 $198 $200 $201 forward $49 $-1 #
coedge $-1 $134 $133 $77 $127 reversed $135 $-1 #
edge $-1 $202 -31.127064205848367 $203 31.127064205848367 $126 $204 forward 7 unknown #
coedge $-1 $79 $78 $205 $206 forward $31 $-1 #
coedge $-1 $207 $208 $78 $130 reversed $192 $-1 #
edge $-1 $137 -75.842158268990147 $209 75.842158268990147 $129 $210 forward 7 unknown #
coedge $-1 $123 $211 $79 $132 reversed $75 $-1 #
edge $-1 $212 -75.842158268990147 $136 75.842158268990147 $131 $213 forward 7 unknown #
coedge $-1 $126 $80 $211 $214 forward $135 $-1 #
coedge $-1 $80 $126 $207 $215 reversed $135 $-1 #
loop $-1 $-1 $133 $191 #
vertex $-1 $81 $216 #
vertex $-1 $81 $217 #
straight-curve $-1 75.842158268990147 0 7.6625946227495554 0 1 0 I I #
face $-1 $218 $219 $19 $-1 $220 reversed single #
loop $-1 $-1 $221 $82 #
plane-surface $-1 -79.781265552989211 0 3.6210489869888027 0 0 1 1 0 0 forward_v I I I I #
coedge $-1 $222 $85 $223 $224 reversed $53 $-1 #
coedge $-1 $85 $222 $148 $225 reversed $53 $-1 #
edge $-1 $150 -6.9688126547142 $226 -3.6210489869888027 $85 $227 forward 7 unknown #
coedge $-1 $87 $86 $221 $228 forward $34 $-1 #
coedge $-1 $229 $230 $86 $147 forward $231 $-1 #
edge $-1 $232 3.6210489869888027 $151 6.9688126547142 $146 $233 forward 7 unknown #
coedge $-1 $234 $88 $143 $225 forward $83 $-1 #
coedge $-1 $88 $234 $229 $235 forward $83 $-1 #
vertex $-1 $144 $236 #
vertex $-1 $235 $237 #
straight-curve $-1 -75.842158268990147 0 6.9688126547142 0 -1 0 I I #
face $-1 $-1 $165 $20 $-1 $238 forward single #
loop $-1 $-1 $239 $90 #
plane-surface $-1 0 -31.127064205848367 0 0 1 0 0 0 1 forward_v I I I I #
coedge $-1 $240 $241 $242 $243 reversed $91 $-1 #
coedge $-1 $244 $93 $95 $163 forward $57 $-1 #
coedge $-1 $93 $244 $240 $245 forward $57 $-1 #
coedge $-1 $242 $96 $93 $160 forward $165 $-1 #
edge $-1 $167 -2.3434180514170713 $246 15.249755597896797 $159 $247 forward 7 unknown #
coedge $-1 $248 $249 $94 $162 forward $154 $-1 #
edge $-1 $250 -41.596181282825434 $166 -35.562015654574779 $161 $251 forward 7 unknown #
edge $-1 $167 -7.2785188141554267 $250 1.9029872570339353e-014 $95 $252 forward 7 unknown #
coedge $-1 $96 $242 $248 $253 forward $165 $-1 #
loop $-1 $-1 $242 $153 #
vertex $-1 $162 $254 #
vertex $-1 $97 $255 #
straight-curve $-1 -4.1097507218227918 -78.439531503935356 7.6625946227495518 0 1 0 I I #
coedge $-1 $169 $169 $-1 $256 reversed $100 $-1 #
edge $-1 $257 0 $257 6.2831853071796004 $101 $258 forward 7 unknown #
vertex $-1 $104 $259 #
ellipse-curve $-1 -12.906337546479726 -29.092016215084193 4.6455118086242306 0 -0.82903758062907751 0.55919289150049634 1 0 0 1 I I #
face $-1 $-1 $260 $22 $-1 $261 reversed single #
loop $-1 $-1 $262 $105 #
plane-surface $-1 75.842158268990147 0 0 -1 0 0 0 0 1 forward_v I I I I #
coedge $-1 $263 $108 $110 $182 forward $66 $-1 #
coedge $-1 $108 $263 $262 $264 reversed $66 $-1 #
coedge $-1 $265 $111 $108 $179 forward $106 $-1 #
edge $-1 $185 24.421400356849389 $266 42.420972060376968 $178 $267 forward 7 unknown #
coedge $-1 $268 $269 $109 $181 forward $260 $-1 #
edge $-1 $270 -68.163465912409094 $184 -60.605743027596091 $180 $271 forward 7 unknown #
edge $-1 $185 53.137867507000273 $270 62.25412841169674 $110 $272 forward 7 unknown #
coedge $-1 $111 $265 $268 $273 forward $106 $-1 #
vertex $-1 $181 $274 #
vertex $-1 $112 $275 #
straight-curve $-1 57.842586565462568 61.033498466745414 7.6625946227495518 0 -1 0 I I #
coedge $-1 $187 $187 $-1 $276 reversed $115 $-1 #
edge $-1 $277 0 $277 6.2831853071796004 $116 $278 forward 7 unknown #
vertex $-1 $119 $279 #
ellipse-curve $-1 66.842372417226358 28.578190058363298 3.8837331803430559 0 0.82903758062907751 0.55919289150049634 1.5 0 0 1 I I #
face $-1 $-1 $135 $18 $-1 $280 reversed single #
loop $-1 $-1 $207 $120 #
plane-surface $-1 0 31.127064205848367 0 0 -1 0 0 0 -1 forward_v I I I I #
coedge $-1 $281 $205 $208 $282 forward $121 $-1 #
coedge $-1 $211 $123 $124 $199 reversed $75 $-1 #
coedge $-1 $205 $281 $123 $197 reversed $121 $-1 #
edge $-1 $212 -7.6625946227495554 $283 7.6625946227495554 $196 $284 forward 7 unknown #
coedge $-1 $125 $124 $281 $285 forward $49 $-1 #
edge $-1 $203 -75.842158268990147 $283 75.842158268990147 $195 $286 forward 7 unknown #
coedge $-1 $208 $207 $125 $201 reversed $192 $-1 #
edge $-1 $287 -75.842158268990147 $202 75.842158268990147 $200 $288 forward 7 unknown #
vertex $-1 $127 $289 #
vertex $-1 $214 $290 #
straight-curve $-1 75.842158268990147 0 -7.6625946227495554 0 -1 0 I I #
coedge $-1 $194 $196 $128 $206 reversed $121 $-1 #
edge $-1 $209 -31.127064205848367 $212 31.127064205848367 $205 $291 forward 7 unknown #
coedge $-1 $200 $129 $134 $215 forward $192 $-1 #
coedge $-1 $129 $200 $194 $282 reversed $192 $-1 #
vertex $-1 $130 $292 #
straight-curve $-1 0 31.127064205848367 7.6625946227495554 -1 0 0 I I #
coedge $-1 $131 $195 $133 $214 reversed $75 $-1 #
vertex $-1 $206 $293 #
straight-curve $-1 0 -31.127064205848367 7.6625946227495554 1 0 0 I I #
edge $-1 $136 -7.6625946227495554 $203 7.6625946227495554 $133 $294 forward 7 unknown #
edge $-1 $137 -7.6625946227495554 $202 7.6625946227495554 $134 $295 forward 7 unknown #
point $-1 75.842158268990147 -31.127064205848367 7.6625946227495554 #
point $-1 75.842158268990147 31.127064205848367 7.6625946227495554 #
face $-1 $-1 $231 $19 $-1 $296 reversed single #
loop $-1 $-1 $297 $139 #
plane-surface $-1 -83.720372836988275 0 5.2949308208515014 1 0 0 0 0 -1 forward_v I I I I #
coedge $-1 $298 $223 $145 $228 reversed $140 $-1 #
coedge $-1 $143 $142 $297 $299 reversed $53 $-1 #
coedge $-1 $221 $300 $142 $224 forward $140 $-1 #
edge $-1 $301 -3.9391072839990642 $226 3.9391072839990642 $142 $302 forward 7 unknown #
edge $-1 $150 -3.9391072839990642 $303 3.9391072839990642 $143 $304 forward 7 unknown #
vertex $-1 $144 $305 #
straight-curve $-1 -75.842158268990147 31.127064205848367 0 0 0 -1 I I #
edge $-1 $232 -31.127064205848367 $226 31.127064205848367 $221 $306 forward 7 unknown #
coedge $-1 $307 $146 $149 $235 reversed $231 $-1 #
coedge $-1 $146 $307 $298 $308 reversed $231 $-1 #
loop $-1 $-1 $146 $218 #
vertex $-1 $147 $309 #
straight-curve $-1 -75.842158268990147 -31.127064205848367 0 0 0 1 I I #
coedge $-1 $149 $148 $310 $311 forward $83 $-1 #
edge $-1 $312 -3.9391072839990642 $151 3.9391072839990642 $229 $313 forward 7 unknown #
point $-1 -75.842158268990147 31.127064205848367 6.9688126547142 #
point $-1 -75.842158268990147 -31.127064205848367 6.9688126547142 #
plane-surface $-1 0 0 7.6625946227495554 0 0 1 1 0 0 forward_v I I I I #
coedge $-1 $249 $248 $241 $314 forward $154 $-1 #
coedge $-1 $241 $156 $158 $245 reversed $91 $-1 #
coedge $-1 $156 $240 $239 $314 reversed $91 $-1 #
coedge $-1 $164 $159 $156 $243 forward $165 $-1 #
edge $-1 $246 -51.38256327961534 $315 -47.312467298086986 $242 $316 forward 7 unknown #
coedge $-1 $158 $157 $249 $317 reversed $57 $-1 #
edge $-1 $318 -1.9029872570339353e-014 $246 7.2785188141554267 $240 $319 forward 7 unknown #
vertex $-1 $160 $320 #
straight-curve $-1 -6.453168773239863 -27.056968224320023 7.6625946227495554 -1 0 0 I I #
coedge $-1 $239 $161 $164 $253 reversed $154 $-1 #
coedge $-1 $161 $239 $244 $317 forward $154 $-1 #
vertex $-1 $162 $321 #
straight-curve $-1 -4.1097507218227918 -31.12706420584837 43.224610277324338 0 0 1 I I #
straight-curve $-1 -4.1097507218227918 -31.127064205848356 1.6284289944989183 0 -0.55919289150049634 -0.82903758062907751 I I #
edge $-1 $315 -21.70292437113666 $166 -4.1097507218227918 $248 $322 forward 7 unknown #
point $-1 -4.1097507218227918 -31.127064205848367 7.6625946227495554 #
point $-1 -4.1097507218227918 -27.05696822432002 7.6625946227495554 #
edge $-1 $323 1 $323 0 $169 $-1 forward 7 unknown #
vertex $-1 $170 $324 #
ellipse-curve $-1 -12.906337546479726 -27.718298894601524 3.7189278050834949 0 -0.82903758062907751 0.55919289150049634 1 0 0 1 I I #
point $-1 -11.906337546479726 -29.0920162150842 4.645511808624236 #
loop $-1 $-1 $180 $173 #
plane-surface $-1 0 31.127064205848367 0 0 -1 0 0 0 -1 forward_v I I I I #
coedge $-1 $325 $326 $177 $264 forward $174 $-1 #
coedge $-1 $177 $176 $269 $327 reversed $66 $-1 #
edge $-1 $266 30.67034851379924 $328 39.786609418495701 $262 $329 forward 7 unknown #
coedge $-1 $183 $178 $326 $330 forward $106 $-1 #
vertex $-1 $330 $331 #
straight-curve $-1 33.421186208613179 26.029315910878225 7.6625946227495518 1 0 0 I I #
coedge $-1 $332 $180 $183 $273 reversed $260 $-1 #
coedge $-1 $180 $332 $263 $327 forward $260 $-1 #
vertex $-1 $181 $333 #
straight-curve $-1 57.842586565462568 31.12706420584837 68.268337650345643 0 0 1 I I #
straight-curve $-1 57.842586565462568 -3.6850018685315291 51.715883740541528 0 0.55919289150049634 -0.82903758062907751 I I #
edge $-1 $334 -75.842158268990147 $184 -57.842586565462568 $268 $335 forward 7 unknown #
point $-1 57.842586565462568 31.127064205848367 7.6625946227495554 #
point $-1 57.842586565462568 26.029315910878225 7.6625946227495518 #
edge $-1 $336 1 $336 0 $187 $-1 forward 7 unknown #
vertex $-1 $188 $337 #
ellipse-curve $-1 66.842372417226358 26.391235626293643 2.4086138359088842 0 0.82903758062907751 0.55919289150049634 1.5 0 0 1 I I #
point $-1 68.342372417226358 28.578190058363283 3.8837331803430448 #
plane-surface $-1 75.842158268990147 0 0 -1 0 0 0 0 1 forward_v I I I I #
coedge $-1 $196 $194 $198 $285 reversed $121 $-1 #
edge $-1 $209 -7.6625946227495554 $287 7.6625946227495554 $208 $338 forward 7 unknown #
vertex $-1 $285 $339 #
straight-curve $-1 -75.842158268990147 -31.127064205848367 0 0 0 -1 I I #
edge $-1 $283 -31.127064205848367 $287 31.127064205848367 $281 $340 forward 7 unknown #
straight-curve $-1 0 -31.127064205848367 -7.6625946227495554 -1 0 0 I I #
vertex $-1 $201 $341 #
straight-curve $-1 0 31.127064205848367 -7.6625946227495554 1 0 0 I I #
point $-1 75.842158268990147 31.127064205848367 -7.6625946227495554 #
point $-1 75.842158268990147 -31.127064205848367 -7.6625946227495554 #
straight-curve $-1 -75.842158268990147 0 7.6625946227495554 0 -1 0 I I #
point $-1 -75.842158268990147 31.127064205848367 7.6625946227495554 #
point $-1 -75.842158268990147 -31.127064205848367 7.6625946227495554 #
straight-curve $-1 75.842158268990147 -31.127064205848367 0 0 0 -1 I I #
straight-curve $-1 75.842158268990147 31.127064205848367 0 0 0 -1 I I #
plane-surface $-1 0 -31.127064205848367 0 0 1 0 0 0 1 forward_v I I I I #
coedge $-1 $342 $310 $222 $299 forward $219 $-1 #
coedge $-1 $300 $221 $230 $308 forward $140 $-1 #
edge $-1 $303 -1.6738818338626986 $301 1.6738818338626986 $222 $343 forward 7 unknown #
coedge $-1 $223 $298 $342 $344 forward $140 $-1 #
vertex $-1 $224 $345 #
straight-curve $-1 -79.781265552989211 31.127064205848367 3.6210489869888027 1 0 0 I I #
vertex $-1 $225 $346 #
straight-curve $-1 -79.781265552989211 31.127064205848367 6.9688126547142 -1 0 0 I I #
point $-1 -75.842158268990147 31.127064205848367 3.6210489869888027 #
straight-curve $-1 -75.842158268990147 0 3.6210489869888027 0 1 0 I I #
coedge $-1 $230 $229 $347 $348 forward $231 $-1 #
edge $-1 $232 -3.9391072839990642 $349 3.9391072839990642 $230 $350 forward 7 unknown #
point $-1 -75.842158268990147 -31.127064205848367 3.6210489869888027 #
coedge $-1 $297 $347 $234 $311 reversed $219 $-1 #
edge $-1 $303 -31.127064205848367 $312 31.127064205848367 $310 $351 forward 7 unknown #
vertex $-1 $311 $352 #
straight-curve $-1 -79.781265552989211 -31.127064205848367 6.9688126547142 1 0 0 I I #
edge $-1 $315 35.562015654574779 $318 41.596181282825434 $239 $353 forward 7 unknown #
vertex $-1 $253 $354 #
straight-curve $-1 -21.70292437113666 -78.439531503935356 7.6625946227495518 0 -1 0 I I #
edge $-1 $318 -15.249755597896797 $250 2.3434180514170713 $249 $355 forward 7 unknown #
vertex $-1 $317 $356 #
straight-curve $-1 -21.70292437113666 -31.127064205848356 1.6284289944989183 0 0.55919289150049634 0.82903758062907751 I I #
point $-1 -21.70292437113666 -27.05696822432002 7.6625946227495554 #
point $-1 -4.1097507218227918 -31.127064205848367 1.6284289944989025 #
straight-curve $-1 0 -31.127064205848367 7.6625946227495554 1 0 0 I I #
vertex $-1 $256 $357 #
point $-1 -11.906337546479726 -27.718298894601524 3.7189278050834949 #
coedge $-1 $326 $262 $332 $358 reversed $174 $-1 #
coedge $-1 $262 $325 $265 $330 reversed $174 $-1 #
edge $-1 $328 -42.420972060376968 $270 -24.421400356849389 $269 $359 forward 7 unknown #
vertex $-1 $264 $360 #
straight-curve $-1 75.842158268990147 8.8786750421188785 33.089466151680298 0 0.55919289150049634 -0.82903758062907751 I I #
edge $-1 $266 26.029315910878225 $334 31.127064205848367 $326 $361 forward 7 unknown #
point $-1 75.842158268990147 26.029315910878225 7.6625946227495518 #
coedge $-1 $269 $268 $325 $358 forward $260 $-1 #
point $-1 57.842586565462568 31.12706420584837 0.10487173793655558 #
vertex $-1 $330 $362 #
straight-curve $-1 0 31.127064205848367 7.6625946227495554 -1 0 0 I I #
vertex $-1 $276 $363 #
point $-1 68.342372417226358 26.391235626293643 2.4086138359088842 #
straight-curve $-1 -75.842158268990147 31.127064205848367 0 0 0 -1 I I #
point $-1 -75.842158268990147 -31.127064205848367 -7.6625946227495554 #
straight-curve $-1 -75.842158268990147 0 -7.6625946227495554 0 1 0 I I #
point $-1 -75.842158268990147 31.127064205848367 -7.6625946227495554 #
coedge $-1 $347 $297 $300 $344 reversed $219 $-1 #
straight-curve $-1 -83.720372836988275 31.127064205848367 5.2949308208515014 0 0 -1 I I #
edge $-1 $349 -31.127064205848367 $301 31.127064205848367 $342 $364 forward 7 unknown #
point $-1 -83.720372836988275 31.127064205848367 3.6210489869888027 #
point $-1 -83.720372836988275 31.127064205848367 6.9688126547142 #
coedge $-1 $310 $342 $307 $348 reversed $219 $-1 #
edge $-1 $312 -1.6738818338626986 $349 1.6738818338626986 $347 $365 forward 7 unknown #
vertex $-1 $344 $366 #
straight-curve $-1 -79.781265552989211 -31.127064205848367 3.6210489869888027 -1 0 0 I I #
straight-curve $-1 -83.720372836988275 0 6.9688126547142 0 -1 0 I I #
point $-1 -83.720372836988275 -31.127064205848367 6.9688126547142 #
straight-curve $-1 -21.70292437113666 -31.12706420584837 43.224610277324338 0 0 -1 I I #
point $-1 -21.70292437113666 -31.127064205848367 7.6625946227495554 #
straight-curve $-1 -6.453168773239863 -31.127064205848367 1.6284289944989032 1 0 0 I I #
point $-1 -21.70292437113666 -31.127064205848367 1.6284289944989025 #
point $-1 -12.906337546479726 -26.889261313972447 3.1597349135829988 #
edge $-1 $334 -7.6625946227495554 $328 -0.10487173793655558 $325 $367 forward 7 unknown #
straight-curve $-1 33.421186208613179 31.127064205848367 0.10487173793655202 -1 0 0 I I #
point $-1 75.842158268990147 31.12706420584837 0.10487173793655558 #
straight-curve $-1 75.842158268990147 0 7.6625946227495554 0 1 0 I I #
point $-1 75.842158268990147 31.127064205848367 7.6625946227495554 #
point $-1 66.842372417226358 25.147679255350027 1.5698244986581396 #
straight-curve $-1 -83.720372836988275 0 3.6210489869888027 0 1 0 I I #
straight-curve $-1 -83.720372836988275 -31.127064205848367 5.2949308208515014 0 0 -1 I I #
point $-1 -83.720372836988275 -31.127064205848367 3.6210489869888027 #
straight-curve $-1 75.842158268990147 31.127064205848367 0 0 0 -1 I I #
End-of-ACIS-data 