500 0 8 0           
7 Unknown 11 ACIS 5.0 NT 24 Fri Mar 26 01:13:40 1999 
-1 9.9999999999999995e-007 1e-010 
body $-1 $8 $-1 $9 #
body $-1 $10 $-1 $11 #
body $-1 $12 $-1 $13 #
body $-1 $14 $-1 $15 #
body $-1 $16 $-1 $17 #
body $-1 $18 $-1 $19 #
body $-1 $20 $-1 $21 #
body $-1 $22 $-1 $23 #
lump $-1 $-1 $24 $0 #
transform $-1 1 0 0 0 1 0 0 0 1 68.500625629444258 32.781919631271656 8.2515554287790263 1 rotate no_reflect no_shear #
lump $-1 $-1 $25 $1 #
transform $-1 1 0 0 0 1 0 0 0 1 68.500625629444258 32.781919631271656 8.2515554287790263 1 rotate no_reflect no_shear #
lump $-1 $-1 $26 $2 #
transform $-1 1 0 0 0 1 0 0 0 1 68.500625629444258 32.781919631271656 8.2515554287790263 1 rotate no_reflect no_shear #
lump $-1 $-1 $27 $3 #
transform $-1 1 0 0 0 1 0 0 0 1 68.500625629444258 32.781919631271656 8.2515554287790263 1 rotate no_reflect no_shear #
lump $-1 $-1 $28 $4 #
transform $-1 1 0 0 0 1 0 0 0 1 68.500625629444258 32.781919631271656 8.2515554287790263 1 rotate no_reflect no_shear #
lump $-1 $-1 $29 $5 #
transform $-1 1 0 0 0 1 0 0 0 1 68.500625629444258 32.781919631271656 8.2515554287790263 1 rotate no_reflect no_shear #
lump $-1 $-1 $30 $6 #
transform $-1 1 0 0 0 1 0 0 0 1 68.500625629444258 32.781919631271656 8.2515554287790263 1 rotate no_reflect no_shear #
lump $-1 $-1 $31 $7 #
transform $-1 1 0 0 0 1 0 0 0 1 68.500625629444258 32.781919631271656 8.2515554287790263 1 rotate no_reflect no_shear #
shell $-1 $-1 $-1 $32 $-1 $8 #
shell $-1 $-1 $-1 $33 $-1 $10 #
shell $-1 $-1 $-1 $34 $-1 $12 #
shell $-1 $-1 $-1 $35 $-1 $14 #
shell $-1 $-1 $-1 $36 $-1 $16 #
shell $-1 $-1 $-1 $37 $-1 $18 #
shell $-1 $-1 $-1 $38 $-1 $20 #
shell $-1 $-1 $-1 $39 $-1 $22 #
face $-1 $40 $41 $24 $-1 $42 forward single #
face $-1 $43 $44 $25 $-1 $45 reversed single #
face $-1 $46 $47 $26 $-1 $48 reversed single #
face $-1 $49 $50 $27 $-1 $51 forward single #
face $-1 $52 $53 $28 $-1 $54 reversed single #
face $-1 $55 $56 $29 $-1 $57 forward single #
face $-1 $58 $59 $30 $-1 $60 forward single #
face $-1 $61 $62 $31 $-1 $63 forward single #
face $-1 $64 $65 $24 $-1 $66 reversed single #
loop $-1 $-1 $67 $32 #
plane-surface $-1 0 0 8.2515554287790263 0 0 1 1 0 0 forward_v I I I I #
face $-1 $68 $69 $25 $-1 $70 reversed single #
loop $-1 $-1 $71 $33 #
plane-surface $-1 0 -28.384394854937206 4.9695179550012289 0 0 1 1 0 0 forward_v I I I I #
face $-1 $72 $73 $26 $-1 $74 reversed single #
loop $-1 $-1 $75 $34 #
plane-surface $-1 -33.311144334809498 27.503717925028404 92.068078259208079 0.66913061440640931 0 0.74314481823134659 0.74314481823134659 0 -0.66913061440640931 forward_v I I I I #
face $-1 $76 $77 $27 $-1 $78 forward single #
loop $-1 $79 $80 $35 #
cone-surface $-1 62.964665161054945 27.503717925028411 3.0201874945597416 -0.66913061440640931 0 -0.74314481823134659 1.1147172273470198 0 -1.003695921609614 1 I I 0 1 1.5 forward I I I I #
face $-1 $81 $82 $28 $-1 $83 reversed single #
loop $-1 $-1 $84 $36 #
plane-surface $-1 -68.500625629444272 -18.525705294806023 2.6837151907377716 -0.7660444514056185 0 0.64278759981090561 0.64278759981090561 0 0.7660444514056185 forward_v I I I I #
face $-1 $85 $86 $29 $-1 $87 forward single #
loop $-1 $88 $89 $37 #
cone-surface $-1 -64.982351770376738 -21.802404165084063 4.4755782674952354 0.7660444514056185 0 -0.64278759981090561 0.64278759981090561 0 0.7660444514056185 1 I I 0 1 1 forward I I I I #
face $-1 $90 $91 $30 $-1 $92 forward single #
loop $-1 $93 $94 $38 #
cone-surface $-1 -64.982351770376738 -18.525705294806023 4.4755782674952354 0.7660444514056185 0 -0.64278759981090561 0.64278759981090561 0 0.7660444514056185 1 I I 0 1 1 forward I I I I #
face $-1 $95 $96 $31 $-1 $97 forward single #
loop $-1 $98 $99 $39 #
cone-surface $-1 -64.982351770376738 -15.249006424527984 4.4755782674952354 0.7660444514056185 0 -0.64278759981090561 0.64278759981090561 0 0.7660444514056185 1 I I 0 1 1 forward I I I I #
face $-1 $100 $101 $24 $-1 $102 reversed single #
loop $-1 $-1 $103 $40 #
plane-surface $-1 0 0 -8.2515554287790263 0 0 1 1 0 0 forward_v I I I I #
coedge $-1 $104 $105 $106 $107 forward $41 $-1 #
face $-1 $108 $109 $25 $-1 $110 reversed single #
loop $-1 $-1 $111 $43 #
plane-surface $-1 0 -23.986870078602756 6.6105366918901272 0 -1 0 0 0 -1 forward_v I I I I #
coedge $-1 $112 $113 $114 $115 reversed $44 $-1 #
face $-1 $116 $117 $26 $-1 $118 reversed single #
loop $-1 $-1 $119 $46 #
plane-surface $-1 58.360587094497433 22.225516218785156 193.87984822346183 0 1 0 0.66913061440640931 0 0.74314481823134659 forward_v I I I I #
coedge $-1 $120 $121 $122 $123 reversed $47 $-1 #
face $-1 $-1 $124 $27 $-1 $125 forward single #
loop $-1 $126 $127 $49 #
cone-surface $-1 61.288903125120683 27.503717925028411 1.1590652461058983 -0.66913061440640931 0 -0.74314481823134659 0.55735861367350992 0 -0.50184796080480698 1 I I -0.70710678118654757 0.70710678118654757 0.75 forward I I I I #
loop $-1 $-1 $128 $35 #
coedge $-1 $80 $80 $129 $130 reversed $50 $-1 #
face $-1 $131 $132 $28 $-1 $133 forward single #
loop $-1 $-1 $134 $52 #
plane-surface $-1 -173.44967399194283 -13.064540511009291 90.74642065852953 0 -1 0 0.7660444514056185 0 -0.64278759981090561 forward_v I I I I #
coedge $-1 $135 $136 $137 $138 reversed $53 $-1 #
face $-1 $-1 $139 $29 $-1 $140 forward single #
loop $-1 $141 $142 $55 #
cone-surface $-1 -63.417041969544712 -21.802404165084063 3.1621274253266147 0.7660444514056185 0 -0.64278759981090561 0.3213937999054528 0 0.38302222570280925 1 I I -0.70710678118654746 0.70710678118654746 0.5 forward I I I I #
loop $-1 $-1 $143 $37 #
coedge $-1 $89 $89 $144 $145 reversed $56 $-1 #
face $-1 $-1 $146 $30 $-1 $147 forward single #
loop $-1 $148 $149 $58 #
cone-surface $-1 -63.417041969544712 -18.525705294806023 3.1621274253266147 0.7660444514056185 0 -0.64278759981090561 0.3213937999054528 0 0.38302222570280925 1 I I -0.70710678118654746 0.70710678118654746 0.5 forward I I I I #
loop $-1 $-1 $150 $38 #
coedge $-1 $94 $94 $151 $152 reversed $59 $-1 #
face $-1 $-1 $153 $31 $-1 $154 forward single #
loop $-1 $155 $156 $61 #
cone-surface $-1 -63.417041969544712 -15.249006424527984 3.1621274253266147 0.7660444514056185 0 -0.64278759981090561 0.3213937999054528 0 0.38302222570280925 1 I I -0.70710678118654746 0.70710678118654746 0.5 forward I I I I #
loop $-1 $-1 $157 $39 #
coedge $-1 $99 $99 $158 $159 reversed $62 $-1 #
face $-1 $160 $161 $24 $-1 $162 reversed single #
loop $-1 $-1 $163 $64 #
plane-surface $-1 0 -32.781919631271656 0 0 1 0 0 0 1 forward_v I I I I #
coedge $-1 $164 $165 $166 $167 forward $65 $-1 #
coedge $-1 $168 $67 $169 $170 forward $41 $-1 #
coedge $-1 $67 $168 $171 $172 forward $41 $-1 #
coedge $-1 $173 $174 $67 $107 reversed $175 $-1 #
edge $-1 $176 -32.781919631271656 $177 32.781919631271656 $106 $178 forward 7 unknown #
face $-1 $179 $180 $25 $-1 $181 reversed single #
loop $-1 $-1 $182 $68 #
plane-surface $-1 -68.500625629444258 0 0 1 0 0 0 0 -1 forward_v I I I I #
coedge $-1 $183 $184 $185 $186 reversed $69 $-1 #
coedge $-1 $187 $71 $188 $189 reversed $44 $-1 #
coedge $-1 $71 $187 $190 $191 forward $44 $-1 #
coedge $-1 $192 $193 $71 $115 forward $194 $-1 #
edge $-1 $195 -18.589722203803053 $196 -9.7946726511341531 $114 $197 forward 7 unknown #
face $-1 $198 $199 $26 $-1 $200 forward single #
loop $-1 $-1 $201 $72 #
plane-surface $-1 0 32.781919631271656 0 0 -1 0 0 0 -1 forward_v I I I I #
coedge $-1 $202 $203 $204 $205 reversed $73 $-1 #
coedge $-1 $206 $75 $201 $207 reversed $47 $-1 #
coedge $-1 $75 $206 $202 $208 forward $47 $-1 #
coedge $-1 $204 $209 $75 $123 forward $199 $-1 #
edge $-1 $210 -19.030060668757447 $211 -8.473657256270954 $122 $212 forward 7 unknown #
loop $-1 $-1 $129 $76 #
plane-surface $-1 -33.311144334809498 27.503717925028404 92.068078259208079 0.66913061440640931 0 0.74314481823134659 0.74314481823134659 0 -0.66913061440640931 forward_v I I I I #
loop $-1 $-1 $213 $49 #
coedge $-1 $127 $127 $128 $214 reversed $77 $-1 #
coedge $-1 $128 $128 $127 $214 forward $79 $-1 #
coedge $-1 $129 $129 $80 $130 forward $124 $-1 #
edge $-1 $215 0 $215 6.2831853071796004 $129 $216 forward 7 unknown #
face $-1 $217 $218 $28 $-1 $219 forward single #
loop $-1 $-1 $220 $81 #
plane-surface $-1 0 -23.986870078602756 6.6105366918901272 0 -1 0 0 0 -1 forward_v I I I I #
coedge $-1 $221 $222 $223 $224 reversed $82 $-1 #
coedge $-1 $225 $84 $220 $226 reversed $53 $-1 #
coedge $-1 $84 $225 $221 $227 forward $53 $-1 #
coedge $-1 $223 $228 $84 $138 forward $218 $-1 #
edge $-1 $229 -14.724017431199744 $230 -3.8016878636062792 $137 $231 forward 7 unknown #
loop $-1 $-1 $144 $85 #
plane-surface $-1 -68.500625629444272 -18.525705294806023 2.6837151907377716 -0.7660444514056185 0 0.64278759981090561 0.64278759981090561 0 0.7660444514056185 forward_v I I I I #
loop $-1 $-1 $232 $55 #
coedge $-1 $142 $142 $143 $233 reversed $86 $-1 #
coedge $-1 $143 $143 $142 $233 forward $88 $-1 #
coedge $-1 $144 $144 $89 $145 forward $139 $-1 #
edge $-1 $234 0 $234 6.2831853071796004 $144 $235 forward 7 unknown #
loop $-1 $-1 $151 $90 #
plane-surface $-1 -68.500625629444272 -18.525705294806023 2.6837151907377716 -0.7660444514056185 0 0.64278759981090561 0.64278759981090561 0 0.7660444514056185 forward_v I I I I #
loop $-1 $-1 $236 $58 #
coedge $-1 $149 $149 $150 $237 reversed $91 $-1 #
coedge $-1 $150 $150 $149 $237 forward $93 $-1 #
coedge $-1 $151 $151 $94 $152 forward $146 $-1 #
edge $-1 $238 0 $238 6.2831853071796004 $151 $239 forward 7 unknown #
loop $-1 $-1 $158 $95 #
plane-surface $-1 -68.500625629444272 -18.525705294806023 2.6837151907377716 -0.7660444514056185 0 0.64278759981090561 0.64278759981090561 0 0.7660444514056185 forward_v I I I I #
loop $-1 $-1 $240 $61 #
coedge $-1 $156 $156 $157 $241 reversed $96 $-1 #
coedge $-1 $157 $157 $156 $241 forward $98 $-1 #
coedge $-1 $158 $158 $99 $159 forward $153 $-1 #
edge $-1 $242 0 $242 6.2831853071796004 $158 $243 forward 7 unknown #
face $-1 $244 $245 $24 $-1 $246 reversed single #
loop $-1 $-1 $247 $100 #
plane-surface $-1 -68.500625629444258 0 0 1 0 0 0 0 -1 forward_v I I I I #
coedge $-1 $248 $171 $249 $250 forward $101 $-1 #
coedge $-1 $251 $103 $248 $252 forward $65 $-1 #
coedge $-1 $103 $251 $253 $254 forward $65 $-1 #
coedge $-1 $174 $173 $103 $167 reversed $175 $-1 #
edge $-1 $255 -32.781919631271656 $256 32.781919631271656 $166 $257 forward 7 unknown #
coedge $-1 $105 $104 $258 $259 forward $41 $-1 #
coedge $-1 $260 $261 $104 $170 reversed $245 $-1 #
edge $-1 $177 -68.500625629444258 $262 68.500625629444258 $169 $263 forward 7 unknown #
coedge $-1 $163 $264 $105 $172 reversed $101 $-1 #
edge $-1 $265 -68.500625629444258 $176 68.500625629444258 $171 $266 forward 7 unknown #
coedge $-1 $166 $106 $264 $267 forward $175 $-1 #
coedge $-1 $106 $166 $260 $268 reversed $175 $-1 #
loop $-1 $-1 $173 $244 #
vertex $-1 $107 $269 #
vertex $-1 $107 $270 #
straight-curve $-1 68.500625629444258 0 8.2515554287790263 0 1 0 I I #
face $-1 $271 $272 $25 $-1 $273 forward single #
loop $-1 $-1 $188 $108 #
plane-surface $-1 0 -32.781919631271656 0 0 1 0 0 0 1 forward_v I I I I #
coedge $-1 $274 $275 $184 $276 forward $109 $-1 #
coedge $-1 $190 $111 $192 $277 reversed $69 $-1 #
coedge $-1 $111 $190 $182 $276 reversed $69 $-1 #
coedge $-1 $278 $279 $111 $186 forward $272 $-1 #
edge $-1 $280 -68.500625629444258 $281 68.500625629444258 $185 $282 forward 7 unknown #
coedge $-1 $113 $112 $274 $283 reversed $44 $-1 #
coedge $-1 $284 $285 $112 $189 forward $180 $-1 #
edge $-1 $286 -68.500625629444258 $195 68.500625629444258 $188 $287 forward 7 unknown #
coedge $-1 $184 $183 $113 $191 reversed $69 $-1 #
edge $-1 $288 -68.500625629444258 $196 68.500625629444258 $190 $289 forward 7 unknown #
coedge $-1 $290 $114 $183 $277 forward $194 $-1 #
coedge $-1 $114 $290 $284 $291 forward $194 $-1 #
loop $-1 $-1 $192 $271 #
vertex $-1 $189 $292 #
vertex $-1 $115 $293 #
straight-curve $-1 68.500625629444258 -14.192197427468603 4.9695179550012289 0 1 0 I I #
face $-1 $-1 $294 $26 $-1 $295 reversed single #
loop $-1 $-1 $122 $116 #
plane-surface $-1 0 0 8.2515554287790263 0 0 1 1 0 0 forward_v I I I I #
coedge $-1 $296 $297 $120 $207 forward $117 $-1 #
coedge $-1 $203 $119 $121 $208 reversed $73 $-1 #
coedge $-1 $119 $202 $298 $299 reversed $73 $-1 #
coedge $-1 $300 $122 $119 $205 forward $199 $-1 #
edge $-1 $211 30.596239295675893 $301 39.320332082195542 $204 $302 forward 7 unknown #
coedge $-1 $121 $120 $303 $304 reversed $47 $-1 #
edge $-1 $305 -93.820964221602807 $210 -82.081539317473585 $201 $306 forward 7 unknown #
edge $-1 $307 -137.00125125888852 $211 -125.26182635475931 $202 $308 forward 7 unknown #
coedge $-1 $122 $300 $296 $309 forward $199 $-1 #
vertex $-1 $123 $310 #
vertex $-1 $123 $311 #
straight-curve $-1 59.776532842924624 13.751858962514202 8.2515554287790138 0 -1 0 I I #
coedge $-1 $213 $213 $-1 $312 reversed $126 $-1 #
edge $-1 $313 0 $313 6.2831853071796004 $127 $314 forward 7 unknown #
vertex $-1 $130 $315 #
ellipse-curve $-1 64.138579236184427 27.503717925028411 4.3239511293401014 0.66913061440640931 0 0.74314481823134659 1.1147172273470198 0 -1.003695921609614 1 I I #
face $-1 $-1 $316 $28 $-1 $317 reversed single #
loop $-1 $-1 $223 $131 #
plane-surface $-1 0 0 8.2515554287790263 0 0 1 1 0 0 forward_v I I I I #
coedge $-1 $318 $319 $135 $226 forward $132 $-1 #
coedge $-1 $222 $134 $136 $227 reversed $82 $-1 #
coedge $-1 $134 $221 $320 $321 reversed $82 $-1 #
coedge $-1 $322 $137 $134 $224 forward $218 $-1 #
edge $-1 $230 -22.89618393440373 $323 -18.224211366527157 $223 $324 forward 7 unknown #
coedge $-1 $136 $135 $325 $326 reversed $53 $-1 #
edge $-1 $327 -23.519736278256943 $229 -16.25143712430474 $220 $328 forward 7 unknown #
edge $-1 $329 2.2061860048766535e-014 $230 7.2682991539522286 $221 $330 forward 7 unknown #
coedge $-1 $137 $322 $318 $331 forward $218 $-1 #
vertex $-1 $138 $332 #
vertex $-1 $138 $333 #
straight-curve $-1 -63.828653061567685 -9.2628526474030117 8.2515554287790263 0 1 0 I I #
coedge $-1 $232 $232 $-1 $334 reversed $141 $-1 #
edge $-1 $335 0 $335 6.2831853071796004 $142 $336 forward 7 unknown #
vertex $-1 $145 $337 #
ellipse-curve $-1 -66.164639345505975 -21.802404165084063 5.4676353097584096 -0.7660444514056185 0 0.64278759981090561 0.64278759981090561 0 0.7660444514056185 1 I I #
coedge $-1 $236 $236 $-1 $338 reversed $148 $-1 #
edge $-1 $339 0 $339 6.2831853071796004 $149 $340 forward 7 unknown #
vertex $-1 $152 $341 #
ellipse-curve $-1 -66.164639345505975 -18.525705294806023 5.4676353097584096 -0.7660444514056185 0 0.64278759981090561 0.64278759981090561 0 0.7660444514056185 1 I I #
coedge $-1 $240 $240 $-1 $342 reversed $155 $-1 #
edge $-1 $343 0 $343 6.2831853071796004 $156 $344 forward 7 unknown #
vertex $-1 $159 $345 #
ellipse-curve $-1 -66.164639345505975 -15.249006424527984 5.4676353097584096 -0.7660444514056185 0 0.64278759981090561 0.64278759981090561 0 0.7660444514056185 1 I I #
face $-1 $-1 $175 $24 $-1 $346 reversed single #
loop $-1 $-1 $260 $160 #
plane-surface $-1 0 32.781919631271656 0 0 -1 0 0 0 -1 forward_v I I I I #
coedge $-1 $347 $258 $261 $348 forward $161 $-1 #
coedge $-1 $264 $163 $164 $252 reversed $101 $-1 #
coedge $-1 $258 $347 $163 $250 reversed $161 $-1 #
edge $-1 $265 -8.2515554287790263 $349 8.2515554287790263 $249 $350 forward 7 unknown #
coedge $-1 $165 $164 $347 $351 forward $65 $-1 #
edge $-1 $256 -68.500625629444258 $349 68.500625629444258 $248 $352 forward 7 unknown #
coedge $-1 $261 $260 $165 $254 reversed $245 $-1 #
edge $-1 $353 -68.500625629444258 $255 68.500625629444258 $253 $354 forward 7 unknown #
vertex $-1 $167 $355 #
vertex $-1 $267 $356 #
straight-curve $-1 68.500625629444258 0 -8.2515554287790263 0 -1 0 I I #
coedge $-1 $247 $249 $168 $259 reversed $161 $-1 #
edge $-1 $262 -32.781919631271656 $265 32.781919631271656 $258 $357 forward 7 unknown #
coedge $-1 $253 $169 $174 $268 forward $245 $-1 #
coedge $-1 $169 $253 $247 $348 reversed $245 $-1 #
vertex $-1 $170 $358 #
straight-curve $-1 0 32.781919631271656 8.2515554287790263 -1 0 0 I I #
coedge $-1 $171 $248 $173 $267 reversed $101 $-1 #
vertex $-1 $259 $359 #
straight-curve $-1 0 -32.781919631271656 8.2515554287790263 1 0 0 I I #
edge $-1 $176 -8.2515554287790263 $256 8.2515554287790263 $173 $360 forward 7 unknown #
edge $-1 $177 -8.2515554287790263 $255 8.2515554287790263 $174 $361 forward 7 unknown #
point $-1 68.500625629444258 -32.781919631271656 8.2515554287790263 #
point $-1 68.500625629444258 32.781919631271656 8.2515554287790263 #
face $-1 $-1 $194 $25 $-1 $362 reversed single #
loop $-1 $-1 $185 $179 #
plane-surface $-1 0 0 8.2515554287790263 0 0 1 1 0 0 forward_v I I I I #
coedge $-1 $363 $182 $187 $283 forward $109 $-1 #
coedge $-1 $182 $363 $278 $364 reversed $109 $-1 #
edge $-1 $281 -4.9462870828339609 $288 -1.6642496090561654 $182 $365 forward 7 unknown #
edge $-1 $196 1.6642496090561654 $280 4.9462870828339609 $192 $366 forward 7 unknown #
coedge $-1 $367 $185 $275 $364 forward $272 $-1 #
coedge $-1 $185 $367 $290 $368 forward $272 $-1 #
vertex $-1 $277 $369 #
vertex $-1 $364 $370 #
straight-curve $-1 0 -23.986870078602756 8.2515554287790263 -1 0 0 I I #
edge $-1 $288 9.7946726511341531 $286 18.589722203803053 $274 $371 forward 7 unknown #
coedge $-1 $372 $188 $193 $291 reversed $180 $-1 #
coedge $-1 $188 $372 $363 $373 forward $180 $-1 #
vertex $-1 $189 $374 #
straight-curve $-1 0 -32.781919631271656 4.9695179550012289 1 0 0 I I #
vertex $-1 $283 $375 #
straight-curve $-1 0 -23.986870078602756 4.9695179550012289 1 0 0 I I #
coedge $-1 $193 $192 $279 $368 reversed $194 $-1 #
edge $-1 $376 -8.2515554287790263 $195 -4.9695179550012289 $193 $377 forward 7 unknown #
point $-1 68.500625629444258 -32.781919631271656 4.9695179550012289 #
point $-1 68.500625629444258 -23.986870078602756 4.9695179550012289 #
loop $-1 $-1 $303 $198 #
plane-surface $-1 68.500625629444258 0 0 -1 0 0 0 0 1 forward_v I I I I #
coedge $-1 $297 $201 $209 $309 reversed $117 $-1 #
coedge $-1 $201 $296 $378 $379 forward $117 $-1 #
coedge $-1 $303 $380 $203 $299 forward $294 $-1 #
edge $-1 $301 88.688368682951889 $307 96.543577281829769 $298 $381 forward 7 unknown #
coedge $-1 $209 $204 $380 $382 forward $199 $-1 #
vertex $-1 $382 $383 #
straight-curve $-1 29.180293547248716 22.225516218785156 8.251555428779028 1 0 0 I I #
coedge $-1 $378 $298 $206 $304 forward $294 $-1 #
edge $-1 $307 8.473657256270954 $305 19.030060668757447 $303 $384 forward 7 unknown #
vertex $-1 $304 $385 #
straight-curve $-1 -1.2219377733084347 32.781919631271656 63.174826263703977 -0.74314481823134659 0 0.66913061440640931 I I #
vertex $-1 $304 $386 #
straight-curve $-1 -33.311144334809498 22.225516218785156 92.068078259208079 -0.74314481823134659 0 0.66913061440640931 I I #
edge $-1 $387 -68.500625629444258 $210 -59.77653284292461 $296 $388 forward 7 unknown #
point $-1 59.77653284292461 32.781919631271649 8.251555428779028 #
point $-1 59.77653284292461 22.225516218785156 8.251555428779028 #
edge $-1 $389 1 $389 0 $213 $-1 forward 7 unknown #
vertex $-1 $214 $390 #
ellipse-curve $-1 61.790751085925493 27.503717925028411 1.7164238597794084 0.66913061440640931 0 0.74314481823134659 1.1147172273470198 0 -1.003695921609614 1 I I #
point $-1 65.253296463531413 27.503717925028411 3.3202552077304612 #
loop $-1 $-1 $391 $217 #
plane-surface $-1 -68.500625629444258 0 0 1 0 0 0 0 -1 forward_v I I I I #
coedge $-1 $319 $220 $228 $331 reversed $132 $-1 #
coedge $-1 $220 $318 $391 $392 reversed $132 $-1 #
coedge $-1 $325 $393 $222 $321 forward $316 $-1 #
edge $-1 $323 37.121654900485737 $329 42.689495138526979 $320 $394 forward 7 unknown #
coedge $-1 $228 $223 $393 $395 forward $218 $-1 #
vertex $-1 $395 $396 #
straight-curve $-1 -86.724836995971415 -13.064540511009291 8.251555428779028 -1 0 0 I I #
coedge $-1 $391 $320 $225 $326 forward $316 $-1 #
edge $-1 $329 3.8016878636062792 $327 14.724017431199744 $325 $397 forward 7 unknown #
vertex $-1 $392 $398 #
straight-curve $-1 -53.382430798957998 -23.986870078602756 20.700878665219953 0.64278759981090572 0 0.76604445140561861 I I #
vertex $-1 $326 $399 #
straight-curve $-1 -68.500625629444272 -13.064540511009291 2.6837151907377716 0.64278759981090561 0 0.7660444514056185 I I #
edge $-1 $400 -68.500625629444258 $229 -63.828653061567685 $228 $401 forward 7 unknown #
point $-1 -63.828653061567685 -23.986870078602756 8.2515554287790263 #
point $-1 -63.828653061567685 -13.064540511009291 8.2515554287790263 #
edge $-1 $402 1 $402 0 $232 $-1 forward 7 unknown #
vertex $-1 $233 $403 #
ellipse-curve $-1 -63.800064195247522 -21.802404165084063 3.4835212252320673 -0.7660444514056185 0 0.64278759981090561 0.64278759981090561 0 0.7660444514056185 1 I I #
point $-1 -65.521851745695059 -21.802404165084063 6.2336797611640211 #
edge $-1 $404 1 $404 0 $236 $-1 forward 7 unknown #
vertex $-1 $237 $405 #
ellipse-curve $-1 -63.800064195247522 -18.525705294806023 3.4835212252320673 -0.7660444514056185 0 0.64278759981090561 0.64278759981090561 0 0.7660444514056185 1 I I #
point $-1 -65.521851745695059 -18.525705294806023 6.2336797611640211 #
edge $-1 $406 1 $406 0 $240 $-1 forward 7 unknown #
vertex $-1 $241 $407 #
ellipse-curve $-1 -63.800064195247522 -15.249006424527984 3.4835212252320673 -0.7660444514056185 0 0.64278759981090561 0.64278759981090561 0 0.7660444514056185 1 I I #
point $-1 -65.521851745695059 -15.249006424527984 6.2336797611640211 #
plane-surface $-1 68.500625629444258 0 0 -1 0 0 0 0 1 forward_v I I I I #
coedge $-1 $249 $247 $251 $351 reversed $161 $-1 #
edge $-1 $262 -8.2515554287790263 $353 8.2515554287790263 $261 $408 forward 7 unknown #
vertex $-1 $351 $409 #
straight-curve $-1 -68.500625629444258 -32.781919631271656 0 0 0 -1 I I #
edge $-1 $349 -32.781919631271656 $353 32.781919631271656 $347 $410 forward 7 unknown #
straight-curve $-1 0 -32.781919631271656 -8.2515554287790263 -1 0 0 I I #
vertex $-1 $254 $411 #
straight-curve $-1 0 32.781919631271656 -8.2515554287790263 1 0 0 I I #
point $-1 68.500625629444258 32.781919631271656 -8.2515554287790263 #
point $-1 68.500625629444258 -32.781919631271656 -8.2515554287790263 #
straight-curve $-1 -68.500625629444258 0 8.2515554287790263 0 -1 0 I I #
point $-1 -68.500625629444258 32.781919631271656 8.2515554287790263 #
point $-1 -68.500625629444258 -32.781919631271656 8.2515554287790263 #
straight-curve $-1 68.500625629444258 -32.781919631271656 0 0 0 -1 I I #
straight-curve $-1 68.500625629444258 32.781919631271656 0 0 0 -1 I I #
plane-surface $-1 68.500625629444258 0 0 -1 0 0 0 0 1 forward_v I I I I #
coedge $-1 $275 $274 $285 $373 reversed $109 $-1 #
edge $-1 $281 23.986870078602756 $412 32.781919631271656 $275 $413 forward 7 unknown #
straight-curve $-1 -68.500625629444258 -23.986870078602756 3.3052683459450636 0 0 -1 I I #
straight-curve $-1 68.500625629444258 -23.986870078602756 3.3052683459450636 0 0 1 I I #
coedge $-1 $279 $278 $372 $414 forward $272 $-1 #
edge $-1 $376 -32.781919631271656 $280 -23.986870078602756 $290 $415 forward 7 unknown #
point $-1 68.500625629444258 -23.986870078602756 8.2515554287790245 #
point $-1 -68.500625629444258 -23.986870078602756 8.2515554287790245 #
straight-curve $-1 -68.500625629444258 -14.192197427468603 4.9695179550012289 0 -1 0 I I #
coedge $-1 $285 $284 $367 $414 reversed $180 $-1 #
edge $-1 $412 -8.2515554287790263 $286 -4.9695179550012289 $363 $416 forward 7 unknown #
point $-1 -68.500625629444258 -32.781919631271656 4.9695179550012289 #
point $-1 -68.500625629444258 -23.986870078602756 4.9695179550012289 #
vertex $-1 $368 $417 #
straight-curve $-1 68.500625629444258 -32.781919631271656 0 0 0 -1 I I #
coedge $-1 $380 $303 $297 $379 reversed $294 $-1 #
edge $-1 $387 -8.2515554287790263 $305 -0.39634682990114811 $378 $418 forward 7 unknown #
coedge $-1 $298 $378 $300 $382 reversed $294 $-1 #
straight-curve $-1 68.500625629444258 22.225516218785156 96.939924111730917 0 0 -1 I I #
edge $-1 $301 22.225516218785156 $387 32.781919631271656 $380 $419 forward 7 unknown #
point $-1 68.500625629444258 22.225516218785156 8.2515554287790263 #
straight-curve $-1 68.500625629444258 13.751858962514202 0.39634682990114101 0 1 0 I I #
point $-1 68.500625629444258 32.781919631271649 0.39634682990114811 #
point $-1 68.500625629444258 22.225516218785156 0.39634682990114811 #
vertex $-1 $382 $420 #
straight-curve $-1 0 32.781919631271656 8.2515554287790263 -1 0 0 I I #
vertex $-1 $312 $421 #
point $-1 62.905468313272507 27.503717925028411 0.7127279381697943 #
coedge $-1 $393 $325 $319 $392 forward $316 $-1 #
edge $-1 $327 -42.689495138526979 $400 -37.121654900485737 $391 $422 forward 7 unknown #
coedge $-1 $320 $391 $322 $395 reversed $316 $-1 #
straight-curve $-1 -68.500625629444258 -13.064540511009291 45.373210329264765 0 0 -1 I I #
edge $-1 $323 13.064540511009291 $400 23.986870078602756 $393 $423 forward 7 unknown #
point $-1 -68.500625629444258 -13.064540511009291 8.2515554287790263 #
straight-curve $-1 -68.500625629444258 -9.2628526474030117 2.6837151907377939 0 -1 0 I I #
point $-1 -68.500625629444258 -23.986870078602756 2.6837151907377885 #
point $-1 -68.500625629444258 -13.064540511009291 2.6837151907377885 #
vertex $-1 $392 $424 #
straight-curve $-1 0 -23.986870078602756 8.2515554287790263 1 0 0 I I #
vertex $-1 $334 $425 #
point $-1 -63.157276595436613 -21.802404165084063 4.2495656766376859 #
vertex $-1 $338 $426 #
point $-1 -63.157276595436613 -18.525705294806023 4.2495656766376859 #
vertex $-1 $342 $427 #
point $-1 -63.157276595436613 -15.249006424527984 4.2495656766376859 #
straight-curve $-1 -68.500625629444258 32.781919631271656 0 0 0 -1 I I #
point $-1 -68.500625629444258 -32.781919631271656 -8.2515554287790263 #
straight-curve $-1 -68.500625629444258 0 -8.2515554287790263 0 1 0 I I #
point $-1 -68.500625629444258 32.781919631271656 -8.2515554287790263 #
vertex $-1 $364 $428 #
straight-curve $-1 -68.500625629444258 0 8.2515554287790263 0 -1 0 I I #
edge $-1 $412 -68.500625629444258 $376 68.500625629444258 $372 $429 forward 7 unknown #
straight-curve $-1 68.500625629444258 0 8.2515554287790263 0 1 0 I I #
straight-curve $-1 -68.500625629444258 -32.781919631271656 0 0 0 -1 I I #
point $-1 68.500625629444258 -32.781919631271656 8.2515554287790263 #
straight-curve $-1 68.500625629444258 32.781919631271656 0 0 0 -1 I I #
straight-curve $-1 68.500625629444258 0 8.2515554287790263 0 1 0 I I #
point $-1 68.500625629444258 32.781919631271656 8.2515554287790263 #
point $-1 60.787055164315873 27.503717925028411 0.60170663243238842 #
straight-curve $-1 -68.500625629444258 -23.986870078602756 45.373210329264765 0 0 1 I I #
straight-curve $-1 -68.500625629444258 0 8.2515554287790263 0 -1 0 I I #
point $-1 -68.500625629444258 -23.986870078602756 8.2515554287790245 #
point $-1 -63.034019743841903 -21.802404165084063 2.8407336254211621 #
point $-1 -63.034019743841903 -18.525705294806023 2.8407336254211621 #
point $-1 -63.034019743841903 -15.249006424527984 2.8407336254211621 #
point $-1 -68.500625629444258 -32.781919631271656 8.2515554287790263 #
straight-curve $-1 0 -32.781919631271656 8.2515554287790263 1 0 0 I I #
End-of-ACIS-data 