500 0 12 0           
7 Unknown 11 ACIS 5.0 NT 24 Thu Mar 25 22:14:31 1999 
-1 9.9999999999999995e-007 1e-010 
body $-1 $12 $-1 $13 #
body $-1 $14 $-1 $15 #
body $-1 $16 $-1 $17 #
body $-1 $18 $-1 $19 #
body $-1 $20 $-1 $21 #
body $-1 $22 $-1 $23 #
body $-1 $24 $-1 $25 #
body $-1 $26 $-1 $27 #
body $-1 $28 $-1 $29 #
body $-1 $30 $-1 $31 #
body $-1 $32 $-1 $33 #
body $-1 $34 $-1 $35 #
lump $-1 $-1 $36 $0 #
transform $-1 1 0 0 0 1 0 0 0 1 49.024933622241889 24.379008634324048 6.527059753630116 1 rotate no_reflect no_shear #
lump $-1 $-1 $37 $1 #
transform $-1 1 0 0 0 1 0 0 0 1 49.024933622241889 24.379008634324048 6.527059753630116 1 rotate no_reflect no_shear #
lump $-1 $-1 $38 $2 #
transform $-1 1 0 0 0 1 0 0 0 1 49.024933622241889 24.379008634324048 6.527059753630116 1 rotate no_reflect no_shear #
lump $-1 $-1 $39 $3 #
transform $-1 1 0 0 0 1 0 0 0 1 49.024933622241889 24.379008634324048 6.527059753630116 1 rotate no_reflect no_shear #
lump $-1 $-1 $40 $4 #
transform $-1 1 0 0 0 1 0 0 0 1 49.024933622241889 24.379008634324048 6.527059753630116 1 rotate no_reflect no_shear #
lump $-1 $-1 $41 $5 #
transform $-1 1 0 0 0 1 0 0 0 1 49.024933622241889 24.379008634324048 6.527059753630116 1 rotate no_reflect no_shear #
lump $-1 $-1 $42 $6 #
transform $-1 1 0 0 0 1 0 0 0 1 49.024933622241889 24.379008634324048 6.527059753630116 1 rotate no_reflect no_shear #
lump $-1 $-1 $43 $7 #
transform $-1 1 0 0 0 1 0 0 0 1 49.024933622241889 24.379008634324048 6.527059753630116 1 rotate no_reflect no_shear #
lump $-1 $-1 $44 $8 #
transform $-1 1 0 0 0 1 0 0 0 1 49.024933622241889 24.379008634324048 6.527059753630116 1 rotate no_reflect no_shear #
lump $-1 $-1 $45 $9 #
transform $-1 1 0 0 0 1 0 0 0 1 49.024933622241889 24.379008634324048 6.527059753630116 1 rotate no_reflect no_shear #
lump $-1 $-1 $46 $10 #
transform $-1 1 0 0 0 1 0 0 0 1 49.024933622241889 24.379008634324048 6.527059753630116 1 rotate no_reflect no_shear #
lump $-1 $-1 $47 $11 #
transform $-1 1 0 0 0 1 0 0 0 1 49.024933622241889 24.379008634324048 6.527059753630116 1 rotate no_reflect no_shear #
shell $-1 $-1 $-1 $48 $-1 $12 #
shell $-1 $-1 $-1 $49 $-1 $14 #
shell $-1 $-1 $-1 $50 $-1 $16 #
shell $-1 $-1 $-1 $51 $-1 $18 #
shell $-1 $-1 $-1 $52 $-1 $20 #
shell $-1 $-1 $-1 $53 $-1 $22 #
shell $-1 $-1 $-1 $54 $-1 $24 #
shell $-1 $-1 $-1 $55 $-1 $26 #
shell $-1 $-1 $-1 $56 $-1 $28 #
shell $-1 $-1 $-1 $57 $-1 $30 #
shell $-1 $-1 $-1 $58 $-1 $32 #
shell $-1 $-1 $-1 $59 $-1 $34 #
face $-1 $60 $61 $36 $-1 $62 forward single #
face $-1 $63 $64 $37 $-1 $65 reversed single #
face $-1 $66 $67 $38 $-1 $68 reversed single #
face $-1 $69 $70 $39 $-1 $71 forward single #
face $-1 $72 $73 $40 $-1 $74 forward single #
face $-1 $75 $76 $41 $-1 $77 reversed single #
face $-1 $78 $79 $42 $-1 $80 forward single #
face $-1 $81 $82 $43 $-1 $83 forward single #
face $-1 $84 $85 $44 $-1 $86 reversed single #
face $-1 $87 $88 $45 $-1 $89 forward single #
face $-1 $90 $91 $46 $-1 $92 reversed single #
face $-1 $93 $94 $47 $-1 $95 forward single #
face $-1 $96 $97 $36 $-1 $98 reversed single #
loop $-1 $-1 $99 $48 #
plane-surface $-1 0 0 6.527059753630116 0 0 1 1 0 0 forward_v I I I I #
face $-1 $100 $101 $37 $-1 $102 reversed single #
loop $-1 $-1 $103 $49 #
plane-surface $-1 0 -21.907185787795573 2.696717274838849 0 0 1 1 0 0 forward_v I I I I #
face $-1 $104 $105 $38 $-1 $106 reversed single #
loop $-1 $-1 $107 $50 #
plane-surface $-1 -109.39046030247941 -5.2952765930531491 80.783120613849334 0 1 0 -0.61566148304635926 0 0.78801074757464917 forward_v I I I I #
face $-1 $108 $109 $39 $-1 $110 forward single #
loop $-1 $111 $112 $51 #
cone-surface $-1 -46.468338384855151 -3.0761053246012544 4.2147879265895103 0.61566148304635926 0 -0.78801074757464917 0.78801074757464917 0 0.61566148304635926 1 I I 0 1 1 forward I I I I #
face $-1 $113 $114 $40 $-1 $115 forward single #
loop $-1 $116 $117 $52 #
cone-surface $-1 -46.468338384855151 0.25265157807658767 4.2147879265895103 0.61566148304635926 0 -0.78801074757464917 0.78801074757464917 0 0.61566148304635926 1 I I 0 1 1 forward I I I I #
face $-1 $118 $119 $41 $-1 $120 reversed single #
loop $-1 $-1 $121 $53 #
plane-surface $-1 -49.024933622241889 -1.4117268732623351 3.5187714269285664 -0.61566148304635926 0 0.78801074757464917 0.78801074757464917 0 0.61566148304635926 forward_v I I I I #
face $-1 $122 $123 $42 $-1 $124 forward single #
loop $-1 $125 $126 $54 #
cone-surface $-1 -46.468338384855151 4.6909941149803736 4.2147879265895103 0.61566148304635926 0 -0.78801074757464917 0.78801074757464917 0 0.61566148304635926 1 I I 0 1 1 forward I I I I #
face $-1 $127 $128 $43 $-1 $129 forward single #
loop $-1 $130 $131 $55 #
cone-surface $-1 -46.468338384855151 8.0197510176582121 4.2147879265895103 0.61566148304635926 0 -0.78801074757464917 0.78801074757464917 0 0.61566148304635926 1 I I 0 1 1 forward I I I I #
face $-1 $132 $133 $44 $-1 $134 reversed single #
loop $-1 $-1 $135 $56 #
plane-surface $-1 80.21742537943814 2.4718228465284771 135.62048624608997 0 -1 0 -0.84804810408105047 0 -0.52991925155115449 forward_v I I I I #
face $-1 $136 $137 $45 $-1 $138 forward single #
loop $-1 $139 $140 $57 #
cone-surface $-1 46.004793360911094 -2.8100317980985317 2.8063480984141069 -0.84804810408105047 0 -0.52991925155115449 0.79487887732673168 0 -1.2720721561215758 1 I I 0 1 1.5 forward I I I I #
face $-1 $141 $142 $46 $-1 $143 reversed single #
loop $-1 $-1 $144 $58 #
plane-surface $-1 80.21742537943814 13.035532135782498 135.62048624608997 0 -1 0 -0.84804810408105047 0 -0.52991925155115449 forward_v I I I I #
face $-1 $145 $146 $47 $-1 $147 forward single #
loop $-1 $148 $149 $59 #
cone-surface $-1 46.004793360911094 7.7536774911554893 2.8063480984141069 -0.84804810408105047 0 -0.52991925155115449 0.79487887732673168 0 -1.2720721561215758 1 I I 0 1 1.5 forward I I I I #
face $-1 $150 $151 $36 $-1 $152 reversed single #
loop $-1 $-1 $153 $60 #
plane-surface $-1 0 0 -6.527059753630116 0 0 1 1 0 0 forward_v I I I I #
coedge $-1 $154 $155 $156 $157 forward $61 $-1 #
face $-1 $158 $159 $37 $-1 $160 reversed single #
loop $-1 $-1 $161 $63 #
plane-surface $-1 0 -19.435362941267098 4.611888514234483 0 -1 0 0 0 -1 forward_v I I I I #
coedge $-1 $162 $163 $164 $165 reversed $64 $-1 #
face $-1 $166 $167 $38 $-1 $168 reversed single #
loop $-1 $-1 $169 $66 #
plane-surface $-1 -49.024933622241889 -1.4117268732623351 3.5187714269285664 -0.61566148304635926 0 0.78801074757464917 0.78801074757464917 0 0.61566148304635926 forward_v I I I I #
coedge $-1 $170 $171 $172 $173 reversed $67 $-1 #
face $-1 $-1 $174 $39 $-1 $175 forward single #
loop $-1 $176 $177 $69 #
cone-surface $-1 -45.529129102557768 -3.0761053246012544 3.0126548891123548 0.61566148304635926 0 -0.78801074757464917 0.39400537378732459 0 0.30783074152317963 1 I I -0.70710678118654746 0.70710678118654746 0.5 forward I I I I #
loop $-1 $-1 $178 $51 #
coedge $-1 $112 $112 $179 $180 reversed $70 $-1 #
face $-1 $-1 $181 $40 $-1 $182 forward single #
loop $-1 $183 $184 $72 #
cone-surface $-1 -45.529129102557768 0.25265157807658767 3.0126548891123548 0.61566148304635926 0 -0.78801074757464917 0.39400537378732459 0 0.30783074152317963 1 I I -0.70710678118654746 0.70710678118654746 0.5 forward I I I I #
loop $-1 $-1 $185 $52 #
coedge $-1 $117 $117 $186 $187 reversed $73 $-1 #
face $-1 $188 $189 $41 $-1 $190 forward single #
loop $-1 $-1 $191 $75 #
plane-surface $-1 -109.39046030247941 10.238922286110107 80.783120613849334 0 -1 0 0.61566148304635926 0 -0.78801074757464917 forward_v I I I I #
coedge $-1 $192 $193 $194 $195 reversed $76 $-1 #
face $-1 $-1 $196 $42 $-1 $197 forward single #
loop $-1 $198 $199 $78 #
cone-surface $-1 -45.529129102557768 4.6909941149803736 3.0126548891123548 0.61566148304635926 0 -0.78801074757464917 0.39400537378732459 0 0.30783074152317963 1 I I -0.70710678118654746 0.70710678118654746 0.5 forward I I I I #
loop $-1 $-1 $200 $54 #
coedge $-1 $126 $126 $201 $202 reversed $79 $-1 #
face $-1 $-1 $203 $43 $-1 $204 forward single #
loop $-1 $205 $206 $81 #
cone-surface $-1 -45.529129102557768 8.0197510176582121 3.0126548891123548 0.61566148304635926 0 -0.78801074757464917 0.39400537378732459 0 0.30783074152317963 1 I I -0.70710678118654746 0.70710678118654746 0.5 forward I I I I #
loop $-1 $-1 $207 $55 #
coedge $-1 $131 $131 $208 $209 reversed $82 $-1 #
face $-1 $210 $211 $44 $-1 $212 reversed single #
loop $-1 $-1 $213 $84 #
plane-surface $-1 -2.933578642645017 -2.8100317980985317 83.661973981203062 0.84804810408105047 0 0.52991925155115449 0.52991925155115449 0 -0.84804810408105047 forward_v I I I I #
coedge $-1 $214 $215 $216 $217 reversed $85 $-1 #
face $-1 $-1 $218 $45 $-1 $219 forward single #
loop $-1 $220 $221 $87 #
cone-surface $-1 44.228252024433615 -2.8100317980985317 1.6962419017898434 -0.84804810408105047 0 -0.52991925155115449 0.39743943866336584 0 -0.63603607806078788 1 I I -0.70710678118654757 0.70710678118654757 0.75 forward I I I I #
loop $-1 $-1 $222 $57 #
coedge $-1 $140 $140 $223 $224 reversed $88 $-1 #
face $-1 $225 $226 $46 $-1 $227 reversed single #
loop $-1 $-1 $228 $90 #
plane-surface $-1 -2.933578642645017 -2.8100317980985317 83.661973981203062 0.84804810408105047 0 0.52991925155115449 0.52991925155115449 0 -0.84804810408105047 forward_v I I I I #
coedge $-1 $229 $230 $231 $232 reversed $91 $-1 #
face $-1 $-1 $233 $47 $-1 $234 forward single #
loop $-1 $235 $236 $93 #
cone-surface $-1 44.228252024433615 7.7536774911554893 1.6962419017898434 -0.84804810408105047 0 -0.52991925155115449 0.39743943866336584 0 -0.63603607806078788 1 I I -0.70710678118654757 0.70710678118654757 0.75 forward I I I I #
loop $-1 $-1 $237 $59 #
coedge $-1 $149 $149 $238 $239 reversed $94 $-1 #
face $-1 $240 $241 $36 $-1 $242 reversed single #
loop $-1 $-1 $243 $96 #
plane-surface $-1 0 -24.379008634324048 0 0 1 0 0 0 1 forward_v I I I I #
coedge $-1 $244 $245 $246 $247 forward $97 $-1 #
coedge $-1 $248 $99 $249 $250 forward $61 $-1 #
coedge $-1 $99 $248 $251 $252 forward $61 $-1 #
coedge $-1 $253 $254 $99 $157 reversed $255 $-1 #
edge $-1 $256 -24.379008634324048 $257 24.379008634324048 $156 $258 forward 7 unknown #
face $-1 $259 $260 $37 $-1 $261 reversed single #
loop $-1 $-1 $262 $100 #
plane-surface $-1 -49.024933622241889 0 0 1 0 0 0 0 -1 forward_v I I I I #
coedge $-1 $263 $264 $265 $266 reversed $101 $-1 #
coedge $-1 $267 $103 $268 $269 reversed $64 $-1 #
coedge $-1 $103 $267 $263 $270 forward $64 $-1 #
coedge $-1 $265 $271 $103 $165 forward $272 $-1 #
edge $-1 $273 -13.425415740426262 $274 -8.4817700473693112 $164 $275 forward 7 unknown #
face $-1 $276 $277 $38 $-1 $278 forward single #
loop $-1 $-1 $279 $104 #
plane-surface $-1 -109.39046030247941 2.4718228465284788 80.783120613849334 0 -1 0 0.61566148304635926 0 -0.78801074757464917 forward_v I I I I #
coedge $-1 $280 $281 $282 $283 reversed $105 $-1 #
coedge $-1 $171 $107 $284 $285 reversed $67 $-1 #
coedge $-1 $107 $170 $280 $286 reversed $67 $-1 #
coedge $-1 $282 $287 $107 $173 forward $277 $-1 #
edge $-1 $288 5.6702965289978167 $289 9.5207299222228983 $172 $290 forward 7 unknown #
loop $-1 $-1 $179 $108 #
plane-surface $-1 -49.024933622241889 -1.4117268732623351 3.5187714269285664 -0.61566148304635926 0 0.78801074757464917 0.78801074757464917 0 0.61566148304635926 forward_v I I I I #
loop $-1 $-1 $291 $69 #
coedge $-1 $177 $177 $178 $292 reversed $109 $-1 #
coedge $-1 $178 $178 $177 $292 forward $111 $-1 #
coedge $-1 $179 $179 $112 $180 forward $174 $-1 #
edge $-1 $293 0 $293 6.2831853071796004 $179 $294 forward 7 unknown #
loop $-1 $-1 $186 $113 #
plane-surface $-1 -49.024933622241889 -1.4117268732623351 3.5187714269285664 -0.61566148304635926 0 0.78801074757464917 0.78801074757464917 0 0.61566148304635926 forward_v I I I I #
loop $-1 $-1 $295 $72 #
coedge $-1 $184 $184 $185 $296 reversed $114 $-1 #
coedge $-1 $185 $185 $184 $296 forward $116 $-1 #
coedge $-1 $186 $186 $117 $187 forward $181 $-1 #
edge $-1 $297 0 $297 6.2831853071796004 $186 $298 forward 7 unknown #
face $-1 $299 $300 $41 $-1 $301 forward single #
loop $-1 $-1 $302 $118 #
plane-surface $-1 0 0 6.527059753630116 0 0 1 1 0 0 forward_v I I I I #
coedge $-1 $303 $304 $305 $306 reversed $119 $-1 #
coedge $-1 $307 $121 $308 $309 reversed $76 $-1 #
coedge $-1 $121 $307 $302 $310 reversed $76 $-1 #
coedge $-1 $311 $312 $121 $195 forward $300 $-1 #
edge $-1 $313 0 $314 4.8862701493298166 $194 $315 forward 7 unknown #
loop $-1 $-1 $201 $122 #
plane-surface $-1 -49.024933622241889 -1.4117268732623351 3.5187714269285664 -0.61566148304635926 0 0.78801074757464917 0.78801074757464917 0 0.61566148304635926 forward_v I I I I #
loop $-1 $-1 $316 $78 #
coedge $-1 $199 $199 $200 $317 reversed $123 $-1 #
coedge $-1 $200 $200 $199 $317 forward $125 $-1 #
coedge $-1 $201 $201 $126 $202 forward $196 $-1 #
edge $-1 $318 0 $318 6.2831853071796004 $201 $319 forward 7 unknown #
loop $-1 $-1 $208 $127 #
plane-surface $-1 -49.024933622241889 -1.4117268732623351 3.5187714269285664 -0.61566148304635926 0 0.78801074757464917 0.78801074757464917 0 0.61566148304635926 forward_v I I I I #
loop $-1 $-1 $320 $81 #
coedge $-1 $206 $206 $207 $321 reversed $128 $-1 #
coedge $-1 $207 $207 $206 $321 forward $130 $-1 #
coedge $-1 $208 $208 $131 $209 forward $203 $-1 #
edge $-1 $322 0 $322 6.2831853071796004 $208 $323 forward 7 unknown #
face $-1 $324 $325 $44 $-1 $326 reversed single #
loop $-1 $-1 $327 $132 #
plane-surface $-1 80.21742537943814 -8.0918864427255404 135.62048624608997 0 1 0 0.84804810408105047 0 0.52991925155115449 forward_v I I I I #
coedge $-1 $328 $329 $330 $331 reversed $133 $-1 #
coedge $-1 $215 $135 $332 $333 reversed $85 $-1 #
coedge $-1 $135 $214 $328 $334 reversed $85 $-1 #
coedge $-1 $330 $335 $135 $217 forward $336 $-1 #
edge $-1 $337 -8.916220932522819 $338 -5.1569509266945843 $216 $339 forward 7 unknown #
loop $-1 $-1 $223 $136 #
plane-surface $-1 -2.933578642645017 -2.8100317980985317 83.661973981203062 0.84804810408105047 0 0.52991925155115449 0.52991925155115449 0 -0.84804810408105047 forward_v I I I I #
loop $-1 $-1 $340 $87 #
coedge $-1 $221 $221 $222 $341 reversed $137 $-1 #
coedge $-1 $222 $222 $221 $341 forward $139 $-1 #
coedge $-1 $223 $223 $140 $224 forward $218 $-1 #
edge $-1 $342 0 $342 6.2831853071796004 $223 $343 forward 7 unknown #
face $-1 $344 $345 $46 $-1 $346 forward single #
loop $-1 $-1 $347 $141 #
plane-surface $-1 49.024933622241889 0 0 -1 0 0 0 0 1 forward_v I I I I #
coedge $-1 $348 $349 $350 $351 reversed $142 $-1 #
coedge $-1 $230 $144 $352 $353 reversed $91 $-1 #
coedge $-1 $144 $229 $354 $355 reversed $91 $-1 #
coedge $-1 $356 $347 $144 $232 forward $226 $-1 #
edge $-1 $357 -67.299273163925093 $358 -61.283183369414871 $231 $359 forward 7 unknown #
loop $-1 $-1 $238 $145 #
plane-surface $-1 -2.933578642645017 -2.8100317980985317 83.661973981203062 0.84804810408105047 0 0.52991925155115449 0.52991925155115449 0 -0.84804810408105047 forward_v I I I I #
loop $-1 $-1 $360 $93 #
coedge $-1 $236 $236 $237 $361 reversed $146 $-1 #
coedge $-1 $237 $237 $236 $361 forward $148 $-1 #
coedge $-1 $238 $238 $149 $239 forward $233 $-1 #
edge $-1 $362 0 $362 6.2831853071796004 $238 $363 forward 7 unknown #
face $-1 $364 $365 $36 $-1 $366 reversed single #
loop $-1 $-1 $367 $150 #
plane-surface $-1 -49.024933622241889 0 0 1 0 0 0 0 -1 forward_v I I I I #
coedge $-1 $368 $251 $369 $370 forward $151 $-1 #
coedge $-1 $371 $153 $368 $372 forward $97 $-1 #
coedge $-1 $153 $371 $373 $374 forward $97 $-1 #
coedge $-1 $254 $253 $153 $247 reversed $255 $-1 #
edge $-1 $375 -24.379008634324048 $376 24.379008634324048 $246 $377 forward 7 unknown #
coedge $-1 $155 $154 $378 $379 forward $61 $-1 #
coedge $-1 $380 $381 $154 $250 reversed $365 $-1 #
edge $-1 $257 -49.024933622241889 $382 49.024933622241889 $249 $383 forward 7 unknown #
coedge $-1 $243 $384 $155 $252 reversed $151 $-1 #
edge $-1 $385 -49.024933622241889 $256 49.024933622241889 $251 $386 forward 7 unknown #
coedge $-1 $246 $156 $384 $387 forward $255 $-1 #
coedge $-1 $156 $246 $380 $388 reversed $255 $-1 #
loop $-1 $-1 $253 $364 #
vertex $-1 $157 $389 #
vertex $-1 $157 $390 #
straight-curve $-1 49.024933622241889 0 6.527059753630116 0 1 0 I I #
face $-1 $391 $392 $37 $-1 $393 forward single #
loop $-1 $-1 $268 $158 #
plane-surface $-1 0 -24.379008634324048 0 0 1 0 0 0 1 forward_v I I I I #
coedge $-1 $394 $395 $396 $397 forward $159 $-1 #
coedge $-1 $396 $161 $163 $270 reversed $101 $-1 #
coedge $-1 $161 $396 $398 $399 reversed $101 $-1 #
coedge $-1 $400 $164 $161 $266 forward $272 $-1 #
edge $-1 $274 0.39077301772160755 $401 4.2211154965128754 $265 $402 forward 7 unknown #
coedge $-1 $163 $162 $394 $403 reversed $64 $-1 #
coedge $-1 $404 $405 $162 $269 forward $260 $-1 #
edge $-1 $406 -49.024933622241889 $273 49.024933622241889 $268 $407 forward 7 unknown #
edge $-1 $408 -49.024933622241889 $274 49.024933622241889 $263 $409 forward 7 unknown #
coedge $-1 $164 $400 $404 $410 forward $272 $-1 #
loop $-1 $-1 $265 $391 #
vertex $-1 $269 $411 #
vertex $-1 $165 $412 #
straight-curve $-1 49.024933622241889 -10.953592893897786 2.696717274838849 0 1 0 I I #
face $-1 $-1 $413 $38 $-1 $414 reversed single #
loop $-1 $-1 $172 $166 #
plane-surface $-1 0 0 6.527059753630116 0 0 1 1 0 0 forward_v I I I I #
coedge $-1 $415 $416 $417 $418 reversed $167 $-1 #
coedge $-1 $419 $169 $171 $286 forward $105 $-1 #
coedge $-1 $169 $419 $415 $420 forward $105 $-1 #
coedge $-1 $417 $172 $169 $283 forward $277 $-1 #
edge $-1 $289 -4.5894131564219816 $421 3.1776862831596464 $282 $422 forward 7 unknown #
coedge $-1 $423 $424 $170 $285 forward $413 $-1 #
edge $-1 $425 -36.872788879996101 $288 -33.864500553294548 $284 $426 forward 7 unknown #
edge $-1 $289 -4.8862701493298166 $425 0 $171 $427 forward 7 unknown #
coedge $-1 $172 $417 $423 $428 forward $277 $-1 #
vertex $-1 $285 $429 #
vertex $-1 $173 $430 #
straight-curve $-1 -54.695230151239706 -5.2952765930531491 6.5270597536301196 1 0 0 I I #
coedge $-1 $291 $291 $-1 $431 reversed $176 $-1 #
edge $-1 $432 0 $432 6.2831853071796004 $177 $433 forward 7 unknown #
vertex $-1 $180 $434 #
ellipse-curve $-1 -47.099716925629352 -3.0761053246012544 5.0229155902793385 -0.61566148304635926 0 0.78801074757464917 0.78801074757464917 0 0.61566148304635926 1 I I #
coedge $-1 $295 $295 $-1 $435 reversed $183 $-1 #
edge $-1 $436 0 $436 6.2831853071796004 $184 $437 forward 7 unknown #
vertex $-1 $187 $438 #
ellipse-curve $-1 -47.099716925629352 0.25265157807658767 5.0229155902793385 -0.61566148304635926 0 0.78801074757464917 0.78801074757464917 0 0.61566148304635926 1 I I #
face $-1 $-1 $439 $41 $-1 $440 reversed single #
loop $-1 $-1 $311 $188 #
plane-surface $-1 -109.39046030247941 2.4718228465284788 80.783120613849334 0 -1 0 0.61566148304635926 0 -0.78801074757464917 forward_v I I I I #
coedge $-1 $305 $441 $193 $310 forward $189 $-1 #
coedge $-1 $304 $191 $307 $442 reversed $119 $-1 #
coedge $-1 $191 $303 $443 $444 reversed $119 $-1 #
coedge $-1 $445 $302 $191 $306 forward $189 $-1 #
edge $-1 $446 -9.5207299222228983 $447 -5.6702965289978167 $305 $448 forward 7 unknown #
coedge $-1 $193 $192 $303 $442 forward $76 $-1 #
coedge $-1 $449 $443 $192 $309 forward $439 $-1 #
edge $-1 $450 -10.944785722741274 $313 -3.1776862831596464 $308 $451 forward 7 unknown #
edge $-1 $314 3.1776862831596464 $446 10.944785722741274 $302 $452 forward 7 unknown #
coedge $-1 $312 $194 $441 $453 reversed $300 $-1 #
coedge $-1 $194 $311 $449 $454 reversed $300 $-1 #
vertex $-1 $309 $455 #
vertex $-1 $310 $456 #
straight-curve $-1 -49.024933622241889 2.4718228465284788 3.5187714269285664 0.78801074757464917 0 0.61566148304635926 I I #
coedge $-1 $316 $316 $-1 $457 reversed $198 $-1 #
edge $-1 $458 0 $458 6.2831853071796004 $199 $459 forward 7 unknown #
vertex $-1 $202 $460 #
ellipse-curve $-1 -47.099716925629352 4.6909941149803736 5.0229155902793385 -0.61566148304635926 0 0.78801074757464917 0.78801074757464917 0 0.61566148304635926 1 I I #
coedge $-1 $320 $320 $-1 $461 reversed $205 $-1 #
edge $-1 $462 0 $462 6.2831853071796004 $206 $463 forward 7 unknown #
vertex $-1 $209 $464 #
ellipse-curve $-1 -47.099716925629352 8.0197510176582121 5.0229155902793385 -0.61566148304635926 0 0.78801074757464917 0.78801074757464917 0 0.61566148304635926 1 I I #
face $-1 $-1 $336 $44 $-1 $465 forward single #
loop $-1 $-1 $466 $210 #
plane-surface $-1 49.024933622241889 0 0 -1 0 0 0 0 1 forward_v I I I I #
coedge $-1 $467 $468 $469 $470 reversed $211 $-1 #
coedge $-1 $471 $213 $215 $334 forward $133 $-1 #
coedge $-1 $213 $471 $467 $472 forward $133 $-1 #
coedge $-1 $469 $216 $213 $331 forward $336 $-1 #
edge $-1 $338 -3.8768387455777429 $473 6.6868705436762745 $330 $474 forward 7 unknown #
coedge $-1 $475 $476 $214 $333 forward $325 $-1 #
edge $-1 $477 -67.299273163925093 $337 -61.283183369414871 $332 $478 forward 7 unknown #
edge $-1 $338 90.955824152400822 $477 98.049867244483792 $215 $479 forward 7 unknown #
coedge $-1 $216 $469 $475 $480 forward $336 $-1 #
loop $-1 $-1 $469 $324 #
vertex $-1 $333 $481 #
vertex $-1 $217 $482 #
straight-curve $-1 40.10871268971907 2.4718228465284771 6.5270597536301125 -1 0 0 I I #
coedge $-1 $340 $340 $-1 $483 reversed $220 $-1 #
edge $-1 $484 0 $484 6.2831853071796004 $221 $485 forward 7 unknown #
vertex $-1 $224 $486 #
ellipse-curve $-1 47.145298619327775 -2.8100317980985317 3.5190148563749992 0.84804810408105047 0 0.52991925155115449 0.79487887732673168 0 -1.2720721561215758 1 I I #
face $-1 $-1 $487 $46 $-1 $488 forward single #
loop $-1 $-1 $489 $225 #
plane-surface $-1 80.21742537943814 2.4718228465284771 135.62048624608997 0 -1 0 -0.84804810408105047 0 -0.52991925155115449 forward_v I I I I #
coedge $-1 $231 $490 $349 $491 forward $226 $-1 #
coedge $-1 $352 $228 $492 $493 reversed $142 $-1 #
coedge $-1 $228 $352 $347 $491 reversed $142 $-1 #
coedge $-1 $494 $489 $228 $351 forward $345 $-1 #
edge $-1 $495 90.955824152400822 $496 98.049867244483792 $350 $497 forward 7 unknown #
coedge $-1 $349 $348 $229 $353 forward $142 $-1 #
edge $-1 $498 90.955824152400822 $357 98.049867244483792 $229 $499 forward 7 unknown #
coedge $-1 $492 $500 $230 $355 forward $487 $-1 #
edge $-1 $358 -8.916220932522819 $498 -5.1569509266945843 $354 $501 forward 7 unknown #
coedge $-1 $490 $231 $500 $502 reversed $226 $-1 #
vertex $-1 $232 $503 #
vertex $-1 $232 $504 #
straight-curve $-1 49.024933622241889 13.035532135782498 67.810243123044984 0 0 1 I I #
coedge $-1 $360 $360 $-1 $505 reversed $235 $-1 #
edge $-1 $506 0 $506 6.2831853071796004 $236 $507 forward 7 unknown #
vertex $-1 $239 $508 #
ellipse-curve $-1 47.145298619327775 7.7536774911554893 3.5190148563749992 0.84804810408105047 0 0.52991925155115449 0.79487887732673168 0 -1.2720721561215758 1 I I #
face $-1 $-1 $255 $36 $-1 $509 reversed single #
loop $-1 $-1 $380 $240 #
plane-surface $-1 0 24.379008634324048 0 0 -1 0 0 0 -1 forward_v I I I I #
coedge $-1 $510 $378 $381 $511 forward $241 $-1 #
coedge $-1 $384 $243 $244 $372 reversed $151 $-1 #
coedge $-1 $378 $510 $243 $370 reversed $241 $-1 #
edge $-1 $385 -6.527059753630116 $512 6.527059753630116 $369 $513 forward 7 unknown #
coedge $-1 $245 $244 $510 $514 forward $97 $-1 #
edge $-1 $376 -49.024933622241889 $512 49.024933622241889 $368 $515 forward 7 unknown #
coedge $-1 $381 $380 $245 $374 reversed $365 $-1 #
edge $-1 $516 -49.024933622241889 $375 49.024933622241889 $373 $517 forward 7 unknown #
vertex $-1 $247 $518 #
vertex $-1 $387 $519 #
straight-curve $-1 49.024933622241889 0 -6.527059753630116 0 -1 0 I I #
coedge $-1 $367 $369 $248 $379 reversed $241 $-1 #
edge $-1 $382 -24.379008634324048 $385 24.379008634324048 $378 $520 forward 7 unknown #
coedge $-1 $373 $249 $254 $388 forward $365 $-1 #
coedge $-1 $249 $373 $367 $511 reversed $365 $-1 #
vertex $-1 $250 $521 #
straight-curve $-1 0 24.379008634324048 6.527059753630116 -1 0 0 I I #
coedge $-1 $251 $368 $253 $387 reversed $151 $-1 #
vertex $-1 $379 $522 #
straight-curve $-1 0 -24.379008634324048 6.527059753630116 1 0 0 I I #
edge $-1 $256 -6.527059753630116 $376 6.527059753630116 $253 $523 forward 7 unknown #
edge $-1 $257 -6.527059753630116 $375 6.527059753630116 $254 $524 forward 7 unknown #
point $-1 49.024933622241889 -24.379008634324048 6.527059753630116 #
point $-1 49.024933622241889 24.379008634324048 6.527059753630116 #
face $-1 $-1 $272 $37 $-1 $525 reversed single #
loop $-1 $-1 $398 $259 #
plane-surface $-1 0 0 6.527059753630116 0 0 1 1 0 0 forward_v I I I I #
coedge $-1 $526 $262 $267 $403 forward $159 $-1 #
coedge $-1 $262 $526 $527 $528 reversed $159 $-1 #
coedge $-1 $264 $263 $262 $397 reversed $101 $-1 #
edge $-1 $529 -4.2211154965128754 $408 -0.39077301772160755 $262 $530 forward 7 unknown #
coedge $-1 $527 $531 $264 $399 forward $392 $-1 #
edge $-1 $401 -49.024933622241889 $529 49.024933622241889 $398 $532 forward 7 unknown #
coedge $-1 $271 $265 $531 $533 reversed $272 $-1 #
vertex $-1 $266 $534 #
straight-curve $-1 49.024933622241889 -19.435362941267098 2.3059442571172415 0 0 1 I I #
edge $-1 $408 8.4817700473693112 $406 13.425415740426262 $394 $535 forward 7 unknown #
coedge $-1 $536 $268 $271 $410 reversed $260 $-1 #
coedge $-1 $268 $536 $526 $537 forward $260 $-1 #
vertex $-1 $269 $538 #
straight-curve $-1 0 -24.379008634324048 2.696717274838849 1 0 0 I I #
vertex $-1 $403 $539 #
straight-curve $-1 0 -19.435362941267098 2.696717274838849 1 0 0 I I #
edge $-1 $540 -6.527059753630116 $273 -2.696717274838849 $271 $541 forward 7 unknown #
point $-1 49.024933622241889 -24.379008634324048 2.696717274838849 #
point $-1 49.024933622241889 -19.435362941267098 2.696717274838849 #
loop $-1 $-1 $284 $276 #
plane-surface $-1 -49.024933622241889 0 0 1 0 0 0 0 -1 forward_v I I I I #
coedge $-1 $416 $279 $281 $420 reversed $167 $-1 #
coedge $-1 $279 $415 $542 $543 reversed $167 $-1 #
coedge $-1 $287 $282 $279 $418 forward $277 $-1 #
edge $-1 $421 -9.5207299222228983 $544 -5.6702965289978167 $417 $545 forward 7 unknown #
coedge $-1 $281 $280 $424 $546 reversed $105 $-1 #
edge $-1 $547 0 $421 4.8862701493298166 $415 $548 forward 7 unknown #
vertex $-1 $283 $549 #
straight-curve $-1 -45.1745002290168 -0.70586343663116757 6.5270597536301143 0 1 0 I I #
coedge $-1 $542 $284 $287 $428 reversed $413 $-1 #
coedge $-1 $284 $542 $419 $546 forward $413 $-1 #
vertex $-1 $285 $550 #
straight-curve $-1 -49.024933622241889 -5.2952765930531491 40.391560306924667 0 0 1 I I #
straight-curve $-1 -49.024933622241889 -5.2952765930531491 3.5187714269285664 -0.78801074757464917 0 -0.61566148304635926 I I #
edge $-1 $544 -2.4718228465284788 $288 5.2952765930531491 $423 $551 forward 7 unknown #
point $-1 -49.024933622241889 -5.2952765930531491 6.527059753630116 #
point $-1 -45.174500229016807 -5.2952765930531491 6.527059753630116 #
edge $-1 $552 1 $552 0 $291 $-1 forward 7 unknown #
vertex $-1 $292 $553 #
ellipse-curve $-1 -45.836959844080944 -3.0761053246012544 3.4066602628996794 -0.61566148304635926 0 0.78801074757464917 0.78801074757464917 0 0.61566148304635926 1 I I #
point $-1 -46.311706178054706 -3.0761053246012544 5.6385770733257026 #
edge $-1 $554 1 $554 0 $295 $-1 forward 7 unknown #
vertex $-1 $296 $555 #
ellipse-curve $-1 -45.836959844080944 0.25265157807658767 3.4066602628996794 -0.61566148304635926 0 0.78801074757464917 0.78801074757464917 0 0.61566148304635926 1 I I #
point $-1 -46.311706178054706 0.25265157807658767 5.6385770733257026 #
loop $-1 $-1 $308 $299 #
plane-surface $-1 -49.024933622241889 0 0 1 0 0 0 0 -1 forward_v I I I I #
coedge $-1 $302 $445 $311 $453 forward $189 $-1 #
edge $-1 $450 0 $446 4.8862701493298166 $303 $556 forward 7 unknown #
coedge $-1 $308 $557 $304 $444 forward $439 $-1 #
edge $-1 $447 33.864500553294548 $450 36.872788879996101 $443 $558 forward 7 unknown #
coedge $-1 $441 $305 $557 $559 forward $189 $-1 #
vertex $-1 $306 $560 #
vertex $-1 $559 $561 #
straight-curve $-1 -54.695230151239706 10.238922286110107 6.5270597536301196 -1 0 0 I I #
coedge $-1 $557 $308 $312 $454 forward $439 $-1 #
vertex $-1 $444 $562 #
straight-curve $-1 -49.024933622241889 -0.70586343663116757 3.5187714269285668 0 -1 0 I I #
straight-curve $-1 -45.1745002290168 -0.70586343663116757 6.5270597536301143 0 1 0 I I #
edge $-1 $563 5.6702965289978167 $314 9.5207299222228983 $441 $564 forward 7 unknown #
edge $-1 $313 -36.872788879996101 $563 -33.864500553294548 $449 $565 forward 7 unknown #
point $-1 -49.024933622241889 2.4718228465284788 3.5187714269285664 #
point $-1 -45.174500229016807 2.4718228465284788 6.527059753630116 #
edge $-1 $566 1 $566 0 $316 $-1 forward 7 unknown #
vertex $-1 $317 $567 #
ellipse-curve $-1 -45.836959844080944 4.6909941149803736 3.4066602628996794 -0.61566148304635926 0 0.78801074757464917 0.78801074757464917 0 0.61566148304635926 1 I I #
point $-1 -46.311706178054706 4.6909941149803736 5.6385770733257026 #
edge $-1 $568 1 $568 0 $320 $-1 forward 7 unknown #
vertex $-1 $321 $569 #
ellipse-curve $-1 -45.836959844080944 8.0197510176582121 3.4066602628996794 -0.61566148304635926 0 0.78801074757464917 0.78801074757464917 0 0.61566148304635926 1 I I #
point $-1 -46.311706178054706 8.0197510176582121 5.6385770733257026 #
plane-surface $-1 0 0 6.527059753630116 0 0 1 1 0 0 forward_v I I I I #
coedge $-1 $476 $475 $468 $570 forward $325 $-1 #
coedge $-1 $468 $327 $329 $472 reversed $211 $-1 #
coedge $-1 $327 $467 $466 $570 reversed $211 $-1 #
coedge $-1 $335 $330 $327 $470 forward $336 $-1 #
edge $-1 $473 5.1569509266945843 $571 8.916220932522819 $469 $572 forward 7 unknown #
coedge $-1 $329 $328 $476 $573 reversed $133 $-1 #
edge $-1 $574 -98.049867244483792 $473 -90.955824152400822 $467 $575 forward 7 unknown #
vertex $-1 $331 $576 #
straight-curve $-1 45.265663616413654 -1.4050158990492658 6.5270597536301125 0 -1 0 I I #
coedge $-1 $466 $332 $335 $480 reversed $325 $-1 #
coedge $-1 $332 $466 $471 $573 forward $325 $-1 #
vertex $-1 $333 $577 #
straight-curve $-1 49.024933622241889 2.4718228465284771 67.810243123044984 0 0 1 I I #
straight-curve $-1 -2.933578642645017 2.4718228465284771 83.661973981203062 0.52991925155115449 0 -0.84804810408105047 I I #
edge $-1 $571 -8.0918864427255404 $337 2.4718228465284771 $475 $578 forward 7 unknown #
point $-1 49.024933622241889 2.4718228465284771 6.527059753630116 #
point $-1 45.265663616413654 2.4718228465284771 6.5270597536301125 #
edge $-1 $579 1 $579 0 $340 $-1 forward 7 unknown #
vertex $-1 $341 $580 #
ellipse-curve $-1 44.864288102494406 -2.8100317980985317 2.0936813404532093 0.84804810408105047 0 0.52991925155115449 0.79487887732673168 0 -1.2720721561215758 1 I I #
point $-1 47.940177496654513 -2.8100317980985317 2.2469427002534283 #
loop $-1 $-1 $492 $344 #
plane-surface $-1 0 0 6.527059753630116 0 0 1 1 0 0 forward_v I I I I #
coedge $-1 $350 $494 $581 $582 reversed $345 $-1 #
coedge $-1 $347 $356 $494 $583 forward $226 $-1 #
edge $-1 $496 3.8768387455777429 $357 14.440548034831764 $347 $584 forward 7 unknown #
coedge $-1 $581 $354 $348 $493 forward $487 $-1 #
edge $-1 $498 -14.440548034831764 $495 -3.8768387455777429 $492 $585 forward 7 unknown #
coedge $-1 $489 $350 $490 $583 reversed $345 $-1 #
vertex $-1 $493 $586 #
vertex $-1 $491 $587 #
straight-curve $-1 -2.933578642645017 2.4718228465284771 83.661973981203062 0.52991925155115449 0 -0.84804810408105047 I I #
vertex $-1 $355 $588 #
straight-curve $-1 -2.933578642645017 13.035532135782498 83.661973981203062 0.52991925155115449 0 -0.84804810408105047 I I #
coedge $-1 $354 $581 $356 $502 forward $487 $-1 #
straight-curve $-1 40.10871268971907 13.035532135782498 6.5270597536301125 -1 0 0 I I #
edge $-1 $589 2.4718228465284771 $358 13.035532135782498 $356 $590 forward 7 unknown #
point $-1 49.024933622241896 13.035532135782498 0.5109699591198904 #
point $-1 49.024933622241889 13.035532135782498 6.527059753630116 #
edge $-1 $591 1 $591 0 $360 $-1 forward 7 unknown #
vertex $-1 $361 $592 #
ellipse-curve $-1 44.864288102494406 7.7536774911554893 2.0936813404532093 0.84804810408105047 0 0.52991925155115449 0.79487887732673168 0 -1.2720721561215758 1 I I #
point $-1 47.940177496654513 7.7536774911554893 2.2469427002534283 #
plane-surface $-1 49.024933622241889 0 0 -1 0 0 0 0 1 forward_v I I I I #
coedge $-1 $369 $367 $371 $514 reversed $241 $-1 #
edge $-1 $382 -6.527059753630116 $516 6.527059753630116 $381 $593 forward 7 unknown #
vertex $-1 $514 $594 #
straight-curve $-1 -49.024933622241889 -24.379008634324048 0 0 0 -1 I I #
edge $-1 $512 -24.379008634324048 $516 24.379008634324048 $510 $595 forward 7 unknown #
straight-curve $-1 0 -24.379008634324048 -6.527059753630116 -1 0 0 I I #
vertex $-1 $374 $596 #
straight-curve $-1 0 24.379008634324048 -6.527059753630116 1 0 0 I I #
point $-1 49.024933622241889 24.379008634324048 -6.527059753630116 #
point $-1 49.024933622241889 -24.379008634324048 -6.527059753630116 #
straight-curve $-1 -49.024933622241889 0 6.527059753630116 0 -1 0 I I #
point $-1 -49.024933622241889 24.379008634324048 6.527059753630116 #
point $-1 -49.024933622241889 -24.379008634324048 6.527059753630116 #
straight-curve $-1 49.024933622241889 -24.379008634324048 0 0 0 -1 I I #
straight-curve $-1 49.024933622241889 24.379008634324048 0 0 0 -1 I I #
plane-surface $-1 49.024933622241889 0 0 -1 0 0 0 0 1 forward_v I I I I #
coedge $-1 $395 $394 $405 $537 reversed $159 $-1 #
coedge $-1 $597 $398 $395 $528 forward $392 $-1 #
edge $-1 $529 19.435362941267098 $598 24.379008634324048 $395 $599 forward 7 unknown #
vertex $-1 $528 $600 #
straight-curve $-1 -49.024933622241889 -19.435362941267098 2.3059442571172415 0 0 -1 I I #
coedge $-1 $398 $597 $400 $533 forward $392 $-1 #
straight-curve $-1 0 -19.435362941267098 6.527059753630116 -1 0 0 I I #
edge $-1 $540 -24.379008634324048 $401 -19.435362941267098 $400 $601 forward 7 unknown #
point $-1 49.024933622241889 -19.435362941267098 6.5270597536301169 #
straight-curve $-1 -49.024933622241889 -10.953592893897786 2.696717274838849 0 -1 0 I I #
coedge $-1 $405 $404 $597 $602 reversed $260 $-1 #
edge $-1 $598 -6.527059753630116 $406 -2.696717274838849 $526 $603 forward 7 unknown #
point $-1 -49.024933622241889 -24.379008634324048 2.696717274838849 #
point $-1 -49.024933622241889 -19.435362941267098 2.696717274838849 #
vertex $-1 $533 $604 #
straight-curve $-1 49.024933622241889 -24.379008634324048 0 0 0 -1 I I #
coedge $-1 $424 $423 $416 $543 forward $413 $-1 #
edge $-1 $544 33.864500553294548 $547 36.872788879996101 $542 $605 forward 7 unknown #
vertex $-1 $428 $606 #
straight-curve $-1 -54.695230151239706 2.4718228465284788 6.5270597536301196 -1 0 0 I I #
edge $-1 $547 -3.1776862831596464 $425 4.5894131564219816 $424 $607 forward 7 unknown #
vertex $-1 $546 $608 #
straight-curve $-1 -49.024933622241889 2.4718228465284788 3.5187714269285664 0.78801074757464917 0 0.61566148304635926 I I #
point $-1 -45.174500229016807 2.4718228465284788 6.527059753630116 #
point $-1 -49.024933622241889 -5.2952765930531491 3.5187714269285664 #
straight-curve $-1 -49.024933622241889 0 6.527059753630116 0 -1 0 I I #
vertex $-1 $431 $609 #
point $-1 -45.048949096506298 -3.0761053246012544 4.022321745946039 #
vertex $-1 $435 $610 #
point $-1 -45.048949096506298 0.25265157807658767 4.022321745946039 #
straight-curve $-1 -49.024933622241889 10.238922286110107 3.5187714269285664 0.78801074757464917 0 0.61566148304635926 I I #
coedge $-1 $443 $449 $445 $559 reversed $439 $-1 #
straight-curve $-1 -49.024933622241889 10.238922286110107 40.391560306924667 0 0 -1 I I #
edge $-1 $447 -10.238922286110107 $563 -2.4718228465284788 $557 $611 forward 7 unknown #
point $-1 -45.174500229016807 10.238922286110107 6.527059753630116 #
point $-1 -49.024933622241889 10.238922286110107 6.527059753630116 #
point $-1 -49.024933622241889 10.238922286110107 3.5187714269285664 #
vertex $-1 $454 $612 #
straight-curve $-1 -54.695230151239706 2.4718228465284788 6.5270597536301196 1 0 0 I I #
straight-curve $-1 -49.024933622241889 2.4718228465284788 40.391560306924667 0 0 1 I I #
vertex $-1 $457 $613 #
point $-1 -45.048949096506298 4.6909941149803736 4.022321745946039 #
vertex $-1 $461 $614 #
point $-1 -45.048949096506298 8.0197510176582121 4.022321745946039 #
edge $-1 $571 61.283183369414871 $574 67.299273163925093 $466 $615 forward 7 unknown #
vertex $-1 $480 $616 #
straight-curve $-1 40.10871268971907 -8.0918864427255404 6.5270597536301125 1 0 0 I I #
edge $-1 $574 -6.6868705436762745 $477 3.8768387455777429 $476 $617 forward 7 unknown #
vertex $-1 $573 $618 #
straight-curve $-1 -2.933578642645017 -8.0918864427255404 83.661973981203062 -0.52991925155115449 0 0.84804810408105047 I I #
point $-1 45.265663616413654 -8.0918864427255404 6.5270597536301125 #
point $-1 49.024933622241896 2.4718228465284771 0.5109699591198904 #
straight-curve $-1 49.024933622241889 0 6.527059753630116 0 1 0 I I #
vertex $-1 $483 $619 #
point $-1 45.659166979821137 -2.8100317980985317 0.82160918433163344 #
coedge $-1 $500 $492 $489 $582 forward $487 $-1 #
edge $-1 $495 5.1569509266945843 $589 8.916220932522819 $581 $620 forward 7 unknown #
edge $-1 $589 61.283183369414871 $496 67.299273163925093 $490 $621 forward 7 unknown #
straight-curve $-1 49.024933622241889 -1.4050158990492658 0.5109699591198904 0 1 0 I I #
straight-curve $-1 45.265663616413654 -1.4050158990492658 6.5270597536301125 0 -1 0 I I #
point $-1 45.265663616413654 2.4718228465284771 6.5270597536301125 #
point $-1 49.024933622241896 2.4718228465284771 0.5109699591198904 #
point $-1 45.265663616413654 13.035532135782498 6.5270597536301125 #
vertex $-1 $502 $622 #
straight-curve $-1 49.024933622241889 0 6.527059753630116 0 1 0 I I #
vertex $-1 $505 $623 #
point $-1 45.659166979821137 7.7536774911554893 0.82160918433163344 #
straight-curve $-1 -49.024933622241889 24.379008634324048 0 0 0 -1 I I #
point $-1 -49.024933622241889 -24.379008634324048 -6.527059753630116 #
straight-curve $-1 -49.024933622241889 0 -6.527059753630116 0 1 0 I I #
point $-1 -49.024933622241889 24.379008634324048 -6.527059753630116 #
coedge $-1 $531 $527 $536 $602 forward $392 $-1 #
vertex $-1 $528 $624 #
straight-curve $-1 -49.024933622241889 0 6.527059753630116 0 -1 0 I I #
point $-1 -49.024933622241889 -19.435362941267098 6.5270597536301169 #
straight-curve $-1 49.024933622241889 0 6.527059753630116 0 1 0 I I #
edge $-1 $598 -49.024933622241889 $540 49.024933622241889 $536 $625 forward 7 unknown #
straight-curve $-1 -49.024933622241889 -24.379008634324048 0 0 0 -1 I I #
point $-1 49.024933622241889 -24.379008634324048 6.527059753630116 #
straight-curve $-1 -49.024933622241889 2.4718228465284788 40.391560306924667 0 0 -1 I I #
point $-1 -49.024933622241889 2.4718228465284788 6.527059753630116 #
straight-curve $-1 -49.024933622241889 -0.70586343663116757 3.5187714269285668 0 -1 0 I I #
point $-1 -49.024933622241889 2.4718228465284788 3.5187714269285664 #
point $-1 -45.221298361034592 -3.0761053246012544 2.6186495153250302 #
point $-1 -45.221298361034592 0.25265157807658767 2.6186495153250302 #
straight-curve $-1 -49.024933622241889 0 6.527059753630116 0 -1 0 I I #
point $-1 -49.024933622241889 2.4718228465284788 6.527059753630116 #
point $-1 -45.221298361034592 4.6909941149803736 2.6186495153250302 #
point $-1 -45.221298361034592 8.0197510176582121 2.6186495153250302 #
straight-curve $-1 49.024933622241889 -8.0918864427255404 67.810243123044984 0 0 -1 I I #
point $-1 49.024933622241889 -8.0918864427255404 6.527059753630116 #
straight-curve $-1 49.024933622241889 -1.4050158990492658 0.5109699591198904 0 1 0 I I #
point $-1 49.024933622241896 -8.0918864427255404 0.5109699591198904 #
point $-1 43.592215946372825 -2.8100317980985317 1.2988024631264774 #
straight-curve $-1 40.10871268971907 2.4718228465284771 6.5270597536301125 1 0 0 I I #
straight-curve $-1 49.024933622241889 2.4718228465284771 67.810243123044984 0 0 -1 I I #
point $-1 49.024933622241889 2.4718228465284771 6.527059753630116 #
point $-1 43.592215946372825 7.7536774911554893 1.2988024631264774 #
point $-1 -49.024933622241889 -24.379008634324048 6.527059753630116 #
straight-curve $-1 0 -24.379008634324048 6.527059753630116 1 0 0 I I #
End-of-ACIS-data 