500 0 8 0           
7 Unknown 11 ACIS 5.0 NT 24 Thu Mar 25 19:49:42 1999 
-1 9.9999999999999995e-007 1e-010 
body $-1 $8 $-1 $9 #
body $-1 $10 $-1 $11 #
body $-1 $12 $-1 $13 #
body $-1 $14 $-1 $15 #
body $-1 $16 $-1 $17 #
body $-1 $18 $-1 $19 #
body $-1 $20 $-1 $21 #
body $-1 $22 $-1 $23 #
lump $-1 $-1 $24 $0 #
transform $-1 1 0 0 0 1 0 0 0 1 68.739890743736083 39.281825622955523 18.259149689647305 1 rotate no_reflect no_shear #
lump $-1 $-1 $25 $1 #
transform $-1 1 0 0 0 1 0 0 0 1 68.739890743736083 39.281825622955523 18.259149689647305 1 rotate no_reflect no_shear #
lump $-1 $-1 $26 $2 #
transform $-1 1 0 0 0 1 0 0 0 1 68.739890743736083 39.281825622955523 18.259149689647305 1 rotate no_reflect no_shear #
lump $-1 $-1 $27 $3 #
transform $-1 1 0 0 0 1 0 0 0 1 68.739890743736083 39.281825622955523 18.259149689647305 1 rotate no_reflect no_shear #
lump $-1 $-1 $28 $4 #
transform $-1 1 0 0 0 1 0 0 0 1 68.739890743736083 39.281825622955523 18.259149689647305 1 rotate no_reflect no_shear #
lump $-1 $-1 $29 $5 #
transform $-1 1 0 0 0 1 0 0 0 1 68.739890743736083 39.281825622955523 18.259149689647305 1 rotate no_reflect no_shear #
lump $-1 $-1 $30 $6 #
transform $-1 1 0 0 0 1 0 0 0 1 68.739890743736083 39.281825622955523 18.259149689647305 1 rotate no_reflect no_shear #
lump $-1 $-1 $31 $7 #
transform $-1 1 0 0 0 1 0 0 0 1 68.739890743736083 39.281825622955523 18.259149689647305 1 rotate no_reflect no_shear #
shell $-1 $-1 $-1 $32 $-1 $8 #
shell $-1 $-1 $-1 $33 $-1 $10 #
shell $-1 $-1 $-1 $34 $-1 $12 #
shell $-1 $-1 $-1 $35 $-1 $14 #
shell $-1 $-1 $-1 $36 $-1 $16 #
shell $-1 $-1 $-1 $37 $-1 $18 #
shell $-1 $-1 $-1 $38 $-1 $20 #
shell $-1 $-1 $-1 $39 $-1 $22 #
face $-1 $40 $41 $24 $-1 $42 forward single #
face $-1 $43 $44 $25 $-1 $45 forward single #
face $-1 $46 $47 $26 $-1 $48 reversed single #
face $-1 $49 $50 $27 $-1 $51 forward single #
face $-1 $52 $53 $28 $-1 $54 forward single #
face $-1 $55 $56 $29 $-1 $57 reversed single #
face $-1 $58 $59 $30 $-1 $60 forward single #
face $-1 $61 $62 $31 $-1 $63 forward single #
face $-1 $64 $65 $24 $-1 $66 reversed single #
loop $-1 $-1 $67 $32 #
plane-surface $-1 0 0 18.259149689647305 0 0 1 1 0 0 forward_v I I I I #
face $-1 $68 $69 $25 $-1 $70 reversed single #
loop $-1 $-1 $71 $33 #
plane-surface $-1 -68.739890743736083 0 0 1 0 0 0 0 -1 forward_v I I I I #
face $-1 $72 $73 $26 $-1 $74 reversed single #
loop $-1 $-1 $75 $34 #
plane-surface $-1 -45.800732696549275 80.941822610506037 154.82271312316385 1 0 0 0 -0.70710678939079041 -0.70710677298230451 forward_v I I I I #
face $-1 $76 $77 $27 $-1 $78 forward single #
loop $-1 $79 $80 $35 #
cone-surface $-1 -37.848471676207282 30.344592321889852 9.321916219997064 0 -0.70710678939079041 -0.70710677298230451 1.5 0 0 1 I I 0 1 1.5 forward I I I I #
face $-1 $81 $82 $28 $-1 $83 forward single #
loop $-1 $84 $85 $36 #
cone-surface $-1 -25.920080145694278 30.344592321889852 9.321916219997064 0 -0.70710678939079041 -0.70710677298230451 1.5 0 0 1 I I 0 1 1.5 forward I I I I #
face $-1 $86 $87 $29 $-1 $88 reversed single #
loop $-1 $-1 $89 $37 #
plane-surface $-1 40.906977172539101 80.941822610506037 154.82271312316385 1 0 0 0 -0.70710678939079041 -0.70710677298230451 forward_v I I I I #
face $-1 $90 $91 $30 $-1 $92 forward single #
loop $-1 $93 $94 $38 #
cone-surface $-1 48.859238192881094 30.344592321889852 9.321916219997064 0 -0.70710678939079041 -0.70710677298230451 1.5 0 0 1 I I 0 1 1.5 forward I I I I #
face $-1 $95 $96 $31 $-1 $97 forward single #
loop $-1 $98 $99 $39 #
cone-surface $-1 60.787629723394105 30.344592321889852 9.321916219997064 0 -0.70710678939079041 -0.70710677298230451 1.5 0 0 1 I I 0 1 1.5 forward I I I I #
face $-1 $100 $101 $24 $-1 $102 reversed single #
loop $-1 $-1 $103 $40 #
plane-surface $-1 0 0 -18.259149689647305 0 0 1 1 0 0 forward_v I I I I #
coedge $-1 $104 $105 $106 $107 forward $41 $-1 #
face $-1 $108 $109 $25 $-1 $110 forward single #
loop $-1 $-1 $111 $43 #
plane-surface $-1 0 39.281825622955523 0 0 -1 0 0 0 -1 forward_v I I I I #
coedge $-1 $112 $113 $114 $115 forward $44 $-1 #
face $-1 $116 $117 $26 $-1 $118 reversed single #
loop $-1 $-1 $119 $46 #
plane-surface $-1 -31.884275910950777 -16.271064283247824 57.609828485245046 0 0.70710678939079041 0.70710677298230451 1 0 0 forward_v I I I I #
coedge $-1 $120 $121 $122 $123 reversed $47 $-1 #
face $-1 $-1 $124 $27 $-1 $125 forward single #
loop $-1 $126 $127 $49 #
cone-surface $-1 -37.848471676207282 28.978134940652197 7.9554588704681954 0 -0.70710678939079041 -0.70710677298230451 0.75 0 0 1 I I -0.70710678118654757 0.70710678118654757 0.75 forward I I I I #
loop $-1 $-1 $128 $35 #
coedge $-1 $80 $80 $129 $130 reversed $50 $-1 #
face $-1 $-1 $131 $28 $-1 $132 forward single #
loop $-1 $133 $134 $52 #
cone-surface $-1 -25.920080145694278 28.978134940652197 7.9554588704681954 0 -0.70710678939079041 -0.70710677298230451 0.75 0 0 1 I I -0.70710678118654757 0.70710678118654757 0.75 forward I I I I #
loop $-1 $-1 $135 $36 #
coedge $-1 $85 $85 $136 $137 reversed $53 $-1 #
face $-1 $138 $139 $29 $-1 $140 forward single #
loop $-1 $-1 $141 $55 #
plane-surface $-1 54.823433958137599 -16.271064283247824 57.609828485245046 0 0.70710678939079041 0.70710677298230451 1 0 0 forward_v I I I I #
coedge $-1 $142 $143 $144 $145 reversed $56 $-1 #
face $-1 $-1 $146 $30 $-1 $147 forward single #
loop $-1 $148 $149 $58 #
cone-surface $-1 48.859238192881094 28.978134940652197 7.9554588704681954 0 -0.70710678939079041 -0.70710677298230451 0.75 0 0 1 I I -0.70710678118654757 0.70710678118654757 0.75 forward I I I I #
loop $-1 $-1 $150 $38 #
coedge $-1 $94 $94 $151 $152 reversed $59 $-1 #
face $-1 $-1 $153 $31 $-1 $154 forward single #
loop $-1 $155 $156 $61 #
cone-surface $-1 60.787629723394105 28.978134940652197 7.9554588704681954 0 -0.70710678939079041 -0.70710677298230451 0.75 0 0 1 I I -0.70710678118654757 0.70710678118654757 0.75 forward I I I I #
loop $-1 $-1 $157 $39 #
coedge $-1 $99 $99 $158 $159 reversed $62 $-1 #
face $-1 $160 $161 $24 $-1 $162 reversed single #
loop $-1 $-1 $163 $64 #
plane-surface $-1 0 -39.281825622955523 0 0 1 0 0 0 1 forward_v I I I I #
coedge $-1 $164 $165 $166 $167 forward $65 $-1 #
coedge $-1 $168 $67 $169 $170 forward $41 $-1 #
coedge $-1 $67 $168 $171 $172 forward $41 $-1 #
coedge $-1 $173 $174 $67 $107 reversed $175 $-1 #
edge $-1 $176 -39.281825622955523 $177 39.281825622955523 $106 $178 forward 7 unknown #
face $-1 $179 $180 $25 $-1 $181 reversed single #
loop $-1 $-1 $114 $68 #
plane-surface $-1 -80.20946976732948 0 -10.578014060751268 0 0 1 1 0 0 forward_v I I I I #
coedge $-1 $182 $183 $113 $184 forward $69 $-1 #
coedge $-1 $185 $71 $186 $187 reversed $44 $-1 #
coedge $-1 $71 $185 $111 $184 reversed $44 $-1 #
coedge $-1 $188 $189 $71 $115 reversed $109 $-1 #
edge $-1 $190 -39.281825622955523 $191 39.281825622955523 $114 $192 forward 7 unknown #
face $-1 $193 $194 $26 $-1 $195 forward single #
loop $-1 $-1 $196 $72 #
plane-surface $-1 -17.967819125352275 80.941822610506037 154.82271312316385 -1 0 0 0 0.70710678939079041 0.70710677298230451 forward_v I I I I #
coedge $-1 $197 $198 $199 $200 reversed $73 $-1 #
coedge $-1 $121 $75 $201 $202 reversed $47 $-1 #
coedge $-1 $75 $120 $197 $203 reversed $47 $-1 #
coedge $-1 $199 $204 $75 $123 forward $194 $-1 #
edge $-1 $205 1.1890856822974953 $206 17.391297706039651 $122 $207 forward 7 unknown #
loop $-1 $-1 $129 $76 #
plane-surface $-1 -31.884275910950777 -16.271064283247824 57.609828485245046 0 0.70710678939079041 0.70710677298230451 1 0 0 forward_v I I I I #
loop $-1 $-1 $208 $49 #
coedge $-1 $127 $127 $128 $209 reversed $77 $-1 #
coedge $-1 $128 $128 $127 $209 forward $79 $-1 #
coedge $-1 $129 $129 $80 $130 forward $124 $-1 #
edge $-1 $210 -1.6747649977894308e-015 $210 6.2831853071795987 $129 $211 forward 7 unknown #
loop $-1 $-1 $136 $81 #
plane-surface $-1 -31.884275910950777 -16.271064283247824 57.609828485245046 0 0.70710678939079041 0.70710677298230451 1 0 0 forward_v I I I I #
loop $-1 $-1 $212 $52 #
coedge $-1 $134 $134 $135 $213 reversed $82 $-1 #
coedge $-1 $135 $135 $134 $213 forward $84 $-1 #
coedge $-1 $136 $136 $85 $137 forward $131 $-1 #
edge $-1 $214 -1.6747649977894308e-015 $214 6.2831853071795987 $136 $215 forward 7 unknown #
face $-1 $216 $217 $29 $-1 $218 reversed single #
loop $-1 $-1 $144 $86 #
plane-surface $-1 0 0 18.259149689647305 0 0 1 1 0 0 forward_v I I I I #
coedge $-1 $219 $220 $221 $222 reversed $87 $-1 #
coedge $-1 $143 $89 $223 $224 reversed $56 $-1 #
coedge $-1 $89 $142 $219 $225 reversed $56 $-1 #
coedge $-1 $221 $226 $89 $145 forward $139 $-1 #
edge $-1 $227 1.1890856822974953 $228 17.391297706039651 $144 $229 forward 7 unknown #
loop $-1 $-1 $151 $90 #
plane-surface $-1 54.823433958137599 -16.271064283247824 57.609828485245046 0 0.70710678939079041 0.70710677298230451 1 0 0 forward_v I I I I #
loop $-1 $-1 $230 $58 #
coedge $-1 $149 $149 $150 $231 reversed $91 $-1 #
coedge $-1 $150 $150 $149 $231 forward $93 $-1 #
coedge $-1 $151 $151 $94 $152 forward $146 $-1 #
edge $-1 $232 -1.6747649977894308e-015 $232 6.2831853071795987 $151 $233 forward 7 unknown #
loop $-1 $-1 $158 $95 #
plane-surface $-1 54.823433958137599 -16.271064283247824 57.609828485245046 0 0.70710678939079041 0.70710677298230451 1 0 0 forward_v I I I I #
loop $-1 $-1 $234 $61 #
coedge $-1 $156 $156 $157 $235 reversed $96 $-1 #
coedge $-1 $157 $157 $156 $235 forward $98 $-1 #
coedge $-1 $158 $158 $99 $159 forward $153 $-1 #
edge $-1 $236 -1.6747649977894308e-015 $236 6.2831853071795987 $158 $237 forward 7 unknown #
face $-1 $238 $239 $24 $-1 $240 reversed single #
loop $-1 $-1 $241 $100 #
plane-surface $-1 -68.739890743736083 0 0 1 0 0 0 0 -1 forward_v I I I I #
coedge $-1 $242 $171 $241 $243 forward $101 $-1 #
coedge $-1 $244 $103 $242 $245 forward $65 $-1 #
coedge $-1 $103 $244 $246 $247 forward $65 $-1 #
coedge $-1 $174 $173 $103 $167 reversed $175 $-1 #
edge $-1 $248 -39.281825622955523 $249 39.281825622955523 $166 $250 forward 7 unknown #
coedge $-1 $105 $104 $251 $252 forward $41 $-1 #
coedge $-1 $253 $254 $104 $170 reversed $239 $-1 #
edge $-1 $177 -68.739890743736083 $255 68.739890743736083 $169 $256 forward 7 unknown #
coedge $-1 $163 $257 $105 $172 reversed $101 $-1 #
edge $-1 $258 -68.739890743736083 $176 68.739890743736083 $171 $259 forward 7 unknown #
coedge $-1 $166 $106 $257 $260 forward $175 $-1 #
coedge $-1 $106 $166 $253 $261 reversed $175 $-1 #
loop $-1 $-1 $173 $238 #
vertex $-1 $107 $262 #
vertex $-1 $107 $263 #
straight-curve $-1 68.739890743736083 0 18.259149689647305 0 1 0 I I #
face $-1 $264 $265 $25 $-1 $266 reversed single #
loop $-1 $-1 $267 $108 #
plane-surface $-1 -91.679048790922877 0 -14.418581875199287 1 0 0 0 0 -1 forward_v I I I I #
coedge $-1 $268 $111 $269 $270 reversed $69 $-1 #
coedge $-1 $111 $268 $188 $271 reversed $69 $-1 #
edge $-1 $190 10.578014060751268 $272 18.259149689647305 $111 $273 forward 7 unknown #
coedge $-1 $113 $112 $274 $275 reversed $44 $-1 #
coedge $-1 $276 $277 $112 $187 forward $278 $-1 #
edge $-1 $279 -18.259149689647305 $191 -10.578014060751268 $186 $280 forward 7 unknown #
coedge $-1 $281 $114 $183 $271 forward $109 $-1 #
coedge $-1 $114 $281 $276 $282 forward $109 $-1 #
vertex $-1 $184 $283 #
vertex $-1 $282 $284 #
straight-curve $-1 -68.739890743736083 0 -10.578014060751268 0 -1 0 I I #
face $-1 $-1 $285 $26 $-1 $286 reversed single #
loop $-1 $-1 $122 $116 #
plane-surface $-1 0 0 18.259149689647305 0 0 1 1 0 0 forward_v I I I I #
coedge $-1 $287 $288 $289 $290 reversed $117 $-1 #
coedge $-1 $291 $119 $121 $203 forward $73 $-1 #
coedge $-1 $119 $291 $287 $292 forward $73 $-1 #
coedge $-1 $289 $122 $119 $200 forward $194 $-1 #
edge $-1 $206 -29.858594741073887 $293 -2.0256811698768864 $199 $294 forward 7 unknown #
coedge $-1 $295 $296 $120 $202 forward $285 $-1 #
edge $-1 $297 -75.354419271650784 $205 -59.152206871934624 $201 $298 forward 7 unknown #
edge $-1 $206 55.650262995636673 $297 78.563651245911032 $121 $299 forward 7 unknown #
coedge $-1 $122 $289 $295 $300 forward $194 $-1 #
vertex $-1 $202 $301 #
vertex $-1 $123 $302 #
straight-curve $-1 -45.800732696549275 40.470911305253018 18.259149689647302 0 -1 0 I I #
coedge $-1 $208 $208 $-1 $303 reversed $126 $-1 #
edge $-1 $304 0 $304 6.2831853071796004 $127 $305 forward 7 unknown #
vertex $-1 $130 $306 #
ellipse-curve $-1 -37.848471676207282 31.180719611084442 10.158043489789232 0 0.70710678939079041 0.70710677298230451 1.5 0 0 1 I I #
coedge $-1 $212 $212 $-1 $307 reversed $133 $-1 #
edge $-1 $308 0 $308 6.2831853071796004 $134 $309 forward 7 unknown #
vertex $-1 $137 $310 #
ellipse-curve $-1 -25.920080145694278 31.180719611084442 10.158043489789232 0 0.70710678939079041 0.70710677298230451 1.5 0 0 1 I I #
face $-1 $-1 $311 $29 $-1 $312 reversed single #
loop $-1 $-1 $313 $138 #
plane-surface $-1 68.739890743736083 0 0 -1 0 0 0 0 1 forward_v I I I I #
coedge $-1 $314 $141 $143 $225 forward $87 $-1 #
coedge $-1 $141 $314 $313 $315 reversed $87 $-1 #
coedge $-1 $316 $144 $141 $222 forward $139 $-1 #
edge $-1 $228 13.495260193470301 $317 41.328173764667298 $221 $318 forward 7 unknown #
coedge $-1 $319 $320 $142 $224 forward $311 $-1 #
edge $-1 $321 -75.354419271650784 $227 -59.152206871934624 $223 $322 forward 7 unknown #
edge $-1 $228 55.650262995636673 $321 78.563651245911032 $143 $323 forward 7 unknown #
coedge $-1 $144 $316 $319 $324 forward $139 $-1 #
vertex $-1 $224 $325 #
vertex $-1 $145 $326 #
straight-curve $-1 40.906977172539101 40.470911305253018 18.259149689647302 0 -1 0 I I #
coedge $-1 $230 $230 $-1 $327 reversed $148 $-1 #
edge $-1 $328 0 $328 6.2831853071796004 $149 $329 forward 7 unknown #
vertex $-1 $152 $330 #
ellipse-curve $-1 48.859238192881094 31.180719611084442 10.158043489789232 0 0.70710678939079041 0.70710677298230451 1.5 0 0 1 I I #
coedge $-1 $234 $234 $-1 $331 reversed $155 $-1 #
edge $-1 $332 0 $332 6.2831853071796004 $156 $333 forward 7 unknown #
vertex $-1 $159 $334 #
ellipse-curve $-1 60.787629723394105 31.180719611084442 10.158043489789232 0 0.70710678939079041 0.70710677298230451 1.5 0 0 1 I I #
face $-1 $-1 $175 $24 $-1 $335 reversed single #
loop $-1 $-1 $253 $160 #
plane-surface $-1 0 39.281825622955523 0 0 -1 0 0 0 -1 forward_v I I I I #
coedge $-1 $251 $336 $163 $243 reversed $161 $-1 #
coedge $-1 $257 $163 $164 $245 reversed $101 $-1 #
edge $-1 $258 -18.259149689647305 $337 18.259149689647305 $241 $338 forward 7 unknown #
coedge $-1 $165 $164 $336 $339 forward $65 $-1 #
edge $-1 $249 -68.739890743736083 $337 68.739890743736083 $242 $340 forward 7 unknown #
coedge $-1 $254 $253 $165 $247 reversed $239 $-1 #
edge $-1 $341 -68.739890743736083 $248 68.739890743736083 $246 $342 forward 7 unknown #
vertex $-1 $167 $343 #
vertex $-1 $260 $344 #
straight-curve $-1 68.739890743736083 0 -18.259149689647305 0 -1 0 I I #
coedge $-1 $345 $241 $168 $252 reversed $161 $-1 #
edge $-1 $255 -39.281825622955523 $258 39.281825622955523 $251 $346 forward 7 unknown #
coedge $-1 $246 $169 $174 $261 forward $239 $-1 #
coedge $-1 $169 $246 $345 $347 reversed $239 $-1 #
vertex $-1 $170 $348 #
straight-curve $-1 0 39.281825622955523 18.259149689647305 -1 0 0 I I #
coedge $-1 $171 $242 $173 $260 reversed $101 $-1 #
vertex $-1 $252 $349 #
straight-curve $-1 0 -39.281825622955523 18.259149689647305 1 0 0 I I #
edge $-1 $176 -18.259149689647305 $249 18.259149689647305 $173 $350 forward 7 unknown #
edge $-1 $177 -18.259149689647305 $248 18.259149689647305 $174 $351 forward 7 unknown #
point $-1 68.739890743736083 -39.281825622955523 18.259149689647305 #
point $-1 68.739890743736083 39.281825622955523 18.259149689647305 #
face $-1 $-1 $278 $25 $-1 $352 reversed single #
loop $-1 $-1 $274 $179 #
plane-surface $-1 0 0 -18.259149689647305 0 0 1 1 0 0 forward_v I I I I #
coedge $-1 $353 $354 $268 $355 forward $180 $-1 #
coedge $-1 $183 $182 $267 $355 reversed $69 $-1 #
coedge $-1 $274 $356 $182 $270 forward $265 $-1 #
edge $-1 $357 -91.679048790922877 $272 -68.739890743736083 $182 $358 forward 7 unknown #
edge $-1 $190 -11.469579023593397 $359 11.469579023593397 $183 $360 forward 7 unknown #
vertex $-1 $184 $361 #
straight-curve $-1 -68.739890743736083 39.281825622955523 0 0 0 -1 I I #
coedge $-1 $362 $269 $185 $275 forward $265 $-1 #
edge $-1 $272 -39.281825622955523 $279 39.281825622955523 $274 $363 forward 7 unknown #
coedge $-1 $364 $186 $189 $282 reversed $278 $-1 #
coedge $-1 $186 $364 $362 $365 reversed $278 $-1 #
loop $-1 $-1 $186 $264 #
vertex $-1 $365 $366 #
straight-curve $-1 -68.739890743736083 -39.281825622955523 0 0 0 1 I I #
coedge $-1 $189 $188 $354 $367 forward $109 $-1 #
edge $-1 $368 -11.469579023593397 $191 11.469579023593397 $276 $369 forward 7 unknown #
point $-1 -68.739890743736083 39.281825622955523 -10.578014060751268 #
point $-1 -68.739890743736083 -39.281825622955523 -10.578014060751268 #
loop $-1 $-1 $201 $193 #
plane-surface $-1 0 39.281825622955523 0 0 -1 0 0 0 -1 forward_v I I I I #
coedge $-1 $288 $196 $198 $292 reversed $117 $-1 #
coedge $-1 $196 $287 $370 $371 reversed $117 $-1 #
coedge $-1 $204 $199 $196 $290 forward $194 $-1 #
edge $-1 $293 -17.391297706039651 $372 -1.1890856822974953 $289 $373 forward 7 unknown #
coedge $-1 $198 $197 $296 $374 reversed $73 $-1 #
edge $-1 $375 -78.563651245911032 $293 -55.650262995636673 $287 $376 forward 7 unknown #
vertex $-1 $200 $377 #
straight-curve $-1 -15.942137955475388 23.079613599213364 18.259149689647298 1 0 0 I I #
coedge $-1 $370 $201 $204 $300 reversed $285 $-1 #
coedge $-1 $201 $370 $291 $374 forward $285 $-1 #
vertex $-1 $202 $378 #
straight-curve $-1 -45.800732696549275 39.281825622955523 77.411356561581925 0 0 1 I I #
straight-curve $-1 -45.800732696549275 -16.271064283247824 57.609828485245046 0 0.70710677298230451 -0.70710678939079041 I I #
edge $-1 $372 17.967819125352275 $205 45.800732696549275 $295 $379 forward 7 unknown #
point $-1 -45.800732696549275 39.281825622955523 18.259149689647305 #
point $-1 -45.800732696549275 23.079613599213367 18.259149689647302 #
edge $-1 $380 1 $380 0 $208 $-1 forward 7 unknown #
vertex $-1 $209 $381 #
ellipse-curve $-1 -37.848471676207282 29.508465032695291 8.485788950204924 0 0.70710678939079041 0.70710677298230451 1.5 0 0 1 I I #
point $-1 -36.348471676207282 31.180719611084413 10.158043489789208 #
edge $-1 $382 1 $382 0 $212 $-1 forward 7 unknown #
vertex $-1 $213 $383 #
ellipse-curve $-1 -25.920080145694278 29.508465032695291 8.485788950204924 0 0.70710678939079041 0.70710677298230451 1.5 0 0 1 I I #
point $-1 -24.420080145694278 31.180719611084413 10.158043489789208 #
loop $-1 $-1 $223 $216 #
plane-surface $-1 0 39.281825622955523 0 0 -1 0 0 0 -1 forward_v I I I I #
coedge $-1 $384 $385 $220 $315 forward $217 $-1 #
coedge $-1 $220 $219 $320 $386 reversed $87 $-1 #
edge $-1 $317 29.529422687701292 $387 52.442810937975665 $313 $388 forward 7 unknown #
coedge $-1 $226 $221 $385 $389 forward $139 $-1 #
vertex $-1 $389 $390 #
straight-curve $-1 27.4117169790688 23.079613599213364 18.259149689647298 1 0 0 I I #
coedge $-1 $391 $223 $226 $324 reversed $311 $-1 #
coedge $-1 $223 $391 $314 $386 forward $311 $-1 #
vertex $-1 $224 $392 #
straight-curve $-1 40.906977172539101 39.281825622955523 77.411356561581925 0 0 1 I I #
straight-curve $-1 40.906977172539101 -16.271064283247824 57.609828485245046 0 0.70710677298230451 -0.70710678939079041 I I #
edge $-1 $393 -68.739890743736083 $227 -40.906977172539101 $319 $394 forward 7 unknown #
point $-1 40.906977172539101 39.281825622955523 18.259149689647305 #
point $-1 40.906977172539101 23.079613599213367 18.259149689647302 #
edge $-1 $395 1 $395 0 $230 $-1 forward 7 unknown #
vertex $-1 $231 $396 #
ellipse-curve $-1 48.859238192881094 29.508465032695291 8.485788950204924 0 0.70710678939079041 0.70710677298230451 1.5 0 0 1 I I #
point $-1 50.359238192881094 31.180719611084413 10.158043489789208 #
edge $-1 $397 1 $397 0 $234 $-1 forward 7 unknown #
vertex $-1 $235 $398 #
ellipse-curve $-1 60.787629723394105 29.508465032695291 8.485788950204924 0 0.70710678939079041 0.70710677298230451 1.5 0 0 1 I I #
point $-1 62.287629723394105 31.180719611084413 10.158043489789208 #
plane-surface $-1 68.739890743736083 0 0 -1 0 0 0 0 1 forward_v I I I I #
coedge $-1 $241 $345 $244 $339 reversed $161 $-1 #
vertex $-1 $339 $399 #
straight-curve $-1 -68.739890743736083 -39.281825622955523 0 0 0 -1 I I #
edge $-1 $337 -39.281825622955523 $341 39.281825622955523 $336 $400 forward 7 unknown #
straight-curve $-1 0 -39.281825622955523 -18.259149689647305 -1 0 0 I I #
vertex $-1 $247 $401 #
straight-curve $-1 0 39.281825622955523 -18.259149689647305 1 0 0 I I #
point $-1 68.739890743736083 39.281825622955523 -18.259149689647305 #
point $-1 68.739890743736083 -39.281825622955523 -18.259149689647305 #
coedge $-1 $336 $251 $254 $347 forward $161 $-1 #
straight-curve $-1 -68.739890743736083 0 18.259149689647305 0 -1 0 I I #
edge $-1 $255 -18.259149689647305 $341 18.259149689647305 $254 $402 forward 7 unknown #
point $-1 -68.739890743736083 39.281825622955523 18.259149689647305 #
point $-1 -68.739890743736083 -39.281825622955523 18.259149689647305 #
straight-curve $-1 68.739890743736083 -39.281825622955523 0 0 0 -1 I I #
straight-curve $-1 68.739890743736083 39.281825622955523 0 0 0 -1 I I #
plane-surface $-1 0 -39.281825622955523 0 0 1 0 0 0 1 forward_v I I I I #
coedge $-1 $403 $267 $356 $404 reversed $180 $-1 #
coedge $-1 $267 $403 $281 $367 reversed $180 $-1 #
edge $-1 $359 -3.8405678144480184 $357 3.8405678144480184 $268 $405 forward 7 unknown #
coedge $-1 $269 $362 $353 $404 forward $265 $-1 #
vertex $-1 $270 $406 #
straight-curve $-1 0 39.281825622955523 -18.259149689647305 1 0 0 I I #
vertex $-1 $271 $407 #
straight-curve $-1 -80.20946976732948 39.281825622955523 -10.578014060751268 -1 0 0 I I #
point $-1 -68.739890743736083 39.281825622955523 -18.259149689647305 #
coedge $-1 $356 $274 $277 $365 forward $265 $-1 #
straight-curve $-1 -68.739890743736083 0 -18.259149689647305 0 -1 0 I I #
coedge $-1 $277 $276 $403 $408 forward $278 $-1 #
edge $-1 $279 -11.469579023593397 $409 11.469579023593397 $277 $410 forward 7 unknown #
point $-1 -68.739890743736083 -39.281825622955523 -18.259149689647305 #
edge $-1 $359 -39.281825622955523 $368 39.281825622955523 $354 $411 forward 7 unknown #
vertex $-1 $367 $412 #
straight-curve $-1 -80.20946976732948 -39.281825622955523 -10.578014060751268 1 0 0 I I #
coedge $-1 $296 $295 $288 $371 forward $285 $-1 #
edge $-1 $372 59.152206871934624 $375 75.354419271650784 $370 $413 forward 7 unknown #
vertex $-1 $300 $414 #
straight-curve $-1 -17.967819125352275 40.470911305253018 18.259149689647302 0 1 0 I I #
edge $-1 $375 2.0256811698768864 $297 29.858594741073887 $296 $415 forward 7 unknown #
vertex $-1 $374 $416 #
straight-curve $-1 -17.967819125352275 -16.271064283247824 57.609828485245046 0 -0.70710677298230451 0.70710678939079041 I I #
point $-1 -17.967819125352275 23.079613599213367 18.259149689647302 #
point $-1 -45.800732696549275 39.281825622955523 2.0569372899311347 #
straight-curve $-1 0 39.281825622955523 18.259149689647305 -1 0 0 I I #
vertex $-1 $303 $417 #
point $-1 -36.348471676207282 29.508465032695291 8.485788950204924 #
vertex $-1 $307 $418 #
point $-1 -24.420080145694278 29.508465032695291 8.485788950204924 #
coedge $-1 $385 $313 $391 $419 reversed $217 $-1 #
coedge $-1 $313 $384 $316 $389 reversed $217 $-1 #
edge $-1 $387 -41.328173764667298 $321 -13.495260193470301 $320 $420 forward 7 unknown #
vertex $-1 $315 $421 #
straight-curve $-1 68.739890743736083 2.199158814482459 39.139604958911328 0 0.70710677298230462 -0.70710678939079052 I I #
edge $-1 $317 23.079613599213367 $393 39.281825622955523 $385 $422 forward 7 unknown #
point $-1 68.739890743736098 23.079613599213367 18.259149689647302 #
coedge $-1 $320 $319 $384 $419 forward $311 $-1 #
point $-1 40.906977172539101 39.281825622955523 2.0569372899311347 #
vertex $-1 $389 $423 #
straight-curve $-1 0 39.281825622955523 18.259149689647305 -1 0 0 I I #
vertex $-1 $327 $424 #
point $-1 50.359238192881094 29.508465032695291 8.485788950204924 #
vertex $-1 $331 $425 #
point $-1 62.287629723394105 29.508465032695291 8.485788950204924 #
point $-1 -68.739890743736083 -39.281825622955523 -18.259149689647305 #
straight-curve $-1 -68.739890743736083 0 -18.259149689647305 0 1 0 I I #
point $-1 -68.739890743736083 39.281825622955523 -18.259149689647305 #
straight-curve $-1 -68.739890743736083 39.281825622955523 0 0 0 -1 I I #
coedge $-1 $354 $353 $364 $408 reversed $180 $-1 #
edge $-1 $409 -39.281825622955523 $357 39.281825622955523 $353 $426 forward 7 unknown #
straight-curve $-1 -91.679048790922877 39.281825622955523 -14.418581875199287 0 0 -1 I I #
point $-1 -91.679048790922877 39.281825622955523 -18.259149689647305 #
point $-1 -91.679048790922877 39.281825622955523 -10.578014060751268 #
edge $-1 $368 -3.8405678144480184 $409 3.8405678144480184 $403 $427 forward 7 unknown #
vertex $-1 $404 $428 #
straight-curve $-1 -80.20946976732948 -39.281825622955523 -18.259149689647305 -1 0 0 I I #
straight-curve $-1 -91.679048790922877 0 -10.578014060751268 0 -1 0 I I #
point $-1 -91.679048790922877 -39.281825622955523 -10.578014060751268 #
straight-curve $-1 -17.967819125352275 39.281825622955523 77.411356561581925 0 0 -1 I I #
point $-1 -17.967819125352275 39.281825622955523 18.259149689647305 #
straight-curve $-1 -15.942137955475388 39.281825622955523 2.0569372899311382 -1 0 0 I I #
point $-1 -17.967819125352275 39.281825622955523 2.0569372899311347 #
point $-1 -37.848471676207282 28.447804848609103 7.4251287907314669 #
point $-1 -25.920080145694278 28.447804848609103 7.4251287907314669 #
edge $-1 $393 -18.259149689647305 $387 -2.0569372899311347 $384 $429 forward 7 unknown #
straight-curve $-1 27.4117169790688 39.281825622955523 2.0569372899311382 -1 0 0 I I #
point $-1 68.739890743736098 39.281825622955523 2.0569372899311347 #
straight-curve $-1 68.739890743736083 0 18.259149689647305 0 1 0 I I #
point $-1 68.739890743736083 39.281825622955523 18.259149689647305 #
point $-1 48.859238192881094 28.447804848609103 7.4251287907314669 #
point $-1 60.787629723394105 28.447804848609103 7.4251287907314669 #
straight-curve $-1 -91.679048790922877 0 -18.259149689647305 0 1 0 I I #
straight-curve $-1 -91.679048790922877 -39.281825622955523 -14.418581875199287 0 0 -1 I I #
point $-1 -91.679048790922877 -39.281825622955523 -18.259149689647305 #
straight-curve $-1 68.739890743736083 39.281825622955523 0 0 0 -1 I I #
End-of-ACIS-data 