500 0 14 0           
7 Unknown 11 ACIS 5.0 NT 24 Thu Mar 25 23:59:13 1999 
-1 9.9999999999999995e-007 1e-010 
body $-1 $14 $-1 $15 #
body $-1 $16 $-1 $17 #
body $-1 $18 $-1 $19 #
body $-1 $20 $-1 $21 #
body $-1 $22 $-1 $23 #
body $-1 $24 $-1 $25 #
body $-1 $26 $-1 $27 #
body $-1 $28 $-1 $29 #
body $-1 $30 $-1 $31 #
body $-1 $32 $-1 $33 #
body $-1 $34 $-1 $35 #
body $-1 $36 $-1 $37 #
body $-1 $38 $-1 $39 #
body $-1 $40 $-1 $41 #
lump $-1 $-1 $42 $0 #
transform $-1 1 0 0 0 1 0 0 0 1 67.442243720816677 29.039250715911081 13.290772394831595 1 rotate no_reflect no_shear #
lump $-1 $-1 $43 $1 #
transform $-1 1 0 0 0 1 0 0 0 1 67.442243720816677 29.039250715911081 13.290772394831595 1 rotate no_reflect no_shear #
lump $-1 $-1 $44 $2 #
transform $-1 1 0 0 0 1 0 0 0 1 67.442243720816677 29.039250715911081 13.290772394831595 1 rotate no_reflect no_shear #
lump $-1 $-1 $45 $3 #
transform $-1 1 0 0 0 1 0 0 0 1 67.442243720816677 29.039250715911081 13.290772394831595 1 rotate no_reflect no_shear #
lump $-1 $-1 $46 $4 #
transform $-1 1 0 0 0 1 0 0 0 1 67.442243720816677 29.039250715911081 13.290772394831595 1 rotate no_reflect no_shear #
lump $-1 $-1 $47 $5 #
transform $-1 1 0 0 0 1 0 0 0 1 67.442243720816677 29.039250715911081 13.290772394831595 1 rotate no_reflect no_shear #
lump $-1 $-1 $48 $6 #
transform $-1 1 0 0 0 1 0 0 0 1 67.442243720816677 29.039250715911081 13.290772394831595 1 rotate no_reflect no_shear #
lump $-1 $-1 $49 $7 #
transform $-1 1 0 0 0 1 0 0 0 1 67.442243720816677 29.039250715911081 13.290772394831595 1 rotate no_reflect no_shear #
lump $-1 $-1 $50 $8 #
transform $-1 1 0 0 0 1 0 0 0 1 67.442243720816677 29.039250715911081 13.290772394831595 1 rotate no_reflect no_shear #
lump $-1 $-1 $51 $9 #
transform $-1 1 0 0 0 1 0 0 0 1 67.442243720816677 29.039250715911081 13.290772394831595 1 rotate no_reflect no_shear #
lump $-1 $-1 $52 $10 #
transform $-1 1 0 0 0 1 0 0 0 1 67.442243720816677 29.039250715911081 13.290772394831595 1 rotate no_reflect no_shear #
lump $-1 $-1 $53 $11 #
transform $-1 1 0 0 0 1 0 0 0 1 67.442243720816677 29.039250715911081 13.290772394831595 1 rotate no_reflect no_shear #
lump $-1 $-1 $54 $12 #
transform $-1 1 0 0 0 1 0 0 0 1 67.442243720816677 29.039250715911081 13.290772394831595 1 rotate no_reflect no_shear #
lump $-1 $-1 $55 $13 #
transform $-1 1 0 0 0 1 0 0 0 1 67.442243720816677 29.039250715911081 13.290772394831595 1 rotate no_reflect no_shear #
shell $-1 $-1 $-1 $56 $-1 $14 #
shell $-1 $-1 $-1 $57 $-1 $16 #
shell $-1 $-1 $-1 $58 $-1 $18 #
shell $-1 $-1 $-1 $59 $-1 $20 #
shell $-1 $-1 $-1 $60 $-1 $22 #
shell $-1 $-1 $-1 $61 $-1 $24 #
shell $-1 $-1 $-1 $62 $-1 $26 #
shell $-1 $-1 $-1 $63 $-1 $28 #
shell $-1 $-1 $-1 $64 $-1 $30 #
shell $-1 $-1 $-1 $65 $-1 $32 #
shell $-1 $-1 $-1 $66 $-1 $34 #
shell $-1 $-1 $-1 $67 $-1 $36 #
shell $-1 $-1 $-1 $68 $-1 $38 #
shell $-1 $-1 $-1 $69 $-1 $40 #
face $-1 $70 $71 $42 $-1 $72 forward single #
face $-1 $73 $74 $43 $-1 $75 forward single #
face $-1 $76 $77 $44 $-1 $78 reversed single #
face $-1 $79 $80 $45 $-1 $81 forward single #
face $-1 $82 $83 $46 $-1 $84 reversed single #
face $-1 $85 $86 $47 $-1 $87 forward single #
face $-1 $88 $89 $48 $-1 $90 reversed single #
face $-1 $91 $92 $49 $-1 $93 forward single #
face $-1 $94 $95 $50 $-1 $96 forward single #
face $-1 $97 $98 $51 $-1 $99 forward single #
face $-1 $100 $101 $52 $-1 $102 reversed single #
face $-1 $103 $104 $53 $-1 $105 forward single #
face $-1 $106 $107 $54 $-1 $108 forward single #
face $-1 $109 $110 $55 $-1 $111 forward single #
face $-1 $112 $113 $42 $-1 $114 reversed single #
loop $-1 $-1 $115 $56 #
plane-surface $-1 0 0 13.290772394831595 0 0 1 1 0 0 forward_v I I I I #
face $-1 $116 $117 $43 $-1 $118 forward single #
loop $-1 $-1 $119 $57 #
plane-surface $-1 0 -29.039250715911081 0 0 1 0 0 0 1 forward_v I I I I #
face $-1 $120 $121 $44 $-1 $122 reversed single #
loop $-1 $-1 $123 $58 #
plane-surface $-1 -138.92013300614587 -15.162194919030549 119.23509121192855 0 1 0 -0.52991927123019833 0 0.84804809178421925 forward_v I I I I #
face $-1 $124 $125 $45 $-1 $126 forward single #
loop $-1 $127 $128 $59 #
cone-surface $-1 -59.457397443630512 -11.348930599038106 7.1033536616570823 0.52991927123019833 0 -0.84804809178421925 1.2720721376763289 0 0.79487890684529749 1 I I 0 1 1.5 forward I I I I #
face $-1 $129 $130 $46 $-1 $131 reversed single #
loop $-1 $-1 $132 $60 #
plane-surface $-1 -138.92013300614587 21.412722075926197 119.23509121192855 0 1 0 -0.52991927123019833 0 0.84804809178421925 forward_v I I I I #
face $-1 $133 $134 $47 $-1 $135 forward single #
loop $-1 $136 $137 $61 #
cone-surface $-1 -59.457397443630512 25.225986395918639 7.1033536616570823 0.52991927123019833 0 -0.84804809178421925 1.2720721376763289 0 0.79487890684529749 1 I I 0 1 1.5 forward I I I I #
face $-1 $138 $139 $48 $-1 $140 reversed single #
loop $-1 $-1 $141 $62 #
plane-surface $-1 50.816810879450628 6.9385278984402703 193.02068775336355 0 -1 0 -0.64278761758704617 0 -0.76604443648966558 forward_v I I I I #
face $-1 $142 $143 $49 $-1 $144 forward single #
loop $-1 $145 $146 $63 #
cone-surface $-1 60.889033216039245 -0.30547279695557705 7.6453162368370524 -0.64278761758704617 0 -0.76604443648966558 0.38302221824483279 0 -0.32139380879352308 1 I I 0 1 0.5 forward I I I I #
face $-1 $147 $148 $50 $-1 $149 forward single #
loop $-1 $150 $151 $64 #
cone-surface $-1 60.889033216039245 2.4110274638178666 7.6453162368370524 -0.64278761758704617 0 -0.76604443648966558 0.38302221824483279 0 -0.32139380879352308 1 I I 0 1 0.5 forward I I I I #
face $-1 $152 $153 $51 $-1 $154 forward single #
loop $-1 $155 $156 $65 #
cone-surface $-1 60.889033216039245 5.1275277245913102 7.6453162368370524 -0.64278761758704617 0 -0.76604443648966558 0.38302221824483279 0 -0.32139380879352308 1 I I 0 1 0.5 forward I I I I #
face $-1 $157 $158 $52 $-1 $159 reversed single #
loop $-1 $-1 $160 $66 #
plane-surface $-1 -35.885267452606726 2.4110274638178666 89.693176579940143 0.64278761758704617 0 0.76604443648966558 0.76604443648966558 0 -0.64278761758704617 forward_v I I I I #
face $-1 $161 $162 $53 $-1 $163 forward single #
loop $-1 $164 $165 $67 #
cone-surface $-1 60.889033216039245 8.7495280722892232 7.6453162368370524 -0.64278761758704617 0 -0.76604443648966558 0.38302221824483279 0 -0.32139380879352308 1 I I 0 1 0.5 forward I I I I #
face $-1 $166 $167 $54 $-1 $168 forward single #
loop $-1 $169 $170 $68 #
cone-surface $-1 60.889033216039245 11.466028333062667 7.6453162368370524 -0.64278761758704617 0 -0.76604443648966558 0.38302221824483279 0 -0.32139380879352308 1 I I 0 1 0.5 forward I I I I #
face $-1 $171 $172 $55 $-1 $173 forward single #
loop $-1 $174 $175 $69 #
cone-surface $-1 60.889033216039245 14.182528593836111 7.6453162368370524 -0.64278761758704617 0 -0.76604443648966558 0.38302221824483279 0 -0.32139380879352308 1 I I 0 1 0.5 forward I I I I #
face $-1 $176 $177 $42 $-1 $178 reversed single #
loop $-1 $-1 $179 $70 #
plane-surface $-1 0 0 -13.290772394831595 0 0 1 1 0 0 forward_v I I I I #
coedge $-1 $180 $181 $182 $183 forward $71 $-1 #
face $-1 $184 $185 $43 $-1 $186 reversed single #
loop $-1 $-1 $187 $73 #
plane-surface $-1 0 0 13.290772394831595 0 0 1 1 0 0 forward_v I I I I #
coedge $-1 $188 $189 $190 $191 forward $74 $-1 #
face $-1 $192 $193 $44 $-1 $194 reversed single #
loop $-1 $-1 $195 $76 #
plane-surface $-1 -67.442243720816691 -11.348930599038106 4.8465590257588929 -0.52991927123019833 0 0.84804809178421925 0.84804809178421925 0 0.52991927123019833 forward_v I I I I #
coedge $-1 $196 $197 $198 $199 reversed $77 $-1 #
face $-1 $-1 $200 $45 $-1 $201 forward single #
loop $-1 $202 $203 $79 #
cone-surface $-1 -57.831894701529123 -11.348930599038106 4.5020055441807614 0.52991927123019833 0 -0.84804809178421925 0.63603606883816444 0 0.39743945342264875 1 I I -0.70710678118654757 0.70710678118654757 0.75 forward I I I I #
loop $-1 $-1 $204 $59 #
coedge $-1 $128 $128 $205 $206 reversed $80 $-1 #
face $-1 $207 $208 $46 $-1 $209 forward single #
loop $-1 $-1 $210 $82 #
plane-surface $-1 -67.442243720816691 25.225986395918639 4.8465590257588929 -0.52991927123019833 0 0.84804809178421925 0.84804809178421925 0 0.52991927123019833 forward_v I I I I #
coedge $-1 $211 $212 $213 $214 reversed $83 $-1 #
face $-1 $-1 $215 $47 $-1 $216 forward single #
loop $-1 $217 $218 $85 #
cone-surface $-1 -57.831894701529123 25.225986395918639 4.5020055441807614 0.52991927123019833 0 -0.84804809178421925 0.63603606883816444 0 0.39743945342264875 1 I I -0.70710678118654757 0.70710678118654757 0.75 forward I I I I #
loop $-1 $-1 $219 $61 #
coedge $-1 $137 $137 $220 $221 reversed $86 $-1 #
face $-1 $222 $223 $48 $-1 $224 reversed single #
loop $-1 $-1 $225 $88 #
plane-surface $-1 -35.885267452606726 2.4110274638178666 89.693176579940143 0.64278761758704617 0 0.76604443648966558 0.76604443648966558 0 -0.64278761758704617 forward_v I I I I #
coedge $-1 $226 $227 $228 $229 reversed $89 $-1 #
face $-1 $-1 $230 $49 $-1 $231 forward single #
loop $-1 $232 $233 $91 #
cone-surface $-1 60.312462511906745 -0.30547279695557705 6.958186043194484 -0.64278761758704617 0 -0.76604443648966558 0.1915111091224164 0 -0.16069690439676154 1 I I -0.70710678118654746 0.70710678118654746 0.25 forward I I I I #
loop $-1 $-1 $234 $63 #
coedge $-1 $146 $146 $235 $236 reversed $92 $-1 #
face $-1 $-1 $237 $50 $-1 $238 forward single #
loop $-1 $239 $240 $94 #
cone-surface $-1 60.312462511906745 2.4110274638178666 6.958186043194484 -0.64278761758704617 0 -0.76604443648966558 0.1915111091224164 0 -0.16069690439676154 1 I I -0.70710678118654746 0.70710678118654746 0.25 forward I I I I #
loop $-1 $-1 $241 $64 #
coedge $-1 $151 $151 $242 $243 reversed $95 $-1 #
face $-1 $-1 $244 $51 $-1 $245 forward single #
loop $-1 $246 $247 $97 #
cone-surface $-1 60.312462511906745 5.1275277245913102 6.958186043194484 -0.64278761758704617 0 -0.76604443648966558 0.1915111091224164 0 -0.16069690439676154 1 I I -0.70710678118654746 0.70710678118654746 0.25 forward I I I I #
loop $-1 $-1 $248 $65 #
coedge $-1 $156 $156 $249 $250 reversed $98 $-1 #
face $-1 $251 $252 $52 $-1 $253 reversed single #
loop $-1 $-1 $254 $100 #
plane-surface $-1 50.816810879450628 15.993528767685071 193.02068775336355 0 -1 0 -0.64278761758704617 0 -0.76604443648966558 forward_v I I I I #
coedge $-1 $255 $256 $257 $258 reversed $101 $-1 #
face $-1 $-1 $259 $53 $-1 $260 forward single #
loop $-1 $261 $262 $103 #
cone-surface $-1 60.312462511906745 8.7495280722892232 6.958186043194484 -0.64278761758704617 0 -0.76604443648966558 0.1915111091224164 0 -0.16069690439676154 1 I I -0.70710678118654746 0.70710678118654746 0.25 forward I I I I #
loop $-1 $-1 $263 $67 #
coedge $-1 $165 $165 $264 $265 reversed $104 $-1 #
face $-1 $-1 $266 $54 $-1 $267 forward single #
loop $-1 $268 $269 $106 #
cone-surface $-1 60.312462511906745 11.466028333062667 6.958186043194484 -0.64278761758704617 0 -0.76604443648966558 0.1915111091224164 0 -0.16069690439676154 1 I I -0.70710678118654746 0.70710678118654746 0.25 forward I I I I #
loop $-1 $-1 $270 $68 #
coedge $-1 $170 $170 $271 $272 reversed $107 $-1 #
face $-1 $-1 $273 $55 $-1 $274 forward single #
loop $-1 $275 $276 $109 #
cone-surface $-1 60.312462511906745 14.182528593836111 6.958186043194484 -0.64278761758704617 0 -0.76604443648966558 0.1915111091224164 0 -0.16069690439676154 1 I I -0.70710678118654746 0.70710678118654746 0.25 forward I I I I #
loop $-1 $-1 $277 $69 #
coedge $-1 $175 $175 $278 $279 reversed $110 $-1 #
face $-1 $280 $281 $42 $-1 $282 reversed single #
loop $-1 $-1 $283 $112 #
plane-surface $-1 0 -29.039250715911081 0 0 1 0 0 0 1 forward_v I I I I #
coedge $-1 $284 $285 $286 $287 forward $113 $-1 #
coedge $-1 $288 $115 $289 $290 forward $71 $-1 #
coedge $-1 $115 $288 $291 $292 forward $71 $-1 #
coedge $-1 $293 $294 $115 $183 reversed $295 $-1 #
edge $-1 $296 -29.039250715911081 $297 29.039250715911081 $182 $298 forward 7 unknown #
face $-1 $299 $300 $43 $-1 $301 reversed single #
loop $-1 $-1 $302 $116 #
plane-surface $-1 -67.442243720816677 0 0 1 0 0 0 0 -1 forward_v I I I I #
coedge $-1 $303 $304 $305 $306 forward $117 $-1 #
coedge $-1 $305 $119 $302 $307 reversed $74 $-1 #
coedge $-1 $119 $305 $308 $309 reversed $74 $-1 #
coedge $-1 $310 $311 $119 $191 reversed $300 $-1 #
edge $-1 $312 -67.442243720816677 $313 67.442243720816677 $190 $314 forward 7 unknown #
face $-1 $315 $316 $44 $-1 $317 forward single #
loop $-1 $-1 $318 $120 #
plane-surface $-1 -138.92013300614587 -7.5356662790456621 119.23509121192855 0 -1 0 0.52991927123019833 0 -0.84804809178421925 forward_v I I I I #
coedge $-1 $319 $320 $321 $322 reversed $121 $-1 #
coedge $-1 $197 $123 $323 $324 reversed $77 $-1 #
coedge $-1 $123 $196 $319 $325 reversed $77 $-1 #
coedge $-1 $321 $326 $123 $199 forward $316 $-1 #
edge $-1 $327 2.0178227822562604 $328 15.531388759271067 $198 $329 forward 7 unknown #
loop $-1 $-1 $205 $124 #
plane-surface $-1 -67.442243720816691 -11.348930599038106 4.8465590257588929 -0.52991927123019833 0 0.84804809178421925 0.84804809178421925 0 0.52991927123019833 forward_v I I I I #
loop $-1 $-1 $330 $79 #
coedge $-1 $203 $203 $204 $331 reversed $125 $-1 #
coedge $-1 $204 $204 $203 $331 forward $127 $-1 #
coedge $-1 $205 $205 $128 $206 forward $200 $-1 #
edge $-1 $332 0 $332 6.2831853071796004 $205 $333 forward 7 unknown #
face $-1 $334 $335 $46 $-1 $336 reversed single #
loop $-1 $-1 $213 $129 #
plane-surface $-1 0 0 13.290772394831595 0 0 1 1 0 0 forward_v I I I I #
coedge $-1 $337 $338 $339 $340 reversed $130 $-1 #
coedge $-1 $212 $132 $341 $342 reversed $83 $-1 #
coedge $-1 $132 $211 $337 $343 reversed $83 $-1 #
coedge $-1 $339 $344 $132 $214 forward $208 $-1 #
edge $-1 $345 2.0178227822562604 $346 15.531388759271067 $213 $347 forward 7 unknown #
loop $-1 $-1 $220 $133 #
plane-surface $-1 -67.442243720816691 25.225986395918639 4.8465590257588929 -0.52991927123019833 0 0.84804809178421925 0.84804809178421925 0 0.52991927123019833 forward_v I I I I #
loop $-1 $-1 $348 $85 #
coedge $-1 $218 $218 $219 $349 reversed $134 $-1 #
coedge $-1 $219 $219 $218 $349 forward $136 $-1 #
coedge $-1 $220 $220 $137 $221 forward $215 $-1 #
edge $-1 $350 0 $350 6.2831853071796004 $220 $351 forward 7 unknown #
face $-1 $352 $353 $48 $-1 $354 reversed single #
loop $-1 $-1 $355 $138 #
plane-surface $-1 50.816810879450628 -2.1164729708045371 193.02068775336355 0 1 0 0.64278761758704617 0 0.76604443648966558 forward_v I I I I #
coedge $-1 $356 $357 $358 $359 reversed $139 $-1 #
coedge $-1 $227 $141 $360 $361 reversed $89 $-1 #
coedge $-1 $141 $226 $356 $362 reversed $89 $-1 #
coedge $-1 $358 $363 $141 $229 forward $364 $-1 #
edge $-1 $365 -42.033838281091363 $366 -29.759164871007968 $228 $367 forward 7 unknown #
loop $-1 $-1 $235 $142 #
plane-surface $-1 -35.885267452606726 2.4110274638178666 89.693176579940143 0.64278761758704617 0 0.76604443648966558 0.76604443648966558 0 -0.64278761758704617 forward_v I I I I #
loop $-1 $-1 $368 $91 #
coedge $-1 $233 $233 $234 $369 reversed $143 $-1 #
coedge $-1 $234 $234 $233 $369 forward $145 $-1 #
coedge $-1 $235 $235 $146 $236 forward $230 $-1 #
edge $-1 $370 0 $370 6.2831853071796004 $235 $371 forward 7 unknown #
loop $-1 $-1 $242 $147 #
plane-surface $-1 -35.885267452606726 2.4110274638178666 89.693176579940143 0.64278761758704617 0 0.76604443648966558 0.76604443648966558 0 -0.64278761758704617 forward_v I I I I #
loop $-1 $-1 $372 $94 #
coedge $-1 $240 $240 $241 $373 reversed $148 $-1 #
coedge $-1 $241 $241 $240 $373 forward $150 $-1 #
coedge $-1 $242 $242 $151 $243 forward $237 $-1 #
edge $-1 $374 0 $374 6.2831853071796004 $242 $375 forward 7 unknown #
loop $-1 $-1 $249 $152 #
plane-surface $-1 -35.885267452606726 2.4110274638178666 89.693176579940143 0.64278761758704617 0 0.76604443648966558 0.76604443648966558 0 -0.64278761758704617 forward_v I I I I #
loop $-1 $-1 $376 $97 #
coedge $-1 $247 $247 $248 $377 reversed $153 $-1 #
coedge $-1 $248 $248 $247 $377 forward $155 $-1 #
coedge $-1 $249 $249 $156 $250 forward $244 $-1 #
edge $-1 $378 0 $378 6.2831853071796004 $249 $379 forward 7 unknown #
face $-1 $380 $381 $52 $-1 $382 forward single #
loop $-1 $-1 $383 $157 #
plane-surface $-1 67.442243720816677 0 0 -1 0 0 0 0 1 forward_v I I I I #
coedge $-1 $384 $385 $386 $387 reversed $158 $-1 #
coedge $-1 $388 $160 $389 $390 reversed $101 $-1 #
coedge $-1 $160 $388 $383 $391 reversed $101 $-1 #
coedge $-1 $392 $393 $160 $258 forward $381 $-1 #
edge $-1 $394 118.86103915927123 $395 134.88448744163335 $257 $396 forward 7 unknown #
loop $-1 $-1 $264 $161 #
plane-surface $-1 -35.885267452606726 2.4110274638178666 89.693176579940143 0.64278761758704617 0 0.76604443648966558 0.76604443648966558 0 -0.64278761758704617 forward_v I I I I #
loop $-1 $-1 $397 $103 #
coedge $-1 $262 $262 $263 $398 reversed $162 $-1 #
coedge $-1 $263 $263 $262 $398 forward $164 $-1 #
coedge $-1 $264 $264 $165 $265 forward $259 $-1 #
edge $-1 $399 0 $399 6.2831853071796004 $264 $400 forward 7 unknown #
loop $-1 $-1 $271 $166 #
plane-surface $-1 -35.885267452606726 2.4110274638178666 89.693176579940143 0.64278761758704617 0 0.76604443648966558 0.76604443648966558 0 -0.64278761758704617 forward_v I I I I #
loop $-1 $-1 $401 $106 #
coedge $-1 $269 $269 $270 $402 reversed $167 $-1 #
coedge $-1 $270 $270 $269 $402 forward $169 $-1 #
coedge $-1 $271 $271 $170 $272 forward $266 $-1 #
edge $-1 $403 0 $403 6.2831853071796004 $271 $404 forward 7 unknown #
loop $-1 $-1 $278 $171 #
plane-surface $-1 -35.885267452606726 2.4110274638178666 89.693176579940143 0.64278761758704617 0 0.76604443648966558 0.76604443648966558 0 -0.64278761758704617 forward_v I I I I #
loop $-1 $-1 $405 $109 #
coedge $-1 $276 $276 $277 $406 reversed $172 $-1 #
coedge $-1 $277 $277 $276 $406 forward $174 $-1 #
coedge $-1 $278 $278 $175 $279 forward $273 $-1 #
edge $-1 $407 0 $407 6.2831853071796004 $278 $408 forward 7 unknown #
face $-1 $409 $410 $42 $-1 $411 reversed single #
loop $-1 $-1 $412 $176 #
plane-surface $-1 -67.442243720816677 0 0 1 0 0 0 0 -1 forward_v I I I I #
coedge $-1 $413 $291 $414 $415 forward $177 $-1 #
coedge $-1 $416 $179 $413 $417 forward $113 $-1 #
coedge $-1 $179 $416 $418 $419 forward $113 $-1 #
coedge $-1 $294 $293 $179 $287 reversed $295 $-1 #
edge $-1 $420 -29.039250715911081 $421 29.039250715911081 $286 $422 forward 7 unknown #
coedge $-1 $181 $180 $423 $424 forward $71 $-1 #
coedge $-1 $425 $426 $180 $290 reversed $410 $-1 #
edge $-1 $297 -67.442243720816677 $427 67.442243720816677 $289 $428 forward 7 unknown #
coedge $-1 $283 $429 $181 $292 reversed $177 $-1 #
edge $-1 $430 -67.442243720816677 $296 67.442243720816677 $291 $431 forward 7 unknown #
coedge $-1 $286 $182 $429 $432 forward $295 $-1 #
coedge $-1 $182 $286 $425 $433 reversed $295 $-1 #
loop $-1 $-1 $293 $409 #
vertex $-1 $183 $434 #
vertex $-1 $183 $435 #
straight-curve $-1 67.442243720816677 0 13.290772394831595 0 1 0 I I #
face $-1 $436 $437 $43 $-1 $438 reversed single #
loop $-1 $-1 $310 $184 #
plane-surface $-1 0 -35.977778614351351 7.1853808655037916 0 0 1 1 0 0 forward_v I I I I #
coedge $-1 $439 $440 $188 $307 forward $185 $-1 #
coedge $-1 $441 $187 $440 $442 forward $117 $-1 #
coedge $-1 $187 $441 $443 $444 forward $117 $-1 #
coedge $-1 $189 $188 $187 $306 reversed $74 $-1 #
edge $-1 $445 -67.442243720816677 $446 67.442243720816677 $187 $447 forward 7 unknown #
edge $-1 $446 -13.290772394831595 $313 -7.1853808655037916 $302 $448 forward 7 unknown #
coedge $-1 $443 $449 $189 $309 forward $450 $-1 #
edge $-1 $312 7.1853808655037916 $445 13.290772394831595 $308 $451 forward 7 unknown #
coedge $-1 $452 $190 $449 $453 forward $300 $-1 #
coedge $-1 $190 $452 $439 $454 forward $300 $-1 #
vertex $-1 $309 $455 #
vertex $-1 $307 $456 #
straight-curve $-1 0 -29.039250715911081 7.1853808655037916 -1 0 0 I I #
face $-1 $-1 $457 $44 $-1 $458 reversed single #
loop $-1 $-1 $198 $192 #
plane-surface $-1 0 0 13.290772394831595 0 0 1 1 0 0 forward_v I I I I #
coedge $-1 $459 $460 $461 $462 reversed $193 $-1 #
coedge $-1 $463 $195 $197 $325 forward $121 $-1 #
coedge $-1 $195 $463 $459 $464 forward $121 $-1 #
coedge $-1 $461 $198 $195 $322 forward $316 $-1 #
edge $-1 $328 -9.4877296195114962 $465 -1.8612009795266093 $321 $466 forward 7 unknown #
coedge $-1 $467 $468 $196 $324 forward $457 $-1 #
edge $-1 $469 -54.770986580205374 $327 -46.326773211132675 $323 $470 forward 7 unknown #
edge $-1 $328 -15.934905234658871 $469 -1.675811683274863e-014 $197 $471 forward 7 unknown #
coedge $-1 $198 $461 $467 $472 forward $316 $-1 #
vertex $-1 $324 $473 #
vertex $-1 $199 $474 #
straight-curve $-1 -69.460066503072937 -15.162194919030549 13.290772394831592 1 0 0 I I #
coedge $-1 $330 $330 $-1 $475 reversed $202 $-1 #
edge $-1 $476 0 $476 6.2831853071796004 $203 $477 forward 7 unknown #
vertex $-1 $206 $478 #
ellipse-curve $-1 -60.685460732309267 -11.348930599038106 9.068665710295253 -0.52991927123019833 0 0.84804809178421925 1.2720721376763289 0 0.79487890684529749 1 I I #
face $-1 $-1 $479 $46 $-1 $480 reversed single #
loop $-1 $-1 $481 $207 #
plane-surface $-1 0 29.039250715911081 0 0 -1 0 0 0 -1 forward_v I I I I #
coedge $-1 $482 $210 $212 $343 forward $130 $-1 #
coedge $-1 $210 $482 $481 $483 reversed $130 $-1 #
coedge $-1 $484 $213 $210 $340 forward $208 $-1 #
edge $-1 $346 8.7997288779668779 $485 16.426257517951761 $339 $486 forward 7 unknown #
coedge $-1 $487 $488 $211 $342 forward $479 $-1 #
edge $-1 $489 -54.770986580205374 $345 -46.326773211132675 $341 $490 forward 7 unknown #
edge $-1 $346 -15.934905234658871 $489 -1.675811683274863e-014 $212 $491 forward 7 unknown #
coedge $-1 $213 $484 $487 $492 forward $208 $-1 #
vertex $-1 $342 $493 #
vertex $-1 $214 $494 #
straight-curve $-1 -69.460066503072937 21.412722075926197 13.290772394831592 1 0 0 I I #
coedge $-1 $348 $348 $-1 $495 reversed $217 $-1 #
edge $-1 $496 0 $496 6.2831853071796004 $218 $497 forward 7 unknown #
vertex $-1 $221 $498 #
ellipse-curve $-1 -60.685460732309267 25.225986395918639 9.068665710295253 -0.52991927123019833 0 0.84804809178421925 1.2720721376763289 0 0.79487890684529749 1 I I #
face $-1 $-1 $364 $48 $-1 $499 forward single #
loop $-1 $-1 $500 $222 #
plane-surface $-1 67.442243720816677 0 0 -1 0 0 0 0 1 forward_v I I I I #
coedge $-1 $501 $502 $503 $504 reversed $223 $-1 #
coedge $-1 $505 $225 $227 $362 forward $139 $-1 #
coedge $-1 $225 $505 $501 $506 forward $139 $-1 #
coedge $-1 $503 $228 $225 $359 forward $364 $-1 #
edge $-1 $366 -5.733014166531337 $507 3.3219867027134704 $358 $508 forward 7 unknown #
coedge $-1 $509 $510 $226 $361 forward $353 $-1 #
edge $-1 $511 -93.519245628798984 $365 -83.219571481850181 $360 $512 forward 7 unknown #
edge $-1 $366 118.86103915927123 $511 134.88448744163335 $227 $513 forward 7 unknown #
coedge $-1 $228 $503 $509 $514 forward $364 $-1 #
loop $-1 $-1 $503 $352 #
vertex $-1 $361 $515 #
vertex $-1 $229 $516 #
straight-curve $-1 25.408405439725314 6.9385278984402703 13.290772394831592 -1 0 0 I I #
coedge $-1 $368 $368 $-1 $517 reversed $232 $-1 #
edge $-1 $518 0 $518 6.2831853071796004 $233 $519 forward 7 unknown #
vertex $-1 $236 $520 #
ellipse-curve $-1 61.30490701577498 -0.30547279695557705 8.140935321357194 0.64278761758704617 0 0.76604443648966558 0.38302221824483279 0 -0.32139380879352308 1 I I #
coedge $-1 $372 $372 $-1 $521 reversed $239 $-1 #
edge $-1 $522 0 $522 6.2831853071796004 $240 $523 forward 7 unknown #
vertex $-1 $243 $524 #
ellipse-curve $-1 61.30490701577498 2.4110274638178666 8.140935321357194 0.64278761758704617 0 0.76604443648966558 0.38302221824483279 0 -0.32139380879352308 1 I I #
coedge $-1 $376 $376 $-1 $525 reversed $246 $-1 #
edge $-1 $526 0 $526 6.2831853071796004 $247 $527 forward 7 unknown #
vertex $-1 $250 $528 #
ellipse-curve $-1 61.30490701577498 5.1275277245913102 8.140935321357194 0.64278761758704617 0 0.76604443648966558 0.38302221824483279 0 -0.32139380879352308 1 I I #
face $-1 $-1 $529 $52 $-1 $530 forward single #
loop $-1 $-1 $393 $251 #
plane-surface $-1 50.816810879450628 6.9385278984402703 193.02068775336355 0 -1 0 -0.64278761758704617 0 -0.76604443648966558 forward_v I I I I #
coedge $-1 $386 $531 $256 $391 forward $252 $-1 #
coedge $-1 $385 $254 $388 $532 reversed $158 $-1 #
coedge $-1 $254 $384 $533 $534 reversed $158 $-1 #
coedge $-1 $535 $383 $254 $387 forward $252 $-1 #
edge $-1 $536 -93.519245628798984 $537 -83.219571481850181 $386 $538 forward 7 unknown #
coedge $-1 $256 $255 $384 $532 forward $101 $-1 #
coedge $-1 $539 $533 $255 $390 forward $529 $-1 #
edge $-1 $540 -14.788015035776137 $394 -5.733014166531337 $389 $541 forward 7 unknown #
edge $-1 $395 5.733014166531337 $536 14.788015035776137 $383 $542 forward 7 unknown #
coedge $-1 $393 $257 $531 $543 reversed $381 $-1 #
coedge $-1 $257 $392 $539 $544 reversed $381 $-1 #
vertex $-1 $390 $545 #
vertex $-1 $391 $546 #
straight-curve $-1 -35.885267452606726 6.9385278984402703 89.693176579940143 0.76604443648966558 0 -0.64278761758704617 I I #
coedge $-1 $397 $397 $-1 $547 reversed $261 $-1 #
edge $-1 $548 0 $548 6.2831853071796004 $262 $549 forward 7 unknown #
vertex $-1 $265 $550 #
ellipse-curve $-1 61.30490701577498 8.7495280722892232 8.140935321357194 0.64278761758704617 0 0.76604443648966558 0.38302221824483279 0 -0.32139380879352308 1 I I #
coedge $-1 $401 $401 $-1 $551 reversed $268 $-1 #
edge $-1 $552 0 $552 6.2831853071796004 $269 $553 forward 7 unknown #
vertex $-1 $272 $554 #
ellipse-curve $-1 61.30490701577498 11.466028333062667 8.140935321357194 0.64278761758704617 0 0.76604443648966558 0.38302221824483279 0 -0.32139380879352308 1 I I #
coedge $-1 $405 $405 $-1 $555 reversed $275 $-1 #
edge $-1 $556 0 $556 6.2831853071796004 $276 $557 forward 7 unknown #
vertex $-1 $279 $558 #
ellipse-curve $-1 61.30490701577498 14.182528593836111 8.140935321357194 0.64278761758704617 0 0.76604443648966558 0.38302221824483279 0 -0.32139380879352308 1 I I #
face $-1 $-1 $295 $42 $-1 $559 reversed single #
loop $-1 $-1 $425 $280 #
plane-surface $-1 0 29.039250715911081 0 0 -1 0 0 0 -1 forward_v I I I I #
coedge $-1 $560 $423 $426 $561 forward $281 $-1 #
coedge $-1 $429 $283 $284 $417 reversed $177 $-1 #
coedge $-1 $423 $560 $283 $415 reversed $281 $-1 #
edge $-1 $430 -13.290772394831595 $562 13.290772394831595 $414 $563 forward 7 unknown #
coedge $-1 $285 $284 $560 $564 forward $113 $-1 #
edge $-1 $421 -67.442243720816677 $562 67.442243720816677 $413 $565 forward 7 unknown #
coedge $-1 $426 $425 $285 $419 reversed $410 $-1 #
edge $-1 $566 -67.442243720816677 $420 67.442243720816677 $418 $567 forward 7 unknown #
vertex $-1 $287 $568 #
vertex $-1 $432 $569 #
straight-curve $-1 67.442243720816677 0 -13.290772394831595 0 -1 0 I I #
coedge $-1 $412 $414 $288 $424 reversed $281 $-1 #
edge $-1 $427 -29.039250715911081 $430 29.039250715911081 $423 $570 forward 7 unknown #
coedge $-1 $418 $289 $294 $433 forward $410 $-1 #
coedge $-1 $289 $418 $412 $561 reversed $410 $-1 #
vertex $-1 $290 $571 #
straight-curve $-1 0 29.039250715911081 13.290772394831595 -1 0 0 I I #
coedge $-1 $291 $413 $293 $432 reversed $177 $-1 #
vertex $-1 $424 $572 #
straight-curve $-1 0 -29.039250715911081 13.290772394831595 1 0 0 I I #
edge $-1 $296 -13.290772394831595 $421 13.290772394831595 $293 $573 forward 7 unknown #
edge $-1 $297 -13.290772394831595 $420 13.290772394831595 $294 $574 forward 7 unknown #
point $-1 67.442243720816677 -29.039250715911081 13.290772394831595 #
point $-1 67.442243720816677 29.039250715911081 13.290772394831595 #
face $-1 $-1 $450 $43 $-1 $575 reversed single #
loop $-1 $-1 $576 $299 #
plane-surface $-1 0 -42.916306512791621 10.238076630167694 0 1 0 0 0 1 forward_v I I I I #
coedge $-1 $577 $302 $311 $454 reversed $185 $-1 #
coedge $-1 $302 $577 $303 $442 reversed $185 $-1 #
coedge $-1 $304 $303 $578 $579 forward $117 $-1 #
edge $-1 $446 29.039250715911081 $580 42.916306512791621 $440 $581 forward 7 unknown #
coedge $-1 $582 $308 $304 $444 reversed $450 $-1 #
edge $-1 $583 -42.916306512791621 $445 -29.039250715911081 $443 $584 forward 7 unknown #
vertex $-1 $309 $585 #
vertex $-1 $442 $586 #
straight-curve $-1 0 -29.039250715911081 13.290772394831595 -1 0 0 I I #
straight-curve $-1 -67.442243720816677 -29.039250715911081 0 0 0 -1 I I #
coedge $-1 $308 $582 $310 $453 reversed $450 $-1 #
loop $-1 $-1 $308 $436 #
straight-curve $-1 67.442243720816677 -29.039250715911081 0 0 0 1 I I #
coedge $-1 $311 $310 $587 $588 forward $300 $-1 #
edge $-1 $312 -6.9385278984402667 $589 6.9385278984402703 $449 $590 forward 7 unknown #
edge $-1 $591 -6.9385278984402703 $313 6.9385278984402667 $439 $592 forward 7 unknown #
point $-1 67.442243720816677 -29.039250715911084 7.1853808655037916 #
point $-1 -67.442243720816677 -29.039250715911084 7.1853808655037916 #
loop $-1 $-1 $323 $315 #
plane-surface $-1 -67.442243720816677 0 0 1 0 0 0 0 -1 forward_v I I I I #
coedge $-1 $460 $318 $320 $464 reversed $193 $-1 #
coedge $-1 $318 $459 $593 $594 reversed $193 $-1 #
coedge $-1 $326 $321 $318 $462 forward $316 $-1 #
edge $-1 $465 -15.531388759271067 $595 -2.0178227822562604 $461 $596 forward 7 unknown #
coedge $-1 $320 $319 $468 $597 reversed $121 $-1 #
edge $-1 $598 1.675811683274863e-014 $465 15.934905234658871 $459 $599 forward 7 unknown #
vertex $-1 $322 $600 #
straight-curve $-1 -53.928677743801863 -5.6744652995190528 13.290772394831595 0 1 0 I I #
coedge $-1 $593 $323 $326 $472 reversed $457 $-1 #
coedge $-1 $323 $593 $463 $597 forward $457 $-1 #
vertex $-1 $324 $601 #
straight-curve $-1 -67.442243720816677 -15.162194919030549 59.617545605964274 0 0 1 I I #
straight-curve $-1 -67.442243720816691 -15.162194919030549 4.8465590257588929 -0.84804809178421925 0 -0.52991927123019833 I I #
edge $-1 $595 7.5356662790456621 $327 15.162194919030549 $467 $602 forward 7 unknown #
point $-1 -67.442243720816677 -15.162194919030549 13.290772394831595 #
point $-1 -53.92867774380187 -15.162194919030549 13.290772394831595 #
edge $-1 $603 1 $603 0 $330 $-1 forward 7 unknown #
vertex $-1 $331 $604 #
ellipse-curve $-1 -58.229334154951772 -11.348930599038106 5.1380416130189257 -0.52991927123019833 0 0.84804809178421925 1.2720721376763289 0 0.79487890684529749 1 I I #
point $-1 -59.413388594632927 -11.348930599038106 9.863544617140537 #
loop $-1 $-1 $341 $334 #
plane-surface $-1 -67.442243720816677 0 0 1 0 0 0 0 -1 forward_v I I I I #
coedge $-1 $605 $606 $338 $483 forward $335 $-1 #
coedge $-1 $338 $337 $488 $607 reversed $130 $-1 #
edge $-1 $485 11.378085298431404 $608 27.312990533090257 $481 $609 forward 7 unknown #
coedge $-1 $344 $339 $606 $610 forward $208 $-1 #
vertex $-1 $610 $611 #
straight-curve $-1 -53.928677743801863 12.61299319795932 13.290772394831595 0 1 0 I I #
coedge $-1 $612 $341 $344 $492 reversed $479 $-1 #
coedge $-1 $341 $612 $482 $607 forward $479 $-1 #
vertex $-1 $342 $613 #
straight-curve $-1 -67.442243720816677 21.412722075926197 59.617545605964274 0 0 1 I I #
straight-curve $-1 -67.442243720816691 21.412722075926197 4.8465590257588929 -0.84804809178421925 0 -0.52991927123019833 I I #
edge $-1 $614 -29.039250715911081 $345 -21.412722075926197 $487 $615 forward 7 unknown #
point $-1 -67.442243720816677 21.412722075926197 13.290772394831595 #
point $-1 -53.92867774380187 21.412722075926197 13.290772394831595 #
edge $-1 $616 1 $616 0 $348 $-1 forward 7 unknown #
vertex $-1 $349 $617 #
ellipse-curve $-1 -58.229334154951772 25.225986395918639 5.1380416130189257 -0.52991927123019833 0 0.84804809178421925 1.2720721376763289 0 0.79487890684529749 1 I I #
point $-1 -59.413388594632927 25.225986395918639 9.863544617140537 #
plane-surface $-1 0 0 13.290772394831595 0 0 1 1 0 0 forward_v I I I I #
coedge $-1 $510 $509 $502 $618 forward $353 $-1 #
coedge $-1 $502 $355 $357 $506 reversed $223 $-1 #
coedge $-1 $355 $501 $500 $618 reversed $223 $-1 #
coedge $-1 $363 $358 $355 $504 forward $364 $-1 #
edge $-1 $507 29.759164871007968 $619 42.033838281091363 $503 $620 forward 7 unknown #
coedge $-1 $357 $356 $510 $621 reversed $139 $-1 #
edge $-1 $622 -134.88448744163335 $507 -118.86103915927123 $501 $623 forward 7 unknown #
vertex $-1 $359 $624 #
straight-curve $-1 55.167570310733261 1.2055137319089333 13.290772394831599 0 -1 0 I I #
coedge $-1 $500 $360 $363 $514 reversed $353 $-1 #
coedge $-1 $360 $500 $505 $621 forward $353 $-1 #
vertex $-1 $361 $625 #
straight-curve $-1 67.442243720816677 6.9385278984402703 96.510343876681773 0 0 1 I I #
straight-curve $-1 -35.885267452606726 6.9385278984402703 89.693176579940143 0.76604443648966558 0 -0.64278761758704617 I I #
edge $-1 $619 -2.1164729708045371 $365 6.9385278984402703 $509 $626 forward 7 unknown #
point $-1 67.442243720816677 6.9385278984402703 13.290772394831595 #
point $-1 55.167570310733282 6.9385278984402703 13.290772394831592 #
edge $-1 $627 1 $627 0 $368 $-1 forward 7 unknown #
vertex $-1 $369 $628 #
ellipse-curve $-1 60.473159416303503 -0.30547279695557705 7.1496971523169002 0.64278761758704617 0 0.76604443648966558 0.38302221824483279 0 -0.32139380879352308 1 I I #
point $-1 61.687929234019819 -0.30547279695557705 7.8195415125636805 #
edge $-1 $629 1 $629 0 $372 $-1 forward 7 unknown #
vertex $-1 $373 $630 #
ellipse-curve $-1 60.473159416303503 2.4110274638178666 7.1496971523169002 0.64278761758704617 0 0.76604443648966558 0.38302221824483279 0 -0.32139380879352308 1 I I #
point $-1 61.687929234019819 2.4110274638178666 7.8195415125636805 #
edge $-1 $631 1 $631 0 $376 $-1 forward 7 unknown #
vertex $-1 $377 $632 #
ellipse-curve $-1 60.473159416303503 5.1275277245913102 7.1496971523169002 0.64278761758704617 0 0.76604443648966558 0.38302221824483279 0 -0.32139380879352308 1 I I #
point $-1 61.687929234019819 5.1275277245913102 7.8195415125636805 #
loop $-1 $-1 $389 $380 #
plane-surface $-1 0 0 13.290772394831595 0 0 1 1 0 0 forward_v I I I I #
coedge $-1 $383 $535 $392 $543 forward $252 $-1 #
edge $-1 $540 118.86103915927123 $536 134.88448744163335 $384 $633 forward 7 unknown #
coedge $-1 $389 $634 $385 $534 forward $529 $-1 #
edge $-1 $537 -42.033838281091363 $540 -29.759164871007968 $533 $635 forward 7 unknown #
coedge $-1 $531 $386 $634 $636 reversed $252 $-1 #
vertex $-1 $387 $637 #
vertex $-1 $387 $638 #
straight-curve $-1 67.442243720816677 15.993528767685071 96.510343876681773 0 0 1 I I #
coedge $-1 $634 $389 $393 $544 forward $529 $-1 #
vertex $-1 $534 $639 #
straight-curve $-1 55.167570310733261 1.2055137319089333 13.290772394831599 0 -1 0 I I #
straight-curve $-1 67.442243720816663 1.2055137319089333 2.9910982478827819 0 1 0 I I #
edge $-1 $640 83.219571481850181 $395 93.519245628798984 $531 $641 forward 7 unknown #
edge $-1 $394 29.759164871007968 $640 42.033838281091363 $539 $642 forward 7 unknown #
point $-1 55.167570310733282 6.9385278984402703 13.290772394831592 #
point $-1 67.442243720816677 6.9385278984402703 2.991098247882789 #
edge $-1 $643 1 $643 0 $397 $-1 forward 7 unknown #
vertex $-1 $398 $644 #
ellipse-curve $-1 60.473159416303503 8.7495280722892232 7.1496971523169002 0.64278761758704617 0 0.76604443648966558 0.38302221824483279 0 -0.32139380879352308 1 I I #
point $-1 61.687929234019819 8.7495280722892232 7.8195415125636805 #
edge $-1 $645 1 $645 0 $401 $-1 forward 7 unknown #
vertex $-1 $402 $646 #
ellipse-curve $-1 60.473159416303503 11.466028333062667 7.1496971523169002 0.64278761758704617 0 0.76604443648966558 0.38302221824483279 0 -0.32139380879352308 1 I I #
point $-1 61.687929234019819 11.466028333062667 7.8195415125636805 #
edge $-1 $647 1 $647 0 $405 $-1 forward 7 unknown #
vertex $-1 $406 $648 #
ellipse-curve $-1 60.473159416303503 14.182528593836111 7.1496971523169002 0.64278761758704617 0 0.76604443648966558 0.38302221824483279 0 -0.32139380879352308 1 I I #
point $-1 61.687929234019819 14.182528593836111 7.8195415125636805 #
plane-surface $-1 67.442243720816677 0 0 -1 0 0 0 0 1 forward_v I I I I #
coedge $-1 $414 $412 $416 $564 reversed $281 $-1 #
edge $-1 $427 -13.290772394831595 $566 13.290772394831595 $426 $649 forward 7 unknown #
vertex $-1 $564 $650 #
straight-curve $-1 -67.442243720816677 -29.039250715911081 0 0 0 -1 I I #
edge $-1 $562 -29.039250715911081 $566 29.039250715911081 $560 $651 forward 7 unknown #
straight-curve $-1 0 -29.039250715911081 -13.290772394831595 -1 0 0 I I #
vertex $-1 $419 $652 #
straight-curve $-1 0 29.039250715911081 -13.290772394831595 1 0 0 I I #
point $-1 67.442243720816677 29.039250715911081 -13.290772394831595 #
point $-1 67.442243720816677 -29.039250715911081 -13.290772394831595 #
straight-curve $-1 -67.442243720816677 0 13.290772394831595 0 -1 0 I I #
point $-1 -67.442243720816677 29.039250715911081 13.290772394831595 #
point $-1 -67.442243720816677 -29.039250715911081 13.290772394831595 #
straight-curve $-1 67.442243720816677 -29.039250715911081 0 0 0 -1 I I #
straight-curve $-1 67.442243720816677 29.039250715911081 0 0 0 -1 I I #
plane-surface $-1 67.442243720816677 0 0 -1 0 0 0 0 1 forward_v I I I I #
coedge $-1 $587 $578 $577 $653 forward $437 $-1 #
coedge $-1 $440 $439 $576 $653 reversed $185 $-1 #
coedge $-1 $576 $654 $441 $579 reversed $437 $-1 #
edge $-1 $580 -67.442243720816677 $583 67.442243720816677 $578 $655 forward 7 unknown #
vertex $-1 $442 $656 #
straight-curve $-1 -67.442243720816677 0 13.290772394831595 0 -1 0 I I #
coedge $-1 $449 $443 $654 $657 forward $450 $-1 #
vertex $-1 $444 $658 #
straight-curve $-1 67.442243720816677 0 13.290772394831595 0 1 0 I I #
point $-1 67.442243720816677 -29.039250715911081 13.290772394831595 #
point $-1 -67.442243720816677 -29.039250715911081 13.290772394831595 #
coedge $-1 $654 $576 $452 $588 reversed $437 $-1 #
edge $-1 $589 -67.442243720816677 $591 67.442243720816677 $587 $659 forward 7 unknown #
vertex $-1 $657 $660 #
straight-curve $-1 67.442243720816677 -35.977778614351351 7.1853808655037916 0 -1 0 I I #
vertex $-1 $454 $661 #
straight-curve $-1 -67.442243720816677 -35.977778614351351 7.1853808655037916 0 1 0 I I #
coedge $-1 $468 $467 $460 $594 forward $457 $-1 #
edge $-1 $595 46.326773211132675 $598 54.770986580205374 $593 $662 forward 7 unknown #
vertex $-1 $472 $663 #
straight-curve $-1 -69.460066503072937 -7.5356662790456621 13.290772394831592 -1 0 0 I I #
edge $-1 $598 1.8612009795266093 $469 9.4877296195114962 $468 $664 forward 7 unknown #
vertex $-1 $597 $665 #
straight-curve $-1 -67.442243720816691 -7.5356662790456621 4.8465590257588929 0.84804809178421925 0 0.52991927123019833 I I #
point $-1 -53.92867774380187 -7.5356662790456621 13.290772394831595 #
point $-1 -67.442243720816677 -15.162194919030549 4.8465590257589017 #
straight-curve $-1 -67.442243720816677 0 13.290772394831595 0 -1 0 I I #
vertex $-1 $475 $666 #
point $-1 -56.95726201727544 -11.348930599038106 5.9329205198642239 #
coedge $-1 $606 $481 $612 $667 reversed $335 $-1 #
coedge $-1 $481 $605 $484 $610 reversed $335 $-1 #
edge $-1 $608 -16.426257517951761 $489 -8.7997288779668779 $488 $668 forward 7 unknown #
vertex $-1 $483 $669 #
straight-curve $-1 -44.279514218309039 29.039250715911081 19.320239064171396 -0.84804809178421925 0 -0.52991927123019833 I I #
edge $-1 $485 53.92867774380187 $614 67.442243720816677 $606 $670 forward 7 unknown #
point $-1 -53.92867774380187 29.039250715911081 13.290772394831595 #
coedge $-1 $488 $487 $605 $667 forward $479 $-1 #
point $-1 -67.442243720816677 21.412722075926197 4.8465590257589017 #
vertex $-1 $610 $671 #
straight-curve $-1 -67.442243720816677 0 13.290772394831595 0 -1 0 I I #
vertex $-1 $495 $672 #
point $-1 -56.95726201727544 25.225986395918639 5.9329205198642239 #
edge $-1 $619 83.219571481850181 $622 93.519245628798984 $500 $673 forward 7 unknown #
vertex $-1 $514 $674 #
straight-curve $-1 25.408405439725314 -2.1164729708045371 13.290772394831592 1 0 0 I I #
edge $-1 $622 -3.3219867027134704 $511 5.733014166531337 $510 $675 forward 7 unknown #
vertex $-1 $621 $676 #
straight-curve $-1 -35.885267452606726 -2.1164729708045371 89.693176579940143 -0.76604443648966558 0 0.64278761758704617 I I #
point $-1 55.167570310733282 -2.1164729708045371 13.290772394831592 #
point $-1 67.442243720816677 6.9385278984402703 2.991098247882789 #
straight-curve $-1 67.442243720816677 0 13.290772394831595 0 1 0 I I #
vertex $-1 $517 $677 #
point $-1 60.856181634548342 -0.30547279695557705 6.8283033435233769 #
vertex $-1 $521 $678 #
point $-1 60.856181634548342 2.4110274638178666 6.8283033435233769 #
vertex $-1 $525 $679 #
point $-1 60.856181634548342 5.1275277245913102 6.8283033435233769 #
straight-curve $-1 -35.885267452606726 15.993528767685071 89.693176579940143 0.76604443648966558 0 -0.64278761758704617 I I #
coedge $-1 $533 $539 $535 $636 forward $529 $-1 #
straight-curve $-1 25.408405439725314 15.993528767685071 13.290772394831592 -1 0 0 I I #
edge $-1 $640 6.9385278984402703 $537 15.993528767685071 $535 $680 forward 7 unknown #
point $-1 67.442243720816677 15.993528767685071 2.991098247882789 #
point $-1 67.442243720816677 15.993528767685071 13.290772394831595 #
point $-1 55.167570310733282 15.993528767685071 13.290772394831592 #
vertex $-1 $636 $681 #
straight-curve $-1 67.442243720816677 6.9385278984402703 96.510343876681773 0 0 -1 I I #
straight-curve $-1 25.408405439725314 6.9385278984402703 13.290772394831592 1 0 0 I I #
vertex $-1 $547 $682 #
point $-1 60.856181634548342 8.7495280722892232 6.8283033435233769 #
vertex $-1 $551 $683 #
point $-1 60.856181634548342 11.466028333062667 6.8283033435233769 #
vertex $-1 $555 $684 #
point $-1 60.856181634548342 14.182528593836111 6.8283033435233769 #
straight-curve $-1 -67.442243720816677 29.039250715911081 0 0 0 -1 I I #
point $-1 -67.442243720816677 -29.039250715911081 -13.290772394831595 #
straight-curve $-1 -67.442243720816677 0 -13.290772394831595 0 1 0 I I #
point $-1 -67.442243720816677 29.039250715911081 -13.290772394831595 #
edge $-1 $580 -3.0526957646639019 $591 3.0526957646639019 $577 $685 forward 7 unknown #
coedge $-1 $578 $587 $582 $657 reversed $437 $-1 #
straight-curve $-1 0 -42.916306512791621 13.290772394831595 1 0 0 I I #
point $-1 -67.442243720816677 -42.916306512791621 13.290772394831595 #
edge $-1 $583 -3.0526957646639019 $589 3.0526957646639019 $582 $686 forward 7 unknown #
point $-1 67.442243720816677 -42.916306512791621 13.290772394831595 #
straight-curve $-1 0 -42.916306512791621 7.1853808655037916 -1 0 0 I I #
point $-1 67.442243720816677 -42.916306512791621 7.1853808655037916 #
point $-1 -67.442243720816677 -42.916306512791621 7.1853808655037916 #
straight-curve $-1 -67.442243720816677 -7.5356662790456621 59.617545605964274 0 0 -1 I I #
point $-1 -67.442243720816677 -7.5356662790456621 13.290772394831595 #
straight-curve $-1 -67.442243720816677 -5.6744652995190528 4.8465590257589026 0 -1 0 I I #
point $-1 -67.442243720816677 -7.5356662790456621 4.8465590257589017 #
point $-1 -57.434455248106474 -11.348930599038106 3.8659694753425971 #
edge $-1 $614 -13.290772394831595 $608 -4.8465590257589017 $605 $687 forward 7 unknown #
straight-curve $-1 -67.442243720816677 12.61299319795932 4.8465590257589026 0 -1 0 I I #
point $-1 -67.442243720816677 29.039250715911081 4.8465590257589017 #
straight-curve $-1 0 29.039250715911081 13.290772394831595 -1 0 0 I I #
point $-1 -67.442243720816677 29.039250715911081 13.290772394831595 #
point $-1 -57.434455248106474 25.225986395918639 3.8659694753425971 #
straight-curve $-1 67.442243720816677 -2.1164729708045371 96.510343876681773 0 0 -1 I I #
point $-1 67.442243720816677 -2.1164729708045371 13.290772394831595 #
straight-curve $-1 67.442243720816663 1.2055137319089333 2.9910982478827819 0 1 0 I I #
point $-1 67.442243720816677 -2.1164729708045371 2.991098247882789 #
point $-1 60.151765607509986 -0.30547279695557705 6.7666749340720678 #
point $-1 60.151765607509986 2.4110274638178666 6.7666749340720678 #
point $-1 60.151765607509986 5.1275277245913102 6.7666749340720678 #
straight-curve $-1 67.442243720816677 0 13.290772394831595 0 1 0 I I #
point $-1 67.442243720816677 6.9385278984402703 13.290772394831595 #
point $-1 60.151765607509986 8.7495280722892232 6.7666749340720678 #
point $-1 60.151765607509986 11.466028333062667 6.7666749340720678 #
point $-1 60.151765607509986 14.182528593836111 6.7666749340720678 #
straight-curve $-1 -67.442243720816677 -42.916306512791621 10.238076630167694 0 0 -1 I I #
straight-curve $-1 67.442243720816677 -42.916306512791621 10.238076630167694 0 0 -1 I I #
straight-curve $-1 -67.442243720816677 29.039250715911081 0 0 0 -1 I I #
End-of-ACIS-data 