500 0 17 0           
7 Unknown 11 ACIS 5.0 NT 24 Fri Mar 26 16:40:17 1999 
-1 9.9999999999999995e-007 1e-010 
body $-1 $17 $-1 $18 #
body $-1 $19 $-1 $20 #
body $-1 $21 $-1 $22 #
body $-1 $23 $-1 $24 #
body $-1 $25 $-1 $26 #
body $-1 $27 $-1 $28 #
body $-1 $29 $-1 $30 #
body $-1 $31 $-1 $32 #
body $-1 $33 $-1 $34 #
body $-1 $35 $-1 $36 #
body $-1 $37 $-1 $38 #
body $-1 $39 $-1 $40 #
body $-1 $41 $-1 $42 #
body $-1 $43 $-1 $44 #
body $-1 $45 $-1 $46 #
body $-1 $47 $-1 $48 #
body $-1 $49 $-1 $50 #
lump $-1 $-1 $51 $0 #
transform $-1 1 0 0 0 1 0 0 0 1 40.583513901181064 19.708648385733326 8.2285276113475376 1 rotate no_reflect no_shear #
lump $-1 $-1 $52 $1 #
transform $-1 1 0 0 0 1 0 0 0 1 40.583513901181064 19.708648385733326 8.2285276113475376 1 rotate no_reflect no_shear #
lump $-1 $-1 $53 $2 #
transform $-1 1 0 0 0 1 0 0 0 1 40.583513901181064 19.708648385733326 8.2285276113475376 1 rotate no_reflect no_shear #
lump $-1 $-1 $54 $3 #
transform $-1 1 0 0 0 1 0 0 0 1 40.583513901181064 19.708648385733326 8.2285276113475376 1 rotate no_reflect no_shear #
lump $-1 $-1 $55 $4 #
transform $-1 1 0 0 0 1 0 0 0 1 40.583513901181064 19.708648385733326 8.2285276113475376 1 rotate no_reflect no_shear #
lump $-1 $-1 $56 $5 #
transform $-1 1 0 0 0 1 0 0 0 1 40.583513901181064 19.708648385733326 8.2285276113475376 1 rotate no_reflect no_shear #
lump $-1 $-1 $57 $6 #
transform $-1 1 0 0 0 1 0 0 0 1 40.583513901181064 19.708648385733326 8.2285276113475376 1 rotate no_reflect no_shear #
lump $-1 $-1 $58 $7 #
transform $-1 1 0 0 0 1 0 0 0 1 40.583513901181064 19.708648385733326 8.2285276113475376 1 rotate no_reflect no_shear #
lump $-1 $-1 $59 $8 #
transform $-1 1 0 0 0 1 0 0 0 1 40.583513901181064 19.708648385733326 8.2285276113475376 1 rotate no_reflect no_shear #
lump $-1 $-1 $60 $9 #
transform $-1 1 0 0 0 1 0 0 0 1 40.583513901181064 19.708648385733326 8.2285276113475376 1 rotate no_reflect no_shear #
lump $-1 $-1 $61 $10 #
transform $-1 1 0 0 0 1 0 0 0 1 40.583513901181064 19.708648385733326 8.2285276113475376 1 rotate no_reflect no_shear #
lump $-1 $-1 $62 $11 #
transform $-1 1 0 0 0 1 0 0 0 1 40.583513901181064 19.708648385733326 8.2285276113475376 1 rotate no_reflect no_shear #
lump $-1 $-1 $63 $12 #
transform $-1 1 0 0 0 1 0 0 0 1 40.583513901181064 19.708648385733326 8.2285276113475376 1 rotate no_reflect no_shear #
lump $-1 $-1 $64 $13 #
transform $-1 1 0 0 0 1 0 0 0 1 40.583513901181064 19.708648385733326 8.2285276113475376 1 rotate no_reflect no_shear #
lump $-1 $-1 $65 $14 #
transform $-1 1 0 0 0 1 0 0 0 1 40.583513901181064 19.708648385733326 8.2285276113475376 1 rotate no_reflect no_shear #
lump $-1 $-1 $66 $15 #
transform $-1 1 0 0 0 1 0 0 0 1 40.583513901181064 19.708648385733326 8.2285276113475376 1 rotate no_reflect no_shear #
lump $-1 $-1 $67 $16 #
transform $-1 1 0 0 0 1 0 0 0 1 40.583513901181064 19.708648385733326 8.2285276113475376 1 rotate no_reflect no_shear #
shell $-1 $-1 $-1 $68 $-1 $17 #
shell $-1 $-1 $-1 $69 $-1 $19 #
shell $-1 $-1 $-1 $70 $-1 $21 #
shell $-1 $-1 $-1 $71 $-1 $23 #
shell $-1 $-1 $-1 $72 $-1 $25 #
shell $-1 $-1 $-1 $73 $-1 $27 #
shell $-1 $-1 $-1 $74 $-1 $29 #
shell $-1 $-1 $-1 $75 $-1 $31 #
shell $-1 $-1 $-1 $76 $-1 $33 #
shell $-1 $-1 $-1 $77 $-1 $35 #
shell $-1 $-1 $-1 $78 $-1 $37 #
shell $-1 $-1 $-1 $79 $-1 $39 #
shell $-1 $-1 $-1 $80 $-1 $41 #
shell $-1 $-1 $-1 $81 $-1 $43 #
shell $-1 $-1 $-1 $82 $-1 $45 #
shell $-1 $-1 $-1 $83 $-1 $47 #
shell $-1 $-1 $-1 $84 $-1 $49 #
face $-1 $85 $86 $51 $-1 $87 forward single #
face $-1 $88 $89 $52 $-1 $90 forward single #
face $-1 $91 $92 $53 $-1 $93 reversed single #
face $-1 $94 $95 $54 $-1 $96 forward single #
face $-1 $97 $98 $55 $-1 $99 forward single #
face $-1 $100 $101 $56 $-1 $102 reversed single #
face $-1 $103 $104 $57 $-1 $105 forward single #
face $-1 $106 $107 $58 $-1 $108 forward single #
face $-1 $109 $110 $59 $-1 $111 forward single #
face $-1 $112 $113 $60 $-1 $114 reversed single #
face $-1 $115 $116 $61 $-1 $117 forward single #
face $-1 $118 $119 $62 $-1 $120 forward single #
face $-1 $121 $122 $63 $-1 $123 forward single #
face $-1 $124 $125 $64 $-1 $126 reversed single #
face $-1 $127 $128 $65 $-1 $129 forward single #
face $-1 $130 $131 $66 $-1 $132 forward single #
face $-1 $133 $134 $67 $-1 $135 forward single #
face $-1 $136 $137 $51 $-1 $138 reversed single #
loop $-1 $-1 $139 $68 #
plane-surface $-1 0 0 8.2285276113475376 0 0 1 1 0 0 forward_v I I I I #
face $-1 $140 $141 $52 $-1 $142 reversed single #
loop $-1 $-1 $143 $69 #
plane-surface $-1 0 -16.194695183416666 5.5086910796723281 0 0 1 1 0 0 forward_v I I I I #
face $-1 $144 $145 $53 $-1 $146 reversed single #
loop $-1 $-1 $147 $70 #
plane-surface $-1 66.40508731920869 4.171156381261099 113.7628701686869 0 1 0 0.84804810408105047 0 0.52991925155115449 forward_v I I I I #
face $-1 $148 $149 $54 $-1 $150 forward single #
loop $-1 $151 $152 $71 #
cone-surface $-1 36.975607165724412 6.8299393993514883 4.0506067239198522 -0.84804810408105047 0 -0.52991925155115449 0.52991925155115449 0 -0.84804810408105047 1 I I 0 1 1 forward I I I I #
face $-1 $153 $154 $55 $-1 $155 forward single #
loop $-1 $156 $157 $72 #
cone-surface $-1 36.975607165724412 10.818113926487072 4.0506067239198522 -0.84804810408105047 0 -0.52991925155115449 0.52991925155115449 0 -0.84804810408105047 1 I I 0 1 1 forward I I I I #
face $-1 $158 $159 $56 $-1 $160 reversed single #
loop $-1 $-1 $161 $73 #
plane-surface $-1 -90.554926612448412 -8.5033746958558822 68.041253376327973 0 1 0 -0.61566148304635926 0 0.78801074757464917 forward_v I I I I #
face $-1 $162 $163 $57 $-1 $164 forward single #
loop $-1 $165 $166 $74 #
cone-surface $-1 -37.593041985620239 -7.1795554617824831 5.7245545969172751 0.61566148304635926 0 -0.78801074757464917 0.39400537378732459 0 0.30783074152317963 1 I I 0 1 0.5 forward I I I I #
face $-1 $167 $168 $58 $-1 $169 forward single #
loop $-1 $170 $171 $75 #
cone-surface $-1 -37.593041985620239 -5.1938266106723869 5.7245545969172751 0.61566148304635926 0 -0.78801074757464917 0.39400537378732459 0 0.30783074152317963 1 I I 0 1 0.5 forward I I I I #
face $-1 $172 $173 $59 $-1 $174 forward single #
loop $-1 $175 $176 $76 #
cone-surface $-1 -37.593041985620239 -3.2080977595622926 5.7245545969172751 0.61566148304635926 0 -0.78801074757464917 0.39400537378732459 0 0.30783074152317963 1 I I 0 1 0.5 forward I I I I #
face $-1 $177 $178 $60 $-1 $179 reversed single #
loop $-1 $-1 $180 $77 #
plane-surface $-1 -90.554926612448412 2.2930887597552294 68.041253376327973 0 1 0 -0.61566148304635926 0 0.78801074757464917 forward_v I I I I #
face $-1 $181 $182 $61 $-1 $183 forward single #
loop $-1 $184 $185 $78 #
cone-surface $-1 -37.593041985620239 3.6169079938286259 5.7245545969172751 0.61566148304635926 0 -0.78801074757464917 0.39400537378732459 0 0.30783074152317963 1 I I 0 1 0.5 forward I I I I #
face $-1 $186 $187 $62 $-1 $188 forward single #
loop $-1 $189 $190 $79 #
cone-surface $-1 -37.593041985620239 5.602636844938722 5.7245545969172751 0.61566148304635926 0 -0.78801074757464917 0.39400537378732459 0 0.30783074152317963 1 I I 0 1 0.5 forward I I I I #
face $-1 $191 $192 $63 $-1 $193 forward single #
loop $-1 $194 $195 $80 #
cone-surface $-1 -37.593041985620239 7.5883656960488182 5.7245545969172751 0.61566148304635926 0 -0.78801074757464917 0.39400537378732459 0 0.30783074152317963 1 I I 0 1 0.5 forward I I I I #
face $-1 $196 $197 $64 $-1 $198 reversed single #
loop $-1 $-1 $199 $81 #
plane-surface $-1 -90.554926612448412 13.089552215366339 68.041253376327973 0 1 0 -0.61566148304635926 0 0.78801074757464917 forward_v I I I I #
face $-1 $200 $201 $65 $-1 $202 forward single #
loop $-1 $203 $204 $82 #
cone-surface $-1 -37.593041985620239 14.413371449439737 5.7245545969172751 0.61566148304635926 0 -0.78801074757464917 0.39400537378732459 0 0.30783074152317963 1 I I 0 1 0.5 forward I I I I #
face $-1 $205 $206 $66 $-1 $207 forward single #
loop $-1 $208 $209 $83 #
cone-surface $-1 -37.593041985620239 16.399100300549833 5.7245545969172751 0.61566148304635926 0 -0.78801074757464917 0.39400537378732459 0 0.30783074152317963 1 I I 0 1 0.5 forward I I I I #
face $-1 $210 $211 $67 $-1 $212 forward single #
loop $-1 $213 $214 $84 #
cone-surface $-1 -37.593041985620239 18.384829151659929 5.7245545969172751 0.61566148304635926 0 -0.78801074757464917 0.39400537378732459 0 0.30783074152317963 1 I I 0 1 0.5 forward I I I I #
face $-1 $215 $216 $51 $-1 $217 reversed single #
loop $-1 $-1 $218 $85 #
plane-surface $-1 0 0 -8.2285276113475376 0 0 1 1 0 0 forward_v I I I I #
coedge $-1 $219 $220 $221 $222 forward $86 $-1 #
face $-1 $223 $224 $52 $-1 $225 reversed single #
loop $-1 $-1 $226 $88 #
plane-surface $-1 0 -16.194695183416666 1.5826937356895066 0 0 1 1 0 0 forward_v I I I I #
coedge $-1 $227 $228 $229 $230 reversed $89 $-1 #
face $-1 $231 $232 $53 $-1 $233 reversed single #
loop $-1 $-1 $234 $91 #
plane-surface $-1 -2.4284567224784297 8.8240266629192803 70.750899545027409 0.84804810408105047 0 0.52991925155115449 0.52991925155115449 0 -0.84804810408105047 forward_v I I I I #
coedge $-1 $235 $236 $237 $238 reversed $92 $-1 #
face $-1 $-1 $239 $54 $-1 $240 forward single #
loop $-1 $241 $242 $94 #
cone-surface $-1 34.915505325070839 6.8299393993514883 2.7633122647202129 -0.84804810408105047 0 -0.52991925155115449 0.26495962577557725 0 -0.42402405204052523 1 I I -0.70710678118654746 0.70710678118654746 0.5 forward I I I I #
loop $-1 $-1 $243 $71 #
coedge $-1 $152 $152 $244 $245 reversed $95 $-1 #
face $-1 $-1 $246 $55 $-1 $247 forward single #
loop $-1 $248 $249 $97 #
cone-surface $-1 34.915505325070839 10.818113926487072 2.7633122647202129 -0.84804810408105047 0 -0.52991925155115449 0.26495962577557725 0 -0.42402405204052523 1 I I -0.70710678118654746 0.70710678118654746 0.5 forward I I I I #
loop $-1 $-1 $250 $72 #
coedge $-1 $157 $157 $251 $252 reversed $98 $-1 #
face $-1 $253 $254 $56 $-1 $255 reversed single #
loop $-1 $-1 $256 $100 #
plane-surface $-1 -40.583513901181071 -5.1938266106723887 4.0807631193762575 -0.61566148304635926 0 0.78801074757464917 0.78801074757464917 0 0.61566148304635926 forward_v I I I I #
coedge $-1 $257 $258 $259 $260 reversed $101 $-1 #
face $-1 $-1 $261 $57 $-1 $262 forward single #
loop $-1 $263 $264 $103 #
cone-surface $-1 -37.103102872593531 -7.1795554617824831 5.0974611415789877 0.61566148304635926 0 -0.78801074757464917 0.19700268689366229 0 0.15391537076158981 1 I I -0.70710678118654746 0.70710678118654746 0.25 forward I I I I #
loop $-1 $-1 $265 $74 #
coedge $-1 $166 $166 $266 $267 reversed $104 $-1 #
face $-1 $-1 $268 $58 $-1 $269 forward single #
loop $-1 $270 $271 $106 #
cone-surface $-1 -37.103102872593531 -5.1938266106723869 5.0974611415789877 0.61566148304635926 0 -0.78801074757464917 0.19700268689366229 0 0.15391537076158981 1 I I -0.70710678118654746 0.70710678118654746 0.25 forward I I I I #
loop $-1 $-1 $272 $75 #
coedge $-1 $171 $171 $273 $274 reversed $107 $-1 #
face $-1 $-1 $275 $59 $-1 $276 forward single #
loop $-1 $277 $278 $109 #
cone-surface $-1 -37.103102872593531 -3.2080977595622926 5.0974611415789877 0.61566148304635926 0 -0.78801074757464917 0.19700268689366229 0 0.15391537076158981 1 I I -0.70710678118654746 0.70710678118654746 0.25 forward I I I I #
loop $-1 $-1 $279 $76 #
coedge $-1 $176 $176 $280 $281 reversed $110 $-1 #
face $-1 $282 $283 $60 $-1 $284 reversed single #
loop $-1 $-1 $285 $112 #
plane-surface $-1 -40.583513901181071 5.602636844938722 4.0807631193762575 -0.61566148304635926 0 0.78801074757464917 0.78801074757464917 0 0.61566148304635926 forward_v I I I I #
coedge $-1 $286 $287 $288 $289 reversed $113 $-1 #
face $-1 $-1 $290 $61 $-1 $291 forward single #
loop $-1 $292 $293 $115 #
cone-surface $-1 -37.103102872593531 3.6169079938286259 5.0974611415789877 0.61566148304635926 0 -0.78801074757464917 0.19700268689366229 0 0.15391537076158981 1 I I -0.70710678118654746 0.70710678118654746 0.25 forward I I I I #
loop $-1 $-1 $294 $78 #
coedge $-1 $185 $185 $295 $296 reversed $116 $-1 #
face $-1 $-1 $297 $62 $-1 $298 forward single #
loop $-1 $299 $300 $118 #
cone-surface $-1 -37.103102872593531 5.602636844938722 5.0974611415789877 0.61566148304635926 0 -0.78801074757464917 0.19700268689366229 0 0.15391537076158981 1 I I -0.70710678118654746 0.70710678118654746 0.25 forward I I I I #
loop $-1 $-1 $301 $79 #
coedge $-1 $190 $190 $302 $303 reversed $119 $-1 #
face $-1 $-1 $304 $63 $-1 $305 forward single #
loop $-1 $306 $307 $121 #
cone-surface $-1 -37.103102872593531 7.5883656960488182 5.0974611415789877 0.61566148304635926 0 -0.78801074757464917 0.19700268689366229 0 0.15391537076158981 1 I I -0.70710678118654746 0.70710678118654746 0.25 forward I I I I #
loop $-1 $-1 $308 $80 #
coedge $-1 $195 $195 $309 $310 reversed $122 $-1 #
face $-1 $311 $312 $64 $-1 $313 forward single #
loop $-1 $-1 $314 $124 #
plane-surface $-1 -40.583513901181071 16.399100300549833 4.0807631193762575 -0.61566148304635926 0 0.78801074757464917 0.78801074757464917 0 0.61566148304635926 forward_v I I I I #
coedge $-1 $315 $316 $317 $318 reversed $125 $-1 #
face $-1 $-1 $319 $65 $-1 $320 forward single #
loop $-1 $321 $322 $127 #
cone-surface $-1 -37.103102872593531 14.413371449439737 5.0974611415789877 0.61566148304635926 0 -0.78801074757464917 0.19700268689366229 0 0.15391537076158981 1 I I -0.70710678118654746 0.70710678118654746 0.25 forward I I I I #
loop $-1 $-1 $323 $82 #
coedge $-1 $204 $204 $324 $325 reversed $128 $-1 #
face $-1 $-1 $326 $66 $-1 $327 forward single #
loop $-1 $328 $329 $130 #
cone-surface $-1 -37.103102872593531 16.399100300549833 5.0974611415789877 0.61566148304635926 0 -0.78801074757464917 0.19700268689366229 0 0.15391537076158981 1 I I -0.70710678118654746 0.70710678118654746 0.25 forward I I I I #
loop $-1 $-1 $330 $83 #
coedge $-1 $209 $209 $331 $332 reversed $131 $-1 #
face $-1 $-1 $333 $67 $-1 $334 forward single #
loop $-1 $335 $336 $133 #
cone-surface $-1 -37.103102872593531 18.384829151659929 5.0974611415789877 0.61566148304635926 0 -0.78801074757464917 0.19700268689366229 0 0.15391537076158981 1 I I -0.70710678118654746 0.70710678118654746 0.25 forward I I I I #
loop $-1 $-1 $337 $84 #
coedge $-1 $214 $214 $338 $339 reversed $134 $-1 #
face $-1 $340 $341 $51 $-1 $342 reversed single #
loop $-1 $-1 $343 $136 #
plane-surface $-1 0 -19.708648385733326 0 0 1 0 0 0 1 forward_v I I I I #
coedge $-1 $344 $345 $346 $347 forward $137 $-1 #
coedge $-1 $348 $139 $349 $350 forward $86 $-1 #
coedge $-1 $139 $348 $351 $352 forward $86 $-1 #
coedge $-1 $353 $354 $139 $222 reversed $355 $-1 #
edge $-1 $356 -19.708648385733326 $357 19.708648385733326 $221 $358 forward 7 unknown #
face $-1 $359 $360 $52 $-1 $361 reversed single #
loop $-1 $-1 $362 $140 #
plane-surface $-1 0 -12.680741981100006 3.5456924076809173 0 -1 0 0 0 -1 forward_v I I I I #
coedge $-1 $363 $364 $365 $366 reversed $141 $-1 #
coedge $-1 $367 $143 $368 $369 forward $89 $-1 #
coedge $-1 $143 $367 $370 $371 reversed $89 $-1 #
coedge $-1 $372 $373 $143 $230 forward $374 $-1 #
edge $-1 $375 4.5833943893916729 $376 11.611300794024993 $229 $377 forward 7 unknown #
face $-1 $378 $379 $53 $-1 $380 forward single #
loop $-1 $-1 $381 $144 #
plane-surface $-1 66.40508731920869 13.476896944577462 113.7628701686869 0 -1 0 -0.84804810408105047 0 -0.52991925155115449 forward_v I I I I #
coedge $-1 $382 $383 $384 $385 reversed $145 $-1 #
coedge $-1 $236 $147 $386 $387 reversed $92 $-1 #
coedge $-1 $147 $235 $382 $388 reversed $92 $-1 #
coedge $-1 $384 $389 $147 $238 forward $390 $-1 #
edge $-1 $391 48.652907472995913 $392 54.964079581003176 $237 $393 forward 7 unknown #
loop $-1 $-1 $244 $148 #
plane-surface $-1 -2.4284567224784297 8.8240266629192803 70.750899545027409 0.84804810408105047 0 0.52991925155115449 0.52991925155115449 0 -0.84804810408105047 forward_v I I I I #
loop $-1 $-1 $394 $94 #
coedge $-1 $242 $242 $243 $395 reversed $149 $-1 #
coedge $-1 $243 $243 $242 $395 forward $151 $-1 #
coedge $-1 $244 $244 $152 $245 forward $239 $-1 #
edge $-1 $396 0 $396 6.2831853071796004 $244 $397 forward 7 unknown #
loop $-1 $-1 $251 $153 #
plane-surface $-1 -2.4284567224784297 8.8240266629192803 70.750899545027409 0.84804810408105047 0 0.52991925155115449 0.52991925155115449 0 -0.84804810408105047 forward_v I I I I #
loop $-1 $-1 $398 $97 #
coedge $-1 $249 $249 $250 $399 reversed $154 $-1 #
coedge $-1 $250 $250 $249 $399 forward $156 $-1 #
coedge $-1 $251 $251 $157 $252 forward $246 $-1 #
edge $-1 $400 0 $400 6.2831853071796004 $251 $401 forward 7 unknown #
face $-1 $402 $403 $56 $-1 $404 reversed single #
loop $-1 $-1 $405 $158 #
plane-surface $-1 -90.554926612448412 -1.8842785254888961 68.041253376327973 0 -1 0 0.61566148304635926 0 -0.78801074757464917 forward_v I I I I #
coedge $-1 $406 $407 $408 $409 reversed $159 $-1 #
coedge $-1 $258 $161 $410 $411 reversed $101 $-1 #
coedge $-1 $161 $257 $406 $412 reversed $101 $-1 #
coedge $-1 $408 $413 $161 $260 forward $414 $-1 #
edge $-1 $415 4.6939494050431421 $416 10.00284575163456 $259 $417 forward 7 unknown #
loop $-1 $-1 $266 $162 #
plane-surface $-1 -40.583513901181071 -5.1938266106723887 4.0807631193762575 -0.61566148304635926 0 0.78801074757464917 0.78801074757464917 0 0.61566148304635926 forward_v I I I I #
loop $-1 $-1 $418 $103 #
coedge $-1 $264 $264 $265 $419 reversed $163 $-1 #
coedge $-1 $265 $265 $264 $419 forward $165 $-1 #
coedge $-1 $266 $266 $166 $267 forward $261 $-1 #
edge $-1 $420 0 $420 6.2831853071796004 $266 $421 forward 7 unknown #
loop $-1 $-1 $273 $167 #
plane-surface $-1 -40.583513901181071 -5.1938266106723887 4.0807631193762575 -0.61566148304635926 0 0.78801074757464917 0.78801074757464917 0 0.61566148304635926 forward_v I I I I #
loop $-1 $-1 $422 $106 #
coedge $-1 $271 $271 $272 $423 reversed $168 $-1 #
coedge $-1 $272 $272 $271 $423 forward $170 $-1 #
coedge $-1 $273 $273 $171 $274 forward $268 $-1 #
edge $-1 $424 0 $424 6.2831853071796004 $273 $425 forward 7 unknown #
loop $-1 $-1 $280 $172 #
plane-surface $-1 -40.583513901181071 -5.1938266106723887 4.0807631193762575 -0.61566148304635926 0 0.78801074757464917 0.78801074757464917 0 0.61566148304635926 forward_v I I I I #
loop $-1 $-1 $426 $109 #
coedge $-1 $278 $278 $279 $427 reversed $173 $-1 #
coedge $-1 $279 $279 $278 $427 forward $175 $-1 #
coedge $-1 $280 $280 $176 $281 forward $275 $-1 #
edge $-1 $428 0 $428 6.2831853071796004 $280 $429 forward 7 unknown #
face $-1 $430 $431 $60 $-1 $432 forward single #
loop $-1 $-1 $433 $177 #
plane-surface $-1 -90.554926612448412 8.9121849301222156 68.041253376327973 0 -1 0 0.61566148304635926 0 -0.78801074757464917 forward_v I I I I #
coedge $-1 $434 $435 $436 $437 reversed $178 $-1 #
coedge $-1 $287 $180 $438 $439 reversed $113 $-1 #
coedge $-1 $180 $286 $434 $440 reversed $113 $-1 #
coedge $-1 $436 $441 $180 $289 forward $431 $-1 #
edge $-1 $442 4.6939494050431421 $443 10.00284575163456 $288 $444 forward 7 unknown #
loop $-1 $-1 $295 $181 #
plane-surface $-1 -40.583513901181071 5.602636844938722 4.0807631193762575 -0.61566148304635926 0 0.78801074757464917 0.78801074757464917 0 0.61566148304635926 forward_v I I I I #
loop $-1 $-1 $445 $115 #
coedge $-1 $293 $293 $294 $446 reversed $182 $-1 #
coedge $-1 $294 $294 $293 $446 forward $184 $-1 #
coedge $-1 $295 $295 $185 $296 forward $290 $-1 #
edge $-1 $447 0 $447 6.2831853071796004 $295 $448 forward 7 unknown #
loop $-1 $-1 $302 $186 #
plane-surface $-1 -40.583513901181071 5.602636844938722 4.0807631193762575 -0.61566148304635926 0 0.78801074757464917 0.78801074757464917 0 0.61566148304635926 forward_v I I I I #
loop $-1 $-1 $449 $118 #
coedge $-1 $300 $300 $301 $450 reversed $187 $-1 #
coedge $-1 $301 $301 $300 $450 forward $189 $-1 #
coedge $-1 $302 $302 $190 $303 forward $297 $-1 #
edge $-1 $451 0 $451 6.2831853071796004 $302 $452 forward 7 unknown #
loop $-1 $-1 $309 $191 #
plane-surface $-1 -40.583513901181071 5.602636844938722 4.0807631193762575 -0.61566148304635926 0 0.78801074757464917 0.78801074757464917 0 0.61566148304635926 forward_v I I I I #
loop $-1 $-1 $453 $121 #
coedge $-1 $307 $307 $308 $454 reversed $192 $-1 #
coedge $-1 $308 $308 $307 $454 forward $194 $-1 #
coedge $-1 $309 $309 $195 $310 forward $304 $-1 #
edge $-1 $455 0 $455 6.2831853071796004 $309 $456 forward 7 unknown #
face $-1 $457 $458 $64 $-1 $459 reversed single #
loop $-1 $-1 $317 $196 #
plane-surface $-1 0 0 8.2285276113475376 0 0 1 1 0 0 forward_v I I I I #
coedge $-1 $460 $461 $462 $463 reversed $197 $-1 #
coedge $-1 $316 $199 $464 $465 reversed $125 $-1 #
coedge $-1 $199 $315 $460 $466 reversed $125 $-1 #
coedge $-1 $462 $467 $199 $318 forward $312 $-1 #
edge $-1 $468 4.6939494050431421 $469 10.00284575163456 $317 $470 forward 7 unknown #
loop $-1 $-1 $324 $200 #
plane-surface $-1 -40.583513901181071 16.399100300549833 4.0807631193762575 -0.61566148304635926 0 0.78801074757464917 0.78801074757464917 0 0.61566148304635926 forward_v I I I I #
loop $-1 $-1 $471 $127 #
coedge $-1 $322 $322 $323 $472 reversed $201 $-1 #
coedge $-1 $323 $323 $322 $472 forward $203 $-1 #
coedge $-1 $324 $324 $204 $325 forward $319 $-1 #
edge $-1 $473 0 $473 6.2831853071796004 $324 $474 forward 7 unknown #
loop $-1 $-1 $331 $205 #
plane-surface $-1 -40.583513901181071 16.399100300549833 4.0807631193762575 -0.61566148304635926 0 0.78801074757464917 0.78801074757464917 0 0.61566148304635926 forward_v I I I I #
loop $-1 $-1 $475 $130 #
coedge $-1 $329 $329 $330 $476 reversed $206 $-1 #
coedge $-1 $330 $330 $329 $476 forward $208 $-1 #
coedge $-1 $331 $331 $209 $332 forward $326 $-1 #
edge $-1 $477 0 $477 6.2831853071796004 $331 $478 forward 7 unknown #
loop $-1 $-1 $338 $210 #
plane-surface $-1 -40.583513901181071 16.399100300549833 4.0807631193762575 -0.61566148304635926 0 0.78801074757464917 0.78801074757464917 0 0.61566148304635926 forward_v I I I I #
loop $-1 $-1 $479 $133 #
coedge $-1 $336 $336 $337 $480 reversed $211 $-1 #
coedge $-1 $337 $337 $336 $480 forward $213 $-1 #
coedge $-1 $338 $338 $214 $339 forward $333 $-1 #
edge $-1 $481 0 $481 6.2831853071796004 $338 $482 forward 7 unknown #
face $-1 $483 $484 $51 $-1 $485 reversed single #
loop $-1 $-1 $486 $215 #
plane-surface $-1 -40.583513901181064 0 0 1 0 0 0 0 -1 forward_v I I I I #
coedge $-1 $487 $351 $488 $489 forward $216 $-1 #
coedge $-1 $490 $218 $487 $491 forward $137 $-1 #
coedge $-1 $218 $490 $492 $493 forward $137 $-1 #
coedge $-1 $354 $353 $218 $347 reversed $355 $-1 #
edge $-1 $494 -19.708648385733326 $495 19.708648385733326 $346 $496 forward 7 unknown #
coedge $-1 $220 $219 $497 $498 forward $86 $-1 #
coedge $-1 $499 $500 $219 $350 reversed $484 $-1 #
edge $-1 $357 -40.583513901181064 $501 40.583513901181064 $349 $502 forward 7 unknown #
coedge $-1 $343 $503 $220 $352 reversed $216 $-1 #
edge $-1 $504 -40.583513901181064 $356 40.583513901181064 $351 $505 forward 7 unknown #
coedge $-1 $346 $221 $503 $506 forward $355 $-1 #
coedge $-1 $221 $346 $499 $507 reversed $355 $-1 #
loop $-1 $-1 $353 $483 #
vertex $-1 $222 $508 #
vertex $-1 $222 $509 #
straight-curve $-1 40.583513901181064 0 8.2285276113475376 0 1 0 I I #
face $-1 $510 $511 $52 $-1 $512 reversed single #
loop $-1 $-1 $513 $223 #
plane-surface $-1 -40.583513901181064 0 0 1 0 0 0 0 -1 forward_v I I I I #
coedge $-1 $514 $368 $373 $515 reversed $224 $-1 #
coedge $-1 $516 $226 $517 $518 reversed $141 $-1 #
coedge $-1 $226 $516 $514 $519 forward $141 $-1 #
coedge $-1 $373 $372 $226 $366 forward $374 $-1 #
edge $-1 $520 -11.611300794024993 $521 -4.5833943893916729 $365 $522 forward 7 unknown #
coedge $-1 $228 $227 $513 $523 reversed $89 $-1 #
coedge $-1 $362 $524 $227 $369 reversed $224 $-1 #
edge $-1 $375 -40.583513901181064 $525 40.583513901181064 $368 $526 forward 7 unknown #
coedge $-1 $527 $528 $228 $371 forward $511 $-1 #
edge $-1 $376 -40.583513901181064 $529 40.583513901181064 $370 $530 forward 7 unknown #
coedge $-1 $365 $229 $528 $531 forward $374 $-1 #
coedge $-1 $229 $365 $362 $515 forward $374 $-1 #
loop $-1 $-1 $229 $510 #
vertex $-1 $230 $532 #
vertex $-1 $531 $533 #
straight-curve $-1 40.583513901181064 -8.0973475917083331 5.5086910796723281 0 -1 0 I I #
face $-1 $-1 $390 $53 $-1 $534 reversed single #
loop $-1 $-1 $535 $231 #
plane-surface $-1 0 0 8.2285276113475376 0 0 1 1 0 0 forward_v I I I I #
coedge $-1 $536 $537 $538 $539 reversed $232 $-1 #
coedge $-1 $540 $234 $236 $388 forward $145 $-1 #
coedge $-1 $234 $540 $536 $541 forward $145 $-1 #
coedge $-1 $538 $237 $234 $385 forward $390 $-1 #
edge $-1 $392 -0.24085695019854114 $542 9.0648836131178214 $384 $543 forward 7 unknown #
coedge $-1 $544 $545 $235 $387 forward $379 $-1 #
edge $-1 $546 3.4373123478894883 $391 7.3809702415767191 $386 $547 forward 7 unknown #
edge $-1 $392 -81.167027802362142 $546 -73.725030022240844 $236 $548 forward 7 unknown #
coedge $-1 $237 $538 $544 $549 reversed $390 $-1 #
loop $-1 $-1 $538 $378 #
vertex $-1 $549 $550 #
vertex $-1 $238 $551 #
straight-curve $-1 40.583513901181064 4.171156381261099 56.881435084343451 0 0 -1 I I #
coedge $-1 $394 $394 $-1 $552 reversed $241 $-1 #
edge $-1 $553 0 $553 6.2831853071796004 $242 $554 forward 7 unknown #
vertex $-1 $245 $555 #
ellipse-curve $-1 38.611684954337449 6.8299393993514883 5.0729415573439116 0.84804810408105047 0 0.52991925155115449 0.52991925155115449 0 -0.84804810408105047 1 I I #
coedge $-1 $398 $398 $-1 $556 reversed $248 $-1 #
edge $-1 $557 0 $557 6.2831853071796004 $249 $558 forward 7 unknown #
vertex $-1 $252 $559 #
ellipse-curve $-1 38.611684954337449 10.818113926487072 5.0729415573439116 0.84804810408105047 0 0.52991925155115449 0.52991925155115449 0 -0.84804810408105047 1 I I #
face $-1 $-1 $414 $56 $-1 $560 forward single #
loop $-1 $-1 $561 $253 #
plane-surface $-1 -40.583513901181064 0 0 1 0 0 0 0 -1 forward_v I I I I #
coedge $-1 $562 $563 $564 $565 reversed $254 $-1 #
coedge $-1 $566 $256 $258 $412 forward $159 $-1 #
coedge $-1 $256 $566 $562 $567 forward $159 $-1 #
coedge $-1 $564 $259 $256 $409 forward $414 $-1 #
edge $-1 $416 -5.9064613905196879 $568 0.71263477984729828 $408 $569 forward 7 unknown #
coedge $-1 $570 $571 $257 $411 forward $403 $-1 #
edge $-1 $572 -29.939863568787722 $415 -25.792099076816449 $410 $573 forward 7 unknown #
edge $-1 $416 -6.7370862173278994 $572 -8.8800565823946346e-015 $258 $574 forward 7 unknown #
coedge $-1 $259 $564 $570 $575 forward $414 $-1 #
loop $-1 $-1 $564 $402 #
vertex $-1 $411 $576 #
vertex $-1 $260 $577 #
straight-curve $-1 -45.277463306224206 -8.5033746958558822 8.2285276113475376 1 0 0 I I #
coedge $-1 $418 $418 $-1 $578 reversed $263 $-1 #
edge $-1 $579 0 $579 6.2831853071796004 $264 $580 forward 7 unknown #
vertex $-1 $267 $581 #
ellipse-curve $-1 -37.929065727885359 -7.1795554617824831 6.1546453653619002 -0.61566148304635926 0 0.78801074757464917 0.39400537378732459 0 0.30783074152317963 1 I I #
coedge $-1 $422 $422 $-1 $582 reversed $270 $-1 #
edge $-1 $583 0 $583 6.2831853071796004 $271 $584 forward 7 unknown #
vertex $-1 $274 $585 #
ellipse-curve $-1 -37.929065727885359 -5.1938266106723869 6.1546453653619002 -0.61566148304635926 0 0.78801074757464917 0.39400537378732459 0 0.30783074152317963 1 I I #
coedge $-1 $426 $426 $-1 $586 reversed $277 $-1 #
edge $-1 $587 0 $587 6.2831853071796004 $278 $588 forward 7 unknown #
vertex $-1 $281 $589 #
ellipse-curve $-1 -37.929065727885359 -3.2080977595622926 6.1546453653619002 -0.61566148304635926 0 0.78801074757464917 0.39400537378732459 0 0.30783074152317963 1 I I #
face $-1 $-1 $590 $60 $-1 $591 reversed single #
loop $-1 $-1 $288 $282 #
plane-surface $-1 0 0 8.2285276113475376 0 0 1 1 0 0 forward_v I I I I #
coedge $-1 $592 $593 $594 $595 reversed $283 $-1 #
coedge $-1 $596 $285 $287 $440 forward $178 $-1 #
coedge $-1 $285 $596 $592 $597 forward $178 $-1 #
coedge $-1 $594 $288 $285 $437 forward $431 $-1 #
edge $-1 $443 -0.50822966271413161 $598 6.1108665076528546 $436 $599 forward 7 unknown #
coedge $-1 $600 $601 $286 $439 forward $590 $-1 #
edge $-1 $602 -29.939863568787722 $442 -25.792099076816449 $438 $603 forward 7 unknown #
edge $-1 $443 -6.7370862173278994 $602 -8.8800565823946346e-015 $287 $604 forward 7 unknown #
coedge $-1 $288 $594 $600 $605 forward $431 $-1 #
vertex $-1 $289 $606 #
vertex $-1 $289 $607 #
straight-curve $-1 -45.277463306224206 2.2930887597552294 8.2285276113475376 1 0 0 I I #
coedge $-1 $445 $445 $-1 $608 reversed $292 $-1 #
edge $-1 $609 0 $609 6.2831853071796004 $293 $610 forward 7 unknown #
vertex $-1 $296 $611 #
ellipse-curve $-1 -37.929065727885359 3.6169079938286259 6.1546453653619002 -0.61566148304635926 0 0.78801074757464917 0.39400537378732459 0 0.30783074152317963 1 I I #
coedge $-1 $449 $449 $-1 $612 reversed $299 $-1 #
edge $-1 $613 0 $613 6.2831853071796004 $300 $614 forward 7 unknown #
vertex $-1 $303 $615 #
ellipse-curve $-1 -37.929065727885359 5.602636844938722 6.1546453653619002 -0.61566148304635926 0 0.78801074757464917 0.39400537378732459 0 0.30783074152317963 1 I I #
coedge $-1 $453 $453 $-1 $616 reversed $306 $-1 #
edge $-1 $617 0 $617 6.2831853071796004 $307 $618 forward 7 unknown #
vertex $-1 $310 $619 #
ellipse-curve $-1 -37.929065727885359 7.5883656960488182 6.1546453653619002 -0.61566148304635926 0 0.78801074757464917 0.39400537378732459 0 0.30783074152317963 1 I I #
face $-1 $-1 $620 $64 $-1 $621 reversed single #
loop $-1 $-1 $622 $311 #
plane-surface $-1 0 19.708648385733326 0 0 -1 0 0 0 -1 forward_v I I I I #
coedge $-1 $623 $314 $316 $466 forward $197 $-1 #
coedge $-1 $314 $623 $622 $624 reversed $197 $-1 #
coedge $-1 $625 $317 $314 $463 forward $312 $-1 #
edge $-1 $469 4.8900020650914229 $626 11.50909823545841 $462 $627 forward 7 unknown #
coedge $-1 $628 $629 $315 $465 forward $620 $-1 #
edge $-1 $630 -29.939863568787722 $468 -25.792099076816449 $464 $631 forward 7 unknown #
edge $-1 $469 -6.7370862173278994 $630 -8.8800565823946346e-015 $316 $632 forward 7 unknown #
coedge $-1 $317 $625 $628 $633 forward $312 $-1 #
vertex $-1 $465 $634 #
vertex $-1 $318 $635 #
straight-curve $-1 -45.277463306224206 13.089552215366339 8.2285276113475376 1 0 0 I I #
coedge $-1 $471 $471 $-1 $636 reversed $321 $-1 #
edge $-1 $637 0 $637 6.2831853071796004 $322 $638 forward 7 unknown #
vertex $-1 $325 $639 #
ellipse-curve $-1 -37.929065727885359 14.413371449439737 6.1546453653619002 -0.61566148304635926 0 0.78801074757464917 0.39400537378732459 0 0.30783074152317963 1 I I #
coedge $-1 $475 $475 $-1 $640 reversed $328 $-1 #
edge $-1 $641 0 $641 6.2831853071796004 $329 $642 forward 7 unknown #
vertex $-1 $332 $643 #
ellipse-curve $-1 -37.929065727885359 16.399100300549833 6.1546453653619002 -0.61566148304635926 0 0.78801074757464917 0.39400537378732459 0 0.30783074152317963 1 I I #
coedge $-1 $479 $479 $-1 $644 reversed $335 $-1 #
edge $-1 $645 0 $645 6.2831853071796004 $336 $646 forward 7 unknown #
vertex $-1 $339 $647 #
ellipse-curve $-1 -37.929065727885359 18.384829151659929 6.1546453653619002 -0.61566148304635926 0 0.78801074757464917 0.39400537378732459 0 0.30783074152317963 1 I I #
face $-1 $-1 $355 $51 $-1 $648 reversed single #
loop $-1 $-1 $499 $340 #
plane-surface $-1 0 19.708648385733326 0 0 -1 0 0 0 -1 forward_v I I I I #
coedge $-1 $649 $497 $500 $650 forward $341 $-1 #
coedge $-1 $503 $343 $344 $491 reversed $216 $-1 #
coedge $-1 $497 $649 $343 $489 reversed $341 $-1 #
edge $-1 $504 -8.2285276113475376 $651 8.2285276113475376 $488 $652 forward 7 unknown #
coedge $-1 $345 $344 $649 $653 forward $137 $-1 #
edge $-1 $495 -40.583513901181064 $651 40.583513901181064 $487 $654 forward 7 unknown #
coedge $-1 $500 $499 $345 $493 reversed $484 $-1 #
edge $-1 $655 -40.583513901181064 $494 40.583513901181064 $492 $656 forward 7 unknown #
vertex $-1 $347 $657 #
vertex $-1 $506 $658 #
straight-curve $-1 40.583513901181064 0 -8.2285276113475376 0 -1 0 I I #
coedge $-1 $486 $488 $348 $498 reversed $341 $-1 #
edge $-1 $501 -19.708648385733326 $504 19.708648385733326 $497 $659 forward 7 unknown #
coedge $-1 $492 $349 $354 $507 forward $484 $-1 #
coedge $-1 $349 $492 $486 $650 reversed $484 $-1 #
vertex $-1 $350 $660 #
straight-curve $-1 0 19.708648385733326 8.2285276113475376 -1 0 0 I I #
coedge $-1 $351 $487 $353 $506 reversed $216 $-1 #
vertex $-1 $498 $661 #
straight-curve $-1 0 -19.708648385733326 8.2285276113475376 1 0 0 I I #
edge $-1 $356 -8.2285276113475376 $495 8.2285276113475376 $353 $662 forward 7 unknown #
edge $-1 $357 -8.2285276113475376 $494 8.2285276113475376 $354 $663 forward 7 unknown #
point $-1 40.583513901181064 -19.708648385733326 8.2285276113475376 #
point $-1 40.583513901181064 19.708648385733326 8.2285276113475376 #
face $-1 $-1 $374 $52 $-1 $664 reversed single #
loop $-1 $-1 $370 $359 #
plane-surface $-1 0 -19.708648385733326 0 0 1 0 0 0 1 forward_v I I I I #
coedge $-1 $665 $666 $367 $523 forward $360 $-1 #
coedge $-1 $524 $362 $364 $519 reversed $224 $-1 #
edge $-1 $521 -0.1901524681509521 $375 3.7358448758318694 $373 $667 forward 7 unknown #
coedge $-1 $364 $363 $668 $669 reversed $141 $-1 #
coedge $-1 $528 $527 $363 $518 forward $511 $-1 #
edge $-1 $670 -40.583513901181064 $520 40.583513901181064 $517 $671 forward 7 unknown #
edge $-1 $672 -40.583513901181064 $521 40.583513901181064 $514 $673 forward 7 unknown #
vertex $-1 $518 $674 #
vertex $-1 $366 $675 #
straight-curve $-1 40.583513901181064 -8.0973475917083331 1.5826937356895066 0 1 0 I I #
edge $-1 $529 -11.611300794024993 $525 -4.5833943893916729 $513 $676 forward 7 unknown #
coedge $-1 $368 $514 $665 $677 reversed $224 $-1 #
vertex $-1 $523 $678 #
straight-curve $-1 0 -12.680741981100006 5.5086910796723281 -1 0 0 I I #
coedge $-1 $517 $370 $666 $679 forward $511 $-1 #
coedge $-1 $370 $517 $372 $531 reversed $511 $-1 #
vertex $-1 $679 $680 #
straight-curve $-1 0 -19.708648385733326 5.5086910796723281 -1 0 0 I I #
edge $-1 $376 -5.5086910796723281 $520 -1.5826937356895066 $372 $681 forward 7 unknown #
point $-1 40.583513901181064 -12.680741981100006 5.5086910796723281 #
point $-1 40.583513901181064 -19.708648385733326 5.5086910796723281 #
plane-surface $-1 40.583513901181064 0 0 -1 0 0 0 0 1 forward_v I I I I #
coedge $-1 $545 $544 $537 $682 forward $379 $-1 #
coedge $-1 $537 $381 $383 $541 reversed $232 $-1 #
coedge $-1 $381 $536 $535 $682 reversed $232 $-1 #
coedge $-1 $389 $384 $381 $539 forward $390 $-1 #
edge $-1 $542 -54.964079581003176 $683 -48.652907472995913 $538 $684 forward 7 unknown #
coedge $-1 $383 $382 $545 $685 reversed $145 $-1 #
edge $-1 $686 73.725030022240844 $542 81.167027802362142 $536 $687 forward 7 unknown #
vertex $-1 $385 $688 #
straight-curve $-1 40.583513901181064 4.4120133314596401 1.917355503340282 0 1 0 I I #
coedge $-1 $535 $386 $389 $549 forward $379 $-1 #
coedge $-1 $386 $535 $540 $685 forward $379 $-1 #
vertex $-1 $387 $689 #
straight-curve $-1 33.202543659604345 4.171156381261099 8.2285276113475376 1 0 0 I I #
straight-curve $-1 -2.4284567224784297 4.171156381261099 70.750899545027409 -0.52991925155115449 0 0.84804810408105047 I I #
edge $-1 $391 4.171156381261099 $683 13.476896944577462 $389 $690 forward 7 unknown #
point $-1 40.583513901181064 4.171156381261099 8.2285276113475376 #
point $-1 40.583513901181064 4.171156381261099 1.9173555033402749 #
edge $-1 $691 1 $691 0 $394 $-1 forward 7 unknown #
vertex $-1 $395 $692 #
ellipse-curve $-1 35.339529377111361 6.8299393993514883 3.0282718904957902 0.84804810408105047 0 0.52991925155115449 0.52991925155115449 0 -0.84804810408105047 1 I I #
point $-1 39.141604205888605 6.8299393993514883 4.2248934532628635 #
edge $-1 $693 1 $693 0 $398 $-1 forward 7 unknown #
vertex $-1 $399 $694 #
ellipse-curve $-1 35.339529377111361 10.818113926487072 3.0282718904957902 0.84804810408105047 0 0.52991925155115449 0.52991925155115449 0 -0.84804810408105047 1 I I #
point $-1 39.141604205888605 10.818113926487072 4.2248934532628635 #
plane-surface $-1 0 0 8.2285276113475376 0 0 1 1 0 0 forward_v I I I I #
coedge $-1 $571 $570 $563 $695 forward $403 $-1 #
coedge $-1 $563 $405 $407 $567 reversed $254 $-1 #
coedge $-1 $405 $562 $561 $695 reversed $254 $-1 #
coedge $-1 $413 $408 $405 $565 forward $414 $-1 #
edge $-1 $568 -10.00284575163456 $696 -4.6939494050431421 $564 $697 forward 7 unknown #
coedge $-1 $407 $406 $571 $698 reversed $159 $-1 #
edge $-1 $699 8.8800565823946346e-015 $568 6.7370862173278994 $562 $700 forward 7 unknown #
vertex $-1 $409 $701 #
straight-curve $-1 -35.274617554589646 -2.5969133053361944 8.2285276113475376 0 1 0 I I #
coedge $-1 $561 $410 $413 $575 reversed $403 $-1 #
coedge $-1 $410 $561 $566 $698 forward $403 $-1 #
vertex $-1 $411 $702 #
straight-curve $-1 -40.583513901181064 -8.5033746958558822 34.020626688163986 0 0 1 I I #
straight-curve $-1 -40.583513901181071 -8.5033746958558822 4.0807631193762575 -0.78801074757464917 0 -0.61566148304635926 I I #
edge $-1 $696 1.8842785254888961 $415 8.5033746958558822 $570 $703 forward 7 unknown #
point $-1 -40.583513901181064 -8.5033746958558822 8.2285276113475376 #
point $-1 -35.274617554589646 -8.5033746958558822 8.2285276113475376 #
edge $-1 $704 1 $704 0 $418 $-1 forward 7 unknown #
vertex $-1 $419 $705 #
ellipse-curve $-1 -37.25701824335512 -7.1795554617824831 5.29446382847265 -0.61566148304635926 0 0.78801074757464917 0.39400537378732459 0 0.30783074152317963 1 I I #
point $-1 -37.535060354098029 -7.1795554617824831 6.46247610688508 #
edge $-1 $706 1 $706 0 $422 $-1 forward 7 unknown #
vertex $-1 $423 $707 #
ellipse-curve $-1 -37.25701824335512 -5.1938266106723869 5.29446382847265 -0.61566148304635926 0 0.78801074757464917 0.39400537378732459 0 0.30783074152317963 1 I I #
point $-1 -37.535060354098029 -5.1938266106723869 6.46247610688508 #
edge $-1 $708 1 $708 0 $426 $-1 forward 7 unknown #
vertex $-1 $427 $709 #
ellipse-curve $-1 -37.25701824335512 -3.2080977595622926 5.29446382847265 -0.61566148304635926 0 0.78801074757464917 0.39400537378732459 0 0.30783074152317963 1 I I #
point $-1 -37.535060354098029 -3.2080977595622926 6.46247610688508 #
loop $-1 $-1 $438 $430 #
plane-surface $-1 -40.583513901181064 0 0 1 0 0 0 0 -1 forward_v I I I I #
coedge $-1 $593 $433 $435 $597 reversed $283 $-1 #
coedge $-1 $433 $592 $710 $711 reversed $283 $-1 #
coedge $-1 $441 $436 $433 $595 forward $431 $-1 #
edge $-1 $598 -10.00284575163456 $712 -4.6939494050431421 $594 $713 forward 7 unknown #
coedge $-1 $435 $434 $601 $714 reversed $178 $-1 #
edge $-1 $715 8.8800565823946346e-015 $598 6.7370862173278994 $592 $716 forward 7 unknown #
vertex $-1 $437 $717 #
straight-curve $-1 -35.274617554589646 2.801318422469361 8.2285276113475376 0 1 0 I I #
coedge $-1 $710 $438 $441 $605 reversed $590 $-1 #
coedge $-1 $438 $710 $596 $714 forward $590 $-1 #
vertex $-1 $439 $718 #
straight-curve $-1 -40.583513901181064 2.2930887597552294 34.020626688163986 0 0 1 I I #
straight-curve $-1 -40.583513901181071 2.2930887597552294 4.0807631193762575 -0.78801074757464917 0 -0.61566148304635926 I I #
edge $-1 $712 -8.9121849301222156 $442 -2.2930887597552294 $600 $719 forward 7 unknown #
point $-1 -40.583513901181064 2.2930887597552294 8.2285276113475376 #
point $-1 -35.274617554589646 2.2930887597552294 8.2285276113475376 #
edge $-1 $720 1 $720 0 $445 $-1 forward 7 unknown #
vertex $-1 $446 $721 #
ellipse-curve $-1 -37.25701824335512 3.6169079938286259 5.29446382847265 -0.61566148304635926 0 0.78801074757464917 0.39400537378732459 0 0.30783074152317963 1 I I #
point $-1 -37.535060354098029 3.6169079938286259 6.46247610688508 #
edge $-1 $722 1 $722 0 $449 $-1 forward 7 unknown #
vertex $-1 $450 $723 #
ellipse-curve $-1 -37.25701824335512 5.602636844938722 5.29446382847265 -0.61566148304635926 0 0.78801074757464917 0.39400537378732459 0 0.30783074152317963 1 I I #
point $-1 -37.535060354098029 5.602636844938722 6.46247610688508 #
edge $-1 $724 1 $724 0 $453 $-1 forward 7 unknown #
vertex $-1 $454 $725 #
ellipse-curve $-1 -37.25701824335512 7.5883656960488182 5.29446382847265 -0.61566148304635926 0 0.78801074757464917 0.39400537378732459 0 0.30783074152317963 1 I I #
point $-1 -37.535060354098029 7.5883656960488182 6.46247610688508 #
loop $-1 $-1 $464 $457 #
plane-surface $-1 -40.583513901181064 0 0 1 0 0 0 0 -1 forward_v I I I I #
coedge $-1 $726 $727 $461 $624 forward $458 $-1 #
coedge $-1 $461 $460 $629 $728 reversed $197 $-1 #
edge $-1 $626 7.9968520098919971 $729 14.733938227219888 $622 $730 forward 7 unknown #
coedge $-1 $467 $462 $727 $731 forward $312 $-1 #
vertex $-1 $731 $732 #
straight-curve $-1 -35.274617554589646 8.1995501502749164 8.2285276113475376 0 1 0 I I #
coedge $-1 $733 $464 $467 $633 reversed $620 $-1 #
coedge $-1 $464 $733 $623 $728 forward $620 $-1 #
vertex $-1 $465 $734 #
straight-curve $-1 -40.583513901181064 13.089552215366339 34.020626688163986 0 0 1 I I #
straight-curve $-1 -40.583513901181071 13.089552215366339 4.0807631193762575 -0.78801074757464917 0 -0.61566148304635926 I I #
edge $-1 $735 -19.708648385733326 $468 -13.089552215366339 $628 $736 forward 7 unknown #
point $-1 -40.583513901181064 13.089552215366339 8.2285276113475376 #
point $-1 -35.274617554589646 13.089552215366339 8.2285276113475376 #
edge $-1 $737 1 $737 0 $471 $-1 forward 7 unknown #
vertex $-1 $472 $738 #
ellipse-curve $-1 -37.25701824335512 14.413371449439737 5.29446382847265 -0.61566148304635926 0 0.78801074757464917 0.39400537378732459 0 0.30783074152317963 1 I I #
point $-1 -37.535060354098029 14.413371449439737 6.46247610688508 #
edge $-1 $739 1 $739 0 $475 $-1 forward 7 unknown #
vertex $-1 $476 $740 #
ellipse-curve $-1 -37.25701824335512 16.399100300549833 5.29446382847265 -0.61566148304635926 0 0.78801074757464917 0.39400537378732459 0 0.30783074152317963 1 I I #
point $-1 -37.535060354098029 16.399100300549833 6.46247610688508 #
edge $-1 $741 1 $741 0 $479 $-1 forward 7 unknown #
vertex $-1 $480 $742 #
ellipse-curve $-1 -37.25701824335512 18.384829151659929 5.29446382847265 -0.61566148304635926 0 0.78801074757464917 0.39400537378732459 0 0.30783074152317963 1 I I #
point $-1 -37.535060354098029 18.384829151659929 6.46247610688508 #
plane-surface $-1 40.583513901181064 0 0 -1 0 0 0 0 1 forward_v I I I I #
coedge $-1 $488 $486 $490 $653 reversed $341 $-1 #
edge $-1 $501 -8.2285276113475376 $655 8.2285276113475376 $500 $743 forward 7 unknown #
vertex $-1 $653 $744 #
straight-curve $-1 -40.583513901181064 -19.708648385733326 0 0 0 -1 I I #
edge $-1 $651 -19.708648385733326 $655 19.708648385733326 $649 $745 forward 7 unknown #
straight-curve $-1 0 -19.708648385733326 -8.2285276113475376 -1 0 0 I I #
vertex $-1 $493 $746 #
straight-curve $-1 0 19.708648385733326 -8.2285276113475376 1 0 0 I I #
point $-1 40.583513901181064 19.708648385733326 -8.2285276113475376 #
point $-1 40.583513901181064 -19.708648385733326 -8.2285276113475376 #
straight-curve $-1 -40.583513901181064 0 8.2285276113475376 0 -1 0 I I #
point $-1 -40.583513901181064 19.708648385733326 8.2285276113475376 #
point $-1 -40.583513901181064 -19.708648385733326 8.2285276113475376 #
straight-curve $-1 40.583513901181064 -19.708648385733326 0 0 0 -1 I I #
straight-curve $-1 40.583513901181064 19.708648385733326 0 0 0 -1 I I #
plane-surface $-1 40.583513901181064 0 0 -1 0 0 0 0 1 forward_v I I I I #
coedge $-1 $668 $513 $524 $677 forward $360 $-1 #
coedge $-1 $513 $668 $527 $679 reversed $360 $-1 #
straight-curve $-1 40.583513901181064 -12.680741981100006 1.7728462038404587 0 0 1 I I #
coedge $-1 $666 $665 $516 $669 forward $360 $-1 #
edge $-1 $672 4.5833943893916729 $670 11.611300794024993 $668 $747 forward 7 unknown #
vertex $-1 $518 $748 #
straight-curve $-1 0 -19.708648385733326 1.5826937356895066 1 0 0 I I #
vertex $-1 $669 $749 #
straight-curve $-1 0 -12.680741981100006 1.5826937356895066 1 0 0 I I #
point $-1 40.583513901181064 -19.708648385733326 1.5826937356895066 #
point $-1 40.583513901181064 -12.680741981100006 1.5826937356895066 #
straight-curve $-1 -40.583513901181064 -8.0973475917083331 5.5086910796723281 0 1 0 I I #
edge $-1 $525 -3.7358448758318694 $672 0.1901524681509521 $665 $750 forward 7 unknown #
point $-1 -40.583513901181064 -12.680741981100006 5.5086910796723281 #
edge $-1 $529 -5.5086910796723281 $670 -1.5826937356895066 $666 $751 forward 7 unknown #
point $-1 -40.583513901181064 -19.708648385733326 5.5086910796723281 #
straight-curve $-1 40.583513901181064 -19.708648385733326 0 0 0 -1 I I #
edge $-1 $683 -7.3809702415767191 $686 -3.4373123478894883 $535 $752 forward 7 unknown #
vertex $-1 $682 $753 #
straight-curve $-1 40.583513901181064 13.476896944577462 56.881435084343451 0 0 1 I I #
edge $-1 $686 -9.0648836131178214 $546 0.24085695019854114 $545 $754 forward 7 unknown #
vertex $-1 $685 $755 #
straight-curve $-1 -2.4284567224784297 13.476896944577462 70.750899545027409 0.52991925155115449 0 -0.84804810408105047 I I #
point $-1 40.583513901181064 13.476896944577462 1.9173555033402749 #
point $-1 36.639856007493833 4.171156381261099 8.2285276113475376 #
straight-curve $-1 40.583513901181064 0 8.2285276113475376 0 1 0 I I #
vertex $-1 $552 $756 #
point $-1 35.869448628662518 6.8299393993514883 2.1802237864147394 #
vertex $-1 $556 $757 #
point $-1 35.869448628662518 10.818113926487072 2.1802237864147394 #
edge $-1 $696 25.792099076816449 $699 29.939863568787722 $561 $758 forward 7 unknown #
vertex $-1 $575 $759 #
straight-curve $-1 -45.277463306224206 -1.8842785254888961 8.2285276113475376 -1 0 0 I I #
edge $-1 $699 -0.71263477984729828 $572 5.9064613905196879 $571 $760 forward 7 unknown #
vertex $-1 $698 $761 #
straight-curve $-1 -40.583513901181071 -1.8842785254888961 4.0807631193762575 0.78801074757464917 0 0.61566148304635926 I I #
point $-1 -35.274617554589646 -1.8842785254888961 8.2285276113475376 #
point $-1 -40.583513901181064 -8.5033746958558822 4.0807631193762628 #
straight-curve $-1 -40.583513901181064 0 8.2285276113475376 0 -1 0 I I #
vertex $-1 $578 $762 #
point $-1 -36.863012869567797 -7.1795554617824831 5.6022945699958298 #
vertex $-1 $582 $763 #
point $-1 -36.863012869567797 -5.1938266106723869 5.6022945699958298 #
vertex $-1 $586 $764 #
point $-1 -36.863012869567797 -3.2080977595622926 5.6022945699958298 #
coedge $-1 $601 $600 $593 $711 forward $590 $-1 #
edge $-1 $712 25.792099076816449 $715 29.939863568787722 $710 $765 forward 7 unknown #
vertex $-1 $605 $766 #
straight-curve $-1 -45.277463306224206 8.9121849301222156 8.2285276113475376 -1 0 0 I I #
edge $-1 $715 -6.1108665076528546 $602 0.50822966271413161 $601 $767 forward 7 unknown #
vertex $-1 $714 $768 #
straight-curve $-1 -40.583513901181071 8.9121849301222156 4.0807631193762575 0.78801074757464917 0 0.61566148304635926 I I #
point $-1 -35.274617554589646 8.9121849301222156 8.2285276113475376 #
point $-1 -40.583513901181064 2.2930887597552294 4.0807631193762628 #
straight-curve $-1 -40.583513901181064 0 8.2285276113475376 0 -1 0 I I #
vertex $-1 $608 $769 #
point $-1 -36.863012869567797 3.6169079938286259 5.6022945699958298 #
vertex $-1 $612 $770 #
point $-1 -36.863012869567797 5.602636844938722 5.6022945699958298 #
vertex $-1 $616 $771 #
point $-1 -36.863012869567797 7.5883656960488182 5.6022945699958298 #
coedge $-1 $727 $622 $733 $772 reversed $458 $-1 #
coedge $-1 $622 $726 $625 $731 reversed $458 $-1 #
edge $-1 $729 -11.50909823545841 $630 -4.8900020650914229 $629 $773 forward 7 unknown #
vertex $-1 $624 $774 #
straight-curve $-1 -28.973012224030818 19.708648385733326 13.151881379459903 -0.78801074757464917 0 -0.61566148304635926 I I #
edge $-1 $626 35.274617554589646 $735 40.583513901181064 $727 $775 forward 7 unknown #
point $-1 -35.274617554589646 19.708648385733326 8.2285276113475376 #
coedge $-1 $629 $628 $726 $772 forward $620 $-1 #
point $-1 -40.583513901181064 13.089552215366339 4.0807631193762628 #
vertex $-1 $731 $776 #
straight-curve $-1 -40.583513901181064 0 8.2285276113475376 0 -1 0 I I #
vertex $-1 $636 $777 #
point $-1 -36.863012869567797 14.413371449439737 5.6022945699958298 #
vertex $-1 $640 $778 #
point $-1 -36.863012869567797 16.399100300549833 5.6022945699958298 #
vertex $-1 $644 $779 #
point $-1 -36.863012869567797 18.384829151659929 5.6022945699958298 #
straight-curve $-1 -40.583513901181064 19.708648385733326 0 0 0 -1 I I #
point $-1 -40.583513901181064 -19.708648385733326 -8.2285276113475376 #
straight-curve $-1 -40.583513901181064 0 -8.2285276113475376 0 1 0 I I #
point $-1 -40.583513901181064 19.708648385733326 -8.2285276113475376 #
straight-curve $-1 -40.583513901181064 -8.0973475917083331 1.5826937356895066 0 -1 0 I I #
point $-1 -40.583513901181064 -19.708648385733326 1.5826937356895066 #
point $-1 -40.583513901181064 -12.680741981100006 1.5826937356895066 #
straight-curve $-1 -40.583513901181064 -12.680741981100006 1.7728462038404587 0 0 -1 I I #
straight-curve $-1 -40.583513901181064 -19.708648385733326 0 0 0 -1 I I #
straight-curve $-1 33.202543659604345 13.476896944577462 8.2285276113475376 -1 0 0 I I #
point $-1 40.583513901181064 13.476896944577462 8.2285276113475376 #
straight-curve $-1 36.639856007493833 4.4120133314596401 8.2285276113475376 0 -1 0 I I #
point $-1 36.639856007493833 13.476896944577462 8.2285276113475376 #
point $-1 34.491481273030317 6.8299393993514883 2.4983526389446356 #
point $-1 34.491481273030317 10.818113926487072 2.4983526389446356 #
straight-curve $-1 -40.583513901181064 -1.8842785254888961 34.020626688163986 0 0 -1 I I #
point $-1 -40.583513901181064 -1.8842785254888961 8.2285276113475376 #
straight-curve $-1 -40.583513901181064 -2.5969133053361944 4.080763119376261 0 -1 0 I I #
point $-1 -40.583513901181064 -1.8842785254888961 4.0807631193762628 #
point $-1 -36.949187501831943 -7.1795554617824831 4.9004584546853254 #
point $-1 -36.949187501831943 -5.1938266106723869 4.9004584546853254 #
point $-1 -36.949187501831943 -3.2080977595622926 4.9004584546853254 #
straight-curve $-1 -40.583513901181064 8.9121849301222156 34.020626688163986 0 0 -1 I I #
point $-1 -40.583513901181064 8.9121849301222156 8.2285276113475376 #
straight-curve $-1 -40.583513901181064 2.801318422469361 4.080763119376261 0 -1 0 I I #
point $-1 -40.583513901181064 8.9121849301222156 4.0807631193762628 #
point $-1 -36.949187501831943 3.6169079938286259 4.9004584546853254 #
point $-1 -36.949187501831943 5.602636844938722 4.9004584546853254 #
point $-1 -36.949187501831943 7.5883656960488182 4.9004584546853254 #
edge $-1 $735 -8.2285276113475376 $729 -4.0807631193762628 $726 $780 forward 7 unknown #
straight-curve $-1 -40.583513901181064 8.1995501502749164 4.080763119376261 0 -1 0 I I #
point $-1 -40.583513901181064 19.708648385733326 4.0807631193762628 #
straight-curve $-1 0 19.708648385733326 8.2285276113475376 -1 0 0 I I #
point $-1 -40.583513901181064 19.708648385733326 8.2285276113475376 #
point $-1 -36.949187501831943 14.413371449439737 4.9004584546853254 #
point $-1 -36.949187501831943 16.399100300549833 4.9004584546853254 #
point $-1 -36.949187501831943 18.384829151659929 4.9004584546853254 #
straight-curve $-1 -40.583513901181064 19.708648385733326 0 0 0 -1 I I #
End-of-ACIS-data 