500 0 8 0           
7 Unknown 11 ACIS 5.0 NT 24 Fri Mar 26 19:20:50 1999 
-1 9.9999999999999995e-007 1e-010 
body $-1 $8 $-1 $9 #
body $-1 $10 $-1 $11 #
body $-1 $12 $-1 $13 #
body $-1 $14 $-1 $15 #
body $-1 $16 $-1 $17 #
body $-1 $18 $-1 $19 #
body $-1 $20 $-1 $21 #
body $-1 $22 $-1 $23 #
lump $-1 $-1 $24 $0 #
transform $-1 1 0 0 0 1 0 0 0 1 60.344859157078766 33.524205562483083 8.2207813994295424 1 rotate no_reflect no_shear #
lump $-1 $-1 $25 $1 #
transform $-1 1 0 0 0 1 0 0 0 1 60.344859157078766 33.524205562483083 8.2207813994295424 1 rotate no_reflect no_shear #
lump $-1 $-1 $26 $2 #
transform $-1 1 0 0 0 1 0 0 0 1 60.344859157078766 33.524205562483083 8.2207813994295424 1 rotate no_reflect no_shear #
lump $-1 $-1 $27 $3 #
transform $-1 1 0 0 0 1 0 0 0 1 60.344859157078766 33.524205562483083 8.2207813994295424 1 rotate no_reflect no_shear #
lump $-1 $-1 $28 $4 #
transform $-1 1 0 0 0 1 0 0 0 1 60.344859157078766 33.524205562483083 8.2207813994295424 1 rotate no_reflect no_shear #
lump $-1 $-1 $29 $5 #
transform $-1 1 0 0 0 1 0 0 0 1 60.344859157078766 33.524205562483083 8.2207813994295424 1 rotate no_reflect no_shear #
lump $-1 $-1 $30 $6 #
transform $-1 1 0 0 0 1 0 0 0 1 60.344859157078766 33.524205562483083 8.2207813994295424 1 rotate no_reflect no_shear #
lump $-1 $-1 $31 $7 #
transform $-1 1 0 0 0 1 0 0 0 1 60.344859157078766 33.524205562483083 8.2207813994295424 1 rotate no_reflect no_shear #
shell $-1 $-1 $-1 $32 $-1 $8 #
shell $-1 $-1 $-1 $33 $-1 $10 #
shell $-1 $-1 $-1 $34 $-1 $12 #
shell $-1 $-1 $-1 $35 $-1 $14 #
shell $-1 $-1 $-1 $36 $-1 $16 #
shell $-1 $-1 $-1 $37 $-1 $18 #
shell $-1 $-1 $-1 $38 $-1 $20 #
shell $-1 $-1 $-1 $39 $-1 $22 #
face $-1 $40 $41 $24 $-1 $42 forward single #
face $-1 $43 $44 $25 $-1 $45 forward single #
face $-1 $46 $47 $26 $-1 $48 reversed single #
face $-1 $49 $50 $27 $-1 $51 forward single #
face $-1 $52 $53 $28 $-1 $54 reversed single #
face $-1 $55 $56 $29 $-1 $57 forward single #
face $-1 $58 $59 $30 $-1 $60 reversed single #
face $-1 $61 $62 $31 $-1 $63 forward single #
face $-1 $64 $65 $24 $-1 $66 reversed single #
loop $-1 $-1 $67 $32 #
plane-surface $-1 0 0 8.2207813994295424 0 0 1 1 0 0 forward_v I I I I #
face $-1 $68 $69 $25 $-1 $70 reversed single #
loop $-1 $-1 $71 $33 #
plane-surface $-1 -60.344859157078766 0 0 1 0 0 0 0 -1 forward_v I I I I #
face $-1 $72 $73 $26 $-1 $74 reversed single #
loop $-1 $-1 $75 $34 #
plane-surface $-1 13.961276870910833 -107.82821652822466 98.162346807570529 -1 0 0 0 -0.61566148304635926 0.78801074757464917 forward_v I I I I #
face $-1 $76 $77 $27 $-1 $78 forward single #
loop $-1 $79 $80 $35 #
cone-surface $-1 3.5053660446498256 -29.110779820457257 4.2195711893405754 0 0.61566148304635926 -0.78801074757464917 1.5 0 0 1 I I 0 1 1.5 forward I I I I #
face $-1 $81 $82 $28 $-1 $83 reversed single #
loop $-1 $-1 $84 $36 #
plane-surface $-1 -52.335027719997569 59.739999747139969 139.2808646075668 1 0 0 0 -0.64278761758704617 -0.76604443648966558 forward_v I I I I #
face $-1 $85 $86 $29 $-1 $87 forward single #
loop $-1 $88 $89 $37 #
cone-surface $-1 -39.200446344620119 30.080033017996865 5.0600110035429129 0 -0.64278761758704617 -0.76604443648966558 1.5 0 0 1 I I 0 1 1.5 forward I I I I #
face $-1 $90 $91 $30 $-1 $92 reversed single #
loop $-1 $-1 $93 $38 #
plane-surface $-1 34.075696406323857 59.739999747139969 139.2808646075668 1 0 0 0 -0.64278761758704617 -0.76604443648966558 forward_v I I I I #
face $-1 $94 $95 $31 $-1 $96 forward single #
loop $-1 $97 $98 $39 #
cone-surface $-1 47.210277781701315 30.080033017996865 5.0600110035429129 0 -0.64278761758704617 -0.76604443648966558 1.5 0 0 1 I I 0 1 1.5 forward I I I I #
face $-1 $99 $100 $24 $-1 $101 reversed single #
loop $-1 $-1 $102 $40 #
plane-surface $-1 0 0 -8.2207813994295424 0 0 1 1 0 0 forward_v I I I I #
coedge $-1 $103 $104 $105 $106 forward $41 $-1 #
face $-1 $107 $108 $25 $-1 $109 forward single #
loop $-1 $-1 $110 $43 #
plane-surface $-1 0 33.524205562483083 0 0 -1 0 0 0 -1 forward_v I I I I #
coedge $-1 $111 $112 $113 $114 forward $44 $-1 #
face $-1 $115 $116 $26 $-1 $117 reversed single #
loop $-1 $-1 $118 $46 #
plane-surface $-1 3.5053660446498256 -33.52420556248309 3.0575516542574235 0 -0.61566148304635926 0.78801074757464917 1 0 0 forward_v I I I I #
coedge $-1 $119 $120 $121 $122 reversed $47 $-1 #
face $-1 $-1 $123 $27 $-1 $124 forward single #
loop $-1 $125 $126 $49 #
cone-surface $-1 3.5053660446498256 -27.539924253126706 2.208967791156681 0 0.61566148304635926 -0.78801074757464917 0.75 0 0 1 I I -0.70710678118654757 0.70710678118654757 0.75 forward I I I I #
loop $-1 $-1 $127 $35 #
coedge $-1 $80 $80 $128 $129 reversed $50 $-1 #
face $-1 $130 $131 $28 $-1 $132 reversed single #
loop $-1 $-1 $133 $52 #
plane-surface $-1 -39.200446344620119 -17.837856755269051 46.827177351501518 0 0.64278761758704617 0.76604443648966558 1 0 0 forward_v I I I I #
coedge $-1 $134 $135 $136 $137 reversed $53 $-1 #
face $-1 $-1 $138 $29 $-1 $139 forward single #
loop $-1 $140 $141 $55 #
cone-surface $-1 -39.200446344620119 28.830145864529833 3.5704535292599484 0 -0.64278761758704617 -0.76604443648966558 0.75 0 0 1 I I -0.70710678118654757 0.70710678118654757 0.75 forward I I I I #
loop $-1 $-1 $142 $37 #
coedge $-1 $89 $89 $143 $144 reversed $56 $-1 #
face $-1 $145 $146 $30 $-1 $147 forward single #
loop $-1 $-1 $148 $58 #
plane-surface $-1 47.210277781701315 -17.837856755269051 46.827177351501518 0 0.64278761758704617 0.76604443648966558 1 0 0 forward_v I I I I #
coedge $-1 $149 $150 $151 $152 reversed $59 $-1 #
face $-1 $-1 $153 $31 $-1 $154 forward single #
loop $-1 $155 $156 $61 #
cone-surface $-1 47.210277781701315 28.830145864529833 3.5704535292599484 0 -0.64278761758704617 -0.76604443648966558 0.75 0 0 1 I I -0.70710678118654757 0.70710678118654757 0.75 forward I I I I #
loop $-1 $-1 $157 $39 #
coedge $-1 $98 $98 $158 $159 reversed $62 $-1 #
face $-1 $160 $161 $24 $-1 $162 reversed single #
loop $-1 $-1 $163 $64 #
plane-surface $-1 0 -33.524205562483083 0 0 1 0 0 0 1 forward_v I I I I #
coedge $-1 $164 $165 $166 $167 forward $65 $-1 #
coedge $-1 $168 $67 $169 $170 forward $41 $-1 #
coedge $-1 $67 $168 $171 $172 forward $41 $-1 #
coedge $-1 $173 $174 $67 $106 reversed $175 $-1 #
edge $-1 $176 -33.524205562483083 $177 33.524205562483083 $105 $178 forward 7 unknown #
face $-1 $179 $180 $25 $-1 $181 reversed single #
loop $-1 $-1 $113 $68 #
plane-surface $-1 -64.34977487561936 0 -4.2771044434179153 0 0 1 1 0 0 forward_v I I I I #
coedge $-1 $182 $183 $112 $184 forward $69 $-1 #
coedge $-1 $185 $71 $186 $187 reversed $44 $-1 #
coedge $-1 $71 $185 $110 $184 reversed $44 $-1 #
coedge $-1 $188 $189 $71 $114 reversed $108 $-1 #
edge $-1 $190 -33.524205562483083 $191 33.524205562483083 $113 $192 forward 7 unknown #
face $-1 $193 $194 $26 $-1 $195 reversed single #
loop $-1 $-1 $196 $72 #
plane-surface $-1 -6.9505447816111818 -107.82821652822466 98.162346807570529 1 0 0 0 0.61566148304635926 -0.78801074757464917 forward_v I I I I #
coedge $-1 $197 $198 $199 $200 reversed $73 $-1 #
coedge $-1 $120 $75 $201 $202 reversed $47 $-1 #
coedge $-1 $75 $119 $197 $203 reversed $47 $-1 #
coedge $-1 $199 $204 $75 $122 forward $205 $-1 #
edge $-1 $206 20.389902701629246 $207 26.99853527558933 $121 $208 forward 7 unknown #
loop $-1 $-1 $128 $76 #
plane-surface $-1 3.5053660446498256 -33.52420556248309 3.0575516542574235 0 -0.61566148304635926 0.78801074757464917 1 0 0 forward_v I I I I #
loop $-1 $-1 $209 $49 #
coedge $-1 $126 $126 $127 $210 reversed $77 $-1 #
coedge $-1 $127 $127 $126 $210 forward $79 $-1 #
coedge $-1 $128 $128 $80 $129 forward $123 $-1 #
edge $-1 $211 -3.2088459769589345e-016 $211 6.2831853071796004 $128 $212 forward 7 unknown #
face $-1 $213 $214 $28 $-1 $215 forward single #
loop $-1 $-1 $216 $81 #
plane-surface $-1 -26.065864969242664 59.739999747139969 139.2808646075668 -1 0 0 0 0.64278761758704617 0.76604443648966558 forward_v I I I I #
coedge $-1 $217 $218 $219 $220 reversed $82 $-1 #
coedge $-1 $135 $84 $221 $222 reversed $53 $-1 #
coedge $-1 $84 $134 $217 $223 reversed $53 $-1 #
coedge $-1 $219 $224 $84 $137 forward $214 $-1 #
edge $-1 $225 -3.6542056889130983 $226 1.698546519505836 $136 $227 forward 7 unknown #
loop $-1 $-1 $143 $85 #
plane-surface $-1 -39.200446344620119 -17.837856755269051 46.827177351501518 0 0.64278761758704617 0.76604443648966558 1 0 0 forward_v I I I I #
loop $-1 $-1 $228 $55 #
coedge $-1 $141 $141 $142 $229 reversed $86 $-1 #
coedge $-1 $142 $142 $141 $229 forward $88 $-1 #
coedge $-1 $143 $143 $89 $144 forward $138 $-1 #
edge $-1 $230 7.6121345385502802e-016 $230 6.2831853071796013 $143 $231 forward 7 unknown #
face $-1 $232 $233 $30 $-1 $234 reversed single #
loop $-1 $-1 $151 $90 #
plane-surface $-1 0 0 8.2207813994295424 0 0 1 1 0 0 forward_v I I I I #
coedge $-1 $235 $236 $237 $238 reversed $91 $-1 #
coedge $-1 $150 $93 $239 $240 reversed $59 $-1 #
coedge $-1 $93 $149 $235 $241 reversed $59 $-1 #
coedge $-1 $237 $242 $93 $152 forward $146 $-1 #
edge $-1 $243 -3.6542056889130983 $244 1.698546519505836 $151 $245 forward 7 unknown #
loop $-1 $-1 $158 $94 #
plane-surface $-1 47.210277781701315 -17.837856755269051 46.827177351501518 0 0.64278761758704617 0.76604443648966558 1 0 0 forward_v I I I I #
loop $-1 $-1 $246 $61 #
coedge $-1 $156 $156 $157 $247 reversed $95 $-1 #
coedge $-1 $157 $157 $156 $247 forward $97 $-1 #
coedge $-1 $158 $158 $98 $159 forward $153 $-1 #
edge $-1 $248 7.6121345385502802e-016 $248 6.2831853071796013 $158 $249 forward 7 unknown #
face $-1 $250 $251 $24 $-1 $252 reversed single #
loop $-1 $-1 $253 $99 #
plane-surface $-1 -60.344859157078766 0 0 1 0 0 0 0 -1 forward_v I I I I #
coedge $-1 $254 $171 $253 $255 forward $100 $-1 #
coedge $-1 $256 $102 $254 $257 forward $65 $-1 #
coedge $-1 $102 $256 $258 $259 forward $65 $-1 #
coedge $-1 $174 $173 $102 $167 reversed $175 $-1 #
edge $-1 $260 -33.524205562483083 $261 33.524205562483083 $166 $262 forward 7 unknown #
coedge $-1 $104 $103 $263 $264 forward $41 $-1 #
coedge $-1 $265 $266 $103 $170 reversed $251 $-1 #
edge $-1 $177 -60.344859157078766 $267 60.344859157078766 $169 $268 forward 7 unknown #
coedge $-1 $163 $269 $104 $172 reversed $100 $-1 #
edge $-1 $270 -60.344859157078766 $176 60.344859157078766 $171 $271 forward 7 unknown #
coedge $-1 $166 $105 $269 $272 forward $175 $-1 #
coedge $-1 $105 $166 $265 $273 reversed $175 $-1 #
loop $-1 $-1 $173 $250 #
vertex $-1 $106 $274 #
vertex $-1 $106 $275 #
straight-curve $-1 60.344859157078766 0 8.2207813994295424 0 1 0 I I #
face $-1 $276 $277 $25 $-1 $278 reversed single #
loop $-1 $-1 $279 $107 #
plane-surface $-1 -68.354690594159962 0 -6.2489429214237289 1 0 0 0 0 -1 forward_v I I I I #
coedge $-1 $280 $110 $281 $282 reversed $69 $-1 #
coedge $-1 $110 $280 $188 $283 reversed $69 $-1 #
edge $-1 $190 4.2771044434179153 $284 8.2207813994295424 $110 $285 forward 7 unknown #
coedge $-1 $112 $111 $286 $287 reversed $44 $-1 #
coedge $-1 $288 $289 $111 $187 forward $290 $-1 #
edge $-1 $291 -8.2207813994295424 $191 -4.2771044434179153 $186 $292 forward 7 unknown #
coedge $-1 $293 $113 $183 $283 forward $108 $-1 #
coedge $-1 $113 $293 $288 $294 forward $108 $-1 #
vertex $-1 $184 $295 #
vertex $-1 $294 $296 #
straight-curve $-1 -60.344859157078766 0 -4.2771044434179153 0 -1 0 I I #
face $-1 $-1 $205 $26 $-1 $297 forward single #
loop $-1 $-1 $298 $115 #
plane-surface $-1 0 -33.524205562483083 0 0 1 0 0 0 1 forward_v I I I I #
coedge $-1 $299 $300 $301 $302 reversed $116 $-1 #
coedge $-1 $303 $118 $120 $203 forward $73 $-1 #
coedge $-1 $118 $303 $299 $304 forward $73 $-1 #
coedge $-1 $301 $121 $118 $200 forward $205 $-1 #
edge $-1 $207 -12.20859384858592 $305 8.7032278039360946 $199 $306 forward 7 unknown #
coedge $-1 $307 $308 $119 $202 forward $194 $-1 #
edge $-1 $309 -46.023621749527834 $206 -40.860392004355724 $201 $310 forward 7 unknown #
edge $-1 $207 -8.3864751772742103 $309 -9.1534652039358102e-015 $120 $311 forward 7 unknown #
coedge $-1 $121 $301 $307 $312 forward $205 $-1 #
loop $-1 $-1 $301 $193 #
vertex $-1 $202 $313 #
vertex $-1 $122 $314 #
straight-curve $-1 13.961276870910833 -53.914108264112329 8.2207813994295407 0 1 0 I I #
coedge $-1 $209 $209 $-1 $315 reversed $125 $-1 #
edge $-1 $316 0 $316 6.2831853071796004 $126 $317 forward 7 unknown #
vertex $-1 $129 $318 #
ellipse-curve $-1 3.5053660446498256 -30.219889275503039 5.6391665268434874 0 -0.61566148304635926 0.78801074757464917 1.5 0 0 1 I I #
face $-1 $-1 $319 $28 $-1 $320 reversed single #
loop $-1 $-1 $136 $130 #
plane-surface $-1 0 0 8.2207813994295424 0 0 1 1 0 0 forward_v I I I I #
coedge $-1 $321 $322 $323 $324 reversed $131 $-1 #
coedge $-1 $325 $133 $135 $223 forward $82 $-1 #
coedge $-1 $133 $325 $321 $326 forward $82 $-1 #
coedge $-1 $323 $136 $133 $220 forward $214 $-1 #
edge $-1 $226 -32.73480454768751 $327 -6.465641796932605 $219 $328 forward 7 unknown #
coedge $-1 $329 $330 $134 $222 forward $319 $-1 #
edge $-1 $331 -65.911143402295693 $225 -61.419650904353858 $221 $332 forward 7 unknown #
edge $-1 $226 60.060889313636956 $331 67.048411124966165 $135 $333 forward 7 unknown #
coedge $-1 $136 $323 $329 $334 forward $214 $-1 #
vertex $-1 $222 $335 #
vertex $-1 $137 $336 #
straight-curve $-1 -52.335027719997569 29.869999873569984 8.2207813994295407 0 -1 0 I I #
coedge $-1 $228 $228 $-1 $337 reversed $140 $-1 #
edge $-1 $338 0 $338 6.2831853071796004 $141 $339 forward 7 unknown #
vertex $-1 $144 $340 #
ellipse-curve $-1 -39.200446344620119 30.847829458273612 5.9750351504586305 0 0.64278761758704617 0.76604443648966558 1.5 0 0 1 I I #
face $-1 $-1 $341 $30 $-1 $342 reversed single #
loop $-1 $-1 $343 $145 #
plane-surface $-1 60.344859157078766 0 0 -1 0 0 0 0 1 forward_v I I I I #
coedge $-1 $344 $148 $150 $241 forward $91 $-1 #
coedge $-1 $148 $344 $343 $345 reversed $91 $-1 #
coedge $-1 $346 $151 $148 $238 forward $146 $-1 #
edge $-1 $244 10.4705575154732 $347 36.739720266228119 $237 $348 forward 7 unknown #
coedge $-1 $349 $350 $149 $240 forward $341 $-1 #
edge $-1 $351 -65.911143402295693 $243 -61.419650904353858 $239 $352 forward 7 unknown #
edge $-1 $244 60.060889313636956 $351 67.048411124966165 $150 $353 forward 7 unknown #
coedge $-1 $151 $346 $349 $354 forward $146 $-1 #
vertex $-1 $240 $355 #
vertex $-1 $152 $356 #
straight-curve $-1 34.075696406323857 29.869999873569984 8.2207813994295407 0 -1 0 I I #
coedge $-1 $246 $246 $-1 $357 reversed $155 $-1 #
edge $-1 $358 0 $358 6.2831853071796004 $156 $359 forward 7 unknown #
vertex $-1 $159 $360 #
ellipse-curve $-1 47.210277781701315 30.847829458273612 5.9750351504586305 0 0.64278761758704617 0.76604443648966558 1.5 0 0 1 I I #
face $-1 $-1 $175 $24 $-1 $361 reversed single #
loop $-1 $-1 $265 $160 #
plane-surface $-1 0 33.524205562483083 0 0 -1 0 0 0 -1 forward_v I I I I #
coedge $-1 $263 $362 $163 $255 reversed $161 $-1 #
coedge $-1 $269 $163 $164 $257 reversed $100 $-1 #
edge $-1 $270 -8.2207813994295424 $363 8.2207813994295424 $253 $364 forward 7 unknown #
coedge $-1 $165 $164 $362 $365 forward $65 $-1 #
edge $-1 $261 -60.344859157078766 $363 60.344859157078766 $254 $366 forward 7 unknown #
coedge $-1 $266 $265 $165 $259 reversed $251 $-1 #
edge $-1 $367 -60.344859157078766 $260 60.344859157078766 $258 $368 forward 7 unknown #
vertex $-1 $167 $369 #
vertex $-1 $272 $370 #
straight-curve $-1 60.344859157078766 0 -8.2207813994295424 0 -1 0 I I #
coedge $-1 $371 $253 $168 $264 reversed $161 $-1 #
edge $-1 $267 -33.524205562483083 $270 33.524205562483083 $263 $372 forward 7 unknown #
coedge $-1 $258 $169 $174 $273 forward $251 $-1 #
coedge $-1 $169 $258 $371 $373 reversed $251 $-1 #
vertex $-1 $170 $374 #
straight-curve $-1 0 33.524205562483083 8.2207813994295424 -1 0 0 I I #
coedge $-1 $171 $254 $173 $272 reversed $100 $-1 #
vertex $-1 $264 $375 #
straight-curve $-1 0 -33.524205562483083 8.2207813994295424 1 0 0 I I #
edge $-1 $176 -8.2207813994295424 $261 8.2207813994295424 $173 $376 forward 7 unknown #
edge $-1 $177 -8.2207813994295424 $260 8.2207813994295424 $174 $377 forward 7 unknown #
point $-1 60.344859157078766 -33.524205562483083 8.2207813994295424 #
point $-1 60.344859157078766 33.524205562483083 8.2207813994295424 #
face $-1 $-1 $290 $25 $-1 $378 reversed single #
loop $-1 $-1 $286 $179 #
plane-surface $-1 0 0 -8.2207813994295424 0 0 1 1 0 0 forward_v I I I I #
coedge $-1 $379 $380 $280 $381 forward $180 $-1 #
coedge $-1 $183 $182 $279 $381 reversed $69 $-1 #
coedge $-1 $286 $382 $182 $282 forward $277 $-1 #
edge $-1 $383 -68.354690594159962 $284 -60.344859157078766 $182 $384 forward 7 unknown #
edge $-1 $190 -4.0049157185405946 $385 4.0049157185406017 $183 $386 forward 7 unknown #
vertex $-1 $184 $387 #
straight-curve $-1 -60.344859157078766 33.524205562483083 0 0 0 -1 I I #
coedge $-1 $388 $281 $185 $287 forward $277 $-1 #
edge $-1 $284 -33.524205562483083 $291 33.524205562483083 $286 $389 forward 7 unknown #
coedge $-1 $390 $186 $189 $294 reversed $290 $-1 #
coedge $-1 $186 $390 $388 $391 reversed $290 $-1 #
loop $-1 $-1 $186 $276 #
vertex $-1 $391 $392 #
straight-curve $-1 -60.344859157078766 -33.524205562483083 0 0 0 1 I I #
coedge $-1 $189 $188 $380 $393 forward $108 $-1 #
edge $-1 $394 -4.0049157185406017 $191 4.0049157185405946 $288 $395 forward 7 unknown #
point $-1 -60.344859157078766 33.524205562483083 -4.2771044434179153 #
point $-1 -60.344859157078766 -33.524205562483083 -4.2771044434179153 #
plane-surface $-1 0 0 8.2207813994295424 0 0 1 1 0 0 forward_v I I I I #
coedge $-1 $308 $307 $300 $396 forward $194 $-1 #
coedge $-1 $300 $196 $198 $304 reversed $116 $-1 #
coedge $-1 $196 $299 $298 $396 reversed $116 $-1 #
coedge $-1 $204 $199 $196 $302 forward $205 $-1 #
edge $-1 $305 -26.99853527558933 $397 -20.389902701629246 $301 $398 forward 7 unknown #
coedge $-1 $198 $197 $308 $399 reversed $73 $-1 #
edge $-1 $400 9.1534652039358102e-015 $305 8.3864751772742103 $299 $401 forward 7 unknown #
vertex $-1 $200 $402 #
straight-curve $-1 1.7526830223249128 -26.915572988523003 8.2207813994295424 -1 0 0 I I #
coedge $-1 $298 $201 $204 $312 reversed $194 $-1 #
coedge $-1 $201 $298 $303 $399 forward $194 $-1 #
vertex $-1 $202 $403 #
straight-curve $-1 13.961276870910833 -33.524205562483083 49.081173403785264 0 0 1 I I #
straight-curve $-1 13.961276870910833 -33.52420556248309 3.0575516542574235 0 -0.78801074757464917 -0.61566148304635926 I I #
edge $-1 $397 -6.9505447816111818 $206 13.961276870910833 $307 $404 forward 7 unknown #
point $-1 13.961276870910833 -33.524205562483083 8.2207813994295424 #
point $-1 13.961276870910833 -26.915572988523 8.2207813994295424 #
edge $-1 $405 1 $405 0 $209 $-1 forward 7 unknown #
vertex $-1 $210 $406 #
ellipse-curve $-1 3.5053660446498256 -28.001670365411474 2.7999758518376678 0 -0.61566148304635926 0.78801074757464917 1.5 0 0 1 I I #
point $-1 5.0053660446498256 -30.219889275503036 5.6391665268434821 #
loop $-1 $-1 $221 $213 #
plane-surface $-1 0 33.524205562483083 0 0 -1 0 0 0 -1 forward_v I I I I #
coedge $-1 $322 $216 $218 $326 reversed $131 $-1 #
coedge $-1 $216 $321 $407 $408 reversed $131 $-1 #
coedge $-1 $224 $219 $216 $324 forward $214 $-1 #
edge $-1 $327 -1.698546519505836 $409 3.6542056889130983 $323 $410 forward 7 unknown #
coedge $-1 $218 $217 $330 $411 reversed $82 $-1 #
edge $-1 $412 -67.048411124966165 $327 -60.060889313636956 $321 $413 forward 7 unknown #
vertex $-1 $220 $414 #
straight-curve $-1 -19.600223172310059 28.171453354064141 8.2207813994295442 1 0 0 I I #
coedge $-1 $407 $221 $224 $334 reversed $319 $-1 #
coedge $-1 $221 $407 $325 $411 forward $319 $-1 #
vertex $-1 $222 $415 #
straight-curve $-1 -52.335027719997569 33.524205562483083 69.640432303783399 0 0 1 I I #
straight-curve $-1 -52.335027719997569 -17.837856755269051 46.827177351501518 0 0.76604443648966558 -0.64278761758704617 I I #
edge $-1 $409 26.065864969242664 $225 52.335027719997569 $329 $416 forward 7 unknown #
point $-1 -52.335027719997569 33.524205562483083 8.2207813994295424 #
point $-1 -52.335027719997569 28.171453354064148 8.2207813994295407 #
edge $-1 $417 1 $417 0 $228 $-1 forward 7 unknown #
vertex $-1 $229 $418 #
ellipse-curve $-1 -39.200446344620119 29.312236577720117 4.1449868566271979 0 0.64278761758704617 0.76604443648966558 1.5 0 0 1 I I #
point $-1 -37.700446344620119 30.847829458273612 5.9750351504586288 #
loop $-1 $-1 $239 $232 #
plane-surface $-1 0 33.524205562483083 0 0 -1 0 0 0 -1 forward_v I I I I #
coedge $-1 $419 $420 $236 $345 forward $233 $-1 #
coedge $-1 $236 $235 $350 $421 reversed $91 $-1 #
edge $-1 $347 38.178628966451356 $422 45.166150777780565 $343 $423 forward 7 unknown #
coedge $-1 $242 $237 $420 $424 forward $146 $-1 #
vertex $-1 $424 $425 #
straight-curve $-1 23.605138890850657 28.171453354064141 8.2207813994295442 1 0 0 I I #
coedge $-1 $426 $239 $242 $354 reversed $341 $-1 #
coedge $-1 $239 $426 $344 $421 forward $341 $-1 #
vertex $-1 $240 $427 #
straight-curve $-1 34.075696406323857 33.524205562483083 69.640432303783399 0 0 1 I I #
straight-curve $-1 34.075696406323857 -17.837856755269051 46.827177351501518 0 0.76604443648966558 -0.64278761758704617 I I #
edge $-1 $428 -60.344859157078766 $243 -34.075696406323857 $349 $429 forward 7 unknown #
point $-1 34.075696406323857 33.524205562483083 8.2207813994295424 #
point $-1 34.075696406323857 28.171453354064148 8.2207813994295407 #
edge $-1 $430 1 $430 0 $246 $-1 forward 7 unknown #
vertex $-1 $247 $431 #
ellipse-curve $-1 47.210277781701315 29.312236577720117 4.1449868566271979 0 0.64278761758704617 0.76604443648966558 1.5 0 0 1 I I #
point $-1 48.710277781701315 30.847829458273612 5.9750351504586288 #
plane-surface $-1 60.344859157078766 0 0 -1 0 0 0 0 1 forward_v I I I I #
coedge $-1 $253 $371 $256 $365 reversed $161 $-1 #
vertex $-1 $365 $432 #
straight-curve $-1 -60.344859157078766 -33.524205562483083 0 0 0 -1 I I #
edge $-1 $363 -33.524205562483083 $367 33.524205562483083 $362 $433 forward 7 unknown #
straight-curve $-1 0 -33.524205562483083 -8.2207813994295424 -1 0 0 I I #
vertex $-1 $259 $434 #
straight-curve $-1 0 33.524205562483083 -8.2207813994295424 1 0 0 I I #
point $-1 60.344859157078766 33.524205562483083 -8.2207813994295424 #
point $-1 60.344859157078766 -33.524205562483083 -8.2207813994295424 #
coedge $-1 $362 $263 $266 $373 forward $161 $-1 #
straight-curve $-1 -60.344859157078766 0 8.2207813994295424 0 -1 0 I I #
edge $-1 $267 -8.2207813994295424 $367 8.2207813994295424 $266 $435 forward 7 unknown #
point $-1 -60.344859157078766 33.524205562483083 8.2207813994295424 #
point $-1 -60.344859157078766 -33.524205562483083 8.2207813994295424 #
straight-curve $-1 60.344859157078766 -33.524205562483083 0 0 0 -1 I I #
straight-curve $-1 60.344859157078766 33.524205562483083 0 0 0 -1 I I #
plane-surface $-1 0 -33.524205562483083 0 0 1 0 0 0 1 forward_v I I I I #
coedge $-1 $436 $279 $382 $437 reversed $180 $-1 #
coedge $-1 $279 $436 $293 $393 reversed $180 $-1 #
edge $-1 $385 -1.9718384780058136 $383 1.9718384780058136 $280 $438 forward 7 unknown #
coedge $-1 $281 $388 $379 $437 forward $277 $-1 #
vertex $-1 $282 $439 #
straight-curve $-1 0 33.524205562483083 -8.2207813994295424 1 0 0 I I #
vertex $-1 $283 $440 #
straight-curve $-1 -64.34977487561936 33.524205562483083 -4.2771044434179153 -1 0 0 I I #
point $-1 -60.344859157078766 33.524205562483083 -8.2207813994295424 #
coedge $-1 $382 $286 $289 $391 forward $277 $-1 #
straight-curve $-1 -60.344859157078766 0 -8.2207813994295424 0 -1 0 I I #
coedge $-1 $289 $288 $436 $441 forward $290 $-1 #
edge $-1 $291 -4.0049157185405946 $442 4.0049157185406017 $289 $443 forward 7 unknown #
point $-1 -60.344859157078766 -33.524205562483083 -8.2207813994295424 #
edge $-1 $385 -33.524205562483083 $394 33.524205562483083 $380 $444 forward 7 unknown #
vertex $-1 $393 $445 #
straight-curve $-1 -64.34977487561936 -33.524205562483083 -4.2771044434179153 1 0 0 I I #
edge $-1 $397 40.860392004355724 $400 46.023621749527834 $298 $446 forward 7 unknown #
vertex $-1 $312 $447 #
straight-curve $-1 -6.9505447816111818 -53.914108264112329 8.2207813994295407 0 -1 0 I I #
edge $-1 $400 -8.7032278039360946 $309 12.20859384858592 $308 $448 forward 7 unknown #
vertex $-1 $399 $449 #
straight-curve $-1 -6.9505447816111818 -33.52420556248309 3.0575516542574235 0 0.78801074757464917 0.61566148304635926 I I #
point $-1 -6.9505447816111818 -26.915572988523 8.2207813994295424 #
point $-1 13.961276870910833 -33.524205562483083 3.0575516542574293 #
straight-curve $-1 0 -33.524205562483083 8.2207813994295424 1 0 0 I I #
vertex $-1 $315 $450 #
point $-1 5.0053660446498256 -28.001670365411474 2.7999758518376678 #
coedge $-1 $330 $329 $322 $408 forward $319 $-1 #
edge $-1 $409 61.419650904353858 $412 65.911143402295693 $407 $451 forward 7 unknown #
vertex $-1 $334 $452 #
straight-curve $-1 -26.065864969242664 29.869999873569984 8.2207813994295407 0 1 0 I I #
edge $-1 $412 6.465641796932605 $331 32.73480454768751 $330 $453 forward 7 unknown #
vertex $-1 $411 $454 #
straight-curve $-1 -26.065864969242664 -17.837856755269051 46.827177351501518 0 -0.76604443648966558 0.64278761758704617 I I #
point $-1 -26.065864969242664 28.171453354064148 8.2207813994295407 #
point $-1 -52.335027719997569 33.524205562483083 3.7292889014877133 #
straight-curve $-1 0 33.524205562483083 8.2207813994295424 -1 0 0 I I #
vertex $-1 $337 $455 #
point $-1 -37.700446344620119 29.312236577720117 4.1449868566271979 #
coedge $-1 $420 $343 $426 $456 reversed $233 $-1 #
coedge $-1 $343 $419 $346 $424 reversed $233 $-1 #
edge $-1 $422 -36.739720266228119 $351 -10.4705575154732 $350 $457 forward 7 unknown #
vertex $-1 $345 $458 #
straight-curve $-1 60.344859157078766 -1.0750729584891028 32.761531355514599 0 0.76604443648966558 -0.64278761758704617 I I #
edge $-1 $347 28.171453354064148 $428 33.524205562483083 $420 $459 forward 7 unknown #
point $-1 60.344859157078773 28.171453354064148 8.2207813994295407 #
coedge $-1 $350 $349 $419 $456 forward $341 $-1 #
point $-1 34.075696406323857 33.524205562483083 3.7292889014877133 #
vertex $-1 $424 $460 #
straight-curve $-1 0 33.524205562483083 8.2207813994295424 -1 0 0 I I #
vertex $-1 $357 $461 #
point $-1 48.710277781701315 29.312236577720117 4.1449868566271979 #
point $-1 -60.344859157078766 -33.524205562483083 -8.2207813994295424 #
straight-curve $-1 -60.344859157078766 0 -8.2207813994295424 0 1 0 I I #
point $-1 -60.344859157078766 33.524205562483083 -8.2207813994295424 #
straight-curve $-1 -60.344859157078766 33.524205562483083 0 0 0 -1 I I #
coedge $-1 $380 $379 $390 $441 reversed $180 $-1 #
edge $-1 $442 -33.524205562483083 $383 33.524205562483083 $379 $462 forward 7 unknown #
straight-curve $-1 -68.354690594159962 33.524205562483083 -6.2489429214237289 0 0 -1 I I #
point $-1 -68.354690594159962 33.524205562483083 -8.2207813994295424 #
point $-1 -68.354690594159962 33.524205562483083 -4.2771044434179153 #
edge $-1 $394 -1.9718384780058136 $442 1.9718384780058136 $436 $463 forward 7 unknown #
vertex $-1 $437 $464 #
straight-curve $-1 -64.34977487561936 -33.524205562483083 -8.2207813994295424 -1 0 0 I I #
straight-curve $-1 -68.354690594159962 0 -4.2771044434179153 0 -1 0 I I #
point $-1 -68.354690594159962 -33.524205562483083 -4.2771044434179153 #
straight-curve $-1 -6.9505447816111818 -33.524205562483083 49.081173403785264 0 0 -1 I I #
point $-1 -6.9505447816111818 -33.524205562483083 8.2207813994295424 #
straight-curve $-1 1.7526830223249128 -33.524205562483083 3.0575516542574297 1 0 0 I I #
point $-1 -6.9505447816111818 -33.524205562483083 3.0575516542574293 #
point $-1 3.5053660446498256 -27.078178140841938 1.6179597304756941 #
straight-curve $-1 -26.065864969242664 33.524205562483083 69.640432303783399 0 0 -1 I I #
point $-1 -26.065864969242664 33.524205562483083 8.2207813994295424 #
straight-curve $-1 -19.600223172310059 33.524205562483083 3.7292889014877133 -1 0 0 I I #
point $-1 -26.065864969242664 33.524205562483083 3.7292889014877133 #
point $-1 -39.200446344620119 28.348055151339548 2.9959202018926994 #
edge $-1 $428 -8.2207813994295424 $422 -3.7292889014877133 $419 $465 forward 7 unknown #
straight-curve $-1 23.605138890850657 33.524205562483083 3.7292889014877133 -1 0 0 I I #
point $-1 60.344859157078773 33.524205562483083 3.7292889014877133 #
straight-curve $-1 60.344859157078766 0 8.2207813994295424 0 1 0 I I #
point $-1 60.344859157078766 33.524205562483083 8.2207813994295424 #
point $-1 47.210277781701315 28.348055151339548 2.9959202018926994 #
straight-curve $-1 -68.354690594159962 0 -8.2207813994295424 0 1 0 I I #
straight-curve $-1 -68.354690594159962 -33.524205562483083 -6.2489429214237289 0 0 -1 I I #
point $-1 -68.354690594159962 -33.524205562483083 -8.2207813994295424 #
straight-curve $-1 60.344859157078766 33.524205562483083 0 0 0 -1 I I #
End-of-ACIS-data 