500 0 9 0           
7 Unknown 11 ACIS 5.0 NT 24 Fri Mar 26 20:02:34 1999 
-1 9.9999999999999995e-007 1e-010 
body $-1 $9 $-1 $10 #
body $-1 $11 $-1 $12 #
body $-1 $13 $-1 $14 #
body $-1 $15 $-1 $16 #
body $-1 $17 $-1 $18 #
body $-1 $19 $-1 $20 #
body $-1 $21 $-1 $22 #
body $-1 $23 $-1 $24 #
body $-1 $25 $-1 $26 #
lump $-1 $-1 $27 $0 #
transform $-1 1 0 0 0 1 0 0 0 1 47.260963774529252 29.040388895092757 11.534352893923298 1 rotate no_reflect no_shear #
lump $-1 $-1 $28 $1 #
transform $-1 1 0 0 0 1 0 0 0 1 47.260963774529252 29.040388895092757 11.534352893923298 1 rotate no_reflect no_shear #
lump $-1 $-1 $29 $2 #
transform $-1 1 0 0 0 1 0 0 0 1 47.260963774529252 29.040388895092757 11.534352893923298 1 rotate no_reflect no_shear #
lump $-1 $-1 $30 $3 #
transform $-1 1 0 0 0 1 0 0 0 1 47.260963774529252 29.040388895092757 11.534352893923298 1 rotate no_reflect no_shear #
lump $-1 $-1 $31 $4 #
transform $-1 1 0 0 0 1 0 0 0 1 47.260963774529252 29.040388895092757 11.534352893923298 1 rotate no_reflect no_shear #
lump $-1 $-1 $32 $5 #
transform $-1 1 0 0 0 1 0 0 0 1 47.260963774529252 29.040388895092757 11.534352893923298 1 rotate no_reflect no_shear #
lump $-1 $-1 $33 $6 #
transform $-1 1 0 0 0 1 0 0 0 1 47.260963774529252 29.040388895092757 11.534352893923298 1 rotate no_reflect no_shear #
lump $-1 $-1 $34 $7 #
transform $-1 1 0 0 0 1 0 0 0 1 47.260963774529252 29.040388895092757 11.534352893923298 1 rotate no_reflect no_shear #
lump $-1 $-1 $35 $8 #
transform $-1 1 0 0 0 1 0 0 0 1 47.260963774529252 29.040388895092757 11.534352893923298 1 rotate no_reflect no_shear #
shell $-1 $-1 $-1 $36 $-1 $9 #
shell $-1 $-1 $-1 $37 $-1 $11 #
shell $-1 $-1 $-1 $38 $-1 $13 #
shell $-1 $-1 $-1 $39 $-1 $15 #
shell $-1 $-1 $-1 $40 $-1 $17 #
shell $-1 $-1 $-1 $41 $-1 $19 #
shell $-1 $-1 $-1 $42 $-1 $21 #
shell $-1 $-1 $-1 $43 $-1 $23 #
shell $-1 $-1 $-1 $44 $-1 $25 #
face $-1 $45 $46 $27 $-1 $47 forward single #
face $-1 $48 $49 $28 $-1 $50 forward single #
face $-1 $51 $52 $29 $-1 $53 forward single #
face $-1 $54 $55 $30 $-1 $56 reversed single #
face $-1 $57 $58 $31 $-1 $59 forward single #
face $-1 $60 $61 $32 $-1 $62 reversed single #
face $-1 $63 $64 $33 $-1 $65 forward single #
face $-1 $66 $67 $34 $-1 $68 reversed single #
face $-1 $69 $70 $35 $-1 $71 forward single #
face $-1 $72 $73 $27 $-1 $74 reversed single #
loop $-1 $-1 $75 $36 #
plane-surface $-1 0 0 11.534352893923298 0 0 1 1 0 0 forward_v I I I I #
face $-1 $76 $77 $28 $-1 $78 reversed single #
loop $-1 $-1 $79 $37 #
plane-surface $-1 0 -23.923609569258655 2.8869576841168896 0 0 1 1 0 0 forward_v I I I I #
face $-1 $80 $81 $29 $-1 $82 reversed single #
loop $-1 $-1 $83 $38 #
plane-surface $-1 0 24.563903967278936 7.0431324726983142 0 0 1 1 0 0 forward_v I I I I #
face $-1 $84 $85 $30 $-1 $86 reversed single #
loop $-1 $-1 $87 $39 #
plane-surface $-1 -123.73081027634086 -9.9371406384804537 63.3832049974868 0 -1 0 0.80901700255871778 0 -0.5877852410284794 forward_v I I I I #
face $-1 $88 $89 $31 $-1 $90 forward single #
loop $-1 $91 $92 $40 #
cone-surface $-1 -45.251203481812304 -14.371985440952503 9.1984252968609663 0.80901700255871778 0 -0.5877852410284794 0.2938926205142397 0 0.40450850127935889 1 I I 0 1 0.5 forward I I I I #
face $-1 $93 $94 $32 $-1 $95 reversed single #
loop $-1 $-1 $96 $41 #
plane-surface $-1 -123.73081027634086 20.087419039465122 63.3832049974868 0 -1 0 0.80901700255871778 0 -0.5877852410284794 forward_v I I I I #
face $-1 $97 $98 $33 $-1 $99 forward single #
loop $-1 $100 $101 $42 #
cone-surface $-1 -45.251203481812304 15.652574236993072 9.1984252968609663 0.80901700255871778 0 -0.5877852410284794 0.2938926205142397 0 0.40450850127935889 1 I I 0 1 0.5 forward I I I I #
face $-1 $102 $103 $34 $-1 $104 reversed single #
loop $-1 $-1 $105 $43 #
plane-surface $-1 17.190814446854652 12.718397565194163 135.17855821436876 0 1 0 0.52991927123019833 0 0.84804809178421925 forward_v I I I I #
face $-1 $106 $107 $35 $-1 $108 forward single #
loop $-1 $109 $110 $44 #
cone-surface $-1 41.563668713255204 16.402908302329646 7.5713720661141259 -0.52991927123019833 0 -0.84804809178421925 1.2720721376763289 0 -0.79487890684529749 1 I I 0 1 1.5 forward I I I I #
face $-1 $111 $112 $27 $-1 $113 reversed single #
loop $-1 $-1 $114 $45 #
plane-surface $-1 0 0 -11.534352893923298 0 0 1 1 0 0 forward_v I I I I #
coedge $-1 $115 $116 $117 $118 forward $46 $-1 #
face $-1 $119 $120 $28 $-1 $121 reversed single #
loop $-1 $-1 $122 $48 #
plane-surface $-1 0 -23.923609569258655 -3.8003409903732535 0 0 1 1 0 0 forward_v I I I I #
coedge $-1 $123 $124 $125 $126 reversed $49 $-1 #
face $-1 $127 $128 $29 $-1 $129 reversed single #
loop $-1 $-1 $130 $51 #
plane-surface $-1 0 24.563903967278936 4.0431324726983142 0 0 1 1 0 0 forward_v I I I I #
coedge $-1 $131 $132 $133 $134 reversed $52 $-1 #
face $-1 $135 $136 $30 $-1 $137 reversed single #
loop $-1 $-1 $138 $54 #
plane-surface $-1 -47.260963774529259 -14.371985440952503 7.8246110305869792 -0.80901700255871778 0 0.5877852410284794 0.5877852410284794 0 0.80901700255871778 forward_v I I I I #
coedge $-1 $139 $140 $141 $142 reversed $55 $-1 #
face $-1 $-1 $143 $31 $-1 $144 forward single #
loop $-1 $145 $146 $57 #
cone-surface $-1 -44.386831514815682 -14.371985440952503 8.5704223212096693 0.80901700255871778 0 -0.5877852410284794 0.14694631025711985 0 0.20225425063967944 1 I I -0.70710678118654746 0.70710678118654746 0.25 forward I I I I #
loop $-1 $-1 $147 $40 #
coedge $-1 $92 $92 $148 $149 reversed $58 $-1 #
face $-1 $150 $151 $32 $-1 $152 reversed single #
loop $-1 $-1 $153 $60 #
plane-surface $-1 -47.260963774529259 15.652574236993072 7.8246110305869792 -0.80901700255871778 0 0.5877852410284794 0.5877852410284794 0 0.80901700255871778 forward_v I I I I #
coedge $-1 $154 $155 $156 $157 reversed $61 $-1 #
face $-1 $-1 $158 $33 $-1 $159 forward single #
loop $-1 $160 $161 $63 #
cone-surface $-1 -44.386831514815682 15.652574236993072 8.5704223212096693 0.80901700255871778 0 -0.5877852410284794 0.14694631025711985 0 0.20225425063967944 1 I I -0.70710678118654746 0.70710678118654746 0.25 forward I I I I #
loop $-1 $-1 $162 $42 #
coedge $-1 $101 $101 $163 $164 reversed $64 $-1 #
face $-1 $165 $166 $34 $-1 $167 forward single #
loop $-1 $-1 $168 $66 #
plane-surface $-1 -32.898176515216029 16.402908302329646 55.019417924623482 0.52991927123019833 0 0.84804809178421925 0.84804809178421925 0 -0.52991927123019833 forward_v I I I I #
coedge $-1 $169 $170 $171 $172 reversed $67 $-1 #
face $-1 $-1 $173 $35 $-1 $174 forward single #
loop $-1 $175 $176 $69 #
cone-surface $-1 40.753179449143296 16.402908302329646 6.2743181351520292 -0.52991927123019833 0 -0.84804809178421925 0.63603606883816444 0 -0.39743945342264875 1 I I -0.70710678118654757 0.70710678118654757 0.75 forward I I I I #
loop $-1 $-1 $177 $44 #
coedge $-1 $110 $110 $178 $179 reversed $70 $-1 #
face $-1 $180 $181 $27 $-1 $182 reversed single #
loop $-1 $-1 $183 $72 #
plane-surface $-1 0 -29.040388895092757 0 0 1 0 0 0 1 forward_v I I I I #
coedge $-1 $184 $185 $186 $187 forward $73 $-1 #
coedge $-1 $188 $75 $189 $190 forward $46 $-1 #
coedge $-1 $75 $188 $191 $192 forward $46 $-1 #
coedge $-1 $193 $194 $75 $118 reversed $195 $-1 #
edge $-1 $196 -29.040388895092757 $197 29.040388895092757 $117 $198 forward 7 unknown #
face $-1 $199 $200 $28 $-1 $201 reversed single #
loop $-1 $-1 $202 $76 #
plane-surface $-1 0 -18.806830243424553 -0.45669165312818194 0 -1 0 0 0 -1 forward_v I I I I #
coedge $-1 $203 $204 $205 $206 reversed $77 $-1 #
coedge $-1 $207 $79 $208 $209 forward $49 $-1 #
coedge $-1 $79 $207 $210 $211 reversed $49 $-1 #
coedge $-1 $212 $213 $79 $126 forward $214 $-1 #
edge $-1 $215 6.8450254587952255 $216 17.078584110463432 $125 $217 forward 7 unknown #
face $-1 $218 $219 $29 $-1 $220 reversed single #
loop $-1 $-1 $221 $80 #
plane-surface $-1 0 20.087419039465118 5.5431324726983142 0 1 0 0 0 1 forward_v I I I I #
coedge $-1 $222 $223 $224 $225 reversed $81 $-1 #
coedge $-1 $226 $83 $227 $228 reversed $52 $-1 #
coedge $-1 $83 $226 $229 $230 forward $52 $-1 #
coedge $-1 $231 $232 $83 $134 forward $219 $-1 #
edge $-1 $233 -16.758436911453288 $234 -7.80546705582565 $133 $235 forward 7 unknown #
face $-1 $236 $237 $30 $-1 $238 reversed single #
loop $-1 $-1 $239 $84 #
plane-surface $-1 -123.73081027634086 -18.806830243424553 63.3832049974868 0 1 0 -0.80901700255871778 0 0.5877852410284794 forward_v I I I I #
coedge $-1 $240 $241 $242 $243 reversed $85 $-1 #
coedge $-1 $140 $87 $244 $245 reversed $55 $-1 #
coedge $-1 $87 $139 $240 $246 reversed $55 $-1 #
coedge $-1 $242 $247 $87 $142 forward $237 $-1 #
edge $-1 $248 20.157249604820102 $249 23.86699146815641 $141 $250 forward 7 unknown #
loop $-1 $-1 $148 $88 #
plane-surface $-1 -47.260963774529259 -14.371985440952503 7.8246110305869792 -0.80901700255871778 0 0.5877852410284794 0.5877852410284794 0 0.80901700255871778 forward_v I I I I #
loop $-1 $-1 $251 $57 #
coedge $-1 $146 $146 $147 $252 reversed $89 $-1 #
coedge $-1 $147 $147 $146 $252 forward $91 $-1 #
coedge $-1 $148 $148 $92 $149 forward $143 $-1 #
edge $-1 $253 0 $253 6.2831853071796004 $148 $254 forward 7 unknown #
face $-1 $255 $256 $32 $-1 $257 forward single #
loop $-1 $-1 $258 $93 #
plane-surface $-1 -123.73081027634086 11.217729434521022 63.3832049974868 0 1 0 -0.80901700255871778 0 0.5877852410284794 forward_v I I I I #
coedge $-1 $259 $260 $261 $262 reversed $94 $-1 #
coedge $-1 $155 $96 $263 $264 reversed $61 $-1 #
coedge $-1 $96 $154 $259 $265 reversed $61 $-1 #
coedge $-1 $261 $266 $96 $157 forward $267 $-1 #
edge $-1 $268 20.157249604820102 $269 23.86699146815641 $156 $270 forward 7 unknown #
loop $-1 $-1 $163 $97 #
plane-surface $-1 -47.260963774529259 15.652574236993072 7.8246110305869792 -0.80901700255871778 0 0.5877852410284794 0.5877852410284794 0 0.80901700255871778 forward_v I I I I #
loop $-1 $-1 $271 $63 #
coedge $-1 $161 $161 $162 $272 reversed $98 $-1 #
coedge $-1 $162 $162 $161 $272 forward $100 $-1 #
coedge $-1 $163 $163 $101 $164 forward $158 $-1 #
edge $-1 $273 0 $273 6.2831853071796004 $163 $274 forward 7 unknown #
face $-1 $275 $276 $34 $-1 $277 forward single #
loop $-1 $-1 $278 $102 #
plane-surface $-1 0 0 11.534352893923298 0 0 1 1 0 0 forward_v I I I I #
coedge $-1 $279 $280 $281 $282 reversed $103 $-1 #
coedge $-1 $170 $105 $283 $284 reversed $67 $-1 #
coedge $-1 $105 $169 $279 $285 reversed $67 $-1 #
coedge $-1 $281 $286 $105 $172 forward $287 $-1 #
edge $-1 $288 56.054926213261083 $289 62.658852144631581 $171 $290 forward 7 unknown #
loop $-1 $-1 $178 $106 #
plane-surface $-1 -32.898176515216029 16.402908302329646 55.019417924623482 0.52991927123019833 0 0.84804809178421925 0.84804809178421925 0 -0.52991927123019833 forward_v I I I I #
loop $-1 $-1 $291 $69 #
coedge $-1 $176 $176 $177 $292 reversed $107 $-1 #
coedge $-1 $177 $177 $176 $292 forward $109 $-1 #
coedge $-1 $178 $178 $110 $179 forward $173 $-1 #
edge $-1 $293 0 $293 6.2831853071796004 $178 $294 forward 7 unknown #
face $-1 $295 $296 $27 $-1 $297 reversed single #
loop $-1 $-1 $298 $111 #
plane-surface $-1 -47.260963774529252 0 0 1 0 0 0 0 -1 forward_v I I I I #
coedge $-1 $299 $191 $300 $301 forward $112 $-1 #
coedge $-1 $302 $114 $299 $303 forward $73 $-1 #
coedge $-1 $114 $302 $304 $305 forward $73 $-1 #
coedge $-1 $194 $193 $114 $187 reversed $195 $-1 #
edge $-1 $306 -29.040388895092757 $307 29.040388895092757 $186 $308 forward 7 unknown #
coedge $-1 $116 $115 $309 $310 forward $46 $-1 #
coedge $-1 $311 $312 $115 $190 reversed $296 $-1 #
edge $-1 $197 -47.260963774529252 $313 47.260963774529252 $189 $314 forward 7 unknown #
coedge $-1 $183 $315 $116 $192 reversed $112 $-1 #
edge $-1 $316 -47.260963774529252 $196 47.260963774529252 $191 $317 forward 7 unknown #
coedge $-1 $186 $117 $315 $318 forward $195 $-1 #
coedge $-1 $117 $186 $311 $319 reversed $195 $-1 #
loop $-1 $-1 $193 $295 #
vertex $-1 $118 $320 #
vertex $-1 $118 $321 #
straight-curve $-1 47.260963774529252 0 11.534352893923298 0 1 0 I I #
face $-1 $322 $323 $28 $-1 $324 reversed single #
loop $-1 $-1 $325 $119 #
plane-surface $-1 -47.260963774529252 0 0 1 0 0 0 0 -1 forward_v I I I I #
coedge $-1 $326 $208 $213 $327 reversed $120 $-1 #
coedge $-1 $328 $122 $329 $330 reversed $77 $-1 #
coedge $-1 $122 $328 $326 $331 forward $77 $-1 #
coedge $-1 $213 $212 $122 $206 forward $214 $-1 #
edge $-1 $332 -17.078584110463432 $333 -6.8450254587952255 $205 $334 forward 7 unknown #
coedge $-1 $124 $123 $325 $335 reversed $49 $-1 #
coedge $-1 $202 $336 $123 $209 reversed $120 $-1 #
edge $-1 $215 -47.260963774529252 $337 47.260963774529252 $208 $338 forward 7 unknown #
coedge $-1 $339 $340 $124 $211 forward $323 $-1 #
edge $-1 $216 -47.260963774529252 $341 47.260963774529252 $210 $342 forward 7 unknown #
coedge $-1 $205 $125 $340 $343 forward $214 $-1 #
coedge $-1 $125 $205 $202 $327 forward $214 $-1 #
loop $-1 $-1 $125 $322 #
vertex $-1 $126 $344 #
vertex $-1 $343 $345 #
straight-curve $-1 47.260963774529252 -11.961804784629328 2.8869576841168896 0 -1 0 I I #
face $-1 $346 $347 $29 $-1 $348 reversed single #
loop $-1 $-1 $133 $127 #
plane-surface $-1 47.260963774529252 0 0 -1 0 0 0 0 1 forward_v I I I I #
coedge $-1 $349 $229 $350 $351 reversed $128 $-1 #
coedge $-1 $352 $130 $349 $353 forward $81 $-1 #
coedge $-1 $130 $352 $354 $355 reversed $81 $-1 #
coedge $-1 $232 $231 $130 $225 forward $219 $-1 #
edge $-1 $356 7.80546705582565 $357 16.758436911453288 $224 $358 forward 7 unknown #
coedge $-1 $132 $131 $359 $360 reversed $52 $-1 #
coedge $-1 $361 $362 $131 $228 forward $363 $-1 #
edge $-1 $364 -47.260963774529252 $233 47.260963774529252 $227 $365 forward 7 unknown #
coedge $-1 $221 $366 $132 $230 reversed $128 $-1 #
edge $-1 $367 -47.260963774529252 $234 47.260963774529252 $229 $368 forward 7 unknown #
coedge $-1 $224 $133 $366 $369 forward $219 $-1 #
coedge $-1 $133 $224 $361 $370 reversed $219 $-1 #
vertex $-1 $370 $371 #
vertex $-1 $134 $372 #
straight-curve $-1 47.260963774529252 12.281951983639468 7.0431324726983142 0 -1 0 I I #
face $-1 $-1 $373 $30 $-1 $374 forward single #
loop $-1 $-1 $141 $135 #
plane-surface $-1 -47.260963774529252 0 0 1 0 0 0 0 -1 forward_v I I I I #
coedge $-1 $375 $376 $377 $378 reversed $136 $-1 #
coedge $-1 $379 $138 $140 $246 forward $85 $-1 #
coedge $-1 $138 $379 $375 $380 forward $85 $-1 #
coedge $-1 $377 $141 $138 $243 forward $237 $-1 #
edge $-1 $249 2.751147918004202 $381 11.620837522948301 $242 $382 forward 7 unknown #
coedge $-1 $383 $384 $139 $245 forward $373 $-1 #
edge $-1 $385 -17.299726516361204 $248 -14.604441363641179 $244 $386 forward 7 unknown #
edge $-1 $249 1.2080531203272332e-014 $385 4.5854930756749672 $140 $387 forward 7 unknown #
coedge $-1 $141 $377 $383 $388 reversed $237 $-1 #
vertex $-1 $388 $389 #
vertex $-1 $142 $390 #
straight-curve $-1 -47.260963774529252 -9.9371406384804537 31.6916024987434 0 0 -1 I I #
coedge $-1 $251 $251 $-1 $391 reversed $145 $-1 #
edge $-1 $392 0 $392 6.2831853071796004 $146 $393 forward 7 unknown #
vertex $-1 $149 $394 #
ellipse-curve $-1 -45.913321198169243 -14.371985440952503 9.6794819622551422 -0.80901700255871778 0 0.5877852410284794 0.2938926205142397 0 0.40450850127935889 1 I I #
face $-1 $-1 $267 $32 $-1 $395 reversed single #
loop $-1 $-1 $396 $150 #
plane-surface $-1 0 0 11.534352893923298 0 0 1 1 0 0 forward_v I I I I #
coedge $-1 $397 $398 $399 $400 reversed $151 $-1 #
coedge $-1 $401 $153 $155 $265 forward $94 $-1 #
coedge $-1 $153 $401 $397 $402 forward $94 $-1 #
coedge $-1 $399 $156 $153 $262 forward $267 $-1 #
edge $-1 $269 -12.261131920968586 $403 -3.3914423160244862 $261 $404 forward 7 unknown #
coedge $-1 $405 $406 $154 $264 forward $256 $-1 #
edge $-1 $407 -17.299726516361204 $268 -14.604441363641179 $263 $408 forward 7 unknown #
edge $-1 $269 1.2080531203272332e-014 $407 4.5854930756749672 $155 $409 forward 7 unknown #
coedge $-1 $156 $399 $405 $410 reversed $267 $-1 #
loop $-1 $-1 $399 $255 #
vertex $-1 $410 $411 #
vertex $-1 $157 $412 #
straight-curve $-1 -47.260963774529252 20.087419039465122 31.6916024987434 0 0 -1 I I #
coedge $-1 $271 $271 $-1 $413 reversed $160 $-1 #
edge $-1 $414 0 $414 6.2831853071796004 $161 $415 forward 7 unknown #
vertex $-1 $164 $416 #
ellipse-curve $-1 -45.913321198169243 15.652574236993072 9.6794819622551422 -0.80901700255871778 0 0.5877852410284794 0.2938926205142397 0 0.40450850127935889 1 I I #
face $-1 $-1 $287 $34 $-1 $417 reversed single #
loop $-1 $-1 $418 $165 #
plane-surface $-1 0 20.087419039465118 5.5431324726983142 0 1 0 0 0 1 forward_v I I I I #
coedge $-1 $419 $420 $421 $422 forward $166 $-1 #
coedge $-1 $423 $168 $170 $285 forward $103 $-1 #
coedge $-1 $168 $423 $418 $424 forward $103 $-1 #
coedge $-1 $425 $171 $168 $282 forward $287 $-1 #
edge $-1 $289 4.5169434140293401 $426 11.885964888300295 $281 $427 forward 7 unknown #
coedge $-1 $420 $419 $169 $284 forward $166 $-1 #
edge $-1 $428 28.097066049932319 $288 38.665556551101929 $283 $429 forward 7 unknown #
edge $-1 $289 -94.521927549058503 $428 -82.059791729691909 $170 $430 forward 7 unknown #
coedge $-1 $171 $425 $420 $431 reversed $287 $-1 #
loop $-1 $-1 $425 $275 #
vertex $-1 $431 $432 #
vertex $-1 $172 $433 #
straight-curve $-1 47.260963774529252 12.718397565194163 67.589279107184382 0 0 -1 I I #
coedge $-1 $291 $291 $-1 $434 reversed $175 $-1 #
edge $-1 $435 0 $435 6.2831853071796004 $176 $436 forward 7 unknown #
vertex $-1 $179 $437 #
ellipse-curve $-1 41.976718523944456 16.402908302329646 8.2323899282380442 0.52991927123019833 0 0.84804809178421925 1.2720721376763289 0 -0.79487890684529749 1 I I #
face $-1 $-1 $195 $27 $-1 $438 reversed single #
loop $-1 $-1 $311 $180 #
plane-surface $-1 0 29.040388895092757 0 0 -1 0 0 0 -1 forward_v I I I I #
coedge $-1 $439 $309 $312 $440 forward $181 $-1 #
coedge $-1 $315 $183 $184 $303 reversed $112 $-1 #
coedge $-1 $309 $439 $183 $301 reversed $181 $-1 #
edge $-1 $316 -11.534352893923298 $441 11.534352893923298 $300 $442 forward 7 unknown #
coedge $-1 $185 $184 $439 $443 forward $73 $-1 #
edge $-1 $307 -47.260963774529252 $441 47.260963774529252 $299 $444 forward 7 unknown #
coedge $-1 $312 $311 $185 $305 reversed $296 $-1 #
edge $-1 $445 -47.260963774529252 $306 47.260963774529252 $304 $446 forward 7 unknown #
vertex $-1 $187 $447 #
vertex $-1 $318 $448 #
straight-curve $-1 47.260963774529252 0 -11.534352893923298 0 -1 0 I I #
coedge $-1 $298 $300 $188 $310 reversed $181 $-1 #
edge $-1 $313 -29.040388895092757 $316 29.040388895092757 $309 $449 forward 7 unknown #
coedge $-1 $304 $189 $194 $319 forward $296 $-1 #
coedge $-1 $189 $304 $298 $440 reversed $296 $-1 #
vertex $-1 $190 $450 #
straight-curve $-1 0 29.040388895092757 11.534352893923298 -1 0 0 I I #
coedge $-1 $191 $299 $193 $318 reversed $112 $-1 #
vertex $-1 $310 $451 #
straight-curve $-1 0 -29.040388895092757 11.534352893923298 1 0 0 I I #
edge $-1 $196 -11.534352893923298 $307 11.534352893923298 $193 $452 forward 7 unknown #
edge $-1 $197 -11.534352893923298 $306 11.534352893923298 $194 $453 forward 7 unknown #
point $-1 47.260963774529252 -29.040388895092757 11.534352893923298 #
point $-1 47.260963774529252 29.040388895092757 11.534352893923298 #
face $-1 $-1 $214 $28 $-1 $454 reversed single #
loop $-1 $-1 $210 $199 #
plane-surface $-1 0 -29.040388895092757 0 0 1 0 0 0 1 forward_v I I I I #
coedge $-1 $455 $456 $207 $335 forward $200 $-1 #
coedge $-1 $336 $202 $204 $331 reversed $120 $-1 #
edge $-1 $333 -3.5719951638091625 $215 3.1153035106809805 $213 $457 forward 7 unknown #
coedge $-1 $204 $203 $458 $459 reversed $77 $-1 #
coedge $-1 $340 $339 $203 $330 forward $323 $-1 #
edge $-1 $460 -47.260963774529252 $332 47.260963774529252 $329 $461 forward 7 unknown #
edge $-1 $462 -47.260963774529252 $333 47.260963774529252 $326 $463 forward 7 unknown #
vertex $-1 $330 $464 #
vertex $-1 $206 $465 #
straight-curve $-1 47.260963774529252 -11.961804784629328 -3.8003409903732535 0 1 0 I I #
edge $-1 $341 -17.078584110463432 $337 -6.8450254587952255 $325 $466 forward 7 unknown #
coedge $-1 $208 $326 $455 $467 reversed $120 $-1 #
vertex $-1 $335 $468 #
straight-curve $-1 0 -18.806830243424553 2.8869576841168896 -1 0 0 I I #
coedge $-1 $329 $210 $456 $469 forward $323 $-1 #
coedge $-1 $210 $329 $212 $343 reversed $323 $-1 #
vertex $-1 $469 $470 #
straight-curve $-1 0 -29.040388895092757 2.8869576841168896 -1 0 0 I I #
edge $-1 $216 -2.8869576841168896 $332 3.8003409903732535 $212 $471 forward 7 unknown #
point $-1 47.260963774529252 -18.806830243424553 2.8869576841168896 #
point $-1 47.260963774529252 -29.040388895092757 2.8869576841168896 #
face $-1 $-1 $363 $29 $-1 $472 reversed single #
loop $-1 $-1 $359 $218 #
plane-surface $-1 -47.260963774529252 0 0 1 0 0 0 0 -1 forward_v I I I I #
coedge $-1 $366 $221 $222 $353 reversed $128 $-1 #
coedge $-1 $359 $473 $221 $351 forward $347 $-1 #
edge $-1 $474 1.2715662363491571 $367 4.2715662363491571 $350 $475 forward 7 unknown #
coedge $-1 $223 $222 $473 $476 reversed $81 $-1 #
edge $-1 $356 -47.260963774529252 $474 47.260963774529252 $349 $477 forward 7 unknown #
coedge $-1 $362 $361 $223 $355 forward $363 $-1 #
edge $-1 $357 -47.260963774529252 $478 47.260963774529252 $354 $479 forward 7 unknown #
vertex $-1 $225 $480 #
vertex $-1 $355 $481 #
straight-curve $-1 47.260963774529252 12.281951983639468 4.0431324726983142 0 1 0 I I #
coedge $-1 $482 $350 $226 $360 forward $347 $-1 #
edge $-1 $367 7.80546705582565 $364 16.758436911453288 $359 $483 forward 7 unknown #
coedge $-1 $354 $227 $232 $370 forward $363 $-1 #
coedge $-1 $227 $354 $482 $484 reversed $363 $-1 #
loop $-1 $-1 $227 $346 #
vertex $-1 $484 $485 #
straight-curve $-1 0 29.040388895092757 7.0431324726983142 1 0 0 I I #
coedge $-1 $229 $349 $231 $369 reversed $128 $-1 #
vertex $-1 $360 $486 #
straight-curve $-1 0 20.087419039465118 7.0431324726983142 1 0 0 I I #
edge $-1 $234 -4.2715662363491571 $356 -1.2715662363491571 $231 $487 forward 7 unknown #
edge $-1 $233 -7.0431324726983142 $357 -4.0431324726983142 $232 $488 forward 7 unknown #
point $-1 47.260963774529252 29.040388895092754 7.0431324726983142 #
point $-1 47.260963774529252 20.087419039465118 7.0431324726983142 #
loop $-1 $-1 $244 $236 #
plane-surface $-1 0 0 11.534352893923298 0 0 1 1 0 0 forward_v I I I I #
coedge $-1 $376 $239 $241 $380 reversed $136 $-1 #
coedge $-1 $239 $375 $489 $490 reversed $136 $-1 #
coedge $-1 $247 $242 $239 $378 forward $237 $-1 #
edge $-1 $381 -23.86699146815641 $491 -20.157249604820102 $377 $492 forward 7 unknown #
coedge $-1 $241 $240 $384 $493 reversed $85 $-1 #
edge $-1 $494 -4.5854930756749672 $381 -1.2080531203272332e-014 $375 $495 forward 7 unknown #
vertex $-1 $243 $496 #
straight-curve $-1 -47.260963774529252 -7.1859927204762517 7.8246110305869969 0 -1 0 I I #
coedge $-1 $489 $244 $247 $388 forward $373 $-1 #
coedge $-1 $244 $489 $379 $493 forward $373 $-1 #
vertex $-1 $245 $497 #
straight-curve $-1 -61.865405138170431 -9.9371406384804537 11.534352893923298 -1 0 0 I I #
straight-curve $-1 -47.260963774529259 -9.9371406384804537 7.8246110305869792 0.5877852410284794 0 0.80901700255871778 I I #
edge $-1 $248 9.9371406384804537 $491 18.806830243424553 $247 $498 forward 7 unknown #
point $-1 -47.260963774529252 -9.9371406384804537 11.534352893923298 #
point $-1 -47.260963774529252 -9.9371406384804537 7.8246110305869889 #
edge $-1 $499 1 $499 0 $251 $-1 forward 7 unknown #
vertex $-1 $252 $500 #
ellipse-curve $-1 -44.589085765455359 -14.371985440952503 8.7173686314667886 -0.80901700255871778 0 0.5877852410284794 0.2938926205142397 0 0.40450850127935889 1 I I #
point $-1 -45.619428577655 -14.371985440952503 10.083990463534501 #
plane-surface $-1 -47.260963774529252 0 0 1 0 0 0 0 -1 forward_v I I I I #
coedge $-1 $406 $405 $398 $501 forward $256 $-1 #
coedge $-1 $398 $258 $260 $402 reversed $151 $-1 #
coedge $-1 $258 $397 $396 $501 reversed $151 $-1 #
coedge $-1 $266 $261 $258 $400 forward $267 $-1 #
edge $-1 $403 -23.86699146815641 $502 -20.157249604820102 $399 $503 forward 7 unknown #
coedge $-1 $260 $259 $406 $504 reversed $94 $-1 #
edge $-1 $505 -4.5854930756749672 $403 -1.2080531203272332e-014 $397 $506 forward 7 unknown #
vertex $-1 $262 $507 #
straight-curve $-1 -47.260963774529252 7.8262871184965359 7.8246110305869969 0 -1 0 I I #
coedge $-1 $396 $263 $266 $410 forward $256 $-1 #
coedge $-1 $263 $396 $401 $504 forward $256 $-1 #
vertex $-1 $264 $508 #
straight-curve $-1 -61.865405138170431 20.087419039465122 11.534352893923298 -1 0 0 I I #
straight-curve $-1 -47.260963774529259 20.087419039465122 7.8246110305869792 0.5877852410284794 0 0.80901700255871778 I I #
edge $-1 $268 -20.087419039465122 $502 -11.217729434521022 $266 $509 forward 7 unknown #
point $-1 -47.260963774529252 20.087419039465122 11.534352893923298 #
point $-1 -47.260963774529252 20.087419039465122 7.8246110305869889 #
edge $-1 $510 1 $510 0 $271 $-1 forward 7 unknown #
vertex $-1 $272 $511 #
ellipse-curve $-1 -44.589085765455359 15.652574236993072 8.7173686314667886 -0.80901700255871778 0 0.5877852410284794 0.2938926205142397 0 0.40450850127935889 1 I I #
point $-1 -45.619428577655 15.652574236993072 10.083990463534501 #
plane-surface $-1 47.260963774529252 0 0 -1 0 0 0 0 1 forward_v I I I I #
coedge $-1 $421 $512 $280 $424 reversed $276 $-1 #
coedge $-1 $283 $278 $423 $513 forward $166 $-1 #
coedge $-1 $278 $283 $286 $431 forward $166 $-1 #
coedge $-1 $512 $418 $278 $422 reversed $276 $-1 #
edge $-1 $514 -38.665556551101929 $515 -28.097066049932319 $278 $516 forward 7 unknown #
coedge $-1 $280 $279 $419 $513 reversed $103 $-1 #
edge $-1 $515 82.059791729691909 $426 94.521927549058503 $418 $517 forward 7 unknown #
coedge $-1 $286 $281 $512 $518 forward $287 $-1 #
vertex $-1 $518 $519 #
straight-curve $-1 47.260963774529259 8.2014541511648229 4.9304269625527972 0 1 0 I I #
vertex $-1 $284 $520 #
straight-curve $-1 8.5954072234273262 12.718397565194163 11.534352893923298 1 0 0 I I #
straight-curve $-1 -32.898176515216029 12.718397565194163 55.019417924623482 -0.84804809178421925 0 0.52991927123019833 I I #
edge $-1 $288 12.718397565194163 $514 20.087419039465129 $286 $521 forward 7 unknown #
point $-1 47.260963774529252 12.718397565194163 11.534352893923298 #
point $-1 47.260963774529252 12.718397565194163 4.9304269625528008 #
edge $-1 $522 1 $522 0 $291 $-1 forward 7 unknown #
vertex $-1 $292 $523 #
ellipse-curve $-1 41.150618902565945 16.402908302329646 6.9103542039901935 0.52991927123019833 0 0.84804809178421925 1.2720721376763289 0 -0.79487890684529749 1 I I #
point $-1 43.248790661620788 16.402908302329646 7.4375110213927593 #
plane-surface $-1 47.260963774529252 0 0 -1 0 0 0 0 1 forward_v I I I I #
coedge $-1 $300 $298 $302 $443 reversed $181 $-1 #
edge $-1 $313 -11.534352893923298 $445 11.534352893923298 $312 $524 forward 7 unknown #
vertex $-1 $443 $525 #
straight-curve $-1 -47.260963774529252 -29.040388895092757 0 0 0 -1 I I #
edge $-1 $441 -29.040388895092757 $445 29.040388895092757 $439 $526 forward 7 unknown #
straight-curve $-1 0 -29.040388895092757 -11.534352893923298 -1 0 0 I I #
vertex $-1 $305 $527 #
straight-curve $-1 0 29.040388895092757 -11.534352893923298 1 0 0 I I #
point $-1 47.260963774529252 29.040388895092757 -11.534352893923298 #
point $-1 47.260963774529252 -29.040388895092757 -11.534352893923298 #
straight-curve $-1 -47.260963774529252 0 11.534352893923298 0 -1 0 I I #
point $-1 -47.260963774529252 29.040388895092757 11.534352893923298 #
point $-1 -47.260963774529252 -29.040388895092757 11.534352893923298 #
straight-curve $-1 47.260963774529252 -29.040388895092757 0 0 0 -1 I I #
straight-curve $-1 47.260963774529252 29.040388895092757 0 0 0 -1 I I #
plane-surface $-1 47.260963774529252 0 0 -1 0 0 0 0 1 forward_v I I I I #
coedge $-1 $458 $325 $336 $467 forward $200 $-1 #
coedge $-1 $325 $458 $339 $469 reversed $200 $-1 #
straight-curve $-1 47.260963774529252 -18.806830243424553 -0.22834582656409097 0 0 1 I I #
coedge $-1 $456 $455 $328 $459 forward $200 $-1 #
edge $-1 $462 6.8450254587952255 $460 17.078584110463432 $458 $528 forward 7 unknown #
vertex $-1 $330 $529 #
straight-curve $-1 0 -29.040388895092757 -3.8003409903732535 1 0 0 I I #
vertex $-1 $459 $530 #
straight-curve $-1 0 -18.806830243424553 -3.8003409903732535 1 0 0 I I #
point $-1 47.260963774529252 -29.040388895092757 -3.8003409903732535 #
point $-1 47.260963774529252 -18.806830243424553 -3.8003409903732535 #
straight-curve $-1 -47.260963774529252 -11.961804784629328 2.8869576841168896 0 1 0 I I #
edge $-1 $337 -3.1153035106809805 $462 3.5719951638091625 $455 $531 forward 7 unknown #
point $-1 -47.260963774529252 -18.806830243424553 2.8869576841168896 #
edge $-1 $341 -2.8869576841168896 $460 3.8003409903732535 $456 $532 forward 7 unknown #
point $-1 -47.260963774529252 -29.040388895092757 2.8869576841168896 #
straight-curve $-1 47.260963774529252 -29.040388895092757 0 0 0 -1 I I #
plane-surface $-1 0 29.040388895092757 0 0 -1 0 0 0 -1 forward_v I I I I #
coedge $-1 $350 $482 $352 $476 forward $347 $-1 #
vertex $-1 $476 $533 #
straight-curve $-1 -47.260963774529252 20.087419039465118 2.7715662363491571 0 0 1 I I #
edge $-1 $478 -16.758436911453288 $474 -7.80546705582565 $473 $534 forward 7 unknown #
straight-curve $-1 0 20.087419039465118 4.0431324726983142 -1 0 0 I I #
vertex $-1 $355 $535 #
straight-curve $-1 0 29.040388895092757 4.0431324726983142 -1 0 0 I I #
point $-1 47.260963774529252 20.087419039465118 4.0431324726983142 #
point $-1 47.260963774529252 29.040388895092754 4.0431324726983142 #
coedge $-1 $473 $359 $362 $484 forward $347 $-1 #
straight-curve $-1 -47.260963774529252 12.281951983639468 7.0431324726983142 0 1 0 I I #
edge $-1 $364 -7.0431324726983142 $478 -4.0431324726983142 $362 $536 forward 7 unknown #
point $-1 -47.260963774529252 29.040388895092754 7.0431324726983142 #
point $-1 -47.260963774529252 20.087419039465118 7.0431324726983142 #
straight-curve $-1 47.260963774529252 20.087419039465118 2.7715662363491571 0 0 -1 I I #
straight-curve $-1 47.260963774529252 29.040388895092757 0 0 0 -1 I I #
coedge $-1 $384 $383 $376 $490 forward $373 $-1 #
edge $-1 $491 14.604441363641179 $494 17.299726516361204 $489 $537 forward 7 unknown #
vertex $-1 $490 $538 #
straight-curve $-1 -47.260963774529252 -18.806830243424553 31.6916024987434 0 0 1 I I #
edge $-1 $494 -11.620837522948301 $385 -2.751147918004202 $384 $539 forward 7 unknown #
vertex $-1 $493 $540 #
straight-curve $-1 -47.260963774529259 -18.806830243424553 7.8246110305869792 -0.5877852410284794 0 -0.80901700255871778 I I #
point $-1 -47.260963774529252 -18.806830243424553 7.8246110305869889 #
point $-1 -44.565678621809226 -9.9371406384804537 11.534352893923298 #
straight-curve $-1 -47.260963774529252 0 11.534352893923298 0 -1 0 I I #
vertex $-1 $391 $541 #
point $-1 -44.295193144941123 -14.371985440952503 9.1218771327461479 #
edge $-1 $502 14.604441363641179 $505 17.299726516361204 $396 $542 forward 7 unknown #
vertex $-1 $501 $543 #
straight-curve $-1 -47.260963774529252 11.217729434521022 31.6916024987434 0 0 1 I I #
edge $-1 $505 3.3914423160244862 $407 12.261131920968586 $406 $544 forward 7 unknown #
vertex $-1 $504 $545 #
straight-curve $-1 -47.260963774529259 11.217729434521022 7.8246110305869792 -0.5877852410284794 0 -0.80901700255871778 I I #
point $-1 -47.260963774529252 11.217729434521022 7.8246110305869889 #
point $-1 -44.565678621809226 20.087419039465122 11.534352893923298 #
straight-curve $-1 -47.260963774529252 0 11.534352893923298 0 -1 0 I I #
vertex $-1 $413 $546 #
point $-1 -44.295193144941123 15.652574236993072 9.1218771327461479 #
coedge $-1 $418 $421 $425 $518 reversed $276 $-1 #
edge $-1 $515 -11.885964888300306 $428 -4.5169434140293401 $419 $547 forward 7 unknown #
vertex $-1 $518 $548 #
vertex $-1 $513 $549 #
straight-curve $-1 8.5954072234273262 20.087419039465129 11.534352893923298 -1 0 0 I I #
straight-curve $-1 -32.898176515216029 20.087419039465129 55.019417924623482 0.84804809178421925 0 -0.52991927123019833 I I #
edge $-1 $426 -62.658852144631588 $514 -56.054926213261083 $425 $550 forward 7 unknown #
point $-1 47.260963774529252 20.087419039465118 4.9304269625527937 #
point $-1 36.692473273359646 12.718397565194163 11.534352893923298 #
straight-curve $-1 47.260963774529252 0 11.534352893923298 0 1 0 I I #
vertex $-1 $434 $551 #
point $-1 42.42269104024227 16.402908302329646 6.1154752971448962 #
straight-curve $-1 -47.260963774529252 29.040388895092757 0 0 0 -1 I I #
point $-1 -47.260963774529252 -29.040388895092757 -11.534352893923298 #
straight-curve $-1 -47.260963774529252 0 -11.534352893923298 0 1 0 I I #
point $-1 -47.260963774529252 29.040388895092757 -11.534352893923298 #
straight-curve $-1 -47.260963774529252 -11.961804784629328 -3.8003409903732535 0 -1 0 I I #
point $-1 -47.260963774529252 -29.040388895092757 -3.8003409903732535 #
point $-1 -47.260963774529252 -18.806830243424553 -3.8003409903732535 #
straight-curve $-1 -47.260963774529252 -18.806830243424553 -0.22834582656409097 0 0 -1 I I #
straight-curve $-1 -47.260963774529252 -29.040388895092757 0 0 0 -1 I I #
point $-1 -47.260963774529252 20.087419039465118 4.0431324726983142 #
straight-curve $-1 -47.260963774529252 12.281951983639468 4.0431324726983142 0 -1 0 I I #
point $-1 -47.260963774529252 29.040388895092754 4.0431324726983142 #
straight-curve $-1 -47.260963774529252 29.040388895092757 0 0 0 -1 I I #
straight-curve $-1 -61.865405138170431 -18.806830243424553 11.534352893923298 1 0 0 I I #
point $-1 -47.260963774529252 -18.806830243424553 11.534352893923298 #
straight-curve $-1 -44.565678621809226 -7.1859927204762517 11.534352893923298 0 1 0 I I #
point $-1 -44.565678621809226 -18.806830243424553 11.534352893923298 #
point $-1 -44.184577264176006 -14.371985440952503 8.4234760109525499 #
straight-curve $-1 -61.865405138170431 11.217729434521022 11.534352893923298 1 0 0 I I #
point $-1 -47.260963774529252 11.217729434521022 11.534352893923298 #
straight-curve $-1 -44.565678621809226 7.8262871184965359 11.534352893923298 0 1 0 I I #
point $-1 -44.565678621809226 11.217729434521022 11.534352893923298 #
point $-1 -44.184577264176006 15.652574236993072 8.4234760109525499 #
straight-curve $-1 36.692473273359646 8.2014541511648229 11.534352893923298 0 -1 0 I I #
point $-1 47.260963774529252 20.087419039465129 11.534352893923298 #
point $-1 36.692473273359646 20.087419039465129 11.534352893923298 #
straight-curve $-1 47.260963774529252 20.087419039465129 67.589279107184382 0 0 1 I I #
point $-1 40.355739995720647 16.402908302329646 5.6382820663138649 #
End-of-ACIS-data 