500 0 8 0           
7 Unknown 11 ACIS 5.0 NT 24 Thu Mar 25 21:33:54 1999 
-1 9.9999999999999995e-007 1e-010 
body $-1 $8 $-1 $9 #
body $-1 $10 $-1 $11 #
body $-1 $12 $-1 $13 #
body $-1 $14 $-1 $15 #
body $-1 $16 $-1 $17 #
body $-1 $18 $-1 $19 #
body $-1 $20 $-1 $21 #
body $-1 $22 $-1 $23 #
lump $-1 $-1 $24 $0 #
transform $-1 1 0 0 0 1 0 0 0 1 64.715109714041574 42.483819407508598 11.711152903233808 1 rotate no_reflect no_shear #
lump $-1 $-1 $25 $1 #
transform $-1 1 0 0 0 1 0 0 0 1 64.715109714041574 42.483819407508598 11.711152903233808 1 rotate no_reflect no_shear #
lump $-1 $-1 $26 $2 #
transform $-1 1 0 0 0 1 0 0 0 1 64.715109714041574 42.483819407508598 11.711152903233808 1 rotate no_reflect no_shear #
lump $-1 $-1 $27 $3 #
transform $-1 1 0 0 0 1 0 0 0 1 64.715109714041574 42.483819407508598 11.711152903233808 1 rotate no_reflect no_shear #
lump $-1 $-1 $28 $4 #
transform $-1 1 0 0 0 1 0 0 0 1 64.715109714041574 42.483819407508598 11.711152903233808 1 rotate no_reflect no_shear #
lump $-1 $-1 $29 $5 #
transform $-1 1 0 0 0 1 0 0 0 1 64.715109714041574 42.483819407508598 11.711152903233808 1 rotate no_reflect no_shear #
lump $-1 $-1 $30 $6 #
transform $-1 1 0 0 0 1 0 0 0 1 64.715109714041574 42.483819407508598 11.711152903233808 1 rotate no_reflect no_shear #
lump $-1 $-1 $31 $7 #
transform $-1 1 0 0 0 1 0 0 0 1 64.715109714041574 42.483819407508598 11.711152903233808 1 rotate no_reflect no_shear #
shell $-1 $-1 $-1 $32 $-1 $8 #
shell $-1 $-1 $-1 $33 $-1 $10 #
shell $-1 $-1 $-1 $34 $-1 $12 #
shell $-1 $-1 $-1 $35 $-1 $14 #
shell $-1 $-1 $-1 $36 $-1 $16 #
shell $-1 $-1 $-1 $37 $-1 $18 #
shell $-1 $-1 $-1 $38 $-1 $20 #
shell $-1 $-1 $-1 $39 $-1 $22 #
face $-1 $40 $41 $24 $-1 $42 forward single #
face $-1 $43 $44 $25 $-1 $45 reversed single #
face $-1 $46 $47 $26 $-1 $48 reversed single #
face $-1 $49 $50 $27 $-1 $51 forward single #
face $-1 $52 $53 $28 $-1 $54 forward single #
face $-1 $55 $56 $29 $-1 $57 reversed single #
face $-1 $58 $59 $30 $-1 $60 forward single #
face $-1 $61 $62 $31 $-1 $63 forward single #
face $-1 $64 $65 $24 $-1 $66 reversed single #
loop $-1 $-1 $67 $32 #
plane-surface $-1 0 0 11.711152903233808 0 0 1 1 0 0 forward_v I I I I #
face $-1 $68 $69 $25 $-1 $70 reversed single #
loop $-1 $-1 $71 $33 #
plane-surface $-1 0 -37.512113869958476 8.711152903233808 0 0 1 1 0 0 forward_v I I I I #
face $-1 $72 $73 $26 $-1 $74 reversed single #
loop $-1 $-1 $75 $34 #
plane-surface $-1 -47.374747827499007 38.362146273989772 71.445936387636436 0.50000000669873634 0 0.8660253999169214 0.8660253999169214 0 -0.50000000669873634 forward_v I I I I #
face $-1 $76 $77 $27 $-1 $78 forward single #
loop $-1 $79 $80 $35 #
cone-surface $-1 59.937574063542989 36.595714931053116 8.4165453991789523 -0.50000000669873634 0 -0.8660253999169214 0.8660253999169214 0 -0.50000000669873634 1 I I 0 1 1 forward I I I I #
face $-1 $81 $82 $28 $-1 $83 forward single #
loop $-1 $84 $85 $36 #
cone-surface $-1 59.937574063542989 40.1285776169264 8.4165453991789523 -0.50000000669873634 0 -0.8660253999169214 0.8660253999169214 0 -0.50000000669873634 1 I I 0 1 1 forward I I I I #
face $-1 $86 $87 $29 $-1 $88 reversed single #
loop $-1 $-1 $89 $37 #
plane-surface $-1 -64.715109714041574 38.362146273989772 6.7308258065759361 -0.50000000669873634 0 0.8660253999169214 0.8660253999169214 0 0.50000000669873634 forward_v I I I I #
face $-1 $90 $91 $30 $-1 $92 forward single #
loop $-1 $93 $94 $38 #
cone-surface $-1 -59.937574063542996 36.595714931053116 8.4165453991789452 0.50000000669873634 0 -0.8660253999169214 0.8660253999169214 0 0.50000000669873634 1 I I 0 1 1 forward I I I I #
face $-1 $95 $96 $31 $-1 $97 forward single #
loop $-1 $98 $99 $39 #
cone-surface $-1 -59.937574063542996 40.1285776169264 8.4165453991789452 0.50000000669873634 0 -0.8660253999169214 0.8660253999169214 0 0.50000000669873634 1 I I 0 1 1 forward I I I I #
face $-1 $100 $101 $24 $-1 $102 reversed single #
loop $-1 $-1 $103 $40 #
plane-surface $-1 0 0 -11.711152903233808 0 0 1 1 0 0 forward_v I I I I #
coedge $-1 $104 $105 $106 $107 forward $41 $-1 #
face $-1 $108 $109 $25 $-1 $110 reversed single #
loop $-1 $-1 $111 $43 #
plane-surface $-1 0 -32.540408332408354 10.211152903233808 0 -1 0 0 0 -1 forward_v I I I I #
coedge $-1 $112 $113 $114 $115 reversed $44 $-1 #
face $-1 $116 $117 $26 $-1 $118 reversed single #
loop $-1 $-1 $119 $46 #
plane-surface $-1 17.340362753561479 34.240473140470939 183.53579392917703 0 1 0 0.50000000669873634 0 0.8660253999169214 forward_v I I I I #
coedge $-1 $120 $121 $122 $123 reversed $47 $-1 #
face $-1 $-1 $124 $27 $-1 $125 forward single #
loop $-1 $126 $127 $49 #
cone-surface $-1 59.223128117510754 36.595714931053116 7.1790887434945692 -0.50000000669873634 0 -0.8660253999169214 0.4330126999584607 0 -0.25000000334936817 1 I I -0.70710678118654746 0.70710678118654746 0.5 forward I I I I #
loop $-1 $-1 $128 $35 #
coedge $-1 $80 $80 $129 $130 reversed $50 $-1 #
face $-1 $-1 $131 $28 $-1 $132 forward single #
loop $-1 $133 $134 $52 #
cone-surface $-1 59.223128117510754 40.1285776169264 7.1790887434945692 -0.50000000669873634 0 -0.8660253999169214 0.4330126999584607 0 -0.25000000334936817 1 I I -0.70710678118654746 0.70710678118654746 0.5 forward I I I I #
loop $-1 $-1 $135 $36 #
coedge $-1 $85 $85 $136 $137 reversed $53 $-1 #
face $-1 $138 $139 $29 $-1 $140 forward single #
loop $-1 $-1 $141 $55 #
plane-surface $-1 -129.43022029510206 34.240473140470939 118.82068334811653 0 1 0 -0.50000000669873634 0 0.8660253999169214 forward_v I I I I #
coedge $-1 $142 $143 $144 $145 reversed $56 $-1 #
face $-1 $-1 $146 $30 $-1 $147 forward single #
loop $-1 $148 $149 $58 #
cone-surface $-1 -59.223128117510761 36.595714931053116 7.1790887434945621 0.50000000669873634 0 -0.8660253999169214 0.4330126999584607 0 0.25000000334936817 1 I I -0.70710678118654746 0.70710678118654746 0.5 forward I I I I #
loop $-1 $-1 $150 $38 #
coedge $-1 $94 $94 $151 $152 reversed $59 $-1 #
face $-1 $-1 $153 $31 $-1 $154 forward single #
loop $-1 $155 $156 $61 #
cone-surface $-1 -59.223128117510761 40.1285776169264 7.1790887434945621 0.50000000669873634 0 -0.8660253999169214 0.4330126999584607 0 0.25000000334936817 1 I I -0.70710678118654746 0.70710678118654746 0.5 forward I I I I #
loop $-1 $-1 $157 $39 #
coedge $-1 $99 $99 $158 $159 reversed $62 $-1 #
face $-1 $160 $161 $24 $-1 $162 reversed single #
loop $-1 $-1 $163 $64 #
plane-surface $-1 0 -42.483819407508598 0 0 1 0 0 0 1 forward_v I I I I #
coedge $-1 $164 $165 $166 $167 forward $65 $-1 #
coedge $-1 $168 $67 $169 $170 forward $41 $-1 #
coedge $-1 $67 $168 $171 $172 forward $41 $-1 #
coedge $-1 $173 $174 $67 $107 reversed $175 $-1 #
edge $-1 $176 -42.483819407508598 $177 42.483819407508598 $106 $178 forward 7 unknown #
face $-1 $179 $180 $25 $-1 $181 reversed single #
loop $-1 $-1 $182 $68 #
plane-surface $-1 -64.715109714041574 0 0 1 0 0 0 0 -1 forward_v I I I I #
coedge $-1 $183 $184 $185 $186 reversed $69 $-1 #
coedge $-1 $187 $71 $188 $189 reversed $44 $-1 #
coedge $-1 $71 $187 $183 $190 forward $44 $-1 #
coedge $-1 $185 $191 $71 $115 forward $192 $-1 #
edge $-1 $193 -23.72776247252936 $194 -13.784351397429116 $114 $195 forward 7 unknown #
face $-1 $196 $197 $26 $-1 $198 forward single #
loop $-1 $-1 $199 $72 #
plane-surface $-1 0 42.483819407508598 0 0 -1 0 0 0 -1 forward_v I I I I #
coedge $-1 $200 $201 $202 $203 reversed $73 $-1 #
coedge $-1 $204 $75 $199 $205 reversed $47 $-1 #
coedge $-1 $75 $204 $200 $206 forward $47 $-1 #
coedge $-1 $202 $207 $75 $123 forward $197 $-1 #
edge $-1 $208 -23.302746270513719 $209 -15.059400003476053 $122 $210 forward 7 unknown #
loop $-1 $-1 $129 $76 #
plane-surface $-1 -47.374747827499007 38.362146273989772 71.445936387636436 0.50000000669873634 0 0.8660253999169214 0.8660253999169214 0 -0.50000000669873634 forward_v I I I I #
loop $-1 $-1 $211 $49 #
coedge $-1 $127 $127 $128 $212 reversed $77 $-1 #
coedge $-1 $128 $128 $127 $212 forward $79 $-1 #
coedge $-1 $129 $129 $80 $130 forward $124 $-1 #
edge $-1 $213 0 $213 6.2831853071796004 $129 $214 forward 7 unknown #
loop $-1 $-1 $136 $81 #
plane-surface $-1 -47.374747827499007 38.362146273989772 71.445936387636436 0.50000000669873634 0 0.8660253999169214 0.8660253999169214 0 -0.50000000669873634 forward_v I I I I #
loop $-1 $-1 $215 $52 #
coedge $-1 $134 $134 $135 $216 reversed $82 $-1 #
coedge $-1 $135 $135 $134 $216 forward $84 $-1 #
coedge $-1 $136 $136 $85 $137 forward $131 $-1 #
edge $-1 $217 0 $217 6.2831853071796004 $136 $218 forward 7 unknown #
face $-1 $219 $220 $29 $-1 $221 reversed single #
loop $-1 $-1 $222 $86 #
plane-surface $-1 0 0 11.711152903233808 0 0 1 1 0 0 forward_v I I I I #
coedge $-1 $223 $224 $225 $226 reversed $87 $-1 #
coedge $-1 $227 $89 $228 $229 reversed $56 $-1 #
coedge $-1 $89 $227 $223 $230 forward $56 $-1 #
coedge $-1 $225 $231 $89 $145 forward $232 $-1 #
edge $-1 $233 -23.302746270513712 $234 -15.059400003476053 $144 $235 forward 7 unknown #
loop $-1 $-1 $151 $90 #
plane-surface $-1 -64.715109714041574 38.362146273989772 6.7308258065759361 -0.50000000669873634 0 0.8660253999169214 0.8660253999169214 0 0.50000000669873634 forward_v I I I I #
loop $-1 $-1 $236 $58 #
coedge $-1 $149 $149 $150 $237 reversed $91 $-1 #
coedge $-1 $150 $150 $149 $237 forward $93 $-1 #
coedge $-1 $151 $151 $94 $152 forward $146 $-1 #
edge $-1 $238 0 $238 6.2831853071796004 $151 $239 forward 7 unknown #
loop $-1 $-1 $158 $95 #
plane-surface $-1 -64.715109714041574 38.362146273989772 6.7308258065759361 -0.50000000669873634 0 0.8660253999169214 0.8660253999169214 0 0.50000000669873634 forward_v I I I I #
loop $-1 $-1 $240 $61 #
coedge $-1 $156 $156 $157 $241 reversed $96 $-1 #
coedge $-1 $157 $157 $156 $241 forward $98 $-1 #
coedge $-1 $158 $158 $99 $159 forward $153 $-1 #
edge $-1 $242 0 $242 6.2831853071796004 $158 $243 forward 7 unknown #
face $-1 $244 $245 $24 $-1 $246 reversed single #
loop $-1 $-1 $247 $100 #
plane-surface $-1 -64.715109714041574 0 0 1 0 0 0 0 -1 forward_v I I I I #
coedge $-1 $248 $171 $249 $250 forward $101 $-1 #
coedge $-1 $251 $103 $248 $252 forward $65 $-1 #
coedge $-1 $103 $251 $253 $254 forward $65 $-1 #
coedge $-1 $174 $173 $103 $167 reversed $175 $-1 #
edge $-1 $255 -42.483819407508598 $256 42.483819407508598 $166 $257 forward 7 unknown #
coedge $-1 $105 $104 $258 $259 forward $41 $-1 #
coedge $-1 $260 $261 $104 $170 reversed $245 $-1 #
edge $-1 $177 -64.715109714041574 $262 64.715109714041574 $169 $263 forward 7 unknown #
coedge $-1 $163 $264 $105 $172 reversed $101 $-1 #
edge $-1 $265 -64.715109714041574 $176 64.715109714041574 $171 $266 forward 7 unknown #
coedge $-1 $166 $106 $264 $267 forward $175 $-1 #
coedge $-1 $106 $166 $260 $268 reversed $175 $-1 #
loop $-1 $-1 $173 $244 #
vertex $-1 $107 $269 #
vertex $-1 $107 $270 #
straight-curve $-1 64.715109714041574 0 11.711152903233808 0 1 0 I I #
face $-1 $271 $272 $25 $-1 $273 forward single #
loop $-1 $-1 $188 $108 #
plane-surface $-1 0 -42.483819407508598 0 0 1 0 0 0 1 forward_v I I I I #
coedge $-1 $274 $275 $276 $277 forward $109 $-1 #
coedge $-1 $276 $111 $113 $190 reversed $69 $-1 #
coedge $-1 $111 $276 $278 $279 reversed $69 $-1 #
coedge $-1 $280 $114 $111 $186 forward $192 $-1 #
edge $-1 $194 3.605576451616904 $281 6.605576451616904 $185 $282 forward 7 unknown #
coedge $-1 $113 $112 $274 $283 reversed $44 $-1 #
coedge $-1 $284 $285 $112 $189 forward $180 $-1 #
edge $-1 $286 -64.715109714041574 $193 64.715109714041574 $188 $287 forward 7 unknown #
edge $-1 $288 -64.715109714041574 $194 64.715109714041574 $183 $289 forward 7 unknown #
coedge $-1 $114 $280 $284 $290 forward $192 $-1 #
loop $-1 $-1 $185 $271 #
vertex $-1 $189 $291 #
vertex $-1 $115 $292 #
straight-curve $-1 64.715109714041574 -18.756056934979238 8.711152903233808 0 1 0 I I #
face $-1 $-1 $293 $26 $-1 $294 reversed single #
loop $-1 $-1 $122 $116 #
plane-surface $-1 0 0 11.711152903233808 0 0 1 1 0 0 forward_v I I I I #
coedge $-1 $295 $296 $120 $205 forward $117 $-1 #
coedge $-1 $201 $119 $121 $206 reversed $73 $-1 #
coedge $-1 $119 $200 $297 $298 reversed $73 $-1 #
coedge $-1 $299 $122 $119 $203 forward $197 $-1 #
edge $-1 $209 47.418748921629451 $300 56.044928337260835 $202 $301 forward 7 unknown #
coedge $-1 $121 $120 $302 $303 reversed $47 $-1 #
edge $-1 $304 -91.0548676252387 $208 -81.094213565370609 $199 $305 forward 7 unknown #
edge $-1 $306 -129.43021942808312 $209 -119.46956536821502 $200 $307 forward 7 unknown #
coedge $-1 $122 $299 $295 $308 forward $197 $-1 #
vertex $-1 $123 $309 #
vertex $-1 $123 $310 #
straight-curve $-1 56.088930298410162 19.181073136994886 11.711152903233817 0 -1 0 I I #
coedge $-1 $211 $211 $-1 $311 reversed $126 $-1 #
edge $-1 $312 0 $312 6.2831853071796004 $127 $313 forward 7 unknown #
vertex $-1 $130 $314 #
ellipse-curve $-1 60.402020006225868 36.595714931053116 9.220989354904896 0.50000000669873634 0 0.8660253999169214 0.8660253999169214 0 -0.50000000669873634 1 I I #
coedge $-1 $215 $215 $-1 $315 reversed $133 $-1 #
edge $-1 $316 0 $316 6.2831853071796004 $134 $317 forward 7 unknown #
vertex $-1 $137 $318 #
ellipse-curve $-1 60.402020006225868 40.1285776169264 9.220989354904896 0.50000000669873634 0 0.8660253999169214 0.8660253999169214 0 -0.50000000669873634 1 I I #
face $-1 $-1 $232 $29 $-1 $319 reversed single #
loop $-1 $-1 $228 $138 #
plane-surface $-1 0 42.483819407508598 0 0 -1 0 0 0 -1 forward_v I I I I #
coedge $-1 $320 $321 $224 $322 forward $139 $-1 #
coedge $-1 $224 $141 $143 $230 reversed $87 $-1 #
coedge $-1 $141 $223 $222 $322 reversed $87 $-1 #
coedge $-1 $323 $144 $141 $226 forward $232 $-1 #
edge $-1 $234 -52.67951586748233 $324 -47.699188770824456 $225 $325 forward 7 unknown #
coedge $-1 $143 $142 $320 $326 reversed $56 $-1 #
coedge $-1 $327 $328 $142 $229 forward $220 $-1 #
edge $-1 $329 16.379103851328999 $233 26.339757911197154 $228 $330 forward 7 unknown #
edge $-1 $331 -9.9606540598681548 $234 0 $223 $332 forward 7 unknown #
coedge $-1 $144 $323 $327 $333 forward $232 $-1 #
loop $-1 $-1 $225 $219 #
vertex $-1 $229 $334 #
vertex $-1 $145 $335 #
straight-curve $-1 -64.715109714041574 19.181073136994886 6.7308258065759343 0 -1 0 I I #
coedge $-1 $236 $236 $-1 $336 reversed $148 $-1 #
edge $-1 $337 0 $337 6.2831853071796004 $149 $338 forward 7 unknown #
vertex $-1 $152 $339 #
ellipse-curve $-1 -60.402020006225861 36.595714931053116 9.2209893549048711 -0.50000000669873634 0 0.8660253999169214 0.8660253999169214 0 0.50000000669873634 1 I I #
coedge $-1 $240 $240 $-1 $340 reversed $155 $-1 #
edge $-1 $341 0 $341 6.2831853071796004 $156 $342 forward 7 unknown #
vertex $-1 $159 $343 #
ellipse-curve $-1 -60.402020006225861 40.1285776169264 9.2209893549048711 -0.50000000669873634 0 0.8660253999169214 0.8660253999169214 0 0.50000000669873634 1 I I #
face $-1 $-1 $175 $24 $-1 $344 reversed single #
loop $-1 $-1 $260 $160 #
plane-surface $-1 0 42.483819407508598 0 0 -1 0 0 0 -1 forward_v I I I I #
coedge $-1 $345 $258 $261 $346 forward $161 $-1 #
coedge $-1 $264 $163 $164 $252 reversed $101 $-1 #
coedge $-1 $258 $345 $163 $250 reversed $161 $-1 #
edge $-1 $265 -11.711152903233808 $347 11.711152903233808 $249 $348 forward 7 unknown #
coedge $-1 $165 $164 $345 $349 forward $65 $-1 #
edge $-1 $256 -64.715109714041574 $347 64.715109714041574 $248 $350 forward 7 unknown #
coedge $-1 $261 $260 $165 $254 reversed $245 $-1 #
edge $-1 $351 -64.715109714041574 $255 64.715109714041574 $253 $352 forward 7 unknown #
vertex $-1 $167 $353 #
vertex $-1 $267 $354 #
straight-curve $-1 64.715109714041574 0 -11.711152903233808 0 -1 0 I I #
coedge $-1 $247 $249 $168 $259 reversed $161 $-1 #
edge $-1 $262 -42.483819407508598 $265 42.483819407508598 $258 $355 forward 7 unknown #
coedge $-1 $253 $169 $174 $268 forward $245 $-1 #
coedge $-1 $169 $253 $247 $346 reversed $245 $-1 #
vertex $-1 $170 $356 #
straight-curve $-1 0 42.483819407508598 11.711152903233808 -1 0 0 I I #
coedge $-1 $171 $248 $173 $267 reversed $101 $-1 #
vertex $-1 $259 $357 #
straight-curve $-1 0 -42.483819407508598 11.711152903233808 1 0 0 I I #
edge $-1 $176 -11.711152903233808 $256 11.711152903233808 $173 $358 forward 7 unknown #
edge $-1 $177 -11.711152903233808 $255 11.711152903233808 $174 $359 forward 7 unknown #
point $-1 64.715109714041574 -42.483819407508598 11.711152903233808 #
point $-1 64.715109714041574 42.483819407508598 11.711152903233808 #
face $-1 $-1 $192 $25 $-1 $360 reversed single #
loop $-1 $-1 $278 $179 #
plane-surface $-1 0 0 11.711152903233808 0 0 1 1 0 0 forward_v I I I I #
coedge $-1 $361 $182 $187 $283 forward $109 $-1 #
coedge $-1 $182 $361 $362 $363 reversed $109 $-1 #
coedge $-1 $184 $183 $182 $277 reversed $69 $-1 #
edge $-1 $364 -6.605576451616904 $288 -3.605576451616904 $182 $365 forward 7 unknown #
coedge $-1 $362 $366 $184 $279 forward $272 $-1 #
edge $-1 $281 -64.715109714041574 $364 64.715109714041574 $278 $367 forward 7 unknown #
coedge $-1 $191 $185 $366 $368 reversed $192 $-1 #
vertex $-1 $186 $369 #
straight-curve $-1 64.715109714041574 -32.540408332408354 5.105576451616904 0 0 1 I I #
edge $-1 $288 13.784351397429116 $286 23.72776247252936 $274 $370 forward 7 unknown #
coedge $-1 $371 $188 $191 $290 reversed $180 $-1 #
coedge $-1 $188 $371 $361 $372 forward $180 $-1 #
vertex $-1 $189 $373 #
straight-curve $-1 0 -42.483819407508598 8.711152903233808 1 0 0 I I #
vertex $-1 $283 $374 #
straight-curve $-1 0 -32.540408332408354 8.711152903233808 1 0 0 I I #
edge $-1 $375 -11.711152903233808 $193 -8.711152903233808 $191 $376 forward 7 unknown #
point $-1 64.715109714041574 -42.483819407508598 8.711152903233808 #
point $-1 64.715109714041574 -32.540408332408354 8.711152903233808 #
loop $-1 $-1 $302 $196 #
plane-surface $-1 64.715109714041574 0 0 -1 0 0 0 0 1 forward_v I I I I #
coedge $-1 $296 $199 $207 $308 reversed $117 $-1 #
coedge $-1 $199 $295 $377 $378 forward $117 $-1 #
coedge $-1 $302 $379 $201 $298 forward $293 $-1 #
edge $-1 $300 80.056744061354706 $306 85.037071158012552 $297 $380 forward 7 unknown #
coedge $-1 $207 $202 $379 $381 forward $197 $-1 #
vertex $-1 $381 $382 #
straight-curve $-1 8.6701813767807394 34.240473140470939 11.71115290323381 1 0 0 I I #
coedge $-1 $377 $297 $204 $303 forward $293 $-1 #
edge $-1 $306 15.059400003476053 $304 23.302746270513719 $302 $383 forward 7 unknown #
vertex $-1 $303 $384 #
straight-curve $-1 -14.140718435488118 42.483819407508598 52.258260229147865 -0.8660253999169214 0 0.50000000669873634 I I #
vertex $-1 $303 $385 #
straight-curve $-1 -47.374747827499007 34.240473140470939 71.445936387636436 -0.8660253999169214 0 0.50000000669873634 I I #
edge $-1 $386 -64.715109714041574 $208 -56.08893029841019 $295 $387 forward 7 unknown #
point $-1 56.08893029841019 42.483819407508605 11.71115290323381 #
point $-1 56.08893029841019 34.240473140470939 11.71115290323381 #
edge $-1 $388 1 $388 0 $211 $-1 forward 7 unknown #
vertex $-1 $212 $389 #
ellipse-curve $-1 59.473128120860125 36.595714931053116 7.6121014434530299 0.50000000669873634 0 0.8660253999169214 0.8660253999169214 0 -0.50000000669873634 1 I I #
point $-1 61.268045406142775 36.595714931053116 8.7209893482061389 #
edge $-1 $390 1 $390 0 $215 $-1 forward 7 unknown #
vertex $-1 $216 $391 #
ellipse-curve $-1 59.473128120860125 40.1285776169264 7.6121014434530299 0.50000000669873634 0 0.8660253999169214 0.8660253999169214 0 -0.50000000669873634 1 I I #
point $-1 61.268045406142775 40.1285776169264 8.7209893482061389 #
plane-surface $-1 -64.715109714041574 0 0 1 0 0 0 0 -1 forward_v I I I I #
coedge $-1 $392 $222 $227 $326 forward $139 $-1 #
coedge $-1 $222 $392 $323 $393 forward $139 $-1 #
edge $-1 $324 4.3350945588827017e-007 $331 8.6261798491408825 $222 $394 forward 7 unknown #
coedge $-1 $231 $225 $321 $393 reversed $232 $-1 #
vertex $-1 $322 $395 #
straight-curve $-1 -64.715109714041574 34.240473140470939 59.410341674058266 0 0 1 I I #
edge $-1 $331 15.059400003476053 $329 23.302746270513719 $320 $396 forward 7 unknown #
coedge $-1 $328 $228 $231 $333 reversed $220 $-1 #
coedge $-1 $228 $327 $392 $397 reversed $220 $-1 #
vertex $-1 $397 $398 #
straight-curve $-1 -41.904210335282166 42.483819407508598 19.900704938617604 -0.8660253999169214 0 -0.50000000669873634 I I #
vertex $-1 $326 $399 #
straight-curve $-1 -64.715109714041574 34.240473140470939 6.7308258065759361 -0.8660253999169214 0 -0.50000000669873634 I I #
edge $-1 $400 -11.711152903233808 $233 -6.7308258065759361 $327 $401 forward 7 unknown #
point $-1 -64.715109714041574 42.483819407508598 6.7308258065759361 #
point $-1 -64.715109714041574 34.240473140470939 6.7308258065759361 #
edge $-1 $402 1 $402 0 $236 $-1 forward 7 unknown #
vertex $-1 $237 $403 #
ellipse-curve $-1 -59.473128120860132 36.595714931053116 7.6121014434530228 -0.50000000669873634 0 0.8660253999169214 0.8660253999169214 0 0.50000000669873634 1 I I #
point $-1 -59.53599460630894 36.595714931053116 9.7209893616036052 #
edge $-1 $404 1 $404 0 $240 $-1 forward 7 unknown #
vertex $-1 $241 $405 #
ellipse-curve $-1 -59.473128120860132 40.1285776169264 7.6121014434530228 -0.50000000669873634 0 0.8660253999169214 0.8660253999169214 0 0.50000000669873634 1 I I #
point $-1 -59.53599460630894 40.1285776169264 9.7209893616036052 #
plane-surface $-1 64.715109714041574 0 0 -1 0 0 0 0 1 forward_v I I I I #
coedge $-1 $249 $247 $251 $349 reversed $161 $-1 #
edge $-1 $262 -11.711152903233808 $351 11.711152903233808 $261 $406 forward 7 unknown #
vertex $-1 $349 $407 #
straight-curve $-1 -64.715109714041574 -42.483819407508598 0 0 0 -1 I I #
edge $-1 $347 -42.483819407508598 $351 42.483819407508598 $345 $408 forward 7 unknown #
straight-curve $-1 0 -42.483819407508598 -11.711152903233808 -1 0 0 I I #
vertex $-1 $254 $409 #
straight-curve $-1 0 42.483819407508598 -11.711152903233808 1 0 0 I I #
point $-1 64.715109714041574 42.483819407508598 -11.711152903233808 #
point $-1 64.715109714041574 -42.483819407508598 -11.711152903233808 #
straight-curve $-1 -64.715109714041574 0 11.711152903233808 0 -1 0 I I #
point $-1 -64.715109714041574 42.483819407508598 11.711152903233808 #
point $-1 -64.715109714041574 -42.483819407508598 11.711152903233808 #
straight-curve $-1 64.715109714041574 -42.483819407508598 0 0 0 -1 I I #
straight-curve $-1 64.715109714041574 42.483819407508598 0 0 0 -1 I I #
plane-surface $-1 64.715109714041574 0 0 -1 0 0 0 0 1 forward_v I I I I #
coedge $-1 $275 $274 $285 $372 reversed $109 $-1 #
coedge $-1 $410 $278 $275 $363 forward $272 $-1 #
edge $-1 $364 32.540408332408354 $411 42.483819407508598 $275 $412 forward 7 unknown #
vertex $-1 $363 $413 #
straight-curve $-1 -64.715109714041574 -32.540408332408354 5.105576451616904 0 0 -1 I I #
coedge $-1 $278 $410 $280 $368 forward $272 $-1 #
straight-curve $-1 0 -32.540408332408354 11.711152903233808 -1 0 0 I I #
edge $-1 $375 -42.483819407508598 $281 -32.540408332408354 $280 $414 forward 7 unknown #
point $-1 64.715109714041574 -32.540408332408354 11.711152903233808 #
straight-curve $-1 -64.715109714041574 -18.756056934979238 8.711152903233808 0 -1 0 I I #
coedge $-1 $285 $284 $410 $415 reversed $180 $-1 #
edge $-1 $411 -11.711152903233808 $286 -8.711152903233808 $361 $416 forward 7 unknown #
point $-1 -64.715109714041574 -42.483819407508598 8.711152903233808 #
point $-1 -64.715109714041574 -32.540408332408354 8.711152903233808 #
vertex $-1 $368 $417 #
straight-curve $-1 64.715109714041574 -42.483819407508598 0 0 0 -1 I I #
coedge $-1 $379 $302 $296 $378 reversed $293 $-1 #
edge $-1 $386 -11.711152903233808 $304 -6.7308258065759645 $377 $418 forward 7 unknown #
coedge $-1 $297 $377 $299 $381 reversed $293 $-1 #
straight-curve $-1 64.715109714041574 34.240473140470939 91.767896964588516 0 0 -1 I I #
edge $-1 $300 34.240473140470939 $386 42.483819407508598 $379 $419 forward 7 unknown #
point $-1 64.715109714041574 34.240473140470939 11.711152903233808 #
straight-curve $-1 64.715109714041574 19.181073136994886 6.7308258065759539 0 1 0 I I #
point $-1 64.71510971404156 42.483819407508605 6.7308258065759645 #
point $-1 64.71510971404156 34.240473140470939 6.7308258065759645 #
vertex $-1 $381 $420 #
straight-curve $-1 0 42.483819407508598 11.711152903233808 -1 0 0 I I #
vertex $-1 $311 $421 #
point $-1 60.339153520777046 36.595714931053116 7.1121014367542932 #
vertex $-1 $315 $422 #
point $-1 60.339153520777046 40.1285776169264 7.1121014367542932 #
coedge $-1 $321 $320 $328 $397 forward $139 $-1 #
edge $-1 $400 -42.483819407508598 $324 -34.240473140470939 $323 $423 forward 7 unknown #
straight-curve $-1 -64.71511014755103 34.240473140470939 11.71115290323381 1 0 0 I I #
point $-1 -64.715109714041574 34.240473140470939 11.711152903233808 #
straight-curve $-1 -56.088930298410148 19.181073136994886 11.71115290323381 0 1 0 I I #
edge $-1 $329 56.088930298410148 $400 64.715109714041574 $328 $424 forward 7 unknown #
point $-1 -56.088930298410148 42.483819407508605 11.711152903233808 #
point $-1 -56.088930298410148 34.240473140470939 11.711152903233808 #
vertex $-1 $397 $425 #
straight-curve $-1 -64.715109714041574 42.483819407508598 0 0 0 -1 I I #
vertex $-1 $336 $426 #
point $-1 -58.60710272094321 36.595714931053116 8.1121014501517585 #
vertex $-1 $340 $427 #
point $-1 -58.60710272094321 40.1285776169264 8.1121014501517585 #
straight-curve $-1 -64.715109714041574 42.483819407508598 0 0 0 -1 I I #
point $-1 -64.715109714041574 -42.483819407508598 -11.711152903233808 #
straight-curve $-1 -64.715109714041574 0 -11.711152903233808 0 1 0 I I #
point $-1 -64.715109714041574 42.483819407508598 -11.711152903233808 #
coedge $-1 $366 $362 $371 $415 forward $272 $-1 #
vertex $-1 $363 $428 #
straight-curve $-1 -64.715109714041574 0 11.711152903233808 0 -1 0 I I #
point $-1 -64.715109714041574 -32.540408332408354 11.711152903233808 #
straight-curve $-1 64.715109714041574 0 11.711152903233808 0 1 0 I I #
edge $-1 $411 -64.715109714041574 $375 64.715109714041574 $371 $429 forward 7 unknown #
straight-curve $-1 -64.715109714041574 -42.483819407508598 0 0 0 -1 I I #
point $-1 64.715109714041574 -42.483819407508598 11.711152903233808 #
straight-curve $-1 64.715109714041574 42.483819407508598 0 0 0 -1 I I #
straight-curve $-1 64.715109714041574 0 11.711152903233808 0 1 0 I I #
point $-1 64.715109714041574 42.483819407508598 11.711152903233808 #
point $-1 58.973128114161383 36.595714931053116 6.7460760435361085 #
point $-1 58.973128114161383 40.1285776169264 6.7460760435361085 #
straight-curve $-1 -64.715109714041574 0 11.711152903233808 0 -1 0 I I #
straight-curve $-1 0 42.483819407508598 11.711152903233808 -1 0 0 I I #
point $-1 -64.715109714041574 42.483819407508598 11.711152903233808 #
point $-1 -58.973128114161391 36.595714931053116 6.7460760435361014 #
point $-1 -58.973128114161391 40.1285776169264 6.7460760435361014 #
point $-1 -64.715109714041574 -42.483819407508598 11.711152903233808 #
straight-curve $-1 0 -42.483819407508598 11.711152903233808 1 0 0 I I #
End-of-ACIS-data 