500 0 5 0           
7 Unknown 11 ACIS 5.0 NT 24 Thu Mar 25 19:41:08 1999 
-1 9.9999999999999995e-007 1e-010 
body $-1 $5 $-1 $6 #
body $-1 $7 $-1 $8 #
body $-1 $9 $-1 $10 #
body $-1 $11 $-1 $12 #
body $-1 $13 $-1 $14 #
lump $-1 $-1 $15 $0 #
transform $-1 1 0 0 0 1 0 0 0 1 68.40174565874203 38.773583906536281 11.972040706075937 1 rotate no_reflect no_shear #
lump $-1 $-1 $16 $1 #
transform $-1 1 0 0 0 1 0 0 0 1 68.40174565874203 38.773583906536281 11.972040706075937 1 rotate no_reflect no_shear #
lump $-1 $-1 $17 $2 #
transform $-1 1 0 0 0 1 0 0 0 1 68.40174565874203 38.773583906536281 11.972040706075937 1 rotate no_reflect no_shear #
lump $-1 $-1 $18 $3 #
transform $-1 1 0 0 0 1 0 0 0 1 68.40174565874203 38.773583906536281 11.972040706075937 1 rotate no_reflect no_shear #
lump $-1 $-1 $19 $4 #
transform $-1 1 0 0 0 1 0 0 0 1 68.40174565874203 38.773583906536281 11.972040706075937 1 rotate no_reflect no_shear #
shell $-1 $-1 $-1 $20 $-1 $5 #
shell $-1 $-1 $-1 $21 $-1 $7 #
shell $-1 $-1 $-1 $22 $-1 $9 #
shell $-1 $-1 $-1 $23 $-1 $11 #
shell $-1 $-1 $-1 $24 $-1 $13 #
face $-1 $25 $26 $15 $-1 $27 forward single #
face $-1 $28 $29 $16 $-1 $30 forward single #
face $-1 $31 $32 $17 $-1 $33 reversed single #
face $-1 $34 $35 $18 $-1 $36 forward single #
face $-1 $37 $38 $19 $-1 $39 reversed single #
face $-1 $40 $41 $15 $-1 $42 reversed single #
loop $-1 $-1 $43 $20 #
plane-surface $-1 0 0 11.972040706075937 0 0 1 1 0 0 forward_v I I I I #
face $-1 $44 $45 $16 $-1 $46 forward single #
loop $-1 $-1 $47 $21 #
plane-surface $-1 0 -31.888456610222278 5.3918210122288812 0 0 1 1 0 0 forward_v I I I I #
face $-1 $48 $49 $17 $-1 $50 forward single #
loop $-1 $-1 $51 $22 #
plane-surface $-1 0 31.209758418310123 6.8162237374210184 0 0 1 1 0 0 forward_v I I I I #
face $-1 $52 $53 $18 $-1 $54 forward single #
loop $-1 $-1 $55 $23 #
plane-surface $-1 31.486054479462965 -7.6687211331083418 195.5928427923852 0 -1 0 -0.55919291073839883 0 -0.82903756765294845 forward_v I I I I #
face $-1 $56 $57 $19 $-1 $58 reversed single #
loop $-1 $59 $60 $24 #
cone-surface $-1 63.127299905857377 -11.519752945761006 7.9224028500190213 -0.55919291073839883 0 -0.82903756765294845 0.82903756765294845 0 -0.55919291073839883 1 I I 0 1 1 forward I I I I #
face $-1 $61 $62 $15 $-1 $63 reversed single #
loop $-1 $-1 $64 $25 #
plane-surface $-1 0 0 -11.972040706075937 0 0 1 1 0 0 forward_v I I I I #
coedge $-1 $65 $66 $67 $68 forward $26 $-1 #
face $-1 $69 $70 $16 $-1 $71 forward single #
loop $-1 $-1 $72 $28 #
plane-surface $-1 0 -25.003329313908274 8.6819308591524091 0 -1 0 0 0 -1 forward_v I I I I #
coedge $-1 $73 $74 $75 $76 reversed $29 $-1 #
face $-1 $77 $78 $17 $-1 $79 forward single #
loop $-1 $-1 $80 $31 #
plane-surface $-1 0 31.209758418310123 1.5582007935708413 0 0 1 1 0 0 forward_v I I I I #
coedge $-1 $81 $82 $83 $84 reversed $32 $-1 #
face $-1 $85 $86 $18 $-1 $87 forward single #
loop $-1 $-1 $88 $34 #
plane-surface $-1 -45.013488029536219 -11.519752945761006 82.177609104106963 0.55919291073839883 0 0.82903756765294845 0.82903756765294845 0 -0.55919291073839883 forward_v I I I I #
coedge $-1 $89 $90 $91 $92 reversed $35 $-1 #
face $-1 $93 $94 $19 $-1 $95 forward single #
loop $-1 $96 $97 $37 #
cone-surface $-1 62.238857786254087 -11.519752945761006 6.6052332656197024 -0.55919291073839883 0 -0.82903756765294845 0.41451878382647422 0 -0.27959645536919941 1 I I -0.70710678118654746 0.70710678118654746 0.5 forward I I I I #
loop $-1 $-1 $98 $24 #
coedge $-1 $60 $60 $99 $100 reversed $38 $-1 #
face $-1 $101 $102 $15 $-1 $103 reversed single #
loop $-1 $-1 $104 $40 #
plane-surface $-1 0 -38.773583906536281 0 0 1 0 0 0 1 forward_v I I I I #
coedge $-1 $105 $106 $107 $108 forward $41 $-1 #
coedge $-1 $109 $43 $110 $111 forward $26 $-1 #
coedge $-1 $43 $109 $112 $113 forward $26 $-1 #
coedge $-1 $114 $115 $43 $68 reversed $116 $-1 #
edge $-1 $117 -38.773583906536281 $118 38.773583906536281 $67 $119 forward 7 unknown #
face $-1 $120 $121 $16 $-1 $122 reversed single #
loop $-1 $-1 $123 $44 #
plane-surface $-1 0 0 11.972040706075937 0 0 1 1 0 0 forward_v I I I I #
coedge $-1 $124 $125 $126 $127 reversed $45 $-1 #
coedge $-1 $128 $47 $125 $129 reversed $29 $-1 #
coedge $-1 $47 $128 $130 $131 reversed $29 $-1 #
coedge $-1 $132 $126 $47 $76 forward $121 $-1 #
edge $-1 $133 9.0591010087971355 $134 22.829355601425142 $75 $135 forward 7 unknown #
face $-1 $136 $137 $17 $-1 $138 reversed single #
loop $-1 $-1 $139 $48 #
plane-surface $-1 0 23.645932930083969 4.1872122654959298 0 1 0 0 0 1 forward_v I I I I #
coedge $-1 $140 $141 $142 $143 reversed $49 $-1 #
coedge $-1 $144 $51 $145 $146 reversed $32 $-1 #
coedge $-1 $51 $144 $147 $148 reversed $32 $-1 #
coedge $-1 $149 $150 $51 $84 forward $151 $-1 #
edge $-1 $152 8.0410537209289075 $153 23.168704697381212 $83 $154 forward 7 unknown #
face $-1 $155 $156 $18 $-1 $157 forward single #
loop $-1 $-1 $158 $52 #
plane-surface $-1 31.486054479462965 -15.37078475841367 195.5928427923852 0 1 0 0.55919291073839883 0 0.82903756765294845 forward_v I I I I #
coedge $-1 $159 $160 $161 $162 reversed $53 $-1 #
coedge $-1 $90 $55 $160 $163 forward $35 $-1 #
coedge $-1 $55 $89 $164 $165 reversed $35 $-1 #
coedge $-1 $166 $161 $55 $92 forward $156 $-1 #
edge $-1 $167 43.327518241709434 $168 52.658718419010548 $91 $169 forward 7 unknown #
face $-1 $170 $171 $19 $-1 $172 forward single #
loop $-1 $-1 $173 $56 #
plane-surface $-1 31.486054479462965 -7.6687211331083418 195.5928427923852 0 -1 0 -0.55919291073839883 0 -0.82903756765294845 forward_v I I I I #
loop $-1 $-1 $174 $37 #
coedge $-1 $97 $97 $98 $175 forward $57 $-1 #
coedge $-1 $98 $98 $97 $175 reversed $59 $-1 #
coedge $-1 $99 $99 $60 $100 forward $171 $-1 #
edge $-1 $176 0 $176 6.2831853071796004 $99 $177 forward 7 unknown #
face $-1 $178 $179 $15 $-1 $180 reversed single #
loop $-1 $-1 $181 $61 #
plane-surface $-1 -68.40174565874203 0 0 1 0 0 0 0 -1 forward_v I I I I #
coedge $-1 $182 $112 $183 $184 forward $62 $-1 #
coedge $-1 $185 $64 $182 $186 forward $41 $-1 #
coedge $-1 $64 $185 $187 $188 forward $41 $-1 #
coedge $-1 $115 $114 $64 $108 reversed $116 $-1 #
edge $-1 $189 -38.773583906536281 $190 38.773583906536281 $107 $191 forward 7 unknown #
coedge $-1 $66 $65 $192 $193 forward $26 $-1 #
coedge $-1 $194 $195 $65 $111 reversed $179 $-1 #
edge $-1 $118 -68.40174565874203 $196 68.40174565874203 $110 $197 forward 7 unknown #
coedge $-1 $104 $198 $66 $113 reversed $62 $-1 #
edge $-1 $199 -68.40174565874203 $117 68.40174565874203 $112 $200 forward 7 unknown #
coedge $-1 $107 $67 $198 $201 forward $116 $-1 #
coedge $-1 $67 $107 $194 $202 reversed $116 $-1 #
loop $-1 $-1 $114 $178 #
vertex $-1 $68 $203 #
vertex $-1 $68 $204 #
straight-curve $-1 68.40174565874203 0 11.972040706075937 0 1 0 I I #
face $-1 $205 $206 $16 $-1 $207 reversed single #
loop $-1 $-1 $126 $69 #
plane-surface $-1 68.40174565874203 0 0 -1 0 0 0 0 1 forward_v I I I I #
coedge $-1 $208 $209 $124 $210 forward $70 $-1 #
coedge $-1 $211 $72 $123 $210 reversed $45 $-1 #
coedge $-1 $72 $211 $73 $129 forward $45 $-1 #
coedge $-1 $75 $212 $72 $127 forward $121 $-1 #
edge $-1 $213 -7.6310752764997325 $133 -1.0508555826526766 $126 $214 forward 7 unknown #
coedge $-1 $74 $73 $215 $216 reversed $29 $-1 #
edge $-1 $217 -68.40174565874203 $133 68.40174565874203 $125 $218 forward 7 unknown #
coedge $-1 $219 $220 $74 $131 forward $221 $-1 #
edge $-1 $134 -68.40174565874203 $222 68.40174565874203 $130 $223 forward 7 unknown #
coedge $-1 $224 $75 $220 $225 forward $121 $-1 #
vertex $-1 $76 $226 #
vertex $-1 $225 $227 #
straight-curve $-1 68.40174565874203 -15.944228305111139 5.3918210122288812 0 -1 0 I I #
face $-1 $228 $229 $17 $-1 $138 reversed single #
loop $-1 $-1 $230 $77 #
plane-surface $-1 0 38.773583906536281 0 0 -1 0 0 0 -1 forward_v I I I I #
coedge $-1 $145 $231 $232 $233 reversed $78 $-1 #
coedge $-1 $234 $80 $230 $235 reversed $49 $-1 #
coedge $-1 $80 $234 $231 $236 reversed $49 $-1 #
coedge $-1 $150 $237 $80 $143 forward $151 $-1 #
edge $-1 $238 -23.168704697381212 $239 -8.0410537209289075 $142 $240 forward 7 unknown #
coedge $-1 $82 $81 $241 $242 reversed $32 $-1 #
coedge $-1 $243 $139 $81 $146 forward $78 $-1 #
edge $-1 $244 -68.40174565874203 $152 68.40174565874203 $145 $245 forward 7 unknown #
coedge $-1 $246 $247 $82 $148 forward $229 $-1 #
edge $-1 $153 -68.40174565874203 $248 68.40174565874203 $147 $249 forward 7 unknown #
coedge $-1 $250 $83 $247 $251 reversed $151 $-1 #
coedge $-1 $83 $142 $243 $252 forward $151 $-1 #
loop $-1 $-1 $83 $253 #
vertex $-1 $84 $254 #
vertex $-1 $148 $255 #
straight-curve $-1 68.40174565874203 15.604879209155062 6.8162237374210184 0 1 0 I I #
face $-1 $256 $257 $18 $-1 $258 reversed single #
loop $-1 $-1 $259 $85 #
plane-surface $-1 0 0 11.972040706075937 0 0 1 1 0 0 forward_v I I I I #
coedge $-1 $260 $261 $259 $262 reversed $86 $-1 #
coedge $-1 $263 $88 $261 $264 reversed $53 $-1 #
coedge $-1 $88 $263 $89 $163 reversed $53 $-1 #
coedge $-1 $91 $259 $88 $162 forward $156 $-1 #
edge $-1 $265 -9.6109082855331671 $167 -1.9088446602278388 $161 $266 forward 7 unknown #
edge $-1 $167 125.54803011598717 $267 136.80349131748409 $89 $268 forward 7 unknown #
coedge $-1 $269 $270 $90 $165 forward $271 $-1 #
edge $-1 $168 85.824380690116669 $267 92.118354801084834 $164 $272 forward 7 unknown #
coedge $-1 $273 $91 $270 $274 forward $156 $-1 #
vertex $-1 $162 $275 #
vertex $-1 $274 $276 #
straight-curve $-1 15.743027239731482 -7.6687211331083418 11.972040706075944 1 0 0 I I #
face $-1 $277 $278 $19 $-1 $279 forward single #
loop $-1 $280 $99 $93 #
plane-surface $-1 -45.013488029536219 -11.519752945761006 82.177609104106963 0.55919291073839883 0 0.82903756765294845 0.82903756765294845 0 -0.55919291073839883 forward_v I I I I #
coedge $-1 $281 $282 $283 $284 reversed $94 $-1 #
coedge $-1 $174 $174 $-1 $285 forward $96 $-1 #
edge $-1 $286 0 $286 6.2831853071796004 $97 $287 forward 7 unknown #
vertex $-1 $100 $288 #
ellipse-curve $-1 63.736145570091459 -11.519752945761006 8.8250536505918529 -0.55919291073839883 0 -0.82903756765294845 0.82903756765294845 0 -0.55919291073839883 1 I I #
face $-1 $-1 $116 $15 $-1 $289 reversed single #
loop $-1 $-1 $194 $101 #
plane-surface $-1 0 38.773583906536281 0 0 -1 0 0 0 -1 forward_v I I I I #
coedge $-1 $290 $192 $195 $291 forward $102 $-1 #
coedge $-1 $198 $104 $105 $186 reversed $62 $-1 #
coedge $-1 $192 $290 $104 $184 reversed $102 $-1 #
edge $-1 $199 -11.972040706075937 $292 11.972040706075937 $183 $293 forward 7 unknown #
coedge $-1 $106 $105 $290 $294 forward $41 $-1 #
edge $-1 $190 -68.40174565874203 $292 68.40174565874203 $182 $295 forward 7 unknown #
coedge $-1 $195 $194 $106 $188 reversed $179 $-1 #
edge $-1 $296 -68.40174565874203 $189 68.40174565874203 $187 $297 forward 7 unknown #
vertex $-1 $108 $298 #
vertex $-1 $201 $299 #
straight-curve $-1 68.40174565874203 0 -11.972040706075937 0 -1 0 I I #
coedge $-1 $181 $183 $109 $193 reversed $102 $-1 #
edge $-1 $196 -38.773583906536281 $199 38.773583906536281 $192 $300 forward 7 unknown #
coedge $-1 $187 $110 $115 $202 forward $179 $-1 #
coedge $-1 $110 $187 $181 $291 reversed $179 $-1 #
vertex $-1 $111 $301 #
straight-curve $-1 0 38.773583906536281 11.972040706075937 -1 0 0 I I #
coedge $-1 $112 $182 $114 $201 reversed $62 $-1 #
vertex $-1 $193 $302 #
straight-curve $-1 0 -38.773583906536281 11.972040706075937 1 0 0 I I #
edge $-1 $117 -11.972040706075937 $190 11.972040706075937 $114 $303 forward 7 unknown #
edge $-1 $118 -11.972040706075937 $189 11.972040706075937 $115 $304 forward 7 unknown #
point $-1 68.40174565874203 -38.773583906536281 11.972040706075937 #
point $-1 68.40174565874203 38.773583906536281 11.972040706075937 #
face $-1 $305 $221 $16 $-1 $306 reversed single #
loop $-1 $-1 $307 $120 #
plane-surface $-1 0 0 -11.972040706075937 0 0 1 1 0 0 forward_v I I I I #
coedge $-1 $308 $123 $212 $309 forward $70 $-1 #
coedge $-1 $123 $308 $310 $311 forward $70 $-1 #
edge $-1 $312 -68.40174565874203 $213 68.40174565874203 $123 $313 forward 7 unknown #
coedge $-1 $125 $124 $314 $315 reversed $45 $-1 #
coedge $-1 $126 $316 $208 $309 reversed $121 $-1 #
vertex $-1 $309 $317 #
straight-curve $-1 68.40174565874203 -25.003329313908274 4.3409654295762046 0 0 -1 I I #
coedge $-1 $314 $318 $128 $216 forward $319 $-1 #
edge $-1 $222 -22.829355601425142 $217 -9.0591010087971355 $215 $320 forward 7 unknown #
vertex $-1 $216 $321 #
straight-curve $-1 0 -25.003329313908274 5.3918210122288812 1 0 0 I I #
coedge $-1 $322 $130 $318 $323 forward $221 $-1 #
coedge $-1 $130 $322 $132 $225 reversed $221 $-1 #
loop $-1 $-1 $130 $205 #
vertex $-1 $323 $324 #
straight-curve $-1 0 -38.773583906536281 5.3918210122288812 -1 0 0 I I #
coedge $-1 $316 $132 $307 $325 reversed $121 $-1 #
edge $-1 $134 -5.3918210122288812 $326 11.972040706075937 $132 $327 forward 7 unknown #
point $-1 68.40174565874203 -25.003329313908274 5.3918210122288812 #
point $-1 68.40174565874203 -38.773583906536281 5.3918210122288812 #
face $-1 $328 $329 $17 $-1 $330 reversed single #
loop $-1 $-1 $147 $136 #
coedge $-1 $331 $332 $140 $235 forward $137 $-1 #
coedge $-1 $139 $243 $141 $236 forward $78 $-1 #
coedge $-1 $333 $241 $139 $233 forward $329 $-1 #
edge $-1 $244 -4.7226176046730535 $334 0.53540533917712363 $232 $335 forward 7 unknown #
coedge $-1 $141 $140 $333 $336 reversed $49 $-1 #
edge $-1 $337 -68.40174565874203 $238 68.40174565874203 $230 $338 forward 7 unknown #
edge $-1 $239 -68.40174565874203 $334 68.40174565874203 $231 $339 forward 7 unknown #
coedge $-1 $142 $340 $331 $341 reversed $151 $-1 #
vertex $-1 $341 $342 #
vertex $-1 $143 $343 #
straight-curve $-1 68.40174565874203 15.604879209155062 1.5582007935708413 0 -1 0 I I #
coedge $-1 $232 $344 $144 $242 forward $329 $-1 #
edge $-1 $248 -23.168704697381212 $244 -8.0410537209289075 $241 $345 forward 7 unknown #
coedge $-1 $231 $145 $150 $252 reversed $78 $-1 #
vertex $-1 $242 $346 #
straight-curve $-1 0 23.645932930083969 6.8162237374210184 1 0 0 I I #
coedge $-1 $347 $147 $344 $348 reversed $229 $-1 #
coedge $-1 $147 $347 $149 $251 forward $229 $-1 #
vertex $-1 $242 $349 #
straight-curve $-1 0 38.773583906536281 6.8162237374210184 -1 0 0 I I #
coedge $-1 $350 $149 $351 $352 reversed $151 $-1 #
edge $-1 $353 -11.972040706075937 $153 -6.8162237374210184 $149 $354 forward 7 unknown #
edge $-1 $239 -0.53540533917712363 $152 4.7226176046730535 $150 $355 forward 7 unknown #
face $-1 $356 $151 $17 $-1 $357 reversed single #
point $-1 68.40174565874203 23.645932930083969 6.8162237374210184 #
point $-1 68.40174565874203 38.773583906536274 6.8162237374210184 #
face $-1 $358 $359 $18 $-1 $360 forward single #
loop $-1 $-1 $361 $155 #
plane-surface $-1 0 31.209758418310123 6.8162237374210184 0 0 1 1 0 0 forward_v I I I I #
coedge $-1 $161 $362 $158 $262 forward $156 $-1 #
coedge $-1 $261 $158 $363 $364 reversed $86 $-1 #
coedge $-1 $158 $260 $159 $264 forward $86 $-1 #
edge $-1 $365 -52.658718419010548 $265 -43.327518241709434 $259 $366 forward 7 unknown #
coedge $-1 $160 $159 $269 $367 reversed $53 $-1 #
edge $-1 $368 -136.80349131748409 $265 -125.54803011598717 $261 $369 forward 7 unknown #
vertex $-1 $162 $370 #
straight-curve $-1 59.070545481440888 -5.759876472880503 11.972040706075937 0 1 0 I I #
vertex $-1 $367 $371 #
straight-curve $-1 -45.013488029536219 -7.6687211331083418 82.177609104106963 0.82903756765294845 0 -0.55919291073839883 I I #
coedge $-1 $363 $164 $263 $367 forward $271 $-1 #
coedge $-1 $164 $372 $166 $274 reversed $271 $-1 #
loop $-1 $-1 $363 $373 #
straight-curve $-1 68.40174565874203 -7.6687211331083418 97.796421396192599 0 0 -1 I I #
coedge $-1 $374 $166 $375 $376 forward $156 $-1 #
edge $-1 $168 -7.6687211331083418 $377 38.773583906536281 $270 $378 forward 7 unknown #
point $-1 59.070545481440917 -7.6687211331083418 11.97204070607593 #
point $-1 68.40174565874203 -7.6687211331083418 11.972040706075937 #
face $-1 $379 $380 $19 $-1 $381 forward single #
loop $-1 $-1 $382 $170 #
plane-surface $-1 31.486054479462965 -15.37078475841367 195.5928427923852 0 1 0 0.55919291073839883 0 0.82903756765294845 forward_v I I I I #
loop $-1 $-1 $383 $93 #
coedge $-1 $282 $173 $384 $385 forward $94 $-1 #
coedge $-1 $173 $281 $386 $387 reversed $94 $-1 #
coedge $-1 $388 $389 $173 $284 forward $380 $-1 #
edge $-1 $390 43.327518241709434 $391 52.658718419010548 $283 $392 forward 7 unknown #
edge $-1 $393 1 $393 0 $174 $-1 forward 7 unknown #
vertex $-1 $175 $394 #
ellipse-curve $-1 62.518454241623289 -11.519752945761006 7.0197520494461765 0.55919291073839883 0 0.82903756765294845 0.82903756765294845 0 -0.55919291073839883 1 I I #
point $-1 64.565183137744413 -11.519752945761006 8.2658607398534674 #
plane-surface $-1 68.40174565874203 0 0 -1 0 0 0 0 1 forward_v I I I I #
coedge $-1 $183 $181 $185 $294 reversed $102 $-1 #
edge $-1 $196 -11.972040706075937 $296 11.972040706075937 $195 $395 forward 7 unknown #
vertex $-1 $294 $396 #
straight-curve $-1 -68.40174565874203 -38.773583906536281 0 0 0 -1 I I #
edge $-1 $292 -38.773583906536281 $296 38.773583906536281 $290 $397 forward 7 unknown #
straight-curve $-1 0 -38.773583906536281 -11.972040706075937 -1 0 0 I I #
vertex $-1 $188 $398 #
straight-curve $-1 0 38.773583906536281 -11.972040706075937 1 0 0 I I #
point $-1 68.40174565874203 38.773583906536281 -11.972040706075937 #
point $-1 68.40174565874203 -38.773583906536281 -11.972040706075937 #
straight-curve $-1 -68.40174565874203 0 11.972040706075937 0 -1 0 I I #
point $-1 -68.40174565874203 38.773583906536281 11.972040706075937 #
point $-1 -68.40174565874203 -38.773583906536281 11.972040706075937 #
straight-curve $-1 68.40174565874203 -38.773583906536281 0 0 0 -1 I I #
straight-curve $-1 68.40174565874203 38.773583906536281 0 0 0 -1 I I #
face $-1 $399 $319 $16 $-1 $400 reversed single #
plane-surface $-1 0 -38.773583906536281 0 0 1 0 0 0 1 forward_v I I I I #
coedge $-1 $401 $402 $224 $325 forward $206 $-1 #
coedge $-1 $209 $208 $403 $404 forward $70 $-1 #
edge $-1 $213 -25.003329313908274 $405 38.773583906536281 $212 $406 forward 7 unknown #
coedge $-1 $407 $314 $209 $311 reversed $319 $-1 #
edge $-1 $408 -38.773583906536281 $312 25.003329313908274 $310 $409 forward 7 unknown #
vertex $-1 $315 $410 #
straight-curve $-1 0 -25.003329313908274 11.972040706075937 1 0 0 I I #
coedge $-1 $310 $215 $211 $315 forward $319 $-1 #
edge $-1 $217 1.0508555826526766 $312 7.6310752764997325 $314 $411 forward 7 unknown #
coedge $-1 $212 $224 $412 $413 reversed $121 $-1 #
point $-1 68.40174565874203 -25.003329313908274 11.972040706075937 #
coedge $-1 $215 $414 $219 $323 reversed $319 $-1 #
loop $-1 $-1 $314 $305 #
straight-curve $-1 -68.40174565874203 -15.944228305111139 5.3918210122288812 0 1 0 I I #
point $-1 -68.40174565874203 -25.003329313908274 5.3918210122288812 #
coedge $-1 $220 $219 $401 $415 reversed $221 $-1 #
edge $-1 $222 -5.3918210122288812 $416 11.972040706075937 $318 $417 forward 7 unknown #
point $-1 -68.40174565874203 -38.773583906536281 5.3918210122288812 #
edge $-1 $418 -38.773583906536281 $326 38.773583906536281 $224 $419 forward 7 unknown #
vertex $-1 $225 $420 #
straight-curve $-1 68.40174565874203 -38.773583906536281 0 0 0 -1 I I #
face $-1 $421 $422 $17 $-1 $423 forward single #
loop $-1 $-1 $241 $228 #
plane-surface $-1 -68.40174565874203 0 0 1 0 0 0 0 -1 forward_v I I I I #
coedge $-1 $424 $230 $237 $341 forward $137 $-1 #
coedge $-1 $230 $424 $425 $426 reversed $137 $-1 #
coedge $-1 $425 $232 $234 $336 forward $329 $-1 #
vertex $-1 $336 $427 #
straight-curve $-1 -68.40174565874203 23.645932930083969 2.0936061327479649 0 0 -1 I I #
edge $-1 $334 8.0410537209289075 $337 23.168704697381212 $333 $428 forward 7 unknown #
vertex $-1 $426 $429 #
straight-curve $-1 0 38.773583906536281 1.5582007935708413 1 0 0 I I #
straight-curve $-1 0 23.645932930083969 1.5582007935708413 -1 0 0 I I #
coedge $-1 $237 $430 $431 $432 reversed $151 $-1 #
edge $-1 $238 -1.5582007935708413 $433 11.972040706075937 $237 $354 forward 7 unknown #
point $-1 68.40174565874203 38.773583906536274 1.5582007935708413 #
point $-1 68.40174565874203 23.645932930083969 1.5582007935708413 #
coedge $-1 $241 $434 $246 $348 forward $329 $-1 #
straight-curve $-1 -68.40174565874203 15.604879209155062 6.8162237374210184 0 -1 0 I I #
point $-1 -68.40174565874203 23.645932930083969 6.8162237374210184 #
coedge $-1 $247 $246 $435 $436 reversed $229 $-1 #
edge $-1 $437 -11.972040706075937 $248 -6.8162237374210184 $246 $438 forward 7 unknown #
point $-1 -68.40174565874203 38.773583906536274 6.8162237374210184 #
coedge $-1 $439 $250 $440 $441 forward $151 $-1 #
coedge $-1 $435 $442 $250 $352 forward $443 $-1 #
edge $-1 $444 -25.003329313908274 $353 38.773583906536281 $250 $445 forward 7 unknown #
vertex $-1 $352 $446 #
straight-curve $-1 68.40174565874203 38.773583906536281 0 0 0 -1 I I #
straight-curve $-1 68.40174565874203 23.645932930083969 2.0936061327479649 0 0 1 I I #
face $-1 $447 $448 $17 $-1 $449 reversed single #
plane-surface $-1 68.40174565874203 0 0 -1 0 0 0 0 1 forward_v I I I I #
face $-1 $450 $451 $18 $-1 $452 forward single #
loop $-1 $-1 $453 $256 #
plane-surface $-1 0 31.209758418310123 1.5582007935708413 0 0 1 1 0 0 forward_v I I I I #
coedge $-1 $454 $455 $456 $457 reversed $257 $-1 #
coedge $-1 $259 $458 $459 $460 forward $156 $-1 #
coedge $-1 $459 $269 $260 $364 forward $271 $-1 #
edge $-1 $368 -92.118354801084834 $365 -85.824380690116669 $363 $461 forward 7 unknown #
vertex $-1 $364 $462 #
straight-curve $-1 15.743027239731482 -15.37078475841367 11.972040706075944 -1 0 0 I I #
edge $-1 $267 1.9088446602278388 $368 9.6109082855331671 $269 $463 forward 7 unknown #
vertex $-1 $367 $464 #
straight-curve $-1 -45.013488029536219 -15.37078475841367 82.177609104106963 -0.82903756765294845 0 0.55919291073839883 I I #
point $-1 59.070545481440917 -15.37078475841367 11.97204070607593 #
point $-1 68.401745658742044 -7.6687211331083418 5.6780665951077651 #
coedge $-1 $270 $456 $465 $466 reversed $271 $-1 #
face $-1 $467 $271 $18 $-1 $468 reversed single #
coedge $-1 $458 $273 $469 $470 forward $156 $-1 #
coedge $-1 $465 $471 $273 $376 reversed $472 $-1 #
edge $-1 $377 -68.40174565874203 $473 68.40174565874203 $375 $474 forward 7 unknown #
vertex $-1 $274 $475 #
straight-curve $-1 68.40174565874203 0 11.972040706075937 0 1 0 I I #
face $-1 $476 $477 $19 $-1 $478 reversed single #
loop $-1 $-1 $479 $277 #
plane-surface $-1 0 0 11.972040706075937 0 0 1 1 0 0 forward_v I I I I #
coedge $-1 $480 $481 $479 $482 reversed $278 $-1 #
coedge $-1 $483 $384 $389 $484 reversed $280 $-1 #
coedge $-1 $383 $485 $281 $385 reversed $280 $-1 #
edge $-1 $390 125.54803011598717 $486 136.80349131748409 $281 $487 forward 7 unknown #
coedge $-1 $488 $489 $282 $387 forward $490 $-1 #
edge $-1 $391 85.824380690116669 $486 92.118354801084834 $386 $491 forward 7 unknown #
coedge $-1 $492 $283 $489 $493 forward $380 $-1 #
coedge $-1 $283 $479 $383 $484 forward $380 $-1 #
vertex $-1 $484 $494 #
vertex $-1 $493 $495 #
straight-curve $-1 15.743027239731482 -7.6687211331083418 11.972040706075944 1 0 0 I I #
vertex $-1 $285 $496 #
point $-1 63.347491809276235 -11.519752945761006 6.4605591387077776 #
straight-curve $-1 -68.40174565874203 38.773583906536281 0 0 0 -1 I I #
point $-1 -68.40174565874203 -38.773583906536281 -11.972040706075937 #
straight-curve $-1 -68.40174565874203 0 -11.972040706075937 0 1 0 I I #
point $-1 -68.40174565874203 38.773583906536281 -11.972040706075937 #
face $-1 $-1 $497 $16 $-1 $498 reversed single #
plane-surface $-1 -68.40174565874203 0 0 1 0 0 0 0 -1 forward_v I I I I #
coedge $-1 $499 $307 $322 $415 forward $206 $-1 #
coedge $-1 $307 $499 $500 $501 forward $206 $-1 #
coedge $-1 $412 $502 $308 $404 reversed $497 $-1 #
edge $-1 $405 -68.40174565874203 $408 68.40174565874203 $403 $503 forward 7 unknown #
vertex $-1 $309 $504 #
straight-curve $-1 68.40174565874203 0 11.972040706075937 0 1 0 I I #
coedge $-1 $414 $310 $502 $505 forward $319 $-1 #
vertex $-1 $404 $506 #
straight-curve $-1 -68.40174565874203 0 11.972040706075937 0 -1 0 I I #
point $-1 -68.40174565874203 -25.003329313908274 11.972040706075937 #
straight-curve $-1 -68.40174565874203 -25.003329313908274 4.3409654295762046 0 0 1 I I #
coedge $-1 $500 $403 $316 $413 forward $497 $-1 #
edge $-1 $405 -11.972040706075937 $418 11.972040706075937 $316 $507 forward 7 unknown #
coedge $-1 $318 $407 $499 $508 reversed $319 $-1 #
edge $-1 $326 -68.40174565874203 $416 68.40174565874203 $322 $509 forward 7 unknown #
vertex $-1 $508 $510 #
straight-curve $-1 -68.40174565874203 -38.773583906536281 0 0 0 -1 I I #
vertex $-1 $325 $511 #
straight-curve $-1 68.40174565874203 0 -11.972040706075937 0 -1 0 I I #
point $-1 68.40174565874203 -38.773583906536281 -11.972040706075937 #
face $-1 $512 $513 $17 $-1 $514 forward single #
loop $-1 $-1 $515 $328 #
plane-surface $-1 0 -31.888456610222278 5.3918210122288812 0 0 1 1 0 0 forward_v I I I I #
coedge $-1 $332 $331 $516 $517 reversed $137 $-1 #
coedge $-1 $518 $333 $332 $426 forward $329 $-1 #
edge $-1 $337 -1.5582007935708413 $519 11.972040706075937 $332 $438 forward 7 unknown #
point $-1 -68.40174565874203 23.645932930083969 1.5582007935708413 #
straight-curve $-1 -68.40174565874203 15.604879209155062 1.5582007935708413 0 1 0 I I #
point $-1 -68.40174565874203 38.773583906536274 1.5582007935708413 #
coedge $-1 $340 $439 $520 $521 forward $151 $-1 #
coedge $-1 $522 $516 $340 $432 forward $448 $-1 #
edge $-1 $433 -38.773583906536281 $523 38.773583906536281 $340 $524 forward 7 unknown #
vertex $-1 $432 $525 #
coedge $-1 $344 $526 $527 $528 reversed $329 $-1 #
coedge $-1 $527 $351 $347 $436 forward $443 $-1 #
edge $-1 $353 -68.40174565874203 $437 68.40174565874203 $347 $529 forward 7 unknown #
vertex $-1 $436 $530 #
straight-curve $-1 -68.40174565874203 38.773583906536281 0 0 0 -1 I I #
coedge $-1 $430 $350 $515 $531 forward $151 $-1 #
coedge $-1 $532 $533 $350 $441 reversed $513 $-1 #
edge $-1 $444 -7.6310752764997325 $534 -1.0508555826526766 $350 $535 forward 7 unknown #
coedge $-1 $351 $527 $532 $536 forward $443 $-1 #
loop $-1 $-1 $442 $512 #
vertex $-1 $352 $537 #
straight-curve $-1 68.40174565874203 0 11.972040706075937 0 1 0 I I #
point $-1 68.40174565874203 38.773583906536281 11.972040706075937 #
face $-1 $-1 $538 $17 $-1 $539 reversed single #
loop $-1 $-1 $431 $356 #
plane-surface $-1 0 0 -11.972040706075937 0 0 1 1 0 0 forward_v I I I I #
face $-1 $540 $541 $18 $-1 $542 reversed single #
loop $-1 $-1 $543 $358 #
plane-surface $-1 0 23.645932930083969 4.1872122654959298 0 1 0 0 0 1 forward_v I I I I #
coedge $-1 $544 $545 $546 $547 reversed $359 $-1 #
coedge $-1 $548 $361 $549 $550 reversed $257 $-1 #
coedge $-1 $361 $548 $551 $552 reversed $257 $-1 #
coedge $-1 $372 $553 $361 $457 forward $271 $-1 #
edge $-1 $554 8.0410537209289075 $555 23.168704697381212 $456 $556 forward 7 unknown #
coedge $-1 $362 $374 $557 $558 forward $156 $-1 #
coedge $-1 $559 $363 $362 $460 reversed $271 $-1 #
edge $-1 $560 -25.003329313908274 $365 -15.37078475841367 $459 $378 forward 7 unknown #
straight-curve $-1 68.40174565874203 -15.37078475841367 97.796421396192599 0 0 1 I I #
point $-1 68.40174565874203 -15.37078475841367 11.972040706075937 #
straight-curve $-1 68.401745658742044 -5.759876472880503 5.6780665951077651 0 -1 0 I I #
point $-1 68.401745658742044 -15.37078475841367 5.6780665951077651 #
coedge $-1 $551 $375 $372 $466 forward $472 $-1 #
edge $-1 $377 -11.972040706075937 $555 -6.8162237374210184 $372 $561 forward 7 unknown #
face $-1 $562 $563 $18 $-1 $564 reversed single #
plane-surface $-1 68.40174565874203 0 0 -1 0 0 0 0 1 forward_v I I I I #
coedge $-1 $565 $566 $374 $470 reversed $567 $-1 #
edge $-1 $473 -38.773583906536281 $568 25.003329313908274 $469 $569 forward 7 unknown #
coedge $-1 $375 $551 $565 $570 reversed $472 $-1 #
loop $-1 $-1 $551 $540 #
vertex $-1 $376 $571 #
straight-curve $-1 0 38.773583906536281 11.972040706075937 -1 0 0 I I #
point $-1 68.40174565874203 38.773583906536281 11.972040706075937 #
face $-1 $572 $573 $19 $-1 $574 forward single #
loop $-1 $-1 $575 $379 #
plane-surface $-1 0 31.209758418310123 6.8162237374210184 0 0 1 1 0 0 forward_v I I I I #
coedge $-1 $389 $576 $382 $482 forward $380 $-1 #
coedge $-1 $481 $382 $577 $578 reversed $278 $-1 #
coedge $-1 $382 $480 $483 $579 forward $278 $-1 #
edge $-1 $580 -52.658718419010548 $581 -43.327518241709434 $479 $582 forward 7 unknown #
coedge $-1 $485 $383 $481 $579 reversed $280 $-1 #
edge $-1 $581 -9.6109082855331671 $390 -1.9088446602278388 $389 $583 forward 7 unknown #
coedge $-1 $384 $483 $488 $584 reversed $280 $-1 #
vertex $-1 $584 $585 #
straight-curve $-1 -45.013488029536219 -7.6687211331083418 82.177609104106963 0.82903756765294845 0 -0.55919291073839883 I I #
coedge $-1 $577 $386 $485 $584 forward $490 $-1 #
coedge $-1 $386 $586 $388 $493 reversed $490 $-1 #
loop $-1 $-1 $577 $587 #
straight-curve $-1 68.40174565874203 -7.6687211331083418 97.796421396192599 0 0 -1 I I #
coedge $-1 $588 $388 $589 $590 forward $380 $-1 #
edge $-1 $391 -7.6687211331083418 $591 38.773583906536281 $489 $592 forward 7 unknown #
point $-1 59.070545481440917 -7.6687211331083418 11.97204070607593 #
point $-1 68.40174565874203 -7.6687211331083418 11.972040706075937 #
point $-1 61.959261330884885 -11.519752945761006 6.1907144817932283 #
loop $-1 $-1 $412 $399 #
plane-surface $-1 0 38.773583906536281 0 0 -1 0 0 0 -1 forward_v I I I I #
coedge $-1 $402 $401 $414 $508 forward $206 $-1 #
coedge $-1 $502 $412 $402 $501 reversed $497 $-1 #
edge $-1 $593 -68.40174565874203 $418 68.40174565874203 $500 $594 forward 7 unknown #
coedge $-1 $403 $500 $407 $505 reversed $497 $-1 #
straight-curve $-1 0 38.773583906536281 11.972040706075937 -1 0 0 I I #
point $-1 68.40174565874203 38.773583906536281 11.972040706075937 #
edge $-1 $408 -11.972040706075937 $593 11.972040706075937 $502 $595 forward 7 unknown #
point $-1 -68.40174565874203 38.773583906536281 11.972040706075937 #
straight-curve $-1 68.40174565874203 38.773583906536281 0 0 0 -1 I I #
edge $-1 $416 -38.773583906536281 $593 38.773583906536281 $414 $596 forward 7 unknown #
straight-curve $-1 0 -38.773583906536281 -11.972040706075937 -1 0 0 I I #
point $-1 -68.40174565874203 -38.773583906536281 -11.972040706075937 #
point $-1 68.40174565874203 38.773583906536281 -11.972040706075937 #
face $-1 $253 $443 $17 $-1 $597 forward single #
loop $-1 $-1 $440 $421 #
plane-surface $-1 0 -25.003329313908274 8.6819308591524091 0 -1 0 0 0 -1 forward_v I I I I #
coedge $-1 $598 $599 $439 $531 reversed $422 $-1 #
coedge $-1 $431 $600 $424 $517 forward $448 $-1 #
edge $-1 $519 -68.40174565874203 $433 68.40174565874203 $424 $601 forward 7 unknown #
coedge $-1 $602 $425 $600 $603 reversed $329 $-1 #
vertex $-1 $517 $604 #
coedge $-1 $605 $606 $430 $521 reversed $538 $-1 #
edge $-1 $607 -5.3918210122288812 $523 11.972040706075937 $430 $608 forward 7 unknown #
coedge $-1 $600 $431 $606 $609 forward $448 $-1 #
vertex $-1 $521 $610 #
straight-curve $-1 68.40174565874203 0 -11.972040706075937 0 -1 0 I I #
point $-1 68.40174565874203 38.773583906536281 -11.972040706075937 #
coedge $-1 $434 $611 $612 $613 forward $329 $-1 #
coedge $-1 $442 $435 $434 $528 forward $443 $-1 #
edge $-1 $437 -38.773583906536281 $614 25.003329313908274 $434 $615 forward 7 unknown #
straight-curve $-1 0 38.773583906536281 11.972040706075937 -1 0 0 I I #
point $-1 -68.40174565874203 38.773583906536281 11.972040706075937 #
edge $-1 $534 9.0591010087971355 $607 22.829355601425142 $439 $616 forward 7 unknown #
coedge $-1 $612 $440 $442 $536 reversed $513 $-1 #
coedge $-1 $440 $612 $598 $617 forward $513 $-1 #
vertex $-1 $531 $618 #
straight-curve $-1 68.40174565874203 -25.003329313908274 4.3409654295762046 0 0 -1 I I #
edge $-1 $614 -68.40174565874203 $444 68.40174565874203 $442 $619 forward 7 unknown #
point $-1 68.40174565874203 -25.003329313908274 11.972040706075937 #
loop $-1 $-1 $605 $447 #
plane-surface $-1 0 -38.773583906536281 0 0 1 0 0 0 1 forward_v I I I I #
face $-1 $620 $472 $18 $-1 $542 reversed single #
loop $-1 $-1 $621 $450 #
plane-surface $-1 0 38.773583906536281 0 0 -1 0 0 0 -1 forward_v I I I I #
coedge $-1 $549 $622 $623 $624 reversed $451 $-1 #
coedge $-1 $625 $453 $621 $626 reversed $359 $-1 #
coedge $-1 $453 $625 $622 $627 reversed $359 $-1 #
coedge $-1 $553 $628 $453 $547 forward $271 $-1 #
edge $-1 $629 -23.168704697381212 $630 -8.0410537209289075 $546 $631 forward 7 unknown #
coedge $-1 $455 $454 $632 $633 reversed $257 $-1 #
coedge $-1 $634 $543 $454 $550 forward $451 $-1 #
edge $-1 $635 -68.40174565874203 $554 68.40174565874203 $549 $636 forward 7 unknown #
coedge $-1 $471 $465 $455 $552 forward $472 $-1 #
edge $-1 $555 -68.40174565874203 $637 68.40174565874203 $551 $638 forward 7 unknown #
coedge $-1 $456 $546 $634 $639 forward $271 $-1 #
vertex $-1 $457 $640 #
vertex $-1 $552 $641 #
straight-curve $-1 68.40174565874203 15.604879209155062 6.8162237374210184 0 1 0 I I #
coedge $-1 $642 $643 $458 $558 reversed $644 $-1 #
edge $-1 $568 -68.40174565874203 $560 68.40174565874203 $458 $645 forward 7 unknown #
coedge $-1 $646 $459 $643 $647 forward $271 $-1 #
vertex $-1 $460 $648 #
straight-curve $-1 68.40174565874203 38.773583906536281 0 0 0 -1 I I #
face $-1 $-1 $649 $18 $-1 $650 reversed single #
loop $-1 $-1 $651 $467 #
plane-surface $-1 0 0 -11.972040706075937 0 0 1 1 0 0 forward_v I I I I #
coedge $-1 $632 $469 $471 $570 forward $567 $-1 #
coedge $-1 $469 $652 $642 $653 forward $567 $-1 #
loop $-1 $-1 $632 $620 #
vertex $-1 $653 $654 #
straight-curve $-1 -68.40174565874203 0 11.972040706075937 0 -1 0 I I #
edge $-1 $473 -11.972040706075937 $637 -6.8162237374210184 $471 $655 forward 7 unknown #
point $-1 -68.40174565874203 38.773583906536281 11.972040706075937 #
face $-1 $656 $657 $19 $-1 $658 forward single #
loop $-1 $-1 $659 $476 #
plane-surface $-1 0 31.209758418310123 1.5582007935708413 0 0 1 1 0 0 forward_v I I I I #
coedge $-1 $660 $661 $662 $663 reversed $477 $-1 #
coedge $-1 $479 $664 $665 $666 forward $380 $-1 #
coedge $-1 $665 $488 $480 $578 forward $490 $-1 #
edge $-1 $667 -92.118354801084834 $580 -85.824380690116669 $577 $668 forward 7 unknown #
edge $-1 $667 -136.80349131748409 $581 -125.54803011598717 $481 $669 forward 7 unknown #
vertex $-1 $578 $670 #
vertex $-1 $484 $671 #
straight-curve $-1 15.743027239731482 -15.37078475841367 11.972040706075944 -1 0 0 I I #
straight-curve $-1 59.070545481440888 -5.759876472880503 11.972040706075937 0 1 0 I I #
edge $-1 $486 1.9088446602278388 $667 9.6109082855331671 $488 $672 forward 7 unknown #
point $-1 68.401745658742044 -7.6687211331083418 5.6780665951077651 #
coedge $-1 $489 $662 $673 $674 reversed $490 $-1 #
face $-1 $675 $490 $19 $-1 $676 reversed single #
coedge $-1 $664 $492 $677 $678 forward $380 $-1 #
coedge $-1 $673 $679 $492 $590 reversed $680 $-1 #
edge $-1 $591 -68.40174565874203 $681 68.40174565874203 $589 $682 forward 7 unknown #
vertex $-1 $493 $683 #
straight-curve $-1 68.40174565874203 0 11.972040706075937 0 1 0 I I #
vertex $-1 $501 $684 #
straight-curve $-1 0 38.773583906536281 -11.972040706075937 1 0 0 I I #
straight-curve $-1 -68.40174565874203 38.773583906536281 0 0 0 -1 I I #
straight-curve $-1 -68.40174565874203 0 -11.972040706075937 0 1 0 I I #
plane-surface $-1 0 0 11.972040706075937 0 0 1 1 0 0 forward_v I I I I #
coedge $-1 $685 $515 $533 $617 reversed $422 $-1 #
coedge $-1 $515 $685 $605 $686 reversed $422 $-1 #
coedge $-1 $516 $522 $518 $603 forward $448 $-1 #
straight-curve $-1 0 38.773583906536281 -11.972040706075937 1 0 0 I I #
coedge $-1 $611 $518 $687 $688 reversed $329 $-1 #
edge $-1 $689 -38.773583906536281 $519 38.773583906536281 $518 $690 forward 7 unknown #
point $-1 -68.40174565874203 38.773583906536281 -11.972040706075937 #
coedge $-1 $687 $520 $599 $686 forward $538 $-1 #
coedge $-1 $520 $687 $522 $609 reversed $538 $-1 #
vertex $-1 $521 $691 #
straight-curve $-1 68.40174565874203 -38.773583906536281 0 0 0 -1 I I #
edge $-1 $523 -68.40174565874203 $689 68.40174565874203 $606 $692 forward 7 unknown #
point $-1 68.40174565874203 -38.773583906536281 -11.972040706075937 #
coedge $-1 $526 $602 $685 $693 forward $329 $-1 #
coedge $-1 $533 $532 $526 $613 reversed $513 $-1 #
edge $-1 $694 1.0508555826526766 $614 7.6310752764997325 $526 $695 forward 7 unknown #
vertex $-1 $613 $696 #
straight-curve $-1 -68.40174565874203 0 11.972040706075937 0 -1 0 I I #
straight-curve $-1 68.40174565874203 -15.944228305111139 5.3918210122288812 0 -1 0 I I #
edge $-1 $694 -68.40174565874203 $534 68.40174565874203 $533 $697 forward 7 unknown #
point $-1 68.40174565874203 -25.003329313908274 5.3918210122288812 #
straight-curve $-1 0 -25.003329313908274 11.972040706075937 1 0 0 I I #
face $-1 $698 $567 $18 $-1 $699 reversed single #
coedge $-1 $700 $701 $544 $626 forward $541 $-1 #
coedge $-1 $543 $634 $545 $627 forward $451 $-1 #
coedge $-1 $702 $632 $543 $624 forward $567 $-1 #
edge $-1 $635 -4.7226176046730535 $703 0.53540533917712363 $623 $704 forward 7 unknown #
coedge $-1 $545 $544 $702 $705 reversed $359 $-1 #
edge $-1 $706 -68.40174565874203 $629 68.40174565874203 $621 $707 forward 7 unknown #
edge $-1 $630 -68.40174565874203 $703 68.40174565874203 $622 $708 forward 7 unknown #
coedge $-1 $546 $709 $700 $710 reversed $271 $-1 #
vertex $-1 $710 $711 #
vertex $-1 $547 $712 #
straight-curve $-1 68.40174565874203 15.604879209155062 1.5582007935708413 0 -1 0 I I #
coedge $-1 $623 $565 $548 $633 forward $567 $-1 #
edge $-1 $637 -23.168704697381212 $635 -8.0410537209289075 $632 $713 forward 7 unknown #
coedge $-1 $622 $549 $553 $639 reversed $451 $-1 #
vertex $-1 $633 $714 #
straight-curve $-1 0 23.645932930083969 6.8162237374210184 1 0 0 I I #
vertex $-1 $633 $715 #
straight-curve $-1 0 38.773583906536281 6.8162237374210184 -1 0 0 I I #
edge $-1 $630 -0.53540533917712363 $554 4.7226176046730535 $553 $716 forward 7 unknown #
point $-1 68.40174565874203 23.645932930083969 6.8162237374210184 #
point $-1 68.40174565874203 38.773583906536274 6.8162237374210184 #
coedge $-1 $717 $557 $566 $653 reversed $644 $-1 #
coedge $-1 $557 $717 $559 $647 reversed $644 $-1 #
loop $-1 $-1 $643 $718 #
straight-curve $-1 0 -25.003329313908274 11.972040706075937 1 0 0 I I #
coedge $-1 $719 $559 $720 $721 forward $271 $-1 #
edge $-1 $560 -7.6310752764997325 $722 -1.0508555826526766 $559 $723 forward 7 unknown #
point $-1 68.40174565874203 -25.003329313908274 11.972040706075937 #
loop $-1 $-1 $724 $562 #
plane-surface $-1 0 -38.773583906536281 0 0 1 0 0 0 1 forward_v I I I I #
coedge $-1 $725 $726 $709 $727 forward $563 $-1 #
coedge $-1 $566 $728 $729 $730 forward $567 $-1 #
edge $-1 $731 1.0508555826526766 $568 7.6310752764997325 $566 $732 forward 7 unknown #
point $-1 -68.40174565874203 -25.003329313908274 11.972040706075937 #
straight-curve $-1 -68.40174565874203 38.773583906536281 0 0 0 -1 I I #
face $-1 $733 $734 $19 $-1 $735 reversed single #
loop $-1 $-1 $736 $572 #
plane-surface $-1 0 23.645932930083969 4.1872122654959298 0 1 0 0 0 1 forward_v I I I I #
coedge $-1 $737 $738 $739 $740 reversed $573 $-1 #
coedge $-1 $741 $575 $742 $743 reversed $477 $-1 #
coedge $-1 $575 $741 $744 $745 reversed $477 $-1 #
coedge $-1 $586 $746 $575 $663 forward $490 $-1 #
edge $-1 $747 8.0410537209289075 $748 23.168704697381212 $662 $749 forward 7 unknown #
coedge $-1 $576 $588 $750 $751 forward $380 $-1 #
coedge $-1 $752 $577 $576 $666 reversed $490 $-1 #
edge $-1 $753 -25.003329313908274 $580 -15.37078475841367 $665 $592 forward 7 unknown #
vertex $-1 $584 $754 #
straight-curve $-1 68.40174565874203 -15.37078475841367 97.796421396192599 0 0 1 I I #
straight-curve $-1 -45.013488029536219 -15.37078475841367 82.177609104106963 -0.82903756765294845 0 0.55919291073839883 I I #
point $-1 68.40174565874203 -15.37078475841367 11.972040706075937 #
point $-1 59.070545481440917 -15.37078475841367 11.97204070607593 #
straight-curve $-1 68.401745658742044 -5.759876472880503 5.6780665951077651 0 -1 0 I I #
coedge $-1 $744 $589 $586 $674 forward $680 $-1 #
edge $-1 $591 -11.972040706075937 $748 -6.8162237374210184 $586 $755 forward 7 unknown #
face $-1 $756 $757 $19 $-1 $758 reversed single #
plane-surface $-1 68.40174565874203 0 0 -1 0 0 0 0 1 forward_v I I I I #
coedge $-1 $759 $760 $588 $678 reversed $761 $-1 #
edge $-1 $681 -38.773583906536281 $762 25.003329313908274 $677 $763 forward 7 unknown #
coedge $-1 $589 $744 $759 $764 reversed $680 $-1 #
loop $-1 $-1 $744 $733 #
vertex $-1 $590 $765 #
straight-curve $-1 0 38.773583906536281 11.972040706075937 -1 0 0 I I #
point $-1 68.40174565874203 38.773583906536281 11.972040706075937 #
point $-1 -68.40174565874203 38.773583906536281 -11.972040706075937 #
coedge $-1 $599 $598 $611 $693 reversed $422 $-1 #
edge $-1 $607 -68.40174565874203 $766 68.40174565874203 $605 $767 forward 7 unknown #
coedge $-1 $606 $605 $602 $688 forward $538 $-1 #
edge $-1 $766 -5.3918210122288812 $689 11.972040706075937 $602 $768 forward 7 unknown #
vertex $-1 $603 $769 #
straight-curve $-1 -68.40174565874203 0 -11.972040706075937 0 1 0 I I #
point $-1 68.40174565874203 -38.773583906536281 5.3918210122288812 #
straight-curve $-1 0 -38.773583906536281 -11.972040706075937 -1 0 0 I I #
edge $-1 $766 -22.829355601425142 $694 -9.0591010087971355 $611 $770 forward 7 unknown #
vertex $-1 $693 $771 #
straight-curve $-1 -68.40174565874203 -25.003329313908274 4.3409654295762046 0 0 1 I I #
point $-1 -68.40174565874203 -25.003329313908274 11.972040706075937 #
straight-curve $-1 0 -25.003329313908274 5.3918210122288812 1 0 0 I I #
face $-1 $718 $772 $18 $-1 $773 forward single #
plane-surface $-1 -68.40174565874203 0 0 1 0 0 0 0 -1 forward_v I I I I #
coedge $-1 $774 $621 $628 $710 forward $541 $-1 #
coedge $-1 $621 $774 $775 $776 reversed $541 $-1 #
coedge $-1 $775 $623 $625 $705 forward $567 $-1 #
vertex $-1 $705 $777 #
straight-curve $-1 -68.40174565874203 23.645932930083969 2.0936061327479649 0 0 -1 I I #
edge $-1 $703 8.0410537209289075 $706 23.168704697381212 $702 $778 forward 7 unknown #
vertex $-1 $776 $779 #
straight-curve $-1 0 38.773583906536281 1.5582007935708413 1 0 0 I I #
straight-curve $-1 0 23.645932930083969 1.5582007935708413 -1 0 0 I I #
coedge $-1 $628 $719 $651 $727 reversed $271 $-1 #
edge $-1 $629 -1.5582007935708413 $780 11.972040706075937 $628 $561 forward 7 unknown #
point $-1 68.40174565874203 38.773583906536274 1.5582007935708413 #
point $-1 68.40174565874203 23.645932930083969 1.5582007935708413 #
straight-curve $-1 -68.40174565874203 15.604879209155062 6.8162237374210184 0 -1 0 I I #
point $-1 -68.40174565874203 23.645932930083969 6.8162237374210184 #
point $-1 -68.40174565874203 38.773583906536274 6.8162237374210184 #
straight-curve $-1 68.40174565874203 23.645932930083969 2.0936061327479649 0 0 1 I I #
coedge $-1 $643 $642 $781 $782 forward $644 $-1 #
face $-1 $373 $644 $18 $-1 $783 forward single #
coedge $-1 $709 $646 $784 $785 forward $271 $-1 #
coedge $-1 $781 $786 $646 $721 reversed $772 $-1 #
edge $-1 $722 9.0591010087971355 $787 22.829355601425142 $646 $788 forward 7 unknown #
vertex $-1 $721 $789 #
straight-curve $-1 68.40174565874203 -25.003329313908274 4.3409654295762046 0 0 -1 I I #
coedge $-1 $790 $784 $786 $791 forward $649 $-1 #
coedge $-1 $792 $651 $793 $794 forward $563 $-1 #
coedge $-1 $651 $792 $774 $795 forward $563 $-1 #
edge $-1 $780 -38.773583906536281 $796 38.773583906536281 $709 $797 forward 7 unknown #
coedge $-1 $652 $798 $790 $799 reversed $567 $-1 #
coedge $-1 $786 $781 $652 $730 reversed $772 $-1 #
edge $-1 $800 -22.829355601425142 $731 -9.0591010087971355 $652 $801 forward 7 unknown #
vertex $-1 $730 $802 #
straight-curve $-1 -68.40174565874203 -25.003329313908274 4.3409654295762046 0 0 1 I I #
face $-1 $803 $680 $19 $-1 $735 reversed single #
loop $-1 $-1 $804 $656 #
plane-surface $-1 0 38.773583906536281 0 0 -1 0 0 0 -1 forward_v I I I I #
coedge $-1 $742 $805 $806 $807 reversed $657 $-1 #
coedge $-1 $808 $659 $804 $809 reversed $573 $-1 #
coedge $-1 $659 $808 $805 $810 reversed $573 $-1 #
coedge $-1 $746 $811 $659 $740 forward $490 $-1 #
edge $-1 $812 -23.168704697381212 $813 -8.0410537209289075 $739 $814 forward 7 unknown #
coedge $-1 $661 $660 $815 $816 reversed $477 $-1 #
coedge $-1 $817 $736 $660 $743 forward $657 $-1 #
edge $-1 $818 -68.40174565874203 $747 68.40174565874203 $742 $819 forward 7 unknown #
coedge $-1 $679 $673 $661 $745 forward $680 $-1 #
edge $-1 $748 -68.40174565874203 $820 68.40174565874203 $744 $821 forward 7 unknown #
coedge $-1 $662 $739 $817 $822 forward $490 $-1 #
vertex $-1 $663 $823 #
vertex $-1 $745 $824 #
straight-curve $-1 68.40174565874203 15.604879209155062 6.8162237374210184 0 1 0 I I #
coedge $-1 $825 $826 $664 $751 reversed $827 $-1 #
edge $-1 $762 -68.40174565874203 $753 68.40174565874203 $664 $828 forward 7 unknown #
coedge $-1 $829 $665 $826 $830 forward $490 $-1 #
vertex $-1 $666 $831 #
point $-1 68.401745658742044 -15.37078475841367 5.6780665951077651 #
straight-curve $-1 68.40174565874203 38.773583906536281 0 0 0 -1 I I #
face $-1 $-1 $832 $19 $-1 $833 reversed single #
loop $-1 $-1 $834 $675 #
plane-surface $-1 0 0 -11.972040706075937 0 0 1 1 0 0 forward_v I I I I #
coedge $-1 $815 $677 $679 $764 forward $761 $-1 #
coedge $-1 $677 $835 $825 $836 forward $761 $-1 #
loop $-1 $-1 $815 $803 #
vertex $-1 $836 $837 #
straight-curve $-1 -68.40174565874203 0 11.972040706075937 0 -1 0 I I #
edge $-1 $681 -11.972040706075937 $820 -6.8162237374210184 $679 $838 forward 7 unknown #
point $-1 -68.40174565874203 38.773583906536281 11.972040706075937 #
vertex $-1 $688 $839 #
straight-curve $-1 0 -38.773583906536281 5.3918210122288812 -1 0 0 I I #
straight-curve $-1 -68.40174565874203 -38.773583906536281 0 0 0 -1 I I #
point $-1 -68.40174565874203 -38.773583906536281 -11.972040706075937 #
straight-curve $-1 -68.40174565874203 -15.944228305111139 5.3918210122288812 0 1 0 I I #
point $-1 -68.40174565874203 -25.003329313908274 5.3918210122288812 #
loop $-1 $-1 $720 $698 #
plane-surface $-1 0 -31.888456610222278 5.3918210122288812 0 0 1 1 0 0 forward_v I I I I #
coedge $-1 $701 $700 $726 $795 reversed $541 $-1 #
coedge $-1 $798 $702 $701 $776 forward $567 $-1 #
edge $-1 $706 -1.5582007935708413 $840 11.972040706075937 $701 $655 forward 7 unknown #
point $-1 -68.40174565874203 23.645932930083969 1.5582007935708413 #
straight-curve $-1 -68.40174565874203 15.604879209155062 1.5582007935708413 0 1 0 I I #
point $-1 -68.40174565874203 38.773583906536274 1.5582007935708413 #
vertex $-1 $727 $841 #
coedge $-1 $729 $720 $717 $782 reversed $772 $-1 #
edge $-1 $731 -68.40174565874203 $722 68.40174565874203 $717 $842 forward 7 unknown #
plane-surface $-1 0 -25.003329313908274 8.6819308591524091 0 -1 0 0 0 -1 forward_v I I I I #
coedge $-1 $724 $793 $719 $785 reversed $649 $-1 #
edge $-1 $787 -5.3918210122288812 $796 11.972040706075937 $719 $843 forward 7 unknown #
coedge $-1 $720 $729 $724 $791 reversed $772 $-1 #
vertex $-1 $785 $844 #
straight-curve $-1 68.40174565874203 -15.944228305111139 5.3918210122288812 0 -1 0 I I #
point $-1 68.40174565874203 -25.003329313908274 5.3918210122288812 #
coedge $-1 $793 $724 $728 $799 forward $649 $-1 #
edge $-1 $787 -68.40174565874203 $800 68.40174565874203 $724 $845 forward 7 unknown #
coedge $-1 $726 $725 $798 $846 forward $563 $-1 #
coedge $-1 $784 $790 $725 $794 reversed $649 $-1 #
edge $-1 $796 -68.40174565874203 $847 68.40174565874203 $793 $848 forward 7 unknown #
edge $-1 $840 -68.40174565874203 $780 68.40174565874203 $774 $849 forward 7 unknown #
vertex $-1 $785 $850 #
straight-curve $-1 68.40174565874203 0 -11.972040706075937 0 -1 0 I I #
coedge $-1 $728 $775 $792 $846 reversed $567 $-1 #
edge $-1 $800 -5.3918210122288812 $847 11.972040706075937 $728 $851 forward 7 unknown #
vertex $-1 $799 $852 #
straight-curve $-1 -68.40174565874203 -15.944228305111139 5.3918210122288812 0 1 0 I I #
point $-1 -68.40174565874203 -25.003329313908274 5.3918210122288812 #
face $-1 $853 $761 $19 $-1 $854 reversed single #
coedge $-1 $855 $856 $737 $809 forward $734 $-1 #
coedge $-1 $736 $817 $738 $810 forward $657 $-1 #
coedge $-1 $857 $815 $736 $807 forward $761 $-1 #
edge $-1 $818 -4.7226176046730535 $858 0.53540533917712363 $806 $859 forward 7 unknown #
coedge $-1 $738 $737 $857 $860 reversed $573 $-1 #
edge $-1 $861 -68.40174565874203 $812 68.40174565874203 $804 $862 forward 7 unknown #
edge $-1 $813 -68.40174565874203 $858 68.40174565874203 $805 $863 forward 7 unknown #
coedge $-1 $739 $864 $855 $865 reversed $490 $-1 #
vertex $-1 $865 $866 #
vertex $-1 $740 $867 #
straight-curve $-1 68.40174565874203 15.604879209155062 1.5582007935708413 0 -1 0 I I #
coedge $-1 $806 $759 $741 $816 forward $761 $-1 #
edge $-1 $820 -23.168704697381212 $818 -8.0410537209289075 $815 $868 forward 7 unknown #
coedge $-1 $805 $742 $746 $822 reversed $657 $-1 #
vertex $-1 $816 $869 #
straight-curve $-1 0 23.645932930083969 6.8162237374210184 1 0 0 I I #
vertex $-1 $816 $870 #
straight-curve $-1 0 38.773583906536281 6.8162237374210184 -1 0 0 I I #
edge $-1 $813 -0.53540533917712363 $747 4.7226176046730535 $746 $871 forward 7 unknown #
point $-1 68.40174565874203 23.645932930083969 6.8162237374210184 #
point $-1 68.40174565874203 38.773583906536274 6.8162237374210184 #
coedge $-1 $872 $750 $760 $836 reversed $827 $-1 #
coedge $-1 $750 $872 $752 $830 reversed $827 $-1 #
loop $-1 $-1 $826 $873 #
straight-curve $-1 0 -25.003329313908274 11.972040706075937 1 0 0 I I #
coedge $-1 $874 $752 $875 $876 forward $490 $-1 #
edge $-1 $753 -7.6310752764997325 $877 -1.0508555826526766 $752 $878 forward 7 unknown #
point $-1 68.40174565874203 -25.003329313908274 11.972040706075937 #
loop $-1 $-1 $879 $756 #
plane-surface $-1 0 -38.773583906536281 0 0 1 0 0 0 1 forward_v I I I I #
coedge $-1 $880 $881 $864 $882 forward $757 $-1 #
coedge $-1 $760 $883 $884 $885 forward $761 $-1 #
edge $-1 $886 1.0508555826526766 $762 7.6310752764997325 $760 $887 forward 7 unknown #
point $-1 -68.40174565874203 -25.003329313908274 11.972040706075937 #
straight-curve $-1 -68.40174565874203 38.773583906536281 0 0 0 -1 I I #
point $-1 -68.40174565874203 -38.773583906536281 5.3918210122288812 #
vertex $-1 $795 $888 #
point $-1 68.40174565874203 38.773583906536281 -11.972040706075937 #
straight-curve $-1 0 -25.003329313908274 5.3918210122288812 1 0 0 I I #
straight-curve $-1 68.40174565874203 -38.773583906536281 0 0 0 -1 I I #
point $-1 68.40174565874203 -38.773583906536281 5.3918210122288812 #
straight-curve $-1 0 -38.773583906536281 5.3918210122288812 -1 0 0 I I #
edge $-1 $847 -38.773583906536281 $840 38.773583906536281 $798 $889 forward 7 unknown #
vertex $-1 $846 $890 #
straight-curve $-1 0 -38.773583906536281 -11.972040706075937 -1 0 0 I I #
straight-curve $-1 0 38.773583906536281 -11.972040706075937 1 0 0 I I #
point $-1 68.40174565874203 -38.773583906536281 -11.972040706075937 #
straight-curve $-1 -68.40174565874203 -38.773583906536281 0 0 0 -1 I I #
point $-1 -68.40174565874203 -38.773583906536281 5.3918210122288812 #
face $-1 $873 $891 $19 $-1 $892 forward single #
plane-surface $-1 -68.40174565874203 0 0 1 0 0 0 0 -1 forward_v I I I I #
coedge $-1 $893 $804 $811 $865 forward $734 $-1 #
coedge $-1 $804 $893 $894 $895 reversed $734 $-1 #
coedge $-1 $894 $806 $808 $860 forward $761 $-1 #
vertex $-1 $860 $896 #
straight-curve $-1 -68.40174565874203 23.645932930083969 2.0936061327479649 0 0 -1 I I #
edge $-1 $858 8.0410537209289075 $861 23.168704697381212 $857 $897 forward 7 unknown #
vertex $-1 $895 $898 #
straight-curve $-1 0 38.773583906536281 1.5582007935708413 1 0 0 I I #
straight-curve $-1 0 23.645932930083969 1.5582007935708413 -1 0 0 I I #
coedge $-1 $811 $874 $834 $882 reversed $490 $-1 #
edge $-1 $812 -1.5582007935708413 $899 11.972040706075937 $811 $755 forward 7 unknown #
point $-1 68.40174565874203 38.773583906536274 1.5582007935708413 #
point $-1 68.40174565874203 23.645932930083969 1.5582007935708413 #
straight-curve $-1 -68.40174565874203 15.604879209155062 6.8162237374210184 0 -1 0 I I #
point $-1 -68.40174565874203 23.645932930083969 6.8162237374210184 #
point $-1 -68.40174565874203 38.773583906536274 6.8162237374210184 #
straight-curve $-1 68.40174565874203 23.645932930083969 2.0936061327479649 0 0 1 I I #
coedge $-1 $826 $825 $900 $901 forward $827 $-1 #
face $-1 $587 $827 $19 $-1 $902 forward single #
coedge $-1 $864 $829 $903 $904 forward $490 $-1 #
coedge $-1 $900 $905 $829 $876 reversed $891 $-1 #
edge $-1 $877 9.0591010087971355 $906 22.829355601425142 $829 $907 forward 7 unknown #
vertex $-1 $876 $908 #
straight-curve $-1 68.40174565874203 -25.003329313908274 4.3409654295762046 0 0 -1 I I #
coedge $-1 $909 $903 $905 $910 forward $832 $-1 #
coedge $-1 $911 $834 $912 $913 forward $757 $-1 #
coedge $-1 $834 $911 $893 $914 forward $757 $-1 #
edge $-1 $899 -38.773583906536281 $915 38.773583906536281 $864 $916 forward 7 unknown #
coedge $-1 $835 $917 $909 $918 reversed $761 $-1 #
coedge $-1 $905 $900 $835 $885 reversed $891 $-1 #
edge $-1 $919 -22.829355601425142 $886 -9.0591010087971355 $835 $920 forward 7 unknown #
vertex $-1 $885 $921 #
straight-curve $-1 -68.40174565874203 -25.003329313908274 4.3409654295762046 0 0 1 I I #
point $-1 -68.40174565874203 38.773583906536281 -11.972040706075937 #
straight-curve $-1 -68.40174565874203 0 -11.972040706075937 0 1 0 I I #
point $-1 -68.40174565874203 -38.773583906536281 -11.972040706075937 #
loop $-1 $-1 $875 $853 #
plane-surface $-1 0 -31.888456610222278 5.3918210122288812 0 0 1 1 0 0 forward_v I I I I #
coedge $-1 $856 $855 $881 $914 reversed $734 $-1 #
coedge $-1 $917 $857 $856 $895 forward $761 $-1 #
edge $-1 $861 -1.5582007935708413 $922 11.972040706075937 $856 $838 forward 7 unknown #
point $-1 -68.40174565874203 23.645932930083969 1.5582007935708413 #
straight-curve $-1 -68.40174565874203 15.604879209155062 1.5582007935708413 0 1 0 I I #
point $-1 -68.40174565874203 38.773583906536274 1.5582007935708413 #
vertex $-1 $882 $923 #
coedge $-1 $884 $875 $872 $901 reversed $891 $-1 #
edge $-1 $886 -68.40174565874203 $877 68.40174565874203 $872 $924 forward 7 unknown #
plane-surface $-1 0 -25.003329313908274 8.6819308591524091 0 -1 0 0 0 -1 forward_v I I I I #
coedge $-1 $879 $912 $874 $904 reversed $832 $-1 #
edge $-1 $906 -5.3918210122288812 $915 11.972040706075937 $874 $925 forward 7 unknown #
coedge $-1 $875 $884 $879 $910 reversed $891 $-1 #
vertex $-1 $904 $926 #
straight-curve $-1 68.40174565874203 -15.944228305111139 5.3918210122288812 0 -1 0 I I #
point $-1 68.40174565874203 -25.003329313908274 5.3918210122288812 #
coedge $-1 $912 $879 $883 $918 forward $832 $-1 #
edge $-1 $906 -68.40174565874203 $919 68.40174565874203 $879 $927 forward 7 unknown #
coedge $-1 $881 $880 $917 $928 forward $757 $-1 #
coedge $-1 $903 $909 $880 $913 reversed $832 $-1 #
edge $-1 $915 -68.40174565874203 $929 68.40174565874203 $912 $930 forward 7 unknown #
edge $-1 $922 -68.40174565874203 $899 68.40174565874203 $893 $931 forward 7 unknown #
vertex $-1 $904 $932 #
straight-curve $-1 68.40174565874203 0 -11.972040706075937 0 -1 0 I I #
coedge $-1 $883 $894 $911 $928 reversed $761 $-1 #
edge $-1 $919 -5.3918210122288812 $929 11.972040706075937 $883 $933 forward 7 unknown #
vertex $-1 $918 $934 #
straight-curve $-1 -68.40174565874203 -15.944228305111139 5.3918210122288812 0 1 0 I I #
point $-1 -68.40174565874203 -25.003329313908274 5.3918210122288812 #
vertex $-1 $914 $935 #
point $-1 68.40174565874203 38.773583906536281 -11.972040706075937 #
straight-curve $-1 0 -25.003329313908274 5.3918210122288812 1 0 0 I I #
straight-curve $-1 68.40174565874203 -38.773583906536281 0 0 0 -1 I I #
point $-1 68.40174565874203 -38.773583906536281 5.3918210122288812 #
straight-curve $-1 0 -38.773583906536281 5.3918210122288812 -1 0 0 I I #
edge $-1 $929 -38.773583906536281 $922 38.773583906536281 $917 $936 forward 7 unknown #
vertex $-1 $928 $937 #
straight-curve $-1 0 -38.773583906536281 -11.972040706075937 -1 0 0 I I #
straight-curve $-1 0 38.773583906536281 -11.972040706075937 1 0 0 I I #
point $-1 68.40174565874203 -38.773583906536281 -11.972040706075937 #
straight-curve $-1 -68.40174565874203 -38.773583906536281 0 0 0 -1 I I #
point $-1 -68.40174565874203 -38.773583906536281 5.3918210122288812 #
point $-1 -68.40174565874203 38.773583906536281 -11.972040706075937 #
straight-curve $-1 -68.40174565874203 0 -11.972040706075937 0 1 0 I I #
point $-1 -68.40174565874203 -38.773583906536281 -11.972040706075937 #
End-of-ACIS-data 