500 0 9 0           
7 Unknown 11 ACIS 5.0 NT 24 Fri Mar 26 18:51:27 1999 
-1 9.9999999999999995e-007 1e-010 
body $-1 $9 $-1 $10 #
body $-1 $11 $-1 $12 #
body $-1 $13 $-1 $14 #
body $-1 $15 $-1 $16 #
body $-1 $17 $-1 $18 #
body $-1 $19 $-1 $20 #
body $-1 $21 $-1 $22 #
body $-1 $23 $-1 $24 #
body $-1 $25 $-1 $26 #
lump $-1 $-1 $27 $0 #
transform $-1 1 0 0 0 1 0 0 0 1 68.48597674489578 31.893309272847322 13.054093935198415 1 rotate no_reflect no_shear #
lump $-1 $-1 $28 $1 #
transform $-1 1 0 0 0 1 0 0 0 1 68.48597674489578 31.893309272847322 13.054093935198415 1 rotate no_reflect no_shear #
lump $-1 $-1 $29 $2 #
transform $-1 1 0 0 0 1 0 0 0 1 68.48597674489578 31.893309272847322 13.054093935198415 1 rotate no_reflect no_shear #
lump $-1 $-1 $30 $3 #
transform $-1 1 0 0 0 1 0 0 0 1 68.48597674489578 31.893309272847322 13.054093935198415 1 rotate no_reflect no_shear #
lump $-1 $-1 $31 $4 #
transform $-1 1 0 0 0 1 0 0 0 1 68.48597674489578 31.893309272847322 13.054093935198415 1 rotate no_reflect no_shear #
lump $-1 $-1 $32 $5 #
transform $-1 1 0 0 0 1 0 0 0 1 68.48597674489578 31.893309272847322 13.054093935198415 1 rotate no_reflect no_shear #
lump $-1 $-1 $33 $6 #
transform $-1 1 0 0 0 1 0 0 0 1 68.48597674489578 31.893309272847322 13.054093935198415 1 rotate no_reflect no_shear #
lump $-1 $-1 $34 $7 #
transform $-1 1 0 0 0 1 0 0 0 1 68.48597674489578 31.893309272847322 13.054093935198415 1 rotate no_reflect no_shear #
lump $-1 $-1 $35 $8 #
transform $-1 1 0 0 0 1 0 0 0 1 68.48597674489578 31.893309272847322 13.054093935198415 1 rotate no_reflect no_shear #
shell $-1 $-1 $-1 $36 $-1 $9 #
shell $-1 $-1 $-1 $37 $-1 $11 #
shell $-1 $-1 $-1 $38 $-1 $13 #
shell $-1 $-1 $-1 $39 $-1 $15 #
shell $-1 $-1 $-1 $40 $-1 $17 #
shell $-1 $-1 $-1 $41 $-1 $19 #
shell $-1 $-1 $-1 $42 $-1 $21 #
shell $-1 $-1 $-1 $43 $-1 $23 #
shell $-1 $-1 $-1 $44 $-1 $25 #
face $-1 $45 $46 $27 $-1 $47 forward single #
face $-1 $48 $49 $28 $-1 $50 reversed single #
face $-1 $51 $52 $29 $-1 $53 reversed single #
face $-1 $54 $55 $30 $-1 $56 reversed single #
face $-1 $57 $58 $31 $-1 $59 forward single #
face $-1 $60 $61 $32 $-1 $62 forward single #
face $-1 $63 $64 $33 $-1 $65 forward single #
face $-1 $66 $67 $34 $-1 $68 reversed single #
face $-1 $69 $70 $35 $-1 $71 forward single #
face $-1 $72 $73 $27 $-1 $74 reversed single #
loop $-1 $-1 $75 $36 #
plane-surface $-1 0 0 13.054093935198415 0 0 1 1 0 0 forward_v I I I I #
face $-1 $76 $77 $28 $-1 $78 reversed single #
loop $-1 $-1 $79 $37 #
plane-surface $-1 0 -25.528359834480376 7.3893653465395115 0 0 1 1 0 0 forward_v I I I I #
face $-1 $80 $81 $29 $-1 $82 reversed single #
loop $-1 $-1 $83 $38 #
plane-surface $-1 0 25.52835983448038 7.3893653465395115 0 0 1 1 0 0 forward_v I I I I #
face $-1 $84 $85 $30 $-1 $86 reversed single #
loop $-1 $-1 $87 $39 #
plane-surface $-1 -68.48597674489578 -15.543250512864393 8.7469727411939147 -0.86602541151947299 0 0.49999998660252726 0.49999998660252726 0 0.86602541151947299 forward_v I I I I #
face $-1 $88 $89 $31 $-1 $90 forward single #
loop $-1 $91 $92 $40 #
cone-surface $-1 -66.809605293161596 -17.715346442813818 10.650533344894905 0.86602541151947299 0 -0.49999998660252726 0.24999999330126363 0 0.43301270575973649 1 I I 0 1 0.5 forward I I I I #
face $-1 $93 $94 $32 $-1 $95 forward single #
loop $-1 $96 $97 $41 #
cone-surface $-1 -66.809605293161596 -15.543250512864393 10.650533344894905 0.86602541151947299 0 -0.49999998660252726 0.24999999330126363 0 0.43301270575973649 1 I I 0 1 0.5 forward I I I I #
face $-1 $98 $99 $33 $-1 $100 forward single #
loop $-1 $101 $102 $42 #
cone-surface $-1 -66.809605293161596 -13.371154582914972 10.650533344894905 0.86602541151947299 0 -0.49999998660252726 0.24999999330126363 0 0.43301270575973649 1 I I 0 1 0.5 forward I I I I #
face $-1 $103 $104 $34 $-1 $105 reversed single #
loop $-1 $-1 $106 $43 #
plane-surface $-1 102.12295019881439 6.7188508790571255 196.3123343726262 0 -1 0 -0.81915205242281985 0 -0.57357642473473569 forward_v I I I I #
face $-1 $107 $108 $35 $-1 $109 forward single #
loop $-1 $110 $111 $44 #
cone-surface $-1 64.323828441404245 1.5865479038599553 8.2266595376280431 -0.81915205242281985 0 -0.57357642473473569 0.57357642473473569 0 -0.81915205242281985 1 I I 0 1 1 forward I I I I #
face $-1 $112 $113 $27 $-1 $114 reversed single #
loop $-1 $-1 $115 $45 #
plane-surface $-1 0 0 -13.054093935198415 0 0 1 1 0 0 forward_v I I I I #
coedge $-1 $116 $117 $118 $119 forward $46 $-1 #
face $-1 $120 $121 $28 $-1 $122 reversed single #
loop $-1 $-1 $123 $48 #
plane-surface $-1 0 -19.163410396113431 10.221729640868963 0 -1 0 0 0 -1 forward_v I I I I #
coedge $-1 $124 $125 $126 $127 reversed $49 $-1 #
face $-1 $128 $129 $29 $-1 $130 forward single #
loop $-1 $-1 $131 $51 #
plane-surface $-1 0 19.163410396113434 10.221729640868963 0 1 0 0 0 1 forward_v I I I I #
coedge $-1 $132 $133 $134 $135 reversed $52 $-1 #
face $-1 $136 $137 $30 $-1 $138 reversed single #
loop $-1 $-1 $139 $54 #
plane-surface $-1 -187.10716913251864 -11.923090629615357 77.232947651011685 0 -1 0 0.86602541151947299 0 -0.49999998660252726 forward_v I I I I #
coedge $-1 $140 $141 $142 $143 reversed $55 $-1 #
face $-1 $-1 $144 $31 $-1 $145 forward single #
loop $-1 $146 $147 $57 #
cone-surface $-1 -66.160086234521998 -17.715346442813818 10.275533354943009 0.86602541151947299 0 -0.49999998660252726 0.12499999665063181 0 0.21650635287986825 1 I I -0.70710678118654746 0.70710678118654746 0.25 forward I I I I #
loop $-1 $-1 $148 $40 #
coedge $-1 $92 $92 $149 $150 reversed $58 $-1 #
face $-1 $-1 $151 $32 $-1 $152 forward single #
loop $-1 $153 $154 $60 #
cone-surface $-1 -66.160086234521998 -15.543250512864393 10.275533354943009 0.86602541151947299 0 -0.49999998660252726 0.12499999665063181 0 0.21650635287986825 1 I I -0.70710678118654746 0.70710678118654746 0.25 forward I I I I #
loop $-1 $-1 $155 $41 #
coedge $-1 $97 $97 $156 $157 reversed $61 $-1 #
face $-1 $-1 $158 $33 $-1 $159 forward single #
loop $-1 $160 $161 $63 #
cone-surface $-1 -66.160086234521998 -13.371154582914972 10.275533354943009 0.86602541151947299 0 -0.49999998660252726 0.12499999665063181 0 0.21650635287986825 1 I I -0.70710678118654746 0.70710678118654746 0.25 forward I I I I #
loop $-1 $-1 $162 $42 #
coedge $-1 $102 $102 $163 $164 reversed $64 $-1 #
face $-1 $165 $166 $34 $-1 $167 reversed single #
loop $-1 $-1 $168 $66 #
plane-surface $-1 -10.077906626711382 1.5865479038599553 117.74845100101905 0.81915205242281985 0 0.57357642473473569 0.57357642473473569 0 -0.81915205242281985 forward_v I I I I #
coedge $-1 $169 $170 $171 $172 reversed $67 $-1 #
face $-1 $-1 $173 $35 $-1 $174 forward single #
loop $-1 $175 $176 $69 #
cone-surface $-1 62.380157891038877 1.5865479038599553 6.8656868075428665 -0.81915205242281985 0 -0.57357642473473569 0.28678821236736785 0 -0.40957602621140993 1 I I -0.70710678118654746 0.70710678118654746 0.5 forward I I I I #
loop $-1 $-1 $177 $44 #
coedge $-1 $111 $111 $178 $179 reversed $70 $-1 #
face $-1 $180 $181 $27 $-1 $182 reversed single #
loop $-1 $-1 $183 $72 #
plane-surface $-1 0 -31.893309272847322 0 0 1 0 0 0 1 forward_v I I I I #
coedge $-1 $184 $185 $186 $187 forward $73 $-1 #
coedge $-1 $188 $75 $189 $190 forward $46 $-1 #
coedge $-1 $75 $188 $191 $192 forward $46 $-1 #
coedge $-1 $193 $194 $75 $119 reversed $195 $-1 #
edge $-1 $196 -31.893309272847322 $197 31.893309272847322 $118 $198 forward 7 unknown #
face $-1 $199 $200 $28 $-1 $201 reversed single #
loop $-1 $-1 $202 $76 #
plane-surface $-1 -68.48597674489578 0 0 1 0 0 0 0 -1 forward_v I I I I #
coedge $-1 $203 $204 $205 $206 reversed $77 $-1 #
coedge $-1 $207 $79 $208 $209 reversed $49 $-1 #
coedge $-1 $79 $207 $203 $210 forward $49 $-1 #
coedge $-1 $205 $211 $79 $127 forward $212 $-1 #
edge $-1 $213 -19.129129355607134 $214 -6.3992304788732426 $126 $215 forward 7 unknown #
face $-1 $216 $217 $29 $-1 $218 reversed single #
loop $-1 $-1 $219 $80 #
plane-surface $-1 0 0 13.054093935198415 0 0 1 1 0 0 forward_v I I I I #
coedge $-1 $220 $221 $222 $223 reversed $81 $-1 #
coedge $-1 $224 $83 $220 $225 forward $52 $-1 #
coedge $-1 $83 $224 $226 $227 reversed $52 $-1 #
coedge $-1 $228 $229 $83 $135 forward $217 $-1 #
edge $-1 $230 6.3992304788732444 $231 19.129129355607134 $134 $232 forward 7 unknown #
face $-1 $233 $234 $30 $-1 $235 forward single #
loop $-1 $-1 $236 $84 #
plane-surface $-1 -68.48597674489578 0 0 1 0 0 0 0 -1 forward_v I I I I #
coedge $-1 $237 $238 $239 $240 reversed $85 $-1 #
coedge $-1 $241 $87 $242 $243 reversed $55 $-1 #
coedge $-1 $87 $241 $237 $244 forward $55 $-1 #
coedge $-1 $239 $245 $87 $143 forward $234 $-1 #
edge $-1 $246 -11.391785139681231 $247 -4.1514653731831608 $142 $248 forward 7 unknown #
loop $-1 $-1 $149 $88 #
plane-surface $-1 -68.48597674489578 -15.543250512864393 8.7469727411939147 -0.86602541151947299 0 0.49999998660252726 0.49999998660252726 0 0.86602541151947299 forward_v I I I I #
loop $-1 $-1 $249 $57 #
coedge $-1 $147 $147 $148 $250 reversed $89 $-1 #
coedge $-1 $148 $148 $147 $250 forward $91 $-1 #
coedge $-1 $149 $149 $92 $150 forward $144 $-1 #
edge $-1 $251 0 $251 6.2831853071796004 $149 $252 forward 7 unknown #
loop $-1 $-1 $156 $93 #
plane-surface $-1 -68.48597674489578 -15.543250512864393 8.7469727411939147 -0.86602541151947299 0 0.49999998660252726 0.49999998660252726 0 0.86602541151947299 forward_v I I I I #
loop $-1 $-1 $253 $60 #
coedge $-1 $154 $154 $155 $254 reversed $94 $-1 #
coedge $-1 $155 $155 $154 $254 forward $96 $-1 #
coedge $-1 $156 $156 $97 $157 forward $151 $-1 #
edge $-1 $255 0 $255 6.2831853071796004 $156 $256 forward 7 unknown #
loop $-1 $-1 $163 $98 #
plane-surface $-1 -68.48597674489578 -15.543250512864393 8.7469727411939147 -0.86602541151947299 0 0.49999998660252726 0.49999998660252726 0 0.86602541151947299 forward_v I I I I #
loop $-1 $-1 $257 $63 #
coedge $-1 $161 $161 $162 $258 reversed $99 $-1 #
coedge $-1 $162 $162 $161 $258 forward $101 $-1 #
coedge $-1 $163 $163 $102 $164 forward $158 $-1 #
edge $-1 $259 0 $259 6.2831853071796004 $163 $260 forward 7 unknown #
face $-1 $261 $262 $34 $-1 $263 forward single #
loop $-1 $-1 $264 $103 #
plane-surface $-1 102.12295019881439 -3.545755071337215 196.3123343726262 0 1 0 0.81915205242281985 0 0.57357642473473569 forward_v I I I I #
coedge $-1 $265 $266 $267 $268 reversed $104 $-1 #
coedge $-1 $170 $106 $269 $270 reversed $67 $-1 #
coedge $-1 $106 $169 $265 $271 reversed $67 $-1 #
coedge $-1 $267 $272 $106 $172 forward $262 $-1 #
edge $-1 $273 -17.424501645488583 $274 -12.168394086813443 $171 $275 forward 7 unknown #
loop $-1 $-1 $178 $107 #
plane-surface $-1 -10.077906626711382 1.5865479038599553 117.74845100101905 0.81915205242281985 0 0.57357642473473569 0.57357642473473569 0 -0.81915205242281985 forward_v I I I I #
loop $-1 $-1 $276 $69 #
coedge $-1 $176 $176 $177 $277 reversed $108 $-1 #
coedge $-1 $177 $177 $176 $277 forward $110 $-1 #
coedge $-1 $178 $178 $111 $179 forward $173 $-1 #
edge $-1 $278 0 $278 6.2831853071796004 $178 $279 forward 7 unknown #
face $-1 $280 $281 $27 $-1 $282 reversed single #
loop $-1 $-1 $283 $112 #
plane-surface $-1 -68.48597674489578 0 0 1 0 0 0 0 -1 forward_v I I I I #
coedge $-1 $284 $191 $285 $286 forward $113 $-1 #
coedge $-1 $287 $115 $284 $288 forward $73 $-1 #
coedge $-1 $115 $287 $289 $290 forward $73 $-1 #
coedge $-1 $194 $193 $115 $187 reversed $195 $-1 #
edge $-1 $291 -31.893309272847322 $292 31.893309272847322 $186 $293 forward 7 unknown #
coedge $-1 $117 $116 $294 $295 forward $46 $-1 #
coedge $-1 $296 $297 $116 $190 reversed $281 $-1 #
edge $-1 $197 -68.48597674489578 $298 68.48597674489578 $189 $299 forward 7 unknown #
coedge $-1 $183 $300 $117 $192 reversed $113 $-1 #
edge $-1 $301 -68.48597674489578 $196 68.48597674489578 $191 $302 forward 7 unknown #
coedge $-1 $186 $118 $300 $303 forward $195 $-1 #
coedge $-1 $118 $186 $296 $304 reversed $195 $-1 #
loop $-1 $-1 $193 $280 #
vertex $-1 $119 $305 #
vertex $-1 $119 $306 #
straight-curve $-1 68.48597674489578 0 13.054093935198415 0 1 0 I I #
face $-1 $307 $308 $28 $-1 $309 forward single #
loop $-1 $-1 $208 $120 #
plane-surface $-1 0 -31.893309272847322 0 0 1 0 0 0 1 forward_v I I I I #
coedge $-1 $310 $311 $312 $313 forward $121 $-1 #
coedge $-1 $312 $123 $125 $210 reversed $77 $-1 #
coedge $-1 $123 $312 $314 $315 reversed $77 $-1 #
coedge $-1 $316 $126 $123 $206 forward $212 $-1 #
edge $-1 $214 2.27850052610503 $317 7.9432291147639331 $205 $318 forward 7 unknown #
coedge $-1 $125 $124 $310 $319 reversed $49 $-1 #
coedge $-1 $320 $321 $124 $209 forward $200 $-1 #
edge $-1 $322 -68.48597674489578 $213 68.48597674489578 $208 $323 forward 7 unknown #
edge $-1 $324 -68.48597674489578 $214 68.48597674489578 $203 $325 forward 7 unknown #
coedge $-1 $126 $316 $320 $326 forward $212 $-1 #
loop $-1 $-1 $205 $307 #
vertex $-1 $209 $327 #
vertex $-1 $127 $328 #
straight-curve $-1 68.48597674489578 -12.764179917240188 7.3893653465395115 0 1 0 I I #
face $-1 $329 $330 $29 $-1 $331 reversed single #
loop $-1 $-1 $229 $128 #
plane-surface $-1 68.48597674489578 0 0 -1 0 0 0 0 1 forward_v I I I I #
coedge $-1 $332 $333 $221 $334 forward $129 $-1 #
coedge $-1 $335 $131 $132 $225 reversed $81 $-1 #
coedge $-1 $131 $335 $219 $334 reversed $81 $-1 #
coedge $-1 $336 $337 $131 $223 forward $330 $-1 #
edge $-1 $338 2.27850052610503 $339 7.9432291147639331 $222 $340 forward 7 unknown #
coedge $-1 $133 $132 $337 $341 reversed $52 $-1 #
edge $-1 $230 -68.48597674489578 $338 68.48597674489578 $220 $342 forward 7 unknown #
coedge $-1 $343 $344 $133 $227 forward $345 $-1 #
edge $-1 $231 -68.48597674489578 $346 68.48597674489578 $226 $347 forward 7 unknown #
coedge $-1 $348 $134 $344 $349 reversed $217 $-1 #
coedge $-1 $134 $348 $335 $350 forward $217 $-1 #
vertex $-1 $135 $351 #
vertex $-1 $227 $352 #
straight-curve $-1 68.48597674489578 12.76417991724019 7.3893653465395115 0 1 0 I I #
face $-1 $-1 $353 $30 $-1 $354 forward single #
loop $-1 $-1 $239 $136 #
plane-surface $-1 0 0 13.054093935198415 0 0 1 1 0 0 forward_v I I I I #
coedge $-1 $355 $356 $238 $357 forward $137 $-1 #
coedge $-1 $238 $139 $141 $244 reversed $85 $-1 #
coedge $-1 $139 $237 $236 $357 reversed $85 $-1 #
coedge $-1 $358 $142 $139 $240 forward $234 $-1 #
edge $-1 $247 -27.554325313312432 $359 -25.067607821363538 $239 $360 forward 7 unknown #
coedge $-1 $141 $140 $355 $361 reversed $55 $-1 #
coedge $-1 $362 $363 $140 $243 forward $353 $-1 #
edge $-1 $364 -17.760082202920572 $246 -12.786647085759864 $242 $365 forward 7 unknown #
edge $-1 $366 0 $247 4.9734351171607081 $237 $367 forward 7 unknown #
coedge $-1 $142 $358 $362 $368 forward $234 $-1 #
vertex $-1 $243 $369 #
vertex $-1 $143 $370 #
straight-curve $-1 -65.999259252946899 -7.7716252564321966 13.054093935198416 0 1 0 I I #
coedge $-1 $249 $249 $-1 $371 reversed $146 $-1 #
edge $-1 $372 0 $372 6.2831853071796004 $147 $373 forward 7 unknown #
vertex $-1 $150 $374 #
ellipse-curve $-1 -67.242617998921332 -17.715346442813818 10.900533338196167 -0.86602541151947299 0 0.49999998660252726 0.24999999330126363 0 0.43301270575973649 1 I I #
coedge $-1 $253 $253 $-1 $375 reversed $153 $-1 #
edge $-1 $376 0 $376 6.2831853071796004 $154 $377 forward 7 unknown #
vertex $-1 $157 $378 #
ellipse-curve $-1 -67.242617998921332 -15.543250512864393 10.900533338196167 -0.86602541151947299 0 0.49999998660252726 0.24999999330126363 0 0.43301270575973649 1 I I #
coedge $-1 $257 $257 $-1 $379 reversed $160 $-1 #
edge $-1 $380 0 $380 6.2831853071796004 $161 $381 forward 7 unknown #
vertex $-1 $164 $382 #
ellipse-curve $-1 -67.242617998921332 -13.371154582914972 10.900533338196167 -0.86602541151947299 0 0.49999998660252726 0.24999999330126363 0 0.43301270575973649 1 I I #
face $-1 $-1 $383 $34 $-1 $384 reversed single #
loop $-1 $-1 $171 $165 #
plane-surface $-1 0 0 13.054093935198415 0 0 1 1 0 0 forward_v I I I I #
coedge $-1 $385 $386 $387 $388 reversed $166 $-1 #
coedge $-1 $389 $168 $170 $271 forward $104 $-1 #
coedge $-1 $168 $389 $385 $390 forward $104 $-1 #
coedge $-1 $387 $171 $168 $268 forward $262 $-1 #
edge $-1 $274 -5.9255769271271479 $391 4.3390290232671926 $267 $392 forward 7 unknown #
coedge $-1 $393 $394 $169 $270 forward $383 $-1 #
edge $-1 $395 -92.608573010819853 $273 -85.102073251114689 $269 $396 forward 7 unknown #
edge $-1 $274 127.80820942359162 $395 136.97195348979162 $170 $397 forward 7 unknown #
coedge $-1 $171 $387 $393 $398 forward $262 $-1 #
vertex $-1 $270 $399 #
vertex $-1 $172 $400 #
straight-curve $-1 51.061475099407197 6.7188508790571255 13.054093935198409 -1 0 0 I I #
coedge $-1 $276 $276 $-1 $401 reversed $175 $-1 #
edge $-1 $402 0 $402 6.2831853071796004 $176 $403 forward 7 unknown #
vertex $-1 $179 $404 #
ellipse-curve $-1 65.857922965558188 1.5865479038599553 9.3008440553458485 0.81915205242281985 0 0.57357642473473569 0.57357642473473569 0 -0.81915205242281985 1 I I #
face $-1 $-1 $195 $27 $-1 $405 reversed single #
loop $-1 $-1 $296 $180 #
plane-surface $-1 0 31.893309272847322 0 0 -1 0 0 0 -1 forward_v I I I I #
coedge $-1 $406 $294 $297 $407 forward $181 $-1 #
coedge $-1 $300 $183 $184 $288 reversed $113 $-1 #
coedge $-1 $294 $406 $183 $286 reversed $181 $-1 #
edge $-1 $301 -13.054093935198415 $408 13.054093935198415 $285 $409 forward 7 unknown #
coedge $-1 $185 $184 $406 $410 forward $73 $-1 #
edge $-1 $292 -68.48597674489578 $408 68.48597674489578 $284 $411 forward 7 unknown #
coedge $-1 $297 $296 $185 $290 reversed $281 $-1 #
edge $-1 $412 -68.48597674489578 $291 68.48597674489578 $289 $413 forward 7 unknown #
vertex $-1 $187 $414 #
vertex $-1 $303 $415 #
straight-curve $-1 68.48597674489578 0 -13.054093935198415 0 -1 0 I I #
coedge $-1 $283 $285 $188 $295 reversed $181 $-1 #
edge $-1 $298 -31.893309272847322 $301 31.893309272847322 $294 $416 forward 7 unknown #
coedge $-1 $289 $189 $194 $304 forward $281 $-1 #
coedge $-1 $189 $289 $283 $407 reversed $281 $-1 #
vertex $-1 $190 $417 #
straight-curve $-1 0 31.893309272847322 13.054093935198415 -1 0 0 I I #
coedge $-1 $191 $284 $193 $303 reversed $113 $-1 #
vertex $-1 $295 $418 #
straight-curve $-1 0 -31.893309272847322 13.054093935198415 1 0 0 I I #
edge $-1 $196 -13.054093935198415 $292 13.054093935198415 $193 $419 forward 7 unknown #
edge $-1 $197 -13.054093935198415 $291 13.054093935198415 $194 $420 forward 7 unknown #
point $-1 68.48597674489578 -31.893309272847322 13.054093935198415 #
point $-1 68.48597674489578 31.893309272847322 13.054093935198415 #
face $-1 $-1 $212 $28 $-1 $421 reversed single #
loop $-1 $-1 $314 $199 #
plane-surface $-1 0 0 13.054093935198415 0 0 1 1 0 0 forward_v I I I I #
coedge $-1 $422 $202 $207 $319 forward $121 $-1 #
coedge $-1 $202 $422 $423 $424 reversed $121 $-1 #
coedge $-1 $204 $203 $202 $313 reversed $77 $-1 #
edge $-1 $425 -7.9432291147639331 $324 -2.27850052610503 $202 $426 forward 7 unknown #
coedge $-1 $423 $427 $204 $315 forward $308 $-1 #
edge $-1 $317 -68.48597674489578 $425 68.48597674489578 $314 $428 forward 7 unknown #
coedge $-1 $211 $205 $427 $429 reversed $212 $-1 #
vertex $-1 $206 $430 #
straight-curve $-1 68.48597674489578 -19.163410396113431 5.1108648204344815 0 0 1 I I #
edge $-1 $324 6.3992304788732426 $322 19.129129355607134 $310 $431 forward 7 unknown #
coedge $-1 $432 $208 $211 $326 reversed $200 $-1 #
coedge $-1 $208 $432 $422 $433 forward $200 $-1 #
vertex $-1 $209 $434 #
straight-curve $-1 0 -31.893309272847322 7.3893653465395115 1 0 0 I I #
vertex $-1 $319 $435 #
straight-curve $-1 0 -19.163410396113431 7.3893653465395115 1 0 0 I I #
edge $-1 $436 -13.054093935198415 $213 -7.3893653465395115 $211 $437 forward 7 unknown #
point $-1 68.48597674489578 -31.893309272847322 7.3893653465395115 #
point $-1 68.48597674489578 -19.163410396113431 7.3893653465395115 #
face $-1 $-1 $345 $29 $-1 $438 reversed single #
loop $-1 $-1 $222 $216 #
plane-surface $-1 -68.48597674489578 0 0 1 0 0 0 0 -1 forward_v I I I I #
coedge $-1 $439 $219 $348 $440 forward $129 $-1 #
coedge $-1 $219 $439 $336 $441 forward $129 $-1 #
edge $-1 $339 -68.48597674489578 $442 68.48597674489578 $219 $443 forward 7 unknown #
coedge $-1 $221 $220 $229 $350 reversed $81 $-1 #
coedge $-1 $444 $222 $333 $441 reversed $330 $-1 #
coedge $-1 $222 $444 $224 $341 forward $330 $-1 #
vertex $-1 $341 $445 #
vertex $-1 $223 $446 #
straight-curve $-1 -68.48597674489578 19.163410396113434 5.1108648204344815 0 0 1 I I #
edge $-1 $346 -19.129129355607134 $338 -6.3992304788732444 $337 $447 forward 7 unknown #
straight-curve $-1 0 19.163410396113434 7.3893653465395115 -1 0 0 I I #
coedge $-1 $448 $226 $444 $449 reversed $345 $-1 #
coedge $-1 $226 $448 $228 $349 forward $345 $-1 #
loop $-1 $-1 $226 $329 #
vertex $-1 $227 $450 #
straight-curve $-1 0 31.893309272847322 7.3893653465395115 -1 0 0 I I #
coedge $-1 $229 $228 $332 $440 reversed $217 $-1 #
edge $-1 $451 -13.054093935198415 $231 -7.3893653465395115 $228 $452 forward 7 unknown #
edge $-1 $442 -7.9432291147639331 $230 -2.27850052610503 $229 $453 forward 7 unknown #
point $-1 68.48597674489578 19.163410396113434 7.3893653465395115 #
point $-1 68.48597674489578 31.893309272847326 7.3893653465395115 #
loop $-1 $-1 $242 $233 #
plane-surface $-1 0 -19.163410396113431 10.221729640868963 0 -1 0 0 0 -1 forward_v I I I I #
coedge $-1 $454 $236 $241 $361 forward $137 $-1 #
coedge $-1 $236 $454 $358 $455 reversed $137 $-1 #
edge $-1 $359 25.562379890307426 $366 29.869501084311928 $236 $456 forward 7 unknown #
coedge $-1 $245 $239 $356 $455 forward $234 $-1 #
vertex $-1 $455 $457 #
straight-curve $-1 -93.553584566259318 -11.923090629615357 13.054093935198416 -1 0 0 I I #
edge $-1 $366 4.1514653731831608 $364 11.391785139681231 $355 $458 forward 7 unknown #
coedge $-1 $363 $242 $245 $368 reversed $353 $-1 #
coedge $-1 $242 $362 $454 $459 reversed $353 $-1 #
vertex $-1 $459 $460 #
straight-curve $-1 -59.605935881375714 -19.163410396113431 24.127655239597875 0.49999998660252726 0 0.86602541151947299 I I #
vertex $-1 $361 $461 #
straight-curve $-1 -68.48597674489578 -11.923090629615357 8.7469727411939147 0.49999998660252726 0 0.86602541151947299 I I #
edge $-1 $462 -68.48597674489578 $246 -65.999259252946885 $245 $463 forward 7 unknown #
point $-1 -65.999259252946885 -19.163410396113427 13.054093935198415 #
point $-1 -65.999259252946885 -11.923090629615357 13.054093935198415 #
edge $-1 $464 1 $464 0 $249 $-1 forward 7 unknown #
vertex $-1 $250 $465 #
ellipse-curve $-1 -66.376592587401859 -17.715346442813818 10.400533351593641 -0.86602541151947299 0 0.49999998660252726 0.24999999330126363 0 0.43301270575973649 1 I I #
point $-1 -66.992618005620074 -17.715346442813818 11.333546043955906 #
edge $-1 $466 1 $466 0 $253 $-1 forward 7 unknown #
vertex $-1 $254 $467 #
ellipse-curve $-1 -66.376592587401859 -15.543250512864393 10.400533351593641 -0.86602541151947299 0 0.49999998660252726 0.24999999330126363 0 0.43301270575973649 1 I I #
point $-1 -66.992618005620074 -15.543250512864393 11.333546043955906 #
edge $-1 $468 1 $468 0 $257 $-1 forward 7 unknown #
vertex $-1 $258 $469 #
ellipse-curve $-1 -66.376592587401859 -13.371154582914972 10.400533351593641 -0.86602541151947299 0 0.49999998660252726 0.24999999330126363 0 0.43301270575973649 1 I I #
point $-1 -66.992618005620074 -13.371154582914972 11.333546043955906 #
loop $-1 $-1 $269 $261 #
plane-surface $-1 68.48597674489578 0 0 -1 0 0 0 0 1 forward_v I I I I #
coedge $-1 $386 $264 $266 $390 reversed $166 $-1 #
coedge $-1 $264 $385 $470 $471 reversed $166 $-1 #
coedge $-1 $272 $267 $264 $388 forward $262 $-1 #
edge $-1 $391 12.168394086813443 $472 17.424501645488583 $387 $473 forward 7 unknown #
coedge $-1 $266 $265 $394 $474 reversed $104 $-1 #
edge $-1 $475 -136.97195348979162 $391 -127.80820942359162 $385 $476 forward 7 unknown #
vertex $-1 $268 $477 #
straight-curve $-1 63.22986918622064 0.79327395192997763 13.054093935198409 0 -1 0 I I #
coedge $-1 $470 $269 $272 $398 reversed $383 $-1 #
coedge $-1 $269 $470 $389 $474 forward $383 $-1 #
vertex $-1 $270 $478 #
straight-curve $-1 68.48597674489578 6.7188508790571255 98.156167186313098 0 0 1 I I #
straight-curve $-1 -10.077906626711382 6.7188508790571255 117.74845100101905 0.57357642473473569 0 -0.81915205242281985 I I #
edge $-1 $472 -3.545755071337215 $273 6.7188508790571255 $393 $479 forward 7 unknown #
point $-1 68.48597674489578 6.7188508790571255 13.054093935198415 #
point $-1 63.22986918622064 6.7188508790571255 13.054093935198409 #
edge $-1 $480 1 $480 0 $276 $-1 forward 7 unknown #
vertex $-1 $277 $481 #
ellipse-curve $-1 62.789733917250288 1.5865479038599553 7.1524750199102343 0.81915205242281985 0 0.57357642473473569 0.57357642473473569 0 -0.81915205242281985 1 I I #
point $-1 66.431499390292927 1.5865479038599553 8.4816920029230314 #
plane-surface $-1 68.48597674489578 0 0 -1 0 0 0 0 1 forward_v I I I I #
coedge $-1 $285 $283 $287 $410 reversed $181 $-1 #
edge $-1 $298 -13.054093935198415 $412 13.054093935198415 $297 $482 forward 7 unknown #
vertex $-1 $410 $483 #
straight-curve $-1 -68.48597674489578 -31.893309272847322 0 0 0 -1 I I #
edge $-1 $408 -31.893309272847322 $412 31.893309272847322 $406 $484 forward 7 unknown #
straight-curve $-1 0 -31.893309272847322 -13.054093935198415 -1 0 0 I I #
vertex $-1 $290 $485 #
straight-curve $-1 0 31.893309272847322 -13.054093935198415 1 0 0 I I #
point $-1 68.48597674489578 31.893309272847322 -13.054093935198415 #
point $-1 68.48597674489578 -31.893309272847322 -13.054093935198415 #
straight-curve $-1 -68.48597674489578 0 13.054093935198415 0 -1 0 I I #
point $-1 -68.48597674489578 31.893309272847322 13.054093935198415 #
point $-1 -68.48597674489578 -31.893309272847322 13.054093935198415 #
straight-curve $-1 68.48597674489578 -31.893309272847322 0 0 0 -1 I I #
straight-curve $-1 68.48597674489578 31.893309272847322 0 0 0 -1 I I #
plane-surface $-1 68.48597674489578 0 0 -1 0 0 0 0 1 forward_v I I I I #
coedge $-1 $311 $310 $321 $433 reversed $121 $-1 #
coedge $-1 $486 $314 $311 $424 forward $308 $-1 #
edge $-1 $425 19.163410396113431 $487 31.893309272847322 $311 $488 forward 7 unknown #
vertex $-1 $424 $489 #
straight-curve $-1 -68.48597674489578 -19.163410396113431 5.1108648204344815 0 0 -1 I I #
coedge $-1 $314 $486 $316 $429 forward $308 $-1 #
straight-curve $-1 0 -19.163410396113431 13.054093935198415 -1 0 0 I I #
edge $-1 $436 -31.893309272847322 $317 -19.163410396113431 $316 $490 forward 7 unknown #
point $-1 68.48597674489578 -19.163410396113431 13.054093935198415 #
straight-curve $-1 -68.48597674489578 -12.764179917240188 7.3893653465395115 0 -1 0 I I #
coedge $-1 $321 $320 $486 $491 reversed $200 $-1 #
edge $-1 $487 -13.054093935198415 $322 -7.3893653465395115 $422 $492 forward 7 unknown #
point $-1 -68.48597674489578 -31.893309272847322 7.3893653465395115 #
point $-1 -68.48597674489578 -19.163410396113431 7.3893653465395115 #
vertex $-1 $429 $493 #
straight-curve $-1 68.48597674489578 -31.893309272847322 0 0 0 -1 I I #
plane-surface $-1 0 31.893309272847322 0 0 -1 0 0 0 -1 forward_v I I I I #
coedge $-1 $333 $332 $448 $494 forward $129 $-1 #
edge $-1 $442 19.163410396113434 $451 31.893309272847322 $348 $495 forward 7 unknown #
edge $-1 $496 -31.893309272847322 $339 -19.163410396113434 $336 $497 forward 7 unknown #
vertex $-1 $440 $498 #
straight-curve $-1 0 19.163410396113434 13.054093935198415 1 0 0 I I #
coedge $-1 $337 $336 $343 $449 forward $330 $-1 #
point $-1 -68.48597674489578 19.163410396113434 7.3893653465395115 #
point $-1 -68.48597674489578 19.163410396113434 13.054093935198415 #
straight-curve $-1 -68.48597674489578 12.76417991724019 7.3893653465395115 0 -1 0 I I #
coedge $-1 $344 $343 $439 $494 reversed $345 $-1 #
edge $-1 $496 -13.054093935198415 $346 -7.3893653465395115 $343 $499 forward 7 unknown #
point $-1 -68.48597674489578 31.893309272847326 7.3893653465395115 #
vertex $-1 $440 $500 #
straight-curve $-1 68.48597674489578 31.893309272847322 0 0 0 -1 I I #
straight-curve $-1 68.48597674489578 19.163410396113434 5.1108648204344815 0 0 -1 I I #
coedge $-1 $356 $355 $363 $459 forward $137 $-1 #
edge $-1 $359 11.923090629615357 $462 19.163410396113431 $356 $501 forward 7 unknown #
straight-curve $-1 -68.48597674489578 -11.923090629615357 38.616473825505842 0 0 -1 I I #
point $-1 -68.48597674489578 -11.923090629615357 13.054093935198415 #
straight-curve $-1 -68.48597674489578 -7.7716252564321966 8.7469727411939182 0 -1 0 I I #
edge $-1 $364 3.6361079207594331 $462 7.9432291147639331 $454 $502 forward 7 unknown #
point $-1 -68.48597674489578 -19.163410396113427 8.7469727411939147 #
point $-1 -68.48597674489578 -11.923090629615357 8.7469727411939147 #
vertex $-1 $459 $503 #
straight-curve $-1 0 -19.163410396113431 13.054093935198415 1 0 0 I I #
vertex $-1 $371 $504 #
point $-1 -66.1265925941006 -17.715346442813818 10.833546057353377 #
vertex $-1 $375 $505 #
point $-1 -66.1265925941006 -15.543250512864393 10.833546057353377 #
vertex $-1 $379 $506 #
point $-1 -66.1265925941006 -13.371154582914972 10.833546057353377 #
coedge $-1 $394 $393 $386 $471 forward $383 $-1 #
edge $-1 $472 85.102073251114689 $475 92.608573010819853 $470 $507 forward 7 unknown #
vertex $-1 $398 $508 #
straight-curve $-1 51.061475099407197 -3.545755071337215 13.054093935198409 1 0 0 I I #
edge $-1 $475 -4.3390290232671926 $395 5.9255769271271479 $394 $509 forward 7 unknown #
vertex $-1 $474 $510 #
straight-curve $-1 -10.077906626711382 -3.545755071337215 117.74845100101905 -0.57357642473473569 0 0.81915205242281985 I I #
point $-1 63.22986918622064 -3.545755071337215 13.054093935198409 #
point $-1 68.48597674489578 6.7188508790571255 5.547594175493245 #
straight-curve $-1 68.48597674489578 0 13.054093935198415 0 1 0 I I #
vertex $-1 $401 $511 #
point $-1 63.36331034198502 1.5865479038599553 6.3333229674874145 #
straight-curve $-1 -68.48597674489578 31.893309272847322 0 0 0 -1 I I #
point $-1 -68.48597674489578 -31.893309272847322 -13.054093935198415 #
straight-curve $-1 -68.48597674489578 0 -13.054093935198415 0 1 0 I I #
point $-1 -68.48597674489578 31.893309272847322 -13.054093935198415 #
coedge $-1 $427 $423 $432 $491 forward $308 $-1 #
vertex $-1 $424 $512 #
straight-curve $-1 -68.48597674489578 0 13.054093935198415 0 -1 0 I I #
point $-1 -68.48597674489578 -19.163410396113431 13.054093935198415 #
straight-curve $-1 68.48597674489578 0 13.054093935198415 0 1 0 I I #
edge $-1 $487 -68.48597674489578 $436 68.48597674489578 $432 $513 forward 7 unknown #
straight-curve $-1 -68.48597674489578 -31.893309272847322 0 0 0 -1 I I #
point $-1 68.48597674489578 -31.893309272847322 13.054093935198415 #
edge $-1 $451 -68.48597674489578 $496 68.48597674489578 $448 $514 forward 7 unknown #
straight-curve $-1 68.48597674489578 0 13.054093935198415 0 1 0 I I #
vertex $-1 $494 $515 #
straight-curve $-1 -68.48597674489578 0 13.054093935198415 0 -1 0 I I #
point $-1 68.48597674489578 19.163410396113434 13.054093935198415 #
straight-curve $-1 -68.48597674489578 31.893309272847322 0 0 0 -1 I I #
point $-1 68.48597674489578 31.893309272847322 13.054093935198415 #
straight-curve $-1 -68.48597674489578 0 13.054093935198415 0 -1 0 I I #
straight-curve $-1 -68.48597674489578 -19.163410396113431 5.1108648204344815 0 0 1 I I #
point $-1 -68.48597674489578 -19.163410396113431 13.054093935198415 #
point $-1 -65.943579881642137 -17.715346442813818 10.150533358292378 #
point $-1 -65.943579881642137 -15.543250512864393 10.150533358292378 #
point $-1 -65.943579881642137 -13.371154582914972 10.150533358292378 #
straight-curve $-1 68.48597674489578 -3.545755071337215 98.156167186313098 0 0 -1 I I #
point $-1 68.48597674489578 -3.545755071337215 13.054093935198415 #
straight-curve $-1 68.485976744895794 0.79327395192997763 5.547594175493245 0 1 0 I I #
point $-1 68.48597674489578 -3.545755071337215 5.547594175493245 #
point $-1 61.970581864827466 1.5865479038599553 6.5788985951754988 #
point $-1 -68.48597674489578 -31.893309272847322 13.054093935198415 #
straight-curve $-1 0 -31.893309272847322 13.054093935198415 1 0 0 I I #
straight-curve $-1 0 31.893309272847322 13.054093935198415 -1 0 0 I I #
point $-1 -68.48597674489578 31.893309272847322 13.054093935198415 #
End-of-ACIS-data 