500 0 18 0           
7 Unknown 11 ACIS 5.0 NT 24 Thu Mar 25 18:43:24 1999 
-1 9.9999999999999995e-007 1e-010 
body $-1 $18 $-1 $19 #
body $-1 $20 $-1 $21 #
body $-1 $22 $-1 $23 #
body $-1 $24 $-1 $25 #
body $-1 $26 $-1 $27 #
body $-1 $28 $-1 $29 #
body $-1 $30 $-1 $31 #
body $-1 $32 $-1 $33 #
body $-1 $34 $-1 $35 #
body $-1 $36 $-1 $37 #
body $-1 $38 $-1 $39 #
body $-1 $40 $-1 $41 #
body $-1 $42 $-1 $43 #
body $-1 $44 $-1 $45 #
body $-1 $46 $-1 $47 #
body $-1 $48 $-1 $49 #
body $-1 $50 $-1 $51 #
body $-1 $52 $-1 $53 #
lump $-1 $-1 $54 $0 #
transform $-1 1 0 0 0 1 0 0 0 1 70.434278389843442 44.570042686301704 9.7105482570118689 1 rotate no_reflect no_shear #
lump $-1 $-1 $55 $1 #
transform $-1 1 0 0 0 1 0 0 0 1 70.434278389843442 44.570042686301704 9.7105482570118689 1 rotate no_reflect no_shear #
lump $-1 $-1 $56 $2 #
transform $-1 1 0 0 0 1 0 0 0 1 70.434278389843442 44.570042686301704 9.7105482570118689 1 rotate no_reflect no_shear #
lump $-1 $-1 $57 $3 #
transform $-1 1 0 0 0 1 0 0 0 1 70.434278389843442 44.570042686301704 9.7105482570118689 1 rotate no_reflect no_shear #
lump $-1 $-1 $58 $4 #
transform $-1 1 0 0 0 1 0 0 0 1 70.434278389843442 44.570042686301704 9.7105482570118689 1 rotate no_reflect no_shear #
lump $-1 $-1 $59 $5 #
transform $-1 1 0 0 0 1 0 0 0 1 70.434278389843442 44.570042686301704 9.7105482570118689 1 rotate no_reflect no_shear #
lump $-1 $-1 $60 $6 #
transform $-1 1 0 0 0 1 0 0 0 1 70.434278389843442 44.570042686301704 9.7105482570118689 1 rotate no_reflect no_shear #
lump $-1 $-1 $61 $7 #
transform $-1 1 0 0 0 1 0 0 0 1 70.434278389843442 44.570042686301704 9.7105482570118689 1 rotate no_reflect no_shear #
lump $-1 $-1 $62 $8 #
transform $-1 1 0 0 0 1 0 0 0 1 70.434278389843442 44.570042686301704 9.7105482570118689 1 rotate no_reflect no_shear #
lump $-1 $-1 $63 $9 #
transform $-1 1 0 0 0 1 0 0 0 1 70.434278389843442 44.570042686301704 9.7105482570118689 1 rotate no_reflect no_shear #
lump $-1 $-1 $64 $10 #
transform $-1 1 0 0 0 1 0 0 0 1 70.434278389843442 44.570042686301704 9.7105482570118689 1 rotate no_reflect no_shear #
lump $-1 $-1 $65 $11 #
transform $-1 1 0 0 0 1 0 0 0 1 70.434278389843442 44.570042686301704 9.7105482570118689 1 rotate no_reflect no_shear #
lump $-1 $-1 $66 $12 #
transform $-1 1 0 0 0 1 0 0 0 1 70.434278389843442 44.570042686301704 9.7105482570118689 1 rotate no_reflect no_shear #
lump $-1 $-1 $67 $13 #
transform $-1 1 0 0 0 1 0 0 0 1 70.434278389843442 44.570042686301704 9.7105482570118689 1 rotate no_reflect no_shear #
lump $-1 $-1 $68 $14 #
transform $-1 1 0 0 0 1 0 0 0 1 70.434278389843442 44.570042686301704 9.7105482570118689 1 rotate no_reflect no_shear #
lump $-1 $-1 $69 $15 #
transform $-1 1 0 0 0 1 0 0 0 1 70.434278389843442 44.570042686301704 9.7105482570118689 1 rotate no_reflect no_shear #
lump $-1 $-1 $70 $16 #
transform $-1 1 0 0 0 1 0 0 0 1 70.434278389843442 44.570042686301704 9.7105482570118689 1 rotate no_reflect no_shear #
lump $-1 $-1 $71 $17 #
transform $-1 1 0 0 0 1 0 0 0 1 70.434278389843442 44.570042686301704 9.7105482570118689 1 rotate no_reflect no_shear #
shell $-1 $-1 $-1 $72 $-1 $18 #
shell $-1 $-1 $-1 $73 $-1 $20 #
shell $-1 $-1 $-1 $74 $-1 $22 #
shell $-1 $-1 $-1 $75 $-1 $24 #
shell $-1 $-1 $-1 $76 $-1 $26 #
shell $-1 $-1 $-1 $77 $-1 $28 #
shell $-1 $-1 $-1 $78 $-1 $30 #
shell $-1 $-1 $-1 $79 $-1 $32 #
shell $-1 $-1 $-1 $80 $-1 $34 #
shell $-1 $-1 $-1 $81 $-1 $36 #
shell $-1 $-1 $-1 $82 $-1 $38 #
shell $-1 $-1 $-1 $83 $-1 $40 #
shell $-1 $-1 $-1 $84 $-1 $42 #
shell $-1 $-1 $-1 $85 $-1 $44 #
shell $-1 $-1 $-1 $86 $-1 $46 #
shell $-1 $-1 $-1 $87 $-1 $48 #
shell $-1 $-1 $-1 $88 $-1 $50 #
shell $-1 $-1 $-1 $89 $-1 $52 #
face $-1 $90 $91 $54 $-1 $92 forward single #
face $-1 $93 $94 $55 $-1 $95 forward single #
face $-1 $96 $97 $56 $-1 $98 reversed single #
face $-1 $99 $100 $57 $-1 $101 forward single #
face $-1 $102 $103 $58 $-1 $104 forward single #
face $-1 $105 $106 $59 $-1 $107 forward single #
face $-1 $108 $109 $60 $-1 $110 reversed single #
face $-1 $111 $112 $61 $-1 $113 forward single #
face $-1 $114 $115 $62 $-1 $116 forward single #
face $-1 $117 $118 $63 $-1 $119 forward single #
face $-1 $120 $121 $64 $-1 $122 reversed single #
face $-1 $123 $124 $65 $-1 $125 forward single #
face $-1 $126 $127 $66 $-1 $128 forward single #
face $-1 $129 $130 $67 $-1 $131 forward single #
face $-1 $132 $133 $68 $-1 $134 reversed single #
face $-1 $135 $136 $69 $-1 $137 forward single #
face $-1 $138 $139 $70 $-1 $140 forward single #
face $-1 $141 $142 $71 $-1 $143 forward single #
face $-1 $144 $145 $54 $-1 $146 reversed single #
loop $-1 $-1 $147 $72 #
plane-surface $-1 0 0 9.7105482570118689 0 0 1 1 0 0 forward_v I I I I #
face $-1 $148 $149 $55 $-1 $150 reversed single #
loop $-1 $-1 $151 $73 #
plane-surface $-1 -70.434278389843442 0 0 1 0 0 0 0 -1 forward_v I I I I #
face $-1 $152 $153 $56 $-1 $154 reversed single #
loop $-1 $-1 $155 $74 #
plane-surface $-1 56.537519713082148 -26.899603233782937 202.15507807670363 0 -1 0 -0.6560590369687036 0 -0.75470957328743171 forward_v I I I I #
face $-1 $156 $157 $57 $-1 $158 forward single #
loop $-1 $159 $160 $75 #
cone-surface $-1 66.323374047687679 -35.726231799054148 5.9981641574586453 -0.6560590369687036 0 -0.75470957328743171 0.37735478664371586 0 -0.3280295184843518 1 I I 0 1 0.5 forward I I I I #
face $-1 $161 $162 $58 $-1 $163 forward single #
loop $-1 $164 $165 $76 #
cone-surface $-1 66.323374047687679 -32.41624608707744 5.9981641574586453 -0.6560590369687036 0 -0.75470957328743171 0.37735478664371586 0 -0.3280295184843518 1 I I 0 1 0.5 forward I I I I #
face $-1 $166 $167 $59 $-1 $168 forward single #
loop $-1 $169 $170 $77 #
cone-surface $-1 66.323374047687679 -29.106260375100742 5.9981641574586453 -0.6560590369687036 0 -0.75470957328743171 0.37735478664371586 0 -0.3280295184843518 1 I I 0 1 0.5 forward I I I I #
face $-1 $171 $172 $60 $-1 $173 reversed single #
loop $-1 $-1 $174 $78 #
plane-surface $-1 56.537519713082148 -4.6145818906320919 202.15507807670363 0 -1 0 -0.6560590369687036 0 -0.75470957328743171 forward_v I I I I #
face $-1 $175 $176 $61 $-1 $177 forward single #
loop $-1 $178 $179 $79 #
cone-surface $-1 66.323374047687679 -13.441210455903292 5.9981641574586453 -0.6560590369687036 0 -0.75470957328743171 0.37735478664371586 0 -0.3280295184843518 1 I I 0 1 0.5 forward I I I I #
face $-1 $180 $181 $62 $-1 $182 forward single #
loop $-1 $183 $184 $80 #
cone-surface $-1 66.323374047687679 -10.131224743926595 5.9981641574586453 -0.6560590369687036 0 -0.75470957328743171 0.37735478664371586 0 -0.3280295184843518 1 I I 0 1 0.5 forward I I I I #
face $-1 $185 $186 $63 $-1 $187 forward single #
loop $-1 $188 $189 $81 #
cone-surface $-1 66.323374047687679 -6.8212390319498866 5.9981641574586453 -0.6560590369687036 0 -0.75470957328743171 0.37735478664371586 0 -0.3280295184843518 1 I I 0 1 0.5 forward I I I I #
face $-1 $190 $191 $64 $-1 $192 reversed single #
loop $-1 $-1 $193 $82 #
plane-surface $-1 56.537519713082148 17.67043945251876 202.15507807670363 0 -1 0 -0.6560590369687036 0 -0.75470957328743171 forward_v I I I I #
face $-1 $194 $195 $65 $-1 $196 forward single #
loop $-1 $197 $198 $83 #
cone-surface $-1 66.323374047687679 8.8438108872475567 5.9981641574586453 -0.6560590369687036 0 -0.75470957328743171 0.37735478664371586 0 -0.3280295184843518 1 I I 0 1 0.5 forward I I I I #
face $-1 $199 $200 $66 $-1 $201 forward single #
loop $-1 $202 $203 $84 #
cone-surface $-1 66.323374047687679 12.153796599224258 5.9981641574586453 -0.6560590369687036 0 -0.75470957328743171 0.37735478664371586 0 -0.3280295184843518 1 I I 0 1 0.5 forward I I I I #
face $-1 $204 $205 $67 $-1 $206 forward single #
loop $-1 $207 $208 $85 #
cone-surface $-1 66.323374047687679 15.463782311200966 5.9981641574586453 -0.6560590369687036 0 -0.75470957328743171 0.37735478664371586 0 -0.3280295184843518 1 I I 0 1 0.5 forward I I I I #
face $-1 $209 $210 $68 $-1 $211 reversed single #
loop $-1 $-1 $212 $86 #
plane-surface $-1 56.537519713082148 39.955460795669609 202.15507807670363 0 -1 0 -0.6560590369687036 0 -0.75470957328743171 forward_v I I I I #
face $-1 $213 $214 $69 $-1 $215 forward single #
loop $-1 $216 $217 $87 #
cone-surface $-1 66.323374047687679 31.128832230398402 5.9981641574586453 -0.6560590369687036 0 -0.75470957328743171 0.37735478664371586 0 -0.3280295184843518 1 I I 0 1 0.5 forward I I I I #
face $-1 $218 $219 $70 $-1 $220 forward single #
loop $-1 $221 $222 $88 #
cone-surface $-1 66.323374047687679 34.43881794237511 5.9981641574586453 -0.6560590369687036 0 -0.75470957328743171 0.37735478664371586 0 -0.3280295184843518 1 I I 0 1 0.5 forward I I I I #
face $-1 $223 $224 $71 $-1 $225 forward single #
loop $-1 $226 $227 $89 #
cone-surface $-1 66.323374047687679 37.748803654351818 5.9981641574586453 -0.6560590369687036 0 -0.75470957328743171 0.37735478664371586 0 -0.3280295184843518 1 I I 0 1 0.5 forward I I I I #
face $-1 $228 $229 $54 $-1 $230 reversed single #
loop $-1 $-1 $231 $90 #
plane-surface $-1 0 0 -9.7105482570118689 0 0 1 1 0 0 forward_v I I I I #
coedge $-1 $232 $233 $234 $235 forward $91 $-1 #
face $-1 $236 $237 $55 $-1 $238 reversed single #
loop $-1 $-1 $239 $93 #
plane-surface $-1 0 44.570042686301704 0 0 -1 0 0 0 -1 forward_v I I I I #
coedge $-1 $240 $241 $242 $243 forward $94 $-1 #
face $-1 $244 $245 $56 $-1 $246 reversed single #
loop $-1 $-1 $247 $96 #
plane-surface $-1 -35.880569986970372 -32.41624608707744 95.840229699889804 0.6560590369687036 0 0.75470957328743171 0.75470957328743171 0 -0.6560590369687036 forward_v I I I I #
coedge $-1 $248 $249 $250 $251 reversed $97 $-1 #
face $-1 $-1 $252 $57 $-1 $253 forward single #
loop $-1 $254 $255 $99 #
cone-surface $-1 65.665447964446898 -35.726231799054148 5.2413067931708461 -0.6560590369687036 0 -0.75470957328743171 0.18867739332185793 0 -0.1640147592421759 1 I I -0.70710678118654746 0.70710678118654746 0.25 forward I I I I #
loop $-1 $-1 $256 $75 #
coedge $-1 $160 $160 $257 $258 reversed $100 $-1 #
face $-1 $-1 $259 $58 $-1 $260 forward single #
loop $-1 $261 $262 $102 #
cone-surface $-1 65.665447964446898 -32.41624608707744 5.2413067931708461 -0.6560590369687036 0 -0.75470957328743171 0.18867739332185793 0 -0.1640147592421759 1 I I -0.70710678118654746 0.70710678118654746 0.25 forward I I I I #
loop $-1 $-1 $263 $76 #
coedge $-1 $165 $165 $264 $265 reversed $103 $-1 #
face $-1 $-1 $266 $59 $-1 $267 forward single #
loop $-1 $268 $269 $105 #
cone-surface $-1 65.665447964446898 -29.106260375100742 5.2413067931708461 -0.6560590369687036 0 -0.75470957328743171 0.18867739332185793 0 -0.1640147592421759 1 I I -0.70710678118654746 0.70710678118654746 0.25 forward I I I I #
loop $-1 $-1 $270 $77 #
coedge $-1 $170 $170 $271 $272 reversed $106 $-1 #
face $-1 $273 $274 $60 $-1 $275 reversed single #
loop $-1 $-1 $276 $108 #
plane-surface $-1 -35.880569986970372 -10.131224743926595 95.840229699889804 0.6560590369687036 0 0.75470957328743171 0.75470957328743171 0 -0.6560590369687036 forward_v I I I I #
coedge $-1 $277 $278 $279 $280 reversed $109 $-1 #
face $-1 $-1 $281 $61 $-1 $282 forward single #
loop $-1 $283 $284 $111 #
cone-surface $-1 65.665447964446898 -13.441210455903292 5.2413067931708461 -0.6560590369687036 0 -0.75470957328743171 0.18867739332185793 0 -0.1640147592421759 1 I I -0.70710678118654746 0.70710678118654746 0.25 forward I I I I #
loop $-1 $-1 $285 $79 #
coedge $-1 $179 $179 $286 $287 reversed $112 $-1 #
face $-1 $-1 $288 $62 $-1 $289 forward single #
loop $-1 $290 $291 $114 #
cone-surface $-1 65.665447964446898 -10.131224743926595 5.2413067931708461 -0.6560590369687036 0 -0.75470957328743171 0.18867739332185793 0 -0.1640147592421759 1 I I -0.70710678118654746 0.70710678118654746 0.25 forward I I I I #
loop $-1 $-1 $292 $80 #
coedge $-1 $184 $184 $293 $294 reversed $115 $-1 #
face $-1 $-1 $295 $63 $-1 $296 forward single #
loop $-1 $297 $298 $117 #
cone-surface $-1 65.665447964446898 -6.8212390319498866 5.2413067931708461 -0.6560590369687036 0 -0.75470957328743171 0.18867739332185793 0 -0.1640147592421759 1 I I -0.70710678118654746 0.70710678118654746 0.25 forward I I I I #
loop $-1 $-1 $299 $81 #
coedge $-1 $189 $189 $300 $301 reversed $118 $-1 #
face $-1 $302 $303 $64 $-1 $304 reversed single #
loop $-1 $-1 $305 $120 #
plane-surface $-1 -35.880569986970372 12.153796599224258 95.840229699889804 0.6560590369687036 0 0.75470957328743171 0.75470957328743171 0 -0.6560590369687036 forward_v I I I I #
coedge $-1 $306 $307 $308 $309 reversed $121 $-1 #
face $-1 $-1 $310 $65 $-1 $311 forward single #
loop $-1 $312 $313 $123 #
cone-surface $-1 65.665447964446898 8.8438108872475567 5.2413067931708461 -0.6560590369687036 0 -0.75470957328743171 0.18867739332185793 0 -0.1640147592421759 1 I I -0.70710678118654746 0.70710678118654746 0.25 forward I I I I #
loop $-1 $-1 $314 $83 #
coedge $-1 $198 $198 $315 $316 reversed $124 $-1 #
face $-1 $-1 $317 $66 $-1 $318 forward single #
loop $-1 $319 $320 $126 #
cone-surface $-1 65.665447964446898 12.153796599224258 5.2413067931708461 -0.6560590369687036 0 -0.75470957328743171 0.18867739332185793 0 -0.1640147592421759 1 I I -0.70710678118654746 0.70710678118654746 0.25 forward I I I I #
loop $-1 $-1 $321 $84 #
coedge $-1 $203 $203 $322 $323 reversed $127 $-1 #
face $-1 $-1 $324 $67 $-1 $325 forward single #
loop $-1 $326 $327 $129 #
cone-surface $-1 65.665447964446898 15.463782311200966 5.2413067931708461 -0.6560590369687036 0 -0.75470957328743171 0.18867739332185793 0 -0.1640147592421759 1 I I -0.70710678118654746 0.70710678118654746 0.25 forward I I I I #
loop $-1 $-1 $328 $85 #
coedge $-1 $208 $208 $329 $330 reversed $130 $-1 #
face $-1 $331 $332 $68 $-1 $333 reversed single #
loop $-1 $-1 $334 $132 #
plane-surface $-1 -35.880569986970372 34.43881794237511 95.840229699889804 0.6560590369687036 0 0.75470957328743171 0.75470957328743171 0 -0.6560590369687036 forward_v I I I I #
coedge $-1 $335 $336 $337 $338 reversed $133 $-1 #
face $-1 $-1 $339 $69 $-1 $340 forward single #
loop $-1 $341 $342 $135 #
cone-surface $-1 65.665447964446898 31.128832230398402 5.2413067931708461 -0.6560590369687036 0 -0.75470957328743171 0.18867739332185793 0 -0.1640147592421759 1 I I -0.70710678118654746 0.70710678118654746 0.25 forward I I I I #
loop $-1 $-1 $343 $87 #
coedge $-1 $217 $217 $344 $345 reversed $136 $-1 #
face $-1 $-1 $346 $70 $-1 $347 forward single #
loop $-1 $348 $349 $138 #
cone-surface $-1 65.665447964446898 34.43881794237511 5.2413067931708461 -0.6560590369687036 0 -0.75470957328743171 0.18867739332185793 0 -0.1640147592421759 1 I I -0.70710678118654746 0.70710678118654746 0.25 forward I I I I #
loop $-1 $-1 $350 $88 #
coedge $-1 $222 $222 $351 $352 reversed $139 $-1 #
face $-1 $-1 $353 $71 $-1 $354 forward single #
loop $-1 $355 $356 $141 #
cone-surface $-1 65.665447964446898 37.748803654351818 5.2413067931708461 -0.6560590369687036 0 -0.75470957328743171 0.18867739332185793 0 -0.1640147592421759 1 I I -0.70710678118654746 0.70710678118654746 0.25 forward I I I I #
loop $-1 $-1 $357 $89 #
coedge $-1 $227 $227 $358 $359 reversed $142 $-1 #
face $-1 $360 $361 $54 $-1 $362 reversed single #
loop $-1 $-1 $363 $144 #
plane-surface $-1 0 -44.570042686301704 0 0 1 0 0 0 1 forward_v I I I I #
coedge $-1 $364 $365 $366 $367 forward $145 $-1 #
coedge $-1 $368 $147 $369 $370 forward $91 $-1 #
coedge $-1 $147 $368 $371 $372 forward $91 $-1 #
coedge $-1 $373 $374 $147 $235 reversed $375 $-1 #
edge $-1 $376 -44.570042686301704 $377 44.570042686301704 $234 $378 forward 7 unknown #
face $-1 $379 $380 $55 $-1 $381 reversed single #
loop $-1 $-1 $242 $148 #
plane-surface $-1 -74.389147880473487 0 6.7105482570118689 0 0 1 1 0 0 forward_v I I I I #
coedge $-1 $382 $383 $240 $384 forward $149 $-1 #
coedge $-1 $385 $151 $239 $384 reversed $94 $-1 #
coedge $-1 $151 $385 $386 $387 reversed $94 $-1 #
coedge $-1 $388 $389 $151 $243 reversed $237 $-1 #
edge $-1 $390 -44.570042686301704 $391 44.570042686301704 $242 $392 forward 7 unknown #
face $-1 $393 $394 $56 $-1 $395 forward single #
loop $-1 $-1 $396 $152 #
plane-surface $-1 56.537519713082148 -37.932888940371939 202.15507807670363 0 1 0 0.6560590369687036 0 0.75470957328743171 forward_v I I I I #
coedge $-1 $397 $398 $399 $400 reversed $153 $-1 #
coedge $-1 $249 $155 $401 $402 reversed $97 $-1 #
coedge $-1 $155 $248 $397 $403 reversed $97 $-1 #
coedge $-1 $399 $404 $155 $251 forward $394 $-1 #
edge $-1 $405 -42.165518533302368 $406 -34.931532496988119 $250 $407 forward 7 unknown #
loop $-1 $-1 $257 $156 #
plane-surface $-1 -35.880569986970372 -32.41624608707744 95.840229699889804 0.6560590369687036 0 0.75470957328743171 0.75470957328743171 0 -0.6560590369687036 forward_v I I I I #
loop $-1 $-1 $408 $99 #
coedge $-1 $255 $255 $256 $409 reversed $157 $-1 #
coedge $-1 $256 $256 $255 $409 forward $159 $-1 #
coedge $-1 $257 $257 $160 $258 forward $252 $-1 #
edge $-1 $410 0 $410 6.2831853071796004 $257 $411 forward 7 unknown #
loop $-1 $-1 $264 $161 #
plane-surface $-1 -35.880569986970372 -32.41624608707744 95.840229699889804 0.6560590369687036 0 0.75470957328743171 0.75470957328743171 0 -0.6560590369687036 forward_v I I I I #
loop $-1 $-1 $412 $102 #
coedge $-1 $262 $262 $263 $413 reversed $162 $-1 #
coedge $-1 $263 $263 $262 $413 forward $164 $-1 #
coedge $-1 $264 $264 $165 $265 forward $259 $-1 #
edge $-1 $414 0 $414 6.2831853071796004 $264 $415 forward 7 unknown #
loop $-1 $-1 $271 $166 #
plane-surface $-1 -35.880569986970372 -32.41624608707744 95.840229699889804 0.6560590369687036 0 0.75470957328743171 0.75470957328743171 0 -0.6560590369687036 forward_v I I I I #
loop $-1 $-1 $416 $105 #
coedge $-1 $269 $269 $270 $417 reversed $167 $-1 #
coedge $-1 $270 $270 $269 $417 forward $169 $-1 #
coedge $-1 $271 $271 $170 $272 forward $266 $-1 #
edge $-1 $418 0 $418 6.2831853071796004 $271 $419 forward 7 unknown #
face $-1 $420 $421 $60 $-1 $422 reversed single #
loop $-1 $-1 $423 $171 #
plane-surface $-1 56.537519713082148 -15.647867597221097 202.15507807670363 0 1 0 0.6560590369687036 0 0.75470957328743171 forward_v I I I I #
coedge $-1 $424 $425 $426 $427 reversed $172 $-1 #
coedge $-1 $278 $174 $428 $429 reversed $109 $-1 #
coedge $-1 $174 $277 $424 $430 reversed $109 $-1 #
coedge $-1 $426 $431 $174 $280 forward $432 $-1 #
edge $-1 $433 -42.165518533302368 $434 -34.931532496988119 $279 $435 forward 7 unknown #
loop $-1 $-1 $286 $175 #
plane-surface $-1 -35.880569986970372 -10.131224743926595 95.840229699889804 0.6560590369687036 0 0.75470957328743171 0.75470957328743171 0 -0.6560590369687036 forward_v I I I I #
loop $-1 $-1 $436 $111 #
coedge $-1 $284 $284 $285 $437 reversed $176 $-1 #
coedge $-1 $285 $285 $284 $437 forward $178 $-1 #
coedge $-1 $286 $286 $179 $287 forward $281 $-1 #
edge $-1 $438 0 $438 6.2831853071796004 $286 $439 forward 7 unknown #
loop $-1 $-1 $293 $180 #
plane-surface $-1 -35.880569986970372 -10.131224743926595 95.840229699889804 0.6560590369687036 0 0.75470957328743171 0.75470957328743171 0 -0.6560590369687036 forward_v I I I I #
loop $-1 $-1 $440 $114 #
coedge $-1 $291 $291 $292 $441 reversed $181 $-1 #
coedge $-1 $292 $292 $291 $441 forward $183 $-1 #
coedge $-1 $293 $293 $184 $294 forward $288 $-1 #
edge $-1 $442 0 $442 6.2831853071796004 $293 $443 forward 7 unknown #
loop $-1 $-1 $300 $185 #
plane-surface $-1 -35.880569986970372 -10.131224743926595 95.840229699889804 0.6560590369687036 0 0.75470957328743171 0.75470957328743171 0 -0.6560590369687036 forward_v I I I I #
loop $-1 $-1 $444 $117 #
coedge $-1 $298 $298 $299 $445 reversed $186 $-1 #
coedge $-1 $299 $299 $298 $445 forward $188 $-1 #
coedge $-1 $300 $300 $189 $301 forward $295 $-1 #
edge $-1 $446 0 $446 6.2831853071796004 $300 $447 forward 7 unknown #
face $-1 $448 $449 $64 $-1 $450 reversed single #
loop $-1 $-1 $451 $190 #
plane-surface $-1 56.537519713082148 6.6371537459297549 202.15507807670363 0 1 0 0.6560590369687036 0 0.75470957328743171 forward_v I I I I #
coedge $-1 $452 $453 $454 $455 reversed $191 $-1 #
coedge $-1 $307 $193 $456 $457 reversed $121 $-1 #
coedge $-1 $193 $306 $452 $458 reversed $121 $-1 #
coedge $-1 $454 $459 $193 $309 forward $460 $-1 #
edge $-1 $461 -42.165518533302368 $462 -34.931532496988119 $308 $463 forward 7 unknown #
loop $-1 $-1 $315 $194 #
plane-surface $-1 -35.880569986970372 12.153796599224258 95.840229699889804 0.6560590369687036 0 0.75470957328743171 0.75470957328743171 0 -0.6560590369687036 forward_v I I I I #
loop $-1 $-1 $464 $123 #
coedge $-1 $313 $313 $314 $465 reversed $195 $-1 #
coedge $-1 $314 $314 $313 $465 forward $197 $-1 #
coedge $-1 $315 $315 $198 $316 forward $310 $-1 #
edge $-1 $466 0 $466 6.2831853071796004 $315 $467 forward 7 unknown #
loop $-1 $-1 $322 $199 #
plane-surface $-1 -35.880569986970372 12.153796599224258 95.840229699889804 0.6560590369687036 0 0.75470957328743171 0.75470957328743171 0 -0.6560590369687036 forward_v I I I I #
loop $-1 $-1 $468 $126 #
coedge $-1 $320 $320 $321 $469 reversed $200 $-1 #
coedge $-1 $321 $321 $320 $469 forward $202 $-1 #
coedge $-1 $322 $322 $203 $323 forward $317 $-1 #
edge $-1 $470 0 $470 6.2831853071796004 $322 $471 forward 7 unknown #
loop $-1 $-1 $329 $204 #
plane-surface $-1 -35.880569986970372 12.153796599224258 95.840229699889804 0.6560590369687036 0 0.75470957328743171 0.75470957328743171 0 -0.6560590369687036 forward_v I I I I #
loop $-1 $-1 $472 $129 #
coedge $-1 $327 $327 $328 $473 reversed $205 $-1 #
coedge $-1 $328 $328 $327 $473 forward $207 $-1 #
coedge $-1 $329 $329 $208 $330 forward $324 $-1 #
edge $-1 $474 0 $474 6.2831853071796004 $329 $475 forward 7 unknown #
face $-1 $476 $477 $68 $-1 $478 reversed single #
loop $-1 $-1 $479 $209 #
plane-surface $-1 56.537519713082148 28.922175089080607 202.15507807670363 0 1 0 0.6560590369687036 0 0.75470957328743171 forward_v I I I I #
coedge $-1 $480 $481 $482 $483 reversed $210 $-1 #
coedge $-1 $336 $212 $484 $485 reversed $133 $-1 #
coedge $-1 $212 $335 $480 $486 reversed $133 $-1 #
coedge $-1 $482 $487 $212 $338 forward $488 $-1 #
edge $-1 $489 -42.165518533302368 $490 -34.931532496988119 $337 $491 forward 7 unknown #
loop $-1 $-1 $344 $213 #
plane-surface $-1 -35.880569986970372 34.43881794237511 95.840229699889804 0.6560590369687036 0 0.75470957328743171 0.75470957328743171 0 -0.6560590369687036 forward_v I I I I #
loop $-1 $-1 $492 $135 #
coedge $-1 $342 $342 $343 $493 reversed $214 $-1 #
coedge $-1 $343 $343 $342 $493 forward $216 $-1 #
coedge $-1 $344 $344 $217 $345 forward $339 $-1 #
edge $-1 $494 0 $494 6.2831853071796004 $344 $495 forward 7 unknown #
loop $-1 $-1 $351 $218 #
plane-surface $-1 -35.880569986970372 34.43881794237511 95.840229699889804 0.6560590369687036 0 0.75470957328743171 0.75470957328743171 0 -0.6560590369687036 forward_v I I I I #
loop $-1 $-1 $496 $138 #
coedge $-1 $349 $349 $350 $497 reversed $219 $-1 #
coedge $-1 $350 $350 $349 $497 forward $221 $-1 #
coedge $-1 $351 $351 $222 $352 forward $346 $-1 #
edge $-1 $498 0 $498 6.2831853071796004 $351 $499 forward 7 unknown #
loop $-1 $-1 $358 $223 #
plane-surface $-1 -35.880569986970372 34.43881794237511 95.840229699889804 0.6560590369687036 0 0.75470957328743171 0.75470957328743171 0 -0.6560590369687036 forward_v I I I I #
loop $-1 $-1 $500 $141 #
coedge $-1 $356 $356 $357 $501 reversed $224 $-1 #
coedge $-1 $357 $357 $356 $501 forward $226 $-1 #
coedge $-1 $358 $358 $227 $359 forward $353 $-1 #
edge $-1 $502 0 $502 6.2831853071796004 $358 $503 forward 7 unknown #
face $-1 $504 $505 $54 $-1 $506 reversed single #
loop $-1 $-1 $507 $228 #
plane-surface $-1 -70.434278389843442 0 0 1 0 0 0 0 -1 forward_v I I I I #
coedge $-1 $508 $371 $509 $510 forward $229 $-1 #
coedge $-1 $511 $231 $508 $512 forward $145 $-1 #
coedge $-1 $231 $511 $513 $514 forward $145 $-1 #
coedge $-1 $374 $373 $231 $367 reversed $375 $-1 #
edge $-1 $515 -44.570042686301704 $516 44.570042686301704 $366 $517 forward 7 unknown #
coedge $-1 $233 $232 $518 $519 forward $91 $-1 #
coedge $-1 $520 $521 $232 $370 reversed $505 $-1 #
edge $-1 $377 -70.434278389843442 $522 70.434278389843442 $369 $523 forward 7 unknown #
coedge $-1 $363 $524 $233 $372 reversed $229 $-1 #
edge $-1 $525 -70.434278389843442 $376 70.434278389843442 $371 $526 forward 7 unknown #
coedge $-1 $366 $234 $524 $527 forward $375 $-1 #
coedge $-1 $234 $366 $520 $528 reversed $375 $-1 #
loop $-1 $-1 $373 $504 #
vertex $-1 $235 $529 #
vertex $-1 $235 $530 #
straight-curve $-1 70.434278389843442 0 9.7105482570118689 0 1 0 I I #
face $-1 $531 $532 $55 $-1 $533 forward single #
loop $-1 $-1 $534 $236 #
plane-surface $-1 -78.344017371103533 0 8.2105482570118689 1 0 0 0 0 -1 forward_v I I I I #
coedge $-1 $535 $239 $389 $536 reversed $149 $-1 #
coedge $-1 $239 $535 $537 $538 reversed $149 $-1 #
edge $-1 $539 -9.7105482570118689 $391 -6.7105482570118689 $239 $540 forward 7 unknown #
coedge $-1 $241 $240 $541 $542 reversed $94 $-1 #
coedge $-1 $543 $544 $241 $387 forward $545 $-1 #
edge $-1 $390 6.7105482570118689 $546 9.7105482570118689 $386 $547 forward 7 unknown #
coedge $-1 $548 $242 $544 $549 forward $237 $-1 #
coedge $-1 $242 $548 $382 $536 forward $237 $-1 #
vertex $-1 $387 $550 #
vertex $-1 $384 $551 #
straight-curve $-1 -70.434278389843442 0 6.7105482570118689 0 1 0 I I #
face $-1 $-1 $552 $56 $-1 $553 reversed single #
loop $-1 $-1 $250 $244 #
plane-surface $-1 0 0 9.7105482570118689 0 0 1 1 0 0 forward_v I I I I #
coedge $-1 $554 $555 $556 $557 reversed $245 $-1 #
coedge $-1 $558 $247 $249 $403 forward $153 $-1 #
coedge $-1 $247 $558 $554 $559 forward $153 $-1 #
coedge $-1 $556 $250 $247 $400 forward $394 $-1 #
edge $-1 $406 10.691480190244217 $560 21.724765896833219 $399 $561 forward 7 unknown #
coedge $-1 $562 $563 $248 $402 forward $552 $-1 #
edge $-1 $564 -97.655399038514517 $405 -91.36699078133995 $401 $565 forward 7 unknown #
edge $-1 $406 131.2834311997849 $564 140.86855677968686 $249 $566 forward 7 unknown #
coedge $-1 $250 $556 $562 $567 forward $394 $-1 #
vertex $-1 $402 $568 #
vertex $-1 $251 $569 #
straight-curve $-1 28.268759856541074 -26.899603233782937 9.7105482570118653 -1 0 0 I I #
coedge $-1 $408 $408 $-1 $570 reversed $254 $-1 #
edge $-1 $571 0 $571 6.2831853071796004 $255 $572 forward 7 unknown #
vertex $-1 $258 $573 #
ellipse-curve $-1 66.817285371686296 -35.726231799054148 6.5663441284245927 0.6560590369687036 0 0.75470957328743171 0.37735478664371586 0 -0.3280295184843518 1 I I #
coedge $-1 $412 $412 $-1 $574 reversed $261 $-1 #
edge $-1 $575 0 $575 6.2831853071796004 $262 $576 forward 7 unknown #
vertex $-1 $265 $577 #
ellipse-curve $-1 66.817285371686296 -32.41624608707744 6.5663441284245927 0.6560590369687036 0 0.75470957328743171 0.37735478664371586 0 -0.3280295184843518 1 I I #
coedge $-1 $416 $416 $-1 $578 reversed $268 $-1 #
edge $-1 $579 0 $579 6.2831853071796004 $269 $580 forward 7 unknown #
vertex $-1 $272 $581 #
ellipse-curve $-1 66.817285371686296 -29.106260375100742 6.5663441284245927 0.6560590369687036 0 0.75470957328743171 0.37735478664371586 0 -0.3280295184843518 1 I I #
face $-1 $-1 $432 $60 $-1 $582 forward single #
loop $-1 $-1 $583 $273 #
plane-surface $-1 70.434278389843442 0 0 -1 0 0 0 0 1 forward_v I I I I #
coedge $-1 $584 $585 $586 $587 reversed $274 $-1 #
coedge $-1 $588 $276 $278 $430 forward $172 $-1 #
coedge $-1 $276 $588 $584 $589 forward $172 $-1 #
coedge $-1 $586 $279 $276 $427 forward $432 $-1 #
edge $-1 $434 -0.45103048133120538 $590 10.5822552252578 $426 $591 forward 7 unknown #
coedge $-1 $592 $593 $277 $429 forward $421 $-1 #
edge $-1 $594 -97.655399038514517 $433 -91.36699078133995 $428 $595 forward 7 unknown #
edge $-1 $434 131.2834311997849 $594 140.86855677968686 $278 $596 forward 7 unknown #
coedge $-1 $279 $586 $592 $597 forward $432 $-1 #
loop $-1 $-1 $586 $420 #
vertex $-1 $429 $598 #
vertex $-1 $280 $599 #
straight-curve $-1 28.268759856541074 -4.6145818906320919 9.7105482570118653 -1 0 0 I I #
coedge $-1 $436 $436 $-1 $600 reversed $283 $-1 #
edge $-1 $601 0 $601 6.2831853071796004 $284 $602 forward 7 unknown #
vertex $-1 $287 $603 #
ellipse-curve $-1 66.817285371686296 -13.441210455903292 6.5663441284245927 0.6560590369687036 0 0.75470957328743171 0.37735478664371586 0 -0.3280295184843518 1 I I #
coedge $-1 $440 $440 $-1 $604 reversed $290 $-1 #
edge $-1 $605 0 $605 6.2831853071796004 $291 $606 forward 7 unknown #
vertex $-1 $294 $607 #
ellipse-curve $-1 66.817285371686296 -10.131224743926595 6.5663441284245927 0.6560590369687036 0 0.75470957328743171 0.37735478664371586 0 -0.3280295184843518 1 I I #
coedge $-1 $444 $444 $-1 $608 reversed $297 $-1 #
edge $-1 $609 0 $609 6.2831853071796004 $298 $610 forward 7 unknown #
vertex $-1 $301 $611 #
ellipse-curve $-1 66.817285371686296 -6.8212390319498866 6.5663441284245927 0.6560590369687036 0 0.75470957328743171 0.37735478664371586 0 -0.3280295184843518 1 I I #
face $-1 $-1 $460 $64 $-1 $612 forward single #
loop $-1 $-1 $613 $302 #
plane-surface $-1 70.434278389843442 0 0 -1 0 0 0 0 1 forward_v I I I I #
coedge $-1 $614 $615 $616 $617 reversed $303 $-1 #
coedge $-1 $618 $305 $307 $458 forward $191 $-1 #
coedge $-1 $305 $618 $614 $619 forward $191 $-1 #
coedge $-1 $616 $308 $305 $455 forward $460 $-1 #
edge $-1 $462 -11.593541152906631 $620 -0.56025544631762614 $454 $621 forward 7 unknown #
coedge $-1 $622 $623 $306 $457 forward $449 $-1 #
edge $-1 $624 -97.655399038514517 $461 -91.36699078133995 $456 $625 forward 7 unknown #
edge $-1 $462 131.2834311997849 $624 140.86855677968686 $307 $626 forward 7 unknown #
coedge $-1 $308 $616 $622 $627 forward $460 $-1 #
loop $-1 $-1 $616 $448 #
vertex $-1 $457 $628 #
vertex $-1 $309 $629 #
straight-curve $-1 28.268759856541074 17.67043945251876 9.7105482570118653 -1 0 0 I I #
coedge $-1 $464 $464 $-1 $630 reversed $312 $-1 #
edge $-1 $631 0 $631 6.2831853071796004 $313 $632 forward 7 unknown #
vertex $-1 $316 $633 #
ellipse-curve $-1 66.817285371686296 8.8438108872475567 6.5663441284245927 0.6560590369687036 0 0.75470957328743171 0.37735478664371586 0 -0.3280295184843518 1 I I #
coedge $-1 $468 $468 $-1 $634 reversed $319 $-1 #
edge $-1 $635 0 $635 6.2831853071796004 $320 $636 forward 7 unknown #
vertex $-1 $323 $637 #
ellipse-curve $-1 66.817285371686296 12.153796599224258 6.5663441284245927 0.6560590369687036 0 0.75470957328743171 0.37735478664371586 0 -0.3280295184843518 1 I I #
coedge $-1 $472 $472 $-1 $638 reversed $326 $-1 #
edge $-1 $639 0 $639 6.2831853071796004 $327 $640 forward 7 unknown #
vertex $-1 $330 $641 #
ellipse-curve $-1 66.817285371686296 15.463782311200966 6.5663441284245927 0.6560590369687036 0 0.75470957328743171 0.37735478664371586 0 -0.3280295184843518 1 I I #
face $-1 $-1 $488 $68 $-1 $642 forward single #
loop $-1 $-1 $643 $331 #
plane-surface $-1 70.434278389843442 0 0 -1 0 0 0 0 1 forward_v I I I I #
coedge $-1 $644 $645 $646 $647 reversed $332 $-1 #
coedge $-1 $648 $334 $336 $486 forward $210 $-1 #
coedge $-1 $334 $648 $644 $649 forward $210 $-1 #
coedge $-1 $646 $337 $334 $483 forward $488 $-1 #
edge $-1 $490 -22.736051824482054 $650 -11.702766117893052 $482 $651 forward 7 unknown #
coedge $-1 $652 $653 $335 $485 forward $477 $-1 #
edge $-1 $654 -97.655399038514517 $489 -91.36699078133995 $484 $655 forward 7 unknown #
edge $-1 $490 131.2834311997849 $654 140.86855677968686 $336 $656 forward 7 unknown #
coedge $-1 $337 $646 $652 $657 forward $488 $-1 #
loop $-1 $-1 $646 $476 #
vertex $-1 $485 $658 #
vertex $-1 $338 $659 #
straight-curve $-1 28.268759856541074 39.955460795669609 9.7105482570118653 -1 0 0 I I #
coedge $-1 $492 $492 $-1 $660 reversed $341 $-1 #
edge $-1 $661 0 $661 6.2831853071796004 $342 $662 forward 7 unknown #
vertex $-1 $345 $663 #
ellipse-curve $-1 66.817285371686296 31.128832230398402 6.5663441284245927 0.6560590369687036 0 0.75470957328743171 0.37735478664371586 0 -0.3280295184843518 1 I I #
coedge $-1 $496 $496 $-1 $664 reversed $348 $-1 #
edge $-1 $665 0 $665 6.2831853071796004 $349 $666 forward 7 unknown #
vertex $-1 $352 $667 #
ellipse-curve $-1 66.817285371686296 34.43881794237511 6.5663441284245927 0.6560590369687036 0 0.75470957328743171 0.37735478664371586 0 -0.3280295184843518 1 I I #
coedge $-1 $500 $500 $-1 $668 reversed $355 $-1 #
edge $-1 $669 0 $669 6.2831853071796004 $356 $670 forward 7 unknown #
vertex $-1 $359 $671 #
ellipse-curve $-1 66.817285371686296 37.748803654351818 6.5663441284245927 0.6560590369687036 0 0.75470957328743171 0.37735478664371586 0 -0.3280295184843518 1 I I #
face $-1 $-1 $375 $54 $-1 $672 reversed single #
loop $-1 $-1 $520 $360 #
plane-surface $-1 0 44.570042686301704 0 0 -1 0 0 0 -1 forward_v I I I I #
coedge $-1 $673 $518 $521 $674 forward $361 $-1 #
coedge $-1 $524 $363 $364 $512 reversed $229 $-1 #
coedge $-1 $518 $673 $363 $510 reversed $361 $-1 #
edge $-1 $525 -9.7105482570118689 $675 9.7105482570118689 $509 $676 forward 7 unknown #
coedge $-1 $365 $364 $673 $677 forward $145 $-1 #
edge $-1 $516 -70.434278389843442 $675 70.434278389843442 $508 $678 forward 7 unknown #
coedge $-1 $521 $520 $365 $514 reversed $505 $-1 #
edge $-1 $679 -70.434278389843442 $515 70.434278389843442 $513 $680 forward 7 unknown #
vertex $-1 $367 $681 #
vertex $-1 $527 $682 #
straight-curve $-1 70.434278389843442 0 -9.7105482570118689 0 -1 0 I I #
coedge $-1 $507 $509 $368 $519 reversed $361 $-1 #
edge $-1 $522 -44.570042686301704 $525 44.570042686301704 $518 $683 forward 7 unknown #
coedge $-1 $513 $369 $374 $528 forward $505 $-1 #
coedge $-1 $369 $513 $507 $674 reversed $505 $-1 #
vertex $-1 $370 $684 #
straight-curve $-1 0 44.570042686301704 9.7105482570118689 -1 0 0 I I #
coedge $-1 $371 $508 $373 $527 reversed $229 $-1 #
vertex $-1 $519 $685 #
straight-curve $-1 0 -44.570042686301704 9.7105482570118689 1 0 0 I I #
edge $-1 $376 -9.7105482570118689 $516 9.7105482570118689 $373 $686 forward 7 unknown #
edge $-1 $377 -9.7105482570118689 $515 9.7105482570118689 $374 $687 forward 7 unknown #
point $-1 70.434278389843442 -44.570042686301704 9.7105482570118689 #
point $-1 70.434278389843442 44.570042686301704 9.7105482570118689 #
face $-1 $-1 $545 $55 $-1 $688 reversed single #
loop $-1 $-1 $541 $379 #
plane-surface $-1 0 0 9.7105482570118689 0 0 1 1 0 0 forward_v I I I I #
coedge $-1 $689 $690 $535 $691 forward $380 $-1 #
coedge $-1 $383 $382 $534 $691 reversed $149 $-1 #
edge $-1 $692 -3.9548694906300454 $391 3.9548694906300454 $382 $693 forward 7 unknown #
coedge $-1 $694 $541 $383 $538 forward $532 $-1 #
edge $-1 $539 70.434278389843442 $695 78.344017371103533 $383 $696 forward 7 unknown #
vertex $-1 $538 $697 #
straight-curve $-1 -70.434278389843442 44.570042686301704 0 0 0 -1 I I #
coedge $-1 $537 $698 $385 $542 forward $532 $-1 #
edge $-1 $546 -44.570042686301704 $539 44.570042686301704 $541 $699 forward 7 unknown #
coedge $-1 $700 $386 $698 $701 reversed $545 $-1 #
coedge $-1 $386 $700 $388 $549 reversed $545 $-1 #
loop $-1 $-1 $386 $531 #
vertex $-1 $387 $702 #
straight-curve $-1 -70.434278389843442 -44.570042686301704 0 0 0 1 I I #
coedge $-1 $389 $388 $689 $703 forward $237 $-1 #
edge $-1 $390 -3.9548694906300454 $704 3.9548694906300454 $544 $705 forward 7 unknown #
point $-1 -70.434278389843442 -44.570042686301704 6.7105482570118689 #
point $-1 -70.434278389843442 44.570042686301704 6.7105482570118689 #
loop $-1 $-1 $401 $393 #
plane-surface $-1 70.434278389843442 0 0 -1 0 0 0 0 1 forward_v I I I I #
coedge $-1 $555 $396 $398 $559 reversed $245 $-1 #
coedge $-1 $396 $554 $706 $707 reversed $245 $-1 #
coedge $-1 $404 $399 $396 $557 forward $394 $-1 #
edge $-1 $560 34.931532496988119 $708 42.165518533302368 $556 $709 forward 7 unknown #
coedge $-1 $398 $397 $563 $710 reversed $153 $-1 #
edge $-1 $711 -140.86855677968686 $560 -131.2834311997849 $554 $712 forward 7 unknown #
vertex $-1 $400 $713 #
straight-curve $-1 63.200292353529171 -16.20812304353872 9.7105482570118795 0 -1 0 I I #
coedge $-1 $706 $401 $404 $567 reversed $552 $-1 #
coedge $-1 $401 $706 $558 $710 forward $552 $-1 #
vertex $-1 $402 $714 #
straight-curve $-1 70.434278389843442 -26.899603233782937 101.07753903835182 0 0 1 I I #
straight-curve $-1 -35.880569986970372 -26.899603233782937 95.840229699889804 0.75470957328743171 0 -0.6560590369687036 I I #
edge $-1 $708 -37.932888940371939 $405 -26.899603233782937 $562 $715 forward 7 unknown #
point $-1 70.434278389843442 -26.899603233782937 9.7105482570118689 #
point $-1 63.200292353529193 -26.899603233782937 9.7105482570118653 #
edge $-1 $716 1 $716 0 $408 $-1 forward 7 unknown #
vertex $-1 $409 $717 #
ellipse-curve $-1 65.829462723689076 -35.726231799054148 5.4299841864927041 0.6560590369687036 0 0.75470957328743171 0.37735478664371586 0 -0.3280295184843518 1 I I #
point $-1 67.194640158330003 -35.726231799054148 6.2383146099402351 #
edge $-1 $718 1 $718 0 $412 $-1 forward 7 unknown #
vertex $-1 $413 $719 #
ellipse-curve $-1 65.829462723689076 -32.41624608707744 5.4299841864927041 0.6560590369687036 0 0.75470957328743171 0.37735478664371586 0 -0.3280295184843518 1 I I #
point $-1 67.194640158330003 -32.41624608707744 6.2383146099402351 #
edge $-1 $720 1 $720 0 $416 $-1 forward 7 unknown #
vertex $-1 $417 $721 #
ellipse-curve $-1 65.829462723689076 -29.106260375100742 5.4299841864927041 0.6560590369687036 0 0.75470957328743171 0.37735478664371586 0 -0.3280295184843518 1 I I #
point $-1 67.194640158330003 -29.106260375100742 6.2383146099402351 #
plane-surface $-1 0 0 9.7105482570118689 0 0 1 1 0 0 forward_v I I I I #
coedge $-1 $593 $592 $585 $722 forward $421 $-1 #
coedge $-1 $585 $423 $425 $589 reversed $274 $-1 #
coedge $-1 $423 $584 $583 $722 reversed $274 $-1 #
coedge $-1 $431 $426 $423 $587 forward $432 $-1 #
edge $-1 $590 34.931532496988119 $723 42.165518533302368 $586 $724 forward 7 unknown #
coedge $-1 $425 $424 $593 $725 reversed $172 $-1 #
edge $-1 $726 -140.86855677968686 $590 -131.2834311997849 $584 $727 forward 7 unknown #
vertex $-1 $427 $728 #
straight-curve $-1 63.200292353529171 -5.0656123719632973 9.7105482570118795 0 -1 0 I I #
coedge $-1 $583 $428 $431 $597 reversed $421 $-1 #
coedge $-1 $428 $583 $588 $725 forward $421 $-1 #
vertex $-1 $429 $729 #
straight-curve $-1 70.434278389843442 -4.6145818906320919 101.07753903835182 0 0 1 I I #
straight-curve $-1 -35.880569986970372 -4.6145818906320919 95.840229699889804 0.75470957328743171 0 -0.6560590369687036 I I #
edge $-1 $723 -15.647867597221097 $433 -4.6145818906320919 $592 $730 forward 7 unknown #
point $-1 70.434278389843442 -4.6145818906320919 9.7105482570118689 #
point $-1 63.200292353529193 -4.6145818906320919 9.7105482570118653 #
edge $-1 $731 1 $731 0 $436 $-1 forward 7 unknown #
vertex $-1 $437 $732 #
ellipse-curve $-1 65.829462723689076 -13.441210455903292 5.4299841864927041 0.6560590369687036 0 0.75470957328743171 0.37735478664371586 0 -0.3280295184843518 1 I I #
point $-1 67.194640158330003 -13.441210455903292 6.2383146099402351 #
edge $-1 $733 1 $733 0 $440 $-1 forward 7 unknown #
vertex $-1 $441 $734 #
ellipse-curve $-1 65.829462723689076 -10.131224743926595 5.4299841864927041 0.6560590369687036 0 0.75470957328743171 0.37735478664371586 0 -0.3280295184843518 1 I I #
point $-1 67.194640158330003 -10.131224743926595 6.2383146099402351 #
edge $-1 $735 1 $735 0 $444 $-1 forward 7 unknown #
vertex $-1 $445 $736 #
ellipse-curve $-1 65.829462723689076 -6.8212390319498866 5.4299841864927041 0.6560590369687036 0 0.75470957328743171 0.37735478664371586 0 -0.3280295184843518 1 I I #
point $-1 67.194640158330003 -6.8212390319498866 6.2383146099402351 #
plane-surface $-1 0 0 9.7105482570118689 0 0 1 1 0 0 forward_v I I I I #
coedge $-1 $623 $622 $615 $737 forward $449 $-1 #
coedge $-1 $615 $451 $453 $619 reversed $303 $-1 #
coedge $-1 $451 $614 $613 $737 reversed $303 $-1 #
coedge $-1 $459 $454 $451 $617 forward $460 $-1 #
edge $-1 $620 34.931532496988119 $738 42.165518533302368 $616 $739 forward 7 unknown #
coedge $-1 $453 $452 $623 $740 reversed $191 $-1 #
edge $-1 $741 -140.86855677968686 $620 -131.2834311997849 $614 $742 forward 7 unknown #
vertex $-1 $455 $743 #
straight-curve $-1 63.200292353529171 6.0768982996121288 9.7105482570118795 0 -1 0 I I #
coedge $-1 $613 $456 $459 $627 reversed $449 $-1 #
coedge $-1 $456 $613 $618 $740 forward $449 $-1 #
vertex $-1 $457 $744 #
straight-curve $-1 70.434278389843442 17.67043945251876 101.07753903835182 0 0 1 I I #
straight-curve $-1 -35.880569986970372 17.67043945251876 95.840229699889804 0.75470957328743171 0 -0.6560590369687036 I I #
edge $-1 $738 6.6371537459297549 $461 17.67043945251876 $622 $745 forward 7 unknown #
point $-1 70.434278389843442 17.67043945251876 9.7105482570118689 #
point $-1 63.200292353529193 17.67043945251876 9.7105482570118653 #
edge $-1 $746 1 $746 0 $464 $-1 forward 7 unknown #
vertex $-1 $465 $747 #
ellipse-curve $-1 65.829462723689076 8.8438108872475567 5.4299841864927041 0.6560590369687036 0 0.75470957328743171 0.37735478664371586 0 -0.3280295184843518 1 I I #
point $-1 67.194640158330003 8.8438108872475567 6.2383146099402351 #
edge $-1 $748 1 $748 0 $468 $-1 forward 7 unknown #
vertex $-1 $469 $749 #
ellipse-curve $-1 65.829462723689076 12.153796599224258 5.4299841864927041 0.6560590369687036 0 0.75470957328743171 0.37735478664371586 0 -0.3280295184843518 1 I I #
point $-1 67.194640158330003 12.153796599224258 6.2383146099402351 #
edge $-1 $750 1 $750 0 $472 $-1 forward 7 unknown #
vertex $-1 $473 $751 #
ellipse-curve $-1 65.829462723689076 15.463782311200966 5.4299841864927041 0.6560590369687036 0 0.75470957328743171 0.37735478664371586 0 -0.3280295184843518 1 I I #
point $-1 67.194640158330003 15.463782311200966 6.2383146099402351 #
plane-surface $-1 0 0 9.7105482570118689 0 0 1 1 0 0 forward_v I I I I #
coedge $-1 $653 $652 $645 $752 forward $477 $-1 #
coedge $-1 $645 $479 $481 $649 reversed $332 $-1 #
coedge $-1 $479 $644 $643 $752 reversed $332 $-1 #
coedge $-1 $487 $482 $479 $647 forward $488 $-1 #
edge $-1 $650 34.931532496988119 $753 42.165518533302368 $646 $754 forward 7 unknown #
coedge $-1 $481 $480 $653 $755 reversed $210 $-1 #
edge $-1 $756 -140.86855677968686 $650 -131.2834311997849 $644 $757 forward 7 unknown #
vertex $-1 $483 $758 #
straight-curve $-1 63.200292353529171 17.219408971187555 9.7105482570118795 0 -1 0 I I #
coedge $-1 $643 $484 $487 $657 reversed $477 $-1 #
coedge $-1 $484 $643 $648 $755 forward $477 $-1 #
vertex $-1 $485 $759 #
straight-curve $-1 70.434278389843442 39.955460795669609 101.07753903835182 0 0 1 I I #
straight-curve $-1 -35.880569986970372 39.955460795669609 95.840229699889804 0.75470957328743171 0 -0.6560590369687036 I I #
edge $-1 $753 28.922175089080607 $489 39.955460795669609 $652 $760 forward 7 unknown #
point $-1 70.434278389843442 39.955460795669609 9.7105482570118689 #
point $-1 63.200292353529193 39.955460795669609 9.7105482570118653 #
edge $-1 $761 1 $761 0 $492 $-1 forward 7 unknown #
vertex $-1 $493 $762 #
ellipse-curve $-1 65.829462723689076 31.128832230398402 5.4299841864927041 0.6560590369687036 0 0.75470957328743171 0.37735478664371586 0 -0.3280295184843518 1 I I #
point $-1 67.194640158330003 31.128832230398402 6.2383146099402351 #
edge $-1 $763 1 $763 0 $496 $-1 forward 7 unknown #
vertex $-1 $497 $764 #
ellipse-curve $-1 65.829462723689076 34.43881794237511 5.4299841864927041 0.6560590369687036 0 0.75470957328743171 0.37735478664371586 0 -0.3280295184843518 1 I I #
point $-1 67.194640158330003 34.43881794237511 6.2383146099402351 #
edge $-1 $765 1 $765 0 $500 $-1 forward 7 unknown #
vertex $-1 $501 $766 #
ellipse-curve $-1 65.829462723689076 37.748803654351818 5.4299841864927041 0.6560590369687036 0 0.75470957328743171 0.37735478664371586 0 -0.3280295184843518 1 I I #
point $-1 67.194640158330003 37.748803654351818 6.2383146099402351 #
plane-surface $-1 70.434278389843442 0 0 -1 0 0 0 0 1 forward_v I I I I #
coedge $-1 $509 $507 $511 $677 reversed $361 $-1 #
edge $-1 $522 -9.7105482570118689 $679 9.7105482570118689 $521 $767 forward 7 unknown #
vertex $-1 $677 $768 #
straight-curve $-1 -70.434278389843442 -44.570042686301704 0 0 0 -1 I I #
edge $-1 $675 -44.570042686301704 $679 44.570042686301704 $673 $769 forward 7 unknown #
straight-curve $-1 0 -44.570042686301704 -9.7105482570118689 -1 0 0 I I #
vertex $-1 $514 $770 #
straight-curve $-1 0 44.570042686301704 -9.7105482570118689 1 0 0 I I #
point $-1 70.434278389843442 44.570042686301704 -9.7105482570118689 #
point $-1 70.434278389843442 -44.570042686301704 -9.7105482570118689 #
straight-curve $-1 -70.434278389843442 0 9.7105482570118689 0 -1 0 I I #
point $-1 -70.434278389843442 44.570042686301704 9.7105482570118689 #
point $-1 -70.434278389843442 -44.570042686301704 9.7105482570118689 #
straight-curve $-1 70.434278389843442 -44.570042686301704 0 0 0 -1 I I #
straight-curve $-1 70.434278389843442 44.570042686301704 0 0 0 -1 I I #
plane-surface $-1 0 -44.570042686301704 0 0 1 0 0 0 1 forward_v I I I I #
coedge $-1 $771 $534 $548 $703 reversed $380 $-1 #
coedge $-1 $534 $771 $694 $772 reversed $380 $-1 #
edge $-1 $695 -1.5 $692 1.5 $535 $773 forward 7 unknown #
vertex $-1 $536 $774 #
straight-curve $-1 -74.389147880473487 44.570042686301704 6.7105482570118689 1 0 0 I I #
coedge $-1 $698 $537 $690 $772 forward $532 $-1 #
vertex $-1 $538 $775 #
straight-curve $-1 0 44.570042686301704 9.7105482570118689 -1 0 0 I I #
point $-1 -70.434278389843442 44.570042686301704 9.7105482570118689 #
coedge $-1 $541 $694 $543 $701 forward $532 $-1 #
straight-curve $-1 -70.434278389843442 0 9.7105482570118689 0 1 0 I I #
coedge $-1 $544 $543 $771 $776 forward $545 $-1 #
edge $-1 $777 -78.344017371103533 $546 -70.434278389843442 $543 $778 forward 7 unknown #
point $-1 -70.434278389843442 -44.570042686301704 9.7105482570118689 #
edge $-1 $704 -44.570042686301704 $692 44.570042686301704 $689 $779 forward 7 unknown #
vertex $-1 $703 $780 #
straight-curve $-1 -74.389147880473487 -44.570042686301704 6.7105482570118689 -1 0 0 I I #
coedge $-1 $563 $562 $555 $707 forward $552 $-1 #
edge $-1 $708 91.36699078133995 $711 97.655399038514517 $706 $781 forward 7 unknown #
vertex $-1 $567 $782 #
straight-curve $-1 28.268759856541074 -37.932888940371939 9.7105482570118653 1 0 0 I I #
edge $-1 $711 -21.724765896833219 $564 -10.691480190244217 $563 $783 forward 7 unknown #
vertex $-1 $710 $784 #
straight-curve $-1 -35.880569986970372 -37.932888940371939 95.840229699889804 -0.75470957328743171 0 0.6560590369687036 I I #
point $-1 63.200292353529193 -37.932888940371939 9.7105482570118653 #
point $-1 70.434278389843442 -26.899603233782937 3.4221399998372988 #
straight-curve $-1 70.434278389843442 0 9.7105482570118689 0 1 0 I I #
vertex $-1 $570 $785 #
point $-1 66.206817510332783 -35.726231799054148 5.1019546680083518 #
vertex $-1 $574 $786 #
point $-1 66.206817510332783 -32.41624608707744 5.1019546680083518 #
vertex $-1 $578 $787 #
point $-1 66.206817510332783 -29.106260375100742 5.1019546680083518 #
edge $-1 $723 91.36699078133995 $726 97.655399038514517 $583 $788 forward 7 unknown #
vertex $-1 $597 $789 #
straight-curve $-1 28.268759856541074 -15.647867597221097 9.7105482570118653 1 0 0 I I #
edge $-1 $726 -10.5822552252578 $594 0.45103048133120538 $593 $790 forward 7 unknown #
vertex $-1 $725 $791 #
straight-curve $-1 -35.880569986970372 -15.647867597221097 95.840229699889804 -0.75470957328743171 0 0.6560590369687036 I I #
point $-1 63.200292353529193 -15.647867597221097 9.7105482570118653 #
point $-1 70.434278389843442 -4.6145818906320919 3.4221399998372988 #
straight-curve $-1 70.434278389843442 0 9.7105482570118689 0 1 0 I I #
vertex $-1 $600 $792 #
point $-1 66.206817510332783 -13.441210455903292 5.1019546680083518 #
vertex $-1 $604 $793 #
point $-1 66.206817510332783 -10.131224743926595 5.1019546680083518 #
vertex $-1 $608 $794 #
point $-1 66.206817510332783 -6.8212390319498866 5.1019546680083518 #
edge $-1 $738 91.36699078133995 $741 97.655399038514517 $613 $795 forward 7 unknown #
vertex $-1 $627 $796 #
straight-curve $-1 28.268759856541074 6.6371537459297549 9.7105482570118653 1 0 0 I I #
edge $-1 $741 0.56025544631762614 $624 11.593541152906631 $623 $797 forward 7 unknown #
vertex $-1 $740 $798 #
straight-curve $-1 -35.880569986970372 6.6371537459297549 95.840229699889804 -0.75470957328743171 0 0.6560590369687036 I I #
point $-1 63.200292353529193 6.6371537459297549 9.7105482570118653 #
point $-1 70.434278389843442 17.67043945251876 3.4221399998372988 #
straight-curve $-1 70.434278389843442 0 9.7105482570118689 0 1 0 I I #
vertex $-1 $630 $799 #
point $-1 66.206817510332783 8.8438108872475567 5.1019546680083518 #
vertex $-1 $634 $800 #
point $-1 66.206817510332783 12.153796599224258 5.1019546680083518 #
vertex $-1 $638 $801 #
point $-1 66.206817510332783 15.463782311200966 5.1019546680083518 #
edge $-1 $753 91.36699078133995 $756 97.655399038514517 $643 $802 forward 7 unknown #
vertex $-1 $657 $803 #
straight-curve $-1 28.268759856541074 28.922175089080607 9.7105482570118653 1 0 0 I I #
edge $-1 $756 11.702766117893052 $654 22.736051824482054 $653 $804 forward 7 unknown #
vertex $-1 $755 $805 #
straight-curve $-1 -35.880569986970372 28.922175089080607 95.840229699889804 -0.75470957328743171 0 0.6560590369687036 I I #
point $-1 63.200292353529193 28.922175089080607 9.7105482570118653 #
point $-1 70.434278389843442 39.955460795669609 3.4221399998372988 #
straight-curve $-1 70.434278389843442 0 9.7105482570118689 0 1 0 I I #
vertex $-1 $660 $806 #
point $-1 66.206817510332783 31.128832230398402 5.1019546680083518 #
vertex $-1 $664 $807 #
point $-1 66.206817510332783 34.43881794237511 5.1019546680083518 #
vertex $-1 $668 $808 #
point $-1 66.206817510332783 37.748803654351818 5.1019546680083518 #
straight-curve $-1 -70.434278389843442 44.570042686301704 0 0 0 -1 I I #
point $-1 -70.434278389843442 -44.570042686301704 -9.7105482570118689 #
straight-curve $-1 -70.434278389843442 0 -9.7105482570118689 0 1 0 I I #
point $-1 -70.434278389843442 44.570042686301704 -9.7105482570118689 #
coedge $-1 $690 $689 $700 $776 reversed $380 $-1 #
edge $-1 $695 -44.570042686301704 $777 44.570042686301704 $690 $809 forward 7 unknown #
straight-curve $-1 -78.344017371103533 44.570042686301704 8.2105482570118689 0 0 -1 I I #
point $-1 -78.344017371103533 44.570042686301704 6.7105482570118689 #
point $-1 -78.344017371103533 44.570042686301704 9.7105482570118689 #
edge $-1 $777 -1.5 $704 1.5 $771 $810 forward 7 unknown #
vertex $-1 $772 $811 #
straight-curve $-1 0 -44.570042686301704 9.7105482570118689 1 0 0 I I #
straight-curve $-1 -78.344017371103533 0 6.7105482570118689 0 1 0 I I #
point $-1 -78.344017371103533 -44.570042686301704 6.7105482570118689 #
straight-curve $-1 70.434278389843442 -37.932888940371939 101.07753903835182 0 0 -1 I I #
point $-1 70.434278389843442 -37.932888940371939 9.7105482570118689 #
straight-curve $-1 70.434278389843456 -16.20812304353872 3.4221399998373059 0 1 0 I I #
point $-1 70.434278389843442 -37.932888940371939 3.4221399998372988 #
point $-1 65.501433205204719 -35.726231799054148 5.0526293998489882 #
point $-1 65.501433205204719 -32.41624608707744 5.0526293998489882 #
point $-1 65.501433205204719 -29.106260375100742 5.0526293998489882 #
straight-curve $-1 70.434278389843442 -15.647867597221097 101.07753903835182 0 0 -1 I I #
point $-1 70.434278389843442 -15.647867597221097 9.7105482570118689 #
straight-curve $-1 70.434278389843456 -5.0656123719632973 3.4221399998373059 0 1 0 I I #
point $-1 70.434278389843442 -15.647867597221097 3.4221399998372988 #
point $-1 65.501433205204719 -13.441210455903292 5.0526293998489882 #
point $-1 65.501433205204719 -10.131224743926595 5.0526293998489882 #
point $-1 65.501433205204719 -6.8212390319498866 5.0526293998489882 #
straight-curve $-1 70.434278389843442 6.6371537459297549 101.07753903835182 0 0 -1 I I #
point $-1 70.434278389843442 6.6371537459297549 9.7105482570118689 #
straight-curve $-1 70.434278389843456 6.0768982996121288 3.4221399998373059 0 1 0 I I #
point $-1 70.434278389843442 6.6371537459297549 3.4221399998372988 #
point $-1 65.501433205204719 8.8438108872475567 5.0526293998489882 #
point $-1 65.501433205204719 12.153796599224258 5.0526293998489882 #
point $-1 65.501433205204719 15.463782311200966 5.0526293998489882 #
straight-curve $-1 70.434278389843442 28.922175089080607 101.07753903835182 0 0 -1 I I #
point $-1 70.434278389843442 28.922175089080607 9.7105482570118689 #
straight-curve $-1 70.434278389843456 17.219408971187555 3.4221399998373059 0 1 0 I I #
point $-1 70.434278389843442 28.922175089080607 3.4221399998372988 #
point $-1 65.501433205204719 31.128832230398402 5.0526293998489882 #
point $-1 65.501433205204719 34.43881794237511 5.0526293998489882 #
point $-1 65.501433205204719 37.748803654351818 5.0526293998489882 #
straight-curve $-1 -78.344017371103533 0 9.7105482570118689 0 -1 0 I I #
straight-curve $-1 -78.344017371103533 -44.570042686301704 8.2105482570118689 0 0 -1 I I #
point $-1 -78.344017371103533 -44.570042686301704 9.7105482570118689 #
End-of-ACIS-data 