500 0 10 0           
7 Unknown 11 ACIS 5.0 NT 24 Thu Mar 25 18:12:19 1999 
-1 9.9999999999999995e-007 1e-010 
body $-1 $10 $-1 $11 #
body $-1 $12 $-1 $13 #
body $-1 $14 $-1 $15 #
body $-1 $16 $-1 $17 #
body $-1 $18 $-1 $19 #
body $-1 $20 $-1 $21 #
body $-1 $22 $-1 $23 #
body $-1 $24 $-1 $25 #
body $-1 $26 $-1 $27 #
body $-1 $28 $-1 $29 #
lump $-1 $-1 $30 $0 #
transform $-1 1 0 0 0 1 0 0 0 1 43.899044770653404 17.741687679199558 4.1267684250787458 1 rotate no_reflect no_shear #
lump $-1 $-1 $31 $1 #
transform $-1 1 0 0 0 1 0 0 0 1 43.899044770653404 17.741687679199558 4.1267684250787458 1 rotate no_reflect no_shear #
lump $-1 $-1 $32 $2 #
transform $-1 1 0 0 0 1 0 0 0 1 43.899044770653404 17.741687679199558 4.1267684250787458 1 rotate no_reflect no_shear #
lump $-1 $-1 $33 $3 #
transform $-1 1 0 0 0 1 0 0 0 1 43.899044770653404 17.741687679199558 4.1267684250787458 1 rotate no_reflect no_shear #
lump $-1 $-1 $34 $4 #
transform $-1 1 0 0 0 1 0 0 0 1 43.899044770653404 17.741687679199558 4.1267684250787458 1 rotate no_reflect no_shear #
lump $-1 $-1 $35 $5 #
transform $-1 1 0 0 0 1 0 0 0 1 43.899044770653404 17.741687679199558 4.1267684250787458 1 rotate no_reflect no_shear #
lump $-1 $-1 $36 $6 #
transform $-1 1 0 0 0 1 0 0 0 1 43.899044770653404 17.741687679199558 4.1267684250787458 1 rotate no_reflect no_shear #
lump $-1 $-1 $37 $7 #
transform $-1 1 0 0 0 1 0 0 0 1 43.899044770653404 17.741687679199558 4.1267684250787458 1 rotate no_reflect no_shear #
lump $-1 $-1 $38 $8 #
transform $-1 1 0 0 0 1 0 0 0 1 43.899044770653404 17.741687679199558 4.1267684250787458 1 rotate no_reflect no_shear #
lump $-1 $-1 $39 $9 #
transform $-1 1 0 0 0 1 0 0 0 1 43.899044770653404 17.741687679199558 4.1267684250787458 1 rotate no_reflect no_shear #
shell $-1 $-1 $-1 $40 $-1 $10 #
shell $-1 $-1 $-1 $41 $-1 $12 #
shell $-1 $-1 $-1 $42 $-1 $14 #
shell $-1 $-1 $-1 $43 $-1 $16 #
shell $-1 $-1 $-1 $44 $-1 $18 #
shell $-1 $-1 $-1 $45 $-1 $20 #
shell $-1 $-1 $-1 $46 $-1 $22 #
shell $-1 $-1 $-1 $47 $-1 $24 #
shell $-1 $-1 $-1 $48 $-1 $26 #
shell $-1 $-1 $-1 $49 $-1 $28 #
face $-1 $50 $51 $30 $-1 $52 forward single #
face $-1 $53 $54 $31 $-1 $55 reversed single #
face $-1 $56 $57 $32 $-1 $58 reversed single #
face $-1 $59 $60 $33 $-1 $61 forward single #
face $-1 $62 $63 $34 $-1 $64 reversed single #
face $-1 $65 $66 $35 $-1 $67 forward single #
face $-1 $68 $69 $36 $-1 $70 forward single #
face $-1 $71 $72 $37 $-1 $73 reversed single #
face $-1 $74 $75 $38 $-1 $76 forward single #
face $-1 $77 $78 $39 $-1 $79 forward single #
face $-1 $80 $81 $30 $-1 $82 reversed single #
loop $-1 $-1 $83 $40 #
plane-surface $-1 0 0 4.1267684250787458 0 0 1 1 0 0 forward_v I I I I #
face $-1 $84 $85 $31 $-1 $86 reversed single #
loop $-1 $-1 $87 $41 #
plane-surface $-1 -41.976052799286187 -14.741687679199558 0 0 -1 0 0 0 -1 forward_v I I I I #
face $-1 $88 $89 $32 $-1 $90 reversed single #
loop $-1 $-1 $91 $42 #
plane-surface $-1 1.2453643103425591 40.641457061200221 92.847635161570722 1 0 0 0 -0.5877852598018023 -0.80901698891910034 forward_v I I I I #
face $-1 $92 $93 $33 $-1 $94 forward single #
loop $-1 $95 $96 $43 #
cone-surface $-1 6.761678924405679 15.204833944259782 2.0509152615889286 0 -0.5877852598018023 -0.80901698891910034 1 0 0 1 I I 0 1 1 forward I I I I #
face $-1 $97 $98 $34 $-1 $99 reversed single #
loop $-1 $-1 $100 $44 #
plane-surface $-1 -9.271531699302491 -76.490077277683127 65.832620376241735 -1 0 0 0 -0.66913061440640931 0.74314481823134659 forward_v I I I I #
face $-1 $101 $102 $35 $-1 $103 forward single #
loop $-1 $104 $105 $45 #
cone-surface $-1 -17.925367259992235 -15.281066440107749 1.8072945703046766 0 0.66913061440640931 -0.74314481823134659 1 0 0 1 I I 0 1 1 forward I I I I #
face $-1 $106 $107 $36 $-1 $108 forward single #
loop $-1 $109 $110 $46 #
cone-surface $-1 -12.733065923578387 -15.281066440107749 1.8072945703046766 0 0.66913061440640931 -0.74314481823134659 1 0 0 1 I I 0 1 1 forward I I I I #
face $-1 $111 $112 $37 $-1 $113 reversed single #
loop $-1 $-1 $114 $47 #
plane-surface $-1 32.704521099983701 -76.490077277683127 65.832620376241735 -1 0 0 0 -0.66913061440640931 0.74314481823134659 forward_v I I I I #
face $-1 $115 $116 $38 $-1 $117 forward single #
loop $-1 $118 $119 $48 #
cone-surface $-1 24.050685539293951 -15.281066440107749 1.8072945703046766 0 0.66913061440640931 -0.74314481823134659 1 0 0 1 I I 0 1 1 forward I I I I #
face $-1 $120 $121 $39 $-1 $122 forward single #
loop $-1 $123 $124 $49 #
cone-surface $-1 29.2429868757078 -15.281066440107749 1.8072945703046766 0 0.66913061440640931 -0.74314481823134659 1 0 0 1 I I 0 1 1 forward I I I I #
face $-1 $125 $126 $30 $-1 $127 reversed single #
loop $-1 $-1 $128 $50 #
plane-surface $-1 0 0 -4.1267684250787458 0 0 1 1 0 0 forward_v I I I I #
coedge $-1 $129 $130 $131 $132 forward $51 $-1 #
face $-1 $133 $134 $31 $-1 $135 forward single #
loop $-1 $-1 $136 $53 #
plane-surface $-1 -40.053060827918969 -16.241687679199558 0 -1 0 0 0 0 1 forward_v I I I I #
coedge $-1 $137 $138 $139 $140 forward $54 $-1 #
face $-1 $141 $142 $32 $-1 $143 reversed single #
loop $-1 $-1 $144 $56 #
plane-surface $-1 6.761678924405679 -10.964965809938704 21.817489128013136 0 0.5877852598018023 0.80901698891910034 1 0 0 forward_v I I I I #
coedge $-1 $145 $146 $147 $148 reversed $57 $-1 #
face $-1 $-1 $149 $33 $-1 $150 forward single #
loop $-1 $151 $152 $59 #
cone-surface $-1 6.761678924405679 14.552820493817386 1.1534957540131057 0 -0.5877852598018023 -0.80901698891910034 0.5 0 0 1 I I -0.70710678118654746 0.70710678118654746 0.5 forward I I I I #
loop $-1 $-1 $153 $43 #
coedge $-1 $96 $96 $154 $155 reversed $60 $-1 #
face $-1 $156 $157 $34 $-1 $158 reversed single #
loop $-1 $-1 $159 $62 #
plane-surface $-1 -15.329216591785311 -17.741687679199565 0.585925083007794 0 -0.66913061440640931 0.74314481823134659 1 0 0 forward_v I I I I #
coedge $-1 $160 $161 $162 $163 reversed $63 $-1 #
face $-1 $-1 $164 $35 $-1 $165 forward single #
loop $-1 $166 $167 $65 #
cone-surface $-1 -17.925367259992235 -14.452132315369683 0.88666997745040455 0 0.66913061440640931 -0.74314481823134659 0.5 0 0 1 I I -0.70710678118654746 0.70710678118654746 0.5 forward I I I I #
loop $-1 $-1 $168 $45 #
coedge $-1 $105 $105 $169 $170 reversed $66 $-1 #
face $-1 $-1 $171 $36 $-1 $172 forward single #
loop $-1 $173 $174 $68 #
cone-surface $-1 -12.733065923578387 -14.452132315369683 0.88666997745040455 0 0.66913061440640931 -0.74314481823134659 0.5 0 0 1 I I -0.70710678118654746 0.70710678118654746 0.5 forward I I I I #
loop $-1 $-1 $175 $46 #
coedge $-1 $110 $110 $176 $177 reversed $69 $-1 #
face $-1 $178 $179 $37 $-1 $180 reversed single #
loop $-1 $-1 $181 $71 #
plane-surface $-1 26.646836207500883 -17.741687679199565 0.585925083007794 0 -0.66913061440640931 0.74314481823134659 1 0 0 forward_v I I I I #
coedge $-1 $182 $183 $184 $185 reversed $72 $-1 #
face $-1 $-1 $186 $38 $-1 $187 forward single #
loop $-1 $188 $189 $74 #
cone-surface $-1 24.050685539293951 -14.452132315369683 0.88666997745040455 0 0.66913061440640931 -0.74314481823134659 0.5 0 0 1 I I -0.70710678118654746 0.70710678118654746 0.5 forward I I I I #
loop $-1 $-1 $190 $48 #
coedge $-1 $119 $119 $191 $192 reversed $75 $-1 #
face $-1 $-1 $193 $39 $-1 $194 forward single #
loop $-1 $195 $196 $77 #
cone-surface $-1 29.2429868757078 -14.452132315369683 0.88666997745040455 0 0.66913061440640931 -0.74314481823134659 0.5 0 0 1 I I -0.70710678118654746 0.70710678118654746 0.5 forward I I I I #
loop $-1 $-1 $197 $49 #
coedge $-1 $124 $124 $198 $199 reversed $78 $-1 #
face $-1 $200 $201 $30 $-1 $202 reversed single #
loop $-1 $-1 $203 $80 #
plane-surface $-1 0 -17.741687679199558 0 0 1 0 0 0 1 forward_v I I I I #
coedge $-1 $204 $205 $206 $207 forward $81 $-1 #
coedge $-1 $208 $83 $209 $210 forward $51 $-1 #
coedge $-1 $83 $208 $211 $212 forward $51 $-1 #
coedge $-1 $213 $214 $83 $132 reversed $215 $-1 #
edge $-1 $216 -17.741687679199558 $217 17.741687679199558 $131 $218 forward 7 unknown #
face $-1 $219 $220 $31 $-1 $221 reversed single #
loop $-1 $-1 $222 $84 #
plane-surface $-1 0 0 4.1267684250787458 0 0 1 1 0 0 forward_v I I I I #
coedge $-1 $223 $224 $225 $226 reversed $85 $-1 #
coedge $-1 $227 $87 $228 $229 reversed $54 $-1 #
coedge $-1 $87 $227 $230 $231 reversed $54 $-1 #
coedge $-1 $224 $223 $87 $140 reversed $85 $-1 #
edge $-1 $232 -4.1267684250787458 $233 4.1267684250787458 $139 $234 forward 7 unknown #
face $-1 $235 $236 $32 $-1 $237 reversed single #
loop $-1 $-1 $238 $88 #
plane-surface $-1 12.277993538468799 40.641457061200221 92.847635161570722 -1 0 0 0 0.5877852598018023 0.80901698891910034 forward_v I I I I #
coedge $-1 $239 $240 $241 $242 reversed $89 $-1 #
coedge $-1 $146 $91 $243 $244 reversed $57 $-1 #
coedge $-1 $91 $145 $239 $245 reversed $57 $-1 #
coedge $-1 $241 $246 $91 $148 forward $247 $-1 #
edge $-1 $248 2.5790408514005527 $249 6.9365066801971338 $147 $250 forward 7 unknown #
loop $-1 $-1 $154 $92 #
plane-surface $-1 6.761678924405679 -10.964965809938704 21.817489128013136 0 0.5877852598018023 0.80901698891910034 1 0 0 forward_v I I I I #
loop $-1 $-1 $251 $59 #
coedge $-1 $152 $152 $153 $252 reversed $93 $-1 #
coedge $-1 $153 $153 $152 $252 forward $95 $-1 #
coedge $-1 $154 $154 $96 $155 forward $149 $-1 #
edge $-1 $253 2.696862379639668e-016 $253 6.2831853071796004 $154 $254 forward 7 unknown #
face $-1 $255 $256 $34 $-1 $257 forward single #
loop $-1 $-1 $258 $97 #
plane-surface $-1 -21.38690148426813 -76.490077277683127 65.832620376241735 1 0 0 0 0.66913061440640931 -0.74314481823134659 forward_v I I I I #
coedge $-1 $259 $260 $261 $262 reversed $98 $-1 #
coedge $-1 $161 $100 $263 $264 reversed $63 $-1 #
coedge $-1 $100 $160 $259 $265 reversed $63 $-1 #
coedge $-1 $261 $266 $100 $163 forward $256 $-1 #
edge $-1 $267 20.503350959642006 $268 24.43585580275591 $162 $269 forward 7 unknown #
loop $-1 $-1 $169 $101 #
plane-surface $-1 -15.329216591785311 -17.741687679199565 0.585925083007794 0 -0.66913061440640931 0.74314481823134659 1 0 0 forward_v I I I I #
loop $-1 $-1 $270 $65 #
coedge $-1 $167 $167 $168 $271 reversed $102 $-1 #
coedge $-1 $168 $168 $167 $271 forward $104 $-1 #
coedge $-1 $169 $169 $105 $170 forward $164 $-1 #
edge $-1 $272 4.6283173449926694e-016 $272 6.2831853071796013 $169 $273 forward 7 unknown #
loop $-1 $-1 $176 $106 #
plane-surface $-1 -15.329216591785311 -17.741687679199565 0.585925083007794 0 -0.66913061440640931 0.74314481823134659 1 0 0 forward_v I I I I #
loop $-1 $-1 $274 $68 #
coedge $-1 $174 $174 $175 $275 reversed $107 $-1 #
coedge $-1 $175 $175 $174 $275 forward $109 $-1 #
coedge $-1 $176 $176 $110 $177 forward $171 $-1 #
edge $-1 $276 4.6283173449926694e-016 $276 6.2831853071796013 $176 $277 forward 7 unknown #
face $-1 $278 $279 $37 $-1 $280 reversed single #
loop $-1 $-1 $281 $111 #
plane-surface $-1 20.589151315018064 -76.490077277683127 65.832620376241735 1 0 0 0 0.66913061440640931 -0.74314481823134659 forward_v I I I I #
coedge $-1 $282 $283 $284 $285 reversed $112 $-1 #
coedge $-1 $183 $114 $286 $287 reversed $72 $-1 #
coedge $-1 $114 $182 $282 $288 reversed $72 $-1 #
coedge $-1 $284 $289 $114 $185 forward $290 $-1 #
edge $-1 $291 20.503350959642006 $292 24.43585580275591 $184 $293 forward 7 unknown #
loop $-1 $-1 $191 $115 #
plane-surface $-1 26.646836207500883 -17.741687679199565 0.585925083007794 0 -0.66913061440640931 0.74314481823134659 1 0 0 forward_v I I I I #
loop $-1 $-1 $294 $74 #
coedge $-1 $189 $189 $190 $295 reversed $116 $-1 #
coedge $-1 $190 $190 $189 $295 forward $118 $-1 #
coedge $-1 $191 $191 $119 $192 forward $186 $-1 #
edge $-1 $296 4.6283173449926694e-016 $296 6.2831853071796013 $191 $297 forward 7 unknown #
loop $-1 $-1 $198 $120 #
plane-surface $-1 26.646836207500883 -17.741687679199565 0.585925083007794 0 -0.66913061440640931 0.74314481823134659 1 0 0 forward_v I I I I #
loop $-1 $-1 $298 $77 #
coedge $-1 $196 $196 $197 $299 reversed $121 $-1 #
coedge $-1 $197 $197 $196 $299 forward $123 $-1 #
coedge $-1 $198 $198 $124 $199 forward $193 $-1 #
edge $-1 $300 4.6283173449926694e-016 $300 6.2831853071796013 $198 $301 forward 7 unknown #
face $-1 $302 $303 $30 $-1 $304 reversed single #
loop $-1 $-1 $305 $125 #
plane-surface $-1 -43.899044770653404 0 0 1 0 0 0 0 -1 forward_v I I I I #
coedge $-1 $306 $211 $307 $308 forward $126 $-1 #
coedge $-1 $309 $128 $306 $310 forward $81 $-1 #
coedge $-1 $128 $309 $311 $312 forward $81 $-1 #
coedge $-1 $214 $213 $128 $207 reversed $215 $-1 #
edge $-1 $313 -17.741687679199558 $314 17.741687679199558 $206 $315 forward 7 unknown #
coedge $-1 $130 $129 $316 $317 forward $51 $-1 #
coedge $-1 $318 $319 $129 $210 reversed $303 $-1 #
edge $-1 $217 -43.899044770653404 $320 43.899044770653404 $209 $321 forward 7 unknown #
coedge $-1 $203 $322 $130 $212 reversed $126 $-1 #
edge $-1 $323 -43.899044770653404 $216 43.899044770653404 $211 $324 forward 7 unknown #
coedge $-1 $206 $131 $322 $325 forward $215 $-1 #
coedge $-1 $131 $206 $318 $326 reversed $215 $-1 #
loop $-1 $-1 $213 $302 #
vertex $-1 $132 $327 #
vertex $-1 $132 $328 #
straight-curve $-1 43.899044770653404 0 4.1267684250787458 0 1 0 I I #
face $-1 $329 $330 $31 $-1 $331 reversed single #
loop $-1 $-1 $332 $133 #
plane-surface $-1 -43.899044770653404 0 0 1 0 0 0 0 -1 forward_v I I I I #
coedge $-1 $230 $333 $224 $334 forward $134 $-1 #
coedge $-1 $139 $136 $335 $336 reversed $85 $-1 #
coedge $-1 $136 $139 $222 $334 reversed $85 $-1 #
coedge $-1 $337 $338 $136 $226 forward $339 $-1 #
edge $-1 $340 -4.1267684250787458 $341 4.1267684250787458 $225 $342 forward 7 unknown #
coedge $-1 $138 $137 $332 $343 reversed $54 $-1 #
coedge $-1 $335 $344 $137 $229 forward $330 $-1 #
edge $-1 $345 -22.911018371010311 $233 -19.065034428275876 $228 $346 forward 7 unknown #
coedge $-1 $347 $222 $138 $231 forward $134 $-1 #
edge $-1 $232 19.065034428275876 $348 22.911018371010311 $230 $349 forward 7 unknown #
vertex $-1 $231 $350 #
vertex $-1 $229 $351 #
straight-curve $-1 -40.053060827918969 -14.741687679199558 0 0 0 -1 I I #
face $-1 $-1 $247 $32 $-1 $352 forward single #
loop $-1 $-1 $353 $141 #
plane-surface $-1 0 17.741687679199558 0 0 -1 0 0 0 -1 forward_v I I I I #
coedge $-1 $354 $355 $356 $357 reversed $142 $-1 #
coedge $-1 $358 $144 $146 $245 forward $89 $-1 #
coedge $-1 $144 $358 $354 $359 forward $89 $-1 #
coedge $-1 $356 $147 $144 $242 forward $247 $-1 #
edge $-1 $249 -2.1354751518602804 $360 8.8971540762659593 $241 $361 forward 7 unknown #
coedge $-1 $362 $363 $145 $244 forward $236 $-1 #
edge $-1 $364 -45.462933456453726 $248 -42.297049155706617 $243 $365 forward 7 unknown #
edge $-1 $249 30.097251348051152 $364 35.483375358399122 $146 $366 forward 7 unknown #
coedge $-1 $147 $356 $362 $367 forward $247 $-1 #
loop $-1 $-1 $356 $235 #
vertex $-1 $244 $368 #
vertex $-1 $148 $369 #
straight-curve $-1 1.2453643103425591 20.32072853060011 4.126768425078744 0 -1 0 I I #
coedge $-1 $251 $251 $-1 $370 reversed $151 $-1 #
edge $-1 $371 0 $371 6.2831853071796004 $152 $372 forward 7 unknown #
vertex $-1 $155 $373 #
ellipse-curve $-1 6.761678924405679 15.562954764801267 2.5438262747051876 0 0.5877852598018023 0.80901698891910034 1 0 0 1 I I #
face $-1 $-1 $374 $34 $-1 $375 reversed single #
loop $-1 $-1 $162 $156 #
plane-surface $-1 0 0 4.1267684250787458 0 0 1 1 0 0 forward_v I I I I #
coedge $-1 $376 $377 $378 $379 reversed $157 $-1 #
coedge $-1 $380 $159 $161 $265 forward $98 $-1 #
coedge $-1 $159 $380 $376 $381 forward $98 $-1 #
coedge $-1 $378 $162 $159 $262 forward $256 $-1 #
edge $-1 $268 1.6069234034098354 $382 13.722293188375474 $261 $383 forward 7 unknown #
coedge $-1 $384 $385 $160 $264 forward $374 $-1 #
edge $-1 $386 -32.330385105113066 $267 -28.789541763042124 $263 $387 forward 7 unknown #
edge $-1 $268 -5.291707277826557 $386 -9.5890899667747578e-015 $161 $388 forward 7 unknown #
coedge $-1 $162 $378 $384 $389 forward $256 $-1 #
vertex $-1 $163 $390 #
vertex $-1 $163 $391 #
straight-curve $-1 -9.271531699302491 -38.245038638841564 4.126768425078744 0 1 0 I I #
coedge $-1 $270 $270 $-1 $392 reversed $166 $-1 #
edge $-1 $393 0 $393 6.2831853071796004 $167 $394 forward 7 unknown #
vertex $-1 $170 $395 #
ellipse-curve $-1 -17.925367259992235 -15.775435257642606 2.3563467540432725 0 -0.66913061440640931 0.74314481823134659 1 0 0 1 I I #
coedge $-1 $274 $274 $-1 $396 reversed $173 $-1 #
edge $-1 $397 0 $397 6.2831853071796004 $174 $398 forward 7 unknown #
vertex $-1 $177 $399 #
ellipse-curve $-1 -12.733065923578387 -15.775435257642606 2.3563467540432725 0 -0.66913061440640931 0.74314481823134659 1 0 0 1 I I #
face $-1 $-1 $290 $37 $-1 $400 forward single #
loop $-1 $-1 $401 $178 #
plane-surface $-1 0 -17.741687679199558 0 0 1 0 0 0 1 forward_v I I I I #
coedge $-1 $402 $403 $404 $405 reversed $179 $-1 #
coedge $-1 $406 $181 $183 $288 forward $112 $-1 #
coedge $-1 $181 $406 $402 $407 forward $112 $-1 #
coedge $-1 $404 $184 $181 $285 forward $290 $-1 #
edge $-1 $292 -19.38110299623326 $408 -7.2657332112676229 $284 $409 forward 7 unknown #
coedge $-1 $410 $411 $182 $287 forward $279 $-1 #
edge $-1 $412 -32.330385105113066 $291 -28.789541763042124 $286 $413 forward 7 unknown #
edge $-1 $292 -5.291707277826557 $412 -9.5890899667747578e-015 $183 $414 forward 7 unknown #
coedge $-1 $184 $404 $410 $415 forward $290 $-1 #
loop $-1 $-1 $404 $278 #
vertex $-1 $287 $416 #
vertex $-1 $185 $417 #
straight-curve $-1 32.704521099983701 -38.245038638841564 4.126768425078744 0 1 0 I I #
coedge $-1 $294 $294 $-1 $418 reversed $188 $-1 #
edge $-1 $419 0 $419 6.2831853071796004 $189 $420 forward 7 unknown #
vertex $-1 $192 $421 #
ellipse-curve $-1 24.050685539293951 -15.775435257642606 2.3563467540432725 0 -0.66913061440640931 0.74314481823134659 1 0 0 1 I I #
coedge $-1 $298 $298 $-1 $422 reversed $195 $-1 #
edge $-1 $423 0 $423 6.2831853071796004 $196 $424 forward 7 unknown #
vertex $-1 $199 $425 #
ellipse-curve $-1 29.2429868757078 -15.775435257642606 2.3563467540432725 0 -0.66913061440640931 0.74314481823134659 1 0 0 1 I I #
face $-1 $-1 $215 $30 $-1 $426 reversed single #
loop $-1 $-1 $318 $200 #
plane-surface $-1 0 17.741687679199558 0 0 -1 0 0 0 -1 forward_v I I I I #
coedge $-1 $427 $316 $319 $428 forward $201 $-1 #
coedge $-1 $322 $203 $204 $310 reversed $126 $-1 #
coedge $-1 $316 $427 $203 $308 reversed $201 $-1 #
edge $-1 $323 -4.1267684250787458 $429 4.1267684250787458 $307 $430 forward 7 unknown #
coedge $-1 $205 $204 $427 $431 forward $81 $-1 #
edge $-1 $314 -43.899044770653404 $429 43.899044770653404 $306 $432 forward 7 unknown #
coedge $-1 $319 $318 $205 $312 reversed $303 $-1 #
edge $-1 $433 -43.899044770653404 $313 43.899044770653404 $311 $434 forward 7 unknown #
vertex $-1 $207 $435 #
vertex $-1 $325 $436 #
straight-curve $-1 43.899044770653404 0 -4.1267684250787458 0 -1 0 I I #
coedge $-1 $305 $307 $208 $317 reversed $201 $-1 #
edge $-1 $320 -17.741687679199558 $323 17.741687679199558 $316 $437 forward 7 unknown #
coedge $-1 $311 $209 $214 $326 forward $303 $-1 #
coedge $-1 $209 $311 $305 $428 reversed $303 $-1 #
vertex $-1 $210 $438 #
straight-curve $-1 0 17.741687679199558 4.1267684250787458 -1 0 0 I I #
coedge $-1 $211 $306 $213 $325 reversed $126 $-1 #
vertex $-1 $317 $439 #
straight-curve $-1 0 -17.741687679199558 4.1267684250787458 1 0 0 I I #
edge $-1 $216 -4.1267684250787458 $314 4.1267684250787458 $213 $440 forward 7 unknown #
edge $-1 $217 -4.1267684250787458 $313 4.1267684250787458 $214 $441 forward 7 unknown #
point $-1 43.899044770653404 -17.741687679199558 4.1267684250787458 #
point $-1 43.899044770653404 17.741687679199558 4.1267684250787458 #
face $-1 $-1 $339 $31 $-1 $442 reversed single #
loop $-1 $-1 $335 $219 #
plane-surface $-1 0 0 -4.1267684250787458 0 0 1 1 0 0 forward_v I I I I #
coedge $-1 $443 $444 $227 $343 forward $220 $-1 #
coedge $-1 $222 $347 $337 $445 forward $134 $-1 #
edge $-1 $341 -9.6208438395997788 $232 -6.6208438395997788 $222 $446 forward 7 unknown #
coedge $-1 $447 $228 $223 $336 forward $330 $-1 #
edge $-1 $233 6.6208438395997788 $340 9.6208438395997788 $335 $448 forward 7 unknown #
coedge $-1 $449 $225 $333 $445 reversed $339 $-1 #
coedge $-1 $225 $449 $447 $450 reversed $339 $-1 #
loop $-1 $-1 $225 $329 #
vertex $-1 $450 $451 #
vertex $-1 $226 $452 #
straight-curve $-1 -40.053060827918969 -17.741687679199558 0 0 0 1 I I #
edge $-1 $348 -4.1267684250787458 $345 4.1267684250787458 $332 $453 forward 7 unknown #
coedge $-1 $228 $447 $443 $454 forward $330 $-1 #
vertex $-1 $229 $455 #
straight-curve $-1 -20.988026399643093 -14.741687679199558 -4.1267684250787458 1 0 0 I I #
coedge $-1 $333 $230 $444 $456 forward $134 $-1 #
vertex $-1 $456 $457 #
straight-curve $-1 -20.988026399643093 -14.741687679199558 4.1267684250787458 -1 0 0 I I #
point $-1 -40.053060827918969 -14.741687679199558 4.1267684250787458 #
point $-1 -40.053060827918969 -14.741687679199558 -4.1267684250787458 #
plane-surface $-1 0 0 4.1267684250787458 0 0 1 1 0 0 forward_v I I I I #
coedge $-1 $363 $362 $355 $458 forward $236 $-1 #
coedge $-1 $355 $238 $240 $359 reversed $142 $-1 #
coedge $-1 $238 $354 $353 $458 reversed $142 $-1 #
coedge $-1 $246 $241 $238 $357 forward $247 $-1 #
edge $-1 $360 -6.9365066801971338 $459 -2.5790408514005527 $356 $460 forward 7 unknown #
coedge $-1 $240 $239 $363 $461 reversed $89 $-1 #
edge $-1 $462 -35.483375358399122 $360 -30.097251348051152 $354 $463 forward 7 unknown #
vertex $-1 $242 $464 #
straight-curve $-1 3.3808394622028395 13.384221850402973 4.126768425078744 1 0 0 I I #
coedge $-1 $353 $243 $246 $367 reversed $236 $-1 #
coedge $-1 $243 $353 $358 $461 forward $236 $-1 #
vertex $-1 $244 $465 #
straight-curve $-1 1.2453643103425591 17.741687679199558 46.423817580785361 0 0 1 I I #
straight-curve $-1 1.2453643103425591 -10.964965809938704 21.817489128013136 0 0.80901698891910034 -0.5877852598018023 I I #
edge $-1 $459 -12.277993538468799 $248 -1.2453643103425591 $362 $466 forward 7 unknown #
point $-1 1.2453643103425591 17.741687679199558 4.1267684250787458 #
point $-1 1.2453643103425591 13.384221850402977 4.126768425078744 #
edge $-1 $467 1 $467 0 $251 $-1 forward 7 unknown #
vertex $-1 $252 $468 #
ellipse-curve $-1 6.761678924405679 14.846713123718287 1.5580042484726557 0 0.5877852598018023 0.80901698891910034 1 0 0 1 I I #
point $-1 7.761678924405679 15.562954764801278 2.5438262747052018 #
loop $-1 $-1 $263 $255 #
plane-surface $-1 0 -17.741687679199558 0 0 1 0 0 0 1 forward_v I I I I #
coedge $-1 $377 $258 $260 $381 reversed $157 $-1 #
coedge $-1 $258 $376 $469 $470 reversed $157 $-1 #
coedge $-1 $266 $261 $258 $379 forward $256 $-1 #
edge $-1 $382 -24.43585580275591 $471 -20.503350959642006 $378 $472 forward 7 unknown #
coedge $-1 $260 $259 $385 $473 reversed $98 $-1 #
edge $-1 $474 9.5890899667747578e-015 $382 5.291707277826557 $376 $475 forward 7 unknown #
vertex $-1 $262 $476 #
straight-curve $-1 -7.6646082958926556 -13.809182836085654 4.1267684250787458 -1 0 0 I I #
coedge $-1 $469 $263 $266 $389 reversed $374 $-1 #
coedge $-1 $263 $469 $380 $473 forward $374 $-1 #
vertex $-1 $264 $477 #
straight-curve $-1 -9.271531699302491 -17.741687679199558 32.916310188120868 0 0 1 I I #
straight-curve $-1 -9.271531699302491 -17.741687679199565 0.585925083007794 0 -0.74314481823134659 -0.66913061440640931 I I #
edge $-1 $471 -21.38690148426813 $267 -9.271531699302491 $384 $478 forward 7 unknown #
point $-1 -9.271531699302491 -17.741687679199558 4.1267684250787458 #
point $-1 -9.271531699302491 -13.809182836085654 4.1267684250787458 #
edge $-1 $479 1 $479 0 $270 $-1 forward 7 unknown #
vertex $-1 $271 $480 #
ellipse-curve $-1 -17.925367259992235 -14.786697622572888 1.2582423865660779 0 -0.66913061440640931 0.74314481823134659 1 0 0 1 I I #
point $-1 -16.925367259992235 -15.775435257642608 2.3563467540432752 #
edge $-1 $481 1 $481 0 $274 $-1 forward 7 unknown #
vertex $-1 $275 $482 #
ellipse-curve $-1 -12.733065923578387 -14.786697622572888 1.2582423865660779 0 -0.66913061440640931 0.74314481823134659 1 0 0 1 I I #
point $-1 -11.733065923578387 -15.775435257642608 2.3563467540432752 #
plane-surface $-1 0 0 4.1267684250787458 0 0 1 1 0 0 forward_v I I I I #
coedge $-1 $411 $410 $403 $483 forward $279 $-1 #
coedge $-1 $403 $281 $283 $407 reversed $179 $-1 #
coedge $-1 $281 $402 $401 $483 reversed $179 $-1 #
coedge $-1 $289 $284 $281 $405 forward $290 $-1 #
edge $-1 $408 -24.43585580275591 $484 -20.503350959642006 $404 $485 forward 7 unknown #
coedge $-1 $283 $282 $411 $486 reversed $112 $-1 #
edge $-1 $487 9.5890899667747578e-015 $408 5.291707277826557 $402 $488 forward 7 unknown #
vertex $-1 $285 $489 #
straight-curve $-1 13.323418103750441 -13.809182836085654 4.1267684250787458 -1 0 0 I I #
coedge $-1 $401 $286 $289 $415 reversed $279 $-1 #
coedge $-1 $286 $401 $406 $486 forward $279 $-1 #
vertex $-1 $287 $490 #
straight-curve $-1 32.704521099983701 -17.741687679199558 32.916310188120868 0 0 1 I I #
straight-curve $-1 32.704521099983701 -17.741687679199565 0.585925083007794 0 -0.74314481823134659 -0.66913061440640931 I I #
edge $-1 $484 20.589151315018064 $291 32.704521099983701 $410 $491 forward 7 unknown #
point $-1 32.704521099983701 -17.741687679199558 4.1267684250787458 #
point $-1 32.704521099983701 -13.809182836085654 4.1267684250787458 #
edge $-1 $492 1 $492 0 $294 $-1 forward 7 unknown #
vertex $-1 $295 $493 #
ellipse-curve $-1 24.050685539293951 -14.786697622572888 1.2582423865660779 0 -0.66913061440640931 0.74314481823134659 1 0 0 1 I I #
point $-1 25.050685539293951 -15.775435257642608 2.3563467540432752 #
edge $-1 $494 1 $494 0 $298 $-1 forward 7 unknown #
vertex $-1 $299 $495 #
ellipse-curve $-1 29.2429868757078 -14.786697622572888 1.2582423865660779 0 -0.66913061440640931 0.74314481823134659 1 0 0 1 I I #
point $-1 30.2429868757078 -15.775435257642608 2.3563467540432752 #
plane-surface $-1 43.899044770653404 0 0 -1 0 0 0 0 1 forward_v I I I I #
coedge $-1 $307 $305 $309 $431 reversed $201 $-1 #
edge $-1 $320 -4.1267684250787458 $433 4.1267684250787458 $319 $496 forward 7 unknown #
vertex $-1 $431 $497 #
straight-curve $-1 -43.899044770653404 -17.741687679199558 0 0 0 -1 I I #
edge $-1 $429 -17.741687679199558 $433 17.741687679199558 $427 $498 forward 7 unknown #
straight-curve $-1 0 -17.741687679199558 -4.1267684250787458 -1 0 0 I I #
vertex $-1 $312 $499 #
straight-curve $-1 0 17.741687679199558 -4.1267684250787458 1 0 0 I I #
point $-1 43.899044770653404 17.741687679199558 -4.1267684250787458 #
point $-1 43.899044770653404 -17.741687679199558 -4.1267684250787458 #
straight-curve $-1 -43.899044770653404 0 4.1267684250787458 0 -1 0 I I #
point $-1 -43.899044770653404 17.741687679199558 4.1267684250787458 #
point $-1 -43.899044770653404 -17.741687679199558 4.1267684250787458 #
straight-curve $-1 43.899044770653404 -17.741687679199558 0 0 0 -1 I I #
straight-curve $-1 43.899044770653404 17.741687679199558 0 0 0 -1 I I #
plane-surface $-1 0 -17.741687679199558 0 0 1 0 0 0 1 forward_v I I I I #
coedge $-1 $500 $332 $344 $454 reversed $220 $-1 #
coedge $-1 $332 $500 $347 $456 reversed $220 $-1 #
edge $-1 $501 -43.899044770653404 $341 -40.053060827918969 $337 $502 forward 7 unknown #
straight-curve $-1 -40.053060827918969 -8.1208438395997788 4.1267684250787458 0 1 0 I I #
coedge $-1 $344 $335 $338 $450 forward $330 $-1 #
straight-curve $-1 -40.053060827918969 -8.1208438395997788 -4.1267684250787458 0 -1 0 I I #
coedge $-1 $338 $337 $500 $503 forward $339 $-1 #
edge $-1 $340 40.053060827918969 $504 43.899044770653404 $338 $505 forward 7 unknown #
point $-1 -40.053060827918969 -17.741687679199558 -4.1267684250787458 #
point $-1 -40.053060827918969 -17.741687679199558 4.1267684250787458 #
straight-curve $-1 -43.899044770653404 -14.741687679199558 0 0 0 -1 I I #
edge $-1 $504 -17.741687679199558 $345 -14.741687679199558 $443 $506 forward 7 unknown #
point $-1 -43.899044770653404 -14.741687679199558 -4.1267684250787458 #
edge $-1 $348 14.741687679199558 $501 17.741687679199558 $444 $507 forward 7 unknown #
point $-1 -43.899044770653404 -14.741687679199558 4.1267684250787458 #
edge $-1 $459 42.297049155706617 $462 45.462933456453726 $353 $508 forward 7 unknown #
vertex $-1 $367 $509 #
straight-curve $-1 12.277993538468799 20.32072853060011 4.126768425078744 0 1 0 I I #
edge $-1 $462 -8.8971540762659593 $364 2.1354751518602804 $363 $510 forward 7 unknown #
vertex $-1 $461 $511 #
straight-curve $-1 12.277993538468799 -10.964965809938704 21.817489128013136 0 -0.80901698891910034 0.5877852598018023 I I #
point $-1 12.277993538468799 13.384221850402977 4.126768425078744 #
point $-1 1.2453643103425591 17.741687679199558 0.96088412433163839 #
straight-curve $-1 0 17.741687679199558 4.1267684250787458 -1 0 0 I I #
vertex $-1 $370 $512 #
point $-1 7.761678924405679 14.846713123718287 1.5580042484726557 #
coedge $-1 $385 $384 $377 $470 forward $374 $-1 #
edge $-1 $471 28.789541763042124 $474 32.330385105113066 $469 $513 forward 7 unknown #
vertex $-1 $389 $514 #
straight-curve $-1 -21.38690148426813 -38.245038638841564 4.126768425078744 0 -1 0 I I #
edge $-1 $474 -13.722293188375474 $386 -1.6069234034098354 $385 $515 forward 7 unknown #
vertex $-1 $473 $516 #
straight-curve $-1 -21.38690148426813 -17.741687679199565 0.585925083007794 0 0.74314481823134659 0.66913061440640931 I I #
point $-1 -21.38690148426813 -13.809182836085654 4.1267684250787458 #
point $-1 -9.271531699302491 -17.741687679199558 0.58592508300780044 #
straight-curve $-1 0 -17.741687679199558 4.1267684250787458 1 0 0 I I #
vertex $-1 $392 $517 #
point $-1 -16.925367259992235 -14.786697622572888 1.2582423865660779 #
vertex $-1 $396 $518 #
point $-1 -11.733065923578387 -14.786697622572888 1.2582423865660779 #
edge $-1 $484 28.789541763042124 $487 32.330385105113066 $401 $519 forward 7 unknown #
vertex $-1 $415 $520 #
straight-curve $-1 20.589151315018064 -38.245038638841564 4.126768425078744 0 -1 0 I I #
edge $-1 $487 7.2657332112676229 $412 19.38110299623326 $411 $521 forward 7 unknown #
vertex $-1 $486 $522 #
straight-curve $-1 20.589151315018064 -17.741687679199565 0.585925083007794 0 0.74314481823134659 0.66913061440640931 I I #
point $-1 20.589151315018064 -13.809182836085654 4.1267684250787458 #
point $-1 32.704521099983701 -17.741687679199558 0.58592508300780044 #
straight-curve $-1 0 -17.741687679199558 4.1267684250787458 1 0 0 I I #
vertex $-1 $418 $523 #
point $-1 25.050685539293951 -14.786697622572888 1.2582423865660779 #
vertex $-1 $422 $524 #
point $-1 30.2429868757078 -14.786697622572888 1.2582423865660779 #
straight-curve $-1 -43.899044770653404 17.741687679199558 0 0 0 -1 I I #
point $-1 -43.899044770653404 -17.741687679199558 -4.1267684250787458 #
straight-curve $-1 -43.899044770653404 0 -4.1267684250787458 0 1 0 I I #
point $-1 -43.899044770653404 17.741687679199558 -4.1267684250787458 #
coedge $-1 $444 $443 $449 $503 reversed $220 $-1 #
vertex $-1 $456 $525 #
straight-curve $-1 0 -17.741687679199558 4.1267684250787458 1 0 0 I I #
edge $-1 $501 -4.1267684250787458 $504 4.1267684250787458 $500 $526 forward 7 unknown #
vertex $-1 $454 $527 #
straight-curve $-1 0 -17.741687679199558 -4.1267684250787458 -1 0 0 I I #
straight-curve $-1 -43.899044770653404 0 -4.1267684250787458 0 1 0 I I #
straight-curve $-1 -43.899044770653404 0 4.1267684250787458 0 -1 0 I I #
straight-curve $-1 12.277993538468799 17.741687679199558 46.423817580785361 0 0 -1 I I #
point $-1 12.277993538468799 17.741687679199558 4.1267684250787458 #
straight-curve $-1 3.3808394622028395 17.741687679199558 0.96088412433163661 -1 0 0 I I #
point $-1 12.277993538468799 17.741687679199558 0.96088412433163839 #
point $-1 6.761678924405679 14.258927863916485 0.7489872595535555 #
straight-curve $-1 -21.38690148426813 -17.741687679199558 32.916310188120868 0 0 -1 I I #
point $-1 -21.38690148426813 -17.741687679199558 4.1267684250787458 #
straight-curve $-1 -7.6646082958926556 -17.741687679199558 0.58592508300779933 1 0 0 I I #
point $-1 -21.38690148426813 -17.741687679199558 0.58592508300780044 #
point $-1 -17.925367259992235 -14.117567008166478 0.51509756833473119 #
point $-1 -12.733065923578387 -14.117567008166478 0.51509756833473119 #
straight-curve $-1 20.589151315018064 -17.741687679199558 32.916310188120868 0 0 -1 I I #
point $-1 20.589151315018064 -17.741687679199558 4.1267684250787458 #
straight-curve $-1 13.323418103750441 -17.741687679199558 0.58592508300779933 1 0 0 I I #
point $-1 20.589151315018064 -17.741687679199558 0.58592508300780044 #
point $-1 24.050685539293951 -14.117567008166478 0.51509756833473119 #
point $-1 29.2429868757078 -14.117567008166478 0.51509756833473119 #
point $-1 -43.899044770653404 -17.741687679199558 4.1267684250787458 #
straight-curve $-1 -43.899044770653404 -17.741687679199558 0 0 0 -1 I I #
point $-1 -43.899044770653404 -17.741687679199558 -4.1267684250787458 #
End-of-ACIS-data 