500 0 8 0           
7 Unknown 11 ACIS 5.0 NT 24 Thu Mar 25 20:52:26 1999 
-1 9.9999999999999995e-007 1e-010 
body $-1 $8 $-1 $9 #
body $-1 $10 $-1 $11 #
body $-1 $12 $-1 $13 #
body $-1 $14 $-1 $15 #
body $-1 $16 $-1 $17 #
body $-1 $18 $-1 $19 #
body $-1 $20 $-1 $21 #
body $-1 $22 $-1 $23 #
lump $-1 $-1 $24 $0 #
transform $-1 1 0 0 0 1 0 0 0 1 49.989318521683401 32.394274472051791 7.3232394833742376 1 rotate no_reflect no_shear #
lump $-1 $-1 $25 $1 #
transform $-1 1 0 0 0 1 0 0 0 1 49.989318521683401 32.394274472051791 7.3232394833742376 1 rotate no_reflect no_shear #
lump $-1 $-1 $26 $2 #
transform $-1 1 0 0 0 1 0 0 0 1 49.989318521683401 32.394274472051791 7.3232394833742376 1 rotate no_reflect no_shear #
lump $-1 $-1 $27 $3 #
transform $-1 1 0 0 0 1 0 0 0 1 49.989318521683401 32.394274472051791 7.3232394833742376 1 rotate no_reflect no_shear #
lump $-1 $-1 $28 $4 #
transform $-1 1 0 0 0 1 0 0 0 1 49.989318521683401 32.394274472051791 7.3232394833742376 1 rotate no_reflect no_shear #
lump $-1 $-1 $29 $5 #
transform $-1 1 0 0 0 1 0 0 0 1 49.989318521683401 32.394274472051791 7.3232394833742376 1 rotate no_reflect no_shear #
lump $-1 $-1 $30 $6 #
transform $-1 1 0 0 0 1 0 0 0 1 49.989318521683401 32.394274472051791 7.3232394833742376 1 rotate no_reflect no_shear #
lump $-1 $-1 $31 $7 #
transform $-1 1 0 0 0 1 0 0 0 1 49.989318521683401 32.394274472051791 7.3232394833742376 1 rotate no_reflect no_shear #
shell $-1 $-1 $-1 $32 $-1 $8 #
shell $-1 $-1 $-1 $33 $-1 $10 #
shell $-1 $-1 $-1 $34 $-1 $12 #
shell $-1 $-1 $-1 $35 $-1 $14 #
shell $-1 $-1 $-1 $36 $-1 $16 #
shell $-1 $-1 $-1 $37 $-1 $18 #
shell $-1 $-1 $-1 $38 $-1 $20 #
shell $-1 $-1 $-1 $39 $-1 $22 #
face $-1 $40 $41 $24 $-1 $42 forward single #
face $-1 $43 $44 $25 $-1 $45 forward single #
face $-1 $46 $47 $26 $-1 $48 forward single #
face $-1 $49 $50 $27 $-1 $51 reversed single #
face $-1 $52 $53 $28 $-1 $54 forward single #
face $-1 $55 $56 $29 $-1 $57 reversed single #
face $-1 $58 $59 $30 $-1 $60 forward single #
face $-1 $61 $62 $31 $-1 $63 forward single #
face $-1 $64 $65 $24 $-1 $66 reversed single #
loop $-1 $-1 $67 $32 #
plane-surface $-1 0 0 7.3232394833742376 0 0 1 1 0 0 forward_v I I I I #
face $-1 $68 $69 $25 $-1 $70 reversed single #
loop $-1 $-1 $71 $33 #
plane-surface $-1 0 -32.394274472051791 0 0 1 0 0 0 1 forward_v I I I I #
face $-1 $72 $73 $26 $-1 $74 reversed single #
loop $-1 $-1 $75 $34 #
plane-surface $-1 0 32.394274472051791 0 0 -1 0 0 0 -1 forward_v I I I I #
face $-1 $76 $77 $27 $-1 $78 reversed single #
loop $-1 $-1 $79 $35 #
plane-surface $-1 -128.773560468065 9.517533668697908 64.22409564184305 0 1 0 -0.78801076186113728 0 0.61566146476048833 forward_v I I I I #
face $-1 $80 $81 $28 $-1 $82 forward single #
loop $-1 $83 $84 $36 #
cone-surface $-1 -47.240531774992078 16.148748374868383 4.269432230390767 0.78801076186113728 0 -0.61566146476048833 0.61566146476048833 0 0.78801076186113728 1 I I 0 1 1 forward I I I I #
face $-1 $85 $86 $29 $-1 $87 reversed single #
loop $-1 $-1 $88 $37 #
plane-surface $-1 47.521704405832409 14.242950184510736 145.19134993517278 0 -1 0 -0.69465837861970381 0 -0.71933979245794832 forward_v I I I I #
face $-1 $89 $90 $30 $-1 $91 forward single #
loop $-1 $92 $93 $38 #
cone-surface $-1 47.130200182356667 6.0007065579327374 4.4891552813883688 -0.69465837861970381 0 -0.71933979245794832 0.71933979245794832 0 -0.69465837861970381 1 I I 0 1 1 forward I I I I #
face $-1 $94 $95 $31 $-1 $96 forward single #
loop $-1 $97 $98 $39 #
cone-surface $-1 47.130200182356667 10.94605273387954 4.4891552813883688 -0.69465837861970381 0 -0.71933979245794832 0.71933979245794832 0 -0.69465837861970381 1 I I 0 1 1 forward I I I I #
face $-1 $99 $100 $24 $-1 $101 reversed single #
loop $-1 $-1 $102 $40 #
plane-surface $-1 0 0 -7.3232394833742376 0 0 1 1 0 0 forward_v I I I I #
coedge $-1 $103 $104 $105 $106 forward $41 $-1 #
face $-1 $107 $108 $25 $-1 $109 reversed single #
loop $-1 $-1 $110 $43 #
plane-surface $-1 0 0 -7.3232394833742376 0 0 1 1 0 0 forward_v I I I I #
coedge $-1 $111 $112 $113 $114 forward $44 $-1 #
face $-1 $115 $116 $26 $-1 $117 reversed single #
loop $-1 $-1 $118 $46 #
plane-surface $-1 0 0 -7.3232394833742376 0 0 1 1 0 0 forward_v I I I I #
coedge $-1 $119 $120 $121 $122 forward $47 $-1 #
face $-1 $123 $124 $27 $-1 $125 reversed single #
loop $-1 $-1 $126 $49 #
plane-surface $-1 -49.989318521683401 16.148748374868383 2.6711015149666295 -0.78801076186113728 0 0.61566146476048833 0.61566146476048833 0 0.78801076186113728 forward_v I I I I #
coedge $-1 $127 $128 $129 $130 reversed $50 $-1 #
face $-1 $-1 $131 $28 $-1 $132 forward single #
loop $-1 $133 $134 $52 #
cone-surface $-1 -45.915063860768697 16.148748374868383 3.2338632292308596 0.78801076186113728 0 -0.61566146476048833 0.30783073238024417 0 0.39400538093056864 1 I I -0.70710678118654746 0.70710678118654746 0.5 forward I I I I #
loop $-1 $-1 $135 $36 #
coedge $-1 $84 $84 $136 $137 reversed $53 $-1 #
face $-1 $138 $139 $29 $-1 $140 reversed single #
loop $-1 $-1 $141 $55 #
plane-surface $-1 -21.929293499320636 8.4733796459061352 73.272737914168758 0.69465837861970381 0 0.71933979245794832 0.71933979245794832 0 -0.69465837861970381 forward_v I I I I #
coedge $-1 $142 $143 $144 $145 reversed $56 $-1 #
face $-1 $-1 $146 $30 $-1 $147 forward single #
loop $-1 $148 $149 $58 #
cone-surface $-1 45.736707037270094 6.0007065579327374 3.0461509203527726 -0.69465837861970381 0 -0.71933979245794832 0.35966989622897416 0 -0.3473291893098519 1 I I -0.70710678118654746 0.70710678118654746 0.5 forward I I I I #
loop $-1 $-1 $150 $38 #
coedge $-1 $93 $93 $151 $152 reversed $59 $-1 #
face $-1 $-1 $153 $31 $-1 $154 forward single #
loop $-1 $155 $156 $61 #
cone-surface $-1 45.736707037270094 10.94605273387954 3.0461509203527726 -0.69465837861970381 0 -0.71933979245794832 0.35966989622897416 0 -0.3473291893098519 1 I I -0.70710678118654746 0.70710678118654746 0.5 forward I I I I #
loop $-1 $-1 $157 $39 #
coedge $-1 $98 $98 $158 $159 reversed $62 $-1 #
face $-1 $160 $161 $24 $-1 $162 reversed single #
loop $-1 $-1 $163 $64 #
plane-surface $-1 0 -32.394274472051791 0 0 1 0 0 0 1 forward_v I I I I #
coedge $-1 $164 $165 $166 $167 forward $65 $-1 #
coedge $-1 $168 $67 $169 $170 forward $41 $-1 #
coedge $-1 $67 $168 $171 $172 forward $41 $-1 #
coedge $-1 $173 $174 $67 $106 reversed $175 $-1 #
edge $-1 $176 -32.394274472051791 $177 32.394274472051791 $105 $178 forward 7 unknown #
face $-1 $179 $180 $25 $-1 $181 reversed single #
loop $-1 $-1 $182 $68 #
plane-surface $-1 -37.3684806285017 -42.008585863064724 0 0 1 0 0 0 1 forward_v I I I I #
coedge $-1 $183 $184 $112 $185 forward $69 $-1 #
coedge $-1 $186 $71 $187 $188 reversed $44 $-1 #
coedge $-1 $71 $186 $110 $185 reversed $44 $-1 #
coedge $-1 $189 $190 $71 $114 reversed $180 $-1 #
edge $-1 $191 -7.3232394833742376 $192 7.3232394833742376 $113 $193 forward 7 unknown #
face $-1 $194 $195 $26 $-1 $196 reversed single #
loop $-1 $-1 $197 $72 #
plane-surface $-1 -39.394121702068475 37.201430167558257 0 1 0 0 0 0 -1 forward_v I I I I #
coedge $-1 $198 $199 $120 $200 forward $73 $-1 #
coedge $-1 $201 $75 $202 $203 reversed $47 $-1 #
coedge $-1 $75 $201 $118 $200 reversed $47 $-1 #
coedge $-1 $204 $205 $75 $122 reversed $206 $-1 #
edge $-1 $207 -7.3232394833742376 $208 7.3232394833742376 $121 $209 forward 7 unknown #
face $-1 $210 $211 $27 $-1 $212 reversed single #
loop $-1 $-1 $213 $76 #
plane-surface $-1 -128.773560468065 22.779963081038858 64.22409564184305 0 -1 0 0.78801076186113728 0 -0.61566146476048833 forward_v I I I I #
coedge $-1 $214 $215 $216 $217 reversed $77 $-1 #
coedge $-1 $128 $79 $218 $219 reversed $50 $-1 #
coedge $-1 $79 $127 $214 $220 reversed $50 $-1 #
coedge $-1 $216 $221 $79 $130 forward $222 $-1 #
edge $-1 $223 14.397461712349099 $224 18.032110139146127 $129 $225 forward 7 unknown #
loop $-1 $-1 $136 $80 #
plane-surface $-1 -49.989318521683401 16.148748374868383 2.6711015149666295 -0.78801076186113728 0 0.61566146476048833 0.61566146476048833 0 0.78801076186113728 forward_v I I I I #
loop $-1 $-1 $226 $52 #
coedge $-1 $134 $134 $135 $227 reversed $81 $-1 #
coedge $-1 $135 $135 $134 $227 forward $83 $-1 #
coedge $-1 $136 $136 $84 $137 forward $131 $-1 #
edge $-1 $228 0 $228 6.2831853071796004 $136 $229 forward 7 unknown #
face $-1 $230 $231 $29 $-1 $232 forward single #
loop $-1 $-1 $233 $85 #
plane-surface $-1 47.521704405832409 2.7038091073015345 145.19134993517278 0 1 0 0.69465837861970381 0 0.71933979245794832 forward_v I I I I #
coedge $-1 $234 $235 $236 $237 reversed $86 $-1 #
coedge $-1 $143 $88 $238 $239 reversed $56 $-1 #
coedge $-1 $88 $142 $234 $240 reversed $56 $-1 #
coedge $-1 $236 $241 $88 $145 forward $231 $-1 #
edge $-1 $242 -26.228466318767197 $243 -22.602557551667154 $144 $244 forward 7 unknown #
loop $-1 $-1 $151 $89 #
plane-surface $-1 -21.929293499320636 8.4733796459061352 73.272737914168758 0.69465837861970381 0 0.71933979245794832 0.71933979245794832 0 -0.69465837861970381 forward_v I I I I #
loop $-1 $-1 $245 $58 #
coedge $-1 $149 $149 $150 $246 reversed $90 $-1 #
coedge $-1 $150 $150 $149 $246 forward $92 $-1 #
coedge $-1 $151 $151 $93 $152 forward $146 $-1 #
edge $-1 $247 0 $247 6.2831853071796004 $151 $248 forward 7 unknown #
loop $-1 $-1 $158 $94 #
plane-surface $-1 -21.929293499320636 8.4733796459061352 73.272737914168758 0.69465837861970381 0 0.71933979245794832 0.71933979245794832 0 -0.69465837861970381 forward_v I I I I #
loop $-1 $-1 $249 $61 #
coedge $-1 $156 $156 $157 $250 reversed $95 $-1 #
coedge $-1 $157 $157 $156 $250 forward $97 $-1 #
coedge $-1 $158 $158 $98 $159 forward $153 $-1 #
edge $-1 $251 0 $251 6.2831853071796004 $158 $252 forward 7 unknown #
face $-1 $253 $254 $24 $-1 $255 reversed single #
loop $-1 $-1 $256 $99 #
plane-surface $-1 -49.989318521683401 0 0 1 0 0 0 0 -1 forward_v I I I I #
coedge $-1 $257 $171 $258 $259 forward $100 $-1 #
coedge $-1 $260 $102 $257 $261 forward $65 $-1 #
coedge $-1 $102 $260 $262 $263 forward $65 $-1 #
coedge $-1 $174 $173 $102 $167 reversed $175 $-1 #
edge $-1 $264 -32.394274472051791 $265 32.394274472051791 $166 $266 forward 7 unknown #
coedge $-1 $104 $103 $267 $268 forward $41 $-1 #
coedge $-1 $269 $270 $103 $170 reversed $254 $-1 #
edge $-1 $177 -49.989318521683401 $271 49.989318521683401 $169 $272 forward 7 unknown #
coedge $-1 $163 $273 $104 $172 reversed $100 $-1 #
edge $-1 $274 -49.989318521683401 $176 49.989318521683401 $171 $275 forward 7 unknown #
coedge $-1 $166 $105 $273 $276 forward $175 $-1 #
coedge $-1 $105 $166 $269 $277 reversed $175 $-1 #
loop $-1 $-1 $173 $253 #
vertex $-1 $106 $278 #
vertex $-1 $106 $279 #
straight-curve $-1 49.989318521683401 0 7.3232394833742376 0 1 0 I I #
face $-1 $280 $281 $25 $-1 $282 reversed single #
loop $-1 $-1 $113 $107 #
plane-surface $-1 -39.394121702068475 -37.201430167558257 0 1 0 0 0 0 -1 forward_v I I I I #
coedge $-1 $283 $284 $285 $286 forward $108 $-1 #
coedge $-1 $287 $110 $288 $289 forward $69 $-1 #
coedge $-1 $110 $287 $189 $290 forward $69 $-1 #
edge $-1 $191 -39.394121702068475 $291 -35.342839554934926 $110 $292 forward 7 unknown #
coedge $-1 $112 $111 $293 $294 forward $44 $-1 #
coedge $-1 $295 $296 $111 $188 forward $297 $-1 #
edge $-1 $298 35.342839554934926 $192 39.394121702068475 $187 $299 forward 7 unknown #
coedge $-1 $285 $113 $184 $290 reversed $180 $-1 #
coedge $-1 $113 $285 $295 $300 reversed $180 $-1 #
vertex $-1 $185 $301 #
vertex $-1 $300 $302 #
straight-curve $-1 -39.394121702068475 -32.394274472051791 0 0 0 1 I I #
face $-1 $303 $206 $26 $-1 $304 reversed single #
loop $-1 $-1 $305 $115 #
plane-surface $-1 -37.3684806285017 42.008585863064724 0 0 -1 0 0 0 -1 forward_v I I I I #
coedge $-1 $306 $307 $308 $309 forward $116 $-1 #
coedge $-1 $310 $118 $306 $311 forward $73 $-1 #
coedge $-1 $118 $310 $204 $312 forward $73 $-1 #
edge $-1 $207 35.342839554934926 $313 39.394121702068475 $118 $314 forward 7 unknown #
coedge $-1 $120 $119 $315 $316 forward $47 $-1 #
coedge $-1 $317 $318 $119 $203 forward $319 $-1 #
edge $-1 $320 -39.394121702068475 $208 -35.342839554934926 $202 $321 forward 7 unknown #
coedge $-1 $322 $121 $199 $312 reversed $206 $-1 #
coedge $-1 $121 $322 $317 $323 reversed $206 $-1 #
loop $-1 $-1 $121 $194 #
vertex $-1 $200 $324 #
vertex $-1 $323 $325 #
straight-curve $-1 -35.342839554934926 32.394274472051791 0 0 0 1 I I #
face $-1 $-1 $222 $27 $-1 $326 forward single #
loop $-1 $-1 $327 $123 #
plane-surface $-1 -49.989318521683401 0 0 1 0 0 0 0 -1 forward_v I I I I #
coedge $-1 $328 $329 $330 $331 reversed $124 $-1 #
coedge $-1 $332 $126 $128 $220 forward $77 $-1 #
coedge $-1 $126 $332 $328 $333 forward $77 $-1 #
coedge $-1 $330 $129 $126 $217 forward $222 $-1 #
edge $-1 $224 1.4431594812637165 $334 14.705588893604666 $216 $335 forward 7 unknown #
coedge $-1 $336 $337 $127 $219 forward $211 $-1 #
edge $-1 $338 -29.440946305954895 $223 -24.788808337547287 $218 $339 forward 7 unknown #
edge $-1 $224 -5.9036477590992655 $338 0 $128 $340 forward 7 unknown #
coedge $-1 $129 $330 $336 $341 forward $222 $-1 #
loop $-1 $-1 $330 $210 #
vertex $-1 $219 $342 #
vertex $-1 $130 $343 #
straight-curve $-1 -64.3867802340325 9.517533668697908 7.3232394833742376 1 0 0 I I #
coedge $-1 $226 $226 $-1 $344 reversed $133 $-1 #
edge $-1 $345 0 $345 6.2831853071796004 $134 $346 forward 7 unknown #
vertex $-1 $137 $347 #
ellipse-curve $-1 -48.171994308284887 16.148748374868383 4.99717049917043 -0.78801076186113728 0 0.61566146476048833 0.61566146476048833 0 0.78801076186113728 1 I I #
face $-1 $-1 $348 $29 $-1 $349 reversed single #
loop $-1 $-1 $144 $138 #
plane-surface $-1 0 0 7.3232394833742376 0 0 1 1 0 0 forward_v I I I I #
coedge $-1 $350 $351 $352 $353 reversed $139 $-1 #
coedge $-1 $354 $141 $143 $240 forward $86 $-1 #
coedge $-1 $141 $354 $350 $355 forward $86 $-1 #
coedge $-1 $352 $144 $141 $237 forward $231 $-1 #
edge $-1 $243 -10.006260361557668 $356 1.5328807156515332 $236 $357 forward 7 unknown #
coedge $-1 $358 $359 $142 $239 forward $348 $-1 #
edge $-1 $360 -68.773934958570692 $242 -65.272435484212153 $238 $361 forward 7 unknown #
edge $-1 $243 94.93803063577397 $360 99.978637043366817 $143 $362 forward 7 unknown #
coedge $-1 $144 $352 $358 $363 forward $231 $-1 #
vertex $-1 $145 $364 #
vertex $-1 $145 $365 #
straight-curve $-1 23.760852202916205 14.242950184510736 7.3232394833742376 -1 0 0 I I #
coedge $-1 $245 $245 $-1 $366 reversed $148 $-1 #
edge $-1 $367 0 $367 6.2831853071796004 $149 $368 forward 7 unknown #
vertex $-1 $152 $369 #
ellipse-curve $-1 48.176364138133366 6.0007065579327374 5.5724897461949707 0.69465837861970381 0 0.71933979245794832 0.71933979245794832 0 -0.69465837861970381 1 I I #
coedge $-1 $249 $249 $-1 $370 reversed $155 $-1 #
edge $-1 $371 0 $371 6.2831853071796004 $156 $372 forward 7 unknown #
vertex $-1 $159 $373 #
ellipse-curve $-1 48.176364138133366 10.94605273387954 5.5724897461949707 0.69465837861970381 0 0.71933979245794832 0.71933979245794832 0 -0.69465837861970381 1 I I #
face $-1 $-1 $175 $24 $-1 $374 reversed single #
loop $-1 $-1 $269 $160 #
plane-surface $-1 0 32.394274472051791 0 0 -1 0 0 0 -1 forward_v I I I I #
coedge $-1 $375 $267 $270 $376 forward $161 $-1 #
coedge $-1 $273 $163 $164 $261 reversed $100 $-1 #
coedge $-1 $267 $375 $163 $259 reversed $161 $-1 #
edge $-1 $274 -7.3232394833742376 $377 7.3232394833742376 $258 $378 forward 7 unknown #
coedge $-1 $165 $164 $375 $379 forward $65 $-1 #
edge $-1 $265 -49.989318521683401 $377 49.989318521683401 $257 $380 forward 7 unknown #
coedge $-1 $270 $269 $165 $263 reversed $254 $-1 #
edge $-1 $381 -49.989318521683401 $264 49.989318521683401 $262 $382 forward 7 unknown #
vertex $-1 $167 $383 #
vertex $-1 $276 $384 #
straight-curve $-1 49.989318521683401 0 -7.3232394833742376 0 -1 0 I I #
coedge $-1 $256 $258 $168 $268 reversed $161 $-1 #
edge $-1 $271 -32.394274472051791 $274 32.394274472051791 $267 $385 forward 7 unknown #
coedge $-1 $262 $169 $174 $277 forward $254 $-1 #
coedge $-1 $169 $262 $256 $376 reversed $254 $-1 #
vertex $-1 $170 $386 #
straight-curve $-1 0 32.394274472051791 7.3232394833742376 -1 0 0 I I #
coedge $-1 $171 $257 $173 $276 reversed $100 $-1 #
vertex $-1 $268 $387 #
straight-curve $-1 0 -32.394274472051791 7.3232394833742376 1 0 0 I I #
edge $-1 $176 -7.3232394833742376 $265 7.3232394833742376 $173 $388 forward 7 unknown #
edge $-1 $177 -7.3232394833742376 $264 7.3232394833742376 $174 $389 forward 7 unknown #
point $-1 49.989318521683401 -32.394274472051791 7.3232394833742376 #
point $-1 49.989318521683401 32.394274472051791 7.3232394833742376 #
face $-1 $-1 $297 $25 $-1 $390 forward single #
loop $-1 $-1 $391 $179 #
plane-surface $-1 -35.342839554934926 -37.201430167558257 0 -1 0 0 0 0 1 forward_v I I I I #
coedge $-1 $392 $182 $287 $393 reversed $108 $-1 #
coedge $-1 $182 $392 $394 $395 reversed $108 $-1 #
coedge $-1 $190 $189 $182 $286 reversed $180 $-1 #
edge $-1 $396 -7.3232394833742376 $397 7.3232394833742376 $285 $398 forward 7 unknown #
coedge $-1 $184 $183 $283 $393 forward $69 $-1 #
coedge $-1 $293 $391 $183 $289 reversed $281 $-1 #
edge $-1 $291 -4.8071556955064665 $399 4.8071556955064665 $288 $400 forward 7 unknown #
edge $-1 $397 -4.8071556955064665 $191 4.8071556955064665 $189 $401 forward 7 unknown #
vertex $-1 $289 $402 #
straight-curve $-1 0 -32.394274472051791 -7.3232394833742376 1 0 0 I I #
coedge $-1 $403 $288 $186 $294 reversed $281 $-1 #
edge $-1 $298 -7.3232394833742376 $291 7.3232394833742376 $293 $404 forward 7 unknown #
coedge $-1 $394 $187 $190 $300 forward $297 $-1 #
coedge $-1 $187 $394 $403 $405 forward $297 $-1 #
loop $-1 $-1 $187 $280 #
vertex $-1 $188 $406 #
straight-curve $-1 0 -32.394274472051791 7.3232394833742376 -1 0 0 I I #
edge $-1 $192 -4.8071556955064665 $396 4.8071556955064665 $190 $407 forward 7 unknown #
point $-1 -39.394121702068475 -32.394274472051791 -7.3232394833742376 #
point $-1 -39.394121702068475 -32.394274472051791 7.3232394833742376 #
face $-1 $-1 $319 $26 $-1 $408 forward single #
plane-surface $-1 -35.342839554934926 37.201430167558257 0 -1 0 0 0 0 1 forward_v I I I I #
coedge $-1 $409 $410 $322 $411 forward $195 $-1 #
coedge $-1 $315 $197 $198 $311 reversed $116 $-1 #
coedge $-1 $197 $315 $318 $412 reversed $116 $-1 #
coedge $-1 $410 $409 $197 $309 reversed $195 $-1 #
edge $-1 $413 -7.3232394833742376 $414 7.3232394833742376 $308 $415 forward 7 unknown #
coedge $-1 $199 $198 $409 $416 forward $73 $-1 #
edge $-1 $313 -4.8071556955064665 $414 4.8071556955064665 $306 $417 forward 7 unknown #
edge $-1 $418 -4.8071556955064665 $207 4.8071556955064665 $204 $419 forward 7 unknown #
vertex $-1 $311 $420 #
straight-curve $-1 0 32.394274472051791 -7.3232394833742376 -1 0 0 I I #
coedge $-1 $307 $306 $201 $316 reversed $116 $-1 #
edge $-1 $320 -7.3232394833742376 $313 7.3232394833742376 $315 $421 forward 7 unknown #
coedge $-1 $422 $202 $205 $323 forward $319 $-1 #
coedge $-1 $202 $422 $307 $412 forward $319 $-1 #
loop $-1 $-1 $202 $303 #
vertex $-1 $203 $423 #
straight-curve $-1 0 32.394274472051791 7.3232394833742376 1 0 0 I I #
coedge $-1 $205 $204 $305 $411 reversed $206 $-1 #
edge $-1 $208 -4.8071556955064665 $424 4.8071556955064665 $205 $425 forward 7 unknown #
point $-1 -35.342839554934926 32.394274472051791 -7.3232394833742376 #
point $-1 -35.342839554934926 32.394274472051791 7.3232394833742376 #
plane-surface $-1 0 0 7.3232394833742376 0 0 1 1 0 0 forward_v I I I I #
coedge $-1 $337 $336 $329 $426 forward $211 $-1 #
coedge $-1 $329 $213 $215 $333 reversed $124 $-1 #
coedge $-1 $213 $328 $327 $426 reversed $124 $-1 #
coedge $-1 $221 $216 $213 $331 forward $222 $-1 #
edge $-1 $334 -18.032110139146127 $427 -14.397461712349099 $330 $428 forward 7 unknown #
coedge $-1 $215 $214 $337 $429 reversed $77 $-1 #
edge $-1 $430 0 $334 5.9036477590992655 $328 $431 forward 7 unknown #
vertex $-1 $217 $432 #
straight-curve $-1 -46.354670094886373 8.0743741874341914 7.3232394833742376 0 1 0 I I #
coedge $-1 $327 $218 $221 $341 reversed $211 $-1 #
coedge $-1 $218 $327 $332 $429 forward $211 $-1 #
vertex $-1 $219 $433 #
straight-curve $-1 -49.989318521683401 9.517533668697908 32.112047820921525 0 0 1 I I #
straight-curve $-1 -49.989318521683401 9.517533668697908 2.6711015149666295 -0.61566146476048833 0 -0.78801076186113728 I I #
edge $-1 $427 -22.779963081038858 $223 -9.517533668697908 $336 $434 forward 7 unknown #
point $-1 -49.989318521683401 9.517533668697908 7.3232394833742376 #
point $-1 -46.354670094886373 9.517533668697908 7.3232394833742376 #
edge $-1 $435 1 $435 0 $226 $-1 forward 7 unknown #
vertex $-1 $227 $436 #
ellipse-curve $-1 -46.309069241699262 16.148748374868383 3.5416939616111036 -0.78801076186113728 0 0.61566146476048833 0.61566146476048833 0 0.78801076186113728 1 I I #
point $-1 -47.556332843524402 16.148748374868383 5.7851812610315676 #
loop $-1 $-1 $238 $230 #
plane-surface $-1 49.989318521683401 0 0 -1 0 0 0 0 1 forward_v I I I I #
coedge $-1 $351 $233 $235 $355 reversed $139 $-1 #
coedge $-1 $233 $350 $437 $438 reversed $139 $-1 #
coedge $-1 $241 $236 $233 $353 forward $231 $-1 #
edge $-1 $356 22.602557551667154 $439 26.228466318767197 $352 $440 forward 7 unknown #
coedge $-1 $235 $234 $359 $441 reversed $86 $-1 #
edge $-1 $442 -99.978637043366817 $356 -94.93803063577397 $350 $443 forward 7 unknown #
vertex $-1 $237 $444 #
straight-curve $-1 46.363409754583358 4.2366898229530676 7.3232394833742376 0 -1 0 I I #
coedge $-1 $437 $238 $241 $363 reversed $348 $-1 #
coedge $-1 $238 $437 $354 $441 forward $348 $-1 #
vertex $-1 $239 $445 #
straight-curve $-1 49.989318521683401 14.242950184510736 72.59567496758639 0 0 1 I I #
straight-curve $-1 -21.929293499320636 14.242950184510736 73.272737914168758 0.71933979245794832 0 -0.69465837861970381 I I #
edge $-1 $439 2.7038091073015345 $242 14.242950184510736 $358 $446 forward 7 unknown #
point $-1 49.989318521683401 14.242950184510736 7.3232394833742376 #
point $-1 46.363409754583358 14.242950184510736 7.3232394833742376 #
edge $-1 $447 1 $447 0 $245 $-1 forward 7 unknown #
vertex $-1 $246 $448 #
ellipse-curve $-1 46.084036226579947 6.0007065579327374 3.4058208165817465 0.69465837861970381 0 0.71933979245794832 0.71933979245794832 0 -0.69465837861970381 1 I I #
point $-1 48.895703930591338 6.0007065579327374 4.877831367575288 #
edge $-1 $449 1 $449 0 $249 $-1 forward 7 unknown #
vertex $-1 $250 $450 #
ellipse-curve $-1 46.084036226579947 10.94605273387954 3.4058208165817465 0.69465837861970381 0 0.71933979245794832 0.71933979245794832 0 -0.69465837861970381 1 I I #
point $-1 48.895703930591338 10.94605273387954 4.877831367575288 #
plane-surface $-1 49.989318521683401 0 0 -1 0 0 0 0 1 forward_v I I I I #
coedge $-1 $258 $256 $260 $379 reversed $161 $-1 #
edge $-1 $271 -7.3232394833742376 $381 7.3232394833742376 $270 $451 forward 7 unknown #
vertex $-1 $379 $452 #
straight-curve $-1 -49.989318521683401 -32.394274472051791 0 0 0 -1 I I #
edge $-1 $377 -32.394274472051791 $381 32.394274472051791 $375 $453 forward 7 unknown #
straight-curve $-1 0 -32.394274472051791 -7.3232394833742376 -1 0 0 I I #
vertex $-1 $263 $454 #
straight-curve $-1 0 32.394274472051791 -7.3232394833742376 1 0 0 I I #
point $-1 49.989318521683401 32.394274472051791 -7.3232394833742376 #
point $-1 49.989318521683401 -32.394274472051791 -7.3232394833742376 #
straight-curve $-1 -49.989318521683401 0 7.3232394833742376 0 -1 0 I I #
point $-1 -49.989318521683401 32.394274472051791 7.3232394833742376 #
point $-1 -49.989318521683401 -32.394274472051791 7.3232394833742376 #
straight-curve $-1 49.989318521683401 -32.394274472051791 0 0 0 -1 I I #
straight-curve $-1 49.989318521683401 32.394274472051791 0 0 0 -1 I I #
plane-surface $-1 0 0 7.3232394833742376 0 0 1 1 0 0 forward_v I I I I #
coedge $-1 $288 $403 $392 $455 forward $281 $-1 #
coedge $-1 $284 $283 $391 $455 reversed $108 $-1 #
edge $-1 $399 -2.0256410735667743 $397 2.0256410735667743 $283 $456 forward 7 unknown #
coedge $-1 $296 $295 $284 $395 forward $297 $-1 #
edge $-1 $396 -2.0256410735667743 $457 2.0256410735667743 $284 $458 forward 7 unknown #
vertex $-1 $300 $459 #
vertex $-1 $290 $460 #
straight-curve $-1 -39.394121702068475 -42.008585863064724 0 0 0 -1 I I #
vertex $-1 $455 $461 #
straight-curve $-1 -35.342839554934926 -37.201430167558257 -7.3232394833742376 0 -1 0 I I #
straight-curve $-1 -39.394121702068475 -37.201430167558257 -7.3232394833742376 0 1 0 I I #
point $-1 -35.342839554934926 -32.394274472051791 -7.3232394833742376 #
coedge $-1 $391 $293 $296 $405 reversed $281 $-1 #
straight-curve $-1 -35.342839554934926 -32.394274472051791 0 0 0 -1 I I #
edge $-1 $457 -4.8071556955064665 $298 4.8071556955064665 $403 $462 forward 7 unknown #
point $-1 -35.342839554934926 -32.394274472051791 7.3232394833742376 #
straight-curve $-1 -39.394121702068475 -37.201430167558257 7.3232394833742376 0 -1 0 I I #
plane-surface $-1 0 0 7.3232394833742376 0 0 1 1 0 0 forward_v I I I I #
coedge $-1 $308 $305 $310 $416 reversed $195 $-1 #
coedge $-1 $305 $308 $422 $463 reversed $195 $-1 #
edge $-1 $424 -7.3232394833742376 $418 7.3232394833742376 $322 $464 forward 7 unknown #
edge $-1 $413 -4.8071556955064665 $320 4.8071556955064665 $307 $465 forward 7 unknown #
vertex $-1 $463 $466 #
vertex $-1 $416 $467 #
straight-curve $-1 -39.394121702068475 42.008585863064724 0 0 0 -1 I I #
edge $-1 $414 -2.0256410735667743 $418 2.0256410735667743 $409 $468 forward 7 unknown #
straight-curve $-1 -39.394121702068475 37.201430167558257 -7.3232394833742376 0 1 0 I I #
vertex $-1 $312 $469 #
straight-curve $-1 -35.342839554934926 37.201430167558257 -7.3232394833742376 0 -1 0 I I #
point $-1 -39.394121702068475 32.394274472051791 -7.3232394833742376 #
straight-curve $-1 -39.394121702068475 32.394274472051791 0 0 0 -1 I I #
coedge $-1 $318 $317 $410 $463 forward $319 $-1 #
point $-1 -39.394121702068475 32.394274472051791 7.3232394833742376 #
vertex $-1 $323 $470 #
straight-curve $-1 -35.342839554934926 37.201430167558257 7.3232394833742376 0 1 0 I I #
edge $-1 $427 24.788808337547287 $430 29.440946305954895 $327 $471 forward 7 unknown #
vertex $-1 $341 $472 #
straight-curve $-1 -64.3867802340325 22.779963081038858 7.3232394833742376 -1 0 0 I I #
edge $-1 $430 -14.705588893604666 $338 -1.4431594812637165 $337 $473 forward 7 unknown #
vertex $-1 $429 $474 #
straight-curve $-1 -49.989318521683401 22.779963081038858 2.6711015149666295 0.61566146476048833 0 0.78801076186113728 I I #
point $-1 -46.354670094886373 22.779963081038858 7.3232394833742376 #
point $-1 -49.989318521683401 9.517533668697908 2.6711015149666295 #
straight-curve $-1 -49.989318521683401 0 7.3232394833742376 0 -1 0 I I #
vertex $-1 $344 $475 #
point $-1 -45.693407776938777 16.148748374868383 4.3297047234722408 #
coedge $-1 $359 $358 $351 $438 forward $348 $-1 #
edge $-1 $439 65.272435484212153 $442 68.773934958570692 $437 $476 forward 7 unknown #
vertex $-1 $363 $477 #
straight-curve $-1 23.760852202916205 2.7038091073015345 7.3232394833742376 1 0 0 I I #
edge $-1 $442 -1.5328807156515332 $360 10.006260361557668 $359 $478 forward 7 unknown #
vertex $-1 $441 $479 #
straight-curve $-1 -21.929293499320636 2.7038091073015345 73.272737914168758 -0.71933979245794832 0 0.69465837861970381 I I #
point $-1 46.363409754583358 2.7038091073015345 7.3232394833742376 #
point $-1 49.989318521683401 14.242950184510736 3.8217400090156985 #
straight-curve $-1 49.989318521683401 0 7.3232394833742376 0 1 0 I I #
vertex $-1 $366 $480 #
point $-1 46.803376019037891 6.0007065579327374 2.7111624379620429 #
vertex $-1 $370 $481 #
point $-1 46.803376019037891 10.94605273387954 2.7111624379620429 #
straight-curve $-1 -49.989318521683401 32.394274472051791 0 0 0 -1 I I #
point $-1 -49.989318521683401 -32.394274472051791 -7.3232394833742376 #
straight-curve $-1 -49.989318521683401 0 -7.3232394833742376 0 1 0 I I #
point $-1 -49.989318521683401 32.394274472051791 -7.3232394833742376 #
edge $-1 $457 -7.3232394833742376 $399 7.3232394833742376 $391 $482 forward 7 unknown #
straight-curve $-1 -37.3684806285017 -42.008585863064724 -7.3232394833742376 -1 0 0 I I #
vertex $-1 $405 $483 #
straight-curve $-1 -37.3684806285017 -42.008585863064724 7.3232394833742376 1 0 0 I I #
point $-1 -39.394121702068475 -42.008585863064724 7.3232394833742376 #
point $-1 -39.394121702068475 -42.008585863064724 -7.3232394833742376 #
point $-1 -35.342839554934926 -42.008585863064724 -7.3232394833742376 #
straight-curve $-1 -35.342839554934926 -37.201430167558257 7.3232394833742376 0 1 0 I I #
edge $-1 $424 -2.0256410735667743 $413 2.0256410735667743 $410 $484 forward 7 unknown #
straight-curve $-1 -35.342839554934926 42.008585863064724 0 0 0 -1 I I #
straight-curve $-1 -39.394121702068475 37.201430167558257 7.3232394833742376 0 -1 0 I I #
point $-1 -39.394121702068475 42.008585863064724 7.3232394833742376 #
point $-1 -39.394121702068475 42.008585863064724 -7.3232394833742376 #
straight-curve $-1 -37.3684806285017 42.008585863064724 -7.3232394833742376 1 0 0 I I #
point $-1 -35.342839554934926 42.008585863064724 -7.3232394833742376 #
point $-1 -35.342839554934926 42.008585863064724 7.3232394833742376 #
straight-curve $-1 -49.989318521683401 22.779963081038858 32.112047820921525 0 0 -1 I I #
point $-1 -49.989318521683401 22.779963081038858 7.3232394833742376 #
straight-curve $-1 -49.989318521683401 8.0743741874341914 2.6711015149666304 0 -1 0 I I #
point $-1 -49.989318521683401 22.779963081038858 2.6711015149666295 #
point $-1 -45.521058479838132 16.148748374868383 2.9260324968506155 #
straight-curve $-1 49.989318521683401 2.7038091073015345 72.59567496758639 0 0 -1 I I #
point $-1 49.989318521683401 2.7038091073015345 7.3232394833742376 #
straight-curve $-1 49.989318521683401 4.2366898229530676 3.8217400090156985 0 1 0 I I #
point $-1 49.989318521683401 2.7038091073015345 3.8217400090156985 #
point $-1 45.38937784796024 6.0007065579327374 2.6864810241237986 #
point $-1 45.38937784796024 10.94605273387954 2.6864810241237986 #
straight-curve $-1 -35.342839554934926 -42.008585863064724 0 0 0 -1 I I #
point $-1 -35.342839554934926 -42.008585863064724 7.3232394833742376 #
straight-curve $-1 -37.3684806285017 42.008585863064724 7.3232394833742376 -1 0 0 I I #
End-of-ACIS-data 