500 0 3 0           
7 Unknown 11 ACIS 5.0 NT 24 Thu Mar 25 23:41:55 1999 
-1 9.9999999999999995e-007 1e-010 
body $-1 $3 $-1 $4 #
body $-1 $5 $-1 $6 #
body $-1 $7 $-1 $8 #
lump $-1 $-1 $9 $0 #
transform $-1 1 0 0 0 1 0 0 0 1 70.143742179631943 29.870440847557919 11.685726315523551 1 rotate no_reflect no_shear #
lump $-1 $-1 $10 $1 #
transform $-1 1 0 0 0 1 0 0 0 1 70.143742179631943 29.870440847557919 11.685726315523551 1 rotate no_reflect no_shear #
lump $-1 $-1 $11 $2 #
transform $-1 1 0 0 0 1 0 0 0 1 70.143742179631943 29.870440847557919 11.685726315523551 1 rotate no_reflect no_shear #
shell $-1 $-1 $-1 $12 $-1 $3 #
shell $-1 $-1 $-1 $13 $-1 $5 #
shell $-1 $-1 $-1 $14 $-1 $7 #
face $-1 $15 $16 $9 $-1 $17 forward single #
face $-1 $18 $19 $10 $-1 $20 forward single #
face $-1 $21 $22 $11 $-1 $23 forward single #
face $-1 $24 $25 $9 $-1 $26 reversed single #
loop $-1 $-1 $27 $12 #
plane-surface $-1 0 0 11.685726315523551 0 0 1 1 0 0 forward_v I I I I #
face $-1 $28 $29 $10 $-1 $30 forward single #
loop $-1 $-1 $31 $13 #
plane-surface $-1 -67.598502757614057 -21.342752914224501 0 0 -1 0 0 0 -1 forward_v I I I I #
face $-1 $32 $33 $11 $-1 $34 forward single #
loop $-1 $-1 $35 $14 #
plane-surface $-1 -67.598502757614057 21.342752914224505 0 0 1 0 0 0 1 forward_v I I I I #
face $-1 $36 $37 $9 $-1 $38 reversed single #
loop $-1 $-1 $39 $15 #
plane-surface $-1 0 0 -11.685726315523551 0 0 1 1 0 0 forward_v I I I I #
coedge $-1 $40 $41 $42 $43 forward $16 $-1 #
face $-1 $44 $45 $10 $-1 $46 forward single #
loop $-1 $-1 $47 $18 #
plane-surface $-1 -65.053263335596171 -25.60659688089121 0 -1 0 0 0 0 1 forward_v I I I I #
coedge $-1 $48 $49 $50 $51 reversed $19 $-1 #
face $-1 $52 $53 $11 $-1 $54 forward single #
loop $-1 $-1 $55 $21 #
plane-surface $-1 -65.053263335596171 25.606596880891214 0 -1 0 0 0 0 1 forward_v I I I I #
coedge $-1 $56 $57 $58 $59 reversed $22 $-1 #
face $-1 $60 $61 $9 $-1 $62 reversed single #
loop $-1 $-1 $63 $24 #
plane-surface $-1 0 -29.870440847557919 0 0 1 0 0 0 1 forward_v I I I I #
coedge $-1 $64 $65 $66 $67 forward $25 $-1 #
coedge $-1 $68 $27 $69 $70 forward $16 $-1 #
coedge $-1 $27 $68 $71 $72 forward $16 $-1 #
coedge $-1 $73 $74 $27 $43 reversed $75 $-1 #
edge $-1 $76 -29.870440847557919 $77 29.870440847557919 $42 $78 forward 7 unknown #
face $-1 $79 $80 $10 $-1 $81 reversed single #
loop $-1 $-1 $82 $28 #
plane-surface $-1 0 0 11.685726315523551 0 0 1 1 0 0 forward_v I I I I #
coedge $-1 $83 $84 $85 $86 reversed $29 $-1 #
coedge $-1 $87 $31 $82 $88 reversed $19 $-1 #
coedge $-1 $31 $87 $89 $90 reversed $19 $-1 #
coedge $-1 $84 $83 $31 $51 forward $29 $-1 #
edge $-1 $91 -11.685726315523551 $92 11.685726315523551 $50 $93 forward 7 unknown #
face $-1 $94 $95 $11 $-1 $96 reversed single #
loop $-1 $-1 $97 $32 #
plane-surface $-1 0 0 11.685726315523551 0 0 1 1 0 0 forward_v I I I I #
coedge $-1 $98 $99 $100 $101 reversed $33 $-1 #
coedge $-1 $100 $35 $102 $103 reversed $22 $-1 #
coedge $-1 $35 $100 $104 $105 reversed $22 $-1 #
coedge $-1 $106 $107 $35 $59 forward $95 $-1 #
edge $-1 $108 -11.685726315523551 $109 11.685726315523551 $58 $110 forward 7 unknown #
face $-1 $111 $112 $9 $-1 $113 reversed single #
loop $-1 $-1 $114 $36 #
plane-surface $-1 -70.143742179631943 0 0 1 0 0 0 0 -1 forward_v I I I I #
coedge $-1 $115 $71 $116 $117 forward $37 $-1 #
coedge $-1 $118 $39 $115 $119 forward $25 $-1 #
coedge $-1 $39 $118 $120 $121 forward $25 $-1 #
coedge $-1 $74 $73 $39 $67 reversed $75 $-1 #
edge $-1 $122 -29.870440847557919 $123 29.870440847557919 $66 $124 forward 7 unknown #
coedge $-1 $41 $40 $125 $126 forward $16 $-1 #
coedge $-1 $127 $128 $40 $70 reversed $112 $-1 #
edge $-1 $77 -70.143742179631943 $129 70.143742179631943 $69 $130 forward 7 unknown #
coedge $-1 $63 $131 $41 $72 reversed $37 $-1 #
edge $-1 $132 -70.143742179631943 $76 70.143742179631943 $71 $133 forward 7 unknown #
coedge $-1 $66 $42 $131 $134 forward $75 $-1 #
coedge $-1 $42 $66 $127 $135 reversed $75 $-1 #
loop $-1 $-1 $73 $111 #
vertex $-1 $43 $136 #
vertex $-1 $43 $137 #
straight-curve $-1 70.143742179631943 0 11.685726315523551 0 1 0 I I #
face $-1 $138 $139 $10 $-1 $140 reversed single #
loop $-1 $-1 $85 $44 #
plane-surface $-1 0 -29.870440847557919 0 0 1 0 0 0 1 forward_v I I I I #
coedge $-1 $141 $142 $48 $88 forward $45 $-1 #
coedge $-1 $50 $47 $141 $143 reversed $29 $-1 #
coedge $-1 $47 $50 $144 $145 reversed $29 $-1 #
coedge $-1 $146 $147 $47 $86 forward $80 $-1 #
edge $-1 $148 -11.685726315523551 $149 11.685726315523551 $85 $150 forward 7 unknown #
coedge $-1 $49 $48 $151 $152 reversed $19 $-1 #
edge $-1 $153 -36.344490800824914 $91 -31.254011956789142 $82 $154 forward 7 unknown #
coedge $-1 $155 $144 $49 $90 forward $139 $-1 #
edge $-1 $92 31.254011956789142 $156 36.344490800824914 $89 $157 forward 7 unknown #
vertex $-1 $88 $158 #
vertex $-1 $90 $159 #
straight-curve $-1 -65.053263335596171 -21.342752914224501 0 0 0 -1 I I #
face $-1 $160 $161 $11 $-1 $162 forward single #
loop $-1 $-1 $58 $52 #
plane-surface $-1 -70.143742179631943 0 0 1 0 0 0 0 -1 forward_v I I I I #
coedge $-1 $102 $163 $98 $164 forward $53 $-1 #
coedge $-1 $165 $55 $97 $164 reversed $33 $-1 #
coedge $-1 $55 $165 $166 $167 reversed $33 $-1 #
coedge $-1 $57 $56 $55 $101 forward $22 $-1 #
edge $-1 $168 -11.685726315523551 $169 11.685726315523551 $55 $170 forward 7 unknown #
coedge $-1 $171 $97 $56 $103 forward $53 $-1 #
edge $-1 $168 31.254011956789142 $108 36.344490800824914 $102 $172 forward 7 unknown #
coedge $-1 $166 $173 $57 $105 forward $174 $-1 #
edge $-1 $109 -36.344490800824914 $169 -31.254011956789142 $104 $175 forward 7 unknown #
coedge $-1 $176 $58 $173 $177 reversed $95 $-1 #
coedge $-1 $58 $176 $171 $178 reversed $95 $-1 #
vertex $-1 $178 $179 #
vertex $-1 $59 $180 #
straight-curve $-1 -70.143742179631943 21.342752914224505 0 0 0 -1 I I #
face $-1 $-1 $75 $9 $-1 $181 reversed single #
loop $-1 $-1 $127 $60 #
plane-surface $-1 0 29.870440847557919 0 0 -1 0 0 0 -1 forward_v I I I I #
coedge $-1 $182 $125 $128 $183 forward $61 $-1 #
coedge $-1 $131 $63 $64 $119 reversed $37 $-1 #
coedge $-1 $125 $182 $63 $117 reversed $61 $-1 #
edge $-1 $132 -11.685726315523551 $184 11.685726315523551 $116 $185 forward 7 unknown #
coedge $-1 $65 $64 $182 $186 forward $25 $-1 #
edge $-1 $123 -70.143742179631943 $184 70.143742179631943 $115 $187 forward 7 unknown #
coedge $-1 $128 $127 $65 $121 reversed $112 $-1 #
edge $-1 $188 -70.143742179631943 $122 70.143742179631943 $120 $189 forward 7 unknown #
vertex $-1 $67 $190 #
vertex $-1 $134 $191 #
straight-curve $-1 70.143742179631943 0 -11.685726315523551 0 -1 0 I I #
coedge $-1 $114 $116 $68 $126 reversed $61 $-1 #
edge $-1 $129 -29.870440847557919 $132 29.870440847557919 $125 $192 forward 7 unknown #
coedge $-1 $120 $69 $74 $135 forward $112 $-1 #
coedge $-1 $69 $120 $114 $183 reversed $112 $-1 #
vertex $-1 $70 $193 #
straight-curve $-1 0 29.870440847557919 11.685726315523551 -1 0 0 I I #
coedge $-1 $71 $115 $73 $134 reversed $37 $-1 #
vertex $-1 $126 $194 #
straight-curve $-1 0 -29.870440847557919 11.685726315523551 1 0 0 I I #
edge $-1 $76 -11.685726315523551 $123 11.685726315523551 $73 $195 forward 7 unknown #
edge $-1 $77 -11.685726315523551 $122 11.685726315523551 $74 $196 forward 7 unknown #
point $-1 70.143742179631943 -29.870440847557919 11.685726315523551 #
point $-1 70.143742179631943 29.870440847557919 11.685726315523551 #
face $-1 $197 $198 $10 $-1 $199 reversed single #
loop $-1 $-1 $89 $79 #
plane-surface $-1 0 0 -11.685726315523551 0 0 1 1 0 0 forward_v I I I I #
coedge $-1 $200 $82 $83 $143 forward $45 $-1 #
coedge $-1 $82 $201 $202 $203 forward $45 $-1 #
edge $-1 $91 8.5394544737788962 $148 17.067142407112314 $141 $204 forward 7 unknown #
coedge $-1 $89 $205 $84 $145 forward $139 $-1 #
edge $-1 $149 -17.067142407112314 $92 -8.5394544737788962 $144 $206 forward 7 unknown #
coedge $-1 $207 $85 $205 $208 reversed $80 $-1 #
coedge $-1 $85 $207 $200 $209 reversed $80 $-1 #
vertex $-1 $209 $210 #
vertex $-1 $86 $211 #
straight-curve $-1 -65.053263335596171 -29.870440847557919 0 0 0 -1 I I #
coedge $-1 $202 $212 $87 $152 forward $198 $-1 #
edge $-1 $156 -11.685726315523551 $153 11.685726315523551 $151 $213 forward 7 unknown #
vertex $-1 $152 $214 #
straight-curve $-1 -33.799251378807028 -21.342752914224501 11.685726315523551 1 0 0 I I #
coedge $-1 $215 $89 $212 $216 forward $139 $-1 #
vertex $-1 $216 $217 #
straight-curve $-1 -33.799251378807028 -21.342752914224501 -11.685726315523551 -1 0 0 I I #
point $-1 -65.053263335596171 -21.342752914224501 11.685726315523551 #
point $-1 -65.053263335596171 -21.342752914224501 -11.685726315523551 #
face $-1 $218 $219 $11 $-1 $220 forward single #
loop $-1 $-1 $221 $94 #
plane-surface $-1 -67.598502757614057 -21.342752914224501 0 0 -1 0 0 0 -1 forward_v I I I I #
coedge $-1 $97 $222 $223 $224 forward $53 $-1 #
edge $-1 $225 -17.067142407112314 $168 -8.539454473778898 $97 $226 forward 7 unknown #
coedge $-1 $99 $98 $227 $228 reversed $33 $-1 #
coedge $-1 $229 $104 $99 $167 forward $174 $-1 #
edge $-1 $169 8.539454473778898 $230 17.067142407112314 $166 $231 forward 7 unknown #
vertex $-1 $103 $232 #
vertex $-1 $105 $233 #
straight-curve $-1 -65.053263335596171 21.342752914224505 0 0 0 -1 I I #
coedge $-1 $234 $102 $107 $178 forward $53 $-1 #
straight-curve $-1 -33.799251378807028 21.342752914224505 11.685726315523551 -1 0 0 I I #
coedge $-1 $104 $235 $106 $177 forward $174 $-1 #
loop $-1 $-1 $166 $236 #
straight-curve $-1 -33.799251378807028 21.342752914224505 -11.685726315523551 1 0 0 I I #
coedge $-1 $107 $106 $237 $238 forward $95 $-1 #
edge $-1 $239 -21.342752914224501 $109 21.342752914224505 $106 $240 forward 7 unknown #
edge $-1 $108 -21.342752914224505 $241 21.342752914224501 $107 $242 forward 7 unknown #
point $-1 -70.143742179631943 21.342752914224505 11.685726315523551 #
point $-1 -70.143742179631943 21.342752914224505 -11.685726315523551 #
plane-surface $-1 70.143742179631943 0 0 -1 0 0 0 0 1 forward_v I I I I #
coedge $-1 $116 $114 $118 $186 reversed $61 $-1 #
edge $-1 $129 -11.685726315523551 $188 11.685726315523551 $128 $243 forward 7 unknown #
vertex $-1 $186 $244 #
straight-curve $-1 -70.143742179631943 -29.870440847557919 0 0 0 -1 I I #
edge $-1 $184 -29.870440847557919 $188 29.870440847557919 $182 $245 forward 7 unknown #
straight-curve $-1 0 -29.870440847557919 -11.685726315523551 -1 0 0 I I #
vertex $-1 $121 $246 #
straight-curve $-1 0 29.870440847557919 -11.685726315523551 1 0 0 I I #
point $-1 70.143742179631943 29.870440847557919 -11.685726315523551 #
point $-1 70.143742179631943 -29.870440847557919 -11.685726315523551 #
straight-curve $-1 -70.143742179631943 0 11.685726315523551 0 -1 0 I I #
point $-1 -70.143742179631943 29.870440847557919 11.685726315523551 #
point $-1 -70.143742179631943 -29.870440847557919 11.685726315523551 #
straight-curve $-1 70.143742179631943 -29.870440847557919 0 0 0 -1 I I #
straight-curve $-1 70.143742179631943 29.870440847557919 0 0 0 -1 I I #
face $-1 $247 $248 $10 $-1 $249 reversed single #
loop $-1 $-1 $151 $138 #
plane-surface $-1 -70.143742179631943 0 0 1 0 0 0 0 -1 forward_v I I I I #
coedge $-1 $250 $141 $147 $209 forward $45 $-1 #
coedge $-1 $142 $250 $251 $252 forward $45 $-1 #
coedge $-1 $253 $151 $142 $203 reversed $198 $-1 #
edge $-1 $254 -29.870440847557919 $153 21.342752914224501 $202 $255 forward 7 unknown #
straight-curve $-1 -65.053263335596171 -12.803298440445605 11.685726315523551 0 -1 0 I I #
coedge $-1 $144 $256 $146 $208 forward $139 $-1 #
straight-curve $-1 -65.053263335596171 -12.803298440445605 -11.685726315523551 0 1 0 I I #
coedge $-1 $147 $146 $257 $258 reversed $80 $-1 #
edge $-1 $259 -70.143742179631943 $149 65.053263335596171 $146 $260 forward 7 unknown #
edge $-1 $148 -65.053263335596171 $261 70.143742179631943 $147 $262 forward 7 unknown #
point $-1 -65.053263335596171 -29.870440847557919 11.685726315523551 #
point $-1 -65.053263335596171 -29.870440847557919 -11.685726315523551 #
coedge $-1 $151 $253 $155 $216 reversed $198 $-1 #
straight-curve $-1 -70.143742179631943 -21.342752914224501 0 0 0 1 I I #
point $-1 -70.143742179631943 -21.342752914224501 11.685726315523551 #
coedge $-1 $256 $155 $263 $264 forward $139 $-1 #
edge $-1 $156 -21.342752914224501 $265 29.870440847557919 $212 $266 forward 7 unknown #
point $-1 -70.143742179631943 -21.342752914224501 -11.685726315523551 #
face $-1 $236 $267 $11 $-1 $268 reversed single #
loop $-1 $-1 $269 $160 #
plane-surface $-1 -65.053263335596171 -25.60659688089121 0 -1 0 0 0 0 1 forward_v I I I I #
coedge $-1 $270 $271 $272 $273 reversed $161 $-1 #
coedge $-1 $163 $274 $275 $276 forward $53 $-1 #
coedge $-1 $277 $227 $163 $224 reversed $278 $-1 #
edge $-1 $279 -70.143742179631943 $225 65.053263335596171 $223 $280 forward 7 unknown #
vertex $-1 $228 $281 #
straight-curve $-1 -65.053263335596171 12.803298440445607 11.685726315523551 0 -1 0 I I #
coedge $-1 $223 $282 $165 $228 forward $278 $-1 #
edge $-1 $230 -11.685726315523551 $225 11.685726315523551 $227 $283 forward 7 unknown #
coedge $-1 $284 $166 $282 $285 forward $174 $-1 #
vertex $-1 $285 $286 #
straight-curve $-1 -65.053263335596171 12.803298440445607 -11.685726315523551 0 1 0 I I #
point $-1 -65.053263335596171 21.342752914224505 11.685726315523551 #
point $-1 -65.053263335596171 21.342752914224505 -11.685726315523551 #
coedge $-1 $287 $171 $270 $288 forward $53 $-1 #
coedge $-1 $173 $289 $271 $290 forward $174 $-1 #
face $-1 $291 $174 $11 $-1 $292 reversed single #
coedge $-1 $271 $270 $176 $238 reversed $161 $-1 #
edge $-1 $239 -11.685726315523551 $241 11.685726315523551 $176 $293 forward 7 unknown #
vertex $-1 $177 $294 #
straight-curve $-1 -70.143742179631943 0 -11.685726315523551 0 1 0 I I #
vertex $-1 $238 $295 #
straight-curve $-1 -70.143742179631943 0 11.685726315523551 0 -1 0 I I #
straight-curve $-1 -70.143742179631943 29.870440847557919 0 0 0 -1 I I #
point $-1 -70.143742179631943 -29.870440847557919 -11.685726315523551 #
straight-curve $-1 -70.143742179631943 0 -11.685726315523551 0 1 0 I I #
point $-1 -70.143742179631943 29.870440847557919 -11.685726315523551 #
face $-1 $-1 $296 $10 $-1 $297 reversed single #
loop $-1 $-1 $298 $197 #
plane-surface $-1 0 29.870440847557919 0 0 -1 0 0 0 -1 forward_v I I I I #
coedge $-1 $201 $200 $299 $300 forward $45 $-1 #
coedge $-1 $298 $301 $201 $252 reversed $248 $-1 #
edge $-1 $302 -70.143742179631943 $254 70.143742179631943 $251 $303 forward 7 unknown #
coedge $-1 $212 $202 $301 $304 forward $198 $-1 #
vertex $-1 $252 $305 #
straight-curve $-1 -70.143742179631943 0 11.685726315523551 0 -1 0 I I #
coedge $-1 $205 $215 $306 $307 forward $139 $-1 #
coedge $-1 $306 $299 $207 $258 forward $296 $-1 #
edge $-1 $261 -11.685726315523551 $259 11.685726315523551 $257 $308 forward 7 unknown #
vertex $-1 $258 $309 #
straight-curve $-1 0 -29.870440847557919 -11.685726315523551 -1 0 0 I I #
vertex $-1 $300 $310 #
straight-curve $-1 0 -29.870440847557919 11.685726315523551 1 0 0 I I #
coedge $-1 $301 $298 $215 $264 reversed $248 $-1 #
edge $-1 $265 -70.143742179631943 $311 70.143742179631943 $263 $312 forward 7 unknown #
vertex $-1 $264 $313 #
straight-curve $-1 -70.143742179631943 0 -11.685726315523551 0 1 0 I I #
loop $-1 $-1 $314 $218 #
plane-surface $-1 0 -29.870440847557919 0 0 1 0 0 0 1 forward_v I I I I #
coedge $-1 $315 $316 $314 $317 reversed $219 $-1 #
coedge $-1 $237 $221 $234 $288 reversed $161 $-1 #
coedge $-1 $221 $237 $235 $290 reversed $161 $-1 #
coedge $-1 $316 $315 $221 $273 forward $219 $-1 #
edge $-1 $318 -11.685726315523551 $319 11.685726315523551 $272 $320 forward 7 unknown #
coedge $-1 $222 $287 $321 $322 forward $53 $-1 #
coedge $-1 $323 $324 $222 $276 reversed $325 $-1 #
edge $-1 $326 -29.870440847557919 $279 29.870440847557919 $275 $327 forward 7 unknown #
coedge $-1 $282 $223 $324 $328 forward $278 $-1 #
loop $-1 $-1 $227 $291 #
vertex $-1 $276 $329 #
straight-curve $-1 0 29.870440847557919 11.685726315523551 -1 0 0 I I #
point $-1 -65.053263335596171 29.870440847557923 11.685726315523551 #
coedge $-1 $227 $277 $229 $285 reversed $278 $-1 #
straight-curve $-1 -65.053263335596171 29.870440847557919 0 0 0 1 I I #
coedge $-1 $330 $229 $331 $332 forward $174 $-1 #
edge $-1 $230 -65.053263335596171 $333 70.143742179631943 $282 $334 forward 7 unknown #
point $-1 -65.053263335596171 29.870440847557923 -11.685726315523551 #
coedge $-1 $274 $234 $315 $335 forward $53 $-1 #
edge $-1 $241 -36.344490800824914 $318 -31.254011956789142 $234 $336 forward 7 unknown #
coedge $-1 $235 $330 $316 $337 forward $174 $-1 #
edge $-1 $319 31.254011956789142 $239 36.344490800824914 $235 $338 forward 7 unknown #
face $-1 $339 $278 $11 $-1 $340 reversed single #
plane-surface $-1 0 0 -11.685726315523551 0 0 1 1 0 0 forward_v I I I I #
straight-curve $-1 -70.143742179631943 -21.342752914224501 0 0 0 1 I I #
point $-1 -70.143742179631943 -21.342752914224501 -11.685726315523551 #
point $-1 -70.143742179631943 -21.342752914224501 11.685726315523551 #
loop $-1 $-1 $257 $247 #
plane-surface $-1 70.143742179631943 0 0 -1 0 0 0 0 1 forward_v I I I I #
coedge $-1 $263 $251 $341 $342 forward $248 $-1 #
coedge $-1 $257 $341 $250 $300 reversed $296 $-1 #
edge $-1 $261 -29.870440847557919 $302 29.870440847557919 $299 $343 forward 7 unknown #
coedge $-1 $251 $263 $253 $304 reversed $248 $-1 #
vertex $-1 $300 $344 #
straight-curve $-1 0 29.870440847557919 11.685726315523551 -1 0 0 I I #
edge $-1 $254 -11.685726315523551 $265 11.685726315523551 $301 $345 forward 7 unknown #
point $-1 -70.143742179631943 29.870440847557919 11.685726315523551 #
coedge $-1 $341 $257 $256 $307 reversed $296 $-1 #
edge $-1 $311 -29.870440847557919 $259 29.870440847557919 $306 $346 forward 7 unknown #
straight-curve $-1 70.143742179631943 -29.870440847557919 0 0 0 -1 I I #
point $-1 70.143742179631943 -29.870440847557919 -11.685726315523551 #
point $-1 70.143742179631943 -29.870440847557919 11.685726315523551 #
vertex $-1 $307 $347 #
straight-curve $-1 0 29.870440847557919 -11.685726315523551 1 0 0 I I #
point $-1 -70.143742179631943 29.870440847557919 -11.685726315523551 #
coedge $-1 $348 $321 $269 $317 forward $267 $-1 #
coedge $-1 $272 $269 $287 $335 reversed $219 $-1 #
coedge $-1 $269 $272 $289 $337 reversed $219 $-1 #
edge $-1 $349 -11.685726315523551 $350 11.685726315523551 $314 $351 forward 7 unknown #
vertex $-1 $288 $352 #
vertex $-1 $290 $353 #
straight-curve $-1 -65.053263335596171 -21.342752914224501 0 0 0 -1 I I #
coedge $-1 $314 $354 $274 $322 reversed $267 $-1 #
edge $-1 $349 -65.053263335596171 $326 70.143742179631943 $321 $355 forward 7 unknown #
coedge $-1 $331 $275 $354 $356 forward $325 $-1 #
coedge $-1 $275 $331 $277 $328 reversed $325 $-1 #
loop $-1 $-1 $323 $339 #
vertex $-1 $276 $357 #
straight-curve $-1 70.143742179631943 0 11.685726315523551 0 1 0 I I #
edge $-1 $279 -11.685726315523551 $333 11.685726315523551 $324 $358 forward 7 unknown #
point $-1 70.143742179631943 29.870440847557919 11.685726315523551 #
coedge $-1 $289 $284 $348 $359 forward $174 $-1 #
coedge $-1 $324 $323 $284 $332 reversed $325 $-1 #
edge $-1 $333 -29.870440847557919 $360 29.870440847557919 $331 $361 forward 7 unknown #
vertex $-1 $332 $362 #
straight-curve $-1 0 29.870440847557919 -11.685726315523551 1 0 0 I I #
edge $-1 $318 8.5394544737788962 $349 17.067142407112314 $287 $363 forward 7 unknown #
straight-curve $-1 -33.799251378807028 -21.342752914224501 11.685726315523551 1 0 0 I I #
edge $-1 $350 -17.067142407112314 $319 -8.5394544737788962 $289 $364 forward 7 unknown #
straight-curve $-1 -33.799251378807028 -21.342752914224501 -11.685726315523551 -1 0 0 I I #
face $-1 $-1 $325 $11 $-1 $365 reversed single #
plane-surface $-1 0 29.870440847557919 0 0 -1 0 0 0 -1 forward_v I I I I #
coedge $-1 $299 $306 $298 $342 reversed $296 $-1 #
edge $-1 $302 -11.685726315523551 $311 11.685726315523551 $341 $366 forward 7 unknown #
straight-curve $-1 70.143742179631943 0 11.685726315523551 0 1 0 I I #
point $-1 70.143742179631943 29.870440847557919 11.685726315523551 #
straight-curve $-1 -70.143742179631943 29.870440847557919 0 0 0 -1 I I #
straight-curve $-1 70.143742179631943 0 -11.685726315523551 0 -1 0 I I #
point $-1 70.143742179631943 29.870440847557919 -11.685726315523551 #
coedge $-1 $354 $314 $330 $359 reversed $267 $-1 #
vertex $-1 $322 $367 #
vertex $-1 $317 $368 #
straight-curve $-1 -65.053263335596171 -29.870440847557919 0 0 0 -1 I I #
point $-1 -65.053263335596171 -21.342752914224501 11.685726315523551 #
point $-1 -65.053263335596171 -21.342752914224501 -11.685726315523551 #
coedge $-1 $321 $348 $323 $356 reversed $267 $-1 #
straight-curve $-1 0 -29.870440847557919 11.685726315523551 1 0 0 I I #
edge $-1 $326 -11.685726315523551 $360 11.685726315523551 $323 $369 forward 7 unknown #
point $-1 70.143742179631943 -29.870440847557919 11.685726315523551 #
straight-curve $-1 70.143742179631943 29.870440847557919 0 0 0 -1 I I #
edge $-1 $360 -70.143742179631943 $350 65.053263335596171 $348 $370 forward 7 unknown #
vertex $-1 $356 $371 #
straight-curve $-1 70.143742179631943 0 -11.685726315523551 0 -1 0 I I #
point $-1 70.143742179631943 29.870440847557919 -11.685726315523551 #
straight-curve $-1 -65.053263335596171 -12.803298440445605 11.685726315523551 0 -1 0 I I #
straight-curve $-1 -65.053263335596171 -12.803298440445605 -11.685726315523551 0 1 0 I I #
plane-surface $-1 70.143742179631943 0 0 -1 0 0 0 0 1 forward_v I I I I #
straight-curve $-1 70.143742179631943 29.870440847557919 0 0 0 -1 I I #
point $-1 -65.053263335596171 -29.870440847557919 11.685726315523551 #
point $-1 -65.053263335596171 -29.870440847557919 -11.685726315523551 #
straight-curve $-1 70.143742179631943 -29.870440847557919 0 0 0 -1 I I #
straight-curve $-1 0 -29.870440847557919 -11.685726315523551 -1 0 0 I I #
point $-1 70.143742179631943 -29.870440847557919 -11.685726315523551 #
End-of-ACIS-data 