500 0 6 0           
7 Unknown 11 ACIS 5.0 NT 24 Thu Mar 25 18:10:24 1999 
-1 9.9999999999999995e-007 1e-010 
body $-1 $6 $-1 $7 #
body $-1 $8 $-1 $9 #
body $-1 $10 $-1 $11 #
body $-1 $12 $-1 $13 #
body $-1 $14 $-1 $15 #
body $-1 $16 $-1 $17 #
lump $-1 $-1 $18 $0 #
transform $-1 1 0 0 0 1 0 0 0 1 58.807947019867555 25.566479924378775 9.7014051159931753 1 rotate no_reflect no_shear #
lump $-1 $-1 $19 $1 #
transform $-1 1 0 0 0 1 0 0 0 1 58.807947019867555 25.566479924378775 9.7014051159931753 1 rotate no_reflect no_shear #
lump $-1 $-1 $20 $2 #
transform $-1 1 0 0 0 1 0 0 0 1 58.807947019867555 25.566479924378775 9.7014051159931753 1 rotate no_reflect no_shear #
lump $-1 $-1 $21 $3 #
transform $-1 1 0 0 0 1 0 0 0 1 58.807947019867555 25.566479924378775 9.7014051159931753 1 rotate no_reflect no_shear #
lump $-1 $-1 $22 $4 #
transform $-1 1 0 0 0 1 0 0 0 1 58.807947019867555 25.566479924378775 9.7014051159931753 1 rotate no_reflect no_shear #
lump $-1 $-1 $23 $5 #
transform $-1 1 0 0 0 1 0 0 0 1 58.807947019867555 25.566479924378775 9.7014051159931753 1 rotate no_reflect no_shear #
shell $-1 $-1 $-1 $24 $-1 $6 #
shell $-1 $-1 $-1 $25 $-1 $8 #
shell $-1 $-1 $-1 $26 $-1 $10 #
shell $-1 $-1 $-1 $27 $-1 $12 #
shell $-1 $-1 $-1 $28 $-1 $14 #
shell $-1 $-1 $-1 $29 $-1 $16 #
face $-1 $30 $31 $18 $-1 $32 forward single #
face $-1 $33 $34 $19 $-1 $35 forward single #
face $-1 $36 $37 $20 $-1 $38 reversed single #
face $-1 $39 $40 $21 $-1 $41 forward single #
face $-1 $42 $43 $22 $-1 $44 forward single #
face $-1 $45 $46 $23 $-1 $47 forward single #
face $-1 $48 $49 $18 $-1 $50 reversed single #
loop $-1 $-1 $51 $24 #
plane-surface $-1 0 0 9.7014051159931753 0 0 1 1 0 0 forward_v I I I I #
face $-1 $52 $53 $19 $-1 $54 reversed single #
loop $-1 $-1 $55 $25 #
plane-surface $-1 -52.530373746893723 0 -6.1835317889504893 0 0 1 1 0 0 forward_v I I I I #
face $-1 $56 $57 $20 $-1 $58 reversed single #
loop $-1 $-1 $59 $26 #
plane-surface $-1 -46.252800473919891 88.726127560565573 118.01403385631656 1 0 0 0 -0.79863551827123203 -0.60181501223851219 forward_v I I I I #
face $-1 $60 $61 $21 $-1 $62 forward single #
loop $-1 $63 $64 $27 #
cone-surface $-1 -42.863423473410762 22.932519449498731 7.002007455725419 0 -0.79863551827123203 -0.60181501223851219 1 0 0 1 I I 0 1 1 forward I I I I #
face $-1 $65 $66 $22 $-1 $67 forward single #
loop $-1 $68 $69 $28 #
cone-surface $-1 -37.779357972647063 22.932519449498731 7.002007455725419 0 -0.79863551827123203 -0.60181501223851219 1 0 0 1 I I 0 1 1 forward I I I I #
face $-1 $70 $71 $23 $-1 $72 forward single #
loop $-1 $73 $74 $29 #
cone-surface $-1 -32.695292471883363 22.932519449498731 7.002007455725419 0 -0.79863551827123203 -0.60181501223851219 1 0 0 1 I I 0 1 1 forward I I I I #
face $-1 $75 $76 $18 $-1 $77 reversed single #
loop $-1 $-1 $78 $30 #
plane-surface $-1 0 0 -9.7014051159931753 0 0 1 1 0 0 forward_v I I I I #
coedge $-1 $79 $80 $81 $82 forward $31 $-1 #
face $-1 $83 $84 $19 $-1 $85 reversed single #
loop $-1 $-1 $86 $33 #
plane-surface $-1 -46.252800473919891 0 -7.9424684524718323 -1 0 0 0 0 1 forward_v I I I I #
coedge $-1 $87 $88 $89 $90 forward $34 $-1 #
face $-1 $91 $92 $20 $-1 $93 reversed single #
loop $-1 $-1 $94 $36 #
plane-surface $-1 -37.779357972647063 -5.2061029327925894 47.231023145349823 0 0.79863551827123203 0.60181501223851219 1 0 0 forward_v I I I I #
coedge $-1 $95 $96 $97 $98 reversed $37 $-1 #
face $-1 $-1 $99 $21 $-1 $100 forward single #
loop $-1 $101 $102 $39 #
cone-surface $-1 -42.863423473410762 21.145235213687414 5.6551922194373816 0 -0.79863551827123203 -0.60181501223851219 0.5 0 0 1 I I -0.70710678118654746 0.70710678118654746 0.5 forward I I I I #
loop $-1 $-1 $103 $27 #
coedge $-1 $64 $64 $104 $105 reversed $40 $-1 #
face $-1 $-1 $106 $22 $-1 $107 forward single #
loop $-1 $108 $109 $42 #
cone-surface $-1 -37.779357972647063 21.145235213687414 5.6551922194373816 0 -0.79863551827123203 -0.60181501223851219 0.5 0 0 1 I I -0.70710678118654746 0.70710678118654746 0.5 forward I I I I #
loop $-1 $-1 $110 $28 #
coedge $-1 $69 $69 $111 $112 reversed $43 $-1 #
face $-1 $-1 $113 $23 $-1 $114 forward single #
loop $-1 $115 $116 $45 #
cone-surface $-1 -32.695292471883363 21.145235213687414 5.6551922194373816 0 -0.79863551827123203 -0.60181501223851219 0.5 0 0 1 I I -0.70710678118654746 0.70710678118654746 0.5 forward I I I I #
loop $-1 $-1 $117 $29 #
coedge $-1 $74 $74 $118 $119 reversed $46 $-1 #
face $-1 $120 $121 $18 $-1 $122 reversed single #
loop $-1 $-1 $123 $48 #
plane-surface $-1 0 -25.566479924378775 0 0 1 0 0 0 1 forward_v I I I I #
coedge $-1 $124 $125 $126 $127 forward $49 $-1 #
coedge $-1 $128 $51 $129 $130 forward $31 $-1 #
coedge $-1 $51 $128 $131 $132 forward $31 $-1 #
coedge $-1 $133 $134 $51 $82 reversed $135 $-1 #
edge $-1 $136 -25.566479924378775 $137 25.566479924378775 $81 $138 forward 7 unknown #
face $-1 $139 $140 $19 $-1 $141 reversed single #
loop $-1 $-1 $142 $52 #
plane-surface $-1 0 0 -9.7014051159931753 0 0 1 1 0 0 forward_v I I I I #
coedge $-1 $143 $89 $144 $145 reversed $53 $-1 #
coedge $-1 $146 $55 $147 $148 reversed $34 $-1 #
coedge $-1 $55 $146 $149 $150 reversed $34 $-1 #
coedge $-1 $86 $151 $55 $90 reversed $53 $-1 #
edge $-1 $152 -25.566479924378775 $153 25.566479924378775 $89 $154 forward 7 unknown #
face $-1 $155 $156 $20 $-1 $157 reversed single #
loop $-1 $-1 $158 $56 #
plane-surface $-1 -29.305915471374234 88.726127560565573 118.01403385631656 -1 0 0 0 0.79863551827123203 0.60181501223851219 forward_v I I I I #
coedge $-1 $159 $160 $161 $162 reversed $57 $-1 #
coedge $-1 $96 $59 $163 $164 reversed $37 $-1 #
coedge $-1 $59 $95 $159 $165 reversed $37 $-1 #
coedge $-1 $161 $166 $59 $98 forward $167 $-1 #
edge $-1 $168 18.796583855904011 $169 21.288571852312675 $97 $170 forward 7 unknown #
loop $-1 $-1 $104 $60 #
plane-surface $-1 -37.779357972647063 -5.2061029327925894 47.231023145349823 0 0.79863551827123203 0.60181501223851219 1 0 0 forward_v I I I I #
loop $-1 $-1 $171 $39 #
coedge $-1 $102 $102 $103 $172 reversed $61 $-1 #
coedge $-1 $103 $103 $102 $172 forward $63 $-1 #
coedge $-1 $104 $104 $64 $105 forward $99 $-1 #
edge $-1 $173 2.0977407121526412e-015 $173 6.2831853071796022 $104 $174 forward 7 unknown #
loop $-1 $-1 $111 $65 #
plane-surface $-1 -37.779357972647063 -5.2061029327925894 47.231023145349823 0 0.79863551827123203 0.60181501223851219 1 0 0 forward_v I I I I #
loop $-1 $-1 $175 $42 #
coedge $-1 $109 $109 $110 $176 reversed $66 $-1 #
coedge $-1 $110 $110 $109 $176 forward $68 $-1 #
coedge $-1 $111 $111 $69 $112 forward $106 $-1 #
edge $-1 $177 2.0977407121526412e-015 $177 6.2831853071796022 $111 $178 forward 7 unknown #
loop $-1 $-1 $118 $70 #
plane-surface $-1 -37.779357972647063 -5.2061029327925894 47.231023145349823 0 0.79863551827123203 0.60181501223851219 1 0 0 forward_v I I I I #
loop $-1 $-1 $179 $45 #
coedge $-1 $116 $116 $117 $180 reversed $71 $-1 #
coedge $-1 $117 $117 $116 $180 forward $73 $-1 #
coedge $-1 $118 $118 $74 $119 forward $113 $-1 #
edge $-1 $181 2.0977407121526412e-015 $181 6.2831853071796022 $118 $182 forward 7 unknown #
face $-1 $183 $184 $18 $-1 $185 reversed single #
loop $-1 $-1 $186 $75 #
plane-surface $-1 -58.807947019867555 0 0 1 0 0 0 0 -1 forward_v I I I I #
coedge $-1 $187 $131 $188 $189 forward $76 $-1 #
coedge $-1 $190 $78 $187 $191 forward $49 $-1 #
coedge $-1 $78 $190 $192 $193 forward $49 $-1 #
coedge $-1 $134 $133 $78 $127 reversed $135 $-1 #
edge $-1 $194 -25.566479924378775 $195 25.566479924378775 $126 $196 forward 7 unknown #
coedge $-1 $80 $79 $197 $198 forward $31 $-1 #
coedge $-1 $199 $200 $79 $130 reversed $184 $-1 #
edge $-1 $137 -58.807947019867555 $201 58.807947019867555 $129 $202 forward 7 unknown #
coedge $-1 $123 $203 $80 $132 reversed $76 $-1 #
edge $-1 $204 -58.807947019867555 $136 58.807947019867555 $131 $205 forward 7 unknown #
coedge $-1 $126 $81 $203 $206 forward $135 $-1 #
coedge $-1 $81 $126 $199 $207 reversed $135 $-1 #
loop $-1 $-1 $133 $183 #
vertex $-1 $82 $208 #
vertex $-1 $82 $209 #
straight-curve $-1 58.807947019867555 0 9.7014051159931753 0 1 0 I I #
face $-1 $210 $211 $19 $-1 $212 reversed single #
loop $-1 $-1 $144 $83 #
plane-surface $-1 0 -25.566479924378775 0 0 1 0 0 0 1 forward_v I I I I #
coedge $-1 $213 $214 $143 $215 forward $84 $-1 #
coedge $-1 $151 $86 $142 $215 reversed $53 $-1 #
coedge $-1 $149 $216 $86 $145 forward $140 $-1 #
edge $-1 $217 -5.7301708897572592 $152 -2.2122975627145731 $144 $218 forward 7 unknown #
coedge $-1 $88 $87 $219 $220 reversed $34 $-1 #
coedge $-1 $221 $222 $87 $148 forward $223 $-1 #
edge $-1 $224 -32.54276014642069 $153 -19.987613600473029 $147 $225 forward 7 unknown #
coedge $-1 $226 $144 $88 $150 forward $140 $-1 #
edge $-1 $152 19.987613600473029 $227 32.54276014642069 $149 $228 forward 7 unknown #
coedge $-1 $89 $143 $221 $229 reversed $53 $-1 #
vertex $-1 $150 $230 #
vertex $-1 $148 $231 #
straight-curve $-1 -46.252800473919891 0 -6.1835317889504893 0 1 0 I I #
face $-1 $-1 $167 $20 $-1 $232 forward single #
loop $-1 $-1 $233 $91 #
plane-surface $-1 0 25.566479924378775 0 0 -1 0 0 0 -1 forward_v I I I I #
coedge $-1 $234 $235 $236 $237 reversed $92 $-1 #
coedge $-1 $238 $94 $96 $165 forward $57 $-1 #
coedge $-1 $94 $238 $234 $239 forward $57 $-1 #
coedge $-1 $236 $97 $94 $162 forward $167 $-1 #
edge $-1 $169 -27.363121487596359 $240 -10.416236485050703 $161 $241 forward 7 unknown #
coedge $-1 $242 $243 $95 $164 forward $156 $-1 #
edge $-1 $244 -52.612591672363024 $168 -49.305611812165104 $163 $245 forward 7 unknown #
edge $-1 $169 46.992172487638932 $244 51.13295984875753 $96 $246 forward 7 unknown #
coedge $-1 $97 $236 $242 $247 forward $167 $-1 #
loop $-1 $-1 $236 $155 #
vertex $-1 $164 $248 #
vertex $-1 $98 $249 #
straight-curve $-1 -46.252800473919891 44.363063780282786 9.7014051159931753 0 -1 0 I I #
coedge $-1 $171 $171 $-1 $250 reversed $101 $-1 #
edge $-1 $251 0 $251 6.2831853071796004 $102 $252 forward 7 unknown #
vertex $-1 $105 $253 #
ellipse-curve $-1 -42.863423473410762 24.320485926174445 8.04791518589421 0 0.79863551827123203 0.60181501223851219 1 0 0 1 I I #
coedge $-1 $175 $175 $-1 $254 reversed $108 $-1 #
edge $-1 $255 0 $255 6.2831853071796004 $109 $256 forward 7 unknown #
vertex $-1 $112 $257 #
ellipse-curve $-1 -37.779357972647063 24.320485926174445 8.04791518589421 0 0.79863551827123203 0.60181501223851219 1 0 0 1 I I #
coedge $-1 $179 $179 $-1 $258 reversed $115 $-1 #
edge $-1 $259 0 $259 6.2831853071796004 $116 $260 forward 7 unknown #
vertex $-1 $119 $261 #
ellipse-curve $-1 -32.695292471883363 24.320485926174445 8.04791518589421 0 0.79863551827123203 0.60181501223851219 1 0 0 1 I I #
face $-1 $-1 $135 $18 $-1 $262 reversed single #
loop $-1 $-1 $199 $120 #
plane-surface $-1 0 25.566479924378775 0 0 -1 0 0 0 -1 forward_v I I I I #
coedge $-1 $263 $197 $200 $264 forward $121 $-1 #
coedge $-1 $203 $123 $124 $191 reversed $76 $-1 #
coedge $-1 $197 $263 $123 $189 reversed $121 $-1 #
edge $-1 $204 -9.7014051159931753 $265 9.7014051159931753 $188 $266 forward 7 unknown #
coedge $-1 $125 $124 $263 $267 forward $49 $-1 #
edge $-1 $195 -58.807947019867555 $265 58.807947019867555 $187 $268 forward 7 unknown #
coedge $-1 $200 $199 $125 $193 reversed $184 $-1 #
edge $-1 $269 -58.807947019867555 $194 58.807947019867555 $192 $270 forward 7 unknown #
vertex $-1 $127 $271 #
vertex $-1 $206 $272 #
straight-curve $-1 58.807947019867555 0 -9.7014051159931753 0 -1 0 I I #
coedge $-1 $186 $188 $128 $198 reversed $121 $-1 #
edge $-1 $201 -25.566479924378775 $204 25.566479924378775 $197 $273 forward 7 unknown #
coedge $-1 $192 $129 $134 $207 forward $184 $-1 #
coedge $-1 $129 $192 $186 $264 reversed $184 $-1 #
vertex $-1 $130 $274 #
straight-curve $-1 0 25.566479924378775 9.7014051159931753 -1 0 0 I I #
coedge $-1 $131 $187 $133 $206 reversed $76 $-1 #
vertex $-1 $198 $275 #
straight-curve $-1 0 -25.566479924378775 9.7014051159931753 1 0 0 I I #
edge $-1 $136 -9.7014051159931753 $195 9.7014051159931753 $133 $276 forward 7 unknown #
edge $-1 $137 -9.7014051159931753 $194 9.7014051159931753 $134 $277 forward 7 unknown #
point $-1 58.807947019867555 -25.566479924378775 9.7014051159931753 #
point $-1 58.807947019867555 25.566479924378775 9.7014051159931753 #
face $-1 $-1 $223 $19 $-1 $278 reversed single #
loop $-1 $-1 $219 $139 #
plane-surface $-1 -58.807947019867555 0 0 1 0 0 0 0 -1 forward_v I I I I #
coedge $-1 $279 $142 $216 $280 forward $84 $-1 #
coedge $-1 $142 $279 $281 $282 forward $84 $-1 #
edge $-1 $283 -25.566479924378775 $217 25.566479924378775 $142 $284 forward 7 unknown #
coedge $-1 $144 $226 $213 $280 reversed $140 $-1 #
vertex $-1 $280 $285 #
straight-curve $-1 -46.252800473919891 -25.566479924378775 -3.9712342262359162 0 0 1 I I #
coedge $-1 $286 $287 $146 $220 forward $211 $-1 #
edge $-1 $227 -25.566479924378775 $224 25.566479924378775 $219 $288 forward 7 unknown #
coedge $-1 $281 $147 $151 $229 forward $223 $-1 #
coedge $-1 $147 $281 $286 $289 reversed $223 $-1 #
loop $-1 $-1 $221 $210 #
vertex $-1 $289 $290 #
straight-curve $-1 -26.265186873446861 25.566479924378775 -6.1835317889504893 1 0 0 I I #
coedge $-1 $216 $149 $287 $291 forward $140 $-1 #
vertex $-1 $291 $292 #
straight-curve $-1 -26.265186873446861 -25.566479924378775 -6.1835317889504893 -1 0 0 I I #
edge $-1 $153 2.2122975627145731 $283 5.7301708897572592 $221 $293 forward 7 unknown #
point $-1 -46.252800473919891 -25.566479924378775 -6.1835317889504893 #
point $-1 -46.252800473919891 25.566479924378775 -6.1835317889504893 #
plane-surface $-1 0 0 9.7014051159931753 0 0 1 1 0 0 forward_v I I I I #
coedge $-1 $243 $242 $235 $294 forward $156 $-1 #
coedge $-1 $235 $158 $160 $239 reversed $92 $-1 #
coedge $-1 $158 $234 $233 $294 reversed $92 $-1 #
coedge $-1 $166 $161 $158 $237 forward $167 $-1 #
edge $-1 $240 -21.288571852312675 $295 -18.796583855904011 $236 $296 forward 7 unknown #
coedge $-1 $160 $159 $243 $297 reversed $57 $-1 #
edge $-1 $298 -51.13295984875753 $240 -46.992172487638932 $234 $299 forward 7 unknown #
vertex $-1 $162 $300 #
straight-curve $-1 -18.889678986323531 23.074491927970112 9.7014051159931753 1 0 0 I I #
coedge $-1 $233 $163 $166 $247 reversed $156 $-1 #
coedge $-1 $163 $233 $238 $297 forward $156 $-1 #
vertex $-1 $164 $301 #
straight-curve $-1 -46.252800473919891 25.566479924378775 59.007016928158279 0 0 1 I I #
straight-curve $-1 -46.252800473919891 -5.2061029327925894 47.231023145349823 0 0.60181501223851219 -0.79863551827123203 I I #
edge $-1 $295 29.305915471374234 $168 46.252800473919891 $242 $302 forward 7 unknown #
point $-1 -46.252800473919891 25.566479924378775 9.7014051159931753 #
point $-1 -46.252800473919891 23.074491927970112 9.7014051159931753 #
edge $-1 $303 1 $303 0 $171 $-1 forward 7 unknown #
vertex $-1 $172 $304 #
ellipse-curve $-1 -42.863423473410762 21.544552972823031 5.9560997255566379 0 0.79863551827123203 0.60181501223851219 1 0 0 1 I I #
point $-1 -41.863423473410762 24.320485926174435 8.0479151858941993 #
edge $-1 $305 1 $305 0 $175 $-1 forward 7 unknown #
vertex $-1 $176 $306 #
ellipse-curve $-1 -37.779357972647063 21.544552972823031 5.9560997255566379 0 0.79863551827123203 0.60181501223851219 1 0 0 1 I I #
point $-1 -36.779357972647063 24.320485926174435 8.0479151858941993 #
edge $-1 $307 1 $307 0 $179 $-1 forward 7 unknown #
vertex $-1 $180 $308 #
ellipse-curve $-1 -32.695292471883363 21.544552972823031 5.9560997255566379 0 0.79863551827123203 0.60181501223851219 1 0 0 1 I I #
point $-1 -31.695292471883363 24.320485926174435 8.0479151858941993 #
plane-surface $-1 58.807947019867555 0 0 -1 0 0 0 0 1 forward_v I I I I #
coedge $-1 $188 $186 $190 $267 reversed $121 $-1 #
edge $-1 $201 -9.7014051159931753 $269 9.7014051159931753 $200 $309 forward 7 unknown #
vertex $-1 $267 $310 #
straight-curve $-1 -58.807947019867555 -25.566479924378775 0 0 0 -1 I I #
edge $-1 $265 -25.566479924378775 $269 25.566479924378775 $263 $311 forward 7 unknown #
straight-curve $-1 0 -25.566479924378775 -9.7014051159931753 -1 0 0 I I #
vertex $-1 $193 $312 #
straight-curve $-1 0 25.566479924378775 -9.7014051159931753 1 0 0 I I #
point $-1 58.807947019867555 25.566479924378775 -9.7014051159931753 #
point $-1 58.807947019867555 -25.566479924378775 -9.7014051159931753 #
straight-curve $-1 -58.807947019867555 0 9.7014051159931753 0 -1 0 I I #
point $-1 -58.807947019867555 25.566479924378775 9.7014051159931753 #
point $-1 -58.807947019867555 -25.566479924378775 9.7014051159931753 #
straight-curve $-1 58.807947019867555 -25.566479924378775 0 0 0 -1 I I #
straight-curve $-1 58.807947019867555 25.566479924378775 0 0 0 -1 I I #
plane-surface $-1 0 25.566479924378775 0 0 -1 0 0 0 -1 forward_v I I I I #
coedge $-1 $214 $213 $313 $314 forward $84 $-1 #
edge $-1 $217 46.252800473919891 $315 58.807947019867555 $216 $316 forward 7 unknown #
coedge $-1 $222 $221 $214 $282 reversed $223 $-1 #
edge $-1 $317 -58.807947019867555 $283 -46.252800473919891 $281 $318 forward 7 unknown #
vertex $-1 $229 $319 #
straight-curve $-1 -46.252800473919891 0 -9.7014051159931753 0 -1 0 I I #
point $-1 -46.252800473919891 -25.566479924378775 -9.7014051159931753 #
coedge $-1 $313 $219 $222 $289 forward $211 $-1 #
coedge $-1 $219 $313 $226 $291 reversed $211 $-1 #
straight-curve $-1 -58.807947019867555 0 -6.1835317889504893 0 1 0 I I #
edge $-1 $224 6.1835317889504893 $317 9.7014051159931753 $222 $320 forward 7 unknown #
point $-1 -58.807947019867555 25.566479924378775 -6.1835317889504893 #
edge $-1 $227 6.1835317889504893 $315 9.7014051159931753 $287 $321 forward 7 unknown #
point $-1 -58.807947019867555 -25.566479924378775 -6.1835317889504893 #
straight-curve $-1 -46.252800473919891 25.566479924378775 -3.9712342262359162 0 0 -1 I I #
edge $-1 $295 49.305611812165104 $298 52.612591672363024 $233 $322 forward 7 unknown #
vertex $-1 $247 $323 #
straight-curve $-1 -29.305915471374234 44.363063780282786 9.7014051159931753 0 1 0 I I #
edge $-1 $298 10.416236485050703 $244 27.363121487596359 $243 $324 forward 7 unknown #
vertex $-1 $297 $325 #
straight-curve $-1 -29.305915471374234 -5.2061029327925894 47.231023145349823 0 -0.60181501223851219 0.79863551827123203 I I #
point $-1 -29.305915471374234 23.074491927970112 9.7014051159931753 #
point $-1 -46.252800473919891 25.566479924378775 6.3944252557952552 #
straight-curve $-1 0 25.566479924378775 9.7014051159931753 -1 0 0 I I #
vertex $-1 $250 $326 #
point $-1 -41.863423473410762 21.544552972823031 5.9560997255566379 #
vertex $-1 $254 $327 #
point $-1 -36.779357972647063 21.544552972823031 5.9560997255566379 #
vertex $-1 $258 $328 #
point $-1 -31.695292471883363 21.544552972823031 5.9560997255566379 #
straight-curve $-1 -58.807947019867555 25.566479924378775 0 0 0 -1 I I #
point $-1 -58.807947019867555 -25.566479924378775 -9.7014051159931753 #
straight-curve $-1 -58.807947019867555 0 -9.7014051159931753 0 1 0 I I #
point $-1 -58.807947019867555 25.566479924378775 -9.7014051159931753 #
coedge $-1 $287 $286 $279 $314 reversed $211 $-1 #
edge $-1 $315 -25.566479924378775 $317 25.566479924378775 $313 $329 forward 7 unknown #
vertex $-1 $314 $330 #
straight-curve $-1 0 -25.566479924378775 -9.7014051159931753 -1 0 0 I I #
vertex $-1 $282 $331 #
straight-curve $-1 0 25.566479924378775 -9.7014051159931753 1 0 0 I I #
point $-1 -46.252800473919891 25.566479924378775 -9.7014051159931753 #
straight-curve $-1 -58.807947019867555 25.566479924378775 0 0 0 -1 I I #
straight-curve $-1 -58.807947019867555 -25.566479924378775 0 0 0 -1 I I #
straight-curve $-1 -29.305915471374234 25.566479924378775 59.007016928158279 0 0 -1 I I #
point $-1 -29.305915471374234 25.566479924378775 9.7014051159931753 #
straight-curve $-1 -18.889678986323531 25.566479924378775 6.3944252557952517 -1 0 0 I I #
point $-1 -29.305915471374234 25.566479924378775 6.3944252557952552 #
point $-1 -42.863423473410762 20.745917454551797 5.3542847133181253 #
point $-1 -37.779357972647063 20.745917454551797 5.3542847133181253 #
point $-1 -32.695292471883363 20.745917454551797 5.3542847133181253 #
straight-curve $-1 -58.807947019867555 0 -9.7014051159931753 0 1 0 I I #
point $-1 -58.807947019867555 -25.566479924378775 -9.7014051159931753 #
point $-1 -58.807947019867555 25.566479924378775 -9.7014051159931753 #
End-of-ACIS-data 