500 0 19 0           
7 Unknown 11 ACIS 5.0 NT 24 Thu Mar 25 15:27:27 1999 
-1 9.9999999999999995e-007 1e-010 
body $-1 $19 $-1 $20 #
body $-1 $21 $-1 $22 #
body $-1 $23 $-1 $24 #
body $-1 $25 $-1 $26 #
body $-1 $27 $-1 $28 #
body $-1 $29 $-1 $30 #
body $-1 $31 $-1 $32 #
body $-1 $33 $-1 $34 #
body $-1 $35 $-1 $36 #
body $-1 $37 $-1 $38 #
body $-1 $39 $-1 $40 #
body $-1 $41 $-1 $42 #
body $-1 $43 $-1 $44 #
body $-1 $45 $-1 $46 #
body $-1 $47 $-1 $48 #
body $-1 $49 $-1 $50 #
body $-1 $51 $-1 $52 #
body $-1 $53 $-1 $54 #
body $-1 $55 $-1 $56 #
lump $-1 $-1 $57 $0 #
transform $-1 1 0 0 0 1 0 0 0 1 79.981688894314402 42.480340724000101 15.917260637441817 1 rotate no_reflect no_shear #
lump $-1 $-1 $58 $1 #
transform $-1 1 0 0 0 1 0 0 0 1 79.981688894314402 42.480340724000101 15.917260637441817 1 rotate no_reflect no_shear #
lump $-1 $-1 $59 $2 #
transform $-1 1 0 0 0 1 0 0 0 1 79.981688894314402 42.480340724000101 15.917260637441817 1 rotate no_reflect no_shear #
lump $-1 $-1 $60 $3 #
transform $-1 1 0 0 0 1 0 0 0 1 79.981688894314402 42.480340724000101 15.917260637441817 1 rotate no_reflect no_shear #
lump $-1 $-1 $61 $4 #
transform $-1 1 0 0 0 1 0 0 0 1 79.981688894314402 42.480340724000101 15.917260637441817 1 rotate no_reflect no_shear #
lump $-1 $-1 $62 $5 #
transform $-1 1 0 0 0 1 0 0 0 1 79.981688894314402 42.480340724000101 15.917260637441817 1 rotate no_reflect no_shear #
lump $-1 $-1 $63 $6 #
transform $-1 1 0 0 0 1 0 0 0 1 79.981688894314402 42.480340724000101 15.917260637441817 1 rotate no_reflect no_shear #
lump $-1 $-1 $64 $7 #
transform $-1 1 0 0 0 1 0 0 0 1 79.981688894314402 42.480340724000101 15.917260637441817 1 rotate no_reflect no_shear #
lump $-1 $-1 $65 $8 #
transform $-1 1 0 0 0 1 0 0 0 1 79.981688894314402 42.480340724000101 15.917260637441817 1 rotate no_reflect no_shear #
lump $-1 $-1 $66 $9 #
transform $-1 1 0 0 0 1 0 0 0 1 79.981688894314402 42.480340724000101 15.917260637441817 1 rotate no_reflect no_shear #
lump $-1 $-1 $67 $10 #
transform $-1 1 0 0 0 1 0 0 0 1 79.981688894314402 42.480340724000101 15.917260637441817 1 rotate no_reflect no_shear #
lump $-1 $-1 $68 $11 #
transform $-1 1 0 0 0 1 0 0 0 1 79.981688894314402 42.480340724000101 15.917260637441817 1 rotate no_reflect no_shear #
lump $-1 $-1 $69 $12 #
transform $-1 1 0 0 0 1 0 0 0 1 79.981688894314402 42.480340724000101 15.917260637441817 1 rotate no_reflect no_shear #
lump $-1 $-1 $70 $13 #
transform $-1 1 0 0 0 1 0 0 0 1 79.981688894314402 42.480340724000101 15.917260637441817 1 rotate no_reflect no_shear #
lump $-1 $-1 $71 $14 #
transform $-1 1 0 0 0 1 0 0 0 1 79.981688894314402 42.480340724000101 15.917260637441817 1 rotate no_reflect no_shear #
lump $-1 $-1 $72 $15 #
transform $-1 1 0 0 0 1 0 0 0 1 79.981688894314402 42.480340724000101 15.917260637441817 1 rotate no_reflect no_shear #
lump $-1 $-1 $73 $16 #
transform $-1 1 0 0 0 1 0 0 0 1 79.981688894314402 42.480340724000101 15.917260637441817 1 rotate no_reflect no_shear #
lump $-1 $-1 $74 $17 #
transform $-1 1 0 0 0 1 0 0 0 1 79.981688894314402 42.480340724000101 15.917260637441817 1 rotate no_reflect no_shear #
lump $-1 $-1 $75 $18 #
transform $-1 1 0 0 0 1 0 0 0 1 79.981688894314402 42.480340724000101 15.917260637441817 1 rotate no_reflect no_shear #
shell $-1 $-1 $-1 $76 $-1 $19 #
shell $-1 $-1 $-1 $77 $-1 $21 #
shell $-1 $-1 $-1 $78 $-1 $23 #
shell $-1 $-1 $-1 $79 $-1 $25 #
shell $-1 $-1 $-1 $80 $-1 $27 #
shell $-1 $-1 $-1 $81 $-1 $29 #
shell $-1 $-1 $-1 $82 $-1 $31 #
shell $-1 $-1 $-1 $83 $-1 $33 #
shell $-1 $-1 $-1 $84 $-1 $35 #
shell $-1 $-1 $-1 $85 $-1 $37 #
shell $-1 $-1 $-1 $86 $-1 $39 #
shell $-1 $-1 $-1 $87 $-1 $41 #
shell $-1 $-1 $-1 $88 $-1 $43 #
shell $-1 $-1 $-1 $89 $-1 $45 #
shell $-1 $-1 $-1 $90 $-1 $47 #
shell $-1 $-1 $-1 $91 $-1 $49 #
shell $-1 $-1 $-1 $92 $-1 $51 #
shell $-1 $-1 $-1 $93 $-1 $53 #
shell $-1 $-1 $-1 $94 $-1 $55 #
face $-1 $95 $96 $57 $-1 $97 forward single #
face $-1 $98 $99 $58 $-1 $100 forward single #
face $-1 $101 $102 $59 $-1 $103 forward single #
face $-1 $104 $105 $60 $-1 $106 reversed single #
face $-1 $107 $108 $61 $-1 $109 forward single #
face $-1 $110 $111 $62 $-1 $112 forward single #
face $-1 $113 $114 $63 $-1 $115 forward single #
face $-1 $116 $117 $64 $-1 $118 reversed single #
face $-1 $119 $120 $65 $-1 $121 forward single #
face $-1 $122 $123 $66 $-1 $124 forward single #
face $-1 $125 $126 $67 $-1 $127 forward single #
face $-1 $128 $129 $68 $-1 $130 reversed single #
face $-1 $131 $132 $69 $-1 $133 forward single #
face $-1 $134 $135 $70 $-1 $136 forward single #
face $-1 $137 $138 $71 $-1 $139 forward single #
face $-1 $140 $141 $72 $-1 $142 reversed single #
face $-1 $143 $144 $73 $-1 $145 forward single #
face $-1 $146 $147 $74 $-1 $148 forward single #
face $-1 $149 $150 $75 $-1 $151 forward single #
face $-1 $152 $153 $57 $-1 $154 reversed single #
loop $-1 $-1 $155 $76 #
plane-surface $-1 0 0 15.917260637441817 0 0 1 1 0 0 forward_v I I I I #
face $-1 $156 $157 $58 $-1 $158 reversed single #
loop $-1 $-1 $159 $77 #
plane-surface $-1 -70.085293490422828 0 -9.355173566701545 0 0 1 1 0 0 forward_v I I I I #
face $-1 $160 $161 $59 $-1 $162 reversed single #
loop $-1 $-1 $163 $78 #
plane-surface $-1 70.085293490422828 0 -9.355173566701545 0 0 1 1 0 0 forward_v I I I I #
face $-1 $164 $165 $60 $-1 $166 reversed single #
loop $-1 $-1 $167 $79 #
plane-surface $-1 -40.69818897799 127.58658331238023 169.50208125176101 -1 0 0 0 0.82903758062907751 0.55919289150049634 forward_v I I I I #
face $-1 $168 $169 $61 $-1 $170 forward single #
loop $-1 $171 $172 $80 #
cone-surface $-1 -50.525693095874232 39.940728639273672 12.487083720822437 0 -0.82903758062907751 -0.55919289150049634 0.5 0 0 1 I I 0 1 0.5 forward I I I I #
face $-1 $173 $174 $62 $-1 $175 forward single #
loop $-1 $176 $177 $81 #
cone-surface $-1 -46.840379051667639 39.940728639273672 12.487083720822437 0 -0.82903758062907751 -0.55919289150049634 0.5 0 0 1 I I 0 1 0.5 forward I I I I #
face $-1 $178 $179 $63 $-1 $180 forward single #
loop $-1 $181 $182 $82 #
cone-surface $-1 -43.155065007461054 39.940728639273672 12.487083720822437 0 -0.82903758062907751 -0.55919289150049634 0.5 0 0 1 I I 0 1 0.5 forward I I I I #
face $-1 $183 $184 $64 $-1 $185 reversed single #
loop $-1 $-1 $186 $83 #
plane-surface $-1 -10.60373993472437 127.58658331238023 169.50208125176101 -1 0 0 0 0.82903758062907751 0.55919289150049634 forward_v I I I I #
face $-1 $187 $188 $65 $-1 $189 forward single #
loop $-1 $190 $191 $84 #
cone-surface $-1 -20.431244052608605 39.940728639273672 12.487083720822437 0 -0.82903758062907751 -0.55919289150049634 0.5 0 0 1 I I 0 1 0.5 forward I I I I #
face $-1 $192 $193 $66 $-1 $194 forward single #
loop $-1 $195 $196 $85 #
cone-surface $-1 -16.745930008402013 39.940728639273672 12.487083720822437 0 -0.82903758062907751 -0.55919289150049634 0.5 0 0 1 I I 0 1 0.5 forward I I I I #
face $-1 $197 $198 $67 $-1 $199 forward single #
loop $-1 $200 $201 $86 #
cone-surface $-1 -13.060615964195421 39.940728639273672 12.487083720822437 0 -0.82903758062907751 -0.55919289150049634 0.5 0 0 1 I I 0 1 0.5 forward I I I I #
face $-1 $202 $203 $68 $-1 $204 reversed single #
loop $-1 $-1 $205 $87 #
plane-surface $-1 19.490709108541257 127.58658331238023 169.50208125176101 -1 0 0 0 0.82903758062907751 0.55919289150049634 forward_v I I I I #
face $-1 $206 $207 $69 $-1 $208 forward single #
loop $-1 $209 $210 $88 #
cone-surface $-1 9.6632049906570217 39.940728639273672 12.487083720822437 0 -0.82903758062907751 -0.55919289150049634 0.5 0 0 1 I I 0 1 0.5 forward I I I I #
face $-1 $211 $212 $70 $-1 $213 forward single #
loop $-1 $214 $215 $89 #
cone-surface $-1 13.348519034863614 39.940728639273672 12.487083720822437 0 -0.82903758062907751 -0.55919289150049634 0.5 0 0 1 I I 0 1 0.5 forward I I I I #
face $-1 $216 $217 $71 $-1 $218 forward single #
loop $-1 $219 $220 $90 #
cone-surface $-1 17.033833079070206 39.940728639273672 12.487083720822437 0 -0.82903758062907751 -0.55919289150049634 0.5 0 0 1 I I 0 1 0.5 forward I I I I #
face $-1 $221 $222 $72 $-1 $223 reversed single #
loop $-1 $-1 $224 $91 #
plane-surface $-1 49.58515815180688 127.58658331238023 169.50208125176101 -1 0 0 0 0.82903758062907751 0.55919289150049634 forward_v I I I I #
face $-1 $225 $226 $73 $-1 $227 forward single #
loop $-1 $228 $229 $92 #
cone-surface $-1 39.757654033922648 39.940728639273672 12.487083720822437 0 -0.82903758062907751 -0.55919289150049634 0.5 0 0 1 I I 0 1 0.5 forward I I I I #
face $-1 $230 $231 $74 $-1 $232 forward single #
loop $-1 $233 $234 $93 #
cone-surface $-1 43.44296807812924 39.940728639273672 12.487083720822437 0 -0.82903758062907751 -0.55919289150049634 0.5 0 0 1 I I 0 1 0.5 forward I I I I #
face $-1 $235 $236 $75 $-1 $237 forward single #
loop $-1 $238 $239 $94 #
cone-surface $-1 47.128282122335833 39.940728639273672 12.487083720822437 0 -0.82903758062907751 -0.55919289150049634 0.5 0 0 1 I I 0 1 0.5 forward I I I I #
face $-1 $240 $241 $57 $-1 $242 reversed single #
loop $-1 $-1 $243 $95 #
plane-surface $-1 0 0 -15.917260637441817 0 0 1 1 0 0 forward_v I I I I #
coedge $-1 $244 $245 $246 $247 forward $96 $-1 #
face $-1 $248 $249 $58 $-1 $250 reversed single #
loop $-1 $-1 $251 $98 #
plane-surface $-1 -60.188898086531253 0 -12.636217102071681 -1 0 0 0 0 1 forward_v I I I I #
coedge $-1 $252 $253 $254 $255 forward $99 $-1 #
face $-1 $256 $257 $59 $-1 $258 reversed single #
loop $-1 $-1 $259 $101 #
plane-surface $-1 60.188898086531253 0 -12.636217102071681 1 0 0 0 0 -1 forward_v I I I I #
coedge $-1 $260 $261 $262 $263 reversed $102 $-1 #
face $-1 $264 $265 $60 $-1 $266 reversed single #
loop $-1 $-1 $267 $104 #
plane-surface $-1 -46.840379051667639 -5.0290683987597191 80.051697491951401 0 0.82903758062907751 0.55919289150049634 1 0 0 forward_v I I I I #
coedge $-1 $268 $269 $270 $271 reversed $105 $-1 #
face $-1 $-1 $272 $61 $-1 $273 forward single #
loop $-1 $274 $275 $107 #
cone-surface $-1 -50.525693095874232 39.318950453801861 12.067689052197064 0 -0.82903758062907751 -0.55919289150049634 0.25 0 0 1 I I -0.70710678118654746 0.70710678118654746 0.25 forward I I I I #
loop $-1 $-1 $276 $80 #
coedge $-1 $172 $172 $277 $278 reversed $108 $-1 #
face $-1 $-1 $279 $62 $-1 $280 forward single #
loop $-1 $281 $282 $110 #
cone-surface $-1 -46.840379051667639 39.318950453801861 12.067689052197064 0 -0.82903758062907751 -0.55919289150049634 0.25 0 0 1 I I -0.70710678118654746 0.70710678118654746 0.25 forward I I I I #
loop $-1 $-1 $283 $81 #
coedge $-1 $177 $177 $284 $285 reversed $111 $-1 #
face $-1 $-1 $286 $63 $-1 $287 forward single #
loop $-1 $288 $289 $113 #
cone-surface $-1 -43.155065007461054 39.318950453801861 12.067689052197064 0 -0.82903758062907751 -0.55919289150049634 0.25 0 0 1 I I -0.70710678118654746 0.70710678118654746 0.25 forward I I I I #
loop $-1 $-1 $290 $82 #
coedge $-1 $182 $182 $291 $292 reversed $114 $-1 #
face $-1 $293 $294 $64 $-1 $295 reversed single #
loop $-1 $-1 $296 $116 #
plane-surface $-1 -16.745930008402013 -5.0290683987597191 80.051697491951401 0 0.82903758062907751 0.55919289150049634 1 0 0 forward_v I I I I #
coedge $-1 $297 $298 $299 $300 reversed $117 $-1 #
face $-1 $-1 $301 $65 $-1 $302 forward single #
loop $-1 $303 $304 $119 #
cone-surface $-1 -20.431244052608605 39.318950453801861 12.067689052197064 0 -0.82903758062907751 -0.55919289150049634 0.25 0 0 1 I I -0.70710678118654746 0.70710678118654746 0.25 forward I I I I #
loop $-1 $-1 $305 $84 #
coedge $-1 $191 $191 $306 $307 reversed $120 $-1 #
face $-1 $-1 $308 $66 $-1 $309 forward single #
loop $-1 $310 $311 $122 #
cone-surface $-1 -16.745930008402013 39.318950453801861 12.067689052197064 0 -0.82903758062907751 -0.55919289150049634 0.25 0 0 1 I I -0.70710678118654746 0.70710678118654746 0.25 forward I I I I #
loop $-1 $-1 $312 $85 #
coedge $-1 $196 $196 $313 $314 reversed $123 $-1 #
face $-1 $-1 $315 $67 $-1 $316 forward single #
loop $-1 $317 $318 $125 #
cone-surface $-1 -13.060615964195421 39.318950453801861 12.067689052197064 0 -0.82903758062907751 -0.55919289150049634 0.25 0 0 1 I I -0.70710678118654746 0.70710678118654746 0.25 forward I I I I #
loop $-1 $-1 $319 $86 #
coedge $-1 $201 $201 $320 $321 reversed $126 $-1 #
face $-1 $322 $323 $68 $-1 $324 reversed single #
loop $-1 $-1 $325 $128 #
plane-surface $-1 13.348519034863614 -5.0290683987597191 80.051697491951401 0 0.82903758062907751 0.55919289150049634 1 0 0 forward_v I I I I #
coedge $-1 $326 $327 $328 $329 reversed $129 $-1 #
face $-1 $-1 $330 $69 $-1 $331 forward single #
loop $-1 $332 $333 $131 #
cone-surface $-1 9.6632049906570217 39.318950453801861 12.067689052197064 0 -0.82903758062907751 -0.55919289150049634 0.25 0 0 1 I I -0.70710678118654746 0.70710678118654746 0.25 forward I I I I #
loop $-1 $-1 $334 $88 #
coedge $-1 $210 $210 $335 $336 reversed $132 $-1 #
face $-1 $-1 $337 $70 $-1 $338 forward single #
loop $-1 $339 $340 $134 #
cone-surface $-1 13.348519034863614 39.318950453801861 12.067689052197064 0 -0.82903758062907751 -0.55919289150049634 0.25 0 0 1 I I -0.70710678118654746 0.70710678118654746 0.25 forward I I I I #
loop $-1 $-1 $341 $89 #
coedge $-1 $215 $215 $342 $343 reversed $135 $-1 #
face $-1 $-1 $344 $71 $-1 $345 forward single #
loop $-1 $346 $347 $137 #
cone-surface $-1 17.033833079070206 39.318950453801861 12.067689052197064 0 -0.82903758062907751 -0.55919289150049634 0.25 0 0 1 I I -0.70710678118654746 0.70710678118654746 0.25 forward I I I I #
loop $-1 $-1 $348 $90 #
coedge $-1 $220 $220 $349 $350 reversed $138 $-1 #
face $-1 $351 $352 $72 $-1 $353 reversed single #
loop $-1 $-1 $354 $140 #
plane-surface $-1 43.44296807812924 -5.0290683987597191 80.051697491951401 0 0.82903758062907751 0.55919289150049634 1 0 0 forward_v I I I I #
coedge $-1 $355 $356 $357 $358 reversed $141 $-1 #
face $-1 $-1 $359 $73 $-1 $360 forward single #
loop $-1 $361 $362 $143 #
cone-surface $-1 39.757654033922648 39.318950453801861 12.067689052197064 0 -0.82903758062907751 -0.55919289150049634 0.25 0 0 1 I I -0.70710678118654746 0.70710678118654746 0.25 forward I I I I #
loop $-1 $-1 $363 $92 #
coedge $-1 $229 $229 $364 $365 reversed $144 $-1 #
face $-1 $-1 $366 $74 $-1 $367 forward single #
loop $-1 $368 $369 $146 #
cone-surface $-1 43.44296807812924 39.318950453801861 12.067689052197064 0 -0.82903758062907751 -0.55919289150049634 0.25 0 0 1 I I -0.70710678118654746 0.70710678118654746 0.25 forward I I I I #
loop $-1 $-1 $370 $93 #
coedge $-1 $234 $234 $371 $372 reversed $147 $-1 #
face $-1 $-1 $373 $75 $-1 $374 forward single #
loop $-1 $375 $376 $149 #
cone-surface $-1 47.128282122335833 39.318950453801861 12.067689052197064 0 -0.82903758062907751 -0.55919289150049634 0.25 0 0 1 I I -0.70710678118654746 0.70710678118654746 0.25 forward I I I I #
loop $-1 $-1 $377 $94 #
coedge $-1 $239 $239 $378 $379 reversed $150 $-1 #
face $-1 $380 $381 $57 $-1 $382 reversed single #
loop $-1 $-1 $383 $152 #
plane-surface $-1 0 -42.480340724000101 0 0 1 0 0 0 1 forward_v I I I I #
coedge $-1 $384 $385 $386 $387 forward $153 $-1 #
coedge $-1 $388 $155 $389 $390 forward $96 $-1 #
coedge $-1 $155 $388 $391 $392 forward $96 $-1 #
coedge $-1 $393 $394 $155 $247 reversed $395 $-1 #
edge $-1 $396 -42.480340724000101 $397 42.480340724000101 $246 $398 forward 7 unknown #
face $-1 $399 $400 $58 $-1 $401 reversed single #
loop $-1 $-1 $402 $156 #
plane-surface $-1 0 0 -15.917260637441817 0 0 1 1 0 0 forward_v I I I I #
coedge $-1 $403 $254 $404 $405 reversed $157 $-1 #
coedge $-1 $406 $159 $407 $408 reversed $99 $-1 #
coedge $-1 $159 $406 $409 $410 reversed $99 $-1 #
coedge $-1 $251 $411 $159 $255 reversed $157 $-1 #
edge $-1 $412 -42.480340724000101 $413 42.480340724000101 $254 $414 forward 7 unknown #
face $-1 $415 $416 $59 $-1 $417 reversed single #
loop $-1 $-1 $418 $160 #
plane-surface $-1 0 -42.480340724000101 0 0 1 0 0 0 1 forward_v I I I I #
coedge $-1 $419 $420 $421 $422 reversed $161 $-1 #
coedge $-1 $423 $163 $424 $425 reversed $102 $-1 #
coedge $-1 $163 $423 $418 $426 reversed $102 $-1 #
coedge $-1 $427 $428 $163 $263 forward $429 $-1 #
edge $-1 $430 -42.480340724000101 $431 42.480340724000101 $262 $432 forward 7 unknown #
face $-1 $433 $434 $60 $-1 $435 reversed single #
loop $-1 $-1 $436 $164 #
plane-surface $-1 -52.982569125345279 127.58658331238023 169.50208125176101 1 0 0 0 -0.82903758062907751 -0.55919289150049634 forward_v I I I I #
coedge $-1 $437 $438 $439 $440 reversed $165 $-1 #
coedge $-1 $269 $167 $441 $442 reversed $105 $-1 #
coedge $-1 $167 $268 $437 $443 reversed $105 $-1 #
coedge $-1 $439 $444 $167 $271 forward $434 $-1 #
edge $-1 $445 68.833779988438692 $446 75.134940930176953 $270 $447 forward 7 unknown #
loop $-1 $-1 $277 $168 #
plane-surface $-1 -46.840379051667639 -5.0290683987597191 80.051697491951401 0 0.82903758062907751 0.55919289150049634 1 0 0 forward_v I I I I #
loop $-1 $-1 $448 $107 #
coedge $-1 $275 $275 $276 $449 reversed $169 $-1 #
coedge $-1 $276 $276 $275 $449 forward $171 $-1 #
coedge $-1 $277 $277 $172 $278 forward $272 $-1 #
edge $-1 $450 2.0559426330060775e-015 $450 6.2831853071796022 $277 $451 forward 7 unknown #
loop $-1 $-1 $284 $173 #
plane-surface $-1 -46.840379051667639 -5.0290683987597191 80.051697491951401 0 0.82903758062907751 0.55919289150049634 1 0 0 forward_v I I I I #
loop $-1 $-1 $452 $110 #
coedge $-1 $282 $282 $283 $453 reversed $174 $-1 #
coedge $-1 $283 $283 $282 $453 forward $176 $-1 #
coedge $-1 $284 $284 $177 $285 forward $279 $-1 #
edge $-1 $454 2.0559426330060775e-015 $454 6.2831853071796022 $284 $455 forward 7 unknown #
loop $-1 $-1 $291 $178 #
plane-surface $-1 -46.840379051667639 -5.0290683987597191 80.051697491951401 0 0.82903758062907751 0.55919289150049634 1 0 0 forward_v I I I I #
loop $-1 $-1 $456 $113 #
coedge $-1 $289 $289 $290 $457 reversed $179 $-1 #
coedge $-1 $290 $290 $289 $457 forward $181 $-1 #
coedge $-1 $291 $291 $182 $292 forward $286 $-1 #
edge $-1 $458 2.0559426330060775e-015 $458 6.2831853071796022 $291 $459 forward 7 unknown #
face $-1 $460 $461 $64 $-1 $462 forward single #
loop $-1 $-1 $463 $183 #
plane-surface $-1 -22.888120082079656 127.58658331238023 169.50208125176101 1 0 0 0 -0.82903758062907751 -0.55919289150049634 forward_v I I I I #
coedge $-1 $464 $465 $466 $467 reversed $184 $-1 #
coedge $-1 $298 $186 $468 $469 reversed $117 $-1 #
coedge $-1 $186 $297 $464 $470 reversed $117 $-1 #
coedge $-1 $466 $471 $186 $300 forward $472 $-1 #
edge $-1 $473 68.833779988438692 $474 75.134940930176953 $299 $475 forward 7 unknown #
loop $-1 $-1 $306 $187 #
plane-surface $-1 -16.745930008402013 -5.0290683987597191 80.051697491951401 0 0.82903758062907751 0.55919289150049634 1 0 0 forward_v I I I I #
loop $-1 $-1 $476 $119 #
coedge $-1 $304 $304 $305 $477 reversed $188 $-1 #
coedge $-1 $305 $305 $304 $477 forward $190 $-1 #
coedge $-1 $306 $306 $191 $307 forward $301 $-1 #
edge $-1 $478 2.0559426330060775e-015 $478 6.2831853071796022 $306 $479 forward 7 unknown #
loop $-1 $-1 $313 $192 #
plane-surface $-1 -16.745930008402013 -5.0290683987597191 80.051697491951401 0 0.82903758062907751 0.55919289150049634 1 0 0 forward_v I I I I #
loop $-1 $-1 $480 $122 #
coedge $-1 $311 $311 $312 $481 reversed $193 $-1 #
coedge $-1 $312 $312 $311 $481 forward $195 $-1 #
coedge $-1 $313 $313 $196 $314 forward $308 $-1 #
edge $-1 $482 2.0559426330060775e-015 $482 6.2831853071796022 $313 $483 forward 7 unknown #
loop $-1 $-1 $320 $197 #
plane-surface $-1 -16.745930008402013 -5.0290683987597191 80.051697491951401 0 0.82903758062907751 0.55919289150049634 1 0 0 forward_v I I I I #
loop $-1 $-1 $484 $125 #
coedge $-1 $318 $318 $319 $485 reversed $198 $-1 #
coedge $-1 $319 $319 $318 $485 forward $200 $-1 #
coedge $-1 $320 $320 $201 $321 forward $315 $-1 #
edge $-1 $486 2.0559426330060775e-015 $486 6.2831853071796022 $320 $487 forward 7 unknown #
face $-1 $488 $489 $68 $-1 $490 forward single #
loop $-1 $-1 $491 $202 #
plane-surface $-1 7.2063289611859709 127.58658331238023 169.50208125176101 1 0 0 0 -0.82903758062907751 -0.55919289150049634 forward_v I I I I #
coedge $-1 $492 $493 $494 $495 reversed $203 $-1 #
coedge $-1 $327 $205 $496 $497 reversed $129 $-1 #
coedge $-1 $205 $326 $492 $498 reversed $129 $-1 #
coedge $-1 $494 $499 $205 $329 forward $500 $-1 #
edge $-1 $501 68.833779988438692 $502 75.134940930176953 $328 $503 forward 7 unknown #
loop $-1 $-1 $335 $206 #
plane-surface $-1 13.348519034863614 -5.0290683987597191 80.051697491951401 0 0.82903758062907751 0.55919289150049634 1 0 0 forward_v I I I I #
loop $-1 $-1 $504 $131 #
coedge $-1 $333 $333 $334 $505 reversed $207 $-1 #
coedge $-1 $334 $334 $333 $505 forward $209 $-1 #
coedge $-1 $335 $335 $210 $336 forward $330 $-1 #
edge $-1 $506 2.0559426330060775e-015 $506 6.2831853071796022 $335 $507 forward 7 unknown #
loop $-1 $-1 $342 $211 #
plane-surface $-1 13.348519034863614 -5.0290683987597191 80.051697491951401 0 0.82903758062907751 0.55919289150049634 1 0 0 forward_v I I I I #
loop $-1 $-1 $508 $134 #
coedge $-1 $340 $340 $341 $509 reversed $212 $-1 #
coedge $-1 $341 $341 $340 $509 forward $214 $-1 #
coedge $-1 $342 $342 $215 $343 forward $337 $-1 #
edge $-1 $510 2.0559426330060775e-015 $510 6.2831853071796022 $342 $511 forward 7 unknown #
loop $-1 $-1 $349 $216 #
plane-surface $-1 13.348519034863614 -5.0290683987597191 80.051697491951401 0 0.82903758062907751 0.55919289150049634 1 0 0 forward_v I I I I #
loop $-1 $-1 $512 $137 #
coedge $-1 $347 $347 $348 $513 reversed $217 $-1 #
coedge $-1 $348 $348 $347 $513 forward $219 $-1 #
coedge $-1 $349 $349 $220 $350 forward $344 $-1 #
edge $-1 $514 2.0559426330060775e-015 $514 6.2831853071796022 $349 $515 forward 7 unknown #
face $-1 $516 $517 $72 $-1 $518 forward single #
loop $-1 $-1 $519 $221 #
plane-surface $-1 37.300778004451601 127.58658331238023 169.50208125176101 1 0 0 0 -0.82903758062907751 -0.55919289150049634 forward_v I I I I #
coedge $-1 $520 $521 $522 $523 reversed $222 $-1 #
coedge $-1 $356 $224 $524 $525 reversed $141 $-1 #
coedge $-1 $224 $355 $520 $526 reversed $141 $-1 #
coedge $-1 $522 $527 $224 $358 forward $528 $-1 #
edge $-1 $529 68.833779988438692 $530 75.134940930176953 $357 $531 forward 7 unknown #
loop $-1 $-1 $364 $225 #
plane-surface $-1 43.44296807812924 -5.0290683987597191 80.051697491951401 0 0.82903758062907751 0.55919289150049634 1 0 0 forward_v I I I I #
loop $-1 $-1 $532 $143 #
coedge $-1 $362 $362 $363 $533 reversed $226 $-1 #
coedge $-1 $363 $363 $362 $533 forward $228 $-1 #
coedge $-1 $364 $364 $229 $365 forward $359 $-1 #
edge $-1 $534 2.0559426330060775e-015 $534 6.2831853071796022 $364 $535 forward 7 unknown #
loop $-1 $-1 $371 $230 #
plane-surface $-1 43.44296807812924 -5.0290683987597191 80.051697491951401 0 0.82903758062907751 0.55919289150049634 1 0 0 forward_v I I I I #
loop $-1 $-1 $536 $146 #
coedge $-1 $369 $369 $370 $537 reversed $231 $-1 #
coedge $-1 $370 $370 $369 $537 forward $233 $-1 #
coedge $-1 $371 $371 $234 $372 forward $366 $-1 #
edge $-1 $538 2.0559426330060775e-015 $538 6.2831853071796022 $371 $539 forward 7 unknown #
loop $-1 $-1 $378 $235 #
plane-surface $-1 43.44296807812924 -5.0290683987597191 80.051697491951401 0 0.82903758062907751 0.55919289150049634 1 0 0 forward_v I I I I #
loop $-1 $-1 $540 $149 #
coedge $-1 $376 $376 $377 $541 reversed $236 $-1 #
coedge $-1 $377 $377 $376 $541 forward $238 $-1 #
coedge $-1 $378 $378 $239 $379 forward $373 $-1 #
edge $-1 $542 2.0559426330060775e-015 $542 6.2831853071796022 $378 $543 forward 7 unknown #
face $-1 $544 $545 $57 $-1 $546 reversed single #
loop $-1 $-1 $547 $240 #
plane-surface $-1 -79.981688894314402 0 0 1 0 0 0 0 -1 forward_v I I I I #
coedge $-1 $548 $391 $549 $550 forward $241 $-1 #
coedge $-1 $551 $243 $548 $552 forward $153 $-1 #
coedge $-1 $243 $551 $553 $554 forward $153 $-1 #
coedge $-1 $394 $393 $243 $387 reversed $395 $-1 #
edge $-1 $555 -42.480340724000101 $556 42.480340724000101 $386 $557 forward 7 unknown #
coedge $-1 $245 $244 $558 $559 forward $96 $-1 #
coedge $-1 $560 $561 $244 $390 reversed $545 $-1 #
edge $-1 $397 -79.981688894314402 $562 79.981688894314402 $389 $563 forward 7 unknown #
coedge $-1 $383 $564 $245 $392 reversed $241 $-1 #
edge $-1 $565 -79.981688894314402 $396 79.981688894314402 $391 $566 forward 7 unknown #
coedge $-1 $386 $246 $564 $567 forward $395 $-1 #
coedge $-1 $246 $386 $560 $568 reversed $395 $-1 #
loop $-1 $-1 $393 $544 #
vertex $-1 $247 $569 #
vertex $-1 $247 $570 #
straight-curve $-1 79.981688894314402 0 15.917260637441817 0 1 0 I I #
face $-1 $571 $572 $58 $-1 $573 reversed single #
loop $-1 $-1 $404 $248 #
plane-surface $-1 0 -42.480340724000101 0 0 1 0 0 0 1 forward_v I I I I #
coedge $-1 $574 $575 $403 $576 forward $249 $-1 #
coedge $-1 $411 $251 $402 $576 reversed $157 $-1 #
coedge $-1 $409 $577 $251 $405 forward $400 $-1 #
edge $-1 $578 -9.5991520864059758 $412 -3.0370650156657044 $404 $579 forward 7 unknown #
coedge $-1 $253 $252 $580 $581 reversed $99 $-1 #
coedge $-1 $582 $583 $252 $408 forward $584 $-1 #
edge $-1 $585 -44.939042149102988 $413 -25.146251341319839 $407 $586 forward 7 unknown #
coedge $-1 $587 $404 $253 $410 forward $400 $-1 #
edge $-1 $412 25.146251341319839 $588 44.939042149102988 $409 $589 forward 7 unknown #
coedge $-1 $254 $403 $582 $590 reversed $157 $-1 #
vertex $-1 $410 $591 #
vertex $-1 $408 $592 #
straight-curve $-1 -60.188898086531253 0 -9.355173566701545 0 1 0 I I #
face $-1 $593 $594 $59 $-1 $595 reversed single #
loop $-1 $-1 $596 $256 #
plane-surface $-1 0 0 -15.917260637441817 0 0 1 1 0 0 forward_v I I I I #
coedge $-1 $597 $598 $261 $426 forward $257 $-1 #
coedge $-1 $599 $259 $596 $600 reversed $161 $-1 #
coedge $-1 $259 $599 $423 $601 reversed $161 $-1 #
coedge $-1 $424 $602 $259 $422 forward $594 $-1 #
edge $-1 $603 -9.5991520864059758 $604 -3.0370650156657044 $421 $605 forward 7 unknown #
coedge $-1 $261 $260 $420 $601 forward $102 $-1 #
coedge $-1 $606 $421 $260 $425 forward $594 $-1 #
edge $-1 $604 25.146251341319839 $430 44.939042149102988 $424 $607 forward 7 unknown #
edge $-1 $431 -44.939042149102988 $608 -25.146251341319839 $418 $609 forward 7 unknown #
coedge $-1 $610 $262 $598 $611 forward $429 $-1 #
coedge $-1 $262 $610 $606 $612 reversed $429 $-1 #
loop $-1 $-1 $262 $593 #
vertex $-1 $612 $613 #
vertex $-1 $611 $614 #
straight-curve $-1 79.981688894314402 0 -9.355173566701545 0 -1 0 I I #
face $-1 $-1 $615 $60 $-1 $616 forward single #
loop $-1 $-1 $270 $264 #
plane-surface $-1 0 42.480340724000101 0 0 -1 0 0 0 -1 forward_v I I I I #
coedge $-1 $617 $618 $619 $620 reversed $265 $-1 #
coedge $-1 $621 $267 $269 $443 forward $165 $-1 #
coedge $-1 $267 $621 $617 $622 forward $165 $-1 #
coedge $-1 $619 $270 $267 $440 forward $434 $-1 #
edge $-1 $446 17.27799945215618 $623 29.562379599511459 $439 $624 forward 7 unknown #
coedge $-1 $625 $626 $268 $442 forward $615 $-1 #
edge $-1 $627 -25.563137521013786 $445 -21.312950932190013 $441 $628 forward 7 unknown #
edge $-1 $446 -84.960681448000216 $627 -77.360108097686094 $269 $629 forward 7 unknown #
coedge $-1 $270 $619 $625 $630 reversed $434 $-1 #
vertex $-1 $630 $631 #
vertex $-1 $271 $632 #
straight-curve $-1 -40.69818897799 42.480340724000101 84.751040625880506 0 0 -1 I I #
coedge $-1 $448 $448 $-1 $633 reversed $274 $-1 #
edge $-1 $634 0 $634 6.2831853071796004 $275 $635 forward 7 unknown #
vertex $-1 $278 $636 #
ellipse-curve $-1 -50.525693095874232 40.355247429588204 12.76668016657268 0 0.82903758062907751 0.55919289150049634 0.5 0 0 1 I I #
coedge $-1 $452 $452 $-1 $637 reversed $281 $-1 #
edge $-1 $638 0 $638 6.2831853071796004 $282 $639 forward 7 unknown #
vertex $-1 $285 $640 #
ellipse-curve $-1 -46.840379051667639 40.355247429588204 12.76668016657268 0 0.82903758062907751 0.55919289150049634 0.5 0 0 1 I I #
coedge $-1 $456 $456 $-1 $641 reversed $288 $-1 #
edge $-1 $642 0 $642 6.2831853071796004 $289 $643 forward 7 unknown #
vertex $-1 $292 $644 #
ellipse-curve $-1 -43.155065007461054 40.355247429588204 12.76668016657268 0 0.82903758062907751 0.55919289150049634 0.5 0 0 1 I I #
face $-1 $-1 $472 $64 $-1 $645 reversed single #
loop $-1 $-1 $646 $293 #
plane-surface $-1 0 0 15.917260637441817 0 0 1 1 0 0 forward_v I I I I #
coedge $-1 $647 $648 $649 $650 reversed $294 $-1 #
coedge $-1 $651 $296 $298 $470 forward $184 $-1 #
coedge $-1 $296 $651 $647 $652 forward $184 $-1 #
coedge $-1 $649 $299 $296 $467 forward $472 $-1 #
edge $-1 $474 2.2307749305233635 $653 14.515155077878649 $466 $654 forward 7 unknown #
coedge $-1 $655 $656 $297 $469 forward $461 $-1 #
edge $-1 $657 -25.563137521013786 $473 -21.312950932190013 $468 $658 forward 7 unknown #
edge $-1 $474 -84.960681448000216 $657 -77.360108097686094 $298 $659 forward 7 unknown #
coedge $-1 $299 $649 $655 $660 reversed $472 $-1 #
loop $-1 $-1 $649 $460 #
vertex $-1 $660 $661 #
vertex $-1 $300 $662 #
straight-curve $-1 -10.60373993472437 42.480340724000101 84.751040625880506 0 0 -1 I I #
coedge $-1 $476 $476 $-1 $663 reversed $303 $-1 #
edge $-1 $664 0 $664 6.2831853071796004 $304 $665 forward 7 unknown #
vertex $-1 $307 $666 #
ellipse-curve $-1 -20.431244052608605 40.355247429588204 12.76668016657268 0 0.82903758062907751 0.55919289150049634 0.5 0 0 1 I I #
coedge $-1 $480 $480 $-1 $667 reversed $310 $-1 #
edge $-1 $668 0 $668 6.2831853071796004 $311 $669 forward 7 unknown #
vertex $-1 $314 $670 #
ellipse-curve $-1 -16.745930008402013 40.355247429588204 12.76668016657268 0 0.82903758062907751 0.55919289150049634 0.5 0 0 1 I I #
coedge $-1 $484 $484 $-1 $671 reversed $317 $-1 #
edge $-1 $672 0 $672 6.2831853071796004 $318 $673 forward 7 unknown #
vertex $-1 $321 $674 #
ellipse-curve $-1 -13.060615964195421 40.355247429588204 12.76668016657268 0 0.82903758062907751 0.55919289150049634 0.5 0 0 1 I I #
face $-1 $-1 $500 $68 $-1 $675 reversed single #
loop $-1 $-1 $676 $322 #
plane-surface $-1 0 0 15.917260637441817 0 0 1 1 0 0 forward_v I I I I #
coedge $-1 $677 $678 $679 $680 reversed $323 $-1 #
coedge $-1 $681 $325 $327 $498 forward $203 $-1 #
coedge $-1 $325 $681 $677 $682 forward $203 $-1 #
coedge $-1 $679 $328 $325 $495 forward $500 $-1 #
edge $-1 $502 -12.81644959110945 $683 -0.53206944375416398 $494 $684 forward 7 unknown #
coedge $-1 $685 $686 $326 $497 forward $489 $-1 #
edge $-1 $687 -25.563137521013786 $501 -21.312950932190013 $496 $688 forward 7 unknown #
edge $-1 $502 -84.960681448000216 $687 -77.360108097686094 $327 $689 forward 7 unknown #
coedge $-1 $328 $679 $685 $690 reversed $500 $-1 #
loop $-1 $-1 $679 $488 #
vertex $-1 $690 $691 #
vertex $-1 $329 $692 #
straight-curve $-1 19.490709108541257 42.480340724000101 84.751040625880506 0 0 -1 I I #
coedge $-1 $504 $504 $-1 $693 reversed $332 $-1 #
edge $-1 $694 0 $694 6.2831853071796004 $333 $695 forward 7 unknown #
vertex $-1 $336 $696 #
ellipse-curve $-1 9.6632049906570217 40.355247429588204 12.76668016657268 0 0.82903758062907751 0.55919289150049634 0.5 0 0 1 I I #
coedge $-1 $508 $508 $-1 $697 reversed $339 $-1 #
edge $-1 $698 0 $698 6.2831853071796004 $340 $699 forward 7 unknown #
vertex $-1 $343 $700 #
ellipse-curve $-1 13.348519034863614 40.355247429588204 12.76668016657268 0 0.82903758062907751 0.55919289150049634 0.5 0 0 1 I I #
coedge $-1 $512 $512 $-1 $701 reversed $346 $-1 #
edge $-1 $702 0 $702 6.2831853071796004 $347 $703 forward 7 unknown #
vertex $-1 $350 $704 #
ellipse-curve $-1 17.033833079070206 40.355247429588204 12.76668016657268 0 0.82903758062907751 0.55919289150049634 0.5 0 0 1 I I #
face $-1 $-1 $528 $72 $-1 $705 reversed single #
loop $-1 $-1 $706 $351 #
plane-surface $-1 0 0 15.917260637441817 0 0 1 1 0 0 forward_v I I I I #
coedge $-1 $707 $708 $709 $710 reversed $352 $-1 #
coedge $-1 $711 $354 $356 $526 forward $222 $-1 #
coedge $-1 $354 $711 $707 $712 forward $222 $-1 #
coedge $-1 $709 $357 $354 $523 forward $528 $-1 #
edge $-1 $530 -27.86367411274226 $713 -15.579293965386981 $522 $714 forward 7 unknown #
coedge $-1 $715 $716 $355 $525 forward $517 $-1 #
edge $-1 $717 -25.563137521013786 $529 -21.312950932190013 $524 $718 forward 7 unknown #
edge $-1 $530 -84.960681448000216 $717 -77.360108097686094 $356 $719 forward 7 unknown #
coedge $-1 $357 $709 $715 $720 reversed $528 $-1 #
loop $-1 $-1 $709 $516 #
vertex $-1 $720 $721 #
vertex $-1 $358 $722 #
straight-curve $-1 49.58515815180688 42.480340724000101 84.751040625880506 0 0 -1 I I #
coedge $-1 $532 $532 $-1 $723 reversed $361 $-1 #
edge $-1 $724 0 $724 6.2831853071796004 $362 $725 forward 7 unknown #
vertex $-1 $365 $726 #
ellipse-curve $-1 39.757654033922648 40.355247429588204 12.76668016657268 0 0.82903758062907751 0.55919289150049634 0.5 0 0 1 I I #
coedge $-1 $536 $536 $-1 $727 reversed $368 $-1 #
edge $-1 $728 0 $728 6.2831853071796004 $369 $729 forward 7 unknown #
vertex $-1 $372 $730 #
ellipse-curve $-1 43.44296807812924 40.355247429588204 12.76668016657268 0 0.82903758062907751 0.55919289150049634 0.5 0 0 1 I I #
coedge $-1 $540 $540 $-1 $731 reversed $375 $-1 #
edge $-1 $732 0 $732 6.2831853071796004 $376 $733 forward 7 unknown #
vertex $-1 $379 $734 #
ellipse-curve $-1 47.128282122335833 40.355247429588204 12.76668016657268 0 0.82903758062907751 0.55919289150049634 0.5 0 0 1 I I #
face $-1 $-1 $395 $57 $-1 $735 reversed single #
loop $-1 $-1 $560 $380 #
plane-surface $-1 0 42.480340724000101 0 0 -1 0 0 0 -1 forward_v I I I I #
coedge $-1 $736 $558 $561 $737 forward $381 $-1 #
coedge $-1 $564 $383 $384 $552 reversed $241 $-1 #
coedge $-1 $558 $736 $383 $550 reversed $381 $-1 #
edge $-1 $565 -15.917260637441817 $738 15.917260637441817 $549 $739 forward 7 unknown #
coedge $-1 $385 $384 $736 $740 forward $153 $-1 #
edge $-1 $556 -79.981688894314402 $738 79.981688894314402 $548 $741 forward 7 unknown #
coedge $-1 $561 $560 $385 $554 reversed $545 $-1 #
edge $-1 $742 -79.981688894314402 $555 79.981688894314402 $553 $743 forward 7 unknown #
vertex $-1 $387 $744 #
vertex $-1 $567 $745 #
straight-curve $-1 79.981688894314402 0 -15.917260637441817 0 -1 0 I I #
coedge $-1 $547 $549 $388 $559 reversed $381 $-1 #
edge $-1 $562 -42.480340724000101 $565 42.480340724000101 $558 $746 forward 7 unknown #
coedge $-1 $553 $389 $394 $568 forward $545 $-1 #
coedge $-1 $389 $553 $547 $737 reversed $545 $-1 #
vertex $-1 $390 $747 #
straight-curve $-1 0 42.480340724000101 15.917260637441817 -1 0 0 I I #
coedge $-1 $391 $548 $393 $567 reversed $241 $-1 #
vertex $-1 $559 $748 #
straight-curve $-1 0 -42.480340724000101 15.917260637441817 1 0 0 I I #
edge $-1 $396 -15.917260637441817 $556 15.917260637441817 $393 $749 forward 7 unknown #
edge $-1 $397 -15.917260637441817 $555 15.917260637441817 $394 $750 forward 7 unknown #
point $-1 79.981688894314402 -42.480340724000101 15.917260637441817 #
point $-1 79.981688894314402 42.480340724000101 15.917260637441817 #
face $-1 $-1 $584 $58 $-1 $751 reversed single #
loop $-1 $-1 $580 $399 #
plane-surface $-1 -79.981688894314402 0 0 1 0 0 0 0 -1 forward_v I I I I #
coedge $-1 $752 $402 $577 $753 forward $249 $-1 #
coedge $-1 $402 $752 $754 $755 forward $249 $-1 #
edge $-1 $756 -42.480340724000101 $578 42.480340724000101 $402 $757 forward 7 unknown #
coedge $-1 $404 $587 $574 $753 reversed $400 $-1 #
vertex $-1 $753 $758 #
straight-curve $-1 -60.188898086531253 -42.480340724000101 -6.3181085510358406 0 0 1 I I #
coedge $-1 $759 $760 $406 $581 forward $572 $-1 #
edge $-1 $588 -42.480340724000101 $585 42.480340724000101 $580 $761 forward 7 unknown #
coedge $-1 $754 $407 $411 $590 forward $584 $-1 #
coedge $-1 $407 $754 $759 $762 reversed $584 $-1 #
loop $-1 $-1 $582 $571 #
vertex $-1 $762 $763 #
straight-curve $-1 -35.042646745211414 42.480340724000101 -9.355173566701545 1 0 0 I I #
coedge $-1 $577 $409 $760 $764 forward $400 $-1 #
vertex $-1 $764 $765 #
straight-curve $-1 -35.042646745211414 -42.480340724000101 -9.355173566701545 -1 0 0 I I #
edge $-1 $413 3.0370650156657044 $756 9.5991520864059758 $582 $766 forward 7 unknown #
point $-1 -60.188898086531253 -42.480340724000101 -9.355173566701545 #
point $-1 -60.188898086531253 42.480340724000101 -9.355173566701545 #
face $-1 $-1 $429 $59 $-1 $767 reversed single #
loop $-1 $-1 $424 $415 #
plane-surface $-1 0 42.480340724000101 0 0 -1 0 0 0 -1 forward_v I I I I #
coedge $-1 $768 $769 $419 $600 forward $416 $-1 #
coedge $-1 $770 $418 $599 $771 forward $257 $-1 #
coedge $-1 $418 $770 $427 $611 reversed $257 $-1 #
coedge $-1 $420 $419 $597 $771 reversed $161 $-1 #
edge $-1 $772 -42.480340724000101 $603 42.480340724000101 $596 $773 forward 7 unknown #
edge $-1 $604 -42.480340724000101 $608 42.480340724000101 $420 $774 forward 7 unknown #
coedge $-1 $421 $606 $768 $775 reversed $594 $-1 #
vertex $-1 $775 $776 #
vertex $-1 $425 $777 #
straight-curve $-1 60.188898086531253 42.480340724000101 -6.3181085510358406 0 0 1 I I #
coedge $-1 $602 $424 $428 $612 forward $594 $-1 #
straight-curve $-1 35.042646745211414 42.480340724000101 -9.355173566701545 1 0 0 I I #
vertex $-1 $426 $778 #
straight-curve $-1 35.042646745211414 -42.480340724000101 -9.355173566701545 -1 0 0 I I #
coedge $-1 $428 $427 $779 $780 reversed $429 $-1 #
edge $-1 $431 9.355173566701545 $781 15.917260637441817 $427 $782 forward 7 unknown #
edge $-1 $430 9.355173566701545 $783 15.917260637441817 $428 $784 forward 7 unknown #
point $-1 79.981688894314402 42.480340724000101 -9.355173566701545 #
point $-1 79.981688894314402 -42.480340724000101 -9.355173566701545 #
loop $-1 $-1 $441 $433 #
plane-surface $-1 0 0 15.917260637441817 0 0 1 1 0 0 forward_v I I I I #
coedge $-1 $618 $436 $438 $622 reversed $265 $-1 #
coedge $-1 $436 $617 $785 $786 reversed $265 $-1 #
coedge $-1 $444 $439 $436 $620 forward $434 $-1 #
edge $-1 $623 -75.134940930176953 $787 -68.833779988438692 $619 $788 forward 7 unknown #
coedge $-1 $438 $437 $626 $789 reversed $165 $-1 #
edge $-1 $790 77.360108097686094 $623 84.960681448000216 $617 $791 forward 7 unknown #
vertex $-1 $440 $792 #
straight-curve $-1 -23.42018952583382 42.480340724000101 9.6160996957035465 -1 0 0 I I #
coedge $-1 $785 $441 $444 $630 forward $615 $-1 #
coedge $-1 $441 $785 $621 $789 forward $615 $-1 #
vertex $-1 $442 $793 #
straight-curve $-1 -40.69818897799 63.793291656190114 15.917260637441814 0 1 0 I I #
straight-curve $-1 -40.69818897799 -5.0290683987597191 80.051697491951401 0 -0.55919289150049634 0.82903758062907751 I I #
edge $-1 $445 40.69818897799 $787 52.982569125345279 $444 $794 forward 7 unknown #
point $-1 -40.69818897799 42.480340724000101 15.917260637441817 #
point $-1 -40.69818897799 42.480340724000101 9.6160996957035536 #
edge $-1 $795 1 $795 0 $448 $-1 forward 7 unknown #
vertex $-1 $449 $796 #
ellipse-curve $-1 -50.525693095874232 39.526209848959134 12.207487275072188 0 0.82903758062907751 0.55919289150049634 0.5 0 0 1 I I #
point $-1 -50.025693095874232 40.355247429588211 12.766680166572684 #
edge $-1 $797 1 $797 0 $452 $-1 forward 7 unknown #
vertex $-1 $453 $798 #
ellipse-curve $-1 -46.840379051667639 39.526209848959134 12.207487275072188 0 0.82903758062907751 0.55919289150049634 0.5 0 0 1 I I #
point $-1 -46.340379051667639 40.355247429588211 12.766680166572684 #
edge $-1 $799 1 $799 0 $456 $-1 forward 7 unknown #
vertex $-1 $457 $800 #
ellipse-curve $-1 -43.155065007461054 39.526209848959134 12.207487275072188 0 0.82903758062907751 0.55919289150049634 0.5 0 0 1 I I #
point $-1 -42.655065007461054 40.355247429588211 12.766680166572684 #
plane-surface $-1 0 42.480340724000101 0 0 -1 0 0 0 -1 forward_v I I I I #
coedge $-1 $656 $655 $648 $801 forward $461 $-1 #
coedge $-1 $648 $463 $465 $652 reversed $294 $-1 #
coedge $-1 $463 $647 $646 $801 reversed $294 $-1 #
coedge $-1 $471 $466 $463 $650 forward $472 $-1 #
edge $-1 $653 -75.134940930176953 $802 -68.833779988438692 $649 $803 forward 7 unknown #
coedge $-1 $465 $464 $656 $804 reversed $184 $-1 #
edge $-1 $805 77.360108097686094 $653 84.960681448000216 $647 $806 forward 7 unknown #
vertex $-1 $467 $807 #
straight-curve $-1 -8.3729650042010064 42.480340724000101 9.6160996957035465 -1 0 0 I I #
coedge $-1 $646 $468 $471 $660 forward $461 $-1 #
coedge $-1 $468 $646 $651 $804 forward $461 $-1 #
vertex $-1 $469 $808 #
straight-curve $-1 -10.60373993472437 63.793291656190114 15.917260637441814 0 1 0 I I #
straight-curve $-1 -10.60373993472437 -5.0290683987597191 80.051697491951401 0 -0.55919289150049634 0.82903758062907751 I I #
edge $-1 $473 10.60373993472437 $802 22.888120082079656 $471 $809 forward 7 unknown #
point $-1 -10.60373993472437 42.480340724000101 15.917260637441817 #
point $-1 -10.60373993472437 42.480340724000101 9.6160996957035536 #
edge $-1 $810 1 $810 0 $476 $-1 forward 7 unknown #
vertex $-1 $477 $811 #
ellipse-curve $-1 -20.431244052608605 39.526209848959134 12.207487275072188 0 0.82903758062907751 0.55919289150049634 0.5 0 0 1 I I #
point $-1 -19.931244052608605 40.355247429588211 12.766680166572684 #
edge $-1 $812 1 $812 0 $480 $-1 forward 7 unknown #
vertex $-1 $481 $813 #
ellipse-curve $-1 -16.745930008402013 39.526209848959134 12.207487275072188 0 0.82903758062907751 0.55919289150049634 0.5 0 0 1 I I #
point $-1 -16.245930008402013 40.355247429588211 12.766680166572684 #
edge $-1 $814 1 $814 0 $484 $-1 forward 7 unknown #
vertex $-1 $485 $815 #
ellipse-curve $-1 -13.060615964195421 39.526209848959134 12.207487275072188 0 0.82903758062907751 0.55919289150049634 0.5 0 0 1 I I #
point $-1 -12.560615964195421 40.355247429588211 12.766680166572684 #
plane-surface $-1 0 42.480340724000101 0 0 -1 0 0 0 -1 forward_v I I I I #
coedge $-1 $686 $685 $678 $816 forward $489 $-1 #
coedge $-1 $678 $491 $493 $682 reversed $323 $-1 #
coedge $-1 $491 $677 $676 $816 reversed $323 $-1 #
coedge $-1 $499 $494 $491 $680 forward $500 $-1 #
edge $-1 $683 -75.134940930176953 $817 -68.833779988438692 $679 $818 forward 7 unknown #
coedge $-1 $493 $492 $686 $819 reversed $203 $-1 #
edge $-1 $820 77.360108097686094 $683 84.960681448000216 $677 $821 forward 7 unknown #
vertex $-1 $495 $822 #
straight-curve $-1 6.6742595174318069 42.480340724000101 9.6160996957035465 -1 0 0 I I #
coedge $-1 $676 $496 $499 $690 forward $489 $-1 #
coedge $-1 $496 $676 $681 $819 forward $489 $-1 #
vertex $-1 $497 $823 #
straight-curve $-1 19.490709108541257 63.793291656190114 15.917260637441814 0 1 0 I I #
straight-curve $-1 19.490709108541257 -5.0290683987597191 80.051697491951401 0 -0.55919289150049634 0.82903758062907751 I I #
edge $-1 $501 -19.490709108541257 $817 -7.2063289611859709 $499 $824 forward 7 unknown #
point $-1 19.490709108541257 42.480340724000101 15.917260637441817 #
point $-1 19.490709108541257 42.480340724000101 9.6160996957035536 #
edge $-1 $825 1 $825 0 $504 $-1 forward 7 unknown #
vertex $-1 $505 $826 #
ellipse-curve $-1 9.6632049906570217 39.526209848959134 12.207487275072188 0 0.82903758062907751 0.55919289150049634 0.5 0 0 1 I I #
point $-1 10.163204990657022 40.355247429588211 12.766680166572684 #
edge $-1 $827 1 $827 0 $508 $-1 forward 7 unknown #
vertex $-1 $509 $828 #
ellipse-curve $-1 13.348519034863614 39.526209848959134 12.207487275072188 0 0.82903758062907751 0.55919289150049634 0.5 0 0 1 I I #
point $-1 13.848519034863614 40.355247429588211 12.766680166572684 #
edge $-1 $829 1 $829 0 $512 $-1 forward 7 unknown #
vertex $-1 $513 $830 #
ellipse-curve $-1 17.033833079070206 39.526209848959134 12.207487275072188 0 0.82903758062907751 0.55919289150049634 0.5 0 0 1 I I #
point $-1 17.533833079070206 40.355247429588211 12.766680166572684 #
plane-surface $-1 0 42.480340724000101 0 0 -1 0 0 0 -1 forward_v I I I I #
coedge $-1 $716 $715 $708 $831 forward $517 $-1 #
coedge $-1 $708 $519 $521 $712 reversed $352 $-1 #
coedge $-1 $519 $707 $706 $831 reversed $352 $-1 #
coedge $-1 $527 $522 $519 $710 forward $528 $-1 #
edge $-1 $713 -75.134940930176953 $832 -68.833779988438692 $709 $833 forward 7 unknown #
coedge $-1 $521 $520 $716 $834 reversed $222 $-1 #
edge $-1 $835 77.360108097686094 $713 84.960681448000216 $707 $836 forward 7 unknown #
vertex $-1 $523 $837 #
straight-curve $-1 21.72148403906462 42.480340724000101 9.6160996957035465 -1 0 0 I I #
coedge $-1 $706 $524 $527 $720 forward $517 $-1 #
coedge $-1 $524 $706 $711 $834 forward $517 $-1 #
vertex $-1 $525 $838 #
straight-curve $-1 49.58515815180688 63.793291656190114 15.917260637441814 0 1 0 I I #
straight-curve $-1 49.58515815180688 -5.0290683987597191 80.051697491951401 0 -0.55919289150049634 0.82903758062907751 I I #
edge $-1 $529 -49.58515815180688 $832 -37.300778004451601 $527 $839 forward 7 unknown #
point $-1 49.58515815180688 42.480340724000101 15.917260637441817 #
point $-1 49.58515815180688 42.480340724000101 9.6160996957035536 #
edge $-1 $840 1 $840 0 $532 $-1 forward 7 unknown #
vertex $-1 $533 $841 #
ellipse-curve $-1 39.757654033922648 39.526209848959134 12.207487275072188 0 0.82903758062907751 0.55919289150049634 0.5 0 0 1 I I #
point $-1 40.257654033922648 40.355247429588211 12.766680166572684 #
edge $-1 $842 1 $842 0 $536 $-1 forward 7 unknown #
vertex $-1 $537 $843 #
ellipse-curve $-1 43.44296807812924 39.526209848959134 12.207487275072188 0 0.82903758062907751 0.55919289150049634 0.5 0 0 1 I I #
point $-1 43.94296807812924 40.355247429588211 12.766680166572684 #
edge $-1 $844 1 $844 0 $540 $-1 forward 7 unknown #
vertex $-1 $541 $845 #
ellipse-curve $-1 47.128282122335833 39.526209848959134 12.207487275072188 0 0.82903758062907751 0.55919289150049634 0.5 0 0 1 I I #
point $-1 47.628282122335833 40.355247429588211 12.766680166572684 #
plane-surface $-1 79.981688894314402 0 0 -1 0 0 0 0 1 forward_v I I I I #
coedge $-1 $549 $547 $551 $740 reversed $381 $-1 #
edge $-1 $562 -15.917260637441817 $742 15.917260637441817 $561 $846 forward 7 unknown #
vertex $-1 $740 $847 #
straight-curve $-1 -79.981688894314402 -42.480340724000101 0 0 0 -1 I I #
edge $-1 $738 -42.480340724000101 $742 42.480340724000101 $736 $848 forward 7 unknown #
straight-curve $-1 0 -42.480340724000101 -15.917260637441817 -1 0 0 I I #
vertex $-1 $554 $849 #
straight-curve $-1 0 42.480340724000101 -15.917260637441817 1 0 0 I I #
point $-1 79.981688894314402 42.480340724000101 -15.917260637441817 #
point $-1 79.981688894314402 -42.480340724000101 -15.917260637441817 #
straight-curve $-1 -79.981688894314402 0 15.917260637441817 0 -1 0 I I #
point $-1 -79.981688894314402 42.480340724000101 15.917260637441817 #
point $-1 -79.981688894314402 -42.480340724000101 15.917260637441817 #
straight-curve $-1 79.981688894314402 -42.480340724000101 0 0 0 -1 I I #
straight-curve $-1 79.981688894314402 42.480340724000101 0 0 0 -1 I I #
plane-surface $-1 0 42.480340724000101 0 0 -1 0 0 0 -1 forward_v I I I I #
coedge $-1 $575 $574 $850 $851 forward $249 $-1 #
edge $-1 $578 60.188898086531253 $852 79.981688894314402 $577 $853 forward 7 unknown #
coedge $-1 $583 $582 $575 $755 reversed $584 $-1 #
edge $-1 $854 -79.981688894314402 $756 -60.188898086531253 $754 $855 forward 7 unknown #
vertex $-1 $590 $856 #
straight-curve $-1 -60.188898086531253 0 -15.917260637441817 0 -1 0 I I #
point $-1 -60.188898086531253 -42.480340724000101 -15.917260637441817 #
coedge $-1 $850 $580 $583 $762 forward $572 $-1 #
coedge $-1 $580 $850 $587 $764 reversed $572 $-1 #
straight-curve $-1 -79.981688894314402 0 -9.355173566701545 0 1 0 I I #
edge $-1 $585 9.355173566701545 $854 15.917260637441817 $583 $857 forward 7 unknown #
point $-1 -79.981688894314402 42.480340724000101 -9.355173566701545 #
edge $-1 $588 9.355173566701545 $852 15.917260637441817 $760 $858 forward 7 unknown #
point $-1 -79.981688894314402 -42.480340724000101 -9.355173566701545 #
straight-curve $-1 -60.188898086531253 42.480340724000101 -6.3181085510358406 0 0 -1 I I #
plane-surface $-1 79.981688894314402 0 0 -1 0 0 0 0 1 forward_v I I I I #
coedge $-1 $779 $596 $602 $775 forward $416 $-1 #
coedge $-1 $596 $779 $770 $859 forward $416 $-1 #
coedge $-1 $598 $597 $769 $859 reversed $257 $-1 #
edge $-1 $608 3.0370650156657044 $772 9.5991520864059758 $597 $860 forward 7 unknown #
vertex $-1 $600 $861 #
straight-curve $-1 60.188898086531253 0 -15.917260637441817 0 1 0 I I #
straight-curve $-1 60.188898086531253 0 -9.355173566701545 0 -1 0 I I #
edge $-1 $603 60.188898086531253 $783 79.981688894314402 $602 $862 forward 7 unknown #
point $-1 60.188898086531253 42.480340724000101 -15.917260637441817 #
point $-1 60.188898086531253 42.480340724000101 -9.355173566701545 #
point $-1 60.188898086531253 -42.480340724000101 -9.355173566701545 #
coedge $-1 $769 $768 $610 $780 forward $416 $-1 #
edge $-1 $783 -42.480340724000101 $781 42.480340724000101 $610 $863 forward 7 unknown #
vertex $-1 $611 $864 #
straight-curve $-1 79.981688894314402 -42.480340724000101 0 0 0 -1 I I #
vertex $-1 $780 $865 #
straight-curve $-1 79.981688894314402 42.480340724000101 0 0 0 -1 I I #
coedge $-1 $626 $625 $618 $786 forward $615 $-1 #
edge $-1 $787 21.312950932190013 $790 25.563137521013786 $785 $866 forward 7 unknown #
vertex $-1 $786 $867 #
straight-curve $-1 -52.982569125345279 42.480340724000101 84.751040625880506 0 0 1 I I #
edge $-1 $790 -29.562379599511459 $627 -17.27799945215618 $626 $868 forward 7 unknown #
vertex $-1 $789 $869 #
straight-curve $-1 -52.982569125345279 -5.0290683987597191 80.051697491951401 0 0.55919289150049634 -0.82903758062907751 I I #
point $-1 -52.982569125345279 42.480340724000101 9.6160996957035536 #
point $-1 -40.69818897799 38.230154135176328 15.917260637441814 #
straight-curve $-1 0 42.480340724000101 15.917260637441817 -1 0 0 I I #
vertex $-1 $633 $870 #
point $-1 -50.025693095874232 39.526209848959134 12.207487275072188 #
vertex $-1 $637 $871 #
point $-1 -46.340379051667639 39.526209848959134 12.207487275072188 #
vertex $-1 $641 $872 #
point $-1 -42.655065007461054 39.526209848959134 12.207487275072188 #
edge $-1 $802 21.312950932190013 $805 25.563137521013786 $646 $873 forward 7 unknown #
vertex $-1 $801 $874 #
straight-curve $-1 -22.888120082079656 42.480340724000101 84.751040625880506 0 0 1 I I #
edge $-1 $805 -14.515155077878649 $657 -2.2307749305233635 $656 $875 forward 7 unknown #
vertex $-1 $804 $876 #
straight-curve $-1 -22.888120082079656 -5.0290683987597191 80.051697491951401 0 0.55919289150049634 -0.82903758062907751 I I #
point $-1 -22.888120082079656 42.480340724000101 9.6160996957035536 #
point $-1 -10.60373993472437 38.230154135176328 15.917260637441814 #
straight-curve $-1 0 42.480340724000101 15.917260637441817 -1 0 0 I I #
vertex $-1 $663 $877 #
point $-1 -19.931244052608605 39.526209848959134 12.207487275072188 #
vertex $-1 $667 $878 #
point $-1 -16.245930008402013 39.526209848959134 12.207487275072188 #
vertex $-1 $671 $879 #
point $-1 -12.560615964195421 39.526209848959134 12.207487275072188 #
edge $-1 $817 21.312950932190013 $820 25.563137521013786 $676 $880 forward 7 unknown #
vertex $-1 $680 $881 #
straight-curve $-1 7.2063289611859709 42.480340724000101 84.751040625880506 0 0 1 I I #
edge $-1 $820 0.53206944375416398 $687 12.81644959110945 $686 $882 forward 7 unknown #
vertex $-1 $819 $883 #
straight-curve $-1 7.2063289611859709 -5.0290683987597191 80.051697491951401 0 0.55919289150049634 -0.82903758062907751 I I #
point $-1 7.2063289611859709 42.480340724000101 9.6160996957035536 #
point $-1 19.490709108541257 38.230154135176328 15.917260637441814 #
straight-curve $-1 0 42.480340724000101 15.917260637441817 -1 0 0 I I #
vertex $-1 $693 $884 #
point $-1 10.163204990657022 39.526209848959134 12.207487275072188 #
vertex $-1 $697 $885 #
point $-1 13.848519034863614 39.526209848959134 12.207487275072188 #
vertex $-1 $701 $886 #
point $-1 17.533833079070206 39.526209848959134 12.207487275072188 #
edge $-1 $832 21.312950932190013 $835 25.563137521013786 $706 $887 forward 7 unknown #
vertex $-1 $710 $888 #
straight-curve $-1 37.300778004451601 42.480340724000101 84.751040625880506 0 0 1 I I #
edge $-1 $835 15.579293965386981 $717 27.86367411274226 $716 $889 forward 7 unknown #
vertex $-1 $834 $890 #
straight-curve $-1 37.300778004451601 -5.0290683987597191 80.051697491951401 0 0.55919289150049634 -0.82903758062907751 I I #
point $-1 37.300778004451601 42.480340724000101 9.6160996957035536 #
point $-1 49.58515815180688 38.230154135176328 15.917260637441814 #
straight-curve $-1 0 42.480340724000101 15.917260637441817 -1 0 0 I I #
vertex $-1 $723 $891 #
point $-1 40.257654033922648 39.526209848959134 12.207487275072188 #
vertex $-1 $727 $892 #
point $-1 43.94296807812924 39.526209848959134 12.207487275072188 #
vertex $-1 $731 $893 #
point $-1 47.628282122335833 39.526209848959134 12.207487275072188 #
straight-curve $-1 -79.981688894314402 42.480340724000101 0 0 0 -1 I I #
point $-1 -79.981688894314402 -42.480340724000101 -15.917260637441817 #
straight-curve $-1 -79.981688894314402 0 -15.917260637441817 0 1 0 I I #
point $-1 -79.981688894314402 42.480340724000101 -15.917260637441817 #
coedge $-1 $760 $759 $752 $851 reversed $572 $-1 #
edge $-1 $852 -42.480340724000101 $854 42.480340724000101 $850 $894 forward 7 unknown #
vertex $-1 $851 $895 #
straight-curve $-1 0 -42.480340724000101 -15.917260637441817 -1 0 0 I I #
vertex $-1 $755 $896 #
straight-curve $-1 0 42.480340724000101 -15.917260637441817 1 0 0 I I #
point $-1 -60.188898086531253 42.480340724000101 -15.917260637441817 #
straight-curve $-1 -79.981688894314402 42.480340724000101 0 0 0 -1 I I #
straight-curve $-1 -79.981688894314402 -42.480340724000101 0 0 0 -1 I I #
edge $-1 $781 -79.981688894314402 $772 -60.188898086531253 $770 $897 forward 7 unknown #
straight-curve $-1 60.188898086531253 -42.480340724000101 -6.3181085510358406 0 0 -1 I I #
point $-1 60.188898086531253 -42.480340724000101 -15.917260637441817 #
straight-curve $-1 0 42.480340724000101 -15.917260637441817 1 0 0 I I #
straight-curve $-1 79.981688894314402 0 -15.917260637441817 0 -1 0 I I #
point $-1 79.981688894314402 -42.480340724000101 -15.917260637441817 #
point $-1 79.981688894314402 42.480340724000101 -15.917260637441817 #
straight-curve $-1 -52.982569125345279 63.793291656190114 15.917260637441814 0 -1 0 I I #
point $-1 -52.982569125345279 42.480340724000101 15.917260637441817 #
straight-curve $-1 -23.42018952583382 38.230154135176335 15.917260637441814 1 0 0 I I #
point $-1 -52.982569125345279 38.230154135176328 15.917260637441814 #
point $-1 -50.525693095874232 39.111691058644588 11.927890829321941 #
point $-1 -46.840379051667639 39.111691058644588 11.927890829321941 #
point $-1 -43.155065007461054 39.111691058644588 11.927890829321941 #
straight-curve $-1 -22.888120082079656 63.793291656190114 15.917260637441814 0 -1 0 I I #
point $-1 -22.888120082079656 42.480340724000101 15.917260637441817 #
straight-curve $-1 -8.3729650042010064 38.230154135176335 15.917260637441814 1 0 0 I I #
point $-1 -22.888120082079656 38.230154135176328 15.917260637441814 #
point $-1 -20.431244052608605 39.111691058644588 11.927890829321941 #
point $-1 -16.745930008402013 39.111691058644588 11.927890829321941 #
point $-1 -13.060615964195421 39.111691058644588 11.927890829321941 #
straight-curve $-1 7.2063289611859709 63.793291656190114 15.917260637441814 0 -1 0 I I #
point $-1 7.2063289611859709 42.480340724000101 15.917260637441817 #
straight-curve $-1 6.6742595174318069 38.230154135176335 15.917260637441814 1 0 0 I I #
point $-1 7.2063289611859709 38.230154135176328 15.917260637441814 #
point $-1 9.6632049906570217 39.111691058644588 11.927890829321941 #
point $-1 13.348519034863614 39.111691058644588 11.927890829321941 #
point $-1 17.033833079070206 39.111691058644588 11.927890829321941 #
straight-curve $-1 37.300778004451601 63.793291656190114 15.917260637441814 0 -1 0 I I #
point $-1 37.300778004451601 42.480340724000101 15.917260637441817 #
straight-curve $-1 21.72148403906462 38.230154135176335 15.917260637441814 1 0 0 I I #
point $-1 37.300778004451601 38.230154135176328 15.917260637441814 #
point $-1 39.757654033922648 39.111691058644588 11.927890829321941 #
point $-1 43.44296807812924 39.111691058644588 11.927890829321941 #
point $-1 47.128282122335833 39.111691058644588 11.927890829321941 #
straight-curve $-1 -79.981688894314402 0 -15.917260637441817 0 1 0 I I #
point $-1 -79.981688894314402 -42.480340724000101 -15.917260637441817 #
point $-1 -79.981688894314402 42.480340724000101 -15.917260637441817 #
straight-curve $-1 0 -42.480340724000101 -15.917260637441817 -1 0 0 I I #
End-of-ACIS-data 