500 0 8 0           
7 Unknown 11 ACIS 5.0 NT 24 Thu Mar 25 19:34:54 1999 
-1 9.9999999999999995e-007 1e-010 
body $-1 $8 $-1 $9 #
body $-1 $10 $-1 $11 #
body $-1 $12 $-1 $13 #
body $-1 $14 $-1 $15 #
body $-1 $16 $-1 $17 #
body $-1 $18 $-1 $19 #
body $-1 $20 $-1 $21 #
body $-1 $22 $-1 $23 #
lump $-1 $-1 $24 $0 #
transform $-1 1 0 0 0 1 0 0 0 1 43.579210791344948 19.128596302642201 7.3313540045390813 1 rotate no_reflect no_shear #
lump $-1 $-1 $25 $1 #
transform $-1 1 0 0 0 1 0 0 0 1 43.579210791344948 19.128596302642201 7.3313540045390813 1 rotate no_reflect no_shear #
lump $-1 $-1 $26 $2 #
transform $-1 1 0 0 0 1 0 0 0 1 43.579210791344948 19.128596302642201 7.3313540045390813 1 rotate no_reflect no_shear #
lump $-1 $-1 $27 $3 #
transform $-1 1 0 0 0 1 0 0 0 1 43.579210791344948 19.128596302642201 7.3313540045390813 1 rotate no_reflect no_shear #
lump $-1 $-1 $28 $4 #
transform $-1 1 0 0 0 1 0 0 0 1 43.579210791344948 19.128596302642201 7.3313540045390813 1 rotate no_reflect no_shear #
lump $-1 $-1 $29 $5 #
transform $-1 1 0 0 0 1 0 0 0 1 43.579210791344948 19.128596302642201 7.3313540045390813 1 rotate no_reflect no_shear #
lump $-1 $-1 $30 $6 #
transform $-1 1 0 0 0 1 0 0 0 1 43.579210791344948 19.128596302642201 7.3313540045390813 1 rotate no_reflect no_shear #
lump $-1 $-1 $31 $7 #
transform $-1 1 0 0 0 1 0 0 0 1 43.579210791344948 19.128596302642201 7.3313540045390813 1 rotate no_reflect no_shear #
shell $-1 $-1 $-1 $32 $-1 $8 #
shell $-1 $-1 $-1 $33 $-1 $10 #
shell $-1 $-1 $-1 $34 $-1 $12 #
shell $-1 $-1 $-1 $35 $-1 $14 #
shell $-1 $-1 $-1 $36 $-1 $16 #
shell $-1 $-1 $-1 $37 $-1 $18 #
shell $-1 $-1 $-1 $38 $-1 $20 #
shell $-1 $-1 $-1 $39 $-1 $22 #
face $-1 $40 $41 $24 $-1 $42 forward single #
face $-1 $43 $44 $25 $-1 $45 forward single #
face $-1 $46 $47 $26 $-1 $48 reversed single #
face $-1 $49 $50 $27 $-1 $51 forward single #
face $-1 $52 $53 $28 $-1 $54 forward single #
face $-1 $55 $56 $29 $-1 $57 reversed single #
face $-1 $58 $59 $30 $-1 $60 forward single #
face $-1 $61 $62 $31 $-1 $63 forward single #
face $-1 $64 $65 $24 $-1 $66 reversed single #
loop $-1 $-1 $67 $32 #
plane-surface $-1 0 0 7.3313540045390813 0 0 1 1 0 0 forward_v I I I I #
face $-1 $68 $69 $25 $-1 $70 reversed single #
loop $-1 $-1 $71 $33 #
plane-surface $-1 -43.579210791344948 0 0 1 0 0 0 0 -1 forward_v I I I I #
face $-1 $72 $73 $26 $-1 $74 reversed single #
loop $-1 $-1 $75 $34 #
plane-surface $-1 19.417848183227083 53.706987949861904 89.467154106153032 1 0 0 0 -0.70710678939079041 -0.70710677298230451 forward_v I I I I #
face $-1 $76 $77 $27 $-1 $78 forward single #
loop $-1 $79 $80 $35 #
cone-surface $-1 26.321094642689332 15.11416726569459 3.316924908836111 0 -0.70710678939079041 -0.70710677298230451 1 0 0 1 I I 0 1 1 forward I I I I #
face $-1 $81 $82 $28 $-1 $83 forward single #
loop $-1 $84 $85 $36 #
cone-surface $-1 36.67596433188271 15.11416726569459 3.316924908836111 0 -0.70710678939079041 -0.70710677298230451 1 0 0 1 I I 0 1 1 forward I I I I #
face $-1 $86 $87 $29 $-1 $88 reversed single #
loop $-1 $-1 $89 $37 #
plane-surface $-1 -15.827368879206778 -95.359070126612778 45.919052409798908 -1 0 0 0 -0.87461971476443456 0.48480960649040278 forward_v I I I I #
face $-1 $90 $91 $30 $-1 $92 forward single #
loop $-1 $93 $94 $38 #
cone-surface $-1 -28.532912706277394 -16.428904024937097 4.5645610405341612 0 0.87461971476443456 -0.48480960649040278 1 0 0 1 I I 0 1 1 forward I I I I #
face $-1 $95 $96 $31 $-1 $97 forward single #
loop $-1 $98 $99 $39 #
cone-surface $-1 -20.909586410035025 -16.428904024937097 4.5645610405341612 0 0.87461971476443456 -0.48480960649040278 1 0 0 1 I I 0 1 1 forward I I I I #
face $-1 $100 $101 $24 $-1 $102 reversed single #
loop $-1 $-1 $103 $40 #
plane-surface $-1 0 0 -7.3313540045390813 0 0 1 1 0 0 forward_v I I I I #
coedge $-1 $104 $105 $106 $107 forward $41 $-1 #
face $-1 $108 $109 $25 $-1 $110 forward single #
loop $-1 $-1 $111 $43 #
plane-surface $-1 0 19.128596302642201 0 0 -1 0 0 0 -1 forward_v I I I I #
coedge $-1 $112 $113 $114 $115 forward $44 $-1 #
face $-1 $116 $117 $26 $-1 $118 forward single #
loop $-1 $-1 $119 $46 #
plane-surface $-1 31.498529487286021 -7.9233237038429252 27.836843882585939 0 0.70710678939079041 0.70710677298230451 1 0 0 forward_v I I I I #
coedge $-1 $120 $121 $122 $123 reversed $47 $-1 #
face $-1 $-1 $124 $27 $-1 $125 forward single #
loop $-1 $126 $127 $49 #
cone-surface $-1 26.321094642689332 14.019400136186725 2.2221578047324311 0 -0.70710678939079041 -0.70710677298230451 0.5 0 0 1 I I -0.70710678118654746 0.70710678118654746 0.5 forward I I I I #
loop $-1 $-1 $128 $35 #
coedge $-1 $80 $80 $129 $130 reversed $50 $-1 #
face $-1 $-1 $131 $28 $-1 $132 forward single #
loop $-1 $133 $134 $52 #
cone-surface $-1 36.67596433188271 14.019400136186725 2.2221578047324311 0 -0.70710678939079041 -0.70710677298230451 0.5 0 0 1 I I -0.70710678118654746 0.70710678118654746 0.5 forward I I I I #
loop $-1 $-1 $135 $36 #
coedge $-1 $85 $85 $136 $137 reversed $53 $-1 #
face $-1 $138 $139 $29 $-1 $140 reversed single #
loop $-1 $-1 $141 $55 #
plane-surface $-1 -24.72124955815621 -19.128596302642208 3.6638123399703915 0 -0.87461971476443456 0.48480960649040278 1 0 0 forward_v I I I I #
coedge $-1 $142 $143 $144 $145 reversed $56 $-1 #
face $-1 $-1 $146 $30 $-1 $147 forward single #
loop $-1 $148 $149 $58 #
cone-surface $-1 -28.532912706277394 -14.308377622771939 3.3891341055683863 0 0.87461971476443456 -0.48480960649040278 0.5 0 0 1 I I -0.70710678118654746 0.70710678118654746 0.5 forward I I I I #
loop $-1 $-1 $150 $38 #
coedge $-1 $94 $94 $151 $152 reversed $59 $-1 #
face $-1 $-1 $153 $31 $-1 $154 forward single #
loop $-1 $155 $156 $61 #
cone-surface $-1 -20.909586410035025 -14.308377622771939 3.3891341055683863 0 0.87461971476443456 -0.48480960649040278 0.5 0 0 1 I I -0.70710678118654746 0.70710678118654746 0.5 forward I I I I #
loop $-1 $-1 $157 $39 #
coedge $-1 $99 $99 $158 $159 reversed $62 $-1 #
face $-1 $160 $161 $24 $-1 $162 reversed single #
loop $-1 $-1 $163 $64 #
plane-surface $-1 0 -19.128596302642201 0 0 1 0 0 0 1 forward_v I I I I #
coedge $-1 $164 $165 $166 $167 forward $65 $-1 #
coedge $-1 $168 $67 $169 $170 forward $41 $-1 #
coedge $-1 $67 $168 $171 $172 forward $41 $-1 #
coedge $-1 $173 $174 $67 $107 reversed $175 $-1 #
edge $-1 $176 -19.128596302642201 $177 19.128596302642201 $106 $178 forward 7 unknown #
face $-1 $179 $180 $25 $-1 $181 reversed single #
loop $-1 $-1 $114 $68 #
plane-surface $-1 -46.841087187723438 0 4.6350124291409873 0 0 1 1 0 0 forward_v I I I I #
coedge $-1 $182 $183 $113 $184 forward $69 $-1 #
coedge $-1 $185 $71 $186 $187 reversed $44 $-1 #
coedge $-1 $71 $185 $111 $184 reversed $44 $-1 #
coedge $-1 $188 $189 $71 $115 reversed $109 $-1 #
edge $-1 $190 -19.128596302642201 $191 19.128596302642201 $114 $192 forward 7 unknown #
face $-1 $193 $194 $26 $-1 $195 reversed single #
loop $-1 $-1 $122 $72 #
plane-surface $-1 0 0 7.3313540045390813 0 0 1 1 0 0 forward_v I I I I #
coedge $-1 $196 $197 $198 $199 reversed $73 $-1 #
coedge $-1 $121 $75 $200 $201 reversed $47 $-1 #
coedge $-1 $75 $120 $196 $202 reversed $47 $-1 #
coedge $-1 $198 $203 $75 $123 forward $117 $-1 #
edge $-1 $204 7.7248976722887512 $205 14.271328276559021 $122 $206 forward 7 unknown #
loop $-1 $-1 $129 $76 #
plane-surface $-1 31.498529487286021 -7.9233237038429252 27.836843882585939 0 0.70710678939079041 0.70710677298230451 1 0 0 forward_v I I I I #
loop $-1 $-1 $207 $49 #
coedge $-1 $127 $127 $128 $208 reversed $77 $-1 #
coedge $-1 $128 $128 $127 $208 forward $79 $-1 #
coedge $-1 $129 $129 $80 $130 forward $124 $-1 #
edge $-1 $209 5.8294651990167239e-023 $209 6.2831853071796004 $129 $210 forward 7 unknown #
loop $-1 $-1 $136 $81 #
plane-surface $-1 31.498529487286021 -7.9233237038429252 27.836843882585939 0 0.70710678939079041 0.70710677298230451 1 0 0 forward_v I I I I #
loop $-1 $-1 $211 $52 #
coedge $-1 $134 $134 $135 $212 reversed $82 $-1 #
coedge $-1 $135 $135 $134 $212 forward $84 $-1 #
coedge $-1 $136 $136 $85 $137 forward $131 $-1 #
edge $-1 $213 5.8294651990167239e-023 $213 6.2831853071796004 $136 $214 forward 7 unknown #
face $-1 $215 $216 $29 $-1 $217 reversed single #
loop $-1 $-1 $218 $86 #
plane-surface $-1 -33.615130237105639 -95.359070126612778 45.919052409798908 1 0 0 0 0.87461971476443456 -0.48480960649040278 forward_v I I I I #
coedge $-1 $219 $220 $221 $222 reversed $87 $-1 #
coedge $-1 $143 $89 $223 $224 reversed $56 $-1 #
coedge $-1 $89 $142 $219 $225 reversed $56 $-1 #
coedge $-1 $221 $226 $89 $145 forward $227 $-1 #
edge $-1 $228 28.550938760664188 $229 30.583890226508508 $144 $230 forward 7 unknown #
loop $-1 $-1 $151 $90 #
plane-surface $-1 -24.72124955815621 -19.128596302642208 3.6638123399703915 0 -0.87461971476443456 0.48480960649040278 1 0 0 forward_v I I I I #
loop $-1 $-1 $231 $58 #
coedge $-1 $149 $149 $150 $232 reversed $91 $-1 #
coedge $-1 $150 $150 $149 $232 forward $93 $-1 #
coedge $-1 $151 $151 $94 $152 forward $146 $-1 #
edge $-1 $233 1.1143243728905352e-015 $233 6.2831853071796013 $151 $234 forward 7 unknown #
loop $-1 $-1 $158 $95 #
plane-surface $-1 -24.72124955815621 -19.128596302642208 3.6638123399703915 0 -0.87461971476443456 0.48480960649040278 1 0 0 forward_v I I I I #
loop $-1 $-1 $235 $61 #
coedge $-1 $156 $156 $157 $236 reversed $96 $-1 #
coedge $-1 $157 $157 $156 $236 forward $98 $-1 #
coedge $-1 $158 $158 $99 $159 forward $153 $-1 #
edge $-1 $237 1.1143243728905352e-015 $237 6.2831853071796013 $158 $238 forward 7 unknown #
face $-1 $239 $240 $24 $-1 $241 reversed single #
loop $-1 $-1 $242 $100 #
plane-surface $-1 -43.579210791344948 0 0 1 0 0 0 0 -1 forward_v I I I I #
coedge $-1 $243 $171 $244 $245 forward $101 $-1 #
coedge $-1 $246 $103 $243 $247 forward $65 $-1 #
coedge $-1 $103 $246 $248 $249 forward $65 $-1 #
coedge $-1 $174 $173 $103 $167 reversed $175 $-1 #
edge $-1 $250 -19.128596302642201 $251 19.128596302642201 $166 $252 forward 7 unknown #
coedge $-1 $105 $104 $253 $254 forward $41 $-1 #
coedge $-1 $255 $256 $104 $170 reversed $240 $-1 #
edge $-1 $177 -43.579210791344948 $257 43.579210791344948 $169 $258 forward 7 unknown #
coedge $-1 $163 $259 $105 $172 reversed $101 $-1 #
edge $-1 $260 -43.579210791344948 $176 43.579210791344948 $171 $261 forward 7 unknown #
coedge $-1 $166 $106 $259 $262 forward $175 $-1 #
coedge $-1 $106 $166 $255 $263 reversed $175 $-1 #
loop $-1 $-1 $173 $239 #
vertex $-1 $107 $264 #
vertex $-1 $107 $265 #
straight-curve $-1 43.579210791344948 0 7.3313540045390813 0 1 0 I I #
face $-1 $266 $267 $25 $-1 $268 reversed single #
loop $-1 $-1 $269 $108 #
plane-surface $-1 -46.841087187723438 0 0.38369075061542679 0 0 1 1 0 0 forward_v I I I I #
coedge $-1 $270 $111 $271 $272 reversed $69 $-1 #
coedge $-1 $111 $270 $188 $273 reversed $69 $-1 #
edge $-1 $190 -4.6350124291409873 $274 -0.38369075061542679 $111 $275 forward 7 unknown #
coedge $-1 $113 $112 $269 $276 forward $44 $-1 #
coedge $-1 $277 $278 $112 $187 forward $279 $-1 #
edge $-1 $280 0.38369075061542679 $191 4.6350124291409873 $186 $281 forward 7 unknown #
coedge $-1 $282 $114 $183 $273 forward $109 $-1 #
coedge $-1 $114 $282 $277 $283 forward $109 $-1 #
vertex $-1 $184 $284 #
vertex $-1 $283 $285 #
straight-curve $-1 -43.579210791344948 0 4.6350124291409873 0 -1 0 I I #
face $-1 $-1 $286 $26 $-1 $287 reversed single #
loop $-1 $-1 $288 $116 #
plane-surface $-1 43.579210791344948 0 0 -1 0 0 0 0 1 forward_v I I I I #
coedge $-1 $289 $119 $121 $202 forward $73 $-1 #
coedge $-1 $119 $289 $288 $290 reversed $73 $-1 #
coedge $-1 $291 $122 $119 $199 forward $117 $-1 #
edge $-1 $205 3.6685834395840722 $292 27.829946047701952 $198 $293 forward 7 unknown #
coedge $-1 $294 $295 $120 $201 forward $286 $-1 #
edge $-1 $296 -43.948653804718305 $204 -37.402223048537437 $200 $297 forward 7 unknown #
edge $-1 $205 28.999141552174063 $296 38.257192605284395 $121 $298 forward 7 unknown #
coedge $-1 $122 $291 $294 $299 forward $117 $-1 #
vertex $-1 $201 $300 #
vertex $-1 $123 $301 #
straight-curve $-1 19.417848183227083 26.853493974930952 7.3313540045390795 0 -1 0 I I #
coedge $-1 $207 $207 $-1 $302 reversed $126 $-1 #
edge $-1 $303 0 $303 6.2831853071796004 $127 $304 forward 7 unknown #
vertex $-1 $130 $305 #
ellipse-curve $-1 26.321094642689332 15.855381000507062 4.0581386264486428 0 0.70710678939079041 0.70710677298230451 1 0 0 1 I I #
coedge $-1 $211 $211 $-1 $306 reversed $133 $-1 #
edge $-1 $307 0 $307 6.2831853071796004 $134 $308 forward 7 unknown #
vertex $-1 $137 $309 #
ellipse-curve $-1 36.67596433188271 15.855381000507062 4.0581386264486428 0 0.70710678939079041 0.70710677298230451 1 0 0 1 I I #
face $-1 $-1 $227 $29 $-1 $310 forward single #
loop $-1 $-1 $311 $138 #
plane-surface $-1 0 -19.128596302642201 0 0 1 0 0 0 1 forward_v I I I I #
coedge $-1 $312 $313 $314 $315 reversed $139 $-1 #
coedge $-1 $316 $141 $143 $225 forward $87 $-1 #
coedge $-1 $141 $316 $312 $317 forward $87 $-1 #
coedge $-1 $314 $144 $141 $222 forward $227 $-1 #
edge $-1 $229 3.4667441001286736 $318 21.254505458027534 $221 $319 forward 7 unknown #
coedge $-1 $320 $321 $142 $224 forward $216 $-1 #
edge $-1 $322 -19.295713864929048 $228 -15.628172200360373 $223 $323 forward 7 unknown #
edge $-1 $229 -4.193298644721823 $322 -1.4708645604606407e-014 $143 $324 forward 7 unknown #
coedge $-1 $144 $314 $320 $325 forward $227 $-1 #
loop $-1 $-1 $314 $215 #
vertex $-1 $224 $326 #
vertex $-1 $145 $327 #
straight-curve $-1 -15.827368879206778 -47.679535063306389 7.3313540045390795 0 1 0 I I #
coedge $-1 $231 $231 $-1 $328 reversed $148 $-1 #
edge $-1 $329 0 $329 6.2831853071796004 $149 $330 forward 7 unknown #
vertex $-1 $152 $331 #
ellipse-curve $-1 -28.532912706277394 -18.112120569720044 5.4975831722547381 0 -0.87461971476443456 0.48480960649040278 1 0 0 1 I I #
coedge $-1 $235 $235 $-1 $332 reversed $155 $-1 #
edge $-1 $333 0 $333 6.2831853071796004 $156 $334 forward 7 unknown #
vertex $-1 $159 $335 #
ellipse-curve $-1 -20.909586410035025 -18.112120569720044 5.4975831722547381 0 -0.87461971476443456 0.48480960649040278 1 0 0 1 I I #
face $-1 $-1 $175 $24 $-1 $336 reversed single #
loop $-1 $-1 $255 $160 #
plane-surface $-1 0 19.128596302642201 0 0 -1 0 0 0 -1 forward_v I I I I #
coedge $-1 $337 $253 $256 $338 forward $161 $-1 #
coedge $-1 $259 $163 $164 $247 reversed $101 $-1 #
coedge $-1 $253 $337 $163 $245 reversed $161 $-1 #
edge $-1 $260 -7.3313540045390813 $339 7.3313540045390813 $244 $340 forward 7 unknown #
coedge $-1 $165 $164 $337 $341 forward $65 $-1 #
edge $-1 $251 -43.579210791344948 $339 43.579210791344948 $243 $342 forward 7 unknown #
coedge $-1 $256 $255 $165 $249 reversed $240 $-1 #
edge $-1 $343 -43.579210791344948 $250 43.579210791344948 $248 $344 forward 7 unknown #
vertex $-1 $167 $345 #
vertex $-1 $262 $346 #
straight-curve $-1 43.579210791344948 0 -7.3313540045390813 0 -1 0 I I #
coedge $-1 $242 $244 $168 $254 reversed $161 $-1 #
edge $-1 $257 -19.128596302642201 $260 19.128596302642201 $253 $347 forward 7 unknown #
coedge $-1 $248 $169 $174 $263 forward $240 $-1 #
coedge $-1 $169 $248 $242 $338 reversed $240 $-1 #
vertex $-1 $170 $348 #
straight-curve $-1 0 19.128596302642201 7.3313540045390813 -1 0 0 I I #
coedge $-1 $171 $243 $173 $262 reversed $101 $-1 #
vertex $-1 $254 $349 #
straight-curve $-1 0 -19.128596302642201 7.3313540045390813 1 0 0 I I #
edge $-1 $176 -7.3313540045390813 $251 7.3313540045390813 $173 $350 forward 7 unknown #
edge $-1 $177 -7.3313540045390813 $250 7.3313540045390813 $174 $351 forward 7 unknown #
point $-1 43.579210791344948 -19.128596302642201 7.3313540045390813 #
point $-1 43.579210791344948 19.128596302642201 7.3313540045390813 #
face $-1 $-1 $279 $25 $-1 $352 reversed single #
loop $-1 $-1 $353 $179 #
plane-surface $-1 -50.102963584101929 0 2.5093515898782073 1 0 0 0 0 -1 forward_v I I I I #
coedge $-1 $354 $271 $185 $276 reversed $180 $-1 #
coedge $-1 $183 $182 $353 $355 reversed $69 $-1 #
coedge $-1 $269 $356 $182 $272 forward $180 $-1 #
edge $-1 $357 -3.26187639637849 $274 3.26187639637849 $182 $358 forward 7 unknown #
edge $-1 $190 -3.26187639637849 $359 3.26187639637849 $183 $360 forward 7 unknown #
vertex $-1 $184 $361 #
straight-curve $-1 -43.579210791344948 19.128596302642201 0 0 0 -1 I I #
edge $-1 $280 -19.128596302642201 $274 19.128596302642201 $269 $362 forward 7 unknown #
coedge $-1 $363 $186 $189 $283 reversed $279 $-1 #
coedge $-1 $186 $363 $354 $364 reversed $279 $-1 #
loop $-1 $-1 $186 $266 #
vertex $-1 $187 $365 #
straight-curve $-1 -43.579210791344948 -19.128596302642201 0 0 0 1 I I #
coedge $-1 $189 $188 $366 $367 forward $109 $-1 #
edge $-1 $368 -3.26187639637849 $191 3.26187639637849 $277 $369 forward 7 unknown #
point $-1 -43.579210791344948 19.128596302642201 4.6350124291409873 #
point $-1 -43.579210791344948 -19.128596302642201 4.6350124291409873 #
loop $-1 $-1 $200 $193 #
plane-surface $-1 0 19.128596302642201 0 0 -1 0 0 0 -1 forward_v I I I I #
coedge $-1 $370 $371 $197 $290 forward $194 $-1 #
coedge $-1 $197 $196 $295 $372 reversed $73 $-1 #
edge $-1 $292 16.356012972120769 $373 25.614064025231102 $288 $374 forward 7 unknown #
coedge $-1 $203 $198 $371 $375 forward $117 $-1 #
vertex $-1 $375 $376 #
straight-curve $-1 15.74926474364301 12.582165698371929 7.3313540045390795 1 0 0 I I #
coedge $-1 $377 $200 $203 $299 reversed $286 $-1 #
coedge $-1 $200 $377 $289 $372 forward $286 $-1 #
vertex $-1 $201 $378 #
straight-curve $-1 19.417848183227083 19.128596302642201 44.733577053076516 0 0 1 I I #
straight-curve $-1 19.417848183227083 -7.9233237038429252 27.836843882585939 0 0.70710677298230451 -0.70710678939079041 I I #
edge $-1 $379 -43.579210791344948 $204 -19.417848183227083 $294 $380 forward 7 unknown #
point $-1 19.417848183227083 19.128596302642201 7.3313540045390813 #
point $-1 19.417848183227083 12.582165698371931 7.3313540045390795 #
edge $-1 $381 1 $381 0 $207 $-1 forward 7 unknown #
vertex $-1 $208 $382 #
ellipse-curve $-1 26.321094642689332 14.372953530882119 2.5757111912235833 0 0.70710678939079041 0.70710677298230451 1 0 0 1 I I #
point $-1 27.321094642689332 15.855381000507059 4.0581386264486392 #
edge $-1 $383 1 $383 0 $211 $-1 forward 7 unknown #
vertex $-1 $212 $384 #
ellipse-curve $-1 36.67596433188271 14.372953530882119 2.5757111912235833 0 0.70710678939079041 0.70710677298230451 1 0 0 1 I I #
point $-1 37.67596433188271 15.855381000507059 4.0581386264486392 #
plane-surface $-1 0 0 7.3313540045390813 0 0 1 1 0 0 forward_v I I I I #
coedge $-1 $321 $320 $313 $385 forward $216 $-1 #
coedge $-1 $313 $218 $220 $317 reversed $139 $-1 #
coedge $-1 $218 $312 $311 $385 reversed $139 $-1 #
coedge $-1 $226 $221 $218 $315 forward $227 $-1 #
edge $-1 $318 -30.583890226508508 $386 -28.550938760664188 $314 $387 forward 7 unknown #
coedge $-1 $220 $219 $321 $388 reversed $87 $-1 #
edge $-1 $389 1.4708645604606407e-014 $318 4.193298644721823 $312 $390 forward 7 unknown #
vertex $-1 $222 $391 #
straight-curve $-1 -12.360624779078105 -17.095644836797884 7.3313540045390813 -1 0 0 I I #
coedge $-1 $311 $223 $226 $325 reversed $216 $-1 #
coedge $-1 $223 $311 $316 $388 forward $216 $-1 #
vertex $-1 $224 $392 #
straight-curve $-1 -15.827368879206778 -19.128596302642201 22.959526204899454 0 0 1 I I #
straight-curve $-1 -15.827368879206778 -19.128596302642208 3.6638123399703915 0 -0.48480960649040278 -0.87461971476443456 I I #
edge $-1 $386 -33.615130237105639 $228 -15.827368879206778 $320 $393 forward 7 unknown #
point $-1 -15.827368879206778 -19.128596302642201 7.3313540045390813 #
point $-1 -15.827368879206778 -17.095644836797881 7.3313540045390813 #
edge $-1 $394 1 $394 0 $231 $-1 forward 7 unknown #
vertex $-1 $232 $395 #
ellipse-curve $-1 -28.532912706277394 -14.745687480154157 3.6315389088135879 0 -0.87461971476443456 0.48480960649040278 1 0 0 1 I I #
point $-1 -27.532912706277394 -18.112120569720037 5.4975831722547355 #
edge $-1 $396 1 $396 0 $235 $-1 forward 7 unknown #
vertex $-1 $236 $397 #
ellipse-curve $-1 -20.909586410035025 -14.745687480154157 3.6315389088135879 0 -0.87461971476443456 0.48480960649040278 1 0 0 1 I I #
point $-1 -19.909586410035025 -18.112120569720037 5.4975831722547355 #
plane-surface $-1 43.579210791344948 0 0 -1 0 0 0 0 1 forward_v I I I I #
coedge $-1 $244 $242 $246 $341 reversed $161 $-1 #
edge $-1 $257 -7.3313540045390813 $343 7.3313540045390813 $256 $398 forward 7 unknown #
vertex $-1 $341 $399 #
straight-curve $-1 -43.579210791344948 -19.128596302642201 0 0 0 -1 I I #
edge $-1 $339 -19.128596302642201 $343 19.128596302642201 $337 $400 forward 7 unknown #
straight-curve $-1 0 -19.128596302642201 -7.3313540045390813 -1 0 0 I I #
vertex $-1 $249 $401 #
straight-curve $-1 0 19.128596302642201 -7.3313540045390813 1 0 0 I I #
point $-1 43.579210791344948 19.128596302642201 -7.3313540045390813 #
point $-1 43.579210791344948 -19.128596302642201 -7.3313540045390813 #
straight-curve $-1 -43.579210791344948 0 7.3313540045390813 0 -1 0 I I #
point $-1 -43.579210791344948 19.128596302642201 7.3313540045390813 #
point $-1 -43.579210791344948 -19.128596302642201 7.3313540045390813 #
straight-curve $-1 43.579210791344948 -19.128596302642201 0 0 0 -1 I I #
straight-curve $-1 43.579210791344948 19.128596302642201 0 0 0 -1 I I #
plane-surface $-1 0 -19.128596302642201 0 0 1 0 0 0 1 forward_v I I I I #
coedge $-1 $402 $366 $270 $355 forward $267 $-1 #
coedge $-1 $356 $269 $278 $364 forward $180 $-1 #
edge $-1 $359 -2.12566083926278 $357 2.1256608392627805 $270 $403 forward 7 unknown #
coedge $-1 $271 $354 $402 $404 forward $180 $-1 #
vertex $-1 $272 $405 #
straight-curve $-1 -46.841087187723438 19.128596302642201 0.38369075061542679 1 0 0 I I #
vertex $-1 $273 $406 #
straight-curve $-1 -46.841087187723438 19.128596302642201 4.6350124291409873 -1 0 0 I I #
point $-1 -43.579210791344948 19.128596302642201 0.38369075061542679 #
straight-curve $-1 -43.579210791344948 0 0.38369075061542679 0 1 0 I I #
coedge $-1 $278 $277 $407 $408 forward $279 $-1 #
edge $-1 $280 -3.26187639637849 $409 3.26187639637849 $278 $410 forward 7 unknown #
point $-1 -43.579210791344948 -19.128596302642201 0.38369075061542679 #
coedge $-1 $353 $407 $282 $367 reversed $267 $-1 #
edge $-1 $359 -19.128596302642201 $368 19.128596302642201 $366 $411 forward 7 unknown #
vertex $-1 $367 $412 #
straight-curve $-1 -46.841087187723438 -19.128596302642201 4.6350124291409873 1 0 0 I I #
coedge $-1 $371 $288 $377 $413 reversed $194 $-1 #
coedge $-1 $288 $370 $291 $375 reversed $194 $-1 #
edge $-1 $373 -27.829946047701952 $296 -3.6685834395840722 $295 $414 forward 7 unknown #
vertex $-1 $290 $415 #
straight-curve $-1 43.579210791344948 1.0167181467989028 18.896801824489515 0 0.70710677298230462 -0.70710678939079052 I I #
edge $-1 $292 12.582165698371931 $379 19.128596302642201 $371 $416 forward 7 unknown #
point $-1 43.579210791344963 12.582165698371931 7.3313540045390795 #
coedge $-1 $295 $294 $370 $413 forward $286 $-1 #
point $-1 19.417848183227083 19.128596302642201 0.78492324835820781 #
vertex $-1 $375 $417 #
straight-curve $-1 0 19.128596302642201 7.3313540045390813 -1 0 0 I I #
vertex $-1 $302 $418 #
point $-1 27.321094642689332 14.372953530882119 2.5757111912235833 #
vertex $-1 $306 $419 #
point $-1 37.67596433188271 14.372953530882119 2.5757111912235833 #
edge $-1 $386 15.628172200360373 $389 19.295713864929048 $311 $420 forward 7 unknown #
vertex $-1 $325 $421 #
straight-curve $-1 -33.615130237105639 -47.679535063306389 7.3313540045390795 0 -1 0 I I #
edge $-1 $389 -21.254505458027534 $322 -3.4667441001286736 $321 $422 forward 7 unknown #
vertex $-1 $388 $423 #
straight-curve $-1 -33.615130237105639 -19.128596302642208 3.6638123399703915 0 0.48480960649040278 0.87461971476443456 I I #
point $-1 -33.615130237105639 -17.095644836797881 7.3313540045390813 #
point $-1 -15.827368879206778 -19.128596302642201 3.6638123399704043 #
straight-curve $-1 0 -19.128596302642201 7.3313540045390813 1 0 0 I I #
vertex $-1 $328 $424 #
point $-1 -27.532912706277394 -14.745687480154157 3.6315389088135879 #
vertex $-1 $332 $425 #
point $-1 -19.909586410035025 -14.745687480154157 3.6315389088135879 #
straight-curve $-1 -43.579210791344948 19.128596302642201 0 0 0 -1 I I #
point $-1 -43.579210791344948 -19.128596302642201 -7.3313540045390813 #
straight-curve $-1 -43.579210791344948 0 -7.3313540045390813 0 1 0 I I #
point $-1 -43.579210791344948 19.128596302642201 -7.3313540045390813 #
coedge $-1 $407 $353 $356 $404 reversed $267 $-1 #
straight-curve $-1 -50.102963584101929 19.128596302642201 2.5093515898782073 0 0 -1 I I #
edge $-1 $409 -19.128596302642201 $357 19.128596302642201 $402 $426 forward 7 unknown #
point $-1 -50.102963584101929 19.128596302642201 0.38369075061542679 #
point $-1 -50.102963584101929 19.128596302642201 4.6350124291409873 #
coedge $-1 $366 $402 $363 $408 reversed $267 $-1 #
edge $-1 $368 -2.12566083926278 $409 2.1256608392627805 $407 $427 forward 7 unknown #
vertex $-1 $404 $428 #
straight-curve $-1 -46.841087187723438 -19.128596302642201 0.38369075061542679 -1 0 0 I I #
straight-curve $-1 -50.102963584101929 0 4.6350124291409873 0 -1 0 I I #
point $-1 -50.102963584101929 -19.128596302642201 4.6350124291409873 #
edge $-1 $379 -7.3313540045390813 $373 -0.78492324835820781 $370 $429 forward 7 unknown #
straight-curve $-1 15.74926474364301 19.128596302642197 0.78492324835820959 -1 0 0 I I #
point $-1 43.579210791344963 19.128596302642201 0.78492324835820781 #
straight-curve $-1 43.579210791344948 0 7.3313540045390813 0 1 0 I I #
point $-1 43.579210791344948 19.128596302642201 7.3313540045390813 #
point $-1 26.321094642689332 13.665846741491331 1.8686044182412789 #
point $-1 36.67596433188271 13.665846741491331 1.8686044182412789 #
straight-curve $-1 -33.615130237105639 -19.128596302642201 22.959526204899454 0 0 -1 I I #
point $-1 -33.615130237105639 -19.128596302642201 7.3313540045390813 #
straight-curve $-1 -12.360624779078105 -19.128596302642201 3.6638123399704021 1 0 0 I I #
point $-1 -33.615130237105639 -19.128596302642201 3.6638123399704043 #
point $-1 -28.532912706277394 -13.871067765389721 3.1467293023231848 #
point $-1 -20.909586410035025 -13.871067765389721 3.1467293023231848 #
straight-curve $-1 -50.102963584101929 0 0.38369075061542679 0 1 0 I I #
straight-curve $-1 -50.102963584101929 -19.128596302642201 2.5093515898782073 0 0 -1 I I #
point $-1 -50.102963584101929 -19.128596302642201 0.38369075061542679 #
straight-curve $-1 43.579210791344948 19.128596302642201 0 0 0 -1 I I #
End-of-ACIS-data 