500 0 8 0           
7 Unknown 11 ACIS 5.0 NT 24 Thu Mar 25 16:01:17 1999 
-1 9.9999999999999995e-007 1e-010 
body $-1 $8 $-1 $9 #
body $-1 $10 $-1 $11 #
body $-1 $12 $-1 $13 #
body $-1 $14 $-1 $15 #
body $-1 $16 $-1 $17 #
body $-1 $18 $-1 $19 #
body $-1 $20 $-1 $21 #
body $-1 $22 $-1 $23 #
lump $-1 $-1 $24 $0 #
transform $-1 1 0 0 0 1 0 0 0 1 43.457136753440963 26.153989499157131 12.316488105857843 1 rotate no_reflect no_shear #
lump $-1 $-1 $25 $1 #
transform $-1 1 0 0 0 1 0 0 0 1 43.457136753440963 26.153989499157131 12.316488105857843 1 rotate no_reflect no_shear #
lump $-1 $-1 $26 $2 #
transform $-1 1 0 0 0 1 0 0 0 1 43.457136753440963 26.153989499157131 12.316488105857843 1 rotate no_reflect no_shear #
lump $-1 $-1 $27 $3 #
transform $-1 1 0 0 0 1 0 0 0 1 43.457136753440963 26.153989499157131 12.316488105857843 1 rotate no_reflect no_shear #
lump $-1 $-1 $28 $4 #
transform $-1 1 0 0 0 1 0 0 0 1 43.457136753440963 26.153989499157131 12.316488105857843 1 rotate no_reflect no_shear #
lump $-1 $-1 $29 $5 #
transform $-1 1 0 0 0 1 0 0 0 1 43.457136753440963 26.153989499157131 12.316488105857843 1 rotate no_reflect no_shear #
lump $-1 $-1 $30 $6 #
transform $-1 1 0 0 0 1 0 0 0 1 43.457136753440963 26.153989499157131 12.316488105857843 1 rotate no_reflect no_shear #
lump $-1 $-1 $31 $7 #
transform $-1 1 0 0 0 1 0 0 0 1 43.457136753440963 26.153989499157131 12.316488105857843 1 rotate no_reflect no_shear #
shell $-1 $-1 $-1 $32 $-1 $8 #
shell $-1 $-1 $-1 $33 $-1 $10 #
shell $-1 $-1 $-1 $34 $-1 $12 #
shell $-1 $-1 $-1 $35 $-1 $14 #
shell $-1 $-1 $-1 $36 $-1 $16 #
shell $-1 $-1 $-1 $37 $-1 $18 #
shell $-1 $-1 $-1 $38 $-1 $20 #
shell $-1 $-1 $-1 $39 $-1 $22 #
face $-1 $40 $41 $24 $-1 $42 forward single #
face $-1 $43 $44 $25 $-1 $45 forward single #
face $-1 $46 $47 $26 $-1 $48 reversed single #
face $-1 $49 $50 $27 $-1 $51 forward single #
face $-1 $52 $53 $28 $-1 $54 forward single #
face $-1 $55 $56 $29 $-1 $57 reversed single #
face $-1 $58 $59 $30 $-1 $60 forward single #
face $-1 $61 $62 $31 $-1 $63 forward single #
face $-1 $64 $65 $24 $-1 $66 reversed single #
loop $-1 $-1 $67 $32 #
plane-surface $-1 0 0 12.316488105857843 0 0 1 1 0 0 forward_v I I I I #
face $-1 $68 $69 $25 $-1 $70 forward single #
loop $-1 $-1 $71 $33 #
plane-surface $-1 0 -26.153989499157131 0 0 1 0 0 0 1 forward_v I I I I #
face $-1 $72 $73 $26 $-1 $74 reversed single #
loop $-1 $-1 $75 $34 #
plane-surface $-1 -117.16462161853407 0.32650805788444259 55.103072831730884 0 1 0 -0.84804810408105047 0 0.52991925155115449 forward_v I I I I #
face $-1 $76 $77 $27 $-1 $78 forward single #
loop $-1 $79 $80 $35 #
cone-surface $-1 -42.011150770378514 2.3774936162210274 10.416047460079174 0.84804810408105047 0 -0.52991925155115449 0.26495962577557725 0 0.42402405204052523 1 I I 0 1 0.5 forward I I I I #
face $-1 $81 $82 $28 $-1 $83 forward single #
loop $-1 $84 $85 $36 #
cone-surface $-1 -42.011150770378514 5.4539719537259046 10.416047460079174 0.84804810408105047 0 -0.52991925155115449 0.26495962577557725 0 0.42402405204052523 1 I I 0 1 0.5 forward I I I I #
face $-1 $86 $87 $29 $-1 $88 reversed single #
loop $-1 $-1 $89 $37 #
plane-surface $-1 -43.457136753440977 3.9157327849734678 9.045526065851675 -0.84804810408105047 0 0.52991925155115449 0.52991925155115449 0 0.84804810408105047 forward_v I I I I #
face $-1 $90 $91 $30 $-1 $92 forward single #
loop $-1 $93 $94 $38 #
cone-surface $-1 -42.011150770378514 9.5559430703990706 10.416047460079174 0.84804810408105047 0 -0.52991925155115449 0.26495962577557725 0 0.42402405204052523 1 I I 0 1 0.5 forward I I I I #
face $-1 $95 $96 $31 $-1 $97 forward single #
loop $-1 $98 $99 $39 #
cone-surface $-1 -42.011150770378514 12.632421407903951 10.416047460079174 0.84804810408105047 0 -0.52991925155115449 0.26495962577557725 0 0.42402405204052523 1 I I 0 1 0.5 forward I I I I #
face $-1 $100 $101 $24 $-1 $102 reversed single #
loop $-1 $-1 $103 $40 #
plane-surface $-1 0 0 -12.316488105857843 0 0 1 1 0 0 forward_v I I I I #
coedge $-1 $104 $105 $106 $107 forward $41 $-1 #
face $-1 $108 $109 $25 $-1 $110 reversed single #
loop $-1 $-1 $111 $43 #
plane-surface $-1 0 0 12.316488105857843 0 0 1 1 0 0 forward_v I I I I #
coedge $-1 $112 $113 $114 $115 forward $44 $-1 #
face $-1 $116 $117 $26 $-1 $118 reversed single #
loop $-1 $-1 $119 $46 #
plane-surface $-1 -43.457136753440977 3.9157327849734678 9.045526065851675 -0.84804810408105047 0 0.52991925155115449 0.52991925155115449 0 0.84804810408105047 forward_v I I I I #
coedge $-1 $120 $121 $122 $123 reversed $47 $-1 #
face $-1 $-1 $124 $27 $-1 $125 forward single #
loop $-1 $126 $127 $49 #
cone-surface $-1 -41.375114692317723 2.3774936162210274 10.018608021415808 0.84804810408105047 0 -0.52991925155115449 0.13247981288778862 0 0.21201202602026262 1 I I -0.70710678118654746 0.70710678118654746 0.25 forward I I I I #
loop $-1 $-1 $128 $35 #
coedge $-1 $80 $80 $129 $130 reversed $50 $-1 #
face $-1 $-1 $131 $28 $-1 $132 forward single #
loop $-1 $133 $134 $52 #
cone-surface $-1 -41.375114692317723 5.4539719537259046 10.018608021415808 0.84804810408105047 0 -0.52991925155115449 0.13247981288778862 0 0.21201202602026262 1 I I -0.70710678118654746 0.70710678118654746 0.25 forward I I I I #
loop $-1 $-1 $135 $36 #
coedge $-1 $85 $85 $136 $137 reversed $53 $-1 #
face $-1 $138 $139 $29 $-1 $140 forward single #
loop $-1 $-1 $141 $55 #
plane-surface $-1 -117.16462161853407 14.683406966240536 55.103072831730884 0 -1 0 0.84804810408105047 0 -0.52991925155115449 forward_v I I I I #
coedge $-1 $142 $143 $144 $145 reversed $56 $-1 #
face $-1 $-1 $146 $30 $-1 $147 forward single #
loop $-1 $148 $149 $58 #
cone-surface $-1 -41.375114692317723 9.5559430703990706 10.018608021415808 0.84804810408105047 0 -0.52991925155115449 0.13247981288778862 0 0.21201202602026262 1 I I -0.70710678118654746 0.70710678118654746 0.25 forward I I I I #
loop $-1 $-1 $150 $38 #
coedge $-1 $94 $94 $151 $152 reversed $59 $-1 #
face $-1 $-1 $153 $31 $-1 $154 forward single #
loop $-1 $155 $156 $61 #
cone-surface $-1 -41.375114692317723 12.632421407903951 10.018608021415808 0.84804810408105047 0 -0.52991925155115449 0.13247981288778862 0 0.21201202602026262 1 I I -0.70710678118654746 0.70710678118654746 0.25 forward I I I I #
loop $-1 $-1 $157 $39 #
coedge $-1 $99 $99 $158 $159 reversed $62 $-1 #
face $-1 $160 $161 $24 $-1 $162 reversed single #
loop $-1 $-1 $163 $64 #
plane-surface $-1 0 -26.153989499157131 0 0 1 0 0 0 1 forward_v I I I I #
coedge $-1 $164 $165 $166 $167 forward $65 $-1 #
coedge $-1 $168 $67 $169 $170 forward $41 $-1 #
coedge $-1 $67 $168 $171 $172 forward $41 $-1 #
coedge $-1 $173 $174 $67 $107 reversed $175 $-1 #
edge $-1 $176 -26.153989499157131 $177 26.153989499157131 $106 $178 forward 7 unknown #
face $-1 $179 $180 $25 $-1 $181 reversed single #
loop $-1 $-1 $182 $68 #
plane-surface $-1 -43.457136753440963 0 0 1 0 0 0 0 -1 forward_v I I I I #
coedge $-1 $183 $184 $185 $186 forward $69 $-1 #
coedge $-1 $185 $71 $182 $187 reversed $44 $-1 #
coedge $-1 $71 $185 $188 $189 reversed $44 $-1 #
coedge $-1 $190 $191 $71 $115 reversed $180 $-1 #
edge $-1 $192 -43.457136753440963 $193 43.457136753440963 $114 $194 forward 7 unknown #
face $-1 $195 $196 $26 $-1 $197 forward single #
loop $-1 $-1 $198 $72 #
plane-surface $-1 -117.16462161853407 7.504957512062493 55.103072831730884 0 -1 0 0.84804810408105047 0 -0.52991925155115449 forward_v I I I I #
coedge $-1 $199 $200 $201 $202 reversed $73 $-1 #
coedge $-1 $121 $75 $203 $204 reversed $47 $-1 #
coedge $-1 $75 $120 $199 $205 reversed $47 $-1 #
coedge $-1 $201 $206 $75 $123 forward $196 $-1 #
edge $-1 $207 15.125174055826072 $208 17.169097917869905 $122 $209 forward 7 unknown #
loop $-1 $-1 $129 $76 #
plane-surface $-1 -43.457136753440977 3.9157327849734678 9.045526065851675 -0.84804810408105047 0 0.52991925155115449 0.52991925155115449 0 0.84804810408105047 forward_v I I I I #
loop $-1 $-1 $210 $49 #
coedge $-1 $127 $127 $128 $211 reversed $77 $-1 #
coedge $-1 $128 $128 $127 $211 forward $79 $-1 #
coedge $-1 $129 $129 $80 $130 forward $124 $-1 #
edge $-1 $212 0 $212 6.2831853071796004 $129 $213 forward 7 unknown #
loop $-1 $-1 $136 $81 #
plane-surface $-1 -43.457136753440977 3.9157327849734678 9.045526065851675 -0.84804810408105047 0 0.52991925155115449 0.52991925155115449 0 0.84804810408105047 forward_v I I I I #
loop $-1 $-1 $214 $52 #
coedge $-1 $134 $134 $135 $215 reversed $82 $-1 #
coedge $-1 $135 $135 $134 $215 forward $84 $-1 #
coedge $-1 $136 $136 $85 $137 forward $131 $-1 #
edge $-1 $216 0 $216 6.2831853071796004 $136 $217 forward 7 unknown #
face $-1 $218 $219 $29 $-1 $220 forward single #
loop $-1 $-1 $221 $86 #
plane-surface $-1 0 0 12.316488105857843 0 0 1 1 0 0 forward_v I I I I #
coedge $-1 $222 $223 $224 $225 reversed $87 $-1 #
coedge $-1 $226 $89 $227 $228 reversed $56 $-1 #
coedge $-1 $89 $226 $221 $229 reversed $56 $-1 #
coedge $-1 $230 $231 $89 $145 forward $219 $-1 #
edge $-1 $232 2.7114274142304302e-014 $233 3.8570477597501367 $144 $234 forward 7 unknown #
loop $-1 $-1 $151 $90 #
plane-surface $-1 -43.457136753440977 3.9157327849734678 9.045526065851675 -0.84804810408105047 0 0.52991925155115449 0.52991925155115449 0 0.84804810408105047 forward_v I I I I #
loop $-1 $-1 $235 $58 #
coedge $-1 $149 $149 $150 $236 reversed $91 $-1 #
coedge $-1 $150 $150 $149 $236 forward $93 $-1 #
coedge $-1 $151 $151 $94 $152 forward $146 $-1 #
edge $-1 $237 0 $237 6.2831853071796004 $151 $238 forward 7 unknown #
loop $-1 $-1 $158 $95 #
plane-surface $-1 -43.457136753440977 3.9157327849734678 9.045526065851675 -0.84804810408105047 0 0.52991925155115449 0.52991925155115449 0 0.84804810408105047 forward_v I I I I #
loop $-1 $-1 $239 $61 #
coedge $-1 $156 $156 $157 $240 reversed $96 $-1 #
coedge $-1 $157 $157 $156 $240 forward $98 $-1 #
coedge $-1 $158 $158 $99 $159 forward $153 $-1 #
edge $-1 $241 0 $241 6.2831853071796004 $158 $242 forward 7 unknown #
face $-1 $243 $244 $24 $-1 $245 reversed single #
loop $-1 $-1 $246 $100 #
plane-surface $-1 -43.457136753440963 0 0 1 0 0 0 0 -1 forward_v I I I I #
coedge $-1 $247 $171 $248 $249 forward $101 $-1 #
coedge $-1 $250 $103 $247 $251 forward $65 $-1 #
coedge $-1 $103 $250 $252 $253 forward $65 $-1 #
coedge $-1 $174 $173 $103 $167 reversed $175 $-1 #
edge $-1 $254 -26.153989499157131 $255 26.153989499157131 $166 $256 forward 7 unknown #
coedge $-1 $105 $104 $257 $258 forward $41 $-1 #
coedge $-1 $259 $260 $104 $170 reversed $244 $-1 #
edge $-1 $177 -43.457136753440963 $261 43.457136753440963 $169 $262 forward 7 unknown #
coedge $-1 $163 $263 $105 $172 reversed $101 $-1 #
edge $-1 $264 -43.457136753440963 $176 43.457136753440963 $171 $265 forward 7 unknown #
coedge $-1 $166 $106 $263 $266 forward $175 $-1 #
coedge $-1 $106 $166 $259 $267 reversed $175 $-1 #
loop $-1 $-1 $173 $243 #
vertex $-1 $107 $268 #
vertex $-1 $107 $269 #
straight-curve $-1 43.457136753440963 0 12.316488105857843 0 1 0 I I #
face $-1 $270 $271 $25 $-1 $272 reversed single #
loop $-1 $-1 $190 $108 #
plane-surface $-1 0 -33.658947011219624 8.9901680324920061 0 0 1 1 0 0 forward_v I I I I #
coedge $-1 $273 $274 $112 $187 forward $109 $-1 #
coedge $-1 $275 $111 $274 $276 forward $69 $-1 #
coedge $-1 $111 $275 $277 $278 forward $69 $-1 #
coedge $-1 $113 $112 $111 $186 reversed $44 $-1 #
edge $-1 $279 -43.457136753440963 $280 43.457136753440963 $111 $281 forward 7 unknown #
edge $-1 $280 -12.316488105857843 $193 -8.9901680324920061 $182 $282 forward 7 unknown #
coedge $-1 $277 $283 $113 $189 forward $284 $-1 #
edge $-1 $192 8.9901680324920061 $279 12.316488105857843 $188 $285 forward 7 unknown #
coedge $-1 $286 $114 $283 $287 forward $180 $-1 #
coedge $-1 $114 $286 $273 $288 forward $180 $-1 #
vertex $-1 $189 $289 #
vertex $-1 $187 $290 #
straight-curve $-1 0 -26.153989499157131 8.9901680324920061 -1 0 0 I I #
face $-1 $-1 $291 $26 $-1 $292 reversed single #
loop $-1 $-1 $122 $116 #
plane-surface $-1 0 0 12.316488105857843 0 0 1 1 0 0 forward_v I I I I #
coedge $-1 $293 $294 $295 $296 reversed $117 $-1 #
coedge $-1 $297 $119 $121 $205 forward $73 $-1 #
coedge $-1 $119 $297 $293 $298 forward $73 $-1 #
coedge $-1 $295 $122 $119 $202 forward $196 $-1 #
edge $-1 $208 -1.6313583346022913 $299 5.5470911195757591 $201 $300 forward 7 unknown #
coedge $-1 $301 $302 $120 $204 forward $291 $-1 #
edge $-1 $303 -18.506010350013746 $207 -15.235048310007599 $203 $304 forward 7 unknown #
edge $-1 $208 -3.8570477597501367 $303 -2.7114274142304302e-014 $121 $305 forward 7 unknown #
coedge $-1 $122 $295 $301 $306 forward $196 $-1 #
vertex $-1 $204 $307 #
vertex $-1 $123 $308 #
straight-curve $-1 -58.582310809267035 0.32650805788444259 12.316488105857843 1 0 0 I I #
coedge $-1 $210 $210 $-1 $309 reversed $126 $-1 #
edge $-1 $310 0 $310 6.2831853071796004 $127 $311 forward 7 unknown #
vertex $-1 $130 $312 #
ellipse-curve $-1 -42.43517482241905 2.3774936162210274 10.681007085854759 -0.84804810408105047 0 0.52991925155115449 0.26495962577557725 0 0.42402405204052523 1 I I #
coedge $-1 $214 $214 $-1 $313 reversed $133 $-1 #
edge $-1 $314 0 $314 6.2831853071796004 $134 $315 forward 7 unknown #
vertex $-1 $137 $316 #
ellipse-curve $-1 -42.43517482241905 5.4539719537259046 10.681007085854759 -0.84804810408105047 0 0.52991925155115449 0.26495962577557725 0 0.42402405204052523 1 I I #
face $-1 $-1 $317 $29 $-1 $318 reversed single #
loop $-1 $-1 $230 $138 #
plane-surface $-1 -117.16462161853407 7.504957512062493 55.103072831730884 0 -1 0 0.84804810408105047 0 -0.52991925155115449 forward_v I I I I #
coedge $-1 $224 $319 $143 $229 forward $139 $-1 #
coedge $-1 $223 $141 $226 $320 reversed $87 $-1 #
coedge $-1 $141 $222 $321 $322 reversed $87 $-1 #
coedge $-1 $323 $221 $141 $225 forward $139 $-1 #
edge $-1 $324 -17.169097917869905 $325 -15.125174055826072 $224 $326 forward 7 unknown #
coedge $-1 $143 $142 $222 $320 forward $56 $-1 #
coedge $-1 $327 $321 $142 $228 forward $317 $-1 #
edge $-1 $328 -12.725540573753802 $232 -5.5470911195757591 $227 $329 forward 7 unknown #
edge $-1 $233 5.5470911195757591 $324 12.725540573753802 $221 $330 forward 7 unknown #
coedge $-1 $231 $144 $319 $331 reversed $219 $-1 #
coedge $-1 $144 $230 $327 $332 reversed $219 $-1 #
vertex $-1 $228 $333 #
vertex $-1 $229 $334 #
straight-curve $-1 -43.457136753440977 7.504957512062493 9.045526065851675 0.52991925155115449 0 0.84804810408105047 I I #
coedge $-1 $235 $235 $-1 $335 reversed $148 $-1 #
edge $-1 $336 0 $336 6.2831853071796004 $149 $337 forward 7 unknown #
vertex $-1 $152 $338 #
ellipse-curve $-1 -42.43517482241905 9.5559430703990706 10.681007085854759 -0.84804810408105047 0 0.52991925155115449 0.26495962577557725 0 0.42402405204052523 1 I I #
coedge $-1 $239 $239 $-1 $339 reversed $155 $-1 #
edge $-1 $340 0 $340 6.2831853071796004 $156 $341 forward 7 unknown #
vertex $-1 $159 $342 #
ellipse-curve $-1 -42.43517482241905 12.632421407903951 10.681007085854759 -0.84804810408105047 0 0.52991925155115449 0.26495962577557725 0 0.42402405204052523 1 I I #
face $-1 $-1 $175 $24 $-1 $343 reversed single #
loop $-1 $-1 $259 $160 #
plane-surface $-1 0 26.153989499157131 0 0 -1 0 0 0 -1 forward_v I I I I #
coedge $-1 $344 $257 $260 $345 forward $161 $-1 #
coedge $-1 $263 $163 $164 $251 reversed $101 $-1 #
coedge $-1 $257 $344 $163 $249 reversed $161 $-1 #
edge $-1 $264 -12.316488105857843 $346 12.316488105857843 $248 $347 forward 7 unknown #
coedge $-1 $165 $164 $344 $348 forward $65 $-1 #
edge $-1 $255 -43.457136753440963 $346 43.457136753440963 $247 $349 forward 7 unknown #
coedge $-1 $260 $259 $165 $253 reversed $244 $-1 #
edge $-1 $350 -43.457136753440963 $254 43.457136753440963 $252 $351 forward 7 unknown #
vertex $-1 $167 $352 #
vertex $-1 $266 $353 #
straight-curve $-1 43.457136753440963 0 -12.316488105857843 0 -1 0 I I #
coedge $-1 $246 $248 $168 $258 reversed $161 $-1 #
edge $-1 $261 -26.153989499157131 $264 26.153989499157131 $257 $354 forward 7 unknown #
coedge $-1 $252 $169 $174 $267 forward $244 $-1 #
coedge $-1 $169 $252 $246 $345 reversed $244 $-1 #
vertex $-1 $170 $355 #
straight-curve $-1 0 26.153989499157131 12.316488105857843 -1 0 0 I I #
coedge $-1 $171 $247 $173 $266 reversed $101 $-1 #
vertex $-1 $258 $356 #
straight-curve $-1 0 -26.153989499157131 12.316488105857843 1 0 0 I I #
edge $-1 $176 -12.316488105857843 $255 12.316488105857843 $173 $357 forward 7 unknown #
edge $-1 $177 -12.316488105857843 $254 12.316488105857843 $174 $358 forward 7 unknown #
point $-1 43.457136753440963 -26.153989499157131 12.316488105857843 #
point $-1 43.457136753440963 26.153989499157131 12.316488105857843 #
face $-1 $-1 $284 $25 $-1 $359 reversed single #
loop $-1 $-1 $360 $179 #
plane-surface $-1 0 -41.163904523282113 10.653328069174925 0 1 0 0 0 1 forward_v I I I I #
coedge $-1 $361 $182 $191 $288 reversed $109 $-1 #
coedge $-1 $182 $361 $183 $276 reversed $109 $-1 #
coedge $-1 $184 $183 $362 $363 forward $69 $-1 #
edge $-1 $280 26.153989499157131 $364 41.163904523282113 $274 $365 forward 7 unknown #
coedge $-1 $366 $188 $184 $278 reversed $284 $-1 #
edge $-1 $367 -41.163904523282113 $279 -26.153989499157131 $277 $368 forward 7 unknown #
vertex $-1 $189 $369 #
vertex $-1 $276 $370 #
straight-curve $-1 0 -26.153989499157131 12.316488105857843 -1 0 0 I I #
straight-curve $-1 -43.457136753440963 -26.153989499157131 0 0 0 -1 I I #
coedge $-1 $188 $366 $190 $287 reversed $284 $-1 #
loop $-1 $-1 $188 $270 #
straight-curve $-1 43.457136753440963 -26.153989499157131 0 0 0 1 I I #
coedge $-1 $191 $190 $371 $372 forward $180 $-1 #
edge $-1 $192 -7.5049575120624894 $373 7.5049575120624894 $283 $374 forward 7 unknown #
edge $-1 $375 -7.5049575120624894 $193 7.5049575120624894 $273 $376 forward 7 unknown #
point $-1 43.457136753440963 -26.153989499157134 8.9901680324920061 #
point $-1 -43.457136753440963 -26.153989499157134 8.9901680324920061 #
loop $-1 $-1 $203 $195 #
plane-surface $-1 -43.457136753440963 0 0 1 0 0 0 0 -1 forward_v I I I I #
coedge $-1 $294 $198 $200 $298 reversed $117 $-1 #
coedge $-1 $198 $293 $377 $378 reversed $117 $-1 #
coedge $-1 $206 $201 $198 $296 forward $196 $-1 #
edge $-1 $299 -17.169097917869905 $379 -15.125174055826072 $295 $380 forward 7 unknown #
coedge $-1 $200 $199 $302 $381 reversed $73 $-1 #
edge $-1 $382 2.7114274142304302e-014 $299 3.8570477597501367 $293 $383 forward 7 unknown #
vertex $-1 $202 $384 #
straight-curve $-1 -41.41321289139713 1.9578663924867339 12.316488105857843 0 1 0 I I #
coedge $-1 $377 $203 $206 $306 reversed $291 $-1 #
coedge $-1 $203 $377 $297 $381 forward $291 $-1 #
vertex $-1 $204 $385 #
straight-curve $-1 -43.457136753440963 0.32650805788444259 27.551536415865442 0 0 1 I I #
straight-curve $-1 -43.457136753440977 0.32650805788444259 9.045526065851675 -0.52991925155115449 0 -0.84804810408105047 I I #
edge $-1 $379 -7.504957512062493 $207 -0.32650805788444259 $301 $386 forward 7 unknown #
point $-1 -43.457136753440963 0.32650805788444259 12.316488105857843 #
point $-1 -41.41321289139713 0.32650805788444259 12.316488105857843 #
edge $-1 $387 1 $387 0 $210 $-1 forward 7 unknown #
vertex $-1 $211 $388 #
ellipse-curve $-1 -41.587126718337984 2.3774936162210274 10.151087834303597 -0.84804810408105047 0 0.52991925155115449 0.26495962577557725 0 0.42402405204052523 1 I I #
point $-1 -42.170215196643461 2.3774936162210274 11.105031137895276 #
edge $-1 $389 1 $389 0 $214 $-1 forward 7 unknown #
vertex $-1 $215 $390 #
ellipse-curve $-1 -41.587126718337984 5.4539719537259046 10.151087834303597 -0.84804810408105047 0 0.52991925155115449 0.26495962577557725 0 0.42402405204052523 1 I I #
point $-1 -42.170215196643461 5.4539719537259046 11.105031137895276 #
loop $-1 $-1 $227 $218 #
plane-surface $-1 -43.457136753440963 0 0 1 0 0 0 0 -1 forward_v I I I I #
coedge $-1 $221 $323 $230 $331 forward $139 $-1 #
edge $-1 $328 2.7114274142304302e-014 $324 3.8570477597501367 $222 $391 forward 7 unknown #
coedge $-1 $227 $392 $223 $322 forward $317 $-1 #
edge $-1 $325 15.235048310007599 $328 18.506010350013746 $321 $393 forward 7 unknown #
coedge $-1 $319 $224 $392 $394 forward $139 $-1 #
vertex $-1 $225 $395 #
vertex $-1 $394 $396 #
straight-curve $-1 -58.582310809267035 14.683406966240536 12.316488105857843 -1 0 0 I I #
coedge $-1 $392 $227 $231 $332 forward $317 $-1 #
vertex $-1 $322 $397 #
straight-curve $-1 -43.457136753440963 1.9578663924867339 9.0455260658516963 0 -1 0 I I #
straight-curve $-1 -41.41321289139713 1.9578663924867339 12.316488105857843 0 1 0 I I #
edge $-1 $398 15.125174055826072 $233 17.169097917869905 $319 $399 forward 7 unknown #
edge $-1 $232 -18.506010350013746 $398 -15.235048310007599 $327 $400 forward 7 unknown #
point $-1 -43.457136753440963 7.504957512062493 9.045526065851698 #
point $-1 -41.41321289139713 7.504957512062493 12.316488105857843 #
edge $-1 $401 1 $401 0 $235 $-1 forward 7 unknown #
vertex $-1 $236 $402 #
ellipse-curve $-1 -41.587126718337984 9.5559430703990706 10.151087834303597 -0.84804810408105047 0 0.52991925155115449 0.26495962577557725 0 0.42402405204052523 1 I I #
point $-1 -42.170215196643461 9.5559430703990706 11.105031137895276 #
edge $-1 $403 1 $403 0 $239 $-1 forward 7 unknown #
vertex $-1 $240 $404 #
ellipse-curve $-1 -41.587126718337984 12.632421407903951 10.151087834303597 -0.84804810408105047 0 0.52991925155115449 0.26495962577557725 0 0.42402405204052523 1 I I #
point $-1 -42.170215196643461 12.632421407903951 11.105031137895276 #
plane-surface $-1 43.457136753440963 0 0 -1 0 0 0 0 1 forward_v I I I I #
coedge $-1 $248 $246 $250 $348 reversed $161 $-1 #
edge $-1 $261 -12.316488105857843 $350 12.316488105857843 $260 $405 forward 7 unknown #
vertex $-1 $348 $406 #
straight-curve $-1 -43.457136753440963 -26.153989499157131 0 0 0 -1 I I #
edge $-1 $346 -26.153989499157131 $350 26.153989499157131 $344 $407 forward 7 unknown #
straight-curve $-1 0 -26.153989499157131 -12.316488105857843 -1 0 0 I I #
vertex $-1 $253 $408 #
straight-curve $-1 0 26.153989499157131 -12.316488105857843 1 0 0 I I #
point $-1 43.457136753440963 26.153989499157131 -12.316488105857843 #
point $-1 43.457136753440963 -26.153989499157131 -12.316488105857843 #
straight-curve $-1 -43.457136753440963 0 12.316488105857843 0 -1 0 I I #
point $-1 -43.457136753440963 26.153989499157131 12.316488105857843 #
point $-1 -43.457136753440963 -26.153989499157131 12.316488105857843 #
straight-curve $-1 43.457136753440963 -26.153989499157131 0 0 0 -1 I I #
straight-curve $-1 43.457136753440963 26.153989499157131 0 0 0 -1 I I #
plane-surface $-1 43.457136753440963 0 0 -1 0 0 0 0 1 forward_v I I I I #
coedge $-1 $371 $362 $361 $409 forward $271 $-1 #
coedge $-1 $274 $273 $360 $409 reversed $109 $-1 #
coedge $-1 $360 $410 $275 $363 reversed $271 $-1 #
edge $-1 $364 -43.457136753440963 $367 43.457136753440963 $362 $411 forward 7 unknown #
vertex $-1 $276 $412 #
straight-curve $-1 -43.457136753440963 0 12.316488105857843 0 -1 0 I I #
coedge $-1 $283 $277 $410 $413 forward $284 $-1 #
vertex $-1 $278 $414 #
straight-curve $-1 43.457136753440963 0 12.316488105857843 0 1 0 I I #
point $-1 43.457136753440963 -26.153989499157131 12.316488105857843 #
point $-1 -43.457136753440963 -26.153989499157131 12.316488105857843 #
coedge $-1 $410 $360 $286 $372 reversed $271 $-1 #
edge $-1 $373 -43.457136753440963 $375 43.457136753440963 $371 $415 forward 7 unknown #
vertex $-1 $413 $416 #
straight-curve $-1 43.457136753440963 -33.658947011219624 8.9901680324920061 0 -1 0 I I #
vertex $-1 $288 $417 #
straight-curve $-1 -43.457136753440963 -33.658947011219624 8.9901680324920061 0 1 0 I I #
coedge $-1 $302 $301 $294 $378 forward $291 $-1 #
edge $-1 $379 15.235048310007599 $382 18.506010350013746 $377 $418 forward 7 unknown #
vertex $-1 $306 $419 #
straight-curve $-1 -58.582310809267035 7.504957512062493 12.316488105857843 -1 0 0 I I #
edge $-1 $382 -5.5470911195757591 $303 1.6313583346022913 $302 $420 forward 7 unknown #
vertex $-1 $381 $421 #
straight-curve $-1 -43.457136753440977 7.504957512062493 9.045526065851675 0.52991925155115449 0 0.84804810408105047 I I #
point $-1 -41.41321289139713 7.504957512062493 12.316488105857843 #
point $-1 -43.457136753440963 0.32650805788444259 9.045526065851698 #
straight-curve $-1 -43.457136753440963 0 12.316488105857843 0 -1 0 I I #
vertex $-1 $309 $422 #
point $-1 -41.32216709256241 2.3774936162210274 10.575111886344121 #
vertex $-1 $313 $423 #
point $-1 -41.32216709256241 5.4539719537259046 10.575111886344121 #
straight-curve $-1 -43.457136753440977 14.683406966240536 9.045526065851675 0.52991925155115449 0 0.84804810408105047 I I #
coedge $-1 $321 $327 $323 $394 reversed $317 $-1 #
straight-curve $-1 -43.457136753440963 14.683406966240536 27.551536415865442 0 0 -1 I I #
edge $-1 $325 -14.683406966240536 $398 -7.504957512062493 $392 $424 forward 7 unknown #
point $-1 -41.41321289139713 14.683406966240536 12.316488105857843 #
point $-1 -43.457136753440963 14.683406966240536 12.316488105857843 #
point $-1 -43.457136753440963 14.683406966240536 9.045526065851698 #
vertex $-1 $332 $425 #
straight-curve $-1 -58.582310809267035 7.504957512062493 12.316488105857843 1 0 0 I I #
straight-curve $-1 -43.457136753440963 7.504957512062493 27.551536415865442 0 0 1 I I #
vertex $-1 $335 $426 #
point $-1 -41.32216709256241 9.5559430703990706 10.575111886344121 #
vertex $-1 $339 $427 #
point $-1 -41.32216709256241 12.632421407903951 10.575111886344121 #
straight-curve $-1 -43.457136753440963 26.153989499157131 0 0 0 -1 I I #
point $-1 -43.457136753440963 -26.153989499157131 -12.316488105857843 #
straight-curve $-1 -43.457136753440963 0 -12.316488105857843 0 1 0 I I #
point $-1 -43.457136753440963 26.153989499157131 -12.316488105857843 #
edge $-1 $364 -1.6631600366829193 $375 1.6631600366829193 $361 $428 forward 7 unknown #
coedge $-1 $362 $371 $366 $413 reversed $271 $-1 #
straight-curve $-1 0 -41.163904523282113 12.316488105857845 1 0 0 I I #
point $-1 -43.457136753440963 -41.163904523282113 12.316488105857845 #
edge $-1 $367 -1.6631600366829193 $373 1.6631600366829193 $366 $429 forward 7 unknown #
point $-1 43.457136753440963 -41.163904523282113 12.316488105857845 #
straight-curve $-1 0 -41.163904523282113 8.9901680324920061 -1 0 0 I I #
point $-1 43.457136753440963 -41.163904523282113 8.9901680324920061 #
point $-1 -43.457136753440963 -41.163904523282113 8.9901680324920061 #
straight-curve $-1 -43.457136753440963 7.504957512062493 27.551536415865442 0 0 -1 I I #
point $-1 -43.457136753440963 7.504957512062493 12.316488105857843 #
straight-curve $-1 -43.457136753440963 1.9578663924867339 9.0455260658516963 0 -1 0 I I #
point $-1 -43.457136753440963 7.504957512062493 9.045526065851698 #
point $-1 -41.163102666297462 2.3774936162210274 9.8861282085280191 #
point $-1 -41.163102666297462 5.4539719537259046 9.8861282085280191 #
straight-curve $-1 -43.457136753440963 0 12.316488105857843 0 -1 0 I I #
point $-1 -43.457136753440963 7.504957512062493 12.316488105857843 #
point $-1 -41.163102666297462 9.5559430703990706 9.8861282085280191 #
point $-1 -41.163102666297462 12.632421407903951 9.8861282085280191 #
straight-curve $-1 -43.457136753440963 -41.163904523282113 10.653328069174925 0 0 -1 I I #
straight-curve $-1 43.457136753440963 -41.163904523282113 10.653328069174925 0 0 -1 I I #
End-of-ACIS-data 