500 0 11 0           
7 Unknown 11 ACIS 5.0 NT 24 Thu Mar 25 23:14:49 1999 
-1 9.9999999999999995e-007 1e-010 
body $-1 $11 $-1 $12 #
body $-1 $13 $-1 $14 #
body $-1 $15 $-1 $16 #
body $-1 $17 $-1 $18 #
body $-1 $19 $-1 $20 #
body $-1 $21 $-1 $22 #
body $-1 $23 $-1 $24 #
body $-1 $25 $-1 $26 #
body $-1 $27 $-1 $28 #
body $-1 $29 $-1 $30 #
body $-1 $31 $-1 $32 #
lump $-1 $-1 $33 $0 #
transform $-1 1 0 0 0 1 0 0 0 1 54.907681508835111 25.759037169163005 7.4302405350437324 1 rotate no_reflect no_shear #
lump $-1 $-1 $34 $1 #
transform $-1 1 0 0 0 1 0 0 0 1 54.907681508835111 25.759037169163005 7.4302405350437324 1 rotate no_reflect no_shear #
lump $-1 $-1 $35 $2 #
transform $-1 1 0 0 0 1 0 0 0 1 54.907681508835111 25.759037169163005 7.4302405350437324 1 rotate no_reflect no_shear #
lump $-1 $-1 $36 $3 #
transform $-1 1 0 0 0 1 0 0 0 1 54.907681508835111 25.759037169163005 7.4302405350437324 1 rotate no_reflect no_shear #
lump $-1 $-1 $37 $4 #
transform $-1 1 0 0 0 1 0 0 0 1 54.907681508835111 25.759037169163005 7.4302405350437324 1 rotate no_reflect no_shear #
lump $-1 $-1 $38 $5 #
transform $-1 1 0 0 0 1 0 0 0 1 54.907681508835111 25.759037169163005 7.4302405350437324 1 rotate no_reflect no_shear #
lump $-1 $-1 $39 $6 #
transform $-1 1 0 0 0 1 0 0 0 1 54.907681508835111 25.759037169163005 7.4302405350437324 1 rotate no_reflect no_shear #
lump $-1 $-1 $40 $7 #
transform $-1 1 0 0 0 1 0 0 0 1 54.907681508835111 25.759037169163005 7.4302405350437324 1 rotate no_reflect no_shear #
lump $-1 $-1 $41 $8 #
transform $-1 1 0 0 0 1 0 0 0 1 54.907681508835111 25.759037169163005 7.4302405350437324 1 rotate no_reflect no_shear #
lump $-1 $-1 $42 $9 #
transform $-1 1 0 0 0 1 0 0 0 1 54.907681508835111 25.759037169163005 7.4302405350437324 1 rotate no_reflect no_shear #
lump $-1 $-1 $43 $10 #
transform $-1 1 0 0 0 1 0 0 0 1 54.907681508835111 25.759037169163005 7.4302405350437324 1 rotate no_reflect no_shear #
shell $-1 $-1 $-1 $44 $-1 $11 #
shell $-1 $-1 $-1 $45 $-1 $13 #
shell $-1 $-1 $-1 $46 $-1 $15 #
shell $-1 $-1 $-1 $47 $-1 $17 #
shell $-1 $-1 $-1 $48 $-1 $19 #
shell $-1 $-1 $-1 $49 $-1 $21 #
shell $-1 $-1 $-1 $50 $-1 $23 #
shell $-1 $-1 $-1 $51 $-1 $25 #
shell $-1 $-1 $-1 $52 $-1 $27 #
shell $-1 $-1 $-1 $53 $-1 $29 #
shell $-1 $-1 $-1 $54 $-1 $31 #
face $-1 $55 $56 $33 $-1 $57 forward single #
face $-1 $58 $59 $34 $-1 $60 forward single #
face $-1 $61 $62 $35 $-1 $63 reversed single #
face $-1 $64 $65 $36 $-1 $66 reversed single #
face $-1 $67 $68 $37 $-1 $69 forward single #
face $-1 $70 $71 $38 $-1 $72 forward single #
face $-1 $73 $74 $39 $-1 $75 forward single #
face $-1 $76 $77 $40 $-1 $78 reversed single #
face $-1 $79 $80 $41 $-1 $81 forward single #
face $-1 $82 $83 $42 $-1 $84 forward single #
face $-1 $85 $86 $43 $-1 $87 forward single #
face $-1 $88 $89 $33 $-1 $90 reversed single #
loop $-1 $-1 $91 $44 #
plane-surface $-1 0 0 7.4302405350437324 0 0 1 1 0 0 forward_v I I I I #
face $-1 $92 $93 $34 $-1 $94 reversed single #
loop $-1 $-1 $95 $45 #
plane-surface $-1 0 -23.245546911299218 4.0592284917813481 0 0 1 1 0 0 forward_v I I I I #
face $-1 $96 $97 $35 $-1 $98 reversed single #
loop $-1 $-1 $99 $46 #
plane-surface $-1 -53.407681508835111 18.265634940994143 0 0 1 0 0 0 1 forward_v I I I I #
face $-1 $100 $101 $36 $-1 $102 reversed single #
loop $-1 $-1 $103 $47 #
plane-surface $-1 -54.907681508835083 12.457203647350017 1.0878541015339067 -0.68199836817093118 0 0.7313536940579346 0.7313536940579346 0 0.68199836817093118 forward_v I I I I #
face $-1 $104 $105 $37 $-1 $106 forward single #
loop $-1 $107 $108 $48 #
cone-surface $-1 -50.913972864567398 8.9721448711635396 3.6231108745772058 0.68199836817093118 0 -0.7313536940579346 0.3656768470289673 0 0.34099918408546559 1 I I 0 1 0.5 forward I I I I #
face $-1 $109 $110 $38 $-1 $111 forward single #
loop $-1 $112 $113 $49 #
cone-surface $-1 -50.913972864567398 12.457203647350017 3.6231108745772058 0.68199836817093118 0 -0.7313536940579346 0.3656768470289673 0 0.34099918408546559 1 I I 0 1 0.5 forward I I I I #
face $-1 $114 $115 $39 $-1 $116 forward single #
loop $-1 $117 $118 $50 #
cone-surface $-1 -50.913972864567398 15.942262423536494 3.6231108745772058 0.68199836817093118 0 -0.7313536940579346 0.3656768470289673 0 0.34099918408546559 1 I I 0 1 0.5 forward I I I I #
face $-1 $119 $120 $40 $-1 $121 reversed single #
loop $-1 $-1 $122 $51 #
plane-surface $-1 49.487708479698398 18.265634940994143 156.29562388696962 0 -1 0 -0.68199836817093118 0 -0.7313536940579346 forward_v I I I I #
face $-1 $123 $124 $41 $-1 $125 forward single #
loop $-1 $126 $127 $52 #
cone-surface $-1 50.913972864567398 8.9721448711635396 3.6231108745771916 -0.68199836817093118 0 -0.7313536940579346 0.3656768470289673 0 -0.34099918408546559 1 I I 0 1 0.5 forward I I I I #
face $-1 $128 $129 $42 $-1 $130 forward single #
loop $-1 $131 $132 $53 #
cone-surface $-1 50.913972864567398 12.457203647350017 3.6231108745771916 -0.68199836817093118 0 -0.7313536940579346 0.3656768470289673 0 -0.34099918408546559 1 I I 0 1 0.5 forward I I I I #
face $-1 $133 $134 $43 $-1 $135 forward single #
loop $-1 $136 $137 $54 #
cone-surface $-1 50.913972864567398 15.942262423536494 3.6231108745771916 -0.68199836817093118 0 -0.7313536940579346 0.3656768470289673 0 -0.34099918408546559 1 I I 0 1 0.5 forward I I I I #
face $-1 $138 $139 $33 $-1 $140 reversed single #
loop $-1 $-1 $141 $55 #
plane-surface $-1 0 0 -7.4302405350437324 0 0 1 1 0 0 forward_v I I I I #
coedge $-1 $142 $143 $144 $145 forward $56 $-1 #
face $-1 $146 $147 $34 $-1 $148 reversed single #
loop $-1 $-1 $149 $58 #
plane-surface $-1 0 -23.245546911299218 0.62622017377112105 0 0 1 1 0 0 forward_v I I I I #
coedge $-1 $150 $151 $152 $153 reversed $59 $-1 #
face $-1 $154 $155 $35 $-1 $156 reversed single #
loop $-1 $-1 $157 $61 #
plane-surface $-1 -51.907681508835111 22.012336055078574 0 -1 0 0 0 0 1 forward_v I I I I #
coedge $-1 $158 $159 $160 $161 reversed $62 $-1 #
face $-1 $162 $163 $36 $-1 $164 forward single #
loop $-1 $-1 $165 $64 #
plane-surface $-1 -129.8015798869846 6.6487723537058905 81.401725508820121 0 1 0 -0.68199836817093118 0 0.7313536940579346 forward_v I I I I #
coedge $-1 $166 $167 $168 $169 reversed $65 $-1 #
face $-1 $-1 $170 $37 $-1 $171 forward single #
loop $-1 $172 $173 $67 #
cone-surface $-1 -50.150452931757243 8.9721448711635396 2.8043360073511012 0.68199836817093118 0 -0.7313536940579346 0.18283842351448365 0 0.17049959204273279 1 I I -0.70710678118654746 0.70710678118654746 0.25 forward I I I I #
loop $-1 $-1 $174 $48 #
coedge $-1 $108 $108 $175 $176 reversed $68 $-1 #
face $-1 $-1 $177 $38 $-1 $178 forward single #
loop $-1 $179 $180 $70 #
cone-surface $-1 -50.150452931757243 12.457203647350017 2.8043360073511012 0.68199836817093118 0 -0.7313536940579346 0.18283842351448365 0 0.17049959204273279 1 I I -0.70710678118654746 0.70710678118654746 0.25 forward I I I I #
loop $-1 $-1 $181 $49 #
coedge $-1 $113 $113 $182 $183 reversed $71 $-1 #
face $-1 $-1 $184 $39 $-1 $185 forward single #
loop $-1 $186 $187 $73 #
cone-surface $-1 -50.150452931757243 15.942262423536494 2.8043360073511012 0.68199836817093118 0 -0.7313536940579346 0.18283842351448365 0 0.17049959204273279 1 I I -0.70710678118654746 0.70710678118654746 0.25 forward I I I I #
loop $-1 $-1 $188 $50 #
coedge $-1 $118 $118 $189 $190 reversed $74 $-1 #
face $-1 $191 $192 $40 $-1 $193 reversed single #
loop $-1 $-1 $194 $76 #
plane-surface $-1 -25.406189898451117 12.457203647350017 75.981752479683408 0.68199836817093118 0 0.7313536940579346 0.7313536940579346 0 -0.68199836817093118 forward_v I I I I #
coedge $-1 $195 $196 $197 $198 reversed $77 $-1 #
face $-1 $-1 $199 $41 $-1 $200 forward single #
loop $-1 $201 $202 $79 #
cone-surface $-1 50.150452931757243 8.9721448711635396 2.804336007351087 -0.68199836817093118 0 -0.7313536940579346 0.18283842351448365 0 -0.17049959204273279 1 I I -0.70710678118654746 0.70710678118654746 0.25 forward I I I I #
loop $-1 $-1 $203 $52 #
coedge $-1 $127 $127 $204 $205 reversed $80 $-1 #
face $-1 $-1 $206 $42 $-1 $207 forward single #
loop $-1 $208 $209 $82 #
cone-surface $-1 50.150452931757243 12.457203647350017 2.804336007351087 -0.68199836817093118 0 -0.7313536940579346 0.18283842351448365 0 -0.17049959204273279 1 I I -0.70710678118654746 0.70710678118654746 0.25 forward I I I I #
loop $-1 $-1 $210 $53 #
coedge $-1 $132 $132 $211 $212 reversed $83 $-1 #
face $-1 $-1 $213 $43 $-1 $214 forward single #
loop $-1 $215 $216 $85 #
cone-surface $-1 50.150452931757243 15.942262423536494 2.804336007351087 -0.68199836817093118 0 -0.7313536940579346 0.18283842351448365 0 -0.17049959204273279 1 I I -0.70710678118654746 0.70710678118654746 0.25 forward I I I I #
loop $-1 $-1 $217 $54 #
coedge $-1 $137 $137 $218 $219 reversed $86 $-1 #
face $-1 $220 $221 $33 $-1 $222 reversed single #
loop $-1 $-1 $223 $88 #
plane-surface $-1 0 -25.759037169163005 0 0 1 0 0 0 1 forward_v I I I I #
coedge $-1 $224 $225 $226 $227 forward $89 $-1 #
coedge $-1 $228 $91 $229 $230 forward $56 $-1 #
coedge $-1 $91 $228 $231 $232 forward $56 $-1 #
coedge $-1 $233 $234 $91 $145 reversed $235 $-1 #
edge $-1 $236 -25.759037169163005 $237 25.759037169163005 $144 $238 forward 7 unknown #
face $-1 $239 $240 $34 $-1 $241 reversed single #
loop $-1 $-1 $242 $92 #
plane-surface $-1 0 -20.732056653435432 2.3427243327762346 0 -1 0 0 0 -1 forward_v I I I I #
coedge $-1 $243 $244 $245 $246 reversed $93 $-1 #
coedge $-1 $247 $95 $248 $249 forward $59 $-1 #
coedge $-1 $95 $247 $250 $251 reversed $59 $-1 #
coedge $-1 $252 $253 $95 $153 forward $254 $-1 #
edge $-1 $255 9.1092831977858228 $256 14.136263713513396 $152 $257 forward 7 unknown #
face $-1 $258 $259 $35 $-1 $260 reversed single #
loop $-1 $-1 $261 $96 #
plane-surface $-1 0 25.759037169163005 0 0 -1 0 0 0 -1 forward_v I I I I #
coedge $-1 $262 $263 $264 $265 forward $97 $-1 #
coedge $-1 $264 $99 $266 $267 reversed $62 $-1 #
coedge $-1 $99 $264 $268 $269 reversed $62 $-1 #
coedge $-1 $270 $271 $99 $161 forward $272 $-1 #
edge $-1 $273 -7.4302405350437324 $274 7.4302405350437324 $160 $275 forward 7 unknown #
face $-1 $276 $277 $36 $-1 $278 forward single #
loop $-1 $-1 $279 $100 #
plane-surface $-1 -53.407681508835111 18.265634940994143 0 0 1 0 0 0 1 forward_v I I I I #
coedge $-1 $280 $281 $282 $283 reversed $101 $-1 #
coedge $-1 $284 $103 $279 $285 reversed $65 $-1 #
coedge $-1 $103 $284 $280 $286 forward $65 $-1 #
coedge $-1 $282 $287 $103 $169 forward $288 $-1 #
edge $-1 $289 -12.037033117319135 $290 -0.42017053003088201 $168 $291 forward 7 unknown #
loop $-1 $-1 $175 $104 #
plane-surface $-1 -54.907681508835083 12.457203647350017 1.0878541015339067 -0.68199836817093118 0 0.7313536940579346 0.7313536940579346 0 0.68199836817093118 forward_v I I I I #
loop $-1 $-1 $292 $67 #
coedge $-1 $173 $173 $174 $293 reversed $105 $-1 #
coedge $-1 $174 $174 $173 $293 forward $107 $-1 #
coedge $-1 $175 $175 $108 $176 forward $170 $-1 #
edge $-1 $294 0 $294 6.2831853071796004 $175 $295 forward 7 unknown #
loop $-1 $-1 $182 $109 #
plane-surface $-1 -54.907681508835083 12.457203647350017 1.0878541015339067 -0.68199836817093118 0 0.7313536940579346 0.7313536940579346 0 0.68199836817093118 forward_v I I I I #
loop $-1 $-1 $296 $70 #
coedge $-1 $180 $180 $181 $297 reversed $110 $-1 #
coedge $-1 $181 $181 $180 $297 forward $112 $-1 #
coedge $-1 $182 $182 $113 $183 forward $177 $-1 #
edge $-1 $298 0 $298 6.2831853071796004 $182 $299 forward 7 unknown #
loop $-1 $-1 $189 $114 #
plane-surface $-1 -54.907681508835083 12.457203647350017 1.0878541015339067 -0.68199836817093118 0 0.7313536940579346 0.7313536940579346 0 0.68199836817093118 forward_v I I I I #
loop $-1 $-1 $300 $73 #
coedge $-1 $187 $187 $188 $301 reversed $115 $-1 #
coedge $-1 $188 $188 $187 $301 forward $117 $-1 #
coedge $-1 $189 $189 $118 $190 forward $184 $-1 #
edge $-1 $302 0 $302 6.2831853071796004 $189 $303 forward 7 unknown #
face $-1 $304 $305 $40 $-1 $306 reversed single #
loop $-1 $-1 $307 $119 #
plane-surface $-1 49.487708479698398 6.6487723537058905 156.29562388696962 0 1 0 0.68199836817093118 0 0.7313536940579346 forward_v I I I I #
coedge $-1 $308 $309 $310 $311 reversed $120 $-1 #
coedge $-1 $196 $122 $312 $313 reversed $77 $-1 #
coedge $-1 $122 $195 $308 $314 reversed $77 $-1 #
coedge $-1 $310 $315 $122 $198 forward $316 $-1 #
edge $-1 $317 -30.163827268985912 $318 -23.362450661985292 $197 $319 forward 7 unknown #
loop $-1 $-1 $204 $123 #
plane-surface $-1 -25.406189898451117 12.457203647350017 75.981752479683408 0.68199836817093118 0 0.7313536940579346 0.7313536940579346 0 -0.68199836817093118 forward_v I I I I #
loop $-1 $-1 $320 $79 #
coedge $-1 $202 $202 $203 $321 reversed $124 $-1 #
coedge $-1 $203 $203 $202 $321 forward $126 $-1 #
coedge $-1 $204 $204 $127 $205 forward $199 $-1 #
edge $-1 $322 0 $322 6.2831853071796004 $204 $323 forward 7 unknown #
loop $-1 $-1 $211 $128 #
plane-surface $-1 -25.406189898451117 12.457203647350017 75.981752479683408 0.68199836817093118 0 0.7313536940579346 0.7313536940579346 0 -0.68199836817093118 forward_v I I I I #
loop $-1 $-1 $324 $82 #
coedge $-1 $209 $209 $210 $325 reversed $129 $-1 #
coedge $-1 $210 $210 $209 $325 forward $131 $-1 #
coedge $-1 $211 $211 $132 $212 forward $206 $-1 #
edge $-1 $326 0 $326 6.2831853071796004 $211 $327 forward 7 unknown #
loop $-1 $-1 $218 $133 #
plane-surface $-1 -25.406189898451117 12.457203647350017 75.981752479683408 0.68199836817093118 0 0.7313536940579346 0.7313536940579346 0 -0.68199836817093118 forward_v I I I I #
loop $-1 $-1 $328 $85 #
coedge $-1 $216 $216 $217 $329 reversed $134 $-1 #
coedge $-1 $217 $217 $216 $329 forward $136 $-1 #
coedge $-1 $218 $218 $137 $219 forward $213 $-1 #
edge $-1 $330 0 $330 6.2831853071796004 $218 $331 forward 7 unknown #
face $-1 $332 $333 $33 $-1 $334 reversed single #
loop $-1 $-1 $335 $138 #
plane-surface $-1 -54.907681508835111 0 0 1 0 0 0 0 -1 forward_v I I I I #
coedge $-1 $336 $231 $337 $338 forward $139 $-1 #
coedge $-1 $339 $141 $336 $340 forward $89 $-1 #
coedge $-1 $141 $339 $341 $342 forward $89 $-1 #
coedge $-1 $234 $233 $141 $227 reversed $235 $-1 #
edge $-1 $343 -25.759037169163005 $344 25.759037169163005 $226 $345 forward 7 unknown #
coedge $-1 $143 $142 $346 $347 forward $56 $-1 #
coedge $-1 $348 $349 $142 $230 reversed $333 $-1 #
edge $-1 $237 -54.907681508835111 $350 54.907681508835111 $229 $351 forward 7 unknown #
coedge $-1 $223 $352 $143 $232 reversed $139 $-1 #
edge $-1 $353 -54.907681508835111 $236 54.907681508835111 $231 $354 forward 7 unknown #
coedge $-1 $226 $144 $352 $355 forward $235 $-1 #
coedge $-1 $144 $226 $348 $356 reversed $235 $-1 #
loop $-1 $-1 $233 $332 #
vertex $-1 $145 $357 #
vertex $-1 $145 $358 #
straight-curve $-1 54.907681508835111 0 7.4302405350437324 0 1 0 I I #
face $-1 $359 $360 $34 $-1 $361 reversed single #
loop $-1 $-1 $362 $146 #
plane-surface $-1 -54.907681508835111 0 0 1 0 0 0 0 -1 forward_v I I I I #
coedge $-1 $363 $248 $253 $364 reversed $147 $-1 #
coedge $-1 $365 $149 $366 $367 reversed $93 $-1 #
coedge $-1 $149 $365 $363 $368 forward $93 $-1 #
coedge $-1 $253 $252 $149 $246 forward $254 $-1 #
edge $-1 $369 -14.136263713513396 $370 -9.1092831977858228 $245 $371 forward 7 unknown #
coedge $-1 $151 $150 $362 $372 reversed $59 $-1 #
coedge $-1 $242 $373 $150 $249 reversed $147 $-1 #
edge $-1 $255 -54.907681508835111 $374 54.907681508835111 $248 $375 forward 7 unknown #
coedge $-1 $376 $377 $151 $251 forward $360 $-1 #
edge $-1 $256 -54.907681508835111 $378 54.907681508835111 $250 $379 forward 7 unknown #
coedge $-1 $245 $152 $377 $380 forward $254 $-1 #
coedge $-1 $152 $245 $242 $364 forward $254 $-1 #
loop $-1 $-1 $152 $359 #
vertex $-1 $153 $381 #
vertex $-1 $380 $382 #
straight-curve $-1 54.907681508835111 -11.622773455649609 4.0592284917813481 0 -1 0 I I #
face $-1 $383 $384 $35 $-1 $385 forward single #
loop $-1 $-1 $386 $154 #
plane-surface $-1 0 0 -7.4302405350437324 0 0 1 1 0 0 forward_v I I I I #
coedge $-1 $387 $388 $389 $390 forward $155 $-1 #
coedge $-1 $389 $157 $386 $391 reversed $97 $-1 #
coedge $-1 $157 $389 $392 $393 reversed $97 $-1 #
coedge $-1 $159 $158 $157 $265 reversed $62 $-1 #
edge $-1 $394 -7.4302405350437324 $395 7.4302405350437324 $157 $396 forward 7 unknown #
coedge $-1 $397 $386 $158 $267 forward $259 $-1 #
edge $-1 $395 25.203840754417556 $273 28.203840754417556 $266 $398 forward 7 unknown #
coedge $-1 $392 $399 $159 $269 forward $384 $-1 #
edge $-1 $274 -28.203840754417556 $394 -25.203840754417556 $268 $400 forward 7 unknown #
coedge $-1 $401 $160 $399 $402 reversed $272 $-1 #
coedge $-1 $160 $401 $397 $403 reversed $272 $-1 #
loop $-1 $-1 $160 $383 #
vertex $-1 $403 $404 #
vertex $-1 $161 $405 #
straight-curve $-1 -54.907681508835111 18.265634940994143 0 0 0 1 I I #
face $-1 $-1 $288 $36 $-1 $406 reversed single #
loop $-1 $-1 $407 $162 #
plane-surface $-1 0 0 7.4302405350437324 0 0 1 1 0 0 forward_v I I I I #
coedge $-1 $408 $409 $166 $285 forward $163 $-1 #
coedge $-1 $281 $165 $167 $286 reversed $101 $-1 #
coedge $-1 $165 $280 $410 $411 reversed $101 $-1 #
coedge $-1 $412 $168 $165 $283 forward $288 $-1 #
edge $-1 $290 -39.613008652876182 $413 -33.270622219366331 $282 $414 forward 7 unknown #
coedge $-1 $167 $166 $415 $416 reversed $65 $-1 #
edge $-1 $417 -9.1221511946558955 $289 0.17755790951638833 $279 $418 forward 7 unknown #
edge $-1 $419 -9.2997091041722459 $290 3.8806975111550835e-014 $280 $420 forward 7 unknown #
coedge $-1 $168 $412 $408 $421 forward $288 $-1 #
loop $-1 $-1 $282 $276 #
vertex $-1 $285 $422 #
vertex $-1 $169 $423 #
straight-curve $-1 -54.907681508835111 6.2286018236750085 1.0878541015338832 0 -1 0 I I #
coedge $-1 $292 $292 $-1 $424 reversed $172 $-1 #
edge $-1 $425 0 $425 6.2831853071796004 $173 $426 forward 7 unknown #
vertex $-1 $176 $427 #
ellipse-curve $-1 -51.506993205334808 8.9721448711635396 4.2590473182888076 -0.68199836817093118 0 0.7313536940579346 0.3656768470289673 0 0.34099918408546559 1 I I #
coedge $-1 $296 $296 $-1 $428 reversed $179 $-1 #
edge $-1 $429 0 $429 6.2831853071796004 $180 $430 forward 7 unknown #
vertex $-1 $183 $431 #
ellipse-curve $-1 -51.506993205334808 12.457203647350017 4.2590473182888076 -0.68199836817093118 0 0.7313536940579346 0.3656768470289673 0 0.34099918408546559 1 I I #
coedge $-1 $300 $300 $-1 $432 reversed $186 $-1 #
edge $-1 $433 0 $433 6.2831853071796004 $187 $434 forward 7 unknown #
vertex $-1 $190 $435 #
ellipse-curve $-1 -51.506993205334808 15.942262423536494 4.2590473182888076 -0.68199836817093118 0 0.7313536940579346 0.3656768470289673 0 0.34099918408546559 1 I I #
face $-1 $-1 $316 $40 $-1 $436 forward single #
loop $-1 $-1 $437 $191 #
plane-surface $-1 54.907681508835111 0 0 -1 0 0 0 0 1 forward_v I I I I #
coedge $-1 $438 $439 $440 $441 reversed $192 $-1 #
coedge $-1 $442 $194 $196 $314 forward $120 $-1 #
coedge $-1 $194 $442 $438 $443 forward $120 $-1 #
coedge $-1 $440 $197 $194 $311 forward $316 $-1 #
edge $-1 $318 -12.037033117319135 $444 -0.42017053003088201 $310 $445 forward 7 unknown #
coedge $-1 $446 $447 $195 $313 forward $305 $-1 #
edge $-1 $448 -77.059957841950933 $317 -70.717571408441074 $312 $449 forward 7 unknown #
edge $-1 $318 100.51565391349794 $448 109.81536301767025 $196 $450 forward 7 unknown #
coedge $-1 $197 $440 $446 $451 forward $316 $-1 #
loop $-1 $-1 $440 $304 #
vertex $-1 $313 $452 #
vertex $-1 $198 $453 #
straight-curve $-1 24.743854239849199 18.265634940994143 7.4302405350437368 -1 0 0 I I #
coedge $-1 $320 $320 $-1 $454 reversed $201 $-1 #
edge $-1 $455 0 $455 6.2831853071796004 $202 $456 forward 7 unknown #
vertex $-1 $205 $457 #
ellipse-curve $-1 51.506993205334808 8.9721448711635396 4.2590473182887996 0.68199836817093118 0 0.7313536940579346 0.3656768470289673 0 -0.34099918408546559 1 I I #
coedge $-1 $324 $324 $-1 $458 reversed $208 $-1 #
edge $-1 $459 0 $459 6.2831853071796004 $209 $460 forward 7 unknown #
vertex $-1 $212 $461 #
ellipse-curve $-1 51.506993205334808 12.457203647350017 4.2590473182887996 0.68199836817093118 0 0.7313536940579346 0.3656768470289673 0 -0.34099918408546559 1 I I #
coedge $-1 $328 $328 $-1 $462 reversed $215 $-1 #
edge $-1 $463 0 $463 6.2831853071796004 $216 $464 forward 7 unknown #
vertex $-1 $219 $465 #
ellipse-curve $-1 51.506993205334808 15.942262423536494 4.2590473182887996 0.68199836817093118 0 0.7313536940579346 0.3656768470289673 0 -0.34099918408546559 1 I I #
face $-1 $-1 $235 $33 $-1 $466 reversed single #
loop $-1 $-1 $348 $220 #
plane-surface $-1 0 25.759037169163005 0 0 -1 0 0 0 -1 forward_v I I I I #
coedge $-1 $467 $346 $349 $468 forward $221 $-1 #
coedge $-1 $352 $223 $224 $340 reversed $139 $-1 #
coedge $-1 $346 $467 $223 $338 reversed $221 $-1 #
edge $-1 $353 -7.4302405350437324 $469 7.4302405350437324 $337 $470 forward 7 unknown #
coedge $-1 $225 $224 $467 $471 forward $89 $-1 #
edge $-1 $344 -54.907681508835111 $469 54.907681508835111 $336 $472 forward 7 unknown #
coedge $-1 $349 $348 $225 $342 reversed $333 $-1 #
edge $-1 $473 -54.907681508835111 $343 54.907681508835111 $341 $474 forward 7 unknown #
vertex $-1 $227 $475 #
vertex $-1 $355 $476 #
straight-curve $-1 54.907681508835111 0 -7.4302405350437324 0 -1 0 I I #
coedge $-1 $335 $337 $228 $347 reversed $221 $-1 #
edge $-1 $350 -25.759037169163005 $353 25.759037169163005 $346 $477 forward 7 unknown #
coedge $-1 $341 $229 $234 $356 forward $333 $-1 #
coedge $-1 $229 $341 $335 $468 reversed $333 $-1 #
vertex $-1 $230 $478 #
straight-curve $-1 0 25.759037169163005 7.4302405350437324 -1 0 0 I I #
coedge $-1 $231 $336 $233 $355 reversed $139 $-1 #
vertex $-1 $347 $479 #
straight-curve $-1 0 -25.759037169163005 7.4302405350437324 1 0 0 I I #
edge $-1 $236 -7.4302405350437324 $344 7.4302405350437324 $233 $480 forward 7 unknown #
edge $-1 $237 -7.4302405350437324 $343 7.4302405350437324 $234 $481 forward 7 unknown #
point $-1 54.907681508835111 -25.759037169163005 7.4302405350437324 #
point $-1 54.907681508835111 25.759037169163005 7.4302405350437324 #
face $-1 $-1 $254 $34 $-1 $482 reversed single #
loop $-1 $-1 $250 $239 #
plane-surface $-1 0 -25.759037169163005 0 0 1 0 0 0 1 forward_v I I I I #
coedge $-1 $483 $484 $247 $372 forward $240 $-1 #
coedge $-1 $373 $242 $244 $368 reversed $147 $-1 #
edge $-1 $370 -0.54514199261699625 $255 2.8878663253932308 $253 $485 forward 7 unknown #
coedge $-1 $244 $243 $486 $487 reversed $93 $-1 #
coedge $-1 $377 $376 $243 $367 forward $360 $-1 #
edge $-1 $488 -54.907681508835111 $369 54.907681508835111 $366 $489 forward 7 unknown #
edge $-1 $490 -54.907681508835111 $370 54.907681508835111 $363 $491 forward 7 unknown #
vertex $-1 $367 $492 #
vertex $-1 $246 $493 #
straight-curve $-1 54.907681508835111 -11.622773455649609 0.62622017377112105 0 1 0 I I #
edge $-1 $378 -14.136263713513396 $374 -9.1092831977858228 $362 $494 forward 7 unknown #
coedge $-1 $248 $363 $483 $495 reversed $147 $-1 #
vertex $-1 $372 $496 #
straight-curve $-1 0 -20.732056653435432 4.0592284917813481 -1 0 0 I I #
coedge $-1 $366 $250 $484 $497 forward $360 $-1 #
coedge $-1 $250 $366 $252 $380 reversed $360 $-1 #
vertex $-1 $497 $498 #
straight-curve $-1 0 -25.759037169163005 4.0592284917813481 -1 0 0 I I #
edge $-1 $256 -4.0592284917813481 $369 -0.62622017377112105 $252 $499 forward 7 unknown #
point $-1 54.907681508835111 -20.732056653435432 4.0592284917813481 #
point $-1 54.907681508835111 -25.759037169163005 4.0592284917813481 #
face $-1 $-1 $272 $35 $-1 $500 reversed single #
loop $-1 $-1 $392 $258 #
plane-surface $-1 0 0 7.4302405350437324 0 0 1 1 0 0 forward_v I I I I #
coedge $-1 $266 $501 $262 $391 forward $259 $-1 #
coedge $-1 $502 $261 $501 $503 reversed $155 $-1 #
coedge $-1 $261 $502 $504 $505 reversed $155 $-1 #
coedge $-1 $263 $262 $261 $390 reversed $97 $-1 #
edge $-1 $506 -7.4302405350437324 $507 7.4302405350437324 $261 $508 forward 7 unknown #
edge $-1 $507 -14.752869141623718 $395 -7.2594669134548564 $386 $509 forward 7 unknown #
coedge $-1 $504 $268 $263 $393 forward $384 $-1 #
edge $-1 $394 7.2594669134548564 $506 14.752869141623718 $392 $510 forward 7 unknown #
vertex $-1 $269 $511 #
vertex $-1 $267 $512 #
straight-curve $-1 -51.907681508835111 18.265634940994143 0 0 0 -1 I I #
coedge $-1 $501 $266 $271 $403 forward $259 $-1 #
straight-curve $-1 -26.703840754417556 18.265634940994143 -7.4302405350437324 -1 0 0 I I #
coedge $-1 $268 $504 $270 $402 forward $384 $-1 #
straight-curve $-1 -26.703840754417556 18.265634940994143 7.4302405350437324 1 0 0 I I #
coedge $-1 $271 $270 $502 $513 forward $272 $-1 #
edge $-1 $514 -25.759037169163005 $274 -18.265634940994143 $270 $515 forward 7 unknown #
edge $-1 $273 18.265634940994143 $516 25.759037169163005 $271 $517 forward 7 unknown #
point $-1 -54.907681508835111 18.265634940994143 -7.4302405350437324 #
point $-1 -54.907681508835111 18.265634940994143 7.4302405350437324 #
plane-surface $-1 -54.907681508835111 0 0 1 0 0 0 0 -1 forward_v I I I I #
coedge $-1 $518 $415 $409 $519 forward $277 $-1 #
coedge $-1 $409 $279 $287 $421 reversed $163 $-1 #
coedge $-1 $279 $408 $407 $519 reversed $163 $-1 #
coedge $-1 $415 $518 $281 $411 forward $277 $-1 #
edge $-1 $413 9.9931084346571879 $419 16.794485041657794 $410 $520 forward 7 unknown #
coedge $-1 $287 $282 $518 $521 reversed $288 $-1 #
vertex $-1 $283 $522 #
straight-curve $-1 -54.907681508835111 6.6487723537058905 40.700862754410061 0 0 1 I I #
coedge $-1 $407 $410 $284 $416 forward $277 $-1 #
edge $-1 $419 0.42017053003088201 $417 12.037033117319135 $415 $523 forward 7 unknown #
vertex $-1 $519 $524 #
straight-curve $-1 -54.777823875801097 18.265634940994143 1.2089483060799 -0.7313536940579346 0 -0.68199836817093118 I I #
vertex $-1 $416 $525 #
straight-curve $-1 -54.907681508835083 6.6487723537058905 1.0878541015339067 -0.7313536940579346 0 -0.68199836817093118 I I #
edge $-1 $526 -7.4302405350437324 $289 -1.0878541015338801 $287 $527 forward 7 unknown #
point $-1 -54.907681508835111 18.265634940994143 1.0878541015338801 #
point $-1 -54.907681508835111 6.6487723537058905 1.0878541015338803 #
edge $-1 $528 1 $528 0 $292 $-1 forward 7 unknown #
vertex $-1 $293 $529 #
ellipse-curve $-1 -50.320952523799974 8.9721448711635396 2.987174430865585 -0.68199836817093118 0 0.7313536940579346 0.3656768470289673 0 0.34099918408546559 1 I I #
point $-1 -51.141316358305858 8.9721448711635396 4.6000465023742922 #
edge $-1 $530 1 $530 0 $296 $-1 forward 7 unknown #
vertex $-1 $297 $531 #
ellipse-curve $-1 -50.320952523799974 12.457203647350017 2.987174430865585 -0.68199836817093118 0 0.7313536940579346 0.3656768470289673 0 0.34099918408546559 1 I I #
point $-1 -51.141316358305858 12.457203647350017 4.6000465023742922 #
edge $-1 $532 1 $532 0 $300 $-1 forward 7 unknown #
vertex $-1 $301 $533 #
ellipse-curve $-1 -50.320952523799974 15.942262423536494 2.987174430865585 -0.68199836817093118 0 0.7313536940579346 0.3656768470289673 0 0.34099918408546559 1 I I #
point $-1 -51.141316358305858 15.942262423536494 4.6000465023742922 #
plane-surface $-1 0 0 7.4302405350437324 0 0 1 1 0 0 forward_v I I I I #
coedge $-1 $447 $446 $439 $534 forward $305 $-1 #
coedge $-1 $439 $307 $309 $443 reversed $192 $-1 #
coedge $-1 $307 $438 $437 $534 reversed $192 $-1 #
coedge $-1 $315 $310 $307 $441 forward $316 $-1 #
edge $-1 $444 23.362450661985292 $535 30.163827268985912 $440 $536 forward 7 unknown #
coedge $-1 $309 $308 $447 $537 reversed $120 $-1 #
edge $-1 $538 -109.81536301767025 $444 -100.51565391349794 $438 $539 forward 7 unknown #
vertex $-1 $311 $540 #
straight-curve $-1 48.106304901834505 6.2286018236750085 7.4302405350437297 0 -1 0 I I #
coedge $-1 $437 $312 $315 $451 reversed $305 $-1 #
coedge $-1 $312 $437 $442 $537 forward $305 $-1 #
vertex $-1 $313 $541 #
straight-curve $-1 54.907681508835111 18.265634940994143 78.147811943484811 0 0 1 I I #
straight-curve $-1 -25.406189898451117 18.265634940994143 75.981752479683408 0.7313536940579346 0 -0.68199836817093118 I I #
edge $-1 $535 6.6487723537058905 $317 18.265634940994143 $446 $542 forward 7 unknown #
point $-1 54.907681508835111 18.265634940994143 7.4302405350437324 #
point $-1 48.106304901834491 18.265634940994143 7.4302405350437368 #
edge $-1 $543 1 $543 0 $320 $-1 forward 7 unknown #
vertex $-1 $321 $544 #
ellipse-curve $-1 50.320952523799974 8.9721448711635396 2.9871744308655708 0.68199836817093118 0 0.7313536940579346 0.3656768470289673 0 -0.34099918408546559 1 I I #
point $-1 51.872670052363787 8.9721448711635396 3.9180481342033469 #
edge $-1 $545 1 $545 0 $324 $-1 forward 7 unknown #
vertex $-1 $325 $546 #
ellipse-curve $-1 50.320952523799974 12.457203647350017 2.9871744308655708 0.68199836817093118 0 0.7313536940579346 0.3656768470289673 0 -0.34099918408546559 1 I I #
point $-1 51.872670052363787 12.457203647350017 3.9180481342033469 #
edge $-1 $547 1 $547 0 $328 $-1 forward 7 unknown #
vertex $-1 $329 $548 #
ellipse-curve $-1 50.320952523799974 15.942262423536494 2.9871744308655708 0.68199836817093118 0 0.7313536940579346 0.3656768470289673 0 -0.34099918408546559 1 I I #
point $-1 51.872670052363787 15.942262423536494 3.9180481342033469 #
plane-surface $-1 54.907681508835111 0 0 -1 0 0 0 0 1 forward_v I I I I #
coedge $-1 $337 $335 $339 $471 reversed $221 $-1 #
edge $-1 $350 -7.4302405350437324 $473 7.4302405350437324 $349 $549 forward 7 unknown #
vertex $-1 $471 $550 #
straight-curve $-1 -54.907681508835111 -25.759037169163005 0 0 0 -1 I I #
edge $-1 $469 -25.759037169163005 $473 25.759037169163005 $467 $551 forward 7 unknown #
straight-curve $-1 0 -25.759037169163005 -7.4302405350437324 -1 0 0 I I #
vertex $-1 $342 $552 #
straight-curve $-1 0 25.759037169163005 -7.4302405350437324 1 0 0 I I #
point $-1 54.907681508835111 25.759037169163005 -7.4302405350437324 #
point $-1 54.907681508835111 -25.759037169163005 -7.4302405350437324 #
straight-curve $-1 -54.907681508835111 0 7.4302405350437324 0 -1 0 I I #
point $-1 -54.907681508835111 25.759037169163005 7.4302405350437324 #
point $-1 -54.907681508835111 -25.759037169163005 7.4302405350437324 #
straight-curve $-1 54.907681508835111 -25.759037169163005 0 0 0 -1 I I #
straight-curve $-1 54.907681508835111 25.759037169163005 0 0 0 -1 I I #
plane-surface $-1 54.907681508835111 0 0 -1 0 0 0 0 1 forward_v I I I I #
coedge $-1 $486 $362 $373 $495 forward $240 $-1 #
coedge $-1 $362 $486 $376 $497 reversed $240 $-1 #
straight-curve $-1 54.907681508835111 -20.732056653435432 1.1713621663881173 0 0 1 I I #
coedge $-1 $484 $483 $365 $487 forward $240 $-1 #
edge $-1 $490 9.1092831977858228 $488 14.136263713513396 $486 $553 forward 7 unknown #
vertex $-1 $367 $554 #
straight-curve $-1 0 -25.759037169163005 0.62622017377112105 1 0 0 I I #
vertex $-1 $487 $555 #
straight-curve $-1 0 -20.732056653435432 0.62622017377112105 1 0 0 I I #
point $-1 54.907681508835111 -25.759037169163005 0.62622017377112105 #
point $-1 54.907681508835111 -20.732056653435432 0.62622017377112105 #
straight-curve $-1 -54.907681508835111 -11.622773455649609 4.0592284917813481 0 1 0 I I #
edge $-1 $374 -2.8878663253932308 $490 0.54514199261699625 $483 $556 forward 7 unknown #
point $-1 -54.907681508835111 -20.732056653435432 4.0592284917813481 #
edge $-1 $378 -4.0592284917813481 $488 -0.62622017377112105 $484 $557 forward 7 unknown #
point $-1 -54.907681508835111 -25.759037169163005 4.0592284917813481 #
straight-curve $-1 54.907681508835111 -25.759037169163005 0 0 0 -1 I I #
plane-surface $-1 -54.907681508835111 0 0 1 0 0 0 0 -1 forward_v I I I I #
coedge $-1 $386 $397 $387 $503 forward $259 $-1 #
coedge $-1 $388 $387 $401 $513 reversed $155 $-1 #
edge $-1 $516 -54.907681508835111 $507 -51.907681508835111 $387 $558 forward 7 unknown #
coedge $-1 $399 $392 $388 $505 forward $384 $-1 #
edge $-1 $506 51.907681508835111 $514 54.907681508835111 $388 $559 forward 7 unknown #
vertex $-1 $505 $560 #
vertex $-1 $391 $561 #
straight-curve $-1 -51.907681508835111 25.759037169163005 0 0 0 -1 I I #
straight-curve $-1 -51.907681508835111 11.006168027539287 -7.4302405350437324 0 -1 0 I I #
straight-curve $-1 -51.907681508835111 11.006168027539287 7.4302405350437324 0 1 0 I I #
point $-1 -51.907681508835111 18.265634940994143 7.4302405350437324 #
point $-1 -51.907681508835111 18.265634940994143 -7.4302405350437324 #
edge $-1 $514 -7.4302405350437324 $516 7.4302405350437324 $502 $562 forward 7 unknown #
vertex $-1 $505 $563 #
straight-curve $-1 -54.907681508835111 0 7.4302405350437324 0 -1 0 I I #
vertex $-1 $503 $564 #
straight-curve $-1 -54.907681508835111 0 -7.4302405350437324 0 1 0 I I #
coedge $-1 $410 $407 $412 $521 forward $277 $-1 #
edge $-1 $417 21.40246414741695 $526 28.203840754417556 $407 $565 forward 7 unknown #
straight-curve $-1 -64.900789943492299 6.6487723537058905 7.4302405350437297 1 0 0 I I #
edge $-1 $526 -18.265634940994143 $413 -6.6487723537058905 $412 $566 forward 7 unknown #
point $-1 -54.907681508835111 6.6487723537058905 7.4302405350437324 #
straight-curve $-1 -48.106304901834498 6.2286018236750085 7.4302405350437333 0 1 0 I I #
point $-1 -48.106304901834505 18.265634940994143 7.4302405350437315 #
point $-1 -48.106304901834505 6.6487723537058905 7.4302405350437315 #
vertex $-1 $521 $567 #
straight-curve $-1 -54.907681508835111 18.265634940994143 0 0 0 -1 I I #
vertex $-1 $424 $568 #
point $-1 -49.955275676771009 8.9721448711635396 3.3281736149510506 #
vertex $-1 $428 $569 #
point $-1 -49.955275676771009 12.457203647350017 3.3281736149510506 #
vertex $-1 $432 $570 #
point $-1 -49.955275676771009 15.942262423536494 3.3281736149510506 #
edge $-1 $535 70.717571408441074 $538 77.059957841950933 $437 $571 forward 7 unknown #
vertex $-1 $451 $572 #
straight-curve $-1 24.743854239849199 6.6487723537058905 7.4302405350437368 1 0 0 I I #
edge $-1 $538 0.42017053003088201 $448 12.037033117319135 $447 $573 forward 7 unknown #
vertex $-1 $537 $574 #
straight-curve $-1 -25.406189898451117 6.6487723537058905 75.981752479683408 -0.7313536940579346 0 0.68199836817093118 I I #
point $-1 48.106304901834491 6.6487723537058905 7.4302405350437368 #
point $-1 54.907681508835111 18.265634940994143 1.0878541015338783 #
straight-curve $-1 54.907681508835111 0 7.4302405350437324 0 1 0 I I #
vertex $-1 $454 $575 #
point $-1 50.686629370828946 8.9721448711635396 2.6461752467801052 #
vertex $-1 $458 $576 #
point $-1 50.686629370828946 12.457203647350017 2.6461752467801052 #
vertex $-1 $462 $577 #
point $-1 50.686629370828946 15.942262423536494 2.6461752467801052 #
straight-curve $-1 -54.907681508835111 25.759037169163005 0 0 0 -1 I I #
point $-1 -54.907681508835111 -25.759037169163005 -7.4302405350437324 #
straight-curve $-1 -54.907681508835111 0 -7.4302405350437324 0 1 0 I I #
point $-1 -54.907681508835111 25.759037169163005 -7.4302405350437324 #
straight-curve $-1 -54.907681508835111 -11.622773455649609 0.62622017377112105 0 -1 0 I I #
point $-1 -54.907681508835111 -25.759037169163005 0.62622017377112105 #
point $-1 -54.907681508835111 -20.732056653435432 0.62622017377112105 #
straight-curve $-1 -54.907681508835111 -20.732056653435432 1.1713621663881173 0 0 -1 I I #
straight-curve $-1 -54.907681508835111 -25.759037169163005 0 0 0 -1 I I #
straight-curve $-1 0 25.759037169163005 -7.4302405350437324 1 0 0 I I #
straight-curve $-1 0 25.759037169163005 7.4302405350437324 -1 0 0 I I #
point $-1 -51.907681508835111 25.759037169163005 7.4302405350437324 #
point $-1 -51.907681508835111 25.759037169163005 -7.4302405350437324 #
straight-curve $-1 -54.907681508835111 25.759037169163005 0 0 0 -1 I I #
point $-1 -54.907681508835111 25.759037169163005 7.4302405350437324 #
point $-1 -54.907681508835111 25.759037169163005 -7.4302405350437324 #
straight-curve $-1 -26.703840754417556 18.265634940994143 7.4302405350437324 -1 0 0 I I #
straight-curve $-1 -54.907681508835111 0 7.4302405350437324 0 -1 0 I I #
point $-1 -54.907681508835111 18.265634940994143 7.4302405350437324 #
point $-1 -49.979953339714513 8.9721448711635396 2.6214975838366175 #
point $-1 -49.979953339714513 12.457203647350017 2.6214975838366175 #
point $-1 -49.979953339714513 15.942262423536494 2.6214975838366175 #
straight-curve $-1 54.907681508835111 6.6487723537058905 78.147811943484811 0 0 -1 I I #
point $-1 54.907681508835111 6.6487723537058905 7.4302405350437324 #
straight-curve $-1 54.907681508835111 6.2286018236750085 1.0878541015338783 0 1 0 I I #
point $-1 54.907681508835111 6.6487723537058905 1.0878541015338783 #
point $-1 49.979953339714513 8.9721448711635396 2.6214975838366033 #
point $-1 49.979953339714513 12.457203647350017 2.6214975838366033 #
point $-1 49.979953339714513 15.942262423536494 2.6214975838366033 #
End-of-ACIS-data 