500 0 19 0           
7 Unknown 11 ACIS 5.0 NT 24 Thu Mar 25 23:40:35 1999 
-1 9.9999999999999995e-007 1e-010 
body $-1 $19 $-1 $20 #
body $-1 $21 $-1 $22 #
body $-1 $23 $-1 $24 #
body $-1 $25 $-1 $26 #
body $-1 $27 $-1 $28 #
body $-1 $29 $-1 $30 #
body $-1 $31 $-1 $32 #
body $-1 $33 $-1 $34 #
body $-1 $35 $-1 $36 #
body $-1 $37 $-1 $38 #
body $-1 $39 $-1 $40 #
body $-1 $41 $-1 $42 #
body $-1 $43 $-1 $44 #
body $-1 $45 $-1 $46 #
body $-1 $47 $-1 $48 #
body $-1 $49 $-1 $50 #
body $-1 $51 $-1 $52 #
body $-1 $53 $-1 $54 #
body $-1 $55 $-1 $56 #
lump $-1 $-1 $57 $0 #
transform $-1 1 0 0 0 1 0 0 0 1 61.173741874446854 42.654155563642142 20.981856002119606 1 rotate no_reflect no_shear #
lump $-1 $-1 $58 $1 #
transform $-1 1 0 0 0 1 0 0 0 1 61.173741874446854 42.654155563642142 20.981856002119606 1 rotate no_reflect no_shear #
lump $-1 $-1 $59 $2 #
transform $-1 1 0 0 0 1 0 0 0 1 61.173741874446854 42.654155563642142 20.981856002119606 1 rotate no_reflect no_shear #
lump $-1 $-1 $60 $3 #
transform $-1 1 0 0 0 1 0 0 0 1 61.173741874446854 42.654155563642142 20.981856002119606 1 rotate no_reflect no_shear #
lump $-1 $-1 $61 $4 #
transform $-1 1 0 0 0 1 0 0 0 1 61.173741874446854 42.654155563642142 20.981856002119606 1 rotate no_reflect no_shear #
lump $-1 $-1 $62 $5 #
transform $-1 1 0 0 0 1 0 0 0 1 61.173741874446854 42.654155563642142 20.981856002119606 1 rotate no_reflect no_shear #
lump $-1 $-1 $63 $6 #
transform $-1 1 0 0 0 1 0 0 0 1 61.173741874446854 42.654155563642142 20.981856002119606 1 rotate no_reflect no_shear #
lump $-1 $-1 $64 $7 #
transform $-1 1 0 0 0 1 0 0 0 1 61.173741874446854 42.654155563642142 20.981856002119606 1 rotate no_reflect no_shear #
lump $-1 $-1 $65 $8 #
transform $-1 1 0 0 0 1 0 0 0 1 61.173741874446854 42.654155563642142 20.981856002119606 1 rotate no_reflect no_shear #
lump $-1 $-1 $66 $9 #
transform $-1 1 0 0 0 1 0 0 0 1 61.173741874446854 42.654155563642142 20.981856002119606 1 rotate no_reflect no_shear #
lump $-1 $-1 $67 $10 #
transform $-1 1 0 0 0 1 0 0 0 1 61.173741874446854 42.654155563642142 20.981856002119606 1 rotate no_reflect no_shear #
lump $-1 $-1 $68 $11 #
transform $-1 1 0 0 0 1 0 0 0 1 61.173741874446854 42.654155563642142 20.981856002119606 1 rotate no_reflect no_shear #
lump $-1 $-1 $69 $12 #
transform $-1 1 0 0 0 1 0 0 0 1 61.173741874446854 42.654155563642142 20.981856002119606 1 rotate no_reflect no_shear #
lump $-1 $-1 $70 $13 #
transform $-1 1 0 0 0 1 0 0 0 1 61.173741874446854 42.654155563642142 20.981856002119606 1 rotate no_reflect no_shear #
lump $-1 $-1 $71 $14 #
transform $-1 1 0 0 0 1 0 0 0 1 61.173741874446854 42.654155563642142 20.981856002119606 1 rotate no_reflect no_shear #
lump $-1 $-1 $72 $15 #
transform $-1 1 0 0 0 1 0 0 0 1 61.173741874446854 42.654155563642142 20.981856002119606 1 rotate no_reflect no_shear #
lump $-1 $-1 $73 $16 #
transform $-1 1 0 0 0 1 0 0 0 1 61.173741874446854 42.654155563642142 20.981856002119606 1 rotate no_reflect no_shear #
lump $-1 $-1 $74 $17 #
transform $-1 1 0 0 0 1 0 0 0 1 61.173741874446854 42.654155563642142 20.981856002119606 1 rotate no_reflect no_shear #
lump $-1 $-1 $75 $18 #
transform $-1 1 0 0 0 1 0 0 0 1 61.173741874446854 42.654155563642142 20.981856002119606 1 rotate no_reflect no_shear #
shell $-1 $-1 $-1 $76 $-1 $19 #
shell $-1 $-1 $-1 $77 $-1 $21 #
shell $-1 $-1 $-1 $78 $-1 $23 #
shell $-1 $-1 $-1 $79 $-1 $25 #
shell $-1 $-1 $-1 $80 $-1 $27 #
shell $-1 $-1 $-1 $81 $-1 $29 #
shell $-1 $-1 $-1 $82 $-1 $31 #
shell $-1 $-1 $-1 $83 $-1 $33 #
shell $-1 $-1 $-1 $84 $-1 $35 #
shell $-1 $-1 $-1 $85 $-1 $37 #
shell $-1 $-1 $-1 $86 $-1 $39 #
shell $-1 $-1 $-1 $87 $-1 $41 #
shell $-1 $-1 $-1 $88 $-1 $43 #
shell $-1 $-1 $-1 $89 $-1 $45 #
shell $-1 $-1 $-1 $90 $-1 $47 #
shell $-1 $-1 $-1 $91 $-1 $49 #
shell $-1 $-1 $-1 $92 $-1 $51 #
shell $-1 $-1 $-1 $93 $-1 $53 #
shell $-1 $-1 $-1 $94 $-1 $55 #
face $-1 $95 $96 $57 $-1 $97 forward single #
face $-1 $98 $99 $58 $-1 $100 reversed single #
face $-1 $101 $102 $59 $-1 $103 forward single #
face $-1 $104 $105 $60 $-1 $106 forward single #
face $-1 $107 $108 $61 $-1 $109 reversed single #
face $-1 $110 $111 $62 $-1 $112 forward single #
face $-1 $113 $114 $63 $-1 $115 forward single #
face $-1 $116 $117 $64 $-1 $118 reversed single #
face $-1 $119 $120 $65 $-1 $121 forward single #
face $-1 $122 $123 $66 $-1 $124 forward single #
face $-1 $125 $126 $67 $-1 $127 reversed single #
face $-1 $128 $129 $68 $-1 $130 forward single #
face $-1 $131 $132 $69 $-1 $133 forward single #
face $-1 $134 $135 $70 $-1 $136 reversed single #
face $-1 $137 $138 $71 $-1 $139 forward single #
face $-1 $140 $141 $72 $-1 $142 forward single #
face $-1 $143 $144 $73 $-1 $145 reversed single #
face $-1 $146 $147 $74 $-1 $148 forward single #
face $-1 $149 $150 $75 $-1 $151 forward single #
face $-1 $152 $153 $57 $-1 $154 reversed single #
loop $-1 $-1 $155 $76 #
plane-surface $-1 0 0 20.981856002119606 0 0 1 1 0 0 forward_v I I I I #
face $-1 $156 $157 $58 $-1 $158 reversed single #
loop $-1 $-1 $159 $77 #
plane-surface $-1 -131.34937650407159 -33.815267383921437 114.00543283740865 0 1 0 -0.57357644374324357 0 0.81915203911291934 forward_v I I I I #
face $-1 $160 $161 $59 $-1 $162 forward single #
loop $-1 $163 $164 $78 #
cone-surface $-1 -55.357670157162822 -30.247213211892763 16.416988601882583 0.57357644374324357 0 -0.81915203911291934 0.81915203911291934 0 0.57357644374324357 1 I I 0 1 1 forward I I I I #
face $-1 $165 $166 $60 $-1 $167 forward single #
loop $-1 $168 $169 $79 #
cone-surface $-1 -55.357670157162822 -24.895131953849749 16.416988601882583 0.57357644374324357 0 -0.81915203911291934 0.81915203911291934 0 0.57357644374324357 1 I I 0 1 1 forward I I I I #
face $-1 $170 $171 $61 $-1 $172 reversed single #
loop $-1 $-1 $173 $80 #
plane-surface $-1 -131.34937650407159 -15.434485662007264 114.00543283740865 0 1 0 -0.57357644374324357 0 0.81915203911291934 forward_v I I I I #
face $-1 $174 $175 $62 $-1 $176 forward single #
loop $-1 $177 $178 $81 #
cone-surface $-1 -55.357670157162822 -11.866431489978588 16.416988601882583 0.57357644374324357 0 -0.81915203911291934 0.81915203911291934 0 0.57357644374324357 1 I I 0 1 1 forward I I I I #
face $-1 $179 $180 $63 $-1 $181 forward single #
loop $-1 $182 $183 $82 #
cone-surface $-1 -55.357670157162822 -6.5143502319355733 16.416988601882583 0.57357644374324357 0 -0.81915203911291934 0.81915203911291934 0 0.57357644374324357 1 I I 0 1 1 forward I I I I #
face $-1 $184 $185 $64 $-1 $186 reversed single #
loop $-1 $-1 $187 $83 #
plane-surface $-1 -131.34937650407159 2.9462960599069046 114.00543283740865 0 1 0 -0.57357644374324357 0 0.81915203911291934 forward_v I I I I #
face $-1 $188 $189 $65 $-1 $190 forward single #
loop $-1 $191 $192 $84 #
cone-surface $-1 -55.357670157162822 6.5143502319355875 16.416988601882583 0.57357644374324357 0 -0.81915203911291934 0.81915203911291934 0 0.57357644374324357 1 I I 0 1 1 forward I I I I #
face $-1 $193 $194 $66 $-1 $195 forward single #
loop $-1 $196 $197 $85 #
cone-surface $-1 -55.357670157162822 11.866431489978602 16.416988601882583 0.57357644374324357 0 -0.81915203911291934 0.81915203911291934 0 0.57357644374324357 1 I I 0 1 1 forward I I I I #
face $-1 $198 $199 $67 $-1 $200 reversed single #
loop $-1 $-1 $201 $86 #
plane-surface $-1 -131.34937650407159 21.327077781821082 114.00543283740865 0 1 0 -0.57357644374324357 0 0.81915203911291934 forward_v I I I I #
face $-1 $202 $203 $68 $-1 $204 forward single #
loop $-1 $205 $206 $87 #
cone-surface $-1 -55.357670157162822 24.895131953849763 16.416988601882583 0.57357644374324357 0 -0.81915203911291934 0.81915203911291934 0 0.57357644374324357 1 I I 0 1 1 forward I I I I #
face $-1 $207 $208 $69 $-1 $209 forward single #
loop $-1 $210 $211 $88 #
cone-surface $-1 -55.357670157162822 30.247213211892777 16.416988601882583 0.57357644374324357 0 -0.81915203911291934 0.81915203911291934 0 0.57357644374324357 1 I I 0 1 1 forward I I I I #
face $-1 $212 $213 $70 $-1 $214 reversed single #
loop $-1 $-1 $215 $89 #
plane-surface $-1 94.188560592331243 -11.294131846734944 175.07692199788747 0 -1 0 -0.82903758062907751 0 -0.55919289150049634 forward_v I I I I #
face $-1 $216 $217 $71 $-1 $218 forward single #
loop $-1 $219 $220 $90 #
cone-surface $-1 55.228509266242924 -24.665246048466638 12.679177380682475 -0.82903758062907751 0 -0.55919289150049634 0.83878933725074445 0 -1.2435563709436162 1 I I 0 1 1.5 forward I I I I #
face $-1 $221 $222 $72 $-1 $223 forward single #
loop $-1 $224 $225 $91 #
cone-surface $-1 55.228509266242924 -16.642577527427619 12.679177380682475 -0.82903758062907751 0 -0.55919289150049634 0.83878933725074445 0 -1.2435563709436162 1 I I 0 1 1.5 forward I I I I #
face $-1 $226 $227 $73 $-1 $228 reversed single #
loop $-1 $-1 $229 $92 #
plane-surface $-1 94.188560592331243 30.013691729159312 175.07692199788747 0 -1 0 -0.82903758062907751 0 -0.55919289150049634 forward_v I I I I #
face $-1 $230 $231 $74 $-1 $232 forward single #
loop $-1 $233 $234 $93 #
cone-surface $-1 55.228509266242924 16.642577527427612 12.679177380682475 -0.82903758062907751 0 -0.55919289150049634 0.83878933725074445 0 -1.2435563709436162 1 I I 0 1 1.5 forward I I I I #
face $-1 $235 $236 $75 $-1 $237 forward single #
loop $-1 $238 $239 $94 #
cone-surface $-1 55.228509266242924 24.665246048466635 12.679177380682475 -0.82903758062907751 0 -0.55919289150049634 0.83878933725074445 0 -1.2435563709436162 1 I I 0 1 1.5 forward I I I I #
face $-1 $240 $241 $57 $-1 $242 reversed single #
loop $-1 $-1 $243 $95 #
plane-surface $-1 0 0 -20.981856002119606 0 0 1 1 0 0 forward_v I I I I #
coedge $-1 $244 $245 $246 $247 forward $96 $-1 #
face $-1 $248 $249 $58 $-1 $250 reversed single #
loop $-1 $-1 $251 $98 #
plane-surface $-1 -61.173741874446847 -27.571172582871256 13.784242044167613 -0.57357644374324357 0 0.81915203911291934 0.81915203911291934 0 0.57357644374324357 forward_v I I I I #
coedge $-1 $252 $253 $254 $255 reversed $99 $-1 #
face $-1 $-1 $256 $59 $-1 $257 forward single #
loop $-1 $258 $259 $101 #
cone-surface $-1 -54.394439132965935 -30.247213211892763 15.041352161065099 0.57357644374324357 0 -0.81915203911291934 0.40957601955645967 0 0.28678822187162178 1 I I -0.70710678118654624 0.70710678118654879 0.5 forward I I I I #
loop $-1 $-1 $260 $78 #
coedge $-1 $164 $164 $261 $262 reversed $102 $-1 #
face $-1 $-1 $263 $60 $-1 $264 forward single #
loop $-1 $265 $266 $104 #
cone-surface $-1 -54.394439132965935 -24.895131953849749 15.041352161065099 0.57357644374324357 0 -0.81915203911291934 0.40957601955645967 0 0.28678822187162178 1 I I -0.70710678118654624 0.70710678118654879 0.5 forward I I I I #
loop $-1 $-1 $267 $79 #
coedge $-1 $169 $169 $268 $269 reversed $105 $-1 #
face $-1 $270 $271 $61 $-1 $272 reversed single #
loop $-1 $-1 $273 $107 #
plane-surface $-1 -61.173741874446847 -9.1903908609570806 13.784242044167613 -0.57357644374324357 0 0.81915203911291934 0.81915203911291934 0 0.57357644374324357 forward_v I I I I #
coedge $-1 $274 $275 $276 $277 reversed $108 $-1 #
face $-1 $-1 $278 $62 $-1 $279 forward single #
loop $-1 $280 $281 $110 #
cone-surface $-1 -54.394439132965935 -11.866431489978588 15.041352161065099 0.57357644374324357 0 -0.81915203911291934 0.40957601955645967 0 0.28678822187162178 1 I I -0.70710678118654624 0.70710678118654879 0.5 forward I I I I #
loop $-1 $-1 $282 $81 #
coedge $-1 $178 $178 $283 $284 reversed $111 $-1 #
face $-1 $-1 $285 $63 $-1 $286 forward single #
loop $-1 $287 $288 $113 #
cone-surface $-1 -54.394439132965935 -6.5143502319355733 15.041352161065099 0.57357644374324357 0 -0.81915203911291934 0.40957601955645967 0 0.28678822187162178 1 I I -0.70710678118654624 0.70710678118654879 0.5 forward I I I I #
loop $-1 $-1 $289 $82 #
coedge $-1 $183 $183 $290 $291 reversed $114 $-1 #
face $-1 $292 $293 $64 $-1 $294 reversed single #
loop $-1 $-1 $295 $116 #
plane-surface $-1 -61.173741874446847 9.1903908609570877 13.784242044167613 -0.57357644374324357 0 0.81915203911291934 0.81915203911291934 0 0.57357644374324357 forward_v I I I I #
coedge $-1 $296 $297 $298 $299 reversed $117 $-1 #
face $-1 $-1 $300 $65 $-1 $301 forward single #
loop $-1 $302 $303 $119 #
cone-surface $-1 -54.394439132965935 6.5143502319355875 15.041352161065099 0.57357644374324357 0 -0.81915203911291934 0.40957601955645967 0 0.28678822187162178 1 I I -0.70710678118654624 0.70710678118654879 0.5 forward I I I I #
loop $-1 $-1 $304 $84 #
coedge $-1 $192 $192 $305 $306 reversed $120 $-1 #
face $-1 $-1 $307 $66 $-1 $308 forward single #
loop $-1 $309 $310 $122 #
cone-surface $-1 -54.394439132965935 11.866431489978602 15.041352161065099 0.57357644374324357 0 -0.81915203911291934 0.40957601955645967 0 0.28678822187162178 1 I I -0.70710678118654624 0.70710678118654879 0.5 forward I I I I #
loop $-1 $-1 $311 $85 #
coedge $-1 $197 $197 $312 $313 reversed $123 $-1 #
face $-1 $314 $315 $67 $-1 $316 reversed single #
loop $-1 $-1 $317 $125 #
plane-surface $-1 -61.173741874446847 27.571172582871263 13.784242044167613 -0.57357644374324357 0 0.81915203911291934 0.81915203911291934 0 0.57357644374324357 forward_v I I I I #
coedge $-1 $318 $319 $320 $321 reversed $126 $-1 #
face $-1 $-1 $322 $68 $-1 $323 forward single #
loop $-1 $324 $325 $128 #
cone-surface $-1 -54.394439132965935 24.895131953849763 15.041352161065099 0.57357644374324357 0 -0.81915203911291934 0.40957601955645967 0 0.28678822187162178 1 I I -0.70710678118654624 0.70710678118654879 0.5 forward I I I I #
loop $-1 $-1 $326 $87 #
coedge $-1 $206 $206 $327 $328 reversed $129 $-1 #
face $-1 $-1 $329 $69 $-1 $330 forward single #
loop $-1 $331 $332 $131 #
cone-surface $-1 -54.394439132965935 30.247213211892777 15.041352161065099 0.57357644374324357 0 -0.81915203911291934 0.40957601955645967 0 0.28678822187162178 1 I I -0.70710678118654624 0.70710678118654879 0.5 forward I I I I #
loop $-1 $-1 $333 $88 #
coedge $-1 $211 $211 $334 $335 reversed $132 $-1 #
face $-1 $336 $337 $70 $-1 $338 reversed single #
loop $-1 $-1 $339 $134 #
plane-surface $-1 -7.2421013309069906 -20.653911787947131 106.6610787925336 0.82903758062907751 0 0.55919289150049634 0.55919289150049634 0 -0.82903758062907751 forward_v I I I I #
coedge $-1 $340 $341 $342 $343 reversed $135 $-1 #
face $-1 $-1 $344 $71 $-1 $345 forward single #
loop $-1 $346 $347 $137 #
cone-surface $-1 53.973738230923139 -24.665246048466638 11.832823657032073 -0.82903758062907751 0 -0.55919289150049634 0.41939466862537222 0 -0.62177818547180808 1 I I -0.70710678118654757 0.70710678118654757 0.75 forward I I I I #
loop $-1 $-1 $348 $90 #
coedge $-1 $220 $220 $349 $350 reversed $138 $-1 #
face $-1 $-1 $351 $72 $-1 $352 forward single #
loop $-1 $353 $354 $140 #
cone-surface $-1 53.973738230923139 -16.642577527427619 11.832823657032073 -0.82903758062907751 0 -0.55919289150049634 0.41939466862537222 0 -0.62177818547180808 1 I I -0.70710678118654757 0.70710678118654757 0.75 forward I I I I #
loop $-1 $-1 $355 $91 #
coedge $-1 $225 $225 $356 $357 reversed $141 $-1 #
face $-1 $358 $359 $73 $-1 $360 reversed single #
loop $-1 $-1 $361 $143 #
plane-surface $-1 -7.2421013309069906 20.653911787947123 106.6610787925336 0.82903758062907751 0 0.55919289150049634 0.55919289150049634 0 -0.82903758062907751 forward_v I I I I #
coedge $-1 $362 $363 $364 $365 reversed $144 $-1 #
face $-1 $-1 $366 $74 $-1 $367 forward single #
loop $-1 $368 $369 $146 #
cone-surface $-1 53.973738230923139 16.642577527427612 11.832823657032073 -0.82903758062907751 0 -0.55919289150049634 0.41939466862537222 0 -0.62177818547180808 1 I I -0.70710678118654757 0.70710678118654757 0.75 forward I I I I #
loop $-1 $-1 $370 $93 #
coedge $-1 $234 $234 $371 $372 reversed $147 $-1 #
face $-1 $-1 $373 $75 $-1 $374 forward single #
loop $-1 $375 $376 $149 #
cone-surface $-1 53.973738230923139 24.665246048466635 11.832823657032073 -0.82903758062907751 0 -0.55919289150049634 0.41939466862537222 0 -0.62177818547180808 1 I I -0.70710678118654757 0.70710678118654757 0.75 forward I I I I #
loop $-1 $-1 $377 $94 #
coedge $-1 $239 $239 $378 $379 reversed $150 $-1 #
face $-1 $380 $381 $57 $-1 $382 reversed single #
loop $-1 $-1 $383 $152 #
plane-surface $-1 0 -42.654155563642142 0 0 1 0 0 0 1 forward_v I I I I #
coedge $-1 $384 $385 $386 $387 forward $153 $-1 #
coedge $-1 $388 $155 $389 $390 forward $96 $-1 #
coedge $-1 $155 $388 $391 $392 forward $96 $-1 #
coedge $-1 $393 $394 $155 $247 reversed $395 $-1 #
edge $-1 $396 -42.654155563642142 $397 42.654155563642142 $246 $398 forward 7 unknown #
face $-1 $399 $400 $58 $-1 $401 reversed single #
loop $-1 $-1 $402 $156 #
plane-surface $-1 -131.34937650407159 -21.327077781821075 114.00543283740865 0 -1 0 0.57357644374324357 0 -0.81915203911291934 forward_v I I I I #
coedge $-1 $403 $404 $405 $406 reversed $157 $-1 #
coedge $-1 $253 $159 $407 $408 reversed $99 $-1 #
coedge $-1 $159 $252 $403 $409 reversed $99 $-1 #
coedge $-1 $405 $410 $159 $255 forward $411 $-1 #
edge $-1 $412 4.5009463775889387 $413 14.780204207506472 $254 $414 forward 7 unknown #
loop $-1 $-1 $261 $160 #
plane-surface $-1 -61.173741874446847 -27.571172582871256 13.784242044167613 -0.57357644374324357 0 0.81915203911291934 0.81915203911291934 0 0.57357644374324357 forward_v I I I I #
loop $-1 $-1 $415 $101 #
coedge $-1 $259 $259 $260 $416 reversed $161 $-1 #
coedge $-1 $260 $260 $259 $416 forward $163 $-1 #
coedge $-1 $261 $261 $164 $262 forward $256 $-1 #
edge $-1 $417 0 $417 6.2831853071796004 $261 $418 forward 7 unknown #
loop $-1 $-1 $268 $165 #
plane-surface $-1 -61.173741874446847 -27.571172582871256 13.784242044167613 -0.57357644374324357 0 0.81915203911291934 0.81915203911291934 0 0.57357644374324357 forward_v I I I I #
loop $-1 $-1 $419 $104 #
coedge $-1 $266 $266 $267 $420 reversed $166 $-1 #
coedge $-1 $267 $267 $266 $420 forward $168 $-1 #
coedge $-1 $268 $268 $169 $269 forward $263 $-1 #
edge $-1 $421 0 $421 6.2831853071796004 $268 $422 forward 7 unknown #
face $-1 $423 $424 $61 $-1 $425 forward single #
loop $-1 $-1 $426 $170 #
plane-surface $-1 -131.34937650407159 -2.9462960599068975 114.00543283740865 0 -1 0 0.57357644374324357 0 -0.81915203911291934 forward_v I I I I #
coedge $-1 $427 $428 $429 $430 reversed $171 $-1 #
coedge $-1 $275 $173 $431 $432 reversed $108 $-1 #
coedge $-1 $173 $274 $427 $433 reversed $108 $-1 #
coedge $-1 $429 $434 $173 $277 forward $424 $-1 #
edge $-1 $435 4.5009463775889387 $436 14.780204207506472 $276 $437 forward 7 unknown #
loop $-1 $-1 $283 $174 #
plane-surface $-1 -61.173741874446847 -9.1903908609570806 13.784242044167613 -0.57357644374324357 0 0.81915203911291934 0.81915203911291934 0 0.57357644374324357 forward_v I I I I #
loop $-1 $-1 $438 $110 #
coedge $-1 $281 $281 $282 $439 reversed $175 $-1 #
coedge $-1 $282 $282 $281 $439 forward $177 $-1 #
coedge $-1 $283 $283 $178 $284 forward $278 $-1 #
edge $-1 $440 0 $440 6.2831853071796004 $283 $441 forward 7 unknown #
loop $-1 $-1 $290 $179 #
plane-surface $-1 -61.173741874446847 -9.1903908609570806 13.784242044167613 -0.57357644374324357 0 0.81915203911291934 0.81915203911291934 0 0.57357644374324357 forward_v I I I I #
loop $-1 $-1 $442 $113 #
coedge $-1 $288 $288 $289 $443 reversed $180 $-1 #
coedge $-1 $289 $289 $288 $443 forward $182 $-1 #
coedge $-1 $290 $290 $183 $291 forward $285 $-1 #
edge $-1 $444 0 $444 6.2831853071796004 $290 $445 forward 7 unknown #
face $-1 $446 $447 $64 $-1 $448 forward single #
loop $-1 $-1 $449 $184 #
plane-surface $-1 -131.34937650407159 15.434485662007271 114.00543283740865 0 -1 0 0.57357644374324357 0 -0.81915203911291934 forward_v I I I I #
coedge $-1 $450 $451 $452 $453 reversed $185 $-1 #
coedge $-1 $297 $187 $454 $455 reversed $117 $-1 #
coedge $-1 $187 $296 $450 $456 reversed $117 $-1 #
coedge $-1 $452 $457 $187 $299 forward $447 $-1 #
edge $-1 $458 4.5009463775889387 $459 14.780204207506472 $298 $460 forward 7 unknown #
loop $-1 $-1 $305 $188 #
plane-surface $-1 -61.173741874446847 9.1903908609570877 13.784242044167613 -0.57357644374324357 0 0.81915203911291934 0.81915203911291934 0 0.57357644374324357 forward_v I I I I #
loop $-1 $-1 $461 $119 #
coedge $-1 $303 $303 $304 $462 reversed $189 $-1 #
coedge $-1 $304 $304 $303 $462 forward $191 $-1 #
coedge $-1 $305 $305 $192 $306 forward $300 $-1 #
edge $-1 $463 0 $463 6.2831853071796004 $305 $464 forward 7 unknown #
loop $-1 $-1 $312 $193 #
plane-surface $-1 -61.173741874446847 9.1903908609570877 13.784242044167613 -0.57357644374324357 0 0.81915203911291934 0.81915203911291934 0 0.57357644374324357 forward_v I I I I #
loop $-1 $-1 $465 $122 #
coedge $-1 $310 $310 $311 $466 reversed $194 $-1 #
coedge $-1 $311 $311 $310 $466 forward $196 $-1 #
coedge $-1 $312 $312 $197 $313 forward $307 $-1 #
edge $-1 $467 0 $467 6.2831853071796004 $312 $468 forward 7 unknown #
face $-1 $469 $470 $67 $-1 $471 forward single #
loop $-1 $-1 $472 $198 #
plane-surface $-1 -131.34937650407159 33.815267383921444 114.00543283740865 0 -1 0 0.57357644374324357 0 -0.81915203911291934 forward_v I I I I #
coedge $-1 $473 $474 $475 $476 reversed $199 $-1 #
coedge $-1 $319 $201 $477 $478 reversed $126 $-1 #
coedge $-1 $201 $318 $473 $479 reversed $126 $-1 #
coedge $-1 $475 $480 $201 $321 forward $470 $-1 #
edge $-1 $481 4.5009463775889387 $482 14.780204207506472 $320 $483 forward 7 unknown #
loop $-1 $-1 $327 $202 #
plane-surface $-1 -61.173741874446847 27.571172582871263 13.784242044167613 -0.57357644374324357 0 0.81915203911291934 0.81915203911291934 0 0.57357644374324357 forward_v I I I I #
loop $-1 $-1 $484 $128 #
coedge $-1 $325 $325 $326 $485 reversed $203 $-1 #
coedge $-1 $326 $326 $325 $485 forward $205 $-1 #
coedge $-1 $327 $327 $206 $328 forward $322 $-1 #
edge $-1 $486 0 $486 6.2831853071796004 $327 $487 forward 7 unknown #
loop $-1 $-1 $334 $207 #
plane-surface $-1 -61.173741874446847 27.571172582871263 13.784242044167613 -0.57357644374324357 0 0.81915203911291934 0.81915203911291934 0 0.57357644374324357 forward_v I I I I #
loop $-1 $-1 $488 $131 #
coedge $-1 $332 $332 $333 $489 reversed $208 $-1 #
coedge $-1 $333 $333 $332 $489 forward $210 $-1 #
coedge $-1 $334 $334 $211 $335 forward $329 $-1 #
edge $-1 $490 0 $490 6.2831853071796004 $334 $491 forward 7 unknown #
face $-1 $492 $493 $70 $-1 $494 forward single #
loop $-1 $-1 $495 $212 #
plane-surface $-1 94.188560592331243 -30.013691729159319 175.07692199788747 0 1 0 0.82903758062907751 0 0.55919289150049634 forward_v I I I I #
coedge $-1 $496 $497 $498 $499 reversed $213 $-1 #
coedge $-1 $341 $215 $500 $501 reversed $135 $-1 #
coedge $-1 $215 $340 $496 $502 reversed $135 $-1 #
coedge $-1 $498 $503 $215 $343 forward $493 $-1 #
edge $-1 $504 -14.079461578281233 $505 -3.454982061569325 $342 $506 forward 7 unknown #
loop $-1 $-1 $349 $216 #
plane-surface $-1 -7.2421013309069906 -20.653911787947131 106.6610787925336 0.82903758062907751 0 0.55919289150049634 0.55919289150049634 0 -0.82903758062907751 forward_v I I I I #
loop $-1 $-1 $507 $137 #
coedge $-1 $347 $347 $348 $508 reversed $217 $-1 #
coedge $-1 $348 $348 $347 $508 forward $219 $-1 #
coedge $-1 $349 $349 $220 $350 forward $344 $-1 #
edge $-1 $509 0 $509 6.2831853071796004 $349 $510 forward 7 unknown #
loop $-1 $-1 $356 $221 #
plane-surface $-1 -7.2421013309069906 -20.653911787947131 106.6610787925336 0.82903758062907751 0 0.55919289150049634 0.55919289150049634 0 -0.82903758062907751 forward_v I I I I #
loop $-1 $-1 $511 $140 #
coedge $-1 $354 $354 $355 $512 reversed $222 $-1 #
coedge $-1 $355 $355 $354 $512 forward $224 $-1 #
coedge $-1 $356 $356 $225 $357 forward $351 $-1 #
edge $-1 $513 0 $513 6.2831853071796004 $356 $514 forward 7 unknown #
face $-1 $515 $516 $73 $-1 $517 reversed single #
loop $-1 $-1 $518 $226 #
plane-surface $-1 94.188560592331243 11.294131846734937 175.07692199788747 0 1 0 0.82903758062907751 0 0.55919289150049634 forward_v I I I I #
coedge $-1 $519 $520 $521 $522 reversed $227 $-1 #
coedge $-1 $363 $229 $523 $524 reversed $144 $-1 #
coedge $-1 $229 $362 $519 $525 reversed $144 $-1 #
coedge $-1 $521 $526 $229 $365 forward $527 $-1 #
edge $-1 $528 -14.079461578281233 $529 -3.454982061569325 $364 $530 forward 7 unknown #
loop $-1 $-1 $371 $230 #
plane-surface $-1 -7.2421013309069906 20.653911787947123 106.6610787925336 0.82903758062907751 0 0.55919289150049634 0.55919289150049634 0 -0.82903758062907751 forward_v I I I I #
loop $-1 $-1 $531 $146 #
coedge $-1 $369 $369 $370 $532 reversed $231 $-1 #
coedge $-1 $370 $370 $369 $532 forward $233 $-1 #
coedge $-1 $371 $371 $234 $372 forward $366 $-1 #
edge $-1 $533 0 $533 6.2831853071796004 $371 $534 forward 7 unknown #
loop $-1 $-1 $378 $235 #
plane-surface $-1 -7.2421013309069906 20.653911787947123 106.6610787925336 0.82903758062907751 0 0.55919289150049634 0.55919289150049634 0 -0.82903758062907751 forward_v I I I I #
loop $-1 $-1 $535 $149 #
coedge $-1 $376 $376 $377 $536 reversed $236 $-1 #
coedge $-1 $377 $377 $376 $536 forward $238 $-1 #
coedge $-1 $378 $378 $239 $379 forward $373 $-1 #
edge $-1 $537 0 $537 6.2831853071796004 $378 $538 forward 7 unknown #
face $-1 $539 $540 $57 $-1 $541 reversed single #
loop $-1 $-1 $542 $240 #
plane-surface $-1 -61.173741874446854 0 0 1 0 0 0 0 -1 forward_v I I I I #
coedge $-1 $543 $391 $544 $545 forward $241 $-1 #
coedge $-1 $546 $243 $543 $547 forward $153 $-1 #
coedge $-1 $243 $546 $548 $549 forward $153 $-1 #
coedge $-1 $394 $393 $243 $387 reversed $395 $-1 #
edge $-1 $550 -42.654155563642142 $551 42.654155563642142 $386 $552 forward 7 unknown #
coedge $-1 $245 $244 $553 $554 forward $96 $-1 #
coedge $-1 $555 $556 $244 $390 reversed $540 $-1 #
edge $-1 $397 -61.173741874446854 $557 61.173741874446854 $389 $558 forward 7 unknown #
coedge $-1 $383 $559 $245 $392 reversed $241 $-1 #
edge $-1 $560 -61.173741874446854 $396 61.173741874446854 $391 $561 forward 7 unknown #
coedge $-1 $386 $246 $559 $562 forward $395 $-1 #
coedge $-1 $246 $386 $555 $563 reversed $395 $-1 #
loop $-1 $-1 $393 $539 #
vertex $-1 $247 $564 #
vertex $-1 $247 $565 #
straight-curve $-1 61.173741874446854 0 20.981856002119606 0 1 0 I I #
face $-1 $-1 $411 $58 $-1 $566 forward single #
loop $-1 $-1 $567 $248 #
plane-surface $-1 -61.173741874446854 0 0 1 0 0 0 0 -1 forward_v I I I I #
coedge $-1 $568 $569 $570 $571 reversed $249 $-1 #
coedge $-1 $572 $251 $253 $409 forward $157 $-1 #
coedge $-1 $251 $572 $568 $573 forward $157 $-1 #
coedge $-1 $570 $254 $251 $406 forward $411 $-1 #
edge $-1 $413 -20.029681092485809 $574 -7.5414914903854466 $405 $575 forward 7 unknown #
coedge $-1 $576 $577 $252 $408 forward $400 $-1 #
edge $-1 $578 -43.218474374536719 $412 -36.020860416584718 $407 $579 forward 7 unknown #
edge $-1 $413 -12.548656829383219 $578 8.8770546250341341e-015 $253 $580 forward 7 unknown #
coedge $-1 $254 $570 $576 $581 forward $411 $-1 #
loop $-1 $-1 $570 $399 #
vertex $-1 $408 $582 #
vertex $-1 $255 $583 #
straight-curve $-1 -65.674688252035793 -33.815267383921437 20.981856002119606 1 0 0 I I #
coedge $-1 $415 $415 $-1 $584 reversed $258 $-1 #
edge $-1 $585 0 $585 6.2831853071796004 $259 $586 forward 7 unknown #
vertex $-1 $262 $587 #
ellipse-curve $-1 -56.034112959488084 -30.247213211892763 17.383049023143606 -0.57357644374324357 0 0.81915203911291934 0.81915203911291934 0 0.57357644374324357 1 I I #
coedge $-1 $419 $419 $-1 $588 reversed $265 $-1 #
edge $-1 $589 0 $589 6.2831853071796004 $266 $590 forward 7 unknown #
vertex $-1 $269 $591 #
ellipse-curve $-1 -56.034112959488084 -24.895131953849749 17.383049023143606 -0.57357644374324357 0 0.81915203911291934 0.81915203911291934 0 0.57357644374324357 1 I I #
face $-1 $-1 $592 $61 $-1 $593 reversed single #
loop $-1 $-1 $276 $270 #
plane-surface $-1 0 0 20.981856002119606 0 0 1 1 0 0 forward_v I I I I #
coedge $-1 $594 $595 $596 $597 reversed $271 $-1 #
coedge $-1 $598 $273 $275 $433 forward $171 $-1 #
coedge $-1 $273 $598 $594 $599 forward $171 $-1 #
coedge $-1 $596 $276 $273 $430 forward $424 $-1 #
edge $-1 $436 -10.839290231528723 $600 1.6488993705716428 $429 $601 forward 7 unknown #
coedge $-1 $602 $603 $274 $432 forward $592 $-1 #
edge $-1 $604 -43.218474374536719 $435 -36.020860416584718 $431 $605 forward 7 unknown #
edge $-1 $436 -12.548656829383219 $604 8.8770546250341341e-015 $275 $606 forward 7 unknown #
coedge $-1 $276 $596 $602 $607 forward $424 $-1 #
vertex $-1 $277 $608 #
vertex $-1 $277 $609 #
straight-curve $-1 -65.674688252035793 -15.434485662007264 20.981856002119606 1 0 0 I I #
coedge $-1 $438 $438 $-1 $610 reversed $280 $-1 #
edge $-1 $611 0 $611 6.2831853071796004 $281 $612 forward 7 unknown #
vertex $-1 $284 $613 #
ellipse-curve $-1 -56.034112959488084 -11.866431489978588 17.383049023143606 -0.57357644374324357 0 0.81915203911291934 0.81915203911291934 0 0.57357644374324357 1 I I #
coedge $-1 $442 $442 $-1 $614 reversed $287 $-1 #
edge $-1 $615 0 $615 6.2831853071796004 $288 $616 forward 7 unknown #
vertex $-1 $291 $617 #
ellipse-curve $-1 -56.034112959488084 -6.5143502319355733 17.383049023143606 -0.57357644374324357 0 0.81915203911291934 0.81915203911291934 0 0.57357644374324357 1 I I #
face $-1 $-1 $618 $64 $-1 $619 reversed single #
loop $-1 $-1 $298 $292 #
plane-surface $-1 0 0 20.981856002119606 0 0 1 1 0 0 forward_v I I I I #
coedge $-1 $620 $621 $622 $623 reversed $293 $-1 #
coedge $-1 $624 $295 $297 $456 forward $185 $-1 #
coedge $-1 $295 $624 $620 $625 forward $185 $-1 #
coedge $-1 $622 $298 $295 $453 forward $447 $-1 #
edge $-1 $459 -1.6488993705716393 $626 10.839290231528727 $452 $627 forward 7 unknown #
coedge $-1 $628 $629 $296 $455 forward $618 $-1 #
edge $-1 $630 -43.218474374536719 $458 -36.020860416584718 $454 $631 forward 7 unknown #
edge $-1 $459 -12.548656829383219 $630 8.8770546250341341e-015 $297 $632 forward 7 unknown #
coedge $-1 $298 $622 $628 $633 forward $447 $-1 #
vertex $-1 $299 $634 #
vertex $-1 $299 $635 #
straight-curve $-1 -65.674688252035793 2.9462960599069046 20.981856002119606 1 0 0 I I #
coedge $-1 $461 $461 $-1 $636 reversed $302 $-1 #
edge $-1 $637 0 $637 6.2831853071796004 $303 $638 forward 7 unknown #
vertex $-1 $306 $639 #
ellipse-curve $-1 -56.034112959488084 6.5143502319355875 17.383049023143606 -0.57357644374324357 0 0.81915203911291934 0.81915203911291934 0 0.57357644374324357 1 I I #
coedge $-1 $465 $465 $-1 $640 reversed $309 $-1 #
edge $-1 $641 0 $641 6.2831853071796004 $310 $642 forward 7 unknown #
vertex $-1 $313 $643 #
ellipse-curve $-1 -56.034112959488084 11.866431489978602 17.383049023143606 -0.57357644374324357 0 0.81915203911291934 0.81915203911291934 0 0.57357644374324357 1 I I #
face $-1 $-1 $644 $67 $-1 $645 reversed single #
loop $-1 $-1 $320 $314 #
plane-surface $-1 0 0 20.981856002119606 0 0 1 1 0 0 forward_v I I I I #
coedge $-1 $646 $647 $648 $649 reversed $315 $-1 #
coedge $-1 $650 $317 $319 $479 forward $199 $-1 #
coedge $-1 $317 $650 $646 $651 forward $199 $-1 #
coedge $-1 $648 $320 $317 $476 forward $470 $-1 #
edge $-1 $482 7.5414914903854502 $652 20.029681092485813 $475 $653 forward 7 unknown #
coedge $-1 $654 $655 $318 $478 forward $644 $-1 #
edge $-1 $656 -43.218474374536719 $481 -36.020860416584718 $477 $657 forward 7 unknown #
edge $-1 $482 -12.548656829383219 $656 8.8770546250341341e-015 $319 $658 forward 7 unknown #
coedge $-1 $320 $648 $654 $659 forward $470 $-1 #
vertex $-1 $321 $660 #
vertex $-1 $321 $661 #
straight-curve $-1 -65.674688252035793 21.327077781821082 20.981856002119606 1 0 0 I I #
coedge $-1 $484 $484 $-1 $662 reversed $324 $-1 #
edge $-1 $663 0 $663 6.2831853071796004 $325 $664 forward 7 unknown #
vertex $-1 $328 $665 #
ellipse-curve $-1 -56.034112959488084 24.895131953849763 17.383049023143606 -0.57357644374324357 0 0.81915203911291934 0.81915203911291934 0 0.57357644374324357 1 I I #
coedge $-1 $488 $488 $-1 $666 reversed $331 $-1 #
edge $-1 $667 0 $667 6.2831853071796004 $332 $668 forward 7 unknown #
vertex $-1 $335 $669 #
ellipse-curve $-1 -56.034112959488084 30.247213211892777 17.383049023143606 -0.57357644374324357 0 0.81915203911291934 0.81915203911291934 0 0.57357644374324357 1 I I #
face $-1 $-1 $670 $70 $-1 $671 reversed single #
loop $-1 $-1 $342 $336 #
plane-surface $-1 0 0 20.981856002119606 0 0 1 1 0 0 forward_v I I I I #
coedge $-1 $672 $673 $674 $675 reversed $337 $-1 #
coedge $-1 $676 $339 $341 $502 forward $213 $-1 #
coedge $-1 $339 $676 $672 $677 forward $213 $-1 #
coedge $-1 $674 $342 $339 $499 forward $493 $-1 #
edge $-1 $505 0.96717595276137835 $678 19.686735835185754 $498 $679 forward 7 unknown #
coedge $-1 $680 $681 $340 $501 forward $670 $-1 #
edge $-1 $682 -82.308044129648309 $504 -66.55660499682412 $500 $683 forward 7 unknown #
edge $-1 $505 103.34781533715302 $682 122.34748374889367 $341 $684 forward 7 unknown #
coedge $-1 $342 $674 $680 $685 forward $493 $-1 #
vertex $-1 $501 $686 #
vertex $-1 $343 $687 #
straight-curve $-1 47.094280296165621 -11.294131846734944 20.981856002119599 -1 0 0 I I #
coedge $-1 $507 $507 $-1 $688 reversed $346 $-1 #
edge $-1 $689 0 $689 6.2831853071796004 $347 $690 forward 7 unknown #
vertex $-1 $350 $691 #
ellipse-curve $-1 55.861502116090897 -24.665246048466638 13.106136435707505 0.82903758062907751 0 0.55919289150049634 0.83878933725074445 0 -1.2435563709436162 1 I I #
coedge $-1 $511 $511 $-1 $692 reversed $353 $-1 #
edge $-1 $693 0 $693 6.2831853071796004 $354 $694 forward 7 unknown #
vertex $-1 $357 $695 #
ellipse-curve $-1 55.861502116090897 -16.642577527427619 13.106136435707505 0.82903758062907751 0 0.55919289150049634 0.83878933725074445 0 -1.2435563709436162 1 I I #
face $-1 $-1 $527 $73 $-1 $696 forward single #
loop $-1 $-1 $697 $358 #
plane-surface $-1 61.173741874446854 0 0 -1 0 0 0 0 1 forward_v I I I I #
coedge $-1 $698 $699 $700 $701 reversed $359 $-1 #
coedge $-1 $702 $361 $363 $525 forward $227 $-1 #
coedge $-1 $361 $702 $698 $703 forward $227 $-1 #
coedge $-1 $700 $364 $361 $522 forward $527 $-1 #
edge $-1 $529 -19.68673583518575 $704 -0.9671759527613748 $521 $705 forward 7 unknown #
coedge $-1 $706 $707 $362 $524 forward $516 $-1 #
edge $-1 $708 -82.308044129648309 $528 -66.55660499682412 $523 $709 forward 7 unknown #
edge $-1 $529 103.34781533715302 $708 122.34748374889367 $363 $710 forward 7 unknown #
coedge $-1 $364 $700 $706 $711 forward $527 $-1 #
loop $-1 $-1 $700 $515 #
vertex $-1 $524 $712 #
vertex $-1 $365 $713 #
straight-curve $-1 47.094280296165621 30.013691729159312 20.981856002119599 -1 0 0 I I #
coedge $-1 $531 $531 $-1 $714 reversed $368 $-1 #
edge $-1 $715 0 $715 6.2831853071796004 $369 $716 forward 7 unknown #
vertex $-1 $372 $717 #
ellipse-curve $-1 55.861502116090897 16.642577527427612 13.106136435707505 0.82903758062907751 0 0.55919289150049634 0.83878933725074445 0 -1.2435563709436162 1 I I #
coedge $-1 $535 $535 $-1 $718 reversed $375 $-1 #
edge $-1 $719 0 $719 6.2831853071796004 $376 $720 forward 7 unknown #
vertex $-1 $379 $721 #
ellipse-curve $-1 55.861502116090897 24.665246048466635 13.106136435707505 0.82903758062907751 0 0.55919289150049634 0.83878933725074445 0 -1.2435563709436162 1 I I #
face $-1 $-1 $395 $57 $-1 $722 reversed single #
loop $-1 $-1 $555 $380 #
plane-surface $-1 0 42.654155563642142 0 0 -1 0 0 0 -1 forward_v I I I I #
coedge $-1 $723 $553 $556 $724 forward $381 $-1 #
coedge $-1 $559 $383 $384 $547 reversed $241 $-1 #
coedge $-1 $553 $723 $383 $545 reversed $381 $-1 #
edge $-1 $560 -20.981856002119606 $725 20.981856002119606 $544 $726 forward 7 unknown #
coedge $-1 $385 $384 $723 $727 forward $153 $-1 #
edge $-1 $551 -61.173741874446854 $725 61.173741874446854 $543 $728 forward 7 unknown #
coedge $-1 $556 $555 $385 $549 reversed $540 $-1 #
edge $-1 $729 -61.173741874446854 $550 61.173741874446854 $548 $730 forward 7 unknown #
vertex $-1 $387 $731 #
vertex $-1 $562 $732 #
straight-curve $-1 61.173741874446854 0 -20.981856002119606 0 -1 0 I I #
coedge $-1 $542 $544 $388 $554 reversed $381 $-1 #
edge $-1 $557 -42.654155563642142 $560 42.654155563642142 $553 $733 forward 7 unknown #
coedge $-1 $548 $389 $394 $563 forward $540 $-1 #
coedge $-1 $389 $548 $542 $724 reversed $540 $-1 #
vertex $-1 $390 $734 #
straight-curve $-1 0 42.654155563642142 20.981856002119606 -1 0 0 I I #
coedge $-1 $391 $543 $393 $562 reversed $241 $-1 #
vertex $-1 $554 $735 #
straight-curve $-1 0 -42.654155563642142 20.981856002119606 1 0 0 I I #
edge $-1 $396 -20.981856002119606 $551 20.981856002119606 $393 $736 forward 7 unknown #
edge $-1 $397 -20.981856002119606 $550 20.981856002119606 $394 $737 forward 7 unknown #
point $-1 61.173741874446854 -42.654155563642142 20.981856002119606 #
point $-1 61.173741874446854 42.654155563642142 20.981856002119606 #
plane-surface $-1 0 0 20.981856002119606 0 0 1 1 0 0 forward_v I I I I #
coedge $-1 $577 $576 $569 $738 forward $400 $-1 #
coedge $-1 $569 $402 $404 $573 reversed $249 $-1 #
coedge $-1 $402 $568 $567 $738 reversed $249 $-1 #
coedge $-1 $410 $405 $402 $571 forward $411 $-1 #
edge $-1 $574 -14.780204207506472 $739 -4.5009463775889387 $570 $740 forward 7 unknown #
coedge $-1 $404 $403 $577 $741 reversed $157 $-1 #
edge $-1 $742 -8.8770546250341341e-015 $574 12.548656829383219 $568 $743 forward 7 unknown #
vertex $-1 $406 $744 #
straight-curve $-1 -50.894484044529314 -13.785586291435628 20.981856002119606 0 1 0 I I #
coedge $-1 $567 $407 $410 $581 reversed $400 $-1 #
coedge $-1 $407 $567 $572 $741 forward $400 $-1 #
vertex $-1 $408 $745 #
straight-curve $-1 -61.173741874446854 -33.815267383921437 57.002716418704324 0 0 1 I I #
straight-curve $-1 -61.173741874446847 -33.815267383921437 13.784242044167613 -0.81915203911291934 0 -0.57357644374324357 I I #
edge $-1 $739 21.327077781821075 $412 33.815267383921437 $576 $746 forward 7 unknown #
point $-1 -61.173741874446854 -33.815267383921437 20.981856002119606 #
point $-1 -50.894484044529321 -33.815267383921437 20.981856002119606 #
edge $-1 $747 1 $747 0 $415 $-1 forward 7 unknown #
vertex $-1 $416 $748 #
ellipse-curve $-1 -54.68122735483756 -30.247213211892763 15.45092818062156 -0.57357644374324357 0 0.81915203911291934 0.81915203911291934 0 0.57357644374324357 1 I I #
point $-1 -55.214960920375169 -30.247213211892763 17.956625466886852 #
edge $-1 $749 1 $749 0 $419 $-1 forward 7 unknown #
vertex $-1 $420 $750 #
ellipse-curve $-1 -54.68122735483756 -24.895131953849749 15.45092818062156 -0.57357644374324357 0 0.81915203911291934 0.81915203911291934 0 0.57357644374324357 1 I I #
point $-1 -55.214960920375169 -24.895131953849749 17.956625466886852 #
loop $-1 $-1 $431 $423 #
plane-surface $-1 -61.173741874446854 0 0 1 0 0 0 0 -1 forward_v I I I I #
coedge $-1 $595 $426 $428 $599 reversed $271 $-1 #
coedge $-1 $426 $594 $751 $752 reversed $271 $-1 #
coedge $-1 $434 $429 $426 $597 forward $424 $-1 #
edge $-1 $600 -14.780204207506472 $753 -4.5009463775889387 $596 $754 forward 7 unknown #
coedge $-1 $428 $427 $603 $755 reversed $171 $-1 #
edge $-1 $756 -8.8770546250341341e-015 $600 12.548656829383219 $594 $757 forward 7 unknown #
vertex $-1 $430 $758 #
straight-curve $-1 -50.894484044529314 -4.5951954304785403 20.981856002119606 0 1 0 I I #
coedge $-1 $751 $431 $434 $607 reversed $592 $-1 #
coedge $-1 $431 $751 $598 $755 forward $592 $-1 #
vertex $-1 $432 $759 #
straight-curve $-1 -61.173741874446854 -15.434485662007264 57.002716418704324 0 0 1 I I #
straight-curve $-1 -61.173741874446847 -15.434485662007264 13.784242044167613 -0.81915203911291934 0 -0.57357644374324357 I I #
edge $-1 $753 2.9462960599068975 $435 15.434485662007264 $602 $760 forward 7 unknown #
point $-1 -61.173741874446854 -15.434485662007264 20.981856002119606 #
point $-1 -50.894484044529321 -15.434485662007264 20.981856002119606 #
edge $-1 $761 1 $761 0 $438 $-1 forward 7 unknown #
vertex $-1 $439 $762 #
ellipse-curve $-1 -54.68122735483756 -11.866431489978588 15.45092818062156 -0.57357644374324357 0 0.81915203911291934 0.81915203911291934 0 0.57357644374324357 1 I I #
point $-1 -55.214960920375169 -11.866431489978588 17.956625466886852 #
edge $-1 $763 1 $763 0 $442 $-1 forward 7 unknown #
vertex $-1 $443 $764 #
ellipse-curve $-1 -54.68122735483756 -6.5143502319355733 15.45092818062156 -0.57357644374324357 0 0.81915203911291934 0.81915203911291934 0 0.57357644374324357 1 I I #
point $-1 -55.214960920375169 -6.5143502319355733 17.956625466886852 #
loop $-1 $-1 $454 $446 #
plane-surface $-1 -61.173741874446854 0 0 1 0 0 0 0 -1 forward_v I I I I #
coedge $-1 $621 $449 $451 $625 reversed $293 $-1 #
coedge $-1 $449 $620 $765 $766 reversed $293 $-1 #
coedge $-1 $457 $452 $449 $623 forward $447 $-1 #
edge $-1 $626 -14.780204207506472 $767 -4.5009463775889387 $622 $768 forward 7 unknown #
coedge $-1 $451 $450 $629 $769 reversed $185 $-1 #
edge $-1 $770 -8.8770546250341341e-015 $626 12.548656829383219 $620 $771 forward 7 unknown #
vertex $-1 $453 $772 #
straight-curve $-1 -50.894484044529314 4.5951954304785438 20.981856002119606 0 1 0 I I #
coedge $-1 $765 $454 $457 $633 reversed $618 $-1 #
coedge $-1 $454 $765 $624 $769 forward $618 $-1 #
vertex $-1 $455 $773 #
straight-curve $-1 -61.173741874446854 2.9462960599069046 57.002716418704324 0 0 1 I I #
straight-curve $-1 -61.173741874446847 2.9462960599069046 13.784242044167613 -0.81915203911291934 0 -0.57357644374324357 I I #
edge $-1 $767 -15.434485662007271 $458 -2.9462960599069046 $628 $774 forward 7 unknown #
point $-1 -61.173741874446854 2.9462960599069046 20.981856002119606 #
point $-1 -50.894484044529321 2.9462960599069046 20.981856002119606 #
edge $-1 $775 1 $775 0 $461 $-1 forward 7 unknown #
vertex $-1 $462 $776 #
ellipse-curve $-1 -54.68122735483756 6.5143502319355875 15.45092818062156 -0.57357644374324357 0 0.81915203911291934 0.81915203911291934 0 0.57357644374324357 1 I I #
point $-1 -55.214960920375169 6.5143502319355875 17.956625466886852 #
edge $-1 $777 1 $777 0 $465 $-1 forward 7 unknown #
vertex $-1 $466 $778 #
ellipse-curve $-1 -54.68122735483756 11.866431489978602 15.45092818062156 -0.57357644374324357 0 0.81915203911291934 0.81915203911291934 0 0.57357644374324357 1 I I #
point $-1 -55.214960920375169 11.866431489978602 17.956625466886852 #
loop $-1 $-1 $477 $469 #
plane-surface $-1 -61.173741874446854 0 0 1 0 0 0 0 -1 forward_v I I I I #
coedge $-1 $647 $472 $474 $651 reversed $315 $-1 #
coedge $-1 $472 $646 $779 $780 reversed $315 $-1 #
coedge $-1 $480 $475 $472 $649 forward $470 $-1 #
edge $-1 $652 -14.780204207506472 $781 -4.5009463775889387 $648 $782 forward 7 unknown #
coedge $-1 $474 $473 $655 $783 reversed $199 $-1 #
edge $-1 $784 -8.8770546250341341e-015 $652 12.548656829383219 $646 $785 forward 7 unknown #
vertex $-1 $476 $786 #
straight-curve $-1 -50.894484044529314 13.785586291435632 20.981856002119606 0 1 0 I I #
coedge $-1 $779 $477 $480 $659 reversed $644 $-1 #
coedge $-1 $477 $779 $650 $783 forward $644 $-1 #
vertex $-1 $478 $787 #
straight-curve $-1 -61.173741874446854 21.327077781821082 57.002716418704324 0 0 1 I I #
straight-curve $-1 -61.173741874446847 21.327077781821082 13.784242044167613 -0.81915203911291934 0 -0.57357644374324357 I I #
edge $-1 $781 -33.815267383921444 $481 -21.327077781821082 $654 $788 forward 7 unknown #
point $-1 -61.173741874446854 21.327077781821082 20.981856002119606 #
point $-1 -50.894484044529321 21.327077781821082 20.981856002119606 #
edge $-1 $789 1 $789 0 $484 $-1 forward 7 unknown #
vertex $-1 $485 $790 #
ellipse-curve $-1 -54.68122735483756 24.895131953849763 15.45092818062156 -0.57357644374324357 0 0.81915203911291934 0.81915203911291934 0 0.57357644374324357 1 I I #
point $-1 -55.214960920375169 24.895131953849763 17.956625466886852 #
edge $-1 $791 1 $791 0 $488 $-1 forward 7 unknown #
vertex $-1 $489 $792 #
ellipse-curve $-1 -54.68122735483756 30.247213211892777 15.45092818062156 -0.57357644374324357 0 0.81915203911291934 0.81915203911291934 0 0.57357644374324357 1 I I #
point $-1 -55.214960920375169 30.247213211892777 17.956625466886852 #
loop $-1 $-1 $500 $492 #
plane-surface $-1 61.173741874446854 0 0 -1 0 0 0 0 1 forward_v I I I I #
coedge $-1 $673 $495 $497 $677 reversed $337 $-1 #
coedge $-1 $495 $672 $793 $794 reversed $337 $-1 #
coedge $-1 $503 $498 $495 $675 forward $493 $-1 #
edge $-1 $678 3.454982061569325 $795 14.079461578281233 $674 $796 forward 7 unknown #
coedge $-1 $497 $496 $681 $797 reversed $213 $-1 #
edge $-1 $798 -122.34748374889367 $678 -103.34781533715302 $672 $799 forward 7 unknown #
vertex $-1 $499 $800 #
straight-curve $-1 50.549262357734939 -10.326955893973565 20.981856002119613 0 -1 0 I I #
coedge $-1 $793 $500 $503 $685 reversed $670 $-1 #
coedge $-1 $500 $793 $676 $797 forward $670 $-1 #
vertex $-1 $501 $801 #
straight-curve $-1 61.173741874446854 -11.294131846734944 87.538460998943734 0 0 1 I I #
straight-curve $-1 -7.2421013309069906 -11.294131846734944 106.6610787925336 0.55919289150049634 0 -0.82903758062907751 I I #
edge $-1 $795 -30.013691729159319 $504 -11.294131846734944 $680 $802 forward 7 unknown #
point $-1 61.173741874446854 -11.294131846734944 20.981856002119606 #
point $-1 50.549262357734946 -11.294131846734944 20.981856002119599 #
edge $-1 $803 1 $803 0 $507 $-1 forward 7 unknown #
vertex $-1 $508 $804 #
ellipse-curve $-1 54.59551641639495 -24.665246048466638 12.252218325657445 0.82903758062907751 0 0.55919289150049634 0.83878933725074445 0 -1.2435563709436162 1 I I #
point $-1 56.700291453341642 -24.665246048466638 11.86258006476389 #
edge $-1 $805 1 $805 0 $511 $-1 forward 7 unknown #
vertex $-1 $512 $806 #
ellipse-curve $-1 54.59551641639495 -16.642577527427619 12.252218325657445 0.82903758062907751 0 0.55919289150049634 0.83878933725074445 0 -1.2435563709436162 1 I I #
point $-1 56.700291453341642 -16.642577527427619 11.86258006476389 #
plane-surface $-1 0 0 20.981856002119606 0 0 1 1 0 0 forward_v I I I I #
coedge $-1 $707 $706 $699 $807 forward $516 $-1 #
coedge $-1 $699 $518 $520 $703 reversed $359 $-1 #
coedge $-1 $518 $698 $697 $807 reversed $359 $-1 #
coedge $-1 $526 $521 $518 $701 forward $527 $-1 #
edge $-1 $704 3.454982061569325 $808 14.079461578281233 $700 $809 forward 7 unknown #
coedge $-1 $520 $519 $707 $810 reversed $227 $-1 #
edge $-1 $811 -122.34748374889367 $704 -103.34781533715302 $698 $812 forward 7 unknown #
vertex $-1 $522 $813 #
straight-curve $-1 50.549262357734939 10.326955893973562 20.981856002119613 0 -1 0 I I #
coedge $-1 $697 $523 $526 $711 reversed $516 $-1 #
coedge $-1 $523 $697 $702 $810 forward $516 $-1 #
vertex $-1 $524 $814 #
straight-curve $-1 61.173741874446854 30.013691729159312 87.538460998943734 0 0 1 I I #
straight-curve $-1 -7.2421013309069906 30.013691729159312 106.6610787925336 0.55919289150049634 0 -0.82903758062907751 I I #
edge $-1 $808 11.294131846734937 $528 30.013691729159312 $706 $815 forward 7 unknown #
point $-1 61.173741874446854 30.013691729159312 20.981856002119606 #
point $-1 50.549262357734946 30.013691729159312 20.981856002119599 #
edge $-1 $816 1 $816 0 $531 $-1 forward 7 unknown #
vertex $-1 $532 $817 #
ellipse-curve $-1 54.59551641639495 16.642577527427612 12.252218325657445 0.82903758062907751 0 0.55919289150049634 0.83878933725074445 0 -1.2435563709436162 1 I I #
point $-1 56.700291453341642 16.642577527427612 11.86258006476389 #
edge $-1 $818 1 $818 0 $535 $-1 forward 7 unknown #
vertex $-1 $536 $819 #
ellipse-curve $-1 54.59551641639495 24.665246048466635 12.252218325657445 0.82903758062907751 0 0.55919289150049634 0.83878933725074445 0 -1.2435563709436162 1 I I #
point $-1 56.700291453341642 24.665246048466635 11.86258006476389 #
plane-surface $-1 61.173741874446854 0 0 -1 0 0 0 0 1 forward_v I I I I #
coedge $-1 $544 $542 $546 $727 reversed $381 $-1 #
edge $-1 $557 -20.981856002119606 $729 20.981856002119606 $556 $820 forward 7 unknown #
vertex $-1 $727 $821 #
straight-curve $-1 -61.173741874446854 -42.654155563642142 0 0 0 -1 I I #
edge $-1 $725 -42.654155563642142 $729 42.654155563642142 $723 $822 forward 7 unknown #
straight-curve $-1 0 -42.654155563642142 -20.981856002119606 -1 0 0 I I #
vertex $-1 $549 $823 #
straight-curve $-1 0 42.654155563642142 -20.981856002119606 1 0 0 I I #
point $-1 61.173741874446854 42.654155563642142 -20.981856002119606 #
point $-1 61.173741874446854 -42.654155563642142 -20.981856002119606 #
straight-curve $-1 -61.173741874446854 0 20.981856002119606 0 -1 0 I I #
point $-1 -61.173741874446854 42.654155563642142 20.981856002119606 #
point $-1 -61.173741874446854 -42.654155563642142 20.981856002119606 #
straight-curve $-1 61.173741874446854 -42.654155563642142 0 0 0 -1 I I #
straight-curve $-1 61.173741874446854 42.654155563642142 0 0 0 -1 I I #
edge $-1 $739 36.020860416584718 $742 43.218474374536719 $567 $824 forward 7 unknown #
vertex $-1 $581 $825 #
straight-curve $-1 -65.674688252035793 -21.327077781821075 20.981856002119606 -1 0 0 I I #
edge $-1 $742 7.5414914903854466 $578 20.029681092485809 $577 $826 forward 7 unknown #
vertex $-1 $741 $827 #
straight-curve $-1 -61.173741874446847 -21.327077781821075 13.784242044167613 0.81915203911291934 0 0.57357644374324357 I I #
point $-1 -50.894484044529321 -21.327077781821075 20.981856002119606 #
point $-1 -61.173741874446854 -33.815267383921437 13.784242044167607 #
straight-curve $-1 -61.173741874446854 0 20.981856002119606 0 -1 0 I I #
vertex $-1 $584 $828 #
point $-1 -53.862075315724638 -30.247213211892763 16.024504624364802 #
vertex $-1 $588 $829 #
point $-1 -53.862075315724638 -24.895131953849749 16.024504624364802 #
coedge $-1 $603 $602 $595 $752 forward $592 $-1 #
edge $-1 $753 36.020860416584718 $756 43.218474374536719 $751 $830 forward 7 unknown #
vertex $-1 $607 $831 #
straight-curve $-1 -65.674688252035793 -2.9462960599068975 20.981856002119606 -1 0 0 I I #
edge $-1 $756 -1.6488993705716428 $604 10.839290231528723 $603 $832 forward 7 unknown #
vertex $-1 $755 $833 #
straight-curve $-1 -61.173741874446847 -2.9462960599068975 13.784242044167613 0.81915203911291934 0 0.57357644374324357 I I #
point $-1 -50.894484044529321 -2.9462960599068975 20.981856002119606 #
point $-1 -61.173741874446854 -15.434485662007264 13.784242044167607 #
straight-curve $-1 -61.173741874446854 0 20.981856002119606 0 -1 0 I I #
vertex $-1 $610 $834 #
point $-1 -53.862075315724638 -11.866431489978588 16.024504624364802 #
vertex $-1 $614 $835 #
point $-1 -53.862075315724638 -6.5143502319355733 16.024504624364802 #
coedge $-1 $629 $628 $621 $766 forward $618 $-1 #
edge $-1 $767 36.020860416584718 $770 43.218474374536719 $765 $836 forward 7 unknown #
vertex $-1 $633 $837 #
straight-curve $-1 -65.674688252035793 15.434485662007271 20.981856002119606 -1 0 0 I I #
edge $-1 $770 -10.839290231528727 $630 1.6488993705716393 $629 $838 forward 7 unknown #
vertex $-1 $769 $839 #
straight-curve $-1 -61.173741874446847 15.434485662007271 13.784242044167613 0.81915203911291934 0 0.57357644374324357 I I #
point $-1 -50.894484044529321 15.434485662007271 20.981856002119606 #
point $-1 -61.173741874446854 2.9462960599069046 13.784242044167607 #
straight-curve $-1 -61.173741874446854 0 20.981856002119606 0 -1 0 I I #
vertex $-1 $636 $840 #
point $-1 -53.862075315724638 6.5143502319355875 16.024504624364802 #
vertex $-1 $640 $841 #
point $-1 -53.862075315724638 11.866431489978602 16.024504624364802 #
coedge $-1 $655 $654 $647 $780 forward $644 $-1 #
edge $-1 $781 36.020860416584718 $784 43.218474374536719 $779 $842 forward 7 unknown #
vertex $-1 $659 $843 #
straight-curve $-1 -65.674688252035793 33.815267383921444 20.981856002119606 -1 0 0 I I #
edge $-1 $784 -20.029681092485813 $656 -7.5414914903854502 $655 $844 forward 7 unknown #
vertex $-1 $783 $845 #
straight-curve $-1 -61.173741874446847 33.815267383921444 13.784242044167613 0.81915203911291934 0 0.57357644374324357 I I #
point $-1 -50.894484044529321 33.815267383921444 20.981856002119606 #
point $-1 -61.173741874446854 21.327077781821082 13.784242044167607 #
straight-curve $-1 -61.173741874446854 0 20.981856002119606 0 -1 0 I I #
vertex $-1 $662 $846 #
point $-1 -53.862075315724638 24.895131953849763 16.024504624364802 #
vertex $-1 $666 $847 #
point $-1 -53.862075315724638 30.247213211892777 16.024504624364802 #
coedge $-1 $681 $680 $673 $794 forward $670 $-1 #
edge $-1 $795 66.55660499682412 $798 82.308044129648309 $793 $848 forward 7 unknown #
vertex $-1 $685 $849 #
straight-curve $-1 47.094280296165621 -30.013691729159319 20.981856002119599 1 0 0 I I #
edge $-1 $798 -19.686735835185754 $682 -0.96717595276137835 $681 $850 forward 7 unknown #
vertex $-1 $797 $851 #
straight-curve $-1 -7.2421013309069906 -30.013691729159319 106.6610787925336 -0.55919289150049634 0 0.82903758062907751 I I #
point $-1 50.549262357734946 -30.013691729159319 20.981856002119599 #
point $-1 61.173741874446847 -11.294131846734944 5.2304168692954249 #
straight-curve $-1 61.173741874446854 0 20.981856002119606 0 1 0 I I #
vertex $-1 $688 $852 #
point $-1 55.434305753645688 -24.665246048466638 11.008661954713828 #
vertex $-1 $692 $853 #
point $-1 55.434305753645688 -16.642577527427619 11.008661954713828 #
edge $-1 $808 66.55660499682412 $811 82.308044129648309 $697 $854 forward 7 unknown #
vertex $-1 $711 $855 #
straight-curve $-1 47.094280296165621 11.294131846734937 20.981856002119599 1 0 0 I I #
edge $-1 $811 0.9671759527613748 $708 19.68673583518575 $707 $856 forward 7 unknown #
vertex $-1 $810 $857 #
straight-curve $-1 -7.2421013309069906 11.294131846734937 106.6610787925336 -0.55919289150049634 0 0.82903758062907751 I I #
point $-1 50.549262357734946 11.294131846734937 20.981856002119599 #
point $-1 61.173741874446847 30.013691729159312 5.2304168692954249 #
straight-curve $-1 61.173741874446854 0 20.981856002119606 0 1 0 I I #
vertex $-1 $714 $858 #
point $-1 55.434305753645688 16.642577527427612 11.008661954713828 #
vertex $-1 $718 $859 #
point $-1 55.434305753645688 24.665246048466635 11.008661954713828 #
straight-curve $-1 -61.173741874446854 42.654155563642142 0 0 0 -1 I I #
point $-1 -61.173741874446854 -42.654155563642142 -20.981856002119606 #
straight-curve $-1 -61.173741874446854 0 -20.981856002119606 0 1 0 I I #
point $-1 -61.173741874446854 42.654155563642142 -20.981856002119606 #
straight-curve $-1 -61.173741874446854 -21.327077781821075 57.002716418704324 0 0 -1 I I #
point $-1 -61.173741874446854 -21.327077781821075 20.981856002119606 #
straight-curve $-1 -61.173741874446854 -13.785586291435628 13.784242044167609 0 -1 0 I I #
point $-1 -61.173741874446854 -21.327077781821075 13.784242044167607 #
point $-1 -54.107650911094311 -30.247213211892763 14.631776141508638 #
point $-1 -54.107650911094311 -24.895131953849749 14.631776141508638 #
straight-curve $-1 -61.173741874446854 -2.9462960599068975 57.002716418704324 0 0 -1 I I #
point $-1 -61.173741874446854 -2.9462960599068975 20.981856002119606 #
straight-curve $-1 -61.173741874446854 -4.5951954304785403 13.784242044167609 0 -1 0 I I #
point $-1 -61.173741874446854 -2.9462960599068975 13.784242044167607 #
point $-1 -54.107650911094311 -11.866431489978588 14.631776141508638 #
point $-1 -54.107650911094311 -6.5143502319355733 14.631776141508638 #
straight-curve $-1 -61.173741874446854 15.434485662007271 57.002716418704324 0 0 -1 I I #
point $-1 -61.173741874446854 15.434485662007271 20.981856002119606 #
straight-curve $-1 -61.173741874446854 4.5951954304785438 13.784242044167609 0 -1 0 I I #
point $-1 -61.173741874446854 15.434485662007271 13.784242044167607 #
point $-1 -54.107650911094311 6.5143502319355875 14.631776141508638 #
point $-1 -54.107650911094311 11.866431489978602 14.631776141508638 #
straight-curve $-1 -61.173741874446854 33.815267383921444 57.002716418704324 0 0 -1 I I #
point $-1 -61.173741874446854 33.815267383921444 20.981856002119606 #
straight-curve $-1 -61.173741874446854 13.785586291435632 13.784242044167609 0 -1 0 I I #
point $-1 -61.173741874446854 33.815267383921444 13.784242044167607 #
point $-1 -54.107650911094311 24.895131953849763 14.631776141508638 #
point $-1 -54.107650911094311 30.247213211892777 14.631776141508638 #
straight-curve $-1 61.173741874446854 -30.013691729159319 87.538460998943734 0 0 -1 I I #
point $-1 61.173741874446854 -30.013691729159319 20.981856002119606 #
straight-curve $-1 61.173741874446861 -10.326955893973565 5.2304168692953965 0 1 0 I I #
point $-1 61.173741874446847 -30.013691729159319 5.2304168692954249 #
point $-1 53.351960045451328 -24.665246048466638 11.4134289884067 #
point $-1 53.351960045451328 -16.642577527427619 11.4134289884067 #
straight-curve $-1 61.173741874446854 11.294131846734937 87.538460998943734 0 0 -1 I I #
point $-1 61.173741874446854 11.294131846734937 20.981856002119606 #
straight-curve $-1 61.173741874446861 10.326955893973562 5.2304168692953965 0 1 0 I I #
point $-1 61.173741874446847 11.294131846734937 5.2304168692954249 #
point $-1 53.351960045451328 16.642577527427612 11.4134289884067 #
point $-1 53.351960045451328 24.665246048466635 11.4134289884067 #
End-of-ACIS-data 