500 0 21 0           
7 Unknown 11 ACIS 5.0 NT 24 Thu Mar 25 21:43:53 1999 
-1 9.9999999999999995e-007 1e-010 
body $-1 $21 $-1 $22 #
body $-1 $23 $-1 $24 #
body $-1 $25 $-1 $26 #
body $-1 $27 $-1 $28 #
body $-1 $29 $-1 $30 #
body $-1 $31 $-1 $32 #
body $-1 $33 $-1 $34 #
body $-1 $35 $-1 $36 #
body $-1 $37 $-1 $38 #
body $-1 $39 $-1 $40 #
body $-1 $41 $-1 $42 #
body $-1 $43 $-1 $44 #
body $-1 $45 $-1 $46 #
body $-1 $47 $-1 $48 #
body $-1 $49 $-1 $50 #
body $-1 $51 $-1 $52 #
body $-1 $53 $-1 $54 #
body $-1 $55 $-1 $56 #
body $-1 $57 $-1 $58 #
body $-1 $59 $-1 $60 #
body $-1 $61 $-1 $62 #
lump $-1 $-1 $63 $0 #
transform $-1 1 0 0 0 1 0 0 0 1 58.93124179815058 31.441805734055844 15.490321308817112 1 rotate no_reflect no_shear #
lump $-1 $-1 $64 $1 #
transform $-1 1 0 0 0 1 0 0 0 1 58.93124179815058 31.441805734055844 15.490321308817112 1 rotate no_reflect no_shear #
lump $-1 $-1 $65 $2 #
transform $-1 1 0 0 0 1 0 0 0 1 58.93124179815058 31.441805734055844 15.490321308817112 1 rotate no_reflect no_shear #
lump $-1 $-1 $66 $3 #
transform $-1 1 0 0 0 1 0 0 0 1 58.93124179815058 31.441805734055844 15.490321308817112 1 rotate no_reflect no_shear #
lump $-1 $-1 $67 $4 #
transform $-1 1 0 0 0 1 0 0 0 1 58.93124179815058 31.441805734055844 15.490321308817112 1 rotate no_reflect no_shear #
lump $-1 $-1 $68 $5 #
transform $-1 1 0 0 0 1 0 0 0 1 58.93124179815058 31.441805734055844 15.490321308817112 1 rotate no_reflect no_shear #
lump $-1 $-1 $69 $6 #
transform $-1 1 0 0 0 1 0 0 0 1 58.93124179815058 31.441805734055844 15.490321308817112 1 rotate no_reflect no_shear #
lump $-1 $-1 $70 $7 #
transform $-1 1 0 0 0 1 0 0 0 1 58.93124179815058 31.441805734055844 15.490321308817112 1 rotate no_reflect no_shear #
lump $-1 $-1 $71 $8 #
transform $-1 1 0 0 0 1 0 0 0 1 58.93124179815058 31.441805734055844 15.490321308817112 1 rotate no_reflect no_shear #
lump $-1 $-1 $72 $9 #
transform $-1 1 0 0 0 1 0 0 0 1 58.93124179815058 31.441805734055844 15.490321308817112 1 rotate no_reflect no_shear #
lump $-1 $-1 $73 $10 #
transform $-1 1 0 0 0 1 0 0 0 1 58.93124179815058 31.441805734055844 15.490321308817112 1 rotate no_reflect no_shear #
lump $-1 $-1 $74 $11 #
transform $-1 1 0 0 0 1 0 0 0 1 58.93124179815058 31.441805734055844 15.490321308817112 1 rotate no_reflect no_shear #
lump $-1 $-1 $75 $12 #
transform $-1 1 0 0 0 1 0 0 0 1 58.93124179815058 31.441805734055844 15.490321308817112 1 rotate no_reflect no_shear #
lump $-1 $-1 $76 $13 #
transform $-1 1 0 0 0 1 0 0 0 1 58.93124179815058 31.441805734055844 15.490321308817112 1 rotate no_reflect no_shear #
lump $-1 $-1 $77 $14 #
transform $-1 1 0 0 0 1 0 0 0 1 58.93124179815058 31.441805734055844 15.490321308817112 1 rotate no_reflect no_shear #
lump $-1 $-1 $78 $15 #
transform $-1 1 0 0 0 1 0 0 0 1 58.93124179815058 31.441805734055844 15.490321308817112 1 rotate no_reflect no_shear #
lump $-1 $-1 $79 $16 #
transform $-1 1 0 0 0 1 0 0 0 1 58.93124179815058 31.441805734055844 15.490321308817112 1 rotate no_reflect no_shear #
lump $-1 $-1 $80 $17 #
transform $-1 1 0 0 0 1 0 0 0 1 58.93124179815058 31.441805734055844 15.490321308817112 1 rotate no_reflect no_shear #
lump $-1 $-1 $81 $18 #
transform $-1 1 0 0 0 1 0 0 0 1 58.93124179815058 31.441805734055844 15.490321308817112 1 rotate no_reflect no_shear #
lump $-1 $-1 $82 $19 #
transform $-1 1 0 0 0 1 0 0 0 1 58.93124179815058 31.441805734055844 15.490321308817112 1 rotate no_reflect no_shear #
lump $-1 $-1 $83 $20 #
transform $-1 1 0 0 0 1 0 0 0 1 58.93124179815058 31.441805734055844 15.490321308817112 1 rotate no_reflect no_shear #
shell $-1 $-1 $-1 $84 $-1 $21 #
shell $-1 $-1 $-1 $85 $-1 $23 #
shell $-1 $-1 $-1 $86 $-1 $25 #
shell $-1 $-1 $-1 $87 $-1 $27 #
shell $-1 $-1 $-1 $88 $-1 $29 #
shell $-1 $-1 $-1 $89 $-1 $31 #
shell $-1 $-1 $-1 $90 $-1 $33 #
shell $-1 $-1 $-1 $91 $-1 $35 #
shell $-1 $-1 $-1 $92 $-1 $37 #
shell $-1 $-1 $-1 $93 $-1 $39 #
shell $-1 $-1 $-1 $94 $-1 $41 #
shell $-1 $-1 $-1 $95 $-1 $43 #
shell $-1 $-1 $-1 $96 $-1 $45 #
shell $-1 $-1 $-1 $97 $-1 $47 #
shell $-1 $-1 $-1 $98 $-1 $49 #
shell $-1 $-1 $-1 $99 $-1 $51 #
shell $-1 $-1 $-1 $100 $-1 $53 #
shell $-1 $-1 $-1 $101 $-1 $55 #
shell $-1 $-1 $-1 $102 $-1 $57 #
shell $-1 $-1 $-1 $103 $-1 $59 #
shell $-1 $-1 $-1 $104 $-1 $61 #
face $-1 $105 $106 $63 $-1 $107 forward single #
face $-1 $108 $109 $64 $-1 $110 forward single #
face $-1 $111 $112 $65 $-1 $113 reversed single #
face $-1 $114 $115 $66 $-1 $116 forward single #
face $-1 $117 $118 $67 $-1 $119 forward single #
face $-1 $120 $121 $68 $-1 $122 reversed single #
face $-1 $123 $124 $69 $-1 $125 forward single #
face $-1 $126 $127 $70 $-1 $128 forward single #
face $-1 $129 $130 $71 $-1 $131 forward single #
face $-1 $132 $133 $72 $-1 $134 reversed single #
face $-1 $135 $136 $73 $-1 $137 forward single #
face $-1 $138 $139 $74 $-1 $140 forward single #
face $-1 $141 $142 $75 $-1 $143 forward single #
face $-1 $144 $145 $76 $-1 $146 reversed single #
face $-1 $147 $148 $77 $-1 $149 forward single #
face $-1 $150 $151 $78 $-1 $152 forward single #
face $-1 $153 $154 $79 $-1 $155 forward single #
face $-1 $156 $157 $80 $-1 $158 reversed single #
face $-1 $159 $160 $81 $-1 $161 forward single #
face $-1 $162 $163 $82 $-1 $164 forward single #
face $-1 $165 $166 $83 $-1 $167 forward single #
face $-1 $168 $169 $63 $-1 $170 reversed single #
loop $-1 $-1 $171 $84 #
plane-surface $-1 0 0 15.490321308817112 0 0 1 1 0 0 forward_v I I I I #
face $-1 $172 $173 $64 $-1 $174 reversed single #
loop $-1 $-1 $175 $85 #
plane-surface $-1 -58.93124179815058 0 0 1 0 0 0 0 -1 forward_v I I I I #
face $-1 $176 $177 $65 $-1 $178 reversed single #
loop $-1 $-1 $179 $86 #
plane-surface $-1 41.484231927722263 -108.76655321698482 91.221144895396264 -1 0 0 0 -0.6560590369687036 0.75470957328743171 forward_v I I I I #
face $-1 $180 $181 $66 $-1 $182 forward single #
loop $-1 $183 $184 $87 #
cone-surface $-1 22.566357670144626 -21.418945455484561 6.0978474139433967 0 0.6560590369687036 -0.75470957328743171 3 0 0 1 I I 0 1 3 forward I I I I #
face $-1 $185 $186 $67 $-1 $187 forward single #
loop $-1 $188 $189 $88 #
cone-surface $-1 33.9170822246912 -21.418945455484561 6.0978474139433967 0 0.6560590369687036 -0.75470957328743171 3 0 0 1 I I 0 1 3 forward I I I I #
face $-1 $190 $191 $68 $-1 $192 reversed single #
loop $-1 $-1 $193 $89 #
plane-surface $-1 -46.119511747656247 63.575571784113691 136.43877499671615 1 0 0 0 -0.66913061440640931 -0.74314481823134659 forward_v I I I I #
face $-1 $194 $195 $69 $-1 $196 forward single #
loop $-1 $197 $198 $90 #
cone-surface $-1 -42.465097170665402 24.681451061415924 8.9998150309811287 0 -0.66913061440640931 -0.74314481823134659 1.5 0 0 1 I I 0 1 1.5 forward I I I I #
face $-1 $199 $200 $70 $-1 $201 forward single #
loop $-1 $202 $203 $91 #
cone-surface $-1 -36.983475305179148 24.681451061415924 8.9998150309811287 0 -0.66913061440640931 -0.74314481823134659 1.5 0 0 1 I I 0 1 1.5 forward I I I I #
face $-1 $204 $205 $71 $-1 $206 forward single #
loop $-1 $207 $208 $92 #
cone-surface $-1 -31.501853439692887 24.681451061415924 8.9998150309811287 0 -0.66913061440640931 -0.74314481823134659 1.5 0 0 1 I I 0 1 1.5 forward I I I I #
face $-1 $209 $210 $72 $-1 $211 reversed single #
loop $-1 $-1 $212 $93 #
plane-surface $-1 -19.85682336120454 63.575571784113691 136.43877499671615 1 0 0 0 -0.66913061440640931 -0.74314481823134659 forward_v I I I I #
face $-1 $213 $214 $73 $-1 $215 forward single #
loop $-1 $216 $217 $94 #
cone-surface $-1 -16.202408784213702 24.681451061415924 8.9998150309811287 0 -0.66913061440640931 -0.74314481823134659 1.5 0 0 1 I I 0 1 1.5 forward I I I I #
face $-1 $218 $219 $74 $-1 $220 forward single #
loop $-1 $221 $222 $95 #
cone-surface $-1 -10.720786918727441 24.681451061415924 8.9998150309811287 0 -0.66913061440640931 -0.74314481823134659 1.5 0 0 1 I I 0 1 1.5 forward I I I I #
face $-1 $223 $224 $75 $-1 $225 forward single #
loop $-1 $226 $227 $96 #
cone-surface $-1 -5.2391650532411802 24.681451061415924 8.9998150309811287 0 -0.66913061440640931 -0.74314481823134659 1.5 0 0 1 I I 0 1 1.5 forward I I I I #
face $-1 $228 $229 $76 $-1 $230 reversed single #
loop $-1 $-1 $231 $97 #
plane-surface $-1 6.4058650252471754 63.575571784113691 136.43877499671615 1 0 0 0 -0.66913061440640931 -0.74314481823134659 forward_v I I I I #
face $-1 $232 $233 $77 $-1 $234 forward single #
loop $-1 $235 $236 $98 #
cone-surface $-1 10.060279602238012 24.681451061415924 8.9998150309811287 0 -0.66913061440640931 -0.74314481823134659 1.5 0 0 1 I I 0 1 1.5 forward I I I I #
face $-1 $237 $238 $78 $-1 $239 forward single #
loop $-1 $240 $241 $99 #
cone-surface $-1 15.541901467724273 24.681451061415924 8.9998150309811287 0 -0.66913061440640931 -0.74314481823134659 1.5 0 0 1 I I 0 1 1.5 forward I I I I #
face $-1 $242 $243 $79 $-1 $244 forward single #
loop $-1 $245 $246 $100 #
cone-surface $-1 21.023523333210534 24.681451061415924 8.9998150309811287 0 -0.66913061440640931 -0.74314481823134659 1.5 0 0 1 I I 0 1 1.5 forward I I I I #
face $-1 $247 $248 $80 $-1 $249 reversed single #
loop $-1 $-1 $250 $101 #
plane-surface $-1 32.668553411698888 63.575571784113691 136.43877499671615 1 0 0 0 -0.66913061440640931 -0.74314481823134659 forward_v I I I I #
face $-1 $251 $252 $81 $-1 $253 forward single #
loop $-1 $254 $255 $102 #
cone-surface $-1 36.322967988689726 24.681451061415924 8.9998150309811287 0 -0.66913061440640931 -0.74314481823134659 1.5 0 0 1 I I 0 1 1.5 forward I I I I #
face $-1 $256 $257 $82 $-1 $258 forward single #
loop $-1 $259 $260 $103 #
cone-surface $-1 41.804589854175987 24.681451061415924 8.9998150309811287 0 -0.66913061440640931 -0.74314481823134659 1.5 0 0 1 I I 0 1 1.5 forward I I I I #
face $-1 $261 $262 $83 $-1 $263 forward single #
loop $-1 $264 $265 $104 #
cone-surface $-1 47.286211719662248 24.681451061415924 8.9998150309811287 0 -0.66913061440640931 -0.74314481823134659 1.5 0 0 1 I I 0 1 1.5 forward I I I I #
face $-1 $266 $267 $63 $-1 $268 reversed single #
loop $-1 $-1 $269 $105 #
plane-surface $-1 0 0 -15.490321308817112 0 0 1 1 0 0 forward_v I I I I #
coedge $-1 $270 $271 $272 $273 forward $106 $-1 #
face $-1 $274 $275 $64 $-1 $276 forward single #
loop $-1 $-1 $277 $108 #
plane-surface $-1 0 31.441805734055844 0 0 -1 0 0 0 -1 forward_v I I I I #
coedge $-1 $278 $279 $280 $281 forward $109 $-1 #
face $-1 $282 $283 $65 $-1 $284 reversed single #
loop $-1 $-1 $285 $111 #
plane-surface $-1 28.24171994741792 -31.441805734055848 2.2692001938348909 0 -0.6560590369687036 0.75470957328743171 1 0 0 forward_v I I I I #
coedge $-1 $286 $287 $288 $289 reversed $112 $-1 #
face $-1 $-1 $290 $66 $-1 $291 forward single #
loop $-1 $292 $293 $114 #
cone-surface $-1 22.566357670144626 -18.016576478459939 2.1838697166296406 0 0.6560590369687036 -0.75470957328743171 1.5 0 0 1 I I -0.70710678118654757 0.70710678118654757 1.5 forward I I I I #
loop $-1 $-1 $294 $87 #
coedge $-1 $184 $184 $295 $296 reversed $115 $-1 #
face $-1 $-1 $297 $67 $-1 $298 forward single #
loop $-1 $299 $300 $117 #
cone-surface $-1 33.9170822246912 -18.016576478459939 2.1838697166296406 0 0.6560590369687036 -0.75470957328743171 1.5 0 0 1 I I -0.70710678118654757 0.70710678118654757 1.5 forward I I I I #
loop $-1 $-1 $301 $88 #
coedge $-1 $189 $189 $302 $303 reversed $118 $-1 #
face $-1 $304 $305 $68 $-1 $306 reversed single #
loop $-1 $-1 $307 $120 #
plane-surface $-1 -36.983475305179148 -15.289824280144643 48.849881048247852 0 0.66913061440640931 0.74314481823134659 1 0 0 forward_v I I I I #
coedge $-1 $308 $309 $310 $311 reversed $121 $-1 #
face $-1 $-1 $312 $69 $-1 $313 forward single #
loop $-1 $314 $315 $123 #
cone-surface $-1 -42.465097170665402 22.260291570590791 6.3108450586320224 0 -0.66913061440640931 -0.74314481823134659 0.75 0 0 1 I I -0.70710678118654757 0.70710678118654757 0.75 forward I I I I #
loop $-1 $-1 $316 $90 #
coedge $-1 $198 $198 $317 $318 reversed $124 $-1 #
face $-1 $-1 $319 $70 $-1 $320 forward single #
loop $-1 $321 $322 $126 #
cone-surface $-1 -36.983475305179148 22.260291570590791 6.3108450586320224 0 -0.66913061440640931 -0.74314481823134659 0.75 0 0 1 I I -0.70710678118654757 0.70710678118654757 0.75 forward I I I I #
loop $-1 $-1 $323 $91 #
coedge $-1 $203 $203 $324 $325 reversed $127 $-1 #
face $-1 $-1 $326 $71 $-1 $327 forward single #
loop $-1 $328 $329 $129 #
cone-surface $-1 -31.501853439692887 22.260291570590791 6.3108450586320224 0 -0.66913061440640931 -0.74314481823134659 0.75 0 0 1 I I -0.70710678118654757 0.70710678118654757 0.75 forward I I I I #
loop $-1 $-1 $330 $92 #
coedge $-1 $208 $208 $331 $332 reversed $130 $-1 #
face $-1 $333 $334 $72 $-1 $335 reversed single #
loop $-1 $-1 $336 $132 #
plane-surface $-1 -10.720786918727441 -15.289824280144643 48.849881048247852 0 0.66913061440640931 0.74314481823134659 1 0 0 forward_v I I I I #
coedge $-1 $337 $338 $339 $340 reversed $133 $-1 #
face $-1 $-1 $341 $73 $-1 $342 forward single #
loop $-1 $343 $344 $135 #
cone-surface $-1 -16.202408784213702 22.260291570590791 6.3108450586320224 0 -0.66913061440640931 -0.74314481823134659 0.75 0 0 1 I I -0.70710678118654757 0.70710678118654757 0.75 forward I I I I #
loop $-1 $-1 $345 $94 #
coedge $-1 $217 $217 $346 $347 reversed $136 $-1 #
face $-1 $-1 $348 $74 $-1 $349 forward single #
loop $-1 $350 $351 $138 #
cone-surface $-1 -10.720786918727441 22.260291570590791 6.3108450586320224 0 -0.66913061440640931 -0.74314481823134659 0.75 0 0 1 I I -0.70710678118654757 0.70710678118654757 0.75 forward I I I I #
loop $-1 $-1 $352 $95 #
coedge $-1 $222 $222 $353 $354 reversed $139 $-1 #
face $-1 $-1 $355 $75 $-1 $356 forward single #
loop $-1 $357 $358 $141 #
cone-surface $-1 -5.2391650532411802 22.260291570590791 6.3108450586320224 0 -0.66913061440640931 -0.74314481823134659 0.75 0 0 1 I I -0.70710678118654757 0.70710678118654757 0.75 forward I I I I #
loop $-1 $-1 $359 $96 #
coedge $-1 $227 $227 $360 $361 reversed $142 $-1 #
face $-1 $362 $363 $76 $-1 $364 reversed single #
loop $-1 $-1 $365 $144 #
plane-surface $-1 15.541901467724273 -15.289824280144643 48.849881048247852 0 0.66913061440640931 0.74314481823134659 1 0 0 forward_v I I I I #
coedge $-1 $366 $367 $368 $369 reversed $145 $-1 #
face $-1 $-1 $370 $77 $-1 $371 forward single #
loop $-1 $372 $373 $147 #
cone-surface $-1 10.060279602238012 22.260291570590791 6.3108450586320224 0 -0.66913061440640931 -0.74314481823134659 0.75 0 0 1 I I -0.70710678118654757 0.70710678118654757 0.75 forward I I I I #
loop $-1 $-1 $374 $98 #
coedge $-1 $236 $236 $375 $376 reversed $148 $-1 #
face $-1 $-1 $377 $78 $-1 $378 forward single #
loop $-1 $379 $380 $150 #
cone-surface $-1 15.541901467724273 22.260291570590791 6.3108450586320224 0 -0.66913061440640931 -0.74314481823134659 0.75 0 0 1 I I -0.70710678118654757 0.70710678118654757 0.75 forward I I I I #
loop $-1 $-1 $381 $99 #
coedge $-1 $241 $241 $382 $383 reversed $151 $-1 #
face $-1 $-1 $384 $79 $-1 $385 forward single #
loop $-1 $386 $387 $153 #
cone-surface $-1 21.023523333210534 22.260291570590791 6.3108450586320224 0 -0.66913061440640931 -0.74314481823134659 0.75 0 0 1 I I -0.70710678118654757 0.70710678118654757 0.75 forward I I I I #
loop $-1 $-1 $388 $100 #
coedge $-1 $246 $246 $389 $390 reversed $154 $-1 #
face $-1 $391 $392 $80 $-1 $393 reversed single #
loop $-1 $-1 $394 $156 #
plane-surface $-1 41.804589854175987 -15.289824280144643 48.849881048247852 0 0.66913061440640931 0.74314481823134659 1 0 0 forward_v I I I I #
coedge $-1 $395 $396 $397 $398 reversed $157 $-1 #
face $-1 $-1 $399 $81 $-1 $400 forward single #
loop $-1 $401 $402 $159 #
cone-surface $-1 36.322967988689726 22.260291570590791 6.3108450586320224 0 -0.66913061440640931 -0.74314481823134659 0.75 0 0 1 I I -0.70710678118654757 0.70710678118654757 0.75 forward I I I I #
loop $-1 $-1 $403 $102 #
coedge $-1 $255 $255 $404 $405 reversed $160 $-1 #
face $-1 $-1 $406 $82 $-1 $407 forward single #
loop $-1 $408 $409 $162 #
cone-surface $-1 41.804589854175987 22.260291570590791 6.3108450586320224 0 -0.66913061440640931 -0.74314481823134659 0.75 0 0 1 I I -0.70710678118654757 0.70710678118654757 0.75 forward I I I I #
loop $-1 $-1 $410 $103 #
coedge $-1 $260 $260 $411 $412 reversed $163 $-1 #
face $-1 $-1 $413 $83 $-1 $414 forward single #
loop $-1 $415 $416 $165 #
cone-surface $-1 47.286211719662248 22.260291570590791 6.3108450586320224 0 -0.66913061440640931 -0.74314481823134659 0.75 0 0 1 I I -0.70710678118654757 0.70710678118654757 0.75 forward I I I I #
loop $-1 $-1 $417 $104 #
coedge $-1 $265 $265 $418 $419 reversed $166 $-1 #
face $-1 $420 $421 $63 $-1 $422 reversed single #
loop $-1 $-1 $423 $168 #
plane-surface $-1 0 -31.441805734055844 0 0 1 0 0 0 1 forward_v I I I I #
coedge $-1 $424 $425 $426 $427 forward $169 $-1 #
coedge $-1 $428 $171 $429 $430 forward $106 $-1 #
coedge $-1 $171 $428 $431 $432 forward $106 $-1 #
coedge $-1 $433 $434 $171 $273 reversed $435 $-1 #
edge $-1 $436 -31.441805734055844 $437 31.441805734055844 $272 $438 forward 7 unknown #
face $-1 $439 $440 $64 $-1 $441 reversed single #
loop $-1 $-1 $280 $172 #
plane-surface $-1 -65.337106823397747 0 -8.2158693835320413 0 0 1 1 0 0 forward_v I I I I #
coedge $-1 $442 $443 $279 $444 forward $173 $-1 #
coedge $-1 $445 $175 $446 $447 reversed $109 $-1 #
coedge $-1 $175 $445 $277 $444 reversed $109 $-1 #
coedge $-1 $448 $449 $175 $281 reversed $275 $-1 #
edge $-1 $450 -31.441805734055844 $451 31.441805734055844 $280 $452 forward 7 unknown #
face $-1 $453 $454 $65 $-1 $455 reversed single #
loop $-1 $-1 $456 $176 #
plane-surface $-1 14.999207967113577 -108.76655321698482 91.221144895396264 1 0 0 0 0.6560590369687036 -0.75470957328743171 forward_v I I I I #
coedge $-1 $457 $458 $459 $460 reversed $177 $-1 #
coedge $-1 $287 $179 $461 $462 reversed $112 $-1 #
coedge $-1 $179 $286 $457 $463 reversed $112 $-1 #
coedge $-1 $459 $464 $179 $289 forward $465 $-1 #
edge $-1 $466 22.941470874436565 $467 38.150630588436016 $288 $468 forward 7 unknown #
loop $-1 $-1 $295 $180 #
plane-surface $-1 28.24171994741792 -31.441805734055848 2.2692001938348909 0 -0.6560590369687036 0.75470957328743171 1 0 0 forward_v I I I I #
loop $-1 $-1 $469 $114 #
coedge $-1 $293 $293 $294 $470 reversed $181 $-1 #
coedge $-1 $294 $294 $293 $470 forward $183 $-1 #
coedge $-1 $295 $295 $184 $296 forward $290 $-1 #
edge $-1 $471 2.7163928252304918e-016 $471 6.2831853071796004 $295 $472 forward 7 unknown #
loop $-1 $-1 $302 $185 #
plane-surface $-1 28.24171994741792 -31.441805734055848 2.2692001938348909 0 -0.6560590369687036 0.75470957328743171 1 0 0 forward_v I I I I #
loop $-1 $-1 $473 $117 #
coedge $-1 $300 $300 $301 $474 reversed $186 $-1 #
coedge $-1 $301 $301 $300 $474 forward $188 $-1 #
coedge $-1 $302 $302 $189 $303 forward $297 $-1 #
edge $-1 $475 2.7163928252304918e-016 $475 6.2831853071796004 $302 $476 forward 7 unknown #
face $-1 $477 $478 $68 $-1 $479 forward single #
loop $-1 $-1 $480 $190 #
plane-surface $-1 -27.847438862702049 63.575571784113691 136.43877499671615 -1 0 0 0 0.66913061440640931 0.74314481823134659 forward_v I I I I #
coedge $-1 $481 $482 $483 $484 reversed $191 $-1 #
coedge $-1 $309 $193 $485 $486 reversed $121 $-1 #
coedge $-1 $193 $308 $481 $487 reversed $121 $-1 #
coedge $-1 $483 $488 $193 $311 forward $478 $-1 #
edge $-1 $489 0.34598015800100157 $490 10.028066443240192 $310 $491 forward 7 unknown #
loop $-1 $-1 $317 $194 #
plane-surface $-1 -36.983475305179148 -15.289824280144643 48.849881048247852 0 0.66913061440640931 0.74314481823134659 1 0 0 forward_v I I I I #
loop $-1 $-1 $492 $123 #
coedge $-1 $315 $315 $316 $493 reversed $195 $-1 #
coedge $-1 $316 $316 $315 $493 forward $197 $-1 #
coedge $-1 $317 $317 $198 $318 forward $312 $-1 #
edge $-1 $494 6.1710897933235583e-016 $494 6.2831853071796013 $317 $495 forward 7 unknown #
loop $-1 $-1 $324 $199 #
plane-surface $-1 -36.983475305179148 -15.289824280144643 48.849881048247852 0 0.66913061440640931 0.74314481823134659 1 0 0 forward_v I I I I #
loop $-1 $-1 $496 $126 #
coedge $-1 $322 $322 $323 $497 reversed $200 $-1 #
coedge $-1 $323 $323 $322 $497 forward $202 $-1 #
coedge $-1 $324 $324 $203 $325 forward $319 $-1 #
edge $-1 $498 6.1710897933235583e-016 $498 6.2831853071796013 $324 $499 forward 7 unknown #
loop $-1 $-1 $331 $204 #
plane-surface $-1 -36.983475305179148 -15.289824280144643 48.849881048247852 0 0.66913061440640931 0.74314481823134659 1 0 0 forward_v I I I I #
loop $-1 $-1 $500 $129 #
coedge $-1 $329 $329 $330 $501 reversed $205 $-1 #
coedge $-1 $330 $330 $329 $501 forward $207 $-1 #
coedge $-1 $331 $331 $208 $332 forward $326 $-1 #
edge $-1 $502 6.1710897933235583e-016 $502 6.2831853071796013 $331 $503 forward 7 unknown #
face $-1 $504 $505 $72 $-1 $506 forward single #
loop $-1 $-1 $507 $209 #
plane-surface $-1 -1.5847504762503437 63.575571784113691 136.43877499671615 -1 0 0 0 0.66913061440640931 0.74314481823134659 forward_v I I I I #
coedge $-1 $508 $509 $510 $511 reversed $210 $-1 #
coedge $-1 $338 $212 $512 $513 reversed $133 $-1 #
coedge $-1 $212 $337 $508 $514 reversed $133 $-1 #
coedge $-1 $510 $515 $212 $340 forward $505 $-1 #
edge $-1 $516 0.34598015800100157 $517 10.028066443240192 $339 $518 forward 7 unknown #
loop $-1 $-1 $346 $213 #
plane-surface $-1 -10.720786918727441 -15.289824280144643 48.849881048247852 0 0.66913061440640931 0.74314481823134659 1 0 0 forward_v I I I I #
loop $-1 $-1 $519 $135 #
coedge $-1 $344 $344 $345 $520 reversed $214 $-1 #
coedge $-1 $345 $345 $344 $520 forward $216 $-1 #
coedge $-1 $346 $346 $217 $347 forward $341 $-1 #
edge $-1 $521 6.1710897933235583e-016 $521 6.2831853071796013 $346 $522 forward 7 unknown #
loop $-1 $-1 $353 $218 #
plane-surface $-1 -10.720786918727441 -15.289824280144643 48.849881048247852 0 0.66913061440640931 0.74314481823134659 1 0 0 forward_v I I I I #
loop $-1 $-1 $523 $138 #
coedge $-1 $351 $351 $352 $524 reversed $219 $-1 #
coedge $-1 $352 $352 $351 $524 forward $221 $-1 #
coedge $-1 $353 $353 $222 $354 forward $348 $-1 #
edge $-1 $525 6.1710897933235583e-016 $525 6.2831853071796013 $353 $526 forward 7 unknown #
loop $-1 $-1 $360 $223 #
plane-surface $-1 -10.720786918727441 -15.289824280144643 48.849881048247852 0 0.66913061440640931 0.74314481823134659 1 0 0 forward_v I I I I #
loop $-1 $-1 $527 $141 #
coedge $-1 $358 $358 $359 $528 reversed $224 $-1 #
coedge $-1 $359 $359 $358 $528 forward $226 $-1 #
coedge $-1 $360 $360 $227 $361 forward $355 $-1 #
edge $-1 $529 6.1710897933235583e-016 $529 6.2831853071796013 $360 $530 forward 7 unknown #
face $-1 $531 $532 $76 $-1 $533 forward single #
loop $-1 $-1 $534 $228 #
plane-surface $-1 24.677937910201372 63.575571784113691 136.43877499671615 -1 0 0 0 0.66913061440640931 0.74314481823134659 forward_v I I I I #
coedge $-1 $535 $536 $537 $538 reversed $229 $-1 #
coedge $-1 $367 $231 $539 $540 reversed $145 $-1 #
coedge $-1 $231 $366 $535 $541 reversed $145 $-1 #
coedge $-1 $537 $542 $231 $369 forward $532 $-1 #
edge $-1 $543 0.34598015800100157 $544 10.028066443240192 $368 $545 forward 7 unknown #
loop $-1 $-1 $375 $232 #
plane-surface $-1 15.541901467724273 -15.289824280144643 48.849881048247852 0 0.66913061440640931 0.74314481823134659 1 0 0 forward_v I I I I #
loop $-1 $-1 $546 $147 #
coedge $-1 $373 $373 $374 $547 reversed $233 $-1 #
coedge $-1 $374 $374 $373 $547 forward $235 $-1 #
coedge $-1 $375 $375 $236 $376 forward $370 $-1 #
edge $-1 $548 6.1710897933235583e-016 $548 6.2831853071796013 $375 $549 forward 7 unknown #
loop $-1 $-1 $382 $237 #
plane-surface $-1 15.541901467724273 -15.289824280144643 48.849881048247852 0 0.66913061440640931 0.74314481823134659 1 0 0 forward_v I I I I #
loop $-1 $-1 $550 $150 #
coedge $-1 $380 $380 $381 $551 reversed $238 $-1 #
coedge $-1 $381 $381 $380 $551 forward $240 $-1 #
coedge $-1 $382 $382 $241 $383 forward $377 $-1 #
edge $-1 $552 6.1710897933235583e-016 $552 6.2831853071796013 $382 $553 forward 7 unknown #
loop $-1 $-1 $389 $242 #
plane-surface $-1 15.541901467724273 -15.289824280144643 48.849881048247852 0 0.66913061440640931 0.74314481823134659 1 0 0 forward_v I I I I #
loop $-1 $-1 $554 $153 #
coedge $-1 $387 $387 $388 $555 reversed $243 $-1 #
coedge $-1 $388 $388 $387 $555 forward $245 $-1 #
coedge $-1 $389 $389 $246 $390 forward $384 $-1 #
edge $-1 $556 6.1710897933235583e-016 $556 6.2831853071796013 $389 $557 forward 7 unknown #
face $-1 $558 $559 $80 $-1 $560 forward single #
loop $-1 $-1 $561 $247 #
plane-surface $-1 50.940626296653086 63.575571784113691 136.43877499671615 -1 0 0 0 0.66913061440640931 0.74314481823134659 forward_v I I I I #
coedge $-1 $562 $563 $564 $565 reversed $248 $-1 #
coedge $-1 $396 $250 $566 $567 reversed $157 $-1 #
coedge $-1 $250 $395 $562 $568 reversed $157 $-1 #
coedge $-1 $564 $569 $250 $398 forward $559 $-1 #
edge $-1 $570 0.34598015800100157 $571 10.028066443240192 $397 $572 forward 7 unknown #
loop $-1 $-1 $404 $251 #
plane-surface $-1 41.804589854175987 -15.289824280144643 48.849881048247852 0 0.66913061440640931 0.74314481823134659 1 0 0 forward_v I I I I #
loop $-1 $-1 $573 $159 #
coedge $-1 $402 $402 $403 $574 reversed $252 $-1 #
coedge $-1 $403 $403 $402 $574 forward $254 $-1 #
coedge $-1 $404 $404 $255 $405 forward $399 $-1 #
edge $-1 $575 6.1710897933235583e-016 $575 6.2831853071796013 $404 $576 forward 7 unknown #
loop $-1 $-1 $411 $256 #
plane-surface $-1 41.804589854175987 -15.289824280144643 48.849881048247852 0 0.66913061440640931 0.74314481823134659 1 0 0 forward_v I I I I #
loop $-1 $-1 $577 $162 #
coedge $-1 $409 $409 $410 $578 reversed $257 $-1 #
coedge $-1 $410 $410 $409 $578 forward $259 $-1 #
coedge $-1 $411 $411 $260 $412 forward $406 $-1 #
edge $-1 $579 6.1710897933235583e-016 $579 6.2831853071796013 $411 $580 forward 7 unknown #
loop $-1 $-1 $418 $261 #
plane-surface $-1 41.804589854175987 -15.289824280144643 48.849881048247852 0 0.66913061440640931 0.74314481823134659 1 0 0 forward_v I I I I #
loop $-1 $-1 $581 $165 #
coedge $-1 $416 $416 $417 $582 reversed $262 $-1 #
coedge $-1 $417 $417 $416 $582 forward $264 $-1 #
coedge $-1 $418 $418 $265 $419 forward $413 $-1 #
edge $-1 $583 6.1710897933235583e-016 $583 6.2831853071796013 $418 $584 forward 7 unknown #
face $-1 $585 $586 $63 $-1 $587 reversed single #
loop $-1 $-1 $588 $266 #
plane-surface $-1 -58.93124179815058 0 0 1 0 0 0 0 -1 forward_v I I I I #
coedge $-1 $589 $431 $590 $591 forward $267 $-1 #
coedge $-1 $592 $269 $589 $593 forward $169 $-1 #
coedge $-1 $269 $592 $594 $595 forward $169 $-1 #
coedge $-1 $434 $433 $269 $427 reversed $435 $-1 #
edge $-1 $596 -31.441805734055844 $597 31.441805734055844 $426 $598 forward 7 unknown #
coedge $-1 $271 $270 $599 $600 forward $106 $-1 #
coedge $-1 $601 $602 $270 $430 reversed $586 $-1 #
edge $-1 $437 -58.93124179815058 $603 58.93124179815058 $429 $604 forward 7 unknown #
coedge $-1 $423 $605 $271 $432 reversed $267 $-1 #
edge $-1 $606 -58.93124179815058 $436 58.93124179815058 $431 $607 forward 7 unknown #
coedge $-1 $426 $272 $605 $608 forward $435 $-1 #
coedge $-1 $272 $426 $601 $609 reversed $435 $-1 #
loop $-1 $-1 $433 $585 #
vertex $-1 $273 $610 #
vertex $-1 $273 $611 #
straight-curve $-1 58.93124179815058 0 15.490321308817112 0 1 0 I I #
face $-1 $612 $613 $64 $-1 $614 reversed single #
loop $-1 $-1 $615 $274 #
plane-surface $-1 -71.742971848644913 0 -11.853095346174577 1 0 0 0 0 -1 forward_v I I I I #
coedge $-1 $616 $277 $617 $618 reversed $173 $-1 #
coedge $-1 $277 $616 $448 $619 reversed $173 $-1 #
edge $-1 $450 8.2158693835320413 $620 15.490321308817112 $277 $621 forward 7 unknown #
coedge $-1 $279 $278 $622 $623 reversed $109 $-1 #
coedge $-1 $624 $625 $278 $447 forward $626 $-1 #
edge $-1 $627 -15.490321308817112 $451 -8.2158693835320413 $446 $628 forward 7 unknown #
coedge $-1 $629 $280 $443 $619 forward $275 $-1 #
coedge $-1 $280 $629 $624 $630 forward $275 $-1 #
vertex $-1 $444 $631 #
vertex $-1 $630 $632 #
straight-curve $-1 -58.93124179815058 0 -8.2158693835320413 0 -1 0 I I #
face $-1 $-1 $465 $65 $-1 $633 forward single #
loop $-1 $-1 $634 $282 #
plane-surface $-1 0 -31.441805734055844 0 0 1 0 0 0 1 forward_v I I I I #
coedge $-1 $635 $636 $637 $638 reversed $283 $-1 #
coedge $-1 $639 $285 $287 $463 forward $177 $-1 #
coedge $-1 $285 $639 $635 $640 forward $177 $-1 #
coedge $-1 $637 $288 $285 $460 forward $465 $-1 #
edge $-1 $467 -27.363371954013303 $641 -0.878347993404617 $459 $642 forward 7 unknown #
coedge $-1 $643 $644 $286 $462 forward $454 $-1 #
edge $-1 $645 -43.341372253863241 $466 -30.12025113888102 $461 $646 forward 7 unknown #
edge $-1 $467 -20.152334424154752 $645 -4.72070819993692e-015 $287 $647 forward 7 unknown #
coedge $-1 $288 $637 $643 $648 forward $465 $-1 #
loop $-1 $-1 $637 $453 #
vertex $-1 $462 $649 #
vertex $-1 $289 $650 #
straight-curve $-1 41.484231927722263 -54.383276608492409 15.490321308817109 0 1 0 I I #
coedge $-1 $469 $469 $-1 $651 reversed $292 $-1 #
edge $-1 $652 0 $652 6.2831853071796004 $293 $653 forward 7 unknown #
vertex $-1 $296 $654 #
ellipse-curve $-1 22.566357670144626 -23.83722587705612 8.8797607513259997 0 -0.6560590369687036 0.75470957328743171 3 0 0 1 I I #
coedge $-1 $473 $473 $-1 $655 reversed $299 $-1 #
edge $-1 $656 0 $656 6.2831853071796004 $300 $657 forward 7 unknown #
vertex $-1 $303 $658 #
ellipse-curve $-1 33.9170822246912 -23.83722587705612 8.8797607513259997 0 -0.6560590369687036 0.75470957328743171 3 0 0 1 I I #
face $-1 $-1 $659 $68 $-1 $660 reversed single #
loop $-1 $-1 $310 $304 #
plane-surface $-1 0 0 15.490321308817112 0 0 1 1 0 0 forward_v I I I I #
coedge $-1 $661 $662 $663 $664 reversed $305 $-1 #
coedge $-1 $665 $307 $309 $487 forward $191 $-1 #
coedge $-1 $307 $665 $661 $666 forward $191 $-1 #
coedge $-1 $663 $310 $307 $484 forward $478 $-1 #
edge $-1 $490 -27.627774095066673 $667 -9.3557012101124748 $483 $668 forward 7 unknown #
coedge $-1 $669 $670 $308 $486 forward $659 $-1 #
edge $-1 $671 -61.446856027861735 $489 -52.729066189540958 $485 $672 forward 7 unknown #
edge $-1 $490 49.855079144785876 $671 62.883611468111702 $309 $673 forward 7 unknown #
coedge $-1 $310 $663 $669 $674 forward $478 $-1 #
vertex $-1 $486 $675 #
vertex $-1 $311 $676 #
straight-curve $-1 -46.119511747656247 31.787785892056846 15.490321308817116 0 -1 0 I I #
coedge $-1 $492 $492 $-1 $677 reversed $314 $-1 #
edge $-1 $678 0 $678 6.2831853071796004 $315 $679 forward 7 unknown #
vertex $-1 $318 $680 #
ellipse-curve $-1 -42.465097170665402 26.600762591436254 11.131426389656729 0 0.66913061440640931 0.74314481823134659 1.5 0 0 1 I I #
coedge $-1 $496 $496 $-1 $681 reversed $321 $-1 #
edge $-1 $682 0 $682 6.2831853071796004 $322 $683 forward 7 unknown #
vertex $-1 $325 $684 #
ellipse-curve $-1 -36.983475305179148 26.600762591436254 11.131426389656729 0 0.66913061440640931 0.74314481823134659 1.5 0 0 1 I I #
coedge $-1 $500 $500 $-1 $685 reversed $328 $-1 #
edge $-1 $686 0 $686 6.2831853071796004 $329 $687 forward 7 unknown #
vertex $-1 $332 $688 #
ellipse-curve $-1 -31.501853439692887 26.600762591436254 11.131426389656729 0 0.66913061440640931 0.74314481823134659 1.5 0 0 1 I I #
face $-1 $-1 $689 $72 $-1 $690 reversed single #
loop $-1 $-1 $339 $333 #
plane-surface $-1 0 0 15.490321308817112 0 0 1 1 0 0 forward_v I I I I #
coedge $-1 $691 $692 $693 $694 reversed $334 $-1 #
coedge $-1 $695 $336 $338 $514 forward $210 $-1 #
coedge $-1 $336 $695 $691 $696 forward $210 $-1 #
coedge $-1 $693 $339 $336 $511 forward $505 $-1 #
edge $-1 $517 -14.49642990184082 $697 3.7756429831133769 $510 $698 forward 7 unknown #
coedge $-1 $699 $700 $337 $513 forward $689 $-1 #
edge $-1 $701 -61.446856027861735 $516 -52.729066189540958 $512 $702 forward 7 unknown #
edge $-1 $517 49.855079144785876 $701 62.883611468111702 $338 $703 forward 7 unknown #
coedge $-1 $339 $693 $699 $704 forward $505 $-1 #
vertex $-1 $340 $705 #
vertex $-1 $340 $706 #
straight-curve $-1 -19.85682336120454 31.787785892056846 15.490321308817116 0 -1 0 I I #
coedge $-1 $519 $519 $-1 $707 reversed $343 $-1 #
edge $-1 $708 0 $708 6.2831853071796004 $344 $709 forward 7 unknown #
vertex $-1 $347 $710 #
ellipse-curve $-1 -16.202408784213702 26.600762591436254 11.131426389656729 0 0.66913061440640931 0.74314481823134659 1.5 0 0 1 I I #
coedge $-1 $523 $523 $-1 $711 reversed $350 $-1 #
edge $-1 $712 0 $712 6.2831853071796004 $351 $713 forward 7 unknown #
vertex $-1 $354 $714 #
ellipse-curve $-1 -10.720786918727441 26.600762591436254 11.131426389656729 0 0.66913061440640931 0.74314481823134659 1.5 0 0 1 I I #
coedge $-1 $527 $527 $-1 $715 reversed $357 $-1 #
edge $-1 $716 0 $716 6.2831853071796004 $358 $717 forward 7 unknown #
vertex $-1 $361 $718 #
ellipse-curve $-1 -5.2391650532411802 26.600762591436254 11.131426389656729 0 0.66913061440640931 0.74314481823134659 1.5 0 0 1 I I #
face $-1 $-1 $719 $76 $-1 $720 reversed single #
loop $-1 $-1 $368 $362 #
plane-surface $-1 0 0 15.490321308817112 0 0 1 1 0 0 forward_v I I I I #
coedge $-1 $721 $722 $723 $724 reversed $363 $-1 #
coedge $-1 $725 $365 $367 $541 forward $229 $-1 #
coedge $-1 $365 $725 $721 $726 forward $229 $-1 #
coedge $-1 $723 $368 $365 $538 forward $532 $-1 #
edge $-1 $544 -1.365085708614961 $727 16.906987176339236 $537 $728 forward 7 unknown #
coedge $-1 $729 $730 $366 $540 forward $719 $-1 #
edge $-1 $731 -61.446856027861735 $543 -52.729066189540958 $539 $732 forward 7 unknown #
edge $-1 $544 49.855079144785876 $731 62.883611468111702 $367 $733 forward 7 unknown #
coedge $-1 $368 $723 $729 $734 forward $532 $-1 #
vertex $-1 $369 $735 #
vertex $-1 $369 $736 #
straight-curve $-1 6.4058650252471754 31.787785892056846 15.490321308817116 0 -1 0 I I #
coedge $-1 $546 $546 $-1 $737 reversed $372 $-1 #
edge $-1 $738 0 $738 6.2831853071796004 $373 $739 forward 7 unknown #
vertex $-1 $376 $740 #
ellipse-curve $-1 10.060279602238012 26.600762591436254 11.131426389656729 0 0.66913061440640931 0.74314481823134659 1.5 0 0 1 I I #
coedge $-1 $550 $550 $-1 $741 reversed $379 $-1 #
edge $-1 $742 0 $742 6.2831853071796004 $380 $743 forward 7 unknown #
vertex $-1 $383 $744 #
ellipse-curve $-1 15.541901467724273 26.600762591436254 11.131426389656729 0 0.66913061440640931 0.74314481823134659 1.5 0 0 1 I I #
coedge $-1 $554 $554 $-1 $745 reversed $386 $-1 #
edge $-1 $746 0 $746 6.2831853071796004 $387 $747 forward 7 unknown #
vertex $-1 $390 $748 #
ellipse-curve $-1 21.023523333210534 26.600762591436254 11.131426389656729 0 0.66913061440640931 0.74314481823134659 1.5 0 0 1 I I #
face $-1 $-1 $749 $80 $-1 $750 reversed single #
loop $-1 $-1 $397 $391 #
plane-surface $-1 0 0 15.490321308817112 0 0 1 1 0 0 forward_v I I I I #
coedge $-1 $751 $752 $753 $754 reversed $392 $-1 #
coedge $-1 $755 $394 $396 $568 forward $248 $-1 #
coedge $-1 $394 $755 $751 $756 forward $248 $-1 #
coedge $-1 $753 $397 $394 $565 forward $559 $-1 #
edge $-1 $571 11.766258484610894 $757 30.038331369565093 $564 $758 forward 7 unknown #
coedge $-1 $759 $760 $395 $567 forward $749 $-1 #
edge $-1 $761 -61.446856027861735 $570 -52.729066189540958 $566 $762 forward 7 unknown #
edge $-1 $571 49.855079144785876 $761 62.883611468111702 $396 $763 forward 7 unknown #
coedge $-1 $397 $753 $759 $764 forward $559 $-1 #
vertex $-1 $398 $765 #
vertex $-1 $398 $766 #
straight-curve $-1 32.668553411698888 31.787785892056846 15.490321308817116 0 -1 0 I I #
coedge $-1 $573 $573 $-1 $767 reversed $401 $-1 #
edge $-1 $768 0 $768 6.2831853071796004 $402 $769 forward 7 unknown #
vertex $-1 $405 $770 #
ellipse-curve $-1 36.322967988689726 26.600762591436254 11.131426389656729 0 0.66913061440640931 0.74314481823134659 1.5 0 0 1 I I #
coedge $-1 $577 $577 $-1 $771 reversed $408 $-1 #
edge $-1 $772 0 $772 6.2831853071796004 $409 $773 forward 7 unknown #
vertex $-1 $412 $774 #
ellipse-curve $-1 41.804589854175987 26.600762591436254 11.131426389656729 0 0.66913061440640931 0.74314481823134659 1.5 0 0 1 I I #
coedge $-1 $581 $581 $-1 $775 reversed $415 $-1 #
edge $-1 $776 0 $776 6.2831853071796004 $416 $777 forward 7 unknown #
vertex $-1 $419 $778 #
ellipse-curve $-1 47.286211719662248 26.600762591436254 11.131426389656729 0 0.66913061440640931 0.74314481823134659 1.5 0 0 1 I I #
face $-1 $-1 $435 $63 $-1 $779 reversed single #
loop $-1 $-1 $601 $420 #
plane-surface $-1 0 31.441805734055844 0 0 -1 0 0 0 -1 forward_v I I I I #
coedge $-1 $780 $599 $602 $781 forward $421 $-1 #
coedge $-1 $605 $423 $424 $593 reversed $267 $-1 #
coedge $-1 $599 $780 $423 $591 reversed $421 $-1 #
edge $-1 $606 -15.490321308817112 $782 15.490321308817112 $590 $783 forward 7 unknown #
coedge $-1 $425 $424 $780 $784 forward $169 $-1 #
edge $-1 $597 -58.93124179815058 $782 58.93124179815058 $589 $785 forward 7 unknown #
coedge $-1 $602 $601 $425 $595 reversed $586 $-1 #
edge $-1 $786 -58.93124179815058 $596 58.93124179815058 $594 $787 forward 7 unknown #
vertex $-1 $427 $788 #
vertex $-1 $608 $789 #
straight-curve $-1 58.93124179815058 0 -15.490321308817112 0 -1 0 I I #
coedge $-1 $588 $590 $428 $600 reversed $421 $-1 #
edge $-1 $603 -31.441805734055844 $606 31.441805734055844 $599 $790 forward 7 unknown #
coedge $-1 $594 $429 $434 $609 forward $586 $-1 #
coedge $-1 $429 $594 $588 $781 reversed $586 $-1 #
vertex $-1 $430 $791 #
straight-curve $-1 0 31.441805734055844 15.490321308817112 -1 0 0 I I #
coedge $-1 $431 $589 $433 $608 reversed $267 $-1 #
vertex $-1 $600 $792 #
straight-curve $-1 0 -31.441805734055844 15.490321308817112 1 0 0 I I #
edge $-1 $436 -15.490321308817112 $597 15.490321308817112 $433 $793 forward 7 unknown #
edge $-1 $437 -15.490321308817112 $596 15.490321308817112 $434 $794 forward 7 unknown #
point $-1 58.93124179815058 -31.441805734055844 15.490321308817112 #
point $-1 58.93124179815058 31.441805734055844 15.490321308817112 #
face $-1 $-1 $626 $64 $-1 $795 reversed single #
loop $-1 $-1 $622 $439 #
plane-surface $-1 0 0 -15.490321308817112 0 0 1 1 0 0 forward_v I I I I #
coedge $-1 $796 $797 $616 $798 forward $440 $-1 #
coedge $-1 $443 $442 $615 $798 reversed $173 $-1 #
coedge $-1 $622 $799 $442 $618 forward $613 $-1 #
edge $-1 $800 -71.742971848644913 $620 -58.93124179815058 $442 $801 forward 7 unknown #
edge $-1 $450 -6.4058650252471665 $802 6.4058650252471665 $443 $803 forward 7 unknown #
vertex $-1 $444 $804 #
straight-curve $-1 -58.93124179815058 31.441805734055844 0 0 0 -1 I I #
coedge $-1 $805 $617 $445 $623 forward $613 $-1 #
edge $-1 $620 -31.441805734055844 $627 31.441805734055844 $622 $806 forward 7 unknown #
coedge $-1 $807 $446 $449 $630 reversed $626 $-1 #
coedge $-1 $446 $807 $805 $808 reversed $626 $-1 #
loop $-1 $-1 $446 $612 #
vertex $-1 $808 $809 #
straight-curve $-1 -58.93124179815058 -31.441805734055844 0 0 0 1 I I #
coedge $-1 $449 $448 $797 $810 forward $275 $-1 #
edge $-1 $811 -6.4058650252471665 $451 6.4058650252471665 $624 $812 forward 7 unknown #
point $-1 -58.93124179815058 31.441805734055844 -8.2158693835320413 #
point $-1 -58.93124179815058 -31.441805734055844 -8.2158693835320413 #
plane-surface $-1 0 0 15.490321308817112 0 0 1 1 0 0 forward_v I I I I #
coedge $-1 $644 $643 $636 $813 forward $454 $-1 #
coedge $-1 $636 $456 $458 $640 reversed $283 $-1 #
coedge $-1 $456 $635 $634 $813 reversed $283 $-1 #
coedge $-1 $464 $459 $456 $638 forward $465 $-1 #
edge $-1 $641 -38.150630588436016 $814 -22.941470874436565 $637 $815 forward 7 unknown #
coedge $-1 $458 $457 $644 $816 reversed $177 $-1 #
edge $-1 $817 4.72070819993692e-015 $641 20.152334424154752 $635 $818 forward 7 unknown #
vertex $-1 $460 $819 #
straight-curve $-1 14.12085997370896 -16.232646020056393 15.490321308817112 -1 0 0 I I #
coedge $-1 $634 $461 $464 $648 reversed $454 $-1 #
coedge $-1 $461 $634 $639 $816 forward $454 $-1 #
vertex $-1 $462 $820 #
straight-curve $-1 41.484231927722263 -31.441805734055848 45.610572447698132 0 0 1 I I #
straight-curve $-1 41.484231927722263 -31.441805734055848 2.2692001938348909 0 -0.75470957328743171 -0.6560590369687036 I I #
edge $-1 $814 14.999207967113577 $466 41.484231927722263 $643 $821 forward 7 unknown #
point $-1 41.484231927722263 -31.441805734055844 15.490321308817112 #
point $-1 41.484231927722263 -16.232646020056393 15.490321308817112 #
edge $-1 $822 1 $822 0 $469 $-1 forward 7 unknown #
vertex $-1 $470 $823 #
ellipse-curve $-1 22.566357670144626 -19.000665033912995 3.3159340765607883 0 -0.6560590369687036 0.75470957328743171 3 0 0 1 I I #
point $-1 25.566357670144626 -23.837225877056124 8.8797607513260051 #
edge $-1 $824 1 $824 0 $473 $-1 forward 7 unknown #
vertex $-1 $474 $825 #
ellipse-curve $-1 33.9170822246912 -19.000665033912995 3.3159340765607883 0 -0.6560590369687036 0.75470957328743171 3 0 0 1 I I #
point $-1 36.9170822246912 -23.837225877056124 8.8797607513260051 #
loop $-1 $-1 $485 $477 #
plane-surface $-1 0 31.441805734055844 0 0 -1 0 0 0 -1 forward_v I I I I #
coedge $-1 $662 $480 $482 $666 reversed $305 $-1 #
coedge $-1 $480 $661 $826 $827 reversed $305 $-1 #
coedge $-1 $488 $483 $480 $664 forward $478 $-1 #
edge $-1 $667 -10.028066443240192 $828 -0.34598015800100157 $663 $829 forward 7 unknown #
coedge $-1 $482 $481 $670 $830 reversed $191 $-1 #
edge $-1 $831 -62.883611468111702 $667 -49.855079144785876 $661 $832 forward 7 unknown #
vertex $-1 $484 $833 #
straight-curve $-1 -18.491737652589574 21.759719448816668 15.490321308817112 1 0 0 I I #
coedge $-1 $826 $485 $488 $674 reversed $659 $-1 #
coedge $-1 $485 $826 $665 $830 forward $659 $-1 #
vertex $-1 $486 $834 #
straight-curve $-1 -46.119511747656247 31.441805734055844 68.219387498358074 0 0 1 I I #
straight-curve $-1 -46.119511747656247 -15.289824280144643 48.849881048247852 0 0.74314481823134659 -0.66913061440640931 I I #
edge $-1 $828 27.847438862702049 $489 46.119511747656247 $669 $835 forward 7 unknown #
point $-1 -46.119511747656247 31.441805734055844 15.490321308817112 #
point $-1 -46.119511747656247 21.759719448816654 15.490321308817116 #
edge $-1 $836 1 $836 0 $492 $-1 forward 7 unknown #
vertex $-1 $493 $837 #
ellipse-curve $-1 -42.465097170665402 22.762139531395597 6.8682036723055324 0 0.66913061440640931 0.74314481823134659 1.5 0 0 1 I I #
point $-1 -40.965097170665402 26.600762591436251 11.131426389656724 #
edge $-1 $838 1 $838 0 $496 $-1 forward 7 unknown #
vertex $-1 $497 $839 #
ellipse-curve $-1 -36.983475305179148 22.762139531395597 6.8682036723055324 0 0.66913061440640931 0.74314481823134659 1.5 0 0 1 I I #
point $-1 -35.483475305179148 26.600762591436251 11.131426389656724 #
edge $-1 $840 1 $840 0 $500 $-1 forward 7 unknown #
vertex $-1 $501 $841 #
ellipse-curve $-1 -31.501853439692887 22.762139531395597 6.8682036723055324 0 0.66913061440640931 0.74314481823134659 1.5 0 0 1 I I #
point $-1 -30.001853439692887 26.600762591436251 11.131426389656724 #
loop $-1 $-1 $512 $504 #
plane-surface $-1 0 31.441805734055844 0 0 -1 0 0 0 -1 forward_v I I I I #
coedge $-1 $692 $507 $509 $696 reversed $334 $-1 #
coedge $-1 $507 $691 $842 $843 reversed $334 $-1 #
coedge $-1 $515 $510 $507 $694 forward $505 $-1 #
edge $-1 $697 -10.028066443240192 $844 -0.34598015800100157 $693 $845 forward 7 unknown #
coedge $-1 $509 $508 $700 $846 reversed $210 $-1 #
edge $-1 $847 -62.883611468111702 $697 -49.855079144785876 $691 $848 forward 7 unknown #
vertex $-1 $511 $849 #
straight-curve $-1 -5.3603934593637206 21.759719448816668 15.490321308817112 1 0 0 I I #
coedge $-1 $842 $512 $515 $704 reversed $689 $-1 #
coedge $-1 $512 $842 $695 $846 forward $689 $-1 #
vertex $-1 $513 $850 #
straight-curve $-1 -19.85682336120454 31.441805734055844 68.219387498358074 0 0 1 I I #
straight-curve $-1 -19.85682336120454 -15.289824280144643 48.849881048247852 0 0.74314481823134659 -0.66913061440640931 I I #
edge $-1 $844 1.5847504762503437 $516 19.85682336120454 $699 $851 forward 7 unknown #
point $-1 -19.85682336120454 31.441805734055844 15.490321308817112 #
point $-1 -19.85682336120454 21.759719448816654 15.490321308817116 #
edge $-1 $852 1 $852 0 $519 $-1 forward 7 unknown #
vertex $-1 $520 $853 #
ellipse-curve $-1 -16.202408784213702 22.762139531395597 6.8682036723055324 0 0.66913061440640931 0.74314481823134659 1.5 0 0 1 I I #
point $-1 -14.702408784213702 26.600762591436251 11.131426389656724 #
edge $-1 $854 1 $854 0 $523 $-1 forward 7 unknown #
vertex $-1 $524 $855 #
ellipse-curve $-1 -10.720786918727441 22.762139531395597 6.8682036723055324 0 0.66913061440640931 0.74314481823134659 1.5 0 0 1 I I #
point $-1 -9.2207869187274412 26.600762591436251 11.131426389656724 #
edge $-1 $856 1 $856 0 $527 $-1 forward 7 unknown #
vertex $-1 $528 $857 #
ellipse-curve $-1 -5.2391650532411802 22.762139531395597 6.8682036723055324 0 0.66913061440640931 0.74314481823134659 1.5 0 0 1 I I #
point $-1 -3.7391650532411802 26.600762591436251 11.131426389656724 #
loop $-1 $-1 $539 $531 #
plane-surface $-1 0 31.441805734055844 0 0 -1 0 0 0 -1 forward_v I I I I #
coedge $-1 $722 $534 $536 $726 reversed $363 $-1 #
coedge $-1 $534 $721 $858 $859 reversed $363 $-1 #
coedge $-1 $542 $537 $534 $724 forward $532 $-1 #
edge $-1 $727 -10.028066443240192 $860 -0.34598015800100157 $723 $861 forward 7 unknown #
coedge $-1 $536 $535 $730 $862 reversed $229 $-1 #
edge $-1 $863 -62.883611468111702 $727 -49.855079144785876 $721 $864 forward 7 unknown #
vertex $-1 $538 $865 #
straight-curve $-1 7.7709507338621364 21.759719448816668 15.490321308817112 1 0 0 I I #
coedge $-1 $858 $539 $542 $734 reversed $719 $-1 #
coedge $-1 $539 $858 $725 $862 forward $719 $-1 #
vertex $-1 $540 $866 #
straight-curve $-1 6.4058650252471754 31.441805734055844 68.219387498358074 0 0 1 I I #
straight-curve $-1 6.4058650252471754 -15.289824280144643 48.849881048247852 0 0.74314481823134659 -0.66913061440640931 I I #
edge $-1 $860 -24.677937910201372 $543 -6.4058650252471754 $729 $867 forward 7 unknown #
point $-1 6.4058650252471754 31.441805734055844 15.490321308817112 #
point $-1 6.4058650252471754 21.759719448816654 15.490321308817116 #
edge $-1 $868 1 $868 0 $546 $-1 forward 7 unknown #
vertex $-1 $547 $869 #
ellipse-curve $-1 10.060279602238012 22.762139531395597 6.8682036723055324 0 0.66913061440640931 0.74314481823134659 1.5 0 0 1 I I #
point $-1 11.560279602238012 26.600762591436251 11.131426389656724 #
edge $-1 $870 1 $870 0 $550 $-1 forward 7 unknown #
vertex $-1 $551 $871 #
ellipse-curve $-1 15.541901467724273 22.762139531395597 6.8682036723055324 0 0.66913061440640931 0.74314481823134659 1.5 0 0 1 I I #
point $-1 17.041901467724273 26.600762591436251 11.131426389656724 #
edge $-1 $872 1 $872 0 $554 $-1 forward 7 unknown #
vertex $-1 $555 $873 #
ellipse-curve $-1 21.023523333210534 22.762139531395597 6.8682036723055324 0 0.66913061440640931 0.74314481823134659 1.5 0 0 1 I I #
point $-1 22.523523333210534 26.600762591436251 11.131426389656724 #
loop $-1 $-1 $566 $558 #
plane-surface $-1 0 31.441805734055844 0 0 -1 0 0 0 -1 forward_v I I I I #
coedge $-1 $752 $561 $563 $756 reversed $392 $-1 #
coedge $-1 $561 $751 $874 $875 reversed $392 $-1 #
coedge $-1 $569 $564 $561 $754 forward $559 $-1 #
edge $-1 $757 -10.028066443240192 $876 -0.34598015800100157 $753 $877 forward 7 unknown #
coedge $-1 $563 $562 $760 $878 reversed $248 $-1 #
edge $-1 $879 -62.883611468111702 $757 -49.855079144785876 $751 $880 forward 7 unknown #
vertex $-1 $565 $881 #
straight-curve $-1 20.902294927087993 21.759719448816668 15.490321308817112 1 0 0 I I #
coedge $-1 $874 $566 $569 $764 reversed $749 $-1 #
coedge $-1 $566 $874 $755 $878 forward $749 $-1 #
vertex $-1 $567 $882 #
straight-curve $-1 32.668553411698888 31.441805734055844 68.219387498358074 0 0 1 I I #
straight-curve $-1 32.668553411698888 -15.289824280144643 48.849881048247852 0 0.74314481823134659 -0.66913061440640931 I I #
edge $-1 $876 -50.940626296653086 $570 -32.668553411698888 $759 $883 forward 7 unknown #
point $-1 32.668553411698888 31.441805734055844 15.490321308817112 #
point $-1 32.668553411698888 21.759719448816654 15.490321308817116 #
edge $-1 $884 1 $884 0 $573 $-1 forward 7 unknown #
vertex $-1 $574 $885 #
ellipse-curve $-1 36.322967988689726 22.762139531395597 6.8682036723055324 0 0.66913061440640931 0.74314481823134659 1.5 0 0 1 I I #
point $-1 37.822967988689726 26.600762591436251 11.131426389656724 #
edge $-1 $886 1 $886 0 $577 $-1 forward 7 unknown #
vertex $-1 $578 $887 #
ellipse-curve $-1 41.804589854175987 22.762139531395597 6.8682036723055324 0 0.66913061440640931 0.74314481823134659 1.5 0 0 1 I I #
point $-1 43.304589854175987 26.600762591436251 11.131426389656724 #
edge $-1 $888 1 $888 0 $581 $-1 forward 7 unknown #
vertex $-1 $582 $889 #
ellipse-curve $-1 47.286211719662248 22.762139531395597 6.8682036723055324 0 0.66913061440640931 0.74314481823134659 1.5 0 0 1 I I #
point $-1 48.786211719662248 26.600762591436251 11.131426389656724 #
plane-surface $-1 58.93124179815058 0 0 -1 0 0 0 0 1 forward_v I I I I #
coedge $-1 $590 $588 $592 $784 reversed $421 $-1 #
edge $-1 $603 -15.490321308817112 $786 15.490321308817112 $602 $890 forward 7 unknown #
vertex $-1 $784 $891 #
straight-curve $-1 -58.93124179815058 -31.441805734055844 0 0 0 -1 I I #
edge $-1 $782 -31.441805734055844 $786 31.441805734055844 $780 $892 forward 7 unknown #
straight-curve $-1 0 -31.441805734055844 -15.490321308817112 -1 0 0 I I #
vertex $-1 $595 $893 #
straight-curve $-1 0 31.441805734055844 -15.490321308817112 1 0 0 I I #
point $-1 58.93124179815058 31.441805734055844 -15.490321308817112 #
point $-1 58.93124179815058 -31.441805734055844 -15.490321308817112 #
straight-curve $-1 -58.93124179815058 0 15.490321308817112 0 -1 0 I I #
point $-1 -58.93124179815058 31.441805734055844 15.490321308817112 #
point $-1 -58.93124179815058 -31.441805734055844 15.490321308817112 #
straight-curve $-1 58.93124179815058 -31.441805734055844 0 0 0 -1 I I #
straight-curve $-1 58.93124179815058 31.441805734055844 0 0 0 -1 I I #
plane-surface $-1 0 -31.441805734055844 0 0 1 0 0 0 1 forward_v I I I I #
coedge $-1 $894 $615 $799 $895 reversed $440 $-1 #
coedge $-1 $615 $894 $629 $810 reversed $440 $-1 #
edge $-1 $802 -3.6372259626425354 $800 3.6372259626425354 $616 $896 forward 7 unknown #
coedge $-1 $617 $805 $796 $895 forward $613 $-1 #
vertex $-1 $618 $897 #
straight-curve $-1 0 31.441805734055844 -15.490321308817112 1 0 0 I I #
vertex $-1 $619 $898 #
straight-curve $-1 -65.337106823397747 31.441805734055844 -8.2158693835320413 -1 0 0 I I #
point $-1 -58.93124179815058 31.441805734055844 -15.490321308817112 #
coedge $-1 $799 $622 $625 $808 forward $613 $-1 #
straight-curve $-1 -58.93124179815058 0 -15.490321308817112 0 -1 0 I I #
coedge $-1 $625 $624 $894 $899 forward $626 $-1 #
edge $-1 $627 -6.4058650252471665 $900 6.4058650252471665 $625 $901 forward 7 unknown #
point $-1 -58.93124179815058 -31.441805734055844 -15.490321308817112 #
edge $-1 $802 -31.441805734055844 $811 31.441805734055844 $797 $902 forward 7 unknown #
vertex $-1 $810 $903 #
straight-curve $-1 -65.337106823397747 -31.441805734055844 -8.2158693835320413 1 0 0 I I #
edge $-1 $814 30.12025113888102 $817 43.341372253863241 $634 $904 forward 7 unknown #
vertex $-1 $648 $905 #
straight-curve $-1 14.999207967113577 -54.383276608492409 15.490321308817109 0 -1 0 I I #
edge $-1 $817 0.878347993404617 $645 27.363371954013303 $644 $906 forward 7 unknown #
vertex $-1 $816 $907 #
straight-curve $-1 14.999207967113577 -31.441805734055848 2.2692001938348909 0 0.75470957328743171 0.6560590369687036 I I #
point $-1 14.999207967113577 -16.232646020056393 15.490321308817112 #
point $-1 41.484231927722263 -31.441805734055844 2.269200193834894 #
straight-curve $-1 0 -31.441805734055844 15.490321308817112 1 0 0 I I #
vertex $-1 $651 $908 #
point $-1 25.566357670144626 -19.000665033912995 3.3159340765607883 #
vertex $-1 $655 $909 #
point $-1 36.9170822246912 -19.000665033912995 3.3159340765607883 #
coedge $-1 $670 $669 $662 $827 forward $659 $-1 #
edge $-1 $828 52.729066189540958 $831 61.446856027861735 $826 $910 forward 7 unknown #
vertex $-1 $674 $911 #
straight-curve $-1 -27.847438862702049 31.787785892056846 15.490321308817116 0 1 0 I I #
edge $-1 $831 9.3557012101124748 $671 27.627774095066673 $670 $912 forward 7 unknown #
vertex $-1 $830 $913 #
straight-curve $-1 -27.847438862702049 -15.289824280144643 48.849881048247852 0 -0.74314481823134659 0.66913061440640931 I I #
point $-1 -27.847438862702049 21.759719448816654 15.490321308817116 #
point $-1 -46.119511747656247 31.441805734055848 6.7725314704963395 #
straight-curve $-1 0 31.441805734055844 15.490321308817112 -1 0 0 I I #
vertex $-1 $677 $914 #
point $-1 -40.965097170665402 22.762139531395597 6.8682036723055324 #
vertex $-1 $681 $915 #
point $-1 -35.483475305179148 22.762139531395597 6.8682036723055324 #
vertex $-1 $685 $916 #
point $-1 -30.001853439692887 22.762139531395597 6.8682036723055324 #
coedge $-1 $700 $699 $692 $843 forward $689 $-1 #
edge $-1 $844 52.729066189540958 $847 61.446856027861735 $842 $917 forward 7 unknown #
vertex $-1 $704 $918 #
straight-curve $-1 -1.5847504762503437 31.787785892056846 15.490321308817116 0 1 0 I I #
edge $-1 $847 -3.7756429831133769 $701 14.49642990184082 $700 $919 forward 7 unknown #
vertex $-1 $846 $920 #
straight-curve $-1 -1.5847504762503437 -15.289824280144643 48.849881048247852 0 -0.74314481823134659 0.66913061440640931 I I #
point $-1 -1.5847504762503437 21.759719448816654 15.490321308817116 #
point $-1 -19.85682336120454 31.441805734055848 6.7725314704963395 #
straight-curve $-1 0 31.441805734055844 15.490321308817112 -1 0 0 I I #
vertex $-1 $707 $921 #
point $-1 -14.702408784213702 22.762139531395597 6.8682036723055324 #
vertex $-1 $711 $922 #
point $-1 -9.2207869187274412 22.762139531395597 6.8682036723055324 #
vertex $-1 $715 $923 #
point $-1 -3.7391650532411802 22.762139531395597 6.8682036723055324 #
coedge $-1 $730 $729 $722 $859 forward $719 $-1 #
edge $-1 $860 52.729066189540958 $863 61.446856027861735 $858 $924 forward 7 unknown #
vertex $-1 $734 $925 #
straight-curve $-1 24.677937910201372 31.787785892056846 15.490321308817116 0 1 0 I I #
edge $-1 $863 -16.906987176339236 $731 1.365085708614961 $730 $926 forward 7 unknown #
vertex $-1 $862 $927 #
straight-curve $-1 24.677937910201372 -15.289824280144643 48.849881048247852 0 -0.74314481823134659 0.66913061440640931 I I #
point $-1 24.677937910201372 21.759719448816654 15.490321308817116 #
point $-1 6.4058650252471754 31.441805734055848 6.7725314704963395 #
straight-curve $-1 0 31.441805734055844 15.490321308817112 -1 0 0 I I #
vertex $-1 $737 $928 #
point $-1 11.560279602238012 22.762139531395597 6.8682036723055324 #
vertex $-1 $741 $929 #
point $-1 17.041901467724273 22.762139531395597 6.8682036723055324 #
vertex $-1 $745 $930 #
point $-1 22.523523333210534 22.762139531395597 6.8682036723055324 #
coedge $-1 $760 $759 $752 $875 forward $749 $-1 #
edge $-1 $876 52.729066189540958 $879 61.446856027861735 $874 $931 forward 7 unknown #
vertex $-1 $764 $932 #
straight-curve $-1 50.940626296653086 31.787785892056846 15.490321308817116 0 1 0 I I #
edge $-1 $879 -30.038331369565093 $761 -11.766258484610894 $760 $933 forward 7 unknown #
vertex $-1 $878 $934 #
straight-curve $-1 50.940626296653086 -15.289824280144643 48.849881048247852 0 -0.74314481823134659 0.66913061440640931 I I #
point $-1 50.940626296653086 21.759719448816654 15.490321308817116 #
point $-1 32.668553411698888 31.441805734055848 6.7725314704963395 #
straight-curve $-1 0 31.441805734055844 15.490321308817112 -1 0 0 I I #
vertex $-1 $767 $935 #
point $-1 37.822967988689726 22.762139531395597 6.8682036723055324 #
vertex $-1 $771 $936 #
point $-1 43.304589854175987 22.762139531395597 6.8682036723055324 #
vertex $-1 $775 $937 #
point $-1 48.786211719662248 22.762139531395597 6.8682036723055324 #
straight-curve $-1 -58.93124179815058 31.441805734055844 0 0 0 -1 I I #
point $-1 -58.93124179815058 -31.441805734055844 -15.490321308817112 #
straight-curve $-1 -58.93124179815058 0 -15.490321308817112 0 1 0 I I #
point $-1 -58.93124179815058 31.441805734055844 -15.490321308817112 #
coedge $-1 $797 $796 $807 $899 reversed $440 $-1 #
edge $-1 $900 -31.441805734055844 $800 31.441805734055844 $796 $938 forward 7 unknown #
straight-curve $-1 -71.742971848644913 31.441805734055844 -11.853095346174577 0 0 -1 I I #
point $-1 -71.742971848644913 31.441805734055844 -15.490321308817112 #
point $-1 -71.742971848644913 31.441805734055844 -8.2158693835320413 #
edge $-1 $811 -3.6372259626425354 $900 3.6372259626425354 $894 $939 forward 7 unknown #
vertex $-1 $895 $940 #
straight-curve $-1 -65.337106823397747 -31.441805734055844 -15.490321308817112 -1 0 0 I I #
straight-curve $-1 -71.742971848644913 0 -8.2158693835320413 0 -1 0 I I #
point $-1 -71.742971848644913 -31.441805734055844 -8.2158693835320413 #
straight-curve $-1 14.999207967113577 -31.441805734055848 45.610572447698132 0 0 -1 I I #
point $-1 14.999207967113577 -31.441805734055844 15.490321308817112 #
straight-curve $-1 14.12085997370896 -31.441805734055844 2.2692001938348962 1 0 0 I I #
point $-1 14.999207967113577 -31.441805734055844 2.269200193834894 #
point $-1 22.566357670144626 -17.032487923006883 1.0518053566984931 #
point $-1 33.9170822246912 -17.032487923006883 1.0518053566984931 #
straight-curve $-1 -27.847438862702049 31.441805734055844 68.219387498358074 0 0 -1 I I #
point $-1 -27.847438862702049 31.441805734055844 15.490321308817112 #
straight-curve $-1 -18.491737652589574 31.441805734055841 6.7725314704963502 -1 0 0 I I #
point $-1 -27.847438862702049 31.441805734055848 6.7725314704963395 #
point $-1 -42.465097170665402 21.758443609785985 5.7534864449585124 #
point $-1 -36.983475305179148 21.758443609785985 5.7534864449585124 #
point $-1 -31.501853439692887 21.758443609785985 5.7534864449585124 #
straight-curve $-1 -1.5847504762503437 31.441805734055844 68.219387498358074 0 0 -1 I I #
point $-1 -1.5847504762503437 31.441805734055844 15.490321308817112 #
straight-curve $-1 -5.3603934593637206 31.441805734055841 6.7725314704963502 -1 0 0 I I #
point $-1 -1.5847504762503437 31.441805734055848 6.7725314704963395 #
point $-1 -16.202408784213702 21.758443609785985 5.7534864449585124 #
point $-1 -10.720786918727441 21.758443609785985 5.7534864449585124 #
point $-1 -5.2391650532411802 21.758443609785985 5.7534864449585124 #
straight-curve $-1 24.677937910201372 31.441805734055844 68.219387498358074 0 0 -1 I I #
point $-1 24.677937910201372 31.441805734055844 15.490321308817112 #
straight-curve $-1 7.7709507338621364 31.441805734055841 6.7725314704963502 -1 0 0 I I #
point $-1 24.677937910201372 31.441805734055848 6.7725314704963395 #
point $-1 10.060279602238012 21.758443609785985 5.7534864449585124 #
point $-1 15.541901467724273 21.758443609785985 5.7534864449585124 #
point $-1 21.023523333210534 21.758443609785985 5.7534864449585124 #
straight-curve $-1 50.940626296653086 31.441805734055844 68.219387498358074 0 0 -1 I I #
point $-1 50.940626296653086 31.441805734055844 15.490321308817112 #
straight-curve $-1 20.902294927087993 31.441805734055841 6.7725314704963502 -1 0 0 I I #
point $-1 50.940626296653086 31.441805734055848 6.7725314704963395 #
point $-1 36.322967988689726 21.758443609785985 5.7534864449585124 #
point $-1 41.804589854175987 21.758443609785985 5.7534864449585124 #
point $-1 47.286211719662248 21.758443609785985 5.7534864449585124 #
straight-curve $-1 -71.742971848644913 0 -15.490321308817112 0 1 0 I I #
straight-curve $-1 -71.742971848644913 -31.441805734055844 -11.853095346174577 0 0 -1 I I #
point $-1 -71.742971848644913 -31.441805734055844 -15.490321308817112 #
End-of-ACIS-data 