500 0 18 0           
7 Unknown 11 ACIS 5.0 NT 24 Fri Mar 26 17:52:25 1999 
-1 9.9999999999999995e-007 1e-010 
body $-1 $18 $-1 $19 #
body $-1 $20 $-1 $21 #
body $-1 $22 $-1 $23 #
body $-1 $24 $-1 $25 #
body $-1 $26 $-1 $27 #
body $-1 $28 $-1 $29 #
body $-1 $30 $-1 $31 #
body $-1 $32 $-1 $33 #
body $-1 $34 $-1 $35 #
body $-1 $36 $-1 $37 #
body $-1 $38 $-1 $39 #
body $-1 $40 $-1 $41 #
body $-1 $42 $-1 $43 #
body $-1 $44 $-1 $45 #
body $-1 $46 $-1 $47 #
body $-1 $48 $-1 $49 #
body $-1 $50 $-1 $51 #
body $-1 $52 $-1 $53 #
lump $-1 $-1 $54 $0 #
transform $-1 1 0 0 0 1 0 0 0 1 66.204412976470223 37.977172387756802 13.591555616137738 1 rotate no_reflect no_shear #
lump $-1 $-1 $55 $1 #
transform $-1 1 0 0 0 1 0 0 0 1 66.204412976470223 37.977172387756802 13.591555616137738 1 rotate no_reflect no_shear #
lump $-1 $-1 $56 $2 #
transform $-1 1 0 0 0 1 0 0 0 1 66.204412976470223 37.977172387756802 13.591555616137738 1 rotate no_reflect no_shear #
lump $-1 $-1 $57 $3 #
transform $-1 1 0 0 0 1 0 0 0 1 66.204412976470223 37.977172387756802 13.591555616137738 1 rotate no_reflect no_shear #
lump $-1 $-1 $58 $4 #
transform $-1 1 0 0 0 1 0 0 0 1 66.204412976470223 37.977172387756802 13.591555616137738 1 rotate no_reflect no_shear #
lump $-1 $-1 $59 $5 #
transform $-1 1 0 0 0 1 0 0 0 1 66.204412976470223 37.977172387756802 13.591555616137738 1 rotate no_reflect no_shear #
lump $-1 $-1 $60 $6 #
transform $-1 1 0 0 0 1 0 0 0 1 66.204412976470223 37.977172387756802 13.591555616137738 1 rotate no_reflect no_shear #
lump $-1 $-1 $61 $7 #
transform $-1 1 0 0 0 1 0 0 0 1 66.204412976470223 37.977172387756802 13.591555616137738 1 rotate no_reflect no_shear #
lump $-1 $-1 $62 $8 #
transform $-1 1 0 0 0 1 0 0 0 1 66.204412976470223 37.977172387756802 13.591555616137738 1 rotate no_reflect no_shear #
lump $-1 $-1 $63 $9 #
transform $-1 1 0 0 0 1 0 0 0 1 66.204412976470223 37.977172387756802 13.591555616137738 1 rotate no_reflect no_shear #
lump $-1 $-1 $64 $10 #
transform $-1 1 0 0 0 1 0 0 0 1 66.204412976470223 37.977172387756802 13.591555616137738 1 rotate no_reflect no_shear #
lump $-1 $-1 $65 $11 #
transform $-1 1 0 0 0 1 0 0 0 1 66.204412976470223 37.977172387756802 13.591555616137738 1 rotate no_reflect no_shear #
lump $-1 $-1 $66 $12 #
transform $-1 1 0 0 0 1 0 0 0 1 66.204412976470223 37.977172387756802 13.591555616137738 1 rotate no_reflect no_shear #
lump $-1 $-1 $67 $13 #
transform $-1 1 0 0 0 1 0 0 0 1 66.204412976470223 37.977172387756802 13.591555616137738 1 rotate no_reflect no_shear #
lump $-1 $-1 $68 $14 #
transform $-1 1 0 0 0 1 0 0 0 1 66.204412976470223 37.977172387756802 13.591555616137738 1 rotate no_reflect no_shear #
lump $-1 $-1 $69 $15 #
transform $-1 1 0 0 0 1 0 0 0 1 66.204412976470223 37.977172387756802 13.591555616137738 1 rotate no_reflect no_shear #
lump $-1 $-1 $70 $16 #
transform $-1 1 0 0 0 1 0 0 0 1 66.204412976470223 37.977172387756802 13.591555616137738 1 rotate no_reflect no_shear #
lump $-1 $-1 $71 $17 #
transform $-1 1 0 0 0 1 0 0 0 1 66.204412976470223 37.977172387756802 13.591555616137738 1 rotate no_reflect no_shear #
shell $-1 $-1 $-1 $72 $-1 $18 #
shell $-1 $-1 $-1 $73 $-1 $20 #
shell $-1 $-1 $-1 $74 $-1 $22 #
shell $-1 $-1 $-1 $75 $-1 $24 #
shell $-1 $-1 $-1 $76 $-1 $26 #
shell $-1 $-1 $-1 $77 $-1 $28 #
shell $-1 $-1 $-1 $78 $-1 $30 #
shell $-1 $-1 $-1 $79 $-1 $32 #
shell $-1 $-1 $-1 $80 $-1 $34 #
shell $-1 $-1 $-1 $81 $-1 $36 #
shell $-1 $-1 $-1 $82 $-1 $38 #
shell $-1 $-1 $-1 $83 $-1 $40 #
shell $-1 $-1 $-1 $84 $-1 $42 #
shell $-1 $-1 $-1 $85 $-1 $44 #
shell $-1 $-1 $-1 $86 $-1 $46 #
shell $-1 $-1 $-1 $87 $-1 $48 #
shell $-1 $-1 $-1 $88 $-1 $50 #
shell $-1 $-1 $-1 $89 $-1 $52 #
face $-1 $90 $91 $54 $-1 $92 forward single #
face $-1 $93 $94 $55 $-1 $95 reversed single #
face $-1 $96 $97 $56 $-1 $98 reversed single #
face $-1 $99 $100 $57 $-1 $101 forward single #
face $-1 $102 $103 $58 $-1 $104 forward single #
face $-1 $105 $106 $59 $-1 $107 forward single #
face $-1 $108 $109 $60 $-1 $110 reversed single #
face $-1 $111 $112 $61 $-1 $113 forward single #
face $-1 $114 $115 $62 $-1 $116 forward single #
face $-1 $117 $118 $63 $-1 $119 forward single #
face $-1 $120 $121 $64 $-1 $122 reversed single #
face $-1 $123 $124 $65 $-1 $125 forward single #
face $-1 $126 $127 $66 $-1 $128 forward single #
face $-1 $129 $130 $67 $-1 $131 forward single #
face $-1 $132 $133 $68 $-1 $134 reversed single #
face $-1 $135 $136 $69 $-1 $137 forward single #
face $-1 $138 $139 $70 $-1 $140 forward single #
face $-1 $141 $142 $71 $-1 $143 forward single #
face $-1 $144 $145 $54 $-1 $146 reversed single #
loop $-1 $-1 $147 $72 #
plane-surface $-1 0 0 13.591555616137738 0 0 1 1 0 0 forward_v I I I I #
face $-1 $148 $149 $55 $-1 $150 reversed single #
loop $-1 $-1 $151 $73 #
plane-surface $-1 -60.737892377135367 -31.956769039151606 0 0 -1 0 0 0 -1 forward_v I I I I #
face $-1 $152 $153 $56 $-1 $154 reversed single #
loop $-1 $-1 $155 $74 #
plane-surface $-1 5.4665205993348707 -108.14316094118516 113.0868047791776 -1 0 0 0 -0.52991927123019833 0.84804809178421925 forward_v I I I I #
face $-1 $156 $157 $57 $-1 $158 forward single #
loop $-1 $159 $160 $75 #
cone-surface $-1 -17.840132574948989 -26.869695608254784 5.8018916308497461 0 0.52991927123019833 -0.84804809178421925 2.5 0 0 1 I I 0 1 2.5 forward I I I I #
face $-1 $161 $162 $58 $-1 $163 forward single #
loop $-1 $164 $165 $76 #
cone-surface $-1 -9.1001376345925422 -26.869695608254784 5.8018916308497461 0 0.52991927123019833 -0.84804809178421925 2.5 0 0 1 I I 0 1 2.5 forward I I I I #
face $-1 $166 $167 $59 $-1 $168 forward single #
loop $-1 $169 $170 $77 #
cone-surface $-1 -0.3601426942360888 -26.869695608254784 5.8018916308497461 0 0.52991927123019833 -0.84804809178421925 2.5 0 0 1 I I 0 1 2.5 forward I I I I #
face $-1 $171 $172 $60 $-1 $173 reversed single #
loop $-1 $-1 $174 $78 #
plane-surface $-1 34.599837067189682 -108.14316094118516 113.0868047791776 -1 0 0 0 -0.52991927123019833 0.84804809178421925 forward_v I I I I #
face $-1 $175 $176 $61 $-1 $177 forward single #
loop $-1 $178 $179 $79 #
cone-surface $-1 11.29318389290583 -26.869695608254784 5.8018916308497461 0 0.52991927123019833 -0.84804809178421925 2.5 0 0 1 I I 0 1 2.5 forward I I I I #
face $-1 $180 $181 $62 $-1 $182 forward single #
loop $-1 $183 $184 $80 #
cone-surface $-1 20.033178833262269 -26.869695608254784 5.8018916308497461 0 0.52991927123019833 -0.84804809178421925 2.5 0 0 1 I I 0 1 2.5 forward I I I I #
face $-1 $185 $186 $63 $-1 $187 forward single #
loop $-1 $188 $189 $81 #
cone-surface $-1 28.773173773618723 -26.869695608254784 5.8018916308497461 0 0.52991927123019833 -0.84804809178421925 2.5 0 0 1 I I 0 1 2.5 forward I I I I #
face $-1 $190 $191 $64 $-1 $192 reversed single #
loop $-1 $-1 $193 $82 #
plane-surface $-1 -23.666795868519955 43.73022379159017 153.33647580938501 1 0 0 0 -0.52991927123019833 -0.84804809178421925 forward_v I I I I #
face $-1 $194 $195 $65 $-1 $196 forward single #
loop $-1 $197 $198 $83 #
cone-surface $-1 -17.840132574948989 26.86969560825478 5.801891630849739 0 -0.52991927123019833 -0.84804809178421925 2.5 0 0 1 I I 0 1 2.5 forward I I I I #
face $-1 $199 $200 $66 $-1 $201 forward single #
loop $-1 $202 $203 $84 #
cone-surface $-1 -9.1001376345925422 26.86969560825478 5.801891630849739 0 -0.52991927123019833 -0.84804809178421925 2.5 0 0 1 I I 0 1 2.5 forward I I I I #
face $-1 $204 $205 $67 $-1 $206 forward single #
loop $-1 $207 $208 $85 #
cone-surface $-1 -0.3601426942360888 26.86969560825478 5.801891630849739 0 -0.52991927123019833 -0.84804809178421925 2.5 0 0 1 I I 0 1 2.5 forward I I I I #
face $-1 $209 $210 $68 $-1 $211 reversed single #
loop $-1 $-1 $212 $86 #
plane-surface $-1 -9.1001376345925422 -26.435764761838207 41.047423624605059 0 0.52991927123019833 0.84804809178421925 1 0 0 forward_v I I I I #
face $-1 $213 $214 $69 $-1 $215 forward single #
loop $-1 $216 $217 $87 #
cone-surface $-1 11.29318389290583 26.86969560825478 5.801891630849739 0 -0.52991927123019833 -0.84804809178421925 2.5 0 0 1 I I 0 1 2.5 forward I I I I #
face $-1 $218 $219 $70 $-1 $220 forward single #
loop $-1 $221 $222 $88 #
cone-surface $-1 20.033178833262269 26.86969560825478 5.801891630849739 0 -0.52991927123019833 -0.84804809178421925 2.5 0 0 1 I I 0 1 2.5 forward I I I I #
face $-1 $223 $224 $71 $-1 $225 forward single #
loop $-1 $226 $227 $89 #
cone-surface $-1 28.773173773618723 26.86969560825478 5.801891630849739 0 -0.52991927123019833 -0.84804809178421925 2.5 0 0 1 I I 0 1 2.5 forward I I I I #
face $-1 $228 $229 $54 $-1 $230 reversed single #
loop $-1 $-1 $231 $90 #
plane-surface $-1 0 0 -13.591555616137738 0 0 1 1 0 0 forward_v I I I I #
coedge $-1 $232 $233 $234 $235 forward $91 $-1 #
face $-1 $236 $237 $55 $-1 $238 forward single #
loop $-1 $-1 $239 $93 #
plane-surface $-1 -55.27137177780051 -34.966970713454202 0 -1 0 0 0 0 1 forward_v I I I I #
coedge $-1 $240 $241 $242 $243 forward $94 $-1 #
face $-1 $244 $245 $56 $-1 $246 reversed single #
loop $-1 $-1 $247 $96 #
plane-surface $-1 -9.1001376345925422 -37.977172387756781 0.79775259439765023 0 -0.52991927123019833 0.84804809178421925 1 0 0 forward_v I I I I #
coedge $-1 $248 $249 $250 $251 reversed $97 $-1 #
face $-1 $-1 $252 $57 $-1 $253 forward single #
loop $-1 $254 $255 $99 #
cone-surface $-1 -17.840132574948989 -25.337001918485687 3.3490690417015205 0 0.52991927123019833 -0.84804809178421925 1.25 0 0 1 I I -0.70710678118654746 0.70710678118654746 1.25 forward I I I I #
loop $-1 $-1 $256 $75 #
coedge $-1 $160 $160 $257 $258 reversed $100 $-1 #
face $-1 $-1 $259 $58 $-1 $260 forward single #
loop $-1 $261 $262 $102 #
cone-surface $-1 -9.1001376345925422 -25.337001918485687 3.3490690417015205 0 0.52991927123019833 -0.84804809178421925 1.25 0 0 1 I I -0.70710678118654746 0.70710678118654746 1.25 forward I I I I #
loop $-1 $-1 $263 $76 #
coedge $-1 $165 $165 $264 $265 reversed $103 $-1 #
face $-1 $-1 $266 $59 $-1 $267 forward single #
loop $-1 $268 $269 $105 #
cone-surface $-1 -0.3601426942360888 -25.337001918485687 3.3490690417015205 0 0.52991927123019833 -0.84804809178421925 1.25 0 0 1 I I -0.70710678118654746 0.70710678118654746 1.25 forward I I I I #
loop $-1 $-1 $270 $77 #
coedge $-1 $170 $170 $271 $272 reversed $106 $-1 #
face $-1 $273 $274 $60 $-1 $275 reversed single #
loop $-1 $-1 $276 $108 #
plane-surface $-1 -9.1001376345925422 -37.977172387756781 0.79775259439765023 0 -0.52991927123019833 0.84804809178421925 1 0 0 forward_v I I I I #
coedge $-1 $277 $278 $279 $280 reversed $109 $-1 #
face $-1 $-1 $281 $61 $-1 $282 forward single #
loop $-1 $283 $284 $111 #
cone-surface $-1 11.29318389290583 -25.337001918485687 3.3490690417015205 0 0.52991927123019833 -0.84804809178421925 1.25 0 0 1 I I -0.70710678118654746 0.70710678118654746 1.25 forward I I I I #
loop $-1 $-1 $285 $79 #
coedge $-1 $179 $179 $286 $287 reversed $112 $-1 #
face $-1 $-1 $288 $62 $-1 $289 forward single #
loop $-1 $290 $291 $114 #
cone-surface $-1 20.033178833262269 -25.337001918485687 3.3490690417015205 0 0.52991927123019833 -0.84804809178421925 1.25 0 0 1 I I -0.70710678118654746 0.70710678118654746 1.25 forward I I I I #
loop $-1 $-1 $292 $80 #
coedge $-1 $184 $184 $293 $294 reversed $115 $-1 #
face $-1 $-1 $295 $63 $-1 $296 forward single #
loop $-1 $297 $298 $117 #
cone-surface $-1 28.773173773618723 -25.337001918485687 3.3490690417015205 0 0.52991927123019833 -0.84804809178421925 1.25 0 0 1 I I -0.70710678118654746 0.70710678118654746 1.25 forward I I I I #
loop $-1 $-1 $299 $81 #
coedge $-1 $189 $189 $300 $301 reversed $118 $-1 #
face $-1 $302 $303 $64 $-1 $304 reversed single #
loop $-1 $-1 $305 $120 #
plane-surface $-1 -9.1001376345925422 -26.435764761838207 41.047423624605059 0 0.52991927123019833 0.84804809178421925 1 0 0 forward_v I I I I #
coedge $-1 $306 $307 $308 $309 reversed $121 $-1 #
face $-1 $-1 $310 $65 $-1 $311 forward single #
loop $-1 $312 $313 $123 #
cone-surface $-1 -17.840132574948989 25.337001918485683 3.3490690417015134 0 -0.52991927123019833 -0.84804809178421925 1.25 0 0 1 I I -0.70710678118654746 0.70710678118654746 1.25 forward I I I I #
loop $-1 $-1 $314 $83 #
coedge $-1 $198 $198 $315 $316 reversed $124 $-1 #
face $-1 $-1 $317 $66 $-1 $318 forward single #
loop $-1 $319 $320 $126 #
cone-surface $-1 -9.1001376345925422 25.337001918485683 3.3490690417015134 0 -0.52991927123019833 -0.84804809178421925 1.25 0 0 1 I I -0.70710678118654746 0.70710678118654746 1.25 forward I I I I #
loop $-1 $-1 $321 $84 #
coedge $-1 $203 $203 $322 $323 reversed $127 $-1 #
face $-1 $-1 $324 $67 $-1 $325 forward single #
loop $-1 $326 $327 $129 #
cone-surface $-1 -0.3601426942360888 25.337001918485683 3.3490690417015134 0 -0.52991927123019833 -0.84804809178421925 1.25 0 0 1 I I -0.70710678118654746 0.70710678118654746 1.25 forward I I I I #
loop $-1 $-1 $328 $85 #
coedge $-1 $208 $208 $329 $330 reversed $130 $-1 #
face $-1 $331 $332 $68 $-1 $333 reversed single #
loop $-1 $-1 $334 $132 #
plane-surface $-1 34.599837067189682 43.73022379159017 153.33647580938501 -1 0 0 0 0.52991927123019833 0.84804809178421925 forward_v I I I I #
coedge $-1 $335 $336 $337 $338 reversed $133 $-1 #
face $-1 $-1 $339 $69 $-1 $340 forward single #
loop $-1 $341 $342 $135 #
cone-surface $-1 11.29318389290583 25.337001918485683 3.3490690417015134 0 -0.52991927123019833 -0.84804809178421925 1.25 0 0 1 I I -0.70710678118654746 0.70710678118654746 1.25 forward I I I I #
loop $-1 $-1 $343 $87 #
coedge $-1 $217 $217 $344 $345 reversed $136 $-1 #
face $-1 $-1 $346 $70 $-1 $347 forward single #
loop $-1 $348 $349 $138 #
cone-surface $-1 20.033178833262269 25.337001918485683 3.3490690417015134 0 -0.52991927123019833 -0.84804809178421925 1.25 0 0 1 I I -0.70710678118654746 0.70710678118654746 1.25 forward I I I I #
loop $-1 $-1 $350 $88 #
coedge $-1 $222 $222 $351 $352 reversed $139 $-1 #
face $-1 $-1 $353 $71 $-1 $354 forward single #
loop $-1 $355 $356 $141 #
cone-surface $-1 28.773173773618723 25.337001918485683 3.3490690417015134 0 -0.52991927123019833 -0.84804809178421925 1.25 0 0 1 I I -0.70710678118654746 0.70710678118654746 1.25 forward I I I I #
loop $-1 $-1 $357 $89 #
coedge $-1 $227 $227 $358 $359 reversed $142 $-1 #
face $-1 $360 $361 $54 $-1 $362 reversed single #
loop $-1 $-1 $363 $144 #
plane-surface $-1 0 -37.977172387756802 0 0 1 0 0 0 1 forward_v I I I I #
coedge $-1 $364 $365 $366 $367 forward $145 $-1 #
coedge $-1 $368 $147 $369 $370 forward $91 $-1 #
coedge $-1 $147 $368 $371 $372 forward $91 $-1 #
coedge $-1 $373 $374 $147 $235 reversed $375 $-1 #
edge $-1 $376 -37.977172387756802 $377 37.977172387756802 $234 $378 forward 7 unknown #
face $-1 $379 $380 $55 $-1 $381 reversed single #
loop $-1 $-1 $382 $148 #
plane-surface $-1 0 0 13.591555616137738 0 0 1 1 0 0 forward_v I I I I #
coedge $-1 $383 $384 $385 $386 reversed $149 $-1 #
coedge $-1 $387 $151 $388 $389 reversed $94 $-1 #
coedge $-1 $151 $387 $390 $391 reversed $94 $-1 #
coedge $-1 $384 $383 $151 $243 reversed $149 $-1 #
edge $-1 $392 -13.591555616137738 $393 13.591555616137738 $242 $394 forward 7 unknown #
face $-1 $395 $396 $56 $-1 $397 forward single #
loop $-1 $-1 $398 $152 #
plane-surface $-1 -23.666795868519955 -108.14316094118516 113.0868047791776 1 0 0 0 0.52991927123019833 -0.84804809178421925 forward_v I I I I #
coedge $-1 $399 $400 $401 $402 reversed $153 $-1 #
coedge $-1 $249 $155 $403 $404 reversed $97 $-1 #
coedge $-1 $155 $248 $399 $405 reversed $97 $-1 #
coedge $-1 $401 $406 $155 $251 forward $396 $-1 #
edge $-1 $407 16.094408082835777 $408 36.568772440377145 $250 $409 forward 7 unknown #
loop $-1 $-1 $257 $156 #
plane-surface $-1 -9.1001376345925422 -37.977172387756781 0.79775259439765023 0 -0.52991927123019833 0.84804809178421925 1 0 0 forward_v I I I I #
loop $-1 $-1 $410 $99 #
coedge $-1 $255 $255 $256 $411 reversed $157 $-1 #
coedge $-1 $256 $256 $255 $411 forward $159 $-1 #
coedge $-1 $257 $257 $160 $258 forward $252 $-1 #
edge $-1 $412 -4.1493901310376906e-016 $412 6.2831853071796004 $257 $413 forward 7 unknown #
loop $-1 $-1 $264 $161 #
plane-surface $-1 -9.1001376345925422 -37.977172387756781 0.79775259439765023 0 -0.52991927123019833 0.84804809178421925 1 0 0 forward_v I I I I #
loop $-1 $-1 $414 $102 #
coedge $-1 $262 $262 $263 $415 reversed $162 $-1 #
coedge $-1 $263 $263 $262 $415 forward $164 $-1 #
coedge $-1 $264 $264 $165 $265 forward $259 $-1 #
edge $-1 $416 -4.1493901310376906e-016 $416 6.2831853071796004 $264 $417 forward 7 unknown #
loop $-1 $-1 $271 $166 #
plane-surface $-1 -9.1001376345925422 -37.977172387756781 0.79775259439765023 0 -0.52991927123019833 0.84804809178421925 1 0 0 forward_v I I I I #
loop $-1 $-1 $418 $105 #
coedge $-1 $269 $269 $270 $419 reversed $167 $-1 #
coedge $-1 $270 $270 $269 $419 forward $169 $-1 #
coedge $-1 $271 $271 $170 $272 forward $266 $-1 #
edge $-1 $420 -4.1493901310376906e-016 $420 6.2831853071796004 $271 $421 forward 7 unknown #
face $-1 $422 $423 $60 $-1 $424 forward single #
loop $-1 $-1 $425 $171 #
plane-surface $-1 0 -37.977172387756802 0 0 1 0 0 0 1 forward_v I I I I #
coedge $-1 $426 $427 $428 $429 reversed $172 $-1 #
coedge $-1 $278 $174 $430 $431 reversed $109 $-1 #
coedge $-1 $174 $277 $432 $433 reversed $109 $-1 #
coedge $-1 $434 $425 $174 $280 forward $274 $-1 #
edge $-1 $435 -55.745649795191163 $436 -42.951846773451059 $279 $437 forward 7 unknown #
loop $-1 $-1 $286 $175 #
plane-surface $-1 -9.1001376345925422 -37.977172387756781 0.79775259439765023 0 -0.52991927123019833 0.84804809178421925 1 0 0 forward_v I I I I #
loop $-1 $-1 $438 $111 #
coedge $-1 $284 $284 $285 $439 reversed $176 $-1 #
coedge $-1 $285 $285 $284 $439 forward $178 $-1 #
coedge $-1 $286 $286 $179 $287 forward $281 $-1 #
edge $-1 $440 -4.1493901310376906e-016 $440 6.2831853071796004 $286 $441 forward 7 unknown #
loop $-1 $-1 $293 $180 #
plane-surface $-1 -9.1001376345925422 -37.977172387756781 0.79775259439765023 0 -0.52991927123019833 0.84804809178421925 1 0 0 forward_v I I I I #
loop $-1 $-1 $442 $114 #
coedge $-1 $291 $291 $292 $443 reversed $181 $-1 #
coedge $-1 $292 $292 $291 $443 forward $183 $-1 #
coedge $-1 $293 $293 $184 $294 forward $288 $-1 #
edge $-1 $444 -4.1493901310376906e-016 $444 6.2831853071796004 $293 $445 forward 7 unknown #
loop $-1 $-1 $300 $185 #
plane-surface $-1 -9.1001376345925422 -37.977172387756781 0.79775259439765023 0 -0.52991927123019833 0.84804809178421925 1 0 0 forward_v I I I I #
loop $-1 $-1 $446 $117 #
coedge $-1 $298 $298 $299 $447 reversed $186 $-1 #
coedge $-1 $299 $299 $298 $447 forward $188 $-1 #
coedge $-1 $300 $300 $189 $301 forward $295 $-1 #
edge $-1 $448 -4.1493901310376906e-016 $448 6.2831853071796004 $300 $449 forward 7 unknown #
face $-1 $450 $451 $64 $-1 $452 reversed single #
loop $-1 $-1 $453 $190 #
plane-surface $-1 5.4665205993348707 43.73022379159017 153.33647580938501 -1 0 0 0 0.52991927123019833 0.84804809178421925 forward_v I I I I #
coedge $-1 $454 $455 $456 $457 reversed $191 $-1 #
coedge $-1 $307 $193 $458 $459 reversed $121 $-1 #
coedge $-1 $193 $306 $454 $460 reversed $121 $-1 #
coedge $-1 $456 $461 $193 $309 forward $462 $-1 #
edge $-1 $463 -16.112060491961717 $464 4.3623038655796229 $308 $465 forward 7 unknown #
loop $-1 $-1 $315 $194 #
plane-surface $-1 -9.1001376345925422 -26.435764761838207 41.047423624605059 0 0.52991927123019833 0.84804809178421925 1 0 0 forward_v I I I I #
loop $-1 $-1 $466 $123 #
coedge $-1 $313 $313 $314 $467 reversed $195 $-1 #
coedge $-1 $314 $314 $313 $467 forward $197 $-1 #
coedge $-1 $315 $315 $198 $316 forward $310 $-1 #
edge $-1 $468 4.8923747681858323e-016 $468 6.2831853071796013 $315 $469 forward 7 unknown #
loop $-1 $-1 $322 $199 #
plane-surface $-1 -9.1001376345925422 -26.435764761838207 41.047423624605059 0 0.52991927123019833 0.84804809178421925 1 0 0 forward_v I I I I #
loop $-1 $-1 $470 $126 #
coedge $-1 $320 $320 $321 $471 reversed $200 $-1 #
coedge $-1 $321 $321 $320 $471 forward $202 $-1 #
coedge $-1 $322 $322 $203 $323 forward $317 $-1 #
edge $-1 $472 4.8923747681858323e-016 $472 6.2831853071796013 $322 $473 forward 7 unknown #
loop $-1 $-1 $329 $204 #
plane-surface $-1 -9.1001376345925422 -26.435764761838207 41.047423624605059 0 0.52991927123019833 0.84804809178421925 1 0 0 forward_v I I I I #
loop $-1 $-1 $474 $129 #
coedge $-1 $327 $327 $328 $475 reversed $205 $-1 #
coedge $-1 $328 $328 $327 $475 forward $207 $-1 #
coedge $-1 $329 $329 $208 $330 forward $324 $-1 #
edge $-1 $476 4.8923747681858323e-016 $476 6.2831853071796013 $329 $477 forward 7 unknown #
face $-1 $478 $479 $68 $-1 $480 forward single #
loop $-1 $-1 $481 $209 #
plane-surface $-1 0 37.977172387756802 0 0 -1 0 0 0 -1 forward_v I I I I #
coedge $-1 $482 $483 $484 $485 reversed $210 $-1 #
coedge $-1 $486 $212 $487 $488 reversed $133 $-1 #
coedge $-1 $212 $486 $489 $490 reversed $133 $-1 #
coedge $-1 $491 $492 $212 $338 forward $479 $-1 #
edge $-1 $493 -75.954344775513619 $494 -51.811416378062646 $337 $495 forward 7 unknown #
loop $-1 $-1 $344 $213 #
plane-surface $-1 -9.1001376345925422 -26.435764761838207 41.047423624605059 0 0.52991927123019833 0.84804809178421925 1 0 0 forward_v I I I I #
loop $-1 $-1 $496 $135 #
coedge $-1 $342 $342 $343 $497 reversed $214 $-1 #
coedge $-1 $343 $343 $342 $497 forward $216 $-1 #
coedge $-1 $344 $344 $217 $345 forward $339 $-1 #
edge $-1 $498 4.8923747681858323e-016 $498 6.2831853071796013 $344 $499 forward 7 unknown #
loop $-1 $-1 $351 $218 #
plane-surface $-1 -9.1001376345925422 -26.435764761838207 41.047423624605059 0 0.52991927123019833 0.84804809178421925 1 0 0 forward_v I I I I #
loop $-1 $-1 $500 $138 #
coedge $-1 $349 $349 $350 $501 reversed $219 $-1 #
coedge $-1 $350 $350 $349 $501 forward $221 $-1 #
coedge $-1 $351 $351 $222 $352 forward $346 $-1 #
edge $-1 $502 4.8923747681858323e-016 $502 6.2831853071796013 $351 $503 forward 7 unknown #
loop $-1 $-1 $358 $223 #
plane-surface $-1 -9.1001376345925422 -26.435764761838207 41.047423624605059 0 0.52991927123019833 0.84804809178421925 1 0 0 forward_v I I I I #
loop $-1 $-1 $504 $141 #
coedge $-1 $356 $356 $357 $505 reversed $224 $-1 #
coedge $-1 $357 $357 $356 $505 forward $226 $-1 #
coedge $-1 $358 $358 $227 $359 forward $353 $-1 #
edge $-1 $506 4.8923747681858323e-016 $506 6.2831853071796013 $358 $507 forward 7 unknown #
face $-1 $508 $509 $54 $-1 $510 reversed single #
loop $-1 $-1 $511 $228 #
plane-surface $-1 -66.204412976470223 0 0 1 0 0 0 0 -1 forward_v I I I I #
coedge $-1 $512 $371 $513 $514 forward $229 $-1 #
coedge $-1 $515 $231 $512 $516 forward $145 $-1 #
coedge $-1 $231 $515 $517 $518 forward $145 $-1 #
coedge $-1 $374 $373 $231 $367 reversed $375 $-1 #
edge $-1 $519 -37.977172387756802 $520 37.977172387756802 $366 $521 forward 7 unknown #
coedge $-1 $233 $232 $522 $523 forward $91 $-1 #
coedge $-1 $524 $525 $232 $370 reversed $509 $-1 #
edge $-1 $377 -66.204412976470223 $526 66.204412976470223 $369 $527 forward 7 unknown #
coedge $-1 $363 $528 $233 $372 reversed $229 $-1 #
edge $-1 $529 -66.204412976470223 $376 66.204412976470223 $371 $530 forward 7 unknown #
coedge $-1 $366 $234 $528 $531 forward $375 $-1 #
coedge $-1 $234 $366 $524 $532 reversed $375 $-1 #
loop $-1 $-1 $373 $508 #
vertex $-1 $235 $533 #
vertex $-1 $235 $534 #
straight-curve $-1 66.204412976470223 0 13.591555616137738 0 1 0 I I #
face $-1 $535 $536 $55 $-1 $537 reversed single #
loop $-1 $-1 $538 $236 #
plane-surface $-1 -66.204412976470223 0 0 1 0 0 0 0 -1 forward_v I I I I #
coedge $-1 $390 $539 $384 $540 forward $237 $-1 #
coedge $-1 $242 $239 $541 $542 reversed $149 $-1 #
coedge $-1 $239 $242 $382 $540 reversed $149 $-1 #
coedge $-1 $543 $544 $239 $386 forward $545 $-1 #
edge $-1 $546 -13.591555616137738 $547 13.591555616137738 $385 $548 forward 7 unknown #
coedge $-1 $241 $240 $538 $549 reversed $94 $-1 #
coedge $-1 $541 $550 $240 $389 forward $536 $-1 #
edge $-1 $551 -35.83546678790254 $393 -24.902425589232827 $388 $552 forward 7 unknown #
coedge $-1 $553 $382 $241 $391 forward $237 $-1 #
edge $-1 $392 24.902425589232827 $554 35.83546678790254 $390 $555 forward 7 unknown #
vertex $-1 $391 $556 #
vertex $-1 $389 $557 #
straight-curve $-1 -55.27137177780051 -31.956769039151606 0 0 0 -1 I I #
face $-1 $-1 $558 $56 $-1 $559 reversed single #
loop $-1 $-1 $250 $244 #
plane-surface $-1 0 0 13.591555616137738 0 0 1 1 0 0 forward_v I I I I #
coedge $-1 $560 $561 $562 $563 reversed $245 $-1 #
coedge $-1 $564 $247 $249 $405 forward $153 $-1 #
coedge $-1 $247 $564 $560 $565 forward $153 $-1 #
coedge $-1 $562 $250 $247 $402 forward $396 $-1 #
edge $-1 $408 -10.016589416631142 $566 19.116727051223684 $401 $567 forward 7 unknown #
coedge $-1 $568 $569 $248 $404 forward $558 $-1 #
edge $-1 $570 -55.745649795191163 $407 -42.951846773451059 $403 $571 forward 7 unknown #
edge $-1 $408 -24.142928397450987 $570 2.5137175249122944e-014 $249 $572 forward 7 unknown #
coedge $-1 $250 $562 $568 $573 forward $396 $-1 #
vertex $-1 $404 $574 #
vertex $-1 $251 $575 #
straight-curve $-1 5.4665205993348707 -54.071580470592579 13.59155561613774 0 1 0 I I #
coedge $-1 $410 $410 $-1 $576 reversed $254 $-1 #
edge $-1 $577 0 $577 6.2831853071796004 $255 $578 forward 7 unknown #
vertex $-1 $258 $579 #
ellipse-curve $-1 -17.840132574948989 -27.739990208986121 7.1946541052676833 0 -0.52991927123019833 0.84804809178421925 2.5 0 0 1 I I #
coedge $-1 $414 $414 $-1 $580 reversed $261 $-1 #
edge $-1 $581 0 $581 6.2831853071796004 $262 $582 forward 7 unknown #
vertex $-1 $265 $583 #
ellipse-curve $-1 -9.1001376345925422 -27.739990208986121 7.1946541052676833 0 -0.52991927123019833 0.84804809178421925 2.5 0 0 1 I I #
coedge $-1 $418 $418 $-1 $584 reversed $268 $-1 #
edge $-1 $585 0 $585 6.2831853071796004 $269 $586 forward 7 unknown #
vertex $-1 $272 $587 #
ellipse-curve $-1 -0.3601426942360888 -27.739990208986121 7.1946541052676833 0 -0.52991927123019833 0.84804809178421925 2.5 0 0 1 I I #
face $-1 $-1 $588 $60 $-1 $589 forward single #
loop $-1 $-1 $590 $273 #
plane-surface $-1 5.4665205993348707 -108.14316094118516 113.0868047791776 -1 0 0 0 -0.52991927123019833 0.84804809178421925 forward_v I I I I #
coedge $-1 $279 $591 $427 $592 forward $274 $-1 #
coedge $-1 $430 $276 $593 $594 reversed $172 $-1 #
coedge $-1 $276 $430 $425 $592 reversed $172 $-1 #
coedge $-1 $595 $590 $276 $429 forward $423 $-1 #
edge $-1 $596 -24.142928397450987 $597 2.5137175249122944e-014 $428 $598 forward 7 unknown #
coedge $-1 $427 $426 $277 $431 forward $172 $-1 #
edge $-1 $599 -24.142928397450987 $435 2.5137175249122944e-014 $277 $600 forward 7 unknown #
coedge $-1 $593 $601 $278 $433 forward $588 $-1 #
edge $-1 $436 16.094408082835777 $599 36.568772440377145 $432 $602 forward 7 unknown #
coedge $-1 $591 $279 $601 $603 reversed $274 $-1 #
vertex $-1 $280 $604 #
vertex $-1 $280 $605 #
straight-curve $-1 34.599837067189682 -37.977172387756802 56.543402389588799 0 0 1 I I #
coedge $-1 $438 $438 $-1 $606 reversed $283 $-1 #
edge $-1 $607 0 $607 6.2831853071796004 $284 $608 forward 7 unknown #
vertex $-1 $287 $609 #
ellipse-curve $-1 11.29318389290583 -27.739990208986121 7.1946541052676833 0 -0.52991927123019833 0.84804809178421925 2.5 0 0 1 I I #
coedge $-1 $442 $442 $-1 $610 reversed $290 $-1 #
edge $-1 $611 0 $611 6.2831853071796004 $291 $612 forward 7 unknown #
vertex $-1 $294 $613 #
ellipse-curve $-1 20.033178833262269 -27.739990208986121 7.1946541052676833 0 -0.52991927123019833 0.84804809178421925 2.5 0 0 1 I I #
coedge $-1 $446 $446 $-1 $614 reversed $297 $-1 #
edge $-1 $615 0 $615 6.2831853071796004 $298 $616 forward 7 unknown #
vertex $-1 $301 $617 #
ellipse-curve $-1 28.773173773618723 -27.739990208986121 7.1946541052676833 0 -0.52991927123019833 0.84804809178421925 2.5 0 0 1 I I #
face $-1 $-1 $462 $64 $-1 $618 forward single #
loop $-1 $-1 $619 $302 #
plane-surface $-1 0 37.977172387756802 0 0 -1 0 0 0 -1 forward_v I I I I #
coedge $-1 $620 $621 $622 $623 reversed $303 $-1 #
coedge $-1 $624 $305 $307 $460 forward $191 $-1 #
coedge $-1 $305 $624 $620 $625 forward $191 $-1 #
coedge $-1 $622 $308 $305 $457 forward $462 $-1 #
edge $-1 $464 -19.116727051223684 $626 10.016589416631142 $456 $627 forward 7 unknown #
coedge $-1 $628 $629 $306 $459 forward $451 $-1 #
edge $-1 $630 -75.870485310294839 $463 -63.076682288554764 $458 $631 forward 7 unknown #
edge $-1 $464 51.811416378062646 $630 75.954344775513619 $307 $632 forward 7 unknown #
coedge $-1 $308 $622 $628 $633 forward $462 $-1 #
loop $-1 $-1 $622 $450 #
vertex $-1 $459 $634 #
vertex $-1 $309 $635 #
straight-curve $-1 -23.666795868519955 21.865111895795085 13.59155561613774 0 -1 0 I I #
coedge $-1 $466 $466 $-1 $636 reversed $312 $-1 #
edge $-1 $637 0 $637 6.2831853071796004 $313 $638 forward 7 unknown #
vertex $-1 $316 $639 #
ellipse-curve $-1 -17.840132574948989 27.739990208986132 7.1946541052676993 0 0.52991927123019833 0.84804809178421925 2.5 0 0 1 I I #
coedge $-1 $470 $470 $-1 $640 reversed $319 $-1 #
edge $-1 $641 0 $641 6.2831853071796004 $320 $642 forward 7 unknown #
vertex $-1 $323 $643 #
ellipse-curve $-1 -9.1001376345925422 27.739990208986132 7.1946541052676993 0 0.52991927123019833 0.84804809178421925 2.5 0 0 1 I I #
coedge $-1 $474 $474 $-1 $644 reversed $326 $-1 #
edge $-1 $645 0 $645 6.2831853071796004 $327 $646 forward 7 unknown #
vertex $-1 $330 $647 #
ellipse-curve $-1 -0.3601426942360888 27.739990208986132 7.1946541052676993 0 0.52991927123019833 0.84804809178421925 2.5 0 0 1 I I #
face $-1 $-1 $648 $68 $-1 $649 forward single #
loop $-1 $-1 $491 $331 #
plane-surface $-1 5.4665205993348707 43.73022379159017 153.33647580938501 -1 0 0 0 0.52991927123019833 0.84804809178421925 forward_v I I I I #
coedge $-1 $487 $650 $483 $651 forward $332 $-1 #
coedge $-1 $483 $334 $486 $652 reversed $210 $-1 #
coedge $-1 $334 $482 $481 $651 reversed $210 $-1 #
coedge $-1 $653 $489 $334 $485 forward $648 $-1 #
edge $-1 $654 -4.3623038655796229 $655 16.112060491961717 $484 $656 forward 7 unknown #
coedge $-1 $336 $335 $482 $652 forward $133 $-1 #
coedge $-1 $657 $481 $335 $488 forward $332 $-1 #
edge $-1 $658 -39.149905884485953 $493 -10.016589416631142 $487 $659 forward 7 unknown #
coedge $-1 $484 $660 $336 $490 forward $648 $-1 #
edge $-1 $494 10.016589416631142 $654 39.149905884485953 $489 $661 forward 7 unknown #
coedge $-1 $492 $337 $660 $662 reversed $479 $-1 #
coedge $-1 $337 $491 $657 $663 reversed $479 $-1 #
vertex $-1 $488 $664 #
vertex $-1 $490 $665 #
straight-curve $-1 5.4665205993348707 -26.435764761838207 41.047423624605059 0 -0.84804809178421925 0.52991927123019833 I I #
coedge $-1 $496 $496 $-1 $666 reversed $341 $-1 #
edge $-1 $667 0 $667 6.2831853071796004 $342 $668 forward 7 unknown #
vertex $-1 $345 $669 #
ellipse-curve $-1 11.29318389290583 27.739990208986132 7.1946541052676993 0 0.52991927123019833 0.84804809178421925 2.5 0 0 1 I I #
coedge $-1 $500 $500 $-1 $670 reversed $348 $-1 #
edge $-1 $671 0 $671 6.2831853071796004 $349 $672 forward 7 unknown #
vertex $-1 $352 $673 #
ellipse-curve $-1 20.033178833262269 27.739990208986132 7.1946541052676993 0 0.52991927123019833 0.84804809178421925 2.5 0 0 1 I I #
coedge $-1 $504 $504 $-1 $674 reversed $355 $-1 #
edge $-1 $675 0 $675 6.2831853071796004 $356 $676 forward 7 unknown #
vertex $-1 $359 $677 #
ellipse-curve $-1 28.773173773618723 27.739990208986132 7.1946541052676993 0 0.52991927123019833 0.84804809178421925 2.5 0 0 1 I I #
face $-1 $-1 $375 $54 $-1 $678 reversed single #
loop $-1 $-1 $524 $360 #
plane-surface $-1 0 37.977172387756802 0 0 -1 0 0 0 -1 forward_v I I I I #
coedge $-1 $679 $522 $525 $680 forward $361 $-1 #
coedge $-1 $528 $363 $364 $516 reversed $229 $-1 #
coedge $-1 $522 $679 $363 $514 reversed $361 $-1 #
edge $-1 $529 -13.591555616137738 $681 13.591555616137738 $513 $682 forward 7 unknown #
coedge $-1 $365 $364 $679 $683 forward $145 $-1 #
edge $-1 $520 -66.204412976470223 $681 66.204412976470223 $512 $684 forward 7 unknown #
coedge $-1 $525 $524 $365 $518 reversed $509 $-1 #
edge $-1 $685 -66.204412976470223 $519 66.204412976470223 $517 $686 forward 7 unknown #
vertex $-1 $367 $687 #
vertex $-1 $531 $688 #
straight-curve $-1 66.204412976470223 0 -13.591555616137738 0 -1 0 I I #
coedge $-1 $511 $513 $368 $523 reversed $361 $-1 #
edge $-1 $526 -37.977172387756802 $529 37.977172387756802 $522 $689 forward 7 unknown #
coedge $-1 $517 $369 $374 $532 forward $509 $-1 #
coedge $-1 $369 $517 $511 $680 reversed $509 $-1 #
vertex $-1 $370 $690 #
straight-curve $-1 0 37.977172387756802 13.591555616137738 -1 0 0 I I #
coedge $-1 $371 $512 $373 $531 reversed $229 $-1 #
vertex $-1 $523 $691 #
straight-curve $-1 0 -37.977172387756802 13.591555616137738 1 0 0 I I #
edge $-1 $376 -13.591555616137738 $520 13.591555616137738 $373 $692 forward 7 unknown #
edge $-1 $377 -13.591555616137738 $519 13.591555616137738 $374 $693 forward 7 unknown #
point $-1 66.204412976470223 -37.977172387756802 13.591555616137738 #
point $-1 66.204412976470223 37.977172387756802 13.591555616137738 #
face $-1 $-1 $545 $55 $-1 $694 reversed single #
loop $-1 $-1 $541 $379 #
plane-surface $-1 0 0 -13.591555616137738 0 0 1 1 0 0 forward_v I I I I #
coedge $-1 $695 $696 $387 $549 forward $380 $-1 #
coedge $-1 $382 $553 $543 $697 forward $237 $-1 #
edge $-1 $547 -20.493687031029694 $392 -14.473283682424505 $382 $698 forward 7 unknown #
coedge $-1 $699 $388 $383 $542 forward $536 $-1 #
edge $-1 $393 14.473283682424505 $546 20.493687031029694 $541 $700 forward 7 unknown #
coedge $-1 $701 $385 $539 $697 reversed $545 $-1 #
coedge $-1 $385 $701 $699 $702 reversed $545 $-1 #
loop $-1 $-1 $385 $535 #
vertex $-1 $702 $703 #
vertex $-1 $386 $704 #
straight-curve $-1 -55.27137177780051 -37.977172387756802 0 0 0 1 I I #
edge $-1 $554 -13.591555616137738 $551 13.591555616137738 $538 $705 forward 7 unknown #
coedge $-1 $388 $699 $695 $706 forward $536 $-1 #
vertex $-1 $389 $707 #
straight-curve $-1 -30.368946188567683 -31.956769039151606 -13.591555616137738 1 0 0 I I #
coedge $-1 $539 $390 $696 $708 forward $237 $-1 #
vertex $-1 $708 $709 #
straight-curve $-1 -30.368946188567683 -31.956769039151606 13.591555616137738 -1 0 0 I I #
point $-1 -55.27137177780051 -31.956769039151606 13.591555616137738 #
point $-1 -55.27137177780051 -31.956769039151606 -13.591555616137738 #
loop $-1 $-1 $403 $395 #
plane-surface $-1 0 -37.977172387756802 0 0 1 0 0 0 1 forward_v I I I I #
coedge $-1 $561 $398 $400 $565 reversed $245 $-1 #
coedge $-1 $398 $560 $710 $711 reversed $245 $-1 #
coedge $-1 $406 $401 $398 $563 forward $396 $-1 #
edge $-1 $566 -36.568772440377145 $712 -16.094408082835777 $562 $713 forward 7 unknown #
coedge $-1 $400 $399 $569 $714 reversed $153 $-1 #
edge $-1 $715 -2.5137175249122944e-014 $566 24.142928397450987 $560 $716 forward 7 unknown #
vertex $-1 $402 $717 #
straight-curve $-1 -4.5500688172962711 -17.502808030215434 13.591555616137738 -1 0 0 I I #
coedge $-1 $710 $403 $406 $573 reversed $558 $-1 #
coedge $-1 $403 $710 $564 $714 forward $558 $-1 #
vertex $-1 $404 $718 #
straight-curve $-1 5.4665205993348707 -37.977172387756802 56.543402389588799 0 0 1 I I #
straight-curve $-1 5.4665205993348707 -37.977172387756781 0.79775259439765023 0 -0.84804809178421925 -0.52991927123019833 I I #
edge $-1 $712 -23.666795868519955 $407 5.4665205993348707 $568 $719 forward 7 unknown #
point $-1 5.4665205993348707 -37.977172387756802 13.591555616137738 #
point $-1 5.4665205993348707 -17.502808030215434 13.591555616137738 #
edge $-1 $720 1 $720 0 $410 $-1 forward 7 unknown #
vertex $-1 $411 $721 #
ellipse-curve $-1 -17.840132574948989 -25.999401007523435 4.4091291564317947 0 -0.52991927123019833 0.84804809178421925 2.5 0 0 1 I I #
point $-1 -15.340132574948989 -27.739990208986132 7.1946541052676984 #
edge $-1 $722 1 $722 0 $414 $-1 forward 7 unknown #
vertex $-1 $415 $723 #
ellipse-curve $-1 -9.1001376345925422 -25.999401007523435 4.4091291564317947 0 -0.52991927123019833 0.84804809178421925 2.5 0 0 1 I I #
point $-1 -6.6001376345925422 -27.739990208986132 7.1946541052676984 #
edge $-1 $724 1 $724 0 $418 $-1 forward 7 unknown #
vertex $-1 $419 $725 #
ellipse-curve $-1 -0.3601426942360888 -25.999401007523435 4.4091291564317947 0 -0.52991927123019833 0.84804809178421925 2.5 0 0 1 I I #
point $-1 2.1398573057639112 -27.739990208986132 7.1946541052676984 #
loop $-1 $-1 $593 $422 #
plane-surface $-1 0 0 13.591555616137738 0 0 1 1 0 0 forward_v I I I I #
coedge $-1 $428 $595 $726 $727 reversed $423 $-1 #
coedge $-1 $425 $434 $595 $728 forward $274 $-1 #
edge $-1 $597 10.016589416631142 $435 39.149905884485953 $425 $729 forward 7 unknown #
coedge $-1 $726 $432 $426 $594 forward $588 $-1 #
edge $-1 $599 -39.149905884485953 $596 -10.016589416631142 $593 $730 forward 7 unknown #
coedge $-1 $590 $428 $591 $728 reversed $423 $-1 #
vertex $-1 $594 $731 #
vertex $-1 $592 $732 #
straight-curve $-1 5.4665205993348707 -37.977172387756781 0.79775259439765023 0 -0.84804809178421925 -0.52991927123019833 I I #
vertex $-1 $433 $733 #
straight-curve $-1 34.599837067189682 -37.977172387756781 0.79775259439765023 0 -0.84804809178421925 -0.52991927123019833 I I #
coedge $-1 $432 $726 $434 $603 forward $588 $-1 #
straight-curve $-1 34.599837067189682 -54.071580470592579 13.59155561613774 0 1 0 I I #
edge $-1 $734 5.4665205993348707 $436 34.599837067189682 $434 $735 forward 7 unknown #
point $-1 34.599837067189682 -37.977172387756802 0.7977525943976369 #
point $-1 34.599837067189682 -37.977172387756802 13.591555616137738 #
edge $-1 $736 1 $736 0 $438 $-1 forward 7 unknown #
vertex $-1 $439 $737 #
ellipse-curve $-1 11.29318389290583 -25.999401007523435 4.4091291564317947 0 -0.52991927123019833 0.84804809178421925 2.5 0 0 1 I I #
point $-1 13.79318389290583 -27.739990208986132 7.1946541052676984 #
edge $-1 $738 1 $738 0 $442 $-1 forward 7 unknown #
vertex $-1 $443 $739 #
ellipse-curve $-1 20.033178833262269 -25.999401007523435 4.4091291564317947 0 -0.52991927123019833 0.84804809178421925 2.5 0 0 1 I I #
point $-1 22.533178833262269 -27.739990208986132 7.1946541052676984 #
edge $-1 $740 1 $740 0 $446 $-1 forward 7 unknown #
vertex $-1 $447 $741 #
ellipse-curve $-1 28.773173773618723 -25.999401007523435 4.4091291564317947 0 -0.52991927123019833 0.84804809178421925 2.5 0 0 1 I I #
point $-1 31.273173773618723 -27.739990208986132 7.1946541052676984 #
plane-surface $-1 0 0 13.591555616137738 0 0 1 1 0 0 forward_v I I I I #
coedge $-1 $629 $628 $621 $742 forward $451 $-1 #
coedge $-1 $621 $453 $455 $625 reversed $303 $-1 #
coedge $-1 $453 $620 $619 $742 reversed $303 $-1 #
coedge $-1 $461 $456 $453 $623 forward $462 $-1 #
edge $-1 $626 -4.3623038655796229 $743 16.112060491961717 $622 $744 forward 7 unknown #
coedge $-1 $455 $454 $629 $745 reversed $191 $-1 #
edge $-1 $746 -75.954344775513619 $626 -51.811416378062646 $620 $747 forward 7 unknown #
vertex $-1 $457 $748 #
straight-curve $-1 -4.5500688172962711 17.502808030215469 13.59155561613774 1 0 0 I I #
coedge $-1 $619 $458 $461 $633 reversed $451 $-1 #
coedge $-1 $458 $619 $624 $745 forward $451 $-1 #
vertex $-1 $459 $749 #
straight-curve $-1 -23.666795868519955 37.977172387756802 76.668237904692504 0 0 1 I I #
straight-curve $-1 -23.666795868519955 -26.435764761838207 41.047423624605059 0 0.84804809178421925 -0.52991927123019833 I I #
edge $-1 $743 -5.4665205993348707 $463 23.666795868519955 $628 $750 forward 7 unknown #
point $-1 -23.666795868519955 37.977172387756802 13.591555616137738 #
point $-1 -23.666795868519955 17.502808030215462 13.59155561613774 #
edge $-1 $751 1 $751 0 $466 $-1 forward 7 unknown #
vertex $-1 $467 $752 #
ellipse-curve $-1 -17.840132574948989 25.999401007523431 4.4091291564317876 0 0.52991927123019833 0.84804809178421925 2.5 0 0 1 I I #
point $-1 -15.340132574948989 27.739990208986129 7.1946541052676913 #
edge $-1 $753 1 $753 0 $470 $-1 forward 7 unknown #
vertex $-1 $471 $754 #
ellipse-curve $-1 -9.1001376345925422 25.999401007523431 4.4091291564317876 0 0.52991927123019833 0.84804809178421925 2.5 0 0 1 I I #
point $-1 -6.6001376345925422 27.739990208986129 7.1946541052676913 #
edge $-1 $755 1 $755 0 $474 $-1 forward 7 unknown #
vertex $-1 $475 $756 #
ellipse-curve $-1 -0.3601426942360888 25.999401007523431 4.4091291564317876 0 0.52991927123019833 0.84804809178421925 2.5 0 0 1 I I #
point $-1 2.1398573057639112 27.739990208986129 7.1946541052676913 #
loop $-1 $-1 $484 $478 #
plane-surface $-1 0 0 13.591555616137738 0 0 1 1 0 0 forward_v I I I I #
coedge $-1 $481 $657 $653 $757 reversed $332 $-1 #
edge $-1 $655 63.076682288554764 $658 75.870485310294839 $481 $758 forward 7 unknown #
edge $-1 $658 -75.954344775513619 $654 -51.811416378062646 $482 $759 forward 7 unknown #
coedge $-1 $660 $484 $650 $757 forward $648 $-1 #
vertex $-1 $485 $760 #
vertex $-1 $757 $761 #
straight-curve $-1 34.599837067189682 21.865111895795085 13.59155561613774 0 1 0 I I #
coedge $-1 $650 $487 $492 $663 forward $332 $-1 #
vertex $-1 $651 $762 #
straight-curve $-1 -4.5500688172962711 37.977172387756802 0.79775259439766089 -1 0 0 I I #
coedge $-1 $489 $653 $491 $662 forward $648 $-1 #
straight-curve $-1 -4.5500688172962711 17.502808030215469 13.59155561613774 1 0 0 I I #
edge $-1 $763 -16.112060491961717 $494 4.3623038655796229 $660 $764 forward 7 unknown #
edge $-1 $493 -75.870485310294839 $763 -63.076682288554764 $657 $765 forward 7 unknown #
point $-1 5.4665205993348707 37.977172387756802 0.79775259439765733 #
point $-1 5.4665205993348707 17.502808030215462 13.59155561613774 #
edge $-1 $766 1 $766 0 $496 $-1 forward 7 unknown #
vertex $-1 $497 $767 #
ellipse-curve $-1 11.29318389290583 25.999401007523431 4.4091291564317876 0 0.52991927123019833 0.84804809178421925 2.5 0 0 1 I I #
point $-1 13.79318389290583 27.739990208986129 7.1946541052676913 #
edge $-1 $768 1 $768 0 $500 $-1 forward 7 unknown #
vertex $-1 $501 $769 #
ellipse-curve $-1 20.033178833262269 25.999401007523431 4.4091291564317876 0 0.52991927123019833 0.84804809178421925 2.5 0 0 1 I I #
point $-1 22.533178833262269 27.739990208986129 7.1946541052676913 #
edge $-1 $770 1 $770 0 $504 $-1 forward 7 unknown #
vertex $-1 $505 $771 #
ellipse-curve $-1 28.773173773618723 25.999401007523431 4.4091291564317876 0 0.52991927123019833 0.84804809178421925 2.5 0 0 1 I I #
point $-1 31.273173773618723 27.739990208986129 7.1946541052676913 #
plane-surface $-1 66.204412976470223 0 0 -1 0 0 0 0 1 forward_v I I I I #
coedge $-1 $513 $511 $515 $683 reversed $361 $-1 #
edge $-1 $526 -13.591555616137738 $685 13.591555616137738 $525 $772 forward 7 unknown #
vertex $-1 $683 $773 #
straight-curve $-1 -66.204412976470223 -37.977172387756802 0 0 0 -1 I I #
edge $-1 $681 -37.977172387756802 $685 37.977172387756802 $679 $774 forward 7 unknown #
straight-curve $-1 0 -37.977172387756802 -13.591555616137738 -1 0 0 I I #
vertex $-1 $518 $775 #
straight-curve $-1 0 37.977172387756802 -13.591555616137738 1 0 0 I I #
point $-1 66.204412976470223 37.977172387756802 -13.591555616137738 #
point $-1 66.204412976470223 -37.977172387756802 -13.591555616137738 #
straight-curve $-1 -66.204412976470223 0 13.591555616137738 0 -1 0 I I #
point $-1 -66.204412976470223 37.977172387756802 13.591555616137738 #
point $-1 -66.204412976470223 -37.977172387756802 13.591555616137738 #
straight-curve $-1 66.204412976470223 -37.977172387756802 0 0 0 -1 I I #
straight-curve $-1 66.204412976470223 37.977172387756802 0 0 0 -1 I I #
plane-surface $-1 0 -37.977172387756802 0 0 1 0 0 0 1 forward_v I I I I #
coedge $-1 $776 $538 $550 $706 reversed $380 $-1 #
coedge $-1 $538 $776 $553 $708 reversed $380 $-1 #
edge $-1 $777 -66.204412976470223 $547 -55.27137177780051 $543 $778 forward 7 unknown #
straight-curve $-1 -55.27137177780051 -17.483485356727101 13.591555616137738 0 1 0 I I #
coedge $-1 $550 $541 $544 $702 forward $536 $-1 #
straight-curve $-1 -55.27137177780051 -17.483485356727101 -13.591555616137738 0 -1 0 I I #
coedge $-1 $544 $543 $776 $779 forward $545 $-1 #
edge $-1 $546 55.27137177780051 $780 66.204412976470223 $544 $781 forward 7 unknown #
point $-1 -55.27137177780051 -37.977172387756795 -13.591555616137738 #
point $-1 -55.27137177780051 -37.977172387756795 13.591555616137738 #
straight-curve $-1 -66.204412976470223 -31.956769039151606 0 0 0 -1 I I #
edge $-1 $780 -37.977172387756802 $551 -31.956769039151606 $695 $782 forward 7 unknown #
point $-1 -66.204412976470223 -31.956769039151606 -13.591555616137738 #
edge $-1 $554 31.956769039151606 $777 37.977172387756802 $696 $783 forward 7 unknown #
point $-1 -66.204412976470223 -31.956769039151606 13.591555616137738 #
coedge $-1 $569 $568 $561 $711 forward $558 $-1 #
edge $-1 $712 42.951846773451059 $715 55.745649795191163 $710 $784 forward 7 unknown #
vertex $-1 $573 $785 #
straight-curve $-1 -23.666795868519955 -54.071580470592579 13.59155561613774 0 -1 0 I I #
edge $-1 $715 -19.116727051223684 $570 10.016589416631142 $569 $786 forward 7 unknown #
vertex $-1 $714 $787 #
straight-curve $-1 -23.666795868519955 -37.977172387756781 0.79775259439765023 0 0.84804809178421925 0.52991927123019833 I I #
point $-1 -23.666795868519955 -17.502808030215434 13.591555616137738 #
point $-1 5.4665205993348707 -37.977172387756802 0.7977525943976369 #
straight-curve $-1 0 -37.977172387756802 13.591555616137738 1 0 0 I I #
vertex $-1 $576 $788 #
point $-1 -15.340132574948989 -25.999401007523435 4.4091291564317947 #
vertex $-1 $580 $789 #
point $-1 -6.6001376345925422 -25.999401007523435 4.4091291564317947 #
vertex $-1 $584 $790 #
point $-1 2.1398573057639112 -25.999401007523435 4.4091291564317947 #
coedge $-1 $601 $593 $590 $727 forward $588 $-1 #
edge $-1 $596 -36.568772440377145 $734 -16.094408082835777 $726 $791 forward 7 unknown #
edge $-1 $734 42.951846773451059 $597 55.745649795191163 $591 $792 forward 7 unknown #
straight-curve $-1 -4.5500688172962711 -37.977172387756802 0.79775259439763879 1 0 0 I I #
straight-curve $-1 -4.5500688172962711 -17.502808030215434 13.591555616137738 -1 0 0 I I #
point $-1 5.4665205993348707 -17.502808030215434 13.591555616137738 #
point $-1 5.4665205993348707 -37.977172387756802 0.7977525943976369 #
point $-1 34.599837067189682 -17.502808030215434 13.591555616137738 #
vertex $-1 $603 $793 #
straight-curve $-1 0 -37.977172387756802 13.591555616137738 1 0 0 I I #
vertex $-1 $606 $794 #
point $-1 13.79318389290583 -25.999401007523435 4.4091291564317947 #
vertex $-1 $610 $795 #
point $-1 22.533178833262269 -25.999401007523435 4.4091291564317947 #
vertex $-1 $614 $796 #
point $-1 31.273173773618723 -25.999401007523435 4.4091291564317947 #
edge $-1 $743 63.076682288554764 $746 75.870485310294839 $619 $797 forward 7 unknown #
vertex $-1 $633 $798 #
straight-curve $-1 5.4665205993348707 21.865111895795085 13.59155561613774 0 1 0 I I #
edge $-1 $746 -10.016589416631142 $630 19.116727051223684 $629 $799 forward 7 unknown #
vertex $-1 $745 $800 #
straight-curve $-1 5.4665205993348707 -26.435764761838207 41.047423624605059 0 -0.84804809178421925 0.52991927123019833 I I #
point $-1 5.4665205993348707 17.502808030215462 13.59155561613774 #
point $-1 -23.666795868519955 37.977172387756802 0.79775259439765733 #
straight-curve $-1 0 37.977172387756802 13.591555616137738 -1 0 0 I I #
vertex $-1 $636 $801 #
point $-1 -15.340132574948989 25.999401007523431 4.4091291564317876 #
vertex $-1 $640 $802 #
point $-1 -6.6001376345925422 25.999401007523431 4.4091291564317876 #
vertex $-1 $644 $803 #
point $-1 2.1398573057639112 25.999401007523431 4.4091291564317876 #
edge $-1 $655 -34.599837067189682 $763 -5.4665205993348707 $650 $804 forward 7 unknown #
straight-curve $-1 34.599837067189682 37.977172387756802 76.668237904692504 0 0 -1 I I #
straight-curve $-1 34.599837067189682 -26.435764761838207 41.047423624605059 0 -0.84804809178421925 0.52991927123019833 I I #
point $-1 34.599837067189682 17.502808030215462 13.59155561613774 #
point $-1 34.599837067189682 37.977172387756802 13.591555616137738 #
point $-1 34.599837067189682 37.977172387756802 0.79775259439765733 #
vertex $-1 $663 $805 #
straight-curve $-1 5.4665205993348707 21.865111895795085 13.59155561613774 0 -1 0 I I #
straight-curve $-1 5.4665205993348707 37.977172387756802 76.668237904692504 0 0 1 I I #
vertex $-1 $666 $806 #
point $-1 13.79318389290583 25.999401007523431 4.4091291564317876 #
vertex $-1 $670 $807 #
point $-1 22.533178833262269 25.999401007523431 4.4091291564317876 #
vertex $-1 $674 $808 #
point $-1 31.273173773618723 25.999401007523431 4.4091291564317876 #
straight-curve $-1 -66.204412976470223 37.977172387756802 0 0 0 -1 I I #
point $-1 -66.204412976470223 -37.977172387756802 -13.591555616137738 #
straight-curve $-1 -66.204412976470223 0 -13.591555616137738 0 1 0 I I #
point $-1 -66.204412976470223 37.977172387756802 -13.591555616137738 #
coedge $-1 $696 $695 $701 $779 reversed $380 $-1 #
vertex $-1 $708 $809 #
straight-curve $-1 0 -37.977172387756802 13.591555616137738 1 0 0 I I #
edge $-1 $777 -13.591555616137738 $780 13.591555616137738 $776 $810 forward 7 unknown #
vertex $-1 $706 $811 #
straight-curve $-1 0 -37.977172387756802 -13.591555616137738 -1 0 0 I I #
straight-curve $-1 -66.204412976470223 0 -13.591555616137738 0 1 0 I I #
straight-curve $-1 -66.204412976470223 0 13.591555616137738 0 -1 0 I I #
straight-curve $-1 -23.666795868519955 -37.977172387756802 56.543402389588799 0 0 -1 I I #
point $-1 -23.666795868519955 -37.977172387756802 13.591555616137738 #
straight-curve $-1 -4.5500688172962711 -37.977172387756802 0.79775259439763879 1 0 0 I I #
point $-1 -23.666795868519955 -37.977172387756802 0.7977525943976369 #
point $-1 -17.840132574948989 -24.674602829447938 2.2890089269712464 #
point $-1 -9.1001376345925422 -24.674602829447938 2.2890089269712464 #
point $-1 -0.3601426942360888 -24.674602829447938 2.2890089269712464 #
straight-curve $-1 5.4665205993348707 -54.071580470592579 13.59155561613774 0 -1 0 I I #
straight-curve $-1 5.4665205993348707 -37.977172387756802 56.543402389588799 0 0 -1 I I #
point $-1 5.4665205993348707 -37.977172387756802 13.591555616137738 #
point $-1 11.29318389290583 -24.674602829447938 2.2890089269712464 #
point $-1 20.033178833262269 -24.674602829447938 2.2890089269712464 #
point $-1 28.773173773618723 -24.674602829447938 2.2890089269712464 #
straight-curve $-1 5.4665205993348707 37.977172387756802 76.668237904692504 0 0 -1 I I #
point $-1 5.4665205993348707 37.977172387756802 13.591555616137738 #
straight-curve $-1 -4.5500688172962711 37.977172387756802 0.79775259439766089 -1 0 0 I I #
point $-1 5.4665205993348707 37.977172387756802 0.79775259439765733 #
point $-1 -17.840132574948989 24.674602829447934 2.2890089269712393 #
point $-1 -9.1001376345925422 24.674602829447934 2.2890089269712393 #
point $-1 -0.3601426942360888 24.674602829447934 2.2890089269712393 #
straight-curve $-1 0 37.977172387756802 13.591555616137738 -1 0 0 I I #
point $-1 5.4665205993348707 37.977172387756802 13.591555616137738 #
point $-1 11.29318389290583 24.674602829447934 2.2890089269712393 #
point $-1 20.033178833262269 24.674602829447934 2.2890089269712393 #
point $-1 28.773173773618723 24.674602829447934 2.2890089269712393 #
point $-1 -66.204412976470223 -37.977172387756802 13.591555616137738 #
straight-curve $-1 -66.204412976470223 -37.977172387756802 0 0 0 -1 I I #
point $-1 -66.204412976470223 -37.977172387756802 -13.591555616137738 #
End-of-ACIS-data 