500 0 14 0           
7 Unknown 11 ACIS 5.0 NT 24 Thu Mar 25 15:15:51 1999 
-1 9.9999999999999995e-007 1e-010 
body $-1 $14 $-1 $15 #
body $-1 $16 $-1 $17 #
body $-1 $18 $-1 $19 #
body $-1 $20 $-1 $21 #
body $-1 $22 $-1 $23 #
body $-1 $24 $-1 $25 #
body $-1 $26 $-1 $27 #
body $-1 $28 $-1 $29 #
body $-1 $30 $-1 $31 #
body $-1 $32 $-1 $33 #
body $-1 $34 $-1 $35 #
body $-1 $36 $-1 $37 #
body $-1 $38 $-1 $39 #
body $-1 $40 $-1 $41 #
lump $-1 $-1 $42 $0 #
transform $-1 1 0 0 0 1 0 0 0 1 51.365092928861351 31.858992359660832 14.985014683868792 1 rotate no_reflect no_shear #
lump $-1 $-1 $43 $1 #
transform $-1 1 0 0 0 1 0 0 0 1 51.365092928861351 31.858992359660832 14.985014683868792 1 rotate no_reflect no_shear #
lump $-1 $-1 $44 $2 #
transform $-1 1 0 0 0 1 0 0 0 1 51.365092928861351 31.858992359660832 14.985014683868792 1 rotate no_reflect no_shear #
lump $-1 $-1 $45 $3 #
transform $-1 1 0 0 0 1 0 0 0 1 51.365092928861351 31.858992359660832 14.985014683868792 1 rotate no_reflect no_shear #
lump $-1 $-1 $46 $4 #
transform $-1 1 0 0 0 1 0 0 0 1 51.365092928861351 31.858992359660832 14.985014683868792 1 rotate no_reflect no_shear #
lump $-1 $-1 $47 $5 #
transform $-1 1 0 0 0 1 0 0 0 1 51.365092928861351 31.858992359660832 14.985014683868792 1 rotate no_reflect no_shear #
lump $-1 $-1 $48 $6 #
transform $-1 1 0 0 0 1 0 0 0 1 51.365092928861351 31.858992359660832 14.985014683868792 1 rotate no_reflect no_shear #
lump $-1 $-1 $49 $7 #
transform $-1 1 0 0 0 1 0 0 0 1 51.365092928861351 31.858992359660832 14.985014683868792 1 rotate no_reflect no_shear #
lump $-1 $-1 $50 $8 #
transform $-1 1 0 0 0 1 0 0 0 1 51.365092928861351 31.858992359660832 14.985014683868792 1 rotate no_reflect no_shear #
lump $-1 $-1 $51 $9 #
transform $-1 1 0 0 0 1 0 0 0 1 51.365092928861351 31.858992359660832 14.985014683868792 1 rotate no_reflect no_shear #
lump $-1 $-1 $52 $10 #
transform $-1 1 0 0 0 1 0 0 0 1 51.365092928861351 31.858992359660832 14.985014683868792 1 rotate no_reflect no_shear #
lump $-1 $-1 $53 $11 #
transform $-1 1 0 0 0 1 0 0 0 1 51.365092928861351 31.858992359660832 14.985014683868792 1 rotate no_reflect no_shear #
lump $-1 $-1 $54 $12 #
transform $-1 1 0 0 0 1 0 0 0 1 51.365092928861351 31.858992359660832 14.985014683868792 1 rotate no_reflect no_shear #
lump $-1 $-1 $55 $13 #
transform $-1 1 0 0 0 1 0 0 0 1 51.365092928861351 31.858992359660832 14.985014683868792 1 rotate no_reflect no_shear #
shell $-1 $-1 $-1 $56 $-1 $14 #
shell $-1 $-1 $-1 $57 $-1 $16 #
shell $-1 $-1 $-1 $58 $-1 $18 #
shell $-1 $-1 $-1 $59 $-1 $20 #
shell $-1 $-1 $-1 $60 $-1 $22 #
shell $-1 $-1 $-1 $61 $-1 $24 #
shell $-1 $-1 $-1 $62 $-1 $26 #
shell $-1 $-1 $-1 $63 $-1 $28 #
shell $-1 $-1 $-1 $64 $-1 $30 #
shell $-1 $-1 $-1 $65 $-1 $32 #
shell $-1 $-1 $-1 $66 $-1 $34 #
shell $-1 $-1 $-1 $67 $-1 $36 #
shell $-1 $-1 $-1 $68 $-1 $38 #
shell $-1 $-1 $-1 $69 $-1 $40 #
face $-1 $70 $71 $42 $-1 $72 forward single #
face $-1 $73 $74 $43 $-1 $75 reversed single #
face $-1 $76 $77 $44 $-1 $78 reversed single #
face $-1 $79 $80 $45 $-1 $81 forward single #
face $-1 $82 $83 $46 $-1 $84 forward single #
face $-1 $85 $86 $47 $-1 $87 forward single #
face $-1 $88 $89 $48 $-1 $90 reversed single #
face $-1 $91 $92 $49 $-1 $93 forward single #
face $-1 $94 $95 $50 $-1 $96 forward single #
face $-1 $97 $98 $51 $-1 $99 forward single #
face $-1 $100 $101 $52 $-1 $102 reversed single #
face $-1 $103 $104 $53 $-1 $105 forward single #
face $-1 $106 $107 $54 $-1 $108 forward single #
face $-1 $109 $110 $55 $-1 $111 forward single #
face $-1 $112 $113 $42 $-1 $114 reversed single #
loop $-1 $-1 $115 $56 #
plane-surface $-1 0 0 14.985014683868792 0 0 1 1 0 0 forward_v I I I I #
face $-1 $116 $117 $43 $-1 $118 reversed single #
loop $-1 $-1 $119 $57 #
plane-surface $-1 0 -24.350181548581261 9.2248824181990354 0 0 1 1 0 0 forward_v I I I I #
face $-1 $120 $121 $44 $-1 $122 reversed single #
loop $-1 $-1 $123 $58 #
plane-surface $-1 74.092272908494124 20.710604800235416 146.4765659053447 0 -1 0 -0.80901700255871778 0 -0.5877852410284794 forward_v I I I I #
face $-1 $124 $125 $45 $-1 $126 forward single #
loop $-1 $127 $128 $59 #
cone-surface $-1 45.431001212096604 10.494857582811555 7.8403088705280259 -0.80901700255871778 0 -0.5877852410284794 0.5877852410284794 0 -0.80901700255871778 1 I I 0 1 1 forward I I I I #
face $-1 $129 $130 $46 $-1 $131 forward single #
loop $-1 $132 $133 $60 #
cone-surface $-1 45.431001212096604 14.325762789345504 7.8403088705280259 -0.80901700255871778 0 -0.5877852410284794 0.5877852410284794 0 -0.80901700255871778 1 I I 0 1 1 forward I I I I #
face $-1 $134 $135 $47 $-1 $136 forward single #
loop $-1 $137 $138 $61 #
cone-surface $-1 45.431001212096604 18.156667995879452 7.8403088705280259 -0.80901700255871778 0 -0.5877852410284794 0.5877852410284794 0 -0.80901700255871778 1 I I 0 1 1 forward I I I I #
face $-1 $139 $140 $48 $-1 $141 reversed single #
loop $-1 $-1 $142 $62 #
plane-surface $-1 -51.365092928861358 -12.444545492009514 2.8149257792002231 -0.79863551827123203 0 0.60181501223851219 0.60181501223851219 0 0.79863551827123203 forward_v I I I I #
face $-1 $143 $144 $49 $-1 $145 forward single #
loop $-1 $146 $147 $63 #
cone-surface $-1 -46.380365407985423 -15.08264063930482 8.5990627254152567 0.79863551827123203 0 -0.60181501223851219 0.3009075061192561 0 0.39931775913561601 1 I I 0 1 0.5 forward I I I I #
face $-1 $148 $149 $50 $-1 $150 forward single #
loop $-1 $151 $152 $64 #
cone-surface $-1 -46.380365407985423 -12.444545492009514 8.5990627254152567 0.79863551827123203 0 -0.60181501223851219 0.3009075061192561 0 0.39931775913561601 1 I I 0 1 0.5 forward I I I I #
face $-1 $153 $154 $51 $-1 $155 forward single #
loop $-1 $156 $157 $65 #
cone-surface $-1 -46.380365407985423 -9.8064503447142073 8.5990627254152567 0.79863551827123203 0 -0.60181501223851219 0.3009075061192561 0 0.39931775913561601 1 I I 0 1 0.5 forward I I I I #
face $-1 $158 $159 $52 $-1 $160 reversed single #
loop $-1 $-1 $161 $66 #
plane-surface $-1 -133.40906815344371 7.5088108110795746 64.639493838430241 0 1 0 -0.79863551827123203 0 0.60181501223851219 forward_v I I I I #
face $-1 $162 $163 $53 $-1 $164 forward single #
loop $-1 $165 $166 $67 #
cone-surface $-1 -46.380365407985423 9.2675409092764411 8.5990627254152567 0.79863551827123203 0 -0.60181501223851219 0.3009075061192561 0 0.39931775913561601 1 I I 0 1 0.5 forward I I I I #
face $-1 $167 $168 $54 $-1 $169 forward single #
loop $-1 $170 $171 $68 #
cone-surface $-1 -46.380365407985423 11.905636056571751 8.5990627254152567 0.79863551827123203 0 -0.60181501223851219 0.3009075061192561 0 0.39931775913561601 1 I I 0 1 0.5 forward I I I I #
face $-1 $172 $173 $55 $-1 $174 forward single #
loop $-1 $175 $176 $69 #
cone-surface $-1 -46.380365407985423 14.543731203867054 8.5990627254152567 0.79863551827123203 0 -0.60181501223851219 0.3009075061192561 0 0.39931775913561601 1 I I 0 1 0.5 forward I I I I #
face $-1 $177 $178 $42 $-1 $179 reversed single #
loop $-1 $-1 $180 $70 #
plane-surface $-1 0 0 -14.985014683868792 0 0 1 1 0 0 forward_v I I I I #
coedge $-1 $181 $182 $183 $184 forward $71 $-1 #
face $-1 $185 $186 $43 $-1 $187 reversed single #
loop $-1 $-1 $188 $73 #
plane-surface $-1 0 -16.841370737501691 12.104948551033916 0 -1 0 0 0 -1 forward_v I I I I #
coedge $-1 $189 $190 $191 $192 reversed $74 $-1 #
face $-1 $193 $194 $44 $-1 $195 reversed single #
loop $-1 $-1 $196 $76 #
plane-surface $-1 -9.0181941264206671 14.325762789345504 86.093278850062688 0.80901700255871778 0 0.5877852410284794 0.5877852410284794 0 -0.80901700255871778 forward_v I I I I #
coedge $-1 $197 $198 $199 $200 reversed $77 $-1 #
face $-1 $-1 $201 $45 $-1 $202 forward single #
loop $-1 $203 $204 $79 #
cone-surface $-1 43.452456273330647 10.494857582811555 6.4028118710334834 -0.80901700255871778 0 -0.5877852410284794 0.2938926205142397 0 -0.40450850127935889 1 I I -0.70710678118654746 0.70710678118654746 0.5 forward I I I I #
loop $-1 $-1 $205 $59 #
coedge $-1 $128 $128 $206 $207 reversed $80 $-1 #
face $-1 $-1 $208 $46 $-1 $209 forward single #
loop $-1 $210 $211 $82 #
cone-surface $-1 43.452456273330647 14.325762789345504 6.4028118710334834 -0.80901700255871778 0 -0.5877852410284794 0.2938926205142397 0 -0.40450850127935889 1 I I -0.70710678118654746 0.70710678118654746 0.5 forward I I I I #
loop $-1 $-1 $212 $60 #
coedge $-1 $133 $133 $213 $214 reversed $83 $-1 #
face $-1 $-1 $215 $47 $-1 $216 forward single #
loop $-1 $217 $218 $85 #
cone-surface $-1 43.452456273330647 18.156667995879452 6.4028118710334834 -0.80901700255871778 0 -0.5877852410284794 0.2938926205142397 0 -0.40450850127935889 1 I I -0.70710678118654746 0.70710678118654746 0.5 forward I I I I #
loop $-1 $-1 $219 $61 #
coedge $-1 $138 $138 $220 $221 reversed $86 $-1 #
face $-1 $222 $223 $48 $-1 $224 forward single #
loop $-1 $-1 $225 $88 #
plane-surface $-1 -133.40906815344371 -8.0477202465173363 64.639493838430241 0 -1 0 0.79863551827123203 0 -0.60181501223851219 forward_v I I I I #
coedge $-1 $226 $227 $228 $229 reversed $89 $-1 #
face $-1 $-1 $230 $49 $-1 $231 forward single #
loop $-1 $232 $233 $91 #
cone-surface $-1 -45.781388769281996 -15.08264063930482 8.1477014662363718 0.79863551827123203 0 -0.60181501223851219 0.15045375305962805 0 0.19965887956780801 1 I I -0.70710678118654746 0.70710678118654746 0.25 forward I I I I #
loop $-1 $-1 $234 $63 #
coedge $-1 $147 $147 $235 $236 reversed $92 $-1 #
face $-1 $-1 $237 $50 $-1 $238 forward single #
loop $-1 $239 $240 $94 #
cone-surface $-1 -45.781388769281996 -12.444545492009514 8.1477014662363718 0.79863551827123203 0 -0.60181501223851219 0.15045375305962805 0 0.19965887956780801 1 I I -0.70710678118654746 0.70710678118654746 0.25 forward I I I I #
loop $-1 $-1 $241 $64 #
coedge $-1 $152 $152 $242 $243 reversed $95 $-1 #
face $-1 $-1 $244 $51 $-1 $245 forward single #
loop $-1 $246 $247 $97 #
cone-surface $-1 -45.781388769281996 -9.8064503447142073 8.1477014662363718 0.79863551827123203 0 -0.60181501223851219 0.15045375305962805 0 0.19965887956780801 1 I I -0.70710678118654746 0.70710678118654746 0.25 forward I I I I #
loop $-1 $-1 $248 $65 #
coedge $-1 $157 $157 $249 $250 reversed $98 $-1 #
face $-1 $251 $252 $52 $-1 $253 reversed single #
loop $-1 $-1 $254 $100 #
plane-surface $-1 -51.365092928861358 11.905636056571751 2.8149257792002231 -0.79863551827123203 0 0.60181501223851219 0.60181501223851219 0 0.79863551827123203 forward_v I I I I #
coedge $-1 $255 $256 $257 $258 reversed $101 $-1 #
face $-1 $-1 $259 $53 $-1 $260 forward single #
loop $-1 $261 $262 $103 #
cone-surface $-1 -45.781388769281996 9.2675409092764411 8.1477014662363718 0.79863551827123203 0 -0.60181501223851219 0.15045375305962805 0 0.19965887956780801 1 I I -0.70710678118654746 0.70710678118654746 0.25 forward I I I I #
loop $-1 $-1 $263 $67 #
coedge $-1 $166 $166 $264 $265 reversed $104 $-1 #
face $-1 $-1 $266 $54 $-1 $267 forward single #
loop $-1 $268 $269 $106 #
cone-surface $-1 -45.781388769281996 11.905636056571751 8.1477014662363718 0.79863551827123203 0 -0.60181501223851219 0.15045375305962805 0 0.19965887956780801 1 I I -0.70710678118654746 0.70710678118654746 0.25 forward I I I I #
loop $-1 $-1 $270 $68 #
coedge $-1 $171 $171 $271 $272 reversed $107 $-1 #
face $-1 $-1 $273 $55 $-1 $274 forward single #
loop $-1 $275 $276 $109 #
cone-surface $-1 -45.781388769281996 14.543731203867054 8.1477014662363718 0.79863551827123203 0 -0.60181501223851219 0.15045375305962805 0 0.19965887956780801 1 I I -0.70710678118654746 0.70710678118654746 0.25 forward I I I I #
loop $-1 $-1 $277 $69 #
coedge $-1 $176 $176 $278 $279 reversed $110 $-1 #
face $-1 $280 $281 $42 $-1 $282 reversed single #
loop $-1 $-1 $283 $112 #
plane-surface $-1 0 -31.858992359660832 0 0 1 0 0 0 1 forward_v I I I I #
coedge $-1 $284 $285 $286 $287 forward $113 $-1 #
coedge $-1 $288 $115 $289 $290 forward $71 $-1 #
coedge $-1 $115 $288 $291 $292 forward $71 $-1 #
coedge $-1 $293 $294 $115 $184 reversed $295 $-1 #
edge $-1 $296 -31.858992359660832 $297 31.858992359660832 $183 $298 forward 7 unknown #
face $-1 $299 $300 $43 $-1 $301 reversed single #
loop $-1 $-1 $302 $116 #
plane-surface $-1 -51.365092928861351 0 0 1 0 0 0 0 -1 forward_v I I I I #
coedge $-1 $303 $304 $305 $306 reversed $117 $-1 #
coedge $-1 $307 $119 $308 $309 reversed $74 $-1 #
coedge $-1 $119 $307 $310 $311 forward $74 $-1 #
coedge $-1 $312 $313 $119 $192 forward $314 $-1 #
edge $-1 $315 -19.683901585370201 $316 -4.6662799632110605 $191 $317 forward 7 unknown #
face $-1 $318 $319 $44 $-1 $320 reversed single #
loop $-1 $-1 $321 $120 #
plane-surface $-1 74.092272908494124 7.9409207784555917 146.4765659053447 0 1 0 0.80901700255871778 0 0.5877852410284794 forward_v I I I I #
coedge $-1 $322 $323 $324 $325 reversed $121 $-1 #
coedge $-1 $198 $123 $326 $327 reversed $77 $-1 #
coedge $-1 $123 $197 $322 $328 reversed $77 $-1 #
coedge $-1 $324 $329 $123 $200 forward $330 $-1 #
edge $-1 $331 -14.318956474614289 $332 -5.5988459160580177 $199 $333 forward 7 unknown #
loop $-1 $-1 $206 $124 #
plane-surface $-1 -9.0181941264206671 14.325762789345504 86.093278850062688 0.80901700255871778 0 0.5877852410284794 0.5877852410284794 0 -0.80901700255871778 forward_v I I I I #
loop $-1 $-1 $334 $79 #
coedge $-1 $204 $204 $205 $335 reversed $125 $-1 #
coedge $-1 $205 $205 $204 $335 forward $127 $-1 #
coedge $-1 $206 $206 $128 $207 forward $201 $-1 #
edge $-1 $336 0 $336 6.2831853071796004 $206 $337 forward 7 unknown #
loop $-1 $-1 $213 $129 #
plane-surface $-1 -9.0181941264206671 14.325762789345504 86.093278850062688 0.80901700255871778 0 0.5877852410284794 0.5877852410284794 0 -0.80901700255871778 forward_v I I I I #
loop $-1 $-1 $338 $82 #
coedge $-1 $211 $211 $212 $339 reversed $130 $-1 #
coedge $-1 $212 $212 $211 $339 forward $132 $-1 #
coedge $-1 $213 $213 $133 $214 forward $208 $-1 #
edge $-1 $340 0 $340 6.2831853071796004 $213 $341 forward 7 unknown #
loop $-1 $-1 $220 $134 #
plane-surface $-1 -9.0181941264206671 14.325762789345504 86.093278850062688 0.80901700255871778 0 0.5877852410284794 0.5877852410284794 0 -0.80901700255871778 forward_v I I I I #
loop $-1 $-1 $342 $85 #
coedge $-1 $218 $218 $219 $343 reversed $135 $-1 #
coedge $-1 $219 $219 $218 $343 forward $137 $-1 #
coedge $-1 $220 $220 $138 $221 forward $215 $-1 #
edge $-1 $344 0 $344 6.2831853071796004 $220 $345 forward 7 unknown #
face $-1 $346 $347 $48 $-1 $348 reversed single #
loop $-1 $-1 $228 $139 #
plane-surface $-1 0 0 14.985014683868792 0 0 1 1 0 0 forward_v I I I I #
coedge $-1 $349 $350 $351 $352 reversed $140 $-1 #
coedge $-1 $353 $142 $354 $355 reversed $89 $-1 #
coedge $-1 $142 $353 $349 $356 forward $89 $-1 #
coedge $-1 $351 $357 $142 $229 forward $223 $-1 #
edge $-1 $358 -10.619097991496934 $359 -1.8254475005125794 $228 $360 forward 7 unknown #
loop $-1 $-1 $235 $143 #
plane-surface $-1 -51.365092928861358 -12.444545492009514 2.8149257792002231 -0.79863551827123203 0 0.60181501223851219 0.60181501223851219 0 0.79863551827123203 forward_v I I I I #
loop $-1 $-1 $361 $91 #
coedge $-1 $233 $233 $234 $362 reversed $144 $-1 #
coedge $-1 $234 $234 $233 $362 forward $146 $-1 #
coedge $-1 $235 $235 $147 $236 forward $230 $-1 #
edge $-1 $363 0 $363 6.2831853071796004 $235 $364 forward 7 unknown #
loop $-1 $-1 $242 $148 #
plane-surface $-1 -51.365092928861358 -12.444545492009514 2.8149257792002231 -0.79863551827123203 0 0.60181501223851219 0.60181501223851219 0 0.79863551827123203 forward_v I I I I #
loop $-1 $-1 $365 $94 #
coedge $-1 $240 $240 $241 $366 reversed $149 $-1 #
coedge $-1 $241 $241 $240 $366 forward $151 $-1 #
coedge $-1 $242 $242 $152 $243 forward $237 $-1 #
edge $-1 $367 0 $367 6.2831853071796004 $242 $368 forward 7 unknown #
loop $-1 $-1 $249 $153 #
plane-surface $-1 -51.365092928861358 -12.444545492009514 2.8149257792002231 -0.79863551827123203 0 0.60181501223851219 0.60181501223851219 0 0.79863551827123203 forward_v I I I I #
loop $-1 $-1 $369 $97 #
coedge $-1 $247 $247 $248 $370 reversed $154 $-1 #
coedge $-1 $248 $248 $247 $370 forward $156 $-1 #
coedge $-1 $249 $249 $157 $250 forward $244 $-1 #
edge $-1 $371 0 $371 6.2831853071796004 $249 $372 forward 7 unknown #
face $-1 $373 $374 $52 $-1 $375 forward single #
loop $-1 $-1 $376 $158 #
plane-surface $-1 -133.40906815344371 16.302461302063929 64.639493838430241 0 -1 0 0.79863551827123203 0 -0.60181501223851219 forward_v I I I I #
coedge $-1 $377 $378 $379 $380 reversed $159 $-1 #
coedge $-1 $256 $161 $381 $382 reversed $101 $-1 #
coedge $-1 $161 $255 $377 $383 reversed $101 $-1 #
coedge $-1 $379 $384 $161 $258 forward $374 $-1 #
edge $-1 $385 15.339441147860505 $386 24.510260671341143 $257 $387 forward 7 unknown #
loop $-1 $-1 $264 $162 #
plane-surface $-1 -51.365092928861358 11.905636056571751 2.8149257792002231 -0.79863551827123203 0 0.60181501223851219 0.60181501223851219 0 0.79863551827123203 forward_v I I I I #
loop $-1 $-1 $388 $103 #
coedge $-1 $262 $262 $263 $389 reversed $163 $-1 #
coedge $-1 $263 $263 $262 $389 forward $165 $-1 #
coedge $-1 $264 $264 $166 $265 forward $259 $-1 #
edge $-1 $390 0 $390 6.2831853071796004 $264 $391 forward 7 unknown #
loop $-1 $-1 $271 $167 #
plane-surface $-1 -51.365092928861358 11.905636056571751 2.8149257792002231 -0.79863551827123203 0 0.60181501223851219 0.60181501223851219 0 0.79863551827123203 forward_v I I I I #
loop $-1 $-1 $392 $106 #
coedge $-1 $269 $269 $270 $393 reversed $168 $-1 #
coedge $-1 $270 $270 $269 $393 forward $170 $-1 #
coedge $-1 $271 $271 $171 $272 forward $266 $-1 #
edge $-1 $394 0 $394 6.2831853071796004 $271 $395 forward 7 unknown #
loop $-1 $-1 $278 $172 #
plane-surface $-1 -51.365092928861358 11.905636056571751 2.8149257792002231 -0.79863551827123203 0 0.60181501223851219 0.60181501223851219 0 0.79863551827123203 forward_v I I I I #
loop $-1 $-1 $396 $109 #
coedge $-1 $276 $276 $277 $397 reversed $173 $-1 #
coedge $-1 $277 $277 $276 $397 forward $175 $-1 #
coedge $-1 $278 $278 $176 $279 forward $273 $-1 #
edge $-1 $398 0 $398 6.2831853071796004 $278 $399 forward 7 unknown #
face $-1 $400 $401 $42 $-1 $402 reversed single #
loop $-1 $-1 $403 $177 #
plane-surface $-1 -51.365092928861351 0 0 1 0 0 0 0 -1 forward_v I I I I #
coedge $-1 $404 $291 $405 $406 forward $178 $-1 #
coedge $-1 $407 $180 $404 $408 forward $113 $-1 #
coedge $-1 $180 $407 $409 $410 forward $113 $-1 #
coedge $-1 $294 $293 $180 $287 reversed $295 $-1 #
edge $-1 $411 -31.858992359660832 $412 31.858992359660832 $286 $413 forward 7 unknown #
coedge $-1 $182 $181 $414 $415 forward $71 $-1 #
coedge $-1 $416 $417 $181 $290 reversed $401 $-1 #
edge $-1 $297 -51.365092928861351 $418 51.365092928861351 $289 $419 forward 7 unknown #
coedge $-1 $283 $420 $182 $292 reversed $178 $-1 #
edge $-1 $421 -51.365092928861351 $296 51.365092928861351 $291 $422 forward 7 unknown #
coedge $-1 $286 $183 $420 $423 forward $295 $-1 #
coedge $-1 $183 $286 $416 $424 reversed $295 $-1 #
loop $-1 $-1 $293 $400 #
vertex $-1 $184 $425 #
vertex $-1 $184 $426 #
straight-curve $-1 51.365092928861351 0 14.985014683868792 0 1 0 I I #
face $-1 $427 $428 $43 $-1 $429 forward single #
loop $-1 $-1 $308 $185 #
plane-surface $-1 0 -31.858992359660832 0 0 1 0 0 0 1 forward_v I I I I #
coedge $-1 $430 $431 $304 $432 forward $186 $-1 #
coedge $-1 $310 $188 $312 $433 reversed $117 $-1 #
coedge $-1 $188 $310 $302 $432 reversed $117 $-1 #
coedge $-1 $434 $435 $188 $306 forward $428 $-1 #
edge $-1 $436 -51.365092928861351 $437 51.365092928861351 $305 $438 forward 7 unknown #
coedge $-1 $190 $189 $430 $439 reversed $74 $-1 #
coedge $-1 $440 $441 $189 $309 forward $300 $-1 #
edge $-1 $442 -51.365092928861351 $315 51.365092928861351 $308 $443 forward 7 unknown #
coedge $-1 $304 $303 $190 $311 reversed $117 $-1 #
edge $-1 $444 -51.365092928861351 $316 51.365092928861351 $310 $445 forward 7 unknown #
coedge $-1 $446 $191 $303 $433 forward $314 $-1 #
coedge $-1 $191 $446 $440 $447 forward $314 $-1 #
loop $-1 $-1 $312 $427 #
vertex $-1 $309 $448 #
vertex $-1 $192 $449 #
straight-curve $-1 51.365092928861351 -12.175090774290631 9.2248824181990354 0 1 0 I I #
face $-1 $-1 $330 $44 $-1 $450 forward single #
loop $-1 $-1 $451 $193 #
plane-surface $-1 51.365092928861351 0 0 -1 0 0 0 0 1 forward_v I I I I #
coedge $-1 $452 $453 $454 $455 reversed $194 $-1 #
coedge $-1 $456 $196 $198 $328 forward $121 $-1 #
coedge $-1 $196 $456 $452 $457 forward $121 $-1 #
coedge $-1 $454 $199 $196 $325 forward $330 $-1 #
edge $-1 $332 -13.547723405562664 $458 -0.77803938378283988 $324 $459 forward 7 unknown #
coedge $-1 $460 $461 $197 $327 forward $319 $-1 #
edge $-1 $462 -70.255471137524452 $331 -58.253268268803559 $326 $463 forward 7 unknown #
edge $-1 $332 87.894647382312485 $462 102.73018585772269 $198 $464 forward 7 unknown #
coedge $-1 $199 $454 $460 $465 forward $330 $-1 #
loop $-1 $-1 $454 $318 #
vertex $-1 $327 $466 #
vertex $-1 $200 $467 #
straight-curve $-1 37.046136454247062 20.710604800235416 14.985014683868798 -1 0 0 I I #
coedge $-1 $334 $334 $-1 $468 reversed $203 $-1 #
edge $-1 $469 0 $469 6.2831853071796004 $204 $470 forward 7 unknown #
vertex $-1 $207 $471 #
ellipse-curve $-1 47.005037649583223 10.494857582811555 8.983913249508344 0.80901700255871778 0 0.5877852410284794 0.5877852410284794 0 -0.80901700255871778 1 I I #
coedge $-1 $338 $338 $-1 $472 reversed $210 $-1 #
edge $-1 $473 0 $473 6.2831853071796004 $211 $474 forward 7 unknown #
vertex $-1 $214 $475 #
ellipse-curve $-1 47.005037649583223 14.325762789345504 8.983913249508344 0.80901700255871778 0 0.5877852410284794 0.5877852410284794 0 -0.80901700255871778 1 I I #
coedge $-1 $342 $342 $-1 $476 reversed $217 $-1 #
edge $-1 $477 0 $477 6.2831853071796004 $218 $478 forward 7 unknown #
vertex $-1 $221 $479 #
ellipse-curve $-1 47.005037649583223 18.156667995879452 8.983913249508344 0.80901700255871778 0 0.5877852410284794 0.5877852410284794 0 -0.80901700255871778 1 I I #
face $-1 $-1 $480 $48 $-1 $481 forward single #
loop $-1 $-1 $482 $222 #
plane-surface $-1 -51.365092928861351 0 0 1 0 0 0 0 -1 forward_v I I I I #
coedge $-1 $350 $225 $227 $356 reversed $140 $-1 #
coedge $-1 $225 $349 $482 $483 reversed $140 $-1 #
coedge $-1 $484 $228 $225 $352 forward $223 $-1 #
edge $-1 $359 -24.510260671341143 $485 -15.339441147860505 $351 $486 forward 7 unknown #
coedge $-1 $227 $226 $487 $488 reversed $89 $-1 #
coedge $-1 $489 $490 $226 $355 forward $480 $-1 #
edge $-1 $491 -19.165813090374968 $358 -3.9272109668273356 $354 $492 forward 7 unknown #
edge $-1 $493 1.1724126593787106e-014 $359 15.238602123547643 $349 $494 forward 7 unknown #
coedge $-1 $228 $484 $489 $495 forward $223 $-1 #
vertex $-1 $355 $496 #
vertex $-1 $229 $497 #
straight-curve $-1 -42.19427340538072 -6.2222727460047569 14.985014683868792 0 1 0 I I #
coedge $-1 $361 $361 $-1 $498 reversed $232 $-1 #
edge $-1 $499 0 $499 6.2831853071796004 $233 $500 forward 7 unknown #
vertex $-1 $236 $501 #
ellipse-curve $-1 -46.779683167121036 -15.08264063930482 8.8999702315345104 -0.79863551827123203 0 0.60181501223851219 0.3009075061192561 0 0.39931775913561601 1 I I #
coedge $-1 $365 $365 $-1 $502 reversed $239 $-1 #
edge $-1 $503 0 $503 6.2831853071796004 $240 $504 forward 7 unknown #
vertex $-1 $243 $505 #
ellipse-curve $-1 -46.779683167121036 -12.444545492009514 8.8999702315345104 -0.79863551827123203 0 0.60181501223851219 0.3009075061192561 0 0.39931775913561601 1 I I #
coedge $-1 $369 $369 $-1 $506 reversed $246 $-1 #
edge $-1 $507 0 $507 6.2831853071796004 $247 $508 forward 7 unknown #
vertex $-1 $250 $509 #
ellipse-curve $-1 -46.779683167121036 -9.8064503447142073 8.8999702315345104 -0.79863551827123203 0 0.60181501223851219 0.3009075061192561 0 0.39931775913561601 1 I I #
face $-1 $-1 $510 $52 $-1 $511 reversed single #
loop $-1 $-1 $257 $251 #
plane-surface $-1 0 0 14.985014683868792 0 0 1 1 0 0 forward_v I I I I #
coedge $-1 $512 $513 $514 $515 reversed $252 $-1 #
coedge $-1 $516 $254 $256 $383 forward $159 $-1 #
coedge $-1 $254 $516 $512 $517 forward $159 $-1 #
coedge $-1 $514 $257 $254 $380 forward $374 $-1 #
edge $-1 $386 1.555992782793699 $518 10.349643273778053 $379 $519 forward 7 unknown #
coedge $-1 $520 $521 $255 $382 forward $510 $-1 #
edge $-1 $522 -29.504821140014887 $385 -17.33473223534633 $381 $523 forward 7 unknown #
edge $-1 $386 -15.238602123547643 $522 -1.1724126593787106e-014 $256 $524 forward 7 unknown #
coedge $-1 $257 $514 $520 $525 forward $374 $-1 #
vertex $-1 $258 $526 #
vertex $-1 $258 $527 #
straight-curve $-1 -66.704534076721856 7.5088108110795746 14.985014683868791 1 0 0 I I #
coedge $-1 $388 $388 $-1 $528 reversed $261 $-1 #
edge $-1 $529 0 $529 6.2831853071796004 $262 $530 forward 7 unknown #
vertex $-1 $265 $531 #
ellipse-curve $-1 -46.779683167121036 9.2675409092764411 8.8999702315345104 -0.79863551827123203 0 0.60181501223851219 0.3009075061192561 0 0.39931775913561601 1 I I #
coedge $-1 $392 $392 $-1 $532 reversed $268 $-1 #
edge $-1 $533 0 $533 6.2831853071796004 $269 $534 forward 7 unknown #
vertex $-1 $272 $535 #
ellipse-curve $-1 -46.779683167121036 11.905636056571751 8.8999702315345104 -0.79863551827123203 0 0.60181501223851219 0.3009075061192561 0 0.39931775913561601 1 I I #
coedge $-1 $396 $396 $-1 $536 reversed $275 $-1 #
edge $-1 $537 0 $537 6.2831853071796004 $276 $538 forward 7 unknown #
vertex $-1 $279 $539 #
ellipse-curve $-1 -46.779683167121036 14.543731203867054 8.8999702315345104 -0.79863551827123203 0 0.60181501223851219 0.3009075061192561 0 0.39931775913561601 1 I I #
face $-1 $-1 $295 $42 $-1 $540 reversed single #
loop $-1 $-1 $416 $280 #
plane-surface $-1 0 31.858992359660832 0 0 -1 0 0 0 -1 forward_v I I I I #
coedge $-1 $541 $414 $417 $542 forward $281 $-1 #
coedge $-1 $420 $283 $284 $408 reversed $178 $-1 #
coedge $-1 $414 $541 $283 $406 reversed $281 $-1 #
edge $-1 $421 -14.985014683868792 $543 14.985014683868792 $405 $544 forward 7 unknown #
coedge $-1 $285 $284 $541 $545 forward $113 $-1 #
edge $-1 $412 -51.365092928861351 $543 51.365092928861351 $404 $546 forward 7 unknown #
coedge $-1 $417 $416 $285 $410 reversed $401 $-1 #
edge $-1 $547 -51.365092928861351 $411 51.365092928861351 $409 $548 forward 7 unknown #
vertex $-1 $287 $549 #
vertex $-1 $423 $550 #
straight-curve $-1 51.365092928861351 0 -14.985014683868792 0 -1 0 I I #
coedge $-1 $403 $405 $288 $415 reversed $281 $-1 #
edge $-1 $418 -31.858992359660832 $421 31.858992359660832 $414 $551 forward 7 unknown #
coedge $-1 $409 $289 $294 $424 forward $401 $-1 #
coedge $-1 $289 $409 $403 $542 reversed $401 $-1 #
vertex $-1 $290 $552 #
straight-curve $-1 0 31.858992359660832 14.985014683868792 -1 0 0 I I #
coedge $-1 $291 $404 $293 $423 reversed $178 $-1 #
vertex $-1 $415 $553 #
straight-curve $-1 0 -31.858992359660832 14.985014683868792 1 0 0 I I #
edge $-1 $296 -14.985014683868792 $412 14.985014683868792 $293 $554 forward 7 unknown #
edge $-1 $297 -14.985014683868792 $411 14.985014683868792 $294 $555 forward 7 unknown #
point $-1 51.365092928861351 -31.858992359660832 14.985014683868792 #
point $-1 51.365092928861351 31.858992359660832 14.985014683868792 #
face $-1 $-1 $314 $43 $-1 $556 reversed single #
loop $-1 $-1 $305 $299 #
plane-surface $-1 0 0 14.985014683868792 0 0 1 1 0 0 forward_v I I I I #
coedge $-1 $557 $302 $307 $439 forward $186 $-1 #
coedge $-1 $302 $557 $434 $558 reversed $186 $-1 #
edge $-1 $437 -8.9325404083518372 $444 -3.1724081426820776 $302 $559 forward 7 unknown #
edge $-1 $316 3.1724081426820776 $436 8.9325404083518372 $312 $560 forward 7 unknown #
coedge $-1 $561 $305 $431 $558 forward $428 $-1 #
coedge $-1 $305 $561 $446 $562 forward $428 $-1 #
vertex $-1 $433 $563 #
vertex $-1 $558 $564 #
straight-curve $-1 0 -16.841370737501691 14.985014683868792 -1 0 0 I I #
edge $-1 $444 4.6662799632110605 $442 19.683901585370201 $430 $565 forward 7 unknown #
coedge $-1 $566 $308 $313 $447 reversed $300 $-1 #
coedge $-1 $308 $566 $557 $567 forward $300 $-1 #
vertex $-1 $309 $568 #
straight-curve $-1 0 -31.858992359660832 9.2248824181990354 1 0 0 I I #
vertex $-1 $439 $569 #
straight-curve $-1 0 -16.841370737501691 9.2248824181990354 1 0 0 I I #
coedge $-1 $313 $312 $435 $562 reversed $314 $-1 #
edge $-1 $570 -14.985014683868792 $315 -9.2248824181990354 $313 $571 forward 7 unknown #
point $-1 51.365092928861351 -31.858992359660832 9.2248824181990354 #
point $-1 51.365092928861351 -16.841370737501691 9.2248824181990354 #
plane-surface $-1 0 0 14.985014683868792 0 0 1 1 0 0 forward_v I I I I #
coedge $-1 $461 $460 $453 $572 forward $319 $-1 #
coedge $-1 $453 $321 $323 $457 reversed $194 $-1 #
coedge $-1 $321 $452 $451 $572 reversed $194 $-1 #
coedge $-1 $329 $324 $321 $455 forward $330 $-1 #
edge $-1 $458 5.5988459160580177 $573 14.318956474614289 $454 $574 forward 7 unknown #
coedge $-1 $323 $322 $461 $575 reversed $121 $-1 #
edge $-1 $576 -102.73018585772269 $458 -87.894647382312485 $452 $577 forward 7 unknown #
vertex $-1 $325 $578 #
straight-curve $-1 42.644982370305087 7.1628813946727519 14.985014683868798 0 -1 0 I I #
coedge $-1 $451 $326 $329 $465 reversed $319 $-1 #
coedge $-1 $326 $451 $456 $575 forward $319 $-1 #
vertex $-1 $327 $579 #
straight-curve $-1 51.365092928861351 20.710604800235416 73.23828295267235 0 0 1 I I #
straight-curve $-1 -9.0181941264206671 20.710604800235416 86.093278850062688 0.5877852410284794 0 -0.80901700255871778 I I #
edge $-1 $573 7.9409207784555917 $331 20.710604800235416 $460 $580 forward 7 unknown #
point $-1 51.365092928861351 20.710604800235416 14.985014683868792 #
point $-1 42.64498237030508 20.710604800235416 14.985014683868798 #
edge $-1 $581 1 $581 0 $334 $-1 forward 7 unknown #
vertex $-1 $335 $582 #
ellipse-curve $-1 43.856964774610006 10.494857582811555 6.696704491547723 0.80901700255871778 0 0.5877852410284794 0.5877852410284794 0 -0.80901700255871778 1 I I #
point $-1 47.592822890611679 10.494857582811555 8.1748962469496114 #
edge $-1 $583 1 $583 0 $338 $-1 forward 7 unknown #
vertex $-1 $339 $584 #
ellipse-curve $-1 43.856964774610006 14.325762789345504 6.696704491547723 0.80901700255871778 0 0.5877852410284794 0.5877852410284794 0 -0.80901700255871778 1 I I #
point $-1 47.592822890611679 14.325762789345504 8.1748962469496114 #
edge $-1 $585 1 $585 0 $342 $-1 forward 7 unknown #
vertex $-1 $343 $586 #
ellipse-curve $-1 43.856964774610006 18.156667995879452 6.696704491547723 0.80901700255871778 0 0.5877852410284794 0.5877852410284794 0 -0.80901700255871778 1 I I #
point $-1 47.592822890611679 18.156667995879452 8.1748962469496114 #
loop $-1 $-1 $354 $346 #
plane-surface $-1 0 -16.841370737501691 12.104948551033916 0 -1 0 0 0 -1 forward_v I I I I #
coedge $-1 $487 $587 $350 $483 forward $347 $-1 #
edge $-1 $485 17.33473223534633 $493 29.504821140014887 $482 $588 forward 7 unknown #
coedge $-1 $357 $351 $587 $589 forward $223 $-1 #
vertex $-1 $589 $590 #
straight-curve $-1 -66.704534076721856 -8.0477202465173363 14.985014683868791 -1 0 0 I I #
coedge $-1 $591 $482 $353 $488 forward $347 $-1 #
edge $-1 $493 1.8254475005125794 $491 10.619097991496934 $487 $592 forward 7 unknown #
coedge $-1 $490 $354 $357 $495 reversed $480 $-1 #
coedge $-1 $354 $489 $591 $593 reversed $480 $-1 #
vertex $-1 $593 $594 #
straight-curve $-1 -39.830818889316305 -16.841370737501691 18.121424849721411 0.60181501223851219 0 0.79863551827123203 I I #
vertex $-1 $488 $595 #
straight-curve $-1 -51.365092928861358 -8.0477202465173363 2.8149257792002231 0.60181501223851219 0 0.79863551827123203 I I #
edge $-1 $596 -51.365092928861351 $358 -42.194273405380713 $357 $597 forward 7 unknown #
point $-1 -42.194273405380713 -16.841370737501691 14.985014683868792 #
point $-1 -42.194273405380713 -8.0477202465173363 14.985014683868792 #
edge $-1 $598 1 $598 0 $361 $-1 forward 7 unknown #
vertex $-1 $362 $599 #
ellipse-curve $-1 -45.981047648849803 -15.08264063930482 8.2981552192959995 -0.79863551827123203 0 0.60181501223851219 0.3009075061192561 0 0.39931775913561601 1 I I #
point $-1 -46.478775661001777 -15.08264063930482 9.2992879906701287 #
edge $-1 $600 1 $600 0 $365 $-1 forward 7 unknown #
vertex $-1 $366 $601 #
ellipse-curve $-1 -45.981047648849803 -12.444545492009514 8.2981552192959995 -0.79863551827123203 0 0.60181501223851219 0.3009075061192561 0 0.39931775913561601 1 I I #
point $-1 -46.478775661001777 -12.444545492009514 9.2992879906701287 #
edge $-1 $602 1 $602 0 $369 $-1 forward 7 unknown #
vertex $-1 $370 $603 #
ellipse-curve $-1 -45.981047648849803 -9.8064503447142073 8.2981552192959995 -0.79863551827123203 0 0.60181501223851219 0.3009075061192561 0 0.39931775913561601 1 I I #
point $-1 -46.478775661001777 -9.8064503447142073 9.2992879906701287 #
loop $-1 $-1 $381 $373 #
plane-surface $-1 -51.365092928861351 0 0 1 0 0 0 0 -1 forward_v I I I I #
coedge $-1 $513 $376 $378 $517 reversed $252 $-1 #
coedge $-1 $376 $512 $604 $605 reversed $252 $-1 #
coedge $-1 $384 $379 $376 $515 forward $374 $-1 #
edge $-1 $518 -24.510260671341143 $606 -15.339441147860505 $514 $607 forward 7 unknown #
coedge $-1 $378 $377 $521 $608 reversed $159 $-1 #
edge $-1 $609 1.1724126593787106e-014 $518 15.238602123547643 $512 $610 forward 7 unknown #
vertex $-1 $380 $611 #
straight-curve $-1 -42.19427340538072 5.9528180282858756 14.985014683868792 0 1 0 I I #
coedge $-1 $604 $381 $384 $525 reversed $510 $-1 #
coedge $-1 $381 $604 $516 $608 forward $510 $-1 #
vertex $-1 $382 $612 #
straight-curve $-1 -51.365092928861351 7.5088108110795746 32.31974691921512 0 0 1 I I #
straight-curve $-1 -51.365092928861358 7.5088108110795746 2.8149257792002231 -0.60181501223851219 0 -0.79863551827123203 I I #
edge $-1 $606 -16.302461302063929 $385 -7.5088108110795746 $520 $613 forward 7 unknown #
point $-1 -51.365092928861351 7.5088108110795746 14.985014683868792 #
point $-1 -42.194273405380713 7.5088108110795746 14.985014683868792 #
edge $-1 $614 1 $614 0 $388 $-1 forward 7 unknown #
vertex $-1 $389 $615 #
ellipse-curve $-1 -45.981047648849803 9.2675409092764411 8.2981552192959995 -0.79863551827123203 0 0.60181501223851219 0.3009075061192561 0 0.39931775913561601 1 I I #
point $-1 -46.478775661001777 9.2675409092764411 9.2992879906701287 #
edge $-1 $616 1 $616 0 $392 $-1 forward 7 unknown #
vertex $-1 $393 $617 #
ellipse-curve $-1 -45.981047648849803 11.905636056571751 8.2981552192959995 -0.79863551827123203 0 0.60181501223851219 0.3009075061192561 0 0.39931775913561601 1 I I #
point $-1 -46.478775661001777 11.905636056571751 9.2992879906701287 #
edge $-1 $618 1 $618 0 $396 $-1 forward 7 unknown #
vertex $-1 $397 $619 #
ellipse-curve $-1 -45.981047648849803 14.543731203867054 8.2981552192959995 -0.79863551827123203 0 0.60181501223851219 0.3009075061192561 0 0.39931775913561601 1 I I #
point $-1 -46.478775661001777 14.543731203867054 9.2992879906701287 #
plane-surface $-1 51.365092928861351 0 0 -1 0 0 0 0 1 forward_v I I I I #
coedge $-1 $405 $403 $407 $545 reversed $281 $-1 #
edge $-1 $418 -14.985014683868792 $547 14.985014683868792 $417 $620 forward 7 unknown #
vertex $-1 $545 $621 #
straight-curve $-1 -51.365092928861351 -31.858992359660832 0 0 0 -1 I I #
edge $-1 $543 -31.858992359660832 $547 31.858992359660832 $541 $622 forward 7 unknown #
straight-curve $-1 0 -31.858992359660832 -14.985014683868792 -1 0 0 I I #
vertex $-1 $410 $623 #
straight-curve $-1 0 31.858992359660832 -14.985014683868792 1 0 0 I I #
point $-1 51.365092928861351 31.858992359660832 -14.985014683868792 #
point $-1 51.365092928861351 -31.858992359660832 -14.985014683868792 #
straight-curve $-1 -51.365092928861351 0 14.985014683868792 0 -1 0 I I #
point $-1 -51.365092928861351 31.858992359660832 14.985014683868792 #
point $-1 -51.365092928861351 -31.858992359660832 14.985014683868792 #
straight-curve $-1 51.365092928861351 -31.858992359660832 0 0 0 -1 I I #
straight-curve $-1 51.365092928861351 31.858992359660832 0 0 0 -1 I I #
plane-surface $-1 51.365092928861351 0 0 -1 0 0 0 0 1 forward_v I I I I #
coedge $-1 $431 $430 $441 $567 reversed $186 $-1 #
edge $-1 $437 16.841370737501691 $624 31.858992359660832 $431 $625 forward 7 unknown #
straight-curve $-1 -51.365092928861351 -16.841370737501691 6.0524742755169578 0 0 -1 I I #
straight-curve $-1 51.365092928861351 -16.841370737501691 6.0524742755169578 0 0 1 I I #
coedge $-1 $435 $434 $566 $626 forward $428 $-1 #
edge $-1 $570 -31.858992359660832 $436 -16.841370737501691 $446 $627 forward 7 unknown #
point $-1 51.365092928861351 -16.841370737501691 14.985014683868796 #
point $-1 -51.365092928861351 -16.841370737501691 14.985014683868796 #
straight-curve $-1 -51.365092928861351 -12.175090774290631 9.2248824181990354 0 -1 0 I I #
coedge $-1 $441 $440 $561 $626 reversed $300 $-1 #
edge $-1 $624 -14.985014683868792 $442 -9.2248824181990354 $557 $628 forward 7 unknown #
point $-1 -51.365092928861351 -31.858992359660832 9.2248824181990354 #
point $-1 -51.365092928861351 -16.841370737501691 9.2248824181990354 #
vertex $-1 $562 $629 #
straight-curve $-1 51.365092928861351 -31.858992359660832 0 0 0 -1 I I #
edge $-1 $573 58.253268268803559 $576 70.255471137524452 $451 $630 forward 7 unknown #
vertex $-1 $465 $631 #
straight-curve $-1 37.046136454247062 7.9409207784555917 14.985014683868798 1 0 0 I I #
edge $-1 $576 0.77803938378283988 $462 13.547723405562664 $461 $632 forward 7 unknown #
vertex $-1 $575 $633 #
straight-curve $-1 -9.0181941264206671 7.9409207784555917 86.093278850062688 -0.5877852410284794 0 0.80901700255871778 I I #
point $-1 42.64498237030508 7.9409207784555917 14.985014683868798 #
point $-1 51.365092928861351 20.710604800235416 2.9828118151478975 #
straight-curve $-1 51.365092928861351 0 14.985014683868792 0 1 0 I I #
vertex $-1 $468 $634 #
point $-1 44.444750015638483 10.494857582811555 5.8876874889890054 #
vertex $-1 $472 $635 #
point $-1 44.444750015638483 14.325762789345504 5.8876874889890054 #
vertex $-1 $476 $636 #
point $-1 44.444750015638483 18.156667995879452 5.8876874889890054 #
coedge $-1 $482 $591 $484 $589 reversed $347 $-1 #
straight-curve $-1 -51.365092928861351 -8.0477202465173363 32.31974691921512 0 0 -1 I I #
edge $-1 $485 8.0477202465173363 $596 16.841370737501691 $587 $637 forward 7 unknown #
point $-1 -51.365092928861351 -8.0477202465173363 14.985014683868792 #
coedge $-1 $587 $487 $490 $593 forward $347 $-1 #
straight-curve $-1 -51.365092928861351 -6.2222727460047569 2.8149257792002338 0 -1 0 I I #
edge $-1 $491 -29.504821140014887 $596 -17.334732235346323 $591 $638 forward 7 unknown #
point $-1 -51.365092928861351 -16.841370737501691 2.8149257792002325 #
point $-1 -51.365092928861351 -8.0477202465173363 2.8149257792002325 #
vertex $-1 $593 $639 #
straight-curve $-1 0 -16.841370737501691 14.985014683868792 1 0 0 I I #
vertex $-1 $498 $640 #
point $-1 -45.680140142730551 -15.08264063930482 8.697472978431616 #
vertex $-1 $502 $641 #
point $-1 -45.680140142730551 -12.444545492009514 8.697472978431616 #
vertex $-1 $506 $642 #
point $-1 -45.680140142730551 -9.8064503447142073 8.697472978431616 #
coedge $-1 $521 $520 $513 $605 forward $510 $-1 #
edge $-1 $606 17.33473223534633 $609 29.504821140014887 $604 $643 forward 7 unknown #
vertex $-1 $525 $644 #
straight-curve $-1 -66.704534076721856 16.302461302063929 14.985014683868791 -1 0 0 I I #
edge $-1 $609 -10.349643273778053 $522 -1.555992782793699 $521 $645 forward 7 unknown #
vertex $-1 $608 $646 #
straight-curve $-1 -51.365092928861358 16.302461302063929 2.8149257792002231 0.60181501223851219 0 0.79863551827123203 I I #
point $-1 -42.194273405380713 16.302461302063929 14.985014683868792 #
point $-1 -51.365092928861351 7.5088108110795746 2.8149257792002325 #
straight-curve $-1 -51.365092928861351 0 14.985014683868792 0 -1 0 I I #
vertex $-1 $528 $647 #
point $-1 -45.680140142730551 9.2675409092764411 8.697472978431616 #
vertex $-1 $532 $648 #
point $-1 -45.680140142730551 11.905636056571751 8.697472978431616 #
vertex $-1 $536 $649 #
point $-1 -45.680140142730551 14.543731203867054 8.697472978431616 #
straight-curve $-1 -51.365092928861351 31.858992359660832 0 0 0 -1 I I #
point $-1 -51.365092928861351 -31.858992359660832 -14.985014683868792 #
straight-curve $-1 -51.365092928861351 0 -14.985014683868792 0 1 0 I I #
point $-1 -51.365092928861351 31.858992359660832 -14.985014683868792 #
vertex $-1 $558 $650 #
straight-curve $-1 -51.365092928861351 0 14.985014683868792 0 -1 0 I I #
edge $-1 $624 -51.365092928861351 $570 51.365092928861351 $566 $651 forward 7 unknown #
straight-curve $-1 51.365092928861351 0 14.985014683868792 0 1 0 I I #
straight-curve $-1 -51.365092928861351 -31.858992359660832 0 0 0 -1 I I #
point $-1 51.365092928861351 -31.858992359660832 14.985014683868792 #
straight-curve $-1 51.365092928861351 7.9409207784555917 73.23828295267235 0 0 -1 I I #
point $-1 51.365092928861351 7.9409207784555917 14.985014683868792 #
straight-curve $-1 51.365092928861351 7.1628813946727519 2.9828118151478975 0 1 0 I I #
point $-1 51.365092928861351 7.9409207784555917 2.9828118151478975 #
point $-1 43.047947772051288 10.494857582811555 6.1089192505192438 #
point $-1 43.047947772051288 14.325762789345504 6.1089192505192438 #
point $-1 43.047947772051288 18.156667995879452 6.1089192505192438 #
straight-curve $-1 -51.365092928861351 0 14.985014683868792 0 -1 0 I I #
straight-curve $-1 -51.365092928861351 -16.841370737501691 32.31974691921512 0 0 1 I I #
point $-1 -51.365092928861351 -16.841370737501691 14.985014683868796 #
point $-1 -45.58172988971419 -15.08264063930482 7.9972477131767441 #
point $-1 -45.58172988971419 -12.444545492009514 7.9972477131767441 #
point $-1 -45.58172988971419 -9.8064503447142073 7.9972477131767441 #
straight-curve $-1 -51.365092928861351 16.302461302063929 32.31974691921512 0 0 -1 I I #
point $-1 -51.365092928861351 16.302461302063929 14.985014683868792 #
straight-curve $-1 -51.365092928861351 5.9528180282858756 2.8149257792002338 0 -1 0 I I #
point $-1 -51.365092928861351 16.302461302063929 2.8149257792002325 #
point $-1 -45.58172988971419 9.2675409092764411 7.9972477131767441 #
point $-1 -45.58172988971419 11.905636056571751 7.9972477131767441 #
point $-1 -45.58172988971419 14.543731203867054 7.9972477131767441 #
point $-1 -51.365092928861351 -31.858992359660832 14.985014683868792 #
straight-curve $-1 0 -31.858992359660832 14.985014683868792 1 0 0 I I #
End-of-ACIS-data 