500 0 7 0           
7 Unknown 11 ACIS 5.0 NT 24 Thu Mar 25 22:09:10 1999 
-1 9.9999999999999995e-007 1e-010 
body $-1 $7 $-1 $8 #
body $-1 $9 $-1 $10 #
body $-1 $11 $-1 $12 #
body $-1 $13 $-1 $14 #
body $-1 $15 $-1 $16 #
body $-1 $17 $-1 $18 #
body $-1 $19 $-1 $20 #
lump $-1 $-1 $21 $0 #
transform $-1 1 0 0 0 1 0 0 0 1 61.449629200109868 32.455201051757605 11.537458980412858 1 rotate no_reflect no_shear #
lump $-1 $-1 $22 $1 #
transform $-1 1 0 0 0 1 0 0 0 1 61.449629200109868 32.455201051757605 11.537458980412858 1 rotate no_reflect no_shear #
lump $-1 $-1 $23 $2 #
transform $-1 1 0 0 0 1 0 0 0 1 61.449629200109868 32.455201051757605 11.537458980412858 1 rotate no_reflect no_shear #
lump $-1 $-1 $24 $3 #
transform $-1 1 0 0 0 1 0 0 0 1 61.449629200109868 32.455201051757605 11.537458980412858 1 rotate no_reflect no_shear #
lump $-1 $-1 $25 $4 #
transform $-1 1 0 0 0 1 0 0 0 1 61.449629200109868 32.455201051757605 11.537458980412858 1 rotate no_reflect no_shear #
lump $-1 $-1 $26 $5 #
transform $-1 1 0 0 0 1 0 0 0 1 61.449629200109868 32.455201051757605 11.537458980412858 1 rotate no_reflect no_shear #
lump $-1 $-1 $27 $6 #
transform $-1 1 0 0 0 1 0 0 0 1 61.449629200109868 32.455201051757605 11.537458980412858 1 rotate no_reflect no_shear #
shell $-1 $-1 $-1 $28 $-1 $7 #
shell $-1 $-1 $-1 $29 $-1 $9 #
shell $-1 $-1 $-1 $30 $-1 $11 #
shell $-1 $-1 $-1 $31 $-1 $13 #
shell $-1 $-1 $-1 $32 $-1 $15 #
shell $-1 $-1 $-1 $33 $-1 $17 #
shell $-1 $-1 $-1 $34 $-1 $19 #
face $-1 $35 $36 $21 $-1 $37 forward single #
face $-1 $38 $39 $22 $-1 $40 forward single #
face $-1 $41 $42 $23 $-1 $43 forward single #
face $-1 $44 $45 $24 $-1 $46 reversed single #
face $-1 $47 $48 $25 $-1 $49 forward single #
face $-1 $50 $51 $26 $-1 $52 reversed single #
face $-1 $53 $54 $27 $-1 $55 forward single #
face $-1 $56 $57 $21 $-1 $58 reversed single #
loop $-1 $-1 $59 $28 #
plane-surface $-1 0 0 11.537458980412858 0 0 1 1 0 0 forward_v I I I I #
face $-1 $60 $61 $22 $-1 $62 reversed single #
loop $-1 $-1 $63 $29 #
plane-surface $-1 -57.121946540439851 0 6.066435774438137 0 0 1 1 0 0 forward_v I I I I #
face $-1 $64 $65 $23 $-1 $66 reversed single #
loop $-1 $-1 $67 $30 #
plane-surface $-1 56.13289472679746 0 0.34238540339426216 0 0 1 1 0 0 forward_v I I I I #
face $-1 $68 $69 $24 $-1 $70 reversed single #
loop $-1 $-1 $71 $31 #
plane-surface $-1 -35.321012644932388 102.28241243045179 124.9452881905998 -1 0 0 0 0.84804810408105047 0.52991925155115449 forward_v I I I I #
face $-1 $72 $73 $25 $-1 $74 forward single #
loop $-1 $75 $76 $32 #
cone-surface $-1 -44.057638262851114 28.400647515181802 6.9418255269001019 0 -0.84804810408105047 -0.52991925155115449 1.5 0 0 1 I I 0 1 1.5 forward I I I I #
face $-1 $77 $78 $26 $-1 $79 reversed single #
loop $-1 $-1 $80 $33 #
plane-surface $-1 33.342909017647578 102.28241243045179 124.9452881905998 1 0 0 0 -0.84804810408105047 -0.52991925155115449 forward_v I I I I #
face $-1 $81 $82 $27 $-1 $83 forward single #
loop $-1 $84 $85 $34 #
cone-surface $-1 42.079534635566304 28.400647515181802 6.9418255269001019 0 -0.84804810408105047 -0.52991925155115449 1.5 0 0 1 I I 0 1 1.5 forward I I I I #
face $-1 $86 $87 $21 $-1 $88 reversed single #
loop $-1 $-1 $89 $35 #
plane-surface $-1 0 0 -11.537458980412858 0 0 1 1 0 0 forward_v I I I I #
coedge $-1 $90 $91 $92 $93 forward $36 $-1 #
face $-1 $94 $95 $22 $-1 $96 reversed single #
loop $-1 $-1 $97 $38 #
plane-surface $-1 -57.121946540439851 0 3.066435774438137 0 0 1 1 0 0 forward_v I I I I #
coedge $-1 $98 $99 $100 $101 forward $39 $-1 #
face $-1 $102 $103 $23 $-1 $104 reversed single #
loop $-1 $-1 $105 $41 #
plane-surface $-1 56.13289472679746 0 -2.6576145966057378 0 0 1 1 0 0 forward_v I I I I #
coedge $-1 $106 $107 $108 $109 reversed $42 $-1 #
face $-1 $110 $111 $24 $-1 $112 forward single #
loop $-1 $-1 $113 $44 #
plane-surface $-1 -44.057638262851114 -1.9420706488216695 59.818605162963422 0 0.84804810408105047 0.52991925155115449 1 0 0 forward_v I I I I #
coedge $-1 $114 $115 $116 $117 reversed $45 $-1 #
face $-1 $-1 $118 $25 $-1 $119 forward single #
loop $-1 $120 $121 $47 #
cone-surface $-1 -44.057638262851114 25.823989990537399 5.331751262961042 0 -0.84804810408105047 -0.52991925155115449 0.75 0 0 1 I I -0.70710678118654757 0.70710678118654757 0.75 forward I I I I #
loop $-1 $-1 $122 $32 #
coedge $-1 $76 $76 $123 $124 reversed $48 $-1 #
face $-1 $125 $126 $26 $-1 $127 reversed single #
loop $-1 $-1 $128 $50 #
plane-surface $-1 42.079534635566304 -1.9420706488216695 59.818605162963422 0 0.84804810408105047 0.52991925155115449 1 0 0 forward_v I I I I #
coedge $-1 $129 $130 $131 $132 reversed $51 $-1 #
face $-1 $-1 $133 $27 $-1 $134 forward single #
loop $-1 $135 $136 $53 #
cone-surface $-1 42.079534635566304 25.823989990537399 5.331751262961042 0 -0.84804810408105047 -0.52991925155115449 0.75 0 0 1 I I -0.70710678118654757 0.70710678118654757 0.75 forward I I I I #
loop $-1 $-1 $137 $34 #
coedge $-1 $85 $85 $138 $139 reversed $54 $-1 #
face $-1 $140 $141 $21 $-1 $142 reversed single #
loop $-1 $-1 $143 $56 #
plane-surface $-1 0 -32.455201051757605 0 0 1 0 0 0 1 forward_v I I I I #
coedge $-1 $144 $145 $146 $147 forward $57 $-1 #
coedge $-1 $148 $59 $149 $150 forward $36 $-1 #
coedge $-1 $59 $148 $151 $152 forward $36 $-1 #
coedge $-1 $153 $154 $59 $93 reversed $155 $-1 #
edge $-1 $156 -32.455201051757605 $157 32.455201051757605 $92 $158 forward 7 unknown #
face $-1 $159 $160 $22 $-1 $161 reversed single #
loop $-1 $-1 $162 $60 #
plane-surface $-1 -52.794263880769833 0 4.566435774438137 -1 0 0 0 0 1 forward_v I I I I #
coedge $-1 $163 $164 $165 $166 forward $61 $-1 #
coedge $-1 $167 $63 $168 $169 reversed $39 $-1 #
coedge $-1 $63 $167 $170 $171 reversed $39 $-1 #
coedge $-1 $162 $172 $63 $101 reversed $95 $-1 #
edge $-1 $173 -32.455201051757605 $174 32.455201051757605 $100 $175 forward 7 unknown #
face $-1 $176 $177 $23 $-1 $178 reversed single #
loop $-1 $-1 $179 $64 #
plane-surface $-1 50.816160253485045 0 -1.1576145966057378 1 0 0 0 0 -1 forward_v I I I I #
coedge $-1 $180 $181 $182 $183 reversed $65 $-1 #
coedge $-1 $184 $67 $185 $186 reversed $42 $-1 #
coedge $-1 $67 $184 $187 $188 reversed $42 $-1 #
coedge $-1 $189 $190 $67 $109 forward $191 $-1 #
edge $-1 $192 -32.455201051757605 $193 32.455201051757605 $108 $194 forward 7 unknown #
face $-1 $195 $196 $24 $-1 $197 reversed single #
loop $-1 $-1 $198 $68 #
plane-surface $-1 0 0 11.537458980412858 0 0 1 1 0 0 forward_v I I I I #
coedge $-1 $199 $200 $201 $202 reversed $69 $-1 #
coedge $-1 $115 $71 $203 $204 reversed $45 $-1 #
coedge $-1 $71 $114 $199 $205 reversed $45 $-1 #
coedge $-1 $201 $206 $71 $117 forward $196 $-1 #
edge $-1 $207 50.935185114887041 $208 57.701182371361192 $116 $209 forward 7 unknown #
loop $-1 $-1 $123 $72 #
plane-surface $-1 -44.057638262851114 -1.9420706488216695 59.818605162963422 0 0.84804810408105047 0.52991925155115449 1 0 0 forward_v I I I I #
loop $-1 $-1 $210 $47 #
coedge $-1 $121 $121 $122 $211 reversed $73 $-1 #
coedge $-1 $122 $122 $121 $211 forward $75 $-1 #
coedge $-1 $123 $123 $76 $124 forward $118 $-1 #
edge $-1 $212 2.4976037951920986e-016 $212 6.2831853071796004 $123 $213 forward 7 unknown #
face $-1 $214 $215 $26 $-1 $216 reversed single #
loop $-1 $-1 $217 $77 #
plane-surface $-1 50.81616025348503 102.28241243045179 124.9452881905998 -1 0 0 0 0.84804810408105047 0.52991925155115449 forward_v I I I I #
coedge $-1 $218 $219 $220 $221 reversed $78 $-1 #
coedge $-1 $130 $80 $222 $223 reversed $51 $-1 #
coedge $-1 $80 $129 $218 $224 reversed $51 $-1 #
coedge $-1 $220 $225 $80 $132 forward $226 $-1 #
edge $-1 $227 18.686005163468288 $228 22.913869343452681 $131 $229 forward 7 unknown #
loop $-1 $-1 $138 $81 #
plane-surface $-1 42.079534635566304 -1.9420706488216695 59.818605162963422 0 0.84804810408105047 0.52991925155115449 1 0 0 forward_v I I I I #
loop $-1 $-1 $230 $53 #
coedge $-1 $136 $136 $137 $231 reversed $82 $-1 #
coedge $-1 $137 $137 $136 $231 forward $84 $-1 #
coedge $-1 $138 $138 $85 $139 forward $133 $-1 #
edge $-1 $232 2.4976037951920986e-016 $232 6.2831853071796004 $138 $233 forward 7 unknown #
face $-1 $234 $235 $21 $-1 $236 reversed single #
loop $-1 $-1 $237 $86 #
plane-surface $-1 -61.449629200109868 0 0 1 0 0 0 0 -1 forward_v I I I I #
coedge $-1 $238 $151 $239 $240 forward $87 $-1 #
coedge $-1 $241 $89 $238 $242 forward $57 $-1 #
coedge $-1 $89 $241 $243 $244 forward $57 $-1 #
coedge $-1 $154 $153 $89 $147 reversed $155 $-1 #
edge $-1 $245 -32.455201051757605 $246 32.455201051757605 $146 $247 forward 7 unknown #
coedge $-1 $91 $90 $248 $249 forward $36 $-1 #
coedge $-1 $250 $251 $90 $150 reversed $235 $-1 #
edge $-1 $157 -61.449629200109868 $252 61.449629200109868 $149 $253 forward 7 unknown #
coedge $-1 $143 $254 $91 $152 reversed $87 $-1 #
edge $-1 $255 -61.449629200109868 $156 61.449629200109868 $151 $256 forward 7 unknown #
coedge $-1 $146 $92 $254 $257 forward $155 $-1 #
coedge $-1 $92 $146 $250 $258 reversed $155 $-1 #
loop $-1 $-1 $153 $234 #
vertex $-1 $93 $259 #
vertex $-1 $93 $260 #
straight-curve $-1 61.449629200109868 0 11.537458980412858 0 1 0 I I #
face $-1 $261 $262 $22 $-1 $263 reversed single #
loop $-1 $-1 $264 $94 #
plane-surface $-1 0 -32.455201051757605 0 0 1 0 0 0 1 forward_v I I I I #
coedge $-1 $165 $100 $265 $266 reversed $95 $-1 #
coedge $-1 $267 $97 $264 $268 reversed $61 $-1 #
coedge $-1 $97 $267 $269 $270 reversed $61 $-1 #
coedge $-1 $172 $162 $97 $166 reversed $95 $-1 #
edge $-1 $271 -32.455201051757605 $272 32.455201051757605 $165 $273 forward 7 unknown #
coedge $-1 $99 $98 $274 $275 reversed $39 $-1 #
coedge $-1 $276 $277 $98 $169 forward $278 $-1 #
edge $-1 $279 -32.888655929889943 $174 -24.233290610549908 $168 $280 forward 7 unknown #
coedge $-1 $281 $265 $99 $171 forward $160 $-1 #
edge $-1 $173 24.233290610549908 $282 32.888655929889943 $170 $283 forward 7 unknown #
coedge $-1 $100 $165 $276 $284 reversed $95 $-1 #
vertex $-1 $171 $285 #
vertex $-1 $169 $286 #
straight-curve $-1 -52.794263880769833 0 6.066435774438137 0 1 0 I I #
face $-1 $287 $288 $23 $-1 $289 reversed single #
loop $-1 $-1 $187 $102 #
plane-surface $-1 0 -32.455201051757605 0 0 1 0 0 0 1 forward_v I I I I #
coedge $-1 $290 $291 $292 $293 reversed $103 $-1 #
coedge $-1 $294 $105 $295 $296 reversed $65 $-1 #
coedge $-1 $105 $294 $297 $298 reversed $65 $-1 #
coedge $-1 $190 $189 $105 $183 forward $191 $-1 #
edge $-1 $299 -32.455201051757605 $300 32.455201051757605 $182 $301 forward 7 unknown #
coedge $-1 $107 $106 $291 $302 forward $42 $-1 #
coedge $-1 $303 $292 $106 $186 forward $288 $-1 #
edge $-1 $304 22.749712890086315 $192 33.383181836711145 $185 $305 forward 7 unknown #
coedge $-1 $306 $307 $107 $188 forward $177 $-1 #
edge $-1 $193 -33.383181836711145 $308 -22.749712890086315 $187 $309 forward 7 unknown #
coedge $-1 $182 $108 $307 $310 forward $191 $-1 #
coedge $-1 $108 $182 $303 $311 reversed $191 $-1 #
loop $-1 $-1 $108 $287 #
vertex $-1 $311 $312 #
vertex $-1 $310 $313 #
straight-curve $-1 61.449629200109868 0 0.34238540339426216 0 -1 0 I I #
face $-1 $-1 $314 $24 $-1 $315 forward single #
loop $-1 $-1 $316 $110 #
plane-surface $-1 0 32.455201051757605 0 0 -1 0 0 0 -1 forward_v I I I I #
coedge $-1 $317 $318 $319 $320 forward $111 $-1 #
coedge $-1 $321 $113 $115 $205 forward $69 $-1 #
coedge $-1 $113 $321 $322 $323 forward $69 $-1 #
coedge $-1 $316 $116 $113 $202 forward $196 $-1 #
edge $-1 $208 13.292193513506831 $324 30.765444749344283 $201 $325 forward 7 unknown #
coedge $-1 $318 $317 $114 $204 forward $111 $-1 #
edge $-1 $326 -22.913869343452681 $207 -18.686005163468288 $203 $327 forward 7 unknown #
edge $-1 $208 -64.910402103515224 $326 -56.932084336027465 $115 $328 forward 7 unknown #
coedge $-1 $116 $316 $318 $329 reversed $196 $-1 #
vertex $-1 $329 $330 #
vertex $-1 $117 $331 #
straight-curve $-1 -35.321012644932388 32.455201051757605 62.472644095299898 0 0 -1 I I #
coedge $-1 $210 $210 $-1 $332 reversed $120 $-1 #
edge $-1 $333 0 $333 6.2831853071796004 $121 $334 forward 7 unknown #
vertex $-1 $124 $335 #
ellipse-curve $-1 -44.057638262851114 30.341268961765401 8.1544603521757857 0 0.84804810408105047 0.52991925155115449 1.5 0 0 1 I I #
face $-1 $-1 $226 $26 $-1 $336 forward single #
loop $-1 $-1 $337 $125 #
plane-surface $-1 0 32.455201051757605 0 0 -1 0 0 0 -1 forward_v I I I I #
coedge $-1 $338 $339 $340 $341 reversed $126 $-1 #
coedge $-1 $342 $128 $130 $224 forward $78 $-1 #
coedge $-1 $128 $342 $338 $343 forward $78 $-1 #
coedge $-1 $340 $131 $128 $221 forward $226 $-1 #
edge $-1 $228 12.303141699864426 $344 29.776392935701878 $220 $345 forward 7 unknown #
coedge $-1 $346 $347 $129 $223 forward $215 $-1 #
edge $-1 $348 -57.701182371361192 $227 -50.935185114887041 $222 $349 forward 7 unknown #
edge $-1 $228 56.932084336027465 $348 64.910402103515224 $130 $350 forward 7 unknown #
coedge $-1 $131 $340 $346 $351 forward $226 $-1 #
loop $-1 $-1 $340 $214 #
vertex $-1 $223 $352 #
vertex $-1 $132 $353 #
straight-curve $-1 33.342909017647578 51.141206215225893 11.537458980412858 0 -1 0 I I #
coedge $-1 $230 $230 $-1 $354 reversed $135 $-1 #
edge $-1 $355 0 $355 6.2831853071796004 $136 $356 forward 7 unknown #
vertex $-1 $139 $357 #
ellipse-curve $-1 42.079534635566304 30.341268961765401 8.1544603521757857 0 0.84804810408105047 0.52991925155115449 1.5 0 0 1 I I #
face $-1 $-1 $155 $21 $-1 $358 reversed single #
loop $-1 $-1 $250 $140 #
plane-surface $-1 0 32.455201051757605 0 0 -1 0 0 0 -1 forward_v I I I I #
coedge $-1 $359 $248 $251 $360 forward $141 $-1 #
coedge $-1 $254 $143 $144 $242 reversed $87 $-1 #
coedge $-1 $248 $359 $143 $240 reversed $141 $-1 #
edge $-1 $255 -11.537458980412858 $361 11.537458980412858 $239 $362 forward 7 unknown #
coedge $-1 $145 $144 $359 $363 forward $57 $-1 #
edge $-1 $246 -61.449629200109868 $361 61.449629200109868 $238 $364 forward 7 unknown #
coedge $-1 $251 $250 $145 $244 reversed $235 $-1 #
edge $-1 $365 -61.449629200109868 $245 61.449629200109868 $243 $366 forward 7 unknown #
vertex $-1 $147 $367 #
vertex $-1 $257 $368 #
straight-curve $-1 61.449629200109868 0 -11.537458980412858 0 -1 0 I I #
coedge $-1 $237 $239 $148 $249 reversed $141 $-1 #
edge $-1 $252 -32.455201051757605 $255 32.455201051757605 $248 $369 forward 7 unknown #
coedge $-1 $243 $149 $154 $258 forward $235 $-1 #
coedge $-1 $149 $243 $237 $360 reversed $235 $-1 #
vertex $-1 $150 $370 #
straight-curve $-1 0 32.455201051757605 11.537458980412858 -1 0 0 I I #
coedge $-1 $151 $238 $153 $257 reversed $87 $-1 #
vertex $-1 $249 $371 #
straight-curve $-1 0 -32.455201051757605 11.537458980412858 1 0 0 I I #
edge $-1 $156 -11.537458980412858 $246 11.537458980412858 $153 $372 forward 7 unknown #
edge $-1 $157 -11.537458980412858 $245 11.537458980412858 $154 $373 forward 7 unknown #
point $-1 61.449629200109868 -32.455201051757605 11.537458980412858 #
point $-1 61.449629200109868 32.455201051757605 11.537458980412858 #
face $-1 $-1 $278 $22 $-1 $374 reversed single #
loop $-1 $-1 $375 $159 #
plane-surface $-1 -61.449629200109868 0 0 1 0 0 0 0 -1 forward_v I I I I #
coedge $-1 $265 $281 $163 $268 forward $160 $-1 #
coedge $-1 $170 $264 $162 $266 forward $160 $-1 #
edge $-1 $272 0.78321788721906849 $173 3.7832178872190685 $265 $376 forward 7 unknown #
coedge $-1 $164 $163 $375 $377 reversed $61 $-1 #
edge $-1 $378 -32.888655929889943 $272 -24.233290610549908 $264 $379 forward 7 unknown #
coedge $-1 $277 $276 $164 $270 forward $278 $-1 #
edge $-1 $271 24.233290610549908 $380 32.888655929889943 $269 $381 forward 7 unknown #
vertex $-1 $270 $382 #
vertex $-1 $268 $383 #
straight-curve $-1 -52.794263880769833 0 3.066435774438137 0 -1 0 I I #
coedge $-1 $384 $385 $167 $275 forward $262 $-1 #
edge $-1 $282 -32.455201051757605 $279 32.455201051757605 $274 $386 forward 7 unknown #
coedge $-1 $269 $168 $172 $284 forward $278 $-1 #
coedge $-1 $168 $269 $384 $387 reversed $278 $-1 #
loop $-1 $-1 $269 $261 #
vertex $-1 $387 $388 #
straight-curve $-1 -28.560973270219925 32.455201051757605 6.066435774438137 1 0 0 I I #
coedge $-1 $264 $170 $385 $389 forward $160 $-1 #
vertex $-1 $389 $390 #
straight-curve $-1 -28.560973270219925 -32.455201051757605 6.066435774438137 -1 0 0 I I #
edge $-1 $174 -3.7832178872190685 $271 -0.78321788721906849 $276 $391 forward 7 unknown #
point $-1 -52.794263880769833 -32.455201051757605 6.066435774438137 #
point $-1 -52.794263880769833 32.455201051757605 6.066435774438137 #
face $-1 $-1 $191 $23 $-1 $392 reversed single #
loop $-1 $-1 $185 $176 #
plane-surface $-1 0 32.455201051757605 0 0 -1 0 0 0 -1 forward_v I I I I #
coedge $-1 $393 $179 $294 $394 reversed $103 $-1 #
coedge $-1 $179 $393 $184 $302 reversed $103 $-1 #
coedge $-1 $185 $297 $179 $293 forward $288 $-1 #
edge $-1 $395 -2.0788072983028689 $304 0.92119270169713108 $292 $396 forward 7 unknown #
coedge $-1 $181 $180 $290 $394 forward $65 $-1 #
coedge $-1 $307 $306 $180 $296 forward $177 $-1 #
edge $-1 $397 22.749712890086315 $299 33.383181836711145 $295 $398 forward 7 unknown #
coedge $-1 $292 $303 $181 $298 forward $288 $-1 #
edge $-1 $300 -33.383181836711145 $395 -22.749712890086315 $297 $399 forward 7 unknown #
vertex $-1 $183 $400 #
vertex $-1 $183 $401 #
straight-curve $-1 61.449629200109868 0 -2.6576145966057378 0 1 0 I I #
edge $-1 $304 -32.455201051757605 $308 32.455201051757605 $291 $402 forward 7 unknown #
coedge $-1 $297 $185 $190 $311 forward $288 $-1 #
vertex $-1 $186 $403 #
straight-curve $-1 28.06644736339873 32.455201051757605 0.34238540339426216 1 0 0 I I #
coedge $-1 $295 $187 $393 $404 forward $177 $-1 #
coedge $-1 $187 $295 $189 $310 reversed $177 $-1 #
vertex $-1 $188 $405 #
straight-curve $-1 28.06644736339873 -32.455201051757605 0.34238540339426216 -1 0 0 I I #
edge $-1 $193 -0.34238540339426216 $299 2.6576145966057378 $189 $406 forward 7 unknown #
edge $-1 $192 -0.34238540339426216 $300 2.6576145966057378 $190 $407 forward 7 unknown #
point $-1 61.449629200109875 32.455201051757605 0.34238540339426216 #
point $-1 61.449629200109875 -32.455201051757605 0.34238540339426216 #
loop $-1 $-1 $322 $195 #
plane-surface $-1 -52.794263880769833 0 4.566435774438137 -1 0 0 0 0 1 forward_v I I I I #
coedge $-1 $206 $201 $408 $409 forward $196 $-1 #
coedge $-1 $203 $198 $321 $410 forward $111 $-1 #
coedge $-1 $198 $203 $206 $329 forward $111 $-1 #
coedge $-1 $408 $322 $198 $320 reversed $314 $-1 #
edge $-1 $411 18.686005163468288 $412 22.913869343452681 $198 $413 forward 7 unknown #
coedge $-1 $200 $199 $317 $410 reversed $69 $-1 #
coedge $-1 $319 $408 $200 $323 reversed $314 $-1 #
edge $-1 $412 56.932084336027465 $324 64.910402103515224 $322 $414 forward 7 unknown #
vertex $-1 $409 $415 #
straight-curve $-1 -22.028819131425557 32.455201051757598 4.7714617239387067 -1 0 0 I I #
vertex $-1 $204 $416 #
straight-curve $-1 -35.321012644932388 51.141206215225893 11.537458980412858 0 1 0 I I #
straight-curve $-1 -35.321012644932388 -1.9420706488216695 59.818605162963422 0 -0.52991925155115449 0.84804810408105047 I I #
edge $-1 $207 35.321012644932388 $411 52.79426388076984 $206 $417 forward 7 unknown #
point $-1 -35.321012644932388 32.455201051757605 11.537458980412858 #
point $-1 -35.321012644932388 32.455201051757605 4.7714617239387067 #
edge $-1 $418 1 $418 0 $210 $-1 forward 7 unknown #
vertex $-1 $211 $419 #
ellipse-curve $-1 -44.057638262851114 26.460026068598186 5.7291907016244075 0 0.84804810408105047 0.52991925155115449 1.5 0 0 1 I I #
point $-1 -42.557638262851114 30.341268961765419 8.1544603521757963 #
plane-surface $-1 0 0 11.537458980412858 0 0 1 1 0 0 forward_v I I I I #
coedge $-1 $347 $346 $339 $420 forward $215 $-1 #
coedge $-1 $339 $217 $219 $343 reversed $126 $-1 #
coedge $-1 $217 $338 $337 $420 reversed $126 $-1 #
coedge $-1 $225 $220 $217 $341 forward $226 $-1 #
edge $-1 $344 -22.913869343452681 $421 -18.686005163468288 $340 $422 forward 7 unknown #
coedge $-1 $219 $218 $347 $423 reversed $78 $-1 #
edge $-1 $424 -64.910402103515224 $344 -56.932084336027465 $338 $425 forward 7 unknown #
vertex $-1 $221 $426 #
straight-curve $-1 21.039767317783152 28.227336871773208 11.537458980412861 1 0 0 I I #
coedge $-1 $337 $222 $225 $351 reversed $215 $-1 #
coedge $-1 $222 $337 $342 $423 forward $215 $-1 #
vertex $-1 $223 $427 #
straight-curve $-1 33.342909017647578 32.455201051757605 62.472644095299898 0 0 1 I I #
straight-curve $-1 33.342909017647578 -1.9420706488216695 59.818605162963422 0 0.52991925155115449 -0.84804810408105047 I I #
edge $-1 $421 -50.81616025348503 $227 -33.342909017647578 $346 $428 forward 7 unknown #
point $-1 33.342909017647578 32.455201051757605 11.537458980412858 #
point $-1 33.342909017647578 28.227336871773211 11.537458980412858 #
edge $-1 $429 1 $429 0 $230 $-1 forward 7 unknown #
vertex $-1 $231 $430 #
ellipse-curve $-1 42.079534635566304 26.460026068598186 5.7291907016244075 0 0.84804810408105047 0.52991925155115449 1.5 0 0 1 I I #
point $-1 43.579534635566304 30.341268961765419 8.1544603521757963 #
plane-surface $-1 61.449629200109868 0 0 -1 0 0 0 0 1 forward_v I I I I #
coedge $-1 $239 $237 $241 $363 reversed $141 $-1 #
edge $-1 $252 -11.537458980412858 $365 11.537458980412858 $251 $431 forward 7 unknown #
vertex $-1 $363 $432 #
straight-curve $-1 -61.449629200109868 -32.455201051757605 0 0 0 -1 I I #
edge $-1 $361 -32.455201051757605 $365 32.455201051757605 $359 $433 forward 7 unknown #
straight-curve $-1 0 -32.455201051757605 -11.537458980412858 -1 0 0 I I #
vertex $-1 $244 $434 #
straight-curve $-1 0 32.455201051757605 -11.537458980412858 1 0 0 I I #
point $-1 61.449629200109868 32.455201051757605 -11.537458980412858 #
point $-1 61.449629200109868 -32.455201051757605 -11.537458980412858 #
straight-curve $-1 -61.449629200109868 0 11.537458980412858 0 -1 0 I I #
point $-1 -61.449629200109868 32.455201051757605 11.537458980412858 #
point $-1 -61.449629200109868 -32.455201051757605 11.537458980412858 #
straight-curve $-1 61.449629200109868 -32.455201051757605 0 0 0 -1 I I #
straight-curve $-1 61.449629200109868 32.455201051757605 0 0 0 -1 I I #
plane-surface $-1 0 32.455201051757605 0 0 -1 0 0 0 -1 forward_v I I I I #
coedge $-1 $385 $384 $267 $377 forward $262 $-1 #
straight-curve $-1 -52.794263880769833 -32.455201051757605 2.2832178872190685 0 0 1 I I #
edge $-1 $380 -32.455201051757605 $378 32.455201051757605 $375 $435 forward 7 unknown #
vertex $-1 $268 $436 #
straight-curve $-1 -28.560973270219925 -32.455201051757605 3.066435774438137 1 0 0 I I #
vertex $-1 $270 $437 #
straight-curve $-1 -28.560973270219925 32.455201051757605 3.066435774438137 -1 0 0 I I #
point $-1 -52.794263880769833 32.455201051757605 3.066435774438137 #
point $-1 -52.794263880769833 -32.455201051757605 3.066435774438137 #
coedge $-1 $375 $274 $277 $387 forward $262 $-1 #
coedge $-1 $274 $375 $281 $389 reversed $262 $-1 #
straight-curve $-1 -61.449629200109868 0 6.066435774438137 0 1 0 I I #
edge $-1 $279 -6.066435774438137 $380 -3.066435774438137 $277 $438 forward 7 unknown #
point $-1 -61.449629200109868 32.455201051757605 6.066435774438137 #
edge $-1 $282 -6.066435774438137 $378 -3.066435774438137 $385 $439 forward 7 unknown #
point $-1 -61.449629200109868 -32.455201051757605 6.066435774438137 #
straight-curve $-1 -52.794263880769833 32.455201051757605 2.2832178872190685 0 0 -1 I I #
plane-surface $-1 61.449629200109868 0 0 -1 0 0 0 0 1 forward_v I I I I #
coedge $-1 $291 $290 $306 $404 reversed $103 $-1 #
edge $-1 $397 -32.455201051757605 $395 32.455201051757605 $290 $440 forward 7 unknown #
vertex $-1 $298 $441 #
straight-curve $-1 50.816160253485045 32.455201051757605 -0.57880729830286892 0 0 1 I I #
vertex $-1 $296 $442 #
straight-curve $-1 28.06644736339873 -32.455201051757605 -2.6576145966057378 1 0 0 I I #
straight-curve $-1 28.06644736339873 32.455201051757605 -2.6576145966057378 -1 0 0 I I #
point $-1 61.449629200109875 -32.455201051757605 -2.6576145966057378 #
point $-1 61.449629200109875 32.455201051757605 -2.6576145966057378 #
straight-curve $-1 50.816160253485045 0 0.34238540339426216 0 -1 0 I I #
point $-1 50.816160253485045 32.455201051757605 0.34238540339426216 #
edge $-1 $308 -0.92119270169713108 $397 2.0788072983028689 $306 $443 forward 7 unknown #
point $-1 50.816160253485045 -32.455201051757605 0.34238540339426216 #
straight-curve $-1 61.449629200109868 -32.455201051757605 0 0 0 -1 I I #
straight-curve $-1 61.449629200109868 32.455201051757605 0 0 0 -1 I I #
coedge $-1 $322 $319 $316 $409 reversed $314 $-1 #
edge $-1 $324 -57.701182371361192 $411 -50.935185114887041 $316 $444 forward 7 unknown #
edge $-1 $412 -30.765444749344283 $326 -13.292193513506831 $317 $445 forward 7 unknown #
vertex $-1 $409 $446 #
vertex $-1 $320 $447 #
straight-curve $-1 -52.79426388076984 51.141206215225893 11.537458980412858 0 -1 0 I I #
straight-curve $-1 -52.79426388076984 -1.9420706488216695 59.818605162963422 0 0.52991925155115449 -0.84804810408105047 I I #
point $-1 -52.79426388076984 32.455201051757605 4.7714617239387067 #
point $-1 -35.321012644932388 28.227336871773211 11.537458980412858 #
straight-curve $-1 0 32.455201051757605 11.537458980412858 -1 0 0 I I #
vertex $-1 $332 $448 #
point $-1 -42.557638262851114 26.460026068598186 5.7291907016244075 #
edge $-1 $421 50.935185114887041 $424 57.701182371361192 $337 $449 forward 7 unknown #
vertex $-1 $351 $450 #
straight-curve $-1 50.81616025348503 51.141206215225893 11.537458980412858 0 1 0 I I #
edge $-1 $424 -29.776392935701878 $348 -12.303141699864426 $347 $451 forward 7 unknown #
vertex $-1 $423 $452 #
straight-curve $-1 50.81616025348503 -1.9420706488216695 59.818605162963422 0 -0.52991925155115449 0.84804810408105047 I I #
point $-1 50.81616025348503 28.227336871773211 11.537458980412858 #
point $-1 33.342909017647578 32.455201051757605 4.7714617239387067 #
straight-curve $-1 0 32.455201051757605 11.537458980412858 -1 0 0 I I #
vertex $-1 $354 $453 #
point $-1 43.579534635566304 26.460026068598186 5.7291907016244075 #
straight-curve $-1 -61.449629200109868 32.455201051757605 0 0 0 -1 I I #
point $-1 -61.449629200109868 -32.455201051757605 -11.537458980412858 #
straight-curve $-1 -61.449629200109868 0 -11.537458980412858 0 1 0 I I #
point $-1 -61.449629200109868 32.455201051757605 -11.537458980412858 #
straight-curve $-1 -61.449629200109868 0 3.066435774438137 0 -1 0 I I #
point $-1 -61.449629200109868 -32.455201051757605 3.066435774438137 #
point $-1 -61.449629200109868 32.455201051757605 3.066435774438137 #
straight-curve $-1 -61.449629200109868 32.455201051757605 0 0 0 -1 I I #
straight-curve $-1 -61.449629200109868 -32.455201051757605 0 0 0 -1 I I #
straight-curve $-1 50.816160253485045 0 -2.6576145966057378 0 1 0 I I #
point $-1 50.816160253485045 32.455201051757605 -2.6576145966057378 #
point $-1 50.816160253485045 -32.455201051757605 -2.6576145966057378 #
straight-curve $-1 50.816160253485045 -32.455201051757605 -0.57880729830286892 0 0 -1 I I #
straight-curve $-1 -52.79426388076984 32.455201051757605 62.472644095299898 0 0 1 I I #
straight-curve $-1 -22.028819131425557 28.227336871773208 11.537458980412861 1 0 0 I I #
point $-1 -52.79426388076984 32.455201051757605 11.537458980412858 #
point $-1 -52.79426388076984 28.227336871773211 11.537458980412858 #
point $-1 -44.057638262851114 25.187953912476612 4.9343118242976765 #
straight-curve $-1 50.81616025348503 32.455201051757605 62.472644095299898 0 0 -1 I I #
point $-1 50.81616025348503 32.455201051757605 11.537458980412858 #
straight-curve $-1 21.039767317783152 32.455201051757598 4.7714617239387067 -1 0 0 I I #
point $-1 50.81616025348503 32.455201051757605 4.7714617239387067 #
point $-1 42.079534635566304 25.187953912476612 4.9343118242976765 #
End-of-ACIS-data 