500 0 14 0           
7 Unknown 11 ACIS 5.0 NT 24 Fri Mar 26 03:30:56 1999 
-1 9.9999999999999995e-007 1e-010 
body $-1 $14 $-1 $15 #
body $-1 $16 $-1 $17 #
body $-1 $18 $-1 $19 #
body $-1 $20 $-1 $21 #
body $-1 $22 $-1 $23 #
body $-1 $24 $-1 $25 #
body $-1 $26 $-1 $27 #
body $-1 $28 $-1 $29 #
body $-1 $30 $-1 $31 #
body $-1 $32 $-1 $33 #
body $-1 $34 $-1 $35 #
body $-1 $36 $-1 $37 #
body $-1 $38 $-1 $39 #
body $-1 $40 $-1 $41 #
lump $-1 $-1 $42 $0 #
transform $-1 1 0 0 0 1 0 0 0 1 55.933103427228616 33.054591552035291 15.787660578228641 1 rotate no_reflect no_shear #
lump $-1 $-1 $43 $1 #
transform $-1 1 0 0 0 1 0 0 0 1 26.891348186357799 -9.302568344939715 15.787660578228641 1 rotate no_reflect no_shear #
lump $-1 $-1 $44 $2 #
transform $-1 1 0 0 0 1 0 0 0 1 26.891348186357799 75.411751449010296 15.787660578228641 1 rotate no_reflect no_shear #
lump $-1 $-1 $45 $3 #
transform $-1 0.83867056331134215 0 0.54463904215088732 0 1 0 -0.54463904215088732 0 0.83867056331134215 -60.926703750264622 28.158429620783686 111.86889449042636 1 rotate no_reflect no_shear #
lump $-1 $-1 $46 $4 #
transform $-1 0.83867056331134215 0 0.54463904215088732 0 -1 0 0.54463904215088732 0 -0.83867056331134215 11.466016283005365 26.867704657118608 23.192056999767981 1 rotate no_reflect no_shear #
lump $-1 $-1 $47 $5 #
transform $-1 0.83867056331134215 0 0.54463904215088732 0 -1 0 0.54463904215088732 0 -0.83867056331134215 11.466016283005365 29.44915458444876 23.192056999767981 1 rotate no_reflect no_shear #
lump $-1 $-1 $48 $6 #
transform $-1 0.65605901945558964 0 -0.75470958851134928 0 1 0 0.75470958851134928 0 0.65605901945558964 122.90187181875876 22.003835609747235 174.39058756632485 1 rotate no_reflect no_shear #
lump $-1 $-1 $49 $7 #
transform $-1 0.65605901945558964 0 -0.75470958851134928 0 -1 0 -0.75470958851134928 0 -0.65605901945558964 104.40227130551756 19.964616257826552 23.254214125769451 1 rotate no_reflect no_shear #
lump $-1 $-1 $50 $8 #
transform $-1 0.65605901945558964 0 -0.75470958851134928 0 -1 0 -0.75470958851134928 0 -0.65605901945558964 104.40227130551756 22.003835609747235 23.254214125769451 1 rotate no_reflect no_shear #
lump $-1 $-1 $51 $9 #
transform $-1 0.65605901945558964 0 -0.75470958851134928 0 -1 0 -0.75470958851134928 0 -0.65605901945558964 104.40227130551756 24.043054961667917 23.254214125769451 1 rotate no_reflect no_shear #
lump $-1 $-1 $52 $10 #
transform $-1 0.65605901945558964 0 -0.75470958851134928 0 1 0 0.75470958851134928 0 0.65605901945558964 122.90187181875876 44.105347494323354 174.39058756632485 1 rotate no_reflect no_shear #
lump $-1 $-1 $53 $11 #
transform $-1 0.65605901945558964 0 -0.75470958851134928 0 -1 0 -0.75470958851134928 0 -0.65605901945558964 104.40227130551756 42.066128142402668 23.254214125769451 1 rotate no_reflect no_shear #
lump $-1 $-1 $54 $12 #
transform $-1 0.65605901945558964 0 -0.75470958851134928 0 -1 0 -0.75470958851134928 0 -0.65605901945558964 104.40227130551756 44.105347494323354 23.254214125769451 1 rotate no_reflect no_shear #
lump $-1 $-1 $55 $13 #
transform $-1 0.65605901945558964 0 -0.75470958851134928 0 -1 0 -0.75470958851134928 0 -0.65605901945558964 104.40227130551756 46.144566846244032 23.254214125769451 1 rotate no_reflect no_shear #
shell $-1 $-1 $-1 $56 $-1 $14 #
shell $-1 $-1 $-1 $57 $-1 $16 #
shell $-1 $-1 $-1 $58 $-1 $18 #
shell $-1 $-1 $-1 $59 $-1 $20 #
shell $-1 $-1 $-1 $60 $-1 $22 #
shell $-1 $-1 $-1 $61 $-1 $24 #
shell $-1 $-1 $-1 $62 $-1 $26 #
shell $-1 $-1 $-1 $63 $-1 $28 #
shell $-1 $-1 $-1 $64 $-1 $30 #
shell $-1 $-1 $-1 $65 $-1 $32 #
shell $-1 $-1 $-1 $66 $-1 $34 #
shell $-1 $-1 $-1 $67 $-1 $36 #
shell $-1 $-1 $-1 $68 $-1 $38 #
shell $-1 $-1 $-1 $69 $-1 $40 #
face $-1 $70 $71 $42 $-1 $72 forward single #
face $-1 $73 $74 $43 $-1 $75 forward single #
face $-1 $76 $77 $44 $-1 $78 forward single #
face $-1 $79 $80 $45 $-1 $81 forward single #
face $-1 $82 $83 $46 $-1 $84 forward single #
face $-1 $85 $86 $47 $-1 $87 forward single #
face $-1 $88 $89 $48 $-1 $90 forward single #
face $-1 $91 $92 $49 $-1 $93 forward single #
face $-1 $94 $95 $50 $-1 $96 forward single #
face $-1 $97 $98 $51 $-1 $99 forward single #
face $-1 $100 $101 $52 $-1 $102 forward single #
face $-1 $103 $104 $53 $-1 $105 forward single #
face $-1 $106 $107 $54 $-1 $108 forward single #
face $-1 $109 $110 $55 $-1 $111 forward single #
face $-1 $112 $113 $42 $-1 $114 reversed single #
loop $-1 $-1 $115 $56 #
plane-surface $-1 0 0 15.787660578228641 0 0 1 1 0 0 forward_v I I I I #
face $-1 $116 $117 $43 $-1 $118 reversed single #
loop $-1 $-1 $119 $57 #
plane-surface $-1 0 0 15.787660578228641 0 0 1 1 0 0 forward_v I I I I #
face $-1 $120 $121 $44 $-1 $122 reversed single #
loop $-1 $-1 $123 $58 #
plane-surface $-1 0 0 15.787660578228641 0 0 1 1 0 0 forward_v I I I I #
face $-1 $124 $125 $45 $-1 $126 reversed single #
loop $-1 $-1 $127 $59 #
plane-surface $-1 0 0 111.86620685445723 0 0 1 1 0 0 forward_v I I I I #
face $-1 $128 $129 $46 $-1 $130 forward single #
loop $-1 $131 $132 $60 #
cone-surface $-1 0 0 -1.091174047059539 0 0 1 0.5 0 0 1 I I 0 1 0.5 forward I I I I #
face $-1 $133 $134 $47 $-1 $135 forward single #
loop $-1 $136 $137 $61 #
cone-surface $-1 0 0 -1.091174047059539 0 0 1 0.5 0 0 1 I I 0 1 0.5 forward I I I I #
face $-1 $138 $139 $48 $-1 $140 reversed single #
loop $-1 $-1 $141 $62 #
plane-surface $-1 0 0 111.86620685445723 0 0 1 1 0 0 forward_v I I I I #
face $-1 $142 $143 $49 $-1 $144 forward single #
loop $-1 $145 $146 $63 #
cone-surface $-1 0 0 -0.75 0 0 1 0.5 0 0 1 I I 0 1 0.5 forward I I I I #
face $-1 $147 $148 $50 $-1 $149 forward single #
loop $-1 $150 $151 $64 #
cone-surface $-1 0 0 -0.75 0 0 1 0.5 0 0 1 I I 0 1 0.5 forward I I I I #
face $-1 $152 $153 $51 $-1 $154 forward single #
loop $-1 $155 $156 $65 #
cone-surface $-1 0 0 -0.75 0 0 1 0.5 0 0 1 I I 0 1 0.5 forward I I I I #
face $-1 $157 $158 $52 $-1 $159 reversed single #
loop $-1 $-1 $160 $66 #
plane-surface $-1 0 0 111.86620685445723 0 0 1 1 0 0 forward_v I I I I #
face $-1 $161 $162 $53 $-1 $163 forward single #
loop $-1 $164 $165 $67 #
cone-surface $-1 0 0 -0.75 0 0 1 0.5 0 0 1 I I 0 1 0.5 forward I I I I #
face $-1 $166 $167 $54 $-1 $168 forward single #
loop $-1 $169 $170 $68 #
cone-surface $-1 0 0 -0.75 0 0 1 0.5 0 0 1 I I 0 1 0.5 forward I I I I #
face $-1 $171 $172 $55 $-1 $173 forward single #
loop $-1 $174 $175 $69 #
cone-surface $-1 0 0 -0.75 0 0 1 0.5 0 0 1 I I 0 1 0.5 forward I I I I #
face $-1 $176 $177 $42 $-1 $178 reversed single #
loop $-1 $-1 $179 $70 #
plane-surface $-1 0 0 -15.787660578228641 0 0 1 1 0 0 forward_v I I I I #
coedge $-1 $180 $181 $182 $183 forward $71 $-1 #
face $-1 $184 $185 $43 $-1 $186 reversed single #
loop $-1 $-1 $187 $73 #
plane-surface $-1 0 0 -15.787660578228641 0 0 1 1 0 0 forward_v I I I I #
coedge $-1 $188 $189 $190 $191 forward $74 $-1 #
face $-1 $192 $193 $44 $-1 $194 reversed single #
loop $-1 $-1 $195 $76 #
plane-surface $-1 0 0 -15.787660578228641 0 0 1 1 0 0 forward_v I I I I #
coedge $-1 $196 $197 $198 $199 forward $77 $-1 #
face $-1 $200 $201 $45 $-1 $202 reversed single #
loop $-1 $-1 $203 $79 #
plane-surface $-1 0 0 -111.86620685445723 0 0 1 1 0 0 forward_v I I I I #
coedge $-1 $204 $205 $206 $207 forward $80 $-1 #
face $-1 $-1 $208 $46 $-1 $209 forward single #
loop $-1 $-1 $210 $82 #
plane-surface $-1 0 0 -1.9323480941190798 0 0 -1 -1 0 0 forward_v I I I I #
loop $-1 $-1 $211 $60 #
coedge $-1 $132 $132 $210 $212 reversed $83 $-1 #
face $-1 $-1 $213 $47 $-1 $214 forward single #
loop $-1 $-1 $215 $85 #
plane-surface $-1 0 0 -1.9323480941190798 0 0 -1 -1 0 0 forward_v I I I I #
loop $-1 $-1 $216 $61 #
coedge $-1 $137 $137 $215 $217 reversed $86 $-1 #
face $-1 $218 $219 $48 $-1 $220 reversed single #
loop $-1 $-1 $221 $88 #
plane-surface $-1 0 0 -111.86620685445723 0 0 1 1 0 0 forward_v I I I I #
coedge $-1 $222 $223 $224 $225 forward $89 $-1 #
face $-1 $-1 $226 $49 $-1 $227 forward single #
loop $-1 $-1 $228 $91 #
plane-surface $-1 0 0 -1.25 0 0 -1 -1 0 0 forward_v I I I I #
loop $-1 $-1 $229 $63 #
coedge $-1 $146 $146 $228 $230 reversed $92 $-1 #
face $-1 $-1 $231 $50 $-1 $232 forward single #
loop $-1 $-1 $233 $94 #
plane-surface $-1 0 0 -1.25 0 0 -1 -1 0 0 forward_v I I I I #
loop $-1 $-1 $234 $64 #
coedge $-1 $151 $151 $233 $235 reversed $95 $-1 #
face $-1 $-1 $236 $51 $-1 $237 forward single #
loop $-1 $-1 $238 $97 #
plane-surface $-1 0 0 -1.25 0 0 -1 -1 0 0 forward_v I I I I #
loop $-1 $-1 $239 $65 #
coedge $-1 $156 $156 $238 $240 reversed $98 $-1 #
face $-1 $241 $242 $52 $-1 $243 reversed single #
loop $-1 $-1 $244 $100 #
plane-surface $-1 0 0 -111.86620685445723 0 0 1 1 0 0 forward_v I I I I #
coedge $-1 $245 $246 $247 $248 forward $101 $-1 #
face $-1 $-1 $249 $53 $-1 $250 forward single #
loop $-1 $-1 $251 $103 #
plane-surface $-1 0 0 -1.25 0 0 -1 -1 0 0 forward_v I I I I #
loop $-1 $-1 $252 $67 #
coedge $-1 $165 $165 $251 $253 reversed $104 $-1 #
face $-1 $-1 $254 $54 $-1 $255 forward single #
loop $-1 $-1 $256 $106 #
plane-surface $-1 0 0 -1.25 0 0 -1 -1 0 0 forward_v I I I I #
loop $-1 $-1 $257 $68 #
coedge $-1 $170 $170 $256 $258 reversed $107 $-1 #
face $-1 $-1 $259 $55 $-1 $260 forward single #
loop $-1 $-1 $261 $109 #
plane-surface $-1 0 0 -1.25 0 0 -1 -1 0 0 forward_v I I I I #
loop $-1 $-1 $262 $69 #
coedge $-1 $175 $175 $261 $263 reversed $110 $-1 #
face $-1 $264 $265 $42 $-1 $266 reversed single #
loop $-1 $-1 $267 $112 #
plane-surface $-1 0 -33.054591552035291 0 0 1 0 0 0 1 forward_v I I I I #
coedge $-1 $268 $269 $270 $271 forward $113 $-1 #
coedge $-1 $272 $115 $273 $274 forward $71 $-1 #
coedge $-1 $115 $272 $275 $276 forward $71 $-1 #
coedge $-1 $277 $278 $115 $183 reversed $279 $-1 #
edge $-1 $280 -33.054591552035291 $281 33.054591552035291 $182 $282 forward 7 unknown #
face $-1 $283 $284 $43 $-1 $285 reversed single #
loop $-1 $-1 $286 $116 #
plane-surface $-1 0 -9.302568344939715 0 0 1 0 0 0 1 forward_v I I I I #
coedge $-1 $287 $288 $289 $290 forward $117 $-1 #
coedge $-1 $291 $119 $292 $293 forward $74 $-1 #
coedge $-1 $119 $291 $294 $295 forward $74 $-1 #
coedge $-1 $296 $297 $119 $191 reversed $298 $-1 #
edge $-1 $299 -9.302568344939715 $300 9.302568344939715 $190 $301 forward 7 unknown #
face $-1 $302 $303 $44 $-1 $304 reversed single #
loop $-1 $-1 $305 $120 #
plane-surface $-1 0 -9.302568344939715 0 0 1 0 0 0 1 forward_v I I I I #
coedge $-1 $306 $307 $308 $309 forward $121 $-1 #
coedge $-1 $310 $123 $311 $312 forward $77 $-1 #
coedge $-1 $123 $310 $313 $314 forward $77 $-1 #
coedge $-1 $315 $316 $123 $199 reversed $317 $-1 #
edge $-1 $318 -9.302568344939715 $319 9.302568344939715 $198 $320 forward 7 unknown #
face $-1 $321 $322 $45 $-1 $323 reversed single #
loop $-1 $-1 $324 $124 #
plane-surface $-1 0 -3.0116915818851773 0 0 1 0 0 0 1 forward_v I I I I #
coedge $-1 $325 $326 $327 $328 forward $125 $-1 #
coedge $-1 $329 $127 $330 $331 forward $80 $-1 #
coedge $-1 $127 $329 $332 $333 forward $80 $-1 #
coedge $-1 $334 $335 $127 $207 reversed $336 $-1 #
edge $-1 $337 -3.0116915818851773 $338 3.0116915818851773 $206 $339 forward 7 unknown #
loop $-1 $340 $341 $128 #
cone-surface $-1 0 0 0 0 0 1 0.25 0 0 1 I I -0.70710678118654624 0.70710678118654879 0.25 forward I I I I #
coedge $-1 $210 $210 $132 $212 forward $129 $-1 #
coedge $-1 $211 $211 $341 $342 forward $131 $-1 #
edge $-1 $343 0 $343 6.2831853071796004 $210 $344 forward 7 unknown #
loop $-1 $345 $346 $133 #
cone-surface $-1 0 0 0 0 0 1 0.25 0 0 1 I I -0.70710678118654624 0.70710678118654879 0.25 forward I I I I #
coedge $-1 $215 $215 $137 $217 forward $134 $-1 #
coedge $-1 $216 $216 $346 $347 forward $136 $-1 #
edge $-1 $348 0 $348 6.2831853071796004 $215 $349 forward 7 unknown #
face $-1 $350 $351 $48 $-1 $352 reversed single #
loop $-1 $-1 $353 $138 #
plane-surface $-1 0 -3.3986989198678028 0 0 1 0 0 0 1 forward_v I I I I #
coedge $-1 $354 $355 $356 $357 forward $139 $-1 #
coedge $-1 $358 $141 $359 $360 forward $89 $-1 #
coedge $-1 $141 $358 $361 $362 forward $89 $-1 #
coedge $-1 $363 $364 $141 $225 reversed $365 $-1 #
edge $-1 $366 -3.3986989198678028 $367 3.3986989198678028 $224 $368 forward 7 unknown #
loop $-1 $369 $370 $142 #
cone-surface $-1 0 0 0 0 0 1 0.25 0 0 1 I I -0.70710678118654746 0.70710678118654746 0.25 forward I I I I #
coedge $-1 $228 $228 $146 $230 forward $143 $-1 #
coedge $-1 $229 $229 $370 $371 forward $145 $-1 #
edge $-1 $372 0 $372 6.2831853071796004 $228 $373 forward 7 unknown #
loop $-1 $374 $375 $147 #
cone-surface $-1 0 0 0 0 0 1 0.25 0 0 1 I I -0.70710678118654746 0.70710678118654746 0.25 forward I I I I #
coedge $-1 $233 $233 $151 $235 forward $148 $-1 #
coedge $-1 $234 $234 $375 $376 forward $150 $-1 #
edge $-1 $377 0 $377 6.2831853071796004 $233 $378 forward 7 unknown #
loop $-1 $379 $380 $152 #
cone-surface $-1 0 0 0 0 0 1 0.25 0 0 1 I I -0.70710678118654746 0.70710678118654746 0.25 forward I I I I #
coedge $-1 $238 $238 $156 $240 forward $153 $-1 #
coedge $-1 $239 $239 $380 $381 forward $155 $-1 #
edge $-1 $382 0 $382 6.2831853071796004 $238 $383 forward 7 unknown #
face $-1 $384 $385 $52 $-1 $386 reversed single #
loop $-1 $-1 $387 $157 #
plane-surface $-1 0 -3.3986989198678028 0 0 1 0 0 0 1 forward_v I I I I #
coedge $-1 $388 $389 $390 $391 forward $158 $-1 #
coedge $-1 $392 $160 $393 $394 forward $101 $-1 #
coedge $-1 $160 $392 $395 $396 forward $101 $-1 #
coedge $-1 $397 $398 $160 $248 reversed $399 $-1 #
edge $-1 $400 -3.3986989198678028 $401 3.3986989198678028 $247 $402 forward 7 unknown #
loop $-1 $403 $404 $161 #
cone-surface $-1 0 0 0 0 0 1 0.25 0 0 1 I I -0.70710678118654746 0.70710678118654746 0.25 forward I I I I #
coedge $-1 $251 $251 $165 $253 forward $162 $-1 #
coedge $-1 $252 $252 $404 $405 forward $164 $-1 #
edge $-1 $406 0 $406 6.2831853071796004 $251 $407 forward 7 unknown #
loop $-1 $408 $409 $166 #
cone-surface $-1 0 0 0 0 0 1 0.25 0 0 1 I I -0.70710678118654746 0.70710678118654746 0.25 forward I I I I #
coedge $-1 $256 $256 $170 $258 forward $167 $-1 #
coedge $-1 $257 $257 $409 $410 forward $169 $-1 #
edge $-1 $411 0 $411 6.2831853071796004 $256 $412 forward 7 unknown #
loop $-1 $413 $414 $171 #
cone-surface $-1 0 0 0 0 0 1 0.25 0 0 1 I I -0.70710678118654746 0.70710678118654746 0.25 forward I I I I #
coedge $-1 $261 $261 $175 $263 forward $172 $-1 #
coedge $-1 $262 $262 $414 $415 forward $174 $-1 #
edge $-1 $416 0 $416 6.2831853071796004 $261 $417 forward 7 unknown #
face $-1 $418 $419 $42 $-1 $420 reversed single #
loop $-1 $-1 $421 $176 #
plane-surface $-1 -55.933103427228616 0 0 1 0 0 0 0 -1 forward_v I I I I #
coedge $-1 $422 $275 $423 $424 forward $177 $-1 #
coedge $-1 $425 $179 $422 $426 forward $113 $-1 #
coedge $-1 $179 $425 $427 $428 forward $113 $-1 #
coedge $-1 $278 $277 $179 $271 reversed $279 $-1 #
edge $-1 $429 -33.054591552035291 $430 33.054591552035291 $270 $431 forward 7 unknown #
coedge $-1 $181 $180 $432 $433 forward $71 $-1 #
coedge $-1 $434 $435 $180 $274 reversed $419 $-1 #
edge $-1 $281 -55.933103427228616 $436 55.933103427228616 $273 $437 forward 7 unknown #
coedge $-1 $267 $438 $181 $276 reversed $177 $-1 #
edge $-1 $439 -55.933103427228616 $280 55.933103427228616 $275 $440 forward 7 unknown #
coedge $-1 $270 $182 $438 $441 forward $279 $-1 #
coedge $-1 $182 $270 $434 $442 reversed $279 $-1 #
loop $-1 $-1 $277 $418 #
vertex $-1 $183 $443 #
vertex $-1 $183 $444 #
straight-curve $-1 55.933103427228616 0 15.787660578228641 0 1 0 I I #
face $-1 $445 $446 $43 $-1 $447 reversed single #
loop $-1 $-1 $448 $184 #
plane-surface $-1 -4.6839729700994823 0 0 1 0 0 0 0 -1 forward_v I I I I #
coedge $-1 $449 $294 $450 $451 forward $185 $-1 #
coedge $-1 $452 $187 $449 $453 forward $117 $-1 #
coedge $-1 $187 $452 $454 $455 forward $117 $-1 #
coedge $-1 $297 $296 $187 $290 reversed $298 $-1 #
edge $-1 $456 -9.302568344939715 $457 9.302568344939715 $289 $458 forward 7 unknown #
coedge $-1 $189 $188 $459 $460 forward $74 $-1 #
coedge $-1 $461 $462 $188 $293 reversed $446 $-1 #
edge $-1 $300 -4.6839729700994823 $463 4.6839729700994823 $292 $464 forward 7 unknown #
coedge $-1 $286 $465 $189 $295 reversed $185 $-1 #
edge $-1 $466 -4.6839729700994823 $299 4.6839729700994823 $294 $467 forward 7 unknown #
coedge $-1 $289 $190 $465 $468 forward $298 $-1 #
coedge $-1 $190 $289 $461 $469 reversed $298 $-1 #
loop $-1 $-1 $296 $445 #
vertex $-1 $191 $470 #
vertex $-1 $191 $471 #
straight-curve $-1 4.6839729700994823 0 15.787660578228641 0 1 0 I I #
face $-1 $472 $473 $44 $-1 $474 reversed single #
loop $-1 $-1 $475 $192 #
plane-surface $-1 -4.6839729700994823 0 0 1 0 0 0 0 -1 forward_v I I I I #
coedge $-1 $476 $313 $477 $478 forward $193 $-1 #
coedge $-1 $479 $195 $476 $480 forward $121 $-1 #
coedge $-1 $195 $479 $481 $482 forward $121 $-1 #
coedge $-1 $316 $315 $195 $309 reversed $317 $-1 #
edge $-1 $483 -9.302568344939715 $484 9.302568344939715 $308 $485 forward 7 unknown #
coedge $-1 $197 $196 $486 $487 forward $77 $-1 #
coedge $-1 $488 $489 $196 $312 reversed $473 $-1 #
edge $-1 $319 -4.6839729700994823 $490 4.6839729700994823 $311 $491 forward 7 unknown #
coedge $-1 $305 $492 $197 $314 reversed $193 $-1 #
edge $-1 $493 -4.6839729700994823 $318 4.6839729700994823 $313 $494 forward 7 unknown #
coedge $-1 $308 $198 $492 $495 forward $317 $-1 #
coedge $-1 $198 $308 $488 $496 reversed $317 $-1 #
loop $-1 $-1 $315 $472 #
vertex $-1 $199 $497 #
vertex $-1 $199 $498 #
straight-curve $-1 4.6839729700994823 0 15.787660578228641 0 1 0 I I #
face $-1 $499 $500 $45 $-1 $501 reversed single #
loop $-1 $-1 $502 $200 #
plane-surface $-1 -223.73241370891446 0 0 1 0 0 0 0 -1 forward_v I I I I #
coedge $-1 $503 $332 $504 $505 forward $201 $-1 #
coedge $-1 $506 $203 $503 $507 forward $125 $-1 #
coedge $-1 $203 $506 $508 $509 forward $125 $-1 #
coedge $-1 $335 $334 $203 $328 reversed $336 $-1 #
edge $-1 $510 -3.0116915818851773 $511 3.0116915818851773 $327 $512 forward 7 unknown #
coedge $-1 $205 $204 $513 $514 forward $80 $-1 #
coedge $-1 $515 $516 $204 $331 reversed $500 $-1 #
edge $-1 $338 -223.73241370891446 $517 223.73241370891446 $330 $518 forward 7 unknown #
coedge $-1 $324 $519 $205 $333 reversed $201 $-1 #
edge $-1 $520 -223.73241370891446 $337 223.73241370891446 $332 $521 forward 7 unknown #
coedge $-1 $327 $206 $519 $522 forward $336 $-1 #
coedge $-1 $206 $327 $515 $523 reversed $336 $-1 #
loop $-1 $-1 $334 $499 #
vertex $-1 $207 $524 #
vertex $-1 $207 $525 #
straight-curve $-1 223.73241370891446 0 111.86620685445723 0 1 0 I I #
loop $-1 $-1 $526 $128 #
coedge $-1 $341 $341 $211 $342 reversed $208 $-1 #
edge $-1 $527 0 $527 6.2831853071796004 $341 $528 forward 7 unknown #
vertex $-1 $212 $529 #
ellipse-curve $-1 0 0 -1.9323480941190798 0 0 -1 0.5 0 0 1 I I #
loop $-1 $-1 $530 $133 #
coedge $-1 $346 $346 $216 $347 reversed $213 $-1 #
edge $-1 $531 0 $531 6.2831853071796004 $346 $532 forward 7 unknown #
vertex $-1 $217 $533 #
ellipse-curve $-1 0 0 -1.9323480941190798 0 0 -1 0.5 0 0 1 I I #
face $-1 $534 $535 $48 $-1 $536 reversed single #
loop $-1 $-1 $537 $218 #
plane-surface $-1 -223.73241370891446 0 0 1 0 0 0 0 -1 forward_v I I I I #
coedge $-1 $538 $361 $539 $540 forward $219 $-1 #
coedge $-1 $541 $221 $538 $542 forward $139 $-1 #
coedge $-1 $221 $541 $543 $544 forward $139 $-1 #
coedge $-1 $364 $363 $221 $357 reversed $365 $-1 #
edge $-1 $545 -3.3986989198678028 $546 3.3986989198678028 $356 $547 forward 7 unknown #
coedge $-1 $223 $222 $548 $549 forward $89 $-1 #
coedge $-1 $550 $551 $222 $360 reversed $535 $-1 #
edge $-1 $367 -223.73241370891446 $552 223.73241370891446 $359 $553 forward 7 unknown #
coedge $-1 $353 $554 $223 $362 reversed $219 $-1 #
edge $-1 $555 -223.73241370891446 $366 223.73241370891446 $361 $556 forward 7 unknown #
coedge $-1 $356 $224 $554 $557 forward $365 $-1 #
coedge $-1 $224 $356 $550 $558 reversed $365 $-1 #
loop $-1 $-1 $363 $534 #
vertex $-1 $225 $559 #
vertex $-1 $225 $560 #
straight-curve $-1 223.73241370891446 0 111.86620685445723 0 1 0 I I #
loop $-1 $-1 $561 $142 #
coedge $-1 $370 $370 $229 $371 reversed $226 $-1 #
edge $-1 $562 0 $562 6.2831853071796004 $370 $563 forward 7 unknown #
vertex $-1 $230 $564 #
ellipse-curve $-1 0 0 -1.25 0 0 -1 0.5 0 0 1 I I #
loop $-1 $-1 $565 $147 #
coedge $-1 $375 $375 $234 $376 reversed $231 $-1 #
edge $-1 $566 0 $566 6.2831853071796004 $375 $567 forward 7 unknown #
vertex $-1 $235 $568 #
ellipse-curve $-1 0 0 -1.25 0 0 -1 0.5 0 0 1 I I #
loop $-1 $-1 $569 $152 #
coedge $-1 $380 $380 $239 $381 reversed $236 $-1 #
edge $-1 $570 0 $570 6.2831853071796004 $380 $571 forward 7 unknown #
vertex $-1 $240 $572 #
ellipse-curve $-1 0 0 -1.25 0 0 -1 0.5 0 0 1 I I #
face $-1 $573 $574 $52 $-1 $575 reversed single #
loop $-1 $-1 $576 $241 #
plane-surface $-1 -223.73241370891446 0 0 1 0 0 0 0 -1 forward_v I I I I #
coedge $-1 $577 $395 $578 $579 forward $242 $-1 #
coedge $-1 $580 $244 $577 $581 forward $158 $-1 #
coedge $-1 $244 $580 $582 $583 forward $158 $-1 #
coedge $-1 $398 $397 $244 $391 reversed $399 $-1 #
edge $-1 $584 -3.3986989198678028 $585 3.3986989198678028 $390 $586 forward 7 unknown #
coedge $-1 $246 $245 $587 $588 forward $101 $-1 #
coedge $-1 $589 $590 $245 $394 reversed $574 $-1 #
edge $-1 $401 -223.73241370891446 $591 223.73241370891446 $393 $592 forward 7 unknown #
coedge $-1 $387 $593 $246 $396 reversed $242 $-1 #
edge $-1 $594 -223.73241370891446 $400 223.73241370891446 $395 $595 forward 7 unknown #
coedge $-1 $390 $247 $593 $596 forward $399 $-1 #
coedge $-1 $247 $390 $589 $597 reversed $399 $-1 #
loop $-1 $-1 $397 $573 #
vertex $-1 $248 $598 #
vertex $-1 $248 $599 #
straight-curve $-1 223.73241370891446 0 111.86620685445723 0 1 0 I I #
loop $-1 $-1 $600 $161 #
coedge $-1 $404 $404 $252 $405 reversed $249 $-1 #
edge $-1 $601 0 $601 6.2831853071796004 $404 $602 forward 7 unknown #
vertex $-1 $253 $603 #
ellipse-curve $-1 0 0 -1.25 0 0 -1 0.5 0 0 1 I I #
loop $-1 $-1 $604 $166 #
coedge $-1 $409 $409 $257 $410 reversed $254 $-1 #
edge $-1 $605 0 $605 6.2831853071796004 $409 $606 forward 7 unknown #
vertex $-1 $258 $607 #
ellipse-curve $-1 0 0 -1.25 0 0 -1 0.5 0 0 1 I I #
loop $-1 $-1 $608 $171 #
coedge $-1 $414 $414 $262 $415 reversed $259 $-1 #
edge $-1 $609 0 $609 6.2831853071796004 $414 $610 forward 7 unknown #
vertex $-1 $263 $611 #
ellipse-curve $-1 0 0 -1.25 0 0 -1 0.5 0 0 1 I I #
face $-1 $-1 $279 $42 $-1 $612 reversed single #
loop $-1 $-1 $434 $264 #
plane-surface $-1 0 33.054591552035291 0 0 -1 0 0 0 -1 forward_v I I I I #
coedge $-1 $613 $432 $435 $614 forward $265 $-1 #
coedge $-1 $438 $267 $268 $426 reversed $177 $-1 #
coedge $-1 $432 $613 $267 $424 reversed $265 $-1 #
edge $-1 $439 -15.787660578228641 $615 15.787660578228641 $423 $616 forward 7 unknown #
coedge $-1 $269 $268 $613 $617 forward $113 $-1 #
edge $-1 $430 -55.933103427228616 $615 55.933103427228616 $422 $618 forward 7 unknown #
coedge $-1 $435 $434 $269 $428 reversed $419 $-1 #
edge $-1 $619 -55.933103427228616 $429 55.933103427228616 $427 $620 forward 7 unknown #
vertex $-1 $271 $621 #
vertex $-1 $441 $622 #
straight-curve $-1 55.933103427228616 0 -15.787660578228641 0 -1 0 I I #
coedge $-1 $421 $423 $272 $433 reversed $265 $-1 #
edge $-1 $436 -33.054591552035291 $439 33.054591552035291 $432 $623 forward 7 unknown #
coedge $-1 $427 $273 $278 $442 forward $419 $-1 #
coedge $-1 $273 $427 $421 $614 reversed $419 $-1 #
vertex $-1 $274 $624 #
straight-curve $-1 0 33.054591552035291 15.787660578228641 -1 0 0 I I #
coedge $-1 $275 $422 $277 $441 reversed $177 $-1 #
vertex $-1 $433 $625 #
straight-curve $-1 0 -33.054591552035291 15.787660578228641 1 0 0 I I #
edge $-1 $280 -15.787660578228641 $430 15.787660578228641 $277 $626 forward 7 unknown #
edge $-1 $281 -15.787660578228641 $429 15.787660578228641 $278 $627 forward 7 unknown #
point $-1 55.933103427228616 -33.054591552035291 15.787660578228641 #
point $-1 55.933103427228616 33.054591552035291 15.787660578228641 #
face $-1 $-1 $298 $43 $-1 $628 reversed single #
loop $-1 $-1 $461 $283 #
plane-surface $-1 0 9.302568344939715 0 0 -1 0 0 0 -1 forward_v I I I I #
coedge $-1 $629 $459 $462 $630 forward $284 $-1 #
coedge $-1 $465 $286 $287 $453 reversed $185 $-1 #
coedge $-1 $459 $629 $286 $451 reversed $284 $-1 #
edge $-1 $466 -15.787660578228641 $631 15.787660578228641 $450 $632 forward 7 unknown #
coedge $-1 $288 $287 $629 $633 forward $117 $-1 #
edge $-1 $457 -4.6839729700994823 $631 4.6839729700994823 $449 $634 forward 7 unknown #
coedge $-1 $462 $461 $288 $455 reversed $446 $-1 #
edge $-1 $635 -4.6839729700994823 $456 4.6839729700994823 $454 $636 forward 7 unknown #
vertex $-1 $290 $637 #
vertex $-1 $468 $638 #
straight-curve $-1 4.6839729700994823 0 -15.787660578228641 0 -1 0 I I #
coedge $-1 $448 $450 $291 $460 reversed $284 $-1 #
edge $-1 $463 -9.302568344939715 $466 9.302568344939715 $459 $639 forward 7 unknown #
coedge $-1 $454 $292 $297 $469 forward $446 $-1 #
coedge $-1 $292 $454 $448 $630 reversed $446 $-1 #
vertex $-1 $293 $640 #
straight-curve $-1 0 9.302568344939715 15.787660578228641 -1 0 0 I I #
coedge $-1 $294 $449 $296 $468 reversed $185 $-1 #
vertex $-1 $460 $641 #
straight-curve $-1 0 -9.302568344939715 15.787660578228641 1 0 0 I I #
edge $-1 $299 -15.787660578228641 $457 15.787660578228641 $296 $642 forward 7 unknown #
edge $-1 $300 -15.787660578228641 $456 15.787660578228641 $297 $643 forward 7 unknown #
point $-1 4.6839729700994823 -9.302568344939715 15.787660578228641 #
point $-1 4.6839729700994823 9.302568344939715 15.787660578228641 #
face $-1 $-1 $317 $44 $-1 $644 reversed single #
loop $-1 $-1 $488 $302 #
plane-surface $-1 0 9.302568344939715 0 0 -1 0 0 0 -1 forward_v I I I I #
coedge $-1 $645 $486 $489 $646 forward $303 $-1 #
coedge $-1 $492 $305 $306 $480 reversed $193 $-1 #
coedge $-1 $486 $645 $305 $478 reversed $303 $-1 #
edge $-1 $493 -15.787660578228641 $647 15.787660578228641 $477 $648 forward 7 unknown #
coedge $-1 $307 $306 $645 $649 forward $121 $-1 #
edge $-1 $484 -4.6839729700994823 $647 4.6839729700994823 $476 $650 forward 7 unknown #
coedge $-1 $489 $488 $307 $482 reversed $473 $-1 #
edge $-1 $651 -4.6839729700994823 $483 4.6839729700994823 $481 $652 forward 7 unknown #
vertex $-1 $309 $653 #
vertex $-1 $495 $654 #
straight-curve $-1 4.6839729700994823 0 -15.787660578228641 0 -1 0 I I #
coedge $-1 $475 $477 $310 $487 reversed $303 $-1 #
edge $-1 $490 -9.302568344939715 $493 9.302568344939715 $486 $655 forward 7 unknown #
coedge $-1 $481 $311 $316 $496 forward $473 $-1 #
coedge $-1 $311 $481 $475 $646 reversed $473 $-1 #
vertex $-1 $312 $656 #
straight-curve $-1 0 9.302568344939715 15.787660578228641 -1 0 0 I I #
coedge $-1 $313 $476 $315 $495 reversed $193 $-1 #
vertex $-1 $487 $657 #
straight-curve $-1 0 -9.302568344939715 15.787660578228641 1 0 0 I I #
edge $-1 $318 -15.787660578228641 $484 15.787660578228641 $315 $658 forward 7 unknown #
edge $-1 $319 -15.787660578228641 $483 15.787660578228641 $316 $659 forward 7 unknown #
point $-1 4.6839729700994823 -9.302568344939715 15.787660578228641 #
point $-1 4.6839729700994823 9.302568344939715 15.787660578228641 #
face $-1 $-1 $336 $45 $-1 $660 reversed single #
loop $-1 $-1 $515 $321 #
plane-surface $-1 0 3.0116915818851773 0 0 -1 0 0 0 -1 forward_v I I I I #
coedge $-1 $661 $513 $516 $662 forward $322 $-1 #
coedge $-1 $519 $324 $325 $507 reversed $201 $-1 #
coedge $-1 $513 $661 $324 $505 reversed $322 $-1 #
edge $-1 $520 -111.86620685445723 $663 111.86620685445723 $504 $664 forward 7 unknown #
coedge $-1 $326 $325 $661 $665 forward $125 $-1 #
edge $-1 $511 -223.73241370891446 $663 223.73241370891446 $503 $666 forward 7 unknown #
coedge $-1 $516 $515 $326 $509 reversed $500 $-1 #
edge $-1 $667 -223.73241370891446 $510 223.73241370891446 $508 $668 forward 7 unknown #
vertex $-1 $328 $669 #
vertex $-1 $522 $670 #
straight-curve $-1 223.73241370891446 0 -111.86620685445723 0 -1 0 I I #
coedge $-1 $502 $504 $329 $514 reversed $322 $-1 #
edge $-1 $517 -3.0116915818851773 $520 3.0116915818851773 $513 $671 forward 7 unknown #
coedge $-1 $508 $330 $335 $523 forward $500 $-1 #
coedge $-1 $330 $508 $502 $662 reversed $500 $-1 #
vertex $-1 $331 $672 #
straight-curve $-1 0 3.0116915818851773 111.86620685445723 -1 0 0 I I #
coedge $-1 $332 $503 $334 $522 reversed $201 $-1 #
vertex $-1 $514 $673 #
straight-curve $-1 0 -3.0116915818851773 111.86620685445723 1 0 0 I I #
edge $-1 $337 -111.86620685445723 $511 111.86620685445723 $334 $674 forward 7 unknown #
edge $-1 $338 -111.86620685445723 $510 111.86620685445723 $335 $675 forward 7 unknown #
point $-1 223.73241370891446 -3.0116915818851773 111.86620685445723 #
point $-1 223.73241370891446 3.0116915818851773 111.86620685445723 #
coedge $-1 $526 $526 $-1 $676 reversed $340 $-1 #
vertex $-1 $342 $677 #
ellipse-curve $-1 0 0 -0.25000000000000089 0 0 -1 0.5 0 0 1 I I #
point $-1 0.5 0 -1.9323480941190798 #
coedge $-1 $530 $530 $-1 $678 reversed $345 $-1 #
vertex $-1 $347 $679 #
ellipse-curve $-1 0 0 -0.25000000000000089 0 0 -1 0.5 0 0 1 I I #
point $-1 0.5 0 -1.9323480941190798 #
face $-1 $-1 $365 $48 $-1 $680 reversed single #
loop $-1 $-1 $550 $350 #
plane-surface $-1 0 3.3986989198678028 0 0 -1 0 0 0 -1 forward_v I I I I #
coedge $-1 $681 $548 $551 $682 forward $351 $-1 #
coedge $-1 $554 $353 $354 $542 reversed $219 $-1 #
coedge $-1 $548 $681 $353 $540 reversed $351 $-1 #
edge $-1 $555 -111.86620685445723 $683 111.86620685445723 $539 $684 forward 7 unknown #
coedge $-1 $355 $354 $681 $685 forward $139 $-1 #
edge $-1 $546 -223.73241370891446 $683 223.73241370891446 $538 $686 forward 7 unknown #
coedge $-1 $551 $550 $355 $544 reversed $535 $-1 #
edge $-1 $687 -223.73241370891446 $545 223.73241370891446 $543 $688 forward 7 unknown #
vertex $-1 $357 $689 #
vertex $-1 $557 $690 #
straight-curve $-1 223.73241370891446 0 -111.86620685445723 0 -1 0 I I #
coedge $-1 $537 $539 $358 $549 reversed $351 $-1 #
edge $-1 $552 -3.3986989198678028 $555 3.3986989198678028 $548 $691 forward 7 unknown #
coedge $-1 $543 $359 $364 $558 forward $535 $-1 #
coedge $-1 $359 $543 $537 $682 reversed $535 $-1 #
vertex $-1 $360 $692 #
straight-curve $-1 0 3.3986989198678028 111.86620685445723 -1 0 0 I I #
coedge $-1 $361 $538 $363 $557 reversed $219 $-1 #
vertex $-1 $549 $693 #
straight-curve $-1 0 -3.3986989198678028 111.86620685445723 1 0 0 I I #
edge $-1 $366 -111.86620685445723 $546 111.86620685445723 $363 $694 forward 7 unknown #
edge $-1 $367 -111.86620685445723 $545 111.86620685445723 $364 $695 forward 7 unknown #
point $-1 223.73241370891446 -3.3986989198678028 111.86620685445723 #
point $-1 223.73241370891446 3.3986989198678028 111.86620685445723 #
coedge $-1 $561 $561 $-1 $696 reversed $369 $-1 #
vertex $-1 $371 $697 #
ellipse-curve $-1 0 0 -0.25 0 0 -1 0.5 0 0 1 I I #
point $-1 0.5 0 -1.25 #
coedge $-1 $565 $565 $-1 $698 reversed $374 $-1 #
vertex $-1 $376 $699 #
ellipse-curve $-1 0 0 -0.25 0 0 -1 0.5 0 0 1 I I #
point $-1 0.5 0 -1.25 #
coedge $-1 $569 $569 $-1 $700 reversed $379 $-1 #
vertex $-1 $381 $701 #
ellipse-curve $-1 0 0 -0.25 0 0 -1 0.5 0 0 1 I I #
point $-1 0.5 0 -1.25 #
face $-1 $-1 $399 $52 $-1 $702 reversed single #
loop $-1 $-1 $589 $384 #
plane-surface $-1 0 3.3986989198678028 0 0 -1 0 0 0 -1 forward_v I I I I #
coedge $-1 $703 $587 $590 $704 forward $385 $-1 #
coedge $-1 $593 $387 $388 $581 reversed $242 $-1 #
coedge $-1 $587 $703 $387 $579 reversed $385 $-1 #
edge $-1 $594 -111.86620685445723 $705 111.86620685445723 $578 $706 forward 7 unknown #
coedge $-1 $389 $388 $703 $707 forward $158 $-1 #
edge $-1 $585 -223.73241370891446 $705 223.73241370891446 $577 $708 forward 7 unknown #
coedge $-1 $590 $589 $389 $583 reversed $574 $-1 #
edge $-1 $709 -223.73241370891446 $584 223.73241370891446 $582 $710 forward 7 unknown #
vertex $-1 $391 $711 #
vertex $-1 $596 $712 #
straight-curve $-1 223.73241370891446 0 -111.86620685445723 0 -1 0 I I #
coedge $-1 $576 $578 $392 $588 reversed $385 $-1 #
edge $-1 $591 -3.3986989198678028 $594 3.3986989198678028 $587 $713 forward 7 unknown #
coedge $-1 $582 $393 $398 $597 forward $574 $-1 #
coedge $-1 $393 $582 $576 $704 reversed $574 $-1 #
vertex $-1 $394 $714 #
straight-curve $-1 0 3.3986989198678028 111.86620685445723 -1 0 0 I I #
coedge $-1 $395 $577 $397 $596 reversed $242 $-1 #
vertex $-1 $588 $715 #
straight-curve $-1 0 -3.3986989198678028 111.86620685445723 1 0 0 I I #
edge $-1 $400 -111.86620685445723 $585 111.86620685445723 $397 $716 forward 7 unknown #
edge $-1 $401 -111.86620685445723 $584 111.86620685445723 $398 $717 forward 7 unknown #
point $-1 223.73241370891446 -3.3986989198678028 111.86620685445723 #
point $-1 223.73241370891446 3.3986989198678028 111.86620685445723 #
coedge $-1 $600 $600 $-1 $718 reversed $403 $-1 #
vertex $-1 $405 $719 #
ellipse-curve $-1 0 0 -0.25 0 0 -1 0.5 0 0 1 I I #
point $-1 0.5 0 -1.25 #
coedge $-1 $604 $604 $-1 $720 reversed $408 $-1 #
vertex $-1 $410 $721 #
ellipse-curve $-1 0 0 -0.25 0 0 -1 0.5 0 0 1 I I #
point $-1 0.5 0 -1.25 #
coedge $-1 $608 $608 $-1 $722 reversed $413 $-1 #
vertex $-1 $415 $723 #
ellipse-curve $-1 0 0 -0.25 0 0 -1 0.5 0 0 1 I I #
point $-1 0.5 0 -1.25 #
plane-surface $-1 55.933103427228616 0 0 -1 0 0 0 0 1 forward_v I I I I #
coedge $-1 $423 $421 $425 $617 reversed $265 $-1 #
edge $-1 $436 -15.787660578228641 $619 15.787660578228641 $435 $724 forward 7 unknown #
vertex $-1 $617 $725 #
straight-curve $-1 -55.933103427228616 -33.054591552035291 0 0 0 -1 I I #
edge $-1 $615 -33.054591552035291 $619 33.054591552035291 $613 $726 forward 7 unknown #
straight-curve $-1 0 -33.054591552035291 -15.787660578228641 -1 0 0 I I #
vertex $-1 $428 $727 #
straight-curve $-1 0 33.054591552035291 -15.787660578228641 1 0 0 I I #
point $-1 55.933103427228616 33.054591552035291 -15.787660578228641 #
point $-1 55.933103427228616 -33.054591552035291 -15.787660578228641 #
straight-curve $-1 -55.933103427228616 0 15.787660578228641 0 -1 0 I I #
point $-1 -55.933103427228616 33.054591552035291 15.787660578228641 #
point $-1 -55.933103427228616 -33.054591552035291 15.787660578228641 #
straight-curve $-1 55.933103427228616 -33.054591552035291 0 0 0 -1 I I #
straight-curve $-1 55.933103427228616 33.054591552035291 0 0 0 -1 I I #
plane-surface $-1 4.6839729700994823 0 0 -1 0 0 0 0 1 forward_v I I I I #
coedge $-1 $450 $448 $452 $633 reversed $284 $-1 #
edge $-1 $463 -15.787660578228641 $635 15.787660578228641 $462 $728 forward 7 unknown #
vertex $-1 $633 $729 #
straight-curve $-1 -4.6839729700994823 -9.302568344939715 0 0 0 -1 I I #
edge $-1 $631 -9.302568344939715 $635 9.302568344939715 $629 $730 forward 7 unknown #
straight-curve $-1 0 -9.302568344939715 -15.787660578228641 -1 0 0 I I #
vertex $-1 $455 $731 #
straight-curve $-1 0 9.302568344939715 -15.787660578228641 1 0 0 I I #
point $-1 4.6839729700994823 9.302568344939715 -15.787660578228641 #
point $-1 4.6839729700994823 -9.302568344939715 -15.787660578228641 #
straight-curve $-1 -4.6839729700994823 0 15.787660578228641 0 -1 0 I I #
point $-1 -4.6839729700994823 9.302568344939715 15.787660578228641 #
point $-1 -4.6839729700994823 -9.302568344939715 15.787660578228641 #
straight-curve $-1 4.6839729700994823 -9.302568344939715 0 0 0 -1 I I #
straight-curve $-1 4.6839729700994823 9.302568344939715 0 0 0 -1 I I #
plane-surface $-1 4.6839729700994823 0 0 -1 0 0 0 0 1 forward_v I I I I #
coedge $-1 $477 $475 $479 $649 reversed $303 $-1 #
edge $-1 $490 -15.787660578228641 $651 15.787660578228641 $489 $732 forward 7 unknown #
vertex $-1 $649 $733 #
straight-curve $-1 -4.6839729700994823 -9.302568344939715 0 0 0 -1 I I #
edge $-1 $647 -9.302568344939715 $651 9.302568344939715 $645 $734 forward 7 unknown #
straight-curve $-1 0 -9.302568344939715 -15.787660578228641 -1 0 0 I I #
vertex $-1 $482 $735 #
straight-curve $-1 0 9.302568344939715 -15.787660578228641 1 0 0 I I #
point $-1 4.6839729700994823 9.302568344939715 -15.787660578228641 #
point $-1 4.6839729700994823 -9.302568344939715 -15.787660578228641 #
straight-curve $-1 -4.6839729700994823 0 15.787660578228641 0 -1 0 I I #
point $-1 -4.6839729700994823 9.302568344939715 15.787660578228641 #
point $-1 -4.6839729700994823 -9.302568344939715 15.787660578228641 #
straight-curve $-1 4.6839729700994823 -9.302568344939715 0 0 0 -1 I I #
straight-curve $-1 4.6839729700994823 9.302568344939715 0 0 0 -1 I I #
plane-surface $-1 223.73241370891446 0 0 -1 0 0 0 0 1 forward_v I I I I #
coedge $-1 $504 $502 $506 $665 reversed $322 $-1 #
edge $-1 $517 -111.86620685445723 $667 111.86620685445723 $516 $736 forward 7 unknown #
vertex $-1 $665 $737 #
straight-curve $-1 -223.73241370891446 -3.0116915818851773 0 0 0 -1 I I #
edge $-1 $663 -3.0116915818851773 $667 3.0116915818851773 $661 $738 forward 7 unknown #
straight-curve $-1 0 -3.0116915818851773 -111.86620685445723 -1 0 0 I I #
vertex $-1 $509 $739 #
straight-curve $-1 0 3.0116915818851773 -111.86620685445723 1 0 0 I I #
point $-1 223.73241370891446 3.0116915818851773 -111.86620685445723 #
point $-1 223.73241370891446 -3.0116915818851773 -111.86620685445723 #
straight-curve $-1 -223.73241370891446 0 111.86620685445723 0 -1 0 I I #
point $-1 -223.73241370891446 3.0116915818851773 111.86620685445723 #
point $-1 -223.73241370891446 -3.0116915818851773 111.86620685445723 #
straight-curve $-1 223.73241370891446 -3.0116915818851773 0 0 0 -1 I I #
straight-curve $-1 223.73241370891446 3.0116915818851773 0 0 0 -1 I I #
edge $-1 $740 1 $740 0 $526 $-1 forward 7 unknown #
point $-1 0.5 0 -0.25000000000000089 #
edge $-1 $741 1 $741 0 $530 $-1 forward 7 unknown #
point $-1 0.5 0 -0.25000000000000089 #
plane-surface $-1 223.73241370891446 0 0 -1 0 0 0 0 1 forward_v I I I I #
coedge $-1 $539 $537 $541 $685 reversed $351 $-1 #
edge $-1 $552 -111.86620685445723 $687 111.86620685445723 $551 $742 forward 7 unknown #
vertex $-1 $685 $743 #
straight-curve $-1 -223.73241370891446 -3.3986989198678028 0 0 0 -1 I I #
edge $-1 $683 -3.3986989198678028 $687 3.3986989198678028 $681 $744 forward 7 unknown #
straight-curve $-1 0 -3.3986989198678028 -111.86620685445723 -1 0 0 I I #
vertex $-1 $544 $745 #
straight-curve $-1 0 3.3986989198678028 -111.86620685445723 1 0 0 I I #
point $-1 223.73241370891446 3.3986989198678028 -111.86620685445723 #
point $-1 223.73241370891446 -3.3986989198678028 -111.86620685445723 #
straight-curve $-1 -223.73241370891446 0 111.86620685445723 0 -1 0 I I #
point $-1 -223.73241370891446 3.3986989198678028 111.86620685445723 #
point $-1 -223.73241370891446 -3.3986989198678028 111.86620685445723 #
straight-curve $-1 223.73241370891446 -3.3986989198678028 0 0 0 -1 I I #
straight-curve $-1 223.73241370891446 3.3986989198678028 0 0 0 -1 I I #
edge $-1 $746 1 $746 0 $561 $-1 forward 7 unknown #
point $-1 0.5 0 -0.25 #
edge $-1 $747 1 $747 0 $565 $-1 forward 7 unknown #
point $-1 0.5 0 -0.25 #
edge $-1 $748 1 $748 0 $569 $-1 forward 7 unknown #
point $-1 0.5 0 -0.25 #
plane-surface $-1 223.73241370891446 0 0 -1 0 0 0 0 1 forward_v I I I I #
coedge $-1 $578 $576 $580 $707 reversed $385 $-1 #
edge $-1 $591 -111.86620685445723 $709 111.86620685445723 $590 $749 forward 7 unknown #
vertex $-1 $707 $750 #
straight-curve $-1 -223.73241370891446 -3.3986989198678028 0 0 0 -1 I I #
edge $-1 $705 -3.3986989198678028 $709 3.3986989198678028 $703 $751 forward 7 unknown #
straight-curve $-1 0 -3.3986989198678028 -111.86620685445723 -1 0 0 I I #
vertex $-1 $583 $752 #
straight-curve $-1 0 3.3986989198678028 -111.86620685445723 1 0 0 I I #
point $-1 223.73241370891446 3.3986989198678028 -111.86620685445723 #
point $-1 223.73241370891446 -3.3986989198678028 -111.86620685445723 #
straight-curve $-1 -223.73241370891446 0 111.86620685445723 0 -1 0 I I #
point $-1 -223.73241370891446 3.3986989198678028 111.86620685445723 #
point $-1 -223.73241370891446 -3.3986989198678028 111.86620685445723 #
straight-curve $-1 223.73241370891446 -3.3986989198678028 0 0 0 -1 I I #
straight-curve $-1 223.73241370891446 3.3986989198678028 0 0 0 -1 I I #
edge $-1 $753 1 $753 0 $600 $-1 forward 7 unknown #
point $-1 0.5 0 -0.25 #
edge $-1 $754 1 $754 0 $604 $-1 forward 7 unknown #
point $-1 0.5 0 -0.25 #
edge $-1 $755 1 $755 0 $608 $-1 forward 7 unknown #
point $-1 0.5 0 -0.25 #
straight-curve $-1 -55.933103427228616 33.054591552035291 0 0 0 -1 I I #
point $-1 -55.933103427228616 -33.054591552035291 -15.787660578228641 #
straight-curve $-1 -55.933103427228616 0 -15.787660578228641 0 1 0 I I #
point $-1 -55.933103427228616 33.054591552035291 -15.787660578228641 #
straight-curve $-1 -4.6839729700994823 9.302568344939715 0 0 0 -1 I I #
point $-1 -4.6839729700994823 -9.302568344939715 -15.787660578228641 #
straight-curve $-1 -4.6839729700994823 0 -15.787660578228641 0 1 0 I I #
point $-1 -4.6839729700994823 9.302568344939715 -15.787660578228641 #
straight-curve $-1 -4.6839729700994823 9.302568344939715 0 0 0 -1 I I #
point $-1 -4.6839729700994823 -9.302568344939715 -15.787660578228641 #
straight-curve $-1 -4.6839729700994823 0 -15.787660578228641 0 1 0 I I #
point $-1 -4.6839729700994823 9.302568344939715 -15.787660578228641 #
straight-curve $-1 -223.73241370891446 3.0116915818851773 0 0 0 -1 I I #
point $-1 -223.73241370891446 -3.0116915818851773 -111.86620685445723 #
straight-curve $-1 -223.73241370891446 0 -111.86620685445723 0 1 0 I I #
point $-1 -223.73241370891446 3.0116915818851773 -111.86620685445723 #
vertex $-1 $676 $756 #
vertex $-1 $678 $757 #
straight-curve $-1 -223.73241370891446 3.3986989198678028 0 0 0 -1 I I #
point $-1 -223.73241370891446 -3.3986989198678028 -111.86620685445723 #
straight-curve $-1 -223.73241370891446 0 -111.86620685445723 0 1 0 I I #
point $-1 -223.73241370891446 3.3986989198678028 -111.86620685445723 #
vertex $-1 $696 $758 #
vertex $-1 $698 $759 #
vertex $-1 $700 $760 #
straight-curve $-1 -223.73241370891446 3.3986989198678028 0 0 0 -1 I I #
point $-1 -223.73241370891446 -3.3986989198678028 -111.86620685445723 #
straight-curve $-1 -223.73241370891446 0 -111.86620685445723 0 1 0 I I #
point $-1 -223.73241370891446 3.3986989198678028 -111.86620685445723 #
vertex $-1 $718 $761 #
vertex $-1 $720 $762 #
vertex $-1 $722 $763 #
point $-1 0 0 0.25000000000000089 #
point $-1 0 0 0.25000000000000089 #
point $-1 0 0 0.25 #
point $-1 0 0 0.25 #
point $-1 0 0 0.25 #
point $-1 0 0 0.25 #
point $-1 0 0 0.25 #
point $-1 0 0 0.25 #
End-of-ACIS-data 