500 0 12 0           
7 Unknown 11 ACIS 5.0 NT 24 Thu Mar 25 16:52:34 1999 
-1 9.9999999999999995e-007 1e-010 
body $-1 $12 $-1 $13 #
body $-1 $14 $-1 $15 #
body $-1 $16 $-1 $17 #
body $-1 $18 $-1 $19 #
body $-1 $20 $-1 $21 #
body $-1 $22 $-1 $23 #
body $-1 $24 $-1 $25 #
body $-1 $26 $-1 $27 #
body $-1 $28 $-1 $29 #
body $-1 $30 $-1 $31 #
body $-1 $32 $-1 $33 #
body $-1 $34 $-1 $35 #
lump $-1 $-1 $36 $0 #
transform $-1 1 0 0 0 1 0 0 0 1 48.833277382732625 32.73872811770736 10.101776501787782 1 rotate no_reflect no_shear #
lump $-1 $-1 $37 $1 #
transform $-1 1 0 0 0 1 0 0 0 1 11.754103009969565 5.5829710501187382 10.101776501787782 1 rotate no_reflect no_shear #
lump $-1 $-1 $38 $2 #
transform $-1 0.80901698891910034 0 0.5877852598018023 0 1 0 -0.5877852598018023 0 0.80901698891910034 -57.40696126676594 38.660346409271817 95.607127514193778 1 rotate no_reflect no_shear #
lump $-1 $-1 $39 $3 #
transform $-1 0.80901698891910034 0 0.5877852598018023 0 -1 0 0.5877852598018023 0 -0.80901698891910034 4.6566349983568855 38.660346409271817 15.408832335020302 1 rotate no_reflect no_shear #
lump $-1 $-1 $40 $4 #
transform $-1 0.83867056331134215 0 -0.54463904215088732 0 1 0 0.54463904215088732 0 0.83867056331134215 68.949509101274629 17.737083743191896 146.09932780057386 1 rotate no_reflect no_shear #
lump $-1 $-1 $41 $5 #
transform $-1 0.83867056331134215 0 -0.54463904215088732 0 -1 0 -0.54463904215088732 0 -0.83867056331134215 88.179629617700229 17.737083743191896 11.907426789488419 1 rotate no_reflect no_shear #
lump $-1 $-1 $42 $6 #
transform $-1 0.83867056331134215 0 -0.54463904215088732 0 1 0 0.54463904215088732 0 0.83867056331134215 68.949509101274629 31.460160692948037 146.09932780057386 1 rotate no_reflect no_shear #
lump $-1 $-1 $43 $7 #
transform $-1 0.83867056331134215 0 -0.54463904215088732 0 -1 0 -0.54463904215088732 0 -0.83867056331134215 88.179629617700229 31.460160692948037 11.907426789488419 1 rotate no_reflect no_shear #
lump $-1 $-1 $44 $8 #
transform $-1 0.83867056331134215 0 -0.54463904215088732 0 1 0 0.54463904215088732 0 0.83867056331134215 68.949509101274629 45.183237642704178 146.09932780057386 1 rotate no_reflect no_shear #
lump $-1 $-1 $45 $9 #
transform $-1 0.83867056331134215 0 -0.54463904215088732 0 -1 0 -0.54463904215088732 0 -0.83867056331134215 88.179629617700229 45.183237642704178 11.907426789488419 1 rotate no_reflect no_shear #
lump $-1 $-1 $46 $10 #
transform $-1 0.83867056331134215 0 -0.54463904215088732 0 1 0 0.54463904215088732 0 0.83867056331134215 68.949509101274629 58.906314592460319 146.09932780057386 1 rotate no_reflect no_shear #
lump $-1 $-1 $47 $11 #
transform $-1 0.83867056331134215 0 -0.54463904215088732 0 -1 0 -0.54463904215088732 0 -0.83867056331134215 88.179629617700229 58.906314592460319 11.907426789488419 1 rotate no_reflect no_shear #
shell $-1 $-1 $-1 $48 $-1 $12 #
shell $-1 $-1 $-1 $49 $-1 $14 #
shell $-1 $-1 $-1 $50 $-1 $16 #
shell $-1 $-1 $-1 $51 $-1 $18 #
shell $-1 $-1 $-1 $52 $-1 $20 #
shell $-1 $-1 $-1 $53 $-1 $22 #
shell $-1 $-1 $-1 $54 $-1 $24 #
shell $-1 $-1 $-1 $55 $-1 $26 #
shell $-1 $-1 $-1 $56 $-1 $28 #
shell $-1 $-1 $-1 $57 $-1 $30 #
shell $-1 $-1 $-1 $58 $-1 $32 #
shell $-1 $-1 $-1 $59 $-1 $34 #
face $-1 $60 $61 $36 $-1 $62 forward single #
face $-1 $63 $64 $37 $-1 $65 forward single #
face $-1 $66 $67 $38 $-1 $68 forward single #
face $-1 $69 $70 $39 $-1 $71 forward single #
face $-1 $72 $73 $40 $-1 $74 forward single #
face $-1 $75 $76 $41 $-1 $77 forward single #
face $-1 $78 $79 $42 $-1 $80 forward single #
face $-1 $81 $82 $43 $-1 $83 forward single #
face $-1 $84 $85 $44 $-1 $86 forward single #
face $-1 $87 $88 $45 $-1 $89 forward single #
face $-1 $90 $91 $46 $-1 $92 forward single #
face $-1 $93 $94 $47 $-1 $95 forward single #
face $-1 $96 $97 $36 $-1 $98 reversed single #
loop $-1 $-1 $99 $48 #
plane-surface $-1 0 0 10.101776501787782 0 0 1 1 0 0 forward_v I I I I #
face $-1 $100 $101 $37 $-1 $102 reversed single #
loop $-1 $-1 $103 $49 #
plane-surface $-1 0 0 10.101776501787782 0 0 1 1 0 0 forward_v I I I I #
face $-1 $104 $105 $38 $-1 $106 reversed single #
loop $-1 $-1 $107 $50 #
plane-surface $-1 0 0 97.66655476546525 0 0 1 1 0 0 forward_v I I I I #
face $-1 $108 $109 $39 $-1 $110 forward single #
loop $-1 $111 $112 $51 #
cone-surface $-1 0 0 -2.2226477858821365 0 0 1 1.5 0 0 1 I I 0 1 1.5 forward I I I I #
face $-1 $113 $114 $40 $-1 $115 reversed single #
loop $-1 $-1 $116 $52 #
plane-surface $-1 0 0 97.66655476546525 0 0 1 1 0 0 forward_v I I I I #
face $-1 $117 $118 $41 $-1 $119 forward single #
loop $-1 $120 $121 $53 #
cone-surface $-1 0 0 -2.451384014404737 0 0 1 1 0 0 1 I I 0 1 1 forward I I I I #
face $-1 $122 $123 $42 $-1 $124 reversed single #
loop $-1 $-1 $125 $54 #
plane-surface $-1 0 0 97.66655476546525 0 0 1 1 0 0 forward_v I I I I #
face $-1 $126 $127 $43 $-1 $128 forward single #
loop $-1 $129 $130 $55 #
cone-surface $-1 0 0 -2.451384014404737 0 0 1 1 0 0 1 I I 0 1 1 forward I I I I #
face $-1 $131 $132 $44 $-1 $133 reversed single #
loop $-1 $-1 $134 $56 #
plane-surface $-1 0 0 97.66655476546525 0 0 1 1 0 0 forward_v I I I I #
face $-1 $135 $136 $45 $-1 $137 forward single #
loop $-1 $138 $139 $57 #
cone-surface $-1 0 0 -2.451384014404737 0 0 1 1 0 0 1 I I 0 1 1 forward I I I I #
face $-1 $140 $141 $46 $-1 $142 reversed single #
loop $-1 $-1 $143 $58 #
plane-surface $-1 0 0 97.66655476546525 0 0 1 1 0 0 forward_v I I I I #
face $-1 $144 $145 $47 $-1 $146 forward single #
loop $-1 $147 $148 $59 #
cone-surface $-1 0 0 -2.451384014404737 0 0 1 1 0 0 1 I I 0 1 1 forward I I I I #
face $-1 $149 $150 $36 $-1 $151 reversed single #
loop $-1 $-1 $152 $60 #
plane-surface $-1 0 0 -10.101776501787782 0 0 1 1 0 0 forward_v I I I I #
coedge $-1 $153 $154 $155 $156 forward $61 $-1 #
face $-1 $157 $158 $37 $-1 $159 reversed single #
loop $-1 $-1 $160 $63 #
plane-surface $-1 0 0 -10.101776501787782 0 0 1 1 0 0 forward_v I I I I #
coedge $-1 $161 $162 $163 $164 forward $64 $-1 #
face $-1 $165 $166 $38 $-1 $167 reversed single #
loop $-1 $-1 $168 $66 #
plane-surface $-1 0 0 -97.66655476546525 0 0 1 1 0 0 forward_v I I I I #
coedge $-1 $169 $170 $171 $172 forward $67 $-1 #
face $-1 $-1 $173 $39 $-1 $174 forward single #
loop $-1 $-1 $175 $69 #
plane-surface $-1 0 0 -3.6952955717642739 0 0 -1 -1 0 0 forward_v I I I I #
loop $-1 $-1 $176 $51 #
coedge $-1 $112 $112 $175 $177 reversed $70 $-1 #
face $-1 $178 $179 $40 $-1 $180 reversed single #
loop $-1 $-1 $181 $72 #
plane-surface $-1 0 0 -97.66655476546525 0 0 1 1 0 0 forward_v I I I I #
coedge $-1 $182 $183 $184 $185 forward $73 $-1 #
face $-1 $-1 $186 $41 $-1 $187 forward single #
loop $-1 $-1 $188 $75 #
plane-surface $-1 0 0 -4.4027680288094739 0 0 -1 -1 0 0 forward_v I I I I #
loop $-1 $-1 $189 $53 #
coedge $-1 $121 $121 $188 $190 reversed $76 $-1 #
face $-1 $191 $192 $42 $-1 $193 reversed single #
loop $-1 $-1 $194 $78 #
plane-surface $-1 0 0 -97.66655476546525 0 0 1 1 0 0 forward_v I I I I #
coedge $-1 $195 $196 $197 $198 forward $79 $-1 #
face $-1 $-1 $199 $43 $-1 $200 forward single #
loop $-1 $-1 $201 $81 #
plane-surface $-1 0 0 -4.4027680288094739 0 0 -1 -1 0 0 forward_v I I I I #
loop $-1 $-1 $202 $55 #
coedge $-1 $130 $130 $201 $203 reversed $82 $-1 #
face $-1 $204 $205 $44 $-1 $206 reversed single #
loop $-1 $-1 $207 $84 #
plane-surface $-1 0 0 -97.66655476546525 0 0 1 1 0 0 forward_v I I I I #
coedge $-1 $208 $209 $210 $211 forward $85 $-1 #
face $-1 $-1 $212 $45 $-1 $213 forward single #
loop $-1 $-1 $214 $87 #
plane-surface $-1 0 0 -4.4027680288094739 0 0 -1 -1 0 0 forward_v I I I I #
loop $-1 $-1 $215 $57 #
coedge $-1 $139 $139 $214 $216 reversed $88 $-1 #
face $-1 $217 $218 $46 $-1 $219 reversed single #
loop $-1 $-1 $220 $90 #
plane-surface $-1 0 0 -97.66655476546525 0 0 1 1 0 0 forward_v I I I I #
coedge $-1 $221 $222 $223 $224 forward $91 $-1 #
face $-1 $-1 $225 $47 $-1 $226 forward single #
loop $-1 $-1 $227 $93 #
plane-surface $-1 0 0 -4.4027680288094739 0 0 -1 -1 0 0 forward_v I I I I #
loop $-1 $-1 $228 $59 #
coedge $-1 $148 $148 $227 $229 reversed $94 $-1 #
face $-1 $230 $231 $36 $-1 $232 reversed single #
loop $-1 $-1 $233 $96 #
plane-surface $-1 0 -32.73872811770736 0 0 1 0 0 0 1 forward_v I I I I #
coedge $-1 $234 $235 $236 $237 forward $97 $-1 #
coedge $-1 $238 $99 $239 $240 forward $61 $-1 #
coedge $-1 $99 $238 $241 $242 forward $61 $-1 #
coedge $-1 $243 $244 $99 $156 reversed $245 $-1 #
edge $-1 $246 -32.73872811770736 $247 32.73872811770736 $155 $248 forward 7 unknown #
face $-1 $249 $250 $37 $-1 $251 reversed single #
loop $-1 $-1 $252 $100 #
plane-surface $-1 0 -5.5829710501187382 0 0 1 0 0 0 1 forward_v I I I I #
coedge $-1 $253 $254 $255 $256 forward $101 $-1 #
coedge $-1 $257 $103 $258 $259 forward $64 $-1 #
coedge $-1 $103 $257 $260 $261 forward $64 $-1 #
coedge $-1 $262 $263 $103 $164 reversed $264 $-1 #
edge $-1 $265 -5.5829710501187382 $266 5.5829710501187382 $163 $267 forward 7 unknown #
face $-1 $268 $269 $38 $-1 $270 reversed single #
loop $-1 $-1 $271 $104 #
plane-surface $-1 0 -3.440582585295445 0 0 1 0 0 0 1 forward_v I I I I #
coedge $-1 $272 $273 $274 $275 forward $105 $-1 #
coedge $-1 $276 $107 $277 $278 forward $67 $-1 #
coedge $-1 $107 $276 $279 $280 forward $67 $-1 #
coedge $-1 $281 $282 $107 $172 reversed $283 $-1 #
edge $-1 $284 -3.440582585295445 $285 3.440582585295445 $171 $286 forward 7 unknown #
loop $-1 $287 $288 $108 #
cone-surface $-1 0 0 0 0 0 1 0.75 0 0 1 I I -0.70710678118654757 0.70710678118654757 0.75 forward I I I I #
coedge $-1 $175 $175 $112 $177 forward $109 $-1 #
coedge $-1 $176 $176 $288 $289 forward $111 $-1 #
edge $-1 $290 0 $290 6.2831853071796004 $175 $291 forward 7 unknown #
face $-1 $292 $293 $40 $-1 $294 reversed single #
loop $-1 $-1 $295 $113 #
plane-surface $-1 0 -4.3573351094292585 0 0 1 0 0 0 1 forward_v I I I I #
coedge $-1 $296 $297 $298 $299 forward $114 $-1 #
coedge $-1 $300 $116 $301 $302 forward $73 $-1 #
coedge $-1 $116 $300 $303 $304 forward $73 $-1 #
coedge $-1 $305 $306 $116 $185 reversed $307 $-1 #
edge $-1 $308 -4.3573351094292585 $309 4.3573351094292585 $184 $310 forward 7 unknown #
loop $-1 $311 $312 $117 #
cone-surface $-1 0 0 0 0 0 1 0.5 0 0 1 I I -0.70710678118654746 0.70710678118654746 0.5 forward I I I I #
coedge $-1 $188 $188 $121 $190 forward $118 $-1 #
coedge $-1 $189 $189 $312 $313 forward $120 $-1 #
edge $-1 $314 0 $314 6.2831853071796004 $188 $315 forward 7 unknown #
face $-1 $316 $317 $42 $-1 $318 reversed single #
loop $-1 $-1 $319 $122 #
plane-surface $-1 0 -4.3573351094292585 0 0 1 0 0 0 1 forward_v I I I I #
coedge $-1 $320 $321 $322 $323 forward $123 $-1 #
coedge $-1 $324 $125 $325 $326 forward $79 $-1 #
coedge $-1 $125 $324 $327 $328 forward $79 $-1 #
coedge $-1 $329 $330 $125 $198 reversed $331 $-1 #
edge $-1 $332 -4.3573351094292585 $333 4.3573351094292585 $197 $334 forward 7 unknown #
loop $-1 $335 $336 $126 #
cone-surface $-1 0 0 0 0 0 1 0.5 0 0 1 I I -0.70710678118654746 0.70710678118654746 0.5 forward I I I I #
coedge $-1 $201 $201 $130 $203 forward $127 $-1 #
coedge $-1 $202 $202 $336 $337 forward $129 $-1 #
edge $-1 $338 0 $338 6.2831853071796004 $201 $339 forward 7 unknown #
face $-1 $340 $341 $44 $-1 $342 reversed single #
loop $-1 $-1 $343 $131 #
plane-surface $-1 0 -4.3573351094292585 0 0 1 0 0 0 1 forward_v I I I I #
coedge $-1 $344 $345 $346 $347 forward $132 $-1 #
coedge $-1 $348 $134 $349 $350 forward $85 $-1 #
coedge $-1 $134 $348 $351 $352 forward $85 $-1 #
coedge $-1 $353 $354 $134 $211 reversed $355 $-1 #
edge $-1 $356 -4.3573351094292585 $357 4.3573351094292585 $210 $358 forward 7 unknown #
loop $-1 $359 $360 $135 #
cone-surface $-1 0 0 0 0 0 1 0.5 0 0 1 I I -0.70710678118654746 0.70710678118654746 0.5 forward I I I I #
coedge $-1 $214 $214 $139 $216 forward $136 $-1 #
coedge $-1 $215 $215 $360 $361 forward $138 $-1 #
edge $-1 $362 0 $362 6.2831853071796004 $214 $363 forward 7 unknown #
face $-1 $364 $365 $46 $-1 $366 reversed single #
loop $-1 $-1 $367 $140 #
plane-surface $-1 0 -4.3573351094292585 0 0 1 0 0 0 1 forward_v I I I I #
coedge $-1 $368 $369 $370 $371 forward $141 $-1 #
coedge $-1 $372 $143 $373 $374 forward $91 $-1 #
coedge $-1 $143 $372 $375 $376 forward $91 $-1 #
coedge $-1 $377 $378 $143 $224 reversed $379 $-1 #
edge $-1 $380 -4.3573351094292585 $381 4.3573351094292585 $223 $382 forward 7 unknown #
loop $-1 $383 $384 $144 #
cone-surface $-1 0 0 0 0 0 1 0.5 0 0 1 I I -0.70710678118654746 0.70710678118654746 0.5 forward I I I I #
coedge $-1 $227 $227 $148 $229 forward $145 $-1 #
coedge $-1 $228 $228 $384 $385 forward $147 $-1 #
edge $-1 $386 0 $386 6.2831853071796004 $227 $387 forward 7 unknown #
face $-1 $388 $389 $36 $-1 $390 reversed single #
loop $-1 $-1 $391 $149 #
plane-surface $-1 -48.833277382732625 0 0 1 0 0 0 0 -1 forward_v I I I I #
coedge $-1 $392 $241 $393 $394 forward $150 $-1 #
coedge $-1 $395 $152 $392 $396 forward $97 $-1 #
coedge $-1 $152 $395 $397 $398 forward $97 $-1 #
coedge $-1 $244 $243 $152 $237 reversed $245 $-1 #
edge $-1 $399 -32.73872811770736 $400 32.73872811770736 $236 $401 forward 7 unknown #
coedge $-1 $154 $153 $402 $403 forward $61 $-1 #
coedge $-1 $404 $405 $153 $240 reversed $389 $-1 #
edge $-1 $247 -48.833277382732625 $406 48.833277382732625 $239 $407 forward 7 unknown #
coedge $-1 $233 $408 $154 $242 reversed $150 $-1 #
edge $-1 $409 -48.833277382732625 $246 48.833277382732625 $241 $410 forward 7 unknown #
coedge $-1 $236 $155 $408 $411 forward $245 $-1 #
coedge $-1 $155 $236 $404 $412 reversed $245 $-1 #
loop $-1 $-1 $243 $388 #
vertex $-1 $156 $413 #
vertex $-1 $156 $414 #
straight-curve $-1 48.833277382732625 0 10.101776501787782 0 1 0 I I #
face $-1 $415 $416 $37 $-1 $417 reversed single #
loop $-1 $-1 $418 $157 #
plane-surface $-1 -1.5472208541985024 0 0 1 0 0 0 0 -1 forward_v I I I I #
coedge $-1 $419 $260 $420 $421 forward $158 $-1 #
coedge $-1 $422 $160 $419 $423 forward $101 $-1 #
coedge $-1 $160 $422 $424 $425 forward $101 $-1 #
coedge $-1 $263 $262 $160 $256 reversed $264 $-1 #
edge $-1 $426 -5.5829710501187382 $427 5.5829710501187382 $255 $428 forward 7 unknown #
coedge $-1 $162 $161 $429 $430 forward $64 $-1 #
coedge $-1 $431 $432 $161 $259 reversed $416 $-1 #
edge $-1 $266 -1.5472208541985024 $433 1.5472208541985024 $258 $434 forward 7 unknown #
coedge $-1 $252 $435 $162 $261 reversed $158 $-1 #
edge $-1 $436 -1.5472208541985024 $265 1.5472208541985024 $260 $437 forward 7 unknown #
coedge $-1 $255 $163 $435 $438 forward $264 $-1 #
coedge $-1 $163 $255 $431 $439 reversed $264 $-1 #
loop $-1 $-1 $262 $415 #
vertex $-1 $164 $440 #
vertex $-1 $164 $441 #
straight-curve $-1 1.5472208541985024 0 10.101776501787782 0 1 0 I I #
face $-1 $442 $443 $38 $-1 $444 reversed single #
loop $-1 $-1 $445 $165 #
plane-surface $-1 -195.3331095309305 0 0 1 0 0 0 0 -1 forward_v I I I I #
coedge $-1 $446 $279 $447 $448 forward $166 $-1 #
coedge $-1 $449 $168 $446 $450 forward $105 $-1 #
coedge $-1 $168 $449 $451 $452 forward $105 $-1 #
coedge $-1 $282 $281 $168 $275 reversed $283 $-1 #
edge $-1 $453 -3.440582585295445 $454 3.440582585295445 $274 $455 forward 7 unknown #
coedge $-1 $170 $169 $456 $457 forward $67 $-1 #
coedge $-1 $458 $459 $169 $278 reversed $443 $-1 #
edge $-1 $285 -195.3331095309305 $460 195.3331095309305 $277 $461 forward 7 unknown #
coedge $-1 $271 $462 $170 $280 reversed $166 $-1 #
edge $-1 $463 -195.3331095309305 $284 195.3331095309305 $279 $464 forward 7 unknown #
coedge $-1 $274 $171 $462 $465 forward $283 $-1 #
coedge $-1 $171 $274 $458 $466 reversed $283 $-1 #
loop $-1 $-1 $281 $442 #
vertex $-1 $172 $467 #
vertex $-1 $172 $468 #
straight-curve $-1 195.3331095309305 0 97.66655476546525 0 1 0 I I #
loop $-1 $-1 $469 $108 #
coedge $-1 $288 $288 $176 $289 reversed $173 $-1 #
edge $-1 $470 0 $470 6.2831853071796004 $288 $471 forward 7 unknown #
vertex $-1 $177 $472 #
ellipse-curve $-1 0 0 -3.6952955717642739 0 0 -1 1.5 0 0 1 I I #
face $-1 $473 $474 $40 $-1 $475 reversed single #
loop $-1 $-1 $476 $178 #
plane-surface $-1 -195.3331095309305 0 0 1 0 0 0 0 -1 forward_v I I I I #
coedge $-1 $477 $303 $478 $479 forward $179 $-1 #
coedge $-1 $480 $181 $477 $481 forward $114 $-1 #
coedge $-1 $181 $480 $482 $483 forward $114 $-1 #
coedge $-1 $306 $305 $181 $299 reversed $307 $-1 #
edge $-1 $484 -4.3573351094292585 $485 4.3573351094292585 $298 $486 forward 7 unknown #
coedge $-1 $183 $182 $487 $488 forward $73 $-1 #
coedge $-1 $489 $490 $182 $302 reversed $474 $-1 #
edge $-1 $309 -195.3331095309305 $491 195.3331095309305 $301 $492 forward 7 unknown #
coedge $-1 $295 $493 $183 $304 reversed $179 $-1 #
edge $-1 $494 -195.3331095309305 $308 195.3331095309305 $303 $495 forward 7 unknown #
coedge $-1 $298 $184 $493 $496 forward $307 $-1 #
coedge $-1 $184 $298 $489 $497 reversed $307 $-1 #
loop $-1 $-1 $305 $473 #
vertex $-1 $185 $498 #
vertex $-1 $185 $499 #
straight-curve $-1 195.3331095309305 0 97.66655476546525 0 1 0 I I #
loop $-1 $-1 $500 $117 #
coedge $-1 $312 $312 $189 $313 reversed $186 $-1 #
edge $-1 $501 0 $501 6.2831853071796004 $312 $502 forward 7 unknown #
vertex $-1 $190 $503 #
ellipse-curve $-1 0 0 -4.4027680288094739 0 0 -1 1 0 0 1 I I #
face $-1 $504 $505 $42 $-1 $506 reversed single #
loop $-1 $-1 $507 $191 #
plane-surface $-1 -195.3331095309305 0 0 1 0 0 0 0 -1 forward_v I I I I #
coedge $-1 $508 $327 $509 $510 forward $192 $-1 #
coedge $-1 $511 $194 $508 $512 forward $123 $-1 #
coedge $-1 $194 $511 $513 $514 forward $123 $-1 #
coedge $-1 $330 $329 $194 $323 reversed $331 $-1 #
edge $-1 $515 -4.3573351094292585 $516 4.3573351094292585 $322 $517 forward 7 unknown #
coedge $-1 $196 $195 $518 $519 forward $79 $-1 #
coedge $-1 $520 $521 $195 $326 reversed $505 $-1 #
edge $-1 $333 -195.3331095309305 $522 195.3331095309305 $325 $523 forward 7 unknown #
coedge $-1 $319 $524 $196 $328 reversed $192 $-1 #
edge $-1 $525 -195.3331095309305 $332 195.3331095309305 $327 $526 forward 7 unknown #
coedge $-1 $322 $197 $524 $527 forward $331 $-1 #
coedge $-1 $197 $322 $520 $528 reversed $331 $-1 #
loop $-1 $-1 $329 $504 #
vertex $-1 $198 $529 #
vertex $-1 $198 $530 #
straight-curve $-1 195.3331095309305 0 97.66655476546525 0 1 0 I I #
loop $-1 $-1 $531 $126 #
coedge $-1 $336 $336 $202 $337 reversed $199 $-1 #
edge $-1 $532 0 $532 6.2831853071796004 $336 $533 forward 7 unknown #
vertex $-1 $203 $534 #
ellipse-curve $-1 0 0 -4.4027680288094739 0 0 -1 1 0 0 1 I I #
face $-1 $535 $536 $44 $-1 $537 reversed single #
loop $-1 $-1 $538 $204 #
plane-surface $-1 -195.3331095309305 0 0 1 0 0 0 0 -1 forward_v I I I I #
coedge $-1 $539 $351 $540 $541 forward $205 $-1 #
coedge $-1 $542 $207 $539 $543 forward $132 $-1 #
coedge $-1 $207 $542 $544 $545 forward $132 $-1 #
coedge $-1 $354 $353 $207 $347 reversed $355 $-1 #
edge $-1 $546 -4.3573351094292585 $547 4.3573351094292585 $346 $548 forward 7 unknown #
coedge $-1 $209 $208 $549 $550 forward $85 $-1 #
coedge $-1 $551 $552 $208 $350 reversed $536 $-1 #
edge $-1 $357 -195.3331095309305 $553 195.3331095309305 $349 $554 forward 7 unknown #
coedge $-1 $343 $555 $209 $352 reversed $205 $-1 #
edge $-1 $556 -195.3331095309305 $356 195.3331095309305 $351 $557 forward 7 unknown #
coedge $-1 $346 $210 $555 $558 forward $355 $-1 #
coedge $-1 $210 $346 $551 $559 reversed $355 $-1 #
loop $-1 $-1 $353 $535 #
vertex $-1 $211 $560 #
vertex $-1 $211 $561 #
straight-curve $-1 195.3331095309305 0 97.66655476546525 0 1 0 I I #
loop $-1 $-1 $562 $135 #
coedge $-1 $360 $360 $215 $361 reversed $212 $-1 #
edge $-1 $563 0 $563 6.2831853071796004 $360 $564 forward 7 unknown #
vertex $-1 $216 $565 #
ellipse-curve $-1 0 0 -4.4027680288094739 0 0 -1 1 0 0 1 I I #
face $-1 $566 $567 $46 $-1 $568 reversed single #
loop $-1 $-1 $569 $217 #
plane-surface $-1 -195.3331095309305 0 0 1 0 0 0 0 -1 forward_v I I I I #
coedge $-1 $570 $375 $571 $572 forward $218 $-1 #
coedge $-1 $573 $220 $570 $574 forward $141 $-1 #
coedge $-1 $220 $573 $575 $576 forward $141 $-1 #
coedge $-1 $378 $377 $220 $371 reversed $379 $-1 #
edge $-1 $577 -4.3573351094292585 $578 4.3573351094292585 $370 $579 forward 7 unknown #
coedge $-1 $222 $221 $580 $581 forward $91 $-1 #
coedge $-1 $582 $583 $221 $374 reversed $567 $-1 #
edge $-1 $381 -195.3331095309305 $584 195.3331095309305 $373 $585 forward 7 unknown #
coedge $-1 $367 $586 $222 $376 reversed $218 $-1 #
edge $-1 $587 -195.3331095309305 $380 195.3331095309305 $375 $588 forward 7 unknown #
coedge $-1 $370 $223 $586 $589 forward $379 $-1 #
coedge $-1 $223 $370 $582 $590 reversed $379 $-1 #
loop $-1 $-1 $377 $566 #
vertex $-1 $224 $591 #
vertex $-1 $224 $592 #
straight-curve $-1 195.3331095309305 0 97.66655476546525 0 1 0 I I #
loop $-1 $-1 $593 $144 #
coedge $-1 $384 $384 $228 $385 reversed $225 $-1 #
edge $-1 $594 0 $594 6.2831853071796004 $384 $595 forward 7 unknown #
vertex $-1 $229 $596 #
ellipse-curve $-1 0 0 -4.4027680288094739 0 0 -1 1 0 0 1 I I #
face $-1 $-1 $245 $36 $-1 $597 reversed single #
loop $-1 $-1 $404 $230 #
plane-surface $-1 0 32.73872811770736 0 0 -1 0 0 0 -1 forward_v I I I I #
coedge $-1 $598 $402 $405 $599 forward $231 $-1 #
coedge $-1 $408 $233 $234 $396 reversed $150 $-1 #
coedge $-1 $402 $598 $233 $394 reversed $231 $-1 #
edge $-1 $409 -10.101776501787782 $600 10.101776501787782 $393 $601 forward 7 unknown #
coedge $-1 $235 $234 $598 $602 forward $97 $-1 #
edge $-1 $400 -48.833277382732625 $600 48.833277382732625 $392 $603 forward 7 unknown #
coedge $-1 $405 $404 $235 $398 reversed $389 $-1 #
edge $-1 $604 -48.833277382732625 $399 48.833277382732625 $397 $605 forward 7 unknown #
vertex $-1 $237 $606 #
vertex $-1 $411 $607 #
straight-curve $-1 48.833277382732625 0 -10.101776501787782 0 -1 0 I I #
coedge $-1 $391 $393 $238 $403 reversed $231 $-1 #
edge $-1 $406 -32.73872811770736 $409 32.73872811770736 $402 $608 forward 7 unknown #
coedge $-1 $397 $239 $244 $412 forward $389 $-1 #
coedge $-1 $239 $397 $391 $599 reversed $389 $-1 #
vertex $-1 $240 $609 #
straight-curve $-1 0 32.73872811770736 10.101776501787782 -1 0 0 I I #
coedge $-1 $241 $392 $243 $411 reversed $150 $-1 #
vertex $-1 $403 $610 #
straight-curve $-1 0 -32.73872811770736 10.101776501787782 1 0 0 I I #
edge $-1 $246 -10.101776501787782 $400 10.101776501787782 $243 $611 forward 7 unknown #
edge $-1 $247 -10.101776501787782 $399 10.101776501787782 $244 $612 forward 7 unknown #
point $-1 48.833277382732625 -32.73872811770736 10.101776501787782 #
point $-1 48.833277382732625 32.73872811770736 10.101776501787782 #
face $-1 $-1 $264 $37 $-1 $613 reversed single #
loop $-1 $-1 $431 $249 #
plane-surface $-1 0 5.5829710501187382 0 0 -1 0 0 0 -1 forward_v I I I I #
coedge $-1 $614 $429 $432 $615 forward $250 $-1 #
coedge $-1 $435 $252 $253 $423 reversed $158 $-1 #
coedge $-1 $429 $614 $252 $421 reversed $250 $-1 #
edge $-1 $436 -10.101776501787782 $616 10.101776501787782 $420 $617 forward 7 unknown #
coedge $-1 $254 $253 $614 $618 forward $101 $-1 #
edge $-1 $427 -1.5472208541985024 $616 1.5472208541985024 $419 $619 forward 7 unknown #
coedge $-1 $432 $431 $254 $425 reversed $416 $-1 #
edge $-1 $620 -1.5472208541985024 $426 1.5472208541985024 $424 $621 forward 7 unknown #
vertex $-1 $256 $622 #
vertex $-1 $438 $623 #
straight-curve $-1 1.5472208541985024 0 -10.101776501787782 0 -1 0 I I #
coedge $-1 $418 $420 $257 $430 reversed $250 $-1 #
edge $-1 $433 -5.5829710501187382 $436 5.5829710501187382 $429 $624 forward 7 unknown #
coedge $-1 $424 $258 $263 $439 forward $416 $-1 #
coedge $-1 $258 $424 $418 $615 reversed $416 $-1 #
vertex $-1 $259 $625 #
straight-curve $-1 0 5.5829710501187382 10.101776501787782 -1 0 0 I I #
coedge $-1 $260 $419 $262 $438 reversed $158 $-1 #
vertex $-1 $430 $626 #
straight-curve $-1 0 -5.5829710501187382 10.101776501787782 1 0 0 I I #
edge $-1 $265 -10.101776501787782 $427 10.101776501787782 $262 $627 forward 7 unknown #
edge $-1 $266 -10.101776501787782 $426 10.101776501787782 $263 $628 forward 7 unknown #
point $-1 1.5472208541985024 -5.5829710501187382 10.101776501787782 #
point $-1 1.5472208541985024 5.5829710501187382 10.101776501787782 #
face $-1 $-1 $283 $38 $-1 $629 reversed single #
loop $-1 $-1 $458 $268 #
plane-surface $-1 0 3.440582585295445 0 0 -1 0 0 0 -1 forward_v I I I I #
coedge $-1 $630 $456 $459 $631 forward $269 $-1 #
coedge $-1 $462 $271 $272 $450 reversed $166 $-1 #
coedge $-1 $456 $630 $271 $448 reversed $269 $-1 #
edge $-1 $463 -97.66655476546525 $632 97.66655476546525 $447 $633 forward 7 unknown #
coedge $-1 $273 $272 $630 $634 forward $105 $-1 #
edge $-1 $454 -195.3331095309305 $632 195.3331095309305 $446 $635 forward 7 unknown #
coedge $-1 $459 $458 $273 $452 reversed $443 $-1 #
edge $-1 $636 -195.3331095309305 $453 195.3331095309305 $451 $637 forward 7 unknown #
vertex $-1 $275 $638 #
vertex $-1 $465 $639 #
straight-curve $-1 195.3331095309305 0 -97.66655476546525 0 -1 0 I I #
coedge $-1 $445 $447 $276 $457 reversed $269 $-1 #
edge $-1 $460 -3.440582585295445 $463 3.440582585295445 $456 $640 forward 7 unknown #
coedge $-1 $451 $277 $282 $466 forward $443 $-1 #
coedge $-1 $277 $451 $445 $631 reversed $443 $-1 #
vertex $-1 $278 $641 #
straight-curve $-1 0 3.440582585295445 97.66655476546525 -1 0 0 I I #
coedge $-1 $279 $446 $281 $465 reversed $166 $-1 #
vertex $-1 $457 $642 #
straight-curve $-1 0 -3.440582585295445 97.66655476546525 1 0 0 I I #
edge $-1 $284 -97.66655476546525 $454 97.66655476546525 $281 $643 forward 7 unknown #
edge $-1 $285 -97.66655476546525 $453 97.66655476546525 $282 $644 forward 7 unknown #
point $-1 195.3331095309305 -3.440582585295445 97.66655476546525 #
point $-1 195.3331095309305 3.440582585295445 97.66655476546525 #
coedge $-1 $469 $469 $-1 $645 reversed $287 $-1 #
vertex $-1 $289 $646 #
ellipse-curve $-1 0 0 -0.75 0 0 -1 1.5 0 0 1 I I #
point $-1 1.5 0 -3.6952955717642739 #
face $-1 $-1 $307 $40 $-1 $647 reversed single #
loop $-1 $-1 $489 $292 #
plane-surface $-1 0 4.3573351094292585 0 0 -1 0 0 0 -1 forward_v I I I I #
coedge $-1 $648 $487 $490 $649 forward $293 $-1 #
coedge $-1 $493 $295 $296 $481 reversed $179 $-1 #
coedge $-1 $487 $648 $295 $479 reversed $293 $-1 #
edge $-1 $494 -97.66655476546525 $650 97.66655476546525 $478 $651 forward 7 unknown #
coedge $-1 $297 $296 $648 $652 forward $114 $-1 #
edge $-1 $485 -195.3331095309305 $650 195.3331095309305 $477 $653 forward 7 unknown #
coedge $-1 $490 $489 $297 $483 reversed $474 $-1 #
edge $-1 $654 -195.3331095309305 $484 195.3331095309305 $482 $655 forward 7 unknown #
vertex $-1 $299 $656 #
vertex $-1 $496 $657 #
straight-curve $-1 195.3331095309305 0 -97.66655476546525 0 -1 0 I I #
coedge $-1 $476 $478 $300 $488 reversed $293 $-1 #
edge $-1 $491 -4.3573351094292585 $494 4.3573351094292585 $487 $658 forward 7 unknown #
coedge $-1 $482 $301 $306 $497 forward $474 $-1 #
coedge $-1 $301 $482 $476 $649 reversed $474 $-1 #
vertex $-1 $302 $659 #
straight-curve $-1 0 4.3573351094292585 97.66655476546525 -1 0 0 I I #
coedge $-1 $303 $477 $305 $496 reversed $179 $-1 #
vertex $-1 $488 $660 #
straight-curve $-1 0 -4.3573351094292585 97.66655476546525 1 0 0 I I #
edge $-1 $308 -97.66655476546525 $485 97.66655476546525 $305 $661 forward 7 unknown #
edge $-1 $309 -97.66655476546525 $484 97.66655476546525 $306 $662 forward 7 unknown #
point $-1 195.3331095309305 -4.3573351094292585 97.66655476546525 #
point $-1 195.3331095309305 4.3573351094292585 97.66655476546525 #
coedge $-1 $500 $500 $-1 $663 reversed $311 $-1 #
vertex $-1 $313 $664 #
ellipse-curve $-1 0 0 -0.5 0 0 -1 1 0 0 1 I I #
point $-1 1 0 -4.4027680288094739 #
face $-1 $-1 $331 $42 $-1 $665 reversed single #
loop $-1 $-1 $520 $316 #
plane-surface $-1 0 4.3573351094292585 0 0 -1 0 0 0 -1 forward_v I I I I #
coedge $-1 $666 $518 $521 $667 forward $317 $-1 #
coedge $-1 $524 $319 $320 $512 reversed $192 $-1 #
coedge $-1 $518 $666 $319 $510 reversed $317 $-1 #
edge $-1 $525 -97.66655476546525 $668 97.66655476546525 $509 $669 forward 7 unknown #
coedge $-1 $321 $320 $666 $670 forward $123 $-1 #
edge $-1 $516 -195.3331095309305 $668 195.3331095309305 $508 $671 forward 7 unknown #
coedge $-1 $521 $520 $321 $514 reversed $505 $-1 #
edge $-1 $672 -195.3331095309305 $515 195.3331095309305 $513 $673 forward 7 unknown #
vertex $-1 $323 $674 #
vertex $-1 $527 $675 #
straight-curve $-1 195.3331095309305 0 -97.66655476546525 0 -1 0 I I #
coedge $-1 $507 $509 $324 $519 reversed $317 $-1 #
edge $-1 $522 -4.3573351094292585 $525 4.3573351094292585 $518 $676 forward 7 unknown #
coedge $-1 $513 $325 $330 $528 forward $505 $-1 #
coedge $-1 $325 $513 $507 $667 reversed $505 $-1 #
vertex $-1 $326 $677 #
straight-curve $-1 0 4.3573351094292585 97.66655476546525 -1 0 0 I I #
coedge $-1 $327 $508 $329 $527 reversed $192 $-1 #
vertex $-1 $519 $678 #
straight-curve $-1 0 -4.3573351094292585 97.66655476546525 1 0 0 I I #
edge $-1 $332 -97.66655476546525 $516 97.66655476546525 $329 $679 forward 7 unknown #
edge $-1 $333 -97.66655476546525 $515 97.66655476546525 $330 $680 forward 7 unknown #
point $-1 195.3331095309305 -4.3573351094292585 97.66655476546525 #
point $-1 195.3331095309305 4.3573351094292585 97.66655476546525 #
coedge $-1 $531 $531 $-1 $681 reversed $335 $-1 #
vertex $-1 $337 $682 #
ellipse-curve $-1 0 0 -0.5 0 0 -1 1 0 0 1 I I #
point $-1 1 0 -4.4027680288094739 #
face $-1 $-1 $355 $44 $-1 $683 reversed single #
loop $-1 $-1 $551 $340 #
plane-surface $-1 0 4.3573351094292585 0 0 -1 0 0 0 -1 forward_v I I I I #
coedge $-1 $684 $549 $552 $685 forward $341 $-1 #
coedge $-1 $555 $343 $344 $543 reversed $205 $-1 #
coedge $-1 $549 $684 $343 $541 reversed $341 $-1 #
edge $-1 $556 -97.66655476546525 $686 97.66655476546525 $540 $687 forward 7 unknown #
coedge $-1 $345 $344 $684 $688 forward $132 $-1 #
edge $-1 $547 -195.3331095309305 $686 195.3331095309305 $539 $689 forward 7 unknown #
coedge $-1 $552 $551 $345 $545 reversed $536 $-1 #
edge $-1 $690 -195.3331095309305 $546 195.3331095309305 $544 $691 forward 7 unknown #
vertex $-1 $347 $692 #
vertex $-1 $558 $693 #
straight-curve $-1 195.3331095309305 0 -97.66655476546525 0 -1 0 I I #
coedge $-1 $538 $540 $348 $550 reversed $341 $-1 #
edge $-1 $553 -4.3573351094292585 $556 4.3573351094292585 $549 $694 forward 7 unknown #
coedge $-1 $544 $349 $354 $559 forward $536 $-1 #
coedge $-1 $349 $544 $538 $685 reversed $536 $-1 #
vertex $-1 $350 $695 #
straight-curve $-1 0 4.3573351094292585 97.66655476546525 -1 0 0 I I #
coedge $-1 $351 $539 $353 $558 reversed $205 $-1 #
vertex $-1 $550 $696 #
straight-curve $-1 0 -4.3573351094292585 97.66655476546525 1 0 0 I I #
edge $-1 $356 -97.66655476546525 $547 97.66655476546525 $353 $697 forward 7 unknown #
edge $-1 $357 -97.66655476546525 $546 97.66655476546525 $354 $698 forward 7 unknown #
point $-1 195.3331095309305 -4.3573351094292585 97.66655476546525 #
point $-1 195.3331095309305 4.3573351094292585 97.66655476546525 #
coedge $-1 $562 $562 $-1 $699 reversed $359 $-1 #
vertex $-1 $361 $700 #
ellipse-curve $-1 0 0 -0.5 0 0 -1 1 0 0 1 I I #
point $-1 1 0 -4.4027680288094739 #
face $-1 $-1 $379 $46 $-1 $701 reversed single #
loop $-1 $-1 $582 $364 #
plane-surface $-1 0 4.3573351094292585 0 0 -1 0 0 0 -1 forward_v I I I I #
coedge $-1 $702 $580 $583 $703 forward $365 $-1 #
coedge $-1 $586 $367 $368 $574 reversed $218 $-1 #
coedge $-1 $580 $702 $367 $572 reversed $365 $-1 #
edge $-1 $587 -97.66655476546525 $704 97.66655476546525 $571 $705 forward 7 unknown #
coedge $-1 $369 $368 $702 $706 forward $141 $-1 #
edge $-1 $578 -195.3331095309305 $704 195.3331095309305 $570 $707 forward 7 unknown #
coedge $-1 $583 $582 $369 $576 reversed $567 $-1 #
edge $-1 $708 -195.3331095309305 $577 195.3331095309305 $575 $709 forward 7 unknown #
vertex $-1 $371 $710 #
vertex $-1 $589 $711 #
straight-curve $-1 195.3331095309305 0 -97.66655476546525 0 -1 0 I I #
coedge $-1 $569 $571 $372 $581 reversed $365 $-1 #
edge $-1 $584 -4.3573351094292585 $587 4.3573351094292585 $580 $712 forward 7 unknown #
coedge $-1 $575 $373 $378 $590 forward $567 $-1 #
coedge $-1 $373 $575 $569 $703 reversed $567 $-1 #
vertex $-1 $374 $713 #
straight-curve $-1 0 4.3573351094292585 97.66655476546525 -1 0 0 I I #
coedge $-1 $375 $570 $377 $589 reversed $218 $-1 #
vertex $-1 $581 $714 #
straight-curve $-1 0 -4.3573351094292585 97.66655476546525 1 0 0 I I #
edge $-1 $380 -97.66655476546525 $578 97.66655476546525 $377 $715 forward 7 unknown #
edge $-1 $381 -97.66655476546525 $577 97.66655476546525 $378 $716 forward 7 unknown #
point $-1 195.3331095309305 -4.3573351094292585 97.66655476546525 #
point $-1 195.3331095309305 4.3573351094292585 97.66655476546525 #
coedge $-1 $593 $593 $-1 $717 reversed $383 $-1 #
vertex $-1 $385 $718 #
ellipse-curve $-1 0 0 -0.5 0 0 -1 1 0 0 1 I I #
point $-1 1 0 -4.4027680288094739 #
plane-surface $-1 48.833277382732625 0 0 -1 0 0 0 0 1 forward_v I I I I #
coedge $-1 $393 $391 $395 $602 reversed $231 $-1 #
edge $-1 $406 -10.101776501787782 $604 10.101776501787782 $405 $719 forward 7 unknown #
vertex $-1 $602 $720 #
straight-curve $-1 -48.833277382732625 -32.73872811770736 0 0 0 -1 I I #
edge $-1 $600 -32.73872811770736 $604 32.73872811770736 $598 $721 forward 7 unknown #
straight-curve $-1 0 -32.73872811770736 -10.101776501787782 -1 0 0 I I #
vertex $-1 $398 $722 #
straight-curve $-1 0 32.73872811770736 -10.101776501787782 1 0 0 I I #
point $-1 48.833277382732625 32.73872811770736 -10.101776501787782 #
point $-1 48.833277382732625 -32.73872811770736 -10.101776501787782 #
straight-curve $-1 -48.833277382732625 0 10.101776501787782 0 -1 0 I I #
point $-1 -48.833277382732625 32.73872811770736 10.101776501787782 #
point $-1 -48.833277382732625 -32.73872811770736 10.101776501787782 #
straight-curve $-1 48.833277382732625 -32.73872811770736 0 0 0 -1 I I #
straight-curve $-1 48.833277382732625 32.73872811770736 0 0 0 -1 I I #
plane-surface $-1 1.5472208541985024 0 0 -1 0 0 0 0 1 forward_v I I I I #
coedge $-1 $420 $418 $422 $618 reversed $250 $-1 #
edge $-1 $433 -10.101776501787782 $620 10.101776501787782 $432 $723 forward 7 unknown #
vertex $-1 $618 $724 #
straight-curve $-1 -1.5472208541985024 -5.5829710501187382 0 0 0 -1 I I #
edge $-1 $616 -5.5829710501187382 $620 5.5829710501187382 $614 $725 forward 7 unknown #
straight-curve $-1 0 -5.5829710501187382 -10.101776501787782 -1 0 0 I I #
vertex $-1 $425 $726 #
straight-curve $-1 0 5.5829710501187382 -10.101776501787782 1 0 0 I I #
point $-1 1.5472208541985024 5.5829710501187382 -10.101776501787782 #
point $-1 1.5472208541985024 -5.5829710501187382 -10.101776501787782 #
straight-curve $-1 -1.5472208541985024 0 10.101776501787782 0 -1 0 I I #
point $-1 -1.5472208541985024 5.5829710501187382 10.101776501787782 #
point $-1 -1.5472208541985024 -5.5829710501187382 10.101776501787782 #
straight-curve $-1 1.5472208541985024 -5.5829710501187382 0 0 0 -1 I I #
straight-curve $-1 1.5472208541985024 5.5829710501187382 0 0 0 -1 I I #
plane-surface $-1 195.3331095309305 0 0 -1 0 0 0 0 1 forward_v I I I I #
coedge $-1 $447 $445 $449 $634 reversed $269 $-1 #
edge $-1 $460 -97.66655476546525 $636 97.66655476546525 $459 $727 forward 7 unknown #
vertex $-1 $634 $728 #
straight-curve $-1 -195.3331095309305 -3.440582585295445 0 0 0 -1 I I #
edge $-1 $632 -3.440582585295445 $636 3.440582585295445 $630 $729 forward 7 unknown #
straight-curve $-1 0 -3.440582585295445 -97.66655476546525 -1 0 0 I I #
vertex $-1 $452 $730 #
straight-curve $-1 0 3.440582585295445 -97.66655476546525 1 0 0 I I #
point $-1 195.3331095309305 3.440582585295445 -97.66655476546525 #
point $-1 195.3331095309305 -3.440582585295445 -97.66655476546525 #
straight-curve $-1 -195.3331095309305 0 97.66655476546525 0 -1 0 I I #
point $-1 -195.3331095309305 3.440582585295445 97.66655476546525 #
point $-1 -195.3331095309305 -3.440582585295445 97.66655476546525 #
straight-curve $-1 195.3331095309305 -3.440582585295445 0 0 0 -1 I I #
straight-curve $-1 195.3331095309305 3.440582585295445 0 0 0 -1 I I #
edge $-1 $731 1 $731 0 $469 $-1 forward 7 unknown #
point $-1 1.5 0 -0.75 #
plane-surface $-1 195.3331095309305 0 0 -1 0 0 0 0 1 forward_v I I I I #
coedge $-1 $478 $476 $480 $652 reversed $293 $-1 #
edge $-1 $491 -97.66655476546525 $654 97.66655476546525 $490 $732 forward 7 unknown #
vertex $-1 $652 $733 #
straight-curve $-1 -195.3331095309305 -4.3573351094292585 0 0 0 -1 I I #
edge $-1 $650 -4.3573351094292585 $654 4.3573351094292585 $648 $734 forward 7 unknown #
straight-curve $-1 0 -4.3573351094292585 -97.66655476546525 -1 0 0 I I #
vertex $-1 $483 $735 #
straight-curve $-1 0 4.3573351094292585 -97.66655476546525 1 0 0 I I #
point $-1 195.3331095309305 4.3573351094292585 -97.66655476546525 #
point $-1 195.3331095309305 -4.3573351094292585 -97.66655476546525 #
straight-curve $-1 -195.3331095309305 0 97.66655476546525 0 -1 0 I I #
point $-1 -195.3331095309305 4.3573351094292585 97.66655476546525 #
point $-1 -195.3331095309305 -4.3573351094292585 97.66655476546525 #
straight-curve $-1 195.3331095309305 -4.3573351094292585 0 0 0 -1 I I #
straight-curve $-1 195.3331095309305 4.3573351094292585 0 0 0 -1 I I #
edge $-1 $736 1 $736 0 $500 $-1 forward 7 unknown #
point $-1 1 0 -0.5 #
plane-surface $-1 195.3331095309305 0 0 -1 0 0 0 0 1 forward_v I I I I #
coedge $-1 $509 $507 $511 $670 reversed $317 $-1 #
edge $-1 $522 -97.66655476546525 $672 97.66655476546525 $521 $737 forward 7 unknown #
vertex $-1 $670 $738 #
straight-curve $-1 -195.3331095309305 -4.3573351094292585 0 0 0 -1 I I #
edge $-1 $668 -4.3573351094292585 $672 4.3573351094292585 $666 $739 forward 7 unknown #
straight-curve $-1 0 -4.3573351094292585 -97.66655476546525 -1 0 0 I I #
vertex $-1 $514 $740 #
straight-curve $-1 0 4.3573351094292585 -97.66655476546525 1 0 0 I I #
point $-1 195.3331095309305 4.3573351094292585 -97.66655476546525 #
point $-1 195.3331095309305 -4.3573351094292585 -97.66655476546525 #
straight-curve $-1 -195.3331095309305 0 97.66655476546525 0 -1 0 I I #
point $-1 -195.3331095309305 4.3573351094292585 97.66655476546525 #
point $-1 -195.3331095309305 -4.3573351094292585 97.66655476546525 #
straight-curve $-1 195.3331095309305 -4.3573351094292585 0 0 0 -1 I I #
straight-curve $-1 195.3331095309305 4.3573351094292585 0 0 0 -1 I I #
edge $-1 $741 1 $741 0 $531 $-1 forward 7 unknown #
point $-1 1 0 -0.5 #
plane-surface $-1 195.3331095309305 0 0 -1 0 0 0 0 1 forward_v I I I I #
coedge $-1 $540 $538 $542 $688 reversed $341 $-1 #
edge $-1 $553 -97.66655476546525 $690 97.66655476546525 $552 $742 forward 7 unknown #
vertex $-1 $688 $743 #
straight-curve $-1 -195.3331095309305 -4.3573351094292585 0 0 0 -1 I I #
edge $-1 $686 -4.3573351094292585 $690 4.3573351094292585 $684 $744 forward 7 unknown #
straight-curve $-1 0 -4.3573351094292585 -97.66655476546525 -1 0 0 I I #
vertex $-1 $545 $745 #
straight-curve $-1 0 4.3573351094292585 -97.66655476546525 1 0 0 I I #
point $-1 195.3331095309305 4.3573351094292585 -97.66655476546525 #
point $-1 195.3331095309305 -4.3573351094292585 -97.66655476546525 #
straight-curve $-1 -195.3331095309305 0 97.66655476546525 0 -1 0 I I #
point $-1 -195.3331095309305 4.3573351094292585 97.66655476546525 #
point $-1 -195.3331095309305 -4.3573351094292585 97.66655476546525 #
straight-curve $-1 195.3331095309305 -4.3573351094292585 0 0 0 -1 I I #
straight-curve $-1 195.3331095309305 4.3573351094292585 0 0 0 -1 I I #
edge $-1 $746 1 $746 0 $562 $-1 forward 7 unknown #
point $-1 1 0 -0.5 #
plane-surface $-1 195.3331095309305 0 0 -1 0 0 0 0 1 forward_v I I I I #
coedge $-1 $571 $569 $573 $706 reversed $365 $-1 #
edge $-1 $584 -97.66655476546525 $708 97.66655476546525 $583 $747 forward 7 unknown #
vertex $-1 $706 $748 #
straight-curve $-1 -195.3331095309305 -4.3573351094292585 0 0 0 -1 I I #
edge $-1 $704 -4.3573351094292585 $708 4.3573351094292585 $702 $749 forward 7 unknown #
straight-curve $-1 0 -4.3573351094292585 -97.66655476546525 -1 0 0 I I #
vertex $-1 $576 $750 #
straight-curve $-1 0 4.3573351094292585 -97.66655476546525 1 0 0 I I #
point $-1 195.3331095309305 4.3573351094292585 -97.66655476546525 #
point $-1 195.3331095309305 -4.3573351094292585 -97.66655476546525 #
straight-curve $-1 -195.3331095309305 0 97.66655476546525 0 -1 0 I I #
point $-1 -195.3331095309305 4.3573351094292585 97.66655476546525 #
point $-1 -195.3331095309305 -4.3573351094292585 97.66655476546525 #
straight-curve $-1 195.3331095309305 -4.3573351094292585 0 0 0 -1 I I #
straight-curve $-1 195.3331095309305 4.3573351094292585 0 0 0 -1 I I #
edge $-1 $751 1 $751 0 $593 $-1 forward 7 unknown #
point $-1 1 0 -0.5 #
straight-curve $-1 -48.833277382732625 32.73872811770736 0 0 0 -1 I I #
point $-1 -48.833277382732625 -32.73872811770736 -10.101776501787782 #
straight-curve $-1 -48.833277382732625 0 -10.101776501787782 0 1 0 I I #
point $-1 -48.833277382732625 32.73872811770736 -10.101776501787782 #
straight-curve $-1 -1.5472208541985024 5.5829710501187382 0 0 0 -1 I I #
point $-1 -1.5472208541985024 -5.5829710501187382 -10.101776501787782 #
straight-curve $-1 -1.5472208541985024 0 -10.101776501787782 0 1 0 I I #
point $-1 -1.5472208541985024 5.5829710501187382 -10.101776501787782 #
straight-curve $-1 -195.3331095309305 3.440582585295445 0 0 0 -1 I I #
point $-1 -195.3331095309305 -3.440582585295445 -97.66655476546525 #
straight-curve $-1 -195.3331095309305 0 -97.66655476546525 0 1 0 I I #
point $-1 -195.3331095309305 3.440582585295445 -97.66655476546525 #
vertex $-1 $645 $752 #
straight-curve $-1 -195.3331095309305 4.3573351094292585 0 0 0 -1 I I #
point $-1 -195.3331095309305 -4.3573351094292585 -97.66655476546525 #
straight-curve $-1 -195.3331095309305 0 -97.66655476546525 0 1 0 I I #
point $-1 -195.3331095309305 4.3573351094292585 -97.66655476546525 #
vertex $-1 $663 $753 #
straight-curve $-1 -195.3331095309305 4.3573351094292585 0 0 0 -1 I I #
point $-1 -195.3331095309305 -4.3573351094292585 -97.66655476546525 #
straight-curve $-1 -195.3331095309305 0 -97.66655476546525 0 1 0 I I #
point $-1 -195.3331095309305 4.3573351094292585 -97.66655476546525 #
vertex $-1 $681 $754 #
straight-curve $-1 -195.3331095309305 4.3573351094292585 0 0 0 -1 I I #
point $-1 -195.3331095309305 -4.3573351094292585 -97.66655476546525 #
straight-curve $-1 -195.3331095309305 0 -97.66655476546525 0 1 0 I I #
point $-1 -195.3331095309305 4.3573351094292585 -97.66655476546525 #
vertex $-1 $699 $755 #
straight-curve $-1 -195.3331095309305 4.3573351094292585 0 0 0 -1 I I #
point $-1 -195.3331095309305 -4.3573351094292585 -97.66655476546525 #
straight-curve $-1 -195.3331095309305 0 -97.66655476546525 0 1 0 I I #
point $-1 -195.3331095309305 4.3573351094292585 -97.66655476546525 #
vertex $-1 $717 $756 #
point $-1 0 0 0.75 #
point $-1 0 0 0.5 #
point $-1 0 0 0.5 #
point $-1 0 0 0.5 #
point $-1 0 0 0.5 #
End-of-ACIS-data 