500 0 14 0           
7 Unknown 11 ACIS 5.0 NT 24 Thu Mar 25 19:00:26 1999 
-1 9.9999999999999995e-007 1e-010 
body $-1 $14 $-1 $15 #
body $-1 $16 $-1 $17 #
body $-1 $18 $-1 $19 #
body $-1 $20 $-1 $21 #
body $-1 $22 $-1 $23 #
body $-1 $24 $-1 $25 #
body $-1 $26 $-1 $27 #
body $-1 $28 $-1 $29 #
body $-1 $30 $-1 $31 #
body $-1 $32 $-1 $33 #
body $-1 $34 $-1 $35 #
body $-1 $36 $-1 $37 #
body $-1 $38 $-1 $39 #
body $-1 $40 $-1 $41 #
lump $-1 $-1 $42 $0 #
transform $-1 1 0 0 0 1 0 0 0 1 49.162877285073399 20.420441066478652 9.4305955515759212 1 rotate no_reflect no_shear #
lump $-1 $-1 $43 $1 #
transform $-1 1 0 0 0 1 0 0 0 1 49.162877285073399 20.420441066478652 9.4305955515759212 1 rotate no_reflect no_shear #
lump $-1 $-1 $44 $2 #
transform $-1 1 0 0 0 1 0 0 0 1 49.162877285073399 20.420441066478652 9.4305955515759212 1 rotate no_reflect no_shear #
lump $-1 $-1 $45 $3 #
transform $-1 1 0 0 0 1 0 0 0 1 49.162877285073399 20.420441066478652 9.4305955515759212 1 rotate no_reflect no_shear #
lump $-1 $-1 $46 $4 #
transform $-1 1 0 0 0 1 0 0 0 1 49.162877285073399 20.420441066478652 9.4305955515759212 1 rotate no_reflect no_shear #
lump $-1 $-1 $47 $5 #
transform $-1 1 0 0 0 1 0 0 0 1 49.162877285073399 20.420441066478652 9.4305955515759212 1 rotate no_reflect no_shear #
lump $-1 $-1 $48 $6 #
transform $-1 1 0 0 0 1 0 0 0 1 49.162877285073399 20.420441066478652 9.4305955515759212 1 rotate no_reflect no_shear #
lump $-1 $-1 $49 $7 #
transform $-1 1 0 0 0 1 0 0 0 1 49.162877285073399 20.420441066478652 9.4305955515759212 1 rotate no_reflect no_shear #
lump $-1 $-1 $50 $8 #
transform $-1 1 0 0 0 1 0 0 0 1 49.162877285073399 20.420441066478652 9.4305955515759212 1 rotate no_reflect no_shear #
lump $-1 $-1 $51 $9 #
transform $-1 1 0 0 0 1 0 0 0 1 49.162877285073399 20.420441066478652 9.4305955515759212 1 rotate no_reflect no_shear #
lump $-1 $-1 $52 $10 #
transform $-1 1 0 0 0 1 0 0 0 1 49.162877285073399 20.420441066478652 9.4305955515759212 1 rotate no_reflect no_shear #
lump $-1 $-1 $53 $11 #
transform $-1 1 0 0 0 1 0 0 0 1 49.162877285073399 20.420441066478652 9.4305955515759212 1 rotate no_reflect no_shear #
lump $-1 $-1 $54 $12 #
transform $-1 1 0 0 0 1 0 0 0 1 49.162877285073399 20.420441066478652 9.4305955515759212 1 rotate no_reflect no_shear #
lump $-1 $-1 $55 $13 #
transform $-1 1 0 0 0 1 0 0 0 1 49.162877285073399 20.420441066478652 9.4305955515759212 1 rotate no_reflect no_shear #
shell $-1 $-1 $-1 $56 $-1 $14 #
shell $-1 $-1 $-1 $57 $-1 $16 #
shell $-1 $-1 $-1 $58 $-1 $18 #
shell $-1 $-1 $-1 $59 $-1 $20 #
shell $-1 $-1 $-1 $60 $-1 $22 #
shell $-1 $-1 $-1 $61 $-1 $24 #
shell $-1 $-1 $-1 $62 $-1 $26 #
shell $-1 $-1 $-1 $63 $-1 $28 #
shell $-1 $-1 $-1 $64 $-1 $30 #
shell $-1 $-1 $-1 $65 $-1 $32 #
shell $-1 $-1 $-1 $66 $-1 $34 #
shell $-1 $-1 $-1 $67 $-1 $36 #
shell $-1 $-1 $-1 $68 $-1 $38 #
shell $-1 $-1 $-1 $69 $-1 $40 #
face $-1 $70 $71 $42 $-1 $72 forward single #
face $-1 $73 $74 $43 $-1 $75 forward single #
face $-1 $76 $77 $44 $-1 $78 forward single #
face $-1 $79 $80 $45 $-1 $81 reversed single #
face $-1 $82 $83 $46 $-1 $84 forward single #
face $-1 $85 $86 $47 $-1 $87 reversed single #
face $-1 $88 $89 $48 $-1 $90 forward single #
face $-1 $91 $92 $49 $-1 $93 reversed single #
face $-1 $94 $95 $50 $-1 $96 forward single #
face $-1 $97 $98 $51 $-1 $99 reversed single #
face $-1 $100 $101 $52 $-1 $102 forward single #
face $-1 $103 $104 $53 $-1 $105 reversed single #
face $-1 $106 $107 $54 $-1 $108 forward single #
face $-1 $109 $110 $55 $-1 $111 forward single #
face $-1 $112 $113 $42 $-1 $114 reversed single #
loop $-1 $-1 $115 $56 #
plane-surface $-1 0 0 9.4305955515759212 0 0 1 1 0 0 forward_v I I I I #
face $-1 $116 $117 $43 $-1 $118 reversed single #
loop $-1 $-1 $119 $57 #
plane-surface $-1 -44.560693699283924 0 6.496813327161143 0 0 1 1 0 0 forward_v I I I I #
face $-1 $120 $121 $44 $-1 $122 reversed single #
loop $-1 $-1 $123 $58 #
plane-surface $-1 44.560693699283924 0 6.496813327161143 0 0 1 1 0 0 forward_v I I I I #
face $-1 $124 $125 $45 $-1 $126 reversed single #
loop $-1 $-1 $127 $59 #
plane-surface $-1 -35.51038267081266 -89.947249695002 72.547324491092056 1 0 0 0 0.70710678939079041 -0.70710677298230451 forward_v I I I I #
face $-1 $128 $129 $46 $-1 $130 forward single #
loop $-1 $131 $132 $60 #
cone-surface $-1 -29.663095488405133 -16.512605887735095 5.5227603147675612 0 0.70710678939079041 -0.70710677298230451 1.5 0 0 1 I I 0 1 1.5 forward I I I I #
face $-1 $133 $134 $47 $-1 $135 reversed single #
loop $-1 $-1 $136 $61 #
plane-surface $-1 -15.734985678542568 -89.947249695002 72.547324491092056 1 0 0 0 0.70710678939079041 -0.70710677298230451 forward_v I I I I #
face $-1 $137 $138 $48 $-1 $139 forward single #
loop $-1 $140 $141 $62 #
cone-surface $-1 -9.8876984961350445 -16.512605887735095 5.5227603147675612 0 0.70710678939079041 -0.70710677298230451 1.5 0 0 1 I I 0 1 1.5 forward I I I I #
face $-1 $142 $143 $49 $-1 $144 reversed single #
loop $-1 $-1 $145 $63 #
plane-surface $-1 4.0404113137275202 -89.947249695002 72.547324491092056 1 0 0 0 0.70710678939079041 -0.70710677298230451 forward_v I I I I #
face $-1 $146 $147 $50 $-1 $148 forward single #
loop $-1 $149 $150 $64 #
cone-surface $-1 9.8876984961350445 -16.512605887735095 5.5227603147675612 0 0.70710678939079041 -0.70710677298230451 1.5 0 0 1 I I 0 1 1.5 forward I I I I #
face $-1 $151 $152 $51 $-1 $153 reversed single #
loop $-1 $-1 $154 $65 #
plane-surface $-1 23.815808305997603 -89.947249695002 72.547324491092056 1 0 0 0 0.70710678939079041 -0.70710677298230451 forward_v I I I I #
face $-1 $155 $156 $52 $-1 $157 forward single #
loop $-1 $158 $159 $66 #
cone-surface $-1 29.663095488405126 -16.512605887735095 5.5227603147675612 0 0.70710678939079041 -0.70710677298230451 1.5 0 0 1 I I 0 1 1.5 forward I I I I #
face $-1 $160 $161 $53 $-1 $162 reversed single #
loop $-1 $-1 $163 $67 #
plane-surface $-1 -10.108695608337094 72.75803651978427 98.249604485962536 -1 0 0 0 0.78801076186113728 0.61566146476048833 forward_v I I I I #
face $-1 $164 $165 $54 $-1 $166 forward single #
loop $-1 $167 $168 $68 #
cone-surface $-1 -20.360118109322755 17.771585886297064 6.6014894059918339 0 -0.78801076186113728 -0.61566146476048833 1 0 0 1 I I 0 1 1 forward I I I I #
face $-1 $169 $170 $55 $-1 $171 forward single #
loop $-1 $172 $173 $69 #
cone-surface $-1 -14.20926460873136 17.771585886297064 6.6014894059918339 0 -0.78801076186113728 -0.61566146476048833 1 0 0 1 I I 0 1 1 forward I I I I #
face $-1 $174 $175 $42 $-1 $176 reversed single #
loop $-1 $-1 $177 $70 #
plane-surface $-1 0 0 -9.4305955515759212 0 0 1 1 0 0 forward_v I I I I #
coedge $-1 $178 $179 $180 $181 forward $71 $-1 #
face $-1 $182 $183 $43 $-1 $184 reversed single #
loop $-1 $-1 $185 $73 #
plane-surface $-1 -44.560693699283924 0 1.0337047532635095 0 0 1 1 0 0 forward_v I I I I #
coedge $-1 $186 $187 $188 $189 forward $74 $-1 #
face $-1 $190 $191 $44 $-1 $192 reversed single #
loop $-1 $-1 $193 $76 #
plane-surface $-1 44.560693699283924 0 1.0337047532635095 0 0 1 1 0 0 forward_v I I I I #
coedge $-1 $194 $195 $196 $197 reversed $77 $-1 #
face $-1 $198 $199 $45 $-1 $200 reversed single #
loop $-1 $-1 $201 $79 #
plane-surface $-1 -29.663095488405133 -20.420441066478659 3.0205174759454678 0 -0.70710678939079041 0.70710677298230451 1 0 0 forward_v I I I I #
coedge $-1 $202 $203 $204 $205 reversed $80 $-1 #
face $-1 $-1 $206 $46 $-1 $207 forward single #
loop $-1 $208 $209 $82 #
cone-surface $-1 -29.663095488405133 -15.279479580390412 4.2896340360377003 0 0.70710678939079041 -0.70710677298230451 0.75 0 0 1 I I -0.70710678118654757 0.70710678118654757 0.75 forward I I I I #
loop $-1 $-1 $210 $60 #
coedge $-1 $132 $132 $211 $212 reversed $83 $-1 #
face $-1 $213 $214 $47 $-1 $215 reversed single #
loop $-1 $-1 $216 $85 #
plane-surface $-1 -9.8876984961350445 -20.420441066478659 3.0205174759454678 0 -0.70710678939079041 0.70710677298230451 1 0 0 forward_v I I I I #
coedge $-1 $217 $218 $219 $220 reversed $86 $-1 #
face $-1 $-1 $221 $48 $-1 $222 forward single #
loop $-1 $223 $224 $88 #
cone-surface $-1 -9.8876984961350445 -15.279479580390412 4.2896340360377003 0 0.70710678939079041 -0.70710677298230451 0.75 0 0 1 I I -0.70710678118654757 0.70710678118654757 0.75 forward I I I I #
loop $-1 $-1 $225 $62 #
coedge $-1 $141 $141 $226 $227 reversed $89 $-1 #
face $-1 $228 $229 $49 $-1 $230 reversed single #
loop $-1 $-1 $231 $91 #
plane-surface $-1 9.8876984961350445 -20.420441066478659 3.0205174759454678 0 -0.70710678939079041 0.70710677298230451 1 0 0 forward_v I I I I #
coedge $-1 $232 $233 $234 $235 reversed $92 $-1 #
face $-1 $-1 $236 $50 $-1 $237 forward single #
loop $-1 $238 $239 $94 #
cone-surface $-1 9.8876984961350445 -15.279479580390412 4.2896340360377003 0 0.70710678939079041 -0.70710677298230451 0.75 0 0 1 I I -0.70710678118654757 0.70710678118654757 0.75 forward I I I I #
loop $-1 $-1 $240 $64 #
coedge $-1 $150 $150 $241 $242 reversed $95 $-1 #
face $-1 $243 $244 $51 $-1 $245 reversed single #
loop $-1 $-1 $246 $97 #
plane-surface $-1 29.663095488405126 -20.420441066478659 3.0205174759454678 0 -0.70710678939079041 0.70710677298230451 1 0 0 forward_v I I I I #
coedge $-1 $247 $248 $249 $250 reversed $98 $-1 #
face $-1 $-1 $251 $52 $-1 $252 forward single #
loop $-1 $253 $254 $100 #
cone-surface $-1 29.663095488405126 -15.279479580390412 4.2896340360377003 0 0.70710678939079041 -0.70710677298230451 0.75 0 0 1 I I -0.70710678118654757 0.70710678118654757 0.75 forward I I I I #
loop $-1 $-1 $255 $66 #
coedge $-1 $159 $159 $256 $257 reversed $101 $-1 #
face $-1 $258 $259 $53 $-1 $260 reversed single #
loop $-1 $-1 $261 $103 #
plane-surface $-1 -17.284691359027057 -4.7237162496083158 37.71422640362568 0 0.78801076186113728 0.61566146476048833 1 0 0 forward_v I I I I #
coedge $-1 $262 $263 $264 $265 reversed $104 $-1 #
face $-1 $-1 $266 $54 $-1 $267 forward single #
loop $-1 $268 $269 $106 #
cone-surface $-1 -20.360118109322755 16.25200716350524 5.4142644243389224 0 -0.78801076186113728 -0.61566146476048833 0.5 0 0 1 I I -0.70710678118654746 0.70710678118654746 0.5 forward I I I I #
loop $-1 $-1 $270 $68 #
coedge $-1 $168 $168 $271 $272 reversed $107 $-1 #
face $-1 $-1 $273 $55 $-1 $274 forward single #
loop $-1 $275 $276 $109 #
cone-surface $-1 -14.20926460873136 16.25200716350524 5.4142644243389224 0 -0.78801076186113728 -0.61566146476048833 0.5 0 0 1 I I -0.70710678118654746 0.70710678118654746 0.5 forward I I I I #
loop $-1 $-1 $277 $69 #
coedge $-1 $173 $173 $278 $279 reversed $110 $-1 #
face $-1 $280 $281 $42 $-1 $282 reversed single #
loop $-1 $-1 $283 $112 #
plane-surface $-1 0 -20.420441066478652 0 0 1 0 0 0 1 forward_v I I I I #
coedge $-1 $284 $285 $286 $287 forward $113 $-1 #
coedge $-1 $288 $115 $289 $290 forward $71 $-1 #
coedge $-1 $115 $288 $291 $292 forward $71 $-1 #
coedge $-1 $293 $294 $115 $181 reversed $295 $-1 #
edge $-1 $296 -20.420441066478652 $297 20.420441066478652 $180 $298 forward 7 unknown #
face $-1 $299 $300 $43 $-1 $301 reversed single #
loop $-1 $-1 $302 $116 #
plane-surface $-1 -39.958510113494448 0 3.7652590402123263 -1 0 0 0 0 1 forward_v I I I I #
coedge $-1 $303 $304 $305 $306 forward $117 $-1 #
coedge $-1 $307 $119 $308 $309 reversed $74 $-1 #
coedge $-1 $119 $307 $310 $311 reversed $74 $-1 #
coedge $-1 $302 $312 $119 $189 reversed $183 $-1 #
edge $-1 $313 -20.420441066478652 $314 20.420441066478652 $188 $315 forward 7 unknown #
face $-1 $316 $317 $44 $-1 $318 reversed single #
loop $-1 $-1 $319 $120 #
plane-surface $-1 39.958510113494448 0 3.7652590402123263 1 0 0 0 0 -1 forward_v I I I I #
coedge $-1 $320 $321 $322 $323 reversed $121 $-1 #
coedge $-1 $324 $123 $325 $326 reversed $77 $-1 #
coedge $-1 $123 $324 $327 $328 reversed $77 $-1 #
coedge $-1 $329 $330 $123 $197 forward $331 $-1 #
edge $-1 $332 -20.420441066478652 $333 20.420441066478652 $196 $334 forward 7 unknown #
face $-1 $335 $336 $45 $-1 $337 forward single #
loop $-1 $-1 $338 $124 #
plane-surface $-1 -23.81580830599761 -89.947249695002 72.547324491092056 -1 0 0 0 -0.70710678939079041 0.70710677298230451 forward_v I I I I #
coedge $-1 $339 $340 $341 $342 reversed $125 $-1 #
coedge $-1 $203 $127 $343 $344 reversed $80 $-1 #
coedge $-1 $127 $202 $339 $345 reversed $80 $-1 #
coedge $-1 $341 $346 $127 $205 forward $347 $-1 #
edge $-1 $348 26.843066693970108 $349 33.253144769600553 $204 $350 forward 7 unknown #
loop $-1 $-1 $211 $128 #
plane-surface $-1 -29.663095488405133 -20.420441066478659 3.0205174759454678 0 -0.70710678939079041 0.70710677298230451 1 0 0 forward_v I I I I #
loop $-1 $-1 $351 $82 #
coedge $-1 $209 $209 $210 $352 reversed $129 $-1 #
coedge $-1 $210 $210 $209 $352 forward $131 $-1 #
coedge $-1 $211 $211 $132 $212 forward $206 $-1 #
edge $-1 $353 8.3738257662091889e-016 $353 6.2831853071796013 $211 $354 forward 7 unknown #
face $-1 $355 $356 $47 $-1 $357 reversed single #
loop $-1 $-1 $358 $133 #
plane-surface $-1 -4.0404113137275202 -89.947249695002 72.547324491092056 -1 0 0 0 -0.70710678939079041 0.70710677298230451 forward_v I I I I #
coedge $-1 $359 $360 $361 $362 reversed $134 $-1 #
coedge $-1 $218 $136 $363 $364 reversed $86 $-1 #
coedge $-1 $136 $217 $359 $365 reversed $86 $-1 #
coedge $-1 $361 $366 $136 $220 forward $356 $-1 #
edge $-1 $367 26.843066693970108 $368 33.253144769600553 $219 $369 forward 7 unknown #
loop $-1 $-1 $226 $137 #
plane-surface $-1 -9.8876984961350445 -20.420441066478659 3.0205174759454678 0 -0.70710678939079041 0.70710677298230451 1 0 0 forward_v I I I I #
loop $-1 $-1 $370 $88 #
coedge $-1 $224 $224 $225 $371 reversed $138 $-1 #
coedge $-1 $225 $225 $224 $371 forward $140 $-1 #
coedge $-1 $226 $226 $141 $227 forward $221 $-1 #
edge $-1 $372 8.3738257662091889e-016 $372 6.2831853071796013 $226 $373 forward 7 unknown #
face $-1 $374 $375 $49 $-1 $376 reversed single #
loop $-1 $-1 $377 $142 #
plane-surface $-1 15.734985678542568 -89.947249695002 72.547324491092056 -1 0 0 0 -0.70710678939079041 0.70710677298230451 forward_v I I I I #
coedge $-1 $378 $379 $380 $381 reversed $143 $-1 #
coedge $-1 $233 $145 $382 $383 reversed $92 $-1 #
coedge $-1 $145 $232 $378 $384 reversed $92 $-1 #
coedge $-1 $380 $385 $145 $235 forward $375 $-1 #
edge $-1 $386 26.843066693970108 $387 33.253144769600553 $234 $388 forward 7 unknown #
loop $-1 $-1 $241 $146 #
plane-surface $-1 9.8876984961350445 -20.420441066478659 3.0205174759454678 0 -0.70710678939079041 0.70710677298230451 1 0 0 forward_v I I I I #
loop $-1 $-1 $389 $94 #
coedge $-1 $239 $239 $240 $390 reversed $147 $-1 #
coedge $-1 $240 $240 $239 $390 forward $149 $-1 #
coedge $-1 $241 $241 $150 $242 forward $236 $-1 #
edge $-1 $391 8.3738257662091889e-016 $391 6.2831853071796013 $241 $392 forward 7 unknown #
face $-1 $393 $394 $51 $-1 $395 reversed single #
loop $-1 $-1 $396 $151 #
plane-surface $-1 35.510382670812653 -89.947249695002 72.547324491092056 -1 0 0 0 -0.70710678939079041 0.70710677298230451 forward_v I I I I #
coedge $-1 $397 $398 $399 $400 reversed $152 $-1 #
coedge $-1 $248 $154 $401 $402 reversed $98 $-1 #
coedge $-1 $154 $247 $397 $403 reversed $98 $-1 #
coedge $-1 $399 $404 $154 $250 forward $394 $-1 #
edge $-1 $405 26.843066693970108 $406 33.253144769600553 $249 $407 forward 7 unknown #
loop $-1 $-1 $256 $155 #
plane-surface $-1 29.663095488405126 -20.420441066478659 3.0205174759454678 0 -0.70710678939079041 0.70710677298230451 1 0 0 forward_v I I I I #
loop $-1 $-1 $408 $100 #
coedge $-1 $254 $254 $255 $409 reversed $156 $-1 #
coedge $-1 $255 $255 $254 $409 forward $158 $-1 #
coedge $-1 $256 $256 $159 $257 forward $251 $-1 #
edge $-1 $410 8.3738257662091889e-016 $410 6.2831853071796013 $256 $411 forward 7 unknown #
face $-1 $412 $413 $53 $-1 $414 reversed single #
loop $-1 $-1 $415 $160 #
plane-surface $-1 -24.460687109717021 72.75803651978427 98.249604485962536 1 0 0 0 -0.78801076186113728 -0.61566146476048833 forward_v I I I I #
coedge $-1 $416 $417 $418 $419 reversed $161 $-1 #
coedge $-1 $263 $163 $420 $421 reversed $104 $-1 #
coedge $-1 $163 $262 $416 $422 reversed $104 $-1 #
coedge $-1 $418 $423 $163 $265 forward $413 $-1 #
edge $-1 $424 39.694206691405348 $425 43.593630484028203 $264 $426 forward 7 unknown #
loop $-1 $-1 $271 $164 #
plane-surface $-1 -17.284691359027057 -4.7237162496083158 37.71422640362568 0 0.78801076186113728 0.61566146476048833 1 0 0 forward_v I I I I #
loop $-1 $-1 $427 $106 #
coedge $-1 $269 $269 $270 $428 reversed $165 $-1 #
coedge $-1 $270 $270 $269 $428 forward $167 $-1 #
coedge $-1 $271 $271 $168 $272 forward $266 $-1 #
edge $-1 $429 -1.3122018585176435e-015 $429 6.2831853071795996 $271 $430 forward 7 unknown #
loop $-1 $-1 $278 $169 #
plane-surface $-1 -17.284691359027057 -4.7237162496083158 37.71422640362568 0 0.78801076186113728 0.61566146476048833 1 0 0 forward_v I I I I #
loop $-1 $-1 $431 $109 #
coedge $-1 $276 $276 $277 $432 reversed $170 $-1 #
coedge $-1 $277 $277 $276 $432 forward $172 $-1 #
coedge $-1 $278 $278 $173 $279 forward $273 $-1 #
edge $-1 $433 -1.3122018585176435e-015 $433 6.2831853071795996 $278 $434 forward 7 unknown #
face $-1 $435 $436 $42 $-1 $437 reversed single #
loop $-1 $-1 $438 $174 #
plane-surface $-1 -49.162877285073399 0 0 1 0 0 0 0 -1 forward_v I I I I #
coedge $-1 $439 $291 $440 $441 forward $175 $-1 #
coedge $-1 $442 $177 $439 $443 forward $113 $-1 #
coedge $-1 $177 $442 $444 $445 forward $113 $-1 #
coedge $-1 $294 $293 $177 $287 reversed $295 $-1 #
edge $-1 $446 -20.420441066478652 $447 20.420441066478652 $286 $448 forward 7 unknown #
coedge $-1 $179 $178 $449 $450 forward $71 $-1 #
coedge $-1 $451 $452 $178 $290 reversed $436 $-1 #
edge $-1 $297 -49.162877285073399 $453 49.162877285073399 $289 $454 forward 7 unknown #
coedge $-1 $283 $455 $179 $292 reversed $175 $-1 #
edge $-1 $456 -49.162877285073399 $296 49.162877285073399 $291 $457 forward 7 unknown #
coedge $-1 $286 $180 $455 $458 forward $295 $-1 #
coedge $-1 $180 $286 $451 $459 reversed $295 $-1 #
loop $-1 $-1 $293 $435 #
vertex $-1 $181 $460 #
vertex $-1 $181 $461 #
straight-curve $-1 49.162877285073399 0 9.4305955515759212 0 1 0 I I #
face $-1 $462 $463 $43 $-1 $464 reversed single #
loop $-1 $-1 $465 $182 #
plane-surface $-1 0 -20.420441066478652 0 0 1 0 0 0 1 forward_v I I I I #
coedge $-1 $305 $188 $466 $467 reversed $183 $-1 #
coedge $-1 $468 $185 $465 $469 reversed $117 $-1 #
coedge $-1 $185 $468 $470 $471 reversed $117 $-1 #
coedge $-1 $312 $302 $185 $306 reversed $183 $-1 #
edge $-1 $472 -20.420441066478652 $473 20.420441066478652 $305 $474 forward 7 unknown #
coedge $-1 $187 $186 $475 $476 reversed $74 $-1 #
coedge $-1 $477 $478 $186 $309 forward $479 $-1 #
edge $-1 $480 -26.882530435431438 $314 -17.678163263852486 $308 $481 forward 7 unknown #
coedge $-1 $482 $466 $187 $311 forward $300 $-1 #
edge $-1 $313 17.678163263852486 $483 26.882530435431438 $310 $484 forward 7 unknown #
coedge $-1 $188 $305 $477 $485 reversed $183 $-1 #
vertex $-1 $311 $486 #
vertex $-1 $309 $487 #
straight-curve $-1 -39.958510113494448 0 6.496813327161143 0 1 0 I I #
face $-1 $488 $489 $44 $-1 $490 reversed single #
loop $-1 $-1 $327 $190 #
plane-surface $-1 0 -20.420441066478652 0 0 1 0 0 0 1 forward_v I I I I #
coedge $-1 $491 $492 $493 $494 reversed $191 $-1 #
coedge $-1 $495 $193 $496 $497 reversed $121 $-1 #
coedge $-1 $193 $495 $498 $499 reversed $121 $-1 #
coedge $-1 $330 $329 $193 $323 forward $331 $-1 #
edge $-1 $500 -20.420441066478652 $501 20.420441066478652 $322 $502 forward 7 unknown #
coedge $-1 $195 $194 $492 $503 forward $77 $-1 #
coedge $-1 $504 $493 $194 $326 forward $489 $-1 #
edge $-1 $505 17.678163263852486 $332 26.882530435431438 $325 $506 forward 7 unknown #
coedge $-1 $507 $508 $195 $328 forward $317 $-1 #
edge $-1 $333 -26.882530435431438 $509 -17.678163263852486 $327 $510 forward 7 unknown #
coedge $-1 $322 $196 $508 $511 forward $331 $-1 #
coedge $-1 $196 $322 $504 $512 reversed $331 $-1 #
loop $-1 $-1 $196 $488 #
vertex $-1 $512 $513 #
vertex $-1 $511 $514 #
straight-curve $-1 49.162877285073399 0 6.496813327161143 0 -1 0 I I #
face $-1 $-1 $347 $45 $-1 $515 reversed single #
loop $-1 $-1 $516 $198 #
plane-surface $-1 0 0 9.4305955515759212 0 0 1 1 0 0 forward_v I I I I #
coedge $-1 $517 $518 $519 $520 reversed $199 $-1 #
coedge $-1 $521 $201 $203 $345 forward $125 $-1 #
coedge $-1 $201 $521 $517 $522 forward $125 $-1 #
coedge $-1 $519 $204 $201 $342 forward $347 $-1 #
edge $-1 $349 -20.678834926610094 $523 -8.9842605617950433 $341 $524 forward 7 unknown #
coedge $-1 $525 $526 $202 $344 forward $336 $-1 #
edge $-1 $527 -30.96326170790627 $348 -24.553183781022348 $343 $528 forward 7 unknown #
edge $-1 $349 1.0048591735576163e-014 $527 9.065219245247345 $203 $529 forward 7 unknown #
coedge $-1 $204 $519 $525 $530 reversed $347 $-1 #
loop $-1 $-1 $519 $335 #
vertex $-1 $530 $531 #
vertex $-1 $205 $532 #
straight-curve $-1 -35.51038267081266 -20.420441066478652 36.273662245546028 0 0 -1 I I #
coedge $-1 $351 $351 $-1 $533 reversed $208 $-1 #
edge $-1 $534 0 $534 6.2831853071796004 $209 $535 forward 7 unknown #
vertex $-1 $212 $536 #
ellipse-curve $-1 -29.663095488405133 -17.215402103036691 6.2255565137606981 0 -0.70710678939079041 0.70710677298230451 1.5 0 0 1 I I #
face $-1 $-1 $537 $47 $-1 $538 forward single #
loop $-1 $-1 $219 $213 #
plane-surface $-1 0 -20.420441066478652 0 0 1 0 0 0 1 forward_v I I I I #
coedge $-1 $539 $540 $541 $542 reversed $214 $-1 #
coedge $-1 $543 $216 $218 $365 forward $134 $-1 #
coedge $-1 $216 $543 $539 $544 forward $134 $-1 #
coedge $-1 $541 $219 $216 $362 forward $356 $-1 #
edge $-1 $368 -10.791136430475046 $545 0.90343793434000208 $361 $546 forward 7 unknown #
coedge $-1 $547 $548 $217 $364 forward $537 $-1 #
edge $-1 $549 -30.96326170790627 $367 -24.553183781022348 $363 $550 forward 7 unknown #
edge $-1 $368 1.0048591735576163e-014 $549 9.065219245247345 $218 $551 forward 7 unknown #
coedge $-1 $219 $541 $547 $552 reversed $356 $-1 #
vertex $-1 $552 $553 #
vertex $-1 $220 $554 #
straight-curve $-1 -15.734985678542568 -20.420441066478652 36.273662245546028 0 0 -1 I I #
coedge $-1 $370 $370 $-1 $555 reversed $223 $-1 #
edge $-1 $556 0 $556 6.2831853071796004 $224 $557 forward 7 unknown #
vertex $-1 $227 $558 #
ellipse-curve $-1 -9.8876984961350445 -17.215402103036691 6.2255565137606981 0 -0.70710678939079041 0.70710677298230451 1.5 0 0 1 I I #
face $-1 $-1 $559 $49 $-1 $560 forward single #
loop $-1 $-1 $234 $228 #
plane-surface $-1 0 -20.420441066478652 0 0 1 0 0 0 1 forward_v I I I I #
coedge $-1 $561 $562 $563 $564 reversed $229 $-1 #
coedge $-1 $565 $231 $233 $384 forward $143 $-1 #
coedge $-1 $231 $565 $561 $566 forward $143 $-1 #
coedge $-1 $563 $234 $231 $381 forward $375 $-1 #
edge $-1 $387 -0.90343793434000208 $567 10.791136430475046 $380 $568 forward 7 unknown #
coedge $-1 $569 $570 $232 $383 forward $559 $-1 #
edge $-1 $571 -30.96326170790627 $386 -24.553183781022348 $382 $572 forward 7 unknown #
edge $-1 $387 1.0048591735576163e-014 $571 9.065219245247345 $233 $573 forward 7 unknown #
coedge $-1 $234 $563 $569 $574 reversed $375 $-1 #
vertex $-1 $574 $575 #
vertex $-1 $235 $576 #
straight-curve $-1 4.0404113137275202 -20.420441066478652 36.273662245546028 0 0 -1 I I #
coedge $-1 $389 $389 $-1 $577 reversed $238 $-1 #
edge $-1 $578 0 $578 6.2831853071796004 $239 $579 forward 7 unknown #
vertex $-1 $242 $580 #
ellipse-curve $-1 9.8876984961350445 -17.215402103036691 6.2255565137606981 0 -0.70710678939079041 0.70710677298230451 1.5 0 0 1 I I #
face $-1 $-1 $581 $51 $-1 $582 forward single #
loop $-1 $-1 $249 $243 #
plane-surface $-1 0 -20.420441066478652 0 0 1 0 0 0 1 forward_v I I I I #
coedge $-1 $583 $584 $585 $586 reversed $244 $-1 #
coedge $-1 $587 $246 $248 $403 forward $152 $-1 #
coedge $-1 $246 $587 $583 $588 forward $152 $-1 #
coedge $-1 $585 $249 $246 $400 forward $394 $-1 #
edge $-1 $406 8.9842605617950397 $589 20.67883492661009 $399 $590 forward 7 unknown #
coedge $-1 $591 $592 $247 $402 forward $581 $-1 #
edge $-1 $593 -30.96326170790627 $405 -24.553183781022348 $401 $594 forward 7 unknown #
edge $-1 $406 1.0048591735576163e-014 $593 9.065219245247345 $248 $595 forward 7 unknown #
coedge $-1 $249 $585 $591 $596 reversed $394 $-1 #
vertex $-1 $596 $597 #
vertex $-1 $250 $598 #
straight-curve $-1 23.815808305997603 -20.420441066478652 36.273662245546028 0 0 -1 I I #
coedge $-1 $408 $408 $-1 $599 reversed $253 $-1 #
edge $-1 $600 0 $600 6.2831853071796004 $254 $601 forward 7 unknown #
vertex $-1 $257 $602 #
ellipse-curve $-1 29.663095488405126 -17.215402103036691 6.2255565137606981 0 -0.70710678939079041 0.70710677298230451 1.5 0 0 1 I I #
face $-1 $-1 $603 $53 $-1 $604 forward single #
loop $-1 $-1 $264 $258 #
plane-surface $-1 0 20.420441066478652 0 0 -1 0 0 0 -1 forward_v I I I I #
coedge $-1 $605 $606 $607 $608 reversed $259 $-1 #
coedge $-1 $609 $261 $263 $422 forward $161 $-1 #
coedge $-1 $261 $609 $605 $610 forward $161 $-1 #
coedge $-1 $607 $264 $261 $419 forward $413 $-1 #
edge $-1 $425 1.4663499288235649 $611 15.818341430203493 $418 $612 forward 7 unknown #
coedge $-1 $613 $614 $262 $421 forward $603 $-1 #
edge $-1 $615 -19.005140870054156 $424 -15.958577193413483 $420 $616 forward 7 unknown #
edge $-1 $425 -40.840882132957333 $615 -35.892442363666454 $263 $617 forward 7 unknown #
coedge $-1 $264 $607 $613 $618 reversed $413 $-1 #
vertex $-1 $618 $619 #
vertex $-1 $265 $620 #
straight-curve $-1 -10.108695608337094 20.420441066478652 49.124802242981268 0 0 -1 I I #
coedge $-1 $427 $427 $-1 $621 reversed $268 $-1 #
edge $-1 $622 0 $622 6.2831853071796004 $269 $623 forward 7 unknown #
vertex $-1 $272 $624 #
ellipse-curve $-1 -20.360118109322755 18.897159228158312 7.4808836552644964 0 0.78801076186113728 0.61566146476048833 1 0 0 1 I I #
coedge $-1 $431 $431 $-1 $625 reversed $275 $-1 #
edge $-1 $626 0 $626 6.2831853071796004 $276 $627 forward 7 unknown #
vertex $-1 $279 $628 #
ellipse-curve $-1 -14.20926460873136 18.897159228158312 7.4808836552644964 0 0.78801076186113728 0.61566146476048833 1 0 0 1 I I #
face $-1 $-1 $295 $42 $-1 $629 reversed single #
loop $-1 $-1 $451 $280 #
plane-surface $-1 0 20.420441066478652 0 0 -1 0 0 0 -1 forward_v I I I I #
coedge $-1 $630 $449 $452 $631 forward $281 $-1 #
coedge $-1 $455 $283 $284 $443 reversed $175 $-1 #
coedge $-1 $449 $630 $283 $441 reversed $281 $-1 #
edge $-1 $456 -9.4305955515759212 $632 9.4305955515759212 $440 $633 forward 7 unknown #
coedge $-1 $285 $284 $630 $634 forward $113 $-1 #
edge $-1 $447 -49.162877285073399 $632 49.162877285073399 $439 $635 forward 7 unknown #
coedge $-1 $452 $451 $285 $445 reversed $436 $-1 #
edge $-1 $636 -49.162877285073399 $446 49.162877285073399 $444 $637 forward 7 unknown #
vertex $-1 $287 $638 #
vertex $-1 $458 $639 #
straight-curve $-1 49.162877285073399 0 -9.4305955515759212 0 -1 0 I I #
coedge $-1 $438 $440 $288 $450 reversed $281 $-1 #
edge $-1 $453 -20.420441066478652 $456 20.420441066478652 $449 $640 forward 7 unknown #
coedge $-1 $444 $289 $294 $459 forward $436 $-1 #
coedge $-1 $289 $444 $438 $631 reversed $436 $-1 #
vertex $-1 $290 $641 #
straight-curve $-1 0 20.420441066478652 9.4305955515759212 -1 0 0 I I #
coedge $-1 $291 $439 $293 $458 reversed $175 $-1 #
vertex $-1 $450 $642 #
straight-curve $-1 0 -20.420441066478652 9.4305955515759212 1 0 0 I I #
edge $-1 $296 -9.4305955515759212 $447 9.4305955515759212 $293 $643 forward 7 unknown #
edge $-1 $297 -9.4305955515759212 $446 9.4305955515759212 $294 $644 forward 7 unknown #
point $-1 49.162877285073399 -20.420441066478652 9.4305955515759212 #
point $-1 49.162877285073399 20.420441066478652 9.4305955515759212 #
face $-1 $-1 $479 $43 $-1 $645 reversed single #
loop $-1 $-1 $646 $299 #
plane-surface $-1 -49.162877285073399 0 0 1 0 0 0 0 -1 forward_v I I I I #
coedge $-1 $466 $482 $303 $469 forward $300 $-1 #
coedge $-1 $310 $465 $302 $467 forward $300 $-1 #
edge $-1 $473 -0.84892476684265361 $313 4.6141838070549799 $466 $647 forward 7 unknown #
coedge $-1 $304 $303 $646 $648 reversed $117 $-1 #
edge $-1 $649 -26.882530435431438 $473 -17.678163263852486 $465 $650 forward 7 unknown #
coedge $-1 $478 $477 $304 $471 forward $479 $-1 #
edge $-1 $472 17.678163263852486 $651 26.882530435431438 $470 $652 forward 7 unknown #
vertex $-1 $471 $653 #
vertex $-1 $469 $654 #
straight-curve $-1 -39.958510113494448 0 1.0337047532635095 0 -1 0 I I #
coedge $-1 $655 $656 $307 $476 forward $463 $-1 #
edge $-1 $483 -20.420441066478652 $480 20.420441066478652 $475 $657 forward 7 unknown #
coedge $-1 $470 $308 $312 $485 forward $479 $-1 #
coedge $-1 $308 $470 $655 $658 reversed $479 $-1 #
loop $-1 $-1 $470 $462 #
vertex $-1 $658 $659 #
straight-curve $-1 -22.280346849641962 20.420441066478652 6.496813327161143 1 0 0 I I #
coedge $-1 $465 $310 $656 $660 forward $300 $-1 #
vertex $-1 $660 $661 #
straight-curve $-1 -22.280346849641962 -20.420441066478652 6.496813327161143 -1 0 0 I I #
edge $-1 $314 -4.6141838070549799 $472 0.84892476684265361 $477 $662 forward 7 unknown #
point $-1 -39.958510113494448 -20.420441066478652 6.496813327161143 #
point $-1 -39.958510113494448 20.420441066478652 6.496813327161143 #
face $-1 $-1 $331 $44 $-1 $663 reversed single #
loop $-1 $-1 $325 $316 #
plane-surface $-1 0 20.420441066478652 0 0 -1 0 0 0 -1 forward_v I I I I #
coedge $-1 $664 $319 $495 $665 reversed $191 $-1 #
coedge $-1 $319 $664 $324 $503 reversed $191 $-1 #
coedge $-1 $325 $498 $319 $494 forward $489 $-1 #
edge $-1 $666 -0.84892476684265361 $505 4.6141838070549799 $493 $667 forward 7 unknown #
coedge $-1 $321 $320 $491 $665 forward $121 $-1 #
coedge $-1 $508 $507 $320 $497 forward $317 $-1 #
edge $-1 $668 17.678163263852486 $500 26.882530435431438 $496 $669 forward 7 unknown #
coedge $-1 $493 $504 $321 $499 forward $489 $-1 #
edge $-1 $501 -26.882530435431438 $666 -17.678163263852486 $498 $670 forward 7 unknown #
vertex $-1 $323 $671 #
vertex $-1 $323 $672 #
straight-curve $-1 49.162877285073399 0 1.0337047532635095 0 1 0 I I #
edge $-1 $505 -20.420441066478652 $509 20.420441066478652 $492 $673 forward 7 unknown #
coedge $-1 $498 $325 $330 $512 forward $489 $-1 #
vertex $-1 $326 $674 #
straight-curve $-1 22.280346849641962 20.420441066478652 6.496813327161143 1 0 0 I I #
coedge $-1 $496 $327 $664 $675 forward $317 $-1 #
coedge $-1 $327 $496 $329 $511 reversed $317 $-1 #
vertex $-1 $328 $676 #
straight-curve $-1 22.280346849641962 -20.420441066478652 6.496813327161143 -1 0 0 I I #
edge $-1 $333 -6.496813327161143 $500 -1.0337047532635095 $329 $677 forward 7 unknown #
edge $-1 $332 -6.496813327161143 $501 -1.0337047532635095 $330 $678 forward 7 unknown #
point $-1 49.162877285073399 20.420441066478652 6.496813327161143 #
point $-1 49.162877285073399 -20.420441066478652 6.496813327161143 #
plane-surface $-1 0 -20.420441066478652 0 0 1 0 0 0 1 forward_v I I I I #
coedge $-1 $526 $525 $518 $679 forward $336 $-1 #
coedge $-1 $518 $338 $340 $522 reversed $199 $-1 #
coedge $-1 $338 $517 $516 $679 reversed $199 $-1 #
coedge $-1 $346 $341 $338 $520 forward $347 $-1 #
edge $-1 $523 -33.253144769600553 $680 -26.843066693970108 $519 $681 forward 7 unknown #
coedge $-1 $340 $339 $526 $682 reversed $125 $-1 #
edge $-1 $683 -9.065219245247345 $523 -1.0048591735576163e-014 $517 $684 forward 7 unknown #
vertex $-1 $342 $685 #
straight-curve $-1 -14.831547744202567 -20.420441066478652 3.0205174759454732 1 0 0 I I #
coedge $-1 $516 $343 $346 $530 forward $336 $-1 #
coedge $-1 $343 $516 $521 $682 forward $336 $-1 #
vertex $-1 $344 $686 #
straight-curve $-1 -35.51038267081266 -44.973624847501 9.4305955515759194 0 -1 0 I I #
straight-curve $-1 -35.51038267081266 -20.420441066478659 3.0205174759454678 0 0.70710677298230451 0.70710678939079041 I I #
edge $-1 $348 -35.51038267081266 $680 -23.81580830599761 $346 $687 forward 7 unknown #
point $-1 -35.51038267081266 -20.420441066478652 9.4305955515759212 #
point $-1 -35.51038267081266 -20.420441066478652 3.0205174759454749 #
edge $-1 $688 1 $688 0 $351 $-1 forward 7 unknown #
vertex $-1 $352 $689 #
ellipse-curve $-1 -29.663095488405133 -15.809809672433504 4.8199641157744288 0 -0.70710678939079041 0.70710677298230451 1.5 0 0 1 I I #
point $-1 -28.163095488405133 -17.215402103036684 6.2255565137606927 #
loop $-1 $-1 $363 $355 #
plane-surface $-1 0 0 9.4305955515759212 0 0 1 1 0 0 forward_v I I I I #
coedge $-1 $540 $358 $360 $544 reversed $214 $-1 #
coedge $-1 $358 $539 $690 $691 reversed $214 $-1 #
coedge $-1 $366 $361 $358 $542 forward $356 $-1 #
edge $-1 $545 -33.253144769600553 $692 -26.843066693970108 $541 $693 forward 7 unknown #
coedge $-1 $360 $359 $548 $694 reversed $134 $-1 #
edge $-1 $695 -9.065219245247345 $545 -1.0048591735576163e-014 $539 $696 forward 7 unknown #
vertex $-1 $362 $697 #
straight-curve $-1 -4.9438492480675222 -20.420441066478652 3.0205174759454732 1 0 0 I I #
coedge $-1 $690 $363 $366 $552 forward $537 $-1 #
coedge $-1 $363 $690 $543 $694 forward $537 $-1 #
vertex $-1 $364 $698 #
straight-curve $-1 -15.734985678542568 -44.973624847501 9.4305955515759194 0 -1 0 I I #
straight-curve $-1 -15.734985678542568 -20.420441066478659 3.0205174759454678 0 0.70710677298230451 0.70710678939079041 I I #
edge $-1 $367 -15.734985678542568 $692 -4.0404113137275202 $366 $699 forward 7 unknown #
point $-1 -15.734985678542568 -20.420441066478652 9.4305955515759212 #
point $-1 -15.734985678542568 -20.420441066478652 3.0205174759454749 #
edge $-1 $700 1 $700 0 $370 $-1 forward 7 unknown #
vertex $-1 $371 $701 #
ellipse-curve $-1 -9.8876984961350445 -15.809809672433504 4.8199641157744288 0 -0.70710678939079041 0.70710677298230451 1.5 0 0 1 I I #
point $-1 -8.3876984961350445 -17.215402103036684 6.2255565137606927 #
loop $-1 $-1 $382 $374 #
plane-surface $-1 0 0 9.4305955515759212 0 0 1 1 0 0 forward_v I I I I #
coedge $-1 $562 $377 $379 $566 reversed $229 $-1 #
coedge $-1 $377 $561 $702 $703 reversed $229 $-1 #
coedge $-1 $385 $380 $377 $564 forward $375 $-1 #
edge $-1 $567 -33.253144769600553 $704 -26.843066693970108 $563 $705 forward 7 unknown #
coedge $-1 $379 $378 $570 $706 reversed $143 $-1 #
edge $-1 $707 -9.065219245247345 $567 -1.0048591735576163e-014 $561 $708 forward 7 unknown #
vertex $-1 $381 $709 #
straight-curve $-1 4.9438492480675222 -20.420441066478652 3.0205174759454732 1 0 0 I I #
coedge $-1 $702 $382 $385 $574 forward $559 $-1 #
coedge $-1 $382 $702 $565 $706 forward $559 $-1 #
vertex $-1 $383 $710 #
straight-curve $-1 4.0404113137275202 -44.973624847501 9.4305955515759194 0 -1 0 I I #
straight-curve $-1 4.0404113137275202 -20.420441066478659 3.0205174759454678 0 0.70710677298230451 0.70710678939079041 I I #
edge $-1 $386 4.0404113137275202 $704 15.734985678542568 $385 $711 forward 7 unknown #
point $-1 4.0404113137275202 -20.420441066478652 9.4305955515759212 #
point $-1 4.0404113137275202 -20.420441066478652 3.0205174759454749 #
edge $-1 $712 1 $712 0 $389 $-1 forward 7 unknown #
vertex $-1 $390 $713 #
ellipse-curve $-1 9.8876984961350445 -15.809809672433504 4.8199641157744288 0 -0.70710678939079041 0.70710677298230451 1.5 0 0 1 I I #
point $-1 11.387698496135044 -17.215402103036684 6.2255565137606927 #
loop $-1 $-1 $401 $393 #
plane-surface $-1 0 0 9.4305955515759212 0 0 1 1 0 0 forward_v I I I I #
coedge $-1 $584 $396 $398 $588 reversed $244 $-1 #
coedge $-1 $396 $583 $714 $715 reversed $244 $-1 #
coedge $-1 $404 $399 $396 $586 forward $394 $-1 #
edge $-1 $589 -33.253144769600553 $716 -26.843066693970108 $585 $717 forward 7 unknown #
coedge $-1 $398 $397 $592 $718 reversed $152 $-1 #
edge $-1 $719 -9.065219245247345 $589 -1.0048591735576163e-014 $583 $720 forward 7 unknown #
vertex $-1 $400 $721 #
straight-curve $-1 14.831547744202563 -20.420441066478652 3.0205174759454732 1 0 0 I I #
coedge $-1 $714 $401 $404 $596 forward $581 $-1 #
coedge $-1 $401 $714 $587 $718 forward $581 $-1 #
vertex $-1 $402 $722 #
straight-curve $-1 23.815808305997603 -44.973624847501 9.4305955515759194 0 -1 0 I I #
straight-curve $-1 23.815808305997603 -20.420441066478659 3.0205174759454678 0 0.70710677298230451 0.70710678939079041 I I #
edge $-1 $405 23.815808305997603 $716 35.510382670812653 $404 $723 forward 7 unknown #
point $-1 23.815808305997603 -20.420441066478652 9.4305955515759212 #
point $-1 23.815808305997603 -20.420441066478652 3.0205174759454749 #
edge $-1 $724 1 $724 0 $408 $-1 forward 7 unknown #
vertex $-1 $409 $725 #
ellipse-curve $-1 29.663095488405126 -15.809809672433504 4.8199641157744288 0 -0.70710678939079041 0.70710677298230451 1.5 0 0 1 I I #
point $-1 31.163095488405126 -17.215402103036684 6.2255565137606927 #
loop $-1 $-1 $420 $412 #
plane-surface $-1 0 0 9.4305955515759212 0 0 1 1 0 0 forward_v I I I I #
coedge $-1 $606 $415 $417 $610 reversed $259 $-1 #
coedge $-1 $415 $605 $726 $727 reversed $259 $-1 #
coedge $-1 $423 $418 $415 $608 forward $413 $-1 #
edge $-1 $611 -43.593630484028203 $728 -39.694206691405348 $607 $729 forward 7 unknown #
coedge $-1 $417 $416 $614 $730 reversed $161 $-1 #
edge $-1 $731 35.892442363666454 $611 40.840882132957333 $605 $732 forward 7 unknown #
vertex $-1 $419 $733 #
straight-curve $-1 -8.6423456795135287 20.420441066478652 5.5311717589530609 -1 0 0 I I #
coedge $-1 $726 $420 $423 $618 forward $603 $-1 #
coedge $-1 $420 $726 $609 $730 forward $603 $-1 #
vertex $-1 $421 $734 #
straight-curve $-1 -10.108695608337094 36.379018259892135 9.4305955515759194 0 1 0 I I #
straight-curve $-1 -10.108695608337094 -4.7237162496083158 37.71422640362568 0 -0.61566146476048833 0.78801076186113728 I I #
edge $-1 $424 10.108695608337094 $728 24.460687109717021 $423 $735 forward 7 unknown #
point $-1 -10.108695608337094 20.420441066478652 9.4305955515759212 #
point $-1 -10.108695608337094 20.420441066478652 5.5311717589530645 #
edge $-1 $736 1 $736 0 $427 $-1 forward 7 unknown #
vertex $-1 $428 $737 #
ellipse-curve $-1 -20.360118109322755 16.646012544435809 5.7220951567191669 0 0.78801076186113728 0.61566146476048833 1 0 0 1 I I #
point $-1 -19.360118109322755 18.897159228158316 7.4808836552645008 #
edge $-1 $738 1 $738 0 $431 $-1 forward 7 unknown #
vertex $-1 $432 $739 #
ellipse-curve $-1 -14.20926460873136 16.646012544435809 5.7220951567191669 0 0.78801076186113728 0.61566146476048833 1 0 0 1 I I #
point $-1 -13.20926460873136 18.897159228158316 7.4808836552645008 #
plane-surface $-1 49.162877285073399 0 0 -1 0 0 0 0 1 forward_v I I I I #
coedge $-1 $440 $438 $442 $634 reversed $281 $-1 #
edge $-1 $453 -9.4305955515759212 $636 9.4305955515759212 $452 $740 forward 7 unknown #
vertex $-1 $634 $741 #
straight-curve $-1 -49.162877285073399 -20.420441066478652 0 0 0 -1 I I #
edge $-1 $632 -20.420441066478652 $636 20.420441066478652 $630 $742 forward 7 unknown #
straight-curve $-1 0 -20.420441066478652 -9.4305955515759212 -1 0 0 I I #
vertex $-1 $445 $743 #
straight-curve $-1 0 20.420441066478652 -9.4305955515759212 1 0 0 I I #
point $-1 49.162877285073399 20.420441066478652 -9.4305955515759212 #
point $-1 49.162877285073399 -20.420441066478652 -9.4305955515759212 #
straight-curve $-1 -49.162877285073399 0 9.4305955515759212 0 -1 0 I I #
point $-1 -49.162877285073399 20.420441066478652 9.4305955515759212 #
point $-1 -49.162877285073399 -20.420441066478652 9.4305955515759212 #
straight-curve $-1 49.162877285073399 -20.420441066478652 0 0 0 -1 I I #
straight-curve $-1 49.162877285073399 20.420441066478652 0 0 0 -1 I I #
plane-surface $-1 0 20.420441066478652 0 0 -1 0 0 0 -1 forward_v I I I I #
coedge $-1 $656 $655 $468 $648 forward $463 $-1 #
straight-curve $-1 -39.958510113494448 -20.420441066478652 1.8826295201061631 0 0 1 I I #
edge $-1 $651 -20.420441066478652 $649 20.420441066478652 $646 $744 forward 7 unknown #
vertex $-1 $469 $745 #
straight-curve $-1 -22.280346849641962 -20.420441066478652 1.0337047532635095 1 0 0 I I #
vertex $-1 $471 $746 #
straight-curve $-1 -22.280346849641962 20.420441066478652 1.0337047532635095 -1 0 0 I I #
point $-1 -39.958510113494448 20.420441066478652 1.0337047532635095 #
point $-1 -39.958510113494448 -20.420441066478652 1.0337047532635095 #
coedge $-1 $646 $475 $478 $658 forward $463 $-1 #
coedge $-1 $475 $646 $482 $660 reversed $463 $-1 #
straight-curve $-1 -49.162877285073399 0 6.496813327161143 0 1 0 I I #
edge $-1 $480 -6.496813327161143 $651 -1.0337047532635095 $478 $747 forward 7 unknown #
point $-1 -49.162877285073399 20.420441066478652 6.496813327161143 #
edge $-1 $483 -6.496813327161143 $649 -1.0337047532635095 $656 $748 forward 7 unknown #
point $-1 -49.162877285073399 -20.420441066478652 6.496813327161143 #
straight-curve $-1 -39.958510113494448 20.420441066478652 1.8826295201061631 0 0 -1 I I #
plane-surface $-1 49.162877285073399 0 0 -1 0 0 0 0 1 forward_v I I I I #
coedge $-1 $492 $491 $507 $675 reversed $191 $-1 #
edge $-1 $668 -20.420441066478652 $666 20.420441066478652 $491 $749 forward 7 unknown #
vertex $-1 $499 $750 #
straight-curve $-1 39.958510113494448 20.420441066478652 1.8826295201061631 0 0 1 I I #
vertex $-1 $497 $751 #
straight-curve $-1 22.280346849641962 -20.420441066478652 1.0337047532635095 1 0 0 I I #
straight-curve $-1 22.280346849641962 20.420441066478652 1.0337047532635095 -1 0 0 I I #
point $-1 49.162877285073399 -20.420441066478652 1.0337047532635095 #
point $-1 49.162877285073399 20.420441066478652 1.0337047532635095 #
straight-curve $-1 39.958510113494448 0 6.496813327161143 0 -1 0 I I #
point $-1 39.958510113494448 20.420441066478652 6.496813327161143 #
edge $-1 $509 -4.6141838070549799 $668 0.84892476684265361 $507 $752 forward 7 unknown #
point $-1 39.958510113494448 -20.420441066478652 6.496813327161143 #
straight-curve $-1 49.162877285073399 -20.420441066478652 0 0 0 -1 I I #
straight-curve $-1 49.162877285073399 20.420441066478652 0 0 0 -1 I I #
edge $-1 $680 24.553183781022348 $683 30.96326170790627 $516 $753 forward 7 unknown #
vertex $-1 $679 $754 #
straight-curve $-1 -23.81580830599761 -20.420441066478652 36.273662245546028 0 0 1 I I #
edge $-1 $683 8.9842605617950433 $527 20.678834926610094 $526 $755 forward 7 unknown #
vertex $-1 $682 $756 #
straight-curve $-1 -23.81580830599761 -20.420441066478659 3.0205174759454678 0 -0.70710677298230451 -0.70710678939079041 I I #
point $-1 -23.81580830599761 -20.420441066478652 3.0205174759454749 #
point $-1 -35.51038267081266 -14.010363139594729 9.4305955515759194 #
straight-curve $-1 0 -20.420441066478652 9.4305955515759212 1 0 0 I I #
vertex $-1 $533 $757 #
point $-1 -28.163095488405133 -15.809809672433504 4.8199641157744288 #
coedge $-1 $548 $547 $540 $691 forward $537 $-1 #
edge $-1 $692 24.553183781022348 $695 30.96326170790627 $690 $758 forward 7 unknown #
vertex $-1 $691 $759 #
straight-curve $-1 -4.0404113137275202 -20.420441066478652 36.273662245546028 0 0 1 I I #
edge $-1 $695 -0.90343793434000208 $549 10.791136430475046 $548 $760 forward 7 unknown #
vertex $-1 $694 $761 #
straight-curve $-1 -4.0404113137275202 -20.420441066478659 3.0205174759454678 0 -0.70710677298230451 -0.70710678939079041 I I #
point $-1 -4.0404113137275202 -20.420441066478652 3.0205174759454749 #
point $-1 -15.734985678542568 -14.010363139594729 9.4305955515759194 #
straight-curve $-1 0 -20.420441066478652 9.4305955515759212 1 0 0 I I #
vertex $-1 $555 $762 #
point $-1 -8.3876984961350445 -15.809809672433504 4.8199641157744288 #
coedge $-1 $570 $569 $562 $703 forward $559 $-1 #
edge $-1 $704 24.553183781022348 $707 30.96326170790627 $702 $763 forward 7 unknown #
vertex $-1 $703 $764 #
straight-curve $-1 15.734985678542568 -20.420441066478652 36.273662245546028 0 0 1 I I #
edge $-1 $707 -10.791136430475046 $571 0.90343793434000208 $570 $765 forward 7 unknown #
vertex $-1 $706 $766 #
straight-curve $-1 15.734985678542568 -20.420441066478659 3.0205174759454678 0 -0.70710677298230451 -0.70710678939079041 I I #
point $-1 15.734985678542568 -20.420441066478652 3.0205174759454749 #
point $-1 4.0404113137275202 -14.010363139594729 9.4305955515759194 #
straight-curve $-1 0 -20.420441066478652 9.4305955515759212 1 0 0 I I #
vertex $-1 $577 $767 #
point $-1 11.387698496135044 -15.809809672433504 4.8199641157744288 #
coedge $-1 $592 $591 $584 $715 forward $581 $-1 #
edge $-1 $716 24.553183781022348 $719 30.96326170790627 $714 $768 forward 7 unknown #
vertex $-1 $715 $769 #
straight-curve $-1 35.510382670812653 -20.420441066478652 36.273662245546028 0 0 1 I I #
edge $-1 $719 -20.67883492661009 $593 -8.9842605617950397 $592 $770 forward 7 unknown #
vertex $-1 $718 $771 #
straight-curve $-1 35.510382670812653 -20.420441066478659 3.0205174759454678 0 -0.70710677298230451 -0.70710678939079041 I I #
point $-1 35.510382670812653 -20.420441066478652 3.0205174759454749 #
point $-1 23.815808305997603 -14.010363139594729 9.4305955515759194 #
straight-curve $-1 0 -20.420441066478652 9.4305955515759212 1 0 0 I I #
vertex $-1 $599 $772 #
point $-1 31.163095488405126 -15.809809672433504 4.8199641157744288 #
coedge $-1 $614 $613 $606 $727 forward $603 $-1 #
edge $-1 $728 15.958577193413483 $731 19.005140870054156 $726 $773 forward 7 unknown #
vertex $-1 $727 $774 #
straight-curve $-1 -24.460687109717021 20.420441066478652 49.124802242981268 0 0 1 I I #
edge $-1 $731 -15.818341430203493 $615 -1.4663499288235649 $614 $775 forward 7 unknown #
vertex $-1 $730 $776 #
straight-curve $-1 -24.460687109717021 -4.7237162496083158 37.71422640362568 0 0.61566146476048833 -0.78801076186113728 I I #
point $-1 -24.460687109717021 20.420441066478652 5.5311717589530645 #
point $-1 -10.108695608337094 17.373877389837979 9.4305955515759194 #
straight-curve $-1 0 20.420441066478652 9.4305955515759212 -1 0 0 I I #
vertex $-1 $621 $777 #
point $-1 -19.360118109322755 16.646012544435809 5.7220951567191669 #
vertex $-1 $625 $778 #
point $-1 -13.20926460873136 16.646012544435809 5.7220951567191669 #
straight-curve $-1 -49.162877285073399 20.420441066478652 0 0 0 -1 I I #
point $-1 -49.162877285073399 -20.420441066478652 -9.4305955515759212 #
straight-curve $-1 -49.162877285073399 0 -9.4305955515759212 0 1 0 I I #
point $-1 -49.162877285073399 20.420441066478652 -9.4305955515759212 #
straight-curve $-1 -49.162877285073399 0 1.0337047532635095 0 -1 0 I I #
point $-1 -49.162877285073399 -20.420441066478652 1.0337047532635095 #
point $-1 -49.162877285073399 20.420441066478652 1.0337047532635095 #
straight-curve $-1 -49.162877285073399 20.420441066478652 0 0 0 -1 I I #
straight-curve $-1 -49.162877285073399 -20.420441066478652 0 0 0 -1 I I #
straight-curve $-1 39.958510113494448 0 1.0337047532635095 0 1 0 I I #
point $-1 39.958510113494448 20.420441066478652 1.0337047532635095 #
point $-1 39.958510113494448 -20.420441066478652 1.0337047532635095 #
straight-curve $-1 39.958510113494448 -20.420441066478652 1.8826295201061631 0 0 -1 I I #
straight-curve $-1 -23.81580830599761 -44.973624847501 9.4305955515759194 0 1 0 I I #
point $-1 -23.81580830599761 -20.420441066478652 9.4305955515759212 #
straight-curve $-1 -14.831547744202567 -14.010363139594729 9.4305955515759212 -1 0 0 I I #
point $-1 -23.81580830599761 -14.010363139594729 9.4305955515759194 #
point $-1 -29.663095488405133 -14.749149488347319 3.7593039563009718 #
straight-curve $-1 -4.0404113137275202 -44.973624847501 9.4305955515759194 0 1 0 I I #
point $-1 -4.0404113137275202 -20.420441066478652 9.4305955515759212 #
straight-curve $-1 -4.9438492480675222 -14.010363139594729 9.4305955515759212 -1 0 0 I I #
point $-1 -4.0404113137275202 -14.010363139594729 9.4305955515759194 #
point $-1 -9.8876984961350445 -14.749149488347319 3.7593039563009718 #
straight-curve $-1 15.734985678542568 -44.973624847501 9.4305955515759194 0 1 0 I I #
point $-1 15.734985678542568 -20.420441066478652 9.4305955515759212 #
straight-curve $-1 4.9438492480675222 -14.010363139594729 9.4305955515759212 -1 0 0 I I #
point $-1 15.734985678542568 -14.010363139594729 9.4305955515759194 #
point $-1 9.8876984961350445 -14.749149488347319 3.7593039563009718 #
straight-curve $-1 35.510382670812653 -44.973624847501 9.4305955515759194 0 1 0 I I #
point $-1 35.510382670812653 -20.420441066478652 9.4305955515759212 #
straight-curve $-1 14.831547744202563 -14.010363139594729 9.4305955515759212 -1 0 0 I I #
point $-1 35.510382670812653 -14.010363139594729 9.4305955515759194 #
point $-1 29.663095488405126 -14.749149488347319 3.7593039563009718 #
straight-curve $-1 -24.460687109717021 36.379018259892135 9.4305955515759194 0 -1 0 I I #
point $-1 -24.460687109717021 20.420441066478652 9.4305955515759212 #
straight-curve $-1 -8.6423456795135287 17.373877389837979 9.4305955515759194 1 0 0 I I #
point $-1 -24.460687109717021 17.373877389837979 9.4305955515759194 #
point $-1 -20.360118109322755 15.858001782574672 5.1064336919586779 #
point $-1 -14.20926460873136 15.858001782574672 5.1064336919586779 #
End-of-ACIS-data 