500 0 11 0           
7 Unknown 11 ACIS 5.0 NT 24 Thu Mar 25 19:20:40 1999 
-1 9.9999999999999995e-007 1e-010 
body $-1 $11 $-1 $12 #
body $-1 $13 $-1 $14 #
body $-1 $15 $-1 $16 #
body $-1 $17 $-1 $18 #
body $-1 $19 $-1 $20 #
body $-1 $21 $-1 $22 #
body $-1 $23 $-1 $24 #
body $-1 $25 $-1 $26 #
body $-1 $27 $-1 $28 #
body $-1 $29 $-1 $30 #
body $-1 $31 $-1 $32 #
lump $-1 $-1 $33 $0 #
transform $-1 1 0 0 0 1 0 0 0 1 76.747947630237746 41.701584191359565 12.828770072504126 1 rotate no_reflect no_shear #
lump $-1 $-1 $34 $1 #
transform $-1 1 0 0 0 1 0 0 0 1 76.747947630237746 41.701584191359565 12.828770072504126 1 rotate no_reflect no_shear #
lump $-1 $-1 $35 $2 #
transform $-1 1 0 0 0 1 0 0 0 1 76.747947630237746 41.701584191359565 12.828770072504126 1 rotate no_reflect no_shear #
lump $-1 $-1 $36 $3 #
transform $-1 1 0 0 0 1 0 0 0 1 76.747947630237746 41.701584191359565 12.828770072504126 1 rotate no_reflect no_shear #
lump $-1 $-1 $37 $4 #
transform $-1 1 0 0 0 1 0 0 0 1 76.747947630237746 41.701584191359565 12.828770072504126 1 rotate no_reflect no_shear #
lump $-1 $-1 $38 $5 #
transform $-1 1 0 0 0 1 0 0 0 1 76.747947630237746 41.701584191359565 12.828770072504126 1 rotate no_reflect no_shear #
lump $-1 $-1 $39 $6 #
transform $-1 1 0 0 0 1 0 0 0 1 76.747947630237746 41.701584191359565 12.828770072504126 1 rotate no_reflect no_shear #
lump $-1 $-1 $40 $7 #
transform $-1 1 0 0 0 1 0 0 0 1 76.747947630237746 41.701584191359565 12.828770072504126 1 rotate no_reflect no_shear #
lump $-1 $-1 $41 $8 #
transform $-1 1 0 0 0 1 0 0 0 1 76.747947630237746 41.701584191359565 12.828770072504126 1 rotate no_reflect no_shear #
lump $-1 $-1 $42 $9 #
transform $-1 1 0 0 0 1 0 0 0 1 76.747947630237746 41.701584191359565 12.828770072504126 1 rotate no_reflect no_shear #
lump $-1 $-1 $43 $10 #
transform $-1 1 0 0 0 1 0 0 0 1 76.747947630237746 41.701584191359565 12.828770072504126 1 rotate no_reflect no_shear #
shell $-1 $-1 $-1 $44 $-1 $11 #
shell $-1 $-1 $-1 $45 $-1 $13 #
shell $-1 $-1 $-1 $46 $-1 $15 #
shell $-1 $-1 $-1 $47 $-1 $17 #
shell $-1 $-1 $-1 $48 $-1 $19 #
shell $-1 $-1 $-1 $49 $-1 $21 #
shell $-1 $-1 $-1 $50 $-1 $23 #
shell $-1 $-1 $-1 $51 $-1 $25 #
shell $-1 $-1 $-1 $52 $-1 $27 #
shell $-1 $-1 $-1 $53 $-1 $29 #
shell $-1 $-1 $-1 $54 $-1 $31 #
face $-1 $55 $56 $33 $-1 $57 forward single #
face $-1 $58 $59 $34 $-1 $60 reversed single #
face $-1 $61 $62 $35 $-1 $63 reversed single #
face $-1 $64 $65 $36 $-1 $66 forward single #
face $-1 $67 $68 $37 $-1 $69 forward single #
face $-1 $70 $71 $38 $-1 $72 reversed single #
face $-1 $73 $74 $39 $-1 $75 forward single #
face $-1 $76 $77 $40 $-1 $78 forward single #
face $-1 $79 $80 $41 $-1 $81 reversed single #
face $-1 $82 $83 $42 $-1 $84 forward single #
face $-1 $85 $86 $43 $-1 $87 forward single #
face $-1 $88 $89 $33 $-1 $90 reversed single #
loop $-1 $-1 $91 $44 #
plane-surface $-1 0 0 12.828770072504126 0 0 1 1 0 0 forward_v I I I I #
face $-1 $92 $93 $34 $-1 $94 reversed single #
loop $-1 $-1 $95 $45 #
plane-surface $-1 -72.433832749655906 0 8.0808683827169165 0 0 1 1 0 0 forward_v I I I I #
face $-1 $96 $97 $35 $-1 $98 reversed single #
loop $-1 $-1 $99 $46 #
plane-surface $-1 -18.124838685544066 -144.41038689586338 114.27215178610558 -1 0 0 0 -0.66913061440640931 0.74314481823134659 forward_v I I I I #
face $-1 $100 $101 $36 $-1 $102 forward single #
loop $-1 $103 $104 $47 #
cone-surface $-1 -35.218407197373253 -33.840267046510895 5.5717614210030666 0 0.66913061440640931 -0.74314481823134659 2 0 0 1 I I 0 1 2 forward I I I I #
face $-1 $105 $106 $37 $-1 $107 forward single #
loop $-1 $108 $109 $48 #
cone-surface $-1 -24.96226609027574 -33.840267046510895 5.5717614210030666 0 0.66913061440640931 -0.74314481823134659 2 0 0 1 I I 0 1 2 forward I I I I #
face $-1 $110 $111 $38 $-1 $112 reversed single #
loop $-1 $-1 $113 $49 #
plane-surface $-1 54.308994064111843 -144.41038689586338 114.27215178610558 -1 0 0 0 -0.66913061440640931 0.74314481823134659 forward_v I I I I #
face $-1 $114 $115 $39 $-1 $116 forward single #
loop $-1 $117 $118 $50 #
cone-surface $-1 37.215425552282653 -33.840267046510895 5.5717614210030666 0 0.66913061440640931 -0.74314481823134659 2 0 0 1 I I 0 1 2 forward I I I I #
face $-1 $119 $120 $40 $-1 $121 forward single #
loop $-1 $122 $123 $51 #
cone-surface $-1 47.471566659380159 -33.840267046510895 5.5717614210030666 0 0.66913061440640931 -0.74314481823134659 2 0 0 1 I I 0 1 2 forward I I I I #
face $-1 $124 $125 $41 $-1 $126 reversed single #
loop $-1 $-1 $127 $52 #
plane-surface $-1 28.069907543820683 46.220270596843172 178.09266069348664 1 0 0 0 -0.50000000669873634 -0.8660253999169214 forward_v I I I I #
face $-1 $128 $129 $42 $-1 $130 forward single #
loop $-1 $131 $132 $53 #
cone-surface $-1 32.787016859151706 32.537785166128906 6.325642559529987 0 -0.50000000669873634 -0.8660253999169214 2 0 0 1 I I 0 1 2 forward I I I I #
face $-1 $133 $134 $43 $-1 $135 forward single #
loop $-1 $136 $137 $54 #
cone-surface $-1 39.862680832148229 32.537785166128906 6.325642559529987 0 -0.50000000669873634 -0.8660253999169214 2 0 0 1 I I 0 1 2 forward I I I I #
face $-1 $138 $139 $33 $-1 $140 reversed single #
loop $-1 $-1 $141 $55 #
plane-surface $-1 0 0 -12.828770072504126 0 0 1 1 0 0 forward_v I I I I #
coedge $-1 $142 $143 $144 $145 forward $56 $-1 #
face $-1 $146 $147 $34 $-1 $148 reversed single #
loop $-1 $-1 $149 $58 #
plane-surface $-1 -68.119717869074066 0 10.454819227610523 -1 0 0 0 0 1 forward_v I I I I #
coedge $-1 $150 $151 $152 $153 forward $59 $-1 #
face $-1 $154 $155 $35 $-1 $156 reversed single #
loop $-1 $-1 $157 $61 #
plane-surface $-1 -30.0903366438245 -41.701584191359572 0.20247260350170393 0 -0.66913061440640931 0.74314481823134659 1 0 0 forward_v I I I I #
coedge $-1 $158 $159 $160 $161 reversed $62 $-1 #
face $-1 $-1 $162 $36 $-1 $163 forward single #
loop $-1 $164 $165 $64 #
cone-surface $-1 -35.218407197373253 -32.321281127079565 3.8847566857718743 0 0.66913061440640931 -0.74314481823134659 1 0 0 1 I I -0.70710678118654746 0.70710678118654746 1 forward I I I I #
loop $-1 $-1 $166 $47 #
coedge $-1 $104 $104 $167 $168 reversed $65 $-1 #
face $-1 $-1 $169 $37 $-1 $170 forward single #
loop $-1 $171 $172 $67 #
cone-surface $-1 -24.96226609027574 -32.321281127079565 3.8847566857718743 0 0.66913061440640931 -0.74314481823134659 1 0 0 1 I I -0.70710678118654746 0.70710678118654746 1 forward I I I I #
loop $-1 $-1 $173 $48 #
coedge $-1 $109 $109 $174 $175 reversed $68 $-1 #
face $-1 $176 $177 $38 $-1 $178 reversed single #
loop $-1 $-1 $179 $70 #
plane-surface $-1 42.343496105831406 -41.701584191359572 0.20247260350170393 0 -0.66913061440640931 0.74314481823134659 1 0 0 forward_v I I I I #
coedge $-1 $180 $181 $182 $183 reversed $71 $-1 #
face $-1 $-1 $184 $39 $-1 $185 forward single #
loop $-1 $186 $187 $73 #
cone-surface $-1 37.215425552282653 -32.321281127079565 3.8847566857718743 0 0.66913061440640931 -0.74314481823134659 1 0 0 1 I I -0.70710678118654746 0.70710678118654746 1 forward I I I I #
loop $-1 $-1 $188 $50 #
coedge $-1 $118 $118 $189 $190 reversed $74 $-1 #
face $-1 $-1 $191 $40 $-1 $192 forward single #
loop $-1 $193 $194 $76 #
cone-surface $-1 47.471566659380159 -32.321281127079565 3.8847566857718743 0 0.66913061440640931 -0.74314481823134659 1 0 0 1 I I -0.70710678118654746 0.70710678118654746 1 forward I I I I #
loop $-1 $-1 $195 $51 #
coedge $-1 $123 $123 $196 $197 reversed $77 $-1 #
face $-1 $198 $199 $41 $-1 $200 reversed single #
loop $-1 $-1 $201 $79 #
plane-surface $-1 36.324848845649967 -30.527678061623114 45.161316614927472 0 0.50000000669873634 0.8660253999169214 1 0 0 forward_v I I I I #
coedge $-1 $202 $203 $204 $205 reversed $80 $-1 #
face $-1 $-1 $206 $42 $-1 $207 forward single #
loop $-1 $208 $209 $82 #
cone-surface $-1 32.787016859151706 30.987811086096222 3.6410087504549669 0 -0.50000000669873634 -0.8660253999169214 1 0 0 1 I I -0.70710678118654746 0.70710678118654746 1 forward I I I I #
loop $-1 $-1 $210 $53 #
coedge $-1 $132 $132 $211 $212 reversed $83 $-1 #
face $-1 $-1 $213 $43 $-1 $214 forward single #
loop $-1 $215 $216 $85 #
cone-surface $-1 39.862680832148229 30.987811086096222 3.6410087504549669 0 -0.50000000669873634 -0.8660253999169214 1 0 0 1 I I -0.70710678118654746 0.70710678118654746 1 forward I I I I #
loop $-1 $-1 $217 $54 #
coedge $-1 $137 $137 $218 $219 reversed $86 $-1 #
face $-1 $220 $221 $33 $-1 $222 reversed single #
loop $-1 $-1 $223 $88 #
plane-surface $-1 0 -41.701584191359565 0 0 1 0 0 0 1 forward_v I I I I #
coedge $-1 $224 $225 $226 $227 forward $89 $-1 #
coedge $-1 $228 $91 $229 $230 forward $56 $-1 #
coedge $-1 $91 $228 $231 $232 forward $56 $-1 #
coedge $-1 $233 $234 $91 $145 reversed $235 $-1 #
edge $-1 $236 -41.701584191359565 $237 41.701584191359565 $144 $238 forward 7 unknown #
face $-1 $239 $240 $34 $-1 $241 reversed single #
loop $-1 $-1 $242 $92 #
plane-surface $-1 0 41.701584191359565 0 0 -1 0 0 0 -1 forward_v I I I I #
coedge $-1 $152 $243 $244 $245 reversed $93 $-1 #
coedge $-1 $246 $95 $247 $248 reversed $59 $-1 #
coedge $-1 $95 $246 $249 $250 reversed $59 $-1 #
coedge $-1 $251 $149 $95 $153 reversed $93 $-1 #
edge $-1 $252 -41.701584191359565 $253 41.701584191359565 $152 $254 forward 7 unknown #
face $-1 $255 $256 $35 $-1 $257 reversed single #
loop $-1 $-1 $258 $96 #
plane-surface $-1 -42.055834602104937 -144.41038689586338 114.27215178610558 1 0 0 0 0.66913061440640931 -0.74314481823134659 forward_v I I I I #
coedge $-1 $259 $260 $261 $262 reversed $97 $-1 #
coedge $-1 $159 $99 $263 $264 reversed $62 $-1 #
coedge $-1 $99 $158 $259 $265 reversed $62 $-1 #
coedge $-1 $261 $266 $99 $161 forward $267 $-1 #
edge $-1 $268 30.503609256572126 $269 44.526532936219617 $160 $270 forward 7 unknown #
loop $-1 $-1 $167 $100 #
plane-surface $-1 -30.0903366438245 -41.701584191359572 0.20247260350170393 0 -0.66913061440640931 0.74314481823134659 1 0 0 forward_v I I I I #
loop $-1 $-1 $271 $64 #
coedge $-1 $165 $165 $166 $272 reversed $101 $-1 #
coedge $-1 $166 $166 $165 $272 forward $103 $-1 #
coedge $-1 $167 $167 $104 $168 forward $162 $-1 #
edge $-1 $273 8.5725864603084142e-016 $273 6.2831853071796013 $167 $274 forward 7 unknown #
loop $-1 $-1 $174 $105 #
plane-surface $-1 -30.0903366438245 -41.701584191359572 0.20247260350170393 0 -0.66913061440640931 0.74314481823134659 1 0 0 forward_v I I I I #
loop $-1 $-1 $275 $67 #
coedge $-1 $172 $172 $173 $276 reversed $106 $-1 #
coedge $-1 $173 $173 $172 $276 forward $108 $-1 #
coedge $-1 $174 $174 $109 $175 forward $169 $-1 #
edge $-1 $277 8.5725864603084142e-016 $277 6.2831853071796013 $174 $278 forward 7 unknown #
face $-1 $279 $280 $38 $-1 $281 reversed single #
loop $-1 $-1 $282 $110 #
plane-surface $-1 30.377998147550972 -144.41038689586338 114.27215178610558 1 0 0 0 0.66913061440640931 -0.74314481823134659 forward_v I I I I #
coedge $-1 $283 $284 $285 $286 reversed $111 $-1 #
coedge $-1 $181 $113 $287 $288 reversed $71 $-1 #
coedge $-1 $113 $180 $283 $289 reversed $71 $-1 #
coedge $-1 $285 $290 $113 $183 forward $291 $-1 #
edge $-1 $292 30.503609256572126 $293 44.526532936219617 $182 $294 forward 7 unknown #
loop $-1 $-1 $189 $114 #
plane-surface $-1 42.343496105831406 -41.701584191359572 0.20247260350170393 0 -0.66913061440640931 0.74314481823134659 1 0 0 forward_v I I I I #
loop $-1 $-1 $295 $73 #
coedge $-1 $187 $187 $188 $296 reversed $115 $-1 #
coedge $-1 $188 $188 $187 $296 forward $117 $-1 #
coedge $-1 $189 $189 $118 $190 forward $184 $-1 #
edge $-1 $297 8.5725864603084142e-016 $297 6.2831853071796013 $189 $298 forward 7 unknown #
loop $-1 $-1 $196 $119 #
plane-surface $-1 42.343496105831406 -41.701584191359572 0.20247260350170393 0 -0.66913061440640931 0.74314481823134659 1 0 0 forward_v I I I I #
loop $-1 $-1 $299 $76 #
coedge $-1 $194 $194 $195 $300 reversed $120 $-1 #
coedge $-1 $195 $195 $194 $300 forward $122 $-1 #
coedge $-1 $196 $196 $123 $197 forward $191 $-1 #
edge $-1 $301 8.5725864603084142e-016 $301 6.2831853071796013 $196 $302 forward 7 unknown #
face $-1 $303 $304 $41 $-1 $305 forward single #
loop $-1 $-1 $306 $124 #
plane-surface $-1 44.579790147479251 46.220270596843172 178.09266069348664 -1 0 0 0 0.50000000669873634 0.8660253999169214 forward_v I I I I #
coedge $-1 $307 $308 $309 $310 reversed $125 $-1 #
coedge $-1 $203 $127 $311 $312 reversed $80 $-1 #
coedge $-1 $127 $202 $307 $313 reversed $80 $-1 #
coedge $-1 $309 $314 $127 $205 forward $304 $-1 #
edge $-1 $315 -18.591448892937979 $316 -2.3637989891445237 $204 $317 forward 7 unknown #
loop $-1 $-1 $211 $128 #
plane-surface $-1 36.324848845649967 -30.527678061623114 45.161316614927472 0 0.50000000669873634 0.8660253999169214 1 0 0 forward_v I I I I #
loop $-1 $-1 $318 $82 #
coedge $-1 $209 $209 $210 $319 reversed $129 $-1 #
coedge $-1 $210 $210 $209 $319 forward $131 $-1 #
coedge $-1 $211 $211 $132 $212 forward $206 $-1 #
edge $-1 $320 -1.7444726370743141e-015 $320 6.2831853071795987 $211 $321 forward 7 unknown #
loop $-1 $-1 $218 $133 #
plane-surface $-1 36.324848845649967 -30.527678061623114 45.161316614927472 0 0.50000000669873634 0.8660253999169214 1 0 0 forward_v I I I I #
loop $-1 $-1 $322 $85 #
coedge $-1 $216 $216 $217 $323 reversed $134 $-1 #
coedge $-1 $217 $217 $216 $323 forward $136 $-1 #
coedge $-1 $218 $218 $137 $219 forward $213 $-1 #
edge $-1 $324 -1.7444726370743141e-015 $324 6.2831853071795987 $218 $325 forward 7 unknown #
face $-1 $326 $327 $33 $-1 $328 reversed single #
loop $-1 $-1 $329 $138 #
plane-surface $-1 -76.747947630237746 0 0 1 0 0 0 0 -1 forward_v I I I I #
coedge $-1 $330 $231 $331 $332 forward $139 $-1 #
coedge $-1 $333 $141 $330 $334 forward $89 $-1 #
coedge $-1 $141 $333 $335 $336 forward $89 $-1 #
coedge $-1 $234 $233 $141 $227 reversed $235 $-1 #
edge $-1 $337 -41.701584191359565 $338 41.701584191359565 $226 $339 forward 7 unknown #
coedge $-1 $143 $142 $340 $341 forward $56 $-1 #
coedge $-1 $342 $343 $142 $230 reversed $327 $-1 #
edge $-1 $237 -76.747947630237746 $344 76.747947630237746 $229 $345 forward 7 unknown #
coedge $-1 $223 $346 $143 $232 reversed $139 $-1 #
edge $-1 $347 -76.747947630237746 $236 76.747947630237746 $231 $348 forward 7 unknown #
coedge $-1 $226 $144 $346 $349 forward $235 $-1 #
coedge $-1 $144 $226 $342 $350 reversed $235 $-1 #
loop $-1 $-1 $233 $326 #
vertex $-1 $145 $351 #
vertex $-1 $145 $352 #
straight-curve $-1 76.747947630237746 0 12.828770072504126 0 1 0 I I #
face $-1 $353 $354 $34 $-1 $355 forward single #
loop $-1 $-1 $356 $146 #
plane-surface $-1 -76.747947630237746 0 0 1 0 0 0 0 -1 forward_v I I I I #
coedge $-1 $249 $357 $251 $358 forward $147 $-1 #
coedge $-1 $149 $251 $359 $360 reversed $93 $-1 #
coedge $-1 $361 $247 $149 $245 forward $362 $-1 #
edge $-1 $253 2.8534587689116551 $363 7.6013604586988679 $244 $364 forward 7 unknown #
coedge $-1 $151 $150 $356 $365 reversed $59 $-1 #
coedge $-1 $244 $366 $150 $248 forward $362 $-1 #
edge $-1 $367 -40.531031255409793 $253 -31.902801494246113 $247 $368 forward 7 unknown #
coedge $-1 $369 $242 $151 $250 forward $147 $-1 #
edge $-1 $252 31.902801494246113 $370 40.531031255409793 $249 $371 forward 7 unknown #
coedge $-1 $243 $152 $242 $358 reversed $93 $-1 #
vertex $-1 $250 $372 #
vertex $-1 $248 $373 #
straight-curve $-1 -68.119717869074066 0 8.0808683827169165 0 -1 0 I I #
face $-1 $-1 $267 $35 $-1 $374 forward single #
loop $-1 $-1 $375 $154 #
plane-surface $-1 0 -41.701584191359565 0 0 1 0 0 0 1 forward_v I I I I #
coedge $-1 $376 $377 $378 $379 reversed $155 $-1 #
coedge $-1 $380 $157 $159 $265 forward $97 $-1 #
coedge $-1 $157 $380 $376 $381 forward $97 $-1 #
coedge $-1 $378 $160 $157 $262 forward $267 $-1 #
edge $-1 $269 3.0796703636318163 $382 27.010666280192687 $261 $383 forward 7 unknown #
coedge $-1 $384 $385 $158 $264 forward $256 $-1 #
edge $-1 $386 -56.93360328955108 $268 -44.307305820548663 $263 $387 forward 7 unknown #
edge $-1 $269 -18.869705252095368 $386 -9.5705178614098683e-015 $159 $388 forward 7 unknown #
coedge $-1 $160 $378 $384 $389 forward $267 $-1 #
loop $-1 $-1 $378 $255 #
vertex $-1 $264 $390 #
vertex $-1 $161 $391 #
straight-curve $-1 -18.124838685544066 -72.205193447931691 12.828770072504128 0 1 0 I I #
coedge $-1 $271 $271 $-1 $392 reversed $164 $-1 #
edge $-1 $393 0 $393 6.2831853071796004 $165 $394 forward 7 unknown #
vertex $-1 $168 $395 #
ellipse-curve $-1 -35.218407197373253 -34.69012235153582 6.5156213380029175 0 -0.66913061440640931 0.74314481823134659 2 0 0 1 I I #
coedge $-1 $275 $275 $-1 $396 reversed $171 $-1 #
edge $-1 $397 0 $397 6.2831853071796004 $172 $398 forward 7 unknown #
vertex $-1 $175 $399 #
ellipse-curve $-1 -24.96226609027574 -34.69012235153582 6.5156213380029175 0 -0.66913061440640931 0.74314481823134659 2 0 0 1 I I #
face $-1 $-1 $291 $38 $-1 $400 forward single #
loop $-1 $-1 $401 $176 #
plane-surface $-1 0 -41.701584191359565 0 0 1 0 0 0 1 forward_v I I I I #
coedge $-1 $402 $403 $404 $405 reversed $177 $-1 #
coedge $-1 $406 $179 $181 $289 forward $111 $-1 #
coedge $-1 $179 $406 $402 $407 forward $111 $-1 #
coedge $-1 $404 $182 $179 $286 forward $291 $-1 #
edge $-1 $293 -33.13724601119614 $408 -9.2062500946352692 $285 $409 forward 7 unknown #
coedge $-1 $410 $411 $180 $288 forward $280 $-1 #
edge $-1 $412 -56.93360328955108 $292 -44.307305820548663 $287 $413 forward 7 unknown #
edge $-1 $293 -18.869705252095368 $412 -9.5705178614098683e-015 $181 $414 forward 7 unknown #
coedge $-1 $182 $404 $410 $415 forward $291 $-1 #
loop $-1 $-1 $404 $279 #
vertex $-1 $288 $416 #
vertex $-1 $183 $417 #
straight-curve $-1 54.308994064111843 -72.205193447931691 12.828770072504128 0 1 0 I I #
coedge $-1 $295 $295 $-1 $418 reversed $186 $-1 #
edge $-1 $419 0 $419 6.2831853071796004 $187 $420 forward 7 unknown #
vertex $-1 $190 $421 #
ellipse-curve $-1 37.215425552282653 -34.69012235153582 6.5156213380029175 0 -0.66913061440640931 0.74314481823134659 2 0 0 1 I I #
coedge $-1 $299 $299 $-1 $422 reversed $193 $-1 #
edge $-1 $423 0 $423 6.2831853071796004 $194 $424 forward 7 unknown #
vertex $-1 $197 $425 #
ellipse-curve $-1 47.471566659380159 -34.69012235153582 6.5156213380029175 0 -0.66913061440640931 0.74314481823134659 2 0 0 1 I I #
face $-1 $-1 $426 $41 $-1 $427 reversed single #
loop $-1 $-1 $204 $198 #
plane-surface $-1 0 0 12.828770072504126 0 0 1 1 0 0 forward_v I I I I #
coedge $-1 $428 $429 $430 $431 reversed $199 $-1 #
coedge $-1 $432 $201 $203 $313 forward $125 $-1 #
coedge $-1 $201 $432 $428 $433 forward $125 $-1 #
coedge $-1 $430 $204 $201 $310 forward $304 $-1 #
edge $-1 $316 9.9074831209956997 $434 26.417365724654267 $309 $435 forward 7 unknown #
coedge $-1 $436 $437 $202 $312 forward $426 $-1 #
edge $-1 $438 -85.586598481871249 $315 -76.21756027423919 $311 $439 forward 7 unknown #
edge $-1 $316 64.665092218497875 $438 83.403168382719144 $203 $440 forward 7 unknown #
coedge $-1 $204 $430 $436 $441 forward $304 $-1 #
vertex $-1 $312 $442 #
vertex $-1 $205 $443 #
straight-curve $-1 28.069907543820683 23.110135298421586 12.828770072504128 0 -1 0 I I #
coedge $-1 $318 $318 $-1 $444 reversed $208 $-1 #
edge $-1 $445 0 $445 6.2831853071796004 $209 $446 forward 7 unknown #
vertex $-1 $212 $447 #
ellipse-curve $-1 32.787016859151706 33.587759239462855 8.1442509686880911 0 0.50000000669873634 0.8660253999169214 2 0 0 1 I I #
coedge $-1 $322 $322 $-1 $448 reversed $215 $-1 #
edge $-1 $449 0 $449 6.2831853071796004 $216 $450 forward 7 unknown #
vertex $-1 $219 $451 #
ellipse-curve $-1 39.862680832148229 33.587759239462855 8.1442509686880911 0 0.50000000669873634 0.8660253999169214 2 0 0 1 I I #
face $-1 $-1 $235 $33 $-1 $452 reversed single #
loop $-1 $-1 $342 $220 #
plane-surface $-1 0 41.701584191359565 0 0 -1 0 0 0 -1 forward_v I I I I #
coedge $-1 $453 $340 $343 $454 forward $221 $-1 #
coedge $-1 $346 $223 $224 $334 reversed $139 $-1 #
coedge $-1 $340 $453 $223 $332 reversed $221 $-1 #
edge $-1 $347 -12.828770072504126 $455 12.828770072504126 $331 $456 forward 7 unknown #
coedge $-1 $225 $224 $453 $457 forward $89 $-1 #
edge $-1 $338 -76.747947630237746 $455 76.747947630237746 $330 $458 forward 7 unknown #
coedge $-1 $343 $342 $225 $336 reversed $327 $-1 #
edge $-1 $459 -76.747947630237746 $337 76.747947630237746 $335 $460 forward 7 unknown #
vertex $-1 $227 $461 #
vertex $-1 $349 $462 #
straight-curve $-1 76.747947630237746 0 -12.828770072504126 0 -1 0 I I #
coedge $-1 $329 $331 $228 $341 reversed $221 $-1 #
edge $-1 $344 -41.701584191359565 $347 41.701584191359565 $340 $463 forward 7 unknown #
coedge $-1 $335 $229 $234 $350 forward $327 $-1 #
coedge $-1 $229 $335 $329 $454 reversed $327 $-1 #
vertex $-1 $230 $464 #
straight-curve $-1 0 41.701584191359565 12.828770072504126 -1 0 0 I I #
coedge $-1 $231 $330 $233 $349 reversed $139 $-1 #
vertex $-1 $341 $465 #
straight-curve $-1 0 -41.701584191359565 12.828770072504126 1 0 0 I I #
edge $-1 $236 -12.828770072504126 $338 12.828770072504126 $233 $466 forward 7 unknown #
edge $-1 $237 -12.828770072504126 $337 12.828770072504126 $234 $467 forward 7 unknown #
point $-1 76.747947630237746 -41.701584191359565 12.828770072504126 #
point $-1 76.747947630237746 41.701584191359565 12.828770072504126 #
face $-1 $-1 $362 $34 $-1 $468 reversed single #
loop $-1 $-1 $359 $239 #
plane-surface $-1 0 0 12.828770072504126 0 0 1 1 0 0 forward_v I I I I #
coedge $-1 $469 $470 $246 $365 forward $240 $-1 #
coedge $-1 $242 $369 $471 $472 reversed $147 $-1 #
edge $-1 $473 -7.6013604586988679 $252 -2.8534587689116551 $242 $474 forward 7 unknown #
coedge $-1 $471 $475 $243 $360 forward $354 $-1 #
edge $-1 $363 -41.701584191359565 $473 41.701584191359565 $359 $476 forward 7 unknown #
coedge $-1 $366 $244 $475 $477 reversed $362 $-1 #
loop $-1 $-1 $244 $353 #
vertex $-1 $245 $478 #
straight-curve $-1 -68.119717869074066 -41.701584191359565 5.2274096138052615 0 0 1 I I #
edge $-1 $370 -41.701584191359565 $367 41.701584191359565 $356 $479 forward 7 unknown #
coedge $-1 $247 $361 $469 $480 forward $362 $-1 #
vertex $-1 $365 $481 #
straight-curve $-1 -36.216916374827953 -41.701584191359565 8.0808683827169165 1 0 0 I I #
coedge $-1 $357 $249 $470 $482 reversed $147 $-1 #
vertex $-1 $365 $483 #
straight-curve $-1 -36.216916374827953 41.701584191359565 8.0808683827169165 -1 0 0 I I #
point $-1 -68.119717869074066 41.701584191359565 8.0808683827169165 #
point $-1 -68.119717869074066 -41.701584191359565 8.0808683827169165 #
plane-surface $-1 0 0 12.828770072504126 0 0 1 1 0 0 forward_v I I I I #
coedge $-1 $385 $384 $377 $484 forward $256 $-1 #
coedge $-1 $377 $258 $260 $381 reversed $155 $-1 #
coedge $-1 $258 $376 $375 $484 reversed $155 $-1 #
coedge $-1 $266 $261 $258 $379 forward $267 $-1 #
edge $-1 $382 -44.526532936219617 $485 -30.503609256572126 $378 $486 forward 7 unknown #
coedge $-1 $260 $259 $385 $487 reversed $97 $-1 #
edge $-1 $488 9.5705178614098683e-015 $382 18.869705252095368 $376 $489 forward 7 unknown #
vertex $-1 $262 $490 #
straight-curve $-1 -15.04516832191225 -27.678660511712071 12.828770072504126 -1 0 0 I I #
coedge $-1 $375 $263 $266 $389 reversed $256 $-1 #
coedge $-1 $263 $375 $380 $487 forward $256 $-1 #
vertex $-1 $264 $491 #
straight-curve $-1 -18.124838685544066 -41.701584191359565 57.136075893052791 0 0 1 I I #
straight-curve $-1 -18.124838685544066 -41.701584191359572 0.20247260350170393 0 -0.74314481823134659 -0.66913061440640931 I I #
edge $-1 $485 -42.055834602104937 $268 -18.124838685544066 $384 $492 forward 7 unknown #
point $-1 -18.124838685544066 -41.701584191359565 12.828770072504126 #
point $-1 -18.124838685544066 -27.678660511712074 12.828770072504126 #
edge $-1 $493 1 $493 0 $271 $-1 forward 7 unknown #
vertex $-1 $272 $494 #
ellipse-curve $-1 -35.218407197373253 -32.990411741485971 4.627901504003221 0 -0.66913061440640931 0.74314481823134659 2 0 0 1 I I #
point $-1 -33.218407197373253 -34.690122351535813 6.5156213380029122 #
edge $-1 $495 1 $495 0 $275 $-1 forward 7 unknown #
vertex $-1 $276 $496 #
ellipse-curve $-1 -24.96226609027574 -32.990411741485971 4.627901504003221 0 -0.66913061440640931 0.74314481823134659 2 0 0 1 I I #
point $-1 -22.96226609027574 -34.690122351535813 6.5156213380029122 #
plane-surface $-1 0 0 12.828770072504126 0 0 1 1 0 0 forward_v I I I I #
coedge $-1 $411 $410 $403 $497 forward $280 $-1 #
coedge $-1 $403 $282 $284 $407 reversed $177 $-1 #
coedge $-1 $282 $402 $401 $497 reversed $177 $-1 #
coedge $-1 $290 $285 $282 $405 forward $291 $-1 #
edge $-1 $408 -44.526532936219617 $498 -30.503609256572126 $404 $499 forward 7 unknown #
coedge $-1 $284 $283 $411 $500 reversed $111 $-1 #
edge $-1 $501 9.5705178614098683e-015 $408 18.869705252095368 $402 $502 forward 7 unknown #
vertex $-1 $286 $503 #
straight-curve $-1 21.171748052915703 -27.678660511712071 12.828770072504126 -1 0 0 I I #
coedge $-1 $401 $287 $290 $415 reversed $280 $-1 #
coedge $-1 $287 $401 $406 $500 forward $280 $-1 #
vertex $-1 $288 $504 #
straight-curve $-1 54.308994064111843 -41.701584191359565 57.136075893052791 0 0 1 I I #
straight-curve $-1 54.308994064111843 -41.701584191359572 0.20247260350170393 0 -0.74314481823134659 -0.66913061440640931 I I #
edge $-1 $498 30.377998147550972 $292 54.308994064111843 $410 $505 forward 7 unknown #
point $-1 54.308994064111843 -41.701584191359565 12.828770072504126 #
point $-1 54.308994064111843 -27.678660511712074 12.828770072504126 #
edge $-1 $506 1 $506 0 $295 $-1 forward 7 unknown #
vertex $-1 $296 $507 #
ellipse-curve $-1 37.215425552282653 -32.990411741485971 4.627901504003221 0 -0.66913061440640931 0.74314481823134659 2 0 0 1 I I #
point $-1 39.215425552282653 -34.690122351535813 6.5156213380029122 #
edge $-1 $508 1 $508 0 $299 $-1 forward 7 unknown #
vertex $-1 $300 $509 #
ellipse-curve $-1 47.471566659380159 -32.990411741485971 4.627901504003221 0 -0.66913061440640931 0.74314481823134659 2 0 0 1 I I #
point $-1 49.471566659380159 -34.690122351535813 6.5156213380029122 #
loop $-1 $-1 $311 $303 #
plane-surface $-1 0 41.701584191359565 0 0 -1 0 0 0 -1 forward_v I I I I #
coedge $-1 $429 $306 $308 $433 reversed $199 $-1 #
coedge $-1 $306 $428 $510 $511 reversed $199 $-1 #
coedge $-1 $314 $309 $306 $431 forward $304 $-1 #
edge $-1 $434 2.3637989891445237 $512 18.591448892937979 $430 $513 forward 7 unknown #
coedge $-1 $308 $307 $437 $514 reversed $125 $-1 #
edge $-1 $515 -83.403168382719144 $434 -64.665092218497875 $428 $516 forward 7 unknown #
vertex $-1 $310 $517 #
straight-curve $-1 18.162424422824984 25.473934287566109 12.828770072504131 1 0 0 I I #
coedge $-1 $510 $311 $314 $441 reversed $426 $-1 #
coedge $-1 $311 $510 $432 $514 forward $426 $-1 #
vertex $-1 $312 $518 #
straight-curve $-1 28.069907543820683 41.701584191359565 89.046330346743318 0 0 1 I I #
straight-curve $-1 28.069907543820683 -30.527678061623114 45.161316614927472 0 0.8660253999169214 -0.50000000669873634 I I #
edge $-1 $512 -44.579790147479251 $315 -28.069907543820683 $436 $519 forward 7 unknown #
point $-1 28.069907543820683 41.701584191359565 12.828770072504126 #
point $-1 28.069907543820683 25.473934287566109 12.828770072504128 #
edge $-1 $520 1 $520 0 $318 $-1 forward 7 unknown #
vertex $-1 $319 $521 #
ellipse-curve $-1 32.787016859151706 31.48781109279496 4.5070341503718883 0 0.50000000669873634 0.8660253999169214 2 0 0 1 I I #
point $-1 34.787016859151706 33.587759239462848 8.1442509686880857 #
edge $-1 $522 1 $522 0 $322 $-1 forward 7 unknown #
vertex $-1 $323 $523 #
ellipse-curve $-1 39.862680832148229 31.48781109279496 4.5070341503718883 0 0.50000000669873634 0.8660253999169214 2 0 0 1 I I #
point $-1 41.862680832148229 33.587759239462848 8.1442509686880857 #
plane-surface $-1 76.747947630237746 0 0 -1 0 0 0 0 1 forward_v I I I I #
coedge $-1 $331 $329 $333 $457 reversed $221 $-1 #
edge $-1 $344 -12.828770072504126 $459 12.828770072504126 $343 $524 forward 7 unknown #
vertex $-1 $457 $525 #
straight-curve $-1 -76.747947630237746 -41.701584191359565 0 0 0 -1 I I #
edge $-1 $455 -41.701584191359565 $459 41.701584191359565 $453 $526 forward 7 unknown #
straight-curve $-1 0 -41.701584191359565 -12.828770072504126 -1 0 0 I I #
vertex $-1 $336 $527 #
straight-curve $-1 0 41.701584191359565 -12.828770072504126 1 0 0 I I #
point $-1 76.747947630237746 41.701584191359565 -12.828770072504126 #
point $-1 76.747947630237746 -41.701584191359565 -12.828770072504126 #
straight-curve $-1 -76.747947630237746 0 12.828770072504126 0 -1 0 I I #
point $-1 -76.747947630237746 41.701584191359565 12.828770072504126 #
point $-1 -76.747947630237746 -41.701584191359565 12.828770072504126 #
straight-curve $-1 76.747947630237746 -41.701584191359565 0 0 0 -1 I I #
straight-curve $-1 76.747947630237746 41.701584191359565 0 0 0 -1 I I #
plane-surface $-1 0 -41.701584191359565 0 0 1 0 0 0 1 forward_v I I I I #
coedge $-1 $528 $356 $366 $480 reversed $240 $-1 #
coedge $-1 $356 $528 $369 $482 forward $240 $-1 #
coedge $-1 $529 $359 $357 $472 forward $354 $-1 #
edge $-1 $473 68.119717869074066 $530 76.747947630237746 $357 $531 forward 7 unknown #
vertex $-1 $472 $532 #
straight-curve $-1 -68.119717869074066 41.701584191359565 5.2274096138052615 0 0 -1 I I #
coedge $-1 $359 $529 $361 $477 forward $354 $-1 #
straight-curve $-1 -68.119717869074066 0 12.828770072504126 0 1 0 I I #
edge $-1 $533 -76.747947630237746 $363 -68.119717869074066 $361 $534 forward 7 unknown #
point $-1 -68.119717869074066 -41.701584191359565 12.828770072504129 #
straight-curve $-1 -76.747947630237746 0 8.0808683827169165 0 -1 0 I I #
edge $-1 $533 -12.828770072504126 $367 -8.0808683827169165 $469 $535 forward 7 unknown #
point $-1 -76.747947630237746 -41.701584191359565 8.0808683827169165 #
edge $-1 $530 -12.828770072504126 $370 -8.0808683827169165 $369 $536 forward 7 unknown #
point $-1 -76.747947630237746 41.701584191359565 8.0808683827169165 #
edge $-1 $485 44.307305820548663 $488 56.93360328955108 $375 $537 forward 7 unknown #
vertex $-1 $389 $538 #
straight-curve $-1 -42.055834602104937 -72.205193447931691 12.828770072504128 0 -1 0 I I #
edge $-1 $488 -27.010666280192687 $386 -3.0796703636318163 $385 $539 forward 7 unknown #
vertex $-1 $487 $540 #
straight-curve $-1 -42.055834602104937 -41.701584191359572 0.20247260350170393 0 0.74314481823134659 0.66913061440640931 I I #
point $-1 -42.055834602104937 -27.678660511712074 12.828770072504126 #
point $-1 -18.124838685544066 -41.701584191359565 0.20247260350171034 #
straight-curve $-1 0 -41.701584191359565 12.828770072504126 1 0 0 I I #
vertex $-1 $392 $541 #
point $-1 -33.218407197373253 -32.990411741485971 4.627901504003221 #
vertex $-1 $396 $542 #
point $-1 -22.96226609027574 -32.990411741485971 4.627901504003221 #
edge $-1 $498 44.307305820548663 $501 56.93360328955108 $401 $543 forward 7 unknown #
vertex $-1 $415 $544 #
straight-curve $-1 30.377998147550972 -72.205193447931691 12.828770072504128 0 -1 0 I I #
edge $-1 $501 9.2062500946352692 $412 33.13724601119614 $411 $545 forward 7 unknown #
vertex $-1 $500 $546 #
straight-curve $-1 30.377998147550972 -41.701584191359572 0.20247260350170393 0 0.74314481823134659 0.66913061440640931 I I #
point $-1 30.377998147550972 -27.678660511712074 12.828770072504126 #
point $-1 54.308994064111843 -41.701584191359565 0.20247260350171034 #
straight-curve $-1 0 -41.701584191359565 12.828770072504126 1 0 0 I I #
vertex $-1 $418 $547 #
point $-1 39.215425552282653 -32.990411741485971 4.627901504003221 #
vertex $-1 $422 $548 #
point $-1 49.471566659380159 -32.990411741485971 4.627901504003221 #
coedge $-1 $437 $436 $429 $511 forward $426 $-1 #
edge $-1 $512 76.21756027423919 $515 85.586598481871249 $510 $549 forward 7 unknown #
vertex $-1 $441 $550 #
straight-curve $-1 44.579790147479251 23.110135298421586 12.828770072504128 0 1 0 I I #
edge $-1 $515 -26.417365724654267 $438 -9.9074831209956997 $437 $551 forward 7 unknown #
vertex $-1 $514 $552 #
straight-curve $-1 44.579790147479251 -30.527678061623114 45.161316614927472 0 -0.8660253999169214 0.50000000669873634 I I #
point $-1 44.579790147479251 25.473934287566109 12.828770072504128 #
point $-1 28.069907543820683 41.701584191359565 3.4597318648720616 #
straight-curve $-1 0 41.701584191359565 12.828770072504126 -1 0 0 I I #
vertex $-1 $444 $553 #
point $-1 34.787016859151706 31.48781109279496 4.5070341503718883 #
vertex $-1 $448 $554 #
point $-1 41.862680832148229 31.48781109279496 4.5070341503718883 #
straight-curve $-1 -76.747947630237746 41.701584191359565 0 0 0 -1 I I #
point $-1 -76.747947630237746 -41.701584191359565 -12.828770072504126 #
straight-curve $-1 -76.747947630237746 0 -12.828770072504126 0 1 0 I I #
point $-1 -76.747947630237746 41.701584191359565 -12.828770072504126 #
coedge $-1 $470 $469 $529 $555 reversed $240 $-1 #
coedge $-1 $475 $471 $528 $555 forward $354 $-1 #
vertex $-1 $472 $556 #
straight-curve $-1 0 41.701584191359565 12.828770072504126 -1 0 0 I I #
point $-1 -68.119717869074066 41.701584191359565 12.828770072504129 #
vertex $-1 $555 $557 #
straight-curve $-1 0 -41.701584191359565 12.828770072504126 1 0 0 I I #
straight-curve $-1 -76.747947630237746 -41.701584191359565 0 0 0 -1 I I #
straight-curve $-1 -76.747947630237746 41.701584191359565 0 0 0 -1 I I #
straight-curve $-1 -42.055834602104937 -41.701584191359565 57.136075893052791 0 0 -1 I I #
point $-1 -42.055834602104937 -41.701584191359565 12.828770072504126 #
straight-curve $-1 -15.04516832191225 -41.701584191359565 0.20247260350171395 1 0 0 I I #
point $-1 -42.055834602104937 -41.701584191359565 0.20247260350171034 #
point $-1 -35.218407197373253 -31.652150512673156 3.1416118675405276 #
point $-1 -24.96226609027574 -31.652150512673156 3.1416118675405276 #
straight-curve $-1 30.377998147550972 -41.701584191359565 57.136075893052791 0 0 -1 I I #
point $-1 30.377998147550972 -41.701584191359565 12.828770072504126 #
straight-curve $-1 21.171748052915703 -41.701584191359565 0.20247260350171395 1 0 0 I I #
point $-1 30.377998147550972 -41.701584191359565 0.20247260350171034 #
point $-1 37.215425552282653 -31.652150512673156 3.1416118675405276 #
point $-1 47.471566659380159 -31.652150512673156 3.1416118675405276 #
straight-curve $-1 44.579790147479251 41.701584191359565 89.046330346743318 0 0 -1 I I #
point $-1 44.579790147479251 41.701584191359565 12.828770072504126 #
straight-curve $-1 18.162424422824984 41.701584191359565 3.4597318648720652 -1 0 0 I I #
point $-1 44.579790147479251 41.701584191359565 3.4597318648720616 #
point $-1 32.787016859151706 30.487811079397485 2.7749833505380455 #
point $-1 39.862680832148229 30.487811079397485 2.7749833505380455 #
edge $-1 $530 -41.701584191359565 $533 41.701584191359565 $528 $558 forward 7 unknown #
point $-1 -76.747947630237746 41.701584191359565 12.828770072504126 #
point $-1 -76.747947630237746 -41.701584191359565 12.828770072504126 #
straight-curve $-1 -76.747947630237746 0 12.828770072504126 0 -1 0 I I #
End-of-ACIS-data 