500 0 14 0           
7 Unknown 11 ACIS 5.0 NT 24 Fri Mar 26 19:29:25 1999 
-1 9.9999999999999995e-007 1e-010 
body $-1 $14 $-1 $15 #
body $-1 $16 $-1 $17 #
body $-1 $18 $-1 $19 #
body $-1 $20 $-1 $21 #
body $-1 $22 $-1 $23 #
body $-1 $24 $-1 $25 #
body $-1 $26 $-1 $27 #
body $-1 $28 $-1 $29 #
body $-1 $30 $-1 $31 #
body $-1 $32 $-1 $33 #
body $-1 $34 $-1 $35 #
body $-1 $36 $-1 $37 #
body $-1 $38 $-1 $39 #
body $-1 $40 $-1 $41 #
lump $-1 $-1 $42 $0 #
transform $-1 1 0 0 0 1 0 0 0 1 69.657887508774081 28.712008865085412 12.784804655450367 1 rotate no_reflect no_shear #
lump $-1 $-1 $43 $1 #
transform $-1 1 0 0 0 1 0 0 0 1 69.657887508774081 28.712008865085412 12.784804655450367 1 rotate no_reflect no_shear #
lump $-1 $-1 $44 $2 #
transform $-1 1 0 0 0 1 0 0 0 1 69.657887508774081 28.712008865085412 12.784804655450367 1 rotate no_reflect no_shear #
lump $-1 $-1 $45 $3 #
transform $-1 1 0 0 0 1 0 0 0 1 69.657887508774081 28.712008865085412 12.784804655450367 1 rotate no_reflect no_shear #
lump $-1 $-1 $46 $4 #
transform $-1 1 0 0 0 1 0 0 0 1 69.657887508774081 28.712008865085412 12.784804655450367 1 rotate no_reflect no_shear #
lump $-1 $-1 $47 $5 #
transform $-1 1 0 0 0 1 0 0 0 1 69.657887508774081 28.712008865085412 12.784804655450367 1 rotate no_reflect no_shear #
lump $-1 $-1 $48 $6 #
transform $-1 1 0 0 0 1 0 0 0 1 69.657887508774081 28.712008865085412 12.784804655450367 1 rotate no_reflect no_shear #
lump $-1 $-1 $49 $7 #
transform $-1 1 0 0 0 1 0 0 0 1 69.657887508774081 28.712008865085412 12.784804655450367 1 rotate no_reflect no_shear #
lump $-1 $-1 $50 $8 #
transform $-1 1 0 0 0 1 0 0 0 1 69.657887508774081 28.712008865085412 12.784804655450367 1 rotate no_reflect no_shear #
lump $-1 $-1 $51 $9 #
transform $-1 1 0 0 0 1 0 0 0 1 69.657887508774081 28.712008865085412 12.784804655450367 1 rotate no_reflect no_shear #
lump $-1 $-1 $52 $10 #
transform $-1 1 0 0 0 1 0 0 0 1 69.657887508774081 28.712008865085412 12.784804655450367 1 rotate no_reflect no_shear #
lump $-1 $-1 $53 $11 #
transform $-1 1 0 0 0 1 0 0 0 1 69.657887508774081 28.712008865085412 12.784804655450367 1 rotate no_reflect no_shear #
lump $-1 $-1 $54 $12 #
transform $-1 1 0 0 0 1 0 0 0 1 69.657887508774081 28.712008865085412 12.784804655450367 1 rotate no_reflect no_shear #
lump $-1 $-1 $55 $13 #
transform $-1 1 0 0 0 1 0 0 0 1 69.657887508774081 28.712008865085412 12.784804655450367 1 rotate no_reflect no_shear #
shell $-1 $-1 $-1 $56 $-1 $14 #
shell $-1 $-1 $-1 $57 $-1 $16 #
shell $-1 $-1 $-1 $58 $-1 $18 #
shell $-1 $-1 $-1 $59 $-1 $20 #
shell $-1 $-1 $-1 $60 $-1 $22 #
shell $-1 $-1 $-1 $61 $-1 $24 #
shell $-1 $-1 $-1 $62 $-1 $26 #
shell $-1 $-1 $-1 $63 $-1 $28 #
shell $-1 $-1 $-1 $64 $-1 $30 #
shell $-1 $-1 $-1 $65 $-1 $32 #
shell $-1 $-1 $-1 $66 $-1 $34 #
shell $-1 $-1 $-1 $67 $-1 $36 #
shell $-1 $-1 $-1 $68 $-1 $38 #
shell $-1 $-1 $-1 $69 $-1 $40 #
face $-1 $70 $71 $42 $-1 $72 forward single #
face $-1 $73 $74 $43 $-1 $75 forward single #
face $-1 $76 $77 $44 $-1 $78 forward single #
face $-1 $79 $80 $45 $-1 $81 reversed single #
face $-1 $82 $83 $46 $-1 $84 forward single #
face $-1 $85 $86 $47 $-1 $87 forward single #
face $-1 $88 $89 $48 $-1 $90 reversed single #
face $-1 $91 $92 $49 $-1 $93 forward single #
face $-1 $94 $95 $50 $-1 $96 forward single #
face $-1 $97 $98 $51 $-1 $99 reversed single #
face $-1 $100 $101 $52 $-1 $102 forward single #
face $-1 $103 $104 $53 $-1 $105 forward single #
face $-1 $106 $107 $54 $-1 $108 reversed single #
face $-1 $109 $110 $55 $-1 $111 forward single #
face $-1 $112 $113 $42 $-1 $114 reversed single #
loop $-1 $-1 $115 $56 #
plane-surface $-1 0 0 12.784804655450367 0 0 1 1 0 0 forward_v I I I I #
face $-1 $116 $117 $43 $-1 $118 forward single #
loop $-1 $-1 $119 $57 #
plane-surface $-1 0 -28.712008865085412 0 0 1 0 0 0 1 forward_v I I I I #
face $-1 $120 $121 $44 $-1 $122 forward single #
loop $-1 $-1 $123 $58 #
plane-surface $-1 0 28.712008865085412 0 0 -1 0 0 0 -1 forward_v I I I I #
face $-1 $124 $125 $45 $-1 $126 reversed single #
loop $-1 $-1 $127 $59 #
plane-surface $-1 -169.87327044173267 -15.406382572682009 105.7786972320452 0 1 0 -0.71933980857756763 0 0.69465836192734942 forward_v I I I I #
face $-1 $128 $129 $46 $-1 $130 forward single #
loop $-1 $131 $132 $60 #
cone-surface $-1 -67.450312629321743 -13.670490176766442 10.525402591014691 0.71933980857756763 0 -0.69465836192734942 0.34732918096367471 0 0.35966990428878381 1 I I 0 1 0.5 forward I I I I #
face $-1 $133 $134 $47 $-1 $135 forward single #
loop $-1 $136 $137 $61 #
cone-surface $-1 -67.450312629321743 -11.066651582893094 10.525402591014691 0.71933980857756763 0 -0.69465836192734942 0.34732918096367471 0 0.35966990428878381 1 I I 0 1 0.5 forward I I I I #
face $-1 $138 $139 $48 $-1 $140 reversed single #
loop $-1 $-1 $141 $62 #
plane-surface $-1 -169.87327044173267 -3.0378116928522436 105.7786972320452 0 1 0 -0.71933980857756763 0 0.69465836192734942 forward_v I I I I #
face $-1 $142 $143 $49 $-1 $144 forward single #
loop $-1 $145 $146 $63 #
cone-surface $-1 -67.450312629321743 -1.3019192969366777 10.525402591014691 0.71933980857756763 0 -0.69465836192734942 0.34732918096367471 0 0.35966990428878381 1 I I 0 1 0.5 forward I I I I #
face $-1 $147 $148 $50 $-1 $149 forward single #
loop $-1 $150 $151 $64 #
cone-surface $-1 -67.450312629321743 1.3019192969366706 10.525402591014691 0.71933980857756763 0 -0.69465836192734942 0.34732918096367471 0 0.35966990428878381 1 I I 0 1 0.5 forward I I I I #
face $-1 $152 $153 $51 $-1 $154 reversed single #
loop $-1 $-1 $155 $65 #
plane-surface $-1 -169.87327044173267 9.3307591869775237 105.7786972320452 0 1 0 -0.71933980857756763 0 0.69465836192734942 forward_v I I I I #
face $-1 $156 $157 $52 $-1 $158 forward single #
loop $-1 $159 $160 $66 #
cone-surface $-1 -67.450312629321743 11.06665158289309 10.525402591014691 0.71933980857756763 0 -0.69465836192734942 0.34732918096367471 0 0.35966990428878381 1 I I 0 1 0.5 forward I I I I #
face $-1 $161 $162 $53 $-1 $163 forward single #
loop $-1 $164 $165 $67 #
cone-surface $-1 -67.450312629321743 13.670490176766439 10.525402591014691 0.71933980857756763 0 -0.69465836192734942 0.34732918096367471 0 0.35966990428878381 1 I I 0 1 0.5 forward I I I I #
face $-1 $166 $167 $54 $-1 $168 reversed single #
loop $-1 $-1 $169 $68 #
plane-surface $-1 28.694658258716686 8.611279947927315 193.93162638902652 0 -1 0 -0.54463904215088732 0 -0.83867056331134215 forward_v I I I I #
face $-1 $170 $171 $55 $-1 $172 forward single #
loop $-1 $173 $174 $69 #
cone-surface $-1 59.308507403156511 3.5566815191477268 4.7804759015959508 -0.54463904215088732 0 -0.83867056331134215 1.2580058449670133 0 -0.81695856322633098 1 I I 0 1 1.5 forward I I I I #
face $-1 $175 $176 $42 $-1 $177 reversed single #
loop $-1 $-1 $178 $70 #
plane-surface $-1 0 0 -12.784804655450367 0 0 1 1 0 0 forward_v I I I I #
coedge $-1 $179 $180 $181 $182 forward $71 $-1 #
face $-1 $183 $184 $43 $-1 $185 reversed single #
loop $-1 $-1 $186 $73 #
plane-surface $-1 0 0 12.784804655450367 0 0 1 1 0 0 forward_v I I I I #
coedge $-1 $187 $188 $189 $190 forward $74 $-1 #
face $-1 $191 $192 $44 $-1 $193 reversed single #
loop $-1 $-1 $194 $76 #
plane-surface $-1 0 0 12.784804655450367 0 0 1 1 0 0 forward_v I I I I #
coedge $-1 $195 $196 $197 $198 forward $77 $-1 #
face $-1 $199 $200 $45 $-1 $201 reversed single #
loop $-1 $-1 $202 $79 #
plane-surface $-1 -69.657887508774095 -12.368570879829768 9.0018291677160533 -0.71933980857756763 0 0.69465836192734942 0.69465836192734942 0 0.71933980857756763 forward_v I I I I #
coedge $-1 $203 $204 $205 $206 reversed $80 $-1 #
face $-1 $-1 $207 $46 $-1 $208 forward single #
loop $-1 $209 $210 $82 #
cone-surface $-1 -66.889491236308203 -13.670490176766442 9.9838236799643507 0.71933980857756763 0 -0.69465836192734942 0.17366459048183736 0 0.17983495214439191 1 I I -0.70710678118654746 0.70710678118654746 0.25 forward I I I I #
loop $-1 $-1 $211 $60 #
coedge $-1 $132 $132 $212 $213 reversed $83 $-1 #
face $-1 $-1 $214 $47 $-1 $215 forward single #
loop $-1 $216 $217 $85 #
cone-surface $-1 -66.889491236308203 -11.066651582893094 9.9838236799643507 0.71933980857756763 0 -0.69465836192734942 0.17366459048183736 0 0.17983495214439191 1 I I -0.70710678118654746 0.70710678118654746 0.25 forward I I I I #
loop $-1 $-1 $218 $61 #
coedge $-1 $137 $137 $219 $220 reversed $86 $-1 #
face $-1 $221 $222 $48 $-1 $223 reversed single #
loop $-1 $-1 $224 $88 #
plane-surface $-1 -69.657887508774095 -3.5527136788005009e-015 9.0018291677160533 -0.71933980857756763 0 0.69465836192734942 0.69465836192734942 0 0.71933980857756763 forward_v I I I I #
coedge $-1 $225 $226 $227 $228 reversed $89 $-1 #
face $-1 $-1 $229 $49 $-1 $230 forward single #
loop $-1 $231 $232 $91 #
cone-surface $-1 -66.889491236308203 -1.3019192969366777 9.9838236799643507 0.71933980857756763 0 -0.69465836192734942 0.17366459048183736 0 0.17983495214439191 1 I I -0.70710678118654746 0.70710678118654746 0.25 forward I I I I #
loop $-1 $-1 $233 $63 #
coedge $-1 $146 $146 $234 $235 reversed $92 $-1 #
face $-1 $-1 $236 $50 $-1 $237 forward single #
loop $-1 $238 $239 $94 #
cone-surface $-1 -66.889491236308203 1.3019192969366706 9.9838236799643507 0.71933980857756763 0 -0.69465836192734942 0.17366459048183736 0 0.17983495214439191 1 I I -0.70710678118654746 0.70710678118654746 0.25 forward I I I I #
loop $-1 $-1 $240 $64 #
coedge $-1 $151 $151 $241 $242 reversed $95 $-1 #
face $-1 $243 $244 $51 $-1 $245 reversed single #
loop $-1 $-1 $246 $97 #
plane-surface $-1 -69.657887508774095 12.368570879829765 9.0018291677160533 -0.71933980857756763 0 0.69465836192734942 0.69465836192734942 0 0.71933980857756763 forward_v I I I I #
coedge $-1 $247 $248 $249 $250 reversed $98 $-1 #
face $-1 $-1 $251 $52 $-1 $252 forward single #
loop $-1 $253 $254 $100 #
cone-surface $-1 -66.889491236308203 11.06665158289309 9.9838236799643507 0.71933980857756763 0 -0.69465836192734942 0.17366459048183736 0 0.17983495214439191 1 I I -0.70710678118654746 0.70710678118654746 0.25 forward I I I I #
loop $-1 $-1 $255 $66 #
coedge $-1 $160 $160 $256 $257 reversed $101 $-1 #
face $-1 $-1 $258 $53 $-1 $259 forward single #
loop $-1 $260 $261 $103 #
cone-surface $-1 -66.889491236308203 13.670490176766439 9.9838236799643507 0.71933980857756763 0 -0.69465836192734942 0.17366459048183736 0 0.17983495214439191 1 I I -0.70710678118654746 0.70710678118654746 0.25 forward I I I I #
loop $-1 $-1 $262 $67 #
coedge $-1 $165 $165 $263 $264 reversed $104 $-1 #
face $-1 $265 $266 $54 $-1 $267 reversed single #
loop $-1 $-1 $268 $106 #
plane-surface $-1 -47.182152003349259 3.5566815191477268 77.091586876903193 0.54463904215088732 0 0.83867056331134215 0.83867056331134215 0 -0.54463904215088732 forward_v I I I I #
coedge $-1 $269 $270 $271 $272 reversed $107 $-1 #
face $-1 $-1 $273 $55 $-1 $274 forward single #
loop $-1 $275 $276 $109 #
cone-surface $-1 57.458788255035543 3.5566815191477268 1.9321582455645707 -0.54463904215088732 0 -0.83867056331134215 0.62900292248350664 0 -0.40847928161316549 1 I I -0.70710678118654757 0.70710678118654757 0.75 forward I I I I #
loop $-1 $-1 $277 $69 #
coedge $-1 $174 $174 $278 $279 reversed $110 $-1 #
face $-1 $280 $281 $42 $-1 $282 reversed single #
loop $-1 $-1 $283 $112 #
plane-surface $-1 0 -28.712008865085412 0 0 1 0 0 0 1 forward_v I I I I #
coedge $-1 $284 $285 $286 $287 forward $113 $-1 #
coedge $-1 $288 $115 $289 $290 forward $71 $-1 #
coedge $-1 $115 $288 $291 $292 forward $71 $-1 #
coedge $-1 $293 $294 $115 $182 reversed $295 $-1 #
edge $-1 $296 -28.712008865085412 $297 28.712008865085412 $181 $298 forward 7 unknown #
face $-1 $299 $300 $43 $-1 $301 reversed single #
loop $-1 $-1 $302 $116 #
plane-surface $-1 -69.657887508774081 0 0 1 0 0 0 0 -1 forward_v I I I I #
coedge $-1 $303 $304 $188 $305 forward $117 $-1 #
coedge $-1 $306 $119 $307 $308 reversed $74 $-1 #
coedge $-1 $119 $306 $186 $305 reversed $74 $-1 #
coedge $-1 $309 $310 $119 $190 reversed $311 $-1 #
edge $-1 $312 -12.784804655450367 $313 12.784804655450367 $189 $314 forward 7 unknown #
face $-1 $315 $316 $44 $-1 $317 reversed single #
loop $-1 $-1 $318 $120 #
plane-surface $-1 -67.645413253201482 37.86895986366585 0 0 -1 0 0 0 -1 forward_v I I I I #
coedge $-1 $319 $320 $195 $321 forward $121 $-1 #
coedge $-1 $322 $123 $194 $321 reversed $77 $-1 #
coedge $-1 $123 $322 $323 $324 reversed $77 $-1 #
coedge $-1 $325 $326 $123 $198 reversed $316 $-1 #
edge $-1 $327 -12.784804655450367 $328 12.784804655450367 $197 $329 forward 7 unknown #
face $-1 $330 $331 $45 $-1 $332 reversed single #
loop $-1 $-1 $333 $124 #
plane-surface $-1 -169.87327044173267 -9.3307591869775273 105.7786972320452 0 -1 0 0.71933980857756763 0 -0.69465836192734942 forward_v I I I I #
coedge $-1 $334 $335 $336 $337 reversed $125 $-1 #
coedge $-1 $204 $127 $338 $339 reversed $80 $-1 #
coedge $-1 $127 $203 $334 $340 reversed $80 $-1 #
coedge $-1 $336 $341 $127 $206 forward $342 $-1 #
edge $-1 $343 15.278747712092255 $344 18.931924589258585 $205 $345 forward 7 unknown #
loop $-1 $-1 $212 $128 #
plane-surface $-1 -69.657887508774095 -12.368570879829768 9.0018291677160533 -0.71933980857756763 0 0.69465836192734942 0.69465836192734942 0 0.71933980857756763 forward_v I I I I #
loop $-1 $-1 $346 $82 #
coedge $-1 $210 $210 $211 $347 reversed $129 $-1 #
coedge $-1 $211 $211 $210 $347 forward $131 $-1 #
coedge $-1 $212 $212 $132 $213 forward $207 $-1 #
edge $-1 $348 0 $348 6.2831853071796004 $212 $349 forward 7 unknown #
loop $-1 $-1 $219 $133 #
plane-surface $-1 -69.657887508774095 -12.368570879829768 9.0018291677160533 -0.71933980857756763 0 0.69465836192734942 0.69465836192734942 0 0.71933980857756763 forward_v I I I I #
loop $-1 $-1 $350 $85 #
coedge $-1 $217 $217 $218 $351 reversed $134 $-1 #
coedge $-1 $218 $218 $217 $351 forward $136 $-1 #
coedge $-1 $219 $219 $137 $220 forward $214 $-1 #
edge $-1 $352 0 $352 6.2831853071796004 $219 $353 forward 7 unknown #
face $-1 $354 $355 $48 $-1 $356 forward single #
loop $-1 $-1 $357 $138 #
plane-surface $-1 -169.87327044173267 3.0378116928522365 105.7786972320452 0 -1 0 0.71933980857756763 0 -0.69465836192734942 forward_v I I I I #
coedge $-1 $358 $359 $360 $361 reversed $139 $-1 #
coedge $-1 $226 $141 $362 $363 reversed $89 $-1 #
coedge $-1 $141 $225 $358 $364 reversed $89 $-1 #
coedge $-1 $360 $365 $141 $228 forward $355 $-1 #
edge $-1 $366 15.278747712092255 $367 18.931924589258585 $227 $368 forward 7 unknown #
loop $-1 $-1 $234 $142 #
plane-surface $-1 -69.657887508774095 -3.5527136788005009e-015 9.0018291677160533 -0.71933980857756763 0 0.69465836192734942 0.69465836192734942 0 0.71933980857756763 forward_v I I I I #
loop $-1 $-1 $369 $91 #
coedge $-1 $232 $232 $233 $370 reversed $143 $-1 #
coedge $-1 $233 $233 $232 $370 forward $145 $-1 #
coedge $-1 $234 $234 $146 $235 forward $229 $-1 #
edge $-1 $371 0 $371 6.2831853071796004 $234 $372 forward 7 unknown #
loop $-1 $-1 $241 $147 #
plane-surface $-1 -69.657887508774095 -3.5527136788005009e-015 9.0018291677160533 -0.71933980857756763 0 0.69465836192734942 0.69465836192734942 0 0.71933980857756763 forward_v I I I I #
loop $-1 $-1 $373 $94 #
coedge $-1 $239 $239 $240 $374 reversed $148 $-1 #
coedge $-1 $240 $240 $239 $374 forward $150 $-1 #
coedge $-1 $241 $241 $151 $242 forward $236 $-1 #
edge $-1 $375 0 $375 6.2831853071796004 $241 $376 forward 7 unknown #
face $-1 $377 $378 $51 $-1 $379 forward single #
loop $-1 $-1 $380 $152 #
plane-surface $-1 -169.87327044173267 15.406382572682006 105.7786972320452 0 -1 0 0.71933980857756763 0 -0.69465836192734942 forward_v I I I I #
coedge $-1 $381 $382 $383 $384 reversed $153 $-1 #
coedge $-1 $248 $155 $385 $386 reversed $98 $-1 #
coedge $-1 $155 $247 $381 $387 reversed $98 $-1 #
coedge $-1 $383 $388 $155 $250 forward $378 $-1 #
edge $-1 $389 15.278747712092255 $390 18.931924589258585 $249 $391 forward 7 unknown #
loop $-1 $-1 $256 $156 #
plane-surface $-1 -69.657887508774095 12.368570879829765 9.0018291677160533 -0.71933980857756763 0 0.69465836192734942 0.69465836192734942 0 0.71933980857756763 forward_v I I I I #
loop $-1 $-1 $392 $100 #
coedge $-1 $254 $254 $255 $393 reversed $157 $-1 #
coedge $-1 $255 $255 $254 $393 forward $159 $-1 #
coedge $-1 $256 $256 $160 $257 forward $251 $-1 #
edge $-1 $394 0 $394 6.2831853071796004 $256 $395 forward 7 unknown #
loop $-1 $-1 $263 $161 #
plane-surface $-1 -69.657887508774095 12.368570879829765 9.0018291677160533 -0.71933980857756763 0 0.69465836192734942 0.69465836192734942 0 0.71933980857756763 forward_v I I I I #
loop $-1 $-1 $396 $103 #
coedge $-1 $261 $261 $262 $397 reversed $162 $-1 #
coedge $-1 $262 $262 $261 $397 forward $164 $-1 #
coedge $-1 $263 $263 $165 $264 forward $258 $-1 #
edge $-1 $398 0 $398 6.2831853071796004 $263 $399 forward 7 unknown #
face $-1 $400 $401 $54 $-1 $402 forward single #
loop $-1 $-1 $403 $166 #
plane-surface $-1 28.694658258716686 -1.4979169096318614 193.93162638902652 0 1 0 0.54463904215088732 0 0.83867056331134215 forward_v I I I I #
coedge $-1 $404 $405 $406 $407 reversed $167 $-1 #
coedge $-1 $270 $169 $408 $409 reversed $107 $-1 #
coedge $-1 $169 $269 $404 $410 reversed $107 $-1 #
coedge $-1 $406 $411 $169 $272 forward $401 $-1 #
edge $-1 $412 -55.310558379415738 $413 -37.494277901196199 $271 $414 forward 7 unknown #
loop $-1 $-1 $278 $170 #
plane-surface $-1 -47.182152003349259 3.5566815191477268 77.091586876903193 0.54463904215088732 0 0.83867056331134215 0.83867056331134215 0 -0.54463904215088732 forward_v I I I I #
loop $-1 $-1 $415 $109 #
coedge $-1 $276 $276 $277 $416 reversed $171 $-1 #
coedge $-1 $277 $277 $276 $416 forward $173 $-1 #
coedge $-1 $278 $278 $174 $279 forward $273 $-1 #
edge $-1 $417 0 $417 6.2831853071796004 $278 $418 forward 7 unknown #
face $-1 $419 $420 $42 $-1 $421 reversed single #
loop $-1 $-1 $422 $175 #
plane-surface $-1 -69.657887508774081 0 0 1 0 0 0 0 -1 forward_v I I I I #
coedge $-1 $423 $291 $424 $425 forward $176 $-1 #
coedge $-1 $426 $178 $423 $427 forward $113 $-1 #
coedge $-1 $178 $426 $428 $429 forward $113 $-1 #
coedge $-1 $294 $293 $178 $287 reversed $295 $-1 #
edge $-1 $430 -28.712008865085412 $431 28.712008865085412 $286 $432 forward 7 unknown #
coedge $-1 $180 $179 $433 $434 forward $71 $-1 #
coedge $-1 $435 $436 $179 $290 reversed $420 $-1 #
edge $-1 $297 -69.657887508774081 $437 69.657887508774081 $289 $438 forward 7 unknown #
coedge $-1 $283 $439 $180 $292 reversed $176 $-1 #
edge $-1 $440 -69.657887508774081 $296 69.657887508774081 $291 $441 forward 7 unknown #
coedge $-1 $286 $181 $439 $442 forward $295 $-1 #
coedge $-1 $181 $286 $435 $443 reversed $295 $-1 #
loop $-1 $-1 $293 $419 #
vertex $-1 $182 $444 #
vertex $-1 $182 $445 #
straight-curve $-1 69.657887508774081 0 12.784804655450367 0 1 0 I I #
face $-1 $446 $311 $43 $-1 $447 reversed single #
loop $-1 $-1 $448 $183 #
plane-surface $-1 -67.645413253201482 -37.86895986366585 0 0 1 0 0 0 1 forward_v I I I I #
coedge $-1 $449 $450 $306 $451 forward $184 $-1 #
coedge $-1 $452 $186 $450 $453 forward $117 $-1 #
coedge $-1 $186 $452 $309 $454 forward $117 $-1 #
edge $-1 $312 65.632938997628884 $455 69.657887508774081 $186 $456 forward 7 unknown #
coedge $-1 $188 $187 $302 $451 reversed $74 $-1 #
coedge $-1 $457 $458 $187 $308 forward $459 $-1 #
edge $-1 $460 -69.657887508774081 $313 -65.632938997628884 $307 $461 forward 7 unknown #
coedge $-1 $462 $189 $304 $454 reversed $311 $-1 #
coedge $-1 $189 $462 $457 $463 reversed $311 $-1 #
loop $-1 $-1 $462 $299 #
vertex $-1 $305 $464 #
vertex $-1 $463 $465 #
straight-curve $-1 -65.632938997628884 -28.712008865085412 0 0 0 -1 I I #
face $-1 $466 $467 $44 $-1 $468 reversed single #
loop $-1 $-1 $197 $191 #
plane-surface $-1 -65.632938997628884 33.290484364375629 0 -1 0 0 0 0 1 forward_v I I I I #
coedge $-1 $469 $470 $471 $472 forward $192 $-1 #
coedge $-1 $473 $194 $326 $474 forward $121 $-1 #
coedge $-1 $194 $473 $475 $476 forward $121 $-1 #
edge $-1 $477 -69.657887508774081 $328 -65.632938997628884 $194 $478 forward 7 unknown #
coedge $-1 $196 $195 $479 $480 reversed $77 $-1 #
coedge $-1 $481 $482 $196 $324 forward $467 $-1 #
edge $-1 $327 65.632938997628884 $483 69.657887508774081 $323 $484 forward 7 unknown #
coedge $-1 $471 $197 $482 $485 reversed $316 $-1 #
coedge $-1 $197 $471 $319 $474 reversed $316 $-1 #
vertex $-1 $324 $486 #
vertex $-1 $474 $487 #
straight-curve $-1 -65.632938997628884 28.712008865085412 0 0 0 1 I I #
face $-1 $-1 $342 $45 $-1 $488 forward single #
loop $-1 $-1 $489 $199 #
plane-surface $-1 -69.657887508774081 0 0 1 0 0 0 0 -1 forward_v I I I I #
coedge $-1 $490 $491 $492 $493 reversed $200 $-1 #
coedge $-1 $494 $202 $204 $340 forward $125 $-1 #
coedge $-1 $202 $494 $490 $495 forward $125 $-1 #
coedge $-1 $492 $205 $202 $337 forward $342 $-1 #
edge $-1 $344 -9.2220971327671251 $496 -3.1464737470626432 $336 $497 forward 7 unknown #
coedge $-1 $498 $499 $203 $339 forward $331 $-1 #
edge $-1 $500 -43.887519448306534 $343 -40.104543960572236 $338 $501 forward 7 unknown #
edge $-1 $344 -5.2589547285236753 $500 -2.0094122568606809e-014 $204 $502 forward 7 unknown #
coedge $-1 $205 $492 $498 $503 forward $342 $-1 #
loop $-1 $-1 $492 $330 #
vertex $-1 $339 $504 #
vertex $-1 $206 $505 #
straight-curve $-1 -84.936635220866336 -15.406382572682009 12.784804655450365 1 0 0 I I #
coedge $-1 $346 $346 $-1 $506 reversed $209 $-1 #
edge $-1 $507 0 $507 6.2831853071796004 $210 $508 forward 7 unknown #
vertex $-1 $213 $509 #
ellipse-curve $-1 -67.831299070190909 -13.670490176766442 10.893316911583218 -0.71933980857756763 0 0.69465836192734942 0.34732918096367471 0 0.35966990428878381 1 I I #
coedge $-1 $350 $350 $-1 $510 reversed $216 $-1 #
edge $-1 $511 0 $511 6.2831853071796004 $217 $512 forward 7 unknown #
vertex $-1 $220 $513 #
ellipse-curve $-1 -67.831299070190909 -11.066651582893094 10.893316911583218 -0.71933980857756763 0 0.69465836192734942 0.34732918096367471 0 0.35966990428878381 1 I I #
face $-1 $-1 $514 $48 $-1 $515 reversed single #
loop $-1 $-1 $227 $221 #
plane-surface $-1 0 0 12.784804655450367 0 0 1 1 0 0 forward_v I I I I #
coedge $-1 $516 $517 $518 $519 reversed $222 $-1 #
coedge $-1 $520 $224 $226 $364 forward $139 $-1 #
coedge $-1 $224 $520 $516 $521 forward $139 $-1 #
coedge $-1 $518 $227 $224 $361 forward $355 $-1 #
edge $-1 $367 -3.0378116928522418 $522 3.0378116928522383 $360 $523 forward 7 unknown #
coedge $-1 $524 $525 $225 $363 forward $514 $-1 #
edge $-1 $526 -43.887519448306534 $366 -40.104543960572236 $362 $527 forward 7 unknown #
edge $-1 $367 -5.2589547285236753 $526 -2.0094122568606809e-014 $226 $528 forward 7 unknown #
coedge $-1 $227 $518 $524 $529 forward $355 $-1 #
vertex $-1 $363 $530 #
vertex $-1 $228 $531 #
straight-curve $-1 -84.936635220866336 -3.0378116928522436 12.784804655450365 1 0 0 I I #
coedge $-1 $369 $369 $-1 $532 reversed $231 $-1 #
edge $-1 $533 0 $533 6.2831853071796004 $232 $534 forward 7 unknown #
vertex $-1 $235 $535 #
ellipse-curve $-1 -67.831299070190909 -1.3019192969366777 10.893316911583218 -0.71933980857756763 0 0.69465836192734942 0.34732918096367471 0 0.35966990428878381 1 I I #
coedge $-1 $373 $373 $-1 $536 reversed $238 $-1 #
edge $-1 $537 0 $537 6.2831853071796004 $239 $538 forward 7 unknown #
vertex $-1 $242 $539 #
ellipse-curve $-1 -67.831299070190909 1.3019192969366706 10.893316911583218 -0.71933980857756763 0 0.69465836192734942 0.34732918096367471 0 0.35966990428878381 1 I I #
face $-1 $-1 $540 $51 $-1 $541 reversed single #
loop $-1 $-1 $249 $243 #
plane-surface $-1 0 0 12.784804655450367 0 0 1 1 0 0 forward_v I I I I #
coedge $-1 $542 $543 $544 $545 reversed $244 $-1 #
coedge $-1 $546 $246 $248 $387 forward $153 $-1 #
coedge $-1 $246 $546 $542 $547 forward $153 $-1 #
coedge $-1 $544 $249 $246 $384 forward $378 $-1 #
edge $-1 $390 3.1464737470626414 $548 9.2220971327671233 $383 $549 forward 7 unknown #
coedge $-1 $550 $551 $247 $386 forward $540 $-1 #
edge $-1 $552 -43.887519448306534 $389 -40.104543960572236 $385 $553 forward 7 unknown #
edge $-1 $390 -5.2589547285236753 $552 -2.0094122568606809e-014 $248 $554 forward 7 unknown #
coedge $-1 $249 $544 $550 $555 forward $378 $-1 #
vertex $-1 $250 $556 #
vertex $-1 $250 $557 #
straight-curve $-1 -84.936635220866336 9.3307591869775237 12.784804655450365 1 0 0 I I #
coedge $-1 $392 $392 $-1 $558 reversed $253 $-1 #
edge $-1 $559 0 $559 6.2831853071796004 $254 $560 forward 7 unknown #
vertex $-1 $257 $561 #
ellipse-curve $-1 -67.831299070190909 11.06665158289309 10.893316911583218 -0.71933980857756763 0 0.69465836192734942 0.34732918096367471 0 0.35966990428878381 1 I I #
coedge $-1 $396 $396 $-1 $562 reversed $260 $-1 #
edge $-1 $563 0 $563 6.2831853071796004 $261 $564 forward 7 unknown #
vertex $-1 $264 $565 #
ellipse-curve $-1 -67.831299070190909 13.670490176766439 10.893316911583218 -0.71933980857756763 0 0.69465836192734942 0.34732918096367471 0 0.35966990428878381 1 I I #
face $-1 $-1 $566 $54 $-1 $567 reversed single #
loop $-1 $-1 $271 $265 #
plane-surface $-1 0 0 12.784804655450367 0 0 1 1 0 0 forward_v I I I I #
coedge $-1 $568 $569 $570 $571 reversed $266 $-1 #
coedge $-1 $572 $268 $270 $410 forward $167 $-1 #
coedge $-1 $268 $572 $568 $573 forward $167 $-1 #
coedge $-1 $570 $271 $268 $407 forward $401 $-1 #
edge $-1 $413 -6.8329391883534516 $574 3.2762576692057248 $406 $575 forward 7 unknown #
coedge $-1 $576 $577 $269 $409 forward $566 $-1 #
edge $-1 $578 -95.751036579676025 $412 -84.181008539062887 $408 $579 forward 7 unknown #
edge $-1 $413 118.07229604306849 $578 139.31577501754819 $270 $580 forward 7 unknown #
coedge $-1 $271 $570 $576 $581 forward $401 $-1 #
vertex $-1 $272 $582 #
vertex $-1 $272 $583 #
straight-curve $-1 14.347329129358343 8.611279947927315 12.784804655450372 -1 0 0 I I #
coedge $-1 $415 $415 $-1 $584 reversed $275 $-1 #
edge $-1 $585 0 $585 6.2831853071796004 $276 $586 forward 7 unknown #
vertex $-1 $279 $587 #
ellipse-curve $-1 60.749747269664304 3.5566815191477268 6.9997906351438086 0.54463904215088732 0 0.83867056331134215 1.2580058449670133 0 -0.81695856322633098 1 I I #
face $-1 $-1 $295 $42 $-1 $588 reversed single #
loop $-1 $-1 $435 $280 #
plane-surface $-1 0 28.712008865085412 0 0 -1 0 0 0 -1 forward_v I I I I #
coedge $-1 $589 $433 $436 $590 forward $281 $-1 #
coedge $-1 $439 $283 $284 $427 reversed $176 $-1 #
coedge $-1 $433 $589 $283 $425 reversed $281 $-1 #
edge $-1 $440 -12.784804655450367 $591 12.784804655450367 $424 $592 forward 7 unknown #
coedge $-1 $285 $284 $589 $593 forward $113 $-1 #
edge $-1 $431 -69.657887508774081 $591 69.657887508774081 $423 $594 forward 7 unknown #
coedge $-1 $436 $435 $285 $429 reversed $420 $-1 #
edge $-1 $595 -69.657887508774081 $430 69.657887508774081 $428 $596 forward 7 unknown #
vertex $-1 $287 $597 #
vertex $-1 $442 $598 #
straight-curve $-1 69.657887508774081 0 -12.784804655450367 0 -1 0 I I #
coedge $-1 $422 $424 $288 $434 reversed $281 $-1 #
edge $-1 $437 -28.712008865085412 $440 28.712008865085412 $433 $599 forward 7 unknown #
coedge $-1 $428 $289 $294 $443 forward $420 $-1 #
coedge $-1 $289 $428 $422 $590 reversed $420 $-1 #
vertex $-1 $290 $600 #
straight-curve $-1 0 28.712008865085412 12.784804655450367 -1 0 0 I I #
coedge $-1 $291 $423 $293 $442 reversed $176 $-1 #
vertex $-1 $434 $601 #
straight-curve $-1 0 -28.712008865085412 12.784804655450367 1 0 0 I I #
edge $-1 $296 -12.784804655450367 $431 12.784804655450367 $293 $602 forward 7 unknown #
edge $-1 $297 -12.784804655450367 $430 12.784804655450367 $294 $603 forward 7 unknown #
point $-1 69.657887508774081 -28.712008865085412 12.784804655450367 #
point $-1 69.657887508774081 28.712008865085412 12.784804655450367 #
face $-1 $-1 $459 $43 $-1 $604 reversed single #
plane-surface $-1 -65.632938997628884 -33.290484364375629 0 -1 0 0 0 0 1 forward_v I I I I #
coedge $-1 $605 $606 $607 $608 forward $300 $-1 #
coedge $-1 $607 $302 $458 $609 reversed $184 $-1 #
coedge $-1 $302 $607 $303 $453 reversed $184 $-1 #
edge $-1 $455 -12.784804655450367 $460 12.784804655450367 $302 $610 forward 7 unknown #
coedge $-1 $304 $303 $606 $611 forward $117 $-1 #
edge $-1 $455 28.712008865085412 $612 37.86895986366585 $450 $613 forward 7 unknown #
edge $-1 $614 -4.5784754992902208 $312 4.5784754992902208 $309 $615 forward 7 unknown #
vertex $-1 $453 $616 #
straight-curve $-1 0 -28.712008865085412 12.784804655450367 -1 0 0 I I #
coedge $-1 $617 $307 $310 $463 forward $459 $-1 #
coedge $-1 $307 $617 $449 $609 forward $459 $-1 #
loop $-1 $-1 $307 $446 #
vertex $-1 $451 $618 #
straight-curve $-1 0 -28.712008865085412 -12.784804655450367 1 0 0 I I #
coedge $-1 $310 $309 $619 $620 forward $311 $-1 #
edge $-1 $313 -4.5784754992902208 $621 4.5784754992902208 $310 $622 forward 7 unknown #
point $-1 -65.632938997628884 -28.712008865085409 12.784804655450367 #
point $-1 -65.632938997628884 -28.712008865085409 -12.784804655450367 #
face $-1 $-1 $623 $44 $-1 $624 reversed single #
loop $-1 $-1 $323 $315 #
plane-surface $-1 0 0 -12.784804655450367 0 0 1 1 0 0 forward_v I I I I #
coedge $-1 $625 $318 $626 $627 reversed $192 $-1 #
coedge $-1 $318 $625 $473 $628 reversed $192 $-1 #
coedge $-1 $326 $325 $318 $472 reversed $316 $-1 #
edge $-1 $629 -12.784804655450367 $630 12.784804655450367 $471 $631 forward 7 unknown #
coedge $-1 $320 $319 $470 $628 forward $121 $-1 #
edge $-1 $328 -4.5784754992902172 $629 4.5784754992902208 $326 $632 forward 7 unknown #
coedge $-1 $633 $479 $320 $476 reversed $623 $-1 #
edge $-1 $634 -37.86895986366585 $477 -28.712008865085412 $475 $635 forward 7 unknown #
vertex $-1 $480 $636 #
straight-curve $-1 0 28.712008865085412 12.784804655450367 1 0 0 I I #
coedge $-1 $475 $637 $322 $480 forward $623 $-1 #
edge $-1 $483 -12.784804655450367 $477 12.784804655450367 $479 $638 forward 7 unknown #
coedge $-1 $626 $323 $637 $639 forward $467 $-1 #
coedge $-1 $323 $626 $325 $485 forward $467 $-1 #
vertex $-1 $639 $640 #
straight-curve $-1 0 28.712008865085412 -12.784804655450367 -1 0 0 I I #
edge $-1 $630 -4.5784754992902208 $327 4.5784754992902172 $325 $641 forward 7 unknown #
point $-1 -65.632938997628884 28.712008865085412 -12.784804655450367 #
point $-1 -65.632938997628884 28.712008865085412 12.784804655450367 #
plane-surface $-1 0 0 12.784804655450367 0 0 1 1 0 0 forward_v I I I I #
coedge $-1 $499 $498 $491 $642 forward $331 $-1 #
coedge $-1 $491 $333 $335 $495 reversed $200 $-1 #
coedge $-1 $333 $490 $489 $642 reversed $200 $-1 #
coedge $-1 $341 $336 $333 $493 forward $342 $-1 #
edge $-1 $496 -18.931924589258585 $643 -15.278747712092255 $492 $644 forward 7 unknown #
coedge $-1 $335 $334 $499 $645 reversed $125 $-1 #
edge $-1 $646 2.0094122568606809e-014 $496 5.2589547285236753 $490 $647 forward 7 unknown #
vertex $-1 $337 $648 #
straight-curve $-1 -66.00471063160775 -6.1842854399148841 12.784804655450369 0 1 0 I I #
coedge $-1 $489 $338 $341 $503 reversed $331 $-1 #
coedge $-1 $338 $489 $494 $645 forward $331 $-1 #
vertex $-1 $339 $649 #
straight-curve $-1 -69.657887508774081 -15.406382572682009 52.889348616022602 0 0 1 I I #
straight-curve $-1 -69.657887508774095 -15.406382572682009 9.0018291677160533 -0.69465836192734942 0 -0.71933980857756763 I I #
edge $-1 $643 9.3307591869775273 $343 15.406382572682009 $498 $650 forward 7 unknown #
point $-1 -69.657887508774081 -15.406382572682009 12.784804655450367 #
point $-1 -66.00471063160775 -15.406382572682009 12.784804655450367 #
edge $-1 $651 1 $651 0 $346 $-1 forward 7 unknown #
vertex $-1 $347 $652 #
ellipse-curve $-1 -67.069326188452592 -13.670490176766442 10.157488270446189 -0.71933980857756763 0 0.69465836192734942 0.34732918096367471 0 0.35966990428878381 1 I I #
point $-1 -67.483969889227211 -13.670490176766442 11.252986815871981 #
edge $-1 $653 1 $653 0 $350 $-1 forward 7 unknown #
vertex $-1 $351 $654 #
ellipse-curve $-1 -67.069326188452592 -11.066651582893094 10.157488270446189 -0.71933980857756763 0 0.69465836192734942 0.34732918096367471 0 0.35966990428878381 1 I I #
point $-1 -67.483969889227211 -11.066651582893094 11.252986815871981 #
loop $-1 $-1 $362 $354 #
plane-surface $-1 -69.657887508774081 0 0 1 0 0 0 0 -1 forward_v I I I I #
coedge $-1 $517 $357 $359 $521 reversed $222 $-1 #
coedge $-1 $357 $516 $655 $656 reversed $222 $-1 #
coedge $-1 $365 $360 $357 $519 forward $355 $-1 #
edge $-1 $522 -18.931924589258585 $657 -15.278747712092255 $518 $658 forward 7 unknown #
coedge $-1 $359 $358 $525 $659 reversed $139 $-1 #
edge $-1 $660 2.0094122568606809e-014 $522 5.2589547285236753 $516 $661 forward 7 unknown #
vertex $-1 $361 $662 #
straight-curve $-1 -66.00471063160775 -1.7763568394002505e-015 12.784804655450369 0 1 0 I I #
coedge $-1 $655 $362 $365 $529 reversed $514 $-1 #
coedge $-1 $362 $655 $520 $659 forward $514 $-1 #
vertex $-1 $363 $663 #
straight-curve $-1 -69.657887508774081 -3.0378116928522436 52.889348616022602 0 0 1 I I #
straight-curve $-1 -69.657887508774095 -3.0378116928522436 9.0018291677160533 -0.69465836192734942 0 -0.71933980857756763 I I #
edge $-1 $657 -3.0378116928522365 $366 3.0378116928522436 $524 $664 forward 7 unknown #
point $-1 -69.657887508774081 -3.0378116928522436 12.784804655450367 #
point $-1 -66.00471063160775 -3.0378116928522436 12.784804655450367 #
edge $-1 $665 1 $665 0 $369 $-1 forward 7 unknown #
vertex $-1 $370 $666 #
ellipse-curve $-1 -67.069326188452592 -1.3019192969366777 10.157488270446189 -0.71933980857756763 0 0.69465836192734942 0.34732918096367471 0 0.35966990428878381 1 I I #
point $-1 -67.483969889227211 -1.3019192969366777 11.252986815871981 #
edge $-1 $667 1 $667 0 $373 $-1 forward 7 unknown #
vertex $-1 $374 $668 #
ellipse-curve $-1 -67.069326188452592 1.3019192969366706 10.157488270446189 -0.71933980857756763 0 0.69465836192734942 0.34732918096367471 0 0.35966990428878381 1 I I #
point $-1 -67.483969889227211 1.3019192969366706 11.252986815871981 #
loop $-1 $-1 $385 $377 #
plane-surface $-1 -69.657887508774081 0 0 1 0 0 0 0 -1 forward_v I I I I #
coedge $-1 $543 $380 $382 $547 reversed $244 $-1 #
coedge $-1 $380 $542 $669 $670 reversed $244 $-1 #
coedge $-1 $388 $383 $380 $545 forward $378 $-1 #
edge $-1 $548 -18.931924589258585 $671 -15.278747712092255 $544 $672 forward 7 unknown #
coedge $-1 $382 $381 $551 $673 reversed $153 $-1 #
edge $-1 $674 2.0094122568606809e-014 $548 5.2589547285236753 $542 $675 forward 7 unknown #
vertex $-1 $384 $676 #
straight-curve $-1 -66.00471063160775 6.1842854399148823 12.784804655450369 0 1 0 I I #
coedge $-1 $669 $385 $388 $555 reversed $540 $-1 #
coedge $-1 $385 $669 $546 $673 forward $540 $-1 #
vertex $-1 $386 $677 #
straight-curve $-1 -69.657887508774081 9.3307591869775237 52.889348616022602 0 0 1 I I #
straight-curve $-1 -69.657887508774095 9.3307591869775237 9.0018291677160533 -0.69465836192734942 0 -0.71933980857756763 I I #
edge $-1 $671 -15.406382572682006 $389 -9.3307591869775237 $550 $678 forward 7 unknown #
point $-1 -69.657887508774081 9.3307591869775237 12.784804655450367 #
point $-1 -66.00471063160775 9.3307591869775237 12.784804655450367 #
edge $-1 $679 1 $679 0 $392 $-1 forward 7 unknown #
vertex $-1 $393 $680 #
ellipse-curve $-1 -67.069326188452592 11.06665158289309 10.157488270446189 -0.71933980857756763 0 0.69465836192734942 0.34732918096367471 0 0.35966990428878381 1 I I #
point $-1 -67.483969889227211 11.06665158289309 11.252986815871981 #
edge $-1 $681 1 $681 0 $396 $-1 forward 7 unknown #
vertex $-1 $397 $682 #
ellipse-curve $-1 -67.069326188452592 13.670490176766439 10.157488270446189 -0.71933980857756763 0 0.69465836192734942 0.34732918096367471 0 0.35966990428878381 1 I I #
point $-1 -67.483969889227211 13.670490176766439 11.252986815871981 #
loop $-1 $-1 $408 $400 #
plane-surface $-1 69.657887508774081 0 0 -1 0 0 0 0 1 forward_v I I I I #
coedge $-1 $569 $403 $405 $573 reversed $266 $-1 #
coedge $-1 $403 $568 $683 $684 reversed $266 $-1 #
coedge $-1 $411 $406 $403 $571 forward $401 $-1 #
edge $-1 $574 37.494277901196199 $685 55.310558379415738 $570 $686 forward 7 unknown #
coedge $-1 $405 $404 $577 $687 reversed $167 $-1 #
edge $-1 $688 -139.31577501754819 $574 -118.07229604306849 $568 $689 forward 7 unknown #
vertex $-1 $407 $690 #
straight-curve $-1 51.841607030554556 1.7783407595738634 12.784804655450365 0 -1 0 I I #
coedge $-1 $683 $408 $411 $581 reversed $566 $-1 #
coedge $-1 $408 $683 $572 $687 forward $566 $-1 #
vertex $-1 $409 $691 #
straight-curve $-1 69.657887508774081 8.611279947927315 96.96581319451326 0 0 1 I I #
straight-curve $-1 -47.182152003349259 8.611279947927315 77.091586876903193 0.83867056331134215 0 -0.54463904215088732 I I #
edge $-1 $685 -1.4979169096318614 $412 8.611279947927315 $576 $692 forward 7 unknown #
point $-1 69.657887508774081 8.611279947927315 12.784804655450367 #
point $-1 51.841607030554542 8.611279947927315 12.784804655450372 #
edge $-1 $693 1 $693 0 $415 $-1 forward 7 unknown #
vertex $-1 $416 $694 #
ellipse-curve $-1 57.867267536648711 3.5566815191477268 2.5611611680480775 0.54463904215088732 0 0.83867056331134215 1.2580058449670133 0 -0.81695856322633098 1 I I #
point $-1 62.007753114631335 3.5566815191477268 6.1828320719174927 #
plane-surface $-1 69.657887508774081 0 0 -1 0 0 0 0 1 forward_v I I I I #
coedge $-1 $424 $422 $426 $593 reversed $281 $-1 #
edge $-1 $437 -12.784804655450367 $595 12.784804655450367 $436 $695 forward 7 unknown #
vertex $-1 $593 $696 #
straight-curve $-1 -69.657887508774081 -28.712008865085412 0 0 0 -1 I I #
edge $-1 $591 -28.712008865085412 $595 28.712008865085412 $589 $697 forward 7 unknown #
straight-curve $-1 0 -28.712008865085412 -12.784804655450367 -1 0 0 I I #
vertex $-1 $429 $698 #
straight-curve $-1 0 28.712008865085412 -12.784804655450367 1 0 0 I I #
point $-1 69.657887508774081 28.712008865085412 -12.784804655450367 #
point $-1 69.657887508774081 -28.712008865085412 -12.784804655450367 #
straight-curve $-1 -69.657887508774081 0 12.784804655450367 0 -1 0 I I #
point $-1 -69.657887508774081 28.712008865085412 12.784804655450367 #
point $-1 -69.657887508774081 -28.712008865085412 12.784804655450367 #
straight-curve $-1 69.657887508774081 -28.712008865085412 0 0 0 -1 I I #
straight-curve $-1 69.657887508774081 28.712008865085412 0 0 0 -1 I I #
plane-surface $-1 0 0 -12.784804655450367 0 0 1 1 0 0 forward_v I I I I #
coedge $-1 $619 $448 $617 $699 reversed $300 $-1 #
coedge $-1 $448 $619 $452 $611 reversed $300 $-1 #
coedge $-1 $450 $449 $448 $608 reversed $184 $-1 #
edge $-1 $612 -12.784804655450367 $700 12.784804655450367 $607 $701 forward 7 unknown #
edge $-1 $700 -37.86895986366585 $460 -28.712008865085412 $449 $702 forward 7 unknown #
straight-curve $-1 -69.657887508774081 -28.712008865085412 0 0 0 -1 I I #
edge $-1 $612 -2.0124742555725987 $614 2.0124742555725987 $606 $703 forward 7 unknown #
vertex $-1 $453 $704 #
straight-curve $-1 -69.657887508774081 0 12.784804655450367 0 -1 0 I I #
vertex $-1 $454 $705 #
straight-curve $-1 -65.632938997628884 -33.290484364375629 12.784804655450367 0 1 0 I I #
point $-1 -69.657887508774081 -28.712008865085412 12.784804655450367 #
coedge $-1 $458 $457 $605 $699 forward $459 $-1 #
point $-1 -69.657887508774081 -28.712008865085412 -12.784804655450367 #
coedge $-1 $606 $605 $462 $620 reversed $300 $-1 #
edge $-1 $614 -12.784804655450367 $621 12.784804655450367 $462 $706 forward 7 unknown #
vertex $-1 $620 $707 #
straight-curve $-1 -65.632938997628884 -33.290484364375629 -12.784804655450367 0 -1 0 I I #
loop $-1 $-1 $479 $466 #
plane-surface $-1 -69.657887508774081 0 0 1 0 0 0 0 -1 forward_v I I I I #
coedge $-1 $470 $469 $633 $708 reversed $192 $-1 #
coedge $-1 $482 $481 $469 $627 forward $467 $-1 #
edge $-1 $709 -2.0124742555725987 $630 2.0124742555725987 $469 $710 forward 7 unknown #
edge $-1 $629 -2.0124742555725987 $634 2.0124742555725987 $470 $711 forward 7 unknown #
vertex $-1 $474 $712 #
vertex $-1 $485 $713 #
straight-curve $-1 -65.632938997628884 37.86895986366585 0 0 0 -1 I I #
straight-curve $-1 -65.632938997628884 33.290484364375629 12.784804655450367 0 1 0 I I #
coedge $-1 $637 $475 $625 $708 forward $623 $-1 #
vertex $-1 $628 $714 #
straight-curve $-1 -69.657887508774081 0 12.784804655450367 0 -1 0 I I #
point $-1 -69.657887508774081 28.712008865085412 12.784804655450367 #
coedge $-1 $479 $633 $481 $639 reversed $623 $-1 #
straight-curve $-1 -69.657887508774081 28.712008865085412 0 0 0 1 I I #
edge $-1 $483 -4.5784754992902172 $709 4.5784754992902208 $637 $715 forward 7 unknown #
point $-1 -69.657887508774081 28.712008865085412 -12.784804655450367 #
straight-curve $-1 -65.632938997628884 33.290484364375629 -12.784804655450367 0 -1 0 I I #
edge $-1 $643 40.104543960572236 $646 43.887519448306534 $489 $716 forward 7 unknown #
vertex $-1 $503 $717 #
straight-curve $-1 -84.936635220866336 -9.3307591869775273 12.784804655450365 -1 0 0 I I #
edge $-1 $646 3.1464737470626432 $500 9.2220971327671251 $499 $718 forward 7 unknown #
vertex $-1 $645 $719 #
straight-curve $-1 -69.657887508774095 -9.3307591869775273 9.0018291677160533 0.69465836192734942 0 0.71933980857756763 I I #
point $-1 -66.00471063160775 -9.3307591869775273 12.784804655450367 #
point $-1 -69.657887508774081 -15.406382572682009 9.0018291677160676 #
straight-curve $-1 -69.657887508774081 0 12.784804655450367 0 -1 0 I I #
vertex $-1 $506 $720 #
point $-1 -66.721997007488923 -13.670490176766442 10.517158174734972 #
vertex $-1 $510 $721 #
point $-1 -66.721997007488923 -11.066651582893094 10.517158174734972 #
coedge $-1 $525 $524 $517 $656 forward $514 $-1 #
edge $-1 $657 40.104543960572236 $660 43.887519448306534 $655 $722 forward 7 unknown #
vertex $-1 $529 $723 #
straight-curve $-1 -84.936635220866336 3.0378116928522365 12.784804655450365 -1 0 0 I I #
edge $-1 $660 -3.0378116928522383 $526 3.0378116928522418 $525 $724 forward 7 unknown #
vertex $-1 $659 $725 #
straight-curve $-1 -69.657887508774095 3.0378116928522365 9.0018291677160533 0.69465836192734942 0 0.71933980857756763 I I #
point $-1 -66.00471063160775 3.0378116928522365 12.784804655450367 #
point $-1 -69.657887508774081 -3.0378116928522436 9.0018291677160676 #
straight-curve $-1 -69.657887508774081 0 12.784804655450367 0 -1 0 I I #
vertex $-1 $532 $726 #
point $-1 -66.721997007488923 -1.3019192969366777 10.517158174734972 #
vertex $-1 $536 $727 #
point $-1 -66.721997007488923 1.3019192969366706 10.517158174734972 #
coedge $-1 $551 $550 $543 $670 forward $540 $-1 #
edge $-1 $671 40.104543960572236 $674 43.887519448306534 $669 $728 forward 7 unknown #
vertex $-1 $555 $729 #
straight-curve $-1 -84.936635220866336 15.406382572682006 12.784804655450365 -1 0 0 I I #
edge $-1 $674 -9.2220971327671233 $552 -3.1464737470626414 $551 $730 forward 7 unknown #
vertex $-1 $673 $731 #
straight-curve $-1 -69.657887508774095 15.406382572682006 9.0018291677160533 0.69465836192734942 0 0.71933980857756763 I I #
point $-1 -66.00471063160775 15.406382572682006 12.784804655450367 #
point $-1 -69.657887508774081 9.3307591869775237 9.0018291677160676 #
straight-curve $-1 -69.657887508774081 0 12.784804655450367 0 -1 0 I I #
vertex $-1 $558 $732 #
point $-1 -66.721997007488923 11.06665158289309 10.517158174734972 #
vertex $-1 $562 $733 #
point $-1 -66.721997007488923 13.670490176766439 10.517158174734972 #
coedge $-1 $577 $576 $569 $684 forward $566 $-1 #
edge $-1 $685 84.181008539062887 $688 95.751036579676025 $683 $734 forward 7 unknown #
vertex $-1 $581 $735 #
straight-curve $-1 14.347329129358343 -1.4979169096318614 12.784804655450372 1 0 0 I I #
edge $-1 $688 -3.2762576692057248 $578 6.8329391883534516 $577 $736 forward 7 unknown #
vertex $-1 $687 $737 #
straight-curve $-1 -47.182152003349259 -1.4979169096318614 77.091586876903193 -0.83867056331134215 0 0.54463904215088732 I I #
point $-1 51.841607030554542 -1.4979169096318614 12.784804655450372 #
point $-1 69.657887508774095 8.611279947927315 1.2147766148372341 #
straight-curve $-1 69.657887508774081 0 12.784804655450367 0 1 0 I I #
vertex $-1 $584 $738 #
point $-1 59.12527338161572 3.5566815191477268 1.7442026048217465 #
straight-curve $-1 -69.657887508774081 28.712008865085412 0 0 0 -1 I I #
point $-1 -69.657887508774081 -28.712008865085412 -12.784804655450367 #
straight-curve $-1 -69.657887508774081 0 -12.784804655450367 0 1 0 I I #
point $-1 -69.657887508774081 28.712008865085412 -12.784804655450367 #
edge $-1 $621 -2.0124742555725987 $700 2.0124742555725987 $605 $739 forward 7 unknown #
vertex $-1 $609 $740 #
straight-curve $-1 -69.657887508774081 -37.86895986366585 0 0 0 -1 I I #
straight-curve $-1 -69.657887508774081 0 -12.784804655450367 0 1 0 I I #
straight-curve $-1 -67.645413253201482 -37.86895986366585 12.784804655450367 1 0 0 I I #
point $-1 -69.657887508774081 -37.86895986366585 12.784804655450367 #
point $-1 -65.632938997628884 -37.86895986366585 12.784804655450367 #
straight-curve $-1 -65.632938997628884 -37.86895986366585 0 0 0 -1 I I #
point $-1 -65.632938997628884 -37.86895986366585 -12.784804655450367 #
edge $-1 $634 -12.784804655450367 $709 12.784804655450367 $625 $741 forward 7 unknown #
vertex $-1 $627 $742 #
straight-curve $-1 -67.645413253201482 37.86895986366585 -12.784804655450367 1 0 0 I I #
straight-curve $-1 -67.645413253201482 37.86895986366585 12.784804655450367 -1 0 0 I I #
point $-1 -65.632938997628884 37.86895986366585 12.784804655450367 #
point $-1 -65.632938997628884 37.86895986366585 -12.784804655450367 #
point $-1 -69.657887508774081 37.86895986366585 12.784804655450367 #
straight-curve $-1 -69.657887508774081 33.290484364375629 -12.784804655450367 0 1 0 I I #
straight-curve $-1 -69.657887508774081 -9.3307591869775273 52.889348616022602 0 0 -1 I I #
point $-1 -69.657887508774081 -9.3307591869775273 12.784804655450367 #
straight-curve $-1 -69.657887508774081 -6.1842854399148841 9.001829167716064 0 -1 0 I I #
point $-1 -69.657887508774081 -9.3307591869775273 9.0018291677160676 #
point $-1 -66.709656284163813 -13.670490176766442 9.8101590894825126 #
point $-1 -66.709656284163813 -11.066651582893094 9.8101590894825126 #
straight-curve $-1 -69.657887508774081 3.0378116928522365 52.889348616022602 0 0 -1 I I #
point $-1 -69.657887508774081 3.0378116928522365 12.784804655450367 #
straight-curve $-1 -69.657887508774081 -1.7763568394002505e-015 9.001829167716064 0 -1 0 I I #
point $-1 -69.657887508774081 3.0378116928522365 9.0018291677160676 #
point $-1 -66.709656284163813 -1.3019192969366777 9.8101590894825126 #
point $-1 -66.709656284163813 1.3019192969366706 9.8101590894825126 #
straight-curve $-1 -69.657887508774081 15.406382572682006 52.889348616022602 0 0 -1 I I #
point $-1 -69.657887508774081 15.406382572682006 12.784804655450367 #
straight-curve $-1 -69.657887508774081 6.1842854399148823 9.001829167716064 0 -1 0 I I #
point $-1 -69.657887508774081 15.406382572682006 9.0018291677160676 #
point $-1 -66.709656284163813 11.06665158289309 9.8101590894825126 #
point $-1 -66.709656284163813 13.670490176766439 9.8101590894825126 #
straight-curve $-1 69.657887508774081 -1.4979169096318614 96.96581319451326 0 0 -1 I I #
point $-1 69.657887508774081 -1.4979169096318614 12.784804655450367 #
straight-curve $-1 69.657887508774081 1.7783407595738634 1.2147766148372341 0 1 0 I I #
point $-1 69.657887508774095 -1.4979169096318614 1.2147766148372341 #
point $-1 57.050308973422375 3.5566815191477268 1.303155323081064 #
straight-curve $-1 -67.645413253201482 -37.86895986366585 -12.784804655450367 -1 0 0 I I #
point $-1 -69.657887508774081 -37.86895986366585 -12.784804655450367 #
straight-curve $-1 -69.657887508774081 37.86895986366585 0 0 0 -1 I I #
point $-1 -69.657887508774081 37.86895986366585 -12.784804655450367 #
End-of-ACIS-data 