500 0 20 0           
7 Unknown 11 ACIS 5.0 NT 24 Thu Mar 25 22:10:14 1999 
-1 9.9999999999999995e-007 1e-010 
body $-1 $20 $-1 $21 #
body $-1 $22 $-1 $23 #
body $-1 $24 $-1 $25 #
body $-1 $26 $-1 $27 #
body $-1 $28 $-1 $29 #
body $-1 $30 $-1 $31 #
body $-1 $32 $-1 $33 #
body $-1 $34 $-1 $35 #
body $-1 $36 $-1 $37 #
body $-1 $38 $-1 $39 #
body $-1 $40 $-1 $41 #
body $-1 $42 $-1 $43 #
body $-1 $44 $-1 $45 #
body $-1 $46 $-1 $47 #
body $-1 $48 $-1 $49 #
body $-1 $50 $-1 $51 #
body $-1 $52 $-1 $53 #
body $-1 $54 $-1 $55 #
body $-1 $56 $-1 $57 #
body $-1 $58 $-1 $59 #
lump $-1 $-1 $60 $0 #
transform $-1 1 0 0 0 1 0 0 0 1 62.777794732505264 26.100289175707037 7.1719041621213737 1 rotate no_reflect no_shear #
lump $-1 $-1 $61 $1 #
transform $-1 1 0 0 0 1 0 0 0 1 62.777794732505264 26.100289175707037 7.1719041621213737 1 rotate no_reflect no_shear #
lump $-1 $-1 $62 $2 #
transform $-1 1 0 0 0 1 0 0 0 1 62.777794732505264 26.100289175707037 7.1719041621213737 1 rotate no_reflect no_shear #
lump $-1 $-1 $63 $3 #
transform $-1 1 0 0 0 1 0 0 0 1 62.777794732505264 26.100289175707037 7.1719041621213737 1 rotate no_reflect no_shear #
lump $-1 $-1 $64 $4 #
transform $-1 1 0 0 0 1 0 0 0 1 62.777794732505264 26.100289175707037 7.1719041621213737 1 rotate no_reflect no_shear #
lump $-1 $-1 $65 $5 #
transform $-1 1 0 0 0 1 0 0 0 1 62.777794732505264 26.100289175707037 7.1719041621213737 1 rotate no_reflect no_shear #
lump $-1 $-1 $66 $6 #
transform $-1 1 0 0 0 1 0 0 0 1 62.777794732505264 26.100289175707037 7.1719041621213737 1 rotate no_reflect no_shear #
lump $-1 $-1 $67 $7 #
transform $-1 1 0 0 0 1 0 0 0 1 62.777794732505264 26.100289175707037 7.1719041621213737 1 rotate no_reflect no_shear #
lump $-1 $-1 $68 $8 #
transform $-1 1 0 0 0 1 0 0 0 1 62.777794732505264 26.100289175707037 7.1719041621213737 1 rotate no_reflect no_shear #
lump $-1 $-1 $69 $9 #
transform $-1 1 0 0 0 1 0 0 0 1 62.777794732505264 26.100289175707037 7.1719041621213737 1 rotate no_reflect no_shear #
lump $-1 $-1 $70 $10 #
transform $-1 1 0 0 0 1 0 0 0 1 62.777794732505264 26.100289175707037 7.1719041621213737 1 rotate no_reflect no_shear #
lump $-1 $-1 $71 $11 #
transform $-1 1 0 0 0 1 0 0 0 1 62.777794732505264 26.100289175707037 7.1719041621213737 1 rotate no_reflect no_shear #
lump $-1 $-1 $72 $12 #
transform $-1 1 0 0 0 1 0 0 0 1 62.777794732505264 26.100289175707037 7.1719041621213737 1 rotate no_reflect no_shear #
lump $-1 $-1 $73 $13 #
transform $-1 1 0 0 0 1 0 0 0 1 62.777794732505264 26.100289175707037 7.1719041621213737 1 rotate no_reflect no_shear #
lump $-1 $-1 $74 $14 #
transform $-1 1 0 0 0 1 0 0 0 1 62.777794732505264 26.100289175707037 7.1719041621213737 1 rotate no_reflect no_shear #
lump $-1 $-1 $75 $15 #
transform $-1 1 0 0 0 1 0 0 0 1 62.777794732505264 26.100289175707037 7.1719041621213737 1 rotate no_reflect no_shear #
lump $-1 $-1 $76 $16 #
transform $-1 1 0 0 0 1 0 0 0 1 62.777794732505264 26.100289175707037 7.1719041621213737 1 rotate no_reflect no_shear #
lump $-1 $-1 $77 $17 #
transform $-1 1 0 0 0 1 0 0 0 1 62.777794732505264 26.100289175707037 7.1719041621213737 1 rotate no_reflect no_shear #
lump $-1 $-1 $78 $18 #
transform $-1 1 0 0 0 1 0 0 0 1 62.777794732505264 26.100289175707037 7.1719041621213737 1 rotate no_reflect no_shear #
lump $-1 $-1 $79 $19 #
transform $-1 1 0 0 0 1 0 0 0 1 62.777794732505264 26.100289175707037 7.1719041621213737 1 rotate no_reflect no_shear #
shell $-1 $-1 $-1 $80 $-1 $20 #
shell $-1 $-1 $-1 $81 $-1 $22 #
shell $-1 $-1 $-1 $82 $-1 $24 #
shell $-1 $-1 $-1 $83 $-1 $26 #
shell $-1 $-1 $-1 $84 $-1 $28 #
shell $-1 $-1 $-1 $85 $-1 $30 #
shell $-1 $-1 $-1 $86 $-1 $32 #
shell $-1 $-1 $-1 $87 $-1 $34 #
shell $-1 $-1 $-1 $88 $-1 $36 #
shell $-1 $-1 $-1 $89 $-1 $38 #
shell $-1 $-1 $-1 $90 $-1 $40 #
shell $-1 $-1 $-1 $91 $-1 $42 #
shell $-1 $-1 $-1 $92 $-1 $44 #
shell $-1 $-1 $-1 $93 $-1 $46 #
shell $-1 $-1 $-1 $94 $-1 $48 #
shell $-1 $-1 $-1 $95 $-1 $50 #
shell $-1 $-1 $-1 $96 $-1 $52 #
shell $-1 $-1 $-1 $97 $-1 $54 #
shell $-1 $-1 $-1 $98 $-1 $56 #
shell $-1 $-1 $-1 $99 $-1 $58 #
face $-1 $100 $101 $60 $-1 $102 forward single #
face $-1 $103 $104 $61 $-1 $105 reversed single #
face $-1 $106 $107 $62 $-1 $108 reversed single #
face $-1 $109 $110 $63 $-1 $111 forward single #
face $-1 $112 $113 $64 $-1 $114 reversed single #
face $-1 $115 $116 $65 $-1 $117 forward single #
face $-1 $118 $119 $66 $-1 $120 forward single #
face $-1 $121 $122 $67 $-1 $123 forward single #
face $-1 $124 $125 $68 $-1 $126 reversed single #
face $-1 $127 $128 $69 $-1 $129 forward single #
face $-1 $130 $131 $70 $-1 $132 forward single #
face $-1 $133 $134 $71 $-1 $135 forward single #
face $-1 $136 $137 $72 $-1 $138 reversed single #
face $-1 $139 $140 $73 $-1 $141 forward single #
face $-1 $142 $143 $74 $-1 $144 forward single #
face $-1 $145 $146 $75 $-1 $147 forward single #
face $-1 $148 $149 $76 $-1 $150 reversed single #
face $-1 $151 $152 $77 $-1 $153 forward single #
face $-1 $154 $155 $78 $-1 $156 forward single #
face $-1 $157 $158 $79 $-1 $159 forward single #
face $-1 $160 $161 $60 $-1 $162 reversed single #
loop $-1 $-1 $163 $80 #
plane-surface $-1 0 0 7.1719041621213737 0 0 1 1 0 0 forward_v I I I I #
face $-1 $164 $165 $61 $-1 $166 reversed single #
loop $-1 $-1 $167 $81 #
plane-surface $-1 -60.220792986296196 -23.622617023963748 0 1 0 0 0 0 -1 forward_v I I I I #
face $-1 $168 $169 $62 $-1 $170 reversed single #
loop $-1 $-1 $171 $82 #
plane-surface $-1 -154.60334088438518 6.8985534284189889 88.372075432150424 0 1 0 -0.73135370988377701 0 0.68199835119979291 forward_v I I I I #
face $-1 $172 $173 $63 $-1 $174 forward single #
loop $-1 $175 $176 $83 #
cone-surface $-1 -59.379816691863923 10.548732290193851 3.7144633873078945 0.73135370988377701 0 -0.68199835119979291 0.68199835119979291 0 0.73135370988377701 1 I I 0 1 1 forward I I I I #
face $-1 $177 $178 $64 $-1 $179 reversed single #
loop $-1 $-1 $180 $84 #
plane-surface $-1 28.897289769615448 -13.904054541187133 176.15451614922245 0 -1 0 -0.55919291073839883 0 -0.82903756765294845 forward_v I I I I #
face $-1 $181 $182 $65 $-1 $183 forward single #
loop $-1 $184 $185 $85 #
cone-surface $-1 58.556451207018313 -19.696766806013795 4.0986433579858463 -0.55919291073839883 0 -0.82903756765294845 0.41451878382647422 0 -0.27959645536919941 1 I I 0 1 0.5 forward I I I I #
face $-1 $186 $187 $66 $-1 $188 forward single #
loop $-1 $189 $190 $86 #
cone-surface $-1 58.556451207018313 -17.524499706703796 4.0986433579858463 -0.55919291073839883 0 -0.82903756765294845 0.41451878382647422 0 -0.27959645536919941 1 I I 0 1 0.5 forward I I I I #
face $-1 $191 $192 $67 $-1 $193 forward single #
loop $-1 $194 $195 $87 #
cone-surface $-1 58.556451207018313 -15.352232607393798 4.0986433579858463 -0.55919291073839883 0 -0.82903756765294845 0.41451878382647422 0 -0.27959645536919941 1 I I 0 1 0.5 forward I I I I #
face $-1 $196 $197 $68 $-1 $198 reversed single #
loop $-1 $-1 $199 $88 #
plane-surface $-1 28.897289769615448 -0.56927330222240879 176.15451614922245 0 -1 0 -0.55919291073839883 0 -0.82903756765294845 forward_v I I I I #
face $-1 $200 $201 $69 $-1 $202 forward single #
loop $-1 $203 $204 $89 #
cone-surface $-1 58.556451207018313 -6.3619855670490715 4.0986433579858463 -0.55919291073839883 0 -0.82903756765294845 0.41451878382647422 0 -0.27959645536919941 1 I I 0 1 0.5 forward I I I I #
face $-1 $205 $206 $70 $-1 $207 forward single #
loop $-1 $208 $209 $90 #
cone-surface $-1 58.556451207018313 -4.1897184677390733 4.0986433579858463 -0.55919291073839883 0 -0.82903756765294845 0.41451878382647422 0 -0.27959645536919941 1 I I 0 1 0.5 forward I I I I #
face $-1 $210 $211 $71 $-1 $212 forward single #
loop $-1 $213 $214 $91 #
cone-surface $-1 58.556451207018313 -2.0174513684290751 4.0986433579858463 -0.55919291073839883 0 -0.82903756765294845 0.41451878382647422 0 -0.27959645536919941 1 I I 0 1 0.5 forward I I I I #
face $-1 $215 $216 $72 $-1 $217 reversed single #
loop $-1 $-1 $218 $92 #
plane-surface $-1 28.897289769615448 12.765507936742313 176.15451614922245 0 -1 0 -0.55919291073839883 0 -0.82903756765294845 forward_v I I I I #
face $-1 $219 $220 $73 $-1 $221 forward single #
loop $-1 $222 $223 $93 #
cone-surface $-1 58.556451207018313 6.9727956719156516 4.0986433579858463 -0.55919291073839883 0 -0.82903756765294845 0.41451878382647422 0 -0.27959645536919941 1 I I 0 1 0.5 forward I I I I #
face $-1 $224 $225 $74 $-1 $226 forward single #
loop $-1 $227 $228 $94 #
cone-surface $-1 58.556451207018313 9.1450627712256498 4.0986433579858463 -0.55919291073839883 0 -0.82903756765294845 0.41451878382647422 0 -0.27959645536919941 1 I I 0 1 0.5 forward I I I I #
face $-1 $229 $230 $75 $-1 $231 forward single #
loop $-1 $232 $233 $95 #
cone-surface $-1 58.556451207018313 11.317329870535648 4.0986433579858463 -0.55919291073839883 0 -0.82903756765294845 0.41451878382647422 0 -0.27959645536919941 1 I I 0 1 0.5 forward I I I I #
face $-1 $234 $235 $76 $-1 $236 reversed single #
loop $-1 $-1 $237 $96 #
plane-surface $-1 28.897289769615448 18.859398844673709 176.15451614922245 0 1 0 0.55919291073839883 0 0.82903756765294845 forward_v I I I I #
face $-1 $238 $239 $77 $-1 $240 forward single #
loop $-1 $241 $242 $97 #
cone-surface $-1 58.556451207018313 20.307576910880375 4.0986433579858463 -0.55919291073839883 0 -0.82903756765294845 0.41451878382647422 0 -0.27959645536919941 1 I I 0 1 0.5 forward I I I I #
face $-1 $243 $244 $78 $-1 $245 forward single #
loop $-1 $246 $247 $98 #
cone-surface $-1 58.556451207018313 22.479844010190373 4.0986433579858463 -0.55919291073839883 0 -0.82903756765294845 0.41451878382647422 0 -0.27959645536919941 1 I I 0 1 0.5 forward I I I I #
face $-1 $248 $249 $79 $-1 $250 forward single #
loop $-1 $251 $252 $99 #
cone-surface $-1 58.556451207018313 24.652111109500371 4.0986433579858463 -0.55919291073839883 0 -0.82903756765294845 0.41451878382647422 0 -0.27959645536919941 1 I I 0 1 0.5 forward I I I I #
face $-1 $253 $254 $60 $-1 $255 reversed single #
loop $-1 $-1 $256 $100 #
plane-surface $-1 0 0 -7.1719041621213737 0 0 1 1 0 0 forward_v I I I I #
coedge $-1 $257 $258 $259 $260 forward $101 $-1 #
face $-1 $261 $262 $61 $-1 $263 reversed single #
loop $-1 $-1 $264 $103 #
plane-surface $-1 -58.588044993554206 -21.14494487222046 0 0 -1 0 0 0 -1 forward_v I I I I #
coedge $-1 $265 $266 $267 $268 forward $104 $-1 #
face $-1 $269 $270 $62 $-1 $271 reversed single #
loop $-1 $-1 $272 $106 #
plane-surface $-1 -62.777794732505271 10.548732290193851 2.7433704330951656 -0.73135370988377701 0 0.68199835119979291 0.68199835119979291 0 0.73135370988377701 forward_v I I I I #
coedge $-1 $273 $274 $275 $276 reversed $107 $-1 #
face $-1 $-1 $277 $63 $-1 $278 forward single #
loop $-1 $279 $280 $109 #
cone-surface $-1 -57.68099900200739 10.548732290193851 2.1302903014076211 0.73135370988377701 0 -0.68199835119979291 0.34099917559989645 0 0.36567685494188851 1 I I -0.70710678118654746 0.70710678118654746 0.5 forward I I I I #
loop $-1 $-1 $281 $83 #
coedge $-1 $176 $176 $282 $283 reversed $110 $-1 #
face $-1 $284 $285 $64 $-1 $286 reversed single #
loop $-1 $-1 $287 $112 #
plane-surface $-1 -41.312505762799226 -17.524499706703796 72.064215653917969 0.55919291073839883 0 0.82903756765294845 0.82903756765294845 0 -0.55919291073839883 forward_v I I I I #
coedge $-1 $288 $289 $290 $291 reversed $113 $-1 #
face $-1 $-1 $292 $65 $-1 $293 forward single #
loop $-1 $294 $295 $115 #
cone-surface $-1 58.13705652396451 -19.696766806013795 3.4768651822461347 -0.55919291073839883 0 -0.82903756765294845 0.20725939191323711 0 -0.13979822768459971 1 I I -0.70710678118654746 0.70710678118654746 0.25 forward I I I I #
loop $-1 $-1 $296 $85 #
coedge $-1 $185 $185 $297 $298 reversed $116 $-1 #
face $-1 $-1 $299 $66 $-1 $300 forward single #
loop $-1 $301 $302 $118 #
cone-surface $-1 58.13705652396451 -17.524499706703796 3.4768651822461347 -0.55919291073839883 0 -0.82903756765294845 0.20725939191323711 0 -0.13979822768459971 1 I I -0.70710678118654746 0.70710678118654746 0.25 forward I I I I #
loop $-1 $-1 $303 $86 #
coedge $-1 $190 $190 $304 $305 reversed $119 $-1 #
face $-1 $-1 $306 $67 $-1 $307 forward single #
loop $-1 $308 $309 $121 #
cone-surface $-1 58.13705652396451 -15.352232607393798 3.4768651822461347 -0.55919291073839883 0 -0.82903756765294845 0.20725939191323711 0 -0.13979822768459971 1 I I -0.70710678118654746 0.70710678118654746 0.25 forward I I I I #
loop $-1 $-1 $310 $87 #
coedge $-1 $195 $195 $311 $312 reversed $122 $-1 #
face $-1 $313 $314 $68 $-1 $315 reversed single #
loop $-1 $-1 $316 $124 #
plane-surface $-1 -41.312505762799226 -4.1897184677390733 72.064215653917969 0.55919291073839883 0 0.82903756765294845 0.82903756765294845 0 -0.55919291073839883 forward_v I I I I #
coedge $-1 $317 $318 $319 $320 reversed $125 $-1 #
face $-1 $-1 $321 $69 $-1 $322 forward single #
loop $-1 $323 $324 $127 #
cone-surface $-1 58.13705652396451 -6.3619855670490715 3.4768651822461347 -0.55919291073839883 0 -0.82903756765294845 0.20725939191323711 0 -0.13979822768459971 1 I I -0.70710678118654746 0.70710678118654746 0.25 forward I I I I #
loop $-1 $-1 $325 $89 #
coedge $-1 $204 $204 $326 $327 reversed $128 $-1 #
face $-1 $-1 $328 $70 $-1 $329 forward single #
loop $-1 $330 $331 $130 #
cone-surface $-1 58.13705652396451 -4.1897184677390733 3.4768651822461347 -0.55919291073839883 0 -0.82903756765294845 0.20725939191323711 0 -0.13979822768459971 1 I I -0.70710678118654746 0.70710678118654746 0.25 forward I I I I #
loop $-1 $-1 $332 $90 #
coedge $-1 $209 $209 $333 $334 reversed $131 $-1 #
face $-1 $-1 $335 $71 $-1 $336 forward single #
loop $-1 $337 $338 $133 #
cone-surface $-1 58.13705652396451 -2.0174513684290751 3.4768651822461347 -0.55919291073839883 0 -0.82903756765294845 0.20725939191323711 0 -0.13979822768459971 1 I I -0.70710678118654746 0.70710678118654746 0.25 forward I I I I #
loop $-1 $-1 $339 $91 #
coedge $-1 $214 $214 $340 $341 reversed $134 $-1 #
face $-1 $342 $343 $72 $-1 $344 reversed single #
loop $-1 $-1 $345 $136 #
plane-surface $-1 -41.312505762799226 9.1450627712256498 72.064215653917969 0.55919291073839883 0 0.82903756765294845 0.82903756765294845 0 -0.55919291073839883 forward_v I I I I #
coedge $-1 $346 $347 $348 $349 reversed $137 $-1 #
face $-1 $-1 $350 $73 $-1 $351 forward single #
loop $-1 $352 $353 $139 #
cone-surface $-1 58.13705652396451 6.9727956719156516 3.4768651822461347 -0.55919291073839883 0 -0.82903756765294845 0.20725939191323711 0 -0.13979822768459971 1 I I -0.70710678118654746 0.70710678118654746 0.25 forward I I I I #
loop $-1 $-1 $354 $93 #
coedge $-1 $223 $223 $355 $356 reversed $140 $-1 #
face $-1 $-1 $357 $74 $-1 $358 forward single #
loop $-1 $359 $360 $142 #
cone-surface $-1 58.13705652396451 9.1450627712256498 3.4768651822461347 -0.55919291073839883 0 -0.82903756765294845 0.20725939191323711 0 -0.13979822768459971 1 I I -0.70710678118654746 0.70710678118654746 0.25 forward I I I I #
loop $-1 $-1 $361 $94 #
coedge $-1 $228 $228 $362 $363 reversed $143 $-1 #
face $-1 $-1 $364 $75 $-1 $365 forward single #
loop $-1 $366 $367 $145 #
cone-surface $-1 58.13705652396451 11.317329870535648 3.4768651822461347 -0.55919291073839883 0 -0.82903756765294845 0.20725939191323711 0 -0.13979822768459971 1 I I -0.70710678118654746 0.70710678118654746 0.25 forward I I I I #
loop $-1 $-1 $368 $95 #
coedge $-1 $233 $233 $369 $370 reversed $146 $-1 #
face $-1 $371 $372 $76 $-1 $373 reversed single #
loop $-1 $-1 $374 $148 #
plane-surface $-1 -41.312505762799226 22.479844010190373 72.064215653917969 0.55919291073839883 0 0.82903756765294845 0.82903756765294845 0 -0.55919291073839883 forward_v I I I I #
coedge $-1 $375 $376 $377 $378 reversed $149 $-1 #
face $-1 $-1 $379 $77 $-1 $380 forward single #
loop $-1 $381 $382 $151 #
cone-surface $-1 58.13705652396451 20.307576910880375 3.4768651822461347 -0.55919291073839883 0 -0.82903756765294845 0.20725939191323711 0 -0.13979822768459971 1 I I -0.70710678118654746 0.70710678118654746 0.25 forward I I I I #
loop $-1 $-1 $383 $97 #
coedge $-1 $242 $242 $384 $385 reversed $152 $-1 #
face $-1 $-1 $386 $78 $-1 $387 forward single #
loop $-1 $388 $389 $154 #
cone-surface $-1 58.13705652396451 22.479844010190373 3.4768651822461347 -0.55919291073839883 0 -0.82903756765294845 0.20725939191323711 0 -0.13979822768459971 1 I I -0.70710678118654746 0.70710678118654746 0.25 forward I I I I #
loop $-1 $-1 $390 $98 #
coedge $-1 $247 $247 $391 $392 reversed $155 $-1 #
face $-1 $-1 $393 $79 $-1 $394 forward single #
loop $-1 $395 $396 $157 #
cone-surface $-1 58.13705652396451 24.652111109500371 3.4768651822461347 -0.55919291073839883 0 -0.82903756765294845 0.20725939191323711 0 -0.13979822768459971 1 I I -0.70710678118654746 0.70710678118654746 0.25 forward I I I I #
loop $-1 $-1 $397 $99 #
coedge $-1 $252 $252 $398 $399 reversed $158 $-1 #
face $-1 $400 $401 $60 $-1 $402 reversed single #
loop $-1 $-1 $403 $160 #
plane-surface $-1 0 -26.100289175707037 0 0 1 0 0 0 1 forward_v I I I I #
coedge $-1 $404 $405 $406 $407 forward $161 $-1 #
coedge $-1 $408 $163 $409 $410 forward $101 $-1 #
coedge $-1 $163 $408 $411 $412 forward $101 $-1 #
coedge $-1 $413 $414 $163 $260 reversed $415 $-1 #
edge $-1 $416 -26.100289175707037 $417 26.100289175707037 $259 $418 forward 7 unknown #
face $-1 $419 $420 $61 $-1 $421 forward single #
loop $-1 $-1 $422 $164 #
plane-surface $-1 -56.955297000812216 -23.622617023963748 0 -1 0 0 0 0 1 forward_v I I I I #
coedge $-1 $423 $424 $425 $426 forward $165 $-1 #
coedge $-1 $427 $167 $428 $429 reversed $104 $-1 #
coedge $-1 $167 $427 $430 $431 reversed $104 $-1 #
coedge $-1 $424 $423 $167 $268 reversed $165 $-1 #
edge $-1 $432 -7.1719041621213737 $433 7.1719041621213737 $267 $434 forward 7 unknown #
face $-1 $435 $436 $62 $-1 $437 reversed single #
loop $-1 $-1 $438 $168 #
plane-surface $-1 -154.60334088438518 14.198911151968712 88.372075432150424 0 -1 0 0.73135370988377701 0 -0.68199835119979291 forward_v I I I I #
coedge $-1 $439 $440 $441 $442 reversed $169 $-1 #
coedge $-1 $274 $171 $443 $444 reversed $107 $-1 #
coedge $-1 $171 $273 $439 $445 reversed $107 $-1 #
coedge $-1 $441 $446 $171 $276 forward $447 $-1 #
edge $-1 $448 14.523875709687324 $449 18.653550121140711 $275 $450 forward 7 unknown #
loop $-1 $-1 $282 $172 #
plane-surface $-1 -62.777794732505271 10.548732290193851 2.7433704330951656 -0.73135370988377701 0 0.68199835119979291 0.68199835119979291 0 0.73135370988377701 forward_v I I I I #
loop $-1 $-1 $451 $109 #
coedge $-1 $280 $280 $281 $452 reversed $173 $-1 #
coedge $-1 $281 $281 $280 $452 forward $175 $-1 #
coedge $-1 $282 $282 $176 $283 forward $277 $-1 #
edge $-1 $453 0 $453 6.2831853071796004 $282 $454 forward 7 unknown #
face $-1 $455 $456 $64 $-1 $457 forward single #
loop $-1 $-1 $458 $177 #
plane-surface $-1 28.897289769615448 -21.14494487222046 176.15451614922245 0 1 0 0.55919291073839883 0 0.82903756765294845 forward_v I I I I #
coedge $-1 $459 $460 $461 $462 reversed $178 $-1 #
coedge $-1 $289 $180 $463 $464 reversed $113 $-1 #
coedge $-1 $180 $288 $459 $465 reversed $113 $-1 #
coedge $-1 $461 $466 $180 $291 forward $456 $-1 #
edge $-1 $467 -48.329149847697536 $468 -40.445655707462052 $290 $469 forward 7 unknown #
loop $-1 $-1 $297 $181 #
plane-surface $-1 -41.312505762799226 -17.524499706703796 72.064215653917969 0.55919291073839883 0 0.82903756765294845 0.82903756765294845 0 -0.55919291073839883 forward_v I I I I #
loop $-1 $-1 $470 $115 #
coedge $-1 $295 $295 $296 $471 reversed $182 $-1 #
coedge $-1 $296 $296 $295 $471 forward $184 $-1 #
coedge $-1 $297 $297 $185 $298 forward $292 $-1 #
edge $-1 $472 0 $472 6.2831853071796004 $297 $473 forward 7 unknown #
loop $-1 $-1 $304 $186 #
plane-surface $-1 -41.312505762799226 -17.524499706703796 72.064215653917969 0.55919291073839883 0 0.82903756765294845 0.82903756765294845 0 -0.55919291073839883 forward_v I I I I #
loop $-1 $-1 $474 $118 #
coedge $-1 $302 $302 $303 $475 reversed $187 $-1 #
coedge $-1 $303 $303 $302 $475 forward $189 $-1 #
coedge $-1 $304 $304 $190 $305 forward $299 $-1 #
edge $-1 $476 0 $476 6.2831853071796004 $304 $477 forward 7 unknown #
loop $-1 $-1 $311 $191 #
plane-surface $-1 -41.312505762799226 -17.524499706703796 72.064215653917969 0.55919291073839883 0 0.82903756765294845 0.82903756765294845 0 -0.55919291073839883 forward_v I I I I #
loop $-1 $-1 $478 $121 #
coedge $-1 $309 $309 $310 $479 reversed $192 $-1 #
coedge $-1 $310 $310 $309 $479 forward $194 $-1 #
coedge $-1 $311 $311 $195 $312 forward $306 $-1 #
edge $-1 $480 0 $480 6.2831853071796004 $311 $481 forward 7 unknown #
face $-1 $482 $483 $68 $-1 $484 reversed single #
loop $-1 $-1 $485 $196 #
plane-surface $-1 28.897289769615448 -7.8101636332557378 176.15451614922245 0 1 0 0.55919291073839883 0 0.82903756765294845 forward_v I I I I #
coedge $-1 $486 $487 $488 $489 reversed $197 $-1 #
coedge $-1 $318 $199 $490 $491 reversed $125 $-1 #
coedge $-1 $199 $317 $486 $492 reversed $125 $-1 #
coedge $-1 $488 $493 $199 $320 forward $494 $-1 #
edge $-1 $495 -48.329149847697536 $496 -40.445655707462052 $319 $497 forward 7 unknown #
loop $-1 $-1 $326 $200 #
plane-surface $-1 -41.312505762799226 -4.1897184677390733 72.064215653917969 0.55919291073839883 0 0.82903756765294845 0.82903756765294845 0 -0.55919291073839883 forward_v I I I I #
loop $-1 $-1 $498 $127 #
coedge $-1 $324 $324 $325 $499 reversed $201 $-1 #
coedge $-1 $325 $325 $324 $499 forward $203 $-1 #
coedge $-1 $326 $326 $204 $327 forward $321 $-1 #
edge $-1 $500 0 $500 6.2831853071796004 $326 $501 forward 7 unknown #
loop $-1 $-1 $333 $205 #
plane-surface $-1 -41.312505762799226 -4.1897184677390733 72.064215653917969 0.55919291073839883 0 0.82903756765294845 0.82903756765294845 0 -0.55919291073839883 forward_v I I I I #
loop $-1 $-1 $502 $130 #
coedge $-1 $331 $331 $332 $503 reversed $206 $-1 #
coedge $-1 $332 $332 $331 $503 forward $208 $-1 #
coedge $-1 $333 $333 $209 $334 forward $328 $-1 #
edge $-1 $504 0 $504 6.2831853071796004 $333 $505 forward 7 unknown #
loop $-1 $-1 $340 $210 #
plane-surface $-1 -41.312505762799226 -4.1897184677390733 72.064215653917969 0.55919291073839883 0 0.82903756765294845 0.82903756765294845 0 -0.55919291073839883 forward_v I I I I #
loop $-1 $-1 $506 $133 #
coedge $-1 $338 $338 $339 $507 reversed $211 $-1 #
coedge $-1 $339 $339 $338 $507 forward $213 $-1 #
coedge $-1 $340 $340 $214 $341 forward $335 $-1 #
edge $-1 $508 0 $508 6.2831853071796004 $340 $509 forward 7 unknown #
face $-1 $510 $511 $72 $-1 $512 reversed single #
loop $-1 $-1 $513 $215 #
plane-surface $-1 28.897289769615448 5.5246176057089853 176.15451614922245 0 1 0 0.55919291073839883 0 0.82903756765294845 forward_v I I I I #
coedge $-1 $514 $515 $516 $517 reversed $216 $-1 #
coedge $-1 $347 $218 $518 $519 reversed $137 $-1 #
coedge $-1 $218 $346 $514 $520 reversed $137 $-1 #
coedge $-1 $516 $521 $218 $349 forward $522 $-1 #
edge $-1 $523 -48.329149847697536 $524 -40.445655707462052 $348 $525 forward 7 unknown #
loop $-1 $-1 $355 $219 #
plane-surface $-1 -41.312505762799226 9.1450627712256498 72.064215653917969 0.55919291073839883 0 0.82903756765294845 0.82903756765294845 0 -0.55919291073839883 forward_v I I I I #
loop $-1 $-1 $526 $139 #
coedge $-1 $353 $353 $354 $527 reversed $220 $-1 #
coedge $-1 $354 $354 $353 $527 forward $222 $-1 #
coedge $-1 $355 $355 $223 $356 forward $350 $-1 #
edge $-1 $528 0 $528 6.2831853071796004 $355 $529 forward 7 unknown #
loop $-1 $-1 $362 $224 #
plane-surface $-1 -41.312505762799226 9.1450627712256498 72.064215653917969 0.55919291073839883 0 0.82903756765294845 0.82903756765294845 0 -0.55919291073839883 forward_v I I I I #
loop $-1 $-1 $530 $142 #
coedge $-1 $360 $360 $361 $531 reversed $225 $-1 #
coedge $-1 $361 $361 $360 $531 forward $227 $-1 #
coedge $-1 $362 $362 $228 $363 forward $357 $-1 #
edge $-1 $532 0 $532 6.2831853071796004 $362 $533 forward 7 unknown #
loop $-1 $-1 $369 $229 #
plane-surface $-1 -41.312505762799226 9.1450627712256498 72.064215653917969 0.55919291073839883 0 0.82903756765294845 0.82903756765294845 0 -0.55919291073839883 forward_v I I I I #
loop $-1 $-1 $534 $145 #
coedge $-1 $367 $367 $368 $535 reversed $230 $-1 #
coedge $-1 $368 $368 $367 $535 forward $232 $-1 #
coedge $-1 $369 $369 $233 $370 forward $364 $-1 #
edge $-1 $536 0 $536 6.2831853071796004 $369 $537 forward 7 unknown #
face $-1 $538 $539 $76 $-1 $540 forward single #
loop $-1 $-1 $377 $234 #
plane-surface $-1 62.777794732505264 0 0 -1 0 0 0 0 1 forward_v I I I I #
coedge $-1 $541 $542 $543 $544 reversed $235 $-1 #
coedge $-1 $376 $237 $545 $546 reversed $149 $-1 #
coedge $-1 $237 $375 $541 $547 reversed $149 $-1 #
coedge $-1 $543 $548 $237 $378 forward $372 $-1 #
edge $-1 $549 80.905353912489844 $550 86.222837953107927 $377 $551 forward 7 unknown #
loop $-1 $-1 $384 $238 #
plane-surface $-1 -41.312505762799226 22.479844010190373 72.064215653917969 0.55919291073839883 0 0.82903756765294845 0.82903756765294845 0 -0.55919291073839883 forward_v I I I I #
loop $-1 $-1 $552 $151 #
coedge $-1 $382 $382 $383 $553 reversed $239 $-1 #
coedge $-1 $383 $383 $382 $553 forward $241 $-1 #
coedge $-1 $384 $384 $242 $385 forward $379 $-1 #
edge $-1 $554 0 $554 6.2831853071796004 $384 $555 forward 7 unknown #
loop $-1 $-1 $391 $243 #
plane-surface $-1 -41.312505762799226 22.479844010190373 72.064215653917969 0.55919291073839883 0 0.82903756765294845 0.82903756765294845 0 -0.55919291073839883 forward_v I I I I #
loop $-1 $-1 $556 $154 #
coedge $-1 $389 $389 $390 $557 reversed $244 $-1 #
coedge $-1 $390 $390 $389 $557 forward $246 $-1 #
coedge $-1 $391 $391 $247 $392 forward $386 $-1 #
edge $-1 $558 0 $558 6.2831853071796004 $391 $559 forward 7 unknown #
loop $-1 $-1 $398 $248 #
plane-surface $-1 -41.312505762799226 22.479844010190373 72.064215653917969 0.55919291073839883 0 0.82903756765294845 0.82903756765294845 0 -0.55919291073839883 forward_v I I I I #
loop $-1 $-1 $560 $157 #
coedge $-1 $396 $396 $397 $561 reversed $249 $-1 #
coedge $-1 $397 $397 $396 $561 forward $251 $-1 #
coedge $-1 $398 $398 $252 $399 forward $393 $-1 #
edge $-1 $562 0 $562 6.2831853071796004 $398 $563 forward 7 unknown #
face $-1 $564 $565 $60 $-1 $566 reversed single #
loop $-1 $-1 $567 $253 #
plane-surface $-1 -62.777794732505264 0 0 1 0 0 0 0 -1 forward_v I I I I #
coedge $-1 $568 $411 $569 $570 forward $254 $-1 #
coedge $-1 $571 $256 $568 $572 forward $161 $-1 #
coedge $-1 $256 $571 $573 $574 forward $161 $-1 #
coedge $-1 $414 $413 $256 $407 reversed $415 $-1 #
edge $-1 $575 -26.100289175707037 $576 26.100289175707037 $406 $577 forward 7 unknown #
coedge $-1 $258 $257 $578 $579 forward $101 $-1 #
coedge $-1 $580 $581 $257 $410 reversed $565 $-1 #
edge $-1 $417 -62.777794732505264 $582 62.777794732505264 $409 $583 forward 7 unknown #
coedge $-1 $403 $584 $258 $412 reversed $254 $-1 #
edge $-1 $585 -62.777794732505264 $416 62.777794732505264 $411 $586 forward 7 unknown #
coedge $-1 $406 $259 $584 $587 forward $415 $-1 #
coedge $-1 $259 $406 $580 $588 reversed $415 $-1 #
loop $-1 $-1 $413 $564 #
vertex $-1 $260 $589 #
vertex $-1 $260 $590 #
straight-curve $-1 62.777794732505264 0 7.1719041621213737 0 1 0 I I #
face $-1 $591 $592 $61 $-1 $593 reversed single #
loop $-1 $-1 $594 $261 #
plane-surface $-1 0 0 7.1719041621213737 0 0 1 1 0 0 forward_v I I I I #
coedge $-1 $595 $596 $597 $598 reversed $262 $-1 #
coedge $-1 $267 $264 $599 $600 reversed $165 $-1 #
coedge $-1 $264 $267 $601 $602 reversed $165 $-1 #
coedge $-1 $596 $595 $264 $426 reversed $262 $-1 #
edge $-1 $603 -7.1719041621213737 $604 7.1719041621213737 $425 $605 forward 7 unknown #
coedge $-1 $266 $265 $606 $607 reversed $104 $-1 #
coedge $-1 $599 $608 $265 $429 forward $592 $-1 #
edge $-1 $609 -14.288980663725162 $433 -9.3336363602385859 $428 $610 forward 7 unknown #
coedge $-1 $611 $601 $266 $431 forward $420 $-1 #
edge $-1 $432 9.3336363602385859 $612 14.288980663725162 $430 $613 forward 7 unknown #
vertex $-1 $431 $614 #
vertex $-1 $429 $615 #
straight-curve $-1 -60.220792986296196 -21.14494487222046 0 0 0 -1 I I #
face $-1 $-1 $447 $62 $-1 $616 forward single #
loop $-1 $-1 $617 $269 #
plane-surface $-1 -62.777794732505264 0 0 1 0 0 0 0 -1 forward_v I I I I #
coedge $-1 $618 $619 $620 $621 reversed $270 $-1 #
coedge $-1 $622 $272 $274 $445 forward $169 $-1 #
coedge $-1 $272 $622 $618 $623 forward $169 $-1 #
coedge $-1 $620 $275 $272 $442 forward $447 $-1 #
edge $-1 $449 1.6241872833220636 $624 8.9245450068717869 $441 $625 forward 7 unknown #
coedge $-1 $626 $627 $273 $444 forward $436 $-1 #
edge $-1 $628 -41.44266728298004 $448 -37.01413355395384 $443 $629 forward 7 unknown #
edge $-1 $449 -6.0552557116719443 $628 -1.0367256691888158e-014 $274 $630 forward 7 unknown #
coedge $-1 $275 $620 $626 $631 forward $447 $-1 #
loop $-1 $-1 $620 $435 #
vertex $-1 $444 $632 #
vertex $-1 $276 $633 #
straight-curve $-1 -77.301670442192588 6.8985534284189889 7.1719041621213719 1 0 0 I I #
coedge $-1 $451 $451 $-1 $634 reversed $279 $-1 #
edge $-1 $635 0 $635 6.2831853071796004 $280 $636 forward 7 unknown #
vertex $-1 $283 $637 #
ellipse-curve $-1 -60.712957526778567 10.548732290193851 4.9576372976082741 -0.73135370988377701 0 0.68199835119979291 0.68199835119979291 0 0.73135370988377701 1 I I #
face $-1 $-1 $638 $64 $-1 $639 reversed single #
loop $-1 $-1 $290 $284 #
plane-surface $-1 0 0 7.1719041621213737 0 0 1 1 0 0 forward_v I I I I #
coedge $-1 $640 $641 $642 $643 reversed $285 $-1 #
coedge $-1 $644 $287 $289 $465 forward $178 $-1 #
coedge $-1 $287 $644 $640 $645 forward $178 $-1 #
coedge $-1 $642 $290 $287 $462 forward $456 $-1 #
edge $-1 $468 5.1418046878352346 $646 12.382695018868562 $461 $647 forward 7 unknown #
coedge $-1 $648 $649 $288 $464 forward $638 $-1 #
edge $-1 $650 -86.222837953107927 $467 -80.905353912489844 $463 $651 forward 7 unknown #
edge $-1 $468 116.04637727990522 $650 125.55558946501051 $289 $652 forward 7 unknown #
coedge $-1 $290 $642 $648 $653 forward $456 $-1 #
vertex $-1 $464 $654 #
vertex $-1 $291 $655 #
straight-curve $-1 14.448644884807724 -13.904054541187133 7.171904162121379 -1 0 0 I I #
coedge $-1 $470 $470 $-1 $656 reversed $294 $-1 #
edge $-1 $657 0 $657 6.2831853071796004 $295 $658 forward 7 unknown #
vertex $-1 $298 $659 #
ellipse-curve $-1 58.836047662387521 -19.696766806013795 4.513162141812332 0.55919291073839883 0 0.82903756765294845 0.41451878382647422 0 -0.27959645536919941 1 I I #
coedge $-1 $474 $474 $-1 $660 reversed $301 $-1 #
edge $-1 $661 0 $661 6.2831853071796004 $302 $662 forward 7 unknown #
vertex $-1 $305 $663 #
ellipse-curve $-1 58.836047662387521 -17.524499706703796 4.513162141812332 0.55919291073839883 0 0.82903756765294845 0.41451878382647422 0 -0.27959645536919941 1 I I #
coedge $-1 $478 $478 $-1 $664 reversed $308 $-1 #
edge $-1 $665 0 $665 6.2831853071796004 $309 $666 forward 7 unknown #
vertex $-1 $312 $667 #
ellipse-curve $-1 58.836047662387521 -15.352232607393798 4.513162141812332 0.55919291073839883 0 0.82903756765294845 0.41451878382647422 0 -0.27959645536919941 1 I I #
face $-1 $-1 $494 $68 $-1 $668 forward single #
loop $-1 $-1 $669 $313 #
plane-surface $-1 62.777794732505264 0 0 -1 0 0 0 0 1 forward_v I I I I #
coedge $-1 $670 $671 $672 $673 reversed $314 $-1 #
coedge $-1 $674 $316 $318 $492 forward $197 $-1 #
coedge $-1 $316 $674 $670 $675 forward $197 $-1 #
coedge $-1 $672 $319 $316 $489 forward $494 $-1 #
edge $-1 $496 -1.5255859316471279 $676 5.7153043993862012 $488 $677 forward 7 unknown #
coedge $-1 $678 $679 $317 $491 forward $483 $-1 #
edge $-1 $680 -86.222837953107927 $495 -80.905353912489844 $490 $681 forward 7 unknown #
edge $-1 $496 116.04637727990522 $680 125.55558946501051 $318 $682 forward 7 unknown #
coedge $-1 $319 $672 $678 $683 forward $494 $-1 #
loop $-1 $-1 $672 $482 #
vertex $-1 $491 $684 #
vertex $-1 $320 $685 #
straight-curve $-1 14.448644884807724 -0.56927330222240879 7.171904162121379 -1 0 0 I I #
coedge $-1 $498 $498 $-1 $686 reversed $323 $-1 #
edge $-1 $687 0 $687 6.2831853071796004 $324 $688 forward 7 unknown #
vertex $-1 $327 $689 #
ellipse-curve $-1 58.836047662387521 -6.3619855670490715 4.513162141812332 0.55919291073839883 0 0.82903756765294845 0.41451878382647422 0 -0.27959645536919941 1 I I #
coedge $-1 $502 $502 $-1 $690 reversed $330 $-1 #
edge $-1 $691 0 $691 6.2831853071796004 $331 $692 forward 7 unknown #
vertex $-1 $334 $693 #
ellipse-curve $-1 58.836047662387521 -4.1897184677390733 4.513162141812332 0.55919291073839883 0 0.82903756765294845 0.41451878382647422 0 -0.27959645536919941 1 I I #
coedge $-1 $506 $506 $-1 $694 reversed $337 $-1 #
edge $-1 $695 0 $695 6.2831853071796004 $338 $696 forward 7 unknown #
vertex $-1 $341 $697 #
ellipse-curve $-1 58.836047662387521 -2.0174513684290751 4.513162141812332 0.55919291073839883 0 0.82903756765294845 0.41451878382647422 0 -0.27959645536919941 1 I I #
face $-1 $-1 $522 $72 $-1 $698 forward single #
loop $-1 $-1 $699 $342 #
plane-surface $-1 62.777794732505264 0 0 -1 0 0 0 0 1 forward_v I I I I #
coedge $-1 $700 $701 $702 $703 reversed $343 $-1 #
coedge $-1 $704 $345 $347 $520 forward $216 $-1 #
coedge $-1 $345 $704 $700 $705 forward $216 $-1 #
coedge $-1 $702 $348 $345 $517 forward $522 $-1 #
edge $-1 $524 -8.1929765511294885 $706 -0.9520862200961604 $516 $707 forward 7 unknown #
coedge $-1 $708 $709 $346 $519 forward $511 $-1 #
edge $-1 $710 -86.222837953107927 $523 -80.905353912489844 $518 $711 forward 7 unknown #
edge $-1 $524 116.04637727990522 $710 125.55558946501051 $347 $712 forward 7 unknown #
coedge $-1 $348 $702 $708 $713 forward $522 $-1 #
loop $-1 $-1 $702 $510 #
vertex $-1 $519 $714 #
vertex $-1 $349 $715 #
straight-curve $-1 14.448644884807724 12.765507936742313 7.171904162121379 -1 0 0 I I #
coedge $-1 $526 $526 $-1 $716 reversed $352 $-1 #
edge $-1 $717 0 $717 6.2831853071796004 $353 $718 forward 7 unknown #
vertex $-1 $356 $719 #
ellipse-curve $-1 58.836047662387521 6.9727956719156516 4.513162141812332 0.55919291073839883 0 0.82903756765294845 0.41451878382647422 0 -0.27959645536919941 1 I I #
coedge $-1 $530 $530 $-1 $720 reversed $359 $-1 #
edge $-1 $721 0 $721 6.2831853071796004 $360 $722 forward 7 unknown #
vertex $-1 $363 $723 #
ellipse-curve $-1 58.836047662387521 9.1450627712256498 4.513162141812332 0.55919291073839883 0 0.82903756765294845 0.41451878382647422 0 -0.27959645536919941 1 I I #
coedge $-1 $534 $534 $-1 $724 reversed $366 $-1 #
edge $-1 $725 0 $725 6.2831853071796004 $367 $726 forward 7 unknown #
vertex $-1 $370 $727 #
ellipse-curve $-1 58.836047662387521 11.317329870535648 4.513162141812332 0.55919291073839883 0 0.82903756765294845 0.41451878382647422 0 -0.27959645536919941 1 I I #
face $-1 $-1 $728 $76 $-1 $729 reversed single #
loop $-1 $-1 $545 $371 #
plane-surface $-1 0 0 7.1719041621213737 0 0 1 1 0 0 forward_v I I I I #
coedge $-1 $730 $374 $376 $547 forward $235 $-1 #
coedge $-1 $374 $730 $731 $732 reversed $235 $-1 #
coedge $-1 $733 $377 $374 $544 forward $372 $-1 #
edge $-1 $550 7.6194768395785228 $734 14.86036717061185 $543 $735 forward 7 unknown #
coedge $-1 $736 $737 $375 $546 forward $539 $-1 #
edge $-1 $738 40.445655707462052 $549 48.329149847697536 $545 $739 forward 7 unknown #
edge $-1 $550 -125.55558946501051 $738 -116.04637727990522 $376 $740 forward 7 unknown #
coedge $-1 $377 $733 $736 $741 reversed $372 $-1 #
vertex $-1 $741 $742 #
vertex $-1 $378 $743 #
straight-curve $-1 62.777794732505264 18.859398844673709 88.077258074611223 0 0 -1 I I #
coedge $-1 $552 $552 $-1 $744 reversed $381 $-1 #
edge $-1 $745 0 $745 6.2831853071796004 $382 $746 forward 7 unknown #
vertex $-1 $385 $747 #
ellipse-curve $-1 58.836047662387521 20.307576910880375 4.513162141812332 0.55919291073839883 0 0.82903756765294845 0.41451878382647422 0 -0.27959645536919941 1 I I #
coedge $-1 $556 $556 $-1 $748 reversed $388 $-1 #
edge $-1 $749 0 $749 6.2831853071796004 $389 $750 forward 7 unknown #
vertex $-1 $392 $751 #
ellipse-curve $-1 58.836047662387521 22.479844010190373 4.513162141812332 0.55919291073839883 0 0.82903756765294845 0.41451878382647422 0 -0.27959645536919941 1 I I #
coedge $-1 $560 $560 $-1 $752 reversed $395 $-1 #
edge $-1 $753 0 $753 6.2831853071796004 $396 $754 forward 7 unknown #
vertex $-1 $399 $755 #
ellipse-curve $-1 58.836047662387521 24.652111109500371 4.513162141812332 0.55919291073839883 0 0.82903756765294845 0.41451878382647422 0 -0.27959645536919941 1 I I #
face $-1 $-1 $415 $60 $-1 $756 reversed single #
loop $-1 $-1 $580 $400 #
plane-surface $-1 0 26.100289175707037 0 0 -1 0 0 0 -1 forward_v I I I I #
coedge $-1 $757 $578 $581 $758 forward $401 $-1 #
coedge $-1 $584 $403 $404 $572 reversed $254 $-1 #
coedge $-1 $578 $757 $403 $570 reversed $401 $-1 #
edge $-1 $585 -7.1719041621213737 $759 7.1719041621213737 $569 $760 forward 7 unknown #
coedge $-1 $405 $404 $757 $761 forward $161 $-1 #
edge $-1 $576 -62.777794732505264 $759 62.777794732505264 $568 $762 forward 7 unknown #
coedge $-1 $581 $580 $405 $574 reversed $565 $-1 #
edge $-1 $763 -62.777794732505264 $575 62.777794732505264 $573 $764 forward 7 unknown #
vertex $-1 $407 $765 #
vertex $-1 $587 $766 #
straight-curve $-1 62.777794732505264 0 -7.1719041621213737 0 -1 0 I I #
coedge $-1 $567 $569 $408 $579 reversed $401 $-1 #
edge $-1 $582 -26.100289175707037 $585 26.100289175707037 $578 $767 forward 7 unknown #
coedge $-1 $573 $409 $414 $588 forward $565 $-1 #
coedge $-1 $409 $573 $567 $758 reversed $565 $-1 #
vertex $-1 $410 $768 #
straight-curve $-1 0 26.100289175707037 7.1719041621213737 -1 0 0 I I #
coedge $-1 $411 $568 $413 $587 reversed $254 $-1 #
vertex $-1 $579 $769 #
straight-curve $-1 0 -26.100289175707037 7.1719041621213737 1 0 0 I I #
edge $-1 $416 -7.1719041621213737 $576 7.1719041621213737 $413 $770 forward 7 unknown #
edge $-1 $417 -7.1719041621213737 $575 7.1719041621213737 $414 $771 forward 7 unknown #
point $-1 62.777794732505264 -26.100289175707037 7.1719041621213737 #
point $-1 62.777794732505264 26.100289175707037 7.1719041621213737 #
face $-1 $-1 $772 $61 $-1 $773 reversed single #
loop $-1 $-1 $774 $419 #
plane-surface $-1 0 0 -7.1719041621213737 0 0 1 1 0 0 forward_v I I I I #
coedge $-1 $601 $611 $596 $775 forward $420 $-1 #
coedge $-1 $425 $422 $774 $776 reversed $262 $-1 #
coedge $-1 $422 $425 $594 $775 reversed $262 $-1 #
coedge $-1 $777 $778 $422 $598 forward $772 $-1 #
edge $-1 $779 -7.1719041621213737 $780 7.1719041621213737 $597 $781 forward 7 unknown #
coedge $-1 $774 $428 $423 $600 forward $592 $-1 #
edge $-1 $433 -30.926770489519093 $604 -27.661274504035113 $599 $782 forward 7 unknown #
coedge $-1 $430 $594 $424 $602 forward $420 $-1 #
edge $-1 $603 27.661274504035113 $432 30.926770489519093 $601 $783 forward 7 unknown #
vertex $-1 $602 $784 #
vertex $-1 $600 $785 #
straight-curve $-1 -56.955297000812216 -21.14494487222046 0 0 0 -1 I I #
coedge $-1 $778 $777 $427 $607 forward $772 $-1 #
edge $-1 $612 -7.1719041621213737 $609 7.1719041621213737 $606 $786 forward 7 unknown #
coedge $-1 $428 $774 $778 $787 forward $592 $-1 #
vertex $-1 $429 $788 #
straight-curve $-1 -60.220792986296196 -11.811308511981874 -7.1719041621213737 0 1 0 I I #
coedge $-1 $594 $430 $777 $789 forward $420 $-1 #
vertex $-1 $789 $790 #
straight-curve $-1 -60.220792986296196 -11.811308511981874 7.1719041621213737 0 -1 0 I I #
point $-1 -60.220792986296196 -21.14494487222046 7.1719041621213737 #
point $-1 -60.220792986296196 -21.14494487222046 -7.1719041621213737 #
plane-surface $-1 0 0 7.1719041621213737 0 0 1 1 0 0 forward_v I I I I #
coedge $-1 $627 $626 $619 $791 forward $436 $-1 #
coedge $-1 $619 $438 $440 $623 reversed $270 $-1 #
coedge $-1 $438 $618 $617 $791 reversed $270 $-1 #
coedge $-1 $446 $441 $438 $621 forward $447 $-1 #
edge $-1 $624 -18.653550121140711 $792 -14.523875709687324 $620 $793 forward 7 unknown #
coedge $-1 $440 $439 $627 $794 reversed $169 $-1 #
edge $-1 $795 1.0367256691888158e-014 $624 6.0552557116719443 $618 $796 forward 7 unknown #
vertex $-1 $442 $797 #
straight-curve $-1 -58.64812032105187 5.2743661450969253 7.1719041621213719 0 1 0 I I #
coedge $-1 $617 $443 $446 $631 reversed $436 $-1 #
coedge $-1 $443 $617 $622 $794 forward $436 $-1 #
vertex $-1 $444 $798 #
straight-curve $-1 -62.777794732505264 6.8985534284189889 44.186037716075212 0 0 1 I I #
straight-curve $-1 -62.777794732505271 6.8985534284189889 2.7433704330951656 -0.68199835119979291 0 -0.73135370988377701 I I #
edge $-1 $792 -14.198911151968712 $448 -6.8985534284189889 $626 $799 forward 7 unknown #
point $-1 -62.777794732505264 6.8985534284189889 7.1719041621213737 #
point $-1 -58.648120321051877 6.8985534284189889 7.1719041621213737 #
edge $-1 $800 1 $800 0 $451 $-1 forward 7 unknown #
vertex $-1 $452 $801 #
ellipse-curve $-1 -58.046675856949278 10.548732290193851 2.4712894770075176 -0.73135370988377701 0 0.68199835119979291 0.68199835119979291 0 0.73135370988377701 1 I I #
point $-1 -60.030959175578772 10.548732290193851 5.6889910074920476 #
loop $-1 $-1 $463 $455 #
plane-surface $-1 62.777794732505264 0 0 -1 0 0 0 0 1 forward_v I I I I #
coedge $-1 $641 $458 $460 $645 reversed $285 $-1 #
coedge $-1 $458 $640 $802 $803 reversed $285 $-1 #
coedge $-1 $466 $461 $458 $643 forward $456 $-1 #
edge $-1 $646 40.445655707462052 $804 48.329149847697536 $642 $805 forward 7 unknown #
coedge $-1 $460 $459 $649 $806 reversed $178 $-1 #
edge $-1 $807 -125.55558946501051 $646 -116.04637727990522 $640 $808 forward 7 unknown #
vertex $-1 $462 $809 #
straight-curve $-1 54.894300592269786 -8.7622498533518982 7.1719041621213719 0 -1 0 I I #
coedge $-1 $802 $463 $466 $653 reversed $638 $-1 #
coedge $-1 $463 $802 $644 $806 forward $638 $-1 #
vertex $-1 $464 $810 #
straight-curve $-1 62.777794732505264 -13.904054541187133 88.077258074611223 0 0 1 I I #
straight-curve $-1 -41.312505762799226 -13.904054541187133 72.064215653917969 0.82903756765294845 0 -0.55919291073839883 I I #
edge $-1 $804 -21.14494487222046 $467 -13.904054541187133 $648 $811 forward 7 unknown #
point $-1 62.777794732505264 -13.904054541187133 7.1719041621213737 #
point $-1 54.894300592269779 -13.904054541187133 7.171904162121379 #
edge $-1 $812 1 $812 0 $470 $-1 forward 7 unknown #
vertex $-1 $471 $813 #
ellipse-curve $-1 58.276854751649111 -19.696766806013795 3.6841245741593718 0.55919291073839883 0 0.82903756765294845 0.41451878382647422 0 -0.27959645536919941 1 I I #
point $-1 59.25056644621398 -19.696766806013795 4.2335656864431206 #
edge $-1 $814 1 $814 0 $474 $-1 forward 7 unknown #
vertex $-1 $475 $815 #
ellipse-curve $-1 58.276854751649111 -17.524499706703796 3.6841245741593718 0.55919291073839883 0 0.82903756765294845 0.41451878382647422 0 -0.27959645536919941 1 I I #
point $-1 59.25056644621398 -17.524499706703796 4.2335656864431206 #
edge $-1 $816 1 $816 0 $478 $-1 forward 7 unknown #
vertex $-1 $479 $817 #
ellipse-curve $-1 58.276854751649111 -15.352232607393798 3.6841245741593718 0.55919291073839883 0 0.82903756765294845 0.41451878382647422 0 -0.27959645536919941 1 I I #
point $-1 59.25056644621398 -15.352232607393798 4.2335656864431206 #
plane-surface $-1 0 0 7.1719041621213737 0 0 1 1 0 0 forward_v I I I I #
coedge $-1 $679 $678 $671 $818 forward $483 $-1 #
coedge $-1 $671 $485 $487 $675 reversed $314 $-1 #
coedge $-1 $485 $670 $669 $818 reversed $314 $-1 #
coedge $-1 $493 $488 $485 $673 forward $494 $-1 #
edge $-1 $676 40.445655707462052 $819 48.329149847697536 $672 $820 forward 7 unknown #
coedge $-1 $487 $486 $679 $821 reversed $197 $-1 #
edge $-1 $822 -125.55558946501051 $676 -116.04637727990522 $670 $823 forward 7 unknown #
vertex $-1 $489 $824 #
straight-curve $-1 54.894300592269786 -2.0948592338695367 7.1719041621213719 0 -1 0 I I #
coedge $-1 $669 $490 $493 $683 reversed $483 $-1 #
coedge $-1 $490 $669 $674 $821 forward $483 $-1 #
vertex $-1 $491 $825 #
straight-curve $-1 62.777794732505264 -0.56927330222240879 88.077258074611223 0 0 1 I I #
straight-curve $-1 -41.312505762799226 -0.56927330222240879 72.064215653917969 0.82903756765294845 0 -0.55919291073839883 I I #
edge $-1 $819 -7.8101636332557378 $495 -0.56927330222240879 $678 $826 forward 7 unknown #
point $-1 62.777794732505264 -0.56927330222240879 7.1719041621213737 #
point $-1 54.894300592269779 -0.56927330222240879 7.171904162121379 #
edge $-1 $827 1 $827 0 $498 $-1 forward 7 unknown #
vertex $-1 $499 $828 #
ellipse-curve $-1 58.276854751649111 -6.3619855670490715 3.6841245741593718 0.55919291073839883 0 0.82903756765294845 0.41451878382647422 0 -0.27959645536919941 1 I I #
point $-1 59.25056644621398 -6.3619855670490715 4.2335656864431206 #
edge $-1 $829 1 $829 0 $502 $-1 forward 7 unknown #
vertex $-1 $503 $830 #
ellipse-curve $-1 58.276854751649111 -4.1897184677390733 3.6841245741593718 0.55919291073839883 0 0.82903756765294845 0.41451878382647422 0 -0.27959645536919941 1 I I #
point $-1 59.25056644621398 -4.1897184677390733 4.2335656864431206 #
edge $-1 $831 1 $831 0 $506 $-1 forward 7 unknown #
vertex $-1 $507 $832 #
ellipse-curve $-1 58.276854751649111 -2.0174513684290751 3.6841245741593718 0.55919291073839883 0 0.82903756765294845 0.41451878382647422 0 -0.27959645536919941 1 I I #
point $-1 59.25056644621398 -2.0174513684290751 4.2335656864431206 #
plane-surface $-1 0 0 7.1719041621213737 0 0 1 1 0 0 forward_v I I I I #
coedge $-1 $709 $708 $701 $833 forward $511 $-1 #
coedge $-1 $701 $513 $515 $705 reversed $343 $-1 #
coedge $-1 $513 $700 $699 $833 reversed $343 $-1 #
coedge $-1 $521 $516 $513 $703 forward $522 $-1 #
edge $-1 $706 40.445655707462052 $834 48.329149847697536 $702 $835 forward 7 unknown #
coedge $-1 $515 $514 $709 $836 reversed $216 $-1 #
edge $-1 $837 -125.55558946501051 $706 -116.04637727990522 $700 $838 forward 7 unknown #
vertex $-1 $517 $839 #
straight-curve $-1 54.894300592269786 4.5725313856128249 7.1719041621213719 0 -1 0 I I #
coedge $-1 $699 $518 $521 $713 reversed $511 $-1 #
coedge $-1 $518 $699 $704 $836 forward $511 $-1 #
vertex $-1 $519 $840 #
straight-curve $-1 62.777794732505264 12.765507936742313 88.077258074611223 0 0 1 I I #
straight-curve $-1 -41.312505762799226 12.765507936742313 72.064215653917969 0.82903756765294845 0 -0.55919291073839883 I I #
edge $-1 $834 5.5246176057089853 $523 12.765507936742313 $708 $841 forward 7 unknown #
point $-1 62.777794732505264 12.765507936742313 7.1719041621213737 #
point $-1 54.894300592269779 12.765507936742313 7.171904162121379 #
edge $-1 $842 1 $842 0 $526 $-1 forward 7 unknown #
vertex $-1 $527 $843 #
ellipse-curve $-1 58.276854751649111 6.9727956719156516 3.6841245741593718 0.55919291073839883 0 0.82903756765294845 0.41451878382647422 0 -0.27959645536919941 1 I I #
point $-1 59.25056644621398 6.9727956719156516 4.2335656864431206 #
edge $-1 $844 1 $844 0 $530 $-1 forward 7 unknown #
vertex $-1 $531 $845 #
ellipse-curve $-1 58.276854751649111 9.1450627712256498 3.6841245741593718 0.55919291073839883 0 0.82903756765294845 0.41451878382647422 0 -0.27959645536919941 1 I I #
point $-1 59.25056644621398 9.1450627712256498 4.2335656864431206 #
edge $-1 $846 1 $846 0 $534 $-1 forward 7 unknown #
vertex $-1 $535 $847 #
ellipse-curve $-1 58.276854751649111 11.317329870535648 3.6841245741593718 0.55919291073839883 0 0.82903756765294845 0.41451878382647422 0 -0.27959645536919941 1 I I #
point $-1 59.25056644621398 11.317329870535648 4.2335656864431206 #
loop $-1 $-1 $731 $538 #
plane-surface $-1 0 26.100289175707037 0 0 -1 0 0 0 -1 forward_v I I I I #
coedge $-1 $542 $541 $737 $848 reversed $235 $-1 #
coedge $-1 $849 $850 $542 $732 forward $728 $-1 #
edge $-1 $734 -88.281880563593745 $851 -78.772668378488433 $731 $852 forward 7 unknown #
coedge $-1 $548 $543 $850 $853 reversed $372 $-1 #
vertex $-1 $544 $854 #
straight-curve $-1 62.777794732505271 11.239922005095186 1.8544201215032814 0 1 0 I I #
coedge $-1 $855 $545 $548 $741 forward $539 $-1 #
coedge $-1 $545 $855 $730 $848 forward $539 $-1 #
vertex $-1 $546 $856 #
straight-curve $-1 14.448644884807724 18.859398844673709 7.171904162121379 1 0 0 I I #
straight-curve $-1 -41.312505762799226 18.859398844673709 72.064215653917969 -0.82903756765294845 0 0.55919291073839883 I I #
edge $-1 $549 18.859398844673709 $857 26.100289175707037 $548 $858 forward 7 unknown #
point $-1 62.777794732505264 18.859398844673709 7.1719041621213737 #
point $-1 62.777794732505264 18.859398844673709 1.8544201215032956 #
edge $-1 $859 1 $859 0 $552 $-1 forward 7 unknown #
vertex $-1 $553 $860 #
ellipse-curve $-1 58.276854751649111 20.307576910880375 3.6841245741593718 0.55919291073839883 0 0.82903756765294845 0.41451878382647422 0 -0.27959645536919941 1 I I #
point $-1 59.25056644621398 20.307576910880375 4.2335656864431206 #
edge $-1 $861 1 $861 0 $556 $-1 forward 7 unknown #
vertex $-1 $557 $862 #
ellipse-curve $-1 58.276854751649111 22.479844010190373 3.6841245741593718 0.55919291073839883 0 0.82903756765294845 0.41451878382647422 0 -0.27959645536919941 1 I I #
point $-1 59.25056644621398 22.479844010190373 4.2335656864431206 #
edge $-1 $863 1 $863 0 $560 $-1 forward 7 unknown #
vertex $-1 $561 $864 #
ellipse-curve $-1 58.276854751649111 24.652111109500371 3.6841245741593718 0.55919291073839883 0 0.82903756765294845 0.41451878382647422 0 -0.27959645536919941 1 I I #
point $-1 59.25056644621398 24.652111109500371 4.2335656864431206 #
plane-surface $-1 62.777794732505264 0 0 -1 0 0 0 0 1 forward_v I I I I #
coedge $-1 $569 $567 $571 $761 reversed $401 $-1 #
edge $-1 $582 -7.1719041621213737 $763 7.1719041621213737 $581 $865 forward 7 unknown #
vertex $-1 $761 $866 #
straight-curve $-1 -62.777794732505264 -26.100289175707037 0 0 0 -1 I I #
edge $-1 $759 -26.100289175707037 $763 26.100289175707037 $757 $867 forward 7 unknown #
straight-curve $-1 0 -26.100289175707037 -7.1719041621213737 -1 0 0 I I #
vertex $-1 $574 $868 #
straight-curve $-1 0 26.100289175707037 -7.1719041621213737 1 0 0 I I #
point $-1 62.777794732505264 26.100289175707037 -7.1719041621213737 #
point $-1 62.777794732505264 -26.100289175707037 -7.1719041621213737 #
straight-curve $-1 -62.777794732505264 0 7.1719041621213737 0 -1 0 I I #
point $-1 -62.777794732505264 26.100289175707037 7.1719041621213737 #
point $-1 -62.777794732505264 -26.100289175707037 7.1719041621213737 #
straight-curve $-1 62.777794732505264 -26.100289175707037 0 0 0 -1 I I #
straight-curve $-1 62.777794732505264 26.100289175707037 0 0 0 -1 I I #
loop $-1 $-1 $597 $591 #
plane-surface $-1 0 -26.100289175707037 0 0 1 0 0 0 1 forward_v I I I I #
coedge $-1 $608 $599 $595 $776 forward $592 $-1 #
edge $-1 $780 -14.288980663725162 $603 -9.3336363602385859 $594 $869 forward 7 unknown #
edge $-1 $604 9.3336363602385859 $779 14.288980663725162 $774 $870 forward 7 unknown #
coedge $-1 $606 $597 $611 $789 reversed $772 $-1 #
coedge $-1 $597 $606 $608 $787 reversed $772 $-1 #
vertex $-1 $787 $871 #
vertex $-1 $598 $872 #
straight-curve $-1 -56.955297000812216 -26.100289175707037 0 0 0 1 I I #
straight-curve $-1 -29.294022496777103 -21.14494487222046 -7.1719041621213737 1 0 0 I I #
straight-curve $-1 -29.294022496777103 -21.14494487222046 7.1719041621213737 -1 0 0 I I #
point $-1 -56.955297000812216 -21.14494487222046 7.1719041621213737 #
point $-1 -56.955297000812216 -21.14494487222046 -7.1719041621213737 #
straight-curve $-1 -60.220792986296196 -26.100289175707037 0 0 0 -1 I I #
edge $-1 $779 56.955297000812216 $609 60.220792986296196 $778 $873 forward 7 unknown #
point $-1 -60.220792986296196 -26.100289175707037 -7.1719041621213737 #
edge $-1 $612 -60.220792986296196 $780 -56.955297000812216 $777 $874 forward 7 unknown #
point $-1 -60.220792986296196 -26.100289175707037 7.1719041621213737 #
edge $-1 $792 37.01413355395384 $795 41.44266728298004 $617 $875 forward 7 unknown #
vertex $-1 $631 $876 #
straight-curve $-1 -77.301670442192588 14.198911151968712 7.1719041621213719 -1 0 0 I I #
edge $-1 $795 -8.9245450068717869 $628 -1.6241872833220636 $627 $877 forward 7 unknown #
vertex $-1 $794 $878 #
straight-curve $-1 -62.777794732505271 14.198911151968712 2.7433704330951656 0.68199835119979291 0 0.73135370988377701 I I #
point $-1 -58.648120321051877 14.198911151968712 7.1719041621213737 #
point $-1 -62.777794732505264 6.8985534284189889 2.7433704330951731 #
straight-curve $-1 -62.777794732505264 0 7.1719041621213737 0 -1 0 I I #
vertex $-1 $634 $879 #
point $-1 -57.364677505749484 10.548732290193851 3.2026431868912946 #
coedge $-1 $649 $648 $641 $803 forward $638 $-1 #
edge $-1 $804 80.905353912489844 $807 86.222837953107927 $802 $880 forward 7 unknown #
vertex $-1 $653 $881 #
straight-curve $-1 14.448644884807724 -21.14494487222046 7.171904162121379 1 0 0 I I #
edge $-1 $807 -12.382695018868562 $650 -5.1418046878352346 $649 $882 forward 7 unknown #
vertex $-1 $806 $883 #
straight-curve $-1 -41.312505762799226 -21.14494487222046 72.064215653917969 -0.82903756765294845 0 0.55919291073839883 I I #
point $-1 54.894300592269779 -21.14494487222046 7.171904162121379 #
point $-1 62.777794732505264 -13.904054541187133 1.8544201215032956 #
straight-curve $-1 62.777794732505264 0 7.1719041621213737 0 1 0 I I #
vertex $-1 $656 $884 #
point $-1 58.691373535475584 -19.696766806013795 3.4045281187901724 #
vertex $-1 $660 $885 #
point $-1 58.691373535475584 -17.524499706703796 3.4045281187901724 #
vertex $-1 $664 $886 #
point $-1 58.691373535475584 -15.352232607393798 3.4045281187901724 #
edge $-1 $819 80.905353912489844 $822 86.222837953107927 $669 $887 forward 7 unknown #
vertex $-1 $683 $888 #
straight-curve $-1 14.448644884807724 -7.8101636332557378 7.171904162121379 1 0 0 I I #
edge $-1 $822 -5.7153043993862012 $680 1.5255859316471279 $679 $889 forward 7 unknown #
vertex $-1 $821 $890 #
straight-curve $-1 -41.312505762799226 -7.8101636332557378 72.064215653917969 -0.82903756765294845 0 0.55919291073839883 I I #
point $-1 54.894300592269779 -7.8101636332557378 7.171904162121379 #
point $-1 62.777794732505264 -0.56927330222240879 1.8544201215032956 #
straight-curve $-1 62.777794732505264 0 7.1719041621213737 0 1 0 I I #
vertex $-1 $686 $891 #
point $-1 58.691373535475584 -6.3619855670490715 3.4045281187901724 #
vertex $-1 $690 $892 #
point $-1 58.691373535475584 -4.1897184677390733 3.4045281187901724 #
vertex $-1 $694 $893 #
point $-1 58.691373535475584 -2.0174513684290751 3.4045281187901724 #
edge $-1 $834 80.905353912489844 $837 86.222837953107927 $699 $894 forward 7 unknown #
vertex $-1 $713 $895 #
straight-curve $-1 14.448644884807724 5.5246176057089853 7.171904162121379 1 0 0 I I #
edge $-1 $837 0.9520862200961604 $710 8.1929765511294885 $709 $896 forward 7 unknown #
vertex $-1 $836 $897 #
straight-curve $-1 -41.312505762799226 5.5246176057089853 72.064215653917969 -0.82903756765294845 0 0.55919291073839883 I I #
point $-1 54.894300592269779 5.5246176057089853 7.171904162121379 #
point $-1 62.777794732505264 12.765507936742313 1.8544201215032956 #
straight-curve $-1 62.777794732505264 0 7.1719041621213737 0 1 0 I I #
vertex $-1 $716 $898 #
point $-1 58.691373535475584 6.9727956719156516 3.4045281187901724 #
vertex $-1 $720 $899 #
point $-1 58.691373535475584 9.1450627712256498 3.4045281187901724 #
vertex $-1 $724 $900 #
point $-1 58.691373535475584 11.317329870535648 3.4045281187901724 #
edge $-1 $851 -14.86036717061185 $738 -7.6194768395785228 $737 $901 forward 7 unknown #
coedge $-1 $850 $731 $855 $902 reversed $728 $-1 #
coedge $-1 $731 $849 $733 $853 forward $728 $-1 #
vertex $-1 $732 $903 #
straight-curve $-1 -10.411200797764604 26.100289175707037 51.221021879318954 -0.82903756765294845 0 0.55919291073839883 I I #
edge $-1 $857 -7.1719041621213737 $734 -1.8544201215032816 $733 $904 forward 7 unknown #
point $-1 62.777794732505264 26.100289175707037 1.8544201215032816 #
coedge $-1 $737 $736 $849 $902 forward $539 $-1 #
point $-1 54.894300592269779 18.859398844673709 7.171904162121379 #
vertex $-1 $741 $905 #
straight-curve $-1 62.777794732505264 0 7.1719041621213737 0 1 0 I I #
vertex $-1 $744 $906 #
point $-1 58.691373535475584 20.307576910880375 3.4045281187901724 #
vertex $-1 $748 $907 #
point $-1 58.691373535475584 22.479844010190373 3.4045281187901724 #
vertex $-1 $752 $908 #
point $-1 58.691373535475584 24.652111109500371 3.4045281187901724 #
straight-curve $-1 -62.777794732505264 26.100289175707037 0 0 0 -1 I I #
point $-1 -62.777794732505264 -26.100289175707037 -7.1719041621213737 #
straight-curve $-1 -62.777794732505264 0 -7.1719041621213737 0 1 0 I I #
point $-1 -62.777794732505264 26.100289175707037 -7.1719041621213737 #
straight-curve $-1 -56.955297000812216 -11.811308511981874 7.1719041621213737 0 1 0 I I #
straight-curve $-1 -56.955297000812216 -11.811308511981874 -7.1719041621213737 0 -1 0 I I #
point $-1 -56.955297000812216 -26.100289175707037 -7.1719041621213737 #
point $-1 -56.955297000812216 -26.100289175707037 7.1719041621213737 #
straight-curve $-1 0 -26.100289175707037 -7.1719041621213737 -1 0 0 I I #
straight-curve $-1 0 -26.100289175707037 7.1719041621213737 1 0 0 I I #
straight-curve $-1 -62.777794732505264 14.198911151968712 44.186037716075212 0 0 -1 I I #
point $-1 -62.777794732505264 14.198911151968712 7.1719041621213737 #
straight-curve $-1 -62.777794732505264 5.2743661450969253 2.743370433095178 0 -1 0 I I #
point $-1 -62.777794732505264 14.198911151968712 2.7433704330951731 #
point $-1 -57.315322147065501 10.548732290193851 1.7892911258077246 #
straight-curve $-1 62.777794732505264 -21.14494487222046 88.077258074611223 0 0 -1 I I #
point $-1 62.777794732505264 -21.14494487222046 7.1719041621213737 #
straight-curve $-1 62.777794732505271 -8.7622498533518982 1.8544201215032814 0 1 0 I I #
point $-1 62.777794732505264 -21.14494487222046 1.8544201215032956 #
point $-1 57.997258296279909 -19.696766806013795 3.2696057903328977 #
point $-1 57.997258296279909 -17.524499706703796 3.2696057903328977 #
point $-1 57.997258296279909 -15.352232607393798 3.2696057903328977 #
straight-curve $-1 62.777794732505264 -7.8101636332557378 88.077258074611223 0 0 -1 I I #
point $-1 62.777794732505264 -7.8101636332557378 7.1719041621213737 #
straight-curve $-1 62.777794732505271 -2.0948592338695367 1.8544201215032814 0 1 0 I I #
point $-1 62.777794732505264 -7.8101636332557378 1.8544201215032956 #
point $-1 57.997258296279909 -6.3619855670490715 3.2696057903328977 #
point $-1 57.997258296279909 -4.1897184677390733 3.2696057903328977 #
point $-1 57.997258296279909 -2.0174513684290751 3.2696057903328977 #
straight-curve $-1 62.777794732505264 5.5246176057089853 88.077258074611223 0 0 -1 I I #
point $-1 62.777794732505264 5.5246176057089853 7.1719041621213737 #
straight-curve $-1 62.777794732505271 4.5725313856128249 1.8544201215032814 0 1 0 I I #
point $-1 62.777794732505264 5.5246176057089853 1.8544201215032956 #
point $-1 57.997258296279909 6.9727956719156516 3.2696057903328977 #
point $-1 57.997258296279909 9.1450627712256498 3.2696057903328977 #
point $-1 57.997258296279909 11.317329870535648 3.2696057903328977 #
straight-curve $-1 54.894300592269786 11.239922005095186 7.1719041621213719 0 -1 0 I I #
edge $-1 $857 -62.777794732505264 $851 -54.894300592269779 $849 $909 forward 7 unknown #
point $-1 54.894300592269779 26.100289175707037 7.171904162121379 #
straight-curve $-1 62.777794732505264 26.100289175707037 0 0 0 -1 I I #
point $-1 62.777794732505264 26.100289175707037 7.1719041621213737 #
point $-1 57.997258296279909 20.307576910880375 3.2696057903328977 #
point $-1 57.997258296279909 22.479844010190373 3.2696057903328977 #
point $-1 57.997258296279909 24.652111109500371 3.2696057903328977 #
straight-curve $-1 0 26.100289175707037 7.1719041621213737 -1 0 0 I I #
End-of-ACIS-data 