500 0 9 0           
7 Unknown 11 ACIS 5.0 NT 24 Thu Mar 25 16:24:27 1999 
-1 9.9999999999999995e-007 1e-010 
body $-1 $9 $-1 $10 #
body $-1 $11 $-1 $12 #
body $-1 $13 $-1 $14 #
body $-1 $15 $-1 $16 #
body $-1 $17 $-1 $18 #
body $-1 $19 $-1 $20 #
body $-1 $21 $-1 $22 #
body $-1 $23 $-1 $24 #
body $-1 $25 $-1 $26 #
lump $-1 $-1 $27 $0 #
transform $-1 1 0 0 0 1 0 0 0 1 72.270271919919423 40.418594778151046 14.219223897386346 1 rotate no_reflect no_shear #
lump $-1 $-1 $28 $1 #
transform $-1 1 0 0 0 1 0 0 0 1 72.270271919919423 40.418594778151046 14.219223897386346 1 rotate no_reflect no_shear #
lump $-1 $-1 $29 $2 #
transform $-1 1 0 0 0 1 0 0 0 1 72.270271919919423 40.418594778151046 14.219223897386346 1 rotate no_reflect no_shear #
lump $-1 $-1 $30 $3 #
transform $-1 1 0 0 0 1 0 0 0 1 72.270271919919423 40.418594778151046 14.219223897386346 1 rotate no_reflect no_shear #
lump $-1 $-1 $31 $4 #
transform $-1 1 0 0 0 1 0 0 0 1 72.270271919919423 40.418594778151046 14.219223897386346 1 rotate no_reflect no_shear #
lump $-1 $-1 $32 $5 #
transform $-1 1 0 0 0 1 0 0 0 1 72.270271919919423 40.418594778151046 14.219223897386346 1 rotate no_reflect no_shear #
lump $-1 $-1 $33 $6 #
transform $-1 1 0 0 0 1 0 0 0 1 72.270271919919423 40.418594778151046 14.219223897386346 1 rotate no_reflect no_shear #
lump $-1 $-1 $34 $7 #
transform $-1 1 0 0 0 1 0 0 0 1 72.270271919919423 40.418594778151046 14.219223897386346 1 rotate no_reflect no_shear #
lump $-1 $-1 $35 $8 #
transform $-1 1 0 0 0 1 0 0 0 1 72.270271919919423 40.418594778151046 14.219223897386346 1 rotate no_reflect no_shear #
shell $-1 $-1 $-1 $36 $-1 $9 #
shell $-1 $-1 $-1 $37 $-1 $11 #
shell $-1 $-1 $-1 $38 $-1 $13 #
shell $-1 $-1 $-1 $39 $-1 $15 #
shell $-1 $-1 $-1 $40 $-1 $17 #
shell $-1 $-1 $-1 $41 $-1 $19 #
shell $-1 $-1 $-1 $42 $-1 $21 #
shell $-1 $-1 $-1 $43 $-1 $23 #
shell $-1 $-1 $-1 $44 $-1 $25 #
face $-1 $45 $46 $27 $-1 $47 forward single #
face $-1 $48 $49 $28 $-1 $50 reversed single #
face $-1 $51 $52 $29 $-1 $53 reversed single #
face $-1 $54 $55 $30 $-1 $56 reversed single #
face $-1 $57 $58 $31 $-1 $59 forward single #
face $-1 $60 $61 $32 $-1 $62 forward single #
face $-1 $63 $64 $33 $-1 $65 forward single #
face $-1 $66 $67 $34 $-1 $68 reversed single #
face $-1 $69 $70 $35 $-1 $71 forward single #
face $-1 $72 $73 $27 $-1 $74 reversed single #
loop $-1 $-1 $75 $36 #
plane-surface $-1 0 0 14.219223897386346 0 0 1 1 0 0 forward_v I I I I #
face $-1 $76 $77 $28 $-1 $78 reversed single #
loop $-1 $-1 $79 $37 #
plane-surface $-1 0 -32.769245096400496 10.088805583225675 0 0 1 1 0 0 forward_v I I I I #
face $-1 $80 $81 $29 $-1 $82 reversed single #
loop $-1 $-1 $83 $38 #
plane-surface $-1 0 32.769245096400496 10.088805583225675 0 0 1 1 0 0 forward_v I I I I #
face $-1 $84 $85 $30 $-1 $86 reversed single #
loop $-1 $-1 $87 $39 #
plane-surface $-1 61.572218647190311 15.728335879212551 214.51552643285819 0 1 0 0.66913061440640931 0 0.74314481823134659 forward_v I I I I #
face $-1 $88 $89 $31 $-1 $90 forward single #
loop $-1 $91 $92 $40 #
cone-surface $-1 69.806242351417552 17.60664778630003 11.93027321345412 -0.66913061440640931 0 -0.74314481823134659 0.3715724091156733 0 -0.33456530720320465 1 I I 0 1 0.5 forward I I I I #
face $-1 $93 $94 $32 $-1 $95 forward single #
loop $-1 $96 $97 $41 #
cone-surface $-1 69.806242351417552 20.424115646931249 11.93027321345412 -0.66913061440640931 0 -0.74314481823134659 0.3715724091156733 0 -0.33456530720320465 1 I I 0 1 0.5 forward I I I I #
face $-1 $98 $99 $33 $-1 $100 forward single #
loop $-1 $101 $102 $42 #
cone-surface $-1 69.806242351417552 23.241583507562467 11.93027321345412 -0.66913061440640931 0 -0.74314481823134659 0.3715724091156733 0 -0.33456530720320465 1 I I 0 1 0.5 forward I I I I #
face $-1 $103 $104 $34 $-1 $105 reversed single #
loop $-1 $-1 $106 $43 #
plane-surface $-1 -198.68828114501548 -17.760508406497429 73.105858181681171 0 1 0 -0.87461971476443456 0 0.48480960649040278 forward_v I I I I #
face $-1 $107 $108 $35 $-1 $109 forward single #
loop $-1 $110 $111 $44 #
cone-surface $-1 -67.279324158322822 -10.553174979536259 7.5774971111974425 0.87461971476443456 0 -0.48480960649040278 0.72721440973560414 0 1.311929572146652 1 I I 0 1 1.5 forward I I I I #
face $-1 $112 $113 $27 $-1 $114 reversed single #
loop $-1 $-1 $115 $45 #
plane-surface $-1 0 0 -14.219223897386346 0 0 1 1 0 0 forward_v I I I I #
coedge $-1 $116 $117 $118 $119 forward $46 $-1 #
face $-1 $120 $121 $28 $-1 $122 reversed single #
loop $-1 $-1 $123 $48 #
plane-surface $-1 0 -25.119895414649942 12.15401474030601 0 -1 0 0 0 -1 forward_v I I I I #
coedge $-1 $124 $125 $126 $127 reversed $49 $-1 #
face $-1 $128 $129 $29 $-1 $130 forward single #
loop $-1 $-1 $131 $51 #
plane-surface $-1 0 25.119895414649946 12.15401474030601 0 1 0 0 0 1 forward_v I I I I #
coedge $-1 $132 $133 $134 $135 reversed $52 $-1 #
face $-1 $136 $137 $30 $-1 $138 forward single #
loop $-1 $-1 $139 $54 #
plane-surface $-1 -35.144284258997601 20.424115646931249 107.10097025394117 0.66913061440640931 0 0.74314481823134659 0.74314481823134659 0 -0.66913061440640931 forward_v I I I I #
coedge $-1 $140 $141 $142 $143 reversed $55 $-1 #
face $-1 $-1 $144 $31 $-1 $145 forward single #
loop $-1 $146 $147 $57 #
cone-surface $-1 69.304394390612742 17.60664778630003 11.372914599780611 -0.66913061440640931 0 -0.74314481823134659 0.18578620455783665 0 -0.16728265360160233 1 I I -0.70710678118654746 0.70710678118654746 0.25 forward I I I I #
loop $-1 $-1 $148 $40 #
coedge $-1 $92 $92 $149 $150 reversed $58 $-1 #
face $-1 $-1 $151 $32 $-1 $152 forward single #
loop $-1 $153 $154 $60 #
cone-surface $-1 69.304394390612742 20.424115646931249 11.372914599780611 -0.66913061440640931 0 -0.74314481823134659 0.18578620455783665 0 -0.16728265360160233 1 I I -0.70710678118654746 0.70710678118654746 0.25 forward I I I I #
loop $-1 $-1 $155 $41 #
coedge $-1 $97 $97 $156 $157 reversed $61 $-1 #
face $-1 $-1 $158 $33 $-1 $159 forward single #
loop $-1 $160 $161 $63 #
cone-surface $-1 69.304394390612742 23.241583507562467 11.372914599780611 -0.66913061440640931 0 -0.74314481823134659 0.18578620455783665 0 -0.16728265360160233 1 I I -0.70710678118654746 0.70710678118654746 0.25 forward I I I I #
loop $-1 $-1 $162 $42 #
coedge $-1 $102 $102 $163 $164 reversed $64 $-1 #
face $-1 $165 $166 $34 $-1 $167 reversed single #
loop $-1 $-1 $168 $66 #
plane-surface $-1 -72.270271919919381 -10.553174979536259 3.0312140007800821 -0.87461971476443456 0 0.48480960649040278 0.48480960649040278 0 0.87461971476443456 forward_v I I I I #
coedge $-1 $169 $170 $171 $172 reversed $67 $-1 #
face $-1 $-1 $173 $35 $-1 $174 forward single #
loop $-1 $175 $176 $69 #
cone-surface $-1 -64.733219072353705 -10.553174979536259 6.1661680684438629 0.87461971476443456 0 -0.48480960649040278 0.36360720486780207 0 0.65596478607332598 1 I I -0.70710678118654757 0.70710678118654757 0.75 forward I I I I #
loop $-1 $-1 $177 $44 #
coedge $-1 $111 $111 $178 $179 reversed $70 $-1 #
face $-1 $180 $181 $27 $-1 $182 reversed single #
loop $-1 $-1 $183 $72 #
plane-surface $-1 0 -40.418594778151046 0 0 1 0 0 0 1 forward_v I I I I #
coedge $-1 $184 $185 $186 $187 forward $73 $-1 #
coedge $-1 $188 $75 $189 $190 forward $46 $-1 #
coedge $-1 $75 $188 $191 $192 forward $46 $-1 #
coedge $-1 $193 $194 $75 $119 reversed $195 $-1 #
edge $-1 $196 -40.418594778151046 $197 40.418594778151046 $118 $198 forward 7 unknown #
face $-1 $199 $200 $28 $-1 $201 reversed single #
loop $-1 $-1 $202 $76 #
plane-surface $-1 -72.270271919919423 0 0 1 0 0 0 0 -1 forward_v I I I I #
coedge $-1 $203 $204 $205 $206 reversed $77 $-1 #
coedge $-1 $207 $79 $208 $209 reversed $49 $-1 #
coedge $-1 $79 $207 $203 $210 forward $49 $-1 #
coedge $-1 $205 $211 $79 $127 forward $212 $-1 #
edge $-1 $213 -24.033972229950798 $214 -8.7352728664496944 $126 $215 forward 7 unknown #
face $-1 $216 $217 $29 $-1 $218 reversed single #
loop $-1 $-1 $219 $80 #
plane-surface $-1 0 0 14.219223897386346 0 0 1 1 0 0 forward_v I I I I #
coedge $-1 $220 $221 $219 $222 reversed $81 $-1 #
coedge $-1 $223 $83 $224 $225 forward $52 $-1 #
coedge $-1 $83 $223 $226 $227 reversed $52 $-1 #
coedge $-1 $228 $229 $83 $135 forward $217 $-1 #
edge $-1 $230 8.7352728664496979 $231 24.033972229950798 $134 $232 forward 7 unknown #
face $-1 $233 $234 $30 $-1 $235 reversed single #
loop $-1 $-1 $236 $84 #
plane-surface $-1 0 0 14.219223897386346 0 0 1 1 0 0 forward_v I I I I #
coedge $-1 $237 $238 $239 $240 reversed $85 $-1 #
coedge $-1 $141 $87 $241 $242 reversed $55 $-1 #
coedge $-1 $87 $140 $237 $243 reversed $55 $-1 #
coedge $-1 $239 $244 $87 $143 forward $234 $-1 #
edge $-1 $245 93.038539319042755 $246 96.873295868675839 $142 $247 forward 7 unknown #
loop $-1 $-1 $149 $88 #
plane-surface $-1 -35.144284258997601 20.424115646931249 107.10097025394117 0.66913061440640931 0 0.74314481823134659 0.74314481823134659 0 -0.66913061440640931 forward_v I I I I #
loop $-1 $-1 $248 $57 #
coedge $-1 $147 $147 $148 $249 reversed $89 $-1 #
coedge $-1 $148 $148 $147 $249 forward $91 $-1 #
coedge $-1 $149 $149 $92 $150 forward $144 $-1 #
edge $-1 $250 0 $250 6.2831853071796004 $149 $251 forward 7 unknown #
loop $-1 $-1 $156 $93 #
plane-surface $-1 -35.144284258997601 20.424115646931249 107.10097025394117 0.66913061440640931 0 0.74314481823134659 0.74314481823134659 0 -0.66913061440640931 forward_v I I I I #
loop $-1 $-1 $252 $60 #
coedge $-1 $154 $154 $155 $253 reversed $94 $-1 #
coedge $-1 $155 $155 $154 $253 forward $96 $-1 #
coedge $-1 $156 $156 $97 $157 forward $151 $-1 #
edge $-1 $254 0 $254 6.2831853071796004 $156 $255 forward 7 unknown #
loop $-1 $-1 $163 $98 #
plane-surface $-1 -35.144284258997601 20.424115646931249 107.10097025394117 0.66913061440640931 0 0.74314481823134659 0.74314481823134659 0 -0.66913061440640931 forward_v I I I I #
loop $-1 $-1 $256 $63 #
coedge $-1 $161 $161 $162 $257 reversed $99 $-1 #
coedge $-1 $162 $162 $161 $257 forward $101 $-1 #
coedge $-1 $163 $163 $102 $164 forward $158 $-1 #
edge $-1 $258 0 $258 6.2831853071796004 $163 $259 forward 7 unknown #
face $-1 $260 $261 $34 $-1 $262 reversed single #
loop $-1 $-1 $263 $103 #
plane-surface $-1 -198.68828114501548 -3.345841552575088 73.105858181681171 0 -1 0 0.87461971476443456 0 -0.48480960649040278 forward_v I I I I #
coedge $-1 $264 $265 $266 $267 reversed $104 $-1 #
coedge $-1 $170 $106 $268 $269 reversed $67 $-1 #
coedge $-1 $106 $169 $264 $270 reversed $67 $-1 #
coedge $-1 $266 $271 $106 $172 forward $272 $-1 #
edge $-1 $273 27.073868652588317 $274 33.275483575990009 $171 $275 forward 7 unknown #
loop $-1 $-1 $178 $107 #
plane-surface $-1 -72.270271919919381 -10.553174979536259 3.0312140007800821 -0.87461971476443456 0 0.48480960649040278 0.48480960649040278 0 0.87461971476443456 forward_v I I I I #
loop $-1 $-1 $276 $69 #
coedge $-1 $176 $176 $177 $277 reversed $108 $-1 #
coedge $-1 $177 $177 $176 $277 forward $110 $-1 #
coedge $-1 $178 $178 $111 $179 forward $173 $-1 #
edge $-1 $278 0 $278 6.2831853071796004 $178 $279 forward 7 unknown #
face $-1 $280 $281 $27 $-1 $282 reversed single #
loop $-1 $-1 $283 $112 #
plane-surface $-1 -72.270271919919423 0 0 1 0 0 0 0 -1 forward_v I I I I #
coedge $-1 $284 $191 $285 $286 forward $113 $-1 #
coedge $-1 $287 $115 $284 $288 forward $73 $-1 #
coedge $-1 $115 $287 $289 $290 forward $73 $-1 #
coedge $-1 $194 $193 $115 $187 reversed $195 $-1 #
edge $-1 $291 -40.418594778151046 $292 40.418594778151046 $186 $293 forward 7 unknown #
coedge $-1 $117 $116 $294 $295 forward $46 $-1 #
coedge $-1 $296 $297 $116 $190 reversed $281 $-1 #
edge $-1 $197 -72.270271919919423 $298 72.270271919919423 $189 $299 forward 7 unknown #
coedge $-1 $183 $300 $117 $192 reversed $113 $-1 #
edge $-1 $301 -72.270271919919423 $196 72.270271919919423 $191 $302 forward 7 unknown #
coedge $-1 $186 $118 $300 $303 forward $195 $-1 #
coedge $-1 $118 $186 $296 $304 reversed $195 $-1 #
loop $-1 $-1 $193 $280 #
vertex $-1 $119 $305 #
vertex $-1 $119 $306 #
straight-curve $-1 72.270271919919423 0 14.219223897386346 0 1 0 I I #
face $-1 $307 $308 $28 $-1 $309 forward single #
loop $-1 $-1 $208 $120 #
plane-surface $-1 0 -40.418594778151046 0 0 1 0 0 0 1 forward_v I I I I #
coedge $-1 $310 $311 $312 $313 forward $121 $-1 #
coedge $-1 $312 $123 $125 $210 reversed $77 $-1 #
coedge $-1 $123 $312 $314 $315 reversed $77 $-1 #
coedge $-1 $316 $126 $123 $206 forward $212 $-1 #
edge $-1 $214 4.0117982130726695 $317 8.1422165272333409 $205 $318 forward 7 unknown #
coedge $-1 $125 $124 $310 $319 reversed $49 $-1 #
coedge $-1 $320 $321 $124 $209 forward $200 $-1 #
edge $-1 $322 -72.270271919919423 $213 72.270271919919423 $208 $323 forward 7 unknown #
edge $-1 $324 -72.270271919919423 $214 72.270271919919423 $203 $325 forward 7 unknown #
coedge $-1 $126 $316 $320 $326 forward $212 $-1 #
loop $-1 $-1 $205 $307 #
vertex $-1 $209 $327 #
vertex $-1 $127 $328 #
straight-curve $-1 72.270271919919423 -16.384622548200248 10.088805583225675 0 1 0 I I #
face $-1 $329 $330 $29 $-1 $331 reversed single #
loop $-1 $-1 $229 $128 #
plane-surface $-1 72.270271919919423 0 0 -1 0 0 0 0 1 forward_v I I I I #
coedge $-1 $332 $333 $131 $222 forward $129 $-1 #
coedge $-1 $224 $131 $334 $335 reversed $81 $-1 #
coedge $-1 $131 $224 $229 $336 reversed $81 $-1 #
edge $-1 $337 -72.270271919919423 $338 72.270271919919423 $219 $339 forward 7 unknown #
coedge $-1 $133 $132 $340 $341 reversed $52 $-1 #
coedge $-1 $221 $220 $132 $225 reversed $81 $-1 #
edge $-1 $230 -72.270271919919423 $342 72.270271919919423 $224 $343 forward 7 unknown #
coedge $-1 $344 $345 $133 $227 forward $346 $-1 #
edge $-1 $231 -72.270271919919423 $347 72.270271919919423 $226 $348 forward 7 unknown #
coedge $-1 $349 $134 $345 $350 reversed $217 $-1 #
coedge $-1 $134 $349 $221 $336 forward $217 $-1 #
vertex $-1 $135 $351 #
vertex $-1 $227 $352 #
straight-curve $-1 72.270271919919423 16.384622548200248 10.088805583225675 0 1 0 I I #
face $-1 $-1 $353 $30 $-1 $354 forward single #
loop $-1 $-1 $142 $136 #
plane-surface $-1 72.270271919919423 0 0 -1 0 0 0 0 1 forward_v I I I I #
coedge $-1 $241 $355 $356 $357 forward $137 $-1 #
coedge $-1 $356 $139 $141 $243 forward $85 $-1 #
coedge $-1 $139 $356 $358 $359 reversed $85 $-1 #
coedge $-1 $360 $142 $139 $240 forward $234 $-1 #
edge $-1 $246 5.5162780557469269 $361 14.907837591184322 $239 $362 forward 7 unknown #
coedge $-1 $363 $236 $140 $242 forward $137 $-1 #
edge $-1 $364 37.225234073726924 $245 41.484162596324268 $241 $365 forward 7 unknown #
edge $-1 $246 -144.54054383983885 $364 -138.80959017089796 $141 $366 forward 7 unknown #
coedge $-1 $142 $360 $363 $367 reversed $234 $-1 #
vertex $-1 $367 $368 #
vertex $-1 $143 $369 #
straight-curve $-1 72.270271919919423 15.728335879212551 107.2577632164291 0 0 -1 I I #
coedge $-1 $248 $248 $-1 $370 reversed $146 $-1 #
edge $-1 $371 0 $371 6.2831853071796004 $147 $372 forward 7 unknown #
vertex $-1 $150 $373 #
ellipse-curve $-1 70.140807658620759 17.60664778630003 12.301845622569793 0.66913061440640931 0 0.74314481823134659 0.3715724091156733 0 -0.33456530720320465 1 I I #
coedge $-1 $252 $252 $-1 $374 reversed $153 $-1 #
edge $-1 $375 0 $375 6.2831853071796004 $154 $376 forward 7 unknown #
vertex $-1 $157 $377 #
ellipse-curve $-1 70.140807658620759 20.424115646931249 12.301845622569793 0.66913061440640931 0 0.74314481823134659 0.3715724091156733 0 -0.33456530720320465 1 I I #
coedge $-1 $256 $256 $-1 $378 reversed $160 $-1 #
edge $-1 $379 0 $379 6.2831853071796004 $161 $380 forward 7 unknown #
vertex $-1 $164 $381 #
ellipse-curve $-1 70.140807658620759 23.241583507562467 12.301845622569793 0.66913061440640931 0 0.74314481823134659 0.3715724091156733 0 -0.33456530720320465 1 I I #
face $-1 $-1 $272 $34 $-1 $382 forward single #
loop $-1 $-1 $383 $165 #
plane-surface $-1 -72.270271919919423 0 0 1 0 0 0 0 -1 forward_v I I I I #
coedge $-1 $384 $385 $386 $387 reversed $166 $-1 #
coedge $-1 $388 $168 $170 $270 forward $104 $-1 #
coedge $-1 $168 $388 $384 $389 forward $104 $-1 #
coedge $-1 $386 $171 $168 $267 forward $272 $-1 #
edge $-1 $274 -12.4839209167293 $390 1.9307459371930413 $266 $391 forward 7 unknown #
coedge $-1 $392 $393 $169 $269 forward $261 $-1 #
edge $-1 $394 -33.521715090060582 $273 -22.333705193454239 $268 $395 forward 7 unknown #
edge $-1 $274 -12.791856515170805 $394 8.7863464449589411e-014 $170 $396 forward 7 unknown #
coedge $-1 $171 $386 $392 $397 forward $272 $-1 #
loop $-1 $-1 $386 $260 #
vertex $-1 $269 $398 #
vertex $-1 $172 $399 #
straight-curve $-1 -99.34414057250774 -17.760508406497429 14.219223897386346 1 0 0 I I #
coedge $-1 $276 $276 $-1 $400 reversed $175 $-1 #
edge $-1 $401 0 $401 6.2831853071796004 $176 $402 forward 7 unknown #
vertex $-1 $179 $403 #
ellipse-curve $-1 -69.16946445821857 -10.553174979536259 8.6252189490831963 -0.87461971476443456 0 0.48480960649040278 0.72721440973560414 0 1.311929572146652 1 I I #
face $-1 $-1 $195 $27 $-1 $404 reversed single #
loop $-1 $-1 $296 $180 #
plane-surface $-1 0 40.418594778151046 0 0 -1 0 0 0 -1 forward_v I I I I #
coedge $-1 $405 $294 $297 $406 forward $181 $-1 #
coedge $-1 $300 $183 $184 $288 reversed $113 $-1 #
coedge $-1 $294 $405 $183 $286 reversed $181 $-1 #
edge $-1 $301 -14.219223897386346 $407 14.219223897386346 $285 $408 forward 7 unknown #
coedge $-1 $185 $184 $405 $409 forward $73 $-1 #
edge $-1 $292 -72.270271919919423 $407 72.270271919919423 $284 $410 forward 7 unknown #
coedge $-1 $297 $296 $185 $290 reversed $281 $-1 #
edge $-1 $411 -72.270271919919423 $291 72.270271919919423 $289 $412 forward 7 unknown #
vertex $-1 $187 $413 #
vertex $-1 $303 $414 #
straight-curve $-1 72.270271919919423 0 -14.219223897386346 0 -1 0 I I #
coedge $-1 $283 $285 $188 $295 reversed $181 $-1 #
edge $-1 $298 -40.418594778151046 $301 40.418594778151046 $294 $415 forward 7 unknown #
coedge $-1 $289 $189 $194 $304 forward $281 $-1 #
coedge $-1 $189 $289 $283 $406 reversed $281 $-1 #
vertex $-1 $190 $416 #
straight-curve $-1 0 40.418594778151046 14.219223897386346 -1 0 0 I I #
coedge $-1 $191 $284 $193 $303 reversed $113 $-1 #
vertex $-1 $295 $417 #
straight-curve $-1 0 -40.418594778151046 14.219223897386346 1 0 0 I I #
edge $-1 $196 -14.219223897386346 $292 14.219223897386346 $193 $418 forward 7 unknown #
edge $-1 $197 -14.219223897386346 $291 14.219223897386346 $194 $419 forward 7 unknown #
point $-1 72.270271919919423 -40.418594778151046 14.219223897386346 #
point $-1 72.270271919919423 40.418594778151046 14.219223897386346 #
face $-1 $-1 $212 $28 $-1 $420 reversed single #
loop $-1 $-1 $314 $199 #
plane-surface $-1 0 0 14.219223897386346 0 0 1 1 0 0 forward_v I I I I #
coedge $-1 $421 $202 $207 $319 forward $121 $-1 #
coedge $-1 $202 $421 $422 $423 reversed $121 $-1 #
coedge $-1 $204 $203 $202 $313 reversed $77 $-1 #
edge $-1 $424 -8.1422165272333409 $324 -4.0117982130726695 $202 $425 forward 7 unknown #
coedge $-1 $422 $426 $204 $315 forward $308 $-1 #
edge $-1 $317 -72.270271919919423 $424 72.270271919919423 $314 $427 forward 7 unknown #
coedge $-1 $211 $205 $426 $428 reversed $212 $-1 #
vertex $-1 $206 $429 #
straight-curve $-1 72.270271919919423 -25.119895414649942 6.0770073701530052 0 0 1 I I #
edge $-1 $324 8.7352728664496944 $322 24.033972229950798 $310 $430 forward 7 unknown #
coedge $-1 $431 $208 $211 $326 reversed $200 $-1 #
coedge $-1 $208 $431 $421 $432 forward $200 $-1 #
vertex $-1 $209 $433 #
straight-curve $-1 0 -40.418594778151046 10.088805583225675 1 0 0 I I #
vertex $-1 $319 $434 #
straight-curve $-1 0 -25.119895414649942 10.088805583225675 1 0 0 I I #
edge $-1 $435 -14.219223897386346 $213 -10.088805583225675 $211 $436 forward 7 unknown #
point $-1 72.270271919919423 -40.418594778151046 10.088805583225675 #
point $-1 72.270271919919423 -25.119895414649942 10.088805583225675 #
face $-1 $-1 $346 $29 $-1 $437 reversed single #
loop $-1 $-1 $334 $216 #
plane-surface $-1 -72.270271919919423 0 0 1 0 0 0 0 -1 forward_v I I I I #
coedge $-1 $438 $219 $349 $439 forward $129 $-1 #
coedge $-1 $219 $438 $440 $441 forward $129 $-1 #
coedge $-1 $440 $340 $220 $335 forward $330 $-1 #
edge $-1 $342 4.0117982130726695 $337 8.1422165272333409 $334 $442 forward 7 unknown #
edge $-1 $338 -8.1422165272333409 $230 -4.0117982130726695 $229 $443 forward 7 unknown #
vertex $-1 $335 $444 #
vertex $-1 $439 $445 #
straight-curve $-1 0 25.119895414649946 14.219223897386346 1 0 0 I I #
coedge $-1 $334 $446 $223 $341 forward $330 $-1 #
edge $-1 $347 -24.033972229950798 $342 -8.7352728664496979 $340 $447 forward 7 unknown #
vertex $-1 $341 $448 #
straight-curve $-1 0 25.119895414649946 10.088805583225675 -1 0 0 I I #
coedge $-1 $449 $226 $446 $450 reversed $346 $-1 #
coedge $-1 $226 $449 $228 $350 forward $346 $-1 #
loop $-1 $-1 $226 $329 #
vertex $-1 $227 $451 #
straight-curve $-1 0 40.418594778151046 10.088805583225675 -1 0 0 I I #
coedge $-1 $229 $228 $332 $439 reversed $217 $-1 #
edge $-1 $452 -14.219223897386346 $231 -10.088805583225675 $228 $453 forward 7 unknown #
point $-1 72.270271919919423 25.119895414649946 10.088805583225675 #
point $-1 72.270271919919423 40.418594778151046 10.088805583225675 #
loop $-1 $-1 $358 $233 #
plane-surface $-1 0 25.119895414649946 12.15401474030601 0 1 0 0 0 1 forward_v I I I I #
coedge $-1 $236 $363 $454 $455 forward $137 $-1 #
coedge $-1 $238 $237 $236 $357 reversed $85 $-1 #
edge $-1 $456 -14.907837591184322 $364 -5.5162780557469269 $236 $457 forward 7 unknown #
coedge $-1 $454 $458 $238 $359 forward $353 $-1 #
edge $-1 $361 -99.715940131648708 $456 -93.984986462707838 $358 $459 forward 7 unknown #
coedge $-1 $244 $239 $458 $460 forward $234 $-1 #
vertex $-1 $460 $461 #
straight-curve $-1 72.270271919919423 10.212057823465624 10.384467347753279 0 1 0 I I #
coedge $-1 $355 $241 $244 $367 forward $137 $-1 #
vertex $-1 $242 $462 #
straight-curve $-1 30.786109323595156 15.728335879212551 14.219223897386343 1 0 0 I I #
straight-curve $-1 -35.144284258997601 15.728335879212551 107.10097025394117 -0.74314481823134659 0 0.66913061440640931 I I #
edge $-1 $245 15.728335879212551 $463 25.119895414649946 $244 $464 forward 7 unknown #
point $-1 72.270271919919423 15.728335879212551 14.219223897386346 #
point $-1 72.270271919919423 15.728335879212551 10.384467347753258 #
edge $-1 $465 1 $465 0 $248 $-1 forward 7 unknown #
vertex $-1 $249 $466 #
ellipse-curve $-1 69.471677044214346 17.60664778630003 11.558700804338446 0.66913061440640931 0 0.74314481823134659 0.3715724091156733 0 -0.33456530720320465 1 I I #
point $-1 70.51238006773643 17.60664778630003 11.967280315366589 #
edge $-1 $467 1 $467 0 $252 $-1 forward 7 unknown #
vertex $-1 $253 $468 #
ellipse-curve $-1 69.471677044214346 20.424115646931249 11.558700804338446 0.66913061440640931 0 0.74314481823134659 0.3715724091156733 0 -0.33456530720320465 1 I I #
point $-1 70.51238006773643 20.424115646931249 11.967280315366589 #
edge $-1 $469 1 $469 0 $256 $-1 forward 7 unknown #
vertex $-1 $257 $470 #
ellipse-curve $-1 69.471677044214346 23.241583507562467 11.558700804338446 0.66913061440640931 0 0.74314481823134659 0.3715724091156733 0 -0.33456530720320465 1 I I #
point $-1 70.51238006773643 23.241583507562467 11.967280315366589 #
plane-surface $-1 0 0 14.219223897386346 0 0 1 1 0 0 forward_v I I I I #
coedge $-1 $393 $392 $385 $471 forward $261 $-1 #
coedge $-1 $385 $263 $265 $389 reversed $166 $-1 #
coedge $-1 $263 $384 $383 $471 reversed $166 $-1 #
coedge $-1 $271 $266 $263 $387 forward $272 $-1 #
edge $-1 $390 -33.275483575990009 $472 -27.073868652588317 $386 $473 forward 7 unknown #
coedge $-1 $265 $264 $393 $474 reversed $104 $-1 #
edge $-1 $475 -8.7863464449589411e-014 $390 12.791856515170805 $384 $476 forward 7 unknown #
vertex $-1 $267 $477 #
straight-curve $-1 -66.068656996517731 -5.2765874897681293 14.219223897386346 0 1 0 I I #
coedge $-1 $383 $268 $271 $397 reversed $261 $-1 #
coedge $-1 $268 $383 $388 $474 forward $261 $-1 #
vertex $-1 $269 $478 #
straight-curve $-1 -72.270271919919423 -17.760508406497429 36.552929090840586 0 0 1 I I #
straight-curve $-1 -72.270271919919381 -17.760508406497429 3.0312140007800821 -0.48480960649040278 0 -0.87461971476443456 I I #
edge $-1 $472 3.345841552575088 $273 17.760508406497429 $392 $479 forward 7 unknown #
point $-1 -72.270271919919423 -17.760508406497429 14.219223897386346 #
point $-1 -66.068656996517731 -17.760508406497429 14.219223897386346 #
edge $-1 $480 1 $480 0 $276 $-1 forward 7 unknown #
vertex $-1 $277 $481 #
ellipse-curve $-1 -65.389183858427032 -10.553174979536259 6.5297752733116647 -0.87461971476443456 0 0.48480960649040278 0.72721440973560414 0 1.311929572146652 1 I I #
point $-1 -68.442250048483004 -10.553174979536259 9.9371485212298722 #
plane-surface $-1 72.270271919919423 0 0 -1 0 0 0 0 1 forward_v I I I I #
coedge $-1 $285 $283 $287 $409 reversed $181 $-1 #
edge $-1 $298 -14.219223897386346 $411 14.219223897386346 $297 $482 forward 7 unknown #
vertex $-1 $409 $483 #
straight-curve $-1 -72.270271919919423 -40.418594778151046 0 0 0 -1 I I #
edge $-1 $407 -40.418594778151046 $411 40.418594778151046 $405 $484 forward 7 unknown #
straight-curve $-1 0 -40.418594778151046 -14.219223897386346 -1 0 0 I I #
vertex $-1 $290 $485 #
straight-curve $-1 0 40.418594778151046 -14.219223897386346 1 0 0 I I #
point $-1 72.270271919919423 40.418594778151046 -14.219223897386346 #
point $-1 72.270271919919423 -40.418594778151046 -14.219223897386346 #
straight-curve $-1 -72.270271919919423 0 14.219223897386346 0 -1 0 I I #
point $-1 -72.270271919919423 40.418594778151046 14.219223897386346 #
point $-1 -72.270271919919423 -40.418594778151046 14.219223897386346 #
straight-curve $-1 72.270271919919423 -40.418594778151046 0 0 0 -1 I I #
straight-curve $-1 72.270271919919423 40.418594778151046 0 0 0 -1 I I #
plane-surface $-1 72.270271919919423 0 0 -1 0 0 0 0 1 forward_v I I I I #
coedge $-1 $311 $310 $321 $432 reversed $121 $-1 #
coedge $-1 $486 $314 $311 $423 forward $308 $-1 #
edge $-1 $424 25.119895414649942 $487 40.418594778151046 $311 $488 forward 7 unknown #
vertex $-1 $423 $489 #
straight-curve $-1 -72.270271919919423 -25.119895414649942 6.0770073701530052 0 0 -1 I I #
coedge $-1 $314 $486 $316 $428 forward $308 $-1 #
straight-curve $-1 0 -25.119895414649942 14.219223897386346 -1 0 0 I I #
edge $-1 $435 -40.418594778151046 $317 -25.119895414649942 $316 $490 forward 7 unknown #
point $-1 72.270271919919423 -25.119895414649942 14.219223897386346 #
straight-curve $-1 -72.270271919919423 -16.384622548200248 10.088805583225675 0 -1 0 I I #
coedge $-1 $321 $320 $486 $491 reversed $200 $-1 #
edge $-1 $487 -14.219223897386346 $322 -10.088805583225675 $421 $492 forward 7 unknown #
point $-1 -72.270271919919423 -40.418594778151046 10.088805583225675 #
point $-1 -72.270271919919423 -25.119895414649942 10.088805583225675 #
vertex $-1 $428 $493 #
straight-curve $-1 72.270271919919423 -40.418594778151046 0 0 0 -1 I I #
plane-surface $-1 0 40.418594778151046 0 0 -1 0 0 0 -1 forward_v I I I I #
coedge $-1 $333 $332 $449 $494 forward $129 $-1 #
edge $-1 $338 25.119895414649946 $452 40.418594778151046 $349 $495 forward 7 unknown #
coedge $-1 $446 $334 $333 $441 reversed $330 $-1 #
edge $-1 $496 -40.418594778151046 $337 -25.119895414649946 $440 $497 forward 7 unknown #
straight-curve $-1 -72.270271919919423 25.119895414649946 6.0770073701530052 0 0 1 I I #
straight-curve $-1 72.270271919919423 25.119895414649946 6.0770073701530052 0 0 -1 I I #
point $-1 -72.270271919919423 25.119895414649946 14.219223897386346 #
point $-1 72.270271919919423 25.119895414649946 14.219223897386346 #
coedge $-1 $340 $440 $344 $450 forward $330 $-1 #
straight-curve $-1 -72.270271919919423 16.384622548200248 10.088805583225675 0 -1 0 I I #
point $-1 -72.270271919919423 25.119895414649946 10.088805583225675 #
coedge $-1 $345 $344 $438 $494 reversed $346 $-1 #
edge $-1 $496 -14.219223897386346 $347 -10.088805583225675 $344 $498 forward 7 unknown #
point $-1 -72.270271919919423 40.418594778151046 10.088805583225675 #
vertex $-1 $439 $499 #
straight-curve $-1 72.270271919919423 40.418594778151046 0 0 0 -1 I I #
coedge $-1 $458 $358 $355 $455 reversed $353 $-1 #
edge $-1 $463 -72.270271919919423 $456 -68.011343397322094 $355 $500 forward 7 unknown #
vertex $-1 $359 $501 #
straight-curve $-1 68.011343397322094 10.212057823465624 14.219223897386335 0 -1 0 I I #
coedge $-1 $358 $454 $360 $460 reversed $353 $-1 #
straight-curve $-1 -1.8331122839825031 25.119895414649946 77.107455634156096 -0.74314481823134659 0 0.66913061440640931 I I #
edge $-1 $361 4.3074599776002653 $463 8.1422165272333409 $360 $502 forward 7 unknown #
point $-1 72.270271919919423 25.119895414649946 10.384467347753271 #
point $-1 68.011343397322079 15.728335879212551 14.219223897386343 #
vertex $-1 $455 $503 #
straight-curve $-1 72.270271919919423 0 14.219223897386346 0 1 0 I I #
vertex $-1 $370 $504 #
point $-1 69.843249453330017 17.60664778630003 11.224135497135242 #
vertex $-1 $374 $505 #
point $-1 69.843249453330017 20.424115646931249 11.224135497135242 #
vertex $-1 $378 $506 #
point $-1 69.843249453330017 23.241583507562467 11.224135497135242 #
edge $-1 $472 22.333705193454239 $475 33.521715090060582 $383 $507 forward 7 unknown #
vertex $-1 $397 $508 #
straight-curve $-1 -99.34414057250774 -3.345841552575088 14.219223897386346 -1 0 0 I I #
edge $-1 $475 -1.9307459371930413 $394 12.4839209167293 $393 $509 forward 7 unknown #
vertex $-1 $474 $510 #
straight-curve $-1 -72.270271919919381 -3.345841552575088 3.0312140007800821 0.48480960649040278 0 0.87461971476443456 I I #
point $-1 -66.068656996517731 -3.345841552575088 14.219223897386346 #
point $-1 -72.270271919919423 -17.760508406497429 3.0312140007800052 #
straight-curve $-1 -72.270271919919423 0 14.219223897386346 0 -1 0 I I #
vertex $-1 $400 $511 #
point $-1 -64.661969448691423 -10.553174979536259 7.8417048454583167 #
straight-curve $-1 -72.270271919919423 40.418594778151046 0 0 0 -1 I I #
point $-1 -72.270271919919423 -40.418594778151046 -14.219223897386346 #
straight-curve $-1 -72.270271919919423 0 -14.219223897386346 0 1 0 I I #
point $-1 -72.270271919919423 40.418594778151046 -14.219223897386346 #
coedge $-1 $426 $422 $431 $491 forward $308 $-1 #
vertex $-1 $423 $512 #
straight-curve $-1 -72.270271919919423 0 14.219223897386346 0 -1 0 I I #
point $-1 -72.270271919919423 -25.119895414649942 14.219223897386346 #
straight-curve $-1 72.270271919919423 0 14.219223897386346 0 1 0 I I #
edge $-1 $487 -72.270271919919423 $435 72.270271919919423 $431 $513 forward 7 unknown #
straight-curve $-1 -72.270271919919423 -40.418594778151046 0 0 0 -1 I I #
point $-1 72.270271919919423 -40.418594778151046 14.219223897386346 #
edge $-1 $452 -72.270271919919423 $496 72.270271919919423 $449 $514 forward 7 unknown #
straight-curve $-1 72.270271919919423 0 14.219223897386346 0 1 0 I I #
vertex $-1 $494 $515 #
straight-curve $-1 -72.270271919919423 0 14.219223897386346 0 -1 0 I I #
straight-curve $-1 -72.270271919919423 40.418594778151046 0 0 0 -1 I I #
point $-1 72.270271919919423 40.418594778151046 14.219223897386346 #
straight-curve $-1 0 25.119895414649946 14.219223897386346 -1 0 0 I I #
point $-1 68.011343397322094 25.119895414649946 14.219223897386346 #
straight-curve $-1 72.270271919919423 25.119895414649946 6.0770073701530052 0 0 1 I I #
point $-1 72.270271919919423 25.119895414649946 14.219223897386346 #
point $-1 69.137111737011139 17.60664778630003 11.187128395222775 #
point $-1 69.137111737011139 20.424115646931249 11.187128395222775 #
point $-1 69.137111737011139 23.241583507562467 11.187128395222775 #
straight-curve $-1 -72.270271919919423 -3.345841552575088 36.552929090840586 0 0 -1 I I #
point $-1 -72.270271919919423 -3.345841552575088 14.219223897386346 #
straight-curve $-1 -72.270271919919423 -5.2765874897681293 3.031214000779995 0 -1 0 I I #
point $-1 -72.270271919919423 -3.345841552575088 3.0312140007800052 #
point $-1 -64.077254286280379 -10.553174979536259 5.802560863576061 #
point $-1 -72.270271919919423 -40.418594778151046 14.219223897386346 #
straight-curve $-1 0 -40.418594778151046 14.219223897386346 1 0 0 I I #
straight-curve $-1 0 40.418594778151046 14.219223897386346 -1 0 0 I I #
point $-1 -72.270271919919423 40.418594778151046 14.219223897386346 #
End-of-ACIS-data 