500 0 7 0           
7 Unknown 11 ACIS 5.0 NT 24 Fri Mar 26 15:07:56 1999 
-1 9.9999999999999995e-007 1e-010 
body $-1 $7 $-1 $8 #
body $-1 $9 $-1 $10 #
body $-1 $11 $-1 $12 #
body $-1 $13 $-1 $14 #
body $-1 $15 $-1 $16 #
body $-1 $17 $-1 $18 #
body $-1 $19 $-1 $20 #
lump $-1 $-1 $21 $0 #
transform $-1 1 0 0 0 1 0 0 0 1 46.689657277138586 27.530896180571236 6.3846103392603162 1 rotate no_reflect no_shear #
lump $-1 $-1 $22 $1 #
transform $-1 1 0 0 0 1 0 0 0 1 46.689657277138586 27.530896180571236 6.3846103392603162 1 rotate no_reflect no_shear #
lump $-1 $-1 $23 $2 #
transform $-1 1 0 0 0 1 0 0 0 1 46.689657277138586 27.530896180571236 6.3846103392603162 1 rotate no_reflect no_shear #
lump $-1 $-1 $24 $3 #
transform $-1 1 0 0 0 1 0 0 0 1 46.689657277138586 27.530896180571236 6.3846103392603162 1 rotate no_reflect no_shear #
lump $-1 $-1 $25 $4 #
transform $-1 1 0 0 0 1 0 0 0 1 46.689657277138586 27.530896180571236 6.3846103392603162 1 rotate no_reflect no_shear #
lump $-1 $-1 $26 $5 #
transform $-1 1 0 0 0 1 0 0 0 1 46.689657277138586 27.530896180571236 6.3846103392603162 1 rotate no_reflect no_shear #
lump $-1 $-1 $27 $6 #
transform $-1 1 0 0 0 1 0 0 0 1 46.689657277138586 27.530896180571236 6.3846103392603162 1 rotate no_reflect no_shear #
shell $-1 $-1 $-1 $28 $-1 $7 #
shell $-1 $-1 $-1 $29 $-1 $9 #
shell $-1 $-1 $-1 $30 $-1 $11 #
shell $-1 $-1 $-1 $31 $-1 $13 #
shell $-1 $-1 $-1 $32 $-1 $15 #
shell $-1 $-1 $-1 $33 $-1 $17 #
shell $-1 $-1 $-1 $34 $-1 $19 #
face $-1 $35 $36 $21 $-1 $37 forward single #
face $-1 $38 $39 $22 $-1 $40 reversed single #
face $-1 $41 $42 $23 $-1 $43 reversed single #
face $-1 $44 $45 $24 $-1 $46 forward single #
face $-1 $47 $48 $25 $-1 $49 reversed single #
face $-1 $50 $51 $26 $-1 $52 forward single #
face $-1 $53 $54 $27 $-1 $55 forward single #
face $-1 $56 $57 $21 $-1 $58 reversed single #
loop $-1 $-1 $59 $28 #
plane-surface $-1 0 0 6.3846103392603162 0 0 1 1 0 0 forward_v I I I I #
face $-1 $60 $61 $22 $-1 $62 reversed single #
loop $-1 $-1 $63 $29 #
plane-surface $-1 0 -23.936520530425206 3.3846103392603162 0 0 1 1 0 0 forward_v I I I I #
face $-1 $64 $65 $23 $-1 $66 reversed single #
loop $-1 $-1 $67 $30 #
plane-surface $-1 -111.55638052203207 -1.9539240041532402 69.646156739375897 0 1 0 -0.69465837861970381 0 0.71933979245794832 forward_v I I I I #
face $-1 $68 $69 $24 $-1 $70 forward single #
loop $-1 $71 $72 $31 #
cone-surface $-1 -43.793691312769234 1.5203523727954327 3.5271380516840729 0.69465837861970381 0 -0.71933979245794832 0.71933979245794832 0 0.69465837861970381 1 I I 0 1 1 forward I I I I #
face $-1 $73 $74 $25 $-1 $75 reversed single #
loop $-1 $-1 $76 $32 #
plane-surface $-1 55.901579795954795 -11.750148560307331 133.42100884167726 0 -1 0 -0.75470958851134928 0 -0.65605901945558964 forward_v I I I I #
face $-1 $77 $78 $26 $-1 $79 forward single #
loop $-1 $80 $81 $33 #
cone-surface $-1 43.513872954740926 -17.887288788858648 3.0497174899440749 -0.75470958851134928 0 -0.65605901945558964 0.65605901945558964 0 -0.75470958851134928 1 I I 0 1 1 forward I I I I #
face $-1 $82 $83 $27 $-1 $84 forward single #
loop $-1 $85 $86 $34 #
cone-surface $-1 43.513872954740926 -14.205004651727858 3.0497174899440749 -0.75470958851134928 0 -0.65605901945558964 0.65605901945558964 0 -0.75470958851134928 1 I I 0 1 1 forward I I I I #
face $-1 $87 $88 $21 $-1 $89 reversed single #
loop $-1 $-1 $90 $35 #
plane-surface $-1 0 0 -6.3846103392603162 0 0 1 1 0 0 forward_v I I I I #
coedge $-1 $91 $92 $93 $94 forward $36 $-1 #
face $-1 $95 $96 $22 $-1 $97 reversed single #
loop $-1 $-1 $98 $38 #
plane-surface $-1 0 -20.342144880279172 4.8846103392603162 0 -1 0 0 0 -1 forward_v I I I I #
coedge $-1 $99 $100 $101 $102 reversed $39 $-1 #
face $-1 $103 $104 $23 $-1 $105 reversed single #
loop $-1 $-1 $106 $41 #
plane-surface $-1 -46.689657277138579 1.5203523727954327 2.4746999880366758 -0.69465837861970381 0 0.71933979245794832 0.71933979245794832 0 0.69465837861970381 forward_v I I I I #
coedge $-1 $107 $108 $109 $110 reversed $42 $-1 #
face $-1 $-1 $111 $24 $-1 $112 forward single #
loop $-1 $113 $114 $44 #
cone-surface $-1 -42.574811459576978 1.5203523727954327 2.2649510434906617 0.69465837861970381 0 -0.71933979245794832 0.35966989622897416 0 0.3473291893098519 1 I I -0.70710678118654746 0.70710678118654746 0.5 forward I I I I #
loop $-1 $-1 $115 $31 #
coedge $-1 $72 $72 $116 $117 reversed $45 $-1 #
face $-1 $118 $119 $25 $-1 $120 forward single #
loop $-1 $-1 $121 $47 #
plane-surface $-1 -14.572684266775575 -16.046146720293251 72.158667297763117 0.75470958851134928 0 0.65605901945558964 0.65605901945558964 0 -0.75470958851134928 forward_v I I I I #
coedge $-1 $122 $123 $124 $125 reversed $48 $-1 #
face $-1 $-1 $126 $26 $-1 $127 forward single #
loop $-1 $128 $129 $50 #
cone-surface $-1 42.003647636307726 -17.887288788858648 1.7368986830138233 -0.75470958851134928 0 -0.65605901945558964 0.32802950972779482 0 -0.37735479425567464 1 I I -0.70710678118654746 0.70710678118654746 0.5 forward I I I I #
loop $-1 $-1 $130 $33 #
coedge $-1 $81 $81 $131 $132 reversed $51 $-1 #
face $-1 $-1 $133 $27 $-1 $134 forward single #
loop $-1 $135 $136 $53 #
cone-surface $-1 42.003647636307726 -14.205004651727858 1.7368986830138233 -0.75470958851134928 0 -0.65605901945558964 0.32802950972779482 0 -0.37735479425567464 1 I I -0.70710678118654746 0.70710678118654746 0.5 forward I I I I #
loop $-1 $-1 $137 $34 #
coedge $-1 $86 $86 $138 $139 reversed $54 $-1 #
face $-1 $140 $141 $21 $-1 $142 reversed single #
loop $-1 $-1 $143 $56 #
plane-surface $-1 0 -27.530896180571236 0 0 1 0 0 0 1 forward_v I I I I #
coedge $-1 $144 $145 $146 $147 forward $57 $-1 #
coedge $-1 $148 $59 $149 $150 forward $36 $-1 #
coedge $-1 $59 $148 $151 $152 forward $36 $-1 #
coedge $-1 $153 $154 $59 $94 reversed $155 $-1 #
edge $-1 $156 -27.530896180571236 $157 27.530896180571236 $93 $158 forward 7 unknown #
face $-1 $159 $160 $22 $-1 $161 reversed single #
loop $-1 $-1 $162 $60 #
plane-surface $-1 -46.689657277138586 0 0 1 0 0 0 0 -1 forward_v I I I I #
coedge $-1 $163 $164 $165 $166 reversed $61 $-1 #
coedge $-1 $167 $63 $168 $169 reversed $39 $-1 #
coedge $-1 $63 $167 $163 $170 forward $39 $-1 #
coedge $-1 $165 $171 $63 $102 forward $172 $-1 #
edge $-1 $173 -15.562635915358637 $174 -8.3738846150665687 $101 $175 forward 7 unknown #
face $-1 $176 $177 $23 $-1 $178 forward single #
loop $-1 $-1 $179 $64 #
plane-surface $-1 -111.55638052203207 4.9946287497441055 69.646156739375897 0 -1 0 0.69465837861970381 0 -0.71933979245794832 forward_v I I I I #
coedge $-1 $180 $181 $182 $183 reversed $65 $-1 #
coedge $-1 $108 $67 $184 $185 reversed $42 $-1 #
coedge $-1 $67 $107 $180 $186 reversed $42 $-1 #
coedge $-1 $182 $187 $67 $110 forward $177 $-1 #
edge $-1 $188 9.0885329838774496 $189 13.137363584851393 $109 $190 forward 7 unknown #
loop $-1 $-1 $116 $68 #
plane-surface $-1 -46.689657277138579 1.5203523727954327 2.4746999880366758 -0.69465837861970381 0 0.71933979245794832 0.71933979245794832 0 0.69465837861970381 forward_v I I I I #
loop $-1 $-1 $191 $44 #
coedge $-1 $114 $114 $115 $192 reversed $69 $-1 #
coedge $-1 $115 $115 $114 $192 forward $71 $-1 #
coedge $-1 $116 $116 $72 $117 forward $111 $-1 #
edge $-1 $193 0 $193 6.2831853071796004 $116 $194 forward 7 unknown #
face $-1 $195 $196 $25 $-1 $197 forward single #
loop $-1 $-1 $198 $73 #
plane-surface $-1 0 -20.342144880279172 4.8846103392603162 0 -1 0 0 0 -1 forward_v I I I I #
coedge $-1 $199 $200 $201 $202 reversed $74 $-1 #
coedge $-1 $123 $76 $203 $204 reversed $48 $-1 #
coedge $-1 $76 $122 $199 $205 reversed $48 $-1 #
coedge $-1 $201 $206 $76 $125 forward $196 $-1 #
edge $-1 $207 -18.738867379161189 $208 -14.653039782720928 $124 $209 forward 7 unknown #
loop $-1 $-1 $131 $77 #
plane-surface $-1 -14.572684266775575 -16.046146720293251 72.158667297763117 0.75470958851134928 0 0.65605901945558964 0.65605901945558964 0 -0.75470958851134928 forward_v I I I I #
loop $-1 $-1 $210 $50 #
coedge $-1 $129 $129 $130 $211 reversed $78 $-1 #
coedge $-1 $130 $130 $129 $211 forward $80 $-1 #
coedge $-1 $131 $131 $81 $132 forward $126 $-1 #
edge $-1 $212 0 $212 6.2831853071796004 $131 $213 forward 7 unknown #
loop $-1 $-1 $138 $82 #
plane-surface $-1 -14.572684266775575 -16.046146720293251 72.158667297763117 0.75470958851134928 0 0.65605901945558964 0.65605901945558964 0 -0.75470958851134928 forward_v I I I I #
loop $-1 $-1 $214 $53 #
coedge $-1 $136 $136 $137 $215 reversed $83 $-1 #
coedge $-1 $137 $137 $136 $215 forward $85 $-1 #
coedge $-1 $138 $138 $86 $139 forward $133 $-1 #
edge $-1 $216 0 $216 6.2831853071796004 $138 $217 forward 7 unknown #
face $-1 $218 $219 $21 $-1 $220 reversed single #
loop $-1 $-1 $221 $87 #
plane-surface $-1 -46.689657277138586 0 0 1 0 0 0 0 -1 forward_v I I I I #
coedge $-1 $222 $151 $223 $224 forward $88 $-1 #
coedge $-1 $225 $90 $222 $226 forward $57 $-1 #
coedge $-1 $90 $225 $227 $228 forward $57 $-1 #
coedge $-1 $154 $153 $90 $147 reversed $155 $-1 #
edge $-1 $229 -27.530896180571236 $230 27.530896180571236 $146 $231 forward 7 unknown #
coedge $-1 $92 $91 $232 $233 forward $36 $-1 #
coedge $-1 $234 $235 $91 $150 reversed $219 $-1 #
edge $-1 $157 -46.689657277138586 $236 46.689657277138586 $149 $237 forward 7 unknown #
coedge $-1 $143 $238 $92 $152 reversed $88 $-1 #
edge $-1 $239 -46.689657277138586 $156 46.689657277138586 $151 $240 forward 7 unknown #
coedge $-1 $146 $93 $238 $241 forward $155 $-1 #
coedge $-1 $93 $146 $234 $242 reversed $155 $-1 #
loop $-1 $-1 $153 $218 #
vertex $-1 $94 $243 #
vertex $-1 $94 $244 #
straight-curve $-1 46.689657277138586 0 6.3846103392603162 0 1 0 I I #
face $-1 $245 $246 $22 $-1 $247 forward single #
loop $-1 $-1 $168 $95 #
plane-surface $-1 0 -27.530896180571236 0 0 1 0 0 0 1 forward_v I I I I #
coedge $-1 $248 $249 $250 $251 forward $96 $-1 #
coedge $-1 $250 $98 $100 $170 reversed $61 $-1 #
coedge $-1 $98 $250 $252 $253 reversed $61 $-1 #
coedge $-1 $254 $101 $98 $166 forward $172 $-1 #
edge $-1 $174 0.94230516963015809 $255 3.9423051696301581 $165 $256 forward 7 unknown #
coedge $-1 $100 $99 $248 $257 reversed $39 $-1 #
coedge $-1 $258 $259 $99 $169 forward $160 $-1 #
edge $-1 $260 -46.689657277138586 $173 46.689657277138586 $168 $261 forward 7 unknown #
edge $-1 $262 -46.689657277138586 $174 46.689657277138586 $163 $263 forward 7 unknown #
coedge $-1 $101 $254 $258 $264 forward $172 $-1 #
loop $-1 $-1 $165 $245 #
vertex $-1 $169 $265 #
vertex $-1 $102 $266 #
straight-curve $-1 46.689657277138586 -11.968260265212603 3.3846103392603162 0 1 0 I I #
face $-1 $-1 $267 $23 $-1 $268 reversed single #
loop $-1 $-1 $109 $103 #
plane-surface $-1 0 0 6.3846103392603162 0 0 1 1 0 0 forward_v I I I I #
coedge $-1 $269 $270 $271 $272 reversed $104 $-1 #
coedge $-1 $273 $106 $108 $186 forward $65 $-1 #
coedge $-1 $106 $273 $269 $274 forward $65 $-1 #
coedge $-1 $271 $109 $106 $183 forward $177 $-1 #
edge $-1 $189 -2.7141001905509565 $275 4.2344525633463892 $182 $276 forward 7 unknown #
coedge $-1 $277 $278 $107 $185 forward $267 $-1 #
edge $-1 $279 -32.34837838165128 $188 -28.438468030427632 $184 $280 forward 7 unknown #
edge $-1 $189 -5.6285369493313926 $279 9.7385709978959816e-015 $108 $281 forward 7 unknown #
coedge $-1 $109 $271 $277 $282 forward $177 $-1 #
vertex $-1 $185 $283 #
vertex $-1 $110 $284 #
straight-curve $-1 -55.778190261016036 -1.9539240041532402 6.3846103392603162 1 0 0 I I #
coedge $-1 $191 $191 $-1 $285 reversed $113 $-1 #
edge $-1 $286 0 $286 6.2831853071796004 $114 $287 forward 7 unknown #
vertex $-1 $117 $288 #
ellipse-curve $-1 -44.665241976651615 1.5203523727954327 4.4296551636484898 -0.69465837861970381 0 0.71933979245794832 0.71933979245794832 0 0.69465837861970381 1 I I #
face $-1 $-1 $289 $25 $-1 $290 reversed single #
loop $-1 $-1 $201 $118 #
plane-surface $-1 0 0 6.3846103392603162 0 0 1 1 0 0 forward_v I I I I #
coedge $-1 $291 $292 $200 $293 reversed $119 $-1 #
coedge $-1 $294 $121 $123 $205 forward $74 $-1 #
coedge $-1 $121 $294 $198 $293 forward $74 $-1 #
coedge $-1 $295 $124 $121 $202 forward $196 $-1 #
edge $-1 $208 3.727075200160705 $296 12.319071520132546 $201 $297 forward 7 unknown #
coedge $-1 $298 $299 $122 $204 forward $289 $-1 #
edge $-1 $300 -65.026101185805899 $207 -60.325894081578312 $203 $301 forward 7 unknown #
edge $-1 $208 87.151479138142292 $300 93.379314554277201 $123 $302 forward 7 unknown #
coedge $-1 $124 $295 $298 $303 forward $196 $-1 #
vertex $-1 $204 $304 #
vertex $-1 $125 $305 #
straight-curve $-1 27.950789897977398 -11.750148560307331 6.3846103392603197 -1 0 0 I I #
coedge $-1 $210 $210 $-1 $306 reversed $128 $-1 #
edge $-1 $307 0 $307 6.2831853071796004 $129 $308 forward 7 unknown #
vertex $-1 $132 $309 #
ellipse-curve $-1 44.646743478918459 -17.887288788858648 4.0345067871465368 0.75470958851134928 0 0.65605901945558964 0.65605901945558964 0 -0.75470958851134928 1 I I #
coedge $-1 $214 $214 $-1 $310 reversed $135 $-1 #
edge $-1 $311 0 $311 6.2831853071796004 $136 $312 forward 7 unknown #
vertex $-1 $139 $313 #
ellipse-curve $-1 44.646743478918459 -14.205004651727858 4.0345067871465368 0.75470958851134928 0 0.65605901945558964 0.65605901945558964 0 -0.75470958851134928 1 I I #
face $-1 $-1 $155 $21 $-1 $314 reversed single #
loop $-1 $-1 $234 $140 #
plane-surface $-1 0 27.530896180571236 0 0 -1 0 0 0 -1 forward_v I I I I #
coedge $-1 $315 $232 $235 $316 forward $141 $-1 #
coedge $-1 $238 $143 $144 $226 reversed $88 $-1 #
coedge $-1 $232 $315 $143 $224 reversed $141 $-1 #
edge $-1 $239 -6.3846103392603162 $317 6.3846103392603162 $223 $318 forward 7 unknown #
coedge $-1 $145 $144 $315 $319 forward $57 $-1 #
edge $-1 $230 -46.689657277138586 $317 46.689657277138586 $222 $320 forward 7 unknown #
coedge $-1 $235 $234 $145 $228 reversed $219 $-1 #
edge $-1 $321 -46.689657277138586 $229 46.689657277138586 $227 $322 forward 7 unknown #
vertex $-1 $147 $323 #
vertex $-1 $241 $324 #
straight-curve $-1 46.689657277138586 0 -6.3846103392603162 0 -1 0 I I #
coedge $-1 $221 $223 $148 $233 reversed $141 $-1 #
edge $-1 $236 -27.530896180571236 $239 27.530896180571236 $232 $325 forward 7 unknown #
coedge $-1 $227 $149 $154 $242 forward $219 $-1 #
coedge $-1 $149 $227 $221 $316 reversed $219 $-1 #
vertex $-1 $150 $326 #
straight-curve $-1 0 27.530896180571236 6.3846103392603162 -1 0 0 I I #
coedge $-1 $151 $222 $153 $241 reversed $88 $-1 #
vertex $-1 $233 $327 #
straight-curve $-1 0 -27.530896180571236 6.3846103392603162 1 0 0 I I #
edge $-1 $156 -6.3846103392603162 $230 6.3846103392603162 $153 $328 forward 7 unknown #
edge $-1 $157 -6.3846103392603162 $229 6.3846103392603162 $154 $329 forward 7 unknown #
point $-1 46.689657277138586 -27.530896180571236 6.3846103392603162 #
point $-1 46.689657277138586 27.530896180571236 6.3846103392603162 #
face $-1 $-1 $172 $22 $-1 $330 reversed single #
loop $-1 $-1 $252 $159 #
plane-surface $-1 0 0 6.3846103392603162 0 0 1 1 0 0 forward_v I I I I #
coedge $-1 $331 $162 $167 $257 forward $96 $-1 #
coedge $-1 $162 $331 $332 $333 reversed $96 $-1 #
coedge $-1 $164 $163 $162 $251 reversed $61 $-1 #
edge $-1 $334 -3.9423051696301581 $262 -0.94230516963015809 $162 $335 forward 7 unknown #
coedge $-1 $332 $336 $164 $253 forward $246 $-1 #
edge $-1 $255 -46.689657277138586 $334 46.689657277138586 $252 $337 forward 7 unknown #
coedge $-1 $171 $165 $336 $338 reversed $172 $-1 #
vertex $-1 $166 $339 #
straight-curve $-1 46.689657277138586 -20.342144880279172 2.4423051696301581 0 0 1 I I #
edge $-1 $262 8.3738846150665687 $260 15.562635915358637 $248 $340 forward 7 unknown #
coedge $-1 $341 $168 $171 $264 reversed $160 $-1 #
coedge $-1 $168 $341 $331 $342 forward $160 $-1 #
vertex $-1 $169 $343 #
straight-curve $-1 0 -27.530896180571236 3.3846103392603162 1 0 0 I I #
vertex $-1 $257 $344 #
straight-curve $-1 0 -20.342144880279172 3.3846103392603162 1 0 0 I I #
edge $-1 $345 -6.3846103392603162 $173 -3.3846103392603162 $171 $346 forward 7 unknown #
point $-1 46.689657277138586 -27.53089618057124 3.3846103392603162 #
point $-1 46.689657277138586 -20.342144880279172 3.3846103392603162 #
loop $-1 $-1 $184 $176 #
plane-surface $-1 -46.689657277138586 0 0 1 0 0 0 0 -1 forward_v I I I I #
coedge $-1 $270 $179 $181 $274 reversed $104 $-1 #
coedge $-1 $179 $269 $347 $348 reversed $104 $-1 #
coedge $-1 $187 $182 $179 $272 forward $177 $-1 #
edge $-1 $275 -13.137363584851393 $349 -9.0885329838774496 $271 $350 forward 7 unknown #
coedge $-1 $181 $180 $278 $351 reversed $65 $-1 #
edge $-1 $352 -9.7385709978959816e-015 $275 5.6285369493313926 $269 $353 forward 7 unknown #
vertex $-1 $183 $354 #
straight-curve $-1 -42.640826676164636 0.76017618639771634 6.3846103392603162 0 1 0 I I #
coedge $-1 $347 $184 $187 $282 reversed $267 $-1 #
coedge $-1 $184 $347 $273 $351 forward $267 $-1 #
vertex $-1 $185 $355 #
straight-curve $-1 -46.689657277138586 -1.9539240041532402 34.823078369687948 0 0 1 I I #
straight-curve $-1 -46.689657277138579 -1.9539240041532402 2.4746999880366758 -0.71933979245794832 0 -0.69465837861970381 I I #
edge $-1 $349 -4.9946287497441055 $188 1.9539240041532402 $277 $356 forward 7 unknown #
point $-1 -46.689657277138586 -1.9539240041532402 6.3846103392603162 #
point $-1 -42.640826676164643 -1.9539240041532402 6.3846103392603162 #
edge $-1 $357 1 $357 0 $191 $-1 forward 7 unknown #
vertex $-1 $192 $358 #
ellipse-curve $-1 -42.922140648886831 1.5203523727954327 2.6246209397196356 -0.69465837861970381 0 0.71933979245794832 0.71933979245794832 0 0.69465837861970381 1 I I #
point $-1 -43.945902184193685 1.5203523727954327 5.1243135422682142 #
loop $-1 $-1 $203 $195 #
plane-surface $-1 46.689657277138586 0 0 -1 0 0 0 0 1 forward_v I I I I #
coedge $-1 $292 $198 $359 $360 reversed $119 $-1 #
coedge $-1 $198 $291 $295 $361 reversed $119 $-1 #
edge $-1 $362 -93.379314554277201 $296 -87.151479138142292 $198 $363 forward 7 unknown #
coedge $-1 $200 $199 $299 $364 reversed $74 $-1 #
coedge $-1 $206 $201 $292 $361 forward $196 $-1 #
vertex $-1 $361 $365 #
straight-curve $-1 42.603829680698318 -8.0230733601466255 6.3846103392603126 0 -1 0 I I #
coedge $-1 $359 $203 $206 $303 reversed $289 $-1 #
coedge $-1 $203 $359 $294 $364 forward $289 $-1 #
vertex $-1 $204 $366 #
straight-curve $-1 46.689657277138586 -11.750148560307331 66.710504420838632 0 0 1 I I #
straight-curve $-1 -14.572684266775575 -11.750148560307331 72.158667297763117 0.65605901945558964 0 -0.75470958851134928 I I #
edge $-1 $367 -20.342144880279172 $207 -11.750148560307331 $298 $368 forward 7 unknown #
point $-1 46.689657277138586 -11.750148560307331 6.3846103392603162 #
point $-1 42.603829680698325 -11.750148560307331 6.3846103392603197 #
edge $-1 $369 1 $369 0 $210 $-1 forward 7 unknown #
vertex $-1 $211 $370 #
ellipse-curve $-1 42.381002430563399 -17.887288788858648 2.0649281927416183 0.75470958851134928 0 0.65605901945558964 0.65605901945558964 0 -0.75470958851134928 1 I I #
point $-1 45.302802498374042 -17.887288788858648 3.2797971986351824 #
edge $-1 $371 1 $371 0 $214 $-1 forward 7 unknown #
vertex $-1 $215 $372 #
ellipse-curve $-1 42.381002430563399 -14.205004651727858 2.0649281927416183 0.75470958851134928 0 0.65605901945558964 0.65605901945558964 0 -0.75470958851134928 1 I I #
point $-1 45.302802498374042 -14.205004651727858 3.2797971986351824 #
plane-surface $-1 46.689657277138586 0 0 -1 0 0 0 0 1 forward_v I I I I #
coedge $-1 $223 $221 $225 $319 reversed $141 $-1 #
edge $-1 $236 -6.3846103392603162 $321 6.3846103392603162 $235 $373 forward 7 unknown #
vertex $-1 $319 $374 #
straight-curve $-1 -46.689657277138586 -27.530896180571236 0 0 0 -1 I I #
edge $-1 $317 -27.530896180571236 $321 27.530896180571236 $315 $375 forward 7 unknown #
straight-curve $-1 0 -27.530896180571236 -6.3846103392603162 -1 0 0 I I #
vertex $-1 $228 $376 #
straight-curve $-1 0 27.530896180571236 -6.3846103392603162 1 0 0 I I #
point $-1 46.689657277138586 27.530896180571236 -6.3846103392603162 #
point $-1 46.689657277138586 -27.530896180571236 -6.3846103392603162 #
straight-curve $-1 -46.689657277138586 0 6.3846103392603162 0 -1 0 I I #
point $-1 -46.689657277138586 27.530896180571236 6.3846103392603162 #
point $-1 -46.689657277138586 -27.530896180571236 6.3846103392603162 #
straight-curve $-1 46.689657277138586 -27.530896180571236 0 0 0 -1 I I #
straight-curve $-1 46.689657277138586 27.530896180571236 0 0 0 -1 I I #
plane-surface $-1 46.689657277138586 0 0 -1 0 0 0 0 1 forward_v I I I I #
coedge $-1 $249 $248 $259 $342 reversed $96 $-1 #
coedge $-1 $377 $252 $249 $333 forward $246 $-1 #
edge $-1 $334 20.342144880279172 $378 27.530896180571236 $249 $379 forward 7 unknown #
vertex $-1 $333 $380 #
straight-curve $-1 -46.689657277138586 -20.342144880279172 2.4423051696301581 0 0 -1 I I #
coedge $-1 $252 $377 $254 $338 forward $246 $-1 #
straight-curve $-1 0 -20.342144880279172 6.3846103392603162 -1 0 0 I I #
edge $-1 $345 -27.530896180571236 $255 -20.342144880279172 $254 $381 forward 7 unknown #
point $-1 46.689657277138586 -20.342144880279172 6.3846103392603162 #
straight-curve $-1 -46.689657277138586 -11.968260265212603 3.3846103392603162 0 -1 0 I I #
coedge $-1 $259 $258 $377 $382 reversed $160 $-1 #
edge $-1 $378 -6.3846103392603162 $260 -3.3846103392603162 $331 $383 forward 7 unknown #
point $-1 -46.689657277138586 -27.53089618057124 3.3846103392603162 #
point $-1 -46.689657277138586 -20.342144880279172 3.3846103392603162 #
vertex $-1 $338 $384 #
straight-curve $-1 46.689657277138586 -27.530896180571236 0 0 0 -1 I I #
coedge $-1 $278 $277 $270 $348 forward $267 $-1 #
edge $-1 $349 28.438468030427632 $352 32.34837838165128 $347 $385 forward 7 unknown #
vertex $-1 $282 $386 #
straight-curve $-1 -55.778190261016036 4.9946287497441055 6.3846103392603162 -1 0 0 I I #
edge $-1 $352 -4.2344525633463892 $279 2.7141001905509565 $278 $387 forward 7 unknown #
vertex $-1 $351 $388 #
straight-curve $-1 -46.689657277138579 4.9946287497441055 2.4746999880366758 0.71933979245794832 0 0.69465837861970381 I I #
point $-1 -42.640826676164643 4.9946287497441055 6.3846103392603162 #
point $-1 -46.689657277138586 -1.9539240041532402 2.4746999880366691 #
straight-curve $-1 -46.689657277138586 0 6.3846103392603162 0 -1 0 I I #
vertex $-1 $285 $389 #
point $-1 -42.20280085642888 1.5203523727954327 3.3192793183393396 #
coedge $-1 $299 $298 $291 $360 forward $289 $-1 #
edge $-1 $367 60.325894081578312 $362 65.026101185805899 $359 $390 forward 7 unknown #
edge $-1 $296 42.603829680698325 $367 46.689657277138586 $295 $391 forward 7 unknown #
vertex $-1 $360 $392 #
straight-curve $-1 -14.572684266775575 -20.342144880279172 72.158667297763117 -0.65605901945558964 0 0.75470958851134928 I I #
edge $-1 $362 -12.319071520132546 $300 -3.727075200160705 $299 $393 forward 7 unknown #
point $-1 42.603829680698325 -20.342144880279172 6.3846103392603197 #
point $-1 46.689657277138586 -11.750148560307331 1.6844032350327325 #
vertex $-1 $303 $394 #
straight-curve $-1 46.689657277138586 0 6.3846103392603162 0 1 0 I I #
vertex $-1 $306 $395 #
point $-1 43.037061450018989 -17.887288788858648 1.3102186042302688 #
vertex $-1 $310 $396 #
point $-1 43.037061450018989 -14.205004651727858 1.3102186042302688 #
straight-curve $-1 -46.689657277138586 27.530896180571236 0 0 0 -1 I I #
point $-1 -46.689657277138586 -27.530896180571236 -6.3846103392603162 #
straight-curve $-1 -46.689657277138586 0 -6.3846103392603162 0 1 0 I I #
point $-1 -46.689657277138586 27.530896180571236 -6.3846103392603162 #
coedge $-1 $336 $332 $341 $382 forward $246 $-1 #
vertex $-1 $333 $397 #
straight-curve $-1 -46.689657277138586 0 6.3846103392603162 0 -1 0 I I #
point $-1 -46.689657277138586 -20.342144880279172 6.3846103392603162 #
straight-curve $-1 46.689657277138586 0 6.3846103392603162 0 1 0 I I #
edge $-1 $378 -46.689657277138586 $345 46.689657277138586 $341 $398 forward 7 unknown #
straight-curve $-1 -46.689657277138586 -27.530896180571236 0 0 0 -1 I I #
point $-1 46.689657277138586 -27.530896180571236 6.3846103392603162 #
straight-curve $-1 -46.689657277138586 4.9946287497441055 34.823078369687948 0 0 -1 I I #
point $-1 -46.689657277138586 4.9946287497441055 6.3846103392603162 #
straight-curve $-1 -46.689657277138586 0.76017618639771634 2.4746999880366625 0 -1 0 I I #
point $-1 -46.689657277138586 4.9946287497441055 2.4746999880366691 #
point $-1 -42.227482270267124 1.5203523727954327 1.9052811472616875 #
straight-curve $-1 46.689657277138586 -20.342144880279172 66.710504420838632 0 0 -1 I I #
straight-curve $-1 0 -20.342144880279172 6.3846103392603162 1 0 0 I I #
point $-1 46.689657277138586 -20.342144880279172 1.6844032350327325 #
straight-curve $-1 46.689657277138586 -8.0230733601466255 1.6844032350327396 0 1 0 I I #
point $-1 46.689657277138586 -20.342144880279172 6.3846103392603162 #
point $-1 41.626292842052052 -17.887288788858648 1.4088691732860286 #
point $-1 41.626292842052052 -14.205004651727858 1.4088691732860286 #
point $-1 -46.689657277138586 -27.530896180571236 6.3846103392603162 #
straight-curve $-1 0 -27.530896180571236 6.3846103392603162 1 0 0 I I #
End-of-ACIS-data 