500 0 4 0           
7 Unknown 11 ACIS 5.0 NT 24 Fri Mar 26 18:26:12 1999 
-1 9.9999999999999995e-007 1e-010 
body $-1 $4 $-1 $5 #
body $-1 $6 $-1 $7 #
body $-1 $8 $-1 $9 #
body $-1 $10 $-1 $11 #
lump $-1 $-1 $12 $0 #
transform $-1 1 0 0 0 1 0 0 0 1 64.402600177007358 36.382250773538317 7.5072881910191542 1 rotate no_reflect no_shear #
lump $-1 $-1 $13 $1 #
transform $-1 1 0 0 0 1 0 0 0 1 64.402600177007358 36.382250773538317 7.5072881910191542 1 rotate no_reflect no_shear #
lump $-1 $-1 $14 $2 #
transform $-1 1 0 0 0 1 0 0 0 1 64.402600177007358 36.382250773538317 7.5072881910191542 1 rotate no_reflect no_shear #
lump $-1 $-1 $15 $3 #
transform $-1 1 0 0 0 1 0 0 0 1 64.402600177007358 36.382250773538317 7.5072881910191542 1 rotate no_reflect no_shear #
shell $-1 $-1 $-1 $16 $-1 $4 #
shell $-1 $-1 $-1 $17 $-1 $6 #
shell $-1 $-1 $-1 $18 $-1 $8 #
shell $-1 $-1 $-1 $19 $-1 $10 #
face $-1 $20 $21 $12 $-1 $22 forward single #
face $-1 $23 $24 $13 $-1 $25 forward single #
face $-1 $26 $27 $14 $-1 $28 reversed single #
face $-1 $29 $30 $15 $-1 $31 forward single #
face $-1 $32 $33 $12 $-1 $34 reversed single #
loop $-1 $-1 $35 $16 #
plane-surface $-1 0 0 7.5072881910191542 0 0 1 1 0 0 forward_v I I I I #
face $-1 $36 $37 $13 $-1 $38 reversed single #
loop $-1 $-1 $39 $17 #
plane-surface $-1 0 -36.382250773538317 0 0 1 0 0 0 1 forward_v I I I I #
face $-1 $40 $41 $14 $-1 $42 reversed single #
loop $-1 $-1 $43 $18 #
plane-surface $-1 32.642548409672472 50.656689710907045 149.40653375343194 1 0 0 0 -0.57357644374324357 -0.81915203911291934 forward_v I I I I #
face $-1 $44 $45 $15 $-1 $46 forward single #
loop $-1 $47 $48 $19 #
cone-surface $-1 48.522574293339915 31.708490703939191 3.6122719269526482 0 -0.57357644374324357 -0.81915203911291934 1.5 0 0 1 I I 0 1 1.5 forward I I I I #
face $-1 $49 $50 $12 $-1 $51 reversed single #
loop $-1 $-1 $52 $20 #
plane-surface $-1 0 0 -7.5072881910191542 0 0 1 1 0 0 forward_v I I I I #
coedge $-1 $53 $54 $55 $56 forward $21 $-1 #
face $-1 $57 $58 $13 $-1 $59 reversed single #
loop $-1 $-1 $60 $23 #
plane-surface $-1 0 0 -7.5072881910191542 0 0 1 1 0 0 forward_v I I I I #
coedge $-1 $61 $62 $63 $64 forward $24 $-1 #
face $-1 $65 $66 $14 $-1 $67 forward single #
loop $-1 $-1 $68 $26 #
plane-surface $-1 48.522574293339915 -23.222939043784692 43.895491235092663 0 0.57357644374324357 0.81915203911291934 1 0 0 forward_v I I I I #
coedge $-1 $69 $70 $71 $72 reversed $27 $-1 #
face $-1 $-1 $73 $15 $-1 $74 forward single #
loop $-1 $75 $76 $29 #
cone-surface $-1 48.522574293339915 30.423273886098571 1.7767921255756702 0 -0.57357644374324357 -0.81915203911291934 0.75 0 0 1 I I -0.70710678118654757 0.70710678118654757 0.75 forward I I I I #
loop $-1 $-1 $77 $19 #
coedge $-1 $48 $48 $78 $79 reversed $30 $-1 #
face $-1 $80 $81 $12 $-1 $82 reversed single #
loop $-1 $-1 $83 $32 #
plane-surface $-1 0 -36.382250773538317 0 0 1 0 0 0 1 forward_v I I I I #
coedge $-1 $84 $85 $86 $87 forward $33 $-1 #
coedge $-1 $88 $35 $89 $90 forward $21 $-1 #
coedge $-1 $35 $88 $91 $92 forward $21 $-1 #
coedge $-1 $93 $94 $35 $56 reversed $95 $-1 #
edge $-1 $96 -36.382250773538317 $97 36.382250773538317 $55 $98 forward 7 unknown #
face $-1 $99 $100 $13 $-1 $101 forward single #
loop $-1 $-1 $102 $36 #
plane-surface $-1 64.402600177007358 0 0 -1 0 0 0 0 1 forward_v I I I I #
coedge $-1 $103 $104 $105 $106 forward $37 $-1 #
coedge $-1 $105 $39 $102 $107 reversed $24 $-1 #
coedge $-1 $39 $105 $108 $109 reversed $24 $-1 #
coedge $-1 $110 $111 $39 $64 reversed $100 $-1 #
edge $-1 $112 -64.402600177007358 $113 64.402600177007358 $63 $114 forward 7 unknown #
face $-1 $115 $116 $14 $-1 $117 reversed single #
loop $-1 $-1 $71 $40 #
plane-surface $-1 0 0 7.5072881910191542 0 0 1 1 0 0 forward_v I I I I #
coedge $-1 $118 $119 $120 $121 reversed $41 $-1 #
coedge $-1 $70 $43 $122 $123 reversed $27 $-1 #
coedge $-1 $43 $69 $118 $124 reversed $27 $-1 #
coedge $-1 $120 $125 $43 $72 forward $66 $-1 #
edge $-1 $126 -11.053905918084794 $127 -3.4164547489528587 $71 $128 forward 7 unknown #
loop $-1 $-1 $78 $44 #
plane-surface $-1 48.522574293339915 -23.222939043784692 43.895491235092663 0 0.57357644374324357 0.81915203911291934 1 0 0 forward_v I I I I #
loop $-1 $-1 $129 $29 #
coedge $-1 $76 $76 $77 $130 reversed $45 $-1 #
coedge $-1 $77 $77 $76 $130 forward $47 $-1 #
coedge $-1 $78 $78 $48 $79 forward $73 $-1 #
edge $-1 $131 -5.0818952179965217e-017 $131 6.2831853071796004 $78 $132 forward 7 unknown #
face $-1 $133 $134 $12 $-1 $135 reversed single #
loop $-1 $-1 $136 $49 #
plane-surface $-1 -64.402600177007358 0 0 1 0 0 0 0 -1 forward_v I I I I #
coedge $-1 $91 $137 $93 $138 reversed $50 $-1 #
coedge $-1 $139 $52 $137 $140 forward $33 $-1 #
coedge $-1 $52 $139 $141 $142 forward $33 $-1 #
coedge $-1 $94 $93 $52 $87 reversed $95 $-1 #
edge $-1 $143 -36.382250773538317 $144 36.382250773538317 $86 $145 forward 7 unknown #
coedge $-1 $54 $53 $146 $147 forward $21 $-1 #
coedge $-1 $148 $149 $53 $90 reversed $134 $-1 #
edge $-1 $97 -64.402600177007358 $150 64.402600177007358 $89 $151 forward 7 unknown #
coedge $-1 $152 $83 $54 $92 reversed $50 $-1 #
edge $-1 $153 -64.402600177007358 $96 64.402600177007358 $91 $154 forward 7 unknown #
coedge $-1 $86 $55 $83 $138 forward $95 $-1 #
coedge $-1 $55 $86 $148 $155 reversed $95 $-1 #
loop $-1 $-1 $93 $133 #
vertex $-1 $56 $156 #
vertex $-1 $56 $157 #
straight-curve $-1 64.402600177007358 0 7.5072881910191542 0 1 0 I I #
face $-1 $158 $159 $13 $-1 $160 reversed single #
loop $-1 $-1 $111 $57 #
plane-surface $-1 0 -39.560152055035637 -4.5072881910191542 0 0 1 1 0 0 forward_v I I I I #
coedge $-1 $161 $162 $61 $107 forward $58 $-1 #
coedge $-1 $163 $60 $162 $164 forward $37 $-1 #
coedge $-1 $60 $163 $165 $166 forward $37 $-1 #
coedge $-1 $62 $61 $60 $106 reversed $24 $-1 #
edge $-1 $167 -64.402600177007358 $168 64.402600177007358 $60 $169 forward 7 unknown #
edge $-1 $168 -7.5072881910191542 $113 -4.5072881910191542 $102 $170 forward 7 unknown #
coedge $-1 $165 $171 $62 $109 forward $172 $-1 #
edge $-1 $112 4.5072881910191542 $167 7.5072881910191542 $108 $173 forward 7 unknown #
coedge $-1 $174 $63 $171 $175 forward $100 $-1 #
coedge $-1 $63 $174 $161 $176 forward $100 $-1 #
vertex $-1 $109 $177 #
vertex $-1 $176 $178 #
straight-curve $-1 0 -36.382250773538317 -4.5072881910191542 1 0 0 I I #
face $-1 $-1 $179 $14 $-1 $180 reversed single #
loop $-1 $-1 $181 $65 #
plane-surface $-1 64.402600177007358 0 0 -1 0 0 0 0 1 forward_v I I I I #
coedge $-1 $182 $68 $70 $124 forward $41 $-1 #
coedge $-1 $68 $182 $181 $183 reversed $41 $-1 #
coedge $-1 $184 $71 $68 $121 forward $66 $-1 #
edge $-1 $127 8.3812612630025143 $185 40.1413130303374 $120 $186 forward 7 unknown #
coedge $-1 $187 $188 $69 $123 forward $179 $-1 #
edge $-1 $189 -72.543779669745277 $126 -67.195978685696815 $122 $190 forward 7 unknown #
edge $-1 $127 63.440895177979733 $189 72.764501547076648 $70 $191 forward 7 unknown #
coedge $-1 $71 $184 $187 $192 forward $66 $-1 #
vertex $-1 $123 $193 #
vertex $-1 $72 $194 #
straight-curve $-1 32.642548409672472 25.328344855453523 7.5072881910191569 0 -1 0 I I #
coedge $-1 $129 $129 $-1 $195 reversed $75 $-1 #
edge $-1 $196 0 $196 6.2831853071796004 $76 $197 forward 7 unknown #
vertex $-1 $79 $198 #
ellipse-curve $-1 48.522574293339915 32.563525188972363 4.8333876989949163 0 0.57357644374324357 0.81915203911291934 1.5 0 0 1 I I #
face $-1 $-1 $95 $12 $-1 $199 reversed single #
loop $-1 $-1 $148 $80 #
plane-surface $-1 0 36.382250773538317 0 0 -1 0 0 0 -1 forward_v I I I I #
coedge $-1 $200 $146 $149 $201 forward $81 $-1 #
coedge $-1 $83 $152 $84 $140 reversed $50 $-1 #
edge $-1 $96 -7.5072881910191542 $144 7.5072881910191542 $93 $202 forward 7 unknown #
coedge $-1 $85 $84 $200 $203 forward $33 $-1 #
edge $-1 $144 -64.402600177007358 $204 64.402600177007358 $137 $205 forward 7 unknown #
coedge $-1 $149 $148 $85 $142 reversed $134 $-1 #
edge $-1 $206 -64.402600177007358 $143 64.402600177007358 $141 $207 forward 7 unknown #
vertex $-1 $87 $208 #
vertex $-1 $138 $209 #
straight-curve $-1 64.402600177007358 0 -7.5072881910191542 0 -1 0 I I #
coedge $-1 $136 $210 $88 $147 reversed $81 $-1 #
edge $-1 $150 -36.382250773538317 $153 36.382250773538317 $146 $211 forward 7 unknown #
coedge $-1 $141 $89 $94 $155 forward $134 $-1 #
coedge $-1 $89 $141 $136 $201 reversed $134 $-1 #
vertex $-1 $90 $212 #
straight-curve $-1 0 36.382250773538317 7.5072881910191542 -1 0 0 I I #
coedge $-1 $137 $91 $210 $213 forward $50 $-1 #
vertex $-1 $147 $214 #
straight-curve $-1 0 -36.382250773538317 7.5072881910191542 1 0 0 I I #
edge $-1 $97 -7.5072881910191542 $143 7.5072881910191542 $94 $215 forward 7 unknown #
point $-1 64.402600177007358 -36.382250773538317 7.5072881910191542 #
point $-1 64.402600177007358 36.382250773538317 7.5072881910191542 #
face $-1 $-1 $172 $13 $-1 $216 reversed single #
loop $-1 $-1 $217 $99 #
plane-surface $-1 0 -42.738053336532957 -6.0072881910191542 0 1 0 0 0 1 forward_v I I I I #
coedge $-1 $218 $102 $111 $176 reversed $58 $-1 #
coedge $-1 $102 $218 $103 $164 reversed $58 $-1 #
coedge $-1 $104 $103 $219 $220 forward $37 $-1 #
edge $-1 $168 36.382250773538317 $221 42.738053336532957 $162 $222 forward 7 unknown #
coedge $-1 $223 $108 $104 $166 reversed $172 $-1 #
edge $-1 $224 -42.738053336532957 $167 -36.382250773538317 $165 $225 forward 7 unknown #
vertex $-1 $109 $226 #
vertex $-1 $164 $227 #
straight-curve $-1 0 -36.382250773538317 -7.5072881910191542 1 0 0 I I #
straight-curve $-1 64.402600177007358 -36.382250773538317 0 0 0 1 I I #
coedge $-1 $108 $223 $110 $175 reversed $172 $-1 #
loop $-1 $-1 $108 $158 #
straight-curve $-1 -64.402600177007358 -36.382250773538317 0 0 0 -1 I I #
coedge $-1 $111 $110 $228 $229 forward $100 $-1 #
edge $-1 $112 -3.17790128149732 $230 3.17790128149732 $171 $231 forward 7 unknown #
edge $-1 $232 -3.17790128149732 $113 3.17790128149732 $161 $233 forward 7 unknown #
point $-1 -64.402600177007358 -36.382250773538317 -4.5072881910191542 #
point $-1 64.402600177007358 -36.382250773538317 -4.5072881910191542 #
loop $-1 $-1 $122 $115 #
plane-surface $-1 0 36.382250773538317 0 0 -1 0 0 0 -1 forward_v I I I I #
coedge $-1 $234 $235 $119 $183 forward $116 $-1 #
coedge $-1 $119 $118 $188 $236 reversed $41 $-1 #
edge $-1 $185 41.340626362530521 $237 50.664232731627436 $181 $238 forward 7 unknown #
coedge $-1 $125 $120 $235 $239 forward $66 $-1 #
vertex $-1 $239 $240 #
straight-curve $-1 24.261287146669957 28.744799604406381 7.5072881910191569 1 0 0 I I #
coedge $-1 $241 $122 $125 $192 reversed $179 $-1 #
coedge $-1 $122 $241 $182 $236 forward $179 $-1 #
vertex $-1 $123 $242 #
straight-curve $-1 32.642548409672472 36.382250773538317 74.703266876715972 0 0 1 I I #
straight-curve $-1 32.642548409672472 -23.222939043784692 43.895491235092663 0 0.81915203911291934 -0.57357644374324357 I I #
edge $-1 $243 -64.402600177007358 $126 -32.642548409672472 $187 $244 forward 7 unknown #
point $-1 32.642548409672472 36.382250773538317 7.5072881910191542 #
point $-1 32.642548409672472 28.744799604406381 7.5072881910191569 #
edge $-1 $245 1 $245 0 $129 $-1 forward 7 unknown #
vertex $-1 $130 $246 #
ellipse-curve $-1 48.522574293339915 30.853456218906004 2.3911561549103597 0 0.57357644374324357 0.81915203911291934 1.5 0 0 1 I I #
point $-1 50.022574293339915 32.563525188972378 4.8333876989949367 #
plane-surface $-1 64.402600177007358 0 0 -1 0 0 0 0 1 forward_v I I I I #
coedge $-1 $210 $136 $139 $203 reversed $81 $-1 #
edge $-1 $150 -7.5072881910191542 $206 7.5072881910191542 $149 $247 forward 7 unknown #
straight-curve $-1 64.402600177007358 -36.382250773538317 0 0 0 -1 I I #
edge $-1 $204 -36.382250773538317 $206 36.382250773538317 $200 $248 forward 7 unknown #
vertex $-1 $203 $249 #
straight-curve $-1 0 -36.382250773538317 -7.5072881910191542 -1 0 0 I I #
vertex $-1 $142 $250 #
straight-curve $-1 0 36.382250773538317 -7.5072881910191542 1 0 0 I I #
point $-1 64.402600177007358 36.382250773538317 -7.5072881910191542 #
point $-1 64.402600177007358 -36.382250773538317 -7.5072881910191542 #
coedge $-1 $146 $200 $152 $213 reversed $81 $-1 #
straight-curve $-1 -64.402600177007358 0 7.5072881910191542 0 -1 0 I I #
point $-1 -64.402600177007358 36.382250773538317 7.5072881910191542 #
edge $-1 $153 -7.5072881910191542 $204 7.5072881910191542 $210 $251 forward 7 unknown #
point $-1 -64.402600177007358 -36.382250773538317 7.5072881910191542 #
straight-curve $-1 64.402600177007358 36.382250773538317 0 0 0 -1 I I #
plane-surface $-1 -64.402600177007358 0 0 1 0 0 0 0 -1 forward_v I I I I #
coedge $-1 $219 $228 $223 $252 forward $159 $-1 #
coedge $-1 $162 $161 $253 $254 forward $58 $-1 #
coedge $-1 $253 $217 $163 $220 reversed $159 $-1 #
edge $-1 $221 -64.402600177007358 $224 64.402600177007358 $219 $255 forward 7 unknown #
vertex $-1 $254 $256 #
straight-curve $-1 64.402600177007358 0 -7.5072881910191542 0 -1 0 I I #
coedge $-1 $171 $165 $217 $252 reversed $172 $-1 #
vertex $-1 $166 $257 #
straight-curve $-1 -64.402600177007358 0 -7.5072881910191542 0 1 0 I I #
point $-1 -64.402600177007358 -36.382250773538317 -7.5072881910191542 #
point $-1 64.402600177007358 -36.382250773538317 -7.5072881910191542 #
coedge $-1 $217 $253 $174 $229 reversed $159 $-1 #
edge $-1 $230 -64.402600177007358 $232 64.402600177007358 $228 $258 forward 7 unknown #
vertex $-1 $175 $259 #
straight-curve $-1 -64.402600177007358 -39.560152055035637 -4.5072881910191542 0 -1 0 I I #
vertex $-1 $176 $260 #
straight-curve $-1 64.402600177007358 -39.560152055035637 -4.5072881910191542 0 1 0 I I #
coedge $-1 $235 $181 $241 $261 reversed $116 $-1 #
coedge $-1 $181 $234 $184 $239 reversed $116 $-1 #
edge $-1 $237 -40.1413130303374 $189 -8.3812612630025143 $188 $262 forward 7 unknown #
vertex $-1 $183 $263 #
straight-curve $-1 64.402600177007358 -5.1194587786658046 31.219297642157599 0 0.81915203911291934 -0.57357644374324357 I I #
edge $-1 $185 28.744799604406381 $243 36.382250773538317 $235 $264 forward 7 unknown #
point $-1 64.402600177007358 28.744799604406381 7.5072881910191569 #
coedge $-1 $188 $187 $234 $261 forward $179 $-1 #
point $-1 32.642548409672472 36.382250773538317 2.1594872069706952 #
vertex $-1 $239 $265 #
straight-curve $-1 0 36.382250773538317 7.5072881910191542 -1 0 0 I I #
vertex $-1 $195 $266 #
point $-1 50.022574293339915 30.853456218906004 2.3911561549103597 #
straight-curve $-1 -64.402600177007358 36.382250773538317 0 0 0 -1 I I #
straight-curve $-1 -64.402600177007358 0 -7.5072881910191542 0 1 0 I I #
point $-1 -64.402600177007358 -36.382250773538317 -7.5072881910191542 #
point $-1 -64.402600177007358 36.382250773538317 -7.5072881910191542 #
straight-curve $-1 -64.402600177007358 -36.382250773538317 0 0 0 -1 I I #
edge $-1 $230 -1.5 $224 1.5 $223 $267 forward 7 unknown #
coedge $-1 $228 $219 $218 $254 reversed $159 $-1 #
edge $-1 $232 -1.5 $221 1.5 $218 $268 forward 7 unknown #
straight-curve $-1 0 -42.738053336532957 -7.5072881910191542 -1 0 0 I I #
point $-1 64.402600177007358 -42.738053336532957 -7.5072881910191542 #
point $-1 -64.402600177007358 -42.738053336532957 -7.5072881910191542 #
straight-curve $-1 0 -42.738053336532957 -4.5072881910191542 1 0 0 I I #
point $-1 -64.402600177007358 -42.738053336532957 -4.5072881910191542 #
point $-1 64.402600177007358 -42.738053336532957 -4.5072881910191542 #
edge $-1 $243 -7.5072881910191542 $237 -2.1594872069706952 $234 $269 forward 7 unknown #
straight-curve $-1 24.261287146669957 36.382250773538324 2.1594872069706952 -1 0 0 I I #
point $-1 64.402600177007358 36.382250773538317 2.1594872069706952 #
straight-curve $-1 64.402600177007358 0 7.5072881910191542 0 1 0 I I #
point $-1 64.402600177007358 36.382250773538317 7.5072881910191542 #
point $-1 48.522574293339915 29.993091553291137 1.1624280962409808 #
straight-curve $-1 -64.402600177007358 -42.738053336532957 -6.0072881910191542 0 0 -1 I I #
straight-curve $-1 64.402600177007358 -42.738053336532957 -6.0072881910191542 0 0 -1 I I #
straight-curve $-1 64.402600177007358 36.382250773538317 0 0 0 -1 I I #
End-of-ACIS-data 