500 0 9 0           
7 Unknown 11 ACIS 5.0 NT 24 Fri Mar 26 14:26:21 1999 
-1 9.9999999999999995e-007 1e-010 
body $-1 $9 $-1 $10 #
body $-1 $11 $-1 $12 #
body $-1 $13 $-1 $14 #
body $-1 $15 $-1 $16 #
body $-1 $17 $-1 $18 #
body $-1 $19 $-1 $20 #
body $-1 $21 $-1 $22 #
body $-1 $23 $-1 $24 #
body $-1 $25 $-1 $26 #
lump $-1 $-1 $27 $0 #
transform $-1 1 0 0 0 1 0 0 0 1 68.390758995330671 47.853494330077361 23.742296457500952 1 rotate no_reflect no_shear #
lump $-1 $-1 $28 $1 #
transform $-1 1 0 0 0 1 0 0 0 1 68.390758995330671 47.853494330077361 23.742296457500952 1 rotate no_reflect no_shear #
lump $-1 $-1 $29 $2 #
transform $-1 1 0 0 0 1 0 0 0 1 68.390758995330671 47.853494330077361 23.742296457500952 1 rotate no_reflect no_shear #
lump $-1 $-1 $30 $3 #
transform $-1 1 0 0 0 1 0 0 0 1 68.390758995330671 47.853494330077361 23.742296457500952 1 rotate no_reflect no_shear #
lump $-1 $-1 $31 $4 #
transform $-1 1 0 0 0 1 0 0 0 1 68.390758995330671 47.853494330077361 23.742296457500952 1 rotate no_reflect no_shear #
lump $-1 $-1 $32 $5 #
transform $-1 1 0 0 0 1 0 0 0 1 68.390758995330671 47.853494330077361 23.742296457500952 1 rotate no_reflect no_shear #
lump $-1 $-1 $33 $6 #
transform $-1 1 0 0 0 1 0 0 0 1 68.390758995330671 47.853494330077361 23.742296457500952 1 rotate no_reflect no_shear #
lump $-1 $-1 $34 $7 #
transform $-1 1 0 0 0 1 0 0 0 1 68.390758995330671 47.853494330077361 23.742296457500952 1 rotate no_reflect no_shear #
lump $-1 $-1 $35 $8 #
transform $-1 1 0 0 0 1 0 0 0 1 68.390758995330671 47.853494330077361 23.742296457500952 1 rotate no_reflect no_shear #
shell $-1 $-1 $-1 $36 $-1 $9 #
shell $-1 $-1 $-1 $37 $-1 $11 #
shell $-1 $-1 $-1 $38 $-1 $13 #
shell $-1 $-1 $-1 $39 $-1 $15 #
shell $-1 $-1 $-1 $40 $-1 $17 #
shell $-1 $-1 $-1 $41 $-1 $19 #
shell $-1 $-1 $-1 $42 $-1 $21 #
shell $-1 $-1 $-1 $43 $-1 $23 #
shell $-1 $-1 $-1 $44 $-1 $25 #
face $-1 $45 $46 $27 $-1 $47 forward single #
face $-1 $48 $49 $28 $-1 $50 forward single #
face $-1 $51 $52 $29 $-1 $53 reversed single #
face $-1 $54 $55 $30 $-1 $56 forward single #
face $-1 $57 $58 $31 $-1 $59 forward single #
face $-1 $60 $61 $32 $-1 $62 forward single #
face $-1 $63 $64 $33 $-1 $65 reversed single #
face $-1 $66 $67 $34 $-1 $68 forward single #
face $-1 $69 $70 $35 $-1 $71 forward single #
face $-1 $72 $73 $27 $-1 $74 reversed single #
loop $-1 $-1 $75 $36 #
plane-surface $-1 0 0 23.742296457500952 0 0 1 1 0 0 forward_v I I I I #
face $-1 $76 $77 $28 $-1 $78 reversed single #
loop $-1 $-1 $79 $37 #
plane-surface $-1 -68.390758995330671 0 0 1 0 0 0 0 -1 forward_v I I I I #
face $-1 $80 $81 $29 $-1 $82 reversed single #
loop $-1 $-1 $83 $38 #
plane-surface $-1 38.916035252648349 93.922341218610825 165.51239391330836 1 0 0 0 -0.77714596973225614 -0.62932038083071107 forward_v I I I I #
face $-1 $84 $85 $30 $-1 $86 forward single #
loop $-1 $87 $88 $39 #
cone-surface $-1 44.810980001184817 38.36256233448983 12.840089671824522 0 -0.77714596973225614 -0.62932038083071107 2 0 0 1 I I 0 1 2 forward I I I I #
face $-1 $89 $90 $31 $-1 $91 forward single #
loop $-1 $92 $93 $40 #
cone-surface $-1 53.653397123989507 38.36256233448983 12.840089671824522 0 -0.77714596973225614 -0.62932038083071107 2 0 0 1 I I 0 1 2 forward I I I I #
face $-1 $94 $95 $32 $-1 $96 forward single #
loop $-1 $97 $98 $41 #
cone-surface $-1 62.495814246794211 38.36256233448983 12.840089671824522 0 -0.77714596973225614 -0.62932038083071107 2 0 0 1 I I 0 1 2 forward I I I I #
face $-1 $99 $100 $33 $-1 $101 reversed single #
loop $-1 $-1 $102 $42 #
plane-surface $-1 -23.962208429239993 -165.09813996373668 82.043421026266984 -1 0 0 0 -0.85716730853699208 0.51503806187062418 forward_v I I I I #
face $-1 $103 $104 $34 $-1 $105 forward single #
loop $-1 $106 $107 $43 #
cone-surface $-1 -33.865006904553624 -42.613292864761945 16.713042080806222 0 0.85716730853699208 -0.51503806187062418 1 0 0 1 I I 0 1 1 forward I I I I #
face $-1 $108 $109 $35 $-1 $110 forward single #
loop $-1 $111 $112 $44 #
cone-surface $-1 -27.92332781936544 -42.613292864761945 16.713042080806222 0 0.85716730853699208 -0.51503806187062418 1 0 0 1 I I 0 1 1 forward I I I I #
face $-1 $113 $114 $27 $-1 $115 reversed single #
loop $-1 $-1 $116 $45 #
plane-surface $-1 0 0 -23.742296457500952 0 0 1 1 0 0 forward_v I I I I #
coedge $-1 $117 $118 $119 $120 forward $46 $-1 #
face $-1 $121 $122 $28 $-1 $123 forward single #
loop $-1 $-1 $124 $48 #
plane-surface $-1 0 47.853494330077361 0 0 -1 0 0 0 -1 forward_v I I I I #
coedge $-1 $125 $126 $127 $128 forward $49 $-1 #
face $-1 $129 $130 $29 $-1 $131 forward single #
loop $-1 $-1 $132 $51 #
plane-surface $-1 53.653397123989507 -12.376864221691719 79.432996920822603 0 0.77714596973225614 0.62932038083071107 1 0 0 forward_v I I I I #
coedge $-1 $133 $134 $135 $136 reversed $52 $-1 #
face $-1 $-1 $137 $30 $-1 $138 forward single #
loop $-1 $139 $140 $54 #
cone-surface $-1 44.810980001184817 35.660944234992421 10.652362529881547 0 -0.77714596973225614 -0.62932038083071107 1 0 0 1 I I -0.70710678118654746 0.70710678118654746 1 forward I I I I #
loop $-1 $-1 $141 $39 #
coedge $-1 $88 $88 $142 $143 reversed $55 $-1 #
face $-1 $-1 $144 $31 $-1 $145 forward single #
loop $-1 $146 $147 $57 #
cone-surface $-1 53.653397123989507 35.660944234992421 10.652362529881547 0 -0.77714596973225614 -0.62932038083071107 1 0 0 1 I I -0.70710678118654746 0.70710678118654746 1 forward I I I I #
loop $-1 $-1 $148 $40 #
coedge $-1 $93 $93 $149 $150 reversed $58 $-1 #
face $-1 $-1 $151 $32 $-1 $152 forward single #
loop $-1 $153 $154 $60 #
cone-surface $-1 62.495814246794211 35.660944234992421 10.652362529881547 0 -0.77714596973225614 -0.62932038083071107 1 0 0 1 I I -0.70710678118654746 0.70710678118654746 1 forward I I I I #
loop $-1 $-1 $155 $41 #
coedge $-1 $98 $98 $156 $157 reversed $61 $-1 #
face $-1 $158 $159 $33 $-1 $160 reversed single #
loop $-1 $-1 $161 $63 #
plane-surface $-1 -30.894167361959539 -47.853494330077339 11.59573310063486 0 -0.85716730853699208 0.51503806187062418 1 0 0 forward_v I I I I #
coedge $-1 $162 $163 $164 $165 reversed $64 $-1 #
face $-1 $-1 $166 $34 $-1 $167 forward single #
loop $-1 $168 $169 $66 #
cone-surface $-1 -33.865006904553624 -40.593703408266649 15.499550351609233 0 0.85716730853699208 -0.51503806187062418 0.5 0 0 1 I I -0.70710678118654746 0.70710678118654746 0.5 forward I I I I #
loop $-1 $-1 $170 $43 #
coedge $-1 $107 $107 $171 $172 reversed $67 $-1 #
face $-1 $-1 $173 $35 $-1 $174 forward single #
loop $-1 $175 $176 $69 #
cone-surface $-1 -27.92332781936544 -40.593703408266649 15.499550351609233 0 0.85716730853699208 -0.51503806187062418 0.5 0 0 1 I I -0.70710678118654746 0.70710678118654746 0.5 forward I I I I #
loop $-1 $-1 $177 $44 #
coedge $-1 $112 $112 $178 $179 reversed $70 $-1 #
face $-1 $180 $181 $27 $-1 $182 reversed single #
loop $-1 $-1 $183 $72 #
plane-surface $-1 0 -47.853494330077361 0 0 1 0 0 0 1 forward_v I I I I #
coedge $-1 $184 $185 $186 $187 forward $73 $-1 #
coedge $-1 $188 $75 $189 $190 forward $46 $-1 #
coedge $-1 $75 $188 $191 $192 forward $46 $-1 #
coedge $-1 $193 $194 $75 $120 reversed $195 $-1 #
edge $-1 $196 -47.853494330077361 $197 47.853494330077361 $119 $198 forward 7 unknown #
face $-1 $199 $200 $28 $-1 $201 reversed single #
loop $-1 $-1 $127 $76 #
plane-surface $-1 -83.673075345656471 0 6.4013902967419511 0 0 1 1 0 0 forward_v I I I I #
coedge $-1 $202 $203 $126 $204 forward $77 $-1 #
coedge $-1 $205 $79 $206 $207 reversed $49 $-1 #
coedge $-1 $79 $205 $124 $204 reversed $49 $-1 #
coedge $-1 $208 $209 $79 $128 reversed $122 $-1 #
edge $-1 $210 -47.853494330077361 $211 47.853494330077361 $127 $212 forward 7 unknown #
face $-1 $213 $214 $29 $-1 $215 reversed single #
loop $-1 $-1 $135 $80 #
plane-surface $-1 0 0 23.742296457500952 0 0 1 1 0 0 forward_v I I I I #
coedge $-1 $216 $217 $218 $219 reversed $81 $-1 #
coedge $-1 $134 $83 $220 $221 reversed $52 $-1 #
coedge $-1 $83 $133 $216 $222 reversed $52 $-1 #
coedge $-1 $218 $223 $83 $136 forward $130 $-1 #
edge $-1 $224 -0.8923237207719481 $225 14.240596010872771 $135 $226 forward 7 unknown #
loop $-1 $-1 $142 $84 #
plane-surface $-1 53.653397123989507 -12.376864221691719 79.432996920822603 0 0.77714596973225614 0.62932038083071107 1 0 0 forward_v I I I I #
loop $-1 $-1 $227 $54 #
coedge $-1 $140 $140 $141 $228 reversed $85 $-1 #
coedge $-1 $141 $141 $140 $228 forward $87 $-1 #
coedge $-1 $142 $142 $88 $143 forward $137 $-1 #
edge $-1 $229 -1.8756754210638071e-015 $229 6.2831853071795987 $142 $230 forward 7 unknown #
loop $-1 $-1 $149 $89 #
plane-surface $-1 53.653397123989507 -12.376864221691719 79.432996920822603 0 0.77714596973225614 0.62932038083071107 1 0 0 forward_v I I I I #
loop $-1 $-1 $231 $57 #
coedge $-1 $147 $147 $148 $232 reversed $90 $-1 #
coedge $-1 $148 $148 $147 $232 forward $92 $-1 #
coedge $-1 $149 $149 $93 $150 forward $144 $-1 #
edge $-1 $233 -1.8756754210638071e-015 $233 6.2831853071795987 $149 $234 forward 7 unknown #
loop $-1 $-1 $156 $94 #
plane-surface $-1 53.653397123989507 -12.376864221691719 79.432996920822603 0 0.77714596973225614 0.62932038083071107 1 0 0 forward_v I I I I #
loop $-1 $-1 $235 $60 #
coedge $-1 $154 $154 $155 $236 reversed $95 $-1 #
coedge $-1 $155 $155 $154 $236 forward $97 $-1 #
coedge $-1 $156 $156 $98 $157 forward $151 $-1 #
edge $-1 $237 -1.8756754210638071e-015 $237 6.2831853071795987 $156 $238 forward 7 unknown #
face $-1 $239 $240 $33 $-1 $241 reversed single #
loop $-1 $-1 $242 $99 #
plane-surface $-1 -37.826126294679085 -165.09813996373668 82.043421026266984 1 0 0 0 0.85716730853699208 -0.51503806187062418 forward_v I I I I #
coedge $-1 $243 $244 $245 $246 reversed $100 $-1 #
coedge $-1 $163 $102 $247 $248 reversed $64 $-1 #
coedge $-1 $102 $162 $243 $249 reversed $64 $-1 #
coedge $-1 $245 $250 $102 $165 forward $251 $-1 #
edge $-1 $252 34.695575651790982 $253 41.993966977968221 $164 $254 forward 7 unknown #
loop $-1 $-1 $171 $103 #
plane-surface $-1 -30.894167361959539 -47.853494330077339 11.59573310063486 0 -0.85716730853699208 0.51503806187062418 1 0 0 forward_v I I I I #
loop $-1 $-1 $255 $66 #
coedge $-1 $169 $169 $170 $256 reversed $104 $-1 #
coedge $-1 $170 $170 $169 $256 forward $106 $-1 #
coedge $-1 $171 $171 $107 $172 forward $166 $-1 #
edge $-1 $257 -1.2285910259226982e-015 $257 6.2831853071795996 $171 $258 forward 7 unknown #
loop $-1 $-1 $178 $108 #
plane-surface $-1 -30.894167361959539 -47.853494330077339 11.59573310063486 0 -0.85716730853699208 0.51503806187062418 1 0 0 forward_v I I I I #
loop $-1 $-1 $259 $69 #
coedge $-1 $176 $176 $177 $260 reversed $109 $-1 #
coedge $-1 $177 $177 $176 $260 forward $111 $-1 #
coedge $-1 $178 $178 $112 $179 forward $173 $-1 #
edge $-1 $261 -1.2285910259226982e-015 $261 6.2831853071795996 $178 $262 forward 7 unknown #
face $-1 $263 $264 $27 $-1 $265 reversed single #
loop $-1 $-1 $266 $113 #
plane-surface $-1 -68.390758995330671 0 0 1 0 0 0 0 -1 forward_v I I I I #
coedge $-1 $267 $191 $268 $269 forward $114 $-1 #
coedge $-1 $270 $116 $267 $271 forward $73 $-1 #
coedge $-1 $116 $270 $272 $273 forward $73 $-1 #
coedge $-1 $194 $193 $116 $187 reversed $195 $-1 #
edge $-1 $274 -47.853494330077361 $275 47.853494330077361 $186 $276 forward 7 unknown #
coedge $-1 $118 $117 $277 $278 forward $46 $-1 #
coedge $-1 $279 $280 $117 $190 reversed $264 $-1 #
edge $-1 $197 -68.390758995330671 $281 68.390758995330671 $189 $282 forward 7 unknown #
coedge $-1 $183 $283 $118 $192 reversed $114 $-1 #
edge $-1 $284 -68.390758995330671 $196 68.390758995330671 $191 $285 forward 7 unknown #
coedge $-1 $186 $119 $283 $286 forward $195 $-1 #
coedge $-1 $119 $186 $279 $287 reversed $195 $-1 #
loop $-1 $-1 $193 $263 #
vertex $-1 $120 $288 #
vertex $-1 $120 $289 #
straight-curve $-1 68.390758995330671 0 23.742296457500952 0 1 0 I I #
face $-1 $290 $291 $28 $-1 $292 reversed single #
loop $-1 $-1 $293 $121 #
plane-surface $-1 -83.673075345656471 0 -4.833794505367436 0 0 1 1 0 0 forward_v I I I I #
coedge $-1 $294 $124 $295 $296 reversed $77 $-1 #
coedge $-1 $124 $294 $208 $297 reversed $77 $-1 #
edge $-1 $210 -6.4013902967419511 $298 4.833794505367436 $124 $299 forward 7 unknown #
coedge $-1 $126 $125 $293 $300 forward $49 $-1 #
coedge $-1 $301 $302 $125 $207 forward $303 $-1 #
edge $-1 $304 -4.833794505367436 $211 6.4013902967419511 $206 $305 forward 7 unknown #
coedge $-1 $306 $127 $203 $297 forward $122 $-1 #
coedge $-1 $127 $306 $301 $307 forward $122 $-1 #
vertex $-1 $204 $308 #
vertex $-1 $307 $309 #
straight-curve $-1 -68.390758995330671 0 6.4013902967419511 0 -1 0 I I #
face $-1 $-1 $310 $29 $-1 $311 reversed single #
loop $-1 $-1 $312 $129 #
plane-surface $-1 68.390758995330671 0 0 -1 0 0 0 0 1 forward_v I I I I #
coedge $-1 $313 $132 $134 $222 forward $81 $-1 #
coedge $-1 $132 $313 $312 $314 reversed $81 $-1 #
coedge $-1 $315 $135 $132 $219 forward $130 $-1 #
edge $-1 $225 12.089336690653596 $316 41.564060433335904 $218 $317 forward 7 unknown #
coedge $-1 $318 $319 $133 $221 forward $310 $-1 #
edge $-1 $320 -77.701500548281516 $224 -59.013900499153223 $220 $321 forward 7 unknown #
edge $-1 $225 71.660540789407065 $320 95.706988660154664 $134 $322 forward 7 unknown #
coedge $-1 $135 $315 $318 $323 forward $130 $-1 #
vertex $-1 $221 $324 #
vertex $-1 $136 $325 #
straight-curve $-1 38.916035252648349 46.961170609305412 23.742296457500956 0 -1 0 I I #
coedge $-1 $227 $227 $-1 $326 reversed $139 $-1 #
edge $-1 $327 0 $327 6.2831853071796004 $140 $328 forward 7 unknown #
vertex $-1 $143 $329 #
ellipse-curve $-1 44.810980001184817 40.287034464255001 14.398496432936799 0 0.77714596973225614 0.62932038083071107 2 0 0 1 I I #
coedge $-1 $231 $231 $-1 $330 reversed $146 $-1 #
edge $-1 $331 0 $331 6.2831853071796004 $147 $332 forward 7 unknown #
vertex $-1 $150 $333 #
ellipse-curve $-1 53.653397123989507 40.287034464255001 14.398496432936799 0 0.77714596973225614 0.62932038083071107 2 0 0 1 I I #
coedge $-1 $235 $235 $-1 $334 reversed $153 $-1 #
edge $-1 $335 0 $335 6.2831853071796004 $154 $336 forward 7 unknown #
vertex $-1 $157 $337 #
ellipse-curve $-1 62.495814246794211 40.287034464255001 14.398496432936799 0 0.77714596973225614 0.62932038083071107 2 0 0 1 I I #
face $-1 $-1 $251 $33 $-1 $338 forward single #
loop $-1 $-1 $339 $158 #
plane-surface $-1 0 -47.853494330077361 0 0 1 0 0 0 1 forward_v I I I I #
coedge $-1 $340 $341 $342 $343 reversed $159 $-1 #
coedge $-1 $344 $161 $163 $249 forward $100 $-1 #
coedge $-1 $161 $344 $340 $345 forward $100 $-1 #
coedge $-1 $342 $164 $161 $246 forward $251 $-1 #
edge $-1 $253 8.5151247482602237 $346 22.379042613699315 $245 $347 forward 7 unknown #
coedge $-1 $348 $349 $162 $248 forward $240 $-1 #
edge $-1 $350 -29.425977412498668 $252 -17.27941405563254 $247 $351 forward 7 unknown #
edge $-1 $253 -14.170586343986653 $350 4.1431396825663817e-014 $163 $352 forward 7 unknown #
coedge $-1 $164 $342 $348 $353 forward $251 $-1 #
loop $-1 $-1 $342 $239 #
vertex $-1 $248 $354 #
vertex $-1 $165 $355 #
straight-curve $-1 -23.962208429239993 -82.549069981868342 23.742296457500952 0 1 0 I I #
coedge $-1 $255 $255 $-1 $356 reversed $168 $-1 #
edge $-1 $357 0 $357 6.2831853071796004 $169 $358 forward 7 unknown #
vertex $-1 $172 $359 #
ellipse-curve $-1 -33.865006904553624 -44.204298666988734 17.669014779067894 0 -0.85716730853699208 0.51503806187062418 1 0 0 1 I I #
coedge $-1 $259 $259 $-1 $360 reversed $175 $-1 #
edge $-1 $361 0 $361 6.2831853071796004 $176 $362 forward 7 unknown #
vertex $-1 $179 $363 #
ellipse-curve $-1 -27.92332781936544 -44.204298666988734 17.669014779067894 0 -0.85716730853699208 0.51503806187062418 1 0 0 1 I I #
face $-1 $-1 $195 $27 $-1 $364 reversed single #
loop $-1 $-1 $279 $180 #
plane-surface $-1 0 47.853494330077361 0 0 -1 0 0 0 -1 forward_v I I I I #
coedge $-1 $365 $277 $280 $366 forward $181 $-1 #
coedge $-1 $283 $183 $184 $271 reversed $114 $-1 #
coedge $-1 $277 $365 $183 $269 reversed $181 $-1 #
edge $-1 $284 -23.742296457500952 $367 23.742296457500952 $268 $368 forward 7 unknown #
coedge $-1 $185 $184 $365 $369 forward $73 $-1 #
edge $-1 $275 -68.390758995330671 $367 68.390758995330671 $267 $370 forward 7 unknown #
coedge $-1 $280 $279 $185 $273 reversed $264 $-1 #
edge $-1 $371 -68.390758995330671 $274 68.390758995330671 $272 $372 forward 7 unknown #
vertex $-1 $187 $373 #
vertex $-1 $286 $374 #
straight-curve $-1 68.390758995330671 0 -23.742296457500952 0 -1 0 I I #
coedge $-1 $266 $268 $188 $278 reversed $181 $-1 #
edge $-1 $281 -47.853494330077361 $284 47.853494330077361 $277 $375 forward 7 unknown #
coedge $-1 $272 $189 $194 $287 forward $264 $-1 #
coedge $-1 $189 $272 $266 $366 reversed $264 $-1 #
vertex $-1 $190 $376 #
straight-curve $-1 0 47.853494330077361 23.742296457500952 -1 0 0 I I #
coedge $-1 $191 $267 $193 $286 reversed $114 $-1 #
vertex $-1 $278 $377 #
straight-curve $-1 0 -47.853494330077361 23.742296457500952 1 0 0 I I #
edge $-1 $196 -23.742296457500952 $275 23.742296457500952 $193 $378 forward 7 unknown #
edge $-1 $197 -23.742296457500952 $274 23.742296457500952 $194 $379 forward 7 unknown #
point $-1 68.390758995330671 -47.853494330077361 23.742296457500952 #
point $-1 68.390758995330671 47.853494330077361 23.742296457500952 #
face $-1 $-1 $303 $28 $-1 $380 reversed single #
loop $-1 $-1 $381 $199 #
plane-surface $-1 -98.955391695982271 0 0.78379789568725755 1 0 0 0 0 -1 forward_v I I I I #
coedge $-1 $382 $295 $205 $300 reversed $200 $-1 #
coedge $-1 $203 $202 $381 $383 reversed $77 $-1 #
coedge $-1 $293 $384 $202 $296 forward $200 $-1 #
edge $-1 $385 -15.2823163503258 $298 15.2823163503258 $202 $386 forward 7 unknown #
edge $-1 $210 -15.2823163503258 $387 15.2823163503258 $203 $388 forward 7 unknown #
vertex $-1 $204 $389 #
straight-curve $-1 -68.390758995330671 47.853494330077361 0 0 0 -1 I I #
edge $-1 $304 -47.853494330077361 $298 47.853494330077361 $293 $390 forward 7 unknown #
coedge $-1 $391 $206 $209 $307 reversed $303 $-1 #
coedge $-1 $206 $391 $382 $392 reversed $303 $-1 #
loop $-1 $-1 $206 $290 #
vertex $-1 $207 $393 #
straight-curve $-1 -68.390758995330671 -47.853494330077361 0 0 0 1 I I #
coedge $-1 $209 $208 $394 $395 forward $122 $-1 #
edge $-1 $396 -15.2823163503258 $211 15.2823163503258 $301 $397 forward 7 unknown #
point $-1 -68.390758995330671 47.853494330077361 6.4013902967419511 #
point $-1 -68.390758995330671 -47.853494330077361 6.4013902967419511 #
loop $-1 $-1 $220 $213 #
plane-surface $-1 0 47.853494330077361 0 0 -1 0 0 0 -1 forward_v I I I I #
coedge $-1 $398 $399 $217 $314 forward $214 $-1 #
coedge $-1 $217 $216 $319 $400 reversed $81 $-1 #
edge $-1 $316 36.900517626278543 $401 60.946965497026142 $312 $402 forward 7 unknown #
coedge $-1 $223 $218 $399 $403 forward $130 $-1 #
vertex $-1 $403 $404 #
straight-curve $-1 26.826698561994753 32.720574598432648 23.742296457500956 1 0 0 I I #
coedge $-1 $405 $220 $223 $323 reversed $310 $-1 #
coedge $-1 $220 $405 $313 $400 forward $310 $-1 #
vertex $-1 $221 $406 #
straight-curve $-1 38.916035252648349 47.853494330077361 82.756196956654179 0 0 1 I I #
straight-curve $-1 38.916035252648349 -12.376864221691719 79.432996920822603 0 0.62932038083071107 -0.77714596973225614 I I #
edge $-1 $407 -68.390758995330671 $224 -38.916035252648349 $318 $408 forward 7 unknown #
point $-1 38.916035252648349 47.853494330077361 23.742296457500952 #
point $-1 38.916035252648349 32.720574598432641 23.742296457500956 #
edge $-1 $409 1 $409 0 $227 $-1 forward 7 unknown #
vertex $-1 $228 $410 #
ellipse-curve $-1 44.810980001184817 36.438090204724674 11.281682910712258 0 0.77714596973225614 0.62932038083071107 2 0 0 1 I I #
point $-1 46.810980001184817 40.28703446425498 14.398496432936787 #
edge $-1 $411 1 $411 0 $231 $-1 forward 7 unknown #
vertex $-1 $232 $412 #
ellipse-curve $-1 53.653397123989507 36.438090204724674 11.281682910712258 0 0.77714596973225614 0.62932038083071107 2 0 0 1 I I #
point $-1 55.653397123989507 40.28703446425498 14.398496432936787 #
edge $-1 $413 1 $413 0 $235 $-1 forward 7 unknown #
vertex $-1 $236 $414 #
ellipse-curve $-1 62.495814246794211 36.438090204724674 11.281682910712258 0 0.77714596973225614 0.62932038083071107 2 0 0 1 I I #
point $-1 64.495814246794211 40.28703446425498 14.398496432936787 #
plane-surface $-1 0 0 23.742296457500952 0 0 1 1 0 0 forward_v I I I I #
coedge $-1 $349 $348 $341 $415 forward $240 $-1 #
coedge $-1 $341 $242 $244 $345 reversed $159 $-1 #
coedge $-1 $242 $340 $339 $415 reversed $159 $-1 #
coedge $-1 $250 $245 $242 $343 forward $251 $-1 #
edge $-1 $346 -41.993966977968221 $416 -34.695575651790982 $342 $417 forward 7 unknown #
coedge $-1 $244 $243 $349 $418 reversed $100 $-1 #
edge $-1 $419 -4.1431396825663817e-014 $346 14.170586343986653 $340 $420 forward 7 unknown #
vertex $-1 $246 $421 #
straight-curve $-1 -15.44708368097977 -40.555103003900122 23.742296457500952 -1 0 0 I I #
coedge $-1 $339 $247 $250 $353 reversed $240 $-1 #
coedge $-1 $247 $339 $344 $418 forward $240 $-1 #
vertex $-1 $248 $422 #
straight-curve $-1 -23.962208429239993 -47.853494330077361 41.021710513133492 0 0 1 I I #
straight-curve $-1 -23.962208429239993 -47.853494330077339 11.59573310063486 0 -0.51503806187062418 -0.85716730853699208 I I #
edge $-1 $416 -37.826126294679085 $252 -23.962208429239993 $348 $423 forward 7 unknown #
point $-1 -23.962208429239993 -47.853494330077361 23.742296457500952 #
point $-1 -23.962208429239993 -40.555103003900122 23.742296457500952 #
edge $-1 $424 1 $424 0 $255 $-1 forward 7 unknown #
vertex $-1 $256 $425 #
ellipse-curve $-1 -33.865006904553624 -41.022287062535142 15.757069382544545 0 -0.85716730853699208 0.51503806187062418 1 0 0 1 I I #
point $-1 -32.865006904553624 -44.204298666988748 17.669014779067901 #
edge $-1 $426 1 $426 0 $259 $-1 forward 7 unknown #
vertex $-1 $260 $427 #
ellipse-curve $-1 -27.92332781936544 -41.022287062535142 15.757069382544545 0 -0.85716730853699208 0.51503806187062418 1 0 0 1 I I #
point $-1 -26.92332781936544 -44.204298666988748 17.669014779067901 #
plane-surface $-1 68.390758995330671 0 0 -1 0 0 0 0 1 forward_v I I I I #
coedge $-1 $268 $266 $270 $369 reversed $181 $-1 #
edge $-1 $281 -23.742296457500952 $371 23.742296457500952 $280 $428 forward 7 unknown #
vertex $-1 $369 $429 #
straight-curve $-1 -68.390758995330671 -47.853494330077361 0 0 0 -1 I I #
edge $-1 $367 -47.853494330077361 $371 47.853494330077361 $365 $430 forward 7 unknown #
straight-curve $-1 0 -47.853494330077361 -23.742296457500952 -1 0 0 I I #
vertex $-1 $273 $431 #
straight-curve $-1 0 47.853494330077361 -23.742296457500952 1 0 0 I I #
point $-1 68.390758995330671 47.853494330077361 -23.742296457500952 #
point $-1 68.390758995330671 -47.853494330077361 -23.742296457500952 #
straight-curve $-1 -68.390758995330671 0 23.742296457500952 0 -1 0 I I #
point $-1 -68.390758995330671 47.853494330077361 23.742296457500952 #
point $-1 -68.390758995330671 -47.853494330077361 23.742296457500952 #
straight-curve $-1 68.390758995330671 -47.853494330077361 0 0 0 -1 I I #
straight-curve $-1 68.390758995330671 47.853494330077361 0 0 0 -1 I I #
plane-surface $-1 0 -47.853494330077361 0 0 1 0 0 0 1 forward_v I I I I #
coedge $-1 $432 $394 $294 $383 forward $291 $-1 #
coedge $-1 $384 $293 $302 $392 forward $200 $-1 #
edge $-1 $387 -5.6175924010546936 $385 5.6175924010546936 $294 $433 forward 7 unknown #
coedge $-1 $295 $382 $432 $434 forward $200 $-1 #
vertex $-1 $296 $435 #
straight-curve $-1 -83.673075345656471 47.853494330077361 -4.833794505367436 1 0 0 I I #
vertex $-1 $297 $436 #
straight-curve $-1 -83.673075345656471 47.853494330077361 6.4013902967419511 -1 0 0 I I #
point $-1 -68.390758995330671 47.853494330077361 -4.833794505367436 #
straight-curve $-1 -68.390758995330671 0 -4.833794505367436 0 1 0 I I #
coedge $-1 $302 $301 $437 $438 forward $303 $-1 #
edge $-1 $304 -15.2823163503258 $439 15.2823163503258 $302 $440 forward 7 unknown #
point $-1 -68.390758995330671 -47.853494330077361 -4.833794505367436 #
coedge $-1 $381 $437 $306 $395 reversed $291 $-1 #
edge $-1 $387 -47.853494330077361 $396 47.853494330077361 $394 $441 forward 7 unknown #
vertex $-1 $395 $442 #
straight-curve $-1 -83.673075345656471 -47.853494330077361 6.4013902967419511 1 0 0 I I #
coedge $-1 $399 $312 $405 $443 reversed $214 $-1 #
coedge $-1 $312 $398 $315 $403 reversed $214 $-1 #
edge $-1 $401 -41.564060433335904 $320 -12.089336690653596 $319 $444 forward 7 unknown #
vertex $-1 $314 $445 #
straight-curve $-1 68.390758995330671 9.4983267930126587 52.419385011797409 0 0.62932038083071107 -0.77714596973225614 I I #
edge $-1 $316 32.720574598432641 $407 47.853494330077361 $399 $446 forward 7 unknown #
point $-1 68.390758995330657 32.720574598432641 23.742296457500956 #
coedge $-1 $319 $318 $398 $443 forward $310 $-1 #
point $-1 38.916035252648349 47.853494330077361 5.0546964083726635 #
vertex $-1 $403 $447 #
straight-curve $-1 0 47.853494330077361 23.742296457500952 -1 0 0 I I #
vertex $-1 $326 $448 #
point $-1 46.810980001184817 36.438090204724674 11.281682910712258 #
vertex $-1 $330 $449 #
point $-1 55.653397123989507 36.438090204724674 11.281682910712258 #
vertex $-1 $334 $450 #
point $-1 64.495814246794211 36.438090204724674 11.281682910712258 #
edge $-1 $416 17.27941405563254 $419 29.425977412498668 $339 $451 forward 7 unknown #
vertex $-1 $353 $452 #
straight-curve $-1 -37.826126294679085 -82.549069981868342 23.742296457500952 0 -1 0 I I #
edge $-1 $419 -22.379042613699315 $350 -8.5151247482602237 $349 $453 forward 7 unknown #
vertex $-1 $418 $454 #
straight-curve $-1 -37.826126294679085 -47.853494330077339 11.59573310063486 0 0.51503806187062418 0.85716730853699208 I I #
point $-1 -37.826126294679085 -40.555103003900122 23.742296457500952 #
point $-1 -23.962208429239993 -47.853494330077361 11.595733100634824 #
straight-curve $-1 0 -47.853494330077361 23.742296457500952 1 0 0 I I #
vertex $-1 $356 $455 #
point $-1 -32.865006904553624 -41.022287062535142 15.757069382544545 #
vertex $-1 $360 $456 #
point $-1 -26.92332781936544 -41.022287062535142 15.757069382544545 #
straight-curve $-1 -68.390758995330671 47.853494330077361 0 0 0 -1 I I #
point $-1 -68.390758995330671 -47.853494330077361 -23.742296457500952 #
straight-curve $-1 -68.390758995330671 0 -23.742296457500952 0 1 0 I I #
point $-1 -68.390758995330671 47.853494330077361 -23.742296457500952 #
coedge $-1 $437 $381 $384 $434 reversed $291 $-1 #
straight-curve $-1 -98.955391695982271 47.853494330077361 0.78379789568725755 0 0 -1 I I #
edge $-1 $439 -47.853494330077361 $385 47.853494330077361 $432 $457 forward 7 unknown #
point $-1 -98.955391695982271 47.853494330077361 -4.833794505367436 #
point $-1 -98.955391695982271 47.853494330077361 6.4013902967419511 #
coedge $-1 $394 $432 $391 $438 reversed $291 $-1 #
edge $-1 $396 -5.6175924010546936 $439 5.6175924010546936 $437 $458 forward 7 unknown #
vertex $-1 $434 $459 #
straight-curve $-1 -83.673075345656471 -47.853494330077361 -4.833794505367436 -1 0 0 I I #
straight-curve $-1 -98.955391695982271 0 6.4013902967419511 0 -1 0 I I #
point $-1 -98.955391695982271 -47.853494330077361 6.4013902967419511 #
edge $-1 $407 -23.742296457500952 $401 -5.0546964083726635 $398 $460 forward 7 unknown #
straight-curve $-1 26.826698561994753 47.853494330077368 5.0546964083726635 -1 0 0 I I #
point $-1 68.390758995330657 47.853494330077361 5.0546964083726635 #
straight-curve $-1 68.390758995330671 0 23.742296457500952 0 1 0 I I #
point $-1 68.390758995330671 47.853494330077361 23.742296457500952 #
point $-1 44.810980001184817 34.883798265260168 10.023042149050836 #
point $-1 53.653397123989507 34.883798265260168 10.023042149050836 #
point $-1 62.495814246794211 34.883798265260168 10.023042149050836 #
straight-curve $-1 -37.826126294679085 -47.853494330077361 41.021710513133492 0 0 -1 I I #
point $-1 -37.826126294679085 -47.853494330077361 23.742296457500952 #
straight-curve $-1 -15.44708368097977 -47.853494330077361 11.595733100634828 1 0 0 I I #
point $-1 -37.826126294679085 -47.853494330077361 11.595733100634824 #
point $-1 -33.865006904553624 -40.165119753998155 15.242031320673922 #
point $-1 -27.92332781936544 -40.165119753998155 15.242031320673922 #
straight-curve $-1 -98.955391695982271 0 -4.833794505367436 0 1 0 I I #
straight-curve $-1 -98.955391695982271 -47.853494330077361 0.78379789568725755 0 0 -1 I I #
point $-1 -98.955391695982271 -47.853494330077361 -4.833794505367436 #
straight-curve $-1 68.390758995330671 47.853494330077361 0 0 0 -1 I I #
End-of-ACIS-data 