500 0 6 0           
7 Unknown 11 ACIS 5.0 NT 24 Fri Mar 26 19:02:18 1999 
-1 9.9999999999999995e-007 1e-010 
body $-1 $6 $-1 $7 #
body $-1 $8 $-1 $9 #
body $-1 $10 $-1 $11 #
body $-1 $12 $-1 $13 #
body $-1 $14 $-1 $15 #
body $-1 $16 $-1 $17 #
lump $-1 $-1 $18 $0 #
transform $-1 1 0 0 0 1 0 0 0 1 64.854274117252118 37.519762178523813 15.977759864701852 1 rotate no_reflect no_shear #
lump $-1 $-1 $19 $1 #
transform $-1 1 0 0 0 1 0 0 0 1 64.854274117252118 37.519762178523813 15.977759864701852 1 rotate no_reflect no_shear #
lump $-1 $-1 $20 $2 #
transform $-1 1 0 0 0 1 0 0 0 1 64.854274117252118 37.519762178523813 15.977759864701852 1 rotate no_reflect no_shear #
lump $-1 $-1 $21 $3 #
transform $-1 1 0 0 0 1 0 0 0 1 64.854274117252118 37.519762178523813 15.977759864701852 1 rotate no_reflect no_shear #
lump $-1 $-1 $22 $4 #
transform $-1 1 0 0 0 1 0 0 0 1 64.854274117252118 37.519762178523813 15.977759864701852 1 rotate no_reflect no_shear #
lump $-1 $-1 $23 $5 #
transform $-1 1 0 0 0 1 0 0 0 1 64.854274117252118 37.519762178523813 15.977759864701852 1 rotate no_reflect no_shear #
shell $-1 $-1 $-1 $24 $-1 $6 #
shell $-1 $-1 $-1 $25 $-1 $8 #
shell $-1 $-1 $-1 $26 $-1 $10 #
shell $-1 $-1 $-1 $27 $-1 $12 #
shell $-1 $-1 $-1 $28 $-1 $14 #
shell $-1 $-1 $-1 $29 $-1 $16 #
face $-1 $30 $31 $18 $-1 $32 forward single #
face $-1 $33 $34 $19 $-1 $35 forward single #
face $-1 $36 $37 $20 $-1 $38 reversed single #
face $-1 $39 $40 $21 $-1 $41 forward single #
face $-1 $42 $43 $22 $-1 $44 reversed single #
face $-1 $45 $46 $23 $-1 $47 forward single #
face $-1 $48 $49 $18 $-1 $50 reversed single #
loop $-1 $-1 $51 $24 #
plane-surface $-1 0 0 15.977759864701852 0 0 1 1 0 0 forward_v I I I I #
face $-1 $52 $53 $19 $-1 $54 reversed single #
loop $-1 $-1 $55 $25 #
plane-surface $-1 0 -37.519762178523813 0 0 1 0 0 0 1 forward_v I I I I #
face $-1 $56 $57 $20 $-1 $58 reversed single #
loop $-1 $-1 $59 $26 #
plane-surface $-1 -13.762359209555015 81.205758247144161 144.86510063975058 1 0 0 0 -0.73135370988377701 -0.68199835119979291 forward_v I I I I #
face $-1 $60 $61 $21 $-1 $62 forward single #
loop $-1 $63 $64 $27 #
cone-surface $-1 -6.8811796047775076 28.648568850171667 6.7627173475325737 0 -0.73135370988377701 -0.68199835119979291 3 0 0 1 I I 0 1 3 forward I I I I #
face $-1 $65 $66 $22 $-1 $67 reversed single #
loop $-1 $-1 $68 $28 #
plane-surface $-1 -6.8811796047775076 -13.657069707799351 56.404084607299879 0 0.73135370988377701 0.68199835119979291 1 0 0 forward_v I I I I #
face $-1 $69 $70 $23 $-1 $71 forward single #
loop $-1 $72 $73 $29 #
cone-surface $-1 6.8811796047775147 28.648568850171667 6.7627173475325737 0 -0.73135370988377701 -0.68199835119979291 3 0 0 1 I I 0 1 3 forward I I I I #
face $-1 $74 $75 $18 $-1 $76 reversed single #
loop $-1 $-1 $77 $30 #
plane-surface $-1 0 0 -15.977759864701852 0 0 1 1 0 0 forward_v I I I I #
coedge $-1 $78 $79 $80 $81 forward $31 $-1 #
face $-1 $82 $83 $19 $-1 $84 reversed single #
loop $-1 $-1 $85 $33 #
plane-surface $-1 0 0 -15.977759864701852 0 0 1 1 0 0 forward_v I I I I #
coedge $-1 $86 $87 $88 $89 forward $34 $-1 #
face $-1 $90 $91 $20 $-1 $92 reversed single #
loop $-1 $-1 $93 $36 #
plane-surface $-1 -6.8811796047775076 -13.657069707799351 56.404084607299879 0 0.73135370988377701 0.68199835119979291 1 0 0 forward_v I I I I #
coedge $-1 $94 $95 $96 $97 reversed $37 $-1 #
face $-1 $-1 $98 $21 $-1 $99 forward single #
loop $-1 $100 $101 $39 #
cone-surface $-1 -6.8811796047775076 25.419682508319141 3.7517321954850118 0 -0.73135370988377701 -0.68199835119979291 1.5 0 0 1 I I -0.70710678118654757 0.70710678118654757 1.5 forward I I I I #
loop $-1 $-1 $102 $27 #
coedge $-1 $64 $64 $103 $104 reversed $40 $-1 #
face $-1 $105 $106 $22 $-1 $107 forward single #
loop $-1 $-1 $108 $42 #
plane-surface $-1 13.762359209555022 81.205758247144161 144.86510063975058 -1 0 0 0 0.73135370988377701 0.68199835119979291 forward_v I I I I #
coedge $-1 $109 $110 $111 $112 reversed $43 $-1 #
face $-1 $-1 $113 $23 $-1 $114 forward single #
loop $-1 $115 $116 $45 #
cone-surface $-1 6.8811796047775147 25.419682508319141 3.7517321954850118 0 -0.73135370988377701 -0.68199835119979291 1.5 0 0 1 I I -0.70710678118654757 0.70710678118654757 1.5 forward I I I I #
loop $-1 $-1 $117 $29 #
coedge $-1 $73 $73 $118 $119 reversed $46 $-1 #
face $-1 $120 $121 $18 $-1 $122 reversed single #
loop $-1 $-1 $123 $48 #
plane-surface $-1 0 -37.519762178523813 0 0 1 0 0 0 1 forward_v I I I I #
coedge $-1 $124 $125 $126 $127 forward $49 $-1 #
coedge $-1 $128 $51 $129 $130 forward $31 $-1 #
coedge $-1 $51 $128 $131 $132 forward $31 $-1 #
coedge $-1 $133 $134 $51 $81 reversed $135 $-1 #
edge $-1 $136 -37.519762178523813 $137 37.519762178523813 $80 $138 forward 7 unknown #
face $-1 $139 $140 $19 $-1 $141 forward single #
loop $-1 $-1 $142 $52 #
plane-surface $-1 64.854274117252118 0 0 -1 0 0 0 0 1 forward_v I I I I #
coedge $-1 $143 $144 $145 $146 forward $53 $-1 #
coedge $-1 $145 $55 $142 $147 reversed $34 $-1 #
coedge $-1 $55 $145 $148 $149 reversed $34 $-1 #
coedge $-1 $150 $151 $55 $89 reversed $140 $-1 #
edge $-1 $152 -64.854274117252118 $153 64.854274117252118 $88 $154 forward 7 unknown #
face $-1 $155 $156 $20 $-1 $157 forward single #
loop $-1 $-1 $158 $56 #
plane-surface $-1 0 81.205758247144161 144.86510063975058 -1 0 0 0 0.73135370988377701 0.68199835119979291 forward_v I I I I #
coedge $-1 $159 $160 $161 $162 reversed $57 $-1 #
coedge $-1 $95 $59 $163 $164 reversed $37 $-1 #
coedge $-1 $59 $94 $159 $165 reversed $37 $-1 #
coedge $-1 $161 $166 $59 $97 forward $156 $-1 #
edge $-1 $167 3.0831169450482676 $168 16.561792047698816 $96 $169 forward 7 unknown #
loop $-1 $-1 $103 $60 #
plane-surface $-1 -6.8811796047775076 -13.657069707799351 56.404084607299879 0 0.73135370988377701 0.68199835119979291 1 0 0 forward_v I I I I #
loop $-1 $-1 $170 $39 #
coedge $-1 $101 $101 $102 $171 reversed $61 $-1 #
coedge $-1 $102 $102 $101 $171 forward $63 $-1 #
coedge $-1 $103 $103 $64 $104 forward $98 $-1 #
edge $-1 $172 -1.0069027347083011e-015 $172 6.2831853071795996 $103 $173 forward 7 unknown #
face $-1 $174 $175 $22 $-1 $176 forward single #
loop $-1 $-1 $177 $65 #
plane-surface $-1 0 0 15.977759864701852 0 0 1 1 0 0 forward_v I I I I #
coedge $-1 $178 $179 $180 $181 reversed $66 $-1 #
coedge $-1 $182 $68 $183 $184 reversed $43 $-1 #
coedge $-1 $68 $182 $177 $185 reversed $43 $-1 #
coedge $-1 $186 $187 $68 $112 forward $175 $-1 #
edge $-1 $188 -75.039524357047597 $189 -55.276023347201402 $111 $190 forward 7 unknown #
loop $-1 $-1 $118 $69 #
plane-surface $-1 -6.8811796047775076 -13.657069707799351 56.404084607299879 0 0.73135370988377701 0.68199835119979291 1 0 0 forward_v I I I I #
loop $-1 $-1 $191 $45 #
coedge $-1 $116 $116 $117 $192 reversed $70 $-1 #
coedge $-1 $117 $117 $116 $192 forward $72 $-1 #
coedge $-1 $118 $118 $73 $119 forward $113 $-1 #
edge $-1 $193 -1.0069027347083011e-015 $193 6.2831853071795996 $118 $194 forward 7 unknown #
face $-1 $195 $196 $18 $-1 $197 reversed single #
loop $-1 $-1 $198 $74 #
plane-surface $-1 -64.854274117252118 0 0 1 0 0 0 0 -1 forward_v I I I I #
coedge $-1 $131 $199 $133 $200 reversed $75 $-1 #
coedge $-1 $201 $77 $199 $202 forward $49 $-1 #
coedge $-1 $77 $201 $203 $204 forward $49 $-1 #
coedge $-1 $134 $133 $77 $127 reversed $135 $-1 #
edge $-1 $205 -37.519762178523813 $206 37.519762178523813 $126 $207 forward 7 unknown #
coedge $-1 $79 $78 $208 $209 forward $31 $-1 #
coedge $-1 $210 $211 $78 $130 reversed $196 $-1 #
edge $-1 $137 -64.854274117252118 $212 64.854274117252118 $129 $213 forward 7 unknown #
coedge $-1 $214 $123 $79 $132 reversed $75 $-1 #
edge $-1 $215 -64.854274117252118 $136 64.854274117252118 $131 $216 forward 7 unknown #
coedge $-1 $126 $80 $123 $200 forward $135 $-1 #
coedge $-1 $80 $126 $210 $217 reversed $135 $-1 #
loop $-1 $-1 $133 $195 #
vertex $-1 $81 $218 #
vertex $-1 $81 $219 #
straight-curve $-1 64.854274117252118 0 15.977759864701852 0 1 0 I I #
face $-1 $220 $221 $19 $-1 $222 reversed single #
loop $-1 $-1 $151 $82 #
plane-surface $-1 0 -47.208861640237934 -11.494507820021479 0 0 1 1 0 0 forward_v I I I I #
coedge $-1 $223 $224 $86 $147 forward $83 $-1 #
coedge $-1 $225 $85 $224 $226 forward $53 $-1 #
coedge $-1 $85 $225 $227 $228 forward $53 $-1 #
coedge $-1 $87 $86 $85 $146 reversed $34 $-1 #
edge $-1 $229 -64.854274117252118 $230 64.854274117252118 $85 $231 forward 7 unknown #
edge $-1 $230 -15.977759864701852 $153 -11.494507820021479 $142 $232 forward 7 unknown #
coedge $-1 $227 $233 $87 $149 forward $234 $-1 #
edge $-1 $152 11.494507820021479 $229 15.977759864701852 $148 $235 forward 7 unknown #
coedge $-1 $236 $88 $233 $237 forward $140 $-1 #
coedge $-1 $88 $236 $223 $238 forward $140 $-1 #
vertex $-1 $149 $239 #
vertex $-1 $238 $240 #
straight-curve $-1 0 -37.519762178523813 -11.494507820021479 1 0 0 I I #
face $-1 $-1 $241 $20 $-1 $242 reversed single #
loop $-1 $-1 $96 $90 #
plane-surface $-1 0 0 15.977759864701852 0 0 1 1 0 0 forward_v I I I I #
coedge $-1 $243 $244 $245 $246 reversed $91 $-1 #
coedge $-1 $247 $93 $95 $165 forward $57 $-1 #
coedge $-1 $93 $247 $243 $248 forward $57 $-1 #
coedge $-1 $245 $96 $93 $162 forward $156 $-1 #
edge $-1 $168 -10.321769407166261 $249 3.4405898023887538 $161 $250 forward 7 unknown #
coedge $-1 $251 $252 $94 $164 forward $241 $-1 #
edge $-1 $253 -70.908900239016219 $167 -56.454790455173438 $163 $254 forward 7 unknown #
edge $-1 $168 55.276023347201402 $253 75.039524357047597 $95 $255 forward 7 unknown #
coedge $-1 $96 $245 $251 $256 forward $156 $-1 #
vertex $-1 $164 $257 #
vertex $-1 $97 $258 #
straight-curve $-1 -13.762359209555015 40.60287912357208 15.977759864701852 0 -1 0 I I #
coedge $-1 $170 $170 $-1 $259 reversed $100 $-1 #
edge $-1 $260 0 $260 6.2831853071796004 $101 $261 forward 7 unknown #
vertex $-1 $104 $262 #
ellipse-curve $-1 -6.8811796047775076 30.780424627198542 8.7507049727804596 0 0.73135370988377701 0.68199835119979291 3 0 0 1 I I #
face $-1 $-1 $263 $22 $-1 $264 reversed single #
loop $-1 $-1 $186 $105 #
plane-surface $-1 0 81.205758247144161 144.86510063975058 -1 0 0 0 0.73135370988377701 0.68199835119979291 forward_v I I I I #
coedge $-1 $180 $265 $110 $185 forward $106 $-1 #
coedge $-1 $179 $108 $182 $266 reversed $66 $-1 #
coedge $-1 $108 $178 $267 $268 reversed $66 $-1 #
coedge $-1 $269 $177 $108 $181 forward $106 $-1 #
edge $-1 $270 -16.561792047698816 $271 -3.0831169450482676 $180 $272 forward 7 unknown #
coedge $-1 $110 $109 $178 $266 forward $43 $-1 #
coedge $-1 $273 $267 $109 $184 forward $263 $-1 #
edge $-1 $274 -17.202949011943776 $188 -3.4405898023887538 $183 $275 forward 7 unknown #
edge $-1 $189 3.4405898023887538 $270 17.202949011943776 $177 $276 forward 7 unknown #
coedge $-1 $187 $111 $265 $277 reversed $175 $-1 #
coedge $-1 $111 $186 $273 $278 reversed $175 $-1 #
vertex $-1 $184 $279 #
vertex $-1 $185 $280 #
straight-curve $-1 0 -13.657069707799351 56.404084607299879 0 -0.68199835119979291 0.73135370988377701 I I #
coedge $-1 $191 $191 $-1 $281 reversed $115 $-1 #
edge $-1 $282 0 $282 6.2831853071796004 $116 $283 forward 7 unknown #
vertex $-1 $119 $284 #
ellipse-curve $-1 6.8811796047775147 30.780424627198542 8.7507049727804596 0 0.73135370988377701 0.68199835119979291 3 0 0 1 I I #
face $-1 $-1 $135 $18 $-1 $285 reversed single #
loop $-1 $-1 $210 $120 #
plane-surface $-1 0 37.519762178523813 0 0 -1 0 0 0 -1 forward_v I I I I #
coedge $-1 $286 $208 $211 $287 forward $121 $-1 #
coedge $-1 $123 $214 $124 $202 reversed $75 $-1 #
edge $-1 $136 -15.977759864701852 $206 15.977759864701852 $133 $288 forward 7 unknown #
coedge $-1 $125 $124 $286 $289 forward $49 $-1 #
edge $-1 $206 -64.854274117252118 $290 64.854274117252118 $199 $291 forward 7 unknown #
coedge $-1 $211 $210 $125 $204 reversed $196 $-1 #
edge $-1 $292 -64.854274117252118 $205 64.854274117252118 $203 $293 forward 7 unknown #
vertex $-1 $127 $294 #
vertex $-1 $200 $295 #
straight-curve $-1 64.854274117252118 0 -15.977759864701852 0 -1 0 I I #
coedge $-1 $198 $296 $128 $209 reversed $121 $-1 #
edge $-1 $212 -37.519762178523813 $215 37.519762178523813 $208 $297 forward 7 unknown #
coedge $-1 $203 $129 $134 $217 forward $196 $-1 #
coedge $-1 $129 $203 $198 $287 reversed $196 $-1 #
vertex $-1 $130 $298 #
straight-curve $-1 0 37.519762178523813 15.977759864701852 -1 0 0 I I #
coedge $-1 $199 $131 $296 $299 forward $75 $-1 #
vertex $-1 $209 $300 #
straight-curve $-1 0 -37.519762178523813 15.977759864701852 1 0 0 I I #
edge $-1 $137 -15.977759864701852 $205 15.977759864701852 $134 $301 forward 7 unknown #
point $-1 64.854274117252118 -37.519762178523813 15.977759864701852 #
point $-1 64.854274117252118 37.519762178523813 15.977759864701852 #
face $-1 $-1 $234 $19 $-1 $302 reversed single #
loop $-1 $-1 $303 $139 #
plane-surface $-1 0 -56.897961101952056 -13.736133842361665 0 1 0 0 0 1 forward_v I I I I #
coedge $-1 $304 $142 $151 $238 reversed $83 $-1 #
coedge $-1 $142 $304 $143 $226 reversed $83 $-1 #
coedge $-1 $144 $143 $305 $306 forward $53 $-1 #
edge $-1 $230 37.519762178523813 $307 56.897961101952056 $224 $308 forward 7 unknown #
coedge $-1 $309 $148 $144 $228 reversed $234 $-1 #
edge $-1 $310 -56.897961101952056 $229 -37.519762178523813 $227 $311 forward 7 unknown #
vertex $-1 $149 $312 #
vertex $-1 $226 $313 #
straight-curve $-1 0 -37.519762178523813 -15.977759864701852 1 0 0 I I #
straight-curve $-1 64.854274117252118 -37.519762178523813 0 0 0 1 I I #
coedge $-1 $148 $309 $150 $237 reversed $234 $-1 #
loop $-1 $-1 $148 $220 #
straight-curve $-1 -64.854274117252118 -37.519762178523813 0 0 0 -1 I I #
coedge $-1 $151 $150 $314 $315 forward $140 $-1 #
edge $-1 $152 -9.6890994617141217 $316 9.6890994617141217 $233 $317 forward 7 unknown #
edge $-1 $318 -9.6890994617141217 $153 9.6890994617141217 $223 $319 forward 7 unknown #
point $-1 -64.854274117252118 -37.519762178523813 -11.494507820021479 #
point $-1 64.854274117252118 -37.519762178523813 -11.494507820021479 #
loop $-1 $-1 $163 $155 #
plane-surface $-1 0 37.519762178523813 0 0 -1 0 0 0 -1 forward_v I I I I #
coedge $-1 $244 $158 $160 $248 reversed $91 $-1 #
coedge $-1 $158 $243 $320 $321 reversed $91 $-1 #
coedge $-1 $166 $161 $158 $246 forward $156 $-1 #
edge $-1 $249 -16.561792047698816 $322 -3.0831169450482676 $245 $323 forward 7 unknown #
coedge $-1 $160 $159 $252 $324 reversed $57 $-1 #
edge $-1 $325 -75.039524357047597 $249 -55.276023347201402 $243 $326 forward 7 unknown #
vertex $-1 $162 $327 #
straight-curve $-1 -3.4405898023887538 24.041087075873271 15.977759864701849 1 0 0 I I #
coedge $-1 $320 $163 $166 $256 reversed $241 $-1 #
coedge $-1 $163 $320 $247 $324 forward $241 $-1 #
vertex $-1 $164 $328 #
straight-curve $-1 -13.762359209555015 37.519762178523813 72.43255031987529 0 0 1 I I #
straight-curve $-1 -13.762359209555015 -13.657069707799351 56.404084607299879 0 0.68199835119979291 -0.73135370988377701 I I #
edge $-1 $322 0 $167 13.762359209555015 $251 $329 forward 7 unknown #
point $-1 -13.762359209555015 37.519762178523813 15.977759864701852 #
point $-1 -13.762359209555015 24.041087075873264 15.977759864701852 #
edge $-1 $330 1 $330 0 $170 $-1 forward 7 unknown #
vertex $-1 $171 $331 #
ellipse-curve $-1 -6.8811796047775076 26.516713073144807 4.7747297222847012 0 0.73135370988377701 0.68199835119979291 3 0 0 1 I I #
point $-1 -3.8811796047775076 30.780424627198524 8.7507049727804471 #
loop $-1 $-1 $183 $174 #
plane-surface $-1 0 37.519762178523813 0 0 -1 0 0 0 -1 forward_v I I I I #
coedge $-1 $177 $269 $186 $277 forward $106 $-1 #
edge $-1 $274 -75.039524357047597 $270 -55.276023347201402 $178 $332 forward 7 unknown #
coedge $-1 $183 $333 $179 $268 forward $263 $-1 #
edge $-1 $271 56.454790455173438 $274 70.908900239016219 $267 $334 forward 7 unknown #
coedge $-1 $265 $180 $333 $335 forward $106 $-1 #
vertex $-1 $181 $336 #
vertex $-1 $335 $337 #
straight-curve $-1 13.762359209555022 40.60287912357208 15.977759864701852 0 1 0 I I #
coedge $-1 $333 $183 $187 $278 forward $263 $-1 #
vertex $-1 $268 $338 #
straight-curve $-1 -3.4405898023887538 37.519762178523813 1.5236500808590741 -1 0 0 I I #
straight-curve $-1 -3.4405898023887538 24.041087075873271 15.977759864701849 1 0 0 I I #
edge $-1 $339 3.0831169450482676 $189 16.561792047698816 $265 $340 forward 7 unknown #
edge $-1 $188 -70.908900239016219 $339 -56.454790455173438 $273 $341 forward 7 unknown #
point $-1 0 37.519762178523813 1.5236500808590705 #
point $-1 0 24.041087075873264 15.977759864701852 #
edge $-1 $342 1 $342 0 $191 $-1 forward 7 unknown #
vertex $-1 $192 $343 #
ellipse-curve $-1 6.8811796047775147 26.516713073144807 4.7747297222847012 0 0.73135370988377701 0.68199835119979291 3 0 0 1 I I #
point $-1 9.8811796047775147 30.780424627198524 8.7507049727804471 #
plane-surface $-1 64.854274117252118 0 0 -1 0 0 0 0 1 forward_v I I I I #
coedge $-1 $296 $198 $201 $289 reversed $121 $-1 #
edge $-1 $212 -15.977759864701852 $292 15.977759864701852 $211 $344 forward 7 unknown #
straight-curve $-1 64.854274117252118 -37.519762178523813 0 0 0 -1 I I #
edge $-1 $290 -37.519762178523813 $292 37.519762178523813 $286 $345 forward 7 unknown #
vertex $-1 $289 $346 #
straight-curve $-1 0 -37.519762178523813 -15.977759864701852 -1 0 0 I I #
vertex $-1 $204 $347 #
straight-curve $-1 0 37.519762178523813 -15.977759864701852 1 0 0 I I #
point $-1 64.854274117252118 37.519762178523813 -15.977759864701852 #
point $-1 64.854274117252118 -37.519762178523813 -15.977759864701852 #
coedge $-1 $208 $286 $214 $299 reversed $121 $-1 #
straight-curve $-1 -64.854274117252118 0 15.977759864701852 0 -1 0 I I #
point $-1 -64.854274117252118 37.519762178523813 15.977759864701852 #
edge $-1 $215 -15.977759864701852 $290 15.977759864701852 $296 $348 forward 7 unknown #
point $-1 -64.854274117252118 -37.519762178523813 15.977759864701852 #
straight-curve $-1 64.854274117252118 37.519762178523813 0 0 0 -1 I I #
plane-surface $-1 -64.854274117252118 0 0 1 0 0 0 0 -1 forward_v I I I I #
coedge $-1 $305 $314 $309 $349 forward $221 $-1 #
coedge $-1 $224 $223 $350 $351 forward $83 $-1 #
coedge $-1 $350 $303 $225 $306 reversed $221 $-1 #
edge $-1 $307 -64.854274117252118 $310 64.854274117252118 $305 $352 forward 7 unknown #
vertex $-1 $351 $353 #
straight-curve $-1 64.854274117252118 0 -15.977759864701852 0 -1 0 I I #
coedge $-1 $233 $227 $303 $349 reversed $234 $-1 #
vertex $-1 $228 $354 #
straight-curve $-1 -64.854274117252118 0 -15.977759864701852 0 1 0 I I #
point $-1 -64.854274117252118 -37.519762178523813 -15.977759864701852 #
point $-1 64.854274117252118 -37.519762178523813 -15.977759864701852 #
coedge $-1 $303 $350 $236 $315 reversed $221 $-1 #
edge $-1 $316 -64.854274117252118 $318 64.854274117252118 $314 $355 forward 7 unknown #
vertex $-1 $237 $356 #
straight-curve $-1 -64.854274117252118 -47.208861640237934 -11.494507820021479 0 -1 0 I I #
vertex $-1 $238 $357 #
straight-curve $-1 64.854274117252118 -47.208861640237934 -11.494507820021479 0 1 0 I I #
coedge $-1 $252 $251 $244 $321 forward $241 $-1 #
edge $-1 $322 56.454790455173438 $325 70.908900239016219 $320 $358 forward 7 unknown #
vertex $-1 $256 $359 #
straight-curve $-1 0 40.60287912357208 15.977759864701852 0 1 0 I I #
edge $-1 $325 -3.4405898023887538 $253 10.321769407166261 $252 $360 forward 7 unknown #
vertex $-1 $324 $361 #
straight-curve $-1 0 -13.657069707799351 56.404084607299879 0 -0.68199835119979291 0.73135370988377701 I I #
point $-1 0 24.041087075873264 15.977759864701852 #
point $-1 -13.762359209555015 37.519762178523813 1.5236500808590705 #
straight-curve $-1 0 37.519762178523813 15.977759864701852 -1 0 0 I I #
vertex $-1 $259 $362 #
point $-1 -3.8811796047775076 26.516713073144807 4.7747297222847012 #
straight-curve $-1 13.762359209555022 -13.657069707799351 56.404084607299879 0 -0.68199835119979291 0.73135370988377701 I I #
coedge $-1 $267 $273 $269 $335 reversed $263 $-1 #
straight-curve $-1 13.762359209555022 37.519762178523813 72.43255031987529 0 0 -1 I I #
edge $-1 $271 -13.762359209555022 $339 0 $333 $363 forward 7 unknown #
point $-1 13.762359209555022 24.041087075873264 15.977759864701852 #
point $-1 13.762359209555022 37.519762178523813 15.977759864701852 #
point $-1 13.762359209555022 37.519762178523813 1.5236500808590705 #
vertex $-1 $278 $364 #
straight-curve $-1 0 40.60287912357208 15.977759864701852 0 -1 0 I I #
straight-curve $-1 0 37.519762178523813 72.43255031987529 0 0 1 I I #
vertex $-1 $281 $365 #
point $-1 9.8811796047775147 26.516713073144807 4.7747297222847012 #
straight-curve $-1 -64.854274117252118 37.519762178523813 0 0 0 -1 I I #
straight-curve $-1 -64.854274117252118 0 -15.977759864701852 0 1 0 I I #
point $-1 -64.854274117252118 -37.519762178523813 -15.977759864701852 #
point $-1 -64.854274117252118 37.519762178523813 -15.977759864701852 #
straight-curve $-1 -64.854274117252118 -37.519762178523813 0 0 0 -1 I I #
edge $-1 $316 -2.2416260223401867 $310 2.2416260223401867 $309 $366 forward 7 unknown #
coedge $-1 $314 $305 $304 $351 reversed $221 $-1 #
edge $-1 $318 -2.2416260223401867 $307 2.2416260223401867 $304 $367 forward 7 unknown #
straight-curve $-1 0 -56.897961101952056 -15.977759864701852 -1 0 0 I I #
point $-1 64.854274117252118 -56.897961101952056 -15.977759864701852 #
point $-1 -64.854274117252118 -56.897961101952056 -15.977759864701852 #
straight-curve $-1 0 -56.897961101952056 -11.494507820021479 1 0 0 I I #
point $-1 -64.854274117252118 -56.897961101952056 -11.494507820021479 #
point $-1 64.854274117252118 -56.897961101952056 -11.494507820021479 #
straight-curve $-1 0 37.519762178523813 72.43255031987529 0 0 -1 I I #
point $-1 0 37.519762178523813 15.977759864701852 #
straight-curve $-1 -3.4405898023887538 37.519762178523813 1.5236500808590741 -1 0 0 I I #
point $-1 0 37.519762178523813 1.5236500808590705 #
point $-1 -6.8811796047775076 24.322651943493476 2.7287346686853224 #
straight-curve $-1 0 37.519762178523813 15.977759864701852 -1 0 0 I I #
point $-1 0 37.519762178523813 15.977759864701852 #
point $-1 6.8811796047775147 24.322651943493476 2.7287346686853224 #
straight-curve $-1 -64.854274117252118 -56.897961101952056 -13.736133842361665 0 0 -1 I I #
straight-curve $-1 64.854274117252118 -56.897961101952056 -13.736133842361665 0 0 -1 I I #
End-of-ACIS-data 