500 0 9 0           
7 Unknown 11 ACIS 5.0 NT 24 Fri Mar 26 15:51:53 1999 
-1 9.9999999999999995e-007 1e-010 
body $-1 $9 $-1 $10 #
body $-1 $11 $-1 $12 #
body $-1 $13 $-1 $14 #
body $-1 $15 $-1 $16 #
body $-1 $17 $-1 $18 #
body $-1 $19 $-1 $20 #
body $-1 $21 $-1 $22 #
body $-1 $23 $-1 $24 #
body $-1 $25 $-1 $26 #
lump $-1 $-1 $27 $0 #
transform $-1 1 0 0 0 1 0 0 0 1 48.56715598010193 24.752545187295276 6.4711509473691899 1 rotate no_reflect no_shear #
lump $-1 $-1 $28 $1 #
transform $-1 1 0 0 0 1 0 0 0 1 48.56715598010193 24.752545187295276 6.4711509473691899 1 rotate no_reflect no_shear #
lump $-1 $-1 $29 $2 #
transform $-1 1 0 0 0 1 0 0 0 1 48.56715598010193 24.752545187295276 6.4711509473691899 1 rotate no_reflect no_shear #
lump $-1 $-1 $30 $3 #
transform $-1 1 0 0 0 1 0 0 0 1 48.56715598010193 24.752545187295276 6.4711509473691899 1 rotate no_reflect no_shear #
lump $-1 $-1 $31 $4 #
transform $-1 1 0 0 0 1 0 0 0 1 48.56715598010193 24.752545187295276 6.4711509473691899 1 rotate no_reflect no_shear #
lump $-1 $-1 $32 $5 #
transform $-1 1 0 0 0 1 0 0 0 1 48.56715598010193 24.752545187295276 6.4711509473691899 1 rotate no_reflect no_shear #
lump $-1 $-1 $33 $6 #
transform $-1 1 0 0 0 1 0 0 0 1 48.56715598010193 24.752545187295276 6.4711509473691899 1 rotate no_reflect no_shear #
lump $-1 $-1 $34 $7 #
transform $-1 1 0 0 0 1 0 0 0 1 48.56715598010193 24.752545187295276 6.4711509473691899 1 rotate no_reflect no_shear #
lump $-1 $-1 $35 $8 #
transform $-1 1 0 0 0 1 0 0 0 1 48.56715598010193 24.752545187295276 6.4711509473691899 1 rotate no_reflect no_shear #
shell $-1 $-1 $-1 $36 $-1 $9 #
shell $-1 $-1 $-1 $37 $-1 $11 #
shell $-1 $-1 $-1 $38 $-1 $13 #
shell $-1 $-1 $-1 $39 $-1 $15 #
shell $-1 $-1 $-1 $40 $-1 $17 #
shell $-1 $-1 $-1 $41 $-1 $19 #
shell $-1 $-1 $-1 $42 $-1 $21 #
shell $-1 $-1 $-1 $43 $-1 $23 #
shell $-1 $-1 $-1 $44 $-1 $25 #
face $-1 $45 $46 $27 $-1 $47 forward single #
face $-1 $48 $49 $28 $-1 $50 forward single #
face $-1 $51 $52 $29 $-1 $53 reversed single #
face $-1 $54 $55 $30 $-1 $56 forward single #
face $-1 $57 $58 $31 $-1 $59 forward single #
face $-1 $60 $61 $32 $-1 $62 reversed single #
face $-1 $63 $64 $33 $-1 $65 forward single #
face $-1 $66 $67 $34 $-1 $68 forward single #
face $-1 $69 $70 $35 $-1 $71 forward single #
face $-1 $72 $73 $27 $-1 $74 reversed single #
loop $-1 $-1 $75 $36 #
plane-surface $-1 0 0 6.4711509473691899 0 0 1 1 0 0 forward_v I I I I #
face $-1 $76 $77 $28 $-1 $78 reversed single #
loop $-1 $-1 $79 $37 #
plane-surface $-1 0 -21.605405682549915 -0.7827761065780221 0 0 1 1 0 0 forward_v I I I I #
face $-1 $80 $81 $29 $-1 $82 reversed single #
loop $-1 $-1 $83 $38 #
plane-surface $-1 -130.03084533624849 6.0083301060478185 55.978834742939505 0 1 0 -0.83867057594974714 0 0.54463902268945019 forward_v I I I I #
face $-1 $84 $85 $30 $-1 $86 forward single #
loop $-1 $87 $88 $39 #
cone-surface $-1 -47.045304266794531 8.6407709924702374 4.5011049660008249 0.83867057594974714 0 -0.54463902268945019 0.2723195113447251 0 0.41933528797487357 1 I I 0 1 0.5 forward I I I I #
face $-1 $89 $90 $31 $-1 $91 forward single #
loop $-1 $92 $93 $40 #
cone-surface $-1 -47.045304266794531 12.589432322103868 4.5011049660008249 0.83867057594974714 0 -0.54463902268945019 0.2723195113447251 0 0.41933528797487357 1 I I 0 1 0.5 forward I I I I #
face $-1 $94 $95 $32 $-1 $96 reversed single #
loop $-1 $-1 $97 $41 #
plane-surface $-1 -11.234696799819417 20.681824586724069 77.420867088943879 0.78801076186113728 0 0.61566146476048833 0.61566146476048833 0 -0.78801076186113728 forward_v I I I I #
face $-1 $98 $99 $33 $-1 $100 forward single #
loop $-1 $101 $102 $42 #
cone-surface $-1 45.595278939841783 18.239392226381348 3.0597373844456404 -0.78801076186113728 0 -0.61566146476048833 0.30783073238024417 0 -0.39400538093056864 1 I I 0 1 0.5 forward I I I I #
face $-1 $103 $104 $34 $-1 $105 forward single #
loop $-1 $106 $107 $43 #
cone-surface $-1 45.595278939841783 20.681824586724069 3.0597373844456404 -0.78801076186113728 0 -0.61566146476048833 0.30783073238024417 0 -0.39400538093056864 1 I I 0 1 0.5 forward I I I I #
face $-1 $108 $109 $35 $-1 $110 forward single #
loop $-1 $111 $112 $44 #
cone-surface $-1 45.595278939841783 23.12425694706679 3.0597373844456404 -0.78801076186113728 0 -0.61566146476048833 0.30783073238024417 0 -0.39400538093056864 1 I I 0 1 0.5 forward I I I I #
face $-1 $113 $114 $27 $-1 $115 reversed single #
loop $-1 $-1 $116 $45 #
plane-surface $-1 0 0 -6.4711509473691899 0 0 1 1 0 0 forward_v I I I I #
coedge $-1 $117 $118 $119 $120 forward $46 $-1 #
face $-1 $121 $122 $28 $-1 $123 reversed single #
loop $-1 $-1 $124 $48 #
plane-surface $-1 0 -21.605405682549915 -4.2117929191996 0 0 1 1 0 0 forward_v I I I I #
coedge $-1 $125 $126 $127 $128 reversed $49 $-1 #
face $-1 $129 $130 $29 $-1 $131 reversed single #
loop $-1 $-1 $132 $51 #
plane-surface $-1 -48.567155980101901 10.615101657287049 3.075698007321904 -0.83867057594974714 0 0.54463902268945019 0.54463902268945019 0 0.83867057594974714 forward_v I I I I #
coedge $-1 $133 $134 $135 $136 reversed $52 $-1 #
face $-1 $-1 $137 $30 $-1 $138 forward single #
loop $-1 $139 $140 $54 #
cone-surface $-1 -46.41630133483222 8.6407709924702374 4.0926256989837375 0.83867057594974714 0 -0.54463902268945019 0.13615975567236255 0 0.20966764398743679 1 I I -0.70710678118654746 0.70710678118654746 0.25 forward I I I I #
loop $-1 $-1 $141 $39 #
coedge $-1 $88 $88 $142 $143 reversed $55 $-1 #
face $-1 $-1 $144 $31 $-1 $145 forward single #
loop $-1 $146 $147 $57 #
cone-surface $-1 -46.41630133483222 12.589432322103868 4.0926256989837375 0.83867057594974714 0 -0.54463902268945019 0.13615975567236255 0 0.20966764398743679 1 I I -0.70710678118654746 0.70710678118654746 0.25 forward I I I I #
loop $-1 $-1 $148 $40 #
coedge $-1 $93 $93 $149 $150 reversed $58 $-1 #
face $-1 $151 $152 $32 $-1 $153 forward single #
loop $-1 $-1 $154 $60 #
plane-surface $-1 65.308186370798211 16.611103986152866 137.2227198688652 0 1 0 0.78801076186113728 0 0.61566146476048833 forward_v I I I I #
coedge $-1 $155 $156 $157 $158 reversed $61 $-1 #
face $-1 $-1 $159 $33 $-1 $160 forward single #
loop $-1 $161 $162 $63 #
cone-surface $-1 44.611329651955572 18.239392226381348 2.2909919698534287 -0.78801076186113728 0 -0.61566146476048833 0.15391536619012208 0 -0.19700269046528432 1 I I -0.70710678118654746 0.70710678118654746 0.25 forward I I I I #
loop $-1 $-1 $163 $42 #
coedge $-1 $102 $102 $164 $165 reversed $64 $-1 #
face $-1 $-1 $166 $34 $-1 $167 forward single #
loop $-1 $168 $169 $66 #
cone-surface $-1 44.611329651955572 20.681824586724069 2.2909919698534287 -0.78801076186113728 0 -0.61566146476048833 0.15391536619012208 0 -0.19700269046528432 1 I I -0.70710678118654746 0.70710678118654746 0.25 forward I I I I #
loop $-1 $-1 $170 $43 #
coedge $-1 $107 $107 $171 $172 reversed $67 $-1 #
face $-1 $-1 $173 $35 $-1 $174 forward single #
loop $-1 $175 $176 $69 #
cone-surface $-1 44.611329651955572 23.12425694706679 2.2909919698534287 -0.78801076186113728 0 -0.61566146476048833 0.15391536619012208 0 -0.19700269046528432 1 I I -0.70710678118654746 0.70710678118654746 0.25 forward I I I I #
loop $-1 $-1 $177 $44 #
coedge $-1 $112 $112 $178 $179 reversed $70 $-1 #
face $-1 $180 $181 $27 $-1 $182 reversed single #
loop $-1 $-1 $183 $72 #
plane-surface $-1 0 -24.752545187295276 0 0 1 0 0 0 1 forward_v I I I I #
coedge $-1 $184 $185 $186 $187 forward $73 $-1 #
coedge $-1 $188 $75 $189 $190 forward $46 $-1 #
coedge $-1 $75 $188 $191 $192 forward $46 $-1 #
coedge $-1 $193 $194 $75 $120 reversed $195 $-1 #
edge $-1 $196 -24.752545187295276 $197 24.752545187295276 $119 $198 forward 7 unknown #
face $-1 $199 $200 $28 $-1 $201 reversed single #
loop $-1 $-1 $202 $76 #
plane-surface $-1 0 -18.458266177804553 -2.497284512888811 0 -1 0 0 0 -1 forward_v I I I I #
coedge $-1 $203 $204 $205 $206 reversed $77 $-1 #
coedge $-1 $207 $79 $208 $209 forward $49 $-1 #
coedge $-1 $79 $207 $210 $211 reversed $49 $-1 #
coedge $-1 $212 $213 $79 $128 forward $214 $-1 #
edge $-1 $215 7.6555633365295961 $216 13.949842346020318 $127 $217 forward 7 unknown #
face $-1 $218 $219 $29 $-1 $220 reversed single #
loop $-1 $-1 $221 $80 #
plane-surface $-1 -130.03084533624849 15.221873208526279 55.978834742939505 0 -1 0 0.83867057594974714 0 -0.54463902268945019 forward_v I I I I #
coedge $-1 $222 $223 $224 $225 reversed $81 $-1 #
coedge $-1 $134 $83 $226 $227 reversed $52 $-1 #
coedge $-1 $83 $133 $222 $228 reversed $52 $-1 #
coedge $-1 $224 $229 $83 $136 forward $230 $-1 #
edge $-1 $231 16.448266688022315 $232 18.653299538687399 $135 $233 forward 7 unknown #
loop $-1 $-1 $142 $84 #
plane-surface $-1 -48.567155980101901 10.615101657287049 3.075698007321904 -0.83867057594974714 0 0.54463902268945019 0.54463902268945019 0 0.83867057594974714 forward_v I I I I #
loop $-1 $-1 $234 $54 #
coedge $-1 $140 $140 $141 $235 reversed $85 $-1 #
coedge $-1 $141 $141 $140 $235 forward $87 $-1 #
coedge $-1 $142 $142 $88 $143 forward $137 $-1 #
edge $-1 $236 0 $236 6.2831853071796004 $142 $237 forward 7 unknown #
loop $-1 $-1 $149 $89 #
plane-surface $-1 -48.567155980101901 10.615101657287049 3.075698007321904 -0.83867057594974714 0 0.54463902268945019 0.54463902268945019 0 0.83867057594974714 forward_v I I I I #
loop $-1 $-1 $238 $57 #
coedge $-1 $147 $147 $148 $239 reversed $90 $-1 #
coedge $-1 $148 $148 $147 $239 forward $92 $-1 #
coedge $-1 $149 $149 $93 $150 forward $144 $-1 #
edge $-1 $240 0 $240 6.2831853071796004 $149 $241 forward 7 unknown #
face $-1 $242 $243 $32 $-1 $244 reversed single #
loop $-1 $-1 $157 $94 #
plane-surface $-1 0 0 6.4711509473691899 0 0 1 1 0 0 forward_v I I I I #
coedge $-1 $245 $246 $247 $248 reversed $95 $-1 #
coedge $-1 $249 $97 $250 $251 reversed $61 $-1 #
coedge $-1 $97 $249 $245 $252 forward $61 $-1 #
coedge $-1 $247 $253 $97 $158 forward $152 $-1 #
edge $-1 $254 -14.411632893933238 $255 -6.2701916927908314 $157 $256 forward 7 unknown #
loop $-1 $-1 $164 $98 #
plane-surface $-1 -11.234696799819417 20.681824586724069 77.420867088943879 0.78801076186113728 0 0.61566146476048833 0.61566146476048833 0 -0.78801076186113728 forward_v I I I I #
loop $-1 $-1 $257 $63 #
coedge $-1 $162 $162 $163 $258 reversed $99 $-1 #
coedge $-1 $163 $163 $162 $258 forward $101 $-1 #
coedge $-1 $164 $164 $102 $165 forward $159 $-1 #
edge $-1 $259 0 $259 6.2831853071796004 $164 $260 forward 7 unknown #
loop $-1 $-1 $171 $103 #
plane-surface $-1 -11.234696799819417 20.681824586724069 77.420867088943879 0.78801076186113728 0 0.61566146476048833 0.61566146476048833 0 -0.78801076186113728 forward_v I I I I #
loop $-1 $-1 $261 $66 #
coedge $-1 $169 $169 $170 $262 reversed $104 $-1 #
coedge $-1 $170 $170 $169 $262 forward $106 $-1 #
coedge $-1 $171 $171 $107 $172 forward $166 $-1 #
edge $-1 $263 0 $263 6.2831853071796004 $171 $264 forward 7 unknown #
loop $-1 $-1 $178 $108 #
plane-surface $-1 -11.234696799819417 20.681824586724069 77.420867088943879 0.78801076186113728 0 0.61566146476048833 0.61566146476048833 0 -0.78801076186113728 forward_v I I I I #
loop $-1 $-1 $265 $69 #
coedge $-1 $176 $176 $177 $266 reversed $109 $-1 #
coedge $-1 $177 $177 $176 $266 forward $111 $-1 #
coedge $-1 $178 $178 $112 $179 forward $173 $-1 #
edge $-1 $267 0 $267 6.2831853071796004 $178 $268 forward 7 unknown #
face $-1 $269 $270 $27 $-1 $271 reversed single #
loop $-1 $-1 $272 $113 #
plane-surface $-1 -48.56715598010193 0 0 1 0 0 0 0 -1 forward_v I I I I #
coedge $-1 $273 $191 $274 $275 forward $114 $-1 #
coedge $-1 $276 $116 $273 $277 forward $73 $-1 #
coedge $-1 $116 $276 $278 $279 forward $73 $-1 #
coedge $-1 $194 $193 $116 $187 reversed $195 $-1 #
edge $-1 $280 -24.752545187295276 $281 24.752545187295276 $186 $282 forward 7 unknown #
coedge $-1 $118 $117 $283 $284 forward $46 $-1 #
coedge $-1 $285 $286 $117 $190 reversed $270 $-1 #
edge $-1 $197 -48.56715598010193 $287 48.56715598010193 $189 $288 forward 7 unknown #
coedge $-1 $183 $289 $118 $192 reversed $114 $-1 #
edge $-1 $290 -48.56715598010193 $196 48.56715598010193 $191 $291 forward 7 unknown #
coedge $-1 $186 $119 $289 $292 forward $195 $-1 #
coedge $-1 $119 $186 $285 $293 reversed $195 $-1 #
loop $-1 $-1 $193 $269 #
vertex $-1 $120 $294 #
vertex $-1 $120 $295 #
straight-curve $-1 48.56715598010193 0 6.4711509473691899 0 1 0 I I #
face $-1 $296 $297 $28 $-1 $298 reversed single #
loop $-1 $-1 $299 $121 #
plane-surface $-1 -48.56715598010193 0 0 1 0 0 0 0 -1 forward_v I I I I #
coedge $-1 $300 $208 $213 $301 reversed $122 $-1 #
coedge $-1 $302 $124 $303 $304 reversed $77 $-1 #
coedge $-1 $124 $302 $300 $305 forward $77 $-1 #
coedge $-1 $213 $212 $124 $206 forward $214 $-1 #
edge $-1 $306 -13.949842346020318 $307 -7.6555633365295961 $205 $308 forward 7 unknown #
coedge $-1 $126 $125 $299 $309 reversed $49 $-1 #
coedge $-1 $202 $310 $125 $209 reversed $122 $-1 #
edge $-1 $215 -48.56715598010193 $311 48.56715598010193 $208 $312 forward 7 unknown #
coedge $-1 $313 $314 $126 $211 forward $297 $-1 #
edge $-1 $216 -48.56715598010193 $315 48.56715598010193 $210 $316 forward 7 unknown #
coedge $-1 $205 $127 $314 $317 forward $214 $-1 #
coedge $-1 $127 $205 $202 $301 forward $214 $-1 #
loop $-1 $-1 $127 $296 #
vertex $-1 $128 $318 #
vertex $-1 $317 $319 #
straight-curve $-1 48.56715598010193 -10.802702841274957 -0.7827761065780221 0 -1 0 I I #
face $-1 $-1 $230 $29 $-1 $320 forward single #
loop $-1 $-1 $321 $129 #
plane-surface $-1 -48.56715598010193 0 0 1 0 0 0 0 -1 forward_v I I I I #
coedge $-1 $322 $323 $324 $325 reversed $130 $-1 #
coedge $-1 $326 $132 $134 $228 forward $81 $-1 #
coedge $-1 $132 $326 $322 $327 forward $81 $-1 #
coedge $-1 $324 $135 $132 $225 forward $230 $-1 #
edge $-1 $232 0.70077927740429402 $328 9.9143223798827549 $224 $329 forward 7 unknown #
coedge $-1 $330 $331 $133 $227 forward $219 $-1 #
edge $-1 $332 -24.913719364147891 $231 -21.518266424100563 $226 $333 forward 7 unknown #
edge $-1 $232 -4.0486134096240676 $332 5.235158283374276e-014 $134 $334 forward 7 unknown #
coedge $-1 $135 $324 $330 $335 forward $230 $-1 #
loop $-1 $-1 $324 $218 #
vertex $-1 $227 $336 #
vertex $-1 $136 $337 #
straight-curve $-1 -65.015422668124245 6.0083301060478185 6.4711509473691891 1 0 0 I I #
coedge $-1 $234 $234 $-1 $338 reversed $139 $-1 #
edge $-1 $339 0 $339 6.2831853071796004 $140 $340 forward 7 unknown #
vertex $-1 $143 $341 #
ellipse-curve $-1 -47.464639554769384 8.6407709924702374 4.773424477345535 -0.83867057594974714 0 0.54463902268945019 0.2723195113447251 0 0.41933528797487357 1 I I #
coedge $-1 $238 $238 $-1 $342 reversed $146 $-1 #
edge $-1 $343 0 $343 6.2831853071796004 $147 $344 forward 7 unknown #
vertex $-1 $150 $345 #
ellipse-curve $-1 -47.464639554769384 12.589432322103868 4.773424477345535 -0.83867057594974714 0 0.54463902268945019 0.2723195113447251 0 0.41933528797487357 1 I I #
face $-1 $-1 $346 $32 $-1 $347 reversed single #
loop $-1 $-1 $348 $151 #
plane-surface $-1 48.56715598010193 0 0 -1 0 0 0 0 1 forward_v I I I I #
coedge $-1 $246 $154 $156 $252 reversed $95 $-1 #
coedge $-1 $154 $245 $349 $350 reversed $95 $-1 #
coedge $-1 $351 $157 $154 $248 forward $152 $-1 #
edge $-1 $255 11.543201909024368 $352 15.913062794702824 $247 $353 forward 7 unknown #
coedge $-1 $156 $155 $348 $354 reversed $61 $-1 #
coedge $-1 $355 $356 $155 $251 forward $346 $-1 #
edge $-1 $357 -63.171688786891238 $254 -56.073858021442135 $250 $358 forward 7 unknown #
edge $-1 $359 -97.134311960203888 $255 -90.036481194754799 $245 $360 forward 7 unknown #
coedge $-1 $157 $351 $355 $361 forward $152 $-1 #
vertex $-1 $251 $362 #
vertex $-1 $158 $363 #
straight-curve $-1 44.197295094423481 10.340912293362035 6.4711509473691962 0 -1 0 I I #
coedge $-1 $257 $257 $-1 $364 reversed $161 $-1 #
edge $-1 $365 0 $365 6.2831853071796004 $162 $366 forward 7 unknown #
vertex $-1 $165 $367 #
ellipse-curve $-1 46.382225537262698 18.239392226381348 3.6745674328477214 0.78801076186113728 0 0.61566146476048833 0.30783073238024417 0 -0.39400538093056864 1 I I #
coedge $-1 $261 $261 $-1 $368 reversed $168 $-1 #
edge $-1 $369 0 $369 6.2831853071796004 $169 $370 forward 7 unknown #
vertex $-1 $172 $371 #
ellipse-curve $-1 46.382225537262698 20.681824586724069 3.6745674328477214 0.78801076186113728 0 0.61566146476048833 0.30783073238024417 0 -0.39400538093056864 1 I I #
coedge $-1 $265 $265 $-1 $372 reversed $175 $-1 #
edge $-1 $373 0 $373 6.2831853071796004 $176 $374 forward 7 unknown #
vertex $-1 $179 $375 #
ellipse-curve $-1 46.382225537262698 23.12425694706679 3.6745674328477214 0.78801076186113728 0 0.61566146476048833 0.30783073238024417 0 -0.39400538093056864 1 I I #
face $-1 $-1 $195 $27 $-1 $376 reversed single #
loop $-1 $-1 $285 $180 #
plane-surface $-1 0 24.752545187295276 0 0 -1 0 0 0 -1 forward_v I I I I #
coedge $-1 $377 $283 $286 $378 forward $181 $-1 #
coedge $-1 $289 $183 $184 $277 reversed $114 $-1 #
coedge $-1 $283 $377 $183 $275 reversed $181 $-1 #
edge $-1 $290 -6.4711509473691899 $379 6.4711509473691899 $274 $380 forward 7 unknown #
coedge $-1 $185 $184 $377 $381 forward $73 $-1 #
edge $-1 $281 -48.56715598010193 $379 48.56715598010193 $273 $382 forward 7 unknown #
coedge $-1 $286 $285 $185 $279 reversed $270 $-1 #
edge $-1 $383 -48.56715598010193 $280 48.56715598010193 $278 $384 forward 7 unknown #
vertex $-1 $187 $385 #
vertex $-1 $292 $386 #
straight-curve $-1 48.56715598010193 0 -6.4711509473691899 0 -1 0 I I #
coedge $-1 $272 $274 $188 $284 reversed $181 $-1 #
edge $-1 $287 -24.752545187295276 $290 24.752545187295276 $283 $387 forward 7 unknown #
coedge $-1 $278 $189 $194 $293 forward $270 $-1 #
coedge $-1 $189 $278 $272 $378 reversed $270 $-1 #
vertex $-1 $190 $388 #
straight-curve $-1 0 24.752545187295276 6.4711509473691899 -1 0 0 I I #
coedge $-1 $191 $273 $193 $292 reversed $114 $-1 #
vertex $-1 $284 $389 #
straight-curve $-1 0 -24.752545187295276 6.4711509473691899 1 0 0 I I #
edge $-1 $196 -6.4711509473691899 $281 6.4711509473691899 $193 $390 forward 7 unknown #
edge $-1 $197 -6.4711509473691899 $280 6.4711509473691899 $194 $391 forward 7 unknown #
point $-1 48.56715598010193 -24.752545187295276 6.4711509473691899 #
point $-1 48.56715598010193 24.752545187295276 6.4711509473691899 #
face $-1 $-1 $214 $28 $-1 $392 reversed single #
loop $-1 $-1 $210 $199 #
plane-surface $-1 0 -24.752545187295276 0 0 1 0 0 0 1 forward_v I I I I #
coedge $-1 $393 $394 $207 $309 forward $200 $-1 #
coedge $-1 $310 $202 $204 $305 reversed $122 $-1 #
edge $-1 $307 -2.9631506627551945 $215 0.46586614986638342 $213 $395 forward 7 unknown #
coedge $-1 $204 $203 $396 $397 reversed $77 $-1 #
coedge $-1 $314 $313 $203 $304 forward $297 $-1 #
edge $-1 $398 -48.56715598010193 $306 48.56715598010193 $303 $399 forward 7 unknown #
edge $-1 $400 -48.56715598010193 $307 48.56715598010193 $300 $401 forward 7 unknown #
vertex $-1 $304 $402 #
vertex $-1 $206 $403 #
straight-curve $-1 48.56715598010193 -10.802702841274957 -4.2117929191996 0 1 0 I I #
edge $-1 $315 -13.949842346020318 $311 -7.6555633365295961 $299 $404 forward 7 unknown #
coedge $-1 $208 $300 $393 $405 reversed $122 $-1 #
vertex $-1 $309 $406 #
straight-curve $-1 0 -18.458266177804553 -0.7827761065780221 -1 0 0 I I #
coedge $-1 $303 $210 $394 $407 forward $297 $-1 #
coedge $-1 $210 $303 $212 $317 reversed $297 $-1 #
vertex $-1 $407 $408 #
straight-curve $-1 0 -24.752545187295276 -0.7827761065780221 -1 0 0 I I #
edge $-1 $216 0.7827761065780221 $306 4.2117929191996 $212 $409 forward 7 unknown #
point $-1 48.56715598010193 -18.458266177804553 -0.7827761065780221 #
point $-1 48.56715598010193 -24.752545187295276 -0.7827761065780221 #
plane-surface $-1 0 0 6.4711509473691899 0 0 1 1 0 0 forward_v I I I I #
coedge $-1 $331 $330 $323 $410 forward $219 $-1 #
coedge $-1 $323 $221 $223 $327 reversed $130 $-1 #
coedge $-1 $221 $322 $321 $410 reversed $130 $-1 #
coedge $-1 $229 $224 $221 $325 forward $230 $-1 #
edge $-1 $328 -18.653299538687399 $411 -16.448266688022315 $324 $412 forward 7 unknown #
coedge $-1 $223 $222 $331 $413 reversed $81 $-1 #
edge $-1 $414 -5.235158283374276e-014 $328 4.0486134096240676 $322 $415 forward 7 unknown #
vertex $-1 $225 $416 #
straight-curve $-1 -46.362123129436846 5.3075508286435245 6.4711509473691908 0 1 0 I I #
coedge $-1 $321 $226 $229 $335 reversed $219 $-1 #
coedge $-1 $226 $321 $326 $413 forward $219 $-1 #
vertex $-1 $227 $417 #
straight-curve $-1 -48.56715598010193 6.0083301060478185 27.989417371469752 0 0 1 I I #
straight-curve $-1 -48.567155980101901 6.0083301060478185 3.075698007321904 -0.54463902268945019 0 -0.83867057594974714 I I #
edge $-1 $411 -15.221873208526279 $231 -6.0083301060478185 $330 $418 forward 7 unknown #
point $-1 -48.56715598010193 6.0083301060478185 6.4711509473691899 #
point $-1 -46.362123129436846 6.0083301060478185 6.4711509473691891 #
edge $-1 $419 1 $419 0 $234 $-1 forward 7 unknown #
vertex $-1 $235 $420 #
ellipse-curve $-1 -46.625968978819657 8.6407709924702374 4.2287854546560997 -0.83867057594974714 0 0.54463902268945019 0.2723195113447251 0 0.41933528797487357 1 I I #
point $-1 -47.192320043424679 8.6407709924702374 5.1927597653204236 #
edge $-1 $421 1 $421 0 $238 $-1 forward 7 unknown #
vertex $-1 $239 $422 #
ellipse-curve $-1 -46.625968978819657 12.589432322103868 4.2287854546560997 -0.83867057594974714 0 0.54463902268945019 0.2723195113447251 0 0.41933528797487357 1 I I #
point $-1 -47.192320043424679 12.589432322103868 5.1927597653204236 #
loop $-1 $-1 $250 $242 #
plane-surface $-1 0 24.752545187295276 0 0 -1 0 0 0 -1 forward_v I I I I #
coedge $-1 $423 $349 $249 $354 forward $243 $-1 #
coedge $-1 $348 $424 $246 $350 forward $243 $-1 #
edge $-1 $352 62.14020898706341 $359 67.733376016106362 $349 $425 forward 7 unknown #
coedge $-1 $253 $247 $424 $426 forward $152 $-1 #
vertex $-1 $426 $427 #
straight-curve $-1 32.654093185399105 16.611103986152866 6.4711509473691962 1 0 0 I I #
edge $-1 $359 6.2701916927908314 $357 14.411632893933238 $348 $428 forward 7 unknown #
coedge $-1 $356 $250 $253 $361 reversed $346 $-1 #
coedge $-1 $250 $355 $423 $429 forward $346 $-1 #
vertex $-1 $251 $430 #
straight-curve $-1 9.6747815301707565 24.752545187295276 50.657954527339058 -0.61566146476048833 0 0.78801076186113728 I I #
vertex $-1 $354 $431 #
straight-curve $-1 -11.234696799819417 16.611103986152866 77.420867088943879 -0.61566146476048833 0 0.78801076186113728 I I #
edge $-1 $432 -48.56715598010193 $254 -44.197295094423474 $355 $433 forward 7 unknown #
point $-1 44.197295094423474 24.752545187295272 6.4711509473691962 #
point $-1 44.197295094423474 16.611103986152866 6.4711509473691962 #
edge $-1 $434 1 $434 0 $257 $-1 forward 7 unknown #
vertex $-1 $258 $435 #
ellipse-curve $-1 44.808332342420854 18.239392226381348 2.4449073360435509 0.78801076186113728 0 0.61566146476048833 0.30783073238024417 0 -0.39400538093056864 1 I I #
point $-1 46.690056269642952 18.239392226381348 3.2805620519171614 #
edge $-1 $436 1 $436 0 $261 $-1 forward 7 unknown #
vertex $-1 $262 $437 #
ellipse-curve $-1 44.808332342420854 20.681824586724069 2.4449073360435509 0.78801076186113728 0 0.61566146476048833 0.30783073238024417 0 -0.39400538093056864 1 I I #
point $-1 46.690056269642952 20.681824586724069 3.2805620519171614 #
edge $-1 $438 1 $438 0 $265 $-1 forward 7 unknown #
vertex $-1 $266 $439 #
ellipse-curve $-1 44.808332342420854 23.12425694706679 2.4449073360435509 0.78801076186113728 0 0.61566146476048833 0.30783073238024417 0 -0.39400538093056864 1 I I #
point $-1 46.690056269642952 23.12425694706679 3.2805620519171614 #
plane-surface $-1 48.56715598010193 0 0 -1 0 0 0 0 1 forward_v I I I I #
coedge $-1 $274 $272 $276 $381 reversed $181 $-1 #
edge $-1 $287 -6.4711509473691899 $383 6.4711509473691899 $286 $440 forward 7 unknown #
vertex $-1 $381 $441 #
straight-curve $-1 -48.56715598010193 -24.752545187295276 0 0 0 -1 I I #
edge $-1 $379 -24.752545187295276 $383 24.752545187295276 $377 $442 forward 7 unknown #
straight-curve $-1 0 -24.752545187295276 -6.4711509473691899 -1 0 0 I I #
vertex $-1 $279 $443 #
straight-curve $-1 0 24.752545187295276 -6.4711509473691899 1 0 0 I I #
point $-1 48.56715598010193 24.752545187295276 -6.4711509473691899 #
point $-1 48.56715598010193 -24.752545187295276 -6.4711509473691899 #
straight-curve $-1 -48.56715598010193 0 6.4711509473691899 0 -1 0 I I #
point $-1 -48.56715598010193 24.752545187295276 6.4711509473691899 #
point $-1 -48.56715598010193 -24.752545187295276 6.4711509473691899 #
straight-curve $-1 48.56715598010193 -24.752545187295276 0 0 0 -1 I I #
straight-curve $-1 48.56715598010193 24.752545187295276 0 0 0 -1 I I #
plane-surface $-1 48.56715598010193 0 0 -1 0 0 0 0 1 forward_v I I I I #
coedge $-1 $396 $299 $310 $405 forward $200 $-1 #
coedge $-1 $299 $396 $313 $407 reversed $200 $-1 #
straight-curve $-1 48.56715598010193 -18.458266177804553 -1.2486422564444055 0 0 1 I I #
coedge $-1 $394 $393 $302 $397 forward $200 $-1 #
edge $-1 $400 7.6555633365295961 $398 13.949842346020318 $396 $444 forward 7 unknown #
vertex $-1 $304 $445 #
straight-curve $-1 0 -24.752545187295276 -4.2117929191996 1 0 0 I I #
vertex $-1 $397 $446 #
straight-curve $-1 0 -18.458266177804553 -4.2117929191996 1 0 0 I I #
point $-1 48.56715598010193 -24.752545187295276 -4.2117929191996 #
point $-1 48.56715598010193 -18.458266177804553 -4.2117929191996 #
straight-curve $-1 -48.56715598010193 -10.802702841274957 -0.7827761065780221 0 1 0 I I #
edge $-1 $311 -0.46586614986638342 $400 2.9631506627551945 $393 $447 forward 7 unknown #
point $-1 -48.56715598010193 -18.458266177804553 -0.7827761065780221 #
edge $-1 $315 0.7827761065780221 $398 4.2117929191996 $394 $448 forward 7 unknown #
point $-1 -48.56715598010193 -24.752545187295276 -0.7827761065780221 #
straight-curve $-1 48.56715598010193 -24.752545187295276 0 0 0 -1 I I #
edge $-1 $411 21.518266424100563 $414 24.913719364147891 $321 $449 forward 7 unknown #
vertex $-1 $335 $450 #
straight-curve $-1 -65.015422668124245 15.221873208526279 6.4711509473691891 -1 0 0 I I #
edge $-1 $414 -9.9143223798827549 $332 -0.70077927740429402 $331 $451 forward 7 unknown #
vertex $-1 $413 $452 #
straight-curve $-1 -48.567155980101901 15.221873208526279 3.075698007321904 0.54463902268945019 0 0.83867057594974714 I I #
point $-1 -46.362123129436846 15.221873208526279 6.4711509473691891 #
point $-1 -48.56715598010193 6.0083301060478185 3.0756980073218601 #
straight-curve $-1 -48.56715598010193 0 6.4711509473691899 0 -1 0 I I #
vertex $-1 $338 $453 #
point $-1 -46.353649467474931 8.6407709924702374 4.6481207426309741 #
vertex $-1 $342 $454 #
point $-1 -46.353649467474931 12.589432322103868 4.6481207426309741 #
coedge $-1 $424 $348 $356 $429 reversed $243 $-1 #
coedge $-1 $349 $423 $351 $426 reversed $243 $-1 #
straight-curve $-1 48.56715598010193 16.611103986152866 68.611359934432599 0 0 -1 I I #
edge $-1 $352 16.611103986152866 $432 24.752545187295276 $424 $455 forward 7 unknown #
point $-1 48.56715598010193 16.611103986152866 6.4711509473691899 #
straight-curve $-1 48.56715598010193 10.340912293362035 0.87798391832622968 0 1 0 I I #
edge $-1 $432 -6.4711509473691899 $357 -0.87798391832623679 $423 $456 forward 7 unknown #
point $-1 48.56715598010193 24.752545187295272 0.87798391832623679 #
point $-1 48.56715598010193 16.611103986152866 0.87798391832623679 #
vertex $-1 $426 $457 #
straight-curve $-1 0 24.752545187295276 6.4711509473691899 -1 0 0 I I #
vertex $-1 $364 $458 #
point $-1 45.116163074801101 18.239392226381348 2.0509019551129821 #
vertex $-1 $368 $459 #
point $-1 45.116163074801101 20.681824586724069 2.0509019551129821 #
vertex $-1 $372 $460 #
point $-1 45.116163074801101 23.12425694706679 2.0509019551129821 #
straight-curve $-1 -48.56715598010193 24.752545187295276 0 0 0 -1 I I #
point $-1 -48.56715598010193 -24.752545187295276 -6.4711509473691899 #
straight-curve $-1 -48.56715598010193 0 -6.4711509473691899 0 1 0 I I #
point $-1 -48.56715598010193 24.752545187295276 -6.4711509473691899 #
straight-curve $-1 -48.56715598010193 -10.802702841274957 -4.2117929191996 0 -1 0 I I #
point $-1 -48.56715598010193 -24.752545187295276 -4.2117929191996 #
point $-1 -48.56715598010193 -18.458266177804553 -4.2117929191996 #
straight-curve $-1 -48.56715598010193 -18.458266177804553 -1.2486422564444055 0 0 -1 I I #
straight-curve $-1 -48.56715598010193 -24.752545187295276 0 0 0 -1 I I #
straight-curve $-1 -48.56715598010193 15.221873208526279 27.989417371469752 0 0 -1 I I #
point $-1 -48.56715598010193 15.221873208526279 6.4711509473691899 #
straight-curve $-1 -48.56715598010193 5.3075508286435245 3.0756980073218649 0 -1 0 I I #
point $-1 -48.56715598010193 15.221873208526279 3.0756980073218601 #
point $-1 -46.206633690844782 8.6407709924702374 3.9564659433113749 #
point $-1 -46.206633690844782 12.589432322103868 3.9564659433113749 #
straight-curve $-1 48.56715598010193 0 6.4711509473691899 0 1 0 I I #
straight-curve $-1 48.56715598010193 24.752545187295276 0 0 0 -1 I I #
point $-1 48.56715598010193 24.752545187295276 6.4711509473691899 #
point $-1 44.414326961490289 18.239392226381348 2.1370766036633064 #
point $-1 44.414326961490289 20.681824586724069 2.1370766036633064 #
point $-1 44.414326961490289 23.12425694706679 2.1370766036633064 #
End-of-ACIS-data 