500 0 3 0           
7 Unknown 11 ACIS 5.0 NT 24 Fri Mar 26 18:30:10 1999 
-1 9.9999999999999995e-007 1e-010 
body $-1 $3 $-1 $4 #
body $-1 $5 $-1 $6 #
body $-1 $7 $-1 $8 #
lump $-1 $-1 $9 $0 #
transform $-1 1 0 0 0 1 0 0 0 1 45.236976226081119 25.39121503501881 11.082261477197227 1 rotate no_reflect no_shear #
lump $-1 $-1 $10 $1 #
transform $-1 1 0 0 0 1 0 0 0 1 45.236976226081119 25.39121503501881 11.082261477197227 1 rotate no_reflect no_shear #
lump $-1 $-1 $11 $2 #
transform $-1 1 0 0 0 1 0 0 0 1 45.236976226081119 25.39121503501881 11.082261477197227 1 rotate no_reflect no_shear #
shell $-1 $-1 $-1 $12 $-1 $3 #
shell $-1 $-1 $-1 $13 $-1 $5 #
shell $-1 $-1 $-1 $14 $-1 $7 #
face $-1 $15 $16 $9 $-1 $17 forward single #
face $-1 $18 $19 $10 $-1 $20 forward single #
face $-1 $21 $22 $11 $-1 $23 forward single #
face $-1 $24 $25 $9 $-1 $26 reversed single #
loop $-1 $-1 $27 $12 #
plane-surface $-1 0 0 11.082261477197227 0 0 1 1 0 0 forward_v I I I I #
face $-1 $28 $29 $10 $-1 $30 forward single #
loop $-1 $-1 $31 $13 #
plane-surface $-1 -38.106394787004966 -7.7573405469544632 0 0 1 0 0 0 1 forward_v I I I I #
face $-1 $32 $33 $11 $-1 $34 forward single #
loop $-1 $-1 $35 $14 #
plane-surface $-1 40.738620442201118 0 7.4166293979052877 0 0 1 1 0 0 forward_v I I I I #
face $-1 $36 $37 $9 $-1 $38 reversed single #
loop $-1 $-1 $39 $15 #
plane-surface $-1 0 0 -11.082261477197227 0 0 1 1 0 0 forward_v I I I I #
coedge $-1 $40 $41 $42 $43 forward $16 $-1 #
face $-1 $44 $45 $10 $-1 $46 forward single #
loop $-1 $-1 $47 $18 #
plane-surface $-1 -38.106394787004966 -3.2266920806243569 0 0 -1 0 0 0 -1 forward_v I I I I #
coedge $-1 $48 $49 $50 $51 reversed $19 $-1 #
face $-1 $52 $53 $11 $-1 $54 forward single #
loop $-1 $-1 $55 $21 #
plane-surface $-1 36.240264658321124 0 9.2494454375512571 1 0 0 0 0 -1 forward_v I I I I #
coedge $-1 $56 $57 $58 $59 reversed $22 $-1 #
face $-1 $60 $61 $9 $-1 $62 reversed single #
loop $-1 $-1 $63 $24 #
plane-surface $-1 0 -25.39121503501881 0 0 1 0 0 0 1 forward_v I I I I #
coedge $-1 $64 $65 $66 $67 forward $25 $-1 #
coedge $-1 $68 $27 $69 $70 forward $16 $-1 #
coedge $-1 $27 $68 $71 $72 forward $16 $-1 #
coedge $-1 $73 $74 $27 $43 reversed $75 $-1 #
edge $-1 $76 -25.39121503501881 $77 25.39121503501881 $42 $78 forward 7 unknown #
face $-1 $79 $80 $10 $-1 $81 forward single #
loop $-1 $-1 $82 $28 #
plane-surface $-1 -30.975813347928813 -5.49201631378941 0 -1 0 0 0 0 1 forward_v I I I I #
coedge $-1 $83 $84 $85 $86 reversed $29 $-1 #
coedge $-1 $87 $31 $88 $89 reversed $19 $-1 #
coedge $-1 $31 $87 $90 $91 reversed $19 $-1 #
coedge $-1 $92 $93 $31 $51 forward $94 $-1 #
edge $-1 $95 -11.082261477197227 $96 11.082261477197227 $50 $97 forward 7 unknown #
face $-1 $98 $99 $11 $-1 $100 reversed single #
loop $-1 $-1 $101 $32 #
plane-surface $-1 0 0 11.082261477197227 0 0 1 1 0 0 forward_v I I I I #
coedge $-1 $102 $103 $104 $105 reversed $33 $-1 #
coedge $-1 $106 $35 $107 $108 reversed $22 $-1 #
coedge $-1 $35 $106 $109 $110 reversed $22 $-1 #
coedge $-1 $111 $112 $35 $59 forward $113 $-1 #
edge $-1 $114 -25.39121503501881 $115 25.39121503501881 $58 $116 forward 7 unknown #
face $-1 $117 $118 $9 $-1 $119 reversed single #
loop $-1 $-1 $120 $36 #
plane-surface $-1 -45.236976226081119 0 0 1 0 0 0 0 -1 forward_v I I I I #
coedge $-1 $121 $71 $122 $123 forward $37 $-1 #
coedge $-1 $124 $39 $121 $125 forward $25 $-1 #
coedge $-1 $39 $124 $126 $127 forward $25 $-1 #
coedge $-1 $74 $73 $39 $67 reversed $75 $-1 #
edge $-1 $128 -25.39121503501881 $129 25.39121503501881 $66 $130 forward 7 unknown #
coedge $-1 $41 $40 $131 $132 forward $16 $-1 #
coedge $-1 $133 $134 $40 $70 reversed $118 $-1 #
edge $-1 $77 -45.236976226081119 $135 45.236976226081119 $69 $136 forward 7 unknown #
coedge $-1 $63 $137 $41 $72 reversed $37 $-1 #
edge $-1 $138 -45.236976226081119 $76 45.236976226081119 $71 $139 forward 7 unknown #
coedge $-1 $66 $42 $137 $140 forward $75 $-1 #
coedge $-1 $42 $66 $133 $141 reversed $75 $-1 #
loop $-1 $-1 $73 $117 #
vertex $-1 $43 $142 #
vertex $-1 $43 $143 #
straight-curve $-1 45.236976226081119 0 11.082261477197227 0 1 0 I I #
face $-1 $144 $94 $10 $-1 $145 reversed single #
loop $-1 $-1 $146 $44 #
plane-surface $-1 0 0 11.082261477197227 0 0 1 1 0 0 forward_v I I I I #
coedge $-1 $147 $148 $87 $149 reversed $45 $-1 #
coedge $-1 $150 $47 $146 $151 reversed $29 $-1 #
coedge $-1 $47 $150 $152 $153 reversed $29 $-1 #
coedge $-1 $148 $147 $47 $86 forward $45 $-1 #
edge $-1 $154 -11.082261477197227 $155 11.082261477197227 $85 $156 forward 7 unknown #
coedge $-1 $49 $48 $82 $149 forward $19 $-1 #
coedge $-1 $157 $158 $48 $89 forward $80 $-1 #
edge $-1 $159 11.92261595442633 $95 26.183778832578636 $88 $160 forward 7 unknown #
coedge $-1 $161 $162 $49 $91 forward $163 $-1 #
edge $-1 $96 -26.183778832578636 $164 -11.92261595442633 $90 $165 forward 7 unknown #
coedge $-1 $166 $50 $162 $167 reversed $94 $-1 #
coedge $-1 $50 $166 $157 $168 reversed $94 $-1 #
loop $-1 $-1 $50 $79 #
vertex $-1 $168 $169 #
vertex $-1 $51 $170 #
straight-curve $-1 -45.236976226081119 -7.7573405469544632 0 0 0 -1 I I #
face $-1 $171 $172 $11 $-1 $173 forward single #
loop $-1 $-1 $104 $52 #
plane-surface $-1 0 25.39121503501881 0 0 -1 0 0 0 -1 forward_v I I I I #
coedge $-1 $174 $175 $102 $176 forward $53 $-1 #
coedge $-1 $177 $55 $101 $176 reversed $33 $-1 #
coedge $-1 $55 $177 $106 $178 forward $33 $-1 #
coedge $-1 $107 $179 $55 $105 forward $99 $-1 #
edge $-1 $180 -6.457538758421598 $181 -2.7919066791296592 $104 $182 forward 7 unknown #
coedge $-1 $57 $56 $103 $178 reversed $22 $-1 #
coedge $-1 $183 $104 $56 $108 forward $99 $-1 #
edge $-1 $181 15.870954437220565 $114 24.867666004980553 $107 $184 forward 7 unknown #
coedge $-1 $185 $186 $57 $110 forward $187 $-1 #
edge $-1 $115 -24.867666004980553 $188 -15.870954437220565 $109 $189 forward 7 unknown #
coedge $-1 $190 $58 $186 $191 forward $113 $-1 #
coedge $-1 $58 $190 $183 $192 reversed $113 $-1 #
loop $-1 $-1 $58 $193 #
vertex $-1 $192 $194 #
vertex $-1 $191 $195 #
straight-curve $-1 45.236976226081119 0 7.4166293979052877 0 -1 0 I I #
face $-1 $-1 $75 $9 $-1 $196 reversed single #
loop $-1 $-1 $133 $60 #
plane-surface $-1 0 25.39121503501881 0 0 -1 0 0 0 -1 forward_v I I I I #
coedge $-1 $197 $131 $134 $198 forward $61 $-1 #
coedge $-1 $137 $63 $64 $125 reversed $37 $-1 #
coedge $-1 $131 $197 $63 $123 reversed $61 $-1 #
edge $-1 $138 -11.082261477197227 $199 11.082261477197227 $122 $200 forward 7 unknown #
coedge $-1 $65 $64 $197 $201 forward $25 $-1 #
edge $-1 $129 -45.236976226081119 $199 45.236976226081119 $121 $202 forward 7 unknown #
coedge $-1 $134 $133 $65 $127 reversed $118 $-1 #
edge $-1 $203 -45.236976226081119 $128 45.236976226081119 $126 $204 forward 7 unknown #
vertex $-1 $67 $205 #
vertex $-1 $140 $206 #
straight-curve $-1 45.236976226081119 0 -11.082261477197227 0 -1 0 I I #
coedge $-1 $120 $122 $68 $132 reversed $61 $-1 #
edge $-1 $135 -25.39121503501881 $138 25.39121503501881 $131 $207 forward 7 unknown #
coedge $-1 $126 $69 $74 $141 forward $118 $-1 #
coedge $-1 $69 $126 $120 $198 reversed $118 $-1 #
vertex $-1 $70 $208 #
straight-curve $-1 0 25.39121503501881 11.082261477197227 -1 0 0 I I #
coedge $-1 $71 $121 $73 $140 reversed $37 $-1 #
vertex $-1 $132 $209 #
straight-curve $-1 0 -25.39121503501881 11.082261477197227 1 0 0 I I #
edge $-1 $76 -11.082261477197227 $129 11.082261477197227 $73 $210 forward 7 unknown #
edge $-1 $77 -11.082261477197227 $128 11.082261477197227 $74 $211 forward 7 unknown #
point $-1 45.236976226081119 -25.39121503501881 11.082261477197227 #
point $-1 45.236976226081119 25.39121503501881 11.082261477197227 #
face $-1 $212 $163 $10 $-1 $213 reversed single #
plane-surface $-1 -45.236976226081119 0 0 1 0 0 0 0 -1 forward_v I I I I #
coedge $-1 $158 $214 $83 $151 forward $80 $-1 #
coedge $-1 $85 $82 $158 $215 reversed $45 $-1 #
coedge $-1 $82 $85 $161 $216 reversed $45 $-1 #
edge $-1 $159 -11.082261477197227 $164 11.082261477197227 $82 $217 forward 7 unknown #
coedge $-1 $84 $83 $218 $219 reversed $29 $-1 #
edge $-1 $220 -26.183778832578636 $154 -11.92261595442633 $146 $221 forward 7 unknown #
coedge $-1 $222 $161 $84 $153 forward $163 $-1 #
edge $-1 $155 11.92261595442633 $223 26.183778832578636 $152 $224 forward 7 unknown #
vertex $-1 $151 $225 #
vertex $-1 $153 $226 #
straight-curve $-1 -30.975813347928813 -3.2266920806243569 0 0 0 -1 I I #
coedge $-1 $227 $88 $93 $168 forward $80 $-1 #
coedge $-1 $88 $146 $147 $215 forward $80 $-1 #
vertex $-1 $89 $228 #
straight-curve $-1 -19.053197393502483 -7.7573405469544632 11.082261477197227 -1 0 0 I I #
coedge $-1 $152 $90 $148 $216 forward $163 $-1 #
coedge $-1 $90 $229 $92 $167 forward $163 $-1 #
loop $-1 $-1 $152 $144 #
vertex $-1 $91 $230 #
straight-curve $-1 -19.053197393502483 -7.7573405469544632 -11.082261477197227 1 0 0 I I #
coedge $-1 $93 $92 $231 $232 reversed $94 $-1 #
edge $-1 $233 -25.39121503501881 $96 -7.7573405469544632 $92 $234 forward 7 unknown #
edge $-1 $95 7.7573405469544632 $235 25.39121503501881 $93 $236 forward 7 unknown #
point $-1 -45.236976226081119 -7.7573405469544632 11.082261477197227 #
point $-1 -45.236976226081119 -7.7573405469544632 -11.082261477197227 #
face $-1 $237 $238 $11 $-1 $239 forward single #
loop $-1 $-1 $240 $98 #
plane-surface $-1 -38.106394787004966 -7.7573405469544632 0 0 1 0 0 0 1 forward_v I I I I #
coedge $-1 $241 $101 $179 $242 forward $53 $-1 #
coedge $-1 $101 $243 $244 $245 forward $53 $-1 #
edge $-1 $246 -25.39121503501881 $180 25.39121503501881 $101 $247 forward 7 unknown #
coedge $-1 $103 $102 $185 $248 reversed $33 $-1 #
edge $-1 $188 -25.39121503501881 $181 25.39121503501881 $103 $249 forward 7 unknown #
coedge $-1 $104 $250 $174 $242 reversed $99 $-1 #
vertex $-1 $242 $251 #
vertex $-1 $108 $252 #
straight-curve $-1 36.240264658321124 25.39121503501881 4.6247227187756286 0 0 -1 I I #
coedge $-1 $253 $107 $112 $192 forward $99 $-1 #
straight-curve $-1 20.369310221100559 25.39121503501881 7.4166293979052877 1 0 0 I I #
coedge $-1 $244 $109 $177 $248 forward $187 $-1 #
coedge $-1 $109 $254 $111 $191 reversed $187 $-1 #
loop $-1 $-1 $185 $255 #
vertex $-1 $110 $256 #
straight-curve $-1 20.369310221100559 -25.39121503501881 7.4166293979052877 -1 0 0 I I #
coedge $-1 $112 $111 $257 $258 reversed $113 $-1 #
edge $-1 $115 -7.4166293979052877 $259 11.082261477197227 $111 $260 forward 7 unknown #
edge $-1 $114 -7.4166293979052877 $261 11.082261477197227 $112 $262 forward 7 unknown #
face $-1 $-1 $113 $11 $-1 $263 reversed single #
point $-1 45.236976226081111 25.39121503501881 7.4166293979052877 #
point $-1 45.236976226081111 -25.39121503501881 7.4166293979052877 #
plane-surface $-1 45.236976226081119 0 0 -1 0 0 0 0 1 forward_v I I I I #
coedge $-1 $122 $120 $124 $201 reversed $61 $-1 #
edge $-1 $135 -11.082261477197227 $203 11.082261477197227 $134 $264 forward 7 unknown #
vertex $-1 $201 $265 #
straight-curve $-1 -45.236976226081119 -25.39121503501881 0 0 0 -1 I I #
edge $-1 $199 -25.39121503501881 $203 25.39121503501881 $197 $266 forward 7 unknown #
straight-curve $-1 0 -25.39121503501881 -11.082261477197227 -1 0 0 I I #
vertex $-1 $127 $267 #
straight-curve $-1 0 25.39121503501881 -11.082261477197227 1 0 0 I I #
point $-1 45.236976226081119 25.39121503501881 -11.082261477197227 #
point $-1 45.236976226081119 -25.39121503501881 -11.082261477197227 #
straight-curve $-1 -45.236976226081119 0 11.082261477197227 0 -1 0 I I #
point $-1 -45.236976226081119 25.39121503501881 11.082261477197227 #
point $-1 -45.236976226081119 -25.39121503501881 11.082261477197227 #
straight-curve $-1 45.236976226081119 -25.39121503501881 0 0 0 -1 I I #
straight-curve $-1 45.236976226081119 25.39121503501881 0 0 0 -1 I I #
face $-1 $268 $269 $10 $-1 $270 reversed single #
plane-surface $-1 0 0 -11.082261477197227 0 0 1 1 0 0 forward_v I I I I #
coedge $-1 $146 $271 $272 $273 forward $80 $-1 #
edge $-1 $154 0.48068392372965185 $159 5.0113323900597582 $158 $274 forward 7 unknown #
edge $-1 $164 -5.0113323900597582 $155 -0.48068392372965185 $161 $275 forward 7 unknown #
straight-curve $-1 -30.975813347928813 -7.7573405469544632 0 0 0 -1 I I #
coedge $-1 $272 $276 $150 $219 forward $277 $-1 #
edge $-1 $223 -11.082261477197227 $220 11.082261477197227 $218 $278 forward 7 unknown #
vertex $-1 $219 $279 #
straight-curve $-1 -19.053197393502483 -3.2266920806243569 11.082261477197227 1 0 0 I I #
coedge $-1 $280 $152 $276 $281 forward $163 $-1 #
vertex $-1 $281 $282 #
straight-curve $-1 -19.053197393502483 -3.2266920806243569 -11.082261477197227 -1 0 0 I I #
point $-1 -30.975813347928813 -3.2266920806243569 11.082261477197227 #
point $-1 -30.975813347928813 -3.2266920806243569 -11.082261477197227 #
coedge $-1 $283 $157 $284 $285 forward $80 $-1 #
point $-1 -30.975813347928813 -7.7573405469544632 11.082261477197227 #
coedge $-1 $162 $286 $287 $288 forward $163 $-1 #
point $-1 -30.975813347928813 -7.7573405469544632 -11.082261477197227 #
coedge $-1 $287 $284 $166 $232 forward $269 $-1 #
edge $-1 $235 -11.082261477197227 $233 11.082261477197227 $166 $289 forward 7 unknown #
vertex $-1 $167 $290 #
straight-curve $-1 -45.236976226081119 0 -11.082261477197227 0 1 0 I I #
vertex $-1 $168 $291 #
straight-curve $-1 -45.236976226081119 0 11.082261477197227 0 -1 0 I I #
face $-1 $292 $293 $11 $-1 $294 forward single #
loop $-1 $-1 $295 $171 #
plane-surface $-1 -38.106394787004966 -3.2266920806243569 0 0 -1 0 0 0 -1 forward_v I I I I #
coedge $-1 $296 $297 $298 $299 reversed $172 $-1 #
coedge $-1 $300 $174 $301 $302 forward $53 $-1 #
edge $-1 $180 -36.240264658321124 $303 45.236976226081119 $179 $304 forward 7 unknown #
coedge $-1 $175 $305 $306 $307 forward $53 $-1 #
coedge $-1 $308 $185 $175 $245 reversed $187 $-1 #
edge $-1 $309 -45.236976226081119 $246 36.240264658321124 $244 $310 forward 7 unknown #
vertex $-1 $176 $311 #
straight-curve $-1 36.240264658321124 0 11.082261477197227 0 1 0 I I #
edge $-1 $188 2.7919066791296592 $246 6.457538758421598 $185 $312 forward 7 unknown #
straight-curve $-1 36.240264658321124 0 7.4166293979052877 0 1 0 I I #
coedge $-1 $179 $253 $313 $314 reversed $99 $-1 #
point $-1 36.240264658321124 25.39121503501881 11.082261477197227 #
point $-1 36.240264658321124 25.39121503501881 7.4166293979052877 #
coedge $-1 $250 $183 $315 $316 reversed $99 $-1 #
coedge $-1 $186 $308 $317 $318 reversed $187 $-1 #
face $-1 $319 $187 $11 $-1 $320 reversed single #
point $-1 36.240264658321124 -25.39121503501881 7.4166293979052877 #
coedge $-1 $317 $315 $190 $258 forward $321 $-1 #
edge $-1 $261 -25.39121503501881 $259 25.39121503501881 $190 $322 forward 7 unknown #
vertex $-1 $191 $323 #
straight-curve $-1 45.236976226081119 -25.39121503501881 0 0 0 -1 I I #
vertex $-1 $258 $324 #
straight-curve $-1 45.236976226081119 25.39121503501881 0 0 0 -1 I I #
plane-surface $-1 45.236976226081119 0 0 -1 0 0 0 0 1 forward_v I I I I #
straight-curve $-1 -45.236976226081119 25.39121503501881 0 0 0 -1 I I #
point $-1 -45.236976226081119 -25.39121503501881 -11.082261477197227 #
straight-curve $-1 -45.236976226081119 0 -11.082261477197227 0 1 0 I I #
point $-1 -45.236976226081119 25.39121503501881 -11.082261477197227 #
face $-1 $325 $277 $10 $-1 $145 reversed single #
loop $-1 $-1 $231 $212 #
plane-surface $-1 0 -25.39121503501881 0 0 1 0 0 0 1 forward_v I I I I #
coedge $-1 $214 $283 $326 $327 forward $80 $-1 #
coedge $-1 $328 $218 $214 $273 reversed $277 $-1 #
edge $-1 $329 -25.39121503501881 $220 3.2266920806243569 $272 $236 forward 7 unknown #
straight-curve $-1 -30.975813347928813 -2.746008156894705 11.082261477197227 0 -1 0 I I #
straight-curve $-1 -30.975813347928813 -2.746008156894705 -11.082261477197227 0 1 0 I I #
coedge $-1 $218 $328 $222 $281 reversed $277 $-1 #
loop $-1 $-1 $218 $268 #
straight-curve $-1 -45.236976226081119 -3.2266920806243569 0 0 0 1 I I #
point $-1 -45.236976226081119 -3.2266920806243569 11.082261477197227 #
coedge $-1 $286 $222 $330 $331 forward $163 $-1 #
edge $-1 $223 -3.2266920806243569 $332 25.39121503501881 $276 $234 forward 7 unknown #
point $-1 -45.236976226081119 -3.2266920806243569 -11.082261477197227 #
coedge $-1 $271 $227 $333 $334 forward $80 $-1 #
coedge $-1 $231 $335 $227 $285 reversed $269 $-1 #
edge $-1 $235 -45.236976226081119 $336 45.236976226081119 $284 $337 forward 7 unknown #
coedge $-1 $229 $280 $338 $339 forward $163 $-1 #
coedge $-1 $335 $231 $229 $288 reversed $269 $-1 #
edge $-1 $340 -45.236976226081119 $233 45.236976226081119 $287 $341 forward 7 unknown #
straight-curve $-1 -45.236976226081119 -25.39121503501881 0 0 0 -1 I I #
point $-1 -45.236976226081119 -25.39121503501881 -11.082261477197227 #
point $-1 -45.236976226081119 -25.39121503501881 11.082261477197227 #
face $-1 $342 $343 $11 $-1 $344 reversed single #
loop $-1 $-1 $345 $237 #
plane-surface $-1 -30.975813347928813 -5.49201631378941 0 -1 0 0 0 0 1 forward_v I I I I #
coedge $-1 $346 $347 $348 $349 reversed $238 $-1 #
coedge $-1 $350 $240 $305 $351 reversed $172 $-1 #
coedge $-1 $240 $350 $352 $353 reversed $172 $-1 #
coedge $-1 $354 $306 $240 $299 forward $343 $-1 #
edge $-1 $355 -11.082261477197227 $356 11.082261477197227 $298 $357 forward 7 unknown #
coedge $-1 $358 $241 $346 $359 forward $53 $-1 #
coedge $-1 $313 $360 $241 $302 reversed $361 $-1 #
edge $-1 $303 -25.39121503501881 $362 3.2266920806243569 $301 $363 forward 7 unknown #
vertex $-1 $242 $364 #
straight-curve $-1 0 25.39121503501881 11.082261477197227 -1 0 0 I I #
coedge $-1 $243 $358 $296 $351 forward $53 $-1 #
coedge $-1 $298 $365 $243 $307 reversed $343 $-1 #
edge $-1 $355 7.7573405469544632 $309 25.39121503501881 $306 $363 forward 7 unknown #
coedge $-1 $254 $244 $365 $366 forward $187 $-1 #
vertex $-1 $307 $367 #
straight-curve $-1 0 -25.39121503501881 11.082261477197227 1 0 0 I I #
point $-1 36.240264658321124 -25.39121503501881 11.082261477197227 #
straight-curve $-1 36.240264658321124 -25.39121503501881 4.6247227187756286 0 0 1 I I #
coedge $-1 $368 $301 $250 $314 forward $361 $-1 #
edge $-1 $303 -11.082261477197227 $369 11.082261477197227 $250 $370 forward 7 unknown #
coedge $-1 $257 $371 $253 $316 forward $321 $-1 #
edge $-1 $369 -45.236976226081119 $261 45.236976226081119 $253 $372 forward 7 unknown #
coedge $-1 $373 $257 $254 $318 forward $321 $-1 #
edge $-1 $259 -45.236976226081119 $374 45.236976226081119 $254 $375 forward 7 unknown #
face $-1 $193 $361 $11 $-1 $344 reversed single #
plane-surface $-1 0 -25.39121503501881 0 0 1 0 0 0 1 forward_v I I I I #
loop $-1 $-1 $376 $342 #
straight-curve $-1 45.236976226081119 0 -11.082261477197227 0 -1 0 I I #
point $-1 45.236976226081119 -25.39121503501881 -11.082261477197227 #
point $-1 45.236976226081119 25.39121503501881 -11.082261477197227 #
face $-1 $377 $378 $10 $-1 $379 reversed single #
coedge $-1 $380 $381 $271 $327 reversed $378 $-1 #
edge $-1 $382 -45.236976226081119 $329 45.236976226081119 $326 $383 forward 7 unknown #
coedge $-1 $276 $272 $381 $384 forward $277 $-1 #
vertex $-1 $327 $385 #
coedge $-1 $381 $380 $280 $331 reversed $378 $-1 #
edge $-1 $332 -45.236976226081119 $386 45.236976226081119 $330 $387 forward 7 unknown #
vertex $-1 $331 $388 #
coedge $-1 $389 $390 $283 $334 reversed $391 $-1 #
edge $-1 $336 -25.39121503501881 $382 25.39121503501881 $333 $392 forward 7 unknown #
coedge $-1 $284 $287 $389 $393 reversed $269 $-1 #
vertex $-1 $334 $394 #
straight-curve $-1 0 -25.39121503501881 11.082261477197227 1 0 0 I I #
coedge $-1 $390 $389 $286 $339 reversed $391 $-1 #
edge $-1 $386 -25.39121503501881 $340 25.39121503501881 $338 $395 forward 7 unknown #
vertex $-1 $393 $396 #
straight-curve $-1 0 -25.39121503501881 -11.082261477197227 -1 0 0 I I #
face $-1 $255 $321 $11 $-1 $397 reversed single #
loop $-1 $-1 $298 $292 #
plane-surface $-1 -45.236976226081119 0 0 1 0 0 0 0 -1 forward_v I I I I #
coedge $-1 $398 $399 $350 $400 reversed $293 $-1 #
coedge $-1 $401 $295 $300 $359 reversed $238 $-1 #
coedge $-1 $295 $401 $376 $402 reversed $238 $-1 #
coedge $-1 $399 $398 $295 $349 forward $293 $-1 #
edge $-1 $403 -11.082261477197227 $404 11.082261477197227 $348 $405 forward 7 unknown #
coedge $-1 $297 $296 $345 $400 forward $172 $-1 #
edge $-1 $406 11.92261595442633 $355 26.183778832578636 $305 $407 forward 7 unknown #
coedge $-1 $408 $373 $297 $353 forward $321 $-1 #
edge $-1 $356 -26.183778832578636 $409 -11.92261595442633 $352 $410 forward 7 unknown #
coedge $-1 $365 $298 $373 $411 reversed $343 $-1 #
vertex $-1 $307 $412 #
vertex $-1 $299 $413 #
straight-curve $-1 -45.236976226081119 -7.7573405469544632 0 0 0 -1 I I #
coedge $-1 $305 $300 $398 $414 forward $53 $-1 #
edge $-1 $362 -26.183778832578636 $403 -11.92261595442633 $300 $415 forward 7 unknown #
coedge $-1 $301 $368 $401 $416 forward $361 $-1 #
loop $-1 $-1 $360 $319 #
vertex $-1 $416 $417 #
straight-curve $-1 -45.236976226081119 0 11.082261477197227 0 -1 0 I I #
point $-1 -45.236976226081119 25.39121503501881 11.082261477197227 #
coedge $-1 $306 $354 $308 $366 reversed $343 $-1 #
edge $-1 $309 -11.082261477197227 $374 11.082261477197227 $365 $418 forward 7 unknown #
point $-1 -45.236976226081119 -25.39121503501881 11.082261477197227 #
coedge $-1 $360 $313 $371 $419 reversed $361 $-1 #
vertex $-1 $316 $420 #
straight-curve $-1 -45.236976226081119 25.39121503501881 0 0 0 -1 I I #
coedge $-1 $315 $376 $368 $419 forward $321 $-1 #
straight-curve $-1 0 25.39121503501881 -11.082261477197227 1 0 0 I I #
coedge $-1 $352 $317 $354 $411 forward $321 $-1 #
vertex $-1 $411 $421 #
straight-curve $-1 0 -25.39121503501881 -11.082261477197227 -1 0 0 I I #
coedge $-1 $371 $408 $347 $402 forward $321 $-1 #
face $-1 $-1 $391 $10 $-1 $422 reversed single #
loop $-1 $-1 $380 $325 #
plane-surface $-1 0 25.39121503501881 0 0 -1 0 0 0 -1 forward_v I I I I #
coedge $-1 $330 $326 $390 $423 forward $378 $-1 #
coedge $-1 $326 $330 $328 $384 reversed $378 $-1 #
vertex $-1 $334 $424 #
straight-curve $-1 0 25.39121503501881 11.082261477197227 -1 0 0 I I #
edge $-1 $329 -11.082261477197227 $332 11.082261477197227 $381 $425 forward 7 unknown #
point $-1 -45.236976226081119 25.39121503501881 11.082261477197227 #
vertex $-1 $339 $426 #
straight-curve $-1 0 25.39121503501881 -11.082261477197227 1 0 0 I I #
point $-1 -45.236976226081119 25.39121503501881 -11.082261477197227 #
coedge $-1 $338 $333 $335 $393 forward $391 $-1 #
coedge $-1 $333 $338 $380 $423 reversed $391 $-1 #
loop $-1 $-1 $389 $377 #
straight-curve $-1 45.236976226081119 0 11.082261477197227 0 1 0 I I #
edge $-1 $336 -11.082261477197227 $340 11.082261477197227 $389 $427 forward 7 unknown #
point $-1 45.236976226081119 -25.39121503501881 11.082261477197227 #
straight-curve $-1 45.236976226081119 0 -11.082261477197227 0 -1 0 I I #
point $-1 45.236976226081119 -25.39121503501881 -11.082261477197227 #
plane-surface $-1 0 0 -11.082261477197227 0 0 1 1 0 0 forward_v I I I I #
coedge $-1 $348 $345 $358 $414 reversed $293 $-1 #
coedge $-1 $345 $348 $408 $428 reversed $293 $-1 #
edge $-1 $406 -11.082261477197227 $409 11.082261477197227 $345 $429 forward 7 unknown #
coedge $-1 $347 $346 $360 $416 reversed $238 $-1 #
edge $-1 $404 11.92261595442633 $430 26.183778832578636 $376 $431 forward 7 unknown #
vertex $-1 $359 $432 #
vertex $-1 $402 $433 #
straight-curve $-1 -30.975813347928813 -3.2266920806243569 0 0 0 -1 I I #
vertex $-1 $351 $434 #
straight-curve $-1 -19.053197393502483 -7.7573405469544632 11.082261477197227 -1 0 0 I I #
coedge $-1 $376 $352 $399 $428 forward $321 $-1 #
vertex $-1 $353 $435 #
straight-curve $-1 -19.053197393502483 -7.7573405469544632 -11.082261477197227 1 0 0 I I #
edge $-1 $374 -25.39121503501881 $356 -7.7573405469544632 $354 $436 forward 7 unknown #
point $-1 -45.236976226081119 -7.7573405469544632 11.082261477197227 #
point $-1 -45.236976226081119 -7.7573405469544632 -11.082261477197227 #
edge $-1 $403 0.48068392372965185 $406 5.0113323900597582 $358 $437 forward 7 unknown #
straight-curve $-1 -19.053197393502483 -3.2266920806243569 11.082261477197227 1 0 0 I I #
edge $-1 $430 -11.082261477197227 $362 11.082261477197227 $360 $438 forward 7 unknown #
point $-1 -45.236976226081119 -3.2266920806243569 11.082261477197227 #
straight-curve $-1 -45.236976226081119 -25.39121503501881 0 0 0 -1 I I #
edge $-1 $430 -3.2266920806243569 $369 25.39121503501881 $368 $436 forward 7 unknown #
point $-1 -45.236976226081119 25.39121503501881 -11.082261477197227 #
point $-1 -45.236976226081119 -25.39121503501881 -11.082261477197227 #
plane-surface $-1 45.236976226081119 0 0 -1 0 0 0 0 1 forward_v I I I I #
edge $-1 $382 -11.082261477197227 $386 11.082261477197227 $390 $439 forward 7 unknown #
point $-1 45.236976226081119 25.39121503501881 11.082261477197227 #
straight-curve $-1 -45.236976226081119 25.39121503501881 0 0 0 -1 I I #
point $-1 45.236976226081119 25.39121503501881 -11.082261477197227 #
straight-curve $-1 45.236976226081119 -25.39121503501881 0 0 0 -1 I I #
edge $-1 $409 -5.0113323900597582 $404 -0.48068392372965185 $408 $440 forward 7 unknown #
straight-curve $-1 -30.975813347928813 -7.7573405469544632 0 0 0 -1 I I #
vertex $-1 $419 $441 #
straight-curve $-1 -19.053197393502483 -3.2266920806243569 -11.082261477197227 -1 0 0 I I #
point $-1 -30.975813347928813 -3.2266920806243569 11.082261477197227 #
point $-1 -30.975813347928813 -3.2266920806243569 -11.082261477197227 #
point $-1 -30.975813347928813 -7.7573405469544632 11.082261477197227 #
point $-1 -30.975813347928813 -7.7573405469544632 -11.082261477197227 #
straight-curve $-1 -45.236976226081119 0 -11.082261477197227 0 1 0 I I #
straight-curve $-1 -30.975813347928813 -2.746008156894705 11.082261477197227 0 -1 0 I I #
straight-curve $-1 -45.236976226081119 -3.2266920806243569 0 0 0 1 I I #
straight-curve $-1 45.236976226081119 25.39121503501881 0 0 0 -1 I I #
straight-curve $-1 -30.975813347928813 -2.746008156894705 -11.082261477197227 0 1 0 I I #
point $-1 -45.236976226081119 -3.2266920806243569 -11.082261477197227 #
End-of-ACIS-data 