500 0 6 0           
7 Unknown 11 ACIS 5.0 NT 24 Fri Mar 26 18:33:24 1999 
-1 9.9999999999999995e-007 1e-010 
body $-1 $6 $-1 $7 #
body $-1 $8 $-1 $9 #
body $-1 $10 $-1 $11 #
body $-1 $12 $-1 $13 #
body $-1 $14 $-1 $15 #
body $-1 $16 $-1 $17 #
lump $-1 $-1 $18 $0 #
transform $-1 1 0 0 0 1 0 0 0 1 42.326731162450024 19.219025368641628 8.0017588332516425 1 rotate no_reflect no_shear #
lump $-1 $-1 $19 $1 #
transform $-1 1 0 0 0 1 0 0 0 1 42.326731162450024 19.219025368641628 8.0017588332516425 1 rotate no_reflect no_shear #
lump $-1 $-1 $20 $2 #
transform $-1 1 0 0 0 1 0 0 0 1 42.326731162450024 19.219025368641628 8.0017588332516425 1 rotate no_reflect no_shear #
lump $-1 $-1 $21 $3 #
transform $-1 1 0 0 0 1 0 0 0 1 42.326731162450024 19.219025368641628 8.0017588332516425 1 rotate no_reflect no_shear #
lump $-1 $-1 $22 $4 #
transform $-1 1 0 0 0 1 0 0 0 1 42.326731162450024 19.219025368641628 8.0017588332516425 1 rotate no_reflect no_shear #
lump $-1 $-1 $23 $5 #
transform $-1 1 0 0 0 1 0 0 0 1 42.326731162450024 19.219025368641628 8.0017588332516425 1 rotate no_reflect no_shear #
shell $-1 $-1 $-1 $24 $-1 $6 #
shell $-1 $-1 $-1 $25 $-1 $8 #
shell $-1 $-1 $-1 $26 $-1 $10 #
shell $-1 $-1 $-1 $27 $-1 $12 #
shell $-1 $-1 $-1 $28 $-1 $14 #
shell $-1 $-1 $-1 $29 $-1 $16 #
face $-1 $30 $31 $18 $-1 $32 forward single #
face $-1 $33 $34 $19 $-1 $35 forward single #
face $-1 $36 $37 $20 $-1 $38 reversed single #
face $-1 $39 $40 $21 $-1 $41 forward single #
face $-1 $42 $43 $22 $-1 $44 reversed single #
face $-1 $45 $46 $23 $-1 $47 forward single #
face $-1 $48 $49 $18 $-1 $50 reversed single #
loop $-1 $-1 $51 $24 #
plane-surface $-1 0 0 8.0017588332516425 0 0 1 1 0 0 forward_v I I I I #
face $-1 $52 $53 $19 $-1 $54 reversed single #
loop $-1 $-1 $55 $25 #
plane-surface $-1 0 -14.305178163117894 -5.0017588332516425 0 0 1 1 0 0 forward_v I I I I #
face $-1 $56 $57 $20 $-1 $58 reversed single #
loop $-1 $-1 $59 $26 #
plane-surface $-1 -39.554045292503858 59.359838100077781 88.717112151114875 1 0 0 0 -0.7660444514056185 -0.64278759981090561 forward_v I I I I #
face $-1 $60 $61 $21 $-1 $62 forward single #
loop $-1 $63 $64 $27 #
cone-surface $-1 -34.941598044914507 16.537243302044818 5.2862886225740411 0 -0.7660444514056185 -0.64278759981090561 1 0 0 1 I I 0 1 1 forward I I I I #
face $-1 $65 $66 $22 $-1 $67 reversed single #
loop $-1 $-1 $68 $28 #
plane-surface $-1 2.7726858699461641 59.359838100077781 88.717112151114875 1 0 0 0 -0.7660444514056185 -0.64278759981090561 forward_v I I I I #
face $-1 $69 $70 $23 $-1 $71 forward single #
loop $-1 $72 $73 $29 #
cone-surface $-1 7.385133117535517 16.537243302044818 5.2862886225740411 0 -0.7660444514056185 -0.64278759981090561 1 0 0 1 I I 0 1 1 forward I I I I #
face $-1 $74 $75 $18 $-1 $76 reversed single #
loop $-1 $-1 $77 $30 #
plane-surface $-1 0 0 -8.0017588332516425 0 0 1 1 0 0 forward_v I I I I #
coedge $-1 $78 $79 $80 $81 forward $31 $-1 #
face $-1 $82 $83 $19 $-1 $84 reversed single #
loop $-1 $-1 $85 $33 #
plane-surface $-1 0 -9.3913309575941604 -6.5017588332516425 0 -1 0 0 0 -1 forward_v I I I I #
coedge $-1 $86 $87 $88 $89 reversed $34 $-1 #
face $-1 $90 $91 $20 $-1 $92 reversed single #
loop $-1 $-1 $93 $36 #
plane-surface $-1 -34.941598044914507 -5.4884770061864714 34.302916287609449 0 0.7660444514056185 0.64278759981090561 1 0 0 forward_v I I I I #
coedge $-1 $94 $95 $96 $97 reversed $37 $-1 #
face $-1 $-1 $98 $21 $-1 $99 forward single #
loop $-1 $100 $101 $39 #
cone-surface $-1 -34.941598044914507 14.791544726315916 3.8214736298838297 0 -0.7660444514056185 -0.64278759981090561 0.5 0 0 1 I I -0.70710678118654746 0.70710678118654746 0.5 forward I I I I #
loop $-1 $-1 $102 $27 #
coedge $-1 $64 $64 $103 $104 reversed $40 $-1 #
face $-1 $105 $106 $22 $-1 $107 reversed single #
loop $-1 $-1 $108 $42 #
plane-surface $-1 7.385133117535517 -5.4884770061864714 34.302916287609449 0 0.7660444514056185 0.64278759981090561 1 0 0 forward_v I I I I #
coedge $-1 $109 $110 $111 $112 reversed $43 $-1 #
face $-1 $-1 $113 $23 $-1 $114 forward single #
loop $-1 $115 $116 $45 #
cone-surface $-1 7.385133117535517 14.791544726315916 3.8214736298838297 0 -0.7660444514056185 -0.64278759981090561 0.5 0 0 1 I I -0.70710678118654746 0.70710678118654746 0.5 forward I I I I #
loop $-1 $-1 $117 $29 #
coedge $-1 $73 $73 $118 $119 reversed $46 $-1 #
face $-1 $120 $121 $18 $-1 $122 reversed single #
loop $-1 $-1 $123 $48 #
plane-surface $-1 0 -19.219025368641628 0 0 1 0 0 0 1 forward_v I I I I #
coedge $-1 $124 $125 $126 $127 forward $49 $-1 #
coedge $-1 $128 $51 $129 $130 forward $31 $-1 #
coedge $-1 $51 $128 $131 $132 forward $31 $-1 #
coedge $-1 $133 $134 $51 $81 reversed $135 $-1 #
edge $-1 $136 -19.219025368641628 $137 19.219025368641628 $80 $138 forward 7 unknown #
face $-1 $139 $140 $19 $-1 $141 reversed single #
loop $-1 $-1 $142 $52 #
plane-surface $-1 0 0 -8.0017588332516425 0 0 1 1 0 0 forward_v I I I I #
coedge $-1 $143 $144 $145 $146 reversed $53 $-1 #
coedge $-1 $147 $55 $144 $148 forward $34 $-1 #
coedge $-1 $55 $147 $149 $150 reversed $34 $-1 #
coedge $-1 $151 $145 $55 $89 forward $140 $-1 #
edge $-1 $152 2.2387418760352134 $153 12.066436287082681 $88 $154 forward 7 unknown #
face $-1 $155 $156 $20 $-1 $157 reversed single #
loop $-1 $-1 $158 $56 #
plane-surface $-1 -30.329150797325156 59.359838100077781 88.717112151114875 -1 0 0 0 0.7660444514056185 0.64278759981090561 forward_v I I I I #
coedge $-1 $159 $160 $161 $162 reversed $57 $-1 #
coedge $-1 $95 $59 $163 $164 reversed $37 $-1 #
coedge $-1 $59 $94 $159 $165 reversed $37 $-1 #
coedge $-1 $161 $166 $59 $97 forward $167 $-1 #
edge $-1 $168 10.460893681397263 $169 13.099105114538677 $96 $170 forward 7 unknown #
loop $-1 $-1 $103 $60 #
plane-surface $-1 -34.941598044914507 -5.4884770061864714 34.302916287609449 0 0.7660444514056185 0.64278759981090561 1 0 0 forward_v I I I I #
loop $-1 $-1 $171 $39 #
coedge $-1 $101 $101 $102 $172 reversed $61 $-1 #
coedge $-1 $102 $102 $101 $172 forward $63 $-1 #
coedge $-1 $103 $103 $64 $104 forward $98 $-1 #
edge $-1 $173 1.0712010603961868e-015 $173 6.2831853071796013 $103 $174 forward 7 unknown #
face $-1 $175 $176 $22 $-1 $177 forward single #
loop $-1 $-1 $178 $65 #
plane-surface $-1 11.99758036512487 59.359838100077781 88.717112151114875 -1 0 0 0 0.7660444514056185 0.64278759981090561 forward_v I I I I #
coedge $-1 $179 $180 $181 $182 reversed $66 $-1 #
coedge $-1 $110 $68 $183 $184 reversed $43 $-1 #
coedge $-1 $68 $109 $179 $185 reversed $43 $-1 #
coedge $-1 $181 $186 $68 $112 forward $176 $-1 #
edge $-1 $187 10.460893681397263 $188 13.099105114538677 $111 $189 forward 7 unknown #
loop $-1 $-1 $118 $69 #
plane-surface $-1 7.385133117535517 -5.4884770061864714 34.302916287609449 0 0.7660444514056185 0.64278759981090561 1 0 0 forward_v I I I I #
loop $-1 $-1 $190 $45 #
coedge $-1 $116 $116 $117 $191 reversed $70 $-1 #
coedge $-1 $117 $117 $116 $191 forward $72 $-1 #
coedge $-1 $118 $118 $73 $119 forward $113 $-1 #
edge $-1 $192 1.0712010603961868e-015 $192 6.2831853071796013 $118 $193 forward 7 unknown #
face $-1 $194 $195 $18 $-1 $196 reversed single #
loop $-1 $-1 $197 $74 #
plane-surface $-1 -42.326731162450024 0 0 1 0 0 0 0 -1 forward_v I I I I #
coedge $-1 $198 $131 $199 $200 forward $75 $-1 #
coedge $-1 $201 $77 $198 $202 forward $49 $-1 #
coedge $-1 $77 $201 $203 $204 forward $49 $-1 #
coedge $-1 $134 $133 $77 $127 reversed $135 $-1 #
edge $-1 $205 -19.219025368641628 $206 19.219025368641628 $126 $207 forward 7 unknown #
coedge $-1 $79 $78 $208 $209 forward $31 $-1 #
coedge $-1 $210 $211 $78 $130 reversed $195 $-1 #
edge $-1 $137 -42.326731162450024 $212 42.326731162450024 $129 $213 forward 7 unknown #
coedge $-1 $123 $214 $79 $132 reversed $75 $-1 #
edge $-1 $215 -42.326731162450024 $136 42.326731162450024 $131 $216 forward 7 unknown #
coedge $-1 $126 $80 $214 $217 forward $135 $-1 #
coedge $-1 $80 $126 $210 $218 reversed $135 $-1 #
loop $-1 $-1 $133 $194 #
vertex $-1 $81 $219 #
vertex $-1 $81 $220 #
straight-curve $-1 42.326731162450024 0 8.0017588332516425 0 1 0 I I #
face $-1 $221 $222 $19 $-1 $223 reversed single #
loop $-1 $-1 $145 $82 #
plane-surface $-1 42.326731162450024 0 0 -1 0 0 0 0 1 forward_v I I I I #
coedge $-1 $224 $225 $143 $226 forward $83 $-1 #
coedge $-1 $227 $85 $142 $226 reversed $53 $-1 #
coedge $-1 $85 $227 $86 $148 reversed $53 $-1 #
coedge $-1 $88 $228 $85 $146 forward $140 $-1 #
edge $-1 $229 -4.7508794166258212 $152 -1.7508794166258212 $145 $230 forward 7 unknown #
coedge $-1 $87 $86 $231 $232 reversed $34 $-1 #
edge $-1 $152 -42.326731162450024 $233 42.326731162450024 $144 $234 forward 7 unknown #
coedge $-1 $235 $236 $87 $150 forward $222 $-1 #
edge $-1 $153 -42.326731162450024 $237 42.326731162450024 $149 $238 forward 7 unknown #
coedge $-1 $228 $88 $236 $239 forward $140 $-1 #
vertex $-1 $89 $240 #
vertex $-1 $239 $241 #
straight-curve $-1 42.326731162450024 -7.152589081558947 -5.0017588332516425 0 -1 0 I I #
face $-1 $-1 $167 $20 $-1 $242 forward single #
loop $-1 $-1 $243 $90 #
plane-surface $-1 0 19.219025368641628 0 0 -1 0 0 0 -1 forward_v I I I I #
coedge $-1 $244 $245 $246 $247 reversed $91 $-1 #
coedge $-1 $248 $93 $95 $165 forward $57 $-1 #
coedge $-1 $93 $248 $244 $249 forward $57 $-1 #
coedge $-1 $246 $96 $93 $162 forward $167 $-1 #
edge $-1 $169 -22.083246270046605 $250 -12.858351774867902 $161 $251 forward 7 unknown #
coedge $-1 $252 $253 $94 $164 forward $156 $-1 #
edge $-1 $254 -39.500895278091448 $168 -36.356797242305795 $163 $255 forward 7 unknown #
edge $-1 $169 34.333722287391673 $254 38.438050737283241 $95 $256 forward 7 unknown #
coedge $-1 $96 $246 $252 $257 forward $167 $-1 #
loop $-1 $-1 $246 $155 #
vertex $-1 $164 $258 #
vertex $-1 $97 $259 #
straight-curve $-1 -39.554045292503858 29.67991905003889 8.0017588332516425 0 -1 0 I I #
coedge $-1 $171 $171 $-1 $260 reversed $100 $-1 #
edge $-1 $261 0 $261 6.2831853071796004 $101 $262 forward 7 unknown #
vertex $-1 $104 $263 #
ellipse-curve $-1 -34.941598044914507 17.899919652070928 6.4297098153588124 0 0.7660444514056185 0.64278759981090561 1 0 0 1 I I #
face $-1 $-1 $264 $22 $-1 $265 reversed single #
loop $-1 $-1 $111 $105 #
plane-surface $-1 0 0 8.0017588332516425 0 0 1 1 0 0 forward_v I I I I #
coedge $-1 $266 $267 $268 $269 reversed $106 $-1 #
coedge $-1 $270 $108 $110 $185 forward $66 $-1 #
coedge $-1 $108 $270 $266 $271 forward $66 $-1 #
coedge $-1 $268 $111 $108 $182 forward $176 $-1 #
edge $-1 $188 -0.91988068882159446 $272 8.3050138063571115 $181 $273 forward 7 unknown #
coedge $-1 $274 $275 $109 $184 forward $264 $-1 #
edge $-1 $276 -39.500895278091448 $187 -36.356797242305795 $183 $277 forward 7 unknown #
edge $-1 $188 34.333722287391673 $276 38.438050737283241 $110 $278 forward 7 unknown #
coedge $-1 $111 $268 $274 $279 forward $176 $-1 #
vertex $-1 $112 $280 #
vertex $-1 $112 $281 #
straight-curve $-1 2.7726858699461641 29.67991905003889 8.0017588332516425 0 -1 0 I I #
coedge $-1 $190 $190 $-1 $282 reversed $115 $-1 #
edge $-1 $283 0 $283 6.2831853071796004 $116 $284 forward 7 unknown #
vertex $-1 $119 $285 #
ellipse-curve $-1 7.385133117535517 17.899919652070928 6.4297098153588124 0 0.7660444514056185 0.64278759981090561 1 0 0 1 I I #
face $-1 $-1 $135 $18 $-1 $286 reversed single #
loop $-1 $-1 $210 $120 #
plane-surface $-1 0 19.219025368641628 0 0 -1 0 0 0 -1 forward_v I I I I #
coedge $-1 $287 $208 $211 $288 forward $121 $-1 #
coedge $-1 $214 $123 $124 $202 reversed $75 $-1 #
coedge $-1 $208 $287 $123 $200 reversed $121 $-1 #
edge $-1 $215 -8.0017588332516425 $289 8.0017588332516425 $199 $290 forward 7 unknown #
coedge $-1 $125 $124 $287 $291 forward $49 $-1 #
edge $-1 $206 -42.326731162450024 $289 42.326731162450024 $198 $292 forward 7 unknown #
coedge $-1 $211 $210 $125 $204 reversed $195 $-1 #
edge $-1 $293 -42.326731162450024 $205 42.326731162450024 $203 $294 forward 7 unknown #
vertex $-1 $127 $295 #
vertex $-1 $217 $296 #
straight-curve $-1 42.326731162450024 0 -8.0017588332516425 0 -1 0 I I #
coedge $-1 $197 $199 $128 $209 reversed $121 $-1 #
edge $-1 $212 -19.219025368641628 $215 19.219025368641628 $208 $297 forward 7 unknown #
coedge $-1 $203 $129 $134 $218 forward $195 $-1 #
coedge $-1 $129 $203 $197 $288 reversed $195 $-1 #
vertex $-1 $130 $298 #
straight-curve $-1 0 19.219025368641628 8.0017588332516425 -1 0 0 I I #
coedge $-1 $131 $198 $133 $217 reversed $75 $-1 #
vertex $-1 $209 $299 #
straight-curve $-1 0 -19.219025368641628 8.0017588332516425 1 0 0 I I #
edge $-1 $136 -8.0017588332516425 $206 8.0017588332516425 $133 $300 forward 7 unknown #
edge $-1 $137 -8.0017588332516425 $205 8.0017588332516425 $134 $301 forward 7 unknown #
point $-1 42.326731162450024 -19.219025368641628 8.0017588332516425 #
point $-1 42.326731162450024 19.219025368641628 8.0017588332516425 #
face $-1 $-1 $302 $19 $-1 $303 reversed single #
loop $-1 $-1 $149 $139 #
plane-surface $-1 0 -19.219025368641628 0 0 1 0 0 0 1 forward_v I I I I #
coedge $-1 $304 $142 $228 $305 forward $83 $-1 #
coedge $-1 $142 $304 $306 $307 forward $83 $-1 #
edge $-1 $308 -42.326731162450024 $229 42.326731162450024 $142 $309 forward 7 unknown #
coedge $-1 $144 $143 $310 $311 reversed $53 $-1 #
coedge $-1 $145 $151 $224 $305 reversed $140 $-1 #
vertex $-1 $305 $312 #
straight-curve $-1 42.326731162450024 -9.3913309575941604 -3.2508794166258212 0 0 1 I I #
coedge $-1 $310 $313 $147 $232 forward $302 $-1 #
edge $-1 $237 -12.066436287082681 $233 -2.2387418760352134 $231 $314 forward 7 unknown #
vertex $-1 $232 $315 #
straight-curve $-1 0 -9.3913309575941604 -5.0017588332516425 -1 0 0 I I #
coedge $-1 $316 $149 $313 $317 forward $222 $-1 #
coedge $-1 $149 $316 $151 $239 reversed $222 $-1 #
vertex $-1 $317 $318 #
straight-curve $-1 0 -19.219025368641628 -5.0017588332516425 -1 0 0 I I #
edge $-1 $153 5.0017588332516425 $319 8.0017588332516425 $151 $320 forward 7 unknown #
point $-1 42.326731162450024 -9.3913309575941604 -5.0017588332516425 #
point $-1 42.326731162450024 -19.219025368641628 -5.0017588332516425 #
plane-surface $-1 0 0 8.0017588332516425 0 0 1 1 0 0 forward_v I I I I #
coedge $-1 $253 $252 $245 $321 forward $156 $-1 #
coedge $-1 $245 $158 $160 $249 reversed $91 $-1 #
coedge $-1 $158 $244 $243 $321 reversed $91 $-1 #
coedge $-1 $166 $161 $158 $247 forward $167 $-1 #
edge $-1 $250 -13.099105114538677 $322 -10.460893681397263 $246 $323 forward 7 unknown #
coedge $-1 $160 $159 $253 $324 reversed $57 $-1 #
edge $-1 $325 -38.438050737283241 $250 -34.333722287391673 $244 $326 forward 7 unknown #
vertex $-1 $162 $327 #
straight-curve $-1 -17.470799022457253 16.580813935500217 8.0017588332516425 1 0 0 I I #
coedge $-1 $243 $163 $166 $257 reversed $156 $-1 #
coedge $-1 $163 $243 $248 $324 forward $156 $-1 #
vertex $-1 $164 $328 #
straight-curve $-1 -39.554045292503858 19.219025368641628 44.358556075557438 0 0 1 I I #
straight-curve $-1 -39.554045292503858 -5.4884770061864714 34.302916287609449 0 0.64278759981090561 -0.7660444514056185 I I #
edge $-1 $322 30.329150797325156 $168 39.554045292503858 $252 $329 forward 7 unknown #
point $-1 -39.554045292503858 19.219025368641628 8.0017588332516425 #
point $-1 -39.554045292503858 16.580813935500213 8.0017588332516461 #
edge $-1 $330 1 $330 0 $171 $-1 forward 7 unknown #
vertex $-1 $172 $331 #
ellipse-curve $-1 -34.941598044914507 15.174566952018726 4.1428674297892822 0 0.7660444514056185 0.64278759981090561 1 0 0 1 I I #
point $-1 -33.941598044914507 17.899919652070913 6.429709815358799 #
loop $-1 $-1 $183 $175 #
plane-surface $-1 0 19.219025368641628 0 0 -1 0 0 0 -1 forward_v I I I I #
coedge $-1 $267 $178 $180 $271 reversed $106 $-1 #
coedge $-1 $178 $266 $332 $333 reversed $106 $-1 #
coedge $-1 $186 $181 $178 $269 forward $176 $-1 #
edge $-1 $272 -13.099105114538677 $334 -10.460893681397263 $268 $335 forward 7 unknown #
coedge $-1 $180 $179 $275 $336 reversed $66 $-1 #
edge $-1 $337 -38.438050737283241 $272 -34.333722287391673 $266 $338 forward 7 unknown #
vertex $-1 $182 $339 #
straight-curve $-1 3.6925665587677585 16.580813935500217 8.0017588332516425 1 0 0 I I #
coedge $-1 $332 $183 $186 $279 reversed $264 $-1 #
coedge $-1 $183 $332 $270 $336 forward $264 $-1 #
vertex $-1 $184 $340 #
straight-curve $-1 2.7726858699461641 19.219025368641628 44.358556075557438 0 0 1 I I #
straight-curve $-1 2.7726858699461641 -5.4884770061864714 34.302916287609449 0 0.64278759981090561 -0.7660444514056185 I I #
edge $-1 $334 -11.99758036512487 $187 -2.7726858699461641 $274 $341 forward 7 unknown #
point $-1 2.7726858699461641 19.219025368641628 8.0017588332516425 #
point $-1 2.7726858699461641 16.580813935500213 8.0017588332516461 #
edge $-1 $342 1 $342 0 $190 $-1 forward 7 unknown #
vertex $-1 $191 $343 #
ellipse-curve $-1 7.385133117535517 15.174566952018726 4.1428674297892822 0 0.7660444514056185 0.64278759981090561 1 0 0 1 I I #
point $-1 8.385133117535517 17.899919652070913 6.429709815358799 #
plane-surface $-1 42.326731162450024 0 0 -1 0 0 0 0 1 forward_v I I I I #
coedge $-1 $199 $197 $201 $291 reversed $121 $-1 #
edge $-1 $212 -8.0017588332516425 $293 8.0017588332516425 $211 $344 forward 7 unknown #
vertex $-1 $291 $345 #
straight-curve $-1 -42.326731162450024 -19.219025368641628 0 0 0 -1 I I #
edge $-1 $289 -19.219025368641628 $293 19.219025368641628 $287 $346 forward 7 unknown #
straight-curve $-1 0 -19.219025368641628 -8.0017588332516425 -1 0 0 I I #
vertex $-1 $204 $347 #
straight-curve $-1 0 19.219025368641628 -8.0017588332516425 1 0 0 I I #
point $-1 42.326731162450024 19.219025368641628 -8.0017588332516425 #
point $-1 42.326731162450024 -19.219025368641628 -8.0017588332516425 #
straight-curve $-1 -42.326731162450024 0 8.0017588332516425 0 -1 0 I I #
point $-1 -42.326731162450024 19.219025368641628 8.0017588332516425 #
point $-1 -42.326731162450024 -19.219025368641628 8.0017588332516425 #
straight-curve $-1 42.326731162450024 -19.219025368641628 0 0 0 -1 I I #
straight-curve $-1 42.326731162450024 19.219025368641628 0 0 0 -1 I I #
loop $-1 $-1 $310 $221 #
plane-surface $-1 -42.326731162450024 0 0 1 0 0 0 0 -1 forward_v I I I I #
coedge $-1 $225 $224 $316 $348 forward $83 $-1 #
edge $-1 $229 9.3913309575941604 $319 19.219025368641628 $228 $349 forward 7 unknown #
coedge $-1 $313 $310 $225 $307 reversed $302 $-1 #
edge $-1 $350 -19.219025368641628 $308 -9.3913309575941604 $306 $351 forward 7 unknown #
vertex $-1 $311 $352 #
straight-curve $-1 0 -9.3913309575941604 -8.0017588332516425 1 0 0 I I #
coedge $-1 $306 $231 $227 $311 forward $302 $-1 #
edge $-1 $233 1.7508794166258212 $308 4.7508794166258212 $310 $353 forward 7 unknown #
point $-1 42.326731162450024 -9.3913309575941604 -8.0017588332516425 #
coedge $-1 $231 $306 $235 $317 reversed $302 $-1 #
straight-curve $-1 -42.326731162450024 -7.152589081558947 -5.0017588332516425 0 1 0 I I #
point $-1 -42.326731162450024 -9.3913309575941604 -5.0017588332516425 #
coedge $-1 $236 $235 $304 $348 reversed $222 $-1 #
edge $-1 $237 5.0017588332516425 $350 8.0017588332516425 $313 $354 forward 7 unknown #
point $-1 -42.326731162450024 -19.219025368641628 -5.0017588332516425 #
vertex $-1 $239 $355 #
straight-curve $-1 42.326731162450024 -19.219025368641628 0 0 0 -1 I I #
edge $-1 $322 36.356797242305795 $325 39.500895278091448 $243 $356 forward 7 unknown #
vertex $-1 $257 $357 #
straight-curve $-1 -30.329150797325156 29.67991905003889 8.0017588332516425 0 1 0 I I #
edge $-1 $325 12.858351774867902 $254 22.083246270046605 $253 $358 forward 7 unknown #
vertex $-1 $324 $359 #
straight-curve $-1 -30.329150797325156 -5.4884770061864714 34.302916287609449 0 -0.64278759981090561 0.7660444514056185 I I #
point $-1 -30.329150797325156 16.580813935500213 8.0017588332516461 #
point $-1 -39.554045292503858 19.219025368641628 4.8576607974659858 #
straight-curve $-1 0 19.219025368641628 8.0017588332516425 -1 0 0 I I #
vertex $-1 $260 $360 #
point $-1 -33.941598044914507 15.174566952018726 4.1428674297892822 #
coedge $-1 $275 $274 $267 $333 forward $264 $-1 #
edge $-1 $334 36.356797242305795 $337 39.500895278091448 $332 $361 forward 7 unknown #
vertex $-1 $279 $362 #
straight-curve $-1 11.99758036512487 29.67991905003889 8.0017588332516425 0 1 0 I I #
edge $-1 $337 -8.3050138063571115 $276 0.91988068882159446 $275 $363 forward 7 unknown #
vertex $-1 $336 $364 #
straight-curve $-1 11.99758036512487 -5.4884770061864714 34.302916287609449 0 -0.64278759981090561 0.7660444514056185 I I #
point $-1 11.99758036512487 16.580813935500213 8.0017588332516461 #
point $-1 2.7726858699461641 19.219025368641628 4.8576607974659858 #
straight-curve $-1 0 19.219025368641628 8.0017588332516425 -1 0 0 I I #
vertex $-1 $282 $365 #
point $-1 8.385133117535517 15.174566952018726 4.1428674297892822 #
straight-curve $-1 -42.326731162450024 19.219025368641628 0 0 0 -1 I I #
point $-1 -42.326731162450024 -19.219025368641628 -8.0017588332516425 #
straight-curve $-1 -42.326731162450024 0 -8.0017588332516425 0 1 0 I I #
point $-1 -42.326731162450024 19.219025368641628 -8.0017588332516425 #
edge $-1 $319 -42.326731162450024 $350 42.326731162450024 $316 $366 forward 7 unknown #
straight-curve $-1 42.326731162450024 0 -8.0017588332516425 0 -1 0 I I #
vertex $-1 $307 $367 #
straight-curve $-1 -42.326731162450024 0 -8.0017588332516425 0 1 0 I I #
point $-1 -42.326731162450024 -9.3913309575941604 -8.0017588332516425 #
straight-curve $-1 -42.326731162450024 -9.3913309575941604 -3.2508794166258212 0 0 -1 I I #
straight-curve $-1 -42.326731162450024 -19.219025368641628 0 0 0 -1 I I #
point $-1 42.326731162450024 -19.219025368641628 -8.0017588332516425 #
straight-curve $-1 -30.329150797325156 19.219025368641628 44.358556075557438 0 0 -1 I I #
point $-1 -30.329150797325156 19.219025368641628 8.0017588332516425 #
straight-curve $-1 -17.470799022457253 19.219025368641624 4.8576607974659893 -1 0 0 I I #
point $-1 -30.329150797325156 19.219025368641628 4.8576607974659858 #
point $-1 -34.941598044914507 14.408522500613106 3.5000798299783771 #
straight-curve $-1 11.99758036512487 19.219025368641628 44.358556075557438 0 0 -1 I I #
point $-1 11.99758036512487 19.219025368641628 8.0017588332516425 #
straight-curve $-1 3.6925665587677585 19.219025368641624 4.8576607974659893 -1 0 0 I I #
point $-1 11.99758036512487 19.219025368641628 4.8576607974659858 #
point $-1 7.385133117535517 14.408522500613106 3.5000798299783771 #
straight-curve $-1 0 -19.219025368641628 -8.0017588332516425 -1 0 0 I I #
point $-1 -42.326731162450024 -19.219025368641628 -8.0017588332516425 #
End-of-ACIS-data 