500 0 11 0           
7 Unknown 11 ACIS 5.0 NT 24 Fri Mar 26 20:08:33 1999 
-1 9.9999999999999995e-007 1e-010 
body $-1 $11 $-1 $12 #
body $-1 $13 $-1 $14 #
body $-1 $15 $-1 $16 #
body $-1 $17 $-1 $18 #
body $-1 $19 $-1 $20 #
body $-1 $21 $-1 $22 #
body $-1 $23 $-1 $24 #
body $-1 $25 $-1 $26 #
body $-1 $27 $-1 $28 #
body $-1 $29 $-1 $30 #
body $-1 $31 $-1 $32 #
lump $-1 $-1 $33 $0 #
transform $-1 1 0 0 0 1 0 0 0 1 45.333414716025267 19.209596951432722 5.5255657871132184 1 rotate no_reflect no_shear #
lump $-1 $-1 $34 $1 #
transform $-1 1 0 0 0 1 0 0 0 1 45.333414716025267 19.209596951432722 5.5255657871132184 1 rotate no_reflect no_shear #
lump $-1 $-1 $35 $2 #
transform $-1 1 0 0 0 1 0 0 0 1 45.333414716025267 19.209596951432722 5.5255657871132184 1 rotate no_reflect no_shear #
lump $-1 $-1 $36 $3 #
transform $-1 1 0 0 0 1 0 0 0 1 45.333414716025267 19.209596951432722 5.5255657871132184 1 rotate no_reflect no_shear #
lump $-1 $-1 $37 $4 #
transform $-1 1 0 0 0 1 0 0 0 1 45.333414716025267 19.209596951432722 5.5255657871132184 1 rotate no_reflect no_shear #
lump $-1 $-1 $38 $5 #
transform $-1 1 0 0 0 1 0 0 0 1 45.333414716025267 19.209596951432722 5.5255657871132184 1 rotate no_reflect no_shear #
lump $-1 $-1 $39 $6 #
transform $-1 1 0 0 0 1 0 0 0 1 45.333414716025267 19.209596951432722 5.5255657871132184 1 rotate no_reflect no_shear #
lump $-1 $-1 $40 $7 #
transform $-1 1 0 0 0 1 0 0 0 1 45.333414716025267 19.209596951432722 5.5255657871132184 1 rotate no_reflect no_shear #
lump $-1 $-1 $41 $8 #
transform $-1 1 0 0 0 1 0 0 0 1 45.333414716025267 19.209596951432722 5.5255657871132184 1 rotate no_reflect no_shear #
lump $-1 $-1 $42 $9 #
transform $-1 1 0 0 0 1 0 0 0 1 45.333414716025267 19.209596951432722 5.5255657871132184 1 rotate no_reflect no_shear #
lump $-1 $-1 $43 $10 #
transform $-1 1 0 0 0 1 0 0 0 1 45.333414716025267 19.209596951432722 5.5255657871132184 1 rotate no_reflect no_shear #
shell $-1 $-1 $-1 $44 $-1 $11 #
shell $-1 $-1 $-1 $45 $-1 $13 #
shell $-1 $-1 $-1 $46 $-1 $15 #
shell $-1 $-1 $-1 $47 $-1 $17 #
shell $-1 $-1 $-1 $48 $-1 $19 #
shell $-1 $-1 $-1 $49 $-1 $21 #
shell $-1 $-1 $-1 $50 $-1 $23 #
shell $-1 $-1 $-1 $51 $-1 $25 #
shell $-1 $-1 $-1 $52 $-1 $27 #
shell $-1 $-1 $-1 $53 $-1 $29 #
shell $-1 $-1 $-1 $54 $-1 $31 #
face $-1 $55 $56 $33 $-1 $57 forward single #
face $-1 $58 $59 $34 $-1 $60 forward single #
face $-1 $61 $62 $35 $-1 $63 reversed single #
face $-1 $64 $65 $36 $-1 $66 forward single #
face $-1 $67 $68 $37 $-1 $69 forward single #
face $-1 $70 $71 $38 $-1 $72 reversed single #
face $-1 $73 $74 $39 $-1 $75 forward single #
face $-1 $76 $77 $40 $-1 $78 reversed single #
face $-1 $79 $80 $41 $-1 $81 forward single #
face $-1 $82 $83 $42 $-1 $84 reversed single #
face $-1 $85 $86 $43 $-1 $87 forward single #
face $-1 $88 $89 $33 $-1 $90 reversed single #
loop $-1 $-1 $91 $44 #
plane-surface $-1 0 0 5.5255657871132184 0 0 1 1 0 0 forward_v I I I I #
face $-1 $92 $93 $34 $-1 $94 reversed single #
loop $-1 $-1 $95 $45 #
plane-surface $-1 0 -16.774582451832046 -0.035479923207295316 0 0 1 1 0 0 forward_v I I I I #
face $-1 $96 $97 $35 $-1 $98 reversed single #
loop $-1 $-1 $99 $46 #
plane-surface $-1 25.275035267189587 -14.33956795223137 126.94584820493868 0 1 0 0.5877852598018023 0 0.80901698891910034 forward_v I I I I #
face $-1 $100 $101 $36 $-1 $102 forward single #
loop $-1 $103 $104 $47 #
cone-surface $-1 41.194114256478819 -12.567333122021124 2.1642599943690359 -0.5877852598018023 0 -0.80901698891910034 0.40450849445955017 0 -0.29389262990090115 1 I I 0 1 0.5 forward I I I I #
face $-1 $105 $106 $37 $-1 $107 forward single #
loop $-1 $108 $109 $48 #
cone-surface $-1 41.194114256478819 -9.9089808767057512 2.1642599943690359 -0.5877852598018023 0 -0.80901698891910034 0.40450849445955017 0 -0.29389262990090115 1 I I 0 1 0.5 forward I I I I #
face $-1 $110 $111 $38 $-1 $112 reversed single #
loop $-1 $-1 $113 $49 #
plane-surface $-1 -99.898075460577601 -12.338862290692324 73.914976082317537 0 1 0 -0.6018150307709319 0 0.79863550430605224 forward_v I I I I #
face $-1 $114 $115 $39 $-1 $116 forward single #
loop $-1 $117 $118 $50 #
cone-surface $-1 -41.070892429209216 -8.8287517491778118 1.398842931157902 0.6018150307709319 0 -0.79863550430605224 1.1979532564590785 0 0.90272254615639791 1 I I 0 1 1.5 forward I I I I #
face $-1 $119 $120 $40 $-1 $121 reversed single #
loop $-1 $-1 $122 $51 #
plane-surface $-1 -99.898075460577601 -1.1558073228042911 73.914976082317537 0 1 0 -0.6018150307709319 0 0.79863550430605224 forward_v I I I I #
face $-1 $123 $124 $41 $-1 $125 forward single #
loop $-1 $126 $127 $52 #
cone-surface $-1 -41.070892429209216 2.3543032187102213 1.398842931157902 0.6018150307709319 0 -0.79863550430605224 1.1979532564590785 0 0.90272254615639791 1 I I 0 1 1.5 forward I I I I #
face $-1 $128 $129 $42 $-1 $130 reversed single #
loop $-1 $-1 $131 $53 #
plane-surface $-1 -99.898075460577601 10.027247645083742 73.914976082317537 0 1 0 -0.6018150307709319 0 0.79863550430605224 forward_v I I I I #
face $-1 $132 $133 $43 $-1 $134 forward single #
loop $-1 $135 $136 $54 #
cone-surface $-1 -41.070892429209216 13.537358186598254 1.398842931157902 0.6018150307709319 0 -0.79863550430605224 1.1979532564590785 0 0.90272254615639791 1 I I 0 1 1.5 forward I I I I #
face $-1 $137 $138 $33 $-1 $139 reversed single #
loop $-1 $-1 $140 $55 #
plane-surface $-1 0 0 -5.5255657871132184 0 0 1 1 0 0 forward_v I I I I #
coedge $-1 $141 $142 $143 $144 forward $56 $-1 #
face $-1 $145 $146 $34 $-1 $147 reversed single #
loop $-1 $-1 $148 $58 #
plane-surface $-1 0 -16.774582451832046 -3.2808033758576416 0 0 1 1 0 0 forward_v I I I I #
coedge $-1 $149 $150 $151 $152 reversed $59 $-1 #
face $-1 $153 $154 $35 $-1 $155 reversed single #
loop $-1 $-1 $156 $61 #
plane-surface $-1 -28.01759062593392 -11.238156999363436 53.594842862979505 0.5877852598018023 0 0.80901698891910034 0.80901698891910034 0 -0.5877852598018023 forward_v I I I I #
coedge $-1 $157 $158 $159 $160 reversed $62 $-1 #
face $-1 $-1 $161 $36 $-1 $162 forward single #
loop $-1 $163 $164 $64 #
cone-surface $-1 40.502528850009845 -12.567333122021124 1.2123743630237032 -0.5877852598018023 0 -0.80901698891910034 0.20225424722977509 0 -0.14694631495045057 1 I I -0.70710678118654746 0.70710678118654746 0.25 forward I I I I #
loop $-1 $-1 $165 $47 #
coedge $-1 $104 $104 $166 $167 reversed $65 $-1 #
face $-1 $-1 $168 $37 $-1 $169 forward single #
loop $-1 $170 $171 $67 #
cone-surface $-1 40.502528850009845 -9.9089808767057512 1.2123743630237032 -0.5877852598018023 0 -0.80901698891910034 0.20225424722977509 0 -0.14694631495045057 1 I I -0.70710678118654746 0.70710678118654746 0.25 forward I I I I #
loop $-1 $-1 $172 $48 #
coedge $-1 $109 $109 $173 $174 reversed $68 $-1 #
face $-1 $175 $176 $38 $-1 $177 reversed single #
loop $-1 $-1 $178 $70 #
plane-surface $-1 -45.333414716025274 -8.8287517491778118 1.5052270350210364 -0.6018150307709319 0 0.79863550430605224 0.79863550430605224 0 0.6018150307709319 forward_v I I I I #
coedge $-1 $179 $180 $181 $182 reversed $71 $-1 #
face $-1 $-1 $183 $39 $-1 $184 forward single #
loop $-1 $185 $186 $73 #
cone-surface $-1 -39.024593677428896 -8.8287517491778118 -1.3166871769808575 0.6018150307709319 0 -0.79863550430605224 0.59897662822953923 0 0.45136127307819895 1 I I -0.70710678118654757 0.70710678118654757 0.75 forward I I I I #
loop $-1 $-1 $187 $50 #
coedge $-1 $118 $118 $188 $189 reversed $74 $-1 #
face $-1 $190 $191 $40 $-1 $192 reversed single #
loop $-1 $-1 $193 $76 #
plane-surface $-1 -45.333414716025274 2.3543032187102213 1.5052270350210364 -0.6018150307709319 0 0.79863550430605224 0.79863550430605224 0 0.6018150307709319 forward_v I I I I #
coedge $-1 $194 $195 $196 $197 reversed $77 $-1 #
face $-1 $-1 $198 $41 $-1 $199 forward single #
loop $-1 $200 $201 $79 #
cone-surface $-1 -39.024593677428896 2.3543032187102213 -1.3166871769808575 0.6018150307709319 0 -0.79863550430605224 0.59897662822953923 0 0.45136127307819895 1 I I -0.70710678118654757 0.70710678118654757 0.75 forward I I I I #
loop $-1 $-1 $202 $52 #
coedge $-1 $127 $127 $203 $204 reversed $80 $-1 #
face $-1 $205 $206 $42 $-1 $207 reversed single #
loop $-1 $-1 $208 $82 #
plane-surface $-1 -45.333414716025274 13.537358186598254 1.5052270350210364 -0.6018150307709319 0 0.79863550430605224 0.79863550430605224 0 0.6018150307709319 forward_v I I I I #
coedge $-1 $209 $210 $211 $212 reversed $83 $-1 #
face $-1 $-1 $213 $43 $-1 $214 forward single #
loop $-1 $215 $216 $85 #
cone-surface $-1 -39.024593677428896 13.537358186598254 -1.3166871769808575 0.6018150307709319 0 -0.79863550430605224 0.59897662822953923 0 0.45136127307819895 1 I I -0.70710678118654757 0.70710678118654757 0.75 forward I I I I #
loop $-1 $-1 $217 $54 #
coedge $-1 $136 $136 $218 $219 reversed $86 $-1 #
face $-1 $220 $221 $33 $-1 $222 reversed single #
loop $-1 $-1 $223 $88 #
plane-surface $-1 0 -19.209596951432722 0 0 1 0 0 0 1 forward_v I I I I #
coedge $-1 $224 $225 $226 $227 forward $89 $-1 #
coedge $-1 $228 $91 $229 $230 forward $56 $-1 #
coedge $-1 $91 $228 $231 $232 forward $56 $-1 #
coedge $-1 $233 $234 $91 $144 reversed $235 $-1 #
edge $-1 $236 -19.209596951432722 $237 19.209596951432722 $143 $238 forward 7 unknown #
face $-1 $239 $240 $34 $-1 $241 reversed single #
loop $-1 $-1 $242 $92 #
plane-surface $-1 0 -14.33956795223137 -1.6581416495324683 0 -1 0 0 0 -1 forward_v I I I I #
coedge $-1 $243 $244 $245 $246 reversed $93 $-1 #
coedge $-1 $247 $95 $248 $249 forward $59 $-1 #
coedge $-1 $95 $247 $250 $251 reversed $59 $-1 #
coedge $-1 $252 $253 $95 $152 forward $254 $-1 #
edge $-1 $255 5.9522767263153469 $256 10.822305725516699 $151 $257 forward 7 unknown #
face $-1 $258 $259 $35 $-1 $260 forward single #
loop $-1 $-1 $261 $96 #
plane-surface $-1 25.275035267189587 -8.136746046495503 126.94584820493868 0 -1 0 -0.5877852598018023 0 -0.80901698891910034 forward_v I I I I #
coedge $-1 $262 $263 $264 $265 reversed $97 $-1 #
coedge $-1 $158 $99 $266 $267 reversed $62 $-1 #
coedge $-1 $99 $157 $262 $268 reversed $62 $-1 #
coedge $-1 $264 $269 $99 $160 forward $270 $-1 #
edge $-1 $271 57.947358315356126 $272 63.170707132613366 $159 $273 forward 7 unknown #
loop $-1 $-1 $166 $100 #
plane-surface $-1 -28.01759062593392 -11.238156999363436 53.594842862979505 0.5877852598018023 0 0.80901698891910034 0.80901698891910034 0 -0.5877852598018023 forward_v I I I I #
loop $-1 $-1 $274 $64 #
coedge $-1 $164 $164 $165 $275 reversed $101 $-1 #
coedge $-1 $165 $165 $164 $275 forward $103 $-1 #
coedge $-1 $166 $166 $104 $167 forward $161 $-1 #
edge $-1 $276 0 $276 6.2831853071796004 $166 $277 forward 7 unknown #
loop $-1 $-1 $173 $105 #
plane-surface $-1 -28.01759062593392 -11.238156999363436 53.594842862979505 0.5877852598018023 0 0.80901698891910034 0.80901698891910034 0 -0.5877852598018023 forward_v I I I I #
loop $-1 $-1 $278 $67 #
coedge $-1 $171 $171 $172 $279 reversed $106 $-1 #
coedge $-1 $172 $172 $171 $279 forward $108 $-1 #
coedge $-1 $173 $173 $109 $174 forward $168 $-1 #
edge $-1 $280 0 $280 6.2831853071796004 $173 $281 forward 7 unknown #
face $-1 $282 $283 $38 $-1 $284 reversed single #
loop $-1 $-1 $285 $110 #
plane-surface $-1 -99.898075460577601 -5.3186412076632994 73.914976082317537 0 -1 0 0.6018150307709319 0 -0.79863550430605224 forward_v I I I I #
coedge $-1 $286 $287 $288 $289 reversed $111 $-1 #
coedge $-1 $180 $113 $290 $291 reversed $71 $-1 #
coedge $-1 $113 $179 $286 $292 reversed $71 $-1 #
coedge $-1 $288 $293 $113 $182 forward $294 $-1 #
edge $-1 $295 4.6156230142635337 $296 9.9507926304913781 $181 $297 forward 7 unknown #
loop $-1 $-1 $188 $114 #
plane-surface $-1 -45.333414716025274 -8.8287517491778118 1.5052270350210364 -0.6018150307709319 0 0.79863550430605224 0.79863550430605224 0 0.6018150307709319 forward_v I I I I #
loop $-1 $-1 $298 $73 #
coedge $-1 $186 $186 $187 $299 reversed $115 $-1 #
coedge $-1 $187 $187 $186 $299 forward $117 $-1 #
coedge $-1 $188 $188 $118 $189 forward $183 $-1 #
edge $-1 $300 0 $300 6.2831853071796004 $188 $301 forward 7 unknown #
face $-1 $302 $303 $40 $-1 $304 forward single #
loop $-1 $-1 $305 $119 #
plane-surface $-1 -99.898075460577601 5.8644137602247337 73.914976082317537 0 -1 0 0.6018150307709319 0 -0.79863550430605224 forward_v I I I I #
coedge $-1 $306 $307 $308 $309 reversed $120 $-1 #
coedge $-1 $195 $122 $310 $311 reversed $77 $-1 #
coedge $-1 $122 $194 $306 $312 reversed $77 $-1 #
coedge $-1 $308 $313 $122 $197 forward $303 $-1 #
edge $-1 $314 4.6156230142635337 $315 9.9507926304913781 $196 $316 forward 7 unknown #
loop $-1 $-1 $203 $123 #
plane-surface $-1 -45.333414716025274 2.3543032187102213 1.5052270350210364 -0.6018150307709319 0 0.79863550430605224 0.79863550430605224 0 0.6018150307709319 forward_v I I I I #
loop $-1 $-1 $317 $79 #
coedge $-1 $201 $201 $202 $318 reversed $124 $-1 #
coedge $-1 $202 $202 $201 $318 forward $126 $-1 #
coedge $-1 $203 $203 $127 $204 forward $198 $-1 #
edge $-1 $319 0 $319 6.2831853071796004 $203 $320 forward 7 unknown #
face $-1 $321 $322 $42 $-1 $323 forward single #
loop $-1 $-1 $324 $128 #
plane-surface $-1 -99.898075460577601 17.047468728112769 73.914976082317537 0 -1 0 0.6018150307709319 0 -0.79863550430605224 forward_v I I I I #
coedge $-1 $325 $326 $327 $328 reversed $129 $-1 #
coedge $-1 $210 $131 $329 $330 reversed $83 $-1 #
coedge $-1 $131 $209 $325 $331 reversed $83 $-1 #
coedge $-1 $327 $332 $131 $212 forward $322 $-1 #
edge $-1 $333 4.6156230142635337 $334 9.9507926304913781 $211 $335 forward 7 unknown #
loop $-1 $-1 $218 $132 #
plane-surface $-1 -45.333414716025274 13.537358186598254 1.5052270350210364 -0.6018150307709319 0 0.79863550430605224 0.79863550430605224 0 0.6018150307709319 forward_v I I I I #
loop $-1 $-1 $336 $85 #
coedge $-1 $216 $216 $217 $337 reversed $133 $-1 #
coedge $-1 $217 $217 $216 $337 forward $135 $-1 #
coedge $-1 $218 $218 $136 $219 forward $213 $-1 #
edge $-1 $338 0 $338 6.2831853071796004 $218 $339 forward 7 unknown #
face $-1 $340 $341 $33 $-1 $342 reversed single #
loop $-1 $-1 $343 $137 #
plane-surface $-1 -45.333414716025267 0 0 1 0 0 0 0 -1 forward_v I I I I #
coedge $-1 $344 $231 $345 $346 forward $138 $-1 #
coedge $-1 $347 $140 $344 $348 forward $89 $-1 #
coedge $-1 $140 $347 $349 $350 forward $89 $-1 #
coedge $-1 $234 $233 $140 $227 reversed $235 $-1 #
edge $-1 $351 -19.209596951432722 $352 19.209596951432722 $226 $353 forward 7 unknown #
coedge $-1 $142 $141 $354 $355 forward $56 $-1 #
coedge $-1 $356 $357 $141 $230 reversed $341 $-1 #
edge $-1 $237 -45.333414716025267 $358 45.333414716025267 $229 $359 forward 7 unknown #
coedge $-1 $223 $360 $142 $232 reversed $138 $-1 #
edge $-1 $361 -45.333414716025267 $236 45.333414716025267 $231 $362 forward 7 unknown #
coedge $-1 $226 $143 $360 $363 forward $235 $-1 #
coedge $-1 $143 $226 $356 $364 reversed $235 $-1 #
loop $-1 $-1 $233 $340 #
vertex $-1 $144 $365 #
vertex $-1 $144 $366 #
straight-curve $-1 45.333414716025267 0 5.5255657871132184 0 1 0 I I #
face $-1 $367 $368 $34 $-1 $369 reversed single #
loop $-1 $-1 $370 $145 #
plane-surface $-1 -45.333414716025267 0 0 1 0 0 0 0 -1 forward_v I I I I #
coedge $-1 $371 $248 $253 $372 reversed $146 $-1 #
coedge $-1 $373 $148 $374 $375 reversed $93 $-1 #
coedge $-1 $148 $373 $371 $376 forward $93 $-1 #
coedge $-1 $253 $252 $148 $246 forward $254 $-1 #
edge $-1 $377 -10.822305725516699 $378 -5.9522767263153469 $245 $379 forward 7 unknown #
coedge $-1 $150 $149 $370 $380 reversed $59 $-1 #
coedge $-1 $242 $381 $149 $249 reversed $146 $-1 #
edge $-1 $255 -45.333414716025267 $382 45.333414716025267 $248 $383 forward 7 unknown #
coedge $-1 $384 $385 $150 $251 forward $368 $-1 #
edge $-1 $256 -45.333414716025267 $386 45.333414716025267 $250 $387 forward 7 unknown #
coedge $-1 $245 $151 $385 $388 forward $254 $-1 #
coedge $-1 $151 $245 $242 $372 forward $254 $-1 #
loop $-1 $-1 $151 $367 #
vertex $-1 $152 $389 #
vertex $-1 $388 $390 #
straight-curve $-1 45.333414716025267 -8.3872912259160231 -0.035479923207295316 0 -1 0 I I #
face $-1 $-1 $270 $35 $-1 $391 reversed single #
loop $-1 $-1 $392 $153 #
plane-surface $-1 0 0 5.5255657871132184 0 0 1 1 0 0 forward_v I I I I #
coedge $-1 $393 $394 $395 $396 reversed $154 $-1 #
coedge $-1 $397 $156 $158 $268 forward $97 $-1 #
coedge $-1 $156 $397 $393 $398 forward $97 $-1 #
coedge $-1 $395 $159 $156 $265 forward $270 $-1 #
edge $-1 $272 -8.7204894525496517 $399 -2.5176675468137848 $264 $400 forward 7 unknown #
coedge $-1 $401 $402 $157 $267 forward $259 $-1 #
edge $-1 $403 25.506574346374624 $271 32.695897082430477 $266 $404 forward 7 unknown #
edge $-1 $272 -90.666829432050548 $403 -81.78033775817201 $158 $405 forward 7 unknown #
coedge $-1 $159 $395 $401 $406 reversed $270 $-1 #
loop $-1 $-1 $395 $258 #
vertex $-1 $406 $407 #
vertex $-1 $160 $408 #
straight-curve $-1 45.333414716025267 -14.33956795223137 63.472924102469342 0 0 -1 I I #
coedge $-1 $274 $274 $-1 $409 reversed $163 $-1 #
edge $-1 $410 0 $410 6.2831853071796004 $164 $411 forward 7 unknown #
vertex $-1 $167 $412 #
ellipse-curve $-1 41.738753347997353 -12.567333122021124 2.9138913784846072 0.5877852598018023 0 0.80901698891910034 0.40450849445955017 0 -0.29389262990090115 1 I I #
coedge $-1 $278 $278 $-1 $413 reversed $170 $-1 #
edge $-1 $414 0 $414 6.2831853071796004 $171 $415 forward 7 unknown #
vertex $-1 $174 $416 #
ellipse-curve $-1 41.738753347997353 -9.9089808767057512 2.9138913784846072 0.5877852598018023 0 0.80901698891910034 0.40450849445955017 0 -0.29389262990090115 1 I I #
face $-1 $-1 $294 $38 $-1 $417 forward single #
loop $-1 $-1 $418 $175 #
plane-surface $-1 -45.333414716025267 0 0 1 0 0 0 0 -1 forward_v I I I I #
coedge $-1 $419 $420 $421 $422 reversed $176 $-1 #
coedge $-1 $423 $178 $180 $292 forward $111 $-1 #
coedge $-1 $178 $423 $419 $424 forward $111 $-1 #
coedge $-1 $421 $181 $178 $289 forward $294 $-1 #
edge $-1 $296 -7.9244864161034183 $425 -0.9042653330743935 $288 $426 forward 7 unknown #
coedge $-1 $427 $428 $179 $291 forward $283 $-1 #
edge $-1 $429 -35.452261006137725 $295 -31.431922254045549 $290 $430 forward 7 unknown #
edge $-1 $296 -6.6803561668143834 $429 -8.8817612989391469e-015 $180 $431 forward 7 unknown #
coedge $-1 $181 $421 $427 $432 forward $294 $-1 #
loop $-1 $-1 $421 $282 #
vertex $-1 $291 $433 #
vertex $-1 $182 $434 #
straight-curve $-1 -49.949037730288801 -12.338862290692324 5.5255657871132158 1 0 0 I I #
coedge $-1 $298 $298 $-1 $435 reversed $185 $-1 #
edge $-1 $436 0 $436 6.2831853071796004 $186 $437 forward 7 unknown #
vertex $-1 $189 $438 #
ellipse-curve $-1 -42.665829907911345 -8.8287517491778118 3.5153964110671323 -0.6018150307709319 0 0.79863550430605224 1.1979532564590785 0 0.90272254615639791 1 I I #
face $-1 $-1 $439 $40 $-1 $440 reversed single #
loop $-1 $-1 $196 $190 #
plane-surface $-1 0 0 5.5255657871132184 0 0 1 1 0 0 forward_v I I I I #
coedge $-1 $441 $442 $443 $444 reversed $191 $-1 #
coedge $-1 $445 $193 $195 $312 forward $120 $-1 #
coedge $-1 $193 $445 $441 $446 forward $120 $-1 #
coedge $-1 $443 $196 $193 $309 forward $303 $-1 #
edge $-1 $315 -2.3329589321594018 $447 4.6872621508696231 $308 $448 forward 7 unknown #
coedge $-1 $449 $450 $194 $311 forward $439 $-1 #
edge $-1 $451 -35.452261006137725 $314 -31.431922254045549 $310 $452 forward 7 unknown #
edge $-1 $315 -6.6803561668143834 $451 -8.8817612989391469e-015 $195 $453 forward 7 unknown #
coedge $-1 $196 $443 $449 $454 forward $303 $-1 #
vertex $-1 $197 $455 #
vertex $-1 $197 $456 #
straight-curve $-1 -49.949037730288801 -1.1558073228042911 5.5255657871132158 1 0 0 I I #
coedge $-1 $317 $317 $-1 $457 reversed $200 $-1 #
edge $-1 $458 0 $458 6.2831853071796004 $201 $459 forward 7 unknown #
vertex $-1 $204 $460 #
ellipse-curve $-1 -42.665829907911345 2.3543032187102213 3.5153964110671323 -0.6018150307709319 0 0.79863550430605224 1.1979532564590785 0 0.90272254615639791 1 I I #
face $-1 $-1 $461 $42 $-1 $462 reversed single #
loop $-1 $-1 $211 $205 #
plane-surface $-1 0 0 5.5255657871132184 0 0 1 1 0 0 forward_v I I I I #
coedge $-1 $463 $464 $465 $466 reversed $206 $-1 #
coedge $-1 $467 $208 $210 $331 forward $129 $-1 #
coedge $-1 $208 $467 $463 $468 forward $129 $-1 #
coedge $-1 $465 $211 $208 $328 forward $322 $-1 #
edge $-1 $334 3.2585685517846148 $469 10.278789634813641 $327 $470 forward 7 unknown #
coedge $-1 $471 $472 $209 $330 forward $461 $-1 #
edge $-1 $473 -35.452261006137725 $333 -31.431922254045549 $329 $474 forward 7 unknown #
edge $-1 $334 -6.6803561668143834 $473 -8.8817612989391469e-015 $210 $475 forward 7 unknown #
coedge $-1 $211 $465 $471 $476 forward $322 $-1 #
vertex $-1 $212 $477 #
vertex $-1 $212 $478 #
straight-curve $-1 -49.949037730288801 10.027247645083742 5.5255657871132158 1 0 0 I I #
coedge $-1 $336 $336 $-1 $479 reversed $215 $-1 #
edge $-1 $480 0 $480 6.2831853071796004 $216 $481 forward 7 unknown #
vertex $-1 $219 $482 #
ellipse-curve $-1 -42.665829907911345 13.537358186598254 3.5153964110671323 -0.6018150307709319 0 0.79863550430605224 1.1979532564590785 0 0.90272254615639791 1 I I #
face $-1 $-1 $235 $33 $-1 $483 reversed single #
loop $-1 $-1 $356 $220 #
plane-surface $-1 0 19.209596951432722 0 0 -1 0 0 0 -1 forward_v I I I I #
coedge $-1 $484 $354 $357 $485 forward $221 $-1 #
coedge $-1 $360 $223 $224 $348 reversed $138 $-1 #
coedge $-1 $354 $484 $223 $346 reversed $221 $-1 #
edge $-1 $361 -5.5255657871132184 $486 5.5255657871132184 $345 $487 forward 7 unknown #
coedge $-1 $225 $224 $484 $488 forward $89 $-1 #
edge $-1 $352 -45.333414716025267 $486 45.333414716025267 $344 $489 forward 7 unknown #
coedge $-1 $357 $356 $225 $350 reversed $341 $-1 #
edge $-1 $490 -45.333414716025267 $351 45.333414716025267 $349 $491 forward 7 unknown #
vertex $-1 $227 $492 #
vertex $-1 $363 $493 #
straight-curve $-1 45.333414716025267 0 -5.5255657871132184 0 -1 0 I I #
coedge $-1 $343 $345 $228 $355 reversed $221 $-1 #
edge $-1 $358 -19.209596951432722 $361 19.209596951432722 $354 $494 forward 7 unknown #
coedge $-1 $349 $229 $234 $364 forward $341 $-1 #
coedge $-1 $229 $349 $343 $485 reversed $341 $-1 #
vertex $-1 $230 $495 #
straight-curve $-1 0 19.209596951432722 5.5255657871132184 -1 0 0 I I #
coedge $-1 $231 $344 $233 $363 reversed $138 $-1 #
vertex $-1 $355 $496 #
straight-curve $-1 0 -19.209596951432722 5.5255657871132184 1 0 0 I I #
edge $-1 $236 -5.5255657871132184 $352 5.5255657871132184 $233 $497 forward 7 unknown #
edge $-1 $237 -5.5255657871132184 $351 5.5255657871132184 $234 $498 forward 7 unknown #
point $-1 45.333414716025267 -19.209596951432722 5.5255657871132184 #
point $-1 45.333414716025267 19.209596951432722 5.5255657871132184 #
face $-1 $-1 $254 $34 $-1 $499 reversed single #
loop $-1 $-1 $250 $239 #
plane-surface $-1 0 -19.209596951432722 0 0 1 0 0 0 1 forward_v I I I I #
coedge $-1 $500 $501 $247 $380 forward $240 $-1 #
coedge $-1 $381 $242 $244 $376 reversed $146 $-1 #
edge $-1 $378 -2.4517325510914074 $255 0.79359090155893885 $253 $502 forward 7 unknown #
coedge $-1 $244 $243 $503 $504 reversed $93 $-1 #
coedge $-1 $385 $384 $243 $375 forward $368 $-1 #
edge $-1 $505 -45.333414716025267 $377 45.333414716025267 $374 $506 forward 7 unknown #
edge $-1 $507 -45.333414716025267 $378 45.333414716025267 $371 $508 forward 7 unknown #
vertex $-1 $375 $509 #
vertex $-1 $246 $510 #
straight-curve $-1 45.333414716025267 -8.3872912259160231 -3.2808033758576416 0 1 0 I I #
edge $-1 $386 -10.822305725516699 $382 -5.9522767263153469 $370 $511 forward 7 unknown #
coedge $-1 $248 $371 $500 $512 reversed $146 $-1 #
vertex $-1 $380 $513 #
straight-curve $-1 0 -14.33956795223137 -0.035479923207295316 -1 0 0 I I #
coedge $-1 $374 $250 $501 $514 forward $368 $-1 #
coedge $-1 $250 $374 $252 $388 reversed $368 $-1 #
vertex $-1 $514 $515 #
straight-curve $-1 0 -19.209596951432722 -0.035479923207295316 -1 0 0 I I #
edge $-1 $256 0.035479923207295316 $377 3.2808033758576416 $252 $516 forward 7 unknown #
point $-1 45.333414716025267 -14.33956795223137 -0.035479923207295316 #
point $-1 45.333414716025267 -19.209596951432722 -0.035479923207295316 #
plane-surface $-1 45.333414716025267 0 0 -1 0 0 0 0 1 forward_v I I I I #
coedge $-1 $402 $401 $394 $517 forward $259 $-1 #
coedge $-1 $394 $261 $263 $398 reversed $154 $-1 #
coedge $-1 $261 $393 $392 $517 reversed $154 $-1 #
coedge $-1 $269 $264 $261 $396 forward $270 $-1 #
edge $-1 $399 -63.170707132613366 $518 -57.947358315356126 $395 $519 forward 7 unknown #
coedge $-1 $263 $262 $402 $520 reversed $97 $-1 #
edge $-1 $521 81.78033775817201 $399 90.666829432050548 $393 $522 forward 7 unknown #
vertex $-1 $265 $523 #
straight-curve $-1 45.333414716025267 -5.6190784996817182 0.30221696985598356 0 1 0 I I #
coedge $-1 $392 $266 $269 $406 forward $259 $-1 #
coedge $-1 $266 $392 $397 $520 forward $259 $-1 #
vertex $-1 $267 $524 #
straight-curve $-1 12.637517633594793 -14.33956795223137 5.5255657871132158 1 0 0 I I #
straight-curve $-1 -28.01759062593392 -14.33956795223137 53.594842862979505 -0.80901698891910034 0 0.5877852598018023 I I #
edge $-1 $271 -14.33956795223137 $518 -8.136746046495503 $269 $525 forward 7 unknown #
point $-1 45.333414716025267 -14.33956795223137 5.5255657871132184 #
point $-1 45.333414716025274 -14.33956795223137 0.30221696985597646 #
edge $-1 $526 1 $526 0 $274 $-1 forward 7 unknown #
vertex $-1 $275 $527 #
ellipse-curve $-1 40.649475164960293 -12.567333122021124 1.4146286102534782 0.5877852598018023 0 0.80901698891910034 0.40450849445955017 0 -0.29389262990090115 1 I I #
point $-1 42.143261842456887 -12.567333122021124 2.6199987485836931 #
edge $-1 $528 1 $528 0 $278 $-1 forward 7 unknown #
vertex $-1 $279 $529 #
ellipse-curve $-1 40.649475164960293 -9.9089808767057512 1.4146286102534782 0.5877852598018023 0 0.80901698891910034 0.40450849445955017 0 -0.29389262990090115 1 I I #
point $-1 42.143261842456887 -9.9089808767057512 2.6199987485836931 #
plane-surface $-1 0 0 5.5255657871132184 0 0 1 1 0 0 forward_v I I I I #
coedge $-1 $428 $427 $420 $530 forward $283 $-1 #
coedge $-1 $420 $285 $287 $424 reversed $176 $-1 #
coedge $-1 $285 $419 $418 $530 reversed $176 $-1 #
coedge $-1 $293 $288 $285 $422 forward $294 $-1 #
edge $-1 $425 -9.9507926304913781 $531 -4.6156230142635337 $421 $532 forward 7 unknown #
coedge $-1 $287 $286 $428 $533 reversed $111 $-1 #
edge $-1 $534 8.8817612989391469e-015 $425 6.6803561668143834 $419 $535 forward 7 unknown #
vertex $-1 $289 $536 #
straight-curve $-1 -39.99824509979743 -4.4143758745889059 5.5255657871132184 0 1 0 I I #
coedge $-1 $418 $290 $293 $432 reversed $283 $-1 #
coedge $-1 $290 $418 $423 $533 forward $283 $-1 #
vertex $-1 $291 $537 #
straight-curve $-1 -45.333414716025267 -12.338862290692324 36.957488041158769 0 0 1 I I #
straight-curve $-1 -45.333414716025274 -12.338862290692324 1.5052270350210364 -0.79863550430605224 0 -0.6018150307709319 I I #
edge $-1 $531 5.3186412076632994 $295 12.338862290692324 $427 $538 forward 7 unknown #
point $-1 -45.333414716025267 -12.338862290692324 5.5255657871132184 #
point $-1 -39.998245099797423 -12.338862290692324 5.5255657871132184 #
edge $-1 $539 1 $539 0 $298 $-1 forward 7 unknown #
vertex $-1 $299 $540 #
ellipse-curve $-1 -39.475954950507095 -8.8287517491778118 -0.71771054875131823 -0.6018150307709319 0 0.79863550430605224 1.1979532564590785 0 0.90272254615639791 1 I I #
point $-1 -41.467876651452258 -8.8287517491778118 4.4181189572235207 #
loop $-1 $-1 $310 $302 #
plane-surface $-1 -45.333414716025267 0 0 1 0 0 0 0 -1 forward_v I I I I #
coedge $-1 $442 $305 $307 $446 reversed $191 $-1 #
coedge $-1 $305 $441 $541 $542 reversed $191 $-1 #
coedge $-1 $313 $308 $305 $444 forward $303 $-1 #
edge $-1 $447 -9.9507926304913781 $543 -4.6156230142635337 $443 $544 forward 7 unknown #
coedge $-1 $307 $306 $450 $545 reversed $120 $-1 #
edge $-1 $546 8.8817612989391469e-015 $447 6.6803561668143834 $441 $547 forward 7 unknown #
vertex $-1 $309 $548 #
straight-curve $-1 -39.99824509979743 1.1771516093551107 5.5255657871132184 0 1 0 I I #
coedge $-1 $541 $310 $313 $454 reversed $439 $-1 #
coedge $-1 $310 $541 $445 $545 forward $439 $-1 #
vertex $-1 $311 $549 #
straight-curve $-1 -45.333414716025267 -1.1558073228042911 36.957488041158769 0 0 1 I I #
straight-curve $-1 -45.333414716025274 -1.1558073228042911 1.5052270350210364 -0.79863550430605224 0 -0.6018150307709319 I I #
edge $-1 $543 -5.8644137602247337 $314 1.1558073228042911 $449 $550 forward 7 unknown #
point $-1 -45.333414716025267 -1.1558073228042911 5.5255657871132184 #
point $-1 -39.998245099797423 -1.1558073228042911 5.5255657871132184 #
edge $-1 $551 1 $551 0 $317 $-1 forward 7 unknown #
vertex $-1 $318 $552 #
ellipse-curve $-1 -39.475954950507095 2.3543032187102213 -0.71771054875131823 -0.6018150307709319 0 0.79863550430605224 1.1979532564590785 0 0.90272254615639791 1 I I #
point $-1 -41.467876651452258 2.3543032187102213 4.4181189572235207 #
loop $-1 $-1 $329 $321 #
plane-surface $-1 -45.333414716025267 0 0 1 0 0 0 0 -1 forward_v I I I I #
coedge $-1 $464 $324 $326 $468 reversed $206 $-1 #
coedge $-1 $324 $463 $553 $554 reversed $206 $-1 #
coedge $-1 $332 $327 $324 $466 forward $322 $-1 #
edge $-1 $469 -9.9507926304913781 $555 -4.6156230142635337 $465 $556 forward 7 unknown #
coedge $-1 $326 $325 $472 $557 reversed $129 $-1 #
edge $-1 $558 8.8817612989391469e-015 $469 6.6803561668143834 $463 $559 forward 7 unknown #
vertex $-1 $328 $560 #
straight-curve $-1 -39.99824509979743 6.7686790932991272 5.5255657871132184 0 1 0 I I #
coedge $-1 $553 $329 $332 $476 reversed $461 $-1 #
coedge $-1 $329 $553 $467 $557 forward $461 $-1 #
vertex $-1 $330 $561 #
straight-curve $-1 -45.333414716025267 10.027247645083742 36.957488041158769 0 0 1 I I #
straight-curve $-1 -45.333414716025274 10.027247645083742 1.5052270350210364 -0.79863550430605224 0 -0.6018150307709319 I I #
edge $-1 $555 -17.047468728112769 $333 -10.027247645083742 $471 $562 forward 7 unknown #
point $-1 -45.333414716025267 10.027247645083742 5.5255657871132184 #
point $-1 -39.998245099797423 10.027247645083742 5.5255657871132184 #
edge $-1 $563 1 $563 0 $336 $-1 forward 7 unknown #
vertex $-1 $337 $564 #
ellipse-curve $-1 -39.475954950507095 13.537358186598254 -0.71771054875131823 -0.6018150307709319 0 0.79863550430605224 1.1979532564590785 0 0.90272254615639791 1 I I #
point $-1 -41.467876651452258 13.537358186598254 4.4181189572235207 #
plane-surface $-1 45.333414716025267 0 0 -1 0 0 0 0 1 forward_v I I I I #
coedge $-1 $345 $343 $347 $488 reversed $221 $-1 #
edge $-1 $358 -5.5255657871132184 $490 5.5255657871132184 $357 $565 forward 7 unknown #
vertex $-1 $488 $566 #
straight-curve $-1 -45.333414716025267 -19.209596951432722 0 0 0 -1 I I #
edge $-1 $486 -19.209596951432722 $490 19.209596951432722 $484 $567 forward 7 unknown #
straight-curve $-1 0 -19.209596951432722 -5.5255657871132184 -1 0 0 I I #
vertex $-1 $350 $568 #
straight-curve $-1 0 19.209596951432722 -5.5255657871132184 1 0 0 I I #
point $-1 45.333414716025267 19.209596951432722 -5.5255657871132184 #
point $-1 45.333414716025267 -19.209596951432722 -5.5255657871132184 #
straight-curve $-1 -45.333414716025267 0 5.5255657871132184 0 -1 0 I I #
point $-1 -45.333414716025267 19.209596951432722 5.5255657871132184 #
point $-1 -45.333414716025267 -19.209596951432722 5.5255657871132184 #
straight-curve $-1 45.333414716025267 -19.209596951432722 0 0 0 -1 I I #
straight-curve $-1 45.333414716025267 19.209596951432722 0 0 0 -1 I I #
plane-surface $-1 45.333414716025267 0 0 -1 0 0 0 0 1 forward_v I I I I #
coedge $-1 $503 $370 $381 $512 forward $240 $-1 #
coedge $-1 $370 $503 $384 $514 reversed $240 $-1 #
straight-curve $-1 45.333414716025267 -14.33956795223137 -0.82907082476623417 0 0 1 I I #
coedge $-1 $501 $500 $373 $504 forward $240 $-1 #
edge $-1 $507 5.9522767263153469 $505 10.822305725516699 $503 $569 forward 7 unknown #
vertex $-1 $375 $570 #
straight-curve $-1 0 -19.209596951432722 -3.2808033758576416 1 0 0 I I #
vertex $-1 $504 $571 #
straight-curve $-1 0 -14.33956795223137 -3.2808033758576416 1 0 0 I I #
point $-1 45.333414716025267 -19.209596951432722 -3.2808033758576416 #
point $-1 45.333414716025267 -14.33956795223137 -3.2808033758576416 #
straight-curve $-1 -45.333414716025267 -8.3872912259160231 -0.035479923207295316 0 1 0 I I #
edge $-1 $382 -0.79359090155893885 $507 2.4517325510914074 $500 $572 forward 7 unknown #
point $-1 -45.333414716025267 -14.33956795223137 -0.035479923207295316 #
edge $-1 $386 0.035479923207295316 $505 3.2808033758576416 $501 $573 forward 7 unknown #
point $-1 -45.333414716025267 -19.209596951432722 -0.035479923207295316 #
straight-curve $-1 45.333414716025267 -19.209596951432722 0 0 0 -1 I I #
edge $-1 $518 -32.695897082430477 $521 -25.506574346374624 $392 $574 forward 7 unknown #
vertex $-1 $517 $575 #
straight-curve $-1 45.333414716025267 -8.136746046495503 63.472924102469342 0 0 1 I I #
edge $-1 $521 2.5176675468137848 $403 8.7204894525496517 $402 $576 forward 7 unknown #
vertex $-1 $520 $577 #
straight-curve $-1 -28.01759062593392 -8.136746046495503 53.594842862979505 0.80901698891910034 0 -0.5877852598018023 I I #
point $-1 45.333414716025274 -8.136746046495503 0.30221696985597646 #
point $-1 38.144091979969417 -14.33956795223137 5.5255657871132229 #
straight-curve $-1 45.333414716025267 0 5.5255657871132184 0 1 0 I I #
vertex $-1 $409 $578 #
point $-1 41.053983659419849 -12.567333122021124 1.1207359803525772 #
vertex $-1 $413 $579 #
point $-1 41.053983659419849 -9.9089808767057512 1.1207359803525772 #
edge $-1 $531 31.431922254045549 $534 35.452261006137725 $418 $580 forward 7 unknown #
vertex $-1 $432 $581 #
straight-curve $-1 -49.949037730288801 -5.3186412076632994 5.5255657871132158 -1 0 0 I I #
edge $-1 $534 0.9042653330743935 $429 7.9244864161034183 $428 $582 forward 7 unknown #
vertex $-1 $533 $583 #
straight-curve $-1 -45.333414716025274 -5.3186412076632994 1.5052270350210364 0.79863550430605224 0 0.6018150307709319 I I #
point $-1 -39.998245099797423 -5.3186412076632994 5.5255657871132184 #
point $-1 -45.333414716025267 -12.338862290692324 1.5052270350210417 #
straight-curve $-1 -45.333414716025267 0 5.5255657871132184 0 -1 0 I I #
vertex $-1 $435 $584 #
point $-1 -38.278001694048015 -8.8287517491778118 0.18501199740507968 #
coedge $-1 $450 $449 $442 $542 forward $439 $-1 #
edge $-1 $543 31.431922254045549 $546 35.452261006137725 $541 $585 forward 7 unknown #
vertex $-1 $454 $586 #
straight-curve $-1 -49.949037730288801 5.8644137602247337 5.5255657871132158 -1 0 0 I I #
edge $-1 $546 -4.6872621508696231 $451 2.3329589321594018 $450 $587 forward 7 unknown #
vertex $-1 $545 $588 #
straight-curve $-1 -45.333414716025274 5.8644137602247337 1.5052270350210364 0.79863550430605224 0 0.6018150307709319 I I #
point $-1 -39.998245099797423 5.8644137602247337 5.5255657871132184 #
point $-1 -45.333414716025267 -1.1558073228042911 1.5052270350210417 #
straight-curve $-1 -45.333414716025267 0 5.5255657871132184 0 -1 0 I I #
vertex $-1 $457 $589 #
point $-1 -38.278001694048015 2.3543032187102213 0.18501199740507968 #
coedge $-1 $472 $471 $464 $554 forward $461 $-1 #
edge $-1 $555 31.431922254045549 $558 35.452261006137725 $553 $590 forward 7 unknown #
vertex $-1 $476 $591 #
straight-curve $-1 -49.949037730288801 17.047468728112769 5.5255657871132158 -1 0 0 I I #
edge $-1 $558 -10.278789634813641 $473 -3.2585685517846148 $472 $592 forward 7 unknown #
vertex $-1 $557 $593 #
straight-curve $-1 -45.333414716025274 17.047468728112769 1.5052270350210364 0.79863550430605224 0 0.6018150307709319 I I #
point $-1 -39.998245099797423 17.047468728112769 5.5255657871132184 #
point $-1 -45.333414716025267 10.027247645083742 1.5052270350210417 #
straight-curve $-1 -45.333414716025267 0 5.5255657871132184 0 -1 0 I I #
vertex $-1 $479 $594 #
point $-1 -38.278001694048015 13.537358186598254 0.18501199740507968 #
straight-curve $-1 -45.333414716025267 19.209596951432722 0 0 0 -1 I I #
point $-1 -45.333414716025267 -19.209596951432722 -5.5255657871132184 #
straight-curve $-1 -45.333414716025267 0 -5.5255657871132184 0 1 0 I I #
point $-1 -45.333414716025267 19.209596951432722 -5.5255657871132184 #
straight-curve $-1 -45.333414716025267 -8.3872912259160231 -3.2808033758576416 0 -1 0 I I #
point $-1 -45.333414716025267 -19.209596951432722 -3.2808033758576416 #
point $-1 -45.333414716025267 -14.33956795223137 -3.2808033758576416 #
straight-curve $-1 -45.333414716025267 -14.33956795223137 -0.82907082476623417 0 0 -1 I I #
straight-curve $-1 -45.333414716025267 -19.209596951432722 0 0 0 -1 I I #
straight-curve $-1 12.637517633594793 -8.136746046495503 5.5255657871132158 -1 0 0 I I #
point $-1 45.333414716025267 -8.136746046495503 5.5255657871132184 #
straight-curve $-1 38.144091979969417 -5.6190784996817182 5.5255657871132087 0 -1 0 I I #
point $-1 38.144091979969417 -8.136746046495503 5.5255657871132229 #
point $-1 40.355582535059398 -12.567333122021124 1.0101201157939281 #
point $-1 40.355582535059398 -9.9089808767057512 1.0101201157939281 #
straight-curve $-1 -45.333414716025267 -5.3186412076632994 36.957488041158769 0 0 -1 I I #
point $-1 -45.333414716025267 -5.3186412076632994 5.5255657871132184 #
straight-curve $-1 -45.333414716025267 -4.4143758745889059 1.5052270350210466 0 -1 0 I I #
point $-1 -45.333414716025267 -5.3186412076632994 1.5052270350210417 #
point $-1 -38.573232404350698 -8.8287517491778118 -1.9156638052103967 #
straight-curve $-1 -45.333414716025267 5.8644137602247337 36.957488041158769 0 0 -1 I I #
point $-1 -45.333414716025267 5.8644137602247337 5.5255657871132184 #
straight-curve $-1 -45.333414716025267 1.1771516093551107 1.5052270350210466 0 -1 0 I I #
point $-1 -45.333414716025267 5.8644137602247337 1.5052270350210417 #
point $-1 -38.573232404350698 2.3543032187102213 -1.9156638052103967 #
straight-curve $-1 -45.333414716025267 17.047468728112769 36.957488041158769 0 0 -1 I I #
point $-1 -45.333414716025267 17.047468728112769 5.5255657871132184 #
straight-curve $-1 -45.333414716025267 6.7686790932991272 1.5052270350210466 0 -1 0 I I #
point $-1 -45.333414716025267 17.047468728112769 1.5052270350210417 #
point $-1 -38.573232404350698 13.537358186598254 -1.9156638052103967 #
End-of-ACIS-data 