500 0 11 0           
7 Unknown 11 ACIS 5.0 NT 24 Thu Mar 25 19:17:22 1999 
-1 9.9999999999999995e-007 1e-010 
body $-1 $11 $-1 $12 #
body $-1 $13 $-1 $14 #
body $-1 $15 $-1 $16 #
body $-1 $17 $-1 $18 #
body $-1 $19 $-1 $20 #
body $-1 $21 $-1 $22 #
body $-1 $23 $-1 $24 #
body $-1 $25 $-1 $26 #
body $-1 $27 $-1 $28 #
body $-1 $29 $-1 $30 #
body $-1 $31 $-1 $32 #
lump $-1 $-1 $33 $0 #
transform $-1 1 0 0 0 1 0 0 0 1 62.151554918057805 34.235990650623378 13.720517045376631 1 rotate no_reflect no_shear #
lump $-1 $-1 $34 $1 #
transform $-1 1 0 0 0 1 0 0 0 1 62.151554918057805 34.235990650623378 13.720517045376631 1 rotate no_reflect no_shear #
lump $-1 $-1 $35 $2 #
transform $-1 1 0 0 0 1 0 0 0 1 62.151554918057805 34.235990650623378 13.720517045376631 1 rotate no_reflect no_shear #
lump $-1 $-1 $36 $3 #
transform $-1 1 0 0 0 1 0 0 0 1 62.151554918057805 34.235990650623378 13.720517045376631 1 rotate no_reflect no_shear #
lump $-1 $-1 $37 $4 #
transform $-1 1 0 0 0 1 0 0 0 1 62.151554918057805 34.235990650623378 13.720517045376631 1 rotate no_reflect no_shear #
lump $-1 $-1 $38 $5 #
transform $-1 1 0 0 0 1 0 0 0 1 62.151554918057805 34.235990650623378 13.720517045376631 1 rotate no_reflect no_shear #
lump $-1 $-1 $39 $6 #
transform $-1 1 0 0 0 1 0 0 0 1 62.151554918057805 34.235990650623378 13.720517045376631 1 rotate no_reflect no_shear #
lump $-1 $-1 $40 $7 #
transform $-1 1 0 0 0 1 0 0 0 1 62.151554918057805 34.235990650623378 13.720517045376631 1 rotate no_reflect no_shear #
lump $-1 $-1 $41 $8 #
transform $-1 1 0 0 0 1 0 0 0 1 62.151554918057805 34.235990650623378 13.720517045376631 1 rotate no_reflect no_shear #
lump $-1 $-1 $42 $9 #
transform $-1 1 0 0 0 1 0 0 0 1 62.151554918057805 34.235990650623378 13.720517045376631 1 rotate no_reflect no_shear #
lump $-1 $-1 $43 $10 #
transform $-1 1 0 0 0 1 0 0 0 1 62.151554918057805 34.235990650623378 13.720517045376631 1 rotate no_reflect no_shear #
shell $-1 $-1 $-1 $44 $-1 $11 #
shell $-1 $-1 $-1 $45 $-1 $13 #
shell $-1 $-1 $-1 $46 $-1 $15 #
shell $-1 $-1 $-1 $47 $-1 $17 #
shell $-1 $-1 $-1 $48 $-1 $19 #
shell $-1 $-1 $-1 $49 $-1 $21 #
shell $-1 $-1 $-1 $50 $-1 $23 #
shell $-1 $-1 $-1 $51 $-1 $25 #
shell $-1 $-1 $-1 $52 $-1 $27 #
shell $-1 $-1 $-1 $53 $-1 $29 #
shell $-1 $-1 $-1 $54 $-1 $31 #
face $-1 $55 $56 $33 $-1 $57 forward single #
face $-1 $58 $59 $34 $-1 $60 forward single #
face $-1 $61 $62 $35 $-1 $63 forward single #
face $-1 $64 $65 $36 $-1 $66 reversed single #
face $-1 $67 $68 $37 $-1 $69 forward single #
face $-1 $70 $71 $38 $-1 $72 forward single #
face $-1 $73 $74 $39 $-1 $75 reversed single #
face $-1 $76 $77 $40 $-1 $78 forward single #
face $-1 $79 $80 $41 $-1 $81 forward single #
face $-1 $82 $83 $42 $-1 $84 reversed single #
face $-1 $85 $86 $43 $-1 $87 forward single #
face $-1 $88 $89 $33 $-1 $90 reversed single #
loop $-1 $-1 $91 $44 #
plane-surface $-1 0 0 13.720517045376631 0 0 1 1 0 0 forward_v I I I I #
face $-1 $92 $93 $34 $-1 $94 reversed single #
loop $-1 $-1 $95 $45 #
plane-surface $-1 0 -34.235990650623378 0 0 1 0 0 0 1 forward_v I I I I #
face $-1 $96 $97 $35 $-1 $98 reversed single #
loop $-1 $-1 $99 $46 #
plane-surface $-1 0 34.235990650623378 0 0 -1 0 0 0 -1 forward_v I I I I #
face $-1 $100 $101 $36 $-1 $102 reversed single #
loop $-1 $-1 $103 $47 #
plane-surface $-1 -136.95903478900226 -21.571995709443421 107.04489995640876 0 1 0 -0.6018150307709319 0 0.79863550430605224 forward_v I I I I #
face $-1 $104 $105 $37 $-1 $106 forward single #
loop $-1 $107 $108 $48 #
cone-surface $-1 -57.903688467965772 -19.810678185433886 10.346952343351262 0.6018150307709319 0 -0.79863550430605224 0.39931775215302612 0 0.30090751538546595 1 I I 0 1 0.5 forward I I I I #
face $-1 $109 $110 $38 $-1 $111 forward single #
loop $-1 $112 $113 $49 #
cone-surface $-1 -57.903688467965772 -17.168701899419588 10.346952343351262 0.6018150307709319 0 -0.79863550430605224 0.39931775215302612 0 0.30090751538546595 1 I I 0 1 0.5 forward I I I I #
face $-1 $114 $115 $39 $-1 $116 reversed single #
loop $-1 $-1 $117 $50 #
plane-surface $-1 -136.95903478900226 -8.8817841970012523e-016 107.04489995640876 0 1 0 -0.6018150307709319 0 0.79863550430605224 forward_v I I I I #
face $-1 $118 $119 $40 $-1 $120 forward single #
loop $-1 $121 $122 $51 #
cone-surface $-1 -57.903688467965772 1.7613175240095345 10.346952343351262 0.6018150307709319 0 -0.79863550430605224 0.39931775215302612 0 0.30090751538546595 1 I I 0 1 0.5 forward I I I I #
face $-1 $123 $124 $41 $-1 $125 forward single #
loop $-1 $126 $127 $52 #
cone-surface $-1 -57.903688467965772 4.4032938100238326 10.346952343351262 0.6018150307709319 0 -0.79863550430605224 0.39931775215302612 0 0.30090751538546595 1 I I 0 1 0.5 forward I I I I #
face $-1 $128 $129 $42 $-1 $130 reversed single #
loop $-1 $-1 $131 $53 #
plane-surface $-1 98.700591378256149 11.195110280906864 178.50625596578095 0 -1 0 -0.83867057594974714 0 -0.54463902268945019 forward_v I I I I #
face $-1 $132 $133 $43 $-1 $134 forward single #
loop $-1 $135 $136 $54 #
cone-surface $-1 58.472584854965909 5.0519504245386457 9.2600191834120515 -0.83867057594974714 0 -0.54463902268945019 0.54463902268945019 0 -0.83867057594974714 1 I I 0 1 1 forward I I I I #
face $-1 $137 $138 $33 $-1 $139 reversed single #
loop $-1 $-1 $140 $55 #
plane-surface $-1 0 0 -13.720517045376631 0 0 1 1 0 0 forward_v I I I I #
coedge $-1 $141 $142 $143 $144 forward $56 $-1 #
face $-1 $145 $146 $34 $-1 $147 reversed single #
loop $-1 $-1 $148 $58 #
plane-surface $-1 0 0 -13.720517045376631 0 0 1 1 0 0 forward_v I I I I #
coedge $-1 $149 $150 $151 $152 forward $59 $-1 #
face $-1 $153 $154 $35 $-1 $155 forward single #
loop $-1 $-1 $156 $61 #
plane-surface $-1 -62.151554918057805 0 0 1 0 0 0 0 -1 forward_v I I I I #
coedge $-1 $157 $158 $159 $160 forward $62 $-1 #
face $-1 $161 $162 $36 $-1 $163 reversed single #
loop $-1 $-1 $164 $64 #
plane-surface $-1 -62.151554918057812 -18.489690042426737 7.7720231456319482 -0.6018150307709319 0 0.79863550430605224 0.79863550430605224 0 0.6018150307709319 forward_v I I I I #
coedge $-1 $165 $166 $167 $168 reversed $65 $-1 #
face $-1 $-1 $169 $37 $-1 $170 forward single #
loop $-1 $171 $172 $67 #
cone-surface $-1 -57.452327194887573 -19.810678185433886 9.7479757151217221 0.6018150307709319 0 -0.79863550430605224 0.19965887607651306 0 0.15045375769273298 1 I I -0.70710678118654746 0.70710678118654746 0.25 forward I I I I #
loop $-1 $-1 $173 $48 #
coedge $-1 $108 $108 $174 $175 reversed $68 $-1 #
face $-1 $-1 $176 $38 $-1 $177 forward single #
loop $-1 $178 $179 $70 #
cone-surface $-1 -57.452327194887573 -17.168701899419588 9.7479757151217221 0.6018150307709319 0 -0.79863550430605224 0.19965887607651306 0 0.15045375769273298 1 I I -0.70710678118654746 0.70710678118654746 0.25 forward I I I I #
loop $-1 $-1 $180 $49 #
coedge $-1 $113 $113 $181 $182 reversed $71 $-1 #
face $-1 $183 $184 $39 $-1 $185 reversed single #
loop $-1 $-1 $186 $73 #
plane-surface $-1 -62.151554918057812 3.0823056670166835 7.7720231456319482 -0.6018150307709319 0 0.79863550430605224 0.79863550430605224 0 0.6018150307709319 forward_v I I I I #
coedge $-1 $187 $188 $189 $190 reversed $74 $-1 #
face $-1 $-1 $191 $40 $-1 $192 forward single #
loop $-1 $193 $194 $76 #
cone-surface $-1 -57.452327194887573 1.7613175240095345 9.7479757151217221 0.6018150307709319 0 -0.79863550430605224 0.19965887607651306 0 0.15045375769273298 1 I I -0.70710678118654746 0.70710678118654746 0.25 forward I I I I #
loop $-1 $-1 $195 $51 #
coedge $-1 $122 $122 $196 $197 reversed $77 $-1 #
face $-1 $-1 $198 $41 $-1 $199 forward single #
loop $-1 $200 $201 $79 #
cone-surface $-1 -57.452327194887573 4.4032938100238326 9.7479757151217221 0.6018150307709319 0 -0.79863550430605224 0.19965887607651306 0 0.15045375769273298 1 I I -0.70710678118654746 0.70710678118654746 0.25 forward I I I I #
loop $-1 $-1 $202 $52 #
coedge $-1 $127 $127 $203 $204 reversed $80 $-1 #
face $-1 $205 $206 $42 $-1 $207 reversed single #
loop $-1 $-1 $208 $82 #
plane-surface $-1 -5.5487693403436111 5.0519504245386457 110.80593170737956 0.83867057594974714 0 0.54463902268945019 0.54463902268945019 0 -0.83867057594974714 forward_v I I I I #
coedge $-1 $209 $210 $211 $212 reversed $83 $-1 #
face $-1 $-1 $213 $43 $-1 $214 forward single #
loop $-1 $215 $216 $85 #
cone-surface $-1 56.700439912261096 5.0519504245386457 8.1091748384011524 -0.83867057594974714 0 -0.54463902268945019 0.2723195113447251 0 -0.41933528797487357 1 I I -0.70710678118654746 0.70710678118654746 0.5 forward I I I I #
loop $-1 $-1 $217 $54 #
coedge $-1 $136 $136 $218 $219 reversed $86 $-1 #
face $-1 $220 $221 $33 $-1 $222 reversed single #
loop $-1 $-1 $223 $88 #
plane-surface $-1 0 -34.235990650623378 0 0 1 0 0 0 1 forward_v I I I I #
coedge $-1 $224 $225 $226 $227 forward $89 $-1 #
coedge $-1 $228 $91 $229 $230 forward $56 $-1 #
coedge $-1 $91 $228 $231 $232 forward $56 $-1 #
coedge $-1 $233 $234 $91 $144 reversed $235 $-1 #
edge $-1 $236 -34.235990650623378 $237 34.235990650623378 $143 $238 forward 7 unknown #
face $-1 $239 $240 $34 $-1 $241 forward single #
loop $-1 $-1 $242 $92 #
plane-surface $-1 62.151554918057805 0 0 -1 0 0 0 0 1 forward_v I I I I #
coedge $-1 $243 $244 $245 $246 forward $93 $-1 #
coedge $-1 $245 $95 $242 $247 reversed $59 $-1 #
coedge $-1 $95 $245 $248 $249 reversed $59 $-1 #
coedge $-1 $250 $251 $95 $152 reversed $240 $-1 #
edge $-1 $252 -62.151554918057805 $253 62.151554918057805 $151 $254 forward 7 unknown #
face $-1 $255 $256 $35 $-1 $257 reversed single #
loop $-1 $-1 $258 $96 #
plane-surface $-1 0 40.567988121213361 -7.1189078765787883 0 0 1 1 0 0 forward_v I I I I #
coedge $-1 $259 $260 $157 $261 forward $97 $-1 #
coedge $-1 $262 $99 $156 $261 reversed $62 $-1 #
coedge $-1 $99 $262 $263 $264 reversed $62 $-1 #
coedge $-1 $258 $265 $99 $160 reversed $154 $-1 #
edge $-1 $266 -62.151554918057805 $267 62.151554918057805 $159 $268 forward 7 unknown #
face $-1 $269 $270 $36 $-1 $271 reversed single #
loop $-1 $-1 $272 $100 #
plane-surface $-1 -136.95903478900226 -15.407384375410054 107.04489995640876 0 -1 0 0.6018150307709319 0 -0.79863550430605224 forward_v I I I I #
coedge $-1 $273 $274 $275 $276 reversed $101 $-1 #
coedge $-1 $166 $103 $277 $278 reversed $65 $-1 #
coedge $-1 $103 $165 $273 $279 reversed $65 $-1 #
coedge $-1 $275 $280 $103 $168 forward $281 $-1 #
edge $-1 $282 6.3279624764433251 $283 14.221880345856448 $167 $284 forward 7 unknown #
loop $-1 $-1 $174 $104 #
plane-surface $-1 -62.151554918057812 -18.489690042426737 7.7720231456319482 -0.6018150307709319 0 0.79863550430605224 0.79863550430605224 0 0.6018150307709319 forward_v I I I I #
loop $-1 $-1 $285 $67 #
coedge $-1 $172 $172 $173 $286 reversed $105 $-1 #
coedge $-1 $173 $173 $172 $286 forward $107 $-1 #
coedge $-1 $174 $174 $108 $175 forward $169 $-1 #
edge $-1 $287 0 $287 6.2831853071796004 $174 $288 forward 7 unknown #
loop $-1 $-1 $181 $109 #
plane-surface $-1 -62.151554918057812 -18.489690042426737 7.7720231456319482 -0.6018150307709319 0 0.79863550430605224 0.79863550430605224 0 0.6018150307709319 forward_v I I I I #
loop $-1 $-1 $289 $70 #
coedge $-1 $179 $179 $180 $290 reversed $110 $-1 #
coedge $-1 $180 $180 $179 $290 forward $112 $-1 #
coedge $-1 $181 $181 $113 $182 forward $176 $-1 #
edge $-1 $291 0 $291 6.2831853071796004 $181 $292 forward 7 unknown #
face $-1 $293 $294 $39 $-1 $295 forward single #
loop $-1 $-1 $296 $114 #
plane-surface $-1 -136.95903478900226 6.1646113340333679 107.04489995640876 0 -1 0 0.6018150307709319 0 -0.79863550430605224 forward_v I I I I #
coedge $-1 $297 $298 $299 $300 reversed $115 $-1 #
coedge $-1 $188 $117 $301 $302 reversed $74 $-1 #
coedge $-1 $117 $187 $297 $303 reversed $74 $-1 #
coedge $-1 $299 $304 $117 $190 forward $294 $-1 #
edge $-1 $305 6.3279624764433251 $306 14.221880345856448 $189 $307 forward 7 unknown #
loop $-1 $-1 $196 $118 #
plane-surface $-1 -62.151554918057812 3.0823056670166835 7.7720231456319482 -0.6018150307709319 0 0.79863550430605224 0.79863550430605224 0 0.6018150307709319 forward_v I I I I #
loop $-1 $-1 $308 $76 #
coedge $-1 $194 $194 $195 $309 reversed $119 $-1 #
coedge $-1 $195 $195 $194 $309 forward $121 $-1 #
coedge $-1 $196 $196 $122 $197 forward $191 $-1 #
edge $-1 $310 0 $310 6.2831853071796004 $196 $311 forward 7 unknown #
loop $-1 $-1 $203 $123 #
plane-surface $-1 -62.151554918057812 3.0823056670166835 7.7720231456319482 -0.6018150307709319 0 0.79863550430605224 0.79863550430605224 0 0.6018150307709319 forward_v I I I I #
loop $-1 $-1 $312 $79 #
coedge $-1 $201 $201 $202 $313 reversed $124 $-1 #
coedge $-1 $202 $202 $201 $313 forward $126 $-1 #
coedge $-1 $203 $203 $127 $204 forward $198 $-1 #
edge $-1 $314 0 $314 6.2831853071796004 $203 $315 forward 7 unknown #
face $-1 $316 $317 $42 $-1 $318 forward single #
loop $-1 $-1 $319 $128 #
plane-surface $-1 98.700591378256149 -1.0912094318295722 178.50625596578095 0 1 0 0.83867057594974714 0 0.54463902268945019 forward_v I I I I #
coedge $-1 $320 $321 $322 $323 reversed $129 $-1 #
coedge $-1 $210 $131 $324 $325 reversed $83 $-1 #
coedge $-1 $131 $209 $320 $326 reversed $83 $-1 #
coedge $-1 $322 $327 $131 $212 forward $317 $-1 #
edge $-1 $328 -12.80125922892973 $329 -8.1489384122058013 $211 $330 forward 7 unknown #
loop $-1 $-1 $218 $132 #
plane-surface $-1 -5.5487693403436111 5.0519504245386457 110.80593170737956 0.83867057594974714 0 0.54463902268945019 0.54463902268945019 0 -0.83867057594974714 forward_v I I I I #
loop $-1 $-1 $331 $85 #
coedge $-1 $216 $216 $217 $332 reversed $133 $-1 #
coedge $-1 $217 $217 $216 $332 forward $135 $-1 #
coedge $-1 $218 $218 $136 $219 forward $213 $-1 #
edge $-1 $333 0 $333 6.2831853071796004 $218 $334 forward 7 unknown #
face $-1 $335 $336 $33 $-1 $337 reversed single #
loop $-1 $-1 $338 $137 #
plane-surface $-1 -62.151554918057805 0 0 1 0 0 0 0 -1 forward_v I I I I #
coedge $-1 $231 $339 $233 $340 reversed $138 $-1 #
coedge $-1 $341 $140 $339 $342 forward $89 $-1 #
coedge $-1 $140 $341 $343 $344 forward $89 $-1 #
coedge $-1 $234 $233 $140 $227 reversed $235 $-1 #
edge $-1 $345 -34.235990650623378 $346 34.235990650623378 $226 $347 forward 7 unknown #
coedge $-1 $142 $141 $348 $349 forward $56 $-1 #
coedge $-1 $350 $351 $141 $230 reversed $336 $-1 #
edge $-1 $237 -62.151554918057805 $352 62.151554918057805 $229 $353 forward 7 unknown #
coedge $-1 $354 $223 $142 $232 reversed $138 $-1 #
edge $-1 $355 -62.151554918057805 $236 62.151554918057805 $231 $356 forward 7 unknown #
coedge $-1 $226 $143 $223 $340 forward $235 $-1 #
coedge $-1 $143 $226 $350 $357 reversed $235 $-1 #
loop $-1 $-1 $233 $335 #
vertex $-1 $144 $358 #
vertex $-1 $144 $359 #
straight-curve $-1 62.151554918057805 0 13.720517045376631 0 1 0 I I #
face $-1 $360 $361 $34 $-1 $362 reversed single #
loop $-1 $-1 $251 $145 #
plane-surface $-1 0 -40.567988121213354 -7.1189078765787883 0 0 1 1 0 0 forward_v I I I I #
coedge $-1 $363 $364 $149 $247 forward $146 $-1 #
coedge $-1 $365 $148 $364 $366 forward $93 $-1 #
coedge $-1 $148 $365 $367 $368 forward $93 $-1 #
coedge $-1 $150 $149 $148 $246 reversed $59 $-1 #
edge $-1 $369 -62.151554918057805 $370 62.151554918057805 $148 $371 forward 7 unknown #
edge $-1 $370 -13.720517045376631 $253 -7.1189078765787883 $242 $372 forward 7 unknown #
coedge $-1 $367 $373 $150 $249 forward $374 $-1 #
edge $-1 $252 7.1189078765787883 $369 13.720517045376631 $248 $375 forward 7 unknown #
coedge $-1 $376 $151 $373 $377 forward $240 $-1 #
coedge $-1 $151 $376 $363 $378 forward $240 $-1 #
vertex $-1 $249 $379 #
vertex $-1 $378 $380 #
straight-curve $-1 0 -34.235990650623378 -7.1189078765787883 1 0 0 I I #
face $-1 $381 $382 $35 $-1 $383 reversed single #
loop $-1 $-1 $384 $153 #
plane-surface $-1 0 46.899985591803336 -10.41971246097771 0 -1 0 0 0 -1 forward_v I I I I #
coedge $-1 $385 $159 $386 $387 forward $154 $-1 #
coedge $-1 $388 $156 $265 $389 reversed $97 $-1 #
coedge $-1 $156 $388 $390 $391 reversed $97 $-1 #
edge $-1 $392 -13.720517045376631 $267 -7.1189078765787883 $156 $393 forward 7 unknown #
coedge $-1 $158 $157 $394 $395 reversed $62 $-1 #
coedge $-1 $396 $386 $158 $264 forward $397 $-1 #
edge $-1 $266 7.1189078765787883 $398 13.720517045376631 $263 $399 forward 7 unknown #
coedge $-1 $159 $385 $259 $389 forward $154 $-1 #
vertex $-1 $264 $400 #
vertex $-1 $389 $401 #
straight-curve $-1 0 34.235990650623378 -7.1189078765787883 -1 0 0 I I #
face $-1 $-1 $281 $36 $-1 $402 forward single #
loop $-1 $-1 $403 $161 #
plane-surface $-1 -62.151554918057805 0 0 1 0 0 0 0 -1 forward_v I I I I #
coedge $-1 $404 $405 $406 $407 reversed $162 $-1 #
coedge $-1 $408 $164 $166 $279 forward $101 $-1 #
coedge $-1 $164 $408 $404 $409 forward $101 $-1 #
coedge $-1 $406 $167 $164 $276 forward $281 $-1 #
edge $-1 $283 -12.327150688230052 $410 -6.1625393541966851 $275 $411 forward 7 unknown #
coedge $-1 $412 $413 $165 $278 forward $270 $-1 #
edge $-1 $414 -45.750426832572423 $282 -39.801932932827746 $277 $415 forward 7 unknown #
edge $-1 $283 -9.8842561179048598 $414 -8.8817612989391469e-015 $166 $416 forward 7 unknown #
coedge $-1 $167 $406 $412 $417 forward $281 $-1 #
loop $-1 $-1 $406 $269 #
vertex $-1 $278 $418 #
vertex $-1 $168 $419 #
straight-curve $-1 -68.47951739450113 -21.571995709443421 13.720517045376631 1 0 0 I I #
coedge $-1 $285 $285 $-1 $420 reversed $171 $-1 #
edge $-1 $421 0 $421 6.2831853071796004 $172 $422 forward 7 unknown #
vertex $-1 $175 $423 #
ellipse-curve $-1 -58.20459598335124 -19.810678185433886 10.746270095504293 -0.6018150307709319 0 0.79863550430605224 0.39931775215302612 0 0.30090751538546595 1 I I #
coedge $-1 $289 $289 $-1 $424 reversed $178 $-1 #
edge $-1 $425 0 $425 6.2831853071796004 $179 $426 forward 7 unknown #
vertex $-1 $182 $427 #
ellipse-curve $-1 -58.20459598335124 -17.168701899419588 10.746270095504293 -0.6018150307709319 0 0.79863550430605224 0.39931775215302612 0 0.30090751538546595 1 I I #
face $-1 $-1 $428 $39 $-1 $429 reversed single #
loop $-1 $-1 $189 $183 #
plane-surface $-1 0 0 13.720517045376631 0 0 1 1 0 0 forward_v I I I I #
coedge $-1 $430 $431 $432 $433 reversed $184 $-1 #
coedge $-1 $434 $186 $188 $303 forward $115 $-1 #
coedge $-1 $186 $434 $430 $435 forward $115 $-1 #
coedge $-1 $432 $189 $186 $300 forward $294 $-1 #
edge $-1 $306 -1.5411528335083426 $436 4.6234585005250262 $299 $437 forward 7 unknown #
coedge $-1 $438 $439 $187 $302 forward $428 $-1 #
edge $-1 $440 -45.750426832572423 $305 -39.801932932827746 $301 $441 forward 7 unknown #
edge $-1 $306 -9.8842561179048598 $440 -8.8817612989391469e-015 $188 $442 forward 7 unknown #
coedge $-1 $189 $432 $438 $443 forward $294 $-1 #
vertex $-1 $190 $444 #
vertex $-1 $190 $445 #
straight-curve $-1 -68.47951739450113 -8.8817841970012523e-016 13.720517045376631 1 0 0 I I #
coedge $-1 $308 $308 $-1 $446 reversed $193 $-1 #
edge $-1 $447 0 $447 6.2831853071796004 $194 $448 forward 7 unknown #
vertex $-1 $197 $449 #
ellipse-curve $-1 -58.20459598335124 1.7613175240095345 10.746270095504293 -0.6018150307709319 0 0.79863550430605224 0.39931775215302612 0 0.30090751538546595 1 I I #
coedge $-1 $312 $312 $-1 $450 reversed $200 $-1 #
edge $-1 $451 0 $451 6.2831853071796004 $201 $452 forward 7 unknown #
vertex $-1 $204 $453 #
ellipse-curve $-1 -58.20459598335124 4.4032938100238326 10.746270095504293 -0.6018150307709319 0 0.79863550430605224 0.39931775215302612 0 0.30090751538546595 1 I I #
face $-1 $-1 $454 $42 $-1 $455 reversed single #
loop $-1 $-1 $211 $205 #
plane-surface $-1 0 0 13.720517045376631 0 0 1 1 0 0 forward_v I I I I #
coedge $-1 $456 $457 $458 $459 reversed $206 $-1 #
coedge $-1 $460 $208 $210 $326 forward $129 $-1 #
coedge $-1 $208 $460 $456 $461 forward $129 $-1 #
coedge $-1 $458 $211 $208 $323 forward $317 $-1 #
edge $-1 $329 -8.6691350686375408 $462 3.6171846440988951 $322 $463 forward 7 unknown #
coedge $-1 $464 $465 $209 $325 forward $454 $-1 #
edge $-1 $466 -82.696556994110722 $328 -75.532610937513851 $324 $467 forward 7 unknown #
edge $-1 $329 115.76108360789834 $466 124.30310983611567 $210 $468 forward 7 unknown #
coedge $-1 $211 $458 $464 $469 forward $317 $-1 #
vertex $-1 $325 $470 #
vertex $-1 $212 $471 #
straight-curve $-1 49.350295689128075 11.195110280906864 13.720517045376639 -1 0 0 I I #
coedge $-1 $331 $331 $-1 $472 reversed $215 $-1 #
edge $-1 $473 0 $473 6.2831853071796004 $216 $474 forward 7 unknown #
vertex $-1 $219 $475 #
ellipse-curve $-1 59.825394509695819 5.0519504245386457 10.138544017078209 0.83867057594974714 0 0.54463902268945019 0.54463902268945019 0 -0.83867057594974714 1 I I #
face $-1 $-1 $235 $33 $-1 $476 reversed single #
loop $-1 $-1 $351 $220 #
plane-surface $-1 0 34.235990650623378 0 0 -1 0 0 0 -1 forward_v I I I I #
coedge $-1 $477 $348 $351 $478 forward $221 $-1 #
coedge $-1 $223 $354 $224 $342 reversed $138 $-1 #
edge $-1 $236 -13.720517045376631 $346 13.720517045376631 $233 $479 forward 7 unknown #
coedge $-1 $225 $224 $477 $480 forward $89 $-1 #
edge $-1 $346 -62.151554918057805 $481 62.151554918057805 $339 $482 forward 7 unknown #
coedge $-1 $351 $350 $225 $344 reversed $336 $-1 #
edge $-1 $483 -62.151554918057805 $345 62.151554918057805 $343 $484 forward 7 unknown #
vertex $-1 $227 $485 #
vertex $-1 $340 $486 #
straight-curve $-1 62.151554918057805 0 -13.720517045376631 0 -1 0 I I #
coedge $-1 $338 $487 $228 $349 reversed $221 $-1 #
edge $-1 $352 -34.235990650623378 $355 34.235990650623378 $348 $488 forward 7 unknown #
coedge $-1 $343 $229 $234 $357 forward $336 $-1 #
coedge $-1 $229 $343 $338 $478 reversed $336 $-1 #
vertex $-1 $230 $489 #
straight-curve $-1 0 34.235990650623378 13.720517045376631 -1 0 0 I I #
coedge $-1 $339 $231 $487 $490 forward $138 $-1 #
vertex $-1 $349 $491 #
straight-curve $-1 0 -34.235990650623378 13.720517045376631 1 0 0 I I #
edge $-1 $237 -13.720517045376631 $345 13.720517045376631 $234 $492 forward 7 unknown #
point $-1 62.151554918057805 -34.235990650623378 13.720517045376631 #
point $-1 62.151554918057805 34.235990650623378 13.720517045376631 #
face $-1 $-1 $374 $34 $-1 $493 reversed single #
loop $-1 $-1 $494 $239 #
plane-surface $-1 0 -46.899985591803329 -10.41971246097771 0 1 0 0 0 1 forward_v I I I I #
coedge $-1 $495 $242 $251 $378 reversed $146 $-1 #
coedge $-1 $242 $495 $243 $366 reversed $146 $-1 #
coedge $-1 $244 $243 $496 $497 forward $93 $-1 #
edge $-1 $370 34.235990650623378 $498 46.899985591803329 $364 $499 forward 7 unknown #
coedge $-1 $500 $248 $244 $368 reversed $374 $-1 #
edge $-1 $501 -46.899985591803329 $369 -34.235990650623378 $367 $502 forward 7 unknown #
vertex $-1 $249 $503 #
vertex $-1 $366 $504 #
straight-curve $-1 0 -34.235990650623378 -13.720517045376631 1 0 0 I I #
straight-curve $-1 62.151554918057805 -34.235990650623378 0 0 0 1 I I #
coedge $-1 $248 $500 $250 $377 reversed $374 $-1 #
loop $-1 $-1 $248 $360 #
straight-curve $-1 -62.151554918057805 -34.235990650623378 0 0 0 -1 I I #
coedge $-1 $251 $250 $505 $506 forward $240 $-1 #
edge $-1 $252 -6.3319974705899753 $507 6.3319974705899753 $373 $508 forward 7 unknown #
edge $-1 $509 -6.3319974705899753 $253 6.3319974705899753 $363 $510 forward 7 unknown #
point $-1 -62.151554918057805 -34.235990650623378 -7.1189078765787883 #
point $-1 62.151554918057805 -34.235990650623378 -7.1189078765787883 #
face $-1 $-1 $397 $35 $-1 $511 reversed single #
loop $-1 $-1 $394 $255 #
plane-surface $-1 0 0 -13.720517045376631 0 0 1 1 0 0 forward_v I I I I #
coedge $-1 $512 $513 $514 $515 forward $256 $-1 #
coedge $-1 $265 $258 $513 $516 forward $154 $-1 #
coedge $-1 $263 $514 $258 $387 reversed $397 $-1 #
edge $-1 $266 -6.3319974705899753 $517 6.3319974705899753 $386 $518 forward 7 unknown #
coedge $-1 $260 $259 $519 $520 forward $97 $-1 #
edge $-1 $521 -6.3319974705899753 $267 6.3319974705899753 $259 $522 forward 7 unknown #
coedge $-1 $523 $394 $260 $391 forward $382 $-1 #
edge $-1 $392 -6.3319974705899824 $524 6.3319974705899753 $260 $525 forward 7 unknown #
vertex $-1 $391 $526 #
straight-curve $-1 -62.151554918057805 34.235990650623378 0 0 0 1 I I #
coedge $-1 $390 $527 $262 $395 forward $382 $-1 #
edge $-1 $398 -62.151554918057805 $392 62.151554918057805 $394 $528 forward 7 unknown #
coedge $-1 $514 $263 $527 $529 reversed $397 $-1 #
loop $-1 $-1 $263 $381 #
vertex $-1 $264 $530 #
straight-curve $-1 62.151554918057805 34.235990650623378 0 0 0 -1 I I #
point $-1 62.151554918057805 34.235990650623386 -7.1189078765787883 #
point $-1 -62.151554918057805 34.235990650623386 -7.1189078765787883 #
plane-surface $-1 0 0 13.720517045376631 0 0 1 1 0 0 forward_v I I I I #
coedge $-1 $413 $412 $405 $531 forward $270 $-1 #
coedge $-1 $405 $272 $274 $409 reversed $162 $-1 #
coedge $-1 $272 $404 $403 $531 reversed $162 $-1 #
coedge $-1 $280 $275 $272 $407 forward $281 $-1 #
edge $-1 $410 -14.221880345856448 $532 -6.3279624764433251 $406 $533 forward 7 unknown #
coedge $-1 $274 $273 $413 $534 reversed $101 $-1 #
edge $-1 $535 8.8817612989391469e-015 $410 9.8842561179048598 $404 $536 forward 7 unknown #
vertex $-1 $276 $537 #
straight-curve $-1 -54.257637048644682 -9.2448450212133686 13.720517045376633 0 1 0 I I #
coedge $-1 $403 $277 $280 $417 reversed $270 $-1 #
coedge $-1 $277 $403 $408 $534 forward $270 $-1 #
vertex $-1 $278 $538 #
straight-curve $-1 -62.151554918057805 -21.571995709443421 53.522449978204378 0 0 1 I I #
straight-curve $-1 -62.151554918057812 -21.571995709443421 7.7720231456319482 -0.79863550430605224 0 -0.6018150307709319 I I #
edge $-1 $532 15.407384375410054 $282 21.571995709443421 $412 $539 forward 7 unknown #
point $-1 -62.151554918057805 -21.571995709443421 13.720517045376631 #
point $-1 -54.257637048644682 -21.571995709443421 13.720517045376631 #
edge $-1 $540 1 $540 0 $285 $-1 forward 7 unknown #
vertex $-1 $286 $541 #
ellipse-curve $-1 -57.602780952580304 -19.810678185433886 9.947634591198236 -0.6018150307709319 0 0.79863550430605224 0.39931775215302612 0 0.30090751538546595 1 I I #
point $-1 -57.805278231198209 -19.810678185433886 11.047177610889753 #
edge $-1 $542 1 $542 0 $289 $-1 forward 7 unknown #
vertex $-1 $290 $543 #
ellipse-curve $-1 -57.602780952580304 -17.168701899419588 9.947634591198236 -0.6018150307709319 0 0.79863550430605224 0.39931775215302612 0 0.30090751538546595 1 I I #
point $-1 -57.805278231198209 -17.168701899419588 11.047177610889753 #
loop $-1 $-1 $301 $293 #
plane-surface $-1 -62.151554918057805 0 0 1 0 0 0 0 -1 forward_v I I I I #
coedge $-1 $431 $296 $298 $435 reversed $184 $-1 #
coedge $-1 $296 $430 $544 $545 reversed $184 $-1 #
coedge $-1 $304 $299 $296 $433 forward $294 $-1 #
edge $-1 $436 -14.221880345856448 $546 -6.3279624764433251 $432 $547 forward 7 unknown #
coedge $-1 $298 $297 $439 $548 reversed $115 $-1 #
edge $-1 $549 8.8817612989391469e-015 $436 9.8842561179048598 $430 $550 forward 7 unknown #
vertex $-1 $300 $551 #
straight-curve $-1 -54.257637048644682 1.5411528335083418 13.720517045376633 0 1 0 I I #
coedge $-1 $544 $301 $304 $443 reversed $428 $-1 #
coedge $-1 $301 $544 $434 $548 forward $428 $-1 #
vertex $-1 $302 $552 #
straight-curve $-1 -62.151554918057805 -8.8817841970012523e-016 53.522449978204378 0 0 1 I I #
straight-curve $-1 -62.151554918057812 -8.8817841970012523e-016 7.7720231456319482 -0.79863550430605224 0 -0.6018150307709319 I I #
edge $-1 $546 -6.1646113340333679 $305 8.8817841970012523e-016 $438 $553 forward 7 unknown #
point $-1 -62.151554918057805 -8.8817841970012523e-016 13.720517045376631 #
point $-1 -54.257637048644682 -8.8817841970012523e-016 13.720517045376631 #
edge $-1 $554 1 $554 0 $308 $-1 forward 7 unknown #
vertex $-1 $309 $555 #
ellipse-curve $-1 -57.602780952580304 1.7613175240095345 9.947634591198236 -0.6018150307709319 0 0.79863550430605224 0.39931775215302612 0 0.30090751538546595 1 I I #
point $-1 -57.805278231198209 1.7613175240095345 11.047177610889753 #
edge $-1 $556 1 $556 0 $312 $-1 forward 7 unknown #
vertex $-1 $313 $557 #
ellipse-curve $-1 -57.602780952580304 4.4032938100238326 9.947634591198236 -0.6018150307709319 0 0.79863550430605224 0.39931775215302612 0 0.30090751538546595 1 I I #
point $-1 -57.805278231198209 4.4032938100238326 11.047177610889753 #
loop $-1 $-1 $324 $316 #
plane-surface $-1 62.151554918057805 0 0 -1 0 0 0 0 1 forward_v I I I I #
coedge $-1 $457 $319 $321 $461 reversed $206 $-1 #
coedge $-1 $319 $456 $558 $559 reversed $206 $-1 #
coedge $-1 $327 $322 $319 $459 forward $317 $-1 #
edge $-1 $462 8.1489384122058013 $560 12.80125922892973 $458 $561 forward 7 unknown #
coedge $-1 $321 $320 $465 $562 reversed $129 $-1 #
edge $-1 $563 -124.30310983611567 $462 -115.76108360789834 $456 $564 forward 7 unknown #
vertex $-1 $323 $565 #
straight-curve $-1 57.499234101333869 2.5259752122693229 13.720517045376631 0 -1 0 I I #
coedge $-1 $558 $324 $327 $469 reversed $454 $-1 #
coedge $-1 $324 $558 $460 $562 forward $454 $-1 #
vertex $-1 $325 $566 #
straight-curve $-1 62.151554918057805 11.195110280906864 89.253127982890476 0 0 1 I I #
straight-curve $-1 -5.5487693403436111 11.195110280906864 110.80593170737956 0.54463902268945019 0 -0.83867057594974714 I I #
edge $-1 $560 -1.0912094318295722 $328 11.195110280906864 $464 $567 forward 7 unknown #
point $-1 62.151554918057805 11.195110280906864 13.720517045376631 #
point $-1 57.499234101333876 11.195110280906864 13.720517045376624 #
edge $-1 $568 1 $568 0 $331 $-1 forward 7 unknown #
vertex $-1 $332 $569 #
ellipse-curve $-1 57.119775200235971 5.0519504245386457 8.3814943497458767 0.83867057594974714 0 0.54463902268945019 0.54463902268945019 0 -0.83867057594974714 1 I I #
point $-1 60.3700335323853 5.0519504245386457 9.2998734411284794 #
plane-surface $-1 62.151554918057805 0 0 -1 0 0 0 0 1 forward_v I I I I #
coedge $-1 $487 $338 $341 $480 reversed $221 $-1 #
edge $-1 $352 -13.720517045376631 $483 13.720517045376631 $351 $570 forward 7 unknown #
straight-curve $-1 62.151554918057805 -34.235990650623378 0 0 0 -1 I I #
edge $-1 $481 -34.235990650623378 $483 34.235990650623378 $477 $571 forward 7 unknown #
vertex $-1 $480 $572 #
straight-curve $-1 0 -34.235990650623378 -13.720517045376631 -1 0 0 I I #
vertex $-1 $344 $573 #
straight-curve $-1 0 34.235990650623378 -13.720517045376631 1 0 0 I I #
point $-1 62.151554918057805 34.235990650623378 -13.720517045376631 #
point $-1 62.151554918057805 -34.235990650623378 -13.720517045376631 #
coedge $-1 $348 $477 $354 $490 reversed $221 $-1 #
straight-curve $-1 -62.151554918057805 0 13.720517045376631 0 -1 0 I I #
point $-1 -62.151554918057805 34.235990650623378 13.720517045376631 #
edge $-1 $355 -13.720517045376631 $481 13.720517045376631 $487 $574 forward 7 unknown #
point $-1 -62.151554918057805 -34.235990650623378 13.720517045376631 #
straight-curve $-1 62.151554918057805 34.235990650623378 0 0 0 -1 I I #
plane-surface $-1 -62.151554918057805 0 0 1 0 0 0 0 -1 forward_v I I I I #
coedge $-1 $496 $505 $500 $575 forward $361 $-1 #
coedge $-1 $364 $363 $576 $577 forward $146 $-1 #
coedge $-1 $576 $494 $365 $497 reversed $361 $-1 #
edge $-1 $498 -62.151554918057805 $501 62.151554918057805 $496 $578 forward 7 unknown #
vertex $-1 $577 $579 #
straight-curve $-1 62.151554918057805 0 -13.720517045376631 0 -1 0 I I #
coedge $-1 $373 $367 $494 $575 reversed $374 $-1 #
vertex $-1 $368 $580 #
straight-curve $-1 -62.151554918057805 0 -13.720517045376631 0 1 0 I I #
point $-1 -62.151554918057805 -34.235990650623378 -13.720517045376631 #
point $-1 62.151554918057805 -34.235990650623378 -13.720517045376631 #
coedge $-1 $494 $576 $376 $506 reversed $361 $-1 #
edge $-1 $507 -62.151554918057805 $509 62.151554918057805 $505 $581 forward 7 unknown #
vertex $-1 $377 $582 #
straight-curve $-1 -62.151554918057805 -40.567988121213354 -7.1189078765787883 0 -1 0 I I #
vertex $-1 $378 $583 #
straight-curve $-1 62.151554918057805 -40.567988121213354 -7.1189078765787883 0 1 0 I I #
plane-surface $-1 62.151554918057805 0 0 -1 0 0 0 0 1 forward_v I I I I #
coedge $-1 $519 $384 $523 $584 reversed $256 $-1 #
coedge $-1 $384 $519 $385 $516 reversed $256 $-1 #
coedge $-1 $386 $396 $384 $515 reversed $397 $-1 #
edge $-1 $517 -3.3008045843989215 $585 3.3008045843989215 $514 $586 forward 7 unknown #
edge $-1 $517 -62.151554918057805 $521 62.151554918057805 $513 $587 forward 7 unknown #
vertex $-1 $387 $588 #
straight-curve $-1 62.151554918057805 40.567988121213361 -7.1189078765787883 0 1 0 I I #
coedge $-1 $513 $512 $388 $520 reversed $256 $-1 #
edge $-1 $521 -3.3008045843989215 $524 3.3008045843989215 $519 $589 forward 7 unknown #
vertex $-1 $516 $590 #
straight-curve $-1 -62.151554918057805 40.567988121213361 -7.1189078765787883 0 -1 0 I I #
coedge $-1 $527 $390 $512 $584 forward $382 $-1 #
vertex $-1 $584 $591 #
straight-curve $-1 -62.151554918057805 40.567988121213361 -13.720517045376631 0 1 0 I I #
point $-1 -62.151554918057805 34.235990650623378 -13.720517045376631 #
coedge $-1 $394 $523 $396 $529 forward $382 $-1 #
straight-curve $-1 0 34.235990650623378 -13.720517045376631 -1 0 0 I I #
edge $-1 $585 -46.899985591803336 $398 -34.235990650623378 $396 $592 forward 7 unknown #
point $-1 62.151554918057805 34.235990650623378 -13.720517045376631 #
edge $-1 $532 39.801932932827746 $535 45.750426832572423 $403 $593 forward 7 unknown #
vertex $-1 $417 $594 #
straight-curve $-1 -68.47951739450113 -15.407384375410054 13.720517045376631 -1 0 0 I I #
edge $-1 $535 6.1625393541966851 $414 12.327150688230052 $413 $595 forward 7 unknown #
vertex $-1 $534 $596 #
straight-curve $-1 -62.151554918057812 -15.407384375410054 7.7720231456319482 0.79863550430605224 0 0.6018150307709319 I I #
point $-1 -54.257637048644682 -15.407384375410054 13.720517045376631 #
point $-1 -62.151554918057805 -21.571995709443421 7.7720231456319535 #
straight-curve $-1 -62.151554918057805 0 13.720517045376631 0 -1 0 I I #
vertex $-1 $420 $597 #
point $-1 -57.203463200427279 -19.810678185433886 10.248542106583701 #
vertex $-1 $424 $598 #
point $-1 -57.203463200427279 -17.168701899419588 10.248542106583701 #
coedge $-1 $439 $438 $431 $545 forward $428 $-1 #
edge $-1 $546 39.801932932827746 $549 45.750426832572423 $544 $599 forward 7 unknown #
vertex $-1 $443 $600 #
straight-curve $-1 -68.47951739450113 6.1646113340333679 13.720517045376631 -1 0 0 I I #
edge $-1 $549 -4.6234585005250262 $440 1.5411528335083426 $439 $601 forward 7 unknown #
vertex $-1 $548 $602 #
straight-curve $-1 -62.151554918057812 6.1646113340333679 7.7720231456319482 0.79863550430605224 0 0.6018150307709319 I I #
point $-1 -54.257637048644682 6.1646113340333679 13.720517045376631 #
point $-1 -62.151554918057805 -8.8817841970012523e-016 7.7720231456319535 #
straight-curve $-1 -62.151554918057805 0 13.720517045376631 0 -1 0 I I #
vertex $-1 $446 $603 #
point $-1 -57.203463200427279 1.7613175240095345 10.248542106583701 #
vertex $-1 $450 $604 #
point $-1 -57.203463200427279 4.4032938100238326 10.248542106583701 #
coedge $-1 $465 $464 $457 $559 forward $454 $-1 #
edge $-1 $560 75.532610937513851 $563 82.696556994110722 $558 $605 forward 7 unknown #
vertex $-1 $469 $606 #
straight-curve $-1 49.350295689128075 -1.0912094318295722 13.720517045376639 1 0 0 I I #
edge $-1 $563 -3.6171846440988951 $466 8.6691350686375408 $465 $607 forward 7 unknown #
vertex $-1 $562 $608 #
straight-curve $-1 -5.5487693403436111 -1.0912094318295722 110.80593170737956 -0.54463902268945019 0 0.83867057594974714 I I #
point $-1 57.499234101333876 -1.0912094318295722 13.720517045376624 #
point $-1 62.151554918057812 11.195110280906864 6.5565709887797539 #
straight-curve $-1 62.151554918057805 0 13.720517045376631 0 1 0 I I #
vertex $-1 $472 $609 #
point $-1 57.664414222925423 5.0519504245386457 7.5428237737961306 #
straight-curve $-1 -62.151554918057805 34.235990650623378 0 0 0 -1 I I #
straight-curve $-1 -62.151554918057805 0 -13.720517045376631 0 1 0 I I #
point $-1 -62.151554918057805 -34.235990650623378 -13.720517045376631 #
point $-1 -62.151554918057805 34.235990650623378 -13.720517045376631 #
straight-curve $-1 -62.151554918057805 -34.235990650623378 0 0 0 -1 I I #
edge $-1 $507 -3.3008045843989215 $501 3.3008045843989215 $500 $610 forward 7 unknown #
coedge $-1 $505 $496 $495 $577 reversed $361 $-1 #
edge $-1 $509 -3.3008045843989215 $498 3.3008045843989215 $495 $611 forward 7 unknown #
straight-curve $-1 0 -46.899985591803329 -13.720517045376631 -1 0 0 I I #
point $-1 62.151554918057805 -46.899985591803329 -13.720517045376631 #
point $-1 -62.151554918057805 -46.899985591803329 -13.720517045376631 #
straight-curve $-1 0 -46.899985591803329 -7.1189078765787883 1 0 0 I I #
point $-1 -62.151554918057805 -46.899985591803329 -7.1189078765787883 #
point $-1 62.151554918057805 -46.899985591803329 -7.1189078765787883 #
edge $-1 $524 -62.151554918057805 $585 62.151554918057805 $512 $612 forward 7 unknown #
vertex $-1 $529 $613 #
straight-curve $-1 62.151554918057805 46.899985591803336 -10.41971246097771 0 0 -1 I I #
straight-curve $-1 0 46.899985591803336 -7.1189078765787883 -1 0 0 I I #
point $-1 62.151554918057805 46.899985591803336 -7.1189078765787883 #
straight-curve $-1 -62.151554918057805 46.899985591803336 -10.41971246097771 0 0 -1 I I #
point $-1 -62.151554918057805 46.899985591803336 -7.1189078765787883 #
point $-1 -62.151554918057805 46.899985591803336 -13.720517045376631 #
straight-curve $-1 62.151554918057805 0 -13.720517045376631 0 -1 0 I I #
straight-curve $-1 -62.151554918057805 -15.407384375410054 53.522449978204378 0 0 -1 I I #
point $-1 -62.151554918057805 -15.407384375410054 13.720517045376631 #
straight-curve $-1 -62.151554918057805 -9.2448450212133686 7.772023145631958 0 -1 0 I I #
point $-1 -62.151554918057805 -15.407384375410054 7.7720231456319535 #
point $-1 -57.301873437194843 -19.810678185433886 9.5483168390452082 #
point $-1 -57.301873437194843 -17.168701899419588 9.5483168390452082 #
straight-curve $-1 -62.151554918057805 6.1646113340333679 53.522449978204378 0 0 -1 I I #
point $-1 -62.151554918057805 6.1646113340333679 13.720517045376631 #
straight-curve $-1 -62.151554918057805 1.5411528335083418 7.772023145631958 0 -1 0 I I #
point $-1 -62.151554918057805 6.1646113340333679 7.7720231456319535 #
point $-1 -57.301873437194843 1.7613175240095345 9.5483168390452082 #
point $-1 -57.301873437194843 4.4032938100238326 9.5483168390452082 #
straight-curve $-1 62.151554918057805 -1.0912094318295722 89.253127982890476 0 0 -1 I I #
point $-1 62.151554918057805 -1.0912094318295722 13.720517045376631 #
straight-curve $-1 62.151554918057812 2.5259752122693229 6.5565709887797539 0 1 0 I I #
point $-1 62.151554918057812 -1.0912094318295722 6.5565709887797539 #
point $-1 56.281104624286222 5.0519504245386457 7.8368553270564272 #
straight-curve $-1 -62.151554918057805 -46.899985591803329 -10.41971246097771 0 0 -1 I I #
straight-curve $-1 62.151554918057805 -46.899985591803329 -10.41971246097771 0 0 -1 I I #
straight-curve $-1 0 46.899985591803336 -13.720517045376631 1 0 0 I I #
point $-1 62.151554918057805 46.899985591803336 -13.720517045376631 #
End-of-ACIS-data 