500 0 4 0           
7 Unknown 11 ACIS 5.0 NT 24 Thu Mar 25 20:07:51 1999 
-1 9.9999999999999995e-007 1e-010 
body $-1 $4 $-1 $5 #
body $-1 $6 $-1 $7 #
body $-1 $8 $-1 $9 #
body $-1 $10 $-1 $11 #
lump $-1 $-1 $12 $0 #
transform $-1 1 0 0 0 1 0 0 0 1 49.908749656666771 25.402482807366905 11.399293418616404 1 rotate no_reflect no_shear #
lump $-1 $-1 $13 $1 #
transform $-1 1 0 0 0 1 0 0 0 1 49.908749656666771 25.402482807366905 11.399293418616404 1 rotate no_reflect no_shear #
lump $-1 $-1 $14 $2 #
transform $-1 1 0 0 0 1 0 0 0 1 49.908749656666771 25.402482807366905 11.399293418616404 1 rotate no_reflect no_shear #
lump $-1 $-1 $15 $3 #
transform $-1 1 0 0 0 1 0 0 0 1 49.908749656666771 25.402482807366905 11.399293418616404 1 rotate no_reflect no_shear #
shell $-1 $-1 $-1 $16 $-1 $4 #
shell $-1 $-1 $-1 $17 $-1 $6 #
shell $-1 $-1 $-1 $18 $-1 $8 #
shell $-1 $-1 $-1 $19 $-1 $10 #
face $-1 $20 $21 $12 $-1 $22 forward single #
face $-1 $23 $24 $13 $-1 $25 reversed single #
face $-1 $26 $27 $14 $-1 $28 forward single #
face $-1 $29 $30 $15 $-1 $31 reversed single #
face $-1 $32 $33 $12 $-1 $34 reversed single #
loop $-1 $-1 $35 $16 #
plane-surface $-1 0 0 11.399293418616404 0 0 1 1 0 0 forward_v I I I I #
face $-1 $36 $37 $13 $-1 $38 forward single #
loop $-1 $-1 $39 $17 #
plane-surface $-1 0 -19.609152949625852 -1.3026900553759688 0 0 1 1 0 0 forward_v I I I I #
face $-1 $40 $41 $14 $-1 $42 forward single #
loop $-1 $-1 $43 $18 #
plane-surface $-1 5.31665975052411 33.263941150814446 118.46196170981592 1 0 0 0 -0.51503808176128008 -0.85716729658548041 forward_v I I I I #
face $-1 $44 $45 $15 $-1 $46 reversed single #
loop $-1 $47 $48 $19 #
cone-surface $-1 13.350769733556433 20.18004990661646 6.8350461010570349 0 -0.51503808176128008 -0.85716729658548041 2 0 0 1 I I 0 1 2 forward I I I I #
face $-1 $49 $50 $12 $-1 $51 reversed single #
loop $-1 $-1 $52 $20 #
plane-surface $-1 0 0 -11.399293418616404 0 0 1 1 0 0 forward_v I I I I #
coedge $-1 $53 $54 $55 $56 forward $21 $-1 #
face $-1 $57 $58 $13 $-1 $59 forward single #
loop $-1 $-1 $60 $23 #
plane-surface $-1 0 -19.609152949625852 -4.3026900553759688 0 0 1 1 0 0 forward_v I I I I #
coedge $-1 $61 $62 $63 $64 reversed $24 $-1 #
face $-1 $65 $66 $14 $-1 $67 forward single #
loop $-1 $-1 $68 $26 #
plane-surface $-1 13.350769733556433 -18.145872221732752 32.90166567148276 0 0.51503808176128008 0.85716729658548041 1 0 0 forward_v I I I I #
coedge $-1 $69 $70 $71 $72 reversed $27 $-1 #
face $-1 $73 $74 $15 $-1 $75 forward single #
loop $-1 $76 $77 $29 #
cone-surface $-1 13.350769733556433 18.323778281452061 3.7456913775591403 0 -0.51503808176128008 -0.85716729658548041 1 0 0 1 I I -0.70710678118654746 0.70710678118654746 1 forward I I I I #
loop $-1 $-1 $78 $19 #
coedge $-1 $48 $48 $79 $80 reversed $30 $-1 #
face $-1 $81 $82 $12 $-1 $83 reversed single #
loop $-1 $-1 $84 $32 #
plane-surface $-1 0 -25.402482807366905 0 0 1 0 0 0 1 forward_v I I I I #
coedge $-1 $85 $86 $87 $88 forward $33 $-1 #
coedge $-1 $89 $35 $90 $91 forward $21 $-1 #
coedge $-1 $35 $89 $92 $93 forward $21 $-1 #
coedge $-1 $94 $95 $35 $56 reversed $96 $-1 #
edge $-1 $97 -25.402482807366905 $98 25.402482807366905 $55 $99 forward 7 unknown #
face $-1 $100 $101 $13 $-1 $102 reversed single #
loop $-1 $-1 $103 $36 #
plane-surface $-1 0 -13.8158230918848 -2.8026900553759688 0 -1 0 0 0 -1 forward_v I I I I #
coedge $-1 $104 $105 $106 $107 reversed $37 $-1 #
coedge $-1 $108 $39 $109 $110 reversed $24 $-1 #
coedge $-1 $39 $108 $111 $112 reversed $24 $-1 #
coedge $-1 $113 $114 $39 $64 forward $101 $-1 #
edge $-1 $115 -15.597906332553976 $116 -4.0112466170718744 $63 $117 forward 7 unknown #
face $-1 $118 $119 $14 $-1 $120 forward single #
loop $-1 $-1 $121 $40 #
plane-surface $-1 21.384879716588756 33.263941150814446 118.46196170981592 -1 0 0 0 0.51503808176128008 0.85716729658548041 forward_v I I I I #
coedge $-1 $122 $123 $124 $125 reversed $41 $-1 #
coedge $-1 $70 $43 $123 $126 forward $27 $-1 #
coedge $-1 $43 $69 $127 $128 reversed $27 $-1 #
coedge $-1 $129 $124 $43 $72 forward $119 $-1 #
edge $-1 $130 1.0081135172649951 $131 8.7705122319596818 $71 $132 forward 7 unknown #
face $-1 $133 $134 $15 $-1 $135 forward single #
loop $-1 $-1 $136 $44 #
plane-surface $-1 5.31665975052411 33.263941150814446 118.46196170981592 1 0 0 0 -0.51503808176128008 -0.85716729658548041 forward_v I I I I #
loop $-1 $-1 $137 $29 #
coedge $-1 $77 $77 $78 $138 forward $45 $-1 #
coedge $-1 $78 $78 $77 $138 reversed $47 $-1 #
coedge $-1 $79 $79 $48 $80 forward $134 $-1 #
edge $-1 $139 4.6399783558577058e-016 $139 6.2831853071796013 $79 $140 forward 7 unknown #
face $-1 $141 $142 $12 $-1 $143 reversed single #
loop $-1 $-1 $144 $49 #
plane-surface $-1 -49.908749656666771 0 0 1 0 0 0 0 -1 forward_v I I I I #
coedge $-1 $145 $92 $146 $147 forward $50 $-1 #
coedge $-1 $148 $52 $145 $149 forward $33 $-1 #
coedge $-1 $52 $148 $150 $151 forward $33 $-1 #
coedge $-1 $95 $94 $52 $88 reversed $96 $-1 #
edge $-1 $152 -25.402482807366905 $153 25.402482807366905 $87 $154 forward 7 unknown #
coedge $-1 $54 $53 $155 $156 forward $21 $-1 #
coedge $-1 $157 $158 $53 $91 reversed $142 $-1 #
edge $-1 $98 -49.908749656666771 $159 49.908749656666771 $90 $160 forward 7 unknown #
coedge $-1 $84 $161 $54 $93 reversed $50 $-1 #
edge $-1 $162 -49.908749656666771 $97 49.908749656666771 $92 $163 forward 7 unknown #
coedge $-1 $87 $55 $161 $164 forward $96 $-1 #
coedge $-1 $55 $87 $157 $165 reversed $96 $-1 #
loop $-1 $-1 $94 $141 #
vertex $-1 $56 $166 #
vertex $-1 $56 $167 #
straight-curve $-1 49.908749656666771 0 11.399293418616404 0 1 0 I I #
face $-1 $168 $169 $13 $-1 $170 reversed single #
loop $-1 $-1 $63 $57 #
plane-surface $-1 49.908749656666771 0 0 -1 0 0 0 0 1 forward_v I I I I #
coedge $-1 $111 $171 $113 $172 reversed $58 $-1 #
coedge $-1 $173 $60 $171 $174 reversed $37 $-1 #
coedge $-1 $60 $173 $175 $176 reversed $37 $-1 #
coedge $-1 $177 $113 $60 $107 forward $101 $-1 #
edge $-1 $178 4.0112466170718744 $179 15.597906332553976 $106 $180 forward 7 unknown #
coedge $-1 $62 $61 $181 $182 reversed $24 $-1 #
coedge $-1 $183 $184 $61 $110 forward $185 $-1 #
edge $-1 $186 -49.908749656666771 $115 49.908749656666771 $109 $187 forward 7 unknown #
coedge $-1 $188 $103 $62 $112 forward $58 $-1 #
edge $-1 $116 -49.908749656666771 $189 49.908749656666771 $111 $190 forward 7 unknown #
coedge $-1 $106 $63 $103 $172 forward $101 $-1 #
coedge $-1 $63 $191 $183 $192 forward $101 $-1 #
vertex $-1 $110 $193 #
vertex $-1 $64 $194 #
straight-curve $-1 49.908749656666771 -9.8045764748129258 -1.3026900553759688 0 1 0 I I #
face $-1 $195 $196 $14 $-1 $197 reversed single #
loop $-1 $-1 $198 $65 #
plane-surface $-1 0 0 11.399293418616404 0 0 1 1 0 0 forward_v I I I I #
coedge $-1 $199 $200 $198 $201 reversed $66 $-1 #
coedge $-1 $202 $68 $200 $203 reversed $41 $-1 #
coedge $-1 $68 $202 $69 $126 reversed $41 $-1 #
coedge $-1 $71 $198 $68 $125 forward $119 $-1 #
edge $-1 $204 -14.70949484981054 $130 1.3587251162541065 $124 $205 forward 7 unknown #
edge $-1 $130 41.749091988177874 $206 50.804965614733788 $69 $207 forward 7 unknown #
coedge $-1 $208 $209 $70 $128 forward $210 $-1 #
edge $-1 $131 47.83168743629156 $206 52.495807217585487 $127 $211 forward 7 unknown #
coedge $-1 $212 $71 $209 $213 forward $119 $-1 #
vertex $-1 $125 $214 #
vertex $-1 $213 $215 #
straight-curve $-1 5.31665975052411 16.631970575407223 11.399293418616402 0 1 0 I I #
face $-1 $216 $217 $15 $-1 $218 forward single #
loop $-1 $219 $79 $73 #
plane-surface $-1 13.350769733556433 -18.145872221732752 32.90166567148276 0 0.51503808176128008 0.85716729658548041 1 0 0 forward_v I I I I #
coedge $-1 $220 $221 $222 $223 reversed $74 $-1 #
coedge $-1 $137 $137 $-1 $224 forward $76 $-1 #
edge $-1 $225 0 $225 6.2831853071796004 $77 $226 forward 7 unknown #
vertex $-1 $80 $227 #
ellipse-curve $-1 13.350769733556433 21.52128345001957 9.0672335279694298 0 -0.51503808176128008 -0.85716729658548041 2 0 0 1 I I #
face $-1 $-1 $96 $12 $-1 $228 reversed single #
loop $-1 $-1 $157 $81 #
plane-surface $-1 0 25.402482807366905 0 0 -1 0 0 0 -1 forward_v I I I I #
coedge $-1 $229 $155 $158 $230 forward $82 $-1 #
coedge $-1 $161 $84 $85 $149 reversed $50 $-1 #
coedge $-1 $155 $229 $84 $147 reversed $82 $-1 #
edge $-1 $162 -11.399293418616404 $231 11.399293418616404 $146 $232 forward 7 unknown #
coedge $-1 $86 $85 $229 $233 forward $33 $-1 #
edge $-1 $153 -49.908749656666771 $231 49.908749656666771 $145 $234 forward 7 unknown #
coedge $-1 $158 $157 $86 $151 reversed $142 $-1 #
edge $-1 $235 -49.908749656666771 $152 49.908749656666771 $150 $236 forward 7 unknown #
vertex $-1 $88 $237 #
vertex $-1 $164 $238 #
straight-curve $-1 49.908749656666771 0 -11.399293418616404 0 -1 0 I I #
coedge $-1 $144 $146 $89 $156 reversed $82 $-1 #
edge $-1 $159 -25.402482807366905 $162 25.402482807366905 $155 $239 forward 7 unknown #
coedge $-1 $150 $90 $95 $165 forward $142 $-1 #
coedge $-1 $90 $150 $144 $230 reversed $142 $-1 #
vertex $-1 $91 $240 #
straight-curve $-1 0 25.402482807366905 11.399293418616404 -1 0 0 I I #
coedge $-1 $92 $145 $94 $164 reversed $50 $-1 #
vertex $-1 $156 $241 #
straight-curve $-1 0 -25.402482807366905 11.399293418616404 1 0 0 I I #
edge $-1 $97 -11.399293418616404 $153 11.399293418616404 $94 $242 forward 7 unknown #
edge $-1 $98 -11.399293418616404 $152 11.399293418616404 $95 $243 forward 7 unknown #
point $-1 49.908749656666771 -25.402482807366905 11.399293418616404 #
point $-1 49.908749656666771 25.402482807366905 11.399293418616404 #
face $-1 $244 $245 $13 $-1 $246 forward single #
loop $-1 $-1 $175 $100 #
plane-surface $-1 0 -25.402482807366905 0 0 1 0 0 0 1 forward_v I I I I #
coedge $-1 $103 $188 $104 $174 forward $58 $-1 #
edge $-1 $116 -0.098654972312015587 $178 2.9013450276879844 $113 $247 forward 7 unknown #
coedge $-1 $105 $104 $248 $249 reversed $37 $-1 #
edge $-1 $250 -49.908749656666771 $178 49.908749656666771 $171 $251 forward 7 unknown #
coedge $-1 $252 $253 $105 $176 forward $169 $-1 #
edge $-1 $179 -49.908749656666771 $254 49.908749656666771 $175 $255 forward 7 unknown #
coedge $-1 $256 $106 $253 $257 forward $101 $-1 #
vertex $-1 $107 $258 #
vertex $-1 $257 $259 #
straight-curve $-1 49.908749656666771 -9.8045764748129258 -4.3026900553759688 0 -1 0 I I #
coedge $-1 $260 $261 $108 $182 forward $262 $-1 #
edge $-1 $189 4.0112466170718744 $186 15.597906332553976 $181 $263 forward 7 unknown #
coedge $-1 $264 $109 $114 $192 reversed $185 $-1 #
coedge $-1 $109 $264 $260 $265 forward $185 $-1 #
loop $-1 $-1 $109 $266 #
vertex $-1 $182 $267 #
straight-curve $-1 0 -25.402482807366905 -1.3026900553759688 1 0 0 I I #
coedge $-1 $171 $111 $261 $268 reversed $58 $-1 #
vertex $-1 $182 $269 #
straight-curve $-1 0 -13.8158230918848 -1.3026900553759688 -1 0 0 I I #
coedge $-1 $114 $270 $271 $272 reversed $101 $-1 #
edge $-1 $273 -11.399293418616404 $115 1.3026900553759688 $114 $274 forward 7 unknown #
point $-1 49.908749656666771 -25.402482807366901 -1.3026900553759688 #
point $-1 49.908749656666771 -13.8158230918848 -1.3026900553759688 #
face $-1 $275 $276 $14 $-1 $277 forward single #
loop $-1 $-1 $278 $118 #
plane-surface $-1 0 -19.609152949625852 -1.3026900553759688 0 0 1 1 0 0 forward_v I I I I #
coedge $-1 $124 $279 $121 $201 forward $119 $-1 #
coedge $-1 $200 $121 $280 $281 reversed $66 $-1 #
coedge $-1 $121 $199 $122 $203 forward $66 $-1 #
edge $-1 $282 -8.7705122319596818 $204 -1.0081135172649951 $198 $283 forward 7 unknown #
coedge $-1 $123 $122 $208 $284 reversed $41 $-1 #
edge $-1 $285 -50.804965614733788 $204 -41.749091988177874 $200 $286 forward 7 unknown #
vertex $-1 $125 $287 #
straight-curve $-1 6.6753848667782165 17.640084092672215 11.399293418616404 -1 0 0 I I #
vertex $-1 $284 $288 #
straight-curve $-1 5.31665975052411 -18.145872221732752 32.90166567148276 0 0.85716729658548041 -0.51503808176128008 I I #
coedge $-1 $280 $127 $202 $284 forward $210 $-1 #
coedge $-1 $127 $289 $129 $213 reversed $210 $-1 #
loop $-1 $-1 $280 $290 #
straight-curve $-1 5.31665975052411 25.402482807366905 59.230980854907962 0 0 -1 I I #
coedge $-1 $291 $129 $292 $293 forward $119 $-1 #
edge $-1 $131 -5.31665975052411 $294 49.908749656666771 $209 $295 forward 7 unknown #
point $-1 5.31665975052411 17.640084092672218 11.399293418616402 #
point $-1 5.31665975052411 25.402482807366905 11.399293418616404 #
face $-1 $296 $297 $15 $-1 $298 forward single #
loop $-1 $-1 $299 $133 #
plane-surface $-1 21.384879716588756 33.263941150814446 118.46196170981592 -1 0 0 0 0.51503808176128008 0.85716729658548041 forward_v I I I I #
loop $-1 $-1 $300 $73 #
coedge $-1 $221 $136 $301 $302 forward $74 $-1 #
coedge $-1 $136 $220 $303 $304 reversed $74 $-1 #
coedge $-1 $305 $306 $136 $223 forward $297 $-1 #
edge $-1 $307 1.0081135172649951 $308 8.7705122319596818 $222 $309 forward 7 unknown #
edge $-1 $310 1 $310 0 $137 $-1 forward 7 unknown #
vertex $-1 $138 $311 #
ellipse-curve $-1 13.350769733556433 18.83881636321334 4.6028586741446205 0 0.51503808176128008 0.85716729658548041 2 0 0 1 I I #
point $-1 15.350769733556433 21.521283450019581 9.0672335279694494 #
plane-surface $-1 49.908749656666771 0 0 -1 0 0 0 0 1 forward_v I I I I #
coedge $-1 $146 $144 $148 $233 reversed $82 $-1 #
edge $-1 $159 -11.399293418616404 $235 11.399293418616404 $158 $312 forward 7 unknown #
vertex $-1 $233 $313 #
straight-curve $-1 -49.908749656666771 -25.402482807366905 0 0 0 -1 I I #
edge $-1 $231 -25.402482807366905 $235 25.402482807366905 $229 $314 forward 7 unknown #
straight-curve $-1 0 -25.402482807366905 -11.399293418616404 -1 0 0 I I #
vertex $-1 $151 $315 #
straight-curve $-1 0 25.402482807366905 -11.399293418616404 1 0 0 I I #
point $-1 49.908749656666771 25.402482807366905 -11.399293418616404 #
point $-1 49.908749656666771 -25.402482807366905 -11.399293418616404 #
straight-curve $-1 -49.908749656666771 0 11.399293418616404 0 -1 0 I I #
point $-1 -49.908749656666771 25.402482807366905 11.399293418616404 #
point $-1 -49.908749656666771 -25.402482807366905 11.399293418616404 #
straight-curve $-1 49.908749656666771 -25.402482807366905 0 0 0 -1 I I #
straight-curve $-1 49.908749656666771 25.402482807366905 0 0 0 -1 I I #
face $-1 $266 $316 $13 $-1 $317 reversed single #
loop $-1 $-1 $271 $168 #
plane-surface $-1 0 0 11.399293418616404 0 0 1 1 0 0 forward_v I I I I #
straight-curve $-1 49.908749656666771 -13.8158230918848 -1.4013450276879844 0 0 -1 I I #
coedge $-1 $261 $318 $173 $249 forward $262 $-1 #
edge $-1 $254 -15.597906332553976 $250 -4.0112466170718744 $248 $319 forward 7 unknown #
vertex $-1 $249 $320 #
straight-curve $-1 0 -13.8158230918848 -4.3026900553759688 1 0 0 I I #
coedge $-1 $321 $175 $318 $322 forward $169 $-1 #
coedge $-1 $175 $321 $177 $257 reversed $169 $-1 #
vertex $-1 $322 $323 #
straight-curve $-1 0 -25.402482807366905 -4.3026900553759688 -1 0 0 I I #
coedge $-1 $270 $177 $324 $325 reversed $101 $-1 #
edge $-1 $179 4.3026900553759688 $326 11.399293418616404 $177 $274 forward 7 unknown #
point $-1 49.908749656666771 -13.8158230918848 -4.3026900553759688 #
point $-1 49.908749656666771 -25.402482807366901 -4.3026900553759688 #
coedge $-1 $327 $181 $184 $265 reversed $262 $-1 #
coedge $-1 $181 $248 $188 $268 forward $262 $-1 #
loop $-1 $-1 $181 $328 #
straight-curve $-1 -49.908749656666771 -9.8045764748129258 -1.3026900553759688 0 -1 0 I I #
coedge $-1 $184 $183 $329 $330 reversed $185 $-1 #
edge $-1 $331 -11.399293418616404 $186 1.3026900553759688 $260 $332 forward 7 unknown #
face $-1 $328 $185 $13 $-1 $170 reversed single #
point $-1 -49.908749656666771 -25.402482807366901 -1.3026900553759688 #
edge $-1 $250 -2.9013450276879844 $189 0.098654972312015587 $261 $333 forward 7 unknown #
point $-1 -49.908749656666771 -13.8158230918848 -1.3026900553759688 #
coedge $-1 $191 $256 $334 $335 reversed $101 $-1 #
coedge $-1 $336 $329 $191 $272 forward $245 $-1 #
edge $-1 $273 -25.402482807366905 $337 25.402482807366905 $191 $338 forward 7 unknown #
vertex $-1 $272 $339 #
straight-curve $-1 49.908749656666771 -25.402482807366905 0 0 0 -1 I I #
face $-1 $340 $341 $14 $-1 $342 forward single #
loop $-1 $-1 $343 $195 #
plane-surface $-1 0 -19.609152949625852 -4.3026900553759688 0 0 1 1 0 0 forward_v I I I I #
coedge $-1 $344 $345 $346 $347 reversed $196 $-1 #
coedge $-1 $198 $348 $349 $350 forward $119 $-1 #
coedge $-1 $349 $208 $199 $281 forward $210 $-1 #
edge $-1 $285 -52.495807217585487 $282 -47.83168743629156 $280 $351 forward 7 unknown #
vertex $-1 $281 $352 #
straight-curve $-1 21.384879716588756 16.631970575407223 11.399293418616402 0 -1 0 I I #
edge $-1 $206 -1.3587251162541065 $285 14.70949484981054 $208 $353 forward 7 unknown #
vertex $-1 $284 $354 #
straight-curve $-1 21.384879716588756 -18.145872221732752 32.90166567148276 0 -0.85716729658548041 0.51503808176128008 I I #
point $-1 21.384879716588756 17.640084092672218 11.399293418616402 #
point $-1 5.31665975052411 25.402482807366901 6.7351736373224753 #
coedge $-1 $209 $355 $356 $357 reversed $210 $-1 #
face $-1 $-1 $210 $14 $-1 $358 reversed single #
coedge $-1 $348 $212 $359 $360 forward $119 $-1 #
coedge $-1 $356 $361 $212 $293 reversed $362 $-1 #
edge $-1 $294 -25.402482807366905 $363 25.402482807366905 $292 $364 forward 7 unknown #
vertex $-1 $213 $365 #
straight-curve $-1 0 25.402482807366905 11.399293418616404 -1 0 0 I I #
face $-1 $366 $367 $15 $-1 $368 reversed single #
loop $-1 $-1 $369 $216 #
plane-surface $-1 0 0 11.399293418616404 0 0 1 1 0 0 forward_v I I I I #
coedge $-1 $370 $371 $369 $372 reversed $217 $-1 #
coedge $-1 $373 $301 $306 $374 reversed $219 $-1 #
coedge $-1 $300 $375 $220 $302 reversed $219 $-1 #
edge $-1 $307 41.749091988177874 $376 50.804965614733788 $220 $377 forward 7 unknown #
coedge $-1 $378 $379 $221 $304 forward $380 $-1 #
edge $-1 $308 47.83168743629156 $376 52.495807217585487 $303 $381 forward 7 unknown #
coedge $-1 $382 $222 $379 $383 forward $297 $-1 #
coedge $-1 $222 $369 $300 $374 forward $297 $-1 #
vertex $-1 $374 $384 #
vertex $-1 $383 $385 #
straight-curve $-1 5.31665975052411 16.631970575407223 11.399293418616402 0 1 0 I I #
vertex $-1 $224 $386 #
point $-1 15.350769733556433 18.83881636321334 4.6028586741446205 #
straight-curve $-1 -49.908749656666771 25.402482807366905 0 0 0 -1 I I #
point $-1 -49.908749656666771 -25.402482807366905 -11.399293418616404 #
straight-curve $-1 -49.908749656666771 0 -11.399293418616404 0 1 0 I I #
point $-1 -49.908749656666771 25.402482807366905 -11.399293418616404 #
loop $-1 $-1 $324 $244 #
plane-surface $-1 0 0 -11.399293418616404 0 0 1 1 0 0 forward_v I I I I #
coedge $-1 $248 $387 $252 $322 reversed $262 $-1 #
straight-curve $-1 -49.908749656666771 -9.8045764748129258 -4.3026900553759688 0 1 0 I I #
point $-1 -49.908749656666771 -13.8158230918848 -4.3026900553759688 #
coedge $-1 $253 $252 $388 $389 reversed $169 $-1 #
edge $-1 $254 4.3026900553759688 $390 11.399293418616404 $318 $332 forward 7 unknown #
point $-1 -49.908749656666771 -25.402482807366901 -4.3026900553759688 #
coedge $-1 $388 $391 $256 $325 forward $316 $-1 #
edge $-1 $392 -25.402482807366905 $326 25.402482807366905 $256 $393 forward 7 unknown #
vertex $-1 $257 $394 #
coedge $-1 $395 $260 $396 $397 reversed $262 $-1 #
face $-1 $398 $262 $13 $-1 $399 reversed single #
coedge $-1 $271 $396 $264 $330 forward $245 $-1 #
edge $-1 $331 -49.908749656666771 $273 49.908749656666771 $264 $400 forward 7 unknown #
vertex $-1 $397 $401 #
straight-curve $-1 -49.908749656666771 -25.402482807366905 0 0 0 -1 I I #
straight-curve $-1 -49.908749656666771 -13.8158230918848 -1.4013450276879844 0 0 1 I I #
coedge $-1 $402 $403 $270 $335 forward $404 $-1 #
edge $-1 $337 -11.399293418616404 $392 11.399293418616404 $270 $405 forward 7 unknown #
coedge $-1 $396 $271 $403 $406 forward $245 $-1 #
vertex $-1 $272 $407 #
straight-curve $-1 49.908749656666771 0 11.399293418616404 0 1 0 I I #
point $-1 49.908749656666771 -25.402482807366905 11.399293418616404 #
face $-1 $408 $409 $14 $-1 $410 reversed single #
loop $-1 $-1 $411 $275 #
plane-surface $-1 0 -13.8158230918848 -2.8026900553759688 0 -1 0 0 0 -1 forward_v I I I I #
coedge $-1 $412 $413 $414 $415 reversed $276 $-1 #
coedge $-1 $416 $278 $417 $418 reversed $196 $-1 #
coedge $-1 $278 $416 $419 $420 reversed $196 $-1 #
coedge $-1 $421 $422 $278 $347 forward $409 $-1 #
edge $-1 $423 -15.597906332553976 $424 -4.0112466170718744 $346 $425 forward 7 unknown #
coedge $-1 $279 $291 $426 $427 forward $119 $-1 #
coedge $-1 $428 $280 $279 $350 reversed $210 $-1 #
edge $-1 $429 -49.908749656666771 $282 -21.384879716588756 $349 $295 forward 7 unknown #
straight-curve $-1 21.384879716588756 25.402482807366905 59.230980854907962 0 0 1 I I #
point $-1 21.384879716588756 25.402482807366905 11.399293418616404 #
straight-curve $-1 6.6753848667782165 25.402482807366905 6.7351736373224753 1 0 0 I I #
point $-1 21.384879716588756 25.402482807366901 6.7351736373224753 #
coedge $-1 $289 $428 $430 $431 reversed $210 $-1 #
coedge $-1 $432 $292 $289 $357 forward $362 $-1 #
edge $-1 $294 -11.399293418616404 $433 11.399293418616404 $289 $434 forward 7 unknown #
plane-surface $-1 0 25.402482807366905 0 0 -1 0 0 0 -1 forward_v I I I I #
coedge $-1 $435 $436 $291 $360 reversed $437 $-1 #
edge $-1 $363 -49.908749656666771 $438 49.908749656666771 $359 $439 forward 7 unknown #
coedge $-1 $292 $440 $435 $441 reversed $362 $-1 #
loop $-1 $-1 $440 $442 #
vertex $-1 $293 $443 #
straight-curve $-1 -49.908749656666771 0 11.399293418616404 0 -1 0 I I #
point $-1 -49.908749656666771 25.402482807366905 11.399293418616404 #
face $-1 $444 $445 $15 $-1 $446 forward single #
loop $-1 $-1 $447 $296 #
plane-surface $-1 0 -19.609152949625852 -1.3026900553759688 0 0 1 1 0 0 forward_v I I I I #
coedge $-1 $306 $448 $299 $372 forward $297 $-1 #
coedge $-1 $371 $299 $449 $450 reversed $217 $-1 #
coedge $-1 $299 $370 $373 $451 forward $217 $-1 #
edge $-1 $452 -8.7705122319596818 $453 -1.0081135172649951 $369 $454 forward 7 unknown #
coedge $-1 $375 $300 $371 $451 reversed $219 $-1 #
edge $-1 $453 -14.70949484981054 $307 1.3587251162541065 $306 $455 forward 7 unknown #
coedge $-1 $301 $373 $378 $456 reversed $219 $-1 #
vertex $-1 $456 $457 #
straight-curve $-1 5.31665975052411 -18.145872221732752 32.90166567148276 0 0.85716729658548041 -0.51503808176128008 I I #
coedge $-1 $449 $303 $375 $456 forward $380 $-1 #
coedge $-1 $303 $458 $305 $383 reversed $380 $-1 #
loop $-1 $-1 $449 $459 #
straight-curve $-1 5.31665975052411 25.402482807366905 59.230980854907962 0 0 -1 I I #
coedge $-1 $460 $305 $461 $462 forward $297 $-1 #
edge $-1 $308 -5.31665975052411 $463 49.908749656666771 $379 $464 forward 7 unknown #
point $-1 5.31665975052411 17.640084092672218 11.399293418616402 #
point $-1 5.31665975052411 25.402482807366905 11.399293418616404 #
point $-1 13.350769733556433 17.808740199690781 2.8885240809736601 #
coedge $-1 $318 $395 $465 $466 reversed $262 $-1 #
coedge $-1 $465 $324 $321 $389 forward $316 $-1 #
edge $-1 $326 -49.908749656666771 $390 49.908749656666771 $321 $467 forward 7 unknown #
vertex $-1 $466 $468 #
coedge $-1 $324 $465 $402 $469 forward $316 $-1 #
vertex $-1 $325 $470 #
straight-curve $-1 49.908749656666771 0 -11.399293418616404 0 -1 0 I I #
point $-1 49.908749656666771 -25.402482807366905 -11.399293418616404 #
coedge $-1 $387 $327 $471 $472 forward $262 $-1 #
coedge $-1 $329 $336 $327 $397 forward $245 $-1 #
edge $-1 $473 -25.402482807366905 $331 25.402482807366905 $327 $474 forward 7 unknown #
face $-1 $-1 $404 $13 $-1 $475 reversed single #
plane-surface $-1 -49.908749656666771 0 0 1 0 0 0 0 -1 forward_v I I I I #
straight-curve $-1 0 -25.402482807366905 11.399293418616404 1 0 0 I I #
point $-1 -49.908749656666771 -25.402482807366905 11.399293418616404 #
coedge $-1 $471 $334 $391 $469 reversed $404 $-1 #
coedge $-1 $334 $471 $336 $406 reversed $404 $-1 #
loop $-1 $-1 $334 $398 #
straight-curve $-1 49.908749656666771 25.402482807366905 0 0 0 -1 I I #
edge $-1 $337 -49.908749656666771 $473 49.908749656666771 $403 $476 forward 7 unknown #
point $-1 49.908749656666771 25.402482807366905 11.399293418616404 #
face $-1 $477 $478 $14 $-1 $479 reversed single #
loop $-1 $-1 $346 $340 #
plane-surface $-1 49.908749656666771 0 0 -1 0 0 0 0 1 forward_v I I I I #
coedge $-1 $419 $480 $421 $481 reversed $341 $-1 #
coedge $-1 $482 $343 $480 $483 reversed $276 $-1 #
coedge $-1 $343 $482 $484 $485 reversed $276 $-1 #
coedge $-1 $486 $421 $343 $415 forward $409 $-1 #
edge $-1 $487 4.0112466170718744 $488 15.597906332553976 $414 $489 forward 7 unknown #
coedge $-1 $345 $344 $440 $490 reversed $196 $-1 #
coedge $-1 $436 $435 $344 $418 forward $437 $-1 #
edge $-1 $491 -49.908749656666771 $423 49.908749656666771 $417 $492 forward 7 unknown #
coedge $-1 $493 $411 $345 $420 forward $341 $-1 #
edge $-1 $424 -49.908749656666771 $494 49.908749656666771 $419 $495 forward 7 unknown #
coedge $-1 $414 $346 $411 $481 forward $409 $-1 #
coedge $-1 $346 $426 $436 $496 forward $409 $-1 #
vertex $-1 $418 $497 #
vertex $-1 $347 $498 #
straight-curve $-1 49.908749656666771 -9.8045764748129258 -1.3026900553759688 0 1 0 I I #
coedge $-1 $422 $499 $348 $427 reversed $409 $-1 #
edge $-1 $438 -25.402482807366905 $429 25.402482807366905 $426 $500 forward 7 unknown #
coedge $-1 $355 $349 $499 $501 forward $210 $-1 #
vertex $-1 $427 $502 #
coedge $-1 $503 $504 $355 $431 forward $505 $-1 #
edge $-1 $433 -49.908749656666771 $506 49.908749656666771 $355 $507 forward 7 unknown #
coedge $-1 $508 $356 $504 $509 reversed $362 $-1 #
vertex $-1 $431 $510 #
straight-curve $-1 -49.908749656666771 25.402482807366905 0 0 0 -1 I I #
coedge $-1 $417 $359 $361 $441 forward $437 $-1 #
coedge $-1 $359 $417 $422 $496 reversed $437 $-1 #
loop $-1 $-1 $417 $511 #
vertex $-1 $427 $512 #
straight-curve $-1 0 -25.402482807366905 11.399293418616404 1 0 0 I I #
coedge $-1 $361 $513 $416 $490 forward $362 $-1 #
edge $-1 $363 -11.399293418616404 $491 1.3026900553759688 $361 $514 forward 7 unknown #
face $-1 $290 $362 $14 $-1 $515 reversed single #
point $-1 -49.908749656666771 -25.402482807366905 11.399293418616404 #
face $-1 $516 $517 $15 $-1 $518 forward single #
loop $-1 $-1 $519 $366 #
plane-surface $-1 0 -19.609152949625852 -4.3026900553759688 0 0 1 1 0 0 forward_v I I I I #
coedge $-1 $520 $521 $522 $523 reversed $367 $-1 #
coedge $-1 $369 $524 $525 $526 forward $297 $-1 #
coedge $-1 $525 $378 $370 $450 forward $380 $-1 #
edge $-1 $527 -52.495807217585487 $452 -47.83168743629156 $449 $528 forward 7 unknown #
edge $-1 $527 -50.804965614733788 $453 -41.749091988177874 $371 $529 forward 7 unknown #
vertex $-1 $450 $530 #
vertex $-1 $374 $531 #
straight-curve $-1 21.384879716588756 16.631970575407223 11.399293418616402 0 -1 0 I I #
straight-curve $-1 6.6753848667782165 17.640084092672215 11.399293418616404 -1 0 0 I I #
edge $-1 $376 -1.3587251162541065 $527 14.70949484981054 $378 $532 forward 7 unknown #
point $-1 5.31665975052411 25.402482807366901 6.7351736373224753 #
coedge $-1 $379 $533 $534 $535 reversed $380 $-1 #
face $-1 $-1 $380 $15 $-1 $536 reversed single #
coedge $-1 $524 $382 $537 $538 forward $297 $-1 #
coedge $-1 $534 $539 $382 $462 reversed $540 $-1 #
edge $-1 $463 -25.402482807366905 $541 25.402482807366905 $461 $542 forward 7 unknown #
vertex $-1 $383 $543 #
straight-curve $-1 0 25.402482807366905 11.399293418616404 -1 0 0 I I #
coedge $-1 $391 $388 $387 $466 forward $316 $-1 #
edge $-1 $390 -25.402482807366905 $544 25.402482807366905 $387 $545 forward 7 unknown #
straight-curve $-1 0 -25.402482807366905 -11.399293418616404 -1 0 0 I I #
point $-1 -49.908749656666771 -25.402482807366905 -11.399293418616404 #
edge $-1 $544 -49.908749656666771 $392 49.908749656666771 $402 $546 forward 7 unknown #
point $-1 49.908749656666771 25.402482807366905 -11.399293418616404 #
coedge $-1 $403 $402 $395 $472 reversed $404 $-1 #
edge $-1 $473 -11.399293418616404 $544 11.399293418616404 $471 $547 forward 7 unknown #
vertex $-1 $406 $548 #
straight-curve $-1 -49.908749656666771 0 11.399293418616404 0 -1 0 I I #
plane-surface $-1 0 25.402482807366905 0 0 -1 0 0 0 -1 forward_v I I I I #
straight-curve $-1 0 25.402482807366905 11.399293418616404 -1 0 0 I I #
face $-1 $511 $505 $14 $-1 $549 reversed single #
loop $-1 $-1 $484 $408 #
plane-surface $-1 0 -25.402482807366905 0 0 1 0 0 0 1 forward_v I I I I #
coedge $-1 $411 $493 $412 $483 forward $341 $-1 #
edge $-1 $424 -0.098654972312015587 $487 2.9013450276879844 $421 $550 forward 7 unknown #
coedge $-1 $413 $412 $551 $552 reversed $276 $-1 #
edge $-1 $553 -49.908749656666771 $487 49.908749656666771 $480 $554 forward 7 unknown #
coedge $-1 $555 $556 $413 $485 forward $478 $-1 #
edge $-1 $488 -49.908749656666771 $557 49.908749656666771 $484 $558 forward 7 unknown #
coedge $-1 $559 $414 $556 $560 forward $409 $-1 #
vertex $-1 $415 $561 #
vertex $-1 $560 $562 #
straight-curve $-1 49.908749656666771 -9.8045764748129258 -4.3026900553759688 0 -1 0 I I #
edge $-1 $494 4.0112466170718744 $491 15.597906332553976 $440 $563 forward 7 unknown #
vertex $-1 $490 $564 #
straight-curve $-1 0 -25.402482807366905 -1.3026900553759688 1 0 0 I I #
coedge $-1 $480 $419 $513 $565 reversed $341 $-1 #
vertex $-1 $490 $566 #
straight-curve $-1 0 -13.8158230918848 -1.3026900553759688 -1 0 0 I I #
edge $-1 $438 -11.399293418616404 $423 1.3026900553759688 $422 $567 forward 7 unknown #
point $-1 49.908749656666771 -25.402482807366901 -1.3026900553759688 #
point $-1 49.908749656666771 -13.8158230918848 -1.3026900553759688 #
coedge $-1 $426 $559 $428 $501 reversed $409 $-1 #
straight-curve $-1 49.908749656666771 0 11.399293418616404 0 1 0 I I #
edge $-1 $429 -11.399293418616404 $506 11.399293418616404 $499 $568 forward 7 unknown #
point $-1 49.908749656666771 25.402482807366905 11.399293418616404 #
coedge $-1 $569 $430 $559 $570 forward $505 $-1 #
coedge $-1 $430 $569 $432 $509 forward $505 $-1 #
loop $-1 $-1 $503 $477 #
vertex $-1 $570 $571 #
straight-curve $-1 0 25.402482807366905 -11.399293418616404 1 0 0 I I #
coedge $-1 $551 $432 $555 $572 reversed $362 $-1 #
edge $-1 $573 -25.402482807366905 $433 25.402482807366905 $432 $574 forward 7 unknown #
point $-1 -49.908749656666771 25.402482807366905 -11.399293418616404 #
face $-1 $442 $437 $14 $-1 $479 reversed single #
point $-1 49.908749656666771 -25.402482807366905 11.399293418616404 #
coedge $-1 $440 $551 $493 $565 forward $362 $-1 #
straight-curve $-1 -49.908749656666771 -25.402482807366905 0 0 0 -1 I I #
plane-surface $-1 -49.908749656666771 0 0 1 0 0 0 0 -1 forward_v I I I I #
face $-1 $575 $576 $15 $-1 $577 reversed single #
loop $-1 $-1 $578 $444 #
plane-surface $-1 0 -13.8158230918848 -2.8026900553759688 0 -1 0 0 0 -1 forward_v I I I I #
coedge $-1 $579 $580 $581 $582 reversed $445 $-1 #
coedge $-1 $583 $447 $584 $585 reversed $367 $-1 #
coedge $-1 $447 $583 $586 $587 reversed $367 $-1 #
coedge $-1 $588 $589 $447 $523 forward $576 $-1 #
edge $-1 $590 -15.597906332553976 $591 -4.0112466170718744 $522 $592 forward 7 unknown #
coedge $-1 $448 $460 $593 $594 forward $297 $-1 #
coedge $-1 $595 $449 $448 $526 reversed $380 $-1 #
edge $-1 $596 -49.908749656666771 $452 -21.384879716588756 $525 $464 forward 7 unknown #
vertex $-1 $456 $597 #
straight-curve $-1 21.384879716588756 25.402482807366905 59.230980854907962 0 0 1 I I #
straight-curve $-1 21.384879716588756 -18.145872221732752 32.90166567148276 0 -0.85716729658548041 0.51503808176128008 I I #
point $-1 21.384879716588756 25.402482807366905 11.399293418616404 #
point $-1 21.384879716588756 17.640084092672218 11.399293418616402 #
straight-curve $-1 6.6753848667782165 25.402482807366905 6.7351736373224753 1 0 0 I I #
coedge $-1 $458 $595 $598 $599 reversed $380 $-1 #
coedge $-1 $600 $461 $458 $535 forward $540 $-1 #
edge $-1 $463 -11.399293418616404 $601 11.399293418616404 $458 $602 forward 7 unknown #
plane-surface $-1 0 25.402482807366905 0 0 -1 0 0 0 -1 forward_v I I I I #
coedge $-1 $603 $604 $460 $538 reversed $605 $-1 #
edge $-1 $541 -49.908749656666771 $606 49.908749656666771 $537 $607 forward 7 unknown #
coedge $-1 $461 $608 $603 $609 reversed $540 $-1 #
loop $-1 $-1 $608 $610 #
vertex $-1 $462 $611 #
straight-curve $-1 -49.908749656666771 0 11.399293418616404 0 -1 0 I I #
point $-1 -49.908749656666771 25.402482807366905 11.399293418616404 #
vertex $-1 $469 $612 #
straight-curve $-1 -49.908749656666771 0 -11.399293418616404 0 1 0 I I #
straight-curve $-1 0 25.402482807366905 -11.399293418616404 1 0 0 I I #
straight-curve $-1 -49.908749656666771 25.402482807366905 0 0 0 -1 I I #
point $-1 -49.908749656666771 25.402482807366905 11.399293418616404 #
plane-surface $-1 0 0 -11.399293418616404 0 0 1 1 0 0 forward_v I I I I #
straight-curve $-1 49.908749656666771 -13.8158230918848 -1.4013450276879844 0 0 -1 I I #
coedge $-1 $513 $508 $482 $552 forward $362 $-1 #
edge $-1 $557 -15.597906332553976 $553 -4.0112466170718744 $551 $613 forward 7 unknown #
vertex $-1 $552 $614 #
straight-curve $-1 0 -13.8158230918848 -4.3026900553759688 1 0 0 I I #
coedge $-1 $615 $484 $508 $572 forward $478 $-1 #
coedge $-1 $484 $615 $486 $560 reversed $478 $-1 #
vertex $-1 $572 $616 #
straight-curve $-1 0 -25.402482807366905 -4.3026900553759688 -1 0 0 I I #
coedge $-1 $499 $486 $503 $570 reversed $409 $-1 #
edge $-1 $488 4.3026900553759688 $617 11.399293418616404 $486 $567 forward 7 unknown #
point $-1 49.908749656666771 -13.8158230918848 -4.3026900553759688 #
point $-1 49.908749656666771 -25.402482807366901 -4.3026900553759688 #
straight-curve $-1 -49.908749656666771 -9.8045764748129258 -1.3026900553759688 0 -1 0 I I #
point $-1 -49.908749656666771 -25.402482807366901 -1.3026900553759688 #
edge $-1 $553 -2.9013450276879844 $494 0.098654972312015587 $513 $618 forward 7 unknown #
point $-1 -49.908749656666771 -13.8158230918848 -1.3026900553759688 #
straight-curve $-1 49.908749656666771 -25.402482807366905 0 0 0 -1 I I #
straight-curve $-1 49.908749656666771 25.402482807366905 0 0 0 -1 I I #
coedge $-1 $504 $503 $615 $619 forward $505 $-1 #
edge $-1 $506 -25.402482807366905 $617 25.402482807366905 $559 $620 forward 7 unknown #
point $-1 49.908749656666771 25.402482807366905 -11.399293418616404 #
edge $-1 $557 4.3026900553759688 $573 11.399293418616404 $508 $514 forward 7 unknown #
vertex $-1 $509 $621 #
straight-curve $-1 -49.908749656666771 0 -11.399293418616404 0 1 0 I I #
face $-1 $622 $623 $15 $-1 $624 reversed single #
loop $-1 $-1 $522 $516 #
plane-surface $-1 49.908749656666771 0 0 -1 0 0 0 0 1 forward_v I I I I #
coedge $-1 $586 $625 $588 $626 reversed $517 $-1 #
coedge $-1 $627 $519 $625 $628 reversed $445 $-1 #
coedge $-1 $519 $627 $629 $630 reversed $445 $-1 #
coedge $-1 $631 $588 $519 $582 forward $576 $-1 #
edge $-1 $632 4.0112466170718744 $633 15.597906332553976 $581 $634 forward 7 unknown #
coedge $-1 $521 $520 $608 $635 reversed $367 $-1 #
coedge $-1 $604 $603 $520 $585 forward $605 $-1 #
edge $-1 $636 -49.908749656666771 $590 49.908749656666771 $584 $637 forward 7 unknown #
coedge $-1 $638 $578 $521 $587 forward $517 $-1 #
edge $-1 $591 -49.908749656666771 $639 49.908749656666771 $586 $640 forward 7 unknown #
coedge $-1 $581 $522 $578 $626 forward $576 $-1 #
coedge $-1 $522 $593 $604 $641 forward $576 $-1 #
vertex $-1 $585 $642 #
vertex $-1 $523 $643 #
straight-curve $-1 49.908749656666771 -9.8045764748129258 -1.3026900553759688 0 1 0 I I #
coedge $-1 $589 $644 $524 $594 reversed $576 $-1 #
edge $-1 $606 -25.402482807366905 $596 25.402482807366905 $593 $645 forward 7 unknown #
coedge $-1 $533 $525 $644 $646 forward $380 $-1 #
vertex $-1 $594 $647 #
point $-1 21.384879716588756 25.402482807366901 6.7351736373224753 #
coedge $-1 $648 $649 $533 $599 forward $650 $-1 #
edge $-1 $601 -49.908749656666771 $651 49.908749656666771 $533 $652 forward 7 unknown #
coedge $-1 $653 $534 $649 $654 reversed $540 $-1 #
vertex $-1 $599 $655 #
straight-curve $-1 -49.908749656666771 25.402482807366905 0 0 0 -1 I I #
coedge $-1 $584 $537 $539 $609 forward $605 $-1 #
coedge $-1 $537 $584 $589 $641 reversed $605 $-1 #
loop $-1 $-1 $584 $656 #
vertex $-1 $594 $657 #
straight-curve $-1 0 -25.402482807366905 11.399293418616404 1 0 0 I I #
coedge $-1 $539 $658 $583 $635 forward $540 $-1 #
edge $-1 $541 -11.399293418616404 $636 1.3026900553759688 $539 $659 forward 7 unknown #
face $-1 $459 $540 $15 $-1 $660 reversed single #
point $-1 -49.908749656666771 -25.402482807366905 11.399293418616404 #
point $-1 -49.908749656666771 25.402482807366905 -11.399293418616404 #
straight-curve $-1 -49.908749656666771 -9.8045764748129258 -4.3026900553759688 0 1 0 I I #
point $-1 -49.908749656666771 -13.8158230918848 -4.3026900553759688 #
coedge $-1 $556 $555 $569 $619 reversed $478 $-1 #
point $-1 -49.908749656666771 -25.402482807366901 -4.3026900553759688 #
vertex $-1 $560 $661 #
straight-curve $-1 -49.908749656666771 -13.8158230918848 -1.4013450276879844 0 0 1 I I #
edge $-1 $617 -49.908749656666771 $573 49.908749656666771 $615 $662 forward 7 unknown #
straight-curve $-1 49.908749656666771 0 -11.399293418616404 0 -1 0 I I #
point $-1 -49.908749656666771 -25.402482807366905 -11.399293418616404 #
face $-1 $656 $650 $15 $-1 $663 reversed single #
loop $-1 $-1 $629 $575 #
plane-surface $-1 0 -25.402482807366905 0 0 1 0 0 0 1 forward_v I I I I #
coedge $-1 $578 $638 $579 $628 forward $517 $-1 #
edge $-1 $591 -0.098654972312015587 $632 2.9013450276879844 $588 $664 forward 7 unknown #
coedge $-1 $580 $579 $665 $666 reversed $445 $-1 #
edge $-1 $667 -49.908749656666771 $632 49.908749656666771 $625 $668 forward 7 unknown #
coedge $-1 $669 $670 $580 $630 forward $623 $-1 #
edge $-1 $633 -49.908749656666771 $671 49.908749656666771 $629 $672 forward 7 unknown #
coedge $-1 $673 $581 $670 $674 forward $576 $-1 #
vertex $-1 $582 $675 #
vertex $-1 $674 $676 #
straight-curve $-1 49.908749656666771 -9.8045764748129258 -4.3026900553759688 0 -1 0 I I #
edge $-1 $639 4.0112466170718744 $636 15.597906332553976 $608 $677 forward 7 unknown #
vertex $-1 $635 $678 #
straight-curve $-1 0 -25.402482807366905 -1.3026900553759688 1 0 0 I I #
coedge $-1 $625 $586 $658 $679 reversed $517 $-1 #
vertex $-1 $635 $680 #
straight-curve $-1 0 -13.8158230918848 -1.3026900553759688 -1 0 0 I I #
edge $-1 $606 -11.399293418616404 $590 1.3026900553759688 $589 $681 forward 7 unknown #
point $-1 49.908749656666771 -25.402482807366901 -1.3026900553759688 #
point $-1 49.908749656666771 -13.8158230918848 -1.3026900553759688 #
coedge $-1 $593 $673 $595 $646 reversed $576 $-1 #
straight-curve $-1 49.908749656666771 0 11.399293418616404 0 1 0 I I #
edge $-1 $596 -11.399293418616404 $651 11.399293418616404 $644 $682 forward 7 unknown #
point $-1 49.908749656666771 25.402482807366905 11.399293418616404 #
coedge $-1 $683 $598 $673 $684 forward $650 $-1 #
coedge $-1 $598 $683 $600 $654 forward $650 $-1 #
loop $-1 $-1 $648 $622 #
vertex $-1 $684 $685 #
straight-curve $-1 0 25.402482807366905 -11.399293418616404 1 0 0 I I #
coedge $-1 $665 $600 $669 $686 reversed $540 $-1 #
edge $-1 $687 -25.402482807366905 $601 25.402482807366905 $600 $688 forward 7 unknown #
point $-1 -49.908749656666771 25.402482807366905 -11.399293418616404 #
face $-1 $610 $605 $15 $-1 $624 reversed single #
point $-1 49.908749656666771 -25.402482807366905 11.399293418616404 #
coedge $-1 $608 $665 $638 $679 forward $540 $-1 #
straight-curve $-1 -49.908749656666771 -25.402482807366905 0 0 0 -1 I I #
plane-surface $-1 -49.908749656666771 0 0 1 0 0 0 0 -1 forward_v I I I I #
point $-1 49.908749656666771 -25.402482807366905 -11.399293418616404 #
straight-curve $-1 0 -25.402482807366905 -11.399293418616404 -1 0 0 I I #
plane-surface $-1 0 0 -11.399293418616404 0 0 1 1 0 0 forward_v I I I I #
straight-curve $-1 49.908749656666771 -13.8158230918848 -1.4013450276879844 0 0 -1 I I #
coedge $-1 $658 $653 $627 $666 forward $540 $-1 #
edge $-1 $671 -15.597906332553976 $667 -4.0112466170718744 $665 $689 forward 7 unknown #
vertex $-1 $666 $690 #
straight-curve $-1 0 -13.8158230918848 -4.3026900553759688 1 0 0 I I #
coedge $-1 $691 $629 $653 $686 forward $623 $-1 #
coedge $-1 $629 $691 $631 $674 reversed $623 $-1 #
vertex $-1 $686 $692 #
straight-curve $-1 0 -25.402482807366905 -4.3026900553759688 -1 0 0 I I #
coedge $-1 $644 $631 $648 $684 reversed $576 $-1 #
edge $-1 $633 4.3026900553759688 $693 11.399293418616404 $631 $681 forward 7 unknown #
point $-1 49.908749656666771 -13.8158230918848 -4.3026900553759688 #
point $-1 49.908749656666771 -25.402482807366901 -4.3026900553759688 #
straight-curve $-1 -49.908749656666771 -9.8045764748129258 -1.3026900553759688 0 -1 0 I I #
point $-1 -49.908749656666771 -25.402482807366901 -1.3026900553759688 #
edge $-1 $667 -2.9013450276879844 $639 0.098654972312015587 $658 $694 forward 7 unknown #
point $-1 -49.908749656666771 -13.8158230918848 -1.3026900553759688 #
straight-curve $-1 49.908749656666771 -25.402482807366905 0 0 0 -1 I I #
straight-curve $-1 49.908749656666771 25.402482807366905 0 0 0 -1 I I #
coedge $-1 $649 $648 $691 $695 forward $650 $-1 #
edge $-1 $651 -25.402482807366905 $693 25.402482807366905 $673 $696 forward 7 unknown #
point $-1 49.908749656666771 25.402482807366905 -11.399293418616404 #
edge $-1 $671 4.3026900553759688 $687 11.399293418616404 $653 $659 forward 7 unknown #
vertex $-1 $654 $697 #
straight-curve $-1 -49.908749656666771 0 -11.399293418616404 0 1 0 I I #
straight-curve $-1 -49.908749656666771 -9.8045764748129258 -4.3026900553759688 0 1 0 I I #
point $-1 -49.908749656666771 -13.8158230918848 -4.3026900553759688 #
coedge $-1 $670 $669 $683 $695 reversed $623 $-1 #
point $-1 -49.908749656666771 -25.402482807366901 -4.3026900553759688 #
vertex $-1 $674 $698 #
straight-curve $-1 -49.908749656666771 -13.8158230918848 -1.4013450276879844 0 0 1 I I #
edge $-1 $693 -49.908749656666771 $687 49.908749656666771 $691 $699 forward 7 unknown #
straight-curve $-1 49.908749656666771 0 -11.399293418616404 0 -1 0 I I #
point $-1 -49.908749656666771 -25.402482807366905 -11.399293418616404 #
point $-1 49.908749656666771 -25.402482807366905 -11.399293418616404 #
straight-curve $-1 0 -25.402482807366905 -11.399293418616404 -1 0 0 I I #
End-of-ACIS-data 