500 0 7 0           
7 Unknown 11 ACIS 5.0 NT 24 Thu Mar 25 22:05:27 1999 
-1 9.9999999999999995e-007 1e-010 
body $-1 $7 $-1 $8 #
body $-1 $9 $-1 $10 #
body $-1 $11 $-1 $12 #
body $-1 $13 $-1 $14 #
body $-1 $15 $-1 $16 #
body $-1 $17 $-1 $18 #
body $-1 $19 $-1 $20 #
lump $-1 $-1 $21 $0 #
transform $-1 1 0 0 0 1 0 0 0 1 65.525681325724051 41.582121029777163 10.22110285989362 1 rotate no_reflect no_shear #
lump $-1 $-1 $22 $1 #
transform $-1 1 0 0 0 1 0 0 0 1 65.525681325724051 41.582121029777163 10.22110285989362 1 rotate no_reflect no_shear #
lump $-1 $-1 $23 $2 #
transform $-1 1 0 0 0 1 0 0 0 1 65.525681325724051 41.582121029777163 10.22110285989362 1 rotate no_reflect no_shear #
lump $-1 $-1 $24 $3 #
transform $-1 1 0 0 0 1 0 0 0 1 65.525681325724051 41.582121029777163 10.22110285989362 1 rotate no_reflect no_shear #
lump $-1 $-1 $25 $4 #
transform $-1 1 0 0 0 1 0 0 0 1 65.525681325724051 41.582121029777163 10.22110285989362 1 rotate no_reflect no_shear #
lump $-1 $-1 $26 $5 #
transform $-1 1 0 0 0 1 0 0 0 1 65.525681325724051 41.582121029777163 10.22110285989362 1 rotate no_reflect no_shear #
lump $-1 $-1 $27 $6 #
transform $-1 1 0 0 0 1 0 0 0 1 65.525681325724051 41.582121029777163 10.22110285989362 1 rotate no_reflect no_shear #
shell $-1 $-1 $-1 $28 $-1 $7 #
shell $-1 $-1 $-1 $29 $-1 $9 #
shell $-1 $-1 $-1 $30 $-1 $11 #
shell $-1 $-1 $-1 $31 $-1 $13 #
shell $-1 $-1 $-1 $32 $-1 $15 #
shell $-1 $-1 $-1 $33 $-1 $17 #
shell $-1 $-1 $-1 $34 $-1 $19 #
face $-1 $35 $36 $21 $-1 $37 forward single #
face $-1 $38 $39 $22 $-1 $40 forward single #
face $-1 $41 $42 $23 $-1 $43 forward single #
face $-1 $44 $45 $24 $-1 $46 reversed single #
face $-1 $47 $48 $25 $-1 $49 forward single #
face $-1 $50 $51 $26 $-1 $52 forward single #
face $-1 $53 $54 $27 $-1 $55 forward single #
face $-1 $56 $57 $21 $-1 $58 reversed single #
loop $-1 $-1 $59 $28 #
plane-surface $-1 0 0 10.22110285989362 0 0 1 1 0 0 forward_v I I I I #
face $-1 $60 $61 $22 $-1 $62 reversed single #
loop $-1 $-1 $63 $29 #
plane-surface $-1 0 -37.31493613873343 1.3698219520463368 0 0 1 1 0 0 forward_v I I I I #
face $-1 $64 $65 $23 $-1 $66 reversed single #
loop $-1 $-1 $67 $30 #
plane-surface $-1 0 37.314936138733437 1.3698219520463368 0 0 1 1 0 0 forward_v I I I I #
face $-1 $68 $69 $24 $-1 $70 reversed single #
loop $-1 $-1 $71 $31 #
plane-surface $-1 -165.91685053401139 18.341225328432213 86.581462639644997 0 -1 0 0.7660444514056185 0 -0.64278759981090561 forward_v I I I I #
face $-1 $72 $73 $25 $-1 $74 forward single #
loop $-1 $75 $76 $32 #
cone-surface $-1 -61.194998495614399 5.4168687737096377 5.4216568228915207 0.7660444514056185 0 -0.64278759981090561 0.96418139971635841 0 1.1490666771084277 1 I I 0 1 1.5 forward I I I I #
face $-1 $77 $78 $26 $-1 $79 forward single #
loop $-1 $80 $81 $33 #
cone-surface $-1 -61.194998495614399 10.263502481730605 5.4216568228915207 0.7660444514056185 0 -0.64278759981090561 0.96418139971635841 0 1.1490666771084277 1 I I 0 1 1.5 forward I I I I #
face $-1 $82 $83 $27 $-1 $84 forward single #
loop $-1 $85 $86 $34 #
cone-surface $-1 -61.194998495614399 15.110136189751564 5.4216568228915207 0.7660444514056185 0 -0.64278759981090561 0.96418139971635841 0 1.1490666771084277 1 I I 0 1 1.5 forward I I I I #
face $-1 $87 $88 $21 $-1 $89 reversed single #
loop $-1 $-1 $90 $35 #
plane-surface $-1 0 0 -10.22110285989362 0 0 1 1 0 0 forward_v I I I I #
coedge $-1 $91 $92 $93 $94 forward $36 $-1 #
face $-1 $95 $96 $22 $-1 $97 reversed single #
loop $-1 $-1 $98 $38 #
plane-surface $-1 0 -37.31493613873343 -3.2055463309318917 0 0 1 1 0 0 forward_v I I I I #
coedge $-1 $99 $100 $101 $102 reversed $39 $-1 #
face $-1 $103 $104 $23 $-1 $105 reversed single #
loop $-1 $-1 $106 $41 #
plane-surface $-1 0 37.314936138733437 -3.2055463309318917 0 0 1 1 0 0 forward_v I I I I #
coedge $-1 $107 $108 $109 $110 reversed $42 $-1 #
face $-1 $111 $112 $24 $-1 $113 reversed single #
loop $-1 $-1 $114 $44 #
plane-surface $-1 -65.525681325724065 10.263502481730605 2.3432717889721175 -0.7660444514056185 0 0.64278759981090561 0.64278759981090561 0 0.7660444514056185 forward_v I I I I #
coedge $-1 $115 $116 $117 $118 reversed $45 $-1 #
face $-1 $-1 $119 $25 $-1 $120 forward single #
loop $-1 $121 $122 $47 #
cone-surface $-1 -59.594924813461525 5.4168687737096377 4.0790356214920038 0.7660444514056185 0 -0.64278759981090561 0.48209069985817921 0 0.57453333855421385 1 I I -0.70710678118654757 0.70710678118654757 0.75 forward I I I I #
loop $-1 $-1 $123 $32 #
coedge $-1 $76 $76 $124 $125 reversed $48 $-1 #
face $-1 $-1 $126 $26 $-1 $127 forward single #
loop $-1 $128 $129 $50 #
cone-surface $-1 -59.594924813461525 10.263502481730605 4.0790356214920038 0.7660444514056185 0 -0.64278759981090561 0.48209069985817921 0 0.57453333855421385 1 I I -0.70710678118654757 0.70710678118654757 0.75 forward I I I I #
loop $-1 $-1 $130 $33 #
coedge $-1 $81 $81 $131 $132 reversed $51 $-1 #
face $-1 $-1 $133 $27 $-1 $134 forward single #
loop $-1 $135 $136 $53 #
cone-surface $-1 -59.594924813461525 15.110136189751564 4.0790356214920038 0.7660444514056185 0 -0.64278759981090561 0.48209069985817921 0 0.57453333855421385 1 I I -0.70710678118654757 0.70710678118654757 0.75 forward I I I I #
loop $-1 $-1 $137 $34 #
coedge $-1 $86 $86 $138 $139 reversed $54 $-1 #
face $-1 $140 $141 $21 $-1 $142 reversed single #
loop $-1 $-1 $143 $56 #
plane-surface $-1 0 -41.582121029777163 0 0 1 0 0 0 1 forward_v I I I I #
coedge $-1 $144 $145 $146 $147 forward $57 $-1 #
coedge $-1 $148 $59 $149 $150 forward $36 $-1 #
coedge $-1 $59 $148 $151 $152 forward $36 $-1 #
coedge $-1 $153 $154 $59 $94 reversed $155 $-1 #
edge $-1 $156 -41.582121029777163 $157 41.582121029777163 $93 $158 forward 7 unknown #
face $-1 $159 $160 $22 $-1 $161 reversed single #
loop $-1 $-1 $162 $60 #
plane-surface $-1 0 -33.047751247689696 -0.91786218944277742 0 -1 0 0 0 -1 forward_v I I I I #
coedge $-1 $163 $164 $165 $166 reversed $61 $-1 #
coedge $-1 $167 $63 $168 $169 forward $39 $-1 #
coedge $-1 $63 $167 $170 $171 reversed $39 $-1 #
coedge $-1 $172 $173 $63 $102 forward $174 $-1 #
edge $-1 $175 14.390283178322981 $176 22.924652960410448 $101 $177 forward 7 unknown #
face $-1 $178 $179 $23 $-1 $180 reversed single #
loop $-1 $-1 $181 $64 #
plane-surface $-1 0 33.047751247689703 -0.91786218944277742 0 1 0 0 0 1 forward_v I I I I #
coedge $-1 $182 $183 $184 $185 reversed $65 $-1 #
coedge $-1 $186 $67 $187 $188 reversed $42 $-1 #
coedge $-1 $67 $186 $189 $190 forward $42 $-1 #
coedge $-1 $191 $192 $67 $110 forward $179 $-1 #
edge $-1 $193 -22.924652960410452 $194 -14.390283178322985 $109 $195 forward 7 unknown #
face $-1 $196 $197 $24 $-1 $198 reversed single #
loop $-1 $-1 $199 $68 #
plane-surface $-1 -165.91685053401139 2.1857796350289966 86.581462639644997 0 1 0 -0.7660444514056185 0 0.64278759981090561 forward_v I I I I #
coedge $-1 $200 $201 $202 $203 reversed $69 $-1 #
coedge $-1 $116 $71 $204 $205 reversed $45 $-1 #
coedge $-1 $71 $115 $200 $206 reversed $45 $-1 #
coedge $-1 $202 $207 $71 $118 forward $197 $-1 #
edge $-1 $208 33.069628459928879 $209 40.947459530850367 $117 $210 forward 7 unknown #
loop $-1 $-1 $124 $72 #
plane-surface $-1 -65.525681325724065 10.263502481730605 2.3432717889721175 -0.7660444514056185 0 0.64278759981090561 0.64278759981090561 0 0.7660444514056185 forward_v I I I I #
loop $-1 $-1 $211 $47 #
coedge $-1 $122 $122 $123 $212 reversed $73 $-1 #
coedge $-1 $123 $123 $122 $212 forward $75 $-1 #
coedge $-1 $124 $124 $76 $125 forward $119 $-1 #
edge $-1 $213 0 $213 6.2831853071796004 $124 $214 forward 7 unknown #
loop $-1 $-1 $131 $77 #
plane-surface $-1 -65.525681325724065 10.263502481730605 2.3432717889721175 -0.7660444514056185 0 0.64278759981090561 0.64278759981090561 0 0.7660444514056185 forward_v I I I I #
loop $-1 $-1 $215 $50 #
coedge $-1 $129 $129 $130 $216 reversed $78 $-1 #
coedge $-1 $130 $130 $129 $216 forward $80 $-1 #
coedge $-1 $131 $131 $81 $132 forward $126 $-1 #
edge $-1 $217 0 $217 6.2831853071796004 $131 $218 forward 7 unknown #
loop $-1 $-1 $138 $82 #
plane-surface $-1 -65.525681325724065 10.263502481730605 2.3432717889721175 -0.7660444514056185 0 0.64278759981090561 0.64278759981090561 0 0.7660444514056185 forward_v I I I I #
loop $-1 $-1 $219 $53 #
coedge $-1 $136 $136 $137 $220 reversed $83 $-1 #
coedge $-1 $137 $137 $136 $220 forward $85 $-1 #
coedge $-1 $138 $138 $86 $139 forward $133 $-1 #
edge $-1 $221 0 $221 6.2831853071796004 $138 $222 forward 7 unknown #
face $-1 $223 $224 $21 $-1 $225 reversed single #
loop $-1 $-1 $226 $87 #
plane-surface $-1 -65.525681325724051 0 0 1 0 0 0 0 -1 forward_v I I I I #
coedge $-1 $227 $151 $228 $229 forward $88 $-1 #
coedge $-1 $230 $90 $227 $231 forward $57 $-1 #
coedge $-1 $90 $230 $232 $233 forward $57 $-1 #
coedge $-1 $154 $153 $90 $147 reversed $155 $-1 #
edge $-1 $234 -41.582121029777163 $235 41.582121029777163 $146 $236 forward 7 unknown #
coedge $-1 $92 $91 $237 $238 forward $36 $-1 #
coedge $-1 $239 $240 $91 $150 reversed $224 $-1 #
edge $-1 $157 -65.525681325724051 $241 65.525681325724051 $149 $242 forward 7 unknown #
coedge $-1 $143 $243 $92 $152 reversed $88 $-1 #
edge $-1 $244 -65.525681325724051 $156 65.525681325724051 $151 $245 forward 7 unknown #
coedge $-1 $146 $93 $243 $246 forward $155 $-1 #
coedge $-1 $93 $146 $239 $247 reversed $155 $-1 #
loop $-1 $-1 $153 $223 #
vertex $-1 $94 $248 #
vertex $-1 $94 $249 #
straight-curve $-1 65.525681325724051 0 10.22110285989362 0 1 0 I I #
face $-1 $250 $251 $22 $-1 $252 reversed single #
loop $-1 $-1 $253 $95 #
plane-surface $-1 -65.525681325724051 0 0 1 0 0 0 0 -1 forward_v I I I I #
coedge $-1 $254 $168 $173 $255 reversed $96 $-1 #
coedge $-1 $256 $98 $257 $258 reversed $61 $-1 #
coedge $-1 $98 $256 $254 $259 forward $61 $-1 #
coedge $-1 $173 $172 $98 $166 forward $174 $-1 #
edge $-1 $260 -22.924652960410448 $261 -14.390283178322981 $165 $262 forward 7 unknown #
coedge $-1 $100 $99 $253 $263 reversed $39 $-1 #
coedge $-1 $162 $264 $99 $169 reversed $96 $-1 #
edge $-1 $175 -65.525681325724051 $265 65.525681325724051 $168 $266 forward 7 unknown #
coedge $-1 $267 $268 $100 $171 forward $251 $-1 #
edge $-1 $176 -65.525681325724051 $269 65.525681325724051 $170 $270 forward 7 unknown #
coedge $-1 $165 $101 $268 $271 forward $174 $-1 #
coedge $-1 $101 $165 $162 $255 forward $174 $-1 #
loop $-1 $-1 $101 $250 #
vertex $-1 $102 $272 #
vertex $-1 $271 $273 #
straight-curve $-1 65.525681325724051 -18.657468069366715 1.3698219520463368 0 -1 0 I I #
face $-1 $274 $275 $23 $-1 $276 reversed single #
loop $-1 $-1 $109 $103 #
plane-surface $-1 65.525681325724051 0 0 -1 0 0 0 0 1 forward_v I I I I #
coedge $-1 $277 $189 $278 $279 reversed $104 $-1 #
coedge $-1 $280 $106 $277 $281 forward $65 $-1 #
coedge $-1 $106 $280 $282 $283 reversed $65 $-1 #
coedge $-1 $192 $191 $106 $185 forward $179 $-1 #
edge $-1 $284 14.390283178322985 $285 22.924652960410452 $184 $286 forward 7 unknown #
coedge $-1 $108 $107 $287 $288 reversed $42 $-1 #
coedge $-1 $289 $290 $107 $188 forward $291 $-1 #
edge $-1 $292 -65.525681325724051 $193 65.525681325724051 $187 $293 forward 7 unknown #
coedge $-1 $181 $294 $108 $190 reversed $104 $-1 #
edge $-1 $295 -65.525681325724051 $194 65.525681325724051 $189 $296 forward 7 unknown #
coedge $-1 $184 $109 $294 $297 forward $179 $-1 #
coedge $-1 $109 $184 $289 $298 reversed $179 $-1 #
vertex $-1 $298 $299 #
vertex $-1 $110 $300 #
straight-curve $-1 65.525681325724051 18.657468069366718 1.3698219520463368 0 -1 0 I I #
face $-1 $-1 $301 $24 $-1 $302 forward single #
loop $-1 $-1 $117 $111 #
plane-surface $-1 -65.525681325724051 0 0 1 0 0 0 0 -1 forward_v I I I I #
coedge $-1 $303 $304 $305 $306 reversed $112 $-1 #
coedge $-1 $307 $114 $116 $206 forward $69 $-1 #
coedge $-1 $114 $307 $303 $308 forward $69 $-1 #
coedge $-1 $305 $117 $114 $203 forward $197 $-1 #
edge $-1 $209 -13.20947408756691 $309 2.9459716058363057 $202 $310 forward 7 unknown #
coedge $-1 $311 $312 $115 $205 forward $301 $-1 #
edge $-1 $313 -24.043028914303584 $208 -17.432743941281643 $204 $314 forward 7 unknown #
edge $-1 $209 2.2061860048766535e-014 $313 10.283777992865081 $116 $315 forward 7 unknown #
coedge $-1 $117 $305 $311 $316 reversed $197 $-1 #
vertex $-1 $316 $317 #
vertex $-1 $118 $318 #
straight-curve $-1 -65.525681325724051 18.341225328432213 43.290731319822498 0 0 -1 I I #
coedge $-1 $211 $211 $-1 $319 reversed $121 $-1 #
edge $-1 $320 0 $320 6.2831853071796004 $122 $321 forward 7 unknown #
vertex $-1 $125 $322 #
ellipse-curve $-1 -62.220538839213084 5.4168687737096377 6.2821873244328748 -0.7660444514056185 0 0.64278759981090561 0.96418139971635841 0 1.1490666771084277 1 I I #
coedge $-1 $215 $215 $-1 $323 reversed $128 $-1 #
edge $-1 $324 0 $324 6.2831853071796004 $129 $325 forward 7 unknown #
vertex $-1 $132 $326 #
ellipse-curve $-1 -62.220538839213084 10.263502481730605 6.2821873244328748 -0.7660444514056185 0 0.64278759981090561 0.96418139971635841 0 1.1490666771084277 1 I I #
coedge $-1 $219 $219 $-1 $327 reversed $135 $-1 #
edge $-1 $328 0 $328 6.2831853071796004 $136 $329 forward 7 unknown #
vertex $-1 $139 $330 #
ellipse-curve $-1 -62.220538839213084 15.110136189751564 6.2821873244328748 -0.7660444514056185 0 0.64278759981090561 0.96418139971635841 0 1.1490666771084277 1 I I #
face $-1 $-1 $155 $21 $-1 $331 reversed single #
loop $-1 $-1 $239 $140 #
plane-surface $-1 0 41.582121029777163 0 0 -1 0 0 0 -1 forward_v I I I I #
coedge $-1 $332 $237 $240 $333 forward $141 $-1 #
coedge $-1 $243 $143 $144 $231 reversed $88 $-1 #
coedge $-1 $237 $332 $143 $229 reversed $141 $-1 #
edge $-1 $244 -10.22110285989362 $334 10.22110285989362 $228 $335 forward 7 unknown #
coedge $-1 $145 $144 $332 $336 forward $57 $-1 #
edge $-1 $235 -65.525681325724051 $334 65.525681325724051 $227 $337 forward 7 unknown #
coedge $-1 $240 $239 $145 $233 reversed $224 $-1 #
edge $-1 $338 -65.525681325724051 $234 65.525681325724051 $232 $339 forward 7 unknown #
vertex $-1 $147 $340 #
vertex $-1 $246 $341 #
straight-curve $-1 65.525681325724051 0 -10.22110285989362 0 -1 0 I I #
coedge $-1 $226 $228 $148 $238 reversed $141 $-1 #
edge $-1 $241 -41.582121029777163 $244 41.582121029777163 $237 $342 forward 7 unknown #
coedge $-1 $232 $149 $154 $247 forward $224 $-1 #
coedge $-1 $149 $232 $226 $333 reversed $224 $-1 #
vertex $-1 $150 $343 #
straight-curve $-1 0 41.582121029777163 10.22110285989362 -1 0 0 I I #
coedge $-1 $151 $227 $153 $246 reversed $88 $-1 #
vertex $-1 $238 $344 #
straight-curve $-1 0 -41.582121029777163 10.22110285989362 1 0 0 I I #
edge $-1 $156 -10.22110285989362 $235 10.22110285989362 $153 $345 forward 7 unknown #
edge $-1 $157 -10.22110285989362 $234 10.22110285989362 $154 $346 forward 7 unknown #
point $-1 65.525681325724051 -41.582121029777163 10.22110285989362 #
point $-1 65.525681325724051 41.582121029777163 10.22110285989362 #
face $-1 $-1 $174 $22 $-1 $347 reversed single #
loop $-1 $-1 $170 $159 #
plane-surface $-1 0 -41.582121029777163 0 0 1 0 0 0 1 forward_v I I I I #
coedge $-1 $348 $349 $167 $263 forward $160 $-1 #
coedge $-1 $264 $162 $164 $259 reversed $96 $-1 #
edge $-1 $261 -2.746615236210503 $175 1.8287530467677255 $173 $350 forward 7 unknown #
coedge $-1 $164 $163 $351 $352 reversed $61 $-1 #
coedge $-1 $268 $267 $163 $258 forward $251 $-1 #
edge $-1 $353 -65.525681325724051 $260 65.525681325724051 $257 $354 forward 7 unknown #
edge $-1 $355 -65.525681325724051 $261 65.525681325724051 $254 $356 forward 7 unknown #
vertex $-1 $258 $357 #
vertex $-1 $166 $358 #
straight-curve $-1 65.525681325724051 -18.657468069366715 -3.2055463309318917 0 1 0 I I #
edge $-1 $269 -22.924652960410448 $265 -14.390283178322981 $253 $359 forward 7 unknown #
coedge $-1 $168 $254 $348 $360 reversed $96 $-1 #
vertex $-1 $263 $361 #
straight-curve $-1 0 -33.047751247689696 1.3698219520463368 -1 0 0 I I #
coedge $-1 $257 $170 $349 $362 forward $251 $-1 #
coedge $-1 $170 $257 $172 $271 reversed $251 $-1 #
vertex $-1 $362 $363 #
straight-curve $-1 0 -41.582121029777163 1.3698219520463368 -1 0 0 I I #
edge $-1 $176 -1.3698219520463368 $260 3.2055463309318917 $172 $364 forward 7 unknown #
point $-1 65.525681325724051 -33.047751247689696 1.3698219520463368 #
point $-1 65.525681325724051 -41.582121029777163 1.3698219520463368 #
face $-1 $-1 $291 $23 $-1 $365 reversed single #
loop $-1 $-1 $287 $178 #
plane-surface $-1 -65.525681325724051 0 0 1 0 0 0 0 -1 forward_v I I I I #
coedge $-1 $294 $181 $182 $281 reversed $104 $-1 #
coedge $-1 $287 $366 $181 $279 forward $275 $-1 #
edge $-1 $367 -2.746615236210503 $295 1.8287530467677255 $278 $368 forward 7 unknown #
coedge $-1 $183 $182 $366 $369 reversed $65 $-1 #
edge $-1 $284 -65.525681325724051 $367 65.525681325724051 $277 $370 forward 7 unknown #
coedge $-1 $290 $289 $183 $283 forward $291 $-1 #
edge $-1 $285 -65.525681325724051 $371 65.525681325724051 $282 $372 forward 7 unknown #
vertex $-1 $185 $373 #
vertex $-1 $283 $374 #
straight-curve $-1 65.525681325724051 18.657468069366718 -3.2055463309318917 0 1 0 I I #
coedge $-1 $375 $278 $186 $288 forward $275 $-1 #
edge $-1 $295 14.390283178322985 $292 22.924652960410452 $287 $376 forward 7 unknown #
coedge $-1 $282 $187 $192 $298 forward $291 $-1 #
coedge $-1 $187 $282 $375 $377 reversed $291 $-1 #
loop $-1 $-1 $187 $274 #
vertex $-1 $377 $378 #
straight-curve $-1 0 41.582121029777163 1.3698219520463368 1 0 0 I I #
coedge $-1 $189 $277 $191 $297 reversed $104 $-1 #
vertex $-1 $288 $379 #
straight-curve $-1 0 33.047751247689703 1.3698219520463368 1 0 0 I I #
edge $-1 $194 -1.8287530467677255 $284 2.746615236210503 $191 $380 forward 7 unknown #
edge $-1 $193 -1.3698219520463368 $285 3.2055463309318917 $192 $381 forward 7 unknown #
point $-1 65.525681325724051 41.58212102977717 1.3698219520463368 #
point $-1 65.525681325724051 33.047751247689703 1.3698219520463368 #
loop $-1 $-1 $204 $196 #
plane-surface $-1 0 0 10.22110285989362 0 0 1 1 0 0 forward_v I I I I #
coedge $-1 $304 $199 $201 $308 reversed $112 $-1 #
coedge $-1 $199 $303 $382 $383 reversed $112 $-1 #
coedge $-1 $207 $202 $199 $306 forward $197 $-1 #
edge $-1 $309 -40.947459530850367 $384 -33.069628459928879 $305 $385 forward 7 unknown #
coedge $-1 $201 $200 $312 $386 reversed $69 $-1 #
edge $-1 $387 -10.283777992865081 $309 -2.2061860048766535e-014 $303 $388 forward 7 unknown #
vertex $-1 $203 $389 #
straight-curve $-1 -65.525681325724051 5.1317512408653023 2.3432717889721424 0 -1 0 I I #
coedge $-1 $382 $204 $207 $316 forward $301 $-1 #
coedge $-1 $204 $382 $307 $386 forward $301 $-1 #
vertex $-1 $205 $390 #
straight-curve $-1 -82.958425267005694 18.341225328432213 10.22110285989362 -1 0 0 I I #
straight-curve $-1 -65.525681325724065 18.341225328432213 2.3432717889721175 0.64278759981090561 0 0.7660444514056185 I I #
edge $-1 $208 -18.341225328432213 $384 -2.1857796350289966 $207 $391 forward 7 unknown #
point $-1 -65.525681325724051 18.341225328432213 10.22110285989362 #
point $-1 -65.525681325724051 18.341225328432213 2.3432717889721344 #
edge $-1 $392 1 $392 0 $211 $-1 forward 7 unknown #
vertex $-1 $212 $393 #
ellipse-curve $-1 -60.169458152015736 5.4168687737096377 4.5611263213501827 -0.7660444514056185 0 0.64278759981090561 0.96418139971635841 0 1.1490666771084277 1 I I #
point $-1 -61.256357439496711 5.4168687737096377 7.431254001541288 #
edge $-1 $394 1 $394 0 $215 $-1 forward 7 unknown #
vertex $-1 $216 $395 #
ellipse-curve $-1 -60.169458152015736 10.263502481730605 4.5611263213501827 -0.7660444514056185 0 0.64278759981090561 0.96418139971635841 0 1.1490666771084277 1 I I #
point $-1 -61.256357439496711 10.263502481730605 7.431254001541288 #
edge $-1 $396 1 $396 0 $219 $-1 forward 7 unknown #
vertex $-1 $220 $397 #
ellipse-curve $-1 -60.169458152015736 15.110136189751564 4.5611263213501827 -0.7660444514056185 0 0.64278759981090561 0.96418139971635841 0 1.1490666771084277 1 I I #
point $-1 -61.256357439496711 15.110136189751564 7.431254001541288 #
plane-surface $-1 65.525681325724051 0 0 -1 0 0 0 0 1 forward_v I I I I #
coedge $-1 $228 $226 $230 $336 reversed $141 $-1 #
edge $-1 $241 -10.22110285989362 $338 10.22110285989362 $240 $398 forward 7 unknown #
vertex $-1 $336 $399 #
straight-curve $-1 -65.525681325724051 -41.582121029777163 0 0 0 -1 I I #
edge $-1 $334 -41.582121029777163 $338 41.582121029777163 $332 $400 forward 7 unknown #
straight-curve $-1 0 -41.582121029777163 -10.22110285989362 -1 0 0 I I #
vertex $-1 $233 $401 #
straight-curve $-1 0 41.582121029777163 -10.22110285989362 1 0 0 I I #
point $-1 65.525681325724051 41.582121029777163 -10.22110285989362 #
point $-1 65.525681325724051 -41.582121029777163 -10.22110285989362 #
straight-curve $-1 -65.525681325724051 0 10.22110285989362 0 -1 0 I I #
point $-1 -65.525681325724051 41.582121029777163 10.22110285989362 #
point $-1 -65.525681325724051 -41.582121029777163 10.22110285989362 #
straight-curve $-1 65.525681325724051 -41.582121029777163 0 0 0 -1 I I #
straight-curve $-1 65.525681325724051 41.582121029777163 0 0 0 -1 I I #
plane-surface $-1 65.525681325724051 0 0 -1 0 0 0 0 1 forward_v I I I I #
coedge $-1 $351 $253 $264 $360 forward $160 $-1 #
coedge $-1 $253 $351 $267 $362 reversed $160 $-1 #
straight-curve $-1 65.525681325724051 -33.047751247689696 -0.45893109472138871 0 0 1 I I #
coedge $-1 $349 $348 $256 $352 forward $160 $-1 #
edge $-1 $355 14.390283178322981 $353 22.924652960410448 $351 $402 forward 7 unknown #
vertex $-1 $258 $403 #
straight-curve $-1 0 -41.582121029777163 -3.2055463309318917 1 0 0 I I #
vertex $-1 $352 $404 #
straight-curve $-1 0 -33.047751247689696 -3.2055463309318917 1 0 0 I I #
point $-1 65.525681325724051 -41.582121029777163 -3.2055463309318917 #
point $-1 65.525681325724051 -33.047751247689696 -3.2055463309318917 #
straight-curve $-1 -65.525681325724051 -18.657468069366715 1.3698219520463368 0 1 0 I I #
edge $-1 $265 -1.8287530467677255 $355 2.746615236210503 $348 $405 forward 7 unknown #
point $-1 -65.525681325724051 -33.047751247689696 1.3698219520463368 #
edge $-1 $269 -1.3698219520463368 $353 3.2055463309318917 $349 $406 forward 7 unknown #
point $-1 -65.525681325724051 -41.582121029777163 1.3698219520463368 #
straight-curve $-1 65.525681325724051 -41.582121029777163 0 0 0 -1 I I #
plane-surface $-1 0 41.582121029777163 0 0 -1 0 0 0 -1 forward_v I I I I #
coedge $-1 $278 $375 $280 $369 forward $275 $-1 #
vertex $-1 $369 $407 #
straight-curve $-1 -65.525681325724051 33.047751247689703 -0.45893109472138871 0 0 1 I I #
edge $-1 $371 -22.924652960410452 $367 -14.390283178322985 $366 $408 forward 7 unknown #
straight-curve $-1 0 33.047751247689703 -3.2055463309318917 -1 0 0 I I #
vertex $-1 $283 $409 #
straight-curve $-1 0 41.582121029777163 -3.2055463309318917 -1 0 0 I I #
point $-1 65.525681325724051 33.047751247689703 -3.2055463309318917 #
point $-1 65.525681325724051 41.58212102977717 -3.2055463309318917 #
coedge $-1 $366 $287 $290 $377 forward $275 $-1 #
straight-curve $-1 -65.525681325724051 18.657468069366718 1.3698219520463368 0 1 0 I I #
edge $-1 $292 -1.3698219520463368 $371 3.2055463309318917 $290 $410 forward 7 unknown #
point $-1 -65.525681325724051 41.58212102977717 1.3698219520463368 #
point $-1 -65.525681325724051 33.047751247689703 1.3698219520463368 #
straight-curve $-1 65.525681325724051 33.047751247689703 -0.45893109472138871 0 0 -1 I I #
straight-curve $-1 65.525681325724051 41.582121029777163 0 0 0 -1 I I #
coedge $-1 $312 $311 $304 $383 forward $301 $-1 #
edge $-1 $384 17.432743941281643 $387 24.043028914303584 $382 $411 forward 7 unknown #
vertex $-1 $383 $412 #
straight-curve $-1 -65.525681325724051 2.1857796350289966 43.290731319822498 0 0 1 I I #
edge $-1 $387 -2.9459716058363057 $313 13.20947408756691 $312 $413 forward 7 unknown #
vertex $-1 $386 $414 #
straight-curve $-1 -65.525681325724065 2.1857796350289966 2.3432717889721175 -0.64278759981090561 0 -0.7660444514056185 I I #
point $-1 -65.525681325724051 2.1857796350289966 2.3432717889721344 #
point $-1 -58.915396352702111 18.341225328432213 10.22110285989362 #
straight-curve $-1 -65.525681325724051 0 10.22110285989362 0 -1 0 I I #
vertex $-1 $319 $415 #
point $-1 -59.205276752299383 5.4168687737096377 5.7101929984586111 #
vertex $-1 $323 $416 #
point $-1 -59.205276752299383 10.263502481730605 5.7101929984586111 #
vertex $-1 $327 $417 #
point $-1 -59.205276752299383 15.110136189751564 5.7101929984586111 #
straight-curve $-1 -65.525681325724051 41.582121029777163 0 0 0 -1 I I #
point $-1 -65.525681325724051 -41.582121029777163 -10.22110285989362 #
straight-curve $-1 -65.525681325724051 0 -10.22110285989362 0 1 0 I I #
point $-1 -65.525681325724051 41.582121029777163 -10.22110285989362 #
straight-curve $-1 -65.525681325724051 -18.657468069366715 -3.2055463309318917 0 -1 0 I I #
point $-1 -65.525681325724051 -41.582121029777163 -3.2055463309318917 #
point $-1 -65.525681325724051 -33.047751247689696 -3.2055463309318917 #
straight-curve $-1 -65.525681325724051 -33.047751247689696 -0.45893109472138871 0 0 -1 I I #
straight-curve $-1 -65.525681325724051 -41.582121029777163 0 0 0 -1 I I #
point $-1 -65.525681325724051 33.047751247689703 -3.2055463309318917 #
straight-curve $-1 -65.525681325724051 18.657468069366718 -3.2055463309318917 0 -1 0 I I #
point $-1 -65.525681325724051 41.58212102977717 -3.2055463309318917 #
straight-curve $-1 -65.525681325724051 41.582121029777163 0 0 0 -1 I I #
straight-curve $-1 -82.958425267005694 2.1857796350289966 10.22110285989362 1 0 0 I I #
point $-1 -65.525681325724051 2.1857796350289966 10.22110285989362 #
straight-curve $-1 -58.915396352702111 5.1317512408653023 10.22110285989362 0 1 0 I I #
point $-1 -58.915396352702111 2.1857796350289966 10.22110285989362 #
point $-1 -59.020391474907314 5.4168687737096377 3.5969449216338245 #
point $-1 -59.020391474907314 10.263502481730605 3.5969449216338245 #
point $-1 -59.020391474907314 15.110136189751564 3.5969449216338245 #
End-of-ACIS-data 