500 0 9 0           
7 Unknown 11 ACIS 5.0 NT 24 Fri Mar 26 20:10:10 1999 
-1 9.9999999999999995e-007 1e-010 
body $-1 $9 $-1 $10 #
body $-1 $11 $-1 $12 #
body $-1 $13 $-1 $14 #
body $-1 $15 $-1 $16 #
body $-1 $17 $-1 $18 #
body $-1 $19 $-1 $20 #
body $-1 $21 $-1 $22 #
body $-1 $23 $-1 $24 #
body $-1 $25 $-1 $26 #
lump $-1 $-1 $27 $0 #
transform $-1 1 0 0 0 1 0 0 0 1 43.980834376049074 21.079848687987557 9.8362548443471578 1 rotate no_reflect no_shear #
lump $-1 $-1 $28 $1 #
transform $-1 1 0 0 0 1 0 0 0 1 43.980834376049074 21.079848687987557 9.8362548443471578 1 rotate no_reflect no_shear #
lump $-1 $-1 $29 $2 #
transform $-1 1 0 0 0 1 0 0 0 1 43.980834376049074 21.079848687987557 9.8362548443471578 1 rotate no_reflect no_shear #
lump $-1 $-1 $30 $3 #
transform $-1 1 0 0 0 1 0 0 0 1 43.980834376049074 21.079848687987557 9.8362548443471578 1 rotate no_reflect no_shear #
lump $-1 $-1 $31 $4 #
transform $-1 1 0 0 0 1 0 0 0 1 43.980834376049074 21.079848687987557 9.8362548443471578 1 rotate no_reflect no_shear #
lump $-1 $-1 $32 $5 #
transform $-1 1 0 0 0 1 0 0 0 1 43.980834376049074 21.079848687987557 9.8362548443471578 1 rotate no_reflect no_shear #
lump $-1 $-1 $33 $6 #
transform $-1 1 0 0 0 1 0 0 0 1 43.980834376049074 21.079848687987557 9.8362548443471578 1 rotate no_reflect no_shear #
lump $-1 $-1 $34 $7 #
transform $-1 1 0 0 0 1 0 0 0 1 43.980834376049074 21.079848687987557 9.8362548443471578 1 rotate no_reflect no_shear #
lump $-1 $-1 $35 $8 #
transform $-1 1 0 0 0 1 0 0 0 1 43.980834376049074 21.079848687987557 9.8362548443471578 1 rotate no_reflect no_shear #
shell $-1 $-1 $-1 $36 $-1 $9 #
shell $-1 $-1 $-1 $37 $-1 $11 #
shell $-1 $-1 $-1 $38 $-1 $13 #
shell $-1 $-1 $-1 $39 $-1 $15 #
shell $-1 $-1 $-1 $40 $-1 $17 #
shell $-1 $-1 $-1 $41 $-1 $19 #
shell $-1 $-1 $-1 $42 $-1 $21 #
shell $-1 $-1 $-1 $43 $-1 $23 #
shell $-1 $-1 $-1 $44 $-1 $25 #
face $-1 $45 $46 $27 $-1 $47 forward single #
face $-1 $48 $49 $28 $-1 $50 reversed single #
face $-1 $51 $52 $29 $-1 $53 forward single #
face $-1 $54 $55 $30 $-1 $56 reversed single #
face $-1 $57 $58 $31 $-1 $59 forward single #
face $-1 $60 $61 $32 $-1 $62 forward single #
face $-1 $63 $64 $33 $-1 $65 reversed single #
face $-1 $66 $67 $34 $-1 $68 forward single #
face $-1 $69 $70 $35 $-1 $71 forward single #
face $-1 $72 $73 $27 $-1 $74 reversed single #
loop $-1 $-1 $75 $36 #
plane-surface $-1 0 0 9.8362548443471578 0 0 1 1 0 0 forward_v I I I I #
face $-1 $76 $77 $28 $-1 $78 reversed single #
loop $-1 $-1 $79 $37 #
plane-surface $-1 -20.205294815370436 55.067592331737607 95.473125604763339 1 0 0 0 -0.71933980857756763 -0.69465836192734942 forward_v I I I I #
face $-1 $80 $81 $29 $-1 $82 forward single #
loop $-1 $83 $84 $38 #
cone-surface $-1 -12.446000237151431 16.308747441222774 5.033481132625532 0 -0.71933980857756763 -0.69465836192734942 2 0 0 1 I I 0 1 2 forward I I I I #
face $-1 $85 $86 $30 $-1 $87 reversed single #
loop $-1 $-1 $88 $39 #
plane-surface $-1 -7.7895233140425955 -71.532589836537198 76.009440254121472 -1 0 0 0 -0.57357644374324357 0.81915203911291934 forward_v I I I I #
face $-1 $89 $90 $31 $-1 $91 forward single #
loop $-1 $92 $93 $40 #
cone-surface $-1 -17.911371927524325 -16.025684069271676 5.6750166084557971 0 0.57357644374324357 -0.81915203911291934 2 0 0 1 I I 0 1 2 forward I I I I #
face $-1 $94 $95 $32 $-1 $96 forward single #
loop $-1 $97 $98 $41 #
cone-surface $-1 -11.838262759435288 -16.025684069271676 5.6750166084557971 0 0.57357644374324357 -0.81915203911291934 2 0 0 1 I I 0 1 2 forward I I I I #
face $-1 $99 $100 $33 $-1 $101 reversed single #
loop $-1 $-1 $102 $42 #
plane-surface $-1 21.960111372917019 -71.532589836537198 76.009440254121472 -1 0 0 0 -0.57357644374324357 0.81915203911291934 forward_v I I I I #
face $-1 $103 $104 $34 $-1 $105 forward single #
loop $-1 $106 $107 $43 #
cone-surface $-1 11.838262759435295 -16.025684069271676 5.6750166084557971 0 0.57357644374324357 -0.81915203911291934 2 0 0 1 I I 0 1 2 forward I I I I #
face $-1 $108 $109 $35 $-1 $110 forward single #
loop $-1 $111 $112 $44 #
cone-surface $-1 17.911371927524328 -16.025684069271676 5.6750166084557971 0 0.57357644374324357 -0.81915203911291934 2 0 0 1 I I 0 1 2 forward I I I I #
face $-1 $113 $114 $27 $-1 $115 reversed single #
loop $-1 $-1 $116 $45 #
plane-surface $-1 0 0 -9.8362548443471578 0 0 1 1 0 0 forward_v I I I I #
coedge $-1 $117 $118 $119 $120 forward $46 $-1 #
face $-1 $121 $122 $28 $-1 $123 reversed single #
loop $-1 $-1 $124 $48 #
plane-surface $-1 -12.446000237151431 -8.2067376305600845 34.369816877034722 0 0.71933980857756763 0.69465836192734942 1 0 0 forward_v I I I I #
coedge $-1 $125 $126 $127 $128 reversed $49 $-1 #
face $-1 $-1 $129 $29 $-1 $130 forward single #
loop $-1 $131 $132 $51 #
cone-surface $-1 -12.446000237151431 13.615707095819552 2.4328423626938385 0 -0.71933980857756763 -0.69465836192734942 1 0 0 1 I I -0.70710678118654746 0.70710678118654746 1 forward I I I I #
loop $-1 $-1 $133 $38 #
coedge $-1 $84 $84 $134 $135 reversed $52 $-1 #
face $-1 $136 $137 $30 $-1 $138 reversed single #
loop $-1 $-1 $139 $54 #
plane-surface $-1 -14.874817343479805 -21.07984868798755 3.9554599320651107 0 -0.57357644374324357 0.81915203911291934 1 0 0 forward_v I I I I #
coedge $-1 $140 $141 $142 $143 reversed $55 $-1 #
face $-1 $-1 $144 $31 $-1 $145 forward single #
loop $-1 $146 $147 $57 #
cone-surface $-1 -17.911371927524325 -14.597265692174714 3.6350237895925375 0 0.57357644374324357 -0.81915203911291934 1 0 0 1 I I -0.70710678118654746 0.70710678118654746 1 forward I I I I #
loop $-1 $-1 $148 $40 #
coedge $-1 $93 $93 $149 $150 reversed $58 $-1 #
face $-1 $-1 $151 $32 $-1 $152 forward single #
loop $-1 $153 $154 $60 #
cone-surface $-1 -11.838262759435288 -14.597265692174714 3.6350237895925375 0 0.57357644374324357 -0.81915203911291934 1 0 0 1 I I -0.70710678118654746 0.70710678118654746 1 forward I I I I #
loop $-1 $-1 $155 $41 #
coedge $-1 $98 $98 $156 $157 reversed $61 $-1 #
face $-1 $158 $159 $33 $-1 $160 reversed single #
loop $-1 $-1 $161 $63 #
plane-surface $-1 14.874817343479812 -21.07984868798755 3.9554599320651107 0 -0.57357644374324357 0.81915203911291934 1 0 0 forward_v I I I I #
coedge $-1 $162 $163 $164 $165 reversed $64 $-1 #
face $-1 $-1 $166 $34 $-1 $167 forward single #
loop $-1 $168 $169 $66 #
cone-surface $-1 11.838262759435295 -14.597265692174714 3.6350237895925375 0 0.57357644374324357 -0.81915203911291934 1 0 0 1 I I -0.70710678118654746 0.70710678118654746 1 forward I I I I #
loop $-1 $-1 $170 $43 #
coedge $-1 $107 $107 $171 $172 reversed $67 $-1 #
face $-1 $-1 $173 $35 $-1 $174 forward single #
loop $-1 $175 $176 $69 #
cone-surface $-1 17.911371927524328 -14.597265692174714 3.6350237895925375 0 0.57357644374324357 -0.81915203911291934 1 0 0 1 I I -0.70710678118654746 0.70710678118654746 1 forward I I I I #
loop $-1 $-1 $177 $44 #
coedge $-1 $112 $112 $178 $179 reversed $70 $-1 #
face $-1 $180 $181 $27 $-1 $182 reversed single #
loop $-1 $-1 $183 $72 #
plane-surface $-1 0 -21.079848687987557 0 0 1 0 0 0 1 forward_v I I I I #
coedge $-1 $184 $185 $186 $187 forward $73 $-1 #
coedge $-1 $188 $75 $189 $190 forward $46 $-1 #
coedge $-1 $75 $188 $191 $192 forward $46 $-1 #
coedge $-1 $193 $194 $75 $120 reversed $195 $-1 #
edge $-1 $196 -21.079848687987557 $197 21.079848687987557 $119 $198 forward 7 unknown #
face $-1 $199 $200 $28 $-1 $201 reversed single #
loop $-1 $-1 $202 $76 #
plane-surface $-1 -4.686705658932425 55.067592331737607 95.473125604763339 -1 0 0 0 0.71933980857756763 0.69465836192734942 forward_v I I I I #
coedge $-1 $203 $204 $205 $206 reversed $77 $-1 #
coedge $-1 $126 $79 $207 $208 reversed $49 $-1 #
coedge $-1 $79 $125 $203 $209 reversed $49 $-1 #
coedge $-1 $205 $210 $79 $128 forward $211 $-1 #
edge $-1 $212 6.4539474778812469 $213 12.048748897759484 $127 $214 forward 7 unknown #
loop $-1 $-1 $134 $80 #
plane-surface $-1 -12.446000237151431 -8.2067376305600845 34.369816877034722 0 0.71933980857756763 0.69465836192734942 1 0 0 forward_v I I I I #
loop $-1 $-1 $215 $51 #
coedge $-1 $132 $132 $133 $216 reversed $81 $-1 #
coedge $-1 $133 $133 $132 $216 forward $83 $-1 #
coedge $-1 $134 $134 $84 $135 forward $129 $-1 #
edge $-1 $217 -1.1462750191294071e-015 $217 6.2831853071795996 $134 $218 forward 7 unknown #
face $-1 $219 $220 $30 $-1 $221 reversed single #
loop $-1 $-1 $222 $85 #
plane-surface $-1 -21.960111372917012 -71.532589836537198 76.009440254121472 1 0 0 0 0.57357644374324357 -0.81915203911291934 forward_v I I I I #
coedge $-1 $223 $224 $225 $226 reversed $86 $-1 #
coedge $-1 $141 $88 $227 $228 reversed $55 $-1 #
coedge $-1 $88 $140 $223 $229 reversed $55 $-1 #
coedge $-1 $225 $230 $88 $143 forward $231 $-1 #
edge $-1 $232 14.686446230281042 $233 23.085091601005388 $142 $234 forward 7 unknown #
loop $-1 $-1 $149 $89 #
plane-surface $-1 -14.874817343479805 -21.07984868798755 3.9554599320651107 0 -0.57357644374324357 0.81915203911291934 1 0 0 forward_v I I I I #
loop $-1 $-1 $235 $57 #
coedge $-1 $147 $147 $148 $236 reversed $90 $-1 #
coedge $-1 $148 $148 $147 $236 forward $92 $-1 #
coedge $-1 $149 $149 $93 $150 forward $144 $-1 #
edge $-1 $237 -1.0830244777778638e-016 $237 6.2831853071796004 $149 $238 forward 7 unknown #
loop $-1 $-1 $156 $94 #
plane-surface $-1 -14.874817343479805 -21.07984868798755 3.9554599320651107 0 -0.57357644374324357 0.81915203911291934 1 0 0 forward_v I I I I #
loop $-1 $-1 $239 $60 #
coedge $-1 $154 $154 $155 $240 reversed $95 $-1 #
coedge $-1 $155 $155 $154 $240 forward $97 $-1 #
coedge $-1 $156 $156 $98 $157 forward $151 $-1 #
edge $-1 $241 -1.0830244777778638e-016 $241 6.2831853071796004 $156 $242 forward 7 unknown #
face $-1 $243 $244 $33 $-1 $245 reversed single #
loop $-1 $-1 $246 $99 #
plane-surface $-1 7.7895233140426026 -71.532589836537198 76.009440254121472 1 0 0 0 0.57357644374324357 -0.81915203911291934 forward_v I I I I #
coedge $-1 $247 $248 $249 $250 reversed $100 $-1 #
coedge $-1 $163 $102 $251 $252 reversed $64 $-1 #
coedge $-1 $102 $162 $247 $253 reversed $64 $-1 #
coedge $-1 $249 $254 $102 $165 forward $255 $-1 #
edge $-1 $256 14.686446230281042 $257 23.085091601005388 $164 $258 forward 7 unknown #
loop $-1 $-1 $171 $103 #
plane-surface $-1 14.874817343479812 -21.07984868798755 3.9554599320651107 0 -0.57357644374324357 0.81915203911291934 1 0 0 forward_v I I I I #
loop $-1 $-1 $259 $66 #
coedge $-1 $169 $169 $170 $260 reversed $104 $-1 #
coedge $-1 $170 $170 $169 $260 forward $106 $-1 #
coedge $-1 $171 $171 $107 $172 forward $166 $-1 #
edge $-1 $261 -1.0830244777778638e-016 $261 6.2831853071796004 $171 $262 forward 7 unknown #
loop $-1 $-1 $178 $108 #
plane-surface $-1 14.874817343479812 -21.07984868798755 3.9554599320651107 0 -0.57357644374324357 0.81915203911291934 1 0 0 forward_v I I I I #
loop $-1 $-1 $263 $69 #
coedge $-1 $176 $176 $177 $264 reversed $109 $-1 #
coedge $-1 $177 $177 $176 $264 forward $111 $-1 #
coedge $-1 $178 $178 $112 $179 forward $173 $-1 #
edge $-1 $265 -1.0830244777778638e-016 $265 6.2831853071796004 $178 $266 forward 7 unknown #
face $-1 $267 $268 $27 $-1 $269 reversed single #
loop $-1 $-1 $270 $113 #
plane-surface $-1 -43.980834376049074 0 0 1 0 0 0 0 -1 forward_v I I I I #
coedge $-1 $271 $191 $272 $273 forward $114 $-1 #
coedge $-1 $274 $116 $271 $275 forward $73 $-1 #
coedge $-1 $116 $274 $276 $277 forward $73 $-1 #
coedge $-1 $194 $193 $116 $187 reversed $195 $-1 #
edge $-1 $278 -21.079848687987557 $279 21.079848687987557 $186 $280 forward 7 unknown #
coedge $-1 $118 $117 $281 $282 forward $46 $-1 #
coedge $-1 $283 $284 $117 $190 reversed $268 $-1 #
edge $-1 $197 -43.980834376049074 $285 43.980834376049074 $189 $286 forward 7 unknown #
coedge $-1 $183 $287 $118 $192 reversed $114 $-1 #
edge $-1 $288 -43.980834376049074 $196 43.980834376049074 $191 $289 forward 7 unknown #
coedge $-1 $186 $119 $287 $290 forward $195 $-1 #
coedge $-1 $119 $186 $283 $291 reversed $195 $-1 #
loop $-1 $-1 $193 $267 #
vertex $-1 $120 $292 #
vertex $-1 $120 $293 #
straight-curve $-1 43.980834376049074 0 9.8362548443471578 0 1 0 I I #
face $-1 $-1 $211 $28 $-1 $294 forward single #
loop $-1 $-1 $295 $121 #
plane-surface $-1 0 21.079848687987557 0 0 -1 0 0 0 -1 forward_v I I I I #
coedge $-1 $296 $297 $298 $299 reversed $122 $-1 #
coedge $-1 $300 $124 $126 $209 forward $77 $-1 #
coedge $-1 $124 $300 $296 $301 forward $77 $-1 #
coedge $-1 $298 $127 $124 $206 forward $211 $-1 #
edge $-1 $213 -13.982294696794721 $302 1.5362944596432904 $205 $303 forward 7 unknown #
coedge $-1 $304 $305 $125 $208 forward $200 $-1 #
edge $-1 $306 -43.693894565469066 $212 -37.90030795803451 $207 $307 forward 7 unknown #
edge $-1 $213 34.105664305164154 $306 42.159697375975107 $126 $308 forward 7 unknown #
coedge $-1 $127 $298 $304 $309 forward $211 $-1 #
loop $-1 $-1 $298 $199 #
vertex $-1 $208 $310 #
vertex $-1 $128 $311 #
straight-curve $-1 -20.205294815370436 27.533796165868804 9.8362548443471596 0 -1 0 I I #
coedge $-1 $215 $215 $-1 $312 reversed $131 $-1 #
edge $-1 $313 0 $313 6.2831853071796004 $132 $314 forward 7 unknown #
vertex $-1 $135 $315 #
ellipse-curve $-1 -12.446000237151431 18.282447978048438 6.9394615406298836 0 0.71933980857756763 0.69465836192734942 2 0 0 1 I I #
face $-1 $-1 $231 $30 $-1 $316 forward single #
loop $-1 $-1 $317 $136 #
plane-surface $-1 0 -21.079848687987557 0 0 1 0 0 0 1 forward_v I I I I #
coedge $-1 $318 $319 $320 $321 reversed $137 $-1 #
coedge $-1 $322 $139 $141 $229 forward $86 $-1 #
coedge $-1 $139 $322 $318 $323 forward $86 $-1 #
coedge $-1 $320 $142 $139 $226 forward $231 $-1 #
edge $-1 $233 0.35211464230269307 $324 14.52270270117711 $225 $325 forward 7 unknown #
coedge $-1 $326 $327 $140 $228 forward $220 $-1 #
edge $-1 $328 -34.049260194995632 $232 -28.168465282713576 $227 $329 forward 7 unknown #
edge $-1 $233 -10.252852913385217 $328 8.6223355153435888e-015 $141 $330 forward 7 unknown #
coedge $-1 $142 $320 $326 $331 forward $231 $-1 #
loop $-1 $-1 $320 $219 #
vertex $-1 $228 $332 #
vertex $-1 $143 $333 #
straight-curve $-1 -7.7895233140425955 -35.766294918268599 9.8362548443471596 0 1 0 I I #
coedge $-1 $235 $235 $-1 $334 reversed $146 $-1 #
edge $-1 $335 0 $335 6.2831853071796004 $147 $336 forward 7 unknown #
vertex $-1 $150 $337 #
ellipse-curve $-1 -17.911371927524325 -16.880526002625388 6.8958573882061289 0 -0.57357644374324357 0.81915203911291934 2 0 0 1 I I #
coedge $-1 $239 $239 $-1 $338 reversed $153 $-1 #
edge $-1 $339 0 $339 6.2831853071796004 $154 $340 forward 7 unknown #
vertex $-1 $157 $341 #
ellipse-curve $-1 -11.838262759435288 -16.880526002625388 6.8958573882061289 0 -0.57357644374324357 0.81915203911291934 2 0 0 1 I I #
face $-1 $-1 $255 $33 $-1 $342 forward single #
loop $-1 $-1 $343 $158 #
plane-surface $-1 0 -21.079848687987557 0 0 1 0 0 0 1 forward_v I I I I #
coedge $-1 $344 $345 $346 $347 reversed $159 $-1 #
coedge $-1 $348 $161 $163 $253 forward $100 $-1 #
coedge $-1 $161 $348 $344 $349 forward $100 $-1 #
coedge $-1 $346 $164 $161 $250 forward $255 $-1 #
edge $-1 $257 -14.522702701177113 $350 -0.35211464230269662 $249 $351 forward 7 unknown #
coedge $-1 $352 $353 $162 $252 forward $244 $-1 #
edge $-1 $354 -34.049260194995632 $256 -28.168465282713576 $251 $355 forward 7 unknown #
edge $-1 $257 -10.252852913385217 $354 8.6223355153435888e-015 $163 $356 forward 7 unknown #
coedge $-1 $164 $346 $352 $357 forward $255 $-1 #
loop $-1 $-1 $346 $243 #
vertex $-1 $252 $358 #
vertex $-1 $165 $359 #
straight-curve $-1 21.960111372917019 -35.766294918268599 9.8362548443471596 0 1 0 I I #
coedge $-1 $259 $259 $-1 $360 reversed $168 $-1 #
edge $-1 $361 0 $361 6.2831853071796004 $169 $362 forward 7 unknown #
vertex $-1 $172 $363 #
ellipse-curve $-1 11.838262759435295 -16.880526002625388 6.8958573882061289 0 -0.57357644374324357 0.81915203911291934 2 0 0 1 I I #
coedge $-1 $263 $263 $-1 $364 reversed $175 $-1 #
edge $-1 $365 0 $365 6.2831853071796004 $176 $366 forward 7 unknown #
vertex $-1 $179 $367 #
ellipse-curve $-1 17.911371927524328 -16.880526002625388 6.8958573882061289 0 -0.57357644374324357 0.81915203911291934 2 0 0 1 I I #
face $-1 $-1 $195 $27 $-1 $368 reversed single #
loop $-1 $-1 $283 $180 #
plane-surface $-1 0 21.079848687987557 0 0 -1 0 0 0 -1 forward_v I I I I #
coedge $-1 $369 $281 $284 $370 forward $181 $-1 #
coedge $-1 $287 $183 $184 $275 reversed $114 $-1 #
coedge $-1 $281 $369 $183 $273 reversed $181 $-1 #
edge $-1 $288 -9.8362548443471578 $371 9.8362548443471578 $272 $372 forward 7 unknown #
coedge $-1 $185 $184 $369 $373 forward $73 $-1 #
edge $-1 $279 -43.980834376049074 $371 43.980834376049074 $271 $374 forward 7 unknown #
coedge $-1 $284 $283 $185 $277 reversed $268 $-1 #
edge $-1 $375 -43.980834376049074 $278 43.980834376049074 $276 $376 forward 7 unknown #
vertex $-1 $187 $377 #
vertex $-1 $290 $378 #
straight-curve $-1 43.980834376049074 0 -9.8362548443471578 0 -1 0 I I #
coedge $-1 $270 $272 $188 $282 reversed $181 $-1 #
edge $-1 $285 -21.079848687987557 $288 21.079848687987557 $281 $379 forward 7 unknown #
coedge $-1 $276 $189 $194 $291 forward $268 $-1 #
coedge $-1 $189 $276 $270 $370 reversed $268 $-1 #
vertex $-1 $190 $380 #
straight-curve $-1 0 21.079848687987557 9.8362548443471578 -1 0 0 I I #
coedge $-1 $191 $271 $193 $290 reversed $114 $-1 #
vertex $-1 $282 $381 #
straight-curve $-1 0 -21.079848687987557 9.8362548443471578 1 0 0 I I #
edge $-1 $196 -9.8362548443471578 $279 9.8362548443471578 $193 $382 forward 7 unknown #
edge $-1 $197 -9.8362548443471578 $278 9.8362548443471578 $194 $383 forward 7 unknown #
point $-1 43.980834376049074 -21.079848687987557 9.8362548443471578 #
point $-1 43.980834376049074 21.079848687987557 9.8362548443471578 #
plane-surface $-1 0 0 9.8362548443471578 0 0 1 1 0 0 forward_v I I I I #
coedge $-1 $305 $304 $297 $384 forward $200 $-1 #
coedge $-1 $297 $202 $204 $301 reversed $122 $-1 #
coedge $-1 $202 $296 $295 $384 reversed $122 $-1 #
coedge $-1 $210 $205 $202 $299 forward $211 $-1 #
edge $-1 $302 -12.048748897759484 $385 -6.4539474778812469 $298 $386 forward 7 unknown #
coedge $-1 $204 $203 $305 $387 reversed $77 $-1 #
edge $-1 $388 -42.159697375975107 $302 -34.105664305164154 $296 $389 forward 7 unknown #
vertex $-1 $206 $390 #
straight-curve $-1 -6.2230001185757153 15.485047268109312 9.8362548443471631 1 0 0 I I #
coedge $-1 $295 $207 $210 $309 reversed $200 $-1 #
coedge $-1 $207 $295 $300 $387 forward $200 $-1 #
vertex $-1 $208 $391 #
straight-curve $-1 -20.205294815370436 21.079848687987557 47.73656280238167 0 0 1 I I #
straight-curve $-1 -20.205294815370436 -8.2067376305600845 34.369816877034722 0 0.69465836192734942 -0.71933980857756763 I I #
edge $-1 $385 4.686705658932425 $212 20.205294815370436 $304 $392 forward 7 unknown #
point $-1 -20.205294815370436 21.079848687987557 9.8362548443471578 #
point $-1 -20.205294815370436 15.485047268109319 9.8362548443471596 #
edge $-1 $393 1 $393 0 $215 $-1 forward 7 unknown #
vertex $-1 $216 $394 #
ellipse-curve $-1 -12.446000237151431 14.335046904397119 3.1275007246211879 0 0.71933980857756763 0.69465836192734942 2 0 0 1 I I #
point $-1 -10.446000237151431 18.282447978048427 6.9394615406298765 #
plane-surface $-1 0 0 9.8362548443471578 0 0 1 1 0 0 forward_v I I I I #
coedge $-1 $327 $326 $319 $395 forward $220 $-1 #
coedge $-1 $319 $222 $224 $323 reversed $137 $-1 #
coedge $-1 $222 $318 $317 $395 reversed $137 $-1 #
coedge $-1 $230 $225 $222 $321 forward $231 $-1 #
edge $-1 $324 -23.085091601005388 $396 -14.686446230281042 $320 $397 forward 7 unknown #
coedge $-1 $224 $223 $327 $398 reversed $86 $-1 #
edge $-1 $399 -8.6223355153435888e-015 $324 10.252852913385217 $318 $400 forward 7 unknown #
vertex $-1 $226 $401 #
straight-curve $-1 -7.4374086717399024 -12.681203317263213 9.8362548443471578 -1 0 0 I I #
coedge $-1 $317 $227 $230 $331 reversed $220 $-1 #
coedge $-1 $227 $317 $322 $398 forward $220 $-1 #
vertex $-1 $228 $402 #
straight-curve $-1 -7.7895233140425955 -21.079848687987557 38.004720127060736 0 0 1 I I #
straight-curve $-1 -7.7895233140425955 -21.07984868798755 3.9554599320651107 0 -0.81915203911291934 -0.57357644374324357 I I #
edge $-1 $396 -21.960111372917012 $232 -7.7895233140425955 $326 $403 forward 7 unknown #
point $-1 -7.7895233140425955 -21.079848687987557 9.8362548443471578 #
point $-1 -7.7895233140425955 -12.681203317263213 9.8362548443471578 #
edge $-1 $404 1 $404 0 $235 $-1 forward 7 unknown #
vertex $-1 $236 $405 #
ellipse-curve $-1 -17.911371927524325 -15.170842135917958 4.4541758287054565 0 -0.57357644374324357 0.81915203911291934 2 0 0 1 I I #
point $-1 -15.911371927524325 -16.880526002625395 6.8958573882061387 #
edge $-1 $406 1 $406 0 $239 $-1 forward 7 unknown #
vertex $-1 $240 $407 #
ellipse-curve $-1 -11.838262759435288 -15.170842135917958 4.4541758287054565 0 -0.57357644374324357 0.81915203911291934 2 0 0 1 I I #
point $-1 -9.8382627594352883 -16.880526002625395 6.8958573882061387 #
plane-surface $-1 0 0 9.8362548443471578 0 0 1 1 0 0 forward_v I I I I #
coedge $-1 $353 $352 $345 $408 forward $244 $-1 #
coedge $-1 $345 $246 $248 $349 reversed $159 $-1 #
coedge $-1 $246 $344 $343 $408 reversed $159 $-1 #
coedge $-1 $254 $249 $246 $347 forward $255 $-1 #
edge $-1 $350 -23.085091601005388 $409 -14.686446230281042 $346 $410 forward 7 unknown #
coedge $-1 $248 $247 $353 $411 reversed $100 $-1 #
edge $-1 $412 -8.6223355153435888e-015 $350 10.252852913385217 $344 $413 forward 7 unknown #
vertex $-1 $250 $414 #
straight-curve $-1 7.4374086717399059 -12.681203317263213 9.8362548443471578 -1 0 0 I I #
coedge $-1 $343 $251 $254 $357 reversed $244 $-1 #
coedge $-1 $251 $343 $348 $411 forward $244 $-1 #
vertex $-1 $252 $415 #
straight-curve $-1 21.960111372917019 -21.079848687987557 38.004720127060736 0 0 1 I I #
straight-curve $-1 21.960111372917019 -21.07984868798755 3.9554599320651107 0 -0.81915203911291934 -0.57357644374324357 I I #
edge $-1 $409 7.7895233140426026 $256 21.960111372917019 $352 $416 forward 7 unknown #
point $-1 21.960111372917019 -21.079848687987557 9.8362548443471578 #
point $-1 21.960111372917019 -12.681203317263213 9.8362548443471578 #
edge $-1 $417 1 $417 0 $259 $-1 forward 7 unknown #
vertex $-1 $260 $418 #
ellipse-curve $-1 11.838262759435295 -15.170842135917958 4.4541758287054565 0 -0.57357644374324357 0.81915203911291934 2 0 0 1 I I #
point $-1 13.838262759435295 -16.880526002625395 6.8958573882061387 #
edge $-1 $419 1 $419 0 $263 $-1 forward 7 unknown #
vertex $-1 $264 $420 #
ellipse-curve $-1 17.911371927524328 -15.170842135917958 4.4541758287054565 0 -0.57357644374324357 0.81915203911291934 2 0 0 1 I I #
point $-1 19.911371927524328 -16.880526002625395 6.8958573882061387 #
plane-surface $-1 43.980834376049074 0 0 -1 0 0 0 0 1 forward_v I I I I #
coedge $-1 $272 $270 $274 $373 reversed $181 $-1 #
edge $-1 $285 -9.8362548443471578 $375 9.8362548443471578 $284 $421 forward 7 unknown #
vertex $-1 $373 $422 #
straight-curve $-1 -43.980834376049074 -21.079848687987557 0 0 0 -1 I I #
edge $-1 $371 -21.079848687987557 $375 21.079848687987557 $369 $423 forward 7 unknown #
straight-curve $-1 0 -21.079848687987557 -9.8362548443471578 -1 0 0 I I #
vertex $-1 $277 $424 #
straight-curve $-1 0 21.079848687987557 -9.8362548443471578 1 0 0 I I #
point $-1 43.980834376049074 21.079848687987557 -9.8362548443471578 #
point $-1 43.980834376049074 -21.079848687987557 -9.8362548443471578 #
straight-curve $-1 -43.980834376049074 0 9.8362548443471578 0 -1 0 I I #
point $-1 -43.980834376049074 21.079848687987557 9.8362548443471578 #
point $-1 -43.980834376049074 -21.079848687987557 9.8362548443471578 #
straight-curve $-1 43.980834376049074 -21.079848687987557 0 0 0 -1 I I #
straight-curve $-1 43.980834376049074 21.079848687987557 0 0 0 -1 I I #
edge $-1 $385 37.90030795803451 $388 43.693894565469066 $295 $425 forward 7 unknown #
vertex $-1 $309 $426 #
straight-curve $-1 -4.686705658932425 27.533796165868804 9.8362548443471596 0 1 0 I I #
edge $-1 $388 -1.5362944596432904 $306 13.982294696794721 $305 $427 forward 7 unknown #
vertex $-1 $387 $428 #
straight-curve $-1 -4.686705658932425 -8.2067376305600845 34.369816877034722 0 -0.69465836192734942 0.71933980857756763 I I #
point $-1 -4.686705658932425 15.485047268109319 9.8362548443471596 #
point $-1 -20.205294815370436 21.079848687987553 4.0426682369126077 #
straight-curve $-1 0 21.079848687987557 9.8362548443471578 -1 0 0 I I #
vertex $-1 $312 $429 #
point $-1 -10.446000237151431 14.335046904397119 3.1275007246211879 #
edge $-1 $396 28.168465282713576 $399 34.049260194995632 $317 $430 forward 7 unknown #
vertex $-1 $331 $431 #
straight-curve $-1 -21.960111372917012 -35.766294918268599 9.8362548443471596 0 -1 0 I I #
edge $-1 $399 -14.52270270117711 $328 -0.35211464230269307 $327 $432 forward 7 unknown #
vertex $-1 $398 $433 #
straight-curve $-1 -21.960111372917012 -21.07984868798755 3.9554599320651107 0 0.81915203911291934 0.57357644374324357 I I #
point $-1 -21.960111372917012 -12.681203317263213 9.8362548443471578 #
point $-1 -7.7895233140425955 -21.079848687987557 3.9554599320651058 #
straight-curve $-1 0 -21.079848687987557 9.8362548443471578 1 0 0 I I #
vertex $-1 $334 $434 #
point $-1 -15.911371927524325 -15.170842135917958 4.4541758287054565 #
vertex $-1 $338 $435 #
point $-1 -9.8382627594352883 -15.170842135917958 4.4541758287054565 #
edge $-1 $409 28.168465282713576 $412 34.049260194995632 $343 $436 forward 7 unknown #
vertex $-1 $357 $437 #
straight-curve $-1 7.7895233140426026 -35.766294918268599 9.8362548443471596 0 -1 0 I I #
edge $-1 $412 0.35211464230269662 $354 14.522702701177113 $353 $438 forward 7 unknown #
vertex $-1 $411 $439 #
straight-curve $-1 7.7895233140426026 -21.07984868798755 3.9554599320651107 0 0.81915203911291934 0.57357644374324357 I I #
point $-1 7.7895233140426026 -12.681203317263213 9.8362548443471578 #
point $-1 21.960111372917019 -21.079848687987557 3.9554599320651058 #
straight-curve $-1 0 -21.079848687987557 9.8362548443471578 1 0 0 I I #
vertex $-1 $360 $440 #
point $-1 13.838262759435295 -15.170842135917958 4.4541758287054565 #
vertex $-1 $364 $441 #
point $-1 19.911371927524328 -15.170842135917958 4.4541758287054565 #
straight-curve $-1 -43.980834376049074 21.079848687987557 0 0 0 -1 I I #
point $-1 -43.980834376049074 -21.079848687987557 -9.8362548443471578 #
straight-curve $-1 -43.980834376049074 0 -9.8362548443471578 0 1 0 I I #
point $-1 -43.980834376049074 21.079848687987557 -9.8362548443471578 #
straight-curve $-1 -4.686705658932425 21.079848687987557 47.73656280238167 0 0 -1 I I #
point $-1 -4.686705658932425 21.079848687987557 9.8362548443471578 #
straight-curve $-1 -6.2230001185757153 21.079848687987557 4.0426682369126059 -1 0 0 I I #
point $-1 -4.686705658932425 21.079848687987553 4.0426682369126077 #
point $-1 -12.446000237151431 12.896367287241985 1.738184000766489 #
straight-curve $-1 -21.960111372917012 -21.079848687987557 38.004720127060736 0 0 -1 I I #
point $-1 -21.960111372917012 -21.079848687987557 9.8362548443471578 #
straight-curve $-1 -7.4374086717399024 -21.079848687987557 3.9554599320651063 1 0 0 I I #
point $-1 -21.960111372917012 -21.079848687987557 3.9554599320651058 #
point $-1 -17.911371927524325 -14.02368924843147 2.815871750479618 #
point $-1 -11.838262759435288 -14.02368924843147 2.815871750479618 #
straight-curve $-1 7.7895233140426026 -21.079848687987557 38.004720127060736 0 0 -1 I I #
point $-1 7.7895233140426026 -21.079848687987557 9.8362548443471578 #
straight-curve $-1 7.4374086717399059 -21.079848687987557 3.9554599320651063 1 0 0 I I #
point $-1 7.7895233140426026 -21.079848687987557 3.9554599320651058 #
point $-1 11.838262759435295 -14.02368924843147 2.815871750479618 #
point $-1 17.911371927524328 -14.02368924843147 2.815871750479618 #
End-of-ACIS-data 