500 0 3 0           
7 Unknown 11 ACIS 5.0 NT 24 Fri Mar 26 17:55:58 1999 
-1 9.9999999999999995e-007 1e-010 
body $-1 $3 $-1 $4 #
body $-1 $5 $-1 $6 #
body $-1 $7 $-1 $8 #
lump $-1 $-1 $9 $0 #
transform $-1 1 0 0 0 1 0 0 0 1 50.932950834681236 34.329185026828881 9.5091224395736447 1 rotate no_reflect no_shear #
lump $-1 $-1 $10 $1 #
transform $-1 1 0 0 0 1 0 0 0 1 50.932950834681236 34.329185026828881 9.5091224395736447 1 rotate no_reflect no_shear #
lump $-1 $-1 $11 $2 #
transform $-1 1 0 0 0 1 0 0 0 1 50.932950834681236 34.329185026828881 9.5091224395736447 1 rotate no_reflect no_shear #
shell $-1 $-1 $-1 $12 $-1 $3 #
shell $-1 $-1 $-1 $13 $-1 $5 #
shell $-1 $-1 $-1 $14 $-1 $7 #
face $-1 $15 $16 $9 $-1 $17 forward single #
face $-1 $18 $19 $10 $-1 $20 forward single #
face $-1 $21 $22 $11 $-1 $23 reversed single #
face $-1 $24 $25 $9 $-1 $26 reversed single #
loop $-1 $-1 $27 $12 #
plane-surface $-1 0 0 9.5091224395736447 0 0 1 1 0 0 forward_v I I I I #
face $-1 $28 $29 $10 $-1 $30 reversed single #
loop $-1 $-1 $31 $13 #
plane-surface $-1 -44.680776107232994 0 -6.5091224395736447 0 0 1 1 0 0 forward_v I I I I #
face $-1 $32 $33 $11 $-1 $34 reversed single #
loop $-1 $-1 $35 $14 #
plane-surface $-1 44.894624712064001 -32.002244426711179 0 0 1 0 0 0 1 forward_v I I I I #
face $-1 $36 $37 $9 $-1 $38 reversed single #
loop $-1 $-1 $39 $15 #
plane-surface $-1 0 0 -9.5091224395736447 0 0 1 1 0 0 forward_v I I I I #
coedge $-1 $40 $41 $42 $43 forward $16 $-1 #
face $-1 $44 $45 $10 $-1 $46 reversed single #
loop $-1 $-1 $47 $18 #
plane-surface $-1 -38.428601379784752 0 -8.0091224395736447 -1 0 0 0 0 1 forward_v I I I I #
coedge $-1 $48 $49 $50 $51 forward $19 $-1 #
face $-1 $52 $53 $11 $-1 $54 reversed single #
loop $-1 $-1 $55 $21 #
plane-surface $-1 38.856298589446759 -29.280273726861299 0 1 0 0 0 0 -1 forward_v I I I I #
coedge $-1 $56 $57 $58 $59 forward $22 $-1 #
face $-1 $60 $61 $9 $-1 $62 reversed single #
loop $-1 $-1 $63 $24 #
plane-surface $-1 0 -34.329185026828881 0 0 1 0 0 0 1 forward_v I I I I #
coedge $-1 $64 $65 $66 $67 forward $25 $-1 #
coedge $-1 $68 $27 $69 $70 forward $16 $-1 #
coedge $-1 $27 $68 $71 $72 forward $16 $-1 #
coedge $-1 $73 $74 $27 $43 reversed $75 $-1 #
edge $-1 $76 -34.329185026828881 $77 34.329185026828881 $42 $78 forward 7 unknown #
face $-1 $79 $80 $10 $-1 $81 reversed single #
loop $-1 $-1 $82 $28 #
plane-surface $-1 0 0 -9.5091224395736447 0 0 1 1 0 0 forward_v I I I I #
coedge $-1 $83 $50 $84 $85 reversed $29 $-1 #
coedge $-1 $86 $31 $87 $88 reversed $19 $-1 #
coedge $-1 $31 $86 $89 $90 reversed $19 $-1 #
coedge $-1 $47 $91 $31 $51 reversed $29 $-1 #
edge $-1 $92 -34.329185026828881 $93 34.329185026828881 $50 $94 forward 7 unknown #
face $-1 $95 $96 $11 $-1 $97 reversed single #
loop $-1 $-1 $98 $32 #
plane-surface $-1 44.894624712064001 -26.558303027011419 0 0 -1 0 0 0 -1 forward_v I I I I #
coedge $-1 $99 $100 $101 $102 forward $33 $-1 #
coedge $-1 $103 $35 $104 $105 reversed $22 $-1 #
coedge $-1 $35 $103 $106 $107 reversed $22 $-1 #
coedge $-1 $100 $99 $35 $59 reversed $33 $-1 #
edge $-1 $108 -9.5091224395736447 $109 9.5091224395736447 $58 $110 forward 7 unknown #
face $-1 $111 $112 $9 $-1 $113 reversed single #
loop $-1 $-1 $114 $36 #
plane-surface $-1 -50.932950834681236 0 0 1 0 0 0 0 -1 forward_v I I I I #
coedge $-1 $115 $71 $116 $117 forward $37 $-1 #
coedge $-1 $118 $39 $115 $119 forward $25 $-1 #
coedge $-1 $39 $118 $120 $121 forward $25 $-1 #
coedge $-1 $74 $73 $39 $67 reversed $75 $-1 #
edge $-1 $122 -34.329185026828881 $123 34.329185026828881 $66 $124 forward 7 unknown #
coedge $-1 $41 $40 $125 $126 forward $16 $-1 #
coedge $-1 $127 $128 $40 $70 reversed $112 $-1 #
edge $-1 $77 -50.932950834681236 $129 50.932950834681236 $69 $130 forward 7 unknown #
coedge $-1 $63 $131 $41 $72 reversed $37 $-1 #
edge $-1 $132 -50.932950834681236 $76 50.932950834681236 $71 $133 forward 7 unknown #
coedge $-1 $66 $42 $131 $134 forward $75 $-1 #
coedge $-1 $42 $66 $127 $135 reversed $75 $-1 #
loop $-1 $-1 $73 $111 #
vertex $-1 $43 $136 #
vertex $-1 $43 $137 #
straight-curve $-1 50.932950834681236 0 9.5091224395736447 0 1 0 I I #
face $-1 $138 $139 $10 $-1 $140 reversed single #
loop $-1 $-1 $84 $44 #
plane-surface $-1 0 -34.329185026828881 0 0 1 0 0 0 1 forward_v I I I I #
coedge $-1 $141 $142 $83 $143 forward $45 $-1 #
coedge $-1 $91 $47 $82 $143 reversed $29 $-1 #
coedge $-1 $89 $144 $47 $85 forward $80 $-1 #
edge $-1 $145 -5.5045612197868223 $92 -2.5045612197868223 $84 $146 forward 7 unknown #
coedge $-1 $49 $48 $147 $148 reversed $19 $-1 #
coedge $-1 $149 $150 $48 $88 forward $151 $-1 #
edge $-1 $152 -28.592562781064739 $93 -16.088213326168255 $87 $153 forward 7 unknown #
coedge $-1 $154 $84 $49 $90 forward $80 $-1 #
edge $-1 $92 16.088213326168255 $155 28.592562781064739 $89 $156 forward 7 unknown #
coedge $-1 $50 $83 $149 $157 reversed $29 $-1 #
vertex $-1 $90 $158 #
vertex $-1 $88 $159 #
straight-curve $-1 -38.428601379784752 0 -6.5091224395736447 0 1 0 I I #
face $-1 $160 $161 $11 $-1 $162 forward single #
loop $-1 $-1 $104 $52 #
plane-surface $-1 0 0 -9.5091224395736447 0 0 1 1 0 0 forward_v I I I I #
coedge $-1 $163 $164 $165 $166 reversed $53 $-1 #
coedge $-1 $58 $55 $167 $168 reversed $33 $-1 #
coedge $-1 $55 $58 $169 $170 reversed $33 $-1 #
coedge $-1 $164 $163 $55 $102 reversed $53 $-1 #
edge $-1 $171 -9.5091224395736447 $172 9.5091224395736447 $101 $173 forward 7 unknown #
coedge $-1 $57 $56 $174 $175 reversed $22 $-1 #
coedge $-1 $167 $176 $56 $105 forward $96 $-1 #
edge $-1 $177 -28.485638478649243 $109 -16.408986233414758 $104 $178 forward 7 unknown #
coedge $-1 $179 $169 $57 $107 forward $161 $-1 #
edge $-1 $108 16.408986233414758 $180 28.485638478649243 $106 $181 forward 7 unknown #
vertex $-1 $107 $182 #
vertex $-1 $105 $183 #
straight-curve $-1 38.856298589446759 -32.002244426711179 0 0 0 -1 I I #
face $-1 $-1 $75 $9 $-1 $184 reversed single #
loop $-1 $-1 $127 $60 #
plane-surface $-1 0 34.329185026828881 0 0 -1 0 0 0 -1 forward_v I I I I #
coedge $-1 $185 $125 $128 $186 forward $61 $-1 #
coedge $-1 $131 $63 $64 $119 reversed $37 $-1 #
coedge $-1 $125 $185 $63 $117 reversed $61 $-1 #
edge $-1 $132 -9.5091224395736447 $187 9.5091224395736447 $116 $188 forward 7 unknown #
coedge $-1 $65 $64 $185 $189 forward $25 $-1 #
edge $-1 $123 -50.932950834681236 $187 50.932950834681236 $115 $190 forward 7 unknown #
coedge $-1 $128 $127 $65 $121 reversed $112 $-1 #
edge $-1 $191 -50.932950834681236 $122 50.932950834681236 $120 $192 forward 7 unknown #
vertex $-1 $67 $193 #
vertex $-1 $134 $194 #
straight-curve $-1 50.932950834681236 0 -9.5091224395736447 0 -1 0 I I #
coedge $-1 $114 $116 $68 $126 reversed $61 $-1 #
edge $-1 $129 -34.329185026828881 $132 34.329185026828881 $125 $195 forward 7 unknown #
coedge $-1 $120 $69 $74 $135 forward $112 $-1 #
coedge $-1 $69 $120 $114 $186 reversed $112 $-1 #
vertex $-1 $70 $196 #
straight-curve $-1 0 34.329185026828881 9.5091224395736447 -1 0 0 I I #
coedge $-1 $71 $115 $73 $134 reversed $37 $-1 #
vertex $-1 $126 $197 #
straight-curve $-1 0 -34.329185026828881 9.5091224395736447 1 0 0 I I #
edge $-1 $76 -9.5091224395736447 $123 9.5091224395736447 $73 $198 forward 7 unknown #
edge $-1 $77 -9.5091224395736447 $122 9.5091224395736447 $74 $199 forward 7 unknown #
point $-1 50.932950834681236 -34.329185026828881 9.5091224395736447 #
point $-1 50.932950834681236 34.329185026828881 9.5091224395736447 #
face $-1 $-1 $151 $10 $-1 $200 reversed single #
loop $-1 $-1 $147 $79 #
plane-surface $-1 -50.932950834681236 0 0 1 0 0 0 0 -1 forward_v I I I I #
coedge $-1 $201 $82 $144 $202 forward $45 $-1 #
coedge $-1 $82 $201 $203 $204 forward $45 $-1 #
edge $-1 $205 -34.329185026828881 $145 34.329185026828881 $82 $206 forward 7 unknown #
coedge $-1 $84 $154 $141 $202 reversed $80 $-1 #
vertex $-1 $202 $207 #
straight-curve $-1 -38.428601379784752 -34.329185026828881 -4.0045612197868223 0 0 1 I I #
coedge $-1 $208 $209 $86 $148 forward $139 $-1 #
edge $-1 $155 -34.329185026828881 $152 34.329185026828881 $147 $210 forward 7 unknown #
coedge $-1 $203 $87 $91 $157 forward $151 $-1 #
coedge $-1 $87 $203 $208 $211 reversed $151 $-1 #
loop $-1 $-1 $149 $138 #
vertex $-1 $211 $212 #
straight-curve $-1 -22.340388053616497 34.329185026828881 -6.5091224395736447 1 0 0 I I #
coedge $-1 $144 $89 $209 $213 forward $80 $-1 #
vertex $-1 $213 $214 #
straight-curve $-1 -22.340388053616497 -34.329185026828881 -6.5091224395736447 -1 0 0 I I #
edge $-1 $93 2.5045612197868223 $205 5.5045612197868223 $149 $215 forward 7 unknown #
point $-1 -38.428601379784752 -34.329185026828881 -6.5091224395736447 #
point $-1 -38.428601379784752 34.329185026828881 -6.5091224395736447 #
face $-1 $-1 $216 $11 $-1 $217 reversed single #
loop $-1 $-1 $218 $95 #
plane-surface $-1 0 0 9.5091224395736447 0 0 1 1 0 0 forward_v I I I I #
coedge $-1 $101 $98 $219 $220 reversed $53 $-1 #
coedge $-1 $98 $101 $218 $221 reversed $53 $-1 #
coedge $-1 $222 $223 $98 $166 forward $216 $-1 #
edge $-1 $224 -9.5091224395736447 $225 9.5091224395736447 $165 $226 forward 7 unknown #
coedge $-1 $219 $104 $99 $168 forward $96 $-1 #
edge $-1 $109 -17.362107563280532 $172 -11.91816616358077 $167 $227 forward 7 unknown #
coedge $-1 $106 $218 $100 $170 forward $161 $-1 #
edge $-1 $171 11.91816616358077 $108 17.362107563280532 $169 $228 forward 7 unknown #
vertex $-1 $170 $229 #
vertex $-1 $168 $230 #
straight-curve $-1 38.856298589446759 -26.558303027011419 0 0 0 -1 I I #
coedge $-1 $223 $222 $103 $175 forward $216 $-1 #
edge $-1 $180 -9.5091224395736447 $177 9.5091224395736447 $174 $231 forward 7 unknown #
coedge $-1 $104 $219 $223 $232 forward $96 $-1 #
vertex $-1 $175 $233 #
straight-curve $-1 22.447312356032 -32.002244426711179 -9.5091224395736447 -1 0 0 I I #
coedge $-1 $218 $106 $222 $234 forward $161 $-1 #
vertex $-1 $234 $235 #
straight-curve $-1 22.447312356032 -32.002244426711179 9.5091224395736447 1 0 0 I I #
point $-1 38.856298589446759 -32.002244426711179 9.5091224395736447 #
point $-1 38.856298589446759 -32.002244426711179 -9.5091224395736447 #
plane-surface $-1 50.932950834681236 0 0 -1 0 0 0 0 1 forward_v I I I I #
coedge $-1 $116 $114 $118 $189 reversed $61 $-1 #
edge $-1 $129 -9.5091224395736447 $191 9.5091224395736447 $128 $236 forward 7 unknown #
vertex $-1 $189 $237 #
straight-curve $-1 -50.932950834681236 -34.329185026828881 0 0 0 -1 I I #
edge $-1 $187 -34.329185026828881 $191 34.329185026828881 $185 $238 forward 7 unknown #
straight-curve $-1 0 -34.329185026828881 -9.5091224395736447 -1 0 0 I I #
vertex $-1 $121 $239 #
straight-curve $-1 0 34.329185026828881 -9.5091224395736447 1 0 0 I I #
point $-1 50.932950834681236 34.329185026828881 -9.5091224395736447 #
point $-1 50.932950834681236 -34.329185026828881 -9.5091224395736447 #
straight-curve $-1 -50.932950834681236 0 9.5091224395736447 0 -1 0 I I #
point $-1 -50.932950834681236 34.329185026828881 9.5091224395736447 #
point $-1 -50.932950834681236 -34.329185026828881 9.5091224395736447 #
straight-curve $-1 50.932950834681236 -34.329185026828881 0 0 0 -1 I I #
straight-curve $-1 50.932950834681236 34.329185026828881 0 0 0 -1 I I #
plane-surface $-1 0 34.329185026828881 0 0 -1 0 0 0 -1 forward_v I I I I #
coedge $-1 $142 $141 $240 $241 forward $45 $-1 #
edge $-1 $145 38.428601379784752 $242 50.932950834681236 $144 $243 forward 7 unknown #
coedge $-1 $150 $149 $142 $204 reversed $151 $-1 #
edge $-1 $244 -50.932950834681236 $205 -38.428601379784752 $203 $245 forward 7 unknown #
vertex $-1 $157 $246 #
straight-curve $-1 -38.428601379784752 0 -9.5091224395736447 0 -1 0 I I #
point $-1 -38.428601379784752 -34.329185026828881 -9.5091224395736447 #
coedge $-1 $240 $147 $150 $211 forward $139 $-1 #
coedge $-1 $147 $240 $154 $213 reversed $139 $-1 #
straight-curve $-1 -50.932950834681236 0 -6.5091224395736447 0 1 0 I I #
edge $-1 $152 6.5091224395736447 $244 9.5091224395736447 $150 $247 forward 7 unknown #
point $-1 -50.932950834681236 34.329185026828881 -6.5091224395736447 #
edge $-1 $155 6.5091224395736447 $242 9.5091224395736447 $209 $248 forward 7 unknown #
point $-1 -50.932950834681236 -34.329185026828881 -6.5091224395736447 #
straight-curve $-1 -38.428601379784752 34.329185026828881 -4.0045612197868223 0 0 -1 I I #
loop $-1 $-1 $174 $160 #
plane-surface $-1 50.932950834681236 0 0 -1 0 0 0 0 1 forward_v I I I I #
coedge $-1 $169 $179 $164 $221 forward $161 $-1 #
coedge $-1 $176 $167 $163 $220 forward $96 $-1 #
edge $-1 $172 16.408986233414758 $224 28.485638478649243 $219 $249 forward 7 unknown #
edge $-1 $225 -28.485638478649243 $171 -16.408986233414758 $218 $250 forward 7 unknown #
coedge $-1 $174 $165 $179 $234 reversed $216 $-1 #
coedge $-1 $165 $174 $176 $232 reversed $216 $-1 #
vertex $-1 $232 $251 #
vertex $-1 $166 $252 #
straight-curve $-1 50.932950834681236 -26.558303027011419 0 0 0 1 I I #
straight-curve $-1 38.856298589446759 -14.64013686343065 -9.5091224395736447 0 1 0 I I #
straight-curve $-1 38.856298589446759 -14.64013686343065 9.5091224395736447 0 -1 0 I I #
point $-1 38.856298589446759 -26.558303027011419 9.5091224395736447 #
point $-1 38.856298589446759 -26.558303027011419 -9.5091224395736447 #
straight-curve $-1 50.932950834681236 -32.002244426711179 0 0 0 -1 I I #
edge $-1 $224 26.558303027011419 $177 32.002244426711179 $223 $253 forward 7 unknown #
point $-1 50.932950834681243 -32.002244426711179 -9.5091224395736447 #
edge $-1 $180 -32.002244426711179 $225 -26.558303027011419 $222 $254 forward 7 unknown #
point $-1 50.932950834681243 -32.002244426711179 9.5091224395736447 #
straight-curve $-1 -50.932950834681236 34.329185026828881 0 0 0 -1 I I #
point $-1 -50.932950834681236 -34.329185026828881 -9.5091224395736447 #
straight-curve $-1 -50.932950834681236 0 -9.5091224395736447 0 1 0 I I #
point $-1 -50.932950834681236 34.329185026828881 -9.5091224395736447 #
coedge $-1 $209 $208 $201 $241 reversed $139 $-1 #
edge $-1 $242 -34.329185026828881 $244 34.329185026828881 $240 $255 forward 7 unknown #
vertex $-1 $241 $256 #
straight-curve $-1 0 -34.329185026828881 -9.5091224395736447 -1 0 0 I I #
vertex $-1 $204 $257 #
straight-curve $-1 0 34.329185026828881 -9.5091224395736447 1 0 0 I I #
point $-1 -38.428601379784752 34.329185026828881 -9.5091224395736447 #
straight-curve $-1 -50.932950834681236 34.329185026828881 0 0 0 -1 I I #
straight-curve $-1 -50.932950834681236 -34.329185026828881 0 0 0 -1 I I #
straight-curve $-1 22.447312356032 -26.558303027011419 -9.5091224395736447 1 0 0 I I #
straight-curve $-1 22.447312356032 -26.558303027011419 9.5091224395736447 -1 0 0 I I #
point $-1 50.932950834681243 -26.558303027011419 -9.5091224395736447 #
point $-1 50.932950834681243 -26.558303027011419 9.5091224395736447 #
straight-curve $-1 50.932950834681236 0 -9.5091224395736447 0 -1 0 I I #
straight-curve $-1 50.932950834681236 0 9.5091224395736447 0 1 0 I I #
straight-curve $-1 -50.932950834681236 0 -9.5091224395736447 0 1 0 I I #
point $-1 -50.932950834681236 -34.329185026828881 -9.5091224395736447 #
point $-1 -50.932950834681236 34.329185026828881 -9.5091224395736447 #
End-of-ACIS-data 