500 0 5 0           
7 Unknown 11 ACIS 5.0 NT 24 Fri Mar 26 16:24:40 1999 
-1 9.9999999999999995e-007 1e-010 
body $-1 $5 $-1 $6 #
body $-1 $7 $-1 $8 #
body $-1 $9 $-1 $10 #
body $-1 $11 $-1 $12 #
body $-1 $13 $-1 $14 #
lump $-1 $-1 $15 $0 #
transform $-1 1 0 0 0 1 0 0 0 1 76.934720908230844 49.033528581536928 17.190241998974745 1 rotate no_reflect no_shear #
lump $-1 $-1 $16 $1 #
transform $-1 1 0 0 0 1 0 0 0 1 76.934720908230844 49.033528581536928 17.190241998974745 1 rotate no_reflect no_shear #
lump $-1 $-1 $17 $2 #
transform $-1 1 0 0 0 1 0 0 0 1 76.934720908230844 49.033528581536928 17.190241998974745 1 rotate no_reflect no_shear #
lump $-1 $-1 $18 $3 #
transform $-1 1 0 0 0 1 0 0 0 1 76.934720908230844 49.033528581536928 17.190241998974745 1 rotate no_reflect no_shear #
lump $-1 $-1 $19 $4 #
transform $-1 1 0 0 0 1 0 0 0 1 76.934720908230844 49.033528581536928 17.190241998974745 1 rotate no_reflect no_shear #
shell $-1 $-1 $-1 $20 $-1 $5 #
shell $-1 $-1 $-1 $21 $-1 $7 #
shell $-1 $-1 $-1 $22 $-1 $9 #
shell $-1 $-1 $-1 $23 $-1 $11 #
shell $-1 $-1 $-1 $24 $-1 $13 #
face $-1 $25 $26 $15 $-1 $27 forward single #
face $-1 $28 $29 $16 $-1 $30 reversed single #
face $-1 $31 $32 $17 $-1 $33 forward single #
face $-1 $34 $35 $18 $-1 $36 reversed single #
face $-1 $37 $38 $19 $-1 $39 forward single #
face $-1 $40 $41 $15 $-1 $42 reversed single #
loop $-1 $-1 $43 $20 #
plane-surface $-1 0 0 17.190241998974745 0 0 1 1 0 0 forward_v I I I I #
face $-1 $44 $45 $16 $-1 $46 reversed single #
loop $-1 $-1 $47 $21 #
plane-surface $-1 -12.238883361864193 -141.63447144301693 125.20899317468569 -1 0 0 0 -0.6018150307709319 0.79863550430605224 forward_v I I I I #
face $-1 $48 $49 $17 $-1 $50 forward single #
loop $-1 $51 $52 $22 #
cone-surface $-1 -22.703385989992931 -37.266134981256876 7.2315752415559293 0 0.6018150307709319 -0.79863550430605224 5 0 0 1 I I 0 1 5 forward I I I I #
face $-1 $53 $54 $18 $-1 $55 reversed single #
loop $-1 $-1 $56 $23 #
plane-surface $-1 54.385641875714356 94.684944399519935 183.8835034097618 1 0 0 0 -0.73135370988377701 -0.68199835119979291 forward_v I I I I #
face $-1 $57 $58 $19 $-1 $59 forward single #
loop $-1 $60 $61 $24 #
cone-surface $-1 65.6601813919726 41.453165673424564 9.4715031773921918 0 -0.73135370988377701 -0.68199835119979291 2.5 0 0 1 I I 0 1 2.5 forward I I I I #
face $-1 $62 $63 $15 $-1 $64 reversed single #
loop $-1 $-1 $65 $25 #
plane-surface $-1 0 0 -17.190241998974745 0 0 1 1 0 0 forward_v I I I I #
coedge $-1 $66 $67 $68 $69 forward $26 $-1 #
face $-1 $70 $71 $16 $-1 $72 reversed single #
loop $-1 $-1 $73 $28 #
plane-surface $-1 -22.703385989992924 -49.033528581536928 2.3233939123050504 0 -0.6018150307709319 0.79863550430605224 1 0 0 forward_v I I I I #
coedge $-1 $74 $75 $76 $77 reversed $29 $-1 #
face $-1 $-1 $78 $17 $-1 $79 forward single #
loop $-1 $80 $81 $31 #
cone-surface $-1 -22.703385989992931 -33.858690491868856 2.7097437667068327 0 0.6018150307709319 -0.79863550430605224 2.5 0 0 1 I I -0.70710678118654746 0.70710678118654746 2.5 forward I I I I #
loop $-1 $-1 $82 $22 #
coedge $-1 $52 $52 $83 $84 reversed $32 $-1 #
face $-1 $85 $86 $18 $-1 $87 forward single #
loop $-1 $-1 $88 $34 #
plane-surface $-1 65.6601813919726 -17.848042710695296 78.944797790902456 0 0.73135370988377701 0.68199835119979291 1 0 0 forward_v I I I I #
coedge $-1 $89 $90 $91 $92 reversed $35 $-1 #
face $-1 $-1 $93 $19 $-1 $94 forward single #
loop $-1 $95 $96 $37 #
cone-surface $-1 65.6601813919726 37.605869516779038 5.8838415576452725 0 -0.73135370988377701 -0.68199835119979291 1.25 0 0 1 I I -0.70710678118654746 0.70710678118654746 1.25 forward I I I I #
loop $-1 $-1 $97 $24 #
coedge $-1 $61 $61 $98 $99 reversed $38 $-1 #
face $-1 $100 $101 $15 $-1 $102 reversed single #
loop $-1 $-1 $103 $40 #
plane-surface $-1 0 -49.033528581536928 0 0 1 0 0 0 1 forward_v I I I I #
coedge $-1 $104 $105 $106 $107 forward $41 $-1 #
coedge $-1 $108 $43 $109 $110 forward $26 $-1 #
coedge $-1 $43 $108 $111 $112 forward $26 $-1 #
coedge $-1 $113 $114 $43 $69 reversed $115 $-1 #
edge $-1 $116 -49.033528581536928 $117 49.033528581536928 $68 $118 forward 7 unknown #
face $-1 $119 $120 $16 $-1 $121 reversed single #
loop $-1 $-1 $122 $44 #
plane-surface $-1 -33.167888618121651 -141.63447144301693 125.20899317468569 1 0 0 0 0.6018150307709319 -0.79863550430605224 forward_v I I I I #
coedge $-1 $123 $124 $125 $126 reversed $45 $-1 #
coedge $-1 $75 $47 $127 $128 reversed $29 $-1 #
coedge $-1 $47 $74 $123 $129 reversed $29 $-1 #
coedge $-1 $125 $130 $47 $77 forward $131 $-1 #
edge $-1 $132 21.78370713997154 $133 41.512680515610271 $76 $134 forward 7 unknown #
loop $-1 $-1 $83 $48 #
plane-surface $-1 -22.703385989992924 -49.033528581536928 2.3233939123050504 0 -0.6018150307709319 0.79863550430605224 1 0 0 forward_v I I I I #
loop $-1 $-1 $135 $31 #
coedge $-1 $81 $81 $82 $136 reversed $49 $-1 #
coedge $-1 $82 $82 $81 $136 forward $51 $-1 #
coedge $-1 $83 $83 $52 $84 forward $78 $-1 #
edge $-1 $137 0 $137 6.2831853071796004 $83 $138 forward 7 unknown #
face $-1 $139 $140 $18 $-1 $141 reversed single #
loop $-1 $-1 $91 $53 #
plane-surface $-1 0 0 17.190241998974745 0 0 1 1 0 0 forward_v I I I I #
coedge $-1 $142 $143 $144 $145 reversed $54 $-1 #
coedge $-1 $90 $56 $146 $147 reversed $35 $-1 #
coedge $-1 $56 $89 $142 $148 reversed $35 $-1 #
coedge $-1 $144 $149 $56 $92 forward $86 $-1 #
edge $-1 $150 -1.6910563817769599 $151 7.6034613958661907 $91 $152 forward 7 unknown #
loop $-1 $-1 $98 $57 #
plane-surface $-1 65.6601813919726 -17.848042710695296 78.944797790902456 0 0.73135370988377701 0.68199835119979291 1 0 0 forward_v I I I I #
loop $-1 $-1 $153 $37 #
coedge $-1 $96 $96 $97 $154 reversed $58 $-1 #
coedge $-1 $97 $97 $96 $154 forward $60 $-1 #
coedge $-1 $98 $98 $61 $99 forward $93 $-1 #
edge $-1 $155 9.8828966824248322e-017 $155 6.2831853071796004 $98 $156 forward 7 unknown #
face $-1 $157 $158 $15 $-1 $159 reversed single #
loop $-1 $-1 $160 $62 #
plane-surface $-1 -76.934720908230844 0 0 1 0 0 0 0 -1 forward_v I I I I #
coedge $-1 $161 $111 $162 $163 forward $63 $-1 #
coedge $-1 $164 $65 $161 $165 forward $41 $-1 #
coedge $-1 $65 $164 $166 $167 forward $41 $-1 #
coedge $-1 $114 $113 $65 $107 reversed $115 $-1 #
edge $-1 $168 -49.033528581536928 $169 49.033528581536928 $106 $170 forward 7 unknown #
coedge $-1 $67 $66 $171 $172 forward $26 $-1 #
coedge $-1 $173 $174 $66 $110 reversed $158 $-1 #
edge $-1 $117 -76.934720908230844 $175 76.934720908230844 $109 $176 forward 7 unknown #
coedge $-1 $103 $177 $67 $112 reversed $63 $-1 #
edge $-1 $178 -76.934720908230844 $116 76.934720908230844 $111 $179 forward 7 unknown #
coedge $-1 $106 $68 $177 $180 forward $115 $-1 #
coedge $-1 $68 $106 $173 $181 reversed $115 $-1 #
loop $-1 $-1 $113 $157 #
vertex $-1 $69 $182 #
vertex $-1 $69 $183 #
straight-curve $-1 76.934720908230844 0 17.190241998974745 0 1 0 I I #
face $-1 $-1 $131 $16 $-1 $184 forward single #
loop $-1 $-1 $185 $70 #
plane-surface $-1 0 -49.033528581536928 0 0 1 0 0 0 1 forward_v I I I I #
coedge $-1 $186 $187 $188 $189 reversed $71 $-1 #
coedge $-1 $190 $73 $75 $129 forward $45 $-1 #
coedge $-1 $73 $190 $186 $191 forward $45 $-1 #
coedge $-1 $188 $76 $73 $126 forward $131 $-1 #
edge $-1 $133 0.88719036686773123 $192 21.816195623125189 $125 $193 forward 7 unknown #
coedge $-1 $194 $195 $74 $128 forward $120 $-1 #
edge $-1 $196 -60.281102675037793 $132 -45.414254588368095 $127 $197 forward 7 unknown #
edge $-1 $133 -24.703351240039808 $196 0 $75 $198 forward 7 unknown #
coedge $-1 $76 $188 $194 $199 forward $131 $-1 #
loop $-1 $-1 $188 $119 #
vertex $-1 $128 $200 #
vertex $-1 $77 $201 #
straight-curve $-1 -12.238883361864193 -70.817235721508467 17.190241998974741 0 1 0 I I #
coedge $-1 $135 $135 $-1 $202 reversed $80 $-1 #
edge $-1 $203 0 $203 6.2831853071796004 $81 $204 forward 7 unknown #
vertex $-1 $84 $205 #
ellipse-curve $-1 -22.703385989992931 -39.169041893717562 9.756817955639896 0 -0.6018150307709319 0.79863550430605224 5 0 0 1 I I #
face $-1 $-1 $206 $18 $-1 $207 reversed single #
loop $-1 $-1 $146 $85 #
plane-surface $-1 0 49.033528581536928 0 0 -1 0 0 0 -1 forward_v I I I I #
coedge $-1 $208 $88 $90 $148 forward $54 $-1 #
coedge $-1 $88 $208 $209 $210 reversed $54 $-1 #
coedge $-1 $211 $91 $88 $145 forward $86 $-1 #
edge $-1 $151 21.555551179728056 $212 44.104630212244544 $144 $213 forward 7 unknown #
coedge $-1 $214 $215 $89 $147 forward $140 $-1 #
edge $-1 $216 -84.718659987576942 $150 -74.751509705906159 $146 $217 forward 7 unknown #
edge $-1 $151 84.438699028054998 $216 98.067057163073855 $90 $218 forward 7 unknown #
coedge $-1 $91 $211 $214 $219 forward $86 $-1 #
vertex $-1 $147 $220 #
vertex $-1 $92 $221 #
straight-curve $-1 54.385641875714356 47.342472199759968 17.190241998974741 0 -1 0 I I #
coedge $-1 $153 $153 $-1 $222 reversed $95 $-1 #
edge $-1 $223 0 $223 6.2831853071796004 $96 $224 forward 7 unknown #
vertex $-1 $99 $225 #
ellipse-curve $-1 65.6601813919726 44.386269692715352 12.20666685813935 0 0.73135370988377701 0.68199835119979291 2.5 0 0 1 I I #
face $-1 $-1 $115 $15 $-1 $226 reversed single #
loop $-1 $-1 $173 $100 #
plane-surface $-1 0 49.033528581536928 0 0 -1 0 0 0 -1 forward_v I I I I #
coedge $-1 $227 $171 $174 $228 forward $101 $-1 #
coedge $-1 $177 $103 $104 $165 reversed $63 $-1 #
coedge $-1 $171 $227 $103 $163 reversed $101 $-1 #
edge $-1 $178 -17.190241998974745 $229 17.190241998974745 $162 $230 forward 7 unknown #
coedge $-1 $105 $104 $227 $231 forward $41 $-1 #
edge $-1 $169 -76.934720908230844 $229 76.934720908230844 $161 $232 forward 7 unknown #
coedge $-1 $174 $173 $105 $167 reversed $158 $-1 #
edge $-1 $233 -76.934720908230844 $168 76.934720908230844 $166 $234 forward 7 unknown #
vertex $-1 $107 $235 #
vertex $-1 $180 $236 #
straight-curve $-1 76.934720908230844 0 -17.190241998974745 0 -1 0 I I #
coedge $-1 $160 $162 $108 $172 reversed $101 $-1 #
edge $-1 $175 -49.033528581536928 $178 49.033528581536928 $171 $237 forward 7 unknown #
coedge $-1 $166 $109 $114 $181 forward $158 $-1 #
coedge $-1 $109 $166 $160 $228 reversed $158 $-1 #
vertex $-1 $110 $238 #
straight-curve $-1 0 49.033528581536928 17.190241998974745 -1 0 0 I I #
coedge $-1 $111 $161 $113 $180 reversed $63 $-1 #
vertex $-1 $172 $239 #
straight-curve $-1 0 -49.033528581536928 17.190241998974745 1 0 0 I I #
edge $-1 $116 -17.190241998974745 $169 17.190241998974745 $113 $240 forward 7 unknown #
edge $-1 $117 -17.190241998974745 $168 17.190241998974745 $114 $241 forward 7 unknown #
point $-1 76.934720908230844 -49.033528581536928 17.190241998974745 #
point $-1 76.934720908230844 49.033528581536928 17.190241998974745 #
plane-surface $-1 0 0 17.190241998974745 0 0 1 1 0 0 forward_v I I I I #
coedge $-1 $195 $194 $187 $242 forward $120 $-1 #
coedge $-1 $187 $122 $124 $191 reversed $71 $-1 #
coedge $-1 $122 $186 $185 $242 reversed $71 $-1 #
coedge $-1 $130 $125 $122 $189 forward $131 $-1 #
edge $-1 $192 -41.512680515610271 $243 -21.78370713997154 $188 $244 forward 7 unknown #
coedge $-1 $124 $123 $195 $245 reversed $45 $-1 #
edge $-1 $246 0 $192 24.703351240039808 $186 $247 forward 7 unknown #
vertex $-1 $126 $248 #
straight-curve $-1 -11.351692994996462 -29.304555205898197 17.190241998974745 -1 0 0 I I #
coedge $-1 $185 $127 $130 $199 reversed $120 $-1 #
coedge $-1 $127 $185 $190 $245 forward $120 $-1 #
vertex $-1 $128 $249 #
straight-curve $-1 -12.238883361864193 -49.033528581536928 62.604496587342844 0 0 1 I I #
straight-curve $-1 -12.238883361864193 -49.033528581536928 2.3233939123050504 0 -0.79863550430605224 -0.6018150307709319 I I #
edge $-1 $243 -33.167888618121651 $132 -12.238883361864193 $194 $250 forward 7 unknown #
point $-1 -12.238883361864193 -49.033528581536928 17.190241998974745 #
point $-1 -12.238883361864193 -29.304555205898197 17.190241998974745 #
edge $-1 $251 1 $251 0 $135 $-1 forward 7 unknown #
vertex $-1 $136 $252 #
ellipse-curve $-1 -22.703385989992931 -35.363228068796182 4.7063325274719627 0 -0.6018150307709319 0.79863550430605224 5 0 0 1 I I #
point $-1 -17.703385989992931 -39.169041893717562 9.756817955639896 #
loop $-1 $-1 $209 $139 #
plane-surface $-1 76.934720908230844 0 0 -1 0 0 0 0 1 forward_v I I I I #
coedge $-1 $143 $142 $215 $253 reversed $54 $-1 #
coedge $-1 $254 $255 $143 $210 forward $206 $-1 #
edge $-1 $212 49.484245807435613 $256 63.11260394245447 $209 $257 forward 7 unknown #
coedge $-1 $149 $144 $255 $258 forward $86 $-1 #
vertex $-1 $258 $259 #
straight-curve $-1 32.8300906959863 39.73901080389377 17.190241998974749 1 0 0 I I #
coedge $-1 $260 $146 $149 $219 reversed $140 $-1 #
coedge $-1 $146 $260 $208 $253 forward $140 $-1 #
vertex $-1 $147 $261 #
straight-curve $-1 54.385641875714356 49.033528581536928 91.9417517048809 0 0 1 I I #
straight-curve $-1 54.385641875714356 -17.848042710695296 78.944797790902456 0 0.68199835119979291 -0.73135370988377701 I I #
edge $-1 $262 -76.934720908230844 $150 -54.385641875714356 $214 $263 forward 7 unknown #
point $-1 54.385641875714356 49.033528581536928 17.190241998974745 #
point $-1 54.385641875714356 39.739010803893777 17.190241998974749 #
edge $-1 $264 1 $264 0 $153 $-1 forward 7 unknown #
vertex $-1 $154 $265 #
ellipse-curve $-1 65.6601813919726 38.520061654133755 6.7363394966450141 0 0.73135370988377701 0.68199835119979291 2.5 0 0 1 I I #
point $-1 68.1601813919726 44.386269692715373 12.20666685813937 #
plane-surface $-1 76.934720908230844 0 0 -1 0 0 0 0 1 forward_v I I I I #
coedge $-1 $162 $160 $164 $231 reversed $101 $-1 #
edge $-1 $175 -17.190241998974745 $233 17.190241998974745 $174 $266 forward 7 unknown #
vertex $-1 $231 $267 #
straight-curve $-1 -76.934720908230844 -49.033528581536928 0 0 0 -1 I I #
edge $-1 $229 -49.033528581536928 $233 49.033528581536928 $227 $268 forward 7 unknown #
straight-curve $-1 0 -49.033528581536928 -17.190241998974745 -1 0 0 I I #
vertex $-1 $167 $269 #
straight-curve $-1 0 49.033528581536928 -17.190241998974745 1 0 0 I I #
point $-1 76.934720908230844 49.033528581536928 -17.190241998974745 #
point $-1 76.934720908230844 -49.033528581536928 -17.190241998974745 #
straight-curve $-1 -76.934720908230844 0 17.190241998974745 0 -1 0 I I #
point $-1 -76.934720908230844 49.033528581536928 17.190241998974745 #
point $-1 -76.934720908230844 -49.033528581536928 17.190241998974745 #
straight-curve $-1 76.934720908230844 -49.033528581536928 0 0 0 -1 I I #
straight-curve $-1 76.934720908230844 49.033528581536928 0 0 0 -1 I I #
edge $-1 $243 45.414254588368095 $246 60.281102675037793 $185 $270 forward 7 unknown #
vertex $-1 $199 $271 #
straight-curve $-1 -33.167888618121651 -70.817235721508467 17.190241998974741 0 -1 0 I I #
edge $-1 $246 -21.816195623125189 $196 -0.88719036686773123 $195 $272 forward 7 unknown #
vertex $-1 $245 $273 #
straight-curve $-1 -33.167888618121651 -49.033528581536928 2.3233939123050504 0 0.79863550430605224 0.6018150307709319 I I #
point $-1 -33.167888618121651 -29.304555205898197 17.190241998974745 #
point $-1 -12.238883361864193 -49.033528581536928 2.3233939123050504 #
straight-curve $-1 0 -49.033528581536928 17.190241998974745 1 0 0 I I #
vertex $-1 $202 $274 #
point $-1 -17.703385989992931 -35.363228068796182 4.7063325274719627 #
edge $-1 $256 -44.104630212244544 $216 -21.555551179728056 $215 $275 forward 7 unknown #
coedge $-1 $255 $209 $260 $276 reversed $206 $-1 #
coedge $-1 $209 $254 $211 $258 reversed $206 $-1 #
vertex $-1 $210 $277 #
straight-curve $-1 76.934720908230844 5.9908367528574225 53.38072875104352 0 0.68199835119979291 -0.73135370988377701 I I #
edge $-1 $212 39.739010803893777 $262 49.033528581536928 $255 $278 forward 7 unknown #
point $-1 76.934720908230844 39.739010803893777 17.190241998974749 #
coedge $-1 $215 $214 $254 $276 forward $140 $-1 #
point $-1 54.385641875714356 49.033528581536928 7.2230917173039586 #
vertex $-1 $258 $279 #
straight-curve $-1 0 49.033528581536928 17.190241998974745 -1 0 0 I I #
vertex $-1 $222 $280 #
point $-1 68.1601813919726 38.520061654133755 6.7363394966450141 #
straight-curve $-1 -76.934720908230844 49.033528581536928 0 0 0 -1 I I #
point $-1 -76.934720908230844 -49.033528581536928 -17.190241998974745 #
straight-curve $-1 -76.934720908230844 0 -17.190241998974745 0 1 0 I I #
point $-1 -76.934720908230844 49.033528581536928 -17.190241998974745 #
straight-curve $-1 -33.167888618121651 -49.033528581536928 62.604496587342844 0 0 -1 I I #
point $-1 -33.167888618121651 -49.033528581536928 17.190241998974745 #
straight-curve $-1 -11.351692994996462 -49.033528581536928 2.3233939123050518 1 0 0 I I #
point $-1 -33.167888618121651 -49.033528581536928 2.3233939123050504 #
point $-1 -22.703385989992931 -32.35415291494153 0.71315500594170222 #
straight-curve $-1 32.8300906959863 49.033528581536928 7.2230917173039515 -1 0 0 I I #
edge $-1 $262 -17.190241998974745 $256 -7.2230917173039586 $254 $281 forward 7 unknown #
point $-1 76.934720908230844 49.033528581536928 7.2230917173039586 #
straight-curve $-1 76.934720908230844 0 17.190241998974745 0 1 0 I I #
point $-1 76.934720908230844 49.033528581536928 17.190241998974745 #
point $-1 65.6601813919726 36.69167737942432 5.0313436186455309 #
straight-curve $-1 76.934720908230844 49.033528581536928 0 0 0 -1 I I #
End-of-ACIS-data 