500 0 9 0           
7 Unknown 11 ACIS 5.0 NT 24 Fri Mar 26 17:19:31 1999 
-1 9.9999999999999995e-007 1e-010 
body $-1 $9 $-1 $10 #
body $-1 $11 $-1 $12 #
body $-1 $13 $-1 $14 #
body $-1 $15 $-1 $16 #
body $-1 $17 $-1 $18 #
body $-1 $19 $-1 $20 #
body $-1 $21 $-1 $22 #
body $-1 $23 $-1 $24 #
body $-1 $25 $-1 $26 #
lump $-1 $-1 $27 $0 #
transform $-1 1 0 0 0 1 0 0 0 1 51.29551072725608 31.344316964794221 7.081575319387543 1 rotate no_reflect no_shear #
lump $-1 $-1 $28 $1 #
transform $-1 1 0 0 0 1 0 0 0 1 51.29551072725608 31.344316964794221 7.081575319387543 1 rotate no_reflect no_shear #
lump $-1 $-1 $29 $2 #
transform $-1 1 0 0 0 1 0 0 0 1 51.29551072725608 31.344316964794221 7.081575319387543 1 rotate no_reflect no_shear #
lump $-1 $-1 $30 $3 #
transform $-1 1 0 0 0 1 0 0 0 1 51.29551072725608 31.344316964794221 7.081575319387543 1 rotate no_reflect no_shear #
lump $-1 $-1 $31 $4 #
transform $-1 1 0 0 0 1 0 0 0 1 51.29551072725608 31.344316964794221 7.081575319387543 1 rotate no_reflect no_shear #
lump $-1 $-1 $32 $5 #
transform $-1 1 0 0 0 1 0 0 0 1 51.29551072725608 31.344316964794221 7.081575319387543 1 rotate no_reflect no_shear #
lump $-1 $-1 $33 $6 #
transform $-1 1 0 0 0 1 0 0 0 1 51.29551072725608 31.344316964794221 7.081575319387543 1 rotate no_reflect no_shear #
lump $-1 $-1 $34 $7 #
transform $-1 1 0 0 0 1 0 0 0 1 51.29551072725608 31.344316964794221 7.081575319387543 1 rotate no_reflect no_shear #
lump $-1 $-1 $35 $8 #
transform $-1 1 0 0 0 1 0 0 0 1 51.29551072725608 31.344316964794221 7.081575319387543 1 rotate no_reflect no_shear #
shell $-1 $-1 $-1 $36 $-1 $9 #
shell $-1 $-1 $-1 $37 $-1 $11 #
shell $-1 $-1 $-1 $38 $-1 $13 #
shell $-1 $-1 $-1 $39 $-1 $15 #
shell $-1 $-1 $-1 $40 $-1 $17 #
shell $-1 $-1 $-1 $41 $-1 $19 #
shell $-1 $-1 $-1 $42 $-1 $21 #
shell $-1 $-1 $-1 $43 $-1 $23 #
shell $-1 $-1 $-1 $44 $-1 $25 #
face $-1 $45 $46 $27 $-1 $47 forward single #
face $-1 $48 $49 $28 $-1 $50 reversed single #
face $-1 $51 $52 $29 $-1 $53 reversed single #
face $-1 $54 $55 $30 $-1 $56 forward single #
face $-1 $57 $58 $31 $-1 $59 forward single #
face $-1 $60 $61 $32 $-1 $62 reversed single #
face $-1 $63 $64 $33 $-1 $65 forward single #
face $-1 $66 $67 $34 $-1 $68 forward single #
face $-1 $69 $70 $35 $-1 $71 forward single #
face $-1 $72 $73 $27 $-1 $74 reversed single #
loop $-1 $-1 $75 $36 #
plane-surface $-1 0 0 7.081575319387543 0 0 1 1 0 0 forward_v I I I I #
face $-1 $76 $77 $28 $-1 $78 reversed single #
loop $-1 $-1 $79 $37 #
plane-surface $-1 -49.79551072725608 -25.74033080317599 0 0 -1 0 0 0 -1 forward_v I I I I #
face $-1 $80 $81 $29 $-1 $82 reversed single #
loop $-1 $-1 $83 $38 #
plane-surface $-1 48.763419270649045 14.710902259780418 146.31351238211275 0 1 0 0.69465837861970381 0 0.71933979245794832 forward_v I I I I #
face $-1 $84 $85 $30 $-1 $86 forward single #
loop $-1 $87 $88 $39 #
cone-surface $-1 47.270593073010161 19.463306461212927 3.1245297875633562 -0.69465837861970381 0 -0.71933979245794832 1.0790096886869225 0 -1.0419875679295556 1 I I 0 1 1.5 forward I I I I #
face $-1 $89 $90 $31 $-1 $91 forward single #
loop $-1 $92 $93 $40 #
cone-surface $-1 47.270593073010161 26.591912763361702 3.1245297875633562 -0.69465837861970381 0 -0.71933979245794832 1.0790096886869225 0 -1.0419875679295556 1 I I 0 1 1.5 forward I I I I #
face $-1 $94 $95 $32 $-1 $96 reversed single #
loop $-1 $-1 $97 $41 #
plane-surface $-1 -105.6604700511928 5.991478921565303 89.19580945132499 0 1 0 -0.52991927123019833 0 0.84804809178421925 forward_v I I I I #
face $-1 $98 $99 $33 $-1 $100 forward single #
loop $-1 $101 $102 $42 #
cone-surface $-1 -46.258643698140304 9.1471064207012169 2.8360704702610899 0.52991927123019833 0 -0.84804809178421925 1.2720721376763289 0 0.79487890684529749 1 I I 0 1 1.5 forward I I I I #
face $-1 $103 $104 $34 $-1 $105 forward single #
loop $-1 $106 $107 $43 #
cone-surface $-1 -46.258643698140304 13.880547669405086 2.8360704702610899 0.52991927123019833 0 -0.84804809178421925 1.2720721376763289 0 0.79487890684529749 1 I I 0 1 1.5 forward I I I I #
face $-1 $108 $109 $35 $-1 $110 forward single #
loop $-1 $111 $112 $44 #
cone-surface $-1 -46.258643698140304 18.613988918108955 2.8360704702610899 0.52991927123019833 0 -0.84804809178421925 1.2720721376763289 0 0.79487890684529749 1 I I 0 1 1.5 forward I I I I #
face $-1 $113 $114 $27 $-1 $115 reversed single #
loop $-1 $-1 $116 $45 #
plane-surface $-1 0 0 -7.081575319387543 0 0 1 1 0 0 forward_v I I I I #
coedge $-1 $117 $118 $119 $120 forward $46 $-1 #
face $-1 $121 $122 $28 $-1 $123 forward single #
loop $-1 $-1 $124 $48 #
plane-surface $-1 -48.29551072725608 -28.542323883985105 0 -1 0 0 0 0 1 forward_v I I I I #
coedge $-1 $125 $126 $127 $128 forward $49 $-1 #
face $-1 $129 $130 $29 $-1 $131 reversed single #
loop $-1 $-1 $132 $51 #
plane-surface $-1 -22.502293353881619 23.027609612287318 72.515708300975049 0.69465837861970381 0 0.71933979245794832 0.71933979245794832 0 -0.69465837861970381 forward_v I I I I #
coedge $-1 $133 $134 $135 $136 reversed $52 $-1 #
face $-1 $-1 $137 $30 $-1 $138 forward single #
loop $-1 $139 $140 $54 #
cone-surface $-1 45.74407031502529 19.463306461212927 1.543769232867259 -0.69465837861970381 0 -0.71933979245794832 0.53950484434346124 0 -0.5209937839647778 1 I I -0.70710678118654757 0.70710678118654757 0.75 forward I I I I #
loop $-1 $-1 $141 $39 #
coedge $-1 $88 $88 $142 $143 reversed $55 $-1 #
face $-1 $-1 $144 $31 $-1 $145 forward single #
loop $-1 $146 $147 $57 #
cone-surface $-1 45.74407031502529 26.591912763361702 1.543769232867259 -0.69465837861970381 0 -0.71933979245794832 0.53950484434346124 0 -0.5209937839647778 1 I I -0.70710678118654757 0.70710678118654757 0.75 forward I I I I #
loop $-1 $-1 $148 $40 #
coedge $-1 $93 $93 $149 $150 reversed $58 $-1 #
face $-1 $151 $152 $32 $-1 $153 reversed single #
loop $-1 $-1 $154 $60 #
plane-surface $-1 -51.29551072725608 13.880547669405086 2.1936894726320588 -0.52991927123019833 0 0.84804809178421925 0.84804809178421925 0 0.52991927123019833 forward_v I I I I #
coedge $-1 $155 $156 $157 $158 reversed $61 $-1 #
face $-1 $-1 $159 $33 $-1 $160 forward single #
loop $-1 $161 $162 $63 #
cone-surface $-1 -44.735463391082504 9.1471064207012169 0.3984724756742235 0.52991927123019833 0 -0.84804809178421925 0.63603606883816444 0 0.39743945342264875 1 I I -0.70710678118654757 0.70710678118654757 0.75 forward I I I I #
loop $-1 $-1 $163 $42 #
coedge $-1 $102 $102 $164 $165 reversed $64 $-1 #
face $-1 $-1 $166 $34 $-1 $167 forward single #
loop $-1 $168 $169 $66 #
cone-surface $-1 -44.735463391082504 13.880547669405086 0.3984724756742235 0.52991927123019833 0 -0.84804809178421925 0.63603606883816444 0 0.39743945342264875 1 I I -0.70710678118654757 0.70710678118654757 0.75 forward I I I I #
loop $-1 $-1 $170 $43 #
coedge $-1 $107 $107 $171 $172 reversed $67 $-1 #
face $-1 $-1 $173 $35 $-1 $174 forward single #
loop $-1 $175 $176 $69 #
cone-surface $-1 -44.735463391082504 18.613988918108955 0.3984724756742235 0.52991927123019833 0 -0.84804809178421925 0.63603606883816444 0 0.39743945342264875 1 I I -0.70710678118654757 0.70710678118654757 0.75 forward I I I I #
loop $-1 $-1 $177 $44 #
coedge $-1 $112 $112 $178 $179 reversed $70 $-1 #
face $-1 $180 $181 $27 $-1 $182 reversed single #
loop $-1 $-1 $183 $72 #
plane-surface $-1 0 -31.344316964794221 0 0 1 0 0 0 1 forward_v I I I I #
coedge $-1 $184 $185 $186 $187 forward $73 $-1 #
coedge $-1 $188 $75 $189 $190 forward $46 $-1 #
coedge $-1 $75 $188 $191 $192 forward $46 $-1 #
coedge $-1 $193 $194 $75 $120 reversed $195 $-1 #
edge $-1 $196 -31.344316964794221 $197 31.344316964794221 $119 $198 forward 7 unknown #
face $-1 $199 $200 $28 $-1 $201 reversed single #
loop $-1 $-1 $202 $76 #
plane-surface $-1 0 0 7.081575319387543 0 0 1 1 0 0 forward_v I I I I #
coedge $-1 $203 $204 $205 $206 reversed $77 $-1 #
coedge $-1 $207 $79 $208 $209 reversed $49 $-1 #
coedge $-1 $79 $207 $210 $211 reversed $49 $-1 #
coedge $-1 $204 $203 $79 $128 reversed $77 $-1 #
edge $-1 $212 -7.081575319387543 $213 7.081575319387543 $127 $214 forward 7 unknown #
face $-1 $215 $216 $29 $-1 $217 reversed single #
loop $-1 $-1 $135 $80 #
plane-surface $-1 51.29551072725608 0 0 -1 0 0 0 0 1 forward_v I I I I #
coedge $-1 $218 $219 $220 $221 reversed $81 $-1 #
coedge $-1 $134 $83 $222 $223 reversed $52 $-1 #
coedge $-1 $83 $133 $218 $224 reversed $52 $-1 #
coedge $-1 $220 $225 $83 $136 forward $130 $-1 #
edge $-1 $226 66.075180871668834 $227 71.906760514611989 $135 $228 forward 7 unknown #
loop $-1 $-1 $142 $84 #
plane-surface $-1 -22.502293353881619 23.027609612287318 72.515708300975049 0.69465837861970381 0 0.71933979245794832 0.71933979245794832 0 -0.69465837861970381 forward_v I I I I #
loop $-1 $-1 $229 $54 #
coedge $-1 $140 $140 $141 $230 reversed $85 $-1 #
coedge $-1 $141 $141 $140 $230 forward $87 $-1 #
coedge $-1 $142 $142 $88 $143 forward $137 $-1 #
edge $-1 $231 0 $231 6.2831853071796004 $142 $232 forward 7 unknown #
loop $-1 $-1 $149 $89 #
plane-surface $-1 -22.502293353881619 23.027609612287318 72.515708300975049 0.69465837861970381 0 0.71933979245794832 0.71933979245794832 0 -0.69465837861970381 forward_v I I I I #
loop $-1 $-1 $233 $57 #
coedge $-1 $147 $147 $148 $234 reversed $90 $-1 #
coedge $-1 $148 $148 $147 $234 forward $92 $-1 #
coedge $-1 $149 $149 $93 $150 forward $144 $-1 #
edge $-1 $235 0 $235 6.2831853071796004 $149 $236 forward 7 unknown #
face $-1 $237 $238 $32 $-1 $239 reversed single #
loop $-1 $-1 $240 $94 #
plane-surface $-1 -105.6604700511928 21.769616417244869 89.19580945132499 0 -1 0 0.52991927123019833 0 -0.84804809178421925 forward_v I I I I #
coedge $-1 $241 $242 $243 $244 reversed $95 $-1 #
coedge $-1 $156 $97 $245 $246 reversed $61 $-1 #
coedge $-1 $97 $155 $241 $247 reversed $61 $-1 #
coedge $-1 $243 $248 $97 $158 forward $249 $-1 #
edge $-1 $250 1.534724298340322 $251 9.3569766493015507 $157 $252 forward 7 unknown #
loop $-1 $-1 $164 $98 #
plane-surface $-1 -51.29551072725608 13.880547669405086 2.1936894726320588 -0.52991927123019833 0 0.84804809178421925 0.84804809178421925 0 0.52991927123019833 forward_v I I I I #
loop $-1 $-1 $253 $63 #
coedge $-1 $162 $162 $163 $254 reversed $99 $-1 #
coedge $-1 $163 $163 $162 $254 forward $101 $-1 #
coedge $-1 $164 $164 $102 $165 forward $159 $-1 #
edge $-1 $255 0 $255 6.2831853071796004 $164 $256 forward 7 unknown #
loop $-1 $-1 $171 $103 #
plane-surface $-1 -51.29551072725608 13.880547669405086 2.1936894726320588 -0.52991927123019833 0 0.84804809178421925 0.84804809178421925 0 0.52991927123019833 forward_v I I I I #
loop $-1 $-1 $257 $66 #
coedge $-1 $169 $169 $170 $258 reversed $104 $-1 #
coedge $-1 $170 $170 $169 $258 forward $106 $-1 #
coedge $-1 $171 $171 $107 $172 forward $166 $-1 #
edge $-1 $259 0 $259 6.2831853071796004 $171 $260 forward 7 unknown #
loop $-1 $-1 $178 $108 #
plane-surface $-1 -51.29551072725608 13.880547669405086 2.1936894726320588 -0.52991927123019833 0 0.84804809178421925 0.84804809178421925 0 0.52991927123019833 forward_v I I I I #
loop $-1 $-1 $261 $69 #
coedge $-1 $176 $176 $177 $262 reversed $109 $-1 #
coedge $-1 $177 $177 $176 $262 forward $111 $-1 #
coedge $-1 $178 $178 $112 $179 forward $173 $-1 #
edge $-1 $263 0 $263 6.2831853071796004 $178 $264 forward 7 unknown #
face $-1 $265 $266 $27 $-1 $267 reversed single #
loop $-1 $-1 $268 $113 #
plane-surface $-1 -51.29551072725608 0 0 1 0 0 0 0 -1 forward_v I I I I #
coedge $-1 $269 $191 $270 $271 forward $114 $-1 #
coedge $-1 $272 $116 $269 $273 forward $73 $-1 #
coedge $-1 $116 $272 $274 $275 forward $73 $-1 #
coedge $-1 $194 $193 $116 $187 reversed $195 $-1 #
edge $-1 $276 -31.344316964794221 $277 31.344316964794221 $186 $278 forward 7 unknown #
coedge $-1 $118 $117 $279 $280 forward $46 $-1 #
coedge $-1 $281 $282 $117 $190 reversed $266 $-1 #
edge $-1 $197 -51.29551072725608 $283 51.29551072725608 $189 $284 forward 7 unknown #
coedge $-1 $183 $285 $118 $192 reversed $114 $-1 #
edge $-1 $286 -51.29551072725608 $196 51.29551072725608 $191 $287 forward 7 unknown #
coedge $-1 $186 $119 $285 $288 forward $195 $-1 #
coedge $-1 $119 $186 $281 $289 reversed $195 $-1 #
loop $-1 $-1 $193 $265 #
vertex $-1 $120 $290 #
vertex $-1 $120 $291 #
straight-curve $-1 51.29551072725608 0 7.081575319387543 0 1 0 I I #
face $-1 $292 $293 $28 $-1 $294 reversed single #
loop $-1 $-1 $295 $121 #
plane-surface $-1 -51.29551072725608 0 0 1 0 0 0 0 -1 forward_v I I I I #
coedge $-1 $210 $296 $204 $297 forward $122 $-1 #
coedge $-1 $127 $124 $298 $299 reversed $77 $-1 #
coedge $-1 $124 $127 $202 $297 reversed $77 $-1 #
coedge $-1 $300 $301 $124 $206 forward $302 $-1 #
edge $-1 $303 -7.081575319387543 $304 7.081575319387543 $205 $305 forward 7 unknown #
coedge $-1 $126 $125 $295 $306 reversed $49 $-1 #
coedge $-1 $298 $307 $125 $209 forward $293 $-1 #
edge $-1 $308 -26.39775536362804 $213 -23.39775536362804 $208 $309 forward 7 unknown #
coedge $-1 $310 $202 $126 $211 forward $122 $-1 #
edge $-1 $212 23.39775536362804 $311 26.39775536362804 $210 $312 forward 7 unknown #
vertex $-1 $211 $313 #
vertex $-1 $209 $314 #
straight-curve $-1 -48.29551072725608 -25.74033080317599 0 0 0 -1 I I #
face $-1 $-1 $315 $29 $-1 $316 forward single #
loop $-1 $-1 $317 $129 #
plane-surface $-1 0 31.344316964794221 0 0 -1 0 0 0 -1 forward_v I I I I #
coedge $-1 $318 $132 $134 $224 forward $81 $-1 #
coedge $-1 $132 $318 $317 $319 reversed $81 $-1 #
coedge $-1 $320 $135 $132 $221 forward $130 $-1 #
edge $-1 $227 3.1970974536367596 $321 19.830512158650563 $220 $322 forward 7 unknown #
coedge $-1 $323 $324 $133 $223 forward $315 $-1 #
edge $-1 $325 20.875023731479896 $226 26.913801091931557 $222 $326 forward 7 unknown #
edge $-1 $227 -102.59102145451214 $325 -94.196132941786544 $134 $327 forward 7 unknown #
coedge $-1 $135 $320 $323 $328 reversed $130 $-1 #
vertex $-1 $328 $329 #
vertex $-1 $136 $330 #
straight-curve $-1 51.29551072725608 14.710902259780418 73.156756191056374 0 0 -1 I I #
coedge $-1 $229 $229 $-1 $331 reversed $139 $-1 #
edge $-1 $332 0 $332 6.2831853071796004 $140 $333 forward 7 unknown #
vertex $-1 $143 $334 #
ellipse-curve $-1 48.276122047030242 19.463306461212927 4.165785497915973 0.69465837861970381 0 0.71933979245794832 1.0790096886869225 0 -1.0419875679295556 1 I I #
coedge $-1 $233 $233 $-1 $335 reversed $146 $-1 #
edge $-1 $336 0 $336 6.2831853071796004 $147 $337 forward 7 unknown #
vertex $-1 $150 $338 #
ellipse-curve $-1 48.276122047030242 26.591912763361702 4.165785497915973 0.69465837861970381 0 0.71933979245794832 1.0790096886869225 0 -1.0419875679295556 1 I I #
face $-1 $-1 $249 $32 $-1 $339 forward single #
loop $-1 $-1 $340 $151 #
plane-surface $-1 -51.29551072725608 0 0 1 0 0 0 0 -1 forward_v I I I I #
coedge $-1 $341 $342 $343 $344 reversed $152 $-1 #
coedge $-1 $345 $154 $156 $247 forward $95 $-1 #
coedge $-1 $154 $345 $341 $346 forward $95 $-1 #
coedge $-1 $343 $157 $154 $244 forward $249 $-1 #
edge $-1 $251 -0.94879491313723996 $347 14.829342582542326 $243 $348 forward 7 unknown #
coedge $-1 $349 $350 $155 $246 forward $238 $-1 #
edge $-1 $351 -42.404215253030436 $250 -37.516329406274949 $245 $352 forward 7 unknown #
edge $-1 $251 -9.2238310854563608 $351 0 $156 $353 forward 7 unknown #
coedge $-1 $157 $343 $349 $354 forward $249 $-1 #
loop $-1 $-1 $343 $237 #
vertex $-1 $246 $355 #
vertex $-1 $158 $356 #
straight-curve $-1 -52.830235025596401 5.991478921565303 7.0815753193875395 1 0 0 I I #
coedge $-1 $253 $253 $-1 $357 reversed $161 $-1 #
edge $-1 $358 0 $358 6.2831853071796004 $162 $359 forward 7 unknown #
vertex $-1 $165 $360 #
ellipse-curve $-1 -47.384384551775462 9.1471064207012169 4.6376323960098045 -0.52991927123019833 0 0.84804809178421925 1.2720721376763289 0 0.79487890684529749 1 I I #
coedge $-1 $257 $257 $-1 $361 reversed $168 $-1 #
edge $-1 $362 0 $362 6.2831853071796004 $169 $363 forward 7 unknown #
vertex $-1 $172 $364 #
ellipse-curve $-1 -47.384384551775462 13.880547669405086 4.6376323960098045 -0.52991927123019833 0 0.84804809178421925 1.2720721376763289 0 0.79487890684529749 1 I I #
coedge $-1 $261 $261 $-1 $365 reversed $175 $-1 #
edge $-1 $366 0 $366 6.2831853071796004 $176 $367 forward 7 unknown #
vertex $-1 $179 $368 #
ellipse-curve $-1 -47.384384551775462 18.613988918108955 4.6376323960098045 -0.52991927123019833 0 0.84804809178421925 1.2720721376763289 0 0.79487890684529749 1 I I #
face $-1 $-1 $195 $27 $-1 $369 reversed single #
loop $-1 $-1 $281 $180 #
plane-surface $-1 0 31.344316964794221 0 0 -1 0 0 0 -1 forward_v I I I I #
coedge $-1 $370 $279 $282 $371 forward $181 $-1 #
coedge $-1 $285 $183 $184 $273 reversed $114 $-1 #
coedge $-1 $279 $370 $183 $271 reversed $181 $-1 #
edge $-1 $286 -7.081575319387543 $372 7.081575319387543 $270 $373 forward 7 unknown #
coedge $-1 $185 $184 $370 $374 forward $73 $-1 #
edge $-1 $277 -51.29551072725608 $372 51.29551072725608 $269 $375 forward 7 unknown #
coedge $-1 $282 $281 $185 $275 reversed $266 $-1 #
edge $-1 $376 -51.29551072725608 $276 51.29551072725608 $274 $377 forward 7 unknown #
vertex $-1 $187 $378 #
vertex $-1 $288 $379 #
straight-curve $-1 51.29551072725608 0 -7.081575319387543 0 -1 0 I I #
coedge $-1 $268 $270 $188 $280 reversed $181 $-1 #
edge $-1 $283 -31.344316964794221 $286 31.344316964794221 $279 $380 forward 7 unknown #
coedge $-1 $274 $189 $194 $289 forward $266 $-1 #
coedge $-1 $189 $274 $268 $371 reversed $266 $-1 #
vertex $-1 $190 $381 #
straight-curve $-1 0 31.344316964794221 7.081575319387543 -1 0 0 I I #
coedge $-1 $191 $269 $193 $288 reversed $114 $-1 #
vertex $-1 $280 $382 #
straight-curve $-1 0 -31.344316964794221 7.081575319387543 1 0 0 I I #
edge $-1 $196 -7.081575319387543 $277 7.081575319387543 $193 $383 forward 7 unknown #
edge $-1 $197 -7.081575319387543 $276 7.081575319387543 $194 $384 forward 7 unknown #
point $-1 51.29551072725608 -31.344316964794221 7.081575319387543 #
point $-1 51.29551072725608 31.344316964794221 7.081575319387543 #
face $-1 $-1 $302 $28 $-1 $385 reversed single #
loop $-1 $-1 $298 $199 #
plane-surface $-1 0 0 -7.081575319387543 0 0 1 1 0 0 forward_v I I I I #
coedge $-1 $386 $387 $207 $306 forward $200 $-1 #
coedge $-1 $202 $310 $300 $388 forward $122 $-1 #
edge $-1 $304 -17.073155022801668 $212 -11.469168861183437 $202 $389 forward 7 unknown #
coedge $-1 $390 $208 $203 $299 forward $293 $-1 #
edge $-1 $213 11.469168861183437 $303 17.073155022801668 $298 $391 forward 7 unknown #
coedge $-1 $392 $205 $296 $388 reversed $302 $-1 #
coedge $-1 $205 $392 $390 $393 reversed $302 $-1 #
loop $-1 $-1 $205 $292 #
vertex $-1 $393 $394 #
vertex $-1 $206 $395 #
straight-curve $-1 -48.29551072725608 -31.344316964794221 0 0 0 1 I I #
edge $-1 $311 -7.081575319387543 $308 7.081575319387543 $295 $396 forward 7 unknown #
coedge $-1 $208 $390 $386 $397 forward $293 $-1 #
vertex $-1 $209 $398 #
straight-curve $-1 -24.89775536362804 -25.74033080317599 -7.081575319387543 1 0 0 I I #
coedge $-1 $296 $210 $387 $399 forward $122 $-1 #
vertex $-1 $399 $400 #
straight-curve $-1 -24.89775536362804 -25.74033080317599 7.081575319387543 -1 0 0 I I #
point $-1 -48.29551072725608 -25.74033080317599 7.081575319387543 #
point $-1 -48.29551072725608 -25.74033080317599 -7.081575319387543 #
loop $-1 $-1 $222 $215 #
plane-surface $-1 0 0 7.081575319387543 0 0 1 1 0 0 forward_v I I I I #
coedge $-1 $401 $402 $219 $319 forward $216 $-1 #
coedge $-1 $219 $218 $324 $403 reversed $81 $-1 #
edge $-1 $321 -69.310801762600249 $404 -60.915913249874635 $317 $405 forward 7 unknown #
coedge $-1 $225 $220 $402 $406 reversed $130 $-1 #
vertex $-1 $319 $407 #
straight-curve $-1 51.295510727256072 11.513804806143659 1.249995676444378 0 1 0 I I #
coedge $-1 $408 $222 $225 $328 forward $315 $-1 #
coedge $-1 $222 $408 $318 $403 forward $315 $-1 #
vertex $-1 $223 $409 #
straight-curve $-1 24.381709635324523 14.710902259780418 7.0815753193875395 1 0 0 I I #
straight-curve $-1 -22.502293353881619 14.710902259780418 72.515708300975049 -0.71933979245794832 0 0.69465837861970381 I I #
edge $-1 $226 14.710902259780418 $410 31.344316964794221 $225 $411 forward 7 unknown #
point $-1 51.29551072725608 14.710902259780418 7.081575319387543 #
point $-1 51.29551072725608 14.710902259780418 1.2499956764443851 #
edge $-1 $412 1 $412 0 $229 $-1 forward 7 unknown #
vertex $-1 $230 $413 #
ellipse-curve $-1 46.265064098990067 19.463306461212927 2.0832740772107203 0.69465837861970381 0 0.71933979245794832 1.0790096886869225 0 -1.0419875679295556 1 I I #
point $-1 49.355131735717187 19.463306461212927 3.1237979299864369 #
edge $-1 $414 1 $414 0 $233 $-1 forward 7 unknown #
vertex $-1 $234 $415 #
ellipse-curve $-1 46.265064098990067 26.591912763361702 2.0832740772107203 0.69465837861970381 0 0.71933979245794832 1.0790096886869225 0 -1.0419875679295556 1 I I #
point $-1 49.355131735717187 26.591912763361702 3.1237979299864369 #
plane-surface $-1 0 0 7.081575319387543 0 0 1 1 0 0 forward_v I I I I #
coedge $-1 $350 $349 $342 $416 forward $238 $-1 #
coedge $-1 $342 $240 $242 $346 reversed $152 $-1 #
coedge $-1 $240 $341 $340 $416 reversed $152 $-1 #
coedge $-1 $248 $243 $240 $344 forward $249 $-1 #
edge $-1 $347 -9.3569766493015507 $417 -1.534724298340322 $343 $418 forward 7 unknown #
coedge $-1 $242 $241 $350 $419 reversed $95 $-1 #
edge $-1 $420 0 $347 9.2238310854563608 $341 $421 forward 7 unknown #
vertex $-1 $244 $422 #
straight-curve $-1 -43.473258376294851 6.940273834702543 7.0815753193875421 0 1 0 I I #
coedge $-1 $340 $245 $248 $354 reversed $238 $-1 #
coedge $-1 $245 $340 $345 $419 forward $238 $-1 #
vertex $-1 $246 $423 #
straight-curve $-1 -51.29551072725608 5.991478921565303 44.597904725662495 0 0 1 I I #
straight-curve $-1 -51.29551072725608 5.991478921565303 2.1936894726320588 -0.84804809178421925 0 -0.52991927123019833 I I #
edge $-1 $417 -21.769616417244869 $250 -5.991478921565303 $349 $424 forward 7 unknown #
point $-1 -51.29551072725608 5.991478921565303 7.081575319387543 #
point $-1 -43.473258376294851 5.991478921565303 7.081575319387543 #
edge $-1 $425 1 $425 0 $253 $-1 forward 7 unknown #
vertex $-1 $254 $426 #
ellipse-curve $-1 -45.132902844505153 9.1471064207012169 1.0345085445123878 -0.52991927123019833 0 0.84804809178421925 1.2720721376763289 0 0.79487890684529749 1 I I #
point $-1 -46.112312414099122 9.1471064207012169 5.4325113028550893 #
edge $-1 $427 1 $427 0 $257 $-1 forward 7 unknown #
vertex $-1 $258 $428 #
ellipse-curve $-1 -45.132902844505153 13.880547669405086 1.0345085445123878 -0.52991927123019833 0 0.84804809178421925 1.2720721376763289 0 0.79487890684529749 1 I I #
point $-1 -46.112312414099122 13.880547669405086 5.4325113028550893 #
edge $-1 $429 1 $429 0 $261 $-1 forward 7 unknown #
vertex $-1 $262 $430 #
ellipse-curve $-1 -45.132902844505153 18.613988918108955 1.0345085445123878 -0.52991927123019833 0 0.84804809178421925 1.2720721376763289 0 0.79487890684529749 1 I I #
point $-1 -46.112312414099122 18.613988918108955 5.4325113028550893 #
plane-surface $-1 51.29551072725608 0 0 -1 0 0 0 0 1 forward_v I I I I #
coedge $-1 $270 $268 $272 $374 reversed $181 $-1 #
edge $-1 $283 -7.081575319387543 $376 7.081575319387543 $282 $431 forward 7 unknown #
vertex $-1 $374 $432 #
straight-curve $-1 -51.29551072725608 -31.344316964794221 0 0 0 -1 I I #
edge $-1 $372 -31.344316964794221 $376 31.344316964794221 $370 $433 forward 7 unknown #
straight-curve $-1 0 -31.344316964794221 -7.081575319387543 -1 0 0 I I #
vertex $-1 $275 $434 #
straight-curve $-1 0 31.344316964794221 -7.081575319387543 1 0 0 I I #
point $-1 51.29551072725608 31.344316964794221 -7.081575319387543 #
point $-1 51.29551072725608 -31.344316964794221 -7.081575319387543 #
straight-curve $-1 -51.29551072725608 0 7.081575319387543 0 -1 0 I I #
point $-1 -51.29551072725608 31.344316964794221 7.081575319387543 #
point $-1 -51.29551072725608 -31.344316964794221 7.081575319387543 #
straight-curve $-1 51.29551072725608 -31.344316964794221 0 0 0 -1 I I #
straight-curve $-1 51.29551072725608 31.344316964794221 0 0 0 -1 I I #
plane-surface $-1 0 -31.344316964794221 0 0 1 0 0 0 1 forward_v I I I I #
coedge $-1 $435 $295 $307 $397 reversed $200 $-1 #
coedge $-1 $295 $435 $310 $399 reversed $200 $-1 #
edge $-1 $436 -51.29551072725608 $304 -48.29551072725608 $300 $437 forward 7 unknown #
straight-curve $-1 -48.29551072725608 -14.271161941992553 7.081575319387543 0 1 0 I I #
coedge $-1 $307 $298 $301 $393 forward $293 $-1 #
straight-curve $-1 -48.29551072725608 -14.271161941992553 -7.081575319387543 0 -1 0 I I #
coedge $-1 $301 $300 $435 $438 forward $302 $-1 #
edge $-1 $303 48.29551072725608 $439 51.29551072725608 $301 $440 forward 7 unknown #
point $-1 -48.29551072725608 -31.344316964794221 -7.081575319387543 #
point $-1 -48.29551072725608 -31.344316964794221 7.081575319387543 #
straight-curve $-1 -51.29551072725608 -25.74033080317599 0 0 0 -1 I I #
edge $-1 $439 -31.344316964794221 $308 -25.74033080317599 $386 $441 forward 7 unknown #
point $-1 -51.29551072725608 -25.74033080317599 -7.081575319387543 #
edge $-1 $311 25.74033080317599 $436 31.344316964794221 $387 $442 forward 7 unknown #
point $-1 -51.29551072725608 -25.74033080317599 7.081575319387543 #
coedge $-1 $402 $317 $408 $443 reversed $216 $-1 #
coedge $-1 $317 $401 $320 $406 forward $216 $-1 #
edge $-1 $404 -19.830512158650556 $325 -3.1970974536367596 $324 $444 forward 7 unknown #
vertex $-1 $319 $445 #
straight-curve $-1 1.4374929722532119 31.344316964794221 49.39732484968399 -0.71933979245794832 0 0.69465837861970381 I I #
edge $-1 $410 -7.081575319387543 $321 -1.2499956764443878 $320 $446 forward 7 unknown #
point $-1 51.29551072725608 31.344316964794221 1.2499956764443878 #
coedge $-1 $324 $323 $401 $443 forward $315 $-1 #
point $-1 45.256733366804418 14.710902259780418 7.0815753193875395 #
vertex $-1 $328 $447 #
straight-curve $-1 51.29551072725608 0 7.081575319387543 0 1 0 I I #
vertex $-1 $331 $448 #
point $-1 47.34407378767699 19.463306461212927 1.0412865092811647 #
vertex $-1 $335 $449 #
point $-1 47.34407378767699 26.591912763361702 1.0412865092811647 #
edge $-1 $417 37.516329406274949 $420 42.404215253030436 $340 $450 forward 7 unknown #
vertex $-1 $354 $451 #
straight-curve $-1 -52.830235025596401 21.769616417244869 7.0815753193875395 -1 0 0 I I #
edge $-1 $420 -14.829342582542326 $351 0.94879491313723996 $350 $452 forward 7 unknown #
vertex $-1 $419 $453 #
straight-curve $-1 -51.29551072725608 21.769616417244869 2.1936894726320588 0.84804809178421925 0 0.52991927123019833 I I #
point $-1 -43.473258376294851 21.769616417244869 7.081575319387543 #
point $-1 -51.29551072725608 5.991478921565303 2.1936894726320588 #
straight-curve $-1 -51.29551072725608 0 7.081575319387543 0 -1 0 I I #
vertex $-1 $357 $454 #
point $-1 -43.860830706828821 9.1471064207012169 1.8293874513576855 #
vertex $-1 $361 $455 #
point $-1 -43.860830706828821 13.880547669405086 1.8293874513576855 #
vertex $-1 $365 $456 #
point $-1 -43.860830706828821 18.613988918108955 1.8293874513576855 #
straight-curve $-1 -51.29551072725608 31.344316964794221 0 0 0 -1 I I #
point $-1 -51.29551072725608 -31.344316964794221 -7.081575319387543 #
straight-curve $-1 -51.29551072725608 0 -7.081575319387543 0 1 0 I I #
point $-1 -51.29551072725608 31.344316964794221 -7.081575319387543 #
coedge $-1 $387 $386 $392 $438 reversed $200 $-1 #
vertex $-1 $399 $457 #
straight-curve $-1 0 -31.344316964794221 7.081575319387543 1 0 0 I I #
edge $-1 $436 -7.081575319387543 $439 7.081575319387543 $435 $458 forward 7 unknown #
vertex $-1 $397 $459 #
straight-curve $-1 0 -31.344316964794221 -7.081575319387543 -1 0 0 I I #
straight-curve $-1 -51.29551072725608 0 -7.081575319387543 0 1 0 I I #
straight-curve $-1 -51.29551072725608 0 7.081575319387543 0 -1 0 I I #
edge $-1 $410 -51.29551072725608 $404 -45.256733366804418 $401 $460 forward 7 unknown #
straight-curve $-1 45.256733366804411 11.513804806143659 7.0815753193875466 0 -1 0 I I #
point $-1 45.256733366804418 31.344316964794217 7.0815753193875395 #
straight-curve $-1 51.29551072725608 31.344316964794221 0 0 0 -1 I I #
point $-1 51.29551072725608 31.344316964794221 7.081575319387543 #
point $-1 45.223076531060514 19.463306461212927 1.0042643885237976 #
point $-1 45.223076531060514 26.591912763361702 1.0042643885237976 #
straight-curve $-1 -51.29551072725608 21.769616417244869 44.597904725662495 0 0 -1 I I #
point $-1 -51.29551072725608 21.769616417244869 7.081575319387543 #
straight-curve $-1 -51.29551072725608 6.940273834702543 2.1936894726320588 0 -1 0 I I #
point $-1 -51.29551072725608 21.769616417244869 2.1936894726320588 #
point $-1 -44.338023937659855 9.1471064207012169 -0.23756359316394093 #
point $-1 -44.338023937659855 13.880547669405086 -0.23756359316394093 #
point $-1 -44.338023937659855 18.613988918108955 -0.23756359316394093 #
point $-1 -51.29551072725608 -31.344316964794221 7.081575319387543 #
straight-curve $-1 -51.29551072725608 -31.344316964794221 0 0 0 -1 I I #
point $-1 -51.29551072725608 -31.344316964794221 -7.081575319387543 #
straight-curve $-1 0 31.344316964794221 7.081575319387543 -1 0 0 I I #
End-of-ACIS-data 