500 0 8 0           
7 Unknown 11 ACIS 5.0 NT 24 Fri Mar 26 20:37:56 1999 
-1 9.9999999999999995e-007 1e-010 
body $-1 $8 $-1 $9 #
body $-1 $10 $-1 $11 #
body $-1 $12 $-1 $13 #
body $-1 $14 $-1 $15 #
body $-1 $16 $-1 $17 #
body $-1 $18 $-1 $19 #
body $-1 $20 $-1 $21 #
body $-1 $22 $-1 $23 #
lump $-1 $-1 $24 $0 #
transform $-1 1 0 0 0 1 0 0 0 1 67.744987334818575 46.44212773520605 11.119776395353835 1 rotate no_reflect no_shear #
lump $-1 $-1 $25 $1 #
transform $-1 1 0 0 0 1 0 0 0 1 67.744987334818575 46.44212773520605 11.119776395353835 1 rotate no_reflect no_shear #
lump $-1 $-1 $26 $2 #
transform $-1 1 0 0 0 1 0 0 0 1 67.744987334818575 46.44212773520605 11.119776395353835 1 rotate no_reflect no_shear #
lump $-1 $-1 $27 $3 #
transform $-1 1 0 0 0 1 0 0 0 1 67.744987334818575 46.44212773520605 11.119776395353835 1 rotate no_reflect no_shear #
lump $-1 $-1 $28 $4 #
transform $-1 1 0 0 0 1 0 0 0 1 67.744987334818575 46.44212773520605 11.119776395353835 1 rotate no_reflect no_shear #
lump $-1 $-1 $29 $5 #
transform $-1 1 0 0 0 1 0 0 0 1 67.744987334818575 46.44212773520605 11.119776395353835 1 rotate no_reflect no_shear #
lump $-1 $-1 $30 $6 #
transform $-1 1 0 0 0 1 0 0 0 1 67.744987334818575 46.44212773520605 11.119776395353835 1 rotate no_reflect no_shear #
lump $-1 $-1 $31 $7 #
transform $-1 1 0 0 0 1 0 0 0 1 67.744987334818575 46.44212773520605 11.119776395353835 1 rotate no_reflect no_shear #
shell $-1 $-1 $-1 $32 $-1 $8 #
shell $-1 $-1 $-1 $33 $-1 $10 #
shell $-1 $-1 $-1 $34 $-1 $12 #
shell $-1 $-1 $-1 $35 $-1 $14 #
shell $-1 $-1 $-1 $36 $-1 $16 #
shell $-1 $-1 $-1 $37 $-1 $18 #
shell $-1 $-1 $-1 $38 $-1 $20 #
shell $-1 $-1 $-1 $39 $-1 $22 #
face $-1 $40 $41 $24 $-1 $42 forward single #
face $-1 $43 $44 $25 $-1 $45 forward single #
face $-1 $46 $47 $26 $-1 $48 forward single #
face $-1 $49 $50 $27 $-1 $51 reversed single #
face $-1 $52 $53 $28 $-1 $54 forward single #
face $-1 $55 $56 $29 $-1 $57 forward single #
face $-1 $58 $59 $30 $-1 $60 reversed single #
face $-1 $61 $62 $31 $-1 $63 forward single #
face $-1 $64 $65 $24 $-1 $66 reversed single #
loop $-1 $-1 $67 $32 #
plane-surface $-1 0 0 11.119776395353835 0 0 1 1 0 0 forward_v I I I I #
face $-1 $68 $69 $25 $-1 $70 reversed single #
loop $-1 $-1 $71 $33 #
plane-surface $-1 0 -46.44212773520605 0 0 1 0 0 0 1 forward_v I I I I #
face $-1 $72 $73 $26 $-1 $74 reversed single #
loop $-1 $-1 $75 $34 #
plane-surface $-1 0 46.44212773520605 0 0 -1 0 0 0 -1 forward_v I I I I #
face $-1 $76 $77 $27 $-1 $78 reversed single #
loop $-1 $-1 $79 $35 #
plane-surface $-1 57.716804733384464 4.0548110629421714 198.28741203137594 0 -1 0 -0.66913061440640931 0 -0.74314481823134659 forward_v I I I I #
face $-1 $80 $81 $28 $-1 $82 forward single #
loop $-1 $83 $84 $36 #
cone-surface $-1 64.894829680514462 -9.4401665243242689 8.4424655642790629 -0.66913061440640931 0 -0.74314481823134659 1.1147172273470198 0 -1.003695921609614 1 I I 0 1 1.5 forward I I I I #
face $-1 $85 $86 $29 $-1 $87 forward single #
loop $-1 $88 $89 $37 #
cone-surface $-1 64.894829680514462 -1.3431799719644104 8.4424655642790629 -0.66913061440640931 0 -0.74314481823134659 1.1147172273470198 0 -1.003695921609614 1 I I 0 1 1.5 forward I I I I #
face $-1 $90 $91 $30 $-1 $92 reversed single #
loop $-1 $-1 $93 $38 #
plane-surface $-1 -163.55086831810524 -17.491873323326846 101.39310366277908 0 1 0 -0.70710678939079041 0 0.70710677298230451 forward_v I I I I #
face $-1 $94 $95 $31 $-1 $96 forward single #
loop $-1 $97 $98 $39 #
cone-surface $-1 -63.278651443675209 -11.358358427799423 6.653440479468828 0.70710678939079041 0 -0.70710677298230451 1.0606601594734568 0 1.0606601840861856 1 I I 0 1 1.5 forward I I I I #
face $-1 $99 $100 $24 $-1 $101 reversed single #
loop $-1 $-1 $102 $40 #
plane-surface $-1 0 0 -11.119776395353835 0 0 1 1 0 0 forward_v I I I I #
coedge $-1 $103 $104 $105 $106 forward $41 $-1 #
face $-1 $107 $108 $25 $-1 $109 forward single #
loop $-1 $-1 $110 $43 #
plane-surface $-1 -67.744987334818575 0 0 1 0 0 0 0 -1 forward_v I I I I #
coedge $-1 $111 $112 $113 $114 forward $44 $-1 #
face $-1 $115 $116 $26 $-1 $117 forward single #
loop $-1 $-1 $118 $46 #
plane-surface $-1 67.744987334818575 0 0 -1 0 0 0 0 1 forward_v I I I I #
coedge $-1 $119 $120 $121 $122 forward $47 $-1 #
face $-1 $123 $124 $27 $-1 $125 reversed single #
loop $-1 $-1 $126 $49 #
plane-surface $-1 -32.943685263218683 -5.3916732481443361 97.598739433338679 0.66913061440640931 0 0.74314481823134659 0.74314481823134659 0 -0.66913061440640931 forward_v I I I I #
coedge $-1 $127 $128 $129 $130 reversed $50 $-1 #
face $-1 $-1 $131 $28 $-1 $132 forward single #
loop $-1 $133 $134 $52 #
cone-surface $-1 63.864852100506425 -9.4401665243242689 7.2985595988399474 -0.66913061440640931 0 -0.74314481823134659 0.55735861367350992 0 -0.50184796080480698 1 I I -0.70710678118654791 0.70710678118654702 0.75 forward I I I I #
loop $-1 $-1 $135 $36 #
coedge $-1 $84 $84 $136 $137 reversed $53 $-1 #
face $-1 $-1 $138 $29 $-1 $139 forward single #
loop $-1 $140 $141 $55 #
cone-surface $-1 63.864852100506425 -1.3431799719644104 7.2985595988399474 -0.66913061440640931 0 -0.74314481823134659 0.55735861367350992 0 -0.50184796080480698 1 I I -0.70710678118654791 0.70710678118654702 0.75 forward I I I I #
loop $-1 $-1 $142 $37 #
coedge $-1 $89 $89 $143 $144 reversed $56 $-1 #
face $-1 $145 $146 $30 $-1 $147 reversed single #
loop $-1 $-1 $148 $58 #
plane-surface $-1 -67.744987334818603 -11.358358427799423 5.5872249026777752 -0.70710678939079041 0 0.70710677298230451 0.70710677298230451 0 0.70710678939079041 forward_v I I I I #
coedge $-1 $149 $150 $151 $152 reversed $59 $-1 #
face $-1 $-1 $153 $31 $-1 $154 forward single #
loop $-1 $155 $156 $61 #
cone-surface $-1 -61.048261142635063 -11.358358427799423 4.4230502301851171 0.70710678939079041 0 -0.70710677298230451 0.53033007973672841 0 0.53033009204309278 1 I I -0.70710678118654757 0.70710678118654757 0.75 forward I I I I #
loop $-1 $-1 $157 $39 #
coedge $-1 $98 $98 $158 $159 reversed $62 $-1 #
face $-1 $160 $161 $24 $-1 $162 reversed single #
loop $-1 $-1 $163 $64 #
plane-surface $-1 0 -46.44212773520605 0 0 1 0 0 0 1 forward_v I I I I #
coedge $-1 $164 $165 $166 $167 forward $65 $-1 #
coedge $-1 $168 $67 $169 $170 forward $41 $-1 #
coedge $-1 $67 $168 $171 $172 forward $41 $-1 #
coedge $-1 $173 $174 $67 $106 reversed $175 $-1 #
edge $-1 $176 -46.44212773520605 $177 46.44212773520605 $105 $178 forward 7 unknown #
face $-1 $179 $180 $25 $-1 $181 reversed single #
loop $-1 $-1 $182 $68 #
plane-surface $-1 0 -51.683188151168594 -0.50135547918987067 0 0 1 1 0 0 forward_v I I I I #
coedge $-1 $183 $184 $112 $185 forward $69 $-1 #
coedge $-1 $186 $71 $187 $188 reversed $44 $-1 #
coedge $-1 $71 $186 $110 $185 reversed $44 $-1 #
coedge $-1 $189 $182 $71 $114 reversed $108 $-1 #
edge $-1 $190 -67.744987334818575 $191 67.744987334818575 $113 $192 forward 7 unknown #
face $-1 $193 $194 $26 $-1 $195 reversed single #
loop $-1 $-1 $196 $72 #
plane-surface $-1 0 51.683188151168586 -0.50135547918987067 0 0 1 1 0 0 forward_v I I I I #
coedge $-1 $197 $198 $120 $199 forward $73 $-1 #
coedge $-1 $200 $75 $201 $202 reversed $47 $-1 #
coedge $-1 $75 $200 $118 $199 reversed $47 $-1 #
coedge $-1 $196 $203 $75 $122 reversed $116 $-1 #
edge $-1 $204 -67.744987334818575 $205 67.744987334818575 $121 $206 forward 7 unknown #
face $-1 $207 $208 $27 $-1 $209 forward single #
loop $-1 $-1 $210 $76 #
plane-surface $-1 57.716804733384464 -14.838157559230844 198.28741203137594 0 1 0 0.66913061440640931 0 0.74314481823134659 forward_v I I I I #
coedge $-1 $211 $212 $213 $214 reversed $77 $-1 #
coedge $-1 $128 $79 $215 $216 reversed $50 $-1 #
coedge $-1 $79 $127 $211 $217 reversed $50 $-1 #
coedge $-1 $213 $218 $79 $130 forward $208 $-1 #
edge $-1 $219 -38.886584968126343 $220 -34.242528897924657 $129 $221 forward 7 unknown #
loop $-1 $-1 $136 $80 #
plane-surface $-1 -32.943685263218683 -5.3916732481443361 97.598739433338679 0.66913061440640931 0 0.74314481823134659 0.74314481823134659 0 -0.66913061440640931 forward_v I I I I #
loop $-1 $-1 $222 $52 #
coedge $-1 $134 $134 $135 $223 reversed $81 $-1 #
coedge $-1 $135 $135 $134 $223 forward $83 $-1 #
coedge $-1 $136 $136 $84 $137 forward $131 $-1 #
edge $-1 $224 0 $224 6.2831853071796004 $136 $225 forward 7 unknown #
loop $-1 $-1 $143 $85 #
plane-surface $-1 -32.943685263218683 -5.3916732481443361 97.598739433338679 0.66913061440640931 0 0.74314481823134659 0.74314481823134659 0 -0.66913061440640931 forward_v I I I I #
loop $-1 $-1 $226 $55 #
coedge $-1 $141 $141 $142 $227 reversed $86 $-1 #
coedge $-1 $142 $142 $141 $227 forward $88 $-1 #
coedge $-1 $143 $143 $89 $144 forward $138 $-1 #
edge $-1 $228 0 $228 6.2831853071796004 $143 $229 forward 7 unknown #
face $-1 $230 $231 $30 $-1 $232 reversed single #
loop $-1 $-1 $233 $90 #
plane-surface $-1 -163.55086831810524 -5.2248435322720006 101.39310366277908 0 -1 0 0.70710678939079041 0 -0.70710677298230451 forward_v I I I I #
coedge $-1 $234 $235 $236 $237 reversed $91 $-1 #
coedge $-1 $150 $93 $238 $239 reversed $59 $-1 #
coedge $-1 $93 $149 $234 $240 reversed $59 $-1 #
coedge $-1 $236 $241 $93 $152 forward $242 $-1 #
edge $-1 $243 14.030446824234048 $244 19.562998188526649 $151 $245 forward 7 unknown #
loop $-1 $-1 $158 $94 #
plane-surface $-1 -67.744987334818603 -11.358358427799423 5.5872249026777752 -0.70710678939079041 0 0.70710677298230451 0.70710677298230451 0 0.70710678939079041 forward_v I I I I #
loop $-1 $-1 $246 $61 #
coedge $-1 $156 $156 $157 $247 reversed $95 $-1 #
coedge $-1 $157 $157 $156 $247 forward $97 $-1 #
coedge $-1 $158 $158 $98 $159 forward $153 $-1 #
edge $-1 $248 0 $248 6.2831853071796004 $158 $249 forward 7 unknown #
face $-1 $250 $251 $24 $-1 $252 reversed single #
loop $-1 $-1 $253 $99 #
plane-surface $-1 -67.744987334818575 0 0 1 0 0 0 0 -1 forward_v I I I I #
coedge $-1 $254 $171 $255 $256 forward $100 $-1 #
coedge $-1 $257 $102 $254 $258 forward $65 $-1 #
coedge $-1 $102 $257 $259 $260 forward $65 $-1 #
coedge $-1 $174 $173 $102 $167 reversed $175 $-1 #
edge $-1 $261 -46.44212773520605 $262 46.44212773520605 $166 $263 forward 7 unknown #
coedge $-1 $104 $103 $264 $265 forward $41 $-1 #
coedge $-1 $266 $267 $103 $170 reversed $251 $-1 #
edge $-1 $177 -67.744987334818575 $268 67.744987334818575 $169 $269 forward 7 unknown #
coedge $-1 $163 $270 $104 $172 reversed $100 $-1 #
edge $-1 $271 -67.744987334818575 $176 67.744987334818575 $171 $272 forward 7 unknown #
coedge $-1 $166 $105 $270 $273 forward $175 $-1 #
coedge $-1 $105 $166 $266 $274 reversed $175 $-1 #
loop $-1 $-1 $173 $250 #
vertex $-1 $106 $275 #
vertex $-1 $106 $276 #
straight-curve $-1 67.744987334818575 0 11.119776395353835 0 1 0 I I #
face $-1 $277 $278 $25 $-1 $279 reversed single #
loop $-1 $-1 $280 $107 #
plane-surface $-1 0 -51.683188151168594 -3.7166462728365111 0 0 1 1 0 0 forward_v I I I I #
coedge $-1 $113 $281 $282 $283 forward $108 $-1 #
coedge $-1 $284 $110 $285 $286 reversed $69 $-1 #
coedge $-1 $110 $284 $189 $287 reversed $69 $-1 #
edge $-1 $190 0.50135547918987067 $288 3.7166462728365111 $110 $289 forward 7 unknown #
coedge $-1 $112 $111 $290 $291 forward $44 $-1 #
coedge $-1 $282 $292 $111 $188 forward $293 $-1 #
edge $-1 $294 -3.7166462728365111 $191 -0.50135547918987067 $187 $295 forward 7 unknown #
coedge $-1 $281 $113 $184 $287 forward $108 $-1 #
vertex $-1 $185 $296 #
vertex $-1 $283 $297 #
straight-curve $-1 0 -46.44212773520605 -0.50135547918987067 1 0 0 I I #
face $-1 $298 $299 $26 $-1 $300 reversed single #
loop $-1 $-1 $301 $115 #
plane-surface $-1 0 51.683188151168586 -3.7166462728365111 0 0 1 1 0 0 forward_v I I I I #
coedge $-1 $302 $121 $198 $303 forward $116 $-1 #
coedge $-1 $304 $118 $301 $305 reversed $73 $-1 #
coedge $-1 $118 $304 $196 $303 reversed $73 $-1 #
edge $-1 $204 0.50135547918987067 $306 3.7166462728365111 $118 $307 forward 7 unknown #
coedge $-1 $120 $119 $308 $309 forward $47 $-1 #
coedge $-1 $310 $311 $119 $202 forward $312 $-1 #
edge $-1 $313 -3.7166462728365111 $205 -0.50135547918987067 $201 $314 forward 7 unknown #
coedge $-1 $121 $302 $310 $315 forward $116 $-1 #
vertex $-1 $199 $316 #
vertex $-1 $315 $317 #
straight-curve $-1 0 46.44212773520605 -0.50135547918987067 -1 0 0 I I #
face $-1 $-1 $318 $27 $-1 $319 reversed single #
loop $-1 $-1 $129 $123 #
plane-surface $-1 0 0 11.119776395353835 0 0 1 1 0 0 forward_v I I I I #
coedge $-1 $320 $321 $322 $323 reversed $124 $-1 #
coedge $-1 $324 $126 $128 $217 forward $77 $-1 #
coedge $-1 $126 $324 $320 $325 forward $77 $-1 #
coedge $-1 $322 $129 $126 $214 forward $208 $-1 #
edge $-1 $220 -6.7506476870143395 $326 12.142320935158676 $213 $327 forward 7 unknown #
coedge $-1 $328 $329 $127 $216 forward $318 $-1 #
edge $-1 $330 -92.205456578952436 $219 -88.02392962033413 $215 $331 forward 7 unknown #
edge $-1 $220 129.24078076251371 $330 135.48997466963715 $128 $332 forward 7 unknown #
coedge $-1 $129 $322 $328 $333 forward $208 $-1 #
vertex $-1 $216 $334 #
vertex $-1 $130 $335 #
straight-curve $-1 28.858402366692232 4.0548110629421714 11.119776395353838 -1 0 0 I I #
coedge $-1 $222 $222 $-1 $336 reversed $133 $-1 #
edge $-1 $337 0 $337 6.2831853071796004 $134 $338 forward 7 unknown #
vertex $-1 $137 $339 #
ellipse-curve $-1 65.422959299717718 -9.4401665243242689 9.0290129160447012 0.66913061440640931 0 0.74314481823134659 1.1147172273470198 0 -1.003695921609614 1 I I #
coedge $-1 $226 $226 $-1 $340 reversed $140 $-1 #
edge $-1 $341 0 $341 6.2831853071796004 $141 $342 forward 7 unknown #
vertex $-1 $144 $343 #
ellipse-curve $-1 65.422959299717718 -1.3431799719644104 9.0290129160447012 0.66913061440640931 0 0.74314481823134659 1.1147172273470198 0 -1.003695921609614 1 I I #
face $-1 $-1 $242 $30 $-1 $344 forward single #
loop $-1 $-1 $345 $145 #
plane-surface $-1 -67.744987334818575 0 0 1 0 0 0 0 -1 forward_v I I I I #
coedge $-1 $346 $347 $348 $349 reversed $146 $-1 #
coedge $-1 $350 $148 $150 $240 forward $91 $-1 #
coedge $-1 $148 $350 $346 $351 forward $91 $-1 #
coedge $-1 $348 $151 $148 $237 forward $242 $-1 #
edge $-1 $244 -11.812694109427134 $352 0.4543356816277111 $236 $353 forward 7 unknown #
coedge $-1 $354 $355 $149 $239 forward $231 $-1 #
edge $-1 $356 -45.109326928711738 $243 -39.576775436035703 $238 $357 forward 7 unknown #
edge $-1 $244 -7.8242092646892036 $356 -4.0194366942304651e-014 $150 $358 forward 7 unknown #
coedge $-1 $151 $348 $354 $359 forward $242 $-1 #
loop $-1 $-1 $348 $230 #
vertex $-1 $239 $360 #
vertex $-1 $152 $361 #
straight-curve $-1 -81.775434159052622 -17.491873323326846 11.119776395353831 1 0 0 I I #
coedge $-1 $246 $246 $-1 $362 reversed $155 $-1 #
edge $-1 $363 0 $363 6.2831853071796004 $156 $364 forward 7 unknown #
vertex $-1 $159 $365 #
ellipse-curve $-1 -64.978711652672274 -11.358358427799423 8.3535006490158192 -0.70710678939079041 0 0.70710677298230451 1.0606601594734568 0 1.0606601840861856 1 I I #
face $-1 $-1 $175 $24 $-1 $366 reversed single #
loop $-1 $-1 $266 $160 #
plane-surface $-1 0 46.44212773520605 0 0 -1 0 0 0 -1 forward_v I I I I #
coedge $-1 $367 $264 $267 $368 forward $161 $-1 #
coedge $-1 $270 $163 $164 $258 reversed $100 $-1 #
coedge $-1 $264 $367 $163 $256 reversed $161 $-1 #
edge $-1 $271 -11.119776395353835 $369 11.119776395353835 $255 $370 forward 7 unknown #
coedge $-1 $165 $164 $367 $371 forward $65 $-1 #
edge $-1 $262 -67.744987334818575 $369 67.744987334818575 $254 $372 forward 7 unknown #
coedge $-1 $267 $266 $165 $260 reversed $251 $-1 #
edge $-1 $373 -67.744987334818575 $261 67.744987334818575 $259 $374 forward 7 unknown #
vertex $-1 $167 $375 #
vertex $-1 $273 $376 #
straight-curve $-1 67.744987334818575 0 -11.119776395353835 0 -1 0 I I #
coedge $-1 $253 $255 $168 $265 reversed $161 $-1 #
edge $-1 $268 -46.44212773520605 $271 46.44212773520605 $264 $377 forward 7 unknown #
coedge $-1 $259 $169 $174 $274 forward $251 $-1 #
coedge $-1 $169 $259 $253 $368 reversed $251 $-1 #
vertex $-1 $170 $378 #
straight-curve $-1 0 46.44212773520605 11.119776395353835 -1 0 0 I I #
coedge $-1 $171 $254 $173 $273 reversed $100 $-1 #
vertex $-1 $265 $379 #
straight-curve $-1 0 -46.44212773520605 11.119776395353835 1 0 0 I I #
edge $-1 $176 -11.119776395353835 $262 11.119776395353835 $173 $380 forward 7 unknown #
edge $-1 $177 -11.119776395353835 $261 11.119776395353835 $174 $381 forward 7 unknown #
point $-1 67.744987334818575 -46.44212773520605 11.119776395353835 #
point $-1 67.744987334818575 46.44212773520605 11.119776395353835 #
face $-1 $-1 $293 $25 $-1 $382 reversed single #
loop $-1 $-1 $383 $179 #
plane-surface $-1 0 -56.924248567131137 -2.1090008760131909 0 1 0 0 0 1 forward_v I I I I #
coedge $-1 $384 $290 $292 $385 forward $180 $-1 #
coedge $-1 $182 $189 $386 $387 forward $108 $-1 #
coedge $-1 $388 $187 $182 $283 reversed $293 $-1 #
edge $-1 $389 -5.2410604159625436 $191 5.2410604159625436 $282 $390 forward 7 unknown #
coedge $-1 $184 $183 $383 $391 reversed $69 $-1 #
coedge $-1 $290 $384 $183 $286 forward $180 $-1 #
edge $-1 $392 -5.2410604159625436 $288 5.2410604159625436 $183 $393 forward 7 unknown #
edge $-1 $190 -5.2410604159625436 $394 5.2410604159625436 $184 $395 forward 7 unknown #
vertex $-1 $185 $396 #
straight-curve $-1 -67.744987334818575 -46.44212773520605 0 0 0 -1 I I #
coedge $-1 $280 $285 $186 $291 reversed $180 $-1 #
edge $-1 $294 -67.744987334818575 $288 67.744987334818575 $290 $397 forward 7 unknown #
coedge $-1 $187 $388 $280 $385 reversed $293 $-1 #
loop $-1 $-1 $187 $277 #
vertex $-1 $188 $398 #
straight-curve $-1 67.744987334818575 -46.44212773520605 0 0 0 1 I I #
point $-1 -67.744987334818575 -46.44212773520605 -0.50135547918987067 #
point $-1 67.744987334818575 -46.44212773520605 -0.50135547918987067 #
face $-1 $-1 $312 $26 $-1 $399 reversed single #
loop $-1 $-1 $400 $193 #
plane-surface $-1 0 56.92424856713113 -2.1090008760131909 0 -1 0 0 0 -1 forward_v I I I I #
coedge $-1 $308 $401 $197 $305 forward $194 $-1 #
coedge $-1 $203 $196 $402 $403 forward $116 $-1 #
edge $-1 $204 -5.2410604159625436 $404 5.2410604159625436 $198 $405 forward 7 unknown #
coedge $-1 $198 $197 $400 $406 reversed $73 $-1 #
edge $-1 $407 -5.2410604159625436 $306 5.2410604159625436 $197 $408 forward 7 unknown #
vertex $-1 $199 $409 #
straight-curve $-1 67.744987334818575 46.44212773520605 0 0 0 -1 I I #
coedge $-1 $410 $301 $200 $309 reversed $194 $-1 #
edge $-1 $313 -67.744987334818575 $306 67.744987334818575 $308 $411 forward 7 unknown #
coedge $-1 $412 $201 $203 $315 reversed $312 $-1 #
coedge $-1 $201 $412 $410 $413 reversed $312 $-1 #
loop $-1 $-1 $201 $298 #
vertex $-1 $202 $414 #
straight-curve $-1 -67.744987334818575 46.44212773520605 0 0 0 1 I I #
edge $-1 $415 -5.2410604159625436 $205 5.2410604159625436 $310 $416 forward 7 unknown #
point $-1 67.744987334818575 46.442127735206043 -0.50135547918987067 #
point $-1 -67.744987334818575 46.442127735206043 -0.50135547918987067 #
loop $-1 $-1 $215 $207 #
plane-surface $-1 67.744987334818575 0 0 -1 0 0 0 0 1 forward_v I I I I #
coedge $-1 $321 $210 $212 $325 reversed $124 $-1 #
coedge $-1 $210 $320 $417 $418 reversed $124 $-1 #
coedge $-1 $218 $213 $210 $323 forward $208 $-1 #
edge $-1 $326 34.242528897924657 $419 38.886584968126343 $322 $420 forward 7 unknown #
coedge $-1 $212 $211 $329 $421 reversed $77 $-1 #
edge $-1 $422 -135.48997466963715 $326 -129.24078076251371 $320 $423 forward 7 unknown #
vertex $-1 $214 $424 #
straight-curve $-1 63.100931264616896 -2.6958366240721681 11.119776395353831 0 -1 0 I I #
coedge $-1 $417 $215 $218 $333 reversed $318 $-1 #
coedge $-1 $215 $417 $324 $421 forward $318 $-1 #
vertex $-1 $216 $425 #
straight-curve $-1 67.744987334818575 4.0548110629421714 99.143706015687968 0 0 1 I I #
straight-curve $-1 -32.943685263218683 4.0548110629421714 97.598739433338679 0.74314481823134659 0 -0.66913061440640931 I I #
edge $-1 $419 -14.838157559230844 $219 4.0548110629421714 $328 $426 forward 7 unknown #
point $-1 67.744987334818575 4.0548110629421714 11.119776395353835 #
point $-1 63.100931264616889 4.0548110629421714 11.119776395353838 #
edge $-1 $427 1 $427 0 $222 $-1 forward 7 unknown #
vertex $-1 $223 $428 #
ellipse-curve $-1 64.366700061311235 -9.4401665243242689 7.8559182125134566 0.66913061440640931 0 0.74314481823134659 1.1147172273470198 0 -1.003695921609614 1 I I #
point $-1 66.537676527064704 -9.4401665243242689 8.0253169944350571 #
edge $-1 $429 1 $429 0 $226 $-1 forward 7 unknown #
vertex $-1 $227 $430 #
ellipse-curve $-1 64.366700061311235 -1.3431799719644104 7.8559182125134566 0.66913061440640931 0 0.74314481823134659 1.1147172273470198 0 -1.003695921609614 1 I I #
point $-1 66.537676527064704 -1.3431799719644104 8.0253169944350571 #
plane-surface $-1 0 0 11.119776395353835 0 0 1 1 0 0 forward_v I I I I #
coedge $-1 $355 $354 $347 $431 forward $231 $-1 #
coedge $-1 $347 $233 $235 $351 reversed $146 $-1 #
coedge $-1 $233 $346 $345 $431 reversed $146 $-1 #
coedge $-1 $241 $236 $233 $349 forward $242 $-1 #
edge $-1 $352 -19.562998188526649 $432 -14.030446824234048 $348 $433 forward 7 unknown #
coedge $-1 $235 $234 $355 $434 reversed $91 $-1 #
edge $-1 $435 4.0194366942304651e-014 $352 7.8242092646892036 $346 $436 forward 7 unknown #
vertex $-1 $237 $437 #
straight-curve $-1 -62.212435970525974 -5.6791792138997117 11.119776395353833 0 1 0 I I #
coedge $-1 $345 $238 $241 $359 reversed $231 $-1 #
coedge $-1 $238 $345 $350 $434 forward $231 $-1 #
vertex $-1 $239 $438 #
straight-curve $-1 -67.744987334818575 -17.491873323326846 50.696551831389542 0 0 1 I I #
straight-curve $-1 -67.744987334818603 -17.491873323326846 5.5872249026777752 -0.70710677298230451 0 -0.70710678939079041 I I #
edge $-1 $432 5.2248435322720006 $243 17.491873323326846 $354 $439 forward 7 unknown #
point $-1 -67.744987334818575 -17.491873323326846 11.119776395353835 #
point $-1 -62.212435970525974 -17.491873323326846 11.119776395353835 #
edge $-1 $440 1 $440 0 $246 $-1 forward 7 unknown #
vertex $-1 $247 $441 #
ellipse-curve $-1 -61.578591234678157 -11.358358427799423 4.9533803099218456 -0.70710678939079041 0 0.70710677298230451 1.0606601594734568 0 1.0606601840861856 1 I I #
point $-1 -63.91805149319881 -11.358358427799423 9.4141608331019953 #
plane-surface $-1 67.744987334818575 0 0 -1 0 0 0 0 1 forward_v I I I I #
coedge $-1 $255 $253 $257 $371 reversed $161 $-1 #
edge $-1 $268 -11.119776395353835 $373 11.119776395353835 $267 $442 forward 7 unknown #
vertex $-1 $371 $443 #
straight-curve $-1 -67.744987334818575 -46.44212773520605 0 0 0 -1 I I #
edge $-1 $369 -46.44212773520605 $373 46.44212773520605 $367 $444 forward 7 unknown #
straight-curve $-1 0 -46.44212773520605 -11.119776395353835 -1 0 0 I I #
vertex $-1 $260 $445 #
straight-curve $-1 0 46.44212773520605 -11.119776395353835 1 0 0 I I #
point $-1 67.744987334818575 46.44212773520605 -11.119776395353835 #
point $-1 67.744987334818575 -46.44212773520605 -11.119776395353835 #
straight-curve $-1 -67.744987334818575 0 11.119776395353835 0 -1 0 I I #
point $-1 -67.744987334818575 46.44212773520605 11.119776395353835 #
point $-1 -67.744987334818575 -46.44212773520605 11.119776395353835 #
straight-curve $-1 67.744987334818575 -46.44212773520605 0 0 0 -1 I I #
straight-curve $-1 67.744987334818575 46.44212773520605 0 0 0 -1 I I #
plane-surface $-1 67.744987334818575 0 0 -1 0 0 0 0 1 forward_v I I I I #
coedge $-1 $446 $386 $284 $391 forward $278 $-1 #
coedge $-1 $285 $280 $446 $447 forward $180 $-1 #
edge $-1 $294 -5.2410604159625436 $448 5.2410604159625436 $292 $449 forward 7 unknown #
coedge $-1 $383 $450 $281 $387 reversed $278 $-1 #
edge $-1 $394 -67.744987334818575 $389 67.744987334818575 $386 $451 forward 7 unknown #
coedge $-1 $292 $282 $450 $452 forward $293 $-1 #
vertex $-1 $283 $453 #
straight-curve $-1 67.744987334818575 -51.683188151168594 -0.50135547918987067 0 1 0 I I #
edge $-1 $394 -1.6076453968233202 $392 1.6076453968233202 $284 $454 forward 7 unknown #
vertex $-1 $286 $455 #
straight-curve $-1 -67.744987334818575 -51.683188151168594 -3.7166462728365111 0 1 0 I I #
vertex $-1 $287 $456 #
straight-curve $-1 -67.744987334818575 -51.683188151168594 -0.50135547918987067 0 -1 0 I I #
point $-1 -67.744987334818575 -46.44212773520605 -3.7166462728365111 #
straight-curve $-1 0 -46.44212773520605 -3.7166462728365111 -1 0 0 I I #
point $-1 67.744987334818575 -46.44212773520605 -3.7166462728365111 #
plane-surface $-1 -67.744987334818575 0 0 1 0 0 0 0 -1 forward_v I I I I #
coedge $-1 $457 $402 $304 $406 forward $299 $-1 #
coedge $-1 $301 $410 $457 $458 forward $194 $-1 #
coedge $-1 $400 $459 $302 $403 reversed $299 $-1 #
edge $-1 $404 -67.744987334818575 $415 67.744987334818575 $402 $460 forward 7 unknown #
vertex $-1 $303 $461 #
straight-curve $-1 67.744987334818575 51.683188151168586 -0.50135547918987067 0 1 0 I I #
edge $-1 $404 -1.6076453968233202 $407 1.6076453968233202 $304 $462 forward 7 unknown #
vertex $-1 $305 $463 #
straight-curve $-1 67.744987334818575 51.683188151168586 -3.7166462728365111 0 -1 0 I I #
point $-1 67.744987334818575 46.442127735206043 -3.7166462728365111 #
coedge $-1 $401 $308 $311 $413 forward $194 $-1 #
straight-curve $-1 0 46.44212773520605 -3.7166462728365111 1 0 0 I I #
coedge $-1 $311 $310 $459 $464 forward $312 $-1 #
edge $-1 $313 -5.2410604159625436 $465 5.2410604159625436 $311 $466 forward 7 unknown #
point $-1 -67.744987334818575 46.442127735206043 -3.7166462728365111 #
vertex $-1 $403 $467 #
straight-curve $-1 -67.744987334818575 51.683188151168586 -0.50135547918987067 0 -1 0 I I #
coedge $-1 $329 $328 $321 $418 forward $318 $-1 #
edge $-1 $419 88.02392962033413 $422 92.205456578952436 $417 $468 forward 7 unknown #
vertex $-1 $333 $469 #
straight-curve $-1 28.858402366692232 -14.838157559230844 11.119776395353838 1 0 0 I I #
edge $-1 $422 -12.142320935158676 $330 6.7506476870143395 $329 $470 forward 7 unknown #
vertex $-1 $421 $471 #
straight-curve $-1 -32.943685263218683 -14.838157559230844 97.598739433338679 -0.74314481823134659 0 0.66913061440640931 I I #
point $-1 63.100931264616889 -14.838157559230844 11.119776395353838 #
point $-1 67.744987334818575 4.0548110629421714 6.9382494367355321 #
straight-curve $-1 67.744987334818575 0 11.119776395353835 0 1 0 I I #
vertex $-1 $336 $472 #
point $-1 65.48141728865825 -9.4401665243242689 6.8522222909038426 #
vertex $-1 $340 $473 #
point $-1 65.48141728865825 -1.3431799719644104 6.8522222909038426 #
edge $-1 $432 39.576775436035703 $435 45.109326928711738 $345 $474 forward 7 unknown #
vertex $-1 $359 $475 #
straight-curve $-1 -81.775434159052622 -5.2248435322720006 11.119776395353831 -1 0 0 I I #
edge $-1 $435 -0.4543356816277111 $356 11.812694109427134 $355 $476 forward 7 unknown #
vertex $-1 $434 $477 #
straight-curve $-1 -67.744987334818603 -5.2248435322720006 5.5872249026777752 0.70710677298230451 0 0.70710678939079041 I I #
point $-1 -62.212435970525974 -5.2248435322720006 11.119776395353835 #
point $-1 -67.744987334818575 -17.491873323326846 5.5872249026778036 #
straight-curve $-1 -67.744987334818575 0 11.119776395353835 0 -1 0 I I #
vertex $-1 $362 $478 #
point $-1 -60.5179310752047 -11.358358427799423 6.0140404940080305 #
straight-curve $-1 -67.744987334818575 46.44212773520605 0 0 0 -1 I I #
point $-1 -67.744987334818575 -46.44212773520605 -11.119776395353835 #
straight-curve $-1 -67.744987334818575 0 -11.119776395353835 0 1 0 I I #
point $-1 -67.744987334818575 46.44212773520605 -11.119776395353835 #
coedge $-1 $450 $383 $384 $447 reversed $278 $-1 #
edge $-1 $448 -67.744987334818575 $392 67.744987334818575 $446 $479 forward 7 unknown #
vertex $-1 $452 $480 #
straight-curve $-1 67.744987334818575 -51.683188151168594 -3.7166462728365111 0 -1 0 I I #
coedge $-1 $386 $446 $388 $452 reversed $278 $-1 #
straight-curve $-1 0 -56.924248567131137 -0.50135547918987067 1 0 0 I I #
edge $-1 $389 -1.6076453968233202 $448 1.6076453968233202 $388 $481 forward 7 unknown #
point $-1 67.744987334818575 -56.924248567131137 -0.50135547918987067 #
straight-curve $-1 -67.744987334818575 -56.924248567131137 -2.1090008760131909 0 0 -1 I I #
point $-1 -67.744987334818575 -56.924248567131137 -3.7166462728365111 #
point $-1 -67.744987334818575 -56.924248567131137 -0.50135547918987067 #
coedge $-1 $459 $400 $401 $458 reversed $299 $-1 #
edge $-1 $465 -67.744987334818575 $407 67.744987334818575 $457 $482 forward 7 unknown #
coedge $-1 $402 $457 $412 $464 reversed $299 $-1 #
straight-curve $-1 0 56.92424856713113 -0.50135547918987067 -1 0 0 I I #
point $-1 67.744987334818575 56.92424856713113 -0.50135547918987067 #
straight-curve $-1 67.744987334818575 56.92424856713113 -2.1090008760131909 0 0 -1 I I #
point $-1 67.744987334818575 56.92424856713113 -3.7166462728365111 #
edge $-1 $415 -1.6076453968233202 $465 1.6076453968233202 $459 $483 forward 7 unknown #
vertex $-1 $458 $484 #
straight-curve $-1 -67.744987334818575 51.683188151168586 -3.7166462728365111 0 1 0 I I #
point $-1 -67.744987334818575 56.92424856713113 -0.50135547918987067 #
straight-curve $-1 67.744987334818575 -14.838157559230844 99.143706015687968 0 0 -1 I I #
point $-1 67.744987334818575 -14.838157559230844 11.119776395353835 #
straight-curve $-1 67.744987334818575 -2.6958366240721681 6.9382494367355321 0 1 0 I I #
point $-1 67.744987334818575 -14.838157559230844 6.9382494367355321 #
point $-1 63.363004139701616 -9.4401665243242689 6.7412009851664383 #
point $-1 63.363004139701616 -1.3431799719644104 6.7412009851664383 #
straight-curve $-1 -67.744987334818575 -5.2248435322720006 50.696551831389542 0 0 -1 I I #
point $-1 -67.744987334818575 -5.2248435322720006 11.119776395353835 #
straight-curve $-1 -67.744987334818575 -5.6791792138997117 5.5872249026778045 0 -1 0 I I #
point $-1 -67.744987334818575 -5.2248435322720006 5.5872249026778036 #
point $-1 -60.517931050591969 -11.358358427799423 3.8927201504483886 #
straight-curve $-1 0 -56.924248567131137 -3.7166462728365111 -1 0 0 I I #
point $-1 67.744987334818575 -56.924248567131137 -3.7166462728365111 #
straight-curve $-1 67.744987334818575 -56.924248567131137 -2.1090008760131909 0 0 -1 I I #
straight-curve $-1 0 56.92424856713113 -3.7166462728365111 1 0 0 I I #
straight-curve $-1 -67.744987334818575 56.92424856713113 -2.1090008760131909 0 0 -1 I I #
point $-1 -67.744987334818575 56.92424856713113 -3.7166462728365111 #
End-of-ACIS-data 