500 0 5 0           
7 Unknown 11 ACIS 5.0 NT 24 Thu Mar 25 16:02:34 1999 
-1 9.9999999999999995e-007 1e-010 
body $-1 $5 $-1 $6 #
body $-1 $7 $-1 $8 #
body $-1 $9 $-1 $10 #
body $-1 $11 $-1 $12 #
body $-1 $13 $-1 $14 #
lump $-1 $-1 $15 $0 #
transform $-1 1 0 0 0 1 0 0 0 1 61.687673574022647 42.616586746659543 15.280427087287626 1 rotate no_reflect no_shear #
lump $-1 $-1 $16 $1 #
transform $-1 1 0 0 0 1 0 0 0 1 61.687673574022647 42.616586746659543 15.280427087287626 1 rotate no_reflect no_shear #
lump $-1 $-1 $17 $2 #
transform $-1 1 0 0 0 1 0 0 0 1 61.687673574022647 42.616586746659543 15.280427087287626 1 rotate no_reflect no_shear #
lump $-1 $-1 $18 $3 #
transform $-1 1 0 0 0 1 0 0 0 1 61.687673574022647 42.616586746659543 15.280427087287626 1 rotate no_reflect no_shear #
lump $-1 $-1 $19 $4 #
transform $-1 1 0 0 0 1 0 0 0 1 61.687673574022647 42.616586746659543 15.280427087287626 1 rotate no_reflect no_shear #
shell $-1 $-1 $-1 $20 $-1 $5 #
shell $-1 $-1 $-1 $21 $-1 $7 #
shell $-1 $-1 $-1 $22 $-1 $9 #
shell $-1 $-1 $-1 $23 $-1 $11 #
shell $-1 $-1 $-1 $24 $-1 $13 #
face $-1 $25 $26 $15 $-1 $27 forward single #
face $-1 $28 $29 $16 $-1 $30 forward single #
face $-1 $31 $32 $17 $-1 $33 reversed single #
face $-1 $34 $35 $18 $-1 $36 forward single #
face $-1 $37 $38 $19 $-1 $39 forward single #
face $-1 $40 $41 $15 $-1 $42 reversed single #
loop $-1 $-1 $43 $20 #
plane-surface $-1 0 0 15.280427087287626 0 0 1 1 0 0 forward_v I I I I #
face $-1 $44 $45 $16 $-1 $46 reversed single #
loop $-1 $-1 $47 $21 #
plane-surface $-1 -61.687673574022647 0 0 1 0 0 0 0 -1 forward_v I I I I #
face $-1 $48 $49 $17 $-1 $50 reversed single #
loop $-1 $-1 $51 $22 #
plane-surface $-1 -28.543342318380347 -34.005739373582699 87.099551795263778 0.68199836817093118 0 0.7313536940579346 0.7313536940579346 0 -0.68199836817093118 forward_v I I I I #
face $-1 $52 $53 $18 $-1 $54 forward single #
loop $-1 $55 $56 $23 #
cone-surface $-1 54.425411040680231 -37.696102533472775 8.4166472063851767 -0.68199836817093118 0 -0.7313536940579346 0.7313536940579346 0 -0.68199836817093118 1 I I 0 1 1 forward I I I I #
face $-1 $57 $58 $19 $-1 $59 forward single #
loop $-1 $60 $61 $24 #
cone-surface $-1 54.425411040680231 -30.315376213692627 8.4166472063851767 -0.68199836817093118 0 -0.7313536940579346 0.7313536940579346 0 -0.68199836817093118 1 I I 0 1 1 forward I I I I #
face $-1 $62 $63 $15 $-1 $64 reversed single #
loop $-1 $-1 $65 $25 #
plane-surface $-1 0 0 -15.280427087287626 0 0 1 1 0 0 forward_v I I I I #
coedge $-1 $66 $67 $68 $69 forward $26 $-1 #
face $-1 $70 $71 $16 $-1 $72 reversed single #
loop $-1 $-1 $73 $28 #
plane-surface $-1 0 0 -15.280427087287626 0 0 1 1 0 0 forward_v I I I I #
coedge $-1 $74 $75 $76 $77 forward $29 $-1 #
face $-1 $78 $79 $17 $-1 $80 reversed single #
loop $-1 $-1 $81 $31 #
plane-surface $-1 55.598443109108679 -25.394892000505855 177.33056768766676 0 -1 0 -0.68199836817093118 0 -0.7313536940579346 forward_v I I I I #
coedge $-1 $82 $83 $84 $85 reversed $32 $-1 #
face $-1 $-1 $86 $18 $-1 $87 forward single #
loop $-1 $88 $89 $34 #
cone-surface $-1 53.429367066315656 -37.696102533472775 7.3485208382102005 -0.68199836817093118 0 -0.7313536940579346 0.3656768470289673 0 -0.34099918408546559 1 I I -0.70710678118654691 0.70710678118654813 0.5 forward I I I I #
loop $-1 $-1 $90 $23 #
coedge $-1 $56 $56 $91 $92 reversed $35 $-1 #
face $-1 $-1 $93 $19 $-1 $94 forward single #
loop $-1 $95 $96 $37 #
cone-surface $-1 53.429367066315656 -30.315376213692627 7.3485208382102005 -0.68199836817093118 0 -0.7313536940579346 0.3656768470289673 0 -0.34099918408546559 1 I I -0.70710678118654691 0.70710678118654813 0.5 forward I I I I #
loop $-1 $-1 $97 $24 #
coedge $-1 $61 $61 $98 $99 reversed $38 $-1 #
face $-1 $100 $101 $15 $-1 $102 reversed single #
loop $-1 $-1 $103 $40 #
plane-surface $-1 0 -42.616586746659543 0 0 1 0 0 0 1 forward_v I I I I #
coedge $-1 $104 $105 $106 $107 forward $41 $-1 #
coedge $-1 $108 $43 $109 $110 forward $26 $-1 #
coedge $-1 $43 $108 $111 $112 forward $26 $-1 #
coedge $-1 $113 $114 $43 $69 reversed $115 $-1 #
edge $-1 $116 -42.616586746659543 $117 42.616586746659543 $68 $118 forward 7 unknown #
face $-1 $119 $120 $16 $-1 $121 reversed single #
loop $-1 $-1 $122 $44 #
plane-surface $-1 -70.639349463464555 -19.764544120566509 0 0 1 0 0 0 1 forward_v I I I I #
coedge $-1 $123 $124 $75 $125 forward $45 $-1 #
coedge $-1 $126 $47 $127 $128 reversed $29 $-1 #
coedge $-1 $47 $126 $73 $125 reversed $29 $-1 #
coedge $-1 $129 $130 $47 $77 reversed $131 $-1 #
edge $-1 $132 -15.280427087287626 $133 15.280427087287626 $76 $134 forward 7 unknown #
face $-1 $135 $136 $17 $-1 $137 reversed single #
loop $-1 $-1 $138 $48 #
plane-surface $-1 0 -42.616586746659543 0 0 1 0 0 0 1 forward_v I I I I #
coedge $-1 $139 $140 $141 $142 reversed $49 $-1 #
coedge $-1 $143 $51 $138 $144 reversed $32 $-1 #
coedge $-1 $51 $143 $139 $145 forward $32 $-1 #
coedge $-1 $141 $146 $51 $85 forward $136 $-1 #
edge $-1 $147 -25.613717059868193 $148 -8.3920223137145058 $84 $149 forward 7 unknown #
loop $-1 $-1 $91 $52 #
plane-surface $-1 -28.543342318380347 -34.005739373582699 87.099551795263778 0.68199836817093118 0 0.7313536940579346 0.7313536940579346 0 -0.68199836817093118 forward_v I I I I #
loop $-1 $-1 $150 $34 #
coedge $-1 $89 $89 $90 $151 reversed $53 $-1 #
coedge $-1 $90 $90 $89 $151 forward $55 $-1 #
coedge $-1 $91 $91 $56 $92 forward $86 $-1 #
edge $-1 $152 0 $152 6.2831853071796004 $91 $153 forward 7 unknown #
loop $-1 $-1 $98 $57 #
plane-surface $-1 -28.543342318380347 -34.005739373582699 87.099551795263778 0.68199836817093118 0 0.7313536940579346 0.7313536940579346 0 -0.68199836817093118 forward_v I I I I #
loop $-1 $-1 $154 $37 #
coedge $-1 $96 $96 $97 $155 reversed $58 $-1 #
coedge $-1 $97 $97 $96 $155 forward $60 $-1 #
coedge $-1 $98 $98 $61 $99 forward $93 $-1 #
edge $-1 $156 0 $156 6.2831853071796004 $98 $157 forward 7 unknown #
face $-1 $158 $159 $15 $-1 $160 reversed single #
loop $-1 $-1 $161 $62 #
plane-surface $-1 -61.687673574022647 0 0 1 0 0 0 0 -1 forward_v I I I I #
coedge $-1 $162 $111 $163 $164 forward $63 $-1 #
coedge $-1 $165 $65 $162 $166 forward $41 $-1 #
coedge $-1 $65 $165 $167 $168 forward $41 $-1 #
coedge $-1 $114 $113 $65 $107 reversed $115 $-1 #
edge $-1 $169 -42.616586746659543 $170 42.616586746659543 $106 $171 forward 7 unknown #
coedge $-1 $67 $66 $172 $173 forward $26 $-1 #
coedge $-1 $174 $175 $66 $110 reversed $159 $-1 #
edge $-1 $117 -61.687673574022647 $176 61.687673574022647 $109 $177 forward 7 unknown #
coedge $-1 $103 $178 $67 $112 reversed $63 $-1 #
edge $-1 $179 -61.687673574022647 $116 61.687673574022647 $111 $180 forward 7 unknown #
coedge $-1 $106 $68 $178 $181 forward $115 $-1 #
coedge $-1 $68 $106 $174 $182 reversed $115 $-1 #
loop $-1 $-1 $113 $158 #
vertex $-1 $69 $183 #
vertex $-1 $69 $184 #
straight-curve $-1 61.687673574022647 0 15.280427087287626 0 1 0 I I #
face $-1 $185 $131 $16 $-1 $186 reversed single #
loop $-1 $-1 $187 $70 #
plane-surface $-1 -79.59102535290647 -15.9101383463254 0 1 0 0 0 0 -1 forward_v I I I I #
coedge $-1 $188 $189 $190 $191 forward $71 $-1 #
coedge $-1 $192 $73 $188 $193 forward $45 $-1 #
coedge $-1 $73 $192 $129 $194 forward $45 $-1 #
edge $-1 $132 12.055732572084292 $195 19.764544120566509 $73 $196 forward 7 unknown #
coedge $-1 $75 $74 $197 $198 forward $29 $-1 #
coedge $-1 $199 $200 $74 $128 forward $201 $-1 #
edge $-1 $202 -19.764544120566509 $133 -12.055732572084292 $127 $203 forward 7 unknown #
coedge $-1 $204 $76 $124 $194 reversed $131 $-1 #
coedge $-1 $76 $204 $199 $205 reversed $131 $-1 #
loop $-1 $-1 $76 $119 #
vertex $-1 $125 $206 #
vertex $-1 $205 $207 #
straight-curve $-1 -61.687673574022647 -12.055732572084292 0 0 0 1 I I #
face $-1 $-1 $208 $17 $-1 $209 forward single #
loop $-1 $-1 $84 $78 #
plane-surface $-1 61.687673574022647 0 0 -1 0 0 0 0 1 forward_v I I I I #
coedge $-1 $210 $211 $82 $144 forward $79 $-1 #
coedge $-1 $140 $81 $83 $145 reversed $49 $-1 #
coedge $-1 $81 $139 $212 $213 reversed $49 $-1 #
coedge $-1 $214 $84 $81 $142 forward $136 $-1 #
edge $-1 $148 -85.707517476058641 $215 -73.384856756545759 $141 $216 forward 7 unknown #
coedge $-1 $83 $82 $217 $218 reversed $32 $-1 #
edge $-1 $219 65.168370919096049 $147 83.236831628996782 $138 $220 forward 7 unknown #
edge $-1 $221 105.30688643814457 $148 123.37534714804531 $139 $222 forward 7 unknown #
coedge $-1 $84 $214 $210 $223 forward $136 $-1 #
vertex $-1 $85 $224 #
vertex $-1 $85 $225 #
straight-curve $-1 61.687673574022639 -17.00286968679135 2.9577663677747452 0 1 0 I I #
coedge $-1 $150 $150 $-1 $226 reversed $88 $-1 #
edge $-1 $227 0 $227 6.2831853071796004 $89 $228 forward 7 unknown #
vertex $-1 $92 $229 #
ellipse-curve $-1 55.080455830959352 -37.696102533472775 9.119096727531204 0.68199836817093118 0 0.7313536940579346 0.7313536940579346 0 -0.68199836817093118 1 I I #
coedge $-1 $154 $154 $-1 $230 reversed $95 $-1 #
edge $-1 $231 0 $231 6.2831853071796004 $96 $232 forward 7 unknown #
vertex $-1 $99 $233 #
ellipse-curve $-1 55.080455830959352 -30.315376213692627 9.119096727531204 0.68199836817093118 0 0.7313536940579346 0.7313536940579346 0 -0.68199836817093118 1 I I #
face $-1 $-1 $115 $15 $-1 $234 reversed single #
loop $-1 $-1 $174 $100 #
plane-surface $-1 0 42.616586746659543 0 0 -1 0 0 0 -1 forward_v I I I I #
coedge $-1 $235 $172 $175 $236 forward $101 $-1 #
coedge $-1 $178 $103 $104 $166 reversed $63 $-1 #
coedge $-1 $172 $235 $103 $164 reversed $101 $-1 #
edge $-1 $179 -15.280427087287626 $237 15.280427087287626 $163 $238 forward 7 unknown #
coedge $-1 $105 $104 $235 $239 forward $41 $-1 #
edge $-1 $170 -61.687673574022647 $237 61.687673574022647 $162 $240 forward 7 unknown #
coedge $-1 $175 $174 $105 $168 reversed $159 $-1 #
edge $-1 $241 -61.687673574022647 $169 61.687673574022647 $167 $242 forward 7 unknown #
vertex $-1 $107 $243 #
vertex $-1 $181 $244 #
straight-curve $-1 61.687673574022647 0 -15.280427087287626 0 -1 0 I I #
coedge $-1 $161 $163 $108 $173 reversed $101 $-1 #
edge $-1 $176 -42.616586746659543 $179 42.616586746659543 $172 $245 forward 7 unknown #
coedge $-1 $167 $109 $114 $182 forward $159 $-1 #
coedge $-1 $109 $167 $161 $236 reversed $159 $-1 #
vertex $-1 $110 $246 #
straight-curve $-1 0 42.616586746659543 15.280427087287626 -1 0 0 I I #
coedge $-1 $111 $162 $113 $181 reversed $63 $-1 #
vertex $-1 $173 $247 #
straight-curve $-1 0 -42.616586746659543 15.280427087287626 1 0 0 I I #
edge $-1 $116 -15.280427087287626 $170 15.280427087287626 $113 $248 forward 7 unknown #
edge $-1 $117 -15.280427087287626 $169 15.280427087287626 $114 $249 forward 7 unknown #
point $-1 61.687673574022647 -42.616586746659543 15.280427087287626 #
point $-1 61.687673574022647 42.616586746659543 15.280427087287626 #
face $-1 $-1 $201 $16 $-1 $250 forward single #
plane-surface $-1 -70.639349463464555 -12.055732572084292 0 0 -1 0 0 0 -1 forward_v I I I I #
coedge $-1 $251 $252 $204 $253 forward $120 $-1 #
coedge $-1 $197 $122 $123 $193 reversed $71 $-1 #
coedge $-1 $122 $197 $200 $254 reversed $71 $-1 #
coedge $-1 $252 $251 $122 $191 reversed $120 $-1 #
edge $-1 $255 -15.280427087287626 $256 15.280427087287626 $190 $257 forward 7 unknown #
coedge $-1 $124 $123 $251 $258 forward $45 $-1 #
edge $-1 $195 -8.9516758894419155 $256 8.9516758894419155 $188 $259 forward 7 unknown #
edge $-1 $260 -8.9516758894419155 $132 8.9516758894419155 $129 $261 forward 7 unknown #
vertex $-1 $193 $262 #
straight-curve $-1 -61.687673574022647 0 -15.280427087287626 0 -1 0 I I #
coedge $-1 $189 $188 $126 $198 reversed $71 $-1 #
edge $-1 $202 -15.280427087287626 $195 15.280427087287626 $197 $263 forward 7 unknown #
coedge $-1 $264 $127 $130 $205 forward $201 $-1 #
coedge $-1 $127 $264 $189 $254 forward $201 $-1 #
loop $-1 $-1 $127 $185 #
vertex $-1 $128 $265 #
straight-curve $-1 -61.687673574022647 0 15.280427087287626 0 1 0 I I #
coedge $-1 $130 $129 $187 $253 reversed $131 $-1 #
edge $-1 $133 -8.9516758894419155 $266 8.9516758894419155 $130 $267 forward 7 unknown #
point $-1 -61.687673574022639 -12.055732572084292 -15.280427087287626 #
point $-1 -61.687673574022639 -12.055732572084292 15.280427087287626 #
loop $-1 $-1 $217 $135 #
plane-surface $-1 0 0 15.280427087287626 0 0 1 1 0 0 forward_v I I I I #
coedge $-1 $211 $138 $146 $223 reversed $79 $-1 #
coedge $-1 $138 $210 $268 $269 reversed $79 $-1 #
coedge $-1 $217 $270 $140 $213 forward $208 $-1 #
edge $-1 $215 -33.888452019468303 $221 -20.67401653334176 $212 $271 forward 7 unknown #
coedge $-1 $146 $141 $270 $272 reversed $136 $-1 #
vertex $-1 $142 $273 #
straight-curve $-1 61.687673574022647 -25.394892000505855 88.665283843833379 0 0 1 I I #
coedge $-1 $268 $212 $143 $218 forward $208 $-1 #
edge $-1 $221 8.3920223137145058 $219 25.613717059868193 $217 $274 forward 7 unknown #
vertex $-1 $269 $275 #
straight-curve $-1 0.81210928047751985 -42.616586746659543 59.72514971046909 0.7313536940579346 0 -0.68199836817093118 I I #
vertex $-1 $218 $276 #
straight-curve $-1 -28.543342318380347 -25.394892000505855 87.099551795263778 0.7313536940579346 0 -0.68199836817093118 I I #
edge $-1 $277 -15.280427087287626 $147 -2.9577663677747377 $146 $278 forward 7 unknown #
point $-1 61.687673574022647 -42.616586746659543 2.9577663677747377 #
point $-1 61.687673574022647 -25.394892000505855 2.9577663677747381 #
edge $-1 $279 1 $279 0 $150 $-1 forward 7 unknown #
vertex $-1 $151 $280 #
ellipse-curve $-1 53.770366250401125 -37.696102533472775 7.7141976852391689 0.68199836817093118 0 0.7313536940579346 0.7313536940579346 0 -0.68199836817093118 1 I I #
point $-1 55.811809525017267 -37.696102533472775 8.4370983593602542 #
edge $-1 $281 1 $281 0 $154 $-1 forward 7 unknown #
vertex $-1 $155 $282 #
ellipse-curve $-1 53.770366250401125 -30.315376213692627 7.7141976852391689 0.68199836817093118 0 0.7313536940579346 0.7313536940579346 0 -0.68199836817093118 1 I I #
point $-1 55.811809525017267 -30.315376213692627 8.4370983593602542 #
plane-surface $-1 61.687673574022647 0 0 -1 0 0 0 0 1 forward_v I I I I #
coedge $-1 $163 $161 $165 $239 reversed $101 $-1 #
edge $-1 $176 -15.280427087287626 $241 15.280427087287626 $175 $283 forward 7 unknown #
vertex $-1 $239 $284 #
straight-curve $-1 -61.687673574022647 -42.616586746659543 0 0 0 -1 I I #
edge $-1 $237 -42.616586746659543 $241 42.616586746659543 $235 $285 forward 7 unknown #
straight-curve $-1 0 -42.616586746659543 -15.280427087287626 -1 0 0 I I #
vertex $-1 $168 $286 #
straight-curve $-1 0 42.616586746659543 -15.280427087287626 1 0 0 I I #
point $-1 61.687673574022647 42.616586746659543 -15.280427087287626 #
point $-1 61.687673574022647 -42.616586746659543 -15.280427087287626 #
straight-curve $-1 -61.687673574022647 0 15.280427087287626 0 -1 0 I I #
point $-1 -61.687673574022647 42.616586746659543 15.280427087287626 #
point $-1 -61.687673574022647 -42.616586746659543 15.280427087287626 #
straight-curve $-1 61.687673574022647 -42.616586746659543 0 0 0 -1 I I #
straight-curve $-1 61.687673574022647 42.616586746659543 0 0 0 -1 I I #
plane-surface $-1 0 0 15.280427087287626 0 0 1 1 0 0 forward_v I I I I #
coedge $-1 $190 $187 $192 $258 reversed $120 $-1 #
coedge $-1 $187 $190 $264 $287 reversed $120 $-1 #
edge $-1 $266 -15.280427087287626 $260 15.280427087287626 $204 $288 forward 7 unknown #
edge $-1 $255 -8.9516758894419155 $202 8.9516758894419155 $189 $289 forward 7 unknown #
vertex $-1 $287 $290 #
vertex $-1 $258 $291 #
straight-curve $-1 -79.59102535290647 -19.764544120566509 0 0 0 -1 I I #
edge $-1 $256 -3.8544057742411084 $260 3.8544057742411084 $251 $292 forward 7 unknown #
straight-curve $-1 -70.639349463464555 -19.764544120566509 -15.280427087287626 -1 0 0 I I #
vertex $-1 $194 $293 #
straight-curve $-1 -70.639349463464555 -12.055732572084292 -15.280427087287626 1 0 0 I I #
point $-1 -61.687673574022639 -19.764544120566509 -15.280427087287626 #
straight-curve $-1 -61.687673574022647 -19.764544120566509 0 0 0 -1 I I #
coedge $-1 $200 $199 $252 $287 forward $201 $-1 #
point $-1 -61.687673574022639 -19.764544120566509 15.280427087287626 #
vertex $-1 $205 $294 #
straight-curve $-1 -70.639349463464555 -12.055732572084292 15.280427087287626 -1 0 0 I I #
coedge $-1 $270 $217 $211 $269 forward $208 $-1 #
edge $-1 $219 48.4732380878961 $277 61.687673574022647 $211 $295 forward 7 unknown #
coedge $-1 $212 $268 $214 $272 forward $208 $-1 #
straight-curve $-1 27.79922155455434 -25.394892000505855 15.28042708728762 -1 0 0 I I #
edge $-1 $277 -42.616586746659543 $215 -25.394892000505855 $214 $296 forward 7 unknown #
point $-1 61.687673574022647 -25.394892000505855 15.280427087287626 #
straight-curve $-1 48.4732380878961 -17.00286968679135 15.280427087287627 0 -1 0 I I #
point $-1 48.4732380878961 -42.616586746659543 15.28042708728762 #
point $-1 48.4732380878961 -25.394892000505855 15.28042708728762 #
vertex $-1 $272 $297 #
straight-curve $-1 61.687673574022647 -42.616586746659543 0 0 0 -1 I I #
vertex $-1 $226 $298 #
point $-1 54.501719944459055 -37.696102533472775 7.0321993170682369 #
vertex $-1 $230 $299 #
point $-1 54.501719944459055 -30.315376213692627 7.0321993170682369 #
straight-curve $-1 -61.687673574022647 42.616586746659543 0 0 0 -1 I I #
point $-1 -61.687673574022647 -42.616586746659543 -15.280427087287626 #
straight-curve $-1 -61.687673574022647 0 -15.280427087287626 0 1 0 I I #
point $-1 -61.687673574022647 42.616586746659543 -15.280427087287626 #
edge $-1 $266 -3.8544057742411084 $255 3.8544057742411084 $252 $300 forward 7 unknown #
straight-curve $-1 -79.59102535290647 -12.055732572084292 0 0 0 -1 I I #
straight-curve $-1 -70.639349463464555 -19.764544120566509 15.280427087287626 1 0 0 I I #
point $-1 -79.59102535290647 -19.764544120566509 15.280427087287626 #
point $-1 -79.59102535290647 -19.764544120566509 -15.280427087287626 #
straight-curve $-1 -79.59102535290647 -15.9101383463254 -15.280427087287626 0 1 0 I I #
point $-1 -79.59102535290647 -12.055732572084292 -15.280427087287626 #
point $-1 -79.59102535290647 -12.055732572084292 15.280427087287626 #
straight-curve $-1 0 -42.616586746659543 15.280427087287626 1 0 0 I I #
straight-curve $-1 61.687673574022647 0 15.280427087287626 0 1 0 I I #
point $-1 61.687673574022647 -42.616586746659543 15.280427087287626 #
point $-1 53.088367882230187 -37.696102533472775 6.9828439911812321 #
point $-1 53.088367882230187 -30.315376213692627 6.9828439911812321 #
straight-curve $-1 -79.59102535290647 -15.9101383463254 15.280427087287626 0 -1 0 I I #
End-of-ACIS-data 