500 0 18 0           
7 Unknown 11 ACIS 5.0 NT 24 Fri Mar 26 20:40:08 1999 
-1 9.9999999999999995e-007 1e-010 
body $-1 $18 $-1 $19 #
body $-1 $20 $-1 $21 #
body $-1 $22 $-1 $23 #
body $-1 $24 $-1 $25 #
body $-1 $26 $-1 $27 #
body $-1 $28 $-1 $29 #
body $-1 $30 $-1 $31 #
body $-1 $32 $-1 $33 #
body $-1 $34 $-1 $35 #
body $-1 $36 $-1 $37 #
body $-1 $38 $-1 $39 #
body $-1 $40 $-1 $41 #
body $-1 $42 $-1 $43 #
body $-1 $44 $-1 $45 #
body $-1 $46 $-1 $47 #
body $-1 $48 $-1 $49 #
body $-1 $50 $-1 $51 #
body $-1 $52 $-1 $53 #
lump $-1 $-1 $54 $0 #
transform $-1 1 0 0 0 1 0 0 0 1 64.212164677877126 32.720827541717277 13.334383810848083 1 rotate no_reflect no_shear #
lump $-1 $-1 $55 $1 #
transform $-1 1 0 0 0 1 0 0 0 1 64.212164677877126 32.720827541717277 13.334383810848083 1 rotate no_reflect no_shear #
lump $-1 $-1 $56 $2 #
transform $-1 1 0 0 0 1 0 0 0 1 64.212164677877126 32.720827541717277 13.334383810848083 1 rotate no_reflect no_shear #
lump $-1 $-1 $57 $3 #
transform $-1 1 0 0 0 1 0 0 0 1 64.212164677877126 32.720827541717277 13.334383810848083 1 rotate no_reflect no_shear #
lump $-1 $-1 $58 $4 #
transform $-1 1 0 0 0 1 0 0 0 1 64.212164677877126 32.720827541717277 13.334383810848083 1 rotate no_reflect no_shear #
lump $-1 $-1 $59 $5 #
transform $-1 1 0 0 0 1 0 0 0 1 64.212164677877126 32.720827541717277 13.334383810848083 1 rotate no_reflect no_shear #
lump $-1 $-1 $60 $6 #
transform $-1 1 0 0 0 1 0 0 0 1 64.212164677877126 32.720827541717277 13.334383810848083 1 rotate no_reflect no_shear #
lump $-1 $-1 $61 $7 #
transform $-1 1 0 0 0 1 0 0 0 1 64.212164677877126 32.720827541717277 13.334383810848083 1 rotate no_reflect no_shear #
lump $-1 $-1 $62 $8 #
transform $-1 1 0 0 0 1 0 0 0 1 64.212164677877126 32.720827541717277 13.334383810848083 1 rotate no_reflect no_shear #
lump $-1 $-1 $63 $9 #
transform $-1 1 0 0 0 1 0 0 0 1 64.212164677877126 32.720827541717277 13.334383810848083 1 rotate no_reflect no_shear #
lump $-1 $-1 $64 $10 #
transform $-1 1 0 0 0 1 0 0 0 1 64.212164677877126 32.720827541717277 13.334383810848083 1 rotate no_reflect no_shear #
lump $-1 $-1 $65 $11 #
transform $-1 1 0 0 0 1 0 0 0 1 64.212164677877126 32.720827541717277 13.334383810848083 1 rotate no_reflect no_shear #
lump $-1 $-1 $66 $12 #
transform $-1 1 0 0 0 1 0 0 0 1 64.212164677877126 32.720827541717277 13.334383810848083 1 rotate no_reflect no_shear #
lump $-1 $-1 $67 $13 #
transform $-1 1 0 0 0 1 0 0 0 1 64.212164677877126 32.720827541717277 13.334383810848083 1 rotate no_reflect no_shear #
lump $-1 $-1 $68 $14 #
transform $-1 1 0 0 0 1 0 0 0 1 64.212164677877126 32.720827541717277 13.334383810848083 1 rotate no_reflect no_shear #
lump $-1 $-1 $69 $15 #
transform $-1 1 0 0 0 1 0 0 0 1 64.212164677877126 32.720827541717277 13.334383810848083 1 rotate no_reflect no_shear #
lump $-1 $-1 $70 $16 #
transform $-1 1 0 0 0 1 0 0 0 1 64.212164677877126 32.720827541717277 13.334383810848083 1 rotate no_reflect no_shear #
lump $-1 $-1 $71 $17 #
transform $-1 1 0 0 0 1 0 0 0 1 64.212164677877126 32.720827541717277 13.334383810848083 1 rotate no_reflect no_shear #
shell $-1 $-1 $-1 $72 $-1 $18 #
shell $-1 $-1 $-1 $73 $-1 $20 #
shell $-1 $-1 $-1 $74 $-1 $22 #
shell $-1 $-1 $-1 $75 $-1 $24 #
shell $-1 $-1 $-1 $76 $-1 $26 #
shell $-1 $-1 $-1 $77 $-1 $28 #
shell $-1 $-1 $-1 $78 $-1 $30 #
shell $-1 $-1 $-1 $79 $-1 $32 #
shell $-1 $-1 $-1 $80 $-1 $34 #
shell $-1 $-1 $-1 $81 $-1 $36 #
shell $-1 $-1 $-1 $82 $-1 $38 #
shell $-1 $-1 $-1 $83 $-1 $40 #
shell $-1 $-1 $-1 $84 $-1 $42 #
shell $-1 $-1 $-1 $85 $-1 $44 #
shell $-1 $-1 $-1 $86 $-1 $46 #
shell $-1 $-1 $-1 $87 $-1 $48 #
shell $-1 $-1 $-1 $88 $-1 $50 #
shell $-1 $-1 $-1 $89 $-1 $52 #
face $-1 $90 $91 $54 $-1 $92 forward single #
face $-1 $93 $94 $55 $-1 $95 forward single #
face $-1 $96 $97 $56 $-1 $98 forward single #
face $-1 $99 $100 $57 $-1 $101 reversed single #
face $-1 $102 $103 $58 $-1 $104 forward single #
face $-1 $105 $106 $59 $-1 $107 forward single #
face $-1 $108 $109 $60 $-1 $110 reversed single #
face $-1 $111 $112 $61 $-1 $113 forward single #
face $-1 $114 $115 $62 $-1 $116 forward single #
face $-1 $117 $118 $63 $-1 $119 forward single #
face $-1 $120 $121 $64 $-1 $122 reversed single #
face $-1 $123 $124 $65 $-1 $125 forward single #
face $-1 $126 $127 $66 $-1 $128 forward single #
face $-1 $129 $130 $67 $-1 $131 forward single #
face $-1 $132 $133 $68 $-1 $134 reversed single #
face $-1 $135 $136 $69 $-1 $137 forward single #
face $-1 $138 $139 $70 $-1 $140 forward single #
face $-1 $141 $142 $71 $-1 $143 forward single #
face $-1 $144 $145 $54 $-1 $146 reversed single #
loop $-1 $-1 $147 $72 #
plane-surface $-1 0 0 13.334383810848083 0 0 1 1 0 0 forward_v I I I I #
face $-1 $148 $149 $55 $-1 $150 reversed single #
loop $-1 $-1 $151 $73 #
plane-surface $-1 0 -32.720827541717277 0 0 1 0 0 0 1 forward_v I I I I #
face $-1 $152 $153 $56 $-1 $154 reversed single #
loop $-1 $-1 $155 $74 #
plane-surface $-1 0 32.720827541717277 0 0 -1 0 0 0 -1 forward_v I I I I #
face $-1 $156 $157 $57 $-1 $158 reversed single #
loop $-1 $-1 $159 $75 #
plane-surface $-1 51.543035710558968 15.1778768273956 186.40807102674529 0 -1 0 -0.6560590369687036 0 -0.75470957328743171 forward_v I I I I #
face $-1 $160 $161 $58 $-1 $162 forward single #
loop $-1 $163 $164 $76 #
cone-surface $-1 58.977536193943067 8.4583366212822284 8.6227273770328328 -0.6560590369687036 0 -0.75470957328743171 0.37735478664371586 0 -0.3280295184843518 1 I I 0 1 0.5 forward I I I I #
face $-1 $165 $166 $59 $-1 $167 forward single #
loop $-1 $168 $169 $77 #
cone-surface $-1 58.977536193943067 12.490060744950249 8.6227273770328328 -0.6560590369687036 0 -0.75470957328743171 0.37735478664371586 0 -0.3280295184843518 1 I I 0 1 0.5 forward I I I I #
face $-1 $170 $171 $60 $-1 $172 reversed single #
loop $-1 $-1 $173 $78 #
plane-surface $-1 -168.10963066888297 -17.019535796889265 77.5955690291417 0 1 0 -0.80901700255871778 0 0.5877852410284794 forward_v I I I I #
face $-1 $174 $175 $61 $-1 $176 forward single #
loop $-1 $177 $178 $79 #
cone-surface $-1 -59.399110770815462 -15.688637085016964 7.1876936777402936 0.80901700255871778 0 -0.5877852410284794 0.2938926205142397 0 0.40450850127935889 1 I I 0 1 0.5 forward I I I I #
face $-1 $179 $180 $62 $-1 $181 forward single #
loop $-1 $182 $183 $80 #
cone-surface $-1 -59.399110770815462 -13.692289017208513 7.1876936777402936 0.80901700255871778 0 -0.5877852410284794 0.2938926205142397 0 0.40450850127935889 1 I I 0 1 0.5 forward I I I I #
face $-1 $184 $185 $63 $-1 $186 forward single #
loop $-1 $187 $188 $81 #
cone-surface $-1 -59.399110770815462 -11.695940949400061 7.1876936777402936 0.80901700255871778 0 -0.5877852410284794 0.2938926205142397 0 0.40450850127935889 1 I I 0 1 0.5 forward I I I I #
face $-1 $189 $190 $64 $-1 $191 reversed single #
loop $-1 $-1 $192 $82 #
plane-surface $-1 -168.10963066888297 -4.1566616199304374 77.5955690291417 0 1 0 -0.80901700255871778 0 0.5877852410284794 forward_v I I I I #
face $-1 $193 $194 $65 $-1 $195 forward single #
loop $-1 $196 $197 $83 #
cone-surface $-1 -59.399110770815462 -2.8257629080581381 7.1876936777402936 0.80901700255871778 0 -0.5877852410284794 0.2938926205142397 0 0.40450850127935889 1 I I 0 1 0.5 forward I I I I #
face $-1 $198 $199 $66 $-1 $200 forward single #
loop $-1 $201 $202 $84 #
cone-surface $-1 -59.399110770815462 -0.82941484024968659 7.1876936777402936 0.80901700255871778 0 -0.5877852410284794 0.2938926205142397 0 0.40450850127935889 1 I I 0 1 0.5 forward I I I I #
face $-1 $203 $204 $67 $-1 $205 forward single #
loop $-1 $206 $207 $85 #
cone-surface $-1 -59.399110770815462 1.1669332275587649 7.1876936777402936 0.80901700255871778 0 -0.5877852410284794 0.2938926205142397 0 0.40450850127935889 1 I I 0 1 0.5 forward I I I I #
face $-1 $208 $209 $68 $-1 $210 reversed single #
loop $-1 $-1 $211 $86 #
plane-surface $-1 -168.10963066888297 8.7062125570283886 77.5955690291417 0 1 0 -0.80901700255871778 0 0.5877852410284794 forward_v I I I I #
face $-1 $212 $213 $69 $-1 $214 forward single #
loop $-1 $215 $216 $87 #
cone-surface $-1 -59.399110770815462 10.037111268900688 7.1876936777402936 0.80901700255871778 0 -0.5877852410284794 0.2938926205142397 0 0.40450850127935889 1 I I 0 1 0.5 forward I I I I #
face $-1 $217 $218 $70 $-1 $219 forward single #
loop $-1 $220 $221 $88 #
cone-surface $-1 -59.399110770815462 12.033459336709136 7.1876936777402936 0.80901700255871778 0 -0.5877852410284794 0.2938926205142397 0 0.40450850127935889 1 I I 0 1 0.5 forward I I I I #
face $-1 $222 $223 $71 $-1 $224 forward single #
loop $-1 $225 $226 $89 #
cone-surface $-1 -59.399110770815462 14.029807404517591 7.1876936777402936 0.80901700255871778 0 -0.5877852410284794 0.2938926205142397 0 0.40450850127935889 1 I I 0 1 0.5 forward I I I I #
face $-1 $227 $228 $54 $-1 $229 reversed single #
loop $-1 $-1 $230 $90 #
plane-surface $-1 0 0 -13.334383810848083 0 0 1 1 0 0 forward_v I I I I #
coedge $-1 $231 $232 $233 $234 forward $91 $-1 #
face $-1 $235 $236 $55 $-1 $237 reversed single #
loop $-1 $-1 $238 $93 #
plane-surface $-1 0 0 -13.334383810848083 0 0 1 1 0 0 forward_v I I I I #
coedge $-1 $239 $240 $241 $242 forward $94 $-1 #
face $-1 $243 $244 $56 $-1 $245 forward single #
loop $-1 $-1 $246 $96 #
plane-surface $-1 -64.212164677877126 0 0 1 0 0 0 0 -1 forward_v I I I I #
coedge $-1 $247 $248 $249 $250 forward $97 $-1 #
face $-1 $251 $252 $57 $-1 $253 reversed single #
loop $-1 $-1 $254 $99 #
plane-surface $-1 -32.710906129928773 10.474198683116242 89.485000218939405 0.6560590369687036 0 0.75470957328743171 0.75470957328743171 0 -0.6560590369687036 forward_v I I I I #
coedge $-1 $255 $256 $257 $258 reversed $100 $-1 #
face $-1 $-1 $259 $58 $-1 $260 forward single #
loop $-1 $261 $262 $102 #
cone-surface $-1 58.239797636685239 8.4583366212822284 7.7740562660939201 -0.6560590369687036 0 -0.75470957328743171 0.18867739332185793 0 -0.1640147592421759 1 I I -0.70710678118654746 0.70710678118654746 0.25 forward I I I I #
loop $-1 $-1 $263 $76 #
coedge $-1 $164 $164 $264 $265 reversed $103 $-1 #
face $-1 $-1 $266 $59 $-1 $267 forward single #
loop $-1 $268 $269 $105 #
cone-surface $-1 58.239797636685239 12.490060744950249 7.7740562660939201 -0.6560590369687036 0 -0.75470957328743171 0.18867739332185793 0 -0.1640147592421759 1 I I -0.70710678118654746 0.70710678118654746 0.25 forward I I I I #
loop $-1 $-1 $270 $77 #
coedge $-1 $169 $169 $271 $272 reversed $106 $-1 #
face $-1 $273 $274 $60 $-1 $275 reversed single #
loop $-1 $-1 $276 $108 #
plane-surface $-1 -64.212164677877112 -13.692289017208509 2.1096436448488589 -0.80901700255871778 0 0.5877852410284794 0.5877852410284794 0 0.80901700255871778 forward_v I I I I #
coedge $-1 $277 $278 $279 $280 reversed $109 $-1 #
face $-1 $-1 $281 $61 $-1 $282 forward single #
loop $-1 $283 $284 $111 #
cone-surface $-1 -58.461428041928912 -15.688637085016964 6.5064273173749907 0.80901700255871778 0 -0.5877852410284794 0.14694631025711985 0 0.20225425063967944 1 I I -0.70710678118654746 0.70710678118654746 0.25 forward I I I I #
loop $-1 $-1 $285 $79 #
coedge $-1 $178 $178 $286 $287 reversed $112 $-1 #
face $-1 $-1 $288 $62 $-1 $289 forward single #
loop $-1 $290 $291 $114 #
cone-surface $-1 -58.461428041928912 -13.692289017208513 6.5064273173749907 0.80901700255871778 0 -0.5877852410284794 0.14694631025711985 0 0.20225425063967944 1 I I -0.70710678118654746 0.70710678118654746 0.25 forward I I I I #
loop $-1 $-1 $292 $80 #
coedge $-1 $183 $183 $293 $294 reversed $115 $-1 #
face $-1 $-1 $295 $63 $-1 $296 forward single #
loop $-1 $297 $298 $117 #
cone-surface $-1 -58.461428041928912 -11.695940949400061 6.5064273173749907 0.80901700255871778 0 -0.5877852410284794 0.14694631025711985 0 0.20225425063967944 1 I I -0.70710678118654746 0.70710678118654746 0.25 forward I I I I #
loop $-1 $-1 $299 $81 #
coedge $-1 $188 $188 $300 $301 reversed $118 $-1 #
face $-1 $302 $303 $64 $-1 $304 reversed single #
loop $-1 $-1 $305 $120 #
plane-surface $-1 -64.212164677877112 -0.82941484024968304 2.1096436448488589 -0.80901700255871778 0 0.5877852410284794 0.5877852410284794 0 0.80901700255871778 forward_v I I I I #
coedge $-1 $306 $307 $308 $309 reversed $121 $-1 #
face $-1 $-1 $310 $65 $-1 $311 forward single #
loop $-1 $312 $313 $123 #
cone-surface $-1 -58.461428041928912 -2.8257629080581381 6.5064273173749907 0.80901700255871778 0 -0.5877852410284794 0.14694631025711985 0 0.20225425063967944 1 I I -0.70710678118654746 0.70710678118654746 0.25 forward I I I I #
loop $-1 $-1 $314 $83 #
coedge $-1 $197 $197 $315 $316 reversed $124 $-1 #
face $-1 $-1 $317 $66 $-1 $318 forward single #
loop $-1 $319 $320 $126 #
cone-surface $-1 -58.461428041928912 -0.82941484024968659 6.5064273173749907 0.80901700255871778 0 -0.5877852410284794 0.14694631025711985 0 0.20225425063967944 1 I I -0.70710678118654746 0.70710678118654746 0.25 forward I I I I #
loop $-1 $-1 $321 $84 #
coedge $-1 $202 $202 $322 $323 reversed $127 $-1 #
face $-1 $-1 $324 $67 $-1 $325 forward single #
loop $-1 $326 $327 $129 #
cone-surface $-1 -58.461428041928912 1.1669332275587649 6.5064273173749907 0.80901700255871778 0 -0.5877852410284794 0.14694631025711985 0 0.20225425063967944 1 I I -0.70710678118654746 0.70710678118654746 0.25 forward I I I I #
loop $-1 $-1 $328 $85 #
coedge $-1 $207 $207 $329 $330 reversed $130 $-1 #
face $-1 $331 $332 $68 $-1 $333 reversed single #
loop $-1 $-1 $334 $132 #
plane-surface $-1 -64.212164677877112 12.033459336709143 2.1096436448488589 -0.80901700255871778 0 0.5877852410284794 0.5877852410284794 0 0.80901700255871778 forward_v I I I I #
coedge $-1 $335 $336 $337 $338 reversed $133 $-1 #
face $-1 $-1 $339 $69 $-1 $340 forward single #
loop $-1 $341 $342 $135 #
cone-surface $-1 -58.461428041928912 10.037111268900688 6.5064273173749907 0.80901700255871778 0 -0.5877852410284794 0.14694631025711985 0 0.20225425063967944 1 I I -0.70710678118654746 0.70710678118654746 0.25 forward I I I I #
loop $-1 $-1 $343 $87 #
coedge $-1 $216 $216 $344 $345 reversed $136 $-1 #
face $-1 $-1 $346 $70 $-1 $347 forward single #
loop $-1 $348 $349 $138 #
cone-surface $-1 -58.461428041928912 12.033459336709136 6.5064273173749907 0.80901700255871778 0 -0.5877852410284794 0.14694631025711985 0 0.20225425063967944 1 I I -0.70710678118654746 0.70710678118654746 0.25 forward I I I I #
loop $-1 $-1 $350 $88 #
coedge $-1 $221 $221 $351 $352 reversed $139 $-1 #
face $-1 $-1 $353 $71 $-1 $354 forward single #
loop $-1 $355 $356 $141 #
cone-surface $-1 -58.461428041928912 14.029807404517591 6.5064273173749907 0.80901700255871778 0 -0.5877852410284794 0.14694631025711985 0 0.20225425063967944 1 I I -0.70710678118654746 0.70710678118654746 0.25 forward I I I I #
loop $-1 $-1 $357 $89 #
coedge $-1 $226 $226 $358 $359 reversed $142 $-1 #
face $-1 $360 $361 $54 $-1 $362 reversed single #
loop $-1 $-1 $363 $144 #
plane-surface $-1 0 -32.720827541717277 0 0 1 0 0 0 1 forward_v I I I I #
coedge $-1 $364 $365 $366 $367 forward $145 $-1 #
coedge $-1 $368 $147 $369 $370 forward $91 $-1 #
coedge $-1 $147 $368 $371 $372 forward $91 $-1 #
coedge $-1 $373 $374 $147 $234 reversed $375 $-1 #
edge $-1 $376 -32.720827541717277 $377 32.720827541717277 $233 $378 forward 7 unknown #
face $-1 $379 $380 $55 $-1 $381 forward single #
loop $-1 $-1 $382 $148 #
plane-surface $-1 64.212164677877126 0 0 -1 0 0 0 0 1 forward_v I I I I #
coedge $-1 $383 $384 $385 $386 forward $149 $-1 #
coedge $-1 $385 $151 $382 $387 reversed $94 $-1 #
coedge $-1 $151 $385 $388 $389 reversed $94 $-1 #
coedge $-1 $390 $391 $151 $242 reversed $380 $-1 #
edge $-1 $392 -64.212164677877126 $393 64.212164677877126 $241 $394 forward 7 unknown #
face $-1 $395 $396 $56 $-1 $397 reversed single #
loop $-1 $-1 $398 $152 #
plane-surface $-1 0 39.4340856798568 -5.390725896955546 0 0 1 1 0 0 forward_v I I I I #
coedge $-1 $399 $400 $247 $401 forward $153 $-1 #
coedge $-1 $402 $155 $246 $401 reversed $97 $-1 #
coedge $-1 $155 $402 $403 $404 reversed $97 $-1 #
coedge $-1 $398 $405 $155 $250 reversed $244 $-1 #
edge $-1 $406 -64.212164677877126 $407 64.212164677877126 $249 $408 forward 7 unknown #
face $-1 $409 $410 $57 $-1 $411 forward single #
loop $-1 $-1 $412 $156 #
plane-surface $-1 51.543035710558968 5.7705205388368839 186.40807102674529 0 1 0 0.6560590369687036 0 0.75470957328743171 forward_v I I I I #
coedge $-1 $413 $414 $415 $416 reversed $157 $-1 #
coedge $-1 $256 $159 $417 $418 reversed $100 $-1 #
coedge $-1 $159 $255 $413 $419 reversed $100 $-1 #
coedge $-1 $415 $420 $159 $258 forward $410 $-1 #
edge $-1 $421 -38.440646822597643 $422 -29.118837450760807 $257 $423 forward 7 unknown #
loop $-1 $-1 $264 $160 #
plane-surface $-1 -32.710906129928773 10.474198683116242 89.485000218939405 0.6560590369687036 0 0.75470957328743171 0.75470957328743171 0 -0.6560590369687036 forward_v I I I I #
loop $-1 $-1 $424 $102 #
coedge $-1 $262 $262 $263 $425 reversed $161 $-1 #
coedge $-1 $263 $263 $262 $425 forward $163 $-1 #
coedge $-1 $264 $264 $164 $265 forward $259 $-1 #
edge $-1 $426 0 $426 6.2831853071796004 $264 $427 forward 7 unknown #
loop $-1 $-1 $271 $165 #
plane-surface $-1 -32.710906129928773 10.474198683116242 89.485000218939405 0.6560590369687036 0 0.75470957328743171 0.75470957328743171 0 -0.6560590369687036 forward_v I I I I #
loop $-1 $-1 $428 $105 #
coedge $-1 $269 $269 $270 $429 reversed $166 $-1 #
coedge $-1 $270 $270 $269 $429 forward $168 $-1 #
coedge $-1 $271 $271 $169 $272 forward $266 $-1 #
edge $-1 $430 0 $430 6.2831853071796004 $271 $431 forward 7 unknown #
face $-1 $432 $433 $60 $-1 $434 reversed single #
loop $-1 $-1 $435 $170 #
plane-surface $-1 -168.10963066888297 -10.365042237527755 77.5955690291417 0 -1 0 0.80901700255871778 0 -0.5877852410284794 forward_v I I I I #
coedge $-1 $436 $437 $438 $439 reversed $171 $-1 #
coedge $-1 $278 $173 $440 $441 reversed $109 $-1 #
coedge $-1 $173 $277 $436 $442 reversed $109 $-1 #
coedge $-1 $438 $443 $173 $280 forward $444 $-1 #
edge $-1 $445 19.842650656564359 $446 27.99790151419397 $279 $447 forward 7 unknown #
loop $-1 $-1 $286 $174 #
plane-surface $-1 -64.212164677877112 -13.692289017208509 2.1096436448488589 -0.80901700255871778 0 0.5877852410284794 0.5877852410284794 0 0.80901700255871778 forward_v I I I I #
loop $-1 $-1 $448 $111 #
coedge $-1 $284 $284 $285 $449 reversed $175 $-1 #
coedge $-1 $285 $285 $284 $449 forward $177 $-1 #
coedge $-1 $286 $286 $178 $287 forward $281 $-1 #
edge $-1 $450 0 $450 6.2831853071796004 $286 $451 forward 7 unknown #
loop $-1 $-1 $293 $179 #
plane-surface $-1 -64.212164677877112 -13.692289017208509 2.1096436448488589 -0.80901700255871778 0 0.5877852410284794 0.5877852410284794 0 0.80901700255871778 forward_v I I I I #
loop $-1 $-1 $452 $114 #
coedge $-1 $291 $291 $292 $453 reversed $180 $-1 #
coedge $-1 $292 $292 $291 $453 forward $182 $-1 #
coedge $-1 $293 $293 $183 $294 forward $288 $-1 #
edge $-1 $454 0 $454 6.2831853071796004 $293 $455 forward 7 unknown #
loop $-1 $-1 $300 $184 #
plane-surface $-1 -64.212164677877112 -13.692289017208509 2.1096436448488589 -0.80901700255871778 0 0.5877852410284794 0.5877852410284794 0 0.80901700255871778 forward_v I I I I #
loop $-1 $-1 $456 $117 #
coedge $-1 $298 $298 $299 $457 reversed $185 $-1 #
coedge $-1 $299 $299 $298 $457 forward $187 $-1 #
coedge $-1 $300 $300 $188 $301 forward $295 $-1 #
edge $-1 $458 0 $458 6.2831853071796004 $300 $459 forward 7 unknown #
face $-1 $460 $461 $64 $-1 $462 forward single #
loop $-1 $-1 $463 $189 #
plane-surface $-1 -168.10963066888297 2.4978319394310713 77.5955690291417 0 -1 0 0.80901700255871778 0 -0.5877852410284794 forward_v I I I I #
coedge $-1 $464 $465 $466 $467 reversed $190 $-1 #
coedge $-1 $307 $192 $468 $469 reversed $121 $-1 #
coedge $-1 $192 $306 $464 $470 reversed $121 $-1 #
coedge $-1 $466 $471 $192 $309 forward $461 $-1 #
edge $-1 $472 19.842650656564359 $473 27.99790151419397 $308 $474 forward 7 unknown #
loop $-1 $-1 $315 $193 #
plane-surface $-1 -64.212164677877112 -0.82941484024968304 2.1096436448488589 -0.80901700255871778 0 0.5877852410284794 0.5877852410284794 0 0.80901700255871778 forward_v I I I I #
loop $-1 $-1 $475 $123 #
coedge $-1 $313 $313 $314 $476 reversed $194 $-1 #
coedge $-1 $314 $314 $313 $476 forward $196 $-1 #
coedge $-1 $315 $315 $197 $316 forward $310 $-1 #
edge $-1 $477 0 $477 6.2831853071796004 $315 $478 forward 7 unknown #
loop $-1 $-1 $322 $198 #
plane-surface $-1 -64.212164677877112 -0.82941484024968304 2.1096436448488589 -0.80901700255871778 0 0.5877852410284794 0.5877852410284794 0 0.80901700255871778 forward_v I I I I #
loop $-1 $-1 $479 $126 #
coedge $-1 $320 $320 $321 $480 reversed $199 $-1 #
coedge $-1 $321 $321 $320 $480 forward $201 $-1 #
coedge $-1 $322 $322 $202 $323 forward $317 $-1 #
edge $-1 $481 0 $481 6.2831853071796004 $322 $482 forward 7 unknown #
loop $-1 $-1 $329 $203 #
plane-surface $-1 -64.212164677877112 -0.82941484024968304 2.1096436448488589 -0.80901700255871778 0 0.5877852410284794 0.5877852410284794 0 0.80901700255871778 forward_v I I I I #
loop $-1 $-1 $483 $129 #
coedge $-1 $327 $327 $328 $484 reversed $204 $-1 #
coedge $-1 $328 $328 $327 $484 forward $206 $-1 #
coedge $-1 $329 $329 $207 $330 forward $324 $-1 #
edge $-1 $485 0 $485 6.2831853071796004 $329 $486 forward 7 unknown #
face $-1 $487 $488 $68 $-1 $489 forward single #
loop $-1 $-1 $490 $208 #
plane-surface $-1 -168.10963066888297 15.360706116389897 77.5955690291417 0 -1 0 0.80901700255871778 0 -0.5877852410284794 forward_v I I I I #
coedge $-1 $491 $492 $493 $494 reversed $209 $-1 #
coedge $-1 $336 $211 $495 $496 reversed $133 $-1 #
coedge $-1 $211 $335 $491 $497 reversed $133 $-1 #
coedge $-1 $493 $498 $211 $338 forward $488 $-1 #
edge $-1 $499 19.842650656564359 $500 27.99790151419397 $337 $501 forward 7 unknown #
loop $-1 $-1 $344 $212 #
plane-surface $-1 -64.212164677877112 12.033459336709143 2.1096436448488589 -0.80901700255871778 0 0.5877852410284794 0.5877852410284794 0 0.80901700255871778 forward_v I I I I #
loop $-1 $-1 $502 $135 #
coedge $-1 $342 $342 $343 $503 reversed $213 $-1 #
coedge $-1 $343 $343 $342 $503 forward $215 $-1 #
coedge $-1 $344 $344 $216 $345 forward $339 $-1 #
edge $-1 $504 0 $504 6.2831853071796004 $344 $505 forward 7 unknown #
loop $-1 $-1 $351 $217 #
plane-surface $-1 -64.212164677877112 12.033459336709143 2.1096436448488589 -0.80901700255871778 0 0.5877852410284794 0.5877852410284794 0 0.80901700255871778 forward_v I I I I #
loop $-1 $-1 $506 $138 #
coedge $-1 $349 $349 $350 $507 reversed $218 $-1 #
coedge $-1 $350 $350 $349 $507 forward $220 $-1 #
coedge $-1 $351 $351 $221 $352 forward $346 $-1 #
edge $-1 $508 0 $508 6.2831853071796004 $351 $509 forward 7 unknown #
loop $-1 $-1 $358 $222 #
plane-surface $-1 -64.212164677877112 12.033459336709143 2.1096436448488589 -0.80901700255871778 0 0.5877852410284794 0.5877852410284794 0 0.80901700255871778 forward_v I I I I #
loop $-1 $-1 $510 $141 #
coedge $-1 $356 $356 $357 $511 reversed $223 $-1 #
coedge $-1 $357 $357 $356 $511 forward $225 $-1 #
coedge $-1 $358 $358 $226 $359 forward $353 $-1 #
edge $-1 $512 0 $512 6.2831853071796004 $358 $513 forward 7 unknown #
face $-1 $514 $515 $54 $-1 $516 reversed single #
loop $-1 $-1 $517 $227 #
plane-surface $-1 -64.212164677877126 0 0 1 0 0 0 0 -1 forward_v I I I I #
coedge $-1 $518 $371 $519 $520 forward $228 $-1 #
coedge $-1 $521 $230 $518 $522 forward $145 $-1 #
coedge $-1 $230 $521 $523 $524 forward $145 $-1 #
coedge $-1 $374 $373 $230 $367 reversed $375 $-1 #
edge $-1 $525 -32.720827541717277 $526 32.720827541717277 $366 $527 forward 7 unknown #
coedge $-1 $232 $231 $528 $529 forward $91 $-1 #
coedge $-1 $530 $531 $231 $370 reversed $515 $-1 #
edge $-1 $377 -64.212164677877126 $532 64.212164677877126 $369 $533 forward 7 unknown #
coedge $-1 $363 $534 $232 $372 reversed $228 $-1 #
edge $-1 $535 -64.212164677877126 $376 64.212164677877126 $371 $536 forward 7 unknown #
coedge $-1 $366 $233 $534 $537 forward $375 $-1 #
coedge $-1 $233 $366 $530 $538 reversed $375 $-1 #
loop $-1 $-1 $373 $514 #
vertex $-1 $234 $539 #
vertex $-1 $234 $540 #
straight-curve $-1 64.212164677877126 0 13.334383810848083 0 1 0 I I #
face $-1 $541 $542 $55 $-1 $543 reversed single #
loop $-1 $-1 $391 $235 #
plane-surface $-1 0 -39.434085679856793 -5.390725896955546 0 0 1 1 0 0 forward_v I I I I #
coedge $-1 $544 $545 $239 $387 forward $236 $-1 #
coedge $-1 $546 $238 $545 $547 forward $149 $-1 #
coedge $-1 $238 $546 $548 $549 forward $149 $-1 #
coedge $-1 $240 $239 $238 $386 reversed $94 $-1 #
edge $-1 $550 -64.212164677877126 $551 64.212164677877126 $238 $552 forward 7 unknown #
edge $-1 $551 -13.334383810848083 $393 -5.390725896955546 $382 $553 forward 7 unknown #
coedge $-1 $548 $554 $240 $389 forward $555 $-1 #
edge $-1 $392 5.390725896955546 $550 13.334383810848083 $388 $556 forward 7 unknown #
coedge $-1 $557 $241 $554 $558 forward $380 $-1 #
coedge $-1 $241 $557 $544 $559 forward $380 $-1 #
vertex $-1 $389 $560 #
vertex $-1 $559 $561 #
straight-curve $-1 0 -32.720827541717277 -5.390725896955546 1 0 0 I I #
face $-1 $562 $563 $56 $-1 $564 reversed single #
loop $-1 $-1 $565 $243 #
plane-surface $-1 0 46.147343817996315 -9.3625548539018144 0 -1 0 0 0 -1 forward_v I I I I #
coedge $-1 $566 $249 $567 $568 forward $244 $-1 #
coedge $-1 $569 $246 $405 $570 reversed $153 $-1 #
coedge $-1 $246 $569 $571 $572 reversed $153 $-1 #
edge $-1 $573 -13.334383810848083 $407 -5.390725896955546 $246 $574 forward 7 unknown #
coedge $-1 $248 $247 $575 $576 reversed $97 $-1 #
coedge $-1 $577 $567 $248 $404 forward $578 $-1 #
edge $-1 $406 5.390725896955546 $579 13.334383810848083 $403 $580 forward 7 unknown #
coedge $-1 $249 $566 $399 $570 forward $244 $-1 #
vertex $-1 $404 $581 #
vertex $-1 $570 $582 #
straight-curve $-1 0 32.720827541717277 -5.390725896955546 -1 0 0 I I #
face $-1 $-1 $583 $57 $-1 $584 reversed single #
loop $-1 $-1 $257 $251 #
plane-surface $-1 0 0 13.334383810848083 0 0 1 1 0 0 forward_v I I I I #
coedge $-1 $585 $586 $587 $588 reversed $252 $-1 #
coedge $-1 $589 $254 $256 $419 forward $157 $-1 #
coedge $-1 $254 $589 $585 $590 forward $157 $-1 #
coedge $-1 $587 $257 $254 $416 forward $410 $-1 #
edge $-1 $422 -9.9407774858374793 $591 -0.5334211972787628 $415 $592 forward 7 unknown #
coedge $-1 $593 $594 $255 $418 forward $583 $-1 #
edge $-1 $595 -87.97297713492101 $421 -79.869651702524564 $417 $596 forward 7 unknown #
edge $-1 $422 116.07281070304651 $595 128.42432935575431 $256 $597 forward 7 unknown #
coedge $-1 $257 $587 $593 $598 forward $410 $-1 #
vertex $-1 $418 $599 #
vertex $-1 $258 $600 #
straight-curve $-1 25.771517855279484 15.1778768273956 13.334383810848081 -1 0 0 I I #
coedge $-1 $424 $424 $-1 $601 reversed $261 $-1 #
edge $-1 $602 0 $602 6.2831853071796004 $262 $603 forward 7 unknown #
vertex $-1 $265 $604 #
ellipse-curve $-1 59.551259991958702 8.4583366212822284 9.2827210946498688 0.6560590369687036 0 0.75470957328743171 0.37735478664371586 0 -0.3280295184843518 1 I I #
coedge $-1 $428 $428 $-1 $605 reversed $268 $-1 #
edge $-1 $606 0 $606 6.2831853071796004 $269 $607 forward 7 unknown #
vertex $-1 $272 $608 #
ellipse-curve $-1 59.551259991958702 12.490060744950249 9.2827210946498688 0.6560590369687036 0 0.75470957328743171 0.37735478664371586 0 -0.3280295184843518 1 I I #
face $-1 $-1 $444 $60 $-1 $609 forward single #
loop $-1 $-1 $610 $273 #
plane-surface $-1 -64.212164677877126 0 0 1 0 0 0 0 -1 forward_v I I I I #
coedge $-1 $611 $612 $613 $614 reversed $274 $-1 #
coedge $-1 $615 $276 $278 $442 forward $171 $-1 #
coedge $-1 $276 $615 $611 $616 forward $171 $-1 #
coedge $-1 $613 $279 $276 $439 forward $444 $-1 #
edge $-1 $446 -10.173391288285011 $617 -3.5188977289235002 $438 $618 forward 7 unknown #
coedge $-1 $619 $620 $277 $441 forward $433 $-1 #
edge $-1 $621 -36.688140869722012 $445 -25.463400703722769 $440 $622 forward 7 unknown #
edge $-1 $446 -13.874541734596662 $621 2.4161062406544664e-014 $278 $623 forward 7 unknown #
coedge $-1 $279 $613 $619 $624 forward $444 $-1 #
loop $-1 $-1 $613 $432 #
vertex $-1 $441 $625 #
vertex $-1 $280 $626 #
straight-curve $-1 -84.054815334441486 -17.019535796889265 13.334383810848081 1 0 0 I I #
coedge $-1 $448 $448 $-1 $627 reversed $283 $-1 #
edge $-1 $628 0 $628 6.2831853071796004 $284 $629 forward 7 unknown #
vertex $-1 $287 $630 #
ellipse-curve $-1 -60.134539249062321 -15.688637085016964 7.7220137278484646 -0.80901700255871778 0 0.5877852410284794 0.2938926205142397 0 0.40450850127935889 1 I I #
coedge $-1 $452 $452 $-1 $631 reversed $290 $-1 #
edge $-1 $632 0 $632 6.2831853071796004 $291 $633 forward 7 unknown #
vertex $-1 $294 $634 #
ellipse-curve $-1 -60.134539249062321 -13.692289017208513 7.7220137278484646 -0.80901700255871778 0 0.5877852410284794 0.2938926205142397 0 0.40450850127935889 1 I I #
coedge $-1 $456 $456 $-1 $635 reversed $297 $-1 #
edge $-1 $636 0 $636 6.2831853071796004 $298 $637 forward 7 unknown #
vertex $-1 $301 $638 #
ellipse-curve $-1 -60.134539249062321 -11.695940949400061 7.7220137278484646 -0.80901700255871778 0 0.5877852410284794 0.2938926205142397 0 0.40450850127935889 1 I I #
face $-1 $-1 $639 $64 $-1 $640 reversed single #
loop $-1 $-1 $308 $302 #
plane-surface $-1 0 0 13.334383810848083 0 0 1 1 0 0 forward_v I I I I #
coedge $-1 $641 $642 $643 $644 reversed $303 $-1 #
coedge $-1 $645 $305 $307 $470 forward $190 $-1 #
coedge $-1 $305 $645 $641 $646 forward $190 $-1 #
coedge $-1 $643 $308 $305 $467 forward $461 $-1 #
edge $-1 $473 -3.7419541998055958 $647 2.9125393595559128 $466 $648 forward 7 unknown #
coedge $-1 $649 $650 $306 $469 forward $639 $-1 #
edge $-1 $651 -36.688140869722012 $472 -25.463400703722769 $468 $652 forward 7 unknown #
edge $-1 $473 -13.874541734596662 $651 2.4161062406544664e-014 $307 $653 forward 7 unknown #
coedge $-1 $308 $643 $649 $654 forward $461 $-1 #
vertex $-1 $309 $655 #
vertex $-1 $309 $656 #
straight-curve $-1 -84.054815334441486 -4.1566616199304374 13.334383810848081 1 0 0 I I #
coedge $-1 $475 $475 $-1 $657 reversed $312 $-1 #
edge $-1 $658 0 $658 6.2831853071796004 $313 $659 forward 7 unknown #
vertex $-1 $316 $660 #
ellipse-curve $-1 -60.134539249062321 -2.8257629080581381 7.7220137278484646 -0.80901700255871778 0 0.5877852410284794 0.2938926205142397 0 0.40450850127935889 1 I I #
coedge $-1 $479 $479 $-1 $661 reversed $319 $-1 #
edge $-1 $662 0 $662 6.2831853071796004 $320 $663 forward 7 unknown #
vertex $-1 $323 $664 #
ellipse-curve $-1 -60.134539249062321 -0.82941484024968659 7.7220137278484646 -0.80901700255871778 0 0.5877852410284794 0.2938926205142397 0 0.40450850127935889 1 I I #
coedge $-1 $483 $483 $-1 $665 reversed $326 $-1 #
edge $-1 $666 0 $666 6.2831853071796004 $327 $667 forward 7 unknown #
vertex $-1 $330 $668 #
ellipse-curve $-1 -60.134539249062321 1.1669332275587649 7.7220137278484646 -0.80901700255871778 0 0.5877852410284794 0.2938926205142397 0 0.40450850127935889 1 I I #
face $-1 $-1 $669 $68 $-1 $670 reversed single #
loop $-1 $-1 $337 $331 #
plane-surface $-1 0 0 13.334383810848083 0 0 1 1 0 0 forward_v I I I I #
coedge $-1 $671 $672 $673 $674 reversed $332 $-1 #
coedge $-1 $675 $334 $336 $497 forward $209 $-1 #
coedge $-1 $334 $675 $671 $676 forward $209 $-1 #
coedge $-1 $673 $337 $334 $494 forward $488 $-1 #
edge $-1 $500 2.6894828886738171 $677 9.3439764480353258 $493 $678 forward 7 unknown #
coedge $-1 $679 $680 $335 $496 forward $669 $-1 #
edge $-1 $681 -36.688140869722012 $499 -25.463400703722769 $495 $682 forward 7 unknown #
edge $-1 $500 -13.874541734596662 $681 2.4161062406544664e-014 $336 $683 forward 7 unknown #
coedge $-1 $337 $673 $679 $684 forward $488 $-1 #
vertex $-1 $338 $685 #
vertex $-1 $338 $686 #
straight-curve $-1 -84.054815334441486 8.7062125570283886 13.334383810848081 1 0 0 I I #
coedge $-1 $502 $502 $-1 $687 reversed $341 $-1 #
edge $-1 $688 0 $688 6.2831853071796004 $342 $689 forward 7 unknown #
vertex $-1 $345 $690 #
ellipse-curve $-1 -60.134539249062321 10.037111268900688 7.7220137278484646 -0.80901700255871778 0 0.5877852410284794 0.2938926205142397 0 0.40450850127935889 1 I I #
coedge $-1 $506 $506 $-1 $691 reversed $348 $-1 #
edge $-1 $692 0 $692 6.2831853071796004 $349 $693 forward 7 unknown #
vertex $-1 $352 $694 #
ellipse-curve $-1 -60.134539249062321 12.033459336709136 7.7220137278484646 -0.80901700255871778 0 0.5877852410284794 0.2938926205142397 0 0.40450850127935889 1 I I #
coedge $-1 $510 $510 $-1 $695 reversed $355 $-1 #
edge $-1 $696 0 $696 6.2831853071796004 $356 $697 forward 7 unknown #
vertex $-1 $359 $698 #
ellipse-curve $-1 -60.134539249062321 14.029807404517591 7.7220137278484646 -0.80901700255871778 0 0.5877852410284794 0.2938926205142397 0 0.40450850127935889 1 I I #
face $-1 $-1 $375 $54 $-1 $699 reversed single #
loop $-1 $-1 $530 $360 #
plane-surface $-1 0 32.720827541717277 0 0 -1 0 0 0 -1 forward_v I I I I #
coedge $-1 $700 $528 $531 $701 forward $361 $-1 #
coedge $-1 $534 $363 $364 $522 reversed $228 $-1 #
coedge $-1 $528 $700 $363 $520 reversed $361 $-1 #
edge $-1 $535 -13.334383810848083 $702 13.334383810848083 $519 $703 forward 7 unknown #
coedge $-1 $365 $364 $700 $704 forward $145 $-1 #
edge $-1 $526 -64.212164677877126 $702 64.212164677877126 $518 $705 forward 7 unknown #
coedge $-1 $531 $530 $365 $524 reversed $515 $-1 #
edge $-1 $706 -64.212164677877126 $525 64.212164677877126 $523 $707 forward 7 unknown #
vertex $-1 $367 $708 #
vertex $-1 $537 $709 #
straight-curve $-1 64.212164677877126 0 -13.334383810848083 0 -1 0 I I #
coedge $-1 $517 $519 $368 $529 reversed $361 $-1 #
edge $-1 $532 -32.720827541717277 $535 32.720827541717277 $528 $710 forward 7 unknown #
coedge $-1 $523 $369 $374 $538 forward $515 $-1 #
coedge $-1 $369 $523 $517 $701 reversed $515 $-1 #
vertex $-1 $370 $711 #
straight-curve $-1 0 32.720827541717277 13.334383810848083 -1 0 0 I I #
coedge $-1 $371 $518 $373 $537 reversed $228 $-1 #
vertex $-1 $529 $712 #
straight-curve $-1 0 -32.720827541717277 13.334383810848083 1 0 0 I I #
edge $-1 $376 -13.334383810848083 $526 13.334383810848083 $373 $713 forward 7 unknown #
edge $-1 $377 -13.334383810848083 $525 13.334383810848083 $374 $714 forward 7 unknown #
point $-1 64.212164677877126 -32.720827541717277 13.334383810848083 #
point $-1 64.212164677877126 32.720827541717277 13.334383810848083 #
face $-1 $-1 $555 $55 $-1 $715 reversed single #
loop $-1 $-1 $716 $379 #
plane-surface $-1 0 -46.147343817996308 -9.3625548539018144 0 1 0 0 0 1 forward_v I I I I #
coedge $-1 $717 $382 $391 $559 reversed $236 $-1 #
coedge $-1 $382 $717 $383 $547 reversed $236 $-1 #
coedge $-1 $384 $383 $718 $719 forward $149 $-1 #
edge $-1 $551 32.720827541717277 $720 46.147343817996308 $545 $721 forward 7 unknown #
coedge $-1 $722 $388 $384 $549 reversed $555 $-1 #
edge $-1 $723 -46.147343817996308 $550 -32.720827541717277 $548 $724 forward 7 unknown #
vertex $-1 $389 $725 #
vertex $-1 $547 $726 #
straight-curve $-1 0 -32.720827541717277 -13.334383810848083 1 0 0 I I #
straight-curve $-1 64.212164677877126 -32.720827541717277 0 0 0 1 I I #
coedge $-1 $388 $722 $390 $558 reversed $555 $-1 #
loop $-1 $-1 $388 $541 #
straight-curve $-1 -64.212164677877126 -32.720827541717277 0 0 0 -1 I I #
coedge $-1 $391 $390 $727 $728 forward $380 $-1 #
edge $-1 $392 -6.7132581381395156 $729 6.7132581381395156 $554 $730 forward 7 unknown #
edge $-1 $731 -6.7132581381395156 $393 6.7132581381395156 $544 $732 forward 7 unknown #
point $-1 -64.212164677877126 -32.720827541717277 -5.390725896955546 #
point $-1 64.212164677877126 -32.720827541717277 -5.390725896955546 #
face $-1 $-1 $578 $56 $-1 $733 reversed single #
loop $-1 $-1 $575 $395 #
plane-surface $-1 0 0 -13.334383810848083 0 0 1 1 0 0 forward_v I I I I #
coedge $-1 $734 $735 $736 $737 forward $396 $-1 #
coedge $-1 $405 $398 $735 $738 forward $244 $-1 #
coedge $-1 $403 $736 $398 $568 reversed $578 $-1 #
edge $-1 $406 -6.7132581381395156 $739 6.7132581381395156 $567 $740 forward 7 unknown #
coedge $-1 $400 $399 $741 $742 forward $153 $-1 #
edge $-1 $743 -6.7132581381395156 $407 6.7132581381395156 $399 $744 forward 7 unknown #
coedge $-1 $745 $575 $400 $572 forward $563 $-1 #
edge $-1 $573 -6.7132581381395227 $746 6.7132581381395156 $400 $747 forward 7 unknown #
vertex $-1 $572 $748 #
straight-curve $-1 -64.212164677877126 32.720827541717277 0 0 0 1 I I #
coedge $-1 $571 $749 $402 $576 forward $563 $-1 #
edge $-1 $579 -64.212164677877126 $573 64.212164677877126 $575 $750 forward 7 unknown #
coedge $-1 $736 $403 $749 $751 reversed $578 $-1 #
loop $-1 $-1 $403 $562 #
vertex $-1 $404 $752 #
straight-curve $-1 64.212164677877126 32.720827541717277 0 0 0 -1 I I #
point $-1 64.212164677877126 32.720827541717284 -5.390725896955546 #
point $-1 -64.212164677877126 32.720827541717284 -5.390725896955546 #
loop $-1 $-1 $417 $409 #
plane-surface $-1 64.212164677877126 0 0 -1 0 0 0 0 1 forward_v I I I I #
coedge $-1 $586 $412 $414 $590 reversed $252 $-1 #
coedge $-1 $412 $585 $753 $754 reversed $252 $-1 #
coedge $-1 $420 $415 $412 $588 forward $410 $-1 #
edge $-1 $591 29.118837450760807 $755 38.440646822597643 $587 $756 forward 7 unknown #
coedge $-1 $414 $413 $594 $757 reversed $157 $-1 #
edge $-1 $758 -128.42432935575431 $591 -116.07281070304651 $585 $759 forward 7 unknown #
vertex $-1 $416 $760 #
straight-curve $-1 54.890355306040291 5.2370993415581211 13.334383810848095 0 -1 0 I I #
coedge $-1 $753 $417 $420 $598 reversed $583 $-1 #
coedge $-1 $417 $753 $589 $757 forward $583 $-1 #
vertex $-1 $418 $761 #
straight-curve $-1 64.212164677877126 15.1778768273956 93.204035513372645 0 0 1 I I #
straight-curve $-1 -32.710906129928773 15.1778768273956 89.485000218939405 0.75470957328743171 0 -0.6560590369687036 I I #
edge $-1 $755 5.7705205388368839 $421 15.1778768273956 $593 $762 forward 7 unknown #
point $-1 64.212164677877126 15.1778768273956 13.334383810848083 #
point $-1 54.890355306040291 15.1778768273956 13.334383810848081 #
edge $-1 $763 1 $763 0 $424 $-1 forward 7 unknown #
vertex $-1 $425 $764 #
ellipse-curve $-1 58.403812395927417 8.4583366212822284 7.962733659415778 0.6560590369687036 0 0.75470957328743171 0.37735478664371586 0 -0.3280295184843518 1 I I #
point $-1 59.928614778602437 8.4583366212822284 8.9546915761655352 #
edge $-1 $765 1 $765 0 $428 $-1 forward 7 unknown #
vertex $-1 $429 $766 #
ellipse-curve $-1 58.403812395927417 12.490060744950249 7.962733659415778 0.6560590369687036 0 0.75470957328743171 0.37735478664371586 0 -0.3280295184843518 1 I I #
point $-1 59.928614778602437 12.490060744950249 8.9546915761655352 #
plane-surface $-1 0 0 13.334383810848083 0 0 1 1 0 0 forward_v I I I I #
coedge $-1 $620 $619 $612 $767 forward $433 $-1 #
coedge $-1 $612 $435 $437 $616 reversed $274 $-1 #
coedge $-1 $435 $611 $610 $767 reversed $274 $-1 #
coedge $-1 $443 $438 $435 $614 forward $444 $-1 #
edge $-1 $617 -27.99790151419397 $768 -19.842650656564359 $613 $769 forward 7 unknown #
coedge $-1 $437 $436 $620 $770 reversed $171 $-1 #
edge $-1 $771 -2.4161062406544664e-014 $617 13.874541734596662 $611 $772 forward 7 unknown #
vertex $-1 $439 $773 #
straight-curve $-1 -56.056913820247516 -6.8461445086042545 13.334383810848083 0 1 0 I I #
coedge $-1 $610 $440 $443 $624 reversed $433 $-1 #
coedge $-1 $440 $610 $615 $770 forward $433 $-1 #
vertex $-1 $441 $774 #
straight-curve $-1 -64.212164677877126 -17.019535796889265 38.79778451457085 0 0 1 I I #
straight-curve $-1 -64.212164677877112 -17.019535796889265 2.1096436448488589 -0.5877852410284794 0 -0.80901700255871778 I I #
edge $-1 $768 10.365042237527755 $445 17.019535796889265 $619 $775 forward 7 unknown #
point $-1 -64.212164677877126 -17.019535796889265 13.334383810848083 #
point $-1 -56.056913820247516 -17.019535796889265 13.334383810848083 #
edge $-1 $776 1 $776 0 $448 $-1 forward 7 unknown #
vertex $-1 $449 $777 #
ellipse-curve $-1 -58.663682292568588 -15.688637085016964 6.6533736276321109 -0.80901700255871778 0 0.5877852410284794 0.2938926205142397 0 0.40450850127935889 1 I I #
point $-1 -59.840646628548093 -15.688637085016964 8.1265222291278345 #
edge $-1 $778 1 $778 0 $452 $-1 forward 7 unknown #
vertex $-1 $453 $779 #
ellipse-curve $-1 -58.663682292568588 -13.692289017208513 6.6533736276321109 -0.80901700255871778 0 0.5877852410284794 0.2938926205142397 0 0.40450850127935889 1 I I #
point $-1 -59.840646628548093 -13.692289017208513 8.1265222291278345 #
edge $-1 $780 1 $780 0 $456 $-1 forward 7 unknown #
vertex $-1 $457 $781 #
ellipse-curve $-1 -58.663682292568588 -11.695940949400061 6.6533736276321109 -0.80901700255871778 0 0.5877852410284794 0.2938926205142397 0 0.40450850127935889 1 I I #
point $-1 -59.840646628548093 -11.695940949400061 8.1265222291278345 #
loop $-1 $-1 $468 $460 #
plane-surface $-1 -64.212164677877126 0 0 1 0 0 0 0 -1 forward_v I I I I #
coedge $-1 $642 $463 $465 $646 reversed $303 $-1 #
coedge $-1 $463 $641 $782 $783 reversed $303 $-1 #
coedge $-1 $471 $466 $463 $644 forward $461 $-1 #
edge $-1 $647 -27.99790151419397 $784 -19.842650656564359 $643 $785 forward 7 unknown #
coedge $-1 $465 $464 $650 $786 reversed $190 $-1 #
edge $-1 $787 -2.4161062406544664e-014 $647 13.874541734596662 $641 $788 forward 7 unknown #
vertex $-1 $467 $789 #
straight-curve $-1 -56.056913820247516 -0.41470742012484152 13.334383810848083 0 1 0 I I #
coedge $-1 $782 $468 $471 $654 reversed $639 $-1 #
coedge $-1 $468 $782 $645 $786 forward $639 $-1 #
vertex $-1 $469 $790 #
straight-curve $-1 -64.212164677877126 -4.1566616199304374 38.79778451457085 0 0 1 I I #
straight-curve $-1 -64.212164677877112 -4.1566616199304374 2.1096436448488589 -0.5877852410284794 0 -0.80901700255871778 I I #
edge $-1 $784 -2.4978319394310713 $472 4.1566616199304374 $649 $791 forward 7 unknown #
point $-1 -64.212164677877126 -4.1566616199304374 13.334383810848083 #
point $-1 -56.056913820247516 -4.1566616199304374 13.334383810848083 #
edge $-1 $792 1 $792 0 $475 $-1 forward 7 unknown #
vertex $-1 $476 $793 #
ellipse-curve $-1 -58.663682292568588 -2.8257629080581381 6.6533736276321109 -0.80901700255871778 0 0.5877852410284794 0.2938926205142397 0 0.40450850127935889 1 I I #
point $-1 -59.840646628548093 -2.8257629080581381 8.1265222291278345 #
edge $-1 $794 1 $794 0 $479 $-1 forward 7 unknown #
vertex $-1 $480 $795 #
ellipse-curve $-1 -58.663682292568588 -0.82941484024968659 6.6533736276321109 -0.80901700255871778 0 0.5877852410284794 0.2938926205142397 0 0.40450850127935889 1 I I #
point $-1 -59.840646628548093 -0.82941484024968659 8.1265222291278345 #
edge $-1 $796 1 $796 0 $483 $-1 forward 7 unknown #
vertex $-1 $484 $797 #
ellipse-curve $-1 -58.663682292568588 1.1669332275587649 6.6533736276321109 -0.80901700255871778 0 0.5877852410284794 0.2938926205142397 0 0.40450850127935889 1 I I #
point $-1 -59.840646628548093 1.1669332275587649 8.1265222291278345 #
loop $-1 $-1 $495 $487 #
plane-surface $-1 -64.212164677877126 0 0 1 0 0 0 0 -1 forward_v I I I I #
coedge $-1 $672 $490 $492 $676 reversed $332 $-1 #
coedge $-1 $490 $671 $798 $799 reversed $332 $-1 #
coedge $-1 $498 $493 $490 $674 forward $488 $-1 #
edge $-1 $677 -27.99790151419397 $800 -19.842650656564359 $673 $801 forward 7 unknown #
coedge $-1 $492 $491 $680 $802 reversed $209 $-1 #
edge $-1 $803 -2.4161062406544664e-014 $677 13.874541734596662 $671 $804 forward 7 unknown #
vertex $-1 $494 $805 #
straight-curve $-1 -56.056913820247516 6.0167296683545715 13.334383810848083 0 1 0 I I #
coedge $-1 $798 $495 $498 $684 reversed $669 $-1 #
coedge $-1 $495 $798 $675 $802 forward $669 $-1 #
vertex $-1 $496 $806 #
straight-curve $-1 -64.212164677877126 8.7062125570283886 38.79778451457085 0 0 1 I I #
straight-curve $-1 -64.212164677877112 8.7062125570283886 2.1096436448488589 -0.5877852410284794 0 -0.80901700255871778 I I #
edge $-1 $800 -15.360706116389897 $499 -8.7062125570283886 $679 $807 forward 7 unknown #
point $-1 -64.212164677877126 8.7062125570283886 13.334383810848083 #
point $-1 -56.056913820247516 8.7062125570283886 13.334383810848083 #
edge $-1 $808 1 $808 0 $502 $-1 forward 7 unknown #
vertex $-1 $503 $809 #
ellipse-curve $-1 -58.663682292568588 10.037111268900688 6.6533736276321109 -0.80901700255871778 0 0.5877852410284794 0.2938926205142397 0 0.40450850127935889 1 I I #
point $-1 -59.840646628548093 10.037111268900688 8.1265222291278345 #
edge $-1 $810 1 $810 0 $506 $-1 forward 7 unknown #
vertex $-1 $507 $811 #
ellipse-curve $-1 -58.663682292568588 12.033459336709136 6.6533736276321109 -0.80901700255871778 0 0.5877852410284794 0.2938926205142397 0 0.40450850127935889 1 I I #
point $-1 -59.840646628548093 12.033459336709136 8.1265222291278345 #
edge $-1 $812 1 $812 0 $510 $-1 forward 7 unknown #
vertex $-1 $511 $813 #
ellipse-curve $-1 -58.663682292568588 14.029807404517591 6.6533736276321109 -0.80901700255871778 0 0.5877852410284794 0.2938926205142397 0 0.40450850127935889 1 I I #
point $-1 -59.840646628548093 14.029807404517591 8.1265222291278345 #
plane-surface $-1 64.212164677877126 0 0 -1 0 0 0 0 1 forward_v I I I I #
coedge $-1 $519 $517 $521 $704 reversed $361 $-1 #
edge $-1 $532 -13.334383810848083 $706 13.334383810848083 $531 $814 forward 7 unknown #
vertex $-1 $704 $815 #
straight-curve $-1 -64.212164677877126 -32.720827541717277 0 0 0 -1 I I #
edge $-1 $702 -32.720827541717277 $706 32.720827541717277 $700 $816 forward 7 unknown #
straight-curve $-1 0 -32.720827541717277 -13.334383810848083 -1 0 0 I I #
vertex $-1 $524 $817 #
straight-curve $-1 0 32.720827541717277 -13.334383810848083 1 0 0 I I #
point $-1 64.212164677877126 32.720827541717277 -13.334383810848083 #
point $-1 64.212164677877126 -32.720827541717277 -13.334383810848083 #
straight-curve $-1 -64.212164677877126 0 13.334383810848083 0 -1 0 I I #
point $-1 -64.212164677877126 32.720827541717277 13.334383810848083 #
point $-1 -64.212164677877126 -32.720827541717277 13.334383810848083 #
straight-curve $-1 64.212164677877126 -32.720827541717277 0 0 0 -1 I I #
straight-curve $-1 64.212164677877126 32.720827541717277 0 0 0 -1 I I #
plane-surface $-1 -64.212164677877126 0 0 1 0 0 0 0 -1 forward_v I I I I #
coedge $-1 $718 $727 $722 $818 forward $542 $-1 #
coedge $-1 $545 $544 $819 $820 forward $236 $-1 #
coedge $-1 $819 $716 $546 $719 reversed $542 $-1 #
edge $-1 $720 -64.212164677877126 $723 64.212164677877126 $718 $821 forward 7 unknown #
vertex $-1 $820 $822 #
straight-curve $-1 64.212164677877126 0 -13.334383810848083 0 -1 0 I I #
coedge $-1 $554 $548 $716 $818 reversed $555 $-1 #
vertex $-1 $549 $823 #
straight-curve $-1 -64.212164677877126 0 -13.334383810848083 0 1 0 I I #
point $-1 -64.212164677877126 -32.720827541717277 -13.334383810848083 #
point $-1 64.212164677877126 -32.720827541717277 -13.334383810848083 #
coedge $-1 $716 $819 $557 $728 reversed $542 $-1 #
edge $-1 $729 -64.212164677877126 $731 64.212164677877126 $727 $824 forward 7 unknown #
vertex $-1 $558 $825 #
straight-curve $-1 -64.212164677877126 -39.434085679856793 -5.390725896955546 0 -1 0 I I #
vertex $-1 $559 $826 #
straight-curve $-1 64.212164677877126 -39.434085679856793 -5.390725896955546 0 1 0 I I #
plane-surface $-1 64.212164677877126 0 0 -1 0 0 0 0 1 forward_v I I I I #
coedge $-1 $741 $565 $745 $827 reversed $396 $-1 #
coedge $-1 $565 $741 $566 $738 reversed $396 $-1 #
coedge $-1 $567 $577 $565 $737 reversed $578 $-1 #
edge $-1 $739 -3.9718289569462684 $828 3.9718289569462684 $736 $829 forward 7 unknown #
edge $-1 $739 -64.212164677877126 $743 64.212164677877126 $735 $830 forward 7 unknown #
vertex $-1 $568 $831 #
straight-curve $-1 64.212164677877126 39.4340856798568 -5.390725896955546 0 1 0 I I #
coedge $-1 $735 $734 $569 $742 reversed $396 $-1 #
edge $-1 $743 -3.9718289569462684 $746 3.9718289569462684 $741 $832 forward 7 unknown #
vertex $-1 $738 $833 #
straight-curve $-1 -64.212164677877126 39.4340856798568 -5.390725896955546 0 -1 0 I I #
coedge $-1 $749 $571 $734 $827 forward $563 $-1 #
vertex $-1 $827 $834 #
straight-curve $-1 -64.212164677877126 39.4340856798568 -13.334383810848083 0 1 0 I I #
point $-1 -64.212164677877126 32.720827541717277 -13.334383810848083 #
coedge $-1 $575 $745 $577 $751 forward $563 $-1 #
straight-curve $-1 0 32.720827541717277 -13.334383810848083 -1 0 0 I I #
edge $-1 $828 -46.147343817996315 $579 -32.720827541717277 $577 $835 forward 7 unknown #
point $-1 64.212164677877126 32.720827541717277 -13.334383810848083 #
coedge $-1 $594 $593 $586 $754 forward $583 $-1 #
edge $-1 $755 79.869651702524564 $758 87.97297713492101 $753 $836 forward 7 unknown #
vertex $-1 $598 $837 #
straight-curve $-1 25.771517855279484 5.7705205388368839 13.334383810848081 1 0 0 I I #
edge $-1 $758 0.5334211972787628 $595 9.9407774858374793 $594 $838 forward 7 unknown #
vertex $-1 $757 $839 #
straight-curve $-1 -32.710906129928773 5.7705205388368839 89.485000218939405 -0.75470957328743171 0 0.6560590369687036 I I #
point $-1 54.890355306040291 5.7705205388368839 13.334383810848081 #
point $-1 64.212164677877126 15.1778768273956 5.2310583784516353 #
straight-curve $-1 64.212164677877126 0 13.334383810848083 0 1 0 I I #
vertex $-1 $601 $840 #
point $-1 58.781167182571131 8.4583366212822284 7.6347041409314258 #
vertex $-1 $605 $841 #
point $-1 58.781167182571131 12.490060744950249 7.6347041409314258 #
edge $-1 $768 25.463400703722769 $771 36.688140869722012 $610 $842 forward 7 unknown #
vertex $-1 $624 $843 #
straight-curve $-1 -84.054815334441486 -10.365042237527755 13.334383810848081 -1 0 0 I I #
edge $-1 $771 3.5188977289235002 $621 10.173391288285011 $620 $844 forward 7 unknown #
vertex $-1 $770 $845 #
straight-curve $-1 -64.212164677877112 -10.365042237527755 2.1096436448488589 0.5877852410284794 0 0.80901700255871778 I I #
point $-1 -56.056913820247516 -10.365042237527755 13.334383810848083 #
point $-1 -64.212164677877126 -17.019535796889265 2.1096436448488394 #
straight-curve $-1 -64.212164677877126 0 13.334383810848083 0 -1 0 I I #
vertex $-1 $627 $846 #
point $-1 -58.369789672054353 -15.688637085016964 7.0578821289114693 #
vertex $-1 $631 $847 #
point $-1 -58.369789672054353 -13.692289017208513 7.0578821289114693 #
vertex $-1 $635 $848 #
point $-1 -58.369789672054353 -11.695940949400061 7.0578821289114693 #
coedge $-1 $650 $649 $642 $783 forward $639 $-1 #
edge $-1 $784 25.463400703722769 $787 36.688140869722012 $782 $849 forward 7 unknown #
vertex $-1 $654 $850 #
straight-curve $-1 -84.054815334441486 2.4978319394310713 13.334383810848081 -1 0 0 I I #
edge $-1 $787 -2.9125393595559128 $651 3.7419541998055958 $650 $851 forward 7 unknown #
vertex $-1 $786 $852 #
straight-curve $-1 -64.212164677877112 2.4978319394310713 2.1096436448488589 0.5877852410284794 0 0.80901700255871778 I I #
point $-1 -56.056913820247516 2.4978319394310713 13.334383810848083 #
point $-1 -64.212164677877126 -4.1566616199304374 2.1096436448488394 #
straight-curve $-1 -64.212164677877126 0 13.334383810848083 0 -1 0 I I #
vertex $-1 $657 $853 #
point $-1 -58.369789672054353 -2.8257629080581381 7.0578821289114693 #
vertex $-1 $661 $854 #
point $-1 -58.369789672054353 -0.82941484024968659 7.0578821289114693 #
vertex $-1 $665 $855 #
point $-1 -58.369789672054353 1.1669332275587649 7.0578821289114693 #
coedge $-1 $680 $679 $672 $799 forward $669 $-1 #
edge $-1 $800 25.463400703722769 $803 36.688140869722012 $798 $856 forward 7 unknown #
vertex $-1 $684 $857 #
straight-curve $-1 -84.054815334441486 15.360706116389897 13.334383810848081 -1 0 0 I I #
edge $-1 $803 -9.3439764480353258 $681 -2.6894828886738171 $680 $858 forward 7 unknown #
vertex $-1 $802 $859 #
straight-curve $-1 -64.212164677877112 15.360706116389897 2.1096436448488589 0.5877852410284794 0 0.80901700255871778 I I #
point $-1 -56.056913820247516 15.360706116389897 13.334383810848083 #
point $-1 -64.212164677877126 8.7062125570283886 2.1096436448488394 #
straight-curve $-1 -64.212164677877126 0 13.334383810848083 0 -1 0 I I #
vertex $-1 $687 $860 #
point $-1 -58.369789672054353 10.037111268900688 7.0578821289114693 #
vertex $-1 $691 $861 #
point $-1 -58.369789672054353 12.033459336709136 7.0578821289114693 #
vertex $-1 $695 $862 #
point $-1 -58.369789672054353 14.029807404517591 7.0578821289114693 #
straight-curve $-1 -64.212164677877126 32.720827541717277 0 0 0 -1 I I #
point $-1 -64.212164677877126 -32.720827541717277 -13.334383810848083 #
straight-curve $-1 -64.212164677877126 0 -13.334383810848083 0 1 0 I I #
point $-1 -64.212164677877126 32.720827541717277 -13.334383810848083 #
edge $-1 $729 -3.9718289569462684 $723 3.9718289569462684 $722 $863 forward 7 unknown #
coedge $-1 $727 $718 $717 $820 reversed $542 $-1 #
edge $-1 $731 -3.9718289569462684 $720 3.9718289569462684 $717 $864 forward 7 unknown #
straight-curve $-1 0 -46.147343817996308 -13.334383810848083 -1 0 0 I I #
point $-1 64.212164677877126 -46.147343817996308 -13.334383810848083 #
point $-1 -64.212164677877126 -46.147343817996308 -13.334383810848083 #
straight-curve $-1 0 -46.147343817996308 -5.390725896955546 1 0 0 I I #
point $-1 -64.212164677877126 -46.147343817996308 -5.390725896955546 #
point $-1 64.212164677877126 -46.147343817996308 -5.390725896955546 #
edge $-1 $746 -64.212164677877126 $828 64.212164677877126 $734 $865 forward 7 unknown #
vertex $-1 $751 $866 #
straight-curve $-1 64.212164677877126 46.147343817996315 -9.3625548539018144 0 0 -1 I I #
straight-curve $-1 0 46.147343817996315 -5.390725896955546 -1 0 0 I I #
point $-1 64.212164677877126 46.147343817996315 -5.390725896955546 #
straight-curve $-1 -64.212164677877126 46.147343817996315 -9.3625548539018144 0 0 -1 I I #
point $-1 -64.212164677877126 46.147343817996315 -5.390725896955546 #
point $-1 -64.212164677877126 46.147343817996315 -13.334383810848083 #
straight-curve $-1 64.212164677877126 0 -13.334383810848083 0 -1 0 I I #
straight-curve $-1 64.212164677877126 5.7705205388368839 93.204035513372645 0 0 -1 I I #
point $-1 64.212164677877126 5.7705205388368839 13.334383810848083 #
straight-curve $-1 64.212164677877126 5.2370993415581211 5.2310583784516425 0 1 0 I I #
point $-1 64.212164677877126 5.7705205388368839 5.2310583784516353 #
point $-1 58.075782877443061 8.4583366212822284 7.5853788727720621 #
point $-1 58.075782877443061 12.490060744950249 7.5853788727720621 #
straight-curve $-1 -64.212164677877126 -10.365042237527755 38.79778451457085 0 0 -1 I I #
point $-1 -64.212164677877126 -10.365042237527755 13.334383810848083 #
straight-curve $-1 -64.212164677877126 -6.8461445086042545 2.1096436448488576 0 -1 0 I I #
point $-1 -64.212164677877126 -10.365042237527755 2.1096436448488394 #
point $-1 -58.259173791289236 -15.688637085016964 6.3594810071178705 #
point $-1 -58.259173791289236 -13.692289017208513 6.3594810071178705 #
point $-1 -58.259173791289236 -11.695940949400061 6.3594810071178705 #
straight-curve $-1 -64.212164677877126 2.4978319394310713 38.79778451457085 0 0 -1 I I #
point $-1 -64.212164677877126 2.4978319394310713 13.334383810848083 #
straight-curve $-1 -64.212164677877126 -0.41470742012484152 2.1096436448488576 0 -1 0 I I #
point $-1 -64.212164677877126 2.4978319394310713 2.1096436448488394 #
point $-1 -58.259173791289236 -2.8257629080581381 6.3594810071178705 #
point $-1 -58.259173791289236 -0.82941484024968659 6.3594810071178705 #
point $-1 -58.259173791289236 1.1669332275587649 6.3594810071178705 #
straight-curve $-1 -64.212164677877126 15.360706116389897 38.79778451457085 0 0 -1 I I #
point $-1 -64.212164677877126 15.360706116389897 13.334383810848083 #
straight-curve $-1 -64.212164677877126 6.0167296683545715 2.1096436448488576 0 -1 0 I I #
point $-1 -64.212164677877126 15.360706116389897 2.1096436448488394 #
point $-1 -58.259173791289236 10.037111268900688 6.3594810071178705 #
point $-1 -58.259173791289236 12.033459336709136 6.3594810071178705 #
point $-1 -58.259173791289236 14.029807404517591 6.3594810071178705 #
straight-curve $-1 -64.212164677877126 -46.147343817996308 -9.3625548539018144 0 0 -1 I I #
straight-curve $-1 64.212164677877126 -46.147343817996308 -9.3625548539018144 0 0 -1 I I #
straight-curve $-1 0 46.147343817996315 -13.334383810848083 1 0 0 I I #
point $-1 64.212164677877126 46.147343817996315 -13.334383810848083 #
End-of-ACIS-data 