500 0 6 0           
7 Unknown 11 ACIS 5.0 NT 24 Fri Mar 26 18:10:51 1999 
-1 9.9999999999999995e-007 1e-010 
body $-1 $6 $-1 $7 #
body $-1 $8 $-1 $9 #
body $-1 $10 $-1 $11 #
body $-1 $12 $-1 $13 #
body $-1 $14 $-1 $15 #
body $-1 $16 $-1 $17 #
lump $-1 $-1 $18 $0 #
transform $-1 1 0 0 0 1 0 0 0 1 62.11249122592853 42.453992957648339 20.184530499829332 1 rotate no_reflect no_shear #
lump $-1 $-1 $19 $1 #
transform $-1 1 0 0 0 1 0 0 0 1 62.11249122592853 42.453992957648339 20.184530499829332 1 rotate no_reflect no_shear #
lump $-1 $-1 $20 $2 #
transform $-1 1 0 0 0 1 0 0 0 1 62.11249122592853 42.453992957648339 20.184530499829332 1 rotate no_reflect no_shear #
lump $-1 $-1 $21 $3 #
transform $-1 1 0 0 0 1 0 0 0 1 62.11249122592853 42.453992957648339 20.184530499829332 1 rotate no_reflect no_shear #
lump $-1 $-1 $22 $4 #
transform $-1 1 0 0 0 1 0 0 0 1 62.11249122592853 42.453992957648339 20.184530499829332 1 rotate no_reflect no_shear #
lump $-1 $-1 $23 $5 #
transform $-1 1 0 0 0 1 0 0 0 1 62.11249122592853 42.453992957648339 20.184530499829332 1 rotate no_reflect no_shear #
shell $-1 $-1 $-1 $24 $-1 $6 #
shell $-1 $-1 $-1 $25 $-1 $8 #
shell $-1 $-1 $-1 $26 $-1 $10 #
shell $-1 $-1 $-1 $27 $-1 $12 #
shell $-1 $-1 $-1 $28 $-1 $14 #
shell $-1 $-1 $-1 $29 $-1 $16 #
face $-1 $30 $31 $18 $-1 $32 forward single #
face $-1 $33 $34 $19 $-1 $35 forward single #
face $-1 $36 $37 $20 $-1 $38 forward single #
face $-1 $39 $40 $21 $-1 $41 reversed single #
face $-1 $42 $43 $22 $-1 $44 forward single #
face $-1 $45 $46 $23 $-1 $47 forward single #
face $-1 $48 $49 $18 $-1 $50 reversed single #
loop $-1 $-1 $51 $24 #
plane-surface $-1 0 0 20.184530499829332 0 0 1 1 0 0 forward_v I I I I #
face $-1 $52 $53 $19 $-1 $54 reversed single #
loop $-1 $-1 $55 $25 #
plane-surface $-1 0 -42.453992957648339 0 0 1 0 0 0 1 forward_v I I I I #
face $-1 $56 $57 $20 $-1 $58 reversed single #
loop $-1 $-1 $59 $26 #
plane-surface $-1 0 42.453992957648339 0 0 -1 0 0 0 -1 forward_v I I I I #
face $-1 $60 $61 $21 $-1 $62 reversed single #
loop $-1 $-1 $63 $27 #
plane-surface $-1 -165.09967013150572 17.331588272492468 70.30746337617623 0 1 0 -0.82903758062907751 0 0.55919289150049634 forward_v I I I I #
face $-1 $64 $65 $22 $-1 $66 forward single #
loop $-1 $67 $68 $28 #
cone-surface $-1 -55.173394361072951 20.487598846296358 10.232768967316233 0.82903758062907751 0 -0.55919289150049634 0.55919289150049634 0 0.82903758062907751 1 I I 0 1 1 forward I I I I #
face $-1 $69 $70 $23 $-1 $71 forward single #
loop $-1 $72 $73 $29 #
cone-surface $-1 -55.173394361072951 25.221614707002189 10.232768967316233 0.82903758062907751 0 -0.55919289150049634 0.55919289150049634 0 0.82903758062907751 1 I I 0 1 1 forward I I I I #
face $-1 $74 $75 $18 $-1 $76 reversed single #
loop $-1 $-1 $77 $30 #
plane-surface $-1 0 0 -20.184530499829332 0 0 1 1 0 0 forward_v I I I I #
coedge $-1 $78 $79 $80 $81 forward $31 $-1 #
face $-1 $82 $83 $19 $-1 $84 reversed single #
loop $-1 $-1 $85 $33 #
plane-surface $-1 0 0 -20.184530499829332 0 0 1 1 0 0 forward_v I I I I #
coedge $-1 $86 $87 $88 $89 forward $34 $-1 #
face $-1 $90 $91 $20 $-1 $92 forward single #
loop $-1 $-1 $93 $36 #
plane-surface $-1 -62.11249122592853 0 0 1 0 0 0 0 -1 forward_v I I I I #
coedge $-1 $94 $95 $96 $97 forward $37 $-1 #
face $-1 $98 $99 $21 $-1 $100 reversed single #
loop $-1 $-1 $101 $39 #
plane-surface $-1 -62.112491225928551 22.854606776649277 0.84173624232387567 -0.82903758062907751 0 0.55919289150049634 0.55919289150049634 0 0.82903758062907751 forward_v I I I I #
coedge $-1 $102 $103 $104 $105 reversed $40 $-1 #
face $-1 $-1 $106 $22 $-1 $107 forward single #
loop $-1 $108 $109 $42 #
cone-surface $-1 -54.343218235837156 20.487598846296358 9.6728081178056193 0.82903758062907751 0 -0.55919289150049634 0.27959644575024817 0 0.41451879031453875 1 I I -0.70710678118654746 0.70710678118654746 0.5 forward I I I I #
loop $-1 $-1 $110 $28 #
coedge $-1 $68 $68 $111 $112 reversed $43 $-1 #
face $-1 $-1 $113 $23 $-1 $114 forward single #
loop $-1 $115 $116 $45 #
cone-surface $-1 -54.343218235837156 25.221614707002189 9.6728081178056193 0.82903758062907751 0 -0.55919289150049634 0.27959644575024817 0 0.41451879031453875 1 I I -0.70710678118654746 0.70710678118654746 0.5 forward I I I I #
loop $-1 $-1 $117 $29 #
coedge $-1 $73 $73 $118 $119 reversed $46 $-1 #
face $-1 $120 $121 $18 $-1 $122 reversed single #
loop $-1 $-1 $123 $48 #
plane-surface $-1 0 -42.453992957648339 0 0 1 0 0 0 1 forward_v I I I I #
coedge $-1 $124 $125 $126 $127 forward $49 $-1 #
coedge $-1 $128 $51 $129 $130 forward $31 $-1 #
coedge $-1 $51 $128 $131 $132 forward $31 $-1 #
coedge $-1 $133 $134 $51 $81 reversed $135 $-1 #
edge $-1 $136 -42.453992957648339 $137 42.453992957648339 $80 $138 forward 7 unknown #
face $-1 $139 $140 $19 $-1 $141 forward single #
loop $-1 $-1 $142 $52 #
plane-surface $-1 62.11249122592853 0 0 -1 0 0 0 0 1 forward_v I I I I #
coedge $-1 $143 $144 $145 $146 forward $53 $-1 #
coedge $-1 $145 $55 $142 $147 reversed $34 $-1 #
coedge $-1 $55 $145 $148 $149 reversed $34 $-1 #
coedge $-1 $150 $151 $55 $89 reversed $140 $-1 #
edge $-1 $152 -62.11249122592853 $153 62.11249122592853 $88 $154 forward 7 unknown #
face $-1 $155 $156 $20 $-1 $157 reversed single #
loop $-1 $-1 $158 $56 #
plane-surface $-1 0 49.492176796069472 -8.2810352005159373 0 0 1 1 0 0 forward_v I I I I #
coedge $-1 $159 $160 $94 $161 forward $57 $-1 #
coedge $-1 $162 $59 $93 $161 reversed $37 $-1 #
coedge $-1 $59 $162 $163 $164 reversed $37 $-1 #
coedge $-1 $158 $165 $59 $97 reversed $91 $-1 #
edge $-1 $166 -62.11249122592853 $167 62.11249122592853 $96 $168 forward 7 unknown #
face $-1 $169 $170 $21 $-1 $171 reversed single #
loop $-1 $-1 $172 $60 #
plane-surface $-1 -165.09967013150572 28.377625280806086 70.30746337617623 0 -1 0 0.82903758062907751 0 -0.55919289150049634 forward_v I I I I #
coedge $-1 $173 $174 $175 $176 reversed $61 $-1 #
coedge $-1 $103 $63 $177 $178 reversed $40 $-1 #
coedge $-1 $63 $102 $173 $179 reversed $40 $-1 #
coedge $-1 $175 $180 $63 $105 forward $181 $-1 #
edge $-1 $182 20.437343839824329 $183 33.484222899692952 $104 $184 forward 7 unknown #
loop $-1 $-1 $111 $64 #
plane-surface $-1 -62.112491225928551 22.854606776649277 0.84173624232387567 -0.82903758062907751 0 0.55919289150049634 0.55919289150049634 0 0.82903758062907751 forward_v I I I I #
loop $-1 $-1 $185 $42 #
coedge $-1 $109 $109 $110 $186 reversed $65 $-1 #
coedge $-1 $110 $110 $109 $186 forward $67 $-1 #
coedge $-1 $111 $111 $68 $112 forward $106 $-1 #
edge $-1 $187 0 $187 6.2831853071796004 $111 $188 forward 7 unknown #
loop $-1 $-1 $118 $69 #
plane-surface $-1 -62.112491225928551 22.854606776649277 0.84173624232387567 -0.82903758062907751 0 0.55919289150049634 0.55919289150049634 0 0.82903758062907751 forward_v I I I I #
loop $-1 $-1 $189 $45 #
coedge $-1 $116 $116 $117 $190 reversed $70 $-1 #
coedge $-1 $117 $117 $116 $190 forward $72 $-1 #
coedge $-1 $118 $118 $73 $119 forward $113 $-1 #
edge $-1 $191 0 $191 6.2831853071796004 $118 $192 forward 7 unknown #
face $-1 $193 $194 $18 $-1 $195 reversed single #
loop $-1 $-1 $196 $74 #
plane-surface $-1 -62.11249122592853 0 0 1 0 0 0 0 -1 forward_v I I I I #
coedge $-1 $197 $131 $198 $199 forward $75 $-1 #
coedge $-1 $200 $77 $197 $201 forward $49 $-1 #
coedge $-1 $77 $200 $202 $203 forward $49 $-1 #
coedge $-1 $134 $133 $77 $127 reversed $135 $-1 #
edge $-1 $204 -42.453992957648339 $205 42.453992957648339 $126 $206 forward 7 unknown #
coedge $-1 $79 $78 $207 $208 forward $31 $-1 #
coedge $-1 $209 $210 $78 $130 reversed $194 $-1 #
edge $-1 $137 -62.11249122592853 $211 62.11249122592853 $129 $212 forward 7 unknown #
coedge $-1 $123 $213 $79 $132 reversed $75 $-1 #
edge $-1 $214 -62.11249122592853 $136 62.11249122592853 $131 $215 forward 7 unknown #
coedge $-1 $126 $80 $213 $216 forward $135 $-1 #
coedge $-1 $80 $126 $209 $217 reversed $135 $-1 #
loop $-1 $-1 $133 $193 #
vertex $-1 $81 $218 #
vertex $-1 $81 $219 #
straight-curve $-1 62.11249122592853 0 20.184530499829332 0 1 0 I I #
face $-1 $220 $221 $19 $-1 $222 reversed single #
loop $-1 $-1 $151 $82 #
plane-surface $-1 0 -49.492176796069465 -8.2810352005159373 0 0 1 1 0 0 forward_v I I I I #
coedge $-1 $223 $224 $86 $147 forward $83 $-1 #
coedge $-1 $225 $85 $224 $226 forward $53 $-1 #
coedge $-1 $85 $225 $227 $228 forward $53 $-1 #
coedge $-1 $87 $86 $85 $146 reversed $34 $-1 #
edge $-1 $229 -62.11249122592853 $230 62.11249122592853 $85 $231 forward 7 unknown #
edge $-1 $230 -20.184530499829332 $153 -8.2810352005159373 $142 $232 forward 7 unknown #
coedge $-1 $227 $233 $87 $149 forward $234 $-1 #
edge $-1 $152 8.2810352005159373 $229 20.184530499829332 $148 $235 forward 7 unknown #
coedge $-1 $236 $88 $233 $237 forward $140 $-1 #
coedge $-1 $88 $236 $223 $238 forward $140 $-1 #
vertex $-1 $149 $239 #
vertex $-1 $238 $240 #
straight-curve $-1 0 -42.453992957648339 -8.2810352005159373 1 0 0 I I #
face $-1 $241 $242 $20 $-1 $243 reversed single #
loop $-1 $-1 $244 $90 #
plane-surface $-1 0 56.530360634490599 -14.232782850172635 0 -1 0 0 0 -1 forward_v I I I I #
coedge $-1 $245 $96 $246 $247 forward $91 $-1 #
coedge $-1 $248 $93 $165 $249 reversed $57 $-1 #
coedge $-1 $93 $248 $250 $251 reversed $57 $-1 #
edge $-1 $252 -20.184530499829332 $167 -8.2810352005159373 $93 $253 forward 7 unknown #
coedge $-1 $95 $94 $254 $255 reversed $37 $-1 #
coedge $-1 $256 $246 $95 $164 forward $257 $-1 #
edge $-1 $166 8.2810352005159373 $258 20.184530499829332 $163 $259 forward 7 unknown #
coedge $-1 $96 $245 $159 $249 forward $91 $-1 #
vertex $-1 $164 $260 #
vertex $-1 $249 $261 #
straight-curve $-1 0 42.453992957648339 -8.2810352005159373 -1 0 0 I I #
face $-1 $-1 $181 $21 $-1 $262 forward single #
loop $-1 $-1 $263 $98 #
plane-surface $-1 -62.11249122592853 0 0 1 0 0 0 0 -1 forward_v I I I I #
coedge $-1 $264 $265 $266 $267 reversed $99 $-1 #
coedge $-1 $268 $101 $103 $179 forward $61 $-1 #
coedge $-1 $101 $268 $264 $269 forward $61 $-1 #
coedge $-1 $266 $104 $101 $176 forward $181 $-1 #
edge $-1 $183 5.9042848841678293 $270 16.950321892481448 $175 $271 forward 7 unknown #
coedge $-1 $272 $273 $102 $178 forward $170 $-1 #
edge $-1 $274 -34.311995445764211 $182 -14.969201188258783 $177 $275 forward 7 unknown #
edge $-1 $183 -23.331625380393561 $274 -3.8151786801708093e-014 $103 $276 forward 7 unknown #
coedge $-1 $104 $266 $272 $277 forward $181 $-1 #
loop $-1 $-1 $266 $169 #
vertex $-1 $178 $278 #
vertex $-1 $105 $279 #
straight-curve $-1 -82.549835065752859 17.331588272492468 20.184530499829332 1 0 0 I I #
coedge $-1 $185 $185 $-1 $280 reversed $108 $-1 #
edge $-1 $281 0 $281 6.2831853071796004 $109 $282 forward 7 unknown #
vertex $-1 $112 $283 #
ellipse-curve $-1 -55.589051695994222 20.487598846296358 10.513133371076609 -0.82903758062907751 0 0.55919289150049634 0.55919289150049634 0 0.82903758062907751 1 I I #
coedge $-1 $189 $189 $-1 $284 reversed $115 $-1 #
edge $-1 $285 0 $285 6.2831853071796004 $116 $286 forward 7 unknown #
vertex $-1 $119 $287 #
ellipse-curve $-1 -55.589051695994222 25.221614707002189 10.513133371076609 -0.82903758062907751 0 0.55919289150049634 0.55919289150049634 0 0.82903758062907751 1 I I #
face $-1 $-1 $135 $18 $-1 $288 reversed single #
loop $-1 $-1 $209 $120 #
plane-surface $-1 0 42.453992957648339 0 0 -1 0 0 0 -1 forward_v I I I I #
coedge $-1 $289 $207 $210 $290 forward $121 $-1 #
coedge $-1 $213 $123 $124 $201 reversed $75 $-1 #
coedge $-1 $207 $289 $123 $199 reversed $121 $-1 #
edge $-1 $214 -20.184530499829332 $291 20.184530499829332 $198 $292 forward 7 unknown #
coedge $-1 $125 $124 $289 $293 forward $49 $-1 #
edge $-1 $205 -62.11249122592853 $291 62.11249122592853 $197 $294 forward 7 unknown #
coedge $-1 $210 $209 $125 $203 reversed $194 $-1 #
edge $-1 $295 -62.11249122592853 $204 62.11249122592853 $202 $296 forward 7 unknown #
vertex $-1 $127 $297 #
vertex $-1 $216 $298 #
straight-curve $-1 62.11249122592853 0 -20.184530499829332 0 -1 0 I I #
coedge $-1 $196 $198 $128 $208 reversed $121 $-1 #
edge $-1 $211 -42.453992957648339 $214 42.453992957648339 $207 $299 forward 7 unknown #
coedge $-1 $202 $129 $134 $217 forward $194 $-1 #
coedge $-1 $129 $202 $196 $290 reversed $194 $-1 #
vertex $-1 $130 $300 #
straight-curve $-1 0 42.453992957648339 20.184530499829332 -1 0 0 I I #
coedge $-1 $131 $197 $133 $216 reversed $75 $-1 #
vertex $-1 $208 $301 #
straight-curve $-1 0 -42.453992957648339 20.184530499829332 1 0 0 I I #
edge $-1 $136 -20.184530499829332 $205 20.184530499829332 $133 $302 forward 7 unknown #
edge $-1 $137 -20.184530499829332 $204 20.184530499829332 $134 $303 forward 7 unknown #
point $-1 62.11249122592853 -42.453992957648339 20.184530499829332 #
point $-1 62.11249122592853 42.453992957648339 20.184530499829332 #
face $-1 $-1 $234 $19 $-1 $304 reversed single #
loop $-1 $-1 $305 $139 #
plane-surface $-1 0 -56.530360634490592 -14.232782850172635 0 1 0 0 0 1 forward_v I I I I #
coedge $-1 $306 $142 $151 $238 reversed $83 $-1 #
coedge $-1 $142 $306 $143 $226 reversed $83 $-1 #
coedge $-1 $144 $143 $307 $308 forward $53 $-1 #
edge $-1 $230 42.453992957648339 $309 56.530360634490592 $224 $310 forward 7 unknown #
coedge $-1 $311 $148 $144 $228 reversed $234 $-1 #
edge $-1 $312 -56.530360634490592 $229 -42.453992957648339 $227 $313 forward 7 unknown #
vertex $-1 $149 $314 #
vertex $-1 $226 $315 #
straight-curve $-1 0 -42.453992957648339 -20.184530499829332 1 0 0 I I #
straight-curve $-1 62.11249122592853 -42.453992957648339 0 0 0 1 I I #
coedge $-1 $148 $311 $150 $237 reversed $234 $-1 #
loop $-1 $-1 $148 $220 #
straight-curve $-1 -62.11249122592853 -42.453992957648339 0 0 0 -1 I I #
coedge $-1 $151 $150 $316 $317 forward $140 $-1 #
edge $-1 $152 -7.0381838384211264 $318 7.0381838384211264 $233 $319 forward 7 unknown #
edge $-1 $320 -7.0381838384211264 $153 7.0381838384211264 $223 $321 forward 7 unknown #
point $-1 -62.11249122592853 -42.453992957648339 -8.2810352005159373 #
point $-1 62.11249122592853 -42.453992957648339 -8.2810352005159373 #
face $-1 $-1 $257 $20 $-1 $322 reversed single #
loop $-1 $-1 $254 $155 #
plane-surface $-1 0 0 -20.184530499829332 0 0 1 1 0 0 forward_v I I I I #
coedge $-1 $323 $324 $325 $326 forward $156 $-1 #
coedge $-1 $165 $158 $324 $327 forward $91 $-1 #
coedge $-1 $163 $325 $158 $247 reversed $257 $-1 #
edge $-1 $166 -7.0381838384211264 $328 7.0381838384211264 $246 $329 forward 7 unknown #
coedge $-1 $160 $159 $330 $331 forward $57 $-1 #
edge $-1 $332 -7.0381838384211264 $167 7.0381838384211264 $159 $333 forward 7 unknown #
coedge $-1 $334 $254 $160 $251 forward $242 $-1 #
edge $-1 $252 -7.0381838384211335 $335 7.0381838384211264 $160 $336 forward 7 unknown #
vertex $-1 $251 $337 #
straight-curve $-1 -62.11249122592853 42.453992957648339 0 0 0 1 I I #
coedge $-1 $250 $338 $162 $255 forward $242 $-1 #
edge $-1 $258 -62.11249122592853 $252 62.11249122592853 $254 $339 forward 7 unknown #
coedge $-1 $325 $163 $338 $340 reversed $257 $-1 #
loop $-1 $-1 $163 $241 #
vertex $-1 $164 $341 #
straight-curve $-1 62.11249122592853 42.453992957648339 0 0 0 -1 I I #
point $-1 62.11249122592853 42.453992957648346 -8.2810352005159373 #
point $-1 -62.11249122592853 42.453992957648346 -8.2810352005159373 #
plane-surface $-1 0 0 20.184530499829332 0 0 1 1 0 0 forward_v I I I I #
coedge $-1 $273 $272 $265 $342 forward $170 $-1 #
coedge $-1 $265 $172 $174 $269 reversed $99 $-1 #
coedge $-1 $172 $264 $263 $342 reversed $99 $-1 #
coedge $-1 $180 $175 $172 $267 forward $181 $-1 #
edge $-1 $270 -33.484222899692952 $343 -20.437343839824329 $266 $344 forward 7 unknown #
coedge $-1 $174 $173 $273 $345 reversed $61 $-1 #
edge $-1 $346 3.8151786801708093e-014 $270 23.331625380393561 $264 $347 forward 7 unknown #
vertex $-1 $176 $348 #
straight-curve $-1 -49.065612166059907 11.427303388324638 20.184530499829332 0 1 0 I I #
coedge $-1 $263 $177 $180 $277 reversed $170 $-1 #
coedge $-1 $177 $263 $268 $345 forward $170 $-1 #
vertex $-1 $178 $349 #
straight-curve $-1 -62.11249122592853 17.331588272492468 35.153731688088115 0 0 1 I I #
straight-curve $-1 -62.112491225928551 17.331588272492468 0.84173624232387567 -0.55919289150049634 0 -0.82903758062907751 I I #
edge $-1 $343 -28.377625280806086 $182 -17.331588272492468 $272 $350 forward 7 unknown #
point $-1 -62.11249122592853 17.331588272492468 20.184530499829332 #
point $-1 -49.065612166059907 17.331588272492468 20.184530499829332 #
edge $-1 $351 1 $351 0 $185 $-1 forward 7 unknown #
vertex $-1 $186 $352 #
ellipse-curve $-1 -54.757737026151695 20.487598846296358 9.9524045635558682 -0.82903758062907751 0 0.55919289150049634 0.55919289150049634 0 0.82903758062907751 1 I I #
point $-1 -55.029858804493713 20.487598846296358 11.342170951705675 #
edge $-1 $353 1 $353 0 $189 $-1 forward 7 unknown #
vertex $-1 $190 $354 #
ellipse-curve $-1 -54.757737026151695 25.221614707002189 9.9524045635558682 -0.82903758062907751 0 0.55919289150049634 0.55919289150049634 0 0.82903758062907751 1 I I #
point $-1 -55.029858804493713 25.221614707002189 11.342170951705675 #
plane-surface $-1 62.11249122592853 0 0 -1 0 0 0 0 1 forward_v I I I I #
coedge $-1 $198 $196 $200 $293 reversed $121 $-1 #
edge $-1 $211 -20.184530499829332 $295 20.184530499829332 $210 $355 forward 7 unknown #
vertex $-1 $293 $356 #
straight-curve $-1 -62.11249122592853 -42.453992957648339 0 0 0 -1 I I #
edge $-1 $291 -42.453992957648339 $295 42.453992957648339 $289 $357 forward 7 unknown #
straight-curve $-1 0 -42.453992957648339 -20.184530499829332 -1 0 0 I I #
vertex $-1 $203 $358 #
straight-curve $-1 0 42.453992957648339 -20.184530499829332 1 0 0 I I #
point $-1 62.11249122592853 42.453992957648339 -20.184530499829332 #
point $-1 62.11249122592853 -42.453992957648339 -20.184530499829332 #
straight-curve $-1 -62.11249122592853 0 20.184530499829332 0 -1 0 I I #
point $-1 -62.11249122592853 42.453992957648339 20.184530499829332 #
point $-1 -62.11249122592853 -42.453992957648339 20.184530499829332 #
straight-curve $-1 62.11249122592853 -42.453992957648339 0 0 0 -1 I I #
straight-curve $-1 62.11249122592853 42.453992957648339 0 0 0 -1 I I #
plane-surface $-1 -62.11249122592853 0 0 1 0 0 0 0 -1 forward_v I I I I #
coedge $-1 $307 $316 $311 $359 forward $221 $-1 #
coedge $-1 $224 $223 $360 $361 forward $83 $-1 #
coedge $-1 $360 $305 $225 $308 reversed $221 $-1 #
edge $-1 $309 -62.11249122592853 $312 62.11249122592853 $307 $362 forward 7 unknown #
vertex $-1 $361 $363 #
straight-curve $-1 62.11249122592853 0 -20.184530499829332 0 -1 0 I I #
coedge $-1 $233 $227 $305 $359 reversed $234 $-1 #
vertex $-1 $228 $364 #
straight-curve $-1 -62.11249122592853 0 -20.184530499829332 0 1 0 I I #
point $-1 -62.11249122592853 -42.453992957648339 -20.184530499829332 #
point $-1 62.11249122592853 -42.453992957648339 -20.184530499829332 #
coedge $-1 $305 $360 $236 $317 reversed $221 $-1 #
edge $-1 $318 -62.11249122592853 $320 62.11249122592853 $316 $365 forward 7 unknown #
vertex $-1 $237 $366 #
straight-curve $-1 -62.11249122592853 -49.492176796069465 -8.2810352005159373 0 -1 0 I I #
vertex $-1 $238 $367 #
straight-curve $-1 62.11249122592853 -49.492176796069465 -8.2810352005159373 0 1 0 I I #
plane-surface $-1 62.11249122592853 0 0 -1 0 0 0 0 1 forward_v I I I I #
coedge $-1 $330 $244 $334 $368 reversed $156 $-1 #
coedge $-1 $244 $330 $245 $327 reversed $156 $-1 #
coedge $-1 $246 $256 $244 $326 reversed $257 $-1 #
edge $-1 $328 -5.9517476496566974 $369 5.9517476496566974 $325 $370 forward 7 unknown #
edge $-1 $328 -62.11249122592853 $332 62.11249122592853 $324 $371 forward 7 unknown #
vertex $-1 $247 $372 #
straight-curve $-1 62.11249122592853 49.492176796069472 -8.2810352005159373 0 1 0 I I #
coedge $-1 $324 $323 $248 $331 reversed $156 $-1 #
edge $-1 $332 -5.9517476496566974 $335 5.9517476496566974 $330 $373 forward 7 unknown #
vertex $-1 $327 $374 #
straight-curve $-1 -62.11249122592853 49.492176796069472 -8.2810352005159373 0 -1 0 I I #
coedge $-1 $338 $250 $323 $368 forward $242 $-1 #
vertex $-1 $368 $375 #
straight-curve $-1 -62.11249122592853 49.492176796069472 -20.184530499829332 0 1 0 I I #
point $-1 -62.11249122592853 42.453992957648339 -20.184530499829332 #
coedge $-1 $254 $334 $256 $340 forward $242 $-1 #
straight-curve $-1 0 42.453992957648339 -20.184530499829332 -1 0 0 I I #
edge $-1 $369 -56.530360634490599 $258 -42.453992957648339 $256 $376 forward 7 unknown #
point $-1 62.11249122592853 42.453992957648339 -20.184530499829332 #
edge $-1 $343 14.969201188258783 $346 34.311995445764211 $263 $377 forward 7 unknown #
vertex $-1 $277 $378 #
straight-curve $-1 -82.549835065752859 28.377625280806086 20.184530499829332 -1 0 0 I I #
edge $-1 $346 -16.950321892481448 $274 -5.9042848841678293 $273 $379 forward 7 unknown #
vertex $-1 $345 $380 #
straight-curve $-1 -62.112491225928551 28.377625280806086 0.84173624232387567 0.55919289150049634 0 0.82903758062907751 I I #
point $-1 -49.065612166059907 28.377625280806086 20.184530499829332 #
point $-1 -62.11249122592853 17.331588272492468 0.84173624232390731 #
straight-curve $-1 -62.11249122592853 0 20.184530499829332 0 -1 0 I I #
vertex $-1 $280 $381 #
point $-1 -54.1985441346512 20.487598846296358 10.781442144184945 #
vertex $-1 $284 $382 #
point $-1 -54.1985441346512 25.221614707002189 10.781442144184945 #
straight-curve $-1 -62.11249122592853 42.453992957648339 0 0 0 -1 I I #
point $-1 -62.11249122592853 -42.453992957648339 -20.184530499829332 #
straight-curve $-1 -62.11249122592853 0 -20.184530499829332 0 1 0 I I #
point $-1 -62.11249122592853 42.453992957648339 -20.184530499829332 #
edge $-1 $318 -5.9517476496566974 $312 5.9517476496566974 $311 $383 forward 7 unknown #
coedge $-1 $316 $307 $306 $361 reversed $221 $-1 #
edge $-1 $320 -5.9517476496566974 $309 5.9517476496566974 $306 $384 forward 7 unknown #
straight-curve $-1 0 -56.530360634490592 -20.184530499829332 -1 0 0 I I #
point $-1 62.11249122592853 -56.530360634490592 -20.184530499829332 #
point $-1 -62.11249122592853 -56.530360634490592 -20.184530499829332 #
straight-curve $-1 0 -56.530360634490592 -8.2810352005159373 1 0 0 I I #
point $-1 -62.11249122592853 -56.530360634490592 -8.2810352005159373 #
point $-1 62.11249122592853 -56.530360634490592 -8.2810352005159373 #
edge $-1 $335 -62.11249122592853 $369 62.11249122592853 $323 $385 forward 7 unknown #
vertex $-1 $340 $386 #
straight-curve $-1 62.11249122592853 56.530360634490599 -14.232782850172635 0 0 -1 I I #
straight-curve $-1 0 56.530360634490599 -8.2810352005159373 -1 0 0 I I #
point $-1 62.11249122592853 56.530360634490599 -8.2810352005159373 #
straight-curve $-1 -62.11249122592853 56.530360634490599 -14.232782850172635 0 0 -1 I I #
point $-1 -62.11249122592853 56.530360634490599 -8.2810352005159373 #
point $-1 -62.11249122592853 56.530360634490599 -20.184530499829332 #
straight-curve $-1 62.11249122592853 0 -20.184530499829332 0 -1 0 I I #
straight-curve $-1 -62.11249122592853 28.377625280806086 35.153731688088115 0 0 -1 I I #
point $-1 -62.11249122592853 28.377625280806086 20.184530499829332 #
straight-curve $-1 -62.11249122592853 11.427303388324638 0.84173624232389777 0 -1 0 I I #
point $-1 -62.11249122592853 28.377625280806086 0.84173624232390731 #
point $-1 -53.928699445522618 20.487598846296358 9.3932116720553704 #
point $-1 -53.928699445522618 25.221614707002189 9.3932116720553704 #
straight-curve $-1 -62.11249122592853 -56.530360634490592 -14.232782850172635 0 0 -1 I I #
straight-curve $-1 62.11249122592853 -56.530360634490592 -14.232782850172635 0 0 -1 I I #
straight-curve $-1 0 56.530360634490599 -20.184530499829332 1 0 0 I I #
point $-1 62.11249122592853 56.530360634490599 -20.184530499829332 #
End-of-ACIS-data 