500 0 8 0           
7 Unknown 11 ACIS 5.0 NT 24 Thu Mar 25 17:52:50 1999 
-1 9.9999999999999995e-007 1e-010 
body $-1 $8 $-1 $9 #
body $-1 $10 $-1 $11 #
body $-1 $12 $-1 $13 #
body $-1 $14 $-1 $15 #
body $-1 $16 $-1 $17 #
body $-1 $18 $-1 $19 #
body $-1 $20 $-1 $21 #
body $-1 $22 $-1 $23 #
lump $-1 $-1 $24 $0 #
transform $-1 1 0 0 0 1 0 0 0 1 60.053102206488234 25.97364939666652 7.8645455027627458 1 rotate no_reflect no_shear #
lump $-1 $-1 $25 $1 #
transform $-1 1 0 0 0 1 0 0 0 1 60.053102206488234 25.97364939666652 7.8645455027627458 1 rotate no_reflect no_shear #
lump $-1 $-1 $26 $2 #
transform $-1 1 0 0 0 1 0 0 0 1 60.053102206488234 25.97364939666652 7.8645455027627458 1 rotate no_reflect no_shear #
lump $-1 $-1 $27 $3 #
transform $-1 1 0 0 0 1 0 0 0 1 60.053102206488234 25.97364939666652 7.8645455027627458 1 rotate no_reflect no_shear #
lump $-1 $-1 $28 $4 #
transform $-1 1 0 0 0 1 0 0 0 1 60.053102206488234 25.97364939666652 7.8645455027627458 1 rotate no_reflect no_shear #
lump $-1 $-1 $29 $5 #
transform $-1 1 0 0 0 1 0 0 0 1 60.053102206488234 25.97364939666652 7.8645455027627458 1 rotate no_reflect no_shear #
lump $-1 $-1 $30 $6 #
transform $-1 1 0 0 0 1 0 0 0 1 60.053102206488234 25.97364939666652 7.8645455027627458 1 rotate no_reflect no_shear #
lump $-1 $-1 $31 $7 #
transform $-1 1 0 0 0 1 0 0 0 1 60.053102206488234 25.97364939666652 7.8645455027627458 1 rotate no_reflect no_shear #
shell $-1 $-1 $-1 $32 $-1 $8 #
shell $-1 $-1 $-1 $33 $-1 $10 #
shell $-1 $-1 $-1 $34 $-1 $12 #
shell $-1 $-1 $-1 $35 $-1 $14 #
shell $-1 $-1 $-1 $36 $-1 $16 #
shell $-1 $-1 $-1 $37 $-1 $18 #
shell $-1 $-1 $-1 $38 $-1 $20 #
shell $-1 $-1 $-1 $39 $-1 $22 #
face $-1 $40 $41 $24 $-1 $42 forward single #
face $-1 $43 $44 $25 $-1 $45 forward single #
face $-1 $46 $47 $26 $-1 $48 reversed single #
face $-1 $49 $50 $27 $-1 $51 forward single #
face $-1 $52 $53 $28 $-1 $54 forward single #
face $-1 $55 $56 $29 $-1 $57 forward single #
face $-1 $58 $59 $30 $-1 $60 reversed single #
face $-1 $61 $62 $31 $-1 $63 forward single #
face $-1 $64 $65 $24 $-1 $66 reversed single #
loop $-1 $-1 $67 $32 #
plane-surface $-1 0 0 7.8645455027627458 0 0 1 1 0 0 forward_v I I I I #
face $-1 $68 $69 $25 $-1 $70 reversed single #
loop $-1 $-1 $71 $33 #
plane-surface $-1 -60.053102206488234 0 0 1 0 0 0 0 -1 forward_v I I I I #
face $-1 $72 $73 $26 $-1 $74 reversed single #
loop $-1 $-1 $75 $34 #
plane-surface $-1 18.978030453514947 58.983383572010752 128.51339536481069 1 0 0 0 -0.61566148304635926 -0.78801074757464917 forward_v I I I I #
face $-1 $76 $77 $27 $-1 $78 forward single #
loop $-1 $79 $80 $35 #
cone-surface $-1 25.068647495278285 20.808379188104364 3.1610579211316208 0 -0.61566148304635926 -0.78801074757464917 2 0 0 1 I I 0 1 2 forward I I I I #
face $-1 $81 $82 $28 $-1 $83 forward single #
loop $-1 $84 $85 $36 #
cone-surface $-1 34.204573057923284 20.808379188104364 3.1610579211316208 0 -0.61566148304635926 -0.78801074757464917 2 0 0 1 I I 0 1 2 forward I I I I #
face $-1 $86 $87 $29 $-1 $88 forward single #
loop $-1 $89 $90 $37 #
cone-surface $-1 43.340498620568283 20.808379188104364 3.1610579211316208 0 -0.61566148304635926 -0.78801074757464917 2 0 0 1 I I 0 1 2 forward I I I I #
face $-1 $91 $92 $30 $-1 $93 reversed single #
loop $-1 $-1 $94 $38 #
plane-surface $-1 -28.478991006505971 -87.832918525154128 105.96690012516288 -1 0 0 0 -0.51503808176128008 0.85716729658548041 forward_v I I I I #
face $-1 $95 $96 $31 $-1 $97 forward single #
loop $-1 $98 $99 $39 #
cone-surface $-1 -41.241773999680589 -20.952348802011741 3.7984254753156064 0 0.51503808176128008 -0.85716729658548041 1 0 0 1 I I 0 1 1 forward I I I I #
face $-1 $100 $101 $24 $-1 $102 reversed single #
loop $-1 $-1 $103 $40 #
plane-surface $-1 0 0 -7.8645455027627458 0 0 1 1 0 0 forward_v I I I I #
coedge $-1 $104 $105 $106 $107 forward $41 $-1 #
face $-1 $108 $109 $25 $-1 $110 forward single #
loop $-1 $-1 $111 $43 #
plane-surface $-1 0 25.97364939666652 0 0 -1 0 0 0 -1 forward_v I I I I #
coedge $-1 $112 $113 $114 $115 forward $44 $-1 #
face $-1 $116 $117 $26 $-1 $118 reversed single #
loop $-1 $-1 $119 $46 #
plane-surface $-1 34.204573057923284 -14.961380359951519 33.868415436987476 0 0.61566148304635926 0.78801074757464917 1 0 0 forward_v I I I I #
coedge $-1 $120 $121 $122 $123 reversed $47 $-1 #
face $-1 $-1 $124 $27 $-1 $125 forward single #
loop $-1 $126 $127 $49 #
cone-surface $-1 25.068647495278285 18.853244847415407 0.6586001324913644 0 -0.61566148304635926 -0.78801074757464917 1 0 0 1 I I -0.70710678118654746 0.70710678118654746 1 forward I I I I #
loop $-1 $-1 $128 $35 #
coedge $-1 $80 $80 $129 $130 reversed $50 $-1 #
face $-1 $-1 $131 $28 $-1 $132 forward single #
loop $-1 $133 $134 $52 #
cone-surface $-1 34.204573057923284 18.853244847415407 0.6586001324913644 0 -0.61566148304635926 -0.78801074757464917 1 0 0 1 I I -0.70710678118654746 0.70710678118654746 1 forward I I I I #
loop $-1 $-1 $135 $36 #
coedge $-1 $85 $85 $136 $137 reversed $53 $-1 #
face $-1 $-1 $138 $29 $-1 $139 forward single #
loop $-1 $140 $141 $55 #
cone-surface $-1 43.340498620568283 18.853244847415407 0.6586001324913644 0 -0.61566148304635926 -0.78801074757464917 1 0 0 1 I I -0.70710678118654746 0.70710678118654746 1 forward I I I I #
loop $-1 $-1 $142 $37 #
coedge $-1 $90 $90 $143 $144 reversed $56 $-1 #
face $-1 $145 $146 $30 $-1 $147 reversed single #
loop $-1 $-1 $148 $58 #
plane-surface $-1 -41.241773999680589 -25.973649396666538 3.0157895853487418 0 -0.51503808176128008 0.85716729658548041 1 0 0 forward_v I I I I #
coedge $-1 $149 $150 $151 $152 reversed $59 $-1 #
face $-1 $-1 $153 $31 $-1 $154 forward single #
loop $-1 $155 $156 $61 #
cone-surface $-1 -41.241773999680589 -19.708371587564521 1.7280997582827267 0 0.51503808176128008 -0.85716729658548041 0.5 0 0 1 I I -0.70710678118654746 0.70710678118654746 0.5 forward I I I I #
loop $-1 $-1 $157 $39 #
coedge $-1 $99 $99 $158 $159 reversed $62 $-1 #
face $-1 $160 $161 $24 $-1 $162 reversed single #
loop $-1 $-1 $163 $64 #
plane-surface $-1 0 -25.97364939666652 0 0 1 0 0 0 1 forward_v I I I I #
coedge $-1 $164 $165 $166 $167 forward $65 $-1 #
coedge $-1 $168 $67 $169 $170 forward $41 $-1 #
coedge $-1 $67 $168 $171 $172 forward $41 $-1 #
coedge $-1 $173 $174 $67 $107 reversed $175 $-1 #
edge $-1 $176 -25.97364939666652 $177 25.97364939666652 $106 $178 forward 7 unknown #
face $-1 $179 $180 $25 $-1 $181 reversed single #
loop $-1 $-1 $114 $68 #
plane-surface $-1 -63.077374813304743 0 -4.8645455027627458 0 0 1 1 0 0 forward_v I I I I #
coedge $-1 $182 $183 $113 $184 forward $69 $-1 #
coedge $-1 $185 $71 $186 $187 reversed $44 $-1 #
coedge $-1 $71 $185 $111 $184 reversed $44 $-1 #
coedge $-1 $188 $189 $71 $115 reversed $109 $-1 #
edge $-1 $190 -25.97364939666652 $191 25.97364939666652 $114 $192 forward 7 unknown #
face $-1 $193 $194 $26 $-1 $195 forward single #
loop $-1 $-1 $196 $72 #
plane-surface $-1 49.431115662331621 58.983383572010752 128.51339536481069 -1 0 0 0 0.61566148304635926 0.78801074757464917 forward_v I I I I #
coedge $-1 $197 $198 $199 $200 reversed $73 $-1 #
coedge $-1 $121 $75 $201 $202 reversed $47 $-1 #
coedge $-1 $75 $120 $197 $203 reversed $47 $-1 #
coedge $-1 $199 $204 $75 $123 forward $194 $-1 #
edge $-1 $205 3.5180423893388557 $206 11.169637091177975 $122 $207 forward 7 unknown #
loop $-1 $-1 $129 $76 #
plane-surface $-1 34.204573057923284 -14.961380359951519 33.868415436987476 0 0.61566148304635926 0.78801074757464917 1 0 0 forward_v I I I I #
loop $-1 $-1 $208 $49 #
coedge $-1 $127 $127 $128 $209 reversed $77 $-1 #
coedge $-1 $128 $128 $127 $209 forward $79 $-1 #
coedge $-1 $129 $129 $80 $130 forward $124 $-1 #
edge $-1 $210 -1.367043107705877e-015 $210 6.2831853071795987 $129 $211 forward 7 unknown #
loop $-1 $-1 $136 $81 #
plane-surface $-1 34.204573057923284 -14.961380359951519 33.868415436987476 0 0.61566148304635926 0.78801074757464917 1 0 0 forward_v I I I I #
loop $-1 $-1 $212 $52 #
coedge $-1 $134 $134 $135 $213 reversed $82 $-1 #
coedge $-1 $135 $135 $134 $213 forward $84 $-1 #
coedge $-1 $136 $136 $85 $137 forward $131 $-1 #
edge $-1 $214 -1.367043107705877e-015 $214 6.2831853071795987 $136 $215 forward 7 unknown #
loop $-1 $-1 $143 $86 #
plane-surface $-1 34.204573057923284 -14.961380359951519 33.868415436987476 0 0.61566148304635926 0.78801074757464917 1 0 0 forward_v I I I I #
loop $-1 $-1 $216 $55 #
coedge $-1 $141 $141 $142 $217 reversed $87 $-1 #
coedge $-1 $142 $142 $141 $217 forward $89 $-1 #
coedge $-1 $143 $143 $90 $144 forward $138 $-1 #
edge $-1 $218 -1.367043107705877e-015 $218 6.2831853071795987 $143 $219 forward 7 unknown #
face $-1 $220 $221 $30 $-1 $222 reversed single #
loop $-1 $-1 $223 $91 #
plane-surface $-1 -54.004556992855207 -87.832918525154128 105.96690012516288 1 0 0 0 0.51503808176128008 -0.85716729658548041 forward_v I I I I #
coedge $-1 $224 $225 $226 $227 reversed $92 $-1 #
coedge $-1 $150 $94 $228 $229 reversed $59 $-1 #
coedge $-1 $94 $149 $224 $230 reversed $59 $-1 #
coedge $-1 $226 $231 $94 $152 forward $232 $-1 #
edge $-1 $233 17.942809865910544 $234 26.012494708086926 $151 $235 forward 7 unknown #
loop $-1 $-1 $158 $95 #
plane-surface $-1 -41.241773999680589 -25.973649396666538 3.0157895853487418 0 -0.51503808176128008 0.85716729658548041 1 0 0 forward_v I I I I #
loop $-1 $-1 $236 $61 #
coedge $-1 $156 $156 $157 $237 reversed $96 $-1 #
coedge $-1 $157 $157 $156 $237 forward $98 $-1 #
coedge $-1 $158 $158 $99 $159 forward $153 $-1 #
edge $-1 $238 -1.8297828381764705e-015 $238 6.2831853071795987 $158 $239 forward 7 unknown #
face $-1 $240 $241 $24 $-1 $242 reversed single #
loop $-1 $-1 $243 $100 #
plane-surface $-1 -60.053102206488234 0 0 1 0 0 0 0 -1 forward_v I I I I #
coedge $-1 $244 $171 $245 $246 forward $101 $-1 #
coedge $-1 $247 $103 $244 $248 forward $65 $-1 #
coedge $-1 $103 $247 $249 $250 forward $65 $-1 #
coedge $-1 $174 $173 $103 $167 reversed $175 $-1 #
edge $-1 $251 -25.97364939666652 $252 25.97364939666652 $166 $253 forward 7 unknown #
coedge $-1 $105 $104 $254 $255 forward $41 $-1 #
coedge $-1 $256 $257 $104 $170 reversed $241 $-1 #
edge $-1 $177 -60.053102206488234 $258 60.053102206488234 $169 $259 forward 7 unknown #
coedge $-1 $163 $260 $105 $172 reversed $101 $-1 #
edge $-1 $261 -60.053102206488234 $176 60.053102206488234 $171 $262 forward 7 unknown #
coedge $-1 $166 $106 $260 $263 forward $175 $-1 #
coedge $-1 $106 $166 $256 $264 reversed $175 $-1 #
loop $-1 $-1 $173 $240 #
vertex $-1 $107 $265 #
vertex $-1 $107 $266 #
straight-curve $-1 60.053102206488234 0 7.8645455027627458 0 1 0 I I #
face $-1 $267 $268 $25 $-1 $269 reversed single #
loop $-1 $-1 $270 $108 #
plane-surface $-1 -66.101647420121253 0 -6.3645455027627458 1 0 0 0 0 -1 forward_v I I I I #
coedge $-1 $271 $111 $272 $273 reversed $69 $-1 #
coedge $-1 $111 $271 $188 $274 reversed $69 $-1 #
edge $-1 $190 4.8645455027627458 $275 7.8645455027627458 $111 $276 forward 7 unknown #
coedge $-1 $113 $112 $277 $278 reversed $44 $-1 #
coedge $-1 $279 $280 $112 $187 forward $281 $-1 #
edge $-1 $282 -7.8645455027627458 $191 -4.8645455027627458 $186 $283 forward 7 unknown #
coedge $-1 $284 $114 $183 $274 forward $109 $-1 #
coedge $-1 $114 $284 $279 $285 forward $109 $-1 #
vertex $-1 $184 $286 #
vertex $-1 $285 $287 #
straight-curve $-1 -60.053102206488234 0 -4.8645455027627458 0 -1 0 I I #
face $-1 $-1 $288 $26 $-1 $289 reversed single #
loop $-1 $-1 $122 $116 #
plane-surface $-1 0 0 7.8645455027627458 0 0 1 1 0 0 forward_v I I I I #
coedge $-1 $290 $291 $292 $293 reversed $117 $-1 #
coedge $-1 $294 $119 $121 $203 forward $73 $-1 #
coedge $-1 $119 $294 $290 $295 forward $73 $-1 #
coedge $-1 $292 $122 $119 $200 forward $194 $-1 #
edge $-1 $206 1.875743924553305 $296 32.328829133369979 $199 $297 forward 7 unknown #
coedge $-1 $298 $299 $120 $202 forward $288 $-1 #
edge $-1 $300 -62.370233260773631 $205 -56.392152179642601 $201 $301 forward 7 unknown #
edge $-1 $206 42.237285668018046 $300 51.947298793333033 $121 $302 forward 7 unknown #
coedge $-1 $122 $292 $298 $303 forward $194 $-1 #
vertex $-1 $202 $304 #
vertex $-1 $123 $305 #
straight-curve $-1 18.978030453514947 29.491691786005376 7.8645455027627449 0 -1 0 I I #
coedge $-1 $208 $208 $-1 $306 reversed $126 $-1 #
edge $-1 $307 0 $307 6.2831853071796004 $127 $308 forward 7 unknown #
vertex $-1 $130 $309 #
ellipse-curve $-1 25.068647495278285 22.147852045746959 4.8755049621972235 0 0.61566148304635926 0.78801074757464917 2 0 0 1 I I #
coedge $-1 $212 $212 $-1 $310 reversed $133 $-1 #
edge $-1 $311 0 $311 6.2831853071796004 $134 $312 forward 7 unknown #
vertex $-1 $137 $313 #
ellipse-curve $-1 34.204573057923284 22.147852045746959 4.8755049621972235 0 0.61566148304635926 0.78801074757464917 2 0 0 1 I I #
coedge $-1 $216 $216 $-1 $314 reversed $140 $-1 #
edge $-1 $315 0 $315 6.2831853071796004 $141 $316 forward 7 unknown #
vertex $-1 $144 $317 #
ellipse-curve $-1 43.340498620568283 22.147852045746959 4.8755049621972235 0 0.61566148304635926 0.78801074757464917 2 0 0 1 I I #
face $-1 $-1 $232 $30 $-1 $318 forward single #
loop $-1 $-1 $319 $145 #
plane-surface $-1 0 -25.97364939666652 0 0 1 0 0 0 1 forward_v I I I I #
coedge $-1 $320 $321 $322 $323 reversed $146 $-1 #
coedge $-1 $324 $148 $150 $230 forward $92 $-1 #
coedge $-1 $148 $324 $320 $325 forward $92 $-1 #
coedge $-1 $322 $151 $148 $227 forward $232 $-1 #
edge $-1 $234 7.8581040066656769 $326 33.383669993014912 $226 $327 forward 7 unknown #
coedge $-1 $328 $329 $149 $229 forward $221 $-1 #
edge $-1 $330 -49.967660477232684 $233 -45.118904559818695 $228 $331 forward 7 unknown #
edge $-1 $234 -9.4143638870987374 $330 -2.0715698412527822e-014 $150 $332 forward 7 unknown #
coedge $-1 $151 $322 $328 $333 forward $232 $-1 #
loop $-1 $-1 $322 $220 #
vertex $-1 $229 $334 #
vertex $-1 $152 $335 #
straight-curve $-1 -28.478991006505971 -43.916459262577064 7.8645455027627449 0 1 0 I I #
coedge $-1 $236 $236 $-1 $336 reversed $155 $-1 #
edge $-1 $337 0 $337 6.2831853071796004 $156 $338 forward 7 unknown #
vertex $-1 $159 $339 #
ellipse-curve $-1 -41.241773999680589 -21.938806975578323 5.4401675440557504 0 -0.51503808176128008 0.85716729658548041 1 0 0 1 I I #
face $-1 $-1 $175 $24 $-1 $340 reversed single #
loop $-1 $-1 $256 $160 #
plane-surface $-1 0 25.97364939666652 0 0 -1 0 0 0 -1 forward_v I I I I #
coedge $-1 $341 $254 $257 $342 forward $161 $-1 #
coedge $-1 $260 $163 $164 $248 reversed $101 $-1 #
coedge $-1 $254 $341 $163 $246 reversed $161 $-1 #
edge $-1 $261 -7.8645455027627458 $343 7.8645455027627458 $245 $344 forward 7 unknown #
coedge $-1 $165 $164 $341 $345 forward $65 $-1 #
edge $-1 $252 -60.053102206488234 $343 60.053102206488234 $244 $346 forward 7 unknown #
coedge $-1 $257 $256 $165 $250 reversed $241 $-1 #
edge $-1 $347 -60.053102206488234 $251 60.053102206488234 $249 $348 forward 7 unknown #
vertex $-1 $167 $349 #
vertex $-1 $263 $350 #
straight-curve $-1 60.053102206488234 0 -7.8645455027627458 0 -1 0 I I #
coedge $-1 $243 $245 $168 $255 reversed $161 $-1 #
edge $-1 $258 -25.97364939666652 $261 25.97364939666652 $254 $351 forward 7 unknown #
coedge $-1 $249 $169 $174 $264 forward $241 $-1 #
coedge $-1 $169 $249 $243 $342 reversed $241 $-1 #
vertex $-1 $170 $352 #
straight-curve $-1 0 25.97364939666652 7.8645455027627458 -1 0 0 I I #
coedge $-1 $171 $244 $173 $263 reversed $101 $-1 #
vertex $-1 $255 $353 #
straight-curve $-1 0 -25.97364939666652 7.8645455027627458 1 0 0 I I #
edge $-1 $176 -7.8645455027627458 $252 7.8645455027627458 $173 $354 forward 7 unknown #
edge $-1 $177 -7.8645455027627458 $251 7.8645455027627458 $174 $355 forward 7 unknown #
point $-1 60.053102206488234 -25.97364939666652 7.8645455027627458 #
point $-1 60.053102206488234 25.97364939666652 7.8645455027627458 #
face $-1 $-1 $281 $25 $-1 $356 reversed single #
loop $-1 $-1 $277 $179 #
plane-surface $-1 0 0 -7.8645455027627458 0 0 1 1 0 0 forward_v I I I I #
coedge $-1 $357 $358 $271 $359 forward $180 $-1 #
coedge $-1 $183 $182 $270 $359 reversed $69 $-1 #
coedge $-1 $277 $360 $182 $273 forward $268 $-1 #
edge $-1 $361 -66.101647420121253 $275 -60.053102206488234 $182 $362 forward 7 unknown #
edge $-1 $190 -3.0242726068165098 $363 3.0242726068165098 $183 $364 forward 7 unknown #
vertex $-1 $184 $365 #
straight-curve $-1 -60.053102206488234 25.97364939666652 0 0 0 -1 I I #
coedge $-1 $366 $272 $185 $278 forward $268 $-1 #
edge $-1 $275 -25.97364939666652 $282 25.97364939666652 $277 $367 forward 7 unknown #
coedge $-1 $368 $186 $189 $285 reversed $281 $-1 #
coedge $-1 $186 $368 $366 $369 reversed $281 $-1 #
loop $-1 $-1 $186 $267 #
vertex $-1 $369 $370 #
straight-curve $-1 -60.053102206488234 -25.97364939666652 0 0 0 1 I I #
coedge $-1 $189 $188 $358 $371 forward $109 $-1 #
edge $-1 $372 -3.0242726068165098 $191 3.0242726068165098 $279 $373 forward 7 unknown #
point $-1 -60.053102206488234 25.97364939666652 -4.8645455027627458 #
point $-1 -60.053102206488234 -25.97364939666652 -4.8645455027627458 #
loop $-1 $-1 $201 $193 #
plane-surface $-1 0 25.97364939666652 0 0 -1 0 0 0 -1 forward_v I I I I #
coedge $-1 $291 $196 $198 $295 reversed $117 $-1 #
coedge $-1 $196 $290 $374 $375 reversed $117 $-1 #
coedge $-1 $204 $199 $196 $293 forward $194 $-1 #
edge $-1 $296 -11.169637091177975 $376 -3.5180423893388557 $292 $377 forward 7 unknown #
coedge $-1 $198 $197 $299 $378 reversed $73 $-1 #
edge $-1 $379 -51.947298793333033 $296 -42.237285668018046 $290 $380 forward 7 unknown #
vertex $-1 $200 $381 #
straight-curve $-1 17.102286528961642 18.322054694827401 7.8645455027627449 1 0 0 I I #
coedge $-1 $374 $201 $204 $303 reversed $288 $-1 #
coedge $-1 $201 $374 $294 $378 forward $288 $-1 #
vertex $-1 $202 $382 #
straight-curve $-1 18.978030453514947 25.97364939666652 64.256697682405346 0 0 1 I I #
straight-curve $-1 18.978030453514947 -14.961380359951519 33.868415436987476 0 0.78801074757464917 -0.61566148304635926 I I #
edge $-1 $376 -49.431115662331621 $205 -18.978030453514947 $298 $383 forward 7 unknown #
point $-1 18.978030453514947 25.97364939666652 7.8645455027627458 #
point $-1 18.978030453514947 18.322054694827401 7.8645455027627449 #
edge $-1 $384 1 $384 0 $208 $-1 forward 7 unknown #
vertex $-1 $209 $385 #
ellipse-curve $-1 25.068647495278285 19.468906330461767 1.4466108800660136 0 0.61566148304635926 0.78801074757464917 2 0 0 1 I I #
point $-1 27.068647495278285 22.147852045746959 4.875504962197228 #
edge $-1 $386 1 $386 0 $212 $-1 forward 7 unknown #
vertex $-1 $213 $387 #
ellipse-curve $-1 34.204573057923284 19.468906330461767 1.4466108800660136 0 0.61566148304635926 0.78801074757464917 2 0 0 1 I I #
point $-1 36.204573057923284 22.147852045746959 4.875504962197228 #
edge $-1 $388 1 $388 0 $216 $-1 forward 7 unknown #
vertex $-1 $217 $389 #
ellipse-curve $-1 43.340498620568283 19.468906330461767 1.4466108800660136 0 0.61566148304635926 0.78801074757464917 2 0 0 1 I I #
point $-1 45.340498620568283 22.147852045746959 4.875504962197228 #
plane-surface $-1 0 0 7.8645455027627458 0 0 1 1 0 0 forward_v I I I I #
coedge $-1 $329 $328 $321 $390 forward $221 $-1 #
coedge $-1 $321 $223 $225 $325 reversed $146 $-1 #
coedge $-1 $223 $320 $319 $390 reversed $146 $-1 #
coedge $-1 $231 $226 $223 $323 forward $232 $-1 #
edge $-1 $326 -26.012494708086926 $391 -17.942809865910544 $322 $392 forward 7 unknown #
coedge $-1 $225 $224 $329 $393 reversed $92 $-1 #
edge $-1 $394 2.0715698412527822e-014 $326 9.4143638870987374 $320 $395 forward 7 unknown #
vertex $-1 $227 $396 #
straight-curve $-1 -20.620886999840295 -17.903964554490138 7.8645455027627458 -1 0 0 I I #
coedge $-1 $319 $228 $231 $333 reversed $221 $-1 #
coedge $-1 $228 $319 $324 $393 forward $221 $-1 #
vertex $-1 $229 $397 #
straight-curve $-1 -28.478991006505971 -25.97364939666652 52.98345006258144 0 0 1 I I #
straight-curve $-1 -28.478991006505971 -25.973649396666538 3.0157895853487418 0 -0.85716729658548041 -0.51503808176128008 I I #
edge $-1 $391 -54.004556992855207 $233 -28.478991006505971 $328 $398 forward 7 unknown #
point $-1 -28.478991006505971 -25.97364939666652 7.8645455027627458 #
point $-1 -28.478991006505971 -17.903964554490138 7.8645455027627458 #
edge $-1 $399 1 $399 0 $236 $-1 forward 7 unknown #
vertex $-1 $237 $400 #
ellipse-curve $-1 -41.241773999680589 -19.965890628445162 2.1566834065754668 0 -0.51503808176128008 0.85716729658548041 1 0 0 1 I I #
point $-1 -40.241773999680589 -21.938806975578323 5.4401675440557469 #
plane-surface $-1 60.053102206488234 0 0 -1 0 0 0 0 1 forward_v I I I I #
coedge $-1 $245 $243 $247 $345 reversed $161 $-1 #
edge $-1 $258 -7.8645455027627458 $347 7.8645455027627458 $257 $401 forward 7 unknown #
vertex $-1 $345 $402 #
straight-curve $-1 -60.053102206488234 -25.97364939666652 0 0 0 -1 I I #
edge $-1 $343 -25.97364939666652 $347 25.97364939666652 $341 $403 forward 7 unknown #
straight-curve $-1 0 -25.97364939666652 -7.8645455027627458 -1 0 0 I I #
vertex $-1 $250 $404 #
straight-curve $-1 0 25.97364939666652 -7.8645455027627458 1 0 0 I I #
point $-1 60.053102206488234 25.97364939666652 -7.8645455027627458 #
point $-1 60.053102206488234 -25.97364939666652 -7.8645455027627458 #
straight-curve $-1 -60.053102206488234 0 7.8645455027627458 0 -1 0 I I #
point $-1 -60.053102206488234 25.97364939666652 7.8645455027627458 #
point $-1 -60.053102206488234 -25.97364939666652 7.8645455027627458 #
straight-curve $-1 60.053102206488234 -25.97364939666652 0 0 0 -1 I I #
straight-curve $-1 60.053102206488234 25.97364939666652 0 0 0 -1 I I #
plane-surface $-1 0 -25.97364939666652 0 0 1 0 0 0 1 forward_v I I I I #
coedge $-1 $405 $270 $360 $406 reversed $180 $-1 #
coedge $-1 $270 $405 $284 $371 reversed $180 $-1 #
edge $-1 $363 -1.5 $361 1.5 $271 $407 forward 7 unknown #
coedge $-1 $272 $366 $357 $406 forward $268 $-1 #
vertex $-1 $273 $408 #
straight-curve $-1 0 25.97364939666652 -7.8645455027627458 1 0 0 I I #
vertex $-1 $274 $409 #
straight-curve $-1 -63.077374813304743 25.97364939666652 -4.8645455027627458 -1 0 0 I I #
point $-1 -60.053102206488234 25.97364939666652 -7.8645455027627458 #
coedge $-1 $360 $277 $280 $369 forward $268 $-1 #
straight-curve $-1 -60.053102206488234 0 -7.8645455027627458 0 -1 0 I I #
coedge $-1 $280 $279 $405 $410 forward $281 $-1 #
edge $-1 $282 -3.0242726068165098 $411 3.0242726068165098 $280 $412 forward 7 unknown #
point $-1 -60.053102206488234 -25.97364939666652 -7.8645455027627458 #
edge $-1 $363 -25.97364939666652 $372 25.97364939666652 $358 $413 forward 7 unknown #
vertex $-1 $371 $414 #
straight-curve $-1 -63.077374813304743 -25.97364939666652 -4.8645455027627458 1 0 0 I I #
coedge $-1 $299 $298 $291 $375 forward $288 $-1 #
edge $-1 $376 56.392152179642601 $379 62.370233260773631 $374 $415 forward 7 unknown #
vertex $-1 $303 $416 #
straight-curve $-1 49.431115662331621 29.491691786005376 7.8645455027627449 0 1 0 I I #
edge $-1 $379 -32.328829133369979 $300 -1.875743924553305 $299 $417 forward 7 unknown #
vertex $-1 $378 $418 #
straight-curve $-1 49.431115662331621 -14.961380359951519 33.868415436987476 0 -0.78801074757464917 0.61566148304635926 I I #
point $-1 49.431115662331621 18.322054694827401 7.8645455027627449 #
point $-1 18.978030453514947 25.973649396666517 1.886464421631711 #
straight-curve $-1 0 25.97364939666652 7.8645455027627458 -1 0 0 I I #
vertex $-1 $306 $419 #
point $-1 27.068647495278285 19.468906330461767 1.4466108800660136 #
vertex $-1 $310 $420 #
point $-1 36.204573057923284 19.468906330461767 1.4466108800660136 #
vertex $-1 $314 $421 #
point $-1 45.340498620568283 19.468906330461767 1.4466108800660136 #
edge $-1 $391 45.118904559818695 $394 49.967660477232684 $319 $422 forward 7 unknown #
vertex $-1 $333 $423 #
straight-curve $-1 -54.004556992855207 -43.916459262577064 7.8645455027627449 0 -1 0 I I #
edge $-1 $394 -33.383669993014912 $330 -7.8581040066656769 $329 $424 forward 7 unknown #
vertex $-1 $393 $425 #
straight-curve $-1 -54.004556992855207 -25.973649396666538 3.0157895853487418 0 0.85716729658548041 0.51503808176128008 I I #
point $-1 -54.004556992855207 -17.903964554490138 7.8645455027627458 #
point $-1 -28.478991006505971 -25.97364939666652 3.0157895853487524 #
straight-curve $-1 0 -25.97364939666652 7.8645455027627458 1 0 0 I I #
vertex $-1 $336 $426 #
point $-1 -40.241773999680589 -19.965890628445162 2.1566834065754668 #
straight-curve $-1 -60.053102206488234 25.97364939666652 0 0 0 -1 I I #
point $-1 -60.053102206488234 -25.97364939666652 -7.8645455027627458 #
straight-curve $-1 -60.053102206488234 0 -7.8645455027627458 0 1 0 I I #
point $-1 -60.053102206488234 25.97364939666652 -7.8645455027627458 #
coedge $-1 $358 $357 $368 $410 reversed $180 $-1 #
edge $-1 $411 -25.97364939666652 $361 25.97364939666652 $357 $427 forward 7 unknown #
straight-curve $-1 -66.101647420121253 25.97364939666652 -6.3645455027627458 0 0 -1 I I #
point $-1 -66.101647420121253 25.97364939666652 -7.8645455027627458 #
point $-1 -66.101647420121253 25.97364939666652 -4.8645455027627458 #
edge $-1 $372 -1.5 $411 1.5 $405 $428 forward 7 unknown #
vertex $-1 $406 $429 #
straight-curve $-1 -63.077374813304743 -25.97364939666652 -7.8645455027627458 -1 0 0 I I #
straight-curve $-1 -66.101647420121253 0 -4.8645455027627458 0 -1 0 I I #
point $-1 -66.101647420121253 -25.97364939666652 -4.8645455027627458 #
straight-curve $-1 49.431115662331621 25.97364939666652 64.256697682405346 0 0 -1 I I #
point $-1 49.431115662331621 25.97364939666652 7.8645455027627458 #
straight-curve $-1 17.102286528961642 25.973649396666524 1.886464421631711 -1 0 0 I I #
point $-1 49.431115662331621 25.973649396666517 1.886464421631711 #
point $-1 25.068647495278285 18.237583364369048 -0.12941061508328477 #
point $-1 34.204573057923284 18.237583364369048 -0.12941061508328477 #
point $-1 43.340498620568283 18.237583364369048 -0.12941061508328477 #
straight-curve $-1 -54.004556992855207 -25.97364939666652 52.98345006258144 0 0 -1 I I #
point $-1 -54.004556992855207 -25.97364939666652 7.8645455027627458 #
straight-curve $-1 -20.620886999840295 -25.97364939666652 3.0157895853487533 1 0 0 I I #
point $-1 -54.004556992855207 -25.97364939666652 3.0157895853487524 #
point $-1 -41.241773999680589 -19.45085254668388 1.2995161099899866 #
straight-curve $-1 -66.101647420121253 0 -7.8645455027627458 0 1 0 I I #
straight-curve $-1 -66.101647420121253 -25.97364939666652 -6.3645455027627458 0 0 -1 I I #
point $-1 -66.101647420121253 -25.97364939666652 -7.8645455027627458 #
End-of-ACIS-data 