500 0 9 0           
7 Unknown 11 ACIS 5.0 NT 24 Fri Mar 26 18:05:42 1999 
-1 9.9999999999999995e-007 1e-010 
body $-1 $9 $-1 $10 #
body $-1 $11 $-1 $12 #
body $-1 $13 $-1 $14 #
body $-1 $15 $-1 $16 #
body $-1 $17 $-1 $18 #
body $-1 $19 $-1 $20 #
body $-1 $21 $-1 $22 #
body $-1 $23 $-1 $24 #
body $-1 $25 $-1 $26 #
lump $-1 $-1 $27 $0 #
transform $-1 1 0 0 0 1 0 0 0 1 42.489089632862331 29.031639453481493 13.394672335632757 1 rotate no_reflect no_shear #
lump $-1 $-1 $28 $1 #
transform $-1 1 0 0 0 1 0 0 0 1 42.489089632862331 29.031639453481493 13.394672335632757 1 rotate no_reflect no_shear #
lump $-1 $-1 $29 $2 #
transform $-1 1 0 0 0 1 0 0 0 1 42.489089632862331 29.031639453481493 13.394672335632757 1 rotate no_reflect no_shear #
lump $-1 $-1 $30 $3 #
transform $-1 1 0 0 0 1 0 0 0 1 42.489089632862331 29.031639453481493 13.394672335632757 1 rotate no_reflect no_shear #
lump $-1 $-1 $31 $4 #
transform $-1 1 0 0 0 1 0 0 0 1 42.489089632862331 29.031639453481493 13.394672335632757 1 rotate no_reflect no_shear #
lump $-1 $-1 $32 $5 #
transform $-1 1 0 0 0 1 0 0 0 1 42.489089632862331 29.031639453481493 13.394672335632757 1 rotate no_reflect no_shear #
lump $-1 $-1 $33 $6 #
transform $-1 1 0 0 0 1 0 0 0 1 42.489089632862331 29.031639453481493 13.394672335632757 1 rotate no_reflect no_shear #
lump $-1 $-1 $34 $7 #
transform $-1 1 0 0 0 1 0 0 0 1 42.489089632862331 29.031639453481493 13.394672335632757 1 rotate no_reflect no_shear #
lump $-1 $-1 $35 $8 #
transform $-1 1 0 0 0 1 0 0 0 1 42.489089632862331 29.031639453481493 13.394672335632757 1 rotate no_reflect no_shear #
shell $-1 $-1 $-1 $36 $-1 $9 #
shell $-1 $-1 $-1 $37 $-1 $11 #
shell $-1 $-1 $-1 $38 $-1 $13 #
shell $-1 $-1 $-1 $39 $-1 $15 #
shell $-1 $-1 $-1 $40 $-1 $17 #
shell $-1 $-1 $-1 $41 $-1 $19 #
shell $-1 $-1 $-1 $42 $-1 $21 #
shell $-1 $-1 $-1 $43 $-1 $23 #
shell $-1 $-1 $-1 $44 $-1 $25 #
face $-1 $45 $46 $27 $-1 $47 forward single #
face $-1 $48 $49 $28 $-1 $50 forward single #
face $-1 $51 $52 $29 $-1 $53 reversed single #
face $-1 $54 $55 $30 $-1 $56 forward single #
face $-1 $57 $58 $31 $-1 $59 forward single #
face $-1 $60 $61 $32 $-1 $62 reversed single #
face $-1 $63 $64 $33 $-1 $65 forward single #
face $-1 $66 $67 $34 $-1 $68 reversed single #
face $-1 $69 $70 $35 $-1 $71 forward single #
face $-1 $72 $73 $27 $-1 $74 reversed single #
loop $-1 $-1 $75 $36 #
plane-surface $-1 0 0 13.394672335632757 0 0 1 1 0 0 forward_v I I I I #
face $-1 $76 $77 $28 $-1 $78 forward single #
loop $-1 $-1 $79 $37 #
plane-surface $-1 0 -29.031639453481493 0 0 1 0 0 0 1 forward_v I I I I #
face $-1 $80 $81 $29 $-1 $82 reversed single #
loop $-1 $-1 $83 $38 #
plane-surface $-1 73.593263807267604 9.2394354270693526 121.44004704853204 0 -1 0 -0.86602541151947299 0 -0.49999998660252726 forward_v I I I I #
face $-1 $84 $85 $30 $-1 $86 forward single #
loop $-1 $87 $88 $39 #
cone-surface $-1 38.544717948077668 2.1548114318597236 8.4383961172050768 -0.86602541151947299 0 -0.49999998660252726 0.49999998660252726 0 -0.86602541151947299 1 I I 0 1 1 forward I I I I #
face $-1 $89 $90 $31 $-1 $91 forward single #
loop $-1 $92 $93 $40 #
cone-surface $-1 38.544717948077668 6.4055858289854974 8.4383961172050768 -0.86602541151947299 0 -0.49999998660252726 0.49999998660252726 0 -0.86602541151947299 1 I I 0 1 1 forward I I I I #
face $-1 $94 $95 $32 $-1 $96 reversed single #
loop $-1 $-1 $97 $41 #
plane-surface $-1 -103.61727683913895 -11.849510432686975 63.303889644472768 0 1 0 -0.71933980857756763 0 0.69465836192734942 forward_v I I I I #
face $-1 $98 $99 $33 $-1 $100 forward single #
loop $-1 $101 $102 $42 #
cone-surface $-1 -36.095841843582356 -7.8250179679984377 6.9131811210815588 0.71933980857756763 0 -0.69465836192734942 1.0419875428910241 0 1.0790097128663514 1 I I 0 1 1.5 forward I I I I #
face $-1 $103 $104 $34 $-1 $105 reversed single #
loop $-1 $-1 $106 $43 #
plane-surface $-1 -103.61727683913895 9.6555634231774921 63.303889644472768 0 1 0 -0.71933980857756763 0 0.69465836192734942 forward_v I I I I #
face $-1 $107 $108 $35 $-1 $109 forward single #
loop $-1 $110 $111 $44 #
cone-surface $-1 -36.095841843582356 13.680055887866029 6.9131811210815588 0.71933980857756763 0 -0.69465836192734942 1.0419875428910241 0 1.0790097128663514 1 I I 0 1 1.5 forward I I I I #
face $-1 $112 $113 $27 $-1 $114 reversed single #
loop $-1 $-1 $115 $45 #
plane-surface $-1 0 0 -13.394672335632757 0 0 1 1 0 0 forward_v I I I I #
coedge $-1 $116 $117 $118 $119 forward $46 $-1 #
face $-1 $120 $121 $28 $-1 $122 reversed single #
loop $-1 $-1 $123 $48 #
plane-surface $-1 0 0 13.394672335632757 0 0 1 1 0 0 forward_v I I I I #
coedge $-1 $124 $125 $126 $127 forward $49 $-1 #
face $-1 $128 $129 $29 $-1 $130 reversed single #
loop $-1 $-1 $131 $51 #
plane-surface $-1 1.1384928626512192e-006 4.2801986304226141 78.950958554162554 0.86602541151947299 0 0.49999998660252726 0.49999998660252726 0 -0.86602541151947299 forward_v I I I I #
coedge $-1 $132 $133 $134 $135 reversed $52 $-1 #
face $-1 $-1 $136 $30 $-1 $137 forward single #
loop $-1 $138 $139 $54 #
cone-surface $-1 36.48740873315468 2.1548114318597236 7.2506081305986125 -0.86602541151947299 0 -0.49999998660252726 0.24999999330126363 0 -0.43301270575973649 1 I I -0.70710678118654746 0.70710678118654746 0.5 forward I I I I #
loop $-1 $-1 $140 $39 #
coedge $-1 $88 $88 $141 $142 reversed $55 $-1 #
face $-1 $-1 $143 $31 $-1 $144 forward single #
loop $-1 $145 $146 $57 #
cone-surface $-1 36.48740873315468 6.4055858289854974 7.2506081305986125 -0.86602541151947299 0 -0.49999998660252726 0.24999999330126363 0 -0.43301270575973649 1 I I -0.70710678118654746 0.70710678118654746 0.5 forward I I I I #
loop $-1 $-1 $147 $40 #
coedge $-1 $93 $93 $148 $149 reversed $58 $-1 #
face $-1 $150 $151 $32 $-1 $152 reversed single #
loop $-1 $-1 $153 $60 #
plane-surface $-1 -42.489089632862346 -7.8250179679984377 4.2730868361758283 -0.71933980857756763 0 0.69465836192734942 0.69465836192734942 0 0.71933980857756763 forward_v I I I I #
coedge $-1 $154 $155 $156 $157 reversed $61 $-1 #
face $-1 $-1 $158 $33 $-1 $159 forward single #
loop $-1 $160 $161 $63 #
cone-surface $-1 -33.567395455966249 -7.8250179679984377 4.4714888848133167 0.71933980857756763 0 -0.69465836192734942 0.52099377144551207 0 0.53950485643317569 1 I I -0.70710678118654757 0.70710678118654757 0.75 forward I I I I #
loop $-1 $-1 $162 $42 #
coedge $-1 $102 $102 $163 $164 reversed $64 $-1 #
face $-1 $165 $166 $34 $-1 $167 reversed single #
loop $-1 $-1 $168 $66 #
plane-surface $-1 -42.489089632862346 13.680055887866029 4.2730868361758283 -0.71933980857756763 0 0.69465836192734942 0.69465836192734942 0 0.71933980857756763 forward_v I I I I #
coedge $-1 $169 $170 $171 $172 reversed $67 $-1 #
face $-1 $-1 $173 $35 $-1 $174 forward single #
loop $-1 $175 $176 $69 #
cone-surface $-1 -33.567395455966249 13.680055887866029 4.4714888848133167 0.71933980857756763 0 -0.69465836192734942 0.52099377144551207 0 0.53950485643317569 1 I I -0.70710678118654757 0.70710678118654757 0.75 forward I I I I #
loop $-1 $-1 $177 $44 #
coedge $-1 $111 $111 $178 $179 reversed $70 $-1 #
face $-1 $180 $181 $27 $-1 $182 reversed single #
loop $-1 $-1 $183 $72 #
plane-surface $-1 0 -29.031639453481493 0 0 1 0 0 0 1 forward_v I I I I #
coedge $-1 $184 $185 $186 $187 forward $73 $-1 #
coedge $-1 $188 $75 $189 $190 forward $46 $-1 #
coedge $-1 $75 $188 $191 $192 forward $46 $-1 #
coedge $-1 $193 $194 $75 $119 reversed $195 $-1 #
edge $-1 $196 -29.031639453481493 $197 29.031639453481493 $118 $198 forward 7 unknown #
face $-1 $199 $200 $28 $-1 $201 reversed single #
loop $-1 $-1 $202 $76 #
plane-surface $-1 -42.489089632862331 0 0 1 0 0 0 0 -1 forward_v I I I I #
coedge $-1 $203 $204 $205 $206 forward $77 $-1 #
coedge $-1 $205 $79 $202 $207 reversed $49 $-1 #
coedge $-1 $79 $205 $208 $209 reversed $49 $-1 #
coedge $-1 $210 $211 $79 $127 reversed $200 $-1 #
edge $-1 $212 -42.489089632862331 $213 42.489089632862331 $126 $214 forward 7 unknown #
face $-1 $215 $216 $29 $-1 $217 reversed single #
loop $-1 $-1 $218 $80 #
plane-surface $-1 73.593263807267604 -0.6790381662241245 121.44004704853204 0 1 0 0.86602541151947299 0 0.49999998660252726 forward_v I I I I #
coedge $-1 $219 $220 $221 $222 reversed $81 $-1 #
coedge $-1 $133 $83 $223 $224 reversed $52 $-1 #
coedge $-1 $83 $132 $219 $225 reversed $52 $-1 #
coedge $-1 $221 $226 $83 $135 forward $227 $-1 #
edge $-1 $228 -5.6924577292285292 $229 -1.0523073779857128 $134 $230 forward 7 unknown #
loop $-1 $-1 $141 $84 #
plane-surface $-1 1.1384928626512192e-006 4.2801986304226141 78.950958554162554 0.86602541151947299 0 0.49999998660252726 0.49999998660252726 0 -0.86602541151947299 forward_v I I I I #
loop $-1 $-1 $231 $54 #
coedge $-1 $139 $139 $140 $232 reversed $85 $-1 #
coedge $-1 $140 $140 $139 $232 forward $87 $-1 #
coedge $-1 $141 $141 $88 $142 forward $136 $-1 #
edge $-1 $233 0 $233 6.2831853071796004 $141 $234 forward 7 unknown #
loop $-1 $-1 $148 $89 #
plane-surface $-1 1.1384928626512192e-006 4.2801986304226141 78.950958554162554 0.86602541151947299 0 0.49999998660252726 0.49999998660252726 0 -0.86602541151947299 forward_v I I I I #
loop $-1 $-1 $235 $57 #
coedge $-1 $146 $146 $147 $236 reversed $90 $-1 #
coedge $-1 $147 $147 $146 $236 forward $92 $-1 #
coedge $-1 $148 $148 $93 $149 forward $143 $-1 #
edge $-1 $237 0 $237 6.2831853071796004 $148 $238 forward 7 unknown #
face $-1 $239 $240 $32 $-1 $241 forward single #
loop $-1 $-1 $242 $94 #
plane-surface $-1 -103.61727683913895 -3.8005255033099008 63.303889644472768 0 -1 0 0.71933980857756763 0 -0.69465836192734942 forward_v I I I I #
coedge $-1 $243 $244 $245 $246 reversed $95 $-1 #
coedge $-1 $155 $97 $247 $248 reversed $61 $-1 #
coedge $-1 $97 $154 $243 $249 reversed $61 $-1 #
coedge $-1 $245 $250 $97 $157 forward $240 $-1 #
edge $-1 $251 9.3195487867071449 $252 18.128161302901205 $156 $253 forward 7 unknown #
loop $-1 $-1 $163 $98 #
plane-surface $-1 -42.489089632862346 -7.8250179679984377 4.2730868361758283 -0.71933980857756763 0 0.69465836192734942 0.69465836192734942 0 0.71933980857756763 forward_v I I I I #
loop $-1 $-1 $254 $63 #
coedge $-1 $161 $161 $162 $255 reversed $99 $-1 #
coedge $-1 $162 $162 $161 $255 forward $101 $-1 #
coedge $-1 $163 $163 $102 $164 forward $158 $-1 #
edge $-1 $256 0 $256 6.2831853071796004 $163 $257 forward 7 unknown #
face $-1 $258 $259 $34 $-1 $260 forward single #
loop $-1 $-1 $261 $103 #
plane-surface $-1 -103.61727683913895 17.704548352554568 63.303889644472768 0 -1 0 0.71933980857756763 0 -0.69465836192734942 forward_v I I I I #
coedge $-1 $262 $263 $264 $265 reversed $104 $-1 #
coedge $-1 $170 $106 $266 $267 reversed $67 $-1 #
coedge $-1 $106 $169 $262 $268 reversed $67 $-1 #
coedge $-1 $264 $269 $106 $172 forward $259 $-1 #
edge $-1 $270 9.3195487867071449 $271 18.128161302901205 $171 $272 forward 7 unknown #
loop $-1 $-1 $178 $107 #
plane-surface $-1 -42.489089632862346 13.680055887866029 4.2730868361758283 -0.71933980857756763 0 0.69465836192734942 0.69465836192734942 0 0.71933980857756763 forward_v I I I I #
loop $-1 $-1 $273 $69 #
coedge $-1 $176 $176 $177 $274 reversed $108 $-1 #
coedge $-1 $177 $177 $176 $274 forward $110 $-1 #
coedge $-1 $178 $178 $111 $179 forward $173 $-1 #
edge $-1 $275 0 $275 6.2831853071796004 $178 $276 forward 7 unknown #
face $-1 $277 $278 $27 $-1 $279 reversed single #
loop $-1 $-1 $280 $112 #
plane-surface $-1 -42.489089632862331 0 0 1 0 0 0 0 -1 forward_v I I I I #
coedge $-1 $281 $191 $282 $283 forward $113 $-1 #
coedge $-1 $284 $115 $281 $285 forward $73 $-1 #
coedge $-1 $115 $284 $286 $287 forward $73 $-1 #
coedge $-1 $194 $193 $115 $187 reversed $195 $-1 #
edge $-1 $288 -29.031639453481493 $289 29.031639453481493 $186 $290 forward 7 unknown #
coedge $-1 $117 $116 $291 $292 forward $46 $-1 #
coedge $-1 $293 $294 $116 $190 reversed $278 $-1 #
edge $-1 $197 -42.489089632862331 $295 42.489089632862331 $189 $296 forward 7 unknown #
coedge $-1 $183 $297 $117 $192 reversed $113 $-1 #
edge $-1 $298 -42.489089632862331 $196 42.489089632862331 $191 $299 forward 7 unknown #
coedge $-1 $186 $118 $297 $300 forward $195 $-1 #
coedge $-1 $118 $186 $293 $301 reversed $195 $-1 #
loop $-1 $-1 $193 $277 #
vertex $-1 $119 $302 #
vertex $-1 $119 $303 #
straight-curve $-1 42.489089632862331 0 13.394672335632757 0 1 0 I I #
face $-1 $304 $305 $28 $-1 $306 reversed single #
loop $-1 $-1 $210 $120 #
plane-surface $-1 0 -36.558205051098518 8.5741927337086086 0 0 1 1 0 0 forward_v I I I I #
coedge $-1 $307 $308 $124 $207 forward $121 $-1 #
coedge $-1 $309 $123 $308 $310 forward $77 $-1 #
coedge $-1 $123 $309 $311 $312 forward $77 $-1 #
coedge $-1 $125 $124 $123 $206 reversed $49 $-1 #
edge $-1 $313 -42.489089632862331 $314 42.489089632862331 $123 $315 forward 7 unknown #
edge $-1 $314 -13.394672335632757 $213 -8.5741927337086086 $202 $316 forward 7 unknown #
coedge $-1 $311 $317 $125 $209 forward $318 $-1 #
edge $-1 $212 8.5741927337086086 $313 13.394672335632757 $208 $319 forward 7 unknown #
coedge $-1 $320 $126 $317 $321 forward $200 $-1 #
coedge $-1 $126 $320 $307 $322 forward $200 $-1 #
vertex $-1 $209 $323 #
vertex $-1 $207 $324 #
straight-curve $-1 0 -29.031639453481493 8.5741927337086086 -1 0 0 I I #
face $-1 $-1 $227 $29 $-1 $325 forward single #
loop $-1 $-1 $326 $128 #
plane-surface $-1 42.489089632862331 0 0 -1 0 0 0 0 1 forward_v I I I I #
coedge $-1 $327 $328 $329 $330 reversed $129 $-1 #
coedge $-1 $331 $131 $133 $225 forward $81 $-1 #
coedge $-1 $131 $331 $327 $332 forward $81 $-1 #
coedge $-1 $329 $134 $131 $222 forward $227 $-1 #
edge $-1 $229 -7.0993361118580456 $333 2.8191374814354315 $221 $334 forward 7 unknown #
coedge $-1 $335 $336 $132 $224 forward $216 $-1 #
edge $-1 $337 -55.362327638878178 $228 -47.325351188633263 $223 $338 forward 7 unknown #
edge $-1 $229 75.697878314573828 $337 84.97817926572462 $133 $339 forward 7 unknown #
coedge $-1 $134 $329 $335 $340 forward $227 $-1 #
loop $-1 $-1 $329 $215 #
vertex $-1 $224 $341 #
vertex $-1 $135 $342 #
straight-curve $-1 36.796631903633802 9.2394354270693526 13.394672335632755 -1 0 0 I I #
coedge $-1 $231 $231 $-1 $343 reversed $138 $-1 #
edge $-1 $344 0 $344 6.2831853071796004 $139 $345 forward 7 unknown #
vertex $-1 $142 $346 #
ellipse-curve $-1 40.169014457240934 2.1548114318597236 9.3761841105102874 0.86602541151947299 0 0.49999998660252726 0.49999998660252726 0 -0.86602541151947299 1 I I #
coedge $-1 $235 $235 $-1 $347 reversed $145 $-1 #
edge $-1 $348 0 $348 6.2831853071796004 $146 $349 forward 7 unknown #
vertex $-1 $149 $350 #
ellipse-curve $-1 40.169014457240934 6.4055858289854974 9.3761841105102874 0.86602541151947299 0 0.49999998660252726 0.49999998660252726 0 -0.86602541151947299 1 I I #
face $-1 $-1 $351 $32 $-1 $352 reversed single #
loop $-1 $-1 $156 $150 #
plane-surface $-1 0 0 13.394672335632757 0 0 1 1 0 0 forward_v I I I I #
coedge $-1 $353 $354 $355 $356 reversed $151 $-1 #
coedge $-1 $357 $153 $155 $249 forward $95 $-1 #
coedge $-1 $153 $357 $353 $358 forward $95 $-1 #
coedge $-1 $355 $156 $153 $246 forward $240 $-1 #
edge $-1 $252 -7.9370014486877558 $359 0.11198348068931807 $245 $360 forward 7 unknown #
coedge $-1 $361 $362 $154 $248 forward $351 $-1 #
edge $-1 $363 -27.378857986060542 $251 -18.257272486603625 $247 $364 forward 7 unknown #
edge $-1 $252 -12.680495908455388 $363 -2.0733024663016622e-014 $155 $365 forward 7 unknown #
coedge $-1 $156 $355 $361 $366 forward $240 $-1 #
vertex $-1 $248 $367 #
vertex $-1 $157 $368 #
straight-curve $-1 -51.808638419569476 -11.849510432686975 13.394672335632755 1 0 0 I I #
coedge $-1 $254 $254 $-1 $369 reversed $160 $-1 #
edge $-1 $370 0 $370 6.2831853071796004 $161 $371 forward 7 unknown #
vertex $-1 $164 $372 #
ellipse-curve $-1 -38.084783374765301 -7.8250179679984377 8.8338795859042989 -0.71933980857756763 0 0.69465836192734942 1.0419875428910241 0 1.0790097128663514 1 I I #
face $-1 $-1 $373 $34 $-1 $374 reversed single #
loop $-1 $-1 $171 $165 #
plane-surface $-1 0 0 13.394672335632757 0 0 1 1 0 0 forward_v I I I I #
coedge $-1 $375 $376 $377 $378 reversed $166 $-1 #
coedge $-1 $379 $168 $170 $268 forward $104 $-1 #
coedge $-1 $168 $379 $375 $380 forward $104 $-1 #
coedge $-1 $377 $171 $168 $265 forward $259 $-1 #
edge $-1 $271 2.8155354792444776 $381 10.864520408621553 $264 $382 forward 7 unknown #
coedge $-1 $383 $384 $169 $267 forward $373 $-1 #
edge $-1 $385 -27.378857986060542 $270 -18.257272486603625 $266 $386 forward 7 unknown #
edge $-1 $271 -12.680495908455388 $385 -2.0733024663016622e-014 $170 $387 forward 7 unknown #
coedge $-1 $171 $377 $383 $388 forward $259 $-1 #
vertex $-1 $172 $389 #
vertex $-1 $172 $390 #
straight-curve $-1 -51.808638419569476 9.6555634231774921 13.394672335632755 1 0 0 I I #
coedge $-1 $273 $273 $-1 $391 reversed $175 $-1 #
edge $-1 $392 0 $392 6.2831853071796004 $176 $393 forward 7 unknown #
vertex $-1 $179 $394 #
ellipse-curve $-1 -38.084783374765301 13.680055887866029 8.8338795859042989 -0.71933980857756763 0 0.69465836192734942 1.0419875428910241 0 1.0790097128663514 1 I I #
face $-1 $-1 $195 $27 $-1 $395 reversed single #
loop $-1 $-1 $293 $180 #
plane-surface $-1 0 29.031639453481493 0 0 -1 0 0 0 -1 forward_v I I I I #
coedge $-1 $396 $291 $294 $397 forward $181 $-1 #
coedge $-1 $297 $183 $184 $285 reversed $113 $-1 #
coedge $-1 $291 $396 $183 $283 reversed $181 $-1 #
edge $-1 $298 -13.394672335632757 $398 13.394672335632757 $282 $399 forward 7 unknown #
coedge $-1 $185 $184 $396 $400 forward $73 $-1 #
edge $-1 $289 -42.489089632862331 $398 42.489089632862331 $281 $401 forward 7 unknown #
coedge $-1 $294 $293 $185 $287 reversed $278 $-1 #
edge $-1 $402 -42.489089632862331 $288 42.489089632862331 $286 $403 forward 7 unknown #
vertex $-1 $187 $404 #
vertex $-1 $300 $405 #
straight-curve $-1 42.489089632862331 0 -13.394672335632757 0 -1 0 I I #
coedge $-1 $280 $282 $188 $292 reversed $181 $-1 #
edge $-1 $295 -29.031639453481493 $298 29.031639453481493 $291 $406 forward 7 unknown #
coedge $-1 $286 $189 $194 $301 forward $278 $-1 #
coedge $-1 $189 $286 $280 $397 reversed $278 $-1 #
vertex $-1 $190 $407 #
straight-curve $-1 0 29.031639453481493 13.394672335632757 -1 0 0 I I #
coedge $-1 $191 $281 $193 $300 reversed $113 $-1 #
vertex $-1 $292 $408 #
straight-curve $-1 0 -29.031639453481493 13.394672335632757 1 0 0 I I #
edge $-1 $196 -13.394672335632757 $289 13.394672335632757 $193 $409 forward 7 unknown #
edge $-1 $197 -13.394672335632757 $288 13.394672335632757 $194 $410 forward 7 unknown #
point $-1 42.489089632862331 -29.031639453481493 13.394672335632757 #
point $-1 42.489089632862331 29.031639453481493 13.394672335632757 #
face $-1 $-1 $318 $28 $-1 $411 reversed single #
loop $-1 $-1 $412 $199 #
plane-surface $-1 0 -44.084770648715541 10.984432534670683 0 1 0 0 0 1 forward_v I I I I #
coedge $-1 $413 $202 $211 $322 reversed $121 $-1 #
coedge $-1 $202 $413 $203 $310 reversed $121 $-1 #
coedge $-1 $204 $203 $414 $415 forward $77 $-1 #
edge $-1 $314 29.031639453481493 $416 44.084770648715541 $308 $417 forward 7 unknown #
coedge $-1 $418 $208 $204 $312 reversed $318 $-1 #
edge $-1 $419 -44.084770648715541 $313 -29.031639453481493 $311 $420 forward 7 unknown #
vertex $-1 $209 $421 #
vertex $-1 $310 $422 #
straight-curve $-1 0 -29.031639453481493 13.394672335632757 -1 0 0 I I #
straight-curve $-1 -42.489089632862331 -29.031639453481493 0 0 0 -1 I I #
coedge $-1 $208 $418 $210 $321 reversed $318 $-1 #
loop $-1 $-1 $208 $304 #
straight-curve $-1 42.489089632862331 -29.031639453481493 0 0 0 1 I I #
coedge $-1 $211 $210 $423 $424 forward $200 $-1 #
edge $-1 $212 -7.5265655976170223 $425 7.5265655976170223 $317 $426 forward 7 unknown #
edge $-1 $427 -7.5265655976170223 $213 7.5265655976170223 $307 $428 forward 7 unknown #
point $-1 42.489089632862331 -29.031639453481496 8.5741927337086086 #
point $-1 -42.489089632862331 -29.031639453481496 8.5741927337086086 #
plane-surface $-1 0 0 13.394672335632757 0 0 1 1 0 0 forward_v I I I I #
coedge $-1 $336 $335 $328 $429 forward $216 $-1 #
coedge $-1 $328 $218 $220 $332 reversed $129 $-1 #
coedge $-1 $218 $327 $326 $429 reversed $129 $-1 #
coedge $-1 $226 $221 $218 $330 forward $227 $-1 #
edge $-1 $333 1.0523073779857128 $430 5.6924577292285292 $329 $431 forward 7 unknown #
coedge $-1 $220 $219 $336 $432 reversed $81 $-1 #
edge $-1 $433 -84.97817926572462 $333 -75.697878314573828 $327 $434 forward 7 unknown #
vertex $-1 $222 $435 #
straight-curve $-1 37.848939281619522 2.140099315211307 13.394672335632755 0 -1 0 I I #
coedge $-1 $326 $223 $226 $340 reversed $216 $-1 #
coedge $-1 $223 $326 $331 $432 forward $216 $-1 #
vertex $-1 $224 $436 #
straight-curve $-1 42.489089632862331 9.2394354270693526 60.720023524266018 0 0 1 I I #
straight-curve $-1 1.1384928626512192e-006 9.2394354270693526 78.950958554162554 0.49999998660252726 0 -0.86602541151947299 I I #
edge $-1 $430 -0.6790381662241245 $228 9.2394354270693526 $335 $437 forward 7 unknown #
point $-1 42.489089632862331 9.2394354270693526 13.394672335632757 #
point $-1 37.848939281619515 9.2394354270693526 13.394672335632762 #
edge $-1 $438 1 $438 0 $231 $-1 forward 7 unknown #
vertex $-1 $232 $439 #
ellipse-curve $-1 36.920421438914417 2.1548114318597236 7.5006081238998759 0.86602541151947299 0 0.49999998660252726 0.49999998660252726 0 -0.86602541151947299 1 I I #
point $-1 40.669014443843444 2.1548114318597236 8.5101586989908053 #
edge $-1 $440 1 $440 0 $235 $-1 forward 7 unknown #
vertex $-1 $236 $441 #
ellipse-curve $-1 36.920421438914417 6.4055858289854974 7.5006081238998759 0.86602541151947299 0 0.49999998660252726 0.49999998660252726 0 -0.86602541151947299 1 I I #
point $-1 40.669014443843444 6.4055858289854974 8.5101586989908053 #
loop $-1 $-1 $247 $239 #
plane-surface $-1 -42.489089632862331 0 0 1 0 0 0 0 -1 forward_v I I I I #
coedge $-1 $354 $242 $244 $358 reversed $151 $-1 #
coedge $-1 $242 $353 $442 $443 reversed $151 $-1 #
coedge $-1 $250 $245 $242 $356 forward $240 $-1 #
edge $-1 $359 -18.128161302901205 $444 -9.3195487867071449 $355 $445 forward 7 unknown #
coedge $-1 $244 $243 $362 $446 reversed $95 $-1 #
edge $-1 $447 2.0733024663016622e-014 $359 12.680495908455388 $353 $448 forward 7 unknown #
vertex $-1 $246 $449 #
straight-curve $-1 -33.680477116668271 -3.9125089839992189 13.394672335632757 0 1 0 I I #
coedge $-1 $442 $247 $250 $366 reversed $351 $-1 #
coedge $-1 $247 $442 $357 $446 forward $351 $-1 #
vertex $-1 $248 $450 #
straight-curve $-1 -42.489089632862331 -11.849510432686975 31.651944822236384 0 0 1 I I #
straight-curve $-1 -42.489089632862346 -11.849510432686975 4.2730868361758283 -0.69465836192734942 0 -0.71933980857756763 I I #
edge $-1 $444 3.8005255033099008 $251 11.849510432686975 $361 $451 forward 7 unknown #
point $-1 -42.489089632862331 -11.849510432686975 13.394672335632757 #
point $-1 -33.680477116668271 -11.849510432686975 13.394672335632757 #
edge $-1 $452 1 $452 0 $254 $-1 forward 7 unknown #
vertex $-1 $255 $453 #
ellipse-curve $-1 -34.106900312399425 -7.8250179679984377 4.9924826562588285 -0.71933980857756763 0 0.69465836192734942 1.0419875428910241 0 1.0790097128663514 1 I I #
point $-1 -37.042795831874265 -7.8250179679984377 9.9128892987706401 #
loop $-1 $-1 $266 $258 #
plane-surface $-1 -42.489089632862331 0 0 1 0 0 0 0 -1 forward_v I I I I #
coedge $-1 $376 $261 $263 $380 reversed $166 $-1 #
coedge $-1 $261 $375 $454 $455 reversed $166 $-1 #
coedge $-1 $269 $264 $261 $378 forward $259 $-1 #
edge $-1 $381 -18.128161302901205 $456 -9.3195487867071449 $377 $457 forward 7 unknown #
coedge $-1 $263 $262 $384 $458 reversed $104 $-1 #
edge $-1 $459 2.0733024663016622e-014 $381 12.680495908455388 $375 $460 forward 7 unknown #
vertex $-1 $265 $461 #
straight-curve $-1 -33.680477116668271 6.8400279439330145 13.394672335632757 0 1 0 I I #
coedge $-1 $454 $266 $269 $388 reversed $373 $-1 #
coedge $-1 $266 $454 $379 $458 forward $373 $-1 #
vertex $-1 $267 $462 #
straight-curve $-1 -42.489089632862331 9.6555634231774921 31.651944822236384 0 0 1 I I #
straight-curve $-1 -42.489089632862346 9.6555634231774921 4.2730868361758283 -0.69465836192734942 0 -0.71933980857756763 I I #
edge $-1 $456 -17.704548352554568 $270 -9.6555634231774921 $383 $463 forward 7 unknown #
point $-1 -42.489089632862331 9.6555634231774921 13.394672335632757 #
point $-1 -33.680477116668271 9.6555634231774921 13.394672335632757 #
edge $-1 $464 1 $464 0 $273 $-1 forward 7 unknown #
vertex $-1 $274 $465 #
ellipse-curve $-1 -34.106900312399425 13.680055887866029 4.9924826562588285 -0.71933980857756763 0 0.69465836192734942 1.0419875428910241 0 1.0790097128663514 1 I I #
point $-1 -37.042795831874265 13.680055887866029 9.9128892987706401 #
plane-surface $-1 42.489089632862331 0 0 -1 0 0 0 0 1 forward_v I I I I #
coedge $-1 $282 $280 $284 $400 reversed $181 $-1 #
edge $-1 $295 -13.394672335632757 $402 13.394672335632757 $294 $466 forward 7 unknown #
vertex $-1 $400 $467 #
straight-curve $-1 -42.489089632862331 -29.031639453481493 0 0 0 -1 I I #
edge $-1 $398 -29.031639453481493 $402 29.031639453481493 $396 $468 forward 7 unknown #
straight-curve $-1 0 -29.031639453481493 -13.394672335632757 -1 0 0 I I #
vertex $-1 $287 $469 #
straight-curve $-1 0 29.031639453481493 -13.394672335632757 1 0 0 I I #
point $-1 42.489089632862331 29.031639453481493 -13.394672335632757 #
point $-1 42.489089632862331 -29.031639453481493 -13.394672335632757 #
straight-curve $-1 -42.489089632862331 0 13.394672335632757 0 -1 0 I I #
point $-1 -42.489089632862331 29.031639453481493 13.394672335632757 #
point $-1 -42.489089632862331 -29.031639453481493 13.394672335632757 #
straight-curve $-1 42.489089632862331 -29.031639453481493 0 0 0 -1 I I #
straight-curve $-1 42.489089632862331 29.031639453481493 0 0 0 -1 I I #
plane-surface $-1 42.489089632862331 0 0 -1 0 0 0 0 1 forward_v I I I I #
coedge $-1 $423 $414 $413 $470 forward $305 $-1 #
coedge $-1 $308 $307 $412 $470 reversed $121 $-1 #
coedge $-1 $412 $471 $309 $415 reversed $305 $-1 #
edge $-1 $416 -42.489089632862331 $419 42.489089632862331 $414 $472 forward 7 unknown #
vertex $-1 $310 $473 #
straight-curve $-1 -42.489089632862331 0 13.394672335632757 0 -1 0 I I #
coedge $-1 $317 $311 $471 $474 forward $318 $-1 #
vertex $-1 $312 $475 #
straight-curve $-1 42.489089632862331 0 13.394672335632757 0 1 0 I I #
point $-1 42.489089632862331 -29.031639453481493 13.394672335632757 #
point $-1 -42.489089632862331 -29.031639453481493 13.394672335632757 #
coedge $-1 $471 $412 $320 $424 reversed $305 $-1 #
edge $-1 $425 -42.489089632862331 $427 42.489089632862331 $423 $476 forward 7 unknown #
vertex $-1 $474 $477 #
straight-curve $-1 42.489089632862331 -36.558205051098518 8.5741927337086086 0 -1 0 I I #
vertex $-1 $322 $478 #
straight-curve $-1 -42.489089632862331 -36.558205051098518 8.5741927337086086 0 1 0 I I #
edge $-1 $430 47.325351188633263 $433 55.362327638878178 $326 $479 forward 7 unknown #
vertex $-1 $340 $480 #
straight-curve $-1 36.796631903633802 -0.6790381662241245 13.394672335632755 1 0 0 I I #
edge $-1 $433 -2.8191374814354315 $337 7.0993361118580456 $336 $481 forward 7 unknown #
vertex $-1 $432 $482 #
straight-curve $-1 1.1384928626512192e-006 -0.6790381662241245 78.950958554162554 -0.49999998660252726 0 0.86602541151947299 I I #
point $-1 37.848939281619515 -0.6790381662241245 13.394672335632762 #
point $-1 42.489089632862331 9.2394354270693526 5.3576958853878409 #
straight-curve $-1 42.489089632862331 0 13.394672335632757 0 1 0 I I #
vertex $-1 $343 $483 #
point $-1 37.420421425516942 2.1548114318597236 6.6345827123804035 #
vertex $-1 $347 $484 #
point $-1 37.420421425516942 6.4055858289854974 6.6345827123804035 #
coedge $-1 $362 $361 $354 $443 forward $351 $-1 #
edge $-1 $444 18.257272486603625 $447 27.378857986060542 $442 $485 forward 7 unknown #
vertex $-1 $366 $486 #
straight-curve $-1 -51.808638419569476 -3.8005255033099008 13.394672335632755 -1 0 0 I I #
edge $-1 $447 -0.11198348068931807 $363 7.9370014486877558 $362 $487 forward 7 unknown #
vertex $-1 $446 $488 #
straight-curve $-1 -42.489089632862346 -3.8005255033099008 4.2730868361758283 0.69465836192734942 0 0.71933980857756763 I I #
point $-1 -33.680477116668271 -3.8005255033099008 13.394672335632757 #
point $-1 -42.489089632862331 -11.849510432686975 4.2730868361758434 #
straight-curve $-1 -42.489089632862331 0 13.394672335632757 0 -1 0 I I #
vertex $-1 $369 $489 #
point $-1 -33.064912769508403 -7.8250179679984377 6.0714923691251803 #
coedge $-1 $384 $383 $376 $455 forward $373 $-1 #
edge $-1 $456 18.257272486603625 $459 27.378857986060542 $454 $490 forward 7 unknown #
vertex $-1 $388 $491 #
straight-curve $-1 -51.808638419569476 17.704548352554568 13.394672335632755 -1 0 0 I I #
edge $-1 $459 -10.864520408621553 $385 -2.8155354792444776 $384 $492 forward 7 unknown #
vertex $-1 $458 $493 #
straight-curve $-1 -42.489089632862346 17.704548352554568 4.2730868361758283 0.69465836192734942 0 0.71933980857756763 I I #
point $-1 -33.680477116668271 17.704548352554568 13.394672335632757 #
point $-1 -42.489089632862331 9.6555634231774921 4.2730868361758434 #
straight-curve $-1 -42.489089632862331 0 13.394672335632757 0 -1 0 I I #
vertex $-1 $391 $494 #
point $-1 -33.064912769508403 13.680055887866029 6.0714923691251803 #
straight-curve $-1 -42.489089632862331 29.031639453481493 0 0 0 -1 I I #
point $-1 -42.489089632862331 -29.031639453481493 -13.394672335632757 #
straight-curve $-1 -42.489089632862331 0 -13.394672335632757 0 1 0 I I #
point $-1 -42.489089632862331 29.031639453481493 -13.394672335632757 #
edge $-1 $416 -2.4102398009620742 $427 2.4102398009620742 $413 $495 forward 7 unknown #
coedge $-1 $414 $423 $418 $474 reversed $305 $-1 #
straight-curve $-1 0 -44.084770648715541 13.394672335632757 1 0 0 I I #
point $-1 -42.489089632862331 -44.084770648715541 13.394672335632757 #
edge $-1 $419 -2.4102398009620742 $425 2.4102398009620742 $418 $496 forward 7 unknown #
point $-1 42.489089632862331 -44.084770648715541 13.394672335632757 #
straight-curve $-1 0 -44.084770648715541 8.5741927337086086 -1 0 0 I I #
point $-1 42.489089632862331 -44.084770648715541 8.5741927337086086 #
point $-1 -42.489089632862331 -44.084770648715541 8.5741927337086086 #
straight-curve $-1 42.489089632862331 -0.6790381662241245 60.720023524266018 0 0 -1 I I #
point $-1 42.489089632862331 -0.6790381662241245 13.394672335632757 #
straight-curve $-1 42.489089632862331 2.140099315211307 5.3576958853878338 0 1 0 I I #
point $-1 42.489089632862331 -0.6790381662241245 5.3576958853878409 #
point $-1 36.054396027394944 2.1548114318597236 7.0006081372973492 #
point $-1 36.054396027394944 6.4055858289854974 7.0006081372973492 #
straight-curve $-1 -42.489089632862331 -3.8005255033099008 31.651944822236384 0 0 -1 I I #
point $-1 -42.489089632862331 -3.8005255033099008 13.394672335632757 #
straight-curve $-1 -42.489089632862331 -3.9125089839992189 4.2730868361758425 0 -1 0 I I #
point $-1 -42.489089632862331 -3.8005255033099008 4.2730868361758434 #
point $-1 -33.027890599533073 -7.8250179679984377 3.9504951133678046 #
straight-curve $-1 -42.489089632862331 17.704548352554568 31.651944822236384 0 0 -1 I I #
point $-1 -42.489089632862331 17.704548352554568 13.394672335632757 #
straight-curve $-1 -42.489089632862331 6.8400279439330145 4.2730868361758425 0 -1 0 I I #
point $-1 -42.489089632862331 17.704548352554568 4.2730868361758434 #
point $-1 -33.027890599533073 13.680055887866029 3.9504951133678046 #
straight-curve $-1 -42.489089632862331 -44.084770648715541 10.984432534670683 0 0 -1 I I #
straight-curve $-1 42.489089632862331 -44.084770648715541 10.984432534670683 0 0 -1 I I #
End-of-ACIS-data 