500 0 9 0           
7 Unknown 11 ACIS 5.0 NT 24 Thu Mar 25 22:36:44 1999 
-1 9.9999999999999995e-007 1e-010 
body $-1 $9 $-1 $10 #
body $-1 $11 $-1 $12 #
body $-1 $13 $-1 $14 #
body $-1 $15 $-1 $16 #
body $-1 $17 $-1 $18 #
body $-1 $19 $-1 $20 #
body $-1 $21 $-1 $22 #
body $-1 $23 $-1 $24 #
body $-1 $25 $-1 $26 #
lump $-1 $-1 $27 $0 #
transform $-1 1 0 0 0 1 0 0 0 1 59.443952757347333 38.764924201469441 16.800105566814388 1 rotate no_reflect no_shear #
lump $-1 $-1 $28 $1 #
transform $-1 1 0 0 0 1 0 0 0 1 59.443952757347333 38.764924201469441 16.800105566814388 1 rotate no_reflect no_shear #
lump $-1 $-1 $29 $2 #
transform $-1 1 0 0 0 1 0 0 0 1 59.443952757347333 38.764924201469441 16.800105566814388 1 rotate no_reflect no_shear #
lump $-1 $-1 $30 $3 #
transform $-1 1 0 0 0 1 0 0 0 1 59.443952757347333 38.764924201469441 16.800105566814388 1 rotate no_reflect no_shear #
lump $-1 $-1 $31 $4 #
transform $-1 1 0 0 0 1 0 0 0 1 59.443952757347333 38.764924201469441 16.800105566814388 1 rotate no_reflect no_shear #
lump $-1 $-1 $32 $5 #
transform $-1 1 0 0 0 1 0 0 0 1 59.443952757347333 38.764924201469441 16.800105566814388 1 rotate no_reflect no_shear #
lump $-1 $-1 $33 $6 #
transform $-1 1 0 0 0 1 0 0 0 1 59.443952757347333 38.764924201469441 16.800105566814388 1 rotate no_reflect no_shear #
lump $-1 $-1 $34 $7 #
transform $-1 1 0 0 0 1 0 0 0 1 59.443952757347333 38.764924201469441 16.800105566814388 1 rotate no_reflect no_shear #
lump $-1 $-1 $35 $8 #
transform $-1 1 0 0 0 1 0 0 0 1 59.443952757347333 38.764924201469441 16.800105566814388 1 rotate no_reflect no_shear #
shell $-1 $-1 $-1 $36 $-1 $9 #
shell $-1 $-1 $-1 $37 $-1 $11 #
shell $-1 $-1 $-1 $38 $-1 $13 #
shell $-1 $-1 $-1 $39 $-1 $15 #
shell $-1 $-1 $-1 $40 $-1 $17 #
shell $-1 $-1 $-1 $41 $-1 $19 #
shell $-1 $-1 $-1 $42 $-1 $21 #
shell $-1 $-1 $-1 $43 $-1 $23 #
shell $-1 $-1 $-1 $44 $-1 $25 #
face $-1 $45 $46 $27 $-1 $47 forward single #
face $-1 $48 $49 $28 $-1 $50 forward single #
face $-1 $51 $52 $29 $-1 $53 forward single #
face $-1 $54 $55 $30 $-1 $56 reversed single #
face $-1 $57 $58 $31 $-1 $59 forward single #
face $-1 $60 $61 $32 $-1 $62 forward single #
face $-1 $63 $64 $33 $-1 $65 forward single #
face $-1 $66 $67 $34 $-1 $68 reversed single #
face $-1 $69 $70 $35 $-1 $71 forward single #
face $-1 $72 $73 $27 $-1 $74 reversed single #
loop $-1 $-1 $75 $36 #
plane-surface $-1 0 0 16.800105566814388 0 0 1 1 0 0 forward_v I I I I #
face $-1 $76 $77 $28 $-1 $78 reversed single #
loop $-1 $-1 $79 $37 #
plane-surface $-1 -50.153079593126591 0 10.119684262171651 0 0 1 1 0 0 forward_v I I I I #
face $-1 $80 $81 $29 $-1 $82 reversed single #
loop $-1 $-1 $83 $38 #
plane-surface $-1 50.153079593126591 0 10.119684262171651 0 0 1 1 0 0 forward_v I I I I #
face $-1 $84 $85 $30 $-1 $86 reversed single #
loop $-1 $-1 $87 $39 #
plane-surface $-1 -40.862206428905857 -129.83834456023669 86.621397472100256 1 0 0 0 0.7660444514056185 -0.64278759981090561 forward_v I I I I #
face $-1 $88 $89 $31 $-1 $90 forward single #
loop $-1 $91 $92 $40 #
cone-surface $-1 -38.491956527624296 -35.452241244027583 13.044165259138119 0 0.7660444514056185 -0.64278759981090561 1 0 0 1 I I 0 1 1 forward I I I I #
face $-1 $93 $94 $32 $-1 $95 forward single #
loop $-1 $96 $97 $41 #
cone-surface $-1 -34.936581675701966 -35.452241244027583 13.044165259138119 0 0.7660444514056185 -0.64278759981090561 1 0 0 1 I I 0 1 1 forward I I I I #
face $-1 $98 $99 $33 $-1 $100 forward single #
loop $-1 $101 $102 $42 #
cone-surface $-1 -31.381206823779632 -35.452241244027583 13.044165259138119 0 0.7660444514056185 -0.64278759981090561 1 0 0 1 I I 0 1 1 forward I I I I #
face $-1 $103 $104 $34 $-1 $105 reversed single #
loop $-1 $-1 $106 $43 #
plane-surface $-1 -16.114972026823114 48.395363139034188 143.8338174333748 -1 0 0 0 0.6018150307709319 0.79863550430605224 forward_v I I I I #
face $-1 $107 $108 $35 $-1 $109 forward single #
loop $-1 $110 $111 $44 #
cone-surface $-1 -24.95022231913412 25.719977450341453 5.0342593993327993 0 -0.6018150307709319 -0.79863550430605224 3 0 0 1 I I 0 1 3 forward I I I I #
face $-1 $112 $113 $27 $-1 $114 reversed single #
loop $-1 $-1 $115 $45 #
plane-surface $-1 0 0 -16.800105566814388 0 0 1 1 0 0 forward_v I I I I #
coedge $-1 $116 $117 $118 $119 forward $46 $-1 #
face $-1 $120 $121 $28 $-1 $122 reversed single #
loop $-1 $-1 $123 $48 #
plane-surface $-1 -50.153079593126591 0 1.2984367791234153 0 0 1 1 0 0 forward_v I I I I #
coedge $-1 $124 $125 $126 $127 forward $49 $-1 #
face $-1 $128 $129 $29 $-1 $130 reversed single #
loop $-1 $-1 $131 $51 #
plane-surface $-1 50.153079593126591 0 1.2984367791234153 0 0 1 1 0 0 forward_v I I I I #
coedge $-1 $132 $133 $134 $135 reversed $52 $-1 #
face $-1 $136 $137 $30 $-1 $138 reversed single #
loop $-1 $-1 $139 $54 #
plane-surface $-1 -34.936581675701966 -38.764924201469412 10.20172603976394 0 -0.7660444514056185 0.64278759981090561 1 0 0 forward_v I I I I #
coedge $-1 $140 $141 $142 $143 reversed $55 $-1 #
face $-1 $-1 $144 $31 $-1 $145 forward single #
loop $-1 $146 $147 $57 #
cone-surface $-1 -38.491956527624296 -34.524884902162086 12.266020915081622 0 0.7660444514056185 -0.64278759981090561 0.5 0 0 1 I I -0.70710678118654746 0.70710678118654746 0.5 forward I I I I #
loop $-1 $-1 $148 $40 #
coedge $-1 $92 $92 $149 $150 reversed $58 $-1 #
face $-1 $-1 $151 $32 $-1 $152 forward single #
loop $-1 $153 $154 $60 #
cone-surface $-1 -34.936581675701966 -34.524884902162086 12.266020915081622 0 0.7660444514056185 -0.64278759981090561 0.5 0 0 1 I I -0.70710678118654746 0.70710678118654746 0.5 forward I I I I #
loop $-1 $-1 $155 $41 #
coedge $-1 $97 $97 $156 $157 reversed $61 $-1 #
face $-1 $-1 $158 $33 $-1 $159 forward single #
loop $-1 $160 $161 $63 #
cone-surface $-1 -31.381206823779632 -34.524884902162086 12.266020915081622 0 0.7660444514056185 -0.64278759981090561 0.5 0 0 1 I I -0.70710678118654746 0.70710678118654746 0.5 forward I I I I #
loop $-1 $-1 $162 $42 #
coedge $-1 $102 $102 $163 $164 reversed $64 $-1 #
face $-1 $165 $166 $34 $-1 $167 reversed single #
loop $-1 $-1 $168 $66 #
plane-surface $-1 -24.950222319134127 -23.153165376583431 48.885715056756339 0 0.6018150307709319 0.79863550430605224 1 0 0 forward_v I I I I #
coedge $-1 $169 $170 $171 $172 reversed $67 $-1 #
face $-1 $-1 $173 $35 $-1 $174 forward single #
loop $-1 $175 $176 $69 #
cone-surface $-1 -24.95022231913412 21.441832403570778 -0.64303071843865922 0 -0.6018150307709319 -0.79863550430605224 1.5 0 0 1 I I -0.70710678118654757 0.70710678118654757 1.5 forward I I I I #
loop $-1 $-1 $177 $44 #
coedge $-1 $111 $111 $178 $179 reversed $70 $-1 #
face $-1 $180 $181 $27 $-1 $182 reversed single #
loop $-1 $-1 $183 $72 #
plane-surface $-1 0 -38.764924201469441 0 0 1 0 0 0 1 forward_v I I I I #
coedge $-1 $184 $185 $186 $187 forward $73 $-1 #
coedge $-1 $188 $75 $189 $190 forward $46 $-1 #
coedge $-1 $75 $188 $191 $192 forward $46 $-1 #
coedge $-1 $193 $194 $75 $119 reversed $195 $-1 #
edge $-1 $196 -38.764924201469441 $197 38.764924201469441 $118 $198 forward 7 unknown #
face $-1 $199 $200 $28 $-1 $201 reversed single #
loop $-1 $-1 $202 $76 #
plane-surface $-1 -40.86220642890585 0 5.7090605206475331 -1 0 0 0 0 1 forward_v I I I I #
coedge $-1 $203 $204 $205 $206 forward $77 $-1 #
coedge $-1 $207 $79 $208 $209 reversed $49 $-1 #
coedge $-1 $79 $207 $210 $211 reversed $49 $-1 #
coedge $-1 $202 $212 $79 $127 reversed $121 $-1 #
edge $-1 $213 -38.764924201469441 $214 38.764924201469441 $126 $215 forward 7 unknown #
face $-1 $216 $217 $29 $-1 $218 reversed single #
loop $-1 $-1 $219 $80 #
plane-surface $-1 40.86220642890585 0 5.7090605206475331 1 0 0 0 0 -1 forward_v I I I I #
coedge $-1 $220 $221 $222 $223 reversed $81 $-1 #
coedge $-1 $224 $83 $225 $226 reversed $52 $-1 #
coedge $-1 $83 $224 $227 $228 reversed $52 $-1 #
coedge $-1 $229 $230 $83 $135 forward $231 $-1 #
edge $-1 $232 -38.764924201469441 $233 38.764924201469441 $134 $234 forward 7 unknown #
face $-1 $235 $236 $30 $-1 $237 forward single #
loop $-1 $-1 $238 $84 #
plane-surface $-1 -29.010956922498075 -129.83834456023669 86.621397472100256 -1 0 0 0 -0.7660444514056185 0.64278759981090561 forward_v I I I I #
coedge $-1 $239 $240 $241 $242 reversed $85 $-1 #
coedge $-1 $141 $87 $243 $244 reversed $55 $-1 #
coedge $-1 $87 $140 $239 $245 reversed $55 $-1 #
coedge $-1 $241 $246 $87 $143 forward $247 $-1 #
edge $-1 $248 26.51059316923574 $249 33.108972696286223 $142 $250 forward 7 unknown #
loop $-1 $-1 $149 $88 #
plane-surface $-1 -34.936581675701966 -38.764924201469412 10.20172603976394 0 -0.7660444514056185 0.64278759981090561 1 0 0 forward_v I I I I #
loop $-1 $-1 $251 $57 #
coedge $-1 $147 $147 $148 $252 reversed $89 $-1 #
coedge $-1 $148 $148 $147 $252 forward $91 $-1 #
coedge $-1 $149 $149 $92 $150 forward $144 $-1 #
edge $-1 $253 3.1123535112046619e-015 $253 6.283185307179604 $149 $254 forward 7 unknown #
loop $-1 $-1 $156 $93 #
plane-surface $-1 -34.936581675701966 -38.764924201469412 10.20172603976394 0 -0.7660444514056185 0.64278759981090561 1 0 0 forward_v I I I I #
loop $-1 $-1 $255 $60 #
coedge $-1 $154 $154 $155 $256 reversed $94 $-1 #
coedge $-1 $155 $155 $154 $256 forward $96 $-1 #
coedge $-1 $156 $156 $97 $157 forward $151 $-1 #
edge $-1 $257 3.1123535112046619e-015 $257 6.283185307179604 $156 $258 forward 7 unknown #
loop $-1 $-1 $163 $98 #
plane-surface $-1 -34.936581675701966 -38.764924201469412 10.20172603976394 0 -0.7660444514056185 0.64278759981090561 1 0 0 forward_v I I I I #
loop $-1 $-1 $259 $63 #
coedge $-1 $161 $161 $162 $260 reversed $99 $-1 #
coedge $-1 $162 $162 $161 $260 forward $101 $-1 #
coedge $-1 $163 $163 $102 $164 forward $158 $-1 #
edge $-1 $261 3.1123535112046619e-015 $261 6.283185307179604 $163 $262 forward 7 unknown #
face $-1 $263 $264 $34 $-1 $265 reversed single #
loop $-1 $-1 $266 $103 #
plane-surface $-1 -33.785472611445144 48.395363139034188 143.8338174333748 1 0 0 0 -0.6018150307709319 -0.79863550430605224 forward_v I I I I #
coedge $-1 $267 $268 $269 $270 reversed $104 $-1 #
coedge $-1 $170 $106 $271 $272 reversed $67 $-1 #
coedge $-1 $106 $169 $267 $273 reversed $67 $-1 #
coedge $-1 $269 $274 $106 $172 forward $264 $-1 #
edge $-1 $275 55.116803149873014 $276 69.689821762211409 $171 $277 forward 7 unknown #
loop $-1 $-1 $178 $107 #
plane-surface $-1 -24.950222319134127 -23.153165376583431 48.885715056756339 0 0.6018150307709319 0.79863550430605224 1 0 0 forward_v I I I I #
loop $-1 $-1 $278 $69 #
coedge $-1 $176 $176 $177 $279 reversed $108 $-1 #
coedge $-1 $177 $177 $176 $279 forward $110 $-1 #
coedge $-1 $178 $178 $111 $179 forward $173 $-1 #
edge $-1 $280 -1.0981844374287037e-016 $280 6.2831853071796004 $178 $281 forward 7 unknown #
face $-1 $282 $283 $27 $-1 $284 reversed single #
loop $-1 $-1 $285 $112 #
plane-surface $-1 -59.443952757347333 0 0 1 0 0 0 0 -1 forward_v I I I I #
coedge $-1 $286 $191 $287 $288 forward $113 $-1 #
coedge $-1 $289 $115 $286 $290 forward $73 $-1 #
coedge $-1 $115 $289 $291 $292 forward $73 $-1 #
coedge $-1 $194 $193 $115 $187 reversed $195 $-1 #
edge $-1 $293 -38.764924201469441 $294 38.764924201469441 $186 $295 forward 7 unknown #
coedge $-1 $117 $116 $296 $297 forward $46 $-1 #
coedge $-1 $298 $299 $116 $190 reversed $283 $-1 #
edge $-1 $197 -59.443952757347333 $300 59.443952757347333 $189 $301 forward 7 unknown #
coedge $-1 $183 $302 $117 $192 reversed $113 $-1 #
edge $-1 $303 -59.443952757347333 $196 59.443952757347333 $191 $304 forward 7 unknown #
coedge $-1 $186 $118 $302 $305 forward $195 $-1 #
coedge $-1 $118 $186 $298 $306 reversed $195 $-1 #
loop $-1 $-1 $193 $282 #
vertex $-1 $119 $307 #
vertex $-1 $119 $308 #
straight-curve $-1 59.443952757347333 0 16.800105566814388 0 1 0 I I #
face $-1 $309 $310 $28 $-1 $311 reversed single #
loop $-1 $-1 $312 $120 #
plane-surface $-1 0 -38.764924201469441 0 0 1 0 0 0 1 forward_v I I I I #
coedge $-1 $205 $126 $313 $314 reversed $121 $-1 #
coedge $-1 $315 $123 $312 $316 reversed $77 $-1 #
coedge $-1 $123 $315 $317 $318 reversed $77 $-1 #
coedge $-1 $212 $202 $123 $206 reversed $121 $-1 #
edge $-1 $319 -38.764924201469441 $320 38.764924201469441 $205 $321 forward 7 unknown #
coedge $-1 $125 $124 $322 $323 reversed $49 $-1 #
coedge $-1 $324 $325 $124 $209 forward $326 $-1 #
edge $-1 $327 -34.367412960784037 $214 -15.785666632342554 $208 $328 forward 7 unknown #
coedge $-1 $329 $313 $125 $211 forward $200 $-1 #
edge $-1 $213 15.785666632342554 $330 34.367412960784037 $210 $331 forward 7 unknown #
coedge $-1 $126 $205 $324 $332 reversed $121 $-1 #
vertex $-1 $211 $333 #
vertex $-1 $209 $334 #
straight-curve $-1 -40.86220642890585 0 10.119684262171651 0 1 0 I I #
face $-1 $335 $336 $29 $-1 $337 reversed single #
loop $-1 $-1 $227 $128 #
plane-surface $-1 0 -38.764924201469441 0 0 1 0 0 0 1 forward_v I I I I #
coedge $-1 $338 $339 $340 $341 reversed $129 $-1 #
coedge $-1 $342 $131 $343 $344 reversed $81 $-1 #
coedge $-1 $131 $342 $345 $346 reversed $81 $-1 #
coedge $-1 $230 $229 $131 $223 forward $231 $-1 #
edge $-1 $347 -38.764924201469441 $348 38.764924201469441 $222 $349 forward 7 unknown #
coedge $-1 $133 $132 $339 $350 forward $52 $-1 #
coedge $-1 $351 $340 $132 $226 forward $336 $-1 #
edge $-1 $352 15.785666632342554 $232 34.367412960784037 $225 $353 forward 7 unknown #
coedge $-1 $354 $355 $133 $228 forward $217 $-1 #
edge $-1 $233 -34.367412960784037 $356 -15.785666632342554 $227 $357 forward 7 unknown #
coedge $-1 $222 $134 $355 $358 forward $231 $-1 #
coedge $-1 $134 $222 $351 $359 reversed $231 $-1 #
loop $-1 $-1 $134 $335 #
vertex $-1 $359 $360 #
vertex $-1 $358 $361 #
straight-curve $-1 59.443952757347333 0 10.119684262171651 0 -1 0 I I #
face $-1 $-1 $247 $30 $-1 $362 reversed single #
loop $-1 $-1 $363 $136 #
plane-surface $-1 0 0 16.800105566814388 0 0 1 1 0 0 forward_v I I I I #
coedge $-1 $364 $365 $366 $367 reversed $137 $-1 #
coedge $-1 $368 $139 $141 $245 forward $85 $-1 #
coedge $-1 $139 $368 $364 $369 forward $85 $-1 #
coedge $-1 $366 $142 $139 $242 forward $247 $-1 #
edge $-1 $249 -23.393915591054874 $370 -11.542666084647092 $241 $371 forward 7 unknown #
coedge $-1 $372 $373 $140 $244 forward $236 $-1 #
edge $-1 $374 -31.690945761207288 $248 -26.154248078648905 $243 $375 forward 7 unknown #
edge $-1 $249 -4.4123720097533069e-014 $374 8.6135726392157164 $141 $376 forward 7 unknown #
coedge $-1 $142 $366 $372 $377 reversed $247 $-1 #
loop $-1 $-1 $366 $235 #
vertex $-1 $377 $378 #
vertex $-1 $143 $379 #
straight-curve $-1 -40.862206428905857 -38.764924201469441 43.310698736050128 0 0 -1 I I #
coedge $-1 $251 $251 $-1 $380 reversed $146 $-1 #
edge $-1 $381 0 $381 6.2831853071796004 $147 $382 forward 7 unknown #
vertex $-1 $150 $383 #
ellipse-curve $-1 -38.491956527624296 -35.996575360190249 13.500915803289145 0 -0.7660444514056185 0.64278759981090561 1 0 0 1 I I #
coedge $-1 $255 $255 $-1 $384 reversed $153 $-1 #
edge $-1 $385 0 $385 6.2831853071796004 $154 $386 forward 7 unknown #
vertex $-1 $157 $387 #
ellipse-curve $-1 -34.936581675701966 -35.996575360190249 13.500915803289145 0 -0.7660444514056185 0.64278759981090561 1 0 0 1 I I #
coedge $-1 $259 $259 $-1 $388 reversed $160 $-1 #
edge $-1 $389 0 $389 6.2831853071796004 $161 $390 forward 7 unknown #
vertex $-1 $164 $391 #
ellipse-curve $-1 -31.381206823779632 -35.996575360190249 13.500915803289145 0 -0.7660444514056185 0.64278759981090561 1 0 0 1 I I #
face $-1 $-1 $392 $34 $-1 $393 forward single #
loop $-1 $-1 $171 $165 #
plane-surface $-1 0 38.764924201469441 0 0 -1 0 0 0 -1 forward_v I I I I #
coedge $-1 $394 $395 $396 $397 reversed $166 $-1 #
coedge $-1 $398 $168 $170 $273 forward $104 $-1 #
coedge $-1 $168 $398 $394 $399 forward $104 $-1 #
coedge $-1 $396 $171 $168 $270 forward $264 $-1 #
edge $-1 $276 3.6398608672560506 $400 21.31036145187808 $269 $401 forward 7 unknown #
coedge $-1 $402 $403 $169 $272 forward $392 $-1 #
edge $-1 $404 -4.7718058690750667 $275 14.567242631952347 $271 $405 forward 7 unknown #
edge $-1 $276 -77.529848402938882 $404 -53.314736005911868 $170 $406 forward 7 unknown #
coedge $-1 $171 $396 $402 $407 reversed $264 $-1 #
vertex $-1 $407 $408 #
vertex $-1 $172 $409 #
straight-curve $-1 -16.114972026823114 38.764924201469441 71.916908716687402 0 0 -1 I I #
coedge $-1 $278 $278 $-1 $410 reversed $175 $-1 #
edge $-1 $411 0 $411 6.2831853071796004 $176 $412 forward 7 unknown #
vertex $-1 $179 $413 #
ellipse-curve $-1 -24.95022231913412 29.095399950955738 9.5135962606451869 0 0.6018150307709319 0.79863550430605224 3 0 0 1 I I #
face $-1 $-1 $195 $27 $-1 $414 reversed single #
loop $-1 $-1 $298 $180 #
plane-surface $-1 0 38.764924201469441 0 0 -1 0 0 0 -1 forward_v I I I I #
coedge $-1 $415 $296 $299 $416 forward $181 $-1 #
coedge $-1 $302 $183 $184 $290 reversed $113 $-1 #
coedge $-1 $296 $415 $183 $288 reversed $181 $-1 #
edge $-1 $303 -16.800105566814388 $417 16.800105566814388 $287 $418 forward 7 unknown #
coedge $-1 $185 $184 $415 $419 forward $73 $-1 #
edge $-1 $294 -59.443952757347333 $417 59.443952757347333 $286 $420 forward 7 unknown #
coedge $-1 $299 $298 $185 $292 reversed $283 $-1 #
edge $-1 $421 -59.443952757347333 $293 59.443952757347333 $291 $422 forward 7 unknown #
vertex $-1 $187 $423 #
vertex $-1 $305 $424 #
straight-curve $-1 59.443952757347333 0 -16.800105566814388 0 -1 0 I I #
coedge $-1 $285 $287 $188 $297 reversed $181 $-1 #
edge $-1 $300 -38.764924201469441 $303 38.764924201469441 $296 $425 forward 7 unknown #
coedge $-1 $291 $189 $194 $306 forward $283 $-1 #
coedge $-1 $189 $291 $285 $416 reversed $283 $-1 #
vertex $-1 $190 $426 #
straight-curve $-1 0 38.764924201469441 16.800105566814388 -1 0 0 I I #
coedge $-1 $191 $286 $193 $305 reversed $113 $-1 #
vertex $-1 $297 $427 #
straight-curve $-1 0 -38.764924201469441 16.800105566814388 1 0 0 I I #
edge $-1 $196 -16.800105566814388 $294 16.800105566814388 $193 $428 forward 7 unknown #
edge $-1 $197 -16.800105566814388 $293 16.800105566814388 $194 $429 forward 7 unknown #
point $-1 59.443952757347333 -38.764924201469441 16.800105566814388 #
point $-1 59.443952757347333 38.764924201469441 16.800105566814388 #
face $-1 $-1 $326 $28 $-1 $430 reversed single #
loop $-1 $-1 $431 $199 #
plane-surface $-1 -59.443952757347333 0 0 1 0 0 0 0 -1 forward_v I I I I #
coedge $-1 $313 $329 $203 $316 forward $200 $-1 #
coedge $-1 $210 $312 $202 $314 forward $200 $-1 #
edge $-1 $320 -1.5560934812003513 $213 7.2651540018478844 $313 $432 forward 7 unknown #
coedge $-1 $204 $203 $431 $433 reversed $77 $-1 #
edge $-1 $434 -34.367412960784037 $320 -15.785666632342554 $312 $435 forward 7 unknown #
coedge $-1 $325 $324 $204 $318 forward $326 $-1 #
edge $-1 $319 15.785666632342554 $436 34.367412960784037 $317 $437 forward 7 unknown #
vertex $-1 $318 $438 #
vertex $-1 $316 $439 #
straight-curve $-1 -40.86220642890585 0 1.2984367791234153 0 -1 0 I I #
coedge $-1 $440 $441 $207 $323 forward $310 $-1 #
edge $-1 $330 -38.764924201469441 $327 38.764924201469441 $322 $442 forward 7 unknown #
coedge $-1 $317 $208 $212 $332 forward $326 $-1 #
coedge $-1 $208 $317 $440 $443 reversed $326 $-1 #
loop $-1 $-1 $317 $309 #
vertex $-1 $443 $444 #
straight-curve $-1 -25.076539796563296 38.764924201469441 10.119684262171651 1 0 0 I I #
coedge $-1 $312 $210 $441 $445 forward $200 $-1 #
vertex $-1 $445 $446 #
straight-curve $-1 -25.076539796563296 -38.764924201469441 10.119684262171651 -1 0 0 I I #
edge $-1 $214 -7.2651540018478844 $319 1.5560934812003513 $324 $447 forward 7 unknown #
point $-1 -40.86220642890585 -38.764924201469441 10.119684262171651 #
point $-1 -40.86220642890585 38.764924201469441 10.119684262171651 #
face $-1 $-1 $231 $29 $-1 $448 reversed single #
loop $-1 $-1 $225 $216 #
plane-surface $-1 0 38.764924201469441 0 0 -1 0 0 0 -1 forward_v I I I I #
coedge $-1 $449 $219 $342 $450 reversed $129 $-1 #
coedge $-1 $219 $449 $224 $350 reversed $129 $-1 #
coedge $-1 $225 $345 $219 $341 forward $336 $-1 #
edge $-1 $451 -1.5560934812003513 $352 7.2651540018478844 $340 $452 forward 7 unknown #
coedge $-1 $221 $220 $338 $450 forward $81 $-1 #
coedge $-1 $355 $354 $220 $344 forward $217 $-1 #
edge $-1 $453 15.785666632342554 $347 34.367412960784037 $343 $454 forward 7 unknown #
coedge $-1 $340 $351 $221 $346 forward $336 $-1 #
edge $-1 $348 -34.367412960784037 $451 -15.785666632342554 $345 $455 forward 7 unknown #
vertex $-1 $223 $456 #
vertex $-1 $223 $457 #
straight-curve $-1 59.443952757347333 0 1.2984367791234153 0 1 0 I I #
edge $-1 $352 -38.764924201469441 $356 38.764924201469441 $339 $458 forward 7 unknown #
coedge $-1 $345 $225 $230 $359 forward $336 $-1 #
vertex $-1 $226 $459 #
straight-curve $-1 25.076539796563296 38.764924201469441 10.119684262171651 1 0 0 I I #
coedge $-1 $343 $227 $449 $460 forward $217 $-1 #
coedge $-1 $227 $343 $229 $358 reversed $217 $-1 #
vertex $-1 $228 $461 #
straight-curve $-1 25.076539796563296 -38.764924201469441 10.119684262171651 -1 0 0 I I #
edge $-1 $233 -10.119684262171651 $347 -1.2984367791234153 $229 $462 forward 7 unknown #
edge $-1 $232 -10.119684262171651 $348 -1.2984367791234153 $230 $463 forward 7 unknown #
point $-1 59.443952757347333 38.764924201469441 10.119684262171651 #
point $-1 59.443952757347333 -38.764924201469441 10.119684262171651 #
plane-surface $-1 0 -38.764924201469441 0 0 1 0 0 0 1 forward_v I I I I #
coedge $-1 $373 $372 $365 $464 forward $236 $-1 #
coedge $-1 $365 $238 $240 $369 reversed $137 $-1 #
coedge $-1 $238 $364 $363 $464 reversed $137 $-1 #
coedge $-1 $246 $241 $238 $367 forward $247 $-1 #
edge $-1 $370 -33.108972696286223 $465 -26.51059316923574 $366 $466 forward 7 unknown #
coedge $-1 $240 $239 $373 $467 reversed $85 $-1 #
edge $-1 $468 -8.6135726392157164 $370 4.4123720097533069e-014 $364 $469 forward 7 unknown #
vertex $-1 $242 $470 #
straight-curve $-1 -17.468290837850983 -38.764924201469441 10.201726039763905 1 0 0 I I #
coedge $-1 $363 $243 $246 $377 forward $236 $-1 #
coedge $-1 $243 $363 $368 $467 forward $236 $-1 #
vertex $-1 $244 $471 #
straight-curve $-1 -40.862206428905857 -64.919172280118346 16.800105566814388 0 -1 0 I I #
straight-curve $-1 -40.862206428905857 -38.764924201469412 10.20172603976394 0 0.64278759981090561 0.7660444514056185 I I #
edge $-1 $248 -40.862206428905857 $465 -29.010956922498075 $246 $472 forward 7 unknown #
point $-1 -40.862206428905857 -38.764924201469441 16.800105566814388 #
point $-1 -40.862206428905857 -38.764924201469441 10.201726039763907 #
edge $-1 $473 1 $473 0 $251 $-1 forward 7 unknown #
vertex $-1 $252 $474 #
ellipse-curve $-1 -38.491956527624296 -34.907907127864895 12.587414714987075 0 -0.7660444514056185 0.64278759981090561 1 0 0 1 I I #
point $-1 -37.491956527624296 -35.996575360190263 13.500915803289161 #
edge $-1 $475 1 $475 0 $255 $-1 forward 7 unknown #
vertex $-1 $256 $476 #
ellipse-curve $-1 -34.936581675701966 -34.907907127864895 12.587414714987075 0 -0.7660444514056185 0.64278759981090561 1 0 0 1 I I #
point $-1 -33.936581675701966 -35.996575360190263 13.500915803289161 #
edge $-1 $477 1 $477 0 $259 $-1 forward 7 unknown #
vertex $-1 $260 $478 #
ellipse-curve $-1 -31.381206823779632 -34.907907127864895 12.587414714987075 0 -0.7660444514056185 0.64278759981090561 1 0 0 1 I I #
point $-1 -30.381206823779632 -35.996575360190263 13.500915803289161 #
loop $-1 $-1 $271 $263 #
plane-surface $-1 0 0 16.800105566814388 0 0 1 1 0 0 forward_v I I I I #
coedge $-1 $395 $266 $268 $399 reversed $166 $-1 #
coedge $-1 $266 $394 $479 $480 reversed $166 $-1 #
coedge $-1 $274 $269 $266 $397 forward $264 $-1 #
edge $-1 $400 -69.689821762211409 $481 -55.116803149873014 $396 $482 forward 7 unknown #
coedge $-1 $268 $267 $403 $483 reversed $104 $-1 #
edge $-1 $484 53.314736005911868 $400 77.529848402938882 $394 $485 forward 7 unknown #
vertex $-1 $270 $486 #
straight-curve $-1 -12.475111159567064 38.764924201469441 2.2270869544759933 -1 0 0 I I #
coedge $-1 $479 $271 $274 $407 forward $392 $-1 #
coedge $-1 $271 $479 $398 $483 forward $392 $-1 #
vertex $-1 $272 $487 #
straight-curve $-1 -16.114972026823114 24.197681569517094 16.800105566814388 0 1 0 I I #
straight-curve $-1 -16.114972026823114 -23.153165376583431 48.885715056756339 0 -0.79863550430605224 0.6018150307709319 I I #
edge $-1 $275 16.114972026823114 $481 33.785472611445144 $274 $488 forward 7 unknown #
point $-1 -16.114972026823114 38.764924201469441 16.800105566814388 #
point $-1 -16.114972026823114 38.764924201469441 2.2270869544759933 #
edge $-1 $489 1 $489 0 $278 $-1 forward 7 unknown #
vertex $-1 $279 $490 #
ellipse-curve $-1 -24.95022231913412 22.344554949727176 0.55492253802041924 0 0.6018150307709319 0.79863550430605224 3 0 0 1 I I #
point $-1 -21.95022231913412 29.095399950955731 9.513596260645178 #
plane-surface $-1 59.443952757347333 0 0 -1 0 0 0 0 1 forward_v I I I I #
coedge $-1 $287 $285 $289 $419 reversed $181 $-1 #
edge $-1 $300 -16.800105566814388 $421 16.800105566814388 $299 $491 forward 7 unknown #
vertex $-1 $419 $492 #
straight-curve $-1 -59.443952757347333 -38.764924201469441 0 0 0 -1 I I #
edge $-1 $417 -38.764924201469441 $421 38.764924201469441 $415 $493 forward 7 unknown #
straight-curve $-1 0 -38.764924201469441 -16.800105566814388 -1 0 0 I I #
vertex $-1 $292 $494 #
straight-curve $-1 0 38.764924201469441 -16.800105566814388 1 0 0 I I #
point $-1 59.443952757347333 38.764924201469441 -16.800105566814388 #
point $-1 59.443952757347333 -38.764924201469441 -16.800105566814388 #
straight-curve $-1 -59.443952757347333 0 16.800105566814388 0 -1 0 I I #
point $-1 -59.443952757347333 38.764924201469441 16.800105566814388 #
point $-1 -59.443952757347333 -38.764924201469441 16.800105566814388 #
straight-curve $-1 59.443952757347333 -38.764924201469441 0 0 0 -1 I I #
straight-curve $-1 59.443952757347333 38.764924201469441 0 0 0 -1 I I #
plane-surface $-1 0 38.764924201469441 0 0 -1 0 0 0 -1 forward_v I I I I #
coedge $-1 $441 $440 $315 $433 forward $310 $-1 #
straight-curve $-1 -40.86220642890585 -38.764924201469441 2.8545302603237666 0 0 1 I I #
edge $-1 $436 -38.764924201469441 $434 38.764924201469441 $431 $495 forward 7 unknown #
vertex $-1 $316 $496 #
straight-curve $-1 -25.076539796563296 -38.764924201469441 1.2984367791234153 1 0 0 I I #
vertex $-1 $318 $497 #
straight-curve $-1 -25.076539796563296 38.764924201469441 1.2984367791234153 -1 0 0 I I #
point $-1 -40.86220642890585 38.764924201469441 1.2984367791234153 #
point $-1 -40.86220642890585 -38.764924201469441 1.2984367791234153 #
coedge $-1 $431 $322 $325 $443 forward $310 $-1 #
coedge $-1 $322 $431 $329 $445 reversed $310 $-1 #
straight-curve $-1 -59.443952757347333 0 10.119684262171651 0 1 0 I I #
edge $-1 $327 -10.119684262171651 $436 -1.2984367791234153 $325 $498 forward 7 unknown #
point $-1 -59.443952757347333 38.764924201469441 10.119684262171651 #
edge $-1 $330 -10.119684262171651 $434 -1.2984367791234153 $441 $499 forward 7 unknown #
point $-1 -59.443952757347333 -38.764924201469441 10.119684262171651 #
straight-curve $-1 -40.86220642890585 38.764924201469441 2.8545302603237666 0 0 -1 I I #
plane-surface $-1 59.443952757347333 0 0 -1 0 0 0 0 1 forward_v I I I I #
coedge $-1 $339 $338 $354 $460 reversed $129 $-1 #
edge $-1 $453 -38.764924201469441 $451 38.764924201469441 $338 $500 forward 7 unknown #
vertex $-1 $346 $501 #
straight-curve $-1 40.86220642890585 38.764924201469441 2.8545302603237666 0 0 1 I I #
vertex $-1 $344 $502 #
straight-curve $-1 25.076539796563296 -38.764924201469441 1.2984367791234153 1 0 0 I I #
straight-curve $-1 25.076539796563296 38.764924201469441 1.2984367791234153 -1 0 0 I I #
point $-1 59.443952757347333 -38.764924201469441 1.2984367791234153 #
point $-1 59.443952757347333 38.764924201469441 1.2984367791234153 #
straight-curve $-1 40.86220642890585 0 10.119684262171651 0 -1 0 I I #
point $-1 40.86220642890585 38.764924201469441 10.119684262171651 #
edge $-1 $356 -7.2651540018478844 $453 1.5560934812003513 $354 $503 forward 7 unknown #
point $-1 40.86220642890585 -38.764924201469441 10.119684262171651 #
straight-curve $-1 59.443952757347333 -38.764924201469441 0 0 0 -1 I I #
straight-curve $-1 59.443952757347333 38.764924201469441 0 0 0 -1 I I #
edge $-1 $465 26.154248078648905 $468 31.690945761207288 $363 $504 forward 7 unknown #
vertex $-1 $464 $505 #
straight-curve $-1 -29.010956922498075 -38.764924201469441 43.310698736050128 0 0 1 I I #
edge $-1 $468 11.542666084647092 $374 23.393915591054874 $373 $506 forward 7 unknown #
vertex $-1 $467 $507 #
straight-curve $-1 -29.010956922498075 -38.764924201469412 10.20172603976394 0 -0.64278759981090561 -0.7660444514056185 I I #
point $-1 -29.010956922498075 -38.764924201469441 10.201726039763907 #
point $-1 -40.862206428905857 -33.228226518911057 16.800105566814388 #
straight-curve $-1 0 -38.764924201469441 16.800105566814388 1 0 0 I I #
vertex $-1 $380 $508 #
point $-1 -37.491956527624296 -34.907907127864895 12.587414714987075 #
vertex $-1 $384 $509 #
point $-1 -33.936581675701966 -34.907907127864895 12.587414714987075 #
vertex $-1 $388 $510 #
point $-1 -30.381206823779632 -34.907907127864895 12.587414714987075 #
coedge $-1 $403 $402 $395 $480 forward $392 $-1 #
edge $-1 $481 -14.567242631952347 $484 4.7718058690750667 $479 $511 forward 7 unknown #
vertex $-1 $480 $512 #
straight-curve $-1 -33.785472611445144 38.764924201469441 71.916908716687402 0 0 1 I I #
edge $-1 $484 -21.31036145187808 $404 -3.6398608672560506 $403 $513 forward 7 unknown #
vertex $-1 $483 $514 #
straight-curve $-1 -33.785472611445144 -23.153165376583431 48.885715056756339 0 0.79863550430605224 -0.6018150307709319 I I #
point $-1 -33.785472611445144 38.764924201469441 2.2270869544759933 #
point $-1 -16.114972026823114 19.425875700442027 16.800105566814388 #
straight-curve $-1 0 38.764924201469441 16.800105566814388 -1 0 0 I I #
vertex $-1 $410 $515 #
point $-1 -21.95022231913412 22.344554949727176 0.55492253802041924 #
straight-curve $-1 -59.443952757347333 38.764924201469441 0 0 0 -1 I I #
point $-1 -59.443952757347333 -38.764924201469441 -16.800105566814388 #
straight-curve $-1 -59.443952757347333 0 -16.800105566814388 0 1 0 I I #
point $-1 -59.443952757347333 38.764924201469441 -16.800105566814388 #
straight-curve $-1 -59.443952757347333 0 1.2984367791234153 0 -1 0 I I #
point $-1 -59.443952757347333 -38.764924201469441 1.2984367791234153 #
point $-1 -59.443952757347333 38.764924201469441 1.2984367791234153 #
straight-curve $-1 -59.443952757347333 38.764924201469441 0 0 0 -1 I I #
straight-curve $-1 -59.443952757347333 -38.764924201469441 0 0 0 -1 I I #
straight-curve $-1 40.86220642890585 0 1.2984367791234153 0 1 0 I I #
point $-1 40.86220642890585 38.764924201469441 1.2984367791234153 #
point $-1 40.86220642890585 -38.764924201469441 1.2984367791234153 #
straight-curve $-1 40.86220642890585 -38.764924201469441 2.8545302603237666 0 0 -1 I I #
straight-curve $-1 -29.010956922498075 -64.919172280118346 16.800105566814388 0 1 0 I I #
point $-1 -29.010956922498075 -38.764924201469441 16.800105566814388 #
straight-curve $-1 -17.468290837850983 -33.228226518911057 16.800105566814388 -1 0 0 I I #
point $-1 -29.010956922498075 -33.228226518911057 16.800105566814388 #
point $-1 -38.491956527624296 -34.141862676459276 11.94462711517617 #
point $-1 -34.936581675701966 -34.141862676459276 11.94462711517617 #
point $-1 -31.381206823779632 -34.141862676459276 11.94462711517617 #
straight-curve $-1 -33.785472611445144 24.197681569517094 16.800105566814388 0 -1 0 I I #
point $-1 -33.785472611445144 38.764924201469441 16.800105566814388 #
straight-curve $-1 -12.475111159567064 19.425875700442013 16.800105566814388 1 0 0 I I #
point $-1 -33.785472611445144 19.425875700442027 16.800105566814388 #
point $-1 -24.95022231913412 20.539109857414381 -1.8409839748977377 #
End-of-ACIS-data 