500 0 8 0           
7 Unknown 11 ACIS 5.0 NT 24 Fri Mar 26 18:13:29 1999 
-1 9.9999999999999995e-007 1e-010 
body $-1 $8 $-1 $9 #
body $-1 $10 $-1 $11 #
body $-1 $12 $-1 $13 #
body $-1 $14 $-1 $15 #
body $-1 $16 $-1 $17 #
body $-1 $18 $-1 $19 #
body $-1 $20 $-1 $21 #
body $-1 $22 $-1 $23 #
lump $-1 $-1 $24 $0 #
transform $-1 1 0 0 0 1 0 0 0 1 59.46958830530717 35.986841572134225 15.232053686094059 1 rotate no_reflect no_shear #
lump $-1 $-1 $25 $1 #
transform $-1 0.75470957328743171 0 0.6560590369687036 0 1 0 -0.6560590369687036 0 0.75470957328743171 -78.03112166501019 8.2935463769027251 109.68528773495369 1 rotate no_reflect no_shear #
lump $-1 $-1 $26 $2 #
transform $-1 0.75470957328743171 0 0.6560590369687036 0 -1 0 0.6560590369687036 0 -0.75470957328743171 7.8282342254719568 3.31741855076109 23.163337501874459 1 rotate no_reflect no_shear #
lump $-1 $-1 $27 $3 #
transform $-1 0.75470957328743171 0 0.6560590369687036 0 -1 0 0.6560590369687036 0 -0.75470957328743171 7.8282342254719568 8.2935463769027251 23.163337501874459 1 rotate no_reflect no_shear #
lump $-1 $-1 $28 $4 #
transform $-1 0.75470957328743171 0 0.6560590369687036 0 -1 0 0.6560590369687036 0 -0.75470957328743171 7.8282342254719568 13.26967420304436 23.163337501874459 1 rotate no_reflect no_shear #
lump $-1 $-1 $29 $5 #
transform $-1 0.76604443648966558 0 -0.64278761758704617 0 1 0 0.64278761758704617 0 0.76604443648966558 104.27911205869317 61.133715782186101 189.76136516490419 1 rotate no_reflect no_shear #
lump $-1 $-1 $30 $6 #
transform $-1 0.76604443648966558 0 -0.64278761758704617 0 -1 0 -0.64278761758704617 0 -0.76604443648966558 112.7387500427654 59.564781806639338 24.812164229414506 1 rotate no_reflect no_shear #
lump $-1 $-1 $31 $7 #
transform $-1 0.76604443648966558 0 -0.64278761758704617 0 -1 0 -0.64278761758704617 0 -0.76604443648966558 112.7387500427654 62.702649757732857 24.812164229414506 1 rotate no_reflect no_shear #
shell $-1 $-1 $-1 $32 $-1 $8 #
shell $-1 $-1 $-1 $33 $-1 $10 #
shell $-1 $-1 $-1 $34 $-1 $12 #
shell $-1 $-1 $-1 $35 $-1 $14 #
shell $-1 $-1 $-1 $36 $-1 $16 #
shell $-1 $-1 $-1 $37 $-1 $18 #
shell $-1 $-1 $-1 $38 $-1 $20 #
shell $-1 $-1 $-1 $39 $-1 $22 #
face $-1 $40 $41 $24 $-1 $42 forward single #
face $-1 $43 $44 $25 $-1 $45 forward single #
face $-1 $46 $47 $26 $-1 $48 forward single #
face $-1 $49 $50 $27 $-1 $51 forward single #
face $-1 $52 $53 $28 $-1 $54 forward single #
face $-1 $55 $56 $29 $-1 $57 forward single #
face $-1 $58 $59 $30 $-1 $60 forward single #
face $-1 $61 $62 $31 $-1 $63 forward single #
face $-1 $64 $65 $24 $-1 $66 reversed single #
loop $-1 $-1 $67 $32 #
plane-surface $-1 0 0 15.232053686094059 0 0 1 1 0 0 forward_v I I I I #
face $-1 $68 $69 $25 $-1 $70 reversed single #
loop $-1 $-1 $71 $33 #
plane-surface $-1 0 0 118.93917661061433 0 0 1 1 0 0 forward_v I I I I #
face $-1 $72 $73 $26 $-1 $74 forward single #
loop $-1 $75 $76 $34 #
cone-surface $-1 0 0 -1.5942869350260942 0 0 1 1 0 0 1 I I 0 1 1 forward I I I I #
face $-1 $77 $78 $27 $-1 $79 forward single #
loop $-1 $80 $81 $35 #
cone-surface $-1 0 0 -1.5942869350260942 0 0 1 1 0 0 1 I I 0 1 1 forward I I I I #
face $-1 $82 $83 $28 $-1 $84 forward single #
loop $-1 $85 $86 $36 #
cone-surface $-1 0 0 -1.5942869350260942 0 0 1 1 0 0 1 I I 0 1 1 forward I I I I #
face $-1 $87 $88 $29 $-1 $89 reversed single #
loop $-1 $-1 $90 $37 #
plane-surface $-1 0 0 118.93917661061434 0 0 1 1 0 0 forward_v I I I I #
face $-1 $91 $92 $30 $-1 $93 forward single #
loop $-1 $94 $95 $38 #
cone-surface $-1 0 0 -1.2407452620014041 0 0 1 1 0 0 1 I I 0 1 1 forward I I I I #
face $-1 $96 $97 $31 $-1 $98 forward single #
loop $-1 $99 $100 $39 #
cone-surface $-1 0 0 -1.2407452620014041 0 0 1 1 0 0 1 I I 0 1 1 forward I I I I #
face $-1 $101 $102 $24 $-1 $103 reversed single #
loop $-1 $-1 $104 $40 #
plane-surface $-1 0 0 -15.232053686094059 0 0 1 1 0 0 forward_v I I I I #
coedge $-1 $105 $106 $107 $108 forward $41 $-1 #
face $-1 $109 $110 $25 $-1 $111 reversed single #
loop $-1 $-1 $112 $43 #
plane-surface $-1 0 0 -118.93917661061433 0 0 1 1 0 0 forward_v I I I I #
coedge $-1 $113 $114 $115 $116 forward $44 $-1 #
face $-1 $-1 $117 $26 $-1 $118 forward single #
loop $-1 $-1 $119 $46 #
plane-surface $-1 0 0 -2.6885738700521884 0 0 -1 -1 0 0 forward_v I I I I #
loop $-1 $-1 $120 $34 #
coedge $-1 $76 $76 $119 $121 reversed $47 $-1 #
face $-1 $-1 $122 $27 $-1 $123 forward single #
loop $-1 $-1 $124 $49 #
plane-surface $-1 0 0 -2.6885738700521884 0 0 -1 -1 0 0 forward_v I I I I #
loop $-1 $-1 $125 $35 #
coedge $-1 $81 $81 $124 $126 reversed $50 $-1 #
face $-1 $-1 $127 $28 $-1 $128 forward single #
loop $-1 $-1 $129 $52 #
plane-surface $-1 0 0 -2.6885738700521884 0 0 -1 -1 0 0 forward_v I I I I #
loop $-1 $-1 $130 $36 #
coedge $-1 $86 $86 $129 $131 reversed $53 $-1 #
face $-1 $132 $133 $29 $-1 $134 reversed single #
loop $-1 $-1 $135 $55 #
plane-surface $-1 0 0 -118.93917661061434 0 0 1 1 0 0 forward_v I I I I #
coedge $-1 $136 $137 $138 $139 forward $56 $-1 #
face $-1 $-1 $140 $30 $-1 $141 forward single #
loop $-1 $-1 $142 $58 #
plane-surface $-1 0 0 -1.9814905240028082 0 0 -1 -1 0 0 forward_v I I I I #
loop $-1 $-1 $143 $38 #
coedge $-1 $95 $95 $142 $144 reversed $59 $-1 #
face $-1 $-1 $145 $31 $-1 $146 forward single #
loop $-1 $-1 $147 $61 #
plane-surface $-1 0 0 -1.9814905240028082 0 0 -1 -1 0 0 forward_v I I I I #
loop $-1 $-1 $148 $39 #
coedge $-1 $100 $100 $147 $149 reversed $62 $-1 #
face $-1 $150 $151 $24 $-1 $152 reversed single #
loop $-1 $-1 $153 $64 #
plane-surface $-1 0 -35.986841572134225 0 0 1 0 0 0 1 forward_v I I I I #
coedge $-1 $154 $155 $156 $157 forward $65 $-1 #
coedge $-1 $158 $67 $159 $160 forward $41 $-1 #
coedge $-1 $67 $158 $161 $162 forward $41 $-1 #
coedge $-1 $163 $164 $67 $108 reversed $165 $-1 #
edge $-1 $166 -35.986841572134225 $167 35.986841572134225 $107 $168 forward 7 unknown #
face $-1 $169 $170 $25 $-1 $171 reversed single #
loop $-1 $-1 $172 $68 #
plane-surface $-1 0 -8.2935463769027251 0 0 1 0 0 0 1 forward_v I I I I #
coedge $-1 $173 $174 $175 $176 forward $69 $-1 #
coedge $-1 $177 $71 $178 $179 forward $44 $-1 #
coedge $-1 $71 $177 $180 $181 forward $44 $-1 #
coedge $-1 $182 $183 $71 $116 reversed $184 $-1 #
edge $-1 $185 -8.2935463769027251 $186 8.2935463769027251 $115 $187 forward 7 unknown #
loop $-1 $188 $189 $72 #
cone-surface $-1 0 0 0 0 0 1 0.5 0 0 1 I I -0.70710678118654746 0.70710678118654746 0.5 forward I I I I #
coedge $-1 $119 $119 $76 $121 forward $73 $-1 #
coedge $-1 $120 $120 $189 $190 forward $75 $-1 #
edge $-1 $191 0 $191 6.2831853071796004 $119 $192 forward 7 unknown #
loop $-1 $193 $194 $77 #
cone-surface $-1 0 0 0 0 0 1 0.5 0 0 1 I I -0.70710678118654746 0.70710678118654746 0.5 forward I I I I #
coedge $-1 $124 $124 $81 $126 forward $78 $-1 #
coedge $-1 $125 $125 $194 $195 forward $80 $-1 #
edge $-1 $196 0 $196 6.2831853071796004 $124 $197 forward 7 unknown #
loop $-1 $198 $199 $82 #
cone-surface $-1 0 0 0 0 0 1 0.5 0 0 1 I I -0.70710678118654746 0.70710678118654746 0.5 forward I I I I #
coedge $-1 $129 $129 $86 $131 forward $83 $-1 #
coedge $-1 $130 $130 $199 $200 forward $85 $-1 #
edge $-1 $201 0 $201 6.2831853071796004 $129 $202 forward 7 unknown #
face $-1 $203 $204 $29 $-1 $205 reversed single #
loop $-1 $-1 $206 $87 #
plane-surface $-1 0 -3.6608459429424443 0 0 1 0 0 0 1 forward_v I I I I #
coedge $-1 $207 $208 $209 $210 forward $88 $-1 #
coedge $-1 $211 $90 $212 $213 forward $56 $-1 #
coedge $-1 $90 $211 $214 $215 forward $56 $-1 #
coedge $-1 $216 $217 $90 $139 reversed $218 $-1 #
edge $-1 $219 -3.6608459429424443 $220 3.6608459429424443 $138 $221 forward 7 unknown #
loop $-1 $222 $223 $91 #
cone-surface $-1 0 0 0 0 0 1 0.5 0 0 1 I I -0.70710678118654746 0.70710678118654746 0.5 forward I I I I #
coedge $-1 $142 $142 $95 $144 forward $92 $-1 #
coedge $-1 $143 $143 $223 $224 forward $94 $-1 #
edge $-1 $225 0 $225 6.2831853071796004 $142 $226 forward 7 unknown #
loop $-1 $227 $228 $96 #
cone-surface $-1 0 0 0 0 0 1 0.5 0 0 1 I I -0.70710678118654746 0.70710678118654746 0.5 forward I I I I #
coedge $-1 $147 $147 $100 $149 forward $97 $-1 #
coedge $-1 $148 $148 $228 $229 forward $99 $-1 #
edge $-1 $230 0 $230 6.2831853071796004 $147 $231 forward 7 unknown #
face $-1 $232 $233 $24 $-1 $234 reversed single #
loop $-1 $-1 $235 $101 #
plane-surface $-1 -59.46958830530717 0 0 1 0 0 0 0 -1 forward_v I I I I #
coedge $-1 $236 $161 $237 $238 forward $102 $-1 #
coedge $-1 $239 $104 $236 $240 forward $65 $-1 #
coedge $-1 $104 $239 $241 $242 forward $65 $-1 #
coedge $-1 $164 $163 $104 $157 reversed $165 $-1 #
edge $-1 $243 -35.986841572134225 $244 35.986841572134225 $156 $245 forward 7 unknown #
coedge $-1 $106 $105 $246 $247 forward $41 $-1 #
coedge $-1 $248 $249 $105 $160 reversed $233 $-1 #
edge $-1 $167 -59.46958830530717 $250 59.46958830530717 $159 $251 forward 7 unknown #
coedge $-1 $153 $252 $106 $162 reversed $102 $-1 #
edge $-1 $253 -59.46958830530717 $166 59.46958830530717 $161 $254 forward 7 unknown #
coedge $-1 $156 $107 $252 $255 forward $165 $-1 #
coedge $-1 $107 $156 $248 $256 reversed $165 $-1 #
loop $-1 $-1 $163 $232 #
vertex $-1 $108 $257 #
vertex $-1 $108 $258 #
straight-curve $-1 59.46958830530717 0 15.232053686094059 0 1 0 I I #
face $-1 $259 $260 $25 $-1 $261 reversed single #
loop $-1 $-1 $262 $109 #
plane-surface $-1 -237.87835322122868 0 0 1 0 0 0 0 -1 forward_v I I I I #
coedge $-1 $263 $180 $264 $265 forward $110 $-1 #
coedge $-1 $266 $112 $263 $267 forward $69 $-1 #
coedge $-1 $112 $266 $268 $269 forward $69 $-1 #
coedge $-1 $183 $182 $112 $176 reversed $184 $-1 #
edge $-1 $270 -8.2935463769027251 $271 8.2935463769027251 $175 $272 forward 7 unknown #
coedge $-1 $114 $113 $273 $274 forward $44 $-1 #
coedge $-1 $275 $276 $113 $179 reversed $260 $-1 #
edge $-1 $186 -237.87835322122868 $277 237.87835322122868 $178 $278 forward 7 unknown #
coedge $-1 $172 $279 $114 $181 reversed $110 $-1 #
edge $-1 $280 -237.87835322122868 $185 237.87835322122868 $180 $281 forward 7 unknown #
coedge $-1 $175 $115 $279 $282 forward $184 $-1 #
coedge $-1 $115 $175 $275 $283 reversed $184 $-1 #
loop $-1 $-1 $182 $259 #
vertex $-1 $116 $284 #
vertex $-1 $116 $285 #
straight-curve $-1 237.87835322122868 0 118.93917661061433 0 1 0 I I #
loop $-1 $-1 $286 $72 #
coedge $-1 $189 $189 $120 $190 reversed $117 $-1 #
edge $-1 $287 0 $287 6.2831853071796004 $189 $288 forward 7 unknown #
vertex $-1 $121 $289 #
ellipse-curve $-1 0 0 -2.6885738700521884 0 0 -1 1 0 0 1 I I #
loop $-1 $-1 $290 $77 #
coedge $-1 $194 $194 $125 $195 reversed $122 $-1 #
edge $-1 $291 0 $291 6.2831853071796004 $194 $292 forward 7 unknown #
vertex $-1 $126 $293 #
ellipse-curve $-1 0 0 -2.6885738700521884 0 0 -1 1 0 0 1 I I #
loop $-1 $-1 $294 $82 #
coedge $-1 $199 $199 $130 $200 reversed $127 $-1 #
edge $-1 $295 0 $295 6.2831853071796004 $199 $296 forward 7 unknown #
vertex $-1 $131 $297 #
ellipse-curve $-1 0 0 -2.6885738700521884 0 0 -1 1 0 0 1 I I #
face $-1 $298 $299 $29 $-1 $300 reversed single #
loop $-1 $-1 $301 $132 #
plane-surface $-1 -237.87835322122868 0 0 1 0 0 0 0 -1 forward_v I I I I #
coedge $-1 $302 $214 $303 $304 forward $133 $-1 #
coedge $-1 $305 $135 $302 $306 forward $88 $-1 #
coedge $-1 $135 $305 $307 $308 forward $88 $-1 #
coedge $-1 $217 $216 $135 $210 reversed $218 $-1 #
edge $-1 $309 -3.6608459429424443 $310 3.6608459429424443 $209 $311 forward 7 unknown #
coedge $-1 $137 $136 $312 $313 forward $56 $-1 #
coedge $-1 $314 $315 $136 $213 reversed $299 $-1 #
edge $-1 $220 -237.87835322122868 $316 237.87835322122868 $212 $317 forward 7 unknown #
coedge $-1 $206 $318 $137 $215 reversed $133 $-1 #
edge $-1 $319 -237.87835322122868 $219 237.87835322122868 $214 $320 forward 7 unknown #
coedge $-1 $209 $138 $318 $321 forward $218 $-1 #
coedge $-1 $138 $209 $314 $322 reversed $218 $-1 #
loop $-1 $-1 $216 $298 #
vertex $-1 $139 $323 #
vertex $-1 $139 $324 #
straight-curve $-1 237.87835322122868 0 118.93917661061434 0 1 0 I I #
loop $-1 $-1 $325 $91 #
coedge $-1 $223 $223 $143 $224 reversed $140 $-1 #
edge $-1 $326 0 $326 6.2831853071796004 $223 $327 forward 7 unknown #
vertex $-1 $144 $328 #
ellipse-curve $-1 0 0 -1.9814905240028082 0 0 -1 1 0 0 1 I I #
loop $-1 $-1 $329 $96 #
coedge $-1 $228 $228 $148 $229 reversed $145 $-1 #
edge $-1 $330 0 $330 6.2831853071796004 $228 $331 forward 7 unknown #
vertex $-1 $149 $332 #
ellipse-curve $-1 0 0 -1.9814905240028082 0 0 -1 1 0 0 1 I I #
face $-1 $-1 $165 $24 $-1 $333 reversed single #
loop $-1 $-1 $248 $150 #
plane-surface $-1 0 35.986841572134225 0 0 -1 0 0 0 -1 forward_v I I I I #
coedge $-1 $334 $246 $249 $335 forward $151 $-1 #
coedge $-1 $252 $153 $154 $240 reversed $102 $-1 #
coedge $-1 $246 $334 $153 $238 reversed $151 $-1 #
edge $-1 $253 -15.232053686094059 $336 15.232053686094059 $237 $337 forward 7 unknown #
coedge $-1 $155 $154 $334 $338 forward $65 $-1 #
edge $-1 $244 -59.46958830530717 $336 59.46958830530717 $236 $339 forward 7 unknown #
coedge $-1 $249 $248 $155 $242 reversed $233 $-1 #
edge $-1 $340 -59.46958830530717 $243 59.46958830530717 $241 $341 forward 7 unknown #
vertex $-1 $157 $342 #
vertex $-1 $255 $343 #
straight-curve $-1 59.46958830530717 0 -15.232053686094059 0 -1 0 I I #
coedge $-1 $235 $237 $158 $247 reversed $151 $-1 #
edge $-1 $250 -35.986841572134225 $253 35.986841572134225 $246 $344 forward 7 unknown #
coedge $-1 $241 $159 $164 $256 forward $233 $-1 #
coedge $-1 $159 $241 $235 $335 reversed $233 $-1 #
vertex $-1 $160 $345 #
straight-curve $-1 0 35.986841572134225 15.232053686094059 -1 0 0 I I #
coedge $-1 $161 $236 $163 $255 reversed $102 $-1 #
vertex $-1 $247 $346 #
straight-curve $-1 0 -35.986841572134225 15.232053686094059 1 0 0 I I #
edge $-1 $166 -15.232053686094059 $244 15.232053686094059 $163 $347 forward 7 unknown #
edge $-1 $167 -15.232053686094059 $243 15.232053686094059 $164 $348 forward 7 unknown #
point $-1 59.46958830530717 -35.986841572134225 15.232053686094059 #
point $-1 59.46958830530717 35.986841572134225 15.232053686094059 #
face $-1 $-1 $184 $25 $-1 $349 reversed single #
loop $-1 $-1 $275 $169 #
plane-surface $-1 0 8.2935463769027251 0 0 -1 0 0 0 -1 forward_v I I I I #
coedge $-1 $350 $273 $276 $351 forward $170 $-1 #
coedge $-1 $279 $172 $173 $267 reversed $110 $-1 #
coedge $-1 $273 $350 $172 $265 reversed $170 $-1 #
edge $-1 $280 -118.93917661061433 $352 118.93917661061433 $264 $353 forward 7 unknown #
coedge $-1 $174 $173 $350 $354 forward $69 $-1 #
edge $-1 $271 -237.87835322122868 $352 237.87835322122868 $263 $355 forward 7 unknown #
coedge $-1 $276 $275 $174 $269 reversed $260 $-1 #
edge $-1 $356 -237.87835322122868 $270 237.87835322122868 $268 $357 forward 7 unknown #
vertex $-1 $176 $358 #
vertex $-1 $282 $359 #
straight-curve $-1 237.87835322122868 0 -118.93917661061433 0 -1 0 I I #
coedge $-1 $262 $264 $177 $274 reversed $170 $-1 #
edge $-1 $277 -8.2935463769027251 $280 8.2935463769027251 $273 $360 forward 7 unknown #
coedge $-1 $268 $178 $183 $283 forward $260 $-1 #
coedge $-1 $178 $268 $262 $351 reversed $260 $-1 #
vertex $-1 $179 $361 #
straight-curve $-1 0 8.2935463769027251 118.93917661061433 -1 0 0 I I #
coedge $-1 $180 $263 $182 $282 reversed $110 $-1 #
vertex $-1 $274 $362 #
straight-curve $-1 0 -8.2935463769027251 118.93917661061433 1 0 0 I I #
edge $-1 $185 -118.93917661061433 $271 118.93917661061433 $182 $363 forward 7 unknown #
edge $-1 $186 -118.93917661061433 $270 118.93917661061433 $183 $364 forward 7 unknown #
point $-1 237.87835322122868 -8.2935463769027251 118.93917661061433 #
point $-1 237.87835322122868 8.2935463769027251 118.93917661061433 #
coedge $-1 $286 $286 $-1 $365 reversed $188 $-1 #
vertex $-1 $190 $366 #
ellipse-curve $-1 0 0 -0.5 0 0 -1 1 0 0 1 I I #
point $-1 1 0 -2.6885738700521884 #
coedge $-1 $290 $290 $-1 $367 reversed $193 $-1 #
vertex $-1 $195 $368 #
ellipse-curve $-1 0 0 -0.5 0 0 -1 1 0 0 1 I I #
point $-1 1 0 -2.6885738700521884 #
coedge $-1 $294 $294 $-1 $369 reversed $198 $-1 #
vertex $-1 $200 $370 #
ellipse-curve $-1 0 0 -0.5 0 0 -1 1 0 0 1 I I #
point $-1 1 0 -2.6885738700521884 #
face $-1 $-1 $218 $29 $-1 $371 reversed single #
loop $-1 $-1 $314 $203 #
plane-surface $-1 0 3.6608459429424443 0 0 -1 0 0 0 -1 forward_v I I I I #
coedge $-1 $372 $312 $315 $373 forward $204 $-1 #
coedge $-1 $318 $206 $207 $306 reversed $133 $-1 #
coedge $-1 $312 $372 $206 $304 reversed $204 $-1 #
edge $-1 $319 -118.93917661061434 $374 118.93917661061434 $303 $375 forward 7 unknown #
coedge $-1 $208 $207 $372 $376 forward $88 $-1 #
edge $-1 $310 -237.87835322122868 $374 237.87835322122868 $302 $377 forward 7 unknown #
coedge $-1 $315 $314 $208 $308 reversed $299 $-1 #
edge $-1 $378 -237.87835322122868 $309 237.87835322122868 $307 $379 forward 7 unknown #
vertex $-1 $210 $380 #
vertex $-1 $321 $381 #
straight-curve $-1 237.87835322122868 0 -118.93917661061434 0 -1 0 I I #
coedge $-1 $301 $303 $211 $313 reversed $204 $-1 #
edge $-1 $316 -3.6608459429424443 $319 3.6608459429424443 $312 $382 forward 7 unknown #
coedge $-1 $307 $212 $217 $322 forward $299 $-1 #
coedge $-1 $212 $307 $301 $373 reversed $299 $-1 #
vertex $-1 $213 $383 #
straight-curve $-1 0 3.6608459429424443 118.93917661061434 -1 0 0 I I #
coedge $-1 $214 $302 $216 $321 reversed $133 $-1 #
vertex $-1 $313 $384 #
straight-curve $-1 0 -3.6608459429424443 118.93917661061434 1 0 0 I I #
edge $-1 $219 -118.93917661061434 $310 118.93917661061434 $216 $385 forward 7 unknown #
edge $-1 $220 -118.93917661061434 $309 118.93917661061434 $217 $386 forward 7 unknown #
point $-1 237.87835322122868 -3.6608459429424443 118.93917661061434 #
point $-1 237.87835322122868 3.6608459429424443 118.93917661061434 #
coedge $-1 $325 $325 $-1 $387 reversed $222 $-1 #
vertex $-1 $224 $388 #
ellipse-curve $-1 0 0 -0.5 0 0 -1 1 0 0 1 I I #
point $-1 1 0 -1.9814905240028082 #
coedge $-1 $329 $329 $-1 $389 reversed $227 $-1 #
vertex $-1 $229 $390 #
ellipse-curve $-1 0 0 -0.5 0 0 -1 1 0 0 1 I I #
point $-1 1 0 -1.9814905240028082 #
plane-surface $-1 59.46958830530717 0 0 -1 0 0 0 0 1 forward_v I I I I #
coedge $-1 $237 $235 $239 $338 reversed $151 $-1 #
edge $-1 $250 -15.232053686094059 $340 15.232053686094059 $249 $391 forward 7 unknown #
vertex $-1 $338 $392 #
straight-curve $-1 -59.46958830530717 -35.986841572134225 0 0 0 -1 I I #
edge $-1 $336 -35.986841572134225 $340 35.986841572134225 $334 $393 forward 7 unknown #
straight-curve $-1 0 -35.986841572134225 -15.232053686094059 -1 0 0 I I #
vertex $-1 $242 $394 #
straight-curve $-1 0 35.986841572134225 -15.232053686094059 1 0 0 I I #
point $-1 59.46958830530717 35.986841572134225 -15.232053686094059 #
point $-1 59.46958830530717 -35.986841572134225 -15.232053686094059 #
straight-curve $-1 -59.46958830530717 0 15.232053686094059 0 -1 0 I I #
point $-1 -59.46958830530717 35.986841572134225 15.232053686094059 #
point $-1 -59.46958830530717 -35.986841572134225 15.232053686094059 #
straight-curve $-1 59.46958830530717 -35.986841572134225 0 0 0 -1 I I #
straight-curve $-1 59.46958830530717 35.986841572134225 0 0 0 -1 I I #
plane-surface $-1 237.87835322122868 0 0 -1 0 0 0 0 1 forward_v I I I I #
coedge $-1 $264 $262 $266 $354 reversed $170 $-1 #
edge $-1 $277 -118.93917661061433 $356 118.93917661061433 $276 $395 forward 7 unknown #
vertex $-1 $354 $396 #
straight-curve $-1 -237.87835322122868 -8.2935463769027251 0 0 0 -1 I I #
edge $-1 $352 -8.2935463769027251 $356 8.2935463769027251 $350 $397 forward 7 unknown #
straight-curve $-1 0 -8.2935463769027251 -118.93917661061433 -1 0 0 I I #
vertex $-1 $269 $398 #
straight-curve $-1 0 8.2935463769027251 -118.93917661061433 1 0 0 I I #
point $-1 237.87835322122868 8.2935463769027251 -118.93917661061433 #
point $-1 237.87835322122868 -8.2935463769027251 -118.93917661061433 #
straight-curve $-1 -237.87835322122868 0 118.93917661061433 0 -1 0 I I #
point $-1 -237.87835322122868 8.2935463769027251 118.93917661061433 #
point $-1 -237.87835322122868 -8.2935463769027251 118.93917661061433 #
straight-curve $-1 237.87835322122868 -8.2935463769027251 0 0 0 -1 I I #
straight-curve $-1 237.87835322122868 8.2935463769027251 0 0 0 -1 I I #
edge $-1 $399 1 $399 0 $286 $-1 forward 7 unknown #
point $-1 1 0 -0.5 #
edge $-1 $400 1 $400 0 $290 $-1 forward 7 unknown #
point $-1 1 0 -0.5 #
edge $-1 $401 1 $401 0 $294 $-1 forward 7 unknown #
point $-1 1 0 -0.5 #
plane-surface $-1 237.87835322122868 0 0 -1 0 0 0 0 1 forward_v I I I I #
coedge $-1 $303 $301 $305 $376 reversed $204 $-1 #
edge $-1 $316 -118.93917661061434 $378 118.93917661061434 $315 $402 forward 7 unknown #
vertex $-1 $376 $403 #
straight-curve $-1 -237.87835322122868 -3.6608459429424443 0 0 0 -1 I I #
edge $-1 $374 -3.6608459429424443 $378 3.6608459429424443 $372 $404 forward 7 unknown #
straight-curve $-1 0 -3.6608459429424443 -118.93917661061434 -1 0 0 I I #
vertex $-1 $308 $405 #
straight-curve $-1 0 3.6608459429424443 -118.93917661061434 1 0 0 I I #
point $-1 237.87835322122868 3.6608459429424443 -118.93917661061434 #
point $-1 237.87835322122868 -3.6608459429424443 -118.93917661061434 #
straight-curve $-1 -237.87835322122868 0 118.93917661061434 0 -1 0 I I #
point $-1 -237.87835322122868 3.6608459429424443 118.93917661061434 #
point $-1 -237.87835322122868 -3.6608459429424443 118.93917661061434 #
straight-curve $-1 237.87835322122868 -3.6608459429424443 0 0 0 -1 I I #
straight-curve $-1 237.87835322122868 3.6608459429424443 0 0 0 -1 I I #
edge $-1 $406 1 $406 0 $325 $-1 forward 7 unknown #
point $-1 1 0 -0.5 #
edge $-1 $407 1 $407 0 $329 $-1 forward 7 unknown #
point $-1 1 0 -0.5 #
straight-curve $-1 -59.46958830530717 35.986841572134225 0 0 0 -1 I I #
point $-1 -59.46958830530717 -35.986841572134225 -15.232053686094059 #
straight-curve $-1 -59.46958830530717 0 -15.232053686094059 0 1 0 I I #
point $-1 -59.46958830530717 35.986841572134225 -15.232053686094059 #
straight-curve $-1 -237.87835322122868 8.2935463769027251 0 0 0 -1 I I #
point $-1 -237.87835322122868 -8.2935463769027251 -118.93917661061433 #
straight-curve $-1 -237.87835322122868 0 -118.93917661061433 0 1 0 I I #
point $-1 -237.87835322122868 8.2935463769027251 -118.93917661061433 #
vertex $-1 $365 $408 #
vertex $-1 $367 $409 #
vertex $-1 $369 $410 #
straight-curve $-1 -237.87835322122868 3.6608459429424443 0 0 0 -1 I I #
point $-1 -237.87835322122868 -3.6608459429424443 -118.93917661061434 #
straight-curve $-1 -237.87835322122868 0 -118.93917661061434 0 1 0 I I #
point $-1 -237.87835322122868 3.6608459429424443 -118.93917661061434 #
vertex $-1 $387 $411 #
vertex $-1 $389 $412 #
point $-1 0 0 0.5 #
point $-1 0 0 0.5 #
point $-1 0 0 0.5 #
point $-1 0 0 0.5 #
point $-1 0 0 0.5 #
End-of-ACIS-data 