500 0 4 0           
7 Unknown 11 ACIS 5.0 NT 24 Fri Mar 26 19:49:33 1999 
-1 9.9999999999999995e-007 1e-010 
body $-1 $4 $-1 $5 #
body $-1 $6 $-1 $7 #
body $-1 $8 $-1 $9 #
body $-1 $10 $-1 $11 #
lump $-1 $-1 $12 $0 #
transform $-1 1 0 0 0 1 0 0 0 1 45.416425061799984 30.955714459295468 13.240849378206779 1 rotate no_reflect no_shear #
lump $-1 $-1 $13 $1 #
transform $-1 1 0 0 0 1 0 0 0 1 45.416425061799984 30.955714459295468 13.240849378206779 1 rotate no_reflect no_shear #
lump $-1 $-1 $14 $2 #
transform $-1 1 0 0 0 1 0 0 0 1 45.416425061799984 30.955714459295468 13.240849378206779 1 rotate no_reflect no_shear #
lump $-1 $-1 $15 $3 #
transform $-1 1 0 0 0 1 0 0 0 1 45.416425061799984 30.955714459295468 13.240849378206779 1 rotate no_reflect no_shear #
shell $-1 $-1 $-1 $16 $-1 $4 #
shell $-1 $-1 $-1 $17 $-1 $6 #
shell $-1 $-1 $-1 $18 $-1 $8 #
shell $-1 $-1 $-1 $19 $-1 $10 #
face $-1 $20 $21 $12 $-1 $22 forward single #
face $-1 $23 $24 $13 $-1 $25 forward single #
face $-1 $26 $27 $14 $-1 $28 reversed single #
face $-1 $29 $30 $15 $-1 $31 reversed single #
face $-1 $32 $33 $12 $-1 $34 reversed single #
loop $-1 $-1 $35 $16 #
plane-surface $-1 0 0 13.240849378206779 0 0 1 1 0 0 forward_v I I I I #
face $-1 $36 $37 $13 $-1 $38 forward single #
loop $-1 $-1 $39 $17 #
plane-surface $-1 20.084851597202409 49.518160422487767 114.49423632585319 1 0 0 0 -0.69465837861970381 -0.71933979245794832 forward_v I I I I #
face $-1 $40 $41 $14 $-1 $42 reversed single #
loop $-1 $43 $44 $18 #
cone-surface $-1 27.32244401565886 26.248026105092329 8.6224102612076337 0 -0.69465837861970381 -0.71933979245794832 2.5 0 0 1 I I 0 1 2.5 forward I I I I #
face $-1 $45 $46 $15 $-1 $47 reversed single #
loop $-1 $48 $49 $19 #
cone-surface $-1 38.17883264334354 26.248026105092329 8.6224102612076337 0 -0.69465837861970381 -0.71933979245794832 2.5 0 0 1 I I 0 1 2.5 forward I I I I #
face $-1 $50 $51 $12 $-1 $52 reversed single #
loop $-1 $-1 $53 $20 #
plane-surface $-1 0 0 -13.240849378206779 0 0 1 1 0 0 forward_v I I I I #
coedge $-1 $54 $55 $56 $57 forward $21 $-1 #
face $-1 $58 $59 $13 $-1 $60 forward single #
loop $-1 $-1 $61 $23 #
plane-surface $-1 32.7506383295012 -13.579639969778746 49.154552769578871 0 0.69465837861970381 0.71933979245794832 1 0 0 forward_v I I I I #
coedge $-1 $62 $63 $64 $65 reversed $24 $-1 #
face $-1 $66 $67 $14 $-1 $68 forward single #
loop $-1 $69 $70 $26 #
cone-surface $-1 27.32244401565886 24.344828143191311 6.6515911232587293 0 -0.69465837861970381 -0.71933979245794832 1.25 0 0 1 I I -0.70710678118654746 0.70710678118654746 1.25 forward I I I I #
loop $-1 $-1 $71 $18 #
coedge $-1 $44 $44 $72 $73 reversed $27 $-1 #
face $-1 $74 $75 $15 $-1 $76 reversed single #
loop $-1 $77 $78 $29 #
cone-surface $-1 38.17883264334354 24.344828143191311 6.6515911232587293 0 -0.69465837861970381 -0.71933979245794832 1.25 0 0 1 I I -0.70710678118654746 0.70710678118654746 1.25 forward I I I I #
loop $-1 $-1 $79 $19 #
coedge $-1 $49 $49 $80 $81 reversed $30 $-1 #
face $-1 $82 $83 $12 $-1 $84 reversed single #
loop $-1 $-1 $85 $32 #
plane-surface $-1 0 -30.955714459295468 0 0 1 0 0 0 1 forward_v I I I I #
coedge $-1 $86 $87 $88 $89 forward $33 $-1 #
coedge $-1 $90 $35 $91 $92 forward $21 $-1 #
coedge $-1 $35 $90 $93 $94 forward $21 $-1 #
coedge $-1 $95 $96 $35 $57 reversed $97 $-1 #
edge $-1 $98 -30.955714459295468 $99 30.955714459295468 $56 $100 forward 7 unknown #
face $-1 $101 $102 $13 $-1 $103 reversed single #
loop $-1 $-1 $104 $36 #
plane-surface $-1 0 0 13.240849378206779 0 0 1 1 0 0 forward_v I I I I #
coedge $-1 $105 $106 $104 $107 reversed $37 $-1 #
coedge $-1 $63 $39 $106 $108 forward $24 $-1 #
coedge $-1 $39 $62 $109 $110 reversed $24 $-1 #
coedge $-1 $111 $104 $39 $65 forward $59 $-1 #
edge $-1 $112 -1.1489924831018783 $113 6.1966342480515841 $64 $114 forward 7 unknown #
face $-1 $115 $116 $14 $-1 $117 forward single #
loop $-1 $-1 $118 $40 #
plane-surface $-1 20.084851597202409 49.518160422487767 114.49423632585319 1 0 0 0 -0.69465837861970381 -0.71933979245794832 forward_v I I I I #
loop $-1 $-1 $119 $26 #
coedge $-1 $70 $70 $71 $120 forward $41 $-1 #
coedge $-1 $71 $71 $70 $120 reversed $43 $-1 #
coedge $-1 $72 $72 $44 $73 forward $116 $-1 #
edge $-1 $121 1.7537199311053534e-016 $121 6.2831853071796004 $72 $122 forward 7 unknown #
face $-1 $123 $124 $15 $-1 $125 reversed single #
loop $-1 $126 $127 $45 #
cone-surface $-1 27.32244401565886 26.248026105092329 8.6224102612076337 0 -0.69465837861970381 -0.71933979245794832 2.5 0 0 1 I I 0 1 2.5 forward I I I I #
loop $-1 $-1 $128 $29 #
coedge $-1 $78 $78 $79 $129 forward $46 $-1 #
coedge $-1 $79 $79 $78 $129 reversed $48 $-1 #
coedge $-1 $80 $80 $49 $81 forward $130 $-1 #
edge $-1 $131 1.7537199311053534e-016 $131 6.2831853071796004 $80 $132 forward 7 unknown #
face $-1 $133 $134 $12 $-1 $135 reversed single #
loop $-1 $-1 $136 $50 #
plane-surface $-1 -45.416425061799984 0 0 1 0 0 0 0 -1 forward_v I I I I #
coedge $-1 $137 $93 $138 $139 forward $51 $-1 #
coedge $-1 $140 $53 $137 $141 forward $33 $-1 #
coedge $-1 $53 $140 $142 $143 forward $33 $-1 #
coedge $-1 $96 $95 $53 $89 reversed $97 $-1 #
edge $-1 $144 -30.955714459295468 $145 30.955714459295468 $88 $146 forward 7 unknown #
coedge $-1 $55 $54 $147 $148 forward $21 $-1 #
coedge $-1 $149 $150 $54 $92 reversed $134 $-1 #
edge $-1 $99 -45.416425061799984 $151 45.416425061799984 $91 $152 forward 7 unknown #
coedge $-1 $85 $153 $55 $94 reversed $51 $-1 #
edge $-1 $154 -45.416425061799984 $98 45.416425061799984 $93 $155 forward 7 unknown #
coedge $-1 $88 $56 $153 $156 forward $97 $-1 #
coedge $-1 $56 $88 $149 $157 reversed $97 $-1 #
loop $-1 $-1 $95 $133 #
vertex $-1 $57 $158 #
vertex $-1 $57 $159 #
straight-curve $-1 45.416425061799984 0 13.240849378206779 0 1 0 I I #
face $-1 $160 $161 $13 $-1 $162 reversed single #
loop $-1 $-1 $109 $58 #
plane-surface $-1 0 30.955714459295468 0 0 -1 0 0 0 -1 forward_v I I I I #
coedge $-1 $64 $163 $61 $107 forward $59 $-1 #
coedge $-1 $164 $61 $165 $166 reversed $37 $-1 #
coedge $-1 $61 $164 $62 $108 reversed $37 $-1 #
edge $-1 $167 -29.041105897049391 $112 -3.7095324324518089 $104 $168 forward 7 unknown #
edge $-1 $112 51.699805971869424 $169 61.911428918590929 $62 $170 forward 7 unknown #
coedge $-1 $171 $172 $63 $110 forward $102 $-1 #
edge $-1 $113 44.006268784719822 $169 51.099858223965143 $109 $173 forward 7 unknown #
coedge $-1 $174 $64 $172 $175 forward $59 $-1 #
vertex $-1 $107 $176 #
vertex $-1 $175 $177 #
straight-curve $-1 20.084851597202409 24.759080211243884 13.240849378206775 0 1 0 I I #
face $-1 $178 $179 $14 $-1 $180 forward single #
loop $-1 $181 $72 $66 #
plane-surface $-1 32.7506383295012 -13.579639969778746 49.154552769578871 0 0.69465837861970381 0.71933979245794832 1 0 0 forward_v I I I I #
coedge $-1 $182 $183 $184 $185 reversed $67 $-1 #
coedge $-1 $119 $119 $-1 $186 forward $69 $-1 #
edge $-1 $187 0 $187 6.2831853071796004 $70 $188 forward 7 unknown #
vertex $-1 $73 $189 #
ellipse-curve $-1 27.32244401565886 27.282901093718735 9.6940546585841201 0 -0.69465837861970381 -0.71933979245794832 2.5 0 0 1 I I #
face $-1 $190 $191 $15 $-1 $192 forward single #
loop $-1 $193 $194 $74 #
cone-surface $-1 27.32244401565886 24.344828143191311 6.6515911232587293 0 -0.69465837861970381 -0.71933979245794832 1.25 0 0 1 I I -0.70710678118654746 0.70710678118654746 1.25 forward I I I I #
loop $-1 $-1 $195 $45 #
coedge $-1 $127 $127 $196 $197 reversed $75 $-1 #
coedge $-1 $128 $128 $-1 $198 forward $77 $-1 #
edge $-1 $199 0 $199 6.2831853071796004 $78 $200 forward 7 unknown #
loop $-1 $201 $80 $190 #
vertex $-1 $81 $202 #
ellipse-curve $-1 38.17883264334354 27.282901093718735 9.6940546585841201 0 -0.69465837861970381 -0.71933979245794832 2.5 0 0 1 I I #
face $-1 $-1 $97 $12 $-1 $203 reversed single #
loop $-1 $-1 $149 $82 #
plane-surface $-1 0 30.955714459295468 0 0 -1 0 0 0 -1 forward_v I I I I #
coedge $-1 $204 $147 $150 $205 forward $83 $-1 #
coedge $-1 $153 $85 $86 $141 reversed $51 $-1 #
coedge $-1 $147 $204 $85 $139 reversed $83 $-1 #
edge $-1 $154 -13.240849378206779 $206 13.240849378206779 $138 $207 forward 7 unknown #
coedge $-1 $87 $86 $204 $208 forward $33 $-1 #
edge $-1 $145 -45.416425061799984 $206 45.416425061799984 $137 $209 forward 7 unknown #
coedge $-1 $150 $149 $87 $143 reversed $134 $-1 #
edge $-1 $210 -45.416425061799984 $144 45.416425061799984 $142 $211 forward 7 unknown #
vertex $-1 $89 $212 #
vertex $-1 $156 $213 #
straight-curve $-1 45.416425061799984 0 -13.240849378206779 0 -1 0 I I #
coedge $-1 $136 $138 $90 $148 reversed $83 $-1 #
edge $-1 $151 -30.955714459295468 $154 30.955714459295468 $147 $214 forward 7 unknown #
coedge $-1 $142 $91 $96 $157 forward $134 $-1 #
coedge $-1 $91 $142 $136 $205 reversed $134 $-1 #
vertex $-1 $92 $215 #
straight-curve $-1 0 30.955714459295468 13.240849378206779 -1 0 0 I I #
coedge $-1 $93 $137 $95 $156 reversed $51 $-1 #
vertex $-1 $148 $216 #
straight-curve $-1 0 -30.955714459295468 13.240849378206779 1 0 0 I I #
edge $-1 $98 -13.240849378206779 $145 13.240849378206779 $95 $217 forward 7 unknown #
edge $-1 $99 -13.240849378206779 $144 13.240849378206779 $96 $218 forward 7 unknown #
point $-1 45.416425061799984 -30.955714459295468 13.240849378206779 #
point $-1 45.416425061799984 30.955714459295468 13.240849378206779 #
face $-1 $219 $220 $13 $-1 $221 reversed single #
loop $-1 $-1 $222 $101 #
plane-surface $-1 0 0 -13.240849378206779 0 0 1 1 0 0 forward_v I I I I #
coedge $-1 $104 $223 $224 $225 forward $59 $-1 #
coedge $-1 $106 $105 $171 $226 reversed $37 $-1 #
coedge $-1 $224 $227 $105 $166 forward $228 $-1 #
edge $-1 $229 -39.954430255487608 $167 -29.742807308766107 $165 $230 forward 7 unknown #
vertex $-1 $166 $231 #
straight-curve $-1 16.3753191647506 23.610087728142002 13.240849378206775 -1 0 0 I I #
vertex $-1 $226 $232 #
straight-curve $-1 20.084851597202409 -13.579639969778746 49.154552769578871 0 0.71933979245794832 -0.69465837861970381 I I #
coedge $-1 $233 $109 $164 $226 forward $102 $-1 #
coedge $-1 $109 $234 $111 $175 reversed $102 $-1 #
straight-curve $-1 20.084851597202409 30.955714459295468 57.247118162926597 0 0 -1 I I #
coedge $-1 $223 $111 $235 $236 forward $59 $-1 #
edge $-1 $113 -20.084851597202409 $237 45.416425061799984 $172 $238 forward 7 unknown #
point $-1 20.084851597202409 23.610087728142005 13.240849378206775 #
point $-1 20.084851597202409 30.955714459295468 13.240849378206779 #
face $-1 $239 $240 $14 $-1 $241 reversed single #
loop $-1 $-1 $242 $115 #
plane-surface $-1 0 0 13.240849378206779 0 0 1 1 0 0 forward_v I I I I #
loop $-1 $-1 $243 $66 #
coedge $-1 $183 $118 $244 $245 forward $67 $-1 #
coedge $-1 $118 $182 $246 $247 reversed $67 $-1 #
coedge $-1 $248 $242 $118 $185 forward $179 $-1 #
edge $-1 $249 -1.1489924831018783 $250 6.1966342480515841 $184 $251 forward 7 unknown #
edge $-1 $252 1 $252 0 $119 $-1 forward 7 unknown #
vertex $-1 $120 $253 #
ellipse-curve $-1 27.32244401565886 25.213151116465941 7.550765863831165 0 0.69465837861970381 0.71933979245794832 2.5 0 0 1 I I #
point $-1 29.82244401565886 27.282901093718717 9.6940546585841023 #
face $-1 $254 $130 $15 $-1 $255 forward single #
loop $-1 $-1 $256 $123 #
plane-surface $-1 20.084851597202409 49.518160422487767 114.49423632585319 1 0 0 0 -0.69465837861970381 -0.71933979245794832 forward_v I I I I #
loop $-1 $-1 $257 $74 #
coedge $-1 $194 $194 $195 $258 forward $124 $-1 #
coedge $-1 $195 $195 $194 $258 reversed $126 $-1 #
coedge $-1 $196 $196 $127 $197 forward $201 $-1 #
edge $-1 $259 1.7537199311053534e-016 $259 6.2831853071796004 $196 $260 forward 7 unknown #
edge $-1 $261 1 $261 0 $128 $-1 forward 7 unknown #
vertex $-1 $129 $262 #
ellipse-curve $-1 38.17883264334354 25.213151116465941 7.550765863831165 0 0.69465837861970381 0.71933979245794832 2.5 0 0 1 I I #
loop $-1 $263 $196 $190 #
point $-1 40.67883264334354 27.282901093718717 9.6940546585841023 #
plane-surface $-1 45.416425061799984 0 0 -1 0 0 0 0 1 forward_v I I I I #
coedge $-1 $138 $136 $140 $208 reversed $83 $-1 #
edge $-1 $151 -13.240849378206779 $210 13.240849378206779 $150 $264 forward 7 unknown #
vertex $-1 $208 $265 #
straight-curve $-1 -45.416425061799984 -30.955714459295468 0 0 0 -1 I I #
edge $-1 $206 -30.955714459295468 $210 30.955714459295468 $204 $266 forward 7 unknown #
straight-curve $-1 0 -30.955714459295468 -13.240849378206779 -1 0 0 I I #
vertex $-1 $143 $267 #
straight-curve $-1 0 30.955714459295468 -13.240849378206779 1 0 0 I I #
point $-1 45.416425061799984 30.955714459295468 -13.240849378206779 #
point $-1 45.416425061799984 -30.955714459295468 -13.240849378206779 #
straight-curve $-1 -45.416425061799984 0 13.240849378206779 0 -1 0 I I #
point $-1 -45.416425061799984 30.955714459295468 13.240849378206779 #
point $-1 -45.416425061799984 -30.955714459295468 13.240849378206779 #
straight-curve $-1 45.416425061799984 -30.955714459295468 0 0 0 -1 I I #
straight-curve $-1 45.416425061799984 30.955714459295468 0 0 0 -1 I I #
face $-1 $268 $269 $13 $-1 $270 reversed single #
loop $-1 $-1 $271 $160 #
plane-surface $-1 0 -30.955714459295468 0 0 1 0 0 0 1 forward_v I I I I #
coedge $-1 $272 $273 $274 $275 forward $161 $-1 #
coedge $-1 $163 $174 $276 $277 forward $59 $-1 #
coedge $-1 $278 $165 $163 $225 reversed $228 $-1 #
edge $-1 $279 -30.955714459295468 $167 23.610087728142005 $224 $280 forward 7 unknown #
edge $-1 $169 3.7095324324518089 $229 29.041105897049391 $171 $281 forward 7 unknown #
coedge $-1 $165 $274 $233 $282 reversed $228 $-1 #
loop $-1 $-1 $165 $268 #
vertex $-1 $282 $283 #
straight-curve $-1 45.416425061799984 2.2149028915374434 33.901939678912512 0 -0.71933979245794832 0.69465837861970381 I I #
point $-1 45.416425061799991 23.610087728142005 13.240849378206775 #
point $-1 20.084851597202409 30.955714459295471 6.1472599389614544 #
coedge $-1 $284 $171 $227 $282 forward $102 $-1 #
coedge $-1 $172 $284 $285 $286 reversed $102 $-1 #
coedge $-1 $285 $287 $174 $236 reversed $269 $-1 #
edge $-1 $237 -30.955714459295468 $288 30.955714459295468 $235 $289 forward 7 unknown #
vertex $-1 $175 $290 #
straight-curve $-1 0 30.955714459295468 13.240849378206779 -1 0 0 I I #
face $-1 $291 $292 $14 $-1 $293 reversed single #
loop $-1 $-1 $246 $178 #
plane-surface $-1 0 30.955714459295468 0 0 -1 0 0 0 -1 forward_v I I I I #
coedge $-1 $184 $294 $243 $295 forward $179 $-1 #
coedge $-1 $296 $244 $242 $295 reversed $181 $-1 #
coedge $-1 $243 $297 $182 $245 reversed $181 $-1 #
edge $-1 $249 51.699805971869424 $298 61.911428918590929 $182 $299 forward 7 unknown #
coedge $-1 $300 $301 $183 $247 forward $240 $-1 #
edge $-1 $250 44.006268784719822 $298 51.099858223965143 $246 $302 forward 7 unknown #
coedge $-1 $303 $184 $301 $304 forward $179 $-1 #
vertex $-1 $295 $305 #
vertex $-1 $304 $306 #
straight-curve $-1 20.084851597202409 24.759080211243884 13.240849378206775 0 1 0 I I #
vertex $-1 $186 $307 #
point $-1 29.82244401565886 25.213151116465941 7.550765863831165 #
face $-1 $308 $309 $15 $-1 $310 forward single #
plane-surface $-1 32.7506383295012 -13.579639969778746 49.154552769578871 0 0.69465837861970381 0.71933979245794832 1 0 0 forward_v I I I I #
coedge $-1 $311 $312 $313 $314 reversed $191 $-1 #
coedge $-1 $257 $257 $-1 $315 forward $193 $-1 #
edge $-1 $316 0 $316 6.2831853071796004 $194 $317 forward 7 unknown #
vertex $-1 $197 $318 #
ellipse-curve $-1 27.32244401565886 27.282901093718735 9.6940546585841201 0 -0.69465837861970381 -0.71933979245794832 2.5 0 0 1 I I #
vertex $-1 $198 $319 #
point $-1 40.67883264334354 25.213151116465941 7.550765863831165 #
loop $-1 $-1 $320 $190 #
straight-curve $-1 -45.416425061799984 30.955714459295468 0 0 0 -1 I I #
point $-1 -45.416425061799984 -30.955714459295468 -13.240849378206779 #
straight-curve $-1 -45.416425061799984 0 -13.240849378206779 0 1 0 I I #
point $-1 -45.416425061799984 30.955714459295468 -13.240849378206779 #
face $-1 $-1 $228 $13 $-1 $321 reversed single #
loop $-1 $-1 $285 $219 #
plane-surface $-1 -45.416425061799984 0 0 1 0 0 0 0 -1 forward_v I I I I #
coedge $-1 $322 $276 $287 $323 forward $220 $-1 #
coedge $-1 $324 $222 $322 $325 forward $161 $-1 #
coedge $-1 $222 $324 $284 $326 forward $161 $-1 #
coedge $-1 $227 $278 $222 $275 reversed $228 $-1 #
edge $-1 $327 -30.955714459295468 $328 30.955714459295468 $274 $329 forward 7 unknown #
coedge $-1 $271 $330 $223 $277 reversed $220 $-1 #
edge $-1 $288 -45.416425061799984 $279 45.416425061799984 $276 $331 forward 7 unknown #
coedge $-1 $274 $224 $330 $332 forward $228 $-1 #
vertex $-1 $225 $333 #
straight-curve $-1 45.416425061799984 0 13.240849378206779 0 1 0 I I #
straight-curve $-1 16.3753191647506 30.955714459295464 6.1472599389614615 1 0 0 I I #
edge $-1 $229 -6.1472599389614544 $327 13.240849378206779 $227 $334 forward 7 unknown #
point $-1 45.416425061799991 30.955714459295471 6.1472599389614544 #
coedge $-1 $234 $233 $273 $326 reversed $102 $-1 #
coedge $-1 $335 $235 $234 $286 forward $269 $-1 #
edge $-1 $237 -13.240849378206779 $336 13.240849378206779 $234 $337 forward 7 unknown #
coedge $-1 $235 $335 $271 $323 reversed $269 $-1 #
vertex $-1 $236 $338 #
straight-curve $-1 -45.416425061799984 0 13.240849378206779 0 -1 0 I I #
point $-1 -45.416425061799984 30.955714459295468 13.240849378206779 #
face $-1 $339 $340 $14 $-1 $341 reversed single #
loop $-1 $-1 $342 $239 #
plane-surface $-1 0 0 -13.240849378206779 0 0 1 1 0 0 forward_v I I I I #
coedge $-1 $242 $343 $344 $345 forward $179 $-1 #
edge $-1 $346 -29.041105897049391 $249 -3.7095324324518089 $242 $347 forward 7 unknown #
coedge $-1 $297 $243 $348 $349 reversed $181 $-1 #
coedge $-1 $244 $296 $300 $350 reversed $181 $-1 #
vertex $-1 $350 $351 #
straight-curve $-1 20.084851597202409 -13.579639969778746 49.154552769578871 0 0.71933979245794832 -0.69465837861970381 I I #
coedge $-1 $352 $246 $297 $350 forward $240 $-1 #
coedge $-1 $246 $353 $248 $304 reversed $240 $-1 #
straight-curve $-1 20.084851597202409 30.955714459295468 57.247118162926597 0 0 -1 I I #
coedge $-1 $343 $248 $354 $355 forward $179 $-1 #
edge $-1 $250 -20.084851597202409 $356 45.416425061799984 $301 $357 forward 7 unknown #
point $-1 20.084851597202409 23.610087728142005 13.240849378206775 #
point $-1 20.084851597202409 30.955714459295468 13.240849378206779 #
point $-1 27.32244401565886 23.476505169916681 5.7524163826862935 #
face $-1 $358 $359 $15 $-1 $360 reversed single #
loop $-1 $-1 $361 $254 #
plane-surface $-1 0 0 13.240849378206779 0 0 1 1 0 0 forward_v I I I I #
coedge $-1 $312 $256 $362 $363 forward $191 $-1 #
coedge $-1 $256 $311 $364 $365 reversed $191 $-1 #
coedge $-1 $366 $361 $256 $314 forward $309 $-1 #
edge $-1 $367 -1.1489924831018783 $368 6.1966342480515841 $313 $369 forward 7 unknown #
edge $-1 $370 1 $370 0 $257 $-1 forward 7 unknown #
vertex $-1 $258 $371 #
ellipse-curve $-1 27.32244401565886 25.213151116465941 7.550765863831165 0 0.69465837861970381 0.71933979245794832 2.5 0 0 1 I I #
point $-1 29.82244401565886 27.282901093718717 9.6940546585841023 #
point $-1 38.17883264334354 23.476505169916681 5.7524163826862935 #
coedge $-1 $372 $362 $361 $373 reversed $263 $-1 #
plane-surface $-1 45.416425061799984 0 0 -1 0 0 0 0 1 forward_v I I I I #
coedge $-1 $330 $271 $272 $325 reversed $220 $-1 #
edge $-1 $288 -13.240849378206779 $374 13.240849378206779 $287 $375 forward 7 unknown #
coedge $-1 $273 $272 $335 $376 forward $161 $-1 #
edge $-1 $328 -45.416425061799984 $374 45.416425061799984 $322 $377 forward 7 unknown #
edge $-1 $336 -45.416425061799984 $327 45.416425061799984 $284 $378 forward 7 unknown #
vertex $-1 $275 $379 #
vertex $-1 $332 $380 #
straight-curve $-1 45.416425061799984 0 -13.240849378206779 0 -1 0 I I #
coedge $-1 $276 $322 $278 $332 reversed $220 $-1 #
straight-curve $-1 0 -30.955714459295468 13.240849378206779 1 0 0 I I #
edge $-1 $279 -13.240849378206779 $328 13.240849378206779 $278 $381 forward 7 unknown #
point $-1 45.416425061799984 -30.955714459295468 13.240849378206779 #
straight-curve $-1 45.416425061799984 30.955714459295468 0 0 0 -1 I I #
coedge $-1 $287 $285 $324 $376 reversed $269 $-1 #
vertex $-1 $326 $382 #
straight-curve $-1 -45.416425061799984 30.955714459295468 0 0 0 -1 I I #
point $-1 -45.416425061799984 -30.955714459295468 13.240849378206779 #
face $-1 $383 $384 $14 $-1 $385 reversed single #
loop $-1 $-1 $386 $291 #
plane-surface $-1 0 -30.955714459295468 0 0 1 0 0 0 1 forward_v I I I I #
coedge $-1 $387 $388 $389 $390 forward $292 $-1 #
coedge $-1 $294 $303 $391 $392 forward $179 $-1 #
coedge $-1 $393 $348 $294 $345 reversed $394 $-1 #
edge $-1 $395 -30.955714459295468 $346 23.610087728142005 $344 $396 forward 7 unknown #
vertex $-1 $349 $397 #
straight-curve $-1 16.3753191647506 23.610087728142002 13.240849378206775 -1 0 0 I I #
coedge $-1 $344 $398 $296 $349 forward $394 $-1 #
edge $-1 $399 -39.954430255487608 $346 -29.742807308766107 $348 $400 forward 7 unknown #
edge $-1 $298 3.7095324324518089 $399 29.041105897049391 $300 $401 forward 7 unknown #
point $-1 20.084851597202409 30.955714459295471 6.1472599389614544 #
coedge $-1 $402 $300 $398 $403 forward $240 $-1 #
coedge $-1 $301 $402 $404 $405 reversed $240 $-1 #
coedge $-1 $404 $406 $303 $355 reversed $384 $-1 #
edge $-1 $356 -30.955714459295468 $407 30.955714459295468 $354 $408 forward 7 unknown #
vertex $-1 $304 $409 #
straight-curve $-1 0 30.955714459295468 13.240849378206779 -1 0 0 I I #
face $-1 $410 $411 $15 $-1 $412 reversed single #
loop $-1 $-1 $364 $308 #
plane-surface $-1 0 30.955714459295468 0 0 -1 0 0 0 -1 forward_v I I I I #
coedge $-1 $313 $413 $320 $373 forward $309 $-1 #
coedge $-1 $320 $414 $311 $363 reversed $263 $-1 #
edge $-1 $367 51.699805971869424 $415 61.911428918590929 $311 $416 forward 7 unknown #
coedge $-1 $417 $418 $312 $365 forward $359 $-1 #
edge $-1 $368 44.006268784719822 $415 51.099858223965143 $364 $419 forward 7 unknown #
coedge $-1 $420 $313 $418 $421 forward $309 $-1 #
vertex $-1 $373 $422 #
vertex $-1 $421 $423 #
straight-curve $-1 20.084851597202409 24.759080211243884 13.240849378206775 0 1 0 I I #
vertex $-1 $315 $424 #
point $-1 29.82244401565886 25.213151116465941 7.550765863831165 #
coedge $-1 $414 $320 $425 $426 reversed $263 $-1 #
edge $-1 $427 -29.041105897049391 $367 -3.7095324324518089 $361 $428 forward 7 unknown #
vertex $-1 $376 $429 #
straight-curve $-1 -45.416425061799984 -30.955714459295468 0 0 0 -1 I I #
edge $-1 $374 -30.955714459295468 $336 30.955714459295468 $335 $430 forward 7 unknown #
straight-curve $-1 0 -30.955714459295468 -13.240849378206779 -1 0 0 I I #
straight-curve $-1 0 30.955714459295468 -13.240849378206779 1 0 0 I I #
point $-1 45.416425061799984 30.955714459295468 -13.240849378206779 #
point $-1 45.416425061799984 -30.955714459295468 -13.240849378206779 #
straight-curve $-1 45.416425061799984 -30.955714459295468 0 0 0 -1 I I #
point $-1 -45.416425061799984 30.955714459295468 -13.240849378206779 #
face $-1 $-1 $394 $14 $-1 $431 reversed single #
loop $-1 $-1 $404 $339 #
plane-surface $-1 -45.416425061799984 0 0 1 0 0 0 0 -1 forward_v I I I I #
coedge $-1 $432 $391 $406 $433 forward $340 $-1 #
coedge $-1 $434 $342 $432 $435 forward $292 $-1 #
coedge $-1 $342 $434 $402 $436 forward $292 $-1 #
coedge $-1 $398 $393 $342 $390 reversed $394 $-1 #
edge $-1 $437 -30.955714459295468 $438 30.955714459295468 $389 $439 forward 7 unknown #
coedge $-1 $386 $440 $343 $392 reversed $340 $-1 #
edge $-1 $407 -45.416425061799984 $395 45.416425061799984 $391 $441 forward 7 unknown #
coedge $-1 $389 $344 $440 $442 forward $394 $-1 #
loop $-1 $-1 $348 $383 #
vertex $-1 $345 $443 #
straight-curve $-1 45.416425061799984 0 13.240849378206779 0 1 0 I I #
point $-1 45.416425061799991 23.610087728142005 13.240849378206775 #
coedge $-1 $348 $389 $352 $403 reversed $394 $-1 #
vertex $-1 $403 $444 #
straight-curve $-1 45.416425061799984 2.2149028915374434 33.901939678912512 0 -0.71933979245794832 0.69465837861970381 I I #
straight-curve $-1 16.3753191647506 30.955714459295464 6.1472599389614615 1 0 0 I I #
coedge $-1 $353 $352 $388 $436 reversed $240 $-1 #
edge $-1 $399 -6.1472599389614544 $437 13.240849378206779 $398 $445 forward 7 unknown #
coedge $-1 $446 $354 $353 $405 forward $384 $-1 #
edge $-1 $356 -13.240849378206779 $447 13.240849378206779 $353 $448 forward 7 unknown #
coedge $-1 $354 $446 $386 $433 reversed $384 $-1 #
vertex $-1 $355 $449 #
straight-curve $-1 -45.416425061799984 0 13.240849378206779 0 -1 0 I I #
point $-1 -45.416425061799984 30.955714459295468 13.240849378206779 #
face $-1 $450 $451 $15 $-1 $452 reversed single #
loop $-1 $-1 $453 $358 #
plane-surface $-1 0 0 -13.240849378206779 0 0 1 1 0 0 forward_v I I I I #
coedge $-1 $361 $454 $455 $456 forward $309 $-1 #
coedge $-1 $362 $372 $417 $457 reversed $263 $-1 #
vertex $-1 $457 $458 #
straight-curve $-1 20.084851597202409 -13.579639969778746 49.154552769578871 0 0.71933979245794832 -0.69465837861970381 I I #
coedge $-1 $459 $364 $414 $457 forward $359 $-1 #
coedge $-1 $364 $460 $366 $421 reversed $359 $-1 #
straight-curve $-1 20.084851597202409 30.955714459295468 57.247118162926597 0 0 -1 I I #
coedge $-1 $454 $366 $461 $462 forward $309 $-1 #
edge $-1 $368 -20.084851597202409 $463 45.416425061799984 $418 $464 forward 7 unknown #
point $-1 20.084851597202409 23.610087728142005 13.240849378206775 #
point $-1 20.084851597202409 30.955714459295468 13.240849378206779 #
point $-1 27.32244401565886 23.476505169916681 5.7524163826862935 #
coedge $-1 $455 $465 $372 $426 forward $466 $-1 #
edge $-1 $467 -39.954430255487608 $427 -29.742807308766107 $425 $468 forward 7 unknown #
vertex $-1 $426 $469 #
straight-curve $-1 16.3753191647506 23.610087728142002 13.240849378206775 -1 0 0 I I #
point $-1 -45.416425061799984 -30.955714459295468 -13.240849378206779 #
straight-curve $-1 -45.416425061799984 0 -13.240849378206779 0 1 0 I I #
plane-surface $-1 45.416425061799984 0 0 -1 0 0 0 0 1 forward_v I I I I #
coedge $-1 $440 $386 $387 $435 reversed $340 $-1 #
edge $-1 $407 -13.240849378206779 $470 13.240849378206779 $406 $471 forward 7 unknown #
coedge $-1 $388 $387 $446 $472 forward $292 $-1 #
edge $-1 $438 -45.416425061799984 $470 45.416425061799984 $432 $473 forward 7 unknown #
edge $-1 $447 -45.416425061799984 $437 45.416425061799984 $402 $474 forward 7 unknown #
vertex $-1 $390 $475 #
vertex $-1 $442 $476 #
straight-curve $-1 45.416425061799984 0 -13.240849378206779 0 -1 0 I I #
coedge $-1 $391 $432 $393 $442 reversed $340 $-1 #
straight-curve $-1 0 -30.955714459295468 13.240849378206779 1 0 0 I I #
edge $-1 $395 -13.240849378206779 $438 13.240849378206779 $393 $477 forward 7 unknown #
point $-1 45.416425061799984 -30.955714459295468 13.240849378206779 #
point $-1 45.416425061799991 30.955714459295471 6.1472599389614544 #
straight-curve $-1 45.416425061799984 30.955714459295468 0 0 0 -1 I I #
coedge $-1 $406 $404 $434 $472 reversed $384 $-1 #
vertex $-1 $436 $478 #
straight-curve $-1 -45.416425061799984 30.955714459295468 0 0 0 -1 I I #
point $-1 -45.416425061799984 -30.955714459295468 13.240849378206779 #
face $-1 $479 $480 $15 $-1 $481 reversed single #
loop $-1 $-1 $482 $410 #
plane-surface $-1 0 -30.955714459295468 0 0 1 0 0 0 1 forward_v I I I I #
coedge $-1 $483 $484 $485 $486 forward $411 $-1 #
coedge $-1 $413 $420 $487 $488 forward $309 $-1 #
coedge $-1 $489 $425 $413 $456 reversed $466 $-1 #
edge $-1 $490 -30.955714459295468 $427 23.610087728142005 $455 $491 forward 7 unknown #
edge $-1 $415 3.7095324324518089 $467 29.041105897049391 $417 $492 forward 7 unknown #
point $-1 20.084851597202409 30.955714459295471 6.1472599389614544 #
coedge $-1 $493 $417 $465 $494 forward $359 $-1 #
coedge $-1 $418 $493 $495 $496 reversed $359 $-1 #
coedge $-1 $495 $497 $420 $462 reversed $480 $-1 #
edge $-1 $463 -30.955714459295468 $498 30.955714459295468 $461 $499 forward 7 unknown #
vertex $-1 $421 $500 #
straight-curve $-1 0 30.955714459295468 13.240849378206779 -1 0 0 I I #
coedge $-1 $425 $485 $459 $494 reversed $466 $-1 #
loop $-1 $-1 $425 $479 #
vertex $-1 $494 $501 #
straight-curve $-1 45.416425061799984 2.2149028915374434 33.901939678912512 0 -0.71933979245794832 0.69465837861970381 I I #
point $-1 45.416425061799991 23.610087728142005 13.240849378206775 #
vertex $-1 $472 $502 #
straight-curve $-1 -45.416425061799984 -30.955714459295468 0 0 0 -1 I I #
edge $-1 $470 -30.955714459295468 $447 30.955714459295468 $446 $503 forward 7 unknown #
straight-curve $-1 0 -30.955714459295468 -13.240849378206779 -1 0 0 I I #
straight-curve $-1 0 30.955714459295468 -13.240849378206779 1 0 0 I I #
point $-1 45.416425061799984 30.955714459295468 -13.240849378206779 #
point $-1 45.416425061799984 -30.955714459295468 -13.240849378206779 #
straight-curve $-1 45.416425061799984 -30.955714459295468 0 0 0 -1 I I #
point $-1 -45.416425061799984 30.955714459295468 -13.240849378206779 #
face $-1 $-1 $466 $15 $-1 $504 reversed single #
loop $-1 $-1 $495 $450 #
plane-surface $-1 -45.416425061799984 0 0 1 0 0 0 0 -1 forward_v I I I I #
coedge $-1 $505 $487 $497 $506 forward $451 $-1 #
coedge $-1 $507 $453 $505 $508 forward $411 $-1 #
coedge $-1 $453 $507 $493 $509 forward $411 $-1 #
coedge $-1 $465 $489 $453 $486 reversed $466 $-1 #
edge $-1 $510 -30.955714459295468 $511 30.955714459295468 $485 $512 forward 7 unknown #
coedge $-1 $482 $513 $454 $488 reversed $451 $-1 #
edge $-1 $498 -45.416425061799984 $490 45.416425061799984 $487 $514 forward 7 unknown #
coedge $-1 $485 $455 $513 $515 forward $466 $-1 #
vertex $-1 $456 $516 #
straight-curve $-1 45.416425061799984 0 13.240849378206779 0 1 0 I I #
straight-curve $-1 16.3753191647506 30.955714459295464 6.1472599389614615 1 0 0 I I #
coedge $-1 $460 $459 $484 $509 reversed $359 $-1 #
edge $-1 $467 -6.1472599389614544 $510 13.240849378206779 $465 $517 forward 7 unknown #
coedge $-1 $518 $461 $460 $496 forward $480 $-1 #
edge $-1 $463 -13.240849378206779 $519 13.240849378206779 $460 $520 forward 7 unknown #
coedge $-1 $461 $518 $482 $506 reversed $480 $-1 #
vertex $-1 $462 $521 #
straight-curve $-1 -45.416425061799984 0 13.240849378206779 0 -1 0 I I #
point $-1 -45.416425061799984 30.955714459295468 13.240849378206779 #
point $-1 45.416425061799991 30.955714459295471 6.1472599389614544 #
point $-1 -45.416425061799984 -30.955714459295468 -13.240849378206779 #
straight-curve $-1 -45.416425061799984 0 -13.240849378206779 0 1 0 I I #
plane-surface $-1 45.416425061799984 0 0 -1 0 0 0 0 1 forward_v I I I I #
coedge $-1 $513 $482 $483 $508 reversed $451 $-1 #
edge $-1 $498 -13.240849378206779 $522 13.240849378206779 $497 $523 forward 7 unknown #
coedge $-1 $484 $483 $518 $524 forward $411 $-1 #
edge $-1 $511 -45.416425061799984 $522 45.416425061799984 $505 $525 forward 7 unknown #
edge $-1 $519 -45.416425061799984 $510 45.416425061799984 $493 $526 forward 7 unknown #
vertex $-1 $486 $527 #
vertex $-1 $515 $528 #
straight-curve $-1 45.416425061799984 0 -13.240849378206779 0 -1 0 I I #
coedge $-1 $487 $505 $489 $515 reversed $451 $-1 #
straight-curve $-1 0 -30.955714459295468 13.240849378206779 1 0 0 I I #
edge $-1 $490 -13.240849378206779 $511 13.240849378206779 $489 $529 forward 7 unknown #
point $-1 45.416425061799984 -30.955714459295468 13.240849378206779 #
straight-curve $-1 45.416425061799984 30.955714459295468 0 0 0 -1 I I #
coedge $-1 $497 $495 $507 $524 reversed $480 $-1 #
vertex $-1 $509 $530 #
straight-curve $-1 -45.416425061799984 30.955714459295468 0 0 0 -1 I I #
point $-1 -45.416425061799984 -30.955714459295468 13.240849378206779 #
vertex $-1 $524 $531 #
straight-curve $-1 -45.416425061799984 -30.955714459295468 0 0 0 -1 I I #
edge $-1 $522 -30.955714459295468 $519 30.955714459295468 $518 $532 forward 7 unknown #
straight-curve $-1 0 -30.955714459295468 -13.240849378206779 -1 0 0 I I #
straight-curve $-1 0 30.955714459295468 -13.240849378206779 1 0 0 I I #
point $-1 45.416425061799984 30.955714459295468 -13.240849378206779 #
point $-1 45.416425061799984 -30.955714459295468 -13.240849378206779 #
straight-curve $-1 45.416425061799984 -30.955714459295468 0 0 0 -1 I I #
point $-1 -45.416425061799984 30.955714459295468 -13.240849378206779 #
point $-1 -45.416425061799984 -30.955714459295468 -13.240849378206779 #
straight-curve $-1 -45.416425061799984 0 -13.240849378206779 0 1 0 I I #
End-of-ACIS-data 