500 0 7 0           
7 Unknown 11 ACIS 5.0 NT 24 Fri Mar 26 18:34:30 1999 
-1 9.9999999999999995e-007 1e-010 
body $-1 $7 $-1 $8 #
body $-1 $9 $-1 $10 #
body $-1 $11 $-1 $12 #
body $-1 $13 $-1 $14 #
body $-1 $15 $-1 $16 #
body $-1 $17 $-1 $18 #
body $-1 $19 $-1 $20 #
lump $-1 $-1 $21 $0 #
transform $-1 1 0 0 0 1 0 0 0 1 50.393383587145607 29.781263969032292 8.6970706784163951 1 rotate no_reflect no_shear #
lump $-1 $-1 $22 $1 #
transform $-1 1 0 0 0 1 0 0 0 1 50.393383587145607 29.781263969032292 8.6970706784163951 1 rotate no_reflect no_shear #
lump $-1 $-1 $23 $2 #
transform $-1 1 0 0 0 1 0 0 0 1 50.393383587145607 29.781263969032292 8.6970706784163951 1 rotate no_reflect no_shear #
lump $-1 $-1 $24 $3 #
transform $-1 1 0 0 0 1 0 0 0 1 50.393383587145607 29.781263969032292 8.6970706784163951 1 rotate no_reflect no_shear #
lump $-1 $-1 $25 $4 #
transform $-1 1 0 0 0 1 0 0 0 1 50.393383587145607 29.781263969032292 8.6970706784163951 1 rotate no_reflect no_shear #
lump $-1 $-1 $26 $5 #
transform $-1 1 0 0 0 1 0 0 0 1 50.393383587145607 29.781263969032292 8.6970706784163951 1 rotate no_reflect no_shear #
lump $-1 $-1 $27 $6 #
transform $-1 1 0 0 0 1 0 0 0 1 50.393383587145607 29.781263969032292 8.6970706784163951 1 rotate no_reflect no_shear #
shell $-1 $-1 $-1 $28 $-1 $7 #
shell $-1 $-1 $-1 $29 $-1 $9 #
shell $-1 $-1 $-1 $30 $-1 $11 #
shell $-1 $-1 $-1 $31 $-1 $13 #
shell $-1 $-1 $-1 $32 $-1 $15 #
shell $-1 $-1 $-1 $33 $-1 $17 #
shell $-1 $-1 $-1 $34 $-1 $19 #
face $-1 $35 $36 $21 $-1 $37 forward single #
face $-1 $38 $39 $22 $-1 $40 forward single #
face $-1 $41 $42 $23 $-1 $43 forward single #
face $-1 $44 $45 $24 $-1 $46 reversed single #
face $-1 $47 $48 $25 $-1 $49 forward single #
face $-1 $50 $51 $26 $-1 $52 reversed single #
face $-1 $53 $54 $27 $-1 $55 forward single #
face $-1 $56 $57 $21 $-1 $58 reversed single #
loop $-1 $-1 $59 $28 #
plane-surface $-1 0 0 8.6970706784163951 0 0 1 1 0 0 forward_v I I I I #
face $-1 $60 $61 $22 $-1 $62 forward single #
loop $-1 $-1 $63 $29 #
plane-surface $-1 0 -29.781263969032292 0 0 1 0 0 0 1 forward_v I I I I #
face $-1 $64 $65 $23 $-1 $66 forward single #
loop $-1 $-1 $67 $30 #
plane-surface $-1 0 29.781263969032292 0 0 -1 0 0 0 -1 forward_v I I I I #
face $-1 $68 $69 $24 $-1 $70 reversed single #
loop $-1 $-1 $71 $31 #
plane-surface $-1 -117.83289503051481 9.8790503823457989 77.578788189593524 0 1 0 -0.66913061440640931 0 0.74314481823134659 forward_v I I I I #
face $-1 $72 $73 $25 $-1 $74 forward single #
loop $-1 $75 $76 $32 #
cone-surface $-1 -45.841288562721942 16.574556461092055 4.3438739017346499 0.66913061440640931 0 -0.74314481823134659 1.4862896364626932 0 1.3382612288128186 1 I I 0 1 2 forward I I I I #
face $-1 $77 $78 $26 $-1 $79 reversed single #
loop $-1 $-1 $80 $33 #
plane-surface $-1 33.022858390472521 -8.6312214565640666 141.91807445550222 0 -1 0 -0.61566148304635926 0 -0.78801074757464917 forward_v I I I I #
face $-1 $81 $82 $27 $-1 $83 forward single #
loop $-1 $84 $85 $34 #
cone-surface $-1 44.349231679365367 -14.241414854853989 3.5938784503400858 -0.61566148304635926 0 -0.78801074757464917 1.5760214951492983 0 -1.2313229660927185 1 I I 0 1 2 forward I I I I #
face $-1 $86 $87 $21 $-1 $88 reversed single #
loop $-1 $-1 $89 $35 #
plane-surface $-1 0 0 -8.6970706784163951 0 0 1 1 0 0 forward_v I I I I #
coedge $-1 $90 $91 $92 $93 forward $36 $-1 #
face $-1 $94 $95 $22 $-1 $96 reversed single #
loop $-1 $-1 $97 $38 #
plane-surface $-1 0 0 8.6970706784163951 0 0 1 1 0 0 forward_v I I I I #
coedge $-1 $98 $99 $100 $101 forward $39 $-1 #
face $-1 $102 $103 $23 $-1 $104 reversed single #
loop $-1 $-1 $105 $41 #
plane-surface $-1 0 0 8.6970706784163951 0 0 1 1 0 0 forward_v I I I I #
coedge $-1 $106 $107 $108 $109 forward $42 $-1 #
face $-1 $110 $111 $24 $-1 $112 reversed single #
loop $-1 $-1 $113 $44 #
plane-surface $-1 -50.393383587145607 16.574556461092055 2.6796244177298263 -0.66913061440640931 0 0.74314481823134659 0.74314481823134659 0 0.66913061440640931 forward_v I I I I #
coedge $-1 $114 $115 $116 $117 reversed $45 $-1 #
face $-1 $-1 $118 $25 $-1 $119 forward single #
loop $-1 $120 $121 $47 #
cone-surface $-1 -43.961588413337466 16.574556461092055 2.2562554371648389 0.66913061440640931 0 -0.74314481823134659 0.74314481823134659 0 0.66913061440640931 1 I I -0.70710678118654746 0.70710678118654746 1 forward I I I I #
loop $-1 $-1 $122 $32 #
coedge $-1 $76 $76 $123 $124 reversed $48 $-1 #
face $-1 $125 $126 $26 $-1 $127 reversed single #
loop $-1 $-1 $128 $50 #
plane-surface $-1 -29.02767215949973 -14.241414854853989 62.497018708856885 0.61566148304635926 0 0.78801074757464917 0.78801074757464917 0 -0.61566148304635926 forward_v I I I I #
coedge $-1 $129 $130 $131 $132 reversed $51 $-1 #
face $-1 $-1 $133 $27 $-1 $134 forward single #
loop $-1 $135 $136 $53 #
cone-surface $-1 42.969550210201447 -14.241414854853989 1.8279667344550035 -0.61566148304635926 0 -0.78801074757464917 0.78801074757464917 0 -0.61566148304635926 1 I I -0.70710678118654746 0.70710678118654746 1 forward I I I I #
loop $-1 $-1 $137 $34 #
coedge $-1 $85 $85 $138 $139 reversed $54 $-1 #
face $-1 $140 $141 $21 $-1 $142 reversed single #
loop $-1 $-1 $143 $56 #
plane-surface $-1 0 -29.781263969032292 0 0 1 0 0 0 1 forward_v I I I I #
coedge $-1 $144 $145 $146 $147 forward $57 $-1 #
coedge $-1 $148 $59 $149 $150 forward $36 $-1 #
coedge $-1 $59 $148 $151 $152 forward $36 $-1 #
coedge $-1 $153 $154 $59 $93 reversed $155 $-1 #
edge $-1 $156 -29.781263969032292 $157 29.781263969032292 $92 $158 forward 7 unknown #
face $-1 $159 $160 $22 $-1 $161 reversed single #
loop $-1 $-1 $162 $60 #
plane-surface $-1 -50.393383587145607 0 0 1 0 0 0 0 -1 forward_v I I I I #
coedge $-1 $163 $164 $99 $165 forward $61 $-1 #
coedge $-1 $166 $63 $167 $168 reversed $39 $-1 #
coedge $-1 $63 $166 $97 $165 reversed $39 $-1 #
coedge $-1 $169 $170 $63 $101 reversed $171 $-1 #
edge $-1 $172 -8.6970706784163951 $173 8.6970706784163951 $100 $174 forward 7 unknown #
face $-1 $175 $176 $23 $-1 $177 reversed single #
loop $-1 $-1 $178 $64 #
plane-surface $-1 -48.893383587145607 36.292465398226256 0 0 -1 0 0 0 -1 forward_v I I I I #
coedge $-1 $179 $180 $106 $181 forward $65 $-1 #
coedge $-1 $182 $67 $105 $181 reversed $42 $-1 #
coedge $-1 $67 $182 $183 $184 reversed $42 $-1 #
coedge $-1 $185 $186 $67 $109 reversed $176 $-1 #
edge $-1 $187 -8.6970706784163951 $188 8.6970706784163951 $108 $189 forward 7 unknown #
face $-1 $190 $191 $24 $-1 $192 reversed single #
loop $-1 $-1 $193 $68 #
plane-surface $-1 -117.83289503051481 23.27006253983831 77.578788189593524 0 -1 0 0.66913061440640931 0 -0.74314481823134659 forward_v I I I I #
coedge $-1 $194 $195 $196 $197 reversed $69 $-1 #
coedge $-1 $115 $71 $198 $199 reversed $45 $-1 #
coedge $-1 $71 $114 $194 $200 reversed $45 $-1 #
coedge $-1 $196 $201 $71 $117 forward $202 $-1 #
edge $-1 $203 8.5230639281117959 $204 15.206114907002984 $116 $205 forward 7 unknown #
loop $-1 $-1 $123 $72 #
plane-surface $-1 -50.393383587145607 16.574556461092055 2.6796244177298263 -0.66913061440640931 0 0.74314481823134659 0.74314481823134659 0 0.66913061440640931 forward_v I I I I #
loop $-1 $-1 $206 $47 #
coedge $-1 $121 $121 $122 $207 reversed $73 $-1 #
coedge $-1 $122 $122 $121 $207 forward $75 $-1 #
coedge $-1 $123 $123 $76 $124 forward $118 $-1 #
edge $-1 $208 0 $208 6.2831853071796004 $123 $209 forward 7 unknown #
face $-1 $210 $211 $26 $-1 $212 forward single #
loop $-1 $-1 $213 $77 #
plane-surface $-1 33.022858390472521 -19.851608253143912 141.91807445550222 0 1 0 0.61566148304635926 0 0.78801074757464917 forward_v I I I I #
coedge $-1 $214 $215 $216 $217 reversed $78 $-1 #
coedge $-1 $130 $80 $218 $219 reversed $51 $-1 #
coedge $-1 $80 $129 $214 $220 reversed $51 $-1 #
coedge $-1 $216 $221 $80 $132 forward $211 $-1 #
edge $-1 $222 -33.881954391909346 $223 -23.321690548583959 $131 $224 forward 7 unknown #
loop $-1 $-1 $138 $81 #
plane-surface $-1 -29.02767215949973 -14.241414854853989 62.497018708856885 0.61566148304635926 0 0.78801074757464917 0.78801074757464917 0 -0.61566148304635926 forward_v I I I I #
loop $-1 $-1 $225 $53 #
coedge $-1 $136 $136 $137 $226 reversed $82 $-1 #
coedge $-1 $137 $137 $136 $226 forward $84 $-1 #
coedge $-1 $138 $138 $85 $139 forward $133 $-1 #
edge $-1 $227 0 $227 6.2831853071796004 $138 $228 forward 7 unknown #
face $-1 $229 $230 $21 $-1 $231 reversed single #
loop $-1 $-1 $232 $86 #
plane-surface $-1 -50.393383587145607 0 0 1 0 0 0 0 -1 forward_v I I I I #
coedge $-1 $233 $151 $234 $235 forward $87 $-1 #
coedge $-1 $236 $89 $233 $237 forward $57 $-1 #
coedge $-1 $89 $236 $238 $239 forward $57 $-1 #
coedge $-1 $154 $153 $89 $147 reversed $155 $-1 #
edge $-1 $240 -29.781263969032292 $241 29.781263969032292 $146 $242 forward 7 unknown #
coedge $-1 $91 $90 $243 $244 forward $36 $-1 #
coedge $-1 $245 $246 $90 $150 reversed $230 $-1 #
edge $-1 $157 -50.393383587145607 $247 50.393383587145607 $149 $248 forward 7 unknown #
coedge $-1 $143 $249 $91 $152 reversed $87 $-1 #
edge $-1 $250 -50.393383587145607 $156 50.393383587145607 $151 $251 forward 7 unknown #
coedge $-1 $146 $92 $249 $252 forward $155 $-1 #
coedge $-1 $92 $146 $245 $253 reversed $155 $-1 #
loop $-1 $-1 $153 $229 #
vertex $-1 $93 $254 #
vertex $-1 $93 $255 #
straight-curve $-1 50.393383587145607 0 8.6970706784163951 0 1 0 I I #
face $-1 $256 $171 $22 $-1 $257 reversed single #
loop $-1 $-1 $258 $94 #
plane-surface $-1 -48.893383587145607 -36.292465398226263 0 0 1 0 0 0 1 forward_v I I I I #
coedge $-1 $259 $260 $166 $261 forward $95 $-1 #
coedge $-1 $262 $97 $260 $263 forward $61 $-1 #
coedge $-1 $97 $262 $169 $264 forward $61 $-1 #
edge $-1 $172 47.393383587145607 $265 50.393383587145607 $97 $266 forward 7 unknown #
coedge $-1 $99 $98 $162 $261 reversed $39 $-1 #
coedge $-1 $267 $268 $98 $168 forward $269 $-1 #
edge $-1 $270 -50.393383587145607 $173 -47.393383587145607 $167 $271 forward 7 unknown #
coedge $-1 $272 $100 $164 $264 reversed $171 $-1 #
coedge $-1 $100 $272 $267 $273 reversed $171 $-1 #
loop $-1 $-1 $272 $159 #
vertex $-1 $165 $274 #
vertex $-1 $273 $275 #
straight-curve $-1 -47.393383587145607 -29.781263969032292 0 0 0 -1 I I #
face $-1 $276 $277 $23 $-1 $278 reversed single #
loop $-1 $-1 $108 $102 #
plane-surface $-1 -47.393383587145607 33.036864683629275 0 -1 0 0 0 0 1 forward_v I I I I #
coedge $-1 $279 $280 $281 $282 forward $103 $-1 #
coedge $-1 $283 $105 $186 $284 forward $65 $-1 #
coedge $-1 $105 $283 $285 $286 forward $65 $-1 #
edge $-1 $287 -50.393383587145607 $188 -47.393383587145607 $105 $288 forward 7 unknown #
coedge $-1 $107 $106 $289 $290 reversed $42 $-1 #
coedge $-1 $291 $292 $107 $184 forward $277 $-1 #
edge $-1 $187 47.393383587145607 $293 50.393383587145607 $183 $294 forward 7 unknown #
coedge $-1 $281 $108 $292 $295 reversed $176 $-1 #
coedge $-1 $108 $281 $179 $284 reversed $176 $-1 #
vertex $-1 $184 $296 #
vertex $-1 $284 $297 #
straight-curve $-1 -47.393383587145607 29.781263969032292 0 0 0 1 I I #
face $-1 $-1 $202 $24 $-1 $298 forward single #
loop $-1 $-1 $299 $110 #
plane-surface $-1 -50.393383587145607 0 0 1 0 0 0 0 -1 forward_v I I I I #
coedge $-1 $300 $301 $302 $303 reversed $111 $-1 #
coedge $-1 $304 $113 $115 $200 forward $69 $-1 #
coedge $-1 $113 $304 $300 $305 forward $69 $-1 #
coedge $-1 $302 $116 $113 $197 forward $202 $-1 #
edge $-1 $204 1.5917721517997716 $306 14.982784309292283 $196 $307 forward 7 unknown #
coedge $-1 $308 $309 $114 $199 forward $191 $-1 #
edge $-1 $310 -36.109769677066936 $203 -30.092323416380367 $198 $311 forward 7 unknown #
edge $-1 $204 -8.9929322185096687 $310 0 $115 $312 forward 7 unknown #
coedge $-1 $116 $302 $308 $313 forward $202 $-1 #
loop $-1 $-1 $302 $190 #
vertex $-1 $199 $314 #
vertex $-1 $117 $315 #
straight-curve $-1 -58.916447515257403 9.8790503823457989 8.6970706784163951 1 0 0 I I #
coedge $-1 $206 $206 $-1 $316 reversed $120 $-1 #
edge $-1 $317 0 $317 6.2831853071796004 $121 $318 forward 7 unknown #
vertex $-1 $124 $319 #
ellipse-curve $-1 -47.051858097700013 16.574556461092055 5.6883475480731134 -0.66913061440640931 0 0.74314481823134659 1.4862896364626932 0 1.3382612288128186 1 I I #
face $-1 $-1 $320 $26 $-1 $321 reversed single #
loop $-1 $-1 $131 $125 #
plane-surface $-1 0 0 8.6970706784163951 0 0 1 1 0 0 forward_v I I I I #
coedge $-1 $322 $323 $324 $325 reversed $126 $-1 #
coedge $-1 $326 $128 $130 $220 forward $78 $-1 #
coedge $-1 $128 $326 $322 $327 forward $78 $-1 #
coedge $-1 $324 $131 $128 $217 forward $211 $-1 #
edge $-1 $223 1.510514029137072 $328 12.730900825716917 $216 $329 forward 7 unknown #
coedge $-1 $330 $331 $129 $219 forward $320 $-1 #
edge $-1 $332 -70.512549068866491 $222 -62.261966549334716 $218 $333 forward 7 unknown #
edge $-1 $223 87.385599898555554 $332 100.78676717429121 $130 $334 forward 7 unknown #
coedge $-1 $131 $324 $330 $335 forward $211 $-1 #
vertex $-1 $132 $336 #
vertex $-1 $132 $337 #
straight-curve $-1 16.511429195236261 -8.6312214565640666 8.6970706784163951 -1 0 0 I I #
coedge $-1 $225 $225 $-1 $338 reversed $135 $-1 #
edge $-1 $339 0 $339 6.2831853071796004 $136 $340 forward 7 unknown #
vertex $-1 $139 $341 #
ellipse-curve $-1 45.113251665482913 -14.241414854853989 4.5717794186505021 0.61566148304635926 0 0.78801074757464917 1.5760214951492983 0 -1.2313229660927185 1 I I #
face $-1 $-1 $155 $21 $-1 $342 reversed single #
loop $-1 $-1 $245 $140 #
plane-surface $-1 0 29.781263969032292 0 0 -1 0 0 0 -1 forward_v I I I I #
coedge $-1 $343 $243 $246 $344 forward $141 $-1 #
coedge $-1 $249 $143 $144 $237 reversed $87 $-1 #
coedge $-1 $243 $343 $143 $235 reversed $141 $-1 #
edge $-1 $250 -8.6970706784163951 $345 8.6970706784163951 $234 $346 forward 7 unknown #
coedge $-1 $145 $144 $343 $347 forward $57 $-1 #
edge $-1 $241 -50.393383587145607 $345 50.393383587145607 $233 $348 forward 7 unknown #
coedge $-1 $246 $245 $145 $239 reversed $230 $-1 #
edge $-1 $349 -50.393383587145607 $240 50.393383587145607 $238 $350 forward 7 unknown #
vertex $-1 $147 $351 #
vertex $-1 $252 $352 #
straight-curve $-1 50.393383587145607 0 -8.6970706784163951 0 -1 0 I I #
coedge $-1 $232 $234 $148 $244 reversed $141 $-1 #
edge $-1 $247 -29.781263969032292 $250 29.781263969032292 $243 $353 forward 7 unknown #
coedge $-1 $238 $149 $154 $253 forward $230 $-1 #
coedge $-1 $149 $238 $232 $344 reversed $230 $-1 #
vertex $-1 $150 $354 #
straight-curve $-1 0 29.781263969032292 8.6970706784163951 -1 0 0 I I #
coedge $-1 $151 $233 $153 $252 reversed $87 $-1 #
vertex $-1 $244 $355 #
straight-curve $-1 0 -29.781263969032292 8.6970706784163951 1 0 0 I I #
edge $-1 $156 -8.6970706784163951 $241 8.6970706784163951 $153 $356 forward 7 unknown #
edge $-1 $157 -8.6970706784163951 $240 8.6970706784163951 $154 $357 forward 7 unknown #
point $-1 50.393383587145607 -29.781263969032292 8.6970706784163951 #
point $-1 50.393383587145607 29.781263969032292 8.6970706784163951 #
face $-1 $-1 $269 $22 $-1 $358 reversed single #
plane-surface $-1 -47.393383587145607 -33.036864683629275 0 -1 0 0 0 0 1 forward_v I I I I #
coedge $-1 $359 $360 $361 $362 forward $160 $-1 #
coedge $-1 $361 $162 $268 $363 reversed $95 $-1 #
coedge $-1 $162 $361 $163 $263 reversed $95 $-1 #
edge $-1 $265 -8.6970706784163951 $270 8.6970706784163951 $162 $364 forward 7 unknown #
coedge $-1 $164 $163 $360 $365 forward $61 $-1 #
edge $-1 $265 29.781263969032292 $366 36.292465398226263 $260 $367 forward 7 unknown #
edge $-1 $368 -3.2556007145969872 $172 3.2556007145969872 $169 $369 forward 7 unknown #
vertex $-1 $263 $370 #
straight-curve $-1 0 -29.781263969032292 8.6970706784163951 -1 0 0 I I #
coedge $-1 $371 $167 $170 $273 forward $269 $-1 #
coedge $-1 $167 $371 $259 $363 forward $269 $-1 #
loop $-1 $-1 $167 $256 #
vertex $-1 $261 $372 #
straight-curve $-1 0 -29.781263969032292 -8.6970706784163951 1 0 0 I I #
coedge $-1 $170 $169 $373 $374 forward $171 $-1 #
edge $-1 $173 -3.2556007145969872 $375 3.2556007145969872 $170 $376 forward 7 unknown #
point $-1 -47.393383587145607 -29.781263969032288 8.6970706784163951 #
point $-1 -47.393383587145607 -29.781263969032288 -8.6970706784163951 #
face $-1 $-1 $377 $23 $-1 $378 reversed single #
loop $-1 $-1 $183 $175 #
plane-surface $-1 0 0 -8.6970706784163951 0 0 1 1 0 0 forward_v I I I I #
coedge $-1 $379 $178 $380 $381 reversed $103 $-1 #
coedge $-1 $178 $379 $283 $382 reversed $103 $-1 #
coedge $-1 $186 $185 $178 $282 reversed $176 $-1 #
edge $-1 $383 -8.6970706784163951 $384 8.6970706784163951 $281 $385 forward 7 unknown #
coedge $-1 $180 $179 $280 $382 forward $65 $-1 #
edge $-1 $188 -3.2556007145969836 $383 3.2556007145969801 $186 $386 forward 7 unknown #
coedge $-1 $387 $289 $180 $286 reversed $377 $-1 #
edge $-1 $388 -36.292465398226256 $287 -29.781263969032292 $285 $389 forward 7 unknown #
vertex $-1 $290 $390 #
straight-curve $-1 0 29.781263969032292 8.6970706784163951 1 0 0 I I #
coedge $-1 $285 $391 $182 $290 forward $377 $-1 #
edge $-1 $293 -8.6970706784163951 $287 8.6970706784163951 $289 $392 forward 7 unknown #
coedge $-1 $380 $183 $391 $393 forward $277 $-1 #
coedge $-1 $183 $380 $185 $295 forward $277 $-1 #
vertex $-1 $393 $394 #
straight-curve $-1 0 29.781263969032292 -8.6970706784163951 -1 0 0 I I #
edge $-1 $384 -3.2556007145969801 $187 3.2556007145969836 $185 $395 forward 7 unknown #
point $-1 -47.393383587145607 29.781263969032292 -8.6970706784163951 #
point $-1 -47.393383587145607 29.781263969032292 8.6970706784163951 #
plane-surface $-1 0 0 8.6970706784163951 0 0 1 1 0 0 forward_v I I I I #
coedge $-1 $309 $308 $301 $396 forward $191 $-1 #
coedge $-1 $301 $193 $195 $305 reversed $111 $-1 #
coedge $-1 $193 $300 $299 $396 reversed $111 $-1 #
coedge $-1 $201 $196 $193 $303 forward $202 $-1 #
edge $-1 $306 -15.206114907002984 $397 -8.5230639281117959 $302 $398 forward 7 unknown #
coedge $-1 $195 $194 $309 $399 reversed $69 $-1 #
edge $-1 $400 0 $306 8.9929322185096687 $300 $401 forward 7 unknown #
vertex $-1 $197 $402 #
straight-curve $-1 -43.710332608254419 8.2872782305460273 8.6970706784163951 0 1 0 I I #
coedge $-1 $299 $198 $201 $313 reversed $191 $-1 #
coedge $-1 $198 $299 $304 $399 forward $191 $-1 #
vertex $-1 $199 $403 #
straight-curve $-1 -50.393383587145607 9.8790503823457989 38.789394094796762 0 0 1 I I #
straight-curve $-1 -50.393383587145607 9.8790503823457989 2.6796244177298263 -0.74314481823134659 0 -0.66913061440640931 I I #
edge $-1 $397 -23.27006253983831 $203 -9.8790503823457989 $308 $404 forward 7 unknown #
point $-1 -50.393383587145607 9.8790503823457989 8.6970706784163951 #
point $-1 -43.710332608254419 9.8790503823457989 8.6970706784163951 #
edge $-1 $405 1 $405 0 $206 $-1 forward 7 unknown #
vertex $-1 $207 $406 #
ellipse-curve $-1 -44.630719027743879 16.574556461092055 2.9994002553961856 -0.66913061440640931 0 0.74314481823134659 1.4862896364626932 0 1.3382612288128186 1 I I #
point $-1 -45.565568461237319 16.574556461092055 7.0266087768859329 #
loop $-1 $-1 $218 $210 #
plane-surface $-1 50.393383587145607 0 0 -1 0 0 0 0 1 forward_v I I I I #
coedge $-1 $323 $213 $215 $327 reversed $126 $-1 #
coedge $-1 $213 $322 $407 $408 reversed $126 $-1 #
coedge $-1 $221 $216 $213 $325 forward $211 $-1 #
edge $-1 $328 23.321690548583959 $409 33.881954391909346 $324 $410 forward 7 unknown #
coedge $-1 $215 $214 $331 $411 reversed $78 $-1 #
edge $-1 $412 -100.78676717429121 $328 -87.385599898555554 $322 $413 forward 7 unknown #
vertex $-1 $217 $414 #
straight-curve $-1 39.833119743820212 -7.1207074274269946 8.6970706784163951 0 -1 0 I I #
coedge $-1 $407 $218 $221 $335 reversed $320 $-1 #
coedge $-1 $218 $407 $326 $411 forward $320 $-1 #
vertex $-1 $219 $415 #
straight-curve $-1 50.393383587145607 -8.6312214565640666 70.959037227751111 0 0 1 I I #
straight-curve $-1 -29.02767215949973 -8.6312214565640666 62.497018708856885 0.78801074757464917 0 -0.61566148304635926 I I #
edge $-1 $409 -19.851608253143912 $222 -8.6312214565640666 $330 $416 forward 7 unknown #
point $-1 50.393383587145607 -8.6312214565640666 8.6970706784163951 #
point $-1 39.83311974382022 -8.6312214565640666 8.697070678416388 #
edge $-1 $417 1 $417 0 $225 $-1 forward 7 unknown #
vertex $-1 $226 $418 #
ellipse-curve $-1 43.585211693247807 -14.241414854853989 2.6159774820296526 0.61566148304635926 0 0.78801074757464917 1.5760214951492983 0 -1.2313229660927185 1 I I #
point $-1 46.689273160632226 -14.241414854853989 3.3404564525578007 #
plane-surface $-1 50.393383587145607 0 0 -1 0 0 0 0 1 forward_v I I I I #
coedge $-1 $234 $232 $236 $347 reversed $141 $-1 #
edge $-1 $247 -8.6970706784163951 $349 8.6970706784163951 $246 $419 forward 7 unknown #
vertex $-1 $347 $420 #
straight-curve $-1 -50.393383587145607 -29.781263969032292 0 0 0 -1 I I #
edge $-1 $345 -29.781263969032292 $349 29.781263969032292 $343 $421 forward 7 unknown #
straight-curve $-1 0 -29.781263969032292 -8.6970706784163951 -1 0 0 I I #
vertex $-1 $239 $422 #
straight-curve $-1 0 29.781263969032292 -8.6970706784163951 1 0 0 I I #
point $-1 50.393383587145607 29.781263969032292 -8.6970706784163951 #
point $-1 50.393383587145607 -29.781263969032292 -8.6970706784163951 #
straight-curve $-1 -50.393383587145607 0 8.6970706784163951 0 -1 0 I I #
point $-1 -50.393383587145607 29.781263969032292 8.6970706784163951 #
point $-1 -50.393383587145607 -29.781263969032292 8.6970706784163951 #
straight-curve $-1 50.393383587145607 -29.781263969032292 0 0 0 -1 I I #
straight-curve $-1 50.393383587145607 29.781263969032292 0 0 0 -1 I I #
plane-surface $-1 0 0 -8.6970706784163951 0 0 1 1 0 0 forward_v I I I I #
coedge $-1 $373 $258 $371 $423 reversed $160 $-1 #
coedge $-1 $258 $373 $262 $365 reversed $160 $-1 #
coedge $-1 $260 $259 $258 $362 reversed $95 $-1 #
edge $-1 $366 -8.6970706784163951 $424 8.6970706784163951 $361 $425 forward 7 unknown #
edge $-1 $424 -36.292465398226263 $270 -29.781263969032292 $259 $426 forward 7 unknown #
straight-curve $-1 -50.393383587145607 -29.781263969032292 0 0 0 -1 I I #
edge $-1 $366 -1.5 $368 1.5 $360 $427 forward 7 unknown #
vertex $-1 $263 $428 #
straight-curve $-1 -50.393383587145607 0 8.6970706784163951 0 -1 0 I I #
vertex $-1 $264 $429 #
straight-curve $-1 -47.393383587145607 -33.036864683629275 8.6970706784163951 0 1 0 I I #
point $-1 -50.393383587145607 -29.781263969032292 8.6970706784163951 #
coedge $-1 $268 $267 $359 $423 forward $269 $-1 #
point $-1 -50.393383587145607 -29.781263969032292 -8.6970706784163951 #
coedge $-1 $360 $359 $272 $374 reversed $160 $-1 #
edge $-1 $368 -8.6970706784163951 $375 8.6970706784163951 $272 $430 forward 7 unknown #
vertex $-1 $374 $431 #
straight-curve $-1 -47.393383587145607 -33.036864683629275 -8.6970706784163951 0 -1 0 I I #
loop $-1 $-1 $289 $276 #
plane-surface $-1 -50.393383587145607 0 0 1 0 0 0 0 -1 forward_v I I I I #
coedge $-1 $280 $279 $387 $432 reversed $103 $-1 #
coedge $-1 $292 $291 $279 $381 forward $277 $-1 #
edge $-1 $433 -1.5 $384 1.5 $279 $434 forward 7 unknown #
edge $-1 $383 -1.5 $388 1.5 $280 $435 forward 7 unknown #
vertex $-1 $284 $436 #
vertex $-1 $295 $437 #
straight-curve $-1 -47.393383587145607 36.292465398226256 0 0 0 -1 I I #
straight-curve $-1 -47.393383587145607 33.036864683629275 8.6970706784163951 0 1 0 I I #
coedge $-1 $391 $285 $379 $432 forward $377 $-1 #
vertex $-1 $382 $438 #
straight-curve $-1 -50.393383587145607 0 8.6970706784163951 0 -1 0 I I #
point $-1 -50.393383587145607 29.781263969032292 8.6970706784163951 #
coedge $-1 $289 $387 $291 $393 reversed $377 $-1 #
straight-curve $-1 -50.393383587145607 29.781263969032292 0 0 0 1 I I #
edge $-1 $293 -3.2556007145969836 $433 3.2556007145969801 $391 $439 forward 7 unknown #
point $-1 -50.393383587145607 29.781263969032292 -8.6970706784163951 #
straight-curve $-1 -47.393383587145607 33.036864683629275 -8.6970706784163951 0 -1 0 I I #
edge $-1 $397 30.092323416380367 $400 36.109769677066936 $299 $440 forward 7 unknown #
vertex $-1 $313 $441 #
straight-curve $-1 -58.916447515257403 23.27006253983831 8.6970706784163951 -1 0 0 I I #
edge $-1 $400 -14.982784309292283 $310 -1.5917721517997716 $309 $442 forward 7 unknown #
vertex $-1 $399 $443 #
straight-curve $-1 -50.393383587145607 23.27006253983831 2.6796244177298263 0.74314481823134659 0 0.66913061440640931 I I #
point $-1 -43.710332608254419 23.27006253983831 8.6970706784163951 #
point $-1 -50.393383587145607 9.8790503823457989 2.6796244177298263 #
straight-curve $-1 -50.393383587145607 0 8.6970706784163951 0 -1 0 I I #
vertex $-1 $316 $444 #
point $-1 -43.144429391281186 16.574556461092055 4.3376614842090042 #
coedge $-1 $331 $330 $323 $408 forward $320 $-1 #
edge $-1 $409 62.261966549334716 $412 70.512549068866491 $407 $445 forward 7 unknown #
vertex $-1 $335 $446 #
straight-curve $-1 16.511429195236261 -19.851608253143912 8.6970706784163951 1 0 0 I I #
edge $-1 $412 -12.730900825716917 $332 -1.510514029137072 $331 $447 forward 7 unknown #
vertex $-1 $411 $448 #
straight-curve $-1 -29.02767215949973 -19.851608253143912 62.497018708856885 -0.78801074757464917 0 0.61566148304635926 I I #
point $-1 39.83311974382022 -19.851608253143912 8.697070678416388 #
point $-1 50.393383587145607 -8.6312214565640666 0.44648815888462678 #
straight-curve $-1 50.393383587145607 0 8.6970706784163951 0 1 0 I I #
vertex $-1 $338 $449 #
point $-1 45.161233188397105 -14.241414854853989 1.3846545159369341 #
straight-curve $-1 -50.393383587145607 29.781263969032292 0 0 0 -1 I I #
point $-1 -50.393383587145607 -29.781263969032292 -8.6970706784163951 #
straight-curve $-1 -50.393383587145607 0 -8.6970706784163951 0 1 0 I I #
point $-1 -50.393383587145607 29.781263969032292 -8.6970706784163951 #
edge $-1 $375 -1.5 $424 1.5 $359 $450 forward 7 unknown #
vertex $-1 $363 $451 #
straight-curve $-1 -50.393383587145607 -36.292465398226263 0 0 0 -1 I I #
straight-curve $-1 -50.393383587145607 0 -8.6970706784163951 0 1 0 I I #
straight-curve $-1 -48.893383587145607 -36.292465398226263 8.6970706784163951 1 0 0 I I #
point $-1 -50.393383587145607 -36.292465398226263 8.6970706784163951 #
point $-1 -47.393383587145607 -36.292465398226263 8.6970706784163951 #
straight-curve $-1 -47.393383587145607 -36.292465398226263 0 0 0 -1 I I #
point $-1 -47.393383587145607 -36.292465398226263 -8.6970706784163951 #
edge $-1 $388 -8.6970706784163951 $433 8.6970706784163951 $379 $452 forward 7 unknown #
vertex $-1 $381 $453 #
straight-curve $-1 -48.893383587145607 36.292465398226256 -8.6970706784163951 1 0 0 I I #
straight-curve $-1 -48.893383587145607 36.292465398226256 8.6970706784163951 -1 0 0 I I #
point $-1 -47.393383587145607 36.292465398226256 8.6970706784163951 #
point $-1 -47.393383587145607 36.292465398226256 -8.6970706784163951 #
point $-1 -50.393383587145607 36.292465398226256 8.6970706784163951 #
straight-curve $-1 -50.393383587145607 33.036864683629275 -8.6970706784163951 0 1 0 I I #
straight-curve $-1 -50.393383587145607 23.27006253983831 38.789394094796762 0 0 -1 I I #
point $-1 -50.393383587145607 23.27006253983831 8.6970706784163951 #
straight-curve $-1 -50.393383587145607 8.2872782305460273 2.6796244177298276 0 -1 0 I I #
point $-1 -50.393383587145607 23.27006253983831 2.6796244177298263 #
point $-1 -43.292457798931054 16.574556461092055 1.5131106189334922 #
straight-curve $-1 50.393383587145607 -19.851608253143912 70.959037227751111 0 0 -1 I I #
point $-1 50.393383587145607 -19.851608253143912 8.6970706784163951 #
straight-curve $-1 50.393383587145607 -7.1207074274269946 0.44648815888462678 0 1 0 I I #
point $-1 50.393383587145607 -19.851608253143912 0.44648815888462678 #
point $-1 42.353888727155088 -14.241414854853989 1.0399559868803543 #
straight-curve $-1 -48.893383587145607 -36.292465398226263 -8.6970706784163951 -1 0 0 I I #
point $-1 -50.393383587145607 -36.292465398226263 -8.6970706784163951 #
straight-curve $-1 -50.393383587145607 36.292465398226256 0 0 0 -1 I I #
point $-1 -50.393383587145607 36.292465398226256 -8.6970706784163951 #
End-of-ACIS-data 