500 0 8 0           
7 Unknown 11 ACIS 5.0 NT 24 Fri Mar 26 19:50:09 1999 
-1 9.9999999999999995e-007 1e-010 
body $-1 $8 $-1 $9 #
body $-1 $10 $-1 $11 #
body $-1 $12 $-1 $13 #
body $-1 $14 $-1 $15 #
body $-1 $16 $-1 $17 #
body $-1 $18 $-1 $19 #
body $-1 $20 $-1 $21 #
body $-1 $22 $-1 $23 #
lump $-1 $-1 $24 $0 #
transform $-1 1 0 0 0 1 0 0 0 1 76.813867610705898 49.608438477866031 20.635184629829354 1 rotate no_reflect no_shear #
lump $-1 $-1 $25 $1 #
transform $-1 1 0 0 0 1 0 0 0 1 76.813867610705898 49.608438477866031 20.635184629829354 1 rotate no_reflect no_shear #
lump $-1 $-1 $26 $2 #
transform $-1 1 0 0 0 1 0 0 0 1 76.813867610705898 49.608438477866031 20.635184629829354 1 rotate no_reflect no_shear #
lump $-1 $-1 $27 $3 #
transform $-1 1 0 0 0 1 0 0 0 1 76.813867610705898 49.608438477866031 20.635184629829354 1 rotate no_reflect no_shear #
lump $-1 $-1 $28 $4 #
transform $-1 1 0 0 0 1 0 0 0 1 76.813867610705898 49.608438477866031 20.635184629829354 1 rotate no_reflect no_shear #
lump $-1 $-1 $29 $5 #
transform $-1 1 0 0 0 1 0 0 0 1 76.813867610705898 49.608438477866031 20.635184629829354 1 rotate no_reflect no_shear #
lump $-1 $-1 $30 $6 #
transform $-1 1 0 0 0 1 0 0 0 1 76.813867610705898 49.608438477866031 20.635184629829354 1 rotate no_reflect no_shear #
lump $-1 $-1 $31 $7 #
transform $-1 1 0 0 0 1 0 0 0 1 76.813867610705898 49.608438477866031 20.635184629829354 1 rotate no_reflect no_shear #
shell $-1 $-1 $-1 $32 $-1 $8 #
shell $-1 $-1 $-1 $33 $-1 $10 #
shell $-1 $-1 $-1 $34 $-1 $12 #
shell $-1 $-1 $-1 $35 $-1 $14 #
shell $-1 $-1 $-1 $36 $-1 $16 #
shell $-1 $-1 $-1 $37 $-1 $18 #
shell $-1 $-1 $-1 $38 $-1 $20 #
shell $-1 $-1 $-1 $39 $-1 $22 #
face $-1 $40 $41 $24 $-1 $42 forward single #
face $-1 $43 $44 $25 $-1 $45 reversed single #
face $-1 $46 $47 $26 $-1 $48 reversed single #
face $-1 $49 $50 $27 $-1 $51 forward single #
face $-1 $52 $53 $28 $-1 $54 reversed single #
face $-1 $55 $56 $29 $-1 $57 forward single #
face $-1 $58 $59 $30 $-1 $60 reversed single #
face $-1 $61 $62 $31 $-1 $63 forward single #
face $-1 $64 $65 $24 $-1 $66 reversed single #
loop $-1 $-1 $67 $32 #
plane-surface $-1 0 0 20.635184629829354 0 0 1 1 0 0 forward_v I I I I #
face $-1 $68 $69 $25 $-1 $70 reversed single #
loop $-1 $-1 $71 $33 #
plane-surface $-1 -63.644574270255852 -17.461582930362535 0 0 1 0 0 0 1 forward_v I I I I #
face $-1 $72 $73 $26 $-1 $74 reversed single #
loop $-1 $-1 $75 $34 #
plane-surface $-1 44.718363271876825 66.007152399425408 189.54348349272121 1 0 0 0 -0.61566148304635926 -0.78801074757464917 forward_v I I I I #
face $-1 $76 $77 $27 $-1 $78 forward single #
loop $-1 $79 $80 $35 #
cone-surface $-1 56.392783073853593 37.884991175628187 9.8538040680375047 0 -0.61566148304635926 -0.78801074757464917 3 0 0 1 I I 0 1 3 forward I I I I #
face $-1 $81 $82 $28 $-1 $83 reversed single #
loop $-1 $-1 $84 $36 #
plane-surface $-1 -20.024286946698101 -182.65396109379384 86.006852052989572 -1 0 0 0 -0.86602541151947299 0.49999998660252726 forward_v I I I I #
face $-1 $85 $86 $29 $-1 $87 forward single #
loop $-1 $88 $89 $37 #
cone-surface $-1 -28.469570583499532 -43.476677622570506 13.280944796525407 0 0.86602541151947299 -0.49999998660252726 2.5 0 0 1 I I 0 1 2.5 forward I I I I #
face $-1 $90 $91 $30 $-1 $92 reversed single #
loop $-1 $-1 $93 $38 #
plane-surface $-1 63.25344090120106 -182.65396109379384 86.006852052989572 -1 0 0 0 -0.86602541151947299 0.49999998660252726 forward_v I I I I #
face $-1 $94 $95 $31 $-1 $96 forward single #
loop $-1 $97 $98 $39 #
cone-surface $-1 54.808157264399625 -43.476677622570506 13.280944796525407 0 0.86602541151947299 -0.49999998660252726 2.5 0 0 1 I I 0 1 2.5 forward I I I I #
face $-1 $99 $100 $24 $-1 $101 reversed single #
loop $-1 $-1 $102 $40 #
plane-surface $-1 0 0 -20.635184629829354 0 0 1 1 0 0 forward_v I I I I #
coedge $-1 $103 $104 $105 $106 forward $41 $-1 #
face $-1 $107 $108 $25 $-1 $109 reversed single #
loop $-1 $-1 $110 $43 #
plane-surface $-1 -63.644574270255852 -8.3380692182073268 0 0 -1 0 0 0 -1 forward_v I I I I #
coedge $-1 $111 $112 $113 $114 reversed $44 $-1 #
face $-1 $115 $116 $26 $-1 $117 reversed single #
loop $-1 $-1 $118 $46 #
plane-surface $-1 56.392783073853593 -28.575526904042377 68.483177012696231 0 0.61566148304635926 0.78801074757464917 1 0 0 forward_v I I I I #
coedge $-1 $119 $120 $121 $122 reversed $47 $-1 #
face $-1 $-1 $123 $27 $-1 $124 forward single #
loop $-1 $125 $126 $49 #
cone-surface $-1 56.392783073853593 33.708716224337593 4.50841599834731 0 -0.61566148304635926 -0.78801074757464917 1.5 0 0 1 I I -0.70710678118654724 0.70710678118654768 1.5 forward I I I I #
loop $-1 $-1 $127 $35 #
coedge $-1 $80 $80 $128 $129 reversed $50 $-1 #
face $-1 $130 $131 $28 $-1 $132 reversed single #
loop $-1 $-1 $133 $52 #
plane-surface $-1 -28.469570583499532 -49.608438477866059 9.1929865005070752 0 -0.86602541151947299 0.49999998660252726 1 0 0 forward_v I I I I #
coedge $-1 $134 $135 $136 $137 reversed $53 $-1 #
face $-1 $-1 $138 $29 $-1 $139 forward single #
loop $-1 $140 $141 $55 #
cone-surface $-1 -28.469570583499532 -39.565462969910534 11.022804044629446 0 0.86602541151947299 -0.49999998660252726 1.25 0 0 1 I I -0.70710678118654746 0.70710678118654746 1.25 forward I I I I #
loop $-1 $-1 $142 $37 #
coedge $-1 $89 $89 $143 $144 reversed $56 $-1 #
face $-1 $145 $146 $30 $-1 $147 reversed single #
loop $-1 $-1 $148 $58 #
plane-surface $-1 54.808157264399625 -49.608438477866059 9.1929865005070752 0 -0.86602541151947299 0.49999998660252726 1 0 0 forward_v I I I I #
coedge $-1 $149 $150 $151 $152 reversed $59 $-1 #
face $-1 $-1 $153 $31 $-1 $154 forward single #
loop $-1 $155 $156 $61 #
cone-surface $-1 54.808157264399625 -39.565462969910534 11.022804044629446 0 0.86602541151947299 -0.49999998660252726 1.25 0 0 1 I I -0.70710678118654746 0.70710678118654746 1.25 forward I I I I #
loop $-1 $-1 $157 $39 #
coedge $-1 $98 $98 $158 $159 reversed $62 $-1 #
face $-1 $160 $161 $24 $-1 $162 reversed single #
loop $-1 $-1 $163 $64 #
plane-surface $-1 0 -49.608438477866031 0 0 1 0 0 0 1 forward_v I I I I #
coedge $-1 $164 $165 $166 $167 forward $65 $-1 #
coedge $-1 $168 $67 $169 $170 forward $41 $-1 #
coedge $-1 $67 $168 $171 $172 forward $41 $-1 #
coedge $-1 $173 $174 $67 $106 reversed $175 $-1 #
edge $-1 $176 -49.608438477866031 $177 49.608438477866031 $105 $178 forward 7 unknown #
face $-1 $179 $180 $25 $-1 $181 reversed single #
loop $-1 $-1 $182 $68 #
plane-surface $-1 -50.475280929805805 -12.899826074284931 0 -1 0 0 0 0 1 forward_v I I I I #
coedge $-1 $183 $184 $185 $186 forward $69 $-1 #
coedge $-1 $187 $71 $188 $189 reversed $44 $-1 #
coedge $-1 $71 $187 $190 $191 reversed $44 $-1 #
coedge $-1 $192 $193 $71 $114 forward $194 $-1 #
edge $-1 $195 -20.635184629829354 $196 20.635184629829354 $113 $197 forward 7 unknown #
face $-1 $198 $199 $26 $-1 $200 reversed single #
loop $-1 $-1 $201 $72 #
plane-surface $-1 68.067202875830361 66.007152399425408 189.54348349272121 -1 0 0 0 0.61566148304635926 0.78801074757464917 forward_v I I I I #
coedge $-1 $202 $203 $204 $205 reversed $73 $-1 #
coedge $-1 $120 $75 $206 $207 reversed $47 $-1 #
coedge $-1 $75 $119 $202 $208 reversed $47 $-1 #
coedge $-1 $204 $209 $75 $122 forward $210 $-1 #
edge $-1 $211 -16.604862278153327 $212 0.3364668728803224 $121 $213 forward 7 unknown #
loop $-1 $-1 $128 $76 #
plane-surface $-1 56.392783073853593 -28.575526904042377 68.483177012696231 0 0.61566148304635926 0.78801074757464917 1 0 0 forward_v I I I I #
loop $-1 $-1 $214 $49 #
coedge $-1 $126 $126 $127 $215 reversed $77 $-1 #
coedge $-1 $127 $127 $126 $215 forward $79 $-1 #
coedge $-1 $128 $128 $80 $129 forward $123 $-1 #
edge $-1 $216 4.5186529077291501e-016 $216 6.2831853071796013 $128 $217 forward 7 unknown #
face $-1 $218 $219 $28 $-1 $220 forward single #
loop $-1 $-1 $221 $81 #
plane-surface $-1 -36.914854220300967 -182.65396109379384 86.006852052989572 1 0 0 0 0.86602541151947299 -0.49999998660252726 forward_v I I I I #
coedge $-1 $222 $223 $224 $225 reversed $82 $-1 #
coedge $-1 $135 $84 $226 $227 reversed $53 $-1 #
coedge $-1 $84 $134 $222 $228 reversed $53 $-1 #
coedge $-1 $224 $229 $84 $137 forward $219 $-1 #
edge $-1 $230 41.718542069030889 $231 48.324698003100657 $136 $232 forward 7 unknown #
loop $-1 $-1 $143 $85 #
plane-surface $-1 -28.469570583499532 -49.608438477866059 9.1929865005070752 0 -0.86602541151947299 0.49999998660252726 1 0 0 forward_v I I I I #
loop $-1 $-1 $233 $55 #
coedge $-1 $141 $141 $142 $234 reversed $86 $-1 #
coedge $-1 $142 $142 $141 $234 forward $88 $-1 #
coedge $-1 $143 $143 $89 $144 forward $138 $-1 #
edge $-1 $235 -4.4180155644812717e-017 $235 6.2831853071796004 $143 $236 forward 7 unknown #
face $-1 $237 $238 $30 $-1 $239 reversed single #
loop $-1 $-1 $240 $90 #
plane-surface $-1 46.362873627598191 -182.65396109379384 86.006852052989572 1 0 0 0 0.86602541151947299 -0.49999998660252726 forward_v I I I I #
coedge $-1 $241 $242 $243 $244 reversed $91 $-1 #
coedge $-1 $150 $93 $245 $246 reversed $59 $-1 #
coedge $-1 $93 $149 $241 $247 reversed $59 $-1 #
coedge $-1 $243 $248 $93 $152 forward $249 $-1 #
edge $-1 $250 41.718542069030889 $251 48.324698003100657 $151 $252 forward 7 unknown #
loop $-1 $-1 $158 $94 #
plane-surface $-1 54.808157264399625 -49.608438477866059 9.1929865005070752 0 -0.86602541151947299 0.49999998660252726 1 0 0 forward_v I I I I #
loop $-1 $-1 $253 $61 #
coedge $-1 $156 $156 $157 $254 reversed $95 $-1 #
coedge $-1 $157 $157 $156 $254 forward $97 $-1 #
coedge $-1 $158 $158 $98 $159 forward $153 $-1 #
edge $-1 $255 -4.4180155644812717e-017 $255 6.2831853071796004 $158 $256 forward 7 unknown #
face $-1 $257 $258 $24 $-1 $259 reversed single #
loop $-1 $-1 $260 $99 #
plane-surface $-1 -76.813867610705898 0 0 1 0 0 0 0 -1 forward_v I I I I #
coedge $-1 $261 $171 $262 $263 forward $100 $-1 #
coedge $-1 $264 $102 $261 $265 forward $65 $-1 #
coedge $-1 $102 $264 $266 $267 forward $65 $-1 #
coedge $-1 $174 $173 $102 $167 reversed $175 $-1 #
edge $-1 $268 -49.608438477866031 $269 49.608438477866031 $166 $270 forward 7 unknown #
coedge $-1 $104 $103 $271 $272 forward $41 $-1 #
coedge $-1 $273 $274 $103 $170 reversed $258 $-1 #
edge $-1 $177 -76.813867610705898 $275 76.813867610705898 $169 $276 forward 7 unknown #
coedge $-1 $163 $277 $104 $172 reversed $100 $-1 #
edge $-1 $278 -76.813867610705898 $176 76.813867610705898 $171 $279 forward 7 unknown #
coedge $-1 $166 $105 $277 $280 forward $175 $-1 #
coedge $-1 $105 $166 $273 $281 reversed $175 $-1 #
loop $-1 $-1 $173 $257 #
vertex $-1 $106 $282 #
vertex $-1 $106 $283 #
straight-curve $-1 76.813867610705898 0 20.635184629829354 0 1 0 I I #
face $-1 $284 $285 $25 $-1 $286 forward single #
loop $-1 $-1 $287 $107 #
plane-surface $-1 0 0 -20.635184629829354 0 0 1 1 0 0 forward_v I I I I #
coedge $-1 $288 $289 $187 $290 forward $108 $-1 #
coedge $-1 $291 $110 $287 $292 reversed $69 $-1 #
coedge $-1 $110 $291 $293 $294 reversed $69 $-1 #
coedge $-1 $289 $288 $110 $186 reversed $108 $-1 #
edge $-1 $295 -20.635184629829354 $296 20.635184629829354 $185 $297 forward 7 unknown #
coedge $-1 $112 $111 $182 $290 reversed $44 $-1 #
coedge $-1 $298 $299 $111 $189 forward $180 $-1 #
edge $-1 $300 18.652993794677879 $195 44.991580475577976 $188 $301 forward 7 unknown #
coedge $-1 $302 $303 $112 $191 forward $285 $-1 #
edge $-1 $196 -44.991580475577976 $304 -18.652993794677879 $190 $305 forward 7 unknown #
coedge $-1 $306 $113 $303 $307 reversed $194 $-1 #
coedge $-1 $113 $306 $298 $308 reversed $194 $-1 #
loop $-1 $-1 $306 $284 #
vertex $-1 $308 $309 #
vertex $-1 $114 $310 #
straight-curve $-1 -76.813867610705898 -17.461582930362535 0 0 0 1 I I #
face $-1 $-1 $210 $26 $-1 $311 forward single #
loop $-1 $-1 $312 $115 #
plane-surface $-1 0 49.608438477866031 0 0 -1 0 0 0 -1 forward_v I I I I #
coedge $-1 $313 $314 $315 $316 reversed $116 $-1 #
coedge $-1 $317 $118 $120 $208 forward $73 $-1 #
coedge $-1 $118 $317 $313 $318 forward $73 $-1 #
coedge $-1 $315 $121 $118 $205 forward $210 $-1 #
edge $-1 $212 16.521971734950029 $319 39.870811338903565 $204 $320 forward 7 unknown #
coedge $-1 $321 $322 $119 $207 forward $199 $-1 #
edge $-1 $323 -87.372574343458524 $211 -74.13655711653125 $206 $324 forward 7 unknown #
edge $-1 $212 77.718021510960639 $323 99.216876955732062 $120 $325 forward 7 unknown #
coedge $-1 $121 $315 $321 $326 forward $210 $-1 #
loop $-1 $-1 $315 $198 #
vertex $-1 $207 $327 #
vertex $-1 $122 $328 #
straight-curve $-1 44.718363271876825 33.003576199712704 20.635184629829354 0 -1 0 I I #
coedge $-1 $214 $214 $-1 $329 reversed $125 $-1 #
edge $-1 $330 0 $330 6.2831853071796004 $126 $331 forward 7 unknown #
vertex $-1 $129 $332 #
ellipse-curve $-1 56.392783073853593 41.137773902349224 14.01717601636571 0 0.61566148304635926 0.78801074757464917 3 0 0 1 I I #
face $-1 $-1 $333 $28 $-1 $334 reversed single #
loop $-1 $-1 $136 $130 #
plane-surface $-1 0 0 20.635184629829354 0 0 1 1 0 0 forward_v I I I I #
coedge $-1 $335 $336 $337 $338 reversed $131 $-1 #
coedge $-1 $339 $133 $135 $228 forward $82 $-1 #
coedge $-1 $133 $339 $335 $340 forward $82 $-1 #
coedge $-1 $337 $136 $133 $225 forward $219 $-1 #
edge $-1 $231 5.7895016549483351 $341 22.680068928551201 $224 $342 forward 7 unknown #
coedge $-1 $343 $344 $134 $227 forward $333 $-1 #
edge $-1 $345 -33.810439525987661 $230 -22.368241396665432 $226 $346 forward 7 unknown #
edge $-1 $231 -13.212312222162774 $345 -5.7285218894139824e-014 $135 $347 forward 7 unknown #
coedge $-1 $136 $337 $343 $348 forward $219 $-1 #
vertex $-1 $227 $349 #
vertex $-1 $137 $350 #
straight-curve $-1 -20.024286946698101 -91.32698054689692 20.635184629829354 0 1 0 I I #
coedge $-1 $233 $233 $-1 $351 reversed $140 $-1 #
edge $-1 $352 0 $352 6.2831853071796004 $141 $353 forward 7 unknown #
vertex $-1 $144 $354 #
ellipse-curve $-1 -28.469570583499532 -46.305360510831157 14.914085565168223 0 -0.86602541151947299 0.49999998660252726 2.5 0 0 1 I I #
face $-1 $-1 $249 $30 $-1 $355 forward single #
loop $-1 $-1 $356 $145 #
plane-surface $-1 0 -49.608438477866031 0 0 1 0 0 0 1 forward_v I I I I #
coedge $-1 $357 $358 $359 $360 reversed $146 $-1 #
coedge $-1 $361 $148 $150 $247 forward $91 $-1 #
coedge $-1 $148 $361 $357 $362 forward $91 $-1 #
coedge $-1 $359 $151 $148 $244 forward $249 $-1 #
edge $-1 $251 -35.849362269001247 $363 -18.958794995398378 $243 $364 forward 7 unknown #
coedge $-1 $365 $366 $149 $246 forward $238 $-1 #
edge $-1 $367 -33.810439525987661 $250 -22.368241396665432 $245 $368 forward 7 unknown #
edge $-1 $251 -13.212312222162774 $367 -5.7285218894139824e-014 $150 $369 forward 7 unknown #
coedge $-1 $151 $359 $365 $370 forward $249 $-1 #
loop $-1 $-1 $359 $237 #
vertex $-1 $246 $371 #
vertex $-1 $152 $372 #
straight-curve $-1 63.25344090120106 -91.32698054689692 20.635184629829354 0 1 0 I I #
coedge $-1 $253 $253 $-1 $373 reversed $155 $-1 #
edge $-1 $374 0 $374 6.2831853071796004 $156 $375 forward 7 unknown #
vertex $-1 $159 $376 #
ellipse-curve $-1 54.808157264399625 -46.305360510831157 14.914085565168223 0 -0.86602541151947299 0.49999998660252726 2.5 0 0 1 I I #
face $-1 $-1 $175 $24 $-1 $377 reversed single #
loop $-1 $-1 $273 $160 #
plane-surface $-1 0 49.608438477866031 0 0 -1 0 0 0 -1 forward_v I I I I #
coedge $-1 $378 $271 $274 $379 forward $161 $-1 #
coedge $-1 $277 $163 $164 $265 reversed $100 $-1 #
coedge $-1 $271 $378 $163 $263 reversed $161 $-1 #
edge $-1 $278 -20.635184629829354 $380 20.635184629829354 $262 $381 forward 7 unknown #
coedge $-1 $165 $164 $378 $382 forward $65 $-1 #
edge $-1 $269 -76.813867610705898 $380 76.813867610705898 $261 $383 forward 7 unknown #
coedge $-1 $274 $273 $165 $267 reversed $258 $-1 #
edge $-1 $384 -76.813867610705898 $268 76.813867610705898 $266 $385 forward 7 unknown #
vertex $-1 $167 $386 #
vertex $-1 $280 $387 #
straight-curve $-1 76.813867610705898 0 -20.635184629829354 0 -1 0 I I #
coedge $-1 $260 $262 $168 $272 reversed $161 $-1 #
edge $-1 $275 -49.608438477866031 $278 49.608438477866031 $271 $388 forward 7 unknown #
coedge $-1 $266 $169 $174 $281 forward $258 $-1 #
coedge $-1 $169 $266 $260 $379 reversed $258 $-1 #
vertex $-1 $170 $389 #
straight-curve $-1 0 49.608438477866031 20.635184629829354 -1 0 0 I I #
coedge $-1 $171 $261 $173 $280 reversed $100 $-1 #
vertex $-1 $272 $390 #
straight-curve $-1 0 -49.608438477866031 20.635184629829354 1 0 0 I I #
edge $-1 $176 -20.635184629829354 $269 20.635184629829354 $173 $391 forward 7 unknown #
edge $-1 $177 -20.635184629829354 $268 20.635184629829354 $174 $392 forward 7 unknown #
point $-1 76.813867610705898 -49.608438477866031 20.635184629829354 #
point $-1 76.813867610705898 49.608438477866031 20.635184629829354 #
face $-1 $-1 $194 $25 $-1 $393 reversed single #
loop $-1 $-1 $293 $179 #
plane-surface $-1 0 0 20.635184629829354 0 0 1 1 0 0 forward_v I I I I #
coedge $-1 $299 $298 $183 $292 forward $180 $-1 #
coedge $-1 $185 $182 $299 $394 reversed $108 $-1 #
coedge $-1 $182 $185 $302 $395 reversed $108 $-1 #
edge $-1 $304 -20.635184629829354 $300 20.635184629829354 $182 $396 forward 7 unknown #
coedge $-1 $184 $183 $306 $397 reversed $69 $-1 #
edge $-1 $398 -44.991580475577976 $296 -18.652993794677879 $287 $399 forward 7 unknown #
coedge $-1 $303 $302 $184 $294 forward $285 $-1 #
edge $-1 $295 18.652993794677879 $400 44.991580475577976 $293 $401 forward 7 unknown #
vertex $-1 $294 $402 #
vertex $-1 $292 $403 #
straight-curve $-1 -50.475280929805805 -8.3380692182073268 0 0 0 -1 I I #
coedge $-1 $287 $188 $193 $308 forward $180 $-1 #
coedge $-1 $188 $287 $288 $394 forward $180 $-1 #
vertex $-1 $189 $404 #
straight-curve $-1 -31.822287135127926 -17.461582930362535 -20.635184629829354 -1 0 0 I I #
coedge $-1 $293 $190 $289 $395 forward $285 $-1 #
coedge $-1 $190 $293 $192 $307 forward $285 $-1 #
vertex $-1 $191 $405 #
straight-curve $-1 -31.822287135127926 -17.461582930362535 20.635184629829354 1 0 0 I I #
coedge $-1 $193 $192 $291 $397 forward $194 $-1 #
edge $-1 $400 8.3380692182073268 $196 17.461582930362535 $192 $406 forward 7 unknown #
edge $-1 $195 -17.461582930362535 $398 -8.3380692182073268 $193 $407 forward 7 unknown #
point $-1 -76.813867610705898 -17.461582930362535 -20.635184629829354 #
point $-1 -76.813867610705898 -17.461582930362535 20.635184629829354 #
plane-surface $-1 0 0 20.635184629829354 0 0 1 1 0 0 forward_v I I I I #
coedge $-1 $322 $321 $314 $408 forward $199 $-1 #
coedge $-1 $314 $201 $203 $318 reversed $116 $-1 #
coedge $-1 $201 $313 $312 $408 reversed $116 $-1 #
coedge $-1 $209 $204 $201 $316 forward $210 $-1 #
edge $-1 $319 -0.3364668728803224 $409 16.604862278153327 $315 $410 forward 7 unknown #
coedge $-1 $203 $202 $322 $411 reversed $73 $-1 #
edge $-1 $412 -99.216876955732062 $319 -77.718021510960639 $313 $413 forward 7 unknown #
vertex $-1 $205 $414 #
straight-curve $-1 28.196391536926797 32.667109326832389 20.63518462982935 1 0 0 I I #
coedge $-1 $312 $206 $209 $326 reversed $199 $-1 #
coedge $-1 $206 $312 $317 $411 forward $199 $-1 #
vertex $-1 $207 $415 #
straight-curve $-1 44.718363271876825 49.608438477866031 94.771741746360604 0 0 1 I I #
straight-curve $-1 44.718363271876825 -28.575526904042377 68.483177012696231 0 0.78801074757464917 -0.61566148304635926 I I #
edge $-1 $409 -68.067202875830361 $211 -44.718363271876825 $321 $416 forward 7 unknown #
point $-1 44.718363271876825 49.608438477866031 20.635184629829354 #
point $-1 44.718363271876825 32.667109326832382 20.635184629829354 #
edge $-1 $417 1 $417 0 $214 $-1 forward 7 unknown #
vertex $-1 $215 $418 #
ellipse-curve $-1 56.392783073853593 34.632208448907136 5.6904321197092846 0 0.61566148304635926 0.78801074757464917 3 0 0 1 I I #
point $-1 59.392783073853593 41.137773902349238 14.017176016365726 #
loop $-1 $-1 $226 $218 #
plane-surface $-1 0 -49.608438477866031 0 0 1 0 0 0 1 forward_v I I I I #
coedge $-1 $336 $221 $223 $340 reversed $131 $-1 #
coedge $-1 $221 $335 $419 $420 reversed $131 $-1 #
coedge $-1 $229 $224 $221 $338 forward $219 $-1 #
edge $-1 $341 -48.324698003100657 $421 -41.718542069030889 $337 $422 forward 7 unknown #
coedge $-1 $223 $222 $344 $423 reversed $82 $-1 #
edge $-1 $424 5.7285218894139824e-014 $341 13.212312222162774 $335 $425 forward 7 unknown #
vertex $-1 $225 $426 #
straight-curve $-1 -14.234785291749766 -43.002282543796269 20.635184629829354 -1 0 0 I I #
coedge $-1 $419 $226 $229 $348 reversed $333 $-1 #
coedge $-1 $226 $419 $339 $423 forward $333 $-1 #
vertex $-1 $227 $427 #
straight-curve $-1 -20.024286946698101 -49.608438477866031 43.003426026494786 0 0 1 I I #
straight-curve $-1 -20.024286946698101 -49.608438477866059 9.1929865005070752 0 -0.49999998660252726 -0.86602541151947299 I I #
edge $-1 $421 -36.914854220300967 $230 -20.024286946698101 $343 $428 forward 7 unknown #
point $-1 -20.024286946698101 -49.608438477866031 20.635184629829354 #
point $-1 -20.024286946698101 -43.002282543796262 20.635184629829354 #
edge $-1 $429 1 $429 0 $233 $-1 forward 7 unknown #
vertex $-1 $234 $430 #
ellipse-curve $-1 -28.469570583499532 -40.647994734309876 11.647804027882605 0 -0.86602541151947299 0.49999998660252726 2.5 0 0 1 I I #
point $-1 -25.969570583499532 -46.305360510831136 14.914085565168211 #
plane-surface $-1 0 0 20.635184629829354 0 0 1 1 0 0 forward_v I I I I #
coedge $-1 $366 $365 $358 $431 forward $238 $-1 #
coedge $-1 $358 $240 $242 $362 reversed $146 $-1 #
coedge $-1 $240 $357 $356 $431 reversed $146 $-1 #
coedge $-1 $248 $243 $240 $360 forward $249 $-1 #
edge $-1 $363 -48.324698003100657 $432 -41.718542069030889 $359 $433 forward 7 unknown #
coedge $-1 $242 $241 $366 $434 reversed $91 $-1 #
edge $-1 $435 5.7285218894139824e-014 $363 13.212312222162774 $357 $436 forward 7 unknown #
vertex $-1 $244 $437 #
straight-curve $-1 27.404078632199813 -43.002282543796269 20.635184629829354 -1 0 0 I I #
coedge $-1 $356 $245 $248 $370 reversed $238 $-1 #
coedge $-1 $245 $356 $361 $434 forward $238 $-1 #
vertex $-1 $246 $438 #
straight-curve $-1 63.25344090120106 -49.608438477866031 43.003426026494786 0 0 1 I I #
straight-curve $-1 63.25344090120106 -49.608438477866059 9.1929865005070752 0 -0.49999998660252726 -0.86602541151947299 I I #
edge $-1 $432 46.362873627598191 $250 63.25344090120106 $365 $439 forward 7 unknown #
point $-1 63.25344090120106 -49.608438477866031 20.635184629829354 #
point $-1 63.25344090120106 -43.002282543796262 20.635184629829354 #
edge $-1 $440 1 $440 0 $253 $-1 forward 7 unknown #
vertex $-1 $254 $441 #
ellipse-curve $-1 54.808157264399625 -40.647994734309876 11.647804027882605 0 -0.86602541151947299 0.49999998660252726 2.5 0 0 1 I I #
point $-1 57.308157264399625 -46.305360510831136 14.914085565168211 #
plane-surface $-1 76.813867610705898 0 0 -1 0 0 0 0 1 forward_v I I I I #
coedge $-1 $262 $260 $264 $382 reversed $161 $-1 #
edge $-1 $275 -20.635184629829354 $384 20.635184629829354 $274 $442 forward 7 unknown #
vertex $-1 $382 $443 #
straight-curve $-1 -76.813867610705898 -49.608438477866031 0 0 0 -1 I I #
edge $-1 $380 -49.608438477866031 $384 49.608438477866031 $378 $444 forward 7 unknown #
straight-curve $-1 0 -49.608438477866031 -20.635184629829354 -1 0 0 I I #
vertex $-1 $267 $445 #
straight-curve $-1 0 49.608438477866031 -20.635184629829354 1 0 0 I I #
point $-1 76.813867610705898 49.608438477866031 -20.635184629829354 #
point $-1 76.813867610705898 -49.608438477866031 -20.635184629829354 #
straight-curve $-1 -76.813867610705898 0 20.635184629829354 0 -1 0 I I #
point $-1 -76.813867610705898 49.608438477866031 20.635184629829354 #
point $-1 -76.813867610705898 -49.608438477866031 20.635184629829354 #
straight-curve $-1 76.813867610705898 -49.608438477866031 0 0 0 -1 I I #
straight-curve $-1 76.813867610705898 49.608438477866031 0 0 0 -1 I I #
plane-surface $-1 -76.813867610705898 0 0 1 0 0 0 0 -1 forward_v I I I I #
edge $-1 $296 1.8881561810648613 $300 11.01166989322007 $299 $446 forward 7 unknown #
edge $-1 $304 -11.01166989322007 $295 -1.8881561810648613 $302 $447 forward 7 unknown #
straight-curve $-1 -50.475280929805805 -17.461582930362535 0 0 0 -1 I I #
edge $-1 $400 -20.635184629829354 $398 20.635184629829354 $306 $448 forward 7 unknown #
vertex $-1 $397 $449 #
straight-curve $-1 -31.822287135127926 -8.3380692182073268 -20.635184629829354 1 0 0 I I #
vertex $-1 $307 $450 #
straight-curve $-1 -31.822287135127926 -8.3380692182073268 20.635184629829354 -1 0 0 I I #
point $-1 -50.475280929805805 -8.3380692182073268 20.635184629829354 #
point $-1 -50.475280929805805 -8.3380692182073268 -20.635184629829354 #
point $-1 -50.475280929805805 -17.461582930362535 -20.635184629829354 #
point $-1 -50.475280929805805 -17.461582930362535 20.635184629829354 #
straight-curve $-1 -76.813867610705898 0 20.635184629829354 0 -1 0 I I #
straight-curve $-1 -76.813867610705898 0 -20.635184629829354 0 1 0 I I #
edge $-1 $409 74.13655711653125 $412 87.372574343458524 $312 $451 forward 7 unknown #
vertex $-1 $326 $452 #
straight-curve $-1 68.067202875830361 33.003576199712704 20.635184629829354 0 1 0 I I #
edge $-1 $412 -39.870811338903565 $323 -16.521971734950029 $322 $453 forward 7 unknown #
vertex $-1 $411 $454 #
straight-curve $-1 68.067202875830361 -28.575526904042377 68.483177012696231 0 -0.78801074757464917 0.61566148304635926 I I #
point $-1 68.067202875830361 32.667109326832382 20.635184629829354 #
point $-1 44.718363271876825 49.608438477866031 7.3991674029020871 #
straight-curve $-1 0 49.608438477866031 20.635184629829354 -1 0 0 I I #
vertex $-1 $329 $455 #
point $-1 59.392783073853593 34.632208448907136 5.6904321197092846 #
coedge $-1 $344 $343 $336 $420 forward $333 $-1 #
edge $-1 $421 22.368241396665432 $424 33.810439525987661 $419 $456 forward 7 unknown #
vertex $-1 $348 $457 #
straight-curve $-1 -36.914854220300967 -91.32698054689692 20.635184629829354 0 -1 0 I I #
edge $-1 $424 -22.680068928551201 $345 -5.7895016549483351 $344 $458 forward 7 unknown #
vertex $-1 $423 $459 #
straight-curve $-1 -36.914854220300967 -49.608438477866059 9.1929865005070752 0 0.49999998660252726 0.86602541151947299 I I #
point $-1 -36.914854220300967 -43.002282543796262 20.635184629829354 #
point $-1 -20.024286946698101 -49.608438477866031 9.192986500507125 #
straight-curve $-1 0 -49.608438477866031 20.635184629829354 1 0 0 I I #
vertex $-1 $351 $460 #
point $-1 -25.969570583499532 -40.647994734309876 11.647804027882605 #
edge $-1 $432 22.368241396665432 $435 33.810439525987661 $356 $461 forward 7 unknown #
vertex $-1 $370 $462 #
straight-curve $-1 46.362873627598191 -91.32698054689692 20.635184629829354 0 -1 0 I I #
edge $-1 $435 18.958794995398378 $367 35.849362269001247 $366 $463 forward 7 unknown #
vertex $-1 $434 $464 #
straight-curve $-1 46.362873627598191 -49.608438477866059 9.1929865005070752 0 0.49999998660252726 0.86602541151947299 I I #
point $-1 46.362873627598191 -43.002282543796262 20.635184629829354 #
point $-1 63.25344090120106 -49.608438477866031 9.192986500507125 #
straight-curve $-1 0 -49.608438477866031 20.635184629829354 1 0 0 I I #
vertex $-1 $373 $465 #
point $-1 57.308157264399625 -40.647994734309876 11.647804027882605 #
straight-curve $-1 -76.813867610705898 49.608438477866031 0 0 0 -1 I I #
point $-1 -76.813867610705898 -49.608438477866031 -20.635184629829354 #
straight-curve $-1 -76.813867610705898 0 -20.635184629829354 0 1 0 I I #
point $-1 -76.813867610705898 49.608438477866031 -20.635184629829354 #
straight-curve $-1 -50.475280929805805 -6.4499130371424656 -20.635184629829354 0 -1 0 I I #
straight-curve $-1 -50.475280929805805 -6.4499130371424656 20.635184629829354 0 1 0 I I #
straight-curve $-1 -76.813867610705898 -8.3380692182073268 0 0 0 -1 I I #
point $-1 -76.813867610705898 -8.3380692182073268 -20.635184629829354 #
point $-1 -76.813867610705898 -8.3380692182073268 20.635184629829354 #
straight-curve $-1 68.067202875830361 49.608438477866031 94.771741746360604 0 0 -1 I I #
point $-1 68.067202875830361 49.608438477866031 20.635184629829354 #
straight-curve $-1 28.196391536926797 49.608438477866031 7.3991674029020764 -1 0 0 I I #
point $-1 68.067202875830361 49.608438477866031 7.3991674029020871 #
point $-1 56.392783073853593 32.78522399976805 3.3263998769853353 #
straight-curve $-1 -36.914854220300967 -49.608438477866031 43.003426026494786 0 0 -1 I I #
point $-1 -36.914854220300967 -49.608438477866031 20.635184629829354 #
straight-curve $-1 -14.234785291749766 -49.608438477866031 9.1929865005071267 1 0 0 I I #
point $-1 -36.914854220300967 -49.608438477866031 9.192986500507125 #
point $-1 -28.469570583499532 -38.482931205511193 10.397804061376286 #
straight-curve $-1 46.362873627598191 -49.608438477866031 43.003426026494786 0 0 -1 I I #
point $-1 46.362873627598191 -49.608438477866031 20.635184629829354 #
straight-curve $-1 27.404078632199813 -49.608438477866031 9.1929865005071267 1 0 0 I I #
point $-1 46.362873627598191 -49.608438477866031 9.192986500507125 #
point $-1 54.808157264399625 -38.482931205511193 10.397804061376286 #
End-of-ACIS-data 