500 0 6 0           
7 Unknown 11 ACIS 5.0 NT 24 Fri Mar 26 20:21:56 1999 
-1 9.9999999999999995e-007 1e-010 
body $-1 $6 $-1 $7 #
body $-1 $8 $-1 $9 #
body $-1 $10 $-1 $11 #
body $-1 $12 $-1 $13 #
body $-1 $14 $-1 $15 #
body $-1 $16 $-1 $17 #
lump $-1 $-1 $18 $0 #
transform $-1 1 0 0 0 1 0 0 0 1 78.013855403302102 54.2682825139673 18.598152973741747 1 rotate no_reflect no_shear #
lump $-1 $-1 $19 $1 #
transform $-1 1 0 0 0 1 0 0 0 1 78.013855403302102 54.2682825139673 18.598152973741747 1 rotate no_reflect no_shear #
lump $-1 $-1 $20 $2 #
transform $-1 1 0 0 0 1 0 0 0 1 78.013855403302102 54.2682825139673 18.598152973741747 1 rotate no_reflect no_shear #
lump $-1 $-1 $21 $3 #
transform $-1 1 0 0 0 1 0 0 0 1 78.013855403302102 54.2682825139673 18.598152973741747 1 rotate no_reflect no_shear #
lump $-1 $-1 $22 $4 #
transform $-1 1 0 0 0 1 0 0 0 1 78.013855403302102 54.2682825139673 18.598152973741747 1 rotate no_reflect no_shear #
lump $-1 $-1 $23 $5 #
transform $-1 1 0 0 0 1 0 0 0 1 78.013855403302102 54.2682825139673 18.598152973741747 1 rotate no_reflect no_shear #
shell $-1 $-1 $-1 $24 $-1 $6 #
shell $-1 $-1 $-1 $25 $-1 $8 #
shell $-1 $-1 $-1 $26 $-1 $10 #
shell $-1 $-1 $-1 $27 $-1 $12 #
shell $-1 $-1 $-1 $28 $-1 $14 #
shell $-1 $-1 $-1 $29 $-1 $16 #
face $-1 $30 $31 $18 $-1 $32 forward single #
face $-1 $33 $34 $19 $-1 $35 forward single #
face $-1 $36 $37 $20 $-1 $38 reversed single #
face $-1 $39 $40 $21 $-1 $41 forward single #
face $-1 $42 $43 $22 $-1 $44 reversed single #
face $-1 $45 $46 $23 $-1 $47 forward single #
face $-1 $48 $49 $18 $-1 $50 reversed single #
loop $-1 $-1 $51 $24 #
plane-surface $-1 0 0 18.598152973741747 0 0 1 1 0 0 forward_v I I I I #
face $-1 $52 $53 $19 $-1 $54 forward single #
loop $-1 $-1 $55 $25 #
plane-surface $-1 0 -54.2682825139673 0 0 1 0 0 0 1 forward_v I I I I #
face $-1 $56 $57 $20 $-1 $58 reversed single #
loop $-1 $-1 $59 $26 #
plane-surface $-1 -176.20527660202339 21.219987400088051 126.84825670143437 0 1 0 -0.62932039886446345 0 0.77714595512881146 forward_v I I I I #
face $-1 $60 $61 $21 $-1 $62 forward single #
loop $-1 $63 $64 $27 #
cone-surface $-1 -69.218262086932498 27.489572105891661 11.150438600900292 0.62932039886446345 0 -0.77714595512881146 1.1657189326932171 0 0.94398059829669512 1 I I 0 1 1.5 forward I I I I #
face $-1 $65 $66 $22 $-1 $67 reversed single #
loop $-1 $-1 $68 $28 #
plane-surface $-1 54.948972260662998 33.75915681169527 225.03967790015568 0 -1 0 -0.62932039886446345 0 -0.77714595512881146 forward_v I I I I #
face $-1 $69 $70 $23 $-1 $71 forward single #
loop $-1 $72 $73 $29 #
cone-surface $-1 69.218262086932498 27.489572105891661 11.150438600900282 -0.62932039886446345 0 -0.77714595512881146 1.1657189326932171 0 -0.94398059829669512 1 I I 0 1 1.5 forward I I I I #
face $-1 $74 $75 $18 $-1 $76 reversed single #
loop $-1 $-1 $77 $30 #
plane-surface $-1 0 0 -18.598152973741747 0 0 1 1 0 0 forward_v I I I I #
coedge $-1 $78 $79 $80 $81 forward $31 $-1 #
face $-1 $82 $83 $19 $-1 $84 reversed single #
loop $-1 $-1 $85 $33 #
plane-surface $-1 0 0 18.598152973741747 0 0 1 1 0 0 forward_v I I I I #
coedge $-1 $86 $87 $88 $89 forward $34 $-1 #
face $-1 $90 $91 $20 $-1 $92 reversed single #
loop $-1 $-1 $93 $36 #
plane-surface $-1 -78.013855403302074 27.489572105891661 5.5919523600739609 -0.62932039886446345 0 0.77714595512881146 0.77714595512881146 0 0.62932039886446345 forward_v I I I I #
coedge $-1 $94 $95 $96 $97 reversed $37 $-1 #
face $-1 $-1 $98 $21 $-1 $99 forward single #
loop $-1 $100 $101 $39 #
cone-surface $-1 -67.981338383872469 27.489572105891661 9.6229650685461046 0.62932039886446345 0 -0.77714595512881146 0.58285946634660857 0 0.47199029914834756 1 I I -0.70710678118654757 0.70710678118654757 0.75 forward I I I I #
loop $-1 $-1 $102 $27 #
coedge $-1 $64 $64 $103 $104 reversed $40 $-1 #
face $-1 $105 $106 $22 $-1 $107 reversed single #
loop $-1 $-1 $108 $42 #
plane-surface $-1 -43.242448938058317 27.489572105891661 103.78337355879528 0.62932039886446345 0 0.77714595512881146 0.77714595512881146 0 -0.62932039886446345 forward_v I I I I #
coedge $-1 $109 $110 $111 $112 reversed $43 $-1 #
face $-1 $-1 $113 $23 $-1 $114 forward single #
loop $-1 $115 $116 $45 #
cone-surface $-1 67.981338383872469 27.489572105891661 9.6229650685460939 -0.62932039886446345 0 -0.77714595512881146 0.58285946634660857 0 -0.47199029914834756 1 I I -0.70710678118654757 0.70710678118654757 0.75 forward I I I I #
loop $-1 $-1 $117 $29 #
coedge $-1 $73 $73 $118 $119 reversed $46 $-1 #
face $-1 $120 $121 $18 $-1 $122 reversed single #
loop $-1 $-1 $123 $48 #
plane-surface $-1 0 -54.2682825139673 0 0 1 0 0 0 1 forward_v I I I I #
coedge $-1 $124 $125 $126 $127 forward $49 $-1 #
coedge $-1 $128 $51 $129 $130 forward $31 $-1 #
coedge $-1 $51 $128 $131 $132 forward $31 $-1 #
coedge $-1 $133 $134 $51 $81 reversed $135 $-1 #
edge $-1 $136 -54.2682825139673 $137 54.2682825139673 $80 $138 forward 7 unknown #
face $-1 $139 $140 $19 $-1 $141 reversed single #
loop $-1 $-1 $142 $52 #
plane-surface $-1 -78.013855403302102 0 0 1 0 0 0 0 -1 forward_v I I I I #
coedge $-1 $143 $144 $87 $145 forward $53 $-1 #
coedge $-1 $146 $55 $147 $148 reversed $34 $-1 #
coedge $-1 $55 $146 $85 $145 reversed $34 $-1 #
coedge $-1 $149 $150 $55 $89 reversed $151 $-1 #
edge $-1 $152 -18.598152973741747 $153 18.598152973741747 $88 $154 forward 7 unknown #
face $-1 $155 $156 $20 $-1 $157 reversed single #
loop $-1 $-1 $158 $56 #
plane-surface $-1 -176.20527660202339 33.75915681169527 126.84825670143437 0 -1 0 0.62932039886446345 0 -0.77714595512881146 forward_v I I I I #
coedge $-1 $159 $160 $161 $162 reversed $57 $-1 #
coedge $-1 $95 $59 $163 $164 reversed $37 $-1 #
coedge $-1 $59 $94 $159 $165 reversed $37 $-1 #
coedge $-1 $161 $166 $59 $97 forward $167 $-1 #
edge $-1 $168 10.088782897709592 $169 26.150102722625519 $96 $170 forward 7 unknown #
loop $-1 $-1 $103 $60 #
plane-surface $-1 -78.013855403302074 27.489572105891661 5.5919523600739609 -0.62932039886446345 0 0.77714595512881146 0.77714595512881146 0 0.62932039886446345 forward_v I I I I #
loop $-1 $-1 $171 $39 #
coedge $-1 $101 $101 $102 $172 reversed $61 $-1 #
coedge $-1 $102 $102 $101 $172 forward $63 $-1 #
coedge $-1 $103 $103 $64 $104 forward $98 $-1 #
edge $-1 $173 0 $173 6.2831853071796004 $103 $174 forward 7 unknown #
face $-1 $175 $176 $22 $-1 $177 forward single #
loop $-1 $-1 $178 $65 #
plane-surface $-1 54.948972260662998 21.219987400088051 225.03967790015568 0 1 0 0.62932039886446345 0 0.77714595512881146 forward_v I I I I #
coedge $-1 $179 $180 $181 $182 reversed $66 $-1 #
coedge $-1 $110 $68 $183 $184 reversed $43 $-1 #
coedge $-1 $68 $109 $179 $185 reversed $43 $-1 #
coedge $-1 $181 $186 $68 $112 forward $176 $-1 #
edge $-1 $187 -50.539369272970603 $188 -34.478049448054705 $111 $189 forward 7 unknown #
loop $-1 $-1 $118 $69 #
plane-surface $-1 -43.242448938058317 27.489572105891661 103.78337355879528 0.62932039886446345 0 0.77714595512881146 0.77714595512881146 0 -0.62932039886446345 forward_v I I I I #
loop $-1 $-1 $190 $45 #
coedge $-1 $116 $116 $117 $191 reversed $70 $-1 #
coedge $-1 $117 $117 $116 $191 forward $72 $-1 #
coedge $-1 $118 $118 $73 $119 forward $113 $-1 #
edge $-1 $192 0 $192 6.2831853071796004 $118 $193 forward 7 unknown #
face $-1 $194 $195 $18 $-1 $196 reversed single #
loop $-1 $-1 $197 $74 #
plane-surface $-1 -78.013855403302102 0 0 1 0 0 0 0 -1 forward_v I I I I #
coedge $-1 $198 $131 $199 $200 forward $75 $-1 #
coedge $-1 $201 $77 $198 $202 forward $49 $-1 #
coedge $-1 $77 $201 $203 $204 forward $49 $-1 #
coedge $-1 $134 $133 $77 $127 reversed $135 $-1 #
edge $-1 $205 -54.2682825139673 $206 54.2682825139673 $126 $207 forward 7 unknown #
coedge $-1 $79 $78 $208 $209 forward $31 $-1 #
coedge $-1 $210 $211 $78 $130 reversed $195 $-1 #
edge $-1 $137 -78.013855403302102 $212 78.013855403302102 $129 $213 forward 7 unknown #
coedge $-1 $123 $214 $79 $132 reversed $75 $-1 #
edge $-1 $215 -78.013855403302102 $136 78.013855403302102 $131 $216 forward 7 unknown #
coedge $-1 $126 $80 $214 $217 forward $135 $-1 #
coedge $-1 $80 $126 $210 $218 reversed $135 $-1 #
loop $-1 $-1 $133 $194 #
vertex $-1 $81 $219 #
vertex $-1 $81 $220 #
straight-curve $-1 78.013855403302102 0 18.598152973741747 0 1 0 I I #
face $-1 $221 $151 $19 $-1 $222 reversed single #
loop $-1 $-1 $223 $82 #
plane-surface $-1 -74.561161401575717 -74.46639768915017 0 0 1 0 0 0 1 forward_v I I I I #
coedge $-1 $224 $225 $146 $226 forward $83 $-1 #
coedge $-1 $227 $85 $225 $228 forward $53 $-1 #
coedge $-1 $85 $227 $149 $229 forward $53 $-1 #
edge $-1 $152 71.108467399849332 $230 78.013855403302102 $85 $231 forward 7 unknown #
coedge $-1 $87 $86 $142 $226 reversed $34 $-1 #
coedge $-1 $232 $233 $86 $148 forward $234 $-1 #
edge $-1 $235 -78.013855403302102 $153 -71.108467399849332 $147 $236 forward 7 unknown #
coedge $-1 $237 $88 $144 $229 reversed $151 $-1 #
coedge $-1 $88 $237 $232 $238 reversed $151 $-1 #
loop $-1 $-1 $237 $139 #
vertex $-1 $145 $239 #
vertex $-1 $238 $240 #
straight-curve $-1 -71.108467399849332 -54.2682825139673 0 0 0 -1 I I #
face $-1 $-1 $167 $20 $-1 $241 forward single #
loop $-1 $-1 $242 $90 #
plane-surface $-1 -78.013855403302102 0 0 1 0 0 0 0 -1 forward_v I I I I #
coedge $-1 $243 $244 $245 $246 reversed $91 $-1 #
coedge $-1 $247 $93 $95 $165 forward $57 $-1 #
coedge $-1 $93 $247 $243 $248 forward $57 $-1 #
coedge $-1 $245 $96 $93 $162 forward $167 $-1 #
edge $-1 $169 7.475201347142221 $249 20.01437075874944 $161 $250 forward 7 unknown #
coedge $-1 $251 $252 $94 $164 forward $156 $-1 #
edge $-1 $253 -57.832175990643243 $168 -44.825975376975435 $163 $254 forward 7 unknown #
edge $-1 $169 -20.667057093868223 $253 3.6620485252745651e-014 $95 $255 forward 7 unknown #
coedge $-1 $96 $245 $251 $256 forward $167 $-1 #
loop $-1 $-1 $245 $155 #
vertex $-1 $164 $257 #
vertex $-1 $97 $258 #
straight-curve $-1 -88.102638301011694 21.219987400088051 18.598152973741747 1 0 0 I I #
coedge $-1 $171 $171 $-1 $259 reversed $100 $-1 #
edge $-1 $260 0 $260 6.2831853071796004 $101 $261 forward 7 unknown #
vertex $-1 $104 $262 #
ellipse-curve $-1 -69.983195490844153 27.489572105891661 12.095052666907838 -0.62932039886446345 0 0.77714595512881146 1.1657189326932171 0 0.94398059829669512 1 I I #
face $-1 $-1 $263 $22 $-1 $264 reversed single #
loop $-1 $-1 $111 $105 #
plane-surface $-1 0 0 18.598152973741747 0 0 1 1 0 0 forward_v I I I I #
coedge $-1 $265 $266 $267 $268 reversed $106 $-1 #
coedge $-1 $269 $108 $110 $185 forward $66 $-1 #
coedge $-1 $108 $269 $265 $270 forward $66 $-1 #
coedge $-1 $267 $111 $108 $182 forward $176 $-1 #
edge $-1 $188 -20.01437075874944 $271 -7.475201347142221 $181 $272 forward 7 unknown #
coedge $-1 $273 $274 $109 $184 forward $263 $-1 #
edge $-1 $275 -106.92788659000389 $187 -93.921685976336093 $183 $276 forward 7 unknown #
edge $-1 $188 135.360653712736 $275 156.02771080660423 $110 $277 forward 7 unknown #
coedge $-1 $111 $267 $273 $278 forward $176 $-1 #
vertex $-1 $112 $279 #
vertex $-1 $112 $280 #
straight-curve $-1 27.474486130331499 33.75915681169527 18.598152973741747 -1 0 0 I I #
coedge $-1 $190 $190 $-1 $281 reversed $115 $-1 #
edge $-1 $282 0 $282 6.2831853071796004 $116 $283 forward 7 unknown #
vertex $-1 $119 $284 #
ellipse-curve $-1 69.983195490844153 27.489572105891661 12.095052666907844 0.62932039886446345 0 0.77714595512881146 1.1657189326932171 0 -0.94398059829669512 1 I I #
face $-1 $-1 $135 $18 $-1 $285 reversed single #
loop $-1 $-1 $210 $120 #
plane-surface $-1 0 54.2682825139673 0 0 -1 0 0 0 -1 forward_v I I I I #
coedge $-1 $286 $208 $211 $287 forward $121 $-1 #
coedge $-1 $214 $123 $124 $202 reversed $75 $-1 #
coedge $-1 $208 $286 $123 $200 reversed $121 $-1 #
edge $-1 $215 -18.598152973741747 $288 18.598152973741747 $199 $289 forward 7 unknown #
coedge $-1 $125 $124 $286 $290 forward $49 $-1 #
edge $-1 $206 -78.013855403302102 $288 78.013855403302102 $198 $291 forward 7 unknown #
coedge $-1 $211 $210 $125 $204 reversed $195 $-1 #
edge $-1 $292 -78.013855403302102 $205 78.013855403302102 $203 $293 forward 7 unknown #
vertex $-1 $127 $294 #
vertex $-1 $217 $295 #
straight-curve $-1 78.013855403302102 0 -18.598152973741747 0 -1 0 I I #
coedge $-1 $197 $199 $128 $209 reversed $121 $-1 #
edge $-1 $212 -54.2682825139673 $215 54.2682825139673 $208 $296 forward 7 unknown #
coedge $-1 $203 $129 $134 $218 forward $195 $-1 #
coedge $-1 $129 $203 $197 $287 reversed $195 $-1 #
vertex $-1 $130 $297 #
straight-curve $-1 0 54.2682825139673 18.598152973741747 -1 0 0 I I #
coedge $-1 $131 $198 $133 $217 reversed $75 $-1 #
vertex $-1 $209 $298 #
straight-curve $-1 0 -54.2682825139673 18.598152973741747 1 0 0 I I #
edge $-1 $136 -18.598152973741747 $206 18.598152973741747 $133 $299 forward 7 unknown #
edge $-1 $137 -18.598152973741747 $205 18.598152973741747 $134 $300 forward 7 unknown #
point $-1 78.013855403302102 -54.2682825139673 18.598152973741747 #
point $-1 78.013855403302102 54.2682825139673 18.598152973741747 #
face $-1 $-1 $234 $19 $-1 $301 reversed single #
plane-surface $-1 -71.108467399849332 -64.367340101558739 0 -1 0 0 0 0 1 forward_v I I I I #
coedge $-1 $302 $303 $304 $305 forward $140 $-1 #
coedge $-1 $304 $142 $233 $306 reversed $83 $-1 #
coedge $-1 $142 $304 $143 $228 reversed $83 $-1 #
edge $-1 $230 -18.598152973741747 $235 18.598152973741747 $142 $307 forward 7 unknown #
coedge $-1 $144 $143 $303 $308 forward $53 $-1 #
edge $-1 $230 54.2682825139673 $309 74.46639768915017 $225 $310 forward 7 unknown #
edge $-1 $311 -10.099057587591432 $152 10.099057587591432 $149 $312 forward 7 unknown #
vertex $-1 $228 $313 #
straight-curve $-1 0 -54.2682825139673 18.598152973741747 -1 0 0 I I #
coedge $-1 $314 $147 $150 $238 forward $234 $-1 #
coedge $-1 $147 $314 $224 $306 forward $234 $-1 #
loop $-1 $-1 $147 $221 #
vertex $-1 $226 $315 #
straight-curve $-1 0 -54.2682825139673 -18.598152973741747 1 0 0 I I #
coedge $-1 $150 $149 $316 $317 forward $151 $-1 #
edge $-1 $153 -10.099057587591432 $318 10.099057587591432 $150 $319 forward 7 unknown #
point $-1 -71.108467399849332 -54.268282513967307 18.598152973741747 #
point $-1 -71.108467399849332 -54.268282513967307 -18.598152973741747 #
plane-surface $-1 0 0 18.598152973741747 0 0 1 1 0 0 forward_v I I I I #
coedge $-1 $252 $251 $244 $320 forward $156 $-1 #
coedge $-1 $244 $158 $160 $248 reversed $91 $-1 #
coedge $-1 $158 $243 $242 $320 reversed $91 $-1 #
coedge $-1 $166 $161 $158 $246 forward $167 $-1 #
edge $-1 $249 -26.150102722625519 $321 -10.088782897709592 $245 $322 forward 7 unknown #
coedge $-1 $160 $159 $252 $323 reversed $57 $-1 #
edge $-1 $324 -3.6620485252745651e-014 $249 20.667057093868223 $243 $325 forward 7 unknown #
vertex $-1 $162 $326 #
straight-curve $-1 -61.952535578386183 13.74478605294583 18.598152973741747 0 1 0 I I #
coedge $-1 $242 $163 $166 $256 reversed $156 $-1 #
coedge $-1 $163 $242 $247 $323 forward $156 $-1 #
vertex $-1 $164 $327 #
straight-curve $-1 -78.013855403302102 21.219987400088051 63.424128350717183 0 0 1 I I #
straight-curve $-1 -78.013855403302074 21.219987400088051 5.5919523600739609 -0.77714595512881146 0 -0.62932039886446345 I I #
edge $-1 $321 -33.75915681169527 $168 -21.219987400088051 $251 $328 forward 7 unknown #
point $-1 -78.013855403302102 21.219987400088051 18.598152973741747 #
point $-1 -61.952535578386176 21.219987400088051 18.598152973741747 #
edge $-1 $329 1 $329 0 $171 $-1 forward 7 unknown #
vertex $-1 $172 $330 #
ellipse-curve $-1 -68.453328683020814 27.489572105891661 10.205824534892713 -0.62932039886446345 0 0.77714595512881146 1.1657189326932171 0 0.94398059829669512 1 I I #
point $-1 -68.817476558150943 27.489572105891661 13.039033265204564 #
loop $-1 $-1 $183 $175 #
plane-surface $-1 78.013855403302102 0 0 -1 0 0 0 0 1 forward_v I I I I #
coedge $-1 $266 $178 $180 $270 reversed $106 $-1 #
coedge $-1 $178 $265 $331 $332 reversed $106 $-1 #
coedge $-1 $186 $181 $178 $268 forward $176 $-1 #
edge $-1 $271 34.478049448054705 $333 50.539369272970603 $267 $334 forward 7 unknown #
coedge $-1 $180 $179 $274 $335 reversed $66 $-1 #
edge $-1 $336 -156.02771080660423 $271 -135.360653712736 $265 $337 forward 7 unknown #
vertex $-1 $182 $338 #
straight-curve $-1 61.95253557838619 13.74478605294583 18.598152973741747 0 -1 0 I I #
coedge $-1 $331 $183 $186 $278 reversed $263 $-1 #
coedge $-1 $183 $331 $269 $335 forward $263 $-1 #
vertex $-1 $184 $339 #
straight-curve $-1 78.013855403302102 33.75915681169527 112.51983895007784 0 0 1 I I #
straight-curve $-1 -43.242448938058317 33.75915681169527 103.78337355879528 0.77714595512881146 0 -0.62932039886446345 I I #
edge $-1 $333 21.219987400088051 $187 33.75915681169527 $273 $340 forward 7 unknown #
point $-1 78.013855403302102 33.75915681169527 18.598152973741747 #
point $-1 61.952535578386204 33.75915681169527 18.598152973741747 #
edge $-1 $341 1 $341 0 $190 $-1 forward 7 unknown #
vertex $-1 $191 $342 #
ellipse-curve $-1 68.453328683020814 27.489572105891661 10.205824534892702 0.62932039886446345 0 0.77714595512881146 1.1657189326932171 0 -0.94398059829669512 1 I I #
point $-1 71.148914423537377 27.489572105891661 11.151072068611164 #
plane-surface $-1 78.013855403302102 0 0 -1 0 0 0 0 1 forward_v I I I I #
coedge $-1 $199 $197 $201 $290 reversed $121 $-1 #
edge $-1 $212 -18.598152973741747 $292 18.598152973741747 $211 $343 forward 7 unknown #
vertex $-1 $290 $344 #
straight-curve $-1 -78.013855403302102 -54.2682825139673 0 0 0 -1 I I #
edge $-1 $288 -54.2682825139673 $292 54.2682825139673 $286 $345 forward 7 unknown #
straight-curve $-1 0 -54.2682825139673 -18.598152973741747 -1 0 0 I I #
vertex $-1 $204 $346 #
straight-curve $-1 0 54.2682825139673 -18.598152973741747 1 0 0 I I #
point $-1 78.013855403302102 54.2682825139673 -18.598152973741747 #
point $-1 78.013855403302102 -54.2682825139673 -18.598152973741747 #
straight-curve $-1 -78.013855403302102 0 18.598152973741747 0 -1 0 I I #
point $-1 -78.013855403302102 54.2682825139673 18.598152973741747 #
point $-1 -78.013855403302102 -54.2682825139673 18.598152973741747 #
straight-curve $-1 78.013855403302102 -54.2682825139673 0 0 0 -1 I I #
straight-curve $-1 78.013855403302102 54.2682825139673 0 0 0 -1 I I #
plane-surface $-1 0 0 -18.598152973741747 0 0 1 1 0 0 forward_v I I I I #
coedge $-1 $316 $223 $314 $347 reversed $140 $-1 #
coedge $-1 $223 $316 $227 $308 reversed $140 $-1 #
coedge $-1 $225 $224 $223 $305 reversed $83 $-1 #
edge $-1 $309 -18.598152973741747 $348 18.598152973741747 $304 $349 forward 7 unknown #
edge $-1 $348 -74.46639768915017 $235 -54.2682825139673 $224 $350 forward 7 unknown #
straight-curve $-1 -78.013855403302102 -54.2682825139673 0 0 0 -1 I I #
edge $-1 $309 -3.4526940017263854 $311 3.4526940017263854 $303 $351 forward 7 unknown #
vertex $-1 $228 $352 #
straight-curve $-1 -78.013855403302102 0 18.598152973741747 0 -1 0 I I #
vertex $-1 $229 $353 #
straight-curve $-1 -71.108467399849332 -64.367340101558739 18.598152973741747 0 1 0 I I #
point $-1 -78.013855403302102 -54.2682825139673 18.598152973741747 #
coedge $-1 $233 $232 $302 $347 forward $234 $-1 #
point $-1 -78.013855403302102 -54.2682825139673 -18.598152973741747 #
coedge $-1 $303 $302 $237 $317 reversed $140 $-1 #
edge $-1 $311 -18.598152973741747 $318 18.598152973741747 $237 $354 forward 7 unknown #
vertex $-1 $317 $355 #
straight-curve $-1 -71.108467399849332 -64.367340101558739 -18.598152973741747 0 -1 0 I I #
edge $-1 $321 44.825975376975435 $324 57.832175990643243 $242 $356 forward 7 unknown #
vertex $-1 $256 $357 #
straight-curve $-1 -88.102638301011694 33.75915681169527 18.598152973741747 -1 0 0 I I #
edge $-1 $324 -20.01437075874944 $253 -7.475201347142221 $252 $358 forward 7 unknown #
vertex $-1 $323 $359 #
straight-curve $-1 -78.013855403302074 33.75915681169527 5.5919523600739609 0.77714595512881146 0 0.62932039886446345 I I #
point $-1 -61.952535578386176 33.75915681169527 18.598152973741747 #
point $-1 -78.013855403302102 21.219987400088051 5.5919523600739378 #
straight-curve $-1 -78.013855403302102 0 18.598152973741747 0 -1 0 I I #
vertex $-1 $259 $360 #
point $-1 -67.287609750327604 27.489572105891661 11.149805133189409 #
coedge $-1 $274 $273 $266 $332 forward $263 $-1 #
edge $-1 $333 93.921685976336093 $336 106.92788659000389 $331 $361 forward 7 unknown #
vertex $-1 $278 $362 #
straight-curve $-1 27.474486130331499 21.219987400088051 18.598152973741747 1 0 0 I I #
edge $-1 $336 7.475201347142221 $275 20.01437075874944 $274 $363 forward 7 unknown #
vertex $-1 $335 $364 #
straight-curve $-1 -43.242448938058317 21.219987400088051 103.78337355879528 -0.77714595512881146 0 0.62932039886446345 I I #
point $-1 61.952535578386204 21.219987400088051 18.598152973741747 #
point $-1 78.013855403302102 33.75915681169527 5.5919523600739467 #
straight-curve $-1 78.013855403302102 0 18.598152973741747 0 1 0 I I #
vertex $-1 $281 $365 #
point $-1 69.619047615714038 27.489572105891661 9.2618439365960068 #
straight-curve $-1 -78.013855403302102 54.2682825139673 0 0 0 -1 I I #
point $-1 -78.013855403302102 -54.2682825139673 -18.598152973741747 #
straight-curve $-1 -78.013855403302102 0 -18.598152973741747 0 1 0 I I #
point $-1 -78.013855403302102 54.2682825139673 -18.598152973741747 #
edge $-1 $318 -3.4526940017263854 $348 3.4526940017263854 $302 $366 forward 7 unknown #
vertex $-1 $306 $367 #
straight-curve $-1 -78.013855403302102 -74.46639768915017 0 0 0 -1 I I #
straight-curve $-1 -78.013855403302102 0 -18.598152973741747 0 1 0 I I #
straight-curve $-1 -74.561161401575717 -74.46639768915017 18.598152973741747 1 0 0 I I #
point $-1 -78.013855403302102 -74.46639768915017 18.598152973741747 #
point $-1 -71.108467399849332 -74.46639768915017 18.598152973741747 #
straight-curve $-1 -71.108467399849332 -74.46639768915017 0 0 0 -1 I I #
point $-1 -71.108467399849332 -74.46639768915017 -18.598152973741747 #
straight-curve $-1 -78.013855403302102 33.75915681169527 63.424128350717183 0 0 -1 I I #
point $-1 -78.013855403302102 33.75915681169527 18.598152973741747 #
straight-curve $-1 -78.013855403302102 13.74478605294583 5.5919523600739423 0 -1 0 I I #
point $-1 -78.013855403302102 33.75915681169527 5.5919523600739378 #
point $-1 -67.509348084724124 27.489572105891661 9.0401056021994961 #
straight-curve $-1 78.013855403302102 21.219987400088051 112.51983895007784 0 0 -1 I I #
point $-1 78.013855403302102 21.219987400088051 18.598152973741747 #
straight-curve $-1 78.013855403302102 13.74478605294583 5.5919523600739396 0 1 0 I I #
point $-1 78.013855403302102 21.219987400088051 5.5919523600739467 #
point $-1 67.509348084724124 27.489572105891661 9.0401056021994854 #
straight-curve $-1 -74.561161401575717 -74.46639768915017 -18.598152973741747 -1 0 0 I I #
point $-1 -78.013855403302102 -74.46639768915017 -18.598152973741747 #
End-of-ACIS-data 