500 0 5 0           
7 Unknown 11 ACIS 5.0 NT 24 Thu Mar 25 18:44:00 1999 
-1 9.9999999999999995e-007 1e-010 
body $-1 $5 $-1 $6 #
body $-1 $7 $-1 $8 #
body $-1 $9 $-1 $10 #
body $-1 $11 $-1 $12 #
body $-1 $13 $-1 $14 #
lump $-1 $-1 $15 $0 #
transform $-1 1 0 0 0 1 0 0 0 1 48.061769463179417 30.828353472188855 8.1425540318126668 1 rotate no_reflect no_shear #
lump $-1 $-1 $16 $1 #
transform $-1 1 0 0 0 1 0 0 0 1 48.061769463179417 30.828353472188855 8.1425540318126668 1 rotate no_reflect no_shear #
lump $-1 $-1 $17 $2 #
transform $-1 1 0 0 0 1 0 0 0 1 48.061769463179417 30.828353472188855 8.1425540318126668 1 rotate no_reflect no_shear #
lump $-1 $-1 $18 $3 #
transform $-1 1 0 0 0 1 0 0 0 1 48.061769463179417 30.828353472188855 8.1425540318126668 1 rotate no_reflect no_shear #
lump $-1 $-1 $19 $4 #
transform $-1 1 0 0 0 1 0 0 0 1 48.061769463179417 30.828353472188855 8.1425540318126668 1 rotate no_reflect no_shear #
shell $-1 $-1 $-1 $20 $-1 $5 #
shell $-1 $-1 $-1 $21 $-1 $7 #
shell $-1 $-1 $-1 $22 $-1 $9 #
shell $-1 $-1 $-1 $23 $-1 $11 #
shell $-1 $-1 $-1 $24 $-1 $13 #
face $-1 $25 $26 $15 $-1 $27 forward single #
face $-1 $28 $29 $16 $-1 $30 reversed single #
face $-1 $31 $32 $17 $-1 $33 reversed single #
face $-1 $34 $35 $18 $-1 $36 forward single #
face $-1 $37 $38 $19 $-1 $39 forward single #
face $-1 $40 $41 $15 $-1 $42 reversed single #
loop $-1 $-1 $43 $20 #
plane-surface $-1 0 0 8.1425540318126668 0 0 1 1 0 0 forward_v I I I I #
face $-1 $44 $45 $16 $-1 $46 reversed single #
loop $-1 $-1 $47 $21 #
plane-surface $-1 -43.503099640418291 -27.31642695285797 0 1 0 0 0 0 -1 forward_v I I I I #
face $-1 $48 $49 $17 $-1 $50 reversed single #
loop $-1 $-1 $51 $22 #
plane-surface $-1 -16.215228631461809 59.078887796664631 114.38749762504301 1 0 0 0 -0.73135370988377701 -0.68199835119979291 forward_v I I I I #
face $-1 $52 $53 $18 $-1 $54 forward single #
loop $-1 $55 $56 $23 #
cone-surface $-1 -8.1048089634080469 28.265744830362987 5.4657067596006836 0 -0.73135370988377701 -0.68199835119979291 1 0 0 1 I I 0 1 1 forward I I I I #
face $-1 $57 $58 $19 $-1 $59 forward single #
loop $-1 $60 $61 $24 #
cone-surface $-1 4.0608205386725871 28.265744830362987 5.4657067596006836 0 -0.73135370988377701 -0.68199835119979291 1 0 0 1 I I 0 1 1 forward I I I I #
face $-1 $62 $63 $15 $-1 $64 reversed single #
loop $-1 $-1 $65 $25 #
plane-surface $-1 0 0 -8.1425540318126668 0 0 1 1 0 0 forward_v I I I I #
coedge $-1 $66 $67 $68 $69 forward $26 $-1 #
face $-1 $70 $71 $16 $-1 $72 reversed single #
loop $-1 $-1 $73 $28 #
plane-surface $-1 -41.880577650614086 -23.804500433527085 0 0 -1 0 0 0 -1 forward_v I I I I #
coedge $-1 $74 $75 $76 $77 forward $29 $-1 #
face $-1 $78 $79 $17 $-1 $80 reversed single #
loop $-1 $-1 $81 $31 #
plane-surface $-1 -2.0219942123677299 -11.221419004285551 48.831402565777168 0 0.73135370988377701 0.68199835119979291 1 0 0 forward_v I I I I #
coedge $-1 $82 $83 $84 $85 reversed $32 $-1 #
face $-1 $-1 $86 $18 $-1 $87 forward single #
loop $-1 $88 $89 $34 #
cone-surface $-1 -8.1048089634080469 27.390863485010367 4.649866726300294 0 -0.73135370988377701 -0.68199835119979291 0.5 0 0 1 I I -0.70710678118654746 0.70710678118654746 0.5 forward I I I I #
loop $-1 $-1 $90 $23 #
coedge $-1 $56 $56 $91 $92 reversed $35 $-1 #
face $-1 $-1 $93 $19 $-1 $94 forward single #
loop $-1 $95 $96 $37 #
cone-surface $-1 4.0608205386725871 27.390863485010367 4.649866726300294 0 -0.73135370988377701 -0.68199835119979291 0.5 0 0 1 I I -0.70710678118654746 0.70710678118654746 0.5 forward I I I I #
loop $-1 $-1 $97 $24 #
coedge $-1 $61 $61 $98 $99 reversed $38 $-1 #
face $-1 $100 $101 $15 $-1 $102 reversed single #
loop $-1 $-1 $103 $40 #
plane-surface $-1 0 -30.828353472188855 0 0 1 0 0 0 1 forward_v I I I I #
coedge $-1 $104 $105 $106 $107 forward $41 $-1 #
coedge $-1 $108 $43 $109 $110 forward $26 $-1 #
coedge $-1 $43 $108 $111 $112 forward $26 $-1 #
coedge $-1 $113 $114 $43 $69 reversed $115 $-1 #
edge $-1 $116 -30.828353472188855 $117 30.828353472188855 $68 $118 forward 7 unknown #
face $-1 $119 $120 $16 $-1 $121 forward single #
loop $-1 $-1 $122 $44 #
plane-surface $-1 -40.25805566080988 -27.31642695285797 0 -1 0 0 0 0 1 forward_v I I I I #
coedge $-1 $123 $124 $125 $126 forward $45 $-1 #
coedge $-1 $127 $47 $128 $129 reversed $29 $-1 #
coedge $-1 $47 $127 $130 $131 reversed $29 $-1 #
coedge $-1 $124 $123 $47 $77 reversed $45 $-1 #
edge $-1 $132 -8.1425540318126668 $133 8.1425540318126668 $76 $134 forward 7 unknown #
face $-1 $135 $136 $17 $-1 $137 reversed single #
loop $-1 $-1 $138 $48 #
plane-surface $-1 12.171240206726349 59.078887796664631 114.38749762504301 -1 0 0 0 0.73135370988377701 0.68199835119979291 forward_v I I I I #
coedge $-1 $139 $140 $141 $142 reversed $49 $-1 #
coedge $-1 $83 $51 $143 $144 reversed $32 $-1 #
coedge $-1 $51 $82 $139 $145 reversed $32 $-1 #
coedge $-1 $141 $146 $51 $85 forward $147 $-1 #
edge $-1 $148 -1.2889095738565395 $149 2.8178987289736952 $84 $150 forward 7 unknown #
loop $-1 $-1 $91 $52 #
plane-surface $-1 -2.0219942123677299 -11.221419004285551 48.831402565777168 0 0.73135370988377701 0.68199835119979291 1 0 0 forward_v I I I I #
loop $-1 $-1 $151 $34 #
coedge $-1 $89 $89 $90 $152 reversed $53 $-1 #
coedge $-1 $90 $90 $89 $152 forward $55 $-1 #
coedge $-1 $91 $91 $56 $92 forward $86 $-1 #
edge $-1 $153 5.2603637375608609e-016 $153 6.2831853071796013 $91 $154 forward 7 unknown #
loop $-1 $-1 $98 $57 #
plane-surface $-1 -2.0219942123677299 -11.221419004285551 48.831402565777168 0 0.73135370988377701 0.68199835119979291 1 0 0 forward_v I I I I #
loop $-1 $-1 $155 $37 #
coedge $-1 $96 $96 $97 $156 reversed $58 $-1 #
coedge $-1 $97 $97 $96 $156 forward $60 $-1 #
coedge $-1 $98 $98 $61 $99 forward $93 $-1 #
edge $-1 $157 5.2603637375608609e-016 $157 6.2831853071796013 $98 $158 forward 7 unknown #
face $-1 $159 $160 $15 $-1 $161 reversed single #
loop $-1 $-1 $162 $62 #
plane-surface $-1 -48.061769463179417 0 0 1 0 0 0 0 -1 forward_v I I I I #
coedge $-1 $163 $111 $164 $165 forward $63 $-1 #
coedge $-1 $166 $65 $163 $167 forward $41 $-1 #
coedge $-1 $65 $166 $168 $169 forward $41 $-1 #
coedge $-1 $114 $113 $65 $107 reversed $115 $-1 #
edge $-1 $170 -30.828353472188855 $171 30.828353472188855 $106 $172 forward 7 unknown #
coedge $-1 $67 $66 $173 $174 forward $26 $-1 #
coedge $-1 $175 $176 $66 $110 reversed $160 $-1 #
edge $-1 $117 -48.061769463179417 $177 48.061769463179417 $109 $178 forward 7 unknown #
coedge $-1 $103 $179 $67 $112 reversed $63 $-1 #
edge $-1 $180 -48.061769463179417 $116 48.061769463179417 $111 $181 forward 7 unknown #
coedge $-1 $106 $68 $179 $182 forward $115 $-1 #
coedge $-1 $68 $106 $175 $183 reversed $115 $-1 #
loop $-1 $-1 $113 $159 #
vertex $-1 $69 $184 #
vertex $-1 $69 $185 #
straight-curve $-1 48.061769463179417 0 8.1425540318126668 0 1 0 I I #
face $-1 $186 $187 $16 $-1 $188 reversed single #
loop $-1 $-1 $189 $70 #
plane-surface $-1 0 0 8.1425540318126668 0 0 1 1 0 0 forward_v I I I I #
coedge $-1 $190 $191 $192 $193 reversed $71 $-1 #
coedge $-1 $76 $73 $194 $195 reversed $45 $-1 #
coedge $-1 $73 $76 $196 $197 reversed $45 $-1 #
coedge $-1 $191 $190 $73 $126 reversed $71 $-1 #
edge $-1 $198 -8.1425540318126668 $199 8.1425540318126668 $125 $200 forward 7 unknown #
coedge $-1 $75 $74 $201 $202 reversed $29 $-1 #
coedge $-1 $194 $203 $74 $129 forward $187 $-1 #
edge $-1 $204 -17.170139995759868 $133 -10.1462869570981 $128 $205 forward 7 unknown #
coedge $-1 $206 $196 $75 $131 forward $120 $-1 #
edge $-1 $132 10.1462869570981 $207 17.170139995759868 $130 $208 forward 7 unknown #
vertex $-1 $131 $209 #
vertex $-1 $129 $210 #
straight-curve $-1 -43.503099640418291 -23.804500433527085 0 0 0 -1 I I #
face $-1 $-1 $147 $17 $-1 $211 forward single #
loop $-1 $-1 $212 $78 #
plane-surface $-1 0 30.828353472188855 0 0 -1 0 0 0 -1 forward_v I I I I #
coedge $-1 $213 $214 $215 $216 reversed $79 $-1 #
coedge $-1 $217 $81 $83 $145 forward $49 $-1 #
coedge $-1 $81 $217 $213 $218 forward $49 $-1 #
coedge $-1 $215 $84 $81 $142 forward $147 $-1 #
edge $-1 $149 -15.204231525277944 $219 13.182237312910214 $141 $220 forward 7 unknown #
coedge $-1 $221 $222 $82 $144 forward $136 $-1 #
edge $-1 $223 -53.455207609731794 $148 -49.05119478070884 $143 $224 forward 7 unknown #
edge $-1 $149 55.63497933227216 $223 61.656706944377682 $83 $225 forward 7 unknown #
coedge $-1 $84 $215 $221 $226 forward $147 $-1 #
loop $-1 $-1 $215 $135 #
vertex $-1 $144 $227 #
vertex $-1 $85 $228 #
straight-curve $-1 -16.215228631461809 29.539443898332316 8.142554031812665 0 -1 0 I I #
coedge $-1 $151 $151 $-1 $229 reversed $88 $-1 #
edge $-1 $230 0 $230 6.2831853071796004 $89 $231 forward 7 unknown #
vertex $-1 $92 $232 #
ellipse-curve $-1 -8.1048089634080469 28.774949320773732 5.9405476173011884 0 0.73135370988377701 0.68199835119979291 1 0 0 1 I I #
coedge $-1 $155 $155 $-1 $233 reversed $95 $-1 #
edge $-1 $234 0 $234 6.2831853071796004 $96 $235 forward 7 unknown #
vertex $-1 $99 $236 #
ellipse-curve $-1 4.0608205386725871 28.774949320773732 5.9405476173011884 0 0.73135370988377701 0.68199835119979291 1 0 0 1 I I #
face $-1 $-1 $115 $15 $-1 $237 reversed single #
loop $-1 $-1 $175 $100 #
plane-surface $-1 0 30.828353472188855 0 0 -1 0 0 0 -1 forward_v I I I I #
coedge $-1 $238 $173 $176 $239 forward $101 $-1 #
coedge $-1 $179 $103 $104 $167 reversed $63 $-1 #
coedge $-1 $173 $238 $103 $165 reversed $101 $-1 #
edge $-1 $180 -8.1425540318126668 $240 8.1425540318126668 $164 $241 forward 7 unknown #
coedge $-1 $105 $104 $238 $242 forward $41 $-1 #
edge $-1 $171 -48.061769463179417 $240 48.061769463179417 $163 $243 forward 7 unknown #
coedge $-1 $176 $175 $105 $169 reversed $160 $-1 #
edge $-1 $244 -48.061769463179417 $170 48.061769463179417 $168 $245 forward 7 unknown #
vertex $-1 $107 $246 #
vertex $-1 $182 $247 #
straight-curve $-1 48.061769463179417 0 -8.1425540318126668 0 -1 0 I I #
coedge $-1 $162 $164 $108 $174 reversed $101 $-1 #
edge $-1 $177 -30.828353472188855 $180 30.828353472188855 $173 $248 forward 7 unknown #
coedge $-1 $168 $109 $114 $183 forward $160 $-1 #
coedge $-1 $109 $168 $162 $239 reversed $160 $-1 #
vertex $-1 $110 $249 #
straight-curve $-1 0 30.828353472188855 8.1425540318126668 -1 0 0 I I #
coedge $-1 $111 $163 $113 $182 reversed $63 $-1 #
vertex $-1 $174 $250 #
straight-curve $-1 0 -30.828353472188855 8.1425540318126668 1 0 0 I I #
edge $-1 $116 -8.1425540318126668 $171 8.1425540318126668 $113 $251 forward 7 unknown #
edge $-1 $117 -8.1425540318126668 $170 8.1425540318126668 $114 $252 forward 7 unknown #
point $-1 48.061769463179417 -30.828353472188855 8.1425540318126668 #
point $-1 48.061769463179417 30.828353472188855 8.1425540318126668 #
face $-1 $-1 $253 $16 $-1 $254 reversed single #
loop $-1 $-1 $255 $119 #
plane-surface $-1 0 0 -8.1425540318126668 0 0 1 1 0 0 forward_v I I I I #
coedge $-1 $196 $206 $191 $256 forward $120 $-1 #
coedge $-1 $125 $122 $255 $257 reversed $71 $-1 #
coedge $-1 $122 $125 $189 $256 reversed $71 $-1 #
coedge $-1 $258 $259 $122 $193 forward $253 $-1 #
edge $-1 $260 -8.1425540318126668 $261 8.1425540318126668 $192 $262 forward 7 unknown #
coedge $-1 $255 $128 $123 $195 forward $187 $-1 #
edge $-1 $133 -22.562810815111249 $199 -19.317766835502837 $194 $263 forward 7 unknown #
coedge $-1 $130 $189 $124 $197 forward $120 $-1 #
edge $-1 $198 19.317766835502837 $132 22.562810815111249 $196 $264 forward 7 unknown #
vertex $-1 $197 $265 #
vertex $-1 $195 $266 #
straight-curve $-1 -40.25805566080988 -23.804500433527085 0 0 0 -1 I I #
coedge $-1 $259 $258 $127 $202 forward $253 $-1 #
edge $-1 $207 -8.1425540318126668 $204 8.1425540318126668 $201 $267 forward 7 unknown #
coedge $-1 $128 $255 $259 $268 forward $187 $-1 #
vertex $-1 $129 $269 #
straight-curve $-1 -43.503099640418291 -13.658213476428985 -8.1425540318126668 0 1 0 I I #
coedge $-1 $189 $130 $258 $270 forward $120 $-1 #
vertex $-1 $270 $271 #
straight-curve $-1 -43.503099640418291 -13.658213476428985 8.1425540318126668 0 -1 0 I I #
point $-1 -43.503099640418291 -23.804500433527085 8.1425540318126668 #
point $-1 -43.503099640418291 -23.804500433527085 -8.1425540318126668 #
plane-surface $-1 0 0 8.1425540318126668 0 0 1 1 0 0 forward_v I I I I #
coedge $-1 $222 $221 $214 $272 forward $136 $-1 #
coedge $-1 $214 $138 $140 $218 reversed $79 $-1 #
coedge $-1 $138 $213 $212 $272 reversed $79 $-1 #
coedge $-1 $146 $141 $138 $216 forward $147 $-1 #
edge $-1 $219 -2.8178987289736952 $273 1.2889095738565395 $215 $274 forward 7 unknown #
coedge $-1 $140 $139 $222 $275 reversed $49 $-1 #
edge $-1 $276 -61.656706944377682 $219 -55.63497933227216 $213 $277 forward 7 unknown #
vertex $-1 $142 $278 #
straight-curve $-1 -1.010997106183865 26.72154516935862 8.1425540318126615 1 0 0 I I #
coedge $-1 $212 $143 $146 $226 reversed $136 $-1 #
coedge $-1 $143 $212 $217 $275 forward $136 $-1 #
vertex $-1 $144 $279 #
straight-curve $-1 -16.215228631461809 30.828353472188855 57.193748812521505 0 0 1 I I #
straight-curve $-1 -16.215228631461809 -11.221419004285551 48.831402565777168 0 0.68199835119979291 -0.73135370988377701 I I #
edge $-1 $273 -12.171240206726349 $148 16.215228631461809 $221 $280 forward 7 unknown #
point $-1 -16.215228631461809 30.828353472188855 8.1425540318126668 #
point $-1 -16.215228631461809 26.72154516935862 8.142554031812665 #
edge $-1 $281 1 $281 0 $151 $-1 forward 7 unknown #
vertex $-1 $152 $282 #
ellipse-curve $-1 -8.1048089634080469 27.756540339952256 4.9908659019001904 0 0.73135370988377701 0.68199835119979291 1 0 0 1 I I #
point $-1 -7.1048089634080469 28.774949320773722 5.9405476173011778 #
edge $-1 $283 1 $283 0 $155 $-1 forward 7 unknown #
vertex $-1 $156 $284 #
ellipse-curve $-1 4.0608205386725871 27.756540339952256 4.9908659019001904 0 0.73135370988377701 0.68199835119979291 1 0 0 1 I I #
point $-1 5.0608205386725871 28.774949320773722 5.9405476173011778 #
plane-surface $-1 48.061769463179417 0 0 -1 0 0 0 0 1 forward_v I I I I #
coedge $-1 $164 $162 $166 $242 reversed $101 $-1 #
edge $-1 $177 -8.1425540318126668 $244 8.1425540318126668 $176 $285 forward 7 unknown #
vertex $-1 $242 $286 #
straight-curve $-1 -48.061769463179417 -30.828353472188855 0 0 0 -1 I I #
edge $-1 $240 -30.828353472188855 $244 30.828353472188855 $238 $287 forward 7 unknown #
straight-curve $-1 0 -30.828353472188855 -8.1425540318126668 -1 0 0 I I #
vertex $-1 $169 $288 #
straight-curve $-1 0 30.828353472188855 -8.1425540318126668 1 0 0 I I #
point $-1 48.061769463179417 30.828353472188855 -8.1425540318126668 #
point $-1 48.061769463179417 -30.828353472188855 -8.1425540318126668 #
straight-curve $-1 -48.061769463179417 0 8.1425540318126668 0 -1 0 I I #
point $-1 -48.061769463179417 30.828353472188855 8.1425540318126668 #
point $-1 -48.061769463179417 -30.828353472188855 8.1425540318126668 #
straight-curve $-1 48.061769463179417 -30.828353472188855 0 0 0 -1 I I #
straight-curve $-1 48.061769463179417 30.828353472188855 0 0 0 -1 I I #
loop $-1 $-1 $192 $186 #
plane-surface $-1 0 -30.828353472188855 0 0 1 0 0 0 1 forward_v I I I I #
coedge $-1 $203 $194 $190 $257 forward $187 $-1 #
edge $-1 $261 -17.170139995759868 $198 -10.1462869570981 $189 $289 forward 7 unknown #
edge $-1 $199 10.1462869570981 $260 17.170139995759868 $255 $290 forward 7 unknown #
coedge $-1 $201 $192 $206 $270 reversed $253 $-1 #
coedge $-1 $192 $201 $203 $268 reversed $253 $-1 #
vertex $-1 $268 $291 #
vertex $-1 $193 $292 #
straight-curve $-1 -40.25805566080988 -30.828353472188855 0 0 0 1 I I #
straight-curve $-1 -20.940288825307043 -23.804500433527085 -8.1425540318126668 1 0 0 I I #
straight-curve $-1 -20.940288825307043 -23.804500433527085 8.1425540318126668 -1 0 0 I I #
point $-1 -40.25805566080988 -23.804500433527085 8.1425540318126668 #
point $-1 -40.25805566080988 -23.804500433527085 -8.1425540318126668 #
straight-curve $-1 -43.503099640418291 -30.828353472188855 0 0 0 -1 I I #
edge $-1 $260 40.25805566080988 $204 43.503099640418291 $259 $293 forward 7 unknown #
point $-1 -43.503099640418291 -30.828353472188855 -8.1425540318126668 #
edge $-1 $207 -43.503099640418291 $261 -40.25805566080988 $258 $294 forward 7 unknown #
point $-1 -43.503099640418291 -30.828353472188855 8.1425540318126668 #
edge $-1 $273 49.05119478070884 $276 53.455207609731794 $212 $295 forward 7 unknown #
vertex $-1 $226 $296 #
straight-curve $-1 12.171240206726349 29.539443898332316 8.142554031812665 0 1 0 I I #
edge $-1 $276 -13.182237312910214 $223 15.204231525277944 $222 $297 forward 7 unknown #
vertex $-1 $275 $298 #
straight-curve $-1 12.171240206726349 -11.221419004285551 48.831402565777168 0 -0.68199835119979291 0.73135370988377701 I I #
point $-1 12.171240206726349 26.72154516935862 8.142554031812665 #
point $-1 -16.215228631461809 30.828353472188851 3.7385412027897118 #
straight-curve $-1 0 30.828353472188855 8.1425540318126668 -1 0 0 I I #
vertex $-1 $229 $299 #
point $-1 -7.1048089634080469 27.756540339952256 4.9908659019001904 #
vertex $-1 $233 $300 #
point $-1 5.0608205386725871 27.756540339952256 4.9908659019001904 #
straight-curve $-1 -48.061769463179417 30.828353472188855 0 0 0 -1 I I #
point $-1 -48.061769463179417 -30.828353472188855 -8.1425540318126668 #
straight-curve $-1 -48.061769463179417 0 -8.1425540318126668 0 1 0 I I #
point $-1 -48.061769463179417 30.828353472188855 -8.1425540318126668 #
straight-curve $-1 -40.25805566080988 -13.658213476428985 8.1425540318126668 0 1 0 I I #
straight-curve $-1 -40.25805566080988 -13.658213476428985 -8.1425540318126668 0 -1 0 I I #
point $-1 -40.25805566080988 -30.828353472188855 -8.1425540318126668 #
point $-1 -40.25805566080988 -30.828353472188855 8.1425540318126668 #
straight-curve $-1 0 -30.828353472188855 -8.1425540318126668 -1 0 0 I I #
straight-curve $-1 0 -30.828353472188855 8.1425540318126668 1 0 0 I I #
straight-curve $-1 12.171240206726349 30.828353472188855 57.193748812521505 0 0 -1 I I #
point $-1 12.171240206726349 30.828353472188855 8.1425540318126668 #
straight-curve $-1 -1.010997106183865 30.828353472188851 3.7385412027897083 -1 0 0 I I #
point $-1 12.171240206726349 30.828353472188851 3.7385412027897118 #
point $-1 -8.1048089634080469 27.025186630068479 4.3088675507003975 #
point $-1 4.0608205386725871 27.025186630068479 4.3088675507003975 #
End-of-ACIS-data 