500 0 5 0           
7 Unknown 11 ACIS 5.0 NT 24 Fri Mar 26 18:25:00 1999 
-1 9.9999999999999995e-007 1e-010 
body $-1 $5 $-1 $6 #
body $-1 $7 $-1 $8 #
body $-1 $9 $-1 $10 #
body $-1 $11 $-1 $12 #
body $-1 $13 $-1 $14 #
lump $-1 $-1 $15 $0 #
transform $-1 1 0 0 0 1 0 0 0 1 78.301950132755508 52.12801721841879 15.399138409653872 1 rotate no_reflect no_shear #
lump $-1 $-1 $16 $1 #
transform $-1 1 0 0 0 1 0 0 0 1 78.301950132755508 52.12801721841879 15.399138409653872 1 rotate no_reflect no_shear #
lump $-1 $-1 $17 $2 #
transform $-1 1 0 0 0 1 0 0 0 1 78.301950132755508 52.12801721841879 15.399138409653872 1 rotate no_reflect no_shear #
lump $-1 $-1 $18 $3 #
transform $-1 1 0 0 0 1 0 0 0 1 78.301950132755508 52.12801721841879 15.399138409653872 1 rotate no_reflect no_shear #
lump $-1 $-1 $19 $4 #
transform $-1 1 0 0 0 1 0 0 0 1 78.301950132755508 52.12801721841879 15.399138409653872 1 rotate no_reflect no_shear #
shell $-1 $-1 $-1 $20 $-1 $5 #
shell $-1 $-1 $-1 $21 $-1 $7 #
shell $-1 $-1 $-1 $22 $-1 $9 #
shell $-1 $-1 $-1 $23 $-1 $11 #
shell $-1 $-1 $-1 $24 $-1 $13 #
face $-1 $25 $26 $15 $-1 $27 forward single #
face $-1 $28 $29 $16 $-1 $30 reversed single #
face $-1 $31 $32 $17 $-1 $33 forward single #
face $-1 $34 $35 $18 $-1 $36 reversed single #
face $-1 $37 $38 $19 $-1 $39 reversed single #
face $-1 $40 $41 $15 $-1 $42 reversed single #
loop $-1 $-1 $43 $20 #
plane-surface $-1 0 0 15.399138409653872 0 0 1 1 0 0 forward_v I I I I #
face $-1 $44 $45 $16 $-1 $46 reversed single #
loop $-1 $-1 $47 $21 #
plane-surface $-1 -51.379846099756676 -65.143797416656099 0 0 1 0 0 0 1 forward_v I I I I #
face $-1 $48 $49 $17 $-1 $50 forward single #
loop $-1 $-1 $51 $22 #
plane-surface $-1 89.892868259009788 44.77529980766392 224.02440666206473 0 -1 0 -0.74314483375859142 0 -0.66913059716165679 forward_v I I I I #
face $-1 $52 $53 $18 $-1 $54 reversed single #
loop $-1 $55 $56 $23 #
cone-surface $-1 70.598660394442987 28.689744302022802 7.276082712135211 -0.74314483375859142 0 -0.66913059716165679 1.0036958957424851 0 -1.1147172506378871 1 I I 0 1 1.5 forward I I I I #
face $-1 $57 $58 $19 $-1 $59 reversed single #
loop $-1 $60 $61 $24 #
cone-surface $-1 70.598660394442987 38.341077605407477 7.276082712135211 -0.74314483375859142 0 -0.66913059716165679 1.0036958957424851 0 -1.1147172506378871 1 I I 0 1 1.5 forward I I I I #
face $-1 $62 $63 $15 $-1 $64 reversed single #
loop $-1 $-1 $65 $25 #
plane-surface $-1 0 0 -15.399138409653872 0 0 1 1 0 0 forward_v I I I I #
coedge $-1 $66 $67 $68 $69 forward $26 $-1 #
face $-1 $70 $71 $16 $-1 $72 reversed single #
loop $-1 $-1 $73 $28 #
plane-surface $-1 -55.25601888606559 -58.635907317537445 0 1 0 0 0 0 -1 forward_v I I I I #
coedge $-1 $74 $75 $76 $77 forward $29 $-1 #
face $-1 $78 $79 $17 $-1 $80 forward single #
loop $-1 $-1 $81 $31 #
plane-surface $-1 -26.486511169750429 33.515410953715133 119.23594535955881 0.74314483375859142 0 0.66913059716165679 0.66913059716165679 0 -0.74314483375859142 forward_v I I I I #
coedge $-1 $82 $83 $84 $85 reversed $32 $-1 #
face $-1 $86 $87 $18 $-1 $88 forward single #
loop $-1 $89 $90 $34 #
cone-surface $-1 67.984703383204135 28.689744302022802 4.9224653061729526 -0.74314483375859142 0 -0.66913059716165679 0.50184794787124254 0 -0.55735862531894353 1 I I -0.70710678118654757 0.70710678118654757 0.75 forward I I I I #
loop $-1 $-1 $91 $23 #
coedge $-1 $56 $56 $92 $93 reversed $35 $-1 #
face $-1 $94 $95 $19 $-1 $96 reversed single #
loop $-1 $97 $98 $37 #
cone-surface $-1 67.984703383204135 38.341077605407477 4.9224653061729526 -0.74314483375859142 0 -0.66913059716165679 0.50184794787124254 0 -0.55735862531894353 1 I I -0.70710678118654757 0.70710678118654757 0.75 forward I I I I #
loop $-1 $-1 $99 $24 #
coedge $-1 $61 $61 $100 $101 reversed $38 $-1 #
face $-1 $102 $103 $15 $-1 $104 reversed single #
loop $-1 $-1 $105 $40 #
plane-surface $-1 0 -52.12801721841879 0 0 1 0 0 0 1 forward_v I I I I #
coedge $-1 $106 $107 $108 $109 forward $41 $-1 #
coedge $-1 $110 $43 $111 $112 forward $26 $-1 #
coedge $-1 $43 $110 $113 $114 forward $26 $-1 #
coedge $-1 $115 $116 $43 $69 reversed $117 $-1 #
edge $-1 $118 -52.12801721841879 $119 52.12801721841879 $68 $120 forward 7 unknown #
face $-1 $121 $122 $16 $-1 $123 reversed single #
loop $-1 $-1 $124 $44 #
plane-surface $-1 -47.503673313447763 -58.635907317537445 0 -1 0 0 0 0 1 forward_v I I I I #
coedge $-1 $125 $126 $127 $128 reversed $45 $-1 #
coedge $-1 $129 $47 $130 $131 reversed $29 $-1 #
coedge $-1 $47 $129 $132 $133 reversed $29 $-1 #
coedge $-1 $126 $125 $47 $77 reversed $45 $-1 #
edge $-1 $134 -15.399138409653872 $135 15.399138409653872 $76 $136 forward 7 unknown #
face $-1 $137 $138 $17 $-1 $139 forward single #
loop $-1 $-1 $140 $48 #
plane-surface $-1 89.892868259009788 22.255522099766345 224.02440666206473 0 1 0 0.74314483375859142 0 0.66913059716165679 forward_v I I I I #
coedge $-1 $141 $142 $143 $144 reversed $49 $-1 #
coedge $-1 $83 $51 $142 $145 forward $32 $-1 #
coedge $-1 $51 $82 $146 $147 reversed $32 $-1 #
coedge $-1 $148 $143 $51 $85 forward $138 $-1 #
edge $-1 $149 22.062133298465341 $150 33.355516003250614 $84 $151 forward 7 unknown #
face $-1 $152 $153 $18 $-1 $154 forward single #
loop $-1 $-1 $155 $52 #
plane-surface $-1 89.892868259009788 44.77529980766392 224.02440666206473 0 -1 0 -0.74314483375859142 0 -0.66913059716165679 forward_v I I I I #
loop $-1 $-1 $156 $34 #
coedge $-1 $90 $90 $91 $157 forward $53 $-1 #
coedge $-1 $91 $91 $90 $157 reversed $55 $-1 #
coedge $-1 $92 $92 $56 $93 forward $153 $-1 #
edge $-1 $158 0 $158 6.2831853071796004 $92 $159 forward 7 unknown #
face $-1 $160 $161 $19 $-1 $162 reversed single #
loop $-1 $163 $164 $57 #
cone-surface $-1 70.598660394442987 28.689744302022802 7.276082712135211 -0.74314483375859142 0 -0.66913059716165679 1.0036958957424851 0 -1.1147172506378871 1 I I 0 1 1.5 forward I I I I #
loop $-1 $-1 $165 $37 #
coedge $-1 $98 $98 $99 $166 forward $58 $-1 #
coedge $-1 $99 $99 $98 $166 reversed $60 $-1 #
coedge $-1 $100 $100 $61 $101 forward $167 $-1 #
edge $-1 $168 0 $168 6.2831853071796004 $100 $169 forward 7 unknown #
face $-1 $170 $171 $15 $-1 $172 reversed single #
loop $-1 $-1 $173 $62 #
plane-surface $-1 -78.301950132755508 0 0 1 0 0 0 0 -1 forward_v I I I I #
coedge $-1 $174 $113 $175 $176 forward $63 $-1 #
coedge $-1 $177 $65 $174 $178 forward $41 $-1 #
coedge $-1 $65 $177 $179 $180 forward $41 $-1 #
coedge $-1 $116 $115 $65 $109 reversed $117 $-1 #
edge $-1 $181 -52.12801721841879 $182 52.12801721841879 $108 $183 forward 7 unknown #
coedge $-1 $67 $66 $184 $185 forward $26 $-1 #
coedge $-1 $186 $187 $66 $112 reversed $171 $-1 #
edge $-1 $119 -78.301950132755508 $188 78.301950132755508 $111 $189 forward 7 unknown #
coedge $-1 $105 $190 $67 $114 reversed $63 $-1 #
edge $-1 $191 -78.301950132755508 $118 78.301950132755508 $113 $192 forward 7 unknown #
coedge $-1 $108 $68 $190 $193 forward $117 $-1 #
coedge $-1 $68 $108 $186 $194 reversed $117 $-1 #
loop $-1 $-1 $115 $170 #
vertex $-1 $69 $195 #
vertex $-1 $69 $196 #
straight-curve $-1 78.301950132755508 0 15.399138409653872 0 1 0 I I #
face $-1 $197 $198 $16 $-1 $123 reversed single #
loop $-1 $-1 $127 $70 #
plane-surface $-1 0 -52.12801721841879 0 0 1 0 0 0 1 forward_v I I I I #
coedge $-1 $199 $200 $129 $201 forward $71 $-1 #
coedge $-1 $76 $73 $202 $203 reversed $45 $-1 #
coedge $-1 $73 $76 $204 $205 reversed $45 $-1 #
coedge $-1 $206 $207 $73 $128 forward $122 $-1 #
edge $-1 $208 -15.399138409653872 $209 15.399138409653872 $127 $210 forward 7 unknown #
coedge $-1 $75 $74 $124 $201 reversed $29 $-1 #
coedge $-1 $202 $211 $74 $131 forward $212 $-1 #
edge $-1 $213 -3.8761727863089135 $135 3.8761727863089135 $74 $214 forward 7 unknown #
coedge $-1 $215 $204 $75 $133 forward $216 $-1 #
edge $-1 $134 -3.8761727863089135 $217 3.8761727863089135 $75 $218 forward 7 unknown #
vertex $-1 $205 $219 #
vertex $-1 $203 $220 #
straight-curve $-1 -55.25601888606559 -65.143797416656099 0 0 0 -1 I I #
face $-1 $221 $222 $17 $-1 $223 reversed single #
loop $-1 $-1 $224 $78 #
plane-surface $-1 0 0 15.399138409653872 0 0 1 1 0 0 forward_v I I I I #
coedge $-1 $225 $226 $224 $227 reversed $79 $-1 #
coedge $-1 $228 $81 $226 $229 reversed $49 $-1 #
coedge $-1 $81 $228 $82 $145 reversed $49 $-1 #
coedge $-1 $84 $224 $81 $144 forward $138 $-1 #
edge $-1 $230 5.497816622908779 $149 28.017594330806354 $143 $231 forward 7 unknown #
edge $-1 $149 139.72620441257891 $232 156.60390026551102 $82 $233 forward 7 unknown #
coedge $-1 $234 $235 $83 $147 forward $236 $-1 #
edge $-1 $150 96.613064921378495 $232 109.15563740023377 $146 $237 forward 7 unknown #
coedge $-1 $238 $84 $235 $239 forward $138 $-1 #
vertex $-1 $144 $240 #
vertex $-1 $239 $241 #
straight-curve $-1 44.946434129504894 44.77529980766392 15.399138409653872 1 0 0 I I #
face $-1 $242 $243 $18 $-1 $244 forward single #
loop $-1 $245 $92 $86 #
plane-surface $-1 -26.486511169750429 33.515410953715133 119.23594535955881 0.74314483375859142 0 0.66913059716165679 0.66913059716165679 0 -0.74314483375859142 forward_v I I I I #
coedge $-1 $246 $247 $248 $249 reversed $87 $-1 #
coedge $-1 $156 $156 $-1 $250 forward $89 $-1 #
edge $-1 $251 0 $251 6.2831853071796004 $90 $252 forward 7 unknown #
vertex $-1 $93 $253 #
ellipse-curve $-1 72.655258780362885 28.689744302022802 9.1278521702262179 -0.74314483375859142 0 -0.66913059716165679 1.0036958957424851 0 -1.1147172506378871 1 I I #
face $-1 $254 $255 $19 $-1 $256 forward single #
loop $-1 $257 $258 $94 #
cone-surface $-1 67.984703383204135 28.689744302022802 4.9224653061729526 -0.74314483375859142 0 -0.66913059716165679 0.50184794787124254 0 -0.55735862531894353 1 I I -0.70710678118654757 0.70710678118654757 0.75 forward I I I I #
loop $-1 $-1 $259 $57 #
coedge $-1 $164 $164 $260 $261 reversed $95 $-1 #
coedge $-1 $165 $165 $-1 $262 forward $97 $-1 #
edge $-1 $263 0 $263 6.2831853071796004 $98 $264 forward 7 unknown #
loop $-1 $265 $100 $254 #
vertex $-1 $101 $266 #
ellipse-curve $-1 72.655258780362885 38.341077605407477 9.1278521702262179 -0.74314483375859142 0 -0.66913059716165679 1.0036958957424851 0 -1.1147172506378871 1 I I #
face $-1 $-1 $117 $15 $-1 $267 reversed single #
loop $-1 $-1 $186 $102 #
plane-surface $-1 0 52.12801721841879 0 0 -1 0 0 0 -1 forward_v I I I I #
coedge $-1 $268 $184 $187 $269 forward $103 $-1 #
coedge $-1 $190 $105 $106 $178 reversed $63 $-1 #
coedge $-1 $184 $268 $105 $176 reversed $103 $-1 #
edge $-1 $191 -15.399138409653872 $270 15.399138409653872 $175 $271 forward 7 unknown #
coedge $-1 $107 $106 $268 $272 forward $41 $-1 #
edge $-1 $182 -78.301950132755508 $270 78.301950132755508 $174 $273 forward 7 unknown #
coedge $-1 $187 $186 $107 $180 reversed $171 $-1 #
edge $-1 $274 -78.301950132755508 $181 78.301950132755508 $179 $275 forward 7 unknown #
vertex $-1 $109 $276 #
vertex $-1 $193 $277 #
straight-curve $-1 78.301950132755508 0 -15.399138409653872 0 -1 0 I I #
coedge $-1 $173 $175 $110 $185 reversed $103 $-1 #
edge $-1 $188 -52.12801721841879 $191 52.12801721841879 $184 $278 forward 7 unknown #
coedge $-1 $179 $111 $116 $194 forward $171 $-1 #
coedge $-1 $111 $179 $173 $269 reversed $171 $-1 #
vertex $-1 $112 $279 #
straight-curve $-1 0 52.12801721841879 15.399138409653872 -1 0 0 I I #
coedge $-1 $113 $174 $115 $193 reversed $63 $-1 #
vertex $-1 $185 $280 #
straight-curve $-1 0 -52.12801721841879 15.399138409653872 1 0 0 I I #
edge $-1 $118 -15.399138409653872 $182 15.399138409653872 $115 $281 forward 7 unknown #
edge $-1 $119 -15.399138409653872 $181 15.399138409653872 $116 $282 forward 7 unknown #
point $-1 78.301950132755508 -52.12801721841879 15.399138409653872 #
point $-1 78.301950132755508 52.12801721841879 15.399138409653872 #
face $-1 $283 $216 $16 $-1 $284 forward single #
loop $-1 $-1 $285 $121 #
coedge $-1 $286 $124 $211 $287 reversed $71 $-1 #
coedge $-1 $124 $286 $215 $288 reversed $71 $-1 #
edge $-1 $217 -15.399138409653872 $213 15.399138409653872 $124 $289 forward 7 unknown #
coedge $-1 $290 $130 $125 $203 forward $212 $-1 #
edge $-1 $135 -6.5078900991186543 $208 6.5078900991186543 $125 $291 forward 7 unknown #
coedge $-1 $132 $292 $126 $205 forward $216 $-1 #
edge $-1 $209 -6.5078900991186543 $134 6.5078900991186543 $126 $293 forward 7 unknown #
coedge $-1 $294 $127 $292 $295 reversed $122 $-1 #
coedge $-1 $127 $294 $290 $296 reversed $122 $-1 #
vertex $-1 $296 $297 #
vertex $-1 $205 $298 #
straight-curve $-1 -55.25601888606559 -52.12801721841879 0 0 0 1 I I #
coedge $-1 $130 $299 $199 $287 forward $212 $-1 #
loop $-1 $-1 $300 $283 #
vertex $-1 $201 $301 #
straight-curve $-1 -51.379846099756676 -65.143797416656099 -15.399138409653872 -1 0 0 I I #
coedge $-1 $302 $132 $200 $288 forward $216 $-1 #
loop $-1 $-1 $303 $197 #
vertex $-1 $288 $304 #
straight-curve $-1 -51.379846099756676 -65.143797416656099 15.399138409653872 1 0 0 I I #
point $-1 -55.25601888606559 -65.143797416656099 15.399138409653872 #
point $-1 -55.25601888606559 -65.143797416656099 -15.399138409653872 #
face $-1 $305 $306 $17 $-1 $307 reversed single #
loop $-1 $-1 $308 $137 #
plane-surface $-1 -51.379846099756676 -65.143797416656099 0 0 1 0 0 0 1 forward_v I I I I #
coedge $-1 $143 $309 $140 $227 forward $138 $-1 #
coedge $-1 $226 $140 $310 $311 reversed $79 $-1 #
coedge $-1 $140 $225 $141 $229 forward $79 $-1 #
edge $-1 $312 -33.355516003250614 $230 -22.062133298465341 $224 $313 forward 7 unknown #
coedge $-1 $142 $141 $234 $314 reversed $49 $-1 #
edge $-1 $315 -156.60390026551102 $230 -139.72620441257891 $226 $316 forward 7 unknown #
vertex $-1 $144 $317 #
straight-curve $-1 67.008567427970235 16.757705476857566 15.399138409653872 0 1 0 I I #
vertex $-1 $314 $318 #
straight-curve $-1 -26.486511169750429 44.77529980766392 119.23594535955881 0.66913059716165679 0 -0.74314483375859142 I I #
coedge $-1 $310 $146 $228 $314 forward $236 $-1 #
coedge $-1 $146 $319 $148 $239 reversed $236 $-1 #
loop $-1 $-1 $310 $320 #
straight-curve $-1 78.301950132755508 44.77529980766392 112.01220333103237 0 0 -1 I I #
coedge $-1 $321 $148 $322 $323 forward $138 $-1 #
edge $-1 $150 44.77529980766392 $324 52.12801721841879 $235 $325 forward 7 unknown #
point $-1 67.008567427970235 44.77529980766392 15.399138409653872 #
point $-1 78.301950132755508 44.77529980766392 15.399138409653872 #
face $-1 $326 $327 $18 $-1 $328 forward single #
loop $-1 $-1 $329 $152 #
plane-surface $-1 89.892868259009788 22.255522099766345 224.02440666206473 0 1 0 0.74314483375859142 0 0.66913059716165679 forward_v I I I I #
loop $-1 $-1 $330 $86 #
coedge $-1 $247 $155 $331 $332 forward $87 $-1 #
coedge $-1 $155 $246 $333 $334 reversed $87 $-1 #
coedge $-1 $335 $336 $155 $249 forward $327 $-1 #
edge $-1 $337 22.062133298465341 $338 33.355516003250614 $248 $339 forward 7 unknown #
edge $-1 $340 1 $340 0 $156 $-1 forward 7 unknown #
vertex $-1 $157 $341 #
ellipse-curve $-1 68.542062008523075 28.689744302022802 5.4243132540441952 0.74314483375859142 0 0.66913059716165679 1.0036958957424851 0 -1.1147172506378871 1 I I #
point $-1 73.658954676105367 28.689744302022802 8.0131349195883388 #
face $-1 $342 $167 $19 $-1 $343 forward single #
loop $-1 $-1 $344 $160 #
plane-surface $-1 89.892868259009788 44.77529980766392 224.02440666206473 0 -1 0 -0.74314483375859142 0 -0.66913059716165679 forward_v I I I I #
loop $-1 $-1 $345 $94 #
coedge $-1 $258 $258 $259 $346 forward $161 $-1 #
coedge $-1 $259 $259 $258 $346 reversed $163 $-1 #
coedge $-1 $260 $260 $164 $261 forward $265 $-1 #
edge $-1 $347 0 $347 6.2831853071796004 $260 $348 forward 7 unknown #
edge $-1 $349 1 $349 0 $165 $-1 forward 7 unknown #
vertex $-1 $166 $350 #
ellipse-curve $-1 68.542062008523075 38.341077605407477 5.4243132540441952 0.74314483375859142 0 0.66913059716165679 1.0036958957424851 0 -1.1147172506378871 1 I I #
loop $-1 $351 $260 $254 #
point $-1 73.658954676105367 38.341077605407477 8.0131349195883388 #
plane-surface $-1 78.301950132755508 0 0 -1 0 0 0 0 1 forward_v I I I I #
coedge $-1 $175 $173 $177 $272 reversed $103 $-1 #
edge $-1 $188 -15.399138409653872 $274 15.399138409653872 $187 $352 forward 7 unknown #
vertex $-1 $272 $353 #
straight-curve $-1 -78.301950132755508 -52.12801721841879 0 0 0 -1 I I #
edge $-1 $270 -52.12801721841879 $274 52.12801721841879 $268 $354 forward 7 unknown #
straight-curve $-1 0 -52.12801721841879 -15.399138409653872 -1 0 0 I I #
vertex $-1 $180 $355 #
straight-curve $-1 0 52.12801721841879 -15.399138409653872 1 0 0 I I #
point $-1 78.301950132755508 52.12801721841879 -15.399138409653872 #
point $-1 78.301950132755508 -52.12801721841879 -15.399138409653872 #
straight-curve $-1 -78.301950132755508 0 15.399138409653872 0 -1 0 I I #
point $-1 -78.301950132755508 52.12801721841879 15.399138409653872 #
point $-1 -78.301950132755508 -52.12801721841879 15.399138409653872 #
straight-curve $-1 78.301950132755508 -52.12801721841879 0 0 0 -1 I I #
straight-curve $-1 78.301950132755508 52.12801721841879 0 0 0 -1 I I #
face $-1 $356 $212 $16 $-1 $357 reversed single #
plane-surface $-1 0 0 15.399138409653872 0 0 1 1 0 0 forward_v I I I I #
coedge $-1 $358 $359 $286 $360 forward $198 $-1 #
coedge $-1 $200 $199 $285 $360 reversed $71 $-1 #
edge $-1 $361 -6.5078900991186543 $213 6.5078900991186543 $199 $362 forward 7 unknown #
edge $-1 $217 -6.5078900991186543 $363 6.5078900991186543 $200 $364 forward 7 unknown #
straight-curve $-1 -47.503673313447763 -65.143797416656099 0 0 0 -1 I I #
coedge $-1 $365 $202 $207 $296 forward $212 $-1 #
straight-curve $-1 -55.25601888606559 -58.635907317537445 -15.399138409653872 0 1 0 I I #
coedge $-1 $204 $366 $206 $295 forward $216 $-1 #
straight-curve $-1 -55.25601888606559 -58.635907317537445 15.399138409653872 0 -1 0 I I #
coedge $-1 $207 $206 $367 $368 forward $122 $-1 #
edge $-1 $369 -78.301950132755508 $209 -55.25601888606559 $206 $370 forward 7 unknown #
edge $-1 $208 55.25601888606559 $371 78.301950132755508 $207 $372 forward 7 unknown #
point $-1 -55.25601888606559 -52.12801721841879 -15.399138409653872 #
point $-1 -55.25601888606559 -52.12801721841879 15.399138409653872 #
coedge $-1 $211 $300 $358 $373 forward $212 $-1 #
coedge $-1 $299 $374 $375 $376 forward $212 $-1 #
point $-1 -47.503673313447763 -65.143797416656099 -15.399138409653872 #
coedge $-1 $303 $215 $359 $377 forward $216 $-1 #
coedge $-1 $378 $302 $379 $380 forward $216 $-1 #
point $-1 -47.503673313447763 -65.143797416656099 15.399138409653872 #
face $-1 $381 $382 $17 $-1 $383 reversed single #
loop $-1 $-1 $384 $221 #
plane-surface $-1 -55.25601888606559 -58.635907317537445 0 1 0 0 0 0 -1 forward_v I I I I #
coedge $-1 $385 $386 $387 $388 forward $222 $-1 #
coedge $-1 $224 $389 $390 $391 forward $138 $-1 #
coedge $-1 $390 $234 $225 $311 forward $236 $-1 #
edge $-1 $315 -109.15563740023377 $312 -96.613064921378495 $310 $392 forward 7 unknown #
vertex $-1 $311 $393 #
straight-curve $-1 44.946434129504894 22.255522099766345 15.399138409653872 -1 0 0 I I #
edge $-1 $232 -28.017594330806354 $315 -5.497816622908779 $234 $394 forward 7 unknown #
vertex $-1 $314 $395 #
straight-curve $-1 -26.486511169750429 22.255522099766345 119.23594535955881 -0.66913059716165679 0 0.74314483375859142 I I #
point $-1 67.008567427970235 22.255522099766345 15.399138409653872 #
point $-1 78.301950132755493 44.77529980766392 2.8565659307985953 #
coedge $-1 $235 $396 $397 $398 reversed $236 $-1 #
face $-1 $-1 $236 $17 $-1 $399 reversed single #
coedge $-1 $400 $238 $401 $402 forward $138 $-1 #
coedge $-1 $397 $403 $238 $323 reversed $404 $-1 #
edge $-1 $324 -78.301950132755508 $405 78.301950132755508 $322 $406 forward 7 unknown #
vertex $-1 $239 $407 #
straight-curve $-1 78.301950132755508 0 15.399138409653872 0 1 0 I I #
face $-1 $408 $409 $18 $-1 $410 reversed single #
loop $-1 $-1 $411 $242 #
plane-surface $-1 0 0 15.399138409653872 0 0 1 1 0 0 forward_v I I I I #
coedge $-1 $412 $413 $411 $414 reversed $243 $-1 #
coedge $-1 $415 $331 $336 $416 reversed $245 $-1 #
coedge $-1 $330 $417 $246 $332 reversed $245 $-1 #
edge $-1 $337 139.72620441257891 $418 156.60390026551102 $246 $419 forward 7 unknown #
coedge $-1 $420 $421 $247 $334 forward $422 $-1 #
edge $-1 $338 96.613064921378495 $418 109.15563740023377 $333 $423 forward 7 unknown #
coedge $-1 $424 $248 $421 $425 forward $327 $-1 #
coedge $-1 $248 $411 $330 $416 forward $327 $-1 #
vertex $-1 $416 $426 #
vertex $-1 $425 $427 #
straight-curve $-1 44.946434129504894 44.77529980766392 15.399138409653872 1 0 0 I I #
vertex $-1 $250 $428 #
point $-1 69.545757904265557 28.689744302022802 4.3095960034063081 #
face $-1 $429 $430 $19 $-1 $431 forward single #
plane-surface $-1 -26.486511169750429 33.515410953715133 119.23594535955881 0.74314483375859142 0 0.66913059716165679 0.66913059716165679 0 -0.74314483375859142 forward_v I I I I #
coedge $-1 $432 $433 $434 $435 reversed $255 $-1 #
coedge $-1 $345 $345 $-1 $436 forward $257 $-1 #
edge $-1 $437 0 $437 6.2831853071796004 $258 $438 forward 7 unknown #
vertex $-1 $261 $439 #
ellipse-curve $-1 72.655258780362885 28.689744302022802 9.1278521702262179 -0.74314483375859142 0 -0.66913059716165679 1.0036958957424851 0 -1.1147172506378871 1 I I #
vertex $-1 $262 $440 #
point $-1 69.545757904265557 38.341077605407477 4.3095960034063081 #
loop $-1 $-1 $441 $254 #
straight-curve $-1 -78.301950132755508 52.12801721841879 0 0 0 -1 I I #
point $-1 -78.301950132755508 -52.12801721841879 -15.399138409653872 #
straight-curve $-1 -78.301950132755508 0 -15.399138409653872 0 1 0 I I #
point $-1 -78.301950132755508 52.12801721841879 -15.399138409653872 #
face $-1 $442 $443 $16 $-1 $444 reversed single #
plane-surface $-1 0 0 -15.399138409653872 0 0 1 1 0 0 forward_v I I I I #
coedge $-1 $445 $285 $299 $373 reversed $198 $-1 #
coedge $-1 $285 $445 $302 $377 reversed $198 $-1 #
edge $-1 $363 -15.399138409653872 $361 15.399138409653872 $285 $446 forward 7 unknown #
vertex $-1 $287 $447 #
straight-curve $-1 -47.503673313447763 -58.635907317537445 -15.399138409653872 0 -1 0 I I #
vertex $-1 $377 $448 #
straight-curve $-1 -47.503673313447763 -58.635907317537445 15.399138409653872 0 1 0 I I #
coedge $-1 $374 $290 $449 $450 forward $212 $-1 #
coedge $-1 $292 $378 $451 $452 forward $216 $-1 #
coedge $-1 $451 $449 $294 $368 reversed $443 $-1 #
edge $-1 $369 -15.399138409653872 $371 15.399138409653872 $367 $453 forward 7 unknown #
vertex $-1 $452 $454 #
straight-curve $-1 0 -52.12801721841879 15.399138409653872 1 0 0 I I #
vertex $-1 $450 $455 #
straight-curve $-1 0 -52.12801721841879 -15.399138409653872 -1 0 0 I I #
edge $-1 $456 -78.301950132755508 $361 47.503673313447763 $358 $372 forward 7 unknown #
coedge $-1 $300 $365 $457 $458 forward $212 $-1 #
coedge $-1 $459 $460 $300 $376 reversed $461 $-1 #
edge $-1 $462 -52.12801721841879 $456 52.12801721841879 $375 $463 forward 7 unknown #
edge $-1 $363 -47.503673313447763 $464 78.301950132755508 $359 $370 forward 7 unknown #
coedge $-1 $366 $303 $465 $466 forward $216 $-1 #
coedge $-1 $460 $459 $303 $380 reversed $461 $-1 #
edge $-1 $464 -52.12801721841879 $467 52.12801721841879 $379 $468 forward 7 unknown #
face $-1 $469 $470 $17 $-1 $471 reversed single #
loop $-1 $-1 $472 $305 #
plane-surface $-1 -47.503673313447763 -58.635907317537445 0 -1 0 0 0 0 1 forward_v I I I I #
coedge $-1 $473 $474 $475 $476 reversed $306 $-1 #
coedge $-1 $477 $308 $478 $479 reversed $222 $-1 #
coedge $-1 $308 $477 $480 $481 reversed $222 $-1 #
coedge $-1 $474 $473 $308 $388 reversed $306 $-1 #
edge $-1 $482 -15.399138409653872 $483 15.399138409653872 $387 $484 forward 7 unknown #
coedge $-1 $309 $485 $486 $487 forward $138 $-1 #
coedge $-1 $488 $310 $309 $391 reversed $236 $-1 #
edge $-1 $489 -52.12801721841879 $312 22.255522099766345 $390 $325 forward 7 unknown #
straight-curve $-1 78.301950132755508 22.255522099766345 112.01220333103237 0 0 1 I I #
point $-1 78.301950132755508 22.255522099766345 15.399138409653872 #
straight-curve $-1 78.301950132755522 16.757705476857566 2.856565930798574 0 -1 0 I I #
point $-1 78.301950132755493 22.255522099766345 2.8565659307985953 #
coedge $-1 $319 $488 $490 $491 reversed $236 $-1 #
coedge $-1 $492 $322 $319 $398 forward $404 $-1 #
edge $-1 $324 -15.399138409653872 $493 15.399138409653872 $319 $494 forward 7 unknown #
plane-surface $-1 78.301950132755508 0 0 -1 0 0 0 0 1 forward_v I I I I #
coedge $-1 $495 $321 $496 $497 forward $138 $-1 #
coedge $-1 $498 $499 $321 $402 reversed $500 $-1 #
edge $-1 $405 -52.12801721841879 $501 52.12801721841879 $401 $502 forward 7 unknown #
coedge $-1 $322 $492 $498 $503 reversed $404 $-1 #
loop $-1 $-1 $397 $504 #
vertex $-1 $323 $505 #
straight-curve $-1 0 52.12801721841879 15.399138409653872 -1 0 0 I I #
point $-1 78.301950132755508 52.12801721841879 15.399138409653872 #
face $-1 $506 $507 $18 $-1 $508 reversed single #
loop $-1 $-1 $509 $326 #
plane-surface $-1 -51.379846099756676 -65.143797416656099 0 0 1 0 0 0 1 forward_v I I I I #
coedge $-1 $336 $510 $329 $414 forward $327 $-1 #
coedge $-1 $413 $329 $511 $512 reversed $243 $-1 #
coedge $-1 $329 $412 $415 $513 forward $243 $-1 #
edge $-1 $514 -33.355516003250614 $515 -22.062133298465341 $411 $516 forward 7 unknown #
coedge $-1 $417 $330 $413 $513 reversed $245 $-1 #
edge $-1 $515 5.497816622908779 $337 28.017594330806354 $336 $517 forward 7 unknown #
coedge $-1 $331 $415 $420 $518 reversed $245 $-1 #
vertex $-1 $518 $519 #
straight-curve $-1 -26.486511169750429 44.77529980766392 119.23594535955881 0.66913059716165679 0 -0.74314483375859142 I I #
coedge $-1 $511 $333 $417 $518 forward $422 $-1 #
coedge $-1 $333 $520 $335 $425 reversed $422 $-1 #
loop $-1 $-1 $511 $521 #
straight-curve $-1 78.301950132755508 44.77529980766392 112.01220333103237 0 0 -1 I I #
coedge $-1 $522 $335 $523 $524 forward $327 $-1 #
edge $-1 $338 44.77529980766392 $525 52.12801721841879 $421 $526 forward 7 unknown #
point $-1 67.008567427970235 44.77529980766392 15.399138409653872 #
point $-1 78.301950132755508 44.77529980766392 15.399138409653872 #
point $-1 67.427344757885194 28.689744302022802 4.4206173583017101 #
face $-1 $527 $528 $19 $-1 $529 forward single #
loop $-1 $-1 $530 $342 #
plane-surface $-1 89.892868259009788 22.255522099766345 224.02440666206473 0 1 0 0.74314483375859142 0 0.66913059716165679 forward_v I I I I #
coedge $-1 $433 $344 $531 $532 forward $255 $-1 #
coedge $-1 $344 $432 $533 $534 reversed $255 $-1 #
coedge $-1 $535 $536 $344 $435 forward $528 $-1 #
edge $-1 $537 22.062133298465341 $538 33.355516003250614 $434 $539 forward 7 unknown #
edge $-1 $540 1 $540 0 $345 $-1 forward 7 unknown #
vertex $-1 $346 $541 #
ellipse-curve $-1 68.542062008523075 28.689744302022802 5.4243132540441952 0.74314483375859142 0 0.66913059716165679 1.0036958957424851 0 -1.1147172506378871 1 I I #
point $-1 73.658954676105367 28.689744302022802 8.0131349195883388 #
point $-1 67.427344757885194 38.341077605407477 4.4206173583017101 #
coedge $-1 $542 $531 $536 $543 reversed $351 $-1 #
face $-1 $544 $545 $16 $-1 $546 reversed single #
loop $-1 $-1 $547 $356 #
plane-surface $-1 -78.301950132755508 0 0 1 0 0 0 0 -1 forward_v I I I I #
coedge $-1 $359 $358 $460 $548 reversed $198 $-1 #
straight-curve $-1 -47.503673313447763 -52.12801721841879 0 0 0 -1 I I #
point $-1 -47.503673313447763 -52.12801721841879 -15.399138409653872 #
point $-1 -47.503673313447763 -52.12801721841879 15.399138409653872 #
coedge $-1 $367 $547 $365 $450 reversed $443 $-1 #
edge $-1 $371 -52.12801721841879 $549 52.12801721841879 $449 $550 forward 7 unknown #
coedge $-1 $547 $367 $366 $452 reversed $443 $-1 #
edge $-1 $551 -52.12801721841879 $369 52.12801721841879 $451 $552 forward 7 unknown #
straight-curve $-1 -78.301950132755508 -52.12801721841879 0 0 0 -1 I I #
point $-1 -78.301950132755508 -52.12801721841879 15.399138409653872 #
point $-1 -78.301950132755508 -52.12801721841879 -15.399138409653872 #
vertex $-1 $548 $553 #
coedge $-1 $554 $555 $374 $458 reversed $545 $-1 #
edge $-1 $549 -78.301950132755508 $462 78.301950132755508 $457 $556 forward 7 unknown #
coedge $-1 $379 $375 $555 $557 reversed $461 $-1 #
coedge $-1 $375 $379 $445 $548 forward $461 $-1 #
loop $-1 $-1 $460 $544 #
vertex $-1 $376 $558 #
straight-curve $-1 78.301950132755508 0 -15.399138409653872 0 -1 0 I I #
vertex $-1 $380 $559 #
coedge $-1 $555 $554 $378 $466 reversed $545 $-1 #
edge $-1 $467 -78.301950132755508 $551 78.301950132755508 $465 $560 forward 7 unknown #
vertex $-1 $380 $561 #
straight-curve $-1 78.301950132755508 0 15.399138409653872 0 1 0 I I #
face $-1 $562 $563 $17 $-1 $471 reversed single #
loop $-1 $-1 $475 $381 #
plane-surface $-1 0 -52.12801721841879 0 0 1 0 0 0 1 forward_v I I I I #
coedge $-1 $564 $565 $477 $566 forward $382 $-1 #
coedge $-1 $387 $384 $567 $568 reversed $306 $-1 #
coedge $-1 $384 $387 $495 $569 reversed $306 $-1 #
coedge $-1 $496 $570 $384 $476 forward $470 $-1 #
edge $-1 $571 -15.399138409653872 $572 15.399138409653872 $475 $573 forward 7 unknown #
coedge $-1 $386 $385 $472 $566 reversed $222 $-1 #
coedge $-1 $567 $574 $385 $479 forward $575 $-1 #
edge $-1 $576 -3.8761727863089135 $483 3.8761727863089135 $385 $577 forward 7 unknown #
coedge $-1 $485 $495 $386 $481 forward $138 $-1 #
edge $-1 $482 -3.8761727863089135 $578 3.8761727863089135 $386 $579 forward 7 unknown #
vertex $-1 $569 $580 #
vertex $-1 $568 $581 #
straight-curve $-1 -55.25601888606559 -65.143797416656099 0 0 0 -1 I I #
coedge $-1 $389 $480 $565 $582 forward $138 $-1 #
coedge $-1 $583 $584 $389 $487 reversed $563 $-1 #
edge $-1 $585 -47.503673313447763 $489 78.301950132755508 $486 $586 forward 7 unknown #
coedge $-1 $396 $390 $584 $587 forward $236 $-1 #
vertex $-1 $391 $588 #
coedge $-1 $589 $590 $396 $491 forward $575 $-1 #
edge $-1 $493 -52.12801721841879 $591 52.12801721841879 $396 $592 forward 7 unknown #
coedge $-1 $403 $397 $590 $593 reversed $404 $-1 #
vertex $-1 $491 $594 #
straight-curve $-1 78.301950132755508 52.12801721841879 0 0 0 -1 I I #
coedge $-1 $480 $400 $474 $569 forward $138 $-1 #
coedge $-1 $595 $475 $400 $497 reversed $470 $-1 #
edge $-1 $501 -78.301950132755508 $572 -55.25601888606559 $496 $586 forward 7 unknown #
coedge $-1 $596 $401 $403 $503 forward $500 $-1 #
coedge $-1 $401 $596 $595 $597 reversed $500 $-1 #
loop $-1 $-1 $498 $598 #
vertex $-1 $402 $599 #
straight-curve $-1 -78.301950132755508 0 15.399138409653872 0 -1 0 I I #
edge $-1 $405 -15.399138409653872 $600 15.399138409653872 $403 $601 forward 7 unknown #
face $-1 $320 $404 $17 $-1 $602 reversed single #
point $-1 -78.301950132755508 52.12801721841879 15.399138409653872 #
face $-1 $603 $604 $18 $-1 $605 reversed single #
loop $-1 $-1 $606 $408 #
plane-surface $-1 -55.25601888606559 -58.635907317537445 0 1 0 0 0 0 -1 forward_v I I I I #
coedge $-1 $607 $608 $609 $610 forward $409 $-1 #
coedge $-1 $411 $611 $612 $613 forward $327 $-1 #
coedge $-1 $612 $420 $412 $512 forward $422 $-1 #
edge $-1 $614 -109.15563740023377 $514 -96.613064921378495 $511 $615 forward 7 unknown #
edge $-1 $614 -156.60390026551102 $515 -139.72620441257891 $413 $616 forward 7 unknown #
vertex $-1 $512 $617 #
vertex $-1 $416 $618 #
straight-curve $-1 44.946434129504894 22.255522099766345 15.399138409653872 -1 0 0 I I #
straight-curve $-1 67.008567427970235 16.757705476857566 15.399138409653872 0 1 0 I I #
edge $-1 $418 -28.017594330806354 $614 -5.497816622908779 $420 $619 forward 7 unknown #
point $-1 78.301950132755493 44.77529980766392 2.8565659307985953 #
coedge $-1 $421 $620 $621 $622 reversed $422 $-1 #
face $-1 $-1 $422 $18 $-1 $623 reversed single #
coedge $-1 $624 $424 $625 $626 forward $327 $-1 #
coedge $-1 $621 $627 $424 $524 reversed $628 $-1 #
edge $-1 $525 -78.301950132755508 $629 78.301950132755508 $523 $630 forward 7 unknown #
vertex $-1 $425 $631 #
straight-curve $-1 78.301950132755508 0 15.399138409653872 0 1 0 I I #
face $-1 $632 $633 $19 $-1 $634 reversed single #
loop $-1 $-1 $635 $429 #
plane-surface $-1 0 0 15.399138409653872 0 0 1 1 0 0 forward_v I I I I #
coedge $-1 $636 $637 $635 $638 reversed $430 $-1 #
coedge $-1 $441 $639 $432 $532 reversed $351 $-1 #
edge $-1 $537 139.72620441257891 $640 156.60390026551102 $432 $641 forward 7 unknown #
coedge $-1 $642 $643 $433 $534 forward $644 $-1 #
edge $-1 $538 96.613064921378495 $640 109.15563740023377 $533 $645 forward 7 unknown #
coedge $-1 $646 $434 $643 $647 forward $528 $-1 #
coedge $-1 $434 $635 $441 $543 forward $528 $-1 #
vertex $-1 $543 $648 #
vertex $-1 $647 $649 #
straight-curve $-1 44.946434129504894 44.77529980766392 15.399138409653872 1 0 0 I I #
vertex $-1 $436 $650 #
point $-1 69.545757904265557 28.689744302022802 4.3095960034063081 #
coedge $-1 $639 $441 $637 $651 reversed $351 $-1 #
edge $-1 $652 5.497816622908779 $537 28.017594330806354 $536 $653 forward 7 unknown #
face $-1 $-1 $461 $16 $-1 $654 reversed single #
loop $-1 $-1 $555 $442 #
plane-surface $-1 0 52.12801721841879 0 0 -1 0 0 0 -1 forward_v I I I I #
coedge $-1 $449 $451 $554 $655 forward $443 $-1 #
edge $-1 $464 -15.399138409653872 $456 15.399138409653872 $460 $656 forward 7 unknown #
vertex $-1 $458 $657 #
straight-curve $-1 -78.301950132755508 0 -15.399138409653872 0 1 0 I I #
vertex $-1 $466 $658 #
straight-curve $-1 -78.301950132755508 0 15.399138409653872 0 -1 0 I I #
point $-1 78.301950132755508 -52.12801721841879 -15.399138409653872 #
coedge $-1 $465 $457 $547 $655 reversed $545 $-1 #
coedge $-1 $457 $465 $459 $557 forward $545 $-1 #
straight-curve $-1 0 52.12801721841879 -15.399138409653872 1 0 0 I I #
edge $-1 $467 -15.399138409653872 $462 15.399138409653872 $459 $659 forward 7 unknown #
point $-1 78.301950132755508 52.12801721841879 -15.399138409653872 #
point $-1 78.301950132755508 -52.12801721841879 15.399138409653872 #
straight-curve $-1 0 52.12801721841879 15.399138409653872 -1 0 0 I I #
point $-1 78.301950132755508 52.12801721841879 15.399138409653872 #
face $-1 $598 $575 $17 $-1 $660 reversed single #
loop $-1 $-1 $583 $469 #
coedge $-1 $661 $472 $574 $662 reversed $382 $-1 #
coedge $-1 $472 $661 $485 $582 reversed $382 $-1 #
edge $-1 $578 -15.399138409653872 $576 15.399138409653872 $472 $663 forward 7 unknown #
coedge $-1 $664 $478 $473 $568 forward $575 $-1 #
edge $-1 $483 -6.5078900991186543 $571 6.5078900991186543 $473 $665 forward 7 unknown #
edge $-1 $572 -6.5078900991186543 $482 6.5078900991186543 $474 $666 forward 7 unknown #
coedge $-1 $475 $595 $664 $667 reversed $470 $-1 #
vertex $-1 $667 $668 #
vertex $-1 $569 $669 #
straight-curve $-1 -55.25601888606559 -52.12801721841879 0 0 0 1 I I #
coedge $-1 $478 $589 $564 $662 forward $575 $-1 #
loop $-1 $-1 $490 $562 #
vertex $-1 $566 $670 #
straight-curve $-1 -51.379846099756676 -65.143797416656099 -15.399138409653872 -1 0 0 I I #
vertex $-1 $582 $671 #
straight-curve $-1 -51.379846099756676 -65.143797416656099 15.399138409653872 1 0 0 I I #
point $-1 -55.25601888606559 -65.143797416656099 15.399138409653872 #
point $-1 -55.25601888606559 -65.143797416656099 -15.399138409653872 #
edge $-1 $578 -6.5078900991186543 $585 6.5078900991186543 $565 $672 forward 7 unknown #
coedge $-1 $673 $486 $661 $674 forward $563 $-1 #
coedge $-1 $486 $673 $488 $587 reversed $563 $-1 #
vertex $-1 $487 $675 #
straight-curve $-1 0 -52.12801721841879 15.399138409653872 1 0 0 I I #
edge $-1 $489 -15.399138409653872 $591 15.399138409653872 $488 $676 forward 7 unknown #
point $-1 78.301950132755508 -52.12801721841879 15.399138409653872 #
coedge $-1 $574 $490 $673 $677 forward $575 $-1 #
coedge $-1 $490 $678 $492 $593 forward $575 $-1 #
vertex $-1 $587 $679 #
straight-curve $-1 78.301950132755508 0 -15.399138409653872 0 -1 0 I I #
edge $-1 $600 -78.301950132755508 $493 78.301950132755508 $492 $680 forward 7 unknown #
point $-1 78.301950132755508 52.12801721841879 -15.399138409653872 #
coedge $-1 $570 $496 $499 $597 forward $470 $-1 #
coedge $-1 $499 $498 $678 $681 reversed $500 $-1 #
edge $-1 $501 -15.399138409653872 $682 15.399138409653872 $499 $683 forward 7 unknown #
face $-1 $504 $500 $17 $-1 $684 reversed single #
point $-1 -78.301950132755508 -52.12801721841879 15.399138409653872 #
vertex $-1 $593 $685 #
straight-curve $-1 -78.301950132755508 52.12801721841879 0 0 0 -1 I I #
plane-surface $-1 0 52.12801721841879 0 0 -1 0 0 0 -1 forward_v I I I I #
face $-1 $686 $687 $18 $-1 $688 reversed single #
loop $-1 $-1 $689 $506 #
plane-surface $-1 -47.503673313447763 -58.635907317537445 0 -1 0 0 0 0 1 forward_v I I I I #
coedge $-1 $690 $691 $692 $693 reversed $507 $-1 #
coedge $-1 $694 $509 $695 $696 reversed $409 $-1 #
coedge $-1 $509 $694 $697 $698 reversed $409 $-1 #
coedge $-1 $691 $690 $509 $610 reversed $507 $-1 #
edge $-1 $699 -15.399138409653872 $700 15.399138409653872 $609 $701 forward 7 unknown #
coedge $-1 $510 $702 $703 $704 forward $327 $-1 #
coedge $-1 $705 $511 $510 $613 reversed $422 $-1 #
edge $-1 $706 -52.12801721841879 $514 22.255522099766345 $612 $526 forward 7 unknown #
vertex $-1 $518 $707 #
straight-curve $-1 78.301950132755508 22.255522099766345 112.01220333103237 0 0 1 I I #
straight-curve $-1 -26.486511169750429 22.255522099766345 119.23594535955881 -0.66913059716165679 0 0.74314483375859142 I I #
point $-1 78.301950132755508 22.255522099766345 15.399138409653872 #
point $-1 67.008567427970235 22.255522099766345 15.399138409653872 #
straight-curve $-1 78.301950132755522 16.757705476857566 2.856565930798574 0 -1 0 I I #
coedge $-1 $520 $705 $708 $709 reversed $422 $-1 #
coedge $-1 $710 $523 $520 $622 forward $628 $-1 #
edge $-1 $525 -15.399138409653872 $711 15.399138409653872 $520 $712 forward 7 unknown #
plane-surface $-1 78.301950132755508 0 0 -1 0 0 0 0 1 forward_v I I I I #
coedge $-1 $713 $522 $714 $715 forward $327 $-1 #
coedge $-1 $716 $717 $522 $626 reversed $718 $-1 #
edge $-1 $629 -52.12801721841879 $719 52.12801721841879 $625 $720 forward 7 unknown #
coedge $-1 $523 $710 $716 $721 reversed $628 $-1 #
loop $-1 $-1 $621 $722 #
vertex $-1 $524 $723 #
straight-curve $-1 0 52.12801721841879 15.399138409653872 -1 0 0 I I #
point $-1 78.301950132755508 52.12801721841879 15.399138409653872 #
face $-1 $724 $725 $19 $-1 $726 reversed single #
loop $-1 $-1 $727 $527 #
plane-surface $-1 -51.379846099756676 -65.143797416656099 0 0 1 0 0 0 1 forward_v I I I I #
coedge $-1 $536 $728 $530 $638 forward $528 $-1 #
coedge $-1 $637 $530 $729 $730 reversed $430 $-1 #
coedge $-1 $530 $636 $542 $651 forward $430 $-1 #
edge $-1 $731 -33.355516003250614 $652 -22.062133298465341 $635 $732 forward 7 unknown #
coedge $-1 $531 $542 $642 $733 reversed $351 $-1 #
vertex $-1 $733 $734 #
straight-curve $-1 -26.486511169750429 44.77529980766392 119.23594535955881 0.66913059716165679 0 -0.74314483375859142 I I #
coedge $-1 $729 $533 $639 $733 forward $644 $-1 #
coedge $-1 $533 $735 $535 $647 reversed $644 $-1 #
loop $-1 $-1 $729 $736 #
straight-curve $-1 78.301950132755508 44.77529980766392 112.01220333103237 0 0 -1 I I #
coedge $-1 $737 $535 $738 $739 forward $528 $-1 #
edge $-1 $538 44.77529980766392 $740 52.12801721841879 $643 $741 forward 7 unknown #
point $-1 67.008567427970235 44.77529980766392 15.399138409653872 #
point $-1 78.301950132755508 44.77529980766392 15.399138409653872 #
point $-1 67.427344757885194 28.689744302022802 4.4206173583017101 #
edge $-1 $742 -156.60390026551102 $652 -139.72620441257891 $637 $743 forward 7 unknown #
vertex $-1 $543 $744 #
straight-curve $-1 67.008567427970235 16.757705476857566 15.399138409653872 0 1 0 I I #
plane-surface $-1 78.301950132755508 0 0 -1 0 0 0 0 1 forward_v I I I I #
edge $-1 $551 -15.399138409653872 $549 15.399138409653872 $554 $745 forward 7 unknown #
straight-curve $-1 78.301950132755508 -52.12801721841879 0 0 0 -1 I I #
point $-1 -78.301950132755508 52.12801721841879 -15.399138409653872 #
point $-1 -78.301950132755508 52.12801721841879 15.399138409653872 #
straight-curve $-1 78.301950132755508 52.12801721841879 0 0 0 -1 I I #
plane-surface $-1 0 0 -15.399138409653872 0 0 1 1 0 0 forward_v I I I I #
coedge $-1 $565 $564 $583 $674 reversed $382 $-1 #
edge $-1 $746 -6.5078900991186543 $576 6.5078900991186543 $564 $747 forward 7 unknown #
straight-curve $-1 -47.503673313447763 -65.143797416656099 0 0 0 -1 I I #
coedge $-1 $678 $567 $570 $667 forward $575 $-1 #
straight-curve $-1 -55.25601888606559 -58.635907317537445 -15.399138409653872 0 1 0 I I #
straight-curve $-1 -55.25601888606559 -58.635907317537445 15.399138409653872 0 -1 0 I I #
edge $-1 $571 55.25601888606559 $682 78.301950132755508 $570 $748 forward 7 unknown #
point $-1 -55.25601888606559 -52.12801721841879 -15.399138409653872 #
point $-1 -55.25601888606559 -52.12801721841879 15.399138409653872 #
point $-1 -47.503673313447763 -65.143797416656099 -15.399138409653872 #
point $-1 -47.503673313447763 -65.143797416656099 15.399138409653872 #
straight-curve $-1 -47.503673313447763 -58.635907317537445 15.399138409653872 0 1 0 I I #
coedge $-1 $584 $583 $589 $677 reversed $563 $-1 #
edge $-1 $585 -15.399138409653872 $746 15.399138409653872 $583 $749 forward 7 unknown #
point $-1 -47.503673313447763 -52.12801721841879 15.399138409653872 #
straight-curve $-1 78.301950132755508 -52.12801721841879 0 0 0 -1 I I #
edge $-1 $591 -78.301950132755508 $746 47.503673313447763 $673 $748 forward 7 unknown #
coedge $-1 $590 $664 $596 $681 forward $575 $-1 #
point $-1 78.301950132755508 -52.12801721841879 -15.399138409653872 #
straight-curve $-1 0 52.12801721841879 -15.399138409653872 1 0 0 I I #
edge $-1 $682 -52.12801721841879 $600 52.12801721841879 $596 $750 forward 7 unknown #
vertex $-1 $681 $751 #
straight-curve $-1 -78.301950132755508 -52.12801721841879 0 0 0 -1 I I #
plane-surface $-1 -78.301950132755508 0 0 1 0 0 0 0 -1 forward_v I I I I #
point $-1 -78.301950132755508 52.12801721841879 -15.399138409653872 #
face $-1 $752 $753 $18 $-1 $688 reversed single #
loop $-1 $-1 $692 $603 #
plane-surface $-1 0 -52.12801721841879 0 0 1 0 0 0 1 forward_v I I I I #
coedge $-1 $754 $755 $694 $756 forward $604 $-1 #
coedge $-1 $609 $606 $757 $758 reversed $507 $-1 #
coedge $-1 $606 $609 $713 $759 reversed $507 $-1 #
coedge $-1 $714 $760 $606 $693 forward $687 $-1 #
edge $-1 $761 -15.399138409653872 $762 15.399138409653872 $692 $763 forward 7 unknown #
coedge $-1 $608 $607 $689 $756 reversed $409 $-1 #
coedge $-1 $757 $764 $607 $696 forward $765 $-1 #
edge $-1 $766 -3.8761727863089135 $700 3.8761727863089135 $607 $767 forward 7 unknown #
coedge $-1 $702 $713 $608 $698 forward $327 $-1 #
edge $-1 $699 -3.8761727863089135 $768 3.8761727863089135 $608 $769 forward 7 unknown #
vertex $-1 $759 $770 #
vertex $-1 $758 $771 #
straight-curve $-1 -55.25601888606559 -65.143797416656099 0 0 0 -1 I I #
coedge $-1 $611 $697 $755 $772 forward $327 $-1 #
coedge $-1 $773 $774 $611 $704 reversed $753 $-1 #
edge $-1 $775 -47.503673313447763 $706 78.301950132755508 $703 $776 forward 7 unknown #
coedge $-1 $620 $612 $774 $777 forward $422 $-1 #
vertex $-1 $613 $778 #
point $-1 78.301950132755493 22.255522099766345 2.8565659307985953 #
coedge $-1 $779 $780 $620 $709 forward $765 $-1 #
edge $-1 $711 -52.12801721841879 $781 52.12801721841879 $620 $782 forward 7 unknown #
coedge $-1 $627 $621 $780 $783 reversed $628 $-1 #
vertex $-1 $709 $784 #
straight-curve $-1 78.301950132755508 52.12801721841879 0 0 0 -1 I I #
coedge $-1 $697 $624 $691 $759 forward $327 $-1 #
coedge $-1 $785 $692 $624 $715 reversed $687 $-1 #
edge $-1 $719 -78.301950132755508 $762 -55.25601888606559 $714 $776 forward 7 unknown #
coedge $-1 $786 $625 $627 $721 forward $718 $-1 #
coedge $-1 $625 $786 $785 $787 reversed $718 $-1 #
loop $-1 $-1 $716 $788 #
vertex $-1 $626 $789 #
straight-curve $-1 -78.301950132755508 0 15.399138409653872 0 -1 0 I I #
edge $-1 $629 -15.399138409653872 $790 15.399138409653872 $627 $791 forward 7 unknown #
face $-1 $521 $628 $18 $-1 $792 reversed single #
point $-1 -78.301950132755508 52.12801721841879 15.399138409653872 #
face $-1 $793 $794 $19 $-1 $795 reversed single #
loop $-1 $-1 $796 $632 #
plane-surface $-1 -55.25601888606559 -58.635907317537445 0 1 0 0 0 0 -1 forward_v I I I I #
coedge $-1 $797 $798 $799 $800 forward $633 $-1 #
coedge $-1 $635 $801 $802 $803 forward $528 $-1 #
coedge $-1 $802 $642 $636 $730 forward $644 $-1 #
edge $-1 $742 -109.15563740023377 $731 -96.613064921378495 $729 $804 forward 7 unknown #
vertex $-1 $730 $805 #
straight-curve $-1 44.946434129504894 22.255522099766345 15.399138409653872 -1 0 0 I I #
edge $-1 $640 -28.017594330806354 $742 -5.497816622908779 $642 $806 forward 7 unknown #
point $-1 78.301950132755493 44.77529980766392 2.8565659307985953 #
coedge $-1 $643 $807 $808 $809 reversed $644 $-1 #
face $-1 $-1 $644 $19 $-1 $810 reversed single #
coedge $-1 $811 $646 $812 $813 forward $528 $-1 #
coedge $-1 $808 $814 $646 $739 reversed $815 $-1 #
edge $-1 $740 -78.301950132755508 $816 78.301950132755508 $738 $817 forward 7 unknown #
vertex $-1 $647 $818 #
straight-curve $-1 78.301950132755508 0 15.399138409653872 0 1 0 I I #
vertex $-1 $733 $819 #
straight-curve $-1 -26.486511169750429 22.255522099766345 119.23594535955881 -0.66913059716165679 0 0.74314483375859142 I I #
point $-1 67.008567427970235 22.255522099766345 15.399138409653872 #
straight-curve $-1 -78.301950132755508 52.12801721841879 0 0 0 -1 I I #
vertex $-1 $662 $820 #
straight-curve $-1 -47.503673313447763 -58.635907317537445 -15.399138409653872 0 -1 0 I I #
straight-curve $-1 0 -52.12801721841879 -15.399138409653872 -1 0 0 I I #
straight-curve $-1 -47.503673313447763 -52.12801721841879 0 0 0 -1 I I #
straight-curve $-1 -78.301950132755508 0 -15.399138409653872 0 1 0 I I #
point $-1 -78.301950132755508 -52.12801721841879 -15.399138409653872 #
face $-1 $788 $765 $18 $-1 $821 reversed single #
loop $-1 $-1 $773 $686 #
coedge $-1 $822 $689 $764 $823 reversed $604 $-1 #
coedge $-1 $689 $822 $702 $772 reversed $604 $-1 #
edge $-1 $768 -15.399138409653872 $766 15.399138409653872 $689 $824 forward 7 unknown #
coedge $-1 $825 $695 $690 $758 forward $765 $-1 #
edge $-1 $700 -6.5078900991186543 $761 6.5078900991186543 $690 $826 forward 7 unknown #
edge $-1 $762 -6.5078900991186543 $699 6.5078900991186543 $691 $827 forward 7 unknown #
coedge $-1 $692 $785 $825 $828 reversed $687 $-1 #
vertex $-1 $828 $829 #
vertex $-1 $759 $830 #
straight-curve $-1 -55.25601888606559 -52.12801721841879 0 0 0 1 I I #
coedge $-1 $695 $779 $754 $823 forward $765 $-1 #
loop $-1 $-1 $708 $752 #
vertex $-1 $756 $831 #
straight-curve $-1 -51.379846099756676 -65.143797416656099 -15.399138409653872 -1 0 0 I I #
vertex $-1 $772 $832 #
straight-curve $-1 -51.379846099756676 -65.143797416656099 15.399138409653872 1 0 0 I I #
point $-1 -55.25601888606559 -65.143797416656099 15.399138409653872 #
point $-1 -55.25601888606559 -65.143797416656099 -15.399138409653872 #
edge $-1 $768 -6.5078900991186543 $775 6.5078900991186543 $755 $833 forward 7 unknown #
coedge $-1 $834 $703 $822 $835 forward $753 $-1 #
coedge $-1 $703 $834 $705 $777 reversed $753 $-1 #
vertex $-1 $704 $836 #
straight-curve $-1 0 -52.12801721841879 15.399138409653872 1 0 0 I I #
edge $-1 $706 -15.399138409653872 $781 15.399138409653872 $705 $837 forward 7 unknown #
point $-1 78.301950132755508 -52.12801721841879 15.399138409653872 #
coedge $-1 $764 $708 $834 $838 forward $765 $-1 #
coedge $-1 $708 $839 $710 $783 forward $765 $-1 #
vertex $-1 $777 $840 #
straight-curve $-1 78.301950132755508 0 -15.399138409653872 0 -1 0 I I #
edge $-1 $790 -78.301950132755508 $711 78.301950132755508 $710 $841 forward 7 unknown #
point $-1 78.301950132755508 52.12801721841879 -15.399138409653872 #
coedge $-1 $760 $714 $717 $787 forward $687 $-1 #
coedge $-1 $717 $716 $839 $842 reversed $718 $-1 #
edge $-1 $719 -15.399138409653872 $843 15.399138409653872 $717 $844 forward 7 unknown #
face $-1 $722 $718 $18 $-1 $845 reversed single #
point $-1 -78.301950132755508 -52.12801721841879 15.399138409653872 #
vertex $-1 $783 $846 #
straight-curve $-1 -78.301950132755508 52.12801721841879 0 0 0 -1 I I #
plane-surface $-1 0 52.12801721841879 0 0 -1 0 0 0 -1 forward_v I I I I #
face $-1 $847 $848 $19 $-1 $849 reversed single #
loop $-1 $-1 $850 $724 #
plane-surface $-1 -47.503673313447763 -58.635907317537445 0 -1 0 0 0 0 1 forward_v I I I I #
coedge $-1 $851 $852 $853 $854 reversed $725 $-1 #
coedge $-1 $855 $727 $856 $857 reversed $633 $-1 #
coedge $-1 $727 $855 $858 $859 reversed $633 $-1 #
coedge $-1 $852 $851 $727 $800 reversed $725 $-1 #
edge $-1 $860 -15.399138409653872 $861 15.399138409653872 $799 $862 forward 7 unknown #
coedge $-1 $728 $863 $864 $865 forward $528 $-1 #
coedge $-1 $866 $729 $728 $803 reversed $644 $-1 #
edge $-1 $867 -52.12801721841879 $731 22.255522099766345 $802 $741 forward 7 unknown #
straight-curve $-1 78.301950132755508 22.255522099766345 112.01220333103237 0 0 1 I I #
point $-1 78.301950132755508 22.255522099766345 15.399138409653872 #
straight-curve $-1 78.301950132755522 16.757705476857566 2.856565930798574 0 -1 0 I I #
coedge $-1 $735 $866 $868 $869 reversed $644 $-1 #
coedge $-1 $870 $738 $735 $809 forward $815 $-1 #
edge $-1 $740 -15.399138409653872 $871 15.399138409653872 $735 $872 forward 7 unknown #
plane-surface $-1 78.301950132755508 0 0 -1 0 0 0 0 1 forward_v I I I I #
coedge $-1 $873 $737 $874 $875 forward $528 $-1 #
coedge $-1 $876 $877 $737 $813 reversed $878 $-1 #
edge $-1 $816 -52.12801721841879 $879 52.12801721841879 $812 $880 forward 7 unknown #
coedge $-1 $738 $870 $876 $881 reversed $815 $-1 #
loop $-1 $-1 $808 $882 #
vertex $-1 $739 $883 #
straight-curve $-1 0 52.12801721841879 15.399138409653872 -1 0 0 I I #
point $-1 78.301950132755508 52.12801721841879 15.399138409653872 #
point $-1 78.301950132755493 22.255522099766345 2.8565659307985953 #
point $-1 -47.503673313447763 -52.12801721841879 -15.399138409653872 #
plane-surface $-1 0 0 -15.399138409653872 0 0 1 1 0 0 forward_v I I I I #
coedge $-1 $755 $754 $773 $835 reversed $604 $-1 #
edge $-1 $884 -6.5078900991186543 $766 6.5078900991186543 $754 $885 forward 7 unknown #
straight-curve $-1 -47.503673313447763 -65.143797416656099 0 0 0 -1 I I #
coedge $-1 $839 $757 $760 $828 forward $765 $-1 #
straight-curve $-1 -55.25601888606559 -58.635907317537445 -15.399138409653872 0 1 0 I I #
straight-curve $-1 -55.25601888606559 -58.635907317537445 15.399138409653872 0 -1 0 I I #
edge $-1 $761 55.25601888606559 $843 78.301950132755508 $760 $886 forward 7 unknown #
point $-1 -55.25601888606559 -52.12801721841879 -15.399138409653872 #
point $-1 -55.25601888606559 -52.12801721841879 15.399138409653872 #
point $-1 -47.503673313447763 -65.143797416656099 -15.399138409653872 #
point $-1 -47.503673313447763 -65.143797416656099 15.399138409653872 #
straight-curve $-1 -47.503673313447763 -58.635907317537445 15.399138409653872 0 1 0 I I #
coedge $-1 $774 $773 $779 $838 reversed $753 $-1 #
edge $-1 $775 -15.399138409653872 $884 15.399138409653872 $773 $887 forward 7 unknown #
point $-1 -47.503673313447763 -52.12801721841879 15.399138409653872 #
straight-curve $-1 78.301950132755508 -52.12801721841879 0 0 0 -1 I I #
edge $-1 $781 -78.301950132755508 $884 47.503673313447763 $834 $886 forward 7 unknown #
coedge $-1 $780 $825 $786 $842 forward $765 $-1 #
point $-1 78.301950132755508 -52.12801721841879 -15.399138409653872 #
straight-curve $-1 0 52.12801721841879 -15.399138409653872 1 0 0 I I #
edge $-1 $843 -52.12801721841879 $790 52.12801721841879 $786 $888 forward 7 unknown #
vertex $-1 $842 $889 #
straight-curve $-1 -78.301950132755508 -52.12801721841879 0 0 0 -1 I I #
plane-surface $-1 -78.301950132755508 0 0 1 0 0 0 0 -1 forward_v I I I I #
point $-1 -78.301950132755508 52.12801721841879 -15.399138409653872 #
face $-1 $890 $891 $19 $-1 $849 reversed single #
loop $-1 $-1 $853 $793 #
plane-surface $-1 0 -52.12801721841879 0 0 1 0 0 0 1 forward_v I I I I #
coedge $-1 $892 $893 $855 $894 forward $794 $-1 #
coedge $-1 $799 $796 $895 $896 reversed $725 $-1 #
coedge $-1 $796 $799 $873 $897 reversed $725 $-1 #
coedge $-1 $874 $898 $796 $854 forward $848 $-1 #
edge $-1 $899 -15.399138409653872 $900 15.399138409653872 $853 $901 forward 7 unknown #
coedge $-1 $798 $797 $850 $894 reversed $633 $-1 #
coedge $-1 $895 $902 $797 $857 forward $903 $-1 #
edge $-1 $904 -3.8761727863089135 $861 3.8761727863089135 $797 $905 forward 7 unknown #
coedge $-1 $863 $873 $798 $859 forward $528 $-1 #
edge $-1 $860 -3.8761727863089135 $906 3.8761727863089135 $798 $907 forward 7 unknown #
vertex $-1 $897 $908 #
vertex $-1 $896 $909 #
straight-curve $-1 -55.25601888606559 -65.143797416656099 0 0 0 -1 I I #
coedge $-1 $801 $858 $893 $910 forward $528 $-1 #
coedge $-1 $911 $912 $801 $865 reversed $891 $-1 #
edge $-1 $913 -47.503673313447763 $867 78.301950132755508 $864 $914 forward 7 unknown #
coedge $-1 $807 $802 $912 $915 forward $644 $-1 #
vertex $-1 $803 $916 #
coedge $-1 $917 $918 $807 $869 forward $903 $-1 #
edge $-1 $871 -52.12801721841879 $919 52.12801721841879 $807 $920 forward 7 unknown #
coedge $-1 $814 $808 $918 $921 reversed $815 $-1 #
vertex $-1 $869 $922 #
straight-curve $-1 78.301950132755508 52.12801721841879 0 0 0 -1 I I #
coedge $-1 $858 $811 $852 $897 forward $528 $-1 #
coedge $-1 $923 $853 $811 $875 reversed $848 $-1 #
edge $-1 $879 -78.301950132755508 $900 -55.25601888606559 $874 $914 forward 7 unknown #
coedge $-1 $924 $812 $814 $881 forward $878 $-1 #
coedge $-1 $812 $924 $923 $925 reversed $878 $-1 #
loop $-1 $-1 $876 $926 #
vertex $-1 $813 $927 #
straight-curve $-1 -78.301950132755508 0 15.399138409653872 0 -1 0 I I #
edge $-1 $816 -15.399138409653872 $928 15.399138409653872 $814 $929 forward 7 unknown #
face $-1 $736 $815 $19 $-1 $930 reversed single #
point $-1 -78.301950132755508 52.12801721841879 15.399138409653872 #
vertex $-1 $823 $931 #
straight-curve $-1 -47.503673313447763 -58.635907317537445 -15.399138409653872 0 -1 0 I I #
straight-curve $-1 0 -52.12801721841879 -15.399138409653872 -1 0 0 I I #
straight-curve $-1 -47.503673313447763 -52.12801721841879 0 0 0 -1 I I #
straight-curve $-1 -78.301950132755508 0 -15.399138409653872 0 1 0 I I #
point $-1 -78.301950132755508 -52.12801721841879 -15.399138409653872 #
face $-1 $926 $903 $19 $-1 $932 reversed single #
loop $-1 $-1 $911 $847 #
coedge $-1 $933 $850 $902 $934 reversed $794 $-1 #
coedge $-1 $850 $933 $863 $910 reversed $794 $-1 #
edge $-1 $906 -15.399138409653872 $904 15.399138409653872 $850 $935 forward 7 unknown #
coedge $-1 $936 $856 $851 $896 forward $903 $-1 #
edge $-1 $861 -6.5078900991186543 $899 6.5078900991186543 $851 $937 forward 7 unknown #
edge $-1 $900 -6.5078900991186543 $860 6.5078900991186543 $852 $938 forward 7 unknown #
coedge $-1 $853 $923 $936 $939 reversed $848 $-1 #
vertex $-1 $939 $940 #
vertex $-1 $897 $941 #
straight-curve $-1 -55.25601888606559 -52.12801721841879 0 0 0 1 I I #
coedge $-1 $856 $917 $892 $934 forward $903 $-1 #
loop $-1 $-1 $868 $890 #
vertex $-1 $894 $942 #
straight-curve $-1 -51.379846099756676 -65.143797416656099 -15.399138409653872 -1 0 0 I I #
vertex $-1 $910 $943 #
straight-curve $-1 -51.379846099756676 -65.143797416656099 15.399138409653872 1 0 0 I I #
point $-1 -55.25601888606559 -65.143797416656099 15.399138409653872 #
point $-1 -55.25601888606559 -65.143797416656099 -15.399138409653872 #
edge $-1 $906 -6.5078900991186543 $913 6.5078900991186543 $893 $944 forward 7 unknown #
coedge $-1 $945 $864 $933 $946 forward $891 $-1 #
coedge $-1 $864 $945 $866 $915 reversed $891 $-1 #
vertex $-1 $865 $947 #
straight-curve $-1 0 -52.12801721841879 15.399138409653872 1 0 0 I I #
edge $-1 $867 -15.399138409653872 $919 15.399138409653872 $866 $948 forward 7 unknown #
point $-1 78.301950132755508 -52.12801721841879 15.399138409653872 #
coedge $-1 $902 $868 $945 $949 forward $903 $-1 #
coedge $-1 $868 $950 $870 $921 forward $903 $-1 #
vertex $-1 $915 $951 #
straight-curve $-1 78.301950132755508 0 -15.399138409653872 0 -1 0 I I #
edge $-1 $928 -78.301950132755508 $871 78.301950132755508 $870 $952 forward 7 unknown #
point $-1 78.301950132755508 52.12801721841879 -15.399138409653872 #
coedge $-1 $898 $874 $877 $925 forward $848 $-1 #
coedge $-1 $877 $876 $950 $953 reversed $878 $-1 #
edge $-1 $879 -15.399138409653872 $954 15.399138409653872 $877 $955 forward 7 unknown #
face $-1 $882 $878 $19 $-1 $956 reversed single #
point $-1 -78.301950132755508 -52.12801721841879 15.399138409653872 #
vertex $-1 $921 $957 #
straight-curve $-1 -78.301950132755508 52.12801721841879 0 0 0 -1 I I #
plane-surface $-1 0 52.12801721841879 0 0 -1 0 0 0 -1 forward_v I I I I #
point $-1 -47.503673313447763 -52.12801721841879 -15.399138409653872 #
plane-surface $-1 0 0 -15.399138409653872 0 0 1 1 0 0 forward_v I I I I #
coedge $-1 $893 $892 $911 $946 reversed $794 $-1 #
edge $-1 $958 -6.5078900991186543 $904 6.5078900991186543 $892 $959 forward 7 unknown #
straight-curve $-1 -47.503673313447763 -65.143797416656099 0 0 0 -1 I I #
coedge $-1 $950 $895 $898 $939 forward $903 $-1 #
straight-curve $-1 -55.25601888606559 -58.635907317537445 -15.399138409653872 0 1 0 I I #
straight-curve $-1 -55.25601888606559 -58.635907317537445 15.399138409653872 0 -1 0 I I #
edge $-1 $899 55.25601888606559 $954 78.301950132755508 $898 $960 forward 7 unknown #
point $-1 -55.25601888606559 -52.12801721841879 -15.399138409653872 #
point $-1 -55.25601888606559 -52.12801721841879 15.399138409653872 #
point $-1 -47.503673313447763 -65.143797416656099 -15.399138409653872 #
point $-1 -47.503673313447763 -65.143797416656099 15.399138409653872 #
straight-curve $-1 -47.503673313447763 -58.635907317537445 15.399138409653872 0 1 0 I I #
coedge $-1 $912 $911 $917 $949 reversed $891 $-1 #
edge $-1 $913 -15.399138409653872 $958 15.399138409653872 $911 $961 forward 7 unknown #
point $-1 -47.503673313447763 -52.12801721841879 15.399138409653872 #
straight-curve $-1 78.301950132755508 -52.12801721841879 0 0 0 -1 I I #
edge $-1 $919 -78.301950132755508 $958 47.503673313447763 $945 $960 forward 7 unknown #
coedge $-1 $918 $936 $924 $953 forward $903 $-1 #
point $-1 78.301950132755508 -52.12801721841879 -15.399138409653872 #
straight-curve $-1 0 52.12801721841879 -15.399138409653872 1 0 0 I I #
edge $-1 $954 -52.12801721841879 $928 52.12801721841879 $924 $962 forward 7 unknown #
vertex $-1 $953 $963 #
straight-curve $-1 -78.301950132755508 -52.12801721841879 0 0 0 -1 I I #
plane-surface $-1 -78.301950132755508 0 0 1 0 0 0 0 -1 forward_v I I I I #
point $-1 -78.301950132755508 52.12801721841879 -15.399138409653872 #
vertex $-1 $934 $964 #
straight-curve $-1 -47.503673313447763 -58.635907317537445 -15.399138409653872 0 -1 0 I I #
straight-curve $-1 0 -52.12801721841879 -15.399138409653872 -1 0 0 I I #
straight-curve $-1 -47.503673313447763 -52.12801721841879 0 0 0 -1 I I #
straight-curve $-1 -78.301950132755508 0 -15.399138409653872 0 1 0 I I #
point $-1 -78.301950132755508 -52.12801721841879 -15.399138409653872 #
point $-1 -47.503673313447763 -52.12801721841879 -15.399138409653872 #
End-of-ACIS-data 