500 0 6 0           
7 Unknown 11 ACIS 5.0 NT 24 Fri Mar 26 15:33:47 1999 
-1 9.9999999999999995e-007 1e-010 
body $-1 $6 $-1 $7 #
body $-1 $8 $-1 $9 #
body $-1 $10 $-1 $11 #
body $-1 $12 $-1 $13 #
body $-1 $14 $-1 $15 #
body $-1 $16 $-1 $17 #
lump $-1 $-1 $18 $0 #
transform $-1 1 0 0 0 1 0 0 0 1 50.099185155796988 20.400659737396882 8.2636151177258022 1 rotate no_reflect no_shear #
lump $-1 $-1 $19 $1 #
transform $-1 1 0 0 0 1 0 0 0 1 50.099185155796988 20.400659737396882 8.2636151177258022 1 rotate no_reflect no_shear #
lump $-1 $-1 $20 $2 #
transform $-1 1 0 0 0 1 0 0 0 1 50.099185155796988 20.400659737396882 8.2636151177258022 1 rotate no_reflect no_shear #
lump $-1 $-1 $21 $3 #
transform $-1 1 0 0 0 1 0 0 0 1 50.099185155796988 20.400659737396882 8.2636151177258022 1 rotate no_reflect no_shear #
lump $-1 $-1 $22 $4 #
transform $-1 1 0 0 0 1 0 0 0 1 50.099185155796988 20.400659737396882 8.2636151177258022 1 rotate no_reflect no_shear #
lump $-1 $-1 $23 $5 #
transform $-1 1 0 0 0 1 0 0 0 1 50.099185155796988 20.400659737396882 8.2636151177258022 1 rotate no_reflect no_shear #
shell $-1 $-1 $-1 $24 $-1 $6 #
shell $-1 $-1 $-1 $25 $-1 $8 #
shell $-1 $-1 $-1 $26 $-1 $10 #
shell $-1 $-1 $-1 $27 $-1 $12 #
shell $-1 $-1 $-1 $28 $-1 $14 #
shell $-1 $-1 $-1 $29 $-1 $16 #
face $-1 $30 $31 $18 $-1 $32 forward single #
face $-1 $33 $34 $19 $-1 $35 reversed single #
face $-1 $36 $37 $20 $-1 $38 reversed single #
face $-1 $39 $40 $21 $-1 $41 reversed single #
face $-1 $42 $43 $22 $-1 $44 forward single #
face $-1 $45 $46 $23 $-1 $47 forward single #
face $-1 $48 $49 $18 $-1 $50 reversed single #
loop $-1 $-1 $51 $24 #
plane-surface $-1 0 0 8.2636151177258022 0 0 1 1 0 0 forward_v I I I I #
face $-1 $52 $53 $19 $-1 $54 reversed single #
loop $-1 $-1 $55 $25 #
plane-surface $-1 0 -16.38869187297632 5.2636151177258022 0 0 1 1 0 0 forward_v I I I I #
face $-1 $56 $57 $20 $-1 $58 reversed single #
loop $-1 $-1 $59 $26 #
plane-surface $-1 0 16.38869187297632 5.2636151177258022 0 0 1 1 0 0 forward_v I I I I #
face $-1 $60 $61 $21 $-1 $62 reversed single #
loop $-1 $-1 $63 $27 #
plane-surface $-1 37.749052771963264 -5.4435586374546041 144.27197894721397 0 -1 0 -0.64278761758704617 0 -0.76604443648966558 forward_v I I I I #
face $-1 $64 $65 $22 $-1 $66 forward single #
loop $-1 $67 $68 $28 #
cone-surface $-1 46.706456470747305 -10.39581961681257 5.3034368836140731 -0.64278761758704617 0 -0.76604443648966558 0.38302221824483279 0 -0.32139380879352308 1 I I 0 1 0.5 forward I I I I #
face $-1 $69 $70 $23 $-1 $71 forward single #
loop $-1 $72 $73 $29 #
cone-surface $-1 46.706456470747305 -7.4244630291977884 5.3034368836140731 -0.64278761758704617 0 -0.76604443648966558 0.38302221824483279 0 -0.32139380879352308 1 I I 0 1 0.5 forward I I I I #
face $-1 $74 $75 $18 $-1 $76 reversed single #
loop $-1 $-1 $77 $30 #
plane-surface $-1 0 0 -8.2636151177258022 0 0 1 1 0 0 forward_v I I I I #
coedge $-1 $78 $79 $80 $81 forward $31 $-1 #
face $-1 $82 $83 $19 $-1 $84 reversed single #
loop $-1 $-1 $85 $33 #
plane-surface $-1 0 -12.376724008555758 6.7636151177258022 0 -1 0 0 0 -1 forward_v I I I I #
coedge $-1 $86 $87 $88 $89 reversed $34 $-1 #
face $-1 $90 $91 $20 $-1 $92 forward single #
loop $-1 $-1 $93 $36 #
plane-surface $-1 0 12.376724008555758 6.7636151177258022 0 1 0 0 0 1 forward_v I I I I #
coedge $-1 $94 $95 $96 $97 reversed $37 $-1 #
face $-1 $98 $99 $21 $-1 $100 forward single #
loop $-1 $-1 $101 $39 #
plane-surface $-1 -26.657218966730838 -8.9101413230051811 67.515574824686126 0.64278761758704617 0 0.76604443648966558 0.76604443648966558 0 -0.64278761758704617 forward_v I I I I #
coedge $-1 $102 $103 $104 $105 reversed $40 $-1 #
face $-1 $-1 $106 $22 $-1 $107 forward single #
loop $-1 $108 $109 $42 #
cone-surface $-1 46.224365757557024 -10.39581961681257 4.7289035562468236 -0.64278761758704617 0 -0.76604443648966558 0.1915111091224164 0 -0.16069690439676154 1 I I -0.70710678118654746 0.70710678118654746 0.25 forward I I I I #
loop $-1 $-1 $110 $28 #
coedge $-1 $68 $68 $111 $112 reversed $43 $-1 #
face $-1 $-1 $113 $23 $-1 $114 forward single #
loop $-1 $115 $116 $45 #
cone-surface $-1 46.224365757557024 -7.4244630291977884 4.7289035562468236 -0.64278761758704617 0 -0.76604443648966558 0.1915111091224164 0 -0.16069690439676154 1 I I -0.70710678118654746 0.70710678118654746 0.25 forward I I I I #
loop $-1 $-1 $117 $29 #
coedge $-1 $73 $73 $118 $119 reversed $46 $-1 #
face $-1 $120 $121 $18 $-1 $122 reversed single #
loop $-1 $-1 $123 $48 #
plane-surface $-1 0 -20.400659737396882 0 0 1 0 0 0 1 forward_v I I I I #
coedge $-1 $124 $125 $126 $127 forward $49 $-1 #
coedge $-1 $128 $51 $129 $130 forward $31 $-1 #
coedge $-1 $51 $128 $131 $132 forward $31 $-1 #
coedge $-1 $133 $134 $51 $81 reversed $135 $-1 #
edge $-1 $136 -20.400659737396882 $137 20.400659737396882 $80 $138 forward 7 unknown #
face $-1 $139 $140 $19 $-1 $141 reversed single #
loop $-1 $-1 $142 $52 #
plane-surface $-1 -50.099185155796988 0 0 1 0 0 0 0 -1 forward_v I I I I #
coedge $-1 $143 $144 $87 $145 reversed $53 $-1 #
coedge $-1 $146 $55 $147 $148 reversed $34 $-1 #
coedge $-1 $55 $146 $85 $145 forward $34 $-1 #
coedge $-1 $149 $150 $55 $89 forward $151 $-1 #
edge $-1 $152 -12.206313800908722 $153 -4.182378072067598 $88 $154 forward 7 unknown #
face $-1 $155 $156 $20 $-1 $157 reversed single #
loop $-1 $-1 $158 $56 #
plane-surface $-1 0 0 8.2636151177258022 0 0 1 1 0 0 forward_v I I I I #
coedge $-1 $159 $160 $161 $162 reversed $57 $-1 #
coedge $-1 $163 $59 $159 $164 forward $37 $-1 #
coedge $-1 $59 $163 $165 $166 reversed $37 $-1 #
coedge $-1 $167 $168 $59 $97 forward $156 $-1 #
edge $-1 $169 4.182378072067598 $170 12.206313800908722 $96 $171 forward 7 unknown #
face $-1 $172 $173 $21 $-1 $174 forward single #
loop $-1 $-1 $104 $60 #
plane-surface $-1 0 0 8.2636151177258022 0 0 1 1 0 0 forward_v I I I I #
coedge $-1 $175 $176 $177 $178 reversed $61 $-1 #
coedge $-1 $103 $63 $179 $180 reversed $40 $-1 #
coedge $-1 $63 $102 $175 $181 reversed $40 $-1 #
coedge $-1 $177 $182 $63 $105 forward $99 $-1 #
edge $-1 $183 -31.224658769815356 $184 -25.081989017303037 $104 $185 forward 7 unknown #
loop $-1 $-1 $111 $64 #
plane-surface $-1 -26.657218966730838 -8.9101413230051811 67.515574824686126 0.64278761758704617 0 0.76604443648966558 0.76604443648966558 0 -0.64278761758704617 forward_v I I I I #
loop $-1 $-1 $186 $42 #
coedge $-1 $109 $109 $110 $187 reversed $65 $-1 #
coedge $-1 $110 $110 $109 $187 forward $67 $-1 #
coedge $-1 $111 $111 $68 $112 forward $106 $-1 #
edge $-1 $188 0 $188 6.2831853071796004 $111 $189 forward 7 unknown #
loop $-1 $-1 $118 $69 #
plane-surface $-1 -26.657218966730838 -8.9101413230051811 67.515574824686126 0.64278761758704617 0 0.76604443648966558 0.76604443648966558 0 -0.64278761758704617 forward_v I I I I #
loop $-1 $-1 $190 $45 #
coedge $-1 $116 $116 $117 $191 reversed $70 $-1 #
coedge $-1 $117 $117 $116 $191 forward $72 $-1 #
coedge $-1 $118 $118 $73 $119 forward $113 $-1 #
edge $-1 $192 0 $192 6.2831853071796004 $118 $193 forward 7 unknown #
face $-1 $194 $195 $18 $-1 $196 reversed single #
loop $-1 $-1 $197 $74 #
plane-surface $-1 -50.099185155796988 0 0 1 0 0 0 0 -1 forward_v I I I I #
coedge $-1 $198 $131 $199 $200 forward $75 $-1 #
coedge $-1 $201 $77 $198 $202 forward $49 $-1 #
coedge $-1 $77 $201 $203 $204 forward $49 $-1 #
coedge $-1 $134 $133 $77 $127 reversed $135 $-1 #
edge $-1 $205 -20.400659737396882 $206 20.400659737396882 $126 $207 forward 7 unknown #
coedge $-1 $79 $78 $208 $209 forward $31 $-1 #
coedge $-1 $210 $211 $78 $130 reversed $195 $-1 #
edge $-1 $137 -50.099185155796988 $212 50.099185155796988 $129 $213 forward 7 unknown #
coedge $-1 $123 $214 $79 $132 reversed $75 $-1 #
edge $-1 $215 -50.099185155796988 $136 50.099185155796988 $131 $216 forward 7 unknown #
coedge $-1 $126 $80 $214 $217 forward $135 $-1 #
coedge $-1 $80 $126 $210 $218 reversed $135 $-1 #
loop $-1 $-1 $133 $194 #
vertex $-1 $81 $219 #
vertex $-1 $81 $220 #
straight-curve $-1 50.099185155796988 0 8.2636151177258022 0 1 0 I I #
face $-1 $221 $222 $19 $-1 $223 forward single #
loop $-1 $-1 $147 $82 #
plane-surface $-1 0 -20.400659737396882 0 0 1 0 0 0 1 forward_v I I I I #
coedge $-1 $224 $225 $143 $226 forward $83 $-1 #
coedge $-1 $227 $85 $142 $226 reversed $53 $-1 #
coedge $-1 $85 $227 $149 $228 reversed $53 $-1 #
edge $-1 $229 -50.099185155796988 $153 50.099185155796988 $85 $230 forward 7 unknown #
coedge $-1 $87 $86 $224 $231 reversed $34 $-1 #
coedge $-1 $232 $233 $86 $148 forward $140 $-1 #
edge $-1 $234 -50.099185155796988 $152 50.099185155796988 $147 $235 forward 7 unknown #
coedge $-1 $236 $88 $144 $228 forward $151 $-1 #
coedge $-1 $88 $236 $232 $237 forward $151 $-1 #
loop $-1 $-1 $149 $221 #
vertex $-1 $148 $238 #
vertex $-1 $89 $239 #
straight-curve $-1 50.099185155796988 -8.1943459364881601 5.2636151177258022 0 1 0 I I #
face $-1 $240 $241 $20 $-1 $242 reversed single #
loop $-1 $-1 $168 $90 #
plane-surface $-1 50.099185155796988 0 0 -1 0 0 0 0 1 forward_v I I I I #
coedge $-1 $243 $244 $160 $245 forward $91 $-1 #
coedge $-1 $246 $93 $94 $164 reversed $57 $-1 #
coedge $-1 $93 $246 $158 $245 reversed $57 $-1 #
coedge $-1 $247 $248 $93 $162 forward $241 $-1 #
edge $-1 $249 1.8818075588629011 $250 4.8818075588629011 $161 $251 forward 7 unknown #
coedge $-1 $95 $94 $248 $252 reversed $37 $-1 #
edge $-1 $169 -50.099185155796988 $249 50.099185155796988 $159 $253 forward 7 unknown #
coedge $-1 $254 $255 $95 $166 forward $256 $-1 #
edge $-1 $170 -50.099185155796988 $257 50.099185155796988 $165 $258 forward 7 unknown #
coedge $-1 $259 $96 $255 $260 reversed $156 $-1 #
coedge $-1 $96 $259 $246 $261 forward $156 $-1 #
vertex $-1 $97 $262 #
vertex $-1 $166 $263 #
straight-curve $-1 50.099185155796988 8.1943459364881601 5.2636151177258022 0 1 0 I I #
face $-1 $-1 $264 $21 $-1 $265 reversed single #
loop $-1 $-1 $266 $98 #
plane-surface $-1 0 -12.376724008555758 6.7636151177258022 0 -1 0 0 0 -1 forward_v I I I I #
coedge $-1 $267 $101 $103 $181 forward $61 $-1 #
coedge $-1 $101 $267 $266 $268 forward $61 $-1 #
coedge $-1 $269 $104 $101 $178 forward $99 $-1 #
edge $-1 $184 0.98848797595201354 $270 7.9216533470531676 $177 $271 forward 7 unknown #
coedge $-1 $272 $273 $102 $180 forward $264 $-1 #
edge $-1 $274 -69.026686387614944 $183 -63.872374355881178 $179 $275 forward 7 unknown #
edge $-1 $184 92.179684371310145 $274 100.19837031159395 $103 $276 forward 7 unknown #
coedge $-1 $104 $269 $272 $277 forward $99 $-1 #
vertex $-1 $180 $278 #
vertex $-1 $105 $279 #
straight-curve $-1 18.874526385981632 -5.4435586374546041 8.2636151177258057 -1 0 0 I I #
coedge $-1 $186 $186 $-1 $280 reversed $108 $-1 #
edge $-1 $281 0 $281 6.2831853071796004 $109 $282 forward 7 unknown #
vertex $-1 $112 $283 #
ellipse-curve $-1 47.027850279540836 -10.39581961681257 5.6864591018589117 0.64278761758704617 0 0.76604443648966558 0.38302221824483279 0 -0.32139380879352308 1 I I #
coedge $-1 $190 $190 $-1 $284 reversed $115 $-1 #
edge $-1 $285 0 $285 6.2831853071796004 $116 $286 forward 7 unknown #
vertex $-1 $119 $287 #
ellipse-curve $-1 47.027850279540836 -7.4244630291977884 5.6864591018589117 0.64278761758704617 0 0.76604443648966558 0.38302221824483279 0 -0.32139380879352308 1 I I #
face $-1 $-1 $135 $18 $-1 $288 reversed single #
loop $-1 $-1 $210 $120 #
plane-surface $-1 0 20.400659737396882 0 0 -1 0 0 0 -1 forward_v I I I I #
coedge $-1 $289 $208 $211 $290 forward $121 $-1 #
coedge $-1 $214 $123 $124 $202 reversed $75 $-1 #
coedge $-1 $208 $289 $123 $200 reversed $121 $-1 #
edge $-1 $215 -8.2636151177258022 $291 8.2636151177258022 $199 $292 forward 7 unknown #
coedge $-1 $125 $124 $289 $293 forward $49 $-1 #
edge $-1 $206 -50.099185155796988 $291 50.099185155796988 $198 $294 forward 7 unknown #
coedge $-1 $211 $210 $125 $204 reversed $195 $-1 #
edge $-1 $295 -50.099185155796988 $205 50.099185155796988 $203 $296 forward 7 unknown #
vertex $-1 $127 $297 #
vertex $-1 $217 $298 #
straight-curve $-1 50.099185155796988 0 -8.2636151177258022 0 -1 0 I I #
coedge $-1 $197 $199 $128 $209 reversed $121 $-1 #
edge $-1 $212 -20.400659737396882 $215 20.400659737396882 $208 $299 forward 7 unknown #
coedge $-1 $203 $129 $134 $218 forward $195 $-1 #
coedge $-1 $129 $203 $197 $290 reversed $195 $-1 #
vertex $-1 $130 $300 #
straight-curve $-1 0 20.400659737396882 8.2636151177258022 -1 0 0 I I #
coedge $-1 $131 $198 $133 $217 reversed $75 $-1 #
vertex $-1 $209 $301 #
straight-curve $-1 0 -20.400659737396882 8.2636151177258022 1 0 0 I I #
edge $-1 $136 -8.2636151177258022 $206 8.2636151177258022 $133 $302 forward 7 unknown #
edge $-1 $137 -8.2636151177258022 $205 8.2636151177258022 $134 $303 forward 7 unknown #
point $-1 50.099185155796988 -20.400659737396882 8.2636151177258022 #
point $-1 50.099185155796988 20.400659737396882 8.2636151177258022 #
face $-1 $-1 $151 $19 $-1 $304 reversed single #
loop $-1 $-1 $305 $139 #
plane-surface $-1 0 0 8.2636151177258022 0 0 1 1 0 0 forward_v I I I I #
coedge $-1 $306 $142 $146 $231 forward $83 $-1 #
coedge $-1 $142 $306 $307 $308 reversed $83 $-1 #
edge $-1 $309 -4.8818075588629011 $229 -1.8818075588629011 $142 $310 forward 7 unknown #
coedge $-1 $144 $143 $305 $311 reversed $53 $-1 #
edge $-1 $153 1.8818075588629011 $312 4.8818075588629011 $149 $313 forward 7 unknown #
vertex $-1 $231 $314 #
straight-curve $-1 0 -12.376724008555758 5.2636151177258022 1 0 0 I I #
edge $-1 $229 4.182378072067598 $234 12.206313800908722 $224 $315 forward 7 unknown #
coedge $-1 $316 $147 $150 $237 reversed $140 $-1 #
coedge $-1 $147 $316 $306 $317 forward $140 $-1 #
vertex $-1 $148 $318 #
straight-curve $-1 0 -20.400659737396882 5.2636151177258022 1 0 0 I I #
coedge $-1 $150 $149 $319 $320 reversed $151 $-1 #
edge $-1 $321 -8.2636151177258022 $152 -5.2636151177258022 $150 $322 forward 7 unknown #
point $-1 50.099185155796988 -20.400659737396882 5.2636151177258022 #
point $-1 50.099185155796988 -12.376724008555758 5.2636151177258022 #
face $-1 $-1 $256 $20 $-1 $323 reversed single #
loop $-1 $-1 $161 $155 #
plane-surface $-1 -50.099185155796988 0 0 1 0 0 0 0 -1 forward_v I I I I #
coedge $-1 $324 $158 $259 $325 forward $91 $-1 #
coedge $-1 $158 $324 $247 $326 forward $91 $-1 #
edge $-1 $250 -50.099185155796988 $327 50.099185155796988 $158 $328 forward 7 unknown #
coedge $-1 $160 $159 $168 $261 reversed $57 $-1 #
coedge $-1 $329 $161 $244 $326 reversed $241 $-1 #
coedge $-1 $161 $329 $163 $252 forward $241 $-1 #
vertex $-1 $252 $330 #
vertex $-1 $162 $331 #
straight-curve $-1 -50.099185155796988 12.376724008555758 3.3818075588629011 0 0 1 I I #
edge $-1 $257 -12.206313800908722 $249 -4.182378072067598 $248 $332 forward 7 unknown #
straight-curve $-1 0 12.376724008555758 5.2636151177258022 -1 0 0 I I #
coedge $-1 $333 $165 $329 $334 reversed $256 $-1 #
coedge $-1 $165 $333 $167 $260 forward $256 $-1 #
loop $-1 $-1 $165 $240 #
vertex $-1 $166 $335 #
straight-curve $-1 0 20.400659737396882 5.2636151177258022 -1 0 0 I I #
coedge $-1 $168 $167 $243 $325 reversed $156 $-1 #
edge $-1 $336 -8.2636151177258022 $170 -5.2636151177258022 $167 $337 forward 7 unknown #
edge $-1 $327 -4.8818075588629011 $169 -1.8818075588629011 $168 $338 forward 7 unknown #
point $-1 50.099185155796988 12.376724008555758 5.2636151177258022 #
point $-1 50.099185155796988 20.400659737396882 5.2636151177258022 #
loop $-1 $-1 $179 $172 #
plane-surface $-1 50.099185155796988 0 0 -1 0 0 0 0 1 forward_v I I I I #
coedge $-1 $339 $340 $176 $268 reversed $173 $-1 #
coedge $-1 $176 $175 $273 $341 reversed $61 $-1 #
edge $-1 $342 -100.19837031159395 $270 -92.179684371310145 $266 $343 forward 7 unknown #
coedge $-1 $182 $177 $340 $344 forward $99 $-1 #
vertex $-1 $344 $345 #
straight-curve $-1 43.956515403284683 -4.4550706615025906 8.2636151177257986 0 -1 0 I I #
coedge $-1 $346 $179 $182 $277 reversed $264 $-1 #
coedge $-1 $179 $346 $267 $341 forward $264 $-1 #
vertex $-1 $180 $347 #
straight-curve $-1 50.099185155796988 -5.4435586374546041 72.135989473606983 0 0 1 I I #
straight-curve $-1 -26.657218966730838 -5.4435586374546041 67.515574824686126 0.76604443648966558 0 -0.64278761758704617 I I #
edge $-1 $348 -12.376724008555758 $183 -5.4435586374546041 $272 $349 forward 7 unknown #
point $-1 50.099185155796988 -5.4435586374546041 8.2636151177258022 #
point $-1 43.956515403284669 -5.4435586374546041 8.2636151177258057 #
edge $-1 $350 1 $350 0 $186 $-1 forward 7 unknown #
vertex $-1 $187 $351 #
ellipse-curve $-1 46.385062661953782 -10.39581961681257 4.9204146653692398 0.64278761758704617 0 0.76604443648966558 0.38302221824483279 0 -0.32139380879352308 1 I I #
point $-1 47.410872497785661 -10.39581961681257 5.3650652930653822 #
edge $-1 $352 1 $352 0 $190 $-1 forward 7 unknown #
vertex $-1 $191 $353 #
ellipse-curve $-1 46.385062661953782 -7.4244630291977884 4.9204146653692398 0.64278761758704617 0 0.76604443648966558 0.38302221824483279 0 -0.32139380879352308 1 I I #
point $-1 47.410872497785661 -7.4244630291977884 5.3650652930653822 #
plane-surface $-1 50.099185155796988 0 0 -1 0 0 0 0 1 forward_v I I I I #
coedge $-1 $199 $197 $201 $293 reversed $121 $-1 #
edge $-1 $212 -8.2636151177258022 $295 8.2636151177258022 $211 $354 forward 7 unknown #
vertex $-1 $293 $355 #
straight-curve $-1 -50.099185155796988 -20.400659737396882 0 0 0 -1 I I #
edge $-1 $291 -20.400659737396882 $295 20.400659737396882 $289 $356 forward 7 unknown #
straight-curve $-1 0 -20.400659737396882 -8.2636151177258022 -1 0 0 I I #
vertex $-1 $204 $357 #
straight-curve $-1 0 20.400659737396882 -8.2636151177258022 1 0 0 I I #
point $-1 50.099185155796988 20.400659737396882 -8.2636151177258022 #
point $-1 50.099185155796988 -20.400659737396882 -8.2636151177258022 #
straight-curve $-1 -50.099185155796988 0 8.2636151177258022 0 -1 0 I I #
point $-1 -50.099185155796988 20.400659737396882 8.2636151177258022 #
point $-1 -50.099185155796988 -20.400659737396882 8.2636151177258022 #
straight-curve $-1 50.099185155796988 -20.400659737396882 0 0 0 -1 I I #
straight-curve $-1 50.099185155796988 20.400659737396882 0 0 0 -1 I I #
plane-surface $-1 50.099185155796988 0 0 -1 0 0 0 0 1 forward_v I I I I #
coedge $-1 $307 $319 $227 $311 forward $222 $-1 #
coedge $-1 $225 $224 $233 $317 reversed $83 $-1 #
coedge $-1 $358 $305 $225 $308 forward $222 $-1 #
edge $-1 $309 12.376724008555758 $359 20.400659737396882 $225 $360 forward 7 unknown #
vertex $-1 $308 $361 #
straight-curve $-1 -50.099185155796988 -12.376724008555758 3.3818075588629011 0 0 -1 I I #
edge $-1 $312 -50.099185155796988 $309 50.099185155796988 $305 $362 forward 7 unknown #
vertex $-1 $228 $363 #
straight-curve $-1 50.099185155796988 -12.376724008555758 3.3818075588629011 0 0 1 I I #
point $-1 -50.099185155796988 -12.376724008555758 5.2636151177258022 #
straight-curve $-1 -50.099185155796988 -8.1943459364881601 5.2636151177258022 0 -1 0 I I #
coedge $-1 $233 $232 $358 $364 reversed $140 $-1 #
edge $-1 $359 -8.2636151177258022 $234 -5.2636151177258022 $306 $365 forward 7 unknown #
point $-1 -50.099185155796988 -20.400659737396882 5.2636151177258022 #
coedge $-1 $305 $358 $236 $320 forward $222 $-1 #
edge $-1 $321 -20.400659737396882 $312 -12.376724008555758 $236 $366 forward 7 unknown #
vertex $-1 $320 $367 #
straight-curve $-1 50.099185155796988 -20.400659737396882 0 0 0 -1 I I #
plane-surface $-1 0 20.400659737396882 0 0 -1 0 0 0 -1 forward_v I I I I #
coedge $-1 $244 $243 $333 $368 forward $91 $-1 #
edge $-1 $327 12.376724008555758 $336 20.400659737396882 $259 $369 forward 7 unknown #
edge $-1 $370 -20.400659737396882 $250 -12.376724008555758 $247 $371 forward 7 unknown #
vertex $-1 $325 $372 #
straight-curve $-1 0 12.376724008555758 8.2636151177258022 1 0 0 I I #
coedge $-1 $248 $247 $254 $334 forward $241 $-1 #
point $-1 -50.099185155796988 12.376724008555758 5.2636151177258022 #
point $-1 -50.099185155796988 12.376724008555758 8.2636151177258022 #
straight-curve $-1 -50.099185155796988 8.1943459364881601 5.2636151177258022 0 -1 0 I I #
coedge $-1 $255 $254 $324 $368 reversed $256 $-1 #
edge $-1 $370 -8.2636151177258022 $257 -5.2636151177258022 $254 $373 forward 7 unknown #
point $-1 -50.099185155796988 20.400659737396882 5.2636151177258022 #
vertex $-1 $325 $374 #
straight-curve $-1 50.099185155796988 20.400659737396882 0 0 0 -1 I I #
straight-curve $-1 50.099185155796988 12.376724008555758 3.3818075588629011 0 0 -1 I I #
coedge $-1 $340 $266 $346 $375 reversed $173 $-1 #
coedge $-1 $266 $339 $269 $344 reversed $173 $-1 #
edge $-1 $342 -7.9216533470531676 $274 -0.98848797595201354 $273 $376 forward 7 unknown #
vertex $-1 $375 $377 #
straight-curve $-1 -26.657218966730838 -12.376724008555758 67.515574824686126 -0.76604443648966558 0 0.64278761758704617 I I #
edge $-1 $270 43.956515403284669 $348 50.099185155796988 $269 $378 forward 7 unknown #
point $-1 43.956515403284669 -12.376724008555758 8.2636151177258057 #
coedge $-1 $273 $272 $339 $375 forward $264 $-1 #
point $-1 50.099185155796988 -5.4435586374546041 3.109303085992039 #
vertex $-1 $277 $379 #
straight-curve $-1 50.099185155796988 0 8.2636151177258022 0 1 0 I I #
vertex $-1 $280 $380 #
point $-1 46.768084880198622 -10.39581961681257 4.5990208565757165 #
vertex $-1 $284 $381 #
point $-1 46.768084880198622 -7.4244630291977884 4.5990208565757165 #
straight-curve $-1 -50.099185155796988 20.400659737396882 0 0 0 -1 I I #
point $-1 -50.099185155796988 -20.400659737396882 -8.2636151177258022 #
straight-curve $-1 -50.099185155796988 0 -8.2636151177258022 0 1 0 I I #
point $-1 -50.099185155796988 20.400659737396882 -8.2636151177258022 #
coedge $-1 $319 $307 $316 $364 forward $222 $-1 #
vertex $-1 $308 $382 #
straight-curve $-1 -50.099185155796988 0 8.2636151177258022 0 -1 0 I I #
point $-1 -50.099185155796988 -12.376724008555758 8.2636151177258022 #
straight-curve $-1 0 -12.376724008555758 8.2636151177258022 -1 0 0 I I #
point $-1 50.099185155796988 -12.376724008555758 8.2636151177258022 #
edge $-1 $359 -50.099185155796988 $321 50.099185155796988 $316 $383 forward 7 unknown #
straight-curve $-1 -50.099185155796988 -20.400659737396882 0 0 0 -1 I I #
straight-curve $-1 50.099185155796988 0 8.2636151177258022 0 1 0 I I #
point $-1 50.099185155796988 -20.400659737396882 8.2636151177258022 #
edge $-1 $336 -50.099185155796988 $370 50.099185155796988 $333 $384 forward 7 unknown #
straight-curve $-1 50.099185155796988 0 8.2636151177258022 0 1 0 I I #
vertex $-1 $368 $385 #
straight-curve $-1 -50.099185155796988 0 8.2636151177258022 0 -1 0 I I #
point $-1 50.099185155796988 12.376724008555758 8.2636151177258022 #
straight-curve $-1 -50.099185155796988 20.400659737396882 0 0 0 -1 I I #
point $-1 50.099185155796988 20.400659737396882 8.2636151177258022 #
edge $-1 $348 63.872374355881178 $342 69.026686387614944 $346 $386 forward 7 unknown #
straight-curve $-1 50.099185155796974 -4.4550706615025906 3.1093030859920425 0 1 0 I I #
point $-1 50.099185155796988 -12.376724008555758 3.109303085992039 #
straight-curve $-1 0 -12.376724008555758 8.2636151177258022 1 0 0 I I #
point $-1 50.099185155796988 -12.376724008555758 8.2636151177258022 #
point $-1 46.063668853160266 -10.39581961681257 4.5373924471244074 #
point $-1 46.063668853160266 -7.4244630291977884 4.5373924471244074 #
point $-1 -50.099185155796988 -20.400659737396882 8.2636151177258022 #
straight-curve $-1 0 -20.400659737396882 8.2636151177258022 1 0 0 I I #
straight-curve $-1 0 20.400659737396882 8.2636151177258022 -1 0 0 I I #
point $-1 -50.099185155796988 20.400659737396882 8.2636151177258022 #
straight-curve $-1 50.099185155796988 -12.376724008555758 72.135989473606983 0 0 -1 I I #
End-of-ACIS-data 