500 0 14 0           
7 Unknown 11 ACIS 5.0 NT 24 Fri Mar 26 20:37:37 1999 
-1 9.9999999999999995e-007 1e-010 
body $-1 $14 $-1 $15 #
body $-1 $16 $-1 $17 #
body $-1 $18 $-1 $19 #
body $-1 $20 $-1 $21 #
body $-1 $22 $-1 $23 #
body $-1 $24 $-1 $25 #
body $-1 $26 $-1 $27 #
body $-1 $28 $-1 $29 #
body $-1 $30 $-1 $31 #
body $-1 $32 $-1 $33 #
body $-1 $34 $-1 $35 #
body $-1 $36 $-1 $37 #
body $-1 $38 $-1 $39 #
body $-1 $40 $-1 $41 #
lump $-1 $-1 $42 $0 #
transform $-1 1 0 0 0 1 0 0 0 1 44.093142490920741 19.329151526042502 8.6413406106706141 1 rotate no_reflect no_shear #
lump $-1 $-1 $43 $1 #
transform $-1 1 0 0 0 1 0 0 0 1 44.093142490920741 19.329151526042502 8.6413406106706141 1 rotate no_reflect no_shear #
lump $-1 $-1 $44 $2 #
transform $-1 1 0 0 0 1 0 0 0 1 44.093142490920741 19.329151526042502 8.6413406106706141 1 rotate no_reflect no_shear #
lump $-1 $-1 $45 $3 #
transform $-1 1 0 0 0 1 0 0 0 1 44.093142490920741 19.329151526042502 8.6413406106706141 1 rotate no_reflect no_shear #
lump $-1 $-1 $46 $4 #
transform $-1 1 0 0 0 1 0 0 0 1 44.093142490920741 19.329151526042502 8.6413406106706141 1 rotate no_reflect no_shear #
lump $-1 $-1 $47 $5 #
transform $-1 1 0 0 0 1 0 0 0 1 44.093142490920741 19.329151526042502 8.6413406106706141 1 rotate no_reflect no_shear #
lump $-1 $-1 $48 $6 #
transform $-1 1 0 0 0 1 0 0 0 1 44.093142490920741 19.329151526042502 8.6413406106706141 1 rotate no_reflect no_shear #
lump $-1 $-1 $49 $7 #
transform $-1 1 0 0 0 1 0 0 0 1 44.093142490920741 19.329151526042502 8.6413406106706141 1 rotate no_reflect no_shear #
lump $-1 $-1 $50 $8 #
transform $-1 1 0 0 0 1 0 0 0 1 44.093142490920741 19.329151526042502 8.6413406106706141 1 rotate no_reflect no_shear #
lump $-1 $-1 $51 $9 #
transform $-1 1 0 0 0 1 0 0 0 1 44.093142490920741 19.329151526042502 8.6413406106706141 1 rotate no_reflect no_shear #
lump $-1 $-1 $52 $10 #
transform $-1 1 0 0 0 1 0 0 0 1 44.093142490920741 19.329151526042502 8.6413406106706141 1 rotate no_reflect no_shear #
lump $-1 $-1 $53 $11 #
transform $-1 1 0 0 0 1 0 0 0 1 44.093142490920741 19.329151526042502 8.6413406106706141 1 rotate no_reflect no_shear #
lump $-1 $-1 $54 $12 #
transform $-1 1 0 0 0 1 0 0 0 1 44.093142490920741 19.329151526042502 8.6413406106706141 1 rotate no_reflect no_shear #
lump $-1 $-1 $55 $13 #
transform $-1 1 0 0 0 1 0 0 0 1 44.093142490920741 19.329151526042502 8.6413406106706141 1 rotate no_reflect no_shear #
shell $-1 $-1 $-1 $56 $-1 $14 #
shell $-1 $-1 $-1 $57 $-1 $16 #
shell $-1 $-1 $-1 $58 $-1 $18 #
shell $-1 $-1 $-1 $59 $-1 $20 #
shell $-1 $-1 $-1 $60 $-1 $22 #
shell $-1 $-1 $-1 $61 $-1 $24 #
shell $-1 $-1 $-1 $62 $-1 $26 #
shell $-1 $-1 $-1 $63 $-1 $28 #
shell $-1 $-1 $-1 $64 $-1 $30 #
shell $-1 $-1 $-1 $65 $-1 $32 #
shell $-1 $-1 $-1 $66 $-1 $34 #
shell $-1 $-1 $-1 $67 $-1 $36 #
shell $-1 $-1 $-1 $68 $-1 $38 #
shell $-1 $-1 $-1 $69 $-1 $40 #
face $-1 $70 $71 $42 $-1 $72 forward single #
face $-1 $73 $74 $43 $-1 $75 reversed single #
face $-1 $76 $77 $44 $-1 $78 reversed single #
face $-1 $79 $80 $45 $-1 $81 forward single #
face $-1 $82 $83 $46 $-1 $84 forward single #
face $-1 $85 $86 $47 $-1 $87 forward single #
face $-1 $88 $89 $48 $-1 $90 reversed single #
face $-1 $91 $92 $49 $-1 $93 forward single #
face $-1 $94 $95 $50 $-1 $96 forward single #
face $-1 $97 $98 $51 $-1 $99 forward single #
face $-1 $100 $101 $52 $-1 $102 reversed single #
face $-1 $103 $104 $53 $-1 $105 forward single #
face $-1 $106 $107 $54 $-1 $108 forward single #
face $-1 $109 $110 $55 $-1 $111 forward single #
face $-1 $112 $113 $42 $-1 $114 reversed single #
loop $-1 $-1 $115 $56 #
plane-surface $-1 0 0 8.6413406106706141 0 0 1 1 0 0 forward_v I I I I #
face $-1 $116 $117 $43 $-1 $118 reversed single #
loop $-1 $-1 $119 $57 #
plane-surface $-1 -42.348602793247863 -9.9224825024628451 0 0 -1 0 0 0 -1 forward_v I I I I #
face $-1 $120 $121 $44 $-1 $122 reversed single #
loop $-1 $-1 $123 $58 #
plane-surface $-1 54.962706331616616 -0.17193782629439802 128.93306319109956 0 -1 0 -0.7660444514056185 0 -0.64278759981090561 forward_v I I I I #
face $-1 $124 $125 $45 $-1 $126 forward single #
loop $-1 $127 $128 $59 #
cone-surface $-1 42.053761895134066 -4.9443787494100242 6.3459757209132865 -0.7660444514056185 0 -0.64278759981090561 0.3213937999054528 0 -0.38302222570280925 1 I I 0 1 0.5 forward I I I I #
face $-1 $129 $130 $46 $-1 $131 forward single #
loop $-1 $132 $133 $60 #
cone-surface $-1 42.053761895134066 -3.154713403241665 6.3459757209132865 -0.7660444514056185 0 -0.64278759981090561 0.3213937999054528 0 -0.38302222570280925 1 I I 0 1 0.5 forward I I I I #
face $-1 $134 $135 $47 $-1 $136 forward single #
loop $-1 $137 $138 $61 #
cone-surface $-1 42.053761895134066 -1.3650480570733059 6.3459757209132865 -0.7660444514056185 0 -0.64278759981090561 0.3213937999054528 0 -0.38302222570280925 1 I I 0 1 0.5 forward I I I I #
face $-1 $139 $140 $48 $-1 $141 reversed single #
loop $-1 $-1 $142 $62 #
plane-surface $-1 54.962706331616616 9.5786068498740509 128.93306319109956 0 -1 0 -0.7660444514056185 0 -0.64278759981090561 forward_v I I I I #
face $-1 $143 $144 $49 $-1 $145 forward single #
loop $-1 $146 $147 $63 #
cone-surface $-1 42.053761895134066 4.8061659267584247 6.3459757209132865 -0.7660444514056185 0 -0.64278759981090561 0.3213937999054528 0 -0.38302222570280925 1 I I 0 1 0.5 forward I I I I #
face $-1 $148 $149 $50 $-1 $150 forward single #
loop $-1 $151 $152 $64 #
cone-surface $-1 42.053761895134066 6.5958312729267838 6.3459757209132865 -0.7660444514056185 0 -0.64278759981090561 0.3213937999054528 0 -0.38302222570280925 1 I I 0 1 0.5 forward I I I I #
face $-1 $153 $154 $51 $-1 $155 forward single #
loop $-1 $156 $157 $65 #
cone-surface $-1 42.053761895134066 8.385496619095143 6.3459757209132865 -0.7660444514056185 0 -0.64278759981090561 0.3213937999054528 0 -0.38302222570280925 1 I I 0 1 0.5 forward I I I I #
face $-1 $158 $159 $52 $-1 $160 reversed single #
loop $-1 $-1 $161 $66 #
plane-surface $-1 54.962706331616616 13.363600372147966 128.93306319109956 0 1 0 0.7660444514056185 0 0.64278759981090561 forward_v I I I I #
face $-1 $162 $163 $53 $-1 $164 forward single #
loop $-1 $165 $166 $67 #
cone-surface $-1 42.053761895134066 14.556710602926877 6.3459757209132865 -0.7660444514056185 0 -0.64278759981090561 0.3213937999054528 0 -0.38302222570280925 1 I I 0 1 0.5 forward I I I I #
face $-1 $167 $168 $54 $-1 $169 forward single #
loop $-1 $170 $171 $68 #
cone-surface $-1 42.053761895134066 16.346375949095233 6.3459757209132865 -0.7660444514056185 0 -0.64278759981090561 0.3213937999054528 0 -0.38302222570280925 1 I I 0 1 0.5 forward I I I I #
face $-1 $172 $173 $55 $-1 $174 forward single #
loop $-1 $175 $176 $69 #
cone-surface $-1 42.053761895134066 18.136041295263588 6.3459757209132865 -0.7660444514056185 0 -0.64278759981090561 0.3213937999054528 0 -0.38302222570280925 1 I I 0 1 0.5 forward I I I I #
face $-1 $177 $178 $42 $-1 $179 reversed single #
loop $-1 $-1 $180 $70 #
plane-surface $-1 0 0 -8.6413406106706141 0 0 1 1 0 0 forward_v I I I I #
coedge $-1 $181 $182 $183 $184 forward $71 $-1 #
face $-1 $185 $186 $43 $-1 $187 forward single #
loop $-1 $-1 $188 $73 #
plane-surface $-1 -40.604063095574986 -14.625817014252673 0 -1 0 0 0 0 1 forward_v I I I I #
coedge $-1 $189 $190 $191 $192 forward $74 $-1 #
face $-1 $193 $194 $44 $-1 $195 reversed single #
loop $-1 $-1 $196 $76 #
plane-surface $-1 -12.59190796879767 -3.154713403241665 72.248012731381166 0.7660444514056185 0 0.64278759981090561 0.64278759981090561 0 -0.7660444514056185 forward_v I I I I #
coedge $-1 $197 $198 $199 $200 reversed $77 $-1 #
face $-1 $-1 $201 $45 $-1 $202 forward single #
loop $-1 $203 $204 $79 #
cone-surface $-1 41.479228556579855 -4.9443787494100242 5.8638850210551077 -0.7660444514056185 0 -0.64278759981090561 0.1606968999527264 0 -0.19151111285140462 1 I I -0.70710678118654746 0.70710678118654746 0.25 forward I I I I #
loop $-1 $-1 $205 $59 #
coedge $-1 $128 $128 $206 $207 reversed $80 $-1 #
face $-1 $-1 $208 $46 $-1 $209 forward single #
loop $-1 $210 $211 $82 #
cone-surface $-1 41.479228556579855 -3.154713403241665 5.8638850210551077 -0.7660444514056185 0 -0.64278759981090561 0.1606968999527264 0 -0.19151111285140462 1 I I -0.70710678118654746 0.70710678118654746 0.25 forward I I I I #
loop $-1 $-1 $212 $60 #
coedge $-1 $133 $133 $213 $214 reversed $83 $-1 #
face $-1 $-1 $215 $47 $-1 $216 forward single #
loop $-1 $217 $218 $85 #
cone-surface $-1 41.479228556579855 -1.3650480570733059 5.8638850210551077 -0.7660444514056185 0 -0.64278759981090561 0.1606968999527264 0 -0.19151111285140462 1 I I -0.70710678118654746 0.70710678118654746 0.25 forward I I I I #
loop $-1 $-1 $219 $61 #
coedge $-1 $138 $138 $220 $221 reversed $86 $-1 #
face $-1 $222 $223 $48 $-1 $224 reversed single #
loop $-1 $-1 $225 $88 #
plane-surface $-1 -12.59190796879767 6.5958312729267838 72.248012731381166 0.7660444514056185 0 0.64278759981090561 0.64278759981090561 0 -0.7660444514056185 forward_v I I I I #
coedge $-1 $226 $227 $228 $229 reversed $89 $-1 #
face $-1 $-1 $230 $49 $-1 $231 forward single #
loop $-1 $232 $233 $91 #
cone-surface $-1 41.479228556579855 4.8061659267584247 5.8638850210551077 -0.7660444514056185 0 -0.64278759981090561 0.1606968999527264 0 -0.19151111285140462 1 I I -0.70710678118654746 0.70710678118654746 0.25 forward I I I I #
loop $-1 $-1 $234 $63 #
coedge $-1 $147 $147 $235 $236 reversed $92 $-1 #
face $-1 $-1 $237 $50 $-1 $238 forward single #
loop $-1 $239 $240 $94 #
cone-surface $-1 41.479228556579855 6.5958312729267838 5.8638850210551077 -0.7660444514056185 0 -0.64278759981090561 0.1606968999527264 0 -0.19151111285140462 1 I I -0.70710678118654746 0.70710678118654746 0.25 forward I I I I #
loop $-1 $-1 $241 $64 #
coedge $-1 $152 $152 $242 $243 reversed $95 $-1 #
face $-1 $-1 $244 $51 $-1 $245 forward single #
loop $-1 $246 $247 $97 #
cone-surface $-1 41.479228556579855 8.385496619095143 5.8638850210551077 -0.7660444514056185 0 -0.64278759981090561 0.1606968999527264 0 -0.19151111285140462 1 I I -0.70710678118654746 0.70710678118654746 0.25 forward I I I I #
loop $-1 $-1 $248 $65 #
coedge $-1 $157 $157 $249 $250 reversed $98 $-1 #
face $-1 $251 $252 $52 $-1 $253 reversed single #
loop $-1 $-1 $254 $100 #
plane-surface $-1 -12.59190796879767 16.346375949095233 72.248012731381166 0.7660444514056185 0 0.64278759981090561 0.64278759981090561 0 -0.7660444514056185 forward_v I I I I #
coedge $-1 $255 $256 $257 $258 reversed $101 $-1 #
face $-1 $-1 $259 $53 $-1 $260 forward single #
loop $-1 $261 $262 $103 #
cone-surface $-1 41.479228556579855 14.556710602926877 5.8638850210551077 -0.7660444514056185 0 -0.64278759981090561 0.1606968999527264 0 -0.19151111285140462 1 I I -0.70710678118654746 0.70710678118654746 0.25 forward I I I I #
loop $-1 $-1 $263 $67 #
coedge $-1 $166 $166 $264 $265 reversed $104 $-1 #
face $-1 $-1 $266 $54 $-1 $267 forward single #
loop $-1 $268 $269 $106 #
cone-surface $-1 41.479228556579855 16.346375949095233 5.8638850210551077 -0.7660444514056185 0 -0.64278759981090561 0.1606968999527264 0 -0.19151111285140462 1 I I -0.70710678118654746 0.70710678118654746 0.25 forward I I I I #
loop $-1 $-1 $270 $68 #
coedge $-1 $171 $171 $271 $272 reversed $107 $-1 #
face $-1 $-1 $273 $55 $-1 $274 forward single #
loop $-1 $275 $276 $109 #
cone-surface $-1 41.479228556579855 18.136041295263588 5.8638850210551077 -0.7660444514056185 0 -0.64278759981090561 0.1606968999527264 0 -0.19151111285140462 1 I I -0.70710678118654746 0.70710678118654746 0.25 forward I I I I #
loop $-1 $-1 $277 $69 #
coedge $-1 $176 $176 $278 $279 reversed $110 $-1 #
face $-1 $280 $281 $42 $-1 $282 reversed single #
loop $-1 $-1 $283 $112 #
plane-surface $-1 0 -19.329151526042502 0 0 1 0 0 0 1 forward_v I I I I #
coedge $-1 $284 $285 $286 $287 forward $113 $-1 #
coedge $-1 $288 $115 $289 $290 forward $71 $-1 #
coedge $-1 $115 $288 $291 $292 forward $71 $-1 #
coedge $-1 $293 $294 $115 $184 reversed $295 $-1 #
edge $-1 $296 -19.329151526042502 $297 19.329151526042502 $183 $298 forward 7 unknown #
face $-1 $299 $300 $43 $-1 $301 reversed single #
loop $-1 $-1 $302 $116 #
plane-surface $-1 0 0 8.6413406106706141 0 0 1 1 0 0 forward_v I I I I #
coedge $-1 $303 $304 $305 $306 reversed $117 $-1 #
coedge $-1 $307 $119 $308 $309 reversed $74 $-1 #
coedge $-1 $119 $307 $310 $311 reversed $74 $-1 #
coedge $-1 $304 $303 $119 $192 reversed $117 $-1 #
edge $-1 $312 -8.6413406106706141 $313 8.6413406106706141 $191 $314 forward 7 unknown #
face $-1 $315 $316 $44 $-1 $317 reversed single #
loop $-1 $-1 $318 $120 #
plane-surface $-1 54.962706331616616 -6.1374889801889321 128.93306319109956 0 1 0 0.7660444514056185 0 0.64278759981090561 forward_v I I I I #
coedge $-1 $319 $320 $321 $322 reversed $121 $-1 #
coedge $-1 $198 $123 $323 $324 reversed $77 $-1 #
coedge $-1 $123 $197 $319 $325 reversed $77 $-1 #
coedge $-1 $321 $326 $123 $200 forward $327 $-1 #
edge $-1 $328 -16.611789325112433 $329 -13.299072584944689 $199 $330 forward 7 unknown #
loop $-1 $-1 $206 $124 #
plane-surface $-1 -12.59190796879767 -3.154713403241665 72.248012731381166 0.7660444514056185 0 0.64278759981090561 0.64278759981090561 0 -0.7660444514056185 forward_v I I I I #
loop $-1 $-1 $331 $79 #
coedge $-1 $204 $204 $205 $332 reversed $125 $-1 #
coedge $-1 $205 $205 $204 $332 forward $127 $-1 #
coedge $-1 $206 $206 $128 $207 forward $201 $-1 #
edge $-1 $333 0 $333 6.2831853071796004 $206 $334 forward 7 unknown #
loop $-1 $-1 $213 $129 #
plane-surface $-1 -12.59190796879767 -3.154713403241665 72.248012731381166 0.7660444514056185 0 0.64278759981090561 0.64278759981090561 0 -0.7660444514056185 forward_v I I I I #
loop $-1 $-1 $335 $82 #
coedge $-1 $211 $211 $212 $336 reversed $130 $-1 #
coedge $-1 $212 $212 $211 $336 forward $132 $-1 #
coedge $-1 $213 $213 $133 $214 forward $208 $-1 #
edge $-1 $337 0 $337 6.2831853071796004 $213 $338 forward 7 unknown #
loop $-1 $-1 $220 $134 #
plane-surface $-1 -12.59190796879767 -3.154713403241665 72.248012731381166 0.7660444514056185 0 0.64278759981090561 0.64278759981090561 0 -0.7660444514056185 forward_v I I I I #
loop $-1 $-1 $339 $85 #
coedge $-1 $218 $218 $219 $340 reversed $135 $-1 #
coedge $-1 $219 $219 $218 $340 forward $137 $-1 #
coedge $-1 $220 $220 $138 $221 forward $215 $-1 #
edge $-1 $341 0 $341 6.2831853071796004 $220 $342 forward 7 unknown #
face $-1 $343 $344 $48 $-1 $345 reversed single #
loop $-1 $-1 $346 $139 #
plane-surface $-1 54.962706331616616 3.6130556959795168 128.93306319109956 0 1 0 0.7660444514056185 0 0.64278759981090561 forward_v I I I I #
coedge $-1 $347 $348 $349 $350 reversed $140 $-1 #
coedge $-1 $227 $142 $351 $352 reversed $89 $-1 #
coedge $-1 $142 $226 $347 $353 reversed $89 $-1 #
coedge $-1 $349 $354 $142 $229 forward $355 $-1 #
edge $-1 $356 -16.611789325112433 $357 -13.299072584944689 $228 $358 forward 7 unknown #
loop $-1 $-1 $235 $143 #
plane-surface $-1 -12.59190796879767 6.5958312729267838 72.248012731381166 0.7660444514056185 0 0.64278759981090561 0.64278759981090561 0 -0.7660444514056185 forward_v I I I I #
loop $-1 $-1 $359 $91 #
coedge $-1 $233 $233 $234 $360 reversed $144 $-1 #
coedge $-1 $234 $234 $233 $360 forward $146 $-1 #
coedge $-1 $235 $235 $147 $236 forward $230 $-1 #
edge $-1 $361 0 $361 6.2831853071796004 $235 $362 forward 7 unknown #
loop $-1 $-1 $242 $148 #
plane-surface $-1 -12.59190796879767 6.5958312729267838 72.248012731381166 0.7660444514056185 0 0.64278759981090561 0.64278759981090561 0 -0.7660444514056185 forward_v I I I I #
loop $-1 $-1 $363 $94 #
coedge $-1 $240 $240 $241 $364 reversed $149 $-1 #
coedge $-1 $241 $241 $240 $364 forward $151 $-1 #
coedge $-1 $242 $242 $152 $243 forward $237 $-1 #
edge $-1 $365 0 $365 6.2831853071796004 $242 $366 forward 7 unknown #
loop $-1 $-1 $249 $153 #
plane-surface $-1 -12.59190796879767 6.5958312729267838 72.248012731381166 0.7660444514056185 0 0.64278759981090561 0.64278759981090561 0 -0.7660444514056185 forward_v I I I I #
loop $-1 $-1 $367 $97 #
coedge $-1 $247 $247 $248 $368 reversed $154 $-1 #
coedge $-1 $248 $248 $247 $368 forward $156 $-1 #
coedge $-1 $249 $249 $157 $250 forward $244 $-1 #
edge $-1 $369 0 $369 6.2831853071796004 $249 $370 forward 7 unknown #
face $-1 $371 $372 $52 $-1 $373 reversed single #
loop $-1 $-1 $257 $158 #
plane-surface $-1 44.093142490920741 0 0 -1 0 0 0 0 1 forward_v I I I I #
coedge $-1 $374 $375 $376 $377 reversed $159 $-1 #
coedge $-1 $256 $161 $378 $379 reversed $101 $-1 #
coedge $-1 $161 $255 $374 $380 reversed $101 $-1 #
coedge $-1 $376 $381 $161 $258 forward $252 $-1 #
edge $-1 $382 55.825190984879171 $383 59.773133164582916 $257 $384 forward 7 unknown #
loop $-1 $-1 $264 $162 #
plane-surface $-1 -12.59190796879767 16.346375949095233 72.248012731381166 0.7660444514056185 0 0.64278759981090561 0.64278759981090561 0 -0.7660444514056185 forward_v I I I I #
loop $-1 $-1 $385 $103 #
coedge $-1 $262 $262 $263 $386 reversed $163 $-1 #
coedge $-1 $263 $263 $262 $386 forward $165 $-1 #
coedge $-1 $264 $264 $166 $265 forward $259 $-1 #
edge $-1 $387 0 $387 6.2831853071796004 $264 $388 forward 7 unknown #
loop $-1 $-1 $271 $167 #
plane-surface $-1 -12.59190796879767 16.346375949095233 72.248012731381166 0.7660444514056185 0 0.64278759981090561 0.64278759981090561 0 -0.7660444514056185 forward_v I I I I #
loop $-1 $-1 $389 $106 #
coedge $-1 $269 $269 $270 $390 reversed $168 $-1 #
coedge $-1 $270 $270 $269 $390 forward $170 $-1 #
coedge $-1 $271 $271 $171 $272 forward $266 $-1 #
edge $-1 $391 0 $391 6.2831853071796004 $271 $392 forward 7 unknown #
loop $-1 $-1 $278 $172 #
plane-surface $-1 -12.59190796879767 16.346375949095233 72.248012731381166 0.7660444514056185 0 0.64278759981090561 0.64278759981090561 0 -0.7660444514056185 forward_v I I I I #
loop $-1 $-1 $393 $109 #
coedge $-1 $276 $276 $277 $394 reversed $173 $-1 #
coedge $-1 $277 $277 $276 $394 forward $175 $-1 #
coedge $-1 $278 $278 $176 $279 forward $273 $-1 #
edge $-1 $395 0 $395 6.2831853071796004 $278 $396 forward 7 unknown #
face $-1 $397 $398 $42 $-1 $399 reversed single #
loop $-1 $-1 $400 $177 #
plane-surface $-1 -44.093142490920741 0 0 1 0 0 0 0 -1 forward_v I I I I #
coedge $-1 $401 $291 $402 $403 forward $178 $-1 #
coedge $-1 $404 $180 $401 $405 forward $113 $-1 #
coedge $-1 $180 $404 $406 $407 forward $113 $-1 #
coedge $-1 $294 $293 $180 $287 reversed $295 $-1 #
edge $-1 $408 -19.329151526042502 $409 19.329151526042502 $286 $410 forward 7 unknown #
coedge $-1 $182 $181 $411 $412 forward $71 $-1 #
coedge $-1 $413 $414 $181 $290 reversed $398 $-1 #
edge $-1 $297 -44.093142490920741 $415 44.093142490920741 $289 $416 forward 7 unknown #
coedge $-1 $283 $417 $182 $292 reversed $178 $-1 #
edge $-1 $418 -44.093142490920741 $296 44.093142490920741 $291 $419 forward 7 unknown #
coedge $-1 $286 $183 $417 $420 forward $295 $-1 #
coedge $-1 $183 $286 $413 $421 reversed $295 $-1 #
loop $-1 $-1 $293 $397 #
vertex $-1 $184 $422 #
vertex $-1 $184 $423 #
straight-curve $-1 44.093142490920741 0 8.6413406106706141 0 1 0 I I #
face $-1 $424 $425 $43 $-1 $426 reversed single #
loop $-1 $-1 $427 $185 #
plane-surface $-1 -44.093142490920741 0 0 1 0 0 0 0 -1 forward_v I I I I #
coedge $-1 $310 $428 $304 $429 forward $186 $-1 #
coedge $-1 $191 $188 $430 $431 reversed $117 $-1 #
coedge $-1 $188 $191 $302 $429 reversed $117 $-1 #
coedge $-1 $432 $433 $188 $306 forward $434 $-1 #
edge $-1 $435 -8.6413406106706141 $436 8.6413406106706141 $305 $437 forward 7 unknown #
coedge $-1 $190 $189 $427 $438 reversed $74 $-1 #
coedge $-1 $430 $439 $189 $309 forward $425 $-1 #
edge $-1 $440 -22.918841094296809 $313 -19.429761698951054 $308 $441 forward 7 unknown #
coedge $-1 $442 $302 $190 $311 forward $186 $-1 #
edge $-1 $312 19.429761698951054 $443 22.918841094296809 $310 $444 forward 7 unknown #
vertex $-1 $311 $445 #
vertex $-1 $309 $446 #
straight-curve $-1 -40.604063095574986 -9.9224825024628451 0 0 0 -1 I I #
face $-1 $-1 $327 $44 $-1 $447 forward single #
loop $-1 $-1 $448 $193 #
plane-surface $-1 44.093142490920741 0 0 -1 0 0 0 0 1 forward_v I I I I #
coedge $-1 $449 $450 $451 $452 reversed $194 $-1 #
coedge $-1 $453 $196 $198 $325 forward $121 $-1 #
coedge $-1 $196 $453 $449 $454 forward $121 $-1 #
coedge $-1 $451 $199 $196 $322 forward $327 $-1 #
edge $-1 $329 -1.4054188753264345 $455 4.5601322785680996 $321 $456 forward 7 unknown #
coedge $-1 $457 $458 $197 $324 forward $316 $-1 #
edge $-1 $459 -59.773133164582916 $328 -55.825190984879171 $323 $460 forward 7 unknown #
edge $-1 $329 83.032612538343429 $459 88.18628498184151 $198 $461 forward 7 unknown #
coedge $-1 $199 $451 $457 $462 forward $327 $-1 #
loop $-1 $-1 $451 $315 #
vertex $-1 $324 $463 #
vertex $-1 $200 $464 #
straight-curve $-1 27.481353165808308 -0.17193782629439802 8.6413406106706105 -1 0 0 I I #
coedge $-1 $331 $331 $-1 $465 reversed $203 $-1 #
edge $-1 $466 0 $466 6.2831853071796004 $204 $467 forward 7 unknown #
vertex $-1 $207 $468 #
ellipse-curve $-1 42.436784120836862 -4.9443787494100242 6.6673695208187302 0.7660444514056185 0 0.64278759981090561 0.3213937999054528 0 -0.38302222570280925 1 I I #
coedge $-1 $335 $335 $-1 $469 reversed $210 $-1 #
edge $-1 $470 0 $470 6.2831853071796004 $211 $471 forward 7 unknown #
vertex $-1 $214 $472 #
ellipse-curve $-1 42.436784120836862 -3.154713403241665 6.6673695208187302 0.7660444514056185 0 0.64278759981090561 0.3213937999054528 0 -0.38302222570280925 1 I I #
coedge $-1 $339 $339 $-1 $473 reversed $217 $-1 #
edge $-1 $474 0 $474 6.2831853071796004 $218 $475 forward 7 unknown #
vertex $-1 $221 $476 #
ellipse-curve $-1 42.436784120836862 -1.3650480570733059 6.6673695208187302 0.7660444514056185 0 0.64278759981090561 0.3213937999054528 0 -0.38302222570280925 1 I I #
face $-1 $-1 $355 $48 $-1 $477 forward single #
loop $-1 $-1 $478 $222 #
plane-surface $-1 44.093142490920741 0 0 -1 0 0 0 0 1 forward_v I I I I #
coedge $-1 $479 $480 $481 $482 reversed $223 $-1 #
coedge $-1 $483 $225 $227 $353 forward $140 $-1 #
coedge $-1 $225 $483 $479 $484 forward $140 $-1 #
coedge $-1 $481 $228 $225 $350 forward $355 $-1 #
edge $-1 $357 -6.2806912134106589 $485 -0.31514005951612489 $349 $486 forward 7 unknown #
coedge $-1 $487 $488 $226 $352 forward $344 $-1 #
edge $-1 $489 -59.773133164582916 $356 -55.825190984879171 $351 $490 forward 7 unknown #
edge $-1 $357 83.032612538343429 $489 88.18628498184151 $227 $491 forward 7 unknown #
coedge $-1 $228 $481 $487 $492 forward $355 $-1 #
loop $-1 $-1 $481 $343 #
vertex $-1 $352 $493 #
vertex $-1 $229 $494 #
straight-curve $-1 27.481353165808308 9.5786068498740509 8.6413406106706105 -1 0 0 I I #
coedge $-1 $359 $359 $-1 $495 reversed $232 $-1 #
edge $-1 $496 0 $496 6.2831853071796004 $233 $497 forward 7 unknown #
vertex $-1 $236 $498 #
ellipse-curve $-1 42.436784120836862 4.8061659267584247 6.6673695208187302 0.7660444514056185 0 0.64278759981090561 0.3213937999054528 0 -0.38302222570280925 1 I I #
coedge $-1 $363 $363 $-1 $499 reversed $239 $-1 #
edge $-1 $500 0 $500 6.2831853071796004 $240 $501 forward 7 unknown #
vertex $-1 $243 $502 #
ellipse-curve $-1 42.436784120836862 6.5958312729267838 6.6673695208187302 0.7660444514056185 0 0.64278759981090561 0.3213937999054528 0 -0.38302222570280925 1 I I #
coedge $-1 $367 $367 $-1 $503 reversed $246 $-1 #
edge $-1 $504 0 $504 6.2831853071796004 $247 $505 forward 7 unknown #
vertex $-1 $250 $506 #
ellipse-curve $-1 42.436784120836862 8.385496619095143 6.6673695208187302 0.7660444514056185 0 0.64278759981090561 0.3213937999054528 0 -0.38302222570280925 1 I I #
face $-1 $-1 $507 $52 $-1 $508 forward single #
loop $-1 $-1 $509 $251 #
plane-surface $-1 0 19.329151526042502 0 0 -1 0 0 0 -1 forward_v I I I I #
coedge $-1 $510 $254 $256 $380 forward $159 $-1 #
coedge $-1 $254 $510 $509 $511 reversed $159 $-1 #
coedge $-1 $512 $257 $254 $377 forward $252 $-1 #
edge $-1 $383 5.1904123976003493 $513 11.155963551494885 $376 $514 forward 7 unknown #
coedge $-1 $515 $516 $255 $379 forward $507 $-1 #
edge $-1 $517 13.299072584944689 $382 16.611789325112433 $378 $518 forward 7 unknown #
edge $-1 $383 -88.18628498184151 $517 -83.032612538343429 $256 $519 forward 7 unknown #
coedge $-1 $257 $512 $515 $520 reversed $252 $-1 #
vertex $-1 $520 $521 #
vertex $-1 $258 $522 #
straight-curve $-1 44.093142490920741 13.363600372147966 64.466531595549782 0 0 -1 I I #
coedge $-1 $385 $385 $-1 $523 reversed $261 $-1 #
edge $-1 $524 0 $524 6.2831853071796004 $262 $525 forward 7 unknown #
vertex $-1 $265 $526 #
ellipse-curve $-1 42.436784120836862 14.556710602926877 6.6673695208187302 0.7660444514056185 0 0.64278759981090561 0.3213937999054528 0 -0.38302222570280925 1 I I #
coedge $-1 $389 $389 $-1 $527 reversed $268 $-1 #
edge $-1 $528 0 $528 6.2831853071796004 $269 $529 forward 7 unknown #
vertex $-1 $272 $530 #
ellipse-curve $-1 42.436784120836862 16.346375949095233 6.6673695208187302 0.7660444514056185 0 0.64278759981090561 0.3213937999054528 0 -0.38302222570280925 1 I I #
coedge $-1 $393 $393 $-1 $531 reversed $275 $-1 #
edge $-1 $532 0 $532 6.2831853071796004 $276 $533 forward 7 unknown #
vertex $-1 $279 $534 #
ellipse-curve $-1 42.436784120836862 18.136041295263588 6.6673695208187302 0.7660444514056185 0 0.64278759981090561 0.3213937999054528 0 -0.38302222570280925 1 I I #
face $-1 $-1 $295 $42 $-1 $535 reversed single #
loop $-1 $-1 $413 $280 #
plane-surface $-1 0 19.329151526042502 0 0 -1 0 0 0 -1 forward_v I I I I #
coedge $-1 $536 $411 $414 $537 forward $281 $-1 #
coedge $-1 $417 $283 $284 $405 reversed $178 $-1 #
coedge $-1 $411 $536 $283 $403 reversed $281 $-1 #
edge $-1 $418 -8.6413406106706141 $538 8.6413406106706141 $402 $539 forward 7 unknown #
coedge $-1 $285 $284 $536 $540 forward $113 $-1 #
edge $-1 $409 -44.093142490920741 $538 44.093142490920741 $401 $541 forward 7 unknown #
coedge $-1 $414 $413 $285 $407 reversed $398 $-1 #
edge $-1 $542 -44.093142490920741 $408 44.093142490920741 $406 $543 forward 7 unknown #
vertex $-1 $287 $544 #
vertex $-1 $420 $545 #
straight-curve $-1 44.093142490920741 0 -8.6413406106706141 0 -1 0 I I #
coedge $-1 $400 $402 $288 $412 reversed $281 $-1 #
edge $-1 $415 -19.329151526042502 $418 19.329151526042502 $411 $546 forward 7 unknown #
coedge $-1 $406 $289 $294 $421 forward $398 $-1 #
coedge $-1 $289 $406 $400 $537 reversed $398 $-1 #
vertex $-1 $290 $547 #
straight-curve $-1 0 19.329151526042502 8.6413406106706141 -1 0 0 I I #
coedge $-1 $291 $401 $293 $420 reversed $178 $-1 #
vertex $-1 $412 $548 #
straight-curve $-1 0 -19.329151526042502 8.6413406106706141 1 0 0 I I #
edge $-1 $296 -8.6413406106706141 $409 8.6413406106706141 $293 $549 forward 7 unknown #
edge $-1 $297 -8.6413406106706141 $408 8.6413406106706141 $294 $550 forward 7 unknown #
point $-1 44.093142490920741 -19.329151526042502 8.6413406106706141 #
point $-1 44.093142490920741 19.329151526042502 8.6413406106706141 #
face $-1 $-1 $434 $43 $-1 $551 reversed single #
loop $-1 $-1 $430 $299 #
plane-surface $-1 0 0 -8.6413406106706141 0 0 1 1 0 0 forward_v I I I I #
coedge $-1 $552 $553 $307 $438 forward $300 $-1 #
coedge $-1 $302 $442 $432 $554 forward $186 $-1 #
edge $-1 $436 -12.016243018916164 $312 -2.6095739953365085 $302 $555 forward 7 unknown #
coedge $-1 $556 $308 $303 $431 forward $425 $-1 #
edge $-1 $313 2.6095739953365085 $435 12.016243018916164 $430 $557 forward 7 unknown #
coedge $-1 $558 $305 $428 $554 reversed $434 $-1 #
coedge $-1 $305 $558 $556 $559 reversed $434 $-1 #
loop $-1 $-1 $305 $424 #
vertex $-1 $559 $560 #
vertex $-1 $306 $561 #
straight-curve $-1 -40.604063095574986 -19.329151526042502 0 0 0 1 I I #
edge $-1 $443 -8.6413406106706141 $440 8.6413406106706141 $427 $562 forward 7 unknown #
coedge $-1 $308 $556 $552 $563 forward $425 $-1 #
vertex $-1 $309 $564 #
straight-curve $-1 -21.174301396623932 -9.9224825024628451 -8.6413406106706141 1 0 0 I I #
coedge $-1 $428 $310 $553 $565 forward $186 $-1 #
vertex $-1 $565 $566 #
straight-curve $-1 -21.174301396623932 -9.9224825024628451 8.6413406106706141 -1 0 0 I I #
point $-1 -40.604063095574986 -9.9224825024628451 8.6413406106706141 #
point $-1 -40.604063095574986 -9.9224825024628451 -8.6413406106706141 #
plane-surface $-1 0 0 8.6413406106706141 0 0 1 1 0 0 forward_v I I I I #
coedge $-1 $458 $457 $450 $567 forward $316 $-1 #
coedge $-1 $450 $318 $320 $454 reversed $194 $-1 #
coedge $-1 $318 $449 $448 $567 reversed $194 $-1 #
coedge $-1 $326 $321 $318 $452 forward $327 $-1 #
edge $-1 $455 13.299072584944689 $568 16.611789325112433 $451 $569 forward 7 unknown #
coedge $-1 $320 $319 $458 $570 reversed $121 $-1 #
edge $-1 $571 -88.18628498184151 $455 -83.032612538343429 $449 $572 forward 7 unknown #
vertex $-1 $322 $573 #
straight-curve $-1 40.780425750752997 -1.5773567016208325 8.6413406106706105 0 -1 0 I I #
coedge $-1 $448 $323 $326 $462 reversed $316 $-1 #
coedge $-1 $323 $448 $453 $570 forward $316 $-1 #
vertex $-1 $324 $574 #
straight-curve $-1 44.093142490920741 -0.17193782629439802 64.466531595549782 0 0 1 I I #
straight-curve $-1 -12.59190796879767 -0.17193782629439802 72.248012731381166 0.64278759981090561 0 -0.7660444514056185 I I #
edge $-1 $568 -6.1374889801889321 $328 -0.17193782629439802 $457 $575 forward 7 unknown #
point $-1 44.093142490920741 -0.17193782629439802 8.6413406106706141 #
point $-1 40.780425750752997 -0.17193782629439802 8.6413406106706034 #
edge $-1 $576 1 $576 0 $331 $-1 forward 7 unknown #
vertex $-1 $332 $577 #
ellipse-curve $-1 41.670739669431256 -4.9443787494100242 6.024581921007834 0.7660444514056185 0 0.64278759981090561 0.3213937999054528 0 -0.38302222570280925 1 I I #
point $-1 42.758177920742334 -4.9443787494100242 6.2843472951159303 #
edge $-1 $578 1 $578 0 $335 $-1 forward 7 unknown #
vertex $-1 $336 $579 #
ellipse-curve $-1 41.670739669431256 -3.154713403241665 6.024581921007834 0.7660444514056185 0 0.64278759981090561 0.3213937999054528 0 -0.38302222570280925 1 I I #
point $-1 42.758177920742334 -3.154713403241665 6.2843472951159303 #
edge $-1 $580 1 $580 0 $339 $-1 forward 7 unknown #
vertex $-1 $340 $581 #
ellipse-curve $-1 41.670739669431256 -1.3650480570733059 6.024581921007834 0.7660444514056185 0 0.64278759981090561 0.3213937999054528 0 -0.38302222570280925 1 I I #
point $-1 42.758177920742334 -1.3650480570733059 6.2843472951159303 #
plane-surface $-1 0 0 8.6413406106706141 0 0 1 1 0 0 forward_v I I I I #
coedge $-1 $488 $487 $480 $582 forward $344 $-1 #
coedge $-1 $480 $346 $348 $484 reversed $223 $-1 #
coedge $-1 $346 $479 $478 $582 reversed $223 $-1 #
coedge $-1 $354 $349 $346 $482 forward $355 $-1 #
edge $-1 $485 13.299072584944689 $583 16.611789325112433 $481 $584 forward 7 unknown #
coedge $-1 $348 $347 $488 $585 reversed $140 $-1 #
edge $-1 $586 -88.18628498184151 $485 -83.032612538343429 $479 $587 forward 7 unknown #
vertex $-1 $350 $588 #
straight-curve $-1 40.780425750752997 3.2979156364633919 8.6413406106706105 0 -1 0 I I #
coedge $-1 $478 $351 $354 $492 reversed $344 $-1 #
coedge $-1 $351 $478 $483 $585 forward $344 $-1 #
vertex $-1 $352 $589 #
straight-curve $-1 44.093142490920741 9.5786068498740509 64.466531595549782 0 0 1 I I #
straight-curve $-1 -12.59190796879767 9.5786068498740509 72.248012731381166 0.64278759981090561 0 -0.7660444514056185 I I #
edge $-1 $583 3.6130556959795168 $356 9.5786068498740509 $487 $590 forward 7 unknown #
point $-1 44.093142490920741 9.5786068498740509 8.6413406106706141 #
point $-1 40.780425750752997 9.5786068498740509 8.6413406106706034 #
edge $-1 $591 1 $591 0 $359 $-1 forward 7 unknown #
vertex $-1 $360 $592 #
ellipse-curve $-1 41.670739669431256 4.8061659267584247 6.024581921007834 0.7660444514056185 0 0.64278759981090561 0.3213937999054528 0 -0.38302222570280925 1 I I #
point $-1 42.758177920742334 4.8061659267584247 6.2843472951159303 #
edge $-1 $593 1 $593 0 $363 $-1 forward 7 unknown #
vertex $-1 $364 $594 #
ellipse-curve $-1 41.670739669431256 6.5958312729267838 6.024581921007834 0.7660444514056185 0 0.64278759981090561 0.3213937999054528 0 -0.38302222570280925 1 I I #
point $-1 42.758177920742334 6.5958312729267838 6.2843472951159303 #
edge $-1 $595 1 $595 0 $367 $-1 forward 7 unknown #
vertex $-1 $368 $596 #
ellipse-curve $-1 41.670739669431256 8.385496619095143 6.024581921007834 0.7660444514056185 0 0.64278759981090561 0.3213937999054528 0 -0.38302222570280925 1 I I #
point $-1 42.758177920742334 8.385496619095143 6.2843472951159303 #
loop $-1 $-1 $378 $371 #
plane-surface $-1 0 0 8.6413406106706141 0 0 1 1 0 0 forward_v I I I I #
coedge $-1 $597 $598 $375 $511 forward $372 $-1 #
coedge $-1 $375 $374 $516 $599 reversed $159 $-1 #
edge $-1 $513 -56.466729192711362 $600 -51.313056749213274 $509 $601 forward 7 unknown #
coedge $-1 $381 $376 $598 $602 reversed $252 $-1 #
vertex $-1 $511 $603 #
straight-curve $-1 44.093142490920741 8.1731879745476164 4.6933984309668517 0 1 0 I I #
coedge $-1 $604 $378 $381 $520 forward $507 $-1 #
coedge $-1 $378 $604 $510 $599 forward $507 $-1 #
vertex $-1 $379 $605 #
straight-curve $-1 27.481353165808308 13.363600372147966 8.6413406106706105 1 0 0 I I #
straight-curve $-1 -12.59190796879767 13.363600372147966 72.248012731381166 -0.64278759981090561 0 0.7660444514056185 I I #
edge $-1 $382 13.363600372147966 $606 19.329151526042502 $381 $607 forward 7 unknown #
point $-1 44.093142490920741 13.363600372147966 8.6413406106706141 #
point $-1 44.093142490920734 13.363600372147966 4.6933984309668659 #
edge $-1 $608 1 $608 0 $385 $-1 forward 7 unknown #
vertex $-1 $386 $609 #
ellipse-curve $-1 41.670739669431256 14.556710602926877 6.024581921007834 0.7660444514056185 0 0.64278759981090561 0.3213937999054528 0 -0.38302222570280925 1 I I #
point $-1 42.758177920742334 14.556710602926877 6.2843472951159303 #
edge $-1 $610 1 $610 0 $389 $-1 forward 7 unknown #
vertex $-1 $390 $611 #
ellipse-curve $-1 41.670739669431256 16.346375949095233 6.024581921007834 0.7660444514056185 0 0.64278759981090561 0.3213937999054528 0 -0.38302222570280925 1 I I #
point $-1 42.758177920742334 16.346375949095233 6.2843472951159303 #
edge $-1 $612 1 $612 0 $393 $-1 forward 7 unknown #
vertex $-1 $394 $613 #
ellipse-curve $-1 41.670739669431256 18.136041295263588 6.024581921007834 0.7660444514056185 0 0.64278759981090561 0.3213937999054528 0 -0.38302222570280925 1 I I #
point $-1 42.758177920742334 18.136041295263588 6.2843472951159303 #
plane-surface $-1 44.093142490920741 0 0 -1 0 0 0 0 1 forward_v I I I I #
coedge $-1 $402 $400 $404 $540 reversed $281 $-1 #
edge $-1 $415 -8.6413406106706141 $542 8.6413406106706141 $414 $614 forward 7 unknown #
vertex $-1 $540 $615 #
straight-curve $-1 -44.093142490920741 -19.329151526042502 0 0 0 -1 I I #
edge $-1 $538 -19.329151526042502 $542 19.329151526042502 $536 $616 forward 7 unknown #
straight-curve $-1 0 -19.329151526042502 -8.6413406106706141 -1 0 0 I I #
vertex $-1 $407 $617 #
straight-curve $-1 0 19.329151526042502 -8.6413406106706141 1 0 0 I I #
point $-1 44.093142490920741 19.329151526042502 -8.6413406106706141 #
point $-1 44.093142490920741 -19.329151526042502 -8.6413406106706141 #
straight-curve $-1 -44.093142490920741 0 8.6413406106706141 0 -1 0 I I #
point $-1 -44.093142490920741 19.329151526042502 8.6413406106706141 #
point $-1 -44.093142490920741 -19.329151526042502 8.6413406106706141 #
straight-curve $-1 44.093142490920741 -19.329151526042502 0 0 0 -1 I I #
straight-curve $-1 44.093142490920741 19.329151526042502 0 0 0 -1 I I #
plane-surface $-1 0 -19.329151526042502 0 0 1 0 0 0 1 forward_v I I I I #
coedge $-1 $618 $427 $439 $563 reversed $300 $-1 #
coedge $-1 $427 $618 $442 $565 reversed $300 $-1 #
edge $-1 $619 -44.093142490920741 $436 -40.604063095574986 $432 $620 forward 7 unknown #
straight-curve $-1 -40.604063095574986 -7.3129085071263367 8.6413406106706141 0 1 0 I I #
coedge $-1 $439 $430 $433 $559 forward $425 $-1 #
straight-curve $-1 -40.604063095574986 -7.3129085071263367 -8.6413406106706141 0 -1 0 I I #
coedge $-1 $433 $432 $618 $621 forward $434 $-1 #
edge $-1 $435 40.604063095574986 $622 44.093142490920741 $433 $623 forward 7 unknown #
point $-1 -40.604063095574986 -19.329151526042502 -8.6413406106706141 #
point $-1 -40.604063095574986 -19.329151526042502 8.6413406106706141 #
straight-curve $-1 -44.093142490920741 -9.9224825024628451 0 0 0 -1 I I #
edge $-1 $622 -19.329151526042502 $440 -9.9224825024628451 $552 $624 forward 7 unknown #
point $-1 -44.093142490920741 -9.9224825024628451 -8.6413406106706141 #
edge $-1 $443 9.9224825024628451 $619 19.329151526042502 $553 $625 forward 7 unknown #
point $-1 -44.093142490920741 -9.9224825024628451 8.6413406106706141 #
edge $-1 $568 55.825190984879171 $571 59.773133164582916 $448 $626 forward 7 unknown #
vertex $-1 $462 $627 #
straight-curve $-1 27.481353165808308 -6.1374889801889321 8.6413406106706105 1 0 0 I I #
edge $-1 $571 -4.5601322785680996 $459 1.4054188753264345 $458 $628 forward 7 unknown #
vertex $-1 $570 $629 #
straight-curve $-1 -12.59190796879767 -6.1374889801889321 72.248012731381166 -0.64278759981090561 0 0.7660444514056185 I I #
point $-1 40.780425750752997 -6.1374889801889321 8.6413406106706034 #
point $-1 44.093142490920734 -0.17193782629439802 4.6933984309668659 #
straight-curve $-1 44.093142490920741 0 8.6413406106706141 0 1 0 I I #
vertex $-1 $465 $630 #
point $-1 41.992133469336714 -4.9443787494100242 5.6415596953050251 #
vertex $-1 $469 $631 #
point $-1 41.992133469336714 -3.154713403241665 5.6415596953050251 #
vertex $-1 $473 $632 #
point $-1 41.992133469336714 -1.3650480570733059 5.6415596953050251 #
edge $-1 $583 55.825190984879171 $586 59.773133164582916 $478 $633 forward 7 unknown #
vertex $-1 $492 $634 #
straight-curve $-1 27.481353165808308 3.6130556959795168 8.6413406106706105 1 0 0 I I #
edge $-1 $586 0.31514005951612489 $489 6.2806912134106589 $488 $635 forward 7 unknown #
vertex $-1 $585 $636 #
straight-curve $-1 -12.59190796879767 3.6130556959795168 72.248012731381166 -0.64278759981090561 0 0.7660444514056185 I I #
point $-1 40.780425750752997 3.6130556959795168 8.6413406106706034 #
point $-1 44.093142490920734 9.5786068498740509 4.6933984309668659 #
straight-curve $-1 44.093142490920741 0 8.6413406106706141 0 1 0 I I #
vertex $-1 $495 $637 #
point $-1 41.992133469336714 4.8061659267584247 5.6415596953050251 #
vertex $-1 $499 $638 #
point $-1 41.992133469336714 6.5958312729267838 5.6415596953050251 #
vertex $-1 $503 $639 #
point $-1 41.992133469336714 8.385496619095143 5.6415596953050251 #
coedge $-1 $598 $509 $604 $640 reversed $372 $-1 #
coedge $-1 $509 $597 $512 $602 forward $372 $-1 #
edge $-1 $600 -11.155963551494885 $517 -5.1904123976003493 $516 $641 forward 7 unknown #
vertex $-1 $511 $642 #
straight-curve $-1 7.7970291639654139 19.329151526042502 47.949423018067051 -0.64278759981090572 0 0.76604445140561861 I I #
edge $-1 $606 -8.6413406106706141 $513 -4.6933984309668517 $512 $643 forward 7 unknown #
point $-1 44.093142490920741 19.329151526042502 4.6933984309668517 #
coedge $-1 $516 $515 $597 $640 forward $507 $-1 #
point $-1 40.780425750752997 13.363600372147966 8.6413406106706034 #
vertex $-1 $520 $644 #
straight-curve $-1 44.093142490920741 0 8.6413406106706141 0 1 0 I I #
vertex $-1 $523 $645 #
point $-1 41.992133469336714 14.556710602926877 5.6415596953050251 #
vertex $-1 $527 $646 #
point $-1 41.992133469336714 16.346375949095233 5.6415596953050251 #
vertex $-1 $531 $647 #
point $-1 41.992133469336714 18.136041295263588 5.6415596953050251 #
straight-curve $-1 -44.093142490920741 19.329151526042502 0 0 0 -1 I I #
point $-1 -44.093142490920741 -19.329151526042502 -8.6413406106706141 #
straight-curve $-1 -44.093142490920741 0 -8.6413406106706141 0 1 0 I I #
point $-1 -44.093142490920741 19.329151526042502 -8.6413406106706141 #
coedge $-1 $553 $552 $558 $621 reversed $300 $-1 #
vertex $-1 $565 $648 #
straight-curve $-1 0 -19.329151526042502 8.6413406106706141 1 0 0 I I #
edge $-1 $619 -8.6413406106706141 $622 8.6413406106706141 $618 $649 forward 7 unknown #
vertex $-1 $563 $650 #
straight-curve $-1 0 -19.329151526042502 -8.6413406106706141 -1 0 0 I I #
straight-curve $-1 -44.093142490920741 0 -8.6413406106706141 0 1 0 I I #
straight-curve $-1 -44.093142490920741 0 8.6413406106706141 0 -1 0 I I #
straight-curve $-1 44.093142490920741 -6.1374889801889321 64.466531595549782 0 0 -1 I I #
point $-1 44.093142490920741 -6.1374889801889321 8.6413406106706141 #
straight-curve $-1 44.093142490920741 -1.5773567016208325 4.6933984309668517 0 1 0 I I #
point $-1 44.093142490920734 -6.1374889801889321 4.6933984309668659 #
point $-1 41.287717443728454 -4.9443787494100242 5.7031881211023814 #
point $-1 41.287717443728454 -3.154713403241665 5.7031881211023814 #
point $-1 41.287717443728454 -1.3650480570733059 5.7031881211023814 #
straight-curve $-1 44.093142490920741 3.6130556959795168 64.466531595549782 0 0 -1 I I #
point $-1 44.093142490920741 3.6130556959795168 8.6413406106706141 #
straight-curve $-1 44.093142490920741 3.2979156364633919 4.6933984309668517 0 1 0 I I #
point $-1 44.093142490920734 3.6130556959795168 4.6933984309668659 #
point $-1 41.287717443728454 4.8061659267584247 5.7031881211023814 #
point $-1 41.287717443728454 6.5958312729267838 5.7031881211023814 #
point $-1 41.287717443728454 8.385496619095143 5.7031881211023814 #
edge $-1 $606 -44.093142490920741 $600 -40.780425750752997 $597 $651 forward 7 unknown #
straight-curve $-1 40.780425750752997 8.1731879745476164 8.6413406106706105 0 -1 0 I I #
point $-1 40.780425750752997 19.329151526042502 8.6413406106706034 #
straight-curve $-1 44.093142490920741 19.329151526042502 0 0 0 -1 I I #
point $-1 44.093142490920741 19.329151526042502 8.6413406106706141 #
point $-1 41.287717443728454 14.556710602926877 5.7031881211023814 #
point $-1 41.287717443728454 16.346375949095233 5.7031881211023814 #
point $-1 41.287717443728454 18.136041295263588 5.7031881211023814 #
point $-1 -44.093142490920741 -19.329151526042502 8.6413406106706141 #
straight-curve $-1 -44.093142490920741 -19.329151526042502 0 0 0 -1 I I #
point $-1 -44.093142490920741 -19.329151526042502 -8.6413406106706141 #
straight-curve $-1 0 19.329151526042502 8.6413406106706141 -1 0 0 I I #
End-of-ACIS-data 