500 0 10 0           
7 Unknown 11 ACIS 5.0 NT 24 Fri Mar 26 00:29:38 1999 
-1 9.9999999999999995e-007 1e-010 
body $-1 $10 $-1 $11 #
body $-1 $12 $-1 $13 #
body $-1 $14 $-1 $15 #
body $-1 $16 $-1 $17 #
body $-1 $18 $-1 $19 #
body $-1 $20 $-1 $21 #
body $-1 $22 $-1 $23 #
body $-1 $24 $-1 $25 #
body $-1 $26 $-1 $27 #
body $-1 $28 $-1 $29 #
lump $-1 $-1 $30 $0 #
transform $-1 1 0 0 0 1 0 0 0 1 68.297982726523628 42.919321937265941 17.712488624563314 1 rotate no_reflect no_shear #
lump $-1 $-1 $31 $1 #
transform $-1 1 0 0 0 1 0 0 0 1 68.297982726523628 42.919321937265941 17.712488624563314 1 rotate no_reflect no_shear #
lump $-1 $-1 $32 $2 #
transform $-1 1 0 0 0 1 0 0 0 1 68.297982726523628 42.919321937265941 17.712488624563314 1 rotate no_reflect no_shear #
lump $-1 $-1 $33 $3 #
transform $-1 1 0 0 0 1 0 0 0 1 68.297982726523628 42.919321937265941 17.712488624563314 1 rotate no_reflect no_shear #
lump $-1 $-1 $34 $4 #
transform $-1 1 0 0 0 1 0 0 0 1 68.297982726523628 42.919321937265941 17.712488624563314 1 rotate no_reflect no_shear #
lump $-1 $-1 $35 $5 #
transform $-1 1 0 0 0 1 0 0 0 1 68.297982726523628 42.919321937265941 17.712488624563314 1 rotate no_reflect no_shear #
lump $-1 $-1 $36 $6 #
transform $-1 1 0 0 0 1 0 0 0 1 68.297982726523628 42.919321937265941 17.712488624563314 1 rotate no_reflect no_shear #
lump $-1 $-1 $37 $7 #
transform $-1 1 0 0 0 1 0 0 0 1 68.297982726523628 42.919321937265941 17.712488624563314 1 rotate no_reflect no_shear #
lump $-1 $-1 $38 $8 #
transform $-1 1 0 0 0 1 0 0 0 1 68.297982726523628 42.919321937265941 17.712488624563314 1 rotate no_reflect no_shear #
lump $-1 $-1 $39 $9 #
transform $-1 1 0 0 0 1 0 0 0 1 68.297982726523628 42.919321937265941 17.712488624563314 1 rotate no_reflect no_shear #
shell $-1 $-1 $-1 $40 $-1 $10 #
shell $-1 $-1 $-1 $41 $-1 $12 #
shell $-1 $-1 $-1 $42 $-1 $14 #
shell $-1 $-1 $-1 $43 $-1 $16 #
shell $-1 $-1 $-1 $44 $-1 $18 #
shell $-1 $-1 $-1 $45 $-1 $20 #
shell $-1 $-1 $-1 $46 $-1 $22 #
shell $-1 $-1 $-1 $47 $-1 $24 #
shell $-1 $-1 $-1 $48 $-1 $26 #
shell $-1 $-1 $-1 $49 $-1 $28 #
face $-1 $50 $51 $30 $-1 $52 forward single #
face $-1 $53 $54 $31 $-1 $55 reversed single #
face $-1 $56 $57 $32 $-1 $58 reversed single #
face $-1 $59 $60 $33 $-1 $61 reversed single #
face $-1 $62 $63 $34 $-1 $64 forward single #
face $-1 $65 $66 $35 $-1 $67 forward single #
face $-1 $68 $69 $36 $-1 $70 reversed single #
face $-1 $71 $72 $37 $-1 $73 forward single #
face $-1 $74 $75 $38 $-1 $76 forward single #
face $-1 $77 $78 $39 $-1 $79 forward single #
face $-1 $80 $81 $30 $-1 $82 reversed single #
loop $-1 $-1 $83 $40 #
plane-surface $-1 0 0 17.712488624563314 0 0 1 1 0 0 forward_v I I I I #
face $-1 $84 $85 $31 $-1 $86 reversed single #
loop $-1 $-1 $87 $41 #
plane-surface $-1 -61.014904927640259 0 12.82313471333631 0 0 1 1 0 0 forward_v I I I I #
face $-1 $88 $89 $32 $-1 $90 reversed single #
loop $-1 $-1 $91 $42 #
plane-surface $-1 61.014904927640259 0 12.82313471333631 0 0 1 1 0 0 forward_v I I I I #
face $-1 $92 $93 $33 $-1 $94 reversed single #
loop $-1 $-1 $95 $43 #
plane-surface $-1 32.335189452392086 -127.01619660623825 121.08763340273558 1 0 0 0 0.61566148304635926 -0.78801074757464917 forward_v I I I I #
face $-1 $96 $97 $34 $-1 $98 forward single #
loop $-1 $99 $100 $44 #
cone-surface $-1 38.448514502782032 -38.806580332473075 13.809151780467369 0 0.61566148304635926 -0.78801074757464917 1.5 0 0 1 I I 0 1 1.5 forward I I I I #
face $-1 $101 $102 $35 $-1 $103 forward single #
loop $-1 $104 $105 $45 #
cone-surface $-1 47.618502078366944 -38.806580332473075 13.809151780467369 0 0.61566148304635926 -0.78801074757464917 1.5 0 0 1 I I 0 1 1.5 forward I I I I #
face $-1 $106 $107 $36 $-1 $108 reversed single #
loop $-1 $-1 $109 $46 #
plane-surface $-1 21.711154246184918 108.16215118947244 155.58860226417517 1 0 0 0 -0.82903758062907751 -0.55919289150049634 forward_v I I I I #
face $-1 $110 $111 $37 $-1 $112 forward single #
loop $-1 $113 $114 $47 #
cone-surface $-1 28.115288822699313 37.702023141212713 11.557886974715696 0 -0.82903758062907751 -0.55919289150049634 2.5 0 0 1 I I 0 1 2.5 forward I I I I #
face $-1 $115 $116 $38 $-1 $117 forward single #
loop $-1 $118 $119 $48 #
cone-surface $-1 37.721490687470904 37.702023141212713 11.557886974715696 0 -0.82903758062907751 -0.55919289150049634 2.5 0 0 1 I I 0 1 2.5 forward I I I I #
face $-1 $120 $121 $39 $-1 $122 forward single #
loop $-1 $123 $124 $49 #
cone-surface $-1 47.327692552242496 37.702023141212713 11.557886974715696 0 -0.82903758062907751 -0.55919289150049634 2.5 0 0 1 I I 0 1 2.5 forward I I I I #
face $-1 $125 $126 $30 $-1 $127 reversed single #
loop $-1 $-1 $128 $50 #
plane-surface $-1 0 0 -17.712488624563314 0 0 1 1 0 0 forward_v I I I I #
coedge $-1 $129 $130 $131 $132 forward $51 $-1 #
face $-1 $133 $134 $31 $-1 $135 reversed single #
loop $-1 $-1 $136 $53 #
plane-surface $-1 -53.73182712875689 0 15.267811668949811 -1 0 0 0 0 1 forward_v I I I I #
coedge $-1 $137 $138 $139 $140 forward $54 $-1 #
face $-1 $141 $142 $32 $-1 $143 forward single #
loop $-1 $-1 $144 $56 #
plane-surface $-1 53.73182712875689 0 15.267811668949811 1 0 0 0 0 -1 forward_v I I I I #
coedge $-1 $145 $146 $147 $148 reversed $57 $-1 #
face $-1 $149 $150 $33 $-1 $151 forward single #
loop $-1 $-1 $152 $59 #
plane-surface $-1 43.033508290574488 -42.91932193726592 13.44854455039885 0 -0.61566148304635926 0.78801074757464917 1 0 0 forward_v I I I I #
coedge $-1 $153 $154 $155 $156 reversed $60 $-1 #
face $-1 $-1 $157 $34 $-1 $158 forward single #
loop $-1 $159 $160 $62 #
cone-surface $-1 38.448514502782032 -36.960892329219497 11.446778912772647 0 0.61566148304635926 -0.78801074757464917 0.75 0 0 1 I I -0.70710678118654757 0.70710678118654757 0.75 forward I I I I #
loop $-1 $-1 $161 $44 #
coedge $-1 $100 $100 $162 $163 reversed $63 $-1 #
face $-1 $-1 $164 $35 $-1 $165 forward single #
loop $-1 $166 $167 $65 #
cone-surface $-1 47.618502078366944 -36.960892329219497 11.446778912772647 0 0.61566148304635926 -0.78801074757464917 0.75 0 0 1 I I -0.70710678118654757 0.70710678118654757 0.75 forward I I I I #
loop $-1 $-1 $168 $45 #
coedge $-1 $105 $105 $169 $170 reversed $66 $-1 #
face $-1 $171 $172 $36 $-1 $173 forward single #
loop $-1 $-1 $174 $68 #
plane-surface $-1 37.721490687470904 -5.0810375334149143 79.205109375183767 0 0.82903758062907751 0.55919289150049634 1 0 0 forward_v I I I I #
coedge $-1 $175 $176 $177 $178 reversed $69 $-1 #
face $-1 $-1 $179 $37 $-1 $180 forward single #
loop $-1 $181 $182 $71 #
cone-surface $-1 28.115288822699313 34.709959540998504 9.5397146562936754 0 -0.82903758062907751 -0.55919289150049634 1.25 0 0 1 I I -0.70710678118654746 0.70710678118654746 1.25 forward I I I I #
loop $-1 $-1 $183 $47 #
coedge $-1 $114 $114 $184 $185 reversed $72 $-1 #
face $-1 $-1 $186 $38 $-1 $187 forward single #
loop $-1 $188 $189 $74 #
cone-surface $-1 37.721490687470904 34.709959540998504 9.5397146562936754 0 -0.82903758062907751 -0.55919289150049634 1.25 0 0 1 I I -0.70710678118654746 0.70710678118654746 1.25 forward I I I I #
loop $-1 $-1 $190 $48 #
coedge $-1 $119 $119 $191 $192 reversed $75 $-1 #
face $-1 $-1 $193 $39 $-1 $194 forward single #
loop $-1 $195 $196 $77 #
cone-surface $-1 47.327692552242496 34.709959540998504 9.5397146562936754 0 -0.82903758062907751 -0.55919289150049634 1.25 0 0 1 I I -0.70710678118654746 0.70710678118654746 1.25 forward I I I I #
loop $-1 $-1 $197 $49 #
coedge $-1 $124 $124 $198 $199 reversed $78 $-1 #
face $-1 $200 $201 $30 $-1 $202 reversed single #
loop $-1 $-1 $203 $80 #
plane-surface $-1 0 -42.919321937265941 0 0 1 0 0 0 1 forward_v I I I I #
coedge $-1 $204 $205 $206 $207 forward $81 $-1 #
coedge $-1 $208 $83 $209 $210 forward $51 $-1 #
coedge $-1 $83 $208 $211 $212 forward $51 $-1 #
coedge $-1 $213 $214 $83 $132 reversed $215 $-1 #
edge $-1 $216 -42.919321937265941 $217 42.919321937265941 $131 $218 forward 7 unknown #
face $-1 $219 $220 $31 $-1 $221 reversed single #
loop $-1 $-1 $222 $84 #
plane-surface $-1 0 42.919321937265941 0 0 -1 0 0 0 -1 forward_v I I I I #
coedge $-1 $139 $223 $224 $225 reversed $85 $-1 #
coedge $-1 $226 $87 $227 $228 reversed $54 $-1 #
coedge $-1 $87 $226 $229 $230 reversed $54 $-1 #
coedge $-1 $231 $136 $87 $140 reversed $85 $-1 #
edge $-1 $232 -42.919321937265941 $233 42.919321937265941 $139 $234 forward 7 unknown #
face $-1 $235 $236 $32 $-1 $237 reversed single #
loop $-1 $-1 $238 $88 #
plane-surface $-1 0 0 17.712488624563314 0 0 1 1 0 0 forward_v I I I I #
coedge $-1 $239 $240 $241 $242 reversed $89 $-1 #
coedge $-1 $243 $91 $244 $245 reversed $57 $-1 #
coedge $-1 $91 $243 $246 $247 reversed $57 $-1 #
coedge $-1 $248 $249 $91 $148 forward $250 $-1 #
edge $-1 $251 -42.919321937265941 $252 42.919321937265941 $147 $253 forward 7 unknown #
face $-1 $254 $255 $33 $-1 $256 reversed single #
loop $-1 $-1 $257 $92 #
plane-surface $-1 0 0 17.712488624563314 0 0 1 1 0 0 forward_v I I I I #
coedge $-1 $258 $259 $260 $261 reversed $93 $-1 #
coedge $-1 $154 $95 $262 $263 reversed $60 $-1 #
coedge $-1 $95 $153 $258 $264 reversed $60 $-1 #
coedge $-1 $260 $265 $95 $156 forward $255 $-1 #
edge $-1 $266 42.831328076804475 $267 47.095272150968952 $155 $268 forward 7 unknown #
loop $-1 $-1 $162 $96 #
plane-surface $-1 43.033508290574488 -42.91932193726592 13.44854455039885 0 -0.61566148304635926 0.78801074757464917 1 0 0 forward_v I I I I #
loop $-1 $-1 $269 $62 #
coedge $-1 $160 $160 $161 $270 reversed $97 $-1 #
coedge $-1 $161 $161 $160 $270 forward $99 $-1 #
coedge $-1 $162 $162 $100 $163 forward $157 $-1 #
edge $-1 $271 -3.4928184820539083e-016 $271 6.2831853071796004 $162 $272 forward 7 unknown #
loop $-1 $-1 $169 $101 #
plane-surface $-1 43.033508290574488 -42.91932193726592 13.44854455039885 0 -0.61566148304635926 0.78801074757464917 1 0 0 forward_v I I I I #
loop $-1 $-1 $273 $65 #
coedge $-1 $167 $167 $168 $274 reversed $102 $-1 #
coedge $-1 $168 $168 $167 $274 forward $104 $-1 #
coedge $-1 $169 $169 $105 $170 forward $164 $-1 #
edge $-1 $275 -3.4928184820539083e-016 $275 6.2831853071796004 $169 $276 forward 7 unknown #
face $-1 $277 $278 $36 $-1 $279 forward single #
loop $-1 $-1 $177 $106 #
plane-surface $-1 0 0 17.712488624563314 0 0 1 1 0 0 forward_v I I I I #
coedge $-1 $280 $281 $282 $283 reversed $107 $-1 #
coedge $-1 $176 $109 $284 $285 reversed $69 $-1 #
coedge $-1 $109 $175 $280 $286 reversed $69 $-1 #
coedge $-1 $282 $287 $109 $178 forward $172 $-1 #
edge $-1 $288 11.161753657470278 $289 17.684818000721037 $177 $290 forward 7 unknown #
loop $-1 $-1 $184 $110 #
plane-surface $-1 37.721490687470904 -5.0810375334149143 79.205109375183767 0 0.82903758062907751 0.55919289150049634 1 0 0 forward_v I I I I #
loop $-1 $-1 $291 $71 #
coedge $-1 $182 $182 $183 $292 reversed $111 $-1 #
coedge $-1 $183 $183 $182 $292 forward $113 $-1 #
coedge $-1 $184 $184 $114 $185 forward $179 $-1 #
edge $-1 $293 2.3331042261431138e-016 $293 6.2831853071796004 $184 $294 forward 7 unknown #
loop $-1 $-1 $191 $115 #
plane-surface $-1 37.721490687470904 -5.0810375334149143 79.205109375183767 0 0.82903758062907751 0.55919289150049634 1 0 0 forward_v I I I I #
loop $-1 $-1 $295 $74 #
coedge $-1 $189 $189 $190 $296 reversed $116 $-1 #
coedge $-1 $190 $190 $189 $296 forward $118 $-1 #
coedge $-1 $191 $191 $119 $192 forward $186 $-1 #
edge $-1 $297 2.3331042261431138e-016 $297 6.2831853071796004 $191 $298 forward 7 unknown #
loop $-1 $-1 $198 $120 #
plane-surface $-1 37.721490687470904 -5.0810375334149143 79.205109375183767 0 0.82903758062907751 0.55919289150049634 1 0 0 forward_v I I I I #
loop $-1 $-1 $299 $77 #
coedge $-1 $196 $196 $197 $300 reversed $121 $-1 #
coedge $-1 $197 $197 $196 $300 forward $123 $-1 #
coedge $-1 $198 $198 $124 $199 forward $193 $-1 #
edge $-1 $301 2.3331042261431138e-016 $301 6.2831853071796004 $198 $302 forward 7 unknown #
face $-1 $303 $304 $30 $-1 $305 reversed single #
loop $-1 $-1 $306 $125 #
plane-surface $-1 -68.297982726523628 0 0 1 0 0 0 0 -1 forward_v I I I I #
coedge $-1 $307 $211 $308 $309 forward $126 $-1 #
coedge $-1 $310 $128 $307 $311 forward $81 $-1 #
coedge $-1 $128 $310 $312 $313 forward $81 $-1 #
coedge $-1 $214 $213 $128 $207 reversed $215 $-1 #
edge $-1 $314 -42.919321937265941 $315 42.919321937265941 $206 $316 forward 7 unknown #
coedge $-1 $130 $129 $317 $318 forward $51 $-1 #
coedge $-1 $319 $320 $129 $210 reversed $304 $-1 #
edge $-1 $217 -68.297982726523628 $321 68.297982726523628 $209 $322 forward 7 unknown #
coedge $-1 $203 $323 $130 $212 reversed $126 $-1 #
edge $-1 $324 -68.297982726523628 $216 68.297982726523628 $211 $325 forward 7 unknown #
coedge $-1 $206 $131 $323 $326 forward $215 $-1 #
coedge $-1 $131 $206 $319 $327 reversed $215 $-1 #
loop $-1 $-1 $213 $303 #
vertex $-1 $132 $328 #
vertex $-1 $132 $329 #
straight-curve $-1 68.297982726523628 0 17.712488624563314 0 1 0 I I #
face $-1 $330 $331 $31 $-1 $332 forward single #
loop $-1 $-1 $333 $133 #
plane-surface $-1 -68.297982726523628 0 0 1 0 0 0 0 -1 forward_v I I I I #
coedge $-1 $229 $334 $231 $335 forward $134 $-1 #
coedge $-1 $136 $231 $336 $337 reversed $85 $-1 #
coedge $-1 $338 $227 $136 $225 forward $339 $-1 #
edge $-1 $233 5.1892288788614049 $340 10.078582790088408 $224 $341 forward 7 unknown #
coedge $-1 $138 $137 $333 $342 reversed $54 $-1 #
coedge $-1 $224 $343 $137 $228 forward $339 $-1 #
edge $-1 $344 -37.790530262703498 $233 -23.224374664936761 $227 $345 forward 7 unknown #
coedge $-1 $346 $222 $138 $230 forward $134 $-1 #
edge $-1 $232 23.224374664936761 $347 37.790530262703498 $229 $348 forward 7 unknown #
coedge $-1 $223 $139 $222 $335 reversed $85 $-1 #
vertex $-1 $230 $349 #
vertex $-1 $228 $350 #
straight-curve $-1 -53.73182712875689 0 12.82313471333631 0 -1 0 I I #
face $-1 $351 $352 $32 $-1 $353 reversed single #
loop $-1 $-1 $354 $141 #
plane-surface $-1 0 -42.919321937265941 0 0 1 0 0 0 1 forward_v I I I I #
coedge $-1 $355 $356 $240 $357 forward $142 $-1 #
coedge $-1 $358 $144 $243 $359 reversed $89 $-1 #
coedge $-1 $144 $358 $238 $357 reversed $89 $-1 #
coedge $-1 $360 $246 $144 $242 forward $352 $-1 #
edge $-1 $361 5.1892288788614049 $362 10.078582790088408 $241 $363 forward 7 unknown #
coedge $-1 $146 $145 $239 $359 forward $57 $-1 #
coedge $-1 $364 $354 $145 $245 forward $236 $-1 #
edge $-1 $365 23.224374664936761 $251 37.790530262703498 $244 $366 forward 7 unknown #
coedge $-1 $241 $367 $146 $247 forward $352 $-1 #
edge $-1 $252 -37.790530262703498 $361 -23.224374664936761 $246 $368 forward 7 unknown #
coedge $-1 $369 $147 $367 $370 reversed $250 $-1 #
coedge $-1 $147 $369 $364 $371 forward $250 $-1 #
loop $-1 $-1 $147 $351 #
vertex $-1 $245 $372 #
vertex $-1 $148 $373 #
straight-curve $-1 68.297982726523628 0 12.82313471333631 0 1 0 I I #
face $-1 $-1 $374 $33 $-1 $375 forward single #
loop $-1 $-1 $155 $149 #
plane-surface $-1 0 -42.919321937265941 0 0 1 0 0 0 1 forward_v I I I I #
coedge $-1 $262 $376 $377 $378 forward $150 $-1 #
coedge $-1 $377 $152 $154 $264 forward $93 $-1 #
coedge $-1 $152 $377 $379 $380 reversed $93 $-1 #
coedge $-1 $381 $155 $152 $261 forward $255 $-1 #
edge $-1 $267 10.818435307104842 $382 32.215072983469646 $260 $383 forward 7 unknown #
coedge $-1 $384 $257 $153 $263 forward $150 $-1 #
edge $-1 $385 -26.046375793501376 $266 -20.588776365853185 $262 $386 forward 7 unknown #
edge $-1 $267 -2.6640169747183902e-014 $385 6.9257931372708406 $154 $387 forward 7 unknown #
coedge $-1 $155 $381 $384 $388 reversed $255 $-1 #
vertex $-1 $388 $389 #
vertex $-1 $156 $390 #
straight-curve $-1 32.335189452392086 -42.919321937265941 60.543816701367788 0 0 -1 I I #
coedge $-1 $269 $269 $-1 $391 reversed $159 $-1 #
edge $-1 $392 0 $392 6.2831853071796004 $160 $393 forward 7 unknown #
vertex $-1 $163 $394 #
ellipse-curve $-1 38.448514502782032 -40.190522223441853 15.580516587481068 0 -0.61566148304635926 0.78801074757464917 1.5 0 0 1 I I #
coedge $-1 $273 $273 $-1 $395 reversed $166 $-1 #
edge $-1 $396 0 $396 6.2831853071796004 $167 $397 forward 7 unknown #
vertex $-1 $170 $398 #
ellipse-curve $-1 47.618502078366944 -40.190522223441853 15.580516587481068 0 -0.61566148304635926 0.78801074757464917 1.5 0 0 1 I I #
face $-1 $-1 $399 $36 $-1 $400 reversed single #
loop $-1 $-1 $401 $171 #
plane-surface $-1 53.73182712875689 0 15.267811668949811 1 0 0 0 0 -1 forward_v I I I I #
coedge $-1 $402 $174 $176 $286 forward $107 $-1 #
coedge $-1 $174 $402 $401 $403 forward $107 $-1 #
coedge $-1 $404 $177 $174 $283 forward $172 $-1 #
edge $-1 $289 2.8504089024494661 $405 34.871081785021438 $282 $406 forward 7 unknown #
coedge $-1 $407 $408 $175 $285 forward $399 $-1 #
edge $-1 $409 -69.752653399126729 $288 -60.081812507524269 $284 $410 forward 7 unknown #
edge $-1 $289 74.17350212756287 $409 85.838643874531911 $176 $411 forward 7 unknown #
coedge $-1 $177 $404 $407 $412 forward $172 $-1 #
vertex $-1 $285 $413 #
vertex $-1 $178 $414 #
straight-curve $-1 21.711154246184918 54.08107559473622 17.712488624563321 0 -1 0 I I #
coedge $-1 $291 $291 $-1 $415 reversed $181 $-1 #
edge $-1 $416 0 $416 6.2831853071796004 $182 $417 forward 7 unknown #
vertex $-1 $185 $418 #
ellipse-curve $-1 28.115288822699313 39.657789765640558 12.877068178762086 0 0.82903758062907751 0.55919289150049634 2.5 0 0 1 I I #
coedge $-1 $295 $295 $-1 $419 reversed $188 $-1 #
edge $-1 $420 0 $420 6.2831853071796004 $189 $421 forward 7 unknown #
vertex $-1 $192 $422 #
ellipse-curve $-1 37.721490687470904 39.657789765640558 12.877068178762086 0 0.82903758062907751 0.55919289150049634 2.5 0 0 1 I I #
coedge $-1 $299 $299 $-1 $423 reversed $195 $-1 #
edge $-1 $424 0 $424 6.2831853071796004 $196 $425 forward 7 unknown #
vertex $-1 $199 $426 #
ellipse-curve $-1 47.327692552242496 39.657789765640558 12.877068178762086 0 0.82903758062907751 0.55919289150049634 2.5 0 0 1 I I #
face $-1 $-1 $215 $30 $-1 $427 reversed single #
loop $-1 $-1 $319 $200 #
plane-surface $-1 0 42.919321937265941 0 0 -1 0 0 0 -1 forward_v I I I I #
coedge $-1 $428 $317 $320 $429 forward $201 $-1 #
coedge $-1 $323 $203 $204 $311 reversed $126 $-1 #
coedge $-1 $317 $428 $203 $309 reversed $201 $-1 #
edge $-1 $324 -17.712488624563314 $430 17.712488624563314 $308 $431 forward 7 unknown #
coedge $-1 $205 $204 $428 $432 forward $81 $-1 #
edge $-1 $315 -68.297982726523628 $430 68.297982726523628 $307 $433 forward 7 unknown #
coedge $-1 $320 $319 $205 $313 reversed $304 $-1 #
edge $-1 $434 -68.297982726523628 $314 68.297982726523628 $312 $435 forward 7 unknown #
vertex $-1 $207 $436 #
vertex $-1 $326 $437 #
straight-curve $-1 68.297982726523628 0 -17.712488624563314 0 -1 0 I I #
coedge $-1 $306 $308 $208 $318 reversed $201 $-1 #
edge $-1 $321 -42.919321937265941 $324 42.919321937265941 $317 $438 forward 7 unknown #
coedge $-1 $312 $209 $214 $327 forward $304 $-1 #
coedge $-1 $209 $312 $306 $429 reversed $304 $-1 #
vertex $-1 $210 $439 #
straight-curve $-1 0 42.919321937265941 17.712488624563314 -1 0 0 I I #
coedge $-1 $211 $307 $213 $326 reversed $126 $-1 #
vertex $-1 $318 $440 #
straight-curve $-1 0 -42.919321937265941 17.712488624563314 1 0 0 I I #
edge $-1 $216 -17.712488624563314 $315 17.712488624563314 $213 $441 forward 7 unknown #
edge $-1 $217 -17.712488624563314 $314 17.712488624563314 $214 $442 forward 7 unknown #
point $-1 68.297982726523628 -42.919321937265941 17.712488624563314 #
point $-1 68.297982726523628 42.919321937265941 17.712488624563314 #
face $-1 $-1 $339 $31 $-1 $443 reversed single #
loop $-1 $-1 $336 $219 #
plane-surface $-1 0 0 17.712488624563314 0 0 1 1 0 0 forward_v I I I I #
coedge $-1 $444 $445 $226 $342 forward $220 $-1 #
coedge $-1 $222 $346 $446 $447 reversed $134 $-1 #
edge $-1 $448 -10.078582790088408 $232 -5.1892288788614049 $222 $449 forward 7 unknown #
coedge $-1 $446 $450 $223 $337 forward $331 $-1 #
edge $-1 $340 -42.919321937265941 $448 42.919321937265941 $336 $451 forward 7 unknown #
coedge $-1 $343 $224 $450 $452 reversed $339 $-1 #
loop $-1 $-1 $224 $330 #
vertex $-1 $225 $453 #
straight-curve $-1 -53.73182712875689 -42.919321937265941 7.6339058344749056 0 0 1 I I #
edge $-1 $347 -42.919321937265941 $344 42.919321937265941 $333 $454 forward 7 unknown #
coedge $-1 $227 $338 $444 $455 forward $339 $-1 #
vertex $-1 $342 $456 #
straight-curve $-1 -30.50745246382013 -42.919321937265941 12.82313471333631 1 0 0 I I #
coedge $-1 $334 $229 $445 $457 reversed $134 $-1 #
vertex $-1 $342 $458 #
straight-curve $-1 -30.50745246382013 42.919321937265941 12.82313471333631 -1 0 0 I I #
point $-1 -53.73182712875689 42.919321937265941 12.82313471333631 #
point $-1 -53.73182712875689 -42.919321937265941 12.82313471333631 #
face $-1 $-1 $250 $32 $-1 $459 reversed single #
loop $-1 $-1 $241 $235 #
plane-surface $-1 0 42.919321937265941 0 0 -1 0 0 0 -1 forward_v I I I I #
coedge $-1 $244 $460 $358 $461 forward $236 $-1 #
coedge $-1 $462 $238 $460 $463 forward $142 $-1 #
coedge $-1 $238 $462 $360 $464 forward $142 $-1 #
edge $-1 $362 -42.919321937265941 $465 42.919321937265941 $238 $466 forward 7 unknown #
coedge $-1 $240 $239 $354 $461 reversed $89 $-1 #
edge $-1 $365 -42.919321937265941 $361 42.919321937265941 $239 $467 forward 7 unknown #
coedge $-1 $367 $241 $356 $464 reversed $352 $-1 #
vertex $-1 $247 $468 #
vertex $-1 $242 $469 #
straight-curve $-1 53.73182712875689 42.919321937265941 7.6339058344749056 0 0 1 I I #
coedge $-1 $460 $244 $249 $371 reversed $236 $-1 #
vertex $-1 $245 $470 #
straight-curve $-1 30.50745246382013 -42.919321937265941 12.82313471333631 1 0 0 I I #
coedge $-1 $246 $360 $248 $370 forward $352 $-1 #
straight-curve $-1 30.50745246382013 42.919321937265941 12.82313471333631 -1 0 0 I I #
coedge $-1 $249 $248 $462 $471 reversed $250 $-1 #
edge $-1 $472 -17.712488624563314 $252 -12.82313471333631 $248 $473 forward 7 unknown #
edge $-1 $474 -17.712488624563314 $251 -12.82313471333631 $249 $475 forward 7 unknown #
point $-1 68.297982726523628 -42.919321937265941 12.82313471333631 #
point $-1 68.297982726523628 42.919321937265941 12.82313471333631 #
loop $-1 $-1 $379 $254 #
plane-surface $-1 53.73182712875689 0 15.267811668949811 1 0 0 0 0 -1 forward_v I I I I #
coedge $-1 $257 $384 $476 $477 forward $150 $-1 #
coedge $-1 $259 $258 $257 $378 reversed $93 $-1 #
edge $-1 $478 -32.215072983469646 $385 -10.818435307104842 $257 $479 forward 7 unknown #
coedge $-1 $476 $480 $259 $380 forward $374 $-1 #
edge $-1 $382 -17.470469828723289 $478 -10.54467669145242 $379 $481 forward 7 unknown #
coedge $-1 $265 $260 $480 $482 forward $255 $-1 #
vertex $-1 $482 $483 #
straight-curve $-1 21.516754145287244 -42.919321937265941 13.448544550398836 1 0 0 I I #
coedge $-1 $376 $262 $265 $388 forward $150 $-1 #
vertex $-1 $263 $484 #
straight-curve $-1 32.335189452392086 -63.508098303119127 17.712488624563314 0 -1 0 I I #
straight-curve $-1 32.335189452392086 -42.91932193726592 13.44854455039885 0 0.78801074757464917 0.61566148304635926 I I #
edge $-1 $266 32.335189452392086 $485 53.73182712875689 $265 $486 forward 7 unknown #
point $-1 32.335189452392086 -42.919321937265941 17.712488624563314 #
point $-1 32.335189452392086 -42.919321937265941 13.448544550398834 #
edge $-1 $487 1 $487 0 $269 $-1 forward 7 unknown #
vertex $-1 $270 $488 #
ellipse-curve $-1 38.448514502782032 -37.422638441504269 12.037786973453635 0 -0.61566148304635926 0.78801074757464917 1.5 0 0 1 I I #
point $-1 39.948514502782032 -40.190522223441882 15.580516587481103 #
edge $-1 $489 1 $489 0 $273 $-1 forward 7 unknown #
vertex $-1 $274 $490 #
ellipse-curve $-1 47.618502078366944 -37.422638441504269 12.037786973453635 0 -0.61566148304635926 0.78801074757464917 1.5 0 0 1 I I #
point $-1 49.118502078366944 -40.190522223441882 15.580516587481103 #
loop $-1 $-1 $284 $277 #
plane-surface $-1 0 42.919321937265941 0 0 -1 0 0 0 -1 forward_v I I I I #
coedge $-1 $491 $492 $281 $403 reversed $278 $-1 #
coedge $-1 $281 $280 $408 $493 reversed $107 $-1 #
edge $-1 $494 -85.838643874531911 $405 -74.17350212756287 $401 $495 forward 7 unknown #
coedge $-1 $287 $282 $492 $496 forward $172 $-1 #
vertex $-1 $496 $497 #
straight-curve $-1 18.860745343735452 36.396257594015189 17.712488624563314 1 0 0 I I #
coedge $-1 $498 $284 $287 $412 reversed $399 $-1 #
coedge $-1 $284 $498 $402 $493 forward $399 $-1 #
vertex $-1 $285 $499 #
straight-curve $-1 21.711154246184918 42.919321937265941 77.794301132087583 0 0 1 I I #
straight-curve $-1 21.711154246184918 -5.0810375334149143 79.205109375183767 0 0.55919289150049634 -0.82903758062907751 I I #
edge $-1 $500 -53.73182712875689 $288 -21.711154246184918 $407 $501 forward 7 unknown #
point $-1 21.711154246184918 42.919321937265941 17.712488624563314 #
point $-1 21.711154246184918 36.396257594015182 17.712488624563314 #
edge $-1 $502 1 $502 0 $291 $-1 forward 7 unknown #
vertex $-1 $292 $503 #
ellipse-curve $-1 28.115288822699313 35.746256516784854 10.238705770669295 0 0.82903758062907751 0.55919289150049634 2.5 0 0 1 I I #
point $-1 30.615288822699313 39.657789765640572 12.877068178762094 #
edge $-1 $504 1 $504 0 $295 $-1 forward 7 unknown #
vertex $-1 $296 $505 #
ellipse-curve $-1 37.721490687470904 35.746256516784854 10.238705770669295 0 0.82903758062907751 0.55919289150049634 2.5 0 0 1 I I #
point $-1 40.221490687470904 39.657789765640572 12.877068178762094 #
edge $-1 $506 1 $506 0 $299 $-1 forward 7 unknown #
vertex $-1 $300 $507 #
ellipse-curve $-1 47.327692552242496 35.746256516784854 10.238705770669295 0 0.82903758062907751 0.55919289150049634 2.5 0 0 1 I I #
point $-1 49.827692552242496 39.657789765640572 12.877068178762094 #
plane-surface $-1 68.297982726523628 0 0 -1 0 0 0 0 1 forward_v I I I I #
coedge $-1 $308 $306 $310 $432 reversed $201 $-1 #
edge $-1 $321 -17.712488624563314 $434 17.712488624563314 $320 $508 forward 7 unknown #
vertex $-1 $432 $509 #
straight-curve $-1 -68.297982726523628 -42.919321937265941 0 0 0 -1 I I #
edge $-1 $430 -42.919321937265941 $434 42.919321937265941 $428 $510 forward 7 unknown #
straight-curve $-1 0 -42.919321937265941 -17.712488624563314 -1 0 0 I I #
vertex $-1 $313 $511 #
straight-curve $-1 0 42.919321937265941 -17.712488624563314 1 0 0 I I #
point $-1 68.297982726523628 42.919321937265941 -17.712488624563314 #
point $-1 68.297982726523628 -42.919321937265941 -17.712488624563314 #
straight-curve $-1 -68.297982726523628 0 17.712488624563314 0 -1 0 I I #
point $-1 -68.297982726523628 42.919321937265941 17.712488624563314 #
point $-1 -68.297982726523628 -42.919321937265941 17.712488624563314 #
straight-curve $-1 68.297982726523628 -42.919321937265941 0 0 0 -1 I I #
straight-curve $-1 68.297982726523628 42.919321937265941 0 0 0 -1 I I #
plane-surface $-1 0 -42.919321937265941 0 0 1 0 0 0 1 forward_v I I I I #
coedge $-1 $512 $333 $343 $455 reversed $220 $-1 #
coedge $-1 $333 $512 $346 $457 forward $220 $-1 #
coedge $-1 $513 $336 $334 $447 forward $331 $-1 #
edge $-1 $448 53.73182712875689 $514 68.297982726523628 $334 $515 forward 7 unknown #
vertex $-1 $447 $516 #
straight-curve $-1 -53.73182712875689 42.919321937265941 7.6339058344749056 0 0 -1 I I #
coedge $-1 $336 $513 $338 $452 forward $331 $-1 #
straight-curve $-1 -53.73182712875689 0 17.712488624563314 0 1 0 I I #
edge $-1 $517 -68.297982726523628 $340 -53.73182712875689 $338 $518 forward 7 unknown #
point $-1 -53.73182712875689 -42.919321937265941 17.712488624563314 #
straight-curve $-1 -68.297982726523628 0 12.82313471333631 0 -1 0 I I #
edge $-1 $517 -17.712488624563314 $344 -12.82313471333631 $444 $519 forward 7 unknown #
point $-1 -68.297982726523628 -42.919321937265941 12.82313471333631 #
edge $-1 $514 -17.712488624563314 $347 -12.82313471333631 $346 $520 forward 7 unknown #
point $-1 -68.297982726523628 42.919321937265941 12.82313471333631 #
plane-surface $-1 68.297982726523628 0 0 -1 0 0 0 0 1 forward_v I I I I #
coedge $-1 $354 $364 $355 $463 reversed $236 $-1 #
edge $-1 $465 -10.078582790088408 $365 -5.1892288788614049 $354 $521 forward 7 unknown #
coedge $-1 $356 $355 $369 $471 forward $142 $-1 #
edge $-1 $465 53.73182712875689 $474 68.297982726523628 $460 $522 forward 7 unknown #
edge $-1 $472 -68.297982726523628 $362 -53.73182712875689 $360 $523 forward 7 unknown #
vertex $-1 $463 $524 #
straight-curve $-1 53.73182712875689 0 17.712488624563314 0 -1 0 I I #
straight-curve $-1 53.73182712875689 0 12.82313471333631 0 1 0 I I #
point $-1 53.73182712875689 42.919321937265941 12.82313471333631 #
point $-1 53.73182712875689 42.919321937265941 17.712488624563314 #
point $-1 53.73182712875689 -42.919321937265941 12.82313471333631 #
edge $-1 $474 -42.919321937265941 $472 42.919321937265941 $369 $525 forward 7 unknown #
vertex $-1 $471 $526 #
straight-curve $-1 68.297982726523628 42.919321937265941 0 0 0 -1 I I #
vertex $-1 $471 $527 #
straight-curve $-1 68.297982726523628 -42.919321937265941 0 0 0 -1 I I #
coedge $-1 $480 $379 $376 $477 reversed $374 $-1 #
edge $-1 $485 -42.919321937265941 $478 -37.461722509617751 $376 $528 forward 7 unknown #
vertex $-1 $380 $529 #
straight-curve $-1 21.516754145287244 -37.461722509617751 17.712488624563314 -1 0 0 I I #
coedge $-1 $379 $476 $381 $482 reversed $374 $-1 #
straight-curve $-1 53.73182712875689 -29.152403947053351 24.204439914667287 0 0.78801074757464917 0.61566148304635926 I I #
edge $-1 $382 5.8146387159239268 $485 10.078582790088408 $381 $530 forward 7 unknown #
point $-1 53.73182712875689 -42.919321937265941 13.448544550398832 #
point $-1 32.335189452392086 -37.461722509617751 17.712488624563314 #
vertex $-1 $477 $531 #
straight-curve $-1 0 -42.919321937265941 17.712488624563314 1 0 0 I I #
vertex $-1 $391 $532 #
point $-1 39.948514502782032 -37.422638441504269 12.037786973453635 #
vertex $-1 $395 $533 #
point $-1 49.118502078366944 -37.422638441504269 12.037786973453635 #
coedge $-1 $492 $401 $498 $534 reversed $278 $-1 #
coedge $-1 $401 $491 $404 $496 reversed $278 $-1 #
edge $-1 $494 -34.871081785021438 $409 -2.8504089024494661 $408 $535 forward 7 unknown #
vertex $-1 $534 $536 #
straight-curve $-1 53.73182712875689 -5.0810375334149143 79.205109375183767 0 -0.55919289150049634 0.82903758062907751 I I #
edge $-1 $405 36.396257594015182 $500 42.919321937265941 $404 $537 forward 7 unknown #
point $-1 53.73182712875689 36.396257594015182 17.712488624563314 #
coedge $-1 $408 $407 $491 $534 forward $399 $-1 #
point $-1 21.711154246184918 42.919321937265948 8.041647732960854 #
vertex $-1 $412 $538 #
straight-curve $-1 0 42.919321937265941 17.712488624563314 -1 0 0 I I #
vertex $-1 $415 $539 #
point $-1 30.615288822699313 35.746256516784854 10.238705770669295 #
vertex $-1 $419 $540 #
point $-1 40.221490687470904 35.746256516784854 10.238705770669295 #
vertex $-1 $423 $541 #
point $-1 49.827692552242496 35.746256516784854 10.238705770669295 #
straight-curve $-1 -68.297982726523628 42.919321937265941 0 0 0 -1 I I #
point $-1 -68.297982726523628 -42.919321937265941 -17.712488624563314 #
straight-curve $-1 -68.297982726523628 0 -17.712488624563314 0 1 0 I I #
point $-1 -68.297982726523628 42.919321937265941 -17.712488624563314 #
coedge $-1 $445 $444 $513 $542 reversed $220 $-1 #
coedge $-1 $450 $446 $512 $542 forward $331 $-1 #
vertex $-1 $447 $543 #
straight-curve $-1 0 42.919321937265941 17.712488624563314 -1 0 0 I I #
point $-1 -53.73182712875689 42.919321937265941 17.712488624563314 #
vertex $-1 $542 $544 #
straight-curve $-1 0 -42.919321937265941 17.712488624563314 1 0 0 I I #
straight-curve $-1 -68.297982726523628 -42.919321937265941 0 0 0 -1 I I #
straight-curve $-1 -68.297982726523628 42.919321937265941 0 0 0 -1 I I #
straight-curve $-1 53.73182712875689 -42.919321937265941 7.6339058344749056 0 0 -1 I I #
straight-curve $-1 0 -42.919321937265941 17.712488624563314 1 0 0 I I #
straight-curve $-1 0 42.919321937265941 17.712488624563314 -1 0 0 I I #
point $-1 53.73182712875689 -42.919321937265941 17.712488624563314 #
straight-curve $-1 68.297982726523628 0 17.712488624563314 0 1 0 I I #
point $-1 68.297982726523628 42.919321937265941 17.712488624563314 #
point $-1 68.297982726523628 -42.919321937265941 17.712488624563314 #
straight-curve $-1 53.73182712875689 0 17.712488624563314 0 1 0 I I #
point $-1 53.73182712875689 -37.461722509617751 17.712488624563314 #
straight-curve $-1 53.73182712875689 -42.919321937265941 7.6339058344749056 0 0 1 I I #
point $-1 53.73182712875689 -42.919321937265941 17.712488624563314 #
point $-1 38.448514502782032 -36.499146216934726 10.855770852091659 #
point $-1 47.618502078366944 -36.499146216934726 10.855770852091659 #
edge $-1 $500 60.081812507524269 $494 69.752653399126729 $498 $545 forward 7 unknown #
straight-curve $-1 18.860745343735452 42.919321937265948 8.041647732960854 -1 0 0 I I #
point $-1 53.73182712875689 42.919321937265948 8.041647732960854 #
straight-curve $-1 53.73182712875689 0 17.712488624563314 0 1 0 I I #
point $-1 53.73182712875689 42.919321937265941 17.712488624563314 #
point $-1 28.115288822699313 33.673662565212155 8.8407235419180559 #
point $-1 37.721490687470904 33.673662565212155 8.8407235419180559 #
point $-1 47.327692552242496 33.673662565212155 8.8407235419180559 #
edge $-1 $514 -42.919321937265941 $517 42.919321937265941 $512 $546 forward 7 unknown #
point $-1 -68.297982726523628 42.919321937265941 17.712488624563314 #
point $-1 -68.297982726523628 -42.919321937265941 17.712488624563314 #
straight-curve $-1 53.73182712875689 42.919321937265941 77.794301132087583 0 0 -1 I I #
straight-curve $-1 -68.297982726523628 0 17.712488624563314 0 -1 0 I I #
End-of-ACIS-data 