500 0 5 0           
7 Unknown 11 ACIS 5.0 NT 24 Thu Mar 25 22:18:13 1999 
-1 9.9999999999999995e-007 1e-010 
body $-1 $5 $-1 $6 #
body $-1 $7 $-1 $8 #
body $-1 $9 $-1 $10 #
body $-1 $11 $-1 $12 #
body $-1 $13 $-1 $14 #
lump $-1 $-1 $15 $0 #
transform $-1 1 0 0 0 1 0 0 0 1 70.116885891293066 37.151656782093653 7.5541437567179539 1 rotate no_reflect no_shear #
lump $-1 $-1 $16 $1 #
transform $-1 1 0 0 0 1 0 0 0 1 70.116885891293066 37.151656782093653 7.5541437567179539 1 rotate no_reflect no_shear #
lump $-1 $-1 $17 $2 #
transform $-1 1 0 0 0 1 0 0 0 1 70.116885891293066 37.151656782093653 7.5541437567179539 1 rotate no_reflect no_shear #
lump $-1 $-1 $18 $3 #
transform $-1 1 0 0 0 1 0 0 0 1 70.116885891293066 37.151656782093653 7.5541437567179539 1 rotate no_reflect no_shear #
lump $-1 $-1 $19 $4 #
transform $-1 1 0 0 0 1 0 0 0 1 70.116885891293066 37.151656782093653 7.5541437567179539 1 rotate no_reflect no_shear #
shell $-1 $-1 $-1 $20 $-1 $5 #
shell $-1 $-1 $-1 $21 $-1 $7 #
shell $-1 $-1 $-1 $22 $-1 $9 #
shell $-1 $-1 $-1 $23 $-1 $11 #
shell $-1 $-1 $-1 $24 $-1 $13 #
face $-1 $25 $26 $15 $-1 $27 forward single #
face $-1 $28 $29 $16 $-1 $30 reversed single #
face $-1 $31 $32 $17 $-1 $33 reversed single #
face $-1 $34 $35 $18 $-1 $36 forward single #
face $-1 $37 $38 $19 $-1 $39 forward single #
face $-1 $40 $41 $15 $-1 $42 reversed single #
loop $-1 $-1 $43 $20 #
plane-surface $-1 0 0 7.5541437567179539 0 0 1 1 0 0 forward_v I I I I #
face $-1 $44 $45 $16 $-1 $46 reversed single #
loop $-1 $-1 $47 $21 #
plane-surface $-1 -58.999669489372863 -34.619837099903052 0 1 0 0 0 0 -1 forward_v I I I I #
face $-1 $48 $49 $17 $-1 $50 reversed single #
loop $-1 $-1 $51 $22 #
plane-surface $-1 121.44601179572015 3.4158333245134838 194.27172482085479 0 -1 0 -0.86602541151947299 0 -0.49999998660252726 forward_v I I I I #
face $-1 $52 $53 $18 $-1 $54 forward single #
loop $-1 $55 $56 $23 #
cone-surface $-1 68.156306593906052 -8.0445192565176917 4.8070984659021336 -0.86602541151947299 0 -0.49999998660252726 0.49999998660252726 0 -0.86602541151947299 1 I I 0 1 1 forward I I I I #
face $-1 $57 $58 $19 $-1 $59 forward single #
loop $-1 $60 $61 $24 #
cone-surface $-1 68.156306593906052 -1.1683077078989896 4.8070984659021336 -0.86602541151947299 0 -0.49999998660252726 0.49999998660252726 0 -0.86602541151947299 1 I I 0 1 1 forward I I I I #
face $-1 $62 $63 $15 $-1 $64 reversed single #
loop $-1 $-1 $65 $25 #
plane-surface $-1 0 0 -7.5541437567179539 0 0 1 1 0 0 forward_v I I I I #
coedge $-1 $66 $67 $68 $69 forward $26 $-1 #
face $-1 $70 $71 $16 $-1 $72 reversed single #
loop $-1 $-1 $73 $28 #
plane-surface $-1 -57.499669489372863 -32.08801741771245 0 0 -1 0 0 0 -1 forward_v I I I I #
coedge $-1 $74 $75 $76 $77 forward $29 $-1 #
face $-1 $78 $79 $17 $-1 $80 reversed single #
loop $-1 $-1 $81 $31 #
plane-surface $-1 1.8787781357332278e-006 -4.6064134822083389 124.15484080833986 0.86602541151947299 0 0.49999998660252726 0.49999998660252726 0 -0.86602541151947299 forward_v I I I I #
coedge $-1 $82 $83 $84 $85 reversed $32 $-1 #
face $-1 $-1 $86 $18 $-1 $87 forward single #
loop $-1 $88 $89 $34 #
cone-surface $-1 67.161435884338005 -8.0445192565176917 4.232709614445108 -0.86602541151947299 0 -0.49999998660252726 0.24999999330126363 0 -0.43301270575973649 1 I I -0.70710678118654746 0.70710678118654746 0.5 forward I I I I #
loop $-1 $-1 $90 $23 #
coedge $-1 $56 $56 $91 $92 reversed $35 $-1 #
face $-1 $-1 $93 $19 $-1 $94 forward single #
loop $-1 $95 $96 $37 #
cone-surface $-1 67.161435884338005 -1.1683077078989896 4.232709614445108 -0.86602541151947299 0 -0.49999998660252726 0.24999999330126363 0 -0.43301270575973649 1 I I -0.70710678118654746 0.70710678118654746 0.5 forward I I I I #
loop $-1 $-1 $97 $24 #
coedge $-1 $61 $61 $98 $99 reversed $38 $-1 #
face $-1 $100 $101 $15 $-1 $102 reversed single #
loop $-1 $-1 $103 $40 #
plane-surface $-1 0 -37.151656782093653 0 0 1 0 0 0 1 forward_v I I I I #
coedge $-1 $104 $105 $106 $107 forward $41 $-1 #
coedge $-1 $108 $43 $109 $110 forward $26 $-1 #
coedge $-1 $43 $108 $111 $112 forward $26 $-1 #
coedge $-1 $113 $114 $43 $69 reversed $115 $-1 #
edge $-1 $116 -37.151656782093653 $117 37.151656782093653 $68 $118 forward 7 unknown #
face $-1 $119 $120 $16 $-1 $121 forward single #
loop $-1 $-1 $122 $44 #
plane-surface $-1 -55.999669489372863 -34.619837099903052 0 -1 0 0 0 0 1 forward_v I I I I #
coedge $-1 $123 $124 $125 $126 forward $45 $-1 #
coedge $-1 $127 $47 $128 $129 reversed $29 $-1 #
coedge $-1 $47 $127 $130 $131 reversed $29 $-1 #
coedge $-1 $124 $123 $47 $77 reversed $45 $-1 #
edge $-1 $132 -7.5541437567179539 $133 7.5541437567179539 $76 $134 forward 7 unknown #
face $-1 $135 $136 $17 $-1 $137 reversed single #
loop $-1 $-1 $138 $48 #
plane-surface $-1 121.44601179572015 -12.628660288930162 194.27172482085479 0 1 0 0.86602541151947299 0 0.49999998660252726 forward_v I I I I #
coedge $-1 $139 $140 $141 $142 reversed $49 $-1 #
coedge $-1 $83 $51 $143 $144 reversed $32 $-1 #
coedge $-1 $51 $82 $139 $145 reversed $32 $-1 #
coedge $-1 $141 $146 $51 $85 forward $147 $-1 #
edge $-1 $148 -9.3938799934329893 $149 -6.5964374062755695 $84 $150 forward 7 unknown #
loop $-1 $-1 $91 $52 #
plane-surface $-1 1.8787781357332278e-006 -4.6064134822083389 124.15484080833986 0.86602541151947299 0 0.49999998660252726 0.49999998660252726 0 -0.86602541151947299 forward_v I I I I #
loop $-1 $-1 $151 $34 #
coedge $-1 $89 $89 $90 $152 reversed $53 $-1 #
coedge $-1 $90 $90 $89 $152 forward $55 $-1 #
coedge $-1 $91 $91 $56 $92 forward $86 $-1 #
edge $-1 $153 0 $153 6.2831853071796004 $91 $154 forward 7 unknown #
loop $-1 $-1 $98 $57 #
plane-surface $-1 1.8787781357332278e-006 -4.6064134822083389 124.15484080833986 0.86602541151947299 0 0.49999998660252726 0.49999998660252726 0 -0.86602541151947299 forward_v I I I I #
loop $-1 $-1 $155 $37 #
coedge $-1 $96 $96 $97 $156 reversed $58 $-1 #
coedge $-1 $97 $97 $96 $156 forward $60 $-1 #
coedge $-1 $98 $98 $61 $99 forward $93 $-1 #
edge $-1 $157 0 $157 6.2831853071796004 $98 $158 forward 7 unknown #
face $-1 $159 $160 $15 $-1 $161 reversed single #
loop $-1 $-1 $162 $62 #
plane-surface $-1 -70.116885891293066 0 0 1 0 0 0 0 -1 forward_v I I I I #
coedge $-1 $163 $111 $164 $165 forward $63 $-1 #
coedge $-1 $166 $65 $163 $167 forward $41 $-1 #
coedge $-1 $65 $166 $168 $169 forward $41 $-1 #
coedge $-1 $114 $113 $65 $107 reversed $115 $-1 #
edge $-1 $170 -37.151656782093653 $171 37.151656782093653 $106 $172 forward 7 unknown #
coedge $-1 $67 $66 $173 $174 forward $26 $-1 #
coedge $-1 $175 $176 $66 $110 reversed $160 $-1 #
edge $-1 $117 -70.116885891293066 $177 70.116885891293066 $109 $178 forward 7 unknown #
coedge $-1 $103 $179 $67 $112 reversed $63 $-1 #
edge $-1 $180 -70.116885891293066 $116 70.116885891293066 $111 $181 forward 7 unknown #
coedge $-1 $106 $68 $179 $182 forward $115 $-1 #
coedge $-1 $68 $106 $175 $183 reversed $115 $-1 #
loop $-1 $-1 $113 $159 #
vertex $-1 $69 $184 #
vertex $-1 $69 $185 #
straight-curve $-1 70.116885891293066 0 7.5541437567179539 0 1 0 I I #
face $-1 $186 $187 $16 $-1 $188 reversed single #
loop $-1 $-1 $189 $70 #
plane-surface $-1 0 0 7.5541437567179539 0 0 1 1 0 0 forward_v I I I I #
coedge $-1 $190 $191 $192 $193 reversed $71 $-1 #
coedge $-1 $76 $73 $194 $195 reversed $45 $-1 #
coedge $-1 $73 $76 $196 $197 reversed $45 $-1 #
coedge $-1 $191 $190 $73 $126 reversed $71 $-1 #
edge $-1 $198 -7.5541437567179539 $199 7.5541437567179539 $125 $200 forward 7 unknown #
coedge $-1 $75 $74 $201 $202 reversed $29 $-1 #
coedge $-1 $194 $203 $74 $129 forward $187 $-1 #
edge $-1 $204 -19.841738232142127 $133 -14.778098867760924 $128 $205 forward 7 unknown #
coedge $-1 $206 $196 $75 $131 forward $120 $-1 #
edge $-1 $132 14.778098867760924 $207 19.841738232142127 $130 $208 forward 7 unknown #
vertex $-1 $131 $209 #
vertex $-1 $129 $210 #
straight-curve $-1 -58.999669489372863 -32.08801741771245 0 0 0 -1 I I #
face $-1 $-1 $147 $17 $-1 $211 forward single #
loop $-1 $-1 $212 $78 #
plane-surface $-1 70.116885891293066 0 0 -1 0 0 0 0 1 forward_v I I I I #
coedge $-1 $213 $214 $215 $216 reversed $79 $-1 #
coedge $-1 $217 $81 $83 $145 forward $49 $-1 #
coedge $-1 $81 $217 $213 $218 forward $49 $-1 #
coedge $-1 $215 $84 $81 $142 forward $147 $-1 #
edge $-1 $149 -5.7190400656176532 $219 10.325453547825992 $141 $220 forward 7 unknown #
coedge $-1 $221 $222 $82 $144 forward $136 $-1 #
edge $-1 $223 -94.427031519029555 $148 -89.581718653709444 $143 $224 forward 7 unknown #
edge $-1 $149 134.63888645835664 $223 140.23377178258613 $83 $225 forward 7 unknown #
coedge $-1 $84 $215 $221 $226 forward $147 $-1 #
loop $-1 $-1 $215 $135 #
vertex $-1 $144 $227 #
vertex $-1 $85 $228 #
straight-curve $-1 60.723005897860077 3.4158333245134838 7.5541437567179486 -1 0 0 I I #
coedge $-1 $151 $151 $-1 $229 reversed $88 $-1 #
edge $-1 $230 0 $230 6.2831853071796004 $89 $231 forward 7 unknown #
vertex $-1 $92 $232 #
ellipse-curve $-1 68.718164597714363 -8.0445192565176917 5.131487324057896 0.86602541151947299 0 0.49999998660252726 0.49999998660252726 0 -0.86602541151947299 1 I I #
coedge $-1 $155 $155 $-1 $233 reversed $95 $-1 #
edge $-1 $234 0 $234 6.2831853071796004 $96 $235 forward 7 unknown #
vertex $-1 $99 $236 #
ellipse-curve $-1 68.718164597714363 -1.1683077078989896 5.131487324057896 0.86602541151947299 0 0.49999998660252726 0.49999998660252726 0 -0.86602541151947299 1 I I #
face $-1 $-1 $115 $15 $-1 $237 reversed single #
loop $-1 $-1 $175 $100 #
plane-surface $-1 0 37.151656782093653 0 0 -1 0 0 0 -1 forward_v I I I I #
coedge $-1 $238 $173 $176 $239 forward $101 $-1 #
coedge $-1 $179 $103 $104 $167 reversed $63 $-1 #
coedge $-1 $173 $238 $103 $165 reversed $101 $-1 #
edge $-1 $180 -7.5541437567179539 $240 7.5541437567179539 $164 $241 forward 7 unknown #
coedge $-1 $105 $104 $238 $242 forward $41 $-1 #
edge $-1 $171 -70.116885891293066 $240 70.116885891293066 $163 $243 forward 7 unknown #
coedge $-1 $176 $175 $105 $169 reversed $160 $-1 #
edge $-1 $244 -70.116885891293066 $170 70.116885891293066 $168 $245 forward 7 unknown #
vertex $-1 $107 $246 #
vertex $-1 $182 $247 #
straight-curve $-1 70.116885891293066 0 -7.5541437567179539 0 -1 0 I I #
coedge $-1 $162 $164 $108 $174 reversed $101 $-1 #
edge $-1 $177 -37.151656782093653 $180 37.151656782093653 $173 $248 forward 7 unknown #
coedge $-1 $168 $109 $114 $183 forward $160 $-1 #
coedge $-1 $109 $168 $162 $239 reversed $160 $-1 #
vertex $-1 $110 $249 #
straight-curve $-1 0 37.151656782093653 7.5541437567179539 -1 0 0 I I #
coedge $-1 $111 $163 $113 $182 reversed $63 $-1 #
vertex $-1 $174 $250 #
straight-curve $-1 0 -37.151656782093653 7.5541437567179539 1 0 0 I I #
edge $-1 $116 -7.5541437567179539 $171 7.5541437567179539 $113 $251 forward 7 unknown #
edge $-1 $117 -7.5541437567179539 $170 7.5541437567179539 $114 $252 forward 7 unknown #
point $-1 70.116885891293066 -37.151656782093653 7.5541437567179539 #
point $-1 70.116885891293066 37.151656782093653 7.5541437567179539 #
face $-1 $-1 $253 $16 $-1 $254 reversed single #
loop $-1 $-1 $255 $119 #
plane-surface $-1 0 0 -7.5541437567179539 0 0 1 1 0 0 forward_v I I I I #
coedge $-1 $196 $206 $191 $256 forward $120 $-1 #
coedge $-1 $125 $122 $255 $257 reversed $71 $-1 #
coedge $-1 $122 $125 $189 $256 reversed $71 $-1 #
coedge $-1 $258 $259 $122 $193 forward $253 $-1 #
edge $-1 $260 -7.5541437567179539 $261 7.5541437567179539 $192 $262 forward 7 unknown #
coedge $-1 $255 $128 $123 $195 forward $187 $-1 #
edge $-1 $133 -30.249834744686432 $199 -27.249834744686432 $194 $263 forward 7 unknown #
coedge $-1 $130 $189 $124 $197 forward $120 $-1 #
edge $-1 $198 27.249834744686432 $132 30.249834744686432 $196 $264 forward 7 unknown #
vertex $-1 $197 $265 #
vertex $-1 $195 $266 #
straight-curve $-1 -55.999669489372863 -32.08801741771245 0 0 0 -1 I I #
coedge $-1 $259 $258 $127 $202 forward $253 $-1 #
edge $-1 $207 -7.5541437567179539 $204 7.5541437567179539 $201 $267 forward 7 unknown #
coedge $-1 $128 $255 $259 $268 forward $187 $-1 #
vertex $-1 $129 $269 #
straight-curve $-1 -58.999669489372863 -17.309918549951526 -7.5541437567179539 0 1 0 I I #
coedge $-1 $189 $130 $258 $270 forward $120 $-1 #
vertex $-1 $270 $271 #
straight-curve $-1 -58.999669489372863 -17.309918549951526 7.5541437567179539 0 -1 0 I I #
point $-1 -58.999669489372863 -32.08801741771245 7.5541437567179539 #
point $-1 -58.999669489372863 -32.08801741771245 -7.5541437567179539 #
plane-surface $-1 0 0 7.5541437567179539 0 0 1 1 0 0 forward_v I I I I #
coedge $-1 $222 $221 $214 $272 forward $136 $-1 #
coedge $-1 $214 $138 $140 $218 reversed $79 $-1 #
coedge $-1 $138 $213 $212 $272 reversed $79 $-1 #
coedge $-1 $146 $141 $138 $216 forward $147 $-1 #
edge $-1 $219 6.5964374062755695 $273 9.3938799934329893 $215 $274 forward 7 unknown #
coedge $-1 $140 $139 $222 $275 reversed $49 $-1 #
edge $-1 $276 -140.23377178258613 $219 -134.63888645835664 $213 $277 forward 7 unknown #
vertex $-1 $142 $278 #
straight-curve $-1 67.319443304135646 -2.3032067411041695 7.5541437567179628 0 -1 0 I I #
coedge $-1 $212 $143 $146 $226 reversed $136 $-1 #
coedge $-1 $143 $212 $217 $275 forward $136 $-1 #
vertex $-1 $144 $279 #
straight-curve $-1 70.116885891293066 3.4158333245134838 97.135862410427393 0 0 1 I I #
straight-curve $-1 1.8787781357332278e-006 3.4158333245134838 124.15484080833986 0.49999998660252726 0 -0.86602541151947299 I I #
edge $-1 $273 -12.628660288930162 $148 3.4158333245134838 $221 $280 forward 7 unknown #
point $-1 70.116885891293066 3.4158333245134838 7.5541437567179539 #
point $-1 67.319443304135646 3.4158333245134838 7.5541437567179486 #
edge $-1 $281 1 $281 0 $151 $-1 forward 7 unknown #
vertex $-1 $152 $282 #
ellipse-curve $-1 67.594448590097741 -8.0445192565176917 4.4827096077463713 0.86602541151947299 0 0.49999998660252726 0.49999998660252726 0 -0.86602541151947299 1 I I #
point $-1 69.218164584316881 -8.0445192565176917 4.2654619125384219 #
edge $-1 $283 1 $283 0 $155 $-1 forward 7 unknown #
vertex $-1 $156 $284 #
ellipse-curve $-1 67.594448590097741 -1.1683077078989896 4.4827096077463713 0.86602541151947299 0 0.49999998660252726 0.49999998660252726 0 -0.86602541151947299 1 I I #
point $-1 69.218164584316881 -1.1683077078989896 4.2654619125384219 #
plane-surface $-1 70.116885891293066 0 0 -1 0 0 0 0 1 forward_v I I I I #
coedge $-1 $164 $162 $166 $242 reversed $101 $-1 #
edge $-1 $177 -7.5541437567179539 $244 7.5541437567179539 $176 $285 forward 7 unknown #
vertex $-1 $242 $286 #
straight-curve $-1 -70.116885891293066 -37.151656782093653 0 0 0 -1 I I #
edge $-1 $240 -37.151656782093653 $244 37.151656782093653 $238 $287 forward 7 unknown #
straight-curve $-1 0 -37.151656782093653 -7.5541437567179539 -1 0 0 I I #
vertex $-1 $169 $288 #
straight-curve $-1 0 37.151656782093653 -7.5541437567179539 1 0 0 I I #
point $-1 70.116885891293066 37.151656782093653 -7.5541437567179539 #
point $-1 70.116885891293066 -37.151656782093653 -7.5541437567179539 #
straight-curve $-1 -70.116885891293066 0 7.5541437567179539 0 -1 0 I I #
point $-1 -70.116885891293066 37.151656782093653 7.5541437567179539 #
point $-1 -70.116885891293066 -37.151656782093653 7.5541437567179539 #
straight-curve $-1 70.116885891293066 -37.151656782093653 0 0 0 -1 I I #
straight-curve $-1 70.116885891293066 37.151656782093653 0 0 0 -1 I I #
loop $-1 $-1 $192 $186 #
plane-surface $-1 0 -37.151656782093653 0 0 1 0 0 0 1 forward_v I I I I #
coedge $-1 $203 $194 $190 $257 forward $187 $-1 #
edge $-1 $261 -19.841738232142127 $198 -14.778098867760924 $189 $289 forward 7 unknown #
edge $-1 $199 14.778098867760924 $260 19.841738232142127 $255 $290 forward 7 unknown #
coedge $-1 $201 $192 $206 $270 reversed $253 $-1 #
coedge $-1 $192 $201 $203 $268 reversed $253 $-1 #
vertex $-1 $268 $291 #
vertex $-1 $193 $292 #
straight-curve $-1 -55.999669489372863 -37.151656782093653 0 0 0 1 I I #
straight-curve $-1 -28.749834744686432 -32.08801741771245 -7.5541437567179539 1 0 0 I I #
straight-curve $-1 -28.749834744686432 -32.08801741771245 7.5541437567179539 -1 0 0 I I #
point $-1 -55.999669489372863 -32.08801741771245 7.5541437567179539 #
point $-1 -55.999669489372863 -32.08801741771245 -7.5541437567179539 #
straight-curve $-1 -58.999669489372863 -37.151656782093653 0 0 0 -1 I I #
edge $-1 $260 55.999669489372863 $204 58.999669489372863 $259 $293 forward 7 unknown #
point $-1 -58.999669489372863 -37.151656782093653 -7.5541437567179539 #
edge $-1 $207 -58.999669489372863 $261 -55.999669489372863 $258 $294 forward 7 unknown #
point $-1 -58.999669489372863 -37.151656782093653 7.5541437567179539 #
edge $-1 $273 89.581718653709444 $276 94.427031519029555 $212 $295 forward 7 unknown #
vertex $-1 $226 $296 #
straight-curve $-1 60.723005897860077 -12.628660288930162 7.5541437567179486 1 0 0 I I #
edge $-1 $276 -10.325453547825992 $223 5.7190400656176532 $222 $297 forward 7 unknown #
vertex $-1 $275 $298 #
straight-curve $-1 1.8787781357332278e-006 -12.628660288930162 124.15484080833986 -0.49999998660252726 0 0.86602541151947299 I I #
point $-1 67.319443304135646 -12.628660288930162 7.5541437567179486 #
point $-1 70.116885891293066 3.4158333245134838 2.7088308913978381 #
straight-curve $-1 70.116885891293066 0 7.5541437567179539 0 1 0 I I #
vertex $-1 $229 $299 #
point $-1 68.094448576700273 -8.0445192565176917 3.6166841962268985 #
vertex $-1 $233 $300 #
point $-1 68.094448576700273 -1.1683077078989896 3.6166841962268985 #
straight-curve $-1 -70.116885891293066 37.151656782093653 0 0 0 -1 I I #
point $-1 -70.116885891293066 -37.151656782093653 -7.5541437567179539 #
straight-curve $-1 -70.116885891293066 0 -7.5541437567179539 0 1 0 I I #
point $-1 -70.116885891293066 37.151656782093653 -7.5541437567179539 #
straight-curve $-1 -55.999669489372863 -17.309918549951526 7.5541437567179539 0 1 0 I I #
straight-curve $-1 -55.999669489372863 -17.309918549951526 -7.5541437567179539 0 -1 0 I I #
point $-1 -55.999669489372863 -37.151656782093653 -7.5541437567179539 #
point $-1 -55.999669489372863 -37.151656782093653 7.5541437567179539 #
straight-curve $-1 0 -37.151656782093653 -7.5541437567179539 -1 0 0 I I #
straight-curve $-1 0 -37.151656782093653 7.5541437567179539 1 0 0 I I #
straight-curve $-1 70.116885891293066 -12.628660288930162 97.135862410427393 0 0 -1 I I #
point $-1 70.116885891293066 -12.628660288930162 7.5541437567179539 #
straight-curve $-1 70.116885891293066 -2.3032067411041695 2.7088308913978452 0 1 0 I I #
point $-1 70.116885891293066 -12.628660288930162 2.7088308913978381 #
point $-1 66.728423178578268 -8.0445192565176917 3.9827096211438442 #
point $-1 66.728423178578268 -1.1683077078989896 3.9827096211438442 #
End-of-ACIS-data 