500 0 8 0           
7 Unknown 11 ACIS 5.0 NT 24 Fri Mar 26 15:00:34 1999 
-1 9.9999999999999995e-007 1e-010 
body $-1 $8 $-1 $9 #
body $-1 $10 $-1 $11 #
body $-1 $12 $-1 $13 #
body $-1 $14 $-1 $15 #
body $-1 $16 $-1 $17 #
body $-1 $18 $-1 $19 #
body $-1 $20 $-1 $21 #
body $-1 $22 $-1 $23 #
lump $-1 $-1 $24 $0 #
transform $-1 1 0 0 0 1 0 0 0 1 64.174321726126891 33.918950258200219 7.5154381745226981 1 rotate no_reflect no_shear #
lump $-1 $-1 $25 $1 #
transform $-1 1 0 0 0 1 0 0 0 1 64.174321726126891 33.918950258200219 7.5154381745226981 1 rotate no_reflect no_shear #
lump $-1 $-1 $26 $2 #
transform $-1 1 0 0 0 1 0 0 0 1 64.174321726126891 33.918950258200219 7.5154381745226981 1 rotate no_reflect no_shear #
lump $-1 $-1 $27 $3 #
transform $-1 1 0 0 0 1 0 0 0 1 64.174321726126891 33.918950258200219 7.5154381745226981 1 rotate no_reflect no_shear #
lump $-1 $-1 $28 $4 #
transform $-1 1 0 0 0 1 0 0 0 1 64.174321726126891 33.918950258200219 7.5154381745226981 1 rotate no_reflect no_shear #
lump $-1 $-1 $29 $5 #
transform $-1 1 0 0 0 1 0 0 0 1 64.174321726126891 33.918950258200219 7.5154381745226981 1 rotate no_reflect no_shear #
lump $-1 $-1 $30 $6 #
transform $-1 1 0 0 0 1 0 0 0 1 64.174321726126891 33.918950258200219 7.5154381745226981 1 rotate no_reflect no_shear #
lump $-1 $-1 $31 $7 #
transform $-1 1 0 0 0 1 0 0 0 1 64.174321726126891 33.918950258200219 7.5154381745226981 1 rotate no_reflect no_shear #
shell $-1 $-1 $-1 $32 $-1 $8 #
shell $-1 $-1 $-1 $33 $-1 $10 #
shell $-1 $-1 $-1 $34 $-1 $12 #
shell $-1 $-1 $-1 $35 $-1 $14 #
shell $-1 $-1 $-1 $36 $-1 $16 #
shell $-1 $-1 $-1 $37 $-1 $18 #
shell $-1 $-1 $-1 $38 $-1 $20 #
shell $-1 $-1 $-1 $39 $-1 $22 #
face $-1 $40 $41 $24 $-1 $42 forward single #
face $-1 $43 $44 $25 $-1 $45 forward single #
face $-1 $46 $47 $26 $-1 $48 reversed single #
face $-1 $49 $50 $27 $-1 $51 forward single #
face $-1 $52 $53 $28 $-1 $54 forward single #
face $-1 $55 $56 $29 $-1 $57 reversed single #
face $-1 $58 $59 $30 $-1 $60 forward single #
face $-1 $61 $62 $31 $-1 $63 forward single #
face $-1 $64 $65 $24 $-1 $66 reversed single #
loop $-1 $-1 $67 $32 #
plane-surface $-1 0 0 7.5154381745226981 0 0 1 1 0 0 forward_v I I I I #
face $-1 $68 $69 $25 $-1 $70 reversed single #
loop $-1 $-1 $71 $33 #
plane-surface $-1 0 -33.918950258200219 0 0 1 0 0 0 1 forward_v I I I I #
face $-1 $72 $73 $26 $-1 $74 reversed single #
loop $-1 $-1 $75 $34 #
plane-surface $-1 -50.684279645075428 95.596868711587973 135.61631815699408 1 0 0 0 -0.79863551827123203 -0.60181501223851219 forward_v I I I I #
face $-1 $76 $77 $27 $-1 $78 forward single #
loop $-1 $79 $80 $35 #
cone-surface $-1 -44.21321242380796 32.009059678502467 5.3590652761998294 0 -0.79863551827123203 -0.60181501223851219 0.5 0 0 1 I I 0 1 0.5 forward I I I I #
face $-1 $81 $82 $28 $-1 $83 forward single #
loop $-1 $84 $85 $36 #
cone-surface $-1 -34.506611591906754 32.009059678502467 5.3590652761998294 0 -0.79863551827123203 -0.60181501223851219 0.5 0 0 1 I I 0 1 0.5 forward I I I I #
face $-1 $86 $87 $29 $-1 $88 reversed single #
loop $-1 $-1 $89 $37 #
plane-surface $-1 13.490042081051456 95.596868711587973 135.61631815699408 1 0 0 0 -0.79863551827123203 -0.60181501223851219 forward_v I I I I #
face $-1 $90 $91 $30 $-1 $92 forward single #
loop $-1 $93 $94 $38 #
cone-surface $-1 19.961109302318931 32.009059678502467 5.3590652761998294 0 -0.79863551827123203 -0.60181501223851219 0.5 0 0 1 I I 0 1 0.5 forward I I I I #
face $-1 $95 $96 $31 $-1 $97 forward single #
loop $-1 $98 $99 $39 #
cone-surface $-1 29.66771013422013 32.009059678502467 5.3590652761998294 0 -0.79863551827123203 -0.60181501223851219 0.5 0 0 1 I I 0 1 0.5 forward I I I I #
face $-1 $100 $101 $24 $-1 $102 reversed single #
loop $-1 $-1 $103 $40 #
plane-surface $-1 0 0 -7.5154381745226981 0 0 1 1 0 0 forward_v I I I I #
coedge $-1 $104 $105 $106 $107 forward $41 $-1 #
face $-1 $108 $109 $25 $-1 $110 forward single #
loop $-1 $-1 $111 $43 #
plane-surface $-1 -64.174321726126891 0 0 1 0 0 0 0 -1 forward_v I I I I #
coedge $-1 $112 $113 $114 $115 forward $44 $-1 #
face $-1 $116 $117 $26 $-1 $118 reversed single #
loop $-1 $-1 $119 $46 #
plane-surface $-1 -39.359912007857353 -6.9069166713123025 58.374177726979539 0 0.79863551827123203 0.60181501223851219 1 0 0 forward_v I I I I #
coedge $-1 $120 $121 $122 $123 reversed $47 $-1 #
face $-1 $-1 $124 $27 $-1 $125 forward single #
loop $-1 $126 $127 $49 #
cone-surface $-1 -44.21321242380796 31.150039642377386 4.7117472672627816 0 -0.79863551827123203 -0.60181501223851219 0.25 0 0 1 I I -0.70710678118654746 0.70710678118654746 0.25 forward I I I I #
loop $-1 $-1 $128 $35 #
coedge $-1 $80 $80 $129 $130 reversed $50 $-1 #
face $-1 $-1 $131 $28 $-1 $132 forward single #
loop $-1 $133 $134 $52 #
cone-surface $-1 -34.506611591906754 31.150039642377386 4.7117472672627816 0 -0.79863551827123203 -0.60181501223851219 0.25 0 0 1 I I -0.70710678118654746 0.70710678118654746 0.25 forward I I I I #
loop $-1 $-1 $135 $36 #
coedge $-1 $85 $85 $136 $137 reversed $53 $-1 #
face $-1 $138 $139 $29 $-1 $140 reversed single #
loop $-1 $-1 $141 $55 #
plane-surface $-1 24.81440971826953 -6.9069166713123025 58.374177726979539 0 0.79863551827123203 0.60181501223851219 1 0 0 forward_v I I I I #
coedge $-1 $142 $143 $144 $145 reversed $56 $-1 #
face $-1 $-1 $146 $30 $-1 $147 forward single #
loop $-1 $148 $149 $58 #
cone-surface $-1 19.961109302318931 31.150039642377386 4.7117472672627816 0 -0.79863551827123203 -0.60181501223851219 0.25 0 0 1 I I -0.70710678118654746 0.70710678118654746 0.25 forward I I I I #
loop $-1 $-1 $150 $38 #
coedge $-1 $94 $94 $151 $152 reversed $59 $-1 #
face $-1 $-1 $153 $31 $-1 $154 forward single #
loop $-1 $155 $156 $61 #
cone-surface $-1 29.66771013422013 31.150039642377386 4.7117472672627816 0 -0.79863551827123203 -0.60181501223851219 0.25 0 0 1 I I -0.70710678118654746 0.70710678118654746 0.25 forward I I I I #
loop $-1 $-1 $157 $39 #
coedge $-1 $99 $99 $158 $159 reversed $62 $-1 #
face $-1 $160 $161 $24 $-1 $162 reversed single #
loop $-1 $-1 $163 $64 #
plane-surface $-1 0 -33.918950258200219 0 0 1 0 0 0 1 forward_v I I I I #
coedge $-1 $164 $165 $166 $167 forward $65 $-1 #
coedge $-1 $168 $67 $169 $170 forward $41 $-1 #
coedge $-1 $67 $168 $171 $172 forward $41 $-1 #
coedge $-1 $173 $174 $67 $107 reversed $175 $-1 #
edge $-1 $176 -33.918950258200219 $177 33.918950258200219 $106 $178 forward 7 unknown #
face $-1 $179 $180 $25 $-1 $181 reversed single #
loop $-1 $-1 $182 $68 #
plane-surface $-1 0 -37.317225573081281 2.9034749654510215 0 0 1 1 0 0 forward_v I I I I #
coedge $-1 $183 $184 $113 $185 forward $69 $-1 #
coedge $-1 $186 $71 $187 $188 reversed $44 $-1 #
coedge $-1 $71 $186 $111 $185 reversed $44 $-1 #
coedge $-1 $189 $182 $71 $115 reversed $109 $-1 #
edge $-1 $190 -64.174321726126891 $191 64.174321726126891 $114 $192 forward 7 unknown #
face $-1 $193 $194 $26 $-1 $195 forward single #
loop $-1 $-1 $196 $72 #
plane-surface $-1 -28.035544370639279 95.596868711587973 135.61631815699408 -1 0 0 0 0.79863551827123203 0.60181501223851219 forward_v I I I I #
coedge $-1 $197 $198 $199 $200 reversed $73 $-1 #
coedge $-1 $121 $75 $201 $202 reversed $47 $-1 #
coedge $-1 $75 $120 $197 $203 reversed $47 $-1 #
coedge $-1 $199 $204 $75 $123 forward $194 $-1 #
edge $-1 $205 13.879484097593767 $206 16.380542943874758 $122 $207 forward 7 unknown #
loop $-1 $-1 $129 $76 #
plane-surface $-1 -39.359912007857353 -6.9069166713123025 58.374177726979539 0 0.79863551827123203 0.60181501223851219 1 0 0 forward_v I I I I #
loop $-1 $-1 $208 $49 #
coedge $-1 $127 $127 $128 $209 reversed $77 $-1 #
coedge $-1 $128 $128 $127 $209 forward $79 $-1 #
coedge $-1 $129 $129 $80 $130 forward $124 $-1 #
edge $-1 $210 -1.33799023719984e-015 $210 6.2831853071795987 $129 $211 forward 7 unknown #
loop $-1 $-1 $136 $81 #
plane-surface $-1 -39.359912007857353 -6.9069166713123025 58.374177726979539 0 0.79863551827123203 0.60181501223851219 1 0 0 forward_v I I I I #
loop $-1 $-1 $212 $52 #
coedge $-1 $134 $134 $135 $213 reversed $82 $-1 #
coedge $-1 $135 $135 $134 $213 forward $84 $-1 #
coedge $-1 $136 $136 $85 $137 forward $131 $-1 #
edge $-1 $214 -1.33799023719984e-015 $214 6.2831853071795987 $136 $215 forward 7 unknown #
face $-1 $216 $217 $29 $-1 $218 forward single #
loop $-1 $-1 $219 $86 #
plane-surface $-1 36.138777355487605 95.596868711587973 135.61631815699408 -1 0 0 0 0.79863551827123203 0.60181501223851219 forward_v I I I I #
coedge $-1 $220 $221 $222 $223 reversed $87 $-1 #
coedge $-1 $143 $89 $224 $225 reversed $56 $-1 #
coedge $-1 $89 $142 $220 $226 reversed $56 $-1 #
coedge $-1 $222 $227 $89 $145 forward $217 $-1 #
edge $-1 $228 13.879484097593767 $229 16.380542943874758 $144 $230 forward 7 unknown #
loop $-1 $-1 $151 $90 #
plane-surface $-1 24.81440971826953 -6.9069166713123025 58.374177726979539 0 0.79863551827123203 0.60181501223851219 1 0 0 forward_v I I I I #
loop $-1 $-1 $231 $58 #
coedge $-1 $149 $149 $150 $232 reversed $91 $-1 #
coedge $-1 $150 $150 $149 $232 forward $93 $-1 #
coedge $-1 $151 $151 $94 $152 forward $146 $-1 #
edge $-1 $233 -1.33799023719984e-015 $233 6.2831853071795987 $151 $234 forward 7 unknown #
loop $-1 $-1 $158 $95 #
plane-surface $-1 24.81440971826953 -6.9069166713123025 58.374177726979539 0 0.79863551827123203 0.60181501223851219 1 0 0 forward_v I I I I #
loop $-1 $-1 $235 $61 #
coedge $-1 $156 $156 $157 $236 reversed $96 $-1 #
coedge $-1 $157 $157 $156 $236 forward $98 $-1 #
coedge $-1 $158 $158 $99 $159 forward $153 $-1 #
edge $-1 $237 -1.33799023719984e-015 $237 6.2831853071795987 $158 $238 forward 7 unknown #
face $-1 $239 $240 $24 $-1 $241 reversed single #
loop $-1 $-1 $242 $100 #
plane-surface $-1 -64.174321726126891 0 0 1 0 0 0 0 -1 forward_v I I I I #
coedge $-1 $243 $171 $244 $245 forward $101 $-1 #
coedge $-1 $246 $103 $243 $247 forward $65 $-1 #
coedge $-1 $103 $246 $248 $249 forward $65 $-1 #
coedge $-1 $174 $173 $103 $167 reversed $175 $-1 #
edge $-1 $250 -33.918950258200219 $251 33.918950258200219 $166 $252 forward 7 unknown #
coedge $-1 $105 $104 $253 $254 forward $41 $-1 #
coedge $-1 $255 $256 $104 $170 reversed $240 $-1 #
edge $-1 $177 -64.174321726126891 $257 64.174321726126891 $169 $258 forward 7 unknown #
coedge $-1 $163 $259 $105 $172 reversed $101 $-1 #
edge $-1 $260 -64.174321726126891 $176 64.174321726126891 $171 $261 forward 7 unknown #
coedge $-1 $166 $106 $259 $262 forward $175 $-1 #
coedge $-1 $106 $166 $255 $263 reversed $175 $-1 #
loop $-1 $-1 $173 $239 #
vertex $-1 $107 $264 #
vertex $-1 $107 $265 #
straight-curve $-1 64.174321726126891 0 7.5154381745226981 0 1 0 I I #
face $-1 $266 $267 $25 $-1 $268 reversed single #
loop $-1 $-1 $269 $108 #
plane-surface $-1 0 -37.317225573081281 -0.71779787497590419 0 0 1 1 0 0 forward_v I I I I #
coedge $-1 $114 $270 $271 $272 forward $109 $-1 #
coedge $-1 $273 $111 $274 $275 reversed $69 $-1 #
coedge $-1 $111 $273 $189 $276 reversed $69 $-1 #
edge $-1 $190 -2.9034749654510215 $277 0.71779787497590419 $111 $278 forward 7 unknown #
coedge $-1 $113 $112 $279 $280 forward $44 $-1 #
coedge $-1 $271 $281 $112 $188 forward $282 $-1 #
edge $-1 $283 -0.71779787497590419 $191 2.9034749654510215 $187 $284 forward 7 unknown #
coedge $-1 $270 $114 $184 $276 forward $109 $-1 #
vertex $-1 $185 $285 #
vertex $-1 $272 $286 #
straight-curve $-1 0 -33.918950258200219 2.9034749654510215 1 0 0 I I #
face $-1 $-1 $287 $26 $-1 $288 reversed single #
loop $-1 $-1 $122 $116 #
plane-surface $-1 0 0 7.5154381745226981 0 0 1 1 0 0 forward_v I I I I #
coedge $-1 $289 $290 $291 $292 reversed $117 $-1 #
coedge $-1 $293 $119 $121 $203 forward $73 $-1 #
coedge $-1 $119 $293 $289 $294 forward $73 $-1 #
coedge $-1 $291 $122 $119 $200 forward $194 $-1 #
edge $-1 $206 -31.004323641146751 $295 -8.3555883667106023 $199 $296 forward 7 unknown #
coedge $-1 $297 $298 $120 $202 forward $287 $-1 #
edge $-1 $299 -63.611738188865267 $205 -60.292720903974342 $201 $300 forward 7 unknown #
edge $-1 $206 63.682040666746587 $299 67.837900516400467 $121 $301 forward 7 unknown #
coedge $-1 $122 $291 $297 $302 forward $194 $-1 #
vertex $-1 $202 $303 #
vertex $-1 $123 $304 #
straight-curve $-1 -50.684279645075428 47.798434355793987 7.5154381745226999 0 -1 0 I I #
coedge $-1 $208 $208 $-1 $305 reversed $126 $-1 #
edge $-1 $306 0 $306 6.2831853071796004 $127 $307 forward 7 unknown #
vertex $-1 $130 $308 #
ellipse-curve $-1 -44.21321242380796 32.66842083505972 5.8559295320772371 0 0.79863551827123203 0.60181501223851219 0.5 0 0 1 I I #
coedge $-1 $212 $212 $-1 $309 reversed $133 $-1 #
edge $-1 $310 0 $310 6.2831853071796004 $134 $311 forward 7 unknown #
vertex $-1 $137 $312 #
ellipse-curve $-1 -34.506611591906754 32.66842083505972 5.8559295320772371 0 0.79863551827123203 0.60181501223851219 0.5 0 0 1 I I #
face $-1 $-1 $313 $29 $-1 $314 reversed single #
loop $-1 $-1 $144 $138 #
plane-surface $-1 0 0 7.5154381745226981 0 0 1 1 0 0 forward_v I I I I #
coedge $-1 $315 $316 $317 $318 reversed $139 $-1 #
coedge $-1 $319 $141 $143 $226 forward $87 $-1 #
coedge $-1 $141 $319 $315 $320 forward $87 $-1 #
coedge $-1 $317 $144 $141 $223 forward $217 $-1 #
edge $-1 $229 1.0828372219166909 $321 23.73157249635284 $222 $322 forward 7 unknown #
coedge $-1 $323 $324 $142 $225 forward $313 $-1 #
edge $-1 $325 -63.611738188865267 $228 -60.292720903974342 $224 $326 forward 7 unknown #
edge $-1 $229 63.682040666746587 $325 67.837900516400467 $143 $327 forward 7 unknown #
coedge $-1 $144 $317 $323 $328 forward $217 $-1 #
vertex $-1 $145 $329 #
vertex $-1 $145 $330 #
straight-curve $-1 13.490042081051456 47.798434355793987 7.5154381745226999 0 -1 0 I I #
coedge $-1 $231 $231 $-1 $331 reversed $148 $-1 #
edge $-1 $332 0 $332 6.2831853071796004 $149 $333 forward 7 unknown #
vertex $-1 $152 $334 #
ellipse-curve $-1 19.961109302318931 32.66842083505972 5.8559295320772371 0 0.79863551827123203 0.60181501223851219 0.5 0 0 1 I I #
coedge $-1 $235 $235 $-1 $335 reversed $155 $-1 #
edge $-1 $336 0 $336 6.2831853071796004 $156 $337 forward 7 unknown #
vertex $-1 $159 $338 #
ellipse-curve $-1 29.66771013422013 32.66842083505972 5.8559295320772371 0 0.79863551827123203 0.60181501223851219 0.5 0 0 1 I I #
face $-1 $-1 $175 $24 $-1 $339 reversed single #
loop $-1 $-1 $255 $160 #
plane-surface $-1 0 33.918950258200219 0 0 -1 0 0 0 -1 forward_v I I I I #
coedge $-1 $340 $253 $256 $341 forward $161 $-1 #
coedge $-1 $259 $163 $164 $247 reversed $101 $-1 #
coedge $-1 $253 $340 $163 $245 reversed $161 $-1 #
edge $-1 $260 -7.5154381745226981 $342 7.5154381745226981 $244 $343 forward 7 unknown #
coedge $-1 $165 $164 $340 $344 forward $65 $-1 #
edge $-1 $251 -64.174321726126891 $342 64.174321726126891 $243 $345 forward 7 unknown #
coedge $-1 $256 $255 $165 $249 reversed $240 $-1 #
edge $-1 $346 -64.174321726126891 $250 64.174321726126891 $248 $347 forward 7 unknown #
vertex $-1 $167 $348 #
vertex $-1 $262 $349 #
straight-curve $-1 64.174321726126891 0 -7.5154381745226981 0 -1 0 I I #
coedge $-1 $242 $244 $168 $254 reversed $161 $-1 #
edge $-1 $257 -33.918950258200219 $260 33.918950258200219 $253 $350 forward 7 unknown #
coedge $-1 $248 $169 $174 $263 forward $240 $-1 #
coedge $-1 $169 $248 $242 $341 reversed $240 $-1 #
vertex $-1 $170 $351 #
straight-curve $-1 0 33.918950258200219 7.5154381745226981 -1 0 0 I I #
coedge $-1 $171 $243 $173 $262 reversed $101 $-1 #
vertex $-1 $254 $352 #
straight-curve $-1 0 -33.918950258200219 7.5154381745226981 1 0 0 I I #
edge $-1 $176 -7.5154381745226981 $251 7.5154381745226981 $173 $353 forward 7 unknown #
edge $-1 $177 -7.5154381745226981 $250 7.5154381745226981 $174 $354 forward 7 unknown #
point $-1 64.174321726126891 -33.918950258200219 7.5154381745226981 #
point $-1 64.174321726126891 33.918950258200219 7.5154381745226981 #
face $-1 $-1 $282 $25 $-1 $355 reversed single #
loop $-1 $-1 $356 $179 #
plane-surface $-1 0 -40.715500887962342 1.0928385452375586 0 1 0 0 0 1 forward_v I I I I #
coedge $-1 $357 $279 $281 $358 forward $180 $-1 #
coedge $-1 $182 $189 $359 $360 forward $109 $-1 #
coedge $-1 $361 $187 $182 $272 reversed $282 $-1 #
edge $-1 $362 -3.3982753148810616 $191 3.3982753148810616 $271 $363 forward 7 unknown #
coedge $-1 $184 $183 $356 $364 reversed $69 $-1 #
coedge $-1 $279 $357 $183 $275 forward $180 $-1 #
edge $-1 $365 -3.3982753148810616 $277 3.3982753148810616 $183 $366 forward 7 unknown #
edge $-1 $190 -3.3982753148810616 $367 3.3982753148810616 $184 $368 forward 7 unknown #
vertex $-1 $185 $369 #
straight-curve $-1 -64.174321726126891 -33.918950258200219 0 0 0 -1 I I #
coedge $-1 $269 $274 $186 $280 reversed $180 $-1 #
edge $-1 $283 -64.174321726126891 $277 64.174321726126891 $279 $370 forward 7 unknown #
coedge $-1 $187 $361 $269 $358 reversed $282 $-1 #
loop $-1 $-1 $187 $266 #
vertex $-1 $188 $371 #
straight-curve $-1 64.174321726126891 -33.918950258200219 0 0 0 1 I I #
point $-1 -64.174321726126891 -33.918950258200219 2.9034749654510215 #
point $-1 64.174321726126891 -33.918950258200219 2.9034749654510215 #
loop $-1 $-1 $201 $193 #
plane-surface $-1 0 33.918950258200219 0 0 -1 0 0 0 -1 forward_v I I I I #
coedge $-1 $290 $196 $198 $294 reversed $117 $-1 #
coedge $-1 $196 $289 $372 $373 reversed $117 $-1 #
coedge $-1 $204 $199 $196 $292 forward $194 $-1 #
edge $-1 $295 -16.380542943874758 $374 -13.879484097593767 $291 $375 forward 7 unknown #
coedge $-1 $198 $197 $298 $376 reversed $73 $-1 #
edge $-1 $377 -67.837900516400467 $295 -63.682040666746587 $289 $378 forward 7 unknown #
vertex $-1 $200 $379 #
straight-curve $-1 -19.679956003928677 31.417891411919221 7.515438174522707 1 0 0 I I #
coedge $-1 $372 $201 $204 $302 reversed $287 $-1 #
coedge $-1 $201 $372 $293 $376 forward $287 $-1 #
vertex $-1 $202 $380 #
straight-curve $-1 -50.684279645075428 33.918950258200219 67.808159078497042 0 0 1 I I #
straight-curve $-1 -50.684279645075428 -6.9069166713123025 58.374177726979539 0 0.60181501223851219 -0.79863551827123203 I I #
edge $-1 $374 28.035544370639279 $205 50.684279645075428 $297 $381 forward 7 unknown #
point $-1 -50.684279645075428 33.918950258200219 7.5154381745226981 #
point $-1 -50.684279645075428 31.417891411919229 7.5154381745226999 #
edge $-1 $382 1 $382 0 $208 $-1 forward 7 unknown #
vertex $-1 $209 $383 #
ellipse-curve $-1 -44.21321242380796 31.349698521945193 4.8622010203224093 0 0.79863551827123203 0.60181501223851219 0.5 0 0 1 I I #
point $-1 -43.71321242380796 32.668420835059734 5.8559295320772486 #
edge $-1 $384 1 $384 0 $212 $-1 forward 7 unknown #
vertex $-1 $213 $385 #
ellipse-curve $-1 -34.506611591906754 31.349698521945193 4.8622010203224093 0 0.79863551827123203 0.60181501223851219 0.5 0 0 1 I I #
point $-1 -34.006611591906754 32.668420835059734 5.8559295320772486 #
loop $-1 $-1 $224 $216 #
plane-surface $-1 0 33.918950258200219 0 0 -1 0 0 0 -1 forward_v I I I I #
coedge $-1 $316 $219 $221 $320 reversed $139 $-1 #
coedge $-1 $219 $315 $386 $387 reversed $139 $-1 #
coedge $-1 $227 $222 $219 $318 forward $217 $-1 #
edge $-1 $321 -16.380542943874758 $388 -13.879484097593767 $317 $389 forward 7 unknown #
coedge $-1 $221 $220 $324 $390 reversed $87 $-1 #
edge $-1 $391 -67.837900516400467 $321 -63.682040666746587 $315 $392 forward 7 unknown #
vertex $-1 $223 $393 #
straight-curve $-1 12.407204859134765 31.417891411919221 7.515438174522707 1 0 0 I I #
coedge $-1 $386 $224 $227 $328 reversed $313 $-1 #
coedge $-1 $224 $386 $319 $390 forward $313 $-1 #
vertex $-1 $225 $394 #
straight-curve $-1 13.490042081051456 33.918950258200219 67.808159078497042 0 0 1 I I #
straight-curve $-1 13.490042081051456 -6.9069166713123025 58.374177726979539 0 0.60181501223851219 -0.79863551827123203 I I #
edge $-1 $388 -36.138777355487605 $228 -13.490042081051456 $323 $395 forward 7 unknown #
point $-1 13.490042081051456 33.918950258200219 7.5154381745226981 #
point $-1 13.490042081051456 31.417891411919229 7.5154381745226999 #
edge $-1 $396 1 $396 0 $231 $-1 forward 7 unknown #
vertex $-1 $232 $397 #
ellipse-curve $-1 19.961109302318931 31.349698521945193 4.8622010203224093 0 0.79863551827123203 0.60181501223851219 0.5 0 0 1 I I #
point $-1 20.461109302318931 32.668420835059734 5.8559295320772486 #
edge $-1 $398 1 $398 0 $235 $-1 forward 7 unknown #
vertex $-1 $236 $399 #
ellipse-curve $-1 29.66771013422013 31.349698521945193 4.8622010203224093 0 0.79863551827123203 0.60181501223851219 0.5 0 0 1 I I #
point $-1 30.16771013422013 32.668420835059734 5.8559295320772486 #
plane-surface $-1 64.174321726126891 0 0 -1 0 0 0 0 1 forward_v I I I I #
coedge $-1 $244 $242 $246 $344 reversed $161 $-1 #
edge $-1 $257 -7.5154381745226981 $346 7.5154381745226981 $256 $400 forward 7 unknown #
vertex $-1 $344 $401 #
straight-curve $-1 -64.174321726126891 -33.918950258200219 0 0 0 -1 I I #
edge $-1 $342 -33.918950258200219 $346 33.918950258200219 $340 $402 forward 7 unknown #
straight-curve $-1 0 -33.918950258200219 -7.5154381745226981 -1 0 0 I I #
vertex $-1 $249 $403 #
straight-curve $-1 0 33.918950258200219 -7.5154381745226981 1 0 0 I I #
point $-1 64.174321726126891 33.918950258200219 -7.5154381745226981 #
point $-1 64.174321726126891 -33.918950258200219 -7.5154381745226981 #
straight-curve $-1 -64.174321726126891 0 7.5154381745226981 0 -1 0 I I #
point $-1 -64.174321726126891 33.918950258200219 7.5154381745226981 #
point $-1 -64.174321726126891 -33.918950258200219 7.5154381745226981 #
straight-curve $-1 64.174321726126891 -33.918950258200219 0 0 0 -1 I I #
straight-curve $-1 64.174321726126891 33.918950258200219 0 0 0 -1 I I #
plane-surface $-1 64.174321726126891 0 0 -1 0 0 0 0 1 forward_v I I I I #
coedge $-1 $404 $359 $273 $364 forward $267 $-1 #
coedge $-1 $274 $269 $404 $405 forward $180 $-1 #
edge $-1 $283 -3.3982753148810616 $406 3.3982753148810616 $281 $407 forward 7 unknown #
coedge $-1 $356 $408 $270 $360 reversed $267 $-1 #
edge $-1 $367 -64.174321726126891 $362 64.174321726126891 $359 $409 forward 7 unknown #
coedge $-1 $281 $271 $408 $410 forward $282 $-1 #
vertex $-1 $272 $411 #
straight-curve $-1 64.174321726126891 -37.317225573081281 2.9034749654510215 0 1 0 I I #
edge $-1 $367 -1.8106364202134628 $365 1.8106364202134628 $273 $412 forward 7 unknown #
vertex $-1 $275 $413 #
straight-curve $-1 -64.174321726126891 -37.317225573081281 -0.71779787497590419 0 1 0 I I #
vertex $-1 $276 $414 #
straight-curve $-1 -64.174321726126891 -37.317225573081281 2.9034749654510215 0 -1 0 I I #
point $-1 -64.174321726126891 -33.918950258200219 -0.71779787497590419 #
straight-curve $-1 0 -33.918950258200219 -0.71779787497590419 -1 0 0 I I #
point $-1 64.174321726126891 -33.918950258200219 -0.71779787497590419 #
coedge $-1 $298 $297 $290 $373 forward $287 $-1 #
edge $-1 $374 60.292720903974342 $377 63.611738188865267 $372 $415 forward 7 unknown #
vertex $-1 $302 $416 #
straight-curve $-1 -28.035544370639279 47.798434355793987 7.5154381745226999 0 1 0 I I #
edge $-1 $377 8.3555883667106023 $299 31.004323641146751 $298 $417 forward 7 unknown #
vertex $-1 $376 $418 #
straight-curve $-1 -28.035544370639279 -6.9069166713123025 58.374177726979539 0 -0.60181501223851219 0.79863551827123203 I I #
point $-1 -28.035544370639279 31.417891411919229 7.5154381745226999 #
point $-1 -50.684279645075428 33.918950258200219 4.1964208896317743 #
straight-curve $-1 0 33.918950258200219 7.5154381745226981 -1 0 0 I I #
vertex $-1 $305 $419 #
point $-1 -43.71321242380796 31.349698521945193 4.8622010203224093 #
vertex $-1 $309 $420 #
point $-1 -34.006611591906754 31.349698521945193 4.8622010203224093 #
coedge $-1 $324 $323 $316 $387 forward $313 $-1 #
edge $-1 $388 60.292720903974342 $391 63.611738188865267 $386 $421 forward 7 unknown #
vertex $-1 $328 $422 #
straight-curve $-1 36.138777355487605 47.798434355793987 7.5154381745226999 0 1 0 I I #
edge $-1 $391 -23.73157249635284 $325 -1.0828372219166909 $324 $423 forward 7 unknown #
vertex $-1 $390 $424 #
straight-curve $-1 36.138777355487605 -6.9069166713123025 58.374177726979539 0 -0.60181501223851219 0.79863551827123203 I I #
point $-1 36.138777355487605 31.417891411919229 7.5154381745226999 #
point $-1 13.490042081051456 33.918950258200219 4.1964208896317743 #
straight-curve $-1 0 33.918950258200219 7.5154381745226981 -1 0 0 I I #
vertex $-1 $331 $425 #
point $-1 20.461109302318931 31.349698521945193 4.8622010203224093 #
vertex $-1 $335 $426 #
point $-1 30.16771013422013 31.349698521945193 4.8622010203224093 #
straight-curve $-1 -64.174321726126891 33.918950258200219 0 0 0 -1 I I #
point $-1 -64.174321726126891 -33.918950258200219 -7.5154381745226981 #
straight-curve $-1 -64.174321726126891 0 -7.5154381745226981 0 1 0 I I #
point $-1 -64.174321726126891 33.918950258200219 -7.5154381745226981 #
coedge $-1 $408 $356 $357 $405 reversed $267 $-1 #
edge $-1 $406 -64.174321726126891 $365 64.174321726126891 $404 $427 forward 7 unknown #
vertex $-1 $410 $428 #
straight-curve $-1 64.174321726126891 -37.317225573081281 -0.71779787497590419 0 -1 0 I I #
coedge $-1 $359 $404 $361 $410 reversed $267 $-1 #
straight-curve $-1 0 -40.715500887962342 2.9034749654510215 1 0 0 I I #
edge $-1 $362 -1.8106364202134628 $406 1.8106364202134628 $361 $429 forward 7 unknown #
point $-1 64.174321726126891 -40.715500887962342 2.9034749654510215 #
straight-curve $-1 -64.174321726126891 -40.715500887962342 1.0928385452375586 0 0 -1 I I #
point $-1 -64.174321726126891 -40.715500887962342 -0.71779787497590419 #
point $-1 -64.174321726126891 -40.715500887962342 2.9034749654510215 #
straight-curve $-1 -28.035544370639279 33.918950258200219 67.808159078497042 0 0 -1 I I #
point $-1 -28.035544370639279 33.918950258200219 7.5154381745226981 #
straight-curve $-1 -19.679956003928677 33.918950258200212 4.1964208896317778 -1 0 0 I I #
point $-1 -28.035544370639279 33.918950258200219 4.1964208896317743 #
point $-1 -44.21321242380796 30.95038076280958 4.5612935142031539 #
point $-1 -34.506611591906754 30.95038076280958 4.5612935142031539 #
straight-curve $-1 36.138777355487605 33.918950258200219 67.808159078497042 0 0 -1 I I #
point $-1 36.138777355487605 33.918950258200219 7.5154381745226981 #
straight-curve $-1 12.407204859134765 33.918950258200212 4.1964208896317778 -1 0 0 I I #
point $-1 36.138777355487605 33.918950258200219 4.1964208896317743 #
point $-1 19.961109302318931 30.95038076280958 4.5612935142031539 #
point $-1 29.66771013422013 30.95038076280958 4.5612935142031539 #
straight-curve $-1 0 -40.715500887962342 -0.71779787497590419 -1 0 0 I I #
point $-1 64.174321726126891 -40.715500887962342 -0.71779787497590419 #
straight-curve $-1 64.174321726126891 -40.715500887962342 1.0928385452375586 0 0 -1 I I #
End-of-ACIS-data 