500 0 8 0           
7 Unknown 11 ACIS 5.0 NT 24 Fri Mar 26 03:24:33 1999 
-1 9.9999999999999995e-007 1e-010 
body $-1 $8 $-1 $9 #
body $-1 $10 $-1 $11 #
body $-1 $12 $-1 $13 #
body $-1 $14 $-1 $15 #
body $-1 $16 $-1 $17 #
body $-1 $18 $-1 $19 #
body $-1 $20 $-1 $21 #
body $-1 $22 $-1 $23 #
lump $-1 $-1 $24 $0 #
transform $-1 1 0 0 0 1 0 0 0 1 70.104678487502667 41.758785521620098 18.305964750805856 1 rotate no_reflect no_shear #
lump $-1 $-1 $25 $1 #
transform $-1 1 0 0 0 1 0 0 0 1 70.104678487502667 41.758785521620098 18.305964750805856 1 rotate no_reflect no_shear #
lump $-1 $-1 $26 $2 #
transform $-1 1 0 0 0 1 0 0 0 1 70.104678487502667 41.758785521620098 18.305964750805856 1 rotate no_reflect no_shear #
lump $-1 $-1 $27 $3 #
transform $-1 1 0 0 0 1 0 0 0 1 70.104678487502667 41.758785521620098 18.305964750805856 1 rotate no_reflect no_shear #
lump $-1 $-1 $28 $4 #
transform $-1 1 0 0 0 1 0 0 0 1 70.104678487502667 41.758785521620098 18.305964750805856 1 rotate no_reflect no_shear #
lump $-1 $-1 $29 $5 #
transform $-1 1 0 0 0 1 0 0 0 1 70.104678487502667 41.758785521620098 18.305964750805856 1 rotate no_reflect no_shear #
lump $-1 $-1 $30 $6 #
transform $-1 1 0 0 0 1 0 0 0 1 70.104678487502667 41.758785521620098 18.305964750805856 1 rotate no_reflect no_shear #
lump $-1 $-1 $31 $7 #
transform $-1 1 0 0 0 1 0 0 0 1 70.104678487502667 41.758785521620098 18.305964750805856 1 rotate no_reflect no_shear #
shell $-1 $-1 $-1 $32 $-1 $8 #
shell $-1 $-1 $-1 $33 $-1 $10 #
shell $-1 $-1 $-1 $34 $-1 $12 #
shell $-1 $-1 $-1 $35 $-1 $14 #
shell $-1 $-1 $-1 $36 $-1 $16 #
shell $-1 $-1 $-1 $37 $-1 $18 #
shell $-1 $-1 $-1 $38 $-1 $20 #
shell $-1 $-1 $-1 $39 $-1 $22 #
face $-1 $40 $41 $24 $-1 $42 forward single #
face $-1 $43 $44 $25 $-1 $45 forward single #
face $-1 $46 $47 $26 $-1 $48 reversed single #
face $-1 $49 $50 $27 $-1 $51 forward single #
face $-1 $52 $53 $28 $-1 $54 forward single #
face $-1 $55 $56 $29 $-1 $57 reversed single #
face $-1 $58 $59 $30 $-1 $60 forward single #
face $-1 $61 $62 $31 $-1 $63 forward single #
face $-1 $64 $65 $24 $-1 $66 reversed single #
loop $-1 $-1 $67 $32 #
plane-surface $-1 0 0 18.305964750805856 0 0 1 1 0 0 forward_v I I I I #
face $-1 $68 $69 $25 $-1 $70 reversed single #
loop $-1 $-1 $71 $33 #
plane-surface $-1 -70.104678487502667 0 0 1 0 0 0 0 -1 forward_v I I I I #
face $-1 $72 $73 $26 $-1 $74 reversed single #
loop $-1 $-1 $75 $34 #
plane-surface $-1 48.539472447300554 -161.94166267158778 81.164484630518189 -1 0 0 0 -0.85716730853699208 0.51503806187062418 forward_v I I I I #
face $-1 $76 $77 $27 $-1 $78 forward single #
loop $-1 $79 $80 $35 #
cone-surface $-1 31.014781251933954 -35.173427431543018 11.360432973309539 0 0.85716730853699208 -0.51503806187062418 2.5 0 0 1 I I 0 1 2.5 forward I I I I #
face $-1 $81 $82 $28 $-1 $83 forward single #
loop $-1 $84 $85 $36 #
cone-surface $-1 41.529595969153917 -35.173427431543018 11.360432973309539 0 0.85716730853699208 -0.51503806187062418 2.5 0 0 1 I I 0 1 2.5 forward I I I I #
face $-1 $86 $87 $29 $-1 $88 reversed single #
loop $-1 $-1 $89 $37 #
plane-surface $-1 33.701498165615142 121.42486719208406 154.16274598861105 1 0 0 0 -0.86602541151947299 -0.49999998660252726 forward_v I I I I #
face $-1 $90 $91 $30 $-1 $92 forward single #
loop $-1 $93 $94 $38 #
cone-surface $-1 44.102406829011585 37.858649745260955 13.862142244888721 0 -0.86602541151947299 -0.49999998660252726 1.5 0 0 1 I I 0 1 1.5 forward I I I I #
face $-1 $95 $96 $31 $-1 $97 forward single #
loop $-1 $98 $99 $39 #
cone-surface $-1 59.703769824106246 37.858649745260955 13.862142244888721 0 -0.86602541151947299 -0.49999998660252726 1.5 0 0 1 I I 0 1 1.5 forward I I I I #
face $-1 $100 $101 $24 $-1 $102 reversed single #
loop $-1 $-1 $103 $40 #
plane-surface $-1 0 0 -18.305964750805856 0 0 1 1 0 0 forward_v I I I I #
coedge $-1 $104 $105 $106 $107 forward $41 $-1 #
face $-1 $108 $109 $25 $-1 $110 reversed single #
loop $-1 $-1 $111 $43 #
plane-surface $-1 0 0 -18.305964750805856 0 0 1 1 0 0 forward_v I I I I #
coedge $-1 $112 $113 $114 $115 forward $44 $-1 #
face $-1 $116 $117 $26 $-1 $118 reversed single #
loop $-1 $-1 $119 $46 #
plane-surface $-1 36.272188610543935 -41.758785521620112 8.9513291579849579 0 -0.85716730853699208 0.51503806187062418 1 0 0 forward_v I I I I #
coedge $-1 $120 $121 $122 $123 reversed $47 $-1 #
face $-1 $-1 $124 $27 $-1 $125 forward single #
loop $-1 $126 $127 $49 #
cone-surface $-1 31.014781251933954 -30.327026175493636 8.4484214148853987 0 0.85716730853699208 -0.51503806187062418 1.25 0 0 1 I I -0.70710678118654724 0.70710678118654768 1.25 forward I I I I #
loop $-1 $-1 $128 $35 #
coedge $-1 $80 $80 $129 $130 reversed $50 $-1 #
face $-1 $-1 $131 $28 $-1 $132 forward single #
loop $-1 $133 $134 $52 #
cone-surface $-1 41.529595969153917 -30.327026175493636 8.4484214148853987 0 0.85716730853699208 -0.51503806187062418 1.25 0 0 1 I I -0.70710678118654724 0.70710678118654768 1.25 forward I I I I #
loop $-1 $-1 $135 $36 #
coedge $-1 $85 $85 $136 $137 reversed $53 $-1 #
face $-1 $138 $139 $29 $-1 $140 reversed single #
loop $-1 $-1 $141 $55 #
plane-surface $-1 51.903088326558901 1.1189243735998389e-006 84.058069379559427 0 0.86602541151947299 0.49999998660252726 1 0 0 forward_v I I I I #
coedge $-1 $142 $143 $144 $145 reversed $56 $-1 #
face $-1 $-1 $146 $30 $-1 $147 forward single #
loop $-1 $148 $149 $58 #
cone-surface $-1 44.102406829011585 35.207390136138798 12.331436850557353 0 -0.86602541151947299 -0.49999998660252726 0.75 0 0 1 I I -0.70710678118654757 0.70710678118654757 0.75 forward I I I I #
loop $-1 $-1 $150 $38 #
coedge $-1 $94 $94 $151 $152 reversed $59 $-1 #
face $-1 $-1 $153 $31 $-1 $154 forward single #
loop $-1 $155 $156 $61 #
cone-surface $-1 59.703769824106246 35.207390136138798 12.331436850557353 0 -0.86602541151947299 -0.49999998660252726 0.75 0 0 1 I I -0.70710678118654757 0.70710678118654757 0.75 forward I I I I #
loop $-1 $-1 $157 $39 #
coedge $-1 $99 $99 $158 $159 reversed $62 $-1 #
face $-1 $160 $161 $24 $-1 $162 reversed single #
loop $-1 $-1 $163 $64 #
plane-surface $-1 0 -41.758785521620098 0 0 1 0 0 0 1 forward_v I I I I #
coedge $-1 $164 $165 $166 $167 forward $65 $-1 #
coedge $-1 $168 $67 $169 $170 forward $41 $-1 #
coedge $-1 $67 $168 $171 $172 forward $41 $-1 #
coedge $-1 $173 $174 $67 $107 reversed $175 $-1 #
edge $-1 $176 -41.758785521620098 $177 41.758785521620098 $106 $178 forward 7 unknown #
face $-1 $179 $180 $25 $-1 $181 reversed single #
loop $-1 $-1 $182 $68 #
plane-surface $-1 -78.502891081174397 -26.478456795485734 0 0 1 0 0 0 1 forward_v I I I I #
coedge $-1 $183 $184 $113 $185 forward $69 $-1 #
coedge $-1 $186 $71 $187 $188 reversed $44 $-1 #
coedge $-1 $71 $186 $111 $185 reversed $44 $-1 #
coedge $-1 $189 $190 $71 $115 reversed $191 $-1 #
edge $-1 $192 -18.305964750805856 $193 18.305964750805856 $114 $194 forward 7 unknown #
face $-1 $195 $196 $26 $-1 $197 forward single #
loop $-1 $-1 $198 $72 #
plane-surface $-1 24.004904773787317 -161.94166267158778 81.164484630518189 1 0 0 0 0.85716730853699208 -0.51503806187062418 forward_v I I I I #
coedge $-1 $199 $200 $201 $202 reversed $73 $-1 #
coedge $-1 $121 $75 $203 $204 reversed $47 $-1 #
coedge $-1 $75 $120 $199 $205 reversed $47 $-1 #
coedge $-1 $201 $206 $75 $123 forward $196 $-1 #
edge $-1 $207 39.212045814173791 $208 44.832877753571644 $122 $209 forward 7 unknown #
loop $-1 $-1 $129 $76 #
plane-surface $-1 36.272188610543935 -41.758785521620112 8.9513291579849579 0 -0.85716730853699208 0.51503806187062418 1 0 0 forward_v I I I I #
loop $-1 $-1 $210 $49 #
coedge $-1 $127 $127 $128 $211 reversed $77 $-1 #
coedge $-1 $128 $128 $127 $211 forward $79 $-1 #
coedge $-1 $129 $129 $80 $130 forward $124 $-1 #
edge $-1 $212 -1.1761759404291711e-016 $212 6.2831853071796004 $129 $213 forward 7 unknown #
loop $-1 $-1 $136 $81 #
plane-surface $-1 36.272188610543935 -41.758785521620112 8.9513291579849579 0 -0.85716730853699208 0.51503806187062418 1 0 0 forward_v I I I I #
loop $-1 $-1 $214 $52 #
coedge $-1 $134 $134 $135 $215 reversed $82 $-1 #
coedge $-1 $135 $135 $134 $215 forward $84 $-1 #
coedge $-1 $136 $136 $85 $137 forward $131 $-1 #
edge $-1 $216 -1.1761759404291711e-016 $216 6.2831853071796004 $136 $217 forward 7 unknown #
face $-1 $218 $219 $29 $-1 $220 forward single #
loop $-1 $-1 $221 $86 #
plane-surface $-1 0 41.758785521620098 0 0 -1 0 0 0 -1 forward_v I I I I #
coedge $-1 $222 $223 $224 $225 reversed $87 $-1 #
coedge $-1 $143 $89 $226 $227 reversed $56 $-1 #
coedge $-1 $89 $142 $222 $228 reversed $56 $-1 #
coedge $-1 $224 $229 $89 $145 forward $219 $-1 #
edge $-1 $230 18.953648074421935 $231 22.750438526175117 $144 $232 forward 7 unknown #
loop $-1 $-1 $151 $90 #
plane-surface $-1 51.903088326558901 1.1189243735998389e-006 84.058069379559427 0 0.86602541151947299 0.49999998660252726 1 0 0 forward_v I I I I #
loop $-1 $-1 $233 $58 #
coedge $-1 $149 $149 $150 $234 reversed $91 $-1 #
coedge $-1 $150 $150 $149 $234 forward $93 $-1 #
coedge $-1 $151 $151 $94 $152 forward $146 $-1 #
edge $-1 $235 3.1731550527444483e-016 $235 6.2831853071796004 $151 $236 forward 7 unknown #
loop $-1 $-1 $158 $95 #
plane-surface $-1 51.903088326558901 1.1189243735998389e-006 84.058069379559427 0 0.86602541151947299 0.49999998660252726 1 0 0 forward_v I I I I #
loop $-1 $-1 $237 $61 #
coedge $-1 $156 $156 $157 $238 reversed $96 $-1 #
coedge $-1 $157 $157 $156 $238 forward $98 $-1 #
coedge $-1 $158 $158 $99 $159 forward $153 $-1 #
edge $-1 $239 3.1731550527444483e-016 $239 6.2831853071796004 $158 $240 forward 7 unknown #
face $-1 $241 $242 $24 $-1 $243 reversed single #
loop $-1 $-1 $244 $100 #
plane-surface $-1 -70.104678487502667 0 0 1 0 0 0 0 -1 forward_v I I I I #
coedge $-1 $245 $171 $246 $247 forward $101 $-1 #
coedge $-1 $248 $103 $245 $249 forward $65 $-1 #
coedge $-1 $103 $248 $250 $251 forward $65 $-1 #
coedge $-1 $174 $173 $103 $167 reversed $175 $-1 #
edge $-1 $252 -41.758785521620098 $253 41.758785521620098 $166 $254 forward 7 unknown #
coedge $-1 $105 $104 $255 $256 forward $41 $-1 #
coedge $-1 $257 $258 $104 $170 reversed $242 $-1 #
edge $-1 $177 -70.104678487502667 $259 70.104678487502667 $169 $260 forward 7 unknown #
coedge $-1 $163 $261 $105 $172 reversed $101 $-1 #
edge $-1 $262 -70.104678487502667 $176 70.104678487502667 $171 $263 forward 7 unknown #
coedge $-1 $166 $106 $261 $264 forward $175 $-1 #
coedge $-1 $106 $166 $257 $265 reversed $175 $-1 #
loop $-1 $-1 $173 $241 #
vertex $-1 $107 $266 #
vertex $-1 $107 $267 #
straight-curve $-1 70.104678487502667 0 18.305964750805856 0 1 0 I I #
face $-1 $268 $191 $25 $-1 $269 reversed single #
loop $-1 $-1 $270 $108 #
plane-surface $-1 -86.901103674846127 -21.767130420168467 0 1 0 0 0 0 -1 forward_v I I I I #
coedge $-1 $271 $272 $273 $274 forward $109 $-1 #
coedge $-1 $275 $111 $271 $276 forward $69 $-1 #
coedge $-1 $111 $275 $189 $277 forward $69 $-1 #
edge $-1 $192 17.0558040448512 $278 26.478456795485734 $111 $279 forward 7 unknown #
coedge $-1 $113 $112 $280 $281 forward $44 $-1 #
coedge $-1 $282 $283 $112 $188 forward $284 $-1 #
edge $-1 $285 -26.478456795485734 $193 -17.0558040448512 $187 $286 forward 7 unknown #
coedge $-1 $287 $114 $184 $277 reversed $191 $-1 #
coedge $-1 $114 $287 $282 $288 reversed $191 $-1 #
loop $-1 $-1 $114 $179 #
vertex $-1 $185 $289 #
vertex $-1 $288 $290 #
straight-curve $-1 -70.104678487502667 -17.0558040448512 0 0 0 1 I I #
face $-1 $-1 $291 $26 $-1 $292 reversed single #
loop $-1 $-1 $122 $116 #
plane-surface $-1 0 0 18.305964750805856 0 0 1 1 0 0 forward_v I I I I #
coedge $-1 $293 $294 $295 $296 reversed $117 $-1 #
coedge $-1 $297 $119 $121 $205 forward $73 $-1 #
coedge $-1 $119 $297 $293 $298 forward $73 $-1 #
coedge $-1 $295 $122 $119 $202 forward $196 $-1 #
edge $-1 $208 -30.403378142028586 $299 -5.868810468515349 $201 $300 forward 7 unknown #
coedge $-1 $301 $302 $120 $204 forward $291 $-1 #
edge $-1 $303 -31.630913157274115 $207 -22.276277564453238 $203 $304 forward 7 unknown #
edge $-1 $208 -10.913430201610621 $303 -2.7113386213432547e-014 $121 $305 forward 7 unknown #
coedge $-1 $122 $295 $301 $306 forward $196 $-1 #
vertex $-1 $123 $307 #
vertex $-1 $123 $308 #
straight-curve $-1 48.539472447300554 -80.970831335793889 18.305964750805856 0 1 0 I I #
coedge $-1 $210 $210 $-1 $309 reversed $126 $-1 #
edge $-1 $310 0 $310 6.2831853071796004 $127 $311 forward 7 unknown #
vertex $-1 $130 $312 #
ellipse-curve $-1 31.014781251933954 -38.948369551921175 13.628646954395409 0 -0.85716730853699208 0.51503806187062418 2.5 0 0 1 I I #
coedge $-1 $214 $214 $-1 $313 reversed $133 $-1 #
edge $-1 $314 0 $314 6.2831853071796004 $134 $315 forward 7 unknown #
vertex $-1 $137 $316 #
ellipse-curve $-1 41.529595969153917 -38.948369551921175 13.628646954395409 0 -0.85716730853699208 0.51503806187062418 2.5 0 0 1 I I #
face $-1 $-1 $317 $29 $-1 $318 reversed single #
loop $-1 $-1 $224 $138 #
plane-surface $-1 0 0 18.305964750805856 0 0 1 1 0 0 forward_v I I I I #
coedge $-1 $226 $319 $320 $321 forward $139 $-1 #
coedge $-1 $320 $141 $143 $228 forward $87 $-1 #
coedge $-1 $141 $320 $322 $323 reversed $87 $-1 #
coedge $-1 $324 $144 $141 $225 forward $219 $-1 #
edge $-1 $231 7.7499540023356914 $325 44.153134324223217 $224 $326 forward 7 unknown #
coedge $-1 $327 $221 $142 $227 forward $139 $-1 #
edge $-1 $328 -65.351642446575028 $230 -58.775408243499669 $226 $329 forward 7 unknown #
edge $-1 $231 75.923989936264249 $328 83.51757104324021 $143 $330 forward 7 unknown #
coedge $-1 $144 $324 $327 $331 forward $219 $-1 #
vertex $-1 $227 $332 #
vertex $-1 $145 $333 #
straight-curve $-1 33.701498165615142 60.712433596042032 18.305964750805856 0 -1 0 I I #
coedge $-1 $233 $233 $-1 $334 reversed $148 $-1 #
edge $-1 $335 0 $335 6.2831853071796004 $149 $336 forward 7 unknown #
vertex $-1 $152 $337 #
ellipse-curve $-1 44.102406829011585 39.8603902957435 15.017847649268191 0 0.86602541151947299 0.49999998660252726 1.5 0 0 1 I I #
coedge $-1 $237 $237 $-1 $338 reversed $155 $-1 #
edge $-1 $339 0 $339 6.2831853071796004 $156 $340 forward 7 unknown #
vertex $-1 $159 $341 #
ellipse-curve $-1 59.703769824106246 39.8603902957435 15.017847649268191 0 0.86602541151947299 0.49999998660252726 1.5 0 0 1 I I #
face $-1 $-1 $175 $24 $-1 $342 reversed single #
loop $-1 $-1 $257 $160 #
plane-surface $-1 0 41.758785521620098 0 0 -1 0 0 0 -1 forward_v I I I I #
coedge $-1 $343 $255 $258 $344 forward $161 $-1 #
coedge $-1 $261 $163 $164 $249 reversed $101 $-1 #
coedge $-1 $255 $343 $163 $247 reversed $161 $-1 #
edge $-1 $262 -18.305964750805856 $345 18.305964750805856 $246 $346 forward 7 unknown #
coedge $-1 $165 $164 $343 $347 forward $65 $-1 #
edge $-1 $253 -70.104678487502667 $345 70.104678487502667 $245 $348 forward 7 unknown #
coedge $-1 $258 $257 $165 $251 reversed $242 $-1 #
edge $-1 $349 -70.104678487502667 $252 70.104678487502667 $250 $350 forward 7 unknown #
vertex $-1 $167 $351 #
vertex $-1 $264 $352 #
straight-curve $-1 70.104678487502667 0 -18.305964750805856 0 -1 0 I I #
coedge $-1 $244 $246 $168 $256 reversed $161 $-1 #
edge $-1 $259 -41.758785521620098 $262 41.758785521620098 $255 $353 forward 7 unknown #
coedge $-1 $250 $169 $174 $265 forward $242 $-1 #
coedge $-1 $169 $250 $244 $344 reversed $242 $-1 #
vertex $-1 $170 $354 #
straight-curve $-1 0 41.758785521620098 18.305964750805856 -1 0 0 I I #
coedge $-1 $171 $245 $173 $264 reversed $101 $-1 #
vertex $-1 $256 $355 #
straight-curve $-1 0 -41.758785521620098 18.305964750805856 1 0 0 I I #
edge $-1 $176 -18.305964750805856 $253 18.305964750805856 $173 $356 forward 7 unknown #
edge $-1 $177 -18.305964750805856 $252 18.305964750805856 $174 $357 forward 7 unknown #
point $-1 70.104678487502667 -41.758785521620098 18.305964750805856 #
point $-1 70.104678487502667 41.758785521620098 18.305964750805856 #
face $-1 $-1 $284 $25 $-1 $358 forward single #
plane-surface $-1 -78.502891081174397 -17.0558040448512 0 0 -1 0 0 0 -1 forward_v I I I I #
coedge $-1 $359 $360 $287 $361 forward $180 $-1 #
coedge $-1 $280 $182 $183 $276 reversed $109 $-1 #
coedge $-1 $182 $280 $283 $362 reversed $109 $-1 #
coedge $-1 $360 $359 $182 $274 reversed $180 $-1 #
edge $-1 $363 -18.305964750805856 $364 18.305964750805856 $273 $365 forward 7 unknown #
coedge $-1 $184 $183 $359 $366 forward $69 $-1 #
edge $-1 $278 -8.3982125936717296 $364 8.3982125936717296 $271 $367 forward 7 unknown #
edge $-1 $368 -8.3982125936717296 $192 8.3982125936717296 $189 $369 forward 7 unknown #
vertex $-1 $276 $370 #
straight-curve $-1 -70.104678487502667 0 -18.305964750805856 0 -1 0 I I #
coedge $-1 $272 $271 $186 $281 reversed $109 $-1 #
edge $-1 $285 -18.305964750805856 $278 18.305964750805856 $280 $371 forward 7 unknown #
coedge $-1 $372 $187 $190 $288 forward $284 $-1 #
coedge $-1 $187 $372 $272 $362 forward $284 $-1 #
loop $-1 $-1 $187 $268 #
vertex $-1 $188 $373 #
straight-curve $-1 -70.104678487502667 0 18.305964750805856 0 1 0 I I #
coedge $-1 $190 $189 $270 $361 reversed $191 $-1 #
edge $-1 $193 -8.3982125936717296 $374 8.3982125936717296 $190 $375 forward 7 unknown #
point $-1 -70.104678487502667 -17.0558040448512 -18.305964750805856 #
point $-1 -70.104678487502667 -17.0558040448512 18.305964750805856 #
loop $-1 $-1 $203 $195 #
plane-surface $-1 0 -41.758785521620098 0 0 1 0 0 0 1 forward_v I I I I #
coedge $-1 $294 $198 $200 $298 reversed $117 $-1 #
coedge $-1 $198 $293 $376 $377 reversed $117 $-1 #
coedge $-1 $206 $201 $198 $296 forward $196 $-1 #
edge $-1 $299 -44.832877753571644 $378 -39.212045814173791 $295 $379 forward 7 unknown #
coedge $-1 $200 $199 $302 $380 reversed $73 $-1 #
edge $-1 $381 2.7113386213432547e-014 $299 10.913430201610621 $293 $382 forward 7 unknown #
vertex $-1 $202 $383 #
straight-curve $-1 18.136094305271968 -36.137953582222238 18.305964750805856 -1 0 0 I I #
coedge $-1 $376 $203 $206 $306 reversed $291 $-1 #
coedge $-1 $203 $376 $297 $380 forward $291 $-1 #
vertex $-1 $204 $384 #
straight-curve $-1 48.539472447300554 -41.758785521620098 40.582242315259094 0 0 1 I I #
straight-curve $-1 48.539472447300554 -41.758785521620112 8.9513291579849579 0 -0.51503806187062418 -0.85716730853699208 I I #
edge $-1 $378 24.004904773787317 $207 48.539472447300554 $301 $385 forward 7 unknown #
point $-1 48.539472447300554 -41.758785521620098 18.305964750805856 #
point $-1 48.539472447300554 -36.137953582222245 18.305964750805856 #
edge $-1 $386 1 $386 0 $210 $-1 forward 7 unknown #
vertex $-1 $211 $387 #
ellipse-curve $-1 31.014781251933954 -31.398485311164876 9.09221899222368 0 -0.85716730853699208 0.51503806187062418 2.5 0 0 1 I I #
point $-1 33.514781251933954 -38.948369551921161 13.6286469543954 #
edge $-1 $388 1 $388 0 $214 $-1 forward 7 unknown #
vertex $-1 $215 $389 #
ellipse-curve $-1 41.529595969153917 -31.398485311164876 9.09221899222368 0 -0.85716730853699208 0.51503806187062418 2.5 0 0 1 I I #
point $-1 44.029595969153917 -38.948369551921161 13.6286469543954 #
loop $-1 $-1 $322 $218 #
plane-surface $-1 70.104678487502667 0 0 -1 0 0 0 0 1 forward_v I I I I #
coedge $-1 $221 $327 $390 $391 forward $139 $-1 #
coedge $-1 $223 $222 $221 $321 reversed $87 $-1 #
edge $-1 $392 -44.153134324223217 $328 -7.7499540023356914 $221 $393 forward 7 unknown #
coedge $-1 $390 $394 $223 $323 forward $317 $-1 #
edge $-1 $325 39.525778153012652 $392 47.119359259988613 $322 $395 forward 7 unknown #
coedge $-1 $229 $224 $394 $396 forward $219 $-1 #
vertex $-1 $396 $397 #
straight-curve $-1 25.951544163279451 37.961995069866916 18.305964750805856 1 0 0 I I #
coedge $-1 $319 $226 $229 $331 reversed $139 $-1 #
vertex $-1 $227 $398 #
straight-curve $-1 33.701498165615142 41.758785521620098 77.081372994305525 0 0 1 I I #
straight-curve $-1 33.701498165615142 1.1189243735998389e-006 84.058069379559427 0 0.49999998660252726 -0.86602541151947299 I I #
edge $-1 $399 -70.104678487502667 $230 -33.701498165615142 $327 $400 forward 7 unknown #
point $-1 33.701498165615142 41.758785521620098 18.305964750805856 #
point $-1 33.701498165615142 37.961995069866916 18.305964750805856 #
edge $-1 $401 1 $401 0 $233 $-1 forward 7 unknown #
vertex $-1 $234 $402 #
ellipse-curve $-1 44.102406829011585 35.856909194778403 12.706436840509248 0 0.86602541151947299 0.49999998660252726 1.5 0 0 1 I I #
point $-1 45.602406829011585 39.860390295743507 15.017847649268194 #
edge $-1 $403 1 $403 0 $237 $-1 forward 7 unknown #
vertex $-1 $238 $404 #
ellipse-curve $-1 59.703769824106246 35.856909194778403 12.706436840509248 0 0.86602541151947299 0.49999998660252726 1.5 0 0 1 I I #
point $-1 61.203769824106246 39.860390295743507 15.017847649268194 #
plane-surface $-1 70.104678487502667 0 0 -1 0 0 0 0 1 forward_v I I I I #
coedge $-1 $246 $244 $248 $347 reversed $161 $-1 #
edge $-1 $259 -18.305964750805856 $349 18.305964750805856 $258 $405 forward 7 unknown #
vertex $-1 $347 $406 #
straight-curve $-1 -70.104678487502667 -41.758785521620098 0 0 0 -1 I I #
edge $-1 $345 -41.758785521620098 $349 41.758785521620098 $343 $407 forward 7 unknown #
straight-curve $-1 0 -41.758785521620098 -18.305964750805856 -1 0 0 I I #
vertex $-1 $251 $408 #
straight-curve $-1 0 41.758785521620098 -18.305964750805856 1 0 0 I I #
point $-1 70.104678487502667 41.758785521620098 -18.305964750805856 #
point $-1 70.104678487502667 -41.758785521620098 -18.305964750805856 #
straight-curve $-1 -70.104678487502667 0 18.305964750805856 0 -1 0 I I #
point $-1 -70.104678487502667 41.758785521620098 18.305964750805856 #
point $-1 -70.104678487502667 -41.758785521620098 18.305964750805856 #
straight-curve $-1 70.104678487502667 -41.758785521620098 0 0 0 -1 I I #
straight-curve $-1 70.104678487502667 41.758785521620098 0 0 0 -1 I I #
plane-surface $-1 0 0 18.305964750805856 0 0 1 1 0 0 forward_v I I I I #
coedge $-1 $273 $270 $275 $366 reversed $180 $-1 #
coedge $-1 $270 $273 $372 $409 reversed $180 $-1 #
edge $-1 $374 -18.305964750805856 $368 18.305964750805856 $287 $410 forward 7 unknown #
edge $-1 $363 -8.3982125936717296 $285 8.3982125936717296 $272 $411 forward 7 unknown #
vertex $-1 $409 $412 #
vertex $-1 $366 $413 #
straight-curve $-1 -86.901103674846127 -26.478456795485734 0 0 0 -1 I I #
edge $-1 $364 -4.7113263753172667 $368 4.7113263753172667 $359 $414 forward 7 unknown #
straight-curve $-1 -78.502891081174397 -26.478456795485734 -18.305964750805856 -1 0 0 I I #
vertex $-1 $277 $415 #
straight-curve $-1 -78.502891081174397 -17.0558040448512 -18.305964750805856 1 0 0 I I #
point $-1 -70.104678487502667 -26.478456795485734 -18.305964750805856 #
straight-curve $-1 -70.104678487502667 -26.478456795485734 0 0 0 -1 I I #
coedge $-1 $283 $282 $360 $409 forward $284 $-1 #
point $-1 -70.104678487502667 -26.478456795485734 18.305964750805856 #
vertex $-1 $288 $416 #
straight-curve $-1 -78.502891081174397 -17.0558040448512 18.305964750805856 -1 0 0 I I #
coedge $-1 $302 $301 $294 $377 forward $291 $-1 #
edge $-1 $378 22.276277564453238 $381 31.630913157274115 $376 $417 forward 7 unknown #
vertex $-1 $306 $418 #
straight-curve $-1 24.004904773787317 -80.970831335793889 18.305964750805856 0 -1 0 I I #
edge $-1 $381 5.868810468515349 $303 30.403378142028586 $302 $419 forward 7 unknown #
vertex $-1 $380 $420 #
straight-curve $-1 24.004904773787317 -41.758785521620112 8.9513291579849579 0 0.51503806187062418 0.85716730853699208 I I #
point $-1 24.004904773787317 -36.137953582222245 18.305964750805856 #
point $-1 48.539472447300554 -41.758785521620098 8.951329157984981 #
straight-curve $-1 0 -41.758785521620098 18.305964750805856 1 0 0 I I #
vertex $-1 $309 $421 #
point $-1 33.514781251933954 -31.398485311164876 9.09221899222368 #
vertex $-1 $313 $422 #
point $-1 44.029595969153917 -31.398485311164876 9.09221899222368 #
coedge $-1 $394 $322 $319 $391 reversed $317 $-1 #
edge $-1 $399 -18.305964750805856 $392 -11.729730547730497 $390 $423 forward 7 unknown #
vertex $-1 $323 $424 #
straight-curve $-1 25.951544163279451 41.758785521620098 11.729730547730497 -1 0 0 I I #
coedge $-1 $322 $390 $324 $396 reversed $317 $-1 #
straight-curve $-1 70.104678487502667 18.199106522906121 52.536293041396029 0 0.49999998660252726 -0.86602541151947299 I I #
edge $-1 $325 37.961995069866916 $399 41.758785521620098 $394 $425 forward 7 unknown #
point $-1 70.104678487502667 37.961995069866916 18.305964750805856 #
point $-1 33.701498165615142 41.758785521620098 11.729730547730497 #
vertex $-1 $396 $426 #
straight-curve $-1 0 41.758785521620098 18.305964750805856 -1 0 0 I I #
vertex $-1 $334 $427 #
point $-1 45.602406829011585 35.856909194778403 12.706436840509248 #
vertex $-1 $338 $428 #
point $-1 61.203769824106246 35.856909194778403 12.706436840509248 #
straight-curve $-1 -70.104678487502667 41.758785521620098 0 0 0 -1 I I #
point $-1 -70.104678487502667 -41.758785521620098 -18.305964750805856 #
straight-curve $-1 -70.104678487502667 0 -18.305964750805856 0 1 0 I I #
point $-1 -70.104678487502667 41.758785521620098 -18.305964750805856 #
edge $-1 $374 -4.7113263753172667 $363 4.7113263753172667 $360 $429 forward 7 unknown #
straight-curve $-1 -86.901103674846127 -17.0558040448512 0 0 0 -1 I I #
straight-curve $-1 -78.502891081174397 -26.478456795485734 18.305964750805856 1 0 0 I I #
point $-1 -86.901103674846127 -26.478456795485734 18.305964750805856 #
point $-1 -86.901103674846127 -26.478456795485734 -18.305964750805856 #
straight-curve $-1 -86.901103674846127 -21.767130420168467 -18.305964750805856 0 1 0 I I #
point $-1 -86.901103674846127 -17.0558040448512 -18.305964750805856 #
point $-1 -86.901103674846127 -17.0558040448512 18.305964750805856 #
straight-curve $-1 24.004904773787317 -41.758785521620098 40.582242315259094 0 0 -1 I I #
point $-1 24.004904773787317 -41.758785521620098 18.305964750805856 #
straight-curve $-1 18.136094305271968 -41.758785521620098 8.951329157984981 1 0 0 I I #
point $-1 24.004904773787317 -41.758785521620098 8.951329157984981 #
point $-1 31.014781251933954 -29.255567039822395 7.8046238375471182 #
point $-1 41.529595969153917 -29.255567039822395 7.8046238375471182 #
straight-curve $-1 70.104678487502667 41.758785521620098 0 0 0 -1 I I #
point $-1 70.104678487502667 41.758785521620098 11.729730547730497 #
straight-curve $-1 70.104678487502667 0 18.305964750805856 0 1 0 I I #
point $-1 70.104678487502667 41.758785521620098 18.305964750805856 #
point $-1 44.102406829011585 34.557871077499193 11.956436860605457 #
point $-1 59.703769824106246 34.557871077499193 11.956436860605457 #
straight-curve $-1 -86.901103674846127 -21.767130420168467 18.305964750805856 0 -1 0 I I #
End-of-ACIS-data 