500 0 17 0           
7 Unknown 11 ACIS 5.0 NT 24 Fri Mar 26 18:22:03 1999 
-1 9.9999999999999995e-007 1e-010 
body $-1 $17 $-1 $18 #
body $-1 $19 $-1 $20 #
body $-1 $21 $-1 $22 #
body $-1 $23 $-1 $24 #
body $-1 $25 $-1 $26 #
body $-1 $27 $-1 $28 #
body $-1 $29 $-1 $30 #
body $-1 $31 $-1 $32 #
body $-1 $33 $-1 $34 #
body $-1 $35 $-1 $36 #
body $-1 $37 $-1 $38 #
body $-1 $39 $-1 $40 #
body $-1 $41 $-1 $42 #
body $-1 $43 $-1 $44 #
body $-1 $45 $-1 $46 #
body $-1 $47 $-1 $48 #
body $-1 $49 $-1 $50 #
lump $-1 $-1 $51 $0 #
transform $-1 1 0 0 0 1 0 0 0 1 72.123783074434641 29.002710510635112 13.216427283629912 1 rotate no_reflect no_shear #
lump $-1 $-1 $52 $1 #
transform $-1 1 0 0 0 1 0 0 0 1 72.123783074434641 29.002710510635112 13.216427283629912 1 rotate no_reflect no_shear #
lump $-1 $-1 $53 $2 #
transform $-1 1 0 0 0 1 0 0 0 1 72.123783074434641 29.002710510635112 13.216427283629912 1 rotate no_reflect no_shear #
lump $-1 $-1 $54 $3 #
transform $-1 1 0 0 0 1 0 0 0 1 72.123783074434641 29.002710510635112 13.216427283629912 1 rotate no_reflect no_shear #
lump $-1 $-1 $55 $4 #
transform $-1 1 0 0 0 1 0 0 0 1 72.123783074434641 29.002710510635112 13.216427283629912 1 rotate no_reflect no_shear #
lump $-1 $-1 $56 $5 #
transform $-1 1 0 0 0 1 0 0 0 1 72.123783074434641 29.002710510635112 13.216427283629912 1 rotate no_reflect no_shear #
lump $-1 $-1 $57 $6 #
transform $-1 1 0 0 0 1 0 0 0 1 72.123783074434641 29.002710510635112 13.216427283629912 1 rotate no_reflect no_shear #
lump $-1 $-1 $58 $7 #
transform $-1 1 0 0 0 1 0 0 0 1 72.123783074434641 29.002710510635112 13.216427283629912 1 rotate no_reflect no_shear #
lump $-1 $-1 $59 $8 #
transform $-1 1 0 0 0 1 0 0 0 1 72.123783074434641 29.002710510635112 13.216427283629912 1 rotate no_reflect no_shear #
lump $-1 $-1 $60 $9 #
transform $-1 1 0 0 0 1 0 0 0 1 72.123783074434641 29.002710510635112 13.216427283629912 1 rotate no_reflect no_shear #
lump $-1 $-1 $61 $10 #
transform $-1 1 0 0 0 1 0 0 0 1 72.123783074434641 29.002710510635112 13.216427283629912 1 rotate no_reflect no_shear #
lump $-1 $-1 $62 $11 #
transform $-1 1 0 0 0 1 0 0 0 1 72.123783074434641 29.002710510635112 13.216427283629912 1 rotate no_reflect no_shear #
lump $-1 $-1 $63 $12 #
transform $-1 1 0 0 0 1 0 0 0 1 72.123783074434641 29.002710510635112 13.216427283629912 1 rotate no_reflect no_shear #
lump $-1 $-1 $64 $13 #
transform $-1 1 0 0 0 1 0 0 0 1 72.123783074434641 29.002710510635112 13.216427283629912 1 rotate no_reflect no_shear #
lump $-1 $-1 $65 $14 #
transform $-1 1 0 0 0 1 0 0 0 1 72.123783074434641 29.002710510635112 13.216427283629912 1 rotate no_reflect no_shear #
lump $-1 $-1 $66 $15 #
transform $-1 1 0 0 0 1 0 0 0 1 72.123783074434641 29.002710510635112 13.216427283629912 1 rotate no_reflect no_shear #
lump $-1 $-1 $67 $16 #
transform $-1 1 0 0 0 1 0 0 0 1 72.123783074434641 29.002710510635112 13.216427283629912 1 rotate no_reflect no_shear #
shell $-1 $-1 $-1 $68 $-1 $17 #
shell $-1 $-1 $-1 $69 $-1 $19 #
shell $-1 $-1 $-1 $70 $-1 $21 #
shell $-1 $-1 $-1 $71 $-1 $23 #
shell $-1 $-1 $-1 $72 $-1 $25 #
shell $-1 $-1 $-1 $73 $-1 $27 #
shell $-1 $-1 $-1 $74 $-1 $29 #
shell $-1 $-1 $-1 $75 $-1 $31 #
shell $-1 $-1 $-1 $76 $-1 $33 #
shell $-1 $-1 $-1 $77 $-1 $35 #
shell $-1 $-1 $-1 $78 $-1 $37 #
shell $-1 $-1 $-1 $79 $-1 $39 #
shell $-1 $-1 $-1 $80 $-1 $41 #
shell $-1 $-1 $-1 $81 $-1 $43 #
shell $-1 $-1 $-1 $82 $-1 $45 #
shell $-1 $-1 $-1 $83 $-1 $47 #
shell $-1 $-1 $-1 $84 $-1 $49 #
face $-1 $85 $86 $51 $-1 $87 forward single #
face $-1 $88 $89 $52 $-1 $90 reversed single #
face $-1 $91 $92 $53 $-1 $93 reversed single #
face $-1 $94 $95 $54 $-1 $96 reversed single #
face $-1 $97 $98 $55 $-1 $99 forward single #
face $-1 $100 $101 $56 $-1 $102 forward single #
face $-1 $103 $104 $57 $-1 $105 forward single #
face $-1 $106 $107 $58 $-1 $108 reversed single #
face $-1 $109 $110 $59 $-1 $111 forward single #
face $-1 $112 $113 $60 $-1 $114 forward single #
face $-1 $115 $116 $61 $-1 $117 forward single #
face $-1 $118 $119 $62 $-1 $120 reversed single #
face $-1 $121 $122 $63 $-1 $123 forward single #
face $-1 $124 $125 $64 $-1 $126 forward single #
face $-1 $127 $128 $65 $-1 $129 reversed single #
face $-1 $130 $131 $66 $-1 $132 forward single #
face $-1 $133 $134 $67 $-1 $135 forward single #
face $-1 $136 $137 $51 $-1 $138 reversed single #
loop $-1 $-1 $139 $68 #
plane-surface $-1 0 0 13.216427283629912 0 0 1 1 0 0 forward_v I I I I #
face $-1 $140 $141 $52 $-1 $142 reversed single #
loop $-1 $-1 $143 $69 #
plane-surface $-1 -60.029415019046077 0 10.046654735216496 -1 0 0 0 0 1 forward_v I I I I #
face $-1 $144 $145 $53 $-1 $146 reversed single #
loop $-1 $-1 $147 $70 #
plane-surface $-1 66.076599046740341 0 6.8768821868030798 0 0 1 1 0 0 forward_v I I I I #
face $-1 $148 $149 $54 $-1 $150 reversed single #
loop $-1 $-1 $151 $71 #
plane-surface $-1 -37.567155665215296 -144.20394026130117 92.664522321954934 -1 0 0 0 -0.79863551827123203 0.60181501223851219 forward_v I I I I #
face $-1 $152 $153 $55 $-1 $154 forward single #
loop $-1 $155 $156 $72 #
cone-surface $-1 -48.81451396445938 -25.179431684205635 8.7445574239526778 0 0.79863551827123203 -0.60181501223851219 1 0 0 1 I I 0 1 1 forward I I I I #
face $-1 $157 $158 $56 $-1 $159 forward single #
loop $-1 $160 $161 $73 #
cone-surface $-1 -44.596754602242846 -25.179431684205635 8.7445574239526778 0 0.79863551827123203 -0.60181501223851219 1 0 0 1 I I 0 1 1 forward I I I I #
face $-1 $162 $163 $57 $-1 $164 forward single #
loop $-1 $165 $166 $74 #
cone-surface $-1 -40.378995240026313 -25.179431684205635 8.7445574239526778 0 0.79863551827123203 -0.60181501223851219 1 0 0 1 I I 0 1 1 forward I I I I #
face $-1 $167 $168 $58 $-1 $169 reversed single #
loop $-1 $-1 $170 $75 #
plane-surface $-1 22.462259353830781 -144.20394026130117 92.664522321954934 -1 0 0 0 -0.79863551827123203 0.60181501223851219 forward_v I I I I #
face $-1 $171 $172 $59 $-1 $173 forward single #
loop $-1 $174 $175 $76 #
cone-surface $-1 11.214901054586704 -25.179431684205635 8.7445574239526778 0 0.79863551827123203 -0.60181501223851219 1 0 0 1 I I 0 1 1 forward I I I I #
face $-1 $176 $177 $60 $-1 $178 forward single #
loop $-1 $179 $180 $77 #
cone-surface $-1 15.43266041680323 -25.179431684205635 8.7445574239526778 0 0.79863551827123203 -0.60181501223851219 1 0 0 1 I I 0 1 1 forward I I I I #
face $-1 $181 $182 $61 $-1 $183 forward single #
loop $-1 $184 $185 $78 #
cone-surface $-1 19.650419779019757 -25.179431684205635 8.7445574239526778 0 0.79863551827123203 -0.60181501223851219 1 0 0 1 I I 0 1 1 forward I I I I #
face $-1 $186 $187 $62 $-1 $188 reversed single #
loop $-1 $-1 $189 $79 #
plane-surface $-1 -51.126496024407956 -9.8104914959407665 48.980243275017074 0 0.74314483375859142 0.66913059716165679 1 0 0 forward_v I I I I #
face $-1 $190 $191 $63 $-1 $192 forward single #
loop $-1 $193 $194 $80 #
cone-surface $-1 -54.942032736395724 24.745854574880603 8.6886593642763827 0 -0.74314483375859142 -0.66913059716165679 1 0 0 1 I I 0 1 1 forward I I I I #
face $-1 $195 $196 $64 $-1 $197 forward single #
loop $-1 $198 $199 $81 #
cone-surface $-1 -47.310959312420195 24.745854574880603 8.6886593642763827 0 -0.74314483375859142 -0.66913059716165679 1 0 0 1 I I 0 1 1 forward I I I I #
face $-1 $200 $201 $65 $-1 $202 reversed single #
loop $-1 $-1 $203 $82 #
plane-surface $-1 -7.1054273576010019e-015 97.386342069842115 145.50070335132557 1 0 0 0 -0.74314483375859142 -0.66913059716165679 forward_v I I I I #
face $-1 $204 $205 $66 $-1 $206 forward single #
loop $-1 $207 $208 $83 #
cone-surface $-1 5.0873822826503527 24.745854574880603 8.6886593642763827 0 -0.74314483375859142 -0.66913059716165679 1 0 0 1 I I 0 1 1 forward I I I I #
face $-1 $209 $210 $67 $-1 $211 forward single #
loop $-1 $212 $213 $84 #
cone-surface $-1 12.718455706625889 24.745854574880603 8.6886593642763827 0 -0.74314483375859142 -0.66913059716165679 1 0 0 1 I I 0 1 1 forward I I I I #
face $-1 $214 $215 $51 $-1 $216 reversed single #
loop $-1 $-1 $217 $85 #
plane-surface $-1 0 0 -13.216427283629912 0 0 1 1 0 0 forward_v I I I I #
coedge $-1 $218 $219 $220 $221 forward $86 $-1 #
face $-1 $222 $223 $52 $-1 $224 reversed single #
loop $-1 $-1 $225 $88 #
plane-surface $-1 -66.076599046740355 0 6.8768821868030798 0 0 1 1 0 0 forward_v I I I I #
coedge $-1 $226 $227 $228 $229 reversed $89 $-1 #
face $-1 $230 $231 $53 $-1 $232 forward single #
loop $-1 $-1 $233 $91 #
plane-surface $-1 60.029415019046056 0 10.046654735216496 1 0 0 0 0 -1 forward_v I I I I #
coedge $-1 $234 $235 $236 $237 reversed $92 $-1 #
face $-1 $238 $239 $54 $-1 $240 reversed single #
loop $-1 $-1 $241 $94 #
plane-surface $-1 -44.596754602242846 -29.002710510635126 5.8541715346975707 0 -0.79863551827123203 0.60181501223851219 1 0 0 forward_v I I I I #
coedge $-1 $242 $243 $244 $245 reversed $95 $-1 #
face $-1 $-1 $246 $55 $-1 $247 forward single #
loop $-1 $248 $249 $97 #
cone-surface $-1 -48.81451396445938 -23.730763838522869 7.6529079326223624 0 0.79863551827123203 -0.60181501223851219 0.5 0 0 1 I I -0.70710678118654746 0.70710678118654746 0.5 forward I I I I #
loop $-1 $-1 $250 $72 #
coedge $-1 $156 $156 $251 $252 reversed $98 $-1 #
face $-1 $-1 $253 $56 $-1 $254 forward single #
loop $-1 $255 $256 $100 #
cone-surface $-1 -44.596754602242846 -23.730763838522869 7.6529079326223624 0 0.79863551827123203 -0.60181501223851219 0.5 0 0 1 I I -0.70710678118654746 0.70710678118654746 0.5 forward I I I I #
loop $-1 $-1 $257 $73 #
coedge $-1 $161 $161 $258 $259 reversed $101 $-1 #
face $-1 $-1 $260 $57 $-1 $261 forward single #
loop $-1 $262 $263 $103 #
cone-surface $-1 -40.378995240026313 -23.730763838522869 7.6529079326223624 0 0.79863551827123203 -0.60181501223851219 0.5 0 0 1 I I -0.70710678118654746 0.70710678118654746 0.5 forward I I I I #
loop $-1 $-1 $264 $74 #
coedge $-1 $166 $166 $265 $266 reversed $104 $-1 #
face $-1 $267 $268 $58 $-1 $269 reversed single #
loop $-1 $-1 $270 $106 #
plane-surface $-1 15.43266041680323 -29.002710510635126 5.8541715346975707 0 -0.79863551827123203 0.60181501223851219 1 0 0 forward_v I I I I #
coedge $-1 $271 $272 $273 $274 reversed $107 $-1 #
face $-1 $-1 $275 $59 $-1 $276 forward single #
loop $-1 $277 $278 $109 #
cone-surface $-1 11.214901054586704 -23.730763838522869 7.6529079326223624 0 0.79863551827123203 -0.60181501223851219 0.5 0 0 1 I I -0.70710678118654746 0.70710678118654746 0.5 forward I I I I #
loop $-1 $-1 $279 $76 #
coedge $-1 $175 $175 $280 $281 reversed $110 $-1 #
face $-1 $-1 $282 $60 $-1 $283 forward single #
loop $-1 $284 $285 $112 #
cone-surface $-1 15.43266041680323 -23.730763838522869 7.6529079326223624 0 0.79863551827123203 -0.60181501223851219 0.5 0 0 1 I I -0.70710678118654746 0.70710678118654746 0.5 forward I I I I #
loop $-1 $-1 $286 $77 #
coedge $-1 $180 $180 $287 $288 reversed $113 $-1 #
face $-1 $-1 $289 $61 $-1 $290 forward single #
loop $-1 $291 $292 $115 #
cone-surface $-1 19.650419779019757 -23.730763838522869 7.6529079326223624 0 0.79863551827123203 -0.60181501223851219 0.5 0 0 1 I I -0.70710678118654746 0.70710678118654746 0.5 forward I I I I #
loop $-1 $-1 $293 $78 #
coedge $-1 $185 $185 $294 $295 reversed $116 $-1 #
face $-1 $296 $297 $62 $-1 $298 reversed single #
loop $-1 $-1 $299 $118 #
plane-surface $-1 -42.223577029769835 97.386342069842115 145.50070335132557 -1 0 0 0 0.74314483375859142 0.66913059716165679 forward_v I I I I #
coedge $-1 $300 $301 $302 $303 reversed $119 $-1 #
face $-1 $-1 $304 $63 $-1 $305 forward single #
loop $-1 $306 $307 $121 #
cone-surface $-1 -54.942032736395724 23.423085347177853 7.4976326316229063 0 -0.74314483375859142 -0.66913059716165679 0.5 0 0 1 I I -0.70710678118654691 0.70710678118654813 0.5 forward I I I I #
loop $-1 $-1 $308 $80 #
coedge $-1 $194 $194 $309 $310 reversed $122 $-1 #
face $-1 $-1 $311 $64 $-1 $312 forward single #
loop $-1 $313 $314 $124 #
cone-surface $-1 -47.310959312420195 23.423085347177853 7.4976326316229063 0 -0.74314483375859142 -0.66913059716165679 0.5 0 0 1 I I -0.70710678118654691 0.70710678118654813 0.5 forward I I I I #
loop $-1 $-1 $315 $81 #
coedge $-1 $199 $199 $316 $317 reversed $125 $-1 #
face $-1 $318 $319 $65 $-1 $320 reversed single #
loop $-1 $-1 $321 $127 #
plane-surface $-1 8.9029189946381138 -9.8104914959407665 48.980243275017074 0 0.74314483375859142 0.66913059716165679 1 0 0 forward_v I I I I #
coedge $-1 $322 $323 $324 $325 reversed $128 $-1 #
face $-1 $-1 $326 $66 $-1 $327 forward single #
loop $-1 $328 $329 $130 #
cone-surface $-1 5.0873822826503527 23.423085347177853 7.4976326316229063 0 -0.74314483375859142 -0.66913059716165679 0.5 0 0 1 I I -0.70710678118654691 0.70710678118654813 0.5 forward I I I I #
loop $-1 $-1 $330 $83 #
coedge $-1 $208 $208 $331 $332 reversed $131 $-1 #
face $-1 $-1 $333 $67 $-1 $334 forward single #
loop $-1 $335 $336 $133 #
cone-surface $-1 12.718455706625889 23.423085347177853 7.4976326316229063 0 -0.74314483375859142 -0.66913059716165679 0.5 0 0 1 I I -0.70710678118654691 0.70710678118654813 0.5 forward I I I I #
loop $-1 $-1 $337 $84 #
coedge $-1 $213 $213 $338 $339 reversed $134 $-1 #
face $-1 $340 $341 $51 $-1 $342 reversed single #
loop $-1 $-1 $343 $136 #
plane-surface $-1 0 -29.002710510635112 0 0 1 0 0 0 1 forward_v I I I I #
coedge $-1 $344 $345 $346 $347 forward $137 $-1 #
coedge $-1 $348 $139 $349 $350 forward $86 $-1 #
coedge $-1 $139 $348 $351 $352 forward $86 $-1 #
coedge $-1 $353 $354 $139 $221 reversed $355 $-1 #
edge $-1 $356 -29.002710510635112 $357 29.002710510635112 $220 $358 forward 7 unknown #
face $-1 $359 $360 $52 $-1 $361 reversed single #
loop $-1 $-1 $362 $140 #
plane-surface $-1 0 29.002710510635112 0 0 -1 0 0 0 -1 forward_v I I I I #
coedge $-1 $363 $364 $365 $366 forward $141 $-1 #
coedge $-1 $365 $143 $367 $368 reversed $89 $-1 #
coedge $-1 $143 $365 $362 $369 reversed $89 $-1 #
coedge $-1 $370 $371 $143 $229 forward $372 $-1 #
edge $-1 $373 -29.002710510635112 $374 29.002710510635112 $228 $375 forward 7 unknown #
face $-1 $376 $377 $53 $-1 $378 reversed single #
loop $-1 $-1 $379 $144 #
plane-surface $-1 0 0 13.216427283629912 0 0 1 1 0 0 forward_v I I I I #
coedge $-1 $380 $381 $382 $383 reversed $145 $-1 #
coedge $-1 $384 $147 $385 $386 reversed $92 $-1 #
coedge $-1 $147 $384 $387 $388 reversed $92 $-1 #
coedge $-1 $389 $390 $147 $237 forward $391 $-1 #
edge $-1 $392 -29.002710510635112 $393 29.002710510635112 $236 $394 forward 7 unknown #
face $-1 $395 $396 $54 $-1 $397 forward single #
loop $-1 $-1 $398 $148 #
plane-surface $-1 -51.626353539270397 -144.20394026130117 92.664522321954934 1 0 0 0 0.79863551827123203 -0.60181501223851219 forward_v I I I I #
coedge $-1 $399 $400 $401 $402 reversed $149 $-1 #
coedge $-1 $243 $151 $403 $404 reversed $95 $-1 #
coedge $-1 $151 $242 $399 $405 reversed $95 $-1 #
coedge $-1 $401 $406 $151 $245 forward $396 $-1 #
edge $-1 $407 43.099259620015474 $408 48.647117099780111 $244 $409 forward 7 unknown #
loop $-1 $-1 $251 $152 #
plane-surface $-1 -44.596754602242846 -29.002710510635126 5.8541715346975707 0 -0.79863551827123203 0.60181501223851219 1 0 0 forward_v I I I I #
loop $-1 $-1 $410 $97 #
coedge $-1 $249 $249 $250 $411 reversed $153 $-1 #
coedge $-1 $250 $250 $249 $411 forward $155 $-1 #
coedge $-1 $251 $251 $156 $252 forward $246 $-1 #
edge $-1 $412 -6.7907904708357448e-016 $412 6.2831853071795996 $251 $413 forward 7 unknown #
loop $-1 $-1 $258 $157 #
plane-surface $-1 -44.596754602242846 -29.002710510635126 5.8541715346975707 0 -0.79863551827123203 0.60181501223851219 1 0 0 forward_v I I I I #
loop $-1 $-1 $414 $100 #
coedge $-1 $256 $256 $257 $415 reversed $158 $-1 #
coedge $-1 $257 $257 $256 $415 forward $160 $-1 #
coedge $-1 $258 $258 $161 $259 forward $253 $-1 #
edge $-1 $416 -6.7907904708357448e-016 $416 6.2831853071795996 $258 $417 forward 7 unknown #
loop $-1 $-1 $265 $162 #
plane-surface $-1 -44.596754602242846 -29.002710510635126 5.8541715346975707 0 -0.79863551827123203 0.60181501223851219 1 0 0 forward_v I I I I #
loop $-1 $-1 $418 $103 #
coedge $-1 $263 $263 $264 $419 reversed $163 $-1 #
coedge $-1 $264 $264 $263 $419 forward $165 $-1 #
coedge $-1 $265 $265 $166 $266 forward $260 $-1 #
edge $-1 $420 -6.7907904708357448e-016 $420 6.2831853071795996 $265 $421 forward 7 unknown #
face $-1 $422 $423 $58 $-1 $424 reversed single #
loop $-1 $-1 $425 $167 #
plane-surface $-1 8.4030614797756797 -144.20394026130117 92.664522321954934 1 0 0 0 0.79863551827123203 -0.60181501223851219 forward_v I I I I #
coedge $-1 $426 $427 $428 $429 reversed $168 $-1 #
coedge $-1 $272 $170 $430 $431 reversed $107 $-1 #
coedge $-1 $170 $271 $426 $432 reversed $107 $-1 #
coedge $-1 $428 $433 $170 $274 forward $434 $-1 #
edge $-1 $435 43.099259620015474 $436 48.647117099780111 $273 $437 forward 7 unknown #
loop $-1 $-1 $280 $171 #
plane-surface $-1 15.43266041680323 -29.002710510635126 5.8541715346975707 0 -0.79863551827123203 0.60181501223851219 1 0 0 forward_v I I I I #
loop $-1 $-1 $438 $109 #
coedge $-1 $278 $278 $279 $439 reversed $172 $-1 #
coedge $-1 $279 $279 $278 $439 forward $174 $-1 #
coedge $-1 $280 $280 $175 $281 forward $275 $-1 #
edge $-1 $440 -6.7907904708357448e-016 $440 6.2831853071795996 $280 $441 forward 7 unknown #
loop $-1 $-1 $287 $176 #
plane-surface $-1 15.43266041680323 -29.002710510635126 5.8541715346975707 0 -0.79863551827123203 0.60181501223851219 1 0 0 forward_v I I I I #
loop $-1 $-1 $442 $112 #
coedge $-1 $285 $285 $286 $443 reversed $177 $-1 #
coedge $-1 $286 $286 $285 $443 forward $179 $-1 #
coedge $-1 $287 $287 $180 $288 forward $282 $-1 #
edge $-1 $444 -6.7907904708357448e-016 $444 6.2831853071795996 $287 $445 forward 7 unknown #
loop $-1 $-1 $294 $181 #
plane-surface $-1 15.43266041680323 -29.002710510635126 5.8541715346975707 0 -0.79863551827123203 0.60181501223851219 1 0 0 forward_v I I I I #
loop $-1 $-1 $446 $115 #
coedge $-1 $292 $292 $293 $447 reversed $182 $-1 #
coedge $-1 $293 $293 $292 $447 forward $184 $-1 #
coedge $-1 $294 $294 $185 $295 forward $289 $-1 #
edge $-1 $448 -6.7907904708357448e-016 $448 6.2831853071795996 $294 $449 forward 7 unknown #
face $-1 $450 $451 $62 $-1 $452 forward single #
loop $-1 $-1 $453 $186 #
plane-surface $-1 0 29.002710510635112 0 0 -1 0 0 0 -1 forward_v I I I I #
coedge $-1 $454 $455 $456 $457 reversed $187 $-1 #
coedge $-1 $458 $189 $459 $460 reversed $119 $-1 #
coedge $-1 $189 $458 $454 $461 forward $119 $-1 #
coedge $-1 $456 $462 $189 $303 forward $451 $-1 #
edge $-1 $463 -34.466167006842099 $464 -16.660329017565857 $302 $465 forward 7 unknown #
loop $-1 $-1 $309 $190 #
plane-surface $-1 -51.126496024407956 -9.8104914959407665 48.980243275017074 0 0.74314483375859142 0.66913059716165679 1 0 0 forward_v I I I I #
loop $-1 $-1 $466 $121 #
coedge $-1 $307 $307 $308 $467 reversed $191 $-1 #
coedge $-1 $308 $308 $307 $467 forward $193 $-1 #
coedge $-1 $309 $309 $194 $310 forward $304 $-1 #
edge $-1 $468 1.5937087072809521e-015 $468 6.2831853071796022 $309 $469 forward 7 unknown #
loop $-1 $-1 $316 $195 #
plane-surface $-1 -51.126496024407956 -9.8104914959407665 48.980243275017074 0 0.74314483375859142 0.66913059716165679 1 0 0 forward_v I I I I #
loop $-1 $-1 $470 $124 #
coedge $-1 $314 $314 $315 $471 reversed $196 $-1 #
coedge $-1 $315 $315 $314 $471 forward $198 $-1 #
coedge $-1 $316 $316 $199 $317 forward $311 $-1 #
edge $-1 $472 1.5937087072809521e-015 $472 6.2831853071796022 $316 $473 forward 7 unknown #
face $-1 $474 $475 $65 $-1 $476 forward single #
loop $-1 $-1 $477 $200 #
plane-surface $-1 17.805837989276235 97.386342069842115 145.50070335132557 -1 0 0 0 0.74314483375859142 0.66913059716165679 forward_v I I I I #
coedge $-1 $478 $479 $480 $481 reversed $201 $-1 #
coedge $-1 $323 $203 $482 $483 reversed $128 $-1 #
coedge $-1 $203 $322 $478 $484 reversed $128 $-1 #
coedge $-1 $480 $485 $203 $325 forward $475 $-1 #
edge $-1 $486 19.690460524285946 $487 26.301778774148104 $324 $488 forward 7 unknown #
loop $-1 $-1 $331 $204 #
plane-surface $-1 8.9029189946381138 -9.8104914959407665 48.980243275017074 0 0.74314483375859142 0.66913059716165679 1 0 0 forward_v I I I I #
loop $-1 $-1 $489 $130 #
coedge $-1 $329 $329 $330 $490 reversed $205 $-1 #
coedge $-1 $330 $330 $329 $490 forward $207 $-1 #
coedge $-1 $331 $331 $208 $332 forward $326 $-1 #
edge $-1 $491 1.5937087072809521e-015 $491 6.2831853071796022 $331 $492 forward 7 unknown #
loop $-1 $-1 $338 $209 #
plane-surface $-1 8.9029189946381138 -9.8104914959407665 48.980243275017074 0 0.74314483375859142 0.66913059716165679 1 0 0 forward_v I I I I #
loop $-1 $-1 $493 $133 #
coedge $-1 $336 $336 $337 $494 reversed $210 $-1 #
coedge $-1 $337 $337 $336 $494 forward $212 $-1 #
coedge $-1 $338 $338 $213 $339 forward $333 $-1 #
edge $-1 $495 1.5937087072809521e-015 $495 6.2831853071796022 $338 $496 forward 7 unknown #
face $-1 $497 $498 $51 $-1 $499 reversed single #
loop $-1 $-1 $500 $214 #
plane-surface $-1 -72.123783074434641 0 0 1 0 0 0 0 -1 forward_v I I I I #
coedge $-1 $501 $351 $502 $503 forward $215 $-1 #
coedge $-1 $504 $217 $501 $505 forward $137 $-1 #
coedge $-1 $217 $504 $506 $507 forward $137 $-1 #
coedge $-1 $354 $353 $217 $347 reversed $355 $-1 #
edge $-1 $508 -29.002710510635112 $509 29.002710510635112 $346 $510 forward 7 unknown #
coedge $-1 $219 $218 $511 $512 forward $86 $-1 #
coedge $-1 $513 $514 $218 $350 reversed $498 $-1 #
edge $-1 $357 -72.123783074434641 $515 72.123783074434641 $349 $516 forward 7 unknown #
coedge $-1 $343 $517 $219 $352 reversed $215 $-1 #
edge $-1 $518 -72.123783074434641 $356 72.123783074434641 $351 $519 forward 7 unknown #
coedge $-1 $346 $220 $517 $520 forward $355 $-1 #
coedge $-1 $220 $346 $513 $521 reversed $355 $-1 #
loop $-1 $-1 $353 $497 #
vertex $-1 $221 $522 #
vertex $-1 $221 $523 #
straight-curve $-1 72.123783074434641 0 13.216427283629912 0 1 0 I I #
face $-1 $524 $372 $52 $-1 $525 forward single #
loop $-1 $-1 $526 $222 #
plane-surface $-1 -72.123783074434641 0 0 1 0 0 0 0 -1 forward_v I I I I #
coedge $-1 $527 $528 $227 $369 forward $223 $-1 #
coedge $-1 $529 $225 $530 $531 reversed $141 $-1 #
coedge $-1 $225 $529 $527 $532 reversed $141 $-1 #
coedge $-1 $227 $226 $225 $366 reversed $89 $-1 #
edge $-1 $533 -29.002710510635112 $534 29.002710510635112 $365 $535 forward 7 unknown #
coedge $-1 $536 $530 $226 $368 forward $537 $-1 #
edge $-1 $534 1.8535548191948319 $373 8.193099916021664 $367 $538 forward 7 unknown #
edge $-1 $374 -8.193099916021664 $533 -1.8535548191948319 $362 $539 forward 7 unknown #
coedge $-1 $540 $228 $528 $541 forward $372 $-1 #
coedge $-1 $228 $540 $536 $542 forward $372 $-1 #
loop $-1 $-1 $228 $359 #
vertex $-1 $368 $543 #
vertex $-1 $541 $544 #
straight-curve $-1 -60.029415019046077 0 13.216427283629912 0 1 0 I I #
face $-1 $545 $546 $53 $-1 $547 reversed single #
loop $-1 $-1 $548 $230 #
plane-surface $-1 0 -29.002710510635112 0 0 1 0 0 0 1 forward_v I I I I #
coedge $-1 $549 $550 $381 $551 forward $231 $-1 #
coedge $-1 $552 $233 $384 $553 reversed $145 $-1 #
coedge $-1 $233 $552 $379 $551 reversed $145 $-1 #
coedge $-1 $554 $387 $233 $383 forward $546 $-1 #
edge $-1 $555 1.8535548191948319 $556 8.193099916021664 $382 $557 forward 7 unknown #
coedge $-1 $235 $234 $380 $553 forward $92 $-1 #
coedge $-1 $558 $548 $234 $386 forward $377 $-1 #
edge $-1 $559 26.991115495675885 $392 39.085483551064456 $385 $560 forward 7 unknown #
coedge $-1 $382 $561 $235 $388 forward $546 $-1 #
edge $-1 $393 -39.085483551064456 $555 -26.991115495675885 $387 $562 forward 7 unknown #
coedge $-1 $563 $236 $561 $564 reversed $391 $-1 #
coedge $-1 $236 $563 $558 $565 forward $391 $-1 #
loop $-1 $-1 $236 $545 #
vertex $-1 $386 $566 #
vertex $-1 $237 $567 #
straight-curve $-1 72.123783074434641 0 6.8768821868030798 0 1 0 I I #
face $-1 $-1 $568 $54 $-1 $569 reversed single #
loop $-1 $-1 $244 $238 #
plane-surface $-1 0 0 13.216427283629912 0 0 1 1 0 0 forward_v I I I I #
coedge $-1 $570 $571 $572 $573 reversed $239 $-1 #
coedge $-1 $574 $241 $243 $405 forward $149 $-1 #
coedge $-1 $241 $574 $570 $575 forward $149 $-1 #
coedge $-1 $572 $244 $241 $402 forward $396 $-1 #
edge $-1 $408 15.268778364093873 $576 29.327976238148974 $401 $577 forward 7 unknown #
coedge $-1 $578 $579 $242 $404 forward $568 $-1 #
edge $-1 $580 -40.478089626279875 $407 -33.115833877347555 $403 $581 forward 7 unknown #
edge $-1 $408 -9.2185428527760234 $580 -2.3448253187574213e-014 $243 $582 forward 7 unknown #
coedge $-1 $244 $572 $578 $583 forward $396 $-1 #
vertex $-1 $404 $584 #
vertex $-1 $245 $585 #
straight-curve $-1 -37.567155665215296 -72.101970130650585 13.216427283629912 0 1 0 I I #
coedge $-1 $410 $410 $-1 $586 reversed $248 $-1 #
edge $-1 $587 0 $587 6.2831853071796004 $249 $588 forward 7 unknown #
vertex $-1 $252 $589 #
ellipse-curve $-1 -48.81451396445938 -26.228781770752796 9.5352994091637449 0 -0.79863551827123203 0.60181501223851219 1 0 0 1 I I #
coedge $-1 $414 $414 $-1 $590 reversed $255 $-1 #
edge $-1 $591 0 $591 6.2831853071796004 $256 $592 forward 7 unknown #
vertex $-1 $259 $593 #
ellipse-curve $-1 -44.596754602242846 -26.228781770752796 9.5352994091637449 0 -0.79863551827123203 0.60181501223851219 1 0 0 1 I I #
coedge $-1 $418 $418 $-1 $594 reversed $262 $-1 #
edge $-1 $595 0 $595 6.2831853071796004 $263 $596 forward 7 unknown #
vertex $-1 $266 $597 #
ellipse-curve $-1 -40.378995240026313 -26.228781770752796 9.5352994091637449 0 -0.79863551827123203 0.60181501223851219 1 0 0 1 I I #
face $-1 $-1 $434 $58 $-1 $598 forward single #
loop $-1 $-1 $599 $267 #
plane-surface $-1 0 -29.002710510635112 0 0 1 0 0 0 1 forward_v I I I I #
coedge $-1 $600 $601 $602 $603 reversed $268 $-1 #
coedge $-1 $604 $270 $272 $432 forward $168 $-1 #
coedge $-1 $270 $604 $600 $605 forward $168 $-1 #
coedge $-1 $602 $273 $270 $429 forward $434 $-1 #
edge $-1 $436 -14.745929145429166 $606 -0.68673127137406453 $428 $607 forward 7 unknown #
coedge $-1 $608 $609 $271 $431 forward $423 $-1 #
edge $-1 $610 -40.478089626279875 $435 -33.115833877347555 $430 $611 forward 7 unknown #
edge $-1 $436 -9.2185428527760234 $610 -2.3448253187574213e-014 $272 $612 forward 7 unknown #
coedge $-1 $273 $602 $608 $613 forward $434 $-1 #
loop $-1 $-1 $602 $422 #
vertex $-1 $431 $614 #
vertex $-1 $274 $615 #
straight-curve $-1 22.462259353830781 -72.101970130650585 13.216427283629912 0 1 0 I I #
coedge $-1 $438 $438 $-1 $616 reversed $277 $-1 #
edge $-1 $617 0 $617 6.2831853071796004 $278 $618 forward 7 unknown #
vertex $-1 $281 $619 #
ellipse-curve $-1 11.214901054586704 -26.228781770752796 9.5352994091637449 0 -0.79863551827123203 0.60181501223851219 1 0 0 1 I I #
coedge $-1 $442 $442 $-1 $620 reversed $284 $-1 #
edge $-1 $621 0 $621 6.2831853071796004 $285 $622 forward 7 unknown #
vertex $-1 $288 $623 #
ellipse-curve $-1 15.43266041680323 -26.228781770752796 9.5352994091637449 0 -0.79863551827123203 0.60181501223851219 1 0 0 1 I I #
coedge $-1 $446 $446 $-1 $624 reversed $291 $-1 #
edge $-1 $625 0 $625 6.2831853071796004 $292 $626 forward 7 unknown #
vertex $-1 $295 $627 #
ellipse-curve $-1 19.650419779019757 -26.228781770752796 9.5352994091637449 0 -0.79863551827123203 0.60181501223851219 1 0 0 1 I I #
face $-1 $-1 $628 $62 $-1 $629 forward single #
loop $-1 $-1 $456 $296 #
plane-surface $-1 0 0 13.216427283629912 0 0 1 1 0 0 forward_v I I I I #
coedge $-1 $630 $631 $455 $632 forward $297 $-1 #
coedge $-1 $455 $299 $301 $461 reversed $187 $-1 #
coedge $-1 $299 $454 $453 $632 reversed $187 $-1 #
coedge $-1 $633 $302 $299 $457 forward $451 $-1 #
edge $-1 $464 -26.301778774148104 $634 -19.690460524285946 $456 $635 forward 7 unknown #
coedge $-1 $301 $300 $630 $636 reversed $119 $-1 #
coedge $-1 $637 $638 $300 $460 forward $628 $-1 #
edge $-1 $639 -40.256523413188383 $463 -30.376063189270518 $459 $640 forward 7 unknown #
edge $-1 $641 -58.005421021270237 $464 -48.124960797352372 $454 $642 forward 7 unknown #
coedge $-1 $302 $633 $637 $643 forward $451 $-1 #
vertex $-1 $460 $644 #
vertex $-1 $303 $645 #
straight-curve $-1 -25.563248012203978 22.391392260772953 13.216427283629908 1 0 0 I I #
coedge $-1 $466 $466 $-1 $646 reversed $306 $-1 #
edge $-1 $647 0 $647 6.2831853071796004 $307 $648 forward 7 unknown #
vertex $-1 $310 $649 #
ellipse-curve $-1 -54.942032736395724 25.697051385704029 9.5451207983490036 0 0.74314483375859142 0.66913059716165679 1 0 0 1 I I #
coedge $-1 $470 $470 $-1 $650 reversed $313 $-1 #
edge $-1 $651 0 $651 6.2831853071796004 $314 $652 forward 7 unknown #
vertex $-1 $317 $653 #
ellipse-curve $-1 -47.310959312420195 25.697051385704029 9.5451207983490036 0 0.74314483375859142 0.66913059716165679 1 0 0 1 I I #
face $-1 $-1 $654 $65 $-1 $655 reversed single #
loop $-1 $-1 $324 $318 #
plane-surface $-1 0 0 13.216427283629912 0 0 1 1 0 0 forward_v I I I I #
coedge $-1 $656 $657 $658 $659 reversed $319 $-1 #
coedge $-1 $660 $321 $323 $484 forward $201 $-1 #
coedge $-1 $321 $660 $656 $661 forward $201 $-1 #
coedge $-1 $658 $324 $321 $481 forward $475 $-1 #
edge $-1 $487 -4.451459497319064 $662 13.354378491957178 $480 $663 forward 7 unknown #
coedge $-1 $664 $665 $322 $483 forward $654 $-1 #
edge $-1 $666 -66.876537362594689 $486 -59.533924392032873 $482 $667 forward 7 unknown #
edge $-1 $487 48.124960797352372 $666 58.005421021270237 $323 $668 forward 7 unknown #
coedge $-1 $324 $658 $664 $669 forward $475 $-1 #
vertex $-1 $483 $670 #
vertex $-1 $325 $671 #
straight-curve $-1 -7.1054273576010019e-015 48.693171034921058 13.216427283629912 0 -1 0 I I #
coedge $-1 $489 $489 $-1 $672 reversed $328 $-1 #
edge $-1 $673 0 $673 6.2831853071796004 $329 $674 forward 7 unknown #
vertex $-1 $332 $675 #
ellipse-curve $-1 5.0873822826503527 25.697051385704029 9.5451207983490036 0 0.74314483375859142 0.66913059716165679 1 0 0 1 I I #
coedge $-1 $493 $493 $-1 $676 reversed $335 $-1 #
edge $-1 $677 0 $677 6.2831853071796004 $336 $678 forward 7 unknown #
vertex $-1 $339 $679 #
ellipse-curve $-1 12.718455706625889 25.697051385704029 9.5451207983490036 0 0.74314483375859142 0.66913059716165679 1 0 0 1 I I #
face $-1 $-1 $355 $51 $-1 $680 reversed single #
loop $-1 $-1 $513 $340 #
plane-surface $-1 0 29.002710510635112 0 0 -1 0 0 0 -1 forward_v I I I I #
coedge $-1 $681 $511 $514 $682 forward $341 $-1 #
coedge $-1 $517 $343 $344 $505 reversed $215 $-1 #
coedge $-1 $511 $681 $343 $503 reversed $341 $-1 #
edge $-1 $518 -13.216427283629912 $683 13.216427283629912 $502 $684 forward 7 unknown #
coedge $-1 $345 $344 $681 $685 forward $137 $-1 #
edge $-1 $509 -72.123783074434641 $683 72.123783074434641 $501 $686 forward 7 unknown #
coedge $-1 $514 $513 $345 $507 reversed $498 $-1 #
edge $-1 $687 -72.123783074434641 $508 72.123783074434641 $506 $688 forward 7 unknown #
vertex $-1 $347 $689 #
vertex $-1 $520 $690 #
straight-curve $-1 72.123783074434641 0 -13.216427283629912 0 -1 0 I I #
coedge $-1 $500 $502 $348 $512 reversed $341 $-1 #
edge $-1 $515 -29.002710510635112 $518 29.002710510635112 $511 $691 forward 7 unknown #
coedge $-1 $506 $349 $354 $521 forward $498 $-1 #
coedge $-1 $349 $506 $500 $682 reversed $498 $-1 #
vertex $-1 $350 $692 #
straight-curve $-1 0 29.002710510635112 13.216427283629912 -1 0 0 I I #
coedge $-1 $351 $501 $353 $520 reversed $215 $-1 #
vertex $-1 $512 $693 #
straight-curve $-1 0 -29.002710510635112 13.216427283629912 1 0 0 I I #
edge $-1 $356 -13.216427283629912 $509 13.216427283629912 $353 $694 forward 7 unknown #
edge $-1 $357 -13.216427283629912 $508 13.216427283629912 $354 $695 forward 7 unknown #
point $-1 72.123783074434641 -29.002710510635112 13.216427283629912 #
point $-1 72.123783074434641 29.002710510635112 13.216427283629912 #
face $-1 $-1 $537 $52 $-1 $696 reversed single #
plane-surface $-1 0 0 13.216427283629912 0 0 1 1 0 0 forward_v I I I I #
coedge $-1 $697 $698 $529 $699 forward $360 $-1 #
coedge $-1 $700 $362 $364 $532 forward $223 $-1 #
coedge $-1 $362 $700 $370 $541 reversed $223 $-1 #
coedge $-1 $364 $363 $526 $699 reversed $141 $-1 #
coedge $-1 $367 $701 $363 $531 forward $537 $-1 #
edge $-1 $702 -39.085483551064463 $534 -26.991115495675899 $530 $703 forward 7 unknown #
edge $-1 $533 26.991115495675899 $704 39.085483551064463 $527 $705 forward 7 unknown #
vertex $-1 $532 $706 #
vertex $-1 $531 $707 #
straight-curve $-1 -60.029415019046077 0 6.8768821868030798 0 -1 0 I I #
coedge $-1 $701 $367 $371 $542 reversed $537 $-1 #
loop $-1 $-1 $367 $524 #
straight-curve $-1 -60.029415019046077 -29.002710510635112 5.0233273676082479 0 0 1 I I #
straight-curve $-1 -60.029415019046077 29.002710510635112 5.0233273676082479 0 0 -1 I I #
coedge $-1 $371 $370 $708 $709 forward $372 $-1 #
edge $-1 $374 60.029415019046077 $710 72.123783074434641 $528 $711 forward 7 unknown #
edge $-1 $712 -72.123783074434641 $373 -60.029415019046077 $536 $713 forward 7 unknown #
point $-1 -60.029415019046077 -29.002710510635112 13.216427283629912 #
point $-1 -60.029415019046077 29.002710510635112 13.216427283629912 #
face $-1 $-1 $391 $53 $-1 $714 reversed single #
loop $-1 $-1 $382 $376 #
plane-surface $-1 0 29.002710510635112 0 0 -1 0 0 0 -1 forward_v I I I I #
coedge $-1 $385 $715 $552 $716 forward $377 $-1 #
coedge $-1 $717 $379 $715 $718 forward $231 $-1 #
coedge $-1 $379 $717 $554 $719 forward $231 $-1 #
edge $-1 $556 -29.002710510635112 $720 29.002710510635112 $379 $721 forward 7 unknown #
coedge $-1 $381 $380 $548 $716 reversed $145 $-1 #
edge $-1 $559 -29.002710510635112 $555 29.002710510635112 $380 $722 forward 7 unknown #
coedge $-1 $561 $382 $550 $719 reversed $546 $-1 #
vertex $-1 $388 $723 #
vertex $-1 $383 $724 #
straight-curve $-1 60.029415019046056 29.002710510635112 5.0233273676082479 0 0 1 I I #
coedge $-1 $715 $385 $390 $565 reversed $377 $-1 #
vertex $-1 $386 $725 #
straight-curve $-1 33.038299523370171 -29.002710510635112 6.8768821868030798 1 0 0 I I #
coedge $-1 $387 $554 $389 $564 forward $546 $-1 #
straight-curve $-1 33.038299523370171 29.002710510635112 6.8768821868030798 -1 0 0 I I #
coedge $-1 $390 $389 $717 $726 reversed $391 $-1 #
edge $-1 $727 -13.216427283629912 $393 -6.8768821868030798 $389 $728 forward 7 unknown #
edge $-1 $729 -13.216427283629912 $392 -6.8768821868030798 $390 $730 forward 7 unknown #
point $-1 72.123783074434627 -29.002710510635112 6.8768821868030798 #
point $-1 72.123783074434627 29.002710510635112 6.8768821868030798 #
loop $-1 $-1 $403 $395 #
plane-surface $-1 0 -29.002710510635112 0 0 1 0 0 0 1 forward_v I I I I #
coedge $-1 $571 $398 $400 $575 reversed $239 $-1 #
coedge $-1 $398 $570 $731 $732 reversed $239 $-1 #
coedge $-1 $406 $401 $398 $573 forward $396 $-1 #
edge $-1 $576 -48.647117099780111 $733 -43.099259620015474 $572 $734 forward 7 unknown #
coedge $-1 $400 $399 $579 $735 reversed $149 $-1 #
edge $-1 $736 2.3448253187574213e-014 $576 9.2185428527760234 $570 $737 forward 7 unknown #
vertex $-1 $402 $738 #
straight-curve $-1 -22.298377301121423 -23.454853030870474 13.216427283629912 -1 0 0 I I #
coedge $-1 $731 $403 $406 $583 reversed $568 $-1 #
coedge $-1 $403 $731 $574 $735 forward $568 $-1 #
vertex $-1 $404 $739 #
straight-curve $-1 -37.567155665215296 -29.002710510635112 46.332261160977467 0 0 1 I I #
straight-curve $-1 -37.567155665215296 -29.002710510635126 5.8541715346975707 0 -0.60181501223851219 -0.79863551827123203 I I #
edge $-1 $733 -51.626353539270397 $407 -37.567155665215296 $578 $740 forward 7 unknown #
point $-1 -37.567155665215296 -29.002710510635112 13.216427283629912 #
point $-1 -37.567155665215296 -23.454853030870474 13.216427283629912 #
edge $-1 $741 1 $741 0 $410 $-1 forward 7 unknown #
vertex $-1 $411 $742 #
ellipse-curve $-1 -48.81451396445938 -24.130081597658485 7.9538154387416187 0 -0.79863551827123203 0.60181501223851219 1 0 0 1 I I #
point $-1 -47.81451396445938 -26.228781770752786 9.535299409163736 #
edge $-1 $743 1 $743 0 $414 $-1 forward 7 unknown #
vertex $-1 $415 $744 #
ellipse-curve $-1 -44.596754602242846 -24.130081597658485 7.9538154387416187 0 -0.79863551827123203 0.60181501223851219 1 0 0 1 I I #
point $-1 -43.596754602242846 -26.228781770752786 9.535299409163736 #
edge $-1 $745 1 $745 0 $418 $-1 forward 7 unknown #
vertex $-1 $419 $746 #
ellipse-curve $-1 -40.378995240026313 -24.130081597658485 7.9538154387416187 0 -0.79863551827123203 0.60181501223851219 1 0 0 1 I I #
point $-1 -39.378995240026313 -26.228781770752786 9.535299409163736 #
plane-surface $-1 0 0 13.216427283629912 0 0 1 1 0 0 forward_v I I I I #
coedge $-1 $609 $608 $601 $747 forward $423 $-1 #
coedge $-1 $601 $425 $427 $605 reversed $268 $-1 #
coedge $-1 $425 $600 $599 $747 reversed $268 $-1 #
coedge $-1 $433 $428 $425 $603 forward $434 $-1 #
edge $-1 $606 -48.647117099780111 $748 -43.099259620015474 $602 $749 forward 7 unknown #
coedge $-1 $427 $426 $609 $750 reversed $168 $-1 #
edge $-1 $751 2.3448253187574213e-014 $606 9.2185428527760234 $600 $752 forward 7 unknown #
vertex $-1 $429 $753 #
straight-curve $-1 7.7163302084016152 -23.454853030870474 13.216427283629912 -1 0 0 I I #
coedge $-1 $599 $430 $433 $613 reversed $423 $-1 #
coedge $-1 $430 $599 $604 $750 forward $423 $-1 #
vertex $-1 $431 $754 #
straight-curve $-1 22.462259353830781 -29.002710510635112 46.332261160977467 0 0 1 I I #
straight-curve $-1 22.462259353830781 -29.002710510635126 5.8541715346975707 0 -0.60181501223851219 -0.79863551827123203 I I #
edge $-1 $748 8.4030614797756797 $435 22.462259353830781 $608 $755 forward 7 unknown #
point $-1 22.462259353830781 -29.002710510635112 13.216427283629912 #
point $-1 22.462259353830781 -23.454853030870474 13.216427283629912 #
edge $-1 $756 1 $756 0 $438 $-1 forward 7 unknown #
vertex $-1 $439 $757 #
ellipse-curve $-1 11.214901054586704 -24.130081597658485 7.9538154387416187 0 -0.79863551827123203 0.60181501223851219 1 0 0 1 I I #
point $-1 12.214901054586704 -26.228781770752786 9.535299409163736 #
edge $-1 $758 1 $758 0 $442 $-1 forward 7 unknown #
vertex $-1 $443 $759 #
ellipse-curve $-1 15.43266041680323 -24.130081597658485 7.9538154387416187 0 -0.79863551827123203 0.60181501223851219 1 0 0 1 I I #
point $-1 16.43266041680323 -26.228781770752786 9.535299409163736 #
edge $-1 $760 1 $760 0 $446 $-1 forward 7 unknown #
vertex $-1 $447 $761 #
ellipse-curve $-1 19.650419779019757 -24.130081597658485 7.9538154387416187 0 -0.79863551827123203 0.60181501223851219 1 0 0 1 I I #
point $-1 20.650419779019757 -26.228781770752786 9.535299409163736 #
loop $-1 $-1 $459 $450 #
plane-surface $-1 -60.029415019046077 0 10.046654735216496 -1 0 0 0 0 1 forward_v I I I I #
coedge $-1 $762 $453 $458 $636 forward $297 $-1 #
coedge $-1 $453 $762 $633 $763 reversed $297 $-1 #
edge $-1 $634 59.533924392032873 $641 66.876537362594689 $453 $764 forward 7 unknown #
coedge $-1 $462 $456 $631 $763 forward $451 $-1 #
vertex $-1 $763 $765 #
straight-curve $-1 -42.223577029769835 48.693171034921058 13.216427283629912 0 1 0 I I #
edge $-1 $641 16.660329017565857 $639 34.466167006842099 $630 $766 forward 7 unknown #
coedge $-1 $638 $459 $462 $643 reversed $628 $-1 #
coedge $-1 $459 $637 $762 $767 reversed $628 $-1 #
vertex $-1 $767 $768 #
straight-curve $-1 -60.029415019046077 2.065838959516145 35.790241712660823 0 -0.66913059716165679 0.74314483375859142 I I #
vertex $-1 $636 $769 #
straight-curve $-1 -42.223577029769835 -9.8104914959407665 48.980243275017074 0 -0.66913059716165679 0.74314483375859142 I I #
edge $-1 $770 -29.002710510635112 $463 -22.391392260772953 $462 $771 forward 7 unknown #
point $-1 -60.029415019046077 22.391392260772953 13.216427283629912 #
point $-1 -42.223577029769835 22.391392260772953 13.216427283629912 #
edge $-1 $772 1 $772 0 $466 $-1 forward 7 unknown #
vertex $-1 $467 $773 #
ellipse-curve $-1 -54.942032736395724 23.794657764057149 7.8321979302037352 0 0.74314483375859142 0.66913059716165679 1 0 0 1 I I #
point $-1 -53.942032736395724 25.697051385704061 9.5451207983490303 #
edge $-1 $774 1 $774 0 $470 $-1 forward 7 unknown #
vertex $-1 $471 $775 #
ellipse-curve $-1 -47.310959312420195 23.794657764057149 7.8321979302037352 0 0.74314483375859142 0.66913059716165679 1 0 0 1 I I #
point $-1 -46.310959312420195 25.697051385704061 9.5451207983490303 #
loop $-1 $-1 $482 $474 #
plane-surface $-1 0 29.002710510635112 0 0 -1 0 0 0 -1 forward_v I I I I #
coedge $-1 $657 $477 $479 $661 reversed $319 $-1 #
coedge $-1 $477 $656 $776 $777 reversed $319 $-1 #
coedge $-1 $485 $480 $477 $659 forward $475 $-1 #
edge $-1 $662 -26.301778774148104 $778 -19.690460524285946 $658 $779 forward 7 unknown #
coedge $-1 $479 $478 $665 $780 reversed $201 $-1 #
edge $-1 $781 -58.005421021270237 $662 -48.124960797352372 $656 $782 forward 7 unknown #
vertex $-1 $481 $783 #
straight-curve $-1 4.4514594973190569 22.391392260772953 13.216427283629908 1 0 0 I I #
coedge $-1 $776 $482 $485 $669 reversed $654 $-1 #
coedge $-1 $482 $776 $660 $780 forward $654 $-1 #
vertex $-1 $483 $784 #
straight-curve $-1 -7.1054273576010019e-015 29.002710510635112 72.750351675662785 0 0 1 I I #
straight-curve $-1 -7.1054273576010019e-015 -9.8104914959407665 48.980243275017074 0 0.66913059716165679 -0.74314483375859142 I I #
edge $-1 $778 -17.805837989276235 $486 7.1054273576010019e-015 $664 $785 forward 7 unknown #
point $-1 -7.1054273576010019e-015 29.002710510635112 13.216427283629912 #
point $-1 -7.1054273576010019e-015 22.391392260772953 13.216427283629912 #
edge $-1 $786 1 $786 0 $489 $-1 forward 7 unknown #
vertex $-1 $490 $787 #
ellipse-curve $-1 5.0873822826503527 23.794657764057149 7.8321979302037352 0 0.74314483375859142 0.66913059716165679 1 0 0 1 I I #
point $-1 6.0873822826503527 25.697051385704061 9.5451207983490303 #
edge $-1 $788 1 $788 0 $493 $-1 forward 7 unknown #
vertex $-1 $494 $789 #
ellipse-curve $-1 12.718455706625889 23.794657764057149 7.8321979302037352 0 0.74314483375859142 0.66913059716165679 1 0 0 1 I I #
point $-1 13.718455706625889 25.697051385704061 9.5451207983490303 #
plane-surface $-1 72.123783074434641 0 0 -1 0 0 0 0 1 forward_v I I I I #
coedge $-1 $502 $500 $504 $685 reversed $341 $-1 #
edge $-1 $515 -13.216427283629912 $687 13.216427283629912 $514 $790 forward 7 unknown #
vertex $-1 $685 $791 #
straight-curve $-1 -72.123783074434641 -29.002710510635112 0 0 0 -1 I I #
edge $-1 $683 -29.002710510635112 $687 29.002710510635112 $681 $792 forward 7 unknown #
straight-curve $-1 0 -29.002710510635112 -13.216427283629912 -1 0 0 I I #
vertex $-1 $507 $793 #
straight-curve $-1 0 29.002710510635112 -13.216427283629912 1 0 0 I I #
point $-1 72.123783074434641 29.002710510635112 -13.216427283629912 #
point $-1 72.123783074434641 -29.002710510635112 -13.216427283629912 #
straight-curve $-1 -72.123783074434641 0 13.216427283629912 0 -1 0 I I #
point $-1 -72.123783074434641 29.002710510635112 13.216427283629912 #
point $-1 -72.123783074434641 -29.002710510635112 13.216427283629912 #
straight-curve $-1 72.123783074434641 -29.002710510635112 0 0 0 -1 I I #
straight-curve $-1 72.123783074434641 29.002710510635112 0 0 0 -1 I I #
plane-surface $-1 0 -29.002710510635112 0 0 1 0 0 0 1 forward_v I I I I #
coedge $-1 $708 $526 $701 $794 reversed $360 $-1 #
coedge $-1 $526 $708 $700 $795 forward $360 $-1 #
edge $-1 $704 -29.002710510635112 $702 29.002710510635112 $526 $796 forward 7 unknown #
coedge $-1 $528 $527 $698 $795 reversed $223 $-1 #
coedge $-1 $530 $536 $697 $794 forward $537 $-1 #
vertex $-1 $699 $797 #
straight-curve $-1 -33.038299523370178 -29.002710510635112 6.8768821868030798 1 0 0 I I #
vertex $-1 $699 $798 #
straight-curve $-1 -33.038299523370178 29.002710510635112 6.8768821868030798 -1 0 0 I I #
point $-1 -60.029415019046077 29.002710510635112 6.8768821868030798 #
point $-1 -60.029415019046077 -29.002710510635112 6.8768821868030798 #
coedge $-1 $698 $697 $540 $709 reversed $360 $-1 #
edge $-1 $710 -29.002710510635112 $712 29.002710510635112 $708 $799 forward 7 unknown #
vertex $-1 $541 $800 #
straight-curve $-1 0 29.002710510635112 13.216427283629912 -1 0 0 I I #
vertex $-1 $709 $801 #
straight-curve $-1 0 -29.002710510635112 13.216427283629912 1 0 0 I I #
plane-surface $-1 72.123783074434641 0 0 -1 0 0 0 0 1 forward_v I I I I #
coedge $-1 $548 $558 $549 $718 reversed $377 $-1 #
edge $-1 $720 -8.193099916021664 $559 -1.8535548191948319 $548 $802 forward 7 unknown #
coedge $-1 $550 $549 $563 $726 forward $231 $-1 #
edge $-1 $720 60.029415019046056 $729 72.123783074434641 $715 $803 forward 7 unknown #
edge $-1 $727 -72.123783074434641 $556 -60.029415019046056 $554 $804 forward 7 unknown #
vertex $-1 $718 $805 #
straight-curve $-1 60.029415019046056 0 13.216427283629912 0 -1 0 I I #
straight-curve $-1 60.029415019046056 0 6.8768821868030798 0 1 0 I I #
point $-1 60.029415019046056 29.002710510635112 6.8768821868030798 #
point $-1 60.029415019046056 29.002710510635112 13.216427283629912 #
point $-1 60.029415019046056 -29.002710510635112 6.8768821868030798 #
edge $-1 $729 -29.002710510635112 $727 29.002710510635112 $563 $806 forward 7 unknown #
vertex $-1 $726 $807 #
straight-curve $-1 72.123783074434641 29.002710510635112 0 0 0 -1 I I #
vertex $-1 $726 $808 #
straight-curve $-1 72.123783074434641 -29.002710510635112 0 0 0 -1 I I #
coedge $-1 $579 $578 $571 $732 forward $568 $-1 #
edge $-1 $733 33.115833877347555 $736 40.478089626279875 $731 $809 forward 7 unknown #
vertex $-1 $583 $810 #
straight-curve $-1 -51.626353539270397 -72.101970130650585 13.216427283629912 0 -1 0 I I #
edge $-1 $736 -29.327976238148974 $580 -15.268778364093873 $579 $811 forward 7 unknown #
vertex $-1 $735 $812 #
straight-curve $-1 -51.626353539270397 -29.002710510635126 5.8541715346975707 0 0.60181501223851219 0.79863551827123203 I I #
point $-1 -51.626353539270397 -23.454853030870474 13.216427283629912 #
point $-1 -37.567155665215296 -29.002710510635112 5.8541715346975893 #
straight-curve $-1 0 -29.002710510635112 13.216427283629912 1 0 0 I I #
vertex $-1 $586 $813 #
point $-1 -47.81451396445938 -24.130081597658485 7.9538154387416187 #
vertex $-1 $590 $814 #
point $-1 -43.596754602242846 -24.130081597658485 7.9538154387416187 #
vertex $-1 $594 $815 #
point $-1 -39.378995240026313 -24.130081597658485 7.9538154387416187 #
edge $-1 $748 33.115833877347555 $751 40.478089626279875 $599 $816 forward 7 unknown #
vertex $-1 $613 $817 #
straight-curve $-1 8.4030614797756797 -72.101970130650585 13.216427283629912 0 -1 0 I I #
edge $-1 $751 0.68673127137406453 $610 14.745929145429166 $609 $818 forward 7 unknown #
vertex $-1 $750 $819 #
straight-curve $-1 8.4030614797756797 -29.002710510635126 5.8541715346975707 0 0.60181501223851219 0.79863551827123203 I I #
point $-1 8.4030614797756797 -23.454853030870474 13.216427283629912 #
point $-1 22.462259353830781 -29.002710510635112 5.8541715346975893 #
straight-curve $-1 0 -29.002710510635112 13.216427283629912 1 0 0 I I #
vertex $-1 $616 $820 #
point $-1 12.214901054586704 -24.130081597658485 7.9538154387416187 #
vertex $-1 $620 $821 #
point $-1 16.43266041680323 -24.130081597658485 7.9538154387416187 #
vertex $-1 $624 $822 #
point $-1 20.650419779019757 -24.130081597658485 7.9538154387416187 #
coedge $-1 $631 $630 $638 $767 forward $297 $-1 #
edge $-1 $634 42.223577029769835 $770 60.029415019046077 $631 $823 forward 7 unknown #
straight-curve $-1 -42.223577029769835 29.002710510635112 72.750351675662785 0 0 -1 I I #
point $-1 -42.223577029769835 29.002710510635112 13.216427283629912 #
straight-curve $-1 -25.563248012203978 29.002710510635112 5.8738143130680882 -1 0 0 I I #
edge $-1 $639 -66.876537362594689 $770 -59.533924392032873 $762 $824 forward 7 unknown #
point $-1 -60.029415019046077 29.002710510635112 5.8738143130680953 #
point $-1 -42.223577029769835 29.002710510635112 5.8738143130680953 #
vertex $-1 $643 $825 #
straight-curve $-1 -60.029415019046077 0 13.216427283629912 0 -1 0 I I #
vertex $-1 $646 $826 #
point $-1 -53.942032736395724 23.794657764057149 7.8321979302037352 #
vertex $-1 $650 $827 #
point $-1 -46.310959312420195 23.794657764057149 7.8321979302037352 #
coedge $-1 $665 $664 $657 $777 forward $654 $-1 #
edge $-1 $778 59.533924392032873 $781 66.876537362594689 $776 $828 forward 7 unknown #
vertex $-1 $669 $829 #
straight-curve $-1 17.805837989276235 48.693171034921058 13.216427283629912 0 1 0 I I #
edge $-1 $781 -13.354378491957178 $666 4.451459497319064 $665 $830 forward 7 unknown #
vertex $-1 $780 $831 #
straight-curve $-1 17.805837989276235 -9.8104914959407665 48.980243275017074 0 -0.66913059716165679 0.74314483375859142 I I #
point $-1 17.805837989276235 22.391392260772953 13.216427283629912 #
point $-1 -7.1054273576010019e-015 29.002710510635112 5.8738143130680953 #
straight-curve $-1 0 29.002710510635112 13.216427283629912 -1 0 0 I I #
vertex $-1 $672 $832 #
point $-1 6.0873822826503527 23.794657764057149 7.8321979302037352 #
vertex $-1 $676 $833 #
point $-1 13.718455706625889 23.794657764057149 7.8321979302037352 #
straight-curve $-1 -72.123783074434641 29.002710510635112 0 0 0 -1 I I #
point $-1 -72.123783074434641 -29.002710510635112 -13.216427283629912 #
straight-curve $-1 -72.123783074434641 0 -13.216427283629912 0 1 0 I I #
point $-1 -72.123783074434641 29.002710510635112 -13.216427283629912 #
edge $-1 $712 -13.216427283629912 $702 -6.8768821868030798 $697 $834 forward 7 unknown #
edge $-1 $710 -13.216427283629912 $704 -6.8768821868030798 $700 $835 forward 7 unknown #
straight-curve $-1 -72.123783074434641 0 6.8768821868030798 0 -1 0 I I #
point $-1 -72.123783074434641 -29.002710510635112 6.8768821868030798 #
point $-1 -72.123783074434641 29.002710510635112 6.8768821868030798 #
straight-curve $-1 -72.123783074434641 0 13.216427283629912 0 -1 0 I I #
point $-1 -72.123783074434641 29.002710510635112 13.216427283629912 #
point $-1 -72.123783074434641 -29.002710510635112 13.216427283629912 #
straight-curve $-1 60.029415019046056 -29.002710510635112 5.0233273676082479 0 0 -1 I I #
straight-curve $-1 0 -29.002710510635112 13.216427283629912 1 0 0 I I #
straight-curve $-1 0 29.002710510635112 13.216427283629912 -1 0 0 I I #
point $-1 60.029415019046056 -29.002710510635112 13.216427283629912 #
straight-curve $-1 72.123783074434641 0 13.216427283629912 0 1 0 I I #
point $-1 72.123783074434641 29.002710510635112 13.216427283629912 #
point $-1 72.123783074434641 -29.002710510635112 13.216427283629912 #
straight-curve $-1 -51.626353539270397 -29.002710510635112 46.332261160977467 0 0 -1 I I #
point $-1 -51.626353539270397 -29.002710510635112 13.216427283629912 #
straight-curve $-1 -22.298377301121423 -29.002710510635112 5.8541715346975893 1 0 0 I I #
point $-1 -51.626353539270397 -29.002710510635112 5.8541715346975893 #
point $-1 -48.81451396445938 -23.331446079387252 7.352000426503106 #
point $-1 -44.596754602242846 -23.331446079387252 7.352000426503106 #
point $-1 -40.378995240026313 -23.331446079387252 7.352000426503106 #
straight-curve $-1 8.4030614797756797 -29.002710510635112 46.332261160977467 0 0 -1 I I #
point $-1 8.4030614797756797 -29.002710510635112 13.216427283629912 #
straight-curve $-1 7.7163302084016152 -29.002710510635112 5.8541715346975893 1 0 0 I I #
point $-1 8.4030614797756797 -29.002710510635112 5.8541715346975893 #
point $-1 11.214901054586704 -23.331446079387252 7.352000426503106 #
point $-1 15.43266041680323 -23.331446079387252 7.352000426503106 #
point $-1 19.650419779019757 -23.331446079387252 7.352000426503106 #
straight-curve $-1 0 29.002710510635112 13.216427283629912 -1 0 0 I I #
straight-curve $-1 -60.029415019046077 29.002710510635112 72.750351675662785 0 0 1 I I #
point $-1 -60.029415019046077 29.002710510635112 13.216427283629912 #
point $-1 -54.942032736395724 23.051512930298557 7.1630673330420773 #
point $-1 -47.310959312420195 23.051512930298557 7.1630673330420773 #
straight-curve $-1 17.805837989276235 29.002710510635112 72.750351675662785 0 0 -1 I I #
point $-1 17.805837989276235 29.002710510635112 13.216427283629912 #
straight-curve $-1 4.4514594973190569 29.002710510635112 5.8738143130680882 -1 0 0 I I #
point $-1 17.805837989276235 29.002710510635112 5.8738143130680953 #
point $-1 5.0873822826503527 23.051512930298557 7.1630673330420773 #
point $-1 12.718455706625889 23.051512930298557 7.1630673330420773 #
straight-curve $-1 -72.123783074434641 -29.002710510635112 0 0 0 -1 I I #
straight-curve $-1 -72.123783074434641 29.002710510635112 0 0 0 -1 I I #
End-of-ACIS-data 