500 0 12 0           
7 Unknown 11 ACIS 5.0 NT 24 Thu Mar 25 17:31:04 1999 
-1 9.9999999999999995e-007 1e-010 
body $-1 $12 $-1 $13 #
body $-1 $14 $-1 $15 #
body $-1 $16 $-1 $17 #
body $-1 $18 $-1 $19 #
body $-1 $20 $-1 $21 #
body $-1 $22 $-1 $23 #
body $-1 $24 $-1 $25 #
body $-1 $26 $-1 $27 #
body $-1 $28 $-1 $29 #
body $-1 $30 $-1 $31 #
body $-1 $32 $-1 $33 #
body $-1 $34 $-1 $35 #
lump $-1 $-1 $36 $0 #
transform $-1 1 0 0 0 1 0 0 0 1 66.0628070925016 45.486098538588472 10.218304127401035 1 rotate no_reflect no_shear #
lump $-1 $-1 $37 $1 #
transform $-1 1 0 0 0 1 0 0 0 1 66.0628070925016 45.486098538588472 10.218304127401035 1 rotate no_reflect no_shear #
lump $-1 $-1 $38 $2 #
transform $-1 1 0 0 0 1 0 0 0 1 66.0628070925016 45.486098538588472 10.218304127401035 1 rotate no_reflect no_shear #
lump $-1 $-1 $39 $3 #
transform $-1 1 0 0 0 1 0 0 0 1 66.0628070925016 45.486098538588472 10.218304127401035 1 rotate no_reflect no_shear #
lump $-1 $-1 $40 $4 #
transform $-1 1 0 0 0 1 0 0 0 1 66.0628070925016 45.486098538588472 10.218304127401035 1 rotate no_reflect no_shear #
lump $-1 $-1 $41 $5 #
transform $-1 1 0 0 0 1 0 0 0 1 66.0628070925016 45.486098538588472 10.218304127401035 1 rotate no_reflect no_shear #
lump $-1 $-1 $42 $6 #
transform $-1 1 0 0 0 1 0 0 0 1 66.0628070925016 45.486098538588472 10.218304127401035 1 rotate no_reflect no_shear #
lump $-1 $-1 $43 $7 #
transform $-1 1 0 0 0 1 0 0 0 1 66.0628070925016 45.486098538588472 10.218304127401035 1 rotate no_reflect no_shear #
lump $-1 $-1 $44 $8 #
transform $-1 1 0 0 0 1 0 0 0 1 66.0628070925016 45.486098538588472 10.218304127401035 1 rotate no_reflect no_shear #
lump $-1 $-1 $45 $9 #
transform $-1 1 0 0 0 1 0 0 0 1 66.0628070925016 45.486098538588472 10.218304127401035 1 rotate no_reflect no_shear #
lump $-1 $-1 $46 $10 #
transform $-1 1 0 0 0 1 0 0 0 1 66.0628070925016 45.486098538588472 10.218304127401035 1 rotate no_reflect no_shear #
lump $-1 $-1 $47 $11 #
transform $-1 1 0 0 0 1 0 0 0 1 66.0628070925016 45.486098538588472 10.218304127401035 1 rotate no_reflect no_shear #
shell $-1 $-1 $-1 $48 $-1 $12 #
shell $-1 $-1 $-1 $49 $-1 $14 #
shell $-1 $-1 $-1 $50 $-1 $16 #
shell $-1 $-1 $-1 $51 $-1 $18 #
shell $-1 $-1 $-1 $52 $-1 $20 #
shell $-1 $-1 $-1 $53 $-1 $22 #
shell $-1 $-1 $-1 $54 $-1 $24 #
shell $-1 $-1 $-1 $55 $-1 $26 #
shell $-1 $-1 $-1 $56 $-1 $28 #
shell $-1 $-1 $-1 $57 $-1 $30 #
shell $-1 $-1 $-1 $58 $-1 $32 #
shell $-1 $-1 $-1 $59 $-1 $34 #
face $-1 $60 $61 $36 $-1 $62 forward single #
face $-1 $63 $64 $37 $-1 $65 reversed single #
face $-1 $66 $67 $38 $-1 $68 reversed single #
face $-1 $69 $70 $39 $-1 $71 reversed single #
face $-1 $72 $73 $40 $-1 $74 forward single #
face $-1 $75 $76 $41 $-1 $77 forward single #
face $-1 $78 $79 $42 $-1 $80 reversed single #
face $-1 $81 $82 $43 $-1 $83 forward single #
face $-1 $84 $85 $44 $-1 $86 forward single #
face $-1 $87 $88 $45 $-1 $89 reversed single #
face $-1 $90 $91 $46 $-1 $92 forward single #
face $-1 $93 $94 $47 $-1 $95 forward single #
face $-1 $96 $97 $36 $-1 $98 reversed single #
loop $-1 $-1 $99 $48 #
plane-surface $-1 0 0 10.218304127401035 0 0 1 1 0 0 forward_v I I I I #
face $-1 $100 $101 $37 $-1 $102 reversed single #
loop $-1 $-1 $103 $49 #
plane-surface $-1 -59.496862965197067 -41.26304109939327 0 0 1 0 0 0 1 forward_v I I I I #
face $-1 $104 $105 $38 $-1 $106 reversed single #
loop $-1 $-1 $107 $50 #
plane-surface $-1 59.496862965197067 -41.26304109939327 0 0 1 0 0 0 1 forward_v I I I I #
face $-1 $108 $109 $39 $-1 $110 reversed single #
loop $-1 $-1 $111 $51 #
plane-surface $-1 -32.205190931352298 -135.59555180634271 99.419451251550569 -1 0 0 0 -0.68199836817093118 0.7313536940579346 forward_v I I I I #
face $-1 $112 $113 $40 $-1 $114 forward single #
loop $-1 $115 $116 $52 #
cone-surface $-1 -44.523792741036871 -39.414402408722111 4.2643186356386913 0 0.68199836817093118 -0.7313536940579346 2 0 0 1 I I 0 1 2 forward I I I I #
face $-1 $117 $118 $41 $-1 $119 forward single #
loop $-1 $120 $121 $53 #
cone-surface $-1 -37.132631655226128 -39.414402408722111 4.2643186356386913 0 0.68199836817093118 -0.7313536940579346 2 0 0 1 I I 0 1 2 forward I I I I #
face $-1 $122 $123 $42 $-1 $124 reversed single #
loop $-1 $-1 $125 $54 #
plane-surface $-1 -23.978733235909889 77.334715152058465 161.30034917813964 1 0 0 0 -0.71933980857756763 -0.69465836192734942 forward_v I I I I #
face $-1 $126 $127 $43 $-1 $128 forward single #
loop $-1 $129 $130 $55 #
cone-surface $-1 -18.319482503627235 42.078201789487856 6.7202783336164824 0 -0.71933980857756763 -0.69465836192734942 1 0 0 1 I I 0 1 1 forward I I I I #
face $-1 $131 $132 $44 $-1 $133 forward single #
loop $-1 $134 $135 $56 #
cone-surface $-1 -9.8306064052032411 42.078201789487856 6.7202783336164824 0 -0.71933980857756763 -0.69465836192734942 1 0 0 1 I I 0 1 1 forward I I I I #
face $-1 $136 $137 $45 $-1 $138 reversed single #
loop $-1 $-1 $139 $57 #
plane-surface $-1 4.1713556729205798 77.334715152058465 161.30034917813964 1 0 0 0 -0.71933980857756763 -0.69465836192734942 forward_v I I I I #
face $-1 $140 $141 $46 $-1 $142 forward single #
loop $-1 $143 $144 $58 #
cone-surface $-1 9.8306064052032411 42.078201789487856 6.7202783336164824 0 -0.71933980857756763 -0.69465836192734942 1 0 0 1 I I 0 1 1 forward I I I I #
face $-1 $145 $146 $47 $-1 $147 forward single #
loop $-1 $148 $149 $59 #
cone-surface $-1 18.319482503627228 42.078201789487856 6.7202783336164824 0 -0.71933980857756763 -0.69465836192734942 1 0 0 1 I I 0 1 1 forward I I I I #
face $-1 $150 $151 $36 $-1 $152 reversed single #
loop $-1 $-1 $153 $60 #
plane-surface $-1 0 0 -10.218304127401035 0 0 1 1 0 0 forward_v I I I I #
coedge $-1 $154 $155 $156 $157 forward $61 $-1 #
face $-1 $158 $159 $37 $-1 $160 reversed single #
loop $-1 $-1 $161 $63 #
plane-surface $-1 -59.496862965197067 -38.26304109939327 0 0 -1 0 0 0 -1 forward_v I I I I #
coedge $-1 $162 $163 $164 $165 reversed $64 $-1 #
face $-1 $166 $167 $38 $-1 $168 reversed single #
loop $-1 $-1 $169 $66 #
plane-surface $-1 52.930918837892534 -39.76304109939327 0 1 0 0 0 0 -1 forward_v I I I I #
coedge $-1 $170 $171 $172 $173 forward $67 $-1 #
face $-1 $174 $175 $39 $-1 $176 reversed single #
loop $-1 $-1 $177 $69 #
plane-surface $-1 -40.828212198131503 -45.486098538588493 2.7888952376750353 0 -0.68199836817093118 0.7313536940579346 1 0 0 forward_v I I I I #
coedge $-1 $178 $179 $180 $181 reversed $70 $-1 #
face $-1 $-1 $182 $40 $-1 $183 forward single #
loop $-1 $184 $185 $72 #
cone-surface $-1 -44.523792741036871 -36.644240635799903 1.2936838946814255 0 0.68199836817093118 -0.7313536940579346 1 0 0 1 I I -0.70710678118654746 0.70710678118654746 1 forward I I I I #
loop $-1 $-1 $186 $52 #
coedge $-1 $116 $116 $187 $188 reversed $73 $-1 #
face $-1 $-1 $189 $41 $-1 $190 forward single #
loop $-1 $191 $192 $75 #
cone-surface $-1 -37.132631655226128 -36.644240635799903 1.2936838946814255 0 0.68199836817093118 -0.7313536940579346 1 0 0 1 I I -0.70710678118654746 0.70710678118654746 1 forward I I I I #
loop $-1 $-1 $193 $53 #
coedge $-1 $121 $121 $194 $195 reversed $76 $-1 #
face $-1 $196 $197 $42 $-1 $198 reversed single #
loop $-1 $-1 $199 $78 #
plane-surface $-1 -14.075044454415234 -17.708498863975294 69.518186459740349 0 0.71933980857756763 0.69465836192734942 1 0 0 forward_v I I I I #
coedge $-1 $200 $201 $202 $203 reversed $79 $-1 #
face $-1 $-1 $204 $43 $-1 $205 forward single #
loop $-1 $206 $207 $81 #
cone-surface $-1 -18.319482503627235 41.275319159121842 5.9449436083871969 0 -0.71933980857756763 -0.69465836192734942 0.5 0 0 1 I I -0.70710678118654746 0.70710678118654746 0.5 forward I I I I #
loop $-1 $-1 $208 $55 #
coedge $-1 $130 $130 $209 $210 reversed $82 $-1 #
face $-1 $-1 $211 $44 $-1 $212 forward single #
loop $-1 $213 $214 $84 #
cone-surface $-1 -9.8306064052032411 41.275319159121842 5.9449436083871969 0 -0.71933980857756763 -0.69465836192734942 0.5 0 0 1 I I -0.70710678118654746 0.70710678118654746 0.5 forward I I I I #
loop $-1 $-1 $215 $56 #
coedge $-1 $135 $135 $216 $217 reversed $85 $-1 #
face $-1 $218 $219 $45 $-1 $220 reversed single #
loop $-1 $-1 $221 $87 #
plane-surface $-1 14.075044454415234 -17.708498863975294 69.518186459740349 0 0.71933980857756763 0.69465836192734942 1 0 0 forward_v I I I I #
coedge $-1 $222 $223 $224 $225 reversed $88 $-1 #
face $-1 $-1 $226 $46 $-1 $227 forward single #
loop $-1 $228 $229 $90 #
cone-surface $-1 9.8306064052032411 41.275319159121842 5.9449436083871969 0 -0.71933980857756763 -0.69465836192734942 0.5 0 0 1 I I -0.70710678118654746 0.70710678118654746 0.5 forward I I I I #
loop $-1 $-1 $230 $58 #
coedge $-1 $144 $144 $231 $232 reversed $91 $-1 #
face $-1 $-1 $233 $47 $-1 $234 forward single #
loop $-1 $235 $236 $93 #
cone-surface $-1 18.319482503627228 41.275319159121842 5.9449436083871969 0 -0.71933980857756763 -0.69465836192734942 0.5 0 0 1 I I -0.70710678118654746 0.70710678118654746 0.5 forward I I I I #
loop $-1 $-1 $237 $59 #
coedge $-1 $149 $149 $238 $239 reversed $94 $-1 #
face $-1 $240 $241 $36 $-1 $242 reversed single #
loop $-1 $-1 $243 $96 #
plane-surface $-1 0 -45.486098538588472 0 0 1 0 0 0 1 forward_v I I I I #
coedge $-1 $244 $245 $246 $247 forward $97 $-1 #
coedge $-1 $248 $99 $249 $250 forward $61 $-1 #
coedge $-1 $99 $248 $251 $252 forward $61 $-1 #
coedge $-1 $253 $254 $99 $157 reversed $255 $-1 #
edge $-1 $256 -45.486098538588472 $257 45.486098538588472 $156 $258 forward 7 unknown #
face $-1 $259 $260 $37 $-1 $261 reversed single #
loop $-1 $-1 $262 $100 #
plane-surface $-1 -52.930918837892534 -39.76304109939327 0 -1 0 0 0 0 1 forward_v I I I I #
coedge $-1 $263 $264 $265 $266 forward $101 $-1 #
coedge $-1 $267 $103 $268 $269 reversed $64 $-1 #
coedge $-1 $103 $267 $270 $271 reversed $64 $-1 #
coedge $-1 $272 $273 $103 $165 forward $274 $-1 #
edge $-1 $275 -10.218304127401035 $276 10.218304127401035 $164 $277 forward 7 unknown #
face $-1 $278 $279 $38 $-1 $280 reversed single #
loop $-1 $-1 $281 $104 #
plane-surface $-1 59.496862965197067 -38.26304109939327 0 0 -1 0 0 0 -1 forward_v I I I I #
coedge $-1 $282 $283 $284 $285 forward $105 $-1 #
coedge $-1 $286 $107 $287 $288 reversed $67 $-1 #
coedge $-1 $107 $286 $289 $290 reversed $67 $-1 #
coedge $-1 $283 $282 $107 $173 reversed $105 $-1 #
edge $-1 $291 -10.218304127401035 $292 10.218304127401035 $172 $293 forward 7 unknown #
face $-1 $294 $295 $39 $-1 $296 forward single #
loop $-1 $-1 $297 $108 #
plane-surface $-1 -49.451233464910707 -135.59555180634271 99.419451251550569 1 0 0 0 0.68199836817093118 -0.7313536940579346 forward_v I I I I #
coedge $-1 $298 $299 $300 $301 reversed $109 $-1 #
coedge $-1 $179 $111 $302 $303 reversed $70 $-1 #
coedge $-1 $111 $178 $298 $304 reversed $70 $-1 #
coedge $-1 $300 $305 $111 $181 forward $295 $-1 #
edge $-1 $306 22.311677364582884 $307 30.278742814813015 $180 $308 forward 7 unknown #
loop $-1 $-1 $187 $112 #
plane-surface $-1 -40.828212198131503 -45.486098538588493 2.7888952376750353 0 -0.68199836817093118 0.7313536940579346 1 0 0 forward_v I I I I #
loop $-1 $-1 $309 $72 #
coedge $-1 $185 $185 $186 $310 reversed $113 $-1 #
coedge $-1 $186 $186 $185 $310 forward $115 $-1 #
coedge $-1 $187 $187 $116 $188 forward $182 $-1 #
edge $-1 $311 3.1243262971221418e-015 $311 6.283185307179604 $187 $312 forward 7 unknown #
loop $-1 $-1 $194 $117 #
plane-surface $-1 -40.828212198131503 -45.486098538588493 2.7888952376750353 0 -0.68199836817093118 0.7313536940579346 1 0 0 forward_v I I I I #
loop $-1 $-1 $313 $75 #
coedge $-1 $192 $192 $193 $314 reversed $118 $-1 #
coedge $-1 $193 $193 $192 $314 forward $120 $-1 #
coedge $-1 $194 $194 $121 $195 forward $189 $-1 #
edge $-1 $315 3.1243262971221418e-015 $315 6.283185307179604 $194 $316 forward 7 unknown #
face $-1 $317 $318 $42 $-1 $319 reversed single #
loop $-1 $-1 $320 $122 #
plane-surface $-1 -4.1713556729205798 77.334715152058465 161.30034917813964 -1 0 0 0 0.71933980857756763 0.69465836192734942 forward_v I I I I #
coedge $-1 $321 $322 $323 $324 reversed $123 $-1 #
coedge $-1 $201 $125 $325 $326 reversed $79 $-1 #
coedge $-1 $125 $200 $321 $327 reversed $79 $-1 #
coedge $-1 $323 $328 $125 $203 forward $329 $-1 #
edge $-1 $330 -6.8187409625592394 $331 -0.88937291651241424 $202 $332 forward 7 unknown #
loop $-1 $-1 $209 $126 #
plane-surface $-1 -14.075044454415234 -17.708498863975294 69.518186459740349 0 0.71933980857756763 0.69465836192734942 1 0 0 forward_v I I I I #
loop $-1 $-1 $333 $81 #
coedge $-1 $207 $207 $208 $334 reversed $127 $-1 #
coedge $-1 $208 $208 $207 $334 forward $129 $-1 #
coedge $-1 $209 $209 $130 $210 forward $204 $-1 #
edge $-1 $335 -6.2586810604706509e-017 $335 6.2831853071796004 $209 $336 forward 7 unknown #
loop $-1 $-1 $216 $131 #
plane-surface $-1 -14.075044454415234 -17.708498863975294 69.518186459740349 0 0.71933980857756763 0.69465836192734942 1 0 0 forward_v I I I I #
loop $-1 $-1 $337 $84 #
coedge $-1 $214 $214 $215 $338 reversed $132 $-1 #
coedge $-1 $215 $215 $214 $338 forward $134 $-1 #
coedge $-1 $216 $216 $135 $217 forward $211 $-1 #
edge $-1 $339 -6.2586810604706509e-017 $339 6.2831853071796004 $216 $340 forward 7 unknown #
face $-1 $341 $342 $45 $-1 $343 forward single #
loop $-1 $-1 $344 $136 #
plane-surface $-1 23.978733235909889 77.334715152058465 161.30034917813964 -1 0 0 0 0.71933980857756763 0.69465836192734942 forward_v I I I I #
coedge $-1 $345 $346 $347 $348 reversed $137 $-1 #
coedge $-1 $223 $139 $349 $350 reversed $88 $-1 #
coedge $-1 $139 $222 $345 $351 reversed $88 $-1 #
coedge $-1 $347 $352 $139 $225 forward $342 $-1 #
edge $-1 $353 -6.8187409625592394 $354 -0.88937291651241424 $224 $355 forward 7 unknown #
loop $-1 $-1 $231 $140 #
plane-surface $-1 14.075044454415234 -17.708498863975294 69.518186459740349 0 0.71933980857756763 0.69465836192734942 1 0 0 forward_v I I I I #
loop $-1 $-1 $356 $90 #
coedge $-1 $229 $229 $230 $357 reversed $141 $-1 #
coedge $-1 $230 $230 $229 $357 forward $143 $-1 #
coedge $-1 $231 $231 $144 $232 forward $226 $-1 #
edge $-1 $358 -6.2586810604706509e-017 $358 6.2831853071796004 $231 $359 forward 7 unknown #
loop $-1 $-1 $238 $145 #
plane-surface $-1 14.075044454415234 -17.708498863975294 69.518186459740349 0 0.71933980857756763 0.69465836192734942 1 0 0 forward_v I I I I #
loop $-1 $-1 $360 $93 #
coedge $-1 $236 $236 $237 $361 reversed $146 $-1 #
coedge $-1 $237 $237 $236 $361 forward $148 $-1 #
coedge $-1 $238 $238 $149 $239 forward $233 $-1 #
edge $-1 $362 -6.2586810604706509e-017 $362 6.2831853071796004 $238 $363 forward 7 unknown #
face $-1 $364 $365 $36 $-1 $366 reversed single #
loop $-1 $-1 $367 $150 #
plane-surface $-1 -66.0628070925016 0 0 1 0 0 0 0 -1 forward_v I I I I #
coedge $-1 $368 $251 $369 $370 forward $151 $-1 #
coedge $-1 $371 $153 $368 $372 forward $97 $-1 #
coedge $-1 $153 $371 $373 $374 forward $97 $-1 #
coedge $-1 $254 $253 $153 $247 reversed $255 $-1 #
edge $-1 $375 -45.486098538588472 $376 45.486098538588472 $246 $377 forward 7 unknown #
coedge $-1 $155 $154 $378 $379 forward $61 $-1 #
coedge $-1 $380 $381 $154 $250 reversed $365 $-1 #
edge $-1 $257 -66.0628070925016 $382 66.0628070925016 $249 $383 forward 7 unknown #
coedge $-1 $243 $384 $155 $252 reversed $151 $-1 #
edge $-1 $385 -66.0628070925016 $256 66.0628070925016 $251 $386 forward 7 unknown #
coedge $-1 $246 $156 $384 $387 forward $255 $-1 #
coedge $-1 $156 $246 $380 $388 reversed $255 $-1 #
loop $-1 $-1 $253 $364 #
vertex $-1 $157 $389 #
vertex $-1 $157 $390 #
straight-curve $-1 66.0628070925016 0 10.218304127401035 0 1 0 I I #
face $-1 $391 $392 $37 $-1 $393 forward single #
loop $-1 $-1 $394 $158 #
plane-surface $-1 0 0 -10.218304127401035 0 0 1 1 0 0 forward_v I I I I #
coedge $-1 $395 $396 $267 $397 forward $159 $-1 #
coedge $-1 $398 $161 $394 $399 reversed $101 $-1 #
coedge $-1 $161 $398 $400 $401 reversed $101 $-1 #
coedge $-1 $396 $395 $161 $266 reversed $159 $-1 #
edge $-1 $402 -10.218304127401035 $403 10.218304127401035 $265 $404 forward 7 unknown #
coedge $-1 $163 $162 $262 $397 reversed $64 $-1 #
coedge $-1 $405 $406 $162 $269 forward $260 $-1 #
edge $-1 $407 23.182487355294001 $275 36.314375609903067 $268 $408 forward 7 unknown #
coedge $-1 $409 $410 $163 $271 forward $392 $-1 #
edge $-1 $276 -36.314375609903067 $411 -23.182487355294001 $270 $412 forward 7 unknown #
coedge $-1 $413 $164 $410 $414 reversed $274 $-1 #
coedge $-1 $164 $413 $405 $415 reversed $274 $-1 #
loop $-1 $-1 $413 $391 #
vertex $-1 $415 $416 #
vertex $-1 $165 $417 #
straight-curve $-1 -66.0628070925016 -41.26304109939327 0 0 0 1 I I #
face $-1 $418 $419 $38 $-1 $420 forward single #
loop $-1 $-1 $287 $166 #
plane-surface $-1 0 0 -10.218304127401035 0 0 1 1 0 0 forward_v I I I I #
coedge $-1 $421 $422 $423 $424 reversed $167 $-1 #
coedge $-1 $172 $169 $425 $426 reversed $105 $-1 #
coedge $-1 $169 $172 $427 $428 reversed $105 $-1 #
coedge $-1 $422 $421 $169 $285 reversed $167 $-1 #
edge $-1 $429 -10.218304127401035 $430 10.218304127401035 $284 $431 forward 7 unknown #
coedge $-1 $171 $170 $432 $433 reversed $67 $-1 #
coedge $-1 $425 $434 $170 $288 forward $279 $-1 #
edge $-1 $435 -36.314375609903067 $292 -23.182487355294001 $287 $436 forward 7 unknown #
coedge $-1 $437 $427 $171 $290 forward $419 $-1 #
edge $-1 $291 23.182487355294001 $438 36.314375609903067 $289 $439 forward 7 unknown #
vertex $-1 $290 $440 #
vertex $-1 $288 $441 #
straight-curve $-1 52.930918837892534 -41.26304109939327 0 0 0 -1 I I #
face $-1 $-1 $442 $39 $-1 $443 reversed single #
loop $-1 $-1 $180 $174 #
plane-surface $-1 0 0 10.218304127401035 0 0 1 1 0 0 forward_v I I I I #
coedge $-1 $444 $445 $446 $447 reversed $175 $-1 #
coedge $-1 $448 $177 $179 $304 forward $109 $-1 #
coedge $-1 $177 $448 $444 $449 forward $109 $-1 #
coedge $-1 $446 $180 $177 $301 forward $295 $-1 #
edge $-1 $307 11.791084832286547 $450 29.037127365844956 $300 $451 forward 7 unknown #
coedge $-1 $452 $453 $178 $303 forward $442 $-1 #
edge $-1 $454 -46.920830388100228 $306 -39.491421498374251 $302 $455 forward 7 unknown #
edge $-1 $307 -10.893587487094905 $454 -2.9218806877328148e-014 $179 $456 forward 7 unknown #
coedge $-1 $180 $446 $452 $457 forward $295 $-1 #
vertex $-1 $181 $458 #
vertex $-1 $181 $459 #
straight-curve $-1 -32.205190931352298 -67.797775903171356 10.218304127401034 0 1 0 I I #
coedge $-1 $309 $309 $-1 $460 reversed $184 $-1 #
edge $-1 $461 0 $461 6.2831853071796004 $185 $462 forward 7 unknown #
vertex $-1 $188 $463 #
ellipse-curve $-1 -44.523792741036871 -41.50256581347341 6.5035996825380451 0 -0.68199836817093118 0.7313536940579346 2 0 0 1 I I #
coedge $-1 $313 $313 $-1 $464 reversed $191 $-1 #
edge $-1 $465 0 $465 6.2831853071796004 $192 $466 forward 7 unknown #
vertex $-1 $195 $467 #
ellipse-curve $-1 -37.132631655226128 -41.50256581347341 6.5035996825380451 0 -0.68199836817093118 0.7313536940579346 2 0 0 1 I I #
face $-1 $-1 $329 $42 $-1 $468 forward single #
loop $-1 $-1 $469 $196 #
plane-surface $-1 0 45.486098538588472 0 0 -1 0 0 0 -1 forward_v I I I I #
coedge $-1 $470 $471 $472 $473 reversed $197 $-1 #
coedge $-1 $474 $199 $201 $327 forward $123 $-1 #
coedge $-1 $199 $474 $470 $475 forward $123 $-1 #
coedge $-1 $472 $202 $199 $324 forward $329 $-1 #
edge $-1 $331 -16.941211008702272 $476 2.8661665542870374 $323 $477 forward 7 unknown #
coedge $-1 $478 $479 $200 $326 forward $318 $-1 #
edge $-1 $480 -76.571910960706717 $330 -70.43187046166878 $325 $481 forward 7 unknown #
edge $-1 $331 82.436536425809265 $480 90.972197077176986 $201 $482 forward 7 unknown #
coedge $-1 $202 $472 $478 $483 forward $329 $-1 #
loop $-1 $-1 $472 $317 #
vertex $-1 $326 $484 #
vertex $-1 $203 $485 #
straight-curve $-1 -23.978733235909889 38.667357576029232 10.218304127401041 0 -1 0 I I #
coedge $-1 $333 $333 $-1 $486 reversed $206 $-1 #
edge $-1 $487 0 $487 6.2831853071796004 $207 $488 forward 7 unknown #
vertex $-1 $210 $489 #
ellipse-curve $-1 -18.319482503627235 42.521414515565056 7.1482838778820659 0 0.71933980857756763 0.69465836192734942 1 0 0 1 I I #
coedge $-1 $337 $337 $-1 $490 reversed $213 $-1 #
edge $-1 $491 0 $491 6.2831853071796004 $214 $492 forward 7 unknown #
vertex $-1 $217 $493 #
ellipse-curve $-1 -9.8306064052032411 42.521414515565056 7.1482838778820659 0 0.71933980857756763 0.69465836192734942 1 0 0 1 I I #
face $-1 $-1 $494 $45 $-1 $495 reversed single #
loop $-1 $-1 $224 $218 #
plane-surface $-1 0 0 10.218304127401035 0 0 1 1 0 0 forward_v I I I I #
coedge $-1 $496 $497 $498 $499 reversed $219 $-1 #
coedge $-1 $500 $221 $223 $351 forward $137 $-1 #
coedge $-1 $221 $500 $496 $501 forward $137 $-1 #
coedge $-1 $498 $224 $221 $348 forward $342 $-1 #
edge $-1 $354 -2.8661665542870374 $502 16.941211008702272 $347 $503 forward 7 unknown #
coedge $-1 $504 $505 $222 $350 forward $494 $-1 #
edge $-1 $506 -76.571910960706717 $353 -70.43187046166878 $349 $507 forward 7 unknown #
edge $-1 $354 82.436536425809265 $506 90.972197077176986 $223 $508 forward 7 unknown #
coedge $-1 $224 $498 $504 $509 forward $342 $-1 #
vertex $-1 $350 $510 #
vertex $-1 $225 $511 #
straight-curve $-1 4.1713556729205798 38.667357576029232 10.218304127401041 0 -1 0 I I #
coedge $-1 $356 $356 $-1 $512 reversed $228 $-1 #
edge $-1 $513 0 $513 6.2831853071796004 $229 $514 forward 7 unknown #
vertex $-1 $232 $515 #
ellipse-curve $-1 9.8306064052032411 42.521414515565056 7.1482838778820659 0 0.71933980857756763 0.69465836192734942 1 0 0 1 I I #
coedge $-1 $360 $360 $-1 $516 reversed $235 $-1 #
edge $-1 $517 0 $517 6.2831853071796004 $236 $518 forward 7 unknown #
vertex $-1 $239 $519 #
ellipse-curve $-1 18.319482503627228 42.521414515565056 7.1482838778820659 0 0.71933980857756763 0.69465836192734942 1 0 0 1 I I #
face $-1 $-1 $255 $36 $-1 $520 reversed single #
loop $-1 $-1 $380 $240 #
plane-surface $-1 0 45.486098538588472 0 0 -1 0 0 0 -1 forward_v I I I I #
coedge $-1 $521 $378 $381 $522 forward $241 $-1 #
coedge $-1 $384 $243 $244 $372 reversed $151 $-1 #
coedge $-1 $378 $521 $243 $370 reversed $241 $-1 #
edge $-1 $385 -10.218304127401035 $523 10.218304127401035 $369 $524 forward 7 unknown #
coedge $-1 $245 $244 $521 $525 forward $97 $-1 #
edge $-1 $376 -66.0628070925016 $523 66.0628070925016 $368 $526 forward 7 unknown #
coedge $-1 $381 $380 $245 $374 reversed $365 $-1 #
edge $-1 $527 -66.0628070925016 $375 66.0628070925016 $373 $528 forward 7 unknown #
vertex $-1 $247 $529 #
vertex $-1 $387 $530 #
straight-curve $-1 66.0628070925016 0 -10.218304127401035 0 -1 0 I I #
coedge $-1 $367 $369 $248 $379 reversed $241 $-1 #
edge $-1 $382 -45.486098538588472 $385 45.486098538588472 $378 $531 forward 7 unknown #
coedge $-1 $373 $249 $254 $388 forward $365 $-1 #
coedge $-1 $249 $373 $367 $522 reversed $365 $-1 #
vertex $-1 $250 $532 #
straight-curve $-1 0 45.486098538588472 10.218304127401035 -1 0 0 I I #
coedge $-1 $251 $368 $253 $387 reversed $151 $-1 #
vertex $-1 $379 $533 #
straight-curve $-1 0 -45.486098538588472 10.218304127401035 1 0 0 I I #
edge $-1 $256 -10.218304127401035 $376 10.218304127401035 $253 $534 forward 7 unknown #
edge $-1 $257 -10.218304127401035 $375 10.218304127401035 $254 $535 forward 7 unknown #
point $-1 66.0628070925016 -45.486098538588472 10.218304127401035 #
point $-1 66.0628070925016 45.486098538588472 10.218304127401035 #
face $-1 $-1 $274 $37 $-1 $536 reversed single #
loop $-1 $-1 $400 $259 #
plane-surface $-1 0 0 10.218304127401035 0 0 1 1 0 0 forward_v I I I I #
coedge $-1 $406 $405 $263 $399 forward $260 $-1 #
coedge $-1 $265 $262 $406 $537 reversed $159 $-1 #
coedge $-1 $262 $265 $409 $538 reversed $159 $-1 #
edge $-1 $411 -10.218304127401035 $407 10.218304127401035 $262 $539 forward 7 unknown #
coedge $-1 $264 $263 $413 $540 reversed $101 $-1 #
edge $-1 $541 -36.314375609903067 $403 -23.182487355294001 $394 $542 forward 7 unknown #
coedge $-1 $410 $409 $264 $401 forward $392 $-1 #
edge $-1 $402 23.182487355294001 $543 36.314375609903067 $400 $544 forward 7 unknown #
vertex $-1 $401 $545 #
vertex $-1 $399 $546 #
straight-curve $-1 -52.930918837892534 -38.26304109939327 0 0 0 -1 I I #
coedge $-1 $394 $268 $273 $415 forward $260 $-1 #
coedge $-1 $268 $394 $395 $537 forward $260 $-1 #
vertex $-1 $269 $547 #
straight-curve $-1 -29.748431482598534 -41.26304109939327 -10.218304127401035 -1 0 0 I I #
coedge $-1 $400 $270 $396 $538 forward $392 $-1 #
coedge $-1 $270 $400 $272 $414 forward $392 $-1 #
vertex $-1 $271 $548 #
straight-curve $-1 -29.748431482598534 -41.26304109939327 10.218304127401035 1 0 0 I I #
coedge $-1 $273 $272 $398 $540 forward $274 $-1 #
edge $-1 $543 38.26304109939327 $276 41.26304109939327 $272 $549 forward 7 unknown #
edge $-1 $275 -41.26304109939327 $541 -38.26304109939327 $273 $550 forward 7 unknown #
point $-1 -66.0628070925016 -41.26304109939327 -10.218304127401035 #
point $-1 -66.0628070925016 -41.26304109939327 10.218304127401035 #
face $-1 $-1 $551 $38 $-1 $552 reversed single #
loop $-1 $-1 $289 $278 #
plane-surface $-1 0 0 10.218304127401035 0 0 1 1 0 0 forward_v I I I I #
coedge $-1 $284 $281 $553 $554 reversed $167 $-1 #
coedge $-1 $281 $284 $555 $556 reversed $167 $-1 #
coedge $-1 $557 $558 $281 $424 forward $551 $-1 #
edge $-1 $559 -10.218304127401035 $560 10.218304127401035 $423 $561 forward 7 unknown #
coedge $-1 $553 $287 $282 $426 forward $279 $-1 #
edge $-1 $292 -21.381520549696635 $430 -18.381520549696635 $425 $562 forward 7 unknown #
coedge $-1 $289 $555 $283 $428 forward $419 $-1 #
edge $-1 $429 18.381520549696635 $291 21.381520549696635 $427 $563 forward 7 unknown #
vertex $-1 $428 $564 #
vertex $-1 $426 $565 #
straight-curve $-1 52.930918837892534 -38.26304109939327 0 0 0 -1 I I #
coedge $-1 $558 $557 $286 $433 forward $551 $-1 #
edge $-1 $438 -10.218304127401035 $435 10.218304127401035 $432 $566 forward 7 unknown #
coedge $-1 $287 $553 $558 $567 forward $279 $-1 #
vertex $-1 $433 $568 #
straight-curve $-1 29.748431482598534 -41.26304109939327 -10.218304127401035 -1 0 0 I I #
coedge $-1 $555 $289 $557 $569 forward $419 $-1 #
vertex $-1 $569 $570 #
straight-curve $-1 29.748431482598534 -41.26304109939327 10.218304127401035 1 0 0 I I #
point $-1 52.930918837892534 -41.26304109939327 10.218304127401035 #
point $-1 52.930918837892534 -41.26304109939327 -10.218304127401035 #
loop $-1 $-1 $302 $294 #
plane-surface $-1 0 -45.486098538588472 0 0 1 0 0 0 1 forward_v I I I I #
coedge $-1 $445 $297 $299 $449 reversed $175 $-1 #
coedge $-1 $297 $444 $571 $572 reversed $175 $-1 #
coedge $-1 $305 $300 $297 $447 forward $295 $-1 #
edge $-1 $450 -30.278742814813015 $573 -22.311677364582884 $446 $574 forward 7 unknown #
coedge $-1 $299 $298 $453 $575 reversed $109 $-1 #
edge $-1 $576 2.9218806877328148e-014 $450 10.893587487094905 $444 $577 forward 7 unknown #
vertex $-1 $301 $578 #
straight-curve $-1 -20.414106099065751 -37.519033088358341 10.218304127401035 -1 0 0 I I #
coedge $-1 $571 $302 $305 $457 reversed $442 $-1 #
coedge $-1 $302 $571 $448 $575 forward $442 $-1 #
vertex $-1 $303 $579 #
straight-curve $-1 -32.205190931352298 -45.486098538588472 49.709725625775285 0 0 1 I I #
straight-curve $-1 -32.205190931352298 -45.486098538588493 2.7888952376750353 0 -0.7313536940579346 -0.68199836817093118 I I #
edge $-1 $573 -49.451233464910707 $306 -32.205190931352298 $452 $580 forward 7 unknown #
point $-1 -32.205190931352298 -45.486098538588472 10.218304127401035 #
point $-1 -32.205190931352298 -37.519033088358341 10.218304127401035 #
edge $-1 $581 1 $581 0 $309 $-1 forward 7 unknown #
vertex $-1 $310 $582 #
ellipse-curve $-1 -44.523792741036871 -37.326239003970834 2.0250375887393601 0 -0.68199836817093118 0.7313536940579346 2 0 0 1 I I #
point $-1 -42.523792741036871 -41.502565813473382 6.5035996825380238 #
edge $-1 $583 1 $583 0 $313 $-1 forward 7 unknown #
vertex $-1 $314 $584 #
ellipse-curve $-1 -37.132631655226128 -37.326239003970834 2.0250375887393601 0 -0.68199836817093118 0.7313536940579346 2 0 0 1 I I #
point $-1 -35.132631655226128 -41.502565813473382 6.5035996825380238 #
plane-surface $-1 0 0 10.218304127401035 0 0 1 1 0 0 forward_v I I I I #
coedge $-1 $479 $478 $471 $585 forward $318 $-1 #
coedge $-1 $471 $320 $322 $475 reversed $197 $-1 #
coedge $-1 $320 $470 $469 $585 reversed $197 $-1 #
coedge $-1 $328 $323 $320 $473 forward $329 $-1 #
edge $-1 $476 0.88937291651241424 $586 6.8187409625592394 $472 $587 forward 7 unknown #
coedge $-1 $322 $321 $479 $588 reversed $123 $-1 #
edge $-1 $589 -90.972197077176986 $476 -82.436536425809265 $470 $590 forward 7 unknown #
vertex $-1 $324 $591 #
straight-curve $-1 -7.0375222272076172 39.556730492541639 10.218304127401034 1 0 0 I I #
coedge $-1 $469 $325 $328 $483 reversed $318 $-1 #
coedge $-1 $325 $469 $474 $588 forward $318 $-1 #
vertex $-1 $326 $592 #
straight-curve $-1 -23.978733235909889 45.486098538588472 80.65017458906982 0 0 1 I I #
straight-curve $-1 -23.978733235909889 -17.708498863975294 69.518186459740349 0 0.69465836192734942 -0.71933980857756763 I I #
edge $-1 $586 4.1713556729205798 $330 23.978733235909889 $478 $593 forward 7 unknown #
point $-1 -23.978733235909889 45.486098538588472 10.218304127401035 #
point $-1 -23.978733235909889 39.556730492541647 10.218304127401034 #
edge $-1 $594 1 $594 0 $333 $-1 forward 7 unknown #
vertex $-1 $334 $595 #
ellipse-curve $-1 -18.319482503627235 41.634989063410629 6.2922727893508714 0 0.71933980857756763 0.69465836192734942 1 0 0 1 I I #
point $-1 -17.319482503627235 42.521414515565084 7.1482838778820934 #
edge $-1 $596 1 $596 0 $337 $-1 forward 7 unknown #
vertex $-1 $338 $597 #
ellipse-curve $-1 -9.8306064052032411 41.634989063410629 6.2922727893508714 0 0.71933980857756763 0.69465836192734942 1 0 0 1 I I #
point $-1 -8.8306064052032411 42.521414515565084 7.1482838778820934 #
loop $-1 $-1 $349 $341 #
plane-surface $-1 0 45.486098538588472 0 0 -1 0 0 0 -1 forward_v I I I I #
coedge $-1 $497 $344 $346 $501 reversed $219 $-1 #
coedge $-1 $344 $496 $598 $599 reversed $219 $-1 #
coedge $-1 $352 $347 $344 $499 forward $342 $-1 #
edge $-1 $502 0.88937291651241424 $600 6.8187409625592394 $498 $601 forward 7 unknown #
coedge $-1 $346 $345 $505 $602 reversed $137 $-1 #
edge $-1 $603 -90.972197077176986 $502 -82.436536425809265 $496 $604 forward 7 unknown #
vertex $-1 $348 $605 #
straight-curve $-1 7.0375222272076172 39.556730492541639 10.218304127401034 1 0 0 I I #
coedge $-1 $598 $349 $352 $509 reversed $494 $-1 #
coedge $-1 $349 $598 $500 $602 forward $494 $-1 #
vertex $-1 $350 $606 #
straight-curve $-1 4.1713556729205798 45.486098538588472 80.65017458906982 0 0 1 I I #
straight-curve $-1 4.1713556729205798 -17.708498863975294 69.518186459740349 0 0.69465836192734942 -0.71933980857756763 I I #
edge $-1 $600 -23.978733235909889 $353 -4.1713556729205798 $504 $607 forward 7 unknown #
point $-1 4.1713556729205798 45.486098538588472 10.218304127401035 #
point $-1 4.1713556729205798 39.556730492541647 10.218304127401034 #
edge $-1 $608 1 $608 0 $356 $-1 forward 7 unknown #
vertex $-1 $357 $609 #
ellipse-curve $-1 9.8306064052032411 41.634989063410629 6.2922727893508714 0 0.71933980857756763 0.69465836192734942 1 0 0 1 I I #
point $-1 10.830606405203241 42.521414515565084 7.1482838778820934 #
edge $-1 $610 1 $610 0 $360 $-1 forward 7 unknown #
vertex $-1 $361 $611 #
ellipse-curve $-1 18.319482503627228 41.634989063410629 6.2922727893508714 0 0.71933980857756763 0.69465836192734942 1 0 0 1 I I #
point $-1 19.319482503627228 42.521414515565084 7.1482838778820934 #
plane-surface $-1 66.0628070925016 0 0 -1 0 0 0 0 1 forward_v I I I I #
coedge $-1 $369 $367 $371 $525 reversed $241 $-1 #
edge $-1 $382 -10.218304127401035 $527 10.218304127401035 $381 $612 forward 7 unknown #
vertex $-1 $525 $613 #
straight-curve $-1 -66.0628070925016 -45.486098538588472 0 0 0 -1 I I #
edge $-1 $523 -45.486098538588472 $527 45.486098538588472 $521 $614 forward 7 unknown #
straight-curve $-1 0 -45.486098538588472 -10.218304127401035 -1 0 0 I I #
vertex $-1 $374 $615 #
straight-curve $-1 0 45.486098538588472 -10.218304127401035 1 0 0 I I #
point $-1 66.0628070925016 45.486098538588472 -10.218304127401035 #
point $-1 66.0628070925016 -45.486098538588472 -10.218304127401035 #
straight-curve $-1 -66.0628070925016 0 10.218304127401035 0 -1 0 I I #
point $-1 -66.0628070925016 45.486098538588472 10.218304127401035 #
point $-1 -66.0628070925016 -45.486098538588472 10.218304127401035 #
straight-curve $-1 66.0628070925016 -45.486098538588472 0 0 0 -1 I I #
straight-curve $-1 66.0628070925016 45.486098538588472 0 0 0 -1 I I #
plane-surface $-1 -66.0628070925016 0 0 1 0 0 0 0 -1 forward_v I I I I #
edge $-1 $403 18.381520549696635 $407 21.381520549696635 $406 $616 forward 7 unknown #
edge $-1 $411 -21.381520549696635 $402 -18.381520549696635 $409 $617 forward 7 unknown #
straight-curve $-1 -52.930918837892534 -41.26304109939327 0 0 0 -1 I I #
edge $-1 $543 -10.218304127401035 $541 10.218304127401035 $413 $618 forward 7 unknown #
vertex $-1 $540 $619 #
straight-curve $-1 -29.748431482598534 -38.26304109939327 -10.218304127401035 1 0 0 I I #
vertex $-1 $414 $620 #
straight-curve $-1 -29.748431482598534 -38.26304109939327 10.218304127401035 -1 0 0 I I #
point $-1 -52.930918837892534 -38.26304109939327 10.218304127401035 #
point $-1 -52.930918837892534 -38.26304109939327 -10.218304127401035 #
point $-1 -52.930918837892534 -41.26304109939327 -10.218304127401035 #
point $-1 -52.930918837892534 -41.26304109939327 10.218304127401035 #
straight-curve $-1 -66.0628070925016 0 10.218304127401035 0 -1 0 I I #
straight-curve $-1 -66.0628070925016 0 -10.218304127401035 0 1 0 I I #
loop $-1 $-1 $432 $418 #
plane-surface $-1 66.0628070925016 0 0 -1 0 0 0 0 1 forward_v I I I I #
coedge $-1 $434 $425 $421 $554 forward $279 $-1 #
edge $-1 $430 23.182487355294001 $559 36.314375609903067 $553 $621 forward 7 unknown #
coedge $-1 $427 $437 $422 $556 forward $419 $-1 #
edge $-1 $560 -36.314375609903067 $429 -23.182487355294001 $555 $622 forward 7 unknown #
coedge $-1 $432 $423 $437 $569 reversed $551 $-1 #
coedge $-1 $423 $432 $434 $567 reversed $551 $-1 #
vertex $-1 $567 $623 #
vertex $-1 $424 $624 #
straight-curve $-1 66.0628070925016 -38.26304109939327 0 0 0 1 I I #
straight-curve $-1 52.930918837892534 -19.881520549696635 -10.218304127401035 0 1 0 I I #
straight-curve $-1 52.930918837892534 -19.881520549696635 10.218304127401035 0 -1 0 I I #
point $-1 52.930918837892534 -38.26304109939327 10.218304127401035 #
point $-1 52.930918837892534 -38.26304109939327 -10.218304127401035 #
straight-curve $-1 66.0628070925016 -41.26304109939327 0 0 0 -1 I I #
edge $-1 $559 38.26304109939327 $435 41.26304109939327 $558 $625 forward 7 unknown #
point $-1 66.0628070925016 -41.26304109939327 -10.218304127401035 #
edge $-1 $438 -41.26304109939327 $560 -38.26304109939327 $557 $626 forward 7 unknown #
point $-1 66.0628070925016 -41.26304109939327 10.218304127401035 #
coedge $-1 $453 $452 $445 $572 forward $442 $-1 #
edge $-1 $573 39.491421498374251 $576 46.920830388100228 $571 $627 forward 7 unknown #
vertex $-1 $457 $628 #
straight-curve $-1 -49.451233464910707 -67.797775903171356 10.218304127401034 0 -1 0 I I #
edge $-1 $576 -29.037127365844956 $454 -11.791084832286547 $453 $629 forward 7 unknown #
vertex $-1 $575 $630 #
straight-curve $-1 -49.451233464910707 -45.486098538588493 2.7888952376750353 0 0.7313536940579346 0.68199836817093118 I I #
point $-1 -49.451233464910707 -37.519033088358341 10.218304127401035 #
point $-1 -32.205190931352298 -45.486098538588472 2.7888952376750553 #
straight-curve $-1 0 -45.486098538588472 10.218304127401035 1 0 0 I I #
vertex $-1 $460 $631 #
point $-1 -42.523792741036871 -37.326239003970834 2.0250375887393601 #
vertex $-1 $464 $632 #
point $-1 -35.132631655226128 -37.326239003970834 2.0250375887393601 #
edge $-1 $586 70.43187046166878 $589 76.571910960706717 $469 $633 forward 7 unknown #
vertex $-1 $483 $634 #
straight-curve $-1 -4.1713556729205798 38.667357576029232 10.218304127401041 0 1 0 I I #
edge $-1 $589 -2.8661665542870374 $480 16.941211008702272 $479 $635 forward 7 unknown #
vertex $-1 $588 $636 #
straight-curve $-1 -4.1713556729205798 -17.708498863975294 69.518186459740349 0 -0.69465836192734942 0.71933980857756763 I I #
point $-1 -4.1713556729205798 39.556730492541647 10.218304127401034 #
point $-1 -23.978733235909889 45.486098538588479 4.0782636283631035 #
straight-curve $-1 0 45.486098538588472 10.218304127401035 -1 0 0 I I #
vertex $-1 $486 $637 #
point $-1 -17.319482503627235 41.634989063410629 6.2922727893508714 #
vertex $-1 $490 $638 #
point $-1 -8.8306064052032411 41.634989063410629 6.2922727893508714 #
coedge $-1 $505 $504 $497 $599 forward $494 $-1 #
edge $-1 $600 70.43187046166878 $603 76.571910960706717 $598 $639 forward 7 unknown #
vertex $-1 $509 $640 #
straight-curve $-1 23.978733235909889 38.667357576029232 10.218304127401041 0 1 0 I I #
edge $-1 $603 -16.941211008702272 $506 2.8661665542870374 $505 $641 forward 7 unknown #
vertex $-1 $602 $642 #
straight-curve $-1 23.978733235909889 -17.708498863975294 69.518186459740349 0 -0.69465836192734942 0.71933980857756763 I I #
point $-1 23.978733235909889 39.556730492541647 10.218304127401034 #
point $-1 4.1713556729205798 45.486098538588479 4.0782636283631035 #
straight-curve $-1 0 45.486098538588472 10.218304127401035 -1 0 0 I I #
vertex $-1 $512 $643 #
point $-1 10.830606405203241 41.634989063410629 6.2922727893508714 #
vertex $-1 $516 $644 #
point $-1 19.319482503627228 41.634989063410629 6.2922727893508714 #
straight-curve $-1 -66.0628070925016 45.486098538588472 0 0 0 -1 I I #
point $-1 -66.0628070925016 -45.486098538588472 -10.218304127401035 #
straight-curve $-1 -66.0628070925016 0 -10.218304127401035 0 1 0 I I #
point $-1 -66.0628070925016 45.486098538588472 -10.218304127401035 #
straight-curve $-1 -52.930918837892534 -19.881520549696635 -10.218304127401035 0 -1 0 I I #
straight-curve $-1 -52.930918837892534 -19.881520549696635 10.218304127401035 0 1 0 I I #
straight-curve $-1 -66.0628070925016 -38.26304109939327 0 0 0 -1 I I #
point $-1 -66.0628070925016 -38.26304109939327 -10.218304127401035 #
point $-1 -66.0628070925016 -38.26304109939327 10.218304127401035 #
straight-curve $-1 29.748431482598534 -38.26304109939327 -10.218304127401035 1 0 0 I I #
straight-curve $-1 29.748431482598534 -38.26304109939327 10.218304127401035 -1 0 0 I I #
point $-1 66.0628070925016 -38.26304109939327 -10.218304127401035 #
point $-1 66.0628070925016 -38.26304109939327 10.218304127401035 #
straight-curve $-1 66.0628070925016 0 -10.218304127401035 0 -1 0 I I #
straight-curve $-1 66.0628070925016 0 10.218304127401035 0 1 0 I I #
straight-curve $-1 -49.451233464910707 -45.486098538588472 49.709725625775285 0 0 -1 I I #
point $-1 -49.451233464910707 -45.486098538588472 10.218304127401035 #
straight-curve $-1 -20.414106099065751 -45.486098538588472 2.7888952376750504 1 0 0 I I #
point $-1 -49.451233464910707 -45.486098538588472 2.7888952376750553 #
point $-1 -44.523792741036871 -35.962242267628973 0.56233020062349093 #
point $-1 -37.132631655226128 -35.962242267628973 0.56233020062349093 #
straight-curve $-1 -4.1713556729205798 45.486098538588472 80.65017458906982 0 0 -1 I I #
point $-1 -4.1713556729205798 45.486098538588472 10.218304127401035 #
straight-curve $-1 -7.0375222272076172 45.486098538588472 4.0782636283631106 -1 0 0 I I #
point $-1 -4.1713556729205798 45.486098538588479 4.0782636283631035 #
point $-1 -18.319482503627235 40.915649254833056 5.5976144274235224 #
point $-1 -9.8306064052032411 40.915649254833056 5.5976144274235224 #
straight-curve $-1 23.978733235909889 45.486098538588472 80.65017458906982 0 0 -1 I I #
point $-1 23.978733235909889 45.486098538588472 10.218304127401035 #
straight-curve $-1 7.0375222272076172 45.486098538588472 4.0782636283631106 -1 0 0 I I #
point $-1 23.978733235909889 45.486098538588479 4.0782636283631035 #
point $-1 9.8306064052032411 40.915649254833056 5.5976144274235224 #
point $-1 18.319482503627228 40.915649254833056 5.5976144274235224 #
End-of-ACIS-data 