500 0 3 0           
7 Unknown 11 ACIS 5.0 NT 24 Thu Mar 25 18:20:22 1999 
-1 9.9999999999999995e-007 1e-010 
body $-1 $3 $-1 $4 #
body $-1 $5 $-1 $6 #
body $-1 $7 $-1 $8 #
lump $-1 $-1 $9 $0 #
transform $-1 1 0 0 0 1 0 0 0 1 63.410138248847929 34.535080604727781 11.016192190213802 1 rotate no_reflect no_shear #
lump $-1 $-1 $10 $1 #
transform $-1 1 0 0 0 1 0 0 0 1 63.410138248847929 34.535080604727781 11.016192190213802 1 rotate no_reflect no_shear #
lump $-1 $-1 $11 $2 #
transform $-1 1 0 0 0 1 0 0 0 1 63.410138248847929 34.535080604727781 11.016192190213802 1 rotate no_reflect no_shear #
shell $-1 $-1 $-1 $12 $-1 $3 #
shell $-1 $-1 $-1 $13 $-1 $5 #
shell $-1 $-1 $-1 $14 $-1 $7 #
face $-1 $15 $16 $9 $-1 $17 forward single #
face $-1 $18 $19 $10 $-1 $20 reversed single #
face $-1 $21 $22 $11 $-1 $23 forward single #
face $-1 $24 $25 $9 $-1 $26 reversed single #
loop $-1 $-1 $27 $12 #
plane-surface $-1 0 0 11.016192190213802 0 0 1 1 0 0 forward_v I I I I #
face $-1 $28 $29 $10 $-1 $30 reversed single #
loop $-1 $-1 $31 $13 #
plane-surface $-1 61.122237620067558 -127.28556030980403 93.382057368679341 -1 0 0 0 -0.73135370988377701 0.68199835119979291 forward_v I I I I #
face $-1 $32 $33 $11 $-1 $34 forward single #
loop $-1 $35 $36 $14 #
cone-surface $-1 42.592280749612726 -31.283283342452179 7.7148368658800175 0 0.73135370988377701 -0.68199835119979291 1 0 0 1 I I 0 1 1 forward I I I I #
face $-1 $37 $38 $9 $-1 $39 reversed single #
loop $-1 $-1 $40 $15 #
plane-surface $-1 0 0 -11.016192190213802 0 0 1 1 0 0 forward_v I I I I #
coedge $-1 $41 $42 $43 $44 forward $16 $-1 #
face $-1 $45 $46 $10 $-1 $47 reversed single #
loop $-1 $-1 $48 $18 #
plane-surface $-1 42.592280749612726 -34.535080604727781 6.8908378985489236 0 -0.73135370988377701 0.68199835119979291 1 0 0 forward_v I I I I #
coedge $-1 $49 $50 $51 $52 reversed $19 $-1 #
face $-1 $-1 $53 $11 $-1 $54 forward single #
loop $-1 $55 $56 $21 #
cone-surface $-1 42.592280749612726 -29.589286734822736 6.1351595117787863 0 0.73135370988377701 -0.68199835119979291 0.5 0 0 1 I I -0.70710678118654746 0.70710678118654746 0.5 forward I I I I #
loop $-1 $-1 $57 $14 #
coedge $-1 $36 $36 $58 $59 reversed $22 $-1 #
face $-1 $60 $61 $9 $-1 $62 reversed single #
loop $-1 $-1 $63 $24 #
plane-surface $-1 0 -34.535080604727781 0 0 1 0 0 0 1 forward_v I I I I #
coedge $-1 $64 $65 $66 $67 forward $25 $-1 #
coedge $-1 $68 $27 $69 $70 forward $16 $-1 #
coedge $-1 $27 $68 $71 $72 forward $16 $-1 #
coedge $-1 $73 $74 $27 $44 reversed $75 $-1 #
edge $-1 $76 -34.535080604727781 $77 34.535080604727781 $43 $78 forward 7 unknown #
face $-1 $79 $80 $10 $-1 $81 reversed single #
loop $-1 $-1 $82 $28 #
plane-surface $-1 24.062323879157894 -127.28556030980403 93.382057368679341 1 0 0 0 0.73135370988377701 -0.68199835119979291 forward_v I I I I #
coedge $-1 $83 $84 $85 $86 reversed $29 $-1 #
coedge $-1 $50 $31 $87 $88 reversed $19 $-1 #
coedge $-1 $31 $49 $83 $89 reversed $19 $-1 #
coedge $-1 $85 $90 $31 $52 forward $91 $-1 #
edge $-1 $92 29.107699550174232 $93 32.954654569350303 $51 $94 forward 7 unknown #
loop $-1 $-1 $58 $32 #
plane-surface $-1 42.592280749612726 -34.535080604727781 6.8908378985489236 0 -0.73135370988377701 0.68199835119979291 1 0 0 forward_v I I I I #
loop $-1 $-1 $95 $21 #
coedge $-1 $56 $56 $57 $96 reversed $33 $-1 #
coedge $-1 $57 $57 $56 $96 forward $35 $-1 #
coedge $-1 $58 $58 $36 $59 forward $53 $-1 #
edge $-1 $97 -1.6498360804101847e-015 $97 6.2831853071795987 $58 $98 forward 7 unknown #
face $-1 $99 $100 $9 $-1 $101 reversed single #
loop $-1 $-1 $102 $37 #
plane-surface $-1 -63.410138248847929 0 0 1 0 0 0 0 -1 forward_v I I I I #
coedge $-1 $103 $71 $104 $105 forward $38 $-1 #
coedge $-1 $106 $40 $103 $107 forward $25 $-1 #
coedge $-1 $40 $106 $108 $109 forward $25 $-1 #
coedge $-1 $74 $73 $40 $67 reversed $75 $-1 #
edge $-1 $110 -34.535080604727781 $111 34.535080604727781 $66 $112 forward 7 unknown #
coedge $-1 $42 $41 $113 $114 forward $16 $-1 #
coedge $-1 $115 $116 $41 $70 reversed $100 $-1 #
edge $-1 $77 -63.410138248847929 $117 63.410138248847929 $69 $118 forward 7 unknown #
coedge $-1 $63 $119 $42 $72 reversed $38 $-1 #
edge $-1 $120 -63.410138248847929 $76 63.410138248847929 $71 $121 forward 7 unknown #
coedge $-1 $66 $43 $119 $122 forward $75 $-1 #
coedge $-1 $43 $66 $115 $123 reversed $75 $-1 #
loop $-1 $-1 $73 $99 #
vertex $-1 $44 $124 #
vertex $-1 $44 $125 #
straight-curve $-1 63.410138248847929 0 11.016192190213802 0 1 0 I I #
face $-1 $-1 $91 $10 $-1 $126 forward single #
loop $-1 $-1 $127 $45 #
plane-surface $-1 0 -34.535080604727781 0 0 1 0 0 0 1 forward_v I I I I #
coedge $-1 $128 $129 $130 $131 reversed $46 $-1 #
coedge $-1 $132 $48 $50 $89 forward $29 $-1 #
coedge $-1 $48 $132 $128 $133 forward $29 $-1 #
coedge $-1 $130 $51 $48 $86 forward $91 $-1 #
edge $-1 $93 -39.826097245261195 $134 -2.766183504351531 $85 $135 forward 7 unknown #
coedge $-1 $136 $137 $49 $88 forward $80 $-1 #
edge $-1 $138 -39.800190785790747 $92 -35.67483649412587 $87 $139 forward 7 unknown #
edge $-1 $93 -5.6407101460119193 $138 0 $50 $140 forward 7 unknown #
coedge $-1 $51 $130 $136 $141 forward $91 $-1 #
loop $-1 $-1 $130 $79 #
vertex $-1 $88 $142 #
vertex $-1 $52 $143 #
straight-curve $-1 61.122237620067558 -63.642780154902013 11.0161921902138 0 1 0 I I #
coedge $-1 $95 $95 $-1 $144 reversed $55 $-1 #
edge $-1 $145 0 $145 6.2831853071796004 $56 $146 forward 7 unknown #
vertex $-1 $59 $147 #
ellipse-curve $-1 42.592280749612726 -32.611603095139749 8.953515044381362 0 -0.73135370988377701 0.68199835119979291 1 0 0 1 I I #
face $-1 $-1 $75 $9 $-1 $148 reversed single #
loop $-1 $-1 $115 $60 #
plane-surface $-1 0 34.535080604727781 0 0 -1 0 0 0 -1 forward_v I I I I #
coedge $-1 $149 $113 $116 $150 forward $61 $-1 #
coedge $-1 $119 $63 $64 $107 reversed $38 $-1 #
coedge $-1 $113 $149 $63 $105 reversed $61 $-1 #
edge $-1 $120 -11.016192190213802 $151 11.016192190213802 $104 $152 forward 7 unknown #
coedge $-1 $65 $64 $149 $153 forward $25 $-1 #
edge $-1 $111 -63.410138248847929 $151 63.410138248847929 $103 $154 forward 7 unknown #
coedge $-1 $116 $115 $65 $109 reversed $100 $-1 #
edge $-1 $155 -63.410138248847929 $110 63.410138248847929 $108 $156 forward 7 unknown #
vertex $-1 $67 $157 #
vertex $-1 $122 $158 #
straight-curve $-1 63.410138248847929 0 -11.016192190213802 0 -1 0 I I #
coedge $-1 $102 $104 $68 $114 reversed $61 $-1 #
edge $-1 $117 -34.535080604727781 $120 34.535080604727781 $113 $159 forward 7 unknown #
coedge $-1 $108 $69 $74 $123 forward $100 $-1 #
coedge $-1 $69 $108 $102 $150 reversed $100 $-1 #
vertex $-1 $70 $160 #
straight-curve $-1 0 34.535080604727781 11.016192190213802 -1 0 0 I I #
coedge $-1 $71 $103 $73 $122 reversed $38 $-1 #
vertex $-1 $114 $161 #
straight-curve $-1 0 -34.535080604727781 11.016192190213802 1 0 0 I I #
edge $-1 $76 -11.016192190213802 $111 11.016192190213802 $73 $162 forward 7 unknown #
edge $-1 $77 -11.016192190213802 $110 11.016192190213802 $74 $163 forward 7 unknown #
point $-1 63.410138248847929 -34.535080604727781 11.016192190213802 #
point $-1 63.410138248847929 34.535080604727781 11.016192190213802 #
plane-surface $-1 0 0 11.016192190213802 0 0 1 1 0 0 forward_v I I I I #
coedge $-1 $137 $136 $129 $164 forward $80 $-1 #
coedge $-1 $129 $82 $84 $133 reversed $46 $-1 #
coedge $-1 $82 $128 $127 $164 reversed $46 $-1 #
coedge $-1 $90 $85 $82 $131 forward $91 $-1 #
edge $-1 $134 -32.954654569350303 $165 -29.107699550174232 $130 $166 forward 7 unknown #
coedge $-1 $84 $83 $137 $167 reversed $29 $-1 #
edge $-1 $168 0 $134 5.6407101460119193 $128 $169 forward 7 unknown #
vertex $-1 $86 $170 #
straight-curve $-1 21.296140374806363 -30.68812558555171 11.0161921902138 -1 0 0 I I #
coedge $-1 $127 $87 $90 $141 reversed $80 $-1 #
coedge $-1 $87 $127 $132 $167 forward $80 $-1 #
vertex $-1 $88 $171 #
straight-curve $-1 61.122237620067558 -34.535080604727781 46.69102868433967 0 0 1 I I #
straight-curve $-1 61.122237620067558 -34.535080604727781 6.8908378985489236 0 -0.68199835119979291 -0.73135370988377701 I I #
edge $-1 $165 24.062323879157894 $92 61.122237620067558 $136 $172 forward 7 unknown #
point $-1 61.122237620067558 -34.535080604727781 11.016192190213802 #
point $-1 61.122237620067558 -30.68812558555171 11.016192190213802 #
edge $-1 $173 1 $173 0 $95 $-1 forward 7 unknown #
vertex $-1 $96 $174 #
ellipse-curve $-1 42.592280749612726 -29.954963589764624 6.4761586873786827 0 -0.73135370988377701 0.68199835119979291 1 0 0 1 I I #
point $-1 43.592280749612726 -32.611603095139742 8.9535150443813531 #
plane-surface $-1 63.410138248847929 0 0 -1 0 0 0 0 1 forward_v I I I I #
coedge $-1 $104 $102 $106 $153 reversed $61 $-1 #
edge $-1 $117 -11.016192190213802 $155 11.016192190213802 $116 $175 forward 7 unknown #
vertex $-1 $153 $176 #
straight-curve $-1 -63.410138248847929 -34.535080604727781 0 0 0 -1 I I #
edge $-1 $151 -34.535080604727781 $155 34.535080604727781 $149 $177 forward 7 unknown #
straight-curve $-1 0 -34.535080604727781 -11.016192190213802 -1 0 0 I I #
vertex $-1 $109 $178 #
straight-curve $-1 0 34.535080604727781 -11.016192190213802 1 0 0 I I #
point $-1 63.410138248847929 34.535080604727781 -11.016192190213802 #
point $-1 63.410138248847929 -34.535080604727781 -11.016192190213802 #
straight-curve $-1 -63.410138248847929 0 11.016192190213802 0 -1 0 I I #
point $-1 -63.410138248847929 34.535080604727781 11.016192190213802 #
point $-1 -63.410138248847929 -34.535080604727781 11.016192190213802 #
straight-curve $-1 63.410138248847929 -34.535080604727781 0 0 0 -1 I I #
straight-curve $-1 63.410138248847929 34.535080604727781 0 0 0 -1 I I #
edge $-1 $165 35.67483649412587 $168 39.800190785790747 $127 $179 forward 7 unknown #
vertex $-1 $141 $180 #
straight-curve $-1 24.062323879157894 -63.642780154902013 11.0161921902138 0 -1 0 I I #
edge $-1 $168 2.766183504351531 $138 39.826097245261195 $137 $181 forward 7 unknown #
vertex $-1 $167 $182 #
straight-curve $-1 24.062323879157894 -34.535080604727781 6.8908378985489236 0 0.68199835119979291 0.73135370988377701 I I #
point $-1 24.062323879157894 -30.68812558555171 11.016192190213802 #
point $-1 61.122237620067558 -34.535080604727781 6.8908378985489236 #
straight-curve $-1 0 -34.535080604727781 11.016192190213802 1 0 0 I I #
vertex $-1 $144 $183 #
point $-1 43.592280749612726 -29.954963589764624 6.4761586873786827 #
straight-curve $-1 -63.410138248847929 34.535080604727781 0 0 0 -1 I I #
point $-1 -63.410138248847929 -34.535080604727781 -11.016192190213802 #
straight-curve $-1 -63.410138248847929 0 -11.016192190213802 0 1 0 I I #
point $-1 -63.410138248847929 34.535080604727781 -11.016192190213802 #
straight-curve $-1 24.062323879157894 -34.535080604727781 46.69102868433967 0 0 -1 I I #
point $-1 24.062323879157894 -34.535080604727781 11.016192190213802 #
straight-curve $-1 21.296140374806363 -34.535080604727781 6.8908378985489254 1 0 0 I I #
point $-1 24.062323879157894 -34.535080604727781 6.8908378985489236 #
point $-1 42.592280749612726 -29.223609879880847 5.7941603361788898 #
End-of-ACIS-data 