500 0 9 0           
7 Unknown 11 ACIS 5.0 NT 24 Thu Mar 25 21:58:20 1999 
-1 9.9999999999999995e-007 1e-010 
body $-1 $9 $-1 $10 #
body $-1 $11 $-1 $12 #
body $-1 $13 $-1 $14 #
body $-1 $15 $-1 $16 #
body $-1 $17 $-1 $18 #
body $-1 $19 $-1 $20 #
body $-1 $21 $-1 $22 #
body $-1 $23 $-1 $24 #
body $-1 $25 $-1 $26 #
lump $-1 $-1 $27 $0 #
transform $-1 1 0 0 0 1 0 0 0 1 75.222022156437873 44.466782035828295 21.013258453797409 1 rotate no_reflect no_shear #
lump $-1 $-1 $28 $1 #
transform $-1 1 0 0 0 1 0 0 0 1 75.222022156437873 44.466782035828295 21.013258453797409 1 rotate no_reflect no_shear #
lump $-1 $-1 $29 $2 #
transform $-1 1 0 0 0 1 0 0 0 1 75.222022156437873 44.466782035828295 21.013258453797409 1 rotate no_reflect no_shear #
lump $-1 $-1 $30 $3 #
transform $-1 1 0 0 0 1 0 0 0 1 75.222022156437873 44.466782035828295 21.013258453797409 1 rotate no_reflect no_shear #
lump $-1 $-1 $31 $4 #
transform $-1 1 0 0 0 1 0 0 0 1 75.222022156437873 44.466782035828295 21.013258453797409 1 rotate no_reflect no_shear #
lump $-1 $-1 $32 $5 #
transform $-1 1 0 0 0 1 0 0 0 1 75.222022156437873 44.466782035828295 21.013258453797409 1 rotate no_reflect no_shear #
lump $-1 $-1 $33 $6 #
transform $-1 1 0 0 0 1 0 0 0 1 75.222022156437873 44.466782035828295 21.013258453797409 1 rotate no_reflect no_shear #
lump $-1 $-1 $34 $7 #
transform $-1 1 0 0 0 1 0 0 0 1 75.222022156437873 44.466782035828295 21.013258453797409 1 rotate no_reflect no_shear #
lump $-1 $-1 $35 $8 #
transform $-1 1 0 0 0 1 0 0 0 1 75.222022156437873 44.466782035828295 21.013258453797409 1 rotate no_reflect no_shear #
shell $-1 $-1 $-1 $36 $-1 $9 #
shell $-1 $-1 $-1 $37 $-1 $11 #
shell $-1 $-1 $-1 $38 $-1 $13 #
shell $-1 $-1 $-1 $39 $-1 $15 #
shell $-1 $-1 $-1 $40 $-1 $17 #
shell $-1 $-1 $-1 $41 $-1 $19 #
shell $-1 $-1 $-1 $42 $-1 $21 #
shell $-1 $-1 $-1 $43 $-1 $23 #
shell $-1 $-1 $-1 $44 $-1 $25 #
face $-1 $45 $46 $27 $-1 $47 forward single #
face $-1 $48 $49 $28 $-1 $50 forward single #
face $-1 $51 $52 $29 $-1 $53 reversed single #
face $-1 $54 $55 $30 $-1 $56 forward single #
face $-1 $57 $58 $31 $-1 $59 forward single #
face $-1 $60 $61 $32 $-1 $62 reversed single #
face $-1 $63 $64 $33 $-1 $65 forward single #
face $-1 $66 $67 $34 $-1 $68 forward single #
face $-1 $69 $70 $35 $-1 $71 forward single #
face $-1 $72 $73 $27 $-1 $74 reversed single #
loop $-1 $-1 $75 $36 #
plane-surface $-1 0 0 21.013258453797409 0 0 1 1 0 0 forward_v I I I I #
face $-1 $76 $77 $28 $-1 $78 reversed single #
loop $-1 $-1 $79 $37 #
plane-surface $-1 -75.222022156437873 0 0 1 0 0 0 0 -1 forward_v I I I I #
face $-1 $80 $81 $29 $-1 $82 reversed single #
loop $-1 $-1 $83 $38 #
plane-surface $-1 53.019256750825647 73.04328888557194 177.88265775804427 1 0 0 0 -0.64278761758704617 -0.76604443648966558 forward_v I I I I #
face $-1 $84 $85 $30 $-1 $86 forward single #
loop $-1 $87 $88 $39 #
cone-surface $-1 58.1717563319568 33.635549625547775 11.371239593901635 0 -0.64278761758704617 -0.76604443648966558 2 0 0 1 I I 0 1 2 forward I I I I #
face $-1 $89 $90 $31 $-1 $91 forward single #
loop $-1 $92 $93 $40 #
cone-surface $-1 65.900505703653579 33.635549625547775 11.371239593901635 0 -0.64278761758704617 -0.76604443648966558 2 0 0 1 I I 0 1 2 forward I I I I #
face $-1 $94 $95 $32 $-1 $96 reversed single #
loop $-1 $-1 $97 $41 #
plane-surface $-1 68.000250947469993 -44.466782035828288 16.613076280213562 0 -0.73135370988377701 0.68199835119979291 1 0 0 forward_v I I I I #
face $-1 $98 $99 $33 $-1 $100 forward single #
loop $-1 $101 $102 $42 #
cone-surface $-1 63.667188222089237 -41.358766633178277 17.828060950113905 0 0.73135370988377701 -0.68199835119979291 1 0 0 1 I I 0 1 1 forward I I I I #
face $-1 $103 $104 $34 $-1 $105 forward single #
loop $-1 $106 $107 $43 #
cone-surface $-1 68.000250947469965 -41.358766633178277 17.828060950113905 0 0.73135370988377701 -0.68199835119979291 1 0 0 1 I I 0 1 1 forward I I I I #
face $-1 $108 $109 $35 $-1 $110 forward single #
loop $-1 $111 $112 $44 #
cone-surface $-1 72.333313672850693 -41.358766633178277 17.828060950113905 0 0.73135370988377701 -0.68199835119979291 1 0 0 1 I I 0 1 1 forward I I I I #
face $-1 $113 $114 $27 $-1 $115 reversed single #
loop $-1 $-1 $116 $45 #
plane-surface $-1 0 0 -21.013258453797409 0 0 1 1 0 0 forward_v I I I I #
coedge $-1 $117 $118 $119 $120 forward $46 $-1 #
face $-1 $121 $122 $28 $-1 $123 forward single #
loop $-1 $-1 $124 $48 #
plane-surface $-1 0 44.466782035828295 0 0 -1 0 0 0 -1 forward_v I I I I #
coedge $-1 $125 $126 $127 $128 forward $49 $-1 #
face $-1 $129 $130 $29 $-1 $131 reversed single #
loop $-1 $-1 $132 $51 #
plane-surface $-1 62.036131017805218 -23.660279938461457 62.635834609161094 0 0.64278761758704617 0.76604443648966558 1 0 0 forward_v I I I I #
coedge $-1 $133 $134 $135 $136 reversed $52 $-1 #
face $-1 $-1 $137 $30 $-1 $138 forward single #
loop $-1 $139 $140 $54 #
cone-surface $-1 58.1717563319568 31.42313377121004 8.7345851064068718 0 -0.64278761758704617 -0.76604443648966558 1 0 0 1 I I -0.70710678118654746 0.70710678118654746 1 forward I I I I #
loop $-1 $-1 $141 $39 #
coedge $-1 $88 $88 $142 $143 reversed $55 $-1 #
face $-1 $-1 $144 $31 $-1 $145 forward single #
loop $-1 $146 $147 $57 #
cone-surface $-1 65.900505703653579 31.42313377121004 8.7345851064068718 0 -0.64278761758704617 -0.76604443648966558 1 0 0 1 I I -0.70710678118654746 0.70710678118654746 1 forward I I I I #
loop $-1 $-1 $148 $40 #
coedge $-1 $93 $93 $149 $150 reversed $58 $-1 #
face $-1 $151 $152 $32 $-1 $153 reversed single #
loop $-1 $-1 $154 $60 #
plane-surface $-1 60.778479738502099 -154.49459197396931 119.21566644942341 1 0 0 0 0.73135370988377701 -0.68199835119979291 forward_v I I I I #
coedge $-1 $155 $156 $157 $158 reversed $61 $-1 #
face $-1 $-1 $159 $33 $-1 $160 forward single #
loop $-1 $161 $162 $63 #
cone-surface $-1 63.667188222089237 -39.936692455051499 16.501955357622432 0 0.73135370988377701 -0.68199835119979291 0.5 0 0 1 I I -0.70710678118654746 0.70710678118654746 0.5 forward I I I I #
loop $-1 $-1 $163 $42 #
coedge $-1 $102 $102 $164 $165 reversed $64 $-1 #
face $-1 $-1 $166 $34 $-1 $167 forward single #
loop $-1 $168 $169 $66 #
cone-surface $-1 68.000250947469965 -39.936692455051499 16.501955357622432 0 0.73135370988377701 -0.68199835119979291 0.5 0 0 1 I I -0.70710678118654746 0.70710678118654746 0.5 forward I I I I #
loop $-1 $-1 $170 $43 #
coedge $-1 $107 $107 $171 $172 reversed $67 $-1 #
face $-1 $-1 $173 $35 $-1 $174 forward single #
loop $-1 $175 $176 $69 #
cone-surface $-1 72.333313672850693 -39.936692455051499 16.501955357622432 0 0.73135370988377701 -0.68199835119979291 0.5 0 0 1 I I -0.70710678118654746 0.70710678118654746 0.5 forward I I I I #
loop $-1 $-1 $177 $44 #
coedge $-1 $112 $112 $178 $179 reversed $70 $-1 #
face $-1 $180 $181 $27 $-1 $182 reversed single #
loop $-1 $-1 $183 $72 #
plane-surface $-1 0 -44.466782035828295 0 0 1 0 0 0 1 forward_v I I I I #
coedge $-1 $184 $185 $186 $187 forward $73 $-1 #
coedge $-1 $188 $75 $189 $190 forward $46 $-1 #
coedge $-1 $75 $188 $191 $192 forward $46 $-1 #
coedge $-1 $193 $194 $75 $120 reversed $195 $-1 #
edge $-1 $196 -44.466782035828295 $197 44.466782035828295 $119 $198 forward 7 unknown #
face $-1 $199 $200 $28 $-1 $201 reversed single #
loop $-1 $-1 $127 $76 #
plane-surface $-1 -83.020681289184026 0 -14.882365986681288 0 0 1 1 0 0 forward_v I I I I #
coedge $-1 $202 $203 $126 $204 forward $77 $-1 #
coedge $-1 $205 $79 $206 $207 reversed $49 $-1 #
coedge $-1 $79 $205 $124 $204 reversed $49 $-1 #
coedge $-1 $208 $209 $79 $128 reversed $122 $-1 #
edge $-1 $210 -44.466782035828295 $211 44.466782035828295 $127 $212 forward 7 unknown #
face $-1 $213 $214 $29 $-1 $215 forward single #
loop $-1 $-1 $216 $80 #
plane-surface $-1 71.053005284784788 73.04328888557194 177.88265775804427 -1 0 0 0 0.64278761758704617 0.76604443648966558 forward_v I I I I #
coedge $-1 $217 $218 $219 $220 reversed $81 $-1 #
coedge $-1 $134 $83 $221 $222 reversed $52 $-1 #
coedge $-1 $83 $133 $217 $223 reversed $52 $-1 #
coedge $-1 $219 $224 $83 $136 forward $214 $-1 #
edge $-1 $225 -7.9451375930423254 $226 10.578070754017375 $135 $227 forward 7 unknown #
loop $-1 $-1 $142 $84 #
plane-surface $-1 62.036131017805218 -23.660279938461457 62.635834609161094 0 0.64278761758704617 0.76604443648966558 1 0 0 forward_v I I I I #
loop $-1 $-1 $228 $54 #
coedge $-1 $140 $140 $141 $229 reversed $85 $-1 #
coedge $-1 $141 $141 $140 $229 forward $87 $-1 #
coedge $-1 $142 $142 $88 $143 forward $137 $-1 #
edge $-1 $230 7.4277846917104454e-016 $230 6.2831853071796013 $142 $231 forward 7 unknown #
loop $-1 $-1 $149 $89 #
plane-surface $-1 62.036131017805218 -23.660279938461457 62.635834609161094 0 0.64278761758704617 0.76604443648966558 1 0 0 forward_v I I I I #
loop $-1 $-1 $232 $57 #
coedge $-1 $147 $147 $148 $233 reversed $90 $-1 #
coedge $-1 $148 $148 $147 $233 forward $92 $-1 #
coedge $-1 $149 $149 $93 $150 forward $144 $-1 #
edge $-1 $234 7.4277846917104454e-016 $234 6.2831853071796013 $149 $235 forward 7 unknown #
face $-1 $236 $237 $32 $-1 $238 forward single #
loop $-1 $-1 $239 $94 #
plane-surface $-1 0 -44.466782035828295 0 0 1 0 0 0 1 forward_v I I I I #
coedge $-1 $240 $241 $242 $243 reversed $95 $-1 #
coedge $-1 $244 $97 $245 $246 reversed $61 $-1 #
coedge $-1 $97 $244 $240 $247 forward $61 $-1 #
coedge $-1 $242 $248 $97 $158 forward $237 $-1 #
edge $-1 $249 -41.221896682702891 $250 -26.778354264767103 $157 $251 forward 7 unknown #
loop $-1 $-1 $164 $98 #
plane-surface $-1 68.000250947469993 -44.466782035828288 16.613076280213562 0 -0.73135370988377701 0.68199835119979291 1 0 0 forward_v I I I I #
loop $-1 $-1 $252 $63 #
coedge $-1 $162 $162 $163 $253 reversed $99 $-1 #
coedge $-1 $163 $163 $162 $253 forward $101 $-1 #
coedge $-1 $164 $164 $102 $165 forward $159 $-1 #
edge $-1 $254 2.2475994133081969e-015 $254 6.2831853071796031 $164 $255 forward 7 unknown #
loop $-1 $-1 $171 $103 #
plane-surface $-1 68.000250947469993 -44.466782035828288 16.613076280213562 0 -0.73135370988377701 0.68199835119979291 1 0 0 forward_v I I I I #
loop $-1 $-1 $256 $66 #
coedge $-1 $169 $169 $170 $257 reversed $104 $-1 #
coedge $-1 $170 $170 $169 $257 forward $106 $-1 #
coedge $-1 $171 $171 $107 $172 forward $166 $-1 #
edge $-1 $258 2.2475994133081969e-015 $258 6.2831853071796031 $171 $259 forward 7 unknown #
loop $-1 $-1 $178 $108 #
plane-surface $-1 68.000250947469993 -44.466782035828288 16.613076280213562 0 -0.73135370988377701 0.68199835119979291 1 0 0 forward_v I I I I #
loop $-1 $-1 $260 $69 #
coedge $-1 $176 $176 $177 $261 reversed $109 $-1 #
coedge $-1 $177 $177 $176 $261 forward $111 $-1 #
coedge $-1 $178 $178 $112 $179 forward $173 $-1 #
edge $-1 $262 2.2475994133081969e-015 $262 6.2831853071796031 $178 $263 forward 7 unknown #
face $-1 $264 $265 $27 $-1 $266 reversed single #
loop $-1 $-1 $267 $113 #
plane-surface $-1 -75.222022156437873 0 0 1 0 0 0 0 -1 forward_v I I I I #
coedge $-1 $268 $191 $269 $270 forward $114 $-1 #
coedge $-1 $271 $116 $268 $272 forward $73 $-1 #
coedge $-1 $116 $271 $273 $274 forward $73 $-1 #
coedge $-1 $194 $193 $116 $187 reversed $195 $-1 #
edge $-1 $275 -44.466782035828295 $276 44.466782035828295 $186 $277 forward 7 unknown #
coedge $-1 $118 $117 $278 $279 forward $46 $-1 #
coedge $-1 $280 $281 $117 $190 reversed $265 $-1 #
edge $-1 $197 -75.222022156437873 $282 75.222022156437873 $189 $283 forward 7 unknown #
coedge $-1 $183 $284 $118 $192 reversed $114 $-1 #
edge $-1 $285 -75.222022156437873 $196 75.222022156437873 $191 $286 forward 7 unknown #
coedge $-1 $186 $119 $284 $287 forward $195 $-1 #
coedge $-1 $119 $186 $280 $288 reversed $195 $-1 #
loop $-1 $-1 $193 $264 #
vertex $-1 $120 $289 #
vertex $-1 $120 $290 #
straight-curve $-1 75.222022156437873 0 21.013258453797409 0 1 0 I I #
face $-1 $291 $292 $28 $-1 $293 reversed single #
loop $-1 $-1 $294 $121 #
plane-surface $-1 -90.819340421930178 0 -17.947812220239349 1 0 0 0 0 -1 forward_v I I I I #
coedge $-1 $295 $124 $296 $297 reversed $77 $-1 #
coedge $-1 $124 $295 $208 $298 reversed $77 $-1 #
edge $-1 $210 14.882365986681288 $299 21.013258453797409 $124 $300 forward 7 unknown #
coedge $-1 $126 $125 $301 $302 reversed $49 $-1 #
coedge $-1 $303 $304 $125 $207 forward $305 $-1 #
edge $-1 $306 -21.013258453797409 $211 -14.882365986681288 $206 $307 forward 7 unknown #
coedge $-1 $308 $127 $203 $298 forward $122 $-1 #
coedge $-1 $127 $308 $303 $309 forward $122 $-1 #
vertex $-1 $204 $310 #
vertex $-1 $309 $311 #
straight-curve $-1 -75.222022156437873 0 -14.882365986681288 0 -1 0 I I #
face $-1 $-1 $312 $29 $-1 $313 reversed single #
loop $-1 $-1 $135 $129 #
plane-surface $-1 0 0 21.013258453797409 0 0 1 1 0 0 forward_v I I I I #
coedge $-1 $314 $315 $316 $317 reversed $130 $-1 #
coedge $-1 $318 $132 $134 $223 forward $81 $-1 #
coedge $-1 $132 $318 $314 $319 forward $81 $-1 #
coedge $-1 $316 $135 $132 $220 forward $214 $-1 #
edge $-1 $226 22.001191241923038 $320 40.034939775882179 $219 $321 forward 7 unknown #
coedge $-1 $322 $323 $133 $222 forward $312 $-1 #
edge $-1 $324 -83.470888043006113 $225 -67.928070425224732 $221 $325 forward 7 unknown #
edge $-1 $226 64.75323266432892 $324 88.93356407165659 $134 $326 forward 7 unknown #
coedge $-1 $135 $316 $322 $327 forward $214 $-1 #
vertex $-1 $222 $328 #
vertex $-1 $136 $329 #
straight-curve $-1 53.019256750825647 36.52164444278597 21.013258453797405 0 -1 0 I I #
coedge $-1 $228 $228 $-1 $330 reversed $139 $-1 #
edge $-1 $331 0 $331 6.2831853071796004 $140 $332 forward 7 unknown #
vertex $-1 $143 $333 #
ellipse-curve $-1 58.1717563319568 35.205177862298449 13.241849644906713 0 0.64278761758704617 0.76604443648966558 2 0 0 1 I I #
coedge $-1 $232 $232 $-1 $334 reversed $146 $-1 #
edge $-1 $335 0 $335 6.2831853071796004 $147 $336 forward 7 unknown #
vertex $-1 $150 $337 #
ellipse-curve $-1 65.900505703653579 35.205177862298449 13.241849644906713 0 0.64278761758704617 0.76604443648966558 2 0 0 1 I I #
face $-1 $-1 $338 $32 $-1 $339 reversed single #
loop $-1 $-1 $242 $151 #
plane-surface $-1 0 0 21.013258453797409 0 0 1 1 0 0 forward_v I I I I #
coedge $-1 $340 $341 $241 $342 forward $152 $-1 #
coedge $-1 $241 $154 $156 $247 reversed $95 $-1 #
coedge $-1 $154 $240 $239 $342 reversed $95 $-1 #
coedge $-1 $343 $157 $154 $243 forward $237 $-1 #
edge $-1 $250 -36.883750110086623 $344 -32.780513951156358 $242 $345 forward 7 unknown #
coedge $-1 $156 $155 $340 $346 reversed $61 $-1 #
coedge $-1 $347 $348 $155 $246 forward $338 $-1 #
edge $-1 $349 -9.0881185307395587 $249 -3.0716286789507325 $245 $350 forward 7 unknown #
edge $-1 $351 -1.004247040074496e-014 $250 6.0164898517888155 $240 $352 forward 7 unknown #
coedge $-1 $157 $343 $347 $353 forward $237 $-1 #
vertex $-1 $246 $354 #
vertex $-1 $158 $355 #
straight-curve $-1 34.000125473734997 -40.36354587689803 21.013258453797409 -1 0 0 I I #
coedge $-1 $252 $252 $-1 $356 reversed $161 $-1 #
edge $-1 $357 0 $357 6.2831853071796004 $162 $358 forward 7 unknown #
vertex $-1 $165 $359 #
ellipse-curve $-1 63.667188222089237 -42.415163956363166 18.81316736700548 0 -0.73135370988377701 0.68199835119979291 1 0 0 1 I I #
coedge $-1 $256 $256 $-1 $360 reversed $168 $-1 #
edge $-1 $361 0 $361 6.2831853071796004 $169 $362 forward 7 unknown #
vertex $-1 $172 $363 #
ellipse-curve $-1 68.000250947469965 -42.415163956363166 18.81316736700548 0 -0.73135370988377701 0.68199835119979291 1 0 0 1 I I #
coedge $-1 $260 $260 $-1 $364 reversed $175 $-1 #
edge $-1 $365 0 $365 6.2831853071796004 $176 $366 forward 7 unknown #
vertex $-1 $179 $367 #
ellipse-curve $-1 72.333313672850693 -42.415163956363166 18.81316736700548 0 -0.73135370988377701 0.68199835119979291 1 0 0 1 I I #
face $-1 $-1 $195 $27 $-1 $368 reversed single #
loop $-1 $-1 $280 $180 #
plane-surface $-1 0 44.466782035828295 0 0 -1 0 0 0 -1 forward_v I I I I #
coedge $-1 $369 $278 $281 $370 forward $181 $-1 #
coedge $-1 $284 $183 $184 $272 reversed $114 $-1 #
coedge $-1 $278 $369 $183 $270 reversed $181 $-1 #
edge $-1 $285 -21.013258453797409 $371 21.013258453797409 $269 $372 forward 7 unknown #
coedge $-1 $185 $184 $369 $373 forward $73 $-1 #
edge $-1 $276 -75.222022156437873 $371 75.222022156437873 $268 $374 forward 7 unknown #
coedge $-1 $281 $280 $185 $274 reversed $265 $-1 #
edge $-1 $375 -75.222022156437873 $275 75.222022156437873 $273 $376 forward 7 unknown #
vertex $-1 $187 $377 #
vertex $-1 $287 $378 #
straight-curve $-1 75.222022156437873 0 -21.013258453797409 0 -1 0 I I #
coedge $-1 $267 $269 $188 $279 reversed $181 $-1 #
edge $-1 $282 -44.466782035828295 $285 44.466782035828295 $278 $379 forward 7 unknown #
coedge $-1 $273 $189 $194 $288 forward $265 $-1 #
coedge $-1 $189 $273 $267 $370 reversed $265 $-1 #
vertex $-1 $190 $380 #
straight-curve $-1 0 44.466782035828295 21.013258453797409 -1 0 0 I I #
coedge $-1 $191 $268 $193 $287 reversed $114 $-1 #
vertex $-1 $279 $381 #
straight-curve $-1 0 -44.466782035828295 21.013258453797409 1 0 0 I I #
edge $-1 $196 -21.013258453797409 $276 21.013258453797409 $193 $382 forward 7 unknown #
edge $-1 $197 -21.013258453797409 $275 21.013258453797409 $194 $383 forward 7 unknown #
point $-1 75.222022156437873 -44.466782035828295 21.013258453797409 #
point $-1 75.222022156437873 44.466782035828295 21.013258453797409 #
face $-1 $-1 $305 $28 $-1 $384 reversed single #
loop $-1 $-1 $301 $199 #
plane-surface $-1 0 0 -21.013258453797409 0 0 1 1 0 0 forward_v I I I I #
coedge $-1 $385 $386 $295 $387 forward $200 $-1 #
coedge $-1 $203 $202 $294 $387 reversed $77 $-1 #
coedge $-1 $301 $388 $202 $297 forward $292 $-1 #
edge $-1 $389 -90.819340421930178 $299 -75.222022156437873 $202 $390 forward 7 unknown #
edge $-1 $210 -7.7986591327461525 $391 7.7986591327461525 $203 $392 forward 7 unknown #
vertex $-1 $204 $393 #
straight-curve $-1 -75.222022156437873 44.466782035828295 0 0 0 -1 I I #
coedge $-1 $394 $296 $205 $302 forward $292 $-1 #
edge $-1 $299 -44.466782035828295 $306 44.466782035828295 $301 $395 forward 7 unknown #
coedge $-1 $396 $206 $209 $309 reversed $305 $-1 #
coedge $-1 $206 $396 $394 $397 reversed $305 $-1 #
loop $-1 $-1 $206 $291 #
vertex $-1 $397 $398 #
straight-curve $-1 -75.222022156437873 -44.466782035828295 0 0 0 1 I I #
coedge $-1 $209 $208 $386 $399 forward $122 $-1 #
edge $-1 $400 -7.7986591327461525 $211 7.7986591327461525 $303 $401 forward 7 unknown #
point $-1 -75.222022156437873 44.466782035828295 -14.882365986681288 #
point $-1 -75.222022156437873 -44.466782035828295 -14.882365986681288 #
loop $-1 $-1 $221 $213 #
plane-surface $-1 0 44.466782035828295 0 0 -1 0 0 0 -1 forward_v I I I I #
coedge $-1 $315 $216 $218 $319 reversed $130 $-1 #
coedge $-1 $216 $314 $402 $403 reversed $130 $-1 #
coedge $-1 $224 $219 $216 $317 forward $214 $-1 #
edge $-1 $320 -10.578070754017375 $404 7.9451375930423254 $316 $405 forward 7 unknown #
coedge $-1 $218 $217 $323 $406 reversed $81 $-1 #
edge $-1 $407 -88.93356407165659 $320 -64.75323266432892 $314 $408 forward 7 unknown #
vertex $-1 $220 $409 #
straight-curve $-1 31.018065508902609 25.943573688768588 21.013258453797413 1 0 0 I I #
coedge $-1 $402 $221 $224 $327 reversed $312 $-1 #
coedge $-1 $221 $402 $318 $406 forward $312 $-1 #
vertex $-1 $222 $410 #
straight-curve $-1 53.019256750825647 44.466782035828295 88.941328879022137 0 0 1 I I #
straight-curve $-1 53.019256750825647 -23.660279938461457 62.635834609161094 0 0.76604443648966558 -0.64278761758704617 I I #
edge $-1 $404 -71.053005284784788 $225 -53.019256750825647 $322 $411 forward 7 unknown #
point $-1 53.019256750825647 44.466782035828295 21.013258453797409 #
point $-1 53.019256750825647 25.943573688768595 21.013258453797413 #
edge $-1 $412 1 $412 0 $228 $-1 forward 7 unknown #
vertex $-1 $229 $413 #
ellipse-curve $-1 58.1717563319568 32.065921388797086 9.5006295428965366 0 0.64278761758704617 0.76604443648966558 2 0 0 1 I I #
point $-1 60.1717563319568 35.20517786229847 13.241849644906736 #
edge $-1 $414 1 $414 0 $232 $-1 forward 7 unknown #
vertex $-1 $233 $415 #
ellipse-curve $-1 65.900505703653579 32.065921388797086 9.5006295428965366 0 0.64278761758704617 0.76604443648966558 2 0 0 1 I I #
point $-1 67.900505703653579 35.20517786229847 13.241849644906736 #
loop $-1 $-1 $245 $236 #
plane-surface $-1 75.222022156437873 0 0 -1 0 0 0 0 1 forward_v I I I I #
coedge $-1 $416 $239 $244 $346 forward $152 $-1 #
coedge $-1 $239 $416 $343 $417 reversed $152 $-1 #
edge $-1 $344 38.594574770914292 $351 42.99475694449815 $239 $418 forward 7 unknown #
coedge $-1 $248 $242 $341 $417 forward $237 $-1 #
vertex $-1 $417 $419 #
straight-curve $-1 60.778479738502099 -77.247295986984653 21.013258453797405 0 -1 0 I I #
edge $-1 $351 26.778354264767103 $349 41.221896682702891 $340 $420 forward 7 unknown #
coedge $-1 $348 $245 $248 $353 reversed $338 $-1 #
coedge $-1 $245 $347 $416 $421 forward $338 $-1 #
vertex $-1 $346 $422 #
straight-curve $-1 75.222022156437873 -38.26870018235563 23.25970548353343 0 0.68199835119979291 0.73135370988377701 I I #
vertex $-1 $346 $423 #
straight-curve $-1 60.778479738502099 -44.466782035828288 16.613076280213562 0 0.68199835119979291 0.73135370988377701 I I #
edge $-1 $424 -44.466782035828295 $249 -40.36354587689803 $347 $425 forward 7 unknown #
point $-1 75.222022156437887 -40.36354587689803 21.013258453797409 #
point $-1 60.778479738502099 -40.36354587689803 21.013258453797409 #
edge $-1 $426 1 $426 0 $252 $-1 forward 7 unknown #
vertex $-1 $253 $427 #
ellipse-curve $-1 63.667188222089237 -40.302369309993388 16.842954533222329 0 -0.73135370988377701 0.68199835119979291 1 0 0 1 I I #
point $-1 64.667188222089237 -42.415163956363159 18.813167367005477 #
edge $-1 $428 1 $428 0 $256 $-1 forward 7 unknown #
vertex $-1 $257 $429 #
ellipse-curve $-1 68.000250947469965 -40.302369309993388 16.842954533222329 0 -0.73135370988377701 0.68199835119979291 1 0 0 1 I I #
point $-1 69.000250947469965 -42.415163956363159 18.813167367005477 #
edge $-1 $430 1 $430 0 $260 $-1 forward 7 unknown #
vertex $-1 $261 $431 #
ellipse-curve $-1 72.333313672850693 -40.302369309993388 16.842954533222329 0 -0.73135370988377701 0.68199835119979291 1 0 0 1 I I #
point $-1 73.333313672850693 -42.415163956363159 18.813167367005477 #
plane-surface $-1 75.222022156437873 0 0 -1 0 0 0 0 1 forward_v I I I I #
coedge $-1 $269 $267 $271 $373 reversed $181 $-1 #
edge $-1 $282 -21.013258453797409 $375 21.013258453797409 $281 $432 forward 7 unknown #
vertex $-1 $373 $433 #
straight-curve $-1 -75.222022156437873 -44.466782035828295 0 0 0 -1 I I #
edge $-1 $371 -44.466782035828295 $375 44.466782035828295 $369 $434 forward 7 unknown #
straight-curve $-1 0 -44.466782035828295 -21.013258453797409 -1 0 0 I I #
vertex $-1 $274 $435 #
straight-curve $-1 0 44.466782035828295 -21.013258453797409 1 0 0 I I #
point $-1 75.222022156437873 44.466782035828295 -21.013258453797409 #
point $-1 75.222022156437873 -44.466782035828295 -21.013258453797409 #
straight-curve $-1 -75.222022156437873 0 21.013258453797409 0 -1 0 I I #
point $-1 -75.222022156437873 44.466782035828295 21.013258453797409 #
point $-1 -75.222022156437873 -44.466782035828295 21.013258453797409 #
straight-curve $-1 75.222022156437873 -44.466782035828295 0 0 0 -1 I I #
straight-curve $-1 75.222022156437873 44.466782035828295 0 0 0 -1 I I #
plane-surface $-1 0 -44.466782035828295 0 0 1 0 0 0 1 forward_v I I I I #
coedge $-1 $436 $294 $388 $437 reversed $200 $-1 #
coedge $-1 $294 $436 $308 $399 reversed $200 $-1 #
edge $-1 $391 -3.0654462335580615 $389 3.0654462335580632 $295 $438 forward 7 unknown #
coedge $-1 $296 $394 $385 $437 forward $292 $-1 #
vertex $-1 $297 $439 #
straight-curve $-1 0 44.466782035828295 -21.013258453797409 1 0 0 I I #
vertex $-1 $298 $440 #
straight-curve $-1 -83.020681289184026 44.466782035828295 -14.882365986681288 -1 0 0 I I #
point $-1 -75.222022156437873 44.466782035828295 -21.013258453797409 #
coedge $-1 $388 $301 $304 $397 forward $292 $-1 #
straight-curve $-1 -75.222022156437873 0 -21.013258453797409 0 -1 0 I I #
coedge $-1 $304 $303 $436 $441 forward $305 $-1 #
edge $-1 $306 -7.7986591327461525 $442 7.7986591327461525 $304 $443 forward 7 unknown #
point $-1 -75.222022156437873 -44.466782035828295 -21.013258453797409 #
edge $-1 $391 -44.466782035828295 $400 44.466782035828295 $386 $444 forward 7 unknown #
vertex $-1 $399 $445 #
straight-curve $-1 -83.020681289184026 -44.466782035828295 -14.882365986681288 1 0 0 I I #
coedge $-1 $323 $322 $315 $403 forward $312 $-1 #
edge $-1 $404 67.928070425224732 $407 83.470888043006113 $402 $446 forward 7 unknown #
vertex $-1 $327 $447 #
straight-curve $-1 71.053005284784788 36.52164444278597 21.013258453797405 0 1 0 I I #
edge $-1 $407 -40.034939775882179 $324 -22.001191241923038 $323 $448 forward 7 unknown #
vertex $-1 $406 $449 #
straight-curve $-1 71.053005284784788 -23.660279938461457 62.635834609161094 0 -0.76604443648966558 0.64278761758704617 I I #
point $-1 71.053005284784788 25.943573688768595 21.013258453797413 #
point $-1 53.019256750825647 44.466782035828288 5.4704408360160315 #
straight-curve $-1 0 44.466782035828295 21.013258453797409 -1 0 0 I I #
vertex $-1 $330 $450 #
point $-1 60.1717563319568 32.065921388797086 9.5006295428965366 #
vertex $-1 $334 $451 #
point $-1 67.900505703653579 32.065921388797086 9.5006295428965366 #
coedge $-1 $341 $340 $348 $421 reversed $152 $-1 #
edge $-1 $344 60.778479738502099 $424 75.222022156437873 $341 $452 forward 7 unknown #
straight-curve $-1 60.778479738502099 -44.466782035828295 59.607833224711705 0 0 -1 I I #
point $-1 60.778479738502099 -44.466782035828295 21.013258453797409 #
straight-curve $-1 34.000125473734997 -44.466782035828295 16.613076280213551 1 0 0 I I #
edge $-1 $424 -21.013258453797409 $349 -16.613076280213555 $348 $453 forward 7 unknown #
point $-1 75.222022156437887 -44.466782035828295 16.613076280213555 #
point $-1 60.778479738502099 -44.466782035828295 16.613076280213555 #
vertex $-1 $353 $454 #
straight-curve $-1 75.222022156437873 0 21.013258453797409 0 1 0 I I #
vertex $-1 $356 $455 #
point $-1 64.667188222089237 -40.302369309993388 16.842954533222329 #
vertex $-1 $360 $456 #
point $-1 69.000250947469965 -40.302369309993388 16.842954533222329 #
vertex $-1 $364 $457 #
point $-1 73.333313672850693 -40.302369309993388 16.842954533222329 #
straight-curve $-1 -75.222022156437873 44.466782035828295 0 0 0 -1 I I #
point $-1 -75.222022156437873 -44.466782035828295 -21.013258453797409 #
straight-curve $-1 -75.222022156437873 0 -21.013258453797409 0 1 0 I I #
point $-1 -75.222022156437873 44.466782035828295 -21.013258453797409 #
coedge $-1 $386 $385 $396 $441 reversed $200 $-1 #
edge $-1 $442 -44.466782035828295 $389 44.466782035828295 $385 $458 forward 7 unknown #
straight-curve $-1 -90.819340421930178 44.466782035828295 -17.947812220239349 0 0 -1 I I #
point $-1 -90.819340421930178 44.466782035828295 -21.013258453797413 #
point $-1 -90.819340421930178 44.466782035828295 -14.882365986681288 #
edge $-1 $400 -3.0654462335580615 $442 3.0654462335580632 $436 $459 forward 7 unknown #
vertex $-1 $437 $460 #
straight-curve $-1 -83.020681289184026 -44.466782035828295 -21.013258453797413 -1 0 0 I I #
straight-curve $-1 -90.819340421930178 0 -14.882365986681288 0 -1 0 I I #
point $-1 -90.819340421930178 -44.466782035828295 -14.882365986681288 #
straight-curve $-1 71.053005284784788 44.466782035828295 88.941328879022137 0 0 -1 I I #
point $-1 71.053005284784788 44.466782035828295 21.013258453797409 #
straight-curve $-1 31.018065508902609 44.466782035828295 5.4704408360160208 -1 0 0 I I #
point $-1 71.053005284784788 44.466782035828288 5.4704408360160315 #
point $-1 58.1717563319568 30.780346153622993 7.9685406699172061 #
point $-1 65.900505703653579 30.780346153622993 7.9685406699172061 #
straight-curve $-1 0 -44.466782035828295 21.013258453797409 1 0 0 I I #
straight-curve $-1 75.222022156437873 -44.466782035828295 0 0 0 -1 I I #
point $-1 75.222022156437873 -44.466782035828295 21.013258453797409 #
point $-1 63.667188222089237 -39.571015600109611 16.160956182022534 #
point $-1 68.000250947469965 -39.571015600109611 16.160956182022534 #
point $-1 72.333313672850693 -39.571015600109611 16.160956182022534 #
straight-curve $-1 -90.819340421930178 0 -21.013258453797413 0 1 0 I I #
straight-curve $-1 -90.819340421930178 -44.466782035828295 -17.947812220239349 0 0 -1 I I #
point $-1 -90.819340421930178 -44.466782035828295 -21.013258453797413 #
End-of-ACIS-data 