500 0 6 0           
7 Unknown 11 ACIS 5.0 NT 24 Thu Mar 25 22:18:28 1999 
-1 9.9999999999999995e-007 1e-010 
body $-1 $6 $-1 $7 #
body $-1 $8 $-1 $9 #
body $-1 $10 $-1 $11 #
body $-1 $12 $-1 $13 #
body $-1 $14 $-1 $15 #
body $-1 $16 $-1 $17 #
lump $-1 $-1 $18 $0 #
transform $-1 1 0 0 0 1 0 0 0 1 74.528641621143223 39.354816568925834 15.189323365039044 1 rotate no_reflect no_shear #
lump $-1 $-1 $19 $1 #
transform $-1 1 0 0 0 1 0 0 0 1 74.528641621143223 39.354816568925834 15.189323365039044 1 rotate no_reflect no_shear #
lump $-1 $-1 $20 $2 #
transform $-1 1 0 0 0 1 0 0 0 1 74.528641621143223 39.354816568925834 15.189323365039044 1 rotate no_reflect no_shear #
lump $-1 $-1 $21 $3 #
transform $-1 1 0 0 0 1 0 0 0 1 74.528641621143223 39.354816568925834 15.189323365039044 1 rotate no_reflect no_shear #
lump $-1 $-1 $22 $4 #
transform $-1 1 0 0 0 1 0 0 0 1 74.528641621143223 39.354816568925834 15.189323365039044 1 rotate no_reflect no_shear #
lump $-1 $-1 $23 $5 #
transform $-1 1 0 0 0 1 0 0 0 1 74.528641621143223 39.354816568925834 15.189323365039044 1 rotate no_reflect no_shear #
shell $-1 $-1 $-1 $24 $-1 $6 #
shell $-1 $-1 $-1 $25 $-1 $8 #
shell $-1 $-1 $-1 $26 $-1 $10 #
shell $-1 $-1 $-1 $27 $-1 $12 #
shell $-1 $-1 $-1 $28 $-1 $14 #
shell $-1 $-1 $-1 $29 $-1 $16 #
face $-1 $30 $31 $18 $-1 $32 forward single #
face $-1 $33 $34 $19 $-1 $35 reversed single #
face $-1 $36 $37 $20 $-1 $38 forward single #
face $-1 $39 $40 $21 $-1 $41 reversed single #
face $-1 $42 $43 $22 $-1 $44 forward single #
face $-1 $45 $46 $23 $-1 $47 forward single #
face $-1 $48 $49 $18 $-1 $50 reversed single #
loop $-1 $-1 $51 $24 #
plane-surface $-1 0 0 15.189323365039044 0 0 1 1 0 0 forward_v I I I I #
face $-1 $52 $53 $19 $-1 $54 forward single #
loop $-1 $-1 $55 $25 #
plane-surface $-1 0 -25.372137465053935 12.761627780654912 0 -1 0 0 0 -1 forward_v I I I I #
face $-1 $56 $57 $20 $-1 $58 reversed single #
loop $-1 $-1 $59 $26 #
plane-surface $-1 0 32.363477016989883 14.689323365039044 0 0 1 1 0 0 forward_v I I I I #
face $-1 $60 $61 $21 $-1 $62 reversed single #
loop $-1 $-1 $63 $27 #
plane-surface $-1 -195.11851811936361 -15.542027760406171 92.050886926476139 0 -1 0 0.80901700255871778 0 -0.5877852410284794 forward_v I I I I #
face $-1 $64 $65 $22 $-1 $66 forward single #
loop $-1 $67 $68 $28 #
cone-surface $-1 -69.413505263295463 -22.563534692297431 8.9347309130594734 0.80901700255871778 0 -0.5877852410284794 0.5877852410284794 0 0.80901700255871778 1 I I 0 1 1 forward I I I I #
face $-1 $69 $70 $23 $-1 $71 forward single #
loop $-1 $72 $73 $29 #
cone-surface $-1 -69.413505263295463 -18.350630533162672 8.9347309130594734 0.80901700255871778 0 -0.5877852410284794 0.5877852410284794 0 0.80901700255871778 1 I I 0 1 1 forward I I I I #
face $-1 $74 $75 $18 $-1 $76 reversed single #
loop $-1 $-1 $77 $30 #
plane-surface $-1 0 0 -15.189323365039044 0 0 1 1 0 0 forward_v I I I I #
coedge $-1 $78 $79 $80 $81 forward $31 $-1 #
face $-1 $82 $83 $19 $-1 $84 reversed single #
loop $-1 $-1 $85 $33 #
plane-surface $-1 0 -32.363477016989883 14.689323365039044 0 0 1 1 0 0 forward_v I I I I #
coedge $-1 $86 $87 $88 $89 reversed $34 $-1 #
face $-1 $90 $91 $20 $-1 $92 reversed single #
loop $-1 $-1 $93 $36 #
plane-surface $-1 0 32.363477016989883 10.83393219627078 0 0 1 1 0 0 forward_v I I I I #
coedge $-1 $94 $95 $96 $97 reversed $37 $-1 #
face $-1 $98 $99 $21 $-1 $100 forward single #
loop $-1 $-1 $101 $39 #
plane-surface $-1 -74.528641621143223 -20.457082612730055 4.437215768858465 -0.80901700255871778 0 0.5877852410284794 0.5877852410284794 0 0.80901700255871778 forward_v I I I I #
coedge $-1 $102 $103 $104 $105 reversed $40 $-1 #
face $-1 $-1 $106 $22 $-1 $107 forward single #
loop $-1 $108 $109 $42 #
cone-surface $-1 -67.799792006963315 -22.563534692297431 7.7622996386559464 0.80901700255871778 0 -0.5877852410284794 0.2938926205142397 0 0.40450850127935889 1 I I -0.70710678118654746 0.70710678118654746 0.5 forward I I I I #
loop $-1 $-1 $110 $28 #
coedge $-1 $68 $68 $111 $112 reversed $43 $-1 #
face $-1 $-1 $113 $23 $-1 $114 forward single #
loop $-1 $115 $116 $45 #
cone-surface $-1 -67.799792006963315 -18.350630533162672 7.7622996386559464 0.80901700255871778 0 -0.5877852410284794 0.2938926205142397 0 0.40450850127935889 1 I I -0.70710678118654746 0.70710678118654746 0.5 forward I I I I #
loop $-1 $-1 $117 $29 #
coedge $-1 $73 $73 $118 $119 reversed $46 $-1 #
face $-1 $120 $121 $18 $-1 $122 reversed single #
loop $-1 $-1 $123 $48 #
plane-surface $-1 0 -39.354816568925834 0 0 1 0 0 0 1 forward_v I I I I #
coedge $-1 $124 $125 $126 $127 forward $49 $-1 #
coedge $-1 $128 $51 $129 $130 forward $31 $-1 #
coedge $-1 $51 $128 $131 $132 forward $31 $-1 #
coedge $-1 $133 $134 $51 $81 reversed $135 $-1 #
edge $-1 $136 -39.354816568925834 $137 39.354816568925834 $80 $138 forward 7 unknown #
face $-1 $139 $140 $19 $-1 $141 reversed single #
loop $-1 $-1 $142 $52 #
plane-surface $-1 0 -32.363477016989883 10.83393219627078 0 0 1 1 0 0 forward_v I I I I #
coedge $-1 $88 $143 $144 $145 reversed $53 $-1 #
coedge $-1 $146 $55 $147 $148 reversed $34 $-1 #
coedge $-1 $55 $146 $149 $150 reversed $34 $-1 #
coedge $-1 $151 $85 $55 $89 forward $53 $-1 #
edge $-1 $152 -74.528641621143223 $153 74.528641621143223 $55 $154 forward 7 unknown #
face $-1 $155 $156 $20 $-1 $157 reversed single #
loop $-1 $-1 $158 $56 #
plane-surface $-1 0 25.372137465053932 12.761627780654912 0 1 0 0 0 1 forward_v I I I I #
coedge $-1 $159 $160 $161 $162 reversed $57 $-1 #
coedge $-1 $163 $59 $164 $165 reversed $37 $-1 #
coedge $-1 $59 $163 $166 $167 forward $37 $-1 #
coedge $-1 $168 $169 $59 $97 forward $156 $-1 #
edge $-1 $170 -23.173078060430893 $171 -9.1903989565589903 $96 $172 forward 7 unknown #
face $-1 $173 $174 $21 $-1 $175 reversed single #
loop $-1 $-1 $176 $60 #
plane-surface $-1 0 0 15.189323365039044 0 0 1 1 0 0 forward_v I I I I #
coedge $-1 $177 $178 $179 $180 reversed $61 $-1 #
coedge $-1 $103 $63 $181 $182 reversed $40 $-1 #
coedge $-1 $63 $102 $177 $183 reversed $40 $-1 #
coedge $-1 $179 $184 $63 $105 forward $174 $-1 #
edge $-1 $185 30.836120098199025 $186 41.588227694379604 $104 $187 forward 7 unknown #
loop $-1 $-1 $111 $64 #
plane-surface $-1 -74.528641621143223 -20.457082612730055 4.437215768858465 -0.80901700255871778 0 0.5877852410284794 0.5877852410284794 0 0.80901700255871778 forward_v I I I I #
loop $-1 $-1 $188 $42 #
coedge $-1 $109 $109 $110 $189 reversed $65 $-1 #
coedge $-1 $110 $110 $109 $189 forward $67 $-1 #
coedge $-1 $111 $111 $68 $112 forward $106 $-1 #
edge $-1 $190 0 $190 6.2831853071796004 $111 $191 forward 7 unknown #
loop $-1 $-1 $118 $69 #
plane-surface $-1 -74.528641621143223 -20.457082612730055 4.437215768858465 -0.80901700255871778 0 0.5877852410284794 0.5877852410284794 0 0.80901700255871778 forward_v I I I I #
loop $-1 $-1 $192 $45 #
coedge $-1 $116 $116 $117 $193 reversed $70 $-1 #
coedge $-1 $117 $117 $116 $193 forward $72 $-1 #
coedge $-1 $118 $118 $73 $119 forward $113 $-1 #
edge $-1 $194 0 $194 6.2831853071796004 $118 $195 forward 7 unknown #
face $-1 $196 $197 $18 $-1 $198 reversed single #
loop $-1 $-1 $199 $74 #
plane-surface $-1 -74.528641621143223 0 0 1 0 0 0 0 -1 forward_v I I I I #
coedge $-1 $200 $131 $201 $202 forward $75 $-1 #
coedge $-1 $203 $77 $200 $204 forward $49 $-1 #
coedge $-1 $77 $203 $205 $206 forward $49 $-1 #
coedge $-1 $134 $133 $77 $127 reversed $135 $-1 #
edge $-1 $207 -39.354816568925834 $208 39.354816568925834 $126 $209 forward 7 unknown #
coedge $-1 $79 $78 $210 $211 forward $31 $-1 #
coedge $-1 $212 $213 $78 $130 reversed $197 $-1 #
edge $-1 $137 -74.528641621143223 $214 74.528641621143223 $129 $215 forward 7 unknown #
coedge $-1 $123 $216 $79 $132 reversed $75 $-1 #
edge $-1 $217 -74.528641621143223 $136 74.528641621143223 $131 $218 forward 7 unknown #
coedge $-1 $126 $80 $216 $219 forward $135 $-1 #
coedge $-1 $80 $126 $212 $220 reversed $135 $-1 #
loop $-1 $-1 $133 $196 #
vertex $-1 $81 $221 #
vertex $-1 $81 $222 #
straight-curve $-1 74.528641621143223 0 15.189323365039044 0 1 0 I I #
face $-1 $223 $224 $19 $-1 $225 reversed single #
loop $-1 $-1 $226 $82 #
plane-surface $-1 -74.528641621143223 0 0 1 0 0 0 0 -1 forward_v I I I I #
coedge $-1 $227 $228 $229 $230 reversed $83 $-1 #
coedge $-1 $85 $151 $231 $232 reversed $53 $-1 #
coedge $-1 $233 $147 $85 $145 forward $234 $-1 #
edge $-1 $152 9.1903989565589939 $235 23.173078060430893 $144 $236 forward 7 unknown #
coedge $-1 $87 $86 $228 $237 reversed $34 $-1 #
coedge $-1 $144 $229 $86 $148 forward $234 $-1 #
edge $-1 $238 4.4531183059433239 $152 8.3085094747115882 $147 $239 forward 7 unknown #
coedge $-1 $240 $226 $87 $150 forward $140 $-1 #
edge $-1 $153 -8.3085094747115882 $241 -4.4531183059433239 $149 $242 forward 7 unknown #
coedge $-1 $143 $88 $226 $243 reversed $53 $-1 #
vertex $-1 $145 $244 #
vertex $-1 $243 $245 #
straight-curve $-1 0 -25.372137465053935 14.689323365039044 -1 0 0 I I #
face $-1 $246 $247 $20 $-1 $248 reversed single #
loop $-1 $-1 $96 $90 #
plane-surface $-1 74.528641621143223 0 0 -1 0 0 0 0 1 forward_v I I I I #
coedge $-1 $249 $166 $250 $251 reversed $91 $-1 #
coedge $-1 $252 $93 $249 $253 forward $57 $-1 #
coedge $-1 $93 $252 $254 $255 reversed $57 $-1 #
coedge $-1 $169 $168 $93 $162 forward $156 $-1 #
edge $-1 $256 9.1903989565589903 $257 23.173078060430893 $161 $258 forward 7 unknown #
coedge $-1 $95 $94 $259 $260 reversed $37 $-1 #
coedge $-1 $261 $262 $94 $165 forward $263 $-1 #
edge $-1 $264 -74.528641621143223 $170 74.528641621143223 $164 $265 forward 7 unknown #
coedge $-1 $158 $266 $95 $167 reversed $91 $-1 #
edge $-1 $267 -74.528641621143223 $171 74.528641621143223 $166 $268 forward 7 unknown #
coedge $-1 $161 $96 $266 $269 forward $156 $-1 #
coedge $-1 $96 $161 $261 $270 reversed $156 $-1 #
vertex $-1 $270 $271 #
vertex $-1 $97 $272 #
straight-curve $-1 74.528641621143223 16.181738508494941 14.689323365039044 0 -1 0 I I #
face $-1 $-1 $273 $21 $-1 $274 forward single #
loop $-1 $-1 $275 $98 #
plane-surface $-1 -74.528641621143223 0 0 1 0 0 0 0 -1 forward_v I I I I #
coedge $-1 $276 $277 $278 $279 forward $99 $-1 #
coedge $-1 $280 $101 $103 $183 forward $61 $-1 #
coedge $-1 $101 $280 $281 $282 forward $61 $-1 #
coedge $-1 $275 $104 $101 $180 forward $174 $-1 #
edge $-1 $186 5.3134864540411435 $283 15.143596158688911 $179 $284 forward 7 unknown #
coedge $-1 $277 $276 $102 $182 forward $99 $-1 #
edge $-1 $285 -30.842480644128571 $185 -23.030617438538584 $181 $286 forward 7 unknown #
edge $-1 $186 0 $285 13.290335755830052 $103 $287 forward 7 unknown #
coedge $-1 $104 $275 $277 $288 reversed $174 $-1 #
vertex $-1 $288 $289 #
vertex $-1 $105 $290 #
straight-curve $-1 -74.528641621143223 -15.542027760406171 46.025443463238069 0 0 -1 I I #
coedge $-1 $188 $188 $-1 $291 reversed $108 $-1 #
edge $-1 $292 0 $292 6.2831853071796004 $109 $293 forward 7 unknown #
vertex $-1 $112 $294 #
ellipse-curve $-1 -70.622710018348229 -22.563534692297431 9.8132695669487529 -0.80901700255871778 0 0.5877852410284794 0.5877852410284794 0 0.80901700255871778 1 I I #
coedge $-1 $192 $192 $-1 $295 reversed $115 $-1 #
edge $-1 $296 0 $296 6.2831853071796004 $116 $297 forward 7 unknown #
vertex $-1 $119 $298 #
ellipse-curve $-1 -70.622710018348229 -18.350630533162672 9.8132695669487529 -0.80901700255871778 0 0.5877852410284794 0.5877852410284794 0 0.80901700255871778 1 I I #
face $-1 $-1 $135 $18 $-1 $299 reversed single #
loop $-1 $-1 $212 $120 #
plane-surface $-1 0 39.354816568925834 0 0 -1 0 0 0 -1 forward_v I I I I #
coedge $-1 $300 $210 $213 $301 forward $121 $-1 #
coedge $-1 $216 $123 $124 $204 reversed $75 $-1 #
coedge $-1 $210 $300 $123 $202 reversed $121 $-1 #
edge $-1 $217 -15.189323365039044 $302 15.189323365039044 $201 $303 forward 7 unknown #
coedge $-1 $125 $124 $300 $304 forward $49 $-1 #
edge $-1 $208 -74.528641621143223 $302 74.528641621143223 $200 $305 forward 7 unknown #
coedge $-1 $213 $212 $125 $206 reversed $197 $-1 #
edge $-1 $306 -74.528641621143223 $207 74.528641621143223 $205 $307 forward 7 unknown #
vertex $-1 $127 $308 #
vertex $-1 $219 $309 #
straight-curve $-1 74.528641621143223 0 -15.189323365039044 0 -1 0 I I #
coedge $-1 $199 $201 $128 $211 reversed $121 $-1 #
edge $-1 $214 -39.354816568925834 $217 39.354816568925834 $210 $310 forward 7 unknown #
coedge $-1 $205 $129 $134 $220 forward $197 $-1 #
coedge $-1 $129 $205 $199 $301 reversed $197 $-1 #
vertex $-1 $130 $311 #
straight-curve $-1 0 39.354816568925834 15.189323365039044 -1 0 0 I I #
coedge $-1 $131 $200 $133 $219 reversed $75 $-1 #
vertex $-1 $211 $312 #
straight-curve $-1 0 -39.354816568925834 15.189323365039044 1 0 0 I I #
edge $-1 $136 -15.189323365039044 $208 15.189323365039044 $133 $313 forward 7 unknown #
edge $-1 $137 -15.189323365039044 $207 15.189323365039044 $134 $314 forward 7 unknown #
point $-1 74.528641621143223 -39.354816568925834 15.189323365039044 #
point $-1 74.528641621143223 39.354816568925834 15.189323365039044 #
face $-1 $-1 $234 $19 $-1 $315 reversed single #
loop $-1 $-1 $231 $139 #
plane-surface $-1 0 -39.354816568925834 0 0 1 0 0 0 1 forward_v I I I I #
coedge $-1 $149 $316 $151 $243 forward $140 $-1 #
coedge $-1 $317 $142 $318 $319 reversed $83 $-1 #
coedge $-1 $142 $317 $146 $237 forward $83 $-1 #
coedge $-1 $147 $233 $142 $230 forward $234 $-1 #
edge $-1 $320 -23.173078060430893 $238 -9.1903989565589939 $229 $321 forward 7 unknown #
coedge $-1 $322 $323 $143 $232 forward $224 $-1 #
edge $-1 $235 -74.528641621143223 $324 74.528641621143223 $231 $325 forward 7 unknown #
coedge $-1 $229 $144 $323 $326 forward $234 $-1 #
loop $-1 $-1 $144 $223 #
vertex $-1 $326 $327 #
straight-curve $-1 74.528641621143223 -16.181738508494941 14.689323365039044 0 -1 0 I I #
edge $-1 $241 -74.528641621143223 $238 74.528641621143223 $146 $328 forward 7 unknown #
vertex $-1 $230 $329 #
straight-curve $-1 74.528641621143223 -25.372137465053935 6.3808138903274561 0 0 1 I I #
coedge $-1 $316 $149 $317 $330 forward $140 $-1 #
vertex $-1 $330 $331 #
straight-curve $-1 -74.528641621143223 -25.372137465053935 6.3808138903274561 0 0 -1 I I #
edge $-1 $324 -23.173078060430893 $153 -9.1903989565589939 $226 $332 forward 7 unknown #
point $-1 74.528641621143223 -25.372137465053935 14.689323365039044 #
point $-1 -74.528641621143223 -25.372137465053935 14.689323365039044 #
face $-1 $-1 $263 $20 $-1 $333 reversed single #
loop $-1 $-1 $259 $155 #
plane-surface $-1 -74.528641621143223 0 0 1 0 0 0 0 -1 forward_v I I I I #
coedge $-1 $266 $158 $159 $253 reversed $91 $-1 #
coedge $-1 $259 $334 $158 $251 forward $247 $-1 #
edge $-1 $335 4.4531183059433239 $267 8.3085094747115882 $250 $336 forward 7 unknown #
coedge $-1 $160 $159 $334 $337 reversed $57 $-1 #
edge $-1 $256 -74.528641621143223 $335 74.528641621143223 $249 $338 forward 7 unknown #
coedge $-1 $262 $261 $160 $255 forward $263 $-1 #
edge $-1 $257 -74.528641621143223 $339 74.528641621143223 $254 $340 forward 7 unknown #
vertex $-1 $162 $341 #
vertex $-1 $255 $342 #
straight-curve $-1 74.528641621143223 16.181738508494941 10.83393219627078 0 1 0 I I #
coedge $-1 $343 $250 $163 $260 forward $247 $-1 #
edge $-1 $267 9.1903989565589903 $264 23.173078060430893 $259 $344 forward 7 unknown #
coedge $-1 $254 $164 $169 $270 forward $263 $-1 #
coedge $-1 $164 $254 $343 $345 reversed $263 $-1 #
loop $-1 $-1 $164 $246 #
vertex $-1 $345 $346 #
straight-curve $-1 0 39.354816568925834 14.689323365039044 1 0 0 I I #
coedge $-1 $166 $249 $168 $269 reversed $91 $-1 #
vertex $-1 $260 $347 #
straight-curve $-1 0 25.372137465053932 14.689323365039044 1 0 0 I I #
edge $-1 $171 -8.3085094747115882 $256 -4.4531183059433239 $168 $348 forward 7 unknown #
edge $-1 $170 -14.689323365039044 $257 -10.83393219627078 $169 $349 forward 7 unknown #
point $-1 74.528641621143223 39.354816568925834 14.689323365039044 #
point $-1 74.528641621143223 25.372137465053932 14.689323365039044 #
loop $-1 $-1 $281 $173 #
plane-surface $-1 0 -25.372137465053935 12.761627780654912 0 -1 0 0 0 -1 forward_v I I I I #
coedge $-1 $184 $179 $350 $351 forward $174 $-1 #
coedge $-1 $181 $176 $280 $352 forward $99 $-1 #
coedge $-1 $176 $181 $184 $288 forward $99 $-1 #
coedge $-1 $350 $281 $176 $279 reversed $273 $-1 #
edge $-1 $353 23.030617438538584 $354 30.842480644128571 $176 $355 forward 7 unknown #
coedge $-1 $178 $177 $276 $352 reversed $61 $-1 #
coedge $-1 $278 $350 $178 $282 reversed $273 $-1 #
edge $-1 $354 -13.290335755830052 $283 0 $281 $356 forward 7 unknown #
vertex $-1 $180 $357 #
straight-curve $-1 -74.528641621143223 -10.228541306365027 4.4372157688584597 0 -1 0 I I #
vertex $-1 $182 $358 #
straight-curve $-1 -97.559259059681807 -15.542027760406171 15.189323365039044 -1 0 0 I I #
straight-curve $-1 -74.528641621143223 -15.542027760406171 4.437215768858465 0.5877852410284794 0 0.80901700255871778 I I #
edge $-1 $185 15.542027760406171 $353 25.372137465053939 $184 $359 forward 7 unknown #
point $-1 -74.528641621143223 -15.542027760406171 15.189323365039044 #
point $-1 -74.528641621143223 -15.542027760406171 4.437215768858465 #
edge $-1 $360 1 $360 0 $188 $-1 forward 7 unknown #
vertex $-1 $189 $361 #
ellipse-curve $-1 -68.204300508242667 -22.563534692297431 8.0561922591701869 -0.80901700255871778 0 0.5877852410284794 0.5877852410284794 0 0.80901700255871778 1 I I #
point $-1 -70.034924777319759 -22.563534692297431 10.62228656950748 #
edge $-1 $362 1 $362 0 $192 $-1 forward 7 unknown #
vertex $-1 $193 $363 #
ellipse-curve $-1 -68.204300508242667 -18.350630533162672 8.0561922591701869 -0.80901700255871778 0 0.5877852410284794 0.5877852410284794 0 0.80901700255871778 1 I I #
point $-1 -70.034924777319759 -18.350630533162672 10.62228656950748 #
plane-surface $-1 74.528641621143223 0 0 -1 0 0 0 0 1 forward_v I I I I #
coedge $-1 $201 $199 $203 $304 reversed $121 $-1 #
edge $-1 $214 -15.189323365039044 $306 15.189323365039044 $213 $364 forward 7 unknown #
vertex $-1 $304 $365 #
straight-curve $-1 -74.528641621143223 -39.354816568925834 0 0 0 -1 I I #
edge $-1 $302 -39.354816568925834 $306 39.354816568925834 $300 $366 forward 7 unknown #
straight-curve $-1 0 -39.354816568925834 -15.189323365039044 -1 0 0 I I #
vertex $-1 $206 $367 #
straight-curve $-1 0 39.354816568925834 -15.189323365039044 1 0 0 I I #
point $-1 74.528641621143223 39.354816568925834 -15.189323365039044 #
point $-1 74.528641621143223 -39.354816568925834 -15.189323365039044 #
straight-curve $-1 -74.528641621143223 0 15.189323365039044 0 -1 0 I I #
point $-1 -74.528641621143223 39.354816568925834 15.189323365039044 #
point $-1 -74.528641621143223 -39.354816568925834 15.189323365039044 #
straight-curve $-1 74.528641621143223 -39.354816568925834 0 0 0 -1 I I #
straight-curve $-1 74.528641621143223 39.354816568925834 0 0 0 -1 I I #
plane-surface $-1 74.528641621143223 0 0 -1 0 0 0 0 1 forward_v I I I I #
coedge $-1 $226 $240 $322 $368 reversed $140 $-1 #
coedge $-1 $228 $227 $240 $330 reversed $83 $-1 #
coedge $-1 $323 $322 $227 $319 forward $224 $-1 #
edge $-1 $369 -74.528641621143223 $320 74.528641621143223 $318 $370 forward 7 unknown #
vertex $-1 $319 $371 #
straight-curve $-1 74.528641621143223 -16.181738508494941 10.83393219627078 0 1 0 I I #
coedge $-1 $318 $231 $316 $368 forward $224 $-1 #
coedge $-1 $231 $318 $233 $326 reversed $224 $-1 #
vertex $-1 $368 $372 #
straight-curve $-1 0 -39.354816568925834 14.689323365039044 -1 0 0 I I #
edge $-1 $235 -14.689323365039044 $320 -10.83393219627078 $233 $373 forward 7 unknown #
point $-1 74.528641621143223 -39.354816568925834 14.689323365039044 #
straight-curve $-1 0 -25.372137465053935 10.83393219627078 1 0 0 I I #
point $-1 74.528641621143223 -25.372137465053935 10.83393219627078 #
edge $-1 $241 9.1903989565589939 $369 23.173078060430893 $240 $374 forward 7 unknown #
point $-1 -74.528641621143223 -25.372137465053935 10.83393219627078 #
straight-curve $-1 -74.528641621143223 -16.181738508494941 14.689323365039044 0 1 0 I I #
plane-surface $-1 0 39.354816568925834 0 0 -1 0 0 0 -1 forward_v I I I I #
coedge $-1 $250 $343 $252 $337 forward $247 $-1 #
vertex $-1 $337 $375 #
straight-curve $-1 -74.528641621143223 25.372137465053932 6.3808138903274561 0 0 1 I I #
edge $-1 $339 -23.173078060430893 $335 -9.1903989565589903 $334 $376 forward 7 unknown #
straight-curve $-1 0 25.372137465053932 10.83393219627078 -1 0 0 I I #
vertex $-1 $255 $377 #
straight-curve $-1 0 39.354816568925834 10.83393219627078 -1 0 0 I I #
point $-1 74.528641621143223 25.372137465053932 10.83393219627078 #
point $-1 74.528641621143223 39.354816568925834 10.83393219627078 #
coedge $-1 $334 $259 $262 $345 forward $247 $-1 #
straight-curve $-1 -74.528641621143223 16.181738508494941 14.689323365039044 0 1 0 I I #
edge $-1 $264 -14.689323365039044 $339 -10.83393219627078 $262 $378 forward 7 unknown #
point $-1 -74.528641621143223 39.354816568925834 14.689323365039044 #
point $-1 -74.528641621143223 25.372137465053932 14.689323365039044 #
straight-curve $-1 74.528641621143223 25.372137465053932 6.3808138903274561 0 0 -1 I I #
straight-curve $-1 74.528641621143223 39.354816568925834 0 0 0 -1 I I #
coedge $-1 $281 $278 $275 $351 reversed $273 $-1 #
edge $-1 $283 -41.588227694379604 $353 -30.836120098199025 $275 $379 forward 7 unknown #
edge $-1 $354 -15.143596158688911 $285 -5.3134864540411435 $276 $380 forward 7 unknown #
vertex $-1 $279 $381 #
vertex $-1 $279 $382 #
straight-curve $-1 -97.559259059681807 -25.372137465053939 15.189323365039044 1 0 0 I I #
straight-curve $-1 -74.528641621143223 -25.372137465053939 4.437215768858465 -0.5877852410284794 0 -0.80901700255871778 I I #
point $-1 -74.528641621143223 -25.372137465053939 4.437215768858465 #
point $-1 -66.716778415553236 -15.542027760406171 15.189323365039044 #
straight-curve $-1 -74.528641621143223 0 15.189323365039044 0 -1 0 I I #
vertex $-1 $291 $383 #
point $-1 -67.616515267214197 -22.563534692297431 8.8652092617289036 #
vertex $-1 $295 $384 #
point $-1 -67.616515267214197 -18.350630533162672 8.8652092617289036 #
straight-curve $-1 -74.528641621143223 39.354816568925834 0 0 0 -1 I I #
point $-1 -74.528641621143223 -39.354816568925834 -15.189323365039044 #
straight-curve $-1 -74.528641621143223 0 -15.189323365039044 0 1 0 I I #
point $-1 -74.528641621143223 39.354816568925834 -15.189323365039044 #
edge $-1 $324 -14.689323365039044 $369 -10.83393219627078 $316 $385 forward 7 unknown #
vertex $-1 $319 $386 #
straight-curve $-1 0 -39.354816568925834 10.83393219627078 1 0 0 I I #
point $-1 74.528641621143223 -39.354816568925834 10.83393219627078 #
point $-1 -74.528641621143223 -39.354816568925834 14.689323365039044 #
straight-curve $-1 74.528641621143223 -39.354816568925834 0 0 0 -1 I I #
straight-curve $-1 -74.528641621143223 -16.181738508494941 10.83393219627078 0 -1 0 I I #
point $-1 -74.528641621143223 25.372137465053932 10.83393219627078 #
straight-curve $-1 -74.528641621143223 16.181738508494941 10.83393219627078 0 -1 0 I I #
point $-1 -74.528641621143223 39.354816568925834 10.83393219627078 #
straight-curve $-1 -74.528641621143223 39.354816568925834 0 0 0 -1 I I #
straight-curve $-1 -74.528641621143223 -25.372137465053939 46.025443463238069 0 0 1 I I #
straight-curve $-1 -66.716778415553236 -10.228541306365027 15.189323365039046 0 1 0 I I #
point $-1 -74.528641621143223 -25.372137465053939 15.189323365039044 #
point $-1 -66.716778415553236 -25.372137465053939 15.189323365039044 #
point $-1 -67.395283505683963 -22.563534692297431 7.4684070181417068 #
point $-1 -67.395283505683963 -18.350630533162672 7.4684070181417068 #
straight-curve $-1 -74.528641621143223 -39.354816568925834 0 0 0 -1 I I #
point $-1 -74.528641621143223 -39.354816568925834 10.83393219627078 #
End-of-ACIS-data 