500 0 6 0           
7 Unknown 11 ACIS 5.0 NT 24 Fri Mar 26 15:29:50 1999 
-1 9.9999999999999995e-007 1e-010 
body $-1 $6 $-1 $7 #
body $-1 $8 $-1 $9 #
body $-1 $10 $-1 $11 #
body $-1 $12 $-1 $13 #
body $-1 $14 $-1 $15 #
body $-1 $16 $-1 $17 #
lump $-1 $-1 $18 $0 #
transform $-1 1 0 0 0 1 0 0 0 1 65.69536423841059 28.300312642929192 11.329020995775215 1 rotate no_reflect no_shear #
lump $-1 $-1 $19 $1 #
transform $-1 1 0 0 0 1 0 0 0 1 65.69536423841059 28.300312642929192 11.329020995775215 1 rotate no_reflect no_shear #
lump $-1 $-1 $20 $2 #
transform $-1 1 0 0 0 1 0 0 0 1 65.69536423841059 28.300312642929192 11.329020995775215 1 rotate no_reflect no_shear #
lump $-1 $-1 $21 $3 #
transform $-1 1 0 0 0 1 0 0 0 1 65.69536423841059 28.300312642929192 11.329020995775215 1 rotate no_reflect no_shear #
lump $-1 $-1 $22 $4 #
transform $-1 1 0 0 0 1 0 0 0 1 65.69536423841059 28.300312642929192 11.329020995775215 1 rotate no_reflect no_shear #
lump $-1 $-1 $23 $5 #
transform $-1 1 0 0 0 1 0 0 0 1 65.69536423841059 28.300312642929192 11.329020995775215 1 rotate no_reflect no_shear #
shell $-1 $-1 $-1 $24 $-1 $6 #
shell $-1 $-1 $-1 $25 $-1 $8 #
shell $-1 $-1 $-1 $26 $-1 $10 #
shell $-1 $-1 $-1 $27 $-1 $12 #
shell $-1 $-1 $-1 $28 $-1 $14 #
shell $-1 $-1 $-1 $29 $-1 $16 #
face $-1 $30 $31 $18 $-1 $32 forward single #
face $-1 $33 $34 $19 $-1 $35 forward single #
face $-1 $36 $37 $20 $-1 $38 forward single #
face $-1 $39 $40 $21 $-1 $41 reversed single #
face $-1 $42 $43 $22 $-1 $44 forward single #
face $-1 $45 $46 $23 $-1 $47 forward single #
face $-1 $48 $49 $18 $-1 $50 reversed single #
loop $-1 $-1 $51 $24 #
plane-surface $-1 0 0 11.329020995775215 0 0 1 1 0 0 forward_v I I I I #
face $-1 $52 $53 $19 $-1 $54 reversed single #
loop $-1 $-1 $55 $25 #
plane-surface $-1 0 -23.429220848960618 7.8086986301706727 0 0 1 1 0 0 forward_v I I I I #
face $-1 $56 $57 $20 $-1 $58 reversed single #
loop $-1 $-1 $59 $26 #
plane-surface $-1 0 23.429220848960618 7.8086986301706727 0 0 1 1 0 0 forward_v I I I I #
face $-1 $60 $61 $21 $-1 $62 reversed single #
loop $-1 $-1 $63 $27 #
plane-surface $-1 30.240278190830026 -12.171330094417884 186.75385990729532 0 1 0 0.55919291073839883 0 0.82903756765294845 forward_v I I I I #
face $-1 $64 $65 $22 $-1 $66 forward single #
loop $-1 $67 $68 $28 #
cone-surface $-1 60.165892766333563 -9.7576305937807568 7.3096862136465406 -0.55919291073839883 0 -0.82903756765294845 0.82903756765294845 0 -0.55919291073839883 1 I I 0 1 1 forward I I I I #
face $-1 $69 $70 $23 $-1 $71 forward single #
loop $-1 $72 $73 $29 #
cone-surface $-1 60.165892766333563 -6.1370813428250699 7.3096862136465406 -0.55919291073839883 0 -0.82903756765294845 0.82903756765294845 0 -0.55919291073839883 1 I I 0 1 1 forward I I I I #
face $-1 $74 $75 $18 $-1 $76 reversed single #
loop $-1 $-1 $77 $30 #
plane-surface $-1 0 0 -11.329020995775215 0 0 1 1 0 0 forward_v I I I I #
coedge $-1 $78 $79 $80 $81 forward $31 $-1 #
face $-1 $82 $83 $19 $-1 $84 reversed single #
loop $-1 $-1 $85 $33 #
plane-surface $-1 0 -23.429220848960618 4.1571491338853743 0 0 1 1 0 0 forward_v I I I I #
coedge $-1 $86 $87 $88 $89 reversed $34 $-1 #
face $-1 $90 $91 $20 $-1 $92 reversed single #
loop $-1 $-1 $93 $36 #
plane-surface $-1 0 23.429220848960618 4.1571491338853743 0 0 1 1 0 0 forward_v I I I I #
coedge $-1 $94 $95 $96 $97 reversed $37 $-1 #
face $-1 $98 $99 $21 $-1 $100 reversed single #
loop $-1 $-1 $101 $39 #
plane-surface $-1 -43.232485710162237 -7.9473559683029151 77.826009958722508 0.55919291073839883 0 0.82903756765294845 0.82903756765294845 0 -0.55919291073839883 forward_v I I I I #
coedge $-1 $102 $103 $104 $105 reversed $40 $-1 #
face $-1 $-1 $106 $22 $-1 $107 forward single #
loop $-1 $108 $109 $42 #
cone-surface $-1 59.527830565242752 -9.7576305937807568 6.3637201167138873 -0.55919291073839883 0 -0.82903756765294845 0.41451878382647422 0 -0.27959645536919941 1 I I -0.70710678118654746 0.70710678118654746 0.5 forward I I I I #
loop $-1 $-1 $110 $28 #
coedge $-1 $68 $68 $111 $112 reversed $43 $-1 #
face $-1 $-1 $113 $23 $-1 $114 forward single #
loop $-1 $115 $116 $45 #
cone-surface $-1 59.527830565242752 -6.1370813428250699 6.3637201167138873 -0.55919291073839883 0 -0.82903756765294845 0.41451878382647422 0 -0.27959645536919941 1 I I -0.70710678118654746 0.70710678118654746 0.5 forward I I I I #
loop $-1 $-1 $117 $29 #
coedge $-1 $73 $73 $118 $119 reversed $46 $-1 #
face $-1 $120 $121 $18 $-1 $122 reversed single #
loop $-1 $-1 $123 $48 #
plane-surface $-1 0 -28.300312642929192 0 0 1 0 0 0 1 forward_v I I I I #
coedge $-1 $124 $125 $126 $127 forward $49 $-1 #
coedge $-1 $128 $51 $129 $130 forward $31 $-1 #
coedge $-1 $51 $128 $131 $132 forward $31 $-1 #
coedge $-1 $133 $134 $51 $81 reversed $135 $-1 #
edge $-1 $136 -28.300312642929192 $137 28.300312642929192 $80 $138 forward 7 unknown #
face $-1 $139 $140 $19 $-1 $141 reversed single #
loop $-1 $-1 $142 $52 #
plane-surface $-1 0 -18.558129054992044 5.9829238820280235 0 -1 0 0 0 -1 forward_v I I I I #
coedge $-1 $143 $144 $145 $146 reversed $53 $-1 #
coedge $-1 $147 $55 $148 $149 forward $34 $-1 #
coedge $-1 $55 $147 $150 $151 reversed $34 $-1 #
coedge $-1 $152 $153 $55 $89 forward $154 $-1 #
edge $-1 $155 6.8435186305117348 $156 16.585702218448883 $88 $157 forward 7 unknown #
face $-1 $158 $159 $20 $-1 $160 reversed single #
loop $-1 $-1 $161 $56 #
plane-surface $-1 0 18.558129054992044 5.9829238820280235 0 1 0 0 0 1 forward_v I I I I #
coedge $-1 $162 $163 $164 $165 reversed $57 $-1 #
coedge $-1 $166 $59 $167 $168 reversed $37 $-1 #
coedge $-1 $59 $166 $169 $170 forward $37 $-1 #
coedge $-1 $171 $172 $59 $97 forward $159 $-1 #
edge $-1 $173 -16.585702218448883 $174 -6.8435186305117348 $96 $175 forward 7 unknown #
face $-1 $176 $177 $21 $-1 $178 forward single #
loop $-1 $-1 $179 $60 #
plane-surface $-1 30.240278190830026 -3.7233818421879459 186.75385990729532 0 -1 0 -0.55919291073839883 0 -0.82903756765294845 forward_v I I I I #
coedge $-1 $180 $181 $182 $183 reversed $61 $-1 #
coedge $-1 $103 $63 $184 $185 reversed $40 $-1 #
coedge $-1 $63 $102 $180 $186 reversed $40 $-1 #
coedge $-1 $182 $187 $63 $105 forward $188 $-1 #
edge $-1 $189 82.047908957872451 $190 89.023683895917415 $104 $191 forward 7 unknown #
loop $-1 $-1 $111 $64 #
plane-surface $-1 -43.232485710162237 -7.9473559683029151 77.826009958722508 0.55919291073839883 0 0.82903756765294845 0.82903756765294845 0 -0.55919291073839883 forward_v I I I I #
loop $-1 $-1 $192 $42 #
coedge $-1 $109 $109 $110 $193 reversed $65 $-1 #
coedge $-1 $110 $110 $109 $193 forward $67 $-1 #
coedge $-1 $111 $111 $68 $112 forward $106 $-1 #
edge $-1 $194 0 $194 6.2831853071796004 $111 $195 forward 7 unknown #
loop $-1 $-1 $118 $69 #
plane-surface $-1 -43.232485710162237 -7.9473559683029151 77.826009958722508 0.55919291073839883 0 0.82903756765294845 0.82903756765294845 0 -0.55919291073839883 forward_v I I I I #
loop $-1 $-1 $196 $45 #
coedge $-1 $116 $116 $117 $197 reversed $70 $-1 #
coedge $-1 $117 $117 $116 $197 forward $72 $-1 #
coedge $-1 $118 $118 $73 $119 forward $113 $-1 #
edge $-1 $198 0 $198 6.2831853071796004 $118 $199 forward 7 unknown #
face $-1 $200 $201 $18 $-1 $202 reversed single #
loop $-1 $-1 $203 $74 #
plane-surface $-1 -65.69536423841059 0 0 1 0 0 0 0 -1 forward_v I I I I #
coedge $-1 $204 $131 $205 $206 forward $75 $-1 #
coedge $-1 $207 $77 $204 $208 forward $49 $-1 #
coedge $-1 $77 $207 $209 $210 forward $49 $-1 #
coedge $-1 $134 $133 $77 $127 reversed $135 $-1 #
edge $-1 $211 -28.300312642929192 $212 28.300312642929192 $126 $213 forward 7 unknown #
coedge $-1 $79 $78 $214 $215 forward $31 $-1 #
coedge $-1 $216 $217 $78 $130 reversed $201 $-1 #
edge $-1 $137 -65.69536423841059 $218 65.69536423841059 $129 $219 forward 7 unknown #
coedge $-1 $123 $220 $79 $132 reversed $75 $-1 #
edge $-1 $221 -65.69536423841059 $136 65.69536423841059 $131 $222 forward 7 unknown #
coedge $-1 $126 $80 $220 $223 forward $135 $-1 #
coedge $-1 $80 $126 $216 $224 reversed $135 $-1 #
loop $-1 $-1 $133 $200 #
vertex $-1 $81 $225 #
vertex $-1 $81 $226 #
straight-curve $-1 65.69536423841059 0 11.329020995775215 0 1 0 I I #
face $-1 $227 $228 $19 $-1 $229 reversed single #
loop $-1 $-1 $230 $82 #
plane-surface $-1 -65.69536423841059 0 0 1 0 0 0 0 -1 forward_v I I I I #
coedge $-1 $231 $148 $153 $232 reversed $83 $-1 #
coedge $-1 $233 $85 $234 $235 reversed $53 $-1 #
coedge $-1 $85 $233 $231 $236 forward $53 $-1 #
coedge $-1 $153 $152 $85 $146 forward $154 $-1 #
edge $-1 $237 -16.585702218448883 $238 -6.8435186305117348 $145 $239 forward 7 unknown #
coedge $-1 $87 $86 $230 $240 reversed $34 $-1 #
coedge $-1 $142 $241 $86 $149 reversed $83 $-1 #
edge $-1 $155 -65.69536423841059 $242 65.69536423841059 $148 $243 forward 7 unknown #
coedge $-1 $244 $245 $87 $151 forward $228 $-1 #
edge $-1 $156 -65.69536423841059 $246 65.69536423841059 $150 $247 forward 7 unknown #
coedge $-1 $145 $88 $245 $248 forward $154 $-1 #
coedge $-1 $88 $145 $142 $232 forward $154 $-1 #
loop $-1 $-1 $88 $227 #
vertex $-1 $89 $249 #
vertex $-1 $248 $250 #
straight-curve $-1 65.69536423841059 -11.714610424480309 7.8086986301706727 0 -1 0 I I #
face $-1 $251 $252 $20 $-1 $253 reversed single #
loop $-1 $-1 $96 $90 #
plane-surface $-1 65.69536423841059 0 0 -1 0 0 0 0 1 forward_v I I I I #
coedge $-1 $254 $169 $255 $256 reversed $91 $-1 #
coedge $-1 $257 $93 $254 $258 forward $57 $-1 #
coedge $-1 $93 $257 $259 $260 reversed $57 $-1 #
coedge $-1 $172 $171 $93 $165 forward $159 $-1 #
edge $-1 $261 6.8435186305117348 $262 16.585702218448883 $164 $263 forward 7 unknown #
coedge $-1 $95 $94 $264 $265 reversed $37 $-1 #
coedge $-1 $266 $267 $94 $168 forward $268 $-1 #
edge $-1 $269 -65.69536423841059 $173 65.69536423841059 $167 $270 forward 7 unknown #
coedge $-1 $161 $271 $95 $170 reversed $91 $-1 #
edge $-1 $272 -65.69536423841059 $174 65.69536423841059 $169 $273 forward 7 unknown #
coedge $-1 $164 $96 $271 $274 forward $159 $-1 #
coedge $-1 $96 $164 $266 $275 reversed $159 $-1 #
vertex $-1 $275 $276 #
vertex $-1 $97 $277 #
straight-curve $-1 65.69536423841059 11.714610424480309 7.8086986301706727 0 -1 0 I I #
face $-1 $-1 $188 $21 $-1 $278 reversed single #
loop $-1 $-1 $279 $98 #
plane-surface $-1 0 0 11.329020995775215 0 0 1 1 0 0 forward_v I I I I #
coedge $-1 $280 $281 $282 $283 reversed $99 $-1 #
coedge $-1 $284 $101 $103 $186 forward $61 $-1 #
coedge $-1 $101 $284 $280 $285 forward $61 $-1 #
coedge $-1 $282 $104 $101 $183 forward $188 $-1 #
edge $-1 $190 -8.1976521102664268 $286 0.25029614196351169 $182 $287 forward 7 unknown #
coedge $-1 $288 $289 $102 $185 forward $177 $-1 #
edge $-1 $290 40.233213690284799 $189 50.575225142995578 $184 $291 forward 7 unknown #
edge $-1 $190 -131.39072847682118 $290 -118.91600856516555 $103 $292 forward 7 unknown #
coedge $-1 $104 $282 $288 $293 reversed $188 $-1 #
loop $-1 $-1 $282 $176 #
vertex $-1 $293 $294 #
vertex $-1 $105 $295 #
straight-curve $-1 65.69536423841059 -12.171330094417884 93.376929953647661 0 0 -1 I I #
coedge $-1 $192 $192 $-1 $296 reversed $108 $-1 #
edge $-1 $297 0 $297 6.2831853071796004 $109 $298 forward 7 unknown #
vertex $-1 $112 $299 #
ellipse-curve $-1 60.524358512055187 -9.7576305937807568 7.841133526752734 0.55919291073839883 0 0.82903756765294845 0.82903756765294845 0 -0.55919291073839883 1 I I #
coedge $-1 $196 $196 $-1 $300 reversed $115 $-1 #
edge $-1 $301 0 $301 6.2831853071796004 $116 $302 forward 7 unknown #
vertex $-1 $119 $303 #
ellipse-curve $-1 60.524358512055187 -6.1370813428250699 7.841133526752734 0.55919291073839883 0 0.82903756765294845 0.82903756765294845 0 -0.55919291073839883 1 I I #
face $-1 $-1 $135 $18 $-1 $304 reversed single #
loop $-1 $-1 $216 $120 #
plane-surface $-1 0 28.300312642929192 0 0 -1 0 0 0 -1 forward_v I I I I #
coedge $-1 $305 $214 $217 $306 forward $121 $-1 #
coedge $-1 $220 $123 $124 $208 reversed $75 $-1 #
coedge $-1 $214 $305 $123 $206 reversed $121 $-1 #
edge $-1 $221 -11.329020995775215 $307 11.329020995775215 $205 $308 forward 7 unknown #
coedge $-1 $125 $124 $305 $309 forward $49 $-1 #
edge $-1 $212 -65.69536423841059 $307 65.69536423841059 $204 $310 forward 7 unknown #
coedge $-1 $217 $216 $125 $210 reversed $201 $-1 #
edge $-1 $311 -65.69536423841059 $211 65.69536423841059 $209 $312 forward 7 unknown #
vertex $-1 $127 $313 #
vertex $-1 $223 $314 #
straight-curve $-1 65.69536423841059 0 -11.329020995775215 0 -1 0 I I #
coedge $-1 $203 $205 $128 $215 reversed $121 $-1 #
edge $-1 $218 -28.300312642929192 $221 28.300312642929192 $214 $315 forward 7 unknown #
coedge $-1 $209 $129 $134 $224 forward $201 $-1 #
coedge $-1 $129 $209 $203 $306 reversed $201 $-1 #
vertex $-1 $130 $316 #
straight-curve $-1 0 28.300312642929192 11.329020995775215 -1 0 0 I I #
coedge $-1 $131 $204 $133 $223 reversed $75 $-1 #
vertex $-1 $215 $317 #
straight-curve $-1 0 -28.300312642929192 11.329020995775215 1 0 0 I I #
edge $-1 $136 -11.329020995775215 $212 11.329020995775215 $133 $318 forward 7 unknown #
edge $-1 $137 -11.329020995775215 $211 11.329020995775215 $134 $319 forward 7 unknown #
point $-1 65.69536423841059 -28.300312642929192 11.329020995775215 #
point $-1 65.69536423841059 28.300312642929192 11.329020995775215 #
face $-1 $-1 $154 $19 $-1 $320 reversed single #
loop $-1 $-1 $150 $139 #
plane-surface $-1 0 -28.300312642929192 0 0 1 0 0 0 1 forward_v I I I I #
coedge $-1 $321 $322 $147 $240 forward $140 $-1 #
coedge $-1 $241 $142 $144 $236 reversed $83 $-1 #
edge $-1 $238 1.1656871928713626 $155 4.8172366891566609 $153 $323 forward 7 unknown #
coedge $-1 $144 $143 $324 $325 reversed $53 $-1 #
coedge $-1 $245 $244 $143 $235 forward $228 $-1 #
edge $-1 $326 -65.69536423841059 $237 65.69536423841059 $234 $327 forward 7 unknown #
edge $-1 $328 -65.69536423841059 $238 65.69536423841059 $231 $329 forward 7 unknown #
vertex $-1 $235 $330 #
vertex $-1 $146 $331 #
straight-curve $-1 65.69536423841059 -11.714610424480309 4.1571491338853743 0 1 0 I I #
edge $-1 $246 -16.585702218448883 $242 -6.8435186305117348 $230 $332 forward 7 unknown #
coedge $-1 $148 $231 $321 $333 reversed $83 $-1 #
vertex $-1 $240 $334 #
straight-curve $-1 0 -18.558129054992044 7.8086986301706727 -1 0 0 I I #
coedge $-1 $234 $150 $322 $335 forward $228 $-1 #
coedge $-1 $150 $234 $152 $248 reversed $228 $-1 #
vertex $-1 $335 $336 #
straight-curve $-1 0 -28.300312642929192 7.8086986301706727 -1 0 0 I I #
edge $-1 $156 -7.8086986301706727 $237 -4.1571491338853743 $152 $337 forward 7 unknown #
point $-1 65.69536423841059 -18.558129054992044 7.8086986301706727 #
point $-1 65.69536423841059 -28.300312642929192 7.8086986301706727 #
face $-1 $-1 $268 $20 $-1 $338 reversed single #
loop $-1 $-1 $264 $158 #
plane-surface $-1 -65.69536423841059 0 0 1 0 0 0 0 -1 forward_v I I I I #
coedge $-1 $271 $161 $162 $258 reversed $91 $-1 #
coedge $-1 $264 $339 $161 $256 forward $252 $-1 #
edge $-1 $340 1.1656871928713626 $272 4.8172366891566609 $255 $341 forward 7 unknown #
coedge $-1 $163 $162 $339 $342 reversed $57 $-1 #
edge $-1 $261 -65.69536423841059 $340 65.69536423841059 $254 $343 forward 7 unknown #
coedge $-1 $267 $266 $163 $260 forward $268 $-1 #
edge $-1 $262 -65.69536423841059 $344 65.69536423841059 $259 $345 forward 7 unknown #
vertex $-1 $165 $346 #
vertex $-1 $260 $347 #
straight-curve $-1 65.69536423841059 11.714610424480309 4.1571491338853743 0 1 0 I I #
coedge $-1 $348 $255 $166 $265 forward $252 $-1 #
edge $-1 $272 6.8435186305117348 $269 16.585702218448883 $264 $349 forward 7 unknown #
coedge $-1 $259 $167 $172 $275 forward $268 $-1 #
coedge $-1 $167 $259 $348 $350 reversed $268 $-1 #
loop $-1 $-1 $167 $251 #
vertex $-1 $350 $351 #
straight-curve $-1 0 28.300312642929192 7.8086986301706727 1 0 0 I I #
coedge $-1 $169 $254 $171 $274 reversed $91 $-1 #
vertex $-1 $265 $352 #
straight-curve $-1 0 18.558129054992044 7.8086986301706727 1 0 0 I I #
edge $-1 $174 -4.8172366891566609 $261 -1.1656871928713626 $171 $353 forward 7 unknown #
edge $-1 $173 -7.8086986301706727 $262 -4.1571491338853743 $172 $354 forward 7 unknown #
point $-1 65.69536423841059 28.300312642929192 7.8086986301706727 #
point $-1 65.69536423841059 18.558129054992044 7.8086986301706727 #
plane-surface $-1 65.69536423841059 0 0 -1 0 0 0 0 1 forward_v I I I I #
coedge $-1 $289 $288 $281 $355 forward $177 $-1 #
coedge $-1 $281 $179 $181 $285 reversed $99 $-1 #
coedge $-1 $179 $280 $279 $355 reversed $99 $-1 #
coedge $-1 $187 $182 $179 $283 forward $188 $-1 #
edge $-1 $286 -89.023683895917415 $356 -82.047908957872451 $282 $357 forward 7 unknown #
coedge $-1 $181 $180 $289 $358 reversed $61 $-1 #
edge $-1 $359 118.91600856516555 $286 131.39072847682118 $280 $360 forward 7 unknown #
vertex $-1 $183 $361 #
straight-curve $-1 65.695364238410605 -3.9736779841514576 4.3532460577302317 0 1 0 I I #
coedge $-1 $279 $184 $187 $293 forward $177 $-1 #
coedge $-1 $184 $279 $284 $358 forward $177 $-1 #
vertex $-1 $185 $362 #
straight-curve $-1 15.120139095415013 -12.171330094417884 11.32902099577521 1 0 0 I I #
straight-curve $-1 -43.232485710162237 -12.171330094417884 77.826009958722508 -0.82903756765294845 0 0.55919291073839883 I I #
edge $-1 $189 -12.171330094417884 $356 -3.7233818421879459 $187 $363 forward 7 unknown #
point $-1 65.69536423841059 -12.171330094417884 11.329020995775215 #
point $-1 65.695364238410576 -12.171330094417884 4.3532460577302459 #
edge $-1 $364 1 $364 0 $192 $-1 forward 7 unknown #
vertex $-1 $193 $365 #
ellipse-curve $-1 59.807427020611954 -9.7576305937807568 6.7782389005403614 0.55919291073839883 0 0.82903756765294845 0.82903756765294845 0 -0.55919291073839883 1 I I #
point $-1 61.353396079708126 -9.7576305937807568 7.281940616014321 #
edge $-1 $366 1 $366 0 $196 $-1 forward 7 unknown #
vertex $-1 $197 $367 #
ellipse-curve $-1 59.807427020611954 -6.1370813428250699 6.7782389005403614 0.55919291073839883 0 0.82903756765294845 0.82903756765294845 0 -0.55919291073839883 1 I I #
point $-1 61.353396079708126 -6.1370813428250699 7.281940616014321 #
plane-surface $-1 65.69536423841059 0 0 -1 0 0 0 0 1 forward_v I I I I #
coedge $-1 $205 $203 $207 $309 reversed $121 $-1 #
edge $-1 $218 -11.329020995775215 $311 11.329020995775215 $217 $368 forward 7 unknown #
vertex $-1 $309 $369 #
straight-curve $-1 -65.69536423841059 -28.300312642929192 0 0 0 -1 I I #
edge $-1 $307 -28.300312642929192 $311 28.300312642929192 $305 $370 forward 7 unknown #
straight-curve $-1 0 -28.300312642929192 -11.329020995775215 -1 0 0 I I #
vertex $-1 $210 $371 #
straight-curve $-1 0 28.300312642929192 -11.329020995775215 1 0 0 I I #
point $-1 65.69536423841059 28.300312642929192 -11.329020995775215 #
point $-1 65.69536423841059 -28.300312642929192 -11.329020995775215 #
straight-curve $-1 -65.69536423841059 0 11.329020995775215 0 -1 0 I I #
point $-1 -65.69536423841059 28.300312642929192 11.329020995775215 #
point $-1 -65.69536423841059 -28.300312642929192 11.329020995775215 #
straight-curve $-1 65.69536423841059 -28.300312642929192 0 0 0 -1 I I #
straight-curve $-1 65.69536423841059 28.300312642929192 0 0 0 -1 I I #
plane-surface $-1 65.69536423841059 0 0 -1 0 0 0 0 1 forward_v I I I I #
coedge $-1 $324 $230 $241 $333 forward $140 $-1 #
coedge $-1 $230 $324 $244 $335 reversed $140 $-1 #
straight-curve $-1 65.69536423841059 -18.558129054992044 2.9914619410140117 0 0 1 I I #
coedge $-1 $322 $321 $233 $325 forward $140 $-1 #
edge $-1 $328 6.8435186305117348 $326 16.585702218448883 $324 $372 forward 7 unknown #
vertex $-1 $235 $373 #
straight-curve $-1 0 -28.300312642929192 4.1571491338853743 1 0 0 I I #
vertex $-1 $325 $374 #
straight-curve $-1 0 -18.558129054992044 4.1571491338853743 1 0 0 I I #
point $-1 65.69536423841059 -28.300312642929192 4.1571491338853743 #
point $-1 65.69536423841059 -18.558129054992044 4.1571491338853743 #
straight-curve $-1 -65.69536423841059 -11.714610424480309 7.8086986301706727 0 1 0 I I #
edge $-1 $242 -4.8172366891566609 $328 -1.1656871928713626 $321 $375 forward 7 unknown #
point $-1 -65.69536423841059 -18.558129054992044 7.8086986301706727 #
edge $-1 $246 -7.8086986301706727 $326 -4.1571491338853743 $322 $376 forward 7 unknown #
point $-1 -65.69536423841059 -28.300312642929192 7.8086986301706727 #
straight-curve $-1 65.69536423841059 -28.300312642929192 0 0 0 -1 I I #
plane-surface $-1 0 28.300312642929192 0 0 -1 0 0 0 -1 forward_v I I I I #
coedge $-1 $255 $348 $257 $342 forward $252 $-1 #
vertex $-1 $342 $377 #
straight-curve $-1 -65.69536423841059 18.558129054992044 2.9914619410140117 0 0 1 I I #
edge $-1 $344 -16.585702218448883 $340 -6.8435186305117348 $339 $378 forward 7 unknown #
straight-curve $-1 0 18.558129054992044 4.1571491338853743 -1 0 0 I I #
vertex $-1 $260 $379 #
straight-curve $-1 0 28.300312642929192 4.1571491338853743 -1 0 0 I I #
point $-1 65.69536423841059 18.558129054992044 4.1571491338853743 #
point $-1 65.69536423841059 28.300312642929192 4.1571491338853743 #
coedge $-1 $339 $264 $267 $350 forward $252 $-1 #
straight-curve $-1 -65.69536423841059 11.714610424480309 7.8086986301706727 0 1 0 I I #
edge $-1 $269 -7.8086986301706727 $344 -4.1571491338853743 $267 $380 forward 7 unknown #
point $-1 -65.69536423841059 28.300312642929192 7.8086986301706727 #
point $-1 -65.69536423841059 18.558129054992044 7.8086986301706727 #
straight-curve $-1 65.69536423841059 18.558129054992044 2.9914619410140117 0 0 -1 I I #
straight-curve $-1 65.69536423841059 28.300312642929192 0 0 0 -1 I I #
edge $-1 $356 -50.575225142995578 $359 -40.233213690284799 $279 $381 forward 7 unknown #
vertex $-1 $355 $382 #
straight-curve $-1 65.69536423841059 -3.7233818421879459 93.376929953647661 0 0 1 I I #
edge $-1 $359 -0.25029614196351169 $290 8.1976521102664268 $289 $383 forward 7 unknown #
vertex $-1 $358 $384 #
straight-curve $-1 -43.232485710162237 -3.7233818421879459 77.826009958722508 0.82903756765294845 0 -0.55919291073839883 I I #
point $-1 65.695364238410576 -3.7233818421879459 4.3532460577302459 #
point $-1 55.353352785699812 -12.171330094417884 11.32902099577521 #
straight-curve $-1 65.69536423841059 0 11.329020995775215 0 1 0 I I #
vertex $-1 $296 $385 #
point $-1 60.6364645882649 -9.7576305937807568 6.2190459898019625 #
vertex $-1 $300 $386 #
point $-1 60.6364645882649 -6.1370813428250699 6.2190459898019625 #
straight-curve $-1 -65.69536423841059 28.300312642929192 0 0 0 -1 I I #
point $-1 -65.69536423841059 -28.300312642929192 -11.329020995775215 #
straight-curve $-1 -65.69536423841059 0 -11.329020995775215 0 1 0 I I #
point $-1 -65.69536423841059 28.300312642929192 -11.329020995775215 #
straight-curve $-1 -65.69536423841059 -11.714610424480309 4.1571491338853743 0 -1 0 I I #
point $-1 -65.69536423841059 -28.300312642929192 4.1571491338853743 #
point $-1 -65.69536423841059 -18.558129054992044 4.1571491338853743 #
straight-curve $-1 -65.69536423841059 -18.558129054992044 2.9914619410140117 0 0 -1 I I #
straight-curve $-1 -65.69536423841059 -28.300312642929192 0 0 0 -1 I I #
point $-1 -65.69536423841059 18.558129054992044 4.1571491338853743 #
straight-curve $-1 -65.69536423841059 11.714610424480309 4.1571491338853743 0 -1 0 I I #
point $-1 -65.69536423841059 28.300312642929192 4.1571491338853743 #
straight-curve $-1 -65.69536423841059 28.300312642929192 0 0 0 -1 I I #
straight-curve $-1 15.120139095415013 -3.7233818421879459 11.32902099577521 -1 0 0 I I #
point $-1 65.69536423841059 -3.7233818421879459 11.329020995775215 #
straight-curve $-1 55.353352785699812 -3.9736779841514576 11.329020995775217 0 -1 0 I I #
point $-1 55.353352785699812 -3.7233818421879459 11.32902099577521 #
point $-1 59.24823410987355 -9.7576305937807568 5.9492013328874132 #
point $-1 59.24823410987355 -6.1370813428250699 5.9492013328874132 #
End-of-ACIS-data 