500 0 9 0           
7 Unknown 11 ACIS 5.0 NT 24 Fri Mar 26 02:29:48 1999 
-1 9.9999999999999995e-007 1e-010 
body $-1 $9 $-1 $10 #
body $-1 $11 $-1 $12 #
body $-1 $13 $-1 $14 #
body $-1 $15 $-1 $16 #
body $-1 $17 $-1 $18 #
body $-1 $19 $-1 $20 #
body $-1 $21 $-1 $22 #
body $-1 $23 $-1 $24 #
body $-1 $25 $-1 $26 #
lump $-1 $-1 $27 $0 #
transform $-1 1 0 0 0 1 0 0 0 1 46.35395367290262 28.406668170353907 12.376280855738163 1 rotate no_reflect no_shear #
lump $-1 $-1 $28 $1 #
transform $-1 1 0 0 0 1 0 0 0 1 46.35395367290262 28.406668170353907 12.376280855738163 1 rotate no_reflect no_shear #
lump $-1 $-1 $29 $2 #
transform $-1 1 0 0 0 1 0 0 0 1 46.35395367290262 28.406668170353907 12.376280855738163 1 rotate no_reflect no_shear #
lump $-1 $-1 $30 $3 #
transform $-1 1 0 0 0 1 0 0 0 1 46.35395367290262 28.406668170353907 12.376280855738163 1 rotate no_reflect no_shear #
lump $-1 $-1 $31 $4 #
transform $-1 1 0 0 0 1 0 0 0 1 46.35395367290262 28.406668170353907 12.376280855738163 1 rotate no_reflect no_shear #
lump $-1 $-1 $32 $5 #
transform $-1 1 0 0 0 1 0 0 0 1 46.35395367290262 28.406668170353907 12.376280855738163 1 rotate no_reflect no_shear #
lump $-1 $-1 $33 $6 #
transform $-1 1 0 0 0 1 0 0 0 1 46.35395367290262 28.406668170353907 12.376280855738163 1 rotate no_reflect no_shear #
lump $-1 $-1 $34 $7 #
transform $-1 1 0 0 0 1 0 0 0 1 46.35395367290262 28.406668170353907 12.376280855738163 1 rotate no_reflect no_shear #
lump $-1 $-1 $35 $8 #
transform $-1 1 0 0 0 1 0 0 0 1 46.35395367290262 28.406668170353907 12.376280855738163 1 rotate no_reflect no_shear #
shell $-1 $-1 $-1 $36 $-1 $9 #
shell $-1 $-1 $-1 $37 $-1 $11 #
shell $-1 $-1 $-1 $38 $-1 $13 #
shell $-1 $-1 $-1 $39 $-1 $15 #
shell $-1 $-1 $-1 $40 $-1 $17 #
shell $-1 $-1 $-1 $41 $-1 $19 #
shell $-1 $-1 $-1 $42 $-1 $21 #
shell $-1 $-1 $-1 $43 $-1 $23 #
shell $-1 $-1 $-1 $44 $-1 $25 #
face $-1 $45 $46 $27 $-1 $47 forward single #
face $-1 $48 $49 $28 $-1 $50 reversed single #
face $-1 $51 $52 $29 $-1 $53 reversed single #
face $-1 $54 $55 $30 $-1 $56 reversed single #
face $-1 $57 $58 $31 $-1 $59 forward single #
face $-1 $60 $61 $32 $-1 $62 forward single #
face $-1 $63 $64 $33 $-1 $65 forward single #
face $-1 $66 $67 $34 $-1 $68 reversed single #
face $-1 $69 $70 $35 $-1 $71 forward single #
face $-1 $72 $73 $27 $-1 $74 reversed single #
loop $-1 $-1 $75 $36 #
plane-surface $-1 0 0 12.376280855738163 0 0 1 1 0 0 forward_v I I I I #
face $-1 $76 $77 $28 $-1 $78 reversed single #
loop $-1 $-1 $79 $37 #
plane-surface $-1 -43.482975297935383 -14.600476839502479 0 0 -1 0 0 0 -1 forward_v I I I I #
face $-1 $80 $81 $29 $-1 $82 reversed single #
loop $-1 $-1 $83 $38 #
plane-surface $-1 -43.482975297935383 14.600476839502477 0 0 1 0 0 0 1 forward_v I I I I #
face $-1 $84 $85 $30 $-1 $86 reversed single #
loop $-1 $-1 $87 $39 #
plane-surface $-1 39.492251722426801 8.7017419670382239 135.58676539623764 0 -1 0 -0.66913061440640931 0 -0.74314481823134659 forward_v I I I I #
face $-1 $88 $89 $31 $-1 $90 forward single #
loop $-1 $91 $92 $40 #
cone-surface $-1 41.733193020382856 2.5640136633552579 8.1454007390031844 -0.66913061440640931 0 -0.74314481823134659 0.3715724091156733 0 -0.33456530720320465 1 I I 0 1 0.5 forward I I I I #
face $-1 $93 $94 $32 $-1 $95 forward single #
loop $-1 $96 $97 $41 #
cone-surface $-1 41.733193020382856 4.8656617772363653 8.1454007390031844 -0.66913061440640931 0 -0.74314481823134659 0.3715724091156733 0 -0.33456530720320465 1 I I 0 1 0.5 forward I I I I #
face $-1 $98 $99 $33 $-1 $100 forward single #
loop $-1 $101 $102 $42 #
cone-surface $-1 41.733193020382856 7.1673098911174726 8.1454007390031844 -0.66913061440640931 0 -0.74314481823134659 0.3715724091156733 0 -0.33456530720320465 1 I I 0 1 0.5 forward I I I I #
face $-1 $103 $104 $34 $-1 $105 reversed single #
loop $-1 $-1 $106 $43 #
plane-surface $-1 -96.846299529535202 -11.179457950117213 84.036966328373296 0 1 0 -0.54463904215088732 0 0.83867056331134215 forward_v I I I I #
face $-1 $107 $108 $35 $-1 $109 forward single #
loop $-1 $110 $111 $44 #
cone-surface $-1 -40.256752115389006 -7.5852723965890156 7.1631543019276549 0.54463904215088732 0 -0.83867056331134215 1.2580058449670133 0 0.81695856322633098 1 I I 0 1 1.5 forward I I I I #
face $-1 $112 $113 $27 $-1 $114 reversed single #
loop $-1 $-1 $115 $45 #
plane-surface $-1 0 0 -12.376280855738163 0 0 1 1 0 0 forward_v I I I I #
coedge $-1 $116 $117 $118 $119 forward $46 $-1 #
face $-1 $120 $121 $28 $-1 $122 forward single #
loop $-1 $-1 $123 $48 #
plane-surface $-1 -40.611996922968146 -21.503572504928194 0 -1 0 0 0 0 1 forward_v I I I I #
coedge $-1 $124 $125 $126 $127 forward $49 $-1 #
face $-1 $128 $129 $29 $-1 $130 reversed single #
loop $-1 $-1 $131 $51 #
plane-surface $-1 -40.611996922968146 21.50357250492819 0 -1 0 0 0 0 1 forward_v I I I I #
coedge $-1 $132 $133 $134 $135 reversed $52 $-1 #
face $-1 $136 $137 $30 $-1 $138 reversed single #
loop $-1 $-1 $139 $54 #
plane-surface $-1 -22.541447280204324 4.8656617772363724 66.691364443130681 0.66913061440640931 0 0.74314481823134659 0.74314481823134659 0 -0.66913061440640931 forward_v I I I I #
coedge $-1 $140 $141 $142 $143 reversed $55 $-1 #
face $-1 $-1 $144 $31 $-1 $145 forward single #
loop $-1 $146 $147 $57 #
cone-surface $-1 41.231345059578047 2.5640136633552579 7.5880421253296753 -0.66913061440640931 0 -0.74314481823134659 0.18578620455783665 0 -0.16728265360160233 1 I I -0.70710678118654746 0.70710678118654746 0.25 forward I I I I #
loop $-1 $-1 $148 $40 #
coedge $-1 $92 $92 $149 $150 reversed $58 $-1 #
face $-1 $-1 $151 $32 $-1 $152 forward single #
loop $-1 $153 $154 $60 #
cone-surface $-1 41.231345059578047 4.8656617772363653 7.5880421253296753 -0.66913061440640931 0 -0.74314481823134659 0.18578620455783665 0 -0.16728265360160233 1 I I -0.70710678118654746 0.70710678118654746 0.25 forward I I I I #
loop $-1 $-1 $155 $41 #
coedge $-1 $97 $97 $156 $157 reversed $61 $-1 #
face $-1 $-1 $158 $33 $-1 $159 forward single #
loop $-1 $160 $161 $63 #
cone-surface $-1 41.231345059578047 7.1673098911174726 7.5880421253296753 -0.66913061440640931 0 -0.74314481823134659 0.18578620455783665 0 -0.16728265360160233 1 I I -0.70710678118654746 0.70710678118654746 0.25 forward I I I I #
loop $-1 $-1 $162 $42 #
coedge $-1 $102 $102 $163 $164 reversed $64 $-1 #
face $-1 $165 $166 $34 $-1 $167 reversed single #
loop $-1 $-1 $168 $66 #
plane-surface $-1 -46.353953672902627 -7.5852723965890156 6.2855734512510963 -0.54463904215088732 0 0.83867056331134215 0.83867056331134215 0 0.54463904215088732 forward_v I I I I #
coedge $-1 $169 $170 $171 $172 reversed $67 $-1 #
face $-1 $-1 $173 $35 $-1 $174 forward single #
loop $-1 $175 $176 $69 #
cone-surface $-1 -38.440504657417613 -7.5852723965890156 4.3663785278771776 0.54463904215088732 0 -0.83867056331134215 0.62900292248350664 0 0.40847928161316549 1 I I -0.70710678118654757 0.70710678118654757 0.75 forward I I I I #
loop $-1 $-1 $177 $44 #
coedge $-1 $111 $111 $178 $179 reversed $70 $-1 #
face $-1 $180 $181 $27 $-1 $182 reversed single #
loop $-1 $-1 $183 $72 #
plane-surface $-1 0 -28.406668170353907 0 0 1 0 0 0 1 forward_v I I I I #
coedge $-1 $184 $185 $186 $187 forward $73 $-1 #
coedge $-1 $188 $75 $189 $190 forward $46 $-1 #
coedge $-1 $75 $188 $191 $192 forward $46 $-1 #
coedge $-1 $193 $194 $75 $119 reversed $195 $-1 #
edge $-1 $196 -28.406668170353907 $197 28.406668170353907 $118 $198 forward 7 unknown #
face $-1 $199 $200 $28 $-1 $201 reversed single #
loop $-1 $-1 $202 $76 #
plane-surface $-1 0 0 12.376280855738163 0 0 1 1 0 0 forward_v I I I I #
coedge $-1 $203 $204 $205 $206 reversed $77 $-1 #
coedge $-1 $207 $79 $208 $209 reversed $49 $-1 #
coedge $-1 $79 $207 $210 $211 reversed $49 $-1 #
coedge $-1 $204 $203 $79 $127 reversed $77 $-1 #
edge $-1 $212 -12.376280855738163 $213 12.376280855738163 $126 $214 forward 7 unknown #
face $-1 $215 $216 $29 $-1 $217 reversed single #
loop $-1 $-1 $218 $80 #
plane-surface $-1 0 0 -12.376280855738163 0 0 1 1 0 0 forward_v I I I I #
coedge $-1 $219 $220 $221 $222 forward $81 $-1 #
coedge $-1 $221 $83 $223 $224 reversed $52 $-1 #
coedge $-1 $83 $221 $225 $226 reversed $52 $-1 #
coedge $-1 $227 $228 $83 $135 forward $216 $-1 #
edge $-1 $229 -12.376280855738163 $230 12.376280855738163 $134 $231 forward 7 unknown #
face $-1 $232 $233 $30 $-1 $234 reversed single #
loop $-1 $-1 $235 $84 #
plane-surface $-1 39.492251722426801 1.0295815874345209 135.58676539623764 0 1 0 0.66913061440640931 0 0.74314481823134659 forward_v I I I I #
coedge $-1 $236 $237 $238 $239 reversed $85 $-1 #
coedge $-1 $141 $87 $240 $241 reversed $55 $-1 #
coedge $-1 $87 $140 $236 $242 reversed $55 $-1 #
coedge $-1 $238 $243 $87 $143 forward $244 $-1 #
edge $-1 $245 -26.607827811689219 $246 -18.035437121056049 $142 $247 forward 7 unknown #
loop $-1 $-1 $149 $88 #
plane-surface $-1 -22.541447280204324 4.8656617772363724 66.691364443130681 0.66913061440640931 0 0.74314481823134659 0.74314481823134659 0 -0.66913061440640931 forward_v I I I I #
loop $-1 $-1 $248 $57 #
coedge $-1 $147 $147 $148 $249 reversed $89 $-1 #
coedge $-1 $148 $148 $147 $249 forward $91 $-1 #
coedge $-1 $149 $149 $92 $150 forward $144 $-1 #
edge $-1 $250 0 $250 6.2831853071796004 $149 $251 forward 7 unknown #
loop $-1 $-1 $156 $93 #
plane-surface $-1 -22.541447280204324 4.8656617772363724 66.691364443130681 0.66913061440640931 0 0.74314481823134659 0.74314481823134659 0 -0.66913061440640931 forward_v I I I I #
loop $-1 $-1 $252 $60 #
coedge $-1 $154 $154 $155 $253 reversed $94 $-1 #
coedge $-1 $155 $155 $154 $253 forward $96 $-1 #
coedge $-1 $156 $156 $97 $157 forward $151 $-1 #
edge $-1 $254 0 $254 6.2831853071796004 $156 $255 forward 7 unknown #
loop $-1 $-1 $163 $98 #
plane-surface $-1 -22.541447280204324 4.8656617772363724 66.691364443130681 0.66913061440640931 0 0.74314481823134659 0.74314481823134659 0 -0.66913061440640931 forward_v I I I I #
loop $-1 $-1 $256 $63 #
coedge $-1 $161 $161 $162 $257 reversed $99 $-1 #
coedge $-1 $162 $162 $161 $257 forward $101 $-1 #
coedge $-1 $163 $163 $102 $164 forward $158 $-1 #
edge $-1 $258 0 $258 6.2831853071796004 $163 $259 forward 7 unknown #
face $-1 $260 $261 $34 $-1 $262 forward single #
loop $-1 $-1 $263 $103 #
plane-surface $-1 -96.846299529535202 -3.9910868430608186 84.036966328373296 0 -1 0 0.54463904215088732 0 -0.83867056331134215 forward_v I I I I #
coedge $-1 $264 $265 $266 $267 reversed $104 $-1 #
coedge $-1 $170 $106 $268 $269 reversed $67 $-1 #
coedge $-1 $106 $169 $264 $270 reversed $67 $-1 #
coedge $-1 $266 $271 $106 $172 forward $261 $-1 #
edge $-1 $272 2.0691960918649812 $273 11.448062854175745 $171 $274 forward 7 unknown #
loop $-1 $-1 $178 $107 #
plane-surface $-1 -46.353953672902627 -7.5852723965890156 6.2855734512510963 -0.54463904215088732 0 0.83867056331134215 0.83867056331134215 0 0.54463904215088732 forward_v I I I I #
loop $-1 $-1 $275 $69 #
coedge $-1 $176 $176 $177 $276 reversed $108 $-1 #
coedge $-1 $177 $177 $176 $276 forward $110 $-1 #
coedge $-1 $178 $178 $111 $179 forward $173 $-1 #
edge $-1 $277 0 $277 6.2831853071796004 $178 $278 forward 7 unknown #
face $-1 $279 $280 $27 $-1 $281 reversed single #
loop $-1 $-1 $282 $112 #
plane-surface $-1 -46.35395367290262 0 0 1 0 0 0 0 -1 forward_v I I I I #
coedge $-1 $283 $191 $284 $285 forward $113 $-1 #
coedge $-1 $286 $115 $283 $287 forward $73 $-1 #
coedge $-1 $115 $286 $288 $289 forward $73 $-1 #
coedge $-1 $194 $193 $115 $187 reversed $195 $-1 #
edge $-1 $290 -28.406668170353907 $291 28.406668170353907 $186 $292 forward 7 unknown #
coedge $-1 $117 $116 $293 $294 forward $46 $-1 #
coedge $-1 $295 $296 $116 $190 reversed $280 $-1 #
edge $-1 $197 -46.35395367290262 $297 46.35395367290262 $189 $298 forward 7 unknown #
coedge $-1 $183 $299 $117 $192 reversed $113 $-1 #
edge $-1 $300 -46.35395367290262 $196 46.35395367290262 $191 $301 forward 7 unknown #
coedge $-1 $186 $118 $299 $302 forward $195 $-1 #
coedge $-1 $118 $186 $295 $303 reversed $195 $-1 #
loop $-1 $-1 $193 $279 #
vertex $-1 $119 $304 #
vertex $-1 $119 $305 #
straight-curve $-1 46.35395367290262 0 12.376280855738163 0 1 0 I I #
face $-1 $306 $307 $28 $-1 $308 reversed single #
loop $-1 $-1 $309 $120 #
plane-surface $-1 -46.35395367290262 0 0 1 0 0 0 0 -1 forward_v I I I I #
coedge $-1 $210 $310 $204 $311 forward $121 $-1 #
coedge $-1 $126 $123 $312 $313 reversed $77 $-1 #
coedge $-1 $123 $126 $202 $311 reversed $77 $-1 #
coedge $-1 $314 $315 $123 $206 forward $316 $-1 #
edge $-1 $317 -12.376280855738163 $318 12.376280855738163 $205 $319 forward 7 unknown #
coedge $-1 $125 $124 $309 $320 reversed $49 $-1 #
coedge $-1 $312 $321 $124 $209 forward $307 $-1 #
edge $-1 $322 -24.612466023934928 $213 -18.870509274000455 $208 $323 forward 7 unknown #
coedge $-1 $324 $202 $125 $211 forward $121 $-1 #
edge $-1 $212 18.870509274000455 $325 24.612466023934928 $210 $326 forward 7 unknown #
vertex $-1 $211 $327 #
vertex $-1 $209 $328 #
straight-curve $-1 -40.611996922968146 -14.600476839502479 0 0 0 -1 I I #
face $-1 $329 $330 $29 $-1 $331 forward single #
loop $-1 $-1 $134 $128 #
plane-surface $-1 -46.35395367290262 0 0 1 0 0 0 0 -1 forward_v I I I I #
coedge $-1 $223 $332 $219 $333 forward $129 $-1 #
coedge $-1 $334 $131 $218 $333 reversed $81 $-1 #
coedge $-1 $131 $334 $335 $336 reversed $81 $-1 #
coedge $-1 $133 $132 $131 $222 reversed $52 $-1 #
edge $-1 $337 -12.376280855738163 $338 12.376280855738163 $131 $339 forward 7 unknown #
coedge $-1 $340 $218 $132 $224 forward $129 $-1 #
edge $-1 $338 18.870509274000455 $229 24.612466023934928 $223 $341 forward 7 unknown #
coedge $-1 $335 $342 $133 $226 forward $330 $-1 #
edge $-1 $230 -24.612466023934928 $337 -18.870509274000455 $225 $343 forward 7 unknown #
coedge $-1 $344 $134 $342 $345 reversed $216 $-1 #
coedge $-1 $134 $344 $340 $346 reversed $216 $-1 #
vertex $-1 $346 $347 #
vertex $-1 $135 $348 #
straight-curve $-1 -46.35395367290262 14.600476839502477 0 0 0 1 I I #
face $-1 $-1 $244 $30 $-1 $349 forward single #
loop $-1 $-1 $350 $136 #
plane-surface $-1 46.35395367290262 0 0 -1 0 0 0 0 1 forward_v I I I I #
coedge $-1 $351 $352 $353 $354 reversed $137 $-1 #
coedge $-1 $355 $139 $141 $242 forward $85 $-1 #
coedge $-1 $139 $355 $351 $356 forward $85 $-1 #
coedge $-1 $353 $142 $139 $239 forward $244 $-1 #
edge $-1 $246 -6.2689110784200377 $357 1.4032493011836653 $238 $358 forward 7 unknown #
coedge $-1 $359 $360 $140 $241 forward $233 $-1 #
edge $-1 $361 -63.135717257619255 $245 -55.41710184238066 $240 $362 forward 7 unknown #
edge $-1 $246 81.172617749041166 $361 92.707907345805211 $141 $363 forward 7 unknown #
coedge $-1 $142 $353 $359 $364 forward $244 $-1 #
loop $-1 $-1 $353 $232 #
vertex $-1 $241 $365 #
vertex $-1 $143 $366 #
straight-curve $-1 19.7461258612134 8.7017419670382239 12.376280855738159 -1 0 0 I I #
coedge $-1 $248 $248 $-1 $367 reversed $146 $-1 #
edge $-1 $368 0 $368 6.2831853071796004 $147 $369 forward 7 unknown #
vertex $-1 $150 $370 #
ellipse-curve $-1 42.067758327586048 2.5640136633552579 8.5169731481188471 0.66913061440640931 0 0.74314481823134659 0.3715724091156733 0 -0.33456530720320465 1 I I #
coedge $-1 $252 $252 $-1 $371 reversed $153 $-1 #
edge $-1 $372 0 $372 6.2831853071796004 $154 $373 forward 7 unknown #
vertex $-1 $157 $374 #
ellipse-curve $-1 42.067758327586048 4.8656617772363653 8.5169731481188471 0.66913061440640931 0 0.74314481823134659 0.3715724091156733 0 -0.33456530720320465 1 I I #
coedge $-1 $256 $256 $-1 $375 reversed $160 $-1 #
edge $-1 $376 0 $376 6.2831853071796004 $161 $377 forward 7 unknown #
vertex $-1 $164 $378 #
ellipse-curve $-1 42.067758327586048 7.1673098911174726 8.5169731481188471 0.66913061440640931 0 0.74314481823134659 0.3715724091156733 0 -0.33456530720320465 1 I I #
face $-1 $-1 $379 $34 $-1 $380 reversed single #
loop $-1 $-1 $171 $165 #
plane-surface $-1 0 0 12.376280855738163 0 0 1 1 0 0 forward_v I I I I #
coedge $-1 $381 $382 $383 $384 reversed $166 $-1 #
coedge $-1 $385 $168 $170 $270 forward $104 $-1 #
coedge $-1 $168 $385 $381 $386 forward $104 $-1 #
coedge $-1 $383 $171 $168 $267 forward $261 $-1 #
edge $-1 $273 -7.3868217518227048 $387 -0.1984506447663108 $266 $388 forward 7 unknown #
coedge $-1 $389 $390 $169 $269 forward $379 $-1 #
edge $-1 $391 -35.732909712935545 $272 -29.642202308448486 $268 $392 forward 7 unknown #
edge $-1 $273 -11.183016517570351 $391 -8.3777959833898778e-015 $170 $393 forward 7 unknown #
coedge $-1 $171 $383 $389 $394 forward $261 $-1 #
vertex $-1 $172 $395 #
vertex $-1 $172 $396 #
straight-curve $-1 -48.423149764767601 -11.179457950117213 12.376280855738166 1 0 0 I I #
coedge $-1 $275 $275 $-1 $397 reversed $175 $-1 #
edge $-1 $398 0 $398 6.2831853071796004 $176 $399 forward 7 unknown #
vertex $-1 $179 $400 #
ellipse-curve $-1 -41.664520291747237 -7.5852723965890156 9.3309271534946348 -0.54463904215088732 0 0.83867056331134215 1.2580058449670133 0 0.81695856322633098 1 I I #
face $-1 $-1 $195 $27 $-1 $401 reversed single #
loop $-1 $-1 $295 $180 #
plane-surface $-1 0 28.406668170353907 0 0 -1 0 0 0 -1 forward_v I I I I #
coedge $-1 $402 $293 $296 $403 forward $181 $-1 #
coedge $-1 $299 $183 $184 $287 reversed $113 $-1 #
coedge $-1 $293 $402 $183 $285 reversed $181 $-1 #
edge $-1 $300 -12.376280855738163 $404 12.376280855738163 $284 $405 forward 7 unknown #
coedge $-1 $185 $184 $402 $406 forward $73 $-1 #
edge $-1 $291 -46.35395367290262 $404 46.35395367290262 $283 $407 forward 7 unknown #
coedge $-1 $296 $295 $185 $289 reversed $280 $-1 #
edge $-1 $408 -46.35395367290262 $290 46.35395367290262 $288 $409 forward 7 unknown #
vertex $-1 $187 $410 #
vertex $-1 $302 $411 #
straight-curve $-1 46.35395367290262 0 -12.376280855738163 0 -1 0 I I #
coedge $-1 $282 $284 $188 $294 reversed $181 $-1 #
edge $-1 $297 -28.406668170353907 $300 28.406668170353907 $293 $412 forward 7 unknown #
coedge $-1 $288 $189 $194 $303 forward $280 $-1 #
coedge $-1 $189 $288 $282 $403 reversed $280 $-1 #
vertex $-1 $190 $413 #
straight-curve $-1 0 28.406668170353907 12.376280855738163 -1 0 0 I I #
coedge $-1 $191 $283 $193 $302 reversed $113 $-1 #
vertex $-1 $294 $414 #
straight-curve $-1 0 -28.406668170353907 12.376280855738163 1 0 0 I I #
edge $-1 $196 -12.376280855738163 $291 12.376280855738163 $193 $415 forward 7 unknown #
edge $-1 $197 -12.376280855738163 $290 12.376280855738163 $194 $416 forward 7 unknown #
point $-1 46.35395367290262 -28.406668170353907 12.376280855738163 #
point $-1 46.35395367290262 28.406668170353907 12.376280855738163 #
face $-1 $-1 $316 $28 $-1 $417 reversed single #
loop $-1 $-1 $312 $199 #
plane-surface $-1 0 0 -12.376280855738163 0 0 1 1 0 0 forward_v I I I I #
coedge $-1 $418 $419 $207 $320 forward $200 $-1 #
coedge $-1 $202 $324 $314 $420 forward $121 $-1 #
edge $-1 $318 -17.654881917889814 $212 -3.8486905870383818 $202 $421 forward 7 unknown #
coedge $-1 $422 $208 $203 $313 forward $307 $-1 #
edge $-1 $213 3.8486905870383818 $317 17.654881917889814 $312 $423 forward 7 unknown #
coedge $-1 $424 $205 $310 $420 reversed $316 $-1 #
coedge $-1 $205 $424 $422 $425 reversed $316 $-1 #
loop $-1 $-1 $205 $306 #
vertex $-1 $425 $426 #
vertex $-1 $206 $427 #
straight-curve $-1 -40.611996922968146 -28.406668170353907 0 0 0 1 I I #
edge $-1 $325 -12.376280855738163 $322 12.376280855738163 $309 $428 forward 7 unknown #
coedge $-1 $208 $422 $418 $429 forward $307 $-1 #
vertex $-1 $209 $430 #
straight-curve $-1 -21.741487648967691 -14.600476839502479 -12.376280855738163 1 0 0 I I #
coedge $-1 $310 $210 $419 $431 forward $121 $-1 #
vertex $-1 $431 $432 #
straight-curve $-1 -21.741487648967691 -14.600476839502479 12.376280855738163 -1 0 0 I I #
point $-1 -40.611996922968146 -14.600476839502479 12.376280855738163 #
point $-1 -40.611996922968146 -14.600476839502479 -12.376280855738163 #
face $-1 $-1 $433 $29 $-1 $434 reversed single #
loop $-1 $-1 $335 $215 #
plane-surface $-1 0 0 12.376280855738163 0 0 1 1 0 0 forward_v I I I I #
coedge $-1 $218 $340 $435 $436 forward $129 $-1 #
edge $-1 $437 -17.65488191788981 $338 -3.8486905870383818 $218 $438 forward 7 unknown #
coedge $-1 $220 $219 $439 $440 reversed $81 $-1 #
coedge $-1 $441 $225 $220 $336 forward $330 $-1 #
edge $-1 $337 3.8486905870383818 $442 17.65488191788981 $335 $443 forward 7 unknown #
vertex $-1 $226 $444 #
vertex $-1 $224 $445 #
straight-curve $-1 -40.611996922968146 14.600476839502477 0 0 0 -1 I I #
coedge $-1 $332 $223 $228 $346 forward $129 $-1 #
straight-curve $-1 -21.741487648967691 14.600476839502477 -12.376280855738163 -1 0 0 I I #
coedge $-1 $225 $441 $227 $345 forward $330 $-1 #
straight-curve $-1 -21.741487648967691 14.600476839502477 12.376280855738163 1 0 0 I I #
coedge $-1 $228 $227 $446 $447 forward $216 $-1 #
edge $-1 $448 -28.406668170353907 $230 -14.600476839502477 $227 $449 forward 7 unknown #
edge $-1 $229 14.600476839502477 $450 28.406668170353907 $228 $451 forward 7 unknown #
point $-1 -46.35395367290262 14.600476839502477 -12.376280855738163 #
point $-1 -46.35395367290262 14.600476839502477 12.376280855738163 #
plane-surface $-1 0 0 12.376280855738163 0 0 1 1 0 0 forward_v I I I I #
coedge $-1 $360 $359 $352 $452 forward $233 $-1 #
coedge $-1 $352 $235 $237 $356 reversed $137 $-1 #
coedge $-1 $235 $351 $350 $452 reversed $137 $-1 #
coedge $-1 $243 $238 $235 $354 forward $244 $-1 #
edge $-1 $357 18.035437121056049 $453 26.607827811689219 $353 $454 forward 7 unknown #
coedge $-1 $237 $236 $360 $455 reversed $85 $-1 #
edge $-1 $456 -92.707907345805211 $357 -81.172617749041166 $351 $457 forward 7 unknown #
vertex $-1 $239 $458 #
straight-curve $-1 37.78156298226947 2.4328308886181862 12.376280855738152 0 -1 0 I I #
coedge $-1 $350 $240 $243 $364 reversed $233 $-1 #
coedge $-1 $240 $350 $355 $455 forward $233 $-1 #
vertex $-1 $241 $459 #
straight-curve $-1 46.35395367290262 8.7017419670382239 67.793382698118819 0 0 1 I I #
straight-curve $-1 -22.541447280204324 8.7017419670382239 66.691364443130681 0.74314481823134659 0 -0.66913061440640931 I I #
edge $-1 $453 1.0295815874345209 $245 8.7017419670382239 $359 $460 forward 7 unknown #
point $-1 46.35395367290262 8.7017419670382239 12.376280855738163 #
point $-1 37.781562982269449 8.7017419670382239 12.376280855738159 #
edge $-1 $461 1 $461 0 $248 $-1 forward 7 unknown #
vertex $-1 $249 $462 #
ellipse-curve $-1 41.39862771317965 2.5640136633552579 7.7738283298875119 0.66913061440640931 0 0.74314481823134659 0.3715724091156733 0 -0.33456530720320465 1 I I #
point $-1 42.439330736701734 2.5640136633552579 8.1824078409156531 #
edge $-1 $463 1 $463 0 $252 $-1 forward 7 unknown #
vertex $-1 $253 $464 #
ellipse-curve $-1 41.39862771317965 4.8656617772363653 7.7738283298875119 0.66913061440640931 0 0.74314481823134659 0.3715724091156733 0 -0.33456530720320465 1 I I #
point $-1 42.439330736701734 4.8656617772363653 8.1824078409156531 #
edge $-1 $465 1 $465 0 $256 $-1 forward 7 unknown #
vertex $-1 $257 $466 #
ellipse-curve $-1 41.39862771317965 7.1673098911174726 7.7738283298875119 0.66913061440640931 0 0.74314481823134659 0.3715724091156733 0 -0.33456530720320465 1 I I #
point $-1 42.439330736701734 7.1673098911174726 8.1824078409156531 #
loop $-1 $-1 $268 $260 #
plane-surface $-1 -46.35395367290262 0 0 1 0 0 0 0 -1 forward_v I I I I #
coedge $-1 $382 $263 $265 $386 reversed $166 $-1 #
coedge $-1 $263 $381 $467 $468 reversed $166 $-1 #
coedge $-1 $271 $266 $263 $384 forward $261 $-1 #
edge $-1 $387 -11.448062854175745 $469 -2.0691960918649812 $383 $470 forward 7 unknown #
coedge $-1 $265 $264 $390 $471 reversed $104 $-1 #
edge $-1 $472 8.3777959833898778e-015 $387 11.183016517570351 $381 $473 forward 7 unknown #
vertex $-1 $267 $474 #
straight-curve $-1 -36.975086910591855 -3.7926361982945078 12.376280855738163 0 1 0 I I #
coedge $-1 $467 $268 $271 $394 reversed $379 $-1 #
coedge $-1 $268 $467 $385 $471 forward $379 $-1 #
vertex $-1 $269 $475 #
straight-curve $-1 -46.35395367290262 -11.179457950117213 42.018483164186648 0 0 1 I I #
straight-curve $-1 -46.353953672902627 -11.179457950117213 6.2855734512510963 -0.83867056331134215 0 -0.54463904215088732 I I #
edge $-1 $469 3.9910868430608186 $272 11.179457950117213 $389 $476 forward 7 unknown #
point $-1 -46.35395367290262 -11.179457950117213 12.376280855738163 #
point $-1 -36.975086910591855 -11.179457950117213 12.376280855738163 #
edge $-1 $477 1 $477 0 $275 $-1 forward 7 unknown #
vertex $-1 $276 $478 #
ellipse-curve $-1 -38.848983939030781 -7.5852723965890156 4.9953814503606839 -0.54463904215088732 0 0.83867056331134215 1.2580058449670133 0 0.81695856322633098 1 I I #
point $-1 -40.406514446780214 -7.5852723965890156 10.147885716720957 #
plane-surface $-1 46.35395367290262 0 0 -1 0 0 0 0 1 forward_v I I I I #
coedge $-1 $284 $282 $286 $406 reversed $181 $-1 #
edge $-1 $297 -12.376280855738163 $408 12.376280855738163 $296 $479 forward 7 unknown #
vertex $-1 $406 $480 #
straight-curve $-1 -46.35395367290262 -28.406668170353907 0 0 0 -1 I I #
edge $-1 $404 -28.406668170353907 $408 28.406668170353907 $402 $481 forward 7 unknown #
straight-curve $-1 0 -28.406668170353907 -12.376280855738163 -1 0 0 I I #
vertex $-1 $289 $482 #
straight-curve $-1 0 28.406668170353907 -12.376280855738163 1 0 0 I I #
point $-1 46.35395367290262 28.406668170353907 -12.376280855738163 #
point $-1 46.35395367290262 -28.406668170353907 -12.376280855738163 #
straight-curve $-1 -46.35395367290262 0 12.376280855738163 0 -1 0 I I #
point $-1 -46.35395367290262 28.406668170353907 12.376280855738163 #
point $-1 -46.35395367290262 -28.406668170353907 12.376280855738163 #
straight-curve $-1 46.35395367290262 -28.406668170353907 0 0 0 -1 I I #
straight-curve $-1 46.35395367290262 28.406668170353907 0 0 0 -1 I I #
plane-surface $-1 0 -28.406668170353907 0 0 1 0 0 0 1 forward_v I I I I #
coedge $-1 $483 $309 $321 $429 reversed $200 $-1 #
coedge $-1 $309 $483 $324 $431 reversed $200 $-1 #
edge $-1 $484 -46.35395367290262 $318 -40.611996922968146 $314 $485 forward 7 unknown #
straight-curve $-1 -40.611996922968146 -10.751786252464097 12.376280855738163 0 1 0 I I #
coedge $-1 $321 $312 $315 $425 forward $307 $-1 #
straight-curve $-1 -40.611996922968146 -10.751786252464097 -12.376280855738163 0 -1 0 I I #
coedge $-1 $315 $314 $483 $486 forward $316 $-1 #
edge $-1 $317 40.611996922968146 $487 46.35395367290262 $315 $488 forward 7 unknown #
point $-1 -40.611996922968146 -28.40666817035391 -12.376280855738163 #
point $-1 -40.611996922968146 -28.40666817035391 12.376280855738163 #
straight-curve $-1 -46.35395367290262 -14.600476839502479 0 0 0 -1 I I #
edge $-1 $487 -28.406668170353907 $322 -14.600476839502479 $418 $489 forward 7 unknown #
point $-1 -46.35395367290262 -14.600476839502479 -12.376280855738163 #
edge $-1 $325 14.600476839502479 $484 28.406668170353907 $419 $490 forward 7 unknown #
point $-1 -46.35395367290262 -14.600476839502479 12.376280855738163 #
loop $-1 $-1 $439 $329 #
plane-surface $-1 0 28.406668170353907 0 0 -1 0 0 0 -1 forward_v I I I I #
coedge $-1 $446 $439 $332 $436 reversed $433 $-1 #
edge $-1 $450 -46.35395367290262 $437 -40.611996922968146 $435 $491 forward 7 unknown #
vertex $-1 $333 $492 #
straight-curve $-1 -40.611996922968146 10.751786252464095 -12.376280855738163 0 -1 0 I I #
coedge $-1 $435 $493 $334 $440 forward $433 $-1 #
edge $-1 $442 -12.376280855738163 $437 12.376280855738163 $439 $494 forward 7 unknown #
coedge $-1 $342 $335 $493 $495 forward $330 $-1 #
vertex $-1 $495 $496 #
straight-curve $-1 -40.611996922968146 10.751786252464095 12.376280855738163 0 1 0 I I #
point $-1 -40.611996922968146 14.600476839502477 12.376280855738163 #
point $-1 -40.611996922968146 14.600476839502477 -12.376280855738163 #
coedge $-1 $493 $435 $344 $447 reversed $433 $-1 #
edge $-1 $448 -12.376280855738163 $450 12.376280855738163 $446 $497 forward 7 unknown #
vertex $-1 $495 $498 #
straight-curve $-1 -46.35395367290262 0 12.376280855738163 0 -1 0 I I #
vertex $-1 $436 $499 #
straight-curve $-1 -46.35395367290262 0 -12.376280855738163 0 1 0 I I #
edge $-1 $453 55.41710184238066 $456 63.135717257619255 $350 $500 forward 7 unknown #
vertex $-1 $364 $501 #
straight-curve $-1 19.7461258612134 1.0295815874345209 12.376280855738159 1 0 0 I I #
edge $-1 $456 -1.4032493011836653 $361 6.2689110784200377 $360 $502 forward 7 unknown #
vertex $-1 $455 $503 #
straight-curve $-1 -22.541447280204324 1.0295815874345209 66.691364443130681 -0.74314481823134659 0 0.66913061440640931 I I #
point $-1 37.781562982269449 1.0295815874345209 12.376280855738159 #
point $-1 46.35395367290262 8.7017419670382239 4.6576654404995637 #
straight-curve $-1 46.35395367290262 0 12.376280855738163 0 1 0 I I #
vertex $-1 $367 $504 #
point $-1 41.770200122295321 2.5640136633552579 7.4392630226843073 #
vertex $-1 $371 $505 #
point $-1 41.770200122295321 4.8656617772363653 7.4392630226843073 #
vertex $-1 $375 $506 #
point $-1 41.770200122295321 7.1673098911174726 7.4392630226843073 #
coedge $-1 $390 $389 $382 $468 forward $379 $-1 #
edge $-1 $469 29.642202308448486 $472 35.732909712935545 $467 $507 forward 7 unknown #
vertex $-1 $394 $508 #
straight-curve $-1 -48.423149764767601 -3.9910868430608186 12.376280855738166 -1 0 0 I I #
edge $-1 $472 0.1984506447663108 $391 7.3868217518227048 $390 $509 forward 7 unknown #
vertex $-1 $471 $510 #
straight-curve $-1 -46.353953672902627 -3.9910868430608186 6.2855734512510963 0.83867056331134215 0 0.54463904215088732 I I #
point $-1 -36.975086910591855 -3.9910868430608186 12.376280855738163 #
point $-1 -46.35395367290262 -11.179457950117213 6.2855734512511008 #
straight-curve $-1 -46.35395367290262 0 12.376280855738163 0 -1 0 I I #
vertex $-1 $397 $511 #
point $-1 -37.590978094063765 -7.5852723965890156 5.8123400135870149 #
straight-curve $-1 -46.35395367290262 28.406668170353907 0 0 0 -1 I I #
point $-1 -46.35395367290262 -28.406668170353907 -12.376280855738163 #
straight-curve $-1 -46.35395367290262 0 -12.376280855738163 0 1 0 I I #
point $-1 -46.35395367290262 28.406668170353907 -12.376280855738163 #
coedge $-1 $419 $418 $424 $486 reversed $200 $-1 #
vertex $-1 $431 $512 #
straight-curve $-1 0 -28.406668170353907 12.376280855738163 1 0 0 I I #
edge $-1 $484 -12.376280855738163 $487 12.376280855738163 $483 $513 forward 7 unknown #
vertex $-1 $429 $514 #
straight-curve $-1 0 -28.406668170353907 -12.376280855738163 -1 0 0 I I #
straight-curve $-1 -46.35395367290262 0 -12.376280855738163 0 1 0 I I #
straight-curve $-1 -46.35395367290262 0 12.376280855738163 0 -1 0 I I #
straight-curve $-1 0 28.406668170353907 -12.376280855738163 1 0 0 I I #
point $-1 -40.611996922968146 28.406668170353903 -12.376280855738163 #
coedge $-1 $439 $446 $441 $495 reversed $433 $-1 #
straight-curve $-1 -40.611996922968146 28.406668170353907 0 0 0 -1 I I #
edge $-1 $442 40.611996922968146 $448 46.35395367290262 $493 $515 forward 7 unknown #
point $-1 -40.611996922968146 28.406668170353903 12.376280855738163 #
straight-curve $-1 -46.35395367290262 28.406668170353907 0 0 0 -1 I I #
point $-1 -46.35395367290262 28.406668170353907 12.376280855738163 #
point $-1 -46.35395367290262 28.406668170353907 -12.376280855738163 #
straight-curve $-1 46.35395367290262 1.0295815874345209 67.793382698118819 0 0 -1 I I #
point $-1 46.35395367290262 1.0295815874345209 12.376280855738163 #
straight-curve $-1 46.35395367290262 2.4328308886181862 4.6576654404995708 0 1 0 I I #
point $-1 46.35395367290262 1.0295815874345209 4.6576654404995637 #
point $-1 41.064062405976443 2.5640136633552579 7.4022559207718386 #
point $-1 41.064062405976443 4.8656617772363653 7.4022559207718386 #
point $-1 41.064062405976443 7.1673098911174726 7.4022559207718386 #
straight-curve $-1 -46.35395367290262 -3.9910868430608186 42.018483164186648 0 0 -1 I I #
point $-1 -46.35395367290262 -3.9910868430608186 12.376280855738163 #
straight-curve $-1 -46.35395367290262 -3.7926361982945078 6.285573451251099 0 -1 0 I I #
point $-1 -46.35395367290262 -3.9910868430608186 6.2855734512511008 #
point $-1 -38.032025375804444 -7.5852723965890156 3.7373756053936709 #
point $-1 -46.35395367290262 -28.406668170353907 12.376280855738163 #
straight-curve $-1 -46.35395367290262 -28.406668170353907 0 0 0 -1 I I #
point $-1 -46.35395367290262 -28.406668170353907 -12.376280855738163 #
straight-curve $-1 0 28.406668170353907 12.376280855738163 -1 0 0 I I #
End-of-ACIS-data 