500 0 5 0           
7 Unknown 11 ACIS 5.0 NT 24 Fri Mar 26 01:51:03 1999 
-1 9.9999999999999995e-007 1e-010 
body $-1 $5 $-1 $6 #
body $-1 $7 $-1 $8 #
body $-1 $9 $-1 $10 #
body $-1 $11 $-1 $12 #
body $-1 $13 $-1 $14 #
lump $-1 $-1 $15 $0 #
transform $-1 1 0 0 0 1 0 0 0 1 79.287087618640697 53.289091867055276 25.939055407940049 1 rotate no_reflect no_shear #
lump $-1 $-1 $16 $1 #
transform $-1 1 0 0 0 1 0 0 0 1 79.287087618640697 53.289091867055276 25.939055407940049 1 rotate no_reflect no_shear #
lump $-1 $-1 $17 $2 #
transform $-1 1 0 0 0 1 0 0 0 1 79.287087618640697 53.289091867055276 25.939055407940049 1 rotate no_reflect no_shear #
lump $-1 $-1 $18 $3 #
transform $-1 1 0 0 0 1 0 0 0 1 79.287087618640697 53.289091867055276 25.939055407940049 1 rotate no_reflect no_shear #
lump $-1 $-1 $19 $4 #
transform $-1 1 0 0 0 1 0 0 0 1 79.287087618640697 53.289091867055276 25.939055407940049 1 rotate no_reflect no_shear #
shell $-1 $-1 $-1 $20 $-1 $5 #
shell $-1 $-1 $-1 $21 $-1 $7 #
shell $-1 $-1 $-1 $22 $-1 $9 #
shell $-1 $-1 $-1 $23 $-1 $11 #
shell $-1 $-1 $-1 $24 $-1 $13 #
face $-1 $25 $26 $15 $-1 $27 forward single #
face $-1 $28 $29 $16 $-1 $30 forward single #
face $-1 $31 $32 $17 $-1 $33 reversed single #
face $-1 $34 $35 $18 $-1 $36 forward single #
face $-1 $37 $38 $19 $-1 $39 forward single #
face $-1 $40 $41 $15 $-1 $42 reversed single #
loop $-1 $-1 $43 $20 #
plane-surface $-1 0 0 25.939055407940049 0 0 1 1 0 0 forward_v I I I I #
face $-1 $44 $45 $16 $-1 $46 reversed single #
loop $-1 $-1 $47 $21 #
plane-surface $-1 0 -53.289091867055276 0 0 1 0 0 0 1 forward_v I I I I #
face $-1 $48 $49 $17 $-1 $50 reversed single #
loop $-1 $-1 $51 $22 #
plane-surface $-1 47.921176733744552 128.23394891509955 180.28889707745029 1 0 0 0 -0.83867057594974714 -0.54463902268945019 forward_v I I I I #
face $-1 $52 $53 $18 $-1 $54 forward single #
loop $-1 $55 $56 $23 #
cone-surface $-1 56.882865558000589 45.134156795456811 14.455741380371691 0 -0.83867057594974714 -0.54463902268945019 1.5 0 0 1 I I 0 1 1.5 forward I I I I #
face $-1 $57 $58 $19 $-1 $59 forward single #
loop $-1 $60 $61 $24 #
cone-surface $-1 70.325398794384654 45.134156795456811 14.455741380371691 0 -0.83867057594974714 -0.54463902268945019 1.5 0 0 1 I I 0 1 1.5 forward I I I I #
face $-1 $62 $63 $15 $-1 $64 reversed single #
loop $-1 $-1 $65 $25 #
plane-surface $-1 0 0 -25.939055407940049 0 0 1 1 0 0 forward_v I I I I #
coedge $-1 $66 $67 $68 $69 forward $26 $-1 #
face $-1 $70 $71 $16 $-1 $72 forward single #
loop $-1 $-1 $73 $28 #
plane-surface $-1 -79.287087618640697 0 0 1 0 0 0 0 -1 forward_v I I I I #
coedge $-1 $74 $75 $76 $77 forward $29 $-1 #
face $-1 $78 $79 $17 $-1 $80 forward single #
loop $-1 $-1 $81 $31 #
plane-surface $-1 63.604132176192621 -4.7575459619073683 93.923213252431736 0 0.83867057594974714 0.54463902268945019 1 0 0 forward_v I I I I #
coedge $-1 $82 $83 $84 $85 reversed $32 $-1 #
face $-1 $-1 $86 $18 $-1 $87 forward single #
loop $-1 $88 $89 $34 #
cone-surface $-1 56.882865558000589 43.298824255951075 13.263862531522644 0 -0.83867057594974714 -0.54463902268945019 0.75 0 0 1 I I -0.70710678118654757 0.70710678118654757 0.75 forward I I I I #
loop $-1 $-1 $90 $23 #
coedge $-1 $56 $56 $91 $92 reversed $35 $-1 #
face $-1 $-1 $93 $19 $-1 $94 forward single #
loop $-1 $95 $96 $37 #
cone-surface $-1 70.325398794384654 43.298824255951075 13.263862531522644 0 -0.83867057594974714 -0.54463902268945019 0.75 0 0 1 I I -0.70710678118654757 0.70710678118654757 0.75 forward I I I I #
loop $-1 $-1 $97 $24 #
coedge $-1 $61 $61 $98 $99 reversed $38 $-1 #
face $-1 $100 $101 $15 $-1 $102 reversed single #
loop $-1 $-1 $103 $40 #
plane-surface $-1 0 -53.289091867055276 0 0 1 0 0 0 1 forward_v I I I I #
coedge $-1 $104 $105 $106 $107 forward $41 $-1 #
coedge $-1 $108 $43 $109 $110 forward $26 $-1 #
coedge $-1 $43 $108 $111 $112 forward $26 $-1 #
coedge $-1 $113 $114 $43 $69 reversed $115 $-1 #
edge $-1 $116 -53.289091867055276 $117 53.289091867055276 $68 $118 forward 7 unknown #
face $-1 $119 $120 $16 $-1 $121 reversed single #
loop $-1 $-1 $122 $44 #
plane-surface $-1 0 -65.245819269230253 4.5561572356523694 0 0 1 1 0 0 forward_v I I I I #
coedge $-1 $123 $124 $75 $125 forward $45 $-1 #
coedge $-1 $126 $47 $127 $128 reversed $29 $-1 #
coedge $-1 $47 $126 $73 $125 reversed $29 $-1 #
coedge $-1 $129 $122 $47 $77 reversed $71 $-1 #
edge $-1 $130 -79.287087618640697 $131 79.287087618640697 $76 $132 forward 7 unknown #
face $-1 $133 $134 $17 $-1 $135 reversed single #
loop $-1 $-1 $84 $48 #
plane-surface $-1 0 0 25.939055407940049 0 0 1 1 0 0 forward_v I I I I #
coedge $-1 $136 $137 $138 $139 reversed $49 $-1 #
coedge $-1 $83 $51 $140 $141 reversed $32 $-1 #
coedge $-1 $51 $82 $136 $142 reversed $32 $-1 #
coedge $-1 $138 $143 $51 $85 forward $79 $-1 #
edge $-1 $144 10.827882590494497 $145 24.725093518604588 $84 $146 forward 7 unknown #
loop $-1 $-1 $91 $52 #
plane-surface $-1 63.604132176192621 -4.7575459619073683 93.923213252431736 0 0.83867057594974714 0.54463902268945019 1 0 0 forward_v I I I I #
loop $-1 $-1 $147 $34 #
coedge $-1 $89 $89 $90 $148 reversed $53 $-1 #
coedge $-1 $90 $90 $89 $148 forward $55 $-1 #
coedge $-1 $91 $91 $56 $92 forward $86 $-1 #
edge $-1 $149 2.1803009219287615e-015 $149 6.2831853071796022 $91 $150 forward 7 unknown #
loop $-1 $-1 $98 $57 #
plane-surface $-1 63.604132176192621 -4.7575459619073683 93.923213252431736 0 0.83867057594974714 0.54463902268945019 1 0 0 forward_v I I I I #
loop $-1 $-1 $151 $37 #
coedge $-1 $96 $96 $97 $152 reversed $58 $-1 #
coedge $-1 $97 $97 $96 $152 forward $60 $-1 #
coedge $-1 $98 $98 $61 $99 forward $93 $-1 #
edge $-1 $153 2.1803009219287615e-015 $153 6.2831853071796022 $98 $154 forward 7 unknown #
face $-1 $155 $156 $15 $-1 $157 reversed single #
loop $-1 $-1 $158 $62 #
plane-surface $-1 -79.287087618640697 0 0 1 0 0 0 0 -1 forward_v I I I I #
coedge $-1 $159 $111 $160 $161 forward $63 $-1 #
coedge $-1 $162 $65 $159 $163 forward $41 $-1 #
coedge $-1 $65 $162 $164 $165 forward $41 $-1 #
coedge $-1 $114 $113 $65 $107 reversed $115 $-1 #
edge $-1 $166 -53.289091867055276 $167 53.289091867055276 $106 $168 forward 7 unknown #
coedge $-1 $67 $66 $169 $170 forward $26 $-1 #
coedge $-1 $171 $172 $66 $110 reversed $156 $-1 #
edge $-1 $117 -79.287087618640697 $173 79.287087618640697 $109 $174 forward 7 unknown #
coedge $-1 $103 $175 $67 $112 reversed $63 $-1 #
edge $-1 $176 -79.287087618640697 $116 79.287087618640697 $111 $177 forward 7 unknown #
coedge $-1 $106 $68 $175 $178 forward $115 $-1 #
coedge $-1 $68 $106 $171 $179 reversed $115 $-1 #
loop $-1 $-1 $113 $155 #
vertex $-1 $69 $180 #
vertex $-1 $69 $181 #
straight-curve $-1 79.287087618640697 0 25.939055407940049 0 1 0 I I #
face $-1 $182 $183 $16 $-1 $184 reversed single #
loop $-1 $-1 $185 $70 #
plane-surface $-1 0 -65.245819269230253 -8.0101977360179699 0 0 1 1 0 0 forward_v I I I I #
coedge $-1 $76 $186 $187 $188 forward $71 $-1 #
coedge $-1 $189 $73 $190 $191 reversed $45 $-1 #
coedge $-1 $73 $189 $129 $192 reversed $45 $-1 #
edge $-1 $130 -4.5561572356523694 $193 8.0101977360179699 $73 $194 forward 7 unknown #
coedge $-1 $75 $74 $195 $196 forward $29 $-1 #
coedge $-1 $187 $197 $74 $128 forward $198 $-1 #
edge $-1 $199 -8.0101977360179699 $131 4.5561572356523694 $127 $200 forward 7 unknown #
coedge $-1 $186 $76 $124 $192 forward $71 $-1 #
vertex $-1 $125 $201 #
vertex $-1 $188 $202 #
straight-curve $-1 0 -53.289091867055276 4.5561572356523694 1 0 0 I I #
face $-1 $-1 $203 $17 $-1 $204 reversed single #
loop $-1 $-1 $205 $78 #
plane-surface $-1 79.287087618640697 0 0 -1 0 0 0 0 1 forward_v I I I I #
coedge $-1 $206 $81 $83 $142 forward $49 $-1 #
coedge $-1 $81 $206 $205 $207 reversed $49 $-1 #
coedge $-1 $208 $84 $81 $139 forward $79 $-1 #
edge $-1 $145 16.119110645648242 $209 47.485021530544387 $138 $210 forward 7 unknown #
coedge $-1 $211 $212 $82 $141 forward $203 $-1 #
edge $-1 $213 -85.605222022257905 $144 -64.205393130785097 $140 $214 forward 7 unknown #
edge $-1 $145 81.06181353447802 $213 106.57818373411058 $83 $215 forward 7 unknown #
coedge $-1 $84 $208 $211 $216 forward $79 $-1 #
vertex $-1 $141 $217 #
vertex $-1 $85 $218 #
straight-curve $-1 47.921176733744552 64.116974457549773 25.939055407940046 0 -1 0 I I #
coedge $-1 $147 $147 $-1 $219 reversed $88 $-1 #
edge $-1 $220 0 $220 6.2831853071796004 $89 $221 forward 7 unknown #
vertex $-1 $92 $222 #
ellipse-curve $-1 56.882865558000589 46.340486403000227 15.239140962203644 0 0.83867057594974714 0.54463902268945019 1.5 0 0 1 I I #
coedge $-1 $151 $151 $-1 $223 reversed $95 $-1 #
edge $-1 $224 0 $224 6.2831853071796004 $96 $225 forward 7 unknown #
vertex $-1 $99 $226 #
ellipse-curve $-1 70.325398794384654 46.340486403000227 15.239140962203644 0 0.83867057594974714 0.54463902268945019 1.5 0 0 1 I I #
face $-1 $-1 $115 $15 $-1 $227 reversed single #
loop $-1 $-1 $171 $100 #
plane-surface $-1 0 53.289091867055276 0 0 -1 0 0 0 -1 forward_v I I I I #
coedge $-1 $228 $169 $172 $229 forward $101 $-1 #
coedge $-1 $175 $103 $104 $163 reversed $63 $-1 #
coedge $-1 $169 $228 $103 $161 reversed $101 $-1 #
edge $-1 $176 -25.939055407940049 $230 25.939055407940049 $160 $231 forward 7 unknown #
coedge $-1 $105 $104 $228 $232 forward $41 $-1 #
edge $-1 $167 -79.287087618640697 $230 79.287087618640697 $159 $233 forward 7 unknown #
coedge $-1 $172 $171 $105 $165 reversed $156 $-1 #
edge $-1 $234 -79.287087618640697 $166 79.287087618640697 $164 $235 forward 7 unknown #
vertex $-1 $107 $236 #
vertex $-1 $178 $237 #
straight-curve $-1 79.287087618640697 0 -25.939055407940049 0 -1 0 I I #
coedge $-1 $158 $160 $108 $170 reversed $101 $-1 #
edge $-1 $173 -53.289091867055276 $176 53.289091867055276 $169 $238 forward 7 unknown #
coedge $-1 $164 $109 $114 $179 forward $156 $-1 #
coedge $-1 $109 $164 $158 $229 reversed $156 $-1 #
vertex $-1 $110 $239 #
straight-curve $-1 0 53.289091867055276 25.939055407940049 -1 0 0 I I #
coedge $-1 $111 $159 $113 $178 reversed $63 $-1 #
vertex $-1 $170 $240 #
straight-curve $-1 0 -53.289091867055276 25.939055407940049 1 0 0 I I #
edge $-1 $116 -25.939055407940049 $167 25.939055407940049 $113 $241 forward 7 unknown #
edge $-1 $117 -25.939055407940049 $166 25.939055407940049 $114 $242 forward 7 unknown #
point $-1 79.287087618640697 -53.289091867055276 25.939055407940049 #
point $-1 79.287087618640697 53.289091867055276 25.939055407940049 #
face $-1 $-1 $198 $16 $-1 $243 reversed single #
loop $-1 $-1 $244 $119 #
plane-surface $-1 0 -77.20254667140523 -1.7270202501828003 0 1 0 0 0 1 forward_v I I I I #
coedge $-1 $245 $195 $197 $246 forward $120 $-1 #
coedge $-1 $122 $129 $247 $248 forward $71 $-1 #
coedge $-1 $249 $127 $122 $188 reversed $198 $-1 #
edge $-1 $250 -11.956727402174977 $131 11.956727402174977 $187 $251 forward 7 unknown #
coedge $-1 $124 $123 $244 $252 reversed $45 $-1 #
coedge $-1 $195 $245 $123 $191 forward $120 $-1 #
edge $-1 $253 -11.956727402174977 $193 11.956727402174977 $123 $254 forward 7 unknown #
edge $-1 $130 -11.956727402174977 $255 11.956727402174977 $124 $256 forward 7 unknown #
vertex $-1 $125 $257 #
straight-curve $-1 -79.287087618640697 -53.289091867055276 0 0 0 -1 I I #
coedge $-1 $185 $190 $126 $196 reversed $120 $-1 #
edge $-1 $199 -79.287087618640697 $193 79.287087618640697 $195 $258 forward 7 unknown #
coedge $-1 $127 $249 $185 $246 reversed $198 $-1 #
loop $-1 $-1 $127 $182 #
vertex $-1 $128 $259 #
straight-curve $-1 79.287087618640697 -53.289091867055276 0 0 0 1 I I #
point $-1 -79.287087618640697 -53.289091867055276 4.5561572356523694 #
point $-1 79.287087618640697 -53.289091867055276 4.5561572356523694 #
loop $-1 $-1 $140 $133 #
plane-surface $-1 0 53.289091867055276 0 0 -1 0 0 0 -1 forward_v I I I I #
coedge $-1 $260 $261 $137 $207 forward $134 $-1 #
coedge $-1 $137 $136 $212 $262 reversed $49 $-1 #
edge $-1 $209 40.380923266197414 $263 65.897293465829975 $205 $264 forward 7 unknown #
coedge $-1 $143 $138 $261 $265 forward $79 $-1 #
vertex $-1 $265 $266 #
straight-curve $-1 31.802066088096311 39.391880938945192 25.939055407940046 1 0 0 I I #
coedge $-1 $267 $140 $143 $216 reversed $203 $-1 #
coedge $-1 $140 $267 $206 $262 forward $203 $-1 #
vertex $-1 $141 $268 #
straight-curve $-1 47.921176733744552 53.289091867055276 90.144448538725143 0 0 1 I I #
straight-curve $-1 47.921176733744552 -4.7575459619073683 93.923213252431736 0 0.54463902268945019 -0.83867057594974714 I I #
edge $-1 $269 -79.287087618640697 $144 -47.921176733744552 $211 $270 forward 7 unknown #
point $-1 47.921176733744552 53.289091867055276 25.939055407940049 #
point $-1 47.921176733744552 39.391880938945185 25.939055407940046 #
edge $-1 $271 1 $271 0 $147 $-1 forward 7 unknown #
vertex $-1 $148 $272 #
ellipse-curve $-1 56.882865558000589 43.927827187913387 13.672341798539732 0 0.83867057594974714 0.54463902268945019 1.5 0 0 1 I I #
point $-1 58.382865558000589 46.340486403000241 15.239140962203649 #
edge $-1 $273 1 $273 0 $151 $-1 forward 7 unknown #
vertex $-1 $152 $274 #
ellipse-curve $-1 70.325398794384654 43.927827187913387 13.672341798539732 0 0.83867057594974714 0.54463902268945019 1.5 0 0 1 I I #
point $-1 71.825398794384654 46.340486403000241 15.239140962203649 #
plane-surface $-1 79.287087618640697 0 0 -1 0 0 0 0 1 forward_v I I I I #
coedge $-1 $160 $158 $162 $232 reversed $101 $-1 #
edge $-1 $173 -25.939055407940049 $234 25.939055407940049 $172 $275 forward 7 unknown #
vertex $-1 $232 $276 #
straight-curve $-1 -79.287087618640697 -53.289091867055276 0 0 0 -1 I I #
edge $-1 $230 -53.289091867055276 $234 53.289091867055276 $228 $277 forward 7 unknown #
straight-curve $-1 0 -53.289091867055276 -25.939055407940049 -1 0 0 I I #
vertex $-1 $165 $278 #
straight-curve $-1 0 53.289091867055276 -25.939055407940049 1 0 0 I I #
point $-1 79.287087618640697 53.289091867055276 -25.939055407940049 #
point $-1 79.287087618640697 -53.289091867055276 -25.939055407940049 #
straight-curve $-1 -79.287087618640697 0 25.939055407940049 0 -1 0 I I #
point $-1 -79.287087618640697 53.289091867055276 25.939055407940049 #
point $-1 -79.287087618640697 -53.289091867055276 25.939055407940049 #
straight-curve $-1 79.287087618640697 -53.289091867055276 0 0 0 -1 I I #
straight-curve $-1 79.287087618640697 53.289091867055276 0 0 0 -1 I I #
plane-surface $-1 79.287087618640697 0 0 -1 0 0 0 0 1 forward_v I I I I #
coedge $-1 $279 $247 $189 $252 forward $183 $-1 #
coedge $-1 $190 $185 $279 $280 forward $120 $-1 #
edge $-1 $199 -11.956727402174977 $281 11.956727402174977 $197 $282 forward 7 unknown #
coedge $-1 $244 $283 $186 $248 reversed $183 $-1 #
edge $-1 $255 -79.287087618640697 $250 79.287087618640697 $247 $284 forward 7 unknown #
coedge $-1 $197 $187 $283 $285 forward $198 $-1 #
vertex $-1 $188 $286 #
straight-curve $-1 79.287087618640697 -65.245819269230253 4.5561572356523694 0 1 0 I I #
edge $-1 $255 -6.2831774858351697 $253 6.2831774858351697 $189 $287 forward 7 unknown #
vertex $-1 $191 $288 #
straight-curve $-1 -79.287087618640697 -65.245819269230253 -8.0101977360179699 0 1 0 I I #
vertex $-1 $192 $289 #
straight-curve $-1 -79.287087618640697 -65.245819269230253 4.5561572356523694 0 -1 0 I I #
point $-1 -79.287087618640697 -53.289091867055276 -8.0101977360179699 #
straight-curve $-1 0 -53.289091867055276 -8.0101977360179699 -1 0 0 I I #
point $-1 79.287087618640697 -53.289091867055276 -8.0101977360179699 #
coedge $-1 $261 $205 $267 $290 reversed $134 $-1 #
coedge $-1 $205 $260 $208 $265 reversed $134 $-1 #
edge $-1 $263 -47.485021530544387 $213 -16.119110645648242 $212 $291 forward 7 unknown #
vertex $-1 $207 $292 #
straight-curve $-1 79.287087618640697 17.398854355945748 59.805347580984375 0 0.54463902268945019 -0.83867057594974714 I I #
edge $-1 $209 39.391880938945185 $269 53.289091867055276 $261 $293 forward 7 unknown #
point $-1 79.287087618640697 39.391880938945185 25.939055407940046 #
coedge $-1 $212 $211 $260 $290 forward $203 $-1 #
point $-1 47.921176733744552 53.289091867055276 4.5392265164672381 #
vertex $-1 $265 $294 #
straight-curve $-1 0 53.289091867055276 25.939055407940049 -1 0 0 I I #
vertex $-1 $219 $295 #
point $-1 58.382865558000589 43.927827187913387 13.672341798539732 #
vertex $-1 $223 $296 #
point $-1 71.825398794384654 43.927827187913387 13.672341798539732 #
straight-curve $-1 -79.287087618640697 53.289091867055276 0 0 0 -1 I I #
point $-1 -79.287087618640697 -53.289091867055276 -25.939055407940049 #
straight-curve $-1 -79.287087618640697 0 -25.939055407940049 0 1 0 I I #
point $-1 -79.287087618640697 53.289091867055276 -25.939055407940049 #
coedge $-1 $283 $244 $245 $280 reversed $183 $-1 #
edge $-1 $281 -79.287087618640697 $253 79.287087618640697 $279 $297 forward 7 unknown #
vertex $-1 $285 $298 #
straight-curve $-1 79.287087618640697 -65.245819269230253 -8.0101977360179699 0 -1 0 I I #
coedge $-1 $247 $279 $249 $285 reversed $183 $-1 #
straight-curve $-1 0 -77.20254667140523 4.5561572356523694 1 0 0 I I #
edge $-1 $250 -6.2831774858351697 $281 6.2831774858351697 $249 $299 forward 7 unknown #
point $-1 79.287087618640697 -77.20254667140523 4.5561572356523694 #
straight-curve $-1 -79.287087618640697 -77.20254667140523 -1.7270202501828003 0 0 -1 I I #
point $-1 -79.287087618640697 -77.20254667140523 -8.0101977360179699 #
point $-1 -79.287087618640697 -77.20254667140523 4.5561572356523694 #
edge $-1 $269 -25.939055407940049 $263 -4.5392265164672381 $260 $300 forward 7 unknown #
straight-curve $-1 31.802066088096311 53.289091867055276 4.5392265164672452 -1 0 0 I I #
point $-1 79.287087618640697 53.289091867055276 4.5392265164672381 #
straight-curve $-1 79.287087618640697 0 25.939055407940049 0 1 0 I I #
point $-1 79.287087618640697 53.289091867055276 25.939055407940049 #
point $-1 56.882865558000589 42.669821323988764 12.855383264505557 #
point $-1 70.325398794384654 42.669821323988764 12.855383264505557 #
straight-curve $-1 0 -77.20254667140523 -8.0101977360179699 -1 0 0 I I #
point $-1 79.287087618640697 -77.20254667140523 -8.0101977360179699 #
straight-curve $-1 79.287087618640697 -77.20254667140523 -1.7270202501828003 0 0 -1 I I #
straight-curve $-1 79.287087618640697 53.289091867055276 0 0 0 -1 I I #
End-of-ACIS-data 