500 0 10 0           
7 Unknown 11 ACIS 5.0 NT 24 Thu Mar 25 23:26:01 1999 
-1 9.9999999999999995e-007 1e-010 
body $-1 $10 $-1 $11 #
body $-1 $12 $-1 $13 #
body $-1 $14 $-1 $15 #
body $-1 $16 $-1 $17 #
body $-1 $18 $-1 $19 #
body $-1 $20 $-1 $21 #
body $-1 $22 $-1 $23 #
body $-1 $24 $-1 $25 #
body $-1 $26 $-1 $27 #
body $-1 $28 $-1 $29 #
lump $-1 $-1 $30 $0 #
transform $-1 1 0 0 0 1 0 0 0 1 47.784661397137363 30.351798431119121 14.436996367923106 1 rotate no_reflect no_shear #
lump $-1 $-1 $31 $1 #
transform $-1 1 0 0 0 1 0 0 0 1 47.784661397137363 30.351798431119121 14.436996367923106 1 rotate no_reflect no_shear #
lump $-1 $-1 $32 $2 #
transform $-1 1 0 0 0 1 0 0 0 1 47.784661397137363 30.351798431119121 14.436996367923106 1 rotate no_reflect no_shear #
lump $-1 $-1 $33 $3 #
transform $-1 1 0 0 0 1 0 0 0 1 47.784661397137363 30.351798431119121 14.436996367923106 1 rotate no_reflect no_shear #
lump $-1 $-1 $34 $4 #
transform $-1 1 0 0 0 1 0 0 0 1 47.784661397137363 30.351798431119121 14.436996367923106 1 rotate no_reflect no_shear #
lump $-1 $-1 $35 $5 #
transform $-1 1 0 0 0 1 0 0 0 1 47.784661397137363 30.351798431119121 14.436996367923106 1 rotate no_reflect no_shear #
lump $-1 $-1 $36 $6 #
transform $-1 1 0 0 0 1 0 0 0 1 47.784661397137363 30.351798431119121 14.436996367923106 1 rotate no_reflect no_shear #
lump $-1 $-1 $37 $7 #
transform $-1 1 0 0 0 1 0 0 0 1 47.784661397137363 30.351798431119121 14.436996367923106 1 rotate no_reflect no_shear #
lump $-1 $-1 $38 $8 #
transform $-1 1 0 0 0 1 0 0 0 1 47.784661397137363 30.351798431119121 14.436996367923106 1 rotate no_reflect no_shear #
lump $-1 $-1 $39 $9 #
transform $-1 1 0 0 0 1 0 0 0 1 47.784661397137363 30.351798431119121 14.436996367923106 1 rotate no_reflect no_shear #
shell $-1 $-1 $-1 $40 $-1 $10 #
shell $-1 $-1 $-1 $41 $-1 $12 #
shell $-1 $-1 $-1 $42 $-1 $14 #
shell $-1 $-1 $-1 $43 $-1 $16 #
shell $-1 $-1 $-1 $44 $-1 $18 #
shell $-1 $-1 $-1 $45 $-1 $20 #
shell $-1 $-1 $-1 $46 $-1 $22 #
shell $-1 $-1 $-1 $47 $-1 $24 #
shell $-1 $-1 $-1 $48 $-1 $26 #
shell $-1 $-1 $-1 $49 $-1 $28 #
face $-1 $50 $51 $30 $-1 $52 forward single #
face $-1 $53 $54 $31 $-1 $55 reversed single #
face $-1 $56 $57 $32 $-1 $58 reversed single #
face $-1 $59 $60 $33 $-1 $61 forward single #
face $-1 $62 $63 $34 $-1 $64 reversed single #
face $-1 $65 $66 $35 $-1 $67 forward single #
face $-1 $68 $69 $36 $-1 $70 reversed single #
face $-1 $71 $72 $37 $-1 $73 forward single #
face $-1 $74 $75 $38 $-1 $76 reversed single #
face $-1 $77 $78 $39 $-1 $79 forward single #
face $-1 $80 $81 $30 $-1 $82 reversed single #
loop $-1 $-1 $83 $40 #
plane-surface $-1 0 0 14.436996367923106 0 0 1 1 0 0 forward_v I I I I #
face $-1 $84 $85 $31 $-1 $86 reversed single #
loop $-1 $-1 $87 $41 #
plane-surface $-1 0 -21.942352688261394 9.3069654371001462 0 0 1 1 0 0 forward_v I I I I #
face $-1 $88 $89 $32 $-1 $90 reversed single #
loop $-1 $-1 $91 $42 #
plane-surface $-1 -42.955090830469629 73.819453289926912 112.09780613762578 1 0 0 0 -0.81915205242281985 -0.57357642473473569 forward_v I I I I #
face $-1 $92 $93 $33 $-1 $94 forward single #
loop $-1 $95 $96 $43 #
cone-surface $-1 -36.42314476082889 26.046027020049507 9.6684134999641422 0 -0.81915205242281985 -0.57357642473473569 1.5 0 0 1 I I 0 1 1.5 forward I I I I #
face $-1 $97 $98 $34 $-1 $99 reversed single #
loop $-1 $-1 $100 $44 #
plane-surface $-1 -19.062760131900948 73.819453289926912 112.09780613762578 1 0 0 0 -0.81915205242281985 -0.57357642473473569 forward_v I I I I #
face $-1 $101 $102 $35 $-1 $103 forward single #
loop $-1 $104 $105 $45 #
cone-surface $-1 -12.530814062260212 26.046027020049507 9.6684134999641422 0 -0.81915205242281985 -0.57357642473473569 1.5 0 0 1 I I 0 1 1.5 forward I I I I #
face $-1 $106 $107 $36 $-1 $108 reversed single #
loop $-1 $-1 $109 $46 #
plane-surface $-1 4.8295705666677371 73.819453289926912 112.09780613762578 1 0 0 0 -0.81915205242281985 -0.57357642473473569 forward_v I I I I #
face $-1 $110 $111 $37 $-1 $112 forward single #
loop $-1 $113 $114 $47 #
cone-surface $-1 11.361516636308473 26.046027020049507 9.6684134999641422 0 -0.81915205242281985 -0.57357642473473569 1.5 0 0 1 I I 0 1 1.5 forward I I I I #
face $-1 $115 $116 $38 $-1 $117 reversed single #
loop $-1 $-1 $118 $48 #
plane-surface $-1 28.721901265236422 73.819453289926912 112.09780613762578 1 0 0 0 -0.81915205242281985 -0.57357642473473569 forward_v I I I I #
face $-1 $119 $120 $39 $-1 $121 forward single #
loop $-1 $122 $123 $49 #
cone-surface $-1 35.253847334877157 26.046027020049507 9.6684134999641422 0 -0.81915205242281985 -0.57357642473473569 1.5 0 0 1 I I 0 1 1.5 forward I I I I #
face $-1 $124 $125 $30 $-1 $126 reversed single #
loop $-1 $-1 $127 $50 #
plane-surface $-1 0 0 -14.436996367923106 0 0 1 1 0 0 forward_v I I I I #
coedge $-1 $128 $129 $130 $131 forward $51 $-1 #
face $-1 $132 $133 $31 $-1 $134 reversed single #
loop $-1 $-1 $135 $53 #
plane-surface $-1 0 -13.532906945403669 11.871980902511625 0 -1 0 0 0 -1 forward_v I I I I #
coedge $-1 $136 $137 $138 $139 reversed $54 $-1 #
face $-1 $140 $141 $32 $-1 $142 reversed single #
loop $-1 $-1 $143 $56 #
plane-surface $-1 -36.42314476082889 -4.4663536256622081 57.281495654965802 0 0.81915205242281985 0.57357642473473569 1 0 0 forward_v I I I I #
coedge $-1 $144 $145 $146 $147 reversed $57 $-1 #
face $-1 $-1 $148 $33 $-1 $149 forward single #
loop $-1 $150 $151 $59 #
cone-surface $-1 -36.42314476082889 23.534947364979999 7.910136649507729 0 -0.81915205242281985 -0.57357642473473569 0.75 0 0 1 I I -0.70710678118654757 0.70710678118654757 0.75 forward I I I I #
loop $-1 $-1 $152 $43 #
coedge $-1 $96 $96 $153 $154 reversed $60 $-1 #
face $-1 $155 $156 $34 $-1 $157 reversed single #
loop $-1 $-1 $158 $62 #
plane-surface $-1 -12.530814062260212 -4.4663536256622081 57.281495654965802 0 0.81915205242281985 0.57357642473473569 1 0 0 forward_v I I I I #
coedge $-1 $159 $160 $161 $162 reversed $63 $-1 #
face $-1 $-1 $163 $35 $-1 $164 forward single #
loop $-1 $165 $166 $65 #
cone-surface $-1 -12.530814062260212 23.534947364979999 7.910136649507729 0 -0.81915205242281985 -0.57357642473473569 0.75 0 0 1 I I -0.70710678118654757 0.70710678118654757 0.75 forward I I I I #
loop $-1 $-1 $167 $45 #
coedge $-1 $105 $105 $168 $169 reversed $66 $-1 #
face $-1 $170 $171 $36 $-1 $172 reversed single #
loop $-1 $-1 $173 $68 #
plane-surface $-1 11.361516636308473 -4.4663536256622081 57.281495654965802 0 0.81915205242281985 0.57357642473473569 1 0 0 forward_v I I I I #
coedge $-1 $174 $175 $176 $177 reversed $69 $-1 #
face $-1 $-1 $178 $37 $-1 $179 forward single #
loop $-1 $180 $181 $71 #
cone-surface $-1 11.361516636308473 23.534947364979999 7.910136649507729 0 -0.81915205242281985 -0.57357642473473569 0.75 0 0 1 I I -0.70710678118654757 0.70710678118654757 0.75 forward I I I I #
loop $-1 $-1 $182 $47 #
coedge $-1 $114 $114 $183 $184 reversed $72 $-1 #
face $-1 $185 $186 $38 $-1 $187 reversed single #
loop $-1 $-1 $188 $74 #
plane-surface $-1 35.253847334877157 -4.4663536256622081 57.281495654965802 0 0.81915205242281985 0.57357642473473569 1 0 0 forward_v I I I I #
coedge $-1 $189 $190 $191 $192 reversed $75 $-1 #
face $-1 $-1 $193 $39 $-1 $194 forward single #
loop $-1 $195 $196 $77 #
cone-surface $-1 35.253847334877157 23.534947364979999 7.910136649507729 0 -0.81915205242281985 -0.57357642473473569 0.75 0 0 1 I I -0.70710678118654757 0.70710678118654757 0.75 forward I I I I #
loop $-1 $-1 $197 $49 #
coedge $-1 $123 $123 $198 $199 reversed $78 $-1 #
face $-1 $200 $201 $30 $-1 $202 reversed single #
loop $-1 $-1 $203 $80 #
plane-surface $-1 0 -30.351798431119121 0 0 1 0 0 0 1 forward_v I I I I #
coedge $-1 $204 $205 $206 $207 forward $81 $-1 #
coedge $-1 $208 $83 $209 $210 forward $51 $-1 #
coedge $-1 $83 $208 $211 $212 forward $51 $-1 #
coedge $-1 $213 $214 $83 $131 reversed $215 $-1 #
edge $-1 $216 -30.351798431119121 $217 30.351798431119121 $130 $218 forward 7 unknown #
face $-1 $219 $220 $31 $-1 $221 reversed single #
loop $-1 $-1 $222 $84 #
plane-surface $-1 -47.784661397137363 0 0 1 0 0 0 0 -1 forward_v I I I I #
coedge $-1 $223 $224 $225 $226 reversed $85 $-1 #
coedge $-1 $227 $87 $228 $229 reversed $54 $-1 #
coedge $-1 $87 $227 $223 $230 forward $54 $-1 #
coedge $-1 $225 $231 $87 $139 forward $232 $-1 #
edge $-1 $233 -19.380622086988424 $234 -2.5617306012729717 $138 $235 forward 7 unknown #
face $-1 $236 $237 $32 $-1 $238 forward single #
loop $-1 $-1 $239 $88 #
plane-surface $-1 -29.891198691188155 73.819453289926912 112.09780613762578 -1 0 0 0 0.81915205242281985 0.57357642473473569 forward_v I I I I #
coedge $-1 $240 $241 $242 $243 reversed $89 $-1 #
coedge $-1 $145 $91 $244 $245 reversed $57 $-1 #
coedge $-1 $91 $144 $240 $246 reversed $57 $-1 #
coedge $-1 $242 $247 $91 $147 forward $237 $-1 #
edge $-1 $248 6.5579282138443347 $249 11.376039804478769 $146 $250 forward 7 unknown #
loop $-1 $-1 $153 $92 #
plane-surface $-1 -36.42314476082889 -4.4663536256622081 57.281495654965802 0 0.81915205242281985 0.57357642473473569 1 0 0 forward_v I I I I #
loop $-1 $-1 $251 $59 #
coedge $-1 $151 $151 $152 $252 reversed $93 $-1 #
coedge $-1 $152 $152 $151 $252 forward $95 $-1 #
coedge $-1 $153 $153 $96 $154 forward $148 $-1 #
edge $-1 $253 1.9320895500328186e-016 $253 6.2831853071796004 $153 $254 forward 7 unknown #
face $-1 $255 $256 $34 $-1 $257 forward single #
loop $-1 $-1 $258 $97 #
plane-surface $-1 -5.998867992619477 73.819453289926912 112.09780613762578 -1 0 0 0 0.81915205242281985 0.57357642473473569 forward_v I I I I #
coedge $-1 $259 $260 $261 $262 reversed $98 $-1 #
coedge $-1 $160 $100 $263 $264 reversed $63 $-1 #
coedge $-1 $100 $159 $259 $265 reversed $63 $-1 #
coedge $-1 $261 $266 $100 $162 forward $256 $-1 #
edge $-1 $267 6.5579282138443347 $268 11.376039804478769 $161 $269 forward 7 unknown #
loop $-1 $-1 $168 $101 #
plane-surface $-1 -12.530814062260212 -4.4663536256622081 57.281495654965802 0 0.81915205242281985 0.57357642473473569 1 0 0 forward_v I I I I #
loop $-1 $-1 $270 $65 #
coedge $-1 $166 $166 $167 $271 reversed $102 $-1 #
coedge $-1 $167 $167 $166 $271 forward $104 $-1 #
coedge $-1 $168 $168 $105 $169 forward $163 $-1 #
edge $-1 $272 1.9320895500328186e-016 $272 6.2831853071796004 $168 $273 forward 7 unknown #
face $-1 $274 $275 $36 $-1 $276 forward single #
loop $-1 $-1 $277 $106 #
plane-surface $-1 17.893462705949208 73.819453289926912 112.09780613762578 -1 0 0 0 0.81915205242281985 0.57357642473473569 forward_v I I I I #
coedge $-1 $278 $279 $280 $281 reversed $107 $-1 #
coedge $-1 $175 $109 $282 $283 reversed $69 $-1 #
coedge $-1 $109 $174 $278 $284 reversed $69 $-1 #
coedge $-1 $280 $285 $109 $177 forward $275 $-1 #
edge $-1 $286 6.5579282138443347 $287 11.376039804478769 $176 $288 forward 7 unknown #
loop $-1 $-1 $183 $110 #
plane-surface $-1 11.361516636308473 -4.4663536256622081 57.281495654965802 0 0.81915205242281985 0.57357642473473569 1 0 0 forward_v I I I I #
loop $-1 $-1 $289 $71 #
coedge $-1 $181 $181 $182 $290 reversed $111 $-1 #
coedge $-1 $182 $182 $181 $290 forward $113 $-1 #
coedge $-1 $183 $183 $114 $184 forward $178 $-1 #
edge $-1 $291 1.9320895500328186e-016 $291 6.2831853071796004 $183 $292 forward 7 unknown #
face $-1 $293 $294 $38 $-1 $295 forward single #
loop $-1 $-1 $296 $115 #
plane-surface $-1 41.785793404517889 73.819453289926912 112.09780613762578 -1 0 0 0 0.81915205242281985 0.57357642473473569 forward_v I I I I #
coedge $-1 $297 $298 $299 $300 reversed $116 $-1 #
coedge $-1 $190 $118 $301 $302 reversed $75 $-1 #
coedge $-1 $118 $189 $297 $303 reversed $75 $-1 #
coedge $-1 $299 $304 $118 $192 forward $294 $-1 #
edge $-1 $305 6.5579282138443347 $306 11.376039804478769 $191 $307 forward 7 unknown #
loop $-1 $-1 $198 $119 #
plane-surface $-1 35.253847334877157 -4.4663536256622081 57.281495654965802 0 0.81915205242281985 0.57357642473473569 1 0 0 forward_v I I I I #
loop $-1 $-1 $308 $77 #
coedge $-1 $196 $196 $197 $309 reversed $120 $-1 #
coedge $-1 $197 $197 $196 $309 forward $122 $-1 #
coedge $-1 $198 $198 $123 $199 forward $193 $-1 #
edge $-1 $310 1.9320895500328186e-016 $310 6.2831853071796004 $198 $311 forward 7 unknown #
face $-1 $312 $313 $30 $-1 $314 reversed single #
loop $-1 $-1 $315 $124 #
plane-surface $-1 -47.784661397137363 0 0 1 0 0 0 0 -1 forward_v I I I I #
coedge $-1 $316 $211 $317 $318 forward $125 $-1 #
coedge $-1 $319 $127 $316 $320 forward $81 $-1 #
coedge $-1 $127 $319 $321 $322 forward $81 $-1 #
coedge $-1 $214 $213 $127 $207 reversed $215 $-1 #
edge $-1 $323 -30.351798431119121 $324 30.351798431119121 $206 $325 forward 7 unknown #
coedge $-1 $129 $128 $326 $327 forward $51 $-1 #
coedge $-1 $328 $329 $128 $210 reversed $313 $-1 #
edge $-1 $217 -47.784661397137363 $330 47.784661397137363 $209 $331 forward 7 unknown #
coedge $-1 $203 $332 $129 $212 reversed $125 $-1 #
edge $-1 $333 -47.784661397137363 $216 47.784661397137363 $211 $334 forward 7 unknown #
coedge $-1 $206 $130 $332 $335 forward $215 $-1 #
coedge $-1 $130 $206 $328 $336 reversed $215 $-1 #
loop $-1 $-1 $213 $312 #
vertex $-1 $131 $337 #
vertex $-1 $131 $338 #
straight-curve $-1 47.784661397137363 0 14.436996367923106 0 1 0 I I #
face $-1 $339 $340 $31 $-1 $341 forward single #
loop $-1 $-1 $228 $132 #
plane-surface $-1 0 -30.351798431119121 0 0 1 0 0 0 1 forward_v I I I I #
coedge $-1 $342 $343 $344 $345 forward $133 $-1 #
coedge $-1 $344 $135 $137 $230 reversed $85 $-1 #
coedge $-1 $135 $344 $346 $347 reversed $85 $-1 #
coedge $-1 $348 $138 $135 $226 forward $232 $-1 #
edge $-1 $234 3.3709749858443336 $349 8.5010059166672924 $225 $350 forward 7 unknown #
coedge $-1 $137 $136 $342 $351 reversed $54 $-1 #
coedge $-1 $352 $353 $136 $229 forward $220 $-1 #
edge $-1 $354 -47.784661397137363 $233 47.784661397137363 $228 $355 forward 7 unknown #
edge $-1 $356 -47.784661397137363 $234 47.784661397137363 $223 $357 forward 7 unknown #
coedge $-1 $138 $348 $352 $358 forward $232 $-1 #
loop $-1 $-1 $225 $339 #
vertex $-1 $229 $359 #
vertex $-1 $139 $360 #
straight-curve $-1 47.784661397137363 -10.971176344130697 9.3069654371001462 0 1 0 I I #
face $-1 $-1 $361 $32 $-1 $362 reversed single #
loop $-1 $-1 $146 $140 #
plane-surface $-1 0 0 14.436996367923106 0 0 1 1 0 0 forward_v I I I I #
coedge $-1 $363 $364 $365 $366 reversed $141 $-1 #
coedge $-1 $367 $143 $145 $246 forward $89 $-1 #
coedge $-1 $143 $367 $363 $368 forward $89 $-1 #
coedge $-1 $365 $146 $143 $243 forward $237 $-1 #
edge $-1 $249 -24.743518450055184 $369 -11.67962631077371 $242 $370 forward 7 unknown #
coedge $-1 $371 $372 $144 $245 forward $361 $-1 #
edge $-1 $373 -48.492883372996992 $248 -41.611906700889783 $244 $374 forward 7 unknown #
edge $-1 $249 52.303475478479001 $373 60.70359686223825 $145 $375 forward 7 unknown #
coedge $-1 $146 $365 $371 $376 forward $237 $-1 #
vertex $-1 $245 $377 #
vertex $-1 $147 $378 #
straight-curve $-1 -42.955090830469629 36.909726644963456 14.436996367923108 0 -1 0 I I #
coedge $-1 $251 $251 $-1 $379 reversed $150 $-1 #
edge $-1 $380 0 $380 6.2831853071796004 $151 $381 forward 7 unknown #
vertex $-1 $154 $382 #
ellipse-curve $-1 -36.42314476082889 27.942742635801906 10.996508031869508 0 0.81915205242281985 0.57357642473473569 1.5 0 0 1 I I #
face $-1 $-1 $383 $34 $-1 $384 reversed single #
loop $-1 $-1 $161 $155 #
plane-surface $-1 0 0 14.436996367923106 0 0 1 1 0 0 forward_v I I I I #
coedge $-1 $385 $386 $387 $388 reversed $156 $-1 #
coedge $-1 $389 $158 $160 $265 forward $98 $-1 #
coedge $-1 $158 $389 $385 $390 forward $98 $-1 #
coedge $-1 $387 $161 $158 $262 forward $256 $-1 #
edge $-1 $268 -12.797353100770842 $391 0.26653903851062921 $261 $392 forward 7 unknown #
coedge $-1 $393 $394 $159 $264 forward $383 $-1 #
edge $-1 $395 -48.492883372996992 $267 -41.611906700889783 $263 $396 forward 7 unknown #
edge $-1 $268 52.303475478479001 $395 60.70359686223825 $160 $397 forward 7 unknown #
coedge $-1 $161 $387 $393 $398 forward $256 $-1 #
vertex $-1 $162 $399 #
vertex $-1 $162 $400 #
straight-curve $-1 -19.062760131900948 36.909726644963456 14.436996367923108 0 -1 0 I I #
coedge $-1 $270 $270 $-1 $401 reversed $165 $-1 #
edge $-1 $402 0 $402 6.2831853071796004 $166 $403 forward 7 unknown #
vertex $-1 $169 $404 #
ellipse-curve $-1 -12.530814062260212 27.942742635801906 10.996508031869508 0 0.81915205242281985 0.57357642473473569 1.5 0 0 1 I I #
face $-1 $-1 $405 $36 $-1 $406 reversed single #
loop $-1 $-1 $176 $170 #
plane-surface $-1 0 0 14.436996367923106 0 0 1 1 0 0 forward_v I I I I #
coedge $-1 $407 $408 $409 $410 reversed $171 $-1 #
coedge $-1 $411 $173 $175 $284 forward $107 $-1 #
coedge $-1 $173 $411 $407 $412 forward $107 $-1 #
coedge $-1 $409 $176 $173 $281 forward $275 $-1 #
edge $-1 $287 -0.85118775148649917 $413 12.212704387794972 $280 $414 forward 7 unknown #
coedge $-1 $415 $416 $174 $283 forward $405 $-1 #
edge $-1 $417 -48.492883372996992 $286 -41.611906700889783 $282 $418 forward 7 unknown #
edge $-1 $287 52.303475478479001 $417 60.70359686223825 $175 $419 forward 7 unknown #
coedge $-1 $176 $409 $415 $420 forward $275 $-1 #
vertex $-1 $177 $421 #
vertex $-1 $177 $422 #
straight-curve $-1 4.8295705666677371 36.909726644963456 14.436996367923108 0 -1 0 I I #
coedge $-1 $289 $289 $-1 $423 reversed $180 $-1 #
edge $-1 $424 0 $424 6.2831853071796004 $181 $425 forward 7 unknown #
vertex $-1 $184 $426 #
ellipse-curve $-1 11.361516636308473 27.942742635801906 10.996508031869508 0 0.81915205242281985 0.57357642473473569 1.5 0 0 1 I I #
face $-1 $-1 $427 $38 $-1 $428 reversed single #
loop $-1 $-1 $191 $185 #
plane-surface $-1 0 0 14.436996367923106 0 0 1 1 0 0 forward_v I I I I #
coedge $-1 $429 $430 $431 $432 reversed $186 $-1 #
coedge $-1 $433 $188 $190 $303 forward $116 $-1 #
coedge $-1 $188 $433 $429 $434 forward $116 $-1 #
coedge $-1 $431 $191 $188 $300 forward $294 $-1 #
edge $-1 $306 11.094977597797843 $435 24.158869737079311 $299 $436 forward 7 unknown #
coedge $-1 $437 $438 $189 $302 forward $427 $-1 #
edge $-1 $439 -48.492883372996992 $305 -41.611906700889783 $301 $440 forward 7 unknown #
edge $-1 $306 52.303475478479001 $439 60.70359686223825 $190 $441 forward 7 unknown #
coedge $-1 $191 $431 $437 $442 forward $294 $-1 #
vertex $-1 $192 $443 #
vertex $-1 $192 $444 #
straight-curve $-1 28.721901265236422 36.909726644963456 14.436996367923108 0 -1 0 I I #
coedge $-1 $308 $308 $-1 $445 reversed $195 $-1 #
edge $-1 $446 0 $446 6.2831853071796004 $196 $447 forward 7 unknown #
vertex $-1 $199 $448 #
ellipse-curve $-1 35.253847334877157 27.942742635801906 10.996508031869508 0 0.81915205242281985 0.57357642473473569 1.5 0 0 1 I I #
face $-1 $-1 $215 $30 $-1 $449 reversed single #
loop $-1 $-1 $328 $200 #
plane-surface $-1 0 30.351798431119121 0 0 -1 0 0 0 -1 forward_v I I I I #
coedge $-1 $450 $326 $329 $451 forward $201 $-1 #
coedge $-1 $332 $203 $204 $320 reversed $125 $-1 #
coedge $-1 $326 $450 $203 $318 reversed $201 $-1 #
edge $-1 $333 -14.436996367923106 $452 14.436996367923106 $317 $453 forward 7 unknown #
coedge $-1 $205 $204 $450 $454 forward $81 $-1 #
edge $-1 $324 -47.784661397137363 $452 47.784661397137363 $316 $455 forward 7 unknown #
coedge $-1 $329 $328 $205 $322 reversed $313 $-1 #
edge $-1 $456 -47.784661397137363 $323 47.784661397137363 $321 $457 forward 7 unknown #
vertex $-1 $207 $458 #
vertex $-1 $335 $459 #
straight-curve $-1 47.784661397137363 0 -14.436996367923106 0 -1 0 I I #
coedge $-1 $315 $317 $208 $327 reversed $201 $-1 #
edge $-1 $330 -30.351798431119121 $333 30.351798431119121 $326 $460 forward 7 unknown #
coedge $-1 $321 $209 $214 $336 forward $313 $-1 #
coedge $-1 $209 $321 $315 $451 reversed $313 $-1 #
vertex $-1 $210 $461 #
straight-curve $-1 0 30.351798431119121 14.436996367923106 -1 0 0 I I #
coedge $-1 $211 $316 $213 $335 reversed $125 $-1 #
vertex $-1 $327 $462 #
straight-curve $-1 0 -30.351798431119121 14.436996367923106 1 0 0 I I #
edge $-1 $216 -14.436996367923106 $324 14.436996367923106 $213 $463 forward 7 unknown #
edge $-1 $217 -14.436996367923106 $323 14.436996367923106 $214 $464 forward 7 unknown #
point $-1 47.784661397137363 -30.351798431119121 14.436996367923106 #
point $-1 47.784661397137363 30.351798431119121 14.436996367923106 #
face $-1 $-1 $232 $31 $-1 $465 reversed single #
loop $-1 $-1 $346 $219 #
plane-surface $-1 0 0 14.436996367923106 0 0 1 1 0 0 forward_v I I I I #
coedge $-1 $466 $222 $227 $351 forward $133 $-1 #
coedge $-1 $222 $466 $467 $468 reversed $133 $-1 #
coedge $-1 $224 $223 $222 $345 reversed $85 $-1 #
edge $-1 $469 -8.5010059166672924 $356 -3.3709749858443336 $222 $470 forward 7 unknown #
coedge $-1 $467 $471 $224 $347 forward $340 $-1 #
edge $-1 $349 -47.784661397137363 $469 47.784661397137363 $346 $472 forward 7 unknown #
coedge $-1 $231 $225 $471 $473 reversed $232 $-1 #
vertex $-1 $226 $474 #
straight-curve $-1 47.784661397137363 -13.532906945403669 5.9359904512558126 0 0 1 I I #
edge $-1 $356 2.5617306012729717 $354 19.380622086988424 $342 $475 forward 7 unknown #
coedge $-1 $476 $228 $231 $358 reversed $220 $-1 #
coedge $-1 $228 $476 $466 $477 forward $220 $-1 #
vertex $-1 $229 $478 #
straight-curve $-1 0 -30.351798431119121 9.3069654371001462 1 0 0 I I #
vertex $-1 $351 $479 #
straight-curve $-1 0 -13.532906945403669 9.3069654371001462 1 0 0 I I #
edge $-1 $480 -14.436996367923106 $233 -9.3069654371001462 $231 $481 forward 7 unknown #
point $-1 47.784661397137363 -30.351798431119121 9.3069654371001462 #
point $-1 47.784661397137363 -13.532906945403669 9.3069654371001462 #
loop $-1 $-1 $244 $236 #
plane-surface $-1 0 30.351798431119121 0 0 -1 0 0 0 -1 forward_v I I I I #
coedge $-1 $364 $239 $241 $368 reversed $141 $-1 #
coedge $-1 $239 $363 $482 $483 reversed $141 $-1 #
coedge $-1 $247 $242 $239 $366 forward $237 $-1 #
edge $-1 $369 -11.376039804478769 $484 -6.5579282138443347 $365 $485 forward 7 unknown #
coedge $-1 $241 $240 $372 $486 reversed $89 $-1 #
edge $-1 $487 -60.70359686223825 $369 -52.303475478479001 $363 $488 forward 7 unknown #
vertex $-1 $243 $489 #
straight-curve $-1 -18.211572380414445 25.533686840484691 14.436996367923111 1 0 0 I I #
coedge $-1 $482 $244 $247 $376 reversed $361 $-1 #
coedge $-1 $244 $482 $367 $486 forward $361 $-1 #
vertex $-1 $245 $490 #
straight-curve $-1 -42.955090830469629 30.351798431119121 56.048903068812891 0 0 1 I I #
straight-curve $-1 -42.955090830469629 -4.4663536256622081 57.281495654965802 0 0.57357642473473569 -0.81915205242281985 I I #
edge $-1 $484 29.891198691188155 $248 42.955090830469629 $371 $491 forward 7 unknown #
point $-1 -42.955090830469629 30.351798431119121 14.436996367923106 #
point $-1 -42.955090830469629 25.533686840484688 14.436996367923108 #
edge $-1 $492 1 $492 0 $251 $-1 forward 7 unknown #
vertex $-1 $252 $493 #
ellipse-curve $-1 -36.42314476082889 24.149311404297112 8.3403189680587815 0 0.81915205242281985 0.57357642473473569 1.5 0 0 1 I I #
point $-1 -34.92314476082889 27.942742635801899 10.996508031869503 #
loop $-1 $-1 $263 $255 #
plane-surface $-1 0 30.351798431119121 0 0 -1 0 0 0 -1 forward_v I I I I #
coedge $-1 $386 $258 $260 $390 reversed $156 $-1 #
coedge $-1 $258 $385 $494 $495 reversed $156 $-1 #
coedge $-1 $266 $261 $258 $388 forward $256 $-1 #
edge $-1 $391 -11.376039804478769 $496 -6.5579282138443347 $387 $497 forward 7 unknown #
coedge $-1 $260 $259 $394 $498 reversed $98 $-1 #
edge $-1 $499 -60.70359686223825 $391 -52.303475478479001 $385 $500 forward 7 unknown #
vertex $-1 $262 $501 #
straight-curve $-1 -6.2654070311301062 25.533686840484691 14.436996367923111 1 0 0 I I #
coedge $-1 $494 $263 $266 $398 reversed $383 $-1 #
coedge $-1 $263 $494 $389 $498 forward $383 $-1 #
vertex $-1 $264 $502 #
straight-curve $-1 -19.062760131900948 30.351798431119121 56.048903068812891 0 0 1 I I #
straight-curve $-1 -19.062760131900948 -4.4663536256622081 57.281495654965802 0 0.57357642473473569 -0.81915205242281985 I I #
edge $-1 $496 5.998867992619477 $267 19.062760131900948 $393 $503 forward 7 unknown #
point $-1 -19.062760131900948 30.351798431119121 14.436996367923106 #
point $-1 -19.062760131900948 25.533686840484688 14.436996367923108 #
edge $-1 $504 1 $504 0 $270 $-1 forward 7 unknown #
vertex $-1 $271 $505 #
ellipse-curve $-1 -12.530814062260212 24.149311404297112 8.3403189680587815 0 0.81915205242281985 0.57357642473473569 1.5 0 0 1 I I #
point $-1 -11.030814062260212 27.942742635801899 10.996508031869503 #
loop $-1 $-1 $282 $274 #
plane-surface $-1 0 30.351798431119121 0 0 -1 0 0 0 -1 forward_v I I I I #
coedge $-1 $408 $277 $279 $412 reversed $171 $-1 #
coedge $-1 $277 $407 $506 $507 reversed $171 $-1 #
coedge $-1 $285 $280 $277 $410 forward $275 $-1 #
edge $-1 $413 -11.376039804478769 $508 -6.5579282138443347 $409 $509 forward 7 unknown #
coedge $-1 $279 $278 $416 $510 reversed $107 $-1 #
edge $-1 $511 -60.70359686223825 $413 -52.303475478479001 $407 $512 forward 7 unknown #
vertex $-1 $281 $513 #
straight-curve $-1 5.6807583181542363 25.533686840484691 14.436996367923111 1 0 0 I I #
coedge $-1 $506 $282 $285 $420 reversed $405 $-1 #
coedge $-1 $282 $506 $411 $510 forward $405 $-1 #
vertex $-1 $283 $514 #
straight-curve $-1 4.8295705666677371 30.351798431119121 56.048903068812891 0 0 1 I I #
straight-curve $-1 4.8295705666677371 -4.4663536256622081 57.281495654965802 0 0.57357642473473569 -0.81915205242281985 I I #
edge $-1 $508 -17.893462705949208 $286 -4.8295705666677371 $415 $515 forward 7 unknown #
point $-1 4.8295705666677371 30.351798431119121 14.436996367923106 #
point $-1 4.8295705666677371 25.533686840484688 14.436996367923108 #
edge $-1 $516 1 $516 0 $289 $-1 forward 7 unknown #
vertex $-1 $290 $517 #
ellipse-curve $-1 11.361516636308473 24.149311404297112 8.3403189680587815 0 0.81915205242281985 0.57357642473473569 1.5 0 0 1 I I #
point $-1 12.861516636308473 27.942742635801899 10.996508031869503 #
loop $-1 $-1 $301 $293 #
plane-surface $-1 0 30.351798431119121 0 0 -1 0 0 0 -1 forward_v I I I I #
coedge $-1 $430 $296 $298 $434 reversed $186 $-1 #
coedge $-1 $296 $429 $518 $519 reversed $186 $-1 #
coedge $-1 $304 $299 $296 $432 forward $294 $-1 #
edge $-1 $435 -11.376039804478769 $520 -6.5579282138443347 $431 $521 forward 7 unknown #
coedge $-1 $298 $297 $438 $522 reversed $116 $-1 #
edge $-1 $523 -60.70359686223825 $435 -52.303475478479001 $429 $524 forward 7 unknown #
vertex $-1 $300 $525 #
straight-curve $-1 17.626923667438579 25.533686840484691 14.436996367923111 1 0 0 I I #
coedge $-1 $518 $301 $304 $442 reversed $427 $-1 #
coedge $-1 $301 $518 $433 $522 forward $427 $-1 #
vertex $-1 $302 $526 #
straight-curve $-1 28.721901265236422 30.351798431119121 56.048903068812891 0 0 1 I I #
straight-curve $-1 28.721901265236422 -4.4663536256622081 57.281495654965802 0 0.57357642473473569 -0.81915205242281985 I I #
edge $-1 $520 -41.785793404517889 $305 -28.721901265236422 $437 $527 forward 7 unknown #
point $-1 28.721901265236422 30.351798431119121 14.436996367923106 #
point $-1 28.721901265236422 25.533686840484688 14.436996367923108 #
edge $-1 $528 1 $528 0 $308 $-1 forward 7 unknown #
vertex $-1 $309 $529 #
ellipse-curve $-1 35.253847334877157 24.149311404297112 8.3403189680587815 0 0.81915205242281985 0.57357642473473569 1.5 0 0 1 I I #
point $-1 36.753847334877157 27.942742635801899 10.996508031869503 #
plane-surface $-1 47.784661397137363 0 0 -1 0 0 0 0 1 forward_v I I I I #
coedge $-1 $317 $315 $319 $454 reversed $201 $-1 #
edge $-1 $330 -14.436996367923106 $456 14.436996367923106 $329 $530 forward 7 unknown #
vertex $-1 $454 $531 #
straight-curve $-1 -47.784661397137363 -30.351798431119121 0 0 0 -1 I I #
edge $-1 $452 -30.351798431119121 $456 30.351798431119121 $450 $532 forward 7 unknown #
straight-curve $-1 0 -30.351798431119121 -14.436996367923106 -1 0 0 I I #
vertex $-1 $322 $533 #
straight-curve $-1 0 30.351798431119121 -14.436996367923106 1 0 0 I I #
point $-1 47.784661397137363 30.351798431119121 -14.436996367923106 #
point $-1 47.784661397137363 -30.351798431119121 -14.436996367923106 #
straight-curve $-1 -47.784661397137363 0 14.436996367923106 0 -1 0 I I #
point $-1 -47.784661397137363 30.351798431119121 14.436996367923106 #
point $-1 -47.784661397137363 -30.351798431119121 14.436996367923106 #
straight-curve $-1 47.784661397137363 -30.351798431119121 0 0 0 -1 I I #
straight-curve $-1 47.784661397137363 30.351798431119121 0 0 0 -1 I I #
plane-surface $-1 47.784661397137363 0 0 -1 0 0 0 0 1 forward_v I I I I #
coedge $-1 $343 $342 $353 $477 reversed $133 $-1 #
coedge $-1 $534 $346 $343 $468 forward $340 $-1 #
edge $-1 $469 13.532906945403669 $535 30.351798431119121 $343 $536 forward 7 unknown #
vertex $-1 $468 $537 #
straight-curve $-1 -47.784661397137363 -13.532906945403669 5.9359904512558126 0 0 -1 I I #
coedge $-1 $346 $534 $348 $473 forward $340 $-1 #
straight-curve $-1 0 -13.532906945403669 14.436996367923106 -1 0 0 I I #
edge $-1 $480 -30.351798431119121 $349 -13.532906945403669 $348 $538 forward 7 unknown #
point $-1 47.784661397137363 -13.532906945403669 14.436996367923104 #
straight-curve $-1 -47.784661397137363 -10.971176344130697 9.3069654371001462 0 -1 0 I I #
coedge $-1 $353 $352 $534 $539 reversed $220 $-1 #
edge $-1 $535 -14.436996367923106 $354 -9.3069654371001462 $466 $540 forward 7 unknown #
point $-1 -47.784661397137363 -30.351798431119121 9.3069654371001462 #
point $-1 -47.784661397137363 -13.532906945403669 9.3069654371001462 #
vertex $-1 $473 $541 #
straight-curve $-1 47.784661397137363 -30.351798431119121 0 0 0 -1 I I #
coedge $-1 $372 $371 $364 $483 forward $361 $-1 #
edge $-1 $484 41.611906700889783 $487 48.492883372996992 $482 $542 forward 7 unknown #
vertex $-1 $376 $543 #
straight-curve $-1 -29.891198691188155 36.909726644963456 14.436996367923108 0 1 0 I I #
edge $-1 $487 11.67962631077371 $373 24.743518450055184 $372 $544 forward 7 unknown #
vertex $-1 $486 $545 #
straight-curve $-1 -29.891198691188155 -4.4663536256622081 57.281495654965802 0 -0.57357642473473569 0.81915205242281985 I I #
point $-1 -29.891198691188155 25.533686840484688 14.436996367923108 #
point $-1 -42.955090830469629 30.351798431119121 7.5560196958158983 #
straight-curve $-1 0 30.351798431119121 14.436996367923106 -1 0 0 I I #
vertex $-1 $379 $546 #
point $-1 -34.92314476082889 24.149311404297112 8.3403189680587815 #
coedge $-1 $394 $393 $386 $495 forward $383 $-1 #
edge $-1 $496 41.611906700889783 $499 48.492883372996992 $494 $547 forward 7 unknown #
vertex $-1 $398 $548 #
straight-curve $-1 -5.998867992619477 36.909726644963456 14.436996367923108 0 1 0 I I #
edge $-1 $499 -0.26653903851062921 $395 12.797353100770842 $394 $549 forward 7 unknown #
vertex $-1 $498 $550 #
straight-curve $-1 -5.998867992619477 -4.4663536256622081 57.281495654965802 0 -0.57357642473473569 0.81915205242281985 I I #
point $-1 -5.998867992619477 25.533686840484688 14.436996367923108 #
point $-1 -19.062760131900948 30.351798431119121 7.5560196958158983 #
straight-curve $-1 0 30.351798431119121 14.436996367923106 -1 0 0 I I #
vertex $-1 $401 $551 #
point $-1 -11.030814062260212 24.149311404297112 8.3403189680587815 #
coedge $-1 $416 $415 $408 $507 forward $405 $-1 #
edge $-1 $508 41.611906700889783 $511 48.492883372996992 $506 $552 forward 7 unknown #
vertex $-1 $420 $553 #
straight-curve $-1 17.893462705949208 36.909726644963456 14.436996367923108 0 1 0 I I #
edge $-1 $511 -12.212704387794972 $417 0.85118775148649917 $416 $554 forward 7 unknown #
vertex $-1 $510 $555 #
straight-curve $-1 17.893462705949208 -4.4663536256622081 57.281495654965802 0 -0.57357642473473569 0.81915205242281985 I I #
point $-1 17.893462705949208 25.533686840484688 14.436996367923108 #
point $-1 4.8295705666677371 30.351798431119121 7.5560196958158983 #
straight-curve $-1 0 30.351798431119121 14.436996367923106 -1 0 0 I I #
vertex $-1 $423 $556 #
point $-1 12.861516636308473 24.149311404297112 8.3403189680587815 #
coedge $-1 $438 $437 $430 $519 forward $427 $-1 #
edge $-1 $520 41.611906700889783 $523 48.492883372996992 $518 $557 forward 7 unknown #
vertex $-1 $442 $558 #
straight-curve $-1 41.785793404517889 36.909726644963456 14.436996367923108 0 1 0 I I #
edge $-1 $523 -24.158869737079311 $439 -11.094977597797843 $438 $559 forward 7 unknown #
vertex $-1 $522 $560 #
straight-curve $-1 41.785793404517889 -4.4663536256622081 57.281495654965802 0 -0.57357642473473569 0.81915205242281985 I I #
point $-1 41.785793404517889 25.533686840484688 14.436996367923108 #
point $-1 28.721901265236422 30.351798431119121 7.5560196958158983 #
straight-curve $-1 0 30.351798431119121 14.436996367923106 -1 0 0 I I #
vertex $-1 $445 $561 #
point $-1 36.753847334877157 24.149311404297112 8.3403189680587815 #
straight-curve $-1 -47.784661397137363 30.351798431119121 0 0 0 -1 I I #
point $-1 -47.784661397137363 -30.351798431119121 -14.436996367923106 #
straight-curve $-1 -47.784661397137363 0 -14.436996367923106 0 1 0 I I #
point $-1 -47.784661397137363 30.351798431119121 -14.436996367923106 #
coedge $-1 $471 $467 $476 $539 forward $340 $-1 #
vertex $-1 $468 $562 #
straight-curve $-1 -47.784661397137363 0 14.436996367923106 0 -1 0 I I #
point $-1 -47.784661397137363 -13.532906945403669 14.436996367923104 #
straight-curve $-1 47.784661397137363 0 14.436996367923106 0 1 0 I I #
edge $-1 $535 -47.784661397137363 $480 47.784661397137363 $476 $563 forward 7 unknown #
straight-curve $-1 -47.784661397137363 -30.351798431119121 0 0 0 -1 I I #
point $-1 47.784661397137363 -30.351798431119121 14.436996367923106 #
straight-curve $-1 -29.891198691188155 30.351798431119121 56.048903068812891 0 0 -1 I I #
point $-1 -29.891198691188155 30.351798431119121 14.436996367923106 #
straight-curve $-1 -18.211572380414445 30.351798431119121 7.5560196958158983 -1 0 0 I I #
point $-1 -29.891198691188155 30.351798431119121 7.5560196958158983 #
point $-1 -36.42314476082889 22.920583325662886 7.4799543309566774 #
straight-curve $-1 -5.998867992619477 30.351798431119121 56.048903068812891 0 0 -1 I I #
point $-1 -5.998867992619477 30.351798431119121 14.436996367923106 #
straight-curve $-1 -6.2654070311301062 30.351798431119121 7.5560196958158983 -1 0 0 I I #
point $-1 -5.998867992619477 30.351798431119121 7.5560196958158983 #
point $-1 -12.530814062260212 22.920583325662886 7.4799543309566774 #
straight-curve $-1 17.893462705949208 30.351798431119121 56.048903068812891 0 0 -1 I I #
point $-1 17.893462705949208 30.351798431119121 14.436996367923106 #
straight-curve $-1 5.6807583181542363 30.351798431119121 7.5560196958158983 -1 0 0 I I #
point $-1 17.893462705949208 30.351798431119121 7.5560196958158983 #
point $-1 11.361516636308473 22.920583325662886 7.4799543309566774 #
straight-curve $-1 41.785793404517889 30.351798431119121 56.048903068812891 0 0 -1 I I #
point $-1 41.785793404517889 30.351798431119121 14.436996367923106 #
straight-curve $-1 17.626923667438579 30.351798431119121 7.5560196958158983 -1 0 0 I I #
point $-1 41.785793404517889 30.351798431119121 7.5560196958158983 #
point $-1 35.253847334877157 22.920583325662886 7.4799543309566774 #
point $-1 -47.784661397137363 -30.351798431119121 14.436996367923106 #
straight-curve $-1 0 -30.351798431119121 14.436996367923106 1 0 0 I I #
End-of-ACIS-data 