500 0 9 0           
7 Unknown 11 ACIS 5.0 NT 24 Fri Mar 26 02:59:36 1999 
-1 9.9999999999999995e-007 1e-010 
body $-1 $9 $-1 $10 #
body $-1 $11 $-1 $12 #
body $-1 $13 $-1 $14 #
body $-1 $15 $-1 $16 #
body $-1 $17 $-1 $18 #
body $-1 $19 $-1 $20 #
body $-1 $21 $-1 $22 #
body $-1 $23 $-1 $24 #
body $-1 $25 $-1 $26 #
lump $-1 $-1 $27 $0 #
transform $-1 1 0 0 0 1 0 0 0 1 69.025543992431409 28.133486285827814 5.8533655630665775 1 rotate no_reflect no_shear #
lump $-1 $-1 $28 $1 #
transform $-1 1 0 0 0 1 0 0 0 1 69.025543992431409 28.133486285827814 5.8533655630665775 1 rotate no_reflect no_shear #
lump $-1 $-1 $29 $2 #
transform $-1 1 0 0 0 1 0 0 0 1 69.025543992431409 28.133486285827814 5.8533655630665775 1 rotate no_reflect no_shear #
lump $-1 $-1 $30 $3 #
transform $-1 1 0 0 0 1 0 0 0 1 69.025543992431409 28.133486285827814 5.8533655630665775 1 rotate no_reflect no_shear #
lump $-1 $-1 $31 $4 #
transform $-1 1 0 0 0 1 0 0 0 1 69.025543992431409 28.133486285827814 5.8533655630665775 1 rotate no_reflect no_shear #
lump $-1 $-1 $32 $5 #
transform $-1 1 0 0 0 1 0 0 0 1 69.025543992431409 28.133486285827814 5.8533655630665775 1 rotate no_reflect no_shear #
lump $-1 $-1 $33 $6 #
transform $-1 1 0 0 0 1 0 0 0 1 69.025543992431409 28.133486285827814 5.8533655630665775 1 rotate no_reflect no_shear #
lump $-1 $-1 $34 $7 #
transform $-1 1 0 0 0 1 0 0 0 1 69.025543992431409 28.133486285827814 5.8533655630665775 1 rotate no_reflect no_shear #
lump $-1 $-1 $35 $8 #
transform $-1 1 0 0 0 1 0 0 0 1 69.025543992431409 28.133486285827814 5.8533655630665775 1 rotate no_reflect no_shear #
shell $-1 $-1 $-1 $36 $-1 $9 #
shell $-1 $-1 $-1 $37 $-1 $11 #
shell $-1 $-1 $-1 $38 $-1 $13 #
shell $-1 $-1 $-1 $39 $-1 $15 #
shell $-1 $-1 $-1 $40 $-1 $17 #
shell $-1 $-1 $-1 $41 $-1 $19 #
shell $-1 $-1 $-1 $42 $-1 $21 #
shell $-1 $-1 $-1 $43 $-1 $23 #
shell $-1 $-1 $-1 $44 $-1 $25 #
face $-1 $45 $46 $27 $-1 $47 forward single #
face $-1 $48 $49 $28 $-1 $50 reversed single #
face $-1 $51 $52 $29 $-1 $53 reversed single #
face $-1 $54 $55 $30 $-1 $56 forward single #
face $-1 $57 $58 $31 $-1 $59 forward single #
face $-1 $60 $61 $32 $-1 $62 forward single #
face $-1 $63 $64 $33 $-1 $65 reversed single #
face $-1 $66 $67 $34 $-1 $68 forward single #
face $-1 $69 $70 $35 $-1 $71 forward single #
face $-1 $72 $73 $27 $-1 $74 reversed single #
loop $-1 $-1 $75 $36 #
plane-surface $-1 0 0 5.8533655630665775 0 0 1 1 0 0 forward_v I I I I #
face $-1 $76 $77 $28 $-1 $78 reversed single #
loop $-1 $-1 $79 $37 #
plane-surface $-1 0 -25.898342730804568 2.8533655630665775 0 0 1 1 0 0 forward_v I I I I #
face $-1 $80 $81 $29 $-1 $82 reversed single #
loop $-1 $-1 $83 $38 #
plane-surface $-1 28.434172594386411 10.970430123762213 192.28535887623269 0 -1 0 -0.54463904215088732 0 -0.83867056331134215 forward_v I I I I #
face $-1 $84 $85 $30 $-1 $86 forward single #
loop $-1 $87 $88 $39 #
cone-surface $-1 64.507091761069205 1.7524501570391706 2.0049952886315063 -0.54463904215088732 0 -0.83867056331134215 0.83867056331134215 0 -0.54463904215088732 1 I I 0 1 1 forward I I I I #
face $-1 $89 $90 $31 $-1 $91 forward single #
loop $-1 $92 $93 $40 #
cone-surface $-1 64.507091761069205 5.2091926445603107 2.0049952886315063 -0.54463904215088732 0 -0.83867056331134215 0.83867056331134215 0 -0.54463904215088732 1 I I 0 1 1 forward I I I I #
face $-1 $94 $95 $32 $-1 $96 forward single #
loop $-1 $97 $98 $41 #
cone-surface $-1 64.507091761069205 8.6659351320814508 2.0049952886315063 -0.54463904215088732 0 -0.83867056331134215 0.83867056331134215 0 -0.54463904215088732 1 I I 0 1 1 forward I I I I #
face $-1 $99 $100 $33 $-1 $101 reversed single #
loop $-1 $-1 $102 $42 #
plane-surface $-1 -168.33118719738758 18.091919609627496 98.07814081607367 0 1 0 -0.71933980857756763 0 0.69465836192734942 forward_v I I I I #
face $-1 $103 $104 $34 $-1 $105 forward single #
loop $-1 $106 $107 $43 #
cone-surface $-1 -66.790299379975025 20.960938659970445 3.5709326761429883 0.71933980857756763 0 -0.69465836192734942 0.34732918096367471 0 0.35966990428878381 1 I I 0 1 0.5 forward I I I I #
face $-1 $108 $109 $35 $-1 $110 forward single #
loop $-1 $111 $112 $44 #
cone-surface $-1 -66.790299379975025 25.264467235484865 3.5709326761429883 0.71933980857756763 0 -0.69465836192734942 0.34732918096367471 0 0.35966990428878381 1 I I 0 1 0.5 forward I I I I #
face $-1 $113 $114 $27 $-1 $115 reversed single #
loop $-1 $-1 $116 $45 #
plane-surface $-1 0 0 -5.8533655630665775 0 0 1 1 0 0 forward_v I I I I #
coedge $-1 $117 $118 $119 $120 forward $46 $-1 #
face $-1 $121 $122 $28 $-1 $123 reversed single #
loop $-1 $-1 $124 $48 #
plane-surface $-1 0 -23.663199175781322 4.3533655630665775 0 -1 0 0 0 -1 forward_v I I I I #
coedge $-1 $125 $126 $127 $128 reversed $49 $-1 #
face $-1 $129 $130 $29 $-1 $131 reversed single #
loop $-1 $-1 $132 $51 #
plane-surface $-1 -46.753839733577138 5.2091926445603107 76.505975150224131 0.54463904215088732 0 0.83867056331134215 0.83867056331134215 0 -0.54463904215088732 forward_v I I I I #
coedge $-1 $133 $134 $135 $136 reversed $52 $-1 #
face $-1 $-1 $137 $30 $-1 $138 forward single #
loop $-1 $139 $140 $54 #
cone-surface $-1 63.208273832263046 1.7524501570391706 0.0049911029437739174 -0.54463904215088732 0 -0.83867056331134215 0.41933528165567108 0 -0.27231952107544366 1 I I -0.70710678118654768 0.70710678118654735 0.5 forward I I I I #
loop $-1 $-1 $141 $39 #
coedge $-1 $88 $88 $142 $143 reversed $55 $-1 #
face $-1 $-1 $144 $31 $-1 $145 forward single #
loop $-1 $146 $147 $57 #
cone-surface $-1 63.208273832263046 5.2091926445603107 0.0049911029437739174 -0.54463904215088732 0 -0.83867056331134215 0.41933528165567108 0 -0.27231952107544366 1 I I -0.70710678118654768 0.70710678118654735 0.5 forward I I I I #
loop $-1 $-1 $148 $40 #
coedge $-1 $93 $93 $149 $150 reversed $58 $-1 #
face $-1 $-1 $151 $32 $-1 $152 forward single #
loop $-1 $153 $154 $60 #
cone-surface $-1 63.208273832263046 8.6659351320814508 0.0049911029437739174 -0.54463904215088732 0 -0.83867056331134215 0.41933528165567108 0 -0.27231952107544366 1 I I -0.70710678118654768 0.70710678118654735 0.5 forward I I I I #
loop $-1 $-1 $155 $41 #
coedge $-1 $98 $98 $156 $157 reversed $61 $-1 #
face $-1 $158 $159 $33 $-1 $160 forward single #
loop $-1 $-1 $161 $63 #
plane-surface $-1 -69.025543992431409 23.112702947727655 2.1797981742204797 -0.71933980857756763 0 0.69465836192734942 0.69465836192734942 0 0.71933980857756763 forward_v I I I I #
coedge $-1 $162 $163 $164 $165 reversed $64 $-1 #
face $-1 $-1 $166 $34 $-1 $167 forward single #
loop $-1 $168 $169 $66 #
cone-surface $-1 -66.148981168726621 20.960938659970445 2.9516188931606075 0.71933980857756763 0 -0.69465836192734942 0.17366459048183736 0 0.17983495214439191 1 I I -0.70710678118654746 0.70710678118654746 0.25 forward I I I I #
loop $-1 $-1 $170 $43 #
coedge $-1 $107 $107 $171 $172 reversed $67 $-1 #
face $-1 $-1 $173 $35 $-1 $174 forward single #
loop $-1 $175 $176 $69 #
cone-surface $-1 -66.148981168726621 25.264467235484865 2.9516188931606075 0.71933980857756763 0 -0.69465836192734942 0.17366459048183736 0 0.17983495214439191 1 I I -0.70710678118654746 0.70710678118654746 0.25 forward I I I I #
loop $-1 $-1 $177 $44 #
coedge $-1 $112 $112 $178 $179 reversed $70 $-1 #
face $-1 $180 $181 $27 $-1 $182 reversed single #
loop $-1 $-1 $183 $72 #
plane-surface $-1 0 -28.133486285827814 0 0 1 0 0 0 1 forward_v I I I I #
coedge $-1 $184 $185 $186 $187 forward $73 $-1 #
coedge $-1 $188 $75 $189 $190 forward $46 $-1 #
coedge $-1 $75 $188 $191 $192 forward $46 $-1 #
coedge $-1 $193 $194 $75 $120 reversed $195 $-1 #
edge $-1 $196 -28.133486285827814 $197 28.133486285827814 $119 $198 forward 7 unknown #
face $-1 $199 $200 $28 $-1 $201 reversed single #
loop $-1 $-1 $202 $76 #
plane-surface $-1 -69.025543992431409 0 0 1 0 0 0 0 -1 forward_v I I I I #
coedge $-1 $203 $204 $205 $206 reversed $77 $-1 #
coedge $-1 $207 $79 $208 $209 reversed $49 $-1 #
coedge $-1 $79 $207 $203 $210 forward $49 $-1 #
coedge $-1 $205 $211 $79 $128 forward $212 $-1 #
edge $-1 $213 -15.18431492042553 $214 -10.714027810379038 $127 $215 forward 7 unknown #
face $-1 $216 $217 $29 $-1 $218 reversed single #
loop $-1 $-1 $219 $80 #
plane-surface $-1 28.434172594386411 -0.55204483464159182 192.28535887623269 0 1 0 0.54463904215088732 0 0.83867056331134215 forward_v I I I I #
coedge $-1 $220 $221 $222 $223 reversed $81 $-1 #
coedge $-1 $134 $83 $224 $225 reversed $52 $-1 #
coedge $-1 $83 $133 $220 $226 reversed $52 $-1 #
coedge $-1 $222 $227 $83 $136 forward $228 $-1 #
edge $-1 $229 -54.808457695238204 $230 -47.824550047975222 $135 $231 forward 7 unknown #
loop $-1 $-1 $142 $84 #
plane-surface $-1 -46.753839733577138 5.2091926445603107 76.505975150224131 0.54463904215088732 0 0.83867056331134215 0.83867056331134215 0 -0.54463904215088732 forward_v I I I I #
loop $-1 $-1 $232 $54 #
coedge $-1 $140 $140 $141 $233 reversed $85 $-1 #
coedge $-1 $141 $141 $140 $233 forward $87 $-1 #
coedge $-1 $142 $142 $88 $143 forward $137 $-1 #
edge $-1 $234 0 $234 6.2831853071796004 $142 $235 forward 7 unknown #
loop $-1 $-1 $149 $89 #
plane-surface $-1 -46.753839733577138 5.2091926445603107 76.505975150224131 0.54463904215088732 0 0.83867056331134215 0.83867056331134215 0 -0.54463904215088732 forward_v I I I I #
loop $-1 $-1 $236 $57 #
coedge $-1 $147 $147 $148 $237 reversed $90 $-1 #
coedge $-1 $148 $148 $147 $237 forward $92 $-1 #
coedge $-1 $149 $149 $93 $150 forward $144 $-1 #
edge $-1 $238 0 $238 6.2831853071796004 $149 $239 forward 7 unknown #
loop $-1 $-1 $156 $94 #
plane-surface $-1 -46.753839733577138 5.2091926445603107 76.505975150224131 0.54463904215088732 0 0.83867056331134215 0.83867056331134215 0 -0.54463904215088732 forward_v I I I I #
loop $-1 $-1 $240 $60 #
coedge $-1 $154 $154 $155 $241 reversed $95 $-1 #
coedge $-1 $155 $155 $154 $241 forward $97 $-1 #
coedge $-1 $156 $156 $98 $157 forward $151 $-1 #
edge $-1 $242 0 $242 6.2831853071796004 $156 $243 forward 7 unknown #
face $-1 $244 $245 $33 $-1 $246 reversed single #
loop $-1 $-1 $164 $99 #
plane-surface $-1 0 0 5.8533655630665775 0 0 1 1 0 0 forward_v I I I I #
coedge $-1 $247 $248 $249 $250 reversed $100 $-1 #
coedge $-1 $163 $102 $251 $252 reversed $64 $-1 #
coedge $-1 $102 $162 $247 $253 reversed $64 $-1 #
coedge $-1 $249 $254 $102 $165 forward $159 $-1 #
edge $-1 $255 15.14004960626238 $256 18.68757231296712 $164 $257 forward 7 unknown #
loop $-1 $-1 $171 $103 #
plane-surface $-1 -69.025543992431409 23.112702947727655 2.1797981742204797 -0.71933980857756763 0 0.69465836192734942 0.69465836192734942 0 0.71933980857756763 forward_v I I I I #
loop $-1 $-1 $258 $66 #
coedge $-1 $169 $169 $170 $259 reversed $104 $-1 #
coedge $-1 $170 $170 $169 $259 forward $106 $-1 #
coedge $-1 $171 $171 $107 $172 forward $166 $-1 #
edge $-1 $260 0 $260 6.2831853071796004 $171 $261 forward 7 unknown #
loop $-1 $-1 $178 $108 #
plane-surface $-1 -69.025543992431409 23.112702947727655 2.1797981742204797 -0.71933980857756763 0 0.69465836192734942 0.69465836192734942 0 0.71933980857756763 forward_v I I I I #
loop $-1 $-1 $262 $69 #
coedge $-1 $176 $176 $177 $263 reversed $109 $-1 #
coedge $-1 $177 $177 $176 $263 forward $111 $-1 #
coedge $-1 $178 $178 $112 $179 forward $173 $-1 #
edge $-1 $264 0 $264 6.2831853071796004 $178 $265 forward 7 unknown #
face $-1 $266 $267 $27 $-1 $268 reversed single #
loop $-1 $-1 $269 $113 #
plane-surface $-1 -69.025543992431409 0 0 1 0 0 0 0 -1 forward_v I I I I #
coedge $-1 $270 $191 $271 $272 forward $114 $-1 #
coedge $-1 $273 $116 $270 $274 forward $73 $-1 #
coedge $-1 $116 $273 $275 $276 forward $73 $-1 #
coedge $-1 $194 $193 $116 $187 reversed $195 $-1 #
edge $-1 $277 -28.133486285827814 $278 28.133486285827814 $186 $279 forward 7 unknown #
coedge $-1 $118 $117 $280 $281 forward $46 $-1 #
coedge $-1 $282 $283 $117 $190 reversed $267 $-1 #
edge $-1 $197 -69.025543992431409 $284 69.025543992431409 $189 $285 forward 7 unknown #
coedge $-1 $183 $286 $118 $192 reversed $114 $-1 #
edge $-1 $287 -69.025543992431409 $196 69.025543992431409 $191 $288 forward 7 unknown #
coedge $-1 $186 $119 $286 $289 forward $195 $-1 #
coedge $-1 $119 $186 $282 $290 reversed $195 $-1 #
loop $-1 $-1 $193 $266 #
vertex $-1 $120 $291 #
vertex $-1 $120 $292 #
straight-curve $-1 69.025543992431409 0 5.8533655630665775 0 1 0 I I #
face $-1 $293 $294 $28 $-1 $295 forward single #
loop $-1 $-1 $208 $121 #
plane-surface $-1 0 -28.133486285827814 0 0 1 0 0 0 1 forward_v I I I I #
coedge $-1 $296 $297 $298 $299 forward $122 $-1 #
coedge $-1 $298 $124 $126 $210 reversed $77 $-1 #
coedge $-1 $124 $298 $300 $301 reversed $77 $-1 #
coedge $-1 $302 $127 $124 $206 forward $212 $-1 #
edge $-1 $214 0.67668278153328876 $303 3.6766827815332888 $205 $304 forward 7 unknown #
coedge $-1 $126 $125 $296 $305 reversed $49 $-1 #
coedge $-1 $306 $307 $125 $209 forward $200 $-1 #
edge $-1 $308 -69.025543992431409 $213 69.025543992431409 $208 $309 forward 7 unknown #
edge $-1 $310 -69.025543992431409 $214 69.025543992431409 $203 $311 forward 7 unknown #
coedge $-1 $127 $302 $306 $312 forward $212 $-1 #
loop $-1 $-1 $205 $293 #
vertex $-1 $209 $313 #
vertex $-1 $128 $314 #
straight-curve $-1 69.025543992431409 -12.949171365402284 2.8533655630665775 0 1 0 I I #
face $-1 $-1 $228 $29 $-1 $315 forward single #
loop $-1 $-1 $316 $129 #
plane-surface $-1 69.025543992431409 0 0 -1 0 0 0 0 1 forward_v I I I I #
coedge $-1 $317 $318 $319 $320 reversed $130 $-1 #
coedge $-1 $321 $132 $134 $226 forward $81 $-1 #
coedge $-1 $132 $321 $317 $322 forward $81 $-1 #
coedge $-1 $319 $135 $132 $223 forward $228 $-1 #
edge $-1 $230 -8.3658338014820579 $323 3.1566411569217472 $222 $324 forward 7 unknown #
coedge $-1 $325 $326 $133 $225 forward $217 $-1 #
edge $-1 $327 -94.824716615855763 $229 -90.289313875049771 $224 $328 forward 7 unknown #
edge $-1 $230 129.72373281969729 $327 138.05108798486282 $134 $329 forward 7 unknown #
coedge $-1 $135 $319 $325 $330 forward $228 $-1 #
loop $-1 $-1 $319 $216 #
vertex $-1 $225 $331 #
vertex $-1 $136 $332 #
straight-curve $-1 14.217086297193205 10.970430123762213 5.8533655630665749 -1 0 0 I I #
coedge $-1 $232 $232 $-1 $333 reversed $139 $-1 #
edge $-1 $334 0 $334 6.2831853071796004 $140 $335 forward 7 unknown #
vertex $-1 $143 $336 #
ellipse-curve $-1 65.533590168799932 1.7524501570391706 3.5856641926635762 0.54463904215088732 0 0.83867056331134215 0.83867056331134215 0 -0.54463904215088732 1 I I #
coedge $-1 $236 $236 $-1 $337 reversed $146 $-1 #
edge $-1 $338 0 $338 6.2831853071796004 $147 $339 forward 7 unknown #
vertex $-1 $150 $340 #
ellipse-curve $-1 65.533590168799932 5.2091926445603107 3.5856641926635762 0.54463904215088732 0 0.83867056331134215 0.83867056331134215 0 -0.54463904215088732 1 I I #
coedge $-1 $240 $240 $-1 $341 reversed $153 $-1 #
edge $-1 $342 0 $342 6.2831853071796004 $154 $343 forward 7 unknown #
vertex $-1 $157 $344 #
ellipse-curve $-1 65.533590168799932 8.6659351320814508 3.5856641926635762 0.54463904215088732 0 0.83867056331134215 0.83867056331134215 0 -0.54463904215088732 1 I I #
face $-1 $-1 $345 $33 $-1 $346 reversed single #
loop $-1 $-1 $347 $158 #
plane-surface $-1 0 28.133486285827814 0 0 -1 0 0 0 -1 forward_v I I I I #
coedge $-1 $348 $161 $163 $253 forward $100 $-1 #
coedge $-1 $161 $348 $347 $349 reversed $100 $-1 #
coedge $-1 $350 $164 $161 $250 forward $159 $-1 #
edge $-1 $256 6.5355681357636684 $351 16.577134811963987 $249 $352 forward 7 unknown #
coedge $-1 $353 $354 $162 $252 forward $345 $-1 #
edge $-1 $355 -46.859272233816355 $255 -43.18570484497026 $251 $356 forward 7 unknown #
edge $-1 $256 -5.1068595746289382 $355 0 $163 $357 forward 7 unknown #
coedge $-1 $164 $350 $353 $358 forward $159 $-1 #
vertex $-1 $252 $359 #
vertex $-1 $165 $360 #
straight-curve $-1 -84.165593598693789 18.091919609627496 5.8533655630665749 1 0 0 I I #
coedge $-1 $258 $258 $-1 $361 reversed $168 $-1 #
edge $-1 $362 0 $362 6.2831853071796004 $169 $363 forward 7 unknown #
vertex $-1 $172 $364 #
ellipse-curve $-1 -67.251782639079039 20.960938659970445 4.0165818686435308 -0.71933980857756763 0 0.69465836192734942 0.34732918096367471 0 0.35966990428878381 1 I I #
coedge $-1 $262 $262 $-1 $365 reversed $175 $-1 #
edge $-1 $366 0 $366 6.2831853071796004 $176 $367 forward 7 unknown #
vertex $-1 $179 $368 #
ellipse-curve $-1 -67.251782639079039 25.264467235484865 4.0165818686435308 -0.71933980857756763 0 0.69465836192734942 0.34732918096367471 0 0.35966990428878381 1 I I #
face $-1 $-1 $195 $27 $-1 $369 reversed single #
loop $-1 $-1 $282 $180 #
plane-surface $-1 0 28.133486285827814 0 0 -1 0 0 0 -1 forward_v I I I I #
coedge $-1 $370 $280 $283 $371 forward $181 $-1 #
coedge $-1 $286 $183 $184 $274 reversed $114 $-1 #
coedge $-1 $280 $370 $183 $272 reversed $181 $-1 #
edge $-1 $287 -5.8533655630665775 $372 5.8533655630665775 $271 $373 forward 7 unknown #
coedge $-1 $185 $184 $370 $374 forward $73 $-1 #
edge $-1 $278 -69.025543992431409 $372 69.025543992431409 $270 $375 forward 7 unknown #
coedge $-1 $283 $282 $185 $276 reversed $267 $-1 #
edge $-1 $376 -69.025543992431409 $277 69.025543992431409 $275 $377 forward 7 unknown #
vertex $-1 $187 $378 #
vertex $-1 $289 $379 #
straight-curve $-1 69.025543992431409 0 -5.8533655630665775 0 -1 0 I I #
coedge $-1 $269 $271 $188 $281 reversed $181 $-1 #
edge $-1 $284 -28.133486285827814 $287 28.133486285827814 $280 $380 forward 7 unknown #
coedge $-1 $275 $189 $194 $290 forward $267 $-1 #
coedge $-1 $189 $275 $269 $371 reversed $267 $-1 #
vertex $-1 $190 $381 #
straight-curve $-1 0 28.133486285827814 5.8533655630665775 -1 0 0 I I #
coedge $-1 $191 $270 $193 $289 reversed $114 $-1 #
vertex $-1 $281 $382 #
straight-curve $-1 0 -28.133486285827814 5.8533655630665775 1 0 0 I I #
edge $-1 $196 -5.8533655630665775 $278 5.8533655630665775 $193 $383 forward 7 unknown #
edge $-1 $197 -5.8533655630665775 $277 5.8533655630665775 $194 $384 forward 7 unknown #
point $-1 69.025543992431409 -28.133486285827814 5.8533655630665775 #
point $-1 69.025543992431409 28.133486285827814 5.8533655630665775 #
face $-1 $-1 $212 $28 $-1 $385 reversed single #
loop $-1 $-1 $300 $199 #
plane-surface $-1 0 0 5.8533655630665775 0 0 1 1 0 0 forward_v I I I I #
coedge $-1 $386 $202 $207 $305 forward $122 $-1 #
coedge $-1 $202 $386 $387 $388 reversed $122 $-1 #
coedge $-1 $204 $203 $202 $299 reversed $77 $-1 #
edge $-1 $389 -3.6766827815332888 $310 -0.67668278153328876 $202 $390 forward 7 unknown #
coedge $-1 $387 $391 $204 $301 forward $294 $-1 #
edge $-1 $303 -69.025543992431409 $389 69.025543992431409 $300 $392 forward 7 unknown #
coedge $-1 $211 $205 $391 $393 reversed $212 $-1 #
vertex $-1 $206 $394 #
straight-curve $-1 69.025543992431409 -23.663199175781322 2.1766827815332888 0 0 1 I I #
edge $-1 $310 10.714027810379038 $308 15.18431492042553 $296 $395 forward 7 unknown #
coedge $-1 $396 $208 $211 $312 reversed $200 $-1 #
coedge $-1 $208 $396 $386 $397 forward $200 $-1 #
vertex $-1 $209 $398 #
straight-curve $-1 0 -28.133486285827814 2.8533655630665775 1 0 0 I I #
vertex $-1 $305 $399 #
straight-curve $-1 0 -23.663199175781322 2.8533655630665775 1 0 0 I I #
edge $-1 $400 -5.8533655630665775 $213 -2.8533655630665775 $211 $401 forward 7 unknown #
point $-1 69.025543992431409 -28.133486285827814 2.8533655630665775 #
point $-1 69.025543992431409 -23.663199175781322 2.8533655630665775 #
plane-surface $-1 0 0 5.8533655630665775 0 0 1 1 0 0 forward_v I I I I #
coedge $-1 $326 $325 $318 $402 forward $217 $-1 #
coedge $-1 $318 $219 $221 $322 reversed $130 $-1 #
coedge $-1 $219 $317 $316 $402 reversed $130 $-1 #
coedge $-1 $227 $222 $219 $320 forward $228 $-1 #
edge $-1 $323 47.824550047975222 $403 54.808457695238204 $319 $404 forward 7 unknown #
coedge $-1 $221 $220 $326 $405 reversed $81 $-1 #
edge $-1 $406 -138.05108798486282 $323 -129.72373281969729 $317 $407 forward 7 unknown #
vertex $-1 $223 $408 #
straight-curve $-1 62.041636345168428 2.6045963222801554 5.8533655630665749 0 -1 0 I I #
coedge $-1 $316 $224 $227 $330 reversed $217 $-1 #
coedge $-1 $224 $316 $321 $405 forward $217 $-1 #
vertex $-1 $225 $409 #
straight-curve $-1 69.025543992431409 10.970430123762213 96.142679438116346 0 0 1 I I #
straight-curve $-1 -46.753839733577138 10.970430123762213 76.505975150224131 0.83867056331134215 0 -0.54463904215088732 I I #
edge $-1 $403 -0.55204483464159182 $229 10.970430123762213 $325 $410 forward 7 unknown #
point $-1 69.025543992431409 10.970430123762213 5.8533655630665775 #
point $-1 62.041636345168428 10.970430123762213 5.8533655630665749 #
edge $-1 $411 1 $411 0 $232 $-1 forward 7 unknown #
vertex $-1 $233 $412 #
ellipse-curve $-1 63.480593353338492 1.7524501570391706 0.42432638459944483 0.54463904215088732 0 0.83867056331134215 0.83867056331134215 0 -0.54463904215088732 1 I I #
point $-1 66.372260732111258 1.7524501570391706 3.04102515051268 #
edge $-1 $413 1 $413 0 $236 $-1 forward 7 unknown #
vertex $-1 $237 $414 #
ellipse-curve $-1 63.480593353338492 5.2091926445603107 0.42432638459944483 0.54463904215088732 0 0.83867056331134215 0.83867056331134215 0 -0.54463904215088732 1 I I #
point $-1 66.372260732111258 5.2091926445603107 3.04102515051268 #
edge $-1 $415 1 $415 0 $240 $-1 forward 7 unknown #
vertex $-1 $241 $416 #
ellipse-curve $-1 63.480593353338492 8.6659351320814508 0.42432638459944483 0.54463904215088732 0 0.83867056331134215 0.83867056331134215 0 -0.54463904215088732 1 I I #
point $-1 66.372260732111258 8.6659351320814508 3.04102515051268 #
loop $-1 $-1 $251 $244 #
plane-surface $-1 -69.025543992431409 0 0 1 0 0 0 0 -1 forward_v I I I I #
coedge $-1 $417 $418 $248 $349 forward $245 $-1 #
coedge $-1 $248 $247 $354 $419 reversed $100 $-1 #
edge $-1 $351 18.083718285143611 $420 23.190577859772553 $347 $421 forward 7 unknown #
coedge $-1 $254 $249 $418 $422 forward $159 $-1 #
vertex $-1 $422 $423 #
straight-curve $-1 -65.478021285726669 11.556351473863828 5.8533655630665802 0 1 0 I I #
coedge $-1 $424 $251 $254 $358 reversed $345 $-1 #
coedge $-1 $251 $424 $348 $419 forward $345 $-1 #
vertex $-1 $252 $425 #
straight-curve $-1 -69.025543992431409 18.091919609627496 49.039070408036835 0 0 1 I I #
straight-curve $-1 -69.025543992431409 18.091919609627496 2.1797981742204797 -0.69465836192734942 0 -0.71933980857756763 I I #
edge $-1 $426 -28.133486285827814 $255 -18.091919609627496 $353 $427 forward 7 unknown #
point $-1 -69.025543992431409 18.091919609627496 5.8533655630665775 #
point $-1 -65.478021285726669 18.091919609627496 5.8533655630665775 #
edge $-1 $428 1 $428 0 $258 $-1 forward 7 unknown #
vertex $-1 $259 $429 #
ellipse-curve $-1 -66.328816120871011 20.960938659970445 3.1252834836424448 -0.71933980857756763 0 0.69465836192734942 0.34732918096367471 0 0.35966990428878381 1 I I #
point $-1 -66.90445345811537 20.960938659970445 4.3762517729323154 #
edge $-1 $430 1 $430 0 $262 $-1 forward 7 unknown #
vertex $-1 $263 $431 #
ellipse-curve $-1 -66.328816120871011 25.264467235484865 3.1252834836424448 -0.71933980857756763 0 0.69465836192734942 0.34732918096367471 0 0.35966990428878381 1 I I #
point $-1 -66.90445345811537 25.264467235484865 4.3762517729323154 #
plane-surface $-1 69.025543992431409 0 0 -1 0 0 0 0 1 forward_v I I I I #
coedge $-1 $271 $269 $273 $374 reversed $181 $-1 #
edge $-1 $284 -5.8533655630665775 $376 5.8533655630665775 $283 $432 forward 7 unknown #
vertex $-1 $374 $433 #
straight-curve $-1 -69.025543992431409 -28.133486285827814 0 0 0 -1 I I #
edge $-1 $372 -28.133486285827814 $376 28.133486285827814 $370 $434 forward 7 unknown #
straight-curve $-1 0 -28.133486285827814 -5.8533655630665775 -1 0 0 I I #
vertex $-1 $276 $435 #
straight-curve $-1 0 28.133486285827814 -5.8533655630665775 1 0 0 I I #
point $-1 69.025543992431409 28.133486285827814 -5.8533655630665775 #
point $-1 69.025543992431409 -28.133486285827814 -5.8533655630665775 #
straight-curve $-1 -69.025543992431409 0 5.8533655630665775 0 -1 0 I I #
point $-1 -69.025543992431409 28.133486285827814 5.8533655630665775 #
point $-1 -69.025543992431409 -28.133486285827814 5.8533655630665775 #
straight-curve $-1 69.025543992431409 -28.133486285827814 0 0 0 -1 I I #
straight-curve $-1 69.025543992431409 28.133486285827814 0 0 0 -1 I I #
plane-surface $-1 69.025543992431409 0 0 -1 0 0 0 0 1 forward_v I I I I #
coedge $-1 $297 $296 $307 $397 reversed $122 $-1 #
coedge $-1 $436 $300 $297 $388 forward $294 $-1 #
edge $-1 $389 23.663199175781322 $437 28.133486285827814 $297 $438 forward 7 unknown #
vertex $-1 $388 $439 #
straight-curve $-1 -69.025543992431409 -23.663199175781322 2.1766827815332888 0 0 -1 I I #
coedge $-1 $300 $436 $302 $393 forward $294 $-1 #
straight-curve $-1 0 -23.663199175781322 5.8533655630665775 -1 0 0 I I #
edge $-1 $400 -28.133486285827814 $303 -23.663199175781322 $302 $440 forward 7 unknown #
point $-1 69.025543992431409 -23.663199175781322 5.8533655630665775 #
straight-curve $-1 -69.025543992431409 -12.949171365402284 2.8533655630665775 0 -1 0 I I #
coedge $-1 $307 $306 $436 $441 reversed $200 $-1 #
edge $-1 $437 -5.8533655630665775 $308 -2.8533655630665775 $386 $442 forward 7 unknown #
point $-1 -69.025543992431409 -28.133486285827814 2.8533655630665775 #
point $-1 -69.025543992431409 -23.663199175781322 2.8533655630665775 #
vertex $-1 $393 $443 #
straight-curve $-1 69.025543992431409 -28.133486285827814 0 0 0 -1 I I #
edge $-1 $403 90.289313875049771 $406 94.824716615855763 $316 $444 forward 7 unknown #
vertex $-1 $330 $445 #
straight-curve $-1 14.217086297193205 -0.55204483464159182 5.8533655630665749 1 0 0 I I #
edge $-1 $406 -3.1566411569217472 $327 8.3658338014820579 $326 $446 forward 7 unknown #
vertex $-1 $405 $447 #
straight-curve $-1 -46.753839733577138 -0.55204483464159182 76.505975150224131 -0.83867056331134215 0 0.54463904215088732 I I #
point $-1 62.041636345168428 -0.55204483464159182 5.8533655630665749 #
point $-1 69.025543992431423 10.970430123762213 1.3179628222605828 #
straight-curve $-1 69.025543992431409 0 5.8533655630665775 0 1 0 I I #
vertex $-1 $333 $448 #
point $-1 64.319263916649831 1.7524501570391706 -0.12031265755144249 #
vertex $-1 $337 $449 #
point $-1 64.319263916649831 5.2091926445603107 -0.12031265755144249 #
vertex $-1 $341 $450 #
point $-1 64.319263916649831 8.6659351320814508 -0.12031265755144249 #
coedge $-1 $418 $347 $424 $451 reversed $245 $-1 #
coedge $-1 $347 $417 $350 $422 reversed $245 $-1 #
edge $-1 $420 -16.577134811963987 $355 -6.5355681357636684 $354 $452 forward 7 unknown #
vertex $-1 $349 $453 #
straight-curve $-1 -52.91601516421315 28.133486285827814 18.861704012672444 -0.69465836192734942 0 -0.71933980857756763 I I #
edge $-1 $351 65.478021285726669 $426 69.025543992431409 $418 $454 forward 7 unknown #
point $-1 -65.478021285726669 28.133486285827814 5.8533655630665775 #
coedge $-1 $354 $353 $417 $451 forward $345 $-1 #
point $-1 -69.025543992431409 18.091919609627496 2.1797981742204797 #
vertex $-1 $422 $455 #
straight-curve $-1 -69.025543992431409 0 5.8533655630665775 0 -1 0 I I #
vertex $-1 $361 $456 #
point $-1 -65.981486939907342 20.960938659970445 3.4849533879312284 #
vertex $-1 $365 $457 #
point $-1 -65.981486939907342 25.264467235484865 3.4849533879312284 #
straight-curve $-1 -69.025543992431409 28.133486285827814 0 0 0 -1 I I #
point $-1 -69.025543992431409 -28.133486285827814 -5.8533655630665775 #
straight-curve $-1 -69.025543992431409 0 -5.8533655630665775 0 1 0 I I #
point $-1 -69.025543992431409 28.133486285827814 -5.8533655630665775 #
coedge $-1 $391 $387 $396 $441 forward $294 $-1 #
vertex $-1 $388 $458 #
straight-curve $-1 -69.025543992431409 0 5.8533655630665775 0 -1 0 I I #
point $-1 -69.025543992431409 -23.663199175781322 5.8533655630665775 #
straight-curve $-1 69.025543992431409 0 5.8533655630665775 0 1 0 I I #
edge $-1 $437 -69.025543992431409 $400 69.025543992431409 $396 $459 forward 7 unknown #
straight-curve $-1 -69.025543992431409 -28.133486285827814 0 0 0 -1 I I #
point $-1 69.025543992431409 -28.133486285827814 5.8533655630665775 #
straight-curve $-1 69.025543992431409 -0.55204483464159182 96.142679438116346 0 0 -1 I I #
point $-1 69.025543992431409 -0.55204483464159182 5.8533655630665775 #
straight-curve $-1 69.025543992431409 2.6045963222801554 1.3179628222605899 0 1 0 I I #
point $-1 69.025543992431423 -0.55204483464159182 1.3179628222605828 #
point $-1 62.935954311187601 1.7524501570391706 -0.41434417871189699 #
point $-1 62.935954311187601 5.2091926445603107 -0.41434417871189699 #
point $-1 62.935954311187601 8.6659351320814508 -0.41434417871189699 #
edge $-1 $426 -5.8533655630665775 $420 -2.1797981742204797 $417 $460 forward 7 unknown #
straight-curve $-1 -69.025543992431409 11.556351473863828 2.1797981742204864 0 -1 0 I I #
point $-1 -69.025543992431409 28.133486285827814 2.1797981742204797 #
straight-curve $-1 0 28.133486285827814 5.8533655630665775 -1 0 0 I I #
point $-1 -69.025543992431409 28.133486285827814 5.8533655630665775 #
point $-1 -65.969146216582232 20.960938659970445 2.7779543026787703 #
point $-1 -65.969146216582232 25.264467235484865 2.7779543026787703 #
point $-1 -69.025543992431409 -28.133486285827814 5.8533655630665775 #
straight-curve $-1 0 -28.133486285827814 5.8533655630665775 1 0 0 I I #
straight-curve $-1 -69.025543992431409 28.133486285827814 0 0 0 -1 I I #
End-of-ACIS-data 