500 0 4 0           
7 Unknown 11 ACIS 5.0 NT 24 Fri Mar 26 15:26:28 1999 
-1 9.9999999999999995e-007 1e-010 
body $-1 $4 $-1 $5 #
body $-1 $6 $-1 $7 #
body $-1 $8 $-1 $9 #
body $-1 $10 $-1 $11 #
lump $-1 $-1 $12 $0 #
transform $-1 1 0 0 0 1 0 0 0 1 60.835596789452801 37.255142438932999 17.024782612143163 1 rotate no_reflect no_shear #
lump $-1 $-1 $13 $1 #
transform $-1 1 0 0 0 1 0 0 0 1 60.835596789452801 37.255142438932999 17.024782612143163 1 rotate no_reflect no_shear #
lump $-1 $-1 $14 $2 #
transform $-1 1 0 0 0 1 0 0 0 1 60.835596789452801 37.255142438932999 17.024782612143163 1 rotate no_reflect no_shear #
lump $-1 $-1 $15 $3 #
transform $-1 1 0 0 0 1 0 0 0 1 60.835596789452801 37.255142438932999 17.024782612143163 1 rotate no_reflect no_shear #
shell $-1 $-1 $-1 $16 $-1 $4 #
shell $-1 $-1 $-1 $17 $-1 $6 #
shell $-1 $-1 $-1 $18 $-1 $8 #
shell $-1 $-1 $-1 $19 $-1 $10 #
face $-1 $20 $21 $12 $-1 $22 forward single #
face $-1 $23 $24 $13 $-1 $25 reversed single #
face $-1 $26 $27 $14 $-1 $28 forward single #
face $-1 $29 $30 $15 $-1 $31 forward single #
face $-1 $32 $33 $12 $-1 $34 reversed single #
loop $-1 $-1 $35 $16 #
plane-surface $-1 0 0 17.024782612143163 0 0 1 1 0 0 forward_v I I I I #
face $-1 $36 $37 $13 $-1 $38 reversed single #
loop $-1 $-1 $39 $17 #
plane-surface $-1 -3.3028572027827039 73.018883097388567 145.53049784079263 1 0 0 0 -0.71933980857756763 -0.69465836192734942 forward_v I I I I #
face $-1 $40 $41 $14 $-1 $42 forward single #
loop $-1 $43 $44 $18 #
cone-surface $-1 5.7244134313792827 31.309715332519758 10.95919487820982 0 -0.71933980857756763 -0.69465836192734942 2.5 0 0 1 I I 0 1 2.5 forward I I I I #
face $-1 $45 $46 $15 $-1 $47 forward single #
loop $-1 $48 $49 $19 #
cone-surface $-1 19.265319382622259 31.309715332519758 10.95919487820982 0 -0.71933980857756763 -0.69465836192734942 2.5 0 0 1 I I 0 1 2.5 forward I I I I #
face $-1 $50 $51 $12 $-1 $52 reversed single #
loop $-1 $-1 $53 $20 #
plane-surface $-1 0 0 -17.024782612143163 0 0 1 1 0 0 forward_v I I I I #
coedge $-1 $54 $55 $56 $57 forward $21 $-1 #
face $-1 $58 $59 $13 $-1 $60 reversed single #
loop $-1 $-1 $61 $23 #
plane-surface $-1 12.494866407000764 -14.504050001065579 61.010585815524621 0 0.71933980857756763 0.69465836192734942 1 0 0 forward_v I I I I #
coedge $-1 $62 $63 $64 $65 reversed $24 $-1 #
face $-1 $-1 $66 $14 $-1 $67 forward single #
loop $-1 $68 $69 $26 #
cone-surface $-1 5.7244134313792827 29.106411987290507 8.8314896207286324 0 -0.71933980857756763 -0.69465836192734942 1.25 0 0 1 I I -0.70710678118654746 0.70710678118654746 1.25 forward I I I I #
loop $-1 $-1 $70 $18 #
coedge $-1 $44 $44 $71 $72 reversed $27 $-1 #
face $-1 $-1 $73 $15 $-1 $74 forward single #
loop $-1 $75 $76 $29 #
cone-surface $-1 19.265319382622259 29.106411987290507 8.8314896207286324 0 -0.71933980857756763 -0.69465836192734942 1.25 0 0 1 I I -0.70710678118654746 0.70710678118654746 1.25 forward I I I I #
loop $-1 $-1 $77 $19 #
coedge $-1 $49 $49 $78 $79 reversed $30 $-1 #
face $-1 $80 $81 $12 $-1 $82 reversed single #
loop $-1 $-1 $83 $32 #
plane-surface $-1 0 -37.255142438932999 0 0 1 0 0 0 1 forward_v I I I I #
coedge $-1 $84 $85 $86 $87 forward $33 $-1 #
coedge $-1 $88 $35 $89 $90 forward $21 $-1 #
coedge $-1 $35 $88 $91 $92 forward $21 $-1 #
coedge $-1 $93 $94 $35 $57 reversed $95 $-1 #
edge $-1 $96 -37.255142438932999 $97 37.255142438932999 $56 $98 forward 7 unknown #
face $-1 $99 $100 $13 $-1 $101 reversed single #
loop $-1 $-1 $102 $36 #
plane-surface $-1 28.292590016784231 73.018883097388567 145.53049784079263 -1 0 0 0 0.71933980857756763 0.69465836192734942 forward_v I I I I #
coedge $-1 $103 $104 $105 $106 reversed $37 $-1 #
coedge $-1 $63 $39 $107 $108 reversed $24 $-1 #
coedge $-1 $39 $62 $103 $109 reversed $24 $-1 #
coedge $-1 $105 $110 $39 $65 forward $111 $-1 #
edge $-1 $112 -0.74570089023871589 $113 8.5368961535731742 $64 $114 forward 7 unknown #
loop $-1 $-1 $71 $40 #
plane-surface $-1 12.494866407000764 -14.504050001065579 61.010585815524621 0 0.71933980857756763 0.69465836192734942 1 0 0 forward_v I I I I #
loop $-1 $-1 $115 $26 #
coedge $-1 $69 $69 $70 $116 reversed $41 $-1 #
coedge $-1 $70 $70 $69 $116 forward $43 $-1 #
coedge $-1 $71 $71 $44 $72 forward $66 $-1 #
edge $-1 $117 -1.0923922415571554e-015 $117 6.2831853071795996 $71 $118 forward 7 unknown #
loop $-1 $-1 $78 $45 #
plane-surface $-1 12.494866407000764 -14.504050001065579 61.010585815524621 0 0.71933980857756763 0.69465836192734942 1 0 0 forward_v I I I I #
loop $-1 $-1 $119 $29 #
coedge $-1 $76 $76 $77 $120 reversed $46 $-1 #
coedge $-1 $77 $77 $76 $120 forward $48 $-1 #
coedge $-1 $78 $78 $49 $79 forward $73 $-1 #
edge $-1 $121 -1.0923922415571554e-015 $121 6.2831853071795996 $78 $122 forward 7 unknown #
face $-1 $123 $124 $12 $-1 $125 reversed single #
loop $-1 $-1 $126 $50 #
plane-surface $-1 -60.835596789452801 0 0 1 0 0 0 0 -1 forward_v I I I I #
coedge $-1 $127 $91 $128 $129 forward $51 $-1 #
coedge $-1 $130 $53 $127 $131 forward $33 $-1 #
coedge $-1 $53 $130 $132 $133 forward $33 $-1 #
coedge $-1 $94 $93 $53 $87 reversed $95 $-1 #
edge $-1 $134 -37.255142438932999 $135 37.255142438932999 $86 $136 forward 7 unknown #
coedge $-1 $55 $54 $137 $138 forward $21 $-1 #
coedge $-1 $139 $140 $54 $90 reversed $124 $-1 #
edge $-1 $97 -60.835596789452801 $141 60.835596789452801 $89 $142 forward 7 unknown #
coedge $-1 $83 $143 $55 $92 reversed $51 $-1 #
edge $-1 $144 -60.835596789452801 $96 60.835596789452801 $91 $145 forward 7 unknown #
coedge $-1 $86 $56 $143 $146 forward $95 $-1 #
coedge $-1 $56 $86 $139 $147 reversed $95 $-1 #
loop $-1 $-1 $93 $123 #
vertex $-1 $57 $148 #
vertex $-1 $57 $149 #
straight-curve $-1 60.835596789452801 0 17.024782612143163 0 1 0 I I #
face $-1 $-1 $111 $13 $-1 $150 forward single #
loop $-1 $-1 $151 $58 #
plane-surface $-1 0 37.255142438932999 0 0 -1 0 0 0 -1 forward_v I I I I #
coedge $-1 $152 $153 $154 $155 reversed $59 $-1 #
coedge $-1 $156 $61 $63 $109 forward $37 $-1 #
coedge $-1 $61 $156 $152 $157 forward $37 $-1 #
coedge $-1 $154 $64 $61 $106 forward $111 $-1 #
edge $-1 $113 -9.5502904062830858 $158 22.04515681328385 $105 $159 forward 7 unknown #
coedge $-1 $160 $161 $62 $108 forward $100 $-1 #
edge $-1 $162 -65.352877165975883 $112 -55.740466308253154 $107 $163 forward 7 unknown #
edge $-1 $113 61.147461434616815 $162 74.510284877866042 $63 $164 forward 7 unknown #
coedge $-1 $64 $154 $160 $165 forward $111 $-1 #
loop $-1 $-1 $154 $99 #
vertex $-1 $108 $166 #
vertex $-1 $65 $167 #
straight-curve $-1 -3.3028572027827039 36.509441548694284 17.024782612143156 0 -1 0 I I #
coedge $-1 $115 $115 $-1 $168 reversed $68 $-1 #
edge $-1 $169 0 $169 6.2831853071796004 $69 $170 forward 7 unknown #
vertex $-1 $72 $171 #
ellipse-curve $-1 5.7244134313792827 32.61384391702704 12.218577183281807 0 0.71933980857756763 0.69465836192734942 2.5 0 0 1 I I #
coedge $-1 $119 $119 $-1 $172 reversed $75 $-1 #
edge $-1 $173 0 $173 6.2831853071796004 $76 $174 forward 7 unknown #
vertex $-1 $79 $175 #
ellipse-curve $-1 19.265319382622259 32.61384391702704 12.218577183281807 0 0.71933980857756763 0.69465836192734942 2.5 0 0 1 I I #
face $-1 $-1 $95 $12 $-1 $176 reversed single #
loop $-1 $-1 $139 $80 #
plane-surface $-1 0 37.255142438932999 0 0 -1 0 0 0 -1 forward_v I I I I #
coedge $-1 $177 $137 $140 $178 forward $81 $-1 #
coedge $-1 $143 $83 $84 $131 reversed $51 $-1 #
coedge $-1 $137 $177 $83 $129 reversed $81 $-1 #
edge $-1 $144 -17.024782612143163 $179 17.024782612143163 $128 $180 forward 7 unknown #
coedge $-1 $85 $84 $177 $181 forward $33 $-1 #
edge $-1 $135 -60.835596789452801 $179 60.835596789452801 $127 $182 forward 7 unknown #
coedge $-1 $140 $139 $85 $133 reversed $124 $-1 #
edge $-1 $183 -60.835596789452801 $134 60.835596789452801 $132 $184 forward 7 unknown #
vertex $-1 $87 $185 #
vertex $-1 $146 $186 #
straight-curve $-1 60.835596789452801 0 -17.024782612143163 0 -1 0 I I #
coedge $-1 $126 $128 $88 $138 reversed $81 $-1 #
edge $-1 $141 -37.255142438932999 $144 37.255142438932999 $137 $187 forward 7 unknown #
coedge $-1 $132 $89 $94 $147 forward $124 $-1 #
coedge $-1 $89 $132 $126 $178 reversed $124 $-1 #
vertex $-1 $90 $188 #
straight-curve $-1 0 37.255142438932999 17.024782612143163 -1 0 0 I I #
coedge $-1 $91 $127 $93 $146 reversed $51 $-1 #
vertex $-1 $138 $189 #
straight-curve $-1 0 -37.255142438932999 17.024782612143163 1 0 0 I I #
edge $-1 $96 -17.024782612143163 $135 17.024782612143163 $93 $190 forward 7 unknown #
edge $-1 $97 -17.024782612143163 $134 17.024782612143163 $94 $191 forward 7 unknown #
point $-1 60.835596789452801 -37.255142438932999 17.024782612143163 #
point $-1 60.835596789452801 37.255142438932999 17.024782612143163 #
plane-surface $-1 0 0 17.024782612143163 0 0 1 1 0 0 forward_v I I I I #
coedge $-1 $161 $160 $153 $192 forward $100 $-1 #
coedge $-1 $153 $102 $104 $157 reversed $59 $-1 #
coedge $-1 $102 $152 $151 $192 reversed $59 $-1 #
coedge $-1 $110 $105 $102 $155 forward $111 $-1 #
edge $-1 $158 -8.5368961535731742 $193 0.74570089023871589 $154 $194 forward 7 unknown #
coedge $-1 $104 $103 $161 $195 reversed $37 $-1 #
edge $-1 $196 -74.510284877866042 $158 -61.147461434616815 $152 $197 forward 7 unknown #
vertex $-1 $106 $198 #
straight-curve $-1 6.2474332035003819 27.972545395121102 17.024782612143166 1 0 0 I I #
coedge $-1 $151 $107 $110 $165 reversed $100 $-1 #
coedge $-1 $107 $151 $156 $195 forward $100 $-1 #
vertex $-1 $108 $199 #
straight-curve $-1 -3.3028572027827039 37.255142438932999 72.765248920396317 0 0 1 I I #
straight-curve $-1 -3.3028572027827039 -14.504050001065579 61.010585815524621 0 0.69465836192734942 -0.71933980857756763 I I #
edge $-1 $193 -28.292590016784231 $112 3.3028572027827039 $160 $200 forward 7 unknown #
point $-1 -3.3028572027827039 37.255142438932999 17.024782612143163 #
point $-1 -3.3028572027827039 27.972545395121109 17.024782612143163 #
edge $-1 $201 1 $201 0 $115 $-1 forward 7 unknown #
vertex $-1 $116 $202 #
ellipse-curve $-1 5.7244134313792827 30.005586748012465 9.6998125731378195 0 0.71933980857756763 0.69465836192734942 2.5 0 0 1 I I #
point $-1 8.2244134313792827 32.613843917027047 12.218577183281818 #
edge $-1 $203 1 $203 0 $119 $-1 forward 7 unknown #
vertex $-1 $120 $204 #
ellipse-curve $-1 19.265319382622259 30.005586748012465 9.6998125731378195 0 0.71933980857756763 0.69465836192734942 2.5 0 0 1 I I #
point $-1 21.765319382622259 32.613843917027047 12.218577183281818 #
plane-surface $-1 60.835596789452801 0 0 -1 0 0 0 0 1 forward_v I I I I #
coedge $-1 $128 $126 $130 $181 reversed $81 $-1 #
edge $-1 $141 -17.024782612143163 $183 17.024782612143163 $140 $205 forward 7 unknown #
vertex $-1 $181 $206 #
straight-curve $-1 -60.835596789452801 -37.255142438932999 0 0 0 -1 I I #
edge $-1 $179 -37.255142438932999 $183 37.255142438932999 $177 $207 forward 7 unknown #
straight-curve $-1 0 -37.255142438932999 -17.024782612143163 -1 0 0 I I #
vertex $-1 $133 $208 #
straight-curve $-1 0 37.255142438932999 -17.024782612143163 1 0 0 I I #
point $-1 60.835596789452801 37.255142438932999 -17.024782612143163 #
point $-1 60.835596789452801 -37.255142438932999 -17.024782612143163 #
straight-curve $-1 -60.835596789452801 0 17.024782612143163 0 -1 0 I I #
point $-1 -60.835596789452801 37.255142438932999 17.024782612143163 #
point $-1 -60.835596789452801 -37.255142438932999 17.024782612143163 #
straight-curve $-1 60.835596789452801 -37.255142438932999 0 0 0 -1 I I #
straight-curve $-1 60.835596789452801 37.255142438932999 0 0 0 -1 I I #
edge $-1 $193 55.740466308253154 $196 65.352877165975883 $151 $209 forward 7 unknown #
vertex $-1 $165 $210 #
straight-curve $-1 28.292590016784231 36.509441548694284 17.024782612143156 0 1 0 I I #
edge $-1 $196 -22.04515681328385 $162 9.5502904062830858 $161 $211 forward 7 unknown #
vertex $-1 $195 $212 #
straight-curve $-1 28.292590016784231 -14.504050001065579 61.010585815524621 0 -0.69465836192734942 0.71933980857756763 I I #
point $-1 28.292590016784231 27.972545395121109 17.024782612143163 #
point $-1 -3.3028572027827039 37.255142438932999 7.4123717544204339 #
straight-curve $-1 0 37.255142438932999 17.024782612143163 -1 0 0 I I #
vertex $-1 $168 $213 #
point $-1 8.2244134313792827 30.005586748012465 9.6998125731378195 #
vertex $-1 $172 $214 #
point $-1 21.765319382622259 30.005586748012465 9.6998125731378195 #
straight-curve $-1 -60.835596789452801 37.255142438932999 0 0 0 -1 I I #
point $-1 -60.835596789452801 -37.255142438932999 -17.024782612143163 #
straight-curve $-1 -60.835596789452801 0 -17.024782612143163 0 1 0 I I #
point $-1 -60.835596789452801 37.255142438932999 -17.024782612143163 #
straight-curve $-1 28.292590016784231 37.255142438932999 72.765248920396317 0 0 -1 I I #
point $-1 28.292590016784231 37.255142438932999 17.024782612143163 #
straight-curve $-1 6.2474332035003819 37.255142438932992 7.4123717544204339 -1 0 0 I I #
point $-1 28.292590016784231 37.255142438932999 7.4123717544204339 #
point $-1 5.7244134313792827 28.207237226568548 7.9631666683194453 #
point $-1 19.265319382622259 28.207237226568548 7.9631666683194453 #
End-of-ACIS-data 