500 0 15 0           
7 Unknown 11 ACIS 5.0 NT 24 Thu Mar 25 18:51:54 1999 
-1 9.9999999999999995e-007 1e-010 
body $-1 $15 $-1 $16 #
body $-1 $17 $-1 $18 #
body $-1 $19 $-1 $20 #
body $-1 $21 $-1 $22 #
body $-1 $23 $-1 $24 #
body $-1 $25 $-1 $26 #
body $-1 $27 $-1 $28 #
body $-1 $29 $-1 $30 #
body $-1 $31 $-1 $32 #
body $-1 $33 $-1 $34 #
body $-1 $35 $-1 $36 #
body $-1 $37 $-1 $38 #
body $-1 $39 $-1 $40 #
body $-1 $41 $-1 $42 #
body $-1 $43 $-1 $44 #
lump $-1 $-1 $45 $0 #
transform $-1 1 0 0 0 1 0 0 0 1 77.329020050660716 37.829553901976873 16.84221568005033 1 rotate no_reflect no_shear #
lump $-1 $-1 $46 $1 #
transform $-1 1 0 0 0 1 0 0 0 1 77.329020050660716 37.829553901976873 16.84221568005033 1 rotate no_reflect no_shear #
lump $-1 $-1 $47 $2 #
transform $-1 1 0 0 0 1 0 0 0 1 77.329020050660716 37.829553901976873 16.84221568005033 1 rotate no_reflect no_shear #
lump $-1 $-1 $48 $3 #
transform $-1 1 0 0 0 1 0 0 0 1 77.329020050660716 37.829553901976873 16.84221568005033 1 rotate no_reflect no_shear #
lump $-1 $-1 $49 $4 #
transform $-1 1 0 0 0 1 0 0 0 1 77.329020050660716 37.829553901976873 16.84221568005033 1 rotate no_reflect no_shear #
lump $-1 $-1 $50 $5 #
transform $-1 1 0 0 0 1 0 0 0 1 77.329020050660716 37.829553901976873 16.84221568005033 1 rotate no_reflect no_shear #
lump $-1 $-1 $51 $6 #
transform $-1 1 0 0 0 1 0 0 0 1 77.329020050660716 37.829553901976873 16.84221568005033 1 rotate no_reflect no_shear #
lump $-1 $-1 $52 $7 #
transform $-1 1 0 0 0 1 0 0 0 1 77.329020050660716 37.829553901976873 16.84221568005033 1 rotate no_reflect no_shear #
lump $-1 $-1 $53 $8 #
transform $-1 1 0 0 0 1 0 0 0 1 77.329020050660716 37.829553901976873 16.84221568005033 1 rotate no_reflect no_shear #
lump $-1 $-1 $54 $9 #
transform $-1 1 0 0 0 1 0 0 0 1 77.329020050660716 37.829553901976873 16.84221568005033 1 rotate no_reflect no_shear #
lump $-1 $-1 $55 $10 #
transform $-1 1 0 0 0 1 0 0 0 1 77.329020050660716 37.829553901976873 16.84221568005033 1 rotate no_reflect no_shear #
lump $-1 $-1 $56 $11 #
transform $-1 1 0 0 0 1 0 0 0 1 77.329020050660716 37.829553901976873 16.84221568005033 1 rotate no_reflect no_shear #
lump $-1 $-1 $57 $12 #
transform $-1 1 0 0 0 1 0 0 0 1 77.329020050660716 37.829553901976873 16.84221568005033 1 rotate no_reflect no_shear #
lump $-1 $-1 $58 $13 #
transform $-1 1 0 0 0 1 0 0 0 1 77.329020050660716 37.829553901976873 16.84221568005033 1 rotate no_reflect no_shear #
lump $-1 $-1 $59 $14 #
transform $-1 1 0 0 0 1 0 0 0 1 77.329020050660716 37.829553901976873 16.84221568005033 1 rotate no_reflect no_shear #
shell $-1 $-1 $-1 $60 $-1 $15 #
shell $-1 $-1 $-1 $61 $-1 $17 #
shell $-1 $-1 $-1 $62 $-1 $19 #
shell $-1 $-1 $-1 $63 $-1 $21 #
shell $-1 $-1 $-1 $64 $-1 $23 #
shell $-1 $-1 $-1 $65 $-1 $25 #
shell $-1 $-1 $-1 $66 $-1 $27 #
shell $-1 $-1 $-1 $67 $-1 $29 #
shell $-1 $-1 $-1 $68 $-1 $31 #
shell $-1 $-1 $-1 $69 $-1 $33 #
shell $-1 $-1 $-1 $70 $-1 $35 #
shell $-1 $-1 $-1 $71 $-1 $37 #
shell $-1 $-1 $-1 $72 $-1 $39 #
shell $-1 $-1 $-1 $73 $-1 $41 #
shell $-1 $-1 $-1 $74 $-1 $43 #
face $-1 $75 $76 $45 $-1 $77 forward single #
face $-1 $78 $79 $46 $-1 $80 reversed single #
face $-1 $81 $82 $47 $-1 $83 forward single #
face $-1 $84 $85 $48 $-1 $86 reversed single #
face $-1 $87 $88 $49 $-1 $89 forward single #
face $-1 $90 $91 $50 $-1 $92 forward single #
face $-1 $93 $94 $51 $-1 $95 reversed single #
face $-1 $96 $97 $52 $-1 $98 forward single #
face $-1 $99 $100 $53 $-1 $101 forward single #
face $-1 $102 $103 $54 $-1 $104 reversed single #
face $-1 $105 $106 $55 $-1 $107 forward single #
face $-1 $108 $109 $56 $-1 $110 forward single #
face $-1 $111 $112 $57 $-1 $113 reversed single #
face $-1 $114 $115 $58 $-1 $116 forward single #
face $-1 $117 $118 $59 $-1 $119 forward single #
face $-1 $120 $121 $45 $-1 $122 reversed single #
loop $-1 $-1 $123 $60 #
plane-surface $-1 0 0 16.84221568005033 0 0 1 1 0 0 forward_v I I I I #
face $-1 $124 $125 $46 $-1 $126 reversed single #
loop $-1 $-1 $127 $61 #
plane-surface $-1 0 -31.048833768047054 9.2838556966786427 0 0 1 1 0 0 forward_v I I I I #
face $-1 $128 $129 $47 $-1 $130 reversed single #
loop $-1 $-1 $131 $62 #
plane-surface $-1 0 37.829553901976873 0 0 -1 0 0 0 -1 forward_v I I I I #
face $-1 $132 $133 $48 $-1 $134 reversed single #
loop $-1 $-1 $135 $63 #
plane-surface $-1 -156.98380035340443 -14.757111223687167 133.10896462436142 0 1 0 -0.51503808176128008 0 0.85716729658548041 forward_v I I I I #
face $-1 $136 $137 $49 $-1 $138 forward single #
loop $-1 $139 $140 $64 #
cone-surface $-1 -63.152889095463003 -11.360307679194594 7.6741974899391563 0.51503808176128008 0 -0.85716729658548041 0.85716729658548041 0 0.51503808176128008 1 I I 0 1 1 forward I I I I #
face $-1 $141 $142 $50 $-1 $143 forward single #
loop $-1 $144 $145 $65 #
cone-surface $-1 -63.152889095463003 -6.2651023624557425 7.6741974899391563 0.51503808176128008 0 -0.85716729658548041 0.85716729658548041 0 0.51503808176128008 1 I I 0 1 1 forward I I I I #
face $-1 $146 $147 $51 $-1 $148 reversed single #
loop $-1 $-1 $149 $66 #
plane-surface $-1 -156.98380035340443 9.9735555374369387 133.10896462436142 0 1 0 -0.51503808176128008 0 0.85716729658548041 forward_v I I I I #
face $-1 $150 $151 $52 $-1 $152 forward single #
loop $-1 $153 $154 $67 #
cone-surface $-1 -63.152889095463003 13.370359081929514 7.6741974899391563 0.51503808176128008 0 -0.85716729658548041 0.85716729658548041 0 0.51503808176128008 1 I I 0 1 1 forward I I I I #
face $-1 $155 $156 $53 $-1 $157 forward single #
loop $-1 $158 $159 $68 #
cone-surface $-1 -63.152889095463003 18.465564398668363 7.6741974899391563 0.51503808176128008 0 -0.85716729658548041 0.85716729658548041 0 0.51503808176128008 1 I I 0 1 1 forward I I I I #
face $-1 $160 $161 $54 $-1 $162 reversed single #
loop $-1 $-1 $163 $69 #
plane-surface $-1 24.415986224545918 -2.8682988179631739 212.76374492710517 0 -1 0 -0.51503808176128008 0 -0.85716729658548041 forward_v I I I I #
face $-1 $164 $165 $55 $-1 $166 forward single #
loop $-1 $167 $168 $70 #
cone-surface $-1 63.152889095463003 -11.360307679194594 7.6741974899391705 -0.51503808176128008 0 -0.85716729658548041 0.85716729658548041 0 -0.51503808176128008 1 I I 0 1 1 forward I I I I #
face $-1 $169 $170 $56 $-1 $171 forward single #
loop $-1 $172 $173 $71 #
cone-surface $-1 63.152889095463003 -6.2651023624557425 7.6741974899391705 -0.51503808176128008 0 -0.85716729658548041 0.85716729658548041 0 -0.51503808176128008 1 I I 0 1 1 forward I I I I #
face $-1 $174 $175 $57 $-1 $176 reversed single #
loop $-1 $-1 $177 $72 #
plane-surface $-1 24.415986224545918 21.862367943160933 212.76374492710517 0 -1 0 -0.51503808176128008 0 -0.85716729658548041 forward_v I I I I #
face $-1 $178 $179 $58 $-1 $180 forward single #
loop $-1 $181 $182 $73 #
cone-surface $-1 63.152889095463003 13.370359081929514 7.6741974899391705 -0.51503808176128008 0 -0.85716729658548041 0.85716729658548041 0 -0.51503808176128008 1 I I 0 1 1 forward I I I I #
face $-1 $183 $184 $59 $-1 $185 forward single #
loop $-1 $186 $187 $74 #
cone-surface $-1 63.152889095463003 18.465564398668363 7.6741974899391705 -0.51503808176128008 0 -0.85716729658548041 0.85716729658548041 0 -0.51503808176128008 1 I I 0 1 1 forward I I I I #
face $-1 $188 $189 $45 $-1 $190 reversed single #
loop $-1 $-1 $191 $75 #
plane-surface $-1 0 0 -16.84221568005033 0 0 1 1 0 0 forward_v I I I I #
coedge $-1 $192 $193 $194 $195 forward $76 $-1 #
face $-1 $196 $197 $46 $-1 $198 reversed single #
loop $-1 $-1 $199 $78 #
plane-surface $-1 0 -24.268113634117235 13.063035688364486 0 -1 0 0 0 -1 forward_v I I I I #
coedge $-1 $200 $201 $202 $203 reversed $79 $-1 #
face $-1 $204 $205 $47 $-1 $206 forward single #
loop $-1 $-1 $207 $81 #
plane-surface $-1 77.329020050660716 0 0 -1 0 0 0 0 1 forward_v I I I I #
coedge $-1 $208 $209 $210 $211 forward $82 $-1 #
face $-1 $212 $213 $48 $-1 $214 reversed single #
loop $-1 $-1 $215 $84 #
plane-surface $-1 -77.329020050660716 -8.8127050208251703 0.5411504955029045 -0.51503808176128008 0 0.85716729658548041 0.85716729658548041 0 0.51503808176128008 forward_v I I I I #
coedge $-1 $216 $217 $218 $219 reversed $85 $-1 #
face $-1 $-1 $220 $49 $-1 $221 forward single #
loop $-1 $222 $223 $87 #
cone-surface $-1 -62.284003017345327 -11.360307679194594 6.2281282438089391 0.51503808176128008 0 -0.85716729658548041 0.4285836482927402 0 0.25751904088064004 1 I I -0.70710678118654746 0.70710678118654746 0.5 forward I I I I #
loop $-1 $-1 $224 $64 #
coedge $-1 $140 $140 $225 $226 reversed $88 $-1 #
face $-1 $-1 $227 $50 $-1 $228 forward single #
loop $-1 $229 $230 $90 #
cone-surface $-1 -62.284003017345327 -6.2651023624557425 6.2281282438089391 0.51503808176128008 0 -0.85716729658548041 0.4285836482927402 0 0.25751904088064004 1 I I -0.70710678118654746 0.70710678118654746 0.5 forward I I I I #
loop $-1 $-1 $231 $65 #
coedge $-1 $145 $145 $232 $233 reversed $91 $-1 #
face $-1 $234 $235 $51 $-1 $236 reversed single #
loop $-1 $-1 $237 $93 #
plane-surface $-1 -77.329020050660716 15.917961740298935 0.5411504955029045 -0.51503808176128008 0 0.85716729658548041 0.85716729658548041 0 0.51503808176128008 forward_v I I I I #
coedge $-1 $238 $239 $240 $241 reversed $94 $-1 #
face $-1 $-1 $242 $52 $-1 $243 forward single #
loop $-1 $244 $245 $96 #
cone-surface $-1 -62.284003017345327 13.370359081929514 6.2281282438089391 0.51503808176128008 0 -0.85716729658548041 0.4285836482927402 0 0.25751904088064004 1 I I -0.70710678118654746 0.70710678118654746 0.5 forward I I I I #
loop $-1 $-1 $246 $67 #
coedge $-1 $154 $154 $247 $248 reversed $97 $-1 #
face $-1 $-1 $249 $53 $-1 $250 forward single #
loop $-1 $251 $252 $99 #
cone-surface $-1 -62.284003017345327 18.465564398668363 6.2281282438089391 0.51503808176128008 0 -0.85716729658548041 0.4285836482927402 0 0.25751904088064004 1 I I -0.70710678118654746 0.70710678118654746 0.5 forward I I I I #
loop $-1 $-1 $253 $68 #
coedge $-1 $159 $159 $254 $255 reversed $100 $-1 #
face $-1 $256 $257 $54 $-1 $258 reversed single #
loop $-1 $-1 $259 $102 #
plane-surface $-1 -55.238794078197799 -8.8127050208251703 80.19593079824665 0.51503808176128008 0 0.85716729658548041 0.85716729658548041 0 -0.51503808176128008 forward_v I I I I #
coedge $-1 $260 $261 $262 $263 reversed $103 $-1 #
face $-1 $-1 $264 $55 $-1 $265 forward single #
loop $-1 $266 $267 $105 #
cone-surface $-1 62.284003017345327 -11.360307679194594 6.2281282438089534 -0.51503808176128008 0 -0.85716729658548041 0.4285836482927402 0 -0.25751904088064004 1 I I -0.70710678118654746 0.70710678118654746 0.5 forward I I I I #
loop $-1 $-1 $268 $70 #
coedge $-1 $168 $168 $269 $270 reversed $106 $-1 #
face $-1 $-1 $271 $56 $-1 $272 forward single #
loop $-1 $273 $274 $108 #
cone-surface $-1 62.284003017345327 -6.2651023624557425 6.2281282438089534 -0.51503808176128008 0 -0.85716729658548041 0.4285836482927402 0 -0.25751904088064004 1 I I -0.70710678118654746 0.70710678118654746 0.5 forward I I I I #
loop $-1 $-1 $275 $71 #
coedge $-1 $173 $173 $276 $277 reversed $109 $-1 #
face $-1 $278 $279 $57 $-1 $280 reversed single #
loop $-1 $-1 $281 $111 #
plane-surface $-1 -55.238794078197799 15.917961740298935 80.19593079824665 0.51503808176128008 0 0.85716729658548041 0.85716729658548041 0 -0.51503808176128008 forward_v I I I I #
coedge $-1 $282 $283 $284 $285 reversed $112 $-1 #
face $-1 $-1 $286 $58 $-1 $287 forward single #
loop $-1 $288 $289 $114 #
cone-surface $-1 62.284003017345327 13.370359081929514 6.2281282438089534 -0.51503808176128008 0 -0.85716729658548041 0.4285836482927402 0 -0.25751904088064004 1 I I -0.70710678118654746 0.70710678118654746 0.5 forward I I I I #
loop $-1 $-1 $290 $73 #
coedge $-1 $182 $182 $291 $292 reversed $115 $-1 #
face $-1 $-1 $293 $59 $-1 $294 forward single #
loop $-1 $295 $296 $117 #
cone-surface $-1 62.284003017345327 18.465564398668363 6.2281282438089534 -0.51503808176128008 0 -0.85716729658548041 0.4285836482927402 0 -0.25751904088064004 1 I I -0.70710678118654746 0.70710678118654746 0.5 forward I I I I #
loop $-1 $-1 $297 $74 #
coedge $-1 $187 $187 $298 $299 reversed $118 $-1 #
face $-1 $300 $301 $45 $-1 $302 reversed single #
loop $-1 $-1 $303 $120 #
plane-surface $-1 0 -37.829553901976873 0 0 1 0 0 0 1 forward_v I I I I #
coedge $-1 $304 $305 $306 $307 forward $121 $-1 #
coedge $-1 $308 $123 $309 $310 forward $76 $-1 #
coedge $-1 $123 $308 $311 $312 forward $76 $-1 #
coedge $-1 $313 $314 $123 $195 reversed $315 $-1 #
edge $-1 $316 -37.829553901976873 $317 37.829553901976873 $194 $318 forward 7 unknown #
face $-1 $319 $320 $46 $-1 $321 reversed single #
loop $-1 $-1 $322 $124 #
plane-surface $-1 -77.329020050660716 0 0 1 0 0 0 0 -1 forward_v I I I I #
coedge $-1 $323 $324 $325 $326 reversed $125 $-1 #
coedge $-1 $327 $127 $328 $329 reversed $79 $-1 #
coedge $-1 $127 $327 $323 $330 forward $79 $-1 #
coedge $-1 $325 $331 $127 $203 forward $332 $-1 #
edge $-1 $333 -22.305137017953346 $334 -8.7436967500937079 $202 $335 forward 7 unknown #
face $-1 $336 $337 $47 $-1 $338 reversed single #
loop $-1 $-1 $339 $128 #
plane-surface $-1 0 44.147720908899821 -12.841964581336388 0 0 1 1 0 0 forward_v I I I I #
coedge $-1 $340 $341 $209 $342 forward $129 $-1 #
coedge $-1 $343 $131 $344 $345 reversed $82 $-1 #
coedge $-1 $131 $343 $207 $342 reversed $82 $-1 #
coedge $-1 $339 $346 $131 $211 reversed $205 $-1 #
edge $-1 $347 -77.329020050660716 $348 77.329020050660716 $210 $349 forward 7 unknown #
face $-1 $350 $351 $48 $-1 $352 reversed single #
loop $-1 $-1 $353 $132 #
plane-surface $-1 -156.98380035340443 -2.8682988179631739 133.10896462436142 0 -1 0 0.51503808176128008 0 -0.85716729658548041 forward_v I I I I #
coedge $-1 $354 $355 $356 $357 reversed $133 $-1 #
coedge $-1 $217 $135 $358 $359 reversed $85 $-1 #
coedge $-1 $135 $216 $354 $360 reversed $85 $-1 #
coedge $-1 $356 $361 $135 $219 forward $362 $-1 #
edge $-1 $363 1.1628801260415003 $364 28.292407961962908 $218 $365 forward 7 unknown #
loop $-1 $-1 $225 $136 #
plane-surface $-1 -77.329020050660716 -8.8127050208251703 0.5411504955029045 -0.51503808176128008 0 0.85716729658548041 0.85716729658548041 0 0.51503808176128008 forward_v I I I I #
loop $-1 $-1 $366 $87 #
coedge $-1 $223 $223 $224 $367 reversed $137 $-1 #
coedge $-1 $224 $224 $223 $367 forward $139 $-1 #
coedge $-1 $225 $225 $140 $226 forward $220 $-1 #
edge $-1 $368 0 $368 6.2831853071796004 $225 $369 forward 7 unknown #
loop $-1 $-1 $232 $141 #
plane-surface $-1 -77.329020050660716 -8.8127050208251703 0.5411504955029045 -0.51503808176128008 0 0.85716729658548041 0.85716729658548041 0 0.51503808176128008 forward_v I I I I #
loop $-1 $-1 $370 $90 #
coedge $-1 $230 $230 $231 $371 reversed $142 $-1 #
coedge $-1 $231 $231 $230 $371 forward $144 $-1 #
coedge $-1 $232 $232 $145 $233 forward $227 $-1 #
edge $-1 $372 0 $372 6.2831853071796004 $232 $373 forward 7 unknown #
face $-1 $374 $375 $51 $-1 $376 forward single #
loop $-1 $-1 $377 $146 #
plane-surface $-1 -156.98380035340443 21.862367943160933 133.10896462436142 0 -1 0 0.51503808176128008 0 -0.85716729658548041 forward_v I I I I #
coedge $-1 $378 $379 $380 $381 reversed $147 $-1 #
coedge $-1 $239 $149 $382 $383 reversed $94 $-1 #
coedge $-1 $149 $238 $378 $384 reversed $94 $-1 #
coedge $-1 $380 $385 $149 $241 forward $375 $-1 #
edge $-1 $386 1.1628801260415003 $387 28.292407961962908 $240 $388 forward 7 unknown #
loop $-1 $-1 $247 $150 #
plane-surface $-1 -77.329020050660716 15.917961740298935 0.5411504955029045 -0.51503808176128008 0 0.85716729658548041 0.85716729658548041 0 0.51503808176128008 forward_v I I I I #
loop $-1 $-1 $389 $96 #
coedge $-1 $245 $245 $246 $390 reversed $151 $-1 #
coedge $-1 $246 $246 $245 $390 forward $153 $-1 #
coedge $-1 $247 $247 $154 $248 forward $242 $-1 #
edge $-1 $391 0 $391 6.2831853071796004 $247 $392 forward 7 unknown #
loop $-1 $-1 $254 $155 #
plane-surface $-1 -77.329020050660716 15.917961740298935 0.5411504955029045 -0.51503808176128008 0 0.85716729658548041 0.85716729658548041 0 0.51503808176128008 forward_v I I I I #
loop $-1 $-1 $393 $99 #
coedge $-1 $252 $252 $253 $394 reversed $156 $-1 #
coedge $-1 $253 $253 $252 $394 forward $158 $-1 #
coedge $-1 $254 $254 $159 $255 forward $249 $-1 #
edge $-1 $395 0 $395 6.2831853071796004 $254 $396 forward 7 unknown #
face $-1 $397 $398 $54 $-1 $399 forward single #
loop $-1 $-1 $400 $160 #
plane-surface $-1 24.415986224545918 -14.757111223687167 212.76374492710517 0 1 0 0.51503808176128008 0 0.85716729658548041 forward_v I I I I #
coedge $-1 $401 $402 $403 $404 reversed $161 $-1 #
coedge $-1 $261 $163 $405 $406 reversed $103 $-1 #
coedge $-1 $163 $260 $401 $407 reversed $103 $-1 #
coedge $-1 $403 $408 $163 $263 forward $398 $-1 #
edge $-1 $409 -65.121026938387757 $410 -37.991499102466392 $262 $411 forward 7 unknown #
loop $-1 $-1 $269 $164 #
plane-surface $-1 -55.238794078197799 -8.8127050208251703 80.19593079824665 0.51503808176128008 0 0.85716729658548041 0.85716729658548041 0 -0.51503808176128008 forward_v I I I I #
loop $-1 $-1 $412 $105 #
coedge $-1 $267 $267 $268 $413 reversed $165 $-1 #
coedge $-1 $268 $268 $267 $413 forward $167 $-1 #
coedge $-1 $269 $269 $168 $270 forward $264 $-1 #
edge $-1 $414 0 $414 6.2831853071796004 $269 $415 forward 7 unknown #
loop $-1 $-1 $276 $169 #
plane-surface $-1 -55.238794078197799 -8.8127050208251703 80.19593079824665 0.51503808176128008 0 0.85716729658548041 0.85716729658548041 0 -0.51503808176128008 forward_v I I I I #
loop $-1 $-1 $416 $108 #
coedge $-1 $274 $274 $275 $417 reversed $170 $-1 #
coedge $-1 $275 $275 $274 $417 forward $172 $-1 #
coedge $-1 $276 $276 $173 $277 forward $271 $-1 #
edge $-1 $418 0 $418 6.2831853071796004 $276 $419 forward 7 unknown #
face $-1 $420 $421 $57 $-1 $422 forward single #
loop $-1 $-1 $423 $174 #
plane-surface $-1 24.415986224545918 9.9735555374369387 212.76374492710517 0 1 0 0.51503808176128008 0 0.85716729658548041 forward_v I I I I #
coedge $-1 $424 $425 $426 $427 reversed $175 $-1 #
coedge $-1 $283 $177 $428 $429 reversed $112 $-1 #
coedge $-1 $177 $282 $424 $430 reversed $112 $-1 #
coedge $-1 $426 $431 $177 $285 forward $421 $-1 #
edge $-1 $432 -65.121026938387757 $433 -37.991499102466392 $284 $434 forward 7 unknown #
loop $-1 $-1 $291 $178 #
plane-surface $-1 -55.238794078197799 15.917961740298935 80.19593079824665 0.51503808176128008 0 0.85716729658548041 0.85716729658548041 0 -0.51503808176128008 forward_v I I I I #
loop $-1 $-1 $435 $114 #
coedge $-1 $289 $289 $290 $436 reversed $179 $-1 #
coedge $-1 $290 $290 $289 $436 forward $181 $-1 #
coedge $-1 $291 $291 $182 $292 forward $286 $-1 #
edge $-1 $437 0 $437 6.2831853071796004 $291 $438 forward 7 unknown #
loop $-1 $-1 $298 $183 #
plane-surface $-1 -55.238794078197799 15.917961740298935 80.19593079824665 0.51503808176128008 0 0.85716729658548041 0.85716729658548041 0 -0.51503808176128008 forward_v I I I I #
loop $-1 $-1 $439 $117 #
coedge $-1 $296 $296 $297 $440 reversed $184 $-1 #
coedge $-1 $297 $297 $296 $440 forward $186 $-1 #
coedge $-1 $298 $298 $187 $299 forward $293 $-1 #
edge $-1 $441 0 $441 6.2831853071796004 $298 $442 forward 7 unknown #
face $-1 $443 $444 $45 $-1 $445 reversed single #
loop $-1 $-1 $446 $188 #
plane-surface $-1 -77.329020050660716 0 0 1 0 0 0 0 -1 forward_v I I I I #
coedge $-1 $447 $311 $448 $449 forward $189 $-1 #
coedge $-1 $450 $191 $447 $451 forward $121 $-1 #
coedge $-1 $191 $450 $452 $453 forward $121 $-1 #
coedge $-1 $314 $313 $191 $307 reversed $315 $-1 #
edge $-1 $454 -37.829553901976873 $455 37.829553901976873 $306 $456 forward 7 unknown #
coedge $-1 $193 $192 $457 $458 forward $76 $-1 #
coedge $-1 $459 $460 $192 $310 reversed $444 $-1 #
edge $-1 $317 -77.329020050660716 $461 77.329020050660716 $309 $462 forward 7 unknown #
coedge $-1 $303 $463 $193 $312 reversed $189 $-1 #
edge $-1 $464 -77.329020050660716 $316 77.329020050660716 $311 $465 forward 7 unknown #
coedge $-1 $306 $194 $463 $466 forward $315 $-1 #
coedge $-1 $194 $306 $459 $467 reversed $315 $-1 #
loop $-1 $-1 $313 $443 #
vertex $-1 $195 $468 #
vertex $-1 $195 $469 #
straight-curve $-1 77.329020050660716 0 16.84221568005033 0 1 0 I I #
face $-1 $470 $471 $46 $-1 $472 forward single #
loop $-1 $-1 $328 $196 #
plane-surface $-1 0 -37.829553901976873 0 0 1 0 0 0 1 forward_v I I I I #
coedge $-1 $473 $474 $475 $476 forward $197 $-1 #
coedge $-1 $475 $199 $201 $330 reversed $125 $-1 #
coedge $-1 $199 $475 $477 $478 reversed $125 $-1 #
coedge $-1 $479 $202 $199 $326 forward $332 $-1 #
edge $-1 $334 2.7523378524963995 $480 10.310697835868087 $325 $481 forward 7 unknown #
coedge $-1 $201 $200 $473 $482 reversed $79 $-1 #
coedge $-1 $483 $484 $200 $329 forward $320 $-1 #
edge $-1 $485 -77.329020050660716 $333 77.329020050660716 $328 $486 forward 7 unknown #
edge $-1 $487 -77.329020050660716 $334 77.329020050660716 $323 $488 forward 7 unknown #
coedge $-1 $202 $479 $483 $489 forward $332 $-1 #
loop $-1 $-1 $325 $470 #
vertex $-1 $329 $490 #
vertex $-1 $203 $491 #
straight-curve $-1 77.329020050660716 -15.524416884023527 9.2838556966786427 0 1 0 I I #
face $-1 $492 $493 $47 $-1 $494 reversed single #
loop $-1 $-1 $495 $204 #
plane-surface $-1 0 50.465887915822769 -14.842090130693359 0 -1 0 0 0 -1 forward_v I I I I #
coedge $-1 $496 $210 $341 $497 forward $205 $-1 #
coedge $-1 $498 $207 $499 $500 reversed $129 $-1 #
coedge $-1 $207 $498 $339 $497 reversed $129 $-1 #
edge $-1 $347 12.841964581336388 $501 16.84221568005033 $207 $502 forward 7 unknown #
coedge $-1 $209 $208 $503 $504 reversed $82 $-1 #
coedge $-1 $505 $506 $208 $345 forward $507 $-1 #
edge $-1 $508 -16.84221568005033 $348 -12.841964581336388 $344 $509 forward 7 unknown #
coedge $-1 $210 $496 $505 $510 forward $205 $-1 #
vertex $-1 $342 $511 #
vertex $-1 $510 $512 #
straight-curve $-1 0 37.829553901976873 -12.841964581336388 -1 0 0 I I #
face $-1 $-1 $362 $48 $-1 $513 forward single #
loop $-1 $-1 $514 $212 #
plane-surface $-1 -77.329020050660716 0 0 1 0 0 0 0 -1 forward_v I I I I #
coedge $-1 $515 $516 $517 $518 reversed $213 $-1 #
coedge $-1 $519 $215 $217 $360 forward $133 $-1 #
coedge $-1 $215 $519 $515 $520 forward $133 $-1 #
coedge $-1 $517 $218 $215 $357 forward $362 $-1 #
edge $-1 $364 -10.350758713274582 $521 1.5380536924494113 $356 $522 forward 7 unknown #
coedge $-1 $523 $524 $216 $359 forward $351 $-1 #
edge $-1 $525 -66.013331816677805 $363 -49.71226663213038 $358 $526 forward 7 unknown #
edge $-1 $364 -31.650213376072184 $525 0 $217 $527 forward 7 unknown #
coedge $-1 $218 $517 $523 $528 forward $362 $-1 #
loop $-1 $-1 $517 $350 #
vertex $-1 $359 $529 #
vertex $-1 $219 $530 #
straight-curve $-1 -78.491900176702217 -14.757111223687167 16.84221568005033 1 0 0 I I #
coedge $-1 $366 $366 $-1 $531 reversed $222 $-1 #
edge $-1 $532 0 $532 6.2831853071796004 $223 $533 forward 7 unknown #
vertex $-1 $226 $534 #
ellipse-curve $-1 -63.764256132700027 -11.360307679194594 8.6916830877766103 -0.51503808176128008 0 0.85716729658548041 0.85716729658548041 0 0.51503808176128008 1 I I #
coedge $-1 $370 $370 $-1 $535 reversed $229 $-1 #
edge $-1 $536 0 $536 6.2831853071796004 $230 $537 forward 7 unknown #
vertex $-1 $233 $538 #
ellipse-curve $-1 -63.764256132700027 -6.2651023624557425 8.6916830877766103 -0.51503808176128008 0 0.85716729658548041 0.85716729658548041 0 0.51503808176128008 1 I I #
face $-1 $-1 $539 $51 $-1 $540 reversed single #
loop $-1 $-1 $240 $234 #
plane-surface $-1 0 0 16.84221568005033 0 0 1 1 0 0 forward_v I I I I #
coedge $-1 $541 $542 $543 $544 reversed $235 $-1 #
coedge $-1 $545 $237 $239 $384 forward $147 $-1 #
coedge $-1 $237 $545 $541 $546 forward $147 $-1 #
coedge $-1 $543 $240 $237 $381 forward $375 $-1 #
edge $-1 $387 2.0145746672874711 $547 13.903387073011466 $380 $548 forward 7 unknown #
coedge $-1 $549 $550 $238 $383 forward $539 $-1 #
edge $-1 $551 -66.013331816677805 $386 -49.71226663213038 $382 $552 forward 7 unknown #
edge $-1 $387 -31.650213376072184 $551 0 $239 $553 forward 7 unknown #
coedge $-1 $240 $543 $549 $554 forward $375 $-1 #
vertex $-1 $241 $555 #
vertex $-1 $241 $556 #
straight-curve $-1 -78.491900176702217 9.9735555374369387 16.84221568005033 1 0 0 I I #
coedge $-1 $389 $389 $-1 $557 reversed $244 $-1 #
edge $-1 $558 0 $558 6.2831853071796004 $245 $559 forward 7 unknown #
vertex $-1 $248 $560 #
ellipse-curve $-1 -63.764256132700027 13.370359081929514 8.6916830877766103 -0.51503808176128008 0 0.85716729658548041 0.85716729658548041 0 0.51503808176128008 1 I I #
coedge $-1 $393 $393 $-1 $561 reversed $251 $-1 #
edge $-1 $562 0 $562 6.2831853071796004 $252 $563 forward 7 unknown #
vertex $-1 $255 $564 #
ellipse-curve $-1 -63.764256132700027 18.465564398668363 8.6916830877766103 -0.51503808176128008 0 0.85716729658548041 0.85716729658548041 0 0.51503808176128008 1 I I #
face $-1 $-1 $565 $54 $-1 $566 reversed single #
loop $-1 $-1 $262 $256 #
plane-surface $-1 0 0 16.84221568005033 0 0 1 1 0 0 forward_v I I I I #
coedge $-1 $567 $568 $569 $570 reversed $257 $-1 #
coedge $-1 $571 $259 $261 $407 forward $161 $-1 #
coedge $-1 $259 $571 $567 $572 forward $161 $-1 #
coedge $-1 $569 $262 $259 $404 forward $398 $-1 #
edge $-1 $410 -1.5380536924494113 $573 10.350758713274582 $403 $574 forward 7 unknown #
coedge $-1 $575 $576 $260 $406 forward $565 $-1 #
edge $-1 $577 -105.84072196804965 $409 -89.539656783502252 $405 $578 forward 7 unknown #
edge $-1 $410 123.00782672524929 $577 154.65804010132143 $261 $579 forward 7 unknown #
coedge $-1 $262 $569 $575 $580 forward $398 $-1 #
vertex $-1 $263 $581 #
vertex $-1 $263 $582 #
straight-curve $-1 12.207993112272959 -2.8682988179631739 16.84221568005033 -1 0 0 I I #
coedge $-1 $412 $412 $-1 $583 reversed $266 $-1 #
edge $-1 $584 0 $584 6.2831853071796004 $267 $585 forward 7 unknown #
vertex $-1 $270 $586 #
ellipse-curve $-1 63.764256132700027 -11.360307679194594 8.6916830877766351 0.51503808176128008 0 0.85716729658548041 0.85716729658548041 0 -0.51503808176128008 1 I I #
coedge $-1 $416 $416 $-1 $587 reversed $273 $-1 #
edge $-1 $588 0 $588 6.2831853071796004 $274 $589 forward 7 unknown #
vertex $-1 $277 $590 #
ellipse-curve $-1 63.764256132700027 -6.2651023624557425 8.6916830877766351 0.51503808176128008 0 0.85716729658548041 0.85716729658548041 0 -0.51503808176128008 1 I I #
face $-1 $-1 $591 $57 $-1 $592 reversed single #
loop $-1 $-1 $284 $278 #
plane-surface $-1 0 0 16.84221568005033 0 0 1 1 0 0 forward_v I I I I #
coedge $-1 $593 $594 $595 $596 reversed $279 $-1 #
coedge $-1 $597 $281 $283 $430 forward $175 $-1 #
coedge $-1 $281 $597 $593 $598 forward $175 $-1 #
coedge $-1 $595 $284 $281 $427 forward $421 $-1 #
edge $-1 $433 -13.903387073011466 $599 -2.0145746672874711 $426 $600 forward 7 unknown #
coedge $-1 $601 $602 $282 $429 forward $591 $-1 #
edge $-1 $603 -105.84072196804965 $432 -89.539656783502252 $428 $604 forward 7 unknown #
edge $-1 $433 123.00782672524929 $603 154.65804010132143 $283 $605 forward 7 unknown #
coedge $-1 $284 $595 $601 $606 forward $421 $-1 #
vertex $-1 $429 $607 #
vertex $-1 $285 $608 #
straight-curve $-1 12.207993112272959 21.862367943160933 16.84221568005033 -1 0 0 I I #
coedge $-1 $435 $435 $-1 $609 reversed $288 $-1 #
edge $-1 $610 0 $610 6.2831853071796004 $289 $611 forward 7 unknown #
vertex $-1 $292 $612 #
ellipse-curve $-1 63.764256132700027 13.370359081929514 8.6916830877766351 0.51503808176128008 0 0.85716729658548041 0.85716729658548041 0 -0.51503808176128008 1 I I #
coedge $-1 $439 $439 $-1 $613 reversed $295 $-1 #
edge $-1 $614 0 $614 6.2831853071796004 $296 $615 forward 7 unknown #
vertex $-1 $299 $616 #
ellipse-curve $-1 63.764256132700027 18.465564398668363 8.6916830877766351 0.51503808176128008 0 0.85716729658548041 0.85716729658548041 0 -0.51503808176128008 1 I I #
face $-1 $-1 $315 $45 $-1 $617 reversed single #
loop $-1 $-1 $460 $300 #
plane-surface $-1 0 37.829553901976873 0 0 -1 0 0 0 -1 forward_v I I I I #
coedge $-1 $618 $457 $460 $619 forward $301 $-1 #
coedge $-1 $463 $303 $304 $451 reversed $189 $-1 #
coedge $-1 $457 $618 $303 $449 reversed $301 $-1 #
edge $-1 $464 -16.84221568005033 $620 16.84221568005033 $448 $621 forward 7 unknown #
coedge $-1 $305 $304 $618 $622 forward $121 $-1 #
edge $-1 $455 -77.329020050660716 $620 77.329020050660716 $447 $623 forward 7 unknown #
coedge $-1 $460 $459 $305 $453 reversed $444 $-1 #
edge $-1 $624 -77.329020050660716 $454 77.329020050660716 $452 $625 forward 7 unknown #
vertex $-1 $307 $626 #
vertex $-1 $466 $627 #
straight-curve $-1 77.329020050660716 0 -16.84221568005033 0 -1 0 I I #
coedge $-1 $446 $448 $308 $458 reversed $301 $-1 #
edge $-1 $461 -37.829553901976873 $464 37.829553901976873 $457 $628 forward 7 unknown #
coedge $-1 $452 $309 $314 $467 forward $444 $-1 #
coedge $-1 $309 $452 $446 $619 reversed $444 $-1 #
vertex $-1 $310 $629 #
straight-curve $-1 0 37.829553901976873 16.84221568005033 -1 0 0 I I #
coedge $-1 $311 $447 $313 $466 reversed $189 $-1 #
vertex $-1 $458 $630 #
straight-curve $-1 0 -37.829553901976873 16.84221568005033 1 0 0 I I #
edge $-1 $316 -16.84221568005033 $455 16.84221568005033 $313 $631 forward 7 unknown #
edge $-1 $317 -16.84221568005033 $454 16.84221568005033 $314 $632 forward 7 unknown #
point $-1 77.329020050660716 -37.829553901976873 16.84221568005033 #
point $-1 77.329020050660716 37.829553901976873 16.84221568005033 #
face $-1 $-1 $332 $46 $-1 $633 reversed single #
loop $-1 $-1 $477 $319 #
plane-surface $-1 0 0 16.84221568005033 0 0 1 1 0 0 forward_v I I I I #
coedge $-1 $634 $322 $327 $482 forward $197 $-1 #
coedge $-1 $322 $634 $635 $636 reversed $197 $-1 #
coedge $-1 $324 $323 $322 $476 reversed $125 $-1 #
edge $-1 $637 -10.310697835868087 $487 -2.7523378524963995 $322 $638 forward 7 unknown #
coedge $-1 $635 $639 $324 $478 forward $471 $-1 #
edge $-1 $480 -77.329020050660716 $637 77.329020050660716 $477 $640 forward 7 unknown #
coedge $-1 $331 $325 $639 $641 reversed $332 $-1 #
vertex $-1 $326 $642 #
straight-curve $-1 77.329020050660716 -24.268113634117235 6.5315178441822432 0 0 1 I I #
edge $-1 $487 8.7436967500937079 $485 22.305137017953346 $473 $643 forward 7 unknown #
coedge $-1 $644 $328 $331 $489 reversed $320 $-1 #
coedge $-1 $328 $644 $634 $645 forward $320 $-1 #
vertex $-1 $329 $646 #
straight-curve $-1 0 -37.829553901976873 9.2838556966786427 1 0 0 I I #
vertex $-1 $482 $647 #
straight-curve $-1 0 -24.268113634117235 9.2838556966786427 1 0 0 I I #
edge $-1 $648 -16.84221568005033 $333 -9.2838556966786427 $331 $649 forward 7 unknown #
point $-1 77.329020050660716 -37.829553901976873 9.2838556966786427 #
point $-1 77.329020050660716 -24.268113634117235 9.2838556966786427 #
face $-1 $-1 $507 $47 $-1 $650 reversed single #
loop $-1 $-1 $503 $336 #
plane-surface $-1 0 0 -16.84221568005033 0 0 1 1 0 0 forward_v I I I I #
coedge $-1 $651 $652 $498 $653 forward $337 $-1 #
coedge $-1 $346 $339 $652 $654 forward $205 $-1 #
edge $-1 $347 -6.3181670069229483 $655 6.3181670069229483 $341 $656 forward 7 unknown #
coedge $-1 $341 $340 $495 $653 reversed $129 $-1 #
coedge $-1 $503 $657 $340 $500 forward $493 $-1 #
edge $-1 $658 -50.465887915822769 $501 -37.829553901976873 $340 $659 forward 7 unknown #
vertex $-1 $504 $660 #
straight-curve $-1 77.329020050660716 37.829553901976873 0 0 0 -1 I I #
coedge $-1 $661 $499 $343 $504 forward $493 $-1 #
edge $-1 $501 -77.329020050660716 $508 77.329020050660716 $503 $662 forward 7 unknown #
coedge $-1 $663 $344 $346 $510 reversed $507 $-1 #
coedge $-1 $344 $663 $661 $664 reversed $507 $-1 #
loop $-1 $-1 $344 $492 #
vertex $-1 $664 $665 #
straight-curve $-1 -77.329020050660716 37.829553901976873 0 0 0 1 I I #
edge $-1 $666 -6.3181670069229483 $348 6.3181670069229483 $505 $667 forward 7 unknown #
point $-1 77.329020050660716 37.829553901976873 -12.841964581336388 #
point $-1 -77.329020050660716 37.829553901976873 -12.841964581336388 #
plane-surface $-1 0 0 16.84221568005033 0 0 1 1 0 0 forward_v I I I I #
coedge $-1 $524 $523 $516 $668 forward $351 $-1 #
coedge $-1 $516 $353 $355 $520 reversed $213 $-1 #
coedge $-1 $353 $515 $514 $668 reversed $213 $-1 #
coedge $-1 $361 $356 $353 $518 forward $362 $-1 #
edge $-1 $521 -28.292407961962908 $669 -1.1628801260415003 $517 $670 forward 7 unknown #
coedge $-1 $355 $354 $524 $671 reversed $133 $-1 #
edge $-1 $672 0 $521 31.650213376072184 $515 $673 forward 7 unknown #
vertex $-1 $357 $674 #
straight-curve $-1 -50.199492214739315 -4.4063525104125851 16.84221568005033 0 1 0 I I #
coedge $-1 $514 $358 $361 $528 reversed $351 $-1 #
coedge $-1 $358 $514 $519 $671 forward $351 $-1 #
vertex $-1 $359 $675 #
straight-curve $-1 -77.329020050660716 -14.757111223687167 66.55448231218071 0 0 1 I I #
straight-curve $-1 -77.329020050660716 -14.757111223687167 0.5411504955029045 -0.85716729658548041 0 -0.51503808176128008 I I #
edge $-1 $669 2.8682988179631739 $363 14.757111223687167 $523 $676 forward 7 unknown #
point $-1 -77.329020050660716 -14.757111223687167 16.84221568005033 #
point $-1 -50.199492214739308 -14.757111223687167 16.84221568005033 #
edge $-1 $677 1 $677 0 $366 $-1 forward 7 unknown #
vertex $-1 $367 $678 #
ellipse-curve $-1 -62.541522058225965 -11.360307679194594 6.6567118921016792 -0.51503808176128008 0 0.85716729658548041 0.85716729658548041 0 0.51503808176128008 1 I I #
point $-1 -62.907088836114553 -11.360307679194594 9.2067211695379108 #
edge $-1 $679 1 $679 0 $370 $-1 forward 7 unknown #
vertex $-1 $371 $680 #
ellipse-curve $-1 -62.541522058225965 -6.2651023624557425 6.6567118921016792 -0.51503808176128008 0 0.85716729658548041 0.85716729658548041 0 0.51503808176128008 1 I I #
point $-1 -62.907088836114553 -6.2651023624557425 9.2067211695379108 #
loop $-1 $-1 $382 $374 #
plane-surface $-1 -77.329020050660716 0 0 1 0 0 0 0 -1 forward_v I I I I #
coedge $-1 $542 $377 $379 $546 reversed $235 $-1 #
coedge $-1 $377 $541 $681 $682 reversed $235 $-1 #
coedge $-1 $385 $380 $377 $544 forward $375 $-1 #
edge $-1 $547 -28.292407961962908 $683 -1.1628801260415003 $543 $684 forward 7 unknown #
coedge $-1 $379 $378 $550 $685 reversed $147 $-1 #
edge $-1 $686 0 $547 31.650213376072184 $541 $687 forward 7 unknown #
vertex $-1 $381 $688 #
straight-curve $-1 -50.199492214739315 7.9589808701494675 16.84221568005033 0 1 0 I I #
coedge $-1 $681 $382 $385 $554 reversed $539 $-1 #
coedge $-1 $382 $681 $545 $685 forward $539 $-1 #
vertex $-1 $383 $689 #
straight-curve $-1 -77.329020050660716 9.9735555374369387 66.55448231218071 0 0 1 I I #
straight-curve $-1 -77.329020050660716 9.9735555374369387 0.5411504955029045 -0.85716729658548041 0 -0.51503808176128008 I I #
edge $-1 $683 -21.862367943160933 $386 -9.9735555374369387 $549 $690 forward 7 unknown #
point $-1 -77.329020050660716 9.9735555374369387 16.84221568005033 #
point $-1 -50.199492214739308 9.9735555374369387 16.84221568005033 #
edge $-1 $691 1 $691 0 $389 $-1 forward 7 unknown #
vertex $-1 $390 $692 #
ellipse-curve $-1 -62.541522058225965 13.370359081929514 6.6567118921016792 -0.51503808176128008 0 0.85716729658548041 0.85716729658548041 0 0.51503808176128008 1 I I #
point $-1 -62.907088836114553 13.370359081929514 9.2067211695379108 #
edge $-1 $693 1 $693 0 $393 $-1 forward 7 unknown #
vertex $-1 $394 $694 #
ellipse-curve $-1 -62.541522058225965 18.465564398668363 6.6567118921016792 -0.51503808176128008 0 0.85716729658548041 0.85716729658548041 0 0.51503808176128008 1 I I #
point $-1 -62.907088836114553 18.465564398668363 9.2067211695379108 #
loop $-1 $-1 $405 $397 #
plane-surface $-1 77.329020050660716 0 0 -1 0 0 0 0 1 forward_v I I I I #
coedge $-1 $568 $400 $402 $572 reversed $257 $-1 #
coedge $-1 $400 $567 $695 $696 reversed $257 $-1 #
coedge $-1 $408 $403 $400 $570 forward $398 $-1 #
edge $-1 $573 37.991499102466392 $697 65.121026938387757 $569 $698 forward 7 unknown #
coedge $-1 $402 $401 $576 $699 reversed $161 $-1 #
edge $-1 $700 -154.65804010132143 $573 -123.00782672524929 $567 $701 forward 7 unknown #
vertex $-1 $404 $702 #
straight-curve $-1 50.199492214739365 -4.4063525104125851 16.842215680050323 0 -1 0 I I #
coedge $-1 $695 $405 $408 $580 reversed $565 $-1 #
coedge $-1 $405 $695 $571 $699 forward $565 $-1 #
vertex $-1 $406 $703 #
straight-curve $-1 77.329020050660716 -2.8682988179631739 106.38187246355258 0 0 1 I I #
straight-curve $-1 -55.238794078197799 -2.8682988179631739 80.19593079824665 0.85716729658548041 0 -0.51503808176128008 I I #
edge $-1 $697 -14.757111223687167 $409 -2.8682988179631739 $575 $704 forward 7 unknown #
point $-1 77.329020050660716 -2.8682988179631739 16.84221568005033 #
point $-1 50.199492214739351 -2.8682988179631739 16.84221568005033 #
edge $-1 $705 1 $705 0 $412 $-1 forward 7 unknown #
vertex $-1 $413 $706 #
ellipse-curve $-1 62.541522058225965 -11.360307679194594 6.6567118921016935 0.51503808176128008 0 0.85716729658548041 0.85716729658548041 0 -0.51503808176128008 1 I I #
point $-1 64.621423429285514 -11.360307679194594 8.1766450060153666 #
edge $-1 $707 1 $707 0 $416 $-1 forward 7 unknown #
vertex $-1 $417 $708 #
ellipse-curve $-1 62.541522058225965 -6.2651023624557425 6.6567118921016935 0.51503808176128008 0 0.85716729658548041 0.85716729658548041 0 -0.51503808176128008 1 I I #
point $-1 64.621423429285514 -6.2651023624557425 8.1766450060153666 #
loop $-1 $-1 $428 $420 #
plane-surface $-1 77.329020050660716 0 0 -1 0 0 0 0 1 forward_v I I I I #
coedge $-1 $594 $423 $425 $598 reversed $279 $-1 #
coedge $-1 $423 $593 $709 $710 reversed $279 $-1 #
coedge $-1 $431 $426 $423 $596 forward $421 $-1 #
edge $-1 $599 37.991499102466392 $711 65.121026938387757 $595 $712 forward 7 unknown #
coedge $-1 $425 $424 $602 $713 reversed $175 $-1 #
edge $-1 $714 -154.65804010132143 $599 -123.00782672524929 $593 $715 forward 7 unknown #
vertex $-1 $427 $716 #
straight-curve $-1 50.199492214739365 7.9589808701494675 16.842215680050323 0 -1 0 I I #
coedge $-1 $709 $428 $431 $606 reversed $591 $-1 #
coedge $-1 $428 $709 $597 $713 forward $591 $-1 #
vertex $-1 $429 $717 #
straight-curve $-1 77.329020050660716 21.862367943160933 106.38187246355258 0 0 1 I I #
straight-curve $-1 -55.238794078197799 21.862367943160933 80.19593079824665 0.85716729658548041 0 -0.51503808176128008 I I #
edge $-1 $711 9.9735555374369387 $432 21.862367943160933 $601 $718 forward 7 unknown #
point $-1 77.329020050660716 21.862367943160933 16.84221568005033 #
point $-1 50.199492214739351 21.862367943160933 16.84221568005033 #
edge $-1 $719 1 $719 0 $435 $-1 forward 7 unknown #
vertex $-1 $436 $720 #
ellipse-curve $-1 62.541522058225965 13.370359081929514 6.6567118921016935 0.51503808176128008 0 0.85716729658548041 0.85716729658548041 0 -0.51503808176128008 1 I I #
point $-1 64.621423429285514 13.370359081929514 8.1766450060153666 #
edge $-1 $721 1 $721 0 $439 $-1 forward 7 unknown #
vertex $-1 $440 $722 #
ellipse-curve $-1 62.541522058225965 18.465564398668363 6.6567118921016935 0.51503808176128008 0 0.85716729658548041 0.85716729658548041 0 -0.51503808176128008 1 I I #
point $-1 64.621423429285514 18.465564398668363 8.1766450060153666 #
plane-surface $-1 77.329020050660716 0 0 -1 0 0 0 0 1 forward_v I I I I #
coedge $-1 $448 $446 $450 $622 reversed $301 $-1 #
edge $-1 $461 -16.84221568005033 $624 16.84221568005033 $460 $723 forward 7 unknown #
vertex $-1 $622 $724 #
straight-curve $-1 -77.329020050660716 -37.829553901976873 0 0 0 -1 I I #
edge $-1 $620 -37.829553901976873 $624 37.829553901976873 $618 $725 forward 7 unknown #
straight-curve $-1 0 -37.829553901976873 -16.84221568005033 -1 0 0 I I #
vertex $-1 $453 $726 #
straight-curve $-1 0 37.829553901976873 -16.84221568005033 1 0 0 I I #
point $-1 77.329020050660716 37.829553901976873 -16.84221568005033 #
point $-1 77.329020050660716 -37.829553901976873 -16.84221568005033 #
straight-curve $-1 -77.329020050660716 0 16.84221568005033 0 -1 0 I I #
point $-1 -77.329020050660716 37.829553901976873 16.84221568005033 #
point $-1 -77.329020050660716 -37.829553901976873 16.84221568005033 #
straight-curve $-1 77.329020050660716 -37.829553901976873 0 0 0 -1 I I #
straight-curve $-1 77.329020050660716 37.829553901976873 0 0 0 -1 I I #
plane-surface $-1 77.329020050660716 0 0 -1 0 0 0 0 1 forward_v I I I I #
coedge $-1 $474 $473 $484 $645 reversed $197 $-1 #
coedge $-1 $727 $477 $474 $636 forward $471 $-1 #
edge $-1 $637 24.268113634117235 $728 37.829553901976873 $474 $729 forward 7 unknown #
vertex $-1 $636 $730 #
straight-curve $-1 -77.329020050660716 -24.268113634117235 6.5315178441822432 0 0 -1 I I #
coedge $-1 $477 $727 $479 $641 forward $471 $-1 #
straight-curve $-1 0 -24.268113634117235 16.84221568005033 -1 0 0 I I #
edge $-1 $648 -37.829553901976873 $480 -24.268113634117235 $479 $731 forward 7 unknown #
point $-1 77.329020050660716 -24.268113634117235 16.84221568005033 #
straight-curve $-1 -77.329020050660716 -15.524416884023527 9.2838556966786427 0 -1 0 I I #
coedge $-1 $484 $483 $727 $732 reversed $320 $-1 #
edge $-1 $728 -16.84221568005033 $485 -9.2838556966786427 $634 $733 forward 7 unknown #
point $-1 -77.329020050660716 -37.829553901976873 9.2838556966786427 #
point $-1 -77.329020050660716 -24.268113634117235 9.2838556966786427 #
vertex $-1 $641 $734 #
straight-curve $-1 77.329020050660716 -37.829553901976873 0 0 0 -1 I I #
plane-surface $-1 -77.329020050660716 0 0 1 0 0 0 0 -1 forward_v I I I I #
coedge $-1 $735 $495 $657 $736 reversed $337 $-1 #
coedge $-1 $495 $735 $496 $654 reversed $337 $-1 #
edge $-1 $655 -2.0001255493569712 $658 2.0001255493569712 $498 $737 forward 7 unknown #
edge $-1 $655 -77.329020050660716 $666 77.329020050660716 $652 $738 forward 7 unknown #
vertex $-1 $497 $739 #
straight-curve $-1 77.329020050660716 44.147720908899821 -12.841964581336388 0 1 0 I I #
coedge $-1 $499 $661 $651 $736 forward $493 $-1 #
vertex $-1 $500 $740 #
straight-curve $-1 77.329020050660716 0 -16.84221568005033 0 -1 0 I I #
point $-1 77.329020050660716 37.829553901976873 -16.84221568005033 #
coedge $-1 $657 $503 $506 $664 forward $493 $-1 #
straight-curve $-1 0 37.829553901976873 -16.84221568005033 -1 0 0 I I #
coedge $-1 $506 $505 $735 $741 forward $507 $-1 #
edge $-1 $508 -6.3181670069229483 $742 6.3181670069229483 $506 $743 forward 7 unknown #
point $-1 -77.329020050660716 37.829553901976873 -16.84221568005033 #
vertex $-1 $654 $744 #
straight-curve $-1 -77.329020050660716 44.147720908899821 -12.841964581336388 0 -1 0 I I #
edge $-1 $669 49.71226663213038 $672 66.013331816677805 $514 $745 forward 7 unknown #
vertex $-1 $528 $746 #
straight-curve $-1 -78.491900176702217 -2.8682988179631739 16.84221568005033 -1 0 0 I I #
edge $-1 $672 -1.5380536924494113 $525 10.350758713274582 $524 $747 forward 7 unknown #
vertex $-1 $671 $748 #
straight-curve $-1 -77.329020050660716 -2.8682988179631739 0.5411504955029045 0.85716729658548041 0 0.51503808176128008 I I #
point $-1 -50.199492214739308 -2.8682988179631739 16.84221568005033 #
point $-1 -77.329020050660716 -14.757111223687167 0.5411504955029045 #
straight-curve $-1 -77.329020050660716 0 16.84221568005033 0 -1 0 I I #
vertex $-1 $531 $749 #
point $-1 -61.684354761640485 -11.360307679194594 7.1717499738629593 #
vertex $-1 $535 $750 #
point $-1 -61.684354761640485 -6.2651023624557425 7.1717499738629593 #
coedge $-1 $550 $549 $542 $682 forward $539 $-1 #
edge $-1 $683 49.71226663213038 $686 66.013331816677805 $681 $751 forward 7 unknown #
vertex $-1 $554 $752 #
straight-curve $-1 -78.491900176702217 21.862367943160933 16.84221568005033 -1 0 0 I I #
edge $-1 $686 -13.903387073011466 $551 -2.0145746672874711 $550 $753 forward 7 unknown #
vertex $-1 $685 $754 #
straight-curve $-1 -77.329020050660716 21.862367943160933 0.5411504955029045 0.85716729658548041 0 0.51503808176128008 I I #
point $-1 -50.199492214739308 21.862367943160933 16.84221568005033 #
point $-1 -77.329020050660716 9.9735555374369387 0.5411504955029045 #
straight-curve $-1 -77.329020050660716 0 16.84221568005033 0 -1 0 I I #
vertex $-1 $557 $755 #
point $-1 -61.684354761640485 13.370359081929514 7.1717499738629593 #
vertex $-1 $561 $756 #
point $-1 -61.684354761640485 18.465564398668363 7.1717499738629593 #
coedge $-1 $576 $575 $568 $696 forward $565 $-1 #
edge $-1 $697 89.539656783502252 $700 105.84072196804965 $695 $757 forward 7 unknown #
vertex $-1 $580 $758 #
straight-curve $-1 12.207993112272959 -14.757111223687167 16.84221568005033 1 0 0 I I #
edge $-1 $700 -10.350758713274582 $577 1.5380536924494113 $576 $759 forward 7 unknown #
vertex $-1 $699 $760 #
straight-curve $-1 -55.238794078197799 -14.757111223687167 80.19593079824665 -0.85716729658548041 0 0.51503808176128008 I I #
point $-1 50.199492214739351 -14.757111223687167 16.84221568005033 #
point $-1 77.329020050660716 -2.8682988179631739 0.54115049550293293 #
straight-curve $-1 77.329020050660716 0 16.84221568005033 0 1 0 I I #
vertex $-1 $583 $761 #
point $-1 63.398689354811445 -11.360307679194594 6.1416738103404134 #
vertex $-1 $587 $762 #
point $-1 63.398689354811445 -6.2651023624557425 6.1416738103404134 #
coedge $-1 $602 $601 $594 $710 forward $591 $-1 #
edge $-1 $711 89.539656783502252 $714 105.84072196804965 $709 $763 forward 7 unknown #
vertex $-1 $606 $764 #
straight-curve $-1 12.207993112272959 9.9735555374369387 16.84221568005033 1 0 0 I I #
edge $-1 $714 2.0145746672874711 $603 13.903387073011466 $602 $765 forward 7 unknown #
vertex $-1 $713 $766 #
straight-curve $-1 -55.238794078197799 9.9735555374369387 80.19593079824665 -0.85716729658548041 0 0.51503808176128008 I I #
point $-1 50.199492214739351 9.9735555374369387 16.84221568005033 #
point $-1 77.329020050660716 21.862367943160933 0.54115049550293293 #
straight-curve $-1 77.329020050660716 0 16.84221568005033 0 1 0 I I #
vertex $-1 $609 $767 #
point $-1 63.398689354811445 13.370359081929514 6.1416738103404134 #
vertex $-1 $613 $768 #
point $-1 63.398689354811445 18.465564398668363 6.1416738103404134 #
straight-curve $-1 -77.329020050660716 37.829553901976873 0 0 0 -1 I I #
point $-1 -77.329020050660716 -37.829553901976873 -16.84221568005033 #
straight-curve $-1 -77.329020050660716 0 -16.84221568005033 0 1 0 I I #
point $-1 -77.329020050660716 37.829553901976873 -16.84221568005033 #
coedge $-1 $639 $635 $644 $732 forward $471 $-1 #
vertex $-1 $636 $769 #
straight-curve $-1 -77.329020050660716 0 16.84221568005033 0 -1 0 I I #
point $-1 -77.329020050660716 -24.268113634117235 16.84221568005033 #
straight-curve $-1 77.329020050660716 0 16.84221568005033 0 1 0 I I #
edge $-1 $728 -77.329020050660716 $648 77.329020050660716 $644 $770 forward 7 unknown #
straight-curve $-1 -77.329020050660716 -37.829553901976873 0 0 0 -1 I I #
point $-1 77.329020050660716 -37.829553901976873 16.84221568005033 #
coedge $-1 $652 $651 $663 $741 reversed $337 $-1 #
edge $-1 $742 -77.329020050660716 $658 77.329020050660716 $651 $771 forward 7 unknown #
straight-curve $-1 77.329020050660716 50.465887915822769 -14.842090130693359 0 0 -1 I I #
straight-curve $-1 0 50.465887915822769 -12.841964581336388 -1 0 0 I I #
point $-1 77.329020050660716 50.465887915822769 -12.841964581336388 #
point $-1 77.329020050660716 50.465887915822769 -16.84221568005033 #
edge $-1 $666 -2.0001255493569712 $742 2.0001255493569712 $735 $772 forward 7 unknown #
vertex $-1 $736 $773 #
straight-curve $-1 -77.329020050660716 44.147720908899821 -16.84221568005033 0 1 0 I I #
point $-1 -77.329020050660716 50.465887915822769 -12.841964581336388 #
straight-curve $-1 -77.329020050660716 -2.8682988179631739 66.55448231218071 0 0 -1 I I #
point $-1 -77.329020050660716 -2.8682988179631739 16.84221568005033 #
straight-curve $-1 -77.329020050660716 -4.4063525104125851 0.54115049550290539 0 -1 0 I I #
point $-1 -77.329020050660716 -2.8682988179631739 0.5411504955029045 #
point $-1 -62.026483976464689 -11.360307679194594 5.7995445955161991 #
point $-1 -62.026483976464689 -6.2651023624557425 5.7995445955161991 #
straight-curve $-1 -77.329020050660716 21.862367943160933 66.55448231218071 0 0 -1 I I #
point $-1 -77.329020050660716 21.862367943160933 16.84221568005033 #
straight-curve $-1 -77.329020050660716 7.9589808701494675 0.54115049550290539 0 -1 0 I I #
point $-1 -77.329020050660716 21.862367943160933 0.5411504955029045 #
point $-1 -62.026483976464689 13.370359081929514 5.7995445955161991 #
point $-1 -62.026483976464689 18.465564398668363 5.7995445955161991 #
straight-curve $-1 77.329020050660716 -14.757111223687167 106.38187246355258 0 0 -1 I I #
point $-1 77.329020050660716 -14.757111223687167 16.84221568005033 #
straight-curve $-1 77.329020050660716 -4.4063525104125851 0.54115049550292582 0 1 0 I I #
point $-1 77.329020050660716 -14.757111223687167 0.54115049550293293 #
point $-1 62.026483976464689 -11.360307679194594 5.7995445955162133 #
point $-1 62.026483976464689 -6.2651023624557425 5.7995445955162133 #
straight-curve $-1 77.329020050660716 9.9735555374369387 106.38187246355258 0 0 -1 I I #
point $-1 77.329020050660716 9.9735555374369387 16.84221568005033 #
straight-curve $-1 77.329020050660716 7.9589808701494675 0.54115049550292582 0 1 0 I I #
point $-1 77.329020050660716 9.9735555374369387 0.54115049550293293 #
point $-1 62.026483976464689 13.370359081929514 5.7995445955162133 #
point $-1 62.026483976464689 18.465564398668363 5.7995445955162133 #
point $-1 -77.329020050660716 -37.829553901976873 16.84221568005033 #
straight-curve $-1 0 -37.829553901976873 16.84221568005033 1 0 0 I I #
straight-curve $-1 0 50.465887915822769 -16.84221568005033 1 0 0 I I #
straight-curve $-1 -77.329020050660716 50.465887915822769 -14.842090130693359 0 0 -1 I I #
point $-1 -77.329020050660716 50.465887915822769 -16.84221568005033 #
End-of-ACIS-data 