500 0 16 0           
7 Unknown 11 ACIS 5.0 NT 24 Fri Mar 26 19:29:10 1999 
-1 9.9999999999999995e-007 1e-010 
body $-1 $16 $-1 $17 #
body $-1 $18 $-1 $19 #
body $-1 $20 $-1 $21 #
body $-1 $22 $-1 $23 #
body $-1 $24 $-1 $25 #
body $-1 $26 $-1 $27 #
body $-1 $28 $-1 $29 #
body $-1 $30 $-1 $31 #
body $-1 $32 $-1 $33 #
body $-1 $34 $-1 $35 #
body $-1 $36 $-1 $37 #
body $-1 $38 $-1 $39 #
body $-1 $40 $-1 $41 #
body $-1 $42 $-1 $43 #
body $-1 $44 $-1 $45 #
body $-1 $46 $-1 $47 #
lump $-1 $-1 $48 $0 #
transform $-1 1 0 0 0 1 0 0 0 1 75.739616077150799 43.256897159624252 10.452969066427222 1 rotate no_reflect no_shear #
lump $-1 $-1 $49 $1 #
transform $-1 1 0 0 0 1 0 0 0 1 75.739616077150799 43.256897159624252 10.452969066427222 1 rotate no_reflect no_shear #
lump $-1 $-1 $50 $2 #
transform $-1 1 0 0 0 1 0 0 0 1 75.739616077150799 43.256897159624252 10.452969066427222 1 rotate no_reflect no_shear #
lump $-1 $-1 $51 $3 #
transform $-1 1 0 0 0 1 0 0 0 1 75.739616077150799 43.256897159624252 10.452969066427222 1 rotate no_reflect no_shear #
lump $-1 $-1 $52 $4 #
transform $-1 1 0 0 0 1 0 0 0 1 75.739616077150799 43.256897159624252 10.452969066427222 1 rotate no_reflect no_shear #
lump $-1 $-1 $53 $5 #
transform $-1 1 0 0 0 1 0 0 0 1 75.739616077150799 43.256897159624252 10.452969066427222 1 rotate no_reflect no_shear #
lump $-1 $-1 $54 $6 #
transform $-1 1 0 0 0 1 0 0 0 1 75.739616077150799 43.256897159624252 10.452969066427222 1 rotate no_reflect no_shear #
lump $-1 $-1 $55 $7 #
transform $-1 1 0 0 0 1 0 0 0 1 75.739616077150799 43.256897159624252 10.452969066427222 1 rotate no_reflect no_shear #
lump $-1 $-1 $56 $8 #
transform $-1 1 0 0 0 1 0 0 0 1 75.739616077150799 43.256897159624252 10.452969066427222 1 rotate no_reflect no_shear #
lump $-1 $-1 $57 $9 #
transform $-1 1 0 0 0 1 0 0 0 1 75.739616077150799 43.256897159624252 10.452969066427222 1 rotate no_reflect no_shear #
lump $-1 $-1 $58 $10 #
transform $-1 1 0 0 0 1 0 0 0 1 75.739616077150799 43.256897159624252 10.452969066427222 1 rotate no_reflect no_shear #
lump $-1 $-1 $59 $11 #
transform $-1 1 0 0 0 1 0 0 0 1 75.739616077150799 43.256897159624252 10.452969066427222 1 rotate no_reflect no_shear #
lump $-1 $-1 $60 $12 #
transform $-1 1 0 0 0 1 0 0 0 1 75.739616077150799 43.256897159624252 10.452969066427222 1 rotate no_reflect no_shear #
lump $-1 $-1 $61 $13 #
transform $-1 1 0 0 0 1 0 0 0 1 75.739616077150799 43.256897159624252 10.452969066427222 1 rotate no_reflect no_shear #
lump $-1 $-1 $62 $14 #
transform $-1 1 0 0 0 1 0 0 0 1 75.739616077150799 43.256897159624252 10.452969066427222 1 rotate no_reflect no_shear #
lump $-1 $-1 $63 $15 #
transform $-1 1 0 0 0 1 0 0 0 1 75.739616077150799 43.256897159624252 10.452969066427222 1 rotate no_reflect no_shear #
shell $-1 $-1 $-1 $64 $-1 $16 #
shell $-1 $-1 $-1 $65 $-1 $18 #
shell $-1 $-1 $-1 $66 $-1 $20 #
shell $-1 $-1 $-1 $67 $-1 $22 #
shell $-1 $-1 $-1 $68 $-1 $24 #
shell $-1 $-1 $-1 $69 $-1 $26 #
shell $-1 $-1 $-1 $70 $-1 $28 #
shell $-1 $-1 $-1 $71 $-1 $30 #
shell $-1 $-1 $-1 $72 $-1 $32 #
shell $-1 $-1 $-1 $73 $-1 $34 #
shell $-1 $-1 $-1 $74 $-1 $36 #
shell $-1 $-1 $-1 $75 $-1 $38 #
shell $-1 $-1 $-1 $76 $-1 $40 #
shell $-1 $-1 $-1 $77 $-1 $42 #
shell $-1 $-1 $-1 $78 $-1 $44 #
shell $-1 $-1 $-1 $79 $-1 $46 #
face $-1 $80 $81 $48 $-1 $82 forward single #
face $-1 $83 $84 $49 $-1 $85 forward single #
face $-1 $86 $87 $50 $-1 $88 reversed single #
face $-1 $89 $90 $51 $-1 $91 forward single #
face $-1 $92 $93 $52 $-1 $94 reversed single #
face $-1 $95 $96 $53 $-1 $97 forward single #
face $-1 $98 $99 $54 $-1 $100 forward single #
face $-1 $101 $102 $55 $-1 $103 reversed single #
face $-1 $104 $105 $56 $-1 $106 forward single #
face $-1 $107 $108 $57 $-1 $109 forward single #
face $-1 $110 $111 $58 $-1 $112 reversed single #
face $-1 $113 $114 $59 $-1 $115 forward single #
face $-1 $116 $117 $60 $-1 $118 forward single #
face $-1 $119 $120 $61 $-1 $121 reversed single #
face $-1 $122 $123 $62 $-1 $124 forward single #
face $-1 $125 $126 $63 $-1 $127 forward single #
face $-1 $128 $129 $48 $-1 $130 reversed single #
loop $-1 $-1 $131 $64 #
plane-surface $-1 0 0 10.452969066427222 0 0 1 1 0 0 forward_v I I I I #
face $-1 $132 $133 $49 $-1 $134 reversed single #
loop $-1 $-1 $135 $65 #
plane-surface $-1 -75.739616077150799 0 0 1 0 0 0 0 -1 forward_v I I I I #
face $-1 $136 $137 $50 $-1 $138 reversed single #
loop $-1 $-1 $139 $66 #
plane-surface $-1 8.4026465263026324 47.117675121064842 177.73450118635901 1 0 0 0 -0.51503808176128008 -0.85716729658548041 forward_v I I I I #
face $-1 $140 $141 $51 $-1 $142 forward single #
loop $-1 $143 $144 $67 #
cone-surface $-1 20.397648001001215 36.327617972517764 5.2207713093980086 0 -0.51503808176128008 -0.85716729658548041 1.5 0 0 1 I I 0 1 1.5 forward I I I I #
face $-1 $145 $146 $52 $-1 $147 reversed single #
loop $-1 $-1 $148 $68 #
plane-surface $-1 -49.664404141861354 -138.58586795865199 120.88262139610475 -1 0 0 0 -0.62932039886446345 0.77714595512881146 forward_v I I I I #
face $-1 $149 $150 $53 $-1 $151 forward single #
loop $-1 $152 $153 $69 #
cone-surface $-1 -62.017240883538136 -37.770850771842866 5.5922629232827008 0 0.62932039886446345 -0.77714595512881146 1.5 0 0 1 I I 0 1 1.5 forward I I I I #
face $-1 $154 $155 $54 $-1 $156 forward single #
loop $-1 $157 $158 $70 #
cone-surface $-1 -54.60553883853207 -37.770850771842866 5.5922629232827008 0 0.62932039886446345 -0.77714595512881146 1.5 0 0 1 I I 0 1 1.5 forward I I I I #
face $-1 $159 $160 $55 $-1 $161 reversed single #
loop $-1 $-1 $162 $71 #
plane-surface $-1 -13.989906227521441 -138.58586795865199 120.88262139610475 -1 0 0 0 -0.62932039886446345 0.77714595512881146 forward_v I I I I #
face $-1 $163 $164 $56 $-1 $165 forward single #
loop $-1 $166 $167 $72 #
cone-surface $-1 -26.34274296919822 -37.770850771842866 5.5922629232827008 0 0.62932039886446345 -0.77714595512881146 1.5 0 0 1 I I 0 1 1.5 forward I I I I #
face $-1 $168 $169 $57 $-1 $170 forward single #
loop $-1 $171 $172 $73 #
cone-surface $-1 -18.931040924192153 -37.770850771842866 5.5922629232827008 0 0.62932039886446345 -0.77714595512881146 1.5 0 0 1 I I 0 1 1.5 forward I I I I #
face $-1 $173 $174 $58 $-1 $175 reversed single #
loop $-1 $-1 $176 $74 #
plane-surface $-1 21.684591686818482 -138.58586795865199 120.88262139610475 -1 0 0 0 -0.62932039886446345 0.77714595512881146 forward_v I I I I #
face $-1 $177 $178 $59 $-1 $179 forward single #
loop $-1 $180 $181 $75 #
cone-surface $-1 9.3317549451416966 -37.770850771842866 5.5922629232827008 0 0.62932039886446345 -0.77714595512881146 1.5 0 0 1 I I 0 1 1.5 forward I I I I #
face $-1 $182 $183 $60 $-1 $184 forward single #
loop $-1 $185 $186 $76 #
cone-surface $-1 16.743456990147763 -37.770850771842866 5.5922629232827008 0 0.62932039886446345 -0.77714595512881146 1.5 0 0 1 I I 0 1 1.5 forward I I I I #
face $-1 $187 $188 $61 $-1 $189 reversed single #
loop $-1 $-1 $190 $77 #
plane-surface $-1 57.359089601158402 -138.58586795865199 120.88262139610475 -1 0 0 0 -0.62932039886446345 0.77714595512881146 forward_v I I I I #
face $-1 $191 $192 $62 $-1 $193 forward single #
loop $-1 $194 $195 $78 #
cone-surface $-1 45.006252859481606 -37.770850771842866 5.5922629232827008 0 0.62932039886446345 -0.77714595512881146 1.5 0 0 1 I I 0 1 1.5 forward I I I I #
face $-1 $196 $197 $63 $-1 $198 forward single #
loop $-1 $199 $200 $79 #
cone-surface $-1 52.417954904487686 -37.770850771842866 5.5922629232827008 0 0.62932039886446345 -0.77714595512881146 1.5 0 0 1 I I 0 1 1.5 forward I I I I #
face $-1 $201 $202 $48 $-1 $203 reversed single #
loop $-1 $-1 $204 $80 #
plane-surface $-1 0 0 -10.452969066427222 0 0 1 1 0 0 forward_v I I I I #
coedge $-1 $205 $206 $207 $208 forward $81 $-1 #
face $-1 $209 $210 $49 $-1 $211 reversed single #
loop $-1 $-1 $212 $83 #
plane-surface $-1 0 0 -10.452969066427222 0 0 1 1 0 0 forward_v I I I I #
coedge $-1 $213 $214 $215 $216 forward $84 $-1 #
face $-1 $217 $218 $50 $-1 $219 reversed single #
loop $-1 $-1 $220 $86 #
plane-surface $-1 20.397648001001215 -30.899898034358266 47.89145727181193 0 0.51503808176128008 0.85716729658548041 1 0 0 forward_v I I I I #
coedge $-1 $221 $222 $223 $224 reversed $87 $-1 #
face $-1 $-1 $225 $51 $-1 $226 forward single #
loop $-1 $227 $228 $89 #
cone-surface $-1 20.397648001001215 34.936404499902928 2.9054033132751798 0 -0.51503808176128008 -0.85716729658548041 0.75 0 0 1 I I -0.70710678118654757 0.70710678118654757 0.75 forward I I I I #
loop $-1 $-1 $229 $67 #
coedge $-1 $144 $144 $230 $231 reversed $90 $-1 #
face $-1 $232 $233 $52 $-1 $234 reversed single #
loop $-1 $-1 $235 $92 #
plane-surface $-1 -58.311389861035103 -43.256897159624245 3.1611488413710731 0 -0.62932039886446345 0.77714595512881146 1 0 0 forward_v I I I I #
coedge $-1 $236 $237 $238 $239 reversed $93 $-1 #
face $-1 $-1 $240 $53 $-1 $241 forward single #
loop $-1 $242 $243 $95 #
cone-surface $-1 -62.017240883538136 -36.315138023286941 3.7946074263196508 0 0.62932039886446345 -0.77714595512881146 0.75 0 0 1 I I -0.70710678118654757 0.70710678118654757 0.75 forward I I I I #
loop $-1 $-1 $244 $69 #
coedge $-1 $153 $153 $245 $246 reversed $96 $-1 #
face $-1 $-1 $247 $54 $-1 $248 forward single #
loop $-1 $249 $250 $98 #
cone-surface $-1 -54.60553883853207 -36.315138023286941 3.7946074263196508 0 0.62932039886446345 -0.77714595512881146 0.75 0 0 1 I I -0.70710678118654757 0.70710678118654757 0.75 forward I I I I #
loop $-1 $-1 $251 $70 #
coedge $-1 $158 $158 $252 $253 reversed $99 $-1 #
face $-1 $254 $255 $55 $-1 $256 reversed single #
loop $-1 $-1 $257 $101 #
plane-surface $-1 -22.636891946695187 -43.256897159624245 3.1611488413710731 0 -0.62932039886446345 0.77714595512881146 1 0 0 forward_v I I I I #
coedge $-1 $258 $259 $260 $261 reversed $102 $-1 #
face $-1 $-1 $262 $56 $-1 $263 forward single #
loop $-1 $264 $265 $104 #
cone-surface $-1 -26.34274296919822 -36.315138023286941 3.7946074263196508 0 0.62932039886446345 -0.77714595512881146 0.75 0 0 1 I I -0.70710678118654757 0.70710678118654757 0.75 forward I I I I #
loop $-1 $-1 $266 $72 #
coedge $-1 $167 $167 $267 $268 reversed $105 $-1 #
face $-1 $-1 $269 $57 $-1 $270 forward single #
loop $-1 $271 $272 $107 #
cone-surface $-1 -18.931040924192153 -36.315138023286941 3.7946074263196508 0 0.62932039886446345 -0.77714595512881146 0.75 0 0 1 I I -0.70710678118654757 0.70710678118654757 0.75 forward I I I I #
loop $-1 $-1 $273 $73 #
coedge $-1 $172 $172 $274 $275 reversed $108 $-1 #
face $-1 $276 $277 $58 $-1 $278 reversed single #
loop $-1 $-1 $279 $110 #
plane-surface $-1 13.037605967644737 -43.256897159624245 3.1611488413710731 0 -0.62932039886446345 0.77714595512881146 1 0 0 forward_v I I I I #
coedge $-1 $280 $281 $282 $283 reversed $111 $-1 #
face $-1 $-1 $284 $59 $-1 $285 forward single #
loop $-1 $286 $287 $113 #
cone-surface $-1 9.3317549451416966 -36.315138023286941 3.7946074263196508 0 0.62932039886446345 -0.77714595512881146 0.75 0 0 1 I I -0.70710678118654757 0.70710678118654757 0.75 forward I I I I #
loop $-1 $-1 $288 $75 #
coedge $-1 $181 $181 $289 $290 reversed $114 $-1 #
face $-1 $-1 $291 $60 $-1 $292 forward single #
loop $-1 $293 $294 $116 #
cone-surface $-1 16.743456990147763 -36.315138023286941 3.7946074263196508 0 0.62932039886446345 -0.77714595512881146 0.75 0 0 1 I I -0.70710678118654757 0.70710678118654757 0.75 forward I I I I #
loop $-1 $-1 $295 $76 #
coedge $-1 $186 $186 $296 $297 reversed $117 $-1 #
face $-1 $298 $299 $61 $-1 $300 reversed single #
loop $-1 $-1 $301 $119 #
plane-surface $-1 48.71210388198466 -43.256897159624245 3.1611488413710731 0 -0.62932039886446345 0.77714595512881146 1 0 0 forward_v I I I I #
coedge $-1 $302 $303 $304 $305 reversed $120 $-1 #
face $-1 $-1 $306 $62 $-1 $307 forward single #
loop $-1 $308 $309 $122 #
cone-surface $-1 45.006252859481606 -36.315138023286941 3.7946074263196508 0 0.62932039886446345 -0.77714595512881146 0.75 0 0 1 I I -0.70710678118654757 0.70710678118654757 0.75 forward I I I I #
loop $-1 $-1 $310 $78 #
coedge $-1 $195 $195 $311 $312 reversed $123 $-1 #
face $-1 $-1 $313 $63 $-1 $314 forward single #
loop $-1 $315 $316 $125 #
cone-surface $-1 52.417954904487686 -36.315138023286941 3.7946074263196508 0 0.62932039886446345 -0.77714595512881146 0.75 0 0 1 I I -0.70710678118654757 0.70710678118654757 0.75 forward I I I I #
loop $-1 $-1 $317 $79 #
coedge $-1 $200 $200 $318 $319 reversed $126 $-1 #
face $-1 $320 $321 $48 $-1 $322 reversed single #
loop $-1 $-1 $323 $128 #
plane-surface $-1 0 -43.256897159624252 0 0 1 0 0 0 1 forward_v I I I I #
coedge $-1 $324 $325 $326 $327 forward $129 $-1 #
coedge $-1 $328 $131 $329 $330 forward $81 $-1 #
coedge $-1 $131 $328 $331 $332 forward $81 $-1 #
coedge $-1 $333 $334 $131 $208 reversed $335 $-1 #
edge $-1 $336 -43.256897159624252 $337 43.256897159624252 $207 $338 forward 7 unknown #
face $-1 $339 $340 $49 $-1 $341 reversed single #
loop $-1 $-1 $342 $132 #
plane-surface $-1 -80.13023632562178 -27.987784882354866 0 0 1 0 0 0 1 forward_v I I I I #
coedge $-1 $343 $344 $214 $345 forward $133 $-1 #
coedge $-1 $346 $135 $347 $348 reversed $84 $-1 #
coedge $-1 $135 $346 $212 $345 reversed $84 $-1 #
coedge $-1 $349 $350 $135 $216 reversed $351 $-1 #
edge $-1 $352 -10.452969066427222 $353 10.452969066427222 $215 $354 forward 7 unknown #
face $-1 $355 $356 $50 $-1 $357 forward single #
loop $-1 $-1 $358 $136 #
plane-surface $-1 32.392649475699798 47.117675121064842 177.73450118635901 -1 0 0 0 0.51503808176128008 0.85716729658548041 forward_v I I I I #
coedge $-1 $359 $360 $361 $362 reversed $137 $-1 #
coedge $-1 $222 $139 $363 $364 reversed $87 $-1 #
coedge $-1 $139 $221 $359 $365 reversed $87 $-1 #
coedge $-1 $361 $366 $139 $224 forward $356 $-1 #
edge $-1 $367 -19.698059599091831 $368 -7.8493710474666649 $223 $369 forward 7 unknown #
loop $-1 $-1 $230 $140 #
plane-surface $-1 20.397648001001215 -30.899898034358266 47.89145727181193 0 0.51503808176128008 0.85716729658548041 1 0 0 forward_v I I I I #
loop $-1 $-1 $370 $89 #
coedge $-1 $228 $228 $229 $371 reversed $141 $-1 #
coedge $-1 $229 $229 $228 $371 forward $143 $-1 #
coedge $-1 $230 $230 $144 $231 forward $225 $-1 #
edge $-1 $372 -8.0158859289326997e-016 $372 6.2831853071795996 $230 $373 forward 7 unknown #
face $-1 $374 $375 $52 $-1 $376 forward single #
loop $-1 $-1 $377 $145 #
plane-surface $-1 -66.958375580208852 -138.58586795865199 120.88262139610475 1 0 0 0 0.62932039886446345 -0.77714595512881146 forward_v I I I I #
coedge $-1 $378 $379 $380 $381 reversed $146 $-1 #
coedge $-1 $237 $148 $382 $383 reversed $93 $-1 #
coedge $-1 $148 $236 $378 $384 reversed $93 $-1 #
coedge $-1 $380 $385 $148 $239 forward $375 $-1 #
edge $-1 $386 26.036036819701742 $387 35.040684696449354 $238 $388 forward 7 unknown #
loop $-1 $-1 $245 $149 #
plane-surface $-1 -58.311389861035103 -43.256897159624245 3.1611488413710731 0 -0.62932039886446345 0.77714595512881146 1 0 0 forward_v I I I I #
loop $-1 $-1 $389 $95 #
coedge $-1 $243 $243 $244 $390 reversed $150 $-1 #
coedge $-1 $244 $244 $243 $390 forward $152 $-1 #
coedge $-1 $245 $245 $153 $246 forward $240 $-1 #
edge $-1 $391 -1.1178975946969835e-015 $391 6.2831853071795996 $245 $392 forward 7 unknown #
loop $-1 $-1 $252 $154 #
plane-surface $-1 -58.311389861035103 -43.256897159624245 3.1611488413710731 0 -0.62932039886446345 0.77714595512881146 1 0 0 forward_v I I I I #
loop $-1 $-1 $393 $98 #
coedge $-1 $250 $250 $251 $394 reversed $155 $-1 #
coedge $-1 $251 $251 $250 $394 forward $157 $-1 #
coedge $-1 $252 $252 $158 $253 forward $247 $-1 #
edge $-1 $395 -1.1178975946969835e-015 $395 6.2831853071795996 $252 $396 forward 7 unknown #
face $-1 $397 $398 $55 $-1 $399 reversed single #
loop $-1 $-1 $400 $159 #
plane-surface $-1 -31.283877665868932 -138.58586795865199 120.88262139610475 1 0 0 0 0.62932039886446345 -0.77714595512881146 forward_v I I I I #
coedge $-1 $401 $402 $403 $404 reversed $160 $-1 #
coedge $-1 $259 $162 $405 $406 reversed $102 $-1 #
coedge $-1 $162 $258 $401 $407 reversed $102 $-1 #
coedge $-1 $403 $408 $162 $261 forward $409 $-1 #
edge $-1 $410 26.036036819701742 $411 35.040684696449354 $260 $412 forward 7 unknown #
loop $-1 $-1 $267 $163 #
plane-surface $-1 -22.636891946695187 -43.256897159624245 3.1611488413710731 0 -0.62932039886446345 0.77714595512881146 1 0 0 forward_v I I I I #
loop $-1 $-1 $413 $104 #
coedge $-1 $265 $265 $266 $414 reversed $164 $-1 #
coedge $-1 $266 $266 $265 $414 forward $166 $-1 #
coedge $-1 $267 $267 $167 $268 forward $262 $-1 #
edge $-1 $415 -1.1178975946969835e-015 $415 6.2831853071795996 $267 $416 forward 7 unknown #
loop $-1 $-1 $274 $168 #
plane-surface $-1 -22.636891946695187 -43.256897159624245 3.1611488413710731 0 -0.62932039886446345 0.77714595512881146 1 0 0 forward_v I I I I #
loop $-1 $-1 $417 $107 #
coedge $-1 $272 $272 $273 $418 reversed $169 $-1 #
coedge $-1 $273 $273 $272 $418 forward $171 $-1 #
coedge $-1 $274 $274 $172 $275 forward $269 $-1 #
edge $-1 $419 -1.1178975946969835e-015 $419 6.2831853071795996 $274 $420 forward 7 unknown #
face $-1 $421 $422 $58 $-1 $423 reversed single #
loop $-1 $-1 $424 $173 #
plane-surface $-1 4.3906202484709915 -138.58586795865199 120.88262139610475 1 0 0 0 0.62932039886446345 -0.77714595512881146 forward_v I I I I #
coedge $-1 $425 $426 $427 $428 reversed $174 $-1 #
coedge $-1 $281 $176 $429 $430 reversed $111 $-1 #
coedge $-1 $176 $280 $425 $431 reversed $111 $-1 #
coedge $-1 $427 $432 $176 $283 forward $433 $-1 #
edge $-1 $434 26.036036819701742 $435 35.040684696449354 $282 $436 forward 7 unknown #
loop $-1 $-1 $289 $177 #
plane-surface $-1 13.037605967644737 -43.256897159624245 3.1611488413710731 0 -0.62932039886446345 0.77714595512881146 1 0 0 forward_v I I I I #
loop $-1 $-1 $437 $113 #
coedge $-1 $287 $287 $288 $438 reversed $178 $-1 #
coedge $-1 $288 $288 $287 $438 forward $180 $-1 #
coedge $-1 $289 $289 $181 $290 forward $284 $-1 #
edge $-1 $439 -1.1178975946969835e-015 $439 6.2831853071795996 $289 $440 forward 7 unknown #
loop $-1 $-1 $296 $182 #
plane-surface $-1 13.037605967644737 -43.256897159624245 3.1611488413710731 0 -0.62932039886446345 0.77714595512881146 1 0 0 forward_v I I I I #
loop $-1 $-1 $441 $116 #
coedge $-1 $294 $294 $295 $442 reversed $183 $-1 #
coedge $-1 $295 $295 $294 $442 forward $185 $-1 #
coedge $-1 $296 $296 $186 $297 forward $291 $-1 #
edge $-1 $443 -1.1178975946969835e-015 $443 6.2831853071795996 $296 $444 forward 7 unknown #
face $-1 $445 $446 $61 $-1 $447 reversed single #
loop $-1 $-1 $448 $187 #
plane-surface $-1 40.065118162810919 -138.58586795865199 120.88262139610475 1 0 0 0 0.62932039886446345 -0.77714595512881146 forward_v I I I I #
coedge $-1 $449 $450 $451 $452 reversed $188 $-1 #
coedge $-1 $303 $190 $453 $454 reversed $120 $-1 #
coedge $-1 $190 $302 $449 $455 reversed $120 $-1 #
coedge $-1 $451 $456 $190 $305 forward $457 $-1 #
edge $-1 $458 26.036036819701742 $459 35.040684696449354 $304 $460 forward 7 unknown #
loop $-1 $-1 $311 $191 #
plane-surface $-1 48.71210388198466 -43.256897159624245 3.1611488413710731 0 -0.62932039886446345 0.77714595512881146 1 0 0 forward_v I I I I #
loop $-1 $-1 $461 $122 #
coedge $-1 $309 $309 $310 $462 reversed $192 $-1 #
coedge $-1 $310 $310 $309 $462 forward $194 $-1 #
coedge $-1 $311 $311 $195 $312 forward $306 $-1 #
edge $-1 $463 -1.1178975946969835e-015 $463 6.2831853071795996 $311 $464 forward 7 unknown #
loop $-1 $-1 $318 $196 #
plane-surface $-1 48.71210388198466 -43.256897159624245 3.1611488413710731 0 -0.62932039886446345 0.77714595512881146 1 0 0 forward_v I I I I #
loop $-1 $-1 $465 $125 #
coedge $-1 $316 $316 $317 $466 reversed $197 $-1 #
coedge $-1 $317 $317 $316 $466 forward $199 $-1 #
coedge $-1 $318 $318 $200 $319 forward $313 $-1 #
edge $-1 $467 -1.1178975946969835e-015 $467 6.2831853071795996 $318 $468 forward 7 unknown #
face $-1 $469 $470 $48 $-1 $471 reversed single #
loop $-1 $-1 $472 $201 #
plane-surface $-1 -75.739616077150799 0 0 1 0 0 0 0 -1 forward_v I I I I #
coedge $-1 $473 $331 $474 $475 forward $202 $-1 #
coedge $-1 $476 $204 $473 $477 forward $129 $-1 #
coedge $-1 $204 $476 $478 $479 forward $129 $-1 #
coedge $-1 $334 $333 $204 $327 reversed $335 $-1 #
edge $-1 $480 -43.256897159624252 $481 43.256897159624252 $326 $482 forward 7 unknown #
coedge $-1 $206 $205 $483 $484 forward $81 $-1 #
coedge $-1 $485 $486 $205 $330 reversed $470 $-1 #
edge $-1 $337 -75.739616077150799 $487 75.739616077150799 $329 $488 forward 7 unknown #
coedge $-1 $323 $489 $206 $332 reversed $202 $-1 #
edge $-1 $490 -75.739616077150799 $336 75.739616077150799 $331 $491 forward 7 unknown #
coedge $-1 $326 $207 $489 $492 forward $335 $-1 #
coedge $-1 $207 $326 $485 $493 reversed $335 $-1 #
loop $-1 $-1 $333 $469 #
vertex $-1 $208 $494 #
vertex $-1 $208 $495 #
straight-curve $-1 75.739616077150799 0 10.452969066427222 0 1 0 I I #
face $-1 $496 $351 $49 $-1 $497 reversed single #
loop $-1 $-1 $498 $209 #
plane-surface $-1 -84.520856574092761 -25.169371954562337 0 1 0 0 0 0 -1 forward_v I I I I #
coedge $-1 $499 $500 $501 $502 forward $210 $-1 #
coedge $-1 $503 $212 $499 $504 forward $133 $-1 #
coedge $-1 $212 $503 $349 $505 forward $133 $-1 #
edge $-1 $352 22.350959026769807 $506 27.987784882354866 $212 $507 forward 7 unknown #
coedge $-1 $214 $213 $508 $509 forward $84 $-1 #
coedge $-1 $510 $511 $213 $348 forward $512 $-1 #
edge $-1 $513 -27.987784882354866 $353 -22.350959026769807 $347 $514 forward 7 unknown #
coedge $-1 $515 $215 $344 $505 reversed $351 $-1 #
coedge $-1 $215 $515 $510 $516 reversed $351 $-1 #
loop $-1 $-1 $215 $339 #
vertex $-1 $345 $517 #
vertex $-1 $516 $518 #
straight-curve $-1 -75.739616077150799 -22.350959026769807 0 0 0 1 I I #
face $-1 $-1 $519 $50 $-1 $520 reversed single #
loop $-1 $-1 $223 $217 #
plane-surface $-1 0 0 10.452969066427222 0 0 1 1 0 0 forward_v I I I I #
coedge $-1 $521 $522 $523 $524 reversed $218 $-1 #
coedge $-1 $525 $220 $222 $365 forward $137 $-1 #
coedge $-1 $220 $525 $521 $526 forward $137 $-1 #
coedge $-1 $523 $223 $220 $362 forward $356 $-1 #
edge $-1 $368 -1.7961774741979752 $527 22.193825475199191 $361 $528 forward 7 unknown #
coedge $-1 $529 $530 $221 $364 forward $519 $-1 #
edge $-1 $531 -85.533691993443256 $367 -78.414281526752291 $363 $532 forward 7 unknown #
edge $-1 $368 72.690718475332915 $531 86.51379431924849 $222 $533 forward 7 unknown #
coedge $-1 $223 $523 $529 $534 forward $356 $-1 #
vertex $-1 $364 $535 #
vertex $-1 $224 $536 #
straight-curve $-1 8.4026465263026324 23.558837560532421 10.452969066427215 0 -1 0 I I #
coedge $-1 $370 $370 $-1 $537 reversed $227 $-1 #
edge $-1 $538 0 $538 6.2831853071796004 $228 $539 forward 7 unknown #
vertex $-1 $231 $540 #
ellipse-curve $-1 20.397648001001215 37.332552883811658 6.8932638330817468 0 0.51503808176128008 0.85716729658548041 1.5 0 0 1 I I #
face $-1 $-1 $541 $52 $-1 $542 reversed single #
loop $-1 $-1 $238 $232 #
plane-surface $-1 0 0 10.452969066427222 0 0 1 1 0 0 forward_v I I I I #
coedge $-1 $543 $544 $545 $546 reversed $233 $-1 #
coedge $-1 $547 $235 $237 $384 forward $146 $-1 #
coedge $-1 $235 $547 $543 $548 forward $146 $-1 #
coedge $-1 $545 $238 $235 $381 forward $375 $-1 #
edge $-1 $387 20.508709211343803 $549 37.802680649691297 $380 $550 forward 7 unknown #
coedge $-1 $551 $552 $236 $383 forward $541 $-1 #
edge $-1 $553 -57.28016185668131 $386 -49.988341631625154 $382 $554 forward 7 unknown #
edge $-1 $387 -11.586816887253939 $553 9.1551213131864128e-015 $237 $555 forward 7 unknown #
coedge $-1 $238 $545 $551 $556 forward $375 $-1 #
vertex $-1 $239 $557 #
vertex $-1 $239 $558 #
straight-curve $-1 -49.664404141861354 -69.292933979325994 10.452969066427222 0 1 0 I I #
coedge $-1 $389 $389 $-1 $559 reversed $242 $-1 #
edge $-1 $560 0 $560 6.2831853071796004 $243 $561 forward 7 unknown #
vertex $-1 $246 $562 #
ellipse-curve $-1 -62.017240883538136 -38.754573221250446 6.8070589538991451 0 -0.62932039886446345 0.77714595512881146 1.5 0 0 1 I I #
coedge $-1 $393 $393 $-1 $563 reversed $249 $-1 #
edge $-1 $564 0 $564 6.2831853071796004 $250 $565 forward 7 unknown #
vertex $-1 $253 $566 #
ellipse-curve $-1 -54.60553883853207 -38.754573221250446 6.8070589538991451 0 -0.62932039886446345 0.77714595512881146 1.5 0 0 1 I I #
face $-1 $-1 $409 $55 $-1 $567 forward single #
loop $-1 $-1 $568 $254 #
plane-surface $-1 0 -43.256897159624252 0 0 1 0 0 0 1 forward_v I I I I #
coedge $-1 $569 $570 $571 $572 reversed $255 $-1 #
coedge $-1 $573 $257 $259 $407 forward $160 $-1 #
coedge $-1 $257 $573 $569 $574 forward $160 $-1 #
coedge $-1 $571 $260 $257 $404 forward $409 $-1 #
edge $-1 $411 2.6714602541738479 $575 19.965431692521339 $403 $576 forward 7 unknown #
coedge $-1 $577 $578 $258 $406 forward $398 $-1 #
edge $-1 $579 -57.28016185668131 $410 -49.988341631625154 $405 $580 forward 7 unknown #
edge $-1 $411 -11.586816887253939 $579 9.1551213131864128e-015 $259 $581 forward 7 unknown #
coedge $-1 $260 $571 $577 $582 forward $409 $-1 #
loop $-1 $-1 $571 $397 #
vertex $-1 $406 $583 #
vertex $-1 $261 $584 #
straight-curve $-1 -13.989906227521441 -69.292933979325994 10.452969066427222 0 1 0 I I #
coedge $-1 $413 $413 $-1 $585 reversed $264 $-1 #
edge $-1 $586 0 $586 6.2831853071796004 $265 $587 forward 7 unknown #
vertex $-1 $268 $588 #
ellipse-curve $-1 -26.34274296919822 -38.754573221250446 6.8070589538991451 0 -0.62932039886446345 0.77714595512881146 1.5 0 0 1 I I #
coedge $-1 $417 $417 $-1 $589 reversed $271 $-1 #
edge $-1 $590 0 $590 6.2831853071796004 $272 $591 forward 7 unknown #
vertex $-1 $275 $592 #
ellipse-curve $-1 -18.931040924192153 -38.754573221250446 6.8070589538991451 0 -0.62932039886446345 0.77714595512881146 1.5 0 0 1 I I #
face $-1 $-1 $433 $58 $-1 $593 forward single #
loop $-1 $-1 $594 $276 #
plane-surface $-1 0 -43.256897159624252 0 0 1 0 0 0 1 forward_v I I I I #
coedge $-1 $595 $596 $597 $598 reversed $277 $-1 #
coedge $-1 $599 $279 $281 $431 forward $174 $-1 #
coedge $-1 $279 $599 $595 $600 forward $174 $-1 #
coedge $-1 $597 $282 $279 $428 forward $433 $-1 #
edge $-1 $435 -15.165788702996114 $601 2.1281827353513769 $427 $602 forward 7 unknown #
coedge $-1 $603 $604 $280 $430 forward $422 $-1 #
edge $-1 $605 -57.28016185668131 $434 -49.988341631625154 $429 $606 forward 7 unknown #
edge $-1 $435 -11.586816887253939 $605 9.1551213131864128e-015 $281 $607 forward 7 unknown #
coedge $-1 $282 $597 $603 $608 forward $433 $-1 #
loop $-1 $-1 $597 $421 #
vertex $-1 $430 $609 #
vertex $-1 $283 $610 #
straight-curve $-1 21.684591686818482 -69.292933979325994 10.452969066427222 0 1 0 I I #
coedge $-1 $437 $437 $-1 $611 reversed $286 $-1 #
edge $-1 $612 0 $612 6.2831853071796004 $287 $613 forward 7 unknown #
vertex $-1 $290 $614 #
ellipse-curve $-1 9.3317549451416966 -38.754573221250446 6.8070589538991451 0 -0.62932039886446345 0.77714595512881146 1.5 0 0 1 I I #
coedge $-1 $441 $441 $-1 $615 reversed $293 $-1 #
edge $-1 $616 0 $616 6.2831853071796004 $294 $617 forward 7 unknown #
vertex $-1 $297 $618 #
ellipse-curve $-1 16.743456990147763 -38.754573221250446 6.8070589538991451 0 -0.62932039886446345 0.77714595512881146 1.5 0 0 1 I I #
face $-1 $-1 $457 $61 $-1 $619 forward single #
loop $-1 $-1 $620 $298 #
plane-surface $-1 0 -43.256897159624252 0 0 1 0 0 0 1 forward_v I I I I #
coedge $-1 $621 $622 $623 $624 reversed $299 $-1 #
coedge $-1 $625 $301 $303 $455 forward $188 $-1 #
coedge $-1 $301 $625 $621 $626 forward $188 $-1 #
coedge $-1 $623 $304 $301 $452 forward $457 $-1 #
edge $-1 $459 -33.003037660166072 $627 -15.709066221818588 $451 $628 forward 7 unknown #
coedge $-1 $629 $630 $302 $454 forward $446 $-1 #
edge $-1 $631 -57.28016185668131 $458 -49.988341631625154 $453 $632 forward 7 unknown #
edge $-1 $459 -11.586816887253939 $631 9.1551213131864128e-015 $303 $633 forward 7 unknown #
coedge $-1 $304 $623 $629 $634 forward $457 $-1 #
loop $-1 $-1 $623 $445 #
vertex $-1 $454 $635 #
vertex $-1 $305 $636 #
straight-curve $-1 57.359089601158402 -69.292933979325994 10.452969066427222 0 1 0 I I #
coedge $-1 $461 $461 $-1 $637 reversed $308 $-1 #
edge $-1 $638 0 $638 6.2831853071796004 $309 $639 forward 7 unknown #
vertex $-1 $312 $640 #
ellipse-curve $-1 45.006252859481606 -38.754573221250446 6.8070589538991451 0 -0.62932039886446345 0.77714595512881146 1.5 0 0 1 I I #
coedge $-1 $465 $465 $-1 $641 reversed $315 $-1 #
edge $-1 $642 0 $642 6.2831853071796004 $316 $643 forward 7 unknown #
vertex $-1 $319 $644 #
ellipse-curve $-1 52.417954904487686 -38.754573221250446 6.8070589538991451 0 -0.62932039886446345 0.77714595512881146 1.5 0 0 1 I I #
face $-1 $-1 $335 $48 $-1 $645 reversed single #
loop $-1 $-1 $485 $320 #
plane-surface $-1 0 43.256897159624252 0 0 -1 0 0 0 -1 forward_v I I I I #
coedge $-1 $646 $483 $486 $647 forward $321 $-1 #
coedge $-1 $489 $323 $324 $477 reversed $202 $-1 #
coedge $-1 $483 $646 $323 $475 reversed $321 $-1 #
edge $-1 $490 -10.452969066427222 $648 10.452969066427222 $474 $649 forward 7 unknown #
coedge $-1 $325 $324 $646 $650 forward $129 $-1 #
edge $-1 $481 -75.739616077150799 $648 75.739616077150799 $473 $651 forward 7 unknown #
coedge $-1 $486 $485 $325 $479 reversed $470 $-1 #
edge $-1 $652 -75.739616077150799 $480 75.739616077150799 $478 $653 forward 7 unknown #
vertex $-1 $327 $654 #
vertex $-1 $492 $655 #
straight-curve $-1 75.739616077150799 0 -10.452969066427222 0 -1 0 I I #
coedge $-1 $472 $474 $328 $484 reversed $321 $-1 #
edge $-1 $487 -43.256897159624252 $490 43.256897159624252 $483 $656 forward 7 unknown #
coedge $-1 $478 $329 $334 $493 forward $470 $-1 #
coedge $-1 $329 $478 $472 $647 reversed $470 $-1 #
vertex $-1 $330 $657 #
straight-curve $-1 0 43.256897159624252 10.452969066427222 -1 0 0 I I #
coedge $-1 $331 $473 $333 $492 reversed $202 $-1 #
vertex $-1 $484 $658 #
straight-curve $-1 0 -43.256897159624252 10.452969066427222 1 0 0 I I #
edge $-1 $336 -10.452969066427222 $481 10.452969066427222 $333 $659 forward 7 unknown #
edge $-1 $337 -10.452969066427222 $480 10.452969066427222 $334 $660 forward 7 unknown #
point $-1 75.739616077150799 -43.256897159624252 10.452969066427222 #
point $-1 75.739616077150799 43.256897159624252 10.452969066427222 #
face $-1 $-1 $512 $49 $-1 $661 forward single #
plane-surface $-1 -80.13023632562178 -22.350959026769807 0 0 -1 0 0 0 -1 forward_v I I I I #
coedge $-1 $662 $663 $515 $664 forward $340 $-1 #
coedge $-1 $508 $342 $343 $504 reversed $210 $-1 #
coedge $-1 $342 $508 $511 $665 reversed $210 $-1 #
coedge $-1 $663 $662 $342 $502 reversed $340 $-1 #
edge $-1 $666 -10.452969066427222 $667 10.452969066427222 $501 $668 forward 7 unknown #
coedge $-1 $344 $343 $662 $669 forward $133 $-1 #
edge $-1 $506 -4.3906202484709809 $667 4.3906202484709809 $499 $670 forward 7 unknown #
edge $-1 $671 -4.3906202484709809 $352 4.3906202484709809 $349 $672 forward 7 unknown #
vertex $-1 $504 $673 #
straight-curve $-1 -75.739616077150799 0 -10.452969066427222 0 -1 0 I I #
coedge $-1 $500 $499 $346 $509 reversed $210 $-1 #
edge $-1 $513 -10.452969066427222 $506 10.452969066427222 $508 $674 forward 7 unknown #
coedge $-1 $675 $347 $350 $516 forward $512 $-1 #
coedge $-1 $347 $675 $500 $665 forward $512 $-1 #
loop $-1 $-1 $347 $496 #
vertex $-1 $348 $676 #
straight-curve $-1 -75.739616077150799 0 10.452969066427222 0 1 0 I I #
coedge $-1 $350 $349 $498 $664 reversed $351 $-1 #
edge $-1 $353 -4.3906202484709809 $677 4.3906202484709809 $350 $678 forward 7 unknown #
point $-1 -75.739616077150799 -22.350959026769807 -10.452969066427222 #
point $-1 -75.739616077150799 -22.350959026769807 10.452969066427222 #
loop $-1 $-1 $363 $355 #
plane-surface $-1 0 43.256897159624252 0 0 -1 0 0 0 -1 forward_v I I I I #
coedge $-1 $522 $358 $360 $526 reversed $218 $-1 #
coedge $-1 $358 $521 $679 $680 reversed $218 $-1 #
coedge $-1 $366 $361 $358 $524 forward $356 $-1 #
edge $-1 $527 7.8493710474666649 $681 19.698059599091831 $523 $682 forward 7 unknown #
coedge $-1 $360 $359 $530 $683 reversed $137 $-1 #
edge $-1 $684 -86.51379431924849 $527 -72.690718475332915 $521 $685 forward 7 unknown #
vertex $-1 $362 $686 #
straight-curve $-1 10.198824000500608 31.408208607999079 10.452969066427222 1 0 0 I I #
coedge $-1 $679 $363 $366 $534 reversed $519 $-1 #
coedge $-1 $363 $679 $525 $683 forward $519 $-1 #
vertex $-1 $364 $687 #
straight-curve $-1 8.4026465263026324 43.256897159624252 88.867250593179506 0 0 1 I I #
straight-curve $-1 8.4026465263026324 -30.899898034358266 47.89145727181193 0 0.85716729658548041 -0.51503808176128008 I I #
edge $-1 $681 -32.392649475699798 $367 -8.4026465263026324 $529 $688 forward 7 unknown #
point $-1 8.4026465263026324 43.256897159624252 10.452969066427222 #
point $-1 8.4026465263026324 31.408208607999086 10.452969066427222 #
edge $-1 $689 1 $689 0 $370 $-1 forward 7 unknown #
vertex $-1 $371 $690 #
ellipse-curve $-1 20.397648001001215 35.322683061223884 3.5482787857142899 0 0.51503808176128008 0.85716729658548041 1.5 0 0 1 I I #
point $-1 21.897648001001215 37.332552883811644 6.8932638330817255 #
loop $-1 $-1 $382 $374 #
plane-surface $-1 0 -43.256897159624252 0 0 1 0 0 0 1 forward_v I I I I #
coedge $-1 $544 $377 $379 $548 reversed $233 $-1 #
coedge $-1 $377 $543 $691 $692 reversed $233 $-1 #
coedge $-1 $385 $380 $377 $546 forward $375 $-1 #
edge $-1 $549 -35.040684696449354 $693 -26.036036819701742 $545 $694 forward 7 unknown #
coedge $-1 $379 $378 $552 $695 reversed $146 $-1 #
edge $-1 $696 -9.1551213131864128e-015 $549 11.586816887253939 $543 $697 forward 7 unknown #
vertex $-1 $381 $698 #
straight-curve $-1 -29.155694930517551 -34.25224928287664 10.452969066427222 -1 0 0 I I #
coedge $-1 $691 $382 $385 $556 reversed $541 $-1 #
coedge $-1 $382 $691 $547 $695 forward $541 $-1 #
vertex $-1 $383 $699 #
straight-curve $-1 -49.664404141861354 -43.256897159624252 60.441310698052376 0 0 1 I I #
straight-curve $-1 -49.664404141861354 -43.256897159624245 3.1611488413710731 0 -0.77714595512881146 -0.62932039886446345 I I #
edge $-1 $693 -66.958375580208852 $386 -49.664404141861354 $551 $700 forward 7 unknown #
point $-1 -49.664404141861354 -43.256897159624252 10.452969066427222 #
point $-1 -49.664404141861354 -34.25224928287664 10.452969066427222 #
edge $-1 $701 1 $701 0 $389 $-1 forward 7 unknown #
vertex $-1 $390 $702 #
ellipse-curve $-1 -62.017240883538136 -36.787128322435287 4.3774668926662592 0 -0.62932039886446345 0.77714595512881146 1.5 0 0 1 I I #
point $-1 -60.517240883538136 -38.754573221250446 6.8070589538991424 #
edge $-1 $703 1 $703 0 $393 $-1 forward 7 unknown #
vertex $-1 $394 $704 #
ellipse-curve $-1 -54.60553883853207 -36.787128322435287 4.3774668926662592 0 -0.62932039886446345 0.77714595512881146 1.5 0 0 1 I I #
point $-1 -53.10553883853207 -38.754573221250446 6.8070589538991424 #
plane-surface $-1 0 0 10.452969066427222 0 0 1 1 0 0 forward_v I I I I #
coedge $-1 $578 $577 $570 $705 forward $398 $-1 #
coedge $-1 $570 $400 $402 $574 reversed $255 $-1 #
coedge $-1 $400 $569 $568 $705 reversed $255 $-1 #
coedge $-1 $408 $403 $400 $572 forward $409 $-1 #
edge $-1 $575 -35.040684696449354 $706 -26.036036819701742 $571 $707 forward 7 unknown #
coedge $-1 $402 $401 $578 $708 reversed $160 $-1 #
edge $-1 $709 -9.1551213131864128e-015 $575 11.586816887253939 $569 $710 forward 7 unknown #
vertex $-1 $404 $711 #
straight-curve $-1 -11.318445973347593 -34.25224928287664 10.452969066427222 -1 0 0 I I #
coedge $-1 $568 $405 $408 $582 reversed $398 $-1 #
coedge $-1 $405 $568 $573 $708 forward $398 $-1 #
vertex $-1 $406 $712 #
straight-curve $-1 -13.989906227521441 -43.256897159624252 60.441310698052376 0 0 1 I I #
straight-curve $-1 -13.989906227521441 -43.256897159624245 3.1611488413710731 0 -0.77714595512881146 -0.62932039886446345 I I #
edge $-1 $706 -31.283877665868932 $410 -13.989906227521441 $577 $713 forward 7 unknown #
point $-1 -13.989906227521441 -43.256897159624252 10.452969066427222 #
point $-1 -13.989906227521441 -34.25224928287664 10.452969066427222 #
edge $-1 $714 1 $714 0 $413 $-1 forward 7 unknown #
vertex $-1 $414 $715 #
ellipse-curve $-1 -26.34274296919822 -36.787128322435287 4.3774668926662592 0 -0.62932039886446345 0.77714595512881146 1.5 0 0 1 I I #
point $-1 -24.84274296919822 -38.754573221250446 6.8070589538991424 #
edge $-1 $716 1 $716 0 $417 $-1 forward 7 unknown #
vertex $-1 $418 $717 #
ellipse-curve $-1 -18.931040924192153 -36.787128322435287 4.3774668926662592 0 -0.62932039886446345 0.77714595512881146 1.5 0 0 1 I I #
point $-1 -17.431040924192153 -38.754573221250446 6.8070589538991424 #
plane-surface $-1 0 0 10.452969066427222 0 0 1 1 0 0 forward_v I I I I #
coedge $-1 $604 $603 $596 $718 forward $422 $-1 #
coedge $-1 $596 $424 $426 $600 reversed $277 $-1 #
coedge $-1 $424 $595 $594 $718 reversed $277 $-1 #
coedge $-1 $432 $427 $424 $598 forward $433 $-1 #
edge $-1 $601 -35.040684696449354 $719 -26.036036819701742 $597 $720 forward 7 unknown #
coedge $-1 $426 $425 $604 $721 reversed $174 $-1 #
edge $-1 $722 -9.1551213131864128e-015 $601 11.586816887253939 $595 $723 forward 7 unknown #
vertex $-1 $428 $724 #
straight-curve $-1 6.5188029838223684 -34.25224928287664 10.452969066427222 -1 0 0 I I #
coedge $-1 $594 $429 $432 $608 reversed $422 $-1 #
coedge $-1 $429 $594 $599 $721 forward $422 $-1 #
vertex $-1 $430 $725 #
straight-curve $-1 21.684591686818482 -43.256897159624252 60.441310698052376 0 0 1 I I #
straight-curve $-1 21.684591686818482 -43.256897159624245 3.1611488413710731 0 -0.77714595512881146 -0.62932039886446345 I I #
edge $-1 $719 4.3906202484709915 $434 21.684591686818482 $603 $726 forward 7 unknown #
point $-1 21.684591686818482 -43.256897159624252 10.452969066427222 #
point $-1 21.684591686818482 -34.25224928287664 10.452969066427222 #
edge $-1 $727 1 $727 0 $437 $-1 forward 7 unknown #
vertex $-1 $438 $728 #
ellipse-curve $-1 9.3317549451416966 -36.787128322435287 4.3774668926662592 0 -0.62932039886446345 0.77714595512881146 1.5 0 0 1 I I #
point $-1 10.831754945141697 -38.754573221250446 6.8070589538991424 #
edge $-1 $729 1 $729 0 $441 $-1 forward 7 unknown #
vertex $-1 $442 $730 #
ellipse-curve $-1 16.743456990147763 -36.787128322435287 4.3774668926662592 0 -0.62932039886446345 0.77714595512881146 1.5 0 0 1 I I #
point $-1 18.243456990147763 -38.754573221250446 6.8070589538991424 #
plane-surface $-1 0 0 10.452969066427222 0 0 1 1 0 0 forward_v I I I I #
coedge $-1 $630 $629 $622 $731 forward $446 $-1 #
coedge $-1 $622 $448 $450 $626 reversed $299 $-1 #
coedge $-1 $448 $621 $620 $731 reversed $299 $-1 #
coedge $-1 $456 $451 $448 $624 forward $457 $-1 #
edge $-1 $627 -35.040684696449354 $732 -26.036036819701742 $623 $733 forward 7 unknown #
coedge $-1 $450 $449 $630 $734 reversed $188 $-1 #
edge $-1 $735 -9.1551213131864128e-015 $627 11.586816887253939 $621 $736 forward 7 unknown #
vertex $-1 $452 $737 #
straight-curve $-1 24.35605194099233 -34.25224928287664 10.452969066427222 -1 0 0 I I #
coedge $-1 $620 $453 $456 $634 reversed $446 $-1 #
coedge $-1 $453 $620 $625 $734 forward $446 $-1 #
vertex $-1 $454 $738 #
straight-curve $-1 57.359089601158402 -43.256897159624252 60.441310698052376 0 0 1 I I #
straight-curve $-1 57.359089601158402 -43.256897159624245 3.1611488413710731 0 -0.77714595512881146 -0.62932039886446345 I I #
edge $-1 $732 40.065118162810919 $458 57.359089601158402 $629 $739 forward 7 unknown #
point $-1 57.359089601158402 -43.256897159624252 10.452969066427222 #
point $-1 57.359089601158402 -34.25224928287664 10.452969066427222 #
edge $-1 $740 1 $740 0 $461 $-1 forward 7 unknown #
vertex $-1 $462 $741 #
ellipse-curve $-1 45.006252859481606 -36.787128322435287 4.3774668926662592 0 -0.62932039886446345 0.77714595512881146 1.5 0 0 1 I I #
point $-1 46.506252859481606 -38.754573221250446 6.8070589538991424 #
edge $-1 $742 1 $742 0 $465 $-1 forward 7 unknown #
vertex $-1 $466 $743 #
ellipse-curve $-1 52.417954904487686 -36.787128322435287 4.3774668926662592 0 -0.62932039886446345 0.77714595512881146 1.5 0 0 1 I I #
point $-1 53.917954904487686 -38.754573221250446 6.8070589538991424 #
plane-surface $-1 75.739616077150799 0 0 -1 0 0 0 0 1 forward_v I I I I #
coedge $-1 $474 $472 $476 $650 reversed $321 $-1 #
edge $-1 $487 -10.452969066427222 $652 10.452969066427222 $486 $744 forward 7 unknown #
vertex $-1 $650 $745 #
straight-curve $-1 -75.739616077150799 -43.256897159624252 0 0 0 -1 I I #
edge $-1 $648 -43.256897159624252 $652 43.256897159624252 $646 $746 forward 7 unknown #
straight-curve $-1 0 -43.256897159624252 -10.452969066427222 -1 0 0 I I #
vertex $-1 $479 $747 #
straight-curve $-1 0 43.256897159624252 -10.452969066427222 1 0 0 I I #
point $-1 75.739616077150799 43.256897159624252 -10.452969066427222 #
point $-1 75.739616077150799 -43.256897159624252 -10.452969066427222 #
straight-curve $-1 -75.739616077150799 0 10.452969066427222 0 -1 0 I I #
point $-1 -75.739616077150799 43.256897159624252 10.452969066427222 #
point $-1 -75.739616077150799 -43.256897159624252 10.452969066427222 #
straight-curve $-1 75.739616077150799 -43.256897159624252 0 0 0 -1 I I #
straight-curve $-1 75.739616077150799 43.256897159624252 0 0 0 -1 I I #
plane-surface $-1 0 0 10.452969066427222 0 0 1 1 0 0 forward_v I I I I #
coedge $-1 $501 $498 $503 $669 reversed $340 $-1 #
coedge $-1 $498 $501 $675 $748 reversed $340 $-1 #
edge $-1 $677 -10.452969066427222 $671 10.452969066427222 $515 $749 forward 7 unknown #
edge $-1 $666 -4.3906202484709809 $513 4.3906202484709809 $500 $750 forward 7 unknown #
vertex $-1 $748 $751 #
vertex $-1 $669 $752 #
straight-curve $-1 -84.520856574092761 -27.987784882354866 0 0 0 -1 I I #
edge $-1 $667 -2.8184129277925294 $671 2.8184129277925294 $662 $753 forward 7 unknown #
straight-curve $-1 -80.13023632562178 -27.987784882354866 -10.452969066427222 -1 0 0 I I #
vertex $-1 $505 $754 #
straight-curve $-1 -80.13023632562178 -22.350959026769807 -10.452969066427222 1 0 0 I I #
point $-1 -75.739616077150799 -27.987784882354866 -10.452969066427222 #
straight-curve $-1 -75.739616077150799 -27.987784882354866 0 0 0 -1 I I #
coedge $-1 $511 $510 $663 $748 forward $512 $-1 #
point $-1 -75.739616077150799 -27.987784882354866 10.452969066427222 #
vertex $-1 $516 $755 #
straight-curve $-1 -80.13023632562178 -22.350959026769807 10.452969066427222 -1 0 0 I I #
coedge $-1 $530 $529 $522 $680 forward $519 $-1 #
edge $-1 $681 78.414281526752291 $684 85.533691993443256 $679 $756 forward 7 unknown #
vertex $-1 $534 $757 #
straight-curve $-1 32.392649475699798 23.558837560532421 10.452969066427215 0 1 0 I I #
edge $-1 $684 -22.193825475199191 $531 1.7961774741979752 $530 $758 forward 7 unknown #
vertex $-1 $683 $759 #
straight-curve $-1 32.392649475699798 -30.899898034358266 47.89145727181193 0 -0.85716729658548041 0.51503808176128008 I I #
point $-1 32.392649475699798 31.408208607999086 10.452969066427222 #
point $-1 8.4026465263026324 43.256897159624252 3.3335585997362571 #
straight-curve $-1 0 43.256897159624252 10.452969066427222 -1 0 0 I I #
vertex $-1 $537 $760 #
point $-1 21.897648001001215 35.322683061223884 3.5482787857142899 #
coedge $-1 $552 $551 $544 $692 forward $541 $-1 #
edge $-1 $693 49.988341631625154 $696 57.28016185668131 $691 $761 forward 7 unknown #
vertex $-1 $556 $762 #
straight-curve $-1 -66.958375580208852 -69.292933979325994 10.452969066427222 0 -1 0 I I #
edge $-1 $696 -37.802680649691297 $553 -20.508709211343803 $552 $763 forward 7 unknown #
vertex $-1 $695 $764 #
straight-curve $-1 -66.958375580208852 -43.256897159624245 3.1611488413710731 0 0.77714595512881146 0.62932039886446345 I I #
point $-1 -66.958375580208852 -34.25224928287664 10.452969066427222 #
point $-1 -49.664404141861354 -43.256897159624252 3.1611488413710673 #
straight-curve $-1 0 -43.256897159624252 10.452969066427222 1 0 0 I I #
vertex $-1 $559 $765 #
point $-1 -60.517240883538136 -36.787128322435287 4.3774668926662592 #
vertex $-1 $563 $766 #
point $-1 -53.10553883853207 -36.787128322435287 4.3774668926662592 #
edge $-1 $706 49.988341631625154 $709 57.28016185668131 $568 $767 forward 7 unknown #
vertex $-1 $582 $768 #
straight-curve $-1 -31.283877665868932 -69.292933979325994 10.452969066427222 0 -1 0 I I #
edge $-1 $709 -19.965431692521339 $579 -2.6714602541738479 $578 $769 forward 7 unknown #
vertex $-1 $708 $770 #
straight-curve $-1 -31.283877665868932 -43.256897159624245 3.1611488413710731 0 0.77714595512881146 0.62932039886446345 I I #
point $-1 -31.283877665868932 -34.25224928287664 10.452969066427222 #
point $-1 -13.989906227521441 -43.256897159624252 3.1611488413710673 #
straight-curve $-1 0 -43.256897159624252 10.452969066427222 1 0 0 I I #
vertex $-1 $585 $771 #
point $-1 -24.84274296919822 -36.787128322435287 4.3774668926662592 #
vertex $-1 $589 $772 #
point $-1 -17.431040924192153 -36.787128322435287 4.3774668926662592 #
edge $-1 $719 49.988341631625154 $722 57.28016185668131 $594 $773 forward 7 unknown #
vertex $-1 $608 $774 #
straight-curve $-1 4.3906202484709915 -69.292933979325994 10.452969066427222 0 -1 0 I I #
edge $-1 $722 -2.1281827353513769 $605 15.165788702996114 $604 $775 forward 7 unknown #
vertex $-1 $721 $776 #
straight-curve $-1 4.3906202484709915 -43.256897159624245 3.1611488413710731 0 0.77714595512881146 0.62932039886446345 I I #
point $-1 4.3906202484709915 -34.25224928287664 10.452969066427222 #
point $-1 21.684591686818482 -43.256897159624252 3.1611488413710673 #
straight-curve $-1 0 -43.256897159624252 10.452969066427222 1 0 0 I I #
vertex $-1 $611 $777 #
point $-1 10.831754945141697 -36.787128322435287 4.3774668926662592 #
vertex $-1 $615 $778 #
point $-1 18.243456990147763 -36.787128322435287 4.3774668926662592 #
edge $-1 $732 49.988341631625154 $735 57.28016185668131 $620 $779 forward 7 unknown #
vertex $-1 $634 $780 #
straight-curve $-1 40.065118162810919 -69.292933979325994 10.452969066427222 0 -1 0 I I #
edge $-1 $735 15.709066221818588 $631 33.003037660166072 $630 $781 forward 7 unknown #
vertex $-1 $734 $782 #
straight-curve $-1 40.065118162810919 -43.256897159624245 3.1611488413710731 0 0.77714595512881146 0.62932039886446345 I I #
point $-1 40.065118162810919 -34.25224928287664 10.452969066427222 #
point $-1 57.359089601158402 -43.256897159624252 3.1611488413710673 #
straight-curve $-1 0 -43.256897159624252 10.452969066427222 1 0 0 I I #
vertex $-1 $637 $783 #
point $-1 46.506252859481606 -36.787128322435287 4.3774668926662592 #
vertex $-1 $641 $784 #
point $-1 53.917954904487686 -36.787128322435287 4.3774668926662592 #
straight-curve $-1 -75.739616077150799 43.256897159624252 0 0 0 -1 I I #
point $-1 -75.739616077150799 -43.256897159624252 -10.452969066427222 #
straight-curve $-1 -75.739616077150799 0 -10.452969066427222 0 1 0 I I #
point $-1 -75.739616077150799 43.256897159624252 -10.452969066427222 #
edge $-1 $677 -2.8184129277925294 $666 2.8184129277925294 $663 $785 forward 7 unknown #
straight-curve $-1 -84.520856574092761 -22.350959026769807 0 0 0 -1 I I #
straight-curve $-1 -80.13023632562178 -27.987784882354866 10.452969066427222 1 0 0 I I #
point $-1 -84.520856574092761 -27.987784882354866 10.452969066427222 #
point $-1 -84.520856574092761 -27.987784882354866 -10.452969066427222 #
straight-curve $-1 -84.520856574092761 -25.169371954562337 -10.452969066427222 0 1 0 I I #
point $-1 -84.520856574092761 -22.350959026769807 -10.452969066427222 #
point $-1 -84.520856574092761 -22.350959026769807 10.452969066427222 #
straight-curve $-1 32.392649475699798 43.256897159624252 88.867250593179506 0 0 -1 I I #
point $-1 32.392649475699798 43.256897159624252 10.452969066427222 #
straight-curve $-1 10.198824000500608 43.256897159624245 3.3335585997362642 -1 0 0 I I #
point $-1 32.392649475699798 43.256897159624252 3.3335585997362571 #
point $-1 20.397648001001215 34.550125938581971 2.2625278408360696 #
straight-curve $-1 -66.958375580208852 -43.256897159624252 60.441310698052376 0 0 -1 I I #
point $-1 -66.958375580208852 -43.256897159624252 10.452969066427222 #
straight-curve $-1 -29.155694930517551 -43.256897159624252 3.1611488413710642 1 0 0 I I #
point $-1 -66.958375580208852 -43.256897159624252 3.1611488413710673 #
point $-1 -62.017240883538136 -35.843147724138596 3.2117479599730423 #
point $-1 -54.60553883853207 -35.843147724138596 3.2117479599730423 #
straight-curve $-1 -31.283877665868932 -43.256897159624252 60.441310698052376 0 0 -1 I I #
point $-1 -31.283877665868932 -43.256897159624252 10.452969066427222 #
straight-curve $-1 -11.318445973347593 -43.256897159624252 3.1611488413710642 1 0 0 I I #
point $-1 -31.283877665868932 -43.256897159624252 3.1611488413710673 #
point $-1 -26.34274296919822 -35.843147724138596 3.2117479599730423 #
point $-1 -18.931040924192153 -35.843147724138596 3.2117479599730423 #
straight-curve $-1 4.3906202484709915 -43.256897159624252 60.441310698052376 0 0 -1 I I #
point $-1 4.3906202484709915 -43.256897159624252 10.452969066427222 #
straight-curve $-1 6.5188029838223684 -43.256897159624252 3.1611488413710642 1 0 0 I I #
point $-1 4.3906202484709915 -43.256897159624252 3.1611488413710673 #
point $-1 9.3317549451416966 -35.843147724138596 3.2117479599730423 #
point $-1 16.743456990147763 -35.843147724138596 3.2117479599730423 #
straight-curve $-1 40.065118162810919 -43.256897159624252 60.441310698052376 0 0 -1 I I #
point $-1 40.065118162810919 -43.256897159624252 10.452969066427222 #
straight-curve $-1 24.35605194099233 -43.256897159624252 3.1611488413710642 1 0 0 I I #
point $-1 40.065118162810919 -43.256897159624252 3.1611488413710673 #
point $-1 45.006252859481606 -35.843147724138596 3.2117479599730423 #
point $-1 52.417954904487686 -35.843147724138596 3.2117479599730423 #
straight-curve $-1 -84.520856574092761 -25.169371954562337 10.452969066427222 0 -1 0 I I #
End-of-ACIS-data 