500 0 16 0           
7 Unknown 11 ACIS 5.0 NT 24 Fri Mar 26 17:44:27 1999 
-1 9.9999999999999995e-007 1e-010 
body $-1 $16 $-1 $17 #
body $-1 $18 $-1 $19 #
body $-1 $20 $-1 $21 #
body $-1 $22 $-1 $23 #
body $-1 $24 $-1 $25 #
body $-1 $26 $-1 $27 #
body $-1 $28 $-1 $29 #
body $-1 $30 $-1 $31 #
body $-1 $32 $-1 $33 #
body $-1 $34 $-1 $35 #
body $-1 $36 $-1 $37 #
body $-1 $38 $-1 $39 #
body $-1 $40 $-1 $41 #
body $-1 $42 $-1 $43 #
body $-1 $44 $-1 $45 #
body $-1 $46 $-1 $47 #
lump $-1 $-1 $48 $0 #
transform $-1 1 0 0 0 1 0 0 0 1 60.015259254737998 35.647236084208622 13.495297064149891 1 rotate no_reflect no_shear #
lump $-1 $-1 $49 $1 #
transform $-1 1 0 0 0 1 0 0 0 1 60.015259254737998 35.647236084208622 13.495297064149891 1 rotate no_reflect no_shear #
lump $-1 $-1 $50 $2 #
transform $-1 1 0 0 0 1 0 0 0 1 60.015259254737998 35.647236084208622 13.495297064149891 1 rotate no_reflect no_shear #
lump $-1 $-1 $51 $3 #
transform $-1 1 0 0 0 1 0 0 0 1 60.015259254737998 35.647236084208622 13.495297064149891 1 rotate no_reflect no_shear #
lump $-1 $-1 $52 $4 #
transform $-1 1 0 0 0 1 0 0 0 1 60.015259254737998 35.647236084208622 13.495297064149891 1 rotate no_reflect no_shear #
lump $-1 $-1 $53 $5 #
transform $-1 1 0 0 0 1 0 0 0 1 60.015259254737998 35.647236084208622 13.495297064149891 1 rotate no_reflect no_shear #
lump $-1 $-1 $54 $6 #
transform $-1 1 0 0 0 1 0 0 0 1 60.015259254737998 35.647236084208622 13.495297064149891 1 rotate no_reflect no_shear #
lump $-1 $-1 $55 $7 #
transform $-1 1 0 0 0 1 0 0 0 1 60.015259254737998 35.647236084208622 13.495297064149891 1 rotate no_reflect no_shear #
lump $-1 $-1 $56 $8 #
transform $-1 1 0 0 0 1 0 0 0 1 60.015259254737998 35.647236084208622 13.495297064149891 1 rotate no_reflect no_shear #
lump $-1 $-1 $57 $9 #
transform $-1 1 0 0 0 1 0 0 0 1 60.015259254737998 35.647236084208622 13.495297064149891 1 rotate no_reflect no_shear #
lump $-1 $-1 $58 $10 #
transform $-1 1 0 0 0 1 0 0 0 1 60.015259254737998 35.647236084208622 13.495297064149891 1 rotate no_reflect no_shear #
lump $-1 $-1 $59 $11 #
transform $-1 1 0 0 0 1 0 0 0 1 60.015259254737998 35.647236084208622 13.495297064149891 1 rotate no_reflect no_shear #
lump $-1 $-1 $60 $12 #
transform $-1 1 0 0 0 1 0 0 0 1 60.015259254737998 35.647236084208622 13.495297064149891 1 rotate no_reflect no_shear #
lump $-1 $-1 $61 $13 #
transform $-1 1 0 0 0 1 0 0 0 1 60.015259254737998 35.647236084208622 13.495297064149891 1 rotate no_reflect no_shear #
lump $-1 $-1 $62 $14 #
transform $-1 1 0 0 0 1 0 0 0 1 60.015259254737998 35.647236084208622 13.495297064149891 1 rotate no_reflect no_shear #
lump $-1 $-1 $63 $15 #
transform $-1 1 0 0 0 1 0 0 0 1 60.015259254737998 35.647236084208622 13.495297064149891 1 rotate no_reflect no_shear #
shell $-1 $-1 $-1 $64 $-1 $16 #
shell $-1 $-1 $-1 $65 $-1 $18 #
shell $-1 $-1 $-1 $66 $-1 $20 #
shell $-1 $-1 $-1 $67 $-1 $22 #
shell $-1 $-1 $-1 $68 $-1 $24 #
shell $-1 $-1 $-1 $69 $-1 $26 #
shell $-1 $-1 $-1 $70 $-1 $28 #
shell $-1 $-1 $-1 $71 $-1 $30 #
shell $-1 $-1 $-1 $72 $-1 $32 #
shell $-1 $-1 $-1 $73 $-1 $34 #
shell $-1 $-1 $-1 $74 $-1 $36 #
shell $-1 $-1 $-1 $75 $-1 $38 #
shell $-1 $-1 $-1 $76 $-1 $40 #
shell $-1 $-1 $-1 $77 $-1 $42 #
shell $-1 $-1 $-1 $78 $-1 $44 #
shell $-1 $-1 $-1 $79 $-1 $46 #
face $-1 $80 $81 $48 $-1 $82 forward single #
face $-1 $83 $84 $49 $-1 $85 reversed single #
face $-1 $86 $87 $50 $-1 $88 reversed single #
face $-1 $89 $90 $51 $-1 $91 forward single #
face $-1 $92 $93 $52 $-1 $94 forward single #
face $-1 $95 $96 $53 $-1 $97 reversed single #
face $-1 $98 $99 $54 $-1 $100 forward single #
face $-1 $101 $102 $55 $-1 $103 forward single #
face $-1 $104 $105 $56 $-1 $106 reversed single #
face $-1 $107 $108 $57 $-1 $109 forward single #
face $-1 $110 $111 $58 $-1 $112 reversed single #
face $-1 $113 $114 $59 $-1 $115 forward single #
face $-1 $116 $117 $60 $-1 $118 reversed single #
face $-1 $119 $120 $61 $-1 $121 forward single #
face $-1 $122 $123 $62 $-1 $124 reversed single #
face $-1 $125 $126 $63 $-1 $127 forward single #
face $-1 $128 $129 $48 $-1 $130 reversed single #
loop $-1 $-1 $131 $64 #
plane-surface $-1 0 0 13.495297064149891 0 0 1 1 0 0 forward_v I I I I #
face $-1 $132 $133 $49 $-1 $134 reversed single #
loop $-1 $-1 $135 $65 #
plane-surface $-1 -57.241118429059895 -25.872674009388057 0 0 -1 0 0 0 -1 forward_v I I I I #
face $-1 $136 $137 $50 $-1 $138 reversed single #
loop $-1 $-1 $139 $66 #
plane-surface $-1 -125.38856588461334 -23.286837874950457 107.20692567745125 0 1 0 -0.54463904215088732 0 0.83867056331134215 forward_v I I I I #
face $-1 $140 $141 $51 $-1 $142 forward single #
loop $-1 $143 $144 $67 #
cone-surface $-1 -53.567156887245041 -19.225840936671357 8.3339946816774244 0.54463904215088732 0 -0.83867056331134215 1.2580058449670133 0 0.81695856322633098 1 I I 0 1 1.5 forward I I I I #
face $-1 $145 $146 $52 $-1 $147 forward single #
loop $-1 $148 $149 $68 #
cone-surface $-1 -53.567156887245041 -13.134345529252712 8.3339946816774244 0.54463904215088732 0 -0.83867056331134215 1.2580058449670133 0 0.81695856322633098 1 I I 0 1 1.5 forward I I I I #
face $-1 $150 $151 $53 $-1 $152 reversed single #
loop $-1 $-1 $153 $69 #
plane-surface $-1 -125.38856588461334 7.4731171718478837 107.20692567745125 0 1 0 -0.54463904215088732 0 0.83867056331134215 forward_v I I I I #
face $-1 $154 $155 $54 $-1 $156 forward single #
loop $-1 $157 $158 $70 #
cone-surface $-1 -53.567156887245041 11.534114110126986 8.3339946816774244 0.54463904215088732 0 -0.83867056331134215 1.2580058449670133 0 0.81695856322633098 1 I I 0 1 1.5 forward I I I I #
face $-1 $159 $160 $55 $-1 $161 forward single #
loop $-1 $162 $163 $71 #
cone-surface $-1 -53.567156887245041 17.625609517545627 8.3339946816774244 0.54463904215088732 0 -0.83867056331134215 1.2580058449670133 0 0.81695856322633098 1 I I 0 1 1.5 forward I I I I #
face $-1 $164 $165 $56 $-1 $166 reversed single #
loop $-1 $-1 $167 $72 #
plane-surface $-1 89.491829179428748 -17.110927420826549 168.58565089337731 0 -1 0 -0.81915205242281985 0 -0.57357642473473569 forward_v I I I I #
face $-1 $168 $169 $57 $-1 $170 forward single #
loop $-1 $171 $172 $73 #
cone-surface $-1 55.047565487841503 -20.486078437898069 6.9383458138278158 -0.81915205242281985 0 -0.57357642473473569 0.57357642473473569 0 -0.81915205242281985 1 I I 0 1 1 forward I I I I #
face $-1 $173 $174 $58 $-1 $175 reversed single #
loop $-1 $-1 $176 $74 #
plane-surface $-1 89.491829179428748 -1.7309498974273776 168.58565089337731 0 -1 0 -0.81915205242281985 0 -0.57357642473473569 forward_v I I I I #
face $-1 $177 $178 $59 $-1 $179 forward single #
loop $-1 $180 $181 $75 #
cone-surface $-1 55.047565487841503 -5.1061009144988958 6.9383458138278158 -0.81915205242281985 0 -0.57357642473473569 0.57357642473473569 0 -0.81915205242281985 1 I I 0 1 1 forward I I I I #
face $-1 $182 $183 $60 $-1 $184 reversed single #
loop $-1 $-1 $185 $76 #
plane-surface $-1 89.491829179428748 13.649027625971796 168.58565089337731 0 -1 0 -0.81915205242281985 0 -0.57357642473473569 forward_v I I I I #
face $-1 $186 $187 $61 $-1 $188 forward single #
loop $-1 $189 $190 $77 #
cone-surface $-1 55.047565487841503 10.273876608900274 6.9383458138278158 -0.81915205242281985 0 -0.57357642473473569 0.57357642473473569 0 -0.81915205242281985 1 I I 0 1 1 forward I I I I #
face $-1 $191 $192 $62 $-1 $193 reversed single #
loop $-1 $-1 $194 $78 #
plane-surface $-1 89.491829179428748 29.029005149370967 168.58565089337731 0 -1 0 -0.81915205242281985 0 -0.57357642473473569 forward_v I I I I #
face $-1 $195 $196 $63 $-1 $197 forward single #
loop $-1 $198 $199 $79 #
cone-surface $-1 55.047565487841503 25.653854132299443 6.9383458138278158 -0.81915205242281985 0 -0.57357642473473569 0.57357642473473569 0 -0.81915205242281985 1 I I 0 1 1 forward I I I I #
face $-1 $200 $201 $48 $-1 $202 reversed single #
loop $-1 $-1 $203 $80 #
plane-surface $-1 0 0 -13.495297064149891 0 0 1 1 0 0 forward_v I I I I #
coedge $-1 $204 $205 $206 $207 forward $81 $-1 #
face $-1 $208 $209 $49 $-1 $210 forward single #
loop $-1 $-1 $211 $83 #
plane-surface $-1 -54.466977603381793 -30.759955046798339 0 -1 0 0 0 0 1 forward_v I I I I #
coedge $-1 $212 $213 $214 $215 forward $84 $-1 #
face $-1 $216 $217 $50 $-1 $218 reversed single #
loop $-1 $-1 $219 $86 #
plane-surface $-1 -60.015259254737998 -16.180093232962037 6.54086310455655 -0.54463904215088732 0 0.83867056331134215 0.83867056331134215 0 0.54463904215088732 forward_v I I I I #
coedge $-1 $220 $221 $222 $223 reversed $87 $-1 #
face $-1 $-1 $224 $51 $-1 $225 forward single #
loop $-1 $226 $227 $89 #
cone-surface $-1 -52.065019737169003 -19.225840936671357 6.0209063565181147 0.54463904215088732 0 -0.83867056331134215 0.62900292248350664 0 0.40847928161316549 1 I I -0.70710678118654757 0.70710678118654757 0.75 forward I I I I #
loop $-1 $-1 $228 $67 #
coedge $-1 $144 $144 $229 $230 reversed $90 $-1 #
face $-1 $-1 $231 $52 $-1 $232 forward single #
loop $-1 $233 $234 $92 #
cone-surface $-1 -52.065019737169003 -13.134345529252712 6.0209063565181147 0.54463904215088732 0 -0.83867056331134215 0.62900292248350664 0 0.40847928161316549 1 I I -0.70710678118654757 0.70710678118654757 0.75 forward I I I I #
loop $-1 $-1 $235 $68 #
coedge $-1 $149 $149 $236 $237 reversed $93 $-1 #
face $-1 $238 $239 $53 $-1 $240 reversed single #
loop $-1 $-1 $241 $95 #
plane-surface $-1 -60.015259254737998 14.579861813836303 6.54086310455655 -0.54463904215088732 0 0.83867056331134215 0.83867056331134215 0 0.54463904215088732 forward_v I I I I #
coedge $-1 $242 $243 $244 $245 reversed $96 $-1 #
face $-1 $-1 $246 $54 $-1 $247 forward single #
loop $-1 $248 $249 $98 #
cone-surface $-1 -52.065019737169003 11.534114110126986 6.0209063565181147 0.54463904215088732 0 -0.83867056331134215 0.62900292248350664 0 0.40847928161316549 1 I I -0.70710678118654757 0.70710678118654757 0.75 forward I I I I #
loop $-1 $-1 $250 $70 #
coedge $-1 $158 $158 $251 $252 reversed $99 $-1 #
face $-1 $-1 $253 $55 $-1 $254 forward single #
loop $-1 $255 $256 $101 #
cone-surface $-1 -52.065019737169003 17.625609517545627 6.0209063565181147 0.54463904215088732 0 -0.83867056331134215 0.62900292248350664 0 0.40847928161316549 1 I I -0.70710678118654757 0.70710678118654757 0.75 forward I I I I #
loop $-1 $-1 $257 $71 #
coedge $-1 $163 $163 $258 $259 reversed $102 $-1 #
face $-1 $260 $261 $56 $-1 $262 reversed single #
loop $-1 $-1 $263 $104 #
plane-surface $-1 -8.8314164109837776 -20.486078437898072 99.738975227655544 0.81915205242281985 0 0.57357642473473569 0.57357642473473569 0 -0.81915205242281985 forward_v I I I I #
coedge $-1 $264 $265 $266 $267 reversed $105 $-1 #
face $-1 $-1 $268 $57 $-1 $269 forward single #
loop $-1 $270 $271 $107 #
cone-surface $-1 53.899397652407217 -20.486078437898069 6.1343900645917877 -0.81915205242281985 0 -0.57357642473473569 0.28678821236736785 0 -0.40957602621140993 1 I I -0.70710678118654746 0.70710678118654746 0.5 forward I I I I #
loop $-1 $-1 $272 $73 #
coedge $-1 $172 $172 $273 $274 reversed $108 $-1 #
face $-1 $275 $276 $58 $-1 $277 reversed single #
loop $-1 $-1 $278 $110 #
plane-surface $-1 -8.8314164109837776 -5.1061009144988994 99.738975227655544 0.81915205242281985 0 0.57357642473473569 0.57357642473473569 0 -0.81915205242281985 forward_v I I I I #
coedge $-1 $279 $280 $281 $282 reversed $111 $-1 #
face $-1 $-1 $283 $59 $-1 $284 forward single #
loop $-1 $285 $286 $113 #
cone-surface $-1 53.899397652407217 -5.1061009144988958 6.1343900645917877 -0.81915205242281985 0 -0.57357642473473569 0.28678821236736785 0 -0.40957602621140993 1 I I -0.70710678118654746 0.70710678118654746 0.5 forward I I I I #
loop $-1 $-1 $287 $75 #
coedge $-1 $181 $181 $288 $289 reversed $114 $-1 #
face $-1 $290 $291 $60 $-1 $292 reversed single #
loop $-1 $-1 $293 $116 #
plane-surface $-1 -8.8314164109837776 10.273876608900274 99.738975227655544 0.81915205242281985 0 0.57357642473473569 0.57357642473473569 0 -0.81915205242281985 forward_v I I I I #
coedge $-1 $294 $295 $296 $297 reversed $117 $-1 #
face $-1 $-1 $298 $61 $-1 $299 forward single #
loop $-1 $300 $301 $119 #
cone-surface $-1 53.899397652407217 10.273876608900274 6.1343900645917877 -0.81915205242281985 0 -0.57357642473473569 0.28678821236736785 0 -0.40957602621140993 1 I I -0.70710678118654746 0.70710678118654746 0.5 forward I I I I #
loop $-1 $-1 $302 $77 #
coedge $-1 $190 $190 $303 $304 reversed $120 $-1 #
face $-1 $305 $306 $62 $-1 $307 reversed single #
loop $-1 $-1 $308 $122 #
plane-surface $-1 -8.8314164109837776 25.653854132299443 99.738975227655544 0.81915205242281985 0 0.57357642473473569 0.57357642473473569 0 -0.81915205242281985 forward_v I I I I #
coedge $-1 $309 $310 $311 $312 reversed $123 $-1 #
face $-1 $-1 $313 $63 $-1 $314 forward single #
loop $-1 $315 $316 $125 #
cone-surface $-1 53.899397652407217 25.653854132299443 6.1343900645917877 -0.81915205242281985 0 -0.57357642473473569 0.28678821236736785 0 -0.40957602621140993 1 I I -0.70710678118654746 0.70710678118654746 0.5 forward I I I I #
loop $-1 $-1 $317 $79 #
coedge $-1 $199 $199 $318 $319 reversed $126 $-1 #
face $-1 $320 $321 $48 $-1 $322 reversed single #
loop $-1 $-1 $323 $128 #
plane-surface $-1 0 -35.647236084208622 0 0 1 0 0 0 1 forward_v I I I I #
coedge $-1 $324 $325 $326 $327 forward $129 $-1 #
coedge $-1 $328 $131 $329 $330 forward $81 $-1 #
coedge $-1 $131 $328 $331 $332 forward $81 $-1 #
coedge $-1 $333 $334 $131 $207 reversed $335 $-1 #
edge $-1 $336 -35.647236084208622 $337 35.647236084208622 $206 $338 forward 7 unknown #
face $-1 $339 $340 $49 $-1 $341 reversed single #
loop $-1 $-1 $342 $132 #
plane-surface $-1 0 0 13.495297064149891 0 0 1 1 0 0 forward_v I I I I #
coedge $-1 $343 $344 $345 $346 reversed $133 $-1 #
coedge $-1 $347 $135 $348 $349 reversed $84 $-1 #
coedge $-1 $135 $347 $350 $351 reversed $84 $-1 #
coedge $-1 $344 $343 $135 $215 reversed $133 $-1 #
edge $-1 $352 -13.495297064149891 $353 13.495297064149891 $214 $354 forward 7 unknown #
face $-1 $355 $356 $50 $-1 $357 reversed single #
loop $-1 $-1 $358 $136 #
plane-surface $-1 -125.38856588461334 -9.0733485909736178 107.20692567745125 0 -1 0 0.54463904215088732 0 -0.83867056331134215 forward_v I I I I #
coedge $-1 $359 $360 $361 $362 reversed $137 $-1 #
coedge $-1 $221 $139 $363 $364 reversed $87 $-1 #
coedge $-1 $139 $220 $359 $365 reversed $87 $-1 #
coedge $-1 $361 $366 $139 $223 forward $367 $-1 #
edge $-1 $368 2.679023687568673 $369 13.387912685628862 $222 $370 forward 7 unknown #
loop $-1 $-1 $229 $140 #
plane-surface $-1 -60.015259254737998 -16.180093232962037 6.54086310455655 -0.54463904215088732 0 0.83867056331134215 0.83867056331134215 0 0.54463904215088732 forward_v I I I I #
loop $-1 $-1 $371 $89 #
coedge $-1 $227 $227 $228 $372 reversed $141 $-1 #
coedge $-1 $228 $228 $227 $372 forward $143 $-1 #
coedge $-1 $229 $229 $144 $230 forward $224 $-1 #
edge $-1 $373 0 $373 6.2831853071796004 $229 $374 forward 7 unknown #
loop $-1 $-1 $236 $145 #
plane-surface $-1 -60.015259254737998 -16.180093232962037 6.54086310455655 -0.54463904215088732 0 0.83867056331134215 0.83867056331134215 0 0.54463904215088732 forward_v I I I I #
loop $-1 $-1 $375 $92 #
coedge $-1 $234 $234 $235 $376 reversed $146 $-1 #
coedge $-1 $235 $235 $234 $376 forward $148 $-1 #
coedge $-1 $236 $236 $149 $237 forward $231 $-1 #
edge $-1 $377 0 $377 6.2831853071796004 $236 $378 forward 7 unknown #
face $-1 $379 $380 $53 $-1 $381 forward single #
loop $-1 $-1 $382 $150 #
plane-surface $-1 -125.38856588461334 21.686606455824723 107.20692567745125 0 -1 0 0.54463904215088732 0 -0.83867056331134215 forward_v I I I I #
coedge $-1 $383 $384 $385 $386 reversed $151 $-1 #
coedge $-1 $243 $153 $387 $388 reversed $96 $-1 #
coedge $-1 $153 $242 $383 $389 reversed $96 $-1 #
coedge $-1 $385 $390 $153 $245 forward $380 $-1 #
edge $-1 $391 2.679023687568673 $392 13.387912685628862 $244 $393 forward 7 unknown #
loop $-1 $-1 $251 $154 #
plane-surface $-1 -60.015259254737998 14.579861813836303 6.54086310455655 -0.54463904215088732 0 0.83867056331134215 0.83867056331134215 0 0.54463904215088732 forward_v I I I I #
loop $-1 $-1 $394 $98 #
coedge $-1 $249 $249 $250 $395 reversed $155 $-1 #
coedge $-1 $250 $250 $249 $395 forward $157 $-1 #
coedge $-1 $251 $251 $158 $252 forward $246 $-1 #
edge $-1 $396 0 $396 6.2831853071796004 $251 $397 forward 7 unknown #
loop $-1 $-1 $258 $159 #
plane-surface $-1 -60.015259254737998 14.579861813836303 6.54086310455655 -0.54463904215088732 0 0.83867056331134215 0.83867056331134215 0 0.54463904215088732 forward_v I I I I #
loop $-1 $-1 $398 $101 #
coedge $-1 $256 $256 $257 $399 reversed $160 $-1 #
coedge $-1 $257 $257 $256 $399 forward $162 $-1 #
coedge $-1 $258 $258 $163 $259 forward $253 $-1 #
edge $-1 $400 0 $400 6.2831853071796004 $258 $401 forward 7 unknown #
face $-1 $402 $403 $56 $-1 $404 forward single #
loop $-1 $-1 $405 $164 #
plane-surface $-1 89.491829179428748 -23.861229454969596 168.58565089337731 0 1 0 0.81915205242281985 0 0.57357642473473569 forward_v I I I I #
coedge $-1 $406 $407 $408 $409 reversed $165 $-1 #
coedge $-1 $265 $167 $410 $411 reversed $105 $-1 #
coedge $-1 $167 $264 $406 $412 reversed $105 $-1 #
coedge $-1 $408 $413 $167 $267 forward $403 $-1 #
edge $-1 $414 -15.269344665023624 $415 -6.811140749676369 $266 $416 forward 7 unknown #
loop $-1 $-1 $273 $168 #
plane-surface $-1 -8.8314164109837776 -20.486078437898072 99.738975227655544 0.81915205242281985 0 0.57357642473473569 0.57357642473473569 0 -0.81915205242281985 forward_v I I I I #
loop $-1 $-1 $417 $107 #
coedge $-1 $271 $271 $272 $418 reversed $169 $-1 #
coedge $-1 $272 $272 $271 $418 forward $171 $-1 #
coedge $-1 $273 $273 $172 $274 forward $268 $-1 #
edge $-1 $419 0 $419 6.2831853071796004 $273 $420 forward 7 unknown #
face $-1 $421 $422 $58 $-1 $423 reversed single #
loop $-1 $-1 $424 $173 #
plane-surface $-1 89.491829179428748 -8.4812519315704211 168.58565089337731 0 1 0 0.81915205242281985 0 0.57357642473473569 forward_v I I I I #
coedge $-1 $425 $426 $427 $428 reversed $174 $-1 #
coedge $-1 $280 $176 $429 $430 reversed $111 $-1 #
coedge $-1 $176 $279 $425 $431 reversed $111 $-1 #
coedge $-1 $427 $432 $176 $282 forward $433 $-1 #
edge $-1 $434 -15.269344665023624 $435 -6.811140749676369 $281 $436 forward 7 unknown #
loop $-1 $-1 $288 $177 #
plane-surface $-1 -8.8314164109837776 -5.1061009144988994 99.738975227655544 0.81915205242281985 0 0.57357642473473569 0.57357642473473569 0 -0.81915205242281985 forward_v I I I I #
loop $-1 $-1 $437 $113 #
coedge $-1 $286 $286 $287 $438 reversed $178 $-1 #
coedge $-1 $287 $287 $286 $438 forward $180 $-1 #
coedge $-1 $288 $288 $181 $289 forward $283 $-1 #
edge $-1 $439 0 $439 6.2831853071796004 $288 $440 forward 7 unknown #
face $-1 $441 $442 $60 $-1 $443 reversed single #
loop $-1 $-1 $444 $182 #
plane-surface $-1 89.491829179428748 6.898725591828752 168.58565089337731 0 1 0 0.81915205242281985 0 0.57357642473473569 forward_v I I I I #
coedge $-1 $445 $446 $447 $448 reversed $183 $-1 #
coedge $-1 $295 $185 $449 $450 reversed $117 $-1 #
coedge $-1 $185 $294 $445 $451 reversed $117 $-1 #
coedge $-1 $447 $452 $185 $297 forward $453 $-1 #
edge $-1 $454 -15.269344665023624 $455 -6.811140749676369 $296 $456 forward 7 unknown #
loop $-1 $-1 $303 $186 #
plane-surface $-1 -8.8314164109837776 10.273876608900274 99.738975227655544 0.81915205242281985 0 0.57357642473473569 0.57357642473473569 0 -0.81915205242281985 forward_v I I I I #
loop $-1 $-1 $457 $119 #
coedge $-1 $301 $301 $302 $458 reversed $187 $-1 #
coedge $-1 $302 $302 $301 $458 forward $189 $-1 #
coedge $-1 $303 $303 $190 $304 forward $298 $-1 #
edge $-1 $459 0 $459 6.2831853071796004 $303 $460 forward 7 unknown #
face $-1 $461 $462 $62 $-1 $463 reversed single #
loop $-1 $-1 $464 $191 #
plane-surface $-1 89.491829179428748 22.27870311522792 168.58565089337731 0 1 0 0.81915205242281985 0 0.57357642473473569 forward_v I I I I #
coedge $-1 $465 $466 $467 $468 reversed $192 $-1 #
coedge $-1 $310 $194 $469 $470 reversed $123 $-1 #
coedge $-1 $194 $309 $465 $471 reversed $123 $-1 #
coedge $-1 $467 $472 $194 $312 forward $473 $-1 #
edge $-1 $474 -15.269344665023624 $475 -6.811140749676369 $311 $476 forward 7 unknown #
loop $-1 $-1 $318 $195 #
plane-surface $-1 -8.8314164109837776 25.653854132299443 99.738975227655544 0.81915205242281985 0 0.57357642473473569 0.57357642473473569 0 -0.81915205242281985 forward_v I I I I #
loop $-1 $-1 $477 $125 #
coedge $-1 $316 $316 $317 $478 reversed $196 $-1 #
coedge $-1 $317 $317 $316 $478 forward $198 $-1 #
coedge $-1 $318 $318 $199 $319 forward $313 $-1 #
edge $-1 $479 0 $479 6.2831853071796004 $318 $480 forward 7 unknown #
face $-1 $481 $482 $48 $-1 $483 reversed single #
loop $-1 $-1 $484 $200 #
plane-surface $-1 -60.015259254737998 0 0 1 0 0 0 0 -1 forward_v I I I I #
coedge $-1 $485 $331 $486 $487 forward $201 $-1 #
coedge $-1 $488 $203 $485 $489 forward $129 $-1 #
coedge $-1 $203 $488 $490 $491 forward $129 $-1 #
coedge $-1 $334 $333 $203 $327 reversed $335 $-1 #
edge $-1 $492 -35.647236084208622 $493 35.647236084208622 $326 $494 forward 7 unknown #
coedge $-1 $205 $204 $495 $496 forward $81 $-1 #
coedge $-1 $497 $498 $204 $330 reversed $482 $-1 #
edge $-1 $337 -60.015259254737998 $499 60.015259254737998 $329 $500 forward 7 unknown #
coedge $-1 $323 $501 $205 $332 reversed $201 $-1 #
edge $-1 $502 -60.015259254737998 $336 60.015259254737998 $331 $503 forward 7 unknown #
coedge $-1 $326 $206 $501 $504 forward $335 $-1 #
coedge $-1 $206 $326 $497 $505 reversed $335 $-1 #
loop $-1 $-1 $333 $481 #
vertex $-1 $207 $506 #
vertex $-1 $207 $507 #
straight-curve $-1 60.015259254737998 0 13.495297064149891 0 1 0 I I #
face $-1 $508 $509 $49 $-1 $510 reversed single #
loop $-1 $-1 $511 $208 #
plane-surface $-1 -60.015259254737998 0 0 1 0 0 0 0 -1 forward_v I I I I #
coedge $-1 $350 $512 $344 $513 forward $209 $-1 #
coedge $-1 $214 $211 $514 $515 reversed $133 $-1 #
coedge $-1 $211 $214 $342 $513 reversed $133 $-1 #
coedge $-1 $516 $517 $211 $346 forward $518 $-1 #
edge $-1 $519 -13.495297064149891 $520 13.495297064149891 $345 $521 forward 7 unknown #
coedge $-1 $213 $212 $511 $522 reversed $84 $-1 #
coedge $-1 $514 $523 $212 $349 forward $509 $-1 #
edge $-1 $524 -31.39470004020805 $353 -25.846418388851845 $348 $525 forward 7 unknown #
coedge $-1 $526 $342 $213 $351 forward $209 $-1 #
edge $-1 $352 25.846418388851845 $527 31.39470004020805 $350 $528 forward 7 unknown #
vertex $-1 $351 $529 #
vertex $-1 $349 $530 #
straight-curve $-1 -54.466977603381793 -25.872674009388057 0 0 0 -1 I I #
face $-1 $-1 $367 $50 $-1 $531 forward single #
loop $-1 $-1 $532 $216 #
plane-surface $-1 -60.015259254737998 0 0 1 0 0 0 0 -1 forward_v I I I I #
coedge $-1 $533 $534 $535 $536 reversed $217 $-1 #
coedge $-1 $537 $219 $221 $365 forward $137 $-1 #
coedge $-1 $219 $537 $533 $538 forward $137 $-1 #
coedge $-1 $535 $222 $219 $362 forward $367 $-1 #
edge $-1 $369 -15.196791258469439 $539 -0.98330197449259948 $361 $540 forward 7 unknown #
coedge $-1 $541 $542 $220 $364 forward $356 $-1 #
edge $-1 $543 -47.062599734169076 $368 -40.108165774575738 $363 $544 forward 7 unknown #
edge $-1 $369 -12.768886218896295 $543 0 $221 $545 forward 7 unknown #
coedge $-1 $222 $535 $541 $546 forward $367 $-1 #
loop $-1 $-1 $535 $355 #
vertex $-1 $364 $547 #
vertex $-1 $223 $548 #
straight-curve $-1 -62.694282942306671 -23.286837874950457 13.495297064149888 1 0 0 I I #
coedge $-1 $371 $371 $-1 $549 reversed $226 $-1 #
edge $-1 $550 0 $550 6.2831853071796004 $227 $551 forward 7 unknown #
vertex $-1 $230 $552 #
ellipse-curve $-1 -54.660814755707911 -19.225840936671357 10.018080084353217 -0.54463904215088732 0 0.83867056331134215 1.2580058449670133 0 0.81695856322633098 1 I I #
coedge $-1 $375 $375 $-1 $553 reversed $233 $-1 #
edge $-1 $554 0 $554 6.2831853071796004 $234 $555 forward 7 unknown #
vertex $-1 $237 $556 #
ellipse-curve $-1 -54.660814755707911 -13.134345529252712 10.018080084353217 -0.54463904215088732 0 0.83867056331134215 1.2580058449670133 0 0.81695856322633098 1 I I #
face $-1 $-1 $557 $53 $-1 $558 reversed single #
loop $-1 $-1 $244 $238 #
plane-surface $-1 0 0 13.495297064149891 0 0 1 1 0 0 forward_v I I I I #
coedge $-1 $559 $560 $561 $562 reversed $239 $-1 #
coedge $-1 $563 $241 $243 $389 forward $151 $-1 #
coedge $-1 $241 $563 $559 $564 forward $151 $-1 #
coedge $-1 $561 $244 $241 $386 forward $380 $-1 #
edge $-1 $392 0.18318626492973245 $565 14.396675548906572 $385 $566 forward 7 unknown #
coedge $-1 $567 $568 $242 $388 forward $557 $-1 #
edge $-1 $569 -47.062599734169076 $391 -40.108165774575738 $387 $570 forward 7 unknown #
edge $-1 $392 -12.768886218896295 $569 0 $243 $571 forward 7 unknown #
coedge $-1 $244 $561 $567 $572 forward $380 $-1 #
vertex $-1 $388 $573 #
vertex $-1 $245 $574 #
straight-curve $-1 -62.694282942306671 7.4731171718478837 13.495297064149888 1 0 0 I I #
coedge $-1 $394 $394 $-1 $575 reversed $248 $-1 #
edge $-1 $576 0 $576 6.2831853071796004 $249 $577 forward 7 unknown #
vertex $-1 $252 $578 #
ellipse-curve $-1 -54.660814755707911 11.534114110126986 10.018080084353217 -0.54463904215088732 0 0.83867056331134215 1.2580058449670133 0 0.81695856322633098 1 I I #
coedge $-1 $398 $398 $-1 $579 reversed $255 $-1 #
edge $-1 $580 0 $580 6.2831853071796004 $256 $581 forward 7 unknown #
vertex $-1 $259 $582 #
ellipse-curve $-1 -54.660814755707911 17.625609517545627 10.018080084353217 -0.54463904215088732 0 0.83867056331134215 1.2580058449670133 0 0.81695856322633098 1 I I #
face $-1 $-1 $583 $56 $-1 $584 reversed single #
loop $-1 $-1 $266 $260 #
plane-surface $-1 0 0 13.495297064149891 0 0 1 1 0 0 forward_v I I I I #
coedge $-1 $585 $586 $587 $588 reversed $261 $-1 #
coedge $-1 $589 $263 $265 $412 forward $165 $-1 #
coedge $-1 $263 $589 $585 $590 forward $165 $-1 #
coedge $-1 $587 $266 $263 $409 forward $403 $-1 #
edge $-1 $415 6.8678882018775127 $591 13.61819023602056 $408 $592 forward 7 unknown #
coedge $-1 $593 $594 $264 $411 forward $583 $-1 #
edge $-1 $595 -82.877095809445663 $414 -70.797528382538758 $410 $596 forward 7 unknown #
edge $-1 $415 105.28408969790318 $595 120.03051850947604 $265 $597 forward 7 unknown #
coedge $-1 $266 $587 $593 $598 forward $403 $-1 #
vertex $-1 $267 $599 #
vertex $-1 $267 $600 #
straight-curve $-1 44.745914589714374 -17.110927420826549 13.495297064149895 -1 0 0 I I #
coedge $-1 $417 $417 $-1 $601 reversed $270 $-1 #
edge $-1 $602 0 $602 6.2831853071796004 $271 $603 forward 7 unknown #
vertex $-1 $274 $604 #
ellipse-curve $-1 55.786157297064349 -20.486078437898069 7.4555133506964575 0.81915205242281985 0 0.57357642473473569 0.57357642473473569 0 -0.81915205242281985 1 I I #
face $-1 $-1 $433 $58 $-1 $605 forward single #
loop $-1 $-1 $606 $275 #
plane-surface $-1 60.015259254737998 0 0 -1 0 0 0 0 1 forward_v I I I I #
coedge $-1 $607 $608 $609 $610 reversed $276 $-1 #
coedge $-1 $611 $278 $280 $431 forward $174 $-1 #
coedge $-1 $278 $611 $607 $612 forward $174 $-1 #
coedge $-1 $609 $281 $278 $428 forward $433 $-1 #
edge $-1 $435 -0.82210055982207209 $613 5.9282014743209714 $427 $614 forward 7 unknown #
coedge $-1 $615 $616 $279 $430 forward $422 $-1 #
edge $-1 $617 -82.877095809445663 $434 -70.797528382538758 $429 $618 forward 7 unknown #
edge $-1 $435 105.28408969790318 $617 120.03051850947604 $280 $619 forward 7 unknown #
coedge $-1 $281 $609 $615 $620 forward $433 $-1 #
loop $-1 $-1 $609 $421 #
vertex $-1 $430 $621 #
vertex $-1 $282 $622 #
straight-curve $-1 44.745914589714374 -1.7309498974273776 13.495297064149895 -1 0 0 I I #
coedge $-1 $437 $437 $-1 $623 reversed $285 $-1 #
edge $-1 $624 0 $624 6.2831853071796004 $286 $625 forward 7 unknown #
vertex $-1 $289 $626 #
ellipse-curve $-1 55.786157297064349 -5.1061009144988958 7.4555133506964575 0.81915205242281985 0 0.57357642473473569 0.57357642473473569 0 -0.81915205242281985 1 I I #
face $-1 $-1 $453 $60 $-1 $627 forward single #
loop $-1 $-1 $628 $290 #
plane-surface $-1 60.015259254737998 0 0 -1 0 0 0 0 1 forward_v I I I I #
coedge $-1 $629 $630 $631 $632 reversed $291 $-1 #
coedge $-1 $633 $293 $295 $451 forward $183 $-1 #
coedge $-1 $293 $633 $629 $634 forward $183 $-1 #
coedge $-1 $631 $296 $293 $448 forward $453 $-1 #
edge $-1 $455 -8.5120893215216586 $635 -1.7617872873786151 $447 $636 forward 7 unknown #
coedge $-1 $637 $638 $294 $450 forward $442 $-1 #
edge $-1 $639 -82.877095809445663 $454 -70.797528382538758 $449 $640 forward 7 unknown #
edge $-1 $455 105.28408969790318 $639 120.03051850947604 $295 $641 forward 7 unknown #
coedge $-1 $296 $631 $637 $642 forward $453 $-1 #
loop $-1 $-1 $631 $441 #
vertex $-1 $450 $643 #
vertex $-1 $297 $644 #
straight-curve $-1 44.745914589714374 13.649027625971796 13.495297064149895 -1 0 0 I I #
coedge $-1 $457 $457 $-1 $645 reversed $300 $-1 #
edge $-1 $646 0 $646 6.2831853071796004 $301 $647 forward 7 unknown #
vertex $-1 $304 $648 #
ellipse-curve $-1 55.786157297064349 10.273876608900274 7.4555133506964575 0.81915205242281985 0 0.57357642473473569 0.57357642473473569 0 -0.81915205242281985 1 I I #
face $-1 $-1 $473 $62 $-1 $649 forward single #
loop $-1 $-1 $650 $305 #
plane-surface $-1 60.015259254737998 0 0 -1 0 0 0 0 1 forward_v I I I I #
coedge $-1 $651 $652 $653 $654 reversed $306 $-1 #
coedge $-1 $655 $308 $310 $471 forward $192 $-1 #
coedge $-1 $308 $655 $651 $656 forward $192 $-1 #
coedge $-1 $653 $311 $308 $468 forward $473 $-1 #
edge $-1 $475 -16.202078083221245 $657 -9.4517760490781981 $467 $658 forward 7 unknown #
coedge $-1 $659 $660 $309 $470 forward $462 $-1 #
edge $-1 $661 -82.877095809445663 $474 -70.797528382538758 $469 $662 forward 7 unknown #
edge $-1 $475 105.28408969790318 $661 120.03051850947604 $310 $663 forward 7 unknown #
coedge $-1 $311 $653 $659 $664 forward $473 $-1 #
loop $-1 $-1 $653 $461 #
vertex $-1 $470 $665 #
vertex $-1 $312 $666 #
straight-curve $-1 44.745914589714374 29.029005149370967 13.495297064149895 -1 0 0 I I #
coedge $-1 $477 $477 $-1 $667 reversed $315 $-1 #
edge $-1 $668 0 $668 6.2831853071796004 $316 $669 forward 7 unknown #
vertex $-1 $319 $670 #
ellipse-curve $-1 55.786157297064349 25.653854132299443 7.4555133506964575 0.81915205242281985 0 0.57357642473473569 0.57357642473473569 0 -0.81915205242281985 1 I I #
face $-1 $-1 $335 $48 $-1 $671 reversed single #
loop $-1 $-1 $497 $320 #
plane-surface $-1 0 35.647236084208622 0 0 -1 0 0 0 -1 forward_v I I I I #
coedge $-1 $672 $495 $498 $673 forward $321 $-1 #
coedge $-1 $501 $323 $324 $489 reversed $201 $-1 #
coedge $-1 $495 $672 $323 $487 reversed $321 $-1 #
edge $-1 $502 -13.495297064149891 $674 13.495297064149891 $486 $675 forward 7 unknown #
coedge $-1 $325 $324 $672 $676 forward $129 $-1 #
edge $-1 $493 -60.015259254737998 $674 60.015259254737998 $485 $677 forward 7 unknown #
coedge $-1 $498 $497 $325 $491 reversed $482 $-1 #
edge $-1 $678 -60.015259254737998 $492 60.015259254737998 $490 $679 forward 7 unknown #
vertex $-1 $327 $680 #
vertex $-1 $504 $681 #
straight-curve $-1 60.015259254737998 0 -13.495297064149891 0 -1 0 I I #
coedge $-1 $484 $486 $328 $496 reversed $321 $-1 #
edge $-1 $499 -35.647236084208622 $502 35.647236084208622 $495 $682 forward 7 unknown #
coedge $-1 $490 $329 $334 $505 forward $482 $-1 #
coedge $-1 $329 $490 $484 $673 reversed $482 $-1 #
vertex $-1 $330 $683 #
straight-curve $-1 0 35.647236084208622 13.495297064149891 -1 0 0 I I #
coedge $-1 $331 $485 $333 $504 reversed $201 $-1 #
vertex $-1 $496 $684 #
straight-curve $-1 0 -35.647236084208622 13.495297064149891 1 0 0 I I #
edge $-1 $336 -13.495297064149891 $493 13.495297064149891 $333 $685 forward 7 unknown #
edge $-1 $337 -13.495297064149891 $492 13.495297064149891 $334 $686 forward 7 unknown #
point $-1 60.015259254737998 -35.647236084208622 13.495297064149891 #
point $-1 60.015259254737998 35.647236084208622 13.495297064149891 #
face $-1 $-1 $518 $49 $-1 $687 reversed single #
loop $-1 $-1 $514 $339 #
plane-surface $-1 0 0 -13.495297064149891 0 0 1 1 0 0 forward_v I I I I #
coedge $-1 $688 $689 $347 $522 forward $340 $-1 #
coedge $-1 $342 $526 $516 $690 forward $209 $-1 #
edge $-1 $520 -20.267258560809452 $352 -10.492696485988887 $342 $691 forward 7 unknown #
coedge $-1 $692 $348 $343 $515 forward $509 $-1 #
edge $-1 $353 10.492696485988887 $519 20.267258560809452 $514 $693 forward 7 unknown #
coedge $-1 $694 $345 $512 $690 reversed $518 $-1 #
coedge $-1 $345 $694 $692 $695 reversed $518 $-1 #
loop $-1 $-1 $345 $508 #
vertex $-1 $695 $696 #
vertex $-1 $346 $697 #
straight-curve $-1 -54.466977603381793 -35.647236084208622 0 0 0 1 I I #
edge $-1 $527 -13.495297064149891 $524 13.495297064149891 $511 $698 forward 7 unknown #
coedge $-1 $348 $692 $688 $699 forward $509 $-1 #
vertex $-1 $349 $700 #
straight-curve $-1 -28.620559214529948 -25.872674009388057 -13.495297064149891 1 0 0 I I #
coedge $-1 $512 $350 $689 $701 forward $209 $-1 #
vertex $-1 $701 $702 #
straight-curve $-1 -28.620559214529948 -25.872674009388057 13.495297064149891 -1 0 0 I I #
point $-1 -54.466977603381793 -25.872674009388057 13.495297064149891 #
point $-1 -54.466977603381793 -25.872674009388057 -13.495297064149891 #
plane-surface $-1 0 0 13.495297064149891 0 0 1 1 0 0 forward_v I I I I #
coedge $-1 $542 $541 $534 $703 forward $356 $-1 #
coedge $-1 $534 $358 $360 $538 reversed $217 $-1 #
coedge $-1 $358 $533 $532 $703 reversed $217 $-1 #
coedge $-1 $366 $361 $358 $536 forward $367 $-1 #
edge $-1 $539 -13.387912685628862 $704 -2.679023687568673 $535 $705 forward 7 unknown #
coedge $-1 $360 $359 $542 $706 reversed $137 $-1 #
edge $-1 $707 0 $539 12.768886218896295 $533 $708 forward 7 unknown #
vertex $-1 $362 $709 #
straight-curve $-1 -49.306370256677816 -8.0900466164810183 13.49529706414989 0 1 0 I I #
coedge $-1 $532 $363 $366 $546 reversed $356 $-1 #
coedge $-1 $363 $532 $537 $706 forward $356 $-1 #
vertex $-1 $364 $710 #
straight-curve $-1 -60.015259254737998 -23.286837874950457 53.603462838725626 0 0 1 I I #
straight-curve $-1 -60.015259254737998 -23.286837874950457 6.54086310455655 -0.83867056331134215 0 -0.54463904215088732 I I #
edge $-1 $704 9.0733485909736178 $368 23.286837874950457 $541 $711 forward 7 unknown #
point $-1 -60.015259254737998 -23.286837874950457 13.495297064149891 #
point $-1 -49.306370256677809 -23.286837874950457 13.495297064149891 #
edge $-1 $712 1 $712 0 $371 $-1 forward 7 unknown #
vertex $-1 $372 $713 #
ellipse-curve $-1 -52.473499018782171 -19.225840936671357 6.649909279001621 -0.54463904215088732 0 0.83867056331134215 1.2580058449670133 0 0.81695856322633098 1 I I #
point $-1 -53.402808910740902 -19.225840936671357 10.835038647579559 #
edge $-1 $714 1 $714 0 $375 $-1 forward 7 unknown #
vertex $-1 $376 $715 #
ellipse-curve $-1 -52.473499018782171 -13.134345529252712 6.649909279001621 -0.54463904215088732 0 0.83867056331134215 1.2580058449670133 0 0.81695856322633098 1 I I #
point $-1 -53.402808910740902 -13.134345529252712 10.835038647579559 #
loop $-1 $-1 $387 $379 #
plane-surface $-1 -60.015259254737998 0 0 1 0 0 0 0 -1 forward_v I I I I #
coedge $-1 $560 $382 $384 $564 reversed $239 $-1 #
coedge $-1 $382 $559 $716 $717 reversed $239 $-1 #
coedge $-1 $390 $385 $382 $562 forward $380 $-1 #
edge $-1 $565 -13.387912685628862 $718 -2.679023687568673 $561 $719 forward 7 unknown #
coedge $-1 $384 $383 $568 $720 reversed $151 $-1 #
edge $-1 $721 0 $565 12.768886218896295 $559 $722 forward 7 unknown #
vertex $-1 $386 $723 #
straight-curve $-1 -49.306370256677816 7.2899309069181513 13.49529706414989 0 1 0 I I #
coedge $-1 $716 $387 $390 $572 reversed $557 $-1 #
coedge $-1 $387 $716 $563 $720 forward $557 $-1 #
vertex $-1 $388 $724 #
straight-curve $-1 -60.015259254737998 7.4731171718478837 53.603462838725626 0 0 1 I I #
straight-curve $-1 -60.015259254737998 7.4731171718478837 6.54086310455655 -0.83867056331134215 0 -0.54463904215088732 I I #
edge $-1 $718 -21.686606455824723 $391 -7.4731171718478837 $567 $725 forward 7 unknown #
point $-1 -60.015259254737998 7.4731171718478837 13.495297064149891 #
point $-1 -49.306370256677809 7.4731171718478837 13.495297064149891 #
edge $-1 $726 1 $726 0 $394 $-1 forward 7 unknown #
vertex $-1 $395 $727 #
ellipse-curve $-1 -52.473499018782171 11.534114110126986 6.649909279001621 -0.54463904215088732 0 0.83867056331134215 1.2580058449670133 0 0.81695856322633098 1 I I #
point $-1 -53.402808910740902 11.534114110126986 10.835038647579559 #
edge $-1 $728 1 $728 0 $398 $-1 forward 7 unknown #
vertex $-1 $399 $729 #
ellipse-curve $-1 -52.473499018782171 17.625609517545627 6.649909279001621 -0.54463904215088732 0 0.83867056331134215 1.2580058449670133 0 0.81695856322633098 1 I I #
point $-1 -53.402808910740902 17.625609517545627 10.835038647579559 #
loop $-1 $-1 $410 $402 #
plane-surface $-1 60.015259254737998 0 0 -1 0 0 0 0 1 forward_v I I I I #
coedge $-1 $586 $405 $407 $590 reversed $261 $-1 #
coedge $-1 $405 $585 $730 $731 reversed $261 $-1 #
coedge $-1 $413 $408 $405 $588 forward $403 $-1 #
edge $-1 $591 6.811140749676369 $732 15.269344665023624 $587 $733 forward 7 unknown #
coedge $-1 $407 $406 $594 $734 reversed $165 $-1 #
edge $-1 $735 -120.03051850947604 $591 -105.28408969790318 $585 $736 forward 7 unknown #
vertex $-1 $409 $737 #
straight-curve $-1 51.557055339390757 -10.243039218949036 13.495297064149895 0 -1 0 I I #
coedge $-1 $730 $410 $413 $598 reversed $583 $-1 #
coedge $-1 $410 $730 $589 $734 forward $583 $-1 #
vertex $-1 $411 $738 #
straight-curve $-1 60.015259254737998 -17.110927420826549 84.292825446688653 0 0 1 I I #
straight-curve $-1 -8.8314164109837776 -17.110927420826549 99.738975227655544 0.57357642473473569 0 -0.81915205242281985 I I #
edge $-1 $732 -23.861229454969596 $414 -17.110927420826549 $593 $739 forward 7 unknown #
point $-1 60.015259254737998 -17.110927420826549 13.495297064149891 #
point $-1 51.557055339390743 -17.110927420826549 13.495297064149895 #
edge $-1 $740 1 $740 0 $417 $-1 forward 7 unknown #
vertex $-1 $418 $741 #
ellipse-curve $-1 54.308973678618628 -20.486078437898069 6.4211782769591554 0.81915205242281985 0 0.57357642473473569 0.57357642473473569 0 -0.81915205242281985 1 I I #
point $-1 56.359733721799117 -20.486078437898069 6.6363612982736564 #
plane-surface $-1 0 0 13.495297064149891 0 0 1 1 0 0 forward_v I I I I #
coedge $-1 $616 $615 $608 $742 forward $422 $-1 #
coedge $-1 $608 $424 $426 $612 reversed $276 $-1 #
coedge $-1 $424 $607 $606 $742 reversed $276 $-1 #
coedge $-1 $432 $427 $424 $610 forward $433 $-1 #
edge $-1 $613 6.811140749676369 $743 15.269344665023624 $609 $744 forward 7 unknown #
coedge $-1 $426 $425 $616 $745 reversed $174 $-1 #
edge $-1 $746 -120.03051850947604 $613 -105.28408969790318 $607 $747 forward 7 unknown #
vertex $-1 $428 $748 #
straight-curve $-1 51.557055339390757 -2.5530504572494497 13.495297064149895 0 -1 0 I I #
coedge $-1 $606 $429 $432 $620 reversed $422 $-1 #
coedge $-1 $429 $606 $611 $745 forward $422 $-1 #
vertex $-1 $430 $749 #
straight-curve $-1 60.015259254737998 -1.7309498974273776 84.292825446688653 0 0 1 I I #
straight-curve $-1 -8.8314164109837776 -1.7309498974273776 99.738975227655544 0.57357642473473569 0 -0.81915205242281985 I I #
edge $-1 $743 -8.4812519315704211 $434 -1.7309498974273776 $615 $750 forward 7 unknown #
point $-1 60.015259254737998 -1.7309498974273776 13.495297064149891 #
point $-1 51.557055339390743 -1.7309498974273776 13.495297064149895 #
edge $-1 $751 1 $751 0 $437 $-1 forward 7 unknown #
vertex $-1 $438 $752 #
ellipse-curve $-1 54.308973678618628 -5.1061009144988958 6.4211782769591554 0.81915205242281985 0 0.57357642473473569 0.57357642473473569 0 -0.81915205242281985 1 I I #
point $-1 56.359733721799117 -5.1061009144988958 6.6363612982736564 #
plane-surface $-1 0 0 13.495297064149891 0 0 1 1 0 0 forward_v I I I I #
coedge $-1 $638 $637 $630 $753 forward $442 $-1 #
coedge $-1 $630 $444 $446 $634 reversed $291 $-1 #
coedge $-1 $444 $629 $628 $753 reversed $291 $-1 #
coedge $-1 $452 $447 $444 $632 forward $453 $-1 #
edge $-1 $635 6.811140749676369 $754 15.269344665023624 $631 $755 forward 7 unknown #
coedge $-1 $446 $445 $638 $756 reversed $183 $-1 #
edge $-1 $757 -120.03051850947604 $635 -105.28408969790318 $629 $758 forward 7 unknown #
vertex $-1 $448 $759 #
straight-curve $-1 51.557055339390757 5.1369383044501369 13.495297064149895 0 -1 0 I I #
coedge $-1 $628 $449 $452 $642 reversed $442 $-1 #
coedge $-1 $449 $628 $633 $756 forward $442 $-1 #
vertex $-1 $450 $760 #
straight-curve $-1 60.015259254737998 13.649027625971796 84.292825446688653 0 0 1 I I #
straight-curve $-1 -8.8314164109837776 13.649027625971796 99.738975227655544 0.57357642473473569 0 -0.81915205242281985 I I #
edge $-1 $754 6.898725591828752 $454 13.649027625971796 $637 $761 forward 7 unknown #
point $-1 60.015259254737998 13.649027625971796 13.495297064149891 #
point $-1 51.557055339390743 13.649027625971796 13.495297064149895 #
edge $-1 $762 1 $762 0 $457 $-1 forward 7 unknown #
vertex $-1 $458 $763 #
ellipse-curve $-1 54.308973678618628 10.273876608900274 6.4211782769591554 0.81915205242281985 0 0.57357642473473569 0.57357642473473569 0 -0.81915205242281985 1 I I #
point $-1 56.359733721799117 10.273876608900274 6.6363612982736564 #
plane-surface $-1 0 0 13.495297064149891 0 0 1 1 0 0 forward_v I I I I #
coedge $-1 $660 $659 $652 $764 forward $462 $-1 #
coedge $-1 $652 $464 $466 $656 reversed $306 $-1 #
coedge $-1 $464 $651 $650 $764 reversed $306 $-1 #
coedge $-1 $472 $467 $464 $654 forward $473 $-1 #
edge $-1 $657 6.811140749676369 $765 15.269344665023624 $653 $766 forward 7 unknown #
coedge $-1 $466 $465 $660 $767 reversed $192 $-1 #
edge $-1 $768 -120.03051850947604 $657 -105.28408969790318 $651 $769 forward 7 unknown #
vertex $-1 $468 $770 #
straight-curve $-1 51.557055339390757 12.826927066149722 13.495297064149895 0 -1 0 I I #
coedge $-1 $650 $469 $472 $664 reversed $462 $-1 #
coedge $-1 $469 $650 $655 $767 forward $462 $-1 #
vertex $-1 $470 $771 #
straight-curve $-1 60.015259254737998 29.029005149370967 84.292825446688653 0 0 1 I I #
straight-curve $-1 -8.8314164109837776 29.029005149370967 99.738975227655544 0.57357642473473569 0 -0.81915205242281985 I I #
edge $-1 $765 22.27870311522792 $474 29.029005149370967 $659 $772 forward 7 unknown #
point $-1 60.015259254737998 29.029005149370967 13.495297064149891 #
point $-1 51.557055339390743 29.029005149370967 13.495297064149895 #
edge $-1 $773 1 $773 0 $477 $-1 forward 7 unknown #
vertex $-1 $478 $774 #
ellipse-curve $-1 54.308973678618628 25.653854132299443 6.4211782769591554 0.81915205242281985 0 0.57357642473473569 0.57357642473473569 0 -0.81915205242281985 1 I I #
point $-1 56.359733721799117 25.653854132299443 6.6363612982736564 #
plane-surface $-1 60.015259254737998 0 0 -1 0 0 0 0 1 forward_v I I I I #
coedge $-1 $486 $484 $488 $676 reversed $321 $-1 #
edge $-1 $499 -13.495297064149891 $678 13.495297064149891 $498 $775 forward 7 unknown #
vertex $-1 $676 $776 #
straight-curve $-1 -60.015259254737998 -35.647236084208622 0 0 0 -1 I I #
edge $-1 $674 -35.647236084208622 $678 35.647236084208622 $672 $777 forward 7 unknown #
straight-curve $-1 0 -35.647236084208622 -13.495297064149891 -1 0 0 I I #
vertex $-1 $491 $778 #
straight-curve $-1 0 35.647236084208622 -13.495297064149891 1 0 0 I I #
point $-1 60.015259254737998 35.647236084208622 -13.495297064149891 #
point $-1 60.015259254737998 -35.647236084208622 -13.495297064149891 #
straight-curve $-1 -60.015259254737998 0 13.495297064149891 0 -1 0 I I #
point $-1 -60.015259254737998 35.647236084208622 13.495297064149891 #
point $-1 -60.015259254737998 -35.647236084208622 13.495297064149891 #
straight-curve $-1 60.015259254737998 -35.647236084208622 0 0 0 -1 I I #
straight-curve $-1 60.015259254737998 35.647236084208622 0 0 0 -1 I I #
plane-surface $-1 0 -35.647236084208622 0 0 1 0 0 0 1 forward_v I I I I #
coedge $-1 $779 $511 $523 $699 reversed $340 $-1 #
coedge $-1 $511 $779 $526 $701 reversed $340 $-1 #
edge $-1 $780 -60.015259254737998 $520 -54.466977603381793 $516 $781 forward 7 unknown #
straight-curve $-1 -54.466977603381793 -15.37997752339917 13.495297064149891 0 1 0 I I #
coedge $-1 $523 $514 $517 $695 forward $509 $-1 #
straight-curve $-1 -54.466977603381793 -15.37997752339917 -13.495297064149891 0 -1 0 I I #
coedge $-1 $517 $516 $779 $782 forward $518 $-1 #
edge $-1 $519 54.466977603381793 $783 60.015259254737998 $517 $784 forward 7 unknown #
point $-1 -54.466977603381793 -35.647236084208622 -13.495297064149891 #
point $-1 -54.466977603381793 -35.647236084208622 13.495297064149891 #
straight-curve $-1 -60.015259254737998 -25.872674009388057 0 0 0 -1 I I #
edge $-1 $783 -35.647236084208622 $524 -25.872674009388057 $688 $785 forward 7 unknown #
point $-1 -60.015259254737998 -25.872674009388057 -13.495297064149891 #
edge $-1 $527 25.872674009388057 $780 35.647236084208622 $689 $786 forward 7 unknown #
point $-1 -60.015259254737998 -25.872674009388057 13.495297064149891 #
edge $-1 $704 40.108165774575738 $707 47.062599734169076 $532 $787 forward 7 unknown #
vertex $-1 $546 $788 #
straight-curve $-1 -62.694282942306671 -9.0733485909736178 13.495297064149888 -1 0 0 I I #
edge $-1 $707 0.98330197449259948 $543 15.196791258469439 $542 $789 forward 7 unknown #
vertex $-1 $706 $790 #
straight-curve $-1 -60.015259254737998 -9.0733485909736178 6.54086310455655 0.83867056331134215 0 0.54463904215088732 I I #
point $-1 -49.306370256677809 -9.0733485909736178 13.495297064149891 #
point $-1 -60.015259254737998 -23.286837874950457 6.54086310455655 #
straight-curve $-1 -60.015259254737998 0 13.495297064149891 0 -1 0 I I #
vertex $-1 $549 $791 #
point $-1 -51.215493173815155 -19.225840936671357 7.466867842227952 #
vertex $-1 $553 $792 #
point $-1 -51.215493173815155 -13.134345529252712 7.466867842227952 #
coedge $-1 $568 $567 $560 $717 forward $557 $-1 #
edge $-1 $718 40.108165774575738 $721 47.062599734169076 $716 $793 forward 7 unknown #
vertex $-1 $572 $794 #
straight-curve $-1 -62.694282942306671 21.686606455824723 13.495297064149888 -1 0 0 I I #
edge $-1 $721 -14.396675548906572 $569 -0.18318626492973245 $568 $795 forward 7 unknown #
vertex $-1 $720 $796 #
straight-curve $-1 -60.015259254737998 21.686606455824723 6.54086310455655 0.83867056331134215 0 0.54463904215088732 I I #
point $-1 -49.306370256677809 21.686606455824723 13.495297064149891 #
point $-1 -60.015259254737998 7.4731171718478837 6.54086310455655 #
straight-curve $-1 -60.015259254737998 0 13.495297064149891 0 -1 0 I I #
vertex $-1 $575 $797 #
point $-1 -51.215493173815155 11.534114110126986 7.466867842227952 #
vertex $-1 $579 $798 #
point $-1 -51.215493173815155 17.625609517545627 7.466867842227952 #
coedge $-1 $594 $593 $586 $731 forward $583 $-1 #
edge $-1 $732 70.797528382538758 $735 82.877095809445663 $730 $799 forward 7 unknown #
vertex $-1 $598 $800 #
straight-curve $-1 44.745914589714374 -23.861229454969596 13.495297064149895 1 0 0 I I #
edge $-1 $735 -13.61819023602056 $595 -6.8678882018775127 $594 $801 forward 7 unknown #
vertex $-1 $734 $802 #
straight-curve $-1 -8.8314164109837776 -23.861229454969596 99.738975227655544 -0.57357642473473569 0 0.81915205242281985 I I #
point $-1 51.557055339390743 -23.861229454969596 13.495297064149895 #
point $-1 60.015259254737998 -17.110927420826549 1.4157296372429897 #
straight-curve $-1 60.015259254737998 0 13.495297064149891 0 1 0 I I #
vertex $-1 $601 $803 #
point $-1 54.88255010335336 -20.486078437898069 5.6020262245363357 #
edge $-1 $743 70.797528382538758 $746 82.877095809445663 $606 $804 forward 7 unknown #
vertex $-1 $620 $805 #
straight-curve $-1 44.745914589714374 -8.4812519315704211 13.495297064149895 1 0 0 I I #
edge $-1 $746 -5.9282014743209714 $617 0.82210055982207209 $616 $806 forward 7 unknown #
vertex $-1 $745 $807 #
straight-curve $-1 -8.8314164109837776 -8.4812519315704211 99.738975227655544 -0.57357642473473569 0 0.81915205242281985 I I #
point $-1 51.557055339390743 -8.4812519315704211 13.495297064149895 #
point $-1 60.015259254737998 -1.7309498974273776 1.4157296372429897 #
straight-curve $-1 60.015259254737998 0 13.495297064149891 0 1 0 I I #
vertex $-1 $623 $808 #
point $-1 54.88255010335336 -5.1061009144988958 5.6020262245363357 #
edge $-1 $754 70.797528382538758 $757 82.877095809445663 $628 $809 forward 7 unknown #
vertex $-1 $642 $810 #
straight-curve $-1 44.745914589714374 6.898725591828752 13.495297064149895 1 0 0 I I #
edge $-1 $757 1.7617872873786151 $639 8.5120893215216586 $638 $811 forward 7 unknown #
vertex $-1 $756 $812 #
straight-curve $-1 -8.8314164109837776 6.898725591828752 99.738975227655544 -0.57357642473473569 0 0.81915205242281985 I I #
point $-1 51.557055339390743 6.898725591828752 13.495297064149895 #
point $-1 60.015259254737998 13.649027625971796 1.4157296372429897 #
straight-curve $-1 60.015259254737998 0 13.495297064149891 0 1 0 I I #
vertex $-1 $645 $813 #
point $-1 54.88255010335336 10.273876608900274 5.6020262245363357 #
edge $-1 $765 70.797528382538758 $768 82.877095809445663 $650 $814 forward 7 unknown #
vertex $-1 $664 $815 #
straight-curve $-1 44.745914589714374 22.27870311522792 13.495297064149895 1 0 0 I I #
edge $-1 $768 9.4517760490781981 $661 16.202078083221245 $660 $816 forward 7 unknown #
vertex $-1 $767 $817 #
straight-curve $-1 -8.8314164109837776 22.27870311522792 99.738975227655544 -0.57357642473473569 0 0.81915205242281985 I I #
point $-1 51.557055339390743 22.27870311522792 13.495297064149895 #
point $-1 60.015259254737998 29.029005149370967 1.4157296372429897 #
straight-curve $-1 60.015259254737998 0 13.495297064149891 0 1 0 I I #
vertex $-1 $667 $818 #
point $-1 54.88255010335336 25.653854132299443 5.6020262245363357 #
straight-curve $-1 -60.015259254737998 35.647236084208622 0 0 0 -1 I I #
point $-1 -60.015259254737998 -35.647236084208622 -13.495297064149891 #
straight-curve $-1 -60.015259254737998 0 -13.495297064149891 0 1 0 I I #
point $-1 -60.015259254737998 35.647236084208622 -13.495297064149891 #
coedge $-1 $689 $688 $694 $782 reversed $340 $-1 #
vertex $-1 $701 $819 #
straight-curve $-1 0 -35.647236084208622 13.495297064149891 1 0 0 I I #
edge $-1 $780 -13.495297064149891 $783 13.495297064149891 $779 $820 forward 7 unknown #
vertex $-1 $699 $821 #
straight-curve $-1 0 -35.647236084208622 -13.495297064149891 -1 0 0 I I #
straight-curve $-1 -60.015259254737998 0 -13.495297064149891 0 1 0 I I #
straight-curve $-1 -60.015259254737998 0 13.495297064149891 0 -1 0 I I #
straight-curve $-1 -60.015259254737998 -9.0733485909736178 53.603462838725626 0 0 -1 I I #
point $-1 -60.015259254737998 -9.0733485909736178 13.495297064149891 #
straight-curve $-1 -60.015259254737998 -8.0900466164810183 6.5408631045565526 0 -1 0 I I #
point $-1 -60.015259254737998 -9.0733485909736178 6.54086310455655 #
point $-1 -51.656540455555835 -19.225840936671357 5.3919034340346084 #
point $-1 -51.656540455555835 -13.134345529252712 5.3919034340346084 #
straight-curve $-1 -60.015259254737998 21.686606455824723 53.603462838725626 0 0 -1 I I #
point $-1 -60.015259254737998 21.686606455824723 13.495297064149891 #
straight-curve $-1 -60.015259254737998 7.2899309069181513 6.5408631045565526 0 -1 0 I I #
point $-1 -60.015259254737998 21.686606455824723 6.54086310455655 #
point $-1 -51.656540455555835 11.534114110126986 5.3919034340346084 #
point $-1 -51.656540455555835 17.625609517545627 5.3919034340346084 #
straight-curve $-1 60.015259254737998 -23.861229454969596 84.292825446688653 0 0 -1 I I #
point $-1 60.015259254737998 -23.861229454969596 13.495297064149891 #
straight-curve $-1 60.015259254738005 -10.243039218949036 1.4157296372429826 0 1 0 I I #
point $-1 60.015259254737998 -23.861229454969596 1.4157296372429897 #
point $-1 53.489821626195805 -20.486078437898069 5.84760185222442 #
straight-curve $-1 60.015259254737998 -8.4812519315704211 84.292825446688653 0 0 -1 I I #
point $-1 60.015259254737998 -8.4812519315704211 13.495297064149891 #
straight-curve $-1 60.015259254738005 -2.5530504572494497 1.4157296372429826 0 1 0 I I #
point $-1 60.015259254737998 -8.4812519315704211 1.4157296372429897 #
point $-1 53.489821626195805 -5.1061009144988958 5.84760185222442 #
straight-curve $-1 60.015259254737998 6.898725591828752 84.292825446688653 0 0 -1 I I #
point $-1 60.015259254737998 6.898725591828752 13.495297064149891 #
straight-curve $-1 60.015259254738005 5.1369383044501369 1.4157296372429826 0 1 0 I I #
point $-1 60.015259254737998 6.898725591828752 1.4157296372429897 #
point $-1 53.489821626195805 10.273876608900274 5.84760185222442 #
straight-curve $-1 60.015259254737998 22.27870311522792 84.292825446688653 0 0 -1 I I #
point $-1 60.015259254737998 22.27870311522792 13.495297064149891 #
straight-curve $-1 60.015259254738005 12.826927066149722 1.4157296372429826 0 1 0 I I #
point $-1 60.015259254737998 22.27870311522792 1.4157296372429897 #
point $-1 53.489821626195805 25.653854132299443 5.84760185222442 #
point $-1 -60.015259254737998 -35.647236084208622 13.495297064149891 #
straight-curve $-1 -60.015259254737998 -35.647236084208622 0 0 0 -1 I I #
point $-1 -60.015259254737998 -35.647236084208622 -13.495297064149891 #
End-of-ACIS-data 