500 0 12 0           
7 Unknown 11 ACIS 5.0 NT 24 Thu Mar 25 23:41:54 1999 
-1 9.9999999999999995e-007 1e-010 
body $-1 $12 $-1 $13 #
body $-1 $14 $-1 $15 #
body $-1 $16 $-1 $17 #
body $-1 $18 $-1 $19 #
body $-1 $20 $-1 $21 #
body $-1 $22 $-1 $23 #
body $-1 $24 $-1 $25 #
body $-1 $26 $-1 $27 #
body $-1 $28 $-1 $29 #
body $-1 $30 $-1 $31 #
body $-1 $32 $-1 $33 #
body $-1 $34 $-1 $35 #
lump $-1 $-1 $36 $0 #
transform $-1 1 0 0 0 1 0 0 0 1 71.932126834925384 34.399744483879537 11.377730973019844 1 rotate no_reflect no_shear #
lump $-1 $-1 $37 $1 #
transform $-1 1 0 0 0 1 0 0 0 1 71.932126834925384 34.399744483879537 11.377730973019844 1 rotate no_reflect no_shear #
lump $-1 $-1 $38 $2 #
transform $-1 1 0 0 0 1 0 0 0 1 71.932126834925384 34.399744483879537 11.377730973019844 1 rotate no_reflect no_shear #
lump $-1 $-1 $39 $3 #
transform $-1 1 0 0 0 1 0 0 0 1 71.932126834925384 34.399744483879537 11.377730973019844 1 rotate no_reflect no_shear #
lump $-1 $-1 $40 $4 #
transform $-1 1 0 0 0 1 0 0 0 1 71.932126834925384 34.399744483879537 11.377730973019844 1 rotate no_reflect no_shear #
lump $-1 $-1 $41 $5 #
transform $-1 1 0 0 0 1 0 0 0 1 71.932126834925384 34.399744483879537 11.377730973019844 1 rotate no_reflect no_shear #
lump $-1 $-1 $42 $6 #
transform $-1 1 0 0 0 1 0 0 0 1 71.932126834925384 34.399744483879537 11.377730973019844 1 rotate no_reflect no_shear #
lump $-1 $-1 $43 $7 #
transform $-1 1 0 0 0 1 0 0 0 1 71.932126834925384 34.399744483879537 11.377730973019844 1 rotate no_reflect no_shear #
lump $-1 $-1 $44 $8 #
transform $-1 1 0 0 0 1 0 0 0 1 71.932126834925384 34.399744483879537 11.377730973019844 1 rotate no_reflect no_shear #
lump $-1 $-1 $45 $9 #
transform $-1 1 0 0 0 1 0 0 0 1 71.932126834925384 34.399744483879537 11.377730973019844 1 rotate no_reflect no_shear #
lump $-1 $-1 $46 $10 #
transform $-1 1 0 0 0 1 0 0 0 1 71.932126834925384 34.399744483879537 11.377730973019844 1 rotate no_reflect no_shear #
lump $-1 $-1 $47 $11 #
transform $-1 1 0 0 0 1 0 0 0 1 71.932126834925384 34.399744483879537 11.377730973019844 1 rotate no_reflect no_shear #
shell $-1 $-1 $-1 $48 $-1 $12 #
shell $-1 $-1 $-1 $49 $-1 $14 #
shell $-1 $-1 $-1 $50 $-1 $16 #
shell $-1 $-1 $-1 $51 $-1 $18 #
shell $-1 $-1 $-1 $52 $-1 $20 #
shell $-1 $-1 $-1 $53 $-1 $22 #
shell $-1 $-1 $-1 $54 $-1 $24 #
shell $-1 $-1 $-1 $55 $-1 $26 #
shell $-1 $-1 $-1 $56 $-1 $28 #
shell $-1 $-1 $-1 $57 $-1 $30 #
shell $-1 $-1 $-1 $58 $-1 $32 #
shell $-1 $-1 $-1 $59 $-1 $34 #
face $-1 $60 $61 $36 $-1 $62 reversed single #
face $-1 $63 $64 $37 $-1 $65 reversed single #
face $-1 $66 $67 $38 $-1 $68 forward single #
face $-1 $69 $70 $39 $-1 $71 reversed single #
face $-1 $72 $73 $40 $-1 $74 forward single #
face $-1 $75 $76 $41 $-1 $77 forward single #
face $-1 $78 $79 $42 $-1 $80 reversed single #
face $-1 $81 $82 $43 $-1 $83 forward single #
face $-1 $84 $85 $44 $-1 $86 forward single #
face $-1 $87 $88 $45 $-1 $89 reversed single #
face $-1 $90 $91 $46 $-1 $92 forward single #
face $-1 $93 $94 $47 $-1 $95 forward single #
face $-1 $96 $97 $36 $-1 $98 forward single #
loop $-1 $-1 $99 $48 #
plane-surface $-1 71.932126834925384 0 0 -1 0 0 0 0 1 forward_v I I I I #
face $-1 $100 $101 $37 $-1 $102 reversed single #
loop $-1 $-1 $103 $49 #
plane-surface $-1 -67.596408187998563 0 4.8167938492303595 0 0 1 1 0 0 forward_v I I I I #
face $-1 $104 $105 $38 $-1 $106 reversed single #
loop $-1 $-1 $107 $50 #
plane-surface $-1 71.932126834925384 0 0 -1 0 0 0 0 1 forward_v I I I I #
face $-1 $108 $109 $39 $-1 $110 reversed single #
loop $-1 $-1 $111 $51 #
plane-surface $-1 -27.80599639425359 -139.61540012498568 106.18047886897594 -1 0 0 0 -0.73135370988377701 0.68199835119979291 forward_v I I I I #
face $-1 $112 $113 $40 $-1 $114 forward single #
loop $-1 $115 $116 $52 #
cone-surface $-1 -38.589093147595435 -32.213936120499369 9.1234349970000324 0 0.73135370988377701 -0.68199835119979291 0.5 0 0 1 I I 0 1 0.5 forward I I I I #
face $-1 $117 $118 $41 $-1 $119 forward single #
loop $-1 $120 $121 $53 #
cone-surface $-1 -32.119235095590327 -32.213936120499369 9.1234349970000324 0 0.73135370988377701 -0.68199835119979291 0.5 0 0 1 I I 0 1 0.5 forward I I I I #
face $-1 $122 $123 $42 $-1 $124 reversed single #
loop $-1 $-1 $125 $54 #
plane-surface $-1 35.872589597617406 -139.61540012498568 106.18047886897594 -1 0 0 0 -0.73135370988377701 0.68199835119979291 forward_v I I I I #
face $-1 $126 $127 $43 $-1 $128 forward single #
loop $-1 $129 $130 $55 #
cone-surface $-1 25.089492844275554 -32.213936120499369 9.1234349970000324 0 0.73135370988377701 -0.68199835119979291 0.5 0 0 1 I I 0 1 0.5 forward I I I I #
face $-1 $131 $132 $44 $-1 $133 forward single #
loop $-1 $134 $135 $56 #
cone-surface $-1 31.559350896280662 -32.213936120499369 9.1234349970000324 0 0.73135370988377701 -0.68199835119979291 0.5 0 0 1 I I 0 1 0.5 forward I I I I #
face $-1 $136 $137 $45 $-1 $138 reversed single #
loop $-1 $-1 $139 $57 #
plane-surface $-1 37.377012280548769 119.94537835273496 138.34909763840469 1 0 0 0 -0.84804810408105047 -0.52991925155115449 forward_v I I I I #
face $-1 $140 $141 $46 $-1 $142 forward single #
loop $-1 $143 $144 $58 #
cone-surface $-1 45.011146612583474 31.597984166761062 7.3075977746637157 0 -0.84804810408105047 -0.52991925155115449 0.5 0 0 1 I I 0 1 0.5 forward I I I I #
face $-1 $145 $146 $47 $-1 $147 forward single #
loop $-1 $148 $149 $59 #
cone-surface $-1 56.462348110635531 31.597984166761062 7.3075977746637157 0 -0.84804810408105047 -0.52991925155115449 0.5 0 0 1 I I 0 1 0.5 forward I I I I #
face $-1 $150 $151 $36 $-1 $152 reversed single #
loop $-1 $-1 $153 $60 #
plane-surface $-1 0 0 11.377730973019844 0 0 1 1 0 0 forward_v I I I I #
coedge $-1 $154 $155 $156 $157 reversed $61 $-1 #
face $-1 $158 $159 $37 $-1 $160 reversed single #
loop $-1 $-1 $161 $63 #
plane-surface $-1 -63.260689541071741 0 8.0972624111251008 -1 0 0 0 0 1 forward_v I I I I #
coedge $-1 $162 $163 $164 $165 forward $64 $-1 #
face $-1 $166 $167 $38 $-1 $168 reversed single #
loop $-1 $-1 $169 $66 #
plane-surface $-1 0 0 -11.377730973019844 0 0 1 1 0 0 forward_v I I I I #
coedge $-1 $170 $171 $172 $173 forward $67 $-1 #
face $-1 $174 $175 $39 $-1 $176 reversed single #
loop $-1 $-1 $177 $69 #
plane-surface $-1 -35.354164121592881 -34.399744483879545 8.0652950695489523 0 -0.73135370988377701 0.68199835119979291 1 0 0 forward_v I I I I #
coedge $-1 $178 $179 $180 $181 reversed $70 $-1 #
face $-1 $-1 $182 $40 $-1 $183 forward single #
loop $-1 $184 $185 $72 #
cone-surface $-1 -38.589093147595435 -31.389737518050232 8.3548573849157108 0 0.73135370988377701 -0.68199835119979291 0.25 0 0 1 I I -0.70710678118654746 0.70710678118654746 0.25 forward I I I I #
loop $-1 $-1 $186 $52 #
coedge $-1 $116 $116 $187 $188 reversed $73 $-1 #
face $-1 $-1 $189 $41 $-1 $190 forward single #
loop $-1 $191 $192 $75 #
cone-surface $-1 -32.119235095590327 -31.389737518050232 8.3548573849157108 0 0.73135370988377701 -0.68199835119979291 0.25 0 0 1 I I -0.70710678118654746 0.70710678118654746 0.25 forward I I I I #
loop $-1 $-1 $193 $53 #
coedge $-1 $121 $121 $194 $195 reversed $76 $-1 #
face $-1 $196 $197 $42 $-1 $198 reversed single #
loop $-1 $-1 $199 $78 #
plane-surface $-1 28.324421870278115 -34.399744483879545 8.0652950695489523 0 -0.73135370988377701 0.68199835119979291 1 0 0 forward_v I I I I #
coedge $-1 $200 $201 $202 $203 reversed $79 $-1 #
face $-1 $-1 $204 $43 $-1 $205 forward single #
loop $-1 $206 $207 $81 #
cone-surface $-1 25.089492844275554 -31.389737518050232 8.3548573849157108 0 0.73135370988377701 -0.68199835119979291 0.25 0 0 1 I I -0.70710678118654746 0.70710678118654746 0.25 forward I I I I #
loop $-1 $-1 $208 $55 #
coedge $-1 $130 $130 $209 $210 reversed $82 $-1 #
face $-1 $-1 $211 $44 $-1 $212 forward single #
loop $-1 $213 $214 $84 #
cone-surface $-1 31.559350896280662 -31.389737518050232 8.3548573849157108 0 0.73135370988377701 -0.68199835119979291 0.25 0 0 1 I I -0.70710678118654746 0.70710678118654746 0.25 forward I I I I #
loop $-1 $-1 $215 $56 #
coedge $-1 $135 $135 $216 $217 reversed $85 $-1 #
face $-1 $218 $219 $45 $-1 $220 reversed single #
loop $-1 $-1 $221 $87 #
plane-surface $-1 50.736747361609503 -2.0584292170172915 62.112660008711941 0 0.84804810408105047 0.52991925155115449 1 0 0 forward_v I I I I #
coedge $-1 $222 $223 $224 $225 reversed $88 $-1 #
face $-1 $-1 $226 $46 $-1 $227 forward single #
loop $-1 $228 $229 $90 #
cone-surface $-1 45.011146612583474 30.961948088700275 6.9101583360003502 0 -0.84804810408105047 -0.52991925155115449 0.25 0 0 1 I I -0.70710678118654746 0.70710678118654746 0.25 forward I I I I #
loop $-1 $-1 $230 $58 #
coedge $-1 $144 $144 $231 $232 reversed $91 $-1 #
face $-1 $-1 $233 $47 $-1 $234 forward single #
loop $-1 $235 $236 $93 #
cone-surface $-1 56.462348110635531 30.961948088700275 6.9101583360003502 0 -0.84804810408105047 -0.52991925155115449 0.25 0 0 1 I I -0.70710678118654746 0.70710678118654746 0.25 forward I I I I #
loop $-1 $-1 $237 $59 #
coedge $-1 $149 $149 $238 $239 reversed $94 $-1 #
face $-1 $240 $241 $36 $-1 $242 reversed single #
loop $-1 $-1 $156 $96 #
plane-surface $-1 0 0 -11.377730973019844 0 0 1 1 0 0 forward_v I I I I #
coedge $-1 $243 $244 $245 $246 forward $97 $-1 #
coedge $-1 $245 $99 $247 $248 reversed $61 $-1 #
coedge $-1 $99 $245 $249 $250 forward $61 $-1 #
coedge $-1 $251 $252 $99 $157 forward $151 $-1 #
edge $-1 $253 -34.399744483879537 $254 34.399744483879537 $99 $255 forward 7 unknown #
face $-1 $256 $257 $37 $-1 $258 reversed single #
loop $-1 $-1 $259 $100 #
plane-surface $-1 0 34.399744483879537 0 0 -1 0 0 0 -1 forward_v I I I I #
coedge $-1 $164 $260 $261 $262 reversed $101 $-1 #
coedge $-1 $263 $103 $264 $265 reversed $64 $-1 #
coedge $-1 $103 $263 $266 $267 reversed $64 $-1 #
coedge $-1 $268 $161 $103 $165 reversed $101 $-1 #
edge $-1 $269 -34.399744483879537 $270 34.399744483879537 $164 $271 forward 7 unknown #
face $-1 $272 $273 $38 $-1 $274 reversed single #
loop $-1 $-1 $172 $104 #
plane-surface $-1 75.849949031052972 -18.373578693063294 0 0 1 0 0 0 1 forward_v I I I I #
coedge $-1 $275 $276 $171 $277 forward $105 $-1 #
coedge $-1 $278 $107 $279 $280 reversed $67 $-1 #
coedge $-1 $107 $278 $169 $277 reversed $67 $-1 #
coedge $-1 $281 $282 $107 $173 reversed $167 $-1 #
edge $-1 $283 -11.377730973019844 $284 11.377730973019844 $172 $285 forward 7 unknown #
face $-1 $286 $287 $39 $-1 $288 forward single #
loop $-1 $-1 $289 $108 #
plane-surface $-1 -42.902331848932171 -139.61540012498568 106.18047886897594 1 0 0 0 0.73135370988377701 -0.68199835119979291 forward_v I I I I #
coedge $-1 $290 $291 $292 $293 reversed $109 $-1 #
coedge $-1 $179 $111 $294 $295 reversed $70 $-1 #
coedge $-1 $111 $178 $290 $296 reversed $70 $-1 #
coedge $-1 $292 $297 $111 $181 forward $287 $-1 #
edge $-1 $298 35.407955578613304 $299 38.49685195541727 $180 $300 forward 7 unknown #
loop $-1 $-1 $187 $112 #
plane-surface $-1 -35.354164121592881 -34.399744483879545 8.0652950695489523 0 -0.73135370988377701 0.68199835119979291 1 0 0 forward_v I I I I #
loop $-1 $-1 $301 $72 #
coedge $-1 $185 $185 $186 $302 reversed $113 $-1 #
coedge $-1 $186 $186 $185 $302 forward $115 $-1 #
coedge $-1 $187 $187 $116 $188 forward $182 $-1 #
edge $-1 $303 -4.4951988266163937e-015 $303 6.283185307179596 $187 $304 forward 7 unknown #
loop $-1 $-1 $194 $117 #
plane-surface $-1 -35.354164121592881 -34.399744483879545 8.0652950695489523 0 -0.73135370988377701 0.68199835119979291 1 0 0 forward_v I I I I #
loop $-1 $-1 $305 $75 #
coedge $-1 $192 $192 $193 $306 reversed $118 $-1 #
coedge $-1 $193 $193 $192 $306 forward $120 $-1 #
coedge $-1 $194 $194 $121 $195 forward $189 $-1 #
edge $-1 $307 -4.4951988266163937e-015 $307 6.283185307179596 $194 $308 forward 7 unknown #
face $-1 $309 $310 $42 $-1 $311 reversed single #
loop $-1 $-1 $312 $122 #
plane-surface $-1 20.776254142938825 -139.61540012498568 106.18047886897594 1 0 0 0 0.73135370988377701 -0.68199835119979291 forward_v I I I I #
coedge $-1 $313 $314 $315 $316 reversed $123 $-1 #
coedge $-1 $201 $125 $317 $318 reversed $79 $-1 #
coedge $-1 $125 $200 $313 $319 reversed $79 $-1 #
coedge $-1 $315 $320 $125 $203 forward $321 $-1 #
edge $-1 $322 35.407955578613304 $323 38.49685195541727 $202 $324 forward 7 unknown #
loop $-1 $-1 $209 $126 #
plane-surface $-1 28.324421870278115 -34.399744483879545 8.0652950695489523 0 -0.73135370988377701 0.68199835119979291 1 0 0 forward_v I I I I #
loop $-1 $-1 $325 $81 #
coedge $-1 $207 $207 $208 $326 reversed $127 $-1 #
coedge $-1 $208 $208 $207 $326 forward $129 $-1 #
coedge $-1 $209 $209 $130 $210 forward $204 $-1 #
edge $-1 $327 -4.4951988266163937e-015 $327 6.283185307179596 $209 $328 forward 7 unknown #
loop $-1 $-1 $216 $131 #
plane-surface $-1 28.324421870278115 -34.399744483879545 8.0652950695489523 0 -0.73135370988377701 0.68199835119979291 1 0 0 forward_v I I I I #
loop $-1 $-1 $329 $84 #
coedge $-1 $214 $214 $215 $330 reversed $132 $-1 #
coedge $-1 $215 $215 $214 $330 forward $134 $-1 #
coedge $-1 $216 $216 $135 $217 forward $211 $-1 #
edge $-1 $331 -4.4951988266163937e-015 $331 6.283185307179596 $216 $332 forward 7 unknown #
face $-1 $333 $334 $45 $-1 $335 reversed single #
loop $-1 $-1 $336 $136 #
plane-surface $-1 64.096482442670236 119.94537835273496 138.34909763840469 -1 0 0 0 0.84804810408105047 0.52991925155115449 forward_v I I I I #
coedge $-1 $337 $338 $339 $340 reversed $137 $-1 #
coedge $-1 $223 $139 $341 $342 reversed $88 $-1 #
coedge $-1 $139 $222 $337 $343 reversed $88 $-1 #
coedge $-1 $339 $344 $139 $225 forward $345 $-1 #
edge $-1 $346 25.572944692487944 $347 30.328417222643903 $224 $348 forward 7 unknown #
loop $-1 $-1 $231 $140 #
plane-surface $-1 50.736747361609503 -2.0584292170172915 62.112660008711941 0 0.84804810408105047 0.52991925155115449 1 0 0 forward_v I I I I #
loop $-1 $-1 $349 $90 #
coedge $-1 $229 $229 $230 $350 reversed $141 $-1 #
coedge $-1 $230 $230 $229 $350 forward $143 $-1 #
coedge $-1 $231 $231 $144 $232 forward $226 $-1 #
edge $-1 $351 -9.4485272514436921e-018 $351 6.2831853071796004 $231 $352 forward 7 unknown #
loop $-1 $-1 $238 $145 #
plane-surface $-1 50.736747361609503 -2.0584292170172915 62.112660008711941 0 0.84804810408105047 0.52991925155115449 1 0 0 forward_v I I I I #
loop $-1 $-1 $353 $93 #
coedge $-1 $236 $236 $237 $354 reversed $146 $-1 #
coedge $-1 $237 $237 $236 $354 forward $148 $-1 #
coedge $-1 $238 $238 $149 $239 forward $233 $-1 #
edge $-1 $355 -9.4485272514436921e-018 $355 6.2831853071796004 $238 $356 forward 7 unknown #
face $-1 $357 $358 $36 $-1 $359 reversed single #
loop $-1 $-1 $360 $150 #
plane-surface $-1 0 -34.399744483879537 0 0 1 0 0 0 1 forward_v I I I I #
coedge $-1 $361 $153 $362 $363 forward $97 $-1 #
coedge $-1 $153 $361 $364 $365 forward $97 $-1 #
coedge $-1 $155 $154 $153 $246 reversed $61 $-1 #
edge $-1 $366 -34.399744483879537 $367 34.399744483879537 $245 $368 forward 7 unknown #
coedge $-1 $369 $362 $154 $248 forward $370 $-1 #
edge $-1 $367 -11.377730973019844 $253 11.377730973019844 $154 $371 forward 7 unknown #
coedge $-1 $364 $372 $155 $250 reversed $241 $-1 #
edge $-1 $366 -11.377730973019844 $254 11.377730973019844 $155 $373 forward 7 unknown #
coedge $-1 $374 $156 $372 $375 forward $151 $-1 #
coedge $-1 $156 $374 $369 $376 forward $151 $-1 #
vertex $-1 $157 $377 #
vertex $-1 $250 $378 #
straight-curve $-1 71.932126834925384 0 -11.377730973019844 0 -1 0 I I #
face $-1 $379 $380 $37 $-1 $381 forward single #
loop $-1 $-1 $382 $158 #
plane-surface $-1 -71.932126834925384 0 0 1 0 0 0 0 -1 forward_v I I I I #
coedge $-1 $266 $383 $268 $384 forward $159 $-1 #
coedge $-1 $161 $268 $385 $386 reversed $101 $-1 #
coedge $-1 $387 $264 $161 $262 forward $388 $-1 #
edge $-1 $270 0.76816264366780906 $389 7.3290997674572917 $261 $390 forward 7 unknown #
coedge $-1 $163 $162 $382 $391 reversed $64 $-1 #
coedge $-1 $261 $392 $162 $265 forward $388 $-1 #
edge $-1 $393 -38.133922740926103 $270 -29.46248544707246 $264 $394 forward 7 unknown #
coedge $-1 $395 $259 $163 $267 forward $159 $-1 #
edge $-1 $269 29.46248544707246 $396 38.133922740926103 $266 $397 forward 7 unknown #
coedge $-1 $260 $164 $259 $384 reversed $101 $-1 #
vertex $-1 $267 $398 #
vertex $-1 $265 $399 #
straight-curve $-1 -63.260689541071741 0 4.8167938492303595 0 -1 0 I I #
face $-1 $400 $401 $38 $-1 $402 reversed single #
loop $-1 $-1 $403 $166 #
plane-surface $-1 75.849949031052972 -13.796860627235317 0 0 -1 0 0 0 -1 forward_v I I I I #
coedge $-1 $404 $169 $405 $406 forward $105 $-1 #
coedge $-1 $169 $404 $281 $407 forward $105 $-1 #
edge $-1 $283 -18.373578693063294 $408 -13.796860627235317 $169 $409 forward 7 unknown #
coedge $-1 $171 $170 $410 $411 forward $67 $-1 #
coedge $-1 $412 $413 $170 $280 forward $414 $-1 #
edge $-1 $415 13.796860627235317 $284 18.373578693063294 $279 $416 forward 7 unknown #
coedge $-1 $417 $172 $276 $407 reversed $167 $-1 #
coedge $-1 $172 $417 $412 $418 reversed $167 $-1 #
vertex $-1 $277 $419 #
vertex $-1 $418 $420 #
straight-curve $-1 71.932126834925384 -18.373578693063294 0 0 0 1 I I #
face $-1 $-1 $421 $39 $-1 $422 reversed single #
loop $-1 $-1 $180 $174 #
plane-surface $-1 0 0 11.377730973019844 0 0 1 1 0 0 forward_v I I I I #
coedge $-1 $423 $424 $425 $426 reversed $175 $-1 #
coedge $-1 $427 $177 $179 $296 forward $109 $-1 #
coedge $-1 $177 $427 $423 $428 forward $109 $-1 #
coedge $-1 $425 $180 $177 $293 forward $287 $-1 #
edge $-1 $299 10.12891433345715 $429 25.225249788135731 $292 $430 forward 7 unknown #
coedge $-1 $431 $432 $178 $295 forward $421 $-1 #
edge $-1 $433 -45.02494436493901 $298 -41.712508461468126 $294 $434 forward 7 unknown #
edge $-1 $299 -4.5291845227629839 $433 -1.004247040074496e-014 $179 $435 forward 7 unknown #
coedge $-1 $180 $425 $431 $436 forward $287 $-1 #
vertex $-1 $181 $437 #
vertex $-1 $181 $438 #
straight-curve $-1 -27.80599639425359 -69.807700062492842 11.377730973019844 0 1 0 I I #
coedge $-1 $301 $301 $-1 $439 reversed $184 $-1 #
edge $-1 $440 0 $440 6.2831853071796004 $185 $441 forward 7 unknown #
vertex $-1 $188 $442 #
ellipse-curve $-1 -38.589093147595435 -32.855296295477551 9.7215130212844016 0 -0.73135370988377701 0.68199835119979291 0.5 0 0 1 I I #
coedge $-1 $305 $305 $-1 $443 reversed $191 $-1 #
edge $-1 $444 0 $444 6.2831853071796004 $192 $445 forward 7 unknown #
vertex $-1 $195 $446 #
ellipse-curve $-1 -32.119235095590327 -32.855296295477551 9.7215130212844016 0 -0.73135370988377701 0.68199835119979291 0.5 0 0 1 I I #
face $-1 $-1 $321 $42 $-1 $447 forward single #
loop $-1 $-1 $448 $196 #
plane-surface $-1 0 -34.399744483879537 0 0 1 0 0 0 1 forward_v I I I I #
coedge $-1 $449 $450 $451 $452 reversed $197 $-1 #
coedge $-1 $453 $199 $201 $319 forward $123 $-1 #
coedge $-1 $199 $453 $449 $454 forward $123 $-1 #
coedge $-1 $451 $202 $199 $316 forward $321 $-1 #
edge $-1 $323 -21.710378662478348 $455 -6.6140432077997673 $315 $456 forward 7 unknown #
coedge $-1 $457 $458 $200 $318 forward $310 $-1 #
edge $-1 $459 -45.02494436493901 $322 -41.712508461468126 $317 $460 forward 7 unknown #
edge $-1 $323 -4.5291845227629839 $459 -1.004247040074496e-014 $201 $461 forward 7 unknown #
coedge $-1 $202 $451 $457 $462 forward $321 $-1 #
loop $-1 $-1 $451 $309 #
vertex $-1 $318 $463 #
vertex $-1 $203 $464 #
straight-curve $-1 35.872589597617406 -69.807700062492842 11.377730973019844 0 1 0 I I #
coedge $-1 $325 $325 $-1 $465 reversed $206 $-1 #
edge $-1 $466 0 $466 6.2831853071796004 $207 $467 forward 7 unknown #
vertex $-1 $210 $468 #
ellipse-curve $-1 25.089492844275554 -32.855296295477551 9.7215130212844016 0 -0.73135370988377701 0.68199835119979291 0.5 0 0 1 I I #
coedge $-1 $329 $329 $-1 $469 reversed $213 $-1 #
edge $-1 $470 0 $470 6.2831853071796004 $214 $471 forward 7 unknown #
vertex $-1 $217 $472 #
ellipse-curve $-1 31.559350896280662 -32.855296295477551 9.7215130212844016 0 -0.73135370988377701 0.68199835119979291 0.5 0 0 1 I I #
face $-1 $-1 $345 $45 $-1 $473 forward single #
loop $-1 $-1 $474 $218 #
plane-surface $-1 0 34.399744483879537 0 0 -1 0 0 0 -1 forward_v I I I I #
coedge $-1 $475 $476 $477 $478 reversed $219 $-1 #
coedge $-1 $479 $221 $223 $343 forward $137 $-1 #
coedge $-1 $221 $479 $475 $480 forward $137 $-1 #
coedge $-1 $477 $224 $221 $340 forward $345 $-1 #
edge $-1 $347 12.008638599744017 $481 38.728108761865485 $339 $482 forward 7 unknown #
coedge $-1 $483 $484 $222 $342 forward $334 $-1 #
edge $-1 $485 -65.407164991343677 $346 -57.796817846182499 $341 $486 forward 7 unknown #
edge $-1 $347 59.825532055954234 $485 68.799488967759132 $223 $487 forward 7 unknown #
coedge $-1 $224 $477 $483 $488 forward $345 $-1 #
loop $-1 $-1 $477 $333 #
vertex $-1 $342 $489 #
vertex $-1 $225 $490 #
straight-curve $-1 37.377012280548769 59.972689176367481 11.377730973019844 0 -1 0 I I #
coedge $-1 $349 $349 $-1 $491 reversed $228 $-1 #
edge $-1 $492 0 $492 6.2831853071796004 $229 $493 forward 7 unknown #
vertex $-1 $232 $494 #
ellipse-curve $-1 45.011146612583474 32.022008218801545 7.5725574004392664 0 0.84804810408105047 0.52991925155115449 0.5 0 0 1 I I #
coedge $-1 $353 $353 $-1 $495 reversed $235 $-1 #
edge $-1 $496 0 $496 6.2831853071796004 $236 $497 forward 7 unknown #
vertex $-1 $239 $498 #
ellipse-curve $-1 56.462348110635531 32.022008218801545 7.5725574004392664 0 0.84804810408105047 0.52991925155115449 0.5 0 0 1 I I #
face $-1 $-1 $370 $36 $-1 $499 reversed single #
loop $-1 $-1 $500 $240 #
plane-surface $-1 -71.932126834925384 0 0 1 0 0 0 0 -1 forward_v I I I I #
coedge $-1 $372 $364 $501 $502 forward $241 $-1 #
coedge $-1 $244 $243 $503 $504 forward $97 $-1 #
coedge $-1 $247 $505 $243 $363 reversed $370 $-1 #
edge $-1 $367 -71.932126834925384 $506 71.932126834925384 $362 $507 forward 7 unknown #
coedge $-1 $360 $249 $244 $365 reversed $241 $-1 #
edge $-1 $508 -71.932126834925384 $366 71.932126834925384 $364 $509 forward 7 unknown #
vertex $-1 $246 $510 #
vertex $-1 $246 $511 #
straight-curve $-1 71.932126834925384 0 11.377730973019844 0 1 0 I I #
coedge $-1 $505 $247 $252 $376 reversed $370 $-1 #
loop $-1 $-1 $247 $357 #
straight-curve $-1 71.932126834925384 34.399744483879537 0 0 0 -1 I I #
coedge $-1 $249 $360 $251 $375 reversed $241 $-1 #
straight-curve $-1 71.932126834925384 -34.399744483879537 0 0 0 -1 I I #
coedge $-1 $252 $251 $512 $513 forward $151 $-1 #
edge $-1 $254 -71.932126834925384 $514 71.932126834925384 $372 $515 forward 7 unknown #
edge $-1 $516 -71.932126834925384 $253 71.932126834925384 $369 $517 forward 7 unknown #
point $-1 71.932126834925384 34.399744483879537 -11.377730973019844 #
point $-1 71.932126834925384 -34.399744483879537 -11.377730973019844 #
face $-1 $-1 $388 $37 $-1 $518 reversed single #
loop $-1 $-1 $385 $256 #
plane-surface $-1 0 0 11.377730973019844 0 0 1 1 0 0 forward_v I I I I #
coedge $-1 $519 $520 $263 $391 forward $257 $-1 #
coedge $-1 $259 $395 $521 $522 reversed $159 $-1 #
edge $-1 $523 -7.3290997674572917 $269 -0.76816264366780906 $259 $524 forward 7 unknown #
coedge $-1 $521 $525 $260 $386 forward $380 $-1 #
edge $-1 $389 -34.399744483879537 $523 34.399744483879537 $385 $526 forward 7 unknown #
coedge $-1 $392 $261 $525 $527 reversed $388 $-1 #
loop $-1 $-1 $261 $379 #
vertex $-1 $262 $528 #
straight-curve $-1 -63.260689541071741 -34.399744483879537 4.0486312055625504 0 0 1 I I #
edge $-1 $396 -34.399744483879537 $393 34.399744483879537 $382 $529 forward 7 unknown #
coedge $-1 $264 $387 $519 $530 forward $388 $-1 #
vertex $-1 $391 $531 #
straight-curve $-1 -33.798204093999281 -34.399744483879537 4.8167938492303595 1 0 0 I I #
coedge $-1 $383 $266 $520 $532 reversed $159 $-1 #
vertex $-1 $391 $533 #
straight-curve $-1 -33.798204093999281 34.399744483879537 4.8167938492303595 -1 0 0 I I #
point $-1 -63.260689541071741 34.399744483879537 4.8167938492303595 #
point $-1 -63.260689541071741 -34.399744483879537 4.8167938492303595 #
face $-1 $-1 $414 $38 $-1 $534 forward single #
loop $-1 $-1 $535 $272 #
plane-surface $-1 79.767771227180546 -16.085219660149306 0 -1 0 0 0 0 1 forward_v I I I I #
coedge $-1 $405 $536 $537 $538 forward $273 $-1 #
coedge $-1 $276 $275 $539 $540 forward $105 $-1 #
coedge $-1 $410 $403 $275 $406 reversed $273 $-1 #
edge $-1 $408 -3.9178221961275739 $541 3.9178221961275739 $405 $542 forward 7 unknown #
edge $-1 $543 -3.9178221961275739 $283 3.9178221961275739 $281 $544 forward 7 unknown #
vertex $-1 $406 $545 #
straight-curve $-1 71.932126834925384 0 -11.377730973019844 0 1 0 I I #
coedge $-1 $536 $405 $278 $411 reversed $273 $-1 #
edge $-1 $415 -11.377730973019844 $408 11.377730973019844 $410 $546 forward 7 unknown #
coedge $-1 $547 $279 $282 $418 forward $414 $-1 #
coedge $-1 $279 $547 $536 $548 forward $414 $-1 #
loop $-1 $-1 $279 $400 #
vertex $-1 $280 $549 #
straight-curve $-1 71.932126834925384 0 11.377730973019844 0 -1 0 I I #
coedge $-1 $282 $281 $535 $550 reversed $167 $-1 #
edge $-1 $284 -3.9178221961275739 $551 3.9178221961275739 $282 $552 forward 7 unknown #
point $-1 71.932126834925398 -18.373578693063294 -11.377730973019844 #
point $-1 71.932126834925398 -18.373578693063294 11.377730973019844 #
loop $-1 $-1 $294 $286 #
plane-surface $-1 0 -34.399744483879537 0 0 1 0 0 0 1 forward_v I I I I #
coedge $-1 $424 $289 $291 $428 reversed $175 $-1 #
coedge $-1 $289 $423 $553 $554 reversed $175 $-1 #
coedge $-1 $297 $292 $289 $426 forward $287 $-1 #
edge $-1 $429 -38.49685195541727 $555 -35.407955578613304 $425 $556 forward 7 unknown #
coedge $-1 $291 $290 $432 $557 reversed $109 $-1 #
edge $-1 $558 1.004247040074496e-014 $429 4.5291845227629839 $423 $559 forward 7 unknown #
vertex $-1 $293 $560 #
straight-curve $-1 -17.67708206079644 -31.310848107075572 11.377730973019844 -1 0 0 I I #
coedge $-1 $553 $294 $297 $436 reversed $421 $-1 #
coedge $-1 $294 $553 $427 $557 forward $421 $-1 #
vertex $-1 $295 $561 #
straight-curve $-1 -27.80599639425359 -34.399744483879537 53.09023943448797 0 0 1 I I #
straight-curve $-1 -27.80599639425359 -34.399744483879545 8.0652950695489523 0 -0.68199835119979291 -0.73135370988377701 I I #
edge $-1 $555 -42.902331848932171 $298 -27.80599639425359 $431 $562 forward 7 unknown #
point $-1 -27.80599639425359 -34.399744483879537 11.377730973019844 #
point $-1 -27.80599639425359 -31.310848107075568 11.377730973019844 #
edge $-1 $563 1 $563 0 $301 $-1 forward 7 unknown #
vertex $-1 $302 $564 #
ellipse-curve $-1 -38.589093147595435 -31.572575945521177 8.5253569727156595 0 -0.73135370988377701 0.68199835119979291 0.5 0 0 1 I I #
point $-1 -38.089093147595435 -32.855296295477558 9.7215130212844052 #
edge $-1 $565 1 $565 0 $305 $-1 forward 7 unknown #
vertex $-1 $306 $566 #
ellipse-curve $-1 -32.119235095590327 -31.572575945521177 8.5253569727156595 0 -0.73135370988377701 0.68199835119979291 0.5 0 0 1 I I #
point $-1 -31.619235095590327 -32.855296295477558 9.7215130212844052 #
plane-surface $-1 0 0 11.377730973019844 0 0 1 1 0 0 forward_v I I I I #
coedge $-1 $458 $457 $450 $567 forward $310 $-1 #
coedge $-1 $450 $312 $314 $454 reversed $197 $-1 #
coedge $-1 $312 $449 $448 $567 reversed $197 $-1 #
coedge $-1 $320 $315 $312 $452 forward $321 $-1 #
edge $-1 $455 -38.49685195541727 $568 -35.407955578613304 $451 $569 forward 7 unknown #
coedge $-1 $314 $313 $458 $570 reversed $123 $-1 #
edge $-1 $571 1.004247040074496e-014 $455 4.5291845227629839 $449 $572 forward 7 unknown #
vertex $-1 $316 $573 #
straight-curve $-1 14.162210935139058 -31.310848107075572 11.377730973019844 -1 0 0 I I #
coedge $-1 $448 $317 $320 $462 reversed $310 $-1 #
coedge $-1 $317 $448 $453 $570 forward $310 $-1 #
vertex $-1 $318 $574 #
straight-curve $-1 35.872589597617406 -34.399744483879537 53.09023943448797 0 0 1 I I #
straight-curve $-1 35.872589597617406 -34.399744483879545 8.0652950695489523 0 -0.68199835119979291 -0.73135370988377701 I I #
edge $-1 $568 20.776254142938825 $322 35.872589597617406 $457 $575 forward 7 unknown #
point $-1 35.872589597617406 -34.399744483879537 11.377730973019844 #
point $-1 35.872589597617406 -31.310848107075568 11.377730973019844 #
edge $-1 $576 1 $576 0 $325 $-1 forward 7 unknown #
vertex $-1 $326 $577 #
ellipse-curve $-1 25.089492844275554 -31.572575945521177 8.5253569727156595 0 -0.73135370988377701 0.68199835119979291 0.5 0 0 1 I I #
point $-1 25.589492844275554 -32.855296295477558 9.7215130212844052 #
edge $-1 $578 1 $578 0 $329 $-1 forward 7 unknown #
vertex $-1 $330 $579 #
ellipse-curve $-1 31.559350896280662 -31.572575945521177 8.5253569727156595 0 -0.73135370988377701 0.68199835119979291 0.5 0 0 1 I I #
point $-1 32.059350896280662 -32.855296295477558 9.7215130212844052 #
plane-surface $-1 0 0 11.377730973019844 0 0 1 1 0 0 forward_v I I I I #
coedge $-1 $484 $483 $476 $580 forward $334 $-1 #
coedge $-1 $476 $336 $338 $480 reversed $219 $-1 #
coedge $-1 $336 $475 $474 $580 reversed $219 $-1 #
coedge $-1 $344 $339 $336 $478 forward $345 $-1 #
edge $-1 $481 -30.328417222643903 $581 -25.572944692487944 $477 $582 forward 7 unknown #
coedge $-1 $338 $337 $484 $583 reversed $137 $-1 #
edge $-1 $584 -68.799488967759132 $481 -59.825532055954234 $475 $585 forward 7 unknown #
vertex $-1 $340 $586 #
straight-curve $-1 25.368373680804751 29.644271953723578 11.377730973019844 1 0 0 I I #
coedge $-1 $474 $341 $344 $488 reversed $334 $-1 #
coedge $-1 $341 $474 $479 $583 forward $334 $-1 #
vertex $-1 $342 $587 #
straight-curve $-1 37.377012280548769 34.399744483879537 69.174548819202343 0 0 1 I I #
straight-curve $-1 37.377012280548769 -2.0584292170172915 62.112660008711941 0 0.52991925155115449 -0.84804810408105047 I I #
edge $-1 $581 -64.096482442670236 $346 -37.377012280548769 $483 $588 forward 7 unknown #
point $-1 37.377012280548769 34.399744483879537 11.377730973019844 #
point $-1 37.377012280548769 29.644271953723578 11.377730973019844 #
edge $-1 $589 1 $589 0 $349 $-1 forward 7 unknown #
vertex $-1 $350 $590 #
ellipse-curve $-1 45.011146612583474 31.173960114720536 7.0426381488881384 0 0.84804810408105047 0.52991925155115449 0.5 0 0 1 I I #
point $-1 45.511146612583474 32.022008218801588 7.572557400439293 #
edge $-1 $591 1 $591 0 $353 $-1 forward 7 unknown #
vertex $-1 $354 $592 #
ellipse-curve $-1 56.462348110635531 31.173960114720536 7.0426381488881384 0 0.84804810408105047 0.52991925155115449 0.5 0 0 1 I I #
point $-1 56.962348110635531 32.022008218801588 7.572557400439293 #
plane-surface $-1 0 34.399744483879537 0 0 -1 0 0 0 -1 forward_v I I I I #
coedge $-1 $512 $503 $505 $593 forward $358 $-1 #
coedge $-1 $503 $512 $360 $502 reversed $358 $-1 #
edge $-1 $508 -11.377730973019844 $514 11.377730973019844 $501 $594 forward 7 unknown #
coedge $-1 $500 $501 $361 $504 reversed $358 $-1 #
edge $-1 $506 -34.399744483879537 $508 34.399744483879537 $503 $595 forward 7 unknown #
coedge $-1 $362 $369 $500 $593 reversed $370 $-1 #
vertex $-1 $363 $596 #
straight-curve $-1 0 34.399744483879537 11.377730973019844 -1 0 0 I I #
vertex $-1 $504 $597 #
straight-curve $-1 0 -34.399744483879537 11.377730973019844 1 0 0 I I #
point $-1 71.932126834925384 -34.399744483879537 11.377730973019844 #
point $-1 71.932126834925384 34.399744483879537 11.377730973019844 #
coedge $-1 $501 $500 $374 $513 reversed $358 $-1 #
edge $-1 $514 -34.399744483879537 $516 34.399744483879537 $512 $598 forward 7 unknown #
vertex $-1 $513 $599 #
straight-curve $-1 0 -34.399744483879537 -11.377730973019844 -1 0 0 I I #
vertex $-1 $376 $600 #
straight-curve $-1 0 34.399744483879537 -11.377730973019844 1 0 0 I I #
plane-surface $-1 0 -34.399744483879537 0 0 1 0 0 0 1 forward_v I I I I #
coedge $-1 $601 $382 $392 $530 reversed $257 $-1 #
coedge $-1 $382 $601 $395 $532 forward $257 $-1 #
coedge $-1 $602 $385 $383 $522 forward $380 $-1 #
edge $-1 $523 63.260689541071741 $603 71.932126834925384 $383 $604 forward 7 unknown #
vertex $-1 $522 $605 #
straight-curve $-1 -63.260689541071741 34.399744483879537 4.0486312055625504 0 0 -1 I I #
coedge $-1 $385 $602 $387 $527 forward $380 $-1 #
straight-curve $-1 -63.260689541071741 0 11.377730973019844 0 1 0 I I #
edge $-1 $606 -71.932126834925384 $389 -63.260689541071741 $387 $607 forward 7 unknown #
point $-1 -63.260689541071741 -34.399744483879537 11.377730973019842 #
straight-curve $-1 -71.932126834925384 0 4.8167938492303595 0 -1 0 I I #
edge $-1 $606 -11.377730973019844 $393 -4.8167938492303595 $519 $608 forward 7 unknown #
point $-1 -71.932126834925384 -34.399744483879537 4.8167938492303595 #
edge $-1 $603 -11.377730973019844 $396 -4.8167938492303595 $395 $609 forward 7 unknown #
point $-1 -71.932126834925384 34.399744483879537 4.8167938492303595 #
plane-surface $-1 0 0 11.377730973019844 0 0 1 1 0 0 forward_v I I I I #
coedge $-1 $539 $610 $417 $550 forward $401 $-1 #
coedge $-1 $403 $410 $413 $548 reversed $273 $-1 #
coedge $-1 $610 $539 $403 $538 reversed $401 $-1 #
edge $-1 $611 -11.377730973019844 $541 11.377730973019844 $537 $612 forward 7 unknown #
coedge $-1 $537 $535 $404 $540 reversed $401 $-1 #
edge $-1 $541 -2.2883590329139896 $543 2.2883590329139878 $539 $613 forward 7 unknown #
vertex $-1 $540 $614 #
straight-curve $-1 75.849949031052972 -13.796860627235317 -11.377730973019844 1 0 0 I I #
vertex $-1 $550 $615 #
straight-curve $-1 75.849949031052972 -18.373578693063294 -11.377730973019844 -1 0 0 I I #
point $-1 71.932126834925398 -13.796860627235317 -11.377730973019844 #
straight-curve $-1 71.932126834925384 -13.796860627235317 0 0 0 -1 I I #
coedge $-1 $413 $412 $610 $616 forward $414 $-1 #
edge $-1 $611 -3.9178221961275739 $415 3.9178221961275739 $536 $617 forward 7 unknown #
point $-1 71.932126834925398 -13.796860627235317 11.377730973019844 #
edge $-1 $551 -11.377730973019844 $543 11.377730973019844 $535 $618 forward 7 unknown #
vertex $-1 $616 $619 #
straight-curve $-1 75.849949031052972 -18.373578693063294 11.377730973019844 1 0 0 I I #
coedge $-1 $432 $431 $424 $554 forward $421 $-1 #
edge $-1 $555 41.712508461468126 $558 45.02494436493901 $553 $620 forward 7 unknown #
vertex $-1 $436 $621 #
straight-curve $-1 -42.902331848932171 -69.807700062492842 11.377730973019844 0 -1 0 I I #
edge $-1 $558 -25.225249788135731 $433 -10.12891433345715 $432 $622 forward 7 unknown #
vertex $-1 $557 $623 #
straight-curve $-1 -42.902331848932171 -34.399744483879545 8.0652950695489523 0 0.68199835119979291 0.73135370988377701 I I #
point $-1 -42.902331848932171 -31.310848107075568 11.377730973019844 #
point $-1 -27.80599639425359 -34.399744483879537 8.0652950695489594 #
straight-curve $-1 0 -34.399744483879537 11.377730973019844 1 0 0 I I #
vertex $-1 $439 $624 #
point $-1 -38.089093147595435 -31.572575945521177 8.5253569727156595 #
vertex $-1 $443 $625 #
point $-1 -31.619235095590327 -31.572575945521177 8.5253569727156595 #
edge $-1 $568 41.712508461468126 $571 45.02494436493901 $448 $626 forward 7 unknown #
vertex $-1 $462 $627 #
straight-curve $-1 20.776254142938825 -69.807700062492842 11.377730973019844 0 -1 0 I I #
edge $-1 $571 6.6140432077997673 $459 21.710378662478348 $458 $628 forward 7 unknown #
vertex $-1 $570 $629 #
straight-curve $-1 20.776254142938825 -34.399744483879545 8.0652950695489523 0 0.68199835119979291 0.73135370988377701 I I #
point $-1 20.776254142938825 -31.310848107075568 11.377730973019844 #
point $-1 35.872589597617406 -34.399744483879537 8.0652950695489594 #
straight-curve $-1 0 -34.399744483879537 11.377730973019844 1 0 0 I I #
vertex $-1 $465 $630 #
point $-1 25.589492844275554 -31.572575945521177 8.5253569727156595 #
vertex $-1 $469 $631 #
point $-1 32.059350896280662 -31.572575945521177 8.5253569727156595 #
edge $-1 $581 57.796817846182499 $584 65.407164991343677 $474 $632 forward 7 unknown #
vertex $-1 $488 $633 #
straight-curve $-1 64.096482442670236 59.972689176367481 11.377730973019844 0 1 0 I I #
edge $-1 $584 -38.728108761865485 $485 -12.008638599744017 $484 $634 forward 7 unknown #
vertex $-1 $583 $635 #
straight-curve $-1 64.096482442670236 -2.0584292170172915 62.112660008711941 0 -0.52991925155115449 0.84804810408105047 I I #
point $-1 64.096482442670236 29.644271953723578 11.377730973019844 #
point $-1 37.377012280548769 34.399744483879537 3.7673838278586587 #
straight-curve $-1 0 34.399744483879537 11.377730973019844 -1 0 0 I I #
vertex $-1 $491 $636 #
point $-1 45.511146612583474 31.173960114720536 7.0426381488881384 #
vertex $-1 $495 $637 #
point $-1 56.962348110635531 31.173960114720536 7.0426381488881384 #
edge $-1 $506 -11.377730973019844 $516 11.377730973019844 $505 $638 forward 7 unknown #
straight-curve $-1 -71.932126834925384 -34.399744483879537 0 0 0 -1 I I #
straight-curve $-1 -71.932126834925384 0 11.377730973019844 0 -1 0 I I #
point $-1 -71.932126834925384 34.399744483879537 11.377730973019844 #
point $-1 -71.932126834925384 -34.399744483879537 11.377730973019844 #
straight-curve $-1 -71.932126834925384 0 -11.377730973019844 0 1 0 I I #
point $-1 -71.932126834925384 -34.399744483879537 -11.377730973019844 #
point $-1 -71.932126834925384 34.399744483879537 -11.377730973019844 #
coedge $-1 $520 $519 $602 $639 reversed $257 $-1 #
coedge $-1 $525 $521 $601 $639 forward $380 $-1 #
vertex $-1 $522 $640 #
straight-curve $-1 0 34.399744483879537 11.377730973019844 -1 0 0 I I #
point $-1 -63.260689541071741 34.399744483879537 11.377730973019842 #
vertex $-1 $639 $641 #
straight-curve $-1 0 -34.399744483879537 11.377730973019844 1 0 0 I I #
straight-curve $-1 -71.932126834925384 -34.399744483879537 0 0 0 -1 I I #
straight-curve $-1 -71.932126834925384 34.399744483879537 0 0 0 -1 I I #
coedge $-1 $535 $537 $547 $616 reversed $401 $-1 #
vertex $-1 $616 $642 #
straight-curve $-1 79.767771227180546 -13.796860627235317 0 0 0 -1 I I #
straight-curve $-1 79.767771227180546 -16.085219660149306 -11.377730973019844 0 -1 0 I I #
point $-1 79.767771227180546 -13.796860627235317 -11.377730973019844 #
point $-1 79.767771227180546 -18.373578693063294 -11.377730973019844 #
edge $-1 $551 -2.2883590329139878 $611 2.2883590329139896 $610 $643 forward 7 unknown #
straight-curve $-1 75.849949031052972 -13.796860627235317 11.377730973019844 -1 0 0 I I #
straight-curve $-1 79.767771227180546 -18.373578693063294 0 0 0 -1 I I #
point $-1 79.767771227180546 -18.373578693063294 11.377730973019844 #
straight-curve $-1 -42.902331848932171 -34.399744483879537 53.09023943448797 0 0 -1 I I #
point $-1 -42.902331848932171 -34.399744483879537 11.377730973019844 #
straight-curve $-1 -17.67708206079644 -34.399744483879537 8.0652950695489629 1 0 0 I I #
point $-1 -42.902331848932171 -34.399744483879537 8.0652950695489594 #
point $-1 -38.589093147595435 -31.206899090579288 8.1843577971157622 #
point $-1 -32.119235095590327 -31.206899090579288 8.1843577971157622 #
straight-curve $-1 20.776254142938825 -34.399744483879537 53.09023943448797 0 0 -1 I I #
point $-1 20.776254142938825 -34.399744483879537 11.377730973019844 #
straight-curve $-1 14.162210935139058 -34.399744483879537 8.0652950695489629 1 0 0 I I #
point $-1 20.776254142938825 -34.399744483879537 8.0652950695489594 #
point $-1 25.089492844275554 -31.206899090579288 8.1843577971157622 #
point $-1 31.559350896280662 -31.206899090579288 8.1843577971157622 #
straight-curve $-1 64.096482442670236 34.399744483879537 69.174548819202343 0 0 -1 I I #
point $-1 64.096482442670236 34.399744483879537 11.377730973019844 #
straight-curve $-1 25.368373680804751 34.399744483879537 3.7673838278586622 -1 0 0 I I #
point $-1 64.096482442670236 34.399744483879537 3.7673838278586587 #
point $-1 45.011146612583474 30.749936062680014 6.777678523112562 #
point $-1 56.462348110635531 30.749936062680014 6.777678523112562 #
straight-curve $-1 -71.932126834925384 34.399744483879537 0 0 0 -1 I I #
edge $-1 $603 -34.399744483879537 $606 34.399744483879537 $601 $644 forward 7 unknown #
point $-1 -71.932126834925384 34.399744483879537 11.377730973019844 #
point $-1 -71.932126834925384 -34.399744483879537 11.377730973019844 #
point $-1 79.767771227180546 -13.796860627235317 11.377730973019844 #
straight-curve $-1 79.767771227180546 -16.085219660149306 11.377730973019844 0 1 0 I I #
straight-curve $-1 -71.932126834925384 0 11.377730973019844 0 -1 0 I I #
End-of-ACIS-data 