500 0 8 0           
7 Unknown 11 ACIS 5.0 NT 24 Fri Mar 26 20:33:22 1999 
-1 9.9999999999999995e-007 1e-010 
body $-1 $8 $-1 $9 #
body $-1 $10 $-1 $11 #
body $-1 $12 $-1 $13 #
body $-1 $14 $-1 $15 #
body $-1 $16 $-1 $17 #
body $-1 $18 $-1 $19 #
body $-1 $20 $-1 $21 #
body $-1 $22 $-1 $23 #
lump $-1 $-1 $24 $0 #
transform $-1 1 0 0 0 1 0 0 0 1 40.428479873043003 24.584419559627626 10.227739768513684 1 rotate no_reflect no_shear #
lump $-1 $-1 $25 $1 #
transform $-1 1 0 0 0 1 0 0 0 1 40.428479873043003 24.584419559627626 10.227739768513684 1 rotate no_reflect no_shear #
lump $-1 $-1 $26 $2 #
transform $-1 1 0 0 0 1 0 0 0 1 40.428479873043003 24.584419559627626 10.227739768513684 1 rotate no_reflect no_shear #
lump $-1 $-1 $27 $3 #
transform $-1 1 0 0 0 1 0 0 0 1 40.428479873043003 24.584419559627626 10.227739768513684 1 rotate no_reflect no_shear #
lump $-1 $-1 $28 $4 #
transform $-1 1 0 0 0 1 0 0 0 1 40.428479873043003 24.584419559627626 10.227739768513684 1 rotate no_reflect no_shear #
lump $-1 $-1 $29 $5 #
transform $-1 1 0 0 0 1 0 0 0 1 40.428479873043003 24.584419559627626 10.227739768513684 1 rotate no_reflect no_shear #
lump $-1 $-1 $30 $6 #
transform $-1 1 0 0 0 1 0 0 0 1 40.428479873043003 24.584419559627626 10.227739768513684 1 rotate no_reflect no_shear #
lump $-1 $-1 $31 $7 #
transform $-1 1 0 0 0 1 0 0 0 1 40.428479873043003 24.584419559627626 10.227739768513684 1 rotate no_reflect no_shear #
shell $-1 $-1 $-1 $32 $-1 $8 #
shell $-1 $-1 $-1 $33 $-1 $10 #
shell $-1 $-1 $-1 $34 $-1 $12 #
shell $-1 $-1 $-1 $35 $-1 $14 #
shell $-1 $-1 $-1 $36 $-1 $16 #
shell $-1 $-1 $-1 $37 $-1 $18 #
shell $-1 $-1 $-1 $38 $-1 $20 #
shell $-1 $-1 $-1 $39 $-1 $22 #
face $-1 $40 $41 $24 $-1 $42 forward single #
face $-1 $43 $44 $25 $-1 $45 reversed single #
face $-1 $46 $47 $26 $-1 $48 reversed single #
face $-1 $49 $50 $27 $-1 $51 reversed single #
face $-1 $52 $53 $28 $-1 $54 forward single #
face $-1 $55 $56 $29 $-1 $57 reversed single #
face $-1 $58 $59 $30 $-1 $60 forward single #
face $-1 $61 $62 $31 $-1 $63 forward single #
face $-1 $64 $65 $24 $-1 $66 reversed single #
loop $-1 $-1 $67 $32 #
plane-surface $-1 0 0 10.227739768513684 0 0 1 1 0 0 forward_v I I I I #
face $-1 $68 $69 $25 $-1 $70 reversed single #
loop $-1 $-1 $71 $33 #
plane-surface $-1 0 -20.379253780143436 5.4676129025269491 0 0 1 1 0 0 forward_v I I I I #
face $-1 $72 $73 $26 $-1 $74 reversed single #
loop $-1 $-1 $75 $34 #
plane-surface $-1 0 18.966029665152057 7.2277397685136844 0 0 1 1 0 0 forward_v I I I I #
face $-1 $76 $77 $27 $-1 $78 reversed single #
loop $-1 $-1 $79 $35 #
plane-surface $-1 -98.592109818956587 6.1542781739924983 62.780946949212208 0 1 0 -0.71933980857756763 0 0.69465836192734942 forward_v I I I I #
face $-1 $80 $81 $28 $-1 $82 forward single #
loop $-1 $83 $84 $36 #
cone-surface $-1 -37.932305564690481 9.7509589723344945 7.695313282276917 0.71933980857756763 0 -0.69465836192734942 0.69465836192734942 0 0.71933980857756763 1 I I 0 1 1 forward I I I I #
face $-1 $85 $86 $29 $-1 $87 reversed single #
loop $-1 $-1 $88 $37 #
plane-surface $-1 -1.2159319633321957 -11.982862232678499 75.498736481012998 0.85716730853699208 0 0.51503806187062418 0.51503806187062418 0 -0.85716730853699208 forward_v I I I I #
face $-1 $89 $90 $30 $-1 $91 forward single #
loop $-1 $92 $93 $38 #
cone-surface $-1 38.60279499274823 -13.779101847527389 7.8410209953761791 -0.85716730853699208 0 -0.51503806187062418 0.25751903093531209 0 -0.42858365426849604 1 I I 0 1 0.5 forward I I I I #
face $-1 $94 $95 $31 $-1 $96 forward single #
loop $-1 $97 $98 $39 #
cone-surface $-1 38.60279499274823 -10.186622617829606 7.8410209953761791 -0.85716730853699208 0 -0.51503806187062418 0.25751903093531209 0 -0.42858365426849604 1 I I 0 1 0.5 forward I I I I #
face $-1 $99 $100 $24 $-1 $101 reversed single #
loop $-1 $-1 $102 $40 #
plane-surface $-1 0 0 -10.227739768513684 0 0 1 1 0 0 forward_v I I I I #
coedge $-1 $103 $104 $105 $106 forward $41 $-1 #
face $-1 $107 $108 $25 $-1 $109 reversed single #
loop $-1 $-1 $110 $43 #
plane-surface $-1 0 -16.174088000659246 7.8476763355203172 0 -1 0 0 0 -1 forward_v I I I I #
coedge $-1 $111 $112 $113 $114 reversed $44 $-1 #
face $-1 $115 $116 $26 $-1 $117 forward single #
loop $-1 $-1 $118 $46 #
plane-surface $-1 0 13.347639770676487 8.7277397685136844 0 1 0 0 0 1 forward_v I I I I #
coedge $-1 $119 $120 $121 $122 reversed $47 $-1 #
face $-1 $123 $124 $27 $-1 $125 forward single #
loop $-1 $-1 $126 $49 #
plane-surface $-1 -40.428479873042988 9.7509589723344945 6.6129837415704742 -0.71933980857756763 0 0.69465836192734942 0.69465836192734942 0 0.71933980857756763 forward_v I I I I #
coedge $-1 $127 $128 $129 $130 reversed $50 $-1 #
face $-1 $-1 $131 $28 $-1 $132 forward single #
loop $-1 $133 $134 $52 #
cone-surface $-1 -36.821825970065163 9.7509589723344945 6.6229356285480723 0.71933980857756763 0 -0.69465836192734942 0.34732918096367471 0 0.35966990428878381 1 I I -0.70710678118654746 0.70710678118654746 0.5 forward I I I I #
loop $-1 $-1 $135 $36 #
coedge $-1 $84 $84 $136 $137 reversed $53 $-1 #
face $-1 $138 $139 $29 $-1 $140 forward single #
loop $-1 $-1 $141 $55 #
plane-surface $-1 68.092010598704249 -7.7916364646977536 117.14314831738821 0 -1 0 -0.85716730853699208 0 -0.51503806187062418 forward_v I I I I #
coedge $-1 $142 $143 $144 $145 reversed $56 $-1 #
face $-1 $-1 $146 $30 $-1 $147 forward single #
loop $-1 $148 $149 $58 #
cone-surface $-1 37.775639134594826 -13.779101847527389 7.3440156315395857 -0.85716730853699208 0 -0.51503806187062418 0.12875951546765604 0 -0.21429182713424802 1 I I -0.70710678118654746 0.70710678118654746 0.25 forward I I I I #
loop $-1 $-1 $150 $38 #
coedge $-1 $93 $93 $151 $152 reversed $59 $-1 #
face $-1 $-1 $153 $31 $-1 $154 forward single #
loop $-1 $155 $156 $61 #
cone-surface $-1 37.775639134594826 -10.186622617829606 7.3440156315395857 -0.85716730853699208 0 -0.51503806187062418 0.12875951546765604 0 -0.21429182713424802 1 I I -0.70710678118654746 0.70710678118654746 0.25 forward I I I I #
loop $-1 $-1 $157 $39 #
coedge $-1 $98 $98 $158 $159 reversed $62 $-1 #
face $-1 $160 $161 $24 $-1 $162 reversed single #
loop $-1 $-1 $163 $64 #
plane-surface $-1 0 -24.584419559627626 0 0 1 0 0 0 1 forward_v I I I I #
coedge $-1 $164 $165 $166 $167 forward $65 $-1 #
coedge $-1 $168 $67 $169 $170 forward $41 $-1 #
coedge $-1 $67 $168 $171 $172 forward $41 $-1 #
coedge $-1 $173 $174 $67 $106 reversed $175 $-1 #
edge $-1 $176 -24.584419559627626 $177 24.584419559627626 $105 $178 forward 7 unknown #
face $-1 $179 $180 $25 $-1 $181 reversed single #
loop $-1 $-1 $182 $68 #
plane-surface $-1 -40.428479873043003 0 0 1 0 0 0 0 -1 forward_v I I I I #
coedge $-1 $183 $184 $185 $186 reversed $69 $-1 #
coedge $-1 $187 $71 $188 $189 reversed $44 $-1 #
coedge $-1 $71 $187 $183 $190 forward $44 $-1 #
coedge $-1 $185 $191 $71 $114 forward $192 $-1 #
edge $-1 $193 -14.394792669555908 $194 -5.9844611105875281 $113 $195 forward 7 unknown #
face $-1 $196 $197 $26 $-1 $198 reversed single #
loop $-1 $-1 $199 $72 #
plane-surface $-1 0 0 10.227739768513684 0 0 1 1 0 0 forward_v I I I I #
coedge $-1 $200 $201 $202 $203 reversed $73 $-1 #
coedge $-1 $204 $75 $200 $205 forward $47 $-1 #
coedge $-1 $75 $204 $206 $207 reversed $47 $-1 #
coedge $-1 $208 $209 $75 $122 forward $197 $-1 #
edge $-1 $210 3.8646249381004587 $211 15.101404727051598 $121 $212 forward 7 unknown #
face $-1 $213 $214 $27 $-1 $215 forward single #
loop $-1 $-1 $129 $76 #
plane-surface $-1 0 0 10.227739768513684 0 0 1 1 0 0 forward_v I I I I #
coedge $-1 $216 $217 $218 $219 reversed $77 $-1 #
coedge $-1 $128 $79 $220 $221 reversed $50 $-1 #
coedge $-1 $79 $127 $216 $222 reversed $50 $-1 #
coedge $-1 $218 $223 $79 $130 forward $124 $-1 #
edge $-1 $224 8.8675750364352908 $225 12.358304272467315 $129 $226 forward 7 unknown #
loop $-1 $-1 $136 $80 #
plane-surface $-1 -40.428479873042988 9.7509589723344945 6.6129837415704742 -0.71933980857756763 0 0.69465836192734942 0.69465836192734942 0 0.71933980857756763 forward_v I I I I #
loop $-1 $-1 $227 $52 #
coedge $-1 $134 $134 $135 $228 reversed $81 $-1 #
coedge $-1 $135 $135 $134 $228 forward $83 $-1 #
coedge $-1 $136 $136 $84 $137 forward $131 $-1 #
edge $-1 $229 0 $229 6.2831853071796004 $136 $230 forward 7 unknown #
face $-1 $231 $232 $29 $-1 $233 forward single #
loop $-1 $-1 $234 $85 #
plane-surface $-1 0 0 10.227739768513684 0 0 1 1 0 0 forward_v I I I I #
coedge $-1 $235 $236 $237 $238 reversed $86 $-1 #
coedge $-1 $239 $88 $240 $241 reversed $56 $-1 #
coedge $-1 $88 $239 $235 $242 forward $56 $-1 #
coedge $-1 $237 $243 $88 $145 forward $244 $-1 #
edge $-1 $245 -10.182656884319996 $246 -1.8002053483585039 $144 $247 forward 7 unknown #
loop $-1 $-1 $151 $89 #
plane-surface $-1 -1.2159319633321957 -11.982862232678499 75.498736481012998 0.85716730853699208 0 0.51503806187062418 0.51503806187062418 0 -0.85716730853699208 forward_v I I I I #
loop $-1 $-1 $248 $58 #
coedge $-1 $149 $149 $150 $249 reversed $90 $-1 #
coedge $-1 $150 $150 $149 $249 forward $92 $-1 #
coedge $-1 $151 $151 $93 $152 forward $146 $-1 #
edge $-1 $250 0 $250 6.2831853071796004 $151 $251 forward 7 unknown #
loop $-1 $-1 $158 $94 #
plane-surface $-1 -1.2159319633321957 -11.982862232678499 75.498736481012998 0.85716730853699208 0 0.51503806187062418 0.51503806187062418 0 -0.85716730853699208 forward_v I I I I #
loop $-1 $-1 $252 $61 #
coedge $-1 $156 $156 $157 $253 reversed $95 $-1 #
coedge $-1 $157 $157 $156 $253 forward $97 $-1 #
coedge $-1 $158 $158 $98 $159 forward $153 $-1 #
edge $-1 $254 0 $254 6.2831853071796004 $158 $255 forward 7 unknown #
face $-1 $256 $257 $24 $-1 $258 reversed single #
loop $-1 $-1 $259 $99 #
plane-surface $-1 -40.428479873043003 0 0 1 0 0 0 0 -1 forward_v I I I I #
coedge $-1 $260 $171 $261 $262 forward $100 $-1 #
coedge $-1 $263 $102 $260 $264 forward $65 $-1 #
coedge $-1 $102 $263 $265 $266 forward $65 $-1 #
coedge $-1 $174 $173 $102 $167 reversed $175 $-1 #
edge $-1 $267 -24.584419559627626 $268 24.584419559627626 $166 $269 forward 7 unknown #
coedge $-1 $104 $103 $270 $271 forward $41 $-1 #
coedge $-1 $272 $273 $103 $170 reversed $257 $-1 #
edge $-1 $177 -40.428479873043003 $274 40.428479873043003 $169 $275 forward 7 unknown #
coedge $-1 $163 $276 $104 $172 reversed $100 $-1 #
edge $-1 $277 -40.428479873043003 $176 40.428479873043003 $171 $278 forward 7 unknown #
coedge $-1 $166 $105 $276 $279 forward $175 $-1 #
coedge $-1 $105 $166 $272 $280 reversed $175 $-1 #
loop $-1 $-1 $173 $256 #
vertex $-1 $106 $281 #
vertex $-1 $106 $282 #
straight-curve $-1 40.428479873043003 0 10.227739768513684 0 1 0 I I #
face $-1 $283 $284 $25 $-1 $285 forward single #
loop $-1 $-1 $188 $107 #
plane-surface $-1 0 -24.584419559627626 0 0 1 0 0 0 1 forward_v I I I I #
coedge $-1 $286 $287 $288 $289 forward $108 $-1 #
coedge $-1 $288 $110 $112 $190 reversed $69 $-1 #
coedge $-1 $110 $288 $290 $291 reversed $69 $-1 #
coedge $-1 $292 $113 $110 $186 forward $192 $-1 #
edge $-1 $194 1.5437747347667905 $293 6.3039016007535276 $185 $294 forward 7 unknown #
coedge $-1 $112 $111 $286 $295 reversed $44 $-1 #
coedge $-1 $296 $297 $111 $189 forward $180 $-1 #
edge $-1 $298 -40.428479873043003 $193 40.428479873043003 $188 $299 forward 7 unknown #
edge $-1 $300 -40.428479873043003 $194 40.428479873043003 $183 $301 forward 7 unknown #
coedge $-1 $113 $292 $296 $302 forward $192 $-1 #
loop $-1 $-1 $185 $283 #
vertex $-1 $189 $303 #
vertex $-1 $114 $304 #
straight-curve $-1 40.428479873043003 -10.189626890071718 5.4676129025269491 0 1 0 I I #
face $-1 $305 $306 $26 $-1 $307 reversed single #
loop $-1 $-1 $209 $115 #
plane-surface $-1 40.428479873043003 0 0 -1 0 0 0 0 1 forward_v I I I I #
coedge $-1 $308 $309 $201 $310 forward $116 $-1 #
coedge $-1 $311 $118 $119 $205 reversed $73 $-1 #
coedge $-1 $118 $311 $199 $310 reversed $73 $-1 #
coedge $-1 $312 $313 $118 $203 forward $306 $-1 #
edge $-1 $314 2.8638698842568422 $315 5.8638698842568422 $202 $316 forward 7 unknown #
coedge $-1 $120 $119 $313 $317 reversed $47 $-1 #
edge $-1 $210 -40.428479873043003 $314 40.428479873043003 $200 $318 forward 7 unknown #
coedge $-1 $319 $320 $120 $207 forward $321 $-1 #
edge $-1 $211 -40.428479873043003 $322 40.428479873043003 $206 $323 forward 7 unknown #
coedge $-1 $324 $121 $320 $325 reversed $197 $-1 #
coedge $-1 $121 $324 $311 $326 forward $197 $-1 #
vertex $-1 $122 $327 #
vertex $-1 $207 $328 #
straight-curve $-1 40.428479873043003 9.4830148325760284 7.2277397685136844 0 1 0 I I #
face $-1 $-1 $329 $27 $-1 $330 reversed single #
loop $-1 $-1 $331 $123 #
plane-surface $-1 0 13.347639770676487 8.7277397685136844 0 1 0 0 0 1 forward_v I I I I #
coedge $-1 $332 $126 $128 $222 forward $77 $-1 #
coedge $-1 $126 $332 $331 $333 forward $77 $-1 #
coedge $-1 $334 $129 $126 $219 forward $124 $-1 #
edge $-1 $225 1.2787986878252511 $335 8.4721602845092399 $218 $336 forward 7 unknown #
coedge $-1 $337 $338 $127 $221 forward $329 $-1 #
edge $-1 $339 -24.777489733035644 $224 -21.162733706092418 $220 $340 forward 7 unknown #
edge $-1 $225 -5.0251021615098415 $339 2.0733024663016622e-014 $128 $341 forward 7 unknown #
coedge $-1 $129 $334 $337 $342 forward $124 $-1 #
vertex $-1 $221 $343 #
vertex $-1 $130 $344 #
straight-curve $-1 -49.296054909478293 6.1542781739924983 10.227739768513686 1 0 0 I I #
coedge $-1 $227 $227 $-1 $345 reversed $133 $-1 #
edge $-1 $346 0 $346 6.2831853071796004 $134 $347 forward 7 unknown #
vertex $-1 $137 $348 #
ellipse-curve $-1 -38.683115255026991 9.7509589723344945 8.4203617550420695 -0.71933980857756763 0 0.69465836192734942 0.69465836192734942 0 0.71933980857756763 1 I I #
face $-1 $-1 $244 $29 $-1 $349 reversed single #
loop $-1 $-1 $240 $138 #
plane-surface $-1 0 -16.174088000659246 7.8476763355203172 0 -1 0 0 0 -1 forward_v I I I I #
coedge $-1 $350 $351 $236 $352 forward $139 $-1 #
coedge $-1 $236 $141 $143 $242 reversed $86 $-1 #
coedge $-1 $141 $235 $234 $352 reversed $86 $-1 #
coedge $-1 $353 $144 $141 $238 forward $244 $-1 #
edge $-1 $246 -52.380780239717538 $354 -48.343834390180419 $237 $355 forward 7 unknown #
coedge $-1 $143 $142 $350 $356 reversed $56 $-1 #
coedge $-1 $357 $358 $142 $241 forward $232 $-1 #
edge $-1 $359 46.840059745140621 $245 51.549695552912333 $240 $360 forward 7 unknown #
edge $-1 $361 76.147323938314287 $246 80.856959746085991 $235 $362 forward 7 unknown #
coedge $-1 $144 $353 $357 $363 forward $244 $-1 #
loop $-1 $-1 $237 $231 #
vertex $-1 $241 $364 #
vertex $-1 $145 $365 #
straight-curve $-1 40.428479873043003 -5.9914311163392497 6.1907939189765742 0 1 0 I I #
coedge $-1 $248 $248 $-1 $366 reversed $148 $-1 #
edge $-1 $367 0 $367 6.2831853071796004 $149 $368 forward 7 unknown #
vertex $-1 $152 $369 #
ellipse-curve $-1 39.215659023767387 -13.779101847527389 8.2092668437451177 0.85716730853699208 0 0.51503806187062418 0.25751903093531209 0 -0.42858365426849604 1 I I #
coedge $-1 $252 $252 $-1 $370 reversed $155 $-1 #
edge $-1 $371 0 $371 6.2831853071796004 $156 $372 forward 7 unknown #
vertex $-1 $159 $373 #
ellipse-curve $-1 39.215659023767387 -10.186622617829606 8.2092668437451177 0.85716730853699208 0 0.51503806187062418 0.25751903093531209 0 -0.42858365426849604 1 I I #
face $-1 $-1 $175 $24 $-1 $374 reversed single #
loop $-1 $-1 $272 $160 #
plane-surface $-1 0 24.584419559627626 0 0 -1 0 0 0 -1 forward_v I I I I #
coedge $-1 $375 $270 $273 $376 forward $161 $-1 #
coedge $-1 $276 $163 $164 $264 reversed $100 $-1 #
coedge $-1 $270 $375 $163 $262 reversed $161 $-1 #
edge $-1 $277 -10.227739768513684 $377 10.227739768513684 $261 $378 forward 7 unknown #
coedge $-1 $165 $164 $375 $379 forward $65 $-1 #
edge $-1 $268 -40.428479873043003 $377 40.428479873043003 $260 $380 forward 7 unknown #
coedge $-1 $273 $272 $165 $266 reversed $257 $-1 #
edge $-1 $381 -40.428479873043003 $267 40.428479873043003 $265 $382 forward 7 unknown #
vertex $-1 $167 $383 #
vertex $-1 $279 $384 #
straight-curve $-1 40.428479873043003 0 -10.227739768513684 0 -1 0 I I #
coedge $-1 $259 $261 $168 $271 reversed $161 $-1 #
edge $-1 $274 -24.584419559627626 $277 24.584419559627626 $270 $385 forward 7 unknown #
coedge $-1 $265 $169 $174 $280 forward $257 $-1 #
coedge $-1 $169 $265 $259 $376 reversed $257 $-1 #
vertex $-1 $170 $386 #
straight-curve $-1 0 24.584419559627626 10.227739768513684 -1 0 0 I I #
coedge $-1 $171 $260 $173 $279 reversed $100 $-1 #
vertex $-1 $271 $387 #
straight-curve $-1 0 -24.584419559627626 10.227739768513684 1 0 0 I I #
edge $-1 $176 -10.227739768513684 $268 10.227739768513684 $173 $388 forward 7 unknown #
edge $-1 $177 -10.227739768513684 $267 10.227739768513684 $174 $389 forward 7 unknown #
point $-1 40.428479873043003 -24.584419559627626 10.227739768513684 #
point $-1 40.428479873043003 24.584419559627626 10.227739768513684 #
face $-1 $-1 $192 $25 $-1 $390 reversed single #
loop $-1 $-1 $290 $179 #
plane-surface $-1 0 0 10.227739768513684 0 0 1 1 0 0 forward_v I I I I #
coedge $-1 $391 $182 $187 $295 forward $108 $-1 #
coedge $-1 $182 $391 $392 $393 reversed $108 $-1 #
coedge $-1 $184 $183 $182 $289 reversed $69 $-1 #
edge $-1 $394 -6.3039016007535276 $300 -1.5437747347667905 $182 $395 forward 7 unknown #
coedge $-1 $392 $396 $184 $291 forward $284 $-1 #
edge $-1 $293 -40.428479873043003 $394 40.428479873043003 $290 $397 forward 7 unknown #
coedge $-1 $191 $185 $396 $398 reversed $192 $-1 #
vertex $-1 $186 $399 #
straight-curve $-1 40.428479873043003 -16.174088000659246 3.9238381677601586 0 0 1 I I #
edge $-1 $300 5.9844611105875281 $298 14.394792669555908 $286 $400 forward 7 unknown #
coedge $-1 $401 $188 $191 $302 reversed $180 $-1 #
coedge $-1 $188 $401 $391 $402 forward $180 $-1 #
vertex $-1 $189 $403 #
straight-curve $-1 0 -24.584419559627626 5.4676129025269491 1 0 0 I I #
vertex $-1 $295 $404 #
straight-curve $-1 0 -16.174088000659246 5.4676129025269491 1 0 0 I I #
edge $-1 $405 -10.227739768513684 $193 -5.4676129025269491 $191 $406 forward 7 unknown #
point $-1 40.428479873043003 -24.584419559627626 5.4676129025269491 #
point $-1 40.428479873043003 -16.174088000659246 5.4676129025269491 #
face $-1 $-1 $321 $26 $-1 $407 reversed single #
loop $-1 $-1 $202 $196 #
plane-surface $-1 -40.428479873043003 0 0 1 0 0 0 0 -1 forward_v I I I I #
coedge $-1 $408 $199 $324 $409 forward $116 $-1 #
coedge $-1 $199 $408 $312 $410 forward $116 $-1 #
edge $-1 $315 -40.428479873043003 $411 40.428479873043003 $199 $412 forward 7 unknown #
coedge $-1 $201 $200 $209 $326 reversed $73 $-1 #
coedge $-1 $413 $202 $309 $410 reversed $306 $-1 #
coedge $-1 $202 $413 $204 $317 forward $306 $-1 #
vertex $-1 $317 $414 #
vertex $-1 $203 $415 #
straight-curve $-1 -40.428479873043003 13.347639770676487 4.3638698842568422 0 0 1 I I #
edge $-1 $322 -15.101404727051598 $314 -3.8646249381004587 $313 $416 forward 7 unknown #
straight-curve $-1 0 13.347639770676487 7.2277397685136844 -1 0 0 I I #
coedge $-1 $417 $206 $413 $418 reversed $321 $-1 #
coedge $-1 $206 $417 $208 $325 forward $321 $-1 #
loop $-1 $-1 $206 $305 #
vertex $-1 $207 $419 #
straight-curve $-1 0 24.584419559627626 7.2277397685136844 -1 0 0 I I #
coedge $-1 $209 $208 $308 $409 reversed $197 $-1 #
edge $-1 $420 -10.227739768513684 $211 -7.2277397685136844 $208 $421 forward 7 unknown #
edge $-1 $411 -5.8638698842568422 $210 -2.8638698842568422 $209 $422 forward 7 unknown #
point $-1 40.428479873043003 13.347639770676487 7.2277397685136844 #
point $-1 40.428479873043003 24.584419559627626 7.2277397685136844 #
loop $-1 $-1 $220 $213 #
plane-surface $-1 -40.428479873043003 0 0 1 0 0 0 0 -1 forward_v I I I I #
coedge $-1 $423 $424 $217 $333 reversed $214 $-1 #
coedge $-1 $217 $216 $338 $425 reversed $77 $-1 #
edge $-1 $426 -2.0733024663016622e-014 $335 5.0251021615098415 $331 $427 forward 7 unknown #
coedge $-1 $223 $218 $424 $428 forward $124 $-1 #
vertex $-1 $428 $429 #
straight-curve $-1 -36.937750637010978 4.8754794861672472 10.227739768513684 0 1 0 I I #
coedge $-1 $430 $220 $223 $342 reversed $329 $-1 #
coedge $-1 $220 $430 $332 $425 forward $329 $-1 #
vertex $-1 $221 $431 #
straight-curve $-1 -40.428479873043003 6.1542781739924983 31.390473474606104 0 0 1 I I #
straight-curve $-1 -40.428479873042988 6.1542781739924983 6.6129837415704742 -0.69465836192734942 0 -0.71933980857756763 I I #
edge $-1 $432 -13.347639770676487 $224 -6.1542781739924983 $337 $433 forward 7 unknown #
point $-1 -40.428479873043003 6.1542781739924983 10.227739768513684 #
point $-1 -36.937750637010978 6.1542781739924983 10.227739768513684 #
edge $-1 $434 1 $434 0 $227 $-1 forward 7 unknown #
vertex $-1 $228 $435 #
ellipse-curve $-1 -37.181495874353949 9.7509589723344945 6.9702648095117468 -0.71933980857756763 0 0.69465836192734942 0.69465836192734942 0 0.71933980857756763 1 I I #
point $-1 -37.988456893099659 9.7509589723344945 9.1397015636196546 #
plane-surface $-1 40.428479873043003 0 0 -1 0 0 0 0 1 forward_v I I I I #
coedge $-1 $436 $234 $239 $356 forward $139 $-1 #
coedge $-1 $234 $436 $353 $437 forward $139 $-1 #
edge $-1 $354 -6.3824745736908781 $361 -3.9568328751396464 $234 $438 forward 7 unknown #
coedge $-1 $243 $237 $351 $437 reversed $244 $-1 #
vertex $-1 $238 $439 #
straight-curve $-1 40.428479873043003 -7.7916364646977536 58.571574158694105 0 0 1 I I #
edge $-1 $361 1.8002053483585039 $359 10.182656884319996 $350 $440 forward 7 unknown #
coedge $-1 $358 $240 $243 $363 reversed $232 $-1 #
coedge $-1 $240 $357 $436 $441 reversed $232 $-1 #
vertex $-1 $441 $442 #
straight-curve $-1 13.878424585450302 -16.174088000659246 50.37750771196778 0.51503806187062429 0 -0.85716730853699219 I I #
vertex $-1 $356 $443 #
straight-curve $-1 -1.2159319633321957 -7.7916364646977536 75.498736481012998 0.51503806187062418 0 -0.85716730853699208 I I #
edge $-1 $444 -6.3039016007535276 $245 -2.2669557512164102 $243 $445 forward 7 unknown #
point $-1 40.428479873043003 -16.174088000659246 6.1907939189765688 #
point $-1 40.428479873043003 -7.7916364646977536 6.1907939189765671 #
edge $-1 $446 1 $446 0 $248 $-1 forward 7 unknown #
vertex $-1 $249 $447 #
ellipse-curve $-1 37.989930961729073 -13.779101847527389 7.4727751470072414 0.85716730853699208 0 0.51503806187062418 0.25751903093531209 0 -0.42858365426849604 1 I I #
point $-1 39.473178054702693 -13.779101847527389 7.7806831894766209 #
edge $-1 $448 1 $448 0 $252 $-1 forward 7 unknown #
vertex $-1 $253 $449 #
ellipse-curve $-1 37.989930961729073 -10.186622617829606 7.4727751470072414 0.85716730853699208 0 0.51503806187062418 0.25751903093531209 0 -0.42858365426849604 1 I I #
point $-1 39.473178054702693 -10.186622617829606 7.7806831894766209 #
plane-surface $-1 40.428479873043003 0 0 -1 0 0 0 0 1 forward_v I I I I #
coedge $-1 $261 $259 $263 $379 reversed $161 $-1 #
edge $-1 $274 -10.227739768513684 $381 10.227739768513684 $273 $450 forward 7 unknown #
vertex $-1 $379 $451 #
straight-curve $-1 -40.428479873043003 -24.584419559627626 0 0 0 -1 I I #
edge $-1 $377 -24.584419559627626 $381 24.584419559627626 $375 $452 forward 7 unknown #
straight-curve $-1 0 -24.584419559627626 -10.227739768513684 -1 0 0 I I #
vertex $-1 $266 $453 #
straight-curve $-1 0 24.584419559627626 -10.227739768513684 1 0 0 I I #
point $-1 40.428479873043003 24.584419559627626 -10.227739768513684 #
point $-1 40.428479873043003 -24.584419559627626 -10.227739768513684 #
straight-curve $-1 -40.428479873043003 0 10.227739768513684 0 -1 0 I I #
point $-1 -40.428479873043003 24.584419559627626 10.227739768513684 #
point $-1 -40.428479873043003 -24.584419559627626 10.227739768513684 #
straight-curve $-1 40.428479873043003 -24.584419559627626 0 0 0 -1 I I #
straight-curve $-1 40.428479873043003 24.584419559627626 0 0 0 -1 I I #
plane-surface $-1 40.428479873043003 0 0 -1 0 0 0 0 1 forward_v I I I I #
coedge $-1 $287 $286 $297 $402 reversed $108 $-1 #
coedge $-1 $454 $290 $287 $393 forward $284 $-1 #
edge $-1 $394 16.174088000659246 $455 24.584419559627626 $287 $456 forward 7 unknown #
vertex $-1 $393 $457 #
straight-curve $-1 -40.428479873043003 -16.174088000659246 3.9238381677601586 0 0 -1 I I #
coedge $-1 $290 $454 $292 $398 forward $284 $-1 #
straight-curve $-1 0 -16.174088000659246 10.227739768513684 -1 0 0 I I #
edge $-1 $405 -24.584419559627626 $293 -16.174088000659246 $292 $458 forward 7 unknown #
point $-1 40.428479873043003 -16.174088000659246 10.227739768513686 #
straight-curve $-1 -40.428479873043003 -10.189626890071718 5.4676129025269491 0 -1 0 I I #
coedge $-1 $297 $296 $454 $459 reversed $180 $-1 #
edge $-1 $455 -10.227739768513684 $298 -5.4676129025269491 $391 $460 forward 7 unknown #
point $-1 -40.428479873043003 -24.584419559627626 5.4676129025269491 #
point $-1 -40.428479873043003 -16.174088000659246 5.4676129025269491 #
vertex $-1 $398 $461 #
straight-curve $-1 40.428479873043003 -24.584419559627626 0 0 0 -1 I I #
plane-surface $-1 0 24.584419559627626 0 0 -1 0 0 0 -1 forward_v I I I I #
coedge $-1 $309 $308 $417 $462 forward $116 $-1 #
edge $-1 $411 13.347639770676487 $420 24.584419559627626 $324 $463 forward 7 unknown #
edge $-1 $464 -24.584419559627626 $315 -13.347639770676487 $312 $465 forward 7 unknown #
vertex $-1 $409 $466 #
straight-curve $-1 0 13.347639770676487 10.227739768513684 1 0 0 I I #
coedge $-1 $313 $312 $319 $418 forward $306 $-1 #
point $-1 -40.428479873043003 13.347639770676487 7.2277397685136844 #
point $-1 -40.428479873043003 13.347639770676487 10.227739768513684 #
straight-curve $-1 -40.428479873043003 9.4830148325760284 7.2277397685136844 0 -1 0 I I #
coedge $-1 $320 $319 $408 $462 reversed $321 $-1 #
edge $-1 $464 -10.227739768513684 $322 -7.2277397685136844 $319 $467 forward 7 unknown #
point $-1 -40.428479873043003 24.584419559627626 7.2277397685136844 #
vertex $-1 $409 $468 #
straight-curve $-1 40.428479873043003 24.584419559627626 0 0 0 -1 I I #
straight-curve $-1 40.428479873043003 13.347639770676487 4.3638698842568422 0 0 -1 I I #
coedge $-1 $424 $331 $430 $469 reversed $214 $-1 #
coedge $-1 $331 $423 $334 $428 reversed $214 $-1 #
edge $-1 $426 -8.4721602845092434 $339 -1.2787986878252511 $338 $470 forward 7 unknown #
vertex $-1 $469 $471 #
straight-curve $-1 -40.428479873042988 13.347639770676491 6.6129837415704742 0.69465836192734942 0 0.71933980857756763 I I #
edge $-1 $335 36.937750637010978 $432 40.428479873043003 $334 $472 forward 7 unknown #
point $-1 -36.937750637010978 13.347639770676487 10.227739768513684 #
coedge $-1 $338 $337 $423 $469 forward $329 $-1 #
point $-1 -40.428479873043003 6.1542781739924983 6.6129837415704591 #
vertex $-1 $342 $473 #
straight-curve $-1 -40.428479873043003 0 10.227739768513684 0 -1 0 I I #
vertex $-1 $345 $474 #
point $-1 -36.486837512426597 9.7509589723344945 7.6896046180893141 #
coedge $-1 $351 $350 $358 $441 forward $139 $-1 #
edge $-1 $444 -16.174088000659246 $354 -7.7916364646977536 $353 $475 forward 7 unknown #
straight-curve $-1 34.046005299352124 -7.7916364646977536 10.227739768513686 -1 0 0 I I #
point $-1 40.428479873043003 -7.7916364646977536 10.227739768513684 #
straight-curve $-1 38.002838174491771 -5.9914311163392497 10.227739768513679 0 -1 0 I I #
edge $-1 $359 38.002838174491771 $444 40.428479873043003 $436 $476 forward 7 unknown #
point $-1 38.002838174491771 -16.174088000659246 10.227739768513686 #
point $-1 38.002838174491771 -7.7916364646977536 10.227739768513686 #
vertex $-1 $437 $477 #
straight-curve $-1 40.428479873043003 -16.174088000659246 3.9238381677601586 0 0 -1 I I #
vertex $-1 $366 $478 #
point $-1 38.247449992664386 -13.779101847527389 7.0441914927387455 #
vertex $-1 $370 $479 #
point $-1 38.247449992664386 -10.186622617829606 7.0441914927387455 #
straight-curve $-1 -40.428479873043003 24.584419559627626 0 0 0 -1 I I #
point $-1 -40.428479873043003 -24.584419559627626 -10.227739768513684 #
straight-curve $-1 -40.428479873043003 0 -10.227739768513684 0 1 0 I I #
point $-1 -40.428479873043003 24.584419559627626 -10.227739768513684 #
coedge $-1 $396 $392 $401 $459 forward $284 $-1 #
vertex $-1 $393 $480 #
straight-curve $-1 -40.428479873043003 0 10.227739768513684 0 -1 0 I I #
point $-1 -40.428479873043003 -16.174088000659246 10.227739768513686 #
straight-curve $-1 40.428479873043003 0 10.227739768513684 0 1 0 I I #
edge $-1 $455 -40.428479873043003 $405 40.428479873043003 $401 $481 forward 7 unknown #
straight-curve $-1 -40.428479873043003 -24.584419559627626 0 0 0 -1 I I #
point $-1 40.428479873043003 -24.584419559627626 10.227739768513684 #
edge $-1 $420 -40.428479873043003 $464 40.428479873043003 $417 $482 forward 7 unknown #
straight-curve $-1 40.428479873043003 0 10.227739768513684 0 1 0 I I #
vertex $-1 $462 $483 #
straight-curve $-1 -40.428479873043003 0 10.227739768513684 0 -1 0 I I #
point $-1 40.428479873043003 13.347639770676487 10.227739768513684 #
straight-curve $-1 -40.428479873043003 24.584419559627626 0 0 0 -1 I I #
point $-1 40.428479873043003 24.584419559627626 10.227739768513684 #
edge $-1 $432 21.162733706092418 $426 24.777489733035644 $430 $484 forward 7 unknown #
straight-curve $-1 -40.428479873043003 4.8754794861672472 6.6129837415704609 0 -1 0 I I #
point $-1 -40.428479873043003 13.347639770676491 6.6129837415704591 #
straight-curve $-1 0 13.347639770676487 10.227739768513684 -1 0 0 I I #
point $-1 -40.428479873043003 13.347639770676487 10.227739768513684 #
point $-1 -36.462156065776377 9.7509589723344945 6.2756064475843978 #
straight-curve $-1 40.428479873043003 0 10.227739768513684 0 1 0 I I #
straight-curve $-1 0 -16.174088000659246 10.227739768513684 1 0 0 I I #
point $-1 40.428479873043003 -16.174088000659246 10.227739768513686 #
point $-1 37.561347307460579 -13.779101847527389 7.21525611607193 #
point $-1 37.561347307460579 -10.186622617829606 7.21525611607193 #
point $-1 -40.428479873043003 -24.584419559627626 10.227739768513684 #
straight-curve $-1 0 -24.584419559627626 10.227739768513684 1 0 0 I I #
straight-curve $-1 0 24.584419559627626 10.227739768513684 -1 0 0 I I #
point $-1 -40.428479873043003 24.584419559627626 10.227739768513684 #
straight-curve $-1 -40.428479873043003 13.347639770676491 31.390473474606104 0 0 -1 I I #
End-of-ACIS-data 