500 0 12 0           
7 Unknown 11 ACIS 5.0 NT 24 Fri Mar 26 14:27:15 1999 
-1 9.9999999999999995e-007 1e-010 
body $-1 $12 $-1 $13 #
body $-1 $14 $-1 $15 #
body $-1 $16 $-1 $17 #
body $-1 $18 $-1 $19 #
body $-1 $20 $-1 $21 #
body $-1 $22 $-1 $23 #
body $-1 $24 $-1 $25 #
body $-1 $26 $-1 $27 #
body $-1 $28 $-1 $29 #
body $-1 $30 $-1 $31 #
body $-1 $32 $-1 $33 #
body $-1 $34 $-1 $35 #
lump $-1 $-1 $36 $0 #
transform $-1 1 0 0 0 1 0 0 0 1 68.03430280465102 38.560938390993933 9.7079607247787791 1 rotate no_reflect no_shear #
lump $-1 $-1 $37 $1 #
transform $-1 1 0 0 0 1 0 0 0 1 4.8898648865443386 38.560938390993933 15.715275401180996 1 rotate no_reflect no_shear #
lump $-1 $-1 $38 $2 #
transform $-1 1 0 0 0 0.57357642473473569 0.81915205242281985 0 -0.81915205242281985 0.57357642473473569 126.71169718584652 -111.460877555171 89.207604919629773 1 rotate no_reflect no_shear #
lump $-1 $-1 $39 $3 #
transform $-1 1 0 0 0 -0.57357642473473569 -0.81915205242281985 0 0.81915205242281985 -0.57357642473473569 121.0975521317732 5.1903945291079836 13.677981844653434 1 rotate no_reflect no_shear #
lump $-1 $-1 $40 $4 #
transform $-1 1 0 0 0 -0.57357642473473569 -0.81915205242281985 0 0.81915205242281985 -0.57357642473473569 126.7116971858465 5.1903945291079836 13.677981844653434 1 rotate no_reflect no_shear #
lump $-1 $-1 $41 $5 #
transform $-1 1 0 0 0 -0.57357642473473569 -0.81915205242281985 0 0.81915205242281985 -0.57357642473473569 132.32584223991981 5.1903945291079836 13.677981844653434 1 rotate no_reflect no_shear #
lump $-1 $-1 $42 $6 #
transform $-1 1 0 0 0 0.49999998660252726 -0.86602541151947299 0 0.86602541151947299 0.49999998660252726 58.367724212082031 156.39980959190882 145.84195534656965 1 rotate no_reflect no_shear #
lump $-1 $-1 $43 $7 #
transform $-1 1 0 0 0 -0.49999998660252726 0.86602541151947299 0 -0.86602541151947299 -0.49999998660252726 52.12924843531917 69.905000219117255 12.449998484815886 1 rotate no_reflect no_shear #
lump $-1 $-1 $44 $8 #
transform $-1 1 0 0 0 -0.49999998660252726 0.86602541151947299 0 -0.86602541151947299 -0.49999998660252726 64.606199988844878 69.905000219117255 12.449998484815886 1 rotate no_reflect no_shear #
lump $-1 $-1 $45 $9 #
transform $-1 1 0 0 0 0.49999998660252726 -0.86602541151947299 0 0.86602541151947299 0.49999998660252726 87.480611170308691 156.39980959190882 145.84195534656965 1 rotate no_reflect no_shear #
lump $-1 $-1 $46 $10 #
transform $-1 1 0 0 0 -0.49999998660252726 0.86602541151947299 0 -0.86602541151947299 -0.49999998660252726 81.242135393545823 69.905000219117255 12.449998484815886 1 rotate no_reflect no_shear #
lump $-1 $-1 $47 $11 #
transform $-1 1 0 0 0 -0.49999998660252726 0.86602541151947299 0 -0.86602541151947299 -0.49999998660252726 93.719086947071531 69.905000219117255 12.449998484815886 1 rotate no_reflect no_shear #
shell $-1 $-1 $-1 $48 $-1 $12 #
shell $-1 $-1 $-1 $49 $-1 $14 #
shell $-1 $-1 $-1 $50 $-1 $16 #
shell $-1 $-1 $-1 $51 $-1 $18 #
shell $-1 $-1 $-1 $52 $-1 $20 #
shell $-1 $-1 $-1 $53 $-1 $22 #
shell $-1 $-1 $-1 $54 $-1 $24 #
shell $-1 $-1 $-1 $55 $-1 $26 #
shell $-1 $-1 $-1 $56 $-1 $28 #
shell $-1 $-1 $-1 $57 $-1 $30 #
shell $-1 $-1 $-1 $58 $-1 $32 #
shell $-1 $-1 $-1 $59 $-1 $34 #
face $-1 $60 $61 $36 $-1 $62 forward single #
face $-1 $63 $64 $37 $-1 $65 forward single #
face $-1 $66 $67 $38 $-1 $68 forward single #
face $-1 $69 $70 $39 $-1 $71 forward single #
face $-1 $72 $73 $40 $-1 $74 forward single #
face $-1 $75 $76 $41 $-1 $77 forward single #
face $-1 $78 $79 $42 $-1 $80 forward single #
face $-1 $81 $82 $43 $-1 $83 forward single #
face $-1 $84 $85 $44 $-1 $86 forward single #
face $-1 $87 $88 $45 $-1 $89 forward single #
face $-1 $90 $91 $46 $-1 $92 forward single #
face $-1 $93 $94 $47 $-1 $95 forward single #
face $-1 $96 $97 $36 $-1 $98 reversed single #
loop $-1 $-1 $99 $48 #
plane-surface $-1 0 0 9.7079607247787791 0 0 1 1 0 0 forward_v I I I I #
face $-1 $100 $101 $37 $-1 $102 reversed single #
loop $-1 $-1 $103 $49 #
plane-surface $-1 0 0 2.6846731805652917 0 0 1 1 0 0 forward_v I I I I #
face $-1 $104 $105 $38 $-1 $106 reversed single #
loop $-1 $-1 $107 $50 #
plane-surface $-1 0 0 136.06860560930204 0 0 1 1 0 0 forward_v I I I I #
face $-1 $108 $109 $39 $-1 $110 forward single #
loop $-1 $111 $112 $51 #
cone-surface $-1 0 0 -1.7792672505874805 0 0 1 1.5 0 0 1 I I 0 1 1.5 forward I I I I #
face $-1 $113 $114 $40 $-1 $115 forward single #
loop $-1 $116 $117 $52 #
cone-surface $-1 0 0 -1.7792672505874805 0 0 1 1.5 0 0 1 I I 0 1 1.5 forward I I I I #
face $-1 $118 $119 $41 $-1 $120 forward single #
loop $-1 $121 $122 $53 #
cone-surface $-1 0 0 -1.7792672505874805 0 0 1 1.5 0 0 1 I I 0 1 1.5 forward I I I I #
face $-1 $123 $124 $42 $-1 $125 reversed single #
loop $-1 $-1 $126 $54 #
plane-surface $-1 0 0 136.06860560930204 0 0 1 1 0 0 forward_v I I I I #
face $-1 $127 $128 $43 $-1 $129 forward single #
loop $-1 $130 $131 $55 #
cone-surface $-1 0 0 -3.2670369579149758 0 0 1 2 0 0 1 I I 0 1 2 forward I I I I #
face $-1 $132 $133 $44 $-1 $134 forward single #
loop $-1 $135 $136 $56 #
cone-surface $-1 0 0 -3.2670369579149758 0 0 1 2 0 0 1 I I 0 1 2 forward I I I I #
face $-1 $137 $138 $45 $-1 $139 reversed single #
loop $-1 $-1 $140 $57 #
plane-surface $-1 0 0 136.06860560930204 0 0 1 1 0 0 forward_v I I I I #
face $-1 $141 $142 $46 $-1 $143 forward single #
loop $-1 $144 $145 $58 #
cone-surface $-1 0 0 -3.2670369579149758 0 0 1 2 0 0 1 I I 0 1 2 forward I I I I #
face $-1 $146 $147 $47 $-1 $148 forward single #
loop $-1 $149 $150 $59 #
cone-surface $-1 0 0 -3.2670369579149758 0 0 1 2 0 0 1 I I 0 1 2 forward I I I I #
face $-1 $151 $152 $36 $-1 $153 reversed single #
loop $-1 $-1 $154 $60 #
plane-surface $-1 0 0 -9.7079607247787791 0 0 1 1 0 0 forward_v I I I I #
coedge $-1 $155 $156 $157 $158 forward $61 $-1 #
face $-1 $159 $160 $37 $-1 $161 reversed single #
loop $-1 $-1 $162 $63 #
plane-surface $-1 0 0 -2.6846731805652917 0 0 1 1 0 0 forward_v I I I I #
coedge $-1 $163 $164 $165 $166 forward $64 $-1 #
face $-1 $167 $168 $38 $-1 $169 reversed single #
loop $-1 $-1 $170 $66 #
plane-surface $-1 0 0 -136.06860560930204 0 0 1 1 0 0 forward_v I I I I #
coedge $-1 $171 $172 $173 $174 forward $67 $-1 #
face $-1 $-1 $175 $39 $-1 $176 forward single #
loop $-1 $-1 $177 $69 #
plane-surface $-1 0 0 -2.8085345011749618 0 0 -1 -1 0 0 forward_v I I I I #
loop $-1 $-1 $178 $51 #
coedge $-1 $112 $112 $177 $179 reversed $70 $-1 #
face $-1 $-1 $180 $40 $-1 $181 forward single #
loop $-1 $-1 $182 $72 #
plane-surface $-1 0 0 -2.8085345011749618 0 0 -1 -1 0 0 forward_v I I I I #
loop $-1 $-1 $183 $52 #
coedge $-1 $117 $117 $182 $184 reversed $73 $-1 #
face $-1 $-1 $185 $41 $-1 $186 forward single #
loop $-1 $-1 $187 $75 #
plane-surface $-1 0 0 -2.8085345011749618 0 0 -1 -1 0 0 forward_v I I I I #
loop $-1 $-1 $188 $53 #
coedge $-1 $122 $122 $187 $189 reversed $76 $-1 #
face $-1 $190 $191 $42 $-1 $192 reversed single #
loop $-1 $-1 $193 $78 #
plane-surface $-1 0 0 -136.06860560930204 0 0 1 1 0 0 forward_v I I I I #
coedge $-1 $194 $195 $196 $197 forward $79 $-1 #
face $-1 $-1 $198 $43 $-1 $199 forward single #
loop $-1 $-1 $200 $81 #
plane-surface $-1 0 0 -5.5340739158299517 0 0 -1 -1 0 0 forward_v I I I I #
loop $-1 $-1 $201 $55 #
coedge $-1 $131 $131 $200 $202 reversed $82 $-1 #
face $-1 $-1 $203 $44 $-1 $204 forward single #
loop $-1 $-1 $205 $84 #
plane-surface $-1 0 0 -5.5340739158299517 0 0 -1 -1 0 0 forward_v I I I I #
loop $-1 $-1 $206 $56 #
coedge $-1 $136 $136 $205 $207 reversed $85 $-1 #
face $-1 $208 $209 $45 $-1 $210 reversed single #
loop $-1 $-1 $211 $87 #
plane-surface $-1 0 0 -136.06860560930204 0 0 1 1 0 0 forward_v I I I I #
coedge $-1 $212 $213 $214 $215 forward $88 $-1 #
face $-1 $-1 $216 $46 $-1 $217 forward single #
loop $-1 $-1 $218 $90 #
plane-surface $-1 0 0 -5.5340739158299517 0 0 -1 -1 0 0 forward_v I I I I #
loop $-1 $-1 $219 $58 #
coedge $-1 $145 $145 $218 $220 reversed $91 $-1 #
face $-1 $-1 $221 $47 $-1 $222 forward single #
loop $-1 $-1 $223 $93 #
plane-surface $-1 0 0 -5.5340739158299517 0 0 -1 -1 0 0 forward_v I I I I #
loop $-1 $-1 $224 $59 #
coedge $-1 $150 $150 $223 $225 reversed $94 $-1 #
face $-1 $226 $227 $36 $-1 $228 reversed single #
loop $-1 $-1 $229 $96 #
plane-surface $-1 0 -38.560938390993933 0 0 1 0 0 0 1 forward_v I I I I #
coedge $-1 $230 $231 $232 $233 forward $97 $-1 #
coedge $-1 $234 $99 $235 $236 forward $61 $-1 #
coedge $-1 $99 $234 $237 $238 forward $61 $-1 #
coedge $-1 $239 $240 $99 $158 reversed $241 $-1 #
edge $-1 $242 -38.560938390993933 $243 38.560938390993933 $157 $244 forward 7 unknown #
face $-1 $245 $246 $37 $-1 $247 reversed single #
loop $-1 $-1 $248 $100 #
plane-surface $-1 0 -38.560938390993933 0 0 1 0 0 0 1 forward_v I I I I #
coedge $-1 $249 $250 $251 $252 forward $101 $-1 #
coedge $-1 $253 $103 $254 $255 forward $64 $-1 #
coedge $-1 $103 $253 $256 $257 forward $64 $-1 #
coedge $-1 $258 $259 $103 $166 reversed $260 $-1 #
edge $-1 $261 -38.560938390993933 $262 38.560938390993933 $165 $263 forward 7 unknown #
face $-1 $264 $265 $38 $-1 $266 reversed single #
loop $-1 $-1 $267 $104 #
plane-surface $-1 0 -272.13721121860408 0 0 1 0 0 0 1 forward_v I I I I #
coedge $-1 $268 $269 $270 $271 forward $105 $-1 #
coedge $-1 $272 $107 $273 $274 forward $67 $-1 #
coedge $-1 $107 $272 $275 $276 forward $67 $-1 #
coedge $-1 $277 $278 $107 $174 reversed $279 $-1 #
edge $-1 $280 -272.13721121860408 $281 272.13721121860408 $173 $282 forward 7 unknown #
loop $-1 $283 $284 $108 #
cone-surface $-1 0 0 0 0 0 1 0.75 0 0 1 I I -0.70710678118654757 0.70710678118654757 0.75 forward I I I I #
coedge $-1 $177 $177 $112 $179 forward $109 $-1 #
coedge $-1 $178 $178 $284 $285 forward $111 $-1 #
edge $-1 $286 0 $286 6.2831853071796004 $177 $287 forward 7 unknown #
loop $-1 $288 $289 $113 #
cone-surface $-1 0 0 0 0 0 1 0.75 0 0 1 I I -0.70710678118654757 0.70710678118654757 0.75 forward I I I I #
coedge $-1 $182 $182 $117 $184 forward $114 $-1 #
coedge $-1 $183 $183 $289 $290 forward $116 $-1 #
edge $-1 $291 0 $291 6.2831853071796004 $182 $292 forward 7 unknown #
loop $-1 $293 $294 $118 #
cone-surface $-1 0 0 0 0 0 1 0.75 0 0 1 I I -0.70710678118654757 0.70710678118654757 0.75 forward I I I I #
coedge $-1 $187 $187 $122 $189 forward $119 $-1 #
coedge $-1 $188 $188 $294 $295 forward $121 $-1 #
edge $-1 $296 0 $296 6.2831853071796004 $187 $297 forward 7 unknown #
face $-1 $298 $299 $42 $-1 $300 reversed single #
loop $-1 $-1 $301 $123 #
plane-surface $-1 0 -272.13721121860408 0 0 1 0 0 0 1 forward_v I I I I #
coedge $-1 $302 $303 $304 $305 forward $124 $-1 #
coedge $-1 $306 $126 $307 $308 forward $79 $-1 #
coedge $-1 $126 $306 $309 $310 forward $79 $-1 #
coedge $-1 $311 $312 $126 $197 reversed $313 $-1 #
edge $-1 $314 -272.13721121860408 $315 272.13721121860408 $196 $316 forward 7 unknown #
loop $-1 $317 $318 $127 #
cone-surface $-1 0 0 0 0 0 1 1 0 0 1 I I -0.70710678118654746 0.70710678118654746 1 forward I I I I #
coedge $-1 $200 $200 $131 $202 forward $128 $-1 #
coedge $-1 $201 $201 $318 $319 forward $130 $-1 #
edge $-1 $320 0 $320 6.2831853071796004 $200 $321 forward 7 unknown #
loop $-1 $322 $323 $132 #
cone-surface $-1 0 0 0 0 0 1 1 0 0 1 I I -0.70710678118654746 0.70710678118654746 1 forward I I I I #
coedge $-1 $205 $205 $136 $207 forward $133 $-1 #
coedge $-1 $206 $206 $323 $324 forward $135 $-1 #
edge $-1 $325 0 $325 6.2831853071796004 $205 $326 forward 7 unknown #
face $-1 $327 $328 $45 $-1 $329 reversed single #
loop $-1 $-1 $330 $137 #
plane-surface $-1 0 -272.13721121860408 0 0 1 0 0 0 1 forward_v I I I I #
coedge $-1 $331 $332 $333 $334 forward $138 $-1 #
coedge $-1 $335 $140 $336 $337 forward $88 $-1 #
coedge $-1 $140 $335 $338 $339 forward $88 $-1 #
coedge $-1 $340 $341 $140 $215 reversed $342 $-1 #
edge $-1 $343 -272.13721121860408 $344 272.13721121860408 $214 $345 forward 7 unknown #
loop $-1 $346 $347 $141 #
cone-surface $-1 0 0 0 0 0 1 1 0 0 1 I I -0.70710678118654746 0.70710678118654746 1 forward I I I I #
coedge $-1 $218 $218 $145 $220 forward $142 $-1 #
coedge $-1 $219 $219 $347 $348 forward $144 $-1 #
edge $-1 $349 0 $349 6.2831853071796004 $218 $350 forward 7 unknown #
loop $-1 $351 $352 $146 #
cone-surface $-1 0 0 0 0 0 1 1 0 0 1 I I -0.70710678118654746 0.70710678118654746 1 forward I I I I #
coedge $-1 $223 $223 $150 $225 forward $147 $-1 #
coedge $-1 $224 $224 $352 $353 forward $149 $-1 #
edge $-1 $354 0 $354 6.2831853071796004 $223 $355 forward 7 unknown #
face $-1 $356 $357 $36 $-1 $358 reversed single #
loop $-1 $-1 $359 $151 #
plane-surface $-1 -68.03430280465102 0 0 1 0 0 0 0 -1 forward_v I I I I #
coedge $-1 $360 $237 $361 $362 forward $152 $-1 #
coedge $-1 $363 $154 $360 $364 forward $97 $-1 #
coedge $-1 $154 $363 $365 $366 forward $97 $-1 #
coedge $-1 $240 $239 $154 $233 reversed $241 $-1 #
edge $-1 $367 -38.560938390993933 $368 38.560938390993933 $232 $369 forward 7 unknown #
coedge $-1 $156 $155 $370 $371 forward $61 $-1 #
coedge $-1 $372 $373 $155 $236 reversed $357 $-1 #
edge $-1 $243 -68.03430280465102 $374 68.03430280465102 $235 $375 forward 7 unknown #
coedge $-1 $229 $376 $156 $238 reversed $152 $-1 #
edge $-1 $377 -68.03430280465102 $242 68.03430280465102 $237 $378 forward 7 unknown #
coedge $-1 $232 $157 $376 $379 forward $241 $-1 #
coedge $-1 $157 $232 $372 $380 reversed $241 $-1 #
loop $-1 $-1 $239 $356 #
vertex $-1 $158 $381 #
vertex $-1 $158 $382 #
straight-curve $-1 68.03430280465102 0 9.7079607247787791 0 1 0 I I #
face $-1 $383 $384 $37 $-1 $385 reversed single #
loop $-1 $-1 $386 $159 #
plane-surface $-1 -4.8898648865443386 0 0 1 0 0 0 0 -1 forward_v I I I I #
coedge $-1 $387 $256 $388 $389 forward $160 $-1 #
coedge $-1 $390 $162 $387 $391 forward $101 $-1 #
coedge $-1 $162 $390 $392 $393 forward $101 $-1 #
coedge $-1 $259 $258 $162 $252 reversed $260 $-1 #
edge $-1 $394 -38.560938390993933 $395 38.560938390993933 $251 $396 forward 7 unknown #
coedge $-1 $164 $163 $397 $398 forward $64 $-1 #
coedge $-1 $399 $400 $163 $255 reversed $384 $-1 #
edge $-1 $262 -4.8898648865443386 $401 4.8898648865443386 $254 $402 forward 7 unknown #
coedge $-1 $248 $403 $164 $257 reversed $160 $-1 #
edge $-1 $404 -4.8898648865443386 $261 4.8898648865443386 $256 $405 forward 7 unknown #
coedge $-1 $251 $165 $403 $406 forward $260 $-1 #
coedge $-1 $165 $251 $399 $407 reversed $260 $-1 #
loop $-1 $-1 $258 $383 #
vertex $-1 $166 $408 #
vertex $-1 $166 $409 #
straight-curve $-1 4.8898648865443386 0 2.6846731805652917 0 1 0 I I #
face $-1 $410 $411 $38 $-1 $412 reversed single #
loop $-1 $-1 $413 $167 #
plane-surface $-1 -9.356908423455522 0 0 1 0 0 0 0 -1 forward_v I I I I #
coedge $-1 $414 $275 $415 $416 forward $168 $-1 #
coedge $-1 $417 $170 $414 $418 forward $105 $-1 #
coedge $-1 $170 $417 $419 $420 forward $105 $-1 #
coedge $-1 $278 $277 $170 $271 reversed $279 $-1 #
edge $-1 $421 -272.13721121860408 $422 272.13721121860408 $270 $423 forward 7 unknown #
coedge $-1 $172 $171 $424 $425 forward $67 $-1 #
coedge $-1 $426 $427 $171 $274 reversed $411 $-1 #
edge $-1 $281 -9.356908423455522 $428 9.356908423455522 $273 $429 forward 7 unknown #
coedge $-1 $267 $430 $172 $276 reversed $168 $-1 #
edge $-1 $431 -9.356908423455522 $280 9.356908423455522 $275 $432 forward 7 unknown #
coedge $-1 $270 $173 $430 $433 forward $279 $-1 #
coedge $-1 $173 $270 $426 $434 reversed $279 $-1 #
loop $-1 $-1 $277 $410 #
vertex $-1 $174 $435 #
vertex $-1 $174 $436 #
straight-curve $-1 9.356908423455522 0 136.06860560930204 0 1 0 I I #
loop $-1 $-1 $437 $108 #
coedge $-1 $284 $284 $178 $285 reversed $175 $-1 #
edge $-1 $438 0 $438 6.2831853071796004 $284 $439 forward 7 unknown #
vertex $-1 $179 $440 #
ellipse-curve $-1 0 0 -2.8085345011749618 0 0 -1 1.5 0 0 1 I I #
loop $-1 $-1 $441 $113 #
coedge $-1 $289 $289 $183 $290 reversed $180 $-1 #
edge $-1 $442 0 $442 6.2831853071796004 $289 $443 forward 7 unknown #
vertex $-1 $184 $444 #
ellipse-curve $-1 0 0 -2.8085345011749618 0 0 -1 1.5 0 0 1 I I #
loop $-1 $-1 $445 $118 #
coedge $-1 $294 $294 $188 $295 reversed $185 $-1 #
edge $-1 $446 0 $446 6.2831853071796004 $294 $447 forward 7 unknown #
vertex $-1 $189 $448 #
ellipse-curve $-1 0 0 -2.8085345011749618 0 0 -1 1.5 0 0 1 I I #
face $-1 $449 $450 $42 $-1 $451 reversed single #
loop $-1 $-1 $452 $190 #
plane-surface $-1 -14.556443479113334 0 0 1 0 0 0 0 -1 forward_v I I I I #
coedge $-1 $453 $309 $454 $455 forward $191 $-1 #
coedge $-1 $456 $193 $453 $457 forward $124 $-1 #
coedge $-1 $193 $456 $458 $459 forward $124 $-1 #
coedge $-1 $312 $311 $193 $305 reversed $313 $-1 #
edge $-1 $460 -272.13721121860408 $461 272.13721121860408 $304 $462 forward 7 unknown #
coedge $-1 $195 $194 $463 $464 forward $79 $-1 #
coedge $-1 $465 $466 $194 $308 reversed $450 $-1 #
edge $-1 $315 -14.556443479113334 $467 14.556443479113334 $307 $468 forward 7 unknown #
coedge $-1 $301 $469 $195 $310 reversed $191 $-1 #
edge $-1 $470 -14.556443479113334 $314 14.556443479113334 $309 $471 forward 7 unknown #
coedge $-1 $304 $196 $469 $472 forward $313 $-1 #
coedge $-1 $196 $304 $465 $473 reversed $313 $-1 #
loop $-1 $-1 $311 $449 #
vertex $-1 $197 $474 #
vertex $-1 $197 $475 #
straight-curve $-1 14.556443479113334 0 136.06860560930204 0 1 0 I I #
loop $-1 $-1 $476 $127 #
coedge $-1 $318 $318 $201 $319 reversed $198 $-1 #
edge $-1 $477 0 $477 6.2831853071796004 $318 $478 forward 7 unknown #
vertex $-1 $202 $479 #
ellipse-curve $-1 0 0 -5.5340739158299517 0 0 -1 2 0 0 1 I I #
loop $-1 $-1 $480 $132 #
coedge $-1 $323 $323 $206 $324 reversed $203 $-1 #
edge $-1 $481 0 $481 6.2831853071796004 $323 $482 forward 7 unknown #
vertex $-1 $207 $483 #
ellipse-curve $-1 0 0 -5.5340739158299517 0 0 -1 2 0 0 1 I I #
face $-1 $484 $485 $45 $-1 $486 reversed single #
loop $-1 $-1 $487 $208 #
plane-surface $-1 -14.556443479113334 0 0 1 0 0 0 0 -1 forward_v I I I I #
coedge $-1 $488 $338 $489 $490 forward $209 $-1 #
coedge $-1 $491 $211 $488 $492 forward $138 $-1 #
coedge $-1 $211 $491 $493 $494 forward $138 $-1 #
coedge $-1 $341 $340 $211 $334 reversed $342 $-1 #
edge $-1 $495 -272.13721121860408 $496 272.13721121860408 $333 $497 forward 7 unknown #
coedge $-1 $213 $212 $498 $499 forward $88 $-1 #
coedge $-1 $500 $501 $212 $337 reversed $485 $-1 #
edge $-1 $344 -14.556443479113334 $502 14.556443479113334 $336 $503 forward 7 unknown #
coedge $-1 $330 $504 $213 $339 reversed $209 $-1 #
edge $-1 $505 -14.556443479113334 $343 14.556443479113334 $338 $506 forward 7 unknown #
coedge $-1 $333 $214 $504 $507 forward $342 $-1 #
coedge $-1 $214 $333 $500 $508 reversed $342 $-1 #
loop $-1 $-1 $340 $484 #
vertex $-1 $215 $509 #
vertex $-1 $215 $510 #
straight-curve $-1 14.556443479113334 0 136.06860560930204 0 1 0 I I #
loop $-1 $-1 $511 $141 #
coedge $-1 $347 $347 $219 $348 reversed $216 $-1 #
edge $-1 $512 0 $512 6.2831853071796004 $347 $513 forward 7 unknown #
vertex $-1 $220 $514 #
ellipse-curve $-1 0 0 -5.5340739158299517 0 0 -1 2 0 0 1 I I #
loop $-1 $-1 $515 $146 #
coedge $-1 $352 $352 $224 $353 reversed $221 $-1 #
edge $-1 $516 0 $516 6.2831853071796004 $352 $517 forward 7 unknown #
vertex $-1 $225 $518 #
ellipse-curve $-1 0 0 -5.5340739158299517 0 0 -1 2 0 0 1 I I #
face $-1 $-1 $241 $36 $-1 $519 reversed single #
loop $-1 $-1 $372 $226 #
plane-surface $-1 0 38.560938390993933 0 0 -1 0 0 0 -1 forward_v I I I I #
coedge $-1 $520 $370 $373 $521 forward $227 $-1 #
coedge $-1 $376 $229 $230 $364 reversed $152 $-1 #
coedge $-1 $370 $520 $229 $362 reversed $227 $-1 #
edge $-1 $377 -9.7079607247787791 $522 9.7079607247787791 $361 $523 forward 7 unknown #
coedge $-1 $231 $230 $520 $524 forward $97 $-1 #
edge $-1 $368 -68.03430280465102 $522 68.03430280465102 $360 $525 forward 7 unknown #
coedge $-1 $373 $372 $231 $366 reversed $357 $-1 #
edge $-1 $526 -68.03430280465102 $367 68.03430280465102 $365 $527 forward 7 unknown #
vertex $-1 $233 $528 #
vertex $-1 $379 $529 #
straight-curve $-1 68.03430280465102 0 -9.7079607247787791 0 -1 0 I I #
coedge $-1 $359 $361 $234 $371 reversed $227 $-1 #
edge $-1 $374 -38.560938390993933 $377 38.560938390993933 $370 $530 forward 7 unknown #
coedge $-1 $365 $235 $240 $380 forward $357 $-1 #
coedge $-1 $235 $365 $359 $521 reversed $357 $-1 #
vertex $-1 $236 $531 #
straight-curve $-1 0 38.560938390993933 9.7079607247787791 -1 0 0 I I #
coedge $-1 $237 $360 $239 $379 reversed $152 $-1 #
vertex $-1 $371 $532 #
straight-curve $-1 0 -38.560938390993933 9.7079607247787791 1 0 0 I I #
edge $-1 $242 -9.7079607247787791 $368 9.7079607247787791 $239 $533 forward 7 unknown #
edge $-1 $243 -9.7079607247787791 $367 9.7079607247787791 $240 $534 forward 7 unknown #
point $-1 68.03430280465102 -38.560938390993933 9.7079607247787791 #
point $-1 68.03430280465102 38.560938390993933 9.7079607247787791 #
face $-1 $-1 $260 $37 $-1 $535 reversed single #
loop $-1 $-1 $399 $245 #
plane-surface $-1 0 38.560938390993933 0 0 -1 0 0 0 -1 forward_v I I I I #
coedge $-1 $536 $397 $400 $537 forward $246 $-1 #
coedge $-1 $403 $248 $249 $391 reversed $160 $-1 #
coedge $-1 $397 $536 $248 $389 reversed $246 $-1 #
edge $-1 $404 -2.6846731805652917 $538 2.6846731805652917 $388 $539 forward 7 unknown #
coedge $-1 $250 $249 $536 $540 forward $101 $-1 #
edge $-1 $395 -4.8898648865443386 $538 4.8898648865443386 $387 $541 forward 7 unknown #
coedge $-1 $400 $399 $250 $393 reversed $384 $-1 #
edge $-1 $542 -4.8898648865443386 $394 4.8898648865443386 $392 $543 forward 7 unknown #
vertex $-1 $252 $544 #
vertex $-1 $406 $545 #
straight-curve $-1 4.8898648865443386 0 -2.6846731805652917 0 -1 0 I I #
coedge $-1 $386 $388 $253 $398 reversed $246 $-1 #
edge $-1 $401 -38.560938390993933 $404 38.560938390993933 $397 $546 forward 7 unknown #
coedge $-1 $392 $254 $259 $407 forward $384 $-1 #
coedge $-1 $254 $392 $386 $537 reversed $384 $-1 #
vertex $-1 $255 $547 #
straight-curve $-1 0 38.560938390993933 2.6846731805652917 -1 0 0 I I #
coedge $-1 $256 $387 $258 $406 reversed $160 $-1 #
vertex $-1 $398 $548 #
straight-curve $-1 0 -38.560938390993933 2.6846731805652917 1 0 0 I I #
edge $-1 $261 -2.6846731805652917 $395 2.6846731805652917 $258 $549 forward 7 unknown #
edge $-1 $262 -2.6846731805652917 $394 2.6846731805652917 $259 $550 forward 7 unknown #
point $-1 4.8898648865443386 -38.560938390993933 2.6846731805652917 #
point $-1 4.8898648865443386 38.560938390993933 2.6846731805652917 #
face $-1 $-1 $279 $38 $-1 $551 reversed single #
loop $-1 $-1 $426 $264 #
plane-surface $-1 0 272.13721121860408 0 0 -1 0 0 0 -1 forward_v I I I I #
coedge $-1 $552 $424 $427 $553 forward $265 $-1 #
coedge $-1 $430 $267 $268 $418 reversed $168 $-1 #
coedge $-1 $424 $552 $267 $416 reversed $265 $-1 #
edge $-1 $431 -136.06860560930204 $554 136.06860560930204 $415 $555 forward 7 unknown #
coedge $-1 $269 $268 $552 $556 forward $105 $-1 #
edge $-1 $422 -9.356908423455522 $554 9.356908423455522 $414 $557 forward 7 unknown #
coedge $-1 $427 $426 $269 $420 reversed $411 $-1 #
edge $-1 $558 -9.356908423455522 $421 9.356908423455522 $419 $559 forward 7 unknown #
vertex $-1 $271 $560 #
vertex $-1 $433 $561 #
straight-curve $-1 9.356908423455522 0 -136.06860560930204 0 -1 0 I I #
coedge $-1 $413 $415 $272 $425 reversed $265 $-1 #
edge $-1 $428 -272.13721121860408 $431 272.13721121860408 $424 $562 forward 7 unknown #
coedge $-1 $419 $273 $278 $434 forward $411 $-1 #
coedge $-1 $273 $419 $413 $553 reversed $411 $-1 #
vertex $-1 $274 $563 #
straight-curve $-1 0 272.13721121860408 136.06860560930204 -1 0 0 I I #
coedge $-1 $275 $414 $277 $433 reversed $168 $-1 #
vertex $-1 $425 $564 #
straight-curve $-1 0 -272.13721121860408 136.06860560930204 1 0 0 I I #
edge $-1 $280 -136.06860560930204 $422 136.06860560930204 $277 $565 forward 7 unknown #
edge $-1 $281 -136.06860560930204 $421 136.06860560930204 $278 $566 forward 7 unknown #
point $-1 9.356908423455522 -272.13721121860408 136.06860560930204 #
point $-1 9.356908423455522 272.13721121860408 136.06860560930204 #
coedge $-1 $437 $437 $-1 $567 reversed $283 $-1 #
vertex $-1 $285 $568 #
ellipse-curve $-1 0 0 -0.75 0 0 -1 1.5 0 0 1 I I #
point $-1 1.5 0 -2.8085345011749618 #
coedge $-1 $441 $441 $-1 $569 reversed $288 $-1 #
vertex $-1 $290 $570 #
ellipse-curve $-1 0 0 -0.75 0 0 -1 1.5 0 0 1 I I #
point $-1 1.5 0 -2.8085345011749618 #
coedge $-1 $445 $445 $-1 $571 reversed $293 $-1 #
vertex $-1 $295 $572 #
ellipse-curve $-1 0 0 -0.75 0 0 -1 1.5 0 0 1 I I #
point $-1 1.5 0 -2.8085345011749618 #
face $-1 $-1 $313 $42 $-1 $573 reversed single #
loop $-1 $-1 $465 $298 #
plane-surface $-1 0 272.13721121860408 0 0 -1 0 0 0 -1 forward_v I I I I #
coedge $-1 $574 $463 $466 $575 forward $299 $-1 #
coedge $-1 $469 $301 $302 $457 reversed $191 $-1 #
coedge $-1 $463 $574 $301 $455 reversed $299 $-1 #
edge $-1 $470 -136.06860560930204 $576 136.06860560930204 $454 $577 forward 7 unknown #
coedge $-1 $303 $302 $574 $578 forward $124 $-1 #
edge $-1 $461 -14.556443479113334 $576 14.556443479113334 $453 $579 forward 7 unknown #
coedge $-1 $466 $465 $303 $459 reversed $450 $-1 #
edge $-1 $580 -14.556443479113334 $460 14.556443479113334 $458 $581 forward 7 unknown #
vertex $-1 $305 $582 #
vertex $-1 $472 $583 #
straight-curve $-1 14.556443479113334 0 -136.06860560930204 0 -1 0 I I #
coedge $-1 $452 $454 $306 $464 reversed $299 $-1 #
edge $-1 $467 -272.13721121860408 $470 272.13721121860408 $463 $584 forward 7 unknown #
coedge $-1 $458 $307 $312 $473 forward $450 $-1 #
coedge $-1 $307 $458 $452 $575 reversed $450 $-1 #
vertex $-1 $308 $585 #
straight-curve $-1 0 272.13721121860408 136.06860560930204 -1 0 0 I I #
coedge $-1 $309 $453 $311 $472 reversed $191 $-1 #
vertex $-1 $464 $586 #
straight-curve $-1 0 -272.13721121860408 136.06860560930204 1 0 0 I I #
edge $-1 $314 -136.06860560930204 $461 136.06860560930204 $311 $587 forward 7 unknown #
edge $-1 $315 -136.06860560930204 $460 136.06860560930204 $312 $588 forward 7 unknown #
point $-1 14.556443479113334 -272.13721121860408 136.06860560930204 #
point $-1 14.556443479113334 272.13721121860408 136.06860560930204 #
coedge $-1 $476 $476 $-1 $589 reversed $317 $-1 #
vertex $-1 $319 $590 #
ellipse-curve $-1 0 0 -1 0 0 -1 2 0 0 1 I I #
point $-1 2 0 -5.5340739158299517 #
coedge $-1 $480 $480 $-1 $591 reversed $322 $-1 #
vertex $-1 $324 $592 #
ellipse-curve $-1 0 0 -1 0 0 -1 2 0 0 1 I I #
point $-1 2 0 -5.5340739158299517 #
face $-1 $-1 $342 $45 $-1 $593 reversed single #
loop $-1 $-1 $500 $327 #
plane-surface $-1 0 272.13721121860408 0 0 -1 0 0 0 -1 forward_v I I I I #
coedge $-1 $594 $498 $501 $595 forward $328 $-1 #
coedge $-1 $504 $330 $331 $492 reversed $209 $-1 #
coedge $-1 $498 $594 $330 $490 reversed $328 $-1 #
edge $-1 $505 -136.06860560930204 $596 136.06860560930204 $489 $597 forward 7 unknown #
coedge $-1 $332 $331 $594 $598 forward $138 $-1 #
edge $-1 $496 -14.556443479113334 $596 14.556443479113334 $488 $599 forward 7 unknown #
coedge $-1 $501 $500 $332 $494 reversed $485 $-1 #
edge $-1 $600 -14.556443479113334 $495 14.556443479113334 $493 $601 forward 7 unknown #
vertex $-1 $334 $602 #
vertex $-1 $507 $603 #
straight-curve $-1 14.556443479113334 0 -136.06860560930204 0 -1 0 I I #
coedge $-1 $487 $489 $335 $499 reversed $328 $-1 #
edge $-1 $502 -272.13721121860408 $505 272.13721121860408 $498 $604 forward 7 unknown #
coedge $-1 $493 $336 $341 $508 forward $485 $-1 #
coedge $-1 $336 $493 $487 $595 reversed $485 $-1 #
vertex $-1 $337 $605 #
straight-curve $-1 0 272.13721121860408 136.06860560930204 -1 0 0 I I #
coedge $-1 $338 $488 $340 $507 reversed $209 $-1 #
vertex $-1 $499 $606 #
straight-curve $-1 0 -272.13721121860408 136.06860560930204 1 0 0 I I #
edge $-1 $343 -136.06860560930204 $496 136.06860560930204 $340 $607 forward 7 unknown #
edge $-1 $344 -136.06860560930204 $495 136.06860560930204 $341 $608 forward 7 unknown #
point $-1 14.556443479113334 -272.13721121860408 136.06860560930204 #
point $-1 14.556443479113334 272.13721121860408 136.06860560930204 #
coedge $-1 $511 $511 $-1 $609 reversed $346 $-1 #
vertex $-1 $348 $610 #
ellipse-curve $-1 0 0 -1 0 0 -1 2 0 0 1 I I #
point $-1 2 0 -5.5340739158299517 #
coedge $-1 $515 $515 $-1 $611 reversed $351 $-1 #
vertex $-1 $353 $612 #
ellipse-curve $-1 0 0 -1 0 0 -1 2 0 0 1 I I #
point $-1 2 0 -5.5340739158299517 #
plane-surface $-1 68.03430280465102 0 0 -1 0 0 0 0 1 forward_v I I I I #
coedge $-1 $361 $359 $363 $524 reversed $227 $-1 #
edge $-1 $374 -9.7079607247787791 $526 9.7079607247787791 $373 $613 forward 7 unknown #
vertex $-1 $524 $614 #
straight-curve $-1 -68.03430280465102 -38.560938390993933 0 0 0 -1 I I #
edge $-1 $522 -38.560938390993933 $526 38.560938390993933 $520 $615 forward 7 unknown #
straight-curve $-1 0 -38.560938390993933 -9.7079607247787791 -1 0 0 I I #
vertex $-1 $366 $616 #
straight-curve $-1 0 38.560938390993933 -9.7079607247787791 1 0 0 I I #
point $-1 68.03430280465102 38.560938390993933 -9.7079607247787791 #
point $-1 68.03430280465102 -38.560938390993933 -9.7079607247787791 #
straight-curve $-1 -68.03430280465102 0 9.7079607247787791 0 -1 0 I I #
point $-1 -68.03430280465102 38.560938390993933 9.7079607247787791 #
point $-1 -68.03430280465102 -38.560938390993933 9.7079607247787791 #
straight-curve $-1 68.03430280465102 -38.560938390993933 0 0 0 -1 I I #
straight-curve $-1 68.03430280465102 38.560938390993933 0 0 0 -1 I I #
plane-surface $-1 4.8898648865443386 0 0 -1 0 0 0 0 1 forward_v I I I I #
coedge $-1 $388 $386 $390 $540 reversed $246 $-1 #
edge $-1 $401 -2.6846731805652917 $542 2.6846731805652917 $400 $617 forward 7 unknown #
vertex $-1 $540 $618 #
straight-curve $-1 -4.8898648865443386 -38.560938390993933 0 0 0 -1 I I #
edge $-1 $538 -38.560938390993933 $542 38.560938390993933 $536 $619 forward 7 unknown #
straight-curve $-1 0 -38.560938390993933 -2.6846731805652917 -1 0 0 I I #
vertex $-1 $393 $620 #
straight-curve $-1 0 38.560938390993933 -2.6846731805652917 1 0 0 I I #
point $-1 4.8898648865443386 38.560938390993933 -2.6846731805652917 #
point $-1 4.8898648865443386 -38.560938390993933 -2.6846731805652917 #
straight-curve $-1 -4.8898648865443386 0 2.6846731805652917 0 -1 0 I I #
point $-1 -4.8898648865443386 38.560938390993933 2.6846731805652917 #
point $-1 -4.8898648865443386 -38.560938390993933 2.6846731805652917 #
straight-curve $-1 4.8898648865443386 -38.560938390993933 0 0 0 -1 I I #
straight-curve $-1 4.8898648865443386 38.560938390993933 0 0 0 -1 I I #
plane-surface $-1 9.356908423455522 0 0 -1 0 0 0 0 1 forward_v I I I I #
coedge $-1 $415 $413 $417 $556 reversed $265 $-1 #
edge $-1 $428 -136.06860560930204 $558 136.06860560930204 $427 $621 forward 7 unknown #
vertex $-1 $556 $622 #
straight-curve $-1 -9.356908423455522 -272.13721121860408 0 0 0 -1 I I #
edge $-1 $554 -272.13721121860408 $558 272.13721121860408 $552 $623 forward 7 unknown #
straight-curve $-1 0 -272.13721121860408 -136.06860560930204 -1 0 0 I I #
vertex $-1 $420 $624 #
straight-curve $-1 0 272.13721121860408 -136.06860560930204 1 0 0 I I #
point $-1 9.356908423455522 272.13721121860408 -136.06860560930204 #
point $-1 9.356908423455522 -272.13721121860408 -136.06860560930204 #
straight-curve $-1 -9.356908423455522 0 136.06860560930204 0 -1 0 I I #
point $-1 -9.356908423455522 272.13721121860408 136.06860560930204 #
point $-1 -9.356908423455522 -272.13721121860408 136.06860560930204 #
straight-curve $-1 9.356908423455522 -272.13721121860408 0 0 0 -1 I I #
straight-curve $-1 9.356908423455522 272.13721121860408 0 0 0 -1 I I #
edge $-1 $625 1 $625 0 $437 $-1 forward 7 unknown #
point $-1 1.5 0 -0.75 #
edge $-1 $626 1 $626 0 $441 $-1 forward 7 unknown #
point $-1 1.5 0 -0.75 #
edge $-1 $627 1 $627 0 $445 $-1 forward 7 unknown #
point $-1 1.5 0 -0.75 #
plane-surface $-1 14.556443479113334 0 0 -1 0 0 0 0 1 forward_v I I I I #
coedge $-1 $454 $452 $456 $578 reversed $299 $-1 #
edge $-1 $467 -136.06860560930204 $580 136.06860560930204 $466 $628 forward 7 unknown #
vertex $-1 $578 $629 #
straight-curve $-1 -14.556443479113334 -272.13721121860408 0 0 0 -1 I I #
edge $-1 $576 -272.13721121860408 $580 272.13721121860408 $574 $630 forward 7 unknown #
straight-curve $-1 0 -272.13721121860408 -136.06860560930204 -1 0 0 I I #
vertex $-1 $459 $631 #
straight-curve $-1 0 272.13721121860408 -136.06860560930204 1 0 0 I I #
point $-1 14.556443479113334 272.13721121860408 -136.06860560930204 #
point $-1 14.556443479113334 -272.13721121860408 -136.06860560930204 #
straight-curve $-1 -14.556443479113334 0 136.06860560930204 0 -1 0 I I #
point $-1 -14.556443479113334 272.13721121860408 136.06860560930204 #
point $-1 -14.556443479113334 -272.13721121860408 136.06860560930204 #
straight-curve $-1 14.556443479113334 -272.13721121860408 0 0 0 -1 I I #
straight-curve $-1 14.556443479113334 272.13721121860408 0 0 0 -1 I I #
edge $-1 $632 1 $632 0 $476 $-1 forward 7 unknown #
point $-1 2 0 -1 #
edge $-1 $633 1 $633 0 $480 $-1 forward 7 unknown #
point $-1 2 0 -1 #
plane-surface $-1 14.556443479113334 0 0 -1 0 0 0 0 1 forward_v I I I I #
coedge $-1 $489 $487 $491 $598 reversed $328 $-1 #
edge $-1 $502 -136.06860560930204 $600 136.06860560930204 $501 $634 forward 7 unknown #
vertex $-1 $598 $635 #
straight-curve $-1 -14.556443479113334 -272.13721121860408 0 0 0 -1 I I #
edge $-1 $596 -272.13721121860408 $600 272.13721121860408 $594 $636 forward 7 unknown #
straight-curve $-1 0 -272.13721121860408 -136.06860560930204 -1 0 0 I I #
vertex $-1 $494 $637 #
straight-curve $-1 0 272.13721121860408 -136.06860560930204 1 0 0 I I #
point $-1 14.556443479113334 272.13721121860408 -136.06860560930204 #
point $-1 14.556443479113334 -272.13721121860408 -136.06860560930204 #
straight-curve $-1 -14.556443479113334 0 136.06860560930204 0 -1 0 I I #
point $-1 -14.556443479113334 272.13721121860408 136.06860560930204 #
point $-1 -14.556443479113334 -272.13721121860408 136.06860560930204 #
straight-curve $-1 14.556443479113334 -272.13721121860408 0 0 0 -1 I I #
straight-curve $-1 14.556443479113334 272.13721121860408 0 0 0 -1 I I #
edge $-1 $638 1 $638 0 $511 $-1 forward 7 unknown #
point $-1 2 0 -1 #
edge $-1 $639 1 $639 0 $515 $-1 forward 7 unknown #
point $-1 2 0 -1 #
straight-curve $-1 -68.03430280465102 38.560938390993933 0 0 0 -1 I I #
point $-1 -68.03430280465102 -38.560938390993933 -9.7079607247787791 #
straight-curve $-1 -68.03430280465102 0 -9.7079607247787791 0 1 0 I I #
point $-1 -68.03430280465102 38.560938390993933 -9.7079607247787791 #
straight-curve $-1 -4.8898648865443386 38.560938390993933 0 0 0 -1 I I #
point $-1 -4.8898648865443386 -38.560938390993933 -2.6846731805652917 #
straight-curve $-1 -4.8898648865443386 0 -2.6846731805652917 0 1 0 I I #
point $-1 -4.8898648865443386 38.560938390993933 -2.6846731805652917 #
straight-curve $-1 -9.356908423455522 272.13721121860408 0 0 0 -1 I I #
point $-1 -9.356908423455522 -272.13721121860408 -136.06860560930204 #
straight-curve $-1 -9.356908423455522 0 -136.06860560930204 0 1 0 I I #
point $-1 -9.356908423455522 272.13721121860408 -136.06860560930204 #
vertex $-1 $567 $640 #
vertex $-1 $569 $641 #
vertex $-1 $571 $642 #
straight-curve $-1 -14.556443479113334 272.13721121860408 0 0 0 -1 I I #
point $-1 -14.556443479113334 -272.13721121860408 -136.06860560930204 #
straight-curve $-1 -14.556443479113334 0 -136.06860560930204 0 1 0 I I #
point $-1 -14.556443479113334 272.13721121860408 -136.06860560930204 #
vertex $-1 $589 $643 #
vertex $-1 $591 $644 #
straight-curve $-1 -14.556443479113334 272.13721121860408 0 0 0 -1 I I #
point $-1 -14.556443479113334 -272.13721121860408 -136.06860560930204 #
straight-curve $-1 -14.556443479113334 0 -136.06860560930204 0 1 0 I I #
point $-1 -14.556443479113334 272.13721121860408 -136.06860560930204 #
vertex $-1 $609 $645 #
vertex $-1 $611 $646 #
point $-1 0 0 0.75 #
point $-1 0 0 0.75 #
point $-1 0 0 0.75 #
point $-1 0 0 1 #
point $-1 0 0 1 #
point $-1 0 0 1 #
point $-1 0 0 1 #
End-of-ACIS-data 