500 0 5 0           
7 Unknown 11 ACIS 5.0 NT 24 Thu Mar 25 21:55:46 1999 
-1 9.9999999999999995e-007 1e-010 
body $-1 $5 $-1 $6 #
body $-1 $7 $-1 $8 #
body $-1 $9 $-1 $10 #
body $-1 $11 $-1 $12 #
body $-1 $13 $-1 $14 #
lump $-1 $-1 $15 $0 #
transform $-1 1 0 0 0 1 0 0 0 1 64.356212042603843 44.666946791445817 21.312732718900659 1 rotate no_reflect no_shear #
lump $-1 $-1 $16 $1 #
transform $-1 1 0 0 0 1 0 0 0 1 64.356212042603843 44.666946791445817 21.312732718900659 1 rotate no_reflect no_shear #
lump $-1 $-1 $17 $2 #
transform $-1 1 0 0 0 1 0 0 0 1 64.356212042603843 44.666946791445817 21.312732718900659 1 rotate no_reflect no_shear #
lump $-1 $-1 $18 $3 #
transform $-1 1 0 0 0 1 0 0 0 1 64.356212042603843 44.666946791445817 21.312732718900659 1 rotate no_reflect no_shear #
lump $-1 $-1 $19 $4 #
transform $-1 1 0 0 0 1 0 0 0 1 64.356212042603843 44.666946791445817 21.312732718900659 1 rotate no_reflect no_shear #
shell $-1 $-1 $-1 $20 $-1 $5 #
shell $-1 $-1 $-1 $21 $-1 $7 #
shell $-1 $-1 $-1 $22 $-1 $9 #
shell $-1 $-1 $-1 $23 $-1 $11 #
shell $-1 $-1 $-1 $24 $-1 $13 #
face $-1 $25 $26 $15 $-1 $27 forward single #
face $-1 $28 $29 $16 $-1 $30 forward single #
face $-1 $31 $32 $17 $-1 $33 reversed single #
face $-1 $34 $35 $18 $-1 $36 forward single #
face $-1 $37 $38 $19 $-1 $39 forward single #
face $-1 $40 $41 $15 $-1 $42 reversed single #
loop $-1 $-1 $43 $20 #
plane-surface $-1 0 0 21.312732718900659 0 0 1 1 0 0 forward_v I I I I #
face $-1 $44 $45 $16 $-1 $46 reversed single #
loop $-1 $-1 $47 $21 #
plane-surface $-1 -64.356212042603843 0 0 1 0 0 0 0 -1 forward_v I I I I #
face $-1 $48 $49 $17 $-1 $50 reversed single #
loop $-1 $-1 $51 $22 #
plane-surface $-1 -20.00221329635685 -130.79237020131913 98.873339798541565 -1 0 0 0 -0.66913061440640931 0.74314481823134659 forward_v I I I I #
face $-1 $52 $53 $18 $-1 $54 forward single #
loop $-1 $55 $56 $23 #
cone-surface $-1 -27.962574127049791 -33.816893174139338 11.374333502022109 0 0.66913061440640931 -0.74314481823134659 1 0 0 1 I I 0 1 1 forward I I I I #
face $-1 $57 $58 $19 $-1 $59 forward single #
loop $-1 $60 $61 $24 #
cone-surface $-1 -23.186357628634028 -33.816893174139338 11.374333502022109 0 0.66913061440640931 -0.74314481823134659 1 0 0 1 I I 0 1 1 forward I I I I #
face $-1 $62 $63 $15 $-1 $64 reversed single #
loop $-1 $-1 $65 $25 #
plane-surface $-1 0 0 -21.312732718900659 0 0 1 1 0 0 forward_v I I I I #
coedge $-1 $66 $67 $68 $69 forward $26 $-1 #
face $-1 $70 $71 $16 $-1 $72 forward single #
loop $-1 $-1 $73 $28 #
plane-surface $-1 0 44.666946791445817 0 0 -1 0 0 0 -1 forward_v I I I I #
coedge $-1 $74 $75 $76 $77 forward $29 $-1 #
face $-1 $78 $79 $17 $-1 $80 reversed single #
loop $-1 $-1 $81 $31 #
plane-surface $-1 -25.574465877841909 -44.666946791445795 3.2213687976238958 0 -0.66913061440640931 0.74314481823134659 1 0 0 forward_v I I I I #
coedge $-1 $82 $83 $84 $85 reversed $32 $-1 #
face $-1 $-1 $86 $18 $-1 $87 forward single #
loop $-1 $88 $89 $34 #
cone-surface $-1 -27.962574127049791 -32.678521621498192 10.110043836666247 0 0.66913061440640931 -0.74314481823134659 0.5 0 0 1 I I -0.70710678118654746 0.70710678118654746 0.5 forward I I I I #
loop $-1 $-1 $90 $23 #
coedge $-1 $56 $56 $91 $92 reversed $35 $-1 #
face $-1 $-1 $93 $19 $-1 $94 forward single #
loop $-1 $95 $96 $37 #
cone-surface $-1 -23.186357628634028 -32.678521621498192 10.110043836666247 0 0.66913061440640931 -0.74314481823134659 0.5 0 0 1 I I -0.70710678118654746 0.70710678118654746 0.5 forward I I I I #
loop $-1 $-1 $97 $24 #
coedge $-1 $61 $61 $98 $99 reversed $38 $-1 #
face $-1 $100 $101 $15 $-1 $102 reversed single #
loop $-1 $-1 $103 $40 #
plane-surface $-1 0 -44.666946791445817 0 0 1 0 0 0 1 forward_v I I I I #
coedge $-1 $104 $105 $106 $107 forward $41 $-1 #
coedge $-1 $108 $43 $109 $110 forward $26 $-1 #
coedge $-1 $43 $108 $111 $112 forward $26 $-1 #
coedge $-1 $113 $114 $43 $69 reversed $115 $-1 #
edge $-1 $116 -44.666946791445817 $117 44.666946791445817 $68 $118 forward 7 unknown #
face $-1 $119 $120 $16 $-1 $121 reversed single #
loop $-1 $-1 $76 $44 #
plane-surface $-1 -78.409093138429455 0 -4.5150458012133114 0 0 1 1 0 0 forward_v I I I I #
coedge $-1 $122 $123 $75 $124 forward $45 $-1 #
coedge $-1 $125 $47 $126 $127 reversed $29 $-1 #
coedge $-1 $47 $125 $73 $124 reversed $29 $-1 #
coedge $-1 $128 $129 $47 $77 reversed $71 $-1 #
edge $-1 $130 -44.666946791445817 $131 44.666946791445817 $76 $132 forward 7 unknown #
face $-1 $133 $134 $17 $-1 $135 reversed single #
loop $-1 $-1 $136 $48 #
plane-surface $-1 -31.146718459326969 -130.79237020131913 98.873339798541565 1 0 0 0 0.66913061440640931 -0.74314481823134659 forward_v I I I I #
coedge $-1 $137 $138 $139 $140 reversed $49 $-1 #
coedge $-1 $83 $51 $141 $142 reversed $32 $-1 #
coedge $-1 $51 $82 $137 $143 reversed $32 $-1 #
coedge $-1 $139 $144 $51 $85 forward $145 $-1 #
edge $-1 $146 20.729238309213748 $147 40.821733052950876 $84 $148 forward 7 unknown #
loop $-1 $-1 $91 $52 #
plane-surface $-1 -25.574465877841909 -44.666946791445795 3.2213687976238958 0 -0.66913061440640931 0.74314481823134659 1 0 0 forward_v I I I I #
loop $-1 $-1 $149 $34 #
coedge $-1 $89 $89 $90 $150 reversed $53 $-1 #
coedge $-1 $90 $90 $89 $150 forward $55 $-1 #
coedge $-1 $91 $91 $56 $92 forward $86 $-1 #
edge $-1 $151 -5.0067422302496628e-015 $151 6.2831853071795951 $91 $152 forward 7 unknown #
loop $-1 $-1 $98 $57 #
plane-surface $-1 -25.574465877841909 -44.666946791445795 3.2213687976238958 0 -0.66913061440640931 0.74314481823134659 1 0 0 forward_v I I I I #
loop $-1 $-1 $153 $37 #
coedge $-1 $96 $96 $97 $154 reversed $58 $-1 #
coedge $-1 $97 $97 $96 $154 forward $60 $-1 #
coedge $-1 $98 $98 $61 $99 forward $93 $-1 #
edge $-1 $155 -5.0067422302496628e-015 $155 6.2831853071795951 $98 $156 forward 7 unknown #
face $-1 $157 $158 $15 $-1 $159 reversed single #
loop $-1 $-1 $160 $62 #
plane-surface $-1 -64.356212042603843 0 0 1 0 0 0 0 -1 forward_v I I I I #
coedge $-1 $161 $111 $162 $163 forward $63 $-1 #
coedge $-1 $164 $65 $161 $165 forward $41 $-1 #
coedge $-1 $65 $164 $166 $167 forward $41 $-1 #
coedge $-1 $114 $113 $65 $107 reversed $115 $-1 #
edge $-1 $168 -44.666946791445817 $169 44.666946791445817 $106 $170 forward 7 unknown #
coedge $-1 $67 $66 $171 $172 forward $26 $-1 #
coedge $-1 $173 $174 $66 $110 reversed $158 $-1 #
edge $-1 $117 -64.356212042603843 $175 64.356212042603843 $109 $176 forward 7 unknown #
coedge $-1 $103 $177 $67 $112 reversed $63 $-1 #
edge $-1 $178 -64.356212042603843 $116 64.356212042603843 $111 $179 forward 7 unknown #
coedge $-1 $106 $68 $177 $180 forward $115 $-1 #
coedge $-1 $68 $106 $173 $181 reversed $115 $-1 #
loop $-1 $-1 $113 $157 #
vertex $-1 $69 $182 #
vertex $-1 $69 $183 #
straight-curve $-1 64.356212042603843 0 21.312732718900659 0 1 0 I I #
face $-1 $184 $185 $16 $-1 $186 reversed single #
loop $-1 $-1 $187 $70 #
plane-surface $-1 -78.409093138429455 0 -16.223227098855549 0 0 1 1 0 0 forward_v I I I I #
coedge $-1 $188 $73 $189 $190 reversed $45 $-1 #
coedge $-1 $73 $188 $128 $191 reversed $45 $-1 #
edge $-1 $130 4.5150458012133114 $192 16.223227098855549 $73 $193 forward 7 unknown #
coedge $-1 $75 $74 $187 $194 forward $29 $-1 #
coedge $-1 $195 $196 $74 $127 forward $197 $-1 #
edge $-1 $198 -16.223227098855549 $131 -4.5150458012133114 $126 $199 forward 7 unknown #
coedge $-1 $200 $76 $123 $191 forward $71 $-1 #
coedge $-1 $76 $200 $195 $201 forward $71 $-1 #
vertex $-1 $124 $202 #
vertex $-1 $201 $203 #
straight-curve $-1 -64.356212042603843 0 -4.5150458012133114 0 -1 0 I I #
face $-1 $-1 $145 $17 $-1 $204 forward single #
loop $-1 $-1 $205 $78 #
plane-surface $-1 0 -44.666946791445817 0 0 1 0 0 0 1 forward_v I I I I #
coedge $-1 $206 $207 $208 $209 reversed $79 $-1 #
coedge $-1 $210 $81 $83 $143 forward $49 $-1 #
coedge $-1 $81 $210 $206 $211 forward $49 $-1 #
coedge $-1 $208 $84 $81 $140 forward $145 $-1 #
edge $-1 $147 7.2149803574358948 $212 18.359485520406015 $139 $213 forward 7 unknown #
coedge $-1 $214 $215 $82 $142 forward $134 $-1 #
edge $-1 $216 -46.215301101646908 $146 -28.123937180370124 $141 $217 forward 7 unknown #
edge $-1 $147 -27.037118810242667 $216 2.8618693057405159e-014 $83 $218 forward 7 unknown #
coedge $-1 $84 $208 $214 $219 forward $145 $-1 #
loop $-1 $-1 $208 $133 #
vertex $-1 $142 $220 #
vertex $-1 $85 $221 #
straight-curve $-1 -20.00221329635685 -65.396185100659565 21.312732718900662 0 1 0 I I #
coedge $-1 $149 $149 $-1 $222 reversed $88 $-1 #
edge $-1 $223 0 $223 6.2831853071796004 $89 $224 forward 7 unknown #
vertex $-1 $92 $225 #
ellipse-curve $-1 -27.962574127049791 -34.62069941957725 12.267050758262267 0 -0.66913061440640931 0.74314481823134659 1 0 0 1 I I #
coedge $-1 $153 $153 $-1 $226 reversed $95 $-1 #
edge $-1 $227 0 $227 6.2831853071796004 $96 $228 forward 7 unknown #
vertex $-1 $99 $229 #
ellipse-curve $-1 -23.186357628634028 -34.62069941957725 12.267050758262267 0 -0.66913061440640931 0.74314481823134659 1 0 0 1 I I #
face $-1 $-1 $115 $15 $-1 $230 reversed single #
loop $-1 $-1 $173 $100 #
plane-surface $-1 0 44.666946791445817 0 0 -1 0 0 0 -1 forward_v I I I I #
coedge $-1 $231 $171 $174 $232 forward $101 $-1 #
coedge $-1 $177 $103 $104 $165 reversed $63 $-1 #
coedge $-1 $171 $231 $103 $163 reversed $101 $-1 #
edge $-1 $178 -21.312732718900659 $233 21.312732718900659 $162 $234 forward 7 unknown #
coedge $-1 $105 $104 $231 $235 forward $41 $-1 #
edge $-1 $169 -64.356212042603843 $233 64.356212042603843 $161 $236 forward 7 unknown #
coedge $-1 $174 $173 $105 $167 reversed $158 $-1 #
edge $-1 $237 -64.356212042603843 $168 64.356212042603843 $166 $238 forward 7 unknown #
vertex $-1 $107 $239 #
vertex $-1 $180 $240 #
straight-curve $-1 64.356212042603843 0 -21.312732718900659 0 -1 0 I I #
coedge $-1 $160 $162 $108 $172 reversed $101 $-1 #
edge $-1 $175 -44.666946791445817 $178 44.666946791445817 $171 $241 forward 7 unknown #
coedge $-1 $166 $109 $114 $181 forward $158 $-1 #
coedge $-1 $109 $166 $160 $232 reversed $158 $-1 #
vertex $-1 $110 $242 #
straight-curve $-1 0 44.666946791445817 21.312732718900659 -1 0 0 I I #
coedge $-1 $111 $161 $113 $180 reversed $63 $-1 #
vertex $-1 $172 $243 #
straight-curve $-1 0 -44.666946791445817 21.312732718900659 1 0 0 I I #
edge $-1 $116 -21.312732718900659 $169 21.312732718900659 $113 $244 forward 7 unknown #
edge $-1 $117 -21.312732718900659 $168 21.312732718900659 $114 $245 forward 7 unknown #
point $-1 64.356212042603843 -44.666946791445817 21.312732718900659 #
point $-1 64.356212042603843 44.666946791445817 21.312732718900659 #
face $-1 $-1 $197 $16 $-1 $246 reversed single #
loop $-1 $-1 $247 $119 #
plane-surface $-1 -92.461974234255067 0 -10.36913645003443 1 0 0 0 0 -1 forward_v I I I I #
coedge $-1 $248 $189 $125 $194 reversed $120 $-1 #
coedge $-1 $123 $122 $247 $249 reversed $45 $-1 #
coedge $-1 $187 $250 $122 $190 forward $120 $-1 #
edge $-1 $251 -14.052881095825612 $192 14.052881095825612 $122 $252 forward 7 unknown #
edge $-1 $130 -14.052881095825612 $253 14.052881095825612 $123 $254 forward 7 unknown #
vertex $-1 $124 $255 #
straight-curve $-1 -64.356212042603843 44.666946791445817 0 0 0 -1 I I #
edge $-1 $198 -44.666946791445817 $192 44.666946791445817 $187 $256 forward 7 unknown #
coedge $-1 $257 $126 $129 $201 reversed $197 $-1 #
coedge $-1 $126 $257 $248 $258 reversed $197 $-1 #
loop $-1 $-1 $126 $184 #
vertex $-1 $127 $259 #
straight-curve $-1 -64.356212042603843 -44.666946791445817 0 0 0 1 I I #
coedge $-1 $129 $128 $260 $261 forward $71 $-1 #
edge $-1 $262 -14.052881095825612 $131 14.052881095825612 $195 $263 forward 7 unknown #
point $-1 -64.356212042603843 44.666946791445817 -4.5150458012133114 #
point $-1 -64.356212042603843 -44.666946791445817 -4.5150458012133114 #
plane-surface $-1 0 0 21.312732718900659 0 0 1 1 0 0 forward_v I I I I #
coedge $-1 $215 $214 $207 $264 forward $134 $-1 #
coedge $-1 $207 $136 $138 $211 reversed $79 $-1 #
coedge $-1 $136 $206 $205 $264 reversed $79 $-1 #
coedge $-1 $144 $139 $136 $209 forward $145 $-1 #
edge $-1 $212 -40.821733052950876 $265 -20.729238309213748 $208 $266 forward 7 unknown #
coedge $-1 $138 $137 $215 $267 reversed $49 $-1 #
edge $-1 $268 -2.8618693057405159e-014 $212 27.037118810242667 $206 $269 forward 7 unknown #
vertex $-1 $140 $270 #
straight-curve $-1 -12.787232938920955 -24.574452047708686 21.312732718900659 -1 0 0 I I #
coedge $-1 $205 $141 $144 $219 reversed $134 $-1 #
coedge $-1 $141 $205 $210 $267 forward $134 $-1 #
vertex $-1 $142 $271 #
straight-curve $-1 -20.00221329635685 -44.666946791445817 49.436669899270782 0 0 1 I I #
straight-curve $-1 -20.00221329635685 -44.666946791445795 3.2213687976238958 0 -0.74314481823134659 -0.66913061440640931 I I #
edge $-1 $265 -31.146718459326969 $146 -20.00221329635685 $214 $272 forward 7 unknown #
point $-1 -20.00221329635685 -44.666946791445817 21.312732718900659 #
point $-1 -20.00221329635685 -24.574452047708686 21.312732718900659 #
edge $-1 $273 1 $273 0 $149 $-1 forward 7 unknown #
vertex $-1 $150 $274 #
ellipse-curve $-1 -27.962574127049791 -33.013086928701398 10.48161624578192 0 -0.66913061440640931 0.74314481823134659 1 0 0 1 I I #
point $-1 -26.962574127049791 -34.620699419577285 12.267050758262299 #
edge $-1 $275 1 $275 0 $153 $-1 forward 7 unknown #
vertex $-1 $154 $276 #
ellipse-curve $-1 -23.186357628634028 -33.013086928701398 10.48161624578192 0 -0.66913061440640931 0.74314481823134659 1 0 0 1 I I #
point $-1 -22.186357628634028 -34.620699419577285 12.267050758262299 #
plane-surface $-1 64.356212042603843 0 0 -1 0 0 0 0 1 forward_v I I I I #
coedge $-1 $162 $160 $164 $235 reversed $101 $-1 #
edge $-1 $175 -21.312732718900659 $237 21.312732718900659 $174 $277 forward 7 unknown #
vertex $-1 $235 $278 #
straight-curve $-1 -64.356212042603843 -44.666946791445817 0 0 0 -1 I I #
edge $-1 $233 -44.666946791445817 $237 44.666946791445817 $231 $279 forward 7 unknown #
straight-curve $-1 0 -44.666946791445817 -21.312732718900659 -1 0 0 I I #
vertex $-1 $167 $280 #
straight-curve $-1 0 44.666946791445817 -21.312732718900659 1 0 0 I I #
point $-1 64.356212042603843 44.666946791445817 -21.312732718900659 #
point $-1 64.356212042603843 -44.666946791445817 -21.312732718900659 #
straight-curve $-1 -64.356212042603843 0 21.312732718900659 0 -1 0 I I #
point $-1 -64.356212042603843 44.666946791445817 21.312732718900659 #
point $-1 -64.356212042603843 -44.666946791445817 21.312732718900659 #
straight-curve $-1 64.356212042603843 -44.666946791445817 0 0 0 -1 I I #
straight-curve $-1 64.356212042603843 44.666946791445817 0 0 0 -1 I I #
plane-surface $-1 0 -44.666946791445817 0 0 1 0 0 0 1 forward_v I I I I #
coedge $-1 $281 $260 $188 $249 forward $185 $-1 #
coedge $-1 $250 $187 $196 $258 forward $120 $-1 #
edge $-1 $253 -5.8540906488211188 $251 5.8540906488211188 $188 $282 forward 7 unknown #
coedge $-1 $189 $248 $281 $283 forward $120 $-1 #
vertex $-1 $190 $284 #
straight-curve $-1 -78.409093138429455 44.666946791445817 -16.223227098855549 1 0 0 I I #
vertex $-1 $191 $285 #
straight-curve $-1 -78.409093138429455 44.666946791445817 -4.5150458012133114 -1 0 0 I I #
point $-1 -64.356212042603843 44.666946791445817 -16.223227098855549 #
straight-curve $-1 -64.356212042603843 0 -16.223227098855549 0 1 0 I I #
coedge $-1 $196 $195 $286 $287 forward $197 $-1 #
edge $-1 $198 -14.052881095825612 $288 14.052881095825612 $196 $289 forward 7 unknown #
point $-1 -64.356212042603843 -44.666946791445817 -16.223227098855549 #
coedge $-1 $247 $286 $200 $261 reversed $185 $-1 #
edge $-1 $253 -44.666946791445817 $262 44.666946791445817 $260 $290 forward 7 unknown #
vertex $-1 $261 $291 #
straight-curve $-1 -78.409093138429455 -44.666946791445817 -4.5150458012133114 1 0 0 I I #
edge $-1 $265 28.123937180370124 $268 46.215301101646908 $205 $292 forward 7 unknown #
vertex $-1 $219 $293 #
straight-curve $-1 -31.146718459326969 -65.396185100659565 21.312732718900662 0 -1 0 I I #
edge $-1 $268 -18.359485520406015 $216 -7.2149803574358948 $215 $294 forward 7 unknown #
vertex $-1 $267 $295 #
straight-curve $-1 -31.146718459326969 -44.666946791445795 3.2213687976238958 0 0.74314481823134659 0.66913061440640931 I I #
point $-1 -31.146718459326969 -24.574452047708686 21.312732718900659 #
point $-1 -20.00221329635685 -44.666946791445817 3.2213687976238767 #
straight-curve $-1 0 -44.666946791445817 21.312732718900659 1 0 0 I I #
vertex $-1 $222 $296 #
point $-1 -26.962574127049791 -33.013086928701398 10.48161624578192 #
vertex $-1 $226 $297 #
point $-1 -22.186357628634028 -33.013086928701398 10.48161624578192 #
straight-curve $-1 -64.356212042603843 44.666946791445817 0 0 0 -1 I I #
point $-1 -64.356212042603843 -44.666946791445817 -21.312732718900659 #
straight-curve $-1 -64.356212042603843 0 -21.312732718900659 0 1 0 I I #
point $-1 -64.356212042603843 44.666946791445817 -21.312732718900659 #
coedge $-1 $286 $247 $250 $283 reversed $185 $-1 #
straight-curve $-1 -92.461974234255067 44.666946791445817 -10.36913645003443 0 0 -1 I I #
edge $-1 $288 -44.666946791445817 $251 44.666946791445817 $281 $298 forward 7 unknown #
point $-1 -92.461974234255067 44.666946791445817 -16.223227098855549 #
point $-1 -92.461974234255067 44.666946791445817 -4.5150458012133114 #
coedge $-1 $260 $281 $257 $287 reversed $185 $-1 #
edge $-1 $262 -5.8540906488211188 $288 5.8540906488211188 $286 $299 forward 7 unknown #
vertex $-1 $283 $300 #
straight-curve $-1 -78.409093138429455 -44.666946791445817 -16.223227098855549 -1 0 0 I I #
straight-curve $-1 -92.461974234255067 0 -4.5150458012133114 0 -1 0 I I #
point $-1 -92.461974234255067 -44.666946791445817 -4.5150458012133114 #
straight-curve $-1 -31.146718459326969 -44.666946791445817 49.436669899270782 0 0 -1 I I #
point $-1 -31.146718459326969 -44.666946791445817 21.312732718900659 #
straight-curve $-1 -12.787232938920955 -44.666946791445817 3.2213687976238825 1 0 0 I I #
point $-1 -31.146718459326969 -44.666946791445817 3.2213687976238767 #
point $-1 -27.962574127049791 -32.343956314294985 9.7384714275505733 #
point $-1 -23.186357628634028 -32.343956314294985 9.7384714275505733 #
straight-curve $-1 -92.461974234255067 0 -16.223227098855549 0 1 0 I I #
straight-curve $-1 -92.461974234255067 -44.666946791445817 -10.36913645003443 0 0 -1 I I #
point $-1 -92.461974234255067 -44.666946791445817 -16.223227098855549 #
End-of-ACIS-data 