500 0 16 0           
7 Unknown 11 ACIS 5.0 NT 24 Thu Mar 25 22:10:28 1999 
-1 9.9999999999999995e-007 1e-010 
body $-1 $16 $-1 $17 #
body $-1 $18 $-1 $19 #
body $-1 $20 $-1 $21 #
body $-1 $22 $-1 $23 #
body $-1 $24 $-1 $25 #
body $-1 $26 $-1 $27 #
body $-1 $28 $-1 $29 #
body $-1 $30 $-1 $31 #
body $-1 $32 $-1 $33 #
body $-1 $34 $-1 $35 #
body $-1 $36 $-1 $37 #
body $-1 $38 $-1 $39 #
body $-1 $40 $-1 $41 #
body $-1 $42 $-1 $43 #
body $-1 $44 $-1 $45 #
body $-1 $46 $-1 $47 #
lump $-1 $-1 $48 $0 #
transform $-1 1 0 0 0 1 0 0 0 1 63.247779778435621 40.973914158963048 16.67929789145569 1 rotate no_reflect no_shear #
lump $-1 $-1 $49 $1 #
transform $-1 1 0 0 0 1 0 0 0 1 63.247779778435621 40.973914158963048 16.67929789145569 1 rotate no_reflect no_shear #
lump $-1 $-1 $50 $2 #
transform $-1 1 0 0 0 1 0 0 0 1 63.247779778435621 40.973914158963048 16.67929789145569 1 rotate no_reflect no_shear #
lump $-1 $-1 $51 $3 #
transform $-1 1 0 0 0 1 0 0 0 1 63.247779778435621 40.973914158963048 16.67929789145569 1 rotate no_reflect no_shear #
lump $-1 $-1 $52 $4 #
transform $-1 1 0 0 0 1 0 0 0 1 63.247779778435621 40.973914158963048 16.67929789145569 1 rotate no_reflect no_shear #
lump $-1 $-1 $53 $5 #
transform $-1 1 0 0 0 1 0 0 0 1 63.247779778435621 40.973914158963048 16.67929789145569 1 rotate no_reflect no_shear #
lump $-1 $-1 $54 $6 #
transform $-1 1 0 0 0 1 0 0 0 1 63.247779778435621 40.973914158963048 16.67929789145569 1 rotate no_reflect no_shear #
lump $-1 $-1 $55 $7 #
transform $-1 1 0 0 0 1 0 0 0 1 63.247779778435621 40.973914158963048 16.67929789145569 1 rotate no_reflect no_shear #
lump $-1 $-1 $56 $8 #
transform $-1 1 0 0 0 1 0 0 0 1 63.247779778435621 40.973914158963048 16.67929789145569 1 rotate no_reflect no_shear #
lump $-1 $-1 $57 $9 #
transform $-1 1 0 0 0 1 0 0 0 1 63.247779778435621 40.973914158963048 16.67929789145569 1 rotate no_reflect no_shear #
lump $-1 $-1 $58 $10 #
transform $-1 1 0 0 0 1 0 0 0 1 63.247779778435621 40.973914158963048 16.67929789145569 1 rotate no_reflect no_shear #
lump $-1 $-1 $59 $11 #
transform $-1 1 0 0 0 1 0 0 0 1 63.247779778435621 40.973914158963048 16.67929789145569 1 rotate no_reflect no_shear #
lump $-1 $-1 $60 $12 #
transform $-1 1 0 0 0 1 0 0 0 1 63.247779778435621 40.973914158963048 16.67929789145569 1 rotate no_reflect no_shear #
lump $-1 $-1 $61 $13 #
transform $-1 1 0 0 0 1 0 0 0 1 63.247779778435621 40.973914158963048 16.67929789145569 1 rotate no_reflect no_shear #
lump $-1 $-1 $62 $14 #
transform $-1 1 0 0 0 1 0 0 0 1 63.247779778435621 40.973914158963048 16.67929789145569 1 rotate no_reflect no_shear #
lump $-1 $-1 $63 $15 #
transform $-1 1 0 0 0 1 0 0 0 1 63.247779778435621 40.973914158963048 16.67929789145569 1 rotate no_reflect no_shear #
shell $-1 $-1 $-1 $64 $-1 $16 #
shell $-1 $-1 $-1 $65 $-1 $18 #
shell $-1 $-1 $-1 $66 $-1 $20 #
shell $-1 $-1 $-1 $67 $-1 $22 #
shell $-1 $-1 $-1 $68 $-1 $24 #
shell $-1 $-1 $-1 $69 $-1 $26 #
shell $-1 $-1 $-1 $70 $-1 $28 #
shell $-1 $-1 $-1 $71 $-1 $30 #
shell $-1 $-1 $-1 $72 $-1 $32 #
shell $-1 $-1 $-1 $73 $-1 $34 #
shell $-1 $-1 $-1 $74 $-1 $36 #
shell $-1 $-1 $-1 $75 $-1 $38 #
shell $-1 $-1 $-1 $76 $-1 $40 #
shell $-1 $-1 $-1 $77 $-1 $42 #
shell $-1 $-1 $-1 $78 $-1 $44 #
shell $-1 $-1 $-1 $79 $-1 $46 #
face $-1 $80 $81 $48 $-1 $82 forward single #
face $-1 $83 $84 $49 $-1 $85 reversed single #
face $-1 $86 $87 $50 $-1 $88 reversed single #
face $-1 $89 $90 $51 $-1 $91 forward single #
face $-1 $92 $93 $52 $-1 $94 forward single #
face $-1 $95 $96 $53 $-1 $97 reversed single #
face $-1 $98 $99 $54 $-1 $100 forward single #
face $-1 $101 $102 $55 $-1 $103 forward single #
face $-1 $104 $105 $56 $-1 $106 reversed single #
face $-1 $107 $108 $57 $-1 $109 forward single #
face $-1 $110 $111 $58 $-1 $112 forward single #
face $-1 $113 $114 $59 $-1 $115 reversed single #
face $-1 $116 $117 $60 $-1 $118 forward single #
face $-1 $119 $120 $61 $-1 $121 forward single #
face $-1 $122 $123 $62 $-1 $124 reversed single #
face $-1 $125 $126 $63 $-1 $127 forward single #
face $-1 $128 $129 $48 $-1 $130 reversed single #
loop $-1 $-1 $131 $64 #
plane-surface $-1 0 0 16.67929789145569 0 0 1 1 0 0 forward_v I I I I #
face $-1 $132 $133 $49 $-1 $134 reversed single #
loop $-1 $-1 $135 $65 #
plane-surface $-1 0 -30.781619593563448 12.129917204328519 0 0 1 1 0 0 forward_v I I I I #
face $-1 $136 $137 $50 $-1 $138 reversed single #
loop $-1 $-1 $139 $66 #
plane-surface $-1 -171.67563810567972 -18.525965665556271 71.202116257782095 0 1 0 -0.85716730853699208 0 0.51503806187062418 forward_v I I I I #
face $-1 $140 $141 $51 $-1 $142 forward single #
loop $-1 $143 $144 $67 #
cone-surface $-1 -59.626460405919602 -16.555367093168865 11.108174128978037 0.85716730853699208 0 -0.51503806187062418 0.12875951546765604 0 0.21429182713424802 1 I I 0 1 0.25 forward I I I I #
face $-1 $145 $146 $52 $-1 $147 forward single #
loop $-1 $148 $149 $68 #
cone-surface $-1 -59.626460405919602 -13.599469234587758 11.108174128978037 0.85716730853699208 0 -0.51503806187062418 0.12875951546765604 0 0.21429182713424802 1 I I 0 1 0.25 forward I I I I #
face $-1 $150 $151 $53 $-1 $152 reversed single #
loop $-1 $-1 $153 $69 #
plane-surface $-1 -171.67563810567972 -3.1351558687745449 71.202116257782095 0 1 0 -0.85716730853699208 0 0.51503806187062418 forward_v I I I I #
face $-1 $154 $155 $54 $-1 $156 forward single #
loop $-1 $157 $158 $70 #
cone-surface $-1 -59.626460405919602 -1.1645572963871444 11.108174128978037 0.85716730853699208 0 -0.51503806187062418 0.12875951546765604 0 0.21429182713424802 1 I I 0 1 0.25 forward I I I I #
face $-1 $159 $160 $55 $-1 $161 forward single #
loop $-1 $162 $163 $71 #
cone-surface $-1 -59.626460405919602 1.791340562193966 11.108174128978037 0.85716730853699208 0 -0.51503806187062418 0.12875951546765604 0 0.21429182713424802 1 I I 0 1 0.25 forward I I I I #
face $-1 $164 $165 $56 $-1 $166 reversed single #
loop $-1 $-1 $167 $72 #
plane-surface $-1 -171.67563810567972 12.255653928007179 71.202116257782095 0 1 0 -0.85716730853699208 0 0.51503806187062418 forward_v I I I I #
face $-1 $168 $169 $57 $-1 $170 forward single #
loop $-1 $171 $172 $73 #
cone-surface $-1 -59.626460405919602 14.22625250039458 11.108174128978037 0.85716730853699208 0 -0.51503806187062418 0.12875951546765604 0 0.21429182713424802 1 I I 0 1 0.25 forward I I I I #
face $-1 $173 $174 $58 $-1 $175 forward single #
loop $-1 $176 $177 $74 #
cone-surface $-1 -59.626460405919602 17.18215035897569 11.108174128978037 0.85716730853699208 0 -0.51503806187062418 0.12875951546765604 0 0.21429182713424802 1 I I 0 1 0.25 forward I I I I #
face $-1 $178 $179 $59 $-1 $180 reversed single #
loop $-1 $-1 $181 $75 #
plane-surface $-1 -171.67563810567972 27.646463724788902 71.202116257782095 0 1 0 -0.85716730853699208 0 0.51503806187062418 forward_v I I I I #
face $-1 $182 $183 $60 $-1 $184 forward single #
loop $-1 $185 $186 $76 #
cone-surface $-1 -59.626460405919602 29.617062297176297 11.108174128978037 0.85716730853699208 0 -0.51503806187062418 0.12875951546765604 0 0.21429182713424802 1 I I 0 1 0.25 forward I I I I #
face $-1 $187 $188 $61 $-1 $189 forward single #
loop $-1 $190 $191 $77 #
cone-surface $-1 -59.626460405919602 32.572960155757407 11.108174128978037 0.85716730853699208 0 -0.51503806187062418 0.12875951546765604 0 0.21429182713424802 1 I I 0 1 0.25 forward I I I I #
face $-1 $192 $193 $62 $-1 $194 reversed single #
loop $-1 $-1 $195 $78 #
plane-surface $-1 26.054097981885867 21.693544062134045 177.84429165117999 0 -1 0 -0.54463904215088732 0 -0.83867056331134215 forward_v I I I I #
face $-1 $196 $197 $63 $-1 $198 forward single #
loop $-1 $199 $200 $79 #
cone-surface $-1 50.352193262082466 15.290625241742518 6.2950237456521894 -0.54463904215088732 0 -0.83867056331134215 2.0966764082783556 0 -1.3615976053772183 1 I I 0 1 2.5 forward I I I I #
face $-1 $201 $202 $48 $-1 $203 reversed single #
loop $-1 $-1 $204 $80 #
plane-surface $-1 0 0 -16.67929789145569 0 0 1 1 0 0 forward_v I I I I #
coedge $-1 $205 $206 $207 $208 forward $81 $-1 #
face $-1 $209 $210 $49 $-1 $211 reversed single #
loop $-1 $-1 $212 $83 #
plane-surface $-1 0 -20.589325028163849 14.404607547892105 0 -1 0 0 0 -1 forward_v I I I I #
coedge $-1 $213 $214 $215 $216 reversed $84 $-1 #
face $-1 $217 $218 $50 $-1 $219 reversed single #
loop $-1 $-1 $220 $86 #
plane-surface $-1 -63.2477797784356 -15.077418163878313 6.0520884283710075 -0.85716730853699208 0 0.51503806187062418 0.51503806187062418 0 0.85716730853699208 forward_v I I I I #
coedge $-1 $221 $222 $223 $224 reversed $87 $-1 #
face $-1 $-1 $225 $51 $-1 $226 forward single #
loop $-1 $227 $228 $89 #
cone-surface $-1 -59.090730838083985 -16.555367093168865 10.786275340308897 0.85716730853699208 0 -0.51503806187062418 0.064379757733828022 0 0.10714591356712401 1 I I -0.70710678118654746 0.70710678118654746 0.125 forward I I I I #
loop $-1 $-1 $229 $67 #
coedge $-1 $144 $144 $230 $231 reversed $90 $-1 #
face $-1 $-1 $232 $52 $-1 $233 forward single #
loop $-1 $234 $235 $92 #
cone-surface $-1 -59.090730838083985 -13.599469234587758 10.786275340308897 0.85716730853699208 0 -0.51503806187062418 0.064379757733828022 0 0.10714591356712401 1 I I -0.70710678118654746 0.70710678118654746 0.125 forward I I I I #
loop $-1 $-1 $236 $68 #
coedge $-1 $149 $149 $237 $238 reversed $93 $-1 #
face $-1 $239 $240 $53 $-1 $241 reversed single #
loop $-1 $-1 $242 $95 #
plane-surface $-1 -63.2477797784356 0.31339163290341077 6.0520884283710075 -0.85716730853699208 0 0.51503806187062418 0.51503806187062418 0 0.85716730853699208 forward_v I I I I #
coedge $-1 $243 $244 $245 $246 reversed $96 $-1 #
face $-1 $-1 $247 $54 $-1 $248 forward single #
loop $-1 $249 $250 $98 #
cone-surface $-1 -59.090730838083985 -1.1645572963871444 10.786275340308897 0.85716730853699208 0 -0.51503806187062418 0.064379757733828022 0 0.10714591356712401 1 I I -0.70710678118654746 0.70710678118654746 0.125 forward I I I I #
loop $-1 $-1 $251 $70 #
coedge $-1 $158 $158 $252 $253 reversed $99 $-1 #
face $-1 $-1 $254 $55 $-1 $255 forward single #
loop $-1 $256 $257 $101 #
cone-surface $-1 -59.090730838083985 1.791340562193966 10.786275340308897 0.85716730853699208 0 -0.51503806187062418 0.064379757733828022 0 0.10714591356712401 1 I I -0.70710678118654746 0.70710678118654746 0.125 forward I I I I #
loop $-1 $-1 $258 $71 #
coedge $-1 $163 $163 $259 $260 reversed $102 $-1 #
face $-1 $261 $262 $56 $-1 $263 reversed single #
loop $-1 $-1 $264 $104 #
plane-surface $-1 -63.2477797784356 15.704201429685135 6.0520884283710075 -0.85716730853699208 0 0.51503806187062418 0.51503806187062418 0 0.85716730853699208 forward_v I I I I #
coedge $-1 $265 $266 $267 $268 reversed $105 $-1 #
face $-1 $-1 $269 $57 $-1 $270 forward single #
loop $-1 $271 $272 $107 #
cone-surface $-1 -59.090730838083985 14.22625250039458 10.786275340308897 0.85716730853699208 0 -0.51503806187062418 0.064379757733828022 0 0.10714591356712401 1 I I -0.70710678118654746 0.70710678118654746 0.125 forward I I I I #
loop $-1 $-1 $273 $73 #
coedge $-1 $172 $172 $274 $275 reversed $108 $-1 #
face $-1 $-1 $276 $58 $-1 $277 forward single #
loop $-1 $278 $279 $110 #
cone-surface $-1 -59.090730838083985 17.18215035897569 10.786275340308897 0.85716730853699208 0 -0.51503806187062418 0.064379757733828022 0 0.10714591356712401 1 I I -0.70710678118654746 0.70710678118654746 0.125 forward I I I I #
loop $-1 $-1 $280 $74 #
coedge $-1 $177 $177 $281 $282 reversed $111 $-1 #
face $-1 $283 $284 $59 $-1 $285 reversed single #
loop $-1 $-1 $286 $113 #
plane-surface $-1 -63.2477797784356 31.095011226466859 6.0520884283710075 -0.85716730853699208 0 0.51503806187062418 0.51503806187062418 0 0.85716730853699208 forward_v I I I I #
coedge $-1 $287 $288 $289 $290 reversed $114 $-1 #
face $-1 $-1 $291 $60 $-1 $292 forward single #
loop $-1 $293 $294 $116 #
cone-surface $-1 -59.090730838083985 29.617062297176297 10.786275340308897 0.85716730853699208 0 -0.51503806187062418 0.064379757733828022 0 0.10714591356712401 1 I I -0.70710678118654746 0.70710678118654746 0.125 forward I I I I #
loop $-1 $-1 $295 $76 #
coedge $-1 $186 $186 $296 $297 reversed $117 $-1 #
face $-1 $-1 $298 $61 $-1 $299 forward single #
loop $-1 $300 $301 $119 #
cone-surface $-1 -59.090730838083985 32.572960155757407 10.786275340308897 0.85716730853699208 0 -0.51503806187062418 0.064379757733828022 0 0.10714591356712401 1 I I -0.70710678118654746 0.70710678118654746 0.125 forward I I I I #
loop $-1 $-1 $302 $77 #
coedge $-1 $191 $191 $303 $304 reversed $120 $-1 #
face $-1 $305 $306 $62 $-1 $307 reversed single #
loop $-1 $-1 $308 $122 #
plane-surface $-1 -42.840322411509 15.290625241742518 71.756189461235351 0.54463904215088732 0 0.83867056331134215 0.83867056331134215 0 -0.54463904215088732 forward_v I I I I #
coedge $-1 $309 $310 $311 $312 reversed $123 $-1 #
face $-1 $-1 $313 $63 $-1 $314 forward single #
loop $-1 $315 $316 $125 #
cone-surface $-1 47.414372005862369 15.290625241742518 1.7711758075171318 -0.54463904215088732 0 -0.83867056331134215 1.0483382041391778 0 -0.68079880268860915 1 I I -0.70710678118654746 0.70710678118654746 1.25 forward I I I I #
loop $-1 $-1 $317 $79 #
coedge $-1 $200 $200 $318 $319 reversed $126 $-1 #
face $-1 $320 $321 $48 $-1 $322 reversed single #
loop $-1 $-1 $323 $128 #
plane-surface $-1 0 -40.973914158963048 0 0 1 0 0 0 1 forward_v I I I I #
coedge $-1 $324 $325 $326 $327 forward $129 $-1 #
coedge $-1 $328 $131 $329 $330 forward $81 $-1 #
coedge $-1 $131 $328 $331 $332 forward $81 $-1 #
coedge $-1 $333 $334 $131 $208 reversed $335 $-1 #
edge $-1 $336 -40.973914158963048 $337 40.973914158963048 $207 $338 forward 7 unknown #
face $-1 $339 $340 $49 $-1 $341 reversed single #
loop $-1 $-1 $342 $132 #
plane-surface $-1 -63.247779778435621 0 0 1 0 0 0 0 -1 forward_v I I I I #
coedge $-1 $343 $344 $345 $346 reversed $133 $-1 #
coedge $-1 $347 $135 $348 $349 reversed $84 $-1 #
coedge $-1 $135 $347 $343 $350 forward $84 $-1 #
coedge $-1 $345 $351 $135 $216 forward $352 $-1 #
edge $-1 $353 -25.583104362181324 $354 -5.1985152313821246 $215 $355 forward 7 unknown #
face $-1 $356 $357 $50 $-1 $358 forward single #
loop $-1 $-1 $359 $136 #
plane-surface $-1 -171.67563810567972 -11.628870662200358 71.202116257782095 0 -1 0 0.85716730853699208 0 -0.51503806187062418 forward_v I I I I #
coedge $-1 $360 $361 $362 $363 reversed $137 $-1 #
coedge $-1 $222 $139 $364 $365 reversed $87 $-1 #
coedge $-1 $139 $221 $360 $366 reversed $87 $-1 #
coedge $-1 $362 $367 $139 $224 forward $357 $-1 #
edge $-1 $368 22.590039274404241 $369 28.9755107108993 $223 $370 forward 7 unknown #
loop $-1 $-1 $230 $140 #
plane-surface $-1 -63.2477797784356 -15.077418163878313 6.0520884283710075 -0.85716730853699208 0 0.51503806187062418 0.51503806187062418 0 0.85716730853699208 forward_v I I I I #
loop $-1 $-1 $371 $89 #
coedge $-1 $228 $228 $229 $372 reversed $141 $-1 #
coedge $-1 $229 $229 $228 $372 forward $143 $-1 #
coedge $-1 $230 $230 $144 $231 forward $225 $-1 #
edge $-1 $373 0 $373 6.2831853071796004 $230 $374 forward 7 unknown #
loop $-1 $-1 $237 $145 #
plane-surface $-1 -63.2477797784356 -15.077418163878313 6.0520884283710075 -0.85716730853699208 0 0.51503806187062418 0.51503806187062418 0 0.85716730853699208 forward_v I I I I #
loop $-1 $-1 $375 $92 #
coedge $-1 $235 $235 $236 $376 reversed $146 $-1 #
coedge $-1 $236 $236 $235 $376 forward $148 $-1 #
coedge $-1 $237 $237 $149 $238 forward $232 $-1 #
edge $-1 $377 0 $377 6.2831853071796004 $237 $378 forward 7 unknown #
face $-1 $379 $380 $53 $-1 $381 forward single #
loop $-1 $-1 $382 $150 #
plane-surface $-1 -171.67563810567972 3.7619391345813664 71.202116257782095 0 -1 0 0.85716730853699208 0 -0.51503806187062418 forward_v I I I I #
coedge $-1 $383 $384 $385 $386 reversed $151 $-1 #
coedge $-1 $244 $153 $387 $388 reversed $96 $-1 #
coedge $-1 $153 $243 $383 $389 reversed $96 $-1 #
coedge $-1 $385 $390 $153 $246 forward $380 $-1 #
edge $-1 $391 22.590039274404241 $392 28.9755107108993 $245 $393 forward 7 unknown #
loop $-1 $-1 $252 $154 #
plane-surface $-1 -63.2477797784356 0.31339163290341077 6.0520884283710075 -0.85716730853699208 0 0.51503806187062418 0.51503806187062418 0 0.85716730853699208 forward_v I I I I #
loop $-1 $-1 $394 $98 #
coedge $-1 $250 $250 $251 $395 reversed $155 $-1 #
coedge $-1 $251 $251 $250 $395 forward $157 $-1 #
coedge $-1 $252 $252 $158 $253 forward $247 $-1 #
edge $-1 $396 0 $396 6.2831853071796004 $252 $397 forward 7 unknown #
loop $-1 $-1 $259 $159 #
plane-surface $-1 -63.2477797784356 0.31339163290341077 6.0520884283710075 -0.85716730853699208 0 0.51503806187062418 0.51503806187062418 0 0.85716730853699208 forward_v I I I I #
loop $-1 $-1 $398 $101 #
coedge $-1 $257 $257 $258 $399 reversed $160 $-1 #
coedge $-1 $258 $258 $257 $399 forward $162 $-1 #
coedge $-1 $259 $259 $163 $260 forward $254 $-1 #
edge $-1 $400 0 $400 6.2831853071796004 $259 $401 forward 7 unknown #
face $-1 $402 $403 $56 $-1 $404 forward single #
loop $-1 $-1 $405 $164 #
plane-surface $-1 -171.67563810567972 19.152748931363092 71.202116257782095 0 -1 0 0.85716730853699208 0 -0.51503806187062418 forward_v I I I I #
coedge $-1 $406 $407 $408 $409 reversed $165 $-1 #
coedge $-1 $266 $167 $410 $411 reversed $105 $-1 #
coedge $-1 $167 $265 $406 $412 reversed $105 $-1 #
coedge $-1 $408 $413 $167 $268 forward $403 $-1 #
edge $-1 $414 22.590039274404241 $415 28.9755107108993 $267 $416 forward 7 unknown #
loop $-1 $-1 $274 $168 #
plane-surface $-1 -63.2477797784356 15.704201429685135 6.0520884283710075 -0.85716730853699208 0 0.51503806187062418 0.51503806187062418 0 0.85716730853699208 forward_v I I I I #
loop $-1 $-1 $417 $107 #
coedge $-1 $272 $272 $273 $418 reversed $169 $-1 #
coedge $-1 $273 $273 $272 $418 forward $171 $-1 #
coedge $-1 $274 $274 $172 $275 forward $269 $-1 #
edge $-1 $419 0 $419 6.2831853071796004 $274 $420 forward 7 unknown #
loop $-1 $-1 $281 $173 #
plane-surface $-1 -63.2477797784356 15.704201429685135 6.0520884283710075 -0.85716730853699208 0 0.51503806187062418 0.51503806187062418 0 0.85716730853699208 forward_v I I I I #
loop $-1 $-1 $421 $110 #
coedge $-1 $279 $279 $280 $422 reversed $174 $-1 #
coedge $-1 $280 $280 $279 $422 forward $176 $-1 #
coedge $-1 $281 $281 $177 $282 forward $276 $-1 #
edge $-1 $423 0 $423 6.2831853071796004 $281 $424 forward 7 unknown #
face $-1 $425 $426 $59 $-1 $427 forward single #
loop $-1 $-1 $428 $178 #
plane-surface $-1 -171.67563810567972 34.543558728144816 71.202116257782095 0 -1 0 0.85716730853699208 0 -0.51503806187062418 forward_v I I I I #
coedge $-1 $429 $430 $431 $432 reversed $179 $-1 #
coedge $-1 $288 $181 $433 $434 reversed $114 $-1 #
coedge $-1 $181 $287 $429 $435 reversed $114 $-1 #
coedge $-1 $431 $436 $181 $290 forward $426 $-1 #
edge $-1 $437 22.590039274404241 $438 28.9755107108993 $289 $439 forward 7 unknown #
loop $-1 $-1 $296 $182 #
plane-surface $-1 -63.2477797784356 31.095011226466859 6.0520884283710075 -0.85716730853699208 0 0.51503806187062418 0.51503806187062418 0 0.85716730853699208 forward_v I I I I #
loop $-1 $-1 $440 $116 #
coedge $-1 $294 $294 $295 $441 reversed $183 $-1 #
coedge $-1 $295 $295 $294 $441 forward $185 $-1 #
coedge $-1 $296 $296 $186 $297 forward $291 $-1 #
edge $-1 $442 0 $442 6.2831853071796004 $296 $443 forward 7 unknown #
loop $-1 $-1 $303 $187 #
plane-surface $-1 -63.2477797784356 31.095011226466859 6.0520884283710075 -0.85716730853699208 0 0.51503806187062418 0.51503806187062418 0 0.85716730853699208 forward_v I I I I #
loop $-1 $-1 $444 $119 #
coedge $-1 $301 $301 $302 $445 reversed $188 $-1 #
coedge $-1 $302 $302 $301 $445 forward $190 $-1 #
coedge $-1 $303 $303 $191 $304 forward $298 $-1 #
edge $-1 $446 0 $446 6.2831853071796004 $303 $447 forward 7 unknown #
face $-1 $448 $449 $62 $-1 $450 reversed single #
loop $-1 $-1 $451 $192 #
plane-surface $-1 26.054097981885867 8.8877064213509911 177.84429165117999 0 1 0 0.54463904215088732 0 0.83867056331134215 forward_v I I I I #
coedge $-1 $452 $453 $454 $455 reversed $193 $-1 #
coedge $-1 $310 $195 $456 $457 reversed $123 $-1 #
coedge $-1 $195 $309 $452 $458 reversed $123 $-1 #
coedge $-1 $454 $459 $195 $312 forward $460 $-1 #
edge $-1 $461 -50.220730787492684 $462 -28.9436026618494 $311 $463 forward 7 unknown #
loop $-1 $-1 $318 $196 #
plane-surface $-1 -42.840322411509 15.290625241742518 71.756189461235351 0.54463904215088732 0 0.83867056331134215 0.83867056331134215 0 -0.54463904215088732 forward_v I I I I #
loop $-1 $-1 $464 $125 #
coedge $-1 $316 $316 $317 $465 reversed $197 $-1 #
coedge $-1 $317 $317 $316 $465 forward $199 $-1 #
coedge $-1 $318 $318 $200 $319 forward $313 $-1 #
edge $-1 $466 0 $466 6.2831853071796004 $318 $467 forward 7 unknown #
face $-1 $468 $469 $48 $-1 $470 reversed single #
loop $-1 $-1 $471 $201 #
plane-surface $-1 -63.247779778435621 0 0 1 0 0 0 0 -1 forward_v I I I I #
coedge $-1 $472 $331 $473 $474 forward $202 $-1 #
coedge $-1 $475 $204 $472 $476 forward $129 $-1 #
coedge $-1 $204 $475 $477 $478 forward $129 $-1 #
coedge $-1 $334 $333 $204 $327 reversed $335 $-1 #
edge $-1 $479 -40.973914158963048 $480 40.973914158963048 $326 $481 forward 7 unknown #
coedge $-1 $206 $205 $482 $483 forward $81 $-1 #
coedge $-1 $484 $485 $205 $330 reversed $469 $-1 #
edge $-1 $337 -63.247779778435621 $486 63.247779778435621 $329 $487 forward 7 unknown #
coedge $-1 $323 $488 $206 $332 reversed $202 $-1 #
edge $-1 $489 -63.247779778435621 $336 63.247779778435621 $331 $490 forward 7 unknown #
coedge $-1 $326 $207 $488 $491 forward $335 $-1 #
coedge $-1 $207 $326 $484 $492 reversed $335 $-1 #
loop $-1 $-1 $333 $468 #
vertex $-1 $208 $493 #
vertex $-1 $208 $494 #
straight-curve $-1 63.247779778435621 0 16.67929789145569 0 1 0 I I #
face $-1 $495 $496 $49 $-1 $497 forward single #
loop $-1 $-1 $348 $209 #
plane-surface $-1 0 -40.973914158963048 0 0 1 0 0 0 1 forward_v I I I I #
coedge $-1 $498 $499 $500 $501 forward $210 $-1 #
coedge $-1 $500 $212 $214 $350 reversed $133 $-1 #
coedge $-1 $212 $500 $502 $503 reversed $133 $-1 #
coedge $-1 $504 $215 $212 $346 forward $352 $-1 #
edge $-1 $354 4.9276134303824666 $505 9.4769941175096371 $345 $506 forward 7 unknown #
coedge $-1 $214 $213 $498 $507 reversed $84 $-1 #
coedge $-1 $508 $509 $213 $349 forward $340 $-1 #
edge $-1 $510 -63.247779778435621 $353 63.247779778435621 $348 $511 forward 7 unknown #
edge $-1 $512 -63.247779778435621 $354 63.247779778435621 $343 $513 forward 7 unknown #
coedge $-1 $215 $504 $508 $514 forward $352 $-1 #
loop $-1 $-1 $345 $495 #
vertex $-1 $349 $515 #
vertex $-1 $216 $516 #
straight-curve $-1 63.247779778435621 -15.390809796781724 12.129917204328519 0 1 0 I I #
face $-1 $-1 $517 $50 $-1 $518 reversed single #
loop $-1 $-1 $223 $217 #
plane-surface $-1 0 0 16.67929789145569 0 0 1 1 0 0 forward_v I I I I #
coedge $-1 $519 $520 $521 $522 reversed $218 $-1 #
coedge $-1 $523 $220 $222 $366 forward $137 $-1 #
coedge $-1 $220 $523 $519 $524 forward $137 $-1 #
coedge $-1 $521 $223 $220 $363 forward $357 $-1 #
edge $-1 $369 -10.987256583617114 $525 -4.090161580261201 $362 $526 forward 7 unknown #
coedge $-1 $527 $528 $221 $365 forward $517 $-1 #
edge $-1 $529 -29.548969700520075 $368 -18.921760237435358 $364 $530 forward 7 unknown #
edge $-1 $369 -12.398057365513788 $529 4.1431396825663817e-014 $222 $531 forward 7 unknown #
coedge $-1 $223 $521 $527 $532 forward $357 $-1 #
vertex $-1 $365 $533 #
vertex $-1 $224 $534 #
straight-curve $-1 -85.837819052839862 -18.525965665556271 16.67929789145569 1 0 0 I I #
coedge $-1 $371 $371 $-1 $535 reversed $227 $-1 #
edge $-1 $536 0 $536 6.2831853071796004 $228 $537 forward 7 unknown #
vertex $-1 $231 $538 #
ellipse-curve $-1 -60.055044060188088 -16.555367093168865 11.365693159913342 -0.85716730853699208 0 0.51503806187062418 0.12875951546765604 0 0.21429182713424802 1 I I #
coedge $-1 $375 $375 $-1 $539 reversed $234 $-1 #
edge $-1 $540 0 $540 6.2831853071796004 $235 $541 forward 7 unknown #
vertex $-1 $238 $542 #
ellipse-curve $-1 -60.055044060188088 -13.599469234587758 11.365693159913342 -0.85716730853699208 0 0.51503806187062418 0.12875951546765604 0 0.21429182713424802 1 I I #
face $-1 $-1 $543 $53 $-1 $544 reversed single #
loop $-1 $-1 $245 $239 #
plane-surface $-1 0 0 16.67929789145569 0 0 1 1 0 0 forward_v I I I I #
coedge $-1 $545 $546 $547 $548 reversed $240 $-1 #
coedge $-1 $549 $242 $244 $389 forward $151 $-1 #
coedge $-1 $242 $549 $545 $550 forward $151 $-1 #
coedge $-1 $547 $245 $242 $386 forward $380 $-1 #
edge $-1 $392 -3.2918516852262503 $551 3.605243318129661 $385 $552 forward 7 unknown #
coedge $-1 $553 $554 $243 $388 forward $543 $-1 #
edge $-1 $555 -29.548969700520075 $391 -18.921760237435358 $387 $556 forward 7 unknown #
edge $-1 $392 -12.398057365513788 $555 4.1431396825663817e-014 $244 $557 forward 7 unknown #
coedge $-1 $245 $547 $553 $558 forward $380 $-1 #
vertex $-1 $246 $559 #
vertex $-1 $246 $560 #
straight-curve $-1 -85.837819052839862 -3.1351558687745449 16.67929789145569 1 0 0 I I #
coedge $-1 $394 $394 $-1 $561 reversed $249 $-1 #
edge $-1 $562 0 $562 6.2831853071796004 $250 $563 forward 7 unknown #
vertex $-1 $253 $564 #
ellipse-curve $-1 -60.055044060188088 -1.1645572963871444 11.365693159913342 -0.85716730853699208 0 0.51503806187062418 0.12875951546765604 0 0.21429182713424802 1 I I #
coedge $-1 $398 $398 $-1 $565 reversed $256 $-1 #
edge $-1 $566 0 $566 6.2831853071796004 $257 $567 forward 7 unknown #
vertex $-1 $260 $568 #
ellipse-curve $-1 -60.055044060188088 1.791340562193966 11.365693159913342 -0.85716730853699208 0 0.51503806187062418 0.12875951546765604 0 0.21429182713424802 1 I I #
face $-1 $-1 $569 $56 $-1 $570 reversed single #
loop $-1 $-1 $267 $261 #
plane-surface $-1 0 0 16.67929789145569 0 0 1 1 0 0 forward_v I I I I #
coedge $-1 $571 $572 $573 $574 reversed $262 $-1 #
coedge $-1 $575 $264 $266 $412 forward $165 $-1 #
coedge $-1 $264 $575 $571 $576 forward $165 $-1 #
coedge $-1 $573 $267 $264 $409 forward $403 $-1 #
edge $-1 $415 4.4035532131646118 $577 11.300648216520525 $408 $578 forward 7 unknown #
coedge $-1 $579 $580 $265 $411 forward $569 $-1 #
edge $-1 $581 -29.548969700520075 $414 -18.921760237435358 $410 $582 forward 7 unknown #
edge $-1 $415 -12.398057365513788 $581 4.1431396825663817e-014 $266 $583 forward 7 unknown #
coedge $-1 $267 $573 $579 $584 forward $403 $-1 #
vertex $-1 $268 $585 #
vertex $-1 $268 $586 #
straight-curve $-1 -85.837819052839862 12.255653928007179 16.67929789145569 1 0 0 I I #
coedge $-1 $417 $417 $-1 $587 reversed $271 $-1 #
edge $-1 $588 0 $588 6.2831853071796004 $272 $589 forward 7 unknown #
vertex $-1 $275 $590 #
ellipse-curve $-1 -60.055044060188088 14.22625250039458 11.365693159913342 -0.85716730853699208 0 0.51503806187062418 0.12875951546765604 0 0.21429182713424802 1 I I #
coedge $-1 $421 $421 $-1 $591 reversed $278 $-1 #
edge $-1 $592 0 $592 6.2831853071796004 $279 $593 forward 7 unknown #
vertex $-1 $282 $594 #
ellipse-curve $-1 -60.055044060188088 17.18215035897569 11.365693159913342 -0.85716730853699208 0 0.51503806187062418 0.12875951546765604 0 0.21429182713424802 1 I I #
face $-1 $-1 $595 $59 $-1 $596 reversed single #
loop $-1 $-1 $289 $283 #
plane-surface $-1 0 0 16.67929789145569 0 0 1 1 0 0 forward_v I I I I #
coedge $-1 $597 $598 $599 $600 reversed $284 $-1 #
coedge $-1 $601 $286 $288 $435 forward $179 $-1 #
coedge $-1 $286 $601 $597 $602 forward $179 $-1 #
coedge $-1 $599 $289 $286 $432 forward $426 $-1 #
edge $-1 $438 12.098958111555472 $603 18.996053114911387 $431 $604 forward 7 unknown #
coedge $-1 $605 $606 $287 $434 forward $595 $-1 #
edge $-1 $607 -29.548969700520075 $437 -18.921760237435358 $433 $608 forward 7 unknown #
edge $-1 $438 -12.398057365513788 $607 4.1431396825663817e-014 $288 $609 forward 7 unknown #
coedge $-1 $289 $599 $605 $610 forward $426 $-1 #
vertex $-1 $290 $611 #
vertex $-1 $290 $612 #
straight-curve $-1 -85.837819052839862 27.646463724788902 16.67929789145569 1 0 0 I I #
coedge $-1 $440 $440 $-1 $613 reversed $293 $-1 #
edge $-1 $614 0 $614 6.2831853071796004 $294 $615 forward 7 unknown #
vertex $-1 $297 $616 #
ellipse-curve $-1 -60.055044060188088 29.617062297176297 11.365693159913342 -0.85716730853699208 0 0.51503806187062418 0.12875951546765604 0 0.21429182713424802 1 I I #
coedge $-1 $444 $444 $-1 $617 reversed $300 $-1 #
edge $-1 $618 0 $618 6.2831853071796004 $301 $619 forward 7 unknown #
vertex $-1 $304 $620 #
ellipse-curve $-1 -60.055044060188088 32.572960155757407 11.365693159913342 -0.85716730853699208 0 0.51503806187062418 0.12875951546765604 0 0.21429182713424802 1 I I #
face $-1 $-1 $460 $62 $-1 $621 forward single #
loop $-1 $-1 $622 $305 #
plane-surface $-1 63.247779778435621 0 0 -1 0 0 0 0 1 forward_v I I I I #
coedge $-1 $623 $624 $625 $626 reversed $306 $-1 #
coedge $-1 $627 $308 $310 $458 forward $193 $-1 #
coedge $-1 $308 $627 $623 $628 forward $193 $-1 #
coedge $-1 $625 $311 $308 $455 forward $460 $-1 #
edge $-1 $462 -14.048231441262786 $629 -1.2423938004797321 $454 $630 forward 7 unknown #
coedge $-1 $631 $632 $309 $457 forward $449 $-1 #
edge $-1 $633 -86.060376757749509 $461 -72.242847934134304 $456 $634 forward 7 unknown #
edge $-1 $462 101.12549286270431 $633 126.49555955687123 $310 $635 forward 7 unknown #
coedge $-1 $311 $625 $631 $636 forward $460 $-1 #
loop $-1 $-1 $625 $448 #
vertex $-1 $457 $637 #
vertex $-1 $312 $638 #
straight-curve $-1 13.027048990942934 21.693544062134045 16.67929789145569 -1 0 0 I I #
coedge $-1 $464 $464 $-1 $639 reversed $315 $-1 #
edge $-1 $640 0 $640 6.2831853071796004 $316 $641 forward 7 unknown #
vertex $-1 $319 $642 #
ellipse-curve $-1 52.609215715613971 15.290625241742518 9.7705334796480905 0.54463904215088732 0 0.83867056331134215 2.0966764082783556 0 -1.3615976053772183 1 I I #
face $-1 $-1 $335 $48 $-1 $643 reversed single #
loop $-1 $-1 $484 $320 #
plane-surface $-1 0 40.973914158963048 0 0 -1 0 0 0 -1 forward_v I I I I #
coedge $-1 $644 $482 $485 $645 forward $321 $-1 #
coedge $-1 $488 $323 $324 $476 reversed $202 $-1 #
coedge $-1 $482 $644 $323 $474 reversed $321 $-1 #
edge $-1 $489 -16.67929789145569 $646 16.67929789145569 $473 $647 forward 7 unknown #
coedge $-1 $325 $324 $644 $648 forward $129 $-1 #
edge $-1 $480 -63.247779778435621 $646 63.247779778435621 $472 $649 forward 7 unknown #
coedge $-1 $485 $484 $325 $478 reversed $469 $-1 #
edge $-1 $650 -63.247779778435621 $479 63.247779778435621 $477 $651 forward 7 unknown #
vertex $-1 $327 $652 #
vertex $-1 $491 $653 #
straight-curve $-1 63.247779778435621 0 -16.67929789145569 0 -1 0 I I #
coedge $-1 $471 $473 $328 $483 reversed $321 $-1 #
edge $-1 $486 -40.973914158963048 $489 40.973914158963048 $482 $654 forward 7 unknown #
coedge $-1 $477 $329 $334 $492 forward $469 $-1 #
coedge $-1 $329 $477 $471 $645 reversed $469 $-1 #
vertex $-1 $330 $655 #
straight-curve $-1 0 40.973914158963048 16.67929789145569 -1 0 0 I I #
coedge $-1 $331 $472 $333 $491 reversed $202 $-1 #
vertex $-1 $483 $656 #
straight-curve $-1 0 -40.973914158963048 16.67929789145569 1 0 0 I I #
edge $-1 $336 -16.67929789145569 $480 16.67929789145569 $333 $657 forward 7 unknown #
edge $-1 $337 -16.67929789145569 $479 16.67929789145569 $334 $658 forward 7 unknown #
point $-1 63.247779778435621 -40.973914158963048 16.67929789145569 #
point $-1 63.247779778435621 40.973914158963048 16.67929789145569 #
face $-1 $-1 $352 $49 $-1 $659 reversed single #
loop $-1 $-1 $502 $339 #
plane-surface $-1 0 0 16.67929789145569 0 0 1 1 0 0 forward_v I I I I #
coedge $-1 $660 $342 $347 $507 forward $210 $-1 #
coedge $-1 $342 $660 $661 $662 reversed $210 $-1 #
coedge $-1 $344 $343 $342 $501 reversed $133 $-1 #
edge $-1 $663 -9.4769941175096371 $512 -4.9276134303824666 $342 $664 forward 7 unknown #
coedge $-1 $661 $665 $344 $503 forward $496 $-1 #
edge $-1 $505 -63.247779778435621 $663 63.247779778435621 $502 $666 forward 7 unknown #
coedge $-1 $351 $345 $665 $667 reversed $352 $-1 #
vertex $-1 $346 $668 #
straight-curve $-1 63.247779778435621 -20.589325028163849 7.2023037739460527 0 0 1 I I #
edge $-1 $512 5.1985152313821246 $510 25.583104362181324 $498 $669 forward 7 unknown #
coedge $-1 $670 $348 $351 $514 reversed $340 $-1 #
coedge $-1 $348 $670 $660 $671 forward $340 $-1 #
vertex $-1 $349 $672 #
straight-curve $-1 0 -40.973914158963048 12.129917204328519 1 0 0 I I #
vertex $-1 $507 $673 #
straight-curve $-1 0 -20.589325028163849 12.129917204328519 1 0 0 I I #
edge $-1 $674 -16.67929789145569 $353 -12.129917204328519 $351 $675 forward 7 unknown #
point $-1 63.247779778435621 -40.973914158963048 12.129917204328519 #
point $-1 63.247779778435621 -20.589325028163849 12.129917204328519 #
loop $-1 $-1 $364 $356 #
plane-surface $-1 -63.247779778435621 0 0 1 0 0 0 0 -1 forward_v I I I I #
coedge $-1 $520 $359 $361 $524 reversed $218 $-1 #
coedge $-1 $359 $519 $676 $677 reversed $218 $-1 #
coedge $-1 $367 $362 $359 $522 forward $357 $-1 #
edge $-1 $525 -28.9755107108993 $678 -22.590039274404241 $521 $679 forward 7 unknown #
coedge $-1 $361 $360 $528 $680 reversed $137 $-1 #
edge $-1 $681 -4.1431396825663817e-014 $525 12.398057365513788 $519 $682 forward 7 unknown #
vertex $-1 $363 $683 #
straight-curve $-1 -56.862308341940555 -7.5387090819391567 16.67929789145569 0 1 0 I I #
coedge $-1 $676 $364 $367 $532 reversed $517 $-1 #
coedge $-1 $364 $676 $523 $680 forward $517 $-1 #
vertex $-1 $365 $684 #
straight-curve $-1 -63.247779778435621 -18.525965665556271 35.601058128891047 0 0 1 I I #
straight-curve $-1 -63.2477797784356 -18.525965665556271 6.0520884283710075 -0.51503806187062418 0 -0.85716730853699208 I I #
edge $-1 $678 11.628870662200358 $368 18.525965665556271 $527 $685 forward 7 unknown #
point $-1 -63.247779778435621 -18.525965665556271 16.67929789145569 #
point $-1 -56.862308341940562 -18.525965665556271 16.67929789145569 #
edge $-1 $686 1 $686 0 $371 $-1 forward 7 unknown #
vertex $-1 $372 $687 #
ellipse-curve $-1 -59.197876751651108 -16.555367093168865 10.850655098042726 -0.85716730853699208 0 0.51503806187062418 0.12875951546765604 0 0.21429182713424802 1 I I #
point $-1 -59.926284544720446 -16.555367093168865 11.579984987047597 #
edge $-1 $688 1 $688 0 $375 $-1 forward 7 unknown #
vertex $-1 $376 $689 #
ellipse-curve $-1 -59.197876751651108 -13.599469234587758 10.850655098042726 -0.85716730853699208 0 0.51503806187062418 0.12875951546765604 0 0.21429182713424802 1 I I #
point $-1 -59.926284544720446 -13.599469234587758 11.579984987047597 #
loop $-1 $-1 $387 $379 #
plane-surface $-1 -63.247779778435621 0 0 1 0 0 0 0 -1 forward_v I I I I #
coedge $-1 $546 $382 $384 $550 reversed $240 $-1 #
coedge $-1 $382 $545 $690 $691 reversed $240 $-1 #
coedge $-1 $390 $385 $382 $548 forward $380 $-1 #
edge $-1 $551 -28.9755107108993 $692 -22.590039274404241 $547 $693 forward 7 unknown #
coedge $-1 $384 $383 $554 $694 reversed $151 $-1 #
edge $-1 $695 -4.1431396825663817e-014 $551 12.398057365513788 $545 $696 forward 7 unknown #
vertex $-1 $386 $697 #
straight-curve $-1 -56.862308341940555 0.15669581645170538 16.67929789145569 0 1 0 I I #
coedge $-1 $690 $387 $390 $558 reversed $543 $-1 #
coedge $-1 $387 $690 $549 $694 forward $543 $-1 #
vertex $-1 $388 $698 #
straight-curve $-1 -63.247779778435621 -3.1351558687745449 35.601058128891047 0 0 1 I I #
straight-curve $-1 -63.2477797784356 -3.1351558687745449 6.0520884283710075 -0.51503806187062418 0 -0.85716730853699208 I I #
edge $-1 $692 -3.7619391345813664 $391 3.1351558687745449 $553 $699 forward 7 unknown #
point $-1 -63.247779778435621 -3.1351558687745449 16.67929789145569 #
point $-1 -56.862308341940562 -3.1351558687745449 16.67929789145569 #
edge $-1 $700 1 $700 0 $394 $-1 forward 7 unknown #
vertex $-1 $395 $701 #
ellipse-curve $-1 -59.197876751651108 -1.1645572963871444 10.850655098042726 -0.85716730853699208 0 0.51503806187062418 0.12875951546765604 0 0.21429182713424802 1 I I #
point $-1 -59.926284544720446 -1.1645572963871444 11.579984987047597 #
edge $-1 $702 1 $702 0 $398 $-1 forward 7 unknown #
vertex $-1 $399 $703 #
ellipse-curve $-1 -59.197876751651108 1.791340562193966 10.850655098042726 -0.85716730853699208 0 0.51503806187062418 0.12875951546765604 0 0.21429182713424802 1 I I #
point $-1 -59.926284544720446 1.791340562193966 11.579984987047597 #
loop $-1 $-1 $410 $402 #
plane-surface $-1 -63.247779778435621 0 0 1 0 0 0 0 -1 forward_v I I I I #
coedge $-1 $572 $405 $407 $576 reversed $262 $-1 #
coedge $-1 $405 $571 $704 $705 reversed $262 $-1 #
coedge $-1 $413 $408 $405 $574 forward $403 $-1 #
edge $-1 $577 -28.9755107108993 $706 -22.590039274404241 $573 $707 forward 7 unknown #
coedge $-1 $407 $406 $580 $708 reversed $165 $-1 #
edge $-1 $709 -4.1431396825663817e-014 $577 12.398057365513788 $571 $710 forward 7 unknown #
vertex $-1 $409 $711 #
straight-curve $-1 -56.862308341940555 7.8521007148425674 16.67929789145569 0 1 0 I I #
coedge $-1 $704 $410 $413 $584 reversed $569 $-1 #
coedge $-1 $410 $704 $575 $708 forward $569 $-1 #
vertex $-1 $411 $712 #
straight-curve $-1 -63.247779778435621 12.255653928007179 35.601058128891047 0 0 1 I I #
straight-curve $-1 -63.2477797784356 12.255653928007179 6.0520884283710075 -0.51503806187062418 0 -0.85716730853699208 I I #
edge $-1 $706 -19.152748931363092 $414 -12.255653928007179 $579 $713 forward 7 unknown #
point $-1 -63.247779778435621 12.255653928007179 16.67929789145569 #
point $-1 -56.862308341940562 12.255653928007179 16.67929789145569 #
edge $-1 $714 1 $714 0 $417 $-1 forward 7 unknown #
vertex $-1 $418 $715 #
ellipse-curve $-1 -59.197876751651108 14.22625250039458 10.850655098042726 -0.85716730853699208 0 0.51503806187062418 0.12875951546765604 0 0.21429182713424802 1 I I #
point $-1 -59.926284544720446 14.22625250039458 11.579984987047597 #
edge $-1 $716 1 $716 0 $421 $-1 forward 7 unknown #
vertex $-1 $422 $717 #
ellipse-curve $-1 -59.197876751651108 17.18215035897569 10.850655098042726 -0.85716730853699208 0 0.51503806187062418 0.12875951546765604 0 0.21429182713424802 1 I I #
point $-1 -59.926284544720446 17.18215035897569 11.579984987047597 #
loop $-1 $-1 $433 $425 #
plane-surface $-1 -63.247779778435621 0 0 1 0 0 0 0 -1 forward_v I I I I #
coedge $-1 $598 $428 $430 $602 reversed $284 $-1 #
coedge $-1 $428 $597 $718 $719 reversed $284 $-1 #
coedge $-1 $436 $431 $428 $600 forward $426 $-1 #
edge $-1 $603 -28.9755107108993 $720 -22.590039274404241 $599 $721 forward 7 unknown #
coedge $-1 $430 $429 $606 $722 reversed $179 $-1 #
edge $-1 $723 -4.1431396825663817e-014 $603 12.398057365513788 $597 $724 forward 7 unknown #
vertex $-1 $432 $725 #
straight-curve $-1 -56.862308341940555 15.54750561323343 16.67929789145569 0 1 0 I I #
coedge $-1 $718 $433 $436 $610 reversed $595 $-1 #
coedge $-1 $433 $718 $601 $722 forward $595 $-1 #
vertex $-1 $434 $726 #
straight-curve $-1 -63.247779778435621 27.646463724788902 35.601058128891047 0 0 1 I I #
straight-curve $-1 -63.2477797784356 27.646463724788902 6.0520884283710075 -0.51503806187062418 0 -0.85716730853699208 I I #
edge $-1 $720 -34.543558728144816 $437 -27.646463724788902 $605 $727 forward 7 unknown #
point $-1 -63.247779778435621 27.646463724788902 16.67929789145569 #
point $-1 -56.862308341940562 27.646463724788902 16.67929789145569 #
edge $-1 $728 1 $728 0 $440 $-1 forward 7 unknown #
vertex $-1 $441 $729 #
ellipse-curve $-1 -59.197876751651108 29.617062297176297 10.850655098042726 -0.85716730853699208 0 0.51503806187062418 0.12875951546765604 0 0.21429182713424802 1 I I #
point $-1 -59.926284544720446 29.617062297176297 11.579984987047597 #
edge $-1 $730 1 $730 0 $444 $-1 forward 7 unknown #
vertex $-1 $445 $731 #
ellipse-curve $-1 -59.197876751651108 32.572960155757407 10.850655098042726 -0.85716730853699208 0 0.51503806187062418 0.12875951546765604 0 0.21429182713424802 1 I I #
point $-1 -59.926284544720446 32.572960155757407 11.579984987047597 #
plane-surface $-1 0 0 16.67929789145569 0 0 1 1 0 0 forward_v I I I I #
coedge $-1 $632 $631 $624 $732 forward $449 $-1 #
coedge $-1 $624 $451 $453 $628 reversed $306 $-1 #
coedge $-1 $451 $623 $622 $732 reversed $306 $-1 #
coedge $-1 $459 $454 $451 $626 forward $460 $-1 #
edge $-1 $629 28.9436026618494 $733 50.220730787492684 $625 $734 forward 7 unknown #
coedge $-1 $453 $452 $632 $735 reversed $193 $-1 #
edge $-1 $736 -126.49555955687123 $629 -101.12549286270431 $623 $737 forward 7 unknown #
vertex $-1 $455 $738 #
straight-curve $-1 41.970651652792327 7.645312620871259 16.67929789145569 0 -1 0 I I #
coedge $-1 $622 $456 $459 $636 reversed $449 $-1 #
coedge $-1 $456 $622 $627 $735 forward $449 $-1 #
vertex $-1 $457 $739 #
straight-curve $-1 63.247779778435621 21.693544062134045 88.922145825589993 0 0 1 I I #
straight-curve $-1 -42.840322411509 21.693544062134045 71.756189461235351 0.83867056331134215 0 -0.54463904215088732 I I #
edge $-1 $733 8.8877064213509911 $461 21.693544062134045 $631 $740 forward 7 unknown #
point $-1 63.247779778435621 21.693544062134045 16.67929789145569 #
point $-1 41.970651652792334 21.693544062134045 16.679297891455683 #
edge $-1 $741 1 $741 0 $464 $-1 forward 7 unknown #
vertex $-1 $465 $742 #
ellipse-curve $-1 48.095170808550975 15.290625241742518 2.8195140116563095 0.54463904215088732 0 0.83867056331134215 2.0966764082783556 0 -1.3615976053772183 1 I I #
point $-1 54.705892123892312 15.290625241742518 8.4089358742708509 #
plane-surface $-1 63.247779778435621 0 0 -1 0 0 0 0 1 forward_v I I I I #
coedge $-1 $473 $471 $475 $648 reversed $321 $-1 #
edge $-1 $486 -16.67929789145569 $650 16.67929789145569 $485 $743 forward 7 unknown #
vertex $-1 $648 $744 #
straight-curve $-1 -63.247779778435621 -40.973914158963048 0 0 0 -1 I I #
edge $-1 $646 -40.973914158963048 $650 40.973914158963048 $644 $745 forward 7 unknown #
straight-curve $-1 0 -40.973914158963048 -16.67929789145569 -1 0 0 I I #
vertex $-1 $478 $746 #
straight-curve $-1 0 40.973914158963048 -16.67929789145569 1 0 0 I I #
point $-1 63.247779778435621 40.973914158963048 -16.67929789145569 #
point $-1 63.247779778435621 -40.973914158963048 -16.67929789145569 #
straight-curve $-1 -63.247779778435621 0 16.67929789145569 0 -1 0 I I #
point $-1 -63.247779778435621 40.973914158963048 16.67929789145569 #
point $-1 -63.247779778435621 -40.973914158963048 16.67929789145569 #
straight-curve $-1 63.247779778435621 -40.973914158963048 0 0 0 -1 I I #
straight-curve $-1 63.247779778435621 40.973914158963048 0 0 0 -1 I I #
plane-surface $-1 63.247779778435621 0 0 -1 0 0 0 0 1 forward_v I I I I #
coedge $-1 $499 $498 $509 $671 reversed $210 $-1 #
coedge $-1 $747 $502 $499 $662 forward $496 $-1 #
edge $-1 $663 20.589325028163849 $748 40.973914158963048 $499 $749 forward 7 unknown #
vertex $-1 $662 $750 #
straight-curve $-1 -63.247779778435621 -20.589325028163849 7.2023037739460527 0 0 -1 I I #
coedge $-1 $502 $747 $504 $667 forward $496 $-1 #
straight-curve $-1 0 -20.589325028163849 16.67929789145569 -1 0 0 I I #
edge $-1 $674 -40.973914158963048 $505 -20.589325028163849 $504 $751 forward 7 unknown #
point $-1 63.247779778435621 -20.589325028163849 16.67929789145569 #
straight-curve $-1 -63.247779778435621 -15.390809796781724 12.129917204328519 0 -1 0 I I #
coedge $-1 $509 $508 $747 $752 reversed $340 $-1 #
edge $-1 $748 -16.67929789145569 $510 -12.129917204328519 $660 $753 forward 7 unknown #
point $-1 -63.247779778435621 -40.973914158963048 12.129917204328519 #
point $-1 -63.247779778435621 -20.589325028163849 12.129917204328519 #
vertex $-1 $667 $754 #
straight-curve $-1 63.247779778435621 -40.973914158963048 0 0 0 -1 I I #
coedge $-1 $528 $527 $520 $677 forward $517 $-1 #
edge $-1 $678 18.921760237435358 $681 29.548969700520075 $676 $755 forward 7 unknown #
vertex $-1 $532 $756 #
straight-curve $-1 -85.837819052839862 -11.628870662200358 16.67929789145569 -1 0 0 I I #
edge $-1 $681 4.090161580261201 $529 10.987256583617114 $528 $757 forward 7 unknown #
vertex $-1 $680 $758 #
straight-curve $-1 -63.2477797784356 -11.628870662200358 6.0520884283710075 0.51503806187062418 0 0.85716730853699208 I I #
point $-1 -56.862308341940562 -11.628870662200358 16.67929789145569 #
point $-1 -63.247779778435621 -18.525965665556271 6.0520884283709719 #
straight-curve $-1 -63.247779778435621 0 16.67929789145569 0 -1 0 I I #
vertex $-1 $535 $759 #
point $-1 -59.069117236183452 -16.555367093168865 11.064946925176974 #
vertex $-1 $539 $760 #
point $-1 -59.069117236183452 -13.599469234587758 11.064946925176974 #
coedge $-1 $554 $553 $546 $691 forward $543 $-1 #
edge $-1 $692 18.921760237435358 $695 29.548969700520075 $690 $761 forward 7 unknown #
vertex $-1 $558 $762 #
straight-curve $-1 -85.837819052839862 3.7619391345813664 16.67929789145569 -1 0 0 I I #
edge $-1 $695 -3.605243318129661 $555 3.2918516852262503 $554 $763 forward 7 unknown #
vertex $-1 $694 $764 #
straight-curve $-1 -63.2477797784356 3.7619391345813664 6.0520884283710075 0.51503806187062418 0 0.85716730853699208 I I #
point $-1 -56.862308341940562 3.7619391345813664 16.67929789145569 #
point $-1 -63.247779778435621 -3.1351558687745449 6.0520884283709719 #
straight-curve $-1 -63.247779778435621 0 16.67929789145569 0 -1 0 I I #
vertex $-1 $561 $765 #
point $-1 -59.069117236183452 -1.1645572963871444 11.064946925176974 #
vertex $-1 $565 $766 #
point $-1 -59.069117236183452 1.791340562193966 11.064946925176974 #
coedge $-1 $580 $579 $572 $705 forward $569 $-1 #
edge $-1 $706 18.921760237435358 $709 29.548969700520075 $704 $767 forward 7 unknown #
vertex $-1 $584 $768 #
straight-curve $-1 -85.837819052839862 19.152748931363092 16.67929789145569 -1 0 0 I I #
edge $-1 $709 -11.300648216520525 $581 -4.4035532131646118 $580 $769 forward 7 unknown #
vertex $-1 $708 $770 #
straight-curve $-1 -63.2477797784356 19.152748931363092 6.0520884283710075 0.51503806187062418 0 0.85716730853699208 I I #
point $-1 -56.862308341940562 19.152748931363092 16.67929789145569 #
point $-1 -63.247779778435621 12.255653928007179 6.0520884283709719 #
straight-curve $-1 -63.247779778435621 0 16.67929789145569 0 -1 0 I I #
vertex $-1 $587 $771 #
point $-1 -59.069117236183452 14.22625250039458 11.064946925176974 #
vertex $-1 $591 $772 #
point $-1 -59.069117236183452 17.18215035897569 11.064946925176974 #
coedge $-1 $606 $605 $598 $719 forward $595 $-1 #
edge $-1 $720 18.921760237435358 $723 29.548969700520075 $718 $773 forward 7 unknown #
vertex $-1 $610 $774 #
straight-curve $-1 -85.837819052839862 34.543558728144816 16.67929789145569 -1 0 0 I I #
edge $-1 $723 -18.996053114911387 $607 -12.098958111555472 $606 $775 forward 7 unknown #
vertex $-1 $722 $776 #
straight-curve $-1 -63.2477797784356 34.543558728144816 6.0520884283710075 0.51503806187062418 0 0.85716730853699208 I I #
point $-1 -56.862308341940562 34.543558728144816 16.67929789145569 #
point $-1 -63.247779778435621 27.646463724788902 6.0520884283709719 #
straight-curve $-1 -63.247779778435621 0 16.67929789145569 0 -1 0 I I #
vertex $-1 $613 $777 #
point $-1 -59.069117236183452 29.617062297176297 11.064946925176974 #
vertex $-1 $617 $778 #
point $-1 -59.069117236183452 32.572960155757407 11.064946925176974 #
edge $-1 $733 72.242847934134304 $736 86.060376757749509 $622 $779 forward 7 unknown #
vertex $-1 $636 $780 #
straight-curve $-1 13.027048990942934 8.8877064213509911 16.67929789145569 1 0 0 I I #
edge $-1 $736 1.2423938004797321 $633 14.048231441262786 $632 $781 forward 7 unknown #
vertex $-1 $735 $782 #
straight-curve $-1 -42.840322411509 8.8877064213509911 71.756189461235351 -0.83867056331134215 0 0.54463904215088732 I I #
point $-1 41.970651652792334 8.8877064213509911 16.679297891455683 #
point $-1 63.247779778435621 21.693544062134045 2.8617690678404841 #
straight-curve $-1 63.247779778435621 0 16.67929789145569 0 1 0 I I #
vertex $-1 $639 $783 #
point $-1 50.191847216829331 15.290625241742518 1.4579164062790912 #
straight-curve $-1 -63.247779778435621 40.973914158963048 0 0 0 -1 I I #
point $-1 -63.247779778435621 -40.973914158963048 -16.67929789145569 #
straight-curve $-1 -63.247779778435621 0 -16.67929789145569 0 1 0 I I #
point $-1 -63.247779778435621 40.973914158963048 -16.67929789145569 #
coedge $-1 $665 $661 $670 $752 forward $496 $-1 #
vertex $-1 $662 $784 #
straight-curve $-1 -63.247779778435621 0 16.67929789145569 0 -1 0 I I #
point $-1 -63.247779778435621 -20.589325028163849 16.67929789145569 #
straight-curve $-1 63.247779778435621 0 16.67929789145569 0 1 0 I I #
edge $-1 $748 -63.247779778435621 $674 63.247779778435621 $670 $785 forward 7 unknown #
straight-curve $-1 -63.247779778435621 -40.973914158963048 0 0 0 -1 I I #
point $-1 63.247779778435621 -40.973914158963048 16.67929789145569 #
straight-curve $-1 -63.247779778435621 -11.628870662200358 35.601058128891047 0 0 -1 I I #
point $-1 -63.247779778435621 -11.628870662200358 16.67929789145569 #
straight-curve $-1 -63.247779778435621 -7.5387090819391567 6.0520884283709737 0 -1 0 I I #
point $-1 -63.247779778435621 -11.628870662200358 6.0520884283709719 #
point $-1 -58.983584924516862 -16.555367093168865 10.721895582575069 #
point $-1 -58.983584924516862 -13.599469234587758 10.721895582575069 #
straight-curve $-1 -63.247779778435621 3.7619391345813664 35.601058128891047 0 0 -1 I I #
point $-1 -63.247779778435621 3.7619391345813664 16.67929789145569 #
straight-curve $-1 -63.247779778435621 0.15669581645170538 6.0520884283709737 0 -1 0 I I #
point $-1 -63.247779778435621 3.7619391345813664 6.0520884283709719 #
point $-1 -58.983584924516862 -1.1645572963871444 10.721895582575069 #
point $-1 -58.983584924516862 1.791340562193966 10.721895582575069 #
straight-curve $-1 -63.247779778435621 19.152748931363092 35.601058128891047 0 0 -1 I I #
point $-1 -63.247779778435621 19.152748931363092 16.67929789145569 #
straight-curve $-1 -63.247779778435621 7.8521007148425674 6.0520884283709737 0 -1 0 I I #
point $-1 -63.247779778435621 19.152748931363092 6.0520884283709719 #
point $-1 -58.983584924516862 14.22625250039458 10.721895582575069 #
point $-1 -58.983584924516862 17.18215035897569 10.721895582575069 #
straight-curve $-1 -63.247779778435621 34.543558728144816 35.601058128891047 0 0 -1 I I #
point $-1 -63.247779778435621 34.543558728144816 16.67929789145569 #
straight-curve $-1 -63.247779778435621 15.54750561323343 6.0520884283709737 0 -1 0 I I #
point $-1 -63.247779778435621 34.543558728144816 6.0520884283709719 #
point $-1 -58.983584924516862 29.617062297176297 10.721895582575069 #
point $-1 -58.983584924516862 32.572960155757407 10.721895582575069 #
straight-curve $-1 63.247779778435621 8.8877064213509911 88.922145825589993 0 0 -1 I I #
point $-1 63.247779778435621 8.8877064213509911 16.67929789145569 #
straight-curve $-1 63.247779778435614 7.645312620871259 2.8617690678404912 0 1 0 I I #
point $-1 63.247779778435621 8.8877064213509911 2.8617690678404841 #
point $-1 46.733573203173762 15.290625241742518 0.722837603377954 #
point $-1 -63.247779778435621 -40.973914158963048 16.67929789145569 #
straight-curve $-1 0 -40.973914158963048 16.67929789145569 1 0 0 I I #
End-of-ACIS-data 