500 0 8 0           
7 Unknown 11 ACIS 5.0 NT 24 Fri Mar 26 20:42:51 1999 
-1 9.9999999999999995e-007 1e-010 
body $-1 $8 $-1 $9 #
body $-1 $10 $-1 $11 #
body $-1 $12 $-1 $13 #
body $-1 $14 $-1 $15 #
body $-1 $16 $-1 $17 #
body $-1 $18 $-1 $19 #
body $-1 $20 $-1 $21 #
body $-1 $22 $-1 $23 #
lump $-1 $-1 $24 $0 #
transform $-1 1 0 0 0 1 0 0 0 1 47.335428937650683 20.76087679347085 9.7621169250490283 1 rotate no_reflect no_shear #
lump $-1 $-1 $25 $1 #
transform $-1 1 0 0 0 1 0 0 0 1 47.335428937650683 20.76087679347085 9.7621169250490283 1 rotate no_reflect no_shear #
lump $-1 $-1 $26 $2 #
transform $-1 1 0 0 0 1 0 0 0 1 47.335428937650683 20.76087679347085 9.7621169250490283 1 rotate no_reflect no_shear #
lump $-1 $-1 $27 $3 #
transform $-1 1 0 0 0 1 0 0 0 1 47.335428937650683 20.76087679347085 9.7621169250490283 1 rotate no_reflect no_shear #
lump $-1 $-1 $28 $4 #
transform $-1 1 0 0 0 1 0 0 0 1 47.335428937650683 20.76087679347085 9.7621169250490283 1 rotate no_reflect no_shear #
lump $-1 $-1 $29 $5 #
transform $-1 1 0 0 0 1 0 0 0 1 47.335428937650683 20.76087679347085 9.7621169250490283 1 rotate no_reflect no_shear #
lump $-1 $-1 $30 $6 #
transform $-1 1 0 0 0 1 0 0 0 1 47.335428937650683 20.76087679347085 9.7621169250490283 1 rotate no_reflect no_shear #
lump $-1 $-1 $31 $7 #
transform $-1 1 0 0 0 1 0 0 0 1 47.335428937650683 20.76087679347085 9.7621169250490283 1 rotate no_reflect no_shear #
shell $-1 $-1 $-1 $32 $-1 $8 #
shell $-1 $-1 $-1 $33 $-1 $10 #
shell $-1 $-1 $-1 $34 $-1 $12 #
shell $-1 $-1 $-1 $35 $-1 $14 #
shell $-1 $-1 $-1 $36 $-1 $16 #
shell $-1 $-1 $-1 $37 $-1 $18 #
shell $-1 $-1 $-1 $38 $-1 $20 #
shell $-1 $-1 $-1 $39 $-1 $22 #
face $-1 $40 $41 $24 $-1 $42 forward single #
face $-1 $43 $44 $25 $-1 $45 reversed single #
face $-1 $46 $47 $26 $-1 $48 reversed single #
face $-1 $49 $50 $27 $-1 $51 forward single #
face $-1 $52 $53 $28 $-1 $54 forward single #
face $-1 $55 $56 $29 $-1 $57 reversed single #
face $-1 $58 $59 $30 $-1 $60 forward single #
face $-1 $61 $62 $31 $-1 $63 forward single #
face $-1 $64 $65 $24 $-1 $66 reversed single #
loop $-1 $-1 $67 $32 #
plane-surface $-1 0 0 9.7621169250490283 0 0 1 1 0 0 forward_v I I I I #
face $-1 $68 $69 $25 $-1 $70 reversed single #
loop $-1 $-1 $71 $33 #
plane-surface $-1 -43.197688566543945 -15.169585370921551 0 1 0 0 0 0 -1 forward_v I I I I #
face $-1 $72 $73 $26 $-1 $74 reversed single #
loop $-1 $-1 $75 $34 #
plane-surface $-1 -47.33542893765069 -6.261984804716727 5.5763164596011165 -0.66913061440640931 0 0.74314481823134659 0.74314481823134659 0 0.66913061440640931 forward_v I I I I #
face $-1 $76 $77 $27 $-1 $78 forward single #
loop $-1 $79 $80 $35 #
cone-surface $-1 -44.676462490314726 -7.6832601519976667 7.2976442832093991 0.66913061440640931 0 -0.74314481823134659 0.18578620455783665 0 0.16728265360160233 1 I I 0 1 0.25 forward I I I I #
face $-1 $81 $82 $28 $-1 $83 forward single #
loop $-1 $84 $85 $36 #
cone-surface $-1 -44.676462490314726 -4.8407094574357874 7.2976442832093991 0.66913061440640931 0 -0.74314481823134659 0.18578620455783665 0 0.16728265360160233 1 I I 0 1 0.25 forward I I I I #
face $-1 $86 $87 $29 $-1 $88 reversed single #
loop $-1 $-1 $89 $37 #
plane-surface $-1 40.328440766586461 -2.9456756610612018 139.27764322362987 0 -1 0 -0.66913061440640931 0 -0.74314481823134659 forward_v I I I I #
face $-1 $90 $91 $30 $-1 $92 forward single #
loop $-1 $93 $94 $38 #
cone-surface $-1 44.676462490314726 -7.6832601519976667 7.2976442832093991 -0.66913061440640931 0 -0.74314481823134659 0.18578620455783665 0 -0.16728265360160233 1 I I 0 1 0.25 forward I I I I #
face $-1 $95 $96 $31 $-1 $97 forward single #
loop $-1 $98 $99 $39 #
cone-surface $-1 44.676462490314726 -4.8407094574357874 7.2976442832093991 -0.66913061440640931 0 -0.74314481823134659 0.18578620455783665 0 -0.16728265360160233 1 I I 0 1 0.25 forward I I I I #
face $-1 $100 $101 $24 $-1 $102 reversed single #
loop $-1 $-1 $103 $40 #
plane-surface $-1 0 0 -9.7621169250490283 0 0 1 1 0 0 forward_v I I I I #
coedge $-1 $104 $105 $106 $107 forward $41 $-1 #
face $-1 $108 $109 $25 $-1 $110 reversed single #
loop $-1 $-1 $111 $43 #
plane-surface $-1 -41.697688566543945 -9.5782939483722522 0 0 -1 0 0 0 -1 forward_v I I I I #
coedge $-1 $112 $113 $114 $115 forward $44 $-1 #
face $-1 $116 $117 $26 $-1 $118 forward single #
loop $-1 $-1 $119 $46 #
plane-surface $-1 -110.68259823413294 -2.9456756610612018 75.930473927147588 0 -1 0 0.66913061440640931 0 -0.74314481823134659 forward_v I I I I #
coedge $-1 $120 $121 $122 $123 reversed $47 $-1 #
face $-1 $-1 $124 $27 $-1 $125 forward single #
loop $-1 $126 $127 $49 #
cone-surface $-1 -44.258255856310718 -7.6832601519976667 6.8331787718148078 0.66913061440640931 0 -0.74314481823134659 0.092893102278918324 0 0.083641326800801163 1 I I -0.70710678118654746 0.70710678118654746 0.125 forward I I I I #
loop $-1 $-1 $128 $35 #
coedge $-1 $80 $80 $129 $130 reversed $50 $-1 #
face $-1 $-1 $131 $28 $-1 $132 forward single #
loop $-1 $133 $134 $52 #
cone-surface $-1 -44.258255856310718 -4.8407094574357874 6.8331787718148078 0.66913061440640931 0 -0.74314481823134659 0.092893102278918324 0 0.083641326800801163 1 I I -0.70710678118654746 0.70710678118654746 0.125 forward I I I I #
loop $-1 $-1 $135 $36 #
coedge $-1 $85 $85 $136 $137 reversed $53 $-1 #
face $-1 $138 $139 $29 $-1 $140 reversed single #
loop $-1 $-1 $141 $55 #
plane-surface $-1 -23.018728529895789 -6.261984804716727 68.923485756083394 0.66913061440640931 0 0.74314481823134659 0.74314481823134659 0 -0.66913061440640931 forward_v I I I I #
coedge $-1 $142 $143 $144 $145 reversed $56 $-1 #
face $-1 $-1 $146 $30 $-1 $147 forward single #
loop $-1 $148 $149 $58 #
cone-surface $-1 44.258255856310718 -7.6832601519976667 6.8331787718148078 -0.66913061440640931 0 -0.74314481823134659 0.092893102278918324 0 -0.083641326800801163 1 I I -0.70710678118654746 0.70710678118654746 0.125 forward I I I I #
loop $-1 $-1 $150 $38 #
coedge $-1 $94 $94 $151 $152 reversed $59 $-1 #
face $-1 $-1 $153 $31 $-1 $154 forward single #
loop $-1 $155 $156 $61 #
cone-surface $-1 44.258255856310718 -4.8407094574357874 6.8331787718148078 -0.66913061440640931 0 -0.74314481823134659 0.092893102278918324 0 -0.083641326800801163 1 I I -0.70710678118654746 0.70710678118654746 0.125 forward I I I I #
loop $-1 $-1 $157 $39 #
coedge $-1 $99 $99 $158 $159 reversed $62 $-1 #
face $-1 $160 $161 $24 $-1 $162 reversed single #
loop $-1 $-1 $163 $64 #
plane-surface $-1 0 -20.76087679347085 0 0 1 0 0 0 1 forward_v I I I I #
coedge $-1 $164 $165 $166 $167 forward $65 $-1 #
coedge $-1 $168 $67 $169 $170 forward $41 $-1 #
coedge $-1 $67 $168 $171 $172 forward $41 $-1 #
coedge $-1 $173 $174 $67 $107 reversed $175 $-1 #
edge $-1 $176 -20.76087679347085 $177 20.76087679347085 $106 $178 forward 7 unknown #
face $-1 $179 $180 $25 $-1 $181 forward single #
loop $-1 $-1 $182 $68 #
plane-surface $-1 -40.197688566543945 -15.169585370921551 0 -1 0 0 0 0 1 forward_v I I I I #
coedge $-1 $183 $184 $185 $186 forward $69 $-1 #
coedge $-1 $187 $71 $188 $189 reversed $44 $-1 #
coedge $-1 $71 $187 $190 $191 reversed $44 $-1 #
coedge $-1 $184 $183 $71 $115 reversed $69 $-1 #
edge $-1 $192 -9.7621169250490283 $193 9.7621169250490283 $114 $194 forward 7 unknown #
face $-1 $195 $196 $26 $-1 $197 forward single #
loop $-1 $-1 $198 $72 #
plane-surface $-1 0 0 9.7621169250490283 0 0 1 1 0 0 forward_v I I I I #
coedge $-1 $199 $200 $201 $202 reversed $73 $-1 #
coedge $-1 $203 $75 $204 $205 reversed $47 $-1 #
coedge $-1 $75 $203 $199 $206 forward $47 $-1 #
coedge $-1 $201 $198 $75 $123 forward $117 $-1 #
edge $-1 $207 -6.4473015460138887 $208 0.18531674129716169 $122 $209 forward 7 unknown #
loop $-1 $-1 $129 $76 #
plane-surface $-1 -47.33542893765069 -6.261984804716727 5.5763164596011165 -0.66913061440640931 0 0.74314481823134659 0.74314481823134659 0 0.66913061440640931 forward_v I I I I #
loop $-1 $-1 $210 $49 #
coedge $-1 $127 $127 $128 $211 reversed $77 $-1 #
coedge $-1 $128 $128 $127 $211 forward $79 $-1 #
coedge $-1 $129 $129 $80 $130 forward $124 $-1 #
edge $-1 $212 0 $212 6.2831853071796004 $129 $213 forward 7 unknown #
loop $-1 $-1 $136 $81 #
plane-surface $-1 -47.33542893765069 -6.261984804716727 5.5763164596011165 -0.66913061440640931 0 0.74314481823134659 0.74314481823134659 0 0.66913061440640931 forward_v I I I I #
loop $-1 $-1 $214 $52 #
coedge $-1 $134 $134 $135 $215 reversed $82 $-1 #
coedge $-1 $135 $135 $134 $215 forward $84 $-1 #
coedge $-1 $136 $136 $85 $137 forward $131 $-1 #
edge $-1 $216 0 $216 6.2831853071796004 $136 $217 forward 7 unknown #
face $-1 $218 $219 $29 $-1 $220 forward single #
loop $-1 $-1 $221 $86 #
plane-surface $-1 40.328440766586461 -9.5782939483722522 139.27764322362987 0 1 0 0.66913061440640931 0 0.74314481823134659 forward_v I I I I #
coedge $-1 $222 $223 $224 $225 reversed $87 $-1 #
coedge $-1 $143 $89 $226 $227 reversed $56 $-1 #
coedge $-1 $89 $142 $222 $228 reversed $56 $-1 #
coedge $-1 $224 $229 $89 $145 forward $219 $-1 #
edge $-1 $230 -27.171208554357452 $231 -22.522406274091981 $144 $232 forward 7 unknown #
loop $-1 $-1 $151 $90 #
plane-surface $-1 -23.018728529895789 -6.261984804716727 68.923485756083394 0.66913061440640931 0 0.74314481823134659 0.74314481823134659 0 -0.66913061440640931 forward_v I I I I #
loop $-1 $-1 $233 $58 #
coedge $-1 $149 $149 $150 $234 reversed $91 $-1 #
coedge $-1 $150 $150 $149 $234 forward $93 $-1 #
coedge $-1 $151 $151 $94 $152 forward $146 $-1 #
edge $-1 $235 0 $235 6.2831853071796004 $151 $236 forward 7 unknown #
loop $-1 $-1 $158 $95 #
plane-surface $-1 -23.018728529895789 -6.261984804716727 68.923485756083394 0.66913061440640931 0 0.74314481823134659 0.74314481823134659 0 -0.66913061440640931 forward_v I I I I #
loop $-1 $-1 $237 $61 #
coedge $-1 $156 $156 $157 $238 reversed $96 $-1 #
coedge $-1 $157 $157 $156 $238 forward $98 $-1 #
coedge $-1 $158 $158 $99 $159 forward $153 $-1 #
edge $-1 $239 0 $239 6.2831853071796004 $158 $240 forward 7 unknown #
face $-1 $241 $242 $24 $-1 $243 reversed single #
loop $-1 $-1 $244 $100 #
plane-surface $-1 -47.335428937650683 0 0 1 0 0 0 0 -1 forward_v I I I I #
coedge $-1 $245 $171 $246 $247 forward $101 $-1 #
coedge $-1 $248 $103 $245 $249 forward $65 $-1 #
coedge $-1 $103 $248 $250 $251 forward $65 $-1 #
coedge $-1 $174 $173 $103 $167 reversed $175 $-1 #
edge $-1 $252 -20.76087679347085 $253 20.76087679347085 $166 $254 forward 7 unknown #
coedge $-1 $105 $104 $255 $256 forward $41 $-1 #
coedge $-1 $257 $258 $104 $170 reversed $242 $-1 #
edge $-1 $177 -47.335428937650683 $259 47.335428937650683 $169 $260 forward 7 unknown #
coedge $-1 $163 $261 $105 $172 reversed $101 $-1 #
edge $-1 $262 -47.335428937650683 $176 47.335428937650683 $171 $263 forward 7 unknown #
coedge $-1 $166 $106 $261 $264 forward $175 $-1 #
coedge $-1 $106 $166 $257 $265 reversed $175 $-1 #
loop $-1 $-1 $173 $241 #
vertex $-1 $107 $266 #
vertex $-1 $107 $267 #
straight-curve $-1 47.335428937650683 0 9.7621169250490283 0 1 0 I I #
face $-1 $268 $269 $25 $-1 $270 reversed single #
loop $-1 $-1 $271 $108 #
plane-surface $-1 0 0 9.7621169250490283 0 0 1 1 0 0 forward_v I I I I #
coedge $-1 $272 $273 $274 $275 reversed $109 $-1 #
coedge $-1 $114 $111 $276 $277 reversed $69 $-1 #
coedge $-1 $111 $114 $278 $279 reversed $69 $-1 #
coedge $-1 $273 $272 $111 $186 reversed $109 $-1 #
edge $-1 $280 -9.7621169250490283 $281 9.7621169250490283 $185 $282 forward 7 unknown #
coedge $-1 $113 $112 $283 $284 reversed $44 $-1 #
coedge $-1 $276 $285 $112 $189 forward $269 $-1 #
edge $-1 $286 -13.176084108010073 $193 -1.9935012629114768 $188 $287 forward 7 unknown #
coedge $-1 $288 $278 $113 $191 forward $180 $-1 #
edge $-1 $192 1.9935012629114768 $289 13.176084108010073 $190 $290 forward 7 unknown #
vertex $-1 $191 $291 #
vertex $-1 $189 $292 #
straight-curve $-1 -43.197688566543945 -9.5782939483722522 0 0 0 -1 I I #
face $-1 $-1 $293 $26 $-1 $294 reversed single #
loop $-1 $-1 $204 $116 #
plane-surface $-1 -41.697688566543945 -9.5782939483722522 0 0 -1 0 0 0 -1 forward_v I I I I #
coedge $-1 $122 $295 $296 $297 forward $117 $-1 #
coedge $-1 $200 $119 $121 $206 reversed $73 $-1 #
coedge $-1 $119 $199 $298 $299 reversed $73 $-1 #
coedge $-1 $295 $122 $119 $202 forward $117 $-1 #
edge $-1 $208 -12.654672459681287 $300 -8.0058701794157869 $201 $301 forward 7 unknown #
coedge $-1 $121 $120 $302 $303 reversed $47 $-1 #
coedge $-1 $296 $304 $120 $205 forward $196 $-1 #
edge $-1 $305 -0.2291867422920783 $207 6.0263938204970877 $204 $306 forward 7 unknown #
edge $-1 $307 9.4405131238556439e-015 $208 6.2555805627891754 $199 $308 forward 7 unknown #
vertex $-1 $205 $309 #
vertex $-1 $123 $310 #
straight-curve $-1 -42.686626657385183 -3.1309924023583635 9.7621169250490265 0 1 0 I I #
coedge $-1 $210 $210 $-1 $311 reversed $126 $-1 #
edge $-1 $312 0 $312 6.2831853071796004 $127 $313 forward 7 unknown #
vertex $-1 $130 $314 #
ellipse-curve $-1 -45.011027797517933 -7.6832601519976667 7.6692166923250751 -0.66913061440640931 0 0.74314481823134659 0.18578620455783665 0 0.16728265360160233 1 I I #
coedge $-1 $214 $214 $-1 $315 reversed $133 $-1 #
edge $-1 $316 0 $316 6.2831853071796004 $134 $317 forward 7 unknown #
vertex $-1 $137 $318 #
ellipse-curve $-1 -45.011027797517933 -4.8407094574357874 7.6692166923250751 -0.66913061440640931 0 0.74314481823134659 0.18578620455783665 0 0.16728265360160233 1 I I #
face $-1 $-1 $319 $29 $-1 $320 reversed single #
loop $-1 $-1 $144 $138 #
plane-surface $-1 0 0 9.7621169250490283 0 0 1 1 0 0 forward_v I I I I #
coedge $-1 $321 $322 $323 $324 reversed $139 $-1 #
coedge $-1 $325 $141 $143 $228 forward $87 $-1 #
coedge $-1 $141 $325 $321 $326 forward $87 $-1 #
coedge $-1 $323 $144 $141 $225 forward $219 $-1 #
edge $-1 $231 -0.18531674129716169 $327 6.4473015460138887 $224 $328 forward 7 unknown #
coedge $-1 $329 $330 $142 $227 forward $319 $-1 #
edge $-1 $331 -64.062505152213788 $230 -59.876704686765905 $226 $332 forward 7 unknown #
edge $-1 $231 88.415277312512231 $331 94.670857875301351 $143 $333 forward 7 unknown #
coedge $-1 $144 $323 $329 $334 forward $219 $-1 #
vertex $-1 $227 $335 #
vertex $-1 $145 $336 #
straight-curve $-1 20.16422038329323 -2.9456756610612018 9.7621169250490283 -1 0 0 I I #
coedge $-1 $233 $233 $-1 $337 reversed $148 $-1 #
edge $-1 $338 0 $338 6.2831853071796004 $149 $339 forward 7 unknown #
vertex $-1 $152 $340 #
ellipse-curve $-1 45.011027797517947 -7.6832601519976667 7.6692166923250884 0.66913061440640931 0 0.74314481823134659 0.18578620455783665 0 -0.16728265360160233 1 I I #
coedge $-1 $237 $237 $-1 $341 reversed $155 $-1 #
edge $-1 $342 0 $342 6.2831853071796004 $156 $343 forward 7 unknown #
vertex $-1 $159 $344 #
ellipse-curve $-1 45.011027797517947 -4.8407094574357874 7.6692166923250884 0.66913061440640931 0 0.74314481823134659 0.18578620455783665 0 -0.16728265360160233 1 I I #
face $-1 $-1 $175 $24 $-1 $345 reversed single #
loop $-1 $-1 $257 $160 #
plane-surface $-1 0 20.76087679347085 0 0 -1 0 0 0 -1 forward_v I I I I #
coedge $-1 $346 $255 $258 $347 forward $161 $-1 #
coedge $-1 $261 $163 $164 $249 reversed $101 $-1 #
coedge $-1 $255 $346 $163 $247 reversed $161 $-1 #
edge $-1 $262 -9.7621169250490283 $348 9.7621169250490283 $246 $349 forward 7 unknown #
coedge $-1 $165 $164 $346 $350 forward $65 $-1 #
edge $-1 $253 -47.335428937650683 $348 47.335428937650683 $245 $351 forward 7 unknown #
coedge $-1 $258 $257 $165 $251 reversed $242 $-1 #
edge $-1 $352 -47.335428937650683 $252 47.335428937650683 $250 $353 forward 7 unknown #
vertex $-1 $167 $354 #
vertex $-1 $264 $355 #
straight-curve $-1 47.335428937650683 0 -9.7621169250490283 0 -1 0 I I #
coedge $-1 $244 $246 $168 $256 reversed $161 $-1 #
edge $-1 $259 -20.76087679347085 $262 20.76087679347085 $255 $356 forward 7 unknown #
coedge $-1 $250 $169 $174 $265 forward $242 $-1 #
coedge $-1 $169 $250 $244 $347 reversed $242 $-1 #
vertex $-1 $170 $357 #
straight-curve $-1 0 20.76087679347085 9.7621169250490283 -1 0 0 I I #
coedge $-1 $171 $245 $173 $264 reversed $101 $-1 #
vertex $-1 $256 $358 #
straight-curve $-1 0 -20.76087679347085 9.7621169250490283 1 0 0 I I #
edge $-1 $176 -9.7621169250490283 $253 9.7621169250490283 $173 $359 forward 7 unknown #
edge $-1 $177 -9.7621169250490283 $252 9.7621169250490283 $174 $360 forward 7 unknown #
point $-1 47.335428937650683 -20.76087679347085 9.7621169250490283 #
point $-1 47.335428937650683 20.76087679347085 9.7621169250490283 #
face $-1 $-1 $361 $25 $-1 $362 reversed single #
loop $-1 $-1 $363 $179 #
plane-surface $-1 0 0 -9.7621169250490283 0 0 1 1 0 0 forward_v I I I I #
coedge $-1 $278 $288 $273 $364 forward $180 $-1 #
coedge $-1 $185 $182 $363 $365 reversed $109 $-1 #
coedge $-1 $182 $185 $271 $364 reversed $109 $-1 #
coedge $-1 $366 $367 $182 $275 forward $361 $-1 #
edge $-1 $368 -9.7621169250490283 $369 9.7621169250490283 $274 $370 forward 7 unknown #
coedge $-1 $363 $188 $183 $277 forward $269 $-1 #
edge $-1 $193 -22.348844283271973 $281 -19.348844283271973 $276 $371 forward 7 unknown #
coedge $-1 $190 $271 $184 $279 forward $180 $-1 #
edge $-1 $280 19.348844283271973 $192 22.348844283271973 $278 $372 forward 7 unknown #
vertex $-1 $279 $373 #
vertex $-1 $277 $374 #
straight-curve $-1 -40.197688566543945 -9.5782939483722522 0 0 0 -1 I I #
coedge $-1 $367 $366 $187 $284 forward $361 $-1 #
edge $-1 $289 -9.7621169250490283 $286 9.7621169250490283 $283 $375 forward 7 unknown #
coedge $-1 $188 $363 $367 $376 forward $269 $-1 #
vertex $-1 $189 $377 #
straight-curve $-1 -43.197688566543945 -7.5847926854607755 -9.7621169250490283 0 1 0 I I #
coedge $-1 $271 $190 $366 $378 forward $180 $-1 #
vertex $-1 $378 $379 #
straight-curve $-1 -43.197688566543945 -7.5847926854607755 9.7621169250490283 0 -1 0 I I #
point $-1 -43.197688566543945 -9.5782939483722522 9.7621169250490283 #
point $-1 -43.197688566543945 -9.5782939483722522 -9.7621169250490283 #
loop $-1 $-1 $380 $195 #
plane-surface $-1 -47.335428937650683 0 0 1 0 0 0 0 -1 forward_v I I I I #
coedge $-1 $198 $201 $381 $382 forward $117 $-1 #
coedge $-1 $304 $204 $198 $297 reversed $196 $-1 #
edge $-1 $383 8.0058701794157869 $207 12.654672459681287 $198 $384 forward 7 unknown #
coedge $-1 $302 $381 $200 $299 forward $293 $-1 #
edge $-1 $300 28.203120038524766 $307 32.38892050397267 $298 $385 forward 7 unknown #
vertex $-1 $382 $386 #
straight-curve $-1 -55.34129911706647 -2.9456756610612018 9.7621169250490283 -1 0 0 I I #
coedge $-1 $380 $298 $203 $303 forward $293 $-1 #
edge $-1 $307 -0.18531674129716169 $305 6.4473015460138887 $302 $387 forward 7 unknown #
coedge $-1 $204 $296 $380 $388 reversed $196 $-1 #
vertex $-1 $388 $389 #
straight-curve $-1 -47.165109997709003 -9.5782939483722522 5.7296723252848256 0.74314481823134659 0 0.66913061440640931 I I #
vertex $-1 $303 $390 #
straight-curve $-1 -47.33542893765069 -2.9456756610612018 5.5763164596011165 0.74314481823134659 0 0.66913061440640931 I I #
point $-1 -42.686626657385183 -9.5782939483722522 9.7621169250490283 #
point $-1 -42.686626657385183 -2.9456756610612018 9.7621169250490283 #
edge $-1 $391 1 $391 0 $210 $-1 forward 7 unknown #
vertex $-1 $211 $392 #
ellipse-curve $-1 -44.34189718311152 -7.6832601519976667 6.9260718740937257 -0.66913061440640931 0 0.74314481823134659 0.18578620455783665 0 0.16728265360160233 1 I I #
point $-1 -44.82524159296009 -7.6832601519976667 7.8364993459266756 #
edge $-1 $393 1 $393 0 $214 $-1 forward 7 unknown #
vertex $-1 $215 $394 #
ellipse-curve $-1 -44.34189718311152 -4.8407094574357874 6.9260718740937257 -0.66913061440640931 0 0.74314481823134659 0.18578620455783665 0 0.16728265360160233 1 I I #
point $-1 -44.82524159296009 -4.8407094574357874 7.8364993459266756 #
loop $-1 $-1 $226 $218 #
plane-surface $-1 47.335428937650683 0 0 -1 0 0 0 0 1 forward_v I I I I #
coedge $-1 $322 $221 $223 $326 reversed $139 $-1 #
coedge $-1 $221 $321 $395 $396 reversed $139 $-1 #
coedge $-1 $229 $224 $221 $324 forward $219 $-1 #
edge $-1 $327 22.522406274091981 $397 27.171208554357452 $323 $398 forward 7 unknown #
coedge $-1 $223 $222 $330 $399 reversed $87 $-1 #
edge $-1 $400 -94.670857875301351 $327 -88.415277312512231 $321 $401 forward 7 unknown #
vertex $-1 $225 $402 #
straight-curve $-1 42.686626657385226 -3.1309924023583635 9.7621169250490283 0 -1 0 I I #
coedge $-1 $395 $226 $229 $334 reversed $319 $-1 #
coedge $-1 $226 $395 $325 $399 forward $319 $-1 #
vertex $-1 $227 $403 #
straight-curve $-1 47.335428937650683 -2.9456756610612018 69.638821611814933 0 0 1 I I #
straight-curve $-1 -23.018728529895789 -2.9456756610612018 68.923485756083394 0.74314481823134659 0 -0.66913061440640931 I I #
edge $-1 $397 -9.5782939483722522 $230 -2.9456756610612018 $329 $404 forward 7 unknown #
point $-1 47.335428937650683 -2.9456756610612018 9.7621169250490283 #
point $-1 42.686626657385212 -2.9456756610612018 9.7621169250490212 #
edge $-1 $405 1 $405 0 $233 $-1 forward 7 unknown #
vertex $-1 $234 $406 #
ellipse-curve $-1 44.34189718311152 -7.6832601519976667 6.9260718740937257 0.66913061440640931 0 0.74314481823134659 0.18578620455783665 0 -0.16728265360160233 1 I I #
point $-1 45.196814002075769 -7.6832601519976667 7.5019340387234701 #
edge $-1 $407 1 $407 0 $237 $-1 forward 7 unknown #
vertex $-1 $238 $408 #
ellipse-curve $-1 44.34189718311152 -4.8407094574357874 6.9260718740937257 0.66913061440640931 0 0.74314481823134659 0.18578620455783665 0 -0.16728265360160233 1 I I #
point $-1 45.196814002075769 -4.8407094574357874 7.5019340387234701 #
plane-surface $-1 47.335428937650683 0 0 -1 0 0 0 0 1 forward_v I I I I #
coedge $-1 $246 $244 $248 $350 reversed $161 $-1 #
edge $-1 $259 -9.7621169250490283 $352 9.7621169250490283 $258 $409 forward 7 unknown #
vertex $-1 $350 $410 #
straight-curve $-1 -47.335428937650683 -20.76087679347085 0 0 0 -1 I I #
edge $-1 $348 -20.76087679347085 $352 20.76087679347085 $346 $411 forward 7 unknown #
straight-curve $-1 0 -20.76087679347085 -9.7621169250490283 -1 0 0 I I #
vertex $-1 $251 $412 #
straight-curve $-1 0 20.76087679347085 -9.7621169250490283 1 0 0 I I #
point $-1 47.335428937650683 20.76087679347085 -9.7621169250490283 #
point $-1 47.335428937650683 -20.76087679347085 -9.7621169250490283 #
straight-curve $-1 -47.335428937650683 0 9.7621169250490283 0 -1 0 I I #
point $-1 -47.335428937650683 20.76087679347085 9.7621169250490283 #
point $-1 -47.335428937650683 -20.76087679347085 9.7621169250490283 #
straight-curve $-1 47.335428937650683 -20.76087679347085 0 0 0 -1 I I #
straight-curve $-1 47.335428937650683 20.76087679347085 0 0 0 -1 I I #
loop $-1 $-1 $274 $268 #
plane-surface $-1 0 -20.76087679347085 0 0 1 0 0 0 1 forward_v I I I I #
coedge $-1 $285 $276 $272 $365 forward $269 $-1 #
edge $-1 $369 -13.176084108010073 $280 -1.9935012629114768 $271 $413 forward 7 unknown #
edge $-1 $281 1.9935012629114768 $368 13.176084108010073 $363 $414 forward 7 unknown #
coedge $-1 $283 $274 $288 $378 reversed $361 $-1 #
coedge $-1 $274 $283 $285 $376 reversed $361 $-1 #
vertex $-1 $376 $415 #
vertex $-1 $275 $416 #
straight-curve $-1 -40.197688566543945 -20.76087679347085 0 0 0 1 I I #
straight-curve $-1 -20.848844283271973 -9.5782939483722522 -9.7621169250490283 1 0 0 I I #
straight-curve $-1 -20.848844283271973 -9.5782939483722522 9.7621169250490283 -1 0 0 I I #
point $-1 -40.197688566543945 -9.5782939483722522 9.7621169250490283 #
point $-1 -40.197688566543945 -9.5782939483722522 -9.7621169250490283 #
straight-curve $-1 -43.197688566543945 -20.76087679347085 0 0 0 -1 I I #
edge $-1 $368 40.197688566543945 $286 43.197688566543945 $367 $417 forward 7 unknown #
point $-1 -43.197688566543945 -20.76087679347085 -9.7621169250490283 #
edge $-1 $289 -43.197688566543945 $369 -40.197688566543945 $366 $418 forward 7 unknown #
point $-1 -43.197688566543945 -20.76087679347085 9.7621169250490283 #
coedge $-1 $381 $302 $304 $388 forward $293 $-1 #
coedge $-1 $298 $380 $295 $382 reversed $293 $-1 #
edge $-1 $300 2.9456756610612018 $383 9.5782939483722522 $381 $419 forward 7 unknown #
vertex $-1 $297 $420 #
straight-curve $-1 -55.34129911706647 -9.5782939483722522 9.7621169250490283 1 0 0 I I #
straight-curve $-1 -47.335428937650683 -2.9456756610612018 37.965236963573794 0 0 -1 I I #
point $-1 -47.335428937650683 -2.9456756610612018 9.7621169250490283 #
straight-curve $-1 -47.335428937650683 -3.1309924023583635 5.5763164596011272 0 -1 0 I I #
edge $-1 $305 -32.38892050397267 $383 -28.203120038524766 $380 $421 forward 7 unknown #
point $-1 -47.335428937650683 -9.5782939483722522 5.5763164596011228 #
point $-1 -47.335428937650683 -2.9456756610612018 5.5763164596011228 #
vertex $-1 $311 $422 #
point $-1 -44.156110978553684 -7.6832601519976667 7.0933545276953289 #
vertex $-1 $315 $423 #
point $-1 -44.156110978553684 -4.8407094574357874 7.0933545276953289 #
coedge $-1 $330 $329 $322 $396 forward $319 $-1 #
edge $-1 $397 59.876704686765905 $400 64.062505152213788 $395 $424 forward 7 unknown #
vertex $-1 $334 $425 #
straight-curve $-1 20.16422038329323 -9.5782939483722522 9.7621169250490283 1 0 0 I I #
edge $-1 $400 -6.4473015460138887 $331 0.18531674129716169 $330 $426 forward 7 unknown #
vertex $-1 $399 $427 #
straight-curve $-1 -23.018728529895789 -9.5782939483722522 68.923485756083394 -0.74314481823134659 0 0.66913061440640931 I I #
point $-1 42.686626657385212 -9.5782939483722522 9.7621169250490212 #
point $-1 47.335428937650683 -2.9456756610612018 5.576316459601145 #
straight-curve $-1 47.335428937650683 0 9.7621169250490283 0 1 0 I I #
vertex $-1 $337 $428 #
point $-1 44.527683387669356 -7.6832601519976667 6.7587892204921234 #
vertex $-1 $341 $429 #
point $-1 44.527683387669356 -4.8407094574357874 6.7587892204921234 #
straight-curve $-1 -47.335428937650683 20.76087679347085 0 0 0 -1 I I #
point $-1 -47.335428937650683 -20.76087679347085 -9.7621169250490283 #
straight-curve $-1 -47.335428937650683 0 -9.7621169250490283 0 1 0 I I #
point $-1 -47.335428937650683 20.76087679347085 -9.7621169250490283 #
straight-curve $-1 -40.197688566543945 -7.5847926854607755 9.7621169250490283 0 1 0 I I #
straight-curve $-1 -40.197688566543945 -7.5847926854607755 -9.7621169250490283 0 -1 0 I I #
point $-1 -40.197688566543945 -20.76087679347085 -9.7621169250490283 #
point $-1 -40.197688566543945 -20.76087679347085 9.7621169250490283 #
straight-curve $-1 0 -20.76087679347085 -9.7621169250490283 -1 0 0 I I #
straight-curve $-1 0 -20.76087679347085 9.7621169250490283 1 0 0 I I #
straight-curve $-1 -47.335428937650683 0 9.7621169250490283 0 -1 0 I I #
point $-1 -47.335428937650683 -9.5782939483722522 9.7621169250490283 #
straight-curve $-1 -47.335428937650683 -9.5782939483722522 37.965236963573794 0 0 1 I I #
point $-1 -44.174614529509917 -7.6832601519976667 6.7402856695358899 #
point $-1 -44.174614529509917 -4.8407094574357874 6.7402856695358899 #
straight-curve $-1 47.335428937650683 -9.5782939483722522 69.638821611814933 0 0 -1 I I #
point $-1 47.335428937650683 -9.5782939483722522 9.7621169250490283 #
straight-curve $-1 47.33542893765069 -3.1309924023583635 5.576316459601145 0 1 0 I I #
point $-1 47.335428937650683 -9.5782939483722522 5.576316459601145 #
point $-1 44.174614529509917 -7.6832601519976667 6.7402856695358899 #
point $-1 44.174614529509917 -4.8407094574357874 6.7402856695358899 #
End-of-ACIS-data 