500 0 7 0           
7 Unknown 11 ACIS 5.0 NT 24 Fri Mar 26 00:06:13 1999 
-1 9.9999999999999995e-007 1e-010 
body $-1 $7 $-1 $8 #
body $-1 $9 $-1 $10 #
body $-1 $11 $-1 $12 #
body $-1 $13 $-1 $14 #
body $-1 $15 $-1 $16 #
body $-1 $17 $-1 $18 #
body $-1 $19 $-1 $20 #
lump $-1 $-1 $21 $0 #
transform $-1 1 0 0 0 1 0 0 0 1 41.270790734580522 19.729168555756381 6.1439377684802903 1 rotate no_reflect no_shear #
lump $-1 $-1 $22 $1 #
transform $-1 1 0 0 0 1 0 0 0 1 41.270790734580522 19.729168555756381 6.1439377684802903 1 rotate no_reflect no_shear #
lump $-1 $-1 $23 $2 #
transform $-1 1 0 0 0 1 0 0 0 1 41.270790734580522 19.729168555756381 6.1439377684802903 1 rotate no_reflect no_shear #
lump $-1 $-1 $24 $3 #
transform $-1 1 0 0 0 1 0 0 0 1 41.270790734580522 19.729168555756381 6.1439377684802903 1 rotate no_reflect no_shear #
lump $-1 $-1 $25 $4 #
transform $-1 1 0 0 0 1 0 0 0 1 41.270790734580522 19.729168555756381 6.1439377684802903 1 rotate no_reflect no_shear #
lump $-1 $-1 $26 $5 #
transform $-1 1 0 0 0 1 0 0 0 1 41.270790734580522 19.729168555756381 6.1439377684802903 1 rotate no_reflect no_shear #
lump $-1 $-1 $27 $6 #
transform $-1 1 0 0 0 1 0 0 0 1 41.270790734580522 19.729168555756381 6.1439377684802903 1 rotate no_reflect no_shear #
shell $-1 $-1 $-1 $28 $-1 $7 #
shell $-1 $-1 $-1 $29 $-1 $9 #
shell $-1 $-1 $-1 $30 $-1 $11 #
shell $-1 $-1 $-1 $31 $-1 $13 #
shell $-1 $-1 $-1 $32 $-1 $15 #
shell $-1 $-1 $-1 $33 $-1 $17 #
shell $-1 $-1 $-1 $34 $-1 $19 #
face $-1 $35 $36 $21 $-1 $37 forward single #
face $-1 $38 $39 $22 $-1 $40 forward single #
face $-1 $41 $42 $23 $-1 $43 reversed single #
face $-1 $44 $45 $24 $-1 $46 forward single #
face $-1 $47 $48 $25 $-1 $49 forward single #
face $-1 $50 $51 $26 $-1 $52 reversed single #
face $-1 $53 $54 $27 $-1 $55 forward single #
face $-1 $56 $57 $21 $-1 $58 reversed single #
loop $-1 $-1 $59 $28 #
plane-surface $-1 0 0 6.1439377684802903 0 0 1 1 0 0 forward_v I I I I #
face $-1 $60 $61 $22 $-1 $62 reversed single #
loop $-1 $-1 $63 $29 #
plane-surface $-1 0 -17.025299676691251 -3.1439377684802903 0 0 1 1 0 0 forward_v I I I I #
face $-1 $64 $65 $23 $-1 $66 reversed single #
loop $-1 $-1 $67 $30 #
plane-surface $-1 13.030904276188686 2.2718469170332636 115.31048320431221 0 -1 0 -0.51503808176128008 0 -0.85716729658548041 forward_v I I I I #
face $-1 $68 $69 $24 $-1 $70 forward single #
loop $-1 $71 $72 $31 #
cone-surface $-1 37.603615286324406 -2.9535899091314057 3.6666258234884639 -0.51503808176128008 0 -0.85716729658548041 0.2142918241463701 0 -0.12875952044032002 1 I I 0 1 0.25 forward I I I I #
face $-1 $73 $74 $25 $-1 $75 forward single #
loop $-1 $76 $77 $32 #
cone-surface $-1 37.603615286324406 0.18167218656739692 3.6666258234884639 -0.51503808176128008 0 -0.85716729658548041 0.2142918241463701 0 -0.12875952044032002 1 I I 0 1 0.25 forward I I I I #
face $-1 $78 $79 $26 $-1 $80 reversed single #
loop $-1 $-1 $81 $33 #
plane-surface $-1 -104.50131122927615 -10.598660433274397 54.002755221710366 0 1 0 -0.7660444514056185 0 0.64278759981090561 forward_v I I I I #
face $-1 $82 $83 $27 $-1 $84 forward single #
loop $-1 $85 $86 $34 #
cone-surface $-1 -38.023921757459767 -7.4127098607595396 2.6504330239487177 0.7660444514056185 0 -0.64278759981090561 0.96418139971635841 0 1.1490666771084277 1 I I 0 1 1.5 forward I I I I #
face $-1 $87 $88 $21 $-1 $89 reversed single #
loop $-1 $-1 $90 $35 #
plane-surface $-1 0 0 -6.1439377684802903 0 0 1 1 0 0 forward_v I I I I #
coedge $-1 $91 $92 $93 $94 forward $36 $-1 #
face $-1 $95 $96 $22 $-1 $97 reversed single #
loop $-1 $-1 $98 $38 #
plane-surface $-1 0 -14.321430797626123 -4.6439377684802903 0 -1 0 0 0 -1 forward_v I I I I #
coedge $-1 $99 $100 $101 $102 reversed $39 $-1 #
face $-1 $103 $104 $23 $-1 $105 reversed single #
loop $-1 $-1 $106 $41 #
plane-surface $-1 -29.481153509230438 -1.3859588612820062 44.558538960501252 0.51503808176128008 0 0.85716729658548041 0.85716729658548041 0 -0.51503808176128008 forward_v I I I I #
coedge $-1 $107 $108 $109 $110 reversed $42 $-1 #
face $-1 $-1 $111 $24 $-1 $112 forward single #
loop $-1 $113 $114 $44 #
cone-surface $-1 37.281716485223605 -2.9535899091314057 3.1308962631225388 -0.51503808176128008 0 -0.85716729658548041 0.10714591207318505 0 -0.064379760220160009 1 I I -0.70710678118654746 0.70710678118654746 0.125 forward I I I I #
loop $-1 $-1 $115 $31 #
coedge $-1 $72 $72 $116 $117 reversed $45 $-1 #
face $-1 $-1 $118 $25 $-1 $119 forward single #
loop $-1 $120 $121 $47 #
cone-surface $-1 37.281716485223605 0.18167218656739692 3.1308962631225388 -0.51503808176128008 0 -0.85716729658548041 0.10714591207318505 0 -0.064379760220160009 1 I I -0.70710678118654746 0.70710678118654746 0.125 forward I I I I #
loop $-1 $-1 $122 $32 #
coedge $-1 $77 $77 $123 $124 reversed $48 $-1 #
face $-1 $125 $126 $26 $-1 $127 reversed single #
loop $-1 $-1 $128 $50 #
plane-surface $-1 -41.270790734580515 -7.4127098607595396 0.94605018455201417 -0.7660444514056185 0 0.64278759981090561 0.64278759981090561 0 0.7660444514056185 forward_v I I I I #
coedge $-1 $129 $130 $131 $132 reversed $51 $-1 #
face $-1 $-1 $133 $27 $-1 $134 forward single #
loop $-1 $135 $136 $53 #
cone-surface $-1 -36.383292161977138 -7.4127098607595396 1.2737813715231079 0.7660444514056185 0 -0.64278759981090561 0.48209069985817921 0 0.57453333855421385 1 I I -0.70710678118654757 0.70710678118654757 0.75 forward I I I I #
loop $-1 $-1 $137 $34 #
coedge $-1 $86 $86 $138 $139 reversed $54 $-1 #
face $-1 $140 $141 $21 $-1 $142 reversed single #
loop $-1 $-1 $143 $56 #
plane-surface $-1 0 -19.729168555756381 0 0 1 0 0 0 1 forward_v I I I I #
coedge $-1 $144 $145 $146 $147 forward $57 $-1 #
coedge $-1 $148 $59 $149 $150 forward $36 $-1 #
coedge $-1 $59 $148 $151 $152 forward $36 $-1 #
coedge $-1 $153 $154 $59 $94 reversed $155 $-1 #
edge $-1 $156 -19.729168555756381 $157 19.729168555756381 $93 $158 forward 7 unknown #
face $-1 $159 $160 $22 $-1 $161 reversed single #
loop $-1 $-1 $162 $60 #
plane-surface $-1 0 0 -6.1439377684802903 0 0 1 1 0 0 forward_v I I I I #
coedge $-1 $163 $164 $165 $166 reversed $61 $-1 #
coedge $-1 $167 $63 $164 $168 forward $39 $-1 #
coedge $-1 $63 $167 $169 $170 reversed $39 $-1 #
coedge $-1 $171 $165 $63 $102 forward $160 $-1 #
edge $-1 $172 5.8087809592804973 $173 11.216518717410755 $101 $174 forward 7 unknown #
face $-1 $175 $176 $23 $-1 $177 reversed single #
loop $-1 $-1 $178 $64 #
plane-surface $-1 13.030904276188686 -5.0437646395972759 115.31048320431221 0 1 0 0.51503808176128008 0 0.85716729658548041 forward_v I I I I #
coedge $-1 $179 $180 $181 $182 reversed $65 $-1 #
coedge $-1 $108 $67 $183 $184 reversed $42 $-1 #
coedge $-1 $67 $107 $179 $185 reversed $42 $-1 #
coedge $-1 $181 $186 $67 $110 forward $187 $-1 #
edge $-1 $188 -34.755338596486183 $189 -27.9360257817352 $109 $190 forward 7 unknown #
loop $-1 $-1 $116 $68 #
plane-surface $-1 -29.481153509230438 -1.3859588612820062 44.558538960501252 0.51503808176128008 0 0.85716729658548041 0.85716729658548041 0 -0.51503808176128008 forward_v I I I I #
loop $-1 $-1 $191 $44 #
coedge $-1 $114 $114 $115 $192 reversed $69 $-1 #
coedge $-1 $115 $115 $114 $192 forward $71 $-1 #
coedge $-1 $116 $116 $72 $117 forward $111 $-1 #
edge $-1 $193 0 $193 6.2831853071796004 $116 $194 forward 7 unknown #
loop $-1 $-1 $123 $73 #
plane-surface $-1 -29.481153509230438 -1.3859588612820062 44.558538960501252 0.51503808176128008 0 0.85716729658548041 0.85716729658548041 0 -0.51503808176128008 forward_v I I I I #
loop $-1 $-1 $195 $47 #
coedge $-1 $121 $121 $122 $196 reversed $74 $-1 #
coedge $-1 $122 $122 $121 $196 forward $76 $-1 #
coedge $-1 $123 $123 $77 $124 forward $118 $-1 #
edge $-1 $197 0 $197 6.2831853071796004 $123 $198 forward 7 unknown #
face $-1 $199 $200 $26 $-1 $201 forward single #
loop $-1 $-1 $202 $78 #
plane-surface $-1 -104.50131122927615 -4.2267592882446827 54.002755221710366 0 -1 0 0.7660444514056185 0 -0.64278759981090561 forward_v I I I I #
coedge $-1 $203 $204 $205 $206 reversed $79 $-1 #
coedge $-1 $130 $81 $207 $208 reversed $51 $-1 #
coedge $-1 $81 $129 $203 $209 reversed $51 $-1 #
coedge $-1 $205 $210 $81 $132 forward $200 $-1 #
edge $-1 $211 10.979864880057555 $212 15.34141032044225 $131 $213 forward 7 unknown #
loop $-1 $-1 $138 $82 #
plane-surface $-1 -41.270790734580515 -7.4127098607595396 0.94605018455201417 -0.7660444514056185 0 0.64278759981090561 0.64278759981090561 0 0.7660444514056185 forward_v I I I I #
loop $-1 $-1 $214 $53 #
coedge $-1 $136 $136 $137 $215 reversed $83 $-1 #
coedge $-1 $137 $137 $136 $215 forward $85 $-1 #
coedge $-1 $138 $138 $86 $139 forward $133 $-1 #
edge $-1 $216 0 $216 6.2831853071796004 $138 $217 forward 7 unknown #
face $-1 $218 $219 $21 $-1 $220 reversed single #
loop $-1 $-1 $221 $87 #
plane-surface $-1 -41.270790734580522 0 0 1 0 0 0 0 -1 forward_v I I I I #
coedge $-1 $222 $151 $223 $224 forward $88 $-1 #
coedge $-1 $225 $90 $222 $226 forward $57 $-1 #
coedge $-1 $90 $225 $227 $228 forward $57 $-1 #
coedge $-1 $154 $153 $90 $147 reversed $155 $-1 #
edge $-1 $229 -19.729168555756381 $230 19.729168555756381 $146 $231 forward 7 unknown #
coedge $-1 $92 $91 $232 $233 forward $36 $-1 #
coedge $-1 $234 $235 $91 $150 reversed $219 $-1 #
edge $-1 $157 -41.270790734580522 $236 41.270790734580522 $149 $237 forward 7 unknown #
coedge $-1 $143 $238 $92 $152 reversed $88 $-1 #
edge $-1 $239 -41.270790734580522 $156 41.270790734580522 $151 $240 forward 7 unknown #
coedge $-1 $146 $93 $238 $241 forward $155 $-1 #
coedge $-1 $93 $146 $234 $242 reversed $155 $-1 #
loop $-1 $-1 $153 $218 #
vertex $-1 $94 $243 #
vertex $-1 $94 $244 #
straight-curve $-1 41.270790734580522 0 6.1439377684802903 0 1 0 I I #
face $-1 $245 $246 $22 $-1 $247 reversed single #
loop $-1 $-1 $165 $95 #
plane-surface $-1 41.270790734580522 0 0 -1 0 0 0 0 1 forward_v I I I I #
coedge $-1 $248 $249 $163 $250 forward $96 $-1 #
coedge $-1 $251 $98 $162 $250 reversed $61 $-1 #
coedge $-1 $98 $251 $99 $168 reversed $61 $-1 #
coedge $-1 $101 $252 $98 $166 forward $160 $-1 #
edge $-1 $253 -3.8219688842401451 $172 -0.82196888424014514 $165 $254 forward 7 unknown #
coedge $-1 $100 $99 $255 $256 reversed $39 $-1 #
edge $-1 $172 -41.270790734580522 $257 41.270790734580522 $164 $258 forward 7 unknown #
coedge $-1 $259 $260 $100 $170 forward $246 $-1 #
edge $-1 $173 -41.270790734580522 $261 41.270790734580522 $169 $262 forward 7 unknown #
coedge $-1 $252 $101 $260 $263 forward $160 $-1 #
vertex $-1 $102 $264 #
vertex $-1 $263 $265 #
straight-curve $-1 41.270790734580522 -8.5126498383456255 -3.1439377684802903 0 -1 0 I I #
face $-1 $-1 $187 $23 $-1 $266 forward single #
loop $-1 $-1 $267 $103 #
plane-surface $-1 41.270790734580522 0 0 -1 0 0 0 0 1 forward_v I I I I #
coedge $-1 $268 $269 $270 $271 reversed $104 $-1 #
coedge $-1 $272 $106 $108 $185 forward $65 $-1 #
coedge $-1 $106 $272 $268 $273 forward $65 $-1 #
coedge $-1 $270 $109 $106 $182 forward $187 $-1 #
edge $-1 $189 -2.9648263476742667 $274 4.3507852089562729 $181 $275 forward 7 unknown #
coedge $-1 $276 $277 $107 $184 forward $176 $-1 #
edge $-1 $278 -55.608760427073975 $188 -51.511303833675811 $183 $279 forward 7 unknown #
edge $-1 $189 74.585943355206325 $278 82.541581469161031 $108 $280 forward 7 unknown #
coedge $-1 $109 $270 $276 $281 forward $187 $-1 #
loop $-1 $-1 $270 $175 #
vertex $-1 $184 $282 #
vertex $-1 $110 $283 #
straight-curve $-1 6.5154521380943429 2.2718469170332636 6.143937768480292 -1 0 0 I I #
coedge $-1 $191 $191 $-1 $284 reversed $113 $-1 #
edge $-1 $285 0 $285 6.2831853071796004 $114 $286 forward 7 unknown #
vertex $-1 $117 $287 #
ellipse-curve $-1 37.861134327205043 -2.9535899091314057 4.0952094717811978 0.51503808176128008 0 0.85716729658548041 0.2142918241463701 0 -0.12875952044032002 1 I I #
coedge $-1 $195 $195 $-1 $288 reversed $120 $-1 #
edge $-1 $289 0 $289 6.2831853071796004 $121 $290 forward 7 unknown #
vertex $-1 $124 $291 #
ellipse-curve $-1 37.861134327205043 0.18167218656739692 4.0952094717811978 0.51503808176128008 0 0.85716729658548041 0.2142918241463701 0 -0.12875952044032002 1 I I #
face $-1 $-1 $292 $26 $-1 $293 reversed single #
loop $-1 $-1 $131 $125 #
plane-surface $-1 0 0 6.1439377684802903 0 0 1 1 0 0 forward_v I I I I #
coedge $-1 $294 $295 $296 $297 reversed $126 $-1 #
coedge $-1 $298 $128 $130 $209 forward $79 $-1 #
coedge $-1 $128 $298 $294 $299 forward $79 $-1 #
coedge $-1 $296 $131 $128 $206 forward $200 $-1 #
edge $-1 $212 -6.8923055028946267 $300 -0.5204043578649129 $205 $301 forward 7 unknown #
coedge $-1 $302 $303 $129 $208 forward $292 $-1 #
edge $-1 $304 -26.055327426303176 $211 -20.857439842374895 $207 $305 forward 7 unknown #
edge $-1 $212 -6.7853602677894873 $304 1.1030930024383267e-014 $130 $306 forward 7 unknown #
coedge $-1 $131 $296 $302 $307 forward $200 $-1 #
vertex $-1 $208 $308 #
vertex $-1 $132 $309 #
straight-curve $-1 -52.250655614638077 -10.598660433274397 6.143937768480292 1 0 0 I I #
coedge $-1 $214 $214 $-1 $310 reversed $135 $-1 #
edge $-1 $311 0 $311 6.2831853071796004 $136 $312 forward 7 unknown #
vertex $-1 $139 $313 #
ellipse-curve $-1 -39.090018014388178 -7.4127098607595396 3.544993976516146 -0.7660444514056185 0 0.64278759981090561 0.96418139971635841 0 1.1490666771084277 1 I I #
face $-1 $-1 $155 $21 $-1 $314 reversed single #
loop $-1 $-1 $234 $140 #
plane-surface $-1 0 19.729168555756381 0 0 -1 0 0 0 -1 forward_v I I I I #
coedge $-1 $315 $232 $235 $316 forward $141 $-1 #
coedge $-1 $238 $143 $144 $226 reversed $88 $-1 #
coedge $-1 $232 $315 $143 $224 reversed $141 $-1 #
edge $-1 $239 -6.1439377684802903 $317 6.1439377684802903 $223 $318 forward 7 unknown #
coedge $-1 $145 $144 $315 $319 forward $57 $-1 #
edge $-1 $230 -41.270790734580522 $317 41.270790734580522 $222 $320 forward 7 unknown #
coedge $-1 $235 $234 $145 $228 reversed $219 $-1 #
edge $-1 $321 -41.270790734580522 $229 41.270790734580522 $227 $322 forward 7 unknown #
vertex $-1 $147 $323 #
vertex $-1 $241 $324 #
straight-curve $-1 41.270790734580522 0 -6.1439377684802903 0 -1 0 I I #
coedge $-1 $221 $223 $148 $233 reversed $141 $-1 #
edge $-1 $236 -19.729168555756381 $239 19.729168555756381 $232 $325 forward 7 unknown #
coedge $-1 $227 $149 $154 $242 forward $219 $-1 #
coedge $-1 $149 $227 $221 $316 reversed $219 $-1 #
vertex $-1 $150 $326 #
straight-curve $-1 0 19.729168555756381 6.1439377684802903 -1 0 0 I I #
coedge $-1 $151 $222 $153 $241 reversed $88 $-1 #
vertex $-1 $233 $327 #
straight-curve $-1 0 -19.729168555756381 6.1439377684802903 1 0 0 I I #
edge $-1 $156 -6.1439377684802903 $230 6.1439377684802903 $153 $328 forward 7 unknown #
edge $-1 $157 -6.1439377684802903 $229 6.1439377684802903 $154 $329 forward 7 unknown #
point $-1 41.270790734580522 -19.729168555756381 6.1439377684802903 #
point $-1 41.270790734580522 19.729168555756381 6.1439377684802903 #
face $-1 $-1 $330 $22 $-1 $331 reversed single #
loop $-1 $-1 $169 $159 #
plane-surface $-1 0 -19.729168555756381 0 0 1 0 0 0 1 forward_v I I I I #
coedge $-1 $332 $162 $252 $333 forward $96 $-1 #
coedge $-1 $162 $332 $334 $335 forward $96 $-1 #
edge $-1 $336 -41.270790734580522 $253 41.270790734580522 $162 $337 forward 7 unknown #
coedge $-1 $164 $163 $338 $339 reversed $61 $-1 #
coedge $-1 $165 $171 $248 $333 reversed $160 $-1 #
vertex $-1 $333 $340 #
straight-curve $-1 41.270790734580522 -14.321430797626123 -2.3219688842401451 0 0 1 I I #
coedge $-1 $338 $341 $167 $256 forward $330 $-1 #
edge $-1 $261 -11.216518717410755 $257 -5.8087809592804973 $255 $342 forward 7 unknown #
vertex $-1 $256 $343 #
straight-curve $-1 0 -14.321430797626123 -3.1439377684802903 -1 0 0 I I #
coedge $-1 $344 $169 $341 $345 forward $246 $-1 #
coedge $-1 $169 $344 $171 $263 reversed $246 $-1 #
vertex $-1 $345 $346 #
straight-curve $-1 0 -19.729168555756381 -3.1439377684802903 -1 0 0 I I #
edge $-1 $173 3.1439377684802903 $347 6.1439377684802903 $171 $348 forward 7 unknown #
point $-1 41.270790734580522 -14.321430797626123 -3.1439377684802903 #
point $-1 41.270790734580522 -19.729168555756381 -3.1439377684802903 #
plane-surface $-1 0 0 6.1439377684802903 0 0 1 1 0 0 forward_v I I I I #
coedge $-1 $277 $276 $269 $349 forward $176 $-1 #
coedge $-1 $269 $178 $180 $273 reversed $104 $-1 #
coedge $-1 $178 $268 $267 $349 reversed $104 $-1 #
coedge $-1 $186 $181 $178 $271 forward $187 $-1 #
edge $-1 $274 27.9360257817352 $350 34.755338596486183 $270 $351 forward 7 unknown #
coedge $-1 $180 $179 $277 $352 reversed $65 $-1 #
edge $-1 $353 -82.541581469161031 $274 -74.585943355206325 $268 $354 forward 7 unknown #
vertex $-1 $182 $355 #
straight-curve $-1 34.45147791982955 -0.69297943064100309 6.143937768480292 0 -1 0 I I #
coedge $-1 $267 $183 $186 $281 reversed $176 $-1 #
coedge $-1 $183 $267 $272 $352 forward $176 $-1 #
vertex $-1 $184 $356 #
straight-curve $-1 41.270790734580522 2.2718469170332636 57.655241602156103 0 0 1 I I #
straight-curve $-1 -29.481153509230438 2.2718469170332636 44.558538960501252 0.85716729658548041 0 -0.51503808176128008 I I #
edge $-1 $350 -5.0437646395972759 $188 2.2718469170332636 $276 $357 forward 7 unknown #
point $-1 41.270790734580522 2.2718469170332636 6.1439377684802903 #
point $-1 34.451477919829543 2.2718469170332636 6.143937768480292 #
edge $-1 $358 1 $358 0 $191 $-1 forward 7 unknown #
vertex $-1 $192 $359 #
ellipse-curve $-1 37.346096245443768 -2.9535899091314057 3.2380421751957238 0.51503808176128008 0 0.85716729658548041 0.2142918241463701 0 -0.12875952044032002 1 I I #
point $-1 38.075426151351415 -2.9535899091314057 3.9664499513408842 #
edge $-1 $360 1 $360 0 $195 $-1 forward 7 unknown #
vertex $-1 $196 $361 #
ellipse-curve $-1 37.346096245443768 0.18167218656739692 3.2380421751957238 0.51503808176128008 0 0.85716729658548041 0.2142918241463701 0 -0.12875952044032002 1 I I #
point $-1 38.075426151351415 0.18167218656739692 3.9664499513408842 #
loop $-1 $-1 $207 $199 #
plane-surface $-1 -41.270790734580522 0 0 1 0 0 0 0 -1 forward_v I I I I #
coedge $-1 $295 $202 $204 $299 reversed $126 $-1 #
coedge $-1 $202 $294 $362 $363 reversed $126 $-1 #
coedge $-1 $210 $205 $202 $297 forward $200 $-1 #
edge $-1 $300 -15.34141032044225 $364 -10.979864880057555 $296 $365 forward 7 unknown #
coedge $-1 $204 $203 $303 $366 reversed $79 $-1 #
edge $-1 $367 -1.1030930024383267e-014 $300 6.7853602677894873 $294 $368 forward 7 unknown #
vertex $-1 $206 $369 #
straight-curve $-1 -36.909245294195827 -3.7063549303797698 6.1439377684802903 0 1 0 I I #
coedge $-1 $362 $207 $210 $307 reversed $292 $-1 #
coedge $-1 $207 $362 $298 $366 forward $292 $-1 #
vertex $-1 $208 $370 #
straight-curve $-1 -41.270790734580522 -10.598660433274397 27.001377610855183 0 0 1 I I #
straight-curve $-1 -41.270790734580515 -10.598660433274397 0.94605018455201417 -0.64278759981090561 0 -0.7660444514056185 I I #
edge $-1 $364 4.2267592882446827 $211 10.598660433274397 $302 $371 forward 7 unknown #
point $-1 -41.270790734580522 -10.598660433274397 6.1439377684802903 #
point $-1 -36.909245294195827 -10.598660433274397 6.1439377684802903 #
edge $-1 $372 1 $372 0 $214 $-1 forward 7 unknown #
vertex $-1 $215 $373 #
ellipse-curve $-1 -36.957825500531349 -7.4127098607595396 1.7558720713812872 -0.7660444514056185 0 0.64278759981090561 0.96418139971635841 0 1.1490666771084277 1 I I #
point $-1 -38.125836614671819 -7.4127098607595396 4.6940606536245761 #
plane-surface $-1 41.270790734580522 0 0 -1 0 0 0 0 1 forward_v I I I I #
coedge $-1 $223 $221 $225 $319 reversed $141 $-1 #
edge $-1 $236 -6.1439377684802903 $321 6.1439377684802903 $235 $374 forward 7 unknown #
vertex $-1 $319 $375 #
straight-curve $-1 -41.270790734580522 -19.729168555756381 0 0 0 -1 I I #
edge $-1 $317 -19.729168555756381 $321 19.729168555756381 $315 $376 forward 7 unknown #
straight-curve $-1 0 -19.729168555756381 -6.1439377684802903 -1 0 0 I I #
vertex $-1 $228 $377 #
straight-curve $-1 0 19.729168555756381 -6.1439377684802903 1 0 0 I I #
point $-1 41.270790734580522 19.729168555756381 -6.1439377684802903 #
point $-1 41.270790734580522 -19.729168555756381 -6.1439377684802903 #
straight-curve $-1 -41.270790734580522 0 6.1439377684802903 0 -1 0 I I #
point $-1 -41.270790734580522 19.729168555756381 6.1439377684802903 #
point $-1 -41.270790734580522 -19.729168555756381 6.1439377684802903 #
straight-curve $-1 41.270790734580522 -19.729168555756381 0 0 0 -1 I I #
straight-curve $-1 41.270790734580522 19.729168555756381 0 0 0 -1 I I #
loop $-1 $-1 $338 $245 #
plane-surface $-1 -41.270790734580522 0 0 1 0 0 0 0 -1 forward_v I I I I #
coedge $-1 $249 $248 $344 $378 forward $96 $-1 #
edge $-1 $253 14.321430797626123 $347 19.729168555756381 $252 $379 forward 7 unknown #
coedge $-1 $341 $338 $249 $335 reversed $330 $-1 #
edge $-1 $380 -19.729168555756381 $336 -14.321430797626123 $334 $381 forward 7 unknown #
vertex $-1 $339 $382 #
straight-curve $-1 0 -14.321430797626123 -6.1439377684802903 1 0 0 I I #
coedge $-1 $334 $255 $251 $339 forward $330 $-1 #
edge $-1 $257 0.82196888424014514 $336 3.8219688842401451 $338 $383 forward 7 unknown #
point $-1 41.270790734580522 -14.321430797626123 -6.1439377684802903 #
coedge $-1 $255 $334 $259 $345 reversed $330 $-1 #
straight-curve $-1 -41.270790734580522 -8.5126498383456255 -3.1439377684802903 0 1 0 I I #
point $-1 -41.270790734580522 -14.321430797626123 -3.1439377684802903 #
coedge $-1 $260 $259 $332 $378 reversed $246 $-1 #
edge $-1 $261 3.1439377684802903 $380 6.1439377684802903 $341 $384 forward 7 unknown #
point $-1 -41.270790734580522 -19.729168555756381 -3.1439377684802903 #
vertex $-1 $263 $385 #
straight-curve $-1 41.270790734580522 -19.729168555756381 0 0 0 -1 I I #
edge $-1 $350 51.511303833675811 $353 55.608760427073975 $267 $386 forward 7 unknown #
vertex $-1 $281 $387 #
straight-curve $-1 6.5154521380943429 -5.0437646395972759 6.143937768480292 1 0 0 I I #
edge $-1 $353 -4.3507852089562729 $278 2.9648263476742667 $277 $388 forward 7 unknown #
vertex $-1 $352 $389 #
straight-curve $-1 -29.481153509230438 -5.0437646395972759 44.558538960501252 -0.85716729658548041 0 0.51503808176128008 I I #
point $-1 34.451477919829543 -5.0437646395972759 6.143937768480292 #
point $-1 41.270790734580515 2.2718469170332636 2.0464811750821283 #
straight-curve $-1 41.270790734580522 0 6.1439377684802903 0 1 0 I I #
vertex $-1 $284 $390 #
point $-1 37.560388069590132 -2.9535899091314057 3.109282654755404 #
vertex $-1 $288 $391 #
point $-1 37.560388069590132 0.18167218656739692 3.109282654755404 #
coedge $-1 $303 $302 $295 $363 forward $292 $-1 #
edge $-1 $364 20.857439842374895 $367 26.055327426303176 $362 $392 forward 7 unknown #
vertex $-1 $307 $393 #
straight-curve $-1 -52.250655614638077 -4.2267592882446827 6.143937768480292 -1 0 0 I I #
edge $-1 $367 0.5204043578649129 $304 6.8923055028946267 $303 $394 forward 7 unknown #
vertex $-1 $366 $395 #
straight-curve $-1 -41.270790734580515 -4.2267592882446827 0.94605018455201417 0.64278759981090561 0 0.7660444514056185 I I #
point $-1 -36.909245294195827 -4.2267592882446827 6.1439377684802903 #
point $-1 -41.270790734580522 -10.598660433274397 0.94605018455200574 #
straight-curve $-1 -41.270790734580522 0 6.1439377684802903 0 -1 0 I I #
vertex $-1 $310 $396 #
point $-1 -35.993644100814997 -7.4127098607595396 2.9049387484897147 #
straight-curve $-1 -41.270790734580522 19.729168555756381 0 0 0 -1 I I #
point $-1 -41.270790734580522 -19.729168555756381 -6.1439377684802903 #
straight-curve $-1 -41.270790734580522 0 -6.1439377684802903 0 1 0 I I #
point $-1 -41.270790734580522 19.729168555756381 -6.1439377684802903 #
edge $-1 $347 -41.270790734580522 $380 41.270790734580522 $344 $397 forward 7 unknown #
straight-curve $-1 41.270790734580522 0 -6.1439377684802903 0 -1 0 I I #
vertex $-1 $335 $398 #
straight-curve $-1 -41.270790734580522 0 -6.1439377684802903 0 1 0 I I #
point $-1 -41.270790734580522 -14.321430797626123 -6.1439377684802903 #
straight-curve $-1 -41.270790734580522 -14.321430797626123 -2.3219688842401451 0 0 -1 I I #
straight-curve $-1 -41.270790734580522 -19.729168555756381 0 0 0 -1 I I #
point $-1 41.270790734580522 -19.729168555756381 -6.1439377684802903 #
straight-curve $-1 41.270790734580522 -5.0437646395972759 57.655241602156103 0 0 -1 I I #
point $-1 41.270790734580522 -5.0437646395972759 6.1439377684802903 #
straight-curve $-1 41.27079073458053 -0.69297943064100309 2.0464811750821283 0 1 0 I I #
point $-1 41.270790734580515 -5.0437646395972759 2.0464811750821283 #
point $-1 37.217336725003442 -2.9535899091314057 3.0237503510493537 #
point $-1 37.217336725003442 0.18167218656739692 3.0237503510493537 #
straight-curve $-1 -41.270790734580522 -4.2267592882446827 27.001377610855183 0 0 -1 I I #
point $-1 -41.270790734580522 -4.2267592882446827 6.1439377684802903 #
straight-curve $-1 -41.270790734580522 -3.7063549303797698 0.94605018455199996 0 -1 0 I I #
point $-1 -41.270790734580522 -4.2267592882446827 0.94605018455200574 #
point $-1 -35.808758823422927 -7.4127098607595396 0.79169067166492868 #
straight-curve $-1 0 -19.729168555756381 -6.1439377684802903 -1 0 0 I I #
point $-1 -41.270790734580522 -19.729168555756381 -6.1439377684802903 #
End-of-ACIS-data 