500 0 14 0           
7 Unknown 11 ACIS 5.0 NT 24 Fri Mar 26 20:42:21 1999 
-1 9.9999999999999995e-007 1e-010 
body $-1 $14 $-1 $15 #
body $-1 $16 $-1 $17 #
body $-1 $18 $-1 $19 #
body $-1 $20 $-1 $21 #
body $-1 $22 $-1 $23 #
body $-1 $24 $-1 $25 #
body $-1 $26 $-1 $27 #
body $-1 $28 $-1 $29 #
body $-1 $30 $-1 $31 #
body $-1 $32 $-1 $33 #
body $-1 $34 $-1 $35 #
body $-1 $36 $-1 $37 #
body $-1 $38 $-1 $39 #
body $-1 $40 $-1 $41 #
lump $-1 $-1 $42 $0 #
transform $-1 1 0 0 0 1 0 0 0 1 64.727317117831973 28.565395509074154 9.6799962966904989 1 rotate no_reflect no_shear #
lump $-1 $-1 $43 $1 #
transform $-1 1 0 0 0 1 0 0 0 1 64.727317117831973 28.565395509074154 9.6799962966904989 1 rotate no_reflect no_shear #
lump $-1 $-1 $44 $2 #
transform $-1 1 0 0 0 1 0 0 0 1 64.727317117831973 28.565395509074154 9.6799962966904989 1 rotate no_reflect no_shear #
lump $-1 $-1 $45 $3 #
transform $-1 1 0 0 0 1 0 0 0 1 64.727317117831973 28.565395509074154 9.6799962966904989 1 rotate no_reflect no_shear #
lump $-1 $-1 $46 $4 #
transform $-1 1 0 0 0 1 0 0 0 1 64.727317117831973 28.565395509074154 9.6799962966904989 1 rotate no_reflect no_shear #
lump $-1 $-1 $47 $5 #
transform $-1 1 0 0 0 1 0 0 0 1 64.727317117831973 28.565395509074154 9.6799962966904989 1 rotate no_reflect no_shear #
lump $-1 $-1 $48 $6 #
transform $-1 1 0 0 0 1 0 0 0 1 64.727317117831973 28.565395509074154 9.6799962966904989 1 rotate no_reflect no_shear #
lump $-1 $-1 $49 $7 #
transform $-1 1 0 0 0 1 0 0 0 1 64.727317117831973 28.565395509074154 9.6799962966904989 1 rotate no_reflect no_shear #
lump $-1 $-1 $50 $8 #
transform $-1 1 0 0 0 1 0 0 0 1 64.727317117831973 28.565395509074154 9.6799962966904989 1 rotate no_reflect no_shear #
lump $-1 $-1 $51 $9 #
transform $-1 1 0 0 0 1 0 0 0 1 64.727317117831973 28.565395509074154 9.6799962966904989 1 rotate no_reflect no_shear #
lump $-1 $-1 $52 $10 #
transform $-1 1 0 0 0 1 0 0 0 1 64.727317117831973 28.565395509074154 9.6799962966904989 1 rotate no_reflect no_shear #
lump $-1 $-1 $53 $11 #
transform $-1 1 0 0 0 1 0 0 0 1 64.727317117831973 28.565395509074154 9.6799962966904989 1 rotate no_reflect no_shear #
lump $-1 $-1 $54 $12 #
transform $-1 1 0 0 0 1 0 0 0 1 64.727317117831973 28.565395509074154 9.6799962966904989 1 rotate no_reflect no_shear #
lump $-1 $-1 $55 $13 #
transform $-1 1 0 0 0 1 0 0 0 1 64.727317117831973 28.565395509074154 9.6799962966904989 1 rotate no_reflect no_shear #
shell $-1 $-1 $-1 $56 $-1 $14 #
shell $-1 $-1 $-1 $57 $-1 $16 #
shell $-1 $-1 $-1 $58 $-1 $18 #
shell $-1 $-1 $-1 $59 $-1 $20 #
shell $-1 $-1 $-1 $60 $-1 $22 #
shell $-1 $-1 $-1 $61 $-1 $24 #
shell $-1 $-1 $-1 $62 $-1 $26 #
shell $-1 $-1 $-1 $63 $-1 $28 #
shell $-1 $-1 $-1 $64 $-1 $30 #
shell $-1 $-1 $-1 $65 $-1 $32 #
shell $-1 $-1 $-1 $66 $-1 $34 #
shell $-1 $-1 $-1 $67 $-1 $36 #
shell $-1 $-1 $-1 $68 $-1 $38 #
shell $-1 $-1 $-1 $69 $-1 $40 #
face $-1 $70 $71 $42 $-1 $72 forward single #
face $-1 $73 $74 $43 $-1 $75 forward single #
face $-1 $76 $77 $44 $-1 $78 reversed single #
face $-1 $79 $80 $45 $-1 $81 forward single #
face $-1 $82 $83 $46 $-1 $84 forward single #
face $-1 $85 $86 $47 $-1 $87 reversed single #
face $-1 $88 $89 $48 $-1 $90 forward single #
face $-1 $91 $92 $49 $-1 $93 forward single #
face $-1 $94 $95 $50 $-1 $96 reversed single #
face $-1 $97 $98 $51 $-1 $99 forward single #
face $-1 $100 $101 $52 $-1 $102 forward single #
face $-1 $103 $104 $53 $-1 $105 reversed single #
face $-1 $106 $107 $54 $-1 $108 forward single #
face $-1 $109 $110 $55 $-1 $111 forward single #
face $-1 $112 $113 $42 $-1 $114 reversed single #
loop $-1 $-1 $115 $56 #
plane-surface $-1 0 0 9.6799962966904989 0 0 1 1 0 0 forward_v I I I I #
face $-1 $116 $117 $43 $-1 $118 reversed single #
loop $-1 $-1 $119 $57 #
plane-surface $-1 0 -24.276788171235935 -4.7727903124891409 0 0 1 1 0 0 forward_v I I I I #
face $-1 $120 $121 $44 $-1 $122 reversed single #
loop $-1 $-1 $123 $58 #
plane-surface $-1 -163.89532138280617 -7.969659210763151 89.422128347666074 0 1 0 -0.7660444514056185 0 0.64278759981090561 forward_v I I I I #
face $-1 $124 $125 $45 $-1 $126 forward single #
loop $-1 $127 $128 $59 #
cone-surface $-1 -62.65411894881732 -5.2005189116001524 7.427013624679236 0.7660444514056185 0 -0.64278759981090561 0.64278759981090561 0 0.7660444514056185 1 I I 0 1 1 forward I I I I #
face $-1 $129 $130 $46 $-1 $131 forward single #
loop $-1 $132 $133 $60 #
cone-surface $-1 -62.65411894881732 -1.0468084628556547 7.427013624679236 0.7660444514056185 0 -0.64278759981090561 0.64278759981090561 0 0.7660444514056185 1 I I 0 1 1 forward I I I I #
face $-1 $134 $135 $47 $-1 $136 reversed single #
loop $-1 $-1 $137 $61 #
plane-surface $-1 -163.89532138280617 6.8548828393690826 89.422128347666074 0 1 0 -0.7660444514056185 0 0.64278759981090561 forward_v I I I I #
face $-1 $138 $139 $48 $-1 $140 forward single #
loop $-1 $141 $142 $62 #
cone-surface $-1 -62.65411894881732 9.6240231385320847 7.427013624679236 0.7660444514056185 0 -0.64278759981090561 0.64278759981090561 0 0.7660444514056185 1 I I 0 1 1 forward I I I I #
face $-1 $143 $144 $49 $-1 $145 forward single #
loop $-1 $146 $147 $63 #
cone-surface $-1 -62.65411894881732 13.777733587276582 7.427013624679236 0.7660444514056185 0 -0.64278759981090561 0.64278759981090561 0 0.7660444514056185 1 I I 0 1 1 forward I I I I #
face $-1 $148 $149 $50 $-1 $150 reversed single #
loop $-1 $-1 $151 $64 #
plane-surface $-1 80.683487758065041 1.7223318363073439 188.59013261264028 0 -1 0 -0.7660444514056185 0 -0.64278759981090561 forward_v I I I I #
face $-1 $152 $153 $51 $-1 $154 forward single #
loop $-1 $155 $156 $65 #
cone-surface $-1 62.654118948817334 -5.2005189116001524 7.4270136246792431 -0.7660444514056185 0 -0.64278759981090561 0.64278759981090561 0 -0.7660444514056185 1 I I 0 1 1 forward I I I I #
face $-1 $157 $158 $52 $-1 $159 forward single #
loop $-1 $160 $161 $66 #
cone-surface $-1 62.654118948817334 -1.0468084628556547 7.4270136246792431 -0.7660444514056185 0 -0.64278759981090561 0.64278759981090561 0 -0.7660444514056185 1 I I 0 1 1 forward I I I I #
face $-1 $162 $163 $53 $-1 $164 reversed single #
loop $-1 $-1 $165 $67 #
plane-surface $-1 80.683487758065041 16.546873886439577 188.59013261264028 0 -1 0 -0.7660444514056185 0 -0.64278759981090561 forward_v I I I I #
face $-1 $166 $167 $54 $-1 $168 forward single #
loop $-1 $169 $170 $68 #
cone-surface $-1 62.654118948817334 9.6240231385320847 7.4270136246792431 -0.7660444514056185 0 -0.64278759981090561 0.64278759981090561 0 -0.7660444514056185 1 I I 0 1 1 forward I I I I #
face $-1 $171 $172 $55 $-1 $173 forward single #
loop $-1 $174 $175 $69 #
cone-surface $-1 62.654118948817334 13.777733587276582 7.4270136246792431 -0.7660444514056185 0 -0.64278759981090561 0.64278759981090561 0 -0.7660444514056185 1 I I 0 1 1 forward I I I I #
face $-1 $176 $177 $42 $-1 $178 reversed single #
loop $-1 $-1 $179 $70 #
plane-surface $-1 0 0 -9.6799962966904989 0 0 1 1 0 0 forward_v I I I I #
coedge $-1 $180 $181 $182 $183 forward $71 $-1 #
face $-1 $184 $185 $43 $-1 $186 reversed single #
loop $-1 $-1 $187 $73 #
plane-surface $-1 0 -19.988180833397717 -7.2263933045898199 0 -1 0 0 0 -1 forward_v I I I I #
coedge $-1 $188 $189 $190 $191 reversed $74 $-1 #
face $-1 $192 $193 $44 $-1 $194 reversed single #
loop $-1 $-1 $195 $76 #
plane-surface $-1 -64.727317117831987 -3.1236636872279036 6.2102947229249565 -0.7660444514056185 0 0.64278759981090561 0.64278759981090561 0 0.7660444514056185 forward_v I I I I #
coedge $-1 $196 $197 $198 $199 reversed $77 $-1 #
face $-1 $-1 $200 $45 $-1 $201 forward single #
loop $-1 $202 $203 $79 #
cone-surface $-1 -61.6536111714085 -5.2005189116001524 6.5874879396452837 0.7660444514056185 0 -0.64278759981090561 0.3213937999054528 0 0.38302222570280925 1 I I -0.70710678118654746 0.70710678118654746 0.5 forward I I I I #
loop $-1 $-1 $204 $59 #
coedge $-1 $128 $128 $205 $206 reversed $80 $-1 #
face $-1 $-1 $207 $46 $-1 $208 forward single #
loop $-1 $209 $210 $82 #
cone-surface $-1 -61.6536111714085 -1.0468084628556547 6.5874879396452837 0.7660444514056185 0 -0.64278759981090561 0.3213937999054528 0 0.38302222570280925 1 I I -0.70710678118654746 0.70710678118654746 0.5 forward I I I I #
loop $-1 $-1 $211 $60 #
coedge $-1 $133 $133 $212 $213 reversed $83 $-1 #
face $-1 $214 $215 $47 $-1 $216 reversed single #
loop $-1 $-1 $217 $85 #
plane-surface $-1 -64.727317117831987 11.70087836290433 6.2102947229249565 -0.7660444514056185 0 0.64278759981090561 0.64278759981090561 0 0.7660444514056185 forward_v I I I I #
coedge $-1 $218 $219 $220 $221 reversed $86 $-1 #
face $-1 $-1 $222 $48 $-1 $223 forward single #
loop $-1 $224 $225 $88 #
cone-surface $-1 -61.6536111714085 9.6240231385320847 6.5874879396452837 0.7660444514056185 0 -0.64278759981090561 0.3213937999054528 0 0.38302222570280925 1 I I -0.70710678118654746 0.70710678118654746 0.5 forward I I I I #
loop $-1 $-1 $226 $62 #
coedge $-1 $142 $142 $227 $228 reversed $89 $-1 #
face $-1 $-1 $229 $49 $-1 $230 forward single #
loop $-1 $231 $232 $91 #
cone-surface $-1 -61.6536111714085 13.777733587276582 6.5874879396452837 0.7660444514056185 0 -0.64278759981090561 0.3213937999054528 0 0.38302222570280925 1 I I -0.70710678118654746 0.70710678118654746 0.5 forward I I I I #
loop $-1 $-1 $233 $63 #
coedge $-1 $147 $147 $234 $235 reversed $92 $-1 #
face $-1 $236 $237 $50 $-1 $238 reversed single #
loop $-1 $-1 $239 $94 #
plane-surface $-1 -18.484516506909145 -3.1236636872279036 105.37829898789916 0.7660444514056185 0 0.64278759981090561 0.64278759981090561 0 -0.7660444514056185 forward_v I I I I #
coedge $-1 $240 $241 $242 $243 reversed $95 $-1 #
face $-1 $-1 $244 $51 $-1 $245 forward single #
loop $-1 $246 $247 $97 #
cone-surface $-1 61.653611171408514 -5.2005189116001524 6.5874879396452908 -0.7660444514056185 0 -0.64278759981090561 0.3213937999054528 0 -0.38302222570280925 1 I I -0.70710678118654746 0.70710678118654746 0.5 forward I I I I #
loop $-1 $-1 $248 $65 #
coedge $-1 $156 $156 $249 $250 reversed $98 $-1 #
face $-1 $-1 $251 $52 $-1 $252 forward single #
loop $-1 $253 $254 $100 #
cone-surface $-1 61.653611171408514 -1.0468084628556547 6.5874879396452908 -0.7660444514056185 0 -0.64278759981090561 0.3213937999054528 0 -0.38302222570280925 1 I I -0.70710678118654746 0.70710678118654746 0.5 forward I I I I #
loop $-1 $-1 $255 $66 #
coedge $-1 $161 $161 $256 $257 reversed $101 $-1 #
face $-1 $258 $259 $53 $-1 $260 reversed single #
loop $-1 $-1 $261 $103 #
plane-surface $-1 -18.484516506909145 11.70087836290433 105.37829898789916 0.7660444514056185 0 0.64278759981090561 0.64278759981090561 0 -0.7660444514056185 forward_v I I I I #
coedge $-1 $262 $263 $264 $265 reversed $104 $-1 #
face $-1 $-1 $266 $54 $-1 $267 forward single #
loop $-1 $268 $269 $106 #
cone-surface $-1 61.653611171408514 9.6240231385320847 6.5874879396452908 -0.7660444514056185 0 -0.64278759981090561 0.3213937999054528 0 -0.38302222570280925 1 I I -0.70710678118654746 0.70710678118654746 0.5 forward I I I I #
loop $-1 $-1 $270 $68 #
coedge $-1 $170 $170 $271 $272 reversed $107 $-1 #
face $-1 $-1 $273 $55 $-1 $274 forward single #
loop $-1 $275 $276 $109 #
cone-surface $-1 61.653611171408514 13.777733587276582 6.5874879396452908 -0.7660444514056185 0 -0.64278759981090561 0.3213937999054528 0 -0.38302222570280925 1 I I -0.70710678118654746 0.70710678118654746 0.5 forward I I I I #
loop $-1 $-1 $277 $69 #
coedge $-1 $175 $175 $278 $279 reversed $110 $-1 #
face $-1 $280 $281 $42 $-1 $282 reversed single #
loop $-1 $-1 $283 $112 #
plane-surface $-1 0 -28.565395509074154 0 0 1 0 0 0 1 forward_v I I I I #
coedge $-1 $284 $285 $286 $287 forward $113 $-1 #
coedge $-1 $288 $115 $289 $290 forward $71 $-1 #
coedge $-1 $115 $288 $291 $292 forward $71 $-1 #
coedge $-1 $293 $294 $115 $183 reversed $295 $-1 #
edge $-1 $296 -28.565395509074154 $297 28.565395509074154 $182 $298 forward 7 unknown #
face $-1 $299 $300 $43 $-1 $301 reversed single #
loop $-1 $-1 $302 $116 #
plane-surface $-1 0 0 -9.6799962966904989 0 0 1 1 0 0 forward_v I I I I #
coedge $-1 $303 $304 $305 $306 reversed $117 $-1 #
coedge $-1 $307 $119 $304 $308 forward $74 $-1 #
coedge $-1 $119 $307 $309 $310 reversed $74 $-1 #
coedge $-1 $311 $305 $119 $191 forward $300 $-1 #
edge $-1 $312 7.8497867477797492 $313 16.427001423456186 $190 $314 forward 7 unknown #
face $-1 $315 $316 $44 $-1 $317 forward single #
loop $-1 $-1 $318 $120 #
plane-surface $-1 -163.89532138280617 1.7223318363073439 89.422128347666074 0 -1 0 0.7660444514056185 0 -0.64278759981090561 forward_v I I I I #
coedge $-1 $319 $320 $321 $322 reversed $121 $-1 #
coedge $-1 $197 $123 $323 $324 reversed $77 $-1 #
coedge $-1 $123 $196 $319 $325 reversed $77 $-1 #
coedge $-1 $321 $326 $123 $199 forward $316 $-1 #
edge $-1 $327 17.220343573571114 $328 20.13176880818839 $198 $329 forward 7 unknown #
loop $-1 $-1 $205 $124 #
plane-surface $-1 -64.727317117831987 -3.1236636872279036 6.2102947229249565 -0.7660444514056185 0 0.64278759981090561 0.64278759981090561 0 0.7660444514056185 forward_v I I I I #
loop $-1 $-1 $330 $79 #
coedge $-1 $203 $203 $204 $331 reversed $125 $-1 #
coedge $-1 $204 $204 $203 $331 forward $127 $-1 #
coedge $-1 $205 $205 $128 $206 forward $200 $-1 #
edge $-1 $332 0 $332 6.2831853071796004 $205 $333 forward 7 unknown #
loop $-1 $-1 $212 $129 #
plane-surface $-1 -64.727317117831987 -3.1236636872279036 6.2102947229249565 -0.7660444514056185 0 0.64278759981090561 0.64278759981090561 0 0.7660444514056185 forward_v I I I I #
loop $-1 $-1 $334 $82 #
coedge $-1 $210 $210 $211 $335 reversed $130 $-1 #
coedge $-1 $211 $211 $210 $335 forward $132 $-1 #
coedge $-1 $212 $212 $133 $213 forward $207 $-1 #
edge $-1 $336 0 $336 6.2831853071796004 $212 $337 forward 7 unknown #
face $-1 $338 $339 $47 $-1 $340 forward single #
loop $-1 $-1 $341 $134 #
plane-surface $-1 -163.89532138280617 16.546873886439577 89.422128347666074 0 -1 0 0.7660444514056185 0 -0.64278759981090561 forward_v I I I I #
coedge $-1 $342 $343 $344 $345 reversed $135 $-1 #
coedge $-1 $219 $137 $346 $347 reversed $86 $-1 #
coedge $-1 $137 $218 $342 $348 reversed $86 $-1 #
coedge $-1 $344 $349 $137 $221 forward $339 $-1 #
edge $-1 $350 17.220343573571114 $351 20.13176880818839 $220 $352 forward 7 unknown #
loop $-1 $-1 $227 $138 #
plane-surface $-1 -64.727317117831987 11.70087836290433 6.2102947229249565 -0.7660444514056185 0 0.64278759981090561 0.64278759981090561 0 0.7660444514056185 forward_v I I I I #
loop $-1 $-1 $353 $88 #
coedge $-1 $225 $225 $226 $354 reversed $139 $-1 #
coedge $-1 $226 $226 $225 $354 forward $141 $-1 #
coedge $-1 $227 $227 $142 $228 forward $222 $-1 #
edge $-1 $355 0 $355 6.2831853071796004 $227 $356 forward 7 unknown #
loop $-1 $-1 $234 $143 #
plane-surface $-1 -64.727317117831987 11.70087836290433 6.2102947229249565 -0.7660444514056185 0 0.64278759981090561 0.64278759981090561 0 0.7660444514056185 forward_v I I I I #
loop $-1 $-1 $357 $91 #
coedge $-1 $232 $232 $233 $358 reversed $144 $-1 #
coedge $-1 $233 $233 $232 $358 forward $146 $-1 #
coedge $-1 $234 $234 $147 $235 forward $229 $-1 #
edge $-1 $359 0 $359 6.2831853071796004 $234 $360 forward 7 unknown #
face $-1 $361 $362 $50 $-1 $363 reversed single #
loop $-1 $-1 $364 $148 #
plane-surface $-1 80.683487758065041 -7.969659210763151 188.59013261264028 0 1 0 0.7660444514056185 0 0.64278759981090561 forward_v I I I I #
coedge $-1 $365 $366 $367 $368 reversed $149 $-1 #
coedge $-1 $241 $151 $369 $370 reversed $95 $-1 #
coedge $-1 $151 $240 $365 $371 reversed $95 $-1 #
coedge $-1 $367 $372 $151 $243 forward $373 $-1 #
edge $-1 $374 -24.385573238799452 $375 -21.474148004182169 $242 $376 forward 7 unknown #
loop $-1 $-1 $249 $152 #
plane-surface $-1 -18.484516506909145 -3.1236636872279036 105.37829898789916 0.7660444514056185 0 0.64278759981090561 0.64278759981090561 0 -0.7660444514056185 forward_v I I I I #
loop $-1 $-1 $377 $97 #
coedge $-1 $247 $247 $248 $378 reversed $153 $-1 #
coedge $-1 $248 $248 $247 $378 forward $155 $-1 #
coedge $-1 $249 $249 $156 $250 forward $244 $-1 #
edge $-1 $379 0 $379 6.2831853071796004 $249 $380 forward 7 unknown #
loop $-1 $-1 $256 $157 #
plane-surface $-1 -18.484516506909145 -3.1236636872279036 105.37829898789916 0.7660444514056185 0 0.64278759981090561 0.64278759981090561 0 -0.7660444514056185 forward_v I I I I #
loop $-1 $-1 $381 $100 #
coedge $-1 $254 $254 $255 $382 reversed $158 $-1 #
coedge $-1 $255 $255 $254 $382 forward $160 $-1 #
coedge $-1 $256 $256 $161 $257 forward $251 $-1 #
edge $-1 $383 0 $383 6.2831853071796004 $256 $384 forward 7 unknown #
face $-1 $385 $386 $53 $-1 $387 reversed single #
loop $-1 $-1 $388 $162 #
plane-surface $-1 80.683487758065041 6.8548828393690826 188.59013261264028 0 1 0 0.7660444514056185 0 0.64278759981090561 forward_v I I I I #
coedge $-1 $389 $390 $391 $392 reversed $163 $-1 #
coedge $-1 $263 $165 $393 $394 reversed $104 $-1 #
coedge $-1 $165 $262 $389 $395 reversed $104 $-1 #
coedge $-1 $391 $396 $165 $265 forward $397 $-1 #
edge $-1 $398 -24.385573238799452 $399 -21.474148004182169 $264 $400 forward 7 unknown #
loop $-1 $-1 $271 $166 #
plane-surface $-1 -18.484516506909145 11.70087836290433 105.37829898789916 0.7660444514056185 0 0.64278759981090561 0.64278759981090561 0 -0.7660444514056185 forward_v I I I I #
loop $-1 $-1 $401 $106 #
coedge $-1 $269 $269 $270 $402 reversed $167 $-1 #
coedge $-1 $270 $270 $269 $402 forward $169 $-1 #
coedge $-1 $271 $271 $170 $272 forward $266 $-1 #
edge $-1 $403 0 $403 6.2831853071796004 $271 $404 forward 7 unknown #
loop $-1 $-1 $278 $171 #
plane-surface $-1 -18.484516506909145 11.70087836290433 105.37829898789916 0.7660444514056185 0 0.64278759981090561 0.64278759981090561 0 -0.7660444514056185 forward_v I I I I #
loop $-1 $-1 $405 $109 #
coedge $-1 $276 $276 $277 $406 reversed $172 $-1 #
coedge $-1 $277 $277 $276 $406 forward $174 $-1 #
coedge $-1 $278 $278 $175 $279 forward $273 $-1 #
edge $-1 $407 0 $407 6.2831853071796004 $278 $408 forward 7 unknown #
face $-1 $409 $410 $42 $-1 $411 reversed single #
loop $-1 $-1 $412 $176 #
plane-surface $-1 -64.727317117831973 0 0 1 0 0 0 0 -1 forward_v I I I I #
coedge $-1 $413 $291 $414 $415 forward $177 $-1 #
coedge $-1 $416 $179 $413 $417 forward $113 $-1 #
coedge $-1 $179 $416 $418 $419 forward $113 $-1 #
coedge $-1 $294 $293 $179 $287 reversed $295 $-1 #
edge $-1 $420 -28.565395509074154 $421 28.565395509074154 $286 $422 forward 7 unknown #
coedge $-1 $181 $180 $423 $424 forward $71 $-1 #
coedge $-1 $425 $426 $180 $290 reversed $410 $-1 #
edge $-1 $297 -64.727317117831973 $427 64.727317117831973 $289 $428 forward 7 unknown #
coedge $-1 $283 $429 $181 $292 reversed $177 $-1 #
edge $-1 $430 -64.727317117831973 $296 64.727317117831973 $291 $431 forward 7 unknown #
coedge $-1 $286 $182 $429 $432 forward $295 $-1 #
coedge $-1 $182 $286 $425 $433 reversed $295 $-1 #
loop $-1 $-1 $293 $409 #
vertex $-1 $183 $434 #
vertex $-1 $183 $435 #
straight-curve $-1 64.727317117831973 0 9.6799962966904989 0 1 0 I I #
face $-1 $436 $437 $43 $-1 $438 reversed single #
loop $-1 $-1 $305 $184 #
plane-surface $-1 64.727317117831973 0 0 -1 0 0 0 0 1 forward_v I I I I #
coedge $-1 $439 $440 $303 $441 forward $185 $-1 #
coedge $-1 $442 $187 $302 $441 reversed $117 $-1 #
coedge $-1 $187 $442 $188 $308 reversed $117 $-1 #
coedge $-1 $190 $443 $187 $306 forward $300 $-1 #
edge $-1 $444 -6.0667996443955889 $312 -1.1595936601942309 $305 $445 forward 7 unknown #
coedge $-1 $189 $188 $446 $447 reversed $74 $-1 #
edge $-1 $312 -64.727317117831973 $448 64.727317117831973 $304 $449 forward 7 unknown #
coedge $-1 $450 $451 $189 $310 forward $437 $-1 #
edge $-1 $313 -64.727317117831973 $452 64.727317117831973 $309 $453 forward 7 unknown #
coedge $-1 $443 $190 $451 $454 forward $300 $-1 #
vertex $-1 $191 $455 #
vertex $-1 $454 $456 #
straight-curve $-1 64.727317117831973 -12.138394085617968 -4.7727903124891409 0 -1 0 I I #
face $-1 $-1 $457 $44 $-1 $458 reversed single #
loop $-1 $-1 $198 $192 #
plane-surface $-1 0 0 9.6799962966904989 0 0 1 1 0 0 forward_v I I I I #
coedge $-1 $459 $460 $461 $462 reversed $193 $-1 #
coedge $-1 $463 $195 $197 $325 forward $121 $-1 #
coedge $-1 $195 $463 $459 $464 forward $121 $-1 #
coedge $-1 $461 $198 $195 $322 forward $316 $-1 #
edge $-1 $328 -6.4078273671491992 $465 3.2841636799212957 $321 $466 forward 7 unknown #
coedge $-1 $467 $468 $196 $324 forward $457 $-1 #
edge $-1 $469 -38.500769450908066 $327 -35.03106787714254 $323 $470 forward 7 unknown #
edge $-1 $328 -4.5293736772049886 $469 -2.2061860048766535e-014 $197 $471 forward 7 unknown #
coedge $-1 $198 $461 $467 $472 forward $316 $-1 #
vertex $-1 $324 $473 #
vertex $-1 $199 $474 #
straight-curve $-1 -81.947660691403087 -7.969659210763151 9.6799962966904971 1 0 0 I I #
coedge $-1 $330 $330 $-1 $475 reversed $202 $-1 #
edge $-1 $476 0 $476 6.2831853071796004 $203 $477 forward 7 unknown #
vertex $-1 $206 $478 #
ellipse-curve $-1 -63.271604500523338 -5.2005189116001524 7.9451455098077375 -0.7660444514056185 0 0.64278759981090561 0.64278759981090561 0 0.7660444514056185 1 I I #
coedge $-1 $334 $334 $-1 $479 reversed $209 $-1 #
edge $-1 $480 0 $480 6.2831853071796004 $210 $481 forward 7 unknown #
vertex $-1 $213 $482 #
ellipse-curve $-1 -63.271604500523338 -1.0468084628556547 7.9451455098077375 -0.7660444514056185 0 0.64278759981090561 0.64278759981090561 0 0.7660444514056185 1 I I #
face $-1 $-1 $483 $47 $-1 $484 reversed single #
loop $-1 $-1 $220 $214 #
plane-surface $-1 0 0 9.6799962966904989 0 0 1 1 0 0 forward_v I I I I #
coedge $-1 $485 $486 $487 $488 reversed $215 $-1 #
coedge $-1 $489 $217 $219 $348 forward $135 $-1 #
coedge $-1 $217 $489 $485 $490 forward $135 $-1 #
coedge $-1 $487 $220 $217 $345 forward $339 $-1 #
edge $-1 $351 1.0044436579169176 $491 10.696434704987412 $344 $492 forward 7 unknown #
coedge $-1 $493 $494 $218 $347 forward $483 $-1 #
edge $-1 $495 -38.500769450908066 $350 -35.03106787714254 $346 $496 forward 7 unknown #
edge $-1 $351 -4.5293736772049886 $495 -2.2061860048766535e-014 $219 $497 forward 7 unknown #
coedge $-1 $220 $487 $493 $498 forward $339 $-1 #
vertex $-1 $221 $499 #
vertex $-1 $221 $500 #
straight-curve $-1 -81.947660691403087 6.8548828393690826 9.6799962966904971 1 0 0 I I #
coedge $-1 $353 $353 $-1 $501 reversed $224 $-1 #
edge $-1 $502 0 $502 6.2831853071796004 $225 $503 forward 7 unknown #
vertex $-1 $228 $504 #
ellipse-curve $-1 -63.271604500523338 9.6240231385320847 7.9451455098077375 -0.7660444514056185 0 0.64278759981090561 0.64278759981090561 0 0.7660444514056185 1 I I #
coedge $-1 $357 $357 $-1 $505 reversed $231 $-1 #
edge $-1 $506 0 $506 6.2831853071796004 $232 $507 forward 7 unknown #
vertex $-1 $235 $508 #
ellipse-curve $-1 -63.271604500523338 13.777733587276582 7.9451455098077375 -0.7660444514056185 0 0.64278759981090561 0.64278759981090561 0 0.7660444514056185 1 I I #
face $-1 $-1 $373 $50 $-1 $509 forward single #
loop $-1 $-1 $510 $236 #
plane-surface $-1 64.727317117831973 0 0 -1 0 0 0 0 1 forward_v I I I I #
coedge $-1 $511 $512 $513 $514 reversed $237 $-1 #
coedge $-1 $515 $239 $241 $371 forward $149 $-1 #
coedge $-1 $239 $515 $511 $516 forward $149 $-1 #
coedge $-1 $513 $242 $239 $368 forward $373 $-1 #
edge $-1 $375 -3.2841636799212957 $517 6.4078273671491992 $367 $518 forward 7 unknown #
coedge $-1 $519 $520 $240 $370 forward $362 $-1 #
edge $-1 $521 -88.084771583395153 $374 -84.615070009629633 $369 $522 forward 7 unknown #
edge $-1 $375 124.925260558459 $521 129.45463423566397 $241 $523 forward 7 unknown #
coedge $-1 $242 $513 $519 $524 forward $373 $-1 #
loop $-1 $-1 $513 $361 #
vertex $-1 $370 $525 #
vertex $-1 $243 $526 #
straight-curve $-1 40.341743879032521 1.7223318363073439 9.6799962966905042 -1 0 0 I I #
coedge $-1 $377 $377 $-1 $527 reversed $246 $-1 #
edge $-1 $528 0 $528 6.2831853071796004 $247 $529 forward 7 unknown #
vertex $-1 $250 $530 #
ellipse-curve $-1 63.271604500523338 -5.2005189116001524 7.9451455098077375 0.7660444514056185 0 0.64278759981090561 0.64278759981090561 0 -0.7660444514056185 1 I I #
coedge $-1 $381 $381 $-1 $531 reversed $253 $-1 #
edge $-1 $532 0 $532 6.2831853071796004 $254 $533 forward 7 unknown #
vertex $-1 $257 $534 #
ellipse-curve $-1 63.271604500523338 -1.0468084628556547 7.9451455098077375 0.7660444514056185 0 0.64278759981090561 0.64278759981090561 0 -0.7660444514056185 1 I I #
face $-1 $-1 $397 $53 $-1 $535 forward single #
loop $-1 $-1 $536 $258 #
plane-surface $-1 64.727317117831973 0 0 -1 0 0 0 0 1 forward_v I I I I #
coedge $-1 $537 $538 $539 $540 reversed $259 $-1 #
coedge $-1 $541 $261 $263 $395 forward $163 $-1 #
coedge $-1 $261 $541 $537 $542 forward $163 $-1 #
coedge $-1 $539 $264 $261 $392 forward $397 $-1 #
edge $-1 $399 -10.696434704987412 $543 -1.0044436579169176 $391 $544 forward 7 unknown #
coedge $-1 $545 $546 $262 $394 forward $386 $-1 #
edge $-1 $547 -88.084771583395153 $398 -84.615070009629633 $393 $548 forward 7 unknown #
edge $-1 $399 124.925260558459 $547 129.45463423566397 $263 $549 forward 7 unknown #
coedge $-1 $264 $539 $545 $550 forward $397 $-1 #
loop $-1 $-1 $539 $385 #
vertex $-1 $394 $551 #
vertex $-1 $265 $552 #
straight-curve $-1 40.341743879032521 16.546873886439577 9.6799962966905042 -1 0 0 I I #
coedge $-1 $401 $401 $-1 $553 reversed $268 $-1 #
edge $-1 $554 0 $554 6.2831853071796004 $269 $555 forward 7 unknown #
vertex $-1 $272 $556 #
ellipse-curve $-1 63.271604500523338 9.6240231385320847 7.9451455098077375 0.7660444514056185 0 0.64278759981090561 0.64278759981090561 0 -0.7660444514056185 1 I I #
coedge $-1 $405 $405 $-1 $557 reversed $275 $-1 #
edge $-1 $558 0 $558 6.2831853071796004 $276 $559 forward 7 unknown #
vertex $-1 $279 $560 #
ellipse-curve $-1 63.271604500523338 13.777733587276582 7.9451455098077375 0.7660444514056185 0 0.64278759981090561 0.64278759981090561 0 -0.7660444514056185 1 I I #
face $-1 $-1 $295 $42 $-1 $561 reversed single #
loop $-1 $-1 $425 $280 #
plane-surface $-1 0 28.565395509074154 0 0 -1 0 0 0 -1 forward_v I I I I #
coedge $-1 $562 $423 $426 $563 forward $281 $-1 #
coedge $-1 $429 $283 $284 $417 reversed $177 $-1 #
coedge $-1 $423 $562 $283 $415 reversed $281 $-1 #
edge $-1 $430 -9.6799962966904989 $564 9.6799962966904989 $414 $565 forward 7 unknown #
coedge $-1 $285 $284 $562 $566 forward $113 $-1 #
edge $-1 $421 -64.727317117831973 $564 64.727317117831973 $413 $567 forward 7 unknown #
coedge $-1 $426 $425 $285 $419 reversed $410 $-1 #
edge $-1 $568 -64.727317117831973 $420 64.727317117831973 $418 $569 forward 7 unknown #
vertex $-1 $287 $570 #
vertex $-1 $432 $571 #
straight-curve $-1 64.727317117831973 0 -9.6799962966904989 0 -1 0 I I #
coedge $-1 $412 $414 $288 $424 reversed $281 $-1 #
edge $-1 $427 -28.565395509074154 $430 28.565395509074154 $423 $572 forward 7 unknown #
coedge $-1 $418 $289 $294 $433 forward $410 $-1 #
coedge $-1 $289 $418 $412 $563 reversed $410 $-1 #
vertex $-1 $290 $573 #
straight-curve $-1 0 28.565395509074154 9.6799962966904989 -1 0 0 I I #
coedge $-1 $291 $413 $293 $432 reversed $177 $-1 #
vertex $-1 $424 $574 #
straight-curve $-1 0 -28.565395509074154 9.6799962966904989 1 0 0 I I #
edge $-1 $296 -9.6799962966904989 $421 9.6799962966904989 $293 $575 forward 7 unknown #
edge $-1 $297 -9.6799962966904989 $420 9.6799962966904989 $294 $576 forward 7 unknown #
point $-1 64.727317117831973 -28.565395509074154 9.6799962966904989 #
point $-1 64.727317117831973 28.565395509074154 9.6799962966904989 #
face $-1 $-1 $577 $43 $-1 $578 reversed single #
loop $-1 $-1 $309 $299 #
plane-surface $-1 0 -28.565395509074154 0 0 1 0 0 0 1 forward_v I I I I #
coedge $-1 $579 $302 $443 $580 forward $185 $-1 #
coedge $-1 $302 $579 $581 $582 forward $185 $-1 #
edge $-1 $583 -64.727317117831973 $444 64.727317117831973 $302 $584 forward 7 unknown #
coedge $-1 $304 $303 $585 $586 reversed $117 $-1 #
coedge $-1 $305 $311 $439 $580 reversed $300 $-1 #
vertex $-1 $580 $587 #
straight-curve $-1 64.727317117831973 -19.988180833397717 -3.6131966522949099 0 0 1 I I #
coedge $-1 $585 $588 $307 $447 forward $577 $-1 #
edge $-1 $452 -16.427001423456186 $448 -7.8497867477797492 $446 $589 forward 7 unknown #
vertex $-1 $447 $590 #
straight-curve $-1 0 -19.988180833397717 -4.7727903124891409 -1 0 0 I I #
coedge $-1 $591 $309 $588 $592 forward $437 $-1 #
coedge $-1 $309 $591 $311 $454 reversed $437 $-1 #
vertex $-1 $592 $593 #
straight-curve $-1 0 -28.565395509074154 -4.7727903124891409 -1 0 0 I I #
edge $-1 $313 4.7727903124891409 $594 9.6799962966904989 $311 $595 forward 7 unknown #
point $-1 64.727317117831973 -19.988180833397717 -4.7727903124891409 #
point $-1 64.727317117831973 -28.565395509074154 -4.7727903124891409 #
loop $-1 $-1 $323 $315 #
plane-surface $-1 -64.727317117831973 0 0 1 0 0 0 0 -1 forward_v I I I I #
coedge $-1 $460 $318 $320 $464 reversed $193 $-1 #
coedge $-1 $318 $459 $596 $597 reversed $193 $-1 #
coedge $-1 $326 $321 $318 $462 forward $316 $-1 #
edge $-1 $465 -20.13176880818839 $598 -17.220343573571114 $461 $599 forward 7 unknown #
coedge $-1 $320 $319 $468 $600 reversed $121 $-1 #
edge $-1 $601 2.2061860048766535e-014 $465 4.5293736772049886 $459 $602 forward 7 unknown #
vertex $-1 $322 $603 #
straight-curve $-1 -61.815891883214697 -1.5618318436139518 9.6799962966904971 0 1 0 I I #
coedge $-1 $596 $323 $326 $472 reversed $457 $-1 #
coedge $-1 $323 $596 $463 $600 forward $457 $-1 #
vertex $-1 $324 $604 #
straight-curve $-1 -64.727317117831973 -7.969659210763151 44.711064173833037 0 0 1 I I #
straight-curve $-1 -64.727317117831987 -7.969659210763151 6.2102947229249565 -0.64278759981090561 0 -0.7660444514056185 I I #
edge $-1 $598 -1.7223318363073439 $327 7.969659210763151 $467 $605 forward 7 unknown #
point $-1 -64.727317117831973 -7.969659210763151 9.6799962966904989 #
point $-1 -61.815891883214697 -7.969659210763151 9.6799962966904989 #
edge $-1 $606 1 $606 0 $330 $-1 forward 7 unknown #
vertex $-1 $331 $607 #
ellipse-curve $-1 -62.036633397111309 -5.2005189116001524 6.9088817395507363 -0.7660444514056185 0 0.64278759981090561 0.64278759981090561 0 0.7660444514056185 1 I I #
point $-1 -62.62881690071243 -5.2005189116001524 8.7111899612133534 #
edge $-1 $608 1 $608 0 $334 $-1 forward 7 unknown #
vertex $-1 $335 $609 #
ellipse-curve $-1 -62.036633397111309 -1.0468084628556547 6.9088817395507363 -0.7660444514056185 0 0.64278759981090561 0.64278759981090561 0 0.7660444514056185 1 I I #
point $-1 -62.62881690071243 -1.0468084628556547 8.7111899612133534 #
loop $-1 $-1 $346 $338 #
plane-surface $-1 -64.727317117831973 0 0 1 0 0 0 0 -1 forward_v I I I I #
coedge $-1 $486 $341 $343 $490 reversed $215 $-1 #
coedge $-1 $341 $485 $610 $611 reversed $215 $-1 #
coedge $-1 $349 $344 $341 $488 forward $339 $-1 #
edge $-1 $491 -20.13176880818839 $612 -17.220343573571114 $487 $613 forward 7 unknown #
coedge $-1 $343 $342 $494 $614 reversed $135 $-1 #
edge $-1 $615 2.2061860048766535e-014 $491 4.5293736772049886 $485 $616 forward 7 unknown #
vertex $-1 $345 $617 #
straight-curve $-1 -61.815891883214697 5.850439181452165 9.6799962966904971 0 1 0 I I #
coedge $-1 $610 $346 $349 $498 reversed $483 $-1 #
coedge $-1 $346 $610 $489 $614 forward $483 $-1 #
vertex $-1 $347 $618 #
straight-curve $-1 -64.727317117831973 6.8548828393690826 44.711064173833037 0 0 1 I I #
straight-curve $-1 -64.727317117831987 6.8548828393690826 6.2102947229249565 -0.64278759981090561 0 -0.7660444514056185 I I #
edge $-1 $612 -16.546873886439577 $350 -6.8548828393690826 $493 $619 forward 7 unknown #
point $-1 -64.727317117831973 6.8548828393690826 9.6799962966904989 #
point $-1 -61.815891883214697 6.8548828393690826 9.6799962966904989 #
edge $-1 $620 1 $620 0 $353 $-1 forward 7 unknown #
vertex $-1 $354 $621 #
ellipse-curve $-1 -62.036633397111309 9.6240231385320847 6.9088817395507363 -0.7660444514056185 0 0.64278759981090561 0.64278759981090561 0 0.7660444514056185 1 I I #
point $-1 -62.62881690071243 9.6240231385320847 8.7111899612133534 #
edge $-1 $622 1 $622 0 $357 $-1 forward 7 unknown #
vertex $-1 $358 $623 #
ellipse-curve $-1 -62.036633397111309 13.777733587276582 6.9088817395507363 -0.7660444514056185 0 0.64278759981090561 0.64278759981090561 0 0.7660444514056185 1 I I #
point $-1 -62.62881690071243 13.777733587276582 8.7111899612133534 #
plane-surface $-1 0 0 9.6799962966904989 0 0 1 1 0 0 forward_v I I I I #
coedge $-1 $520 $519 $512 $624 forward $362 $-1 #
coedge $-1 $512 $364 $366 $516 reversed $237 $-1 #
coedge $-1 $364 $511 $510 $624 reversed $237 $-1 #
coedge $-1 $372 $367 $364 $514 forward $373 $-1 #
edge $-1 $517 21.474148004182169 $625 24.385573238799452 $513 $626 forward 7 unknown #
coedge $-1 $366 $365 $520 $627 reversed $149 $-1 #
edge $-1 $628 -129.45463423566397 $517 -124.925260558459 $511 $629 forward 7 unknown #
vertex $-1 $368 $630 #
straight-curve $-1 61.815891883214704 -1.5618318436139518 9.6799962966904971 0 -1 0 I I #
coedge $-1 $510 $369 $372 $524 reversed $362 $-1 #
coedge $-1 $369 $510 $515 $627 forward $362 $-1 #
vertex $-1 $370 $631 #
straight-curve $-1 64.727317117831973 1.7223318363073439 94.295066306320138 0 0 1 I I #
straight-curve $-1 -18.484516506909145 1.7223318363073439 105.37829898789916 0.64278759981090561 0 -0.7660444514056185 I I #
edge $-1 $625 -7.969659210763151 $374 1.7223318363073439 $519 $632 forward 7 unknown #
point $-1 64.727317117831973 1.7223318363073439 9.6799962966904989 #
point $-1 61.81589188321469 1.7223318363073439 9.6799962966905042 #
edge $-1 $633 1 $633 0 $377 $-1 forward 7 unknown #
vertex $-1 $378 $634 #
ellipse-curve $-1 62.036633397111324 -5.2005189116001524 6.9088817395507434 0.7660444514056185 0 0.64278759981090561 0.64278759981090561 0 -0.7660444514056185 1 I I #
point $-1 63.914392100334254 -5.2005189116001524 7.1791010584021242 #
edge $-1 $635 1 $635 0 $381 $-1 forward 7 unknown #
vertex $-1 $382 $636 #
ellipse-curve $-1 62.036633397111324 -1.0468084628556547 6.9088817395507434 0.7660444514056185 0 0.64278759981090561 0.64278759981090561 0 -0.7660444514056185 1 I I #
point $-1 63.914392100334254 -1.0468084628556547 7.1791010584021242 #
plane-surface $-1 0 0 9.6799962966904989 0 0 1 1 0 0 forward_v I I I I #
coedge $-1 $546 $545 $538 $637 forward $386 $-1 #
coedge $-1 $538 $388 $390 $542 reversed $259 $-1 #
coedge $-1 $388 $537 $536 $637 reversed $259 $-1 #
coedge $-1 $396 $391 $388 $540 forward $397 $-1 #
edge $-1 $543 21.474148004182169 $638 24.385573238799452 $539 $639 forward 7 unknown #
coedge $-1 $390 $389 $546 $640 reversed $163 $-1 #
edge $-1 $641 -129.45463423566397 $543 -124.925260558459 $537 $642 forward 7 unknown #
vertex $-1 $392 $643 #
straight-curve $-1 61.815891883214704 5.850439181452165 9.6799962966904971 0 -1 0 I I #
coedge $-1 $536 $393 $396 $550 reversed $386 $-1 #
coedge $-1 $393 $536 $541 $640 forward $386 $-1 #
vertex $-1 $394 $644 #
straight-curve $-1 64.727317117831973 16.546873886439577 94.295066306320138 0 0 1 I I #
straight-curve $-1 -18.484516506909145 16.546873886439577 105.37829898789916 0.64278759981090561 0 -0.7660444514056185 I I #
edge $-1 $638 6.8548828393690826 $398 16.546873886439577 $545 $645 forward 7 unknown #
point $-1 64.727317117831973 16.546873886439577 9.6799962966904989 #
point $-1 61.81589188321469 16.546873886439577 9.6799962966905042 #
edge $-1 $646 1 $646 0 $401 $-1 forward 7 unknown #
vertex $-1 $402 $647 #
ellipse-curve $-1 62.036633397111324 9.6240231385320847 6.9088817395507434 0.7660444514056185 0 0.64278759981090561 0.64278759981090561 0 -0.7660444514056185 1 I I #
point $-1 63.914392100334254 9.6240231385320847 7.1791010584021242 #
edge $-1 $648 1 $648 0 $405 $-1 forward 7 unknown #
vertex $-1 $406 $649 #
ellipse-curve $-1 62.036633397111324 13.777733587276582 6.9088817395507434 0.7660444514056185 0 0.64278759981090561 0.64278759981090561 0 -0.7660444514056185 1 I I #
point $-1 63.914392100334254 13.777733587276582 7.1791010584021242 #
plane-surface $-1 64.727317117831973 0 0 -1 0 0 0 0 1 forward_v I I I I #
coedge $-1 $414 $412 $416 $566 reversed $281 $-1 #
edge $-1 $427 -9.6799962966904989 $568 9.6799962966904989 $426 $650 forward 7 unknown #
vertex $-1 $566 $651 #
straight-curve $-1 -64.727317117831973 -28.565395509074154 0 0 0 -1 I I #
edge $-1 $564 -28.565395509074154 $568 28.565395509074154 $562 $652 forward 7 unknown #
straight-curve $-1 0 -28.565395509074154 -9.6799962966904989 -1 0 0 I I #
vertex $-1 $419 $653 #
straight-curve $-1 0 28.565395509074154 -9.6799962966904989 1 0 0 I I #
point $-1 64.727317117831973 28.565395509074154 -9.6799962966904989 #
point $-1 64.727317117831973 -28.565395509074154 -9.6799962966904989 #
straight-curve $-1 -64.727317117831973 0 9.6799962966904989 0 -1 0 I I #
point $-1 -64.727317117831973 28.565395509074154 9.6799962966904989 #
point $-1 -64.727317117831973 -28.565395509074154 9.6799962966904989 #
straight-curve $-1 64.727317117831973 -28.565395509074154 0 0 0 -1 I I #
straight-curve $-1 64.727317117831973 28.565395509074154 0 0 0 -1 I I #
loop $-1 $-1 $585 $436 #
plane-surface $-1 -64.727317117831973 0 0 1 0 0 0 0 -1 forward_v I I I I #
coedge $-1 $440 $439 $591 $654 forward $185 $-1 #
edge $-1 $444 19.988180833397717 $594 28.565395509074154 $443 $655 forward 7 unknown #
coedge $-1 $588 $585 $440 $582 reversed $577 $-1 #
edge $-1 $656 -28.565395509074154 $583 -19.988180833397717 $581 $657 forward 7 unknown #
vertex $-1 $586 $658 #
straight-curve $-1 0 -19.988180833397717 -9.6799962966904989 1 0 0 I I #
coedge $-1 $581 $446 $442 $586 forward $577 $-1 #
edge $-1 $448 1.1595936601942309 $583 6.0667996443955889 $585 $659 forward 7 unknown #
point $-1 64.727317117831973 -19.988180833397717 -9.6799962966904989 #
coedge $-1 $446 $581 $450 $592 reversed $577 $-1 #
straight-curve $-1 -64.727317117831973 -12.138394085617968 -4.7727903124891409 0 1 0 I I #
point $-1 -64.727317117831973 -19.988180833397717 -4.7727903124891409 #
coedge $-1 $451 $450 $579 $654 reversed $437 $-1 #
edge $-1 $452 4.7727903124891409 $656 9.6799962966904989 $588 $660 forward 7 unknown #
point $-1 -64.727317117831973 -28.565395509074154 -4.7727903124891409 #
vertex $-1 $454 $661 #
straight-curve $-1 64.727317117831973 -28.565395509074154 0 0 0 -1 I I #
coedge $-1 $468 $467 $460 $597 forward $457 $-1 #
edge $-1 $598 35.03106787714254 $601 38.500769450908066 $596 $662 forward 7 unknown #
vertex $-1 $472 $663 #
straight-curve $-1 -81.947660691403087 1.7223318363073439 9.6799962966904971 -1 0 0 I I #
edge $-1 $601 -3.2841636799212957 $469 6.4078273671491992 $468 $664 forward 7 unknown #
vertex $-1 $600 $665 #
straight-curve $-1 -64.727317117831987 1.7223318363073439 6.2102947229249565 0.64278759981090561 0 0.7660444514056185 I I #
point $-1 -61.815891883214697 1.7223318363073439 9.6799962966904989 #
point $-1 -64.727317117831973 -7.969659210763151 6.2102947229249734 #
straight-curve $-1 -64.727317117831973 0 9.6799962966904989 0 -1 0 I I #
vertex $-1 $475 $666 #
point $-1 -61.393845797300401 -5.2005189116001524 7.6749261909563549 #
vertex $-1 $479 $667 #
point $-1 -61.393845797300401 -1.0468084628556547 7.6749261909563549 #
coedge $-1 $494 $493 $486 $611 forward $483 $-1 #
edge $-1 $612 35.03106787714254 $615 38.500769450908066 $610 $668 forward 7 unknown #
vertex $-1 $498 $669 #
straight-curve $-1 -81.947660691403087 16.546873886439577 9.6799962966904971 -1 0 0 I I #
edge $-1 $615 -10.696434704987412 $495 -1.0044436579169176 $494 $670 forward 7 unknown #
vertex $-1 $614 $671 #
straight-curve $-1 -64.727317117831987 16.546873886439577 6.2102947229249565 0.64278759981090561 0 0.7660444514056185 I I #
point $-1 -61.815891883214697 16.546873886439577 9.6799962966904989 #
point $-1 -64.727317117831973 6.8548828393690826 6.2102947229249734 #
straight-curve $-1 -64.727317117831973 0 9.6799962966904989 0 -1 0 I I #
vertex $-1 $501 $672 #
point $-1 -61.393845797300401 9.6240231385320847 7.6749261909563549 #
vertex $-1 $505 $673 #
point $-1 -61.393845797300401 13.777733587276582 7.6749261909563549 #
edge $-1 $625 84.615070009629633 $628 88.084771583395153 $510 $674 forward 7 unknown #
vertex $-1 $524 $675 #
straight-curve $-1 40.341743879032521 -7.969659210763151 9.6799962966905042 1 0 0 I I #
edge $-1 $628 -6.4078273671491992 $521 3.2841636799212957 $520 $676 forward 7 unknown #
vertex $-1 $627 $677 #
straight-curve $-1 -18.484516506909145 -7.969659210763151 105.37829898789916 -0.64278759981090561 0 0.7660444514056185 I I #
point $-1 61.81589188321469 -7.969659210763151 9.6799962966905042 #
point $-1 64.727317117831973 1.7223318363073439 6.210294722924985 #
straight-curve $-1 64.727317117831973 0 9.6799962966904989 0 1 0 I I #
vertex $-1 $527 $678 #
point $-1 62.679420996922232 -5.2005189116001524 6.1428372881451248 #
vertex $-1 $531 $679 #
point $-1 62.679420996922232 -1.0468084628556547 6.1428372881451248 #
edge $-1 $638 84.615070009629633 $641 88.084771583395153 $536 $680 forward 7 unknown #
vertex $-1 $550 $681 #
straight-curve $-1 40.341743879032521 6.8548828393690826 9.6799962966905042 1 0 0 I I #
edge $-1 $641 1.0044436579169176 $547 10.696434704987412 $546 $682 forward 7 unknown #
vertex $-1 $640 $683 #
straight-curve $-1 -18.484516506909145 6.8548828393690826 105.37829898789916 -0.64278759981090561 0 0.7660444514056185 I I #
point $-1 61.81589188321469 6.8548828393690826 9.6799962966905042 #
point $-1 64.727317117831973 16.546873886439577 6.210294722924985 #
straight-curve $-1 64.727317117831973 0 9.6799962966904989 0 1 0 I I #
vertex $-1 $553 $684 #
point $-1 62.679420996922232 9.6240231385320847 6.1428372881451248 #
vertex $-1 $557 $685 #
point $-1 62.679420996922232 13.777733587276582 6.1428372881451248 #
straight-curve $-1 -64.727317117831973 28.565395509074154 0 0 0 -1 I I #
point $-1 -64.727317117831973 -28.565395509074154 -9.6799962966904989 #
straight-curve $-1 -64.727317117831973 0 -9.6799962966904989 0 1 0 I I #
point $-1 -64.727317117831973 28.565395509074154 -9.6799962966904989 #
edge $-1 $594 -64.727317117831973 $656 64.727317117831973 $591 $686 forward 7 unknown #
straight-curve $-1 64.727317117831973 0 -9.6799962966904989 0 -1 0 I I #
vertex $-1 $582 $687 #
straight-curve $-1 -64.727317117831973 0 -9.6799962966904989 0 1 0 I I #
point $-1 -64.727317117831973 -19.988180833397717 -9.6799962966904989 #
straight-curve $-1 -64.727317117831973 -19.988180833397717 -3.6131966522949099 0 0 -1 I I #
straight-curve $-1 -64.727317117831973 -28.565395509074154 0 0 0 -1 I I #
point $-1 64.727317117831973 -28.565395509074154 -9.6799962966904989 #
straight-curve $-1 -64.727317117831973 1.7223318363073439 44.711064173833037 0 0 -1 I I #
point $-1 -64.727317117831973 1.7223318363073439 9.6799962966904989 #
straight-curve $-1 -64.727317117831973 -1.5618318436139518 6.2102947229249637 0 -1 0 I I #
point $-1 -64.727317117831973 1.7223318363073439 6.2102947229249734 #
point $-1 -61.27058894570569 -5.2005189116001524 6.2660941397398311 #
point $-1 -61.27058894570569 -1.0468084628556547 6.2660941397398311 #
straight-curve $-1 -64.727317117831973 16.546873886439577 44.711064173833037 0 0 -1 I I #
point $-1 -64.727317117831973 16.546873886439577 9.6799962966904989 #
straight-curve $-1 -64.727317117831973 5.850439181452165 6.2102947229249637 0 -1 0 I I #
point $-1 -64.727317117831973 16.546873886439577 6.2102947229249734 #
point $-1 -61.27058894570569 9.6240231385320847 6.2660941397398311 #
point $-1 -61.27058894570569 13.777733587276582 6.2660941397398311 #
straight-curve $-1 64.727317117831973 -7.969659210763151 94.295066306320138 0 0 -1 I I #
point $-1 64.727317117831973 -7.969659210763151 9.6799962966904989 #
straight-curve $-1 64.727317117831973 -1.5618318436139518 6.2102947229249708 0 1 0 I I #
point $-1 64.727317117831973 -7.969659210763151 6.210294722924985 #
point $-1 61.270588945705704 -5.2005189116001524 6.2660941397398382 #
point $-1 61.270588945705704 -1.0468084628556547 6.2660941397398382 #
straight-curve $-1 64.727317117831973 6.8548828393690826 94.295066306320138 0 0 -1 I I #
point $-1 64.727317117831973 6.8548828393690826 9.6799962966904989 #
straight-curve $-1 64.727317117831973 5.850439181452165 6.2102947229249708 0 1 0 I I #
point $-1 64.727317117831973 6.8548828393690826 6.210294722924985 #
point $-1 61.270588945705704 9.6240231385320847 6.2660941397398382 #
point $-1 61.270588945705704 13.777733587276582 6.2660941397398382 #
straight-curve $-1 0 -28.565395509074154 -9.6799962966904989 -1 0 0 I I #
point $-1 -64.727317117831973 -28.565395509074154 -9.6799962966904989 #
End-of-ACIS-data 