500 0 5 0           
7 Unknown 11 ACIS 5.0 NT 24 Thu Mar 25 21:20:30 1999 
-1 9.9999999999999995e-007 1e-010 
body $-1 $5 $-1 $6 #
body $-1 $7 $-1 $8 #
body $-1 $9 $-1 $10 #
body $-1 $11 $-1 $12 #
body $-1 $13 $-1 $14 #
lump $-1 $-1 $15 $0 #
transform $-1 1 0 0 0 1 0 0 0 1 46.469924008911406 25.267232310091558 5.6787462660972094 1 rotate no_reflect no_shear #
lump $-1 $-1 $16 $1 #
transform $-1 1 0 0 0 1 0 0 0 1 46.469924008911406 25.267232310091558 5.6787462660972094 1 rotate no_reflect no_shear #
lump $-1 $-1 $17 $2 #
transform $-1 1 0 0 0 1 0 0 0 1 46.469924008911406 25.267232310091558 5.6787462660972094 1 rotate no_reflect no_shear #
lump $-1 $-1 $18 $3 #
transform $-1 1 0 0 0 1 0 0 0 1 46.469924008911406 25.267232310091558 5.6787462660972094 1 rotate no_reflect no_shear #
lump $-1 $-1 $19 $4 #
transform $-1 1 0 0 0 1 0 0 0 1 46.469924008911406 25.267232310091558 5.6787462660972094 1 rotate no_reflect no_shear #
shell $-1 $-1 $-1 $20 $-1 $5 #
shell $-1 $-1 $-1 $21 $-1 $7 #
shell $-1 $-1 $-1 $22 $-1 $9 #
shell $-1 $-1 $-1 $23 $-1 $11 #
shell $-1 $-1 $-1 $24 $-1 $13 #
face $-1 $25 $26 $15 $-1 $27 forward single #
face $-1 $28 $29 $16 $-1 $30 forward single #
face $-1 $31 $32 $17 $-1 $33 reversed single #
face $-1 $34 $35 $18 $-1 $36 forward single #
face $-1 $37 $38 $19 $-1 $39 forward single #
face $-1 $40 $41 $15 $-1 $42 reversed single #
loop $-1 $-1 $43 $20 #
plane-surface $-1 0 0 5.6787462660972094 0 0 1 1 0 0 forward_v I I I I #
face $-1 $44 $45 $16 $-1 $46 reversed single #
loop $-1 $-1 $47 $21 #
plane-surface $-1 0 -25.267232310091558 0 0 1 0 0 0 1 forward_v I I I I #
face $-1 $48 $49 $17 $-1 $50 reversed single #
loop $-1 $-1 $51 $22 #
plane-surface $-1 -44.372806502359012 37.179930079089232 106.89787053049878 1 0 0 0 -0.57357644374324357 -0.81915203911291934 forward_v I I I I #
face $-1 $52 $53 $18 $-1 $54 forward single #
loop $-1 $55 $56 $23 #
cone-surface $-1 -41.691773762996995 22.084360099446929 3.1593896227689999 0 -0.57357644374324357 -0.81915203911291934 1 0 0 1 I I 0 1 1 forward I I I I #
face $-1 $57 $58 $19 $-1 $59 forward single #
loop $-1 $60 $61 $24 #
cone-surface $-1 -37.670224653953973 22.084360099446929 3.1593896227689999 0 -0.57357644374324357 -0.81915203911291934 1 0 0 1 I I 0 1 1 forward I I I I #
face $-1 $62 $63 $15 $-1 $64 reversed single #
loop $-1 $-1 $65 $25 #
plane-surface $-1 0 0 -5.6787462660972094 0 0 1 1 0 0 forward_v I I I I #
coedge $-1 $66 $67 $68 $69 forward $26 $-1 #
face $-1 $70 $71 $16 $-1 $72 reversed single #
loop $-1 $-1 $73 $28 #
plane-surface $-1 0 0 -5.6787462660972094 0 0 1 1 0 0 forward_v I I I I #
coedge $-1 $74 $75 $76 $77 forward $29 $-1 #
face $-1 $78 $79 $17 $-1 $80 reversed single #
loop $-1 $-1 $81 $31 #
plane-surface $-1 -39.680999208475484 -16.128177429011124 30.766004511854405 0 0.57357644374324357 0.81915203911291934 1 0 0 forward_v I I I I #
coedge $-1 $82 $83 $84 $85 reversed $32 $-1 #
face $-1 $-1 $86 $18 $-1 $87 forward single #
loop $-1 $88 $89 $34 #
cone-surface $-1 -41.691773762996995 21.398245951402856 2.17951708866243 0 -0.57357644374324357 -0.81915203911291934 0.5 0 0 1 I I -0.70710678118654746 0.70710678118654746 0.5 forward I I I I #
loop $-1 $-1 $90 $23 #
coedge $-1 $56 $56 $91 $92 reversed $35 $-1 #
face $-1 $-1 $93 $19 $-1 $94 forward single #
loop $-1 $95 $96 $37 #
cone-surface $-1 -37.670224653953973 21.398245951402856 2.17951708866243 0 -0.57357644374324357 -0.81915203911291934 0.5 0 0 1 I I -0.70710678118654746 0.70710678118654746 0.5 forward I I I I #
loop $-1 $-1 $97 $24 #
coedge $-1 $61 $61 $98 $99 reversed $38 $-1 #
face $-1 $100 $101 $15 $-1 $102 reversed single #
loop $-1 $-1 $103 $40 #
plane-surface $-1 0 -25.267232310091558 0 0 1 0 0 0 1 forward_v I I I I #
coedge $-1 $104 $105 $106 $107 forward $41 $-1 #
coedge $-1 $108 $43 $109 $110 forward $26 $-1 #
coedge $-1 $43 $108 $111 $112 forward $26 $-1 #
coedge $-1 $113 $114 $43 $69 reversed $115 $-1 #
edge $-1 $116 -25.267232310091558 $117 25.267232310091558 $68 $118 forward 7 unknown #
face $-1 $119 $120 $16 $-1 $121 reversed single #
loop $-1 $-1 $122 $44 #
plane-surface $-1 -36.612431476716985 -31.79229842133811 0 0 1 0 0 0 1 forward_v I I I I #
coedge $-1 $123 $124 $75 $125 forward $45 $-1 #
coedge $-1 $126 $47 $127 $128 reversed $29 $-1 #
coedge $-1 $47 $126 $73 $125 reversed $29 $-1 #
coedge $-1 $129 $130 $47 $77 reversed $120 $-1 #
edge $-1 $131 -5.6787462660972094 $132 5.6787462660972094 $76 $133 forward 7 unknown #
face $-1 $134 $135 $17 $-1 $136 forward single #
loop $-1 $-1 $137 $48 #
plane-surface $-1 -34.989191914591956 37.179930079089232 106.89787053049878 -1 0 0 0 0.57357644374324357 0.81915203911291934 forward_v I I I I #
coedge $-1 $138 $139 $140 $141 reversed $49 $-1 #
coedge $-1 $83 $51 $142 $143 reversed $32 $-1 #
coedge $-1 $51 $82 $138 $144 reversed $32 $-1 #
coedge $-1 $140 $145 $51 $85 forward $135 $-1 #
edge $-1 $146 -6.6772672705469418 $147 -1.1101747016025882 $84 $148 forward 7 unknown #
loop $-1 $-1 $91 $52 #
plane-surface $-1 -39.680999208475484 -16.128177429011124 30.766004511854405 0 0.57357644374324357 0.81915203911291934 1 0 0 forward_v I I I I #
loop $-1 $-1 $149 $34 #
coedge $-1 $89 $89 $90 $150 reversed $53 $-1 #
coedge $-1 $90 $90 $89 $150 forward $55 $-1 #
coedge $-1 $91 $91 $56 $92 forward $86 $-1 #
edge $-1 $151 -1.0188764387621837e-015 $151 6.2831853071795996 $91 $152 forward 7 unknown #
loop $-1 $-1 $98 $57 #
plane-surface $-1 -39.680999208475484 -16.128177429011124 30.766004511854405 0 0.57357644374324357 0.81915203911291934 1 0 0 forward_v I I I I #
loop $-1 $-1 $153 $37 #
coedge $-1 $96 $96 $97 $154 reversed $58 $-1 #
coedge $-1 $97 $97 $96 $154 forward $60 $-1 #
coedge $-1 $98 $98 $61 $99 forward $93 $-1 #
edge $-1 $155 -1.0188764387621837e-015 $155 6.2831853071795996 $98 $156 forward 7 unknown #
face $-1 $157 $158 $15 $-1 $159 reversed single #
loop $-1 $-1 $160 $62 #
plane-surface $-1 -46.469924008911406 0 0 1 0 0 0 0 -1 forward_v I I I I #
coedge $-1 $161 $111 $162 $163 forward $63 $-1 #
coedge $-1 $164 $65 $161 $165 forward $41 $-1 #
coedge $-1 $65 $164 $166 $167 forward $41 $-1 #
coedge $-1 $114 $113 $65 $107 reversed $115 $-1 #
edge $-1 $168 -25.267232310091558 $169 25.267232310091558 $106 $170 forward 7 unknown #
coedge $-1 $67 $66 $171 $172 forward $26 $-1 #
coedge $-1 $173 $174 $66 $110 reversed $158 $-1 #
edge $-1 $117 -46.469924008911406 $175 46.469924008911406 $109 $176 forward 7 unknown #
coedge $-1 $103 $177 $67 $112 reversed $63 $-1 #
edge $-1 $178 -46.469924008911406 $116 46.469924008911406 $111 $179 forward 7 unknown #
coedge $-1 $106 $68 $177 $180 forward $115 $-1 #
coedge $-1 $68 $106 $173 $181 reversed $115 $-1 #
loop $-1 $-1 $113 $157 #
vertex $-1 $69 $182 #
vertex $-1 $69 $183 #
straight-curve $-1 46.469924008911406 0 5.6787462660972094 0 1 0 I I #
face $-1 $184 $185 $16 $-1 $186 reversed single #
loop $-1 $-1 $76 $70 #
plane-surface $-1 -38.112431476716985 -28.529765365714834 0 1 0 0 0 0 -1 forward_v I I I I #
coedge $-1 $187 $188 $189 $190 forward $71 $-1 #
coedge $-1 $191 $73 $192 $193 forward $45 $-1 #
coedge $-1 $73 $191 $129 $194 forward $45 $-1 #
edge $-1 $131 -38.112431476716985 $195 -35.112431476716985 $73 $196 forward 7 unknown #
coedge $-1 $75 $74 $197 $198 forward $29 $-1 #
coedge $-1 $199 $200 $74 $128 forward $201 $-1 #
edge $-1 $202 35.112431476716985 $132 38.112431476716985 $127 $203 forward 7 unknown #
coedge $-1 $189 $76 $124 $194 reversed $120 $-1 #
coedge $-1 $76 $189 $199 $204 reversed $120 $-1 #
vertex $-1 $125 $205 #
vertex $-1 $204 $206 #
straight-curve $-1 -38.112431476716985 -25.267232310091558 0 0 0 1 I I #
face $-1 $-1 $207 $17 $-1 $208 reversed single #
loop $-1 $-1 $84 $78 #
plane-surface $-1 0 0 5.6787462660972094 0 0 1 1 0 0 forward_v I I I I #
coedge $-1 $209 $210 $211 $212 reversed $79 $-1 #
coedge $-1 $213 $81 $83 $144 forward $49 $-1 #
coedge $-1 $81 $213 $209 $214 forward $49 $-1 #
coedge $-1 $211 $84 $81 $141 forward $135 $-1 #
edge $-1 $147 -24.53230689812127 $215 -15.148692310354214 $140 $216 forward 7 unknown #
coedge $-1 $217 $218 $82 $143 forward $207 $-1 #
edge $-1 $219 -51.668309256708383 $146 -47.770188999152182 $142 $220 forward 7 unknown #
edge $-1 $147 43.738299435789386 $219 50.534464620183115 $83 $221 forward 7 unknown #
coedge $-1 $84 $211 $217 $222 forward $135 $-1 #
vertex $-1 $143 $223 #
vertex $-1 $85 $224 #
straight-curve $-1 -44.372806502359012 18.589965039544616 5.6787462660972068 0 -1 0 I I #
coedge $-1 $149 $149 $-1 $225 reversed $88 $-1 #
edge $-1 $226 0 $226 6.2831853071796004 $89 $227 forward 7 unknown #
vertex $-1 $92 $228 #
ellipse-curve $-1 -41.691773762996995 22.483686025619381 3.729686137319109 0 0.57357644374324357 0.81915203911291934 1 0 0 1 I I #
coedge $-1 $153 $153 $-1 $229 reversed $95 $-1 #
edge $-1 $230 0 $230 6.2831853071796004 $96 $231 forward 7 unknown #
vertex $-1 $99 $232 #
ellipse-curve $-1 -37.670224653953973 22.483686025619381 3.729686137319109 0 0.57357644374324357 0.81915203911291934 1 0 0 1 I I #
face $-1 $-1 $115 $15 $-1 $233 reversed single #
loop $-1 $-1 $173 $100 #
plane-surface $-1 0 25.267232310091558 0 0 -1 0 0 0 -1 forward_v I I I I #
coedge $-1 $234 $171 $174 $235 forward $101 $-1 #
coedge $-1 $177 $103 $104 $165 reversed $63 $-1 #
coedge $-1 $171 $234 $103 $163 reversed $101 $-1 #
edge $-1 $178 -5.6787462660972094 $236 5.6787462660972094 $162 $237 forward 7 unknown #
coedge $-1 $105 $104 $234 $238 forward $41 $-1 #
edge $-1 $169 -46.469924008911406 $236 46.469924008911406 $161 $239 forward 7 unknown #
coedge $-1 $174 $173 $105 $167 reversed $158 $-1 #
edge $-1 $240 -46.469924008911406 $168 46.469924008911406 $166 $241 forward 7 unknown #
vertex $-1 $107 $242 #
vertex $-1 $180 $243 #
straight-curve $-1 46.469924008911406 0 -5.6787462660972094 0 -1 0 I I #
coedge $-1 $160 $162 $108 $172 reversed $101 $-1 #
edge $-1 $175 -25.267232310091558 $178 25.267232310091558 $171 $244 forward 7 unknown #
coedge $-1 $166 $109 $114 $181 forward $158 $-1 #
coedge $-1 $109 $166 $160 $235 reversed $158 $-1 #
vertex $-1 $110 $245 #
straight-curve $-1 0 25.267232310091558 5.6787462660972094 -1 0 0 I I #
coedge $-1 $111 $161 $113 $180 reversed $63 $-1 #
vertex $-1 $172 $246 #
straight-curve $-1 0 -25.267232310091558 5.6787462660972094 1 0 0 I I #
edge $-1 $116 -5.6787462660972094 $169 5.6787462660972094 $113 $247 forward 7 unknown #
edge $-1 $117 -5.6787462660972094 $168 5.6787462660972094 $114 $248 forward 7 unknown #
point $-1 46.469924008911406 -25.267232310091558 5.6787462660972094 #
point $-1 46.469924008911406 25.267232310091558 5.6787462660972094 #
face $-1 $-1 $201 $16 $-1 $249 forward single #
loop $-1 $-1 $250 $119 #
plane-surface $-1 -35.112431476716985 -28.529765365714834 0 -1 0 0 0 0 1 forward_v I I I I #
coedge $-1 $251 $122 $191 $252 reversed $71 $-1 #
coedge $-1 $122 $251 $253 $254 reversed $71 $-1 #
coedge $-1 $130 $129 $122 $190 reversed $120 $-1 #
edge $-1 $255 -5.6787462660972094 $256 5.6787462660972094 $189 $257 forward 7 unknown #
coedge $-1 $124 $123 $187 $252 forward $45 $-1 #
coedge $-1 $197 $250 $123 $193 reversed $185 $-1 #
edge $-1 $195 -3.2625330556232761 $258 3.2625330556232761 $192 $259 forward 7 unknown #
edge $-1 $256 -3.2625330556232761 $131 3.2625330556232761 $129 $260 forward 7 unknown #
vertex $-1 $193 $261 #
straight-curve $-1 0 -25.267232310091558 -5.6787462660972094 1 0 0 I I #
coedge $-1 $262 $192 $126 $198 reversed $185 $-1 #
edge $-1 $202 -5.6787462660972094 $195 5.6787462660972094 $197 $263 forward 7 unknown #
coedge $-1 $253 $127 $130 $204 forward $201 $-1 #
coedge $-1 $127 $253 $262 $264 forward $201 $-1 #
loop $-1 $-1 $127 $184 #
vertex $-1 $128 $265 #
straight-curve $-1 0 -25.267232310091558 5.6787462660972094 -1 0 0 I I #
edge $-1 $132 -3.2625330556232761 $255 3.2625330556232761 $130 $266 forward 7 unknown #
point $-1 -38.112431476716985 -25.267232310091558 -5.6787462660972094 #
point $-1 -38.112431476716985 -25.267232310091558 5.6787462660972094 #
loop $-1 $-1 $142 $134 #
plane-surface $-1 0 25.267232310091558 0 0 -1 0 0 0 -1 forward_v I I I I #
coedge $-1 $210 $137 $139 $214 reversed $79 $-1 #
coedge $-1 $137 $209 $267 $268 reversed $79 $-1 #
coedge $-1 $145 $140 $137 $212 forward $135 $-1 #
edge $-1 $215 1.1101747016025882 $269 6.6772672705469418 $211 $270 forward 7 unknown #
coedge $-1 $139 $138 $218 $271 reversed $49 $-1 #
edge $-1 $272 -50.534464620183115 $215 -43.738299435789386 $209 $273 forward 7 unknown #
vertex $-1 $141 $274 #
straight-curve $-1 -19.840499604237742 19.700139741147201 5.6787462660972103 1 0 0 I I #
coedge $-1 $267 $142 $145 $222 reversed $207 $-1 #
coedge $-1 $142 $267 $213 $271 forward $207 $-1 #
vertex $-1 $143 $275 #
straight-curve $-1 -44.372806502359012 25.267232310091558 53.448935265249389 0 0 1 I I #
straight-curve $-1 -44.372806502359012 -16.128177429011124 30.766004511854405 0 0.81915203911291934 -0.57357644374324357 I I #
edge $-1 $269 34.989191914591956 $146 44.372806502359012 $217 $276 forward 7 unknown #
point $-1 -44.372806502359012 25.267232310091558 5.6787462660972094 #
point $-1 -44.372806502359012 19.700139741147204 5.6787462660972103 #
edge $-1 $277 1 $277 0 $149 $-1 forward 7 unknown #
vertex $-1 $150 $278 #
ellipse-curve $-1 -41.691773762996995 21.685034173274477 2.5890931082188895 0 0.57357644374324357 0.81915203911291934 1 0 0 1 I I #
point $-1 -40.691773762996995 22.483686025619381 3.7296861373191108 #
edge $-1 $279 1 $279 0 $153 $-1 forward 7 unknown #
vertex $-1 $154 $280 #
ellipse-curve $-1 -37.670224653953973 21.685034173274477 2.5890931082188895 0 0.57357644374324357 0.81915203911291934 1 0 0 1 I I #
point $-1 -36.670224653953973 22.483686025619381 3.7296861373191108 #
plane-surface $-1 46.469924008911406 0 0 -1 0 0 0 0 1 forward_v I I I I #
coedge $-1 $162 $160 $164 $238 reversed $101 $-1 #
edge $-1 $175 -5.6787462660972094 $240 5.6787462660972094 $174 $281 forward 7 unknown #
vertex $-1 $238 $282 #
straight-curve $-1 -46.469924008911406 -25.267232310091558 0 0 0 -1 I I #
edge $-1 $236 -25.267232310091558 $240 25.267232310091558 $234 $283 forward 7 unknown #
straight-curve $-1 0 -25.267232310091558 -5.6787462660972094 -1 0 0 I I #
vertex $-1 $167 $284 #
straight-curve $-1 0 25.267232310091558 -5.6787462660972094 1 0 0 I I #
point $-1 46.469924008911406 25.267232310091558 -5.6787462660972094 #
point $-1 46.469924008911406 -25.267232310091558 -5.6787462660972094 #
straight-curve $-1 -46.469924008911406 0 5.6787462660972094 0 -1 0 I I #
point $-1 -46.469924008911406 25.267232310091558 5.6787462660972094 #
point $-1 -46.469924008911406 -25.267232310091558 5.6787462660972094 #
straight-curve $-1 46.469924008911406 -25.267232310091558 0 0 0 -1 I I #
straight-curve $-1 46.469924008911406 25.267232310091558 0 0 0 -1 I I #
plane-surface $-1 0 0 5.6787462660972094 0 0 1 1 0 0 forward_v I I I I #
coedge $-1 $192 $262 $251 $285 forward $185 $-1 #
coedge $-1 $188 $187 $250 $285 reversed $71 $-1 #
edge $-1 $258 -1.5 $256 1.5 $187 $286 forward 7 unknown #
coedge $-1 $200 $199 $188 $254 forward $201 $-1 #
edge $-1 $255 -1.5 $287 1.5 $188 $288 forward 7 unknown #
vertex $-1 $204 $289 #
vertex $-1 $194 $290 #
straight-curve $-1 -38.112431476716985 -31.79229842133811 0 0 0 -1 I I #
vertex $-1 $285 $291 #
straight-curve $-1 -35.112431476716985 -28.529765365714834 -5.6787462660972094 0 -1 0 I I #
straight-curve $-1 -38.112431476716985 -28.529765365714834 -5.6787462660972094 0 1 0 I I #
point $-1 -35.112431476716985 -25.267232310091558 -5.6787462660972094 #
coedge $-1 $250 $197 $200 $264 reversed $185 $-1 #
straight-curve $-1 -35.112431476716985 -25.267232310091558 0 0 0 -1 I I #
edge $-1 $287 -3.2625330556232761 $202 3.2625330556232761 $262 $292 forward 7 unknown #
point $-1 -35.112431476716985 -25.267232310091558 5.6787462660972094 #
straight-curve $-1 -38.112431476716985 -28.529765365714834 5.6787462660972094 0 -1 0 I I #
coedge $-1 $218 $217 $210 $268 forward $207 $-1 #
edge $-1 $269 47.770188999152182 $272 51.668309256708383 $267 $293 forward 7 unknown #
vertex $-1 $222 $294 #
straight-curve $-1 -34.989191914591956 18.589965039544616 5.6787462660972068 0 1 0 I I #
edge $-1 $272 15.148692310354214 $219 24.53230689812127 $218 $295 forward 7 unknown #
vertex $-1 $271 $296 #
straight-curve $-1 -34.989191914591956 -16.128177429011124 30.766004511854405 0 -0.81915203911291934 0.57357644374324357 I I #
point $-1 -34.989191914591956 19.700139741147204 5.6787462660972103 #
point $-1 -44.372806502359012 25.267232310091558 1.7806260085410059 #
straight-curve $-1 0 25.267232310091558 5.6787462660972094 -1 0 0 I I #
vertex $-1 $225 $297 #
point $-1 -40.691773762996995 21.685034173274477 2.5890931082188895 #
vertex $-1 $229 $298 #
point $-1 -36.670224653953973 21.685034173274477 2.5890931082188895 #
straight-curve $-1 -46.469924008911406 25.267232310091558 0 0 0 -1 I I #
point $-1 -46.469924008911406 -25.267232310091558 -5.6787462660972094 #
straight-curve $-1 -46.469924008911406 0 -5.6787462660972094 0 1 0 I I #
point $-1 -46.469924008911406 25.267232310091558 -5.6787462660972094 #
edge $-1 $287 -5.6787462660972094 $258 5.6787462660972094 $250 $299 forward 7 unknown #
straight-curve $-1 -36.612431476716985 -31.79229842133811 -5.6787462660972094 -1 0 0 I I #
vertex $-1 $264 $300 #
straight-curve $-1 -36.612431476716985 -31.79229842133811 5.6787462660972094 1 0 0 I I #
point $-1 -38.112431476716985 -31.79229842133811 5.6787462660972094 #
point $-1 -38.112431476716985 -31.79229842133811 -5.6787462660972094 #
point $-1 -35.112431476716985 -31.79229842133811 -5.6787462660972094 #
straight-curve $-1 -35.112431476716985 -28.529765365714834 5.6787462660972094 0 1 0 I I #
straight-curve $-1 -34.989191914591956 25.267232310091558 53.448935265249389 0 0 -1 I I #
point $-1 -34.989191914591956 25.267232310091558 5.6787462660972094 #
straight-curve $-1 -19.840499604237742 25.267232310091561 1.7806260085410042 -1 0 0 I I #
point $-1 -34.989191914591956 25.267232310091558 1.7806260085410059 #
point $-1 -41.691773762996995 21.111457729531235 1.7699410691059703 #
point $-1 -37.670224653953973 21.111457729531235 1.7699410691059703 #
straight-curve $-1 -35.112431476716985 -31.79229842133811 0 0 0 -1 I I #
point $-1 -35.112431476716985 -31.79229842133811 5.6787462660972094 #
End-of-ACIS-data 