500 0 17 0           
7 Unknown 11 ACIS 5.0 NT 24 Thu Mar 25 22:08:01 1999 
-1 9.9999999999999995e-007 1e-010 
body $-1 $17 $-1 $18 #
body $-1 $19 $-1 $20 #
body $-1 $21 $-1 $22 #
body $-1 $23 $-1 $24 #
body $-1 $25 $-1 $26 #
body $-1 $27 $-1 $28 #
body $-1 $29 $-1 $30 #
body $-1 $31 $-1 $32 #
body $-1 $33 $-1 $34 #
body $-1 $35 $-1 $36 #
body $-1 $37 $-1 $38 #
body $-1 $39 $-1 $40 #
body $-1 $41 $-1 $42 #
body $-1 $43 $-1 $44 #
body $-1 $45 $-1 $46 #
body $-1 $47 $-1 $48 #
body $-1 $49 $-1 $50 #
lump $-1 $-1 $51 $0 #
transform $-1 1 0 0 0 1 0 0 0 1 52.427137058626059 28.338365978388481 7.5832177009889135 1 rotate no_reflect no_shear #
lump $-1 $-1 $52 $1 #
transform $-1 1 0 0 0 1 0 0 0 1 52.427137058626059 28.338365978388481 7.5832177009889135 1 rotate no_reflect no_shear #
lump $-1 $-1 $53 $2 #
transform $-1 1 0 0 0 1 0 0 0 1 52.427137058626059 28.338365978388481 7.5832177009889135 1 rotate no_reflect no_shear #
lump $-1 $-1 $54 $3 #
transform $-1 1 0 0 0 1 0 0 0 1 52.427137058626059 28.338365978388481 7.5832177009889135 1 rotate no_reflect no_shear #
lump $-1 $-1 $55 $4 #
transform $-1 1 0 0 0 1 0 0 0 1 52.427137058626059 28.338365978388481 7.5832177009889135 1 rotate no_reflect no_shear #
lump $-1 $-1 $56 $5 #
transform $-1 1 0 0 0 1 0 0 0 1 52.427137058626059 28.338365978388481 7.5832177009889135 1 rotate no_reflect no_shear #
lump $-1 $-1 $57 $6 #
transform $-1 1 0 0 0 1 0 0 0 1 52.427137058626059 28.338365978388481 7.5832177009889135 1 rotate no_reflect no_shear #
lump $-1 $-1 $58 $7 #
transform $-1 1 0 0 0 1 0 0 0 1 52.427137058626059 28.338365978388481 7.5832177009889135 1 rotate no_reflect no_shear #
lump $-1 $-1 $59 $8 #
transform $-1 1 0 0 0 1 0 0 0 1 52.427137058626059 28.338365978388481 7.5832177009889135 1 rotate no_reflect no_shear #
lump $-1 $-1 $60 $9 #
transform $-1 1 0 0 0 1 0 0 0 1 52.427137058626059 28.338365978388481 7.5832177009889135 1 rotate no_reflect no_shear #
lump $-1 $-1 $61 $10 #
transform $-1 1 0 0 0 1 0 0 0 1 52.427137058626059 28.338365978388481 7.5832177009889135 1 rotate no_reflect no_shear #
lump $-1 $-1 $62 $11 #
transform $-1 1 0 0 0 1 0 0 0 1 52.427137058626059 28.338365978388481 7.5832177009889135 1 rotate no_reflect no_shear #
lump $-1 $-1 $63 $12 #
transform $-1 1 0 0 0 1 0 0 0 1 52.427137058626059 28.338365978388481 7.5832177009889135 1 rotate no_reflect no_shear #
lump $-1 $-1 $64 $13 #
transform $-1 1 0 0 0 1 0 0 0 1 52.427137058626059 28.338365978388481 7.5832177009889135 1 rotate no_reflect no_shear #
lump $-1 $-1 $65 $14 #
transform $-1 1 0 0 0 1 0 0 0 1 52.427137058626059 28.338365978388481 7.5832177009889135 1 rotate no_reflect no_shear #
lump $-1 $-1 $66 $15 #
transform $-1 1 0 0 0 1 0 0 0 1 52.427137058626059 28.338365978388481 7.5832177009889135 1 rotate no_reflect no_shear #
lump $-1 $-1 $67 $16 #
transform $-1 1 0 0 0 1 0 0 0 1 52.427137058626059 28.338365978388481 7.5832177009889135 1 rotate no_reflect no_shear #
shell $-1 $-1 $-1 $68 $-1 $17 #
shell $-1 $-1 $-1 $69 $-1 $19 #
shell $-1 $-1 $-1 $70 $-1 $21 #
shell $-1 $-1 $-1 $71 $-1 $23 #
shell $-1 $-1 $-1 $72 $-1 $25 #
shell $-1 $-1 $-1 $73 $-1 $27 #
shell $-1 $-1 $-1 $74 $-1 $29 #
shell $-1 $-1 $-1 $75 $-1 $31 #
shell $-1 $-1 $-1 $76 $-1 $33 #
shell $-1 $-1 $-1 $77 $-1 $35 #
shell $-1 $-1 $-1 $78 $-1 $37 #
shell $-1 $-1 $-1 $79 $-1 $39 #
shell $-1 $-1 $-1 $80 $-1 $41 #
shell $-1 $-1 $-1 $81 $-1 $43 #
shell $-1 $-1 $-1 $82 $-1 $45 #
shell $-1 $-1 $-1 $83 $-1 $47 #
shell $-1 $-1 $-1 $84 $-1 $49 #
face $-1 $85 $86 $51 $-1 $87 forward single #
face $-1 $88 $89 $52 $-1 $90 reversed single #
face $-1 $91 $92 $53 $-1 $93 reversed single #
face $-1 $94 $95 $54 $-1 $96 reversed single #
face $-1 $97 $98 $55 $-1 $99 forward single #
face $-1 $100 $101 $56 $-1 $102 forward single #
face $-1 $103 $104 $57 $-1 $105 reversed single #
face $-1 $106 $107 $58 $-1 $108 forward single #
face $-1 $109 $110 $59 $-1 $111 forward single #
face $-1 $112 $113 $60 $-1 $114 reversed single #
face $-1 $115 $116 $61 $-1 $117 forward single #
face $-1 $118 $119 $62 $-1 $120 forward single #
face $-1 $121 $122 $63 $-1 $123 reversed single #
face $-1 $124 $125 $64 $-1 $126 forward single #
face $-1 $127 $128 $65 $-1 $129 forward single #
face $-1 $130 $131 $66 $-1 $132 reversed single #
face $-1 $133 $134 $67 $-1 $135 forward single #
face $-1 $136 $137 $51 $-1 $138 reversed single #
loop $-1 $-1 $139 $68 #
plane-surface $-1 0 0 7.5832177009889135 0 0 1 1 0 0 forward_v I I I I #
face $-1 $140 $141 $52 $-1 $142 reversed single #
loop $-1 $-1 $143 $69 #
plane-surface $-1 -48.893737615564305 -22.452866312360143 0 0 1 0 0 0 1 forward_v I I I I #
face $-1 $144 $145 $53 $-1 $146 reversed single #
loop $-1 $-1 $147 $70 #
plane-surface $-1 48.893737615564305 -22.452866312360143 0 0 1 0 0 0 1 forward_v I I I I #
face $-1 $148 $149 $54 $-1 $150 reversed single #
loop $-1 $-1 $151 $71 #
plane-surface $-1 -41.782423339096717 33.760869073519032 122.01559339870803 1 0 0 0 -0.51503808176128008 -0.85716729658548041 forward_v I I I I #
face $-1 $152 $153 $55 $-1 $154 forward single #
loop $-1 $155 $156 $72 #
cone-surface $-1 -37.409364704578039 23.326849467424399 3.3450701866299908 0 -0.51503808176128008 -0.85716729658548041 1.5 0 0 1 I I 0 1 1.5 forward I I I I #
face $-1 $157 $158 $56 $-1 $159 forward single #
loop $-1 $160 $161 $73 #
cone-surface $-1 -30.849776752800025 23.326849467424399 3.3450701866299908 0 -0.51503808176128008 -0.85716729658548041 1.5 0 0 1 I I 0 1 1.5 forward I I I I #
face $-1 $162 $163 $57 $-1 $164 reversed single #
loop $-1 $-1 $165 $74 #
plane-surface $-1 -19.102254252845441 33.760869073519032 122.01559339870803 1 0 0 0 -0.51503808176128008 -0.85716729658548041 forward_v I I I I #
face $-1 $166 $167 $58 $-1 $168 forward single #
loop $-1 $169 $170 $75 #
cone-surface $-1 -14.729195618326763 23.326849467424399 3.3450701866299908 0 -0.51503808176128008 -0.85716729658548041 1.5 0 0 1 I I 0 1 1.5 forward I I I I #
face $-1 $171 $172 $59 $-1 $173 forward single #
loop $-1 $174 $175 $76 #
cone-surface $-1 -8.1696076665487496 23.326849467424399 3.3450701866299908 0 -0.51503808176128008 -0.85716729658548041 1.5 0 0 1 I I 0 1 1.5 forward I I I I #
face $-1 $176 $177 $60 $-1 $178 reversed single #
loop $-1 $-1 $179 $77 #
plane-surface $-1 3.5779148334058357 33.760869073519032 122.01559339870803 1 0 0 0 -0.51503808176128008 -0.85716729658548041 forward_v I I I I #
face $-1 $180 $181 $61 $-1 $182 forward single #
loop $-1 $183 $184 $78 #
cone-surface $-1 7.9509734679245128 23.326849467424399 3.3450701866299908 0 -0.51503808176128008 -0.85716729658548041 1.5 0 0 1 I I 0 1 1.5 forward I I I I #
face $-1 $185 $186 $62 $-1 $187 forward single #
loop $-1 $188 $189 $79 #
cone-surface $-1 14.510561419702526 23.326849467424399 3.3450701866299908 0 -0.51503808176128008 -0.85716729658548041 1.5 0 0 1 I I 0 1 1.5 forward I I I I #
face $-1 $190 $191 $63 $-1 $192 reversed single #
loop $-1 $-1 $193 $80 #
plane-surface $-1 26.258083919657118 33.760869073519032 122.01559339870803 1 0 0 0 -0.51503808176128008 -0.85716729658548041 forward_v I I I I #
face $-1 $194 $195 $64 $-1 $196 forward single #
loop $-1 $197 $198 $81 #
cone-surface $-1 30.631142554175781 23.326849467424399 3.3450701866299908 0 -0.51503808176128008 -0.85716729658548041 1.5 0 0 1 I I 0 1 1.5 forward I I I I #
face $-1 $199 $200 $65 $-1 $201 forward single #
loop $-1 $202 $203 $82 #
cone-surface $-1 37.190730505953795 23.326849467424399 3.3450701866299908 0 -0.51503808176128008 -0.85716729658548041 1.5 0 0 1 I I 0 1 1.5 forward I I I I #
face $-1 $204 $205 $66 $-1 $206 reversed single #
loop $-1 $-1 $207 $83 #
plane-surface $-1 45.360338172502551 -97.12896007780536 83.043694321276433 -1 0 0 0 -0.6560590369687036 0.75470957328743171 forward_v I I I I #
face $-1 $208 $209 $67 $-1 $210 forward single #
loop $-1 $211 $212 $84 #
cone-surface $-1 32.707978090858774 -25.2356973408248 4.6080027384079294 0 0.6560590369687036 -0.75470957328743171 1 0 0 1 I I 0 1 1 forward I I I I #
face $-1 $213 $214 $51 $-1 $215 reversed single #
loop $-1 $-1 $216 $85 #
plane-surface $-1 0 0 -7.5832177009889135 0 0 1 1 0 0 forward_v I I I I #
coedge $-1 $217 $218 $219 $220 forward $86 $-1 #
face $-1 $221 $222 $52 $-1 $223 reversed single #
loop $-1 $-1 $224 $88 #
plane-surface $-1 -48.893737615564305 -19.452866312360143 0 0 -1 0 0 0 -1 forward_v I I I I #
coedge $-1 $225 $226 $227 $228 reversed $89 $-1 #
face $-1 $229 $230 $53 $-1 $231 reversed single #
loop $-1 $-1 $232 $91 #
plane-surface $-1 45.360338172502551 -20.952866312360143 0 1 0 0 0 0 -1 forward_v I I I I #
coedge $-1 $233 $234 $235 $236 forward $92 $-1 #
face $-1 $237 $238 $54 $-1 $239 reversed single #
loop $-1 $-1 $240 $94 #
plane-surface $-1 -34.129570728689032 -20.243075132301939 32.137938718190128 0 0.51503808176128008 0.85716729658548041 1 0 0 forward_v I I I I #
coedge $-1 $241 $242 $243 $244 reversed $95 $-1 #
face $-1 $-1 $245 $55 $-1 $246 forward single #
loop $-1 $247 $248 $97 #
cone-surface $-1 -37.409364704578039 21.786816128538135 0.78202434498968021 0 -0.51503808176128008 -0.85716729658548041 0.75 0 0 1 I I -0.70710678118654757 0.70710678118654757 0.75 forward I I I I #
loop $-1 $-1 $249 $72 #
coedge $-1 $156 $156 $250 $251 reversed $98 $-1 #
face $-1 $-1 $252 $56 $-1 $253 forward single #
loop $-1 $254 $255 $100 #
cone-surface $-1 -30.849776752800025 21.786816128538135 0.78202434498968021 0 -0.51503808176128008 -0.85716729658548041 0.75 0 0 1 I I -0.70710678118654757 0.70710678118654757 0.75 forward I I I I #
loop $-1 $-1 $256 $73 #
coedge $-1 $161 $161 $257 $258 reversed $101 $-1 #
face $-1 $259 $260 $57 $-1 $261 reversed single #
loop $-1 $-1 $262 $103 #
plane-surface $-1 -11.449401642437756 -20.243075132301939 32.137938718190128 0 0.51503808176128008 0.85716729658548041 1 0 0 forward_v I I I I #
coedge $-1 $263 $264 $265 $266 reversed $104 $-1 #
face $-1 $-1 $267 $58 $-1 $268 forward single #
loop $-1 $269 $270 $106 #
cone-surface $-1 -14.729195618326763 21.786816128538135 0.78202434498968021 0 -0.51503808176128008 -0.85716729658548041 0.75 0 0 1 I I -0.70710678118654757 0.70710678118654757 0.75 forward I I I I #
loop $-1 $-1 $271 $75 #
coedge $-1 $170 $170 $272 $273 reversed $107 $-1 #
face $-1 $-1 $274 $59 $-1 $275 forward single #
loop $-1 $276 $277 $109 #
cone-surface $-1 -8.1696076665487496 21.786816128538135 0.78202434498968021 0 -0.51503808176128008 -0.85716729658548041 0.75 0 0 1 I I -0.70710678118654757 0.70710678118654757 0.75 forward I I I I #
loop $-1 $-1 $278 $76 #
coedge $-1 $175 $175 $279 $280 reversed $110 $-1 #
face $-1 $281 $282 $60 $-1 $283 reversed single #
loop $-1 $-1 $284 $112 #
plane-surface $-1 11.230767443813519 -20.243075132301939 32.137938718190128 0 0.51503808176128008 0.85716729658548041 1 0 0 forward_v I I I I #
coedge $-1 $285 $286 $287 $288 reversed $113 $-1 #
face $-1 $-1 $289 $61 $-1 $290 forward single #
loop $-1 $291 $292 $115 #
cone-surface $-1 7.9509734679245128 21.786816128538135 0.78202434498968021 0 -0.51503808176128008 -0.85716729658548041 0.75 0 0 1 I I -0.70710678118654757 0.70710678118654757 0.75 forward I I I I #
loop $-1 $-1 $293 $78 #
coedge $-1 $184 $184 $294 $295 reversed $116 $-1 #
face $-1 $-1 $296 $62 $-1 $297 forward single #
loop $-1 $298 $299 $118 #
cone-surface $-1 14.510561419702526 21.786816128538135 0.78202434498968021 0 -0.51503808176128008 -0.85716729658548041 0.75 0 0 1 I I -0.70710678118654757 0.70710678118654757 0.75 forward I I I I #
loop $-1 $-1 $300 $79 #
coedge $-1 $189 $189 $301 $302 reversed $119 $-1 #
face $-1 $303 $304 $63 $-1 $305 reversed single #
loop $-1 $-1 $306 $121 #
plane-surface $-1 33.910936530064802 -20.243075132301939 32.137938718190128 0 0.51503808176128008 0.85716729658548041 1 0 0 forward_v I I I I #
coedge $-1 $307 $308 $309 $310 reversed $122 $-1 #
face $-1 $-1 $311 $64 $-1 $312 forward single #
loop $-1 $313 $314 $124 #
cone-surface $-1 30.631142554175781 21.786816128538135 0.78202434498968021 0 -0.51503808176128008 -0.85716729658548041 0.75 0 0 1 I I -0.70710678118654757 0.70710678118654757 0.75 forward I I I I #
loop $-1 $-1 $315 $81 #
coedge $-1 $198 $198 $316 $317 reversed $125 $-1 #
face $-1 $-1 $318 $65 $-1 $319 forward single #
loop $-1 $320 $321 $127 #
cone-surface $-1 37.190730505953795 21.786816128538135 0.78202434498968021 0 -0.51503808176128008 -0.85716729658548041 0.75 0 0 1 I I -0.70710678118654757 0.70710678118654757 0.75 forward I I I I #
loop $-1 $-1 $322 $82 #
coedge $-1 $203 $203 $323 $324 reversed $128 $-1 #
face $-1 $325 $326 $66 $-1 $327 reversed single #
loop $-1 $-1 $328 $130 #
plane-surface $-1 32.707978090858774 -28.338365978388467 3.9091698448816885 0 -0.6560590369687036 0.75470957328743171 1 0 0 forward_v I I I I #
coedge $-1 $329 $330 $331 $332 reversed $131 $-1 #
face $-1 $-1 $333 $67 $-1 $334 forward single #
loop $-1 $335 $336 $133 #
cone-surface $-1 32.707978090858774 -23.918253429800274 3.0924569172368424 0 0.6560590369687036 -0.75470957328743171 0.5 0 0 1 I I -0.70710678118654746 0.70710678118654746 0.5 forward I I I I #
loop $-1 $-1 $337 $84 #
coedge $-1 $212 $212 $338 $339 reversed $134 $-1 #
face $-1 $340 $341 $51 $-1 $342 reversed single #
loop $-1 $-1 $343 $136 #
plane-surface $-1 0 -28.338365978388481 0 0 1 0 0 0 1 forward_v I I I I #
coedge $-1 $344 $345 $346 $347 forward $137 $-1 #
coedge $-1 $348 $139 $349 $350 forward $86 $-1 #
coedge $-1 $139 $348 $351 $352 forward $86 $-1 #
coedge $-1 $353 $354 $139 $220 reversed $355 $-1 #
edge $-1 $356 -28.338365978388481 $357 28.338365978388481 $219 $358 forward 7 unknown #
face $-1 $359 $360 $52 $-1 $361 reversed single #
loop $-1 $-1 $362 $140 #
plane-surface $-1 -45.360338172502551 -20.952866312360143 0 -1 0 0 0 0 1 forward_v I I I I #
coedge $-1 $363 $364 $365 $366 forward $141 $-1 #
coedge $-1 $367 $143 $368 $369 reversed $89 $-1 #
coedge $-1 $143 $367 $370 $371 reversed $89 $-1 #
coedge $-1 $372 $373 $143 $228 forward $374 $-1 #
edge $-1 $375 -7.5832177009889135 $376 7.5832177009889135 $227 $377 forward 7 unknown #
face $-1 $378 $379 $53 $-1 $380 reversed single #
loop $-1 $-1 $381 $144 #
plane-surface $-1 48.893737615564305 -19.452866312360143 0 0 -1 0 0 0 -1 forward_v I I I I #
coedge $-1 $382 $383 $384 $385 forward $145 $-1 #
coedge $-1 $386 $147 $387 $388 reversed $92 $-1 #
coedge $-1 $147 $386 $389 $390 reversed $92 $-1 #
coedge $-1 $383 $382 $147 $236 reversed $145 $-1 #
edge $-1 $391 -7.5832177009889135 $392 7.5832177009889135 $235 $393 forward 7 unknown #
face $-1 $394 $395 $54 $-1 $396 reversed single #
loop $-1 $-1 $397 $148 #
plane-surface $-1 -26.476718118281347 33.760869073519032 122.01559339870803 -1 0 0 0 0.51503808176128008 0.85716729658548041 forward_v I I I I #
coedge $-1 $398 $399 $400 $401 reversed $149 $-1 #
coedge $-1 $242 $151 $402 $403 reversed $95 $-1 #
coedge $-1 $151 $241 $398 $404 reversed $95 $-1 #
coedge $-1 $400 $405 $151 $244 forward $406 $-1 #
edge $-1 $407 -11.457931441628965 $408 -3.7424079748314298 $243 $409 forward 7 unknown #
loop $-1 $-1 $250 $152 #
plane-surface $-1 -34.129570728689032 -20.243075132301939 32.137938718190128 0 0.51503808176128008 0.85716729658548041 1 0 0 forward_v I I I I #
loop $-1 $-1 $410 $97 #
coedge $-1 $248 $248 $249 $411 reversed $153 $-1 #
coedge $-1 $249 $249 $248 $411 forward $155 $-1 #
coedge $-1 $250 $250 $156 $251 forward $245 $-1 #
edge $-1 $412 1.0194580772276629e-015 $412 6.2831853071796013 $250 $413 forward 7 unknown #
loop $-1 $-1 $257 $157 #
plane-surface $-1 -34.129570728689032 -20.243075132301939 32.137938718190128 0 0.51503808176128008 0.85716729658548041 1 0 0 forward_v I I I I #
loop $-1 $-1 $414 $100 #
coedge $-1 $255 $255 $256 $415 reversed $158 $-1 #
coedge $-1 $256 $256 $255 $415 forward $160 $-1 #
coedge $-1 $257 $257 $161 $258 forward $252 $-1 #
edge $-1 $416 1.0194580772276629e-015 $416 6.2831853071796013 $257 $417 forward 7 unknown #
face $-1 $418 $419 $57 $-1 $420 forward single #
loop $-1 $-1 $421 $162 #
plane-surface $-1 -3.7965490320300725 33.760869073519032 122.01559339870803 -1 0 0 0 0.51503808176128008 0.85716729658548041 forward_v I I I I #
coedge $-1 $422 $423 $424 $425 reversed $163 $-1 #
coedge $-1 $264 $165 $426 $427 reversed $104 $-1 #
coedge $-1 $165 $263 $422 $428 reversed $104 $-1 #
coedge $-1 $424 $429 $165 $266 forward $419 $-1 #
edge $-1 $430 -11.457931441628965 $431 -3.7424079748314298 $265 $432 forward 7 unknown #
loop $-1 $-1 $272 $166 #
plane-surface $-1 -11.449401642437756 -20.243075132301939 32.137938718190128 0 0.51503808176128008 0.85716729658548041 1 0 0 forward_v I I I I #
loop $-1 $-1 $433 $106 #
coedge $-1 $270 $270 $271 $434 reversed $167 $-1 #
coedge $-1 $271 $271 $270 $434 forward $169 $-1 #
coedge $-1 $272 $272 $170 $273 forward $267 $-1 #
edge $-1 $435 1.0194580772276629e-015 $435 6.2831853071796013 $272 $436 forward 7 unknown #
loop $-1 $-1 $279 $171 #
plane-surface $-1 -11.449401642437756 -20.243075132301939 32.137938718190128 0 0.51503808176128008 0.85716729658548041 1 0 0 forward_v I I I I #
loop $-1 $-1 $437 $109 #
coedge $-1 $277 $277 $278 $438 reversed $172 $-1 #
coedge $-1 $278 $278 $277 $438 forward $174 $-1 #
coedge $-1 $279 $279 $175 $280 forward $274 $-1 #
edge $-1 $439 1.0194580772276629e-015 $439 6.2831853071796013 $279 $440 forward 7 unknown #
face $-1 $441 $442 $60 $-1 $443 forward single #
loop $-1 $-1 $444 $176 #
plane-surface $-1 18.883620054221204 33.760869073519032 122.01559339870803 -1 0 0 0 0.51503808176128008 0.85716729658548041 forward_v I I I I #
coedge $-1 $445 $446 $447 $448 reversed $177 $-1 #
coedge $-1 $286 $179 $449 $450 reversed $113 $-1 #
coedge $-1 $179 $285 $445 $451 reversed $113 $-1 #
coedge $-1 $447 $452 $179 $288 forward $442 $-1 #
edge $-1 $453 -11.457931441628965 $454 -3.7424079748314298 $287 $455 forward 7 unknown #
loop $-1 $-1 $294 $180 #
plane-surface $-1 11.230767443813519 -20.243075132301939 32.137938718190128 0 0.51503808176128008 0.85716729658548041 1 0 0 forward_v I I I I #
loop $-1 $-1 $456 $115 #
coedge $-1 $292 $292 $293 $457 reversed $181 $-1 #
coedge $-1 $293 $293 $292 $457 forward $183 $-1 #
coedge $-1 $294 $294 $184 $295 forward $289 $-1 #
edge $-1 $458 1.0194580772276629e-015 $458 6.2831853071796013 $294 $459 forward 7 unknown #
loop $-1 $-1 $301 $185 #
plane-surface $-1 11.230767443813519 -20.243075132301939 32.137938718190128 0 0.51503808176128008 0.85716729658548041 1 0 0 forward_v I I I I #
loop $-1 $-1 $460 $118 #
coedge $-1 $299 $299 $300 $461 reversed $186 $-1 #
coedge $-1 $300 $300 $299 $461 forward $188 $-1 #
coedge $-1 $301 $301 $189 $302 forward $296 $-1 #
edge $-1 $462 1.0194580772276629e-015 $462 6.2831853071796013 $301 $463 forward 7 unknown #
face $-1 $464 $465 $63 $-1 $466 forward single #
loop $-1 $-1 $467 $190 #
plane-surface $-1 41.563789140472487 33.760869073519032 122.01559339870803 -1 0 0 0 0.51503808176128008 0.85716729658548041 forward_v I I I I #
coedge $-1 $468 $469 $470 $471 reversed $191 $-1 #
coedge $-1 $308 $193 $472 $473 reversed $122 $-1 #
coedge $-1 $193 $307 $468 $474 reversed $122 $-1 #
coedge $-1 $470 $475 $193 $310 forward $465 $-1 #
edge $-1 $476 -11.457931441628965 $477 -3.7424079748314298 $309 $478 forward 7 unknown #
loop $-1 $-1 $316 $194 #
plane-surface $-1 33.910936530064802 -20.243075132301939 32.137938718190128 0 0.51503808176128008 0.85716729658548041 1 0 0 forward_v I I I I #
loop $-1 $-1 $479 $124 #
coedge $-1 $314 $314 $315 $480 reversed $195 $-1 #
coedge $-1 $315 $315 $314 $480 forward $197 $-1 #
coedge $-1 $316 $316 $198 $317 forward $311 $-1 #
edge $-1 $481 1.0194580772276629e-015 $481 6.2831853071796013 $316 $482 forward 7 unknown #
loop $-1 $-1 $323 $199 #
plane-surface $-1 33.910936530064802 -20.243075132301939 32.137938718190128 0 0.51503808176128008 0.85716729658548041 1 0 0 forward_v I I I I #
loop $-1 $-1 $483 $127 #
coedge $-1 $321 $321 $322 $484 reversed $200 $-1 #
coedge $-1 $322 $322 $321 $484 forward $202 $-1 #
coedge $-1 $323 $323 $203 $324 forward $318 $-1 #
edge $-1 $485 1.0194580772276629e-015 $485 6.2831853071796013 $323 $486 forward 7 unknown #
face $-1 $487 $488 $66 $-1 $489 forward single #
loop $-1 $-1 $490 $204 #
plane-surface $-1 20.055618009214996 -97.12896007780536 83.043694321276433 1 0 0 0 0.6560590369687036 -0.75470957328743171 forward_v I I I I #
coedge $-1 $491 $492 $493 $494 reversed $205 $-1 #
coedge $-1 $330 $207 $495 $496 reversed $131 $-1 #
coedge $-1 $207 $329 $491 $497 reversed $131 $-1 #
coedge $-1 $493 $498 $207 $332 forward $488 $-1 #
edge $-1 $499 20.226114060514199 $500 24.452622550561216 $331 $501 forward 7 unknown #
loop $-1 $-1 $338 $208 #
plane-surface $-1 32.707978090858774 -28.338365978388467 3.9091698448816885 0 -0.6560590369687036 0.75470957328743171 1 0 0 forward_v I I I I #
loop $-1 $-1 $502 $133 #
coedge $-1 $336 $336 $337 $503 reversed $209 $-1 #
coedge $-1 $337 $337 $336 $503 forward $211 $-1 #
coedge $-1 $338 $338 $212 $339 forward $333 $-1 #
edge $-1 $504 -3.5047710980055092e-016 $504 6.2831853071796004 $338 $505 forward 7 unknown #
face $-1 $506 $507 $51 $-1 $508 reversed single #
loop $-1 $-1 $509 $213 #
plane-surface $-1 -52.427137058626059 0 0 1 0 0 0 0 -1 forward_v I I I I #
coedge $-1 $510 $351 $511 $512 forward $214 $-1 #
coedge $-1 $513 $216 $510 $514 forward $137 $-1 #
coedge $-1 $216 $513 $515 $516 forward $137 $-1 #
coedge $-1 $354 $353 $216 $347 reversed $355 $-1 #
edge $-1 $517 -28.338365978388481 $518 28.338365978388481 $346 $519 forward 7 unknown #
coedge $-1 $218 $217 $520 $521 forward $86 $-1 #
coedge $-1 $522 $523 $217 $350 reversed $507 $-1 #
edge $-1 $357 -52.427137058626059 $524 52.427137058626059 $349 $525 forward 7 unknown #
coedge $-1 $343 $526 $218 $352 reversed $214 $-1 #
edge $-1 $527 -52.427137058626059 $356 52.427137058626059 $351 $528 forward 7 unknown #
coedge $-1 $346 $219 $526 $529 forward $355 $-1 #
coedge $-1 $219 $346 $522 $530 reversed $355 $-1 #
loop $-1 $-1 $353 $506 #
vertex $-1 $220 $531 #
vertex $-1 $220 $532 #
straight-curve $-1 52.427137058626059 0 7.5832177009889135 0 1 0 I I #
face $-1 $533 $534 $52 $-1 $535 forward single #
loop $-1 $-1 $536 $221 #
plane-surface $-1 0 0 -7.5832177009889135 0 0 1 1 0 0 forward_v I I I I #
coedge $-1 $537 $538 $367 $539 forward $222 $-1 #
coedge $-1 $540 $224 $536 $541 reversed $141 $-1 #
coedge $-1 $224 $540 $542 $543 reversed $141 $-1 #
coedge $-1 $538 $537 $224 $366 reversed $222 $-1 #
edge $-1 $544 -7.5832177009889135 $545 7.5832177009889135 $365 $546 forward 7 unknown #
coedge $-1 $226 $225 $362 $539 reversed $89 $-1 #
coedge $-1 $547 $548 $225 $369 forward $360 $-1 #
edge $-1 $549 20.913469364720399 $375 27.980268250843906 $368 $550 forward 7 unknown #
coedge $-1 $551 $552 $226 $371 forward $534 $-1 #
edge $-1 $376 -27.980268250843906 $553 -20.913469364720399 $370 $554 forward 7 unknown #
coedge $-1 $555 $227 $552 $556 reversed $374 $-1 #
coedge $-1 $227 $555 $547 $557 reversed $374 $-1 #
loop $-1 $-1 $555 $533 #
vertex $-1 $557 $558 #
vertex $-1 $228 $559 #
straight-curve $-1 -52.427137058626059 -22.452866312360143 0 0 0 1 I I #
face $-1 $560 $561 $53 $-1 $562 forward single #
loop $-1 $-1 $387 $229 #
plane-surface $-1 0 0 -7.5832177009889135 0 0 1 1 0 0 forward_v I I I I #
coedge $-1 $563 $564 $565 $566 reversed $230 $-1 #
coedge $-1 $235 $232 $567 $568 reversed $145 $-1 #
coedge $-1 $232 $235 $569 $570 reversed $145 $-1 #
coedge $-1 $564 $563 $232 $385 reversed $230 $-1 #
edge $-1 $571 -7.5832177009889135 $572 7.5832177009889135 $384 $573 forward 7 unknown #
coedge $-1 $234 $233 $574 $575 reversed $92 $-1 #
coedge $-1 $567 $576 $233 $388 forward $379 $-1 #
edge $-1 $577 -27.980268250843906 $392 -20.913469364720399 $387 $578 forward 7 unknown #
coedge $-1 $579 $569 $234 $390 forward $561 $-1 #
edge $-1 $391 20.913469364720399 $580 27.980268250843906 $389 $581 forward 7 unknown #
vertex $-1 $390 $582 #
vertex $-1 $388 $583 #
straight-curve $-1 45.360338172502551 -22.452866312360143 0 0 0 -1 I I #
face $-1 $-1 $406 $54 $-1 $584 forward single #
loop $-1 $-1 $585 $237 #
plane-surface $-1 0 28.338365978388481 0 0 -1 0 0 0 -1 forward_v I I I I #
coedge $-1 $586 $587 $588 $589 reversed $238 $-1 #
coedge $-1 $590 $240 $242 $404 forward $149 $-1 #
coedge $-1 $240 $590 $586 $591 forward $149 $-1 #
coedge $-1 $588 $243 $240 $401 forward $406 $-1 #
edge $-1 $408 -24.717637974752201 $592 -9.4119327539368314 $400 $593 forward 7 unknown #
coedge $-1 $594 $595 $241 $403 forward $395 $-1 #
edge $-1 $596 -58.060533288680546 $407 -53.424578998365106 $402 $597 forward 7 unknown #
edge $-1 $408 47.675544560183248 $596 56.676731956776962 $242 $598 forward 7 unknown #
coedge $-1 $243 $588 $594 $599 forward $406 $-1 #
loop $-1 $-1 $588 $394 #
vertex $-1 $403 $600 #
vertex $-1 $244 $601 #
straight-curve $-1 -41.782423339096717 16.880434536759516 7.5832177009889108 0 -1 0 I I #
coedge $-1 $410 $410 $-1 $602 reversed $247 $-1 #
edge $-1 $603 0 $603 6.2831853071796004 $248 $604 forward 7 unknown #
vertex $-1 $251 $605 #
ellipse-curve $-1 -37.409364704578039 24.48060424498971 5.2652405558312001 0 0.51503808176128008 0.85716729658548041 1.5 0 0 1 I I #
coedge $-1 $414 $414 $-1 $606 reversed $254 $-1 #
edge $-1 $607 0 $607 6.2831853071796004 $255 $608 forward 7 unknown #
vertex $-1 $258 $609 #
ellipse-curve $-1 -30.849776752800025 24.48060424498971 5.2652405558312001 0 0.51503808176128008 0.85716729658548041 1.5 0 0 1 I I #
face $-1 $-1 $610 $57 $-1 $611 reversed single #
loop $-1 $-1 $265 $259 #
plane-surface $-1 0 0 7.5832177009889135 0 0 1 1 0 0 forward_v I I I I #
coedge $-1 $612 $613 $614 $615 reversed $260 $-1 #
coedge $-1 $616 $262 $264 $428 forward $163 $-1 #
coedge $-1 $262 $616 $612 $617 forward $163 $-1 #
coedge $-1 $614 $265 $262 $425 forward $419 $-1 #
edge $-1 $431 -13.377553431626563 $618 1.9281517891888056 $424 $619 forward 7 unknown #
coedge $-1 $620 $621 $263 $427 forward $610 $-1 #
edge $-1 $622 -58.060533288680546 $430 -53.424578998365106 $426 $623 forward 7 unknown #
edge $-1 $431 47.675544560183248 $622 56.676731956776962 $264 $624 forward 7 unknown #
coedge $-1 $265 $614 $620 $625 forward $419 $-1 #
vertex $-1 $427 $626 #
vertex $-1 $266 $627 #
straight-curve $-1 -19.102254252845441 16.880434536759516 7.5832177009889108 0 -1 0 I I #
coedge $-1 $433 $433 $-1 $628 reversed $269 $-1 #
edge $-1 $629 0 $629 6.2831853071796004 $270 $630 forward 7 unknown #
vertex $-1 $273 $631 #
ellipse-curve $-1 -14.729195618326763 24.48060424498971 5.2652405558312001 0 0.51503808176128008 0.85716729658548041 1.5 0 0 1 I I #
coedge $-1 $437 $437 $-1 $632 reversed $276 $-1 #
edge $-1 $633 0 $633 6.2831853071796004 $277 $634 forward 7 unknown #
vertex $-1 $280 $635 #
ellipse-curve $-1 -8.1696076665487496 24.48060424498971 5.2652405558312001 0 0.51503808176128008 0.85716729658548041 1.5 0 0 1 I I #
face $-1 $-1 $636 $60 $-1 $637 reversed single #
loop $-1 $-1 $287 $281 #
plane-surface $-1 0 0 7.5832177009889135 0 0 1 1 0 0 forward_v I I I I #
coedge $-1 $638 $639 $640 $641 reversed $282 $-1 #
coedge $-1 $642 $284 $286 $451 forward $177 $-1 #
coedge $-1 $284 $642 $638 $643 forward $177 $-1 #
coedge $-1 $640 $287 $284 $448 forward $442 $-1 #
edge $-1 $454 -2.037468888500924 $644 13.268236332314444 $447 $645 forward 7 unknown #
coedge $-1 $646 $647 $285 $450 forward $636 $-1 #
edge $-1 $648 -58.060533288680546 $453 -53.424578998365106 $449 $649 forward 7 unknown #
edge $-1 $454 47.675544560183248 $648 56.676731956776962 $286 $650 forward 7 unknown #
coedge $-1 $287 $640 $646 $651 forward $442 $-1 #
vertex $-1 $288 $652 #
vertex $-1 $288 $653 #
straight-curve $-1 3.5779148334058357 16.880434536759516 7.5832177009889108 0 -1 0 I I #
coedge $-1 $456 $456 $-1 $654 reversed $291 $-1 #
edge $-1 $655 0 $655 6.2831853071796004 $292 $656 forward 7 unknown #
vertex $-1 $295 $657 #
ellipse-curve $-1 7.9509734679245128 24.48060424498971 5.2652405558312001 0 0.51503808176128008 0.85716729658548041 1.5 0 0 1 I I #
coedge $-1 $460 $460 $-1 $658 reversed $298 $-1 #
edge $-1 $659 0 $659 6.2831853071796004 $299 $660 forward 7 unknown #
vertex $-1 $302 $661 #
ellipse-curve $-1 14.510561419702526 24.48060424498971 5.2652405558312001 0 0.51503808176128008 0.85716729658548041 1.5 0 0 1 I I #
face $-1 $-1 $662 $63 $-1 $663 reversed single #
loop $-1 $-1 $309 $303 #
plane-surface $-1 0 0 7.5832177009889135 0 0 1 1 0 0 forward_v I I I I #
coedge $-1 $664 $665 $666 $667 reversed $304 $-1 #
coedge $-1 $668 $306 $308 $474 forward $191 $-1 #
coedge $-1 $306 $668 $664 $669 forward $191 $-1 #
coedge $-1 $666 $309 $306 $471 forward $465 $-1 #
edge $-1 $477 9.3026156546247165 $670 24.608320875440086 $470 $671 forward 7 unknown #
coedge $-1 $672 $673 $307 $473 forward $662 $-1 #
edge $-1 $674 -58.060533288680546 $476 -53.424578998365106 $472 $675 forward 7 unknown #
edge $-1 $477 47.675544560183248 $674 56.676731956776962 $308 $676 forward 7 unknown #
coedge $-1 $309 $666 $672 $677 forward $465 $-1 #
vertex $-1 $310 $678 #
vertex $-1 $310 $679 #
straight-curve $-1 26.258083919657118 16.880434536759516 7.5832177009889108 0 -1 0 I I #
coedge $-1 $479 $479 $-1 $680 reversed $313 $-1 #
edge $-1 $681 0 $681 6.2831853071796004 $314 $682 forward 7 unknown #
vertex $-1 $317 $683 #
ellipse-curve $-1 30.631142554175781 24.48060424498971 5.2652405558312001 0 0.51503808176128008 0.85716729658548041 1.5 0 0 1 I I #
coedge $-1 $483 $483 $-1 $684 reversed $320 $-1 #
edge $-1 $685 0 $685 6.2831853071796004 $321 $686 forward 7 unknown #
vertex $-1 $324 $687 #
ellipse-curve $-1 37.190730505953795 24.48060424498971 5.2652405558312001 0 0.51503808176128008 0.85716729658548041 1.5 0 0 1 I I #
face $-1 $-1 $688 $66 $-1 $689 reversed single #
loop $-1 $-1 $331 $325 #
plane-surface $-1 0 0 7.5832177009889135 0 0 1 1 0 0 forward_v I I I I #
coedge $-1 $690 $691 $692 $693 reversed $326 $-1 #
coedge $-1 $694 $328 $330 $497 forward $205 $-1 #
coedge $-1 $328 $694 $690 $695 forward $205 $-1 #
coedge $-1 $692 $331 $328 $494 forward $488 $-1 #
edge $-1 $500 -29.006349127073165 $696 -3.701628963785609 $493 $697 forward 7 unknown #
coedge $-1 $698 $699 $329 $496 forward $688 $-1 #
edge $-1 $700 -37.612677315756542 $499 -33.938629459649306 $495 $701 forward 7 unknown #
edge $-1 $500 -5.6001787172737174 $700 1.888283279974768e-014 $330 $702 forward 7 unknown #
coedge $-1 $331 $692 $698 $703 forward $488 $-1 #
vertex $-1 $332 $704 #
vertex $-1 $332 $705 #
straight-curve $-1 45.360338172502551 -48.56448003890268 7.5832177009889108 0 1 0 I I #
coedge $-1 $502 $502 $-1 $706 reversed $335 $-1 #
edge $-1 $707 0 $707 6.2831853071796004 $336 $708 forward 7 unknown #
vertex $-1 $339 $709 #
ellipse-curve $-1 32.707978090858774 -26.225111733364972 5.7461937729352961 0 -0.6560590369687036 0.75470957328743171 1 0 0 1 I I #
face $-1 $-1 $355 $51 $-1 $710 reversed single #
loop $-1 $-1 $522 $340 #
plane-surface $-1 0 28.338365978388481 0 0 -1 0 0 0 -1 forward_v I I I I #
coedge $-1 $711 $520 $523 $712 forward $341 $-1 #
coedge $-1 $526 $343 $344 $514 reversed $214 $-1 #
coedge $-1 $520 $711 $343 $512 reversed $341 $-1 #
edge $-1 $527 -7.5832177009889135 $713 7.5832177009889135 $511 $714 forward 7 unknown #
coedge $-1 $345 $344 $711 $715 forward $137 $-1 #
edge $-1 $518 -52.427137058626059 $713 52.427137058626059 $510 $716 forward 7 unknown #
coedge $-1 $523 $522 $345 $516 reversed $507 $-1 #
edge $-1 $717 -52.427137058626059 $517 52.427137058626059 $515 $718 forward 7 unknown #
vertex $-1 $347 $719 #
vertex $-1 $529 $720 #
straight-curve $-1 52.427137058626059 0 -7.5832177009889135 0 -1 0 I I #
coedge $-1 $509 $511 $348 $521 reversed $341 $-1 #
edge $-1 $524 -28.338365978388481 $527 28.338365978388481 $520 $721 forward 7 unknown #
coedge $-1 $515 $349 $354 $530 forward $507 $-1 #
coedge $-1 $349 $515 $509 $712 reversed $507 $-1 #
vertex $-1 $350 $722 #
straight-curve $-1 0 28.338365978388481 7.5832177009889135 -1 0 0 I I #
coedge $-1 $351 $510 $353 $529 reversed $214 $-1 #
vertex $-1 $521 $723 #
straight-curve $-1 0 -28.338365978388481 7.5832177009889135 1 0 0 I I #
edge $-1 $356 -7.5832177009889135 $518 7.5832177009889135 $353 $724 forward 7 unknown #
edge $-1 $357 -7.5832177009889135 $517 7.5832177009889135 $354 $725 forward 7 unknown #
point $-1 52.427137058626059 -28.338365978388481 7.5832177009889135 #
point $-1 52.427137058626059 28.338365978388481 7.5832177009889135 #
face $-1 $-1 $374 $52 $-1 $726 reversed single #
loop $-1 $-1 $542 $359 #
plane-surface $-1 0 0 7.5832177009889135 0 0 1 1 0 0 forward_v I I I I #
coedge $-1 $548 $547 $363 $541 forward $360 $-1 #
coedge $-1 $365 $362 $548 $727 reversed $222 $-1 #
coedge $-1 $362 $365 $551 $728 reversed $222 $-1 #
edge $-1 $553 -7.5832177009889135 $549 7.5832177009889135 $362 $729 forward 7 unknown #
coedge $-1 $364 $363 $555 $730 reversed $141 $-1 #
edge $-1 $731 -27.980268250843906 $545 -20.913469364720399 $536 $732 forward 7 unknown #
coedge $-1 $552 $551 $364 $543 forward $534 $-1 #
edge $-1 $544 20.913469364720399 $733 27.980268250843906 $542 $734 forward 7 unknown #
vertex $-1 $543 $735 #
vertex $-1 $541 $736 #
straight-curve $-1 -45.360338172502551 -19.452866312360143 0 0 0 -1 I I #
coedge $-1 $536 $368 $373 $557 forward $360 $-1 #
coedge $-1 $368 $536 $537 $727 forward $360 $-1 #
vertex $-1 $369 $737 #
straight-curve $-1 -24.446868807782153 -22.452866312360143 -7.5832177009889135 -1 0 0 I I #
coedge $-1 $542 $370 $538 $728 forward $534 $-1 #
coedge $-1 $370 $542 $372 $556 forward $534 $-1 #
vertex $-1 $371 $738 #
straight-curve $-1 -24.446868807782153 -22.452866312360143 7.5832177009889135 1 0 0 I I #
coedge $-1 $373 $372 $540 $730 forward $374 $-1 #
edge $-1 $733 19.452866312360143 $376 22.452866312360143 $372 $739 forward 7 unknown #
edge $-1 $375 -22.452866312360143 $731 -19.452866312360143 $373 $740 forward 7 unknown #
point $-1 -52.427137058626059 -22.452866312360143 -7.5832177009889135 #
point $-1 -52.427137058626059 -22.452866312360143 7.5832177009889135 #
face $-1 $-1 $741 $53 $-1 $742 reversed single #
loop $-1 $-1 $389 $378 #
plane-surface $-1 0 0 7.5832177009889135 0 0 1 1 0 0 forward_v I I I I #
coedge $-1 $384 $381 $743 $744 reversed $230 $-1 #
coedge $-1 $381 $384 $745 $746 reversed $230 $-1 #
coedge $-1 $747 $748 $381 $566 forward $741 $-1 #
edge $-1 $749 -7.5832177009889135 $750 7.5832177009889135 $565 $751 forward 7 unknown #
coedge $-1 $743 $387 $382 $568 forward $379 $-1 #
edge $-1 $392 -11.976433156180072 $572 -8.9764331561800716 $567 $752 forward 7 unknown #
coedge $-1 $389 $745 $383 $570 forward $561 $-1 #
edge $-1 $571 8.9764331561800716 $391 11.976433156180072 $569 $753 forward 7 unknown #
vertex $-1 $570 $754 #
vertex $-1 $568 $755 #
straight-curve $-1 45.360338172502551 -19.452866312360143 0 0 0 -1 I I #
coedge $-1 $748 $747 $386 $575 forward $741 $-1 #
edge $-1 $580 -7.5832177009889135 $577 7.5832177009889135 $574 $756 forward 7 unknown #
coedge $-1 $387 $743 $748 $757 forward $379 $-1 #
vertex $-1 $575 $758 #
straight-curve $-1 24.446868807782153 -22.452866312360143 -7.5832177009889135 -1 0 0 I I #
coedge $-1 $745 $389 $747 $759 forward $561 $-1 #
vertex $-1 $759 $760 #
straight-curve $-1 24.446868807782153 -22.452866312360143 7.5832177009889135 1 0 0 I I #
point $-1 45.360338172502551 -22.452866312360143 7.5832177009889135 #
point $-1 45.360338172502551 -22.452866312360143 -7.5832177009889135 #
plane-surface $-1 0 0 7.5832177009889135 0 0 1 1 0 0 forward_v I I I I #
coedge $-1 $595 $594 $587 $761 forward $395 $-1 #
coedge $-1 $587 $397 $399 $591 reversed $238 $-1 #
coedge $-1 $397 $586 $585 $761 reversed $238 $-1 #
coedge $-1 $405 $400 $397 $589 forward $406 $-1 #
edge $-1 $592 3.7424079748314298 $762 11.457931441628965 $588 $763 forward 7 unknown #
coedge $-1 $399 $398 $595 $764 reversed $149 $-1 #
edge $-1 $765 -56.676731956776962 $592 -47.675544560183248 $586 $766 forward 7 unknown #
vertex $-1 $401 $767 #
straight-curve $-1 -17.064785364344516 20.622842511590946 7.5832177009889143 1 0 0 I I #
coedge $-1 $585 $402 $405 $599 reversed $395 $-1 #
coedge $-1 $402 $585 $590 $764 forward $395 $-1 #
vertex $-1 $403 $768 #
straight-curve $-1 -41.782423339096717 28.338365978388481 61.007796699354017 0 0 1 I I #
straight-curve $-1 -41.782423339096717 -20.243075132301939 32.137938718190128 0 0.85716729658548041 -0.51503808176128008 I I #
edge $-1 $762 26.476718118281347 $407 41.782423339096717 $594 $769 forward 7 unknown #
point $-1 -41.782423339096717 28.338365978388481 7.5832177009889135 #
point $-1 -41.782423339096717 20.622842511590946 7.5832177009889143 #
edge $-1 $770 1 $770 0 $410 $-1 forward 7 unknown #
vertex $-1 $411 $771 #
ellipse-curve $-1 -37.409364704578039 22.173094689859095 1.4248998174287906 0 0.51503808176128008 0.85716729658548041 1.5 0 0 1 I I #
point $-1 -35.909364704578039 24.480604244989706 5.2652405558311912 #
edge $-1 $772 1 $772 0 $414 $-1 forward 7 unknown #
vertex $-1 $415 $773 #
ellipse-curve $-1 -30.849776752800025 22.173094689859095 1.4248998174287906 0 0.51503808176128008 0.85716729658548041 1.5 0 0 1 I I #
point $-1 -29.349776752800025 24.480604244989706 5.2652405558311912 #
loop $-1 $-1 $426 $418 #
plane-surface $-1 0 28.338365978388481 0 0 -1 0 0 0 -1 forward_v I I I I #
coedge $-1 $613 $421 $423 $617 reversed $260 $-1 #
coedge $-1 $421 $612 $774 $775 reversed $260 $-1 #
coedge $-1 $429 $424 $421 $615 forward $419 $-1 #
edge $-1 $618 3.7424079748314298 $776 11.457931441628965 $614 $777 forward 7 unknown #
coedge $-1 $423 $422 $621 $778 reversed $163 $-1 #
edge $-1 $779 -56.676731956776962 $618 -47.675544560183248 $612 $780 forward 7 unknown #
vertex $-1 $425 $781 #
straight-curve $-1 -5.7247008212188781 20.622842511590946 7.5832177009889143 1 0 0 I I #
coedge $-1 $774 $426 $429 $625 reversed $610 $-1 #
coedge $-1 $426 $774 $616 $778 forward $610 $-1 #
vertex $-1 $427 $782 #
straight-curve $-1 -19.102254252845441 28.338365978388481 61.007796699354017 0 0 1 I I #
straight-curve $-1 -19.102254252845441 -20.243075132301939 32.137938718190128 0 0.85716729658548041 -0.51503808176128008 I I #
edge $-1 $776 3.7965490320300725 $430 19.102254252845441 $620 $783 forward 7 unknown #
point $-1 -19.102254252845441 28.338365978388481 7.5832177009889135 #
point $-1 -19.102254252845441 20.622842511590946 7.5832177009889143 #
edge $-1 $784 1 $784 0 $433 $-1 forward 7 unknown #
vertex $-1 $434 $785 #
ellipse-curve $-1 -14.729195618326763 22.173094689859095 1.4248998174287906 0 0.51503808176128008 0.85716729658548041 1.5 0 0 1 I I #
point $-1 -13.229195618326763 24.480604244989706 5.2652405558311912 #
edge $-1 $786 1 $786 0 $437 $-1 forward 7 unknown #
vertex $-1 $438 $787 #
ellipse-curve $-1 -8.1696076665487496 22.173094689859095 1.4248998174287906 0 0.51503808176128008 0.85716729658548041 1.5 0 0 1 I I #
point $-1 -6.6696076665487496 24.480604244989706 5.2652405558311912 #
loop $-1 $-1 $449 $441 #
plane-surface $-1 0 28.338365978388481 0 0 -1 0 0 0 -1 forward_v I I I I #
coedge $-1 $639 $444 $446 $643 reversed $282 $-1 #
coedge $-1 $444 $638 $788 $789 reversed $282 $-1 #
coedge $-1 $452 $447 $444 $641 forward $442 $-1 #
edge $-1 $644 3.7424079748314298 $790 11.457931441628965 $640 $791 forward 7 unknown #
coedge $-1 $446 $445 $647 $792 reversed $177 $-1 #
edge $-1 $793 -56.676731956776962 $644 -47.675544560183248 $638 $794 forward 7 unknown #
vertex $-1 $448 $795 #
straight-curve $-1 5.6153837219067597 20.622842511590946 7.5832177009889143 1 0 0 I I #
coedge $-1 $788 $449 $452 $651 reversed $636 $-1 #
coedge $-1 $449 $788 $642 $792 forward $636 $-1 #
vertex $-1 $450 $796 #
straight-curve $-1 3.5779148334058357 28.338365978388481 61.007796699354017 0 0 1 I I #
straight-curve $-1 3.5779148334058357 -20.243075132301939 32.137938718190128 0 0.85716729658548041 -0.51503808176128008 I I #
edge $-1 $790 -18.883620054221204 $453 -3.5779148334058357 $646 $797 forward 7 unknown #
point $-1 3.5779148334058357 28.338365978388481 7.5832177009889135 #
point $-1 3.5779148334058357 20.622842511590946 7.5832177009889143 #
edge $-1 $798 1 $798 0 $456 $-1 forward 7 unknown #
vertex $-1 $457 $799 #
ellipse-curve $-1 7.9509734679245128 22.173094689859095 1.4248998174287906 0 0.51503808176128008 0.85716729658548041 1.5 0 0 1 I I #
point $-1 9.4509734679245128 24.480604244989706 5.2652405558311912 #
edge $-1 $800 1 $800 0 $460 $-1 forward 7 unknown #
vertex $-1 $461 $801 #
ellipse-curve $-1 14.510561419702526 22.173094689859095 1.4248998174287906 0 0.51503808176128008 0.85716729658548041 1.5 0 0 1 I I #
point $-1 16.010561419702526 24.480604244989706 5.2652405558311912 #
loop $-1 $-1 $472 $464 #
plane-surface $-1 0 28.338365978388481 0 0 -1 0 0 0 -1 forward_v I I I I #
coedge $-1 $665 $467 $469 $669 reversed $304 $-1 #
coedge $-1 $467 $664 $802 $803 reversed $304 $-1 #
coedge $-1 $475 $470 $467 $667 forward $465 $-1 #
edge $-1 $670 3.7424079748314298 $804 11.457931441628965 $666 $805 forward 7 unknown #
coedge $-1 $469 $468 $673 $806 reversed $191 $-1 #
edge $-1 $807 -56.676731956776962 $670 -47.675544560183248 $664 $808 forward 7 unknown #
vertex $-1 $471 $809 #
straight-curve $-1 16.955468265032401 20.622842511590946 7.5832177009889143 1 0 0 I I #
coedge $-1 $802 $472 $475 $677 reversed $662 $-1 #
coedge $-1 $472 $802 $668 $806 forward $662 $-1 #
vertex $-1 $473 $810 #
straight-curve $-1 26.258083919657118 28.338365978388481 61.007796699354017 0 0 1 I I #
straight-curve $-1 26.258083919657118 -20.243075132301939 32.137938718190128 0 0.85716729658548041 -0.51503808176128008 I I #
edge $-1 $804 -41.563789140472487 $476 -26.258083919657118 $672 $811 forward 7 unknown #
point $-1 26.258083919657118 28.338365978388481 7.5832177009889135 #
point $-1 26.258083919657118 20.622842511590946 7.5832177009889143 #
edge $-1 $812 1 $812 0 $479 $-1 forward 7 unknown #
vertex $-1 $480 $813 #
ellipse-curve $-1 30.631142554175781 22.173094689859095 1.4248998174287906 0 0.51503808176128008 0.85716729658548041 1.5 0 0 1 I I #
point $-1 32.131142554175781 24.480604244989706 5.2652405558311912 #
edge $-1 $814 1 $814 0 $483 $-1 forward 7 unknown #
vertex $-1 $484 $815 #
ellipse-curve $-1 37.190730505953795 22.173094689859095 1.4248998174287906 0 0.51503808176128008 0.85716729658548041 1.5 0 0 1 I I #
point $-1 38.690730505953795 24.480604244989706 5.2652405558311912 #
loop $-1 $-1 $495 $487 #
plane-surface $-1 0 -28.338365978388481 0 0 1 0 0 0 1 forward_v I I I I #
coedge $-1 $691 $490 $492 $695 reversed $326 $-1 #
coedge $-1 $490 $690 $816 $817 reversed $326 $-1 #
coedge $-1 $498 $493 $490 $693 forward $488 $-1 #
edge $-1 $696 -24.452622550561216 $818 -20.226114060514199 $692 $819 forward 7 unknown #
coedge $-1 $492 $491 $699 $820 reversed $205 $-1 #
edge $-1 $821 -1.888283279974768e-014 $696 5.6001787172737174 $690 $822 forward 7 unknown #
vertex $-1 $494 $823 #
straight-curve $-1 16.353989045429387 -24.11185748834146 7.5832177009889143 -1 0 0 I I #
coedge $-1 $816 $495 $498 $703 reversed $688 $-1 #
coedge $-1 $495 $816 $694 $820 forward $688 $-1 #
vertex $-1 $496 $824 #
straight-curve $-1 45.360338172502551 -28.338365978388481 41.521847160638217 0 0 1 I I #
straight-curve $-1 45.360338172502551 -28.338365978388467 3.9091698448816885 0 -0.75470957328743171 -0.6560590369687036 I I #
edge $-1 $818 20.055618009214996 $499 45.360338172502551 $698 $825 forward 7 unknown #
point $-1 45.360338172502551 -28.338365978388481 7.5832177009889135 #
point $-1 45.360338172502551 -24.111857488341464 7.5832177009889135 #
edge $-1 $826 1 $826 0 $502 $-1 forward 7 unknown #
vertex $-1 $503 $827 #
ellipse-curve $-1 32.707978090858774 -24.246282948284627 3.4698117038805583 0 -0.6560590369687036 0.75470957328743171 1 0 0 1 I I #
point $-1 33.707978090858774 -26.225111733364976 5.7461937729352996 #
plane-surface $-1 52.427137058626059 0 0 -1 0 0 0 0 1 forward_v I I I I #
coedge $-1 $511 $509 $513 $715 reversed $341 $-1 #
edge $-1 $524 -7.5832177009889135 $717 7.5832177009889135 $523 $828 forward 7 unknown #
vertex $-1 $715 $829 #
straight-curve $-1 -52.427137058626059 -28.338365978388481 0 0 0 -1 I I #
edge $-1 $713 -28.338365978388481 $717 28.338365978388481 $711 $830 forward 7 unknown #
straight-curve $-1 0 -28.338365978388481 -7.5832177009889135 -1 0 0 I I #
vertex $-1 $516 $831 #
straight-curve $-1 0 28.338365978388481 -7.5832177009889135 1 0 0 I I #
point $-1 52.427137058626059 28.338365978388481 -7.5832177009889135 #
point $-1 52.427137058626059 -28.338365978388481 -7.5832177009889135 #
straight-curve $-1 -52.427137058626059 0 7.5832177009889135 0 -1 0 I I #
point $-1 -52.427137058626059 28.338365978388481 7.5832177009889135 #
point $-1 -52.427137058626059 -28.338365978388481 7.5832177009889135 #
straight-curve $-1 52.427137058626059 -28.338365978388481 0 0 0 -1 I I #
straight-curve $-1 52.427137058626059 28.338365978388481 0 0 0 -1 I I #
plane-surface $-1 -52.427137058626059 0 0 1 0 0 0 0 -1 forward_v I I I I #
edge $-1 $545 8.9764331561800716 $549 11.976433156180072 $548 $832 forward 7 unknown #
edge $-1 $553 -11.976433156180072 $544 -8.9764331561800716 $551 $833 forward 7 unknown #
straight-curve $-1 -45.360338172502551 -22.452866312360143 0 0 0 -1 I I #
edge $-1 $733 -7.5832177009889135 $731 7.5832177009889135 $555 $834 forward 7 unknown #
vertex $-1 $730 $835 #
straight-curve $-1 -24.446868807782153 -19.452866312360143 -7.5832177009889135 1 0 0 I I #
vertex $-1 $556 $836 #
straight-curve $-1 -24.446868807782153 -19.452866312360143 7.5832177009889135 -1 0 0 I I #
point $-1 -45.360338172502551 -19.452866312360143 7.5832177009889135 #
point $-1 -45.360338172502551 -19.452866312360143 -7.5832177009889135 #
point $-1 -45.360338172502551 -22.452866312360143 -7.5832177009889135 #
point $-1 -45.360338172502551 -22.452866312360143 7.5832177009889135 #
straight-curve $-1 -52.427137058626059 0 7.5832177009889135 0 -1 0 I I #
straight-curve $-1 -52.427137058626059 0 -7.5832177009889135 0 1 0 I I #
loop $-1 $-1 $574 $560 #
plane-surface $-1 52.427137058626059 0 0 -1 0 0 0 0 1 forward_v I I I I #
coedge $-1 $576 $567 $563 $744 forward $379 $-1 #
edge $-1 $572 20.913469364720399 $749 27.980268250843906 $743 $837 forward 7 unknown #
coedge $-1 $569 $579 $564 $746 forward $561 $-1 #
edge $-1 $750 -27.980268250843906 $571 -20.913469364720399 $745 $838 forward 7 unknown #
coedge $-1 $574 $565 $579 $759 reversed $741 $-1 #
coedge $-1 $565 $574 $576 $757 reversed $741 $-1 #
vertex $-1 $757 $839 #
vertex $-1 $566 $840 #
straight-curve $-1 52.427137058626059 -19.452866312360143 0 0 0 1 I I #
straight-curve $-1 45.360338172502551 -10.476433156180072 -7.5832177009889135 0 1 0 I I #
straight-curve $-1 45.360338172502551 -10.476433156180072 7.5832177009889135 0 -1 0 I I #
point $-1 45.360338172502551 -19.452866312360143 7.5832177009889135 #
point $-1 45.360338172502551 -19.452866312360143 -7.5832177009889135 #
straight-curve $-1 52.427137058626059 -22.452866312360143 0 0 0 -1 I I #
edge $-1 $749 19.452866312360143 $577 22.452866312360143 $748 $841 forward 7 unknown #
point $-1 52.427137058626059 -22.452866312360143 -7.5832177009889135 #
edge $-1 $580 -22.452866312360143 $750 -19.452866312360143 $747 $842 forward 7 unknown #
point $-1 52.427137058626059 -22.452866312360143 7.5832177009889135 #
edge $-1 $762 53.424578998365106 $765 58.060533288680546 $585 $843 forward 7 unknown #
vertex $-1 $599 $844 #
straight-curve $-1 -26.476718118281347 16.880434536759516 7.5832177009889108 0 1 0 I I #
edge $-1 $765 9.4119327539368314 $596 24.717637974752201 $595 $845 forward 7 unknown #
vertex $-1 $764 $846 #
straight-curve $-1 -26.476718118281347 -20.243075132301939 32.137938718190128 0 -0.85716729658548041 0.51503808176128008 I I #
point $-1 -26.476718118281347 20.622842511590946 7.5832177009889143 #
point $-1 -41.782423339096717 28.338365978388481 2.9472634106734752 #
straight-curve $-1 0 28.338365978388481 7.5832177009889135 -1 0 0 I I #
vertex $-1 $602 $847 #
point $-1 -35.909364704578039 22.173094689859095 1.4248998174287906 #
vertex $-1 $606 $848 #
point $-1 -29.349776752800025 22.173094689859095 1.4248998174287906 #
coedge $-1 $621 $620 $613 $775 forward $610 $-1 #
edge $-1 $776 53.424578998365106 $779 58.060533288680546 $774 $849 forward 7 unknown #
vertex $-1 $625 $850 #
straight-curve $-1 -3.7965490320300725 16.880434536759516 7.5832177009889108 0 1 0 I I #
edge $-1 $779 -1.9281517891888056 $622 13.377553431626563 $621 $851 forward 7 unknown #
vertex $-1 $778 $852 #
straight-curve $-1 -3.7965490320300725 -20.243075132301939 32.137938718190128 0 -0.85716729658548041 0.51503808176128008 I I #
point $-1 -3.7965490320300725 20.622842511590946 7.5832177009889143 #
point $-1 -19.102254252845441 28.338365978388481 2.9472634106734752 #
straight-curve $-1 0 28.338365978388481 7.5832177009889135 -1 0 0 I I #
vertex $-1 $628 $853 #
point $-1 -13.229195618326763 22.173094689859095 1.4248998174287906 #
vertex $-1 $632 $854 #
point $-1 -6.6696076665487496 22.173094689859095 1.4248998174287906 #
coedge $-1 $647 $646 $639 $789 forward $636 $-1 #
edge $-1 $790 53.424578998365106 $793 58.060533288680546 $788 $855 forward 7 unknown #
vertex $-1 $651 $856 #
straight-curve $-1 18.883620054221204 16.880434536759516 7.5832177009889108 0 1 0 I I #
edge $-1 $793 -13.268236332314444 $648 2.037468888500924 $647 $857 forward 7 unknown #
vertex $-1 $792 $858 #
straight-curve $-1 18.883620054221204 -20.243075132301939 32.137938718190128 0 -0.85716729658548041 0.51503808176128008 I I #
point $-1 18.883620054221204 20.622842511590946 7.5832177009889143 #
point $-1 3.5779148334058357 28.338365978388481 2.9472634106734752 #
straight-curve $-1 0 28.338365978388481 7.5832177009889135 -1 0 0 I I #
vertex $-1 $654 $859 #
point $-1 9.4509734679245128 22.173094689859095 1.4248998174287906 #
vertex $-1 $658 $860 #
point $-1 16.010561419702526 22.173094689859095 1.4248998174287906 #
coedge $-1 $673 $672 $665 $803 forward $662 $-1 #
edge $-1 $804 53.424578998365106 $807 58.060533288680546 $802 $861 forward 7 unknown #
vertex $-1 $677 $862 #
straight-curve $-1 41.563789140472487 16.880434536759516 7.5832177009889108 0 1 0 I I #
edge $-1 $807 -24.608320875440086 $674 -9.3026156546247165 $673 $863 forward 7 unknown #
vertex $-1 $806 $864 #
straight-curve $-1 41.563789140472487 -20.243075132301939 32.137938718190128 0 -0.85716729658548041 0.51503808176128008 I I #
point $-1 41.563789140472487 20.622842511590946 7.5832177009889143 #
point $-1 26.258083919657118 28.338365978388481 2.9472634106734752 #
straight-curve $-1 0 28.338365978388481 7.5832177009889135 -1 0 0 I I #
vertex $-1 $680 $865 #
point $-1 32.131142554175781 22.173094689859095 1.4248998174287906 #
vertex $-1 $684 $866 #
point $-1 38.690730505953795 22.173094689859095 1.4248998174287906 #
coedge $-1 $699 $698 $691 $817 forward $688 $-1 #
edge $-1 $818 33.938629459649306 $821 37.612677315756542 $816 $867 forward 7 unknown #
vertex $-1 $703 $868 #
straight-curve $-1 20.055618009214996 -48.56448003890268 7.5832177009889108 0 -1 0 I I #
edge $-1 $821 3.701628963785609 $700 29.006349127073165 $699 $869 forward 7 unknown #
vertex $-1 $820 $870 #
straight-curve $-1 20.055618009214996 -28.338365978388467 3.9091698448816885 0 0.75470957328743171 0.6560590369687036 I I #
point $-1 20.055618009214996 -24.111857488341464 7.5832177009889135 #
point $-1 45.360338172502551 -28.338365978388481 3.9091698448816761 #
straight-curve $-1 0 -28.338365978388481 7.5832177009889135 1 0 0 I I #
vertex $-1 $706 $871 #
point $-1 33.707978090858774 -24.246282948284627 3.4698117038805583 #
straight-curve $-1 -52.427137058626059 28.338365978388481 0 0 0 -1 I I #
point $-1 -52.427137058626059 -28.338365978388481 -7.5832177009889135 #
straight-curve $-1 -52.427137058626059 0 -7.5832177009889135 0 1 0 I I #
point $-1 -52.427137058626059 28.338365978388481 -7.5832177009889135 #
straight-curve $-1 -45.360338172502551 -10.476433156180072 -7.5832177009889135 0 -1 0 I I #
straight-curve $-1 -45.360338172502551 -10.476433156180072 7.5832177009889135 0 1 0 I I #
straight-curve $-1 -52.427137058626059 -19.452866312360143 0 0 0 -1 I I #
point $-1 -52.427137058626059 -19.452866312360143 -7.5832177009889135 #
point $-1 -52.427137058626059 -19.452866312360143 7.5832177009889135 #
straight-curve $-1 24.446868807782153 -19.452866312360143 -7.5832177009889135 1 0 0 I I #
straight-curve $-1 24.446868807782153 -19.452866312360143 7.5832177009889135 -1 0 0 I I #
point $-1 52.427137058626059 -19.452866312360143 -7.5832177009889135 #
point $-1 52.427137058626059 -19.452866312360143 7.5832177009889135 #
straight-curve $-1 52.427137058626059 0 -7.5832177009889135 0 -1 0 I I #
straight-curve $-1 52.427137058626059 0 7.5832177009889135 0 1 0 I I #
straight-curve $-1 -26.476718118281347 28.338365978388481 61.007796699354017 0 0 -1 I I #
point $-1 -26.476718118281347 28.338365978388481 7.5832177009889135 #
straight-curve $-1 -17.064785364344516 28.338365978388481 2.9472634106734787 -1 0 0 I I #
point $-1 -26.476718118281347 28.338365978388481 2.9472634106734752 #
point $-1 -37.409364704578039 21.400537567217174 0.13914887255056985 #
point $-1 -30.849776752800025 21.400537567217174 0.13914887255056985 #
straight-curve $-1 -3.7965490320300725 28.338365978388481 61.007796699354017 0 0 -1 I I #
point $-1 -3.7965490320300725 28.338365978388481 7.5832177009889135 #
straight-curve $-1 -5.7247008212188781 28.338365978388481 2.9472634106734787 -1 0 0 I I #
point $-1 -3.7965490320300725 28.338365978388481 2.9472634106734752 #
point $-1 -14.729195618326763 21.400537567217174 0.13914887255056985 #
point $-1 -8.1696076665487496 21.400537567217174 0.13914887255056985 #
straight-curve $-1 18.883620054221204 28.338365978388481 61.007796699354017 0 0 -1 I I #
point $-1 18.883620054221204 28.338365978388481 7.5832177009889135 #
straight-curve $-1 5.6153837219067597 28.338365978388481 2.9472634106734787 -1 0 0 I I #
point $-1 18.883620054221204 28.338365978388481 2.9472634106734752 #
point $-1 7.9509734679245128 21.400537567217174 0.13914887255056985 #
point $-1 14.510561419702526 21.400537567217174 0.13914887255056985 #
straight-curve $-1 41.563789140472487 28.338365978388481 61.007796699354017 0 0 -1 I I #
point $-1 41.563789140472487 28.338365978388481 7.5832177009889135 #
straight-curve $-1 16.955468265032401 28.338365978388481 2.9472634106734787 -1 0 0 I I #
point $-1 41.563789140472487 28.338365978388481 2.9472634106734752 #
point $-1 30.631142554175781 21.400537567217174 0.13914887255056985 #
point $-1 37.190730505953795 21.400537567217174 0.13914887255056985 #
straight-curve $-1 20.055618009214996 -28.338365978388481 41.521847160638217 0 0 -1 I I #
point $-1 20.055618009214996 -28.338365978388481 7.5832177009889135 #
straight-curve $-1 16.353989045429387 -28.338365978388481 3.9091698448816761 1 0 0 I I #
point $-1 20.055618009214996 -28.338365978388481 3.9091698448816761 #
point $-1 32.707978090858774 -23.59022391131592 2.7151021305931264 #
End-of-ACIS-data 