500 0 6 0           
7 Unknown 11 ACIS 5.0 NT 24 Fri Mar 26 20:43:32 1999 
-1 9.9999999999999995e-007 1e-010 
body $-1 $6 $-1 $7 #
body $-1 $8 $-1 $9 #
body $-1 $10 $-1 $11 #
body $-1 $12 $-1 $13 #
body $-1 $14 $-1 $15 #
body $-1 $16 $-1 $17 #
lump $-1 $-1 $18 $0 #
transform $-1 1 0 0 0 1 0 0 0 1 51.219824823755609 33.923227465443269 9.8852245493420803 1 rotate no_reflect no_shear #
lump $-1 $-1 $19 $1 #
transform $-1 1 0 0 0 1 0 0 0 1 51.219824823755609 33.923227465443269 9.8852245493420803 1 rotate no_reflect no_shear #
lump $-1 $-1 $20 $2 #
transform $-1 1 0 0 0 1 0 0 0 1 51.219824823755609 33.923227465443269 9.8852245493420803 1 rotate no_reflect no_shear #
lump $-1 $-1 $21 $3 #
transform $-1 1 0 0 0 1 0 0 0 1 51.219824823755609 33.923227465443269 9.8852245493420803 1 rotate no_reflect no_shear #
lump $-1 $-1 $22 $4 #
transform $-1 1 0 0 0 1 0 0 0 1 51.219824823755609 33.923227465443269 9.8852245493420803 1 rotate no_reflect no_shear #
lump $-1 $-1 $23 $5 #
transform $-1 1 0 0 0 1 0 0 0 1 51.219824823755609 33.923227465443269 9.8852245493420803 1 rotate no_reflect no_shear #
shell $-1 $-1 $-1 $24 $-1 $6 #
shell $-1 $-1 $-1 $25 $-1 $8 #
shell $-1 $-1 $-1 $26 $-1 $10 #
shell $-1 $-1 $-1 $27 $-1 $12 #
shell $-1 $-1 $-1 $28 $-1 $14 #
shell $-1 $-1 $-1 $29 $-1 $16 #
face $-1 $30 $31 $18 $-1 $32 forward single #
face $-1 $33 $34 $19 $-1 $35 reversed single #
face $-1 $36 $37 $20 $-1 $38 reversed single #
face $-1 $39 $40 $21 $-1 $41 forward single #
face $-1 $42 $43 $22 $-1 $44 forward single #
face $-1 $45 $46 $23 $-1 $47 forward single #
face $-1 $48 $49 $18 $-1 $50 reversed single #
loop $-1 $-1 $51 $24 #
plane-surface $-1 0 0 9.8852245493420803 0 0 1 1 0 0 forward_v I I I I #
face $-1 $52 $53 $19 $-1 $54 reversed single #
loop $-1 $-1 $55 $25 #
plane-surface $-1 0 -28.080334814169344 6.7108628515031779 0 0 1 1 0 0 forward_v I I I I #
face $-1 $56 $57 $20 $-1 $58 reversed single #
loop $-1 $-1 $59 $26 #
plane-surface $-1 71.382048505193296 -5.4370845649549793 149.09894323374056 0 -1 0 -0.79863551827123203 0 -0.60181501223851219 forward_v I I I I #
face $-1 $60 $61 $21 $-1 $62 forward single #
loop $-1 $63 $64 $27 #
cone-surface $-1 49.216348178667516 -12.375273005102045 7.4576089303014346 -0.79863551827123203 0 -0.60181501223851219 0.3009075061192561 0 -0.39931775913561601 1 I I 0 1 0.5 forward I I I I #
face $-1 $65 $66 $22 $-1 $67 forward single #
loop $-1 $68 $69 $28 #
cone-surface $-1 49.216348178667516 -9.7734523400468944 7.4576089303014346 -0.79863551827123203 0 -0.60181501223851219 0.3009075061192561 0 -0.39931775913561601 1 I I 0 1 0.5 forward I I I I #
face $-1 $70 $71 $23 $-1 $72 forward single #
loop $-1 $73 $74 $29 #
cone-surface $-1 49.216348178667516 -7.1716316749917439 7.4576089303014346 -0.79863551827123203 0 -0.60181501223851219 0.3009075061192561 0 -0.39931775913561601 1 I I 0 1 0.5 forward I I I I #
face $-1 $75 $76 $18 $-1 $77 reversed single #
loop $-1 $-1 $78 $30 #
plane-surface $-1 0 0 -9.8852245493420803 0 0 1 1 0 0 forward_v I I I I #
coedge $-1 $79 $80 $81 $82 forward $31 $-1 #
face $-1 $83 $84 $19 $-1 $85 reversed single #
loop $-1 $-1 $86 $33 #
plane-surface $-1 0 -22.23744216289542 8.2980437004226282 0 -1 0 0 0 -1 forward_v I I I I #
coedge $-1 $87 $88 $89 $90 reversed $34 $-1 #
face $-1 $91 $92 $20 $-1 $93 reversed single #
loop $-1 $-1 $94 $36 #
plane-surface $-1 -10.429894182570251 -9.7734523400468944 87.449224227414689 0.79863551827123203 0 0.60181501223851219 0.60181501223851219 0 -0.79863551827123203 forward_v I I I I #
coedge $-1 $95 $96 $97 $98 reversed $37 $-1 #
face $-1 $-1 $99 $21 $-1 $100 forward single #
loop $-1 $101 $102 $39 #
cone-surface $-1 48.613739938284887 -12.375273005102045 7.0035110630466342 -0.79863551827123203 0 -0.60181501223851219 0.15045375305962805 0 -0.19965887956780801 1 I I -0.70710678118654746 0.70710678118654746 0.25 forward I I I I #
loop $-1 $-1 $103 $27 #
coedge $-1 $64 $64 $104 $105 reversed $40 $-1 #
face $-1 $-1 $106 $22 $-1 $107 forward single #
loop $-1 $108 $109 $42 #
cone-surface $-1 48.613739938284887 -9.7734523400468944 7.0035110630466342 -0.79863551827123203 0 -0.60181501223851219 0.15045375305962805 0 -0.19965887956780801 1 I I -0.70710678118654746 0.70710678118654746 0.25 forward I I I I #
loop $-1 $-1 $110 $28 #
coedge $-1 $69 $69 $111 $112 reversed $43 $-1 #
face $-1 $-1 $113 $23 $-1 $114 forward single #
loop $-1 $115 $116 $45 #
cone-surface $-1 48.613739938284887 -7.1716316749917439 7.0035110630466342 -0.79863551827123203 0 -0.60181501223851219 0.15045375305962805 0 -0.19965887956780801 1 I I -0.70710678118654746 0.70710678118654746 0.25 forward I I I I #
loop $-1 $-1 $117 $29 #
coedge $-1 $74 $74 $118 $119 reversed $46 $-1 #
face $-1 $120 $121 $18 $-1 $122 reversed single #
loop $-1 $-1 $123 $48 #
plane-surface $-1 0 -33.923227465443269 0 0 1 0 0 0 1 forward_v I I I I #
coedge $-1 $124 $125 $126 $127 forward $49 $-1 #
coedge $-1 $128 $51 $129 $130 forward $31 $-1 #
coedge $-1 $51 $128 $131 $132 forward $31 $-1 #
coedge $-1 $133 $134 $51 $82 reversed $135 $-1 #
edge $-1 $136 -33.923227465443269 $137 33.923227465443269 $81 $138 forward 7 unknown #
face $-1 $139 $140 $19 $-1 $141 reversed single #
loop $-1 $-1 $142 $52 #
plane-surface $-1 -51.219824823755609 0 0 1 0 0 0 0 -1 forward_v I I I I #
coedge $-1 $143 $144 $145 $146 reversed $53 $-1 #
coedge $-1 $147 $55 $148 $149 reversed $34 $-1 #
coedge $-1 $55 $147 $143 $150 forward $34 $-1 #
coedge $-1 $145 $151 $55 $90 forward $152 $-1 #
edge $-1 $153 -19.883060058358595 $154 -8.1972747558107475 $89 $155 forward 7 unknown #
face $-1 $156 $157 $20 $-1 $158 reversed single #
loop $-1 $-1 $159 $56 #
plane-surface $-1 71.382048505193296 -14.10982011513881 149.09894323374056 0 1 0 0.79863551827123203 0 0.60181501223851219 forward_v I I I I #
coedge $-1 $160 $161 $162 $163 reversed $57 $-1 #
coedge $-1 $96 $59 $164 $165 reversed $37 $-1 #
coedge $-1 $59 $95 $160 $166 reversed $37 $-1 #
coedge $-1 $162 $167 $59 $98 forward $168 $-1 #
edge $-1 $169 -15.528800571158961 $170 -12.327746002612429 $97 $171 forward 7 unknown #
loop $-1 $-1 $104 $60 #
plane-surface $-1 -10.429894182570251 -9.7734523400468944 87.449224227414689 0.79863551827123203 0 0.60181501223851219 0.60181501223851219 0 -0.79863551827123203 forward_v I I I I #
loop $-1 $-1 $172 $39 #
coedge $-1 $102 $102 $103 $173 reversed $61 $-1 #
coedge $-1 $103 $103 $102 $173 forward $63 $-1 #
coedge $-1 $104 $104 $64 $105 forward $99 $-1 #
edge $-1 $174 0 $174 6.2831853071796004 $104 $175 forward 7 unknown #
loop $-1 $-1 $111 $65 #
plane-surface $-1 -10.429894182570251 -9.7734523400468944 87.449224227414689 0.79863551827123203 0 0.60181501223851219 0.60181501223851219 0 -0.79863551827123203 forward_v I I I I #
loop $-1 $-1 $176 $42 #
coedge $-1 $109 $109 $110 $177 reversed $66 $-1 #
coedge $-1 $110 $110 $109 $177 forward $68 $-1 #
coedge $-1 $111 $111 $69 $112 forward $106 $-1 #
edge $-1 $178 0 $178 6.2831853071796004 $111 $179 forward 7 unknown #
loop $-1 $-1 $118 $70 #
plane-surface $-1 -10.429894182570251 -9.7734523400468944 87.449224227414689 0.79863551827123203 0 0.60181501223851219 0.60181501223851219 0 -0.79863551827123203 forward_v I I I I #
loop $-1 $-1 $180 $45 #
coedge $-1 $116 $116 $117 $181 reversed $71 $-1 #
coedge $-1 $117 $117 $116 $181 forward $73 $-1 #
coedge $-1 $118 $118 $74 $119 forward $113 $-1 #
edge $-1 $182 0 $182 6.2831853071796004 $118 $183 forward 7 unknown #
face $-1 $184 $185 $18 $-1 $186 reversed single #
loop $-1 $-1 $187 $75 #
plane-surface $-1 -51.219824823755609 0 0 1 0 0 0 0 -1 forward_v I I I I #
coedge $-1 $188 $131 $189 $190 forward $76 $-1 #
coedge $-1 $191 $78 $188 $192 forward $49 $-1 #
coedge $-1 $78 $191 $193 $194 forward $49 $-1 #
coedge $-1 $134 $133 $78 $127 reversed $135 $-1 #
edge $-1 $195 -33.923227465443269 $196 33.923227465443269 $126 $197 forward 7 unknown #
coedge $-1 $80 $79 $198 $199 forward $31 $-1 #
coedge $-1 $200 $201 $79 $130 reversed $185 $-1 #
edge $-1 $137 -51.219824823755609 $202 51.219824823755609 $129 $203 forward 7 unknown #
coedge $-1 $123 $204 $80 $132 reversed $76 $-1 #
edge $-1 $205 -51.219824823755609 $136 51.219824823755609 $131 $206 forward 7 unknown #
coedge $-1 $126 $81 $204 $207 forward $135 $-1 #
coedge $-1 $81 $126 $200 $208 reversed $135 $-1 #
loop $-1 $-1 $133 $184 #
vertex $-1 $82 $209 #
vertex $-1 $82 $210 #
straight-curve $-1 51.219824823755609 0 9.8852245493420803 0 1 0 I I #
face $-1 $211 $212 $19 $-1 $213 forward single #
loop $-1 $-1 $148 $83 #
plane-surface $-1 0 -33.923227465443269 0 0 1 0 0 0 1 forward_v I I I I #
coedge $-1 $214 $215 $216 $217 forward $84 $-1 #
coedge $-1 $216 $86 $88 $150 reversed $53 $-1 #
coedge $-1 $86 $216 $218 $219 reversed $53 $-1 #
coedge $-1 $220 $89 $86 $146 forward $152 $-1 #
edge $-1 $154 2.5618410012918638 $221 5.7362026991307644 $145 $222 forward 7 unknown #
coedge $-1 $88 $87 $214 $223 reversed $34 $-1 #
coedge $-1 $224 $225 $87 $149 forward $140 $-1 #
edge $-1 $226 -51.219824823755609 $153 51.219824823755609 $148 $227 forward 7 unknown #
edge $-1 $228 -51.219824823755609 $154 51.219824823755609 $143 $229 forward 7 unknown #
coedge $-1 $89 $220 $224 $230 forward $152 $-1 #
loop $-1 $-1 $145 $211 #
vertex $-1 $149 $231 #
vertex $-1 $90 $232 #
straight-curve $-1 51.219824823755609 -14.040167407084672 6.7108628515031779 0 1 0 I I #
face $-1 $-1 $168 $20 $-1 $233 forward single #
loop $-1 $-1 $234 $91 #
plane-surface $-1 51.219824823755609 0 0 -1 0 0 0 0 1 forward_v I I I I #
coedge $-1 $235 $236 $237 $238 reversed $92 $-1 #
coedge $-1 $239 $94 $96 $166 forward $57 $-1 #
coedge $-1 $94 $239 $235 $240 forward $57 $-1 #
coedge $-1 $237 $97 $94 $163 forward $168 $-1 #
edge $-1 $170 0.55035839493153205 $241 9.2230939451153624 $162 $242 forward 7 unknown #
coedge $-1 $243 $244 $95 $165 forward $157 $-1 #
edge $-1 $245 -68.912190077219137 $169 -64.664247067528194 $164 $246 forward 7 unknown #
edge $-1 $170 97.120648786034053 $245 102.4396496475112 $96 $247 forward 7 unknown #
coedge $-1 $97 $237 $243 $248 forward $168 $-1 #
loop $-1 $-1 $237 $156 #
vertex $-1 $165 $249 #
vertex $-1 $98 $250 #
straight-curve $-1 35.691024252596648 -5.4370845649549793 9.8852245493420838 -1 0 0 I I #
coedge $-1 $172 $172 $-1 $251 reversed $101 $-1 #
edge $-1 $252 0 $252 6.2831853071796004 $102 $253 forward 7 unknown #
vertex $-1 $105 $254 #
ellipse-curve $-1 49.619297539482339 -12.375273005102045 7.7612530444966108 0.79863551827123203 0 0.60181501223851219 0.3009075061192561 0 -0.39931775913561601 1 I I #
coedge $-1 $176 $176 $-1 $255 reversed $108 $-1 #
edge $-1 $256 0 $256 6.2831853071796004 $109 $257 forward 7 unknown #
vertex $-1 $112 $258 #
ellipse-curve $-1 49.619297539482339 -9.7734523400468944 7.7612530444966108 0.79863551827123203 0 0.60181501223851219 0.3009075061192561 0 -0.39931775913561601 1 I I #
coedge $-1 $180 $180 $-1 $259 reversed $115 $-1 #
edge $-1 $260 0 $260 6.2831853071796004 $116 $261 forward 7 unknown #
vertex $-1 $119 $262 #
ellipse-curve $-1 49.619297539482339 -7.1716316749917439 7.7612530444966108 0.79863551827123203 0 0.60181501223851219 0.3009075061192561 0 -0.39931775913561601 1 I I #
face $-1 $-1 $135 $18 $-1 $263 reversed single #
loop $-1 $-1 $200 $120 #
plane-surface $-1 0 33.923227465443269 0 0 -1 0 0 0 -1 forward_v I I I I #
coedge $-1 $264 $198 $201 $265 forward $121 $-1 #
coedge $-1 $204 $123 $124 $192 reversed $76 $-1 #
coedge $-1 $198 $264 $123 $190 reversed $121 $-1 #
edge $-1 $205 -9.8852245493420803 $266 9.8852245493420803 $189 $267 forward 7 unknown #
coedge $-1 $125 $124 $264 $268 forward $49 $-1 #
edge $-1 $196 -51.219824823755609 $266 51.219824823755609 $188 $269 forward 7 unknown #
coedge $-1 $201 $200 $125 $194 reversed $185 $-1 #
edge $-1 $270 -51.219824823755609 $195 51.219824823755609 $193 $271 forward 7 unknown #
vertex $-1 $127 $272 #
vertex $-1 $207 $273 #
straight-curve $-1 51.219824823755609 0 -9.8852245493420803 0 -1 0 I I #
coedge $-1 $187 $189 $128 $199 reversed $121 $-1 #
edge $-1 $202 -33.923227465443269 $205 33.923227465443269 $198 $274 forward 7 unknown #
coedge $-1 $193 $129 $134 $208 forward $185 $-1 #
coedge $-1 $129 $193 $187 $265 reversed $185 $-1 #
vertex $-1 $130 $275 #
straight-curve $-1 0 33.923227465443269 9.8852245493420803 -1 0 0 I I #
coedge $-1 $131 $188 $133 $207 reversed $76 $-1 #
vertex $-1 $199 $276 #
straight-curve $-1 0 -33.923227465443269 9.8852245493420803 1 0 0 I I #
edge $-1 $136 -9.8852245493420803 $196 9.8852245493420803 $133 $277 forward 7 unknown #
edge $-1 $137 -9.8852245493420803 $195 9.8852245493420803 $134 $278 forward 7 unknown #
point $-1 51.219824823755609 -33.923227465443269 9.8852245493420803 #
point $-1 51.219824823755609 33.923227465443269 9.8852245493420803 #
face $-1 $-1 $152 $19 $-1 $279 reversed single #
loop $-1 $-1 $218 $139 #
plane-surface $-1 0 0 9.8852245493420803 0 0 1 1 0 0 forward_v I I I I #
coedge $-1 $280 $142 $147 $223 forward $84 $-1 #
coedge $-1 $142 $280 $281 $282 reversed $84 $-1 #
coedge $-1 $144 $143 $142 $217 reversed $53 $-1 #
edge $-1 $283 -5.7362026991307644 $228 -2.5618410012918638 $142 $284 forward 7 unknown #
coedge $-1 $281 $285 $144 $219 forward $212 $-1 #
edge $-1 $221 -51.219824823755609 $283 51.219824823755609 $218 $286 forward 7 unknown #
coedge $-1 $151 $145 $285 $287 reversed $152 $-1 #
vertex $-1 $146 $288 #
straight-curve $-1 51.219824823755609 -22.23744216289542 4.1490218502113141 0 0 1 I I #
edge $-1 $228 8.1972747558107475 $226 19.883060058358595 $214 $289 forward 7 unknown #
coedge $-1 $290 $148 $151 $230 reversed $140 $-1 #
coedge $-1 $148 $290 $280 $291 forward $140 $-1 #
vertex $-1 $149 $292 #
straight-curve $-1 0 -33.923227465443269 6.7108628515031779 1 0 0 I I #
vertex $-1 $223 $293 #
straight-curve $-1 0 -22.23744216289542 6.7108628515031779 1 0 0 I I #
edge $-1 $294 -9.8852245493420803 $153 -6.7108628515031779 $151 $295 forward 7 unknown #
point $-1 51.219824823755609 -33.923227465443269 6.7108628515031779 #
point $-1 51.219824823755609 -22.23744216289542 6.7108628515031779 #
plane-surface $-1 0 0 9.8852245493420803 0 0 1 1 0 0 forward_v I I I I #
coedge $-1 $244 $243 $236 $296 forward $157 $-1 #
coedge $-1 $236 $159 $161 $240 reversed $92 $-1 #
coedge $-1 $159 $235 $234 $296 reversed $92 $-1 #
coedge $-1 $167 $162 $159 $238 forward $168 $-1 #
edge $-1 $241 12.327746002612429 $297 15.528800571158961 $237 $298 forward 7 unknown #
coedge $-1 $161 $160 $244 $299 reversed $57 $-1 #
edge $-1 $300 -102.4396496475112 $241 -97.120648786034053 $235 $301 forward 7 unknown #
vertex $-1 $163 $302 #
straight-curve $-1 48.018770255209077 -4.8867261700234472 9.8852245493420838 0 -1 0 I I #
coedge $-1 $234 $164 $167 $248 reversed $157 $-1 #
coedge $-1 $164 $234 $239 $299 forward $157 $-1 #
vertex $-1 $165 $303 #
straight-curve $-1 51.219824823755609 -5.4370845649549793 74.549471616870278 0 0 1 I I #
straight-curve $-1 -10.429894182570251 -5.4370845649549793 87.449224227414689 0.60181501223851219 0 -0.79863551827123203 I I #
edge $-1 $297 -14.10982011513881 $169 -5.4370845649549793 $243 $304 forward 7 unknown #
point $-1 51.219824823755609 -5.4370845649549793 9.8852245493420803 #
point $-1 48.018770255209077 -5.4370845649549793 9.8852245493420838 #
edge $-1 $305 1 $305 0 $172 $-1 forward 7 unknown #
vertex $-1 $173 $306 #
ellipse-curve $-1 48.813398817852693 -12.375273005102045 7.1539648161062619 0.79863551827123203 0 0.60181501223851219 0.3009075061192561 0 -0.39931775913561601 1 I I #
point $-1 49.920205045601584 -12.375273005102045 7.3619352853609898 #
edge $-1 $307 1 $307 0 $176 $-1 forward 7 unknown #
vertex $-1 $177 $308 #
ellipse-curve $-1 48.813398817852693 -9.7734523400468944 7.1539648161062619 0.79863551827123203 0 0.60181501223851219 0.3009075061192561 0 -0.39931775913561601 1 I I #
point $-1 49.920205045601584 -9.7734523400468944 7.3619352853609898 #
edge $-1 $309 1 $309 0 $180 $-1 forward 7 unknown #
vertex $-1 $181 $310 #
ellipse-curve $-1 48.813398817852693 -7.1716316749917439 7.1539648161062619 0.79863551827123203 0 0.60181501223851219 0.3009075061192561 0 -0.39931775913561601 1 I I #
point $-1 49.920205045601584 -7.1716316749917439 7.3619352853609898 #
plane-surface $-1 51.219824823755609 0 0 -1 0 0 0 0 1 forward_v I I I I #
coedge $-1 $189 $187 $191 $268 reversed $121 $-1 #
edge $-1 $202 -9.8852245493420803 $270 9.8852245493420803 $201 $311 forward 7 unknown #
vertex $-1 $268 $312 #
straight-curve $-1 -51.219824823755609 -33.923227465443269 0 0 0 -1 I I #
edge $-1 $266 -33.923227465443269 $270 33.923227465443269 $264 $313 forward 7 unknown #
straight-curve $-1 0 -33.923227465443269 -9.8852245493420803 -1 0 0 I I #
vertex $-1 $194 $314 #
straight-curve $-1 0 33.923227465443269 -9.8852245493420803 1 0 0 I I #
point $-1 51.219824823755609 33.923227465443269 -9.8852245493420803 #
point $-1 51.219824823755609 -33.923227465443269 -9.8852245493420803 #
straight-curve $-1 -51.219824823755609 0 9.8852245493420803 0 -1 0 I I #
point $-1 -51.219824823755609 33.923227465443269 9.8852245493420803 #
point $-1 -51.219824823755609 -33.923227465443269 9.8852245493420803 #
straight-curve $-1 51.219824823755609 -33.923227465443269 0 0 0 -1 I I #
straight-curve $-1 51.219824823755609 33.923227465443269 0 0 0 -1 I I #
plane-surface $-1 51.219824823755609 0 0 -1 0 0 0 0 1 forward_v I I I I #
coedge $-1 $215 $214 $225 $291 reversed $84 $-1 #
coedge $-1 $315 $218 $215 $282 forward $212 $-1 #
edge $-1 $283 22.23744216289542 $316 33.923227465443269 $215 $317 forward 7 unknown #
vertex $-1 $282 $318 #
straight-curve $-1 -51.219824823755609 -22.23744216289542 4.1490218502113141 0 0 -1 I I #
coedge $-1 $218 $315 $220 $287 forward $212 $-1 #
straight-curve $-1 0 -22.23744216289542 9.8852245493420803 -1 0 0 I I #
edge $-1 $294 -33.923227465443269 $221 -22.23744216289542 $220 $319 forward 7 unknown #
point $-1 51.219824823755609 -22.23744216289542 9.8852245493420785 #
straight-curve $-1 -51.219824823755609 -14.040167407084672 6.7108628515031779 0 -1 0 I I #
coedge $-1 $225 $224 $315 $320 reversed $140 $-1 #
edge $-1 $316 -9.8852245493420803 $226 -6.7108628515031779 $280 $321 forward 7 unknown #
point $-1 -51.219824823755609 -33.923227465443269 6.7108628515031779 #
point $-1 -51.219824823755609 -22.23744216289542 6.7108628515031779 #
vertex $-1 $287 $322 #
straight-curve $-1 51.219824823755609 -33.923227465443269 0 0 0 -1 I I #
edge $-1 $297 64.664247067528194 $300 68.912190077219137 $234 $323 forward 7 unknown #
vertex $-1 $248 $324 #
straight-curve $-1 35.691024252596648 -14.10982011513881 9.8852245493420838 1 0 0 I I #
edge $-1 $300 -9.2230939451153624 $245 -0.55035839493153205 $244 $325 forward 7 unknown #
vertex $-1 $299 $326 #
straight-curve $-1 -10.429894182570251 -14.10982011513881 87.449224227414689 -0.60181501223851219 0 0.79863551827123203 I I #
point $-1 48.018770255209077 -14.10982011513881 9.8852245493420838 #
point $-1 51.219824823755602 -5.4370845649549793 5.6372815396511413 #
straight-curve $-1 51.219824823755609 0 9.8852245493420803 0 1 0 I I #
vertex $-1 $251 $327 #
point $-1 49.114306323971952 -12.375273005102045 6.7546470569706463 #
vertex $-1 $255 $328 #
point $-1 49.114306323971952 -9.7734523400468944 6.7546470569706463 #
vertex $-1 $259 $329 #
point $-1 49.114306323971952 -7.1716316749917439 6.7546470569706463 #
straight-curve $-1 -51.219824823755609 33.923227465443269 0 0 0 -1 I I #
point $-1 -51.219824823755609 -33.923227465443269 -9.8852245493420803 #
straight-curve $-1 -51.219824823755609 0 -9.8852245493420803 0 1 0 I I #
point $-1 -51.219824823755609 33.923227465443269 -9.8852245493420803 #
coedge $-1 $285 $281 $290 $320 forward $212 $-1 #
vertex $-1 $282 $330 #
straight-curve $-1 -51.219824823755609 0 9.8852245493420803 0 -1 0 I I #
point $-1 -51.219824823755609 -22.23744216289542 9.8852245493420785 #
straight-curve $-1 51.219824823755609 0 9.8852245493420803 0 1 0 I I #
edge $-1 $316 -51.219824823755609 $294 51.219824823755609 $290 $331 forward 7 unknown #
straight-curve $-1 -51.219824823755609 -33.923227465443269 0 0 0 -1 I I #
point $-1 51.219824823755609 -33.923227465443269 9.8852245493420803 #
straight-curve $-1 51.219824823755609 -14.10982011513881 74.549471616870278 0 0 -1 I I #
point $-1 51.219824823755609 -14.10982011513881 9.8852245493420803 #
straight-curve $-1 51.219824823755602 -4.8867261700234472 5.6372815396511484 0 1 0 I I #
point $-1 51.219824823755602 -14.10982011513881 5.6372815396511413 #
point $-1 48.41408105871708 -12.375273005102045 6.8530573099870065 #
point $-1 48.41408105871708 -9.7734523400468944 6.8530573099870065 #
point $-1 48.41408105871708 -7.1716316749917439 6.8530573099870065 #
point $-1 -51.219824823755609 -33.923227465443269 9.8852245493420803 #
straight-curve $-1 0 -33.923227465443269 9.8852245493420803 1 0 0 I I #
End-of-ACIS-data 