500 0 3 0           
7 Unknown 11 ACIS 5.0 NT 24 Fri Mar 26 14:49:48 1999 
-1 9.9999999999999995e-007 1e-010 
body $-1 $3 $-1 $4 #
body $-1 $5 $-1 $6 #
body $-1 $7 $-1 $8 #
lump $-1 $-1 $9 $0 #
transform $-1 1 0 0 0 1 0 0 0 1 51.924192022461625 30.036545381882792 11.943209513413272 1 rotate no_reflect no_shear #
lump $-1 $-1 $10 $1 #
transform $-1 1 0 0 0 1 0 0 0 1 51.924192022461625 30.036545381882792 11.943209513413272 1 rotate no_reflect no_shear #
lump $-1 $-1 $11 $2 #
transform $-1 1 0 0 0 1 0 0 0 1 51.924192022461625 30.036545381882792 11.943209513413272 1 rotate no_reflect no_shear #
shell $-1 $-1 $-1 $12 $-1 $3 #
shell $-1 $-1 $-1 $13 $-1 $5 #
shell $-1 $-1 $-1 $14 $-1 $7 #
face $-1 $15 $16 $9 $-1 $17 forward single #
face $-1 $18 $19 $10 $-1 $20 forward single #
face $-1 $21 $22 $11 $-1 $23 reversed single #
face $-1 $24 $25 $9 $-1 $26 reversed single #
loop $-1 $-1 $27 $12 #
plane-surface $-1 0 0 11.943209513413272 0 0 1 1 0 0 forward_v I I I I #
face $-1 $28 $29 $10 $-1 $30 reversed single #
loop $-1 $-1 $31 $13 #
plane-surface $-1 -51.924192022461625 0 0 1 0 0 0 0 -1 forward_v I I I I #
face $-1 $32 $33 $11 $-1 $34 reversed single #
loop $-1 $-1 $35 $14 #
plane-surface $-1 44.975297616414665 -12.754155893608134 0 0 1 0 0 0 1 forward_v I I I I #
face $-1 $36 $37 $9 $-1 $38 reversed single #
loop $-1 $-1 $39 $15 #
plane-surface $-1 0 0 -11.943209513413272 0 0 1 1 0 0 forward_v I I I I #
coedge $-1 $40 $41 $42 $43 forward $16 $-1 #
face $-1 $44 $45 $10 $-1 $46 forward single #
loop $-1 $-1 $47 $18 #
plane-surface $-1 0 30.036545381882792 0 0 -1 0 0 0 -1 forward_v I I I I #
coedge $-1 $48 $49 $50 $51 forward $19 $-1 #
face $-1 $52 $53 $11 $-1 $54 reversed single #
loop $-1 $-1 $55 $21 #
plane-surface $-1 38.026403210367704 -9.45214112433219 0 1 0 0 0 0 -1 forward_v I I I I #
coedge $-1 $56 $57 $58 $59 forward $22 $-1 #
face $-1 $60 $61 $9 $-1 $62 reversed single #
loop $-1 $-1 $63 $24 #
plane-surface $-1 0 -30.036545381882792 0 0 1 0 0 0 1 forward_v I I I I #
coedge $-1 $64 $65 $66 $67 forward $25 $-1 #
coedge $-1 $68 $27 $69 $70 forward $16 $-1 #
coedge $-1 $27 $68 $71 $72 forward $16 $-1 #
coedge $-1 $73 $74 $27 $43 reversed $75 $-1 #
edge $-1 $76 -30.036545381882792 $77 30.036545381882792 $42 $78 forward 7 unknown #
face $-1 $79 $80 $10 $-1 $81 reversed single #
loop $-1 $-1 $50 $28 #
plane-surface $-1 -56.40202628383939 0 -6.5335373750979819 0 0 1 1 0 0 forward_v I I I I #
coedge $-1 $82 $83 $49 $84 forward $29 $-1 #
coedge $-1 $85 $31 $86 $87 reversed $19 $-1 #
coedge $-1 $31 $85 $47 $84 reversed $19 $-1 #
coedge $-1 $88 $89 $31 $51 reversed $45 $-1 #
edge $-1 $90 -30.036545381882792 $91 30.036545381882792 $50 $92 forward 7 unknown #
face $-1 $93 $94 $11 $-1 $95 forward single #
loop $-1 $-1 $96 $32 #
plane-surface $-1 44.975297616414665 -6.1501263550562459 0 0 -1 0 0 0 -1 forward_v I I I I #
coedge $-1 $97 $98 $99 $100 forward $33 $-1 #
coedge $-1 $101 $35 $102 $103 reversed $22 $-1 #
coedge $-1 $35 $101 $104 $105 reversed $22 $-1 #
coedge $-1 $98 $97 $35 $59 reversed $33 $-1 #
edge $-1 $106 -11.943209513413272 $107 11.943209513413272 $58 $108 forward 7 unknown #
face $-1 $109 $110 $9 $-1 $111 reversed single #
loop $-1 $-1 $112 $36 #
plane-surface $-1 -51.924192022461625 0 0 1 0 0 0 0 -1 forward_v I I I I #
coedge $-1 $113 $71 $112 $114 forward $37 $-1 #
coedge $-1 $115 $39 $113 $116 forward $25 $-1 #
coedge $-1 $39 $115 $117 $118 forward $25 $-1 #
coedge $-1 $74 $73 $39 $67 reversed $75 $-1 #
edge $-1 $119 -30.036545381882792 $120 30.036545381882792 $66 $121 forward 7 unknown #
coedge $-1 $41 $40 $122 $123 forward $16 $-1 #
coedge $-1 $124 $125 $40 $70 reversed $110 $-1 #
edge $-1 $77 -51.924192022461625 $126 51.924192022461625 $69 $127 forward 7 unknown #
coedge $-1 $63 $128 $41 $72 reversed $37 $-1 #
edge $-1 $129 -51.924192022461625 $76 51.924192022461625 $71 $130 forward 7 unknown #
coedge $-1 $66 $42 $128 $131 forward $75 $-1 #
coedge $-1 $42 $66 $124 $132 reversed $75 $-1 #
loop $-1 $-1 $73 $109 #
vertex $-1 $43 $133 #
vertex $-1 $43 $134 #
straight-curve $-1 51.924192022461625 0 11.943209513413272 0 1 0 I I #
face $-1 $135 $136 $10 $-1 $137 reversed single #
loop $-1 $-1 $138 $44 #
plane-surface $-1 -60.879860545217156 0 -9.2383734442556271 1 0 0 0 0 -1 forward_v I I I I #
coedge $-1 $139 $47 $140 $141 reversed $29 $-1 #
coedge $-1 $47 $139 $88 $142 reversed $29 $-1 #
edge $-1 $90 6.5335373750979819 $143 11.943209513413272 $47 $144 forward 7 unknown #
coedge $-1 $49 $48 $145 $146 reversed $19 $-1 #
coedge $-1 $147 $148 $48 $87 forward $149 $-1 #
edge $-1 $150 -11.943209513413272 $91 -6.5335373750979819 $86 $151 forward 7 unknown #
coedge $-1 $152 $50 $83 $142 forward $45 $-1 #
coedge $-1 $50 $152 $147 $153 forward $45 $-1 #
vertex $-1 $84 $154 #
vertex $-1 $153 $155 #
straight-curve $-1 -51.924192022461625 0 -6.5335373750979819 0 -1 0 I I #
face $-1 $156 $157 $11 $-1 $158 reversed single #
loop $-1 $-1 $159 $52 #
plane-surface $-1 0 0 11.943209513413272 0 0 1 1 0 0 forward_v I I I I #
coedge $-1 $160 $161 $162 $163 reversed $53 $-1 #
coedge $-1 $58 $55 $164 $165 reversed $33 $-1 #
coedge $-1 $55 $58 $166 $167 reversed $33 $-1 #
coedge $-1 $161 $160 $55 $100 reversed $53 $-1 #
edge $-1 $168 -11.943209513413272 $169 11.943209513413272 $99 $170 forward 7 unknown #
coedge $-1 $57 $56 $171 $172 reversed $22 $-1 #
coedge $-1 $164 $173 $56 $103 forward $157 $-1 #
edge $-1 $174 -29.436543214254293 $107 -15.538754402160372 $102 $175 forward 7 unknown #
coedge $-1 $176 $166 $57 $105 forward $94 $-1 #
edge $-1 $106 15.538754402160372 $177 29.436543214254293 $104 $178 forward 7 unknown #
vertex $-1 $105 $179 #
vertex $-1 $103 $180 #
straight-curve $-1 38.026403210367704 -12.754155893608134 0 0 0 -1 I I #
face $-1 $-1 $75 $9 $-1 $181 reversed single #
loop $-1 $-1 $124 $60 #
plane-surface $-1 0 30.036545381882792 0 0 -1 0 0 0 -1 forward_v I I I I #
coedge $-1 $122 $182 $63 $114 reversed $61 $-1 #
coedge $-1 $128 $63 $64 $116 reversed $37 $-1 #
edge $-1 $129 -11.943209513413272 $183 11.943209513413272 $112 $184 forward 7 unknown #
coedge $-1 $65 $64 $182 $185 forward $25 $-1 #
edge $-1 $120 -51.924192022461625 $183 51.924192022461625 $113 $186 forward 7 unknown #
coedge $-1 $125 $124 $65 $118 reversed $110 $-1 #
edge $-1 $187 -51.924192022461625 $119 51.924192022461625 $117 $188 forward 7 unknown #
vertex $-1 $67 $189 #
vertex $-1 $131 $190 #
straight-curve $-1 51.924192022461625 0 -11.943209513413272 0 -1 0 I I #
coedge $-1 $191 $112 $68 $123 reversed $61 $-1 #
edge $-1 $126 -30.036545381882792 $129 30.036545381882792 $122 $192 forward 7 unknown #
coedge $-1 $117 $69 $74 $132 forward $110 $-1 #
coedge $-1 $69 $117 $191 $193 reversed $110 $-1 #
vertex $-1 $70 $194 #
straight-curve $-1 0 30.036545381882792 11.943209513413272 -1 0 0 I I #
coedge $-1 $71 $113 $73 $131 reversed $37 $-1 #
vertex $-1 $123 $195 #
straight-curve $-1 0 -30.036545381882792 11.943209513413272 1 0 0 I I #
edge $-1 $76 -11.943209513413272 $120 11.943209513413272 $73 $196 forward 7 unknown #
edge $-1 $77 -11.943209513413272 $119 11.943209513413272 $74 $197 forward 7 unknown #
point $-1 51.924192022461625 -30.036545381882792 11.943209513413272 #
point $-1 51.924192022461625 30.036545381882792 11.943209513413272 #
face $-1 $-1 $149 $10 $-1 $198 reversed single #
loop $-1 $-1 $145 $79 #
plane-surface $-1 0 0 -11.943209513413272 0 0 1 1 0 0 forward_v I I I I #
coedge $-1 $199 $200 $139 $201 forward $80 $-1 #
coedge $-1 $83 $82 $138 $201 reversed $29 $-1 #
coedge $-1 $145 $202 $82 $141 forward $136 $-1 #
edge $-1 $203 -60.879860545217156 $143 -51.924192022461625 $82 $204 forward 7 unknown #
edge $-1 $90 -4.4778342613777653 $205 4.4778342613777653 $83 $206 forward 7 unknown #
vertex $-1 $84 $207 #
straight-curve $-1 -51.924192022461625 30.036545381882792 0 0 0 -1 I I #
coedge $-1 $208 $140 $85 $146 forward $136 $-1 #
edge $-1 $143 -30.036545381882792 $150 30.036545381882792 $145 $209 forward 7 unknown #
coedge $-1 $210 $86 $89 $153 reversed $149 $-1 #
coedge $-1 $86 $210 $208 $211 reversed $149 $-1 #
loop $-1 $-1 $86 $135 #
vertex $-1 $211 $212 #
straight-curve $-1 -51.924192022461625 -30.036545381882792 0 0 0 1 I I #
coedge $-1 $89 $88 $200 $213 forward $45 $-1 #
edge $-1 $214 -4.4778342613777653 $91 4.4778342613777653 $147 $215 forward 7 unknown #
point $-1 -51.924192022461625 30.036545381882792 -6.5335373750979819 #
point $-1 -51.924192022461625 -30.036545381882792 -6.5335373750979819 #
face $-1 $-1 $216 $11 $-1 $217 reversed single #
loop $-1 $-1 $218 $93 #
plane-surface $-1 0 0 -11.943209513413272 0 0 1 1 0 0 forward_v I I I I #
coedge $-1 $166 $176 $161 $219 forward $94 $-1 #
coedge $-1 $99 $96 $218 $220 reversed $53 $-1 #
coedge $-1 $96 $99 $159 $219 reversed $53 $-1 #
coedge $-1 $221 $222 $96 $163 forward $216 $-1 #
edge $-1 $223 -11.943209513413272 $224 11.943209513413272 $162 $225 forward 7 unknown #
coedge $-1 $218 $102 $97 $165 forward $157 $-1 #
edge $-1 $107 -8.0280853314420391 $169 -1.4240557928901509 $164 $226 forward 7 unknown #
coedge $-1 $104 $159 $98 $167 forward $94 $-1 #
edge $-1 $168 1.4240557928901509 $106 8.0280853314420391 $166 $227 forward 7 unknown #
vertex $-1 $167 $228 #
vertex $-1 $165 $229 #
straight-curve $-1 38.026403210367704 -6.1501263550562459 0 0 0 -1 I I #
coedge $-1 $222 $221 $101 $172 forward $216 $-1 #
edge $-1 $177 -11.943209513413272 $174 11.943209513413272 $171 $230 forward 7 unknown #
coedge $-1 $102 $218 $222 $231 forward $157 $-1 #
vertex $-1 $172 $232 #
straight-curve $-1 22.487648808207332 -12.754155893608134 -11.943209513413272 -1 0 0 I I #
coedge $-1 $159 $104 $221 $233 forward $94 $-1 #
vertex $-1 $233 $234 #
straight-curve $-1 22.487648808207332 -12.754155893608134 11.943209513413272 1 0 0 I I #
point $-1 38.026403210367704 -12.754155893608134 11.943209513413272 #
point $-1 38.026403210367704 -12.754155893608134 -11.943209513413272 #
plane-surface $-1 51.924192022461625 0 0 -1 0 0 0 0 1 forward_v I I I I #
coedge $-1 $112 $191 $115 $185 reversed $61 $-1 #
vertex $-1 $185 $235 #
straight-curve $-1 -51.924192022461625 -30.036545381882792 0 0 0 -1 I I #
edge $-1 $183 -30.036545381882792 $187 30.036545381882792 $182 $236 forward 7 unknown #
straight-curve $-1 0 -30.036545381882792 -11.943209513413272 -1 0 0 I I #
vertex $-1 $118 $237 #
straight-curve $-1 0 30.036545381882792 -11.943209513413272 1 0 0 I I #
point $-1 51.924192022461625 30.036545381882792 -11.943209513413272 #
point $-1 51.924192022461625 -30.036545381882792 -11.943209513413272 #
coedge $-1 $182 $122 $125 $193 forward $61 $-1 #
straight-curve $-1 -51.924192022461625 0 11.943209513413272 0 -1 0 I I #
edge $-1 $126 -11.943209513413272 $187 11.943209513413272 $125 $238 forward 7 unknown #
point $-1 -51.924192022461625 30.036545381882792 11.943209513413272 #
point $-1 -51.924192022461625 -30.036545381882792 11.943209513413272 #
straight-curve $-1 51.924192022461625 -30.036545381882792 0 0 0 -1 I I #
straight-curve $-1 51.924192022461625 30.036545381882792 0 0 0 -1 I I #
plane-surface $-1 0 -30.036545381882792 0 0 1 0 0 0 1 forward_v I I I I #
coedge $-1 $239 $138 $202 $240 reversed $80 $-1 #
coedge $-1 $138 $239 $152 $213 reversed $80 $-1 #
edge $-1 $205 -2.7048360691576452 $203 2.7048360691576452 $139 $241 forward 7 unknown #
coedge $-1 $140 $208 $199 $240 forward $136 $-1 #
vertex $-1 $141 $242 #
straight-curve $-1 0 30.036545381882792 -11.943209513413272 1 0 0 I I #
vertex $-1 $142 $243 #
straight-curve $-1 -56.40202628383939 30.036545381882792 -6.5335373750979819 -1 0 0 I I #
point $-1 -51.924192022461625 30.036545381882792 -11.943209513413272 #
coedge $-1 $202 $145 $148 $211 forward $136 $-1 #
straight-curve $-1 -51.924192022461625 0 -11.943209513413272 0 -1 0 I I #
coedge $-1 $148 $147 $239 $244 forward $149 $-1 #
edge $-1 $150 -4.4778342613777653 $245 4.4778342613777653 $148 $246 forward 7 unknown #
point $-1 -51.924192022461625 -30.036545381882792 -11.943209513413272 #
edge $-1 $205 -30.036545381882792 $214 30.036545381882792 $200 $247 forward 7 unknown #
vertex $-1 $213 $248 #
straight-curve $-1 -56.40202628383939 -30.036545381882792 -6.5335373750979819 1 0 0 I I #
loop $-1 $-1 $162 $156 #
plane-surface $-1 51.924192022461625 0 0 -1 0 0 0 0 1 forward_v I I I I #
coedge $-1 $173 $164 $160 $220 forward $157 $-1 #
edge $-1 $224 -29.436543214254293 $168 -15.538754402160372 $159 $249 forward 7 unknown #
edge $-1 $169 15.538754402160372 $223 29.436543214254293 $218 $250 forward 7 unknown #
coedge $-1 $171 $162 $176 $233 reversed $216 $-1 #
coedge $-1 $162 $171 $173 $231 reversed $216 $-1 #
vertex $-1 $231 $251 #
vertex $-1 $163 $252 #
straight-curve $-1 51.924192022461625 -6.1501263550562459 0 0 0 1 I I #
straight-curve $-1 38.026403210367704 -4.726070562166095 -11.943209513413272 0 1 0 I I #
straight-curve $-1 38.026403210367704 -4.726070562166095 11.943209513413272 0 -1 0 I I #
point $-1 38.026403210367704 -6.1501263550562459 11.943209513413272 #
point $-1 38.026403210367704 -6.1501263550562459 -11.943209513413272 #
straight-curve $-1 51.924192022461625 -12.754155893608134 0 0 0 -1 I I #
edge $-1 $223 6.1501263550562459 $174 12.754155893608134 $222 $253 forward 7 unknown #
point $-1 51.924192022461625 -12.754155893608134 -11.943209513413272 #
edge $-1 $177 -12.754155893608134 $224 -6.1501263550562459 $221 $254 forward 7 unknown #
point $-1 51.924192022461625 -12.754155893608134 11.943209513413272 #
point $-1 -51.924192022461625 -30.036545381882792 -11.943209513413272 #
straight-curve $-1 -51.924192022461625 0 -11.943209513413272 0 1 0 I I #
point $-1 -51.924192022461625 30.036545381882792 -11.943209513413272 #
straight-curve $-1 -51.924192022461625 30.036545381882792 0 0 0 -1 I I #
coedge $-1 $200 $199 $210 $244 reversed $80 $-1 #
edge $-1 $245 -30.036545381882792 $203 30.036545381882792 $199 $255 forward 7 unknown #
straight-curve $-1 -60.879860545217156 30.036545381882792 -9.2383734442556271 0 0 -1 I I #
point $-1 -60.879860545217156 30.036545381882792 -11.943209513413272 #
point $-1 -60.879860545217156 30.036545381882792 -6.5335373750979819 #
edge $-1 $214 -2.7048360691576452 $245 2.7048360691576452 $239 $256 forward 7 unknown #
vertex $-1 $240 $257 #
straight-curve $-1 -56.40202628383939 -30.036545381882792 -11.943209513413272 -1 0 0 I I #
straight-curve $-1 -60.879860545217156 0 -6.5335373750979819 0 -1 0 I I #
point $-1 -60.879860545217156 -30.036545381882792 -6.5335373750979819 #
straight-curve $-1 22.487648808207332 -6.1501263550562459 11.943209513413272 -1 0 0 I I #
straight-curve $-1 22.487648808207332 -6.1501263550562459 -11.943209513413272 1 0 0 I I #
point $-1 51.924192022461625 -6.1501263550562459 -11.943209513413272 #
point $-1 51.924192022461625 -6.1501263550562459 11.943209513413272 #
straight-curve $-1 51.924192022461625 0 -11.943209513413272 0 -1 0 I I #
straight-curve $-1 51.924192022461625 0 11.943209513413272 0 1 0 I I #
straight-curve $-1 -60.879860545217156 0 -11.943209513413272 0 1 0 I I #
straight-curve $-1 -60.879860545217156 -30.036545381882792 -9.2383734442556271 0 0 -1 I I #
point $-1 -60.879860545217156 -30.036545381882792 -11.943209513413272 #
End-of-ACIS-data 