500 0 6 0           
7 Unknown 11 ACIS 5.0 NT 24 Thu Mar 25 20:30:14 1999 
-1 9.9999999999999995e-007 1e-010 
body $-1 $6 $-1 $7 #
body $-1 $8 $-1 $9 #
body $-1 $10 $-1 $11 #
body $-1 $12 $-1 $13 #
body $-1 $14 $-1 $15 #
body $-1 $16 $-1 $17 #
lump $-1 $-1 $18 $0 #
transform $-1 1 0 0 0 1 0 0 0 1 46.451612903225808 28.719138157292399 12.104336240958004 1 rotate no_reflect no_shear #
lump $-1 $-1 $19 $1 #
transform $-1 1 0 0 0 1 0 0 0 1 46.451612903225808 28.719138157292399 12.104336240958004 1 rotate no_reflect no_shear #
lump $-1 $-1 $20 $2 #
transform $-1 1 0 0 0 1 0 0 0 1 46.451612903225808 28.719138157292399 12.104336240958004 1 rotate no_reflect no_shear #
lump $-1 $-1 $21 $3 #
transform $-1 1 0 0 0 1 0 0 0 1 46.451612903225808 28.719138157292399 12.104336240958004 1 rotate no_reflect no_shear #
lump $-1 $-1 $22 $4 #
transform $-1 1 0 0 0 1 0 0 0 1 46.451612903225808 28.719138157292399 12.104336240958004 1 rotate no_reflect no_shear #
lump $-1 $-1 $23 $5 #
transform $-1 1 0 0 0 1 0 0 0 1 46.451612903225808 28.719138157292399 12.104336240958004 1 rotate no_reflect no_shear #
shell $-1 $-1 $-1 $24 $-1 $6 #
shell $-1 $-1 $-1 $25 $-1 $8 #
shell $-1 $-1 $-1 $26 $-1 $10 #
shell $-1 $-1 $-1 $27 $-1 $12 #
shell $-1 $-1 $-1 $28 $-1 $14 #
shell $-1 $-1 $-1 $29 $-1 $16 #
face $-1 $30 $31 $18 $-1 $32 forward single #
face $-1 $33 $34 $19 $-1 $35 reversed single #
face $-1 $36 $37 $20 $-1 $38 reversed single #
face $-1 $39 $40 $21 $-1 $41 forward single #
face $-1 $42 $43 $22 $-1 $44 reversed single #
face $-1 $45 $46 $23 $-1 $47 forward single #
face $-1 $48 $49 $18 $-1 $50 reversed single #
loop $-1 $-1 $51 $24 #
plane-surface $-1 0 0 12.104336240958004 0 0 1 1 0 0 forward_v I I I I #
face $-1 $52 $53 $19 $-1 $54 reversed single #
loop $-1 $-1 $55 $25 #
plane-surface $-1 0 -21.616762701396851 8.4610296639118197 0 0 1 1 0 0 forward_v I I I I #
face $-1 $56 $57 $20 $-1 $58 reversed single #
loop $-1 $-1 $59 $26 #
plane-surface $-1 -108.61600546743415 21.831475250961109 70.086659011027635 0 1 0 -0.66913061440640931 0 0.74314481823134659 forward_v I I I I #
face $-1 $60 $61 $21 $-1 $62 forward single #
loop $-1 $63 $64 $27 #
cone-surface $-1 -39.445024098264646 25.275306704126749 5.613558738813234 0.66913061440640931 0 -0.74314481823134659 1.1147172273470198 0 1.003695921609614 1 I I 0 1 1.5 forward I I I I #
face $-1 $65 $66 $22 $-1 $67 reversed single #
loop $-1 $-1 $68 $28 #
plane-surface $-1 -22.588937951815417 25.275306704126756 63.210500720194773 0.66913061440640931 0 0.74314481823134659 0.74314481823134659 0 -0.66913061440640931 forward_v I I I I #
face $-1 $69 $70 $23 $-1 $71 forward single #
loop $-1 $72 $73 $29 #
cone-surface $-1 39.44502409826466 25.275306704126749 5.6135587388132375 -0.66913061440640931 0 -0.74314481823134659 1.1147172273470198 0 -1.003695921609614 1 I I 0 1 1.5 forward I I I I #
face $-1 $74 $75 $18 $-1 $76 reversed single #
loop $-1 $-1 $77 $30 #
plane-surface $-1 0 0 -12.104336240958004 0 0 1 1 0 0 forward_v I I I I #
coedge $-1 $78 $79 $80 $81 forward $31 $-1 #
face $-1 $82 $83 $19 $-1 $84 reversed single #
loop $-1 $-1 $85 $33 #
plane-surface $-1 0 -14.514387245501304 10.282682952434913 0 -1 0 0 0 -1 forward_v I I I I #
coedge $-1 $86 $87 $88 $89 reversed $34 $-1 #
face $-1 $90 $91 $20 $-1 $92 forward single #
loop $-1 $-1 $93 $36 #
plane-surface $-1 -46.451612903225801 25.275306704126756 1.0461081559864027 -0.66913061440640931 0 0.74314481823134659 0.74314481823134659 0 0.66913061440640931 forward_v I I I I #
coedge $-1 $94 $95 $96 $97 reversed $37 $-1 #
face $-1 $-1 $98 $21 $-1 $99 forward single #
loop $-1 $100 $101 $39 #
cone-surface $-1 -38.077290450272713 25.275306704126749 4.0945366654807511 0.66913061440640931 0 -0.74314481823134659 0.55735861367350992 0 0.50184796080480698 1 I I -0.70710678118654757 0.70710678118654757 0.75 forward I I I I #
loop $-1 $-1 $102 $27 #
coedge $-1 $64 $64 $103 $104 reversed $40 $-1 #
face $-1 $105 $106 $22 $-1 $107 forward single #
loop $-1 $-1 $108 $42 #
plane-surface $-1 39.575454612392932 21.831475250961109 132.251051575236 0 1 0 0.66913061440640931 0 0.74314481823134659 forward_v I I I I #
coedge $-1 $109 $110 $111 $112 reversed $43 $-1 #
face $-1 $-1 $113 $23 $-1 $114 forward single #
loop $-1 $115 $116 $45 #
cone-surface $-1 38.077290450272727 25.275306704126749 4.0945366654807547 -0.66913061440640931 0 -0.74314481823134659 0.55735861367350992 0 -0.50184796080480698 1 I I -0.70710678118654757 0.70710678118654757 0.75 forward I I I I #
loop $-1 $-1 $117 $29 #
coedge $-1 $73 $73 $118 $119 reversed $46 $-1 #
face $-1 $120 $121 $18 $-1 $122 reversed single #
loop $-1 $-1 $123 $48 #
plane-surface $-1 0 -28.719138157292399 0 0 1 0 0 0 1 forward_v I I I I #
coedge $-1 $124 $125 $126 $127 forward $49 $-1 #
coedge $-1 $128 $51 $129 $130 forward $31 $-1 #
coedge $-1 $51 $128 $131 $132 forward $31 $-1 #
coedge $-1 $133 $134 $51 $81 reversed $135 $-1 #
edge $-1 $136 -28.719138157292399 $137 28.719138157292399 $80 $138 forward 7 unknown #
face $-1 $139 $140 $19 $-1 $141 reversed single #
loop $-1 $-1 $142 $52 #
plane-surface $-1 -46.451612903225808 0 0 1 0 0 0 0 -1 forward_v I I I I #
coedge $-1 $143 $144 $145 $146 reversed $53 $-1 #
coedge $-1 $147 $55 $148 $149 reversed $34 $-1 #
coedge $-1 $55 $147 $143 $150 forward $34 $-1 #
coedge $-1 $145 $151 $55 $89 forward $152 $-1 #
edge $-1 $153 -17.910756806593973 $154 -3.7060058948028782 $88 $155 forward 7 unknown #
face $-1 $156 $157 $20 $-1 $158 reversed single #
loop $-1 $-1 $96 $56 #
plane-surface $-1 0 0 12.104336240958004 0 0 1 1 0 0 forward_v I I I I #
coedge $-1 $159 $160 $161 $162 reversed $57 $-1 #
coedge $-1 $95 $59 $163 $164 reversed $37 $-1 #
coedge $-1 $59 $94 $159 $165 reversed $37 $-1 #
coedge $-1 $161 $166 $59 $97 forward $91 $-1 #
edge $-1 $167 7.8563898304912669 $168 20.137796066039357 $96 $169 forward 7 unknown #
loop $-1 $-1 $103 $60 #
plane-surface $-1 -46.451612903225801 25.275306704126756 1.0461081559864027 -0.66913061440640931 0 0.74314481823134659 0.74314481823134659 0 0.66913061440640931 forward_v I I I I #
loop $-1 $-1 $170 $39 #
coedge $-1 $101 $101 $102 $171 reversed $61 $-1 #
coedge $-1 $102 $102 $101 $171 forward $63 $-1 #
coedge $-1 $103 $103 $64 $104 forward $98 $-1 #
edge $-1 $172 0 $172 6.2831853071796004 $103 $173 forward 7 unknown #
face $-1 $174 $175 $22 $-1 $176 reversed single #
loop $-1 $-1 $111 $65 #
plane-surface $-1 0 0 12.104336240958004 0 0 1 1 0 0 forward_v I I I I #
coedge $-1 $177 $178 $179 $180 reversed $66 $-1 #
coedge $-1 $181 $68 $182 $183 reversed $43 $-1 #
coedge $-1 $68 $181 $177 $184 forward $43 $-1 #
coedge $-1 $179 $185 $68 $112 forward $106 $-1 #
edge $-1 $186 -16.081484805229024 $187 -9.1938218988977312 $111 $188 forward 7 unknown #
loop $-1 $-1 $118 $69 #
plane-surface $-1 -22.588937951815417 25.275306704126756 63.210500720194773 0.66913061440640931 0 0.74314481823134659 0.74314481823134659 0 -0.66913061440640931 forward_v I I I I #
loop $-1 $-1 $189 $45 #
coedge $-1 $116 $116 $117 $190 reversed $70 $-1 #
coedge $-1 $117 $117 $116 $190 forward $72 $-1 #
coedge $-1 $118 $118 $73 $119 forward $113 $-1 #
edge $-1 $191 0 $191 6.2831853071796004 $118 $192 forward 7 unknown #
face $-1 $193 $194 $18 $-1 $195 reversed single #
loop $-1 $-1 $196 $74 #
plane-surface $-1 -46.451612903225808 0 0 1 0 0 0 0 -1 forward_v I I I I #
coedge $-1 $197 $131 $198 $199 forward $75 $-1 #
coedge $-1 $200 $77 $197 $201 forward $49 $-1 #
coedge $-1 $77 $200 $202 $203 forward $49 $-1 #
coedge $-1 $134 $133 $77 $127 reversed $135 $-1 #
edge $-1 $204 -28.719138157292399 $205 28.719138157292399 $126 $206 forward 7 unknown #
coedge $-1 $79 $78 $207 $208 forward $31 $-1 #
coedge $-1 $209 $210 $78 $130 reversed $194 $-1 #
edge $-1 $137 -46.451612903225808 $211 46.451612903225808 $129 $212 forward 7 unknown #
coedge $-1 $123 $213 $79 $132 reversed $75 $-1 #
edge $-1 $214 -46.451612903225808 $136 46.451612903225808 $131 $215 forward 7 unknown #
coedge $-1 $126 $80 $213 $216 forward $135 $-1 #
coedge $-1 $80 $126 $209 $217 reversed $135 $-1 #
loop $-1 $-1 $133 $193 #
vertex $-1 $81 $218 #
vertex $-1 $81 $219 #
straight-curve $-1 46.451612903225808 0 12.104336240958004 0 1 0 I I #
face $-1 $220 $221 $19 $-1 $222 forward single #
loop $-1 $-1 $148 $82 #
plane-surface $-1 0 -28.719138157292399 0 0 1 0 0 0 1 forward_v I I I I #
coedge $-1 $223 $224 $225 $226 forward $83 $-1 #
coedge $-1 $225 $85 $87 $150 reversed $53 $-1 #
coedge $-1 $85 $225 $227 $228 reversed $53 $-1 #
coedge $-1 $229 $88 $85 $146 forward $152 $-1 #
edge $-1 $154 3.3196881876943634 $230 6.9629947647405492 $145 $231 forward 7 unknown #
coedge $-1 $87 $86 $223 $232 reversed $34 $-1 #
coedge $-1 $233 $234 $86 $149 forward $140 $-1 #
edge $-1 $235 -46.451612903225808 $153 46.451612903225808 $148 $236 forward 7 unknown #
edge $-1 $237 -46.451612903225808 $154 46.451612903225808 $143 $238 forward 7 unknown #
coedge $-1 $88 $229 $233 $239 forward $152 $-1 #
loop $-1 $-1 $145 $220 #
vertex $-1 $149 $240 #
vertex $-1 $89 $241 #
straight-curve $-1 46.451612903225808 -10.808381350698426 8.4610296639118197 0 1 0 I I #
face $-1 $-1 $242 $20 $-1 $243 reversed single #
loop $-1 $-1 $244 $90 #
plane-surface $-1 0 28.719138157292399 0 0 -1 0 0 0 -1 forward_v I I I I #
coedge $-1 $245 $93 $95 $165 forward $57 $-1 #
coedge $-1 $93 $245 $244 $246 reversed $57 $-1 #
coedge $-1 $247 $96 $93 $162 forward $91 $-1 #
edge $-1 $168 9.1938218988977312 $248 16.081484805229024 $161 $249 forward 7 unknown #
coedge $-1 $250 $251 $94 $164 forward $242 $-1 #
edge $-1 $252 -33.997221349527422 $167 -22.938993264555812 $163 $253 forward 7 unknown #
edge $-1 $168 -16.526262357284963 $252 9.5890899667747578e-015 $95 $254 forward 7 unknown #
coedge $-1 $96 $247 $250 $255 forward $91 $-1 #
vertex $-1 $164 $256 #
vertex $-1 $97 $257 #
straight-curve $-1 -54.308002733717075 21.831475250961109 12.104336240958006 1 0 0 I I #
coedge $-1 $170 $170 $-1 $258 reversed $100 $-1 #
edge $-1 $259 0 $259 6.2831853071796004 $101 $260 forward 7 unknown #
vertex $-1 $104 $261 #
ellipse-curve $-1 -40.310909785451763 25.275306704126749 6.5752221984721988 -0.66913061440640931 0 0.74314481823134659 1.1147172273470198 0 1.003695921609614 1 I I #
face $-1 $-1 $262 $22 $-1 $263 reversed single #
loop $-1 $-1 $264 $105 #
plane-surface $-1 46.451612903225808 0 0 -1 0 0 0 0 1 forward_v I I I I #
coedge $-1 $178 $108 $110 $184 reversed $66 $-1 #
coedge $-1 $108 $177 $265 $266 reversed $66 $-1 #
coedge $-1 $267 $111 $108 $180 forward $106 $-1 #
edge $-1 $187 14.382479361481295 $268 26.663885597029342 $179 $269 forward 7 unknown #
coedge $-1 $110 $109 $264 $270 reversed $43 $-1 #
coedge $-1 $271 $272 $109 $183 forward $262 $-1 #
edge $-1 $273 -63.361759120410738 $186 -46.835496763125818 $182 $274 forward 7 unknown #
edge $-1 $275 -92.903225806451616 $187 -76.376963449166681 $177 $276 forward 7 unknown #
coedge $-1 $111 $267 $271 $277 forward $106 $-1 #
vertex $-1 $183 $278 #
vertex $-1 $112 $279 #
straight-curve $-1 34.17020666767776 12.637653352063378 12.104336240957998 0 -1 0 I I #
coedge $-1 $189 $189 $-1 $280 reversed $115 $-1 #
edge $-1 $281 0 $281 6.2831853071796004 $116 $282 forward 7 unknown #
vertex $-1 $119 $283 #
ellipse-curve $-1 40.310909785451791 25.275306704126749 6.5752221984722148 0.66913061440640931 0 0.74314481823134659 1.1147172273470198 0 -1.003695921609614 1 I I #
face $-1 $-1 $135 $18 $-1 $284 reversed single #
loop $-1 $-1 $209 $120 #
plane-surface $-1 0 28.719138157292399 0 0 -1 0 0 0 -1 forward_v I I I I #
coedge $-1 $285 $207 $210 $286 forward $121 $-1 #
coedge $-1 $213 $123 $124 $201 reversed $75 $-1 #
coedge $-1 $207 $285 $123 $199 reversed $121 $-1 #
edge $-1 $214 -12.104336240958004 $287 12.104336240958004 $198 $288 forward 7 unknown #
coedge $-1 $125 $124 $285 $289 forward $49 $-1 #
edge $-1 $205 -46.451612903225808 $287 46.451612903225808 $197 $290 forward 7 unknown #
coedge $-1 $210 $209 $125 $203 reversed $194 $-1 #
edge $-1 $291 -46.451612903225808 $204 46.451612903225808 $202 $292 forward 7 unknown #
vertex $-1 $127 $293 #
vertex $-1 $216 $294 #
straight-curve $-1 46.451612903225808 0 -12.104336240958004 0 -1 0 I I #
coedge $-1 $196 $198 $128 $208 reversed $121 $-1 #
edge $-1 $211 -28.719138157292399 $214 28.719138157292399 $207 $295 forward 7 unknown #
coedge $-1 $202 $129 $134 $217 forward $194 $-1 #
coedge $-1 $129 $202 $196 $286 reversed $194 $-1 #
vertex $-1 $130 $296 #
straight-curve $-1 0 28.719138157292399 12.104336240958004 -1 0 0 I I #
coedge $-1 $131 $197 $133 $216 reversed $75 $-1 #
vertex $-1 $208 $297 #
straight-curve $-1 0 -28.719138157292399 12.104336240958004 1 0 0 I I #
edge $-1 $136 -12.104336240958004 $205 12.104336240958004 $133 $298 forward 7 unknown #
edge $-1 $137 -12.104336240958004 $204 12.104336240958004 $134 $299 forward 7 unknown #
point $-1 46.451612903225808 -28.719138157292399 12.104336240958004 #
point $-1 46.451612903225808 28.719138157292399 12.104336240958004 #
face $-1 $-1 $152 $19 $-1 $300 reversed single #
loop $-1 $-1 $227 $139 #
plane-surface $-1 0 0 12.104336240958004 0 0 1 1 0 0 forward_v I I I I #
coedge $-1 $301 $142 $147 $232 forward $83 $-1 #
coedge $-1 $142 $301 $302 $303 reversed $83 $-1 #
coedge $-1 $144 $143 $142 $226 reversed $53 $-1 #
edge $-1 $304 -6.9629947647405492 $237 -3.3196881876943634 $142 $305 forward 7 unknown #
coedge $-1 $302 $306 $144 $228 forward $221 $-1 #
edge $-1 $230 -46.451612903225808 $304 46.451612903225808 $227 $307 forward 7 unknown #
coedge $-1 $151 $145 $306 $308 reversed $152 $-1 #
vertex $-1 $146 $309 #
straight-curve $-1 46.451612903225808 -14.514387245501304 5.1413414762174563 0 0 1 I I #
edge $-1 $237 3.7060058948028782 $235 17.910756806593973 $223 $310 forward 7 unknown #
coedge $-1 $311 $148 $151 $239 reversed $140 $-1 #
coedge $-1 $148 $311 $301 $312 forward $140 $-1 #
vertex $-1 $149 $313 #
straight-curve $-1 0 -28.719138157292399 8.4610296639118197 1 0 0 I I #
vertex $-1 $232 $314 #
straight-curve $-1 0 -14.514387245501304 8.4610296639118197 1 0 0 I I #
edge $-1 $315 -12.104336240958004 $153 -8.4610296639118197 $151 $316 forward 7 unknown #
point $-1 46.451612903225808 -28.719138157292399 8.4610296639118197 #
point $-1 46.451612903225808 -14.514387245501304 8.4610296639118197 #
loop $-1 $-1 $163 $156 #
plane-surface $-1 -46.451612903225808 0 0 1 0 0 0 0 -1 forward_v I I I I #
coedge $-1 $317 $318 $160 $246 forward $157 $-1 #
coedge $-1 $160 $159 $251 $319 reversed $57 $-1 #
edge $-1 $248 0.38388385989997309 $320 16.910146217184948 $244 $321 forward 7 unknown #
coedge $-1 $166 $161 $318 $322 forward $91 $-1 #
vertex $-1 $322 $323 #
straight-curve $-1 -34.170206667677725 12.637653352063378 12.104336240958004 0 1 0 I I #
coedge $-1 $324 $163 $166 $255 reversed $242 $-1 #
coedge $-1 $163 $324 $245 $319 forward $242 $-1 #
vertex $-1 $164 $325 #
straight-curve $-1 -46.451612903225808 21.831475250961109 35.043329505513817 0 0 1 I I #
straight-curve $-1 -46.451612903225801 21.831475250961109 1.0461081559864027 -0.74314481823134659 0 -0.66913061440640931 I I #
edge $-1 $326 -28.719138157292399 $167 -21.831475250961109 $250 $327 forward 7 unknown #
point $-1 -46.451612903225808 21.831475250961109 12.104336240958004 #
point $-1 -34.170206667677718 21.831475250961109 12.104336240958004 #
edge $-1 $328 1 $328 0 $170 $-1 forward 7 unknown #
vertex $-1 $171 $329 #
ellipse-curve $-1 -38.579138411077523 25.275306704126749 4.6518952791542612 -0.66913061440640931 0 0.74314481823134659 1.1147172273470198 0 1.003695921609614 1 I I #
point $-1 -39.196192558104755 25.275306704126749 7.5789181200818216 #
loop $-1 $-1 $182 $174 #
plane-surface $-1 0 28.719138157292399 0 0 -1 0 0 0 -1 forward_v I I I I #
coedge $-1 $330 $265 $181 $270 forward $175 $-1 #
coedge $-1 $264 $331 $178 $266 forward $175 $-1 #
edge $-1 $268 54.021189546659997 $275 65.079417631631571 $265 $332 forward 7 unknown #
coedge $-1 $185 $179 $331 $333 forward $106 $-1 #
vertex $-1 $333 $334 #
straight-curve $-1 19.787727306196466 21.831475250961109 12.104336240958006 1 0 0 I I #
edge $-1 $275 9.1938218988977312 $273 16.081484805229024 $264 $335 forward 7 unknown #
coedge $-1 $272 $182 $185 $277 reversed $262 $-1 #
coedge $-1 $182 $271 $330 $336 forward $262 $-1 #
vertex $-1 $183 $337 #
straight-curve $-1 -0.63535006113019321 28.719138157292399 43.443400966097769 -0.74314481823134659 0 0.66913061440640931 I I #
vertex $-1 $270 $338 #
straight-curve $-1 -22.588937951815417 21.831475250961109 63.210500720194773 -0.74314481823134659 0 0.66913061440640931 I I #
edge $-1 $339 -46.451612903225808 $186 -34.17020666767776 $271 $340 forward 7 unknown #
point $-1 34.17020666767776 28.719138157292402 12.104336240958006 #
point $-1 34.17020666767776 21.831475250961109 12.104336240958006 #
edge $-1 $341 1 $341 0 $189 $-1 forward 7 unknown #
vertex $-1 $190 $342 #
ellipse-curve $-1 38.579138411077537 25.275306704126749 4.6518952791542647 0.66913061440640931 0 0.74314481823134659 1.1147172273470198 0 -1.003695921609614 1 I I #
point $-1 41.425627012798806 25.275306704126749 5.5715262768625973 #
plane-surface $-1 46.451612903225808 0 0 -1 0 0 0 0 1 forward_v I I I I #
coedge $-1 $198 $196 $200 $289 reversed $121 $-1 #
edge $-1 $211 -12.104336240958004 $291 12.104336240958004 $210 $343 forward 7 unknown #
vertex $-1 $289 $344 #
straight-curve $-1 -46.451612903225808 -28.719138157292399 0 0 0 -1 I I #
edge $-1 $287 -28.719138157292399 $291 28.719138157292399 $285 $345 forward 7 unknown #
straight-curve $-1 0 -28.719138157292399 -12.104336240958004 -1 0 0 I I #
vertex $-1 $203 $346 #
straight-curve $-1 0 28.719138157292399 -12.104336240958004 1 0 0 I I #
point $-1 46.451612903225808 28.719138157292399 -12.104336240958004 #
point $-1 46.451612903225808 -28.719138157292399 -12.104336240958004 #
straight-curve $-1 -46.451612903225808 0 12.104336240958004 0 -1 0 I I #
point $-1 -46.451612903225808 28.719138157292399 12.104336240958004 #
point $-1 -46.451612903225808 -28.719138157292399 12.104336240958004 #
straight-curve $-1 46.451612903225808 -28.719138157292399 0 0 0 -1 I I #
straight-curve $-1 46.451612903225808 28.719138157292399 0 0 0 -1 I I #
plane-surface $-1 46.451612903225808 0 0 -1 0 0 0 0 1 forward_v I I I I #
coedge $-1 $224 $223 $234 $312 reversed $83 $-1 #
coedge $-1 $347 $227 $224 $303 forward $221 $-1 #
edge $-1 $304 14.514387245501304 $348 28.719138157292399 $224 $349 forward 7 unknown #
vertex $-1 $303 $350 #
straight-curve $-1 -46.451612903225808 -14.514387245501304 5.1413414762174563 0 0 -1 I I #
coedge $-1 $227 $347 $229 $308 forward $221 $-1 #
straight-curve $-1 0 -14.514387245501304 12.104336240958004 -1 0 0 I I #
edge $-1 $315 -28.719138157292399 $230 -14.514387245501304 $229 $351 forward 7 unknown #
point $-1 46.451612903225808 -14.514387245501304 12.104336240958006 #
straight-curve $-1 -46.451612903225808 -10.808381350698426 8.4610296639118197 0 -1 0 I I #
coedge $-1 $234 $233 $347 $352 reversed $140 $-1 #
edge $-1 $348 -12.104336240958004 $235 -8.4610296639118197 $301 $353 forward 7 unknown #
point $-1 -46.451612903225808 -28.719138157292399 8.4610296639118197 #
point $-1 -46.451612903225808 -14.514387245501304 8.4610296639118197 #
vertex $-1 $308 $354 #
straight-curve $-1 46.451612903225808 -28.719138157292399 0 0 0 -1 I I #
coedge $-1 $318 $244 $324 $355 reversed $157 $-1 #
coedge $-1 $244 $317 $247 $322 reversed $157 $-1 #
edge $-1 $320 -16.081484805229024 $252 -9.1938218988977312 $251 $356 forward 7 unknown #
vertex $-1 $246 $357 #
straight-curve $-1 -33.884925366390405 28.719138157292399 12.361204683993577 -0.74314481823134659 0 -0.66913061440640931 I I #
edge $-1 $248 34.170206667677718 $326 46.451612903225808 $318 $358 forward 7 unknown #
point $-1 -34.170206667677718 28.719138157292402 12.104336240958004 #
coedge $-1 $251 $250 $317 $355 forward $242 $-1 #
point $-1 -46.451612903225808 21.831475250961109 1.0461081559863963 #
vertex $-1 $322 $359 #
straight-curve $-1 -46.451612903225808 0 12.104336240958004 0 -1 0 I I #
vertex $-1 $258 $360 #
point $-1 -37.464421183730501 25.275306704126749 5.6555912007638751 #
coedge $-1 $331 $264 $272 $336 reversed $175 $-1 #
coedge $-1 $265 $330 $267 $333 reversed $175 $-1 #
straight-curve $-1 46.451612903225808 21.831475250961109 66.125525787618002 0 0 -1 I I #
edge $-1 $268 21.831475250961109 $339 28.719138157292399 $331 $361 forward 7 unknown #
point $-1 46.451612903225808 21.831475250961109 12.104336240958004 #
straight-curve $-1 46.451612903225801 12.637653352063378 1.0461081559864311 0 1 0 I I #
edge $-1 $339 -12.104336240958004 $273 -1.046108155986424 $330 $362 forward 7 unknown #
point $-1 46.451612903225815 28.719138157292402 1.046108155986424 #
point $-1 46.451612903225815 21.831475250961109 1.046108155986424 #
vertex $-1 $333 $363 #
straight-curve $-1 0 28.719138157292399 12.104336240958004 -1 0 0 I I #
vertex $-1 $280 $364 #
point $-1 39.693855638424552 25.275306704126749 3.6481993575446507 #
straight-curve $-1 -46.451612903225808 28.719138157292399 0 0 0 -1 I I #
point $-1 -46.451612903225808 -28.719138157292399 -12.104336240958004 #
straight-curve $-1 -46.451612903225808 0 -12.104336240958004 0 1 0 I I #
point $-1 -46.451612903225808 28.719138157292399 -12.104336240958004 #
coedge $-1 $306 $302 $311 $352 forward $221 $-1 #
vertex $-1 $303 $365 #
straight-curve $-1 -46.451612903225808 0 12.104336240958004 0 -1 0 I I #
point $-1 -46.451612903225808 -14.514387245501304 12.104336240958006 #
straight-curve $-1 46.451612903225808 0 12.104336240958004 0 1 0 I I #
edge $-1 $348 -46.451612903225808 $315 46.451612903225808 $311 $366 forward 7 unknown #
straight-curve $-1 -46.451612903225808 -28.719138157292399 0 0 0 -1 I I #
point $-1 46.451612903225808 -28.719138157292399 12.104336240958004 #
edge $-1 $326 -12.104336240958004 $320 -1.0461081559863963 $317 $367 forward 7 unknown #
straight-curve $-1 -46.451612903225808 12.637653352063378 1.0461081559864005 0 -1 0 I I #
point $-1 -46.451612903225808 28.719138157292402 1.0461081559863963 #
straight-curve $-1 0 28.719138157292399 12.104336240958004 -1 0 0 I I #
point $-1 -46.451612903225808 28.719138157292399 12.104336240958004 #
point $-1 -37.575442489467903 25.275306704126749 3.5371780518072411 #
straight-curve $-1 46.451612903225808 0 12.104336240958004 0 1 0 I I #
straight-curve $-1 46.451612903225808 28.719138157292399 0 0 0 -1 I I #
point $-1 46.451612903225808 28.719138157292399 12.104336240958004 #
point $-1 37.575442489467918 25.275306704126749 3.5371780518072446 #
point $-1 -46.451612903225808 -28.719138157292399 12.104336240958004 #
straight-curve $-1 0 -28.719138157292399 12.104336240958004 1 0 0 I I #
straight-curve $-1 -46.451612903225808 28.719138157292399 0 0 0 -1 I I #
End-of-ACIS-data 