500 0 15 0           
7 Unknown 11 ACIS 5.0 NT 24 Thu Mar 25 15:54:41 1999 
-1 9.9999999999999995e-007 1e-010 
body $-1 $15 $-1 $16 #
body $-1 $17 $-1 $18 #
body $-1 $19 $-1 $20 #
body $-1 $21 $-1 $22 #
body $-1 $23 $-1 $24 #
body $-1 $25 $-1 $26 #
body $-1 $27 $-1 $28 #
body $-1 $29 $-1 $30 #
body $-1 $31 $-1 $32 #
body $-1 $33 $-1 $34 #
body $-1 $35 $-1 $36 #
body $-1 $37 $-1 $38 #
body $-1 $39 $-1 $40 #
body $-1 $41 $-1 $42 #
body $-1 $43 $-1 $44 #
lump $-1 $-1 $45 $0 #
transform $-1 1 0 0 0 1 0 0 0 1 61.815851313821838 26.10501492782803 13.04199120679413 1 rotate no_reflect no_shear #
lump $-1 $-1 $46 $1 #
transform $-1 1 0 0 0 1 0 0 0 1 61.815851313821838 26.10501492782803 13.04199120679413 1 rotate no_reflect no_shear #
lump $-1 $-1 $47 $2 #
transform $-1 1 0 0 0 1 0 0 0 1 61.815851313821838 26.10501492782803 13.04199120679413 1 rotate no_reflect no_shear #
lump $-1 $-1 $48 $3 #
transform $-1 1 0 0 0 1 0 0 0 1 61.815851313821838 26.10501492782803 13.04199120679413 1 rotate no_reflect no_shear #
lump $-1 $-1 $49 $4 #
transform $-1 1 0 0 0 1 0 0 0 1 61.815851313821838 26.10501492782803 13.04199120679413 1 rotate no_reflect no_shear #
lump $-1 $-1 $50 $5 #
transform $-1 1 0 0 0 1 0 0 0 1 61.815851313821838 26.10501492782803 13.04199120679413 1 rotate no_reflect no_shear #
lump $-1 $-1 $51 $6 #
transform $-1 1 0 0 0 1 0 0 0 1 61.815851313821838 26.10501492782803 13.04199120679413 1 rotate no_reflect no_shear #
lump $-1 $-1 $52 $7 #
transform $-1 1 0 0 0 1 0 0 0 1 61.815851313821838 26.10501492782803 13.04199120679413 1 rotate no_reflect no_shear #
lump $-1 $-1 $53 $8 #
transform $-1 1 0 0 0 1 0 0 0 1 61.815851313821838 26.10501492782803 13.04199120679413 1 rotate no_reflect no_shear #
lump $-1 $-1 $54 $9 #
transform $-1 1 0 0 0 1 0 0 0 1 61.815851313821838 26.10501492782803 13.04199120679413 1 rotate no_reflect no_shear #
lump $-1 $-1 $55 $10 #
transform $-1 1 0 0 0 1 0 0 0 1 61.815851313821838 26.10501492782803 13.04199120679413 1 rotate no_reflect no_shear #
lump $-1 $-1 $56 $11 #
transform $-1 1 0 0 0 1 0 0 0 1 61.815851313821838 26.10501492782803 13.04199120679413 1 rotate no_reflect no_shear #
lump $-1 $-1 $57 $12 #
transform $-1 1 0 0 0 1 0 0 0 1 61.815851313821838 26.10501492782803 13.04199120679413 1 rotate no_reflect no_shear #
lump $-1 $-1 $58 $13 #
transform $-1 1 0 0 0 1 0 0 0 1 61.815851313821838 26.10501492782803 13.04199120679413 1 rotate no_reflect no_shear #
lump $-1 $-1 $59 $14 #
transform $-1 1 0 0 0 1 0 0 0 1 61.815851313821838 26.10501492782803 13.04199120679413 1 rotate no_reflect no_shear #
shell $-1 $-1 $-1 $60 $-1 $15 #
shell $-1 $-1 $-1 $61 $-1 $17 #
shell $-1 $-1 $-1 $62 $-1 $19 #
shell $-1 $-1 $-1 $63 $-1 $21 #
shell $-1 $-1 $-1 $64 $-1 $23 #
shell $-1 $-1 $-1 $65 $-1 $25 #
shell $-1 $-1 $-1 $66 $-1 $27 #
shell $-1 $-1 $-1 $67 $-1 $29 #
shell $-1 $-1 $-1 $68 $-1 $31 #
shell $-1 $-1 $-1 $69 $-1 $33 #
shell $-1 $-1 $-1 $70 $-1 $35 #
shell $-1 $-1 $-1 $71 $-1 $37 #
shell $-1 $-1 $-1 $72 $-1 $39 #
shell $-1 $-1 $-1 $73 $-1 $41 #
shell $-1 $-1 $-1 $74 $-1 $43 #
face $-1 $75 $76 $45 $-1 $77 forward single #
face $-1 $78 $79 $46 $-1 $80 forward single #
face $-1 $81 $82 $47 $-1 $83 forward single #
face $-1 $84 $85 $48 $-1 $86 reversed single #
face $-1 $87 $88 $49 $-1 $89 forward single #
face $-1 $90 $91 $50 $-1 $92 forward single #
face $-1 $93 $94 $51 $-1 $95 reversed single #
face $-1 $96 $97 $52 $-1 $98 forward single #
face $-1 $99 $100 $53 $-1 $101 forward single #
face $-1 $102 $103 $54 $-1 $104 reversed single #
face $-1 $105 $106 $55 $-1 $107 forward single #
face $-1 $108 $109 $56 $-1 $110 forward single #
face $-1 $111 $112 $57 $-1 $113 reversed single #
face $-1 $114 $115 $58 $-1 $116 forward single #
face $-1 $117 $118 $59 $-1 $119 forward single #
face $-1 $120 $121 $45 $-1 $122 reversed single #
loop $-1 $-1 $123 $60 #
plane-surface $-1 0 0 13.04199120679413 0 0 1 1 0 0 forward_v I I I I #
face $-1 $124 $125 $46 $-1 $126 reversed single #
loop $-1 $-1 $127 $61 #
plane-surface $-1 -61.815851313821838 0 0 1 0 0 0 0 -1 forward_v I I I I #
face $-1 $128 $129 $47 $-1 $130 reversed single #
loop $-1 $-1 $131 $62 #
plane-surface $-1 61.815851313821838 0 0 -1 0 0 0 0 1 forward_v I I I I #
face $-1 $132 $133 $48 $-1 $134 reversed single #
loop $-1 $-1 $135 $63 #
plane-surface $-1 -27.450821997542249 -129.79128617620185 69.031555277806632 -1 0 0 0 -0.83867057594974714 0.54463902268945019 forward_v I I I I #
face $-1 $136 $137 $49 $-1 $138 forward single #
loop $-1 $139 $140 $64 #
cone-surface $-1 -40.56793818382468 -20.660992190886898 6.2263413923951205 0 0.83867057594974714 -0.54463902268945019 2.5 0 0 1 I I 0 1 2.5 forward I I I I #
face $-1 $141 $142 $50 $-1 $143 forward single #
loop $-1 $144 $145 $65 #
cone-surface $-1 -32.697668472055227 -20.660992190886898 6.2263413923951205 0 0.83867057594974714 -0.54463902268945019 2.5 0 0 1 I I 0 1 2.5 forward I I I I #
face $-1 $146 $147 $51 $-1 $148 reversed single #
loop $-1 $-1 $149 $66 #
plane-surface $-1 45.814784658337643 -129.79128617620185 69.031555277806632 -1 0 0 0 -0.83867057594974714 0.54463902268945019 forward_v I I I I #
face $-1 $150 $151 $52 $-1 $152 forward single #
loop $-1 $153 $154 $67 #
cone-surface $-1 32.697668472055213 -20.660992190886898 6.2263413923951205 0 0.83867057594974714 -0.54463902268945019 2.5 0 0 1 I I 0 1 2.5 forward I I I I #
face $-1 $155 $156 $53 $-1 $157 forward single #
loop $-1 $158 $159 $68 #
cone-surface $-1 40.567938183824666 -20.660992190886898 6.2263413923951205 0 0.83867057594974714 -0.54463902268945019 2.5 0 0 1 I I 0 1 2.5 forward I I I I #
face $-1 $160 $161 $54 $-1 $162 reversed single #
loop $-1 $-1 $163 $69 #
plane-surface $-1 -45.814784658337658 101.3556665410303 112.8185710872032 1 0 0 0 -0.83867057594974714 -0.54463902268945019 forward_v I I I I #
face $-1 $164 $165 $55 $-1 $166 forward single #
loop $-1 $167 $168 $70 #
cone-surface $-1 -40.56793818382468 20.660992190886894 6.2263413923951205 0 -0.83867057594974714 -0.54463902268945019 2.5 0 0 1 I I 0 1 2.5 forward I I I I #
face $-1 $169 $170 $56 $-1 $171 forward single #
loop $-1 $172 $173 $71 #
cone-surface $-1 -32.697668472055227 20.660992190886894 6.2263413923951205 0 -0.83867057594974714 -0.54463902268945019 2.5 0 0 1 I I 0 1 2.5 forward I I I I #
face $-1 $174 $175 $57 $-1 $176 reversed single #
loop $-1 $-1 $177 $72 #
plane-surface $-1 27.450821997542235 101.3556665410303 112.8185710872032 1 0 0 0 -0.83867057594974714 -0.54463902268945019 forward_v I I I I #
face $-1 $178 $179 $58 $-1 $180 forward single #
loop $-1 $181 $182 $73 #
cone-surface $-1 32.697668472055213 20.660992190886894 6.2263413923951205 0 -0.83867057594974714 -0.54463902268945019 2.5 0 0 1 I I 0 1 2.5 forward I I I I #
face $-1 $183 $184 $59 $-1 $185 forward single #
loop $-1 $186 $187 $74 #
cone-surface $-1 40.567938183824666 20.660992190886894 6.2263413923951205 0 -0.83867057594974714 -0.54463902268945019 2.5 0 0 1 I I 0 1 2.5 forward I I I I #
face $-1 $188 $189 $45 $-1 $190 reversed single #
loop $-1 $-1 $191 $75 #
plane-surface $-1 0 0 -13.04199120679413 0 0 1 1 0 0 forward_v I I I I #
coedge $-1 $192 $193 $194 $195 forward $76 $-1 #
face $-1 $196 $197 $46 $-1 $198 forward single #
loop $-1 $-1 $199 $78 #
plane-surface $-1 0 26.10501492782803 0 0 -1 0 0 0 -1 forward_v I I I I #
coedge $-1 $200 $201 $202 $203 forward $79 $-1 #
face $-1 $204 $205 $47 $-1 $206 forward single #
loop $-1 $-1 $207 $81 #
plane-surface $-1 0 26.10501492782803 0 0 -1 0 0 0 -1 forward_v I I I I #
coedge $-1 $208 $209 $210 $211 forward $82 $-1 #
face $-1 $212 $213 $48 $-1 $214 reversed single #
loop $-1 $-1 $215 $84 #
plane-surface $-1 -36.632803327939953 -26.105014927828051 1.6969055852540436 0 -0.83867057594974714 0.54463902268945019 1 0 0 forward_v I I I I #
coedge $-1 $216 $217 $218 $219 reversed $85 $-1 #
face $-1 $-1 $220 $49 $-1 $221 forward single #
loop $-1 $222 $223 $87 #
cone-surface $-1 -40.56793818382468 -17.852423489535365 4.4024356104043463 0 0.83867057594974714 -0.54463902268945019 1.25 0 0 1 I I -0.70710678118654746 0.70710678118654746 1.25 forward I I I I #
loop $-1 $-1 $224 $64 #
coedge $-1 $140 $140 $225 $226 reversed $88 $-1 #
face $-1 $-1 $227 $50 $-1 $228 forward single #
loop $-1 $229 $230 $90 #
cone-surface $-1 -32.697668472055227 -17.852423489535365 4.4024356104043463 0 0.83867057594974714 -0.54463902268945019 1.25 0 0 1 I I -0.70710678118654746 0.70710678118654746 1.25 forward I I I I #
loop $-1 $-1 $231 $65 #
coedge $-1 $145 $145 $232 $233 reversed $91 $-1 #
face $-1 $234 $235 $51 $-1 $236 reversed single #
loop $-1 $-1 $237 $93 #
plane-surface $-1 36.632803327939939 -26.105014927828051 1.6969055852540436 0 -0.83867057594974714 0.54463902268945019 1 0 0 forward_v I I I I #
coedge $-1 $238 $239 $240 $241 reversed $94 $-1 #
face $-1 $-1 $242 $52 $-1 $243 forward single #
loop $-1 $244 $245 $96 #
cone-surface $-1 32.697668472055213 -17.852423489535365 4.4024356104043463 0 0.83867057594974714 -0.54463902268945019 1.25 0 0 1 I I -0.70710678118654746 0.70710678118654746 1.25 forward I I I I #
loop $-1 $-1 $246 $67 #
coedge $-1 $154 $154 $247 $248 reversed $97 $-1 #
face $-1 $-1 $249 $53 $-1 $250 forward single #
loop $-1 $251 $252 $99 #
cone-surface $-1 40.567938183824666 -17.852423489535365 4.4024356104043463 0 0.83867057594974714 -0.54463902268945019 1.25 0 0 1 I I -0.70710678118654746 0.70710678118654746 1.25 forward I I I I #
loop $-1 $-1 $253 $68 #
coedge $-1 $159 $159 $254 $255 reversed $100 $-1 #
face $-1 $256 $257 $54 $-1 $258 reversed single #
loop $-1 $-1 $259 $102 #
plane-surface $-1 -36.632803327939953 -2.3306047073434968 45.483921394650608 0 0.83867057594974714 0.54463902268945019 1 0 0 forward_v I I I I #
coedge $-1 $260 $261 $262 $263 reversed $103 $-1 #
face $-1 $-1 $264 $55 $-1 $265 forward single #
loop $-1 $266 $267 $105 #
cone-surface $-1 -40.56793818382468 17.852423489535362 4.4024356104043463 0 -0.83867057594974714 -0.54463902268945019 1.25 0 0 1 I I -0.70710678118654746 0.70710678118654746 1.25 forward I I I I #
loop $-1 $-1 $268 $70 #
coedge $-1 $168 $168 $269 $270 reversed $106 $-1 #
face $-1 $-1 $271 $56 $-1 $272 forward single #
loop $-1 $273 $274 $108 #
cone-surface $-1 -32.697668472055227 17.852423489535362 4.4024356104043463 0 -0.83867057594974714 -0.54463902268945019 1.25 0 0 1 I I -0.70710678118654746 0.70710678118654746 1.25 forward I I I I #
loop $-1 $-1 $275 $71 #
coedge $-1 $173 $173 $276 $277 reversed $109 $-1 #
face $-1 $278 $279 $57 $-1 $280 reversed single #
loop $-1 $-1 $281 $111 #
plane-surface $-1 36.632803327939939 -2.3306047073434968 45.483921394650608 0 0.83867057594974714 0.54463902268945019 1 0 0 forward_v I I I I #
coedge $-1 $282 $283 $284 $285 reversed $112 $-1 #
face $-1 $-1 $286 $58 $-1 $287 forward single #
loop $-1 $288 $289 $114 #
cone-surface $-1 32.697668472055213 17.852423489535362 4.4024356104043463 0 -0.83867057594974714 -0.54463902268945019 1.25 0 0 1 I I -0.70710678118654746 0.70710678118654746 1.25 forward I I I I #
loop $-1 $-1 $290 $73 #
coedge $-1 $182 $182 $291 $292 reversed $115 $-1 #
face $-1 $-1 $293 $59 $-1 $294 forward single #
loop $-1 $295 $296 $117 #
cone-surface $-1 40.567938183824666 17.852423489535362 4.4024356104043463 0 -0.83867057594974714 -0.54463902268945019 1.25 0 0 1 I I -0.70710678118654746 0.70710678118654746 1.25 forward I I I I #
loop $-1 $-1 $297 $74 #
coedge $-1 $187 $187 $298 $299 reversed $118 $-1 #
face $-1 $300 $301 $45 $-1 $302 reversed single #
loop $-1 $-1 $303 $120 #
plane-surface $-1 0 -26.10501492782803 0 0 1 0 0 0 1 forward_v I I I I #
coedge $-1 $304 $305 $306 $307 forward $121 $-1 #
coedge $-1 $308 $123 $309 $310 forward $76 $-1 #
coedge $-1 $123 $308 $311 $312 forward $76 $-1 #
coedge $-1 $313 $314 $123 $195 reversed $315 $-1 #
edge $-1 $316 -26.10501492782803 $317 26.10501492782803 $194 $318 forward 7 unknown #
face $-1 $319 $320 $46 $-1 $321 reversed single #
loop $-1 $-1 $202 $124 #
plane-surface $-1 -67.976827938173841 0 -9.8978551754531594 0 0 1 1 0 0 forward_v I I I I #
coedge $-1 $322 $323 $201 $324 forward $125 $-1 #
coedge $-1 $325 $127 $326 $327 reversed $79 $-1 #
coedge $-1 $127 $325 $199 $324 reversed $79 $-1 #
coedge $-1 $328 $329 $127 $203 reversed $197 $-1 #
edge $-1 $330 -26.10501492782803 $331 26.10501492782803 $202 $332 forward 7 unknown #
face $-1 $333 $334 $47 $-1 $335 reversed single #
loop $-1 $-1 $336 $128 #
plane-surface $-1 67.976827938173841 0 -9.8978551754531594 0 0 1 1 0 0 forward_v I I I I #
coedge $-1 $337 $338 $208 $339 forward $129 $-1 #
coedge $-1 $340 $131 $207 $339 reversed $82 $-1 #
coedge $-1 $131 $340 $341 $342 reversed $82 $-1 #
coedge $-1 $343 $344 $131 $211 reversed $205 $-1 #
edge $-1 $345 -26.10501492782803 $346 26.10501492782803 $210 $347 forward 7 unknown #
face $-1 $348 $349 $48 $-1 $350 forward single #
loop $-1 $-1 $351 $132 #
plane-surface $-1 -45.814784658337658 -129.79128617620185 69.031555277806632 1 0 0 0 0.83867057594974714 -0.54463902268945019 forward_v I I I I #
coedge $-1 $352 $353 $354 $355 reversed $133 $-1 #
coedge $-1 $217 $135 $356 $357 reversed $85 $-1 #
coedge $-1 $135 $216 $352 $358 reversed $85 $-1 #
coedge $-1 $354 $359 $135 $219 forward $349 $-1 #
edge $-1 $360 38.790628160272895 $361 46.158212671326439 $218 $362 forward 7 unknown #
loop $-1 $-1 $225 $136 #
plane-surface $-1 -36.632803327939953 -26.105014927828051 1.6969055852540436 0 -0.83867057594974714 0.54463902268945019 1 0 0 forward_v I I I I #
loop $-1 $-1 $363 $87 #
coedge $-1 $223 $223 $224 $364 reversed $137 $-1 #
coedge $-1 $224 $224 $223 $364 forward $139 $-1 #
coedge $-1 $225 $225 $140 $226 forward $220 $-1 #
edge $-1 $365 -3.014859862231333e-016 $365 6.2831853071796004 $225 $366 forward 7 unknown #
loop $-1 $-1 $232 $141 #
plane-surface $-1 -36.632803327939953 -26.105014927828051 1.6969055852540436 0 -0.83867057594974714 0.54463902268945019 1 0 0 forward_v I I I I #
loop $-1 $-1 $367 $90 #
coedge $-1 $230 $230 $231 $368 reversed $142 $-1 #
coedge $-1 $231 $231 $230 $368 forward $144 $-1 #
coedge $-1 $232 $232 $145 $233 forward $227 $-1 #
edge $-1 $369 -3.014859862231333e-016 $369 6.2831853071796004 $232 $370 forward 7 unknown #
face $-1 $371 $372 $51 $-1 $373 reversed single #
loop $-1 $-1 $374 $146 #
plane-surface $-1 27.450821997542235 -129.79128617620185 69.031555277806632 1 0 0 0 0.83867057594974714 -0.54463902268945019 forward_v I I I I #
coedge $-1 $375 $376 $377 $378 reversed $147 $-1 #
coedge $-1 $239 $149 $379 $380 reversed $94 $-1 #
coedge $-1 $149 $238 $375 $381 reversed $94 $-1 #
coedge $-1 $377 $382 $149 $241 forward $383 $-1 #
edge $-1 $384 38.790628160272895 $385 46.158212671326439 $240 $386 forward 7 unknown #
loop $-1 $-1 $247 $150 #
plane-surface $-1 36.632803327939939 -26.105014927828051 1.6969055852540436 0 -0.83867057594974714 0.54463902268945019 1 0 0 forward_v I I I I #
loop $-1 $-1 $387 $96 #
coedge $-1 $245 $245 $246 $388 reversed $151 $-1 #
coedge $-1 $246 $246 $245 $388 forward $153 $-1 #
coedge $-1 $247 $247 $154 $248 forward $242 $-1 #
edge $-1 $389 -3.014859862231333e-016 $389 6.2831853071796004 $247 $390 forward 7 unknown #
loop $-1 $-1 $254 $155 #
plane-surface $-1 36.632803327939939 -26.105014927828051 1.6969055852540436 0 -0.83867057594974714 0.54463902268945019 1 0 0 forward_v I I I I #
loop $-1 $-1 $391 $99 #
coedge $-1 $252 $252 $253 $392 reversed $156 $-1 #
coedge $-1 $253 $253 $252 $392 forward $158 $-1 #
coedge $-1 $254 $254 $159 $255 forward $249 $-1 #
edge $-1 $393 -3.014859862231333e-016 $393 6.2831853071796004 $254 $394 forward 7 unknown #
face $-1 $395 $396 $54 $-1 $397 reversed single #
loop $-1 $-1 $398 $160 #
plane-surface $-1 -27.450821997542249 101.3556665410303 112.8185710872032 -1 0 0 0 0.83867057594974714 0.54463902268945019 forward_v I I I I #
coedge $-1 $399 $400 $401 $402 reversed $161 $-1 #
coedge $-1 $261 $163 $403 $404 reversed $103 $-1 #
coedge $-1 $163 $260 $399 $405 reversed $103 $-1 #
coedge $-1 $401 $406 $163 $263 forward $407 $-1 #
edge $-1 $408 24.572818342687121 $409 31.940402853740675 $262 $410 forward 7 unknown #
loop $-1 $-1 $269 $164 #
plane-surface $-1 -36.632803327939953 -2.3306047073434968 45.483921394650608 0 0.83867057594974714 0.54463902268945019 1 0 0 forward_v I I I I #
loop $-1 $-1 $411 $105 #
coedge $-1 $267 $267 $268 $412 reversed $165 $-1 #
coedge $-1 $268 $268 $267 $412 forward $167 $-1 #
coedge $-1 $269 $269 $168 $270 forward $264 $-1 #
edge $-1 $413 3.5966497736492971e-016 $413 6.2831853071796004 $269 $414 forward 7 unknown #
loop $-1 $-1 $276 $169 #
plane-surface $-1 -36.632803327939953 -2.3306047073434968 45.483921394650608 0 0.83867057594974714 0.54463902268945019 1 0 0 forward_v I I I I #
loop $-1 $-1 $415 $108 #
coedge $-1 $274 $274 $275 $416 reversed $170 $-1 #
coedge $-1 $275 $275 $274 $416 forward $172 $-1 #
coedge $-1 $276 $276 $173 $277 forward $271 $-1 #
edge $-1 $417 3.5966497736492971e-016 $417 6.2831853071796004 $276 $418 forward 7 unknown #
face $-1 $419 $420 $57 $-1 $421 forward single #
loop $-1 $-1 $422 $174 #
plane-surface $-1 45.814784658337643 101.3556665410303 112.8185710872032 -1 0 0 0 0.83867057594974714 0.54463902268945019 forward_v I I I I #
coedge $-1 $423 $424 $425 $426 reversed $175 $-1 #
coedge $-1 $283 $177 $427 $428 reversed $112 $-1 #
coedge $-1 $177 $282 $423 $429 reversed $112 $-1 #
coedge $-1 $425 $430 $177 $285 forward $420 $-1 #
edge $-1 $431 24.572818342687121 $432 31.940402853740675 $284 $433 forward 7 unknown #
loop $-1 $-1 $291 $178 #
plane-surface $-1 36.632803327939939 -2.3306047073434968 45.483921394650608 0 0.83867057594974714 0.54463902268945019 1 0 0 forward_v I I I I #
loop $-1 $-1 $434 $114 #
coedge $-1 $289 $289 $290 $435 reversed $179 $-1 #
coedge $-1 $290 $290 $289 $435 forward $181 $-1 #
coedge $-1 $291 $291 $182 $292 forward $286 $-1 #
edge $-1 $436 3.5966497736492971e-016 $436 6.2831853071796004 $291 $437 forward 7 unknown #
loop $-1 $-1 $298 $183 #
plane-surface $-1 36.632803327939939 -2.3306047073434968 45.483921394650608 0 0.83867057594974714 0.54463902268945019 1 0 0 forward_v I I I I #
loop $-1 $-1 $438 $117 #
coedge $-1 $296 $296 $297 $439 reversed $184 $-1 #
coedge $-1 $297 $297 $296 $439 forward $186 $-1 #
coedge $-1 $298 $298 $187 $299 forward $293 $-1 #
edge $-1 $440 3.5966497736492971e-016 $440 6.2831853071796004 $298 $441 forward 7 unknown #
face $-1 $442 $443 $45 $-1 $444 reversed single #
loop $-1 $-1 $445 $188 #
plane-surface $-1 -61.815851313821838 0 0 1 0 0 0 0 -1 forward_v I I I I #
coedge $-1 $446 $311 $447 $448 forward $189 $-1 #
coedge $-1 $449 $191 $446 $450 forward $121 $-1 #
coedge $-1 $191 $449 $451 $452 forward $121 $-1 #
coedge $-1 $314 $313 $191 $307 reversed $315 $-1 #
edge $-1 $453 -26.10501492782803 $454 26.10501492782803 $306 $455 forward 7 unknown #
coedge $-1 $193 $192 $456 $457 forward $76 $-1 #
coedge $-1 $458 $459 $192 $310 reversed $443 $-1 #
edge $-1 $317 -61.815851313821838 $460 61.815851313821838 $309 $461 forward 7 unknown #
coedge $-1 $303 $462 $193 $312 reversed $189 $-1 #
edge $-1 $463 -61.815851313821838 $316 61.815851313821838 $311 $464 forward 7 unknown #
coedge $-1 $306 $194 $462 $465 forward $315 $-1 #
coedge $-1 $194 $306 $458 $466 reversed $315 $-1 #
loop $-1 $-1 $313 $442 #
vertex $-1 $195 $467 #
vertex $-1 $195 $468 #
straight-curve $-1 61.815851313821838 0 13.04199120679413 0 1 0 I I #
face $-1 $469 $470 $46 $-1 $471 reversed single #
loop $-1 $-1 $472 $196 #
plane-surface $-1 -74.137804562525844 0 -11.469923191123645 1 0 0 0 0 -1 forward_v I I I I #
coedge $-1 $473 $199 $474 $475 reversed $125 $-1 #
coedge $-1 $199 $473 $328 $476 reversed $125 $-1 #
edge $-1 $330 9.8978551754531594 $477 13.04199120679413 $199 $478 forward 7 unknown #
coedge $-1 $201 $200 $479 $480 reversed $79 $-1 #
coedge $-1 $481 $482 $200 $327 forward $483 $-1 #
edge $-1 $484 -13.04199120679413 $331 -9.8978551754531594 $326 $485 forward 7 unknown #
coedge $-1 $486 $202 $323 $476 forward $197 $-1 #
coedge $-1 $202 $486 $481 $487 forward $197 $-1 #
vertex $-1 $324 $488 #
vertex $-1 $487 $489 #
straight-curve $-1 -61.815851313821838 0 -9.8978551754531594 0 -1 0 I I #
face $-1 $490 $491 $47 $-1 $492 reversed single #
loop $-1 $-1 $493 $204 #
plane-surface $-1 74.137804562525844 0 -11.469923191123645 -1 0 0 0 0 1 forward_v I I I I #
coedge $-1 $344 $343 $494 $495 forward $205 $-1 #
coedge $-1 $496 $207 $344 $497 reversed $129 $-1 #
coedge $-1 $207 $496 $498 $499 reversed $129 $-1 #
edge $-1 $500 -13.04199120679413 $346 -9.8978551754531594 $207 $501 forward 7 unknown #
coedge $-1 $209 $208 $502 $503 reversed $82 $-1 #
coedge $-1 $504 $505 $209 $342 forward $506 $-1 #
edge $-1 $345 9.8978551754531594 $507 13.04199120679413 $341 $508 forward 7 unknown #
coedge $-1 $336 $210 $505 $509 forward $205 $-1 #
coedge $-1 $210 $336 $337 $497 forward $205 $-1 #
vertex $-1 $342 $510 #
vertex $-1 $497 $511 #
straight-curve $-1 61.815851313821838 0 -9.8978551754531594 0 1 0 I I #
face $-1 $-1 $512 $48 $-1 $513 reversed single #
loop $-1 $-1 $218 $212 #
plane-surface $-1 0 0 13.04199120679413 0 0 1 1 0 0 forward_v I I I I #
coedge $-1 $514 $515 $516 $517 reversed $213 $-1 #
coedge $-1 $518 $215 $217 $358 forward $133 $-1 #
coedge $-1 $215 $518 $514 $519 forward $133 $-1 #
coedge $-1 $516 $218 $215 $355 forward $349 $-1 #
edge $-1 $361 9.1344203335722725 $520 27.498382994367681 $354 $521 forward 7 unknown #
coedge $-1 $522 $523 $216 $357 forward $512 $-1 #
edge $-1 $524 -32.818872053649237 $360 -21.473786432109186 $356 $525 forward 7 unknown #
edge $-1 $361 -13.527463520098362 $524 -3.9170575986957569e-014 $217 $526 forward 7 unknown #
coedge $-1 $218 $516 $522 $527 forward $349 $-1 #
vertex $-1 $357 $528 #
vertex $-1 $219 $529 #
straight-curve $-1 -27.450821997542249 -64.895643088100925 13.04199120679413 0 1 0 I I #
coedge $-1 $363 $363 $-1 $530 reversed $222 $-1 #
edge $-1 $531 0 $531 6.2831853071796004 $223 $532 forward 7 unknown #
vertex $-1 $226 $533 #
ellipse-curve $-1 -40.56793818382468 -22.421222672301266 7.3694483960240955 0 -0.83867057594974714 0.54463902268945019 2.5 0 0 1 I I #
coedge $-1 $367 $367 $-1 $534 reversed $229 $-1 #
edge $-1 $535 0 $535 6.2831853071796004 $230 $536 forward 7 unknown #
vertex $-1 $233 $537 #
ellipse-curve $-1 -32.697668472055227 -22.421222672301266 7.3694483960240955 0 -0.83867057594974714 0.54463902268945019 2.5 0 0 1 I I #
face $-1 $-1 $383 $51 $-1 $538 forward single #
loop $-1 $-1 $539 $234 #
plane-surface $-1 0 -26.10501492782803 0 0 1 0 0 0 1 forward_v I I I I #
coedge $-1 $540 $541 $542 $543 reversed $235 $-1 #
coedge $-1 $544 $237 $239 $381 forward $147 $-1 #
coedge $-1 $237 $544 $540 $545 forward $147 $-1 #
coedge $-1 $542 $240 $237 $378 forward $383 $-1 #
edge $-1 $385 -27.498382994367674 $546 -9.1344203335722653 $377 $547 forward 7 unknown #
coedge $-1 $548 $549 $238 $380 forward $372 $-1 #
edge $-1 $550 -32.818872053649237 $384 -21.473786432109186 $379 $551 forward 7 unknown #
edge $-1 $385 -13.527463520098362 $550 -3.9170575986957569e-014 $239 $552 forward 7 unknown #
coedge $-1 $240 $542 $548 $553 forward $383 $-1 #
loop $-1 $-1 $542 $371 #
vertex $-1 $380 $554 #
vertex $-1 $241 $555 #
straight-curve $-1 45.814784658337643 -64.895643088100925 13.04199120679413 0 1 0 I I #
coedge $-1 $387 $387 $-1 $556 reversed $244 $-1 #
edge $-1 $557 0 $557 6.2831853071796004 $245 $558 forward 7 unknown #
vertex $-1 $248 $559 #
ellipse-curve $-1 32.697668472055213 -22.421222672301266 7.3694483960240955 0 -0.83867057594974714 0.54463902268945019 2.5 0 0 1 I I #
coedge $-1 $391 $391 $-1 $560 reversed $251 $-1 #
edge $-1 $561 0 $561 6.2831853071796004 $252 $562 forward 7 unknown #
vertex $-1 $255 $563 #
ellipse-curve $-1 40.567938183824666 -22.421222672301266 7.3694483960240955 0 -0.83867057594974714 0.54463902268945019 2.5 0 0 1 I I #
face $-1 $-1 $407 $54 $-1 $564 forward single #
loop $-1 $-1 $565 $256 #
plane-surface $-1 0 26.10501492782803 0 0 -1 0 0 0 -1 forward_v I I I I #
coedge $-1 $566 $567 $568 $569 reversed $257 $-1 #
coedge $-1 $570 $259 $261 $405 forward $161 $-1 #
coedge $-1 $259 $570 $566 $571 forward $161 $-1 #
coedge $-1 $568 $262 $259 $402 forward $407 $-1 #
edge $-1 $409 -27.498382994367681 $572 -9.1344203335722725 $401 $573 forward 7 unknown #
coedge $-1 $574 $575 $260 $404 forward $396 $-1 #
edge $-1 $576 -54.71237995834754 $408 -43.367294336807468 $403 $577 forward 7 unknown #
edge $-1 $409 38.682566335557702 $576 52.210029855656046 $261 $578 forward 7 unknown #
coedge $-1 $262 $568 $574 $579 forward $407 $-1 #
loop $-1 $-1 $568 $395 #
vertex $-1 $404 $580 #
vertex $-1 $263 $581 #
straight-curve $-1 -45.814784658337658 50.677833270515151 13.04199120679413 0 -1 0 I I #
coedge $-1 $411 $411 $-1 $582 reversed $266 $-1 #
edge $-1 $583 0 $583 6.2831853071796004 $267 $584 forward 7 unknown #
vertex $-1 $270 $585 #
ellipse-curve $-1 -40.56793818382468 22.421222672301255 7.3694483960240911 0 0.83867057594974714 0.54463902268945019 2.5 0 0 1 I I #
coedge $-1 $415 $415 $-1 $586 reversed $273 $-1 #
edge $-1 $587 0 $587 6.2831853071796004 $274 $588 forward 7 unknown #
vertex $-1 $277 $589 #
ellipse-curve $-1 -32.697668472055227 22.421222672301255 7.3694483960240911 0 0.83867057594974714 0.54463902268945019 2.5 0 0 1 I I #
face $-1 $-1 $590 $57 $-1 $591 reversed single #
loop $-1 $-1 $284 $278 #
plane-surface $-1 0 0 13.04199120679413 0 0 1 1 0 0 forward_v I I I I #
coedge $-1 $592 $593 $594 $595 reversed $279 $-1 #
coedge $-1 $596 $281 $283 $429 forward $175 $-1 #
coedge $-1 $281 $596 $592 $597 forward $175 $-1 #
coedge $-1 $594 $284 $281 $426 forward $420 $-1 #
edge $-1 $432 9.1344203335722653 $598 27.498382994367674 $425 $599 forward 7 unknown #
coedge $-1 $600 $601 $282 $428 forward $590 $-1 #
edge $-1 $602 -54.71237995834754 $431 -43.367294336807468 $427 $603 forward 7 unknown #
edge $-1 $432 38.682566335557702 $602 52.210029855656046 $283 $604 forward 7 unknown #
coedge $-1 $284 $594 $600 $605 forward $420 $-1 #
vertex $-1 $285 $606 #
vertex $-1 $285 $607 #
straight-curve $-1 27.450821997542235 50.677833270515151 13.04199120679413 0 -1 0 I I #
coedge $-1 $434 $434 $-1 $608 reversed $288 $-1 #
edge $-1 $609 0 $609 6.2831853071796004 $289 $610 forward 7 unknown #
vertex $-1 $292 $611 #
ellipse-curve $-1 32.697668472055213 22.421222672301255 7.3694483960240911 0 0.83867057594974714 0.54463902268945019 2.5 0 0 1 I I #
coedge $-1 $438 $438 $-1 $612 reversed $295 $-1 #
edge $-1 $613 0 $613 6.2831853071796004 $296 $614 forward 7 unknown #
vertex $-1 $299 $615 #
ellipse-curve $-1 40.567938183824666 22.421222672301255 7.3694483960240911 0 0.83867057594974714 0.54463902268945019 2.5 0 0 1 I I #
face $-1 $-1 $315 $45 $-1 $616 reversed single #
loop $-1 $-1 $458 $300 #
plane-surface $-1 0 26.10501492782803 0 0 -1 0 0 0 -1 forward_v I I I I #
coedge $-1 $617 $456 $459 $618 forward $301 $-1 #
coedge $-1 $462 $303 $304 $450 reversed $189 $-1 #
coedge $-1 $456 $617 $303 $448 reversed $301 $-1 #
edge $-1 $463 -13.04199120679413 $619 13.04199120679413 $447 $620 forward 7 unknown #
coedge $-1 $305 $304 $617 $621 forward $121 $-1 #
edge $-1 $454 -61.815851313821838 $619 61.815851313821838 $446 $622 forward 7 unknown #
coedge $-1 $459 $458 $305 $452 reversed $443 $-1 #
edge $-1 $623 -61.815851313821838 $453 61.815851313821838 $451 $624 forward 7 unknown #
vertex $-1 $307 $625 #
vertex $-1 $465 $626 #
straight-curve $-1 61.815851313821838 0 -13.04199120679413 0 -1 0 I I #
coedge $-1 $445 $447 $308 $457 reversed $301 $-1 #
edge $-1 $460 -26.10501492782803 $463 26.10501492782803 $456 $627 forward 7 unknown #
coedge $-1 $451 $309 $314 $466 forward $443 $-1 #
coedge $-1 $309 $451 $445 $618 reversed $443 $-1 #
vertex $-1 $310 $628 #
straight-curve $-1 0 26.10501492782803 13.04199120679413 -1 0 0 I I #
coedge $-1 $311 $446 $313 $465 reversed $189 $-1 #
vertex $-1 $457 $629 #
straight-curve $-1 0 -26.10501492782803 13.04199120679413 1 0 0 I I #
edge $-1 $316 -13.04199120679413 $454 13.04199120679413 $313 $630 forward 7 unknown #
edge $-1 $317 -13.04199120679413 $453 13.04199120679413 $314 $631 forward 7 unknown #
point $-1 61.815851313821838 -26.10501492782803 13.04199120679413 #
point $-1 61.815851313821838 26.10501492782803 13.04199120679413 #
face $-1 $-1 $483 $46 $-1 $632 reversed single #
loop $-1 $-1 $479 $319 #
plane-surface $-1 0 0 -13.04199120679413 0 0 1 1 0 0 forward_v I I I I #
coedge $-1 $633 $634 $473 $635 forward $320 $-1 #
coedge $-1 $323 $322 $472 $635 reversed $125 $-1 #
coedge $-1 $479 $636 $322 $475 forward $470 $-1 #
edge $-1 $637 -74.137804562525844 $477 -61.815851313821838 $322 $638 forward 7 unknown #
edge $-1 $330 -6.1609766243520099 $639 6.1609766243520028 $323 $640 forward 7 unknown #
vertex $-1 $324 $641 #
straight-curve $-1 -61.815851313821838 26.10501492782803 0 0 0 -1 I I #
coedge $-1 $642 $474 $325 $480 forward $470 $-1 #
edge $-1 $477 -26.10501492782803 $484 26.10501492782803 $479 $643 forward 7 unknown #
coedge $-1 $644 $326 $329 $487 reversed $483 $-1 #
coedge $-1 $326 $644 $642 $645 reversed $483 $-1 #
loop $-1 $-1 $326 $469 #
vertex $-1 $645 $646 #
straight-curve $-1 -61.815851313821838 -26.10501492782803 0 0 0 1 I I #
coedge $-1 $329 $328 $634 $647 forward $197 $-1 #
edge $-1 $648 -6.1609766243520028 $331 6.1609766243520099 $481 $649 forward 7 unknown #
point $-1 -61.815851313821831 26.10501492782803 -9.8978551754531594 #
point $-1 -61.815851313821831 -26.10501492782803 -9.8978551754531594 #
face $-1 $-1 $506 $47 $-1 $650 reversed single #
loop $-1 $-1 $502 $333 #
plane-surface $-1 0 0 -13.04199120679413 0 0 1 1 0 0 forward_v I I I I #
coedge $-1 $651 $494 $652 $653 forward $334 $-1 #
coedge $-1 $493 $654 $336 $495 reversed $334 $-1 #
edge $-1 $655 -26.10501492782803 $656 26.10501492782803 $494 $657 forward 7 unknown #
coedge $-1 $338 $337 $654 $658 forward $129 $-1 #
edge $-1 $656 -6.1609766243520028 $346 6.1609766243520028 $337 $659 forward 7 unknown #
coedge $-1 $660 $502 $338 $499 forward $491 $-1 #
edge $-1 $500 -6.1609766243520028 $661 6.1609766243520028 $338 $662 forward 7 unknown #
vertex $-1 $499 $663 #
straight-curve $-1 61.815851313821838 26.10501492782803 0 0 0 1 I I #
coedge $-1 $498 $664 $340 $503 forward $491 $-1 #
edge $-1 $507 -26.10501492782803 $500 26.10501492782803 $502 $665 forward 7 unknown #
coedge $-1 $652 $341 $664 $666 reversed $506 $-1 #
coedge $-1 $341 $652 $343 $509 reversed $506 $-1 #
loop $-1 $-1 $341 $490 #
vertex $-1 $342 $667 #
straight-curve $-1 61.815851313821838 -26.10501492782803 0 0 0 -1 I I #
edge $-1 $345 -6.1609766243520028 $655 6.1609766243520028 $505 $668 forward 7 unknown #
point $-1 61.815851313821838 -26.10501492782803 -9.8978551754531594 #
point $-1 61.815851313821838 26.10501492782803 -9.8978551754531594 #
loop $-1 $-1 $356 $348 #
plane-surface $-1 0 -26.10501492782803 0 0 1 0 0 0 1 forward_v I I I I #
coedge $-1 $515 $351 $353 $519 reversed $213 $-1 #
coedge $-1 $351 $514 $669 $670 reversed $213 $-1 #
coedge $-1 $359 $354 $351 $517 forward $349 $-1 #
edge $-1 $520 -46.158212671326439 $671 -38.790628160272895 $516 $672 forward 7 unknown #
coedge $-1 $353 $352 $523 $673 reversed $133 $-1 #
edge $-1 $674 3.9170575986957569e-014 $520 13.527463520098362 $514 $675 forward 7 unknown #
vertex $-1 $355 $676 #
straight-curve $-1 -18.316401663969977 -18.737430416774494 13.04199120679413 -1 0 0 I I #
coedge $-1 $669 $356 $359 $527 reversed $512 $-1 #
coedge $-1 $356 $669 $518 $673 forward $512 $-1 #
vertex $-1 $357 $677 #
straight-curve $-1 -27.450821997542249 -26.10501492782803 34.515777638903316 0 0 1 I I #
straight-curve $-1 -27.450821997542249 -26.105014927828051 1.6969055852540436 0 -0.54463902268945019 -0.83867057594974714 I I #
edge $-1 $671 -45.814784658337658 $360 -27.450821997542249 $522 $678 forward 7 unknown #
point $-1 -27.450821997542249 -26.10501492782803 13.04199120679413 #
point $-1 -27.450821997542249 -18.73743041677449 13.04199120679413 #
edge $-1 $679 1 $679 0 $363 $-1 forward 7 unknown #
vertex $-1 $364 $680 #
ellipse-curve $-1 -40.56793818382468 -18.900761709472548 5.0832343887661589 0 -0.83867057594974714 0.54463902268945019 2.5 0 0 1 I I #
point $-1 -38.06793818382468 -22.421222672301248 7.3694483960240831 #
edge $-1 $681 1 $681 0 $367 $-1 forward 7 unknown #
vertex $-1 $368 $682 #
ellipse-curve $-1 -32.697668472055227 -18.900761709472548 5.0832343887661589 0 -0.83867057594974714 0.54463902268945019 2.5 0 0 1 I I #
point $-1 -30.197668472055227 -22.421222672301248 7.3694483960240831 #
plane-surface $-1 0 0 13.04199120679413 0 0 1 1 0 0 forward_v I I I I #
coedge $-1 $549 $548 $541 $683 forward $372 $-1 #
coedge $-1 $541 $374 $376 $545 reversed $235 $-1 #
coedge $-1 $374 $540 $539 $683 reversed $235 $-1 #
coedge $-1 $382 $377 $374 $543 forward $383 $-1 #
edge $-1 $546 -46.158212671326439 $684 -38.790628160272895 $542 $685 forward 7 unknown #
coedge $-1 $376 $375 $549 $686 reversed $147 $-1 #
edge $-1 $687 3.9170575986957569e-014 $546 13.527463520098362 $540 $688 forward 7 unknown #
vertex $-1 $378 $689 #
straight-curve $-1 18.31640166396997 -18.737430416774494 13.04199120679413 -1 0 0 I I #
coedge $-1 $539 $379 $382 $553 reversed $372 $-1 #
coedge $-1 $379 $539 $544 $686 forward $372 $-1 #
vertex $-1 $380 $690 #
straight-curve $-1 45.814784658337643 -26.10501492782803 34.515777638903316 0 0 1 I I #
straight-curve $-1 45.814784658337643 -26.105014927828051 1.6969055852540436 0 -0.54463902268945019 -0.83867057594974714 I I #
edge $-1 $684 27.450821997542235 $384 45.814784658337643 $548 $691 forward 7 unknown #
point $-1 45.814784658337643 -26.10501492782803 13.04199120679413 #
point $-1 45.814784658337643 -18.73743041677449 13.04199120679413 #
edge $-1 $692 1 $692 0 $387 $-1 forward 7 unknown #
vertex $-1 $388 $693 #
ellipse-curve $-1 32.697668472055213 -18.900761709472548 5.0832343887661589 0 -0.83867057594974714 0.54463902268945019 2.5 0 0 1 I I #
point $-1 35.197668472055213 -22.421222672301248 7.3694483960240831 #
edge $-1 $694 1 $694 0 $391 $-1 forward 7 unknown #
vertex $-1 $392 $695 #
ellipse-curve $-1 40.567938183824666 -18.900761709472548 5.0832343887661589 0 -0.83867057594974714 0.54463902268945019 2.5 0 0 1 I I #
point $-1 43.067938183824666 -22.421222672301248 7.3694483960240831 #
plane-surface $-1 0 0 13.04199120679413 0 0 1 1 0 0 forward_v I I I I #
coedge $-1 $575 $574 $567 $696 forward $396 $-1 #
coedge $-1 $567 $398 $400 $571 reversed $257 $-1 #
coedge $-1 $398 $566 $565 $696 reversed $257 $-1 #
coedge $-1 $406 $401 $398 $569 forward $407 $-1 #
edge $-1 $572 -31.940402853740675 $697 -24.572818342687121 $568 $698 forward 7 unknown #
coedge $-1 $400 $399 $575 $699 reversed $161 $-1 #
edge $-1 $700 -52.210029855656046 $572 -38.682566335557702 $566 $701 forward 7 unknown #
vertex $-1 $402 $702 #
straight-curve $-1 -18.316401663969977 18.737430416774476 13.04199120679413 1 0 0 I I #
coedge $-1 $565 $403 $406 $579 reversed $396 $-1 #
coedge $-1 $403 $565 $570 $699 forward $396 $-1 #
vertex $-1 $404 $703 #
straight-curve $-1 -45.814784658337658 26.10501492782803 56.409285543601598 0 0 1 I I #
straight-curve $-1 -45.814784658337658 -2.3306047073434968 45.483921394650608 0 0.54463902268945019 -0.83867057594974714 I I #
edge $-1 $697 27.450821997542249 $408 45.814784658337658 $574 $704 forward 7 unknown #
point $-1 -45.814784658337658 26.10501492782803 13.04199120679413 #
point $-1 -45.814784658337658 18.737430416774476 13.04199120679413 #
edge $-1 $705 1 $705 0 $411 $-1 forward 7 unknown #
vertex $-1 $412 $706 #
ellipse-curve $-1 -40.56793818382468 18.900761709472544 5.0832343887661589 0 0.83867057594974714 0.54463902268945019 2.5 0 0 1 I I #
point $-1 -38.06793818382468 22.421222672301244 7.3694483960240831 #
edge $-1 $707 1 $707 0 $415 $-1 forward 7 unknown #
vertex $-1 $416 $708 #
ellipse-curve $-1 -32.697668472055227 18.900761709472544 5.0832343887661589 0 0.83867057594974714 0.54463902268945019 2.5 0 0 1 I I #
point $-1 -30.197668472055227 22.421222672301244 7.3694483960240831 #
loop $-1 $-1 $427 $419 #
plane-surface $-1 0 26.10501492782803 0 0 -1 0 0 0 -1 forward_v I I I I #
coedge $-1 $593 $422 $424 $597 reversed $279 $-1 #
coedge $-1 $422 $592 $709 $710 reversed $279 $-1 #
coedge $-1 $430 $425 $422 $595 forward $420 $-1 #
edge $-1 $598 -31.940402853740675 $711 -24.572818342687121 $594 $712 forward 7 unknown #
coedge $-1 $424 $423 $601 $713 reversed $175 $-1 #
edge $-1 $714 -52.210029855656046 $598 -38.682566335557702 $592 $715 forward 7 unknown #
vertex $-1 $426 $716 #
straight-curve $-1 18.31640166396997 18.737430416774476 13.04199120679413 1 0 0 I I #
coedge $-1 $709 $427 $430 $605 reversed $590 $-1 #
coedge $-1 $427 $709 $596 $713 forward $590 $-1 #
vertex $-1 $428 $717 #
straight-curve $-1 27.450821997542235 26.10501492782803 56.409285543601598 0 0 1 I I #
straight-curve $-1 27.450821997542235 -2.3306047073434968 45.483921394650608 0 0.54463902268945019 -0.83867057594974714 I I #
edge $-1 $711 -45.814784658337643 $431 -27.450821997542235 $600 $718 forward 7 unknown #
point $-1 27.450821997542235 26.10501492782803 13.04199120679413 #
point $-1 27.450821997542235 18.737430416774476 13.04199120679413 #
edge $-1 $719 1 $719 0 $434 $-1 forward 7 unknown #
vertex $-1 $435 $720 #
ellipse-curve $-1 32.697668472055213 18.900761709472544 5.0832343887661589 0 0.83867057594974714 0.54463902268945019 2.5 0 0 1 I I #
point $-1 35.197668472055213 22.421222672301244 7.3694483960240831 #
edge $-1 $721 1 $721 0 $438 $-1 forward 7 unknown #
vertex $-1 $439 $722 #
ellipse-curve $-1 40.567938183824666 18.900761709472544 5.0832343887661589 0 0.83867057594974714 0.54463902268945019 2.5 0 0 1 I I #
point $-1 43.067938183824666 22.421222672301244 7.3694483960240831 #
plane-surface $-1 61.815851313821838 0 0 -1 0 0 0 0 1 forward_v I I I I #
coedge $-1 $447 $445 $449 $621 reversed $301 $-1 #
edge $-1 $460 -13.04199120679413 $623 13.04199120679413 $459 $723 forward 7 unknown #
vertex $-1 $621 $724 #
straight-curve $-1 -61.815851313821838 -26.10501492782803 0 0 0 -1 I I #
edge $-1 $619 -26.10501492782803 $623 26.10501492782803 $617 $725 forward 7 unknown #
straight-curve $-1 0 -26.10501492782803 -13.04199120679413 -1 0 0 I I #
vertex $-1 $452 $726 #
straight-curve $-1 0 26.10501492782803 -13.04199120679413 1 0 0 I I #
point $-1 61.815851313821838 26.10501492782803 -13.04199120679413 #
point $-1 61.815851313821838 -26.10501492782803 -13.04199120679413 #
straight-curve $-1 -61.815851313821838 0 13.04199120679413 0 -1 0 I I #
point $-1 -61.815851313821838 26.10501492782803 13.04199120679413 #
point $-1 -61.815851313821838 -26.10501492782803 13.04199120679413 #
straight-curve $-1 61.815851313821838 -26.10501492782803 0 0 0 -1 I I #
straight-curve $-1 61.815851313821838 26.10501492782803 0 0 0 -1 I I #
plane-surface $-1 0 -26.10501492782803 0 0 1 0 0 0 1 forward_v I I I I #
coedge $-1 $727 $472 $636 $728 reversed $320 $-1 #
coedge $-1 $472 $727 $486 $647 reversed $320 $-1 #
edge $-1 $639 -1.5720680156704852 $637 1.5720680156704852 $473 $729 forward 7 unknown #
coedge $-1 $474 $642 $633 $728 forward $470 $-1 #
vertex $-1 $475 $730 #
straight-curve $-1 0 26.10501492782803 -13.04199120679413 1 0 0 I I #
vertex $-1 $476 $731 #
straight-curve $-1 -67.976827938173841 26.10501492782803 -9.8978551754531594 -1 0 0 I I #
point $-1 -61.815851313821838 26.10501492782803 -13.04199120679413 #
coedge $-1 $636 $479 $482 $645 forward $470 $-1 #
straight-curve $-1 -61.815851313821838 0 -13.04199120679413 0 -1 0 I I #
coedge $-1 $482 $481 $727 $732 forward $483 $-1 #
edge $-1 $484 -6.1609766243520028 $733 6.1609766243520028 $482 $734 forward 7 unknown #
point $-1 -61.815851313821838 -26.10501492782803 -13.04199120679413 #
edge $-1 $639 -26.10501492782803 $648 26.10501492782803 $634 $735 forward 7 unknown #
vertex $-1 $647 $736 #
straight-curve $-1 -67.976827938173841 -26.10501492782803 -9.8978551754531594 1 0 0 I I #
plane-surface $-1 0 -26.10501492782803 0 0 1 0 0 0 1 forward_v I I I I #
coedge $-1 $654 $493 $660 $737 reversed $334 $-1 #
coedge $-1 $505 $504 $493 $653 reversed $506 $-1 #
edge $-1 $655 -1.5720680156704852 $738 1.5720680156704852 $493 $739 forward 7 unknown #
coedge $-1 $494 $651 $496 $658 reversed $334 $-1 #
vertex $-1 $495 $740 #
vertex $-1 $495 $741 #
straight-curve $-1 74.137804562525844 0 -9.8978551754531594 0 1 0 I I #
edge $-1 $656 -1.5720680156704852 $661 1.5720680156704852 $654 $742 forward 7 unknown #
straight-curve $-1 67.976827938173841 26.10501492782803 -9.8978551754531594 -1 0 0 I I #
coedge $-1 $664 $498 $651 $737 forward $491 $-1 #
vertex $-1 $737 $743 #
straight-curve $-1 67.976827938173841 26.10501492782803 -13.04199120679413 1 0 0 I I #
point $-1 61.815851313821838 26.10501492782803 -13.04199120679413 #
coedge $-1 $502 $660 $504 $666 forward $491 $-1 #
straight-curve $-1 61.815851313821838 0 -13.04199120679413 0 1 0 I I #
edge $-1 $738 -6.1609766243520028 $507 6.1609766243520028 $504 $744 forward 7 unknown #
point $-1 61.815851313821838 -26.10501492782803 -13.04199120679413 #
straight-curve $-1 67.976827938173841 -26.10501492782803 -9.8978551754531594 1 0 0 I I #
coedge $-1 $523 $522 $515 $670 forward $512 $-1 #
edge $-1 $671 21.473786432109186 $674 32.818872053649237 $669 $745 forward 7 unknown #
vertex $-1 $527 $746 #
straight-curve $-1 -45.814784658337658 -64.895643088100925 13.04199120679413 0 -1 0 I I #
edge $-1 $674 -27.498382994367681 $524 -9.1344203335722725 $523 $747 forward 7 unknown #
vertex $-1 $673 $748 #
straight-curve $-1 -45.814784658337658 -26.105014927828051 1.6969055852540436 0 0.54463902268945019 0.83867057594974714 I I #
point $-1 -45.814784658337658 -18.73743041677449 13.04199120679413 #
point $-1 -27.450821997542249 -26.10501492782803 1.6969055852540764 #
straight-curve $-1 0 -26.10501492782803 13.04199120679413 1 0 0 I I #
vertex $-1 $530 $749 #
point $-1 -38.06793818382468 -18.900761709472548 5.0832343887661589 #
vertex $-1 $534 $750 #
point $-1 -30.197668472055227 -18.900761709472548 5.0832343887661589 #
edge $-1 $684 21.473786432109186 $687 32.818872053649237 $539 $751 forward 7 unknown #
vertex $-1 $553 $752 #
straight-curve $-1 27.450821997542235 -64.895643088100925 13.04199120679413 0 -1 0 I I #
edge $-1 $687 9.1344203335722653 $550 27.498382994367674 $549 $753 forward 7 unknown #
vertex $-1 $686 $754 #
straight-curve $-1 27.450821997542235 -26.105014927828051 1.6969055852540436 0 0.54463902268945019 0.83867057594974714 I I #
point $-1 27.450821997542235 -18.73743041677449 13.04199120679413 #
point $-1 45.814784658337643 -26.10501492782803 1.6969055852540764 #
straight-curve $-1 0 -26.10501492782803 13.04199120679413 1 0 0 I I #
vertex $-1 $556 $755 #
point $-1 35.197668472055213 -18.900761709472548 5.0832343887661589 #
vertex $-1 $560 $756 #
point $-1 43.067938183824666 -18.900761709472548 5.0832343887661589 #
edge $-1 $697 43.367294336807468 $700 54.71237995834754 $565 $757 forward 7 unknown #
vertex $-1 $579 $758 #
straight-curve $-1 -27.450821997542249 50.677833270515151 13.04199120679413 0 1 0 I I #
edge $-1 $700 9.1344203335722725 $576 27.498382994367681 $575 $759 forward 7 unknown #
vertex $-1 $699 $760 #
straight-curve $-1 -27.450821997542249 -2.3306047073434968 45.483921394650608 0 -0.54463902268945019 0.83867057594974714 I I #
point $-1 -27.450821997542249 18.737430416774476 13.04199120679413 #
point $-1 -45.814784658337658 26.10501492782803 1.6969055852540578 #
straight-curve $-1 0 26.10501492782803 13.04199120679413 -1 0 0 I I #
vertex $-1 $582 $761 #
point $-1 -38.06793818382468 18.900761709472544 5.0832343887661589 #
vertex $-1 $586 $762 #
point $-1 -30.197668472055227 18.900761709472544 5.0832343887661589 #
coedge $-1 $601 $600 $593 $710 forward $590 $-1 #
edge $-1 $711 43.367294336807468 $714 54.71237995834754 $709 $763 forward 7 unknown #
vertex $-1 $605 $764 #
straight-curve $-1 45.814784658337643 50.677833270515151 13.04199120679413 0 1 0 I I #
edge $-1 $714 -27.498382994367674 $602 -9.1344203335722653 $601 $765 forward 7 unknown #
vertex $-1 $713 $766 #
straight-curve $-1 45.814784658337643 -2.3306047073434968 45.483921394650608 0 -0.54463902268945019 0.83867057594974714 I I #
point $-1 45.814784658337643 18.737430416774476 13.04199120679413 #
point $-1 27.450821997542235 26.10501492782803 1.6969055852540578 #
straight-curve $-1 0 26.10501492782803 13.04199120679413 -1 0 0 I I #
vertex $-1 $608 $767 #
point $-1 35.197668472055213 18.900761709472544 5.0832343887661589 #
vertex $-1 $612 $768 #
point $-1 43.067938183824666 18.900761709472544 5.0832343887661589 #
straight-curve $-1 -61.815851313821838 26.10501492782803 0 0 0 -1 I I #
point $-1 -61.815851313821838 -26.10501492782803 -13.04199120679413 #
straight-curve $-1 -61.815851313821838 0 -13.04199120679413 0 1 0 I I #
point $-1 -61.815851313821838 26.10501492782803 -13.04199120679413 #
coedge $-1 $634 $633 $644 $732 reversed $320 $-1 #
edge $-1 $733 -26.10501492782803 $637 26.10501492782803 $633 $769 forward 7 unknown #
straight-curve $-1 -74.137804562525844 26.10501492782803 -11.469923191123645 0 0 -1 I I #
point $-1 -74.137804562525844 26.10501492782803 -13.04199120679413 #
point $-1 -74.137804562525844 26.10501492782803 -9.8978551754531594 #
edge $-1 $648 -1.5720680156704852 $733 1.5720680156704852 $727 $770 forward 7 unknown #
vertex $-1 $728 $771 #
straight-curve $-1 -67.976827938173841 -26.10501492782803 -13.04199120679413 -1 0 0 I I #
straight-curve $-1 -74.137804562525844 0 -9.8978551754531594 0 -1 0 I I #
point $-1 -74.137804562525844 -26.10501492782803 -9.8978551754531594 #
edge $-1 $661 -26.10501492782803 $738 26.10501492782803 $651 $772 forward 7 unknown #
vertex $-1 $653 $773 #
straight-curve $-1 74.137804562525844 -26.10501492782803 -11.469923191123645 0 0 -1 I I #
point $-1 74.137804562525844 -26.10501492782803 -9.8978551754531594 #
point $-1 74.137804562525844 26.10501492782803 -9.8978551754531594 #
straight-curve $-1 74.137804562525844 26.10501492782803 -11.469923191123645 0 0 -1 I I #
point $-1 74.137804562525844 26.10501492782803 -13.04199120679413 #
straight-curve $-1 67.976827938173841 -26.10501492782803 -13.04199120679413 -1 0 0 I I #
straight-curve $-1 -45.814784658337658 -26.10501492782803 34.515777638903316 0 0 -1 I I #
point $-1 -45.814784658337658 -26.10501492782803 13.04199120679413 #
straight-curve $-1 -18.316401663969977 -26.10501492782803 1.6969055852540773 1 0 0 I I #
point $-1 -45.814784658337658 -26.10501492782803 1.6969055852540764 #
point $-1 -40.56793818382468 -16.804085269598183 3.7216368320425337 #
point $-1 -32.697668472055227 -16.804085269598183 3.7216368320425337 #
straight-curve $-1 27.450821997542235 -26.10501492782803 34.515777638903316 0 0 -1 I I #
point $-1 27.450821997542235 -26.10501492782803 13.04199120679413 #
straight-curve $-1 18.31640166396997 -26.10501492782803 1.6969055852540773 1 0 0 I I #
point $-1 27.450821997542235 -26.10501492782803 1.6969055852540764 #
point $-1 32.697668472055213 -16.804085269598183 3.7216368320425337 #
point $-1 40.567938183824666 -16.804085269598183 3.7216368320425337 #
straight-curve $-1 -27.450821997542249 26.10501492782803 56.409285543601598 0 0 -1 I I #
point $-1 -27.450821997542249 26.10501492782803 13.04199120679413 #
straight-curve $-1 -18.316401663969977 26.10501492782803 1.6969055852540542 -1 0 0 I I #
point $-1 -27.450821997542249 26.10501492782803 1.6969055852540578 #
point $-1 -40.56793818382468 16.804085269598179 3.7216368320425337 #
point $-1 -32.697668472055227 16.804085269598179 3.7216368320425337 #
straight-curve $-1 45.814784658337643 26.10501492782803 56.409285543601598 0 0 -1 I I #
point $-1 45.814784658337643 26.10501492782803 13.04199120679413 #
straight-curve $-1 18.31640166396997 26.10501492782803 1.6969055852540542 -1 0 0 I I #
point $-1 45.814784658337643 26.10501492782803 1.6969055852540578 #
point $-1 32.697668472055213 16.804085269598179 3.7216368320425337 #
point $-1 40.567938183824666 16.804085269598179 3.7216368320425337 #
straight-curve $-1 -74.137804562525844 0 -13.04199120679413 0 1 0 I I #
straight-curve $-1 -74.137804562525844 -26.10501492782803 -11.469923191123645 0 0 -1 I I #
point $-1 -74.137804562525844 -26.10501492782803 -13.04199120679413 #
straight-curve $-1 74.137804562525844 0 -13.04199120679413 0 -1 0 I I #
point $-1 74.137804562525844 -26.10501492782803 -13.04199120679413 #
End-of-ACIS-data 