500 0 11 0           
7 Unknown 11 ACIS 5.0 NT 24 Thu Mar 25 21:49:31 1999 
-1 9.9999999999999995e-007 1e-010 
body $-1 $11 $-1 $12 #
body $-1 $13 $-1 $14 #
body $-1 $15 $-1 $16 #
body $-1 $17 $-1 $18 #
body $-1 $19 $-1 $20 #
body $-1 $21 $-1 $22 #
body $-1 $23 $-1 $24 #
body $-1 $25 $-1 $26 #
body $-1 $27 $-1 $28 #
body $-1 $29 $-1 $30 #
body $-1 $31 $-1 $32 #
lump $-1 $-1 $33 $0 #
transform $-1 1 0 0 0 1 0 0 0 1 52.405163731803341 29.941489662532724 7.3833500357747326 1 rotate no_reflect no_shear #
lump $-1 $-1 $34 $1 #
transform $-1 1 0 0 0 1 0 0 0 1 52.405163731803341 29.941489662532724 7.3833500357747326 1 rotate no_reflect no_shear #
lump $-1 $-1 $35 $2 #
transform $-1 1 0 0 0 1 0 0 0 1 52.405163731803341 29.941489662532724 7.3833500357747326 1 rotate no_reflect no_shear #
lump $-1 $-1 $36 $3 #
transform $-1 1 0 0 0 1 0 0 0 1 52.405163731803341 29.941489662532724 7.3833500357747326 1 rotate no_reflect no_shear #
lump $-1 $-1 $37 $4 #
transform $-1 1 0 0 0 1 0 0 0 1 52.405163731803341 29.941489662532724 7.3833500357747326 1 rotate no_reflect no_shear #
lump $-1 $-1 $38 $5 #
transform $-1 1 0 0 0 1 0 0 0 1 52.405163731803341 29.941489662532724 7.3833500357747326 1 rotate no_reflect no_shear #
lump $-1 $-1 $39 $6 #
transform $-1 1 0 0 0 1 0 0 0 1 52.405163731803341 29.941489662532724 7.3833500357747326 1 rotate no_reflect no_shear #
lump $-1 $-1 $40 $7 #
transform $-1 1 0 0 0 1 0 0 0 1 52.405163731803341 29.941489662532724 7.3833500357747326 1 rotate no_reflect no_shear #
lump $-1 $-1 $41 $8 #
transform $-1 1 0 0 0 1 0 0 0 1 52.405163731803341 29.941489662532724 7.3833500357747326 1 rotate no_reflect no_shear #
lump $-1 $-1 $42 $9 #
transform $-1 1 0 0 0 1 0 0 0 1 52.405163731803341 29.941489662532724 7.3833500357747326 1 rotate no_reflect no_shear #
lump $-1 $-1 $43 $10 #
transform $-1 1 0 0 0 1 0 0 0 1 52.405163731803341 29.941489662532724 7.3833500357747326 1 rotate no_reflect no_shear #
shell $-1 $-1 $-1 $44 $-1 $11 #
shell $-1 $-1 $-1 $45 $-1 $13 #
shell $-1 $-1 $-1 $46 $-1 $15 #
shell $-1 $-1 $-1 $47 $-1 $17 #
shell $-1 $-1 $-1 $48 $-1 $19 #
shell $-1 $-1 $-1 $49 $-1 $21 #
shell $-1 $-1 $-1 $50 $-1 $23 #
shell $-1 $-1 $-1 $51 $-1 $25 #
shell $-1 $-1 $-1 $52 $-1 $27 #
shell $-1 $-1 $-1 $53 $-1 $29 #
shell $-1 $-1 $-1 $54 $-1 $31 #
face $-1 $55 $56 $33 $-1 $57 forward single #
face $-1 $58 $59 $34 $-1 $60 forward single #
face $-1 $61 $62 $35 $-1 $63 reversed single #
face $-1 $64 $65 $36 $-1 $66 forward single #
face $-1 $67 $68 $37 $-1 $69 forward single #
face $-1 $70 $71 $38 $-1 $72 reversed single #
face $-1 $73 $74 $39 $-1 $75 forward single #
face $-1 $76 $77 $40 $-1 $78 forward single #
face $-1 $79 $80 $41 $-1 $81 reversed single #
face $-1 $82 $83 $42 $-1 $84 forward single #
face $-1 $85 $86 $43 $-1 $87 forward single #
face $-1 $88 $89 $33 $-1 $90 reversed single #
loop $-1 $-1 $91 $44 #
plane-surface $-1 0 0 7.3833500357747326 0 0 1 1 0 0 forward_v I I I I #
face $-1 $92 $93 $34 $-1 $94 forward single #
loop $-1 $-1 $95 $45 #
plane-surface $-1 0 -29.941489662532724 0 0 1 0 0 0 1 forward_v I I I I #
face $-1 $96 $97 $35 $-1 $98 reversed single #
loop $-1 $-1 $99 $46 #
plane-surface $-1 42.065568715777019 -12.637569574395853 150.46795390092035 0 -1 0 -0.6560590369687036 0 -0.75470957328743171 forward_v I I I I #
face $-1 $100 $101 $36 $-1 $102 forward single #
loop $-1 $103 $104 $47 #
cone-surface $-1 48.694822640806485 -18.900963948981776 3.8876513802861625 -0.6560590369687036 0 -0.75470957328743171 0.75470957328743171 0 -0.6560590369687036 1 I I 0 1 1 forward I I I I #
face $-1 $105 $106 $37 $-1 $107 forward single #
loop $-1 $108 $109 $48 #
cone-surface $-1 48.694822640806485 -15.142927324230222 3.8876513802861625 -0.6560590369687036 0 -0.75470957328743171 0.75470957328743171 0 -0.6560590369687036 1 I I 0 1 1 forward I I I I #
face $-1 $110 $111 $38 $-1 $112 reversed single #
loop $-1 $-1 $113 $49 #
plane-surface $-1 -131.50652284360172 -21.406321698816146 69.423938547129922 0 1 0 -0.75470958851134928 0 0.65605901945558964 forward_v I I I I #
face $-1 $114 $115 $39 $-1 $116 forward single #
loop $-1 $117 $118 $50 #
cone-surface $-1 -48.206324056510084 -19.187809632027939 2.9122268464166416 0.75470958851134928 0 -0.65605901945558964 0.65605901945558964 0 0.75470958851134928 1 I I 0 1 1 forward I I I I #
face $-1 $119 $120 $40 $-1 $121 forward single #
loop $-1 $122 $123 $51 #
cone-surface $-1 -48.206324056510084 -15.860041531845628 2.9122268464166416 0.75470958851134928 0 -0.65605901945558964 0.65605901945558964 0 0.75470958851134928 1 I I 0 1 1 forward I I I I #
face $-1 $124 $125 $41 $-1 $126 reversed single #
loop $-1 $-1 $127 $52 #
plane-surface $-1 -131.50652284360172 22.176697428773998 69.423938547129922 0 1 0 -0.75470958851134928 0 0.65605901945558964 forward_v I I I I #
face $-1 $128 $129 $42 $-1 $130 forward single #
loop $-1 $131 $132 $53 #
cone-surface $-1 -48.206324056510084 24.395209495562206 2.9122268464166416 0.75470958851134928 0 -0.65605901945558964 0.65605901945558964 0 0.75470958851134928 1 I I 0 1 1 forward I I I I #
face $-1 $133 $134 $43 $-1 $135 forward single #
loop $-1 $136 $137 $54 #
cone-surface $-1 -48.206324056510084 27.722977595744517 2.9122268464166416 0.75470958851134928 0 -0.65605901945558964 0.65605901945558964 0 0.75470958851134928 1 I I 0 1 1 forward I I I I #
face $-1 $138 $139 $33 $-1 $140 reversed single #
loop $-1 $-1 $141 $55 #
plane-surface $-1 0 0 -7.3833500357747326 0 0 1 1 0 0 forward_v I I I I #
coedge $-1 $142 $143 $144 $145 forward $56 $-1 #
face $-1 $146 $147 $34 $-1 $148 reversed single #
loop $-1 $-1 $149 $58 #
plane-surface $-1 0 0 7.3833500357747326 0 0 1 1 0 0 forward_v I I I I #
coedge $-1 $150 $151 $152 $153 forward $59 $-1 #
face $-1 $154 $155 $35 $-1 $156 reversed single #
loop $-1 $-1 $157 $61 #
plane-surface $-1 -26.696193784371246 -17.021945636605999 71.366596384745762 0.6560590369687036 0 0.75470957328743171 0.75470957328743171 0 -0.6560590369687036 forward_v I I I I #
coedge $-1 $158 $159 $160 $161 reversed $62 $-1 #
face $-1 $-1 $162 $36 $-1 $163 forward single #
loop $-1 $164 $165 $64 #
cone-surface $-1 47.40497897949848 -18.900963948981776 2.403856013742498 -0.6560590369687036 0 -0.75470957328743171 0.37735478664371586 0 -0.3280295184843518 1 I I -0.70710678118654746 0.70710678118654746 0.5 forward I I I I #
loop $-1 $-1 $166 $47 #
coedge $-1 $104 $104 $167 $168 reversed $65 $-1 #
face $-1 $-1 $169 $37 $-1 $170 forward single #
loop $-1 $171 $172 $67 #
cone-surface $-1 47.40497897949848 -15.142927324230222 2.403856013742498 -0.6560590369687036 0 -0.75470957328743171 0.37735478664371586 0 -0.3280295184843518 1 I I -0.70710678118654746 0.70710678118654746 0.5 forward I I I I #
loop $-1 $-1 $173 $48 #
coedge $-1 $109 $109 $174 $175 reversed $68 $-1 #
face $-1 $176 $177 $38 $-1 $178 reversed single #
loop $-1 $-1 $179 $70 #
plane-surface $-1 -52.405163731803341 -17.523925581936783 0.66217788253686649 -0.75470958851134928 0 0.65605901945558964 0.65605901945558964 0 0.75470958851134928 forward_v I I I I #
coedge $-1 $180 $181 $182 $183 reversed $71 $-1 #
face $-1 $-1 $184 $39 $-1 $185 forward single #
loop $-1 $186 $187 $73 #
cone-surface $-1 -46.55144242011535 -19.187809632027939 1.4736602239496968 0.75470958851134928 0 -0.65605901945558964 0.32802950972779482 0 0.37735479425567464 1 I I -0.70710678118654746 0.70710678118654746 0.5 forward I I I I #
loop $-1 $-1 $188 $50 #
coedge $-1 $118 $118 $189 $190 reversed $74 $-1 #
face $-1 $-1 $191 $40 $-1 $192 forward single #
loop $-1 $193 $194 $76 #
cone-surface $-1 -46.55144242011535 -15.860041531845628 1.4736602239496968 0.75470958851134928 0 -0.65605901945558964 0.32802950972779482 0 0.37735479425567464 1 I I -0.70710678118654746 0.70710678118654746 0.5 forward I I I I #
loop $-1 $-1 $195 $51 #
coedge $-1 $123 $123 $196 $197 reversed $77 $-1 #
face $-1 $198 $199 $41 $-1 $200 forward single #
loop $-1 $-1 $201 $79 #
plane-surface $-1 -52.405163731803341 26.059093545653361 0.66217788253686649 -0.75470958851134928 0 0.65605901945558964 0.65605901945558964 0 0.75470958851134928 forward_v I I I I #
coedge $-1 $202 $203 $204 $205 reversed $80 $-1 #
face $-1 $-1 $206 $42 $-1 $207 forward single #
loop $-1 $208 $209 $82 #
cone-surface $-1 -46.55144242011535 24.395209495562206 1.4736602239496968 0.75470958851134928 0 -0.65605901945558964 0.32802950972779482 0 0.37735479425567464 1 I I -0.70710678118654746 0.70710678118654746 0.5 forward I I I I #
loop $-1 $-1 $210 $53 #
coedge $-1 $132 $132 $211 $212 reversed $83 $-1 #
face $-1 $-1 $213 $43 $-1 $214 forward single #
loop $-1 $215 $216 $85 #
cone-surface $-1 -46.55144242011535 27.722977595744517 1.4736602239496968 0.75470958851134928 0 -0.65605901945558964 0.32802950972779482 0 0.37735479425567464 1 I I -0.70710678118654746 0.70710678118654746 0.5 forward I I I I #
loop $-1 $-1 $217 $54 #
coedge $-1 $137 $137 $218 $219 reversed $86 $-1 #
face $-1 $220 $221 $33 $-1 $222 reversed single #
loop $-1 $-1 $223 $88 #
plane-surface $-1 0 -29.941489662532724 0 0 1 0 0 0 1 forward_v I I I I #
coedge $-1 $224 $225 $226 $227 forward $89 $-1 #
coedge $-1 $228 $91 $229 $230 forward $56 $-1 #
coedge $-1 $91 $228 $231 $232 forward $56 $-1 #
coedge $-1 $233 $234 $91 $145 reversed $235 $-1 #
edge $-1 $236 -29.941489662532724 $237 29.941489662532724 $144 $238 forward 7 unknown #
face $-1 $239 $240 $34 $-1 $241 reversed single #
loop $-1 $-1 $242 $92 #
plane-surface $-1 -52.405163731803341 0 0 1 0 0 0 0 -1 forward_v I I I I #
coedge $-1 $243 $244 $151 $245 forward $93 $-1 #
coedge $-1 $246 $95 $247 $248 reversed $59 $-1 #
coedge $-1 $95 $246 $149 $245 reversed $59 $-1 #
coedge $-1 $249 $250 $95 $153 reversed $251 $-1 #
edge $-1 $252 -7.3833500357747326 $253 7.3833500357747326 $152 $254 forward 7 unknown #
face $-1 $255 $256 $35 $-1 $257 forward single #
loop $-1 $-1 $258 $96 #
plane-surface $-1 42.065568715777019 -21.406321698816143 150.46795390092035 0 1 0 0.6560590369687036 0 0.75470957328743171 forward_v I I I I #
coedge $-1 $259 $260 $261 $262 reversed $97 $-1 #
coedge $-1 $159 $99 $263 $264 reversed $62 $-1 #
coedge $-1 $99 $158 $259 $265 reversed $62 $-1 #
coedge $-1 $261 $266 $99 $161 forward $256 $-1 #
edge $-1 $267 -31.372379373914832 $268 -25.875325477568431 $160 $269 forward 7 unknown #
loop $-1 $-1 $167 $100 #
plane-surface $-1 -26.696193784371246 -17.021945636605999 71.366596384745762 0.6560590369687036 0 0.75470957328743171 0.75470957328743171 0 -0.6560590369687036 forward_v I I I I #
loop $-1 $-1 $270 $64 #
coedge $-1 $165 $165 $166 $271 reversed $101 $-1 #
coedge $-1 $166 $166 $165 $271 forward $103 $-1 #
coedge $-1 $167 $167 $104 $168 forward $162 $-1 #
edge $-1 $272 0 $272 6.2831853071796004 $167 $273 forward 7 unknown #
loop $-1 $-1 $174 $105 #
plane-surface $-1 -26.696193784371246 -17.021945636605999 71.366596384745762 0.6560590369687036 0 0.75470957328743171 0.75470957328743171 0 -0.6560590369687036 forward_v I I I I #
loop $-1 $-1 $274 $67 #
coedge $-1 $172 $172 $173 $275 reversed $106 $-1 #
coedge $-1 $173 $173 $172 $275 forward $108 $-1 #
coedge $-1 $174 $174 $109 $175 forward $169 $-1 #
edge $-1 $276 0 $276 6.2831853071796004 $174 $277 forward 7 unknown #
face $-1 $278 $279 $38 $-1 $280 reversed single #
loop $-1 $-1 $281 $110 #
plane-surface $-1 -131.50652284360172 -13.64152946505742 69.423938547129922 0 -1 0 0.75470958851134928 0 -0.65605901945558964 forward_v I I I I #
coedge $-1 $282 $283 $284 $285 reversed $111 $-1 #
coedge $-1 $181 $113 $286 $287 reversed $71 $-1 #
coedge $-1 $113 $180 $282 $288 reversed $71 $-1 #
coedge $-1 $284 $289 $113 $183 forward $290 $-1 #
edge $-1 $291 13.348097689997516 $292 19.190723356305902 $182 $293 forward 7 unknown #
loop $-1 $-1 $189 $114 #
plane-surface $-1 -52.405163731803341 -17.523925581936783 0.66217788253686649 -0.75470958851134928 0 0.65605901945558964 0.65605901945558964 0 0.75470958851134928 forward_v I I I I #
loop $-1 $-1 $294 $73 #
coedge $-1 $187 $187 $188 $295 reversed $115 $-1 #
coedge $-1 $188 $188 $187 $295 forward $117 $-1 #
coedge $-1 $189 $189 $118 $190 forward $184 $-1 #
edge $-1 $296 0 $296 6.2831853071796004 $189 $297 forward 7 unknown #
loop $-1 $-1 $196 $119 #
plane-surface $-1 -52.405163731803341 -17.523925581936783 0.66217788253686649 -0.75470958851134928 0 0.65605901945558964 0.65605901945558964 0 0.75470958851134928 forward_v I I I I #
loop $-1 $-1 $298 $76 #
coedge $-1 $194 $194 $195 $299 reversed $120 $-1 #
coedge $-1 $195 $195 $194 $299 forward $122 $-1 #
coedge $-1 $196 $196 $123 $197 forward $191 $-1 #
edge $-1 $300 0 $300 6.2831853071796004 $196 $301 forward 7 unknown #
face $-1 $302 $303 $41 $-1 $304 reversed single #
loop $-1 $-1 $204 $124 #
plane-surface $-1 0 0 7.3833500357747326 0 0 1 1 0 0 forward_v I I I I #
coedge $-1 $305 $306 $307 $308 reversed $125 $-1 #
coedge $-1 $203 $127 $309 $310 reversed $80 $-1 #
coedge $-1 $127 $202 $305 $311 reversed $80 $-1 #
coedge $-1 $307 $312 $127 $205 forward $199 $-1 #
edge $-1 $313 13.348097689997516 $314 19.190723356305902 $204 $315 forward 7 unknown #
loop $-1 $-1 $211 $128 #
plane-surface $-1 -52.405163731803341 26.059093545653361 0.66217788253686649 -0.75470958851134928 0 0.65605901945558964 0.65605901945558964 0 0.75470958851134928 forward_v I I I I #
loop $-1 $-1 $316 $82 #
coedge $-1 $209 $209 $210 $317 reversed $129 $-1 #
coedge $-1 $210 $210 $209 $317 forward $131 $-1 #
coedge $-1 $211 $211 $132 $212 forward $206 $-1 #
edge $-1 $318 0 $318 6.2831853071796004 $211 $319 forward 7 unknown #
loop $-1 $-1 $218 $133 #
plane-surface $-1 -52.405163731803341 26.059093545653361 0.66217788253686649 -0.75470958851134928 0 0.65605901945558964 0.65605901945558964 0 0.75470958851134928 forward_v I I I I #
loop $-1 $-1 $320 $85 #
coedge $-1 $216 $216 $217 $321 reversed $134 $-1 #
coedge $-1 $217 $217 $216 $321 forward $136 $-1 #
coedge $-1 $218 $218 $137 $219 forward $213 $-1 #
edge $-1 $322 0 $322 6.2831853071796004 $218 $323 forward 7 unknown #
face $-1 $324 $325 $33 $-1 $326 reversed single #
loop $-1 $-1 $327 $138 #
plane-surface $-1 -52.405163731803341 0 0 1 0 0 0 0 -1 forward_v I I I I #
coedge $-1 $328 $231 $329 $330 forward $139 $-1 #
coedge $-1 $331 $141 $328 $332 forward $89 $-1 #
coedge $-1 $141 $331 $333 $334 forward $89 $-1 #
coedge $-1 $234 $233 $141 $227 reversed $235 $-1 #
edge $-1 $335 -29.941489662532724 $336 29.941489662532724 $226 $337 forward 7 unknown #
coedge $-1 $143 $142 $338 $339 forward $56 $-1 #
coedge $-1 $340 $341 $142 $230 reversed $325 $-1 #
edge $-1 $237 -52.405163731803341 $342 52.405163731803341 $229 $343 forward 7 unknown #
coedge $-1 $223 $344 $143 $232 reversed $139 $-1 #
edge $-1 $345 -52.405163731803341 $236 52.405163731803341 $231 $346 forward 7 unknown #
coedge $-1 $226 $144 $344 $347 forward $235 $-1 #
coedge $-1 $144 $226 $340 $348 reversed $235 $-1 #
loop $-1 $-1 $233 $324 #
vertex $-1 $145 $349 #
vertex $-1 $145 $350 #
straight-curve $-1 52.405163731803341 0 7.3833500357747326 0 1 0 I I #
face $-1 $351 $251 $34 $-1 $352 reversed single #
loop $-1 $-1 $353 $146 #
plane-surface $-1 -50.349871801467572 -38.476657626249299 0 0 1 0 0 0 1 forward_v I I I I #
coedge $-1 $354 $355 $246 $356 forward $147 $-1 #
coedge $-1 $357 $149 $355 $358 forward $93 $-1 #
coedge $-1 $149 $357 $249 $359 forward $93 $-1 #
edge $-1 $252 48.294579871131802 $360 52.405163731803341 $149 $361 forward 7 unknown #
coedge $-1 $151 $150 $242 $356 reversed $59 $-1 #
coedge $-1 $362 $363 $150 $248 forward $364 $-1 #
edge $-1 $365 -52.405163731803341 $253 -48.294579871131802 $247 $366 forward 7 unknown #
coedge $-1 $367 $152 $244 $359 reversed $251 $-1 #
coedge $-1 $152 $367 $362 $368 reversed $251 $-1 #
loop $-1 $-1 $367 $239 #
vertex $-1 $245 $369 #
vertex $-1 $368 $370 #
straight-curve $-1 -48.294579871131802 -29.941489662532724 0 0 0 -1 I I #
face $-1 $-1 $371 $35 $-1 $372 reversed single #
loop $-1 $-1 $160 $154 #
plane-surface $-1 0 0 7.3833500357747326 0 0 1 1 0 0 forward_v I I I I #
coedge $-1 $373 $374 $375 $376 reversed $155 $-1 #
coedge $-1 $377 $157 $159 $265 forward $97 $-1 #
coedge $-1 $157 $377 $373 $378 forward $97 $-1 #
coedge $-1 $375 $160 $157 $262 forward $256 $-1 #
edge $-1 $268 4.1265967560928534 $379 12.895348880513144 $261 $380 forward 7 unknown #
coedge $-1 $381 $382 $158 $264 forward $371 $-1 #
edge $-1 $383 -72.629143065862678 $267 -67.850626914685449 $263 $384 forward 7 unknown #
edge $-1 $268 97.526659558876361 $383 104.81032746360668 $159 $385 forward 7 unknown #
coedge $-1 $160 $375 $381 $386 forward $256 $-1 #
vertex $-1 $264 $387 #
vertex $-1 $161 $388 #
straight-curve $-1 21.032784357888509 -12.637569574395853 7.3833500357747397 -1 0 0 I I #
coedge $-1 $270 $270 $-1 $389 reversed $164 $-1 #
edge $-1 $390 0 $390 6.2831853071796004 $165 $391 forward 7 unknown #
vertex $-1 $168 $392 #
ellipse-curve $-1 49.656636783630148 -18.900963948981776 4.9940919601861236 0.6560590369687036 0 0.75470957328743171 0.75470957328743171 0 -0.6560590369687036 1 I I #
coedge $-1 $274 $274 $-1 $393 reversed $171 $-1 #
edge $-1 $394 0 $394 6.2831853071796004 $172 $395 forward 7 unknown #
vertex $-1 $175 $396 #
ellipse-curve $-1 49.656636783630148 -15.142927324230222 4.9940919601861236 0.6560590369687036 0 0.75470957328743171 0.75470957328743171 0 -0.6560590369687036 1 I I #
face $-1 $-1 $290 $38 $-1 $397 forward single #
loop $-1 $-1 $398 $176 #
plane-surface $-1 -52.405163731803341 0 0 1 0 0 0 0 -1 forward_v I I I I #
coedge $-1 $399 $400 $401 $402 reversed $177 $-1 #
coedge $-1 $403 $179 $181 $288 forward $111 $-1 #
coedge $-1 $179 $403 $399 $404 forward $111 $-1 #
coedge $-1 $401 $182 $179 $285 forward $290 $-1 #
edge $-1 $292 -12.644358907847755 $405 -4.8795666740890287 $284 $406 forward 7 unknown #
coedge $-1 $407 $408 $180 $287 forward $279 $-1 #
edge $-1 $409 -34.049791391028094 $291 -27.328619237790228 $286 $410 forward 7 unknown #
edge $-1 $292 -8.9056403357684335 $409 0 $181 $411 forward 7 unknown #
coedge $-1 $182 $401 $407 $412 forward $290 $-1 #
loop $-1 $-1 $401 $278 #
vertex $-1 $287 $413 #
vertex $-1 $183 $414 #
straight-curve $-1 -65.753261421800858 -21.406321698816146 7.3833500357747326 1 0 0 I I #
coedge $-1 $294 $294 $-1 $415 reversed $186 $-1 #
edge $-1 $416 0 $416 6.2831853071796004 $187 $417 forward 7 unknown #
vertex $-1 $190 $418 #
ellipse-curve $-1 -49.483850898649152 -19.187809632027939 4.0227639591557987 -0.75470958851134928 0 0.65605901945558964 0.65605901945558964 0 0.75470958851134928 1 I I #
coedge $-1 $298 $298 $-1 $419 reversed $193 $-1 #
edge $-1 $420 0 $420 6.2831853071796004 $194 $421 forward 7 unknown #
vertex $-1 $197 $422 #
ellipse-curve $-1 -49.483850898649152 -15.860041531845628 4.0227639591557987 -0.75470958851134928 0 0.65605901945558964 0.65605901945558964 0 0.75470958851134928 1 I I #
face $-1 $-1 $423 $41 $-1 $424 reversed single #
loop $-1 $-1 $425 $198 #
plane-surface $-1 0 29.941489662532724 0 0 -1 0 0 0 -1 forward_v I I I I #
coedge $-1 $426 $201 $203 $311 forward $125 $-1 #
coedge $-1 $201 $426 $425 $427 reversed $125 $-1 #
coedge $-1 $428 $204 $201 $308 forward $199 $-1 #
edge $-1 $314 9.1471506559473177 $429 16.911942889706044 $307 $430 forward 7 unknown #
coedge $-1 $431 $432 $202 $310 forward $423 $-1 #
edge $-1 $433 -34.049791391028094 $313 -27.328619237790228 $309 $434 forward 7 unknown #
edge $-1 $314 -8.9056403357684335 $433 0 $203 $435 forward 7 unknown #
coedge $-1 $204 $428 $431 $436 forward $199 $-1 #
vertex $-1 $310 $437 #
vertex $-1 $205 $438 #
straight-curve $-1 -65.753261421800858 22.176697428773998 7.3833500357747326 1 0 0 I I #
coedge $-1 $316 $316 $-1 $439 reversed $208 $-1 #
edge $-1 $440 0 $440 6.2831853071796004 $209 $441 forward 7 unknown #
vertex $-1 $212 $442 #
ellipse-curve $-1 -49.483850898649152 24.395209495562206 4.0227639591557987 -0.75470958851134928 0 0.65605901945558964 0.65605901945558964 0 0.75470958851134928 1 I I #
coedge $-1 $320 $320 $-1 $443 reversed $215 $-1 #
edge $-1 $444 0 $444 6.2831853071796004 $216 $445 forward 7 unknown #
vertex $-1 $219 $446 #
ellipse-curve $-1 -49.483850898649152 27.722977595744517 4.0227639591557987 -0.75470958851134928 0 0.65605901945558964 0.65605901945558964 0 0.75470958851134928 1 I I #
face $-1 $-1 $235 $33 $-1 $447 reversed single #
loop $-1 $-1 $340 $220 #
plane-surface $-1 0 29.941489662532724 0 0 -1 0 0 0 -1 forward_v I I I I #
coedge $-1 $448 $338 $341 $449 forward $221 $-1 #
coedge $-1 $344 $223 $224 $332 reversed $139 $-1 #
coedge $-1 $338 $448 $223 $330 reversed $221 $-1 #
edge $-1 $345 -7.3833500357747326 $450 7.3833500357747326 $329 $451 forward 7 unknown #
coedge $-1 $225 $224 $448 $452 forward $89 $-1 #
edge $-1 $336 -52.405163731803341 $450 52.405163731803341 $328 $453 forward 7 unknown #
coedge $-1 $341 $340 $225 $334 reversed $325 $-1 #
edge $-1 $454 -52.405163731803341 $335 52.405163731803341 $333 $455 forward 7 unknown #
vertex $-1 $227 $456 #
vertex $-1 $347 $457 #
straight-curve $-1 52.405163731803341 0 -7.3833500357747326 0 -1 0 I I #
coedge $-1 $327 $329 $228 $339 reversed $221 $-1 #
edge $-1 $342 -29.941489662532724 $345 29.941489662532724 $338 $458 forward 7 unknown #
coedge $-1 $333 $229 $234 $348 forward $325 $-1 #
coedge $-1 $229 $333 $327 $449 reversed $325 $-1 #
vertex $-1 $230 $459 #
straight-curve $-1 0 29.941489662532724 7.3833500357747326 -1 0 0 I I #
coedge $-1 $231 $328 $233 $347 reversed $139 $-1 #
vertex $-1 $339 $460 #
straight-curve $-1 0 -29.941489662532724 7.3833500357747326 1 0 0 I I #
edge $-1 $236 -7.3833500357747326 $336 7.3833500357747326 $233 $461 forward 7 unknown #
edge $-1 $237 -7.3833500357747326 $335 7.3833500357747326 $234 $462 forward 7 unknown #
point $-1 52.405163731803341 -29.941489662532724 7.3833500357747326 #
point $-1 52.405163731803341 29.941489662532724 7.3833500357747326 #
face $-1 $-1 $364 $34 $-1 $463 reversed single #
plane-surface $-1 -48.294579871131802 -34.209073644391012 0 -1 0 0 0 0 1 forward_v I I I I #
coedge $-1 $464 $465 $466 $467 forward $240 $-1 #
coedge $-1 $466 $242 $363 $468 reversed $147 $-1 #
coedge $-1 $242 $466 $243 $358 reversed $147 $-1 #
edge $-1 $360 -7.3833500357747326 $365 7.3833500357747326 $242 $469 forward 7 unknown #
coedge $-1 $244 $243 $465 $470 forward $93 $-1 #
edge $-1 $360 29.941489662532724 $471 38.476657626249299 $355 $472 forward 7 unknown #
edge $-1 $473 -4.2675839818582872 $252 4.2675839818582872 $249 $474 forward 7 unknown #
vertex $-1 $358 $475 #
straight-curve $-1 0 -29.941489662532724 7.3833500357747326 -1 0 0 I I #
coedge $-1 $476 $247 $250 $368 forward $364 $-1 #
coedge $-1 $247 $476 $354 $468 forward $364 $-1 #
loop $-1 $-1 $247 $351 #
vertex $-1 $356 $477 #
straight-curve $-1 0 -29.941489662532724 -7.3833500357747326 1 0 0 I I #
coedge $-1 $250 $249 $478 $479 forward $251 $-1 #
edge $-1 $253 -4.2675839818582872 $480 4.2675839818582872 $250 $481 forward 7 unknown #
point $-1 -48.294579871131802 -29.941489662532724 7.3833500357747326 #
point $-1 -48.294579871131802 -29.941489662532724 -7.3833500357747326 #
loop $-1 $-1 $263 $255 #
plane-surface $-1 52.405163731803341 0 0 -1 0 0 0 0 1 forward_v I I I I #
coedge $-1 $374 $258 $260 $378 reversed $155 $-1 #
coedge $-1 $258 $373 $482 $483 reversed $155 $-1 #
coedge $-1 $266 $261 $258 $376 forward $256 $-1 #
edge $-1 $379 25.875325477568431 $484 31.372379373914832 $375 $485 forward 7 unknown #
coedge $-1 $260 $259 $382 $486 reversed $97 $-1 #
edge $-1 $487 -104.81032746360668 $379 -97.526659558876361 $373 $488 forward 7 unknown #
vertex $-1 $262 $489 #
straight-curve $-1 46.908109835456941 -8.5109728183029993 7.3833500357747397 0 -1 0 I I #
coedge $-1 $482 $263 $266 $386 reversed $371 $-1 #
coedge $-1 $263 $482 $377 $486 forward $371 $-1 #
vertex $-1 $264 $490 #
straight-curve $-1 52.405163731803341 -12.637569574395853 75.233976950460175 0 0 1 I I #
straight-curve $-1 -26.696193784371246 -12.637569574395853 71.366596384745762 0.75470957328743171 0 -0.6560590369687036 I I #
edge $-1 $484 -21.406321698816143 $267 -12.637569574395853 $381 $491 forward 7 unknown #
point $-1 52.405163731803341 -12.637569574395853 7.3833500357747326 #
point $-1 46.908109835456941 -12.637569574395853 7.3833500357747326 #
edge $-1 $492 1 $492 0 $270 $-1 forward 7 unknown #
vertex $-1 $271 $493 #
ellipse-curve $-1 47.73300849798283 -18.900963948981776 2.7812108003862139 0.6560590369687036 0 0.75470957328743171 0.75470957328743171 0 -0.6560590369687036 1 I I #
point $-1 50.411346356917569 -18.900963948981776 4.3380329232174084 #
edge $-1 $494 1 $494 0 $274 $-1 forward 7 unknown #
vertex $-1 $275 $495 #
ellipse-curve $-1 47.73300849798283 -15.142927324230222 2.7812108003862139 0.6560590369687036 0 0.75470957328743171 0.75470957328743171 0 -0.6560590369687036 1 I I #
point $-1 50.411346356917569 -15.142927324230222 4.3380329232174084 #
plane-surface $-1 0 0 7.3833500357747326 0 0 1 1 0 0 forward_v I I I I #
coedge $-1 $408 $407 $400 $496 forward $279 $-1 #
coedge $-1 $400 $281 $283 $404 reversed $177 $-1 #
coedge $-1 $281 $399 $398 $496 reversed $177 $-1 #
coedge $-1 $289 $284 $281 $402 forward $290 $-1 #
edge $-1 $405 -19.190723356305902 $497 -13.348097689997516 $401 $498 forward 7 unknown #
coedge $-1 $283 $282 $408 $499 reversed $111 $-1 #
edge $-1 $500 0 $405 8.9056403357684335 $399 $501 forward 7 unknown #
vertex $-1 $285 $502 #
straight-curve $-1 -46.562538065494955 -8.7619627909683917 7.3833500357747326 0 1 0 I I #
coedge $-1 $398 $286 $289 $412 reversed $279 $-1 #
coedge $-1 $286 $398 $403 $499 forward $279 $-1 #
vertex $-1 $287 $503 #
straight-curve $-1 -52.405163731803341 -21.406321698816146 34.711969273564961 0 0 1 I I #
straight-curve $-1 -52.405163731803341 -21.406321698816146 0.66217788253686649 -0.65605901945558964 0 -0.75470958851134928 I I #
edge $-1 $497 13.64152946505742 $291 21.406321698816146 $407 $504 forward 7 unknown #
point $-1 -52.405163731803341 -21.406321698816146 7.3833500357747326 #
point $-1 -46.562538065494955 -21.406321698816146 7.3833500357747326 #
edge $-1 $505 1 $505 0 $294 $-1 forward 7 unknown #
vertex $-1 $295 $506 #
ellipse-curve $-1 -46.928797214371023 -19.187809632027939 1.8016897336774915 -0.75470958851134928 0 0.65605901945558964 0.65605901945558964 0 0.75470958851134928 1 I I #
point $-1 -48.827791879193548 -19.187809632027939 4.7774735476671415 #
edge $-1 $507 1 $507 0 $298 $-1 forward 7 unknown #
vertex $-1 $299 $508 #
ellipse-curve $-1 -46.928797214371023 -15.860041531845628 1.8016897336774915 -0.75470958851134928 0 0.65605901945558964 0.65605901945558964 0 0.75470958851134928 1 I I #
point $-1 -48.827791879193548 -15.860041531845628 4.7774735476671415 #
loop $-1 $-1 $309 $302 #
plane-surface $-1 -52.405163731803341 0 0 1 0 0 0 0 -1 forward_v I I I I #
coedge $-1 $509 $510 $306 $427 forward $303 $-1 #
coedge $-1 $306 $305 $432 $511 reversed $125 $-1 #
edge $-1 $429 8.034923831754476 $512 16.940564167522908 $425 $513 forward 7 unknown #
coedge $-1 $312 $307 $510 $514 forward $199 $-1 #
vertex $-1 $514 $515 #
straight-curve $-1 -46.562538065494955 13.029546772826681 7.3833500357747326 0 1 0 I I #
coedge $-1 $516 $309 $312 $436 reversed $423 $-1 #
coedge $-1 $309 $516 $426 $511 forward $423 $-1 #
vertex $-1 $310 $517 #
straight-curve $-1 -52.405163731803341 22.176697428773998 34.711969273564961 0 0 1 I I #
straight-curve $-1 -52.405163731803341 22.176697428773998 0.66217788253686649 -0.65605901945558964 0 -0.75470958851134928 I I #
edge $-1 $518 -29.941489662532724 $313 -22.176697428773998 $431 $519 forward 7 unknown #
point $-1 -52.405163731803341 22.176697428773998 7.3833500357747326 #
point $-1 -46.562538065494955 22.176697428773998 7.3833500357747326 #
edge $-1 $520 1 $520 0 $316 $-1 forward 7 unknown #
vertex $-1 $317 $521 #
ellipse-curve $-1 -46.928797214371023 24.395209495562206 1.8016897336774915 -0.75470958851134928 0 0.65605901945558964 0.65605901945558964 0 0.75470958851134928 1 I I #
point $-1 -48.827791879193548 24.395209495562206 4.7774735476671415 #
edge $-1 $522 1 $522 0 $320 $-1 forward 7 unknown #
vertex $-1 $321 $523 #
ellipse-curve $-1 -46.928797214371023 27.722977595744517 1.8016897336774915 -0.75470958851134928 0 0.65605901945558964 0.65605901945558964 0 0.75470958851134928 1 I I #
point $-1 -48.827791879193548 27.722977595744517 4.7774735476671415 #
plane-surface $-1 52.405163731803341 0 0 -1 0 0 0 0 1 forward_v I I I I #
coedge $-1 $329 $327 $331 $452 reversed $221 $-1 #
edge $-1 $342 -7.3833500357747326 $454 7.3833500357747326 $341 $524 forward 7 unknown #
vertex $-1 $452 $525 #
straight-curve $-1 -52.405163731803341 -29.941489662532724 0 0 0 -1 I I #
edge $-1 $450 -29.941489662532724 $454 29.941489662532724 $448 $526 forward 7 unknown #
straight-curve $-1 0 -29.941489662532724 -7.3833500357747326 -1 0 0 I I #
vertex $-1 $334 $527 #
straight-curve $-1 0 29.941489662532724 -7.3833500357747326 1 0 0 I I #
point $-1 52.405163731803341 29.941489662532724 -7.3833500357747326 #
point $-1 52.405163731803341 -29.941489662532724 -7.3833500357747326 #
straight-curve $-1 -52.405163731803341 0 7.3833500357747326 0 -1 0 I I #
point $-1 -52.405163731803341 29.941489662532724 7.3833500357747326 #
point $-1 -52.405163731803341 -29.941489662532724 7.3833500357747326 #
straight-curve $-1 52.405163731803341 -29.941489662532724 0 0 0 -1 I I #
straight-curve $-1 52.405163731803341 29.941489662532724 0 0 0 -1 I I #
plane-surface $-1 0 0 -7.3833500357747326 0 0 1 1 0 0 forward_v I I I I #
coedge $-1 $478 $353 $476 $528 reversed $240 $-1 #
coedge $-1 $353 $478 $357 $470 reversed $240 $-1 #
coedge $-1 $355 $354 $353 $467 reversed $147 $-1 #
edge $-1 $471 -7.3833500357747326 $529 7.3833500357747326 $466 $530 forward 7 unknown #
edge $-1 $529 -38.476657626249299 $365 -29.941489662532724 $354 $531 forward 7 unknown #
straight-curve $-1 -52.405163731803341 -29.941489662532724 0 0 0 -1 I I #
edge $-1 $471 -2.0552919303357697 $473 2.0552919303357697 $465 $532 forward 7 unknown #
vertex $-1 $358 $533 #
straight-curve $-1 -52.405163731803341 0 7.3833500357747326 0 -1 0 I I #
vertex $-1 $359 $534 #
straight-curve $-1 -48.294579871131802 -34.209073644391012 7.3833500357747326 0 1 0 I I #
point $-1 -52.405163731803341 -29.941489662532724 7.3833500357747326 #
coedge $-1 $363 $362 $464 $528 forward $364 $-1 #
point $-1 -52.405163731803341 -29.941489662532724 -7.3833500357747326 #
coedge $-1 $465 $464 $367 $479 reversed $240 $-1 #
edge $-1 $473 -7.3833500357747326 $480 7.3833500357747326 $367 $535 forward 7 unknown #
vertex $-1 $479 $536 #
straight-curve $-1 -48.294579871131802 -34.209073644391012 -7.3833500357747326 0 -1 0 I I #
coedge $-1 $382 $381 $374 $483 forward $371 $-1 #
edge $-1 $484 67.850626914685449 $487 72.629143065862678 $482 $537 forward 7 unknown #
vertex $-1 $386 $538 #
straight-curve $-1 21.032784357888509 -21.406321698816143 7.3833500357747397 1 0 0 I I #
edge $-1 $487 -12.895348880513144 $383 -4.1265967560928534 $382 $539 forward 7 unknown #
vertex $-1 $486 $540 #
straight-curve $-1 -26.696193784371246 -21.406321698816143 71.366596384745762 -0.75470957328743171 0 0.6560590369687036 I I #
point $-1 46.908109835456941 -21.406321698816143 7.3833500357747326 #
point $-1 52.405163731803341 -12.637569574395853 2.6048338845974968 #
straight-curve $-1 52.405163731803341 0 7.3833500357747326 0 1 0 I I #
vertex $-1 $389 $541 #
point $-1 48.487718071270265 -18.900963948981776 2.1251517634175103 #
vertex $-1 $393 $542 #
point $-1 48.487718071270265 -15.142927324230222 2.1251517634175103 #
edge $-1 $497 27.328619237790228 $500 34.049791391028094 $398 $543 forward 7 unknown #
vertex $-1 $412 $544 #
straight-curve $-1 -65.753261421800858 -13.64152946505742 7.3833500357747326 -1 0 0 I I #
edge $-1 $500 4.8795666740890287 $409 12.644358907847755 $408 $545 forward 7 unknown #
vertex $-1 $499 $546 #
straight-curve $-1 -52.405163731803341 -13.64152946505742 0.66217788253686649 0.65605901945558964 0 0.75470958851134928 I I #
point $-1 -46.562538065494955 -13.64152946505742 7.3833500357747326 #
point $-1 -52.405163731803341 -21.406321698816146 0.66217788253686649 #
straight-curve $-1 -52.405163731803341 0 7.3833500357747326 0 -1 0 I I #
vertex $-1 $415 $547 #
point $-1 -46.272738194915433 -19.187809632027939 2.5563993221888408 #
vertex $-1 $419 $548 #
point $-1 -46.272738194915433 -15.860041531845628 2.5563993221888408 #
coedge $-1 $510 $425 $516 $549 reversed $303 $-1 #
coedge $-1 $425 $509 $428 $514 reversed $303 $-1 #
edge $-1 $512 -16.911942889706044 $433 -9.1471506559473177 $432 $550 forward 7 unknown #
vertex $-1 $427 $551 #
straight-curve $-1 -41.291153815033766 29.941489662532724 13.447384094558188 -0.65605901945558975 0 -0.75470958851134939 I I #
edge $-1 $429 46.562538065494955 $518 52.405163731803341 $510 $552 forward 7 unknown #
point $-1 -46.562538065494955 29.941489662532724 7.3833500357747326 #
coedge $-1 $432 $431 $509 $549 forward $423 $-1 #
point $-1 -52.405163731803341 22.176697428773998 0.66217788253686649 #
vertex $-1 $514 $553 #
straight-curve $-1 -52.405163731803341 0 7.3833500357747326 0 -1 0 I I #
vertex $-1 $439 $554 #
point $-1 -46.272738194915433 24.395209495562206 2.5563993221888408 #
vertex $-1 $443 $555 #
point $-1 -46.272738194915433 27.722977595744517 2.5563993221888408 #
straight-curve $-1 -52.405163731803341 29.941489662532724 0 0 0 -1 I I #
point $-1 -52.405163731803341 -29.941489662532724 -7.3833500357747326 #
straight-curve $-1 -52.405163731803341 0 -7.3833500357747326 0 1 0 I I #
point $-1 -52.405163731803341 29.941489662532724 -7.3833500357747326 #
edge $-1 $480 -2.0552919303357697 $529 2.0552919303357697 $464 $556 forward 7 unknown #
vertex $-1 $468 $557 #
straight-curve $-1 -52.405163731803341 -38.476657626249299 0 0 0 -1 I I #
straight-curve $-1 -52.405163731803341 0 -7.3833500357747326 0 1 0 I I #
straight-curve $-1 -50.349871801467572 -38.476657626249299 7.3833500357747326 1 0 0 I I #
point $-1 -52.405163731803341 -38.476657626249299 7.3833500357747326 #
point $-1 -48.294579871131802 -38.476657626249299 7.3833500357747326 #
straight-curve $-1 -48.294579871131802 -38.476657626249299 0 0 0 -1 I I #
point $-1 -48.294579871131802 -38.476657626249299 -7.3833500357747326 #
straight-curve $-1 52.405163731803341 -21.406321698816143 75.233976950460175 0 0 -1 I I #
point $-1 52.405163731803341 -21.406321698816143 7.3833500357747326 #
straight-curve $-1 52.405163731803341 -8.5109728183029993 2.6048338845974897 0 1 0 I I #
point $-1 52.405163731803341 -21.406321698816143 2.6048338845974968 #
point $-1 47.076949461014131 -18.900963948981776 2.0265012270987821 #
point $-1 47.076949461014131 -15.142927324230222 2.0265012270987821 #
straight-curve $-1 -52.405163731803341 -13.64152946505742 34.711969273564961 0 0 -1 I I #
point $-1 -52.405163731803341 -13.64152946505742 7.3833500357747326 #
straight-curve $-1 -52.405163731803341 -8.7619627909683917 0.6621778825368636 0 -1 0 I I #
point $-1 -52.405163731803341 -13.64152946505742 0.66217788253686649 #
point $-1 -46.174087625859677 -19.187809632027939 1.145630714221902 #
point $-1 -46.174087625859677 -15.860041531845628 1.145630714221902 #
edge $-1 $518 -7.3833500357747326 $512 -0.66217788253686649 $509 $558 forward 7 unknown #
straight-curve $-1 -52.405163731803341 13.029546772826681 0.6621778825368636 0 -1 0 I I #
point $-1 -52.405163731803341 29.941489662532724 0.66217788253686649 #
straight-curve $-1 0 29.941489662532724 7.3833500357747326 -1 0 0 I I #
point $-1 -52.405163731803341 29.941489662532724 7.3833500357747326 #
point $-1 -46.174087625859677 24.395209495562206 1.145630714221902 #
point $-1 -46.174087625859677 27.722977595744517 1.145630714221902 #
straight-curve $-1 -50.349871801467572 -38.476657626249299 -7.3833500357747326 -1 0 0 I I #
point $-1 -52.405163731803341 -38.476657626249299 -7.3833500357747326 #
straight-curve $-1 -52.405163731803341 29.941489662532724 0 0 0 -1 I I #
End-of-ACIS-data 