500 0 6 0           
7 Unknown 11 ACIS 5.0 NT 24 Fri Mar 26 19:56:25 1999 
-1 9.9999999999999995e-007 1e-010 
body $-1 $6 $-1 $7 #
body $-1 $8 $-1 $9 #
body $-1 $10 $-1 $11 #
body $-1 $12 $-1 $13 #
body $-1 $14 $-1 $15 #
body $-1 $16 $-1 $17 #
lump $-1 $-1 $18 $0 #
transform $-1 1 0 0 0 1 0 0 0 1 64.6699423200171 44.659107877532726 19.98299837882044 1 rotate no_reflect no_shear #
lump $-1 $-1 $19 $1 #
transform $-1 1 0 0 0 1 0 0 0 1 64.6699423200171 44.659107877532726 19.98299837882044 1 rotate no_reflect no_shear #
lump $-1 $-1 $20 $2 #
transform $-1 1 0 0 0 1 0 0 0 1 64.6699423200171 44.659107877532726 19.98299837882044 1 rotate no_reflect no_shear #
lump $-1 $-1 $21 $3 #
transform $-1 1 0 0 0 1 0 0 0 1 64.6699423200171 44.659107877532726 19.98299837882044 1 rotate no_reflect no_shear #
lump $-1 $-1 $22 $4 #
transform $-1 1 0 0 0 1 0 0 0 1 64.6699423200171 44.659107877532726 19.98299837882044 1 rotate no_reflect no_shear #
lump $-1 $-1 $23 $5 #
transform $-1 1 0 0 0 1 0 0 0 1 64.6699423200171 44.659107877532726 19.98299837882044 1 rotate no_reflect no_shear #
shell $-1 $-1 $-1 $24 $-1 $6 #
shell $-1 $-1 $-1 $25 $-1 $8 #
shell $-1 $-1 $-1 $26 $-1 $10 #
shell $-1 $-1 $-1 $27 $-1 $12 #
shell $-1 $-1 $-1 $28 $-1 $14 #
shell $-1 $-1 $-1 $29 $-1 $16 #
face $-1 $30 $31 $18 $-1 $32 forward single #
face $-1 $33 $34 $19 $-1 $35 reversed single #
face $-1 $36 $37 $20 $-1 $38 reversed single #
face $-1 $39 $40 $21 $-1 $41 forward single #
face $-1 $42 $43 $22 $-1 $44 reversed single #
face $-1 $45 $46 $23 $-1 $47 forward single #
face $-1 $48 $49 $18 $-1 $50 reversed single #
loop $-1 $-1 $51 $24 #
plane-surface $-1 0 0 19.98299837882044 0 0 1 1 0 0 forward_v I I I I #
face $-1 $52 $53 $19 $-1 $54 reversed single #
loop $-1 $-1 $55 $25 #
plane-surface $-1 -51.98086946750108 0 10.17768679904961 0 0 1 1 0 0 forward_v I I I I #
face $-1 $56 $57 $20 $-1 $58 reversed single #
loop $-1 $-1 $59 $26 #
plane-surface $-1 -29.491942458806946 -11.550665676564691 77.331296287804847 0 0.77714596973225614 0.62932038083071107 1 0 0 forward_v I I I I #
face $-1 $60 $61 $21 $-1 $62 forward single #
loop $-1 $63 $64 $27 #
cone-surface $-1 -29.491942458806946 39.128158660219427 13.427438006051528 0 -0.77714596973225614 -0.62932038083071107 1 0 0 1 I I 0 1 1 forward I I I I #
face $-1 $65 $66 $22 $-1 $67 reversed single #
loop $-1 $-1 $68 $28 #
plane-surface $-1 -19.692088302628843 -145.17507795117024 89.3142303483462 -1 0 0 0 -0.77714596973225614 0.62932038083071107 forward_v I I I I #
face $-1 $69 $70 $23 $-1 $71 forward single #
loop $-1 $72 $73 $29 #
cone-surface $-1 -29.491942458806946 -39.128158660219434 13.427438006051535 0 0.77714596973225614 -0.62932038083071107 1 0 0 1 I I 0 1 1 forward I I I I #
face $-1 $74 $75 $18 $-1 $76 reversed single #
loop $-1 $-1 $77 $30 #
plane-surface $-1 0 0 -19.98299837882044 0 0 1 1 0 0 forward_v I I I I #
coedge $-1 $78 $79 $80 $81 forward $31 $-1 #
face $-1 $82 $83 $19 $-1 $84 reversed single #
loop $-1 $-1 $85 $33 #
plane-surface $-1 -39.29179661498506 0 15.080342588935025 -1 0 0 0 0 1 forward_v I I I I #
coedge $-1 $86 $87 $85 $88 forward $34 $-1 #
face $-1 $89 $90 $20 $-1 $91 forward single #
loop $-1 $-1 $92 $36 #
plane-surface $-1 -19.692088302628843 88.965304397072828 158.7275217460714 -1 0 0 0 0.77714596973225614 0.62932038083071107 forward_v I I I I #
coedge $-1 $93 $94 $95 $96 reversed $37 $-1 #
face $-1 $-1 $97 $21 $-1 $98 forward single #
loop $-1 $99 $100 $39 #
cone-surface $-1 -29.491942458806946 38.093655870590176 12.589714187237661 0 -0.77714596973225614 -0.62932038083071107 0.5 0 0 1 I I -0.70710678118654746 0.70710678118654746 0.5 forward I I I I #
loop $-1 $-1 $101 $27 #
coedge $-1 $64 $64 $102 $103 reversed $40 $-1 #
face $-1 $104 $105 $22 $-1 $106 forward single #
loop $-1 $-1 $107 $42 #
plane-surface $-1 -29.491942458806946 -44.659107877532719 7.9180048900796436 0 -0.77714596973225614 0.62932038083071107 1 0 0 forward_v I I I I #
coedge $-1 $108 $109 $110 $111 reversed $43 $-1 #
face $-1 $-1 $112 $23 $-1 $113 forward single #
loop $-1 $114 $115 $45 #
cone-surface $-1 -29.491942458806946 -38.093655870590183 12.589714187237668 0 0.77714596973225614 -0.62932038083071107 0.5 0 0 1 I I -0.70710678118654746 0.70710678118654746 0.5 forward I I I I #
loop $-1 $-1 $116 $29 #
coedge $-1 $73 $73 $117 $118 reversed $46 $-1 #
face $-1 $119 $120 $18 $-1 $121 reversed single #
loop $-1 $-1 $122 $48 #
plane-surface $-1 0 -44.659107877532726 0 0 1 0 0 0 1 forward_v I I I I #
coedge $-1 $123 $124 $125 $126 forward $49 $-1 #
coedge $-1 $127 $51 $128 $129 forward $31 $-1 #
coedge $-1 $51 $127 $130 $131 forward $31 $-1 #
coedge $-1 $132 $133 $51 $81 reversed $134 $-1 #
edge $-1 $135 -44.659107877532726 $136 44.659107877532726 $80 $137 forward 7 unknown #
face $-1 $138 $139 $19 $-1 $140 reversed single #
loop $-1 $-1 $141 $52 #
plane-surface $-1 0 44.659107877532726 0 0 -1 0 0 0 -1 forward_v I I I I #
coedge $-1 $142 $143 $55 $88 reversed $53 $-1 #
coedge $-1 $144 $55 $145 $146 reversed $34 $-1 #
coedge $-1 $55 $144 $147 $148 reversed $34 $-1 #
edge $-1 $149 -44.659107877532726 $150 44.659107877532726 $85 $151 forward 7 unknown #
face $-1 $152 $153 $20 $-1 $154 reversed single #
loop $-1 $-1 $95 $56 #
plane-surface $-1 0 0 19.98299837882044 0 0 1 1 0 0 forward_v I I I I #
coedge $-1 $155 $156 $157 $158 reversed $57 $-1 #
coedge $-1 $159 $59 $160 $161 reversed $37 $-1 #
coedge $-1 $59 $159 $155 $162 forward $37 $-1 #
coedge $-1 $157 $163 $59 $96 forward $90 $-1 #
edge $-1 $164 -24.545825385581587 $165 -4.9461170732253699 $95 $166 forward 7 unknown #
loop $-1 $-1 $102 $60 #
plane-surface $-1 -29.491942458806946 -11.550665676564691 77.331296287804847 0 0.77714596973225614 0.62932038083071107 1 0 0 forward_v I I I I #
loop $-1 $-1 $167 $39 #
coedge $-1 $100 $100 $101 $168 reversed $61 $-1 #
coedge $-1 $101 $101 $100 $168 forward $63 $-1 #
coedge $-1 $102 $102 $64 $103 forward $97 $-1 #
edge $-1 $169 -3.8113411006269834e-015 $169 6.2831853071795969 $102 $170 forward 7 unknown #
face $-1 $171 $172 $22 $-1 $173 forward single #
loop $-1 $-1 $174 $65 #
plane-surface $-1 -39.29179661498506 0 15.080342588935025 -1 0 0 0 0 1 forward_v I I I I #
coedge $-1 $175 $176 $177 $178 reversed $66 $-1 #
coedge $-1 $109 $68 $179 $180 reversed $43 $-1 #
coedge $-1 $68 $108 $175 $181 reversed $43 $-1 #
coedge $-1 $177 $182 $68 $111 forward $172 $-1 #
edge $-1 $183 27.928431098052393 $184 37.698469923152757 $110 $185 forward 7 unknown #
loop $-1 $-1 $117 $69 #
plane-surface $-1 -29.491942458806946 -44.659107877532719 7.9180048900796436 0 -0.77714596973225614 0.62932038083071107 1 0 0 forward_v I I I I #
loop $-1 $-1 $186 $45 #
coedge $-1 $115 $115 $116 $187 reversed $70 $-1 #
coedge $-1 $116 $116 $115 $187 forward $72 $-1 #
coedge $-1 $117 $117 $73 $118 forward $112 $-1 #
edge $-1 $188 5.5219542341849321e-015 $188 6.2831853071796058 $117 $189 forward 7 unknown #
face $-1 $190 $191 $18 $-1 $192 reversed single #
loop $-1 $-1 $193 $74 #
plane-surface $-1 -64.6699423200171 0 0 1 0 0 0 0 -1 forward_v I I I I #
coedge $-1 $194 $130 $195 $196 forward $75 $-1 #
coedge $-1 $197 $77 $194 $198 forward $49 $-1 #
coedge $-1 $77 $197 $199 $200 forward $49 $-1 #
coedge $-1 $133 $132 $77 $126 reversed $134 $-1 #
edge $-1 $201 -44.659107877532726 $202 44.659107877532726 $125 $203 forward 7 unknown #
coedge $-1 $79 $78 $204 $205 forward $31 $-1 #
coedge $-1 $206 $207 $78 $129 reversed $191 $-1 #
edge $-1 $136 -64.6699423200171 $208 64.6699423200171 $128 $209 forward 7 unknown #
coedge $-1 $122 $210 $79 $131 reversed $75 $-1 #
edge $-1 $211 -64.6699423200171 $135 64.6699423200171 $130 $212 forward 7 unknown #
coedge $-1 $125 $80 $210 $213 forward $134 $-1 #
coedge $-1 $80 $125 $206 $214 reversed $134 $-1 #
loop $-1 $-1 $132 $190 #
vertex $-1 $81 $215 #
vertex $-1 $81 $216 #
straight-curve $-1 64.6699423200171 0 19.98299837882044 0 1 0 I I #
face $-1 $217 $218 $19 $-1 $219 forward single #
loop $-1 $-1 $220 $82 #
plane-surface $-1 -64.6699423200171 0 0 1 0 0 0 0 -1 forward_v I I I I #
coedge $-1 $147 $221 $142 $222 forward $83 $-1 #
coedge $-1 $223 $85 $141 $222 reversed $53 $-1 #
coedge $-1 $85 $223 $224 $225 reversed $53 $-1 #
coedge $-1 $87 $86 $220 $226 reversed $34 $-1 #
coedge $-1 $224 $227 $86 $146 forward $228 $-1 #
edge $-1 $229 -38.67950758626656 $150 -13.30136188123452 $145 $230 forward 7 unknown #
coedge $-1 $231 $141 $87 $148 forward $83 $-1 #
edge $-1 $149 13.30136188123452 $232 38.67950758626656 $147 $233 forward 7 unknown #
vertex $-1 $148 $234 #
vertex $-1 $146 $235 #
straight-curve $-1 -39.29179661498506 0 10.17768679904961 0 -1 0 I I #
face $-1 $-1 $236 $20 $-1 $237 forward single #
loop $-1 $-1 $238 $89 #
plane-surface $-1 0 44.659107877532726 0 0 -1 0 0 0 -1 forward_v I I I I #
coedge $-1 $156 $92 $94 $162 reversed $57 $-1 #
coedge $-1 $92 $155 $238 $239 reversed $57 $-1 #
coedge $-1 $240 $95 $92 $158 forward $90 $-1 #
edge $-1 $165 -9.5935831461040664 $241 0.17645567899631232 $157 $242 forward 7 unknown #
coedge $-1 $94 $93 $243 $244 reversed $37 $-1 #
coedge $-1 $245 $246 $93 $161 forward $236 $-1 #
edge $-1 $247 -61.494642204320527 $164 -45.969896585556675 $160 $248 forward 7 unknown #
edge $-1 $249 -89.318215755065467 $165 -73.793470136301622 $155 $250 forward 7 unknown #
coedge $-1 $95 $240 $245 $251 forward $90 $-1 #
vertex $-1 $161 $252 #
vertex $-1 $96 $253 #
straight-curve $-1 -14.745971229403473 34.889069052432347 19.98299837882044 1 0 0 I I #
coedge $-1 $167 $167 $-1 $254 reversed $99 $-1 #
edge $-1 $255 0 $255 6.2831853071796004 $100 $256 forward 7 unknown #
vertex $-1 $103 $257 #
ellipse-curve $-1 -29.491942458806946 39.774088464982533 13.950501634450028 0 0.77714596973225614 0.62932038083071107 1 0 0 1 I I #
face $-1 $-1 $258 $22 $-1 $259 reversed single #
loop $-1 $-1 $177 $104 #
plane-surface $-1 0 0 19.98299837882044 0 0 1 1 0 0 forward_v I I I I #
coedge $-1 $260 $261 $176 $262 reversed $105 $-1 #
coedge $-1 $263 $107 $109 $181 forward $66 $-1 #
coedge $-1 $107 $263 $174 $262 forward $66 $-1 #
coedge $-1 $264 $110 $107 $178 forward $172 $-1 #
edge $-1 $184 4.9461170732253699 $265 24.545825385581587 $177 $266 forward 7 unknown #
coedge $-1 $267 $268 $108 $180 forward $258 $-1 #
edge $-1 $269 -36.739110284093464 $183 -24.67411679535266 $179 $270 forward 7 unknown #
edge $-1 $184 -15.524745618763813 $269 1.1374033043381581e-014 $109 $271 forward 7 unknown #
coedge $-1 $110 $264 $267 $272 forward $172 $-1 #
vertex $-1 $180 $273 #
vertex $-1 $111 $274 #
straight-curve $-1 -19.692088302628843 -72.587538975585119 19.98299837882044 0 1 0 I I #
coedge $-1 $186 $186 $-1 $275 reversed $114 $-1 #
edge $-1 $276 0 $276 6.2831853071796004 $115 $277 forward 7 unknown #
vertex $-1 $118 $278 #
ellipse-curve $-1 -29.491942458806946 -39.774088464982547 13.950501634450038 0 -0.77714596973225614 0.62932038083071107 1 0 0 1 I I #
face $-1 $-1 $134 $18 $-1 $279 reversed single #
loop $-1 $-1 $206 $119 #
plane-surface $-1 0 44.659107877532726 0 0 -1 0 0 0 -1 forward_v I I I I #
coedge $-1 $280 $204 $207 $281 forward $120 $-1 #
coedge $-1 $210 $122 $123 $198 reversed $75 $-1 #
coedge $-1 $204 $280 $122 $196 reversed $120 $-1 #
edge $-1 $211 -19.98299837882044 $282 19.98299837882044 $195 $283 forward 7 unknown #
coedge $-1 $124 $123 $280 $284 forward $49 $-1 #
edge $-1 $202 -64.6699423200171 $282 64.6699423200171 $194 $285 forward 7 unknown #
coedge $-1 $207 $206 $124 $200 reversed $191 $-1 #
edge $-1 $286 -64.6699423200171 $201 64.6699423200171 $199 $287 forward 7 unknown #
vertex $-1 $126 $288 #
vertex $-1 $213 $289 #
straight-curve $-1 64.6699423200171 0 -19.98299837882044 0 -1 0 I I #
coedge $-1 $193 $195 $127 $205 reversed $120 $-1 #
edge $-1 $208 -44.659107877532726 $211 44.659107877532726 $204 $290 forward 7 unknown #
coedge $-1 $199 $128 $133 $214 forward $191 $-1 #
coedge $-1 $128 $199 $193 $281 reversed $191 $-1 #
vertex $-1 $129 $291 #
straight-curve $-1 0 44.659107877532726 19.98299837882044 -1 0 0 I I #
coedge $-1 $130 $194 $132 $213 reversed $75 $-1 #
vertex $-1 $205 $292 #
straight-curve $-1 0 -44.659107877532726 19.98299837882044 1 0 0 I I #
edge $-1 $135 -19.98299837882044 $202 19.98299837882044 $132 $293 forward 7 unknown #
edge $-1 $136 -19.98299837882044 $201 19.98299837882044 $133 $294 forward 7 unknown #
point $-1 64.6699423200171 -44.659107877532726 19.98299837882044 #
point $-1 64.6699423200171 44.659107877532726 19.98299837882044 #
face $-1 $-1 $228 $19 $-1 $295 reversed single #
loop $-1 $-1 $296 $138 #
plane-surface $-1 0 0 19.98299837882044 0 0 1 1 0 0 forward_v I I I I #
coedge $-1 $297 $298 $144 $226 forward $139 $-1 #
coedge $-1 $141 $231 $299 $300 reversed $83 $-1 #
edge $-1 $301 -12.442827084352928 $149 -2.6375155045820975 $141 $302 forward 7 unknown #
coedge $-1 $143 $142 $296 $303 reversed $53 $-1 #
coedge $-1 $304 $145 $143 $225 forward $228 $-1 #
edge $-1 $150 2.6375155045820975 $305 12.442827084352928 $224 $306 forward 7 unknown #
edge $-1 $232 -44.659107877532726 $229 44.659107877532726 $220 $307 forward 7 unknown #
coedge $-1 $145 $304 $297 $308 forward $228 $-1 #
loop $-1 $-1 $224 $217 #
vertex $-1 $226 $309 #
straight-curve $-1 -25.99043473375054 -44.659107877532726 10.17768679904961 1 0 0 I I #
coedge $-1 $221 $147 $298 $310 reversed $83 $-1 #
vertex $-1 $226 $311 #
straight-curve $-1 -25.99043473375054 44.659107877532726 10.17768679904961 -1 0 0 I I #
point $-1 -39.29179661498506 44.659107877532726 10.17768679904961 #
point $-1 -39.29179661498506 -44.659107877532726 10.17768679904961 #
loop $-1 $-1 $160 $152 #
plane-surface $-1 -39.29179661498506 0 15.080342588935025 -1 0 0 0 0 1 forward_v I I I I #
coedge $-1 $243 $312 $156 $239 forward $153 $-1 #
edge $-1 $241 59.380762494215261 $249 71.445755982956086 $238 $313 forward 7 unknown #
coedge $-1 $163 $157 $312 $314 forward $90 $-1 #
vertex $-1 $314 $315 #
straight-curve $-1 -19.692088302628843 44.482652198536414 19.98299837882044 0 1 0 I I #
coedge $-1 $316 $238 $159 $244 forward $153 $-1 #
edge $-1 $249 4.9461170732253699 $247 24.545825385581573 $243 $317 forward 7 unknown #
coedge $-1 $246 $160 $163 $251 reversed $236 $-1 #
coedge $-1 $160 $245 $316 $318 reversed $236 $-1 #
vertex $-1 $318 $319 #
straight-curve $-1 -39.29179661498506 5.9592762264614141 55.708318239294414 0 -0.62932038083071107 0.77714596973225614 I I #
vertex $-1 $244 $320 #
straight-curve $-1 -19.692088302628843 -11.550665676564691 77.331296287804847 0 -0.62932038083071107 0.77714596973225614 I I #
edge $-1 $321 -44.659107877532726 $164 -34.889069052432347 $163 $322 forward 7 unknown #
point $-1 -39.29179661498506 34.889069052432347 19.98299837882044 #
point $-1 -19.692088302628843 34.889069052432347 19.98299837882044 #
edge $-1 $323 1 $323 0 $167 $-1 forward 7 unknown #
vertex $-1 $168 $324 #
ellipse-curve $-1 -29.491942458806946 38.482228855456306 12.904374377653017 0 0.77714596973225614 0.62932038083071107 1 0 0 1 I I #
point $-1 -28.491942458806946 39.77408846498254 13.950501634450038 #
loop $-1 $-1 $179 $171 #
plane-surface $-1 0 -44.659107877532726 0 0 1 0 0 0 1 forward_v I I I I #
coedge $-1 $261 $174 $325 $326 reversed $105 $-1 #
coedge $-1 $174 $260 $264 $327 reversed $105 $-1 #
edge $-1 $328 -1.1374033043381581e-014 $265 15.524745618763813 $174 $329 forward 7 unknown #
coedge $-1 $176 $175 $268 $330 reversed $66 $-1 #
coedge $-1 $182 $177 $261 $327 forward $172 $-1 #
vertex $-1 $327 $331 #
straight-curve $-1 -14.745971229403473 -34.889069052432362 19.98299837882044 -1 0 0 I I #
coedge $-1 $325 $179 $182 $272 reversed $258 $-1 #
coedge $-1 $179 $325 $263 $330 forward $258 $-1 #
vertex $-1 $180 $332 #
straight-curve $-1 -19.692088302628843 -44.659107877532726 44.6571151741731 0 0 1 I I #
straight-curve $-1 -19.692088302628843 -44.659107877532719 7.9180048900796436 0 -0.62932038083071107 -0.77714596973225614 I I #
edge $-1 $333 -39.29179661498506 $183 -19.692088302628843 $267 $334 forward 7 unknown #
point $-1 -19.692088302628843 -44.659107877532726 19.98299837882044 #
point $-1 -19.692088302628843 -34.889069052432362 19.98299837882044 #
edge $-1 $335 1 $335 0 $186 $-1 forward 7 unknown #
vertex $-1 $187 $336 #
ellipse-curve $-1 -29.491942458806946 -38.482228855456313 12.904374377653024 0 -0.77714596973225614 0.62932038083071107 1 0 0 1 I I #
point $-1 -28.491942458806946 -39.774088464982547 13.950501634450045 #
plane-surface $-1 64.6699423200171 0 0 -1 0 0 0 0 1 forward_v I I I I #
coedge $-1 $195 $193 $197 $284 reversed $120 $-1 #
edge $-1 $208 -19.98299837882044 $286 19.98299837882044 $207 $337 forward 7 unknown #
vertex $-1 $284 $338 #
straight-curve $-1 -64.6699423200171 -44.659107877532726 0 0 0 -1 I I #
edge $-1 $282 -44.659107877532726 $286 44.659107877532726 $280 $339 forward 7 unknown #
straight-curve $-1 0 -44.659107877532726 -19.98299837882044 -1 0 0 I I #
vertex $-1 $200 $340 #
straight-curve $-1 0 44.659107877532726 -19.98299837882044 1 0 0 I I #
point $-1 64.6699423200171 44.659107877532726 -19.98299837882044 #
point $-1 64.6699423200171 -44.659107877532726 -19.98299837882044 #
straight-curve $-1 -64.6699423200171 0 19.98299837882044 0 -1 0 I I #
point $-1 -64.6699423200171 44.659107877532726 19.98299837882044 #
point $-1 -64.6699423200171 -44.659107877532726 19.98299837882044 #
straight-curve $-1 64.6699423200171 -44.659107877532726 0 0 0 -1 I I #
straight-curve $-1 64.6699423200171 44.659107877532726 0 0 0 -1 I I #
plane-surface $-1 0 -44.659107877532726 0 0 1 0 0 0 1 forward_v I I I I #
coedge $-1 $299 $341 $223 $303 forward $218 $-1 #
coedge $-1 $342 $220 $227 $308 reversed $139 $-1 #
coedge $-1 $220 $342 $231 $310 forward $139 $-1 #
coedge $-1 $343 $296 $221 $300 forward $218 $-1 #
edge $-1 $301 39.29179661498506 $344 64.6699423200171 $221 $345 forward 7 unknown #
vertex $-1 $300 $346 #
straight-curve $-1 -39.29179661498506 44.659107877532726 7.5401712944675126 0 0 -1 I I #
edge $-1 $305 -44.659107877532726 $301 44.659107877532726 $296 $347 forward 7 unknown #
coedge $-1 $227 $224 $341 $348 reversed $228 $-1 #
vertex $-1 $225 $349 #
straight-curve $-1 -39.29179661498506 -44.659107877532726 7.5401712944675126 0 0 1 I I #
straight-curve $-1 -64.6699423200171 0 10.17768679904961 0 -1 0 I I #
edge $-1 $350 -19.98299837882044 $229 -10.17768679904961 $297 $351 forward 7 unknown #
point $-1 -64.6699423200171 -44.659107877532726 10.17768679904961 #
edge $-1 $344 -19.98299837882044 $232 -10.17768679904961 $231 $352 forward 7 unknown #
point $-1 -64.6699423200171 44.659107877532726 10.17768679904961 #
coedge $-1 $238 $316 $240 $314 reversed $153 $-1 #
straight-curve $-1 -19.692088302628843 44.659107877532726 79.363760873035702 0 0 -1 I I #
edge $-1 $241 19.692088302628843 $321 39.29179661498506 $312 $353 forward 7 unknown #
point $-1 -19.692088302628843 44.659107877532726 19.98299837882044 #
coedge $-1 $312 $243 $246 $318 forward $153 $-1 #
straight-curve $-1 -14.745971229403473 44.659107877532726 7.9180048900796152 -1 0 0 I I #
edge $-1 $247 -71.445755982956086 $321 -59.380762494215261 $316 $354 forward 7 unknown #
point $-1 -39.291796614985046 44.659107877532726 7.9180048900796152 #
point $-1 -19.692088302628843 44.659107877532726 7.9180048900796152 #
vertex $-1 $251 $355 #
straight-curve $-1 -39.29179661498506 0 19.98299837882044 0 -1 0 I I #
vertex $-1 $254 $356 #
point $-1 -28.491942458806946 38.482228855456306 12.904374377653017 #
coedge $-1 $268 $267 $260 $326 forward $258 $-1 #
edge $-1 $333 24.67411679535266 $328 36.739110284093464 $325 $357 forward 7 unknown #
edge $-1 $265 34.889069052432362 $333 44.659107877532726 $264 $358 forward 7 unknown #
vertex $-1 $326 $359 #
straight-curve $-1 -39.291796614985046 -44.659107877532719 7.9180048900796436 0 0.62932038083071107 0.77714596973225614 I I #
edge $-1 $328 -24.545825385581573 $269 -4.9461170732253699 $268 $360 forward 7 unknown #
point $-1 -39.29179661498506 -34.889069052432362 19.98299837882044 #
point $-1 -19.692088302628843 -44.659107877532726 7.9180048900796347 #
vertex $-1 $272 $361 #
straight-curve $-1 0 -44.659107877532726 19.98299837882044 1 0 0 I I #
vertex $-1 $275 $362 #
point $-1 -28.491942458806946 -38.482228855456313 12.904374377653024 #
straight-curve $-1 -64.6699423200171 44.659107877532726 0 0 0 -1 I I #
point $-1 -64.6699423200171 -44.659107877532726 -19.98299837882044 #
straight-curve $-1 -64.6699423200171 0 -19.98299837882044 0 1 0 I I #
point $-1 -64.6699423200171 44.659107877532726 -19.98299837882044 #
coedge $-1 $296 $343 $304 $348 forward $218 $-1 #
coedge $-1 $298 $297 $343 $363 reversed $139 $-1 #
coedge $-1 $341 $299 $342 $363 forward $218 $-1 #
vertex $-1 $300 $364 #
straight-curve $-1 0 44.659107877532726 19.98299837882044 -1 0 0 I I #
point $-1 -39.29179661498506 44.659107877532726 19.98299837882044 #
straight-curve $-1 -39.29179661498506 0 19.98299837882044 0 1 0 I I #
edge $-1 $350 -64.6699423200171 $305 -39.29179661498506 $304 $365 forward 7 unknown #
point $-1 -39.29179661498506 -44.659107877532726 19.98299837882044 #
vertex $-1 $363 $366 #
straight-curve $-1 -64.6699423200171 -44.659107877532726 0 0 0 -1 I I #
straight-curve $-1 -64.6699423200171 44.659107877532726 0 0 0 -1 I I #
straight-curve $-1 0 44.659107877532726 19.98299837882044 -1 0 0 I I #
straight-curve $-1 -39.291796614985046 44.659107877532726 79.363760873035702 0 0 1 I I #
point $-1 -39.29179661498506 44.659107877532726 19.98299837882044 #
point $-1 -29.491942458806946 37.705082885724046 12.275053996822304 #
straight-curve $-1 -39.291796614985046 -44.659107877532726 44.6571151741731 0 0 -1 I I #
straight-curve $-1 -39.29179661498506 0 19.98299837882044 0 -1 0 I I #
point $-1 -39.291796614985046 -44.659107877532726 7.9180048900796347 #
straight-curve $-1 -14.745971229403473 -44.659107877532726 7.9180048900796294 1 0 0 I I #
point $-1 -39.29179661498506 -44.659107877532726 19.98299837882044 #
point $-1 -29.491942458806946 -37.705082885724053 12.275053996822312 #
edge $-1 $344 -44.659107877532726 $350 44.659107877532726 $342 $367 forward 7 unknown #
point $-1 -64.6699423200171 44.659107877532726 19.98299837882044 #
straight-curve $-1 0 -44.659107877532726 19.98299837882044 1 0 0 I I #
point $-1 -64.6699423200171 -44.659107877532726 19.98299837882044 #
straight-curve $-1 -64.6699423200171 0 19.98299837882044 0 -1 0 I I #
End-of-ACIS-data 