500 0 11 0           
7 Unknown 11 ACIS 5.0 NT 24 Fri Mar 26 19:52:45 1999 
-1 9.9999999999999995e-007 1e-010 
body $-1 $11 $-1 $12 #
body $-1 $13 $-1 $14 #
body $-1 $15 $-1 $16 #
body $-1 $17 $-1 $18 #
body $-1 $19 $-1 $20 #
body $-1 $21 $-1 $22 #
body $-1 $23 $-1 $24 #
body $-1 $25 $-1 $26 #
body $-1 $27 $-1 $28 #
body $-1 $29 $-1 $30 #
body $-1 $31 $-1 $32 #
lump $-1 $-1 $33 $0 #
transform $-1 1 0 0 0 1 0 0 0 1 56.492202520828883 23.767861078284465 5.3274042692178183 1 rotate no_reflect no_shear #
lump $-1 $-1 $34 $1 #
transform $-1 1 0 0 0 1 0 0 0 1 56.492202520828883 23.767861078284465 5.3274042692178183 1 rotate no_reflect no_shear #
lump $-1 $-1 $35 $2 #
transform $-1 1 0 0 0 1 0 0 0 1 56.492202520828883 23.767861078284465 5.3274042692178183 1 rotate no_reflect no_shear #
lump $-1 $-1 $36 $3 #
transform $-1 1 0 0 0 1 0 0 0 1 56.492202520828883 23.767861078284465 5.3274042692178183 1 rotate no_reflect no_shear #
lump $-1 $-1 $37 $4 #
transform $-1 1 0 0 0 1 0 0 0 1 56.492202520828883 23.767861078284465 5.3274042692178183 1 rotate no_reflect no_shear #
lump $-1 $-1 $38 $5 #
transform $-1 1 0 0 0 1 0 0 0 1 56.492202520828883 23.767861078284465 5.3274042692178183 1 rotate no_reflect no_shear #
lump $-1 $-1 $39 $6 #
transform $-1 1 0 0 0 1 0 0 0 1 56.492202520828883 23.767861078284465 5.3274042692178183 1 rotate no_reflect no_shear #
lump $-1 $-1 $40 $7 #
transform $-1 1 0 0 0 1 0 0 0 1 56.492202520828883 23.767861078284465 5.3274042692178183 1 rotate no_reflect no_shear #
lump $-1 $-1 $41 $8 #
transform $-1 1 0 0 0 1 0 0 0 1 56.492202520828883 23.767861078284465 5.3274042692178183 1 rotate no_reflect no_shear #
lump $-1 $-1 $42 $9 #
transform $-1 1 0 0 0 1 0 0 0 1 56.492202520828883 23.767861078284465 5.3274042692178183 1 rotate no_reflect no_shear #
lump $-1 $-1 $43 $10 #
transform $-1 1 0 0 0 1 0 0 0 1 56.492202520828883 23.767861078284465 5.3274042692178183 1 rotate no_reflect no_shear #
shell $-1 $-1 $-1 $44 $-1 $11 #
shell $-1 $-1 $-1 $45 $-1 $13 #
shell $-1 $-1 $-1 $46 $-1 $15 #
shell $-1 $-1 $-1 $47 $-1 $17 #
shell $-1 $-1 $-1 $48 $-1 $19 #
shell $-1 $-1 $-1 $49 $-1 $21 #
shell $-1 $-1 $-1 $50 $-1 $23 #
shell $-1 $-1 $-1 $51 $-1 $25 #
shell $-1 $-1 $-1 $52 $-1 $27 #
shell $-1 $-1 $-1 $53 $-1 $29 #
shell $-1 $-1 $-1 $54 $-1 $31 #
face $-1 $55 $56 $33 $-1 $57 forward single #
face $-1 $58 $59 $34 $-1 $60 reversed single #
face $-1 $61 $62 $35 $-1 $63 reversed single #
face $-1 $64 $65 $36 $-1 $66 forward single #
face $-1 $67 $68 $37 $-1 $69 forward single #
face $-1 $70 $71 $38 $-1 $72 reversed single #
face $-1 $73 $74 $39 $-1 $75 forward single #
face $-1 $76 $77 $40 $-1 $78 forward single #
face $-1 $79 $80 $41 $-1 $81 reversed single #
face $-1 $82 $83 $42 $-1 $84 forward single #
face $-1 $85 $86 $43 $-1 $87 forward single #
face $-1 $88 $89 $33 $-1 $90 reversed single #
loop $-1 $-1 $91 $44 #
plane-surface $-1 0 0 5.3274042692178183 0 0 1 1 0 0 forward_v I I I I #
face $-1 $92 $93 $34 $-1 $94 reversed single #
loop $-1 $-1 $95 $45 #
plane-surface $-1 -54.992202520828883 -17.644459660665401 0 0 -1 0 0 0 -1 forward_v I I I I #
face $-1 $96 $97 $35 $-1 $98 reversed single #
loop $-1 $-1 $99 $46 #
plane-surface $-1 -146.72556139784001 -4.6259339986765973 69.952628581504271 0 1 0 -0.79863551827123203 0 0.60181501223851219 forward_v I I I I #
face $-1 $100 $101 $36 $-1 $102 forward single #
loop $-1 $103 $104 $47 #
cone-surface $-1 -54.807790516248673 -2.0521457489850015 3.3298202233104055 0.79863551827123203 0 -0.60181501223851219 0.60181501223851219 0 0.79863551827123203 1 I I 0 1 1 forward I I I I #
face $-1 $105 $106 $37 $-1 $107 forward single #
loop $-1 $108 $109 $48 #
cone-surface $-1 -54.807790516248673 1.8085366255523923 3.3298202233104055 0.79863551827123203 0 -0.60181501223851219 0.60181501223851219 0 0.79863551827123203 1 I I 0 1 1 forward I I I I #
face $-1 $110 $111 $38 $-1 $112 reversed single #
loop $-1 $-1 $113 $49 #
plane-surface $-1 62.068588357356433 3.0617007088095285 161.10483390899634 0 -1 0 -0.73135370988377701 0 -0.68199835119979291 forward_v I I I I #
face $-1 $114 $115 $39 $-1 $116 forward single #
loop $-1 $117 $118 $50 #
cone-surface $-1 54.199964370517399 -1.880669770165035 2.9349399134585856 -0.73135370988377701 0 -0.68199835119979291 0.34099917559989645 0 -0.36567685494188851 1 I I 0 1 0.5 forward I I I I #
face $-1 $119 $120 $40 $-1 $121 forward single #
loop $-1 $122 $123 $51 #
cone-surface $-1 54.199964370517399 1.0847525172197017 2.9349399134585856 -0.73135370988377701 0 -0.68199835119979291 0.34099917559989645 0 -0.36567685494188851 1 I I 0 1 0.5 forward I I I I #
face $-1 $124 $125 $41 $-1 $126 reversed single #
loop $-1 $-1 $127 $52 #
plane-surface $-1 62.068588357356433 9.9810193793739153 161.10483390899634 0 -1 0 -0.73135370988377701 0 -0.68199835119979291 forward_v I I I I #
face $-1 $128 $129 $42 $-1 $130 forward single #
loop $-1 $131 $132 $53 #
cone-surface $-1 54.199964370517399 5.0386489003993518 2.9349399134585856 -0.73135370988377701 0 -0.68199835119979291 0.34099917559989645 0 -0.36567685494188851 1 I I 0 1 0.5 forward I I I I #
face $-1 $133 $134 $43 $-1 $135 forward single #
loop $-1 $136 $137 $54 #
cone-surface $-1 54.199964370517399 8.0040711877840884 2.9349399134585856 -0.73135370988377701 0 -0.68199835119979291 0.34099917559989645 0 -0.36567685494188851 1 I I 0 1 0.5 forward I I I I #
face $-1 $138 $139 $33 $-1 $140 reversed single #
loop $-1 $-1 $141 $55 #
plane-surface $-1 0 0 -5.3274042692178183 0 0 1 1 0 0 forward_v I I I I #
coedge $-1 $142 $143 $144 $145 forward $56 $-1 #
face $-1 $146 $147 $34 $-1 $148 forward single #
loop $-1 $-1 $149 $58 #
plane-surface $-1 -53.492202520828883 -20.706160369474933 0 -1 0 0 0 0 1 forward_v I I I I #
coedge $-1 $150 $151 $152 $153 forward $59 $-1 #
face $-1 $154 $155 $35 $-1 $156 reversed single #
loop $-1 $-1 $157 $61 #
plane-surface $-1 -56.492202520828855 -0.12180456171630638 1.9569174785979868 -0.79863551827123203 0 0.60181501223851219 0.60181501223851219 0 0.79863551827123203 forward_v I I I I #
coedge $-1 $158 $159 $160 $161 reversed $62 $-1 #
face $-1 $-1 $162 $36 $-1 $163 forward single #
loop $-1 $164 $165 $64 #
cone-surface $-1 -53.993982702371376 -2.0521457489850015 2.7165720665936535 0.79863551827123203 0 -0.60181501223851219 0.3009075061192561 0 0.39931775913561601 1 I I -0.70710678118654746 0.70710678118654746 0.5 forward I I I I #
loop $-1 $-1 $166 $47 #
coedge $-1 $104 $104 $167 $168 reversed $65 $-1 #
face $-1 $-1 $169 $37 $-1 $170 forward single #
loop $-1 $171 $172 $67 #
cone-surface $-1 -53.993982702371376 1.8085366255523923 2.7165720665936535 0.79863551827123203 0 -0.60181501223851219 0.3009075061192561 0 0.39931775913561601 1 I I -0.70710678118654746 0.70710678118654746 0.5 forward I I I I #
loop $-1 $-1 $173 $48 #
coedge $-1 $109 $109 $174 $175 reversed $68 $-1 #
face $-1 $176 $177 $38 $-1 $178 reversed single #
loop $-1 $-1 $179 $70 #
plane-surface $-1 -20.562975428871297 -0.39795862647266489 84.049655959296175 0.73135370988377701 0 0.68199835119979291 0.68199835119979291 0 -0.73135370988377701 forward_v I I I I #
coedge $-1 $180 $181 $182 $183 reversed $71 $-1 #
face $-1 $-1 $184 $39 $-1 $185 forward single #
loop $-1 $186 $187 $73 #
cone-surface $-1 53.547634001490081 -1.880669770165035 2.3266320179740818 -0.73135370988377701 0 -0.68199835119979291 0.17049958779994823 0 -0.18283842747094425 1 I I -0.70710678118654746 0.70710678118654746 0.25 forward I I I I #
loop $-1 $-1 $188 $50 #
coedge $-1 $118 $118 $189 $190 reversed $74 $-1 #
face $-1 $-1 $191 $40 $-1 $192 forward single #
loop $-1 $193 $194 $76 #
cone-surface $-1 53.547634001490081 1.0847525172197017 2.3266320179740818 -0.73135370988377701 0 -0.68199835119979291 0.17049958779994823 0 -0.18283842747094425 1 I I -0.70710678118654746 0.70710678118654746 0.25 forward I I I I #
loop $-1 $-1 $195 $51 #
coedge $-1 $123 $123 $196 $197 reversed $77 $-1 #
face $-1 $198 $199 $41 $-1 $200 forward single #
loop $-1 $-1 $201 $79 #
plane-surface $-1 -20.562975428871297 -0.39795862647266489 84.049655959296175 0.73135370988377701 0 0.68199835119979291 0.68199835119979291 0 -0.73135370988377701 forward_v I I I I #
coedge $-1 $202 $203 $204 $205 reversed $80 $-1 #
face $-1 $-1 $206 $42 $-1 $207 forward single #
loop $-1 $208 $209 $82 #
cone-surface $-1 53.547634001490081 5.0386489003993518 2.3266320179740818 -0.73135370988377701 0 -0.68199835119979291 0.17049958779994823 0 -0.18283842747094425 1 I I -0.70710678118654746 0.70710678118654746 0.25 forward I I I I #
loop $-1 $-1 $210 $53 #
coedge $-1 $132 $132 $211 $212 reversed $83 $-1 #
face $-1 $-1 $213 $43 $-1 $214 forward single #
loop $-1 $215 $216 $85 #
cone-surface $-1 53.547634001490081 8.0040711877840884 2.3266320179740818 -0.73135370988377701 0 -0.68199835119979291 0.17049958779994823 0 -0.18283842747094425 1 I I -0.70710678118654746 0.70710678118654746 0.25 forward I I I I #
loop $-1 $-1 $217 $54 #
coedge $-1 $137 $137 $218 $219 reversed $86 $-1 #
face $-1 $220 $221 $33 $-1 $222 reversed single #
loop $-1 $-1 $223 $88 #
plane-surface $-1 0 -23.767861078284465 0 0 1 0 0 0 1 forward_v I I I I #
coedge $-1 $224 $225 $226 $227 forward $89 $-1 #
coedge $-1 $228 $91 $229 $230 forward $56 $-1 #
coedge $-1 $91 $228 $231 $232 forward $56 $-1 #
coedge $-1 $233 $234 $91 $145 reversed $235 $-1 #
edge $-1 $236 -23.767861078284465 $237 23.767861078284465 $144 $238 forward 7 unknown #
face $-1 $239 $240 $34 $-1 $241 reversed single #
loop $-1 $-1 $242 $92 #
plane-surface $-1 0 0 5.3274042692178183 0 0 1 1 0 0 forward_v I I I I #
coedge $-1 $243 $244 $245 $246 reversed $93 $-1 #
coedge $-1 $247 $95 $248 $249 reversed $59 $-1 #
coedge $-1 $95 $247 $250 $251 reversed $59 $-1 #
coedge $-1 $244 $243 $95 $153 reversed $93 $-1 #
edge $-1 $252 -5.3274042692178183 $253 5.3274042692178183 $152 $254 forward 7 unknown #
face $-1 $255 $256 $35 $-1 $257 reversed single #
loop $-1 $-1 $258 $96 #
plane-surface $-1 -146.72556139784001 4.3823248752439845 69.952628581504271 0 -1 0 0.79863551827123203 0 -0.60181501223851219 forward_v I I I I #
coedge $-1 $259 $260 $261 $262 reversed $97 $-1 #
coedge $-1 $159 $99 $263 $264 reversed $62 $-1 #
coedge $-1 $99 $158 $259 $265 reversed $62 $-1 #
coedge $-1 $261 $266 $99 $161 forward $267 $-1 #
edge $-1 $268 16.870578178091122 $269 19.41042207776821 $160 $270 forward 7 unknown #
loop $-1 $-1 $167 $100 #
plane-surface $-1 -56.492202520828855 -0.12180456171630638 1.9569174785979868 -0.79863551827123203 0 0.60181501223851219 0.60181501223851219 0 0.79863551827123203 forward_v I I I I #
loop $-1 $-1 $271 $64 #
coedge $-1 $165 $165 $166 $272 reversed $101 $-1 #
coedge $-1 $166 $166 $165 $272 forward $103 $-1 #
coedge $-1 $167 $167 $104 $168 forward $162 $-1 #
edge $-1 $273 0 $273 6.2831853071796004 $167 $274 forward 7 unknown #
loop $-1 $-1 $174 $105 #
plane-surface $-1 -56.492202520828855 -0.12180456171630638 1.9569174785979868 -0.79863551827123203 0 0.60181501223851219 0.60181501223851219 0 0.79863551827123203 forward_v I I I I #
loop $-1 $-1 $275 $67 #
coedge $-1 $172 $172 $173 $276 reversed $106 $-1 #
coedge $-1 $173 $173 $172 $276 forward $108 $-1 #
coedge $-1 $174 $174 $109 $175 forward $169 $-1 #
edge $-1 $277 0 $277 6.2831853071796004 $174 $278 forward 7 unknown #
face $-1 $279 $280 $38 $-1 $281 forward single #
loop $-1 $-1 $282 $110 #
plane-surface $-1 62.068588357356433 -3.8576179617548583 161.10483390899634 0 1 0 0.73135370988377701 0 0.68199835119979291 forward_v I I I I #
coedge $-1 $283 $284 $285 $286 reversed $111 $-1 #
coedge $-1 $181 $113 $287 $288 reversed $71 $-1 #
coedge $-1 $113 $180 $283 $289 reversed $71 $-1 #
coedge $-1 $285 $290 $113 $183 forward $280 $-1 #
edge $-1 $291 -25.457908342150667 $292 -21.812415924640426 $182 $293 forward 7 unknown #
loop $-1 $-1 $189 $114 #
plane-surface $-1 -20.562975428871297 -0.39795862647266489 84.049655959296175 0.73135370988377701 0 0.68199835119979291 0.68199835119979291 0 -0.73135370988377701 forward_v I I I I #
loop $-1 $-1 $294 $73 #
coedge $-1 $187 $187 $188 $295 reversed $115 $-1 #
coedge $-1 $188 $188 $187 $295 forward $117 $-1 #
coedge $-1 $189 $189 $118 $190 forward $184 $-1 #
edge $-1 $296 0 $296 6.2831853071796004 $189 $297 forward 7 unknown #
loop $-1 $-1 $196 $119 #
plane-surface $-1 -20.562975428871297 -0.39795862647266489 84.049655959296175 0.73135370988377701 0 0.68199835119979291 0.68199835119979291 0 -0.73135370988377701 forward_v I I I I #
loop $-1 $-1 $298 $76 #
coedge $-1 $194 $194 $195 $299 reversed $120 $-1 #
coedge $-1 $195 $195 $194 $299 forward $122 $-1 #
coedge $-1 $196 $196 $123 $197 forward $191 $-1 #
edge $-1 $300 0 $300 6.2831853071796004 $196 $301 forward 7 unknown #
face $-1 $302 $303 $41 $-1 $304 forward single #
loop $-1 $-1 $305 $124 #
plane-surface $-1 0 0 5.3274042692178183 0 0 1 1 0 0 forward_v I I I I #
coedge $-1 $306 $307 $308 $309 reversed $125 $-1 #
coedge $-1 $203 $127 $310 $311 reversed $80 $-1 #
coedge $-1 $127 $202 $305 $312 reversed $80 $-1 #
coedge $-1 $313 $314 $127 $205 forward $315 $-1 #
edge $-1 $316 -79.13432478142974 $317 -75.225012685280348 $204 $318 forward 7 unknown #
loop $-1 $-1 $211 $128 #
plane-surface $-1 -20.562975428871297 -0.39795862647266489 84.049655959296175 0.73135370988377701 0 0.68199835119979291 0.68199835119979291 0 -0.73135370988377701 forward_v I I I I #
loop $-1 $-1 $319 $82 #
coedge $-1 $209 $209 $210 $320 reversed $129 $-1 #
coedge $-1 $210 $210 $209 $320 forward $131 $-1 #
coedge $-1 $211 $211 $132 $212 forward $206 $-1 #
edge $-1 $321 0 $321 6.2831853071796004 $211 $322 forward 7 unknown #
loop $-1 $-1 $218 $133 #
plane-surface $-1 -20.562975428871297 -0.39795862647266489 84.049655959296175 0.73135370988377701 0 0.68199835119979291 0.68199835119979291 0 -0.73135370988377701 forward_v I I I I #
loop $-1 $-1 $323 $85 #
coedge $-1 $216 $216 $217 $324 reversed $134 $-1 #
coedge $-1 $217 $217 $216 $324 forward $136 $-1 #
coedge $-1 $218 $218 $137 $219 forward $213 $-1 #
edge $-1 $325 0 $325 6.2831853071796004 $218 $326 forward 7 unknown #
face $-1 $327 $328 $33 $-1 $329 reversed single #
loop $-1 $-1 $330 $138 #
plane-surface $-1 -56.492202520828883 0 0 1 0 0 0 0 -1 forward_v I I I I #
coedge $-1 $331 $231 $332 $333 forward $139 $-1 #
coedge $-1 $334 $141 $331 $335 forward $89 $-1 #
coedge $-1 $141 $334 $336 $337 forward $89 $-1 #
coedge $-1 $234 $233 $141 $227 reversed $235 $-1 #
edge $-1 $338 -23.767861078284465 $339 23.767861078284465 $226 $340 forward 7 unknown #
coedge $-1 $143 $142 $341 $342 forward $56 $-1 #
coedge $-1 $343 $344 $142 $230 reversed $328 $-1 #
edge $-1 $237 -56.492202520828883 $345 56.492202520828883 $229 $346 forward 7 unknown #
coedge $-1 $223 $347 $143 $232 reversed $139 $-1 #
edge $-1 $348 -56.492202520828883 $236 56.492202520828883 $231 $349 forward 7 unknown #
coedge $-1 $226 $144 $347 $350 forward $235 $-1 #
coedge $-1 $144 $226 $343 $351 reversed $235 $-1 #
loop $-1 $-1 $233 $327 #
vertex $-1 $145 $352 #
vertex $-1 $145 $353 #
straight-curve $-1 56.492202520828883 0 5.3274042692178183 0 1 0 I I #
face $-1 $354 $355 $34 $-1 $356 reversed single #
loop $-1 $-1 $357 $146 #
plane-surface $-1 -56.492202520828883 0 0 1 0 0 0 0 -1 forward_v I I I I #
coedge $-1 $250 $358 $244 $359 forward $147 $-1 #
coedge $-1 $152 $149 $360 $361 reversed $93 $-1 #
coedge $-1 $149 $152 $242 $359 reversed $93 $-1 #
coedge $-1 $362 $363 $149 $246 forward $364 $-1 #
edge $-1 $365 -5.3274042692178183 $366 5.3274042692178183 $245 $367 forward 7 unknown #
coedge $-1 $151 $150 $357 $368 reversed $59 $-1 #
coedge $-1 $360 $369 $150 $249 forward $355 $-1 #
edge $-1 $370 -28.996101260414441 $253 -25.996101260414441 $248 $371 forward 7 unknown #
coedge $-1 $372 $242 $151 $251 forward $147 $-1 #
edge $-1 $252 25.996101260414441 $373 28.996101260414441 $250 $374 forward 7 unknown #
vertex $-1 $251 $375 #
vertex $-1 $249 $376 #
straight-curve $-1 -53.492202520828883 -17.644459660665401 0 0 0 -1 I I #
face $-1 $-1 $267 $35 $-1 $377 forward single #
loop $-1 $-1 $378 $154 #
plane-surface $-1 -56.492202520828883 0 0 1 0 0 0 0 -1 forward_v I I I I #
coedge $-1 $379 $380 $381 $382 reversed $155 $-1 #
coedge $-1 $383 $157 $159 $265 forward $97 $-1 #
coedge $-1 $157 $383 $379 $384 forward $97 $-1 #
coedge $-1 $381 $160 $157 $262 forward $267 $-1 #
edge $-1 $269 -4.5650317178184441 $385 4.4432271561021377 $261 $386 forward 7 unknown #
coedge $-1 $387 $388 $158 $264 forward $256 $-1 #
edge $-1 $389 -33.019396812154184 $268 -29.648910021534316 $263 $390 forward 7 unknown #
edge $-1 $269 -4.2203066524210708 $389 4.7251171791415696e-014 $159 $391 forward 7 unknown #
coedge $-1 $160 $381 $387 $392 forward $267 $-1 #
loop $-1 $-1 $381 $255 #
vertex $-1 $264 $393 #
vertex $-1 $161 $394 #
straight-curve $-1 -73.362780698920005 -4.6259339986765973 5.3274042692178156 1 0 0 I I #
coedge $-1 $271 $271 $-1 $395 reversed $164 $-1 #
edge $-1 $396 0 $396 6.2831853071796004 $165 $397 forward 7 unknown #
vertex $-1 $168 $398 #
ellipse-curve $-1 -55.222280570990335 -2.0521457489850015 3.6421608739078883 -0.79863551827123203 0 0.60181501223851219 0.60181501223851219 0 0.79863551827123203 1 I I #
coedge $-1 $275 $275 $-1 $399 reversed $171 $-1 #
edge $-1 $400 0 $400 6.2831853071796004 $172 $401 forward 7 unknown #
vertex $-1 $175 $402 #
ellipse-curve $-1 -55.222280570990335 1.8085366255523923 3.6421608739078883 -0.79863551827123203 0 0.60181501223851219 0.60181501223851219 0 0.79863551827123203 1 I I #
face $-1 $-1 $403 $38 $-1 $404 reversed single #
loop $-1 $-1 $182 $176 #
plane-surface $-1 0 0 5.3274042692178183 0 0 1 1 0 0 forward_v I I I I #
coedge $-1 $405 $406 $407 $408 reversed $177 $-1 #
coedge $-1 $409 $179 $181 $289 forward $111 $-1 #
coedge $-1 $179 $409 $405 $410 forward $111 $-1 #
coedge $-1 $407 $182 $179 $286 forward $280 $-1 #
edge $-1 $292 -3.2606800220458609 $411 3.6586386485185258 $285 $412 forward 7 unknown #
coedge $-1 $413 $414 $180 $288 forward $403 $-1 #
edge $-1 $415 -79.13432478142974 $291 -75.225012685280348 $287 $416 forward 7 unknown #
edge $-1 $292 107.63909531899208 $415 112.98440504165779 $181 $417 forward 7 unknown #
coedge $-1 $182 $407 $413 $418 forward $280 $-1 #
vertex $-1 $183 $419 #
vertex $-1 $183 $420 #
straight-curve $-1 31.034294178678216 3.0617007088095285 5.3274042692178227 -1 0 0 I I #
coedge $-1 $294 $294 $-1 $421 reversed $186 $-1 #
edge $-1 $422 0 $422 6.2831853071796004 $187 $423 forward 7 unknown #
vertex $-1 $190 $424 #
ellipse-curve $-1 54.669456312073756 -1.880669770165035 3.3727482211431243 0.73135370988377701 0 0.68199835119979291 0.34099917559989645 0 -0.36567685494188851 1 I I #
coedge $-1 $298 $298 $-1 $425 reversed $193 $-1 #
edge $-1 $426 0 $426 6.2831853071796004 $194 $427 forward 7 unknown #
vertex $-1 $197 $428 #
ellipse-curve $-1 54.669456312073756 1.0847525172197017 3.3727482211431243 0.73135370988377701 0 0.68199835119979291 0.34099917559989645 0 -0.36567685494188851 1 I I #
face $-1 $-1 $315 $41 $-1 $429 reversed single #
loop $-1 $-1 $430 $198 #
plane-surface $-1 62.068588357356433 3.0617007088095285 161.10483390899634 0 -1 0 -0.73135370988377701 0 -0.68199835119979291 forward_v I I I I #
coedge $-1 $431 $432 $203 $312 forward $199 $-1 #
coedge $-1 $310 $201 $431 $433 reversed $125 $-1 #
coedge $-1 $201 $310 $314 $434 reversed $125 $-1 #
coedge $-1 $435 $430 $201 $309 forward $303 $-1 #
edge $-1 $436 107.63909531899208 $437 112.98440504165779 $308 $438 forward 7 unknown #
coedge $-1 $307 $306 $202 $311 forward $125 $-1 #
edge $-1 $439 107.63909531899208 $316 112.98440504165779 $202 $440 forward 7 unknown #
edge $-1 $317 -25.457908342150667 $439 -21.812415924640426 $305 $441 forward 7 unknown #
coedge $-1 $442 $204 $432 $443 reversed $315 $-1 #
coedge $-1 $204 $442 $307 $434 forward $315 $-1 #
loop $-1 $-1 $204 $302 #
vertex $-1 $205 $444 #
vertex $-1 $205 $445 #
straight-curve $-1 56.492202520828883 9.9810193793739153 80.55241695449817 0 0 1 I I #
coedge $-1 $319 $319 $-1 $446 reversed $208 $-1 #
edge $-1 $447 0 $447 6.2831853071796004 $209 $448 forward 7 unknown #
vertex $-1 $212 $449 #
ellipse-curve $-1 54.669456312073756 5.0386489003993518 3.3727482211431243 0.73135370988377701 0 0.68199835119979291 0.34099917559989645 0 -0.36567685494188851 1 I I #
coedge $-1 $323 $323 $-1 $450 reversed $215 $-1 #
edge $-1 $451 0 $451 6.2831853071796004 $216 $452 forward 7 unknown #
vertex $-1 $219 $453 #
ellipse-curve $-1 54.669456312073756 8.0040711877840884 3.3727482211431243 0.73135370988377701 0 0.68199835119979291 0.34099917559989645 0 -0.36567685494188851 1 I I #
face $-1 $-1 $235 $33 $-1 $454 reversed single #
loop $-1 $-1 $343 $220 #
plane-surface $-1 0 23.767861078284465 0 0 -1 0 0 0 -1 forward_v I I I I #
coedge $-1 $455 $341 $344 $456 forward $221 $-1 #
coedge $-1 $347 $223 $224 $335 reversed $139 $-1 #
coedge $-1 $341 $455 $223 $333 reversed $221 $-1 #
edge $-1 $348 -5.3274042692178183 $457 5.3274042692178183 $332 $458 forward 7 unknown #
coedge $-1 $225 $224 $455 $459 forward $89 $-1 #
edge $-1 $339 -56.492202520828883 $457 56.492202520828883 $331 $460 forward 7 unknown #
coedge $-1 $344 $343 $225 $337 reversed $328 $-1 #
edge $-1 $461 -56.492202520828883 $338 56.492202520828883 $336 $462 forward 7 unknown #
vertex $-1 $227 $463 #
vertex $-1 $350 $464 #
straight-curve $-1 56.492202520828883 0 -5.3274042692178183 0 -1 0 I I #
coedge $-1 $330 $332 $228 $342 reversed $221 $-1 #
edge $-1 $345 -23.767861078284465 $348 23.767861078284465 $341 $465 forward 7 unknown #
coedge $-1 $336 $229 $234 $351 forward $328 $-1 #
coedge $-1 $229 $336 $330 $456 reversed $328 $-1 #
vertex $-1 $230 $466 #
straight-curve $-1 0 23.767861078284465 5.3274042692178183 -1 0 0 I I #
coedge $-1 $231 $331 $233 $350 reversed $139 $-1 #
vertex $-1 $342 $467 #
straight-curve $-1 0 -23.767861078284465 5.3274042692178183 1 0 0 I I #
edge $-1 $236 -5.3274042692178183 $339 5.3274042692178183 $233 $468 forward 7 unknown #
edge $-1 $237 -5.3274042692178183 $338 5.3274042692178183 $234 $469 forward 7 unknown #
point $-1 56.492202520828883 -23.767861078284465 5.3274042692178183 #
point $-1 56.492202520828883 23.767861078284465 5.3274042692178183 #
face $-1 $-1 $364 $34 $-1 $470 reversed single #
loop $-1 $-1 $360 $239 #
plane-surface $-1 0 0 -5.3274042692178183 0 0 1 1 0 0 forward_v I I I I #
coedge $-1 $471 $472 $247 $368 forward $240 $-1 #
coedge $-1 $242 $372 $362 $473 forward $147 $-1 #
edge $-1 $366 -13.414780893546999 $252 -7.2913794759279345 $242 $474 forward 7 unknown #
coedge $-1 $475 $248 $243 $361 forward $355 $-1 #
edge $-1 $253 7.2913794759279345 $365 13.414780893546999 $360 $476 forward 7 unknown #
coedge $-1 $477 $245 $358 $473 reversed $364 $-1 #
coedge $-1 $245 $477 $475 $478 reversed $364 $-1 #
loop $-1 $-1 $245 $354 #
vertex $-1 $478 $479 #
vertex $-1 $246 $480 #
straight-curve $-1 -53.492202520828883 -23.767861078284465 0 0 0 1 I I #
edge $-1 $373 -5.3274042692178183 $370 5.3274042692178183 $357 $481 forward 7 unknown #
coedge $-1 $248 $475 $471 $482 forward $355 $-1 #
vertex $-1 $249 $483 #
straight-curve $-1 -27.496101260414441 -17.644459660665401 -5.3274042692178183 1 0 0 I I #
coedge $-1 $358 $250 $472 $484 forward $147 $-1 #
vertex $-1 $484 $485 #
straight-curve $-1 -27.496101260414441 -17.644459660665401 5.3274042692178183 -1 0 0 I I #
point $-1 -53.492202520828883 -17.644459660665401 5.3274042692178183 #
point $-1 -53.492202520828883 -17.644459660665401 -5.3274042692178183 #
plane-surface $-1 0 0 5.3274042692178183 0 0 1 1 0 0 forward_v I I I I #
coedge $-1 $388 $387 $380 $486 forward $256 $-1 #
coedge $-1 $380 $258 $260 $384 reversed $155 $-1 #
coedge $-1 $258 $379 $378 $486 reversed $155 $-1 #
coedge $-1 $266 $261 $258 $382 forward $267 $-1 #
edge $-1 $385 -19.41042207776821 $487 -16.870578178091122 $381 $488 forward 7 unknown #
coedge $-1 $260 $259 $388 $489 reversed $97 $-1 #
edge $-1 $490 -4.7251171791415696e-014 $385 4.2203066524210708 $379 $491 forward 7 unknown #
vertex $-1 $262 $492 #
straight-curve $-1 -53.952358621151788 -0.06090228085815319 5.327404269217821 0 1 0 I I #
coedge $-1 $378 $263 $266 $392 reversed $256 $-1 #
coedge $-1 $263 $378 $383 $489 forward $256 $-1 #
vertex $-1 $264 $493 #
straight-curve $-1 -56.492202520828883 -4.6259339986765973 34.976314290752136 0 0 1 I I #
straight-curve $-1 -56.492202520828855 -4.6259339986765973 1.9569174785979868 -0.60181501223851219 0 -0.79863551827123203 I I #
edge $-1 $487 -4.3823248752439845 $268 4.6259339986765973 $387 $494 forward 7 unknown #
point $-1 -56.492202520828883 -4.6259339986765973 5.3274042692178183 #
point $-1 -53.952358621151795 -4.6259339986765973 5.3274042692178183 #
edge $-1 $495 1 $495 0 $271 $-1 forward 7 unknown #
vertex $-1 $272 $496 #
ellipse-curve $-1 -54.393300461506989 -2.0521457489850015 3.0174795727129098 -0.79863551827123203 0 0.60181501223851219 0.60181501223851219 0 0.79863551827123203 1 I I #
point $-1 -54.620465558751839 -2.0521457489850015 4.4407963921791325 #
edge $-1 $497 1 $497 0 $275 $-1 forward 7 unknown #
vertex $-1 $276 $498 #
ellipse-curve $-1 -54.393300461506989 1.8085366255523923 3.0174795727129098 -0.79863551827123203 0 0.60181501223851219 0.60181501223851219 0 0.79863551827123203 1 I I #
point $-1 -54.620465558751839 1.8085366255523923 4.4407963921791325 #
loop $-1 $-1 $287 $279 #
plane-surface $-1 56.492202520828883 0 0 -1 0 0 0 0 1 forward_v I I I I #
coedge $-1 $406 $282 $284 $410 reversed $177 $-1 #
coedge $-1 $282 $405 $499 $500 reversed $177 $-1 #
coedge $-1 $290 $285 $282 $408 forward $280 $-1 #
edge $-1 $411 21.812415924640426 $501 25.457908342150667 $407 $502 forward 7 unknown #
coedge $-1 $284 $283 $414 $503 reversed $111 $-1 #
edge $-1 $504 -112.98440504165779 $411 -107.63909531899208 $405 $505 forward 7 unknown #
vertex $-1 $286 $506 #
straight-curve $-1 52.846710103318657 -0.19897931323633244 5.3274042692178156 0 -1 0 I I #
coedge $-1 $499 $287 $290 $418 reversed $403 $-1 #
coedge $-1 $287 $499 $409 $503 forward $403 $-1 #
vertex $-1 $288 $507 #
straight-curve $-1 56.492202520828883 3.0617007088095285 80.55241695449817 0 0 1 I I #
straight-curve $-1 -20.562975428871297 3.0617007088095285 84.049655959296175 0.68199835119979291 0 -0.73135370988377701 I I #
edge $-1 $501 -3.8576179617548583 $291 3.0617007088095285 $413 $508 forward 7 unknown #
point $-1 56.492202520828883 3.0617007088095285 5.3274042692178183 #
point $-1 52.846710103318642 3.0617007088095285 5.3274042692178227 #
edge $-1 $509 1 $509 0 $294 $-1 forward 7 unknown #
vertex $-1 $295 $510 #
ellipse-curve $-1 53.730472428961022 -1.880669770165035 2.49713160577403 0.73135370988377701 0 0.68199835119979291 0.34099917559989645 0 -0.36567685494188851 1 I I #
point $-1 55.010455487673674 -1.880669770165035 3.0070713662012531 #
edge $-1 $511 1 $511 0 $298 $-1 forward 7 unknown #
vertex $-1 $299 $512 #
ellipse-curve $-1 53.730472428961022 1.0847525172197017 2.49713160577403 0.73135370988377701 0 0.68199835119979291 0.34099917559989645 0 -0.36567685494188851 1 I I #
point $-1 55.010455487673674 1.0847525172197017 3.0070713662012531 #
plane-surface $-1 56.492202520828883 0 0 -1 0 0 0 0 1 forward_v I I I I #
coedge $-1 $308 $435 $513 $514 reversed $303 $-1 #
coedge $-1 $513 $305 $306 $433 forward $199 $-1 #
coedge $-1 $305 $513 $313 $443 forward $199 $-1 #
edge $-1 $439 -10.179998692610248 $436 -3.2606800220458609 $431 $515 forward 7 unknown #
edge $-1 $437 3.2606800220458609 $316 10.179998692610248 $314 $516 forward 7 unknown #
coedge $-1 $430 $308 $442 $517 reversed $303 $-1 #
vertex $-1 $433 $518 #
vertex $-1 $434 $519 #
straight-curve $-1 -20.562975428871297 3.0617007088095285 84.049655959296175 0.68199835119979291 0 -0.73135370988377701 I I #
vertex $-1 $312 $520 #
straight-curve $-1 -20.562975428871297 9.9810193793739153 84.049655959296175 0.68199835119979291 0 -0.73135370988377701 I I #
straight-curve $-1 31.034294178678216 9.9810193793739153 5.3274042692178227 -1 0 0 I I #
coedge $-1 $314 $313 $435 $517 forward $315 $-1 #
edge $-1 $521 3.0617007088095285 $317 9.9810193793739153 $313 $522 forward 7 unknown #
point $-1 56.492202520828883 9.9810193793739153 1.4180921730684304 #
point $-1 56.492202520828883 9.9810193793739153 5.3274042692178183 #
edge $-1 $523 1 $523 0 $319 $-1 forward 7 unknown #
vertex $-1 $320 $524 #
ellipse-curve $-1 53.730472428961022 5.0386489003993518 2.49713160577403 0.73135370988377701 0 0.68199835119979291 0.34099917559989645 0 -0.36567685494188851 1 I I #
point $-1 55.010455487673674 5.0386489003993518 3.0070713662012531 #
edge $-1 $525 1 $525 0 $323 $-1 forward 7 unknown #
vertex $-1 $324 $526 #
ellipse-curve $-1 53.730472428961022 8.0040711877840884 2.49713160577403 0.73135370988377701 0 0.68199835119979291 0.34099917559989645 0 -0.36567685494188851 1 I I #
point $-1 55.010455487673674 8.0040711877840884 3.0070713662012531 #
plane-surface $-1 56.492202520828883 0 0 -1 0 0 0 0 1 forward_v I I I I #
coedge $-1 $332 $330 $334 $459 reversed $221 $-1 #
edge $-1 $345 -5.3274042692178183 $461 5.3274042692178183 $344 $527 forward 7 unknown #
vertex $-1 $459 $528 #
straight-curve $-1 -56.492202520828883 -23.767861078284465 0 0 0 -1 I I #
edge $-1 $457 -23.767861078284465 $461 23.767861078284465 $455 $529 forward 7 unknown #
straight-curve $-1 0 -23.767861078284465 -5.3274042692178183 -1 0 0 I I #
vertex $-1 $337 $530 #
straight-curve $-1 0 23.767861078284465 -5.3274042692178183 1 0 0 I I #
point $-1 56.492202520828883 23.767861078284465 -5.3274042692178183 #
point $-1 56.492202520828883 -23.767861078284465 -5.3274042692178183 #
straight-curve $-1 -56.492202520828883 0 5.3274042692178183 0 -1 0 I I #
point $-1 -56.492202520828883 23.767861078284465 5.3274042692178183 #
point $-1 -56.492202520828883 -23.767861078284465 5.3274042692178183 #
straight-curve $-1 56.492202520828883 -23.767861078284465 0 0 0 -1 I I #
straight-curve $-1 56.492202520828883 23.767861078284465 0 0 0 -1 I I #
plane-surface $-1 0 -23.767861078284465 0 0 1 0 0 0 1 forward_v I I I I #
coedge $-1 $531 $357 $369 $482 reversed $240 $-1 #
coedge $-1 $357 $531 $372 $484 reversed $240 $-1 #
edge $-1 $532 -56.492202520828883 $366 -53.492202520828883 $362 $533 forward 7 unknown #
straight-curve $-1 -53.492202520828883 -10.353080184737466 5.3274042692178183 0 1 0 I I #
coedge $-1 $369 $360 $363 $478 forward $355 $-1 #
straight-curve $-1 -53.492202520828883 -10.353080184737466 -5.3274042692178183 0 -1 0 I I #
coedge $-1 $363 $362 $531 $534 forward $364 $-1 #
edge $-1 $365 53.492202520828883 $535 56.492202520828883 $363 $536 forward 7 unknown #
point $-1 -53.492202520828883 -23.767861078284465 -5.3274042692178183 #
point $-1 -53.492202520828883 -23.767861078284465 5.3274042692178183 #
straight-curve $-1 -56.492202520828883 -17.644459660665401 0 0 0 -1 I I #
edge $-1 $535 -23.767861078284465 $370 -17.644459660665401 $471 $537 forward 7 unknown #
point $-1 -56.492202520828883 -17.644459660665401 -5.3274042692178183 #
edge $-1 $373 17.644459660665401 $532 23.767861078284465 $472 $538 forward 7 unknown #
point $-1 -56.492202520828883 -17.644459660665401 5.3274042692178183 #
edge $-1 $487 29.648910021534316 $490 33.019396812154184 $378 $539 forward 7 unknown #
vertex $-1 $392 $540 #
straight-curve $-1 -73.362780698920005 4.3823248752439845 5.3274042692178156 -1 0 0 I I #
edge $-1 $490 -4.4432271561021377 $389 4.5650317178184441 $388 $541 forward 7 unknown #
vertex $-1 $489 $542 #
straight-curve $-1 -56.492202520828855 4.3823248752439845 1.9569174785979868 0.60181501223851219 0 0.79863551827123203 I I #
point $-1 -53.952358621151795 4.3823248752439845 5.3274042692178183 #
point $-1 -56.492202520828883 -4.6259339986765973 1.9569174785979491 #
straight-curve $-1 -56.492202520828883 0 5.3274042692178183 0 -1 0 I I #
vertex $-1 $395 $543 #
point $-1 -53.791485449268478 -2.0521457489850015 3.8161150909841415 #
vertex $-1 $399 $544 #
point $-1 -53.791485449268478 1.8085366255523923 3.8161150909841415 #
coedge $-1 $414 $413 $406 $500 forward $403 $-1 #
edge $-1 $501 75.225012685280348 $504 79.13432478142974 $499 $545 forward 7 unknown #
vertex $-1 $418 $546 #
straight-curve $-1 31.034294178678216 -3.8576179617548583 5.3274042692178227 1 0 0 I I #
edge $-1 $504 -3.6586386485185258 $415 3.2606800220458609 $414 $547 forward 7 unknown #
vertex $-1 $503 $548 #
straight-curve $-1 -20.562975428871297 -3.8576179617548583 84.049655959296175 -0.68199835119979291 0 0.73135370988377701 I I #
point $-1 52.846710103318642 -3.8576179617548583 5.3274042692178227 #
point $-1 56.492202520828883 3.0617007088095285 1.4180921730684304 #
straight-curve $-1 56.492202520828883 0 5.3274042692178183 0 1 0 I I #
vertex $-1 $421 $549 #
point $-1 54.071471604560919 -1.880669770165035 2.1314547508321415 #
vertex $-1 $425 $550 #
point $-1 54.071471604560919 1.0847525172197017 2.1314547508321415 #
coedge $-1 $432 $431 $430 $514 forward $199 $-1 #
edge $-1 $436 21.812415924640426 $521 25.457908342150667 $513 $551 forward 7 unknown #
straight-curve $-1 52.846710103318657 -0.19897931323633244 5.3274042692178156 0 -1 0 I I #
straight-curve $-1 56.492202520828876 -0.19897931323633244 1.4180921730684375 0 1 0 I I #
edge $-1 $521 75.225012685280348 $437 79.13432478142974 $442 $552 forward 7 unknown #
point $-1 52.846710103318642 3.0617007088095285 5.3274042692178227 #
point $-1 56.492202520828883 3.0617007088095285 1.4180921730684304 #
point $-1 52.846710103318642 9.9810193793739153 5.3274042692178227 #
vertex $-1 $443 $553 #
straight-curve $-1 56.492202520828883 0 5.3274042692178183 0 1 0 I I #
vertex $-1 $446 $554 #
point $-1 54.071471604560919 5.0386489003993518 2.1314547508321415 #
vertex $-1 $450 $555 #
point $-1 54.071471604560919 8.0040711877840884 2.1314547508321415 #
straight-curve $-1 -56.492202520828883 23.767861078284465 0 0 0 -1 I I #
point $-1 -56.492202520828883 -23.767861078284465 -5.3274042692178183 #
straight-curve $-1 -56.492202520828883 0 -5.3274042692178183 0 1 0 I I #
point $-1 -56.492202520828883 23.767861078284465 -5.3274042692178183 #
coedge $-1 $472 $471 $477 $534 reversed $240 $-1 #
vertex $-1 $484 $556 #
straight-curve $-1 0 -23.767861078284465 5.3274042692178183 1 0 0 I I #
edge $-1 $532 -5.3274042692178183 $535 5.3274042692178183 $531 $557 forward 7 unknown #
vertex $-1 $482 $558 #
straight-curve $-1 0 -23.767861078284465 -5.3274042692178183 -1 0 0 I I #
straight-curve $-1 -56.492202520828883 0 -5.3274042692178183 0 1 0 I I #
straight-curve $-1 -56.492202520828883 0 5.3274042692178183 0 -1 0 I I #
straight-curve $-1 -56.492202520828883 4.3823248752439845 34.976314290752136 0 0 -1 I I #
point $-1 -56.492202520828883 4.3823248752439845 5.3274042692178183 #
straight-curve $-1 -56.492202520828883 -0.06090228085815319 1.9569174785979531 0 -1 0 I I #
point $-1 -56.492202520828883 4.3823248752439845 1.9569174785979491 #
point $-1 -53.594664943235763 -2.0521457489850015 2.4156645604743971 #
point $-1 -53.594664943235763 1.8085366255523923 2.4156645604743971 #
straight-curve $-1 56.492202520828883 -3.8576179617548583 80.55241695449817 0 0 -1 I I #
point $-1 56.492202520828883 -3.8576179617548583 5.3274042692178183 #
straight-curve $-1 56.492202520828876 -0.19897931323633244 1.4180921730684375 0 1 0 I I #
point $-1 56.492202520828883 -3.8576179617548583 1.4180921730684304 #
point $-1 53.364795574019141 -1.880669770165035 2.1561324301741336 #
point $-1 53.364795574019141 1.0847525172197017 2.1561324301741336 #
straight-curve $-1 31.034294178678216 3.0617007088095285 5.3274042692178227 1 0 0 I I #
straight-curve $-1 56.492202520828883 3.0617007088095285 80.55241695449817 0 0 -1 I I #
point $-1 56.492202520828883 3.0617007088095285 5.3274042692178183 #
point $-1 53.364795574019141 5.0386489003993518 2.1561324301741336 #
point $-1 53.364795574019141 8.0040711877840884 2.1561324301741336 #
point $-1 -56.492202520828883 -23.767861078284465 5.3274042692178183 #
straight-curve $-1 -56.492202520828883 -23.767861078284465 0 0 0 -1 I I #
point $-1 -56.492202520828883 -23.767861078284465 -5.3274042692178183 #
End-of-ACIS-data 