500 0 5 0           
7 Unknown 11 ACIS 5.0 NT 24 Fri Mar 26 15:51:22 1999 
-1 9.9999999999999995e-007 1e-010 
body $-1 $5 $-1 $6 #
body $-1 $7 $-1 $8 #
body $-1 $9 $-1 $10 #
body $-1 $11 $-1 $12 #
body $-1 $13 $-1 $14 #
lump $-1 $-1 $15 $0 #
transform $-1 1 0 0 0 1 0 0 0 1 72.205572679830311 37.873604486389098 13.601301719203317 1 rotate no_reflect no_shear #
lump $-1 $-1 $16 $1 #
transform $-1 1 0 0 0 1 0 0 0 1 72.205572679830311 37.873604486389098 13.601301719203317 1 rotate no_reflect no_shear #
lump $-1 $-1 $17 $2 #
transform $-1 1 0 0 0 1 0 0 0 1 72.205572679830311 37.873604486389098 13.601301719203317 1 rotate no_reflect no_shear #
lump $-1 $-1 $18 $3 #
transform $-1 1 0 0 0 1 0 0 0 1 72.205572679830311 37.873604486389098 13.601301719203317 1 rotate no_reflect no_shear #
lump $-1 $-1 $19 $4 #
transform $-1 1 0 0 0 1 0 0 0 1 72.205572679830311 37.873604486389098 13.601301719203317 1 rotate no_reflect no_shear #
shell $-1 $-1 $-1 $20 $-1 $5 #
shell $-1 $-1 $-1 $21 $-1 $7 #
shell $-1 $-1 $-1 $22 $-1 $9 #
shell $-1 $-1 $-1 $23 $-1 $11 #
shell $-1 $-1 $-1 $24 $-1 $13 #
face $-1 $25 $26 $15 $-1 $27 forward single #
face $-1 $28 $29 $16 $-1 $30 forward single #
face $-1 $31 $32 $17 $-1 $33 reversed single #
face $-1 $34 $35 $18 $-1 $36 forward single #
face $-1 $37 $38 $19 $-1 $39 reversed single #
face $-1 $40 $41 $15 $-1 $42 reversed single #
loop $-1 $-1 $43 $20 #
plane-surface $-1 0 0 13.601301719203317 0 0 1 1 0 0 forward_v I I I I #
face $-1 $44 $45 $16 $-1 $46 forward single #
loop $-1 $-1 $47 $21 #
plane-surface $-1 -62.783484371782862 -30.09422608774997 0 1 0 0 0 0 -1 forward_v I I I I #
face $-1 $48 $49 $17 $-1 $50 forward single #
loop $-1 $-1 $51 $22 #
plane-surface $-1 0 30.532836625016529 -9.3232861615247629 0 0 1 1 0 0 forward_v I I I I #
face $-1 $52 $53 $18 $-1 $54 forward single #
loop $-1 $-1 $55 $23 #
plane-surface $-1 -172.52198476998655 -13.304413471827027 111.41421739125533 0 -1 0 0.69465837861970381 0 -0.71933979245794832 forward_v I I I I #
face $-1 $56 $57 $19 $-1 $58 reversed single #
loop $-1 $59 $60 $24 #
cone-surface $-1 -67.457595951042421 -17.809630580468934 8.9040475248770399 0.69465837861970381 0 -0.71933979245794832 1.4386795849158966 0 1.3893167572394076 1 I I 0 1 2 forward I I I I #
face $-1 $61 $62 $15 $-1 $63 reversed single #
loop $-1 $-1 $64 $25 #
plane-surface $-1 0 0 -13.601301719203317 0 0 1 1 0 0 forward_v I I I I #
coedge $-1 $65 $66 $67 $68 forward $26 $-1 #
face $-1 $69 $70 $16 $-1 $71 forward single #
loop $-1 $-1 $72 $28 #
plane-surface $-1 -60.138729163680075 -22.314847689110842 0 0 -1 0 0 0 -1 forward_v I I I I #
coedge $-1 $73 $74 $75 $76 reversed $29 $-1 #
face $-1 $77 $78 $17 $-1 $79 reversed single #
loop $-1 $-1 $80 $31 #
plane-surface $-1 0 23.19206876364396 -11.46229394036404 0 1 0 0 0 1 forward_v I I I I #
coedge $-1 $81 $82 $83 $84 reversed $32 $-1 #
face $-1 $85 $86 $18 $-1 $87 forward single #
loop $-1 $-1 $88 $34 #
plane-surface $-1 -72.20557267983034 -17.809630580468934 7.533534059622454 -0.69465837861970381 0 0.71933979245794832 0.71933979245794832 0 0.69465837861970381 forward_v I I I I #
coedge $-1 $89 $90 $91 $92 reversed $35 $-1 #
face $-1 $93 $94 $19 $-1 $95 forward single #
loop $-1 $96 $97 $37 #
cone-surface $-1 -65.156639446575483 -17.809630580468934 6.5213373678832376 0.69465837861970381 0 -0.71933979245794832 0.71933979245794832 0 0.69465837861970381 1 I I -0.70710678118654746 0.70710678118654746 1 forward I I I I #
loop $-1 $-1 $98 $24 #
coedge $-1 $60 $60 $99 $100 reversed $38 $-1 #
face $-1 $101 $102 $15 $-1 $103 reversed single #
loop $-1 $-1 $104 $40 #
plane-surface $-1 0 -37.873604486389098 0 0 1 0 0 0 1 forward_v I I I I #
coedge $-1 $105 $106 $107 $108 forward $41 $-1 #
coedge $-1 $109 $43 $110 $111 forward $26 $-1 #
coedge $-1 $43 $109 $112 $113 forward $26 $-1 #
coedge $-1 $114 $115 $43 $68 reversed $116 $-1 #
edge $-1 $117 -37.873604486389098 $118 37.873604486389098 $67 $119 forward 7 unknown #
face $-1 $120 $121 $16 $-1 $122 forward single #
loop $-1 $-1 $123 $44 #
plane-surface $-1 -57.493973955577289 -30.09422608774997 0 -1 0 0 0 0 1 forward_v I I I I #
coedge $-1 $124 $125 $126 $127 reversed $45 $-1 #
coedge $-1 $128 $47 $129 $130 reversed $29 $-1 #
coedge $-1 $47 $128 $131 $132 reversed $29 $-1 #
coedge $-1 $125 $124 $47 $76 forward $45 $-1 #
edge $-1 $133 -13.601301719203317 $134 13.601301719203317 $75 $135 forward 7 unknown #
face $-1 $136 $137 $17 $-1 $138 reversed single #
loop $-1 $-1 $139 $48 #
plane-surface $-1 0 37.873604486389098 0 0 -1 0 0 0 -1 forward_v I I I I #
coedge $-1 $140 $141 $142 $143 reversed $49 $-1 #
coedge $-1 $144 $51 $140 $145 reversed $32 $-1 #
coedge $-1 $51 $144 $139 $146 reversed $32 $-1 #
coedge $-1 $147 $148 $51 $84 forward $149 $-1 #
edge $-1 $150 7.9256504511356951 $151 22.607186173880834 $83 $152 forward 7 unknown #
face $-1 $153 $154 $18 $-1 $155 reversed single #
loop $-1 $-1 $156 $52 #
plane-surface $-1 -172.52198476998655 -22.314847689110842 111.41421739125533 0 1 0 -0.69465837861970381 0 0.71933979245794832 forward_v I I I I #
coedge $-1 $157 $158 $159 $160 reversed $53 $-1 #
coedge $-1 $90 $55 $158 $161 forward $35 $-1 #
coedge $-1 $55 $89 $162 $163 reversed $35 $-1 #
coedge $-1 $164 $159 $55 $92 forward $154 $-1 #
edge $-1 $165 -48.173574636005185 $166 -42.105806976424347 $91 $167 forward 7 unknown #
face $-1 $168 $169 $19 $-1 $170 forward single #
loop $-1 $-1 $171 $56 #
plane-surface $-1 -172.52198476998655 -13.304413471827027 111.41421739125533 0 -1 0 0.69465837861970381 0 -0.71933979245794832 forward_v I I I I #
loop $-1 $-1 $172 $37 #
coedge $-1 $97 $97 $98 $173 forward $57 $-1 #
coedge $-1 $98 $98 $97 $173 reversed $59 $-1 #
coedge $-1 $99 $99 $60 $100 forward $169 $-1 #
edge $-1 $174 0 $174 6.2831853071796004 $99 $175 forward 7 unknown #
face $-1 $176 $177 $15 $-1 $178 reversed single #
loop $-1 $-1 $179 $61 #
plane-surface $-1 -72.205572679830311 0 0 1 0 0 0 0 -1 forward_v I I I I #
coedge $-1 $180 $112 $181 $182 forward $62 $-1 #
coedge $-1 $183 $64 $180 $184 forward $41 $-1 #
coedge $-1 $64 $183 $185 $186 forward $41 $-1 #
coedge $-1 $115 $114 $64 $108 reversed $116 $-1 #
edge $-1 $187 -37.873604486389098 $188 37.873604486389098 $107 $189 forward 7 unknown #
coedge $-1 $66 $65 $190 $191 forward $26 $-1 #
coedge $-1 $192 $193 $65 $111 reversed $177 $-1 #
edge $-1 $118 -72.205572679830311 $194 72.205572679830311 $110 $195 forward 7 unknown #
coedge $-1 $104 $196 $66 $113 reversed $62 $-1 #
edge $-1 $197 -72.205572679830311 $117 72.205572679830311 $112 $198 forward 7 unknown #
coedge $-1 $107 $67 $196 $199 forward $116 $-1 #
coedge $-1 $67 $107 $192 $200 reversed $116 $-1 #
loop $-1 $-1 $114 $176 #
vertex $-1 $68 $201 #
vertex $-1 $68 $202 #
straight-curve $-1 72.205572679830311 0 13.601301719203317 0 1 0 I I #
face $-1 $203 $204 $16 $-1 $205 reversed single #
loop $-1 $-1 $129 $69 #
plane-surface $-1 0 0 13.601301719203317 0 0 1 1 0 0 forward_v I I I I #
coedge $-1 $206 $207 $208 $209 reversed $70 $-1 #
coedge $-1 $75 $72 $210 $211 reversed $45 $-1 #
coedge $-1 $72 $75 $212 $213 reversed $45 $-1 #
coedge $-1 $207 $206 $72 $127 forward $70 $-1 #
edge $-1 $214 -13.601301719203317 $215 13.601301719203317 $126 $216 forward 7 unknown #
coedge $-1 $74 $73 $217 $218 reversed $29 $-1 #
coedge $-1 $210 $219 $73 $130 forward $121 $-1 #
edge $-1 $220 -22.826491442514111 $133 -7.2677346452358567 $129 $221 forward 7 unknown #
coedge $-1 $222 $212 $74 $132 forward $223 $-1 #
edge $-1 $134 7.2677346452358567 $224 22.826491442514111 $131 $225 forward 7 unknown #
vertex $-1 $130 $226 #
vertex $-1 $132 $227 #
straight-curve $-1 -62.783484371782862 -22.314847689110842 0 0 0 -1 I I #
face $-1 $228 $229 $17 $-1 $230 forward single #
loop $-1 $-1 $231 $77 #
plane-surface $-1 -72.205572679830311 0 0 1 0 0 0 0 -1 forward_v I I I I #
coedge $-1 $232 $233 $82 $146 forward $78 $-1 #
coedge $-1 $234 $80 $81 $145 forward $49 $-1 #
coedge $-1 $80 $234 $235 $236 reversed $49 $-1 #
coedge $-1 $237 $231 $80 $143 forward $137 $-1 #
edge $-1 $238 3.592139191342743 $239 7.8701547490212969 $142 $240 forward 7 unknown #
coedge $-1 $82 $81 $231 $241 reversed $32 $-1 #
edge $-1 $238 -72.205572679830311 $150 72.205572679830311 $140 $242 forward 7 unknown #
edge $-1 $151 -72.205572679830311 $243 72.205572679830311 $139 $244 forward 7 unknown #
coedge $-1 $245 $83 $233 $246 reversed $149 $-1 #
coedge $-1 $83 $247 $234 $248 forward $149 $-1 #
loop $-1 $-1 $83 $249 #
vertex $-1 $84 $250 #
vertex $-1 $146 $251 #
straight-curve $-1 72.205572679830311 15.266418312508264 -9.3232861615247629 0 1 0 I I #
face $-1 $252 $253 $18 $-1 $254 reversed single #
loop $-1 $-1 $255 $85 #
plane-surface $-1 -72.205572679830311 0 0 1 0 0 0 0 -1 forward_v I I I I #
coedge $-1 $256 $257 $255 $258 reversed $86 $-1 #
coedge $-1 $259 $88 $257 $260 reversed $53 $-1 #
coedge $-1 $88 $259 $89 $161 reversed $53 $-1 #
coedge $-1 $91 $255 $88 $160 forward $154 $-1 #
edge $-1 $261 -13.410032398876375 $165 -4.3995981815925607 $159 $262 forward 7 unknown #
edge $-1 $165 3.9571264572537829e-014 $263 8.7348945126633382 $89 $264 forward 7 unknown #
coedge $-1 $265 $266 $90 $163 forward $267 $-1 #
edge $-1 $166 14.055419705162961 $263 20.338776911044249 $162 $268 forward 7 unknown #
coedge $-1 $269 $91 $266 $270 reversed $154 $-1 #
vertex $-1 $160 $271 #
vertex $-1 $163 $272 #
straight-curve $-1 -72.205572679830311 -13.304413471827027 55.707108695627667 0 0 1 I I #
face $-1 $273 $274 $19 $-1 $275 forward single #
loop $-1 $276 $99 $93 #
plane-surface $-1 -72.20557267983034 -17.809630580468934 7.533534059622454 -0.69465837861970381 0 0.71933979245794832 0.71933979245794832 0 0.69465837861970381 forward_v I I I I #
coedge $-1 $277 $278 $279 $280 reversed $94 $-1 #
coedge $-1 $172 $172 $-1 $281 forward $96 $-1 #
edge $-1 $282 0 $282 6.2831853071796004 $97 $283 forward 7 unknown #
vertex $-1 $100 $284 #
ellipse-curve $-1 -69.063894076889667 -17.809630580468934 10.567417889412901 0.69465837861970381 0 -0.71933979245794832 1.4386795849158966 0 1.3893167572394076 1 I I #
face $-1 $-1 $116 $15 $-1 $285 reversed single #
loop $-1 $-1 $192 $101 #
plane-surface $-1 0 37.873604486389098 0 0 -1 0 0 0 -1 forward_v I I I I #
coedge $-1 $286 $190 $193 $287 forward $102 $-1 #
coedge $-1 $196 $104 $105 $184 reversed $62 $-1 #
coedge $-1 $190 $286 $104 $182 reversed $102 $-1 #
edge $-1 $197 -13.601301719203317 $288 13.601301719203317 $181 $289 forward 7 unknown #
coedge $-1 $106 $105 $286 $290 forward $41 $-1 #
edge $-1 $188 -72.205572679830311 $288 72.205572679830311 $180 $291 forward 7 unknown #
coedge $-1 $193 $192 $106 $186 reversed $177 $-1 #
edge $-1 $292 -72.205572679830311 $187 72.205572679830311 $185 $293 forward 7 unknown #
vertex $-1 $108 $294 #
vertex $-1 $199 $295 #
straight-curve $-1 72.205572679830311 0 -13.601301719203317 0 -1 0 I I #
coedge $-1 $179 $181 $109 $191 reversed $102 $-1 #
edge $-1 $194 -37.873604486389098 $197 37.873604486389098 $190 $296 forward 7 unknown #
coedge $-1 $185 $110 $115 $200 forward $177 $-1 #
coedge $-1 $110 $185 $179 $287 reversed $177 $-1 #
vertex $-1 $111 $297 #
straight-curve $-1 0 37.873604486389098 13.601301719203317 -1 0 0 I I #
coedge $-1 $112 $180 $114 $199 reversed $62 $-1 #
vertex $-1 $191 $298 #
straight-curve $-1 0 -37.873604486389098 13.601301719203317 1 0 0 I I #
edge $-1 $117 -13.601301719203317 $188 13.601301719203317 $114 $299 forward 7 unknown #
edge $-1 $118 -13.601301719203317 $187 13.601301719203317 $115 $300 forward 7 unknown #
point $-1 72.205572679830311 -37.873604486389098 13.601301719203317 #
point $-1 72.205572679830311 37.873604486389098 13.601301719203317 #
face $-1 $301 $223 $16 $-1 $302 reversed single #
loop $-1 $-1 $208 $120 #
plane-surface $-1 0 -37.873604486389098 0 0 1 0 0 0 1 forward_v I I I I #
coedge $-1 $126 $123 $303 $304 reversed $70 $-1 #
coedge $-1 $123 $126 $305 $306 reversed $70 $-1 #
coedge $-1 $307 $308 $123 $209 forward $204 $-1 #
edge $-1 $309 -13.601301719203317 $310 13.601301719203317 $208 $311 forward 7 unknown #
coedge $-1 $303 $129 $124 $211 forward $121 $-1 #
edge $-1 $133 -32.714119789942828 $214 -27.424609373737251 $210 $312 forward 7 unknown #
coedge $-1 $131 $305 $125 $213 forward $223 $-1 #
edge $-1 $215 27.424609373737251 $134 32.714119789942828 $212 $313 forward 7 unknown #
vertex $-1 $211 $314 #
vertex $-1 $213 $315 #
straight-curve $-1 -57.493973955577289 -22.314847689110842 0 0 0 -1 I I #
coedge $-1 $316 $317 $128 $218 forward $318 $-1 #
edge $-1 $224 -13.601301719203317 $220 13.601301719203317 $217 $319 forward 7 unknown #
coedge $-1 $129 $320 $316 $321 forward $121 $-1 #
vertex $-1 $218 $322 #
straight-curve $-1 -62.783484371782862 -15.047113043874985 13.601301719203317 0 1 0 I I #
coedge $-1 $323 $131 $317 $324 forward $223 $-1 #
loop $-1 $-1 $131 $203 #
vertex $-1 $324 $325 #
straight-curve $-1 -62.783484371782862 -15.047113043874985 -13.601301719203317 0 -1 0 I I #
point $-1 -62.783484371782862 -22.314847689110842 13.601301719203317 #
point $-1 -62.783484371782862 -22.314847689110842 -13.601301719203317 #
face $-1 $326 $327 $17 $-1 $328 forward single #
loop $-1 $-1 $329 $136 #
plane-surface $-1 -62.783484371782862 -30.09422608774997 0 1 0 0 0 0 -1 forward_v I I I I #
coedge $-1 $142 $330 $144 $241 forward $137 $-1 #
coedge $-1 $331 $139 $330 $332 reversed $78 $-1 #
coedge $-1 $139 $331 $147 $246 forward $78 $-1 #
coedge $-1 $141 $140 $148 $248 reversed $49 $-1 #
coedge $-1 $333 $334 $141 $236 forward $335 $-1 #
edge $-1 $239 -72.205572679830311 $336 72.205572679830311 $235 $337 forward 7 unknown #
coedge $-1 $338 $142 $334 $339 reversed $137 $-1 #
vertex $-1 $241 $340 #
vertex $-1 $143 $341 #
straight-curve $-1 -72.205572679830311 23.19206876364396 -5.7311469701820199 0 0 -1 I I #
edge $-1 $243 -22.607186173880834 $238 -7.9256504511356951 $231 $342 forward 7 unknown #
straight-curve $-1 0 23.19206876364396 -9.3232861615247629 1 0 0 I I #
vertex $-1 $241 $343 #
straight-curve $-1 0 37.873604486389098 -9.3232861615247629 -1 0 0 I I #
coedge $-1 $344 $147 $345 $346 reversed $149 $-1 #
edge $-1 $347 -13.601301719203317 $151 9.3232861615247629 $147 $348 forward 7 unknown #
coedge $-1 $148 $344 $333 $349 reversed $149 $-1 #
edge $-1 $336 -7.8701547490212969 $150 -3.592139191342743 $148 $350 forward 7 unknown #
face $-1 $-1 $149 $17 $-1 $351 reversed single #
point $-1 72.205572679830311 23.19206876364396 -9.3232861615247629 #
point $-1 72.205572679830311 37.873604486389098 -9.3232861615247629 #
face $-1 $352 $353 $18 $-1 $354 forward single #
loop $-1 $-1 $355 $153 #
plane-surface $-1 0 30.532836625016529 -9.3232861615247629 0 0 1 1 0 0 forward_v I I I I #
coedge $-1 $159 $356 $156 $258 forward $154 $-1 #
coedge $-1 $257 $156 $357 $358 reversed $86 $-1 #
coedge $-1 $156 $256 $157 $260 forward $86 $-1 #
edge $-1 $359 42.105806976424347 $261 48.173574636005185 $255 $360 forward 7 unknown #
coedge $-1 $158 $157 $265 $361 reversed $53 $-1 #
edge $-1 $362 -8.7348945126633382 $261 -3.9571264572537829e-014 $257 $363 forward 7 unknown #
vertex $-1 $160 $364 #
straight-curve $-1 -72.205572679830311 -8.9048152902344668 7.5335340596224771 0 1 0 I I #
vertex $-1 $361 $365 #
straight-curve $-1 -72.20557267983034 -13.304413471827027 7.533534059622454 0.71933979245794832 0 0.69465837861970381 I I #
coedge $-1 $357 $162 $259 $361 forward $267 $-1 #
coedge $-1 $162 $366 $164 $270 forward $267 $-1 #
loop $-1 $-1 $357 $367 #
straight-curve $-1 -86.260992384993273 -13.304413471827027 13.60130171920332 1 0 0 I I #
coedge $-1 $368 $164 $369 $370 forward $154 $-1 #
edge $-1 $371 -37.873604486389098 $166 13.304413471827027 $164 $372 forward 7 unknown #
point $-1 -72.205572679830311 -13.304413471827027 7.5335340596224816 #
point $-1 -72.205572679830311 -13.304413471827027 13.601301719203317 #
face $-1 $373 $374 $19 $-1 $375 reversed single #
loop $-1 $-1 $376 $168 #
plane-surface $-1 -172.52198476998655 -22.314847689110842 111.41421739125533 0 1 0 -0.69465837861970381 0 0.71933979245794832 forward_v I I I I #
loop $-1 $-1 $377 $93 #
coedge $-1 $278 $171 $378 $379 forward $94 $-1 #
coedge $-1 $171 $277 $380 $381 reversed $94 $-1 #
coedge $-1 $382 $383 $171 $280 forward $374 $-1 #
edge $-1 $384 -48.173574636005185 $385 -42.105806976424347 $279 $386 forward 7 unknown #
edge $-1 $387 1 $387 0 $172 $-1 forward 7 unknown #
vertex $-1 $173 $388 #
ellipse-curve $-1 -65.851297825195189 -17.809630580468934 7.2406771603411855 -0.69465837861970381 0 0.71933979245794832 1.4386795849158966 0 1.3893167572394076 1 I I #
point $-1 -67.625214491973765 -17.809630580468934 11.956734646652301 #
plane-surface $-1 72.205572679830311 0 0 -1 0 0 0 0 1 forward_v I I I I #
coedge $-1 $181 $179 $183 $290 reversed $102 $-1 #
edge $-1 $194 -13.601301719203317 $292 13.601301719203317 $193 $389 forward 7 unknown #
vertex $-1 $290 $390 #
straight-curve $-1 -72.205572679830311 -37.873604486389098 0 0 0 -1 I I #
edge $-1 $288 -37.873604486389098 $292 37.873604486389098 $286 $391 forward 7 unknown #
straight-curve $-1 0 -37.873604486389098 -13.601301719203317 -1 0 0 I I #
vertex $-1 $186 $392 #
straight-curve $-1 0 37.873604486389098 -13.601301719203317 1 0 0 I I #
point $-1 72.205572679830311 37.873604486389098 -13.601301719203317 #
point $-1 72.205572679830311 -37.873604486389098 -13.601301719203317 #
straight-curve $-1 -72.205572679830311 0 13.601301719203317 0 -1 0 I I #
point $-1 -72.205572679830311 37.873604486389098 13.601301719203317 #
point $-1 -72.205572679830311 -37.873604486389098 13.601301719203317 #
straight-curve $-1 72.205572679830311 -37.873604486389098 0 0 0 -1 I I #
straight-curve $-1 72.205572679830311 37.873604486389098 0 0 0 -1 I I #
face $-1 $393 $318 $16 $-1 $205 reversed single #
plane-surface $-1 0 0 -13.601301719203317 0 0 1 1 0 0 forward_v I I I I #
coedge $-1 $394 $210 $206 $304 forward $121 $-1 #
edge $-1 $214 7.2677346452358567 $309 22.826491442514111 $303 $395 forward 7 unknown #
coedge $-1 $212 $396 $207 $306 forward $223 $-1 #
edge $-1 $310 -22.826491442514111 $215 -7.2677346452358567 $305 $397 forward 7 unknown #
coedge $-1 $398 $208 $396 $399 reversed $204 $-1 #
coedge $-1 $208 $398 $394 $400 reversed $204 $-1 #
vertex $-1 $400 $401 #
vertex $-1 $209 $402 #
straight-curve $-1 -57.493973955577289 -37.873604486389098 0 0 0 -1 I I #
straight-curve $-1 -30.069364581840038 -22.314847689110842 13.601301719203317 1 0 0 I I #
straight-curve $-1 -30.069364581840038 -22.314847689110842 -13.601301719203317 -1 0 0 I I #
point $-1 -57.493973955577289 -22.314847689110842 13.601301719203317 #
point $-1 -57.493973955577289 -22.314847689110842 -13.601301719203317 #
coedge $-1 $403 $217 $219 $321 reversed $318 $-1 #
coedge $-1 $217 $403 $222 $324 reversed $318 $-1 #
loop $-1 $-1 $217 $301 #
straight-curve $-1 -62.783484371782862 -37.873604486389098 0 0 0 1 I I #
coedge $-1 $219 $404 $405 $406 forward $121 $-1 #
edge $-1 $407 -72.205572679830311 $220 -62.783484371782862 $316 $408 forward 7 unknown #
point $-1 -62.783484371782862 -37.873604486389098 13.601301719203317 #
coedge $-1 $409 $222 $410 $411 forward $223 $-1 #
edge $-1 $224 62.783484371782862 $412 72.205572679830311 $317 $413 forward 7 unknown #
point $-1 -62.783484371782862 -37.873604486389098 -13.601301719203317 #
face $-1 $414 $415 $17 $-1 $416 forward single #
loop $-1 $-1 $417 $228 #
plane-surface $-1 -60.138729163680075 -22.314847689110842 0 0 -1 0 0 0 -1 forward_v I I I I #
coedge $-1 $418 $419 $420 $421 reversed $229 $-1 #
coedge $-1 $231 $422 $232 $332 forward $137 $-1 #
coedge $-1 $233 $232 $423 $424 reversed $78 $-1 #
edge $-1 $425 -13.601301719203317 $243 9.3232861615247629 $232 $426 forward 7 unknown #
coedge $-1 $427 $235 $247 $349 forward $335 $-1 #
coedge $-1 $235 $428 $237 $339 forward $335 $-1 #
loop $-1 $-1 $235 $429 #
vertex $-1 $349 $430 #
straight-curve $-1 0 23.19206876364396 -13.601301719203317 1 0 0 I I #
coedge $-1 $422 $237 $431 $432 reversed $137 $-1 #
edge $-1 $433 -37.873604486389098 $239 23.19206876364396 $237 $434 forward 7 unknown #
point $-1 -72.205572679830311 23.19206876364396 -9.3232861615247629 #
point $-1 -72.205572679830311 23.19206876364396 -13.601301719203317 #
straight-curve $-1 -72.205572679830311 15.266418312508264 -9.3232861615247629 0 -1 0 I I #
point $-1 -72.205572679830311 37.873604486389098 -9.3232861615247629 #
coedge $-1 $247 $245 $435 $436 forward $149 $-1 #
coedge $-1 $423 $437 $245 $346 forward $438 $-1 #
edge $-1 $439 -37.873604486389098 $347 37.873604486389098 $245 $440 forward 7 unknown #
vertex $-1 $346 $441 #
straight-curve $-1 72.205572679830311 37.873604486389098 0 0 0 -1 I I #
edge $-1 $336 -23.19206876364396 $442 37.873604486389098 $247 $443 forward 7 unknown #
straight-curve $-1 72.205572679830311 23.19206876364396 -5.7311469701820199 0 0 1 I I #
plane-surface $-1 72.205572679830311 0 0 -1 0 0 0 0 1 forward_v I I I I #
face $-1 $444 $445 $18 $-1 $446 reversed single #
loop $-1 $-1 $447 $252 #
plane-surface $-1 0 23.19206876364396 -11.46229394036404 0 1 0 0 0 1 forward_v I I I I #
coedge $-1 $448 $449 $450 $451 reversed $253 $-1 #
coedge $-1 $255 $452 $453 $454 reversed $154 $-1 #
coedge $-1 $453 $265 $256 $358 forward $267 $-1 #
edge $-1 $362 -20.338776911044249 $359 -14.055419705162961 $357 $455 forward 7 unknown #
vertex $-1 $454 $456 #
straight-curve $-1 -72.205572679830311 -22.314847689110842 55.707108695627667 0 0 -1 I I #
edge $-1 $263 4.3995981815925607 $362 13.410032398876375 $265 $457 forward 7 unknown #
vertex $-1 $361 $458 #
straight-curve $-1 -72.20557267983034 -22.314847689110842 7.533534059622454 -0.71933979245794832 0 -0.69465837861970381 I I #
point $-1 -72.205572679830311 -22.314847689110842 7.5335340596224816 #
point $-1 -65.922215473949024 -13.304413471827027 13.601301719203317 #
coedge $-1 $266 $459 $460 $461 forward $267 $-1 #
face $-1 $462 $267 $18 $-1 $463 forward single #
coedge $-1 $464 $269 $465 $466 forward $154 $-1 #
coedge $-1 $460 $467 $269 $370 reversed $445 $-1 #
edge $-1 $371 -13.601301719203317 $468 9.3232861615247629 $369 $469 forward 7 unknown #
vertex $-1 $461 $470 #
straight-curve $-1 -72.205572679830311 0 13.601301719203317 0 -1 0 I I #
face $-1 $471 $472 $19 $-1 $473 reversed single #
loop $-1 $-1 $474 $273 #
plane-surface $-1 -72.205572679830311 0 0 1 0 0 0 0 -1 forward_v I I I I #
coedge $-1 $475 $476 $474 $477 reversed $274 $-1 #
coedge $-1 $478 $378 $383 $479 reversed $276 $-1 #
coedge $-1 $377 $480 $277 $379 reversed $276 $-1 #
edge $-1 $384 3.9571264572537829e-014 $481 8.7348945126633382 $277 $482 forward 7 unknown #
coedge $-1 $483 $484 $278 $381 forward $485 $-1 #
edge $-1 $385 14.055419705162961 $481 20.338776911044249 $380 $486 forward 7 unknown #
coedge $-1 $487 $279 $484 $488 reversed $374 $-1 #
coedge $-1 $279 $474 $377 $479 forward $374 $-1 #
vertex $-1 $479 $489 #
vertex $-1 $381 $490 #
straight-curve $-1 -72.205572679830311 -13.304413471827027 55.707108695627667 0 0 1 I I #
vertex $-1 $281 $491 #
point $-1 -64.412618240279286 -17.809630580468934 8.6299939175805935 #
straight-curve $-1 -72.205572679830311 37.873604486389098 0 0 0 -1 I I #
point $-1 -72.205572679830311 -37.873604486389098 -13.601301719203317 #
straight-curve $-1 -72.205572679830311 0 -13.601301719203317 0 1 0 I I #
point $-1 -72.205572679830311 37.873604486389098 -13.601301719203317 #
face $-1 $492 $493 $16 $-1 $494 reversed single #
coedge $-1 $495 $303 $308 $400 forward $121 $-1 #
straight-curve $-1 -57.493973955577289 -15.047113043874985 13.601301719203317 0 -1 0 I I #
coedge $-1 $305 $496 $307 $399 forward $223 $-1 #
straight-curve $-1 -57.493973955577289 -15.047113043874985 -13.601301719203317 0 1 0 I I #
coedge $-1 $308 $307 $497 $498 reversed $204 $-1 #
edge $-1 $499 -72.205572679830311 $310 57.493973955577289 $307 $413 forward 7 unknown #
edge $-1 $309 -57.493973955577289 $500 72.205572679830311 $308 $408 forward 7 unknown #
point $-1 -57.493973955577289 -37.873604486389098 13.601301719203317 #
point $-1 -57.493973955577289 -37.873604486389098 -13.601301719203317 #
coedge $-1 $317 $316 $501 $502 forward $318 $-1 #
coedge $-1 $320 $495 $503 $504 forward $121 $-1 #
coedge $-1 $505 $501 $320 $406 reversed $493 $-1 #
edge $-1 $506 -37.873604486389098 $407 37.873604486389098 $405 $507 forward 7 unknown #
vertex $-1 $406 $508 #
straight-curve $-1 0 -37.873604486389098 13.601301719203317 1 0 0 I I #
coedge $-1 $496 $323 $509 $510 forward $223 $-1 #
coedge $-1 $501 $505 $323 $411 reversed $493 $-1 #
edge $-1 $412 -37.873604486389098 $511 37.873604486389098 $410 $512 forward 7 unknown #
vertex $-1 $411 $513 #
straight-curve $-1 0 -37.873604486389098 -13.601301719203317 -1 0 0 I I #
face $-1 $514 $438 $17 $-1 $515 forward single #
loop $-1 $-1 $516 $326 #
plane-surface $-1 -57.493973955577289 -30.09422608774997 0 -1 0 0 0 0 1 forward_v I I I I #
coedge $-1 $517 $518 $519 $520 reversed $327 $-1 #
coedge $-1 $521 $329 $522 $523 reversed $229 $-1 #
coedge $-1 $329 $521 $524 $525 reversed $229 $-1 #
coedge $-1 $518 $517 $329 $421 forward $327 $-1 #
edge $-1 $526 -13.601301719203317 $527 13.601301719203317 $420 $528 forward 7 unknown #
coedge $-1 $330 $338 $529 $530 reversed $137 $-1 #
coedge $-1 $529 $345 $331 $424 forward $438 $-1 #
edge $-1 $347 -72.205572679830311 $425 72.205572679830311 $331 $531 forward 7 unknown #
vertex $-1 $424 $532 #
straight-curve $-1 -72.205572679830311 37.873604486389098 0 0 0 -1 I I #
coedge $-1 $533 $333 $534 $535 forward $335 $-1 #
coedge $-1 $334 $524 $536 $537 forward $335 $-1 #
face $-1 $538 $335 $17 $-1 $539 reversed single #
point $-1 72.205572679830311 23.19206876364396 -13.601301719203317 #
coedge $-1 $536 $540 $338 $432 forward $541 $-1 #
edge $-1 $542 -13.601301719203317 $433 13.601301719203317 $338 $543 forward 7 unknown #
vertex $-1 $339 $544 #
straight-curve $-1 -72.205572679830311 0 -13.601301719203317 0 1 0 I I #
coedge $-1 $545 $534 $344 $436 reversed $546 $-1 #
edge $-1 $439 -13.601301719203317 $442 13.601301719203317 $344 $547 forward 7 unknown #
coedge $-1 $345 $548 $545 $549 forward $438 $-1 #
loop $-1 $-1 $522 $414 #
vertex $-1 $346 $550 #
straight-curve $-1 72.205572679830311 0 13.601301719203317 0 1 0 I I #
point $-1 72.205572679830311 37.873604486389098 13.601301719203317 #
vertex $-1 $436 $551 #
straight-curve $-1 72.205572679830311 0 -13.601301719203317 0 -1 0 I I #
face $-1 $552 $553 $18 $-1 $554 forward single #
loop $-1 $-1 $467 $352 #
plane-surface $-1 0 37.873604486389098 0 0 -1 0 0 0 -1 forward_v I I I I #
coedge $-1 $555 $556 $464 $557 reversed $353 $-1 #
coedge $-1 $465 $355 $555 $558 reversed $253 $-1 #
coedge $-1 $355 $465 $467 $559 reversed $253 $-1 #
coedge $-1 $560 $561 $355 $451 forward $562 $-1 #
edge $-1 $563 7.9256504511356951 $564 22.607186173880834 $450 $565 forward 7 unknown #
coedge $-1 $356 $566 $567 $568 reversed $154 $-1 #
coedge $-1 $569 $357 $356 $454 forward $267 $-1 #
edge $-1 $359 22.314847689110842 $570 37.873604486389098 $356 $372 forward 7 unknown #
straight-curve $-1 -86.260992384993273 -22.314847689110842 13.60130171920332 -1 0 0 I I #
point $-1 -72.205572679830311 -22.314847689110842 13.601301719203317 #
straight-curve $-1 -65.922215473949024 -8.9048152902344668 13.601301719203317 0 -1 0 I I #
point $-1 -65.922215473949024 -22.314847689110842 13.601301719203317 #
coedge $-1 $366 $571 $572 $573 forward $267 $-1 #
coedge $-1 $574 $369 $366 $461 reversed $445 $-1 #
edge $-1 $575 -72.205572679830311 $371 72.205572679830311 $460 $576 forward 7 unknown #
face $-1 $577 $578 $18 $-1 $579 reversed single #
plane-surface $-1 0 0 13.601301719203317 0 0 1 1 0 0 forward_v I I I I #
coedge $-1 $566 $368 $447 $557 forward $154 $-1 #
coedge $-1 $449 $448 $368 $466 reversed $253 $-1 #
edge $-1 $468 -22.607186173880834 $580 -7.9256504511356951 $368 $581 forward 7 unknown #
coedge $-1 $369 $574 $449 $559 forward $445 $-1 #
vertex $-1 $466 $582 #
straight-curve $-1 -72.205572679830311 37.873604486389098 0 0 0 -1 I I #
point $-1 -72.205572679830311 37.873604486389098 13.601301719203317 #
face $-1 $583 $584 $19 $-1 $585 forward single #
loop $-1 $-1 $586 $373 #
plane-surface $-1 0 30.532836625016529 -9.3232861615247629 0 0 1 1 0 0 forward_v I I I I #
coedge $-1 $383 $587 $376 $477 forward $374 $-1 #
coedge $-1 $476 $376 $588 $589 reversed $274 $-1 #
coedge $-1 $376 $475 $478 $590 forward $274 $-1 #
edge $-1 $591 42.105806976424347 $592 48.173574636005185 $474 $593 forward 7 unknown #
coedge $-1 $480 $377 $476 $590 reversed $276 $-1 #
edge $-1 $592 -13.410032398876375 $384 -4.3995981815925607 $383 $594 forward 7 unknown #
coedge $-1 $378 $478 $483 $595 reversed $276 $-1 #
vertex $-1 $595 $596 #
straight-curve $-1 -72.20557267983034 -13.304413471827027 7.533534059622454 0.71933979245794832 0 0.69465837861970381 I I #
coedge $-1 $588 $380 $480 $595 forward $485 $-1 #
coedge $-1 $380 $597 $382 $488 forward $485 $-1 #
loop $-1 $-1 $588 $598 #
straight-curve $-1 -86.260992384993273 -13.304413471827027 13.60130171920332 1 0 0 I I #
coedge $-1 $599 $382 $600 $601 forward $374 $-1 #
edge $-1 $602 -37.873604486389098 $385 13.304413471827027 $382 $603 forward 7 unknown #
point $-1 -72.205572679830311 -13.304413471827027 7.5335340596224816 #
point $-1 -72.205572679830311 -13.304413471827027 13.601301719203317 #
point $-1 -64.461981067955776 -17.809630580468934 5.8019975754252897 #
face $-1 $604 $605 $16 $-1 $606 reversed single #
loop $-1 $-1 $505 $393 #
plane-surface $-1 -72.205572679830311 0 0 1 0 0 0 0 -1 forward_v I I I I #
coedge $-1 $404 $394 $607 $608 forward $121 $-1 #
coedge $-1 $396 $409 $609 $610 forward $223 $-1 #
coedge $-1 $609 $607 $398 $498 forward $611 $-1 #
edge $-1 $500 -13.601301719203317 $499 13.601301719203317 $497 $612 forward 7 unknown #
vertex $-1 $498 $613 #
vertex $-1 $608 $614 #
coedge $-1 $405 $410 $403 $502 reversed $493 $-1 #
edge $-1 $407 -13.601301719203317 $412 13.601301719203317 $501 $615 forward 7 unknown #
coedge $-1 $616 $617 $404 $504 reversed $605 $-1 #
edge $-1 $618 -72.205572679830311 $506 72.205572679830311 $503 $619 forward 7 unknown #
coedge $-1 $410 $405 $617 $620 forward $493 $-1 #
vertex $-1 $504 $621 #
straight-curve $-1 -72.205572679830311 0 13.601301719203317 0 -1 0 I I #
point $-1 -72.205572679830311 -37.873604486389098 13.601301719203317 #
coedge $-1 $617 $616 $409 $510 reversed $605 $-1 #
edge $-1 $511 -72.205572679830311 $622 72.205572679830311 $509 $623 forward 7 unknown #
vertex $-1 $510 $624 #
straight-curve $-1 -72.205572679830311 0 -13.601301719203317 0 1 0 I I #
point $-1 -72.205572679830311 -37.873604486389098 -13.601301719203317 #
face $-1 $429 $546 $17 $-1 $625 reversed single #
plane-surface $-1 0 0 13.601301719203317 0 0 1 1 0 0 forward_v I I I I #
coedge $-1 $626 $627 $628 $629 reversed $415 $-1 #
coedge $-1 $420 $417 $630 $631 reversed $327 $-1 #
coedge $-1 $417 $420 $632 $633 reversed $327 $-1 #
coedge $-1 $627 $626 $417 $520 forward $415 $-1 #
edge $-1 $634 -13.601301719203317 $635 13.601301719203317 $519 $636 forward 7 unknown #
coedge $-1 $419 $418 $637 $638 reversed $229 $-1 #
coedge $-1 $630 $639 $418 $523 forward $438 $-1 #
edge $-1 $640 -22.826491442514111 $526 -7.2677346452358567 $522 $641 forward 7 unknown #
coedge $-1 $428 $632 $419 $525 forward $335 $-1 #
edge $-1 $527 7.2677346452358567 $642 22.826491442514111 $524 $643 forward 7 unknown #
vertex $-1 $523 $644 #
vertex $-1 $525 $645 #
straight-curve $-1 -62.783484371782862 -22.314847689110842 0 0 0 -1 I I #
coedge $-1 $639 $423 $422 $530 forward $438 $-1 #
edge $-1 $425 -37.873604486389098 $542 37.873604486389098 $422 $646 forward 7 unknown #
straight-curve $-1 0 37.873604486389098 13.601301719203317 -1 0 0 I I #
point $-1 -72.205572679830311 37.873604486389098 13.601301719203317 #
coedge $-1 $632 $427 $627 $647 forward $335 $-1 #
coedge $-1 $435 $628 $427 $535 reversed $546 $-1 #
edge $-1 $442 -72.205572679830311 $648 57.493973955577289 $534 $649 forward 7 unknown #
coedge $-1 $637 $431 $428 $537 reversed $541 $-1 #
edge $-1 $642 62.783484371782862 $433 72.205572679830311 $536 $649 forward 7 unknown #
face $-1 $249 $541 $17 $-1 $625 reversed single #
plane-surface $-1 0 0 -13.601301719203317 0 0 1 1 0 0 forward_v I I I I #
coedge $-1 $431 $637 $639 $650 reversed $541 $-1 #
loop $-1 $-1 $637 $538 #
vertex $-1 $530 $651 #
straight-curve $-1 -72.205572679830311 -37.873604486389098 0 0 0 -1 I I #
point $-1 -72.205572679830311 -37.873604486389098 -13.601301719203317 #
coedge $-1 $628 $435 $437 $549 reversed $546 $-1 #
loop $-1 $-1 $628 $514 #
straight-curve $-1 72.205572679830311 -37.873604486389098 0 0 0 -1 I I #
coedge $-1 $437 $630 $626 $652 forward $438 $-1 #
edge $-1 $653 -57.493973955577289 $439 72.205572679830311 $545 $654 forward 7 unknown #
point $-1 72.205572679830311 -37.873604486389098 13.601301719203317 #
point $-1 72.205572679830311 -37.873604486389098 -13.601301719203317 #
face $-1 $655 $656 $18 $-1 $657 forward single #
loop $-1 $-1 $658 $444 #
plane-surface $-1 -62.783484371782862 -30.09422608774997 0 1 0 0 0 0 -1 forward_v I I I I #
coedge $-1 $659 $447 $448 $558 forward $353 $-1 #
coedge $-1 $447 $659 $660 $661 reversed $353 $-1 #
edge $-1 $580 3.592139191342743 $662 7.8701547490212969 $464 $663 forward 7 unknown #
edge $-1 $580 -72.205572679830311 $563 72.205572679830311 $555 $664 forward 7 unknown #
edge $-1 $564 -72.205572679830311 $468 72.205572679830311 $467 $665 forward 7 unknown #
coedge $-1 $572 $450 $574 $666 reversed $562 $-1 #
coedge $-1 $450 $667 $659 $668 forward $562 $-1 #
loop $-1 $-1 $450 $669 #
vertex $-1 $451 $670 #
vertex $-1 $559 $671 #
straight-curve $-1 72.205572679830311 15.266418312508264 -9.3232861615247629 0 1 0 I I #
coedge $-1 $452 $464 $672 $673 reversed $154 $-1 #
coedge $-1 $674 $675 $452 $568 forward $676 $-1 #
edge $-1 $570 -13.601301719203317 $677 13.601301719203317 $452 $678 forward 7 unknown #
coedge $-1 $679 $453 $675 $680 forward $267 $-1 #
vertex $-1 $454 $681 #
coedge $-1 $459 $682 $683 $684 forward $267 $-1 #
coedge $-1 $685 $560 $459 $573 reversed $562 $-1 #
edge $-1 $686 -37.873604486389098 $575 37.873604486389098 $572 $687 forward 7 unknown #
coedge $-1 $467 $460 $560 $666 forward $445 $-1 #
vertex $-1 $573 $688 #
straight-curve $-1 0 37.873604486389098 13.601301719203317 -1 0 0 I I #
face $-1 $689 $690 $18 $-1 $691 reversed single #
loop $-1 $-1 $692 $462 #
plane-surface $-1 0 -37.873604486389098 0 0 1 0 0 0 1 forward_v I I I I #
vertex $-1 $466 $693 #
straight-curve $-1 -72.205572679830311 15.266418312508264 -9.3232861615247629 0 -1 0 I I #
point $-1 -72.205572679830311 37.873604486389098 -9.3232861615247629 #
face $-1 $694 $695 $19 $-1 $696 reversed single #
loop $-1 $-1 $697 $471 #
plane-surface $-1 0 23.19206876364396 -11.46229394036404 0 1 0 0 0 1 forward_v I I I I #
coedge $-1 $698 $699 $700 $701 reversed $472 $-1 #
coedge $-1 $474 $702 $703 $704 reversed $374 $-1 #
coedge $-1 $703 $483 $475 $589 forward $485 $-1 #
edge $-1 $705 -20.338776911044249 $591 -14.055419705162961 $588 $706 forward 7 unknown #
edge $-1 $705 -8.7348945126633382 $592 -3.9571264572537829e-014 $476 $707 forward 7 unknown #
vertex $-1 $704 $708 #
vertex $-1 $479 $709 #
straight-curve $-1 -72.205572679830311 -22.314847689110842 55.707108695627667 0 0 -1 I I #
straight-curve $-1 -72.205572679830311 -8.9048152902344668 7.5335340596224771 0 1 0 I I #
edge $-1 $481 4.3995981815925607 $705 13.410032398876375 $483 $710 forward 7 unknown #
point $-1 -65.922215473949024 -13.304413471827027 13.601301719203317 #
coedge $-1 $484 $711 $712 $713 forward $485 $-1 #
face $-1 $714 $485 $19 $-1 $715 forward single #
coedge $-1 $716 $487 $717 $718 forward $374 $-1 #
coedge $-1 $712 $719 $487 $601 reversed $695 $-1 #
edge $-1 $602 -13.601301719203317 $720 9.3232861615247629 $600 $721 forward 7 unknown #
vertex $-1 $713 $722 #
straight-curve $-1 -72.205572679830311 0 13.601301719203317 0 -1 0 I I #
face $-1 $-1 $611 $16 $-1 $723 reversed single #
loop $-1 $-1 $616 $492 #
plane-surface $-1 0 37.873604486389098 0 0 -1 0 0 0 -1 forward_v I I I I #
coedge $-1 $497 $724 $495 $608 reversed $611 $-1 #
edge $-1 $500 -37.873604486389098 $618 37.873604486389098 $607 $725 forward 7 unknown #
coedge $-1 $724 $497 $496 $610 reversed $611 $-1 #
edge $-1 $622 -37.873604486389098 $499 37.873604486389098 $609 $726 forward 7 unknown #
loop $-1 $-1 $497 $604 #
straight-curve $-1 72.205572679830311 -37.873604486389098 0 0 0 -1 I I #
point $-1 72.205572679830311 -37.873604486389098 -13.601301719203317 #
point $-1 72.205572679830311 -37.873604486389098 13.601301719203317 #
straight-curve $-1 -72.205572679830311 -37.873604486389098 0 0 0 -1 I I #
coedge $-1 $509 $503 $724 $727 forward $605 $-1 #
coedge $-1 $503 $509 $505 $620 reversed $605 $-1 #
vertex $-1 $608 $728 #
straight-curve $-1 0 37.873604486389098 13.601301719203317 -1 0 0 I I #
edge $-1 $506 -13.601301719203317 $511 13.601301719203317 $617 $729 forward 7 unknown #
point $-1 -72.205572679830311 37.873604486389098 13.601301719203317 #
vertex $-1 $610 $730 #
straight-curve $-1 0 37.873604486389098 -13.601301719203317 1 0 0 I I #
point $-1 -72.205572679830311 37.873604486389098 -13.601301719203317 #
plane-surface $-1 0 -37.873604486389098 0 0 1 0 0 0 1 forward_v I I I I #
coedge $-1 $519 $516 $548 $652 reversed $415 $-1 #
coedge $-1 $516 $519 $533 $647 reversed $415 $-1 #
coedge $-1 $534 $545 $516 $629 forward $546 $-1 #
edge $-1 $653 -13.601301719203317 $648 13.601301719203317 $628 $731 forward 7 unknown #
coedge $-1 $548 $522 $517 $631 forward $438 $-1 #
edge $-1 $526 -32.714119789942828 $634 -27.424609373737251 $630 $732 forward 7 unknown #
coedge $-1 $524 $533 $518 $633 forward $335 $-1 #
edge $-1 $635 27.424609373737251 $527 32.714119789942828 $632 $733 forward 7 unknown #
vertex $-1 $631 $734 #
vertex $-1 $633 $735 #
straight-curve $-1 -57.493973955577289 -22.314847689110842 0 0 0 -1 I I #
coedge $-1 $540 $536 $521 $638 forward $541 $-1 #
edge $-1 $642 -13.601301719203317 $640 13.601301719203317 $637 $736 forward 7 unknown #
coedge $-1 $522 $529 $540 $650 forward $438 $-1 #
vertex $-1 $638 $737 #
straight-curve $-1 -62.783484371782862 -15.047113043874985 13.601301719203317 0 1 0 I I #
vertex $-1 $537 $738 #
straight-curve $-1 -62.783484371782862 -15.047113043874985 -13.601301719203317 0 -1 0 I I #
point $-1 -62.783484371782862 -22.314847689110842 13.601301719203317 #
point $-1 -62.783484371782862 -22.314847689110842 -13.601301719203317 #
straight-curve $-1 -72.205572679830311 0 13.601301719203317 0 -1 0 I I #
edge $-1 $648 -22.826491442514111 $635 -7.2677346452358567 $533 $739 forward 7 unknown #
vertex $-1 $629 $740 #
straight-curve $-1 0 -37.873604486389098 -13.601301719203317 -1 0 0 I I #
edge $-1 $542 -72.205572679830311 $640 -62.783484371782862 $540 $654 forward 7 unknown #
point $-1 -72.205572679830311 -37.873604486389098 13.601301719203317 #
edge $-1 $634 7.2677346452358567 $653 22.826491442514111 $548 $741 forward 7 unknown #
vertex $-1 $549 $742 #
straight-curve $-1 0 -37.873604486389098 13.601301719203317 1 0 0 I I #
face $-1 $367 $743 $18 $-1 $744 forward single #
loop $-1 $-1 $745 $552 #
plane-surface $-1 -60.138729163680075 -22.314847689110842 0 0 -1 0 0 0 -1 forward_v I I I I #
coedge $-1 $746 $747 $748 $749 reversed $553 $-1 #
coedge $-1 $556 $555 $561 $668 reversed $353 $-1 #
coedge $-1 $750 $672 $556 $661 forward $690 $-1 #
edge $-1 $662 -72.205572679830311 $751 72.205572679830311 $660 $752 forward 7 unknown #
vertex $-1 $557 $753 #
straight-curve $-1 -72.205572679830311 23.19206876364396 -5.7311469701820199 0 0 -1 I I #
straight-curve $-1 0 23.19206876364396 -9.3232861615247629 1 0 0 I I #
straight-curve $-1 0 37.873604486389098 -9.3232861615247629 -1 0 0 I I #
edge $-1 $575 -13.601301719203317 $564 9.3232861615247629 $560 $754 forward 7 unknown #
coedge $-1 $561 $685 $750 $755 reversed $562 $-1 #
edge $-1 $751 -7.8701547490212969 $563 -3.592139191342743 $561 $756 forward 7 unknown #
face $-1 $-1 $562 $18 $-1 $757 reversed single #
point $-1 72.205572679830311 23.19206876364396 -9.3232861615247629 #
point $-1 72.205572679830311 37.873604486389098 -9.3232861615247629 #
coedge $-1 $660 $758 $566 $673 forward $690 $-1 #
edge $-1 $677 -37.873604486389098 $662 23.19206876364396 $566 $759 forward 7 unknown #
coedge $-1 $760 $567 $758 $761 reversed $676 $-1 #
coedge $-1 $567 $760 $569 $680 reversed $676 $-1 #
loop $-1 $-1 $760 $689 #
vertex $-1 $673 $762 #
straight-curve $-1 -72.205572679830311 -37.873604486389098 0 0 0 -1 I I #
coedge $-1 $763 $569 $746 $764 forward $267 $-1 #
edge $-1 $570 -72.205572679830311 $765 -62.783484371782862 $675 $766 forward 7 unknown #
point $-1 -72.205572679830311 -37.873604486389098 13.601301719203317 #
coedge $-1 $571 $763 $767 $768 forward $267 $-1 #
coedge $-1 $692 $769 $571 $684 reversed $578 $-1 #
edge $-1 $770 -57.493973955577289 $686 72.205572679830311 $683 $766 forward 7 unknown #
coedge $-1 $667 $572 $769 $771 forward $562 $-1 #
vertex $-1 $573 $772 #
straight-curve $-1 72.205572679830311 0 13.601301719203317 0 1 0 I I #
point $-1 72.205572679830311 37.873604486389098 13.601301719203317 #
face $-1 $669 $676 $18 $-1 $579 reversed single #
loop $-1 $-1 $660 $577 #
plane-surface $-1 0 0 -13.601301719203317 0 0 1 1 0 0 forward_v I I I I #
coedge $-1 $773 $683 $774 $775 forward $578 $-1 #
point $-1 -72.205572679830311 23.19206876364396 -9.3232861615247629 #
face $-1 $776 $777 $19 $-1 $778 forward single #
loop $-1 $-1 $719 $583 #
plane-surface $-1 0 37.873604486389098 0 0 -1 0 0 0 -1 forward_v I I I I #
coedge $-1 $779 $780 $716 $781 reversed $584 $-1 #
coedge $-1 $717 $586 $779 $782 reversed $472 $-1 #
coedge $-1 $586 $717 $719 $783 reversed $472 $-1 #
coedge $-1 $784 $785 $586 $701 forward $786 $-1 #
edge $-1 $787 7.9256504511356951 $788 22.607186173880834 $700 $789 forward 7 unknown #
coedge $-1 $587 $790 $791 $792 reversed $374 $-1 #
coedge $-1 $793 $588 $587 $704 forward $485 $-1 #
edge $-1 $591 22.314847689110842 $794 37.873604486389098 $587 $603 forward 7 unknown #
vertex $-1 $595 $795 #
straight-curve $-1 -86.260992384993273 -22.314847689110842 13.60130171920332 -1 0 0 I I #
straight-curve $-1 -72.20557267983034 -22.314847689110842 7.533534059622454 -0.71933979245794832 0 -0.69465837861970381 I I #
point $-1 -72.205572679830311 -22.314847689110842 13.601301719203317 #
point $-1 -72.205572679830311 -22.314847689110842 7.5335340596224816 #
straight-curve $-1 -65.922215473949024 -8.9048152902344668 13.601301719203317 0 -1 0 I I #
coedge $-1 $597 $796 $797 $798 forward $485 $-1 #
coedge $-1 $799 $600 $597 $713 reversed $695 $-1 #
edge $-1 $800 -72.205572679830311 $602 72.205572679830311 $712 $801 forward 7 unknown #
face $-1 $802 $803 $19 $-1 $804 reversed single #
plane-surface $-1 0 0 13.601301719203317 0 0 1 1 0 0 forward_v I I I I #
coedge $-1 $790 $599 $697 $781 forward $374 $-1 #
coedge $-1 $699 $698 $599 $718 reversed $472 $-1 #
edge $-1 $720 -22.607186173880834 $805 -7.9256504511356951 $599 $806 forward 7 unknown #
coedge $-1 $600 $799 $699 $783 forward $695 $-1 #
vertex $-1 $718 $807 #
straight-curve $-1 -72.205572679830311 37.873604486389098 0 0 0 -1 I I #
point $-1 -72.205572679830311 37.873604486389098 13.601301719203317 #
plane-surface $-1 72.205572679830311 0 0 -1 0 0 0 0 1 forward_v I I I I #
coedge $-1 $607 $609 $616 $727 reversed $611 $-1 #
straight-curve $-1 72.205572679830311 0 13.601301719203317 0 1 0 I I #
straight-curve $-1 72.205572679830311 0 -13.601301719203317 0 -1 0 I I #
edge $-1 $618 -13.601301719203317 $622 13.601301719203317 $724 $808 forward 7 unknown #
point $-1 72.205572679830311 37.873604486389098 13.601301719203317 #
straight-curve $-1 -72.205572679830311 37.873604486389098 0 0 0 -1 I I #
point $-1 72.205572679830311 37.873604486389098 -13.601301719203317 #
straight-curve $-1 -57.493973955577289 -37.873604486389098 0 0 0 -1 I I #
straight-curve $-1 -30.069364581840038 -22.314847689110842 13.601301719203317 1 0 0 I I #
straight-curve $-1 -30.069364581840038 -22.314847689110842 -13.601301719203317 -1 0 0 I I #
point $-1 -57.493973955577289 -22.314847689110842 13.601301719203317 #
point $-1 -57.493973955577289 -22.314847689110842 -13.601301719203317 #
straight-curve $-1 -62.783484371782862 -37.873604486389098 0 0 0 1 I I #
point $-1 -62.783484371782862 -37.873604486389098 13.601301719203317 #
point $-1 -62.783484371782862 -37.873604486389098 -13.601301719203317 #
straight-curve $-1 -57.493973955577289 -15.047113043874985 -13.601301719203317 0 1 0 I I #
point $-1 -57.493973955577289 -37.873604486389098 -13.601301719203317 #
straight-curve $-1 -57.493973955577289 -15.047113043874985 13.601301719203317 0 -1 0 I I #
point $-1 -57.493973955577289 -37.873604486389098 13.601301719203317 #
loop $-1 $-1 $774 $655 #
plane-surface $-1 -57.493973955577289 -30.09422608774997 0 -1 0 0 0 0 1 forward_v I I I I #
coedge $-1 $809 $810 $811 $812 reversed $656 $-1 #
coedge $-1 $813 $658 $679 $764 reversed $553 $-1 #
coedge $-1 $658 $813 $814 $815 reversed $553 $-1 #
coedge $-1 $810 $809 $658 $749 forward $656 $-1 #
edge $-1 $816 -13.601301719203317 $817 13.601301719203317 $748 $818 forward 7 unknown #
coedge $-1 $819 $660 $667 $755 forward $690 $-1 #
vertex $-1 $755 $820 #
straight-curve $-1 0 23.19206876364396 -13.601301719203317 1 0 0 I I #
point $-1 -72.205572679830311 23.19206876364396 -13.601301719203317 #
straight-curve $-1 72.205572679830311 37.873604486389098 0 0 0 -1 I I #
edge $-1 $751 -23.19206876364396 $821 37.873604486389098 $667 $822 forward 7 unknown #
straight-curve $-1 72.205572679830311 23.19206876364396 -5.7311469701820199 0 0 1 I I #
plane-surface $-1 72.205572679830311 0 0 -1 0 0 0 0 1 forward_v I I I I #
coedge $-1 $672 $814 $674 $761 forward $690 $-1 #
straight-curve $-1 -72.205572679830311 0 -13.601301719203317 0 1 0 I I #
coedge $-1 $675 $674 $813 $823 forward $676 $-1 #
edge $-1 $824 62.783484371782862 $677 72.205572679830311 $674 $825 forward 7 unknown #
point $-1 -72.205572679830311 -37.873604486389098 -13.601301719203317 #
coedge $-1 $682 $679 $809 $826 forward $267 $-1 #
edge $-1 $765 -22.826491442514111 $816 -7.2677346452358567 $679 $827 forward 7 unknown #
vertex $-1 $823 $828 #
straight-curve $-1 0 -37.873604486389098 13.601301719203317 1 0 0 I I #
coedge $-1 $811 $774 $682 $768 reversed $743 $-1 #
edge $-1 $829 7.2677346452358567 $770 22.826491442514111 $682 $830 forward 7 unknown #
coedge $-1 $683 $773 $685 $771 reversed $578 $-1 #
vertex $-1 $684 $831 #
edge $-1 $686 -13.601301719203317 $821 13.601301719203317 $685 $832 forward 7 unknown #
point $-1 72.205572679830311 -37.873604486389098 13.601301719203317 #
coedge $-1 $769 $692 $819 $833 reversed $578 $-1 #
coedge $-1 $767 $834 $692 $775 reversed $743 $-1 #
edge $-1 $770 -13.601301719203317 $835 13.601301719203317 $692 $836 forward 7 unknown #
face $-1 $837 $838 $19 $-1 $839 forward single #
loop $-1 $-1 $840 $694 #
plane-surface $-1 -62.783484371782862 -30.09422608774997 0 1 0 0 0 0 -1 forward_v I I I I #
coedge $-1 $841 $697 $698 $782 forward $584 $-1 #
coedge $-1 $697 $841 $842 $843 reversed $584 $-1 #
edge $-1 $805 3.592139191342743 $844 7.8701547490212969 $716 $845 forward 7 unknown #
edge $-1 $805 -72.205572679830311 $787 72.205572679830311 $779 $846 forward 7 unknown #
edge $-1 $788 -72.205572679830311 $720 72.205572679830311 $719 $847 forward 7 unknown #
coedge $-1 $797 $700 $799 $848 reversed $786 $-1 #
coedge $-1 $700 $849 $841 $850 forward $786 $-1 #
loop $-1 $-1 $700 $851 #
vertex $-1 $701 $852 #
vertex $-1 $783 $853 #
straight-curve $-1 72.205572679830311 15.266418312508264 -9.3232861615247629 0 1 0 I I #
coedge $-1 $702 $716 $854 $855 reversed $374 $-1 #
coedge $-1 $856 $857 $702 $792 forward $858 $-1 #
edge $-1 $794 -13.601301719203317 $859 13.601301719203317 $702 $860 forward 7 unknown #
coedge $-1 $861 $703 $857 $862 forward $485 $-1 #
vertex $-1 $704 $863 #
point $-1 -65.922215473949024 -22.314847689110842 13.601301719203317 #
coedge $-1 $711 $864 $865 $866 forward $485 $-1 #
coedge $-1 $867 $784 $711 $798 reversed $786 $-1 #
edge $-1 $868 -37.873604486389098 $800 37.873604486389098 $797 $869 forward 7 unknown #
coedge $-1 $719 $712 $784 $848 forward $695 $-1 #
vertex $-1 $798 $870 #
straight-curve $-1 0 37.873604486389098 13.601301719203317 -1 0 0 I I #
face $-1 $871 $872 $19 $-1 $873 reversed single #
loop $-1 $-1 $874 $714 #
plane-surface $-1 0 -37.873604486389098 0 0 1 0 0 0 1 forward_v I I I I #
vertex $-1 $718 $875 #
straight-curve $-1 -72.205572679830311 15.266418312508264 -9.3232861615247629 0 -1 0 I I #
point $-1 -72.205572679830311 37.873604486389098 -9.3232861615247629 #
straight-curve $-1 72.205572679830311 37.873604486389098 0 0 0 -1 I I #
coedge $-1 $748 $745 $763 $826 reversed $656 $-1 #
coedge $-1 $745 $748 $876 $877 reversed $656 $-1 #
coedge $-1 $834 $767 $745 $812 forward $743 $-1 #
edge $-1 $829 -13.601301719203317 $878 13.601301719203317 $811 $879 forward 7 unknown #
coedge $-1 $747 $746 $760 $823 reversed $553 $-1 #
coedge $-1 $758 $876 $747 $815 forward $690 $-1 #
edge $-1 $817 7.2677346452358567 $824 22.826491442514111 $814 $880 forward 7 unknown #
vertex $-1 $764 $881 #
vertex $-1 $815 $882 #
straight-curve $-1 -62.783484371782862 -22.314847689110842 0 0 0 -1 I I #
coedge $-1 $883 $750 $773 $833 forward $690 $-1 #
point $-1 72.205572679830311 23.19206876364396 -13.601301719203317 #
vertex $-1 $771 $884 #
straight-curve $-1 72.205572679830311 0 -13.601301719203317 0 -1 0 I I #
edge $-1 $824 -13.601301719203317 $765 13.601301719203317 $760 $885 forward 7 unknown #
vertex $-1 $761 $886 #
straight-curve $-1 0 -37.873604486389098 -13.601301719203317 -1 0 0 I I #
edge $-1 $816 -32.714119789942828 $829 -27.424609373737251 $763 $887 forward 7 unknown #
straight-curve $-1 -62.783484371782862 -15.047113043874985 13.601301719203317 0 1 0 I I #
point $-1 -62.783484371782862 -37.873604486389098 13.601301719203317 #
vertex $-1 $826 $888 #
straight-curve $-1 -57.493973955577289 -15.047113043874985 13.601301719203317 0 -1 0 I I #
point $-1 -57.493973955577289 -37.873604486389098 13.601301719203317 #
straight-curve $-1 72.205572679830311 -37.873604486389098 0 0 0 -1 I I #
edge $-1 $821 -72.205572679830311 $835 57.493973955577289 $773 $825 forward 7 unknown #
coedge $-1 $774 $811 $883 $889 reversed $743 $-1 #
vertex $-1 $775 $890 #
straight-curve $-1 -57.493973955577289 -37.873604486389098 0 0 0 -1 I I #
face $-1 $598 $891 $19 $-1 $892 forward single #
loop $-1 $-1 $893 $776 #
plane-surface $-1 -60.138729163680075 -22.314847689110842 0 0 -1 0 0 0 -1 forward_v I I I I #
coedge $-1 $894 $895 $896 $897 reversed $777 $-1 #
coedge $-1 $780 $779 $785 $850 reversed $584 $-1 #
coedge $-1 $898 $854 $780 $843 forward $872 $-1 #
edge $-1 $844 -72.205572679830311 $899 72.205572679830311 $842 $900 forward 7 unknown #
vertex $-1 $781 $901 #
straight-curve $-1 -72.205572679830311 23.19206876364396 -5.7311469701820199 0 0 -1 I I #
straight-curve $-1 0 23.19206876364396 -9.3232861615247629 1 0 0 I I #
straight-curve $-1 0 37.873604486389098 -9.3232861615247629 -1 0 0 I I #
edge $-1 $800 -13.601301719203317 $788 9.3232861615247629 $784 $902 forward 7 unknown #
coedge $-1 $785 $867 $898 $903 reversed $786 $-1 #
edge $-1 $899 -7.8701547490212969 $787 -3.592139191342743 $785 $904 forward 7 unknown #
face $-1 $-1 $786 $19 $-1 $905 reversed single #
point $-1 72.205572679830311 23.19206876364396 -9.3232861615247629 #
point $-1 72.205572679830311 37.873604486389098 -9.3232861615247629 #
coedge $-1 $842 $906 $790 $855 forward $872 $-1 #
edge $-1 $859 -37.873604486389098 $844 23.19206876364396 $790 $907 forward 7 unknown #
coedge $-1 $908 $791 $906 $909 reversed $858 $-1 #
coedge $-1 $791 $908 $793 $862 reversed $858 $-1 #
loop $-1 $-1 $908 $871 #
vertex $-1 $855 $910 #
straight-curve $-1 -72.205572679830311 -37.873604486389098 0 0 0 -1 I I #
coedge $-1 $911 $793 $894 $912 forward $485 $-1 #
edge $-1 $794 -72.205572679830311 $913 -62.783484371782862 $857 $914 forward 7 unknown #
point $-1 -72.205572679830311 -37.873604486389098 13.601301719203317 #
coedge $-1 $796 $911 $915 $916 forward $485 $-1 #
coedge $-1 $874 $917 $796 $866 reversed $803 $-1 #
edge $-1 $918 -57.493973955577289 $868 72.205572679830311 $865 $914 forward 7 unknown #
coedge $-1 $849 $797 $917 $919 forward $786 $-1 #
vertex $-1 $798 $920 #
straight-curve $-1 72.205572679830311 0 13.601301719203317 0 1 0 I I #
point $-1 72.205572679830311 37.873604486389098 13.601301719203317 #
face $-1 $851 $858 $19 $-1 $804 reversed single #
loop $-1 $-1 $842 $802 #
plane-surface $-1 0 0 -13.601301719203317 0 0 1 1 0 0 forward_v I I I I #
coedge $-1 $921 $865 $922 $923 forward $803 $-1 #
point $-1 -72.205572679830311 23.19206876364396 -9.3232861615247629 #
coedge $-1 $814 $883 $810 $877 forward $690 $-1 #
edge $-1 $878 27.424609373737251 $817 32.714119789942828 $876 $924 forward 7 unknown #
vertex $-1 $877 $925 #
straight-curve $-1 -57.493973955577289 -22.314847689110842 0 0 0 -1 I I #
straight-curve $-1 -62.783484371782862 -15.047113043874985 -13.601301719203317 0 -1 0 I I #
point $-1 -62.783484371782862 -22.314847689110842 13.601301719203317 #
point $-1 -62.783484371782862 -22.314847689110842 -13.601301719203317 #
coedge $-1 $876 $819 $834 $889 forward $690 $-1 #
point $-1 72.205572679830311 -37.873604486389098 -13.601301719203317 #
straight-curve $-1 -62.783484371782862 -37.873604486389098 0 0 0 1 I I #
point $-1 -62.783484371782862 -37.873604486389098 -13.601301719203317 #
straight-curve $-1 -30.069364581840038 -22.314847689110842 13.601301719203317 1 0 0 I I #
point $-1 -57.493973955577289 -22.314847689110842 13.601301719203317 #
edge $-1 $835 -22.826491442514111 $878 -7.2677346452358567 $883 $926 forward 7 unknown #
point $-1 -57.493973955577289 -37.873604486389098 -13.601301719203317 #
loop $-1 $-1 $922 $837 #
plane-surface $-1 -57.493973955577289 -30.09422608774997 0 -1 0 0 0 0 1 forward_v I I I I #
coedge $-1 $927 $928 $929 $930 reversed $838 $-1 #
coedge $-1 $931 $840 $861 $912 reversed $777 $-1 #
coedge $-1 $840 $931 $932 $933 reversed $777 $-1 #
coedge $-1 $928 $927 $840 $897 forward $838 $-1 #
edge $-1 $934 -13.601301719203317 $935 13.601301719203317 $896 $936 forward 7 unknown #
coedge $-1 $937 $842 $849 $903 forward $872 $-1 #
vertex $-1 $903 $938 #
straight-curve $-1 0 23.19206876364396 -13.601301719203317 1 0 0 I I #
point $-1 -72.205572679830311 23.19206876364396 -13.601301719203317 #
straight-curve $-1 72.205572679830311 37.873604486389098 0 0 0 -1 I I #
edge $-1 $899 -23.19206876364396 $939 37.873604486389098 $849 $940 forward 7 unknown #
straight-curve $-1 72.205572679830311 23.19206876364396 -5.7311469701820199 0 0 1 I I #
plane-surface $-1 72.205572679830311 0 0 -1 0 0 0 0 1 forward_v I I I I #
coedge $-1 $854 $932 $856 $909 forward $872 $-1 #
straight-curve $-1 -72.205572679830311 0 -13.601301719203317 0 1 0 I I #
coedge $-1 $857 $856 $931 $941 forward $858 $-1 #
edge $-1 $942 62.783484371782862 $859 72.205572679830311 $856 $943 forward 7 unknown #
point $-1 -72.205572679830311 -37.873604486389098 -13.601301719203317 #
coedge $-1 $864 $861 $927 $944 forward $485 $-1 #
edge $-1 $913 -22.826491442514111 $934 -7.2677346452358567 $861 $945 forward 7 unknown #
vertex $-1 $941 $946 #
straight-curve $-1 0 -37.873604486389098 13.601301719203317 1 0 0 I I #
coedge $-1 $929 $922 $864 $916 reversed $891 $-1 #
edge $-1 $947 7.2677346452358567 $918 22.826491442514111 $864 $948 forward 7 unknown #
coedge $-1 $865 $921 $867 $919 reversed $803 $-1 #
vertex $-1 $866 $949 #
edge $-1 $868 -13.601301719203317 $939 13.601301719203317 $867 $950 forward 7 unknown #
point $-1 72.205572679830311 -37.873604486389098 13.601301719203317 #
coedge $-1 $917 $874 $937 $951 reversed $803 $-1 #
coedge $-1 $915 $952 $874 $923 reversed $891 $-1 #
edge $-1 $918 -13.601301719203317 $953 13.601301719203317 $874 $954 forward 7 unknown #
straight-curve $-1 -30.069364581840038 -22.314847689110842 -13.601301719203317 -1 0 0 I I #
point $-1 -57.493973955577289 -22.314847689110842 -13.601301719203317 #
straight-curve $-1 -57.493973955577289 -15.047113043874985 -13.601301719203317 0 1 0 I I #
coedge $-1 $896 $893 $911 $944 reversed $838 $-1 #
coedge $-1 $893 $896 $955 $956 reversed $838 $-1 #
coedge $-1 $952 $915 $893 $930 forward $891 $-1 #
edge $-1 $947 -13.601301719203317 $957 13.601301719203317 $929 $958 forward 7 unknown #
coedge $-1 $895 $894 $908 $941 reversed $777 $-1 #
coedge $-1 $906 $955 $895 $933 forward $872 $-1 #
edge $-1 $935 7.2677346452358567 $942 22.826491442514111 $932 $959 forward 7 unknown #
vertex $-1 $912 $960 #
vertex $-1 $933 $961 #
straight-curve $-1 -62.783484371782862 -22.314847689110842 0 0 0 -1 I I #
coedge $-1 $962 $898 $921 $951 forward $872 $-1 #
point $-1 72.205572679830311 23.19206876364396 -13.601301719203317 #
vertex $-1 $919 $963 #
straight-curve $-1 72.205572679830311 0 -13.601301719203317 0 -1 0 I I #
edge $-1 $942 -13.601301719203317 $913 13.601301719203317 $908 $964 forward 7 unknown #
vertex $-1 $909 $965 #
straight-curve $-1 0 -37.873604486389098 -13.601301719203317 -1 0 0 I I #
edge $-1 $934 -32.714119789942828 $947 -27.424609373737251 $911 $966 forward 7 unknown #
straight-curve $-1 -62.783484371782862 -15.047113043874985 13.601301719203317 0 1 0 I I #
point $-1 -62.783484371782862 -37.873604486389098 13.601301719203317 #
vertex $-1 $944 $967 #
straight-curve $-1 -57.493973955577289 -15.047113043874985 13.601301719203317 0 -1 0 I I #
point $-1 -57.493973955577289 -37.873604486389098 13.601301719203317 #
straight-curve $-1 72.205572679830311 -37.873604486389098 0 0 0 -1 I I #
edge $-1 $939 -72.205572679830311 $953 57.493973955577289 $921 $943 forward 7 unknown #
coedge $-1 $922 $929 $962 $968 reversed $891 $-1 #
vertex $-1 $923 $969 #
straight-curve $-1 -57.493973955577289 -37.873604486389098 0 0 0 -1 I I #
coedge $-1 $932 $962 $928 $956 forward $872 $-1 #
edge $-1 $957 27.424609373737251 $935 32.714119789942828 $955 $970 forward 7 unknown #
vertex $-1 $956 $971 #
straight-curve $-1 -57.493973955577289 -22.314847689110842 0 0 0 -1 I I #
straight-curve $-1 -62.783484371782862 -15.047113043874985 -13.601301719203317 0 -1 0 I I #
point $-1 -62.783484371782862 -22.314847689110842 13.601301719203317 #
point $-1 -62.783484371782862 -22.314847689110842 -13.601301719203317 #
coedge $-1 $955 $937 $952 $968 forward $872 $-1 #
point $-1 72.205572679830311 -37.873604486389098 -13.601301719203317 #
straight-curve $-1 -62.783484371782862 -37.873604486389098 0 0 0 1 I I #
point $-1 -62.783484371782862 -37.873604486389098 -13.601301719203317 #
straight-curve $-1 -30.069364581840038 -22.314847689110842 13.601301719203317 1 0 0 I I #
point $-1 -57.493973955577289 -22.314847689110842 13.601301719203317 #
edge $-1 $953 -22.826491442514111 $957 -7.2677346452358567 $962 $972 forward 7 unknown #
point $-1 -57.493973955577289 -37.873604486389098 -13.601301719203317 #
straight-curve $-1 -30.069364581840038 -22.314847689110842 -13.601301719203317 -1 0 0 I I #
point $-1 -57.493973955577289 -22.314847689110842 -13.601301719203317 #
straight-curve $-1 -57.493973955577289 -15.047113043874985 -13.601301719203317 0 1 0 I I #
End-of-ACIS-data 