500 0 14 0           
7 Unknown 11 ACIS 5.0 NT 24 Thu Mar 25 22:55:00 1999 
-1 9.9999999999999995e-007 1e-010 
body $-1 $14 $-1 $15 #
body $-1 $16 $-1 $17 #
body $-1 $18 $-1 $19 #
body $-1 $20 $-1 $21 #
body $-1 $22 $-1 $23 #
body $-1 $24 $-1 $25 #
body $-1 $26 $-1 $27 #
body $-1 $28 $-1 $29 #
body $-1 $30 $-1 $31 #
body $-1 $32 $-1 $33 #
body $-1 $34 $-1 $35 #
body $-1 $36 $-1 $37 #
body $-1 $38 $-1 $39 #
body $-1 $40 $-1 $41 #
lump $-1 $-1 $42 $0 #
transform $-1 1 0 0 0 1 0 0 0 1 76.221808526871541 49.600120074925108 15.76949891367984 1 rotate no_reflect no_shear #
lump $-1 $-1 $43 $1 #
transform $-1 1 0 0 0 1 0 0 0 1 76.221808526871541 49.600120074925108 15.76949891367984 1 rotate no_reflect no_shear #
lump $-1 $-1 $44 $2 #
transform $-1 1 0 0 0 1 0 0 0 1 76.221808526871541 49.600120074925108 15.76949891367984 1 rotate no_reflect no_shear #
lump $-1 $-1 $45 $3 #
transform $-1 1 0 0 0 1 0 0 0 1 76.221808526871541 49.600120074925108 15.76949891367984 1 rotate no_reflect no_shear #
lump $-1 $-1 $46 $4 #
transform $-1 1 0 0 0 1 0 0 0 1 76.221808526871541 49.600120074925108 15.76949891367984 1 rotate no_reflect no_shear #
lump $-1 $-1 $47 $5 #
transform $-1 1 0 0 0 1 0 0 0 1 76.221808526871541 49.600120074925108 15.76949891367984 1 rotate no_reflect no_shear #
lump $-1 $-1 $48 $6 #
transform $-1 1 0 0 0 1 0 0 0 1 76.221808526871541 49.600120074925108 15.76949891367984 1 rotate no_reflect no_shear #
lump $-1 $-1 $49 $7 #
transform $-1 1 0 0 0 1 0 0 0 1 76.221808526871541 49.600120074925108 15.76949891367984 1 rotate no_reflect no_shear #
lump $-1 $-1 $50 $8 #
transform $-1 1 0 0 0 1 0 0 0 1 76.221808526871541 49.600120074925108 15.76949891367984 1 rotate no_reflect no_shear #
lump $-1 $-1 $51 $9 #
transform $-1 1 0 0 0 1 0 0 0 1 76.221808526871541 49.600120074925108 15.76949891367984 1 rotate no_reflect no_shear #
lump $-1 $-1 $52 $10 #
transform $-1 1 0 0 0 1 0 0 0 1 76.221808526871541 49.600120074925108 15.76949891367984 1 rotate no_reflect no_shear #
lump $-1 $-1 $53 $11 #
transform $-1 1 0 0 0 1 0 0 0 1 76.221808526871541 49.600120074925108 15.76949891367984 1 rotate no_reflect no_shear #
lump $-1 $-1 $54 $12 #
transform $-1 1 0 0 0 1 0 0 0 1 76.221808526871541 49.600120074925108 15.76949891367984 1 rotate no_reflect no_shear #
lump $-1 $-1 $55 $13 #
transform $-1 1 0 0 0 1 0 0 0 1 76.221808526871541 49.600120074925108 15.76949891367984 1 rotate no_reflect no_shear #
shell $-1 $-1 $-1 $56 $-1 $14 #
shell $-1 $-1 $-1 $57 $-1 $16 #
shell $-1 $-1 $-1 $58 $-1 $18 #
shell $-1 $-1 $-1 $59 $-1 $20 #
shell $-1 $-1 $-1 $60 $-1 $22 #
shell $-1 $-1 $-1 $61 $-1 $24 #
shell $-1 $-1 $-1 $62 $-1 $26 #
shell $-1 $-1 $-1 $63 $-1 $28 #
shell $-1 $-1 $-1 $64 $-1 $30 #
shell $-1 $-1 $-1 $65 $-1 $32 #
shell $-1 $-1 $-1 $66 $-1 $34 #
shell $-1 $-1 $-1 $67 $-1 $36 #
shell $-1 $-1 $-1 $68 $-1 $38 #
shell $-1 $-1 $-1 $69 $-1 $40 #
face $-1 $70 $71 $42 $-1 $72 forward single #
face $-1 $73 $74 $43 $-1 $75 forward single #
face $-1 $76 $77 $44 $-1 $78 reversed single #
face $-1 $79 $80 $45 $-1 $81 forward single #
face $-1 $82 $83 $46 $-1 $84 forward single #
face $-1 $85 $86 $47 $-1 $87 reversed single #
face $-1 $88 $89 $48 $-1 $90 forward single #
face $-1 $91 $92 $49 $-1 $93 forward single #
face $-1 $94 $95 $50 $-1 $96 reversed single #
face $-1 $97 $98 $51 $-1 $99 forward single #
face $-1 $100 $101 $52 $-1 $102 forward single #
face $-1 $103 $104 $53 $-1 $105 reversed single #
face $-1 $106 $107 $54 $-1 $108 forward single #
face $-1 $109 $110 $55 $-1 $111 forward single #
face $-1 $112 $113 $42 $-1 $114 reversed single #
loop $-1 $-1 $115 $56 #
plane-surface $-1 0 0 15.76949891367984 0 0 1 1 0 0 forward_v I I I I #
face $-1 $116 $117 $43 $-1 $118 reversed single #
loop $-1 $-1 $119 $57 #
plane-surface $-1 -65.819974264332288 0 -0.21907838280607628 0 0 1 1 0 0 forward_v I I I I #
face $-1 $120 $121 $44 $-1 $122 reversed single #
loop $-1 $-1 $123 $58 #
plane-surface $-1 -6.3139925704960405 117.57570278527885 181.2447322024837 1 0 0 0 -0.81915205242281985 -0.57357642473473569 forward_v I I I I #
face $-1 $124 $125 $45 $-1 $126 forward single #
loop $-1 $127 $128 $59 #
cone-surface $-1 -1.5380420467716647 48.062190488154542 13.871254764262632 0 -0.81915205242281985 -0.57357642473473569 0.25 0 0 1 I I 0 1 0.25 forward I I I I #
face $-1 $129 $130 $46 $-1 $131 forward single #
loop $-1 $132 $133 $60 #
cone-surface $-1 5.6258837388148919 48.062190488154542 13.871254764262632 0 -0.81915205242281985 -0.57357642473473569 0.25 0 0 1 I I 0 1 0.25 forward I I I I #
face $-1 $134 $135 $47 $-1 $136 reversed single #
loop $-1 $-1 $137 $61 #
plane-surface $-1 59.505981693836247 117.57570278527885 181.2447322024837 1 0 0 0 -0.81915205242281985 -0.57357642473473569 forward_v I I I I #
face $-1 $138 $139 $48 $-1 $140 forward single #
loop $-1 $141 $142 $62 #
cone-surface $-1 64.281932217560609 48.062190488154542 13.871254764262632 0 -0.81915205242281985 -0.57357642473473569 0.25 0 0 1 I I 0 1 0.25 forward I I I I #
face $-1 $143 $144 $49 $-1 $145 forward single #
loop $-1 $146 $147 $63 #
cone-surface $-1 71.44585800314718 48.062190488154542 13.871254764262632 0 -0.81915205242281985 -0.57357642473473569 0.25 0 0 1 I I 0 1 0.25 forward I I I I #
face $-1 $148 $149 $50 $-1 $150 reversed single #
loop $-1 $-1 $151 $64 #
plane-surface $-1 10.401834262539253 -174.47462186325714 99.984651882897268 -1 0 0 0 -0.81915205242281985 0.57357642473473569 forward_v I I I I #
face $-1 $152 $153 $51 $-1 $154 forward single #
loop $-1 $155 $156 $65 #
cone-surface $-1 -1.5380420467716647 -48.062190488154556 13.871254764262622 0 0.81915205242281985 -0.57357642473473569 0.25 0 0 1 I I 0 1 0.25 forward I I I I #
face $-1 $157 $158 $52 $-1 $159 forward single #
loop $-1 $160 $161 $66 #
cone-surface $-1 5.6258837388148919 -48.062190488154556 13.871254764262622 0 0.81915205242281985 -0.57357642473473569 0.25 0 0 1 I I 0 1 0.25 forward I I I I #
face $-1 $162 $163 $53 $-1 $164 reversed single #
loop $-1 $-1 $165 $67 #
plane-surface $-1 67.863895110353894 -49.600120074925115 12.546587039580132 0 -0.81915205242281985 0.57357642473473569 1 0 0 forward_v I I I I #
face $-1 $166 $167 $54 $-1 $168 forward single #
loop $-1 $169 $170 $68 #
cone-surface $-1 64.281932217560609 -48.062190488154556 13.871254764262622 0 0.81915205242281985 -0.57357642473473569 0.25 0 0 1 I I 0 1 0.25 forward I I I I #
face $-1 $171 $172 $55 $-1 $173 forward single #
loop $-1 $174 $175 $69 #
cone-surface $-1 71.44585800314718 -48.062190488154556 13.871254764262622 0 0.81915205242281985 -0.57357642473473569 0.25 0 0 1 I I 0 1 0.25 forward I I I I #
face $-1 $176 $177 $42 $-1 $178 reversed single #
loop $-1 $-1 $179 $70 #
plane-surface $-1 0 0 -15.76949891367984 0 0 1 1 0 0 forward_v I I I I #
coedge $-1 $180 $181 $182 $183 forward $71 $-1 #
face $-1 $184 $185 $43 $-1 $186 reversed single #
loop $-1 $-1 $187 $73 #
plane-surface $-1 -65.819974264332288 0 -9.1714104514266293 0 0 1 1 0 0 forward_v I I I I #
coedge $-1 $188 $189 $190 $191 forward $74 $-1 #
face $-1 $192 $193 $44 $-1 $194 reversed single #
loop $-1 $-1 $195 $76 #
plane-surface $-1 2.0439208460216065 -7.2987990030531762 93.806667359166568 0 0.81915205242281985 0.57357642473473569 1 0 0 forward_v I I I I #
coedge $-1 $196 $197 $198 $199 reversed $77 $-1 #
face $-1 $-1 $200 $45 $-1 $201 forward single #
loop $-1 $202 $203 $79 #
cone-surface $-1 -1.5380420467716647 47.550220455390281 13.512769498803422 0 -0.81915205242281985 -0.57357642473473569 0.125 0 0 1 I I -0.70710678118654746 0.70710678118654746 0.125 forward I I I I #
loop $-1 $-1 $204 $59 #
coedge $-1 $128 $128 $205 $206 reversed $80 $-1 #
face $-1 $-1 $207 $46 $-1 $208 forward single #
loop $-1 $209 $210 $82 #
cone-surface $-1 5.6258837388148919 47.550220455390281 13.512769498803422 0 -0.81915205242281985 -0.57357642473473569 0.125 0 0 1 I I -0.70710678118654746 0.70710678118654746 0.125 forward I I I I #
loop $-1 $-1 $211 $60 #
coedge $-1 $133 $133 $212 $213 reversed $83 $-1 #
face $-1 $214 $215 $47 $-1 $216 forward single #
loop $-1 $-1 $217 $85 #
plane-surface $-1 67.863895110353894 -7.2987990030531762 93.806667359166568 0 0.81915205242281985 0.57357642473473569 1 0 0 forward_v I I I I #
coedge $-1 $218 $219 $220 $221 reversed $86 $-1 #
face $-1 $-1 $222 $48 $-1 $223 forward single #
loop $-1 $224 $225 $88 #
cone-surface $-1 64.281932217560609 47.550220455390281 13.512769498803422 0 -0.81915205242281985 -0.57357642473473569 0.125 0 0 1 I I -0.70710678118654746 0.70710678118654746 0.125 forward I I I I #
loop $-1 $-1 $226 $62 #
coedge $-1 $142 $142 $227 $228 reversed $89 $-1 #
face $-1 $-1 $229 $49 $-1 $230 forward single #
loop $-1 $231 $232 $91 #
cone-surface $-1 71.44585800314718 47.550220455390281 13.512769498803422 0 -0.81915205242281985 -0.57357642473473569 0.125 0 0 1 I I -0.70710678118654746 0.70710678118654746 0.125 forward I I I I #
loop $-1 $-1 $233 $63 #
coedge $-1 $147 $147 $234 $235 reversed $92 $-1 #
face $-1 $236 $237 $50 $-1 $238 reversed single #
loop $-1 $-1 $239 $94 #
plane-surface $-1 2.0439208460216065 -49.600120074925115 12.546587039580132 0 -0.81915205242281985 0.57357642473473569 1 0 0 forward_v I I I I #
coedge $-1 $240 $241 $242 $243 reversed $95 $-1 #
face $-1 $-1 $244 $51 $-1 $245 forward single #
loop $-1 $246 $247 $97 #
cone-surface $-1 -1.5380420467716647 -47.550220455390296 13.512769498803411 0 0.81915205242281985 -0.57357642473473569 0.125 0 0 1 I I -0.70710678118654746 0.70710678118654746 0.125 forward I I I I #
loop $-1 $-1 $248 $65 #
coedge $-1 $156 $156 $249 $250 reversed $98 $-1 #
face $-1 $-1 $251 $52 $-1 $252 forward single #
loop $-1 $253 $254 $100 #
cone-surface $-1 5.6258837388148919 -47.550220455390296 13.512769498803411 0 0.81915205242281985 -0.57357642473473569 0.125 0 0 1 I I -0.70710678118654746 0.70710678118654746 0.125 forward I I I I #
loop $-1 $-1 $255 $66 #
coedge $-1 $161 $161 $256 $257 reversed $101 $-1 #
face $-1 $258 $259 $53 $-1 $260 reversed single #
loop $-1 $-1 $261 $103 #
plane-surface $-1 59.505981693836247 -174.47462186325714 99.984651882897268 1 0 0 0 0.81915205242281985 -0.57357642473473569 forward_v I I I I #
coedge $-1 $262 $263 $264 $265 reversed $104 $-1 #
face $-1 $-1 $266 $54 $-1 $267 forward single #
loop $-1 $268 $269 $106 #
cone-surface $-1 64.281932217560609 -47.550220455390296 13.512769498803411 0 0.81915205242281985 -0.57357642473473569 0.125 0 0 1 I I -0.70710678118654746 0.70710678118654746 0.125 forward I I I I #
loop $-1 $-1 $270 $68 #
coedge $-1 $170 $170 $271 $272 reversed $107 $-1 #
face $-1 $-1 $273 $55 $-1 $274 forward single #
loop $-1 $275 $276 $109 #
cone-surface $-1 71.44585800314718 -47.550220455390296 13.512769498803411 0 0.81915205242281985 -0.57357642473473569 0.125 0 0 1 I I -0.70710678118654746 0.70710678118654746 0.125 forward I I I I #
loop $-1 $-1 $277 $69 #
coedge $-1 $175 $175 $278 $279 reversed $110 $-1 #
face $-1 $280 $281 $42 $-1 $282 reversed single #
loop $-1 $-1 $283 $112 #
plane-surface $-1 0 -49.600120074925108 0 0 1 0 0 0 1 forward_v I I I I #
coedge $-1 $284 $285 $286 $287 forward $113 $-1 #
coedge $-1 $288 $115 $289 $290 forward $71 $-1 #
coedge $-1 $115 $288 $291 $292 forward $71 $-1 #
coedge $-1 $293 $294 $115 $183 reversed $295 $-1 #
edge $-1 $296 -49.600120074925108 $297 49.600120074925108 $182 $298 forward 7 unknown #
face $-1 $299 $300 $43 $-1 $301 reversed single #
loop $-1 $-1 $302 $116 #
plane-surface $-1 -55.418140001793034 0 -4.6952444171163528 -1 0 0 0 0 1 forward_v I I I I #
coedge $-1 $303 $304 $305 $306 forward $117 $-1 #
coedge $-1 $307 $119 $308 $309 reversed $74 $-1 #
coedge $-1 $119 $307 $310 $311 reversed $74 $-1 #
coedge $-1 $302 $312 $119 $191 reversed $185 $-1 #
edge $-1 $313 -49.600120074925108 $314 49.600120074925108 $190 $315 forward 7 unknown #
face $-1 $316 $317 $44 $-1 $318 forward single #
loop $-1 $-1 $319 $120 #
plane-surface $-1 10.401834262539253 117.57570278527885 181.2447322024837 -1 0 0 0 0.81915205242281985 0.57357642473473569 forward_v I I I I #
coedge $-1 $320 $321 $322 $323 reversed $121 $-1 #
coedge $-1 $197 $123 $324 $325 reversed $77 $-1 #
coedge $-1 $123 $196 $320 $326 reversed $77 $-1 #
coedge $-1 $322 $327 $123 $199 forward $317 $-1 #
edge $-1 $328 9.1877313177143165 $329 11.444438438832613 $198 $330 forward 7 unknown #
loop $-1 $-1 $205 $124 #
plane-surface $-1 2.0439208460216065 -7.2987990030531762 93.806667359166568 0 0.81915205242281985 0.57357642473473569 1 0 0 forward_v I I I I #
loop $-1 $-1 $331 $79 #
coedge $-1 $203 $203 $204 $332 reversed $125 $-1 #
coedge $-1 $204 $204 $203 $332 forward $127 $-1 #
coedge $-1 $205 $205 $128 $206 forward $200 $-1 #
edge $-1 $333 0 $333 6.2831853071796004 $205 $334 forward 7 unknown #
loop $-1 $-1 $212 $129 #
plane-surface $-1 2.0439208460216065 -7.2987990030531762 93.806667359166568 0 0.81915205242281985 0.57357642473473569 1 0 0 forward_v I I I I #
loop $-1 $-1 $335 $82 #
coedge $-1 $210 $210 $211 $336 reversed $130 $-1 #
coedge $-1 $211 $211 $210 $336 forward $132 $-1 #
coedge $-1 $212 $212 $133 $213 forward $207 $-1 #
edge $-1 $337 0 $337 6.2831853071796004 $212 $338 forward 7 unknown #
face $-1 $339 $340 $47 $-1 $341 reversed single #
loop $-1 $-1 $220 $134 #
plane-surface $-1 0 0 15.76949891367984 0 0 1 1 0 0 forward_v I I I I #
coedge $-1 $342 $343 $344 $345 reversed $135 $-1 #
coedge $-1 $219 $137 $346 $347 reversed $86 $-1 #
coedge $-1 $137 $218 $342 $348 reversed $86 $-1 #
coedge $-1 $344 $349 $137 $221 forward $215 $-1 #
edge $-1 $350 9.1877313177143165 $351 11.444438438832613 $220 $352 forward 7 unknown #
loop $-1 $-1 $227 $138 #
plane-surface $-1 67.863895110353894 -7.2987990030531762 93.806667359166568 0 0.81915205242281985 0.57357642473473569 1 0 0 forward_v I I I I #
loop $-1 $-1 $353 $88 #
coedge $-1 $225 $225 $226 $354 reversed $139 $-1 #
coedge $-1 $226 $226 $225 $354 forward $141 $-1 #
coedge $-1 $227 $227 $142 $228 forward $222 $-1 #
edge $-1 $355 0 $355 6.2831853071796004 $227 $356 forward 7 unknown #
loop $-1 $-1 $234 $143 #
plane-surface $-1 67.863895110353894 -7.2987990030531762 93.806667359166568 0 0.81915205242281985 0.57357642473473569 1 0 0 forward_v I I I I #
loop $-1 $-1 $357 $91 #
coedge $-1 $232 $232 $233 $358 reversed $144 $-1 #
coedge $-1 $233 $233 $232 $358 forward $146 $-1 #
coedge $-1 $234 $234 $147 $235 forward $229 $-1 #
edge $-1 $359 0 $359 6.2831853071796004 $234 $360 forward 7 unknown #
face $-1 $361 $362 $50 $-1 $363 reversed single #
loop $-1 $-1 $364 $148 #
plane-surface $-1 -6.3139925704960405 -174.47462186325714 99.984651882897268 1 0 0 0 0.81915205242281985 -0.57357642473473569 forward_v I I I I #
coedge $-1 $365 $366 $367 $368 reversed $149 $-1 #
coedge $-1 $241 $151 $369 $370 reversed $95 $-1 #
coedge $-1 $151 $240 $365 $371 reversed $95 $-1 #
coedge $-1 $367 $372 $151 $243 forward $373 $-1 #
edge $-1 $374 37.637190856703462 $375 39.893897977821744 $242 $376 forward 7 unknown #
loop $-1 $-1 $249 $152 #
plane-surface $-1 2.0439208460216065 -49.600120074925115 12.546587039580132 0 -0.81915205242281985 0.57357642473473569 1 0 0 forward_v I I I I #
loop $-1 $-1 $377 $97 #
coedge $-1 $247 $247 $248 $378 reversed $153 $-1 #
coedge $-1 $248 $248 $247 $378 forward $155 $-1 #
coedge $-1 $249 $249 $156 $250 forward $244 $-1 #
edge $-1 $379 -5.820425403320115e-015 $379 6.2831853071795942 $249 $380 forward 7 unknown #
loop $-1 $-1 $256 $157 #
plane-surface $-1 2.0439208460216065 -49.600120074925115 12.546587039580132 0 -0.81915205242281985 0.57357642473473569 1 0 0 forward_v I I I I #
loop $-1 $-1 $381 $100 #
coedge $-1 $254 $254 $255 $382 reversed $158 $-1 #
coedge $-1 $255 $255 $254 $382 forward $160 $-1 #
coedge $-1 $256 $256 $161 $257 forward $251 $-1 #
edge $-1 $383 -5.820425403320115e-015 $383 6.2831853071795942 $256 $384 forward 7 unknown #
face $-1 $385 $386 $53 $-1 $387 forward single #
loop $-1 $-1 $388 $162 #
plane-surface $-1 0 -49.600120074925108 0 0 1 0 0 0 1 forward_v I I I I #
coedge $-1 $389 $390 $391 $392 reversed $163 $-1 #
coedge $-1 $393 $165 $394 $395 reversed $104 $-1 #
coedge $-1 $165 $393 $389 $396 forward $104 $-1 #
coedge $-1 $391 $397 $165 $265 forward $386 $-1 #
edge $-1 $398 -42.289860971694594 $399 -25.5740341386593 $264 $400 forward 7 unknown #
loop $-1 $-1 $271 $166 #
plane-surface $-1 67.863895110353894 -49.600120074925115 12.546587039580132 0 -0.81915205242281985 0.57357642473473569 1 0 0 forward_v I I I I #
loop $-1 $-1 $401 $106 #
coedge $-1 $269 $269 $270 $402 reversed $167 $-1 #
coedge $-1 $270 $270 $269 $402 forward $169 $-1 #
coedge $-1 $271 $271 $170 $272 forward $266 $-1 #
edge $-1 $403 -5.820425403320115e-015 $403 6.2831853071795942 $271 $404 forward 7 unknown #
loop $-1 $-1 $278 $171 #
plane-surface $-1 67.863895110353894 -49.600120074925115 12.546587039580132 0 -0.81915205242281985 0.57357642473473569 1 0 0 forward_v I I I I #
loop $-1 $-1 $405 $109 #
coedge $-1 $276 $276 $277 $406 reversed $172 $-1 #
coedge $-1 $277 $277 $276 $406 forward $174 $-1 #
coedge $-1 $278 $278 $175 $279 forward $273 $-1 #
edge $-1 $407 -5.820425403320115e-015 $407 6.2831853071795942 $278 $408 forward 7 unknown #
face $-1 $409 $410 $42 $-1 $411 reversed single #
loop $-1 $-1 $412 $176 #
plane-surface $-1 -76.221808526871541 0 0 1 0 0 0 0 -1 forward_v I I I I #
coedge $-1 $413 $291 $414 $415 forward $177 $-1 #
coedge $-1 $416 $179 $413 $417 forward $113 $-1 #
coedge $-1 $179 $416 $418 $419 forward $113 $-1 #
coedge $-1 $294 $293 $179 $287 reversed $295 $-1 #
edge $-1 $420 -49.600120074925108 $421 49.600120074925108 $286 $422 forward 7 unknown #
coedge $-1 $181 $180 $423 $424 forward $71 $-1 #
coedge $-1 $425 $426 $180 $290 reversed $410 $-1 #
edge $-1 $297 -76.221808526871541 $427 76.221808526871541 $289 $428 forward 7 unknown #
coedge $-1 $283 $429 $181 $292 reversed $177 $-1 #
edge $-1 $430 -76.221808526871541 $296 76.221808526871541 $291 $431 forward 7 unknown #
coedge $-1 $286 $182 $429 $432 forward $295 $-1 #
coedge $-1 $182 $286 $425 $433 reversed $295 $-1 #
loop $-1 $-1 $293 $409 #
vertex $-1 $183 $434 #
vertex $-1 $183 $435 #
straight-curve $-1 76.221808526871541 0 15.76949891367984 0 1 0 I I #
face $-1 $436 $437 $43 $-1 $438 reversed single #
loop $-1 $-1 $439 $184 #
plane-surface $-1 0 -49.600120074925108 0 0 1 0 0 0 1 forward_v I I I I #
coedge $-1 $305 $190 $440 $441 reversed $185 $-1 #
coedge $-1 $442 $187 $439 $443 reversed $117 $-1 #
coedge $-1 $187 $442 $444 $445 reversed $117 $-1 #
coedge $-1 $312 $302 $187 $306 reversed $185 $-1 #
edge $-1 $446 -49.600120074925108 $447 49.600120074925108 $305 $448 forward 7 unknown #
coedge $-1 $189 $188 $449 $450 reversed $74 $-1 #
coedge $-1 $451 $452 $188 $309 forward $453 $-1 #
edge $-1 $454 -43.311821394705397 $314 -22.50815286962689 $308 $455 forward 7 unknown #
coedge $-1 $456 $440 $189 $311 forward $300 $-1 #
edge $-1 $313 22.50815286962689 $457 43.311821394705397 $310 $458 forward 7 unknown #
coedge $-1 $190 $305 $451 $459 reversed $185 $-1 #
vertex $-1 $311 $460 #
vertex $-1 $309 $461 #
straight-curve $-1 -55.418140001793034 0 -0.21907838280607628 0 1 0 I I #
face $-1 $-1 $462 $44 $-1 $463 reversed single #
loop $-1 $-1 $198 $192 #
plane-surface $-1 0 0 15.76949891367984 0 0 1 1 0 0 forward_v I I I I #
coedge $-1 $464 $465 $466 $467 reversed $193 $-1 #
coedge $-1 $468 $195 $197 $326 forward $121 $-1 #
coedge $-1 $195 $468 $464 $469 forward $121 $-1 #
coedge $-1 $466 $198 $195 $323 forward $317 $-1 #
edge $-1 $329 -7.3359529935068437 $470 9.3798738395284502 $322 $471 forward 7 unknown #
coedge $-1 $472 $473 $196 $325 forward $462 $-1 #
edge $-1 $474 -78.075779061661734 $328 -74.852867187562012 $324 $475 forward 7 unknown #
edge $-1 $329 95.265791271199149 $474 99.200240149850259 $197 $476 forward 7 unknown #
coedge $-1 $198 $466 $472 $477 forward $317 $-1 #
vertex $-1 $325 $478 #
vertex $-1 $199 $479 #
straight-curve $-1 -6.3139925704960405 58.787851392639425 15.76949891367984 0 -1 0 I I #
coedge $-1 $331 $331 $-1 $480 reversed $202 $-1 #
edge $-1 $481 0 $481 6.2831853071796004 $203 $482 forward 7 unknown #
vertex $-1 $206 $483 #
ellipse-curve $-1 -1.5380420467716647 48.471766514365953 14.15804297663 0 0.81915205242281985 0.57357642473473569 0.25 0 0 1 I I #
coedge $-1 $335 $335 $-1 $484 reversed $209 $-1 #
edge $-1 $485 0 $485 6.2831853071796004 $210 $486 forward 7 unknown #
vertex $-1 $213 $487 #
ellipse-curve $-1 5.6258837388148919 48.471766514365953 14.15804297663 0 0.81915205242281985 0.57357642473473569 0.25 0 0 1 I I #
face $-1 $-1 $488 $47 $-1 $489 reversed single #
loop $-1 $-1 $490 $214 #
plane-surface $-1 76.221808526871541 0 0 -1 0 0 0 0 1 forward_v I I I I #
coedge $-1 $491 $217 $219 $348 forward $135 $-1 #
coedge $-1 $217 $491 $490 $492 reversed $135 $-1 #
coedge $-1 $493 $220 $217 $345 forward $215 $-1 #
edge $-1 $351 25.5740341386593 $494 42.289860971694594 $344 $495 forward 7 unknown #
coedge $-1 $496 $497 $218 $347 forward $488 $-1 #
edge $-1 $498 -78.075779061661734 $350 -74.852867187562012 $346 $499 forward 7 unknown #
edge $-1 $351 95.265791271199149 $498 99.200240149850259 $219 $500 forward 7 unknown #
coedge $-1 $220 $493 $496 $501 forward $215 $-1 #
vertex $-1 $347 $502 #
vertex $-1 $221 $503 #
straight-curve $-1 59.505981693836247 58.787851392639425 15.76949891367984 0 -1 0 I I #
coedge $-1 $353 $353 $-1 $504 reversed $224 $-1 #
edge $-1 $505 0 $505 6.2831853071796004 $225 $506 forward 7 unknown #
vertex $-1 $228 $507 #
ellipse-curve $-1 64.281932217560609 48.471766514365953 14.15804297663 0 0.81915205242281985 0.57357642473473569 0.25 0 0 1 I I #
coedge $-1 $357 $357 $-1 $508 reversed $231 $-1 #
edge $-1 $509 0 $509 6.2831853071796004 $232 $510 forward 7 unknown #
vertex $-1 $235 $511 #
ellipse-curve $-1 71.44585800314718 48.471766514365953 14.15804297663 0 0.81915205242281985 0.57357642473473569 0.25 0 0 1 I I #
face $-1 $-1 $373 $50 $-1 $512 forward single #
loop $-1 $-1 $513 $236 #
plane-surface $-1 0 -49.600120074925108 0 0 1 0 0 0 1 forward_v I I I I #
coedge $-1 $514 $515 $516 $517 reversed $237 $-1 #
coedge $-1 $518 $239 $241 $371 forward $149 $-1 #
coedge $-1 $239 $518 $514 $519 forward $149 $-1 #
coedge $-1 $516 $242 $239 $368 forward $373 $-1 #
edge $-1 $375 -9.3798738395284502 $520 7.3359529935068437 $367 $521 forward 7 unknown #
coedge $-1 $522 $523 $240 $370 forward $362 $-1 #
edge $-1 $524 -37.445738901868495 $374 -34.222827027768794 $369 $525 forward 7 unknown #
edge $-1 $375 -3.9344488786510992 $524 -1.2806143724965335e-014 $241 $526 forward 7 unknown #
coedge $-1 $242 $516 $522 $527 forward $373 $-1 #
loop $-1 $-1 $516 $361 #
vertex $-1 $370 $528 #
vertex $-1 $243 $529 #
straight-curve $-1 10.401834262539253 -87.237310931628571 15.76949891367984 0 1 0 I I #
coedge $-1 $377 $377 $-1 $530 reversed $246 $-1 #
edge $-1 $531 0 $531 6.2831853071796004 $247 $532 forward 7 unknown #
vertex $-1 $250 $533 #
ellipse-curve $-1 -1.5380420467716647 -48.471766514365967 14.158042976629991 0 -0.81915205242281985 0.57357642473473569 0.25 0 0 1 I I #
coedge $-1 $381 $381 $-1 $534 reversed $253 $-1 #
edge $-1 $535 0 $535 6.2831853071796004 $254 $536 forward 7 unknown #
vertex $-1 $257 $537 #
ellipse-curve $-1 5.6258837388148919 -48.471766514365967 14.158042976629991 0 -0.81915205242281985 0.57357642473473569 0.25 0 0 1 I I #
face $-1 $-1 $538 $53 $-1 $539 reversed single #
loop $-1 $-1 $391 $258 #
plane-surface $-1 0 0 15.76949891367984 0 0 1 1 0 0 forward_v I I I I #
coedge $-1 $540 $541 $390 $542 forward $259 $-1 #
coedge $-1 $390 $261 $263 $396 reversed $163 $-1 #
coedge $-1 $261 $389 $388 $542 reversed $163 $-1 #
coedge $-1 $543 $264 $261 $392 forward $386 $-1 #
edge $-1 $399 -39.893897977821744 $544 -37.637190856703462 $391 $545 forward 7 unknown #
coedge $-1 $263 $262 $540 $546 reversed $104 $-1 #
coedge $-1 $547 $548 $262 $395 forward $538 $-1 #
edge $-1 $549 -9.0859485073077462 $398 -5.1514996286566594 $394 $550 forward 7 unknown #
edge $-1 $551 1.2806143724965335e-014 $399 3.9344488786510992 $389 $552 forward 7 unknown #
coedge $-1 $264 $543 $547 $553 forward $386 $-1 #
vertex $-1 $395 $554 #
vertex $-1 $265 $555 #
straight-curve $-1 33.931947555176947 -47.343412953806833 15.76949891367984 -1 0 0 I I #
coedge $-1 $401 $401 $-1 $556 reversed $268 $-1 #
edge $-1 $557 0 $557 6.2831853071796004 $269 $558 forward 7 unknown #
vertex $-1 $272 $559 #
ellipse-curve $-1 64.281932217560609 -48.471766514365967 14.158042976629991 0 -0.81915205242281985 0.57357642473473569 0.25 0 0 1 I I #
coedge $-1 $405 $405 $-1 $560 reversed $275 $-1 #
edge $-1 $561 0 $561 6.2831853071796004 $276 $562 forward 7 unknown #
vertex $-1 $279 $563 #
ellipse-curve $-1 71.44585800314718 -48.471766514365967 14.158042976629991 0 -0.81915205242281985 0.57357642473473569 0.25 0 0 1 I I #
face $-1 $-1 $295 $42 $-1 $564 reversed single #
loop $-1 $-1 $425 $280 #
plane-surface $-1 0 49.600120074925108 0 0 -1 0 0 0 -1 forward_v I I I I #
coedge $-1 $565 $423 $426 $566 forward $281 $-1 #
coedge $-1 $429 $283 $284 $417 reversed $177 $-1 #
coedge $-1 $423 $565 $283 $415 reversed $281 $-1 #
edge $-1 $430 -15.76949891367984 $567 15.76949891367984 $414 $568 forward 7 unknown #
coedge $-1 $285 $284 $565 $569 forward $113 $-1 #
edge $-1 $421 -76.221808526871541 $567 76.221808526871541 $413 $570 forward 7 unknown #
coedge $-1 $426 $425 $285 $419 reversed $410 $-1 #
edge $-1 $571 -76.221808526871541 $420 76.221808526871541 $418 $572 forward 7 unknown #
vertex $-1 $287 $573 #
vertex $-1 $432 $574 #
straight-curve $-1 76.221808526871541 0 -15.76949891367984 0 -1 0 I I #
coedge $-1 $412 $414 $288 $424 reversed $281 $-1 #
edge $-1 $427 -49.600120074925108 $430 49.600120074925108 $423 $575 forward 7 unknown #
coedge $-1 $418 $289 $294 $433 forward $410 $-1 #
coedge $-1 $289 $418 $412 $566 reversed $410 $-1 #
vertex $-1 $290 $576 #
straight-curve $-1 0 49.600120074925108 15.76949891367984 -1 0 0 I I #
coedge $-1 $291 $413 $293 $432 reversed $177 $-1 #
vertex $-1 $424 $577 #
straight-curve $-1 0 -49.600120074925108 15.76949891367984 1 0 0 I I #
edge $-1 $296 -15.76949891367984 $421 15.76949891367984 $293 $578 forward 7 unknown #
edge $-1 $297 -15.76949891367984 $420 15.76949891367984 $294 $579 forward 7 unknown #
point $-1 76.221808526871541 -49.600120074925108 15.76949891367984 #
point $-1 76.221808526871541 49.600120074925108 15.76949891367984 #
face $-1 $-1 $453 $43 $-1 $580 reversed single #
loop $-1 $-1 $581 $299 #
plane-surface $-1 -76.221808526871541 0 0 1 0 0 0 0 -1 forward_v I I I I #
coedge $-1 $440 $456 $303 $443 forward $300 $-1 #
coedge $-1 $310 $439 $302 $441 forward $300 $-1 #
edge $-1 $447 -6.8237882428684529 $313 2.1285438257521001 $440 $582 forward 7 unknown #
coedge $-1 $304 $303 $581 $583 reversed $117 $-1 #
edge $-1 $584 -43.311821394705397 $447 -22.50815286962689 $439 $585 forward 7 unknown #
coedge $-1 $452 $451 $304 $445 forward $453 $-1 #
edge $-1 $446 22.50815286962689 $586 43.311821394705397 $444 $587 forward 7 unknown #
vertex $-1 $445 $588 #
vertex $-1 $443 $589 #
straight-curve $-1 -55.418140001793034 0 -9.1714104514266293 0 -1 0 I I #
coedge $-1 $590 $591 $307 $450 forward $437 $-1 #
edge $-1 $457 -49.600120074925108 $454 49.600120074925108 $449 $592 forward 7 unknown #
coedge $-1 $444 $308 $312 $459 forward $453 $-1 #
coedge $-1 $308 $444 $590 $593 reversed $453 $-1 #
loop $-1 $-1 $444 $436 #
vertex $-1 $593 $594 #
straight-curve $-1 -32.909987132166144 49.600120074925108 -0.21907838280607628 1 0 0 I I #
coedge $-1 $439 $310 $591 $595 forward $300 $-1 #
vertex $-1 $595 $596 #
straight-curve $-1 -32.909987132166144 -49.600120074925108 -0.21907838280607628 -1 0 0 I I #
edge $-1 $314 -2.1285438257521001 $446 6.8237882428684529 $451 $597 forward 7 unknown #
point $-1 -55.418140001793034 -49.600120074925108 -0.21907838280607628 #
point $-1 -55.418140001793034 49.600120074925108 -0.21907838280607628 #
loop $-1 $-1 $324 $316 #
plane-surface $-1 0 49.600120074925108 0 0 -1 0 0 0 -1 forward_v I I I I #
coedge $-1 $465 $319 $321 $469 reversed $193 $-1 #
coedge $-1 $319 $464 $598 $599 reversed $193 $-1 #
coedge $-1 $327 $322 $319 $467 forward $317 $-1 #
edge $-1 $470 -11.444438438832613 $600 -9.1877313177143165 $466 $601 forward 7 unknown #
coedge $-1 $321 $320 $473 $602 reversed $121 $-1 #
edge $-1 $603 -99.200240149850259 $470 -95.265791271199149 $464 $604 forward 7 unknown #
vertex $-1 $323 $605 #
straight-curve $-1 1.0219604230108033 47.343412953806805 15.769498913679847 1 0 0 I I #
coedge $-1 $598 $324 $327 $477 reversed $462 $-1 #
coedge $-1 $324 $598 $468 $602 forward $462 $-1 #
vertex $-1 $325 $606 #
straight-curve $-1 -6.3139925704960405 49.600120074925108 90.622366101241852 0 0 1 I I #
straight-curve $-1 -6.3139925704960405 -7.2987990030531762 93.806667359166568 0 0.57357642473473569 -0.81915205242281985 I I #
edge $-1 $600 -10.401834262539253 $328 6.3139925704960405 $472 $607 forward 7 unknown #
point $-1 -6.3139925704960405 49.600120074925108 15.76949891367984 #
point $-1 -6.3139925704960405 47.343412953806812 15.76949891367984 #
edge $-1 $608 1 $608 0 $331 $-1 forward 7 unknown #
vertex $-1 $332 $609 #
ellipse-curve $-1 -1.5380420467716647 47.652614461943131 13.584466551895265 0 0.81915205242281985 0.57357642473473569 0.25 0 0 1 I I #
point $-1 -1.2880420467716647 48.471766514365953 14.15804297663 #
edge $-1 $610 1 $610 0 $335 $-1 forward 7 unknown #
vertex $-1 $336 $611 #
ellipse-curve $-1 5.6258837388148919 47.652614461943131 13.584466551895265 0 0.81915205242281985 0.57357642473473569 0.25 0 0 1 I I #
point $-1 5.8758837388148919 48.471766514365953 14.15804297663 #
loop $-1 $-1 $346 $339 #
plane-surface $-1 0 49.600120074925108 0 0 -1 0 0 0 -1 forward_v I I I I #
coedge $-1 $612 $613 $343 $492 forward $340 $-1 #
coedge $-1 $343 $342 $497 $614 reversed $135 $-1 #
edge $-1 $494 54.751619703581781 $615 58.686068582232892 $490 $616 forward 7 unknown #
coedge $-1 $349 $344 $613 $617 forward $215 $-1 #
vertex $-1 $617 $618 #
straight-curve $-1 33.931947555176947 47.343412953806805 15.769498913679847 1 0 0 I I #
coedge $-1 $619 $346 $349 $501 reversed $488 $-1 #
coedge $-1 $346 $619 $491 $614 forward $488 $-1 #
vertex $-1 $347 $620 #
straight-curve $-1 59.505981693836247 49.600120074925108 90.622366101241852 0 0 1 I I #
straight-curve $-1 59.505981693836247 -7.2987990030531762 93.806667359166568 0 0.57357642473473569 -0.81915205242281985 I I #
edge $-1 $621 -76.221808526871541 $350 -59.505981693836247 $496 $622 forward 7 unknown #
point $-1 59.505981693836247 49.600120074925108 15.76949891367984 #
point $-1 59.505981693836247 47.343412953806812 15.76949891367984 #
edge $-1 $623 1 $623 0 $353 $-1 forward 7 unknown #
vertex $-1 $354 $624 #
ellipse-curve $-1 64.281932217560609 47.652614461943131 13.584466551895265 0 0.81915205242281985 0.57357642473473569 0.25 0 0 1 I I #
point $-1 64.531932217560609 48.471766514365953 14.15804297663 #
edge $-1 $625 1 $625 0 $357 $-1 forward 7 unknown #
vertex $-1 $358 $626 #
ellipse-curve $-1 71.44585800314718 47.652614461943131 13.584466551895265 0 0.81915205242281985 0.57357642473473569 0.25 0 0 1 I I #
point $-1 71.69585800314718 48.471766514365953 14.15804297663 #
plane-surface $-1 0 0 15.76949891367984 0 0 1 1 0 0 forward_v I I I I #
coedge $-1 $523 $522 $515 $627 forward $362 $-1 #
coedge $-1 $515 $364 $366 $519 reversed $237 $-1 #
coedge $-1 $364 $514 $513 $627 reversed $237 $-1 #
coedge $-1 $372 $367 $364 $517 forward $373 $-1 #
edge $-1 $520 -39.893897977821744 $628 -37.637190856703462 $516 $629 forward 7 unknown #
coedge $-1 $366 $365 $523 $630 reversed $149 $-1 #
edge $-1 $631 1.2806143724965335e-014 $520 3.9344488786510992 $514 $632 forward 7 unknown #
vertex $-1 $368 $633 #
straight-curve $-1 1.0219604230108033 -47.343412953806833 15.76949891367984 -1 0 0 I I #
coedge $-1 $513 $369 $372 $527 reversed $362 $-1 #
coedge $-1 $369 $513 $518 $630 forward $362 $-1 #
vertex $-1 $370 $634 #
straight-curve $-1 10.401834262539253 -49.600120074925108 49.992325941448634 0 0 1 I I #
straight-curve $-1 10.401834262539253 -49.600120074925115 12.546587039580132 0 -0.57357642473473569 -0.81915205242281985 I I #
edge $-1 $628 -6.3139925704960405 $374 10.401834262539253 $522 $635 forward 7 unknown #
point $-1 10.401834262539253 -49.600120074925108 15.76949891367984 #
point $-1 10.401834262539253 -47.343412953806826 15.76949891367984 #
edge $-1 $636 1 $636 0 $377 $-1 forward 7 unknown #
vertex $-1 $378 $637 #
ellipse-curve $-1 -1.5380420467716647 -47.652614461943145 13.584466551895254 0 -0.81915205242281985 0.57357642473473569 0.25 0 0 1 I I #
point $-1 -1.2880420467716647 -48.471766514365967 14.158042976629989 #
edge $-1 $638 1 $638 0 $381 $-1 forward 7 unknown #
vertex $-1 $382 $639 #
ellipse-curve $-1 5.6258837388148919 -47.652614461943145 13.584466551895254 0 -0.81915205242281985 0.57357642473473569 0.25 0 0 1 I I #
point $-1 5.8758837388148919 -48.471766514365967 14.158042976629989 #
loop $-1 $-1 $394 $385 #
plane-surface $-1 76.221808526871541 0 0 -1 0 0 0 0 1 forward_v I I I I #
coedge $-1 $640 $388 $393 $546 forward $259 $-1 #
coedge $-1 $388 $640 $543 $641 reversed $259 $-1 #
edge $-1 $544 34.222827027768794 $551 37.445738901868495 $388 $642 forward 7 unknown #
coedge $-1 $397 $391 $541 $641 forward $386 $-1 #
vertex $-1 $641 $643 #
straight-curve $-1 59.505981693836247 -87.237310931628571 15.76949891367984 0 -1 0 I I #
edge $-1 $551 25.5740341386593 $549 42.289860971694594 $540 $644 forward 7 unknown #
coedge $-1 $548 $394 $397 $553 reversed $538 $-1 #
coedge $-1 $394 $547 $640 $645 forward $538 $-1 #
vertex $-1 $546 $646 #
straight-curve $-1 76.221808526871541 -44.388634214779628 19.989360407549341 0 0.57357642473473569 0.81915205242281985 I I #
vertex $-1 $546 $647 #
straight-curve $-1 59.505981693836247 -49.600120074925115 12.546587039580132 0 0.57357642473473569 0.81915205242281985 I I #
edge $-1 $648 -49.600120074925108 $398 -47.343412953806826 $547 $649 forward 7 unknown #
point $-1 76.221808526871541 -47.343412953806826 15.76949891367984 #
point $-1 59.505981693836247 -47.343412953806826 15.76949891367984 #
edge $-1 $650 1 $650 0 $401 $-1 forward 7 unknown #
vertex $-1 $402 $651 #
ellipse-curve $-1 64.281932217560609 -47.652614461943145 13.584466551895254 0 -0.81915205242281985 0.57357642473473569 0.25 0 0 1 I I #
point $-1 64.531932217560609 -48.471766514365967 14.158042976629989 #
edge $-1 $652 1 $652 0 $405 $-1 forward 7 unknown #
vertex $-1 $406 $653 #
ellipse-curve $-1 71.44585800314718 -47.652614461943145 13.584466551895254 0 -0.81915205242281985 0.57357642473473569 0.25 0 0 1 I I #
point $-1 71.69585800314718 -48.471766514365967 14.158042976629989 #
plane-surface $-1 76.221808526871541 0 0 -1 0 0 0 0 1 forward_v I I I I #
coedge $-1 $414 $412 $416 $569 reversed $281 $-1 #
edge $-1 $427 -15.76949891367984 $571 15.76949891367984 $426 $654 forward 7 unknown #
vertex $-1 $569 $655 #
straight-curve $-1 -76.221808526871541 -49.600120074925108 0 0 0 -1 I I #
edge $-1 $567 -49.600120074925108 $571 49.600120074925108 $565 $656 forward 7 unknown #
straight-curve $-1 0 -49.600120074925108 -15.76949891367984 -1 0 0 I I #
vertex $-1 $419 $657 #
straight-curve $-1 0 49.600120074925108 -15.76949891367984 1 0 0 I I #
point $-1 76.221808526871541 49.600120074925108 -15.76949891367984 #
point $-1 76.221808526871541 -49.600120074925108 -15.76949891367984 #
straight-curve $-1 -76.221808526871541 0 15.76949891367984 0 -1 0 I I #
point $-1 -76.221808526871541 49.600120074925108 15.76949891367984 #
point $-1 -76.221808526871541 -49.600120074925108 15.76949891367984 #
straight-curve $-1 76.221808526871541 -49.600120074925108 0 0 0 -1 I I #
straight-curve $-1 76.221808526871541 49.600120074925108 0 0 0 -1 I I #
plane-surface $-1 0 49.600120074925108 0 0 -1 0 0 0 -1 forward_v I I I I #
coedge $-1 $591 $590 $442 $583 forward $437 $-1 #
straight-curve $-1 -55.418140001793034 -49.600120074925108 -2.3476222085581764 0 0 1 I I #
edge $-1 $586 -49.600120074925108 $584 49.600120074925108 $581 $658 forward 7 unknown #
vertex $-1 $443 $659 #
straight-curve $-1 -32.909987132166144 -49.600120074925108 -9.1714104514266293 1 0 0 I I #
vertex $-1 $445 $660 #
straight-curve $-1 -32.909987132166144 49.600120074925108 -9.1714104514266293 -1 0 0 I I #
point $-1 -55.418140001793034 49.600120074925108 -9.1714104514266293 #
point $-1 -55.418140001793034 -49.600120074925108 -9.1714104514266293 #
coedge $-1 $581 $449 $452 $593 forward $437 $-1 #
coedge $-1 $449 $581 $456 $595 reversed $437 $-1 #
straight-curve $-1 -76.221808526871541 0 -0.21907838280607628 0 1 0 I I #
edge $-1 $454 0.21907838280607628 $586 9.1714104514266293 $452 $661 forward 7 unknown #
point $-1 -76.221808526871541 49.600120074925108 -0.21907838280607628 #
edge $-1 $457 0.21907838280607628 $584 9.1714104514266293 $591 $662 forward 7 unknown #
point $-1 -76.221808526871541 -49.600120074925108 -0.21907838280607628 #
straight-curve $-1 -55.418140001793034 49.600120074925108 -2.3476222085581764 0 0 -1 I I #
coedge $-1 $473 $472 $465 $599 forward $462 $-1 #
edge $-1 $600 74.852867187562012 $603 78.075779061661734 $598 $663 forward 7 unknown #
vertex $-1 $477 $664 #
straight-curve $-1 10.401834262539253 58.787851392639425 15.76949891367984 0 1 0 I I #
edge $-1 $603 -9.3798738395284502 $474 7.3359529935068437 $473 $665 forward 7 unknown #
vertex $-1 $602 $666 #
straight-curve $-1 10.401834262539253 -7.2987990030531762 93.806667359166568 0 -0.57357642473473569 0.81915205242281985 I I #
point $-1 10.401834262539253 47.343412953806812 15.76949891367984 #
point $-1 -6.3139925704960405 49.600120074925108 12.546587039580118 #
straight-curve $-1 0 49.600120074925108 15.76949891367984 -1 0 0 I I #
vertex $-1 $480 $667 #
point $-1 -1.2880420467716647 47.652614461943131 13.584466551895265 #
vertex $-1 $484 $668 #
point $-1 5.8758837388148919 47.652614461943131 13.584466551895265 #
coedge $-1 $613 $490 $619 $669 reversed $340 $-1 #
coedge $-1 $490 $612 $493 $617 reversed $340 $-1 #
edge $-1 $615 -42.289860971694594 $498 -25.5740341386593 $497 $670 forward 7 unknown #
vertex $-1 $492 $671 #
straight-curve $-1 76.221808526871541 15.939174675790472 60.619400567342552 0 0.57357642473473569 -0.81915205242281985 I I #
edge $-1 $494 47.343412953806812 $621 49.600120074925108 $613 $672 forward 7 unknown #
point $-1 76.221808526871541 47.343412953806812 15.76949891367984 #
coedge $-1 $497 $496 $612 $669 forward $488 $-1 #
point $-1 59.505981693836247 49.600120074925108 12.546587039580118 #
vertex $-1 $617 $673 #
straight-curve $-1 0 49.600120074925108 15.76949891367984 -1 0 0 I I #
vertex $-1 $504 $674 #
point $-1 64.531932217560609 47.652614461943131 13.584466551895265 #
vertex $-1 $508 $675 #
point $-1 71.69585800314718 47.652614461943131 13.584466551895265 #
edge $-1 $628 34.222827027768794 $631 37.445738901868495 $513 $676 forward 7 unknown #
vertex $-1 $527 $677 #
straight-curve $-1 -6.3139925704960405 -87.237310931628571 15.76949891367984 0 -1 0 I I #
edge $-1 $631 -7.3359529935068437 $524 9.3798738395284502 $523 $678 forward 7 unknown #
vertex $-1 $630 $679 #
straight-curve $-1 -6.3139925704960405 -49.600120074925115 12.546587039580132 0 0.57357642473473569 0.81915205242281985 I I #
point $-1 -6.3139925704960405 -47.343412953806826 15.76949891367984 #
point $-1 10.401834262539253 -49.600120074925108 12.546587039580142 #
straight-curve $-1 0 -49.600120074925108 15.76949891367984 1 0 0 I I #
vertex $-1 $530 $680 #
point $-1 -1.2880420467716647 -47.652614461943145 13.584466551895254 #
vertex $-1 $534 $681 #
point $-1 5.8758837388148919 -47.652614461943145 13.584466551895254 #
coedge $-1 $541 $540 $548 $645 reversed $259 $-1 #
edge $-1 $544 59.505981693836247 $648 76.221808526871541 $541 $682 forward 7 unknown #
straight-curve $-1 59.505981693836247 -49.600120074925108 49.992325941448634 0 0 -1 I I #
point $-1 59.505981693836247 -49.600120074925108 15.76949891367984 #
straight-curve $-1 33.931947555176947 -49.600120074925108 12.546587039580146 1 0 0 I I #
edge $-1 $648 -15.76949891367984 $549 -12.546587039580142 $548 $683 forward 7 unknown #
point $-1 76.221808526871541 -49.600120074925108 12.546587039580142 #
point $-1 59.505981693836247 -49.600120074925108 12.546587039580142 #
vertex $-1 $553 $684 #
straight-curve $-1 76.221808526871541 0 15.76949891367984 0 1 0 I I #
vertex $-1 $556 $685 #
point $-1 64.531932217560609 -47.652614461943145 13.584466551895254 #
vertex $-1 $560 $686 #
point $-1 71.69585800314718 -47.652614461943145 13.584466551895254 #
straight-curve $-1 -76.221808526871541 49.600120074925108 0 0 0 -1 I I #
point $-1 -76.221808526871541 -49.600120074925108 -15.76949891367984 #
straight-curve $-1 -76.221808526871541 0 -15.76949891367984 0 1 0 I I #
point $-1 -76.221808526871541 49.600120074925108 -15.76949891367984 #
straight-curve $-1 -76.221808526871541 0 -9.1714104514266293 0 -1 0 I I #
point $-1 -76.221808526871541 -49.600120074925108 -9.1714104514266293 #
point $-1 -76.221808526871541 49.600120074925108 -9.1714104514266293 #
straight-curve $-1 -76.221808526871541 49.600120074925108 0 0 0 -1 I I #
straight-curve $-1 -76.221808526871541 -49.600120074925108 0 0 0 -1 I I #
straight-curve $-1 10.401834262539253 49.600120074925108 90.622366101241852 0 0 -1 I I #
point $-1 10.401834262539253 49.600120074925108 15.76949891367984 #
straight-curve $-1 1.0219604230108033 49.600120074925115 12.546587039580118 -1 0 0 I I #
point $-1 10.401834262539253 49.600120074925108 12.546587039580118 #
point $-1 -1.5380420467716647 47.447826448837432 13.44107244571158 #
point $-1 5.6258837388148919 47.447826448837432 13.44107244571158 #
edge $-1 $621 -15.76949891367984 $615 -12.546587039580118 $612 $687 forward 7 unknown #
straight-curve $-1 33.931947555176947 49.600120074925115 12.546587039580118 -1 0 0 I I #
point $-1 76.221808526871541 49.600120074925108 12.546587039580118 #
straight-curve $-1 76.221808526871541 0 15.76949891367984 0 1 0 I I #
point $-1 76.221808526871541 49.600120074925108 15.76949891367984 #
point $-1 64.281932217560609 47.447826448837432 13.44107244571158 #
point $-1 71.44585800314718 47.447826448837432 13.44107244571158 #
straight-curve $-1 -6.3139925704960405 -49.600120074925108 49.992325941448634 0 0 -1 I I #
point $-1 -6.3139925704960405 -49.600120074925108 15.76949891367984 #
straight-curve $-1 1.0219604230108033 -49.600120074925108 12.546587039580146 1 0 0 I I #
point $-1 -6.3139925704960405 -49.600120074925108 12.546587039580142 #
point $-1 -1.5380420467716647 -47.447826448837446 13.441072445711569 #
point $-1 5.6258837388148919 -47.447826448837446 13.441072445711569 #
straight-curve $-1 0 -49.600120074925108 15.76949891367984 1 0 0 I I #
straight-curve $-1 76.221808526871541 -49.600120074925108 0 0 0 -1 I I #
point $-1 76.221808526871541 -49.600120074925108 15.76949891367984 #
point $-1 64.281932217560609 -47.447826448837446 13.441072445711569 #
point $-1 71.44585800314718 -47.447826448837446 13.441072445711569 #
straight-curve $-1 76.221808526871541 49.600120074925108 0 0 0 -1 I I #
End-of-ACIS-data 