500 0 9 0           
7 Unknown 11 ACIS 5.0 NT 24 Fri Mar 26 17:25:33 1999 
-1 9.9999999999999995e-007 1e-010 
body $-1 $9 $-1 $10 #
body $-1 $11 $-1 $12 #
body $-1 $13 $-1 $14 #
body $-1 $15 $-1 $16 #
body $-1 $17 $-1 $18 #
body $-1 $19 $-1 $20 #
body $-1 $21 $-1 $22 #
body $-1 $23 $-1 $24 #
body $-1 $25 $-1 $26 #
lump $-1 $-1 $27 $0 #
transform $-1 1 0 0 0 1 0 0 0 1 40.065919980468152 17.321996179427597 4 1 rotate no_reflect no_shear #
lump $-1 $-1 $28 $1 #
transform $-1 1 0 0 0 1 0 0 0 1 40.065919980468152 17.321996179427597 4 1 rotate no_reflect no_shear #
lump $-1 $-1 $29 $2 #
transform $-1 1 0 0 0 1 0 0 0 1 40.065919980468152 17.321996179427597 4 1 rotate no_reflect no_shear #
lump $-1 $-1 $30 $3 #
transform $-1 1 0 0 0 1 0 0 0 1 40.065919980468152 17.321996179427597 4 1 rotate no_reflect no_shear #
lump $-1 $-1 $31 $4 #
transform $-1 1 0 0 0 1 0 0 0 1 40.065919980468152 17.321996179427597 4 1 rotate no_reflect no_shear #
lump $-1 $-1 $32 $5 #
transform $-1 1 0 0 0 1 0 0 0 1 40.065919980468152 17.321996179427597 4 1 rotate no_reflect no_shear #
lump $-1 $-1 $33 $6 #
transform $-1 1 0 0 0 1 0 0 0 1 40.065919980468152 17.321996179427597 4 1 rotate no_reflect no_shear #
lump $-1 $-1 $34 $7 #
transform $-1 1 0 0 0 1 0 0 0 1 40.065919980468152 17.321996179427597 4 1 rotate no_reflect no_shear #
lump $-1 $-1 $35 $8 #
transform $-1 1 0 0 0 1 0 0 0 1 40.065919980468152 17.321996179427597 4 1 rotate no_reflect no_shear #
shell $-1 $-1 $-1 $36 $-1 $9 #
shell $-1 $-1 $-1 $37 $-1 $11 #
shell $-1 $-1 $-1 $38 $-1 $13 #
shell $-1 $-1 $-1 $39 $-1 $15 #
shell $-1 $-1 $-1 $40 $-1 $17 #
shell $-1 $-1 $-1 $41 $-1 $19 #
shell $-1 $-1 $-1 $42 $-1 $21 #
shell $-1 $-1 $-1 $43 $-1 $23 #
shell $-1 $-1 $-1 $44 $-1 $25 #
face $-1 $45 $46 $27 $-1 $47 forward single #
face $-1 $48 $49 $28 $-1 $50 reversed single #
face $-1 $51 $52 $29 $-1 $53 reversed single #
face $-1 $54 $55 $30 $-1 $56 forward single #
face $-1 $57 $58 $31 $-1 $59 forward single #
face $-1 $60 $61 $32 $-1 $62 forward single #
face $-1 $63 $64 $33 $-1 $65 reversed single #
face $-1 $66 $67 $34 $-1 $68 forward single #
face $-1 $69 $70 $35 $-1 $71 forward single #
face $-1 $72 $73 $27 $-1 $74 reversed single #
loop $-1 $-1 $75 $36 #
plane-surface $-1 0 0 4 0 0 1 1 0 0 forward_v I I I I #
face $-1 $76 $77 $28 $-1 $78 reversed single #
loop $-1 $-1 $79 $37 #
plane-surface $-1 -37.843951536606951 0 1 0 0 1 1 0 0 forward_v I I I I #
face $-1 $80 $81 $29 $-1 $82 reversed single #
loop $-1 $-1 $83 $38 #
plane-surface $-1 20.414082257984848 -83.754302911998678 45.465150650197558 -1 0 0 0 -0.82903758062907751 0.55919289150049634 forward_v I I I I #
face $-1 $84 $85 $30 $-1 $86 forward single #
loop $-1 $87 $88 $39 #
cone-surface $-1 8.0358866652012964 -14.735652215258186 1.3441837395652223 0 0.82903758062907751 -0.55919289150049634 1 0 0 1 I I 0 1 1 forward I I I I #
face $-1 $89 $90 $31 $-1 $91 forward single #
loop $-1 $92 $93 $40 #
cone-surface $-1 12.677710012495126 -14.735652215258186 1.3441837395652223 0 0.82903758062907751 -0.55919289150049634 1 0 0 1 I I 0 1 1 forward I I I I #
face $-1 $94 $95 $32 $-1 $96 forward single #
loop $-1 $97 $98 $41 #
cone-surface $-1 17.319533359788956 -14.735652215258186 1.3441837395652223 0 0.82903758062907751 -0.55919289150049634 1 0 0 1 I I 0 1 1 forward I I I I #
face $-1 $99 $100 $33 $-1 $101 reversed single #
loop $-1 $-1 $102 $42 #
plane-surface $-1 20.944947878970993 27.385339359381479 86.924327172748065 1 0 0 0 -0.50000000669873634 -0.8660253999169214 forward_v I I I I #
face $-1 $103 $104 $34 $-1 $105 forward single #
loop $-1 $106 $107 $43 #
cone-surface $-1 26.408082765113036 13.330935648020743 0.88115829069005192 0 -0.50000000669873634 -0.8660253999169214 1 0 0 1 I I 0 1 1 forward I I I I #
face $-1 $108 $109 $35 $-1 $110 forward single #
loop $-1 $111 $112 $44 #
cone-surface $-1 34.602785094326109 13.330935648020743 0.88115829069005192 0 -0.50000000669873634 -0.8660253999169214 1 0 0 1 I I 0 1 1 forward I I I I #
face $-1 $113 $114 $27 $-1 $115 reversed single #
loop $-1 $-1 $116 $45 #
plane-surface $-1 0 0 -4 0 0 1 1 0 0 forward_v I I I I #
coedge $-1 $117 $118 $119 $120 forward $46 $-1 #
face $-1 $121 $122 $28 $-1 $123 reversed single #
loop $-1 $-1 $124 $48 #
plane-surface $-1 -35.621983092745751 0 2.5 -1 0 0 0 0 1 forward_v I I I I #
coedge $-1 $125 $126 $127 $128 forward $49 $-1 #
face $-1 $129 $130 $29 $-1 $131 reversed single #
loop $-1 $-1 $132 $51 #
plane-surface $-1 12.677710012495126 -17.321996179427614 0.65599536118656943 0 -0.82903758062907751 0.55919289150049634 1 0 0 forward_v I I I I #
coedge $-1 $133 $134 $135 $136 reversed $52 $-1 #
face $-1 $-1 $137 $30 $-1 $138 forward single #
loop $-1 $139 $140 $54 #
cone-surface $-1 8.0358866652012964 -12.862569230269269 0.080773352786916774 0 0.82903758062907751 -0.55919289150049634 0.5 0 0 1 I I -0.70710678118654768 0.70710678118654735 0.5 forward I I I I #
loop $-1 $-1 $141 $39 #
coedge $-1 $88 $88 $142 $143 reversed $55 $-1 #
face $-1 $-1 $144 $31 $-1 $145 forward single #
loop $-1 $146 $147 $57 #
cone-surface $-1 12.677710012495126 -12.862569230269269 0.080773352786916774 0 0.82903758062907751 -0.55919289150049634 0.5 0 0 1 I I -0.70710678118654768 0.70710678118654735 0.5 forward I I I I #
loop $-1 $-1 $148 $40 #
coedge $-1 $93 $93 $149 $150 reversed $58 $-1 #
face $-1 $-1 $151 $32 $-1 $152 forward single #
loop $-1 $153 $154 $60 #
cone-surface $-1 17.319533359788956 -12.862569230269269 0.080773352786916774 0 0.82903758062907751 -0.55919289150049634 0.5 0 0 1 I I -0.70710678118654768 0.70710678118654735 0.5 forward I I I I #
loop $-1 $-1 $155 $41 #
coedge $-1 $98 $98 $156 $157 reversed $61 $-1 #
face $-1 $158 $159 $33 $-1 $160 forward single #
loop $-1 $-1 $161 $63 #
plane-surface $-1 30.505433929719572 -12.68058115786874 17.528118424499453 0 0.50000000669873634 0.8660253999169214 1 0 0 forward_v I I I I #
coedge $-1 $162 $163 $164 $165 reversed $64 $-1 #
face $-1 $-1 $166 $34 $-1 $167 forward single #
loop $-1 $168 $169 $66 #
cone-surface $-1 26.408082765113036 12.375469770172764 -0.77375712507880046 0 -0.50000000669873634 -0.8660253999169214 0.5 0 0 1 I I -0.70710678118654746 0.70710678118654746 0.5 forward I I I I #
loop $-1 $-1 $170 $43 #
coedge $-1 $107 $107 $171 $172 reversed $67 $-1 #
face $-1 $-1 $173 $35 $-1 $174 forward single #
loop $-1 $175 $176 $69 #
cone-surface $-1 34.602785094326109 12.375469770172764 -0.77375712507880046 0 -0.50000000669873634 -0.8660253999169214 0.5 0 0 1 I I -0.70710678118654746 0.70710678118654746 0.5 forward I I I I #
loop $-1 $-1 $177 $44 #
coedge $-1 $112 $112 $178 $179 reversed $70 $-1 #
face $-1 $180 $181 $27 $-1 $182 reversed single #
loop $-1 $-1 $183 $72 #
plane-surface $-1 0 -17.321996179427597 0 0 1 0 0 0 1 forward_v I I I I #
coedge $-1 $184 $185 $186 $187 forward $73 $-1 #
coedge $-1 $188 $75 $189 $190 forward $46 $-1 #
coedge $-1 $75 $188 $191 $192 forward $46 $-1 #
coedge $-1 $193 $194 $75 $120 reversed $195 $-1 #
edge $-1 $196 -17.321996179427597 $197 17.321996179427597 $119 $198 forward 7 unknown #
face $-1 $199 $200 $28 $-1 $201 reversed single #
loop $-1 $-1 $202 $76 #
plane-surface $-1 0 17.321996179427597 0 0 -1 0 0 0 -1 forward_v I I I I #
coedge $-1 $127 $203 $204 $205 reversed $77 $-1 #
coedge $-1 $206 $79 $207 $208 reversed $49 $-1 #
coedge $-1 $79 $206 $209 $210 reversed $49 $-1 #
coedge $-1 $211 $124 $79 $128 reversed $77 $-1 #
edge $-1 $212 -17.321996179427597 $213 17.321996179427597 $127 $214 forward 7 unknown #
face $-1 $215 $216 $29 $-1 $217 reversed single #
loop $-1 $-1 $218 $80 #
plane-surface $-1 4.9413377670054039 -83.754302911998678 45.465150650197558 1 0 0 0 0.82903758062907751 -0.55919289150049634 forward_v I I I I #
coedge $-1 $219 $220 $221 $222 reversed $81 $-1 #
coedge $-1 $134 $83 $223 $224 reversed $52 $-1 #
coedge $-1 $83 $133 $219 $225 reversed $52 $-1 #
coedge $-1 $221 $226 $83 $136 forward $227 $-1 #
edge $-1 $228 24.555155276571742 $229 26.810714815561781 $135 $230 forward 7 unknown #
loop $-1 $-1 $142 $84 #
plane-surface $-1 12.677710012495126 -17.321996179427614 0.65599536118656943 0 -0.82903758062907751 0.55919289150049634 1 0 0 forward_v I I I I #
loop $-1 $-1 $231 $54 #
coedge $-1 $140 $140 $141 $232 reversed $85 $-1 #
coedge $-1 $141 $141 $140 $232 forward $87 $-1 #
coedge $-1 $142 $142 $88 $143 forward $137 $-1 #
edge $-1 $233 7.2909507066972285e-016 $233 6.2831853071796013 $142 $234 forward 7 unknown #
loop $-1 $-1 $149 $89 #
plane-surface $-1 12.677710012495126 -17.321996179427614 0.65599536118656943 0 -0.82903758062907751 0.55919289150049634 1 0 0 forward_v I I I I #
loop $-1 $-1 $235 $57 #
coedge $-1 $147 $147 $148 $236 reversed $90 $-1 #
coedge $-1 $148 $148 $147 $236 forward $92 $-1 #
coedge $-1 $149 $149 $93 $150 forward $144 $-1 #
edge $-1 $237 7.2909507066972285e-016 $237 6.2831853071796013 $149 $238 forward 7 unknown #
loop $-1 $-1 $156 $94 #
plane-surface $-1 12.677710012495126 -17.321996179427614 0.65599536118656943 0 -0.82903758062907751 0.55919289150049634 1 0 0 forward_v I I I I #
loop $-1 $-1 $239 $60 #
coedge $-1 $154 $154 $155 $240 reversed $95 $-1 #
coedge $-1 $155 $155 $154 $240 forward $97 $-1 #
coedge $-1 $156 $156 $98 $157 forward $151 $-1 #
edge $-1 $241 7.2909507066972285e-016 $241 6.2831853071796013 $156 $242 forward 7 unknown #
face $-1 $243 $244 $33 $-1 $245 reversed single #
loop $-1 $-1 $164 $99 #
plane-surface $-1 0 0 4 0 0 1 1 0 0 forward_v I I I I #
coedge $-1 $246 $247 $248 $249 reversed $100 $-1 #
coedge $-1 $163 $102 $250 $251 reversed $64 $-1 #
coedge $-1 $102 $162 $246 $252 reversed $64 $-1 #
coedge $-1 $248 $253 $102 $165 forward $159 $-1 #
edge $-1 $254 -3.6293264997368571 $255 2.9418628140796361 $164 $256 forward 7 unknown #
loop $-1 $-1 $171 $103 #
plane-surface $-1 30.505433929719572 -12.68058115786874 17.528118424499453 0 0.50000000669873634 0.8660253999169214 1 0 0 forward_v I I I I #
loop $-1 $-1 $257 $66 #
coedge $-1 $169 $169 $170 $258 reversed $104 $-1 #
coedge $-1 $170 $170 $169 $258 forward $106 $-1 #
coedge $-1 $171 $171 $107 $172 forward $166 $-1 #
edge $-1 $259 -4.6003132886205016e-016 $259 6.2831853071795996 $171 $260 forward 7 unknown #
loop $-1 $-1 $178 $108 #
plane-surface $-1 30.505433929719572 -12.68058115786874 17.528118424499453 0 0.50000000669873634 0.8660253999169214 1 0 0 forward_v I I I I #
loop $-1 $-1 $261 $69 #
coedge $-1 $176 $176 $177 $262 reversed $109 $-1 #
coedge $-1 $177 $177 $176 $262 forward $111 $-1 #
coedge $-1 $178 $178 $112 $179 forward $173 $-1 #
edge $-1 $263 -4.6003132886205016e-016 $263 6.2831853071795996 $178 $264 forward 7 unknown #
face $-1 $265 $266 $27 $-1 $267 reversed single #
loop $-1 $-1 $268 $113 #
plane-surface $-1 -40.065919980468152 0 0 1 0 0 0 0 -1 forward_v I I I I #
coedge $-1 $269 $191 $270 $271 forward $114 $-1 #
coedge $-1 $272 $116 $269 $273 forward $73 $-1 #
coedge $-1 $116 $272 $274 $275 forward $73 $-1 #
coedge $-1 $194 $193 $116 $187 reversed $195 $-1 #
edge $-1 $276 -17.321996179427597 $277 17.321996179427597 $186 $278 forward 7 unknown #
coedge $-1 $118 $117 $279 $280 forward $46 $-1 #
coedge $-1 $281 $282 $117 $190 reversed $266 $-1 #
edge $-1 $197 -40.065919980468152 $283 40.065919980468152 $189 $284 forward 7 unknown #
coedge $-1 $183 $285 $118 $192 reversed $114 $-1 #
edge $-1 $286 -40.065919980468152 $196 40.065919980468152 $191 $287 forward 7 unknown #
coedge $-1 $186 $119 $285 $288 forward $195 $-1 #
coedge $-1 $119 $186 $281 $289 reversed $195 $-1 #
loop $-1 $-1 $193 $265 #
vertex $-1 $120 $290 #
vertex $-1 $120 $291 #
straight-curve $-1 40.065919980468152 0 4 0 1 0 I I #
face $-1 $292 $293 $28 $-1 $294 forward single #
loop $-1 $-1 $295 $121 #
plane-surface $-1 -40.065919980468152 0 0 1 0 0 0 0 -1 forward_v I I I I #
coedge $-1 $209 $296 $211 $297 forward $122 $-1 #
coedge $-1 $124 $211 $298 $299 reversed $77 $-1 #
coedge $-1 $300 $207 $124 $205 forward $301 $-1 #
edge $-1 $213 -0.25 $302 2.75 $204 $303 forward 7 unknown #
coedge $-1 $126 $125 $295 $304 reversed $49 $-1 #
coedge $-1 $204 $305 $125 $208 forward $301 $-1 #
edge $-1 $306 -21.143944212164676 $213 -16.700007324442275 $207 $307 forward 7 unknown #
coedge $-1 $308 $202 $126 $210 forward $122 $-1 #
edge $-1 $212 16.700007324442275 $309 21.143944212164676 $209 $310 forward 7 unknown #
coedge $-1 $203 $127 $202 $297 reversed $77 $-1 #
vertex $-1 $210 $311 #
vertex $-1 $208 $312 #
straight-curve $-1 -35.621983092745751 0 1 0 -1 0 I I #
face $-1 $-1 $227 $29 $-1 $313 forward single #
loop $-1 $-1 $314 $129 #
plane-surface $-1 0 -17.321996179427597 0 0 1 0 0 0 1 forward_v I I I I #
coedge $-1 $315 $316 $317 $318 reversed $130 $-1 #
coedge $-1 $319 $132 $134 $225 forward $81 $-1 #
coedge $-1 $132 $319 $315 $320 forward $81 $-1 #
coedge $-1 $317 $135 $132 $222 forward $227 $-1 #
edge $-1 $229 -14.075227251737285 $321 1.3975172392421591 $221 $322 forward 7 unknown #
coedge $-1 $323 $324 $133 $224 forward $216 $-1 #
edge $-1 $325 -22.076579963912184 $228 -18.732575325098779 $223 $326 forward 7 unknown #
edge $-1 $229 -4.0335983759336758 $325 -3.1747134837575384e-014 $134 $327 forward 7 unknown #
coedge $-1 $135 $317 $323 $328 forward $227 $-1 #
loop $-1 $-1 $317 $215 #
vertex $-1 $224 $329 #
vertex $-1 $136 $330 #
straight-curve $-1 20.414082257984848 -41.877151455999339 4 0 1 0 I I #
coedge $-1 $231 $231 $-1 $331 reversed $139 $-1 #
edge $-1 $332 0 $332 6.2831853071796004 $140 $333 forward 7 unknown #
vertex $-1 $143 $334 #
ellipse-curve $-1 8.0358866652012964 -16.194216409932583 2.3279976805932909 0 -0.82903758062907751 0.55919289150049634 1 0 0 1 I I #
coedge $-1 $235 $235 $-1 $335 reversed $146 $-1 #
edge $-1 $336 0 $336 6.2831853071796004 $147 $337 forward 7 unknown #
vertex $-1 $150 $338 #
ellipse-curve $-1 12.677710012495126 -16.194216409932583 2.3279976805932909 0 -0.82903758062907751 0.55919289150049634 1 0 0 1 I I #
coedge $-1 $239 $239 $-1 $339 reversed $153 $-1 #
edge $-1 $340 0 $340 6.2831853071796004 $154 $341 forward 7 unknown #
vertex $-1 $157 $342 #
ellipse-curve $-1 17.319533359788956 -16.194216409932583 2.3279976805932909 0 -0.82903758062907751 0.55919289150049634 1 0 0 1 I I #
face $-1 $-1 $343 $33 $-1 $344 reversed single #
loop $-1 $-1 $345 $158 #
plane-surface $-1 40.065919980468152 0 0 -1 0 0 0 0 1 forward_v I I I I #
coedge $-1 $346 $161 $163 $252 forward $100 $-1 #
coedge $-1 $161 $346 $345 $347 reversed $100 $-1 #
coedge $-1 $348 $164 $161 $249 forward $159 $-1 #
edge $-1 $255 5.6922309141112066 $349 24.813203015608366 $248 $350 forward 7 unknown #
coedge $-1 $351 $352 $162 $251 forward $343 $-1 #
edge $-1 $353 -43.256041573373146 $254 -39.462163586374032 $250 $354 forward 7 unknown #
edge $-1 $255 27.056236486513718 $353 34.643992358855193 $163 $355 forward 7 unknown #
coedge $-1 $164 $348 $351 $356 forward $159 $-1 #
vertex $-1 $251 $357 #
vertex $-1 $165 $358 #
straight-curve $-1 20.944947878970993 13.69266967969074 4 0 -1 0 I I #
coedge $-1 $257 $257 $-1 $359 reversed $168 $-1 #
edge $-1 $360 0 $360 6.2831853071796004 $169 $361 forward 7 unknown #
vertex $-1 $172 $362 #
ellipse-curve $-1 26.408082765113036 14.036401522519352 2.1030610065004396 0 0.50000000669873634 0.8660253999169214 1 0 0 1 I I #
coedge $-1 $261 $261 $-1 $363 reversed $175 $-1 #
edge $-1 $364 0 $364 6.2831853071796004 $176 $365 forward 7 unknown #
vertex $-1 $179 $366 #
ellipse-curve $-1 34.602785094326109 14.036401522519352 2.1030610065004396 0 0.50000000669873634 0.8660253999169214 1 0 0 1 I I #
face $-1 $-1 $195 $27 $-1 $367 reversed single #
loop $-1 $-1 $281 $180 #
plane-surface $-1 0 17.321996179427597 0 0 -1 0 0 0 -1 forward_v I I I I #
coedge $-1 $368 $279 $282 $369 forward $181 $-1 #
coedge $-1 $285 $183 $184 $273 reversed $114 $-1 #
coedge $-1 $279 $368 $183 $271 reversed $181 $-1 #
edge $-1 $286 -4 $370 4 $270 $371 forward 7 unknown #
coedge $-1 $185 $184 $368 $372 forward $73 $-1 #
edge $-1 $277 -40.065919980468152 $370 40.065919980468152 $269 $373 forward 7 unknown #
coedge $-1 $282 $281 $185 $275 reversed $266 $-1 #
edge $-1 $374 -40.065919980468152 $276 40.065919980468152 $274 $375 forward 7 unknown #
vertex $-1 $187 $376 #
vertex $-1 $288 $377 #
straight-curve $-1 40.065919980468152 0 -4 0 -1 0 I I #
coedge $-1 $268 $270 $188 $280 reversed $181 $-1 #
edge $-1 $283 -17.321996179427597 $286 17.321996179427597 $279 $378 forward 7 unknown #
coedge $-1 $274 $189 $194 $289 forward $266 $-1 #
coedge $-1 $189 $274 $268 $369 reversed $266 $-1 #
vertex $-1 $190 $379 #
straight-curve $-1 0 17.321996179427597 4 -1 0 0 I I #
coedge $-1 $191 $269 $193 $288 reversed $114 $-1 #
vertex $-1 $280 $380 #
straight-curve $-1 0 -17.321996179427597 4 1 0 0 I I #
edge $-1 $196 -4 $277 4 $193 $381 forward 7 unknown #
edge $-1 $197 -4 $276 4 $194 $382 forward 7 unknown #
point $-1 40.065919980468152 -17.321996179427597 4 #
point $-1 40.065919980468152 17.321996179427597 4 #
face $-1 $-1 $301 $28 $-1 $383 reversed single #
loop $-1 $-1 $298 $199 #
plane-surface $-1 0 0 4 0 0 1 1 0 0 forward_v I I I I #
coedge $-1 $384 $385 $206 $304 forward $200 $-1 #
coedge $-1 $202 $308 $386 $387 reversed $122 $-1 #
edge $-1 $388 -2.75 $212 0.25 $202 $389 forward 7 unknown #
coedge $-1 $386 $390 $203 $299 forward $293 $-1 #
edge $-1 $302 -17.321996179427597 $388 17.321996179427597 $298 $391 forward 7 unknown #
coedge $-1 $305 $204 $390 $392 reversed $301 $-1 #
loop $-1 $-1 $204 $292 #
vertex $-1 $205 $393 #
straight-curve $-1 -35.621983092745751 -17.321996179427597 1.25 0 0 1 I I #
edge $-1 $309 -17.321996179427597 $306 17.321996179427597 $295 $394 forward 7 unknown #
coedge $-1 $207 $300 $384 $395 forward $301 $-1 #
vertex $-1 $304 $396 #
straight-curve $-1 -18.921975768303476 -17.321996179427597 1 1 0 0 I I #
coedge $-1 $296 $209 $385 $397 reversed $122 $-1 #
vertex $-1 $304 $398 #
straight-curve $-1 -18.921975768303476 17.321996179427597 1 -1 0 0 I I #
point $-1 -35.621983092745751 17.321996179427597 1 #
point $-1 -35.621983092745751 -17.321996179427597 1 #
plane-surface $-1 0 0 4 0 0 1 1 0 0 forward_v I I I I #
coedge $-1 $324 $323 $316 $399 forward $216 $-1 #
coedge $-1 $316 $218 $220 $320 reversed $130 $-1 #
coedge $-1 $218 $315 $314 $399 reversed $130 $-1 #
coedge $-1 $226 $221 $218 $318 forward $227 $-1 #
edge $-1 $321 -26.810714815561781 $400 -24.555155276571742 $317 $401 forward 7 unknown #
coedge $-1 $220 $219 $324 $402 reversed $81 $-1 #
edge $-1 $403 3.1747134837575384e-014 $321 4.0335983759336758 $315 $404 forward 7 unknown #
vertex $-1 $222 $405 #
straight-curve $-1 6.338855006247563 -15.066436640437557 4 -1 0 0 I I #
coedge $-1 $314 $223 $226 $328 reversed $216 $-1 #
coedge $-1 $223 $314 $319 $402 forward $216 $-1 #
vertex $-1 $224 $406 #
straight-curve $-1 20.414082257984848 -17.3219961794276 22.732575325098779 0 0 1 I I #
straight-curve $-1 20.414082257984848 -17.321996179427614 0.65599536118656943 0 -0.55919289150049634 -0.82903758062907751 I I #
edge $-1 $400 4.9413377670054039 $228 20.414082257984848 $323 $407 forward 7 unknown #
point $-1 20.414082257984848 -17.321996179427597 4 #
point $-1 20.414082257984848 -15.066436640437557 4 #
edge $-1 $408 1 $408 0 $231 $-1 forward 7 unknown #
vertex $-1 $232 $409 #
ellipse-curve $-1 8.0358866652012964 -13.277088020583808 0.36036979853716483 0 -0.82903758062907751 0.55919289150049634 1 0 0 1 I I #
point $-1 9.0358866652012964 -16.194216409932565 2.3279976805932798 #
edge $-1 $410 1 $410 0 $235 $-1 forward 7 unknown #
vertex $-1 $236 $411 #
ellipse-curve $-1 12.677710012495126 -13.277088020583808 0.36036979853716483 0 -0.82903758062907751 0.55919289150049634 1 0 0 1 I I #
point $-1 13.677710012495126 -16.194216409932565 2.3279976805932798 #
edge $-1 $412 1 $412 0 $239 $-1 forward 7 unknown #
vertex $-1 $240 $413 #
ellipse-curve $-1 17.319533359788956 -13.277088020583808 0.36036979853716483 0 -0.82903758062907751 0.55919289150049634 1 0 0 1 I I #
point $-1 18.319533359788956 -16.194216409932565 2.3279976805932798 #
loop $-1 $-1 $250 $243 #
plane-surface $-1 0 17.321996179427597 0 0 -1 0 0 0 -1 forward_v I I I I #
coedge $-1 $414 $415 $247 $347 forward $244 $-1 #
coedge $-1 $247 $246 $352 $416 reversed $100 $-1 #
edge $-1 $349 17.183354137469607 $417 24.771110009811082 $345 $418 forward 7 unknown #
coedge $-1 $253 $248 $415 $419 forward $159 $-1 #
vertex $-1 $419 $420 #
straight-curve $-1 15.252716964859786 10.750806865611104 4 1 0 0 I I #
coedge $-1 $421 $250 $253 $356 reversed $343 $-1 #
coedge $-1 $250 $421 $346 $416 forward $343 $-1 #
vertex $-1 $251 $422 #
straight-curve $-1 20.944947878970993 17.321996179427597 43.462163586374032 0 0 1 I I #
straight-curve $-1 20.944947878970993 -12.68058115786874 17.528118424499453 0 0.8660253999169214 -0.50000000669873634 I I #
edge $-1 $423 -40.065919980468152 $254 -20.944947878970993 $351 $424 forward 7 unknown #
point $-1 20.944947878970993 17.321996179427597 4 #
point $-1 20.944947878970993 10.750806865611104 4 #
edge $-1 $425 1 $425 0 $257 $-1 forward 7 unknown #
vertex $-1 $258 $426 #
ellipse-curve $-1 26.408082765113036 12.625469773522132 -0.34074442512033976 0 0.50000000669873634 0.8660253999169214 1 0 0 1 I I #
point $-1 27.408082765113036 14.036401522519354 2.1030610065004436 #
edge $-1 $427 1 $427 0 $261 $-1 forward 7 unknown #
vertex $-1 $262 $428 #
ellipse-curve $-1 34.602785094326109 12.625469773522132 -0.34074442512033976 0 0.50000000669873634 0.8660253999169214 1 0 0 1 I I #
point $-1 35.602785094326109 14.036401522519354 2.1030610065004436 #
plane-surface $-1 40.065919980468152 0 0 -1 0 0 0 0 1 forward_v I I I I #
coedge $-1 $270 $268 $272 $372 reversed $181 $-1 #
edge $-1 $283 -4 $374 4 $282 $429 forward 7 unknown #
vertex $-1 $372 $430 #
straight-curve $-1 -40.065919980468152 -17.321996179427597 0 0 0 -1 I I #
edge $-1 $370 -17.321996179427597 $374 17.321996179427597 $368 $431 forward 7 unknown #
straight-curve $-1 0 -17.321996179427597 -4 -1 0 0 I I #
vertex $-1 $275 $432 #
straight-curve $-1 0 17.321996179427597 -4 1 0 0 I I #
point $-1 40.065919980468152 17.321996179427597 -4 #
point $-1 40.065919980468152 -17.321996179427597 -4 #
straight-curve $-1 -40.065919980468152 0 4 0 -1 0 I I #
point $-1 -40.065919980468152 17.321996179427597 4 #
point $-1 -40.065919980468152 -17.321996179427597 4 #
straight-curve $-1 40.065919980468152 -17.321996179427597 0 0 0 -1 I I #
straight-curve $-1 40.065919980468152 17.321996179427597 0 0 0 -1 I I #
plane-surface $-1 0 -17.321996179427597 0 0 1 0 0 0 1 forward_v I I I I #
coedge $-1 $433 $295 $305 $395 reversed $200 $-1 #
coedge $-1 $295 $433 $308 $397 forward $200 $-1 #
coedge $-1 $434 $298 $296 $387 forward $293 $-1 #
edge $-1 $388 35.621983092745751 $435 40.065919980468152 $296 $436 forward 7 unknown #
vertex $-1 $387 $437 #
straight-curve $-1 -35.621983092745751 17.321996179427597 1.25 0 0 -1 I I #
coedge $-1 $298 $434 $300 $392 forward $293 $-1 #
straight-curve $-1 -35.621983092745751 0 4 0 1 0 I I #
edge $-1 $438 -40.065919980468152 $302 -35.621983092745751 $300 $439 forward 7 unknown #
point $-1 -35.621983092745751 -17.321996179427597 4 #
straight-curve $-1 -40.065919980468152 0 1 0 -1 0 I I #
edge $-1 $438 -4 $306 -1 $384 $440 forward 7 unknown #
point $-1 -40.065919980468152 -17.321996179427597 1 #
edge $-1 $435 -4 $309 -1 $308 $441 forward 7 unknown #
point $-1 -40.065919980468152 17.321996179427597 1 #
edge $-1 $400 18.732575325098779 $403 22.076579963912184 $314 $442 forward 7 unknown #
vertex $-1 $328 $443 #
straight-curve $-1 4.9413377670054039 -41.877151455999339 4 0 -1 0 I I #
edge $-1 $403 -1.3975172392421591 $325 14.075227251737285 $324 $444 forward 7 unknown #
vertex $-1 $402 $445 #
straight-curve $-1 4.9413377670054039 -17.321996179427614 0.65599536118656943 0 0.55919289150049634 0.82903758062907751 I I #
point $-1 4.9413377670054039 -15.066436640437557 4 #
point $-1 20.414082257984848 -17.321996179427597 0.65599536118659574 #
straight-curve $-1 0 -17.321996179427597 4 1 0 0 I I #
vertex $-1 $331 $446 #
point $-1 9.0358866652012964 -13.277088020583808 0.36036979853716483 #
vertex $-1 $335 $447 #
point $-1 13.677710012495126 -13.277088020583808 0.36036979853716483 #
vertex $-1 $339 $448 #
point $-1 18.319533359788956 -13.277088020583808 0.36036979853716483 #
coedge $-1 $415 $345 $421 $449 reversed $244 $-1 #
coedge $-1 $345 $414 $348 $419 reversed $244 $-1 #
edge $-1 $417 -24.813203015608366 $353 -5.6922309141112066 $352 $450 forward 7 unknown #
vertex $-1 $347 $451 #
straight-curve $-1 40.065919980468152 -4.1304142732050986 12.591677183841561 0 0.8660253999169214 -0.50000000669873634 I I #
edge $-1 $349 10.750806865611104 $423 17.321996179427597 $415 $452 forward 7 unknown #
point $-1 40.065919980468152 10.750806865611104 4 #
coedge $-1 $352 $351 $414 $449 forward $343 $-1 #
point $-1 20.944947878970993 17.321996179427597 0.20612201300088628 #
vertex $-1 $419 $453 #
straight-curve $-1 0 17.321996179427597 4 -1 0 0 I I #
vertex $-1 $359 $454 #
point $-1 27.408082765113036 12.625469773522132 -0.34074442512033976 #
vertex $-1 $363 $455 #
point $-1 35.602785094326109 12.625469773522132 -0.34074442512033976 #
straight-curve $-1 -40.065919980468152 17.321996179427597 0 0 0 -1 I I #
point $-1 -40.065919980468152 -17.321996179427597 -4 #
straight-curve $-1 -40.065919980468152 0 -4 0 1 0 I I #
point $-1 -40.065919980468152 17.321996179427597 -4 #
coedge $-1 $385 $384 $434 $456 reversed $200 $-1 #
coedge $-1 $390 $386 $433 $456 forward $293 $-1 #
vertex $-1 $387 $457 #
straight-curve $-1 0 17.321996179427597 4 -1 0 0 I I #
point $-1 -35.621983092745751 17.321996179427597 4 #
vertex $-1 $456 $458 #
straight-curve $-1 0 -17.321996179427597 4 1 0 0 I I #
straight-curve $-1 -40.065919980468152 -17.321996179427597 0 0 0 -1 I I #
straight-curve $-1 -40.065919980468152 17.321996179427597 0 0 0 -1 I I #
straight-curve $-1 4.9413377670054039 -17.3219961794276 22.732575325098779 0 0 -1 I I #
point $-1 4.9413377670054039 -17.321996179427597 4 #
straight-curve $-1 6.338855006247563 -17.321996179427597 0.6559953611865974 1 0 0 I I #
point $-1 4.9413377670054039 -17.321996179427597 0.65599536118659574 #
point $-1 8.0358866652012964 -12.448050439954731 -0.19882309296333128 #
point $-1 12.677710012495126 -12.448050439954731 -0.19882309296333128 #
point $-1 17.319533359788956 -12.448050439954731 -0.19882309296333128 #
edge $-1 $423 -4 $417 -0.20612201300088628 $414 $459 forward 7 unknown #
straight-curve $-1 15.252716964859786 17.321996179427597 0.20612201300088806 -1 0 0 I I #
point $-1 40.065919980468152 17.321996179427597 0.20612201300088628 #
straight-curve $-1 40.065919980468152 0 4 0 1 0 I I #
point $-1 40.065919980468152 17.321996179427597 4 #
point $-1 26.408082765113036 12.125469766823395 -1.2067698250372612 #
point $-1 34.602785094326109 12.125469766823395 -1.2067698250372612 #
edge $-1 $435 -17.321996179427597 $438 17.321996179427597 $433 $460 forward 7 unknown #
point $-1 -40.065919980468152 17.321996179427597 4 #
point $-1 -40.065919980468152 -17.321996179427597 4 #
straight-curve $-1 40.065919980468152 17.321996179427597 0 0 0 -1 I I #
straight-curve $-1 -40.065919980468152 0 4 0 -1 0 I I #
End-of-ACIS-data 