500 0 14 0           
7 Unknown 11 ACIS 5.0 NT 24 Fri Mar 26 19:35:44 1999 
-1 9.9999999999999995e-007 1e-010 
body $-1 $14 $-1 $15 #
body $-1 $16 $-1 $17 #
body $-1 $18 $-1 $19 #
body $-1 $20 $-1 $21 #
body $-1 $22 $-1 $23 #
body $-1 $24 $-1 $25 #
body $-1 $26 $-1 $27 #
body $-1 $28 $-1 $29 #
body $-1 $30 $-1 $31 #
body $-1 $32 $-1 $33 #
body $-1 $34 $-1 $35 #
body $-1 $36 $-1 $37 #
body $-1 $38 $-1 $39 #
body $-1 $40 $-1 $41 #
lump $-1 $-1 $42 $0 #
transform $-1 1 0 0 0 1 0 0 0 1 71.340067751091041 34.155796468371115 8.4554020396386349 1 rotate no_reflect no_shear #
lump $-1 $-1 $43 $1 #
transform $-1 1 0 0 0 1 0 0 0 1 71.340067751091041 34.155796468371115 8.4554020396386349 1 rotate no_reflect no_shear #
lump $-1 $-1 $44 $2 #
transform $-1 1 0 0 0 1 0 0 0 1 71.340067751091041 34.155796468371115 8.4554020396386349 1 rotate no_reflect no_shear #
lump $-1 $-1 $45 $3 #
transform $-1 1 0 0 0 1 0 0 0 1 71.340067751091041 34.155796468371115 8.4554020396386349 1 rotate no_reflect no_shear #
lump $-1 $-1 $46 $4 #
transform $-1 1 0 0 0 1 0 0 0 1 71.340067751091041 34.155796468371115 8.4554020396386349 1 rotate no_reflect no_shear #
lump $-1 $-1 $47 $5 #
transform $-1 1 0 0 0 1 0 0 0 1 71.340067751091041 34.155796468371115 8.4554020396386349 1 rotate no_reflect no_shear #
lump $-1 $-1 $48 $6 #
transform $-1 1 0 0 0 1 0 0 0 1 71.340067751091041 34.155796468371115 8.4554020396386349 1 rotate no_reflect no_shear #
lump $-1 $-1 $49 $7 #
transform $-1 1 0 0 0 1 0 0 0 1 71.340067751091041 34.155796468371115 8.4554020396386349 1 rotate no_reflect no_shear #
lump $-1 $-1 $50 $8 #
transform $-1 1 0 0 0 1 0 0 0 1 71.340067751091041 34.155796468371115 8.4554020396386349 1 rotate no_reflect no_shear #
lump $-1 $-1 $51 $9 #
transform $-1 1 0 0 0 1 0 0 0 1 71.340067751091041 34.155796468371115 8.4554020396386349 1 rotate no_reflect no_shear #
lump $-1 $-1 $52 $10 #
transform $-1 1 0 0 0 1 0 0 0 1 71.340067751091041 34.155796468371115 8.4554020396386349 1 rotate no_reflect no_shear #
lump $-1 $-1 $53 $11 #
transform $-1 1 0 0 0 1 0 0 0 1 71.340067751091041 34.155796468371115 8.4554020396386349 1 rotate no_reflect no_shear #
lump $-1 $-1 $54 $12 #
transform $-1 1 0 0 0 1 0 0 0 1 71.340067751091041 34.155796468371115 8.4554020396386349 1 rotate no_reflect no_shear #
lump $-1 $-1 $55 $13 #
transform $-1 1 0 0 0 1 0 0 0 1 71.340067751091041 34.155796468371115 8.4554020396386349 1 rotate no_reflect no_shear #
shell $-1 $-1 $-1 $56 $-1 $14 #
shell $-1 $-1 $-1 $57 $-1 $16 #
shell $-1 $-1 $-1 $58 $-1 $18 #
shell $-1 $-1 $-1 $59 $-1 $20 #
shell $-1 $-1 $-1 $60 $-1 $22 #
shell $-1 $-1 $-1 $61 $-1 $24 #
shell $-1 $-1 $-1 $62 $-1 $26 #
shell $-1 $-1 $-1 $63 $-1 $28 #
shell $-1 $-1 $-1 $64 $-1 $30 #
shell $-1 $-1 $-1 $65 $-1 $32 #
shell $-1 $-1 $-1 $66 $-1 $34 #
shell $-1 $-1 $-1 $67 $-1 $36 #
shell $-1 $-1 $-1 $68 $-1 $38 #
shell $-1 $-1 $-1 $69 $-1 $40 #
face $-1 $70 $71 $42 $-1 $72 forward single #
face $-1 $73 $74 $43 $-1 $75 forward single #
face $-1 $76 $77 $44 $-1 $78 reversed single #
face $-1 $79 $80 $45 $-1 $81 forward single #
face $-1 $82 $83 $46 $-1 $84 forward single #
face $-1 $85 $86 $47 $-1 $87 reversed single #
face $-1 $88 $89 $48 $-1 $90 forward single #
face $-1 $91 $92 $49 $-1 $93 forward single #
face $-1 $94 $95 $50 $-1 $96 reversed single #
face $-1 $97 $98 $51 $-1 $99 forward single #
face $-1 $100 $101 $52 $-1 $102 forward single #
face $-1 $103 $104 $53 $-1 $105 reversed single #
face $-1 $106 $107 $54 $-1 $108 forward single #
face $-1 $109 $110 $55 $-1 $111 forward single #
face $-1 $112 $113 $42 $-1 $114 reversed single #
loop $-1 $-1 $115 $56 #
plane-surface $-1 0 0 8.4554020396386349 0 0 1 1 0 0 forward_v I I I I #
face $-1 $116 $117 $43 $-1 $118 reversed single #
loop $-1 $-1 $119 $57 #
plane-surface $-1 -71.340067751091041 0 0 1 0 0 0 0 -1 forward_v I I I I #
face $-1 $120 $121 $44 $-1 $122 reversed single #
loop $-1 $-1 $123 $58 #
plane-surface $-1 -62.437936013554449 84.130500971968559 150.81894783093955 1 0 0 0 -0.69465837861970381 -0.71933979245794832 forward_v I I I I #
face $-1 $124 $125 $45 $-1 $126 forward single #
loop $-1 $127 $128 $59 #
cone-surface $-1 -52.996271793268207 27.770712748386181 2.122808239705257 0 -0.69465837861970381 -0.71933979245794832 2.5 0 0 1 I I 0 1 2.5 forward I I I I #
face $-1 $129 $130 $46 $-1 $131 forward single #
loop $-1 $132 $133 $60 #
cone-surface $-1 -38.833775462838851 27.770712748386181 2.122808239705257 0 -0.69465837861970381 -0.71933979245794832 2.5 0 0 1 I I 0 1 2.5 forward I I I I #
face $-1 $134 $135 $47 $-1 $136 reversed single #
loop $-1 $-1 $137 $61 #
plane-surface $-1 38.294242980089209 84.130500971968559 150.81894783093955 1 0 0 0 -0.69465837861970381 -0.71933979245794832 forward_v I I I I #
face $-1 $138 $139 $48 $-1 $140 forward single #
loop $-1 $141 $142 $62 #
cone-surface $-1 47.735907200375451 27.770712748386181 2.122808239705257 0 -0.69465837861970381 -0.71933979245794832 2.5 0 0 1 I I 0 1 2.5 forward I I I I #
face $-1 $143 $144 $49 $-1 $145 forward single #
loop $-1 $146 $147 $63 #
cone-surface $-1 61.898403530804799 27.770712748386181 2.122808239705257 0 -0.69465837861970381 -0.71933979245794832 2.5 0 0 1 I I 0 1 2.5 forward I I I I #
face $-1 $148 $149 $50 $-1 $150 reversed single #
loop $-1 $-1 $151 $64 #
plane-surface $-1 -0.1166420823097063 -155.15541487102402 80.719883317507993 -1 0 0 0 -0.84804810408105047 0.52991925155115449 forward_v I I I I #
face $-1 $152 $153 $51 $-1 $154 forward single #
loop $-1 $155 $156 $65 #
cone-surface $-1 -17.44451813725059 -32.383885820366935 6.3288983088534128 0 0.84804810408105047 -0.52991925155115449 0.5 0 0 1 I I 0 1 0.5 forward I I I I #
face $-1 $157 $158 $52 $-1 $159 forward single #
loop $-1 $160 $161 $66 #
cone-surface $-1 -7.0477925042860647 -32.383885820366935 6.3288983088534128 0 0.84804810408105047 -0.52991925155115449 0.5 0 0 1 I I 0 1 0.5 forward I I I I #
face $-1 $162 $163 $53 $-1 $164 reversed single #
loop $-1 $-1 $165 $67 #
plane-surface $-1 66.772359800013035 -155.15541487102402 80.719883317507993 -1 0 0 0 -0.84804810408105047 0.52991925155115449 forward_v I I I I #
face $-1 $166 $167 $54 $-1 $168 forward single #
loop $-1 $169 $170 $68 #
cone-surface $-1 49.444483745072162 -32.383885820366935 6.3288983088534128 0 0.84804810408105047 -0.52991925155115449 0.5 0 0 1 I I 0 1 0.5 forward I I I I #
face $-1 $171 $172 $55 $-1 $173 forward single #
loop $-1 $174 $175 $69 #
cone-surface $-1 59.84120937803668 -32.383885820366935 6.3288983088534128 0 0.84804810408105047 -0.52991925155115449 0.5 0 0 1 I I 0 1 0.5 forward I I I I #
face $-1 $176 $177 $42 $-1 $178 reversed single #
loop $-1 $-1 $179 $70 #
plane-surface $-1 0 0 -8.4554020396386349 0 0 1 1 0 0 forward_v I I I I #
coedge $-1 $180 $181 $182 $183 forward $71 $-1 #
face $-1 $184 $185 $43 $-1 $186 forward single #
loop $-1 $-1 $187 $73 #
plane-surface $-1 0 34.155796468371115 0 0 -1 0 0 0 -1 forward_v I I I I #
coedge $-1 $188 $189 $190 $191 forward $74 $-1 #
face $-1 $192 $193 $44 $-1 $194 reversed single #
loop $-1 $-1 $195 $76 #
plane-surface $-1 -45.915023628053532 -14.983450617216889 48.183448770927953 0 0.69465837861970381 0.71933979245794832 1 0 0 forward_v I I I I #
coedge $-1 $196 $197 $198 $199 reversed $77 $-1 #
face $-1 $-1 $200 $45 $-1 $201 forward single #
loop $-1 $202 $203 $79 #
cone-surface $-1 -52.996271793268207 24.517131715952964 -1.2463734712619328 0 -0.69465837861970381 -0.71933979245794832 1.25 0 0 1 I I -0.70710678118654746 0.70710678118654746 1.25 forward I I I I #
loop $-1 $-1 $204 $59 #
coedge $-1 $128 $128 $205 $206 reversed $80 $-1 #
face $-1 $-1 $207 $46 $-1 $208 forward single #
loop $-1 $209 $210 $82 #
cone-surface $-1 -38.833775462838851 24.517131715952964 -1.2463734712619328 0 -0.69465837861970381 -0.71933979245794832 1.25 0 0 1 I I -0.70710678118654746 0.70710678118654746 1.25 forward I I I I #
loop $-1 $-1 $211 $60 #
coedge $-1 $133 $133 $212 $213 reversed $83 $-1 #
face $-1 $214 $215 $47 $-1 $216 forward single #
loop $-1 $-1 $217 $85 #
plane-surface $-1 54.817155365590125 -14.983450617216889 48.183448770927953 0 0.69465837861970381 0.71933979245794832 1 0 0 forward_v I I I I #
coedge $-1 $218 $219 $220 $221 reversed $86 $-1 #
face $-1 $-1 $222 $48 $-1 $223 forward single #
loop $-1 $224 $225 $88 #
cone-surface $-1 47.735907200375451 24.517131715952964 -1.2463734712619328 0 -0.69465837861970381 -0.71933979245794832 1.25 0 0 1 I I -0.70710678118654746 0.70710678118654746 1.25 forward I I I I #
loop $-1 $-1 $226 $62 #
coedge $-1 $142 $142 $227 $228 reversed $89 $-1 #
face $-1 $-1 $229 $49 $-1 $230 forward single #
loop $-1 $231 $232 $91 #
cone-surface $-1 61.898403530804799 24.517131715952964 -1.2463734712619328 0 -0.69465837861970381 -0.71933979245794832 1.25 0 0 1 I I -0.70710678118654746 0.70710678118654746 1.25 forward I I I I #
loop $-1 $-1 $233 $63 #
coedge $-1 $147 $147 $234 $235 reversed $92 $-1 #
face $-1 $236 $237 $50 $-1 $238 reversed single #
loop $-1 $-1 $239 $94 #
plane-surface $-1 -12.246155320768324 -34.155796468371122 5.1109327009743595 0 -0.84804810408105047 0.52991925155115449 1 0 0 forward_v I I I I #
coedge $-1 $240 $241 $242 $243 reversed $95 $-1 #
face $-1 $-1 $244 $51 $-1 $245 forward single #
loop $-1 $246 $247 $97 #
cone-surface $-1 -17.44451813725059 -31.44489130563673 5.7421494345125375 0 0.84804810408105047 -0.52991925155115449 0.25 0 0 1 I I -0.70710678118654624 0.70710678118654879 0.25 forward I I I I #
loop $-1 $-1 $248 $65 #
coedge $-1 $156 $156 $249 $250 reversed $98 $-1 #
face $-1 $-1 $251 $52 $-1 $252 forward single #
loop $-1 $253 $254 $100 #
cone-surface $-1 -7.0477925042860647 -31.44489130563673 5.7421494345125375 0 0.84804810408105047 -0.52991925155115449 0.25 0 0 1 I I -0.70710678118654624 0.70710678118654879 0.25 forward I I I I #
loop $-1 $-1 $255 $66 #
coedge $-1 $161 $161 $256 $257 reversed $101 $-1 #
face $-1 $258 $259 $53 $-1 $260 reversed single #
loop $-1 $-1 $261 $103 #
plane-surface $-1 54.642846561554421 -34.155796468371122 5.1109327009743595 0 -0.84804810408105047 0.52991925155115449 1 0 0 forward_v I I I I #
coedge $-1 $262 $263 $264 $265 reversed $104 $-1 #
face $-1 $-1 $266 $54 $-1 $267 forward single #
loop $-1 $268 $269 $106 #
cone-surface $-1 49.444483745072162 -31.44489130563673 5.7421494345125375 0 0.84804810408105047 -0.52991925155115449 0.25 0 0 1 I I -0.70710678118654624 0.70710678118654879 0.25 forward I I I I #
loop $-1 $-1 $270 $68 #
coedge $-1 $170 $170 $271 $272 reversed $107 $-1 #
face $-1 $-1 $273 $55 $-1 $274 forward single #
loop $-1 $275 $276 $109 #
cone-surface $-1 59.84120937803668 -31.44489130563673 5.7421494345125375 0 0.84804810408105047 -0.52991925155115449 0.25 0 0 1 I I -0.70710678118654624 0.70710678118654879 0.25 forward I I I I #
loop $-1 $-1 $277 $69 #
coedge $-1 $175 $175 $278 $279 reversed $110 $-1 #
face $-1 $280 $281 $42 $-1 $282 reversed single #
loop $-1 $-1 $283 $112 #
plane-surface $-1 0 -34.155796468371115 0 0 1 0 0 0 1 forward_v I I I I #
coedge $-1 $284 $285 $286 $287 forward $113 $-1 #
coedge $-1 $288 $115 $289 $290 forward $71 $-1 #
coedge $-1 $115 $288 $291 $292 forward $71 $-1 #
coedge $-1 $293 $294 $115 $183 reversed $295 $-1 #
edge $-1 $296 -34.155796468371115 $297 34.155796468371115 $182 $298 forward 7 unknown #
face $-1 $299 $300 $43 $-1 $301 reversed single #
loop $-1 $-1 $190 $116 #
plane-surface $-1 -75.791133619859338 0 2.4427714304889254 0 0 1 1 0 0 forward_v I I I I #
coedge $-1 $302 $303 $189 $304 forward $117 $-1 #
coedge $-1 $305 $119 $306 $307 reversed $74 $-1 #
coedge $-1 $119 $305 $187 $304 reversed $74 $-1 #
coedge $-1 $308 $309 $119 $191 reversed $185 $-1 #
edge $-1 $310 -34.155796468371115 $311 34.155796468371115 $190 $312 forward 7 unknown #
face $-1 $313 $314 $44 $-1 $315 forward single #
loop $-1 $-1 $316 $120 #
plane-surface $-1 -29.392111242552616 84.130500971968559 150.81894783093955 -1 0 0 0 0.69465837861970381 0.71933979245794832 forward_v I I I I #
coedge $-1 $317 $318 $319 $320 reversed $121 $-1 #
coedge $-1 $197 $123 $321 $322 reversed $77 $-1 #
coedge $-1 $123 $196 $317 $323 reversed $77 $-1 #
coedge $-1 $319 $324 $123 $199 forward $314 $-1 #
edge $-1 $325 7.9094540176131645 $326 15.909105339265871 $198 $327 forward 7 unknown #
loop $-1 $-1 $205 $124 #
plane-surface $-1 -45.915023628053532 -14.983450617216889 48.183448770927953 0 0.69465837861970381 0.71933979245794832 1 0 0 forward_v I I I I #
loop $-1 $-1 $328 $79 #
coedge $-1 $203 $203 $204 $329 reversed $125 $-1 #
coedge $-1 $204 $204 $203 $329 forward $127 $-1 #
coedge $-1 $205 $205 $128 $206 forward $200 $-1 #
edge $-1 $330 3.507439862210704e-017 $330 6.2831853071796004 $205 $331 forward 7 unknown #
loop $-1 $-1 $212 $129 #
plane-surface $-1 -45.915023628053532 -14.983450617216889 48.183448770927953 0 0.69465837861970381 0.71933979245794832 1 0 0 forward_v I I I I #
loop $-1 $-1 $332 $82 #
coedge $-1 $210 $210 $211 $333 reversed $130 $-1 #
coedge $-1 $211 $211 $210 $333 forward $132 $-1 #
coedge $-1 $212 $212 $133 $213 forward $207 $-1 #
edge $-1 $334 3.507439862210704e-017 $334 6.2831853071796004 $212 $335 forward 7 unknown #
face $-1 $336 $337 $47 $-1 $338 reversed single #
loop $-1 $-1 $220 $134 #
plane-surface $-1 0 0 8.4554020396386349 0 0 1 1 0 0 forward_v I I I I #
coedge $-1 $339 $340 $341 $342 reversed $135 $-1 #
coedge $-1 $219 $137 $343 $344 reversed $86 $-1 #
coedge $-1 $137 $218 $339 $345 reversed $86 $-1 #
coedge $-1 $341 $346 $137 $221 forward $215 $-1 #
edge $-1 $347 7.9094540176131645 $348 15.909105339265871 $220 $349 forward 7 unknown #
loop $-1 $-1 $227 $138 #
plane-surface $-1 54.817155365590125 -14.983450617216889 48.183448770927953 0 0.69465837861970381 0.71933979245794832 1 0 0 forward_v I I I I #
loop $-1 $-1 $350 $88 #
coedge $-1 $225 $225 $226 $351 reversed $139 $-1 #
coedge $-1 $226 $226 $225 $351 forward $141 $-1 #
coedge $-1 $227 $227 $142 $228 forward $222 $-1 #
edge $-1 $352 3.507439862210704e-017 $352 6.2831853071796004 $227 $353 forward 7 unknown #
loop $-1 $-1 $234 $143 #
plane-surface $-1 54.817155365590125 -14.983450617216889 48.183448770927953 0 0.69465837861970381 0.71933979245794832 1 0 0 forward_v I I I I #
loop $-1 $-1 $354 $91 #
coedge $-1 $232 $232 $233 $355 reversed $144 $-1 #
coedge $-1 $233 $233 $232 $355 forward $146 $-1 #
coedge $-1 $234 $234 $147 $235 forward $229 $-1 #
edge $-1 $356 3.507439862210704e-017 $356 6.2831853071796004 $234 $357 forward 7 unknown #
face $-1 $358 $359 $50 $-1 $360 reversed single #
loop $-1 $-1 $361 $148 #
plane-surface $-1 -24.375668559226941 -155.15541487102402 80.719883317507993 1 0 0 0 0.84804810408105047 -0.52991925155115449 forward_v I I I I #
coedge $-1 $362 $363 $364 $365 reversed $149 $-1 #
coedge $-1 $241 $151 $366 $367 reversed $95 $-1 #
coedge $-1 $151 $240 $362 $368 reversed $95 $-1 #
coedge $-1 $364 $369 $151 $243 forward $370 $-1 #
edge $-1 $371 43.421910967140896 $372 45.511767285729363 $242 $373 forward 7 unknown #
loop $-1 $-1 $249 $152 #
plane-surface $-1 -12.246155320768324 -34.155796468371122 5.1109327009743595 0 -0.84804810408105047 0.52991925155115449 1 0 0 forward_v I I I I #
loop $-1 $-1 $374 $97 #
coedge $-1 $247 $247 $248 $375 reversed $153 $-1 #
coedge $-1 $248 $248 $247 $375 forward $155 $-1 #
coedge $-1 $249 $249 $156 $250 forward $244 $-1 #
edge $-1 $376 -1.5747545419071707e-018 $376 6.2831853071796004 $249 $377 forward 7 unknown #
loop $-1 $-1 $256 $157 #
plane-surface $-1 -12.246155320768324 -34.155796468371122 5.1109327009743595 0 -0.84804810408105047 0.52991925155115449 1 0 0 forward_v I I I I #
loop $-1 $-1 $378 $100 #
coedge $-1 $254 $254 $255 $379 reversed $158 $-1 #
coedge $-1 $255 $255 $254 $379 forward $160 $-1 #
coedge $-1 $256 $256 $161 $257 forward $251 $-1 #
edge $-1 $380 -1.5747545419071707e-018 $380 6.2831853071796004 $256 $381 forward 7 unknown #
face $-1 $382 $383 $53 $-1 $384 reversed single #
loop $-1 $-1 $385 $162 #
plane-surface $-1 42.513333323095807 -155.15541487102402 80.719883317507993 1 0 0 0 0.84804810408105047 -0.52991925155115449 forward_v I I I I #
coedge $-1 $386 $387 $388 $389 reversed $163 $-1 #
coedge $-1 $263 $165 $390 $391 reversed $104 $-1 #
coedge $-1 $165 $262 $386 $392 reversed $104 $-1 #
coedge $-1 $388 $393 $165 $265 forward $394 $-1 #
edge $-1 $395 43.421910967140896 $396 45.511767285729363 $264 $397 forward 7 unknown #
loop $-1 $-1 $271 $166 #
plane-surface $-1 54.642846561554421 -34.155796468371122 5.1109327009743595 0 -0.84804810408105047 0.52991925155115449 1 0 0 forward_v I I I I #
loop $-1 $-1 $398 $106 #
coedge $-1 $269 $269 $270 $399 reversed $167 $-1 #
coedge $-1 $270 $270 $269 $399 forward $169 $-1 #
coedge $-1 $271 $271 $170 $272 forward $266 $-1 #
edge $-1 $400 -1.5747545419071707e-018 $400 6.2831853071796004 $271 $401 forward 7 unknown #
loop $-1 $-1 $278 $171 #
plane-surface $-1 54.642846561554421 -34.155796468371122 5.1109327009743595 0 -0.84804810408105047 0.52991925155115449 1 0 0 forward_v I I I I #
loop $-1 $-1 $402 $109 #
coedge $-1 $276 $276 $277 $403 reversed $172 $-1 #
coedge $-1 $277 $277 $276 $403 forward $174 $-1 #
coedge $-1 $278 $278 $175 $279 forward $273 $-1 #
edge $-1 $404 -1.5747545419071707e-018 $404 6.2831853071796004 $278 $405 forward 7 unknown #
face $-1 $406 $407 $42 $-1 $408 reversed single #
loop $-1 $-1 $409 $176 #
plane-surface $-1 -71.340067751091041 0 0 1 0 0 0 0 -1 forward_v I I I I #
coedge $-1 $410 $291 $411 $412 forward $177 $-1 #
coedge $-1 $413 $179 $410 $414 forward $113 $-1 #
coedge $-1 $179 $413 $415 $416 forward $113 $-1 #
coedge $-1 $294 $293 $179 $287 reversed $295 $-1 #
edge $-1 $417 -34.155796468371115 $418 34.155796468371115 $286 $419 forward 7 unknown #
coedge $-1 $181 $180 $420 $421 forward $71 $-1 #
coedge $-1 $422 $423 $180 $290 reversed $407 $-1 #
edge $-1 $297 -71.340067751091041 $424 71.340067751091041 $289 $425 forward 7 unknown #
coedge $-1 $283 $426 $181 $292 reversed $177 $-1 #
edge $-1 $427 -71.340067751091041 $296 71.340067751091041 $291 $428 forward 7 unknown #
coedge $-1 $286 $182 $426 $429 forward $295 $-1 #
coedge $-1 $182 $286 $422 $430 reversed $295 $-1 #
loop $-1 $-1 $293 $406 #
vertex $-1 $183 $431 #
vertex $-1 $183 $432 #
straight-curve $-1 71.340067751091041 0 8.4554020396386349 0 1 0 I I #
face $-1 $433 $434 $43 $-1 $435 reversed single #
loop $-1 $-1 $436 $184 #
plane-surface $-1 -75.791133619859338 0 -0.82899719222838941 0 0 1 1 0 0 forward_v I I I I #
coedge $-1 $437 $187 $438 $439 reversed $117 $-1 #
coedge $-1 $187 $437 $308 $440 reversed $117 $-1 #
edge $-1 $310 -2.4427714304889254 $441 0.82899719222838941 $187 $442 forward 7 unknown #
coedge $-1 $189 $188 $436 $443 forward $74 $-1 #
coedge $-1 $444 $445 $188 $307 forward $446 $-1 #
edge $-1 $447 -0.82899719222838941 $311 2.4427714304889254 $306 $448 forward 7 unknown #
coedge $-1 $449 $190 $303 $440 forward $185 $-1 #
coedge $-1 $190 $449 $444 $450 forward $185 $-1 #
vertex $-1 $304 $451 #
vertex $-1 $450 $452 #
straight-curve $-1 -71.340067751091041 0 2.4427714304889254 0 -1 0 I I #
face $-1 $-1 $453 $44 $-1 $454 reversed single #
loop $-1 $-1 $198 $192 #
plane-surface $-1 0 0 8.4554020396386349 0 0 1 1 0 0 forward_v I I I I #
coedge $-1 $455 $456 $457 $458 reversed $193 $-1 #
coedge $-1 $459 $195 $197 $323 forward $121 $-1 #
coedge $-1 $195 $459 $455 $460 forward $121 $-1 #
coedge $-1 $457 $198 $195 $320 forward $314 $-1 #
edge $-1 $326 -39.480424199527683 $461 -6.4345994285258499 $319 $462 forward 7 unknown #
coedge $-1 $463 $464 $196 $322 forward $453 $-1 #
edge $-1 $465 -74.679245534908389 $325 -66.954071875831147 $321 $466 forward 7 unknown #
edge $-1 $326 57.190768806718367 $465 68.311592936742215 $197 $467 forward 7 unknown #
coedge $-1 $198 $457 $463 $468 forward $314 $-1 #
vertex $-1 $322 $469 #
vertex $-1 $199 $470 #
straight-curve $-1 -62.437936013554449 42.065250485984279 8.455402039638642 0 -1 0 I I #
coedge $-1 $328 $328 $-1 $471 reversed $202 $-1 #
edge $-1 $472 0 $472 6.2831853071796004 $203 $473 forward 7 unknown #
vertex $-1 $206 $474 #
ellipse-curve $-1 -52.996271793268207 30.155970807544765 4.5928152101000075 0 0.69465837861970381 0.71933979245794832 2.5 0 0 1 I I #
coedge $-1 $332 $332 $-1 $475 reversed $209 $-1 #
edge $-1 $476 0 $476 6.2831853071796004 $210 $477 forward 7 unknown #
vertex $-1 $213 $478 #
ellipse-curve $-1 -38.833775462838851 30.155970807544765 4.5928152101000075 0 0.69465837861970381 0.71933979245794832 2.5 0 0 1 I I #
face $-1 $-1 $479 $47 $-1 $480 reversed single #
loop $-1 $-1 $481 $214 #
plane-surface $-1 71.340067751091041 0 0 -1 0 0 0 0 1 forward_v I I I I #
coedge $-1 $482 $217 $219 $345 forward $135 $-1 #
coedge $-1 $217 $482 $481 $483 reversed $135 $-1 #
coedge $-1 $484 $220 $217 $342 forward $215 $-1 #
edge $-1 $348 10.885665297294146 $485 43.931490068295979 $341 $486 forward 7 unknown #
coedge $-1 $487 $488 $218 $344 forward $479 $-1 #
edge $-1 $489 -74.679245534908389 $347 -66.954071875831147 $343 $490 forward 7 unknown #
edge $-1 $348 57.190768806718367 $489 68.311592936742215 $219 $491 forward 7 unknown #
coedge $-1 $220 $484 $487 $492 forward $215 $-1 #
vertex $-1 $344 $493 #
vertex $-1 $221 $494 #
straight-curve $-1 38.294242980089209 42.065250485984279 8.455402039638642 0 -1 0 I I #
coedge $-1 $350 $350 $-1 $495 reversed $224 $-1 #
edge $-1 $496 0 $496 6.2831853071796004 $225 $497 forward 7 unknown #
vertex $-1 $228 $498 #
ellipse-curve $-1 47.735907200375451 30.155970807544765 4.5928152101000075 0 0.69465837861970381 0.71933979245794832 2.5 0 0 1 I I #
coedge $-1 $354 $354 $-1 $499 reversed $231 $-1 #
edge $-1 $500 0 $500 6.2831853071796004 $232 $501 forward 7 unknown #
vertex $-1 $235 $502 #
ellipse-curve $-1 61.898403530804799 30.155970807544765 4.5928152101000075 0 0.69465837861970381 0.71933979245794832 2.5 0 0 1 I I #
face $-1 $-1 $370 $50 $-1 $503 forward single #
loop $-1 $-1 $504 $236 #
plane-surface $-1 0 -34.155796468371115 0 0 1 0 0 0 1 forward_v I I I I #
coedge $-1 $505 $506 $507 $508 reversed $237 $-1 #
coedge $-1 $509 $239 $241 $368 forward $149 $-1 #
coedge $-1 $239 $509 $505 $510 forward $149 $-1 #
coedge $-1 $507 $242 $239 $365 forward $370 $-1 #
edge $-1 $372 -6.0064355780744556 $511 18.252590898842779 $364 $512 forward 7 unknown #
coedge $-1 $513 $514 $240 $367 forward $359 $-1 #
edge $-1 $515 -35.249008957779623 $371 -31.904539619115361 $366 $516 forward 7 unknown #
edge $-1 $372 -3.9437259780072984 $515 -1.3557137071152151e-014 $241 $517 forward 7 unknown #
coedge $-1 $242 $507 $513 $518 forward $370 $-1 #
loop $-1 $-1 $507 $358 #
vertex $-1 $367 $519 #
vertex $-1 $243 $520 #
straight-curve $-1 -0.1166420823097063 -77.577707435512011 8.4554020396386349 0 1 0 I I #
coedge $-1 $374 $374 $-1 $521 reversed $246 $-1 #
edge $-1 $522 0 $522 6.2831853071796004 $247 $523 forward 7 unknown #
vertex $-1 $250 $524 #
ellipse-curve $-1 -17.44451813725059 -33.110868309076885 6.7831673703065025 0 -0.84804810408105047 0.52991925155115449 0.5 0 0 1 I I #
coedge $-1 $378 $378 $-1 $525 reversed $253 $-1 #
edge $-1 $526 0 $526 6.2831853071796004 $254 $527 forward 7 unknown #
vertex $-1 $257 $528 #
ellipse-curve $-1 -7.0477925042860647 -33.110868309076885 6.7831673703065025 0 -0.84804810408105047 0.52991925155115449 0.5 0 0 1 I I #
face $-1 $-1 $394 $53 $-1 $529 forward single #
loop $-1 $-1 $530 $258 #
plane-surface $-1 0 -34.155796468371115 0 0 1 0 0 0 1 forward_v I I I I #
coedge $-1 $531 $532 $533 $534 reversed $259 $-1 #
coedge $-1 $535 $261 $263 $392 forward $163 $-1 #
coedge $-1 $261 $535 $531 $536 forward $163 $-1 #
coedge $-1 $533 $264 $261 $389 forward $394 $-1 #
edge $-1 $396 -39.450936519235825 $537 -15.191910042318597 $388 $538 forward 7 unknown #
coedge $-1 $539 $540 $262 $391 forward $383 $-1 #
edge $-1 $541 -35.249008957779623 $395 -31.904539619115361 $390 $542 forward 7 unknown #
edge $-1 $396 -3.9437259780072984 $541 -1.3557137071152151e-014 $263 $543 forward 7 unknown #
coedge $-1 $264 $533 $539 $544 forward $394 $-1 #
loop $-1 $-1 $533 $382 #
vertex $-1 $391 $545 #
vertex $-1 $265 $546 #
straight-curve $-1 66.772359800013035 -77.577707435512011 8.4554020396386349 0 1 0 I I #
coedge $-1 $398 $398 $-1 $547 reversed $268 $-1 #
edge $-1 $548 0 $548 6.2831853071796004 $269 $549 forward 7 unknown #
vertex $-1 $272 $550 #
ellipse-curve $-1 49.444483745072162 -33.110868309076885 6.7831673703065025 0 -0.84804810408105047 0.52991925155115449 0.5 0 0 1 I I #
coedge $-1 $402 $402 $-1 $551 reversed $275 $-1 #
edge $-1 $552 0 $552 6.2831853071796004 $276 $553 forward 7 unknown #
vertex $-1 $279 $554 #
ellipse-curve $-1 59.84120937803668 -33.110868309076885 6.7831673703065025 0 -0.84804810408105047 0.52991925155115449 0.5 0 0 1 I I #
face $-1 $-1 $295 $42 $-1 $555 reversed single #
loop $-1 $-1 $422 $280 #
plane-surface $-1 0 34.155796468371115 0 0 -1 0 0 0 -1 forward_v I I I I #
coedge $-1 $556 $420 $423 $557 forward $281 $-1 #
coedge $-1 $426 $283 $284 $414 reversed $177 $-1 #
coedge $-1 $420 $556 $283 $412 reversed $281 $-1 #
edge $-1 $427 -8.4554020396386349 $558 8.4554020396386349 $411 $559 forward 7 unknown #
coedge $-1 $285 $284 $556 $560 forward $113 $-1 #
edge $-1 $418 -71.340067751091041 $558 71.340067751091041 $410 $561 forward 7 unknown #
coedge $-1 $423 $422 $285 $416 reversed $407 $-1 #
edge $-1 $562 -71.340067751091041 $417 71.340067751091041 $415 $563 forward 7 unknown #
vertex $-1 $287 $564 #
vertex $-1 $429 $565 #
straight-curve $-1 71.340067751091041 0 -8.4554020396386349 0 -1 0 I I #
coedge $-1 $409 $411 $288 $421 reversed $281 $-1 #
edge $-1 $424 -34.155796468371115 $427 34.155796468371115 $420 $566 forward 7 unknown #
coedge $-1 $415 $289 $294 $430 forward $407 $-1 #
coedge $-1 $289 $415 $409 $557 reversed $407 $-1 #
vertex $-1 $290 $567 #
straight-curve $-1 0 34.155796468371115 8.4554020396386349 -1 0 0 I I #
coedge $-1 $291 $410 $293 $429 reversed $177 $-1 #
vertex $-1 $421 $568 #
straight-curve $-1 0 -34.155796468371115 8.4554020396386349 1 0 0 I I #
edge $-1 $296 -8.4554020396386349 $418 8.4554020396386349 $293 $569 forward 7 unknown #
edge $-1 $297 -8.4554020396386349 $417 8.4554020396386349 $294 $570 forward 7 unknown #
point $-1 71.340067751091041 -34.155796468371115 8.4554020396386349 #
point $-1 71.340067751091041 34.155796468371115 8.4554020396386349 #
face $-1 $-1 $446 $43 $-1 $571 reversed single #
loop $-1 $-1 $572 $299 #
plane-surface $-1 -80.242199488627634 0 0.806887119130268 1 0 0 0 0 -1 forward_v I I I I #
coedge $-1 $573 $438 $305 $443 reversed $300 $-1 #
coedge $-1 $303 $302 $572 $574 reversed $117 $-1 #
coedge $-1 $436 $575 $302 $439 forward $300 $-1 #
edge $-1 $576 -4.4510658687682962 $441 4.4510658687682962 $302 $577 forward 7 unknown #
edge $-1 $310 -4.4510658687682962 $578 4.4510658687682962 $303 $579 forward 7 unknown #
vertex $-1 $304 $580 #
straight-curve $-1 -71.340067751091041 34.155796468371115 0 0 0 -1 I I #
edge $-1 $447 -34.155796468371115 $441 34.155796468371115 $436 $581 forward 7 unknown #
coedge $-1 $582 $306 $309 $450 reversed $446 $-1 #
coedge $-1 $306 $582 $573 $583 reversed $446 $-1 #
loop $-1 $-1 $306 $433 #
vertex $-1 $307 $584 #
straight-curve $-1 -71.340067751091041 -34.155796468371115 0 0 0 1 I I #
coedge $-1 $309 $308 $585 $586 forward $185 $-1 #
edge $-1 $587 -4.4510658687682962 $311 4.4510658687682962 $444 $588 forward 7 unknown #
point $-1 -71.340067751091041 34.155796468371115 2.4427714304889254 #
point $-1 -71.340067751091041 -34.155796468371115 2.4427714304889254 #
loop $-1 $-1 $321 $313 #
plane-surface $-1 0 34.155796468371115 0 0 -1 0 0 0 -1 forward_v I I I I #
coedge $-1 $456 $316 $318 $460 reversed $193 $-1 #
coedge $-1 $316 $455 $589 $590 reversed $193 $-1 #
coedge $-1 $324 $319 $316 $458 forward $314 $-1 #
edge $-1 $461 -15.909105339265871 $591 -7.9094540176131645 $457 $592 forward 7 unknown #
coedge $-1 $318 $317 $464 $593 reversed $121 $-1 #
edge $-1 $594 -68.311592936742215 $461 -57.190768806718367 $455 $595 forward 7 unknown #
vertex $-1 $320 $596 #
straight-curve $-1 -22.957511814026766 26.156145146718416 8.4554020396386349 1 0 0 I I #
coedge $-1 $589 $321 $324 $468 reversed $453 $-1 #
coedge $-1 $321 $589 $459 $593 forward $453 $-1 #
vertex $-1 $322 $597 #
straight-curve $-1 -62.437936013554449 34.155796468371115 75.409473915469775 0 0 1 I I #
straight-curve $-1 -62.437936013554449 -14.983450617216889 48.183448770927953 0 0.71933979245794832 -0.69465837861970381 I I #
edge $-1 $591 29.392111242552616 $325 62.437936013554449 $463 $598 forward 7 unknown #
point $-1 -62.437936013554449 34.155796468371115 8.4554020396386349 #
point $-1 -62.437936013554449 26.156145146718409 8.4554020396386349 #
edge $-1 $599 1 $599 0 $328 $-1 forward 7 unknown #
vertex $-1 $329 $600 #
ellipse-curve $-1 -52.996271793268207 25.385454689227593 -0.34719873068949736 0 0.69465837861970381 0.71933979245794832 2.5 0 0 1 I I #
point $-1 -50.496271793268207 30.155970807544769 4.592815210100011 #
edge $-1 $601 1 $601 0 $332 $-1 forward 7 unknown #
vertex $-1 $333 $602 #
ellipse-curve $-1 -38.833775462838851 25.385454689227593 -0.34719873068949736 0 0.69465837861970381 0.71933979245794832 2.5 0 0 1 I I #
point $-1 -36.333775462838851 30.155970807544769 4.592815210100011 #
loop $-1 $-1 $343 $336 #
plane-surface $-1 0 34.155796468371115 0 0 -1 0 0 0 -1 forward_v I I I I #
coedge $-1 $603 $604 $340 $483 forward $337 $-1 #
coedge $-1 $340 $339 $488 $605 reversed $135 $-1 #
edge $-1 $485 35.066154478312825 $606 46.18697860833668 $481 $607 forward 7 unknown #
coedge $-1 $346 $341 $604 $608 forward $215 $-1 #
vertex $-1 $608 $609 #
straight-curve $-1 27.408577682795062 26.156145146718416 8.4554020396386349 1 0 0 I I #
coedge $-1 $610 $343 $346 $492 reversed $479 $-1 #
coedge $-1 $343 $610 $482 $605 forward $479 $-1 #
vertex $-1 $344 $611 #
straight-curve $-1 38.294242980089209 34.155796468371115 75.409473915469775 0 0 1 I I #
straight-curve $-1 38.294242980089209 -14.983450617216889 48.183448770927953 0 0.71933979245794832 -0.69465837861970381 I I #
edge $-1 $612 -71.340067751091041 $347 -38.294242980089209 $487 $613 forward 7 unknown #
point $-1 38.294242980089209 34.155796468371115 8.4554020396386349 #
point $-1 38.294242980089209 26.156145146718409 8.4554020396386349 #
edge $-1 $614 1 $614 0 $350 $-1 forward 7 unknown #
vertex $-1 $351 $615 #
ellipse-curve $-1 47.735907200375451 25.385454689227593 -0.34719873068949736 0 0.69465837861970381 0.71933979245794832 2.5 0 0 1 I I #
point $-1 50.235907200375451 30.155970807544769 4.592815210100011 #
edge $-1 $616 1 $616 0 $354 $-1 forward 7 unknown #
vertex $-1 $355 $617 #
ellipse-curve $-1 61.898403530804799 25.385454689227593 -0.34719873068949736 0 0.69465837861970381 0.71933979245794832 2.5 0 0 1 I I #
point $-1 64.398403530804799 30.155970807544769 4.592815210100011 #
plane-surface $-1 0 0 8.4554020396386349 0 0 1 1 0 0 forward_v I I I I #
coedge $-1 $514 $513 $506 $618 forward $359 $-1 #
coedge $-1 $506 $361 $363 $510 reversed $237 $-1 #
coedge $-1 $361 $505 $504 $618 reversed $237 $-1 #
coedge $-1 $369 $364 $361 $508 forward $370 $-1 #
edge $-1 $511 -45.511767285729363 $619 -43.421910967140896 $507 $620 forward 7 unknown #
coedge $-1 $363 $362 $514 $621 reversed $149 $-1 #
edge $-1 $622 1.3557137071152151e-014 $511 3.9437259780072984 $505 $623 forward 7 unknown #
vertex $-1 $365 $624 #
straight-curve $-1 -6.1230776603841619 -32.065940149782648 8.4554020396386349 -1 0 0 I I #
coedge $-1 $504 $366 $369 $518 reversed $359 $-1 #
coedge $-1 $366 $504 $509 $621 forward $359 $-1 #
vertex $-1 $367 $625 #
straight-curve $-1 -0.1166420823097063 -34.155796468371115 40.359941658753996 0 0 1 I I #
straight-curve $-1 -0.1166420823097063 -34.155796468371122 5.1109327009743595 0 -0.52991925155115449 -0.84804810408105047 I I #
edge $-1 $619 -24.375668559226941 $371 -0.1166420823097063 $513 $626 forward 7 unknown #
point $-1 -0.1166420823097063 -34.155796468371115 8.4554020396386349 #
point $-1 -0.1166420823097063 -32.065940149782648 8.4554020396386349 #
edge $-1 $627 1 $627 0 $374 $-1 forward 7 unknown #
vertex $-1 $375 $628 #
ellipse-curve $-1 -17.44451813725059 -31.656903331656995 5.8746292474003265 0 -0.84804810408105047 0.52991925155115449 0.5 0 0 1 I I #
point $-1 -16.94451813725059 -33.110868309076878 6.7831673703064981 #
edge $-1 $629 1 $629 0 $378 $-1 forward 7 unknown #
vertex $-1 $379 $630 #
ellipse-curve $-1 -7.0477925042860647 -31.656903331656995 5.8746292474003265 0 -0.84804810408105047 0.52991925155115449 0.5 0 0 1 I I #
point $-1 -6.5477925042860647 -33.110868309076878 6.7831673703064981 #
plane-surface $-1 0 0 8.4554020396386349 0 0 1 1 0 0 forward_v I I I I #
coedge $-1 $540 $539 $532 $631 forward $383 $-1 #
coedge $-1 $532 $385 $387 $536 reversed $259 $-1 #
coedge $-1 $385 $531 $530 $631 reversed $259 $-1 #
coedge $-1 $393 $388 $385 $534 forward $394 $-1 #
edge $-1 $537 -45.511767285729363 $632 -43.421910967140896 $533 $633 forward 7 unknown #
coedge $-1 $387 $386 $540 $634 reversed $163 $-1 #
edge $-1 $635 1.3557137071152151e-014 $537 3.9437259780072984 $531 $636 forward 7 unknown #
vertex $-1 $389 $637 #
straight-curve $-1 27.321423280777211 -32.065940149782648 8.4554020396386349 -1 0 0 I I #
coedge $-1 $530 $390 $393 $544 reversed $383 $-1 #
coedge $-1 $390 $530 $535 $634 forward $383 $-1 #
vertex $-1 $391 $638 #
straight-curve $-1 66.772359800013035 -34.155796468371115 40.359941658753996 0 0 1 I I #
straight-curve $-1 66.772359800013035 -34.155796468371122 5.1109327009743595 0 -0.52991925155115449 -0.84804810408105047 I I #
edge $-1 $632 42.513333323095807 $395 66.772359800013035 $539 $639 forward 7 unknown #
point $-1 66.772359800013035 -34.155796468371115 8.4554020396386349 #
point $-1 66.772359800013035 -32.065940149782648 8.4554020396386349 #
edge $-1 $640 1 $640 0 $398 $-1 forward 7 unknown #
vertex $-1 $399 $641 #
ellipse-curve $-1 49.444483745072162 -31.656903331656995 5.8746292474003265 0 -0.84804810408105047 0.52991925155115449 0.5 0 0 1 I I #
point $-1 49.944483745072162 -33.110868309076878 6.7831673703064981 #
edge $-1 $642 1 $642 0 $402 $-1 forward 7 unknown #
vertex $-1 $403 $643 #
ellipse-curve $-1 59.84120937803668 -31.656903331656995 5.8746292474003265 0 -0.84804810408105047 0.52991925155115449 0.5 0 0 1 I I #
point $-1 60.34120937803668 -33.110868309076878 6.7831673703064981 #
plane-surface $-1 71.340067751091041 0 0 -1 0 0 0 0 1 forward_v I I I I #
coedge $-1 $411 $409 $413 $560 reversed $281 $-1 #
edge $-1 $424 -8.4554020396386349 $562 8.4554020396386349 $423 $644 forward 7 unknown #
vertex $-1 $560 $645 #
straight-curve $-1 -71.340067751091041 -34.155796468371115 0 0 0 -1 I I #
edge $-1 $558 -34.155796468371115 $562 34.155796468371115 $556 $646 forward 7 unknown #
straight-curve $-1 0 -34.155796468371115 -8.4554020396386349 -1 0 0 I I #
vertex $-1 $416 $647 #
straight-curve $-1 0 34.155796468371115 -8.4554020396386349 1 0 0 I I #
point $-1 71.340067751091041 34.155796468371115 -8.4554020396386349 #
point $-1 71.340067751091041 -34.155796468371115 -8.4554020396386349 #
straight-curve $-1 -71.340067751091041 0 8.4554020396386349 0 -1 0 I I #
point $-1 -71.340067751091041 34.155796468371115 8.4554020396386349 #
point $-1 -71.340067751091041 -34.155796468371115 8.4554020396386349 #
straight-curve $-1 71.340067751091041 -34.155796468371115 0 0 0 -1 I I #
straight-curve $-1 71.340067751091041 34.155796468371115 0 0 0 -1 I I #
plane-surface $-1 0 -34.155796468371115 0 0 1 0 0 0 1 forward_v I I I I #
coedge $-1 $648 $585 $437 $574 forward $434 $-1 #
coedge $-1 $575 $436 $445 $583 forward $300 $-1 #
edge $-1 $578 -1.6358843113586574 $576 1.6358843113586574 $437 $649 forward 7 unknown #
coedge $-1 $438 $573 $648 $650 forward $300 $-1 #
vertex $-1 $439 $651 #
straight-curve $-1 -75.791133619859338 34.155796468371115 -0.82899719222838941 1 0 0 I I #
vertex $-1 $440 $652 #
straight-curve $-1 -75.791133619859338 34.155796468371115 2.4427714304889254 -1 0 0 I I #
point $-1 -71.340067751091041 34.155796468371115 -0.82899719222838941 #
straight-curve $-1 -71.340067751091041 0 -0.82899719222838941 0 1 0 I I #
coedge $-1 $445 $444 $653 $654 forward $446 $-1 #
edge $-1 $447 -4.4510658687682962 $655 4.4510658687682962 $445 $656 forward 7 unknown #
point $-1 -71.340067751091041 -34.155796468371115 -0.82899719222838941 #
coedge $-1 $572 $653 $449 $586 reversed $434 $-1 #
edge $-1 $578 -34.155796468371115 $587 34.155796468371115 $585 $657 forward 7 unknown #
vertex $-1 $586 $658 #
straight-curve $-1 -75.791133619859338 -34.155796468371115 2.4427714304889254 1 0 0 I I #
coedge $-1 $464 $463 $456 $590 forward $453 $-1 #
edge $-1 $591 66.954071875831147 $594 74.679245534908389 $589 $659 forward 7 unknown #
vertex $-1 $468 $660 #
straight-curve $-1 -29.392111242552616 42.065250485984279 8.455402039638642 0 1 0 I I #
edge $-1 $594 6.4345994285258499 $465 39.480424199527683 $464 $661 forward 7 unknown #
vertex $-1 $593 $662 #
straight-curve $-1 -29.392111242552616 -14.983450617216889 48.183448770927953 0 -0.71933979245794832 0.69465837861970381 I I #
point $-1 -29.392111242552616 26.156145146718409 8.4554020396386349 #
point $-1 -62.437936013554449 34.155796468371115 0.73022838056138539 #
straight-curve $-1 0 34.155796468371115 8.4554020396386349 -1 0 0 I I #
vertex $-1 $471 $663 #
point $-1 -50.496271793268207 25.385454689227593 -0.34719873068949736 #
vertex $-1 $475 $664 #
point $-1 -36.333775462838851 25.385454689227593 -0.34719873068949736 #
coedge $-1 $604 $481 $610 $665 reversed $337 $-1 #
coedge $-1 $481 $603 $484 $608 reversed $337 $-1 #
edge $-1 $606 -43.931490068295979 $489 -10.885665297294146 $488 $666 forward 7 unknown #
vertex $-1 $483 $667 #
straight-curve $-1 71.340067751091041 0.93166486199050347 32.81440005397149 0 0.71933979245794832 -0.69465837861970381 I I #
edge $-1 $485 26.156145146718409 $612 34.155796468371115 $604 $668 forward 7 unknown #
point $-1 71.340067751091041 26.156145146718409 8.4554020396386349 #
coedge $-1 $488 $487 $603 $665 forward $479 $-1 #
point $-1 38.294242980089209 34.155796468371115 0.73022838056138539 #
vertex $-1 $608 $669 #
straight-curve $-1 0 34.155796468371115 8.4554020396386349 -1 0 0 I I #
vertex $-1 $495 $670 #
point $-1 50.235907200375451 25.385454689227593 -0.34719873068949736 #
vertex $-1 $499 $671 #
point $-1 64.398403530804799 25.385454689227593 -0.34719873068949736 #
edge $-1 $619 31.904539619115361 $622 35.249008957779623 $504 $672 forward 7 unknown #
vertex $-1 $518 $673 #
straight-curve $-1 -24.375668559226941 -77.577707435512011 8.4554020396386349 0 -1 0 I I #
edge $-1 $622 -18.252590898842779 $515 6.0064355780744556 $514 $674 forward 7 unknown #
vertex $-1 $621 $675 #
straight-curve $-1 -24.375668559226941 -34.155796468371122 5.1109327009743595 0 0.52991925155115449 0.84804810408105047 I I #
point $-1 -24.375668559226941 -32.065940149782648 8.4554020396386349 #
point $-1 -0.1166420823097063 -34.155796468371115 5.110932700974371 #
straight-curve $-1 0 -34.155796468371115 8.4554020396386349 1 0 0 I I #
vertex $-1 $521 $676 #
point $-1 -16.94451813725059 -31.656903331656995 5.8746292474003265 #
vertex $-1 $525 $677 #
point $-1 -6.5477925042860647 -31.656903331656995 5.8746292474003265 #
edge $-1 $632 31.904539619115361 $635 35.249008957779623 $530 $678 forward 7 unknown #
vertex $-1 $544 $679 #
straight-curve $-1 42.513333323095807 -77.577707435512011 8.4554020396386349 0 -1 0 I I #
edge $-1 $635 15.191910042318597 $541 39.450936519235825 $540 $680 forward 7 unknown #
vertex $-1 $634 $681 #
straight-curve $-1 42.513333323095807 -34.155796468371122 5.1109327009743595 0 0.52991925155115449 0.84804810408105047 I I #
point $-1 42.513333323095807 -32.065940149782648 8.4554020396386349 #
point $-1 66.772359800013035 -34.155796468371115 5.110932700974371 #
straight-curve $-1 0 -34.155796468371115 8.4554020396386349 1 0 0 I I #
vertex $-1 $547 $682 #
point $-1 49.944483745072162 -31.656903331656995 5.8746292474003265 #
vertex $-1 $551 $683 #
point $-1 60.34120937803668 -31.656903331656995 5.8746292474003265 #
straight-curve $-1 -71.340067751091041 34.155796468371115 0 0 0 -1 I I #
point $-1 -71.340067751091041 -34.155796468371115 -8.4554020396386349 #
straight-curve $-1 -71.340067751091041 0 -8.4554020396386349 0 1 0 I I #
point $-1 -71.340067751091041 34.155796468371115 -8.4554020396386349 #
coedge $-1 $653 $572 $575 $650 reversed $434 $-1 #
straight-curve $-1 -80.242199488627634 34.155796468371115 0.806887119130268 0 0 -1 I I #
edge $-1 $655 -34.155796468371115 $576 34.155796468371115 $648 $684 forward 7 unknown #
point $-1 -80.242199488627634 34.155796468371115 -0.82899719222838941 #
point $-1 -80.242199488627634 34.155796468371115 2.4427714304889254 #
coedge $-1 $585 $648 $582 $654 reversed $434 $-1 #
edge $-1 $587 -1.6358843113586574 $655 1.6358843113586574 $653 $685 forward 7 unknown #
vertex $-1 $650 $686 #
straight-curve $-1 -75.791133619859338 -34.155796468371115 -0.82899719222838941 -1 0 0 I I #
straight-curve $-1 -80.242199488627634 0 2.4427714304889254 0 -1 0 I I #
point $-1 -80.242199488627634 -34.155796468371115 2.4427714304889254 #
straight-curve $-1 -29.392111242552616 34.155796468371115 75.409473915469775 0 0 -1 I I #
point $-1 -29.392111242552616 34.155796468371115 8.4554020396386349 #
straight-curve $-1 -22.957511814026766 34.155796468371115 0.73022838056138539 -1 0 0 I I #
point $-1 -29.392111242552616 34.155796468371115 0.73022838056138539 #
point $-1 -52.996271793268207 23.648808742678334 -2.1455482118343681 #
point $-1 -38.833775462838851 23.648808742678334 -2.1455482118343681 #
edge $-1 $612 -8.4554020396386349 $606 -0.73022838056138539 $603 $687 forward 7 unknown #
straight-curve $-1 27.408577682795062 34.155796468371115 0.73022838056138539 -1 0 0 I I #
point $-1 71.340067751091041 34.155796468371115 0.73022838056138539 #
straight-curve $-1 71.340067751091041 0 8.4554020396386349 0 1 0 I I #
point $-1 71.340067751091041 34.155796468371115 8.4554020396386349 #
point $-1 47.735907200375451 23.648808742678334 -2.1455482118343681 #
point $-1 61.898403530804799 23.648808742678334 -2.1455482118343681 #
straight-curve $-1 -24.375668559226941 -34.155796468371115 40.359941658753996 0 0 -1 I I #
point $-1 -24.375668559226941 -34.155796468371115 8.4554020396386349 #
straight-curve $-1 -6.1230776603841619 -34.155796468371115 5.1109327009743728 1 0 0 I I #
point $-1 -24.375668559226941 -34.155796468371115 5.110932700974371 #
point $-1 -17.44451813725059 -31.232879279616466 5.6096696216247484 #
point $-1 -7.0477925042860647 -31.232879279616466 5.6096696216247484 #
straight-curve $-1 42.513333323095807 -34.155796468371115 40.359941658753996 0 0 -1 I I #
point $-1 42.513333323095807 -34.155796468371115 8.4554020396386349 #
straight-curve $-1 27.321423280777211 -34.155796468371115 5.1109327009743728 1 0 0 I I #
point $-1 42.513333323095807 -34.155796468371115 5.110932700974371 #
point $-1 49.444483745072162 -31.232879279616466 5.6096696216247484 #
point $-1 59.84120937803668 -31.232879279616466 5.6096696216247484 #
straight-curve $-1 -80.242199488627634 0 -0.82899719222838941 0 1 0 I I #
straight-curve $-1 -80.242199488627634 -34.155796468371115 0.806887119130268 0 0 -1 I I #
point $-1 -80.242199488627634 -34.155796468371115 -0.82899719222838941 #
straight-curve $-1 71.340067751091041 34.155796468371115 0 0 0 -1 I I #
End-of-ACIS-data 