500 0 7 0           
7 Unknown 11 ACIS 5.0 NT 24 Fri Mar 26 20:36:44 1999 
-1 9.9999999999999995e-007 1e-010 
body $-1 $7 $-1 $8 #
body $-1 $9 $-1 $10 #
body $-1 $11 $-1 $12 #
body $-1 $13 $-1 $14 #
body $-1 $15 $-1 $16 #
body $-1 $17 $-1 $18 #
body $-1 $19 $-1 $20 #
lump $-1 $-1 $21 $0 #
transform $-1 1 0 0 0 1 0 0 0 1 48.976104007080295 31.794186040742492 7.214360564944136 1 rotate no_reflect no_shear #
lump $-1 $-1 $22 $1 #
transform $-1 1 0 0 0 1 0 0 0 1 48.976104007080295 31.794186040742492 7.214360564944136 1 rotate no_reflect no_shear #
lump $-1 $-1 $23 $2 #
transform $-1 1 0 0 0 1 0 0 0 1 48.976104007080295 31.794186040742492 7.214360564944136 1 rotate no_reflect no_shear #
lump $-1 $-1 $24 $3 #
transform $-1 1 0 0 0 1 0 0 0 1 48.976104007080295 31.794186040742492 7.214360564944136 1 rotate no_reflect no_shear #
lump $-1 $-1 $25 $4 #
transform $-1 1 0 0 0 1 0 0 0 1 48.976104007080295 31.794186040742492 7.214360564944136 1 rotate no_reflect no_shear #
lump $-1 $-1 $26 $5 #
transform $-1 1 0 0 0 1 0 0 0 1 48.976104007080295 31.794186040742492 7.214360564944136 1 rotate no_reflect no_shear #
lump $-1 $-1 $27 $6 #
transform $-1 1 0 0 0 1 0 0 0 1 48.976104007080295 31.794186040742492 7.214360564944136 1 rotate no_reflect no_shear #
shell $-1 $-1 $-1 $28 $-1 $7 #
shell $-1 $-1 $-1 $29 $-1 $9 #
shell $-1 $-1 $-1 $30 $-1 $11 #
shell $-1 $-1 $-1 $31 $-1 $13 #
shell $-1 $-1 $-1 $32 $-1 $15 #
shell $-1 $-1 $-1 $33 $-1 $17 #
shell $-1 $-1 $-1 $34 $-1 $19 #
face $-1 $35 $36 $21 $-1 $37 forward single #
face $-1 $38 $39 $22 $-1 $40 forward single #
face $-1 $41 $42 $23 $-1 $43 reversed single #
face $-1 $44 $45 $24 $-1 $46 reversed single #
face $-1 $47 $48 $25 $-1 $49 forward single #
face $-1 $50 $51 $26 $-1 $52 forward single #
face $-1 $53 $54 $27 $-1 $55 forward single #
face $-1 $56 $57 $21 $-1 $58 reversed single #
loop $-1 $-1 $59 $28 #
plane-surface $-1 0 0 7.214360564944136 0 0 1 1 0 0 forward_v I I I I #
face $-1 $60 $61 $22 $-1 $62 reversed single #
loop $-1 $-1 $63 $29 #
plane-surface $-1 -44.973960216388136 0 -4.214360564944136 0 0 1 1 0 0 forward_v I I I I #
face $-1 $64 $65 $23 $-1 $66 reversed single #
loop $-1 $-1 $67 $30 #
plane-surface $-1 45.110264007963366 0 4.214360564944136 0 0 1 1 0 0 forward_v I I I I #
face $-1 $68 $69 $24 $-1 $70 reversed single #
loop $-1 $-1 $71 $31 #
plane-surface $-1 30.975485857217365 -31.794186040742503 1.5796617468381129 0 -0.68199836817093118 0.7313536940579346 1 0 0 forward_v I I I I #
face $-1 $72 $73 $25 $-1 $74 forward single #
loop $-1 $75 $76 $32 #
cone-surface $-1 24.814122966239921 -28.111404927768344 3.687592269500513 0 0.68199836817093118 -0.7313536940579346 1.5 0 0 1 I I 0 1 1.5 forward I I I I #
face $-1 $77 $78 $26 $-1 $79 forward single #
loop $-1 $80 $81 $33 #
cone-surface $-1 30.975485857217365 -28.111404927768344 3.687592269500513 0 0.68199836817093118 -0.7313536940579346 1.5 0 0 1 I I 0 1 1.5 forward I I I I #
face $-1 $82 $83 $27 $-1 $84 forward single #
loop $-1 $85 $86 $34 #
cone-surface $-1 37.136848748194808 -28.111404927768344 3.687592269500513 0 0.68199836817093118 -0.7313536940579346 1.5 0 0 1 I I 0 1 1.5 forward I I I I #
face $-1 $87 $88 $21 $-1 $89 reversed single #
loop $-1 $-1 $90 $35 #
plane-surface $-1 0 0 -7.214360564944136 0 0 1 1 0 0 forward_v I I I I #
coedge $-1 $91 $92 $93 $94 forward $36 $-1 #
face $-1 $95 $96 $22 $-1 $97 reversed single #
loop $-1 $-1 $98 $38 #
plane-surface $-1 -40.971816425695977 0 -5.714360564944136 -1 0 0 0 0 1 forward_v I I I I #
coedge $-1 $99 $100 $101 $102 forward $39 $-1 #
face $-1 $103 $104 $23 $-1 $105 reversed single #
loop $-1 $-1 $106 $41 #
plane-surface $-1 41.244424008846444 0 5.714360564944136 1 0 0 0 0 -1 forward_v I I I I #
coedge $-1 $107 $108 $109 $110 reversed $42 $-1 #
face $-1 $111 $112 $24 $-1 $113 forward single #
loop $-1 $-1 $114 $44 #
plane-surface $-1 20.706547705588285 -98.597432065139628 73.217370919125685 1 0 0 0 0.68199836817093118 -0.7313536940579346 forward_v I I I I #
coedge $-1 $115 $116 $117 $118 reversed $45 $-1 #
face $-1 $-1 $119 $25 $-1 $120 forward single #
loop $-1 $121 $122 $47 #
cone-surface $-1 24.814122966239921 -26.938362322985192 2.4296581125664583 0 0.68199836817093118 -0.7313536940579346 0.75 0 0 1 I I -0.70710678118654757 0.70710678118654757 0.75 forward I I I I #
loop $-1 $-1 $123 $32 #
coedge $-1 $76 $76 $124 $125 reversed $48 $-1 #
face $-1 $-1 $126 $26 $-1 $127 forward single #
loop $-1 $128 $129 $50 #
cone-surface $-1 30.975485857217365 -26.938362322985192 2.4296581125664583 0 0.68199836817093118 -0.7313536940579346 0.75 0 0 1 I I -0.70710678118654757 0.70710678118654757 0.75 forward I I I I #
loop $-1 $-1 $130 $33 #
coedge $-1 $81 $81 $131 $132 reversed $51 $-1 #
face $-1 $-1 $133 $27 $-1 $134 forward single #
loop $-1 $135 $136 $53 #
cone-surface $-1 37.136848748194808 -26.938362322985192 2.4296581125664583 0 0.68199836817093118 -0.7313536940579346 0.75 0 0 1 I I -0.70710678118654757 0.70710678118654757 0.75 forward I I I I #
loop $-1 $-1 $137 $34 #
coedge $-1 $86 $86 $138 $139 reversed $54 $-1 #
face $-1 $140 $141 $21 $-1 $142 reversed single #
loop $-1 $-1 $143 $56 #
plane-surface $-1 0 -31.794186040742492 0 0 1 0 0 0 1 forward_v I I I I #
coedge $-1 $144 $145 $146 $147 forward $57 $-1 #
coedge $-1 $148 $59 $149 $150 forward $36 $-1 #
coedge $-1 $59 $148 $151 $152 forward $36 $-1 #
coedge $-1 $153 $154 $59 $94 reversed $155 $-1 #
edge $-1 $156 -31.794186040742492 $157 31.794186040742492 $93 $158 forward 7 unknown #
face $-1 $159 $160 $22 $-1 $161 reversed single #
loop $-1 $-1 $162 $60 #
plane-surface $-1 0 0 -7.214360564944136 0 0 1 1 0 0 forward_v I I I I #
coedge $-1 $163 $101 $164 $165 reversed $61 $-1 #
coedge $-1 $166 $63 $167 $168 reversed $39 $-1 #
coedge $-1 $63 $166 $169 $170 reversed $39 $-1 #
coedge $-1 $98 $171 $63 $102 reversed $61 $-1 #
edge $-1 $172 -31.794186040742492 $173 31.794186040742492 $101 $174 forward 7 unknown #
face $-1 $175 $176 $23 $-1 $177 reversed single #
loop $-1 $-1 $109 $64 #
plane-surface $-1 48.976104007080295 0 0 -1 0 0 0 0 1 forward_v I I I I #
coedge $-1 $178 $179 $180 $181 reversed $65 $-1 #
coedge $-1 $182 $67 $183 $184 reversed $42 $-1 #
coedge $-1 $67 $182 $185 $186 reversed $42 $-1 #
coedge $-1 $187 $188 $67 $110 forward $104 $-1 #
edge $-1 $189 -31.794186040742492 $190 31.794186040742492 $109 $191 forward 7 unknown #
face $-1 $192 $193 $24 $-1 $194 forward single #
loop $-1 $-1 $195 $68 #
plane-surface $-1 41.244424008846444 0 5.714360564944136 1 0 0 0 0 -1 forward_v I I I I #
coedge $-1 $196 $197 $198 $199 reversed $69 $-1 #
coedge $-1 $200 $71 $195 $201 reversed $45 $-1 #
coedge $-1 $71 $200 $196 $202 forward $45 $-1 #
coedge $-1 $198 $203 $71 $118 forward $193 $-1 #
edge $-1 $204 -25.756681080237762 $205 -5.2188047769796029 $117 $206 forward 7 unknown #
loop $-1 $-1 $124 $72 #
plane-surface $-1 30.975485857217365 -31.794186040742503 1.5796617468381129 0 -0.68199836817093118 0.7313536940579346 1 0 0 forward_v I I I I #
loop $-1 $-1 $207 $47 #
coedge $-1 $122 $122 $123 $208 reversed $73 $-1 #
coedge $-1 $123 $123 $122 $208 forward $75 $-1 #
coedge $-1 $124 $124 $76 $125 forward $119 $-1 #
edge $-1 $209 -1.2646059382128307e-015 $209 6.2831853071795996 $124 $210 forward 7 unknown #
loop $-1 $-1 $131 $77 #
plane-surface $-1 30.975485857217365 -31.794186040742503 1.5796617468381129 0 -0.68199836817093118 0.7313536940579346 1 0 0 forward_v I I I I #
loop $-1 $-1 $211 $50 #
coedge $-1 $129 $129 $130 $212 reversed $78 $-1 #
coedge $-1 $130 $130 $129 $212 forward $80 $-1 #
coedge $-1 $131 $131 $81 $132 forward $126 $-1 #
edge $-1 $213 -1.2646059382128307e-015 $213 6.2831853071795996 $131 $214 forward 7 unknown #
loop $-1 $-1 $138 $82 #
plane-surface $-1 30.975485857217365 -31.794186040742503 1.5796617468381129 0 -0.68199836817093118 0.7313536940579346 1 0 0 forward_v I I I I #
loop $-1 $-1 $215 $53 #
coedge $-1 $136 $136 $137 $216 reversed $83 $-1 #
coedge $-1 $137 $137 $136 $216 forward $85 $-1 #
coedge $-1 $138 $138 $86 $139 forward $133 $-1 #
edge $-1 $217 -1.2646059382128307e-015 $217 6.2831853071795996 $138 $218 forward 7 unknown #
face $-1 $219 $220 $21 $-1 $221 reversed single #
loop $-1 $-1 $222 $87 #
plane-surface $-1 -48.976104007080295 0 0 1 0 0 0 0 -1 forward_v I I I I #
coedge $-1 $223 $151 $224 $225 forward $88 $-1 #
coedge $-1 $226 $90 $223 $227 forward $57 $-1 #
coedge $-1 $90 $226 $228 $229 forward $57 $-1 #
coedge $-1 $154 $153 $90 $147 reversed $155 $-1 #
edge $-1 $230 -31.794186040742492 $231 31.794186040742492 $146 $232 forward 7 unknown #
coedge $-1 $92 $91 $233 $234 forward $36 $-1 #
coedge $-1 $235 $236 $91 $150 reversed $220 $-1 #
edge $-1 $157 -48.976104007080295 $237 48.976104007080295 $149 $238 forward 7 unknown #
coedge $-1 $143 $239 $92 $152 reversed $88 $-1 #
edge $-1 $240 -48.976104007080295 $156 48.976104007080295 $151 $241 forward 7 unknown #
coedge $-1 $146 $93 $239 $242 forward $155 $-1 #
coedge $-1 $93 $146 $235 $243 reversed $155 $-1 #
loop $-1 $-1 $153 $219 #
vertex $-1 $94 $244 #
vertex $-1 $94 $245 #
straight-curve $-1 48.976104007080295 0 7.214360564944136 0 1 0 I I #
face $-1 $246 $247 $22 $-1 $248 reversed single #
loop $-1 $-1 $164 $95 #
plane-surface $-1 0 -31.794186040742492 0 0 1 0 0 0 1 forward_v I I I I #
coedge $-1 $249 $250 $163 $251 forward $96 $-1 #
coedge $-1 $171 $98 $162 $251 reversed $61 $-1 #
coedge $-1 $169 $252 $98 $165 forward $160 $-1 #
edge $-1 $253 -4.3571802824720685 $172 -1.357180282472068 $164 $254 forward 7 unknown #
coedge $-1 $100 $99 $255 $256 reversed $39 $-1 #
coedge $-1 $257 $258 $99 $168 forward $259 $-1 #
edge $-1 $260 -26.489123898886227 $173 -18.484836317501909 $167 $261 forward 7 unknown #
coedge $-1 $262 $164 $100 $170 forward $160 $-1 #
edge $-1 $172 18.484836317501909 $263 26.489123898886227 $169 $264 forward 7 unknown #
coedge $-1 $101 $163 $257 $265 reversed $61 $-1 #
vertex $-1 $170 $266 #
vertex $-1 $168 $267 #
straight-curve $-1 -40.971816425695977 0 -4.214360564944136 0 1 0 I I #
face $-1 $268 $269 $23 $-1 $270 reversed single #
loop $-1 $-1 $185 $103 #
plane-surface $-1 0 31.794186040742492 0 0 -1 0 0 0 -1 forward_v I I I I #
coedge $-1 $271 $106 $272 $273 reversed $65 $-1 #
coedge $-1 $106 $271 $274 $275 reversed $65 $-1 #
coedge $-1 $276 $277 $106 $181 forward $278 $-1 #
edge $-1 $279 -31.794186040742492 $280 31.794186040742492 $180 $281 forward 7 unknown #
coedge $-1 $108 $107 $271 $282 forward $42 $-1 #
coedge $-1 $283 $274 $107 $184 forward $269 $-1 #
edge $-1 $284 18.689292004864761 $189 26.420972003098605 $183 $285 forward 7 unknown #
coedge $-1 $272 $286 $108 $186 forward $176 $-1 #
edge $-1 $190 -26.420972003098605 $287 -18.689292004864761 $185 $288 forward 7 unknown #
coedge $-1 $289 $109 $286 $290 reversed $104 $-1 #
coedge $-1 $109 $289 $283 $291 forward $104 $-1 #
vertex $-1 $110 $292 #
vertex $-1 $110 $293 #
straight-curve $-1 48.976104007080295 0 4.214360564944136 0 1 0 I I #
face $-1 $-1 $294 $24 $-1 $295 reversed single #
loop $-1 $-1 $117 $111 #
plane-surface $-1 0 0 7.214360564944136 0 0 1 1 0 0 forward_v I I I I #
coedge $-1 $296 $297 $115 $201 forward $112 $-1 #
coedge $-1 $197 $114 $116 $202 reversed $69 $-1 #
coedge $-1 $114 $196 $298 $299 reversed $69 $-1 #
coedge $-1 $300 $117 $114 $199 forward $193 $-1 #
edge $-1 $205 -23.54700456046568 $301 -17.504529991827322 $198 $302 forward 7 unknown #
coedge $-1 $116 $115 $303 $304 reversed $45 $-1 #
edge $-1 $305 -13.036326628644403 $204 -4.7742851325366384 $195 $306 forward 7 unknown #
edge $-1 $307 1.4609403438664074e-014 $205 8.2620414961077788 $196 $308 forward 7 unknown #
coedge $-1 $117 $300 $296 $309 forward $193 $-1 #
vertex $-1 $201 $310 #
vertex $-1 $118 $311 #
straight-curve $-1 15.487742928608682 -25.751711472104134 7.2143605649441351 -1 0 0 I I #
coedge $-1 $207 $207 $-1 $312 reversed $121 $-1 #
edge $-1 $313 0 $313 6.2831853071796004 $122 $314 forward 7 unknown #
vertex $-1 $125 $315 #
ellipse-curve $-1 24.814122966239921 -28.772948756423311 4.3970111558911302 0 -0.68199836817093118 0.7313536940579346 1.5 0 0 1 I I #
coedge $-1 $211 $211 $-1 $316 reversed $128 $-1 #
edge $-1 $317 0 $317 6.2831853071796004 $129 $318 forward 7 unknown #
vertex $-1 $132 $319 #
ellipse-curve $-1 30.975485857217365 -28.772948756423311 4.3970111558911302 0 -0.68199836817093118 0.7313536940579346 1.5 0 0 1 I I #
coedge $-1 $215 $215 $-1 $320 reversed $135 $-1 #
edge $-1 $321 0 $321 6.2831853071796004 $136 $322 forward 7 unknown #
vertex $-1 $139 $323 #
ellipse-curve $-1 37.136848748194808 -28.772948756423311 4.3970111558911302 0 -0.68199836817093118 0.7313536940579346 1.5 0 0 1 I I #
face $-1 $-1 $155 $21 $-1 $324 reversed single #
loop $-1 $-1 $235 $140 #
plane-surface $-1 0 31.794186040742492 0 0 -1 0 0 0 -1 forward_v I I I I #
coedge $-1 $325 $233 $236 $326 forward $141 $-1 #
coedge $-1 $239 $143 $144 $227 reversed $88 $-1 #
coedge $-1 $233 $325 $143 $225 reversed $141 $-1 #
edge $-1 $240 -7.214360564944136 $327 7.214360564944136 $224 $328 forward 7 unknown #
coedge $-1 $145 $144 $325 $329 forward $57 $-1 #
edge $-1 $231 -48.976104007080295 $327 48.976104007080295 $223 $330 forward 7 unknown #
coedge $-1 $236 $235 $145 $229 reversed $220 $-1 #
edge $-1 $331 -48.976104007080295 $230 48.976104007080295 $228 $332 forward 7 unknown #
vertex $-1 $147 $333 #
vertex $-1 $242 $334 #
straight-curve $-1 48.976104007080295 0 -7.214360564944136 0 -1 0 I I #
coedge $-1 $222 $224 $148 $234 reversed $141 $-1 #
edge $-1 $237 -31.794186040742492 $240 31.794186040742492 $233 $335 forward 7 unknown #
coedge $-1 $228 $149 $154 $243 forward $220 $-1 #
coedge $-1 $149 $228 $222 $326 reversed $220 $-1 #
vertex $-1 $150 $336 #
straight-curve $-1 0 31.794186040742492 7.214360564944136 -1 0 0 I I #
coedge $-1 $151 $223 $153 $242 reversed $88 $-1 #
vertex $-1 $234 $337 #
straight-curve $-1 0 -31.794186040742492 7.214360564944136 1 0 0 I I #
edge $-1 $156 -7.214360564944136 $231 7.214360564944136 $153 $338 forward 7 unknown #
edge $-1 $157 -7.214360564944136 $230 7.214360564944136 $154 $339 forward 7 unknown #
point $-1 48.976104007080295 -31.794186040742492 7.214360564944136 #
point $-1 48.976104007080295 31.794186040742492 7.214360564944136 #
face $-1 $-1 $259 $22 $-1 $340 reversed single #
loop $-1 $-1 $255 $159 #
plane-surface $-1 -48.976104007080295 0 0 1 0 0 0 0 -1 forward_v I I I I #
coedge $-1 $341 $162 $252 $342 forward $96 $-1 #
coedge $-1 $162 $341 $343 $344 forward $96 $-1 #
edge $-1 $345 -31.794186040742492 $253 31.794186040742492 $162 $346 forward 7 unknown #
coedge $-1 $164 $262 $249 $342 reversed $160 $-1 #
vertex $-1 $342 $347 #
straight-curve $-1 -40.971816425695977 -31.794186040742492 -2.857180282472068 0 0 1 I I #
coedge $-1 $348 $349 $166 $256 forward $247 $-1 #
edge $-1 $263 -31.794186040742492 $260 31.794186040742492 $255 $350 forward 7 unknown #
coedge $-1 $343 $167 $171 $265 forward $259 $-1 #
coedge $-1 $167 $343 $348 $351 reversed $259 $-1 #
loop $-1 $-1 $257 $246 #
vertex $-1 $351 $352 #
straight-curve $-1 -22.486980108194068 31.794186040742492 -4.214360564944136 1 0 0 I I #
coedge $-1 $252 $169 $349 $353 forward $160 $-1 #
vertex $-1 $353 $354 #
straight-curve $-1 -22.486980108194068 -31.794186040742492 -4.214360564944136 -1 0 0 I I #
edge $-1 $173 1.357180282472068 $345 4.3571802824720685 $257 $355 forward 7 unknown #
point $-1 -40.971816425695977 -31.794186040742492 -4.214360564944136 #
point $-1 -40.971816425695977 31.794186040742492 -4.214360564944136 #
face $-1 $-1 $278 $23 $-1 $356 forward single #
loop $-1 $-1 $183 $175 #
plane-surface $-1 0 -31.794186040742492 0 0 1 0 0 0 1 forward_v I I I I #
coedge $-1 $179 $178 $182 $282 reversed $65 $-1 #
coedge $-1 $357 $185 $178 $273 forward $176 $-1 #
edge $-1 $287 1.357180282472068 $279 4.3571802824720685 $272 $358 forward 7 unknown #
coedge $-1 $183 $359 $179 $275 forward $269 $-1 #
edge $-1 $280 -4.3571802824720685 $284 -1.357180282472068 $274 $360 forward 7 unknown #
coedge $-1 $361 $180 $359 $362 forward $278 $-1 #
coedge $-1 $180 $361 $357 $363 forward $278 $-1 #
loop $-1 $-1 $180 $268 #
vertex $-1 $273 $364 #
vertex $-1 $362 $365 #
straight-curve $-1 41.244424008846444 0 7.214360564944136 0 -1 0 I I #
edge $-1 $284 -31.794186040742492 $287 31.794186040742492 $271 $366 forward 7 unknown #
coedge $-1 $359 $183 $188 $291 reversed $269 $-1 #
vertex $-1 $184 $367 #
straight-curve $-1 22.555132003981683 -31.794186040742492 4.214360564944136 1 0 0 I I #
coedge $-1 $185 $357 $187 $290 forward $176 $-1 #
vertex $-1 $186 $368 #
straight-curve $-1 22.555132003981683 31.794186040742492 4.214360564944136 -1 0 0 I I #
coedge $-1 $188 $187 $361 $369 reversed $104 $-1 #
edge $-1 $370 -7.214360564944136 $190 -4.214360564944136 $187 $371 forward 7 unknown #
edge $-1 $372 -7.214360564944136 $189 -4.214360564944136 $188 $373 forward 7 unknown #
point $-1 48.976104007080288 -31.794186040742492 4.214360564944136 #
point $-1 48.976104007080288 31.794186040742492 4.214360564944136 #
loop $-1 $-1 $374 $192 #
plane-surface $-1 0 -31.794186040742492 0 0 1 0 0 0 1 forward_v I I I I #
coedge $-1 $297 $195 $203 $309 reversed $112 $-1 #
coedge $-1 $195 $296 $374 $375 reversed $112 $-1 #
coedge $-1 $303 $376 $197 $299 forward $294 $-1 #
edge $-1 $301 29.394324894618705 $307 35.029023712724722 $298 $377 forward 7 unknown #
coedge $-1 $203 $198 $376 $378 forward $193 $-1 #
vertex $-1 $378 $379 #
straight-curve $-1 20.706547705588285 -49.298716032569814 7.2143605649441369 0 -1 0 I I #
coedge $-1 $374 $298 $200 $304 forward $294 $-1 #
edge $-1 $307 5.2188047769796029 $305 25.756681080237762 $303 $380 forward 7 unknown #
vertex $-1 $375 $381 #
straight-curve $-1 41.244424008846444 -22.260020403937588 10.470415234516862 0 0.7313536940579346 0.68199836817093118 I I #
vertex $-1 $304 $382 #
straight-curve $-1 20.706547705588285 -31.794186040742503 1.5796617468381129 0 0.7313536940579346 0.68199836817093118 I I #
edge $-1 $383 -31.794186040742492 $204 -25.751711472104134 $203 $384 forward 7 unknown #
point $-1 41.244424008846444 -25.751711472104134 7.214360564944136 #
point $-1 20.706547705588285 -25.751711472104134 7.214360564944136 #
edge $-1 $385 1 $385 0 $207 $-1 forward 7 unknown #
vertex $-1 $208 $386 #
ellipse-curve $-1 24.814122966239921 -27.449861099113392 2.9781733831099091 0 -0.68199836817093118 0.7313536940579346 1.5 0 0 1 I I #
point $-1 26.314122966239921 -28.7729487564233 4.397011155891116 #
edge $-1 $387 1 $387 0 $211 $-1 forward 7 unknown #
vertex $-1 $212 $388 #
ellipse-curve $-1 30.975485857217365 -27.449861099113392 2.9781733831099091 0 -0.68199836817093118 0.7313536940579346 1.5 0 0 1 I I #
point $-1 32.475485857217365 -28.7729487564233 4.397011155891116 #
edge $-1 $389 1 $389 0 $215 $-1 forward 7 unknown #
vertex $-1 $216 $390 #
ellipse-curve $-1 37.136848748194808 -27.449861099113392 2.9781733831099091 0 -0.68199836817093118 0.7313536940579346 1.5 0 0 1 I I #
point $-1 38.636848748194808 -28.7729487564233 4.397011155891116 #
plane-surface $-1 48.976104007080295 0 0 -1 0 0 0 0 1 forward_v I I I I #
coedge $-1 $224 $222 $226 $329 reversed $141 $-1 #
edge $-1 $237 -7.214360564944136 $331 7.214360564944136 $236 $391 forward 7 unknown #
vertex $-1 $329 $392 #
straight-curve $-1 -48.976104007080295 -31.794186040742492 0 0 0 -1 I I #
edge $-1 $327 -31.794186040742492 $331 31.794186040742492 $325 $393 forward 7 unknown #
straight-curve $-1 0 -31.794186040742492 -7.214360564944136 -1 0 0 I I #
vertex $-1 $229 $394 #
straight-curve $-1 0 31.794186040742492 -7.214360564944136 1 0 0 I I #
point $-1 48.976104007080295 31.794186040742492 -7.214360564944136 #
point $-1 48.976104007080295 -31.794186040742492 -7.214360564944136 #
straight-curve $-1 -48.976104007080295 0 7.214360564944136 0 -1 0 I I #
point $-1 -48.976104007080295 31.794186040742492 7.214360564944136 #
point $-1 -48.976104007080295 -31.794186040742492 7.214360564944136 #
straight-curve $-1 48.976104007080295 -31.794186040742492 0 0 0 -1 I I #
straight-curve $-1 48.976104007080295 31.794186040742492 0 0 0 -1 I I #
plane-surface $-1 0 31.794186040742492 0 0 -1 0 0 0 -1 forward_v I I I I #
coedge $-1 $250 $249 $395 $396 forward $96 $-1 #
edge $-1 $253 40.971816425695977 $397 48.976104007080295 $252 $398 forward 7 unknown #
coedge $-1 $258 $257 $250 $344 reversed $259 $-1 #
edge $-1 $399 -48.976104007080295 $345 -40.971816425695977 $343 $400 forward 7 unknown #
vertex $-1 $265 $401 #
straight-curve $-1 -40.971816425695977 0 -7.214360564944136 0 -1 0 I I #
point $-1 -40.971816425695977 -31.794186040742492 -7.214360564944136 #
coedge $-1 $395 $255 $258 $351 forward $247 $-1 #
coedge $-1 $255 $395 $262 $353 reversed $247 $-1 #
straight-curve $-1 -48.976104007080295 0 -4.214360564944136 0 1 0 I I #
edge $-1 $260 4.214360564944136 $399 7.214360564944136 $258 $402 forward 7 unknown #
point $-1 -48.976104007080295 31.794186040742492 -4.214360564944136 #
edge $-1 $263 4.214360564944136 $397 7.214360564944136 $349 $403 forward 7 unknown #
point $-1 -48.976104007080295 -31.794186040742492 -4.214360564944136 #
straight-curve $-1 -40.971816425695977 31.794186040742492 -2.857180282472068 0 0 -1 I I #
plane-surface $-1 0 0 7.214360564944136 0 0 1 1 0 0 forward_v I I I I #
coedge $-1 $286 $272 $277 $363 reversed $176 $-1 #
straight-curve $-1 41.244424008846444 31.794186040742492 2.857180282472068 0 0 1 I I #
coedge $-1 $274 $283 $276 $362 reversed $269 $-1 #
straight-curve $-1 41.244424008846444 -31.794186040742492 2.857180282472068 0 0 -1 I I #
coedge $-1 $277 $276 $289 $369 forward $278 $-1 #
edge $-1 $280 41.244424008846444 $372 48.976104007080295 $359 $404 forward 7 unknown #
edge $-1 $370 -48.976104007080295 $279 -41.244424008846444 $357 $405 forward 7 unknown #
point $-1 41.244424008846444 31.794186040742492 7.214360564944136 #
point $-1 41.244424008846444 -31.794186040742492 7.214360564944136 #
straight-curve $-1 41.244424008846444 0 4.214360564944136 0 1 0 I I #
point $-1 41.244424008846444 -31.794186040742492 4.214360564944136 #
point $-1 41.244424008846444 31.794186040742492 4.214360564944136 #
edge $-1 $372 -31.794186040742492 $370 31.794186040742492 $289 $406 forward 7 unknown #
vertex $-1 $369 $407 #
straight-curve $-1 48.976104007080295 31.794186040742492 0 0 0 -1 I I #
vertex $-1 $369 $408 #
straight-curve $-1 48.976104007080295 -31.794186040742492 0 0 0 -1 I I #
coedge $-1 $376 $303 $297 $375 forward $294 $-1 #
edge $-1 $305 -35.029023712724722 $383 -29.394324894618705 $374 $409 forward 7 unknown #
coedge $-1 $298 $374 $300 $378 reversed $294 $-1 #
straight-curve $-1 20.706547705588285 -31.794186040742488 36.608685459562842 0 0 -1 I I #
edge $-1 $301 20.706547705588285 $383 41.244424008846444 $376 $410 forward 7 unknown #
point $-1 20.706547705588285 -31.794186040742492 7.214360564944136 #
straight-curve $-1 15.487742928608682 -31.794186040742492 1.5796617468381189 1 0 0 I I #
point $-1 41.244424008846444 -31.794186040742492 1.5796617468381229 #
point $-1 20.706547705588285 -31.794186040742492 1.5796617468381229 #
vertex $-1 $309 $411 #
straight-curve $-1 41.244424008846444 0 7.214360564944136 0 1 0 I I #
vertex $-1 $312 $412 #
point $-1 26.314122966239921 -27.449861099113392 2.9781733831099091 #
vertex $-1 $316 $413 #
point $-1 32.475485857217365 -27.449861099113392 2.9781733831099091 #
vertex $-1 $320 $414 #
point $-1 38.636848748194808 -27.449861099113392 2.9781733831099091 #
straight-curve $-1 -48.976104007080295 31.794186040742492 0 0 0 -1 I I #
point $-1 -48.976104007080295 -31.794186040742492 -7.214360564944136 #
straight-curve $-1 -48.976104007080295 0 -7.214360564944136 0 1 0 I I #
point $-1 -48.976104007080295 31.794186040742492 -7.214360564944136 #
coedge $-1 $349 $348 $341 $396 reversed $247 $-1 #
edge $-1 $397 -31.794186040742492 $399 31.794186040742492 $395 $415 forward 7 unknown #
vertex $-1 $396 $416 #
straight-curve $-1 0 -31.794186040742492 -7.214360564944136 -1 0 0 I I #
vertex $-1 $344 $417 #
straight-curve $-1 0 31.794186040742492 -7.214360564944136 1 0 0 I I #
point $-1 -40.971816425695977 31.794186040742492 -7.214360564944136 #
straight-curve $-1 -48.976104007080295 31.794186040742492 0 0 0 -1 I I #
straight-curve $-1 -48.976104007080295 -31.794186040742492 0 0 0 -1 I I #
straight-curve $-1 0 -31.794186040742492 7.214360564944136 1 0 0 I I #
straight-curve $-1 0 31.794186040742492 7.214360564944136 -1 0 0 I I #
straight-curve $-1 48.976104007080295 0 7.214360564944136 0 1 0 I I #
point $-1 48.976104007080295 31.794186040742492 7.214360564944136 #
point $-1 48.976104007080295 -31.794186040742492 7.214360564944136 #
straight-curve $-1 41.244424008846444 -31.794186040742488 36.608685459562842 0 0 1 I I #
straight-curve $-1 0 -31.794186040742492 7.214360564944136 1 0 0 I I #
point $-1 41.244424008846444 -31.794186040742492 7.214360564944136 #
point $-1 24.814122966239921 -26.426863546856993 1.8811428420230074 #
point $-1 30.975485857217365 -26.426863546856993 1.8811428420230074 #
point $-1 37.136848748194808 -26.426863546856993 1.8811428420230074 #
straight-curve $-1 -48.976104007080295 0 -7.214360564944136 0 1 0 I I #
point $-1 -48.976104007080295 -31.794186040742492 -7.214360564944136 #
point $-1 -48.976104007080295 31.794186040742492 -7.214360564944136 #
End-of-ACIS-data 