500 0 18 0           
7 Unknown 11 ACIS 5.0 NT 24 Fri Mar 26 15:32:37 1999 
-1 9.9999999999999995e-007 1e-010 
body $-1 $18 $-1 $19 #
body $-1 $20 $-1 $21 #
body $-1 $22 $-1 $23 #
body $-1 $24 $-1 $25 #
body $-1 $26 $-1 $27 #
body $-1 $28 $-1 $29 #
body $-1 $30 $-1 $31 #
body $-1 $32 $-1 $33 #
body $-1 $34 $-1 $35 #
body $-1 $36 $-1 $37 #
body $-1 $38 $-1 $39 #
body $-1 $40 $-1 $41 #
body $-1 $42 $-1 $43 #
body $-1 $44 $-1 $45 #
body $-1 $46 $-1 $47 #
body $-1 $48 $-1 $49 #
body $-1 $50 $-1 $51 #
body $-1 $52 $-1 $53 #
lump $-1 $-1 $54 $0 #
transform $-1 1 0 0 0 1 0 0 0 1 66.220282601397741 29.234576374257621 8.3872640803699952 1 rotate no_reflect no_shear #
lump $-1 $-1 $55 $1 #
transform $-1 1 0 0 0 1 0 0 0 1 66.220282601397741 29.234576374257621 8.3872640803699952 1 rotate no_reflect no_shear #
lump $-1 $-1 $56 $2 #
transform $-1 1 0 0 0 1 0 0 0 1 66.220282601397741 29.234576374257621 8.3872640803699952 1 rotate no_reflect no_shear #
lump $-1 $-1 $57 $3 #
transform $-1 1 0 0 0 1 0 0 0 1 66.220282601397741 29.234576374257621 8.3872640803699952 1 rotate no_reflect no_shear #
lump $-1 $-1 $58 $4 #
transform $-1 1 0 0 0 1 0 0 0 1 66.220282601397741 29.234576374257621 8.3872640803699952 1 rotate no_reflect no_shear #
lump $-1 $-1 $59 $5 #
transform $-1 1 0 0 0 1 0 0 0 1 66.220282601397741 29.234576374257621 8.3872640803699952 1 rotate no_reflect no_shear #
lump $-1 $-1 $60 $6 #
transform $-1 1 0 0 0 1 0 0 0 1 66.220282601397741 29.234576374257621 8.3872640803699952 1 rotate no_reflect no_shear #
lump $-1 $-1 $61 $7 #
transform $-1 1 0 0 0 1 0 0 0 1 66.220282601397741 29.234576374257621 8.3872640803699952 1 rotate no_reflect no_shear #
lump $-1 $-1 $62 $8 #
transform $-1 1 0 0 0 1 0 0 0 1 66.220282601397741 29.234576374257621 8.3872640803699952 1 rotate no_reflect no_shear #
lump $-1 $-1 $63 $9 #
transform $-1 1 0 0 0 1 0 0 0 1 66.220282601397741 29.234576374257621 8.3872640803699952 1 rotate no_reflect no_shear #
lump $-1 $-1 $64 $10 #
transform $-1 1 0 0 0 1 0 0 0 1 66.220282601397741 29.234576374257621 8.3872640803699952 1 rotate no_reflect no_shear #
lump $-1 $-1 $65 $11 #
transform $-1 1 0 0 0 1 0 0 0 1 66.220282601397741 29.234576374257621 8.3872640803699952 1 rotate no_reflect no_shear #
lump $-1 $-1 $66 $12 #
transform $-1 1 0 0 0 1 0 0 0 1 66.220282601397741 29.234576374257621 8.3872640803699952 1 rotate no_reflect no_shear #
lump $-1 $-1 $67 $13 #
transform $-1 1 0 0 0 1 0 0 0 1 66.220282601397741 29.234576374257621 8.3872640803699952 1 rotate no_reflect no_shear #
lump $-1 $-1 $68 $14 #
transform $-1 1 0 0 0 1 0 0 0 1 66.220282601397741 29.234576374257621 8.3872640803699952 1 rotate no_reflect no_shear #
lump $-1 $-1 $69 $15 #
transform $-1 1 0 0 0 1 0 0 0 1 66.220282601397741 29.234576374257621 8.3872640803699952 1 rotate no_reflect no_shear #
lump $-1 $-1 $70 $16 #
transform $-1 1 0 0 0 1 0 0 0 1 66.220282601397741 29.234576374257621 8.3872640803699952 1 rotate no_reflect no_shear #
lump $-1 $-1 $71 $17 #
transform $-1 1 0 0 0 1 0 0 0 1 66.220282601397741 29.234576374257621 8.3872640803699952 1 rotate no_reflect no_shear #
shell $-1 $-1 $-1 $72 $-1 $18 #
shell $-1 $-1 $-1 $73 $-1 $20 #
shell $-1 $-1 $-1 $74 $-1 $22 #
shell $-1 $-1 $-1 $75 $-1 $24 #
shell $-1 $-1 $-1 $76 $-1 $26 #
shell $-1 $-1 $-1 $77 $-1 $28 #
shell $-1 $-1 $-1 $78 $-1 $30 #
shell $-1 $-1 $-1 $79 $-1 $32 #
shell $-1 $-1 $-1 $80 $-1 $34 #
shell $-1 $-1 $-1 $81 $-1 $36 #
shell $-1 $-1 $-1 $82 $-1 $38 #
shell $-1 $-1 $-1 $83 $-1 $40 #
shell $-1 $-1 $-1 $84 $-1 $42 #
shell $-1 $-1 $-1 $85 $-1 $44 #
shell $-1 $-1 $-1 $86 $-1 $46 #
shell $-1 $-1 $-1 $87 $-1 $48 #
shell $-1 $-1 $-1 $88 $-1 $50 #
shell $-1 $-1 $-1 $89 $-1 $52 #
face $-1 $90 $91 $54 $-1 $92 forward single #
face $-1 $93 $94 $55 $-1 $95 reversed single #
face $-1 $96 $97 $56 $-1 $98 reversed single #
face $-1 $99 $100 $57 $-1 $101 forward single #
face $-1 $102 $103 $58 $-1 $104 forward single #
face $-1 $105 $106 $59 $-1 $107 forward single #
face $-1 $108 $109 $60 $-1 $110 reversed single #
face $-1 $111 $112 $61 $-1 $113 forward single #
face $-1 $114 $115 $62 $-1 $116 forward single #
face $-1 $117 $118 $63 $-1 $119 forward single #
face $-1 $120 $121 $64 $-1 $122 reversed single #
face $-1 $123 $124 $65 $-1 $125 forward single #
face $-1 $126 $127 $66 $-1 $128 forward single #
face $-1 $129 $130 $67 $-1 $131 forward single #
face $-1 $132 $133 $68 $-1 $134 reversed single #
face $-1 $135 $136 $69 $-1 $137 forward single #
face $-1 $138 $139 $70 $-1 $140 forward single #
face $-1 $141 $142 $71 $-1 $143 forward single #
face $-1 $144 $145 $54 $-1 $146 reversed single #
loop $-1 $-1 $147 $72 #
plane-surface $-1 0 0 8.3872640803699952 0 0 1 1 0 0 forward_v I I I I #
face $-1 $148 $149 $55 $-1 $150 reversed single #
loop $-1 $-1 $151 $73 #
plane-surface $-1 -62.83983148277796 -15.713846960331416 0 0 1 0 0 0 1 forward_v I I I I #
face $-1 $152 $153 $56 $-1 $154 reversed single #
loop $-1 $-1 $155 $74 #
plane-surface $-1 -38.476025876544632 99.81870192820395 130.96431932863456 1 0 0 0 -0.79863551827123203 -0.60181501223851219 forward_v I I I I #
face $-1 $156 $157 $57 $-1 $158 forward single #
loop $-1 $159 $160 $75 #
cone-surface $-1 -33.818165043732911 26.701040783628695 5.6519965348499763 0 -0.79863551827123203 -0.60181501223851219 1 0 0 1 I I 0 1 1 forward I I I I #
face $-1 $161 $162 $58 $-1 $163 forward single #
loop $-1 $164 $165 $76 #
cone-surface $-1 -26.831373794515336 26.701040783628695 5.6519965348499763 0 -0.79863551827123203 -0.60181501223851219 1 0 0 1 I I 0 1 1 forward I I I I #
face $-1 $166 $167 $59 $-1 $168 forward single #
loop $-1 $169 $170 $77 #
cone-surface $-1 -19.844582545297762 26.701040783628695 5.6519965348499763 0 -0.79863551827123203 -0.60181501223851219 1 0 0 1 I I 0 1 1 forward I I I I #
face $-1 $171 $172 $60 $-1 $173 reversed single #
loop $-1 $-1 $174 $78 #
plane-surface $-1 21.947623949725603 99.81870192820395 130.96431932863456 1 0 0 0 -0.79863551827123203 -0.60181501223851219 forward_v I I I I #
face $-1 $175 $176 $61 $-1 $177 forward single #
loop $-1 $178 $179 $79 #
cone-surface $-1 26.605484782537332 26.701040783628695 5.6519965348499763 0 -0.79863551827123203 -0.60181501223851219 1 0 0 1 I I 0 1 1 forward I I I I #
face $-1 $180 $181 $62 $-1 $182 forward single #
loop $-1 $183 $184 $80 #
cone-surface $-1 33.592276031754906 26.701040783628695 5.6519965348499763 0 -0.79863551827123203 -0.60181501223851219 1 0 0 1 I I 0 1 1 forward I I I I #
face $-1 $185 $186 $63 $-1 $187 forward single #
loop $-1 $188 $189 $81 #
cone-surface $-1 40.579067280972481 26.701040783628695 5.6519965348499763 0 -0.79863551827123203 -0.60181501223851219 1 0 0 1 I I 0 1 1 forward I I I I #
face $-1 $190 $191 $64 $-1 $192 reversed single #
loop $-1 $-1 $193 $82 #
plane-surface $-1 3.3804511186197885 -114.3657317528444 106.0210591038956 -1 0 0 0 -0.64278761758704617 0.76604443648966558 forward_v I I I I #
face $-1 $194 $195 $65 $-1 $196 forward single #
loop $-1 $197 $198 $83 #
cone-surface $-1 -9.9841601560523898 -25.748679493148224 5.0359907473351839 0 0.64278761758704617 -0.76604443648966558 1 0 0 1 I I 0 1 1 forward I I I I #
face $-1 $199 $200 $66 $-1 $201 forward single #
loop $-1 $202 $203 $84 #
cone-surface $-1 -4.9724309280503292 -25.748679493148224 5.0359907473351839 0 0.64278761758704617 -0.76604443648966558 1 0 0 1 I I 0 1 1 forward I I I I #
face $-1 $204 $205 $67 $-1 $206 forward single #
loop $-1 $207 $208 $85 #
cone-surface $-1 0.039298299951738613 -25.748679493148224 5.0359907473351839 0 0.64278761758704617 -0.76604443648966558 1 0 0 1 I I 0 1 1 forward I I I I #
face $-1 $209 $210 $68 $-1 $211 reversed single #
loop $-1 $-1 $212 $86 #
plane-surface $-1 57.867400554727624 -29.234576374257642 4.5657009647473217 0 -0.64278761758704617 0.76604443648966558 1 0 0 forward_v I I I I #
face $-1 $213 $214 $69 $-1 $215 forward single #
loop $-1 $216 $217 $87 #
cone-surface $-1 52.85567132672557 -25.748679493148224 5.0359907473351839 0 0.64278761758704617 -0.76604443648966558 1 0 0 1 I I 0 1 1 forward I I I I #
face $-1 $218 $219 $70 $-1 $220 forward single #
loop $-1 $221 $222 $88 #
cone-surface $-1 57.867400554727624 -25.748679493148224 5.0359907473351839 0 0.64278761758704617 -0.76604443648966558 1 0 0 1 I I 0 1 1 forward I I I I #
face $-1 $223 $224 $71 $-1 $225 forward single #
loop $-1 $226 $227 $89 #
cone-surface $-1 62.879129782729706 -25.748679493148224 5.0359907473351839 0 0.64278761758704617 -0.76604443648966558 1 0 0 1 I I 0 1 1 forward I I I I #
face $-1 $228 $229 $54 $-1 $230 reversed single #
loop $-1 $-1 $231 $90 #
plane-surface $-1 0 0 -8.3872640803699952 0 0 1 1 0 0 forward_v I I I I #
coedge $-1 $232 $233 $234 $235 forward $91 $-1 #
face $-1 $236 $237 $55 $-1 $238 reversed single #
loop $-1 $-1 $239 $93 #
plane-surface $-1 -62.83983148277796 -12.460048213517631 0 0 -1 0 0 0 -1 forward_v I I I I #
coedge $-1 $240 $241 $242 $243 reversed $94 $-1 #
face $-1 $244 $245 $56 $-1 $246 reversed single #
loop $-1 $-1 $247 $96 #
plane-surface $-1 -26.831373794515343 -5.9530375026655236 51.259598960238719 0 0.79863551827123203 0.60181501223851219 1 0 0 forward_v I I I I #
coedge $-1 $248 $249 $250 $251 reversed $97 $-1 #
face $-1 $-1 $252 $57 $-1 $253 forward single #
loop $-1 $254 $255 $99 #
cone-surface $-1 -33.818165043732911 25.20868403855016 4.5274250973714771 0 -0.79863551827123203 -0.60181501223851219 0.5 0 0 1 I I -0.70710678118654746 0.70710678118654746 0.5 forward I I I I #
loop $-1 $-1 $256 $75 #
coedge $-1 $160 $160 $257 $258 reversed $100 $-1 #
face $-1 $-1 $259 $58 $-1 $260 forward single #
loop $-1 $261 $262 $102 #
cone-surface $-1 -26.831373794515336 25.20868403855016 4.5274250973714771 0 -0.79863551827123203 -0.60181501223851219 0.5 0 0 1 I I -0.70710678118654746 0.70710678118654746 0.5 forward I I I I #
loop $-1 $-1 $263 $76 #
coedge $-1 $165 $165 $264 $265 reversed $103 $-1 #
face $-1 $-1 $266 $59 $-1 $267 forward single #
loop $-1 $268 $269 $105 #
cone-surface $-1 -19.844582545297762 25.20868403855016 4.5274250973714771 0 -0.79863551827123203 -0.60181501223851219 0.5 0 0 1 I I -0.70710678118654746 0.70710678118654746 0.5 forward I I I I #
loop $-1 $-1 $270 $77 #
coedge $-1 $170 $170 $271 $272 reversed $106 $-1 #
face $-1 $273 $274 $60 $-1 $275 reversed single #
loop $-1 $-1 $276 $108 #
plane-surface $-1 33.592276031754892 -5.9530375026655236 51.259598960238719 0 0.79863551827123203 0.60181501223851219 1 0 0 forward_v I I I I #
coedge $-1 $277 $278 $279 $280 reversed $109 $-1 #
face $-1 $-1 $281 $61 $-1 $282 forward single #
loop $-1 $283 $284 $111 #
cone-surface $-1 26.605484782537332 25.20868403855016 4.5274250973714771 0 -0.79863551827123203 -0.60181501223851219 0.5 0 0 1 I I -0.70710678118654746 0.70710678118654746 0.5 forward I I I I #
loop $-1 $-1 $285 $79 #
coedge $-1 $179 $179 $286 $287 reversed $112 $-1 #
face $-1 $-1 $288 $62 $-1 $289 forward single #
loop $-1 $290 $291 $114 #
cone-surface $-1 33.592276031754906 25.20868403855016 4.5274250973714771 0 -0.79863551827123203 -0.60181501223851219 0.5 0 0 1 I I -0.70710678118654746 0.70710678118654746 0.5 forward I I I I #
loop $-1 $-1 $292 $80 #
coedge $-1 $184 $184 $293 $294 reversed $115 $-1 #
face $-1 $-1 $295 $63 $-1 $296 forward single #
loop $-1 $297 $298 $117 #
cone-surface $-1 40.579067280972481 25.20868403855016 4.5274250973714771 0 -0.79863551827123203 -0.60181501223851219 0.5 0 0 1 I I -0.70710678118654746 0.70710678118654746 0.5 forward I I I I #
loop $-1 $-1 $299 $81 #
coedge $-1 $189 $189 $300 $301 reversed $118 $-1 #
face $-1 $302 $303 $64 $-1 $304 reversed single #
loop $-1 $-1 $305 $120 #
plane-surface $-1 -4.9724309280503221 -29.234576374257642 4.5657009647473217 0 -0.64278761758704617 0.76604443648966558 1 0 0 forward_v I I I I #
coedge $-1 $306 $307 $308 $309 reversed $121 $-1 #
face $-1 $-1 $310 $65 $-1 $311 forward single #
loop $-1 $312 $313 $123 #
cone-surface $-1 -9.9841601560523898 -24.218569541734276 3.2124767538668877 0 0.64278761758704617 -0.76604443648966558 0.5 0 0 1 I I -0.70710678118654746 0.70710678118654746 0.5 forward I I I I #
loop $-1 $-1 $314 $83 #
coedge $-1 $198 $198 $315 $316 reversed $124 $-1 #
face $-1 $-1 $317 $66 $-1 $318 forward single #
loop $-1 $319 $320 $126 #
cone-surface $-1 -4.9724309280503292 -24.218569541734276 3.2124767538668877 0 0.64278761758704617 -0.76604443648966558 0.5 0 0 1 I I -0.70710678118654746 0.70710678118654746 0.5 forward I I I I #
loop $-1 $-1 $321 $84 #
coedge $-1 $203 $203 $322 $323 reversed $127 $-1 #
face $-1 $-1 $324 $67 $-1 $325 forward single #
loop $-1 $326 $327 $129 #
cone-surface $-1 0.039298299951738613 -24.218569541734276 3.2124767538668877 0 0.64278761758704617 -0.76604443648966558 0.5 0 0 1 I I -0.70710678118654746 0.70710678118654746 0.5 forward I I I I #
loop $-1 $-1 $328 $85 #
coedge $-1 $208 $208 $329 $330 reversed $130 $-1 #
face $-1 $331 $332 $68 $-1 $333 reversed single #
loop $-1 $-1 $334 $132 #
plane-surface $-1 49.514518508057513 -114.3657317528444 106.0210591038956 1 0 0 0 0.64278761758704617 -0.76604443648966558 forward_v I I I I #
coedge $-1 $335 $336 $337 $338 reversed $133 $-1 #
face $-1 $-1 $339 $69 $-1 $340 forward single #
loop $-1 $341 $342 $135 #
cone-surface $-1 52.85567132672557 -24.218569541734276 3.2124767538668877 0 0.64278761758704617 -0.76604443648966558 0.5 0 0 1 I I -0.70710678118654746 0.70710678118654746 0.5 forward I I I I #
loop $-1 $-1 $343 $87 #
coedge $-1 $217 $217 $344 $345 reversed $136 $-1 #
face $-1 $-1 $346 $70 $-1 $347 forward single #
loop $-1 $348 $349 $138 #
cone-surface $-1 57.867400554727624 -24.218569541734276 3.2124767538668877 0 0.64278761758704617 -0.76604443648966558 0.5 0 0 1 I I -0.70710678118654746 0.70710678118654746 0.5 forward I I I I #
loop $-1 $-1 $350 $88 #
coedge $-1 $222 $222 $351 $352 reversed $139 $-1 #
face $-1 $-1 $353 $71 $-1 $354 forward single #
loop $-1 $355 $356 $141 #
cone-surface $-1 62.879129782729706 -24.218569541734276 3.2124767538668877 0 0.64278761758704617 -0.76604443648966558 0.5 0 0 1 I I -0.70710678118654746 0.70710678118654746 0.5 forward I I I I #
loop $-1 $-1 $357 $89 #
coedge $-1 $227 $227 $358 $359 reversed $142 $-1 #
face $-1 $360 $361 $54 $-1 $362 reversed single #
loop $-1 $-1 $363 $144 #
plane-surface $-1 0 -29.234576374257621 0 0 1 0 0 0 1 forward_v I I I I #
coedge $-1 $364 $365 $366 $367 forward $145 $-1 #
coedge $-1 $368 $147 $369 $370 forward $91 $-1 #
coedge $-1 $147 $368 $371 $372 forward $91 $-1 #
coedge $-1 $373 $374 $147 $235 reversed $375 $-1 #
edge $-1 $376 -29.234576374257621 $377 29.234576374257621 $234 $378 forward 7 unknown #
face $-1 $379 $380 $55 $-1 $381 reversed single #
loop $-1 $-1 $382 $148 #
plane-surface $-1 -59.459380364158179 -14.086947586924524 0 -1 0 0 0 0 1 forward_v I I I I #
coedge $-1 $383 $384 $385 $386 forward $149 $-1 #
coedge $-1 $387 $151 $388 $389 reversed $94 $-1 #
coedge $-1 $151 $387 $390 $391 reversed $94 $-1 #
coedge $-1 $392 $393 $151 $243 forward $394 $-1 #
edge $-1 $395 -8.3872640803699952 $396 8.3872640803699952 $242 $397 forward 7 unknown #
face $-1 $398 $399 $56 $-1 $400 reversed single #
loop $-1 $-1 $401 $152 #
plane-surface $-1 -15.186721712486056 99.81870192820395 130.96431932863456 -1 0 0 0 0.79863551827123203 0.60181501223851219 forward_v I I I I #
coedge $-1 $402 $403 $404 $405 reversed $153 $-1 #
coedge $-1 $249 $155 $406 $407 reversed $97 $-1 #
coedge $-1 $155 $248 $402 $408 reversed $97 $-1 #
coedge $-1 $404 $409 $155 $251 forward $410 $-1 #
edge $-1 $411 20.674774589844354 $412 23.555767799216369 $250 $413 forward 7 unknown #
loop $-1 $-1 $257 $156 #
plane-surface $-1 -26.831373794515343 -5.9530375026655236 51.259598960238719 0 0.79863551827123203 0.60181501223851219 1 0 0 forward_v I I I I #
loop $-1 $-1 $414 $99 #
coedge $-1 $255 $255 $256 $415 reversed $157 $-1 #
coedge $-1 $256 $256 $255 $415 forward $159 $-1 #
coedge $-1 $257 $257 $160 $258 forward $252 $-1 #
edge $-1 $416 1.4589973790036791e-015 $416 6.2831853071796022 $257 $417 forward 7 unknown #
loop $-1 $-1 $264 $161 #
plane-surface $-1 -26.831373794515343 -5.9530375026655236 51.259598960238719 0 0.79863551827123203 0.60181501223851219 1 0 0 forward_v I I I I #
loop $-1 $-1 $418 $102 #
coedge $-1 $262 $262 $263 $419 reversed $162 $-1 #
coedge $-1 $263 $263 $262 $419 forward $164 $-1 #
coedge $-1 $264 $264 $165 $265 forward $259 $-1 #
edge $-1 $420 1.4589973790036791e-015 $420 6.2831853071796022 $264 $421 forward 7 unknown #
loop $-1 $-1 $271 $166 #
plane-surface $-1 -26.831373794515343 -5.9530375026655236 51.259598960238719 0 0.79863551827123203 0.60181501223851219 1 0 0 forward_v I I I I #
loop $-1 $-1 $422 $105 #
coedge $-1 $269 $269 $270 $423 reversed $167 $-1 #
coedge $-1 $270 $270 $269 $423 forward $169 $-1 #
coedge $-1 $271 $271 $170 $272 forward $266 $-1 #
edge $-1 $424 1.4589973790036791e-015 $424 6.2831853071796022 $271 $425 forward 7 unknown #
face $-1 $426 $427 $60 $-1 $428 forward single #
loop $-1 $-1 $429 $171 #
plane-surface $-1 45.236928113784181 99.81870192820395 130.96431932863456 -1 0 0 0 0.79863551827123203 0.60181501223851219 forward_v I I I I #
coedge $-1 $430 $431 $432 $433 reversed $172 $-1 #
coedge $-1 $278 $174 $434 $435 reversed $109 $-1 #
coedge $-1 $174 $277 $430 $436 reversed $109 $-1 #
coedge $-1 $432 $437 $174 $280 forward $427 $-1 #
edge $-1 $438 20.674774589844354 $439 23.555767799216369 $279 $440 forward 7 unknown #
loop $-1 $-1 $286 $175 #
plane-surface $-1 33.592276031754892 -5.9530375026655236 51.259598960238719 0 0.79863551827123203 0.60181501223851219 1 0 0 forward_v I I I I #
loop $-1 $-1 $441 $111 #
coedge $-1 $284 $284 $285 $442 reversed $176 $-1 #
coedge $-1 $285 $285 $284 $442 forward $178 $-1 #
coedge $-1 $286 $286 $179 $287 forward $281 $-1 #
edge $-1 $443 1.4589973790036791e-015 $443 6.2831853071796022 $286 $444 forward 7 unknown #
loop $-1 $-1 $293 $180 #
plane-surface $-1 33.592276031754892 -5.9530375026655236 51.259598960238719 0 0.79863551827123203 0.60181501223851219 1 0 0 forward_v I I I I #
loop $-1 $-1 $445 $114 #
coedge $-1 $291 $291 $292 $446 reversed $181 $-1 #
coedge $-1 $292 $292 $291 $446 forward $183 $-1 #
coedge $-1 $293 $293 $184 $294 forward $288 $-1 #
edge $-1 $447 1.4589973790036791e-015 $447 6.2831853071796022 $293 $448 forward 7 unknown #
loop $-1 $-1 $300 $185 #
plane-surface $-1 33.592276031754892 -5.9530375026655236 51.259598960238719 0 0.79863551827123203 0.60181501223851219 1 0 0 forward_v I I I I #
loop $-1 $-1 $449 $117 #
coedge $-1 $298 $298 $299 $450 reversed $186 $-1 #
coedge $-1 $299 $299 $298 $450 forward $188 $-1 #
coedge $-1 $300 $300 $189 $301 forward $295 $-1 #
edge $-1 $451 1.4589973790036791e-015 $451 6.2831853071796022 $300 $452 forward 7 unknown #
face $-1 $453 $454 $64 $-1 $455 forward single #
loop $-1 $-1 $456 $190 #
plane-surface $-1 -13.325312974720433 -114.3657317528444 106.0210591038956 1 0 0 0 0.64278761758704617 -0.76604443648966558 forward_v I I I I #
coedge $-1 $457 $458 $459 $460 reversed $191 $-1 #
coedge $-1 $307 $193 $461 $462 reversed $121 $-1 #
coedge $-1 $193 $306 $457 $463 reversed $121 $-1 #
coedge $-1 $459 $464 $193 $309 forward $454 $-1 #
edge $-1 $465 27.948289502164577 $466 32.50265097914248 $308 $467 forward 7 unknown #
loop $-1 $-1 $315 $194 #
plane-surface $-1 -4.9724309280503221 -29.234576374257642 4.5657009647473217 0 -0.64278761758704617 0.76604443648966558 1 0 0 forward_v I I I I #
loop $-1 $-1 $468 $123 #
coedge $-1 $313 $313 $314 $469 reversed $195 $-1 #
coedge $-1 $314 $314 $313 $469 forward $197 $-1 #
coedge $-1 $315 $315 $198 $316 forward $310 $-1 #
edge $-1 $470 -9.4159428961223993e-017 $470 6.2831853071796004 $315 $471 forward 7 unknown #
loop $-1 $-1 $322 $199 #
plane-surface $-1 -4.9724309280503221 -29.234576374257642 4.5657009647473217 0 -0.64278761758704617 0.76604443648966558 1 0 0 forward_v I I I I #
loop $-1 $-1 $472 $126 #
coedge $-1 $320 $320 $321 $473 reversed $200 $-1 #
coedge $-1 $321 $321 $320 $473 forward $202 $-1 #
coedge $-1 $322 $322 $203 $323 forward $317 $-1 #
edge $-1 $474 -9.4159428961223993e-017 $474 6.2831853071796004 $322 $475 forward 7 unknown #
loop $-1 $-1 $329 $204 #
plane-surface $-1 -4.9724309280503221 -29.234576374257642 4.5657009647473217 0 -0.64278761758704617 0.76604443648966558 1 0 0 forward_v I I I I #
loop $-1 $-1 $476 $129 #
coedge $-1 $327 $327 $328 $477 reversed $205 $-1 #
coedge $-1 $328 $328 $327 $477 forward $207 $-1 #
coedge $-1 $329 $329 $208 $330 forward $324 $-1 #
edge $-1 $478 -9.4159428961223993e-017 $478 6.2831853071796004 $329 $479 forward 7 unknown #
face $-1 $480 $481 $68 $-1 $482 forward single #
loop $-1 $-1 $483 $209 #
plane-surface $-1 0 -29.234576374257621 0 0 1 0 0 0 1 forward_v I I I I #
coedge $-1 $484 $485 $486 $487 reversed $210 $-1 #
coedge $-1 $488 $212 $489 $490 reversed $133 $-1 #
coedge $-1 $212 $488 $484 $491 forward $133 $-1 #
coedge $-1 $486 $492 $212 $338 forward $481 $-1 #
edge $-1 $493 -37.28658232403393 $494 -20.580818230693701 $337 $495 forward 7 unknown #
loop $-1 $-1 $344 $213 #
plane-surface $-1 57.867400554727624 -29.234576374257642 4.5657009647473217 0 -0.64278761758704617 0.76604443648966558 1 0 0 forward_v I I I I #
loop $-1 $-1 $496 $135 #
coedge $-1 $342 $342 $343 $497 reversed $214 $-1 #
coedge $-1 $343 $343 $342 $497 forward $216 $-1 #
coedge $-1 $344 $344 $217 $345 forward $339 $-1 #
edge $-1 $498 -9.4159428961223993e-017 $498 6.2831853071796004 $344 $499 forward 7 unknown #
loop $-1 $-1 $351 $218 #
plane-surface $-1 57.867400554727624 -29.234576374257642 4.5657009647473217 0 -0.64278761758704617 0.76604443648966558 1 0 0 forward_v I I I I #
loop $-1 $-1 $500 $138 #
coedge $-1 $349 $349 $350 $501 reversed $219 $-1 #
coedge $-1 $350 $350 $349 $501 forward $221 $-1 #
coedge $-1 $351 $351 $222 $352 forward $346 $-1 #
edge $-1 $502 -9.4159428961223993e-017 $502 6.2831853071796004 $351 $503 forward 7 unknown #
loop $-1 $-1 $358 $223 #
plane-surface $-1 57.867400554727624 -29.234576374257642 4.5657009647473217 0 -0.64278761758704617 0.76604443648966558 1 0 0 forward_v I I I I #
loop $-1 $-1 $504 $141 #
coedge $-1 $356 $356 $357 $505 reversed $224 $-1 #
coedge $-1 $357 $357 $356 $505 forward $226 $-1 #
coedge $-1 $358 $358 $227 $359 forward $353 $-1 #
edge $-1 $506 -9.4159428961223993e-017 $506 6.2831853071796004 $358 $507 forward 7 unknown #
face $-1 $508 $509 $54 $-1 $510 reversed single #
loop $-1 $-1 $511 $228 #
plane-surface $-1 -66.220282601397741 0 0 1 0 0 0 0 -1 forward_v I I I I #
coedge $-1 $512 $371 $513 $514 forward $229 $-1 #
coedge $-1 $515 $231 $512 $516 forward $145 $-1 #
coedge $-1 $231 $515 $517 $518 forward $145 $-1 #
coedge $-1 $374 $373 $231 $367 reversed $375 $-1 #
edge $-1 $519 -29.234576374257621 $520 29.234576374257621 $366 $521 forward 7 unknown #
coedge $-1 $233 $232 $522 $523 forward $91 $-1 #
coedge $-1 $524 $525 $232 $370 reversed $509 $-1 #
edge $-1 $377 -66.220282601397741 $526 66.220282601397741 $369 $527 forward 7 unknown #
coedge $-1 $363 $528 $233 $372 reversed $229 $-1 #
edge $-1 $529 -66.220282601397741 $376 66.220282601397741 $371 $530 forward 7 unknown #
coedge $-1 $366 $234 $528 $531 forward $375 $-1 #
coedge $-1 $234 $366 $524 $532 reversed $375 $-1 #
loop $-1 $-1 $373 $508 #
vertex $-1 $235 $533 #
vertex $-1 $235 $534 #
straight-curve $-1 66.220282601397741 0 8.3872640803699952 0 1 0 I I #
face $-1 $535 $536 $55 $-1 $537 forward single #
loop $-1 $-1 $538 $236 #
plane-surface $-1 0 0 -8.3872640803699952 0 0 1 1 0 0 forward_v I I I I #
coedge $-1 $539 $540 $387 $541 forward $237 $-1 #
coedge $-1 $542 $239 $538 $543 reversed $149 $-1 #
coedge $-1 $239 $542 $544 $545 reversed $149 $-1 #
coedge $-1 $540 $539 $239 $386 reversed $237 $-1 #
edge $-1 $546 -8.3872640803699952 $547 8.3872640803699952 $385 $548 forward 7 unknown #
coedge $-1 $241 $240 $382 $541 reversed $94 $-1 #
coedge $-1 $549 $550 $240 $389 forward $380 $-1 #
edge $-1 $551 28.039464622769199 $395 34.800366860008765 $388 $552 forward 7 unknown #
coedge $-1 $553 $554 $241 $391 forward $536 $-1 #
edge $-1 $396 -34.800366860008765 $555 -28.039464622769199 $390 $556 forward 7 unknown #
coedge $-1 $557 $242 $554 $558 reversed $394 $-1 #
coedge $-1 $242 $557 $549 $559 reversed $394 $-1 #
loop $-1 $-1 $557 $535 #
vertex $-1 $559 $560 #
vertex $-1 $243 $561 #
straight-curve $-1 -66.220282601397741 -15.713846960331416 0 0 0 1 I I #
face $-1 $-1 $410 $56 $-1 $562 forward single #
loop $-1 $-1 $563 $244 #
plane-surface $-1 0 29.234576374257621 0 0 -1 0 0 0 -1 forward_v I I I I #
coedge $-1 $564 $565 $566 $567 reversed $245 $-1 #
coedge $-1 $568 $247 $249 $408 forward $153 $-1 #
coedge $-1 $247 $568 $564 $569 forward $153 $-1 #
coedge $-1 $566 $250 $247 $405 forward $410 $-1 #
edge $-1 $412 -25.060338979286961 $570 -1.7710348152283846 $404 $571 forward 7 unknown #
coedge $-1 $572 $573 $248 $407 forward $399 $-1 #
edge $-1 $574 -60.91810281226887 $411 -57.094895583947284 $406 $575 forward 7 unknown #
edge $-1 $412 53.681978698709031 $574 58.469152748515256 $249 $576 forward 7 unknown #
coedge $-1 $250 $566 $572 $577 forward $410 $-1 #
loop $-1 $-1 $566 $398 #
vertex $-1 $407 $578 #
vertex $-1 $251 $579 #
straight-curve $-1 -38.476025876544632 49.909350964101975 8.3872640803699952 0 -1 0 I I #
coedge $-1 $414 $414 $-1 $580 reversed $254 $-1 #
edge $-1 $581 0 $581 6.2831853071796004 $255 $582 forward 7 unknown #
vertex $-1 $258 $583 #
ellipse-curve $-1 -33.818165043732911 27.794079769571603 6.4756604662092112 0 0.79863551827123203 0.60181501223851219 1 0 0 1 I I #
coedge $-1 $418 $418 $-1 $584 reversed $261 $-1 #
edge $-1 $585 0 $585 6.2831853071796004 $262 $586 forward 7 unknown #
vertex $-1 $265 $587 #
ellipse-curve $-1 -26.831373794515336 27.794079769571603 6.4756604662092112 0 0.79863551827123203 0.60181501223851219 1 0 0 1 I I #
coedge $-1 $422 $422 $-1 $588 reversed $268 $-1 #
edge $-1 $589 0 $589 6.2831853071796004 $269 $590 forward 7 unknown #
vertex $-1 $272 $591 #
ellipse-curve $-1 -19.844582545297762 27.794079769571603 6.4756604662092112 0 0.79863551827123203 0.60181501223851219 1 0 0 1 I I #
face $-1 $-1 $592 $60 $-1 $593 reversed single #
loop $-1 $-1 $279 $273 #
plane-surface $-1 0 0 8.3872640803699952 0 0 1 1 0 0 forward_v I I I I #
coedge $-1 $594 $595 $596 $597 reversed $274 $-1 #
coedge $-1 $598 $276 $278 $436 forward $172 $-1 #
coedge $-1 $276 $598 $594 $599 forward $172 $-1 #
coedge $-1 $596 $279 $276 $433 forward $427 $-1 #
edge $-1 $439 5.1514859338481571 $600 28.440790097906735 $432 $601 forward 7 unknown #
coedge $-1 $602 $603 $277 $435 forward $592 $-1 #
edge $-1 $604 -60.91810281226887 $438 -57.094895583947284 $434 $605 forward 7 unknown #
edge $-1 $439 53.681978698709031 $604 58.469152748515256 $278 $606 forward 7 unknown #
coedge $-1 $279 $596 $602 $607 forward $427 $-1 #
vertex $-1 $435 $608 #
vertex $-1 $280 $609 #
straight-curve $-1 21.947623949725603 49.909350964101975 8.3872640803699952 0 -1 0 I I #
coedge $-1 $441 $441 $-1 $610 reversed $283 $-1 #
edge $-1 $611 0 $611 6.2831853071796004 $284 $612 forward 7 unknown #
vertex $-1 $287 $613 #
ellipse-curve $-1 26.605484782537332 27.794079769571603 6.4756604662092112 0 0.79863551827123203 0.60181501223851219 1 0 0 1 I I #
coedge $-1 $445 $445 $-1 $614 reversed $290 $-1 #
edge $-1 $615 0 $615 6.2831853071796004 $291 $616 forward 7 unknown #
vertex $-1 $294 $617 #
ellipse-curve $-1 33.592276031754906 27.794079769571603 6.4756604662092112 0 0.79863551827123203 0.60181501223851219 1 0 0 1 I I #
coedge $-1 $449 $449 $-1 $618 reversed $297 $-1 #
edge $-1 $619 0 $619 6.2831853071796004 $298 $620 forward 7 unknown #
vertex $-1 $301 $621 #
ellipse-curve $-1 40.579067280972481 27.794079769571603 6.4756604662092112 0 0.79863551827123203 0.60181501223851219 1 0 0 1 I I #
face $-1 $-1 $622 $64 $-1 $623 reversed single #
loop $-1 $-1 $308 $302 #
plane-surface $-1 0 0 8.3872640803699952 0 0 1 1 0 0 forward_v I I I I #
coedge $-1 $624 $625 $626 $627 reversed $303 $-1 #
coedge $-1 $628 $305 $307 $463 forward $191 $-1 #
coedge $-1 $305 $628 $624 $629 forward $191 $-1 #
coedge $-1 $626 $308 $305 $460 forward $454 $-1 #
edge $-1 $466 -5.8666665826449496 $630 10.839097510695272 $459 $631 forward 7 unknown #
coedge $-1 $632 $633 $306 $462 forward $622 $-1 #
edge $-1 $634 -48.444828587200462 $465 -44.623265471577803 $461 $635 forward 7 unknown #
edge $-1 $466 -5.9452967217514221 $634 -2.7747421096340558e-014 $307 $636 forward 7 unknown #
coedge $-1 $308 $626 $632 $637 forward $454 $-1 #
vertex $-1 $462 $638 #
vertex $-1 $309 $639 #
straight-curve $-1 3.3804511186197885 -57.182865876422198 8.3872640803699952 0 1 0 I I #
coedge $-1 $468 $468 $-1 $640 reversed $312 $-1 #
edge $-1 $641 0 $641 6.2831853071796004 $313 $642 forward 7 unknown #
vertex $-1 $316 $643 #
ellipse-curve $-1 -9.9841601560523898 -26.957395635768666 6.4764825225586691 0 -0.64278761758704617 0.76604443648966558 1 0 0 1 I I #
coedge $-1 $472 $472 $-1 $644 reversed $319 $-1 #
edge $-1 $645 0 $645 6.2831853071796004 $320 $646 forward 7 unknown #
vertex $-1 $323 $647 #
ellipse-curve $-1 -4.9724309280503292 -26.957395635768666 6.4764825225586691 0 -0.64278761758704617 0.76604443648966558 1 0 0 1 I I #
coedge $-1 $476 $476 $-1 $648 reversed $326 $-1 #
edge $-1 $649 0 $649 6.2831853071796004 $327 $650 forward 7 unknown #
vertex $-1 $330 $651 #
ellipse-curve $-1 0.039298299951738613 -26.957395635768666 6.4764825225586691 0 -0.64278761758704617 0.76604443648966558 1 0 0 1 I I #
face $-1 $-1 $652 $68 $-1 $653 reversed single #
loop $-1 $-1 $486 $331 #
plane-surface $-1 0 0 8.3872640803699952 0 0 1 1 0 0 forward_v I I I I #
coedge $-1 $654 $655 $485 $656 forward $332 $-1 #
coedge $-1 $485 $334 $336 $491 reversed $210 $-1 #
coedge $-1 $334 $484 $483 $656 reversed $210 $-1 #
coedge $-1 $657 $337 $334 $487 forward $481 $-1 #
edge $-1 $494 -32.50265097914248 $658 -27.948289502164577 $486 $659 forward 7 unknown #
coedge $-1 $336 $335 $654 $660 reversed $133 $-1 #
coedge $-1 $661 $662 $335 $490 forward $652 $-1 #
edge $-1 $663 -9.7301042694437108 $493 -3.7848075476923162 $489 $664 forward 7 unknown #
edge $-1 $665 2.7747421096340558e-014 $494 5.9452967217514221 $484 $666 forward 7 unknown #
coedge $-1 $337 $657 $661 $667 forward $481 $-1 #
vertex $-1 $490 $668 #
vertex $-1 $338 $669 #
straight-curve $-1 28.933700277363812 -24.680214897279715 8.3872640803699952 -1 0 0 I I #
coedge $-1 $496 $496 $-1 $670 reversed $341 $-1 #
edge $-1 $671 0 $671 6.2831853071796004 $342 $672 forward 7 unknown #
vertex $-1 $345 $673 #
ellipse-curve $-1 52.85567132672557 -26.957395635768666 6.4764825225586691 0 -0.64278761758704617 0.76604443648966558 1 0 0 1 I I #
coedge $-1 $500 $500 $-1 $674 reversed $348 $-1 #
edge $-1 $675 0 $675 6.2831853071796004 $349 $676 forward 7 unknown #
vertex $-1 $352 $677 #
ellipse-curve $-1 57.867400554727624 -26.957395635768666 6.4764825225586691 0 -0.64278761758704617 0.76604443648966558 1 0 0 1 I I #
coedge $-1 $504 $504 $-1 $678 reversed $355 $-1 #
edge $-1 $679 0 $679 6.2831853071796004 $356 $680 forward 7 unknown #
vertex $-1 $359 $681 #
ellipse-curve $-1 62.879129782729706 -26.957395635768666 6.4764825225586691 0 -0.64278761758704617 0.76604443648966558 1 0 0 1 I I #
face $-1 $-1 $375 $54 $-1 $682 reversed single #
loop $-1 $-1 $524 $360 #
plane-surface $-1 0 29.234576374257621 0 0 -1 0 0 0 -1 forward_v I I I I #
coedge $-1 $683 $522 $525 $684 forward $361 $-1 #
coedge $-1 $528 $363 $364 $516 reversed $229 $-1 #
coedge $-1 $522 $683 $363 $514 reversed $361 $-1 #
edge $-1 $529 -8.3872640803699952 $685 8.3872640803699952 $513 $686 forward 7 unknown #
coedge $-1 $365 $364 $683 $687 forward $145 $-1 #
edge $-1 $520 -66.220282601397741 $685 66.220282601397741 $512 $688 forward 7 unknown #
coedge $-1 $525 $524 $365 $518 reversed $509 $-1 #
edge $-1 $689 -66.220282601397741 $519 66.220282601397741 $517 $690 forward 7 unknown #
vertex $-1 $367 $691 #
vertex $-1 $531 $692 #
straight-curve $-1 66.220282601397741 0 -8.3872640803699952 0 -1 0 I I #
coedge $-1 $511 $513 $368 $523 reversed $361 $-1 #
edge $-1 $526 -29.234576374257621 $529 29.234576374257621 $522 $693 forward 7 unknown #
coedge $-1 $517 $369 $374 $532 forward $509 $-1 #
coedge $-1 $369 $517 $511 $684 reversed $509 $-1 #
vertex $-1 $370 $694 #
straight-curve $-1 0 29.234576374257621 8.3872640803699952 -1 0 0 I I #
coedge $-1 $371 $512 $373 $531 reversed $229 $-1 #
vertex $-1 $523 $695 #
straight-curve $-1 0 -29.234576374257621 8.3872640803699952 1 0 0 I I #
edge $-1 $376 -8.3872640803699952 $520 8.3872640803699952 $373 $696 forward 7 unknown #
edge $-1 $377 -8.3872640803699952 $519 8.3872640803699952 $374 $697 forward 7 unknown #
point $-1 66.220282601397741 -29.234576374257621 8.3872640803699952 #
point $-1 66.220282601397741 29.234576374257621 8.3872640803699952 #
face $-1 $-1 $394 $55 $-1 $698 reversed single #
loop $-1 $-1 $544 $379 #
plane-surface $-1 0 0 8.3872640803699952 0 0 1 1 0 0 forward_v I I I I #
coedge $-1 $550 $549 $383 $543 forward $380 $-1 #
coedge $-1 $385 $382 $550 $699 reversed $237 $-1 #
coedge $-1 $382 $385 $553 $700 reversed $237 $-1 #
edge $-1 $555 -8.3872640803699952 $551 8.3872640803699952 $382 $701 forward 7 unknown #
coedge $-1 $384 $383 $557 $702 reversed $149 $-1 #
edge $-1 $703 -34.800366860008765 $547 -28.039464622769199 $538 $704 forward 7 unknown #
coedge $-1 $554 $553 $384 $545 forward $536 $-1 #
edge $-1 $546 28.039464622769199 $705 34.800366860008765 $544 $706 forward 7 unknown #
vertex $-1 $545 $707 #
vertex $-1 $543 $708 #
straight-curve $-1 -59.459380364158179 -12.460048213517631 0 0 0 -1 I I #
coedge $-1 $538 $388 $393 $559 forward $380 $-1 #
coedge $-1 $388 $538 $539 $699 forward $380 $-1 #
vertex $-1 $389 $709 #
straight-curve $-1 -31.41991574138898 -15.713846960331416 -8.3872640803699952 -1 0 0 I I #
coedge $-1 $544 $390 $540 $700 forward $536 $-1 #
coedge $-1 $390 $544 $392 $558 forward $536 $-1 #
vertex $-1 $391 $710 #
straight-curve $-1 -31.41991574138898 -15.713846960331416 8.3872640803699952 1 0 0 I I #
coedge $-1 $393 $392 $542 $702 forward $394 $-1 #
edge $-1 $705 12.460048213517631 $396 15.713846960331416 $392 $711 forward 7 unknown #
edge $-1 $395 -15.713846960331416 $703 -12.460048213517631 $393 $712 forward 7 unknown #
point $-1 -66.220282601397741 -15.713846960331416 -8.3872640803699952 #
point $-1 -66.220282601397741 -15.713846960331416 8.3872640803699952 #
plane-surface $-1 0 0 8.3872640803699952 0 0 1 1 0 0 forward_v I I I I #
coedge $-1 $573 $572 $565 $713 forward $399 $-1 #
coedge $-1 $565 $401 $403 $569 reversed $245 $-1 #
coedge $-1 $401 $564 $563 $713 reversed $245 $-1 #
coedge $-1 $409 $404 $401 $567 forward $410 $-1 #
edge $-1 $570 -23.555767799216369 $714 -20.674774589844354 $566 $715 forward 7 unknown #
coedge $-1 $403 $402 $573 $716 reversed $153 $-1 #
edge $-1 $717 -58.469152748515256 $570 -53.681978698709031 $564 $718 forward 7 unknown #
vertex $-1 $405 $719 #
straight-curve $-1 -13.415686897257672 26.353583164885595 8.3872640803700023 1 0 0 I I #
coedge $-1 $563 $406 $409 $577 reversed $399 $-1 #
coedge $-1 $406 $563 $568 $716 forward $399 $-1 #
vertex $-1 $407 $720 #
straight-curve $-1 -38.476025876544632 29.234576374257621 65.48215966431728 0 0 1 I I #
straight-curve $-1 -38.476025876544632 -5.9530375026655236 51.259598960238719 0 0.60181501223851219 -0.79863551827123203 I I #
edge $-1 $714 15.186721712486056 $411 38.476025876544632 $572 $721 forward 7 unknown #
point $-1 -38.476025876544632 29.234576374257621 8.3872640803699952 #
point $-1 -38.476025876544632 26.353583164885606 8.3872640803699952 #
edge $-1 $722 1 $722 0 $414 $-1 forward 7 unknown #
vertex $-1 $415 $723 #
ellipse-curve $-1 -33.818165043732911 25.608001797685777 4.8283326034907335 0 0.79863551827123203 0.60181501223851219 1 0 0 1 I I #
point $-1 -32.818165043732911 27.794079769571617 6.4756604662092201 #
edge $-1 $724 1 $724 0 $418 $-1 forward 7 unknown #
vertex $-1 $419 $725 #
ellipse-curve $-1 -26.831373794515336 25.608001797685777 4.8283326034907335 0 0.79863551827123203 0.60181501223851219 1 0 0 1 I I #
point $-1 -25.831373794515336 27.794079769571617 6.4756604662092201 #
edge $-1 $726 1 $726 0 $422 $-1 forward 7 unknown #
vertex $-1 $423 $727 #
ellipse-curve $-1 -19.844582545297762 25.608001797685777 4.8283326034907335 0 0.79863551827123203 0.60181501223851219 1 0 0 1 I I #
point $-1 -18.844582545297762 27.794079769571617 6.4756604662092201 #
loop $-1 $-1 $434 $426 #
plane-surface $-1 0 29.234576374257621 0 0 -1 0 0 0 -1 forward_v I I I I #
coedge $-1 $595 $429 $431 $599 reversed $274 $-1 #
coedge $-1 $429 $594 $728 $729 reversed $274 $-1 #
coedge $-1 $437 $432 $429 $597 forward $427 $-1 #
edge $-1 $600 -23.555767799216369 $730 -20.674774589844354 $596 $731 forward 7 unknown #
coedge $-1 $431 $430 $603 $732 reversed $172 $-1 #
edge $-1 $733 -58.469152748515256 $600 -53.681978698709031 $594 $734 forward 7 unknown #
vertex $-1 $433 $735 #
straight-curve $-1 16.796138015877446 26.353583164885595 8.3872640803700023 1 0 0 I I #
coedge $-1 $728 $434 $437 $607 reversed $592 $-1 #
coedge $-1 $434 $728 $598 $732 forward $592 $-1 #
vertex $-1 $435 $736 #
straight-curve $-1 21.947623949725603 29.234576374257621 65.48215966431728 0 0 1 I I #
straight-curve $-1 21.947623949725603 -5.9530375026655236 51.259598960238719 0 0.60181501223851219 -0.79863551827123203 I I #
edge $-1 $730 -45.236928113784181 $438 -21.947623949725603 $602 $737 forward 7 unknown #
point $-1 21.947623949725603 29.234576374257621 8.3872640803699952 #
point $-1 21.947623949725603 26.353583164885606 8.3872640803699952 #
edge $-1 $738 1 $738 0 $441 $-1 forward 7 unknown #
vertex $-1 $442 $739 #
ellipse-curve $-1 26.605484782537332 25.608001797685777 4.8283326034907335 0 0.79863551827123203 0.60181501223851219 1 0 0 1 I I #
point $-1 27.605484782537332 27.794079769571617 6.4756604662092201 #
edge $-1 $740 1 $740 0 $445 $-1 forward 7 unknown #
vertex $-1 $446 $741 #
ellipse-curve $-1 33.592276031754906 25.608001797685777 4.8283326034907335 0 0.79863551827123203 0.60181501223851219 1 0 0 1 I I #
point $-1 34.592276031754906 27.794079769571617 6.4756604662092201 #
edge $-1 $742 1 $742 0 $449 $-1 forward 7 unknown #
vertex $-1 $450 $743 #
ellipse-curve $-1 40.579067280972481 25.608001797685777 4.8283326034907335 0 0.79863551827123203 0.60181501223851219 1 0 0 1 I I #
point $-1 41.579067280972481 27.794079769571617 6.4756604662092201 #
loop $-1 $-1 $461 $453 #
plane-surface $-1 0 -29.234576374257621 0 0 1 0 0 0 1 forward_v I I I I #
coedge $-1 $625 $456 $458 $629 reversed $303 $-1 #
coedge $-1 $456 $624 $744 $745 reversed $303 $-1 #
coedge $-1 $464 $459 $456 $627 forward $454 $-1 #
edge $-1 $630 -32.50265097914248 $746 -27.948289502164577 $626 $747 forward 7 unknown #
coedge $-1 $458 $457 $633 $748 reversed $191 $-1 #
edge $-1 $749 2.7747421096340558e-014 $630 5.9452967217514221 $624 $750 forward 7 unknown #
vertex $-1 $460 $751 #
straight-curve $-1 -2.486215464025161 -24.680214897279715 8.3872640803699952 -1 0 0 I I #
coedge $-1 $744 $461 $464 $637 reversed $622 $-1 #
coedge $-1 $461 $744 $628 $748 forward $622 $-1 #
vertex $-1 $462 $752 #
straight-curve $-1 3.3804511186197885 -29.234576374257621 53.010529551947798 0 0 1 I I #
straight-curve $-1 3.3804511186197885 -29.234576374257642 4.5657009647473217 0 -0.76604443648966558 -0.64278761758704617 I I #
edge $-1 $746 -13.325312974720433 $465 3.3804511186197885 $632 $753 forward 7 unknown #
point $-1 3.3804511186197885 -29.234576374257621 8.3872640803699952 #
point $-1 3.3804511186197885 -24.680214897279718 8.3872640803699952 #
edge $-1 $754 1 $754 0 $468 $-1 forward 7 unknown #
vertex $-1 $469 $755 #
ellipse-curve $-1 -9.9841601560523898 -24.539963350527799 3.5954989721117205 0 -0.64278761758704617 0.76604443648966558 1 0 0 1 I I #
point $-1 -8.9841601560523898 -26.957395635768648 6.4764825225586478 #
edge $-1 $756 1 $756 0 $472 $-1 forward 7 unknown #
vertex $-1 $473 $757 #
ellipse-curve $-1 -4.9724309280503292 -24.539963350527799 3.5954989721117205 0 -0.64278761758704617 0.76604443648966558 1 0 0 1 I I #
point $-1 -3.9724309280503292 -26.957395635768648 6.4764825225586478 #
edge $-1 $758 1 $758 0 $476 $-1 forward 7 unknown #
vertex $-1 $477 $759 #
ellipse-curve $-1 0.039298299951738613 -24.539963350527799 3.5954989721117205 0 -0.64278761758704617 0.76604443648966558 1 0 0 1 I I #
point $-1 1.0392982999517386 -26.957395635768648 6.4764825225586478 #
loop $-1 $-1 $489 $480 #
plane-surface $-1 66.220282601397741 0 0 -1 0 0 0 0 1 forward_v I I I I #
coedge $-1 $760 $483 $488 $660 forward $332 $-1 #
coedge $-1 $483 $760 $657 $761 reversed $332 $-1 #
edge $-1 $658 44.623265471577803 $665 48.444828587200462 $483 $762 forward 7 unknown #
coedge $-1 $492 $486 $655 $761 forward $481 $-1 #
vertex $-1 $761 $763 #
straight-curve $-1 49.514518508057513 -57.182865876422198 8.3872640803699952 0 -1 0 I I #
edge $-1 $665 20.580818230693701 $663 37.28658232403393 $654 $764 forward 7 unknown #
coedge $-1 $662 $489 $492 $667 reversed $652 $-1 #
coedge $-1 $489 $661 $760 $765 forward $652 $-1 #
vertex $-1 $660 $766 #
straight-curve $-1 66.220282601397741 -21.780884132185925 10.82009150697661 0 0.76604443648966558 0.64278761758704617 I I #
vertex $-1 $660 $767 #
straight-curve $-1 49.514518508057513 -29.234576374257642 4.5657009647473217 0 0.76604443648966558 0.64278761758704617 I I #
edge $-1 $768 -29.234576374257621 $493 -24.680214897279718 $661 $769 forward 7 unknown #
point $-1 66.220282601397741 -24.680214897279718 8.3872640803699952 #
point $-1 49.514518508057513 -24.680214897279718 8.3872640803699952 #
edge $-1 $770 1 $770 0 $496 $-1 forward 7 unknown #
vertex $-1 $497 $771 #
ellipse-curve $-1 52.85567132672557 -24.539963350527799 3.5954989721117205 0 -0.64278761758704617 0.76604443648966558 1 0 0 1 I I #
point $-1 53.85567132672557 -26.957395635768648 6.4764825225586478 #
edge $-1 $772 1 $772 0 $500 $-1 forward 7 unknown #
vertex $-1 $501 $773 #
ellipse-curve $-1 57.867400554727624 -24.539963350527799 3.5954989721117205 0 -0.64278761758704617 0.76604443648966558 1 0 0 1 I I #
point $-1 58.867400554727624 -26.957395635768648 6.4764825225586478 #
edge $-1 $774 1 $774 0 $504 $-1 forward 7 unknown #
vertex $-1 $505 $775 #
ellipse-curve $-1 62.879129782729706 -24.539963350527799 3.5954989721117205 0 -0.64278761758704617 0.76604443648966558 1 0 0 1 I I #
point $-1 63.879129782729706 -26.957395635768648 6.4764825225586478 #
plane-surface $-1 66.220282601397741 0 0 -1 0 0 0 0 1 forward_v I I I I #
coedge $-1 $513 $511 $515 $687 reversed $361 $-1 #
edge $-1 $526 -8.3872640803699952 $689 8.3872640803699952 $525 $776 forward 7 unknown #
vertex $-1 $687 $777 #
straight-curve $-1 -66.220282601397741 -29.234576374257621 0 0 0 -1 I I #
edge $-1 $685 -29.234576374257621 $689 29.234576374257621 $683 $778 forward 7 unknown #
straight-curve $-1 0 -29.234576374257621 -8.3872640803699952 -1 0 0 I I #
vertex $-1 $518 $779 #
straight-curve $-1 0 29.234576374257621 -8.3872640803699952 1 0 0 I I #
point $-1 66.220282601397741 29.234576374257621 -8.3872640803699952 #
point $-1 66.220282601397741 -29.234576374257621 -8.3872640803699952 #
straight-curve $-1 -66.220282601397741 0 8.3872640803699952 0 -1 0 I I #
point $-1 -66.220282601397741 29.234576374257621 8.3872640803699952 #
point $-1 -66.220282601397741 -29.234576374257621 8.3872640803699952 #
straight-curve $-1 66.220282601397741 -29.234576374257621 0 0 0 -1 I I #
straight-curve $-1 66.220282601397741 29.234576374257621 0 0 0 -1 I I #
plane-surface $-1 -66.220282601397741 0 0 1 0 0 0 0 -1 forward_v I I I I #
edge $-1 $547 5.4165744200553689 $551 8.6703731668691546 $550 $780 forward 7 unknown #
edge $-1 $555 -8.6703731668691546 $546 -5.4165744200553689 $553 $781 forward 7 unknown #
straight-curve $-1 -59.459380364158179 -15.713846960331416 0 0 0 -1 I I #
edge $-1 $705 -8.3872640803699952 $703 8.3872640803699952 $557 $782 forward 7 unknown #
vertex $-1 $702 $783 #
straight-curve $-1 -31.41991574138898 -12.460048213517631 -8.3872640803699952 1 0 0 I I #
vertex $-1 $558 $784 #
straight-curve $-1 -31.41991574138898 -12.460048213517631 8.3872640803699952 -1 0 0 I I #
point $-1 -59.459380364158179 -12.460048213517631 8.3872640803699952 #
point $-1 -59.459380364158179 -12.460048213517631 -8.3872640803699952 #
point $-1 -59.459380364158179 -15.713846960331416 -8.3872640803699952 #
point $-1 -59.459380364158179 -15.713846960331416 8.3872640803699952 #
straight-curve $-1 -66.220282601397741 0 8.3872640803699952 0 -1 0 I I #
straight-curve $-1 -66.220282601397741 0 -8.3872640803699952 0 1 0 I I #
edge $-1 $714 57.094895583947284 $717 60.91810281226887 $563 $785 forward 7 unknown #
vertex $-1 $577 $786 #
straight-curve $-1 -15.186721712486056 49.909350964101975 8.3872640803699952 0 1 0 I I #
edge $-1 $717 1.7710348152283846 $574 25.060338979286961 $573 $787 forward 7 unknown #
vertex $-1 $716 $788 #
straight-curve $-1 -15.186721712486056 -5.9530375026655236 51.259598960238719 0 -0.60181501223851219 0.79863551827123203 I I #
point $-1 -15.186721712486056 26.353583164885606 8.3872640803699952 #
point $-1 -38.476025876544632 29.234576374257621 4.5640568520484095 #
straight-curve $-1 0 29.234576374257621 8.3872640803699952 -1 0 0 I I #
vertex $-1 $580 $789 #
point $-1 -32.818165043732911 25.608001797685777 4.8283326034907335 #
vertex $-1 $584 $790 #
point $-1 -25.831373794515336 25.608001797685777 4.8283326034907335 #
vertex $-1 $588 $791 #
point $-1 -18.844582545297762 25.608001797685777 4.8283326034907335 #
coedge $-1 $603 $602 $595 $729 forward $592 $-1 #
edge $-1 $730 57.094895583947284 $733 60.91810281226887 $728 $792 forward 7 unknown #
vertex $-1 $607 $793 #
straight-curve $-1 45.236928113784181 49.909350964101975 8.3872640803699952 0 1 0 I I #
edge $-1 $733 -28.440790097906735 $604 -5.1514859338481571 $603 $794 forward 7 unknown #
vertex $-1 $732 $795 #
straight-curve $-1 45.236928113784181 -5.9530375026655236 51.259598960238719 0 -0.60181501223851219 0.79863551827123203 I I #
point $-1 45.236928113784181 26.353583164885606 8.3872640803699952 #
point $-1 21.947623949725603 29.234576374257621 4.5640568520484095 #
straight-curve $-1 0 29.234576374257621 8.3872640803699952 -1 0 0 I I #
vertex $-1 $610 $796 #
point $-1 27.605484782537332 25.608001797685777 4.8283326034907335 #
vertex $-1 $614 $797 #
point $-1 34.592276031754906 25.608001797685777 4.8283326034907335 #
vertex $-1 $618 $798 #
point $-1 41.579067280972481 25.608001797685777 4.8283326034907335 #
coedge $-1 $633 $632 $625 $745 forward $622 $-1 #
edge $-1 $746 44.623265471577803 $749 48.444828587200462 $744 $799 forward 7 unknown #
vertex $-1 $637 $800 #
straight-curve $-1 -13.325312974720433 -57.182865876422198 8.3872640803699952 0 -1 0 I I #
edge $-1 $749 -10.839097510695272 $634 5.8666665826449496 $633 $801 forward 7 unknown #
vertex $-1 $748 $802 #
straight-curve $-1 -13.325312974720433 -29.234576374257642 4.5657009647473217 0 0.76604443648966558 0.64278761758704617 I I #
point $-1 -13.325312974720433 -24.680214897279718 8.3872640803699952 #
point $-1 3.3804511186197885 -29.234576374257621 4.5657009647473394 #
straight-curve $-1 0 -29.234576374257621 8.3872640803699952 1 0 0 I I #
vertex $-1 $640 $803 #
point $-1 -8.9841601560523898 -24.539963350527799 3.5954989721117205 #
vertex $-1 $644 $804 #
point $-1 -3.9724309280503292 -24.539963350527799 3.5954989721117205 #
vertex $-1 $648 $805 #
point $-1 1.0392982999517386 -24.539963350527799 3.5954989721117205 #
coedge $-1 $655 $654 $662 $765 reversed $332 $-1 #
edge $-1 $658 49.514518508057513 $768 66.220282601397741 $655 $806 forward 7 unknown #
straight-curve $-1 49.514518508057513 -29.234576374257621 53.010529551947798 0 0 -1 I I #
point $-1 49.514518508057513 -29.234576374257621 8.3872640803699952 #
straight-curve $-1 28.933700277363812 -29.234576374257621 4.5657009647473403 1 0 0 I I #
edge $-1 $768 -8.3872640803699952 $663 -4.5657009647473394 $662 $807 forward 7 unknown #
point $-1 66.220282601397741 -29.234576374257621 4.5657009647473394 #
point $-1 49.514518508057513 -29.234576374257621 4.5657009647473394 #
vertex $-1 $667 $808 #
straight-curve $-1 66.220282601397741 0 8.3872640803699952 0 1 0 I I #
vertex $-1 $670 $809 #
point $-1 53.85567132672557 -24.539963350527799 3.5954989721117205 #
vertex $-1 $674 $810 #
point $-1 58.867400554727624 -24.539963350527799 3.5954989721117205 #
vertex $-1 $678 $811 #
point $-1 63.879129782729706 -24.539963350527799 3.5954989721117205 #
straight-curve $-1 -66.220282601397741 29.234576374257621 0 0 0 -1 I I #
point $-1 -66.220282601397741 -29.234576374257621 -8.3872640803699952 #
straight-curve $-1 -66.220282601397741 0 -8.3872640803699952 0 1 0 I I #
point $-1 -66.220282601397741 29.234576374257621 -8.3872640803699952 #
straight-curve $-1 -59.459380364158179 -7.0434737934622618 -8.3872640803699952 0 -1 0 I I #
straight-curve $-1 -59.459380364158179 -7.0434737934622618 8.3872640803699952 0 1 0 I I #
straight-curve $-1 -66.220282601397741 -12.460048213517631 0 0 0 -1 I I #
point $-1 -66.220282601397741 -12.460048213517631 -8.3872640803699952 #
point $-1 -66.220282601397741 -12.460048213517631 8.3872640803699952 #
straight-curve $-1 -15.186721712486056 29.234576374257621 65.48215966431728 0 0 -1 I I #
point $-1 -15.186721712486056 29.234576374257621 8.3872640803699952 #
straight-curve $-1 -13.415686897257672 29.234576374257621 4.564056852048413 -1 0 0 I I #
point $-1 -15.186721712486056 29.234576374257621 4.5640568520484095 #
point $-1 -33.818165043732911 24.809366279414544 4.2265175912522208 #
point $-1 -26.831373794515336 24.809366279414544 4.2265175912522208 #
point $-1 -19.844582545297762 24.809366279414544 4.2265175912522208 #
straight-curve $-1 45.236928113784181 29.234576374257621 65.48215966431728 0 0 -1 I I #
point $-1 45.236928113784181 29.234576374257621 8.3872640803699952 #
straight-curve $-1 16.796138015877446 29.234576374257621 4.564056852048413 -1 0 0 I I #
point $-1 45.236928113784181 29.234576374257621 4.5640568520484095 #
point $-1 26.605484782537332 24.809366279414544 4.2265175912522208 #
point $-1 33.592276031754906 24.809366279414544 4.2265175912522208 #
point $-1 40.579067280972481 24.809366279414544 4.2265175912522208 #
straight-curve $-1 -13.325312974720433 -29.234576374257621 53.010529551947798 0 0 -1 I I #
point $-1 -13.325312974720433 -29.234576374257621 8.3872640803699952 #
straight-curve $-1 -2.486215464025161 -29.234576374257621 4.5657009647473403 1 0 0 I I #
point $-1 -13.325312974720433 -29.234576374257621 4.5657009647473394 #
point $-1 -9.9841601560523898 -23.897175732940752 2.8294545356220548 #
point $-1 -4.9724309280503292 -23.897175732940752 2.8294545356220548 #
point $-1 0.039298299951738613 -23.897175732940752 2.8294545356220548 #
straight-curve $-1 0 -29.234576374257621 8.3872640803699952 1 0 0 I I #
straight-curve $-1 66.220282601397741 -29.234576374257621 0 0 0 -1 I I #
point $-1 66.220282601397741 -29.234576374257621 8.3872640803699952 #
point $-1 52.85567132672557 -23.897175732940752 2.8294545356220548 #
point $-1 57.867400554727624 -23.897175732940752 2.8294545356220548 #
point $-1 62.879129782729706 -23.897175732940752 2.8294545356220548 #
End-of-ACIS-data 