500 0 4 0           
7 Unknown 11 ACIS 5.0 NT 24 Fri Mar 26 01:18:29 1999 
-1 9.9999999999999995e-007 1e-010 
body $-1 $4 $-1 $5 #
body $-1 $6 $-1 $7 #
body $-1 $8 $-1 $9 #
body $-1 $10 $-1 $11 #
lump $-1 $-1 $12 $0 #
transform $-1 1 0 0 0 1 0 0 0 1 52.045045319986571 25.796502275184359 12.857391783117187 1 rotate no_reflect no_shear #
lump $-1 $-1 $13 $1 #
transform $-1 1 0 0 0 1 0 0 0 1 52.045045319986571 25.796502275184359 12.857391783117187 1 rotate no_reflect no_shear #
lump $-1 $-1 $14 $2 #
transform $-1 1 0 0 0 1 0 0 0 1 52.045045319986571 25.796502275184359 12.857391783117187 1 rotate no_reflect no_shear #
lump $-1 $-1 $15 $3 #
transform $-1 1 0 0 0 1 0 0 0 1 52.045045319986571 25.796502275184359 12.857391783117187 1 rotate no_reflect no_shear #
shell $-1 $-1 $-1 $16 $-1 $4 #
shell $-1 $-1 $-1 $17 $-1 $6 #
shell $-1 $-1 $-1 $18 $-1 $8 #
shell $-1 $-1 $-1 $19 $-1 $10 #
face $-1 $20 $21 $12 $-1 $22 forward single #
face $-1 $23 $24 $13 $-1 $25 reversed single #
face $-1 $26 $27 $14 $-1 $28 forward single #
face $-1 $29 $30 $15 $-1 $31 reversed single #
face $-1 $32 $33 $12 $-1 $34 reversed single #
loop $-1 $-1 $35 $16 #
plane-surface $-1 0 0 12.857391783117187 0 0 1 1 0 0 forward_v I I I I #
face $-1 $36 $37 $13 $-1 $38 reversed single #
loop $-1 $-1 $39 $17 #
plane-surface $-1 -57.549717462397879 -7.5184997236509563 0 0 1 0 0 0 1 forward_v I I I I #
face $-1 $40 $41 $14 $-1 $42 forward single #
loop $-1 $-1 $43 $18 #
plane-surface $-1 1.3945441565965666e-006 -18.477400032567346 96.281053168423142 0.86602541151947299 0 0.49999998660252726 0.49999998660252726 0 -0.86602541151947299 forward_v I I I I #
face $-1 $44 $45 $15 $-1 $46 reversed single #
loop $-1 $47 $48 $19 #
cone-surface $-1 49.335104327882746 -18.477400032567346 9.052472532270512 -0.86602541151947299 0 -0.49999998660252726 0.49999998660252726 0 -0.86602541151947299 1 I I 0 1 1 forward I I I I #
face $-1 $49 $50 $12 $-1 $51 reversed single #
loop $-1 $-1 $52 $20 #
plane-surface $-1 0 0 -12.857391783117187 0 0 1 1 0 0 forward_v I I I I #
coedge $-1 $53 $54 $55 $56 forward $21 $-1 #
face $-1 $57 $58 $13 $-1 $59 reversed single #
loop $-1 $-1 $60 $23 #
plane-surface $-1 -63.054389604809188 -3.8001092163004699 0 1 0 0 0 0 -1 forward_v I I I I #
coedge $-1 $61 $62 $63 $64 forward $24 $-1 #
face $-1 $65 $66 $14 $-1 $67 reversed single #
loop $-1 $-1 $68 $26 #
plane-surface $-1 90.144664976126137 -11.158297789950332 148.32609709386557 0 -1 0 -0.86602541151947299 0 -0.49999998660252726 forward_v I I I I #
coedge $-1 $69 $70 $71 $72 reversed $27 $-1 #
face $-1 $73 $74 $15 $-1 $75 forward single #
loop $-1 $76 $77 $29 #
cone-surface $-1 48.132336774324955 -18.477400032567346 8.3580543862605694 -0.86602541151947299 0 -0.49999998660252726 0.24999999330126363 0 -0.43301270575973649 1 I I -0.70710678118654746 0.70710678118654746 0.5 forward I I I I #
loop $-1 $-1 $78 $19 #
coedge $-1 $48 $48 $79 $80 reversed $30 $-1 #
face $-1 $81 $82 $12 $-1 $83 reversed single #
loop $-1 $-1 $84 $32 #
plane-surface $-1 0 -25.796502275184359 0 0 1 0 0 0 1 forward_v I I I I #
coedge $-1 $85 $86 $87 $88 forward $33 $-1 #
coedge $-1 $89 $35 $90 $91 forward $21 $-1 #
coedge $-1 $35 $89 $92 $93 forward $21 $-1 #
coedge $-1 $94 $95 $35 $56 reversed $96 $-1 #
edge $-1 $97 -25.796502275184359 $98 25.796502275184359 $55 $99 forward 7 unknown #
face $-1 $100 $101 $13 $-1 $102 reversed single #
loop $-1 $-1 $103 $36 #
plane-surface $-1 -57.549717462397879 -0.081718708949983565 0 0 -1 0 0 0 -1 forward_v I I I I #
coedge $-1 $104 $105 $106 $107 forward $37 $-1 #
coedge $-1 $108 $39 $109 $110 reversed $24 $-1 #
coedge $-1 $39 $108 $111 $112 reversed $24 $-1 #
coedge $-1 $105 $104 $39 $64 reversed $37 $-1 #
edge $-1 $113 -12.857391783117187 $114 12.857391783117187 $63 $115 forward 7 unknown #
face $-1 $116 $117 $14 $-1 $118 reversed single #
loop $-1 $-1 $119 $40 #
plane-surface $-1 52.045045319986571 0 0 -1 0 0 0 0 1 forward_v I I I I #
coedge $-1 $120 $121 $119 $122 reversed $41 $-1 #
coedge $-1 $123 $43 $121 $124 reversed $27 $-1 #
coedge $-1 $43 $123 $125 $126 reversed $27 $-1 #
coedge $-1 $127 $119 $43 $72 forward $66 $-1 #
edge $-1 $128 1.9195977736666592 $129 16.557802258900686 $71 $130 forward 7 unknown #
face $-1 $131 $132 $15 $-1 $133 forward single #
loop $-1 $134 $79 $44 #
plane-surface $-1 1.3945441565965666e-006 -18.477400032567346 96.281053168423142 0.86602541151947299 0 0.49999998660252726 0.49999998660252726 0 -0.86602541151947299 forward_v I I I I #
loop $-1 $-1 $135 $29 #
coedge $-1 $77 $77 $78 $136 forward $45 $-1 #
coedge $-1 $78 $78 $77 $136 reversed $47 $-1 #
coedge $-1 $79 $79 $48 $80 forward $74 $-1 #
edge $-1 $137 0 $137 6.2831853071796004 $79 $138 forward 7 unknown #
face $-1 $139 $140 $12 $-1 $141 reversed single #
loop $-1 $-1 $142 $49 #
plane-surface $-1 -52.045045319986571 0 0 1 0 0 0 0 -1 forward_v I I I I #
coedge $-1 $143 $92 $144 $145 forward $50 $-1 #
coedge $-1 $146 $52 $143 $147 forward $33 $-1 #
coedge $-1 $52 $146 $148 $149 forward $33 $-1 #
coedge $-1 $95 $94 $52 $88 reversed $96 $-1 #
edge $-1 $150 -25.796502275184359 $151 25.796502275184359 $87 $152 forward 7 unknown #
coedge $-1 $54 $53 $153 $154 forward $21 $-1 #
coedge $-1 $155 $156 $53 $91 reversed $140 $-1 #
edge $-1 $98 -52.045045319986571 $157 52.045045319986571 $90 $158 forward 7 unknown #
coedge $-1 $84 $159 $54 $93 reversed $50 $-1 #
edge $-1 $160 -52.045045319986571 $97 52.045045319986571 $92 $161 forward 7 unknown #
coedge $-1 $87 $55 $159 $162 forward $96 $-1 #
coedge $-1 $55 $87 $155 $163 reversed $96 $-1 #
loop $-1 $-1 $94 $139 #
vertex $-1 $56 $164 #
vertex $-1 $56 $165 #
straight-curve $-1 52.045045319986571 0 12.857391783117187 0 1 0 I I #
face $-1 $166 $167 $13 $-1 $102 reversed single #
loop $-1 $-1 $168 $57 #
plane-surface $-1 -52.045045319986571 0 0 1 0 0 0 0 -1 forward_v I I I I #
coedge $-1 $169 $170 $168 $171 reversed $58 $-1 #
coedge $-1 $63 $60 $172 $173 reversed $37 $-1 #
coedge $-1 $60 $63 $174 $175 reversed $37 $-1 #
coedge $-1 $170 $169 $60 $107 reversed $58 $-1 #
edge $-1 $176 -12.857391783117187 $177 12.857391783117187 $106 $178 forward 7 unknown #
coedge $-1 $62 $61 $179 $180 reversed $24 $-1 #
coedge $-1 $172 $181 $61 $110 forward $182 $-1 #
edge $-1 $183 -5.5046721424113088 $114 5.5046721424113088 $61 $184 forward 7 unknown #
coedge $-1 $185 $174 $62 $112 forward $186 $-1 #
edge $-1 $113 -5.5046721424113088 $187 5.5046721424113088 $62 $188 forward 7 unknown #
vertex $-1 $175 $189 #
vertex $-1 $173 $190 #
straight-curve $-1 -63.054389604809188 -7.5184997236509563 0 0 0 -1 I I #
face $-1 $191 $192 $14 $-1 $193 reversed single #
loop $-1 $-1 $125 $65 #
plane-surface $-1 0 -25.796502275184359 0 0 1 0 0 0 1 forward_v I I I I #
coedge $-1 $71 $194 $68 $122 forward $66 $-1 #
coedge $-1 $121 $68 $195 $196 reversed $41 $-1 #
coedge $-1 $68 $120 $69 $124 forward $41 $-1 #
edge $-1 $197 61.305656763815598 $128 68.026658960091609 $119 $198 forward 7 unknown #
coedge $-1 $70 $69 $199 $200 reversed $27 $-1 #
edge $-1 $201 96.329345854801318 $128 104.09009063997311 $121 $202 forward 7 unknown #
coedge $-1 $203 $204 $70 $126 forward $117 $-1 #
edge $-1 $129 -62.39917164275321 $205 -54.638426857581408 $125 $206 forward 7 unknown #
coedge $-1 $207 $71 $204 $208 forward $66 $-1 #
vertex $-1 $72 $209 #
vertex $-1 $208 $210 #
straight-curve $-1 52.045045319986571 -9.2387000162836728 6.1363895868411689 0 -1 0 I I #
face $-1 $211 $212 $15 $-1 $213 reversed single #
loop $-1 $-1 $214 $73 #
plane-surface $-1 90.144664976126137 -11.158297789950332 148.32609709386557 0 -1 0 -0.86602541151947299 0 -0.49999998660252726 forward_v I I I I #
loop $-1 $-1 $215 $44 #
coedge $-1 $135 $135 $-1 $216 forward $76 $-1 #
edge $-1 $217 0 $217 6.2831853071796004 $77 $218 forward 7 unknown #
vertex $-1 $80 $219 #
ellipse-curve $-1 50.104859175680794 -18.477400032567346 9.4968906849791868 -0.86602541151947299 0 -0.49999998660252726 0.49999998660252726 0 -0.86602541151947299 1 I I #
face $-1 $-1 $96 $12 $-1 $220 reversed single #
loop $-1 $-1 $155 $81 #
plane-surface $-1 0 25.796502275184359 0 0 -1 0 0 0 -1 forward_v I I I I #
coedge $-1 $221 $153 $156 $222 forward $82 $-1 #
coedge $-1 $159 $84 $85 $147 reversed $50 $-1 #
coedge $-1 $153 $221 $84 $145 reversed $82 $-1 #
edge $-1 $160 -12.857391783117187 $223 12.857391783117187 $144 $224 forward 7 unknown #
coedge $-1 $86 $85 $221 $225 forward $33 $-1 #
edge $-1 $151 -52.045045319986571 $223 52.045045319986571 $143 $226 forward 7 unknown #
coedge $-1 $156 $155 $86 $149 reversed $140 $-1 #
edge $-1 $227 -52.045045319986571 $150 52.045045319986571 $148 $228 forward 7 unknown #
vertex $-1 $88 $229 #
vertex $-1 $162 $230 #
straight-curve $-1 52.045045319986571 0 -12.857391783117187 0 -1 0 I I #
coedge $-1 $142 $144 $89 $154 reversed $82 $-1 #
edge $-1 $157 -25.796502275184359 $160 25.796502275184359 $153 $231 forward 7 unknown #
coedge $-1 $148 $90 $95 $163 forward $140 $-1 #
coedge $-1 $90 $148 $142 $222 reversed $140 $-1 #
vertex $-1 $91 $232 #
straight-curve $-1 0 25.796502275184359 12.857391783117187 -1 0 0 I I #
coedge $-1 $92 $143 $94 $162 reversed $50 $-1 #
vertex $-1 $154 $233 #
straight-curve $-1 0 -25.796502275184359 12.857391783117187 1 0 0 I I #
edge $-1 $97 -12.857391783117187 $151 12.857391783117187 $94 $234 forward 7 unknown #
edge $-1 $98 -12.857391783117187 $150 12.857391783117187 $95 $235 forward 7 unknown #
point $-1 52.045045319986571 -25.796502275184359 12.857391783117187 #
point $-1 52.045045319986571 25.796502275184359 12.857391783117187 #
face $-1 $236 $186 $13 $-1 $237 forward single #
loop $-1 $-1 $179 $100 #
coedge $-1 $238 $239 $103 $171 forward $101 $-1 #
coedge $-1 $106 $103 $240 $241 reversed $58 $-1 #
coedge $-1 $103 $106 $242 $243 reversed $58 $-1 #
edge $-1 $244 -12.857391783117187 $245 12.857391783117187 $168 $246 forward 7 unknown #
coedge $-1 $240 $109 $104 $173 forward $182 $-1 #
edge $-1 $114 -3.7183905073504864 $177 3.7183905073504864 $104 $247 forward 7 unknown #
coedge $-1 $111 $242 $105 $175 forward $186 $-1 #
edge $-1 $176 -3.7183905073504864 $113 3.7183905073504864 $105 $248 forward 7 unknown #
vertex $-1 $243 $249 #
vertex $-1 $241 $250 #
straight-curve $-1 -63.054389604809188 -0.081718708949983565 0 0 0 -1 I I #
coedge $-1 $251 $252 $108 $180 forward $167 $-1 #
edge $-1 $187 -12.857391783117187 $183 12.857391783117187 $179 $253 forward 7 unknown #
coedge $-1 $109 $254 $251 $255 forward $182 $-1 #
loop $-1 $-1 $256 $236 #
vertex $-1 $110 $257 #
straight-curve $-1 -57.549717462397879 -7.5184997236509563 -12.857391783117187 -1 0 0 I I #
coedge $-1 $258 $111 $252 $259 forward $186 $-1 #
loop $-1 $-1 $260 $166 #
vertex $-1 $259 $261 #
straight-curve $-1 -57.549717462397879 -7.5184997236509563 12.857391783117187 1 0 0 I I #
point $-1 -63.054389604809188 -7.5184997236509563 12.857391783117187 #
point $-1 -63.054389604809188 -7.5184997236509563 -12.857391783117187 #
face $-1 $262 $263 $14 $-1 $264 reversed single #
loop $-1 $-1 $265 $116 #
plane-surface $-1 -57.549717462397879 -7.5184997236509563 0 0 1 0 0 0 1 forward_v I I I I #
coedge $-1 $119 $266 $267 $268 reversed $66 $-1 #
coedge $-1 $267 $199 $120 $196 forward $269 $-1 #
edge $-1 $201 3.0923405433119697 $197 6.9727128319235021 $195 $270 forward 7 unknown #
vertex $-1 $268 $271 #
straight-curve $-1 52.045045319986571 -11.158297789950332 74.163048546932785 0 0 -1 I I #
coedge $-1 $195 $272 $123 $200 forward $269 $-1 #
edge $-1 $205 -16.557802258900686 $201 -1.9195977736666592 $199 $273 forward 7 unknown #
vertex $-1 $200 $274 #
straight-curve $-1 1.3945441565965666e-006 -11.158297789950332 96.281053168423142 0.49999998660252726 0 -0.86602541151947299 I I #
coedge $-1 $275 $125 $272 $276 reversed $117 $-1 #
coedge $-1 $125 $277 $127 $208 reversed $117 $-1 #
vertex $-1 $200 $278 #
straight-curve $-1 20.845460334601167 -25.796502275184359 60.175657887230741 -0.49999998660252726 0 0.86602541151947299 I I #
coedge $-1 $266 $127 $279 $280 reversed $66 $-1 #
edge $-1 $129 -6.1363895868411644 $281 12.857391783117187 $127 $282 forward 7 unknown #
point $-1 52.045045319986571 -11.158297789950332 6.136389586841176 #
point $-1 52.045045319986571 -25.796502275184359 6.1363895868411644 #
face $-1 $283 $284 $15 $-1 $285 reversed single #
loop $-1 $-1 $286 $131 #
plane-surface $-1 52.045045319986571 0 0 -1 0 0 0 0 1 forward_v I I I I #
coedge $-1 $287 $288 $286 $289 reversed $132 $-1 #
coedge $-1 $290 $291 $292 $293 reversed $134 $-1 #
edge $-1 $294 1 $294 0 $135 $-1 forward 7 unknown #
vertex $-1 $136 $295 #
ellipse-curve $-1 48.565349480084691 -18.477400032567346 8.6080543795618336 0.86602541151947299 0 0.49999998660252726 0.49999998660252726 0 -0.86602541151947299 1 I I #
point $-1 50.604859162283333 -18.477400032567346 8.6308652734597189 #
plane-surface $-1 52.045045319986571 0 0 -1 0 0 0 0 1 forward_v I I I I #
coedge $-1 $144 $142 $146 $225 reversed $82 $-1 #
edge $-1 $157 -12.857391783117187 $227 12.857391783117187 $156 $296 forward 7 unknown #
vertex $-1 $225 $297 #
straight-curve $-1 -52.045045319986571 -25.796502275184359 0 0 0 -1 I I #
edge $-1 $223 -25.796502275184359 $227 25.796502275184359 $221 $298 forward 7 unknown #
straight-curve $-1 0 -25.796502275184359 -12.857391783117187 -1 0 0 I I #
vertex $-1 $149 $299 #
straight-curve $-1 0 25.796502275184359 -12.857391783117187 1 0 0 I I #
point $-1 52.045045319986571 25.796502275184359 -12.857391783117187 #
point $-1 52.045045319986571 -25.796502275184359 -12.857391783117187 #
straight-curve $-1 -52.045045319986571 0 12.857391783117187 0 -1 0 I I #
point $-1 -52.045045319986571 25.796502275184359 12.857391783117187 #
point $-1 -52.045045319986571 -25.796502275184359 12.857391783117187 #
straight-curve $-1 52.045045319986571 -25.796502275184359 0 0 0 -1 I I #
straight-curve $-1 52.045045319986571 25.796502275184359 0 0 0 -1 I I #
face $-1 $300 $182 $13 $-1 $301 reversed single #
plane-surface $-1 0 0 12.857391783117187 0 0 1 1 0 0 forward_v I I I I #
coedge $-1 $302 $168 $303 $304 reversed $101 $-1 #
coedge $-1 $168 $302 $305 $306 reversed $101 $-1 #
coedge $-1 $305 $172 $169 $241 forward $182 $-1 #
edge $-1 $177 -5.5046721424113088 $244 5.5046721424113088 $169 $307 forward 7 unknown #
coedge $-1 $174 $303 $170 $243 forward $186 $-1 #
edge $-1 $245 -5.5046721424113088 $176 5.5046721424113088 $170 $308 forward 7 unknown #
vertex $-1 $306 $309 #
vertex $-1 $243 $310 #
straight-curve $-1 -52.045045319986571 -0.081718708949983565 0 0 0 1 I I #
straight-curve $-1 -63.054389604809188 -3.8001092163004699 -12.857391783117187 0 1 0 I I #
straight-curve $-1 -63.054389604809188 -3.8001092163004699 12.857391783117187 0 -1 0 I I #
point $-1 -63.054389604809188 -0.081718708949983565 12.857391783117187 #
point $-1 -63.054389604809188 -0.081718708949983565 -12.857391783117187 #
coedge $-1 $311 $179 $181 $255 reversed $167 $-1 #
coedge $-1 $179 $311 $185 $259 reversed $167 $-1 #
straight-curve $-1 -52.045045319986571 -7.5184997236509563 0 0 0 -1 I I #
coedge $-1 $181 $256 $312 $313 forward $182 $-1 #
edge $-1 $314 -25.796502275184359 $183 -7.5184997236509563 $251 $315 forward 7 unknown #
coedge $-1 $254 $316 $317 $318 forward $182 $-1 #
point $-1 -52.045045319986571 -7.5184997236509563 -12.857391783117187 #
coedge $-1 $260 $185 $319 $320 forward $186 $-1 #
edge $-1 $187 7.5184997236509563 $321 25.796502275184359 $252 $322 forward 7 unknown #
coedge $-1 $323 $258 $324 $325 forward $186 $-1 #
point $-1 -52.045045319986571 -7.5184997236509563 12.857391783117187 #
face $-1 $326 $327 $14 $-1 $328 reversed single #
loop $-1 $-1 $329 $191 #
plane-surface $-1 -63.054389604809188 -3.8001092163004699 0 1 0 0 0 0 -1 forward_v I I I I #
coedge $-1 $330 $331 $332 $333 forward $192 $-1 #
coedge $-1 $194 $207 $334 $335 reversed $66 $-1 #
coedge $-1 $336 $195 $194 $268 forward $269 $-1 #
edge $-1 $197 -11.158297789950332 $337 25.796502275184359 $194 $338 forward 7 unknown #
loop $-1 $-1 $195 $339 #
straight-curve $-1 45.072332488063068 -11.158297789950332 12.857391783117194 1 0 0 I I #
point $-1 52.045045319986571 -11.158297789950332 12.857391783117187 #
coedge $-1 $199 $340 $203 $276 forward $269 $-1 #
straight-curve $-1 48.164673031375031 -9.2387000162836728 12.85739178311718 0 1 0 I I #
point $-1 48.164673031375038 -11.158297789950332 12.85739178311718 #
coedge $-1 $277 $203 $341 $342 forward $117 $-1 #
edge $-1 $343 -52.045045319986571 $205 48.164673031375038 $203 $344 forward 7 unknown #
coedge $-1 $204 $275 $345 $346 reversed $117 $-1 #
point $-1 48.164673031375038 -25.796502275184359 12.85739178311718 #
coedge $-1 $345 $347 $207 $280 forward $348 $-1 #
edge $-1 $349 -25.796502275184359 $281 25.796502275184359 $207 $350 forward 7 unknown #
vertex $-1 $208 $351 #
straight-curve $-1 52.045045319986571 -25.796502275184359 0 0 0 -1 I I #
face $-1 $352 $353 $15 $-1 $354 reversed single #
loop $-1 $-1 $355 $211 #
plane-surface $-1 0 -25.796502275184359 0 0 1 0 0 0 1 forward_v I I I I #
coedge $-1 $292 $356 $214 $289 forward $212 $-1 #
coedge $-1 $288 $214 $357 $358 reversed $132 $-1 #
coedge $-1 $214 $287 $290 $359 forward $132 $-1 #
edge $-1 $360 61.305656763815598 $361 68.026658960091609 $286 $362 forward 7 unknown #
coedge $-1 $363 $215 $288 $359 reversed $134 $-1 #
coedge $-1 $215 $363 $355 $364 reversed $134 $-1 #
coedge $-1 $365 $286 $215 $293 forward $212 $-1 #
edge $-1 $361 1.9195977736666592 $366 16.557802258900686 $292 $367 forward 7 unknown #
vertex $-1 $216 $368 #
point $-1 49.065349466687216 -18.477400032567346 7.7420289680423604 #
straight-curve $-1 -52.045045319986571 25.796502275184359 0 0 0 -1 I I #
point $-1 -52.045045319986571 -25.796502275184359 -12.857391783117187 #
straight-curve $-1 -52.045045319986571 0 -12.857391783117187 0 1 0 I I #
point $-1 -52.045045319986571 25.796502275184359 -12.857391783117187 #
face $-1 $369 $370 $13 $-1 $371 reversed single #
plane-surface $-1 0 0 -12.857391783117187 0 0 1 1 0 0 forward_v I I I I #
coedge $-1 $239 $238 $372 $373 forward $101 $-1 #
coedge $-1 $242 $323 $238 $304 forward $186 $-1 #
edge $-1 $374 -25.796502275184359 $245 0.081718708949983565 $238 $322 forward 7 unknown #
coedge $-1 $316 $240 $239 $306 forward $182 $-1 #
edge $-1 $244 -0.081718708949983565 $375 25.796502275184359 $239 $315 forward 7 unknown #
straight-curve $-1 -57.549717462397879 -0.081718708949983565 -12.857391783117187 1 0 0 I I #
straight-curve $-1 -57.549717462397879 -0.081718708949983565 12.857391783117187 -1 0 0 I I #
point $-1 -52.045045319986571 -0.081718708949983565 -12.857391783117187 #
point $-1 -52.045045319986571 -0.081718708949983565 12.857391783117187 #
coedge $-1 $252 $251 $376 $377 reversed $167 $-1 #
coedge $-1 $378 $376 $254 $313 reversed $370 $-1 #
edge $-1 $379 -52.045045319986571 $314 52.045045319986571 $312 $380 forward 7 unknown #
vertex $-1 $255 $381 #
straight-curve $-1 -52.045045319986571 0 -12.857391783117187 0 1 0 I I #
coedge $-1 $256 $305 $382 $383 forward $182 $-1 #
coedge $-1 $384 $385 $256 $318 reversed $386 $-1 #
edge $-1 $387 -25.796502275184359 $379 25.796502275184359 $317 $388 forward 7 unknown #
coedge $-1 $376 $378 $258 $320 reversed $370 $-1 #
edge $-1 $321 -52.045045319986571 $389 52.045045319986571 $319 $390 forward 7 unknown #
vertex $-1 $259 $391 #
straight-curve $-1 -52.045045319986571 0 12.857391783117187 0 -1 0 I I #
coedge $-1 $303 $260 $392 $393 forward $186 $-1 #
coedge $-1 $385 $384 $260 $325 reversed $386 $-1 #
edge $-1 $389 -25.796502275184359 $394 25.796502275184359 $324 $395 forward 7 unknown #
face $-1 $396 $397 $14 $-1 $398 reversed single #
loop $-1 $-1 $399 $262 #
plane-surface $-1 -57.549717462397879 -0.081718708949983565 0 0 -1 0 0 0 -1 forward_v I I I I #
coedge $-1 $400 $401 $402 $403 forward $263 $-1 #
coedge $-1 $404 $265 $405 $406 reversed $192 $-1 #
coedge $-1 $265 $404 $407 $408 reversed $192 $-1 #
coedge $-1 $401 $400 $265 $333 reversed $263 $-1 #
edge $-1 $409 -12.857391783117187 $410 12.857391783117187 $332 $411 forward 7 unknown #
coedge $-1 $412 $413 $266 $335 forward $414 $-1 #
edge $-1 $337 -12.857391783117187 $349 12.857391783117187 $266 $415 forward 7 unknown #
coedge $-1 $416 $267 $413 $417 forward $269 $-1 #
vertex $-1 $268 $418 #
straight-curve $-1 52.045045319986571 0 12.857391783117187 0 1 0 I I #
face $-1 $419 $269 $14 $-1 $420 forward single #
coedge $-1 $272 $407 $421 $422 forward $269 $-1 #
coedge $-1 $421 $423 $275 $342 reversed $424 $-1 #
edge $-1 $343 -12.857391783117187 $425 12.857391783117187 $341 $426 forward 7 unknown #
vertex $-1 $422 $427 #
straight-curve $-1 0 -25.796502275184359 12.857391783117187 1 0 0 I I #
coedge $-1 $428 $279 $277 $346 forward $348 $-1 #
edge $-1 $281 -52.045045319986571 $425 52.045045319986571 $277 $429 forward 7 unknown #
coedge $-1 $279 $430 $412 $431 forward $348 $-1 #
loop $-1 $-1 $279 $419 #
vertex $-1 $280 $432 #
straight-curve $-1 52.045045319986571 0 -12.857391783117187 0 -1 0 I I #
point $-1 52.045045319986571 -25.796502275184359 -12.857391783117187 #
face $-1 $433 $434 $15 $-1 $435 reversed single #
loop $-1 $-1 $436 $283 #
plane-surface $-1 -57.549717462397879 -7.5184997236509563 0 0 1 0 0 0 1 forward_v I I I I #
coedge $-1 $437 $438 $291 $364 forward $284 $-1 #
coedge $-1 $286 $439 $440 $441 reversed $212 $-1 #
coedge $-1 $440 $442 $287 $358 forward $443 $-1 #
edge $-1 $444 3.0923405433119697 $360 6.9727128319235021 $357 $445 forward 7 unknown #
edge $-1 $444 96.329345854801318 $361 104.09009063997311 $288 $446 forward 7 unknown #
vertex $-1 $441 $447 #
vertex $-1 $293 $448 #
straight-curve $-1 52.045045319986571 -11.158297789950332 74.163048546932785 0 0 -1 I I #
coedge $-1 $291 $290 $442 $449 reversed $134 $-1 #
edge $-1 $366 -62.39917164275321 $450 -54.638426857581408 $355 $451 forward 7 unknown #
coedge $-1 $452 $292 $438 $453 forward $212 $-1 #
vertex $-1 $453 $454 #
straight-curve $-1 52.045045319986571 -9.2387000162836728 6.1363895868411689 0 -1 0 I I #
point $-1 47.699324068565218 -18.477400032567346 8.1080543929593052 #
face $-1 $455 $456 $13 $-1 $457 reversed single #
loop $-1 $-1 $376 $300 #
plane-surface $-1 0 -25.796502275184359 0 0 1 0 0 0 1 forward_v I I I I #
coedge $-1 $392 $382 $302 $373 reversed $456 $-1 #
edge $-1 $374 -12.857391783117187 $375 12.857391783117187 $372 $458 forward 7 unknown #
vertex $-1 $393 $459 #
vertex $-1 $383 $460 #
coedge $-1 $312 $319 $311 $377 forward $370 $-1 #
edge $-1 $321 -12.857391783117187 $314 12.857391783117187 $311 $461 forward 7 unknown #
coedge $-1 $319 $312 $385 $462 reversed $370 $-1 #
vertex $-1 $462 $463 #
straight-curve $-1 0 -25.796502275184359 -12.857391783117187 -1 0 0 I I #
point $-1 -52.045045319986571 -25.796502275184359 -12.857391783117187 #
coedge $-1 $372 $464 $316 $383 reversed $456 $-1 #
edge $-1 $375 -52.045045319986571 $387 52.045045319986571 $382 $465 forward 7 unknown #
coedge $-1 $324 $317 $464 $466 reversed $386 $-1 #
coedge $-1 $317 $324 $378 $462 forward $386 $-1 #
loop $-1 $-1 $385 $455 #
vertex $-1 $318 $467 #
straight-curve $-1 52.045045319986571 0 -12.857391783117187 0 -1 0 I I #
vertex $-1 $325 $468 #
straight-curve $-1 0 -25.796502275184359 12.857391783117187 1 0 0 I I #
point $-1 -52.045045319986571 -25.796502275184359 12.857391783117187 #
coedge $-1 $464 $372 $323 $393 reversed $456 $-1 #
edge $-1 $394 -52.045045319986571 $374 52.045045319986571 $392 $469 forward 7 unknown #
vertex $-1 $325 $470 #
straight-curve $-1 52.045045319986571 0 12.857391783117187 0 1 0 I I #
face $-1 $339 $424 $14 $-1 $398 reversed single #
loop $-1 $-1 $471 $326 #
plane-surface $-1 -52.045045319986571 0 0 1 0 0 0 0 -1 forward_v I I I I #
coedge $-1 $472 $473 $471 $474 reversed $327 $-1 #
coedge $-1 $332 $329 $475 $476 reversed $263 $-1 #
coedge $-1 $329 $332 $477 $478 reversed $263 $-1 #
coedge $-1 $473 $472 $329 $403 reversed $327 $-1 #
edge $-1 $479 -12.857391783117187 $480 12.857391783117187 $402 $481 forward 7 unknown #
coedge $-1 $331 $330 $482 $483 reversed $192 $-1 #
coedge $-1 $475 $428 $330 $406 forward $348 $-1 #
edge $-1 $484 -5.5046721424113088 $410 5.5046721424113088 $330 $485 forward 7 unknown #
coedge $-1 $340 $477 $331 $408 forward $269 $-1 #
edge $-1 $409 -5.5046721424113088 $486 5.5046721424113088 $331 $487 forward 7 unknown #
vertex $-1 $478 $488 #
vertex $-1 $476 $489 #
straight-curve $-1 -63.054389604809188 -7.5184997236509563 0 0 0 -1 I I #
coedge $-1 $490 $334 $347 $431 reversed $414 $-1 #
coedge $-1 $334 $490 $336 $417 reversed $414 $-1 #
loop $-1 $-1 $334 $491 #
straight-curve $-1 52.045045319986571 25.796502275184359 0 0 0 -1 I I #
coedge $-1 $492 $336 $493 $494 forward $269 $-1 #
edge $-1 $337 -52.045045319986571 $495 52.045045319986571 $413 $496 forward 7 unknown #
point $-1 52.045045319986571 25.796502275184359 12.857391783117187 #
face $-1 $491 $348 $14 $-1 $497 reversed single #
plane-surface $-1 0 0 12.857391783117187 0 0 1 1 0 0 forward_v I I I I #
coedge $-1 $482 $341 $340 $422 reversed $424 $-1 #
edge $-1 $486 7.5184997236509563 $343 25.796502275184359 $421 $498 forward 7 unknown #
coedge $-1 $341 $482 $428 $499 reversed $424 $-1 #
loop $-1 $-1 $482 $396 #
vertex $-1 $499 $500 #
straight-curve $-1 -52.045045319986571 -25.796502275184359 0 0 0 -1 I I #
point $-1 -52.045045319986571 -25.796502275184359 12.857391783117187 #
coedge $-1 $405 $345 $423 $499 forward $348 $-1 #
straight-curve $-1 0 -25.796502275184359 -12.857391783117187 -1 0 0 I I #
coedge $-1 $347 $501 $502 $503 forward $348 $-1 #
edge $-1 $504 -52.045045319986571 $349 52.045045319986571 $412 $505 forward 7 unknown #
point $-1 52.045045319986571 25.796502275184359 -12.857391783117187 #
face $-1 $506 $507 $15 $-1 $508 reversed single #
loop $-1 $-1 $509 $352 #
plane-surface $-1 -63.054389604809188 -3.8001092163004699 0 1 0 0 0 0 -1 forward_v I I I I #
coedge $-1 $510 $511 $512 $513 forward $353 $-1 #
coedge $-1 $514 $355 $515 $516 reversed $284 $-1 #
coedge $-1 $355 $517 $365 $453 reversed $284 $-1 #
coedge $-1 $356 $452 $518 $519 reversed $212 $-1 #
coedge $-1 $520 $357 $356 $441 forward $443 $-1 #
edge $-1 $360 -11.158297789950332 $521 25.796502275184359 $356 $522 forward 7 unknown #
coedge $-1 $357 $515 $363 $449 forward $443 $-1 #
loop $-1 $-1 $357 $523 #
vertex $-1 $449 $524 #
straight-curve $-1 45.072332488063068 -11.158297789950332 12.857391783117194 1 0 0 I I #
straight-curve $-1 1.3945441565965666e-006 -11.158297789950332 96.281053168423142 0.49999998660252726 0 -0.86602541151947299 I I #
point $-1 52.045045319986571 -11.158297789950332 12.857391783117187 #
point $-1 52.045045319986571 -11.158297789950332 6.136389586841176 #
edge $-1 $450 -16.557802258900686 $444 -1.9195977736666592 $442 $525 forward 7 unknown #
vertex $-1 $449 $526 #
straight-curve $-1 20.845460334601167 -25.796502275184359 60.175657887230741 -0.49999998660252726 0 0.86602541151947299 I I #
coedge $-1 $439 $365 $527 $528 reversed $212 $-1 #
edge $-1 $366 -6.1363895868411644 $529 12.857391783117187 $365 $530 forward 7 unknown #
point $-1 52.045045319986571 -25.796502275184359 6.1363895868411644 #
face $-1 $-1 $386 $13 $-1 $531 reversed single #
loop $-1 $-1 $464 $369 #
plane-surface $-1 0 25.796502275184359 0 0 -1 0 0 0 -1 forward_v I I I I #
straight-curve $-1 -52.045045319986571 25.796502275184359 0 0 0 -1 I I #
point $-1 -52.045045319986571 25.796502275184359 12.857391783117187 #
point $-1 -52.045045319986571 25.796502275184359 -12.857391783117187 #
straight-curve $-1 -52.045045319986571 -25.796502275184359 0 0 0 -1 I I #
edge $-1 $389 -12.857391783117187 $379 12.857391783117187 $385 $532 forward 7 unknown #
point $-1 52.045045319986571 -25.796502275184359 -12.857391783117187 #
coedge $-1 $382 $392 $384 $466 forward $456 $-1 #
straight-curve $-1 0 25.796502275184359 -12.857391783117187 1 0 0 I I #
edge $-1 $394 -12.857391783117187 $387 12.857391783117187 $384 $533 forward 7 unknown #
point $-1 52.045045319986571 25.796502275184359 -12.857391783117187 #
point $-1 52.045045319986571 -25.796502275184359 12.857391783117187 #
straight-curve $-1 0 25.796502275184359 12.857391783117187 -1 0 0 I I #
point $-1 52.045045319986571 25.796502275184359 12.857391783117187 #
coedge $-1 $493 $502 $399 $474 forward $397 $-1 #
coedge $-1 $402 $399 $501 $534 reversed $327 $-1 #
coedge $-1 $399 $402 $492 $535 reversed $327 $-1 #
edge $-1 $536 -12.857391783117187 $537 12.857391783117187 $471 $538 forward 7 unknown #
coedge $-1 $501 $405 $400 $476 forward $348 $-1 #
edge $-1 $410 -3.7183905073504864 $480 3.7183905073504864 $400 $539 forward 7 unknown #
coedge $-1 $407 $492 $401 $478 forward $269 $-1 #
edge $-1 $479 -3.7183905073504864 $409 3.7183905073504864 $401 $540 forward 7 unknown #
vertex $-1 $535 $541 #
vertex $-1 $534 $542 #
straight-curve $-1 -63.054389604809188 -0.081718708949983565 0 0 0 -1 I I #
coedge $-1 $423 $421 $404 $483 forward $424 $-1 #
edge $-1 $486 -12.857391783117187 $484 12.857391783117187 $482 $543 forward 7 unknown #
vertex $-1 $406 $544 #
straight-curve $-1 -57.549717462397879 -7.5184997236509563 -12.857391783117187 -1 0 0 I I #
vertex $-1 $422 $545 #
straight-curve $-1 -57.549717462397879 -7.5184997236509563 12.857391783117187 1 0 0 I I #
point $-1 -63.054389604809188 -7.5184997236509563 12.857391783117187 #
point $-1 -63.054389604809188 -7.5184997236509563 -12.857391783117187 #
coedge $-1 $413 $412 $546 $547 reversed $414 $-1 #
face $-1 $-1 $414 $14 $-1 $548 reversed single #
coedge $-1 $477 $416 $473 $535 forward $269 $-1 #
coedge $-1 $546 $471 $416 $494 reversed $397 $-1 #
edge $-1 $495 -25.796502275184359 $537 0.081718708949983565 $493 $498 forward 7 unknown #
vertex $-1 $417 $549 #
straight-curve $-1 0 25.796502275184359 12.857391783117187 -1 0 0 I I #
plane-surface $-1 0 0 -12.857391783117187 0 0 1 1 0 0 forward_v I I I I #
straight-curve $-1 -52.045045319986571 0 12.857391783117187 0 -1 0 I I #
edge $-1 $425 -25.796502275184359 $484 -7.5184997236509563 $423 $550 forward 7 unknown #
point $-1 -52.045045319986571 -25.796502275184359 -12.857391783117187 #
coedge $-1 $430 $475 $472 $534 forward $348 $-1 #
coedge $-1 $471 $546 $430 $503 reversed $397 $-1 #
edge $-1 $536 -0.081718708949983565 $504 25.796502275184359 $502 $550 forward 7 unknown #
vertex $-1 $431 $551 #
straight-curve $-1 0 25.796502275184359 -12.857391783117187 1 0 0 I I #
face $-1 $552 $553 $15 $-1 $554 reversed single #
loop $-1 $-1 $555 $433 #
plane-surface $-1 -57.549717462397879 -0.081718708949983565 0 0 -1 0 0 0 -1 forward_v I I I I #
coedge $-1 $556 $557 $558 $559 forward $434 $-1 #
coedge $-1 $560 $436 $561 $562 reversed $353 $-1 #
coedge $-1 $436 $560 $563 $564 reversed $353 $-1 #
coedge $-1 $557 $556 $436 $513 reversed $434 $-1 #
edge $-1 $565 -12.857391783117187 $566 12.857391783117187 $512 $567 forward 7 unknown #
coedge $-1 $517 $437 $568 $569 forward $284 $-1 #
coedge $-1 $442 $570 $437 $516 forward $443 $-1 #
edge $-1 $571 -52.045045319986571 $450 48.164673031375038 $437 $572 forward 7 unknown #
coedge $-1 $438 $514 $573 $574 reversed $284 $-1 #
coedge $-1 $575 $576 $439 $519 forward $577 $-1 #
edge $-1 $521 -12.857391783117187 $578 12.857391783117187 $439 $579 forward 7 unknown #
coedge $-1 $580 $440 $576 $581 forward $443 $-1 #
vertex $-1 $441 $582 #
straight-curve $-1 52.045045319986571 0 12.857391783117187 0 1 0 I I #
face $-1 $583 $443 $15 $-1 $584 forward single #
point $-1 48.164673031375038 -11.158297789950332 12.85739178311718 #
straight-curve $-1 48.164673031375031 -9.2387000162836728 12.85739178311718 0 1 0 I I #
point $-1 48.164673031375038 -25.796502275184359 12.85739178311718 #
coedge $-1 $573 $585 $452 $528 forward $586 $-1 #
edge $-1 $578 -25.796502275184359 $529 25.796502275184359 $452 $587 forward 7 unknown #
vertex $-1 $453 $588 #
straight-curve $-1 52.045045319986571 -25.796502275184359 0 0 0 -1 I I #
plane-surface $-1 52.045045319986571 0 0 -1 0 0 0 0 1 forward_v I I I I #
straight-curve $-1 52.045045319986571 -25.796502275184359 0 0 0 -1 I I #
straight-curve $-1 52.045045319986571 25.796502275184359 0 0 0 -1 I I #
edge $-1 $480 -5.5046721424113088 $536 5.5046721424113088 $472 $589 forward 7 unknown #
edge $-1 $537 -5.5046721424113088 $479 5.5046721424113088 $473 $590 forward 7 unknown #
vertex $-1 $503 $591 #
vertex $-1 $535 $592 #
straight-curve $-1 -52.045045319986571 -0.081718708949983565 0 0 0 1 I I #
straight-curve $-1 -63.054389604809188 -3.8001092163004699 -12.857391783117187 0 1 0 I I #
straight-curve $-1 -63.054389604809188 -3.8001092163004699 12.857391783117187 0 -1 0 I I #
point $-1 -63.054389604809188 -0.081718708949983565 12.857391783117187 #
point $-1 -63.054389604809188 -0.081718708949983565 -12.857391783117187 #
straight-curve $-1 -52.045045319986571 -7.5184997236509563 0 0 0 -1 I I #
point $-1 -52.045045319986571 -7.5184997236509563 -12.857391783117187 #
point $-1 -52.045045319986571 -7.5184997236509563 12.857391783117187 #
coedge $-1 $502 $493 $490 $547 forward $397 $-1 #
edge $-1 $495 -12.857391783117187 $504 12.857391783117187 $490 $593 forward 7 unknown #
plane-surface $-1 0 25.796502275184359 0 0 -1 0 0 0 -1 forward_v I I I I #
point $-1 -52.045045319986571 25.796502275184359 12.857391783117187 #
straight-curve $-1 -52.045045319986571 0 -12.857391783117187 0 1 0 I I #
point $-1 -52.045045319986571 25.796502275184359 -12.857391783117187 #
face $-1 $523 $594 $15 $-1 $554 reversed single #
loop $-1 $-1 $595 $506 #
plane-surface $-1 -52.045045319986571 0 0 1 0 0 0 0 -1 forward_v I I I I #
coedge $-1 $596 $597 $595 $598 reversed $507 $-1 #
coedge $-1 $512 $509 $599 $600 reversed $434 $-1 #
coedge $-1 $509 $512 $601 $602 reversed $434 $-1 #
coedge $-1 $597 $596 $509 $559 reversed $507 $-1 #
edge $-1 $603 -12.857391783117187 $604 12.857391783117187 $558 $605 forward 7 unknown #
coedge $-1 $511 $510 $606 $607 reversed $353 $-1 #
coedge $-1 $599 $608 $510 $562 forward $586 $-1 #
edge $-1 $609 -5.5046721424113088 $566 5.5046721424113088 $510 $610 forward 7 unknown #
coedge $-1 $570 $601 $511 $564 forward $443 $-1 #
edge $-1 $565 -5.5046721424113088 $611 5.5046721424113088 $511 $612 forward 7 unknown #
vertex $-1 $602 $613 #
vertex $-1 $600 $614 #
straight-curve $-1 -63.054389604809188 -7.5184997236509563 0 0 0 -1 I I #
coedge $-1 $615 $616 $514 $569 reversed $594 $-1 #
edge $-1 $571 -12.857391783117187 $617 12.857391783117187 $568 $618 forward 7 unknown #
coedge $-1 $515 $563 $615 $619 forward $443 $-1 #
vertex $-1 $619 $620 #
straight-curve $-1 0 -25.796502275184359 12.857391783117187 1 0 0 I I #
coedge $-1 $608 $527 $517 $574 forward $586 $-1 #
edge $-1 $529 -52.045045319986571 $617 52.045045319986571 $517 $621 forward 7 unknown #
coedge $-1 $622 $518 $585 $623 reversed $577 $-1 #
coedge $-1 $518 $622 $520 $581 reversed $577 $-1 #
loop $-1 $-1 $518 $624 #
vertex $-1 $528 $625 #
straight-curve $-1 52.045045319986571 25.796502275184359 0 0 0 -1 I I #
coedge $-1 $626 $520 $627 $628 forward $443 $-1 #
edge $-1 $521 -52.045045319986571 $629 52.045045319986571 $576 $630 forward 7 unknown #
point $-1 52.045045319986571 25.796502275184359 12.857391783117187 #
face $-1 $624 $586 $15 $-1 $631 reversed single #
plane-surface $-1 0 0 12.857391783117187 0 0 1 1 0 0 forward_v I I I I #
coedge $-1 $527 $632 $575 $623 forward $586 $-1 #
loop $-1 $-1 $527 $583 #
straight-curve $-1 52.045045319986571 0 -12.857391783117187 0 -1 0 I I #
point $-1 52.045045319986571 -25.796502275184359 -12.857391783117187 #
straight-curve $-1 -57.549717462397879 -0.081718708949983565 -12.857391783117187 1 0 0 I I #
straight-curve $-1 -57.549717462397879 -0.081718708949983565 12.857391783117187 -1 0 0 I I #
point $-1 -52.045045319986571 -0.081718708949983565 -12.857391783117187 #
point $-1 -52.045045319986571 -0.081718708949983565 12.857391783117187 #
straight-curve $-1 -52.045045319986571 25.796502275184359 0 0 0 -1 I I #
loop $-1 $-1 $606 $552 #
coedge $-1 $627 $633 $555 $598 forward $553 $-1 #
coedge $-1 $558 $555 $634 $635 reversed $507 $-1 #
coedge $-1 $555 $558 $626 $636 reversed $507 $-1 #
edge $-1 $637 -12.857391783117187 $638 12.857391783117187 $595 $639 forward 7 unknown #
coedge $-1 $634 $561 $556 $600 forward $586 $-1 #
edge $-1 $566 -3.7183905073504864 $604 3.7183905073504864 $556 $640 forward 7 unknown #
coedge $-1 $563 $626 $557 $602 forward $443 $-1 #
edge $-1 $603 -3.7183905073504864 $565 3.7183905073504864 $557 $641 forward 7 unknown #
vertex $-1 $636 $642 #
vertex $-1 $635 $643 #
straight-curve $-1 -63.054389604809188 -0.081718708949983565 0 0 0 -1 I I #
coedge $-1 $616 $615 $560 $607 forward $594 $-1 #
edge $-1 $611 -12.857391783117187 $609 12.857391783117187 $606 $644 forward 7 unknown #
coedge $-1 $561 $573 $616 $645 forward $586 $-1 #
vertex $-1 $562 $646 #
straight-curve $-1 -57.549717462397879 -7.5184997236509563 -12.857391783117187 -1 0 0 I I #
vertex $-1 $619 $647 #
straight-curve $-1 -57.549717462397879 -7.5184997236509563 12.857391783117187 1 0 0 I I #
point $-1 -63.054389604809188 -7.5184997236509563 12.857391783117187 #
point $-1 -63.054389604809188 -7.5184997236509563 -12.857391783117187 #
coedge $-1 $606 $568 $570 $619 reversed $594 $-1 #
coedge $-1 $568 $606 $608 $645 reversed $594 $-1 #
vertex $-1 $645 $648 #
straight-curve $-1 -52.045045319986571 -25.796502275184359 0 0 0 -1 I I #
edge $-1 $611 7.5184997236509563 $571 25.796502275184359 $615 $649 forward 7 unknown #
point $-1 -52.045045319986571 -25.796502275184359 12.857391783117187 #
straight-curve $-1 0 -25.796502275184359 -12.857391783117187 -1 0 0 I I #
coedge $-1 $576 $575 $650 $651 reversed $577 $-1 #
edge $-1 $652 -52.045045319986571 $578 52.045045319986571 $575 $653 forward 7 unknown #
face $-1 $-1 $577 $15 $-1 $654 reversed single #
point $-1 52.045045319986571 25.796502275184359 -12.857391783117187 #
coedge $-1 $601 $580 $597 $636 forward $443 $-1 #
coedge $-1 $650 $595 $580 $628 reversed $553 $-1 #
edge $-1 $629 -25.796502275184359 $638 0.081718708949983565 $627 $649 forward 7 unknown #
vertex $-1 $581 $655 #
straight-curve $-1 0 25.796502275184359 12.857391783117187 -1 0 0 I I #
plane-surface $-1 0 0 -12.857391783117187 0 0 1 1 0 0 forward_v I I I I #
coedge $-1 $585 $634 $633 $656 forward $586 $-1 #
coedge $-1 $595 $650 $632 $656 reversed $553 $-1 #
coedge $-1 $632 $599 $596 $635 forward $586 $-1 #
edge $-1 $604 -5.5046721424113088 $637 5.5046721424113088 $596 $657 forward 7 unknown #
edge $-1 $638 -5.5046721424113088 $603 5.5046721424113088 $597 $658 forward 7 unknown #
vertex $-1 $656 $659 #
vertex $-1 $636 $660 #
straight-curve $-1 -52.045045319986571 -0.081718708949983565 0 0 0 1 I I #
straight-curve $-1 -63.054389604809188 -3.8001092163004699 -12.857391783117187 0 1 0 I I #
straight-curve $-1 -63.054389604809188 -3.8001092163004699 12.857391783117187 0 -1 0 I I #
point $-1 -63.054389604809188 -0.081718708949983565 12.857391783117187 #
point $-1 -63.054389604809188 -0.081718708949983565 -12.857391783117187 #
straight-curve $-1 -52.045045319986571 -7.5184997236509563 0 0 0 -1 I I #
edge $-1 $617 -25.796502275184359 $609 -7.5184997236509563 $616 $661 forward 7 unknown #
point $-1 -52.045045319986571 -7.5184997236509563 -12.857391783117187 #
point $-1 -52.045045319986571 -7.5184997236509563 12.857391783117187 #
point $-1 -52.045045319986571 -25.796502275184359 -12.857391783117187 #
straight-curve $-1 -52.045045319986571 0 12.857391783117187 0 -1 0 I I #
coedge $-1 $633 $627 $622 $651 forward $553 $-1 #
edge $-1 $629 -12.857391783117187 $652 12.857391783117187 $622 $662 forward 7 unknown #
vertex $-1 $623 $663 #
straight-curve $-1 0 25.796502275184359 -12.857391783117187 1 0 0 I I #
plane-surface $-1 0 25.796502275184359 0 0 -1 0 0 0 -1 forward_v I I I I #
point $-1 -52.045045319986571 25.796502275184359 12.857391783117187 #
edge $-1 $637 -0.081718708949983565 $652 25.796502275184359 $633 $661 forward 7 unknown #
straight-curve $-1 -57.549717462397879 -0.081718708949983565 -12.857391783117187 1 0 0 I I #
straight-curve $-1 -57.549717462397879 -0.081718708949983565 12.857391783117187 -1 0 0 I I #
point $-1 -52.045045319986571 -0.081718708949983565 -12.857391783117187 #
point $-1 -52.045045319986571 -0.081718708949983565 12.857391783117187 #
straight-curve $-1 -52.045045319986571 0 -12.857391783117187 0 1 0 I I #
straight-curve $-1 -52.045045319986571 25.796502275184359 0 0 0 -1 I I #
point $-1 -52.045045319986571 25.796502275184359 -12.857391783117187 #
End-of-ACIS-data 