500 0 13 0           
7 Unknown 11 ACIS 5.0 NT 24 Thu Mar 25 18:12:07 1999 
-1 9.9999999999999995e-007 1e-010 
body $-1 $13 $-1 $14 #
body $-1 $15 $-1 $16 #
body $-1 $17 $-1 $18 #
body $-1 $19 $-1 $20 #
body $-1 $21 $-1 $22 #
body $-1 $23 $-1 $24 #
body $-1 $25 $-1 $26 #
body $-1 $27 $-1 $28 #
body $-1 $29 $-1 $30 #
body $-1 $31 $-1 $32 #
body $-1 $33 $-1 $34 #
body $-1 $35 $-1 $36 #
body $-1 $37 $-1 $38 #
lump $-1 $-1 $39 $0 #
transform $-1 1 0 0 0 1 0 0 0 1 44.845118564409312 25.659449748731479 8.3329977314432639 1 rotate no_reflect no_shear #
lump $-1 $-1 $40 $1 #
transform $-1 1 0 0 0 1 0 0 0 1 44.845118564409312 25.659449748731479 8.3329977314432639 1 rotate no_reflect no_shear #
lump $-1 $-1 $41 $2 #
transform $-1 1 0 0 0 1 0 0 0 1 44.845118564409312 25.659449748731479 8.3329977314432639 1 rotate no_reflect no_shear #
lump $-1 $-1 $42 $3 #
transform $-1 1 0 0 0 1 0 0 0 1 44.845118564409312 25.659449748731479 8.3329977314432639 1 rotate no_reflect no_shear #
lump $-1 $-1 $43 $4 #
transform $-1 1 0 0 0 1 0 0 0 1 44.845118564409312 25.659449748731479 8.3329977314432639 1 rotate no_reflect no_shear #
lump $-1 $-1 $44 $5 #
transform $-1 1 0 0 0 1 0 0 0 1 44.845118564409312 25.659449748731479 8.3329977314432639 1 rotate no_reflect no_shear #
lump $-1 $-1 $45 $6 #
transform $-1 1 0 0 0 1 0 0 0 1 44.845118564409312 25.659449748731479 8.3329977314432639 1 rotate no_reflect no_shear #
lump $-1 $-1 $46 $7 #
transform $-1 1 0 0 0 1 0 0 0 1 44.845118564409312 25.659449748731479 8.3329977314432639 1 rotate no_reflect no_shear #
lump $-1 $-1 $47 $8 #
transform $-1 1 0 0 0 1 0 0 0 1 44.845118564409312 25.659449748731479 8.3329977314432639 1 rotate no_reflect no_shear #
lump $-1 $-1 $48 $9 #
transform $-1 1 0 0 0 1 0 0 0 1 44.845118564409312 25.659449748731479 8.3329977314432639 1 rotate no_reflect no_shear #
lump $-1 $-1 $49 $10 #
transform $-1 1 0 0 0 1 0 0 0 1 44.845118564409312 25.659449748731479 8.3329977314432639 1 rotate no_reflect no_shear #
lump $-1 $-1 $50 $11 #
transform $-1 1 0 0 0 1 0 0 0 1 44.845118564409312 25.659449748731479 8.3329977314432639 1 rotate no_reflect no_shear #
lump $-1 $-1 $51 $12 #
transform $-1 1 0 0 0 1 0 0 0 1 44.845118564409312 25.659449748731479 8.3329977314432639 1 rotate no_reflect no_shear #
shell $-1 $-1 $-1 $52 $-1 $13 #
shell $-1 $-1 $-1 $53 $-1 $15 #
shell $-1 $-1 $-1 $54 $-1 $17 #
shell $-1 $-1 $-1 $55 $-1 $19 #
shell $-1 $-1 $-1 $56 $-1 $21 #
shell $-1 $-1 $-1 $57 $-1 $23 #
shell $-1 $-1 $-1 $58 $-1 $25 #
shell $-1 $-1 $-1 $59 $-1 $27 #
shell $-1 $-1 $-1 $60 $-1 $29 #
shell $-1 $-1 $-1 $61 $-1 $31 #
shell $-1 $-1 $-1 $62 $-1 $33 #
shell $-1 $-1 $-1 $63 $-1 $35 #
shell $-1 $-1 $-1 $64 $-1 $37 #
face $-1 $65 $66 $39 $-1 $67 forward single #
face $-1 $68 $69 $40 $-1 $70 forward single #
face $-1 $71 $72 $41 $-1 $73 forward single #
face $-1 $74 $75 $42 $-1 $76 reversed single #
face $-1 $77 $78 $43 $-1 $79 forward single #
face $-1 $80 $81 $44 $-1 $82 reversed single #
face $-1 $83 $84 $45 $-1 $85 forward single #
face $-1 $86 $87 $46 $-1 $88 reversed single #
face $-1 $89 $90 $47 $-1 $91 forward single #
face $-1 $92 $93 $48 $-1 $94 forward single #
face $-1 $95 $96 $49 $-1 $97 reversed single #
face $-1 $98 $99 $50 $-1 $100 forward single #
face $-1 $101 $102 $51 $-1 $103 forward single #
face $-1 $104 $105 $39 $-1 $106 reversed single #
loop $-1 $-1 $107 $52 #
plane-surface $-1 0 0 8.3329977314432639 0 0 1 1 0 0 forward_v I I I I #
face $-1 $108 $109 $40 $-1 $110 forward single #
loop $-1 $-1 $111 $53 #
plane-surface $-1 -44.845118564409312 0 0 1 0 0 0 0 -1 forward_v I I I I #
face $-1 $112 $113 $41 $-1 $114 reversed single #
loop $-1 $-1 $115 $54 #
plane-surface $-1 44.845118564409312 0 0 -1 0 0 0 0 1 forward_v I I I I #
face $-1 $116 $117 $42 $-1 $118 reversed single #
loop $-1 $-1 $119 $55 #
plane-surface $-1 -25.389372678564584 52.792083947934842 102.42945686355085 1 0 0 0 -0.70710678939079041 -0.70710677298230451 forward_v I I I I #
face $-1 $120 $121 $43 $-1 $122 forward single #
loop $-1 $123 $124 $56 #
cone-surface $-1 -19.391360364433613 21.707563765308006 4.3811117094953493 0 -0.70710678939079041 -0.70710677298230451 1.5 0 0 1 I I 0 1 1.5 forward I I I I #
face $-1 $125 $126 $44 $-1 $127 reversed single #
loop $-1 $-1 $128 $57 #
plane-surface $-1 13.393348050302631 52.792083947934842 102.42945686355085 1 0 0 0 -0.70710678939079041 -0.70710677298230451 forward_v I I I I #
face $-1 $129 $130 $45 $-1 $131 forward single #
loop $-1 $132 $133 $58 #
cone-surface $-1 19.391360364433602 21.707563765308006 4.3811117094953493 0 -0.70710678939079041 -0.70710677298230451 1.5 0 0 1 I I 0 1 1.5 forward I I I I #
face $-1 $134 $135 $46 $-1 $136 reversed single #
loop $-1 $-1 $137 $59 #
plane-surface $-1 -9.2917540795867524 -96.336321840117904 58.083476016310208 -1 0 0 0 -0.78801076186113728 0.61566146476048833 forward_v I I I I #
face $-1 $138 $139 $47 $-1 $140 forward single #
loop $-1 $141 $142 $60 #
cone-surface $-1 -22.046724938264674 -22.501934987029433 4.8008630723295269 0 0.78801076186113728 -0.61566146476048833 1.5 0 0 1 I I 0 1 1.5 forward I I I I #
face $-1 $143 $144 $48 $-1 $145 forward single #
loop $-1 $146 $147 $61 #
cone-surface $-1 -14.393742423057923 -22.501934987029433 4.8008630723295269 0 0.78801076186113728 -0.61566146476048833 1.5 0 0 1 I I 0 1 1.5 forward I I I I #
face $-1 $148 $149 $49 $-1 $150 reversed single #
loop $-1 $-1 $151 $62 #
plane-surface $-1 27.148713281735834 -96.336321840117904 58.083476016310208 -1 0 0 0 -0.78801076186113728 0.61566146476048833 forward_v I I I I #
face $-1 $152 $153 $50 $-1 $154 forward single #
loop $-1 $155 $156 $63 #
cone-surface $-1 14.393742423057915 -22.501934987029433 4.8008630723295269 0 0.78801076186113728 -0.61566146476048833 1.5 0 0 1 I I 0 1 1.5 forward I I I I #
face $-1 $157 $158 $51 $-1 $159 forward single #
loop $-1 $160 $161 $64 #
cone-surface $-1 22.046724938264667 -22.501934987029433 4.8008630723295269 0 0.78801076186113728 -0.61566146476048833 1.5 0 0 1 I I 0 1 1.5 forward I I I I #
face $-1 $162 $163 $39 $-1 $164 reversed single #
loop $-1 $-1 $165 $65 #
plane-surface $-1 0 0 -8.3329977314432639 0 0 1 1 0 0 forward_v I I I I #
coedge $-1 $166 $167 $168 $169 forward $66 $-1 #
face $-1 $170 $171 $40 $-1 $172 reversed single #
loop $-1 $-1 $173 $68 #
plane-surface $-1 0 0 8.3329977314432639 0 0 1 1 0 0 forward_v I I I I #
coedge $-1 $174 $175 $176 $177 forward $69 $-1 #
face $-1 $178 $179 $41 $-1 $180 reversed single #
loop $-1 $-1 $181 $71 #
plane-surface $-1 0 -25.659449748731479 0 0 1 0 0 0 1 forward_v I I I I #
coedge $-1 $182 $183 $184 $185 forward $72 $-1 #
face $-1 $186 $187 $42 $-1 $188 reversed single #
loop $-1 $-1 $189 $74 #
plane-surface $-1 -19.391360364433613 -10.628491667922759 39.008882719374242 0 0.70710678939079041 0.70710677298230451 1 0 0 forward_v I I I I #
coedge $-1 $190 $191 $192 $193 reversed $75 $-1 #
face $-1 $-1 $194 $43 $-1 $195 forward single #
loop $-1 $196 $197 $77 #
cone-surface $-1 -19.391360364433613 20.031376260121601 2.7049242432050491 0 -0.70710678939079041 -0.70710677298230451 0.75 0 0 1 I I -0.70710678118654757 0.70710678118654757 0.75 forward I I I I #
loop $-1 $-1 $198 $56 #
coedge $-1 $124 $124 $199 $200 reversed $78 $-1 #
face $-1 $201 $202 $44 $-1 $203 reversed single #
loop $-1 $-1 $204 $80 #
plane-surface $-1 19.391360364433602 -10.628491667922759 39.008882719374242 0 0.70710678939079041 0.70710677298230451 1 0 0 forward_v I I I I #
coedge $-1 $205 $206 $207 $208 reversed $81 $-1 #
face $-1 $-1 $209 $45 $-1 $210 forward single #
loop $-1 $211 $212 $83 #
cone-surface $-1 19.391360364433602 20.031376260121601 2.7049242432050491 0 -0.70710678939079041 -0.70710677298230451 0.75 0 0 1 I I -0.70710678118654757 0.70710678118654757 0.75 forward I I I I #
loop $-1 $-1 $213 $58 #
coedge $-1 $133 $133 $214 $215 reversed $84 $-1 #
face $-1 $216 $217 $46 $-1 $218 reversed single #
loop $-1 $-1 $219 $86 #
plane-surface $-1 -18.220233680661298 -25.65944974873149 2.8646532508662048 0 -0.78801076186113728 0.61566146476048833 1 0 0 forward_v I I I I #
coedge $-1 $220 $221 $222 $223 reversed $87 $-1 #
face $-1 $-1 $224 $47 $-1 $225 forward single #
loop $-1 $226 $227 $89 #
cone-surface $-1 -22.046724938264674 -20.889581566628131 3.5411545549339536 0 0.78801076186113728 -0.61566146476048833 0.75 0 0 1 I I -0.70710678118654768 0.70710678118654735 0.75 forward I I I I #
loop $-1 $-1 $228 $60 #
coedge $-1 $142 $142 $229 $230 reversed $90 $-1 #
face $-1 $-1 $231 $48 $-1 $232 forward single #
loop $-1 $233 $234 $92 #
cone-surface $-1 -14.393742423057923 -20.889581566628131 3.5411545549339536 0 0.78801076186113728 -0.61566146476048833 0.75 0 0 1 I I -0.70710678118654768 0.70710678118654735 0.75 forward I I I I #
loop $-1 $-1 $235 $61 #
coedge $-1 $147 $147 $236 $237 reversed $93 $-1 #
face $-1 $238 $239 $49 $-1 $240 reversed single #
loop $-1 $-1 $241 $95 #
plane-surface $-1 18.220233680661288 -25.65944974873149 2.8646532508662048 0 -0.78801076186113728 0.61566146476048833 1 0 0 forward_v I I I I #
coedge $-1 $242 $243 $244 $245 reversed $96 $-1 #
face $-1 $-1 $246 $50 $-1 $247 forward single #
loop $-1 $248 $249 $98 #
cone-surface $-1 14.393742423057915 -20.889581566628131 3.5411545549339536 0 0.78801076186113728 -0.61566146476048833 0.75 0 0 1 I I -0.70710678118654768 0.70710678118654735 0.75 forward I I I I #
loop $-1 $-1 $250 $63 #
coedge $-1 $156 $156 $251 $252 reversed $99 $-1 #
face $-1 $-1 $253 $51 $-1 $254 forward single #
loop $-1 $255 $256 $101 #
cone-surface $-1 22.046724938264667 -20.889581566628131 3.5411545549339536 0 0.78801076186113728 -0.61566146476048833 0.75 0 0 1 I I -0.70710678118654768 0.70710678118654735 0.75 forward I I I I #
loop $-1 $-1 $257 $64 #
coedge $-1 $161 $161 $258 $259 reversed $102 $-1 #
face $-1 $260 $261 $39 $-1 $262 reversed single #
loop $-1 $-1 $263 $104 #
plane-surface $-1 0 -25.659449748731479 0 0 1 0 0 0 1 forward_v I I I I #
coedge $-1 $264 $265 $266 $267 forward $105 $-1 #
coedge $-1 $268 $107 $269 $270 forward $66 $-1 #
coedge $-1 $107 $268 $271 $272 forward $66 $-1 #
coedge $-1 $273 $274 $107 $169 reversed $275 $-1 #
edge $-1 $276 -25.659449748731479 $277 25.659449748731479 $168 $278 forward 7 unknown #
face $-1 $279 $280 $40 $-1 $281 reversed single #
loop $-1 $-1 $282 $108 #
plane-surface $-1 -53.857558113507444 -24.159449748731479 0 1 0 0 0 0 -1 forward_v I I I I #
coedge $-1 $283 $284 $174 $285 forward $109 $-1 #
coedge $-1 $286 $111 $173 $285 reversed $69 $-1 #
coedge $-1 $111 $286 $287 $288 reversed $69 $-1 #
coedge $-1 $289 $290 $111 $177 reversed $280 $-1 #
edge $-1 $291 -8.3329977314432639 $292 8.3329977314432639 $176 $293 forward 7 unknown #
face $-1 $294 $295 $41 $-1 $296 reversed single #
loop $-1 $-1 $297 $112 #
plane-surface $-1 0 0 -8.3329977314432639 0 0 1 1 0 0 forward_v I I I I #
coedge $-1 $298 $299 $300 $301 forward $113 $-1 #
coedge $-1 $300 $115 $297 $302 reversed $72 $-1 #
coedge $-1 $115 $300 $303 $304 reversed $72 $-1 #
coedge $-1 $305 $306 $115 $185 reversed $295 $-1 #
edge $-1 $307 -8.3329977314432639 $308 8.3329977314432639 $184 $309 forward 7 unknown #
face $-1 $310 $311 $42 $-1 $312 reversed single #
loop $-1 $-1 $313 $116 #
plane-surface $-1 -13.393348050302642 52.792083947934842 102.42945686355085 -1 0 0 0 0.70710678939079041 0.70710677298230451 forward_v I I I I #
coedge $-1 $314 $315 $316 $317 reversed $117 $-1 #
coedge $-1 $191 $119 $318 $319 reversed $75 $-1 #
coedge $-1 $119 $190 $314 $320 reversed $75 $-1 #
coedge $-1 $316 $321 $119 $193 forward $322 $-1 #
edge $-1 $323 0.73659222523594181 $324 6.3486493657962768 $192 $325 forward 7 unknown #
loop $-1 $-1 $199 $120 #
plane-surface $-1 -19.391360364433613 -10.628491667922759 39.008882719374242 0 0.70710678939079041 0.70710677298230451 1 0 0 forward_v I I I I #
loop $-1 $-1 $326 $77 #
coedge $-1 $197 $197 $198 $327 reversed $121 $-1 #
coedge $-1 $198 $198 $197 $327 forward $123 $-1 #
coedge $-1 $199 $199 $124 $200 forward $194 $-1 #
edge $-1 $328 -4.1869140489976383e-016 $328 6.2831853071796004 $199 $329 forward 7 unknown #
face $-1 $330 $331 $44 $-1 $332 forward single #
loop $-1 $-1 $333 $125 #
plane-surface $-1 25.389372678564573 52.792083947934842 102.42945686355085 -1 0 0 0 0.70710678939079041 0.70710677298230451 forward_v I I I I #
coedge $-1 $334 $335 $336 $337 reversed $126 $-1 #
coedge $-1 $206 $128 $338 $339 reversed $81 $-1 #
coedge $-1 $128 $205 $334 $340 reversed $81 $-1 #
coedge $-1 $336 $341 $128 $208 forward $331 $-1 #
edge $-1 $342 0.73659222523594181 $343 6.3486493657962768 $207 $344 forward 7 unknown #
loop $-1 $-1 $214 $129 #
plane-surface $-1 19.391360364433602 -10.628491667922759 39.008882719374242 0 0.70710678939079041 0.70710677298230451 1 0 0 forward_v I I I I #
loop $-1 $-1 $345 $83 #
coedge $-1 $212 $212 $213 $346 reversed $130 $-1 #
coedge $-1 $213 $213 $212 $346 forward $132 $-1 #
coedge $-1 $214 $214 $133 $215 forward $209 $-1 #
edge $-1 $347 -4.1869140489976383e-016 $347 6.2831853071796004 $214 $348 forward 7 unknown #
face $-1 $349 $350 $46 $-1 $351 forward single #
loop $-1 $-1 $352 $134 #
plane-surface $-1 -27.148713281735844 -96.336321840117904 58.083476016310208 1 0 0 0 0.78801076186113728 -0.61566146476048833 forward_v I I I I #
coedge $-1 $353 $354 $355 $356 reversed $135 $-1 #
coedge $-1 $221 $137 $357 $358 reversed $87 $-1 #
coedge $-1 $137 $220 $353 $359 reversed $87 $-1 #
coedge $-1 $355 $360 $137 $223 forward $350 $-1 #
edge $-1 $361 22.508711171327473 $362 26.781049996720654 $222 $363 forward 7 unknown #
loop $-1 $-1 $229 $138 #
plane-surface $-1 -18.220233680661298 -25.65944974873149 2.8646532508662048 0 -0.78801076186113728 0.61566146476048833 1 0 0 forward_v I I I I #
loop $-1 $-1 $364 $89 #
coedge $-1 $227 $227 $228 $365 reversed $139 $-1 #
coedge $-1 $228 $228 $227 $365 forward $141 $-1 #
coedge $-1 $229 $229 $142 $230 forward $224 $-1 #
edge $-1 $366 1.1678193044718628e-016 $366 6.2831853071796004 $229 $367 forward 7 unknown #
loop $-1 $-1 $236 $143 #
plane-surface $-1 -18.220233680661298 -25.65944974873149 2.8646532508662048 0 -0.78801076186113728 0.61566146476048833 1 0 0 forward_v I I I I #
loop $-1 $-1 $368 $92 #
coedge $-1 $234 $234 $235 $369 reversed $144 $-1 #
coedge $-1 $235 $235 $234 $369 forward $146 $-1 #
coedge $-1 $236 $236 $147 $237 forward $231 $-1 #
edge $-1 $370 1.1678193044718628e-016 $370 6.2831853071796004 $236 $371 forward 7 unknown #
face $-1 $372 $373 $49 $-1 $374 reversed single #
loop $-1 $-1 $375 $148 #
plane-surface $-1 9.2917540795867417 -96.336321840117904 58.083476016310208 1 0 0 0 0.78801076186113728 -0.61566146476048833 forward_v I I I I #
coedge $-1 $376 $377 $378 $379 reversed $149 $-1 #
coedge $-1 $243 $151 $380 $381 reversed $96 $-1 #
coedge $-1 $151 $242 $376 $382 reversed $96 $-1 #
coedge $-1 $378 $383 $151 $245 forward $384 $-1 #
edge $-1 $385 22.508711171327473 $386 26.781049996720654 $244 $387 forward 7 unknown #
loop $-1 $-1 $251 $152 #
plane-surface $-1 18.220233680661288 -25.65944974873149 2.8646532508662048 0 -0.78801076186113728 0.61566146476048833 1 0 0 forward_v I I I I #
loop $-1 $-1 $388 $98 #
coedge $-1 $249 $249 $250 $389 reversed $153 $-1 #
coedge $-1 $250 $250 $249 $389 forward $155 $-1 #
coedge $-1 $251 $251 $156 $252 forward $246 $-1 #
edge $-1 $390 1.1678193044718628e-016 $390 6.2831853071796004 $251 $391 forward 7 unknown #
loop $-1 $-1 $258 $157 #
plane-surface $-1 18.220233680661288 -25.65944974873149 2.8646532508662048 0 -0.78801076186113728 0.61566146476048833 1 0 0 forward_v I I I I #
loop $-1 $-1 $392 $101 #
coedge $-1 $256 $256 $257 $393 reversed $158 $-1 #
coedge $-1 $257 $257 $256 $393 forward $160 $-1 #
coedge $-1 $258 $258 $161 $259 forward $253 $-1 #
edge $-1 $394 1.1678193044718628e-016 $394 6.2831853071796004 $258 $395 forward 7 unknown #
face $-1 $396 $397 $39 $-1 $398 reversed single #
loop $-1 $-1 $399 $162 #
plane-surface $-1 -44.845118564409312 0 0 1 0 0 0 0 -1 forward_v I I I I #
coedge $-1 $400 $271 $401 $402 forward $163 $-1 #
coedge $-1 $403 $165 $400 $404 forward $105 $-1 #
coedge $-1 $165 $403 $405 $406 forward $105 $-1 #
coedge $-1 $274 $273 $165 $267 reversed $275 $-1 #
edge $-1 $407 -25.659449748731479 $408 25.659449748731479 $266 $409 forward 7 unknown #
coedge $-1 $167 $166 $410 $411 forward $66 $-1 #
coedge $-1 $412 $413 $166 $270 reversed $397 $-1 #
edge $-1 $277 -44.845118564409312 $414 44.845118564409312 $269 $415 forward 7 unknown #
coedge $-1 $263 $416 $167 $272 reversed $163 $-1 #
edge $-1 $417 -44.845118564409312 $276 44.845118564409312 $271 $418 forward 7 unknown #
coedge $-1 $266 $168 $416 $419 forward $275 $-1 #
coedge $-1 $168 $266 $412 $420 reversed $275 $-1 #
loop $-1 $-1 $273 $396 #
vertex $-1 $169 $421 #
vertex $-1 $169 $422 #
straight-curve $-1 44.845118564409312 0 8.3329977314432639 0 1 0 I I #
face $-1 $423 $424 $40 $-1 $425 reversed single #
loop $-1 $-1 $176 $170 #
plane-surface $-1 -49.351338338958378 -22.659449748731479 0 0 -1 0 0 0 -1 forward_v I I I I #
coedge $-1 $426 $427 $428 $429 forward $171 $-1 #
coedge $-1 $430 $173 $290 $431 forward $109 $-1 #
coedge $-1 $173 $430 $432 $433 forward $109 $-1 #
edge $-1 $434 -25.659449748731479 $292 -22.659449748731479 $173 $435 forward 7 unknown #
coedge $-1 $175 $174 $436 $437 reversed $69 $-1 #
coedge $-1 $438 $439 $175 $288 forward $424 $-1 #
edge $-1 $291 22.659449748731479 $440 25.659449748731479 $287 $441 forward 7 unknown #
coedge $-1 $428 $176 $439 $442 reversed $280 $-1 #
coedge $-1 $176 $428 $283 $431 reversed $280 $-1 #
vertex $-1 $288 $443 #
vertex $-1 $431 $444 #
straight-curve $-1 -44.845118564409312 -22.659449748731479 0 0 0 1 I I #
face $-1 $445 $446 $41 $-1 $447 reversed single #
loop $-1 $-1 $448 $178 #
plane-surface $-1 49.351338338958378 -22.659449748731479 0 0 -1 0 0 0 -1 forward_v I I I I #
coedge $-1 $449 $450 $182 $302 forward $179 $-1 #
coedge $-1 $451 $181 $450 $452 reversed $113 $-1 #
coedge $-1 $181 $451 $453 $454 reversed $113 $-1 #
coedge $-1 $183 $182 $181 $301 reversed $72 $-1 #
edge $-1 $455 -8.3329977314432639 $456 8.3329977314432639 $181 $457 forward 7 unknown #
edge $-1 $456 -25.659449748731479 $308 -22.659449748731479 $297 $458 forward 7 unknown #
coedge $-1 $453 $459 $183 $304 forward $460 $-1 #
edge $-1 $307 22.659449748731479 $455 25.659449748731479 $303 $461 forward 7 unknown #
coedge $-1 $448 $184 $459 $462 reversed $295 $-1 #
coedge $-1 $184 $448 $449 $463 reversed $295 $-1 #
vertex $-1 $304 $464 #
vertex $-1 $463 $465 #
straight-curve $-1 44.845118564409312 -22.659449748731479 0 0 0 -1 I I #
face $-1 $-1 $322 $42 $-1 $466 forward single #
loop $-1 $-1 $467 $186 #
plane-surface $-1 0 25.659449748731479 0 0 -1 0 0 0 -1 forward_v I I I I #
coedge $-1 $468 $469 $470 $471 reversed $187 $-1 #
coedge $-1 $472 $189 $191 $320 forward $117 $-1 #
coedge $-1 $189 $472 $468 $473 forward $117 $-1 #
coedge $-1 $470 $192 $189 $317 forward $322 $-1 #
edge $-1 $324 -15.693692496347778 $474 -3.6976678680858353 $316 $475 forward 7 unknown #
coedge $-1 $476 $477 $190 $319 forward $311 $-1 #
edge $-1 $478 -48.493787971120859 $323 -42.881730700332163 $318 $479 forward 7 unknown #
edge $-1 $324 43.382252084384412 $478 51.318899497462958 $191 $480 forward 7 unknown #
coedge $-1 $192 $470 $476 $481 forward $322 $-1 #
loop $-1 $-1 $470 $310 #
vertex $-1 $319 $482 #
vertex $-1 $193 $483 #
straight-curve $-1 -25.389372678564584 26.396041973967421 8.3329977314432639 0 -1 0 I I #
coedge $-1 $326 $326 $-1 $484 reversed $196 $-1 #
edge $-1 $485 0 $485 6.2831853071796004 $197 $486 forward 7 unknown #
vertex $-1 $200 $487 #
ellipse-curve $-1 -19.391360364433613 22.85342117845131 5.526969096048914 0 0.70710678939079041 0.70710677298230451 1.5 0 0 1 I I #
face $-1 $-1 $488 $44 $-1 $489 reversed single #
loop $-1 $-1 $207 $201 #
plane-surface $-1 0 0 8.3329977314432639 0 0 1 1 0 0 forward_v I I I I #
coedge $-1 $490 $491 $492 $493 reversed $202 $-1 #
coedge $-1 $494 $204 $206 $340 forward $126 $-1 #
coedge $-1 $204 $494 $490 $495 forward $126 $-1 #
coedge $-1 $492 $207 $204 $337 forward $331 $-1 #
edge $-1 $343 3.6976678680858299 $496 15.693692496347772 $336 $497 forward 7 unknown #
coedge $-1 $498 $499 $205 $339 forward $488 $-1 #
edge $-1 $500 -48.493787971120859 $342 -42.881730700332163 $338 $501 forward 7 unknown #
edge $-1 $343 43.382252084384412 $500 51.318899497462958 $206 $502 forward 7 unknown #
coedge $-1 $207 $492 $498 $503 forward $331 $-1 #
vertex $-1 $208 $504 #
vertex $-1 $208 $505 #
straight-curve $-1 13.393348050302631 26.396041973967421 8.3329977314432639 0 -1 0 I I #
coedge $-1 $345 $345 $-1 $506 reversed $211 $-1 #
edge $-1 $507 0 $507 6.2831853071796004 $212 $508 forward 7 unknown #
vertex $-1 $215 $509 #
ellipse-curve $-1 19.391360364433602 22.85342117845131 5.526969096048914 0 0.70710678939079041 0.70710677298230451 1.5 0 0 1 I I #
face $-1 $-1 $510 $46 $-1 $511 reversed single #
loop $-1 $-1 $222 $216 #
plane-surface $-1 0 0 8.3329977314432639 0 0 1 1 0 0 forward_v I I I I #
coedge $-1 $512 $513 $514 $515 reversed $217 $-1 #
coedge $-1 $516 $219 $221 $359 forward $135 $-1 #
coedge $-1 $219 $516 $512 $517 forward $135 $-1 #
coedge $-1 $514 $222 $219 $356 forward $350 $-1 #
edge $-1 $362 0.1816372392561032 $518 18.038596441405197 $355 $519 forward 7 unknown #
coedge $-1 $520 $521 $220 $358 forward $510 $-1 #
edge $-1 $522 -26.177084757288885 $361 -20.70874027671184 $357 $523 forward 7 unknown #
edge $-1 $362 -6.93942867945335 $522 -1.7410166096330825e-014 $221 $524 forward 7 unknown #
coedge $-1 $222 $514 $520 $525 forward $350 $-1 #
vertex $-1 $223 $526 #
vertex $-1 $223 $527 #
straight-curve $-1 -9.2917540795867524 -48.168160920058952 8.3329977314432639 0 1 0 I I #
coedge $-1 $364 $364 $-1 $528 reversed $226 $-1 #
edge $-1 $529 0 $529 6.2831853071796004 $227 $530 forward 7 unknown #
vertex $-1 $230 $531 #
ellipse-curve $-1 -22.046724938264674 -23.52328033603489 5.5988254911547397 0 -0.78801076186113728 0.61566146476048833 1.5 0 0 1 I I #
coedge $-1 $368 $368 $-1 $532 reversed $233 $-1 #
edge $-1 $533 0 $533 6.2831853071796004 $234 $534 forward 7 unknown #
vertex $-1 $237 $535 #
ellipse-curve $-1 -14.393742423057923 -23.52328033603489 5.5988254911547397 0 -0.78801076186113728 0.61566146476048833 1.5 0 0 1 I I #
face $-1 $-1 $384 $49 $-1 $536 forward single #
loop $-1 $-1 $537 $238 #
plane-surface $-1 0 -25.659449748731479 0 0 1 0 0 0 1 forward_v I I I I #
coedge $-1 $538 $539 $540 $541 reversed $239 $-1 #
coedge $-1 $542 $241 $243 $382 forward $149 $-1 #
coedge $-1 $241 $542 $538 $543 forward $149 $-1 #
coedge $-1 $540 $244 $241 $379 forward $384 $-1 #
edge $-1 $386 -18.03859644140519 $544 -0.18163723925609787 $378 $545 forward 7 unknown #
coedge $-1 $546 $547 $242 $381 forward $373 $-1 #
edge $-1 $548 -26.177084757288885 $385 -20.70874027671184 $380 $549 forward 7 unknown #
edge $-1 $386 -6.93942867945335 $548 -1.7410166096330825e-014 $243 $550 forward 7 unknown #
coedge $-1 $244 $540 $546 $551 forward $384 $-1 #
loop $-1 $-1 $540 $372 #
vertex $-1 $381 $552 #
vertex $-1 $245 $553 #
straight-curve $-1 27.148713281735834 -48.168160920058952 8.3329977314432639 0 1 0 I I #
coedge $-1 $388 $388 $-1 $554 reversed $248 $-1 #
edge $-1 $555 0 $555 6.2831853071796004 $249 $556 forward 7 unknown #
vertex $-1 $252 $557 #
ellipse-curve $-1 14.393742423057915 -23.52328033603489 5.5988254911547397 0 -0.78801076186113728 0.61566146476048833 1.5 0 0 1 I I #
coedge $-1 $392 $392 $-1 $558 reversed $255 $-1 #
edge $-1 $559 0 $559 6.2831853071796004 $256 $560 forward 7 unknown #
vertex $-1 $259 $561 #
ellipse-curve $-1 22.046724938264667 -23.52328033603489 5.5988254911547397 0 -0.78801076186113728 0.61566146476048833 1.5 0 0 1 I I #
face $-1 $-1 $275 $39 $-1 $562 reversed single #
loop $-1 $-1 $412 $260 #
plane-surface $-1 0 25.659449748731479 0 0 -1 0 0 0 -1 forward_v I I I I #
coedge $-1 $563 $410 $413 $564 forward $261 $-1 #
coedge $-1 $416 $263 $264 $404 reversed $163 $-1 #
coedge $-1 $410 $563 $263 $402 reversed $261 $-1 #
edge $-1 $417 -8.3329977314432639 $565 8.3329977314432639 $401 $566 forward 7 unknown #
coedge $-1 $265 $264 $563 $567 forward $105 $-1 #
edge $-1 $408 -44.845118564409312 $565 44.845118564409312 $400 $568 forward 7 unknown #
coedge $-1 $413 $412 $265 $406 reversed $397 $-1 #
edge $-1 $569 -44.845118564409312 $407 44.845118564409312 $405 $570 forward 7 unknown #
vertex $-1 $267 $571 #
vertex $-1 $419 $572 #
straight-curve $-1 44.845118564409312 0 -8.3329977314432639 0 -1 0 I I #
coedge $-1 $399 $401 $268 $411 reversed $261 $-1 #
edge $-1 $414 -25.659449748731479 $417 25.659449748731479 $410 $573 forward 7 unknown #
coedge $-1 $405 $269 $274 $420 forward $397 $-1 #
coedge $-1 $269 $405 $399 $564 reversed $397 $-1 #
vertex $-1 $270 $574 #
straight-curve $-1 0 25.659449748731479 8.3329977314432639 -1 0 0 I I #
coedge $-1 $271 $400 $273 $419 reversed $163 $-1 #
vertex $-1 $411 $575 #
straight-curve $-1 0 -25.659449748731479 8.3329977314432639 1 0 0 I I #
edge $-1 $276 -8.3329977314432639 $408 8.3329977314432639 $273 $576 forward 7 unknown #
edge $-1 $277 -8.3329977314432639 $407 8.3329977314432639 $274 $577 forward 7 unknown #
point $-1 44.845118564409312 -25.659449748731479 8.3329977314432639 #
point $-1 44.845118564409312 25.659449748731479 8.3329977314432639 #
face $-1 $-1 $578 $40 $-1 $579 reversed single #
loop $-1 $-1 $287 $279 #
plane-surface $-1 0 0 -8.3329977314432639 0 0 1 1 0 0 forward_v I I I I #
coedge $-1 $580 $282 $581 $582 reversed $171 $-1 #
coedge $-1 $282 $580 $430 $583 reversed $171 $-1 #
coedge $-1 $290 $289 $282 $429 reversed $280 $-1 #
edge $-1 $584 -8.3329977314432639 $585 8.3329977314432639 $428 $586 forward 7 unknown #
coedge $-1 $284 $283 $427 $583 forward $109 $-1 #
edge $-1 $292 -4.5062197745490664 $584 4.5062197745490664 $290 $587 forward 7 unknown #
coedge $-1 $588 $436 $284 $433 reversed $578 $-1 #
edge $-1 $589 -53.857558113507444 $434 -44.845118564409312 $432 $590 forward 7 unknown #
vertex $-1 $437 $591 #
straight-curve $-1 -44.845118564409312 0 8.3329977314432639 0 1 0 I I #
coedge $-1 $432 $592 $286 $437 forward $578 $-1 #
edge $-1 $440 -8.3329977314432639 $434 8.3329977314432639 $436 $593 forward 7 unknown #
coedge $-1 $581 $287 $592 $594 forward $424 $-1 #
coedge $-1 $287 $581 $289 $442 forward $424 $-1 #
vertex $-1 $594 $595 #
straight-curve $-1 -44.845118564409312 0 -8.3329977314432639 0 -1 0 I I #
edge $-1 $585 -4.5062197745490664 $291 4.5062197745490664 $289 $596 forward 7 unknown #
point $-1 -44.845118564409312 -22.659449748731479 -8.3329977314432639 #
point $-1 -44.845118564409312 -22.659449748731479 8.3329977314432639 #
face $-1 $-1 $460 $41 $-1 $597 forward single #
loop $-1 $-1 $598 $294 #
plane-surface $-1 53.857558113507444 -24.159449748731479 0 -1 0 0 0 0 1 forward_v I I I I #
coedge $-1 $306 $305 $599 $600 forward $295 $-1 #
coedge $-1 $601 $297 $306 $463 forward $179 $-1 #
coedge $-1 $297 $601 $298 $452 forward $179 $-1 #
coedge $-1 $299 $298 $598 $602 reversed $113 $-1 #
edge $-1 $603 -4.5062197745490664 $456 4.5062197745490664 $298 $604 forward 7 unknown #
coedge $-1 $605 $303 $299 $454 forward $460 $-1 #
edge $-1 $455 -4.5062197745490664 $606 4.5062197745490664 $299 $607 forward 7 unknown #
vertex $-1 $454 $608 #
vertex $-1 $302 $609 #
straight-curve $-1 44.845118564409312 -25.659449748731479 0 0 0 -1 I I #
straight-curve $-1 44.845118564409312 0 -8.3329977314432639 0 1 0 I I #
coedge $-1 $303 $605 $305 $462 forward $460 $-1 #
loop $-1 $-1 $303 $445 #
straight-curve $-1 44.845118564409312 0 8.3329977314432639 0 -1 0 I I #
edge $-1 $610 -4.5062197745490664 $307 4.5062197745490664 $305 $611 forward 7 unknown #
edge $-1 $308 -4.5062197745490664 $612 4.5062197745490664 $306 $613 forward 7 unknown #
point $-1 44.845118564409312 -22.659449748731479 8.3329977314432639 #
point $-1 44.845118564409312 -22.659449748731479 -8.3329977314432639 #
plane-surface $-1 0 0 8.3329977314432639 0 0 1 1 0 0 forward_v I I I I #
coedge $-1 $477 $476 $469 $614 forward $311 $-1 #
coedge $-1 $469 $313 $315 $473 reversed $187 $-1 #
coedge $-1 $313 $468 $467 $614 reversed $187 $-1 #
coedge $-1 $321 $316 $313 $471 forward $322 $-1 #
edge $-1 $474 -6.3486493657962768 $615 -0.73659222523594181 $470 $616 forward 7 unknown #
coedge $-1 $315 $314 $477 $617 reversed $117 $-1 #
edge $-1 $618 -51.318899497462958 $474 -43.382252084384412 $468 $619 forward 7 unknown #
vertex $-1 $317 $620 #
straight-curve $-1 -9.6956801822168064 20.047392608171148 8.3329977314432639 1 0 0 I I #
coedge $-1 $467 $318 $321 $481 reversed $311 $-1 #
coedge $-1 $318 $467 $472 $617 forward $311 $-1 #
vertex $-1 $319 $621 #
straight-curve $-1 -25.389372678564584 25.659449748731479 51.214728431775427 0 0 1 I I #
straight-curve $-1 -25.389372678564584 -10.628491667922759 39.008882719374242 0 0.70710677298230451 -0.70710678939079041 I I #
edge $-1 $615 13.393348050302642 $323 25.389372678564584 $476 $622 forward 7 unknown #
point $-1 -25.389372678564584 25.659449748731479 8.3329977314432639 #
point $-1 -25.389372678564584 20.047392608171144 8.3329977314432639 #
edge $-1 $623 1 $623 0 $326 $-1 forward 7 unknown #
vertex $-1 $327 $624 #
ellipse-curve $-1 -19.391360364433613 20.561706352164695 3.2352543229417776 0 0.70710678939079041 0.70710677298230451 1.5 0 0 1 I I #
point $-1 -17.891360364433613 22.853421178451317 5.5269690960489219 #
loop $-1 $-1 $338 $330 #
plane-surface $-1 0 25.659449748731479 0 0 -1 0 0 0 -1 forward_v I I I I #
coedge $-1 $491 $333 $335 $495 reversed $202 $-1 #
coedge $-1 $333 $490 $625 $626 reversed $202 $-1 #
coedge $-1 $341 $336 $333 $493 forward $331 $-1 #
edge $-1 $496 -6.3486493657962768 $627 -0.73659222523594181 $492 $628 forward 7 unknown #
coedge $-1 $335 $334 $499 $629 reversed $126 $-1 #
edge $-1 $630 -51.318899497462958 $496 -43.382252084384412 $490 $631 forward 7 unknown #
vertex $-1 $337 $632 #
straight-curve $-1 9.6956801822168011 20.047392608171148 8.3329977314432639 1 0 0 I I #
coedge $-1 $625 $338 $341 $503 reversed $488 $-1 #
coedge $-1 $338 $625 $494 $629 forward $488 $-1 #
vertex $-1 $339 $633 #
straight-curve $-1 13.393348050302631 25.659449748731479 51.214728431775427 0 0 1 I I #
straight-curve $-1 13.393348050302631 -10.628491667922759 39.008882719374242 0 0.70710677298230451 -0.70710678939079041 I I #
edge $-1 $627 -25.389372678564573 $342 -13.393348050302631 $498 $634 forward 7 unknown #
point $-1 13.393348050302631 25.659449748731479 8.3329977314432639 #
point $-1 13.393348050302631 20.047392608171144 8.3329977314432639 #
edge $-1 $635 1 $635 0 $345 $-1 forward 7 unknown #
vertex $-1 $346 $636 #
ellipse-curve $-1 19.391360364433602 20.561706352164695 3.2352543229417776 0 0.70710678939079041 0.70710677298230451 1.5 0 0 1 I I #
point $-1 20.891360364433602 22.853421178451317 5.5269690960489219 #
loop $-1 $-1 $357 $349 #
plane-surface $-1 0 -25.659449748731479 0 0 1 0 0 0 1 forward_v I I I I #
coedge $-1 $513 $352 $354 $517 reversed $217 $-1 #
coedge $-1 $352 $512 $637 $638 reversed $217 $-1 #
coedge $-1 $360 $355 $352 $515 forward $350 $-1 #
edge $-1 $518 -26.781049996720654 $639 -22.508711171327473 $514 $640 forward 7 unknown #
coedge $-1 $354 $353 $521 $641 reversed $135 $-1 #
edge $-1 $642 1.7410166096330825e-014 $518 6.93942867945335 $512 $643 forward 7 unknown #
vertex $-1 $356 $644 #
straight-curve $-1 -9.1101168403306492 -21.387110923338302 8.3329977314432639 -1 0 0 I I #
coedge $-1 $637 $357 $360 $525 reversed $510 $-1 #
coedge $-1 $357 $637 $516 $641 forward $510 $-1 #
vertex $-1 $358 $645 #
straight-curve $-1 -9.2917540795867524 -25.659449748731475 29.041738008155104 0 0 1 I I #
straight-curve $-1 -9.2917540795867524 -25.65944974873149 2.8646532508662048 0 -0.61566146476048833 -0.78801076186113728 I I #
edge $-1 $639 -76.500051620694222 $361 -58.64309241854513 $520 $646 forward 7 unknown #
point $-1 -9.2917540795867524 -25.659449748731479 8.3329977314432639 #
point $-1 -9.2917540795867524 -21.387110923338298 8.3329977314432639 #
edge $-1 $647 1 $647 0 $364 $-1 forward 7 unknown #
vertex $-1 $365 $648 #
ellipse-curve $-1 -22.046724938264674 -21.480589638023982 4.0029006535043195 0 -0.78801076186113728 0.61566146476048833 1.5 0 0 1 I I #
point $-1 -20.546724938264674 -23.523280336034883 5.5988254911547344 #
edge $-1 $649 1 $649 0 $368 $-1 forward 7 unknown #
vertex $-1 $369 $650 #
ellipse-curve $-1 -14.393742423057923 -21.480589638023982 4.0029006535043195 0 -0.78801076186113728 0.61566146476048833 1.5 0 0 1 I I #
point $-1 -12.893742423057923 -23.523280336034883 5.5988254911547344 #
plane-surface $-1 0 0 8.3329977314432639 0 0 1 1 0 0 forward_v I I I I #
coedge $-1 $547 $546 $539 $651 forward $373 $-1 #
coedge $-1 $539 $375 $377 $543 reversed $239 $-1 #
coedge $-1 $375 $538 $537 $651 reversed $239 $-1 #
coedge $-1 $383 $378 $375 $541 forward $384 $-1 #
edge $-1 $544 -26.781049996720654 $652 -22.508711171327473 $540 $653 forward 7 unknown #
coedge $-1 $377 $376 $547 $654 reversed $149 $-1 #
edge $-1 $655 1.7410166096330825e-014 $544 6.93942867945335 $538 $656 forward 7 unknown #
vertex $-1 $379 $657 #
straight-curve $-1 9.1101168403306438 -21.387110923338302 8.3329977314432639 -1 0 0 I I #
coedge $-1 $537 $380 $383 $551 reversed $373 $-1 #
coedge $-1 $380 $537 $542 $654 forward $373 $-1 #
vertex $-1 $381 $658 #
straight-curve $-1 27.148713281735834 -25.659449748731475 29.041738008155104 0 0 1 I I #
straight-curve $-1 27.148713281735834 -25.65944974873149 2.8646532508662048 0 -0.61566146476048833 -0.78801076186113728 I I #
edge $-1 $652 -40.059584259371633 $385 -22.202625057222544 $546 $659 forward 7 unknown #
point $-1 27.148713281735834 -25.659449748731479 8.3329977314432639 #
point $-1 27.148713281735834 -21.387110923338298 8.3329977314432639 #
edge $-1 $660 1 $660 0 $388 $-1 forward 7 unknown #
vertex $-1 $389 $661 #
ellipse-curve $-1 14.393742423057915 -21.480589638023982 4.0029006535043195 0 -0.78801076186113728 0.61566146476048833 1.5 0 0 1 I I #
point $-1 15.893742423057915 -23.523280336034883 5.5988254911547344 #
edge $-1 $662 1 $662 0 $392 $-1 forward 7 unknown #
vertex $-1 $393 $663 #
ellipse-curve $-1 22.046724938264667 -21.480589638023982 4.0029006535043195 0 -0.78801076186113728 0.61566146476048833 1.5 0 0 1 I I #
point $-1 23.546724938264667 -23.523280336034883 5.5988254911547344 #
plane-surface $-1 44.845118564409312 0 0 -1 0 0 0 0 1 forward_v I I I I #
coedge $-1 $401 $399 $403 $567 reversed $261 $-1 #
edge $-1 $414 -8.3329977314432639 $569 8.3329977314432639 $413 $664 forward 7 unknown #
vertex $-1 $567 $665 #
straight-curve $-1 -44.845118564409312 -25.659449748731479 0 0 0 -1 I I #
edge $-1 $565 -25.659449748731479 $569 25.659449748731479 $563 $666 forward 7 unknown #
straight-curve $-1 0 -25.659449748731479 -8.3329977314432639 -1 0 0 I I #
vertex $-1 $406 $667 #
straight-curve $-1 0 25.659449748731479 -8.3329977314432639 1 0 0 I I #
point $-1 44.845118564409312 25.659449748731479 -8.3329977314432639 #
point $-1 44.845118564409312 -25.659449748731479 -8.3329977314432639 #
straight-curve $-1 -44.845118564409312 0 8.3329977314432639 0 -1 0 I I #
point $-1 -44.845118564409312 25.659449748731479 8.3329977314432639 #
point $-1 -44.845118564409312 -25.659449748731479 8.3329977314432639 #
straight-curve $-1 44.845118564409312 -25.659449748731479 0 0 0 -1 I I #
straight-curve $-1 44.845118564409312 25.659449748731479 0 0 0 -1 I I #
loop $-1 $-1 $436 $423 #
plane-surface $-1 0 -25.659449748731479 0 0 1 0 0 0 1 forward_v I I I I #
coedge $-1 $427 $426 $588 $668 reversed $171 $-1 #
coedge $-1 $439 $438 $426 $582 forward $424 $-1 #
edge $-1 $669 -1.5 $585 1.5 $426 $670 forward 7 unknown #
edge $-1 $584 -1.5 $589 1.5 $427 $671 forward 7 unknown #
vertex $-1 $431 $672 #
vertex $-1 $442 $673 #
straight-curve $-1 -53.857558113507444 -22.659449748731479 0 0 0 -1 I I #
straight-curve $-1 -49.351338338958378 -22.659449748731479 8.3329977314432639 -1 0 0 I I #
coedge $-1 $592 $432 $580 $668 forward $578 $-1 #
vertex $-1 $583 $674 #
straight-curve $-1 0 -25.659449748731479 8.3329977314432639 1 0 0 I I #
point $-1 -44.845118564409312 -25.659449748731479 8.3329977314432639 #
coedge $-1 $436 $588 $438 $594 reversed $578 $-1 #
straight-curve $-1 -44.845118564409312 -25.659449748731479 0 0 0 1 I I #
edge $-1 $440 -4.5062197745490664 $669 4.5062197745490664 $592 $675 forward 7 unknown #
point $-1 -44.845118564409312 -25.659449748731479 -8.3329977314432639 #
straight-curve $-1 -49.351338338958378 -22.659449748731479 -8.3329977314432639 1 0 0 I I #
plane-surface $-1 0 0 8.3329977314432639 0 0 1 1 0 0 forward_v I I I I #
coedge $-1 $676 $677 $451 $602 forward $446 $-1 #
coedge $-1 $677 $676 $448 $600 reversed $446 $-1 #
edge $-1 $610 -8.3329977314432639 $612 8.3329977314432639 $599 $678 forward 7 unknown #
coedge $-1 $450 $449 $676 $679 forward $179 $-1 #
edge $-1 $606 -8.3329977314432639 $603 8.3329977314432639 $598 $680 forward 7 unknown #
vertex $-1 $602 $681 #
straight-curve $-1 49.351338338958378 -25.659449748731479 -8.3329977314432639 -1 0 0 I I #
coedge $-1 $459 $453 $677 $682 forward $460 $-1 #
vertex $-1 $682 $683 #
straight-curve $-1 49.351338338958378 -25.659449748731479 8.3329977314432639 1 0 0 I I #
point $-1 44.845118564409312 -25.659449748731479 8.3329977314432639 #
point $-1 44.845118564409312 -25.659449748731479 -8.3329977314432639 #
vertex $-1 $682 $684 #
straight-curve $-1 49.351338338958378 -22.659449748731479 8.3329977314432639 -1 0 0 I I #
vertex $-1 $679 $685 #
straight-curve $-1 49.351338338958378 -22.659449748731479 -8.3329977314432639 1 0 0 I I #
edge $-1 $615 42.881730700332163 $618 48.493787971120859 $467 $686 forward 7 unknown #
vertex $-1 $481 $687 #
straight-curve $-1 -13.393348050302642 26.396041973967421 8.3329977314432639 0 1 0 I I #
edge $-1 $618 3.6976678680858353 $478 15.693692496347778 $477 $688 forward 7 unknown #
vertex $-1 $617 $689 #
straight-curve $-1 -13.393348050302642 -10.628491667922759 39.008882719374242 0 -0.70710677298230451 0.70710678939079041 I I #
point $-1 -13.393348050302642 20.047392608171144 8.3329977314432639 #
point $-1 -25.389372678564584 25.659449748731475 2.7209404606545675 #
straight-curve $-1 0 25.659449748731479 8.3329977314432639 -1 0 0 I I #
vertex $-1 $484 $690 #
point $-1 -17.891360364433613 20.561706352164695 3.2352543229417776 #
coedge $-1 $499 $498 $491 $626 forward $488 $-1 #
edge $-1 $627 42.881730700332163 $630 48.493787971120859 $625 $691 forward 7 unknown #
vertex $-1 $503 $692 #
straight-curve $-1 25.389372678564573 26.396041973967421 8.3329977314432639 0 1 0 I I #
edge $-1 $630 -15.693692496347772 $500 -3.6976678680858299 $499 $693 forward 7 unknown #
vertex $-1 $629 $694 #
straight-curve $-1 25.389372678564573 -10.628491667922759 39.008882719374242 0 -0.70710677298230451 0.70710678939079041 I I #
point $-1 25.389372678564573 20.047392608171144 8.3329977314432639 #
point $-1 13.393348050302631 25.659449748731475 2.7209404606545675 #
straight-curve $-1 0 25.659449748731479 8.3329977314432639 -1 0 0 I I #
vertex $-1 $506 $695 #
point $-1 20.891360364433602 20.561706352164695 3.2352543229417776 #
coedge $-1 $521 $520 $513 $638 forward $510 $-1 #
edge $-1 $639 20.70874027671184 $642 26.177084757288885 $637 $696 forward 7 unknown #
vertex $-1 $525 $697 #
straight-curve $-1 -27.148713281735844 -48.168160920058952 8.3329977314432639 0 -1 0 I I #
edge $-1 $642 -18.038596441405197 $522 -0.1816372392561032 $521 $698 forward 7 unknown #
vertex $-1 $641 $699 #
straight-curve $-1 -27.148713281735844 -25.65944974873149 2.8646532508662048 0 0.61566146476048833 0.78801076186113728 I I #
point $-1 -27.148713281735844 -21.387110923338298 8.3329977314432639 #
point $-1 -9.2917540795867524 -25.659449748731479 2.8646532508662186 #
straight-curve $-1 49.351338338958378 -25.659449748731479 8.3329977314432639 1 0 0 I I #
vertex $-1 $528 $700 #
point $-1 -20.546724938264674 -21.480589638023982 4.0029006535043195 #
vertex $-1 $532 $701 #
point $-1 -12.893742423057923 -21.480589638023982 4.0029006535043195 #
edge $-1 $652 20.70874027671184 $655 26.177084757288885 $537 $702 forward 7 unknown #
vertex $-1 $551 $703 #
straight-curve $-1 9.2917540795867417 -48.168160920058952 8.3329977314432639 0 -1 0 I I #
edge $-1 $655 0.18163723925609787 $548 18.03859644140519 $547 $704 forward 7 unknown #
vertex $-1 $654 $705 #
straight-curve $-1 9.2917540795867417 -25.65944974873149 2.8646532508662048 0 0.61566146476048833 0.78801076186113728 I I #
point $-1 9.2917540795867417 -21.387110923338298 8.3329977314432639 #
point $-1 27.148713281735834 -25.659449748731479 2.8646532508662186 #
straight-curve $-1 49.351338338958378 -25.659449748731479 8.3329977314432639 1 0 0 I I #
vertex $-1 $554 $706 #
point $-1 15.893742423057915 -21.480589638023982 4.0029006535043195 #
vertex $-1 $558 $707 #
point $-1 23.546724938264667 -21.480589638023982 4.0029006535043195 #
straight-curve $-1 -44.845118564409312 25.659449748731479 0 0 0 -1 I I #
point $-1 -44.845118564409312 -25.659449748731479 -8.3329977314432639 #
straight-curve $-1 -44.845118564409312 0 -8.3329977314432639 0 1 0 I I #
point $-1 -44.845118564409312 25.659449748731479 -8.3329977314432639 #
edge $-1 $589 -8.3329977314432639 $669 8.3329977314432639 $580 $708 forward 7 unknown #
vertex $-1 $582 $709 #
straight-curve $-1 -53.857558113507444 -24.159449748731479 -8.3329977314432639 0 1 0 I I #
straight-curve $-1 -53.857558113507444 -24.159449748731479 8.3329977314432639 0 -1 0 I I #
point $-1 -53.857558113507444 -22.659449748731479 8.3329977314432639 #
point $-1 -53.857558113507444 -22.659449748731479 -8.3329977314432639 #
point $-1 -53.857558113507444 -25.659449748731479 8.3329977314432639 #
straight-curve $-1 -49.351338338958378 -25.659449748731479 -8.3329977314432639 -1 0 0 I I #
coedge $-1 $599 $598 $601 $679 reversed $446 $-1 #
coedge $-1 $598 $599 $605 $682 reversed $446 $-1 #
straight-curve $-1 53.857558113507444 -22.659449748731479 0 0 0 -1 I I #
edge $-1 $612 -1.5 $603 1.5 $676 $710 forward 7 unknown #
straight-curve $-1 53.857558113507444 -25.659449748731479 0 0 0 -1 I I #
point $-1 53.857558113507444 -25.659449748731479 -8.3329977314432639 #
edge $-1 $606 -1.5 $610 1.5 $677 $711 forward 7 unknown #
point $-1 53.857558113507444 -25.659449748731479 8.3329977314432639 #
point $-1 53.857558113507444 -22.659449748731479 8.3329977314432639 #
point $-1 53.857558113507444 -22.659449748731479 -8.3329977314432639 #
straight-curve $-1 -13.393348050302642 25.659449748731479 51.214728431775427 0 0 -1 I I #
point $-1 -13.393348050302642 25.659449748731479 8.3329977314432639 #
straight-curve $-1 -9.6956801822168064 25.659449748731479 2.7209404606545675 -1 0 0 I I #
point $-1 -13.393348050302642 25.659449748731475 2.7209404606545675 #
point $-1 -19.391360364433613 19.501046168078506 2.1745941634683206 #
straight-curve $-1 25.389372678564573 25.659449748731479 51.214728431775427 0 0 -1 I I #
point $-1 25.389372678564573 25.659449748731479 8.3329977314432639 #
straight-curve $-1 9.6956801822168011 25.659449748731479 2.7209404606545675 -1 0 0 I I #
point $-1 25.389372678564573 25.659449748731475 2.7209404606545675 #
point $-1 19.391360364433602 19.501046168078506 2.1745941634683206 #
straight-curve $-1 -27.148713281735844 -25.659449748731475 29.041738008155104 0 0 -1 I I #
point $-1 -27.148713281735844 -25.659449748731479 8.3329977314432639 #
straight-curve $-1 -9.1101168403306492 -25.659449748731479 2.8646532508662155 1 0 0 I I #
point $-1 -27.148713281735844 -25.659449748731479 2.8646532508662186 #
point $-1 -22.046724938264674 -20.298573495232279 3.0794084563635877 #
point $-1 -14.393742423057923 -20.298573495232279 3.0794084563635877 #
straight-curve $-1 9.2917540795867417 -25.659449748731475 29.041738008155104 0 0 -1 I I #
point $-1 9.2917540795867453 -25.659449748731479 8.3329977314432639 #
straight-curve $-1 9.1101168403306438 -25.659449748731479 2.8646532508662155 1 0 0 I I #
point $-1 9.2917540795867417 -25.659449748731479 2.8646532508662186 #
point $-1 14.393742423057915 -20.298573495232279 3.0794084563635877 #
point $-1 22.046724938264667 -20.298573495232279 3.0794084563635877 #
straight-curve $-1 -53.857558113507444 -25.659449748731479 0 0 0 -1 I I #
point $-1 -53.857558113507444 -25.659449748731479 -8.3329977314432639 #
straight-curve $-1 53.857558113507444 -24.159449748731479 -8.3329977314432639 0 -1 0 I I #
straight-curve $-1 53.857558113507444 -24.159449748731479 8.3329977314432639 0 1 0 I I #
End-of-ACIS-data 