500 0 14 0           
7 Unknown 11 ACIS 5.0 NT 24 Thu Mar 25 17:33:39 1999 
-1 9.9999999999999995e-007 1e-010 
body $-1 $14 $-1 $15 #
body $-1 $16 $-1 $17 #
body $-1 $18 $-1 $19 #
body $-1 $20 $-1 $21 #
body $-1 $22 $-1 $23 #
body $-1 $24 $-1 $25 #
body $-1 $26 $-1 $27 #
body $-1 $28 $-1 $29 #
body $-1 $30 $-1 $31 #
body $-1 $32 $-1 $33 #
body $-1 $34 $-1 $35 #
body $-1 $36 $-1 $37 #
body $-1 $38 $-1 $39 #
body $-1 $40 $-1 $41 #
lump $-1 $-1 $42 $0 #
transform $-1 1 0 0 0 1 0 0 0 1 41.975157933286539 26.260126118888333 10.171381043827482 1 rotate no_reflect no_shear #
lump $-1 $-1 $43 $1 #
transform $-1 1 0 0 0 1 0 0 0 1 41.975157933286539 26.260126118888333 10.171381043827482 1 rotate no_reflect no_shear #
lump $-1 $-1 $44 $2 #
transform $-1 1 0 0 0 1 0 0 0 1 41.975157933286539 26.260126118888333 10.171381043827482 1 rotate no_reflect no_shear #
lump $-1 $-1 $45 $3 #
transform $-1 1 0 0 0 1 0 0 0 1 41.975157933286539 26.260126118888333 10.171381043827482 1 rotate no_reflect no_shear #
lump $-1 $-1 $46 $4 #
transform $-1 1 0 0 0 1 0 0 0 1 41.975157933286539 26.260126118888333 10.171381043827482 1 rotate no_reflect no_shear #
lump $-1 $-1 $47 $5 #
transform $-1 1 0 0 0 1 0 0 0 1 41.975157933286539 26.260126118888333 10.171381043827482 1 rotate no_reflect no_shear #
lump $-1 $-1 $48 $6 #
transform $-1 1 0 0 0 1 0 0 0 1 41.975157933286539 26.260126118888333 10.171381043827482 1 rotate no_reflect no_shear #
lump $-1 $-1 $49 $7 #
transform $-1 1 0 0 0 1 0 0 0 1 41.975157933286539 26.260126118888333 10.171381043827482 1 rotate no_reflect no_shear #
lump $-1 $-1 $50 $8 #
transform $-1 1 0 0 0 1 0 0 0 1 41.975157933286539 26.260126118888333 10.171381043827482 1 rotate no_reflect no_shear #
lump $-1 $-1 $51 $9 #
transform $-1 1 0 0 0 1 0 0 0 1 41.975157933286539 26.260126118888333 10.171381043827482 1 rotate no_reflect no_shear #
lump $-1 $-1 $52 $10 #
transform $-1 1 0 0 0 1 0 0 0 1 41.975157933286539 26.260126118888333 10.171381043827482 1 rotate no_reflect no_shear #
lump $-1 $-1 $53 $11 #
transform $-1 1 0 0 0 1 0 0 0 1 41.975157933286539 26.260126118888333 10.171381043827482 1 rotate no_reflect no_shear #
lump $-1 $-1 $54 $12 #
transform $-1 1 0 0 0 1 0 0 0 1 41.975157933286539 26.260126118888333 10.171381043827482 1 rotate no_reflect no_shear #
lump $-1 $-1 $55 $13 #
transform $-1 1 0 0 0 1 0 0 0 1 41.975157933286539 26.260126118888333 10.171381043827482 1 rotate no_reflect no_shear #
shell $-1 $-1 $-1 $56 $-1 $14 #
shell $-1 $-1 $-1 $57 $-1 $16 #
shell $-1 $-1 $-1 $58 $-1 $18 #
shell $-1 $-1 $-1 $59 $-1 $20 #
shell $-1 $-1 $-1 $60 $-1 $22 #
shell $-1 $-1 $-1 $61 $-1 $24 #
shell $-1 $-1 $-1 $62 $-1 $26 #
shell $-1 $-1 $-1 $63 $-1 $28 #
shell $-1 $-1 $-1 $64 $-1 $30 #
shell $-1 $-1 $-1 $65 $-1 $32 #
shell $-1 $-1 $-1 $66 $-1 $34 #
shell $-1 $-1 $-1 $67 $-1 $36 #
shell $-1 $-1 $-1 $68 $-1 $38 #
shell $-1 $-1 $-1 $69 $-1 $40 #
face $-1 $70 $71 $42 $-1 $72 reversed single #
face $-1 $73 $74 $43 $-1 $75 forward single #
face $-1 $76 $77 $44 $-1 $78 reversed single #
face $-1 $79 $80 $45 $-1 $81 forward single #
face $-1 $82 $83 $46 $-1 $84 forward single #
face $-1 $85 $86 $47 $-1 $87 reversed single #
face $-1 $88 $89 $48 $-1 $90 forward single #
face $-1 $91 $92 $49 $-1 $93 forward single #
face $-1 $94 $95 $50 $-1 $96 reversed single #
face $-1 $97 $98 $51 $-1 $99 forward single #
face $-1 $100 $101 $52 $-1 $102 forward single #
face $-1 $103 $104 $53 $-1 $105 reversed single #
face $-1 $106 $107 $54 $-1 $108 forward single #
face $-1 $109 $110 $55 $-1 $111 forward single #
face $-1 $112 $113 $42 $-1 $114 forward single #
loop $-1 $-1 $115 $56 #
plane-surface $-1 0 -26.260126118888333 0 0 1 0 0 0 1 forward_v I I I I #
face $-1 $116 $117 $43 $-1 $118 forward single #
loop $-1 $-1 $119 $57 #
plane-surface $-1 0 -26.260126118888333 0 0 1 0 0 0 1 forward_v I I I I #
face $-1 $120 $121 $44 $-1 $122 reversed single #
loop $-1 $-1 $123 $58 #
plane-surface $-1 -38.033539146567257 43.403699251593494 100.63467799272347 1 0 0 0 -0.66913061440640931 -0.74314481823134659 forward_v I I I I #
face $-1 $124 $125 $45 $-1 $126 forward single #
loop $-1 $127 $128 $59 #
cone-surface $-1 -34.040089720582962 21.351051381842392 5.5442155508065465 0 -0.66913061440640931 -0.74314481823134659 1 0 0 1 I I 0 1 1 forward I I I I #
face $-1 $129 $130 $46 $-1 $131 forward single #
loop $-1 $132 $133 $60 #
cone-surface $-1 -28.049915581606516 21.351051381842392 5.5442155508065465 0 -0.66913061440640931 -0.74314481823134659 1 0 0 1 I I 0 1 1 forward I I I I #
face $-1 $134 $135 $47 $-1 $136 reversed single #
loop $-1 $-1 $137 $61 #
plane-surface $-1 -17.045960179923988 43.403699251593494 100.63467799272347 1 0 0 0 -0.66913061440640931 -0.74314481823134659 forward_v I I I I #
face $-1 $138 $139 $48 $-1 $140 forward single #
loop $-1 $141 $142 $62 #
cone-surface $-1 -13.052510753939693 21.351051381842392 5.5442155508065465 0 -0.66913061440640931 -0.74314481823134659 1 0 0 1 I I 0 1 1 forward I I I I #
face $-1 $143 $144 $49 $-1 $145 forward single #
loop $-1 $146 $147 $63 #
cone-surface $-1 -7.0623366149632432 21.351051381842392 5.5442155508065465 0 -0.66913061440640931 -0.74314481823134659 1 0 0 1 I I 0 1 1 forward I I I I #
face $-1 $148 $149 $50 $-1 $150 reversed single #
loop $-1 $-1 $151 $64 #
plane-surface $-1 3.9416187867192853 43.403699251593494 100.63467799272347 1 0 0 0 -0.66913061440640931 -0.74314481823134659 forward_v I I I I #
face $-1 $152 $153 $51 $-1 $154 forward single #
loop $-1 $155 $156 $65 #
cone-surface $-1 7.9350682127035768 21.351051381842392 5.5442155508065465 0 -0.66913061440640931 -0.74314481823134659 1 0 0 1 I I 0 1 1 forward I I I I #
face $-1 $157 $158 $52 $-1 $159 forward single #
loop $-1 $160 $161 $66 #
cone-surface $-1 13.925242351680026 21.351051381842392 5.5442155508065465 0 -0.66913061440640931 -0.74314481823134659 1 0 0 1 I I 0 1 1 forward I I I I #
face $-1 $162 $163 $53 $-1 $164 reversed single #
loop $-1 $-1 $165 $67 #
plane-surface $-1 24.929197753362555 43.403699251593494 100.63467799272347 1 0 0 0 -0.66913061440640931 -0.74314481823134659 forward_v I I I I #
face $-1 $166 $167 $54 $-1 $168 forward single #
loop $-1 $169 $170 $68 #
cone-surface $-1 28.922647179346853 21.351051381842392 5.5442155508065465 0 -0.66913061440640931 -0.74314481823134659 1 0 0 1 I I 0 1 1 forward I I I I #
face $-1 $171 $172 $55 $-1 $173 forward single #
loop $-1 $174 $175 $69 #
cone-surface $-1 34.912821318323296 21.351051381842392 5.5442155508065465 0 -0.66913061440640931 -0.74314481823134659 1 0 0 1 I I 0 1 1 forward I I I I #
face $-1 $176 $177 $42 $-1 $178 reversed single #
loop $-1 $-1 $179 $70 #
plane-surface $-1 0 0 10.171381043827482 0 0 1 1 0 0 forward_v I I I I #
coedge $-1 $180 $181 $182 $183 reversed $71 $-1 #
face $-1 $184 $185 $43 $-1 $186 reversed single #
loop $-1 $-1 $187 $73 #
plane-surface $-1 0 0 10.171381043827482 0 0 1 1 0 0 forward_v I I I I #
coedge $-1 $188 $189 $190 $191 forward $74 $-1 #
face $-1 $192 $193 $44 $-1 $194 reversed single #
loop $-1 $-1 $195 $76 #
plane-surface $-1 -31.045002651094737 -12.770027183818684 38.247435767594887 0 0.66913061440640931 0.74314481823134659 1 0 0 forward_v I I I I #
coedge $-1 $196 $197 $198 $199 reversed $77 $-1 #
face $-1 $-1 $200 $45 $-1 $201 forward single #
loop $-1 $202 $203 $79 #
cone-surface $-1 -34.040089720582962 20.031679456851283 4.0789046111077933 0 -0.66913061440640931 -0.74314481823134659 0.5 0 0 1 I I -0.70710678118654746 0.70710678118654746 0.5 forward I I I I #
loop $-1 $-1 $204 $59 #
coedge $-1 $128 $128 $205 $206 reversed $80 $-1 #
face $-1 $-1 $207 $46 $-1 $208 forward single #
loop $-1 $209 $210 $82 #
cone-surface $-1 -28.049915581606516 20.031679456851283 4.0789046111077933 0 -0.66913061440640931 -0.74314481823134659 0.5 0 0 1 I I -0.70710678118654746 0.70710678118654746 0.5 forward I I I I #
loop $-1 $-1 $211 $60 #
coedge $-1 $133 $133 $212 $213 reversed $83 $-1 #
face $-1 $214 $215 $47 $-1 $216 reversed single #
loop $-1 $-1 $217 $85 #
plane-surface $-1 -10.057423684451468 -12.770027183818684 38.247435767594887 0 0.66913061440640931 0.74314481823134659 1 0 0 forward_v I I I I #
coedge $-1 $218 $219 $220 $221 reversed $86 $-1 #
face $-1 $-1 $222 $48 $-1 $223 forward single #
loop $-1 $224 $225 $88 #
cone-surface $-1 -13.052510753939693 20.031679456851283 4.0789046111077933 0 -0.66913061440640931 -0.74314481823134659 0.5 0 0 1 I I -0.70710678118654746 0.70710678118654746 0.5 forward I I I I #
loop $-1 $-1 $226 $62 #
coedge $-1 $142 $142 $227 $228 reversed $89 $-1 #
face $-1 $-1 $229 $49 $-1 $230 forward single #
loop $-1 $231 $232 $91 #
cone-surface $-1 -7.0623366149632432 20.031679456851283 4.0789046111077933 0 -0.66913061440640931 -0.74314481823134659 0.5 0 0 1 I I -0.70710678118654746 0.70710678118654746 0.5 forward I I I I #
loop $-1 $-1 $233 $63 #
coedge $-1 $147 $147 $234 $235 reversed $92 $-1 #
face $-1 $236 $237 $50 $-1 $238 reversed single #
loop $-1 $-1 $239 $94 #
plane-surface $-1 10.930155282191805 -12.770027183818684 38.247435767594887 0 0.66913061440640931 0.74314481823134659 1 0 0 forward_v I I I I #
coedge $-1 $240 $241 $242 $243 reversed $95 $-1 #
face $-1 $-1 $244 $51 $-1 $245 forward single #
loop $-1 $246 $247 $97 #
cone-surface $-1 7.9350682127035768 20.031679456851283 4.0789046111077933 0 -0.66913061440640931 -0.74314481823134659 0.5 0 0 1 I I -0.70710678118654746 0.70710678118654746 0.5 forward I I I I #
loop $-1 $-1 $248 $65 #
coedge $-1 $156 $156 $249 $250 reversed $98 $-1 #
face $-1 $-1 $251 $52 $-1 $252 forward single #
loop $-1 $253 $254 $100 #
cone-surface $-1 13.925242351680026 20.031679456851283 4.0789046111077933 0 -0.66913061440640931 -0.74314481823134659 0.5 0 0 1 I I -0.70710678118654746 0.70710678118654746 0.5 forward I I I I #
loop $-1 $-1 $255 $66 #
coedge $-1 $161 $161 $256 $257 reversed $101 $-1 #
face $-1 $258 $259 $53 $-1 $260 reversed single #
loop $-1 $-1 $261 $103 #
plane-surface $-1 31.917734248835075 -12.770027183818684 38.247435767594887 0 0.66913061440640931 0.74314481823134659 1 0 0 forward_v I I I I #
coedge $-1 $262 $263 $264 $265 reversed $104 $-1 #
face $-1 $-1 $266 $54 $-1 $267 forward single #
loop $-1 $268 $269 $106 #
cone-surface $-1 28.922647179346853 20.031679456851283 4.0789046111077933 0 -0.66913061440640931 -0.74314481823134659 0.5 0 0 1 I I -0.70710678118654746 0.70710678118654746 0.5 forward I I I I #
loop $-1 $-1 $270 $68 #
coedge $-1 $170 $170 $271 $272 reversed $107 $-1 #
face $-1 $-1 $273 $55 $-1 $274 forward single #
loop $-1 $275 $276 $109 #
cone-surface $-1 34.912821318323296 20.031679456851283 4.0789046111077933 0 -0.66913061440640931 -0.74314481823134659 0.5 0 0 1 I I -0.70710678118654746 0.70710678118654746 0.5 forward I I I I #
loop $-1 $-1 $277 $69 #
coedge $-1 $175 $175 $278 $279 reversed $110 $-1 #
face $-1 $280 $281 $42 $-1 $282 reversed single #
loop $-1 $-1 $283 $112 #
plane-surface $-1 0 0 -10.171381043827482 0 0 1 1 0 0 forward_v I I I I #
coedge $-1 $284 $285 $286 $287 forward $113 $-1 #
coedge $-1 $288 $115 $289 $290 reversed $71 $-1 #
coedge $-1 $115 $288 $291 $292 forward $71 $-1 #
coedge $-1 $293 $283 $115 $183 forward $177 $-1 #
edge $-1 $294 -41.975157933286539 $295 41.975157933286539 $115 $296 forward 7 unknown #
face $-1 $297 $298 $43 $-1 $299 reversed single #
loop $-1 $-1 $300 $116 #
plane-surface $-1 -41.975157933286539 0 0 1 0 0 0 0 -1 forward_v I I I I #
coedge $-1 $301 $302 $189 $303 forward $117 $-1 #
coedge $-1 $304 $119 $305 $306 reversed $74 $-1 #
coedge $-1 $119 $304 $187 $303 reversed $74 $-1 #
coedge $-1 $307 $308 $119 $191 reversed $309 $-1 #
edge $-1 $310 -10.171381043827482 $311 10.171381043827482 $190 $312 forward 7 unknown #
face $-1 $313 $314 $44 $-1 $315 reversed single #
loop $-1 $-1 $316 $120 #
plane-surface $-1 -24.056466155622218 43.403699251593494 100.63467799272347 -1 0 0 0 0.66913061440640931 0.74314481823134659 forward_v I I I I #
coedge $-1 $317 $318 $319 $320 reversed $121 $-1 #
coedge $-1 $197 $123 $321 $322 reversed $77 $-1 #
coedge $-1 $123 $196 $317 $323 reversed $77 $-1 #
coedge $-1 $319 $324 $123 $199 forward $325 $-1 #
edge $-1 $326 -4.5582764930915864 $327 3.2902597454244784 $198 $328 forward 7 unknown #
loop $-1 $-1 $205 $124 #
plane-surface $-1 -31.045002651094737 -12.770027183818684 38.247435767594887 0 0.66913061440640931 0.74314481823134659 1 0 0 forward_v I I I I #
loop $-1 $-1 $329 $79 #
coedge $-1 $203 $203 $204 $330 reversed $125 $-1 #
coedge $-1 $204 $204 $203 $330 forward $127 $-1 #
coedge $-1 $205 $205 $128 $206 forward $200 $-1 #
edge $-1 $331 -2.629512743543829e-016 $331 6.2831853071796004 $205 $332 forward 7 unknown #
loop $-1 $-1 $212 $129 #
plane-surface $-1 -31.045002651094737 -12.770027183818684 38.247435767594887 0 0.66913061440640931 0.74314481823134659 1 0 0 forward_v I I I I #
loop $-1 $-1 $333 $82 #
coedge $-1 $210 $210 $211 $334 reversed $130 $-1 #
coedge $-1 $211 $211 $210 $334 forward $132 $-1 #
coedge $-1 $212 $212 $133 $213 forward $207 $-1 #
edge $-1 $335 -2.629512743543829e-016 $335 6.2831853071796004 $212 $336 forward 7 unknown #
face $-1 $337 $338 $47 $-1 $339 forward single #
loop $-1 $-1 $340 $134 #
plane-surface $-1 -3.0688871889789482 43.403699251593494 100.63467799272347 -1 0 0 0 0.66913061440640931 0.74314481823134659 forward_v I I I I #
coedge $-1 $341 $342 $343 $344 reversed $135 $-1 #
coedge $-1 $219 $137 $345 $346 reversed $86 $-1 #
coedge $-1 $137 $218 $341 $347 reversed $86 $-1 #
coedge $-1 $343 $348 $137 $221 forward $338 $-1 #
edge $-1 $349 -4.5582764930915864 $350 3.2902597454244784 $220 $351 forward 7 unknown #
loop $-1 $-1 $227 $138 #
plane-surface $-1 -10.057423684451468 -12.770027183818684 38.247435767594887 0 0.66913061440640931 0.74314481823134659 1 0 0 forward_v I I I I #
loop $-1 $-1 $352 $88 #
coedge $-1 $225 $225 $226 $353 reversed $139 $-1 #
coedge $-1 $226 $226 $225 $353 forward $141 $-1 #
coedge $-1 $227 $227 $142 $228 forward $222 $-1 #
edge $-1 $354 -2.629512743543829e-016 $354 6.2831853071796004 $227 $355 forward 7 unknown #
loop $-1 $-1 $234 $143 #
plane-surface $-1 -10.057423684451468 -12.770027183818684 38.247435767594887 0 0.66913061440640931 0.74314481823134659 1 0 0 forward_v I I I I #
loop $-1 $-1 $356 $91 #
coedge $-1 $232 $232 $233 $357 reversed $144 $-1 #
coedge $-1 $233 $233 $232 $357 forward $146 $-1 #
coedge $-1 $234 $234 $147 $235 forward $229 $-1 #
edge $-1 $358 -2.629512743543829e-016 $358 6.2831853071796004 $234 $359 forward 7 unknown #
face $-1 $360 $361 $50 $-1 $362 forward single #
loop $-1 $-1 $363 $148 #
plane-surface $-1 17.918691777664325 43.403699251593494 100.63467799272347 -1 0 0 0 0.66913061440640931 0.74314481823134659 forward_v I I I I #
coedge $-1 $364 $365 $366 $367 reversed $149 $-1 #
coedge $-1 $241 $151 $368 $369 reversed $95 $-1 #
coedge $-1 $151 $240 $364 $370 reversed $95 $-1 #
coedge $-1 $366 $371 $151 $243 forward $361 $-1 #
edge $-1 $372 -4.5582764930915864 $373 3.2902597454244784 $242 $374 forward 7 unknown #
loop $-1 $-1 $249 $152 #
plane-surface $-1 10.930155282191805 -12.770027183818684 38.247435767594887 0 0.66913061440640931 0.74314481823134659 1 0 0 forward_v I I I I #
loop $-1 $-1 $375 $97 #
coedge $-1 $247 $247 $248 $376 reversed $153 $-1 #
coedge $-1 $248 $248 $247 $376 forward $155 $-1 #
coedge $-1 $249 $249 $156 $250 forward $244 $-1 #
edge $-1 $377 -2.629512743543829e-016 $377 6.2831853071796004 $249 $378 forward 7 unknown #
loop $-1 $-1 $256 $157 #
plane-surface $-1 10.930155282191805 -12.770027183818684 38.247435767594887 0 0.66913061440640931 0.74314481823134659 1 0 0 forward_v I I I I #
loop $-1 $-1 $379 $100 #
coedge $-1 $254 $254 $255 $380 reversed $158 $-1 #
coedge $-1 $255 $255 $254 $380 forward $160 $-1 #
coedge $-1 $256 $256 $161 $257 forward $251 $-1 #
edge $-1 $381 -2.629512743543829e-016 $381 6.2831853071796004 $256 $382 forward 7 unknown #
face $-1 $383 $384 $53 $-1 $385 forward single #
loop $-1 $-1 $386 $162 #
plane-surface $-1 38.906270744307591 43.403699251593494 100.63467799272347 -1 0 0 0 0.66913061440640931 0.74314481823134659 forward_v I I I I #
coedge $-1 $387 $388 $389 $390 reversed $163 $-1 #
coedge $-1 $263 $165 $391 $392 reversed $104 $-1 #
coedge $-1 $165 $262 $387 $393 reversed $104 $-1 #
coedge $-1 $389 $394 $165 $265 forward $384 $-1 #
edge $-1 $395 -4.5582764930915864 $396 3.2902597454244784 $264 $397 forward 7 unknown #
loop $-1 $-1 $271 $166 #
plane-surface $-1 31.917734248835075 -12.770027183818684 38.247435767594887 0 0.66913061440640931 0.74314481823134659 1 0 0 forward_v I I I I #
loop $-1 $-1 $398 $106 #
coedge $-1 $269 $269 $270 $399 reversed $167 $-1 #
coedge $-1 $270 $270 $269 $399 forward $169 $-1 #
coedge $-1 $271 $271 $170 $272 forward $266 $-1 #
edge $-1 $400 -2.629512743543829e-016 $400 6.2831853071796004 $271 $401 forward 7 unknown #
loop $-1 $-1 $278 $171 #
plane-surface $-1 31.917734248835075 -12.770027183818684 38.247435767594887 0 0.66913061440640931 0.74314481823134659 1 0 0 forward_v I I I I #
loop $-1 $-1 $402 $109 #
coedge $-1 $276 $276 $277 $403 reversed $172 $-1 #
coedge $-1 $277 $277 $276 $403 forward $174 $-1 #
coedge $-1 $278 $278 $175 $279 forward $273 $-1 #
edge $-1 $404 -2.629512743543829e-016 $404 6.2831853071796004 $278 $405 forward 7 unknown #
face $-1 $406 $407 $42 $-1 $408 reversed single #
loop $-1 $-1 $409 $176 #
plane-surface $-1 -41.975157933286539 0 0 1 0 0 0 0 -1 forward_v I I I I #
coedge $-1 $182 $410 $411 $412 forward $177 $-1 #
coedge $-1 $413 $179 $414 $415 forward $113 $-1 #
coedge $-1 $179 $413 $288 $416 forward $113 $-1 #
coedge $-1 $289 $417 $179 $287 reversed $418 $-1 #
edge $-1 $419 -26.260126118888333 $420 26.260126118888333 $286 $421 forward 7 unknown #
coedge $-1 $181 $180 $285 $416 reversed $71 $-1 #
coedge $-1 $411 $286 $180 $290 forward $418 $-1 #
edge $-1 $419 -10.171381043827482 $294 10.171381043827482 $289 $422 forward 7 unknown #
coedge $-1 $423 $424 $181 $292 reversed $281 $-1 #
edge $-1 $425 -10.171381043827482 $295 10.171381043827482 $291 $426 forward 7 unknown #
coedge $-1 $410 $182 $424 $427 forward $177 $-1 #
vertex $-1 $290 $428 #
vertex $-1 $427 $429 #
straight-curve $-1 0 -26.260126118888333 -10.171381043827482 -1 0 0 I I #
face $-1 $430 $309 $43 $-1 $431 reversed single #
loop $-1 $-1 $432 $184 #
plane-surface $-1 -40.475157933286539 -37.10288598216318 0 0 1 0 0 0 1 forward_v I I I I #
coedge $-1 $433 $434 $304 $435 forward $185 $-1 #
coedge $-1 $436 $187 $434 $437 forward $117 $-1 #
coedge $-1 $187 $436 $307 $438 forward $117 $-1 #
edge $-1 $310 38.975157933286539 $439 41.975157933286539 $187 $440 forward 7 unknown #
coedge $-1 $189 $188 $300 $435 reversed $74 $-1 #
coedge $-1 $441 $442 $188 $306 forward $443 $-1 #
edge $-1 $444 -41.975157933286539 $311 -38.975157933286539 $305 $445 forward 7 unknown #
coedge $-1 $446 $190 $302 $438 reversed $309 $-1 #
coedge $-1 $190 $446 $441 $447 reversed $309 $-1 #
loop $-1 $-1 $446 $297 #
vertex $-1 $303 $448 #
vertex $-1 $447 $449 #
straight-curve $-1 -38.975157933286539 -26.260126118888333 0 0 0 -1 I I #
face $-1 $-1 $325 $44 $-1 $450 forward single #
loop $-1 $-1 $451 $192 #
plane-surface $-1 0 26.260126118888333 0 0 -1 0 0 0 -1 forward_v I I I I #
coedge $-1 $452 $453 $454 $455 reversed $193 $-1 #
coedge $-1 $456 $195 $197 $323 forward $121 $-1 #
coedge $-1 $195 $456 $452 $457 forward $121 $-1 #
coedge $-1 $454 $198 $195 $320 forward $325 $-1 #
edge $-1 $327 -22.51103782101989 $458 -8.533964830074849 $319 $459 forward 7 unknown #
coedge $-1 $460 $461 $196 $322 forward $314 $-1 #
edge $-1 $462 -47.212811877409948 $326 -40.145957952534253 $321 $463 forward 7 unknown #
edge $-1 $327 41.959004892750094 $462 52.520252237776674 $197 $464 forward 7 unknown #
coedge $-1 $198 $454 $460 $465 forward $325 $-1 #
loop $-1 $-1 $454 $313 #
vertex $-1 $322 $466 #
vertex $-1 $199 $467 #
straight-curve $-1 -38.033539146567257 21.701849625796747 10.171381043827481 0 -1 0 I I #
coedge $-1 $329 $329 $-1 $468 reversed $202 $-1 #
edge $-1 $469 0 $469 6.2831853071796004 $203 $470 forward 7 unknown #
vertex $-1 $206 $471 #
ellipse-curve $-1 -34.040089720582962 22.335857999630299 6.6379540813896307 0 0.66913061440640931 0.74314481823134659 1 0 0 1 I I #
coedge $-1 $333 $333 $-1 $472 reversed $209 $-1 #
edge $-1 $473 0 $473 6.2831853071796004 $210 $474 forward 7 unknown #
vertex $-1 $213 $475 #
ellipse-curve $-1 -28.049915581606516 22.335857999630299 6.6379540813896307 0 0.66913061440640931 0.74314481823134659 1 0 0 1 I I #
face $-1 $-1 $476 $47 $-1 $477 reversed single #
loop $-1 $-1 $220 $214 #
plane-surface $-1 0 0 10.171381043827482 0 0 1 1 0 0 forward_v I I I I #
coedge $-1 $478 $479 $480 $481 reversed $215 $-1 #
coedge $-1 $482 $217 $219 $347 forward $135 $-1 #
coedge $-1 $217 $482 $478 $483 forward $135 $-1 #
coedge $-1 $480 $220 $217 $344 forward $338 $-1 #
edge $-1 $350 -12.017248337698254 $484 1.9598246532467858 $343 $485 forward 7 unknown #
coedge $-1 $486 $487 $218 $346 forward $476 $-1 #
edge $-1 $488 -47.212811877409948 $349 -40.145957952534253 $345 $489 forward 7 unknown #
edge $-1 $350 41.959004892750094 $488 52.520252237776674 $219 $490 forward 7 unknown #
coedge $-1 $220 $480 $486 $491 forward $338 $-1 #
vertex $-1 $221 $492 #
vertex $-1 $221 $493 #
straight-curve $-1 -17.045960179923988 21.701849625796747 10.171381043827481 0 -1 0 I I #
coedge $-1 $352 $352 $-1 $494 reversed $224 $-1 #
edge $-1 $495 0 $495 6.2831853071796004 $225 $496 forward 7 unknown #
vertex $-1 $228 $497 #
ellipse-curve $-1 -13.052510753939693 22.335857999630299 6.6379540813896307 0 0.66913061440640931 0.74314481823134659 1 0 0 1 I I #
coedge $-1 $356 $356 $-1 $498 reversed $231 $-1 #
edge $-1 $499 0 $499 6.2831853071796004 $232 $500 forward 7 unknown #
vertex $-1 $235 $501 #
ellipse-curve $-1 -7.0623366149632432 22.335857999630299 6.6379540813896307 0 0.66913061440640931 0.74314481823134659 1 0 0 1 I I #
face $-1 $-1 $502 $50 $-1 $503 reversed single #
loop $-1 $-1 $242 $236 #
plane-surface $-1 0 0 10.171381043827482 0 0 1 1 0 0 forward_v I I I I #
coedge $-1 $504 $505 $506 $507 reversed $237 $-1 #
coedge $-1 $508 $239 $241 $370 forward $149 $-1 #
coedge $-1 $239 $508 $504 $509 forward $149 $-1 #
coedge $-1 $506 $242 $239 $367 forward $361 $-1 #
edge $-1 $373 -1.5234588543766172 $510 12.453614136568422 $366 $511 forward 7 unknown #
coedge $-1 $512 $513 $240 $369 forward $502 $-1 #
edge $-1 $514 -47.212811877409948 $372 -40.145957952534253 $368 $515 forward 7 unknown #
edge $-1 $373 41.959004892750094 $514 52.520252237776674 $241 $516 forward 7 unknown #
coedge $-1 $242 $506 $512 $517 forward $361 $-1 #
vertex $-1 $243 $518 #
vertex $-1 $243 $519 #
straight-curve $-1 3.9416187867192853 21.701849625796747 10.171381043827481 0 -1 0 I I #
coedge $-1 $375 $375 $-1 $520 reversed $246 $-1 #
edge $-1 $521 0 $521 6.2831853071796004 $247 $522 forward 7 unknown #
vertex $-1 $250 $523 #
ellipse-curve $-1 7.9350682127035768 22.335857999630299 6.6379540813896307 0 0.66913061440640931 0.74314481823134659 1 0 0 1 I I #
coedge $-1 $379 $379 $-1 $524 reversed $253 $-1 #
edge $-1 $525 0 $525 6.2831853071796004 $254 $526 forward 7 unknown #
vertex $-1 $257 $527 #
ellipse-curve $-1 13.925242351680026 22.335857999630299 6.6379540813896307 0 0.66913061440640931 0.74314481823134659 1 0 0 1 I I #
face $-1 $-1 $528 $53 $-1 $529 reversed single #
loop $-1 $-1 $264 $258 #
plane-surface $-1 0 0 10.171381043827482 0 0 1 1 0 0 forward_v I I I I #
coedge $-1 $530 $531 $532 $533 reversed $259 $-1 #
coedge $-1 $534 $261 $263 $393 forward $163 $-1 #
coedge $-1 $261 $534 $530 $535 forward $163 $-1 #
coedge $-1 $532 $264 $261 $390 forward $384 $-1 #
edge $-1 $396 8.9703306289450175 $536 22.947403619890054 $389 $537 forward 7 unknown #
coedge $-1 $538 $539 $262 $392 forward $528 $-1 #
edge $-1 $540 -47.212811877409948 $395 -40.145957952534253 $391 $541 forward 7 unknown #
edge $-1 $396 41.959004892750094 $540 52.520252237776674 $263 $542 forward 7 unknown #
coedge $-1 $264 $532 $538 $543 forward $384 $-1 #
vertex $-1 $265 $544 #
vertex $-1 $265 $545 #
straight-curve $-1 24.929197753362555 21.701849625796747 10.171381043827481 0 -1 0 I I #
coedge $-1 $398 $398 $-1 $546 reversed $268 $-1 #
edge $-1 $547 0 $547 6.2831853071796004 $269 $548 forward 7 unknown #
vertex $-1 $272 $549 #
ellipse-curve $-1 28.922647179346853 22.335857999630299 6.6379540813896307 0 0.66913061440640931 0.74314481823134659 1 0 0 1 I I #
coedge $-1 $402 $402 $-1 $550 reversed $275 $-1 #
edge $-1 $551 0 $551 6.2831853071796004 $276 $552 forward 7 unknown #
vertex $-1 $279 $553 #
ellipse-curve $-1 34.912821318323296 22.335857999630299 6.6379540813896307 0 0.66913061440640931 0.74314481823134659 1 0 0 1 I I #
face $-1 $-1 $418 $42 $-1 $554 reversed single #
loop $-1 $-1 $555 $280 #
plane-surface $-1 0 26.260126118888333 0 0 -1 0 0 0 -1 forward_v I I I I #
coedge $-1 $424 $423 $556 $557 forward $281 $-1 #
coedge $-1 $283 $293 $558 $559 forward $177 $-1 #
coedge $-1 $417 $289 $283 $412 reversed $418 $-1 #
edge $-1 $560 -26.260126118888333 $294 26.260126118888333 $411 $561 forward 7 unknown #
coedge $-1 $285 $284 $423 $562 forward $113 $-1 #
coedge $-1 $555 $556 $284 $415 reversed $407 $-1 #
edge $-1 $420 -41.975157933286539 $563 41.975157933286539 $414 $564 forward 7 unknown #
edge $-1 $425 -41.975157933286539 $419 41.975157933286539 $288 $565 forward 7 unknown #
coedge $-1 $286 $411 $555 $566 reversed $418 $-1 #
loop $-1 $-1 $289 $406 #
vertex $-1 $287 $567 #
vertex $-1 $287 $568 #
straight-curve $-1 41.975157933286539 0 10.171381043827482 0 1 0 I I #
straight-curve $-1 41.975157933286539 -26.260126118888333 0 0 0 -1 I I #
coedge $-1 $409 $291 $413 $562 reversed $281 $-1 #
coedge $-1 $291 $409 $293 $427 reversed $281 $-1 #
vertex $-1 $562 $569 #
straight-curve $-1 -41.975157933286539 -26.260126118888333 0 0 0 -1 I I #
edge $-1 $295 -26.260126118888333 $570 26.260126118888333 $424 $571 forward 7 unknown #
point $-1 41.975157933286539 -26.260126118888333 -10.171381043827482 #
point $-1 -41.975157933286539 -26.260126118888333 -10.171381043827482 #
face $-1 $-1 $443 $43 $-1 $572 reversed single #
plane-surface $-1 -38.975157933286539 -31.681506050525758 0 -1 0 0 0 0 1 forward_v I I I I #
coedge $-1 $573 $574 $575 $576 forward $298 $-1 #
coedge $-1 $575 $300 $442 $577 reversed $185 $-1 #
coedge $-1 $300 $575 $301 $437 reversed $185 $-1 #
edge $-1 $439 -10.171381043827482 $444 10.171381043827482 $300 $578 forward 7 unknown #
coedge $-1 $302 $301 $574 $579 forward $117 $-1 #
edge $-1 $439 26.260126118888333 $580 37.10288598216318 $434 $581 forward 7 unknown #
edge $-1 $582 -5.4213799316374214 $310 5.4213799316374249 $307 $583 forward 7 unknown #
vertex $-1 $437 $584 #
straight-curve $-1 0 -26.260126118888333 10.171381043827482 -1 0 0 I I #
coedge $-1 $585 $305 $308 $447 forward $443 $-1 #
coedge $-1 $305 $585 $433 $577 forward $443 $-1 #
loop $-1 $-1 $305 $430 #
vertex $-1 $435 $586 #
straight-curve $-1 0 -26.260126118888333 -10.171381043827482 1 0 0 I I #
coedge $-1 $308 $307 $587 $588 forward $309 $-1 #
edge $-1 $311 -5.4213799316374249 $589 5.4213799316374214 $308 $590 forward 7 unknown #
point $-1 -38.975157933286539 -26.260126118888333 10.171381043827482 #
point $-1 -38.975157933286539 -26.260126118888333 -10.171381043827482 #
plane-surface $-1 0 0 10.171381043827482 0 0 1 1 0 0 forward_v I I I I #
coedge $-1 $461 $460 $453 $591 forward $314 $-1 #
coedge $-1 $453 $316 $318 $457 reversed $193 $-1 #
coedge $-1 $316 $452 $451 $591 reversed $193 $-1 #
coedge $-1 $324 $319 $316 $455 forward $325 $-1 #
edge $-1 $458 -3.2902597454244784 $592 4.5582764930915864 $454 $593 forward 7 unknown #
coedge $-1 $318 $317 $461 $594 reversed $121 $-1 #
edge $-1 $595 -52.520252237776674 $458 -41.959004892750094 $452 $596 forward 7 unknown #
vertex $-1 $320 $597 #
straight-curve $-1 -15.522501325547369 18.411589880372265 10.171381043827481 1 0 0 I I #
coedge $-1 $451 $321 $324 $465 reversed $314 $-1 #
coedge $-1 $321 $451 $456 $594 forward $314 $-1 #
vertex $-1 $322 $598 #
straight-curve $-1 -38.033539146567257 26.260126118888333 50.317338996361734 0 0 1 I I #
straight-curve $-1 -38.033539146567257 -12.770027183818684 38.247435767594887 0 0.74314481823134659 -0.66913061440640931 I I #
edge $-1 $592 24.056466155622218 $326 38.033539146567257 $460 $599 forward 7 unknown #
point $-1 -38.033539146567257 26.260126118888333 10.171381043827482 #
point $-1 -38.033539146567257 18.411589880372269 10.171381043827481 #
edge $-1 $600 1 $600 0 $329 $-1 forward 7 unknown #
vertex $-1 $330 $601 #
ellipse-curve $-1 -34.040089720582962 20.366244764054485 4.4504770202234667 0 0.66913061440640931 0.74314481823134659 1 0 0 1 I I #
point $-1 -33.040089720582962 22.335857999630296 6.6379540813896272 #
edge $-1 $602 1 $602 0 $333 $-1 forward 7 unknown #
vertex $-1 $334 $603 #
ellipse-curve $-1 -28.049915581606516 20.366244764054485 4.4504770202234667 0 0.66913061440640931 0.74314481823134659 1 0 0 1 I I #
point $-1 -27.049915581606516 22.335857999630296 6.6379540813896272 #
loop $-1 $-1 $345 $337 #
plane-surface $-1 0 26.260126118888333 0 0 -1 0 0 0 -1 forward_v I I I I #
coedge $-1 $479 $340 $342 $483 reversed $215 $-1 #
coedge $-1 $340 $478 $604 $605 reversed $215 $-1 #
coedge $-1 $348 $343 $340 $481 forward $338 $-1 #
edge $-1 $484 -3.2902597454244784 $606 4.5582764930915864 $480 $607 forward 7 unknown #
coedge $-1 $342 $341 $487 $608 reversed $135 $-1 #
edge $-1 $609 -52.520252237776674 $484 -41.959004892750094 $478 $610 forward 7 unknown #
vertex $-1 $344 $611 #
straight-curve $-1 -5.028711842225734 18.411589880372265 10.171381043827481 1 0 0 I I #
coedge $-1 $604 $345 $348 $491 reversed $476 $-1 #
coedge $-1 $345 $604 $482 $608 forward $476 $-1 #
vertex $-1 $346 $612 #
straight-curve $-1 -17.045960179923988 26.260126118888333 50.317338996361734 0 0 1 I I #
straight-curve $-1 -17.045960179923988 -12.770027183818684 38.247435767594887 0 0.74314481823134659 -0.66913061440640931 I I #
edge $-1 $606 3.0688871889789482 $349 17.045960179923988 $486 $613 forward 7 unknown #
point $-1 -17.045960179923988 26.260126118888333 10.171381043827482 #
point $-1 -17.045960179923988 18.411589880372269 10.171381043827481 #
edge $-1 $614 1 $614 0 $352 $-1 forward 7 unknown #
vertex $-1 $353 $615 #
ellipse-curve $-1 -13.052510753939693 20.366244764054485 4.4504770202234667 0 0.66913061440640931 0.74314481823134659 1 0 0 1 I I #
point $-1 -12.052510753939693 22.335857999630296 6.6379540813896272 #
edge $-1 $616 1 $616 0 $356 $-1 forward 7 unknown #
vertex $-1 $357 $617 #
ellipse-curve $-1 -7.0623366149632432 20.366244764054485 4.4504770202234667 0 0.66913061440640931 0.74314481823134659 1 0 0 1 I I #
point $-1 -6.0623366149632432 22.335857999630296 6.6379540813896272 #
loop $-1 $-1 $368 $360 #
plane-surface $-1 0 26.260126118888333 0 0 -1 0 0 0 -1 forward_v I I I I #
coedge $-1 $505 $363 $365 $509 reversed $237 $-1 #
coedge $-1 $363 $504 $618 $619 reversed $237 $-1 #
coedge $-1 $371 $366 $363 $507 forward $361 $-1 #
edge $-1 $510 -3.2902597454244784 $620 4.5582764930915864 $506 $621 forward 7 unknown #
coedge $-1 $365 $364 $513 $622 reversed $149 $-1 #
edge $-1 $623 -52.520252237776674 $510 -41.959004892750094 $504 $624 forward 7 unknown #
vertex $-1 $367 $625 #
straight-curve $-1 5.4650776410959025 18.411589880372265 10.171381043827481 1 0 0 I I #
coedge $-1 $618 $368 $371 $517 reversed $502 $-1 #
coedge $-1 $368 $618 $508 $622 forward $502 $-1 #
vertex $-1 $369 $626 #
straight-curve $-1 3.9416187867192853 26.260126118888333 50.317338996361734 0 0 1 I I #
straight-curve $-1 3.9416187867192853 -12.770027183818684 38.247435767594887 0 0.74314481823134659 -0.66913061440640931 I I #
edge $-1 $620 -17.918691777664325 $372 -3.9416187867192853 $512 $627 forward 7 unknown #
point $-1 3.9416187867192853 26.260126118888333 10.171381043827482 #
point $-1 3.9416187867192853 18.411589880372269 10.171381043827481 #
edge $-1 $628 1 $628 0 $375 $-1 forward 7 unknown #
vertex $-1 $376 $629 #
ellipse-curve $-1 7.9350682127035768 20.366244764054485 4.4504770202234667 0 0.66913061440640931 0.74314481823134659 1 0 0 1 I I #
point $-1 8.9350682127035768 22.335857999630296 6.6379540813896272 #
edge $-1 $630 1 $630 0 $379 $-1 forward 7 unknown #
vertex $-1 $380 $631 #
ellipse-curve $-1 13.925242351680026 20.366244764054485 4.4504770202234667 0 0.66913061440640931 0.74314481823134659 1 0 0 1 I I #
point $-1 14.925242351680026 22.335857999630296 6.6379540813896272 #
loop $-1 $-1 $391 $383 #
plane-surface $-1 0 26.260126118888333 0 0 -1 0 0 0 -1 forward_v I I I I #
coedge $-1 $531 $386 $388 $535 reversed $259 $-1 #
coedge $-1 $386 $530 $632 $633 reversed $259 $-1 #
coedge $-1 $394 $389 $386 $533 forward $384 $-1 #
edge $-1 $536 -3.2902597454244784 $634 4.5582764930915864 $532 $635 forward 7 unknown #
coedge $-1 $388 $387 $539 $636 reversed $163 $-1 #
edge $-1 $637 -52.520252237776674 $536 -41.959004892750094 $530 $638 forward 7 unknown #
vertex $-1 $390 $639 #
straight-curve $-1 15.958867124417537 18.411589880372265 10.171381043827481 1 0 0 I I #
coedge $-1 $632 $391 $394 $543 reversed $528 $-1 #
coedge $-1 $391 $632 $534 $636 forward $528 $-1 #
vertex $-1 $392 $640 #
straight-curve $-1 24.929197753362555 26.260126118888333 50.317338996361734 0 0 1 I I #
straight-curve $-1 24.929197753362555 -12.770027183818684 38.247435767594887 0 0.74314481823134659 -0.66913061440640931 I I #
edge $-1 $634 -38.906270744307591 $395 -24.929197753362555 $538 $641 forward 7 unknown #
point $-1 24.929197753362555 26.260126118888333 10.171381043827482 #
point $-1 24.929197753362555 18.411589880372269 10.171381043827481 #
edge $-1 $642 1 $642 0 $398 $-1 forward 7 unknown #
vertex $-1 $399 $643 #
ellipse-curve $-1 28.922647179346853 20.366244764054485 4.4504770202234667 0 0.66913061440640931 0.74314481823134659 1 0 0 1 I I #
point $-1 29.922647179346853 22.335857999630296 6.6379540813896272 #
edge $-1 $644 1 $644 0 $402 $-1 forward 7 unknown #
vertex $-1 $403 $645 #
ellipse-curve $-1 34.912821318323296 20.366244764054485 4.4504770202234667 0 0.66913061440640931 0.74314481823134659 1 0 0 1 I I #
point $-1 35.912821318323296 22.335857999630296 6.6379540813896272 #
plane-surface $-1 41.975157933286539 0 0 -1 0 0 0 0 1 forward_v I I I I #
coedge $-1 $558 $414 $417 $566 forward $407 $-1 #
coedge $-1 $414 $558 $409 $557 reversed $407 $-1 #
edge $-1 $563 -10.171381043827482 $570 10.171381043827482 $556 $646 forward 7 unknown #
coedge $-1 $556 $555 $410 $559 reversed $407 $-1 #
edge $-1 $570 -41.975157933286539 $560 41.975157933286539 $558 $647 forward 7 unknown #
vertex $-1 $412 $648 #
straight-curve $-1 41.975157933286539 0 -10.171381043827482 0 -1 0 I I #
edge $-1 $563 -26.260126118888333 $425 26.260126118888333 $423 $649 forward 7 unknown #
vertex $-1 $415 $650 #
straight-curve $-1 0 26.260126118888333 10.171381043827482 -1 0 0 I I #
straight-curve $-1 0 -26.260126118888333 10.171381043827482 1 0 0 I I #
edge $-1 $420 -10.171381043827482 $560 10.171381043827482 $417 $651 forward 7 unknown #
point $-1 41.975157933286539 -26.260126118888333 10.171381043827482 #
point $-1 41.975157933286539 26.260126118888333 10.171381043827482 #
point $-1 -41.975157933286539 -26.260126118888333 10.171381043827482 #
vertex $-1 $559 $652 #
straight-curve $-1 -41.975157933286539 0 -10.171381043827482 0 1 0 I I #
plane-surface $-1 0 0 -10.171381043827482 0 0 1 1 0 0 forward_v I I I I #
coedge $-1 $587 $432 $585 $653 reversed $298 $-1 #
coedge $-1 $432 $587 $436 $579 reversed $298 $-1 #
coedge $-1 $434 $433 $432 $576 reversed $185 $-1 #
edge $-1 $580 -10.171381043827482 $654 10.171381043827482 $575 $655 forward 7 unknown #
edge $-1 $654 -37.10288598216318 $444 -26.260126118888333 $433 $656 forward 7 unknown #
straight-curve $-1 -41.975157933286539 -26.260126118888333 0 0 0 -1 I I #
edge $-1 $580 -1.5 $582 1.5 $574 $657 forward 7 unknown #
vertex $-1 $437 $658 #
straight-curve $-1 -41.975157933286539 0 10.171381043827482 0 -1 0 I I #
vertex $-1 $438 $659 #
straight-curve $-1 -38.975157933286539 -31.681506050525758 10.171381043827482 0 1 0 I I #
point $-1 -41.975157933286539 -26.260126118888333 10.171381043827482 #
coedge $-1 $442 $441 $573 $653 forward $443 $-1 #
point $-1 -41.975157933286539 -26.260126118888333 -10.171381043827482 #
coedge $-1 $574 $573 $446 $588 reversed $298 $-1 #
edge $-1 $582 -10.171381043827482 $589 10.171381043827482 $446 $660 forward 7 unknown #
vertex $-1 $588 $661 #
straight-curve $-1 -38.975157933286539 -31.681506050525758 -10.171381043827482 0 -1 0 I I #
edge $-1 $592 40.145957952534253 $595 47.212811877409948 $451 $662 forward 7 unknown #
vertex $-1 $465 $663 #
straight-curve $-1 -24.056466155622218 21.701849625796747 10.171381043827481 0 1 0 I I #
edge $-1 $595 8.533964830074849 $462 22.51103782101989 $461 $664 forward 7 unknown #
vertex $-1 $594 $665 #
straight-curve $-1 -24.056466155622218 -12.770027183818684 38.247435767594887 0 -0.74314481823134659 0.66913061440640931 I I #
point $-1 -24.056466155622218 18.411589880372269 10.171381043827481 #
point $-1 -38.033539146567257 26.260126118888337 3.1045271189517862 #
straight-curve $-1 0 26.260126118888333 10.171381043827482 -1 0 0 I I #
vertex $-1 $468 $666 #
point $-1 -33.040089720582962 20.366244764054485 4.4504770202234667 #
vertex $-1 $472 $667 #
point $-1 -27.049915581606516 20.366244764054485 4.4504770202234667 #
coedge $-1 $487 $486 $479 $605 forward $476 $-1 #
edge $-1 $606 40.145957952534253 $609 47.212811877409948 $604 $668 forward 7 unknown #
vertex $-1 $491 $669 #
straight-curve $-1 -3.0688871889789482 21.701849625796747 10.171381043827481 0 1 0 I I #
edge $-1 $609 -1.9598246532467858 $488 12.017248337698254 $487 $670 forward 7 unknown #
vertex $-1 $608 $671 #
straight-curve $-1 -3.0688871889789482 -12.770027183818684 38.247435767594887 0 -0.74314481823134659 0.66913061440640931 I I #
point $-1 -3.0688871889789482 18.411589880372269 10.171381043827481 #
point $-1 -17.045960179923988 26.260126118888337 3.1045271189517862 #
straight-curve $-1 0 26.260126118888333 10.171381043827482 -1 0 0 I I #
vertex $-1 $494 $672 #
point $-1 -12.052510753939693 20.366244764054485 4.4504770202234667 #
vertex $-1 $498 $673 #
point $-1 -6.0623366149632432 20.366244764054485 4.4504770202234667 #
coedge $-1 $513 $512 $505 $619 forward $502 $-1 #
edge $-1 $620 40.145957952534253 $623 47.212811877409948 $618 $674 forward 7 unknown #
vertex $-1 $517 $675 #
straight-curve $-1 17.918691777664325 21.701849625796747 10.171381043827481 0 1 0 I I #
edge $-1 $623 -12.453614136568422 $514 1.5234588543766172 $513 $676 forward 7 unknown #
vertex $-1 $622 $677 #
straight-curve $-1 17.918691777664325 -12.770027183818684 38.247435767594887 0 -0.74314481823134659 0.66913061440640931 I I #
point $-1 17.918691777664325 18.411589880372269 10.171381043827481 #
point $-1 3.9416187867192853 26.260126118888337 3.1045271189517862 #
straight-curve $-1 0 26.260126118888333 10.171381043827482 -1 0 0 I I #
vertex $-1 $520 $678 #
point $-1 8.9350682127035768 20.366244764054485 4.4504770202234667 #
vertex $-1 $524 $679 #
point $-1 14.925242351680026 20.366244764054485 4.4504770202234667 #
coedge $-1 $539 $538 $531 $633 forward $528 $-1 #
edge $-1 $634 40.145957952534253 $637 47.212811877409948 $632 $680 forward 7 unknown #
vertex $-1 $543 $681 #
straight-curve $-1 38.906270744307591 21.701849625796747 10.171381043827481 0 1 0 I I #
edge $-1 $637 -22.947403619890054 $540 -8.9703306289450175 $539 $682 forward 7 unknown #
vertex $-1 $636 $683 #
straight-curve $-1 38.906270744307591 -12.770027183818684 38.247435767594887 0 -0.74314481823134659 0.66913061440640931 I I #
point $-1 38.906270744307591 18.411589880372269 10.171381043827481 #
point $-1 24.929197753362555 26.260126118888337 3.1045271189517862 #
straight-curve $-1 0 26.260126118888333 10.171381043827482 -1 0 0 I I #
vertex $-1 $546 $684 #
point $-1 29.922647179346853 20.366244764054485 4.4504770202234667 #
vertex $-1 $550 $685 #
point $-1 35.912821318323296 20.366244764054485 4.4504770202234667 #
straight-curve $-1 -41.975157933286539 26.260126118888333 0 0 0 -1 I I #
straight-curve $-1 0 26.260126118888333 -10.171381043827482 1 0 0 I I #
point $-1 41.975157933286539 26.260126118888333 -10.171381043827482 #
straight-curve $-1 -41.975157933286539 0 10.171381043827482 0 -1 0 I I #
point $-1 -41.975157933286539 26.260126118888333 10.171381043827482 #
straight-curve $-1 41.975157933286539 26.260126118888333 0 0 0 -1 I I #
point $-1 -41.975157933286539 26.260126118888333 -10.171381043827482 #
edge $-1 $589 -1.5 $654 1.5 $573 $686 forward 7 unknown #
vertex $-1 $577 $687 #
straight-curve $-1 -41.975157933286539 -37.10288598216318 0 0 0 -1 I I #
straight-curve $-1 -41.975157933286539 0 -10.171381043827482 0 1 0 I I #
straight-curve $-1 -40.475157933286539 -37.10288598216318 10.171381043827482 1 0 0 I I #
point $-1 -41.975157933286539 -37.10288598216318 10.171381043827482 #
point $-1 -38.975157933286539 -37.10288598216318 10.171381043827482 #
straight-curve $-1 -38.975157933286539 -37.10288598216318 0 0 0 -1 I I #
point $-1 -38.975157933286539 -37.10288598216318 -10.171381043827482 #
straight-curve $-1 -24.056466155622218 26.260126118888333 50.317338996361734 0 0 -1 I I #
point $-1 -24.056466155622218 26.260126118888333 10.171381043827482 #
straight-curve $-1 -15.522501325547369 26.260126118888333 3.1045271189517933 -1 0 0 I I #
point $-1 -24.056466155622218 26.260126118888337 3.1045271189517862 #
point $-1 -34.040089720582962 19.69711414964808 3.70733220199212 #
point $-1 -28.049915581606516 19.69711414964808 3.70733220199212 #
straight-curve $-1 -3.0688871889789482 26.260126118888333 50.317338996361734 0 0 -1 I I #
point $-1 -3.0688871889789482 26.260126118888333 10.171381043827482 #
straight-curve $-1 -5.028711842225734 26.260126118888333 3.1045271189517933 -1 0 0 I I #
point $-1 -3.0688871889789482 26.260126118888337 3.1045271189517862 #
point $-1 -13.052510753939693 19.69711414964808 3.70733220199212 #
point $-1 -7.0623366149632432 19.69711414964808 3.70733220199212 #
straight-curve $-1 17.918691777664325 26.260126118888333 50.317338996361734 0 0 -1 I I #
point $-1 17.918691777664325 26.260126118888333 10.171381043827482 #
straight-curve $-1 5.4650776410959025 26.260126118888333 3.1045271189517933 -1 0 0 I I #
point $-1 17.918691777664325 26.260126118888337 3.1045271189517862 #
point $-1 7.9350682127035768 19.69711414964808 3.70733220199212 #
point $-1 13.925242351680026 19.69711414964808 3.70733220199212 #
straight-curve $-1 38.906270744307591 26.260126118888333 50.317338996361734 0 0 -1 I I #
point $-1 38.906270744307591 26.260126118888333 10.171381043827482 #
straight-curve $-1 15.958867124417537 26.260126118888333 3.1045271189517933 -1 0 0 I I #
point $-1 38.906270744307591 26.260126118888337 3.1045271189517862 #
point $-1 28.922647179346853 19.69711414964808 3.70733220199212 #
point $-1 34.912821318323296 19.69711414964808 3.70733220199212 #
straight-curve $-1 -40.475157933286539 -37.10288598216318 -10.171381043827482 -1 0 0 I I #
point $-1 -41.975157933286539 -37.10288598216318 -10.171381043827482 #
End-of-ACIS-data 