500 0 6 0           
7 Unknown 11 ACIS 5.0 NT 24 Thu Mar 25 18:01:32 1999 
-1 9.9999999999999995e-007 1e-010 
body $-1 $6 $-1 $7 #
body $-1 $8 $-1 $9 #
body $-1 $10 $-1 $11 #
body $-1 $12 $-1 $13 #
body $-1 $14 $-1 $15 #
body $-1 $16 $-1 $17 #
lump $-1 $-1 $18 $0 #
transform $-1 1 0 0 0 1 0 0 0 1 65.152134769737842 44.264957264041797 12.635783082520261 1 rotate no_reflect no_shear #
lump $-1 $-1 $19 $1 #
transform $-1 1 0 0 0 1 0 0 0 1 65.152134769737842 44.264957264041797 12.635783082520261 1 rotate no_reflect no_shear #
lump $-1 $-1 $20 $2 #
transform $-1 1 0 0 0 1 0 0 0 1 65.152134769737842 44.264957264041797 12.635783082520261 1 rotate no_reflect no_shear #
lump $-1 $-1 $21 $3 #
transform $-1 1 0 0 0 1 0 0 0 1 65.152134769737842 44.264957264041797 12.635783082520261 1 rotate no_reflect no_shear #
lump $-1 $-1 $22 $4 #
transform $-1 1 0 0 0 1 0 0 0 1 65.152134769737842 44.264957264041797 12.635783082520261 1 rotate no_reflect no_shear #
lump $-1 $-1 $23 $5 #
transform $-1 1 0 0 0 1 0 0 0 1 65.152134769737842 44.264957264041797 12.635783082520261 1 rotate no_reflect no_shear #
shell $-1 $-1 $-1 $24 $-1 $6 #
shell $-1 $-1 $-1 $25 $-1 $8 #
shell $-1 $-1 $-1 $26 $-1 $10 #
shell $-1 $-1 $-1 $27 $-1 $12 #
shell $-1 $-1 $-1 $28 $-1 $14 #
shell $-1 $-1 $-1 $29 $-1 $16 #
face $-1 $30 $31 $18 $-1 $32 reversed single #
face $-1 $33 $34 $19 $-1 $35 forward single #
face $-1 $36 $37 $20 $-1 $38 reversed single #
face $-1 $39 $40 $21 $-1 $41 forward single #
face $-1 $42 $43 $22 $-1 $44 forward single #
face $-1 $45 $46 $23 $-1 $47 forward single #
face $-1 $48 $49 $18 $-1 $50 forward single #
loop $-1 $-1 $51 $24 #
plane-surface $-1 0 -44.264957264041797 0 0 1 0 0 0 1 forward_v I I I I #
face $-1 $52 $53 $19 $-1 $54 reversed single #
loop $-1 $-1 $55 $25 #
plane-surface $-1 0 -44.264957264041797 0 0 1 0 0 0 1 forward_v I I I I #
face $-1 $56 $57 $20 $-1 $58 reversed single #
loop $-1 $-1 $59 $26 #
plane-surface $-1 -164.97099744491533 -18.177587743855973 88.308991917041851 0 1 0 -0.7660444514056185 0 0.64278759981090561 forward_v I I I I #
face $-1 $60 $61 $21 $-1 $62 forward single #
loop $-1 $63 $64 $27 #
cone-surface $-1 -61.377153137978759 -16.397541460880294 8.2720093686791767 0.7660444514056185 0 -0.64278759981090561 0.3213937999054528 0 0.38302222570280925 1 I I 0 1 0.5 forward I I I I #
face $-1 $65 $66 $22 $-1 $67 forward single #
loop $-1 $68 $69 $28 #
cone-surface $-1 -61.377153137978759 -13.727472036416771 8.2720093686791767 0.7660444514056185 0 -0.64278759981090561 0.3213937999054528 0 0.38302222570280925 1 I I 0 1 0.5 forward I I I I #
face $-1 $70 $71 $23 $-1 $72 forward single #
loop $-1 $73 $74 $29 #
cone-surface $-1 -61.377153137978759 -11.05740261195325 8.2720093686791767 0.7660444514056185 0 -0.64278759981090561 0.3213937999054528 0 0.38302222570280925 1 I I 0 1 0.5 forward I I I I #
face $-1 $75 $76 $18 $-1 $77 reversed single #
loop $-1 $-1 $78 $30 #
plane-surface $-1 0 0 12.635783082520261 0 0 1 1 0 0 forward_v I I I I #
coedge $-1 $79 $80 $81 $82 reversed $31 $-1 #
face $-1 $83 $84 $19 $-1 $85 reversed single #
loop $-1 $-1 $86 $33 #
plane-surface $-1 0 0 -12.635783082520261 0 0 1 1 0 0 forward_v I I I I #
coedge $-1 $87 $88 $89 $90 forward $34 $-1 #
face $-1 $91 $92 $20 $-1 $93 reversed single #
loop $-1 $-1 $94 $36 #
plane-surface $-1 -65.152134769737827 -13.727472036416771 4.5510232546489817 -0.7660444514056185 0 0.64278759981090561 0.64278759981090561 0 0.7660444514056185 forward_v I I I I #
coedge $-1 $95 $96 $97 $98 reversed $37 $-1 #
face $-1 $-1 $99 $21 $-1 $100 forward single #
loop $-1 $101 $102 $39 #
cone-surface $-1 -60.802619799424548 -16.397541460880294 7.7899186688209969 0.7660444514056185 0 -0.64278759981090561 0.1606968999527264 0 0.19151111285140462 1 I I -0.70710678118654746 0.70710678118654746 0.25 forward I I I I #
loop $-1 $-1 $103 $27 #
coedge $-1 $64 $64 $104 $105 reversed $40 $-1 #
face $-1 $-1 $106 $22 $-1 $107 forward single #
loop $-1 $108 $109 $42 #
cone-surface $-1 -60.802619799424548 -13.727472036416771 7.7899186688209969 0.7660444514056185 0 -0.64278759981090561 0.1606968999527264 0 0.19151111285140462 1 I I -0.70710678118654746 0.70710678118654746 0.25 forward I I I I #
loop $-1 $-1 $110 $28 #
coedge $-1 $69 $69 $111 $112 reversed $43 $-1 #
face $-1 $-1 $113 $23 $-1 $114 forward single #
loop $-1 $115 $116 $45 #
cone-surface $-1 -60.802619799424548 -11.05740261195325 7.7899186688209969 0.7660444514056185 0 -0.64278759981090561 0.1606968999527264 0 0.19151111285140462 1 I I -0.70710678118654746 0.70710678118654746 0.25 forward I I I I #
loop $-1 $-1 $117 $29 #
coedge $-1 $74 $74 $118 $119 reversed $46 $-1 #
face $-1 $120 $121 $18 $-1 $122 reversed single #
loop $-1 $-1 $123 $48 #
plane-surface $-1 0 0 -12.635783082520261 0 0 1 1 0 0 forward_v I I I I #
coedge $-1 $124 $125 $126 $127 forward $49 $-1 #
coedge $-1 $128 $51 $129 $130 reversed $31 $-1 #
coedge $-1 $51 $128 $131 $132 forward $31 $-1 #
coedge $-1 $133 $123 $51 $82 forward $76 $-1 #
edge $-1 $134 -65.152134769737842 $135 65.152134769737842 $51 $136 forward 7 unknown #
face $-1 $137 $138 $19 $-1 $139 reversed single #
loop $-1 $-1 $140 $52 #
plane-surface $-1 -43.278659883876379 -52.888610244239018 0 0 1 0 0 0 1 forward_v I I I I #
coedge $-1 $141 $142 $88 $143 forward $53 $-1 #
coedge $-1 $144 $55 $145 $146 reversed $34 $-1 #
coedge $-1 $55 $144 $86 $143 reversed $34 $-1 #
coedge $-1 $147 $148 $55 $90 reversed $138 $-1 #
edge $-1 $149 -12.635783082520261 $150 12.635783082520261 $89 $151 forward 7 unknown #
face $-1 $152 $153 $20 $-1 $154 reversed single #
loop $-1 $-1 $155 $56 #
plane-surface $-1 -164.97099744491533 -9.2773563289775662 88.308991917041851 0 -1 0 0.7660444514056185 0 -0.64278759981090561 forward_v I I I I #
coedge $-1 $156 $157 $158 $159 reversed $57 $-1 #
coedge $-1 $96 $59 $160 $161 reversed $37 $-1 #
coedge $-1 $59 $95 $156 $162 reversed $37 $-1 #
coedge $-1 $158 $163 $59 $98 forward $164 $-1 #
edge $-1 $165 17.333363952719822 $166 24.117282764832382 $97 $167 forward 7 unknown #
loop $-1 $-1 $104 $60 #
plane-surface $-1 -65.152134769737827 -13.727472036416771 4.5510232546489817 -0.7660444514056185 0 0.64278759981090561 0.64278759981090561 0 0.7660444514056185 forward_v I I I I #
loop $-1 $-1 $168 $39 #
coedge $-1 $102 $102 $103 $169 reversed $61 $-1 #
coedge $-1 $103 $103 $102 $169 forward $63 $-1 #
coedge $-1 $104 $104 $64 $105 forward $99 $-1 #
edge $-1 $170 0 $170 6.2831853071796004 $104 $171 forward 7 unknown #
loop $-1 $-1 $111 $65 #
plane-surface $-1 -65.152134769737827 -13.727472036416771 4.5510232546489817 -0.7660444514056185 0 0.64278759981090561 0.64278759981090561 0 0.7660444514056185 forward_v I I I I #
loop $-1 $-1 $172 $42 #
coedge $-1 $109 $109 $110 $173 reversed $66 $-1 #
coedge $-1 $110 $110 $109 $173 forward $68 $-1 #
coedge $-1 $111 $111 $69 $112 forward $106 $-1 #
edge $-1 $174 0 $174 6.2831853071796004 $111 $175 forward 7 unknown #
loop $-1 $-1 $118 $70 #
plane-surface $-1 -65.152134769737827 -13.727472036416771 4.5510232546489817 -0.7660444514056185 0 0.64278759981090561 0.64278759981090561 0 0.7660444514056185 forward_v I I I I #
loop $-1 $-1 $176 $45 #
coedge $-1 $116 $116 $117 $177 reversed $71 $-1 #
coedge $-1 $117 $117 $116 $177 forward $73 $-1 #
coedge $-1 $118 $118 $74 $119 forward $113 $-1 #
edge $-1 $178 0 $178 6.2831853071796004 $118 $179 forward 7 unknown #
face $-1 $180 $181 $18 $-1 $182 reversed single #
loop $-1 $-1 $183 $75 #
plane-surface $-1 -65.152134769737842 0 0 1 0 0 0 0 -1 forward_v I I I I #
coedge $-1 $81 $184 $185 $186 forward $76 $-1 #
coedge $-1 $187 $78 $188 $189 forward $49 $-1 #
coedge $-1 $78 $187 $128 $190 forward $49 $-1 #
coedge $-1 $129 $191 $78 $127 reversed $192 $-1 #
edge $-1 $193 -44.264957264041797 $194 44.264957264041797 $126 $195 forward 7 unknown #
coedge $-1 $80 $79 $125 $190 reversed $31 $-1 #
coedge $-1 $185 $126 $79 $130 forward $192 $-1 #
edge $-1 $193 -12.635783082520261 $134 12.635783082520261 $129 $196 forward 7 unknown #
coedge $-1 $197 $198 $80 $132 reversed $121 $-1 #
edge $-1 $199 -12.635783082520261 $135 12.635783082520261 $131 $200 forward 7 unknown #
coedge $-1 $184 $81 $198 $201 forward $76 $-1 #
vertex $-1 $130 $202 #
vertex $-1 $201 $203 #
straight-curve $-1 0 -44.264957264041797 -12.635783082520261 -1 0 0 I I #
face $-1 $204 $205 $19 $-1 $206 reversed single #
loop $-1 $-1 $89 $83 #
plane-surface $-1 -46.676751163055442 -48.576783754140408 0 1 0 0 0 0 -1 forward_v I I I I #
coedge $-1 $207 $208 $209 $210 forward $84 $-1 #
coedge $-1 $211 $86 $212 $213 forward $53 $-1 #
coedge $-1 $86 $211 $147 $214 forward $53 $-1 #
edge $-1 $149 -46.676751163055442 $215 -39.880568604697316 $86 $216 forward 7 unknown #
coedge $-1 $88 $87 $217 $218 forward $34 $-1 #
coedge $-1 $219 $220 $87 $146 forward $221 $-1 #
edge $-1 $222 39.880568604697316 $150 46.676751163055442 $145 $223 forward 7 unknown #
coedge $-1 $209 $89 $142 $214 reversed $138 $-1 #
coedge $-1 $89 $209 $219 $224 reversed $138 $-1 #
vertex $-1 $143 $225 #
vertex $-1 $224 $226 #
straight-curve $-1 -46.676751163055442 -44.264957264041797 0 0 0 1 I I #
face $-1 $-1 $164 $20 $-1 $227 forward single #
loop $-1 $-1 $228 $91 #
plane-surface $-1 -65.152134769737842 0 0 1 0 0 0 0 -1 forward_v I I I I #
coedge $-1 $229 $230 $231 $232 reversed $92 $-1 #
coedge $-1 $233 $94 $96 $162 forward $57 $-1 #
coedge $-1 $94 $233 $229 $234 forward $57 $-1 #
coedge $-1 $231 $97 $94 $159 forward $164 $-1 #
edge $-1 $166 -11.313851725647588 $235 -2.4136203107691809 $158 $236 forward 7 unknown #
coedge $-1 $237 $238 $95 $161 forward $153 $-1 #
edge $-1 $239 -39.603472703871958 $165 -31.518712876000663 $160 $240 forward 7 unknown #
edge $-1 $166 -10.553904297637713 $239 2.2061860048766535e-014 $96 $241 forward 7 unknown #
coedge $-1 $97 $231 $237 $242 forward $164 $-1 #
loop $-1 $-1 $231 $152 #
vertex $-1 $161 $243 #
vertex $-1 $98 $244 #
straight-curve $-1 -82.485498722457663 -18.177587743855973 12.635783082520263 1 0 0 I I #
coedge $-1 $168 $168 $-1 $245 reversed $101 $-1 #
edge $-1 $246 0 $246 6.2831853071796004 $102 $247 forward 7 unknown #
vertex $-1 $105 $248 #
ellipse-curve $-1 -61.760175363681554 -16.397541460880294 8.5934031685846186 -0.7660444514056185 0 0.64278759981090561 0.3213937999054528 0 0.38302222570280925 1 I I #
coedge $-1 $172 $172 $-1 $249 reversed $108 $-1 #
edge $-1 $250 0 $250 6.2831853071796004 $109 $251 forward 7 unknown #
vertex $-1 $112 $252 #
ellipse-curve $-1 -61.760175363681554 -13.727472036416771 8.5934031685846186 -0.7660444514056185 0 0.64278759981090561 0.3213937999054528 0 0.38302222570280925 1 I I #
coedge $-1 $176 $176 $-1 $253 reversed $115 $-1 #
edge $-1 $254 0 $254 6.2831853071796004 $116 $255 forward 7 unknown #
vertex $-1 $119 $256 #
ellipse-curve $-1 -61.760175363681554 -11.05740261195325 8.5934031685846186 -0.7660444514056185 0 0.64278759981090561 0.3213937999054528 0 0.38302222570280925 1 I I #
face $-1 $-1 $192 $18 $-1 $257 reversed single #
loop $-1 $-1 $258 $120 #
plane-surface $-1 0 44.264957264041797 0 0 -1 0 0 0 -1 forward_v I I I I #
coedge $-1 $198 $197 $259 $260 forward $121 $-1 #
coedge $-1 $123 $133 $261 $262 forward $76 $-1 #
coedge $-1 $191 $129 $123 $186 reversed $192 $-1 #
edge $-1 $263 -44.264957264041797 $134 44.264957264041797 $185 $264 forward 7 unknown #
coedge $-1 $125 $124 $197 $265 forward $49 $-1 #
coedge $-1 $258 $259 $124 $189 reversed $181 $-1 #
edge $-1 $194 -65.152134769737842 $266 65.152134769737842 $188 $267 forward 7 unknown #
edge $-1 $199 -65.152134769737842 $193 65.152134769737842 $128 $268 forward 7 unknown #
coedge $-1 $126 $185 $258 $269 reversed $192 $-1 #
loop $-1 $-1 $129 $180 #
vertex $-1 $127 $270 #
vertex $-1 $127 $271 #
straight-curve $-1 65.152134769737842 0 12.635783082520261 0 1 0 I I #
straight-curve $-1 65.152134769737842 -44.264957264041797 0 0 0 -1 I I #
coedge $-1 $183 $131 $187 $265 reversed $121 $-1 #
coedge $-1 $131 $183 $133 $201 reversed $121 $-1 #
vertex $-1 $265 $272 #
straight-curve $-1 -65.152134769737842 -44.264957264041797 0 0 0 -1 I I #
edge $-1 $135 -44.264957264041797 $273 44.264957264041797 $198 $274 forward 7 unknown #
point $-1 65.152134769737842 -44.264957264041797 -12.635783082520261 #
point $-1 -65.152134769737842 -44.264957264041797 -12.635783082520261 #
face $-1 $-1 $221 $19 $-1 $275 forward single #
loop $-1 $-1 $276 $137 #
plane-surface $-1 -39.880568604697316 -48.576783754140408 0 -1 0 0 0 0 1 forward_v I I I I #
coedge $-1 $277 $140 $211 $278 reversed $84 $-1 #
coedge $-1 $140 $277 $279 $280 reversed $84 $-1 #
coedge $-1 $148 $147 $140 $210 reversed $138 $-1 #
edge $-1 $281 -12.635783082520261 $282 12.635783082520261 $209 $283 forward 7 unknown #
coedge $-1 $142 $141 $207 $278 forward $53 $-1 #
coedge $-1 $217 $276 $141 $213 reversed $205 $-1 #
edge $-1 $215 -4.3118264900986105 $284 4.3118264900986105 $212 $285 forward 7 unknown #
edge $-1 $282 -4.3118264900986105 $149 4.3118264900986105 $147 $286 forward 7 unknown #
vertex $-1 $213 $287 #
straight-curve $-1 0 -44.264957264041797 -12.635783082520261 1 0 0 I I #
coedge $-1 $288 $212 $144 $218 reversed $205 $-1 #
edge $-1 $222 -12.635783082520261 $215 12.635783082520261 $217 $289 forward 7 unknown #
coedge $-1 $279 $145 $148 $224 forward $221 $-1 #
coedge $-1 $145 $279 $288 $290 forward $221 $-1 #
loop $-1 $-1 $145 $204 #
vertex $-1 $146 $291 #
straight-curve $-1 0 -44.264957264041797 12.635783082520261 -1 0 0 I I #
edge $-1 $150 -4.3118264900986105 $281 4.3118264900986105 $148 $292 forward 7 unknown #
point $-1 -46.676751163055442 -44.264957264041797 -12.635783082520261 #
point $-1 -46.676751163055442 -44.264957264041797 12.635783082520261 #
plane-surface $-1 0 0 12.635783082520261 0 0 1 1 0 0 forward_v I I I I #
coedge $-1 $238 $237 $230 $293 forward $153 $-1 #
coedge $-1 $230 $155 $157 $234 reversed $92 $-1 #
coedge $-1 $155 $229 $228 $293 reversed $92 $-1 #
coedge $-1 $163 $158 $155 $232 forward $164 $-1 #
edge $-1 $235 -24.117282764832382 $294 -17.333363952719822 $231 $295 forward 7 unknown #
coedge $-1 $157 $156 $238 $296 reversed $57 $-1 #
edge $-1 $297 -2.2061860048766535e-014 $235 10.553904297637713 $229 $298 forward 7 unknown #
vertex $-1 $159 $299 #
straight-curve $-1 -58.368215957625281 -6.8637360182083853 12.635783082520261 0 1 0 I I #
coedge $-1 $228 $160 $163 $242 reversed $153 $-1 #
coedge $-1 $160 $228 $233 $296 forward $153 $-1 #
vertex $-1 $161 $300 #
straight-curve $-1 -65.152134769737842 -18.177587743855973 44.154495958520926 0 0 1 I I #
straight-curve $-1 -65.152134769737827 -18.177587743855973 4.5510232546489817 -0.64278759981090561 0 -0.7660444514056185 I I #
edge $-1 $294 9.2773563289775662 $165 18.177587743855973 $237 $301 forward 7 unknown #
point $-1 -65.152134769737842 -18.177587743855973 12.635783082520261 #
point $-1 -58.368215957625281 -18.177587743855973 12.635783082520261 #
edge $-1 $302 1 $302 0 $168 $-1 forward 7 unknown #
vertex $-1 $169 $303 #
ellipse-curve $-1 -60.994130912275949 -16.397541460880294 7.9506155687737232 -0.7660444514056185 0 0.64278759981090561 0.3213937999054528 0 0.38302222570280925 1 I I #
point $-1 -61.438781563776118 -16.397541460880294 8.976425394287439 #
edge $-1 $304 1 $304 0 $172 $-1 forward 7 unknown #
vertex $-1 $173 $305 #
ellipse-curve $-1 -60.994130912275949 -13.727472036416771 7.9506155687737232 -0.7660444514056185 0 0.64278759981090561 0.3213937999054528 0 0.38302222570280925 1 I I #
point $-1 -61.438781563776118 -13.727472036416771 8.976425394287439 #
edge $-1 $306 1 $306 0 $176 $-1 forward 7 unknown #
vertex $-1 $177 $307 #
ellipse-curve $-1 -60.994130912275949 -11.05740261195325 7.9506155687737232 -0.7660444514056185 0 0.64278759981090561 0.3213937999054528 0 0.38302222570280925 1 I I #
point $-1 -61.438781563776118 -11.05740261195325 8.976425394287439 #
plane-surface $-1 65.152134769737842 0 0 -1 0 0 0 0 1 forward_v I I I I #
coedge $-1 $261 $188 $191 $269 forward $181 $-1 #
coedge $-1 $188 $261 $183 $260 reversed $181 $-1 #
edge $-1 $266 -12.635783082520261 $273 12.635783082520261 $259 $308 forward 7 unknown #
coedge $-1 $259 $258 $184 $262 reversed $181 $-1 #
edge $-1 $273 -65.152134769737842 $263 65.152134769737842 $261 $309 forward 7 unknown #
vertex $-1 $186 $310 #
straight-curve $-1 65.152134769737842 0 -12.635783082520261 0 -1 0 I I #
edge $-1 $266 -44.264957264041797 $199 44.264957264041797 $197 $311 forward 7 unknown #
vertex $-1 $189 $312 #
straight-curve $-1 0 44.264957264041797 12.635783082520261 -1 0 0 I I #
straight-curve $-1 0 -44.264957264041797 12.635783082520261 1 0 0 I I #
edge $-1 $194 -12.635783082520261 $263 12.635783082520261 $191 $313 forward 7 unknown #
point $-1 65.152134769737842 -44.264957264041797 12.635783082520261 #
point $-1 65.152134769737842 44.264957264041797 12.635783082520261 #
point $-1 -65.152134769737842 -44.264957264041797 12.635783082520261 #
vertex $-1 $262 $314 #
straight-curve $-1 -65.152134769737842 0 -12.635783082520261 0 1 0 I I #
plane-surface $-1 0 0 12.635783082520261 0 0 1 1 0 0 forward_v I I I I #
coedge $-1 $212 $288 $277 $315 forward $205 $-1 #
coedge $-1 $208 $207 $276 $315 reversed $84 $-1 #
edge $-1 $284 -3.398091279179063 $282 3.398091279179063 $207 $316 forward 7 unknown #
coedge $-1 $220 $219 $208 $280 forward $221 $-1 #
edge $-1 $281 -3.398091279179063 $317 3.398091279179063 $208 $318 forward 7 unknown #
vertex $-1 $224 $319 #
vertex $-1 $214 $320 #
straight-curve $-1 -46.676751163055442 -52.888610244239018 0 0 0 -1 I I #
vertex $-1 $315 $321 #
straight-curve $-1 -39.880568604697316 -48.576783754140408 -12.635783082520261 0 -1 0 I I #
straight-curve $-1 -46.676751163055442 -48.576783754140408 -12.635783082520261 0 1 0 I I #
point $-1 -39.880568604697316 -44.264957264041797 -12.635783082520261 #
coedge $-1 $276 $217 $220 $290 reversed $205 $-1 #
straight-curve $-1 -39.880568604697316 -44.264957264041797 0 0 0 -1 I I #
edge $-1 $317 -4.3118264900986105 $222 4.3118264900986105 $288 $322 forward 7 unknown #
point $-1 -39.880568604697316 -44.264957264041797 12.635783082520261 #
straight-curve $-1 -46.676751163055442 -48.576783754140408 12.635783082520261 0 -1 0 I I #
edge $-1 $294 31.518712876000663 $297 39.603472703871958 $228 $323 forward 7 unknown #
vertex $-1 $242 $324 #
straight-curve $-1 -82.485498722457663 -9.2773563289775662 12.635783082520263 -1 0 0 I I #
edge $-1 $297 2.4136203107691809 $239 11.313851725647588 $238 $325 forward 7 unknown #
vertex $-1 $296 $326 #
straight-curve $-1 -65.152134769737827 -9.2773563289775662 4.5510232546489817 0.64278759981090561 0 0.7660444514056185 I I #
point $-1 -58.368215957625281 -9.2773563289775662 12.635783082520261 #
point $-1 -65.152134769737842 -18.177587743855973 4.5510232546489648 #
straight-curve $-1 -65.152134769737842 0 12.635783082520261 0 -1 0 I I #
vertex $-1 $245 $327 #
point $-1 -60.672737112370498 -16.397541460880294 8.3336377944765321 #
vertex $-1 $249 $328 #
point $-1 -60.672737112370498 -13.727472036416771 8.3336377944765321 #
vertex $-1 $253 $329 #
point $-1 -60.672737112370498 -11.05740261195325 8.3336377944765321 #
straight-curve $-1 -65.152134769737842 44.264957264041797 0 0 0 -1 I I #
straight-curve $-1 0 44.264957264041797 -12.635783082520261 1 0 0 I I #
point $-1 65.152134769737842 44.264957264041797 -12.635783082520261 #
straight-curve $-1 -65.152134769737842 0 12.635783082520261 0 -1 0 I I #
point $-1 -65.152134769737842 44.264957264041797 12.635783082520261 #
straight-curve $-1 65.152134769737842 44.264957264041797 0 0 0 -1 I I #
point $-1 -65.152134769737842 44.264957264041797 -12.635783082520261 #
edge $-1 $317 -12.635783082520261 $284 12.635783082520261 $276 $330 forward 7 unknown #
straight-curve $-1 -43.278659883876379 -52.888610244239018 -12.635783082520261 -1 0 0 I I #
vertex $-1 $290 $331 #
straight-curve $-1 -43.278659883876379 -52.888610244239018 12.635783082520261 1 0 0 I I #
point $-1 -46.676751163055442 -52.888610244239018 12.635783082520261 #
point $-1 -46.676751163055442 -52.888610244239018 -12.635783082520261 #
point $-1 -39.880568604697316 -52.888610244239018 -12.635783082520261 #
straight-curve $-1 -39.880568604697316 -48.576783754140408 12.635783082520261 0 1 0 I I #
straight-curve $-1 -65.152134769737842 -9.2773563289775662 44.154495958520926 0 0 -1 I I #
point $-1 -65.152134769737842 -9.2773563289775662 12.635783082520261 #
straight-curve $-1 -65.152134769737842 -6.8637360182083853 4.5510232546489657 0 -1 0 I I #
point $-1 -65.152134769737842 -9.2773563289775662 4.5510232546489648 #
point $-1 -60.611108686573147 -16.397541460880294 7.6292217688682706 #
point $-1 -60.611108686573147 -13.727472036416771 7.6292217688682706 #
point $-1 -60.611108686573147 -11.05740261195325 7.6292217688682706 #
straight-curve $-1 -39.880568604697316 -52.888610244239018 0 0 0 -1 I I #
point $-1 -39.880568604697316 -52.888610244239018 12.635783082520261 #
End-of-ACIS-data 