500 0 9 0           
7 Unknown 11 ACIS 5.0 NT 24 Fri Mar 26 15:34:59 1999 
-1 9.9999999999999995e-007 1e-010 
body $-1 $9 $-1 $10 #
body $-1 $11 $-1 $12 #
body $-1 $13 $-1 $14 #
body $-1 $15 $-1 $16 #
body $-1 $17 $-1 $18 #
body $-1 $19 $-1 $20 #
body $-1 $21 $-1 $22 #
body $-1 $23 $-1 $24 #
body $-1 $25 $-1 $26 #
lump $-1 $-1 $27 $0 #
transform $-1 1 0 0 0 1 0 0 0 1 58.25983458967864 36.397328040463037 14.101173750275159 1 rotate no_reflect no_shear #
lump $-1 $-1 $28 $1 #
transform $-1 1 0 0 0 1 0 0 0 1 58.25983458967864 36.397328040463037 14.101173750275159 1 rotate no_reflect no_shear #
lump $-1 $-1 $29 $2 #
transform $-1 1 0 0 0 1 0 0 0 1 58.25983458967864 36.397328040463037 14.101173750275159 1 rotate no_reflect no_shear #
lump $-1 $-1 $30 $3 #
transform $-1 1 0 0 0 1 0 0 0 1 58.25983458967864 36.397328040463037 14.101173750275159 1 rotate no_reflect no_shear #
lump $-1 $-1 $31 $4 #
transform $-1 1 0 0 0 1 0 0 0 1 58.25983458967864 36.397328040463037 14.101173750275159 1 rotate no_reflect no_shear #
lump $-1 $-1 $32 $5 #
transform $-1 1 0 0 0 1 0 0 0 1 58.25983458967864 36.397328040463037 14.101173750275159 1 rotate no_reflect no_shear #
lump $-1 $-1 $33 $6 #
transform $-1 1 0 0 0 1 0 0 0 1 58.25983458967864 36.397328040463037 14.101173750275159 1 rotate no_reflect no_shear #
lump $-1 $-1 $34 $7 #
transform $-1 1 0 0 0 1 0 0 0 1 58.25983458967864 36.397328040463037 14.101173750275159 1 rotate no_reflect no_shear #
lump $-1 $-1 $35 $8 #
transform $-1 1 0 0 0 1 0 0 0 1 58.25983458967864 36.397328040463037 14.101173750275159 1 rotate no_reflect no_shear #
shell $-1 $-1 $-1 $36 $-1 $9 #
shell $-1 $-1 $-1 $37 $-1 $11 #
shell $-1 $-1 $-1 $38 $-1 $13 #
shell $-1 $-1 $-1 $39 $-1 $15 #
shell $-1 $-1 $-1 $40 $-1 $17 #
shell $-1 $-1 $-1 $41 $-1 $19 #
shell $-1 $-1 $-1 $42 $-1 $21 #
shell $-1 $-1 $-1 $43 $-1 $23 #
shell $-1 $-1 $-1 $44 $-1 $25 #
face $-1 $45 $46 $27 $-1 $47 forward single #
face $-1 $48 $49 $28 $-1 $50 forward single #
face $-1 $51 $52 $29 $-1 $53 reversed single #
face $-1 $54 $55 $30 $-1 $56 reversed single #
face $-1 $57 $58 $31 $-1 $59 forward single #
face $-1 $60 $61 $32 $-1 $62 forward single #
face $-1 $63 $64 $33 $-1 $65 reversed single #
face $-1 $66 $67 $34 $-1 $68 forward single #
face $-1 $69 $70 $35 $-1 $71 forward single #
face $-1 $72 $73 $27 $-1 $74 reversed single #
loop $-1 $-1 $75 $36 #
plane-surface $-1 0 0 14.101173750275159 0 0 1 1 0 0 forward_v I I I I #
face $-1 $76 $77 $28 $-1 $78 reversed single #
loop $-1 $-1 $79 $37 #
plane-surface $-1 0 -31.574091425985166 -5.6468386328199278 0 0 1 1 0 0 forward_v I I I I #
face $-1 $80 $81 $29 $-1 $82 reversed single #
loop $-1 $-1 $83 $38 #
plane-surface $-1 0 27.519436990865842 10.585326425069985 0 0 1 1 0 0 forward_v I I I I #
face $-1 $84 $85 $30 $-1 $86 reversed single #
loop $-1 $-1 $87 $39 #
plane-surface $-1 43.897990827045483 -6.511562980237187 169.78227401312921 0 -1 0 -0.64278761758704617 0 -0.76604443648966558 forward_v I I I I #
face $-1 $88 $89 $31 $-1 $90 forward single #
loop $-1 $91 $92 $40 #
cone-surface $-1 52.73154692290418 -15.815887903507516 9.2938535916480465 -0.64278761758704617 0 -0.76604443648966558 0.76604443648966558 0 -0.64278761758704617 1 I I 0 1 1 forward I I I I #
face $-1 $93 $94 $32 $-1 $95 forward single #
loop $-1 $96 $97 $41 #
cone-surface $-1 52.73154692290418 -10.233292949545323 9.2938535916480465 -0.64278761758704617 0 -0.76604443648966558 0.76604443648966558 0 -0.64278761758704617 1 I I 0 1 1 forward I I I I #
face $-1 $98 $99 $33 $-1 $100 reversed single #
loop $-1 $-1 $101 $42 #
plane-surface $-1 -116.51966995989184 -22.369317727300228 103.98487909669956 0 1 0 -0.50000000669873634 0 0.8660253999169214 forward_v I I I I #
face $-1 $102 $103 $34 $-1 $104 forward single #
loop $-1 $105 $106 $43 #
cone-surface $-1 -48.054828482898998 -20.283393782359678 7.4508721594983758 0.50000000669873634 0 -0.8660253999169214 0.8660253999169214 0 0.50000000669873634 1 I I 0 1 1 forward I I I I #
face $-1 $107 $108 $35 $-1 $109 forward single #
loop $-1 $110 $111 $44 #
cone-surface $-1 -48.054828482898998 -17.154507864948854 7.4508721594983758 0.50000000669873634 0 -0.8660253999169214 0.8660253999169214 0 0.50000000669873634 1 I I 0 1 1 forward I I I I #
face $-1 $112 $113 $27 $-1 $114 reversed single #
loop $-1 $-1 $115 $45 #
plane-surface $-1 0 0 -14.101173750275159 0 0 1 1 0 0 forward_v I I I I #
coedge $-1 $116 $117 $118 $119 forward $46 $-1 #
face $-1 $120 $121 $28 $-1 $122 reversed single #
loop $-1 $-1 $123 $48 #
plane-surface $-1 0 -26.750854811507295 -9.8740061915475437 0 -1 0 0 0 -1 forward_v I I I I #
coedge $-1 $124 $125 $126 $127 reversed $49 $-1 #
face $-1 $128 $129 $29 $-1 $130 reversed single #
loop $-1 $-1 $131 $51 #
plane-surface $-1 0 18.641545941268642 12.343250087672573 0 1 0 0 0 1 forward_v I I I I #
coedge $-1 $132 $133 $134 $135 reversed $52 $-1 #
face $-1 $136 $137 $30 $-1 $138 reversed single #
loop $-1 $-1 $139 $54 #
plane-surface $-1 -30.999409726784357 -13.024590426526416 80.523029696666214 0.64278761758704617 0 0.76604443648966558 0.76604443648966558 0 -0.64278761758704617 forward_v I I I I #
coedge $-1 $140 $141 $142 $143 reversed $55 $-1 #
face $-1 $-1 $144 $31 $-1 $145 forward single #
loop $-1 $146 $147 $57 #
cone-surface $-1 51.932245709110028 -15.815887903507516 8.3412835184954943 -0.64278761758704617 0 -0.76604443648966558 0.38302221824483279 0 -0.32139380879352308 1 I I -0.70710678118654746 0.70710678118654746 0.5 forward I I I I #
loop $-1 $-1 $148 $40 #
coedge $-1 $92 $92 $149 $150 reversed $58 $-1 #
face $-1 $-1 $151 $32 $-1 $152 forward single #
loop $-1 $153 $154 $60 #
cone-surface $-1 51.932245709110028 -10.233292949545323 8.3412835184954943 -0.64278761758704617 0 -0.76604443648966558 0.38302221824483279 0 -0.32139380879352308 1 I I -0.70710678118654746 0.70710678118654746 0.5 forward I I I I #
loop $-1 $-1 $155 $41 #
coedge $-1 $97 $97 $156 $157 reversed $61 $-1 #
face $-1 $158 $159 $33 $-1 $160 reversed single #
loop $-1 $-1 $161 $63 #
plane-surface $-1 -58.259834589678661 -18.718950823654268 3.0758859974592951 -0.50000000669873634 0 0.8660253999169214 0.8660253999169214 0 0.50000000669873634 forward_v I I I I #
coedge $-1 $162 $163 $164 $165 reversed $64 $-1 #
face $-1 $-1 $166 $34 $-1 $167 forward single #
loop $-1 $168 $169 $66 #
cone-surface $-1 -47.148001480180028 -20.283393782359678 5.8802017451710711 0.50000000669873634 0 -0.8660253999169214 0.4330126999584607 0 0.25000000334936817 1 I I -0.70710678118654746 0.70710678118654746 0.5 forward I I I I #
loop $-1 $-1 $170 $43 #
coedge $-1 $106 $106 $171 $172 reversed $67 $-1 #
face $-1 $-1 $173 $35 $-1 $174 forward single #
loop $-1 $175 $176 $69 #
cone-surface $-1 -47.148001480180028 -17.154507864948854 5.8802017451710711 0.50000000669873634 0 -0.8660253999169214 0.4330126999584607 0 0.25000000334936817 1 I I -0.70710678118654746 0.70710678118654746 0.5 forward I I I I #
loop $-1 $-1 $177 $44 #
coedge $-1 $111 $111 $178 $179 reversed $70 $-1 #
face $-1 $180 $181 $27 $-1 $182 reversed single #
loop $-1 $-1 $183 $72 #
plane-surface $-1 0 -36.397328040463037 0 0 1 0 0 0 1 forward_v I I I I #
coedge $-1 $184 $185 $186 $187 forward $73 $-1 #
coedge $-1 $188 $75 $189 $190 forward $46 $-1 #
coedge $-1 $75 $188 $191 $192 forward $46 $-1 #
coedge $-1 $193 $194 $75 $119 reversed $195 $-1 #
edge $-1 $196 -36.397328040463037 $197 36.397328040463037 $118 $198 forward 7 unknown #
face $-1 $199 $200 $28 $-1 $201 reversed single #
loop $-1 $-1 $202 $76 #
plane-surface $-1 0 0 -14.101173750275159 0 0 1 1 0 0 forward_v I I I I #
coedge $-1 $203 $204 $205 $206 reversed $77 $-1 #
coedge $-1 $207 $79 $204 $208 forward $49 $-1 #
coedge $-1 $79 $207 $209 $210 reversed $49 $-1 #
coedge $-1 $211 $205 $79 $127 forward $200 $-1 #
edge $-1 $212 10.963809098514712 $213 20.610282327470454 $126 $214 forward 7 unknown #
face $-1 $215 $216 $29 $-1 $217 reversed single #
loop $-1 $-1 $218 $80 #
plane-surface $-1 0 36.397328040463037 0 0 -1 0 0 0 -1 forward_v I I I I #
coedge $-1 $219 $220 $221 $222 reversed $81 $-1 #
coedge $-1 $223 $83 $219 $224 forward $52 $-1 #
coedge $-1 $83 $223 $218 $225 reversed $52 $-1 #
coedge $-1 $226 $227 $83 $135 forward $228 $-1 #
edge $-1 $229 4.8818274458357216 $230 22.637609545030116 $134 $231 forward 7 unknown #
face $-1 $232 $233 $30 $-1 $234 forward single #
loop $-1 $-1 $235 $84 #
plane-surface $-1 43.897990827045483 -19.537617872815645 169.78227401312921 0 1 0 0.64278761758704617 0 0.76604443648966558 forward_v I I I I #
coedge $-1 $236 $237 $238 $239 reversed $85 $-1 #
coedge $-1 $141 $87 $240 $241 reversed $55 $-1 #
coedge $-1 $87 $140 $236 $242 reversed $55 $-1 #
coedge $-1 $238 $243 $87 $143 forward $233 $-1 #
edge $-1 $244 -36.310839176155895 $245 -26.210078652608264 $142 $246 forward 7 unknown #
loop $-1 $-1 $149 $88 #
plane-surface $-1 -30.999409726784357 -13.024590426526416 80.523029696666214 0.64278761758704617 0 0.76604443648966558 0.76604443648966558 0 -0.64278761758704617 forward_v I I I I #
loop $-1 $-1 $247 $57 #
coedge $-1 $147 $147 $148 $248 reversed $89 $-1 #
coedge $-1 $148 $148 $147 $248 forward $91 $-1 #
coedge $-1 $149 $149 $92 $150 forward $144 $-1 #
edge $-1 $249 0 $249 6.2831853071796004 $149 $250 forward 7 unknown #
loop $-1 $-1 $156 $93 #
plane-surface $-1 -30.999409726784357 -13.024590426526416 80.523029696666214 0.64278761758704617 0 0.76604443648966558 0.76604443648966558 0 -0.64278761758704617 forward_v I I I I #
loop $-1 $-1 $251 $60 #
coedge $-1 $154 $154 $155 $252 reversed $94 $-1 #
coedge $-1 $155 $155 $154 $252 forward $96 $-1 #
coedge $-1 $156 $156 $97 $157 forward $151 $-1 #
edge $-1 $253 0 $253 6.2831853071796004 $156 $254 forward 7 unknown #
face $-1 $255 $256 $33 $-1 $257 reversed single #
loop $-1 $-1 $258 $98 #
plane-surface $-1 -116.51966995989184 -15.068583920008306 103.98487909669956 0 -1 0 0.50000000669873634 0 -0.8660253999169214 forward_v I I I I #
coedge $-1 $259 $260 $261 $262 reversed $99 $-1 #
coedge $-1 $163 $101 $263 $264 reversed $64 $-1 #
coedge $-1 $101 $162 $259 $265 reversed $64 $-1 #
coedge $-1 $261 $266 $101 $165 forward $267 $-1 #
edge $-1 $268 3.9026728160251878e-007 $269 19.09635860508731 $164 $270 forward 7 unknown #
loop $-1 $-1 $171 $102 #
plane-surface $-1 -58.259834589678661 -18.718950823654268 3.0758859974592951 -0.50000000669873634 0 0.8660253999169214 0.8660253999169214 0 0.50000000669873634 forward_v I I I I #
loop $-1 $-1 $271 $66 #
coedge $-1 $169 $169 $170 $272 reversed $103 $-1 #
coedge $-1 $170 $170 $169 $272 forward $105 $-1 #
coedge $-1 $171 $171 $106 $172 forward $166 $-1 #
edge $-1 $273 0 $273 6.2831853071796004 $171 $274 forward 7 unknown #
loop $-1 $-1 $178 $107 #
plane-surface $-1 -58.259834589678661 -18.718950823654268 3.0758859974592951 -0.50000000669873634 0 0.8660253999169214 0.8660253999169214 0 0.50000000669873634 forward_v I I I I #
loop $-1 $-1 $275 $69 #
coedge $-1 $176 $176 $177 $276 reversed $108 $-1 #
coedge $-1 $177 $177 $176 $276 forward $110 $-1 #
coedge $-1 $178 $178 $111 $179 forward $173 $-1 #
edge $-1 $277 0 $277 6.2831853071796004 $178 $278 forward 7 unknown #
face $-1 $279 $280 $27 $-1 $281 reversed single #
loop $-1 $-1 $282 $112 #
plane-surface $-1 -58.25983458967864 0 0 1 0 0 0 0 -1 forward_v I I I I #
coedge $-1 $283 $191 $284 $285 forward $113 $-1 #
coedge $-1 $286 $115 $283 $287 forward $73 $-1 #
coedge $-1 $115 $286 $288 $289 forward $73 $-1 #
coedge $-1 $194 $193 $115 $187 reversed $195 $-1 #
edge $-1 $290 -36.397328040463037 $291 36.397328040463037 $186 $292 forward 7 unknown #
coedge $-1 $117 $116 $293 $294 forward $46 $-1 #
coedge $-1 $295 $296 $116 $190 reversed $280 $-1 #
edge $-1 $197 -58.25983458967864 $297 58.25983458967864 $189 $298 forward 7 unknown #
coedge $-1 $183 $299 $117 $192 reversed $113 $-1 #
edge $-1 $300 -58.25983458967864 $196 58.25983458967864 $191 $301 forward 7 unknown #
coedge $-1 $186 $118 $299 $302 forward $195 $-1 #
coedge $-1 $118 $186 $295 $303 reversed $195 $-1 #
loop $-1 $-1 $193 $279 #
vertex $-1 $119 $304 #
vertex $-1 $119 $305 #
straight-curve $-1 58.25983458967864 0 14.101173750275159 0 1 0 I I #
face $-1 $306 $307 $28 $-1 $308 reversed single #
loop $-1 $-1 $205 $120 #
plane-surface $-1 58.25983458967864 0 0 -1 0 0 0 0 1 forward_v I I I I #
coedge $-1 $309 $310 $203 $311 forward $121 $-1 #
coedge $-1 $312 $123 $202 $311 reversed $77 $-1 #
coedge $-1 $123 $312 $124 $208 reversed $77 $-1 #
coedge $-1 $126 $313 $123 $206 forward $200 $-1 #
edge $-1 $314 -9.1641706545013868 $212 -0.70983553704615598 $205 $315 forward 7 unknown #
coedge $-1 $125 $124 $316 $317 reversed $49 $-1 #
edge $-1 $212 -58.25983458967864 $318 58.25983458967864 $204 $319 forward 7 unknown #
coedge $-1 $320 $321 $125 $210 forward $307 $-1 #
edge $-1 $213 -58.25983458967864 $322 58.25983458967864 $209 $323 forward 7 unknown #
coedge $-1 $313 $126 $321 $324 forward $200 $-1 #
vertex $-1 $127 $325 #
vertex $-1 $324 $326 #
straight-curve $-1 58.25983458967864 -15.787045712992583 -5.6468386328199278 0 -1 0 I I #
face $-1 $327 $328 $29 $-1 $329 forward single #
loop $-1 $-1 $330 $128 #
plane-surface $-1 -58.25983458967864 0 0 1 0 0 0 0 -1 forward_v I I I I #
coedge $-1 $331 $332 $133 $225 forward $129 $-1 #
coedge $-1 $333 $131 $132 $224 reversed $81 $-1 #
coedge $-1 $131 $333 $334 $335 reversed $81 $-1 #
coedge $-1 $336 $330 $131 $222 forward $216 $-1 #
edge $-1 $337 4.4137013812336985 $338 7.9295487064388741 $221 $339 forward 7 unknown #
coedge $-1 $133 $132 $330 $340 reversed $52 $-1 #
edge $-1 $229 -58.25983458967864 $337 58.25983458967864 $219 $341 forward 7 unknown #
edge $-1 $230 -58.25983458967864 $342 58.25983458967864 $218 $343 forward 7 unknown #
coedge $-1 $344 $134 $332 $345 reversed $228 $-1 #
coedge $-1 $134 $344 $333 $346 forward $228 $-1 #
loop $-1 $-1 $134 $327 #
vertex $-1 $135 $347 #
vertex $-1 $225 $348 #
straight-curve $-1 58.25983458967864 13.759718495432921 10.585326425069985 0 1 0 I I #
face $-1 $-1 $349 $30 $-1 $350 reversed single #
loop $-1 $-1 $142 $136 #
plane-surface $-1 0 0 14.101173750275159 0 0 1 1 0 0 forward_v I I I I #
coedge $-1 $351 $352 $353 $354 reversed $137 $-1 #
coedge $-1 $355 $139 $141 $242 forward $85 $-1 #
coedge $-1 $139 $355 $351 $356 forward $85 $-1 #
coedge $-1 $353 $142 $139 $239 forward $233 $-1 #
edge $-1 $245 -0.0007322330260208787 $357 13.025322659552437 $238 $358 forward 7 unknown #
coedge $-1 $359 $360 $140 $241 forward $349 $-1 #
edge $-1 $361 -79.265507863728232 $244 -70.78996325628944 $240 $362 forward 7 unknown #
edge $-1 $245 103.33406265001085 $361 116.51966917935728 $141 $363 forward 7 unknown #
coedge $-1 $142 $353 $359 $364 forward $233 $-1 #
vertex $-1 $241 $365 #
vertex $-1 $143 $366 #
straight-curve $-1 21.948995413522741 -6.511562980237187 14.101173750275166 -1 0 0 I I #
coedge $-1 $247 $247 $-1 $367 reversed $146 $-1 #
edge $-1 $368 0 $368 6.2831853071796004 $147 $369 forward 7 unknown #
vertex $-1 $150 $370 #
ellipse-curve $-1 53.209454327904822 -15.815887903507516 9.8634014465557822 0.64278761758704617 0 0.76604443648966558 0.76604443648966558 0 -0.64278761758704617 1 I I #
coedge $-1 $251 $251 $-1 $371 reversed $153 $-1 #
edge $-1 $372 0 $372 6.2831853071796004 $154 $373 forward 7 unknown #
vertex $-1 $157 $374 #
ellipse-curve $-1 53.209454327904822 -10.233292949545323 9.8634014465557822 0.64278761758704617 0 0.76604443648966558 0.76604443648966558 0 -0.64278761758704617 1 I I #
face $-1 $-1 $267 $33 $-1 $375 forward single #
loop $-1 $-1 $376 $158 #
plane-surface $-1 -58.25983458967864 0 0 1 0 0 0 0 -1 forward_v I I I I #
coedge $-1 $377 $378 $379 $380 reversed $159 $-1 #
coedge $-1 $381 $161 $163 $265 forward $99 $-1 #
coedge $-1 $161 $381 $377 $382 forward $99 $-1 #
coedge $-1 $379 $164 $161 $262 forward $267 $-1 #
edge $-1 $269 -13.009842315473094 $383 -5.7091085081811723 $261 $384 forward 7 unknown #
coedge $-1 $385 $386 $162 $264 forward $256 $-1 #
edge $-1 $387 -48.91655355089047 $268 -37.89126579807462 $263 $388 forward 7 unknown #
edge $-1 $269 -22.05057521020975 $387 -2.4677690728037424e-014 $163 $389 forward 7 unknown #
coedge $-1 $164 $379 $385 $390 forward $267 $-1 #
loop $-1 $-1 $379 $255 #
vertex $-1 $264 $391 #
vertex $-1 $165 $392 #
straight-curve $-1 -58.259834979945921 -22.369317727300228 14.101173750275159 1 0 0 I I #
coedge $-1 $271 $271 $-1 $393 reversed $168 $-1 #
edge $-1 $394 0 $394 6.2831853071796004 $169 $395 forward 7 unknown #
vertex $-1 $172 $396 #
ellipse-curve $-1 -48.711655482268611 -20.283393782359678 8.5885298738672411 -0.50000000669873634 0 0.8660253999169214 0.8660253999169214 0 0.50000000669873634 1 I I #
coedge $-1 $275 $275 $-1 $397 reversed $175 $-1 #
edge $-1 $398 0 $398 6.2831853071796004 $176 $399 forward 7 unknown #
vertex $-1 $179 $400 #
ellipse-curve $-1 -48.711655482268611 -17.154507864948854 8.5885298738672411 -0.50000000669873634 0 0.8660253999169214 0.8660253999169214 0 0.50000000669873634 1 I I #
face $-1 $-1 $195 $27 $-1 $401 reversed single #
loop $-1 $-1 $295 $180 #
plane-surface $-1 0 36.397328040463037 0 0 -1 0 0 0 -1 forward_v I I I I #
coedge $-1 $402 $293 $296 $403 forward $181 $-1 #
coedge $-1 $299 $183 $184 $287 reversed $113 $-1 #
coedge $-1 $293 $402 $183 $285 reversed $181 $-1 #
edge $-1 $300 -14.101173750275159 $404 14.101173750275159 $284 $405 forward 7 unknown #
coedge $-1 $185 $184 $402 $406 forward $73 $-1 #
edge $-1 $291 -58.25983458967864 $404 58.25983458967864 $283 $407 forward 7 unknown #
coedge $-1 $296 $295 $185 $289 reversed $280 $-1 #
edge $-1 $408 -58.25983458967864 $290 58.25983458967864 $288 $409 forward 7 unknown #
vertex $-1 $187 $410 #
vertex $-1 $302 $411 #
straight-curve $-1 58.25983458967864 0 -14.101173750275159 0 -1 0 I I #
coedge $-1 $282 $284 $188 $294 reversed $181 $-1 #
edge $-1 $297 -36.397328040463037 $300 36.397328040463037 $293 $412 forward 7 unknown #
coedge $-1 $288 $189 $194 $303 forward $280 $-1 #
coedge $-1 $189 $288 $282 $403 reversed $280 $-1 #
vertex $-1 $190 $413 #
straight-curve $-1 0 36.397328040463037 14.101173750275159 -1 0 0 I I #
coedge $-1 $191 $283 $193 $302 reversed $113 $-1 #
vertex $-1 $294 $414 #
straight-curve $-1 0 -36.397328040463037 14.101173750275159 1 0 0 I I #
edge $-1 $196 -14.101173750275159 $291 14.101173750275159 $193 $415 forward 7 unknown #
edge $-1 $197 -14.101173750275159 $290 14.101173750275159 $194 $416 forward 7 unknown #
point $-1 58.25983458967864 -36.397328040463037 14.101173750275159 #
point $-1 58.25983458967864 36.397328040463037 14.101173750275159 #
face $-1 $-1 $417 $28 $-1 $418 reversed single #
loop $-1 $-1 $209 $199 #
plane-surface $-1 0 -36.397328040463037 0 0 1 0 0 0 1 forward_v I I I I #
coedge $-1 $419 $202 $313 $420 forward $121 $-1 #
coedge $-1 $202 $419 $421 $422 forward $121 $-1 #
edge $-1 $423 -58.25983458967864 $314 58.25983458967864 $202 $424 forward 7 unknown #
coedge $-1 $204 $203 $425 $426 reversed $77 $-1 #
coedge $-1 $205 $211 $309 $420 reversed $200 $-1 #
vertex $-1 $420 $427 #
straight-curve $-1 58.25983458967864 -26.750854811507295 -4.9370030957737718 0 0 1 I I #
coedge $-1 $425 $428 $207 $317 forward $417 $-1 #
edge $-1 $322 -20.610282327470454 $318 -10.963809098514712 $316 $429 forward 7 unknown #
vertex $-1 $317 $430 #
straight-curve $-1 0 -26.750854811507295 -5.6468386328199278 -1 0 0 I I #
coedge $-1 $431 $209 $428 $432 forward $307 $-1 #
coedge $-1 $209 $431 $211 $324 reversed $307 $-1 #
vertex $-1 $432 $433 #
straight-curve $-1 0 -36.397328040463037 -5.6468386328199278 -1 0 0 I I #
edge $-1 $213 5.6468386328199278 $434 14.101173750275159 $211 $435 forward 7 unknown #
point $-1 58.25983458967864 -26.750854811507295 -5.6468386328199278 #
point $-1 58.25983458967864 -36.397328040463037 -5.6468386328199278 #
face $-1 $-1 $228 $29 $-1 $436 reversed single #
loop $-1 $-1 $334 $215 #
plane-surface $-1 0 0 14.101173750275159 0 0 1 1 0 0 forward_v I I I I #
coedge $-1 $221 $437 $223 $340 forward $216 $-1 #
coedge $-1 $438 $218 $437 $439 reversed $129 $-1 #
coedge $-1 $218 $438 $226 $345 forward $129 $-1 #
coedge $-1 $220 $219 $227 $346 reversed $81 $-1 #
coedge $-1 $440 $441 $220 $335 forward $328 $-1 #
edge $-1 $338 -58.25983458967864 $442 58.25983458967864 $334 $443 forward 7 unknown #
coedge $-1 $437 $221 $441 $444 reversed $216 $-1 #
vertex $-1 $340 $445 #
vertex $-1 $222 $446 #
straight-curve $-1 -58.25983458967864 18.641545941268642 6.1716250438362863 0 0 1 I I #
edge $-1 $342 -22.637609545030116 $337 -4.8818274458357216 $330 $447 forward 7 unknown #
straight-curve $-1 0 18.641545941268642 10.585326425069985 -1 0 0 I I #
vertex $-1 $225 $448 #
straight-curve $-1 0 36.397328040463037 10.585326425069985 -1 0 0 I I #
coedge $-1 $227 $226 $440 $449 reversed $228 $-1 #
edge $-1 $450 -14.101173750275159 $230 -10.585326425069985 $226 $451 forward 7 unknown #
edge $-1 $442 -7.9295487064388741 $229 -4.4137013812336985 $227 $452 forward 7 unknown #
point $-1 58.25983458967864 18.641545941268642 10.585326425069985 #
point $-1 58.25983458967864 36.397328040463037 10.585326425069985 #
loop $-1 $-1 $240 $232 #
plane-surface $-1 58.25983458967864 0 0 -1 0 0 0 0 1 forward_v I I I I #
coedge $-1 $352 $235 $237 $356 reversed $137 $-1 #
coedge $-1 $235 $351 $453 $454 reversed $137 $-1 #
coedge $-1 $243 $238 $235 $354 forward $233 $-1 #
edge $-1 $357 26.210078652608264 $455 36.310839176155895 $353 $456 forward 7 unknown #
coedge $-1 $237 $236 $360 $457 reversed $85 $-1 #
edge $-1 $458 -116.51966917935728 $357 -103.33406265001085 $351 $459 forward 7 unknown #
vertex $-1 $239 $460 #
straight-curve $-1 48.159074066131019 -6.5122952132632079 14.101173750275159 0 -1 0 I I #
coedge $-1 $453 $240 $243 $364 reversed $349 $-1 #
coedge $-1 $240 $453 $355 $457 forward $349 $-1 #
vertex $-1 $241 $461 #
straight-curve $-1 58.25983458967864 -6.511562980237187 84.891137006564605 0 0 1 I I #
straight-curve $-1 -30.999409726784357 -6.511562980237187 80.523029696666214 0.76604443648966558 0 -0.64278761758704617 I I #
edge $-1 $455 -19.537617872815645 $244 -6.511562980237187 $359 $462 forward 7 unknown #
point $-1 58.25983458967864 -6.511562980237187 14.101173750275159 #
point $-1 48.159074066131005 -6.511562980237187 14.101173750275166 #
edge $-1 $463 1 $463 0 $247 $-1 forward 7 unknown #
vertex $-1 $248 $464 #
ellipse-curve $-1 52.253639517903551 -15.815887903507516 8.7243057367403267 0.64278761758704617 0 0.76604443648966558 0.76604443648966558 0 -0.64278761758704617 1 I I #
point $-1 53.975498764394473 -15.815887903507516 9.2206138289687196 #
edge $-1 $465 1 $465 0 $251 $-1 forward 7 unknown #
vertex $-1 $252 $466 #
ellipse-curve $-1 52.253639517903551 -10.233292949545323 8.7243057367403267 0.64278761758704617 0 0.76604443648966558 0.76604443648966558 0 -0.64278761758704617 1 I I #
point $-1 53.975498764394473 -10.233292949545323 9.2206138289687196 #
plane-surface $-1 0 0 14.101173750275159 0 0 1 1 0 0 forward_v I I I I #
coedge $-1 $386 $385 $378 $467 forward $256 $-1 #
coedge $-1 $378 $258 $260 $382 reversed $159 $-1 #
coedge $-1 $258 $377 $376 $467 reversed $159 $-1 #
coedge $-1 $266 $261 $258 $380 forward $267 $-1 #
edge $-1 $383 -19.09635860508731 $468 -3.9026728160251878e-007 $379 $469 forward 7 unknown #
coedge $-1 $260 $259 $386 $470 reversed $99 $-1 #
edge $-1 $471 2.4677690728037424e-014 $383 22.05057521020975 $377 $472 forward 7 unknown #
vertex $-1 $262 $473 #
straight-curve $-1 -39.163476374858618 -9.3594754118271339 14.101173750275159 0 1 0 I I #
coedge $-1 $376 $263 $266 $390 reversed $256 $-1 #
coedge $-1 $263 $376 $381 $470 forward $256 $-1 #
vertex $-1 $264 $474 #
straight-curve $-1 -58.25983458967864 -22.369317727300228 51.992439548349779 0 0 1 I I #
straight-curve $-1 -58.259834589678661 -22.369317727300228 3.0758859974592951 -0.8660253999169214 0 -0.50000000669873634 I I #
edge $-1 $468 15.068583920008306 $268 22.369317727300228 $385 $475 forward 7 unknown #
point $-1 -58.25983458967864 -22.369317727300228 14.101173750275159 #
point $-1 -39.163476374858611 -22.369317727300228 14.101173750275159 #
edge $-1 $476 1 $476 0 $271 $-1 forward 7 unknown #
vertex $-1 $272 $477 #
ellipse-curve $-1 -47.398001483529399 -20.283393782359678 6.3132144451295318 -0.50000000669873634 0 0.8660253999169214 0.8660253999169214 0 0.50000000669873634 1 I I #
point $-1 -47.845630082351676 -20.283393782359678 9.0885298805659573 #
edge $-1 $478 1 $478 0 $275 $-1 forward 7 unknown #
vertex $-1 $276 $479 #
ellipse-curve $-1 -47.398001483529399 -17.154507864948854 6.3132144451295318 -0.50000000669873634 0 0.8660253999169214 0.8660253999169214 0 0.50000000669873634 1 I I #
point $-1 -47.845630082351676 -17.154507864948854 9.0885298805659573 #
plane-surface $-1 58.25983458967864 0 0 -1 0 0 0 0 1 forward_v I I I I #
coedge $-1 $284 $282 $286 $406 reversed $181 $-1 #
edge $-1 $297 -14.101173750275159 $408 14.101173750275159 $296 $480 forward 7 unknown #
vertex $-1 $406 $481 #
straight-curve $-1 -58.25983458967864 -36.397328040463037 0 0 0 -1 I I #
edge $-1 $404 -36.397328040463037 $408 36.397328040463037 $402 $482 forward 7 unknown #
straight-curve $-1 0 -36.397328040463037 -14.101173750275159 -1 0 0 I I #
vertex $-1 $289 $483 #
straight-curve $-1 0 36.397328040463037 -14.101173750275159 1 0 0 I I #
point $-1 58.25983458967864 36.397328040463037 -14.101173750275159 #
point $-1 58.25983458967864 -36.397328040463037 -14.101173750275159 #
straight-curve $-1 -58.25983458967864 0 14.101173750275159 0 -1 0 I I #
point $-1 -58.25983458967864 36.397328040463037 14.101173750275159 #
point $-1 -58.25983458967864 -36.397328040463037 14.101173750275159 #
straight-curve $-1 58.25983458967864 -36.397328040463037 0 0 0 -1 I I #
straight-curve $-1 58.25983458967864 36.397328040463037 0 0 0 -1 I I #
loop $-1 $-1 $425 $306 #
plane-surface $-1 -58.25983458967864 0 0 1 0 0 0 0 -1 forward_v I I I I #
coedge $-1 $310 $309 $431 $484 forward $121 $-1 #
edge $-1 $314 26.750854811507295 $434 36.397328040463037 $313 $485 forward 7 unknown #
coedge $-1 $428 $425 $310 $422 reversed $417 $-1 #
edge $-1 $486 -36.397328040463037 $423 -26.750854811507295 $421 $487 forward 7 unknown #
vertex $-1 $426 $488 #
straight-curve $-1 0 -26.750854811507295 -14.101173750275159 1 0 0 I I #
coedge $-1 $421 $316 $312 $426 forward $417 $-1 #
edge $-1 $318 0.70983553704615598 $423 9.1641706545013868 $425 $489 forward 7 unknown #
point $-1 58.25983458967864 -26.750854811507295 -14.101173750275159 #
coedge $-1 $316 $421 $320 $432 reversed $417 $-1 #
straight-curve $-1 -58.25983458967864 -15.787045712992583 -5.6468386328199278 0 1 0 I I #
point $-1 -58.25983458967864 -26.750854811507295 -5.6468386328199278 #
coedge $-1 $321 $320 $419 $484 reversed $307 $-1 #
edge $-1 $322 5.6468386328199278 $486 14.101173750275159 $428 $490 forward 7 unknown #
point $-1 -58.25983458967864 -36.397328040463037 -5.6468386328199278 #
vertex $-1 $324 $491 #
straight-curve $-1 58.25983458967864 -36.397328040463037 0 0 0 -1 I I #
plane-surface $-1 58.25983458967864 0 0 -1 0 0 0 0 1 forward_v I I I I #
coedge $-1 $330 $336 $331 $439 forward $216 $-1 #
coedge $-1 $332 $331 $492 $493 reversed $129 $-1 #
edge $-1 $494 -14.101173750275159 $342 -10.585326425069985 $331 $495 forward 7 unknown #
coedge $-1 $492 $334 $344 $449 forward $328 $-1 #
coedge $-1 $334 $492 $336 $444 forward $328 $-1 #
vertex $-1 $449 $496 #
straight-curve $-1 0 18.641545941268642 14.101173750275159 1 0 0 I I #
edge $-1 $494 -36.397328040463037 $338 -18.641545941268642 $336 $497 forward 7 unknown #
point $-1 -58.25983458967864 18.641545941268642 10.585326425069985 #
point $-1 -58.25983458967864 18.641545941268642 14.10117375027516 #
straight-curve $-1 -58.25983458967864 13.759718495432921 10.585326425069985 0 -1 0 I I #
point $-1 -58.25983458967864 36.397328040463037 10.585326425069985 #
edge $-1 $442 18.641545941268642 $450 36.397328040463037 $344 $498 forward 7 unknown #
vertex $-1 $449 $499 #
straight-curve $-1 58.25983458967864 36.397328040463037 0 0 0 -1 I I #
straight-curve $-1 58.25983458967864 18.641545941268642 6.1716250438362863 0 0 -1 I I #
coedge $-1 $360 $359 $352 $454 forward $349 $-1 #
edge $-1 $455 70.78996325628944 $458 79.265507863728232 $453 $500 forward 7 unknown #
vertex $-1 $364 $501 #
straight-curve $-1 21.948995413522741 -19.537617872815645 14.101173750275166 1 0 0 I I #
edge $-1 $458 -13.025322659552437 $361 0.0007322330260208787 $360 $502 forward 7 unknown #
vertex $-1 $457 $503 #
straight-curve $-1 -30.999409726784357 -19.537617872815645 80.523029696666214 -0.76604443648966558 0 0.64278761758704617 I I #
point $-1 48.159074066131005 -19.537617872815645 14.101173750275166 #
point $-1 58.25983458967864 -6.511562980237187 5.6256291428363738 #
straight-curve $-1 58.25983458967864 0 14.101173750275159 0 1 0 I I #
vertex $-1 $367 $504 #
point $-1 53.019683954393216 -15.815887903507516 8.0815181191532801 #
vertex $-1 $371 $505 #
point $-1 53.019683954393216 -10.233292949545323 8.0815181191532801 #
edge $-1 $468 37.89126579807462 $471 48.91655355089047 $376 $506 forward 7 unknown #
vertex $-1 $390 $507 #
straight-curve $-1 -58.259834979945921 -15.068583920008306 14.101173750275159 -1 0 0 I I #
edge $-1 $471 5.7091085081811723 $387 13.009842315473094 $386 $508 forward 7 unknown #
vertex $-1 $470 $509 #
straight-curve $-1 -58.259834589678661 -15.068583920008306 3.0758859974592951 0.8660253999169214 0 0.50000000669873634 I I #
point $-1 -39.163476374858611 -15.068583920008306 14.101173750275159 #
point $-1 -58.25983458967864 -22.369317727300228 3.0758859974593076 #
straight-curve $-1 -58.25983458967864 0 14.101173750275159 0 -1 0 I I #
vertex $-1 $393 $510 #
point $-1 -46.531976083612477 -20.283393782359678 6.8132144518282685 #
vertex $-1 $397 $511 #
point $-1 -46.531976083612477 -17.154507864948854 6.8132144518282685 #
straight-curve $-1 -58.25983458967864 36.397328040463037 0 0 0 -1 I I #
point $-1 -58.25983458967864 -36.397328040463037 -14.101173750275159 #
straight-curve $-1 -58.25983458967864 0 -14.101173750275159 0 1 0 I I #
point $-1 -58.25983458967864 36.397328040463037 -14.101173750275159 #
edge $-1 $434 -58.25983458967864 $486 58.25983458967864 $431 $512 forward 7 unknown #
straight-curve $-1 58.25983458967864 0 -14.101173750275159 0 -1 0 I I #
vertex $-1 $422 $513 #
straight-curve $-1 -58.25983458967864 0 -14.101173750275159 0 1 0 I I #
point $-1 -58.25983458967864 -26.750854811507295 -14.101173750275159 #
straight-curve $-1 -58.25983458967864 -26.750854811507295 -4.9370030957737718 0 0 -1 I I #
straight-curve $-1 -58.25983458967864 -36.397328040463037 0 0 0 -1 I I #
point $-1 58.25983458967864 -36.397328040463037 -14.101173750275159 #
coedge $-1 $441 $440 $438 $493 forward $328 $-1 #
edge $-1 $450 -58.25983458967864 $494 58.25983458967864 $438 $514 forward 7 unknown #
vertex $-1 $493 $515 #
straight-curve $-1 -58.25983458967864 36.397328040463037 0 0 0 -1 I I #
point $-1 58.25983458967864 18.641545941268642 14.10117375027516 #
straight-curve $-1 -58.25983458967864 0 14.101173750275159 0 -1 0 I I #
straight-curve $-1 58.25983458967864 0 14.101173750275159 0 1 0 I I #
point $-1 58.25983458967864 36.397328040463037 14.101173750275159 #
straight-curve $-1 58.25983458967864 -19.537617872815645 84.891137006564605 0 0 -1 I I #
point $-1 58.25983458967864 -19.537617872815645 14.101173750275159 #
straight-curve $-1 58.259834589678633 -6.5122952132632079 5.6256291428363951 0 1 0 I I #
point $-1 58.25983458967864 -19.537617872815645 5.6256291428363738 #
point $-1 51.610851900316504 -15.815887903507516 7.9582613002506619 #
point $-1 51.610851900316504 -10.233292949545323 7.9582613002506619 #
straight-curve $-1 -58.25983458967864 -15.068583920008306 51.992439548349779 0 0 -1 I I #
point $-1 -58.25983458967864 -15.068583920008306 14.101173750275159 #
straight-curve $-1 -58.25983458967864 -9.3594754118271339 3.0758859974593049 0 -1 0 I I #
point $-1 -58.25983458967864 -15.068583920008306 3.0758859974593076 #
point $-1 -46.898001476830657 -20.283393782359678 5.4471890452126104 #
point $-1 -46.898001476830657 -17.154507864948854 5.4471890452126104 #
straight-curve $-1 0 -36.397328040463037 -14.101173750275159 -1 0 0 I I #
point $-1 -58.25983458967864 -36.397328040463037 -14.101173750275159 #
straight-curve $-1 0 36.397328040463037 14.101173750275159 -1 0 0 I I #
point $-1 -58.25983458967864 36.397328040463037 14.101173750275159 #
End-of-ACIS-data 