500 0 8 0           
7 Unknown 11 ACIS 5.0 NT 24 Fri Mar 26 17:44:45 1999 
-1 9.9999999999999995e-007 1e-010 
body $-1 $8 $-1 $9 #
body $-1 $10 $-1 $11 #
body $-1 $12 $-1 $13 #
body $-1 $14 $-1 $15 #
body $-1 $16 $-1 $17 #
body $-1 $18 $-1 $19 #
body $-1 $20 $-1 $21 #
body $-1 $22 $-1 $23 #
lump $-1 $-1 $24 $0 #
transform $-1 1 0 0 0 1 0 0 0 1 77.04580828272347 39.500349208140143 16.001697909141889 1 rotate no_reflect no_shear #
lump $-1 $-1 $25 $1 #
transform $-1 1 0 0 0 1 0 0 0 1 77.04580828272347 39.500349208140143 16.001697909141889 1 rotate no_reflect no_shear #
lump $-1 $-1 $26 $2 #
transform $-1 1 0 0 0 1 0 0 0 1 77.04580828272347 39.500349208140143 16.001697909141889 1 rotate no_reflect no_shear #
lump $-1 $-1 $27 $3 #
transform $-1 1 0 0 0 1 0 0 0 1 77.04580828272347 39.500349208140143 16.001697909141889 1 rotate no_reflect no_shear #
lump $-1 $-1 $28 $4 #
transform $-1 1 0 0 0 1 0 0 0 1 77.04580828272347 39.500349208140143 16.001697909141889 1 rotate no_reflect no_shear #
lump $-1 $-1 $29 $5 #
transform $-1 1 0 0 0 1 0 0 0 1 77.04580828272347 39.500349208140143 16.001697909141889 1 rotate no_reflect no_shear #
lump $-1 $-1 $30 $6 #
transform $-1 1 0 0 0 1 0 0 0 1 77.04580828272347 39.500349208140143 16.001697909141889 1 rotate no_reflect no_shear #
lump $-1 $-1 $31 $7 #
transform $-1 1 0 0 0 1 0 0 0 1 77.04580828272347 39.500349208140143 16.001697909141889 1 rotate no_reflect no_shear #
shell $-1 $-1 $-1 $32 $-1 $8 #
shell $-1 $-1 $-1 $33 $-1 $10 #
shell $-1 $-1 $-1 $34 $-1 $12 #
shell $-1 $-1 $-1 $35 $-1 $14 #
shell $-1 $-1 $-1 $36 $-1 $16 #
shell $-1 $-1 $-1 $37 $-1 $18 #
shell $-1 $-1 $-1 $38 $-1 $20 #
shell $-1 $-1 $-1 $39 $-1 $22 #
face $-1 $40 $41 $24 $-1 $42 forward single #
face $-1 $43 $44 $25 $-1 $45 forward single #
face $-1 $46 $47 $26 $-1 $48 reversed single #
face $-1 $49 $50 $27 $-1 $51 forward single #
face $-1 $52 $53 $28 $-1 $54 forward single #
face $-1 $55 $56 $29 $-1 $57 reversed single #
face $-1 $58 $59 $30 $-1 $60 forward single #
face $-1 $61 $62 $31 $-1 $63 forward single #
face $-1 $64 $65 $24 $-1 $66 reversed single #
loop $-1 $-1 $67 $32 #
plane-surface $-1 0 0 16.001697909141889 0 0 1 1 0 0 forward_v I I I I #
face $-1 $68 $69 $25 $-1 $70 reversed single #
loop $-1 $-1 $71 $33 #
plane-surface $-1 0 -39.500349208140143 0 0 1 0 0 0 1 forward_v I I I I #
face $-1 $72 $73 $26 $-1 $74 reversed single #
loop $-1 $-1 $75 $34 #
plane-surface $-1 28.0248240474954 36.415657401083081 221.47174524640042 0 -1 0 -0.52991927123019833 0 -0.84804809178421925 forward_v I I I I #
face $-1 $76 $77 $27 $-1 $78 forward single #
loop $-1 $79 $80 $35 #
cone-surface $-1 70.747103159429571 26.551455650995898 11.278609885769301 -0.52991927123019833 0 -0.84804809178421925 1.2720721376763289 0 -0.79487890684529749 1 I I 0 1 1.5 forward I I I I #
face $-1 $81 $82 $28 $-1 $83 forward single #
loop $-1 $84 $85 $36 #
cone-surface $-1 70.747103159429571 32.469976701048203 11.278609885769301 -0.52991927123019833 0 -0.84804809178421925 1.2720721376763289 0 -0.79487890684529749 1 I I 0 1 1.5 forward I I I I #
face $-1 $86 $87 $29 $-1 $88 reversed single #
loop $-1 $-1 $89 $37 #
plane-surface $-1 -158.70192543576826 22.605774950961017 139.8156280933556 0 1 0 -0.52991927123019833 0 0.84804809178421925 forward_v I I I I #
face $-1 $90 $91 $30 $-1 $92 forward single #
loop $-1 $93 $94 $38 #
cone-surface $-1 -70.747103159429585 26.551455650995898 11.27860988576929 0.52991927123019833 0 -0.84804809178421925 1.2720721376763289 0 0.79487890684529749 1 I I 0 1 1.5 forward I I I I #
face $-1 $95 $96 $31 $-1 $97 forward single #
loop $-1 $98 $99 $39 #
cone-surface $-1 -70.747103159429585 32.469976701048203 11.27860988576929 0.52991927123019833 0 -0.84804809178421925 1.2720721376763289 0 0.79487890684529749 1 I I 0 1 1.5 forward I I I I #
face $-1 $100 $101 $24 $-1 $102 reversed single #
loop $-1 $-1 $103 $40 #
plane-surface $-1 0 0 -16.001697909141889 0 0 1 1 0 0 forward_v I I I I #
coedge $-1 $104 $105 $106 $107 forward $41 $-1 #
face $-1 $108 $109 $25 $-1 $110 reversed single #
loop $-1 $-1 $111 $43 #
plane-surface $-1 0 0 -16.001697909141889 0 0 1 1 0 0 forward_v I I I I #
coedge $-1 $112 $113 $114 $115 forward $44 $-1 #
face $-1 $116 $117 $26 $-1 $118 reversed single #
loop $-1 $-1 $119 $46 #
plane-surface $-1 -53.631293105549403 29.510716176022051 90.794643858127557 0.52991927123019833 0 0.84804809178421925 0.84804809178421925 0 -0.52991927123019833 forward_v I I I I #
coedge $-1 $120 $121 $122 $123 reversed $47 $-1 #
face $-1 $-1 $124 $27 $-1 $125 forward single #
loop $-1 $126 $127 $49 #
cone-surface $-1 69.542643410176481 26.551455650995898 9.3510713955881002 -0.52991927123019833 0 -0.84804809178421925 0.63603606883816444 0 -0.39743945342264875 1 I I -0.70710678118654757 0.70710678118654757 0.75 forward I I I I #
loop $-1 $-1 $128 $35 #
coedge $-1 $80 $80 $129 $130 reversed $50 $-1 #
face $-1 $-1 $131 $28 $-1 $132 forward single #
loop $-1 $133 $134 $52 #
cone-surface $-1 69.542643410176481 32.469976701048203 9.3510713955881002 -0.52991927123019833 0 -0.84804809178421925 0.63603606883816444 0 -0.39743945342264875 1 I I -0.70710678118654757 0.70710678118654757 0.75 forward I I I I #
loop $-1 $-1 $135 $36 #
coedge $-1 $85 $85 $136 $137 reversed $53 $-1 #
face $-1 $138 $139 $29 $-1 $140 reversed single #
loop $-1 $-1 $141 $55 #
plane-surface $-1 -77.045808282723456 29.510716176022051 9.1385267050827395 -0.52991927123019833 0 0.84804809178421925 0.84804809178421925 0 0.52991927123019833 forward_v I I I I #
coedge $-1 $142 $143 $144 $145 reversed $56 $-1 #
face $-1 $-1 $146 $30 $-1 $147 forward single #
loop $-1 $148 $149 $58 #
cone-surface $-1 -69.542643410176495 26.551455650995898 9.3510713955880895 0.52991927123019833 0 -0.84804809178421925 0.63603606883816444 0 0.39743945342264875 1 I I -0.70710678118654757 0.70710678118654757 0.75 forward I I I I #
loop $-1 $-1 $150 $38 #
coedge $-1 $94 $94 $151 $152 reversed $59 $-1 #
face $-1 $-1 $153 $31 $-1 $154 forward single #
loop $-1 $155 $156 $61 #
cone-surface $-1 -69.542643410176495 32.469976701048203 9.3510713955880895 0.52991927123019833 0 -0.84804809178421925 0.63603606883816444 0 0.39743945342264875 1 I I -0.70710678118654757 0.70710678118654757 0.75 forward I I I I #
loop $-1 $-1 $157 $39 #
coedge $-1 $99 $99 $158 $159 reversed $62 $-1 #
face $-1 $160 $161 $24 $-1 $162 reversed single #
loop $-1 $-1 $163 $64 #
plane-surface $-1 0 -39.500349208140143 0 0 1 0 0 0 1 forward_v I I I I #
coedge $-1 $164 $165 $166 $167 forward $65 $-1 #
coedge $-1 $168 $67 $169 $170 forward $41 $-1 #
coedge $-1 $67 $168 $171 $172 forward $41 $-1 #
coedge $-1 $173 $174 $67 $107 reversed $175 $-1 #
edge $-1 $176 -39.500349208140143 $177 39.500349208140143 $106 $178 forward 7 unknown #
face $-1 $179 $180 $25 $-1 $181 reversed single #
loop $-1 $-1 $182 $68 #
plane-surface $-1 -70.575456230972222 -50.490463985260639 0 0 1 0 0 0 1 forward_v I I I I #
coedge $-1 $183 $184 $113 $185 forward $69 $-1 #
coedge $-1 $186 $71 $187 $188 reversed $44 $-1 #
coedge $-1 $71 $186 $111 $185 reversed $44 $-1 #
coedge $-1 $189 $190 $71 $115 reversed $180 $-1 #
edge $-1 $191 -16.001697909141889 $192 16.001697909141889 $114 $193 forward 7 unknown #
face $-1 $194 $195 $26 $-1 $196 forward single #
loop $-1 $-1 $197 $72 #
plane-surface $-1 28.0248240474954 22.605774950961017 221.47174524640042 0 1 0 0.52991927123019833 0 0.84804809178421925 forward_v I I I I #
coedge $-1 $198 $199 $200 $201 reversed $73 $-1 #
coedge $-1 $121 $75 $202 $203 reversed $47 $-1 #
coedge $-1 $75 $120 $198 $204 reversed $47 $-1 #
coedge $-1 $200 $205 $75 $123 forward $195 $-1 #
edge $-1 $206 -63.03339625897577 $207 -52.050026604048853 $122 $208 forward 7 unknown #
loop $-1 $-1 $129 $76 #
plane-surface $-1 -53.631293105549403 29.510716176022051 90.794643858127557 0.52991927123019833 0 0.84804809178421925 0.84804809178421925 0 -0.52991927123019833 forward_v I I I I #
loop $-1 $-1 $209 $49 #
coedge $-1 $127 $127 $128 $210 reversed $77 $-1 #
coedge $-1 $128 $128 $127 $210 forward $79 $-1 #
coedge $-1 $129 $129 $80 $130 forward $124 $-1 #
edge $-1 $211 0 $211 6.2831853071796004 $129 $212 forward 7 unknown #
loop $-1 $-1 $136 $81 #
plane-surface $-1 -53.631293105549403 29.510716176022051 90.794643858127557 0.52991927123019833 0 0.84804809178421925 0.84804809178421925 0 -0.52991927123019833 forward_v I I I I #
loop $-1 $-1 $213 $52 #
coedge $-1 $134 $134 $135 $214 reversed $82 $-1 #
coedge $-1 $135 $135 $134 $214 forward $84 $-1 #
coedge $-1 $136 $136 $85 $137 forward $131 $-1 #
edge $-1 $215 0 $215 6.2831853071796004 $136 $216 forward 7 unknown #
face $-1 $217 $218 $29 $-1 $219 reversed single #
loop $-1 $-1 $220 $86 #
plane-surface $-1 -158.70192543576826 36.415657401083081 139.8156280933556 0 -1 0 0.52991927123019833 0 -0.84804809178421925 forward_v I I I I #
coedge $-1 $221 $222 $223 $224 reversed $87 $-1 #
coedge $-1 $143 $89 $225 $226 reversed $56 $-1 #
coedge $-1 $89 $142 $221 $227 reversed $56 $-1 #
coedge $-1 $223 $228 $89 $145 forward $229 $-1 #
edge $-1 $230 2.3051544351606594 $231 13.28852409008762 $144 $232 forward 7 unknown #
loop $-1 $-1 $151 $90 #
plane-surface $-1 -77.045808282723456 29.510716176022051 9.1385267050827395 -0.52991927123019833 0 0.84804809178421925 0.84804809178421925 0 0.52991927123019833 forward_v I I I I #
loop $-1 $-1 $233 $58 #
coedge $-1 $149 $149 $150 $234 reversed $91 $-1 #
coedge $-1 $150 $150 $149 $234 forward $93 $-1 #
coedge $-1 $151 $151 $94 $152 forward $146 $-1 #
edge $-1 $235 0 $235 6.2831853071796004 $151 $236 forward 7 unknown #
loop $-1 $-1 $158 $95 #
plane-surface $-1 -77.045808282723456 29.510716176022051 9.1385267050827395 -0.52991927123019833 0 0.84804809178421925 0.84804809178421925 0 0.52991927123019833 forward_v I I I I #
loop $-1 $-1 $237 $61 #
coedge $-1 $156 $156 $157 $238 reversed $96 $-1 #
coedge $-1 $157 $157 $156 $238 forward $98 $-1 #
coedge $-1 $158 $158 $99 $159 forward $153 $-1 #
edge $-1 $239 0 $239 6.2831853071796004 $158 $240 forward 7 unknown #
face $-1 $241 $242 $24 $-1 $243 reversed single #
loop $-1 $-1 $244 $100 #
plane-surface $-1 -77.04580828272347 0 0 1 0 0 0 0 -1 forward_v I I I I #
coedge $-1 $245 $171 $246 $247 forward $101 $-1 #
coedge $-1 $248 $103 $245 $249 forward $65 $-1 #
coedge $-1 $103 $248 $250 $251 forward $65 $-1 #
coedge $-1 $174 $173 $103 $167 reversed $175 $-1 #
edge $-1 $252 -39.500349208140143 $253 39.500349208140143 $166 $254 forward 7 unknown #
coedge $-1 $105 $104 $255 $256 forward $41 $-1 #
coedge $-1 $257 $258 $104 $170 reversed $242 $-1 #
edge $-1 $177 -77.04580828272347 $259 77.04580828272347 $169 $260 forward 7 unknown #
coedge $-1 $163 $261 $105 $172 reversed $101 $-1 #
edge $-1 $262 -77.04580828272347 $176 77.04580828272347 $171 $263 forward 7 unknown #
coedge $-1 $166 $106 $261 $264 forward $175 $-1 #
coedge $-1 $106 $166 $257 $265 reversed $175 $-1 #
loop $-1 $-1 $173 $241 #
vertex $-1 $107 $266 #
vertex $-1 $107 $267 #
straight-curve $-1 77.04580828272347 0 16.001697909141889 0 1 0 I I #
face $-1 $268 $269 $25 $-1 $270 reversed single #
loop $-1 $-1 $114 $108 #
plane-surface $-1 -75.266770997785528 -44.995406596700391 0 1 0 0 0 0 -1 forward_v I I I I #
coedge $-1 $271 $272 $273 $274 forward $109 $-1 #
coedge $-1 $275 $111 $276 $277 forward $69 $-1 #
coedge $-1 $111 $275 $189 $278 forward $69 $-1 #
edge $-1 $191 -75.266770997785528 $279 -65.884141464158915 $111 $280 forward 7 unknown #
coedge $-1 $113 $112 $281 $282 forward $44 $-1 #
coedge $-1 $283 $284 $112 $188 forward $285 $-1 #
edge $-1 $286 65.884141464158915 $192 75.266770997785528 $187 $287 forward 7 unknown #
coedge $-1 $273 $114 $184 $278 reversed $180 $-1 #
coedge $-1 $114 $273 $283 $288 reversed $180 $-1 #
vertex $-1 $185 $289 #
vertex $-1 $288 $290 #
straight-curve $-1 -75.266770997785528 -39.500349208140143 0 0 0 1 I I #
face $-1 $-1 $291 $26 $-1 $292 reversed single #
loop $-1 $-1 $122 $116 #
plane-surface $-1 0 0 16.001697909141889 0 0 1 1 0 0 forward_v I I I I #
coedge $-1 $293 $294 $295 $296 reversed $117 $-1 #
coedge $-1 $297 $119 $121 $204 forward $73 $-1 #
coedge $-1 $119 $297 $293 $298 forward $73 $-1 #
coedge $-1 $295 $122 $119 $201 forward $195 $-1 #
edge $-1 $207 -21.660299313072056 $299 -7.8504168629499915 $200 $300 forward 7 unknown #
coedge $-1 $301 $302 $120 $203 forward $291 $-1 #
edge $-1 $303 -101.59734591811747 $206 -94.734174714058327 $202 $304 forward 7 unknown #
edge $-1 $207 141.14026420544238 $303 154.091616565447 $121 $305 forward 7 unknown #
coedge $-1 $122 $295 $301 $306 forward $195 $-1 #
vertex $-1 $123 $307 #
vertex $-1 $123 $308 #
straight-curve $-1 14.0124120237477 36.415657401083081 16.001697909141896 -1 0 0 I I #
coedge $-1 $209 $209 $-1 $309 reversed $126 $-1 #
edge $-1 $310 0 $310 6.2831853071796004 $127 $311 forward 7 unknown #
vertex $-1 $130 $312 #
ellipse-curve $-1 71.554123455259997 26.551455650995898 12.570112307112318 0.52991927123019833 0 0.84804809178421925 1.2720721376763289 0 -0.79487890684529749 1 I I #
coedge $-1 $213 $213 $-1 $313 reversed $133 $-1 #
edge $-1 $314 0 $314 6.2831853071796004 $134 $315 forward 7 unknown #
vertex $-1 $137 $316 #
ellipse-curve $-1 71.554123455259997 32.469976701048203 12.570112307112318 0.52991927123019833 0 0.84804809178421925 1.2720721376763289 0 -0.79487890684529749 1 I I #
face $-1 $-1 $229 $29 $-1 $317 forward single #
loop $-1 $-1 $318 $138 #
plane-surface $-1 -77.04580828272347 0 0 1 0 0 0 0 -1 forward_v I I I I #
coedge $-1 $319 $320 $321 $322 reversed $139 $-1 #
coedge $-1 $323 $141 $143 $227 forward $87 $-1 #
coedge $-1 $141 $323 $319 $324 forward $87 $-1 #
coedge $-1 $321 $144 $141 $224 forward $229 $-1 #
edge $-1 $231 7.8504168629499915 $325 21.660299313072056 $223 $326 forward 7 unknown #
coedge $-1 $327 $328 $142 $226 forward $218 $-1 #
edge $-1 $329 -60.769287341595067 $230 -53.906116137535911 $225 $330 forward 7 unknown #
edge $-1 $231 -12.951352360004602 $329 1.675811683274863e-014 $143 $331 forward 7 unknown #
coedge $-1 $144 $321 $327 $332 forward $229 $-1 #
loop $-1 $-1 $321 $217 #
vertex $-1 $226 $333 #
vertex $-1 $145 $334 #
straight-curve $-1 -79.35096271788413 22.605774950961017 16.001697909141889 1 0 0 I I #
coedge $-1 $233 $233 $-1 $335 reversed $148 $-1 #
edge $-1 $336 0 $336 6.2831853071796004 $149 $337 forward 7 unknown #
vertex $-1 $152 $338 #
ellipse-curve $-1 -71.554123455260012 26.551455650995898 12.5701123071123 -0.52991927123019833 0 0.84804809178421925 1.2720721376763289 0 0.79487890684529749 1 I I #
coedge $-1 $237 $237 $-1 $339 reversed $155 $-1 #
edge $-1 $340 0 $340 6.2831853071796004 $156 $341 forward 7 unknown #
vertex $-1 $159 $342 #
ellipse-curve $-1 -71.554123455260012 32.469976701048203 12.5701123071123 -0.52991927123019833 0 0.84804809178421925 1.2720721376763289 0 0.79487890684529749 1 I I #
face $-1 $-1 $175 $24 $-1 $343 reversed single #
loop $-1 $-1 $257 $160 #
plane-surface $-1 0 39.500349208140143 0 0 -1 0 0 0 -1 forward_v I I I I #
coedge $-1 $344 $255 $258 $345 forward $161 $-1 #
coedge $-1 $261 $163 $164 $249 reversed $101 $-1 #
coedge $-1 $255 $344 $163 $247 reversed $161 $-1 #
edge $-1 $262 -16.001697909141889 $346 16.001697909141889 $246 $347 forward 7 unknown #
coedge $-1 $165 $164 $344 $348 forward $65 $-1 #
edge $-1 $253 -77.04580828272347 $346 77.04580828272347 $245 $349 forward 7 unknown #
coedge $-1 $258 $257 $165 $251 reversed $242 $-1 #
edge $-1 $350 -77.04580828272347 $252 77.04580828272347 $250 $351 forward 7 unknown #
vertex $-1 $167 $352 #
vertex $-1 $264 $353 #
straight-curve $-1 77.04580828272347 0 -16.001697909141889 0 -1 0 I I #
coedge $-1 $244 $246 $168 $256 reversed $161 $-1 #
edge $-1 $259 -39.500349208140143 $262 39.500349208140143 $255 $354 forward 7 unknown #
coedge $-1 $250 $169 $174 $265 forward $242 $-1 #
coedge $-1 $169 $250 $244 $345 reversed $242 $-1 #
vertex $-1 $170 $355 #
straight-curve $-1 0 39.500349208140143 16.001697909141889 -1 0 0 I I #
coedge $-1 $171 $245 $173 $264 reversed $101 $-1 #
vertex $-1 $256 $356 #
straight-curve $-1 0 -39.500349208140143 16.001697909141889 1 0 0 I I #
edge $-1 $176 -16.001697909141889 $253 16.001697909141889 $173 $357 forward 7 unknown #
edge $-1 $177 -16.001697909141889 $252 16.001697909141889 $174 $358 forward 7 unknown #
point $-1 77.04580828272347 -39.500349208140143 16.001697909141889 #
point $-1 77.04580828272347 39.500349208140143 16.001697909141889 #
face $-1 $-1 $285 $25 $-1 $359 forward single #
loop $-1 $-1 $360 $179 #
plane-surface $-1 -65.884141464158915 -44.995406596700391 0 -1 0 0 0 0 1 forward_v I I I I #
coedge $-1 $361 $182 $275 $362 reversed $109 $-1 #
coedge $-1 $182 $361 $363 $364 reversed $109 $-1 #
coedge $-1 $190 $189 $182 $274 reversed $180 $-1 #
edge $-1 $365 -16.001697909141889 $366 16.001697909141889 $273 $367 forward 7 unknown #
coedge $-1 $184 $183 $271 $362 forward $69 $-1 #
coedge $-1 $281 $360 $183 $277 reversed $269 $-1 #
edge $-1 $279 -5.4950573885602481 $368 5.4950573885602481 $276 $369 forward 7 unknown #
edge $-1 $366 -5.4950573885602481 $191 5.4950573885602481 $189 $370 forward 7 unknown #
vertex $-1 $277 $371 #
straight-curve $-1 0 -39.500349208140143 -16.001697909141889 1 0 0 I I #
coedge $-1 $372 $276 $186 $282 reversed $269 $-1 #
edge $-1 $286 -16.001697909141889 $279 16.001697909141889 $281 $373 forward 7 unknown #
coedge $-1 $363 $187 $190 $288 forward $285 $-1 #
coedge $-1 $187 $363 $372 $374 forward $285 $-1 #
loop $-1 $-1 $187 $268 #
vertex $-1 $188 $375 #
straight-curve $-1 0 -39.500349208140143 16.001697909141889 -1 0 0 I I #
edge $-1 $192 -5.4950573885602481 $365 5.4950573885602481 $190 $376 forward 7 unknown #
point $-1 -75.266770997785528 -39.500349208140143 -16.001697909141889 #
point $-1 -75.266770997785528 -39.500349208140143 16.001697909141889 #
loop $-1 $-1 $202 $194 #
plane-surface $-1 77.04580828272347 0 0 -1 0 0 0 0 1 forward_v I I I I #
coedge $-1 $294 $197 $199 $298 reversed $117 $-1 #
coedge $-1 $197 $293 $377 $378 reversed $117 $-1 #
coedge $-1 $205 $200 $197 $296 forward $195 $-1 #
edge $-1 $299 52.050026604048853 $379 63.03339625897577 $295 $380 forward 7 unknown #
coedge $-1 $199 $198 $302 $381 reversed $73 $-1 #
edge $-1 $382 -154.091616565447 $299 -141.14026420544238 $293 $383 forward 7 unknown #
vertex $-1 $201 $384 #
straight-curve $-1 66.062438627796539 14.755358088011025 16.001697909141882 0 -1 0 I I #
coedge $-1 $377 $202 $205 $306 reversed $291 $-1 #
coedge $-1 $202 $377 $297 $381 forward $291 $-1 #
vertex $-1 $203 $385 #
straight-curve $-1 77.04580828272347 36.415657401083081 110.73587262320021 0 0 1 I I #
straight-curve $-1 -53.631293105549403 36.415657401083081 90.794643858127557 0.84804809178421925 0 -0.52991927123019833 I I #
edge $-1 $379 22.605774950961017 $206 36.415657401083081 $301 $386 forward 7 unknown #
point $-1 77.04580828272347 36.415657401083081 16.001697909141889 #
point $-1 66.062438627796553 36.415657401083081 16.001697909141882 #
edge $-1 $387 1 $387 0 $209 $-1 forward 7 unknown #
vertex $-1 $210 $388 #
ellipse-curve $-1 69.94008286359913 26.551455650995898 9.9871074644262645 0.52991927123019833 0 0.84804809178421925 1.2720721376763289 0 -0.79487890684529749 1 I I #
point $-1 72.82619559293633 26.551455650995898 11.775233400267037 #
edge $-1 $389 1 $389 0 $213 $-1 forward 7 unknown #
vertex $-1 $214 $390 #
ellipse-curve $-1 69.94008286359913 32.469976701048203 9.9871074644262645 0.52991927123019833 0 0.84804809178421925 1.2720721376763289 0 -0.79487890684529749 1 I I #
point $-1 72.82619559293633 32.469976701048203 11.775233400267037 #
plane-surface $-1 0 0 16.001697909141889 0 0 1 1 0 0 forward_v I I I I #
coedge $-1 $328 $327 $320 $391 forward $218 $-1 #
coedge $-1 $320 $220 $222 $324 reversed $139 $-1 #
coedge $-1 $220 $319 $318 $391 reversed $139 $-1 #
coedge $-1 $228 $223 $220 $322 forward $229 $-1 #
edge $-1 $325 -13.28852409008762 $392 -2.3051544351606594 $321 $393 forward 7 unknown #
coedge $-1 $222 $221 $328 $394 reversed $87 $-1 #
edge $-1 $395 -1.675811683274863e-014 $325 12.951352360004602 $319 $396 forward 7 unknown #
vertex $-1 $224 $397 #
straight-curve $-1 -66.062438627796524 14.755358088011025 16.001697909141889 0 1 0 I I #
coedge $-1 $318 $225 $228 $332 reversed $218 $-1 #
coedge $-1 $225 $318 $323 $394 forward $218 $-1 #
vertex $-1 $226 $398 #
straight-curve $-1 -77.04580828272347 22.605774950961017 69.9078140466778 0 0 1 I I #
straight-curve $-1 -77.045808282723456 22.605774950961017 9.1385267050827395 -0.84804809178421925 0 -0.52991927123019833 I I #
edge $-1 $392 -36.415657401083081 $230 -22.605774950961017 $327 $399 forward 7 unknown #
point $-1 -77.04580828272347 22.605774950961017 16.001697909141889 #
point $-1 -66.06243862779651 22.605774950961017 16.001697909141889 #
edge $-1 $400 1 $400 0 $233 $-1 forward 7 unknown #
vertex $-1 $234 $401 #
ellipse-curve $-1 -69.940082863599145 26.551455650995898 9.9871074644262539 -0.52991927123019833 0 0.84804809178421925 1.2720721376763289 0 0.79487890684529749 1 I I #
point $-1 -70.282051317583694 26.551455650995898 13.364991213957623 #
edge $-1 $402 1 $402 0 $237 $-1 forward 7 unknown #
vertex $-1 $238 $403 #
ellipse-curve $-1 -69.940082863599145 32.469976701048203 9.9871074644262539 -0.52991927123019833 0 0.84804809178421925 1.2720721376763289 0 0.79487890684529749 1 I I #
point $-1 -70.282051317583694 32.469976701048203 13.364991213957623 #
plane-surface $-1 77.04580828272347 0 0 -1 0 0 0 0 1 forward_v I I I I #
coedge $-1 $246 $244 $248 $348 reversed $161 $-1 #
edge $-1 $259 -16.001697909141889 $350 16.001697909141889 $258 $404 forward 7 unknown #
vertex $-1 $348 $405 #
straight-curve $-1 -77.04580828272347 -39.500349208140143 0 0 0 -1 I I #
edge $-1 $346 -39.500349208140143 $350 39.500349208140143 $344 $406 forward 7 unknown #
straight-curve $-1 0 -39.500349208140143 -16.001697909141889 -1 0 0 I I #
vertex $-1 $251 $407 #
straight-curve $-1 0 39.500349208140143 -16.001697909141889 1 0 0 I I #
point $-1 77.04580828272347 39.500349208140143 -16.001697909141889 #
point $-1 77.04580828272347 -39.500349208140143 -16.001697909141889 #
straight-curve $-1 -77.04580828272347 0 16.001697909141889 0 -1 0 I I #
point $-1 -77.04580828272347 39.500349208140143 16.001697909141889 #
point $-1 -77.04580828272347 -39.500349208140143 16.001697909141889 #
straight-curve $-1 77.04580828272347 -39.500349208140143 0 0 0 -1 I I #
straight-curve $-1 77.04580828272347 39.500349208140143 0 0 0 -1 I I #
plane-surface $-1 0 0 16.001697909141889 0 0 1 1 0 0 forward_v I I I I #
coedge $-1 $276 $372 $361 $408 forward $269 $-1 #
coedge $-1 $272 $271 $360 $408 reversed $109 $-1 #
edge $-1 $368 -4.6913147668133064 $366 4.6913147668133064 $271 $409 forward 7 unknown #
coedge $-1 $284 $283 $272 $364 forward $285 $-1 #
edge $-1 $365 -4.6913147668133064 $410 4.6913147668133064 $272 $411 forward 7 unknown #
vertex $-1 $288 $412 #
vertex $-1 $278 $413 #
straight-curve $-1 -75.266770997785528 -50.490463985260639 0 0 0 -1 I I #
vertex $-1 $408 $414 #
straight-curve $-1 -65.884141464158915 -44.995406596700391 -16.001697909141889 0 -1 0 I I #
straight-curve $-1 -75.266770997785528 -44.995406596700391 -16.001697909141889 0 1 0 I I #
point $-1 -65.884141464158915 -39.500349208140143 -16.001697909141889 #
coedge $-1 $360 $281 $284 $374 reversed $269 $-1 #
straight-curve $-1 -65.884141464158915 -39.500349208140143 0 0 0 -1 I I #
edge $-1 $410 -5.4950573885602481 $286 5.4950573885602481 $372 $415 forward 7 unknown #
point $-1 -65.884141464158915 -39.500349208140143 16.001697909141889 #
straight-curve $-1 -75.266770997785528 -44.995406596700391 16.001697909141889 0 -1 0 I I #
coedge $-1 $302 $301 $294 $378 forward $291 $-1 #
edge $-1 $379 94.734174714058327 $382 101.59734591811747 $377 $416 forward 7 unknown #
vertex $-1 $306 $417 #
straight-curve $-1 14.0124120237477 22.605774950961017 16.001697909141896 1 0 0 I I #
edge $-1 $382 7.8504168629499915 $303 21.660299313072056 $302 $418 forward 7 unknown #
vertex $-1 $381 $419 #
straight-curve $-1 -53.631293105549403 22.605774950961017 90.794643858127557 -0.84804809178421925 0 0.52991927123019833 I I #
point $-1 66.062438627796553 22.605774950961017 16.001697909141882 #
point $-1 77.045808282723485 36.415657401083081 9.1385267050827395 #
straight-curve $-1 77.04580828272347 0 16.001697909141889 0 1 0 I I #
vertex $-1 $309 $420 #
point $-1 71.212155001275462 26.551455650995898 9.1922285575809664 #
vertex $-1 $313 $421 #
point $-1 71.212155001275462 32.469976701048203 9.1922285575809664 #
edge $-1 $392 53.906116137535911 $395 60.769287341595067 $318 $422 forward 7 unknown #
vertex $-1 $332 $423 #
straight-curve $-1 -79.35096271788413 36.415657401083081 16.001697909141889 -1 0 0 I I #
edge $-1 $395 -21.660299313072056 $329 -7.8504168629499915 $328 $424 forward 7 unknown #
vertex $-1 $394 $425 #
straight-curve $-1 -77.045808282723456 36.415657401083081 9.1385267050827395 0.84804809178421925 0 0.52991927123019833 I I #
point $-1 -66.06243862779651 36.415657401083081 16.001697909141889 #
point $-1 -77.04580828272347 22.605774950961017 9.1385267050827306 #
straight-curve $-1 -77.04580828272347 0 16.001697909141889 0 -1 0 I I #
vertex $-1 $335 $426 #
point $-1 -68.668010725922812 26.551455650995898 10.781986371271552 #
vertex $-1 $339 $427 #
point $-1 -68.668010725922812 32.469976701048203 10.781986371271552 #
straight-curve $-1 -77.04580828272347 39.500349208140143 0 0 0 -1 I I #
point $-1 -77.04580828272347 -39.500349208140143 -16.001697909141889 #
straight-curve $-1 -77.04580828272347 0 -16.001697909141889 0 1 0 I I #
point $-1 -77.04580828272347 39.500349208140143 -16.001697909141889 #
edge $-1 $410 -16.001697909141889 $368 16.001697909141889 $360 $428 forward 7 unknown #
straight-curve $-1 -70.575456230972222 -50.490463985260639 -16.001697909141889 -1 0 0 I I #
vertex $-1 $374 $429 #
straight-curve $-1 -70.575456230972222 -50.490463985260639 16.001697909141889 1 0 0 I I #
point $-1 -75.266770997785528 -50.490463985260639 16.001697909141889 #
point $-1 -75.266770997785528 -50.490463985260639 -16.001697909141889 #
point $-1 -65.884141464158915 -50.490463985260639 -16.001697909141889 #
straight-curve $-1 -65.884141464158915 -44.995406596700391 16.001697909141889 0 1 0 I I #
straight-curve $-1 77.04580828272347 22.605774950961017 110.73587262320021 0 0 -1 I I #
point $-1 77.04580828272347 22.605774950961017 16.001697909141889 #
straight-curve $-1 77.045808282723485 14.755358088011025 9.1385267050827466 0 1 0 I I #
point $-1 77.045808282723485 22.605774950961017 9.1385267050827395 #
point $-1 69.145203956753832 26.551455650995898 8.7150353267499359 #
point $-1 69.145203956753832 32.469976701048203 8.7150353267499359 #
straight-curve $-1 -77.04580828272347 36.415657401083081 69.9078140466778 0 0 -1 I I #
point $-1 -77.04580828272347 36.415657401083081 16.001697909141889 #
straight-curve $-1 -77.04580828272347 14.755358088011025 9.1385267050827323 0 -1 0 I I #
point $-1 -77.04580828272347 36.415657401083081 9.1385267050827306 #
point $-1 -69.145203956753846 26.551455650995898 8.7150353267499252 #
point $-1 -69.145203956753846 32.469976701048203 8.7150353267499252 #
straight-curve $-1 -65.884141464158915 -50.490463985260639 0 0 0 -1 I I #
point $-1 -65.884141464158915 -50.490463985260639 16.001697909141889 #
End-of-ACIS-data 