500 0 20 0           
7 Unknown 11 ACIS 5.0 NT 24 Fri Mar 26 00:35:33 1999 
-1 9.9999999999999995e-007 1e-010 
body $-1 $20 $-1 $21 #
body $-1 $22 $-1 $23 #
body $-1 $24 $-1 $25 #
body $-1 $26 $-1 $27 #
body $-1 $28 $-1 $29 #
body $-1 $30 $-1 $31 #
body $-1 $32 $-1 $33 #
body $-1 $34 $-1 $35 #
body $-1 $36 $-1 $37 #
body $-1 $38 $-1 $39 #
body $-1 $40 $-1 $41 #
body $-1 $42 $-1 $43 #
body $-1 $44 $-1 $45 #
body $-1 $46 $-1 $47 #
body $-1 $48 $-1 $49 #
body $-1 $50 $-1 $51 #
body $-1 $52 $-1 $53 #
body $-1 $54 $-1 $55 #
body $-1 $56 $-1 $57 #
body $-1 $58 $-1 $59 #
lump $-1 $-1 $60 $0 #
transform $-1 1 0 0 0 1 0 0 0 1 49.936826685384688 20.556745326430509 10.113690341117168 1 rotate no_reflect no_shear #
lump $-1 $-1 $61 $1 #
transform $-1 1 0 0 0 1 0 0 0 1 49.936826685384688 -6.4513596976370788 15.363080960391706 1 rotate no_reflect no_shear #
lump $-1 $-1 $62 $2 #
transform $-1 0.8660253999169214 0 0.50000000669873634 0 1 0 -0.50000000669873634 0 0.8660253999169214 -49.93682735441196 17.656400789621262 98.042922323251958 1 rotate no_reflect no_shear #
lump $-1 $-1 $63 $3 #
transform $-1 0.8660253999169214 0 0.50000000669873634 0 -1 0 0.50000000669873634 0 -0.8660253999169214 8.1400036973269909 15.967493836785772 14.806059452054727 1 rotate no_reflect no_shear #
lump $-1 $-1 $64 $4 #
transform $-1 0.8660253999169214 0 0.50000000669873634 0 -1 0 0.50000000669873634 0 -0.8660253999169214 8.1400036973269909 17.656400789621262 14.806059452054727 1 rotate no_reflect no_shear #
lump $-1 $-1 $65 $5 #
transform $-1 0.8660253999169214 0 0.50000000669873634 0 -1 0 0.50000000669873634 0 -0.8660253999169214 8.1400036973269909 19.34530774245675 14.806059452054727 1 rotate no_reflect no_shear #
lump $-1 $-1 $66 $6 #
transform $-1 0.8660253999169214 0 0.50000000669873634 0 1 0 -0.50000000669873634 0 0.8660253999169214 -49.93682735441196 27.059991208816882 98.042922323251958 1 rotate no_reflect no_shear #
lump $-1 $-1 $67 $7 #
transform $-1 0.8660253999169214 0 0.50000000669873634 0 -1 0 0.50000000669873634 0 -0.8660253999169214 8.1400036973269909 25.371084255981394 14.806059452054727 1 rotate no_reflect no_shear #
lump $-1 $-1 $68 $8 #
transform $-1 0.8660253999169214 0 0.50000000669873634 0 -1 0 0.50000000669873634 0 -0.8660253999169214 8.1400036973269909 27.059991208816882 14.806059452054727 1 rotate no_reflect no_shear #
lump $-1 $-1 $69 $9 #
transform $-1 0.8660253999169214 0 0.50000000669873634 0 -1 0 0.50000000669873634 0 -0.8660253999169214 8.1400036973269909 28.74889816165237 14.806059452054727 1 rotate no_reflect no_shear #
lump $-1 $-1 $70 $10 #
transform $-1 0.8660253999169214 0 0.50000000669873634 0 1 0 -0.50000000669873634 0 0.8660253999169214 -49.93682735441196 36.463581628012506 98.042922323251958 1 rotate no_reflect no_shear #
lump $-1 $-1 $71 $11 #
transform $-1 0.8660253999169214 0 0.50000000669873634 0 -1 0 0.50000000669873634 0 -0.8660253999169214 8.1400036973269909 34.77467467517701 14.806059452054727 1 rotate no_reflect no_shear #
lump $-1 $-1 $72 $12 #
transform $-1 0.8660253999169214 0 0.50000000669873634 0 -1 0 0.50000000669873634 0 -0.8660253999169214 8.1400036973269909 36.463581628012506 14.806059452054727 1 rotate no_reflect no_shear #
lump $-1 $-1 $73 $13 #
transform $-1 0.8660253999169214 0 0.50000000669873634 0 -1 0 0.50000000669873634 0 -0.8660253999169214 8.1400036973269909 38.152488580847987 14.806059452054727 1 rotate no_reflect no_shear #
lump $-1 $-1 $74 $14 #
transform $-1 0.81915203911291934 0 -0.57357644374324357 0 1 0 0.57357644374324357 0 0.81915203911291934 75.347121482498039 17.807385118159424 150.26893080465396 1 rotate no_reflect no_shear #
lump $-1 $-1 $75 $15 #
transform $-1 0.81915203911291934 0 -0.57357644374324357 0 -1 0 -0.57357644374324357 0 -0.81915203911291934 91.605954332069274 17.80738511815942 13.126874492147216 1 rotate no_reflect no_shear #
lump $-1 $-1 $76 $16 #
transform $-1 0.81915203911291934 0 -0.57357644374324357 0 1 0 0.57357644374324357 0 0.81915203911291934 75.347121482498039 27.210975537355043 150.26893080465396 1 rotate no_reflect no_shear #
lump $-1 $-1 $77 $17 #
transform $-1 0.81915203911291934 0 -0.57357644374324357 0 -1 0 -0.57357644374324357 0 -0.81915203911291934 91.605954332069274 27.21097553735504 13.126874492147216 1 rotate no_reflect no_shear #
lump $-1 $-1 $78 $18 #
transform $-1 0.81915203911291934 0 -0.57357644374324357 0 1 0 0.57357644374324357 0 0.81915203911291934 75.347121482498039 36.614565956550663 150.26893080465396 1 rotate no_reflect no_shear #
lump $-1 $-1 $79 $19 #
transform $-1 0.81915203911291934 0 -0.57357644374324357 0 -1 0 -0.57357644374324357 0 -0.81915203911291934 91.605954332069274 36.614565956550663 13.126874492147216 1 rotate no_reflect no_shear #
shell $-1 $-1 $-1 $80 $-1 $20 #
shell $-1 $-1 $-1 $81 $-1 $22 #
shell $-1 $-1 $-1 $82 $-1 $24 #
shell $-1 $-1 $-1 $83 $-1 $26 #
shell $-1 $-1 $-1 $84 $-1 $28 #
shell $-1 $-1 $-1 $85 $-1 $30 #
shell $-1 $-1 $-1 $86 $-1 $32 #
shell $-1 $-1 $-1 $87 $-1 $34 #
shell $-1 $-1 $-1 $88 $-1 $36 #
shell $-1 $-1 $-1 $89 $-1 $38 #
shell $-1 $-1 $-1 $90 $-1 $40 #
shell $-1 $-1 $-1 $91 $-1 $42 #
shell $-1 $-1 $-1 $92 $-1 $44 #
shell $-1 $-1 $-1 $93 $-1 $46 #
shell $-1 $-1 $-1 $94 $-1 $48 #
shell $-1 $-1 $-1 $95 $-1 $50 #
shell $-1 $-1 $-1 $96 $-1 $52 #
shell $-1 $-1 $-1 $97 $-1 $54 #
shell $-1 $-1 $-1 $98 $-1 $56 #
shell $-1 $-1 $-1 $99 $-1 $58 #
face $-1 $100 $101 $60 $-1 $102 forward single #
face $-1 $103 $104 $61 $-1 $105 forward single #
face $-1 $106 $107 $62 $-1 $108 forward single #
face $-1 $109 $110 $63 $-1 $111 forward single #
face $-1 $112 $113 $64 $-1 $114 forward single #
face $-1 $115 $116 $65 $-1 $117 forward single #
face $-1 $118 $119 $66 $-1 $120 forward single #
face $-1 $121 $122 $67 $-1 $123 forward single #
face $-1 $124 $125 $68 $-1 $126 forward single #
face $-1 $127 $128 $69 $-1 $129 forward single #
face $-1 $130 $131 $70 $-1 $132 forward single #
face $-1 $133 $134 $71 $-1 $135 forward single #
face $-1 $136 $137 $72 $-1 $138 forward single #
face $-1 $139 $140 $73 $-1 $141 forward single #
face $-1 $142 $143 $74 $-1 $144 forward single #
face $-1 $145 $146 $75 $-1 $147 forward single #
face $-1 $148 $149 $76 $-1 $150 forward single #
face $-1 $151 $152 $77 $-1 $153 forward single #
face $-1 $154 $155 $78 $-1 $156 forward single #
face $-1 $157 $158 $79 $-1 $159 forward single #
face $-1 $160 $161 $60 $-1 $162 reversed single #
loop $-1 $-1 $163 $80 #
plane-surface $-1 0 0 10.113690341117168 0 0 1 1 0 0 forward_v I I I I #
face $-1 $164 $165 $61 $-1 $166 reversed single #
loop $-1 $-1 $167 $81 #
plane-surface $-1 0 0 1.5000000000000009 0 0 1 1 0 0 forward_v I I I I #
face $-1 $168 $169 $62 $-1 $170 reversed single #
loop $-1 $-1 $171 $82 #
plane-surface $-1 0 0 99.873653370769375 0 0 1 1 0 0 forward_v I I I I #
face $-1 $172 $173 $63 $-1 $174 forward single #
loop $-1 $175 $176 $83 #
cone-surface $-1 0 0 -0.75 0 0 1 0.5 0 0 1 I I 0 1 0.5 forward I I I I #
face $-1 $177 $178 $64 $-1 $179 forward single #
loop $-1 $180 $181 $84 #
cone-surface $-1 0 0 -0.75 0 0 1 0.5 0 0 1 I I 0 1 0.5 forward I I I I #
face $-1 $182 $183 $65 $-1 $184 forward single #
loop $-1 $185 $186 $85 #
cone-surface $-1 0 0 -0.75 0 0 1 0.5 0 0 1 I I 0 1 0.5 forward I I I I #
face $-1 $187 $188 $66 $-1 $189 reversed single #
loop $-1 $-1 $190 $86 #
plane-surface $-1 0 0 99.873653370769375 0 0 1 1 0 0 forward_v I I I I #
face $-1 $191 $192 $67 $-1 $193 forward single #
loop $-1 $194 $195 $87 #
cone-surface $-1 0 0 -0.75 0 0 1 0.5 0 0 1 I I 0 1 0.5 forward I I I I #
face $-1 $196 $197 $68 $-1 $198 forward single #
loop $-1 $199 $200 $88 #
cone-surface $-1 0 0 -0.75 0 0 1 0.5 0 0 1 I I 0 1 0.5 forward I I I I #
face $-1 $201 $202 $69 $-1 $203 forward single #
loop $-1 $204 $205 $89 #
cone-surface $-1 0 0 -0.75 0 0 1 0.5 0 0 1 I I 0 1 0.5 forward I I I I #
face $-1 $206 $207 $70 $-1 $208 reversed single #
loop $-1 $-1 $209 $90 #
plane-surface $-1 0 0 99.873653370769375 0 0 1 1 0 0 forward_v I I I I #
face $-1 $210 $211 $71 $-1 $212 forward single #
loop $-1 $213 $214 $91 #
cone-surface $-1 0 0 -0.75 0 0 1 0.5 0 0 1 I I 0 1 0.5 forward I I I I #
face $-1 $215 $216 $72 $-1 $217 forward single #
loop $-1 $218 $219 $92 #
cone-surface $-1 0 0 -0.75 0 0 1 0.5 0 0 1 I I 0 1 0.5 forward I I I I #
face $-1 $220 $221 $73 $-1 $222 forward single #
loop $-1 $223 $224 $93 #
cone-surface $-1 0 0 -0.75 0 0 1 0.5 0 0 1 I I 0 1 0.5 forward I I I I #
face $-1 $225 $226 $74 $-1 $227 reversed single #
loop $-1 $-1 $228 $94 #
plane-surface $-1 0 0 99.873653370769375 0 0 1 1 0 0 forward_v I I I I #
face $-1 $229 $230 $75 $-1 $231 forward single #
loop $-1 $232 $233 $95 #
cone-surface $-1 0 0 -1.8204290902432323 0 0 1 1 0 0 1 I I 0 1 1 forward I I I I #
face $-1 $234 $235 $76 $-1 $236 reversed single #
loop $-1 $-1 $237 $96 #
plane-surface $-1 0 0 99.873653370769375 0 0 1 1 0 0 forward_v I I I I #
face $-1 $238 $239 $77 $-1 $240 forward single #
loop $-1 $241 $242 $97 #
cone-surface $-1 0 0 -1.8204290902432323 0 0 1 1 0 0 1 I I 0 1 1 forward I I I I #
face $-1 $243 $244 $78 $-1 $245 reversed single #
loop $-1 $-1 $246 $98 #
plane-surface $-1 0 0 99.873653370769375 0 0 1 1 0 0 forward_v I I I I #
face $-1 $247 $248 $79 $-1 $249 forward single #
loop $-1 $250 $251 $99 #
cone-surface $-1 0 0 -1.8204290902432323 0 0 1 1 0 0 1 I I 0 1 1 forward I I I I #
face $-1 $252 $253 $60 $-1 $254 reversed single #
loop $-1 $-1 $255 $100 #
plane-surface $-1 0 0 -10.113690341117168 0 0 1 1 0 0 forward_v I I I I #
coedge $-1 $256 $257 $258 $259 forward $101 $-1 #
face $-1 $260 $261 $61 $-1 $262 reversed single #
loop $-1 $-1 $263 $103 #
plane-surface $-1 0 0 -1.5000000000000009 0 0 1 1 0 0 forward_v I I I I #
coedge $-1 $264 $265 $266 $267 forward $104 $-1 #
face $-1 $268 $269 $62 $-1 $270 reversed single #
loop $-1 $-1 $271 $106 #
plane-surface $-1 0 0 -99.873653370769375 0 0 1 1 0 0 forward_v I I I I #
coedge $-1 $272 $273 $274 $275 forward $107 $-1 #
face $-1 $-1 $276 $63 $-1 $277 forward single #
loop $-1 $-1 $278 $109 #
plane-surface $-1 0 0 -1.25 0 0 -1 -1 0 0 forward_v I I I I #
loop $-1 $-1 $279 $83 #
coedge $-1 $176 $176 $278 $280 reversed $110 $-1 #
face $-1 $-1 $281 $64 $-1 $282 forward single #
loop $-1 $-1 $283 $112 #
plane-surface $-1 0 0 -1.25 0 0 -1 -1 0 0 forward_v I I I I #
loop $-1 $-1 $284 $84 #
coedge $-1 $181 $181 $283 $285 reversed $113 $-1 #
face $-1 $-1 $286 $65 $-1 $287 forward single #
loop $-1 $-1 $288 $115 #
plane-surface $-1 0 0 -1.25 0 0 -1 -1 0 0 forward_v I I I I #
loop $-1 $-1 $289 $85 #
coedge $-1 $186 $186 $288 $290 reversed $116 $-1 #
face $-1 $291 $292 $66 $-1 $293 reversed single #
loop $-1 $-1 $294 $118 #
plane-surface $-1 0 0 -99.873653370769375 0 0 1 1 0 0 forward_v I I I I #
coedge $-1 $295 $296 $297 $298 forward $119 $-1 #
face $-1 $-1 $299 $67 $-1 $300 forward single #
loop $-1 $-1 $301 $121 #
plane-surface $-1 0 0 -1.25 0 0 -1 -1 0 0 forward_v I I I I #
loop $-1 $-1 $302 $87 #
coedge $-1 $195 $195 $301 $303 reversed $122 $-1 #
face $-1 $-1 $304 $68 $-1 $305 forward single #
loop $-1 $-1 $306 $124 #
plane-surface $-1 0 0 -1.25 0 0 -1 -1 0 0 forward_v I I I I #
loop $-1 $-1 $307 $88 #
coedge $-1 $200 $200 $306 $308 reversed $125 $-1 #
face $-1 $-1 $309 $69 $-1 $310 forward single #
loop $-1 $-1 $311 $127 #
plane-surface $-1 0 0 -1.25 0 0 -1 -1 0 0 forward_v I I I I #
loop $-1 $-1 $312 $89 #
coedge $-1 $205 $205 $311 $313 reversed $128 $-1 #
face $-1 $314 $315 $70 $-1 $316 reversed single #
loop $-1 $-1 $317 $130 #
plane-surface $-1 0 0 -99.873653370769375 0 0 1 1 0 0 forward_v I I I I #
coedge $-1 $318 $319 $320 $321 forward $131 $-1 #
face $-1 $-1 $322 $71 $-1 $323 forward single #
loop $-1 $-1 $324 $133 #
plane-surface $-1 0 0 -1.25 0 0 -1 -1 0 0 forward_v I I I I #
loop $-1 $-1 $325 $91 #
coedge $-1 $214 $214 $324 $326 reversed $134 $-1 #
face $-1 $-1 $327 $72 $-1 $328 forward single #
loop $-1 $-1 $329 $136 #
plane-surface $-1 0 0 -1.25 0 0 -1 -1 0 0 forward_v I I I I #
loop $-1 $-1 $330 $92 #
coedge $-1 $219 $219 $329 $331 reversed $137 $-1 #
face $-1 $-1 $332 $73 $-1 $333 forward single #
loop $-1 $-1 $334 $139 #
plane-surface $-1 0 0 -1.25 0 0 -1 -1 0 0 forward_v I I I I #
loop $-1 $-1 $335 $93 #
coedge $-1 $224 $224 $334 $336 reversed $140 $-1 #
face $-1 $337 $338 $74 $-1 $339 reversed single #
loop $-1 $-1 $340 $142 #
plane-surface $-1 0 0 -99.873653370769375 0 0 1 1 0 0 forward_v I I I I #
coedge $-1 $341 $342 $343 $344 forward $143 $-1 #
face $-1 $-1 $345 $75 $-1 $346 forward single #
loop $-1 $-1 $347 $145 #
plane-surface $-1 0 0 -3.1408581804864646 0 0 -1 -1 0 0 forward_v I I I I #
loop $-1 $-1 $348 $95 #
coedge $-1 $233 $233 $347 $349 reversed $146 $-1 #
face $-1 $350 $351 $76 $-1 $352 reversed single #
loop $-1 $-1 $353 $148 #
plane-surface $-1 0 0 -99.873653370769375 0 0 1 1 0 0 forward_v I I I I #
coedge $-1 $354 $355 $356 $357 forward $149 $-1 #
face $-1 $-1 $358 $77 $-1 $359 forward single #
loop $-1 $-1 $360 $151 #
plane-surface $-1 0 0 -3.1408581804864646 0 0 -1 -1 0 0 forward_v I I I I #
loop $-1 $-1 $361 $97 #
coedge $-1 $242 $242 $360 $362 reversed $152 $-1 #
face $-1 $363 $364 $78 $-1 $365 reversed single #
loop $-1 $-1 $366 $154 #
plane-surface $-1 0 0 -99.873653370769375 0 0 1 1 0 0 forward_v I I I I #
coedge $-1 $367 $368 $369 $370 forward $155 $-1 #
face $-1 $-1 $371 $79 $-1 $372 forward single #
loop $-1 $-1 $373 $157 #
plane-surface $-1 0 0 -3.1408581804864646 0 0 -1 -1 0 0 forward_v I I I I #
loop $-1 $-1 $374 $99 #
coedge $-1 $251 $251 $373 $375 reversed $158 $-1 #
face $-1 $376 $377 $60 $-1 $378 reversed single #
loop $-1 $-1 $379 $160 #
plane-surface $-1 0 -20.556745326430509 0 0 1 0 0 0 1 forward_v I I I I #
coedge $-1 $380 $381 $382 $383 forward $161 $-1 #
coedge $-1 $384 $163 $385 $386 forward $101 $-1 #
coedge $-1 $163 $384 $387 $388 forward $101 $-1 #
coedge $-1 $389 $390 $163 $259 reversed $391 $-1 #
edge $-1 $392 -20.556745326430509 $393 20.556745326430509 $258 $394 forward 7 unknown #
face $-1 $395 $396 $61 $-1 $397 reversed single #
loop $-1 $-1 $398 $164 #
plane-surface $-1 0 -6.4513596976370788 0 0 1 0 0 0 1 forward_v I I I I #
coedge $-1 $399 $400 $401 $402 forward $165 $-1 #
coedge $-1 $403 $167 $404 $405 forward $104 $-1 #
coedge $-1 $167 $403 $406 $407 forward $104 $-1 #
coedge $-1 $408 $409 $167 $267 reversed $410 $-1 #
edge $-1 $411 -6.4513596976370788 $412 6.4513596976370788 $266 $413 forward 7 unknown #
face $-1 $414 $415 $62 $-1 $416 reversed single #
loop $-1 $-1 $417 $168 #
plane-surface $-1 0 -2.8148449213924822 0 0 1 0 0 0 1 forward_v I I I I #
coedge $-1 $418 $419 $420 $421 forward $169 $-1 #
coedge $-1 $422 $171 $423 $424 forward $107 $-1 #
coedge $-1 $171 $422 $425 $426 forward $107 $-1 #
coedge $-1 $427 $428 $171 $275 reversed $429 $-1 #
edge $-1 $430 -2.8148449213924822 $431 2.8148449213924822 $274 $432 forward 7 unknown #
loop $-1 $433 $434 $172 #
cone-surface $-1 0 0 0 0 0 1 0.25 0 0 1 I I -0.70710678118654746 0.70710678118654746 0.25 forward I I I I #
coedge $-1 $278 $278 $176 $280 forward $173 $-1 #
coedge $-1 $279 $279 $434 $435 forward $175 $-1 #
edge $-1 $436 0 $436 6.2831853071796004 $278 $437 forward 7 unknown #
loop $-1 $438 $439 $177 #
cone-surface $-1 0 0 0 0 0 1 0.25 0 0 1 I I -0.70710678118654746 0.70710678118654746 0.25 forward I I I I #
coedge $-1 $283 $283 $181 $285 forward $178 $-1 #
coedge $-1 $284 $284 $439 $440 forward $180 $-1 #
edge $-1 $441 0 $441 6.2831853071796004 $283 $442 forward 7 unknown #
loop $-1 $443 $444 $182 #
cone-surface $-1 0 0 0 0 0 1 0.25 0 0 1 I I -0.70710678118654746 0.70710678118654746 0.25 forward I I I I #
coedge $-1 $288 $288 $186 $290 forward $183 $-1 #
coedge $-1 $289 $289 $444 $445 forward $185 $-1 #
edge $-1 $446 0 $446 6.2831853071796004 $288 $447 forward 7 unknown #
face $-1 $448 $449 $66 $-1 $450 reversed single #
loop $-1 $-1 $451 $187 #
plane-surface $-1 0 -2.8148449213924822 0 0 1 0 0 0 1 forward_v I I I I #
coedge $-1 $452 $453 $454 $455 forward $188 $-1 #
coedge $-1 $456 $190 $457 $458 forward $119 $-1 #
coedge $-1 $190 $456 $459 $460 forward $119 $-1 #
coedge $-1 $461 $462 $190 $298 reversed $463 $-1 #
edge $-1 $464 -2.8148449213924822 $465 2.8148449213924822 $297 $466 forward 7 unknown #
loop $-1 $467 $468 $191 #
cone-surface $-1 0 0 0 0 0 1 0.25 0 0 1 I I -0.70710678118654746 0.70710678118654746 0.25 forward I I I I #
coedge $-1 $301 $301 $195 $303 forward $192 $-1 #
coedge $-1 $302 $302 $468 $469 forward $194 $-1 #
edge $-1 $470 0 $470 6.2831853071796004 $301 $471 forward 7 unknown #
loop $-1 $472 $473 $196 #
cone-surface $-1 0 0 0 0 0 1 0.25 0 0 1 I I -0.70710678118654746 0.70710678118654746 0.25 forward I I I I #
coedge $-1 $306 $306 $200 $308 forward $197 $-1 #
coedge $-1 $307 $307 $473 $474 forward $199 $-1 #
edge $-1 $475 0 $475 6.2831853071796004 $306 $476 forward 7 unknown #
loop $-1 $477 $478 $201 #
cone-surface $-1 0 0 0 0 0 1 0.25 0 0 1 I I -0.70710678118654746 0.70710678118654746 0.25 forward I I I I #
coedge $-1 $311 $311 $205 $313 forward $202 $-1 #
coedge $-1 $312 $312 $478 $479 forward $204 $-1 #
edge $-1 $480 0 $480 6.2831853071796004 $311 $481 forward 7 unknown #
face $-1 $482 $483 $70 $-1 $484 reversed single #
loop $-1 $-1 $485 $206 #
plane-surface $-1 0 -2.8148449213924822 0 0 1 0 0 0 1 forward_v I I I I #
coedge $-1 $486 $487 $488 $489 forward $207 $-1 #
coedge $-1 $490 $209 $491 $492 forward $131 $-1 #
coedge $-1 $209 $490 $493 $494 forward $131 $-1 #
coedge $-1 $495 $496 $209 $321 reversed $497 $-1 #
edge $-1 $498 -2.8148449213924822 $499 2.8148449213924822 $320 $500 forward 7 unknown #
loop $-1 $501 $502 $210 #
cone-surface $-1 0 0 0 0 0 1 0.25 0 0 1 I I -0.70710678118654746 0.70710678118654746 0.25 forward I I I I #
coedge $-1 $324 $324 $214 $326 forward $211 $-1 #
coedge $-1 $325 $325 $502 $503 forward $213 $-1 #
edge $-1 $504 0 $504 6.2831853071796004 $324 $505 forward 7 unknown #
loop $-1 $506 $507 $215 #
cone-surface $-1 0 0 0 0 0 1 0.25 0 0 1 I I -0.70710678118654746 0.70710678118654746 0.25 forward I I I I #
coedge $-1 $329 $329 $219 $331 forward $216 $-1 #
coedge $-1 $330 $330 $507 $508 forward $218 $-1 #
edge $-1 $509 0 $509 6.2831853071796004 $329 $510 forward 7 unknown #
loop $-1 $511 $512 $220 #
cone-surface $-1 0 0 0 0 0 1 0.25 0 0 1 I I -0.70710678118654746 0.70710678118654746 0.25 forward I I I I #
coedge $-1 $334 $334 $224 $336 forward $221 $-1 #
coedge $-1 $335 $335 $512 $513 forward $223 $-1 #
edge $-1 $514 0 $514 6.2831853071796004 $334 $515 forward 7 unknown #
face $-1 $516 $517 $74 $-1 $518 reversed single #
loop $-1 $-1 $519 $225 #
plane-surface $-1 0 -2.972269966846051 0 0 1 0 0 0 1 forward_v I I I I #
coedge $-1 $520 $521 $522 $523 forward $226 $-1 #
coedge $-1 $524 $228 $525 $526 forward $143 $-1 #
coedge $-1 $228 $524 $527 $528 forward $143 $-1 #
coedge $-1 $529 $530 $228 $344 reversed $531 $-1 #
edge $-1 $532 -2.972269966846051 $533 2.972269966846051 $343 $534 forward 7 unknown #
loop $-1 $535 $536 $229 #
cone-surface $-1 0 0 0 0 0 1 0.5 0 0 1 I I -0.70710678118654746 0.70710678118654746 0.5 forward I I I I #
coedge $-1 $347 $347 $233 $349 forward $230 $-1 #
coedge $-1 $348 $348 $536 $537 forward $232 $-1 #
edge $-1 $538 0 $538 6.2831853071796004 $347 $539 forward 7 unknown #
face $-1 $540 $541 $76 $-1 $542 reversed single #
loop $-1 $-1 $543 $234 #
plane-surface $-1 0 -2.972269966846051 0 0 1 0 0 0 1 forward_v I I I I #
coedge $-1 $544 $545 $546 $547 forward $235 $-1 #
coedge $-1 $548 $237 $549 $550 forward $149 $-1 #
coedge $-1 $237 $548 $551 $552 forward $149 $-1 #
coedge $-1 $553 $554 $237 $357 reversed $555 $-1 #
edge $-1 $556 -2.972269966846051 $557 2.972269966846051 $356 $558 forward 7 unknown #
loop $-1 $559 $560 $238 #
cone-surface $-1 0 0 0 0 0 1 0.5 0 0 1 I I -0.70710678118654746 0.70710678118654746 0.5 forward I I I I #
coedge $-1 $360 $360 $242 $362 forward $239 $-1 #
coedge $-1 $361 $361 $560 $561 forward $241 $-1 #
edge $-1 $562 0 $562 6.2831853071796004 $360 $563 forward 7 unknown #
face $-1 $564 $565 $78 $-1 $566 reversed single #
loop $-1 $-1 $567 $243 #
plane-surface $-1 0 -2.972269966846051 0 0 1 0 0 0 1 forward_v I I I I #
coedge $-1 $568 $569 $570 $571 forward $244 $-1 #
coedge $-1 $572 $246 $573 $574 forward $155 $-1 #
coedge $-1 $246 $572 $575 $576 forward $155 $-1 #
coedge $-1 $577 $578 $246 $370 reversed $579 $-1 #
edge $-1 $580 -2.972269966846051 $581 2.972269966846051 $369 $582 forward 7 unknown #
loop $-1 $583 $584 $247 #
cone-surface $-1 0 0 0 0 0 1 0.5 0 0 1 I I -0.70710678118654746 0.70710678118654746 0.5 forward I I I I #
coedge $-1 $373 $373 $251 $375 forward $248 $-1 #
coedge $-1 $374 $374 $584 $585 forward $250 $-1 #
edge $-1 $586 0 $586 6.2831853071796004 $373 $587 forward 7 unknown #
face $-1 $588 $589 $60 $-1 $590 reversed single #
loop $-1 $-1 $591 $252 #
plane-surface $-1 -49.936826685384688 0 0 1 0 0 0 0 -1 forward_v I I I I #
coedge $-1 $592 $387 $593 $594 forward $253 $-1 #
coedge $-1 $595 $255 $592 $596 forward $161 $-1 #
coedge $-1 $255 $595 $597 $598 forward $161 $-1 #
coedge $-1 $390 $389 $255 $383 reversed $391 $-1 #
edge $-1 $599 -20.556745326430509 $600 20.556745326430509 $382 $601 forward 7 unknown #
coedge $-1 $257 $256 $602 $603 forward $101 $-1 #
coedge $-1 $604 $605 $256 $386 reversed $589 $-1 #
edge $-1 $393 -49.936826685384688 $606 49.936826685384688 $385 $607 forward 7 unknown #
coedge $-1 $379 $608 $257 $388 reversed $253 $-1 #
edge $-1 $609 -49.936826685384688 $392 49.936826685384688 $387 $610 forward 7 unknown #
coedge $-1 $382 $258 $608 $611 forward $391 $-1 #
coedge $-1 $258 $382 $604 $612 reversed $391 $-1 #
loop $-1 $-1 $389 $588 #
vertex $-1 $259 $613 #
vertex $-1 $259 $614 #
straight-curve $-1 49.936826685384688 0 10.113690341117168 0 1 0 I I #
face $-1 $615 $616 $61 $-1 $617 reversed single #
loop $-1 $-1 $618 $260 #
plane-surface $-1 -49.936826685384688 0 0 1 0 0 0 0 -1 forward_v I I I I #
coedge $-1 $619 $406 $620 $621 forward $261 $-1 #
coedge $-1 $622 $263 $619 $623 forward $165 $-1 #
coedge $-1 $263 $622 $624 $625 forward $165 $-1 #
coedge $-1 $409 $408 $263 $402 reversed $410 $-1 #
edge $-1 $626 -6.4513596976370788 $627 6.4513596976370788 $401 $628 forward 7 unknown #
coedge $-1 $265 $264 $629 $630 forward $104 $-1 #
coedge $-1 $631 $632 $264 $405 reversed $616 $-1 #
edge $-1 $412 -49.936826685384688 $633 49.936826685384688 $404 $634 forward 7 unknown #
coedge $-1 $398 $635 $265 $407 reversed $261 $-1 #
edge $-1 $636 -49.936826685384688 $411 49.936826685384688 $406 $637 forward 7 unknown #
coedge $-1 $401 $266 $635 $638 forward $410 $-1 #
coedge $-1 $266 $401 $631 $639 reversed $410 $-1 #
loop $-1 $-1 $408 $615 #
vertex $-1 $267 $640 #
vertex $-1 $267 $641 #
straight-curve $-1 49.936826685384688 0 1.5000000000000009 0 1 0 I I #
face $-1 $642 $643 $62 $-1 $644 reversed single #
loop $-1 $-1 $645 $268 #
plane-surface $-1 -199.74730674153875 0 0 1 0 0 0 0 -1 forward_v I I I I #
coedge $-1 $646 $425 $647 $648 forward $269 $-1 #
coedge $-1 $649 $271 $646 $650 forward $169 $-1 #
coedge $-1 $271 $649 $651 $652 forward $169 $-1 #
coedge $-1 $428 $427 $271 $421 reversed $429 $-1 #
edge $-1 $653 -2.8148449213924822 $654 2.8148449213924822 $420 $655 forward 7 unknown #
coedge $-1 $273 $272 $656 $657 forward $107 $-1 #
coedge $-1 $658 $659 $272 $424 reversed $643 $-1 #
edge $-1 $431 -199.74730674153875 $660 199.74730674153875 $423 $661 forward 7 unknown #
coedge $-1 $417 $662 $273 $426 reversed $269 $-1 #
edge $-1 $663 -199.74730674153875 $430 199.74730674153875 $425 $664 forward 7 unknown #
coedge $-1 $420 $274 $662 $665 forward $429 $-1 #
coedge $-1 $274 $420 $658 $666 reversed $429 $-1 #
loop $-1 $-1 $427 $642 #
vertex $-1 $275 $667 #
vertex $-1 $275 $668 #
straight-curve $-1 199.74730674153875 0 99.873653370769375 0 1 0 I I #
loop $-1 $-1 $669 $172 #
coedge $-1 $434 $434 $279 $435 reversed $276 $-1 #
edge $-1 $670 0 $670 6.2831853071796004 $434 $671 forward 7 unknown #
vertex $-1 $280 $672 #
ellipse-curve $-1 0 0 -1.25 0 0 -1 0.5 0 0 1 I I #
loop $-1 $-1 $673 $177 #
coedge $-1 $439 $439 $284 $440 reversed $281 $-1 #
edge $-1 $674 0 $674 6.2831853071796004 $439 $675 forward 7 unknown #
vertex $-1 $285 $676 #
ellipse-curve $-1 0 0 -1.25 0 0 -1 0.5 0 0 1 I I #
loop $-1 $-1 $677 $182 #
coedge $-1 $444 $444 $289 $445 reversed $286 $-1 #
edge $-1 $678 0 $678 6.2831853071796004 $444 $679 forward 7 unknown #
vertex $-1 $290 $680 #
ellipse-curve $-1 0 0 -1.25 0 0 -1 0.5 0 0 1 I I #
face $-1 $681 $682 $66 $-1 $683 reversed single #
loop $-1 $-1 $684 $291 #
plane-surface $-1 -199.74730674153875 0 0 1 0 0 0 0 -1 forward_v I I I I #
coedge $-1 $685 $459 $686 $687 forward $292 $-1 #
coedge $-1 $688 $294 $685 $689 forward $188 $-1 #
coedge $-1 $294 $688 $690 $691 forward $188 $-1 #
coedge $-1 $462 $461 $294 $455 reversed $463 $-1 #
edge $-1 $692 -2.8148449213924822 $693 2.8148449213924822 $454 $694 forward 7 unknown #
coedge $-1 $296 $295 $695 $696 forward $119 $-1 #
coedge $-1 $697 $698 $295 $458 reversed $682 $-1 #
edge $-1 $465 -199.74730674153875 $699 199.74730674153875 $457 $700 forward 7 unknown #
coedge $-1 $451 $701 $296 $460 reversed $292 $-1 #
edge $-1 $702 -199.74730674153875 $464 199.74730674153875 $459 $703 forward 7 unknown #
coedge $-1 $454 $297 $701 $704 forward $463 $-1 #
coedge $-1 $297 $454 $697 $705 reversed $463 $-1 #
loop $-1 $-1 $461 $681 #
vertex $-1 $298 $706 #
vertex $-1 $298 $707 #
straight-curve $-1 199.74730674153875 0 99.873653370769375 0 1 0 I I #
loop $-1 $-1 $708 $191 #
coedge $-1 $468 $468 $302 $469 reversed $299 $-1 #
edge $-1 $709 0 $709 6.2831853071796004 $468 $710 forward 7 unknown #
vertex $-1 $303 $711 #
ellipse-curve $-1 0 0 -1.25 0 0 -1 0.5 0 0 1 I I #
loop $-1 $-1 $712 $196 #
coedge $-1 $473 $473 $307 $474 reversed $304 $-1 #
edge $-1 $713 0 $713 6.2831853071796004 $473 $714 forward 7 unknown #
vertex $-1 $308 $715 #
ellipse-curve $-1 0 0 -1.25 0 0 -1 0.5 0 0 1 I I #
loop $-1 $-1 $716 $201 #
coedge $-1 $478 $478 $312 $479 reversed $309 $-1 #
edge $-1 $717 0 $717 6.2831853071796004 $478 $718 forward 7 unknown #
vertex $-1 $313 $719 #
ellipse-curve $-1 0 0 -1.25 0 0 -1 0.5 0 0 1 I I #
face $-1 $720 $721 $70 $-1 $722 reversed single #
loop $-1 $-1 $723 $314 #
plane-surface $-1 -199.74730674153875 0 0 1 0 0 0 0 -1 forward_v I I I I #
coedge $-1 $724 $493 $725 $726 forward $315 $-1 #
coedge $-1 $727 $317 $724 $728 forward $207 $-1 #
coedge $-1 $317 $727 $729 $730 forward $207 $-1 #
coedge $-1 $496 $495 $317 $489 reversed $497 $-1 #
edge $-1 $731 -2.8148449213924822 $732 2.8148449213924822 $488 $733 forward 7 unknown #
coedge $-1 $319 $318 $734 $735 forward $131 $-1 #
coedge $-1 $736 $737 $318 $492 reversed $721 $-1 #
edge $-1 $499 -199.74730674153875 $738 199.74730674153875 $491 $739 forward 7 unknown #
coedge $-1 $485 $740 $319 $494 reversed $315 $-1 #
edge $-1 $741 -199.74730674153875 $498 199.74730674153875 $493 $742 forward 7 unknown #
coedge $-1 $488 $320 $740 $743 forward $497 $-1 #
coedge $-1 $320 $488 $736 $744 reversed $497 $-1 #
loop $-1 $-1 $495 $720 #
vertex $-1 $321 $745 #
vertex $-1 $321 $746 #
straight-curve $-1 199.74730674153875 0 99.873653370769375 0 1 0 I I #
loop $-1 $-1 $747 $210 #
coedge $-1 $502 $502 $325 $503 reversed $322 $-1 #
edge $-1 $748 0 $748 6.2831853071796004 $502 $749 forward 7 unknown #
vertex $-1 $326 $750 #
ellipse-curve $-1 0 0 -1.25 0 0 -1 0.5 0 0 1 I I #
loop $-1 $-1 $751 $215 #
coedge $-1 $507 $507 $330 $508 reversed $327 $-1 #
edge $-1 $752 0 $752 6.2831853071796004 $507 $753 forward 7 unknown #
vertex $-1 $331 $754 #
ellipse-curve $-1 0 0 -1.25 0 0 -1 0.5 0 0 1 I I #
loop $-1 $-1 $755 $220 #
coedge $-1 $512 $512 $335 $513 reversed $332 $-1 #
edge $-1 $756 0 $756 6.2831853071796004 $512 $757 forward 7 unknown #
vertex $-1 $336 $758 #
ellipse-curve $-1 0 0 -1.25 0 0 -1 0.5 0 0 1 I I #
face $-1 $759 $760 $74 $-1 $761 reversed single #
loop $-1 $-1 $762 $337 #
plane-surface $-1 -199.74730674153875 0 0 1 0 0 0 0 -1 forward_v I I I I #
coedge $-1 $763 $527 $764 $765 forward $338 $-1 #
coedge $-1 $766 $340 $763 $767 forward $226 $-1 #
coedge $-1 $340 $766 $768 $769 forward $226 $-1 #
coedge $-1 $530 $529 $340 $523 reversed $531 $-1 #
edge $-1 $770 -2.972269966846051 $771 2.972269966846051 $522 $772 forward 7 unknown #
coedge $-1 $342 $341 $773 $774 forward $143 $-1 #
coedge $-1 $775 $776 $341 $526 reversed $760 $-1 #
edge $-1 $533 -199.74730674153875 $777 199.74730674153875 $525 $778 forward 7 unknown #
coedge $-1 $519 $779 $342 $528 reversed $338 $-1 #
edge $-1 $780 -199.74730674153875 $532 199.74730674153875 $527 $781 forward 7 unknown #
coedge $-1 $522 $343 $779 $782 forward $531 $-1 #
coedge $-1 $343 $522 $775 $783 reversed $531 $-1 #
loop $-1 $-1 $529 $759 #
vertex $-1 $344 $784 #
vertex $-1 $344 $785 #
straight-curve $-1 199.74730674153875 0 99.873653370769375 0 1 0 I I #
loop $-1 $-1 $786 $229 #
coedge $-1 $536 $536 $348 $537 reversed $345 $-1 #
edge $-1 $787 0 $787 6.2831853071796004 $536 $788 forward 7 unknown #
vertex $-1 $349 $789 #
ellipse-curve $-1 0 0 -3.1408581804864646 0 0 -1 1 0 0 1 I I #
face $-1 $790 $791 $76 $-1 $792 reversed single #
loop $-1 $-1 $793 $350 #
plane-surface $-1 -199.74730674153875 0 0 1 0 0 0 0 -1 forward_v I I I I #
coedge $-1 $794 $551 $795 $796 forward $351 $-1 #
coedge $-1 $797 $353 $794 $798 forward $235 $-1 #
coedge $-1 $353 $797 $799 $800 forward $235 $-1 #
coedge $-1 $554 $553 $353 $547 reversed $555 $-1 #
edge $-1 $801 -2.972269966846051 $802 2.972269966846051 $546 $803 forward 7 unknown #
coedge $-1 $355 $354 $804 $805 forward $149 $-1 #
coedge $-1 $806 $807 $354 $550 reversed $791 $-1 #
edge $-1 $557 -199.74730674153875 $808 199.74730674153875 $549 $809 forward 7 unknown #
coedge $-1 $543 $810 $355 $552 reversed $351 $-1 #
edge $-1 $811 -199.74730674153875 $556 199.74730674153875 $551 $812 forward 7 unknown #
coedge $-1 $546 $356 $810 $813 forward $555 $-1 #
coedge $-1 $356 $546 $806 $814 reversed $555 $-1 #
loop $-1 $-1 $553 $790 #
vertex $-1 $357 $815 #
vertex $-1 $357 $816 #
straight-curve $-1 199.74730674153875 0 99.873653370769375 0 1 0 I I #
loop $-1 $-1 $817 $238 #
coedge $-1 $560 $560 $361 $561 reversed $358 $-1 #
edge $-1 $818 0 $818 6.2831853071796004 $560 $819 forward 7 unknown #
vertex $-1 $362 $820 #
ellipse-curve $-1 0 0 -3.1408581804864646 0 0 -1 1 0 0 1 I I #
face $-1 $821 $822 $78 $-1 $823 reversed single #
loop $-1 $-1 $824 $363 #
plane-surface $-1 -199.74730674153875 0 0 1 0 0 0 0 -1 forward_v I I I I #
coedge $-1 $825 $575 $826 $827 forward $364 $-1 #
coedge $-1 $828 $366 $825 $829 forward $244 $-1 #
coedge $-1 $366 $828 $830 $831 forward $244 $-1 #
coedge $-1 $578 $577 $366 $571 reversed $579 $-1 #
edge $-1 $832 -2.972269966846051 $833 2.972269966846051 $570 $834 forward 7 unknown #
coedge $-1 $368 $367 $835 $836 forward $155 $-1 #
coedge $-1 $837 $838 $367 $574 reversed $822 $-1 #
edge $-1 $581 -199.74730674153875 $839 199.74730674153875 $573 $840 forward 7 unknown #
coedge $-1 $567 $841 $368 $576 reversed $364 $-1 #
edge $-1 $842 -199.74730674153875 $580 199.74730674153875 $575 $843 forward 7 unknown #
coedge $-1 $570 $369 $841 $844 forward $579 $-1 #
coedge $-1 $369 $570 $837 $845 reversed $579 $-1 #
loop $-1 $-1 $577 $821 #
vertex $-1 $370 $846 #
vertex $-1 $370 $847 #
straight-curve $-1 199.74730674153875 0 99.873653370769375 0 1 0 I I #
loop $-1 $-1 $848 $247 #
coedge $-1 $584 $584 $374 $585 reversed $371 $-1 #
edge $-1 $849 0 $849 6.2831853071796004 $584 $850 forward 7 unknown #
vertex $-1 $375 $851 #
ellipse-curve $-1 0 0 -3.1408581804864646 0 0 -1 1 0 0 1 I I #
face $-1 $-1 $391 $60 $-1 $852 reversed single #
loop $-1 $-1 $604 $376 #
plane-surface $-1 0 20.556745326430509 0 0 -1 0 0 0 -1 forward_v I I I I #
coedge $-1 $853 $602 $605 $854 forward $377 $-1 #
coedge $-1 $608 $379 $380 $596 reversed $253 $-1 #
coedge $-1 $602 $853 $379 $594 reversed $377 $-1 #
edge $-1 $609 -10.113690341117168 $855 10.113690341117168 $593 $856 forward 7 unknown #
coedge $-1 $381 $380 $853 $857 forward $161 $-1 #
edge $-1 $600 -49.936826685384688 $855 49.936826685384688 $592 $858 forward 7 unknown #
coedge $-1 $605 $604 $381 $598 reversed $589 $-1 #
edge $-1 $859 -49.936826685384688 $599 49.936826685384688 $597 $860 forward 7 unknown #
vertex $-1 $383 $861 #
vertex $-1 $611 $862 #
straight-curve $-1 49.936826685384688 0 -10.113690341117168 0 -1 0 I I #
coedge $-1 $591 $593 $384 $603 reversed $377 $-1 #
edge $-1 $606 -20.556745326430509 $609 20.556745326430509 $602 $863 forward 7 unknown #
coedge $-1 $597 $385 $390 $612 forward $589 $-1 #
coedge $-1 $385 $597 $591 $854 reversed $589 $-1 #
vertex $-1 $386 $864 #
straight-curve $-1 0 20.556745326430509 10.113690341117168 -1 0 0 I I #
coedge $-1 $387 $592 $389 $611 reversed $253 $-1 #
vertex $-1 $603 $865 #
straight-curve $-1 0 -20.556745326430509 10.113690341117168 1 0 0 I I #
edge $-1 $392 -10.113690341117168 $600 10.113690341117168 $389 $866 forward 7 unknown #
edge $-1 $393 -10.113690341117168 $599 10.113690341117168 $390 $867 forward 7 unknown #
point $-1 49.936826685384688 -20.556745326430509 10.113690341117168 #
point $-1 49.936826685384688 20.556745326430509 10.113690341117168 #
face $-1 $-1 $410 $61 $-1 $868 reversed single #
loop $-1 $-1 $631 $395 #
plane-surface $-1 0 6.4513596976370788 0 0 -1 0 0 0 -1 forward_v I I I I #
coedge $-1 $869 $629 $632 $870 forward $396 $-1 #
coedge $-1 $635 $398 $399 $623 reversed $261 $-1 #
coedge $-1 $629 $869 $398 $621 reversed $396 $-1 #
edge $-1 $636 -1.5000000000000009 $871 1.5000000000000009 $620 $872 forward 7 unknown #
coedge $-1 $400 $399 $869 $873 forward $165 $-1 #
edge $-1 $627 -49.936826685384688 $871 49.936826685384688 $619 $874 forward 7 unknown #
coedge $-1 $632 $631 $400 $625 reversed $616 $-1 #
edge $-1 $875 -49.936826685384688 $626 49.936826685384688 $624 $876 forward 7 unknown #
vertex $-1 $402 $877 #
vertex $-1 $638 $878 #
straight-curve $-1 49.936826685384688 0 -1.5000000000000009 0 -1 0 I I #
coedge $-1 $618 $620 $403 $630 reversed $396 $-1 #
edge $-1 $633 -6.4513596976370788 $636 6.4513596976370788 $629 $879 forward 7 unknown #
coedge $-1 $624 $404 $409 $639 forward $616 $-1 #
coedge $-1 $404 $624 $618 $870 reversed $616 $-1 #
vertex $-1 $405 $880 #
straight-curve $-1 0 6.4513596976370788 1.5000000000000009 -1 0 0 I I #
coedge $-1 $406 $619 $408 $638 reversed $261 $-1 #
vertex $-1 $630 $881 #
straight-curve $-1 0 -6.4513596976370788 1.5000000000000009 1 0 0 I I #
edge $-1 $411 -1.5000000000000009 $627 1.5000000000000009 $408 $882 forward 7 unknown #
edge $-1 $412 -1.5000000000000009 $626 1.5000000000000009 $409 $883 forward 7 unknown #
point $-1 49.936826685384688 -6.4513596976370788 1.5000000000000009 #
point $-1 49.936826685384688 6.4513596976370788 1.5000000000000009 #
face $-1 $-1 $429 $62 $-1 $884 reversed single #
loop $-1 $-1 $658 $414 #
plane-surface $-1 0 2.8148449213924822 0 0 -1 0 0 0 -1 forward_v I I I I #
coedge $-1 $885 $656 $659 $886 forward $415 $-1 #
coedge $-1 $662 $417 $418 $650 reversed $269 $-1 #
coedge $-1 $656 $885 $417 $648 reversed $415 $-1 #
edge $-1 $663 -99.873653370769375 $887 99.873653370769375 $647 $888 forward 7 unknown #
coedge $-1 $419 $418 $885 $889 forward $169 $-1 #
edge $-1 $654 -199.74730674153875 $887 199.74730674153875 $646 $890 forward 7 unknown #
coedge $-1 $659 $658 $419 $652 reversed $643 $-1 #
edge $-1 $891 -199.74730674153875 $653 199.74730674153875 $651 $892 forward 7 unknown #
vertex $-1 $421 $893 #
vertex $-1 $665 $894 #
straight-curve $-1 199.74730674153875 0 -99.873653370769375 0 -1 0 I I #
coedge $-1 $645 $647 $422 $657 reversed $415 $-1 #
edge $-1 $660 -2.8148449213924822 $663 2.8148449213924822 $656 $895 forward 7 unknown #
coedge $-1 $651 $423 $428 $666 forward $643 $-1 #
coedge $-1 $423 $651 $645 $886 reversed $643 $-1 #
vertex $-1 $424 $896 #
straight-curve $-1 0 2.8148449213924822 99.873653370769375 -1 0 0 I I #
coedge $-1 $425 $646 $427 $665 reversed $269 $-1 #
vertex $-1 $657 $897 #
straight-curve $-1 0 -2.8148449213924822 99.873653370769375 1 0 0 I I #
edge $-1 $430 -99.873653370769375 $654 99.873653370769375 $427 $898 forward 7 unknown #
edge $-1 $431 -99.873653370769375 $653 99.873653370769375 $428 $899 forward 7 unknown #
point $-1 199.74730674153875 -2.8148449213924822 99.873653370769375 #
point $-1 199.74730674153875 2.8148449213924822 99.873653370769375 #
coedge $-1 $669 $669 $-1 $900 reversed $433 $-1 #
vertex $-1 $435 $901 #
ellipse-curve $-1 0 0 -0.25 0 0 -1 0.5 0 0 1 I I #
point $-1 0.5 0 -1.25 #
coedge $-1 $673 $673 $-1 $902 reversed $438 $-1 #
vertex $-1 $440 $903 #
ellipse-curve $-1 0 0 -0.25 0 0 -1 0.5 0 0 1 I I #
point $-1 0.5 0 -1.25 #
coedge $-1 $677 $677 $-1 $904 reversed $443 $-1 #
vertex $-1 $445 $905 #
ellipse-curve $-1 0 0 -0.25 0 0 -1 0.5 0 0 1 I I #
point $-1 0.5 0 -1.25 #
face $-1 $-1 $463 $66 $-1 $906 reversed single #
loop $-1 $-1 $697 $448 #
plane-surface $-1 0 2.8148449213924822 0 0 -1 0 0 0 -1 forward_v I I I I #
coedge $-1 $907 $695 $698 $908 forward $449 $-1 #
coedge $-1 $701 $451 $452 $689 reversed $292 $-1 #
coedge $-1 $695 $907 $451 $687 reversed $449 $-1 #
edge $-1 $702 -99.873653370769375 $909 99.873653370769375 $686 $910 forward 7 unknown #
coedge $-1 $453 $452 $907 $911 forward $188 $-1 #
edge $-1 $693 -199.74730674153875 $909 199.74730674153875 $685 $912 forward 7 unknown #
coedge $-1 $698 $697 $453 $691 reversed $682 $-1 #
edge $-1 $913 -199.74730674153875 $692 199.74730674153875 $690 $914 forward 7 unknown #
vertex $-1 $455 $915 #
vertex $-1 $704 $916 #
straight-curve $-1 199.74730674153875 0 -99.873653370769375 0 -1 0 I I #
coedge $-1 $684 $686 $456 $696 reversed $449 $-1 #
edge $-1 $699 -2.8148449213924822 $702 2.8148449213924822 $695 $917 forward 7 unknown #
coedge $-1 $690 $457 $462 $705 forward $682 $-1 #
coedge $-1 $457 $690 $684 $908 reversed $682 $-1 #
vertex $-1 $458 $918 #
straight-curve $-1 0 2.8148449213924822 99.873653370769375 -1 0 0 I I #
coedge $-1 $459 $685 $461 $704 reversed $292 $-1 #
vertex $-1 $696 $919 #
straight-curve $-1 0 -2.8148449213924822 99.873653370769375 1 0 0 I I #
edge $-1 $464 -99.873653370769375 $693 99.873653370769375 $461 $920 forward 7 unknown #
edge $-1 $465 -99.873653370769375 $692 99.873653370769375 $462 $921 forward 7 unknown #
point $-1 199.74730674153875 -2.8148449213924822 99.873653370769375 #
point $-1 199.74730674153875 2.8148449213924822 99.873653370769375 #
coedge $-1 $708 $708 $-1 $922 reversed $467 $-1 #
vertex $-1 $469 $923 #
ellipse-curve $-1 0 0 -0.25 0 0 -1 0.5 0 0 1 I I #
point $-1 0.5 0 -1.25 #
coedge $-1 $712 $712 $-1 $924 reversed $472 $-1 #
vertex $-1 $474 $925 #
ellipse-curve $-1 0 0 -0.25 0 0 -1 0.5 0 0 1 I I #
point $-1 0.5 0 -1.25 #
coedge $-1 $716 $716 $-1 $926 reversed $477 $-1 #
vertex $-1 $479 $927 #
ellipse-curve $-1 0 0 -0.25 0 0 -1 0.5 0 0 1 I I #
point $-1 0.5 0 -1.25 #
face $-1 $-1 $497 $70 $-1 $928 reversed single #
loop $-1 $-1 $736 $482 #
plane-surface $-1 0 2.8148449213924822 0 0 -1 0 0 0 -1 forward_v I I I I #
coedge $-1 $929 $734 $737 $930 forward $483 $-1 #
coedge $-1 $740 $485 $486 $728 reversed $315 $-1 #
coedge $-1 $734 $929 $485 $726 reversed $483 $-1 #
edge $-1 $741 -99.873653370769375 $931 99.873653370769375 $725 $932 forward 7 unknown #
coedge $-1 $487 $486 $929 $933 forward $207 $-1 #
edge $-1 $732 -199.74730674153875 $931 199.74730674153875 $724 $934 forward 7 unknown #
coedge $-1 $737 $736 $487 $730 reversed $721 $-1 #
edge $-1 $935 -199.74730674153875 $731 199.74730674153875 $729 $936 forward 7 unknown #
vertex $-1 $489 $937 #
vertex $-1 $743 $938 #
straight-curve $-1 199.74730674153875 0 -99.873653370769375 0 -1 0 I I #
coedge $-1 $723 $725 $490 $735 reversed $483 $-1 #
edge $-1 $738 -2.8148449213924822 $741 2.8148449213924822 $734 $939 forward 7 unknown #
coedge $-1 $729 $491 $496 $744 forward $721 $-1 #
coedge $-1 $491 $729 $723 $930 reversed $721 $-1 #
vertex $-1 $492 $940 #
straight-curve $-1 0 2.8148449213924822 99.873653370769375 -1 0 0 I I #
coedge $-1 $493 $724 $495 $743 reversed $315 $-1 #
vertex $-1 $735 $941 #
straight-curve $-1 0 -2.8148449213924822 99.873653370769375 1 0 0 I I #
edge $-1 $498 -99.873653370769375 $732 99.873653370769375 $495 $942 forward 7 unknown #
edge $-1 $499 -99.873653370769375 $731 99.873653370769375 $496 $943 forward 7 unknown #
point $-1 199.74730674153875 -2.8148449213924822 99.873653370769375 #
point $-1 199.74730674153875 2.8148449213924822 99.873653370769375 #
coedge $-1 $747 $747 $-1 $944 reversed $501 $-1 #
vertex $-1 $503 $945 #
ellipse-curve $-1 0 0 -0.25 0 0 -1 0.5 0 0 1 I I #
point $-1 0.5 0 -1.25 #
coedge $-1 $751 $751 $-1 $946 reversed $506 $-1 #
vertex $-1 $508 $947 #
ellipse-curve $-1 0 0 -0.25 0 0 -1 0.5 0 0 1 I I #
point $-1 0.5 0 -1.25 #
coedge $-1 $755 $755 $-1 $948 reversed $511 $-1 #
vertex $-1 $513 $949 #
ellipse-curve $-1 0 0 -0.25 0 0 -1 0.5 0 0 1 I I #
point $-1 0.5 0 -1.25 #
face $-1 $-1 $531 $74 $-1 $950 reversed single #
loop $-1 $-1 $775 $516 #
plane-surface $-1 0 2.972269966846051 0 0 -1 0 0 0 -1 forward_v I I I I #
coedge $-1 $951 $773 $776 $952 forward $517 $-1 #
coedge $-1 $779 $519 $520 $767 reversed $338 $-1 #
coedge $-1 $773 $951 $519 $765 reversed $517 $-1 #
edge $-1 $780 -99.873653370769375 $953 99.873653370769375 $764 $954 forward 7 unknown #
coedge $-1 $521 $520 $951 $955 forward $226 $-1 #
edge $-1 $771 -199.74730674153875 $953 199.74730674153875 $763 $956 forward 7 unknown #
coedge $-1 $776 $775 $521 $769 reversed $760 $-1 #
edge $-1 $957 -199.74730674153875 $770 199.74730674153875 $768 $958 forward 7 unknown #
vertex $-1 $523 $959 #
vertex $-1 $782 $960 #
straight-curve $-1 199.74730674153875 0 -99.873653370769375 0 -1 0 I I #
coedge $-1 $762 $764 $524 $774 reversed $517 $-1 #
edge $-1 $777 -2.972269966846051 $780 2.972269966846051 $773 $961 forward 7 unknown #
coedge $-1 $768 $525 $530 $783 forward $760 $-1 #
coedge $-1 $525 $768 $762 $952 reversed $760 $-1 #
vertex $-1 $526 $962 #
straight-curve $-1 0 2.972269966846051 99.873653370769375 -1 0 0 I I #
coedge $-1 $527 $763 $529 $782 reversed $338 $-1 #
vertex $-1 $774 $963 #
straight-curve $-1 0 -2.972269966846051 99.873653370769375 1 0 0 I I #
edge $-1 $532 -99.873653370769375 $771 99.873653370769375 $529 $964 forward 7 unknown #
edge $-1 $533 -99.873653370769375 $770 99.873653370769375 $530 $965 forward 7 unknown #
point $-1 199.74730674153875 -2.972269966846051 99.873653370769375 #
point $-1 199.74730674153875 2.972269966846051 99.873653370769375 #
coedge $-1 $786 $786 $-1 $966 reversed $535 $-1 #
vertex $-1 $537 $967 #
ellipse-curve $-1 0 0 -0.5 0 0 -1 1 0 0 1 I I #
point $-1 1 0 -3.1408581804864646 #
face $-1 $-1 $555 $76 $-1 $968 reversed single #
loop $-1 $-1 $806 $540 #
plane-surface $-1 0 2.972269966846051 0 0 -1 0 0 0 -1 forward_v I I I I #
coedge $-1 $969 $804 $807 $970 forward $541 $-1 #
coedge $-1 $810 $543 $544 $798 reversed $351 $-1 #
coedge $-1 $804 $969 $543 $796 reversed $541 $-1 #
edge $-1 $811 -99.873653370769375 $971 99.873653370769375 $795 $972 forward 7 unknown #
coedge $-1 $545 $544 $969 $973 forward $235 $-1 #
edge $-1 $802 -199.74730674153875 $971 199.74730674153875 $794 $974 forward 7 unknown #
coedge $-1 $807 $806 $545 $800 reversed $791 $-1 #
edge $-1 $975 -199.74730674153875 $801 199.74730674153875 $799 $976 forward 7 unknown #
vertex $-1 $547 $977 #
vertex $-1 $813 $978 #
straight-curve $-1 199.74730674153875 0 -99.873653370769375 0 -1 0 I I #
coedge $-1 $793 $795 $548 $805 reversed $541 $-1 #
edge $-1 $808 -2.972269966846051 $811 2.972269966846051 $804 $979 forward 7 unknown #
coedge $-1 $799 $549 $554 $814 forward $791 $-1 #
coedge $-1 $549 $799 $793 $970 reversed $791 $-1 #
vertex $-1 $550 $980 #
straight-curve $-1 0 2.972269966846051 99.873653370769375 -1 0 0 I I #
coedge $-1 $551 $794 $553 $813 reversed $351 $-1 #
vertex $-1 $805 $981 #
straight-curve $-1 0 -2.972269966846051 99.873653370769375 1 0 0 I I #
edge $-1 $556 -99.873653370769375 $802 99.873653370769375 $553 $982 forward 7 unknown #
edge $-1 $557 -99.873653370769375 $801 99.873653370769375 $554 $983 forward 7 unknown #
point $-1 199.74730674153875 -2.972269966846051 99.873653370769375 #
point $-1 199.74730674153875 2.972269966846051 99.873653370769375 #
coedge $-1 $817 $817 $-1 $984 reversed $559 $-1 #
vertex $-1 $561 $985 #
ellipse-curve $-1 0 0 -0.5 0 0 -1 1 0 0 1 I I #
point $-1 1 0 -3.1408581804864646 #
face $-1 $-1 $579 $78 $-1 $986 reversed single #
loop $-1 $-1 $837 $564 #
plane-surface $-1 0 2.972269966846051 0 0 -1 0 0 0 -1 forward_v I I I I #
coedge $-1 $987 $835 $838 $988 forward $565 $-1 #
coedge $-1 $841 $567 $568 $829 reversed $364 $-1 #
coedge $-1 $835 $987 $567 $827 reversed $565 $-1 #
edge $-1 $842 -99.873653370769375 $989 99.873653370769375 $826 $990 forward 7 unknown #
coedge $-1 $569 $568 $987 $991 forward $244 $-1 #
edge $-1 $833 -199.74730674153875 $989 199.74730674153875 $825 $992 forward 7 unknown #
coedge $-1 $838 $837 $569 $831 reversed $822 $-1 #
edge $-1 $993 -199.74730674153875 $832 199.74730674153875 $830 $994 forward 7 unknown #
vertex $-1 $571 $995 #
vertex $-1 $844 $996 #
straight-curve $-1 199.74730674153875 0 -99.873653370769375 0 -1 0 I I #
coedge $-1 $824 $826 $572 $836 reversed $565 $-1 #
edge $-1 $839 -2.972269966846051 $842 2.972269966846051 $835 $997 forward 7 unknown #
coedge $-1 $830 $573 $578 $845 forward $822 $-1 #
coedge $-1 $573 $830 $824 $988 reversed $822 $-1 #
vertex $-1 $574 $998 #
straight-curve $-1 0 2.972269966846051 99.873653370769375 -1 0 0 I I #
coedge $-1 $575 $825 $577 $844 reversed $364 $-1 #
vertex $-1 $836 $999 #
straight-curve $-1 0 -2.972269966846051 99.873653370769375 1 0 0 I I #
edge $-1 $580 -99.873653370769375 $833 99.873653370769375 $577 $1000 forward 7 unknown #
edge $-1 $581 -99.873653370769375 $832 99.873653370769375 $578 $1001 forward 7 unknown #
point $-1 199.74730674153875 -2.972269966846051 99.873653370769375 #
point $-1 199.74730674153875 2.972269966846051 99.873653370769375 #
coedge $-1 $848 $848 $-1 $1002 reversed $583 $-1 #
vertex $-1 $585 $1003 #
ellipse-curve $-1 0 0 -0.5 0 0 -1 1 0 0 1 I I #
point $-1 1 0 -3.1408581804864646 #
plane-surface $-1 49.936826685384688 0 0 -1 0 0 0 0 1 forward_v I I I I #
coedge $-1 $593 $591 $595 $857 reversed $377 $-1 #
edge $-1 $606 -10.113690341117168 $859 10.113690341117168 $605 $1004 forward 7 unknown #
vertex $-1 $857 $1005 #
straight-curve $-1 -49.936826685384688 -20.556745326430509 0 0 0 -1 I I #
edge $-1 $855 -20.556745326430509 $859 20.556745326430509 $853 $1006 forward 7 unknown #
straight-curve $-1 0 -20.556745326430509 -10.113690341117168 -1 0 0 I I #
vertex $-1 $598 $1007 #
straight-curve $-1 0 20.556745326430509 -10.113690341117168 1 0 0 I I #
point $-1 49.936826685384688 20.556745326430509 -10.113690341117168 #
point $-1 49.936826685384688 -20.556745326430509 -10.113690341117168 #
straight-curve $-1 -49.936826685384688 0 10.113690341117168 0 -1 0 I I #
point $-1 -49.936826685384688 20.556745326430509 10.113690341117168 #
point $-1 -49.936826685384688 -20.556745326430509 10.113690341117168 #
straight-curve $-1 49.936826685384688 -20.556745326430509 0 0 0 -1 I I #
straight-curve $-1 49.936826685384688 20.556745326430509 0 0 0 -1 I I #
plane-surface $-1 49.936826685384688 0 0 -1 0 0 0 0 1 forward_v I I I I #
coedge $-1 $620 $618 $622 $873 reversed $396 $-1 #
edge $-1 $633 -1.5000000000000009 $875 1.5000000000000009 $632 $1008 forward 7 unknown #
vertex $-1 $873 $1009 #
straight-curve $-1 -49.936826685384688 -6.4513596976370788 0 0 0 -1 I I #
edge $-1 $871 -6.4513596976370788 $875 6.4513596976370788 $869 $1010 forward 7 unknown #
straight-curve $-1 0 -6.4513596976370788 -1.5000000000000009 -1 0 0 I I #
vertex $-1 $625 $1011 #
straight-curve $-1 0 6.4513596976370788 -1.5000000000000009 1 0 0 I I #
point $-1 49.936826685384688 6.4513596976370788 -1.5000000000000009 #
point $-1 49.936826685384688 -6.4513596976370788 -1.5000000000000009 #
straight-curve $-1 -49.936826685384688 0 1.5000000000000009 0 -1 0 I I #
point $-1 -49.936826685384688 6.4513596976370788 1.5000000000000009 #
point $-1 -49.936826685384688 -6.4513596976370788 1.5000000000000009 #
straight-curve $-1 49.936826685384688 -6.4513596976370788 0 0 0 -1 I I #
straight-curve $-1 49.936826685384688 6.4513596976370788 0 0 0 -1 I I #
plane-surface $-1 199.74730674153875 0 0 -1 0 0 0 0 1 forward_v I I I I #
coedge $-1 $647 $645 $649 $889 reversed $415 $-1 #
edge $-1 $660 -99.873653370769375 $891 99.873653370769375 $659 $1012 forward 7 unknown #
vertex $-1 $889 $1013 #
straight-curve $-1 -199.74730674153875 -2.8148449213924822 0 0 0 -1 I I #
edge $-1 $887 -2.8148449213924822 $891 2.8148449213924822 $885 $1014 forward 7 unknown #
straight-curve $-1 0 -2.8148449213924822 -99.873653370769375 -1 0 0 I I #
vertex $-1 $652 $1015 #
straight-curve $-1 0 2.8148449213924822 -99.873653370769375 1 0 0 I I #
point $-1 199.74730674153875 2.8148449213924822 -99.873653370769375 #
point $-1 199.74730674153875 -2.8148449213924822 -99.873653370769375 #
straight-curve $-1 -199.74730674153875 0 99.873653370769375 0 -1 0 I I #
point $-1 -199.74730674153875 2.8148449213924822 99.873653370769375 #
point $-1 -199.74730674153875 -2.8148449213924822 99.873653370769375 #
straight-curve $-1 199.74730674153875 -2.8148449213924822 0 0 0 -1 I I #
straight-curve $-1 199.74730674153875 2.8148449213924822 0 0 0 -1 I I #
edge $-1 $1016 1 $1016 0 $669 $-1 forward 7 unknown #
point $-1 0.5 0 -0.25 #
edge $-1 $1017 1 $1017 0 $673 $-1 forward 7 unknown #
point $-1 0.5 0 -0.25 #
edge $-1 $1018 1 $1018 0 $677 $-1 forward 7 unknown #
point $-1 0.5 0 -0.25 #
plane-surface $-1 199.74730674153875 0 0 -1 0 0 0 0 1 forward_v I I I I #
coedge $-1 $686 $684 $688 $911 reversed $449 $-1 #
edge $-1 $699 -99.873653370769375 $913 99.873653370769375 $698 $1019 forward 7 unknown #
vertex $-1 $911 $1020 #
straight-curve $-1 -199.74730674153875 -2.8148449213924822 0 0 0 -1 I I #
edge $-1 $909 -2.8148449213924822 $913 2.8148449213924822 $907 $1021 forward 7 unknown #
straight-curve $-1 0 -2.8148449213924822 -99.873653370769375 -1 0 0 I I #
vertex $-1 $691 $1022 #
straight-curve $-1 0 2.8148449213924822 -99.873653370769375 1 0 0 I I #
point $-1 199.74730674153875 2.8148449213924822 -99.873653370769375 #
point $-1 199.74730674153875 -2.8148449213924822 -99.873653370769375 #
straight-curve $-1 -199.74730674153875 0 99.873653370769375 0 -1 0 I I #
point $-1 -199.74730674153875 2.8148449213924822 99.873653370769375 #
point $-1 -199.74730674153875 -2.8148449213924822 99.873653370769375 #
straight-curve $-1 199.74730674153875 -2.8148449213924822 0 0 0 -1 I I #
straight-curve $-1 199.74730674153875 2.8148449213924822 0 0 0 -1 I I #
edge $-1 $1023 1 $1023 0 $708 $-1 forward 7 unknown #
point $-1 0.5 0 -0.25 #
edge $-1 $1024 1 $1024 0 $712 $-1 forward 7 unknown #
point $-1 0.5 0 -0.25 #
edge $-1 $1025 1 $1025 0 $716 $-1 forward 7 unknown #
point $-1 0.5 0 -0.25 #
plane-surface $-1 199.74730674153875 0 0 -1 0 0 0 0 1 forward_v I I I I #
coedge $-1 $725 $723 $727 $933 reversed $483 $-1 #
edge $-1 $738 -99.873653370769375 $935 99.873653370769375 $737 $1026 forward 7 unknown #
vertex $-1 $933 $1027 #
straight-curve $-1 -199.74730674153875 -2.8148449213924822 0 0 0 -1 I I #
edge $-1 $931 -2.8148449213924822 $935 2.8148449213924822 $929 $1028 forward 7 unknown #
straight-curve $-1 0 -2.8148449213924822 -99.873653370769375 -1 0 0 I I #
vertex $-1 $730 $1029 #
straight-curve $-1 0 2.8148449213924822 -99.873653370769375 1 0 0 I I #
point $-1 199.74730674153875 2.8148449213924822 -99.873653370769375 #
point $-1 199.74730674153875 -2.8148449213924822 -99.873653370769375 #
straight-curve $-1 -199.74730674153875 0 99.873653370769375 0 -1 0 I I #
point $-1 -199.74730674153875 2.8148449213924822 99.873653370769375 #
point $-1 -199.74730674153875 -2.8148449213924822 99.873653370769375 #
straight-curve $-1 199.74730674153875 -2.8148449213924822 0 0 0 -1 I I #
straight-curve $-1 199.74730674153875 2.8148449213924822 0 0 0 -1 I I #
edge $-1 $1030 1 $1030 0 $747 $-1 forward 7 unknown #
point $-1 0.5 0 -0.25 #
edge $-1 $1031 1 $1031 0 $751 $-1 forward 7 unknown #
point $-1 0.5 0 -0.25 #
edge $-1 $1032 1 $1032 0 $755 $-1 forward 7 unknown #
point $-1 0.5 0 -0.25 #
plane-surface $-1 199.74730674153875 0 0 -1 0 0 0 0 1 forward_v I I I I #
coedge $-1 $764 $762 $766 $955 reversed $517 $-1 #
edge $-1 $777 -99.873653370769375 $957 99.873653370769375 $776 $1033 forward 7 unknown #
vertex $-1 $955 $1034 #
straight-curve $-1 -199.74730674153875 -2.972269966846051 0 0 0 -1 I I #
edge $-1 $953 -2.972269966846051 $957 2.972269966846051 $951 $1035 forward 7 unknown #
straight-curve $-1 0 -2.972269966846051 -99.873653370769375 -1 0 0 I I #
vertex $-1 $769 $1036 #
straight-curve $-1 0 2.972269966846051 -99.873653370769375 1 0 0 I I #
point $-1 199.74730674153875 2.972269966846051 -99.873653370769375 #
point $-1 199.74730674153875 -2.972269966846051 -99.873653370769375 #
straight-curve $-1 -199.74730674153875 0 99.873653370769375 0 -1 0 I I #
point $-1 -199.74730674153875 2.972269966846051 99.873653370769375 #
point $-1 -199.74730674153875 -2.972269966846051 99.873653370769375 #
straight-curve $-1 199.74730674153875 -2.972269966846051 0 0 0 -1 I I #
straight-curve $-1 199.74730674153875 2.972269966846051 0 0 0 -1 I I #
edge $-1 $1037 1 $1037 0 $786 $-1 forward 7 unknown #
point $-1 1 0 -0.5 #
plane-surface $-1 199.74730674153875 0 0 -1 0 0 0 0 1 forward_v I I I I #
coedge $-1 $795 $793 $797 $973 reversed $541 $-1 #
edge $-1 $808 -99.873653370769375 $975 99.873653370769375 $807 $1038 forward 7 unknown #
vertex $-1 $973 $1039 #
straight-curve $-1 -199.74730674153875 -2.972269966846051 0 0 0 -1 I I #
edge $-1 $971 -2.972269966846051 $975 2.972269966846051 $969 $1040 forward 7 unknown #
straight-curve $-1 0 -2.972269966846051 -99.873653370769375 -1 0 0 I I #
vertex $-1 $800 $1041 #
straight-curve $-1 0 2.972269966846051 -99.873653370769375 1 0 0 I I #
point $-1 199.74730674153875 2.972269966846051 -99.873653370769375 #
point $-1 199.74730674153875 -2.972269966846051 -99.873653370769375 #
straight-curve $-1 -199.74730674153875 0 99.873653370769375 0 -1 0 I I #
point $-1 -199.74730674153875 2.972269966846051 99.873653370769375 #
point $-1 -199.74730674153875 -2.972269966846051 99.873653370769375 #
straight-curve $-1 199.74730674153875 -2.972269966846051 0 0 0 -1 I I #
straight-curve $-1 199.74730674153875 2.972269966846051 0 0 0 -1 I I #
edge $-1 $1042 1 $1042 0 $817 $-1 forward 7 unknown #
point $-1 1 0 -0.5 #
plane-surface $-1 199.74730674153875 0 0 -1 0 0 0 0 1 forward_v I I I I #
coedge $-1 $826 $824 $828 $991 reversed $565 $-1 #
edge $-1 $839 -99.873653370769375 $993 99.873653370769375 $838 $1043 forward 7 unknown #
vertex $-1 $991 $1044 #
straight-curve $-1 -199.74730674153875 -2.972269966846051 0 0 0 -1 I I #
edge $-1 $989 -2.972269966846051 $993 2.972269966846051 $987 $1045 forward 7 unknown #
straight-curve $-1 0 -2.972269966846051 -99.873653370769375 -1 0 0 I I #
vertex $-1 $831 $1046 #
straight-curve $-1 0 2.972269966846051 -99.873653370769375 1 0 0 I I #
point $-1 199.74730674153875 2.972269966846051 -99.873653370769375 #
point $-1 199.74730674153875 -2.972269966846051 -99.873653370769375 #
straight-curve $-1 -199.74730674153875 0 99.873653370769375 0 -1 0 I I #
point $-1 -199.74730674153875 2.972269966846051 99.873653370769375 #
point $-1 -199.74730674153875 -2.972269966846051 99.873653370769375 #
straight-curve $-1 199.74730674153875 -2.972269966846051 0 0 0 -1 I I #
straight-curve $-1 199.74730674153875 2.972269966846051 0 0 0 -1 I I #
edge $-1 $1047 1 $1047 0 $848 $-1 forward 7 unknown #
point $-1 1 0 -0.5 #
straight-curve $-1 -49.936826685384688 20.556745326430509 0 0 0 -1 I I #
point $-1 -49.936826685384688 -20.556745326430509 -10.113690341117168 #
straight-curve $-1 -49.936826685384688 0 -10.113690341117168 0 1 0 I I #
point $-1 -49.936826685384688 20.556745326430509 -10.113690341117168 #
straight-curve $-1 -49.936826685384688 6.4513596976370788 0 0 0 -1 I I #
point $-1 -49.936826685384688 -6.4513596976370788 -1.5000000000000009 #
straight-curve $-1 -49.936826685384688 0 -1.5000000000000009 0 1 0 I I #
point $-1 -49.936826685384688 6.4513596976370788 -1.5000000000000009 #
straight-curve $-1 -199.74730674153875 2.8148449213924822 0 0 0 -1 I I #
point $-1 -199.74730674153875 -2.8148449213924822 -99.873653370769375 #
straight-curve $-1 -199.74730674153875 0 -99.873653370769375 0 1 0 I I #
point $-1 -199.74730674153875 2.8148449213924822 -99.873653370769375 #
vertex $-1 $900 $1048 #
vertex $-1 $902 $1049 #
vertex $-1 $904 $1050 #
straight-curve $-1 -199.74730674153875 2.8148449213924822 0 0 0 -1 I I #
point $-1 -199.74730674153875 -2.8148449213924822 -99.873653370769375 #
straight-curve $-1 -199.74730674153875 0 -99.873653370769375 0 1 0 I I #
point $-1 -199.74730674153875 2.8148449213924822 -99.873653370769375 #
vertex $-1 $922 $1051 #
vertex $-1 $924 $1052 #
vertex $-1 $926 $1053 #
straight-curve $-1 -199.74730674153875 2.8148449213924822 0 0 0 -1 I I #
point $-1 -199.74730674153875 -2.8148449213924822 -99.873653370769375 #
straight-curve $-1 -199.74730674153875 0 -99.873653370769375 0 1 0 I I #
point $-1 -199.74730674153875 2.8148449213924822 -99.873653370769375 #
vertex $-1 $944 $1054 #
vertex $-1 $946 $1055 #
vertex $-1 $948 $1056 #
straight-curve $-1 -199.74730674153875 2.972269966846051 0 0 0 -1 I I #
point $-1 -199.74730674153875 -2.972269966846051 -99.873653370769375 #
straight-curve $-1 -199.74730674153875 0 -99.873653370769375 0 1 0 I I #
point $-1 -199.74730674153875 2.972269966846051 -99.873653370769375 #
vertex $-1 $966 $1057 #
straight-curve $-1 -199.74730674153875 2.972269966846051 0 0 0 -1 I I #
point $-1 -199.74730674153875 -2.972269966846051 -99.873653370769375 #
straight-curve $-1 -199.74730674153875 0 -99.873653370769375 0 1 0 I I #
point $-1 -199.74730674153875 2.972269966846051 -99.873653370769375 #
vertex $-1 $984 $1058 #
straight-curve $-1 -199.74730674153875 2.972269966846051 0 0 0 -1 I I #
point $-1 -199.74730674153875 -2.972269966846051 -99.873653370769375 #
straight-curve $-1 -199.74730674153875 0 -99.873653370769375 0 1 0 I I #
point $-1 -199.74730674153875 2.972269966846051 -99.873653370769375 #
vertex $-1 $1002 $1059 #
point $-1 0 0 0.25 #
point $-1 0 0 0.25 #
point $-1 0 0 0.25 #
point $-1 0 0 0.25 #
point $-1 0 0 0.25 #
point $-1 0 0 0.25 #
point $-1 0 0 0.25 #
point $-1 0 0 0.25 #
point $-1 0 0 0.25 #
point $-1 0 0 0.5 #
point $-1 0 0 0.5 #
point $-1 0 0 0.5 #
End-of-ACIS-data 