500 0 9 0           
7 Unknown 11 ACIS 5.0 NT 24 Fri Mar 26 00:51:50 1999 
-1 9.9999999999999995e-007 1e-010 
body $-1 $9 $-1 $10 #
body $-1 $11 $-1 $12 #
body $-1 $13 $-1 $14 #
body $-1 $15 $-1 $16 #
body $-1 $17 $-1 $18 #
body $-1 $19 $-1 $20 #
body $-1 $21 $-1 $22 #
body $-1 $23 $-1 $24 #
body $-1 $25 $-1 $26 #
lump $-1 $-1 $27 $0 #
transform $-1 1 0 0 0 1 0 0 0 1 69.602954191717274 30.508087679302381 6.6744995924745929 1 rotate no_reflect no_shear #
lump $-1 $-1 $28 $1 #
transform $-1 1 0 0 0 1 0 0 0 1 69.602954191717274 30.508087679302381 6.6744995924745929 1 rotate no_reflect no_shear #
lump $-1 $-1 $29 $2 #
transform $-1 1 0 0 0 1 0 0 0 1 69.602954191717274 30.508087679302381 6.6744995924745929 1 rotate no_reflect no_shear #
lump $-1 $-1 $30 $3 #
transform $-1 1 0 0 0 1 0 0 0 1 69.602954191717274 30.508087679302381 6.6744995924745929 1 rotate no_reflect no_shear #
lump $-1 $-1 $31 $4 #
transform $-1 1 0 0 0 1 0 0 0 1 69.602954191717274 30.508087679302381 6.6744995924745929 1 rotate no_reflect no_shear #
lump $-1 $-1 $32 $5 #
transform $-1 1 0 0 0 1 0 0 0 1 69.602954191717274 30.508087679302381 6.6744995924745929 1 rotate no_reflect no_shear #
lump $-1 $-1 $33 $6 #
transform $-1 1 0 0 0 1 0 0 0 1 69.602954191717274 30.508087679302381 6.6744995924745929 1 rotate no_reflect no_shear #
lump $-1 $-1 $34 $7 #
transform $-1 1 0 0 0 1 0 0 0 1 69.602954191717274 30.508087679302381 6.6744995924745929 1 rotate no_reflect no_shear #
lump $-1 $-1 $35 $8 #
transform $-1 1 0 0 0 1 0 0 0 1 69.602954191717274 30.508087679302381 6.6744995924745929 1 rotate no_reflect no_shear #
shell $-1 $-1 $-1 $36 $-1 $9 #
shell $-1 $-1 $-1 $37 $-1 $11 #
shell $-1 $-1 $-1 $38 $-1 $13 #
shell $-1 $-1 $-1 $39 $-1 $15 #
shell $-1 $-1 $-1 $40 $-1 $17 #
shell $-1 $-1 $-1 $41 $-1 $19 #
shell $-1 $-1 $-1 $42 $-1 $21 #
shell $-1 $-1 $-1 $43 $-1 $23 #
shell $-1 $-1 $-1 $44 $-1 $25 #
face $-1 $45 $46 $27 $-1 $47 forward single #
face $-1 $48 $49 $28 $-1 $50 forward single #
face $-1 $51 $52 $29 $-1 $53 reversed single #
face $-1 $54 $55 $30 $-1 $56 forward single #
face $-1 $57 $58 $31 $-1 $59 forward single #
face $-1 $60 $61 $32 $-1 $62 forward single #
face $-1 $63 $64 $33 $-1 $65 reversed single #
face $-1 $66 $67 $34 $-1 $68 forward single #
face $-1 $69 $70 $35 $-1 $71 forward single #
face $-1 $72 $73 $27 $-1 $74 reversed single #
loop $-1 $-1 $75 $36 #
plane-surface $-1 0 0 6.6744995924745929 0 0 1 1 0 0 forward_v I I I I #
face $-1 $76 $77 $28 $-1 $78 reversed single #
loop $-1 $-1 $79 $37 #
plane-surface $-1 -69.602954191717274 0 0 1 0 0 0 0 -1 forward_v I I I I #
face $-1 $80 $81 $29 $-1 $82 reversed single #
loop $-1 $-1 $83 $38 #
plane-surface $-1 36.366795093911165 80.821884790754581 145.06756981604804 1 0 0 0 -0.68199836817093118 -0.7313536940579346 forward_v I I I I #
face $-1 $84 $85 $30 $-1 $86 forward single #
loop $-1 $87 $88 $39 #
cone-surface $-1 43.014026913472392 26.100992980222237 2.3255516595029073 0 -0.68199836817093118 -0.7313536940579346 1.5 0 0 1 I I 0 1 1.5 forward I I I I #
face $-1 $89 $90 $31 $-1 $91 forward single #
loop $-1 $92 $93 $40 #
cone-surface $-1 52.984874642814233 26.100992980222237 2.3255516595029073 0 -0.68199836817093118 -0.7313536940579346 1.5 0 0 1 I I 0 1 1.5 forward I I I I #
face $-1 $94 $95 $32 $-1 $96 forward single #
loop $-1 $97 $98 $41 #
cone-surface $-1 62.955722372156075 26.100992980222237 2.3255516595029073 0 -0.68199836817093118 -0.7313536940579346 1.5 0 0 1 I I 0 1 1.5 forward I I I I #
face $-1 $99 $100 $33 $-1 $101 reversed single #
loop $-1 $-1 $102 $42 #
plane-surface $-1 59.713325920644863 -147.25598703884515 78.4564149736877 -1 0 0 0 -0.83867057594974714 0.54463902268945019 forward_v I I I I #
face $-1 $103 $104 $34 $-1 $105 forward single #
loop $-1 $106 $107 $43 #
cone-surface $-1 49.088139848372364 -27.914724476240622 3.8236747973065346 0 0.83867057594974714 -0.54463902268945019 1 0 0 1 I I 0 1 1 forward I I I I #
face $-1 $108 $109 $35 $-1 $110 forward single #
loop $-1 $111 $112 $44 #
cone-surface $-1 55.463251491735861 -27.914724476240622 3.8236747973065346 0 0.83867057594974714 -0.54463902268945019 1 0 0 1 I I 0 1 1 forward I I I I #
face $-1 $113 $114 $27 $-1 $115 reversed single #
loop $-1 $-1 $116 $45 #
plane-surface $-1 0 0 -6.6744995924745929 0 0 1 1 0 0 forward_v I I I I #
coedge $-1 $117 $118 $119 $120 forward $46 $-1 #
face $-1 $121 $122 $28 $-1 $123 reversed single #
loop $-1 $-1 $124 $48 #
plane-surface $-1 0 30.508087679302381 0 0 -1 0 0 0 -1 forward_v I I I I #
coedge $-1 $125 $126 $127 $128 forward $49 $-1 #
face $-1 $129 $130 $29 $-1 $131 forward single #
loop $-1 $-1 $132 $51 #
plane-surface $-1 52.984874642814233 -14.116317566499944 43.258814485132746 0 0.68199836817093118 0.7313536940579346 1 0 0 forward_v I I I I #
coedge $-1 $133 $134 $135 $136 reversed $52 $-1 #
face $-1 $-1 $137 $30 $-1 $138 forward single #
loop $-1 $139 $140 $54 #
cone-surface $-1 43.014026913472392 23.878665279648036 -0.057602977041415926 0 -0.68199836817093118 -0.7313536940579346 0.75 0 0 1 I I -0.70710678118654757 0.70710678118654757 0.75 forward I I I I #
loop $-1 $-1 $141 $39 #
coedge $-1 $88 $88 $142 $143 reversed $55 $-1 #
face $-1 $-1 $144 $31 $-1 $145 forward single #
loop $-1 $146 $147 $57 #
cone-surface $-1 52.984874642814233 23.878665279648036 -0.057602977041415926 0 -0.68199836817093118 -0.7313536940579346 0.75 0 0 1 I I -0.70710678118654757 0.70710678118654757 0.75 forward I I I I #
loop $-1 $-1 $148 $40 #
coedge $-1 $93 $93 $149 $150 reversed $58 $-1 #
face $-1 $-1 $151 $32 $-1 $152 forward single #
loop $-1 $153 $154 $60 #
cone-surface $-1 62.955722372156075 23.878665279648036 -0.057602977041415926 0 -0.68199836817093118 -0.7313536940579346 0.75 0 0 1 I I -0.70710678118654757 0.70710678118654757 0.75 forward I I I I #
loop $-1 $-1 $155 $41 #
coedge $-1 $98 $98 $156 $157 reversed $61 $-1 #
face $-1 $158 $159 $33 $-1 $160 reversed single #
loop $-1 $-1 $161 $63 #
plane-surface $-1 52.27569567005412 -30.508087679302363 2.6394450791367632 0 -0.83867057594974714 0.54463902268945019 1 0 0 forward_v I I I I #
coedge $-1 $162 $163 $164 $165 reversed $64 $-1 #
face $-1 $-1 $166 $34 $-1 $167 forward single #
loop $-1 $168 $169 $66 #
cone-surface $-1 49.088139848372364 -26.212223463012393 2.7180577474626624 0 0.83867057594974714 -0.54463902268945019 0.5 0 0 1 I I -0.70710678118654746 0.70710678118654746 0.5 forward I I I I #
loop $-1 $-1 $170 $43 #
coedge $-1 $107 $107 $171 $172 reversed $67 $-1 #
face $-1 $-1 $173 $35 $-1 $174 forward single #
loop $-1 $175 $176 $69 #
cone-surface $-1 55.463251491735861 -26.212223463012393 2.7180577474626624 0 0.83867057594974714 -0.54463902268945019 0.5 0 0 1 I I -0.70710678118654746 0.70710678118654746 0.5 forward I I I I #
loop $-1 $-1 $177 $44 #
coedge $-1 $112 $112 $178 $179 reversed $70 $-1 #
face $-1 $180 $181 $27 $-1 $182 reversed single #
loop $-1 $-1 $183 $72 #
plane-surface $-1 0 -30.508087679302381 0 0 1 0 0 0 1 forward_v I I I I #
coedge $-1 $184 $185 $186 $187 forward $73 $-1 #
coedge $-1 $188 $75 $189 $190 forward $46 $-1 #
coedge $-1 $75 $188 $191 $192 forward $46 $-1 #
coedge $-1 $193 $194 $75 $120 reversed $195 $-1 #
edge $-1 $196 -30.508087679302381 $197 30.508087679302381 $119 $198 forward 7 unknown #
face $-1 $199 $200 $28 $-1 $201 reversed single #
loop $-1 $-1 $127 $76 #
plane-surface $-1 -73.02564214552369 0 3.6744995924745929 0 0 1 1 0 0 forward_v I I I I #
coedge $-1 $202 $203 $125 $204 forward $77 $-1 #
coedge $-1 $205 $79 $124 $204 reversed $49 $-1 #
coedge $-1 $79 $205 $206 $207 reversed $49 $-1 #
coedge $-1 $208 $209 $79 $128 reversed $122 $-1 #
edge $-1 $210 -30.508087679302381 $211 30.508087679302381 $127 $212 forward 7 unknown #
face $-1 $213 $214 $29 $-1 $215 reversed single #
loop $-1 $-1 $135 $80 #
plane-surface $-1 0 0 6.6744995924745929 0 0 1 1 0 0 forward_v I I I I #
coedge $-1 $216 $217 $218 $219 reversed $81 $-1 #
coedge $-1 $134 $83 $220 $221 reversed $52 $-1 #
coedge $-1 $83 $133 $216 $222 reversed $52 $-1 #
coedge $-1 $218 $223 $83 $136 forward $130 $-1 #
edge $-1 $224 9.9028547160749092 $225 15.295386265343254 $135 $226 forward 7 unknown #
loop $-1 $-1 $142 $84 #
plane-surface $-1 52.984874642814233 -14.116317566499944 43.258814485132746 0 0.68199836817093118 0.7313536940579346 1 0 0 forward_v I I I I #
loop $-1 $-1 $227 $54 #
coedge $-1 $140 $140 $141 $228 reversed $85 $-1 #
coedge $-1 $141 $141 $140 $228 forward $87 $-1 #
coedge $-1 $142 $142 $88 $143 forward $137 $-1 #
edge $-1 $229 -2.7629731162470534e-016 $229 6.2831853071796004 $142 $230 forward 7 unknown #
loop $-1 $-1 $149 $89 #
plane-surface $-1 52.984874642814233 -14.116317566499944 43.258814485132746 0 0.68199836817093118 0.7313536940579346 1 0 0 forward_v I I I I #
loop $-1 $-1 $231 $57 #
coedge $-1 $147 $147 $148 $232 reversed $90 $-1 #
coedge $-1 $148 $148 $147 $232 forward $92 $-1 #
coedge $-1 $149 $149 $93 $150 forward $144 $-1 #
edge $-1 $233 -2.7629731162470534e-016 $233 6.2831853071796004 $149 $234 forward 7 unknown #
loop $-1 $-1 $156 $94 #
plane-surface $-1 52.984874642814233 -14.116317566499944 43.258814485132746 0 0.68199836817093118 0.7313536940579346 1 0 0 forward_v I I I I #
loop $-1 $-1 $235 $60 #
coedge $-1 $154 $154 $155 $236 reversed $95 $-1 #
coedge $-1 $155 $155 $154 $236 forward $97 $-1 #
coedge $-1 $156 $156 $98 $157 forward $151 $-1 #
edge $-1 $237 -2.7629731162470534e-016 $237 6.2831853071796004 $156 $238 forward 7 unknown #
face $-1 $239 $240 $33 $-1 $241 reversed single #
loop $-1 $-1 $242 $99 #
plane-surface $-1 44.838065419463376 -147.25598703884515 78.4564149736877 1 0 0 0 0.83867057594974714 -0.54463902268945019 forward_v I I I I #
coedge $-1 $243 $244 $245 $246 reversed $100 $-1 #
coedge $-1 $163 $102 $247 $248 reversed $64 $-1 #
coedge $-1 $102 $162 $243 $249 reversed $64 $-1 #
coedge $-1 $245 $250 $102 $165 forward $251 $-1 #
edge $-1 $252 43.119905840120197 $253 45.740300795737028 $164 $254 forward 7 unknown #
loop $-1 $-1 $171 $103 #
plane-surface $-1 52.27569567005412 -30.508087679302363 2.6394450791367632 0 -0.83867057594974714 0.54463902268945019 1 0 0 forward_v I I I I #
loop $-1 $-1 $255 $66 #
coedge $-1 $169 $169 $170 $256 reversed $104 $-1 #
coedge $-1 $170 $170 $169 $256 forward $106 $-1 #
coedge $-1 $171 $171 $107 $172 forward $166 $-1 #
edge $-1 $257 1.1988832578830993e-015 $257 6.2831853071796013 $171 $258 forward 7 unknown #
loop $-1 $-1 $178 $108 #
plane-surface $-1 52.27569567005412 -30.508087679302363 2.6394450791367632 0 -0.83867057594974714 0.54463902268945019 1 0 0 forward_v I I I I #
loop $-1 $-1 $259 $69 #
coedge $-1 $176 $176 $177 $260 reversed $109 $-1 #
coedge $-1 $177 $177 $176 $260 forward $111 $-1 #
coedge $-1 $178 $178 $112 $179 forward $173 $-1 #
edge $-1 $261 1.1988832578830993e-015 $261 6.2831853071796013 $178 $262 forward 7 unknown #
face $-1 $263 $264 $27 $-1 $265 reversed single #
loop $-1 $-1 $266 $113 #
plane-surface $-1 -69.602954191717274 0 0 1 0 0 0 0 -1 forward_v I I I I #
coedge $-1 $267 $191 $268 $269 forward $114 $-1 #
coedge $-1 $270 $116 $267 $271 forward $73 $-1 #
coedge $-1 $116 $270 $272 $273 forward $73 $-1 #
coedge $-1 $194 $193 $116 $187 reversed $195 $-1 #
edge $-1 $274 -30.508087679302381 $275 30.508087679302381 $186 $276 forward 7 unknown #
coedge $-1 $118 $117 $277 $278 forward $46 $-1 #
coedge $-1 $279 $280 $117 $190 reversed $264 $-1 #
edge $-1 $197 -69.602954191717274 $281 69.602954191717274 $189 $282 forward 7 unknown #
coedge $-1 $183 $283 $118 $192 reversed $114 $-1 #
edge $-1 $284 -69.602954191717274 $196 69.602954191717274 $191 $285 forward 7 unknown #
coedge $-1 $186 $119 $283 $286 forward $195 $-1 #
coedge $-1 $119 $186 $279 $287 reversed $195 $-1 #
loop $-1 $-1 $193 $263 #
vertex $-1 $120 $288 #
vertex $-1 $120 $289 #
straight-curve $-1 69.602954191717274 0 6.6744995924745929 0 1 0 I I #
face $-1 $290 $291 $28 $-1 $292 forward single #
loop $-1 $-1 $293 $121 #
plane-surface $-1 -76.448330099330107 0 5.1744995924745929 1 0 0 0 0 -1 forward_v I I I I #
coedge $-1 $294 $124 $209 $295 reversed $77 $-1 #
coedge $-1 $124 $294 $296 $297 reversed $77 $-1 #
edge $-1 $298 -6.6744995924745929 $211 -3.6744995924745929 $124 $299 forward 7 unknown #
coedge $-1 $126 $125 $300 $301 reversed $49 $-1 #
coedge $-1 $302 $303 $126 $207 forward $304 $-1 #
edge $-1 $210 3.6744995924745929 $305 6.6744995924745929 $206 $306 forward 7 unknown #
coedge $-1 $307 $127 $303 $308 forward $122 $-1 #
coedge $-1 $127 $307 $202 $295 forward $122 $-1 #
vertex $-1 $207 $309 #
vertex $-1 $204 $310 #
straight-curve $-1 -69.602954191717274 0 3.6744995924745929 0 1 0 I I #
face $-1 $-1 $311 $29 $-1 $312 reversed single #
loop $-1 $-1 $220 $129 #
plane-surface $-1 0 30.508087679302381 0 0 -1 0 0 0 -1 forward_v I I I I #
coedge $-1 $313 $132 $134 $222 forward $81 $-1 #
coedge $-1 $132 $313 $314 $315 reversed $81 $-1 #
coedge $-1 $316 $135 $132 $219 forward $130 $-1 #
edge $-1 $225 9.8743577725040481 $317 43.110516870310185 $218 $318 forward 7 unknown #
coedge $-1 $319 $320 $133 $221 forward $214 $-1 #
edge $-1 $321 -70.887902449491108 $224 -65.859285315549428 $220 $322 forward 7 unknown #
edge $-1 $225 53.642818810218799 $321 61.016175358604769 $134 $323 forward 7 unknown #
coedge $-1 $135 $316 $319 $324 forward $130 $-1 #
vertex $-1 $136 $325 #
vertex $-1 $136 $326 #
straight-curve $-1 36.366795093911165 40.41094239537729 6.6744995924745893 0 -1 0 I I #
coedge $-1 $227 $227 $-1 $327 reversed $139 $-1 #
edge $-1 $328 0 $328 6.2831853071796004 $140 $329 forward 7 unknown #
vertex $-1 $143 $330 #
ellipse-curve $-1 43.014026913472392 27.811821904668211 4.1601910255037486 0 0.68199836817093118 0.7313536940579346 1.5 0 0 1 I I #
coedge $-1 $231 $231 $-1 $331 reversed $146 $-1 #
edge $-1 $332 0 $332 6.2831853071796004 $147 $333 forward 7 unknown #
vertex $-1 $150 $334 #
ellipse-curve $-1 52.984874642814233 27.811821904668211 4.1601910255037486 0 0.68199836817093118 0.7313536940579346 1.5 0 0 1 I I #
coedge $-1 $235 $235 $-1 $335 reversed $153 $-1 #
edge $-1 $336 0 $336 6.2831853071796004 $154 $337 forward 7 unknown #
vertex $-1 $157 $338 #
ellipse-curve $-1 62.955722372156075 27.811821904668211 4.1601910255037486 0 0.68199836817093118 0.7313536940579346 1.5 0 0 1 I I #
face $-1 $-1 $251 $33 $-1 $339 forward single #
loop $-1 $-1 $340 $158 #
plane-surface $-1 0 -30.508087679302381 0 0 1 0 0 0 1 forward_v I I I I #
coedge $-1 $341 $342 $343 $344 reversed $159 $-1 #
coedge $-1 $345 $161 $163 $249 forward $100 $-1 #
coedge $-1 $161 $345 $341 $346 forward $100 $-1 #
coedge $-1 $343 $164 $161 $246 forward $251 $-1 #
edge $-1 $253 -33.575478085617803 $347 -18.700217584436317 $245 $348 forward 7 unknown #
coedge $-1 $349 $350 $162 $248 forward $240 $-1 #
edge $-1 $351 -36.588762407707115 $252 -32.553707894369253 $247 $352 forward 7 unknown #
edge $-1 $253 -4.8112508403771743 $351 3.2766294840263978e-014 $163 $353 forward 7 unknown #
coedge $-1 $164 $343 $349 $354 forward $251 $-1 #
loop $-1 $-1 $343 $239 #
vertex $-1 $248 $355 #
vertex $-1 $165 $356 #
straight-curve $-1 59.713325920644863 -73.627993519422574 6.6744995924745893 0 1 0 I I #
coedge $-1 $255 $255 $-1 $357 reversed $168 $-1 #
edge $-1 $358 0 $358 6.2831853071796004 $169 $359 forward 7 unknown #
vertex $-1 $172 $360 #
ellipse-curve $-1 49.088139848372364 -29.197890201493959 4.6569723358056709 0 -0.83867057594974714 0.54463902268945019 1 0 0 1 I I #
coedge $-1 $259 $259 $-1 $361 reversed $175 $-1 #
edge $-1 $362 0 $362 6.2831853071796004 $176 $363 forward 7 unknown #
vertex $-1 $179 $364 #
ellipse-curve $-1 55.463251491735861 -29.197890201493959 4.6569723358056709 0 -0.83867057594974714 0.54463902268945019 1 0 0 1 I I #
face $-1 $-1 $195 $27 $-1 $365 reversed single #
loop $-1 $-1 $279 $180 #
plane-surface $-1 0 30.508087679302381 0 0 -1 0 0 0 -1 forward_v I I I I #
coedge $-1 $366 $277 $280 $367 forward $181 $-1 #
coedge $-1 $283 $183 $184 $271 reversed $114 $-1 #
coedge $-1 $277 $366 $183 $269 reversed $181 $-1 #
edge $-1 $284 -6.6744995924745929 $368 6.6744995924745929 $268 $369 forward 7 unknown #
coedge $-1 $185 $184 $366 $370 forward $73 $-1 #
edge $-1 $275 -69.602954191717274 $368 69.602954191717274 $267 $371 forward 7 unknown #
coedge $-1 $280 $279 $185 $273 reversed $264 $-1 #
edge $-1 $372 -69.602954191717274 $274 69.602954191717274 $272 $373 forward 7 unknown #
vertex $-1 $187 $374 #
vertex $-1 $286 $375 #
straight-curve $-1 69.602954191717274 0 -6.6744995924745929 0 -1 0 I I #
coedge $-1 $266 $268 $188 $278 reversed $181 $-1 #
edge $-1 $281 -30.508087679302381 $284 30.508087679302381 $277 $376 forward 7 unknown #
coedge $-1 $272 $189 $194 $287 forward $264 $-1 #
coedge $-1 $189 $272 $266 $367 reversed $264 $-1 #
vertex $-1 $190 $377 #
straight-curve $-1 0 30.508087679302381 6.6744995924745929 -1 0 0 I I #
coedge $-1 $191 $267 $193 $286 reversed $114 $-1 #
vertex $-1 $278 $378 #
straight-curve $-1 0 -30.508087679302381 6.6744995924745929 1 0 0 I I #
edge $-1 $196 -6.6744995924745929 $275 6.6744995924745929 $193 $379 forward 7 unknown #
edge $-1 $197 -6.6744995924745929 $274 6.6744995924745929 $194 $380 forward 7 unknown #
point $-1 69.602954191717274 -30.508087679302381 6.6744995924745929 #
point $-1 69.602954191717274 30.508087679302381 6.6744995924745929 #
face $-1 $-1 $304 $28 $-1 $381 reversed single #
loop $-1 $-1 $300 $199 #
plane-surface $-1 0 0 6.6744995924745929 0 0 1 1 0 0 forward_v I I I I #
coedge $-1 $382 $383 $294 $384 forward $200 $-1 #
coedge $-1 $203 $202 $293 $384 reversed $77 $-1 #
edge $-1 $385 -3.4226879538064168 $211 3.4226879538064168 $202 $386 forward 7 unknown #
coedge $-1 $387 $300 $203 $297 forward $291 $-1 #
edge $-1 $298 69.602954191717274 $388 76.448330099330107 $203 $389 forward 7 unknown #
vertex $-1 $297 $390 #
straight-curve $-1 -69.602954191717274 30.508087679302381 0 0 0 -1 I I #
coedge $-1 $296 $391 $205 $301 forward $291 $-1 #
edge $-1 $305 -30.508087679302381 $298 30.508087679302381 $300 $392 forward 7 unknown #
coedge $-1 $393 $206 $391 $394 reversed $304 $-1 #
coedge $-1 $206 $393 $208 $308 reversed $304 $-1 #
loop $-1 $-1 $206 $290 #
vertex $-1 $207 $395 #
straight-curve $-1 -69.602954191717274 -30.508087679302381 0 0 0 1 I I #
coedge $-1 $209 $208 $382 $396 forward $122 $-1 #
edge $-1 $210 -3.4226879538064168 $397 3.4226879538064168 $303 $398 forward 7 unknown #
point $-1 -69.602954191717274 -30.508087679302381 3.6744995924745929 #
point $-1 -69.602954191717274 30.508087679302381 3.6744995924745929 #
loop $-1 $-1 $314 $213 #
plane-surface $-1 69.602954191717274 0 0 -1 0 0 0 0 1 forward_v I I I I #
coedge $-1 $217 $216 $320 $399 reversed $81 $-1 #
coedge $-1 $400 $401 $217 $315 forward $311 $-1 #
edge $-1 $317 33.729587866906691 $402 41.102944415292654 $314 $403 forward 7 unknown #
coedge $-1 $223 $218 $401 $404 forward $130 $-1 #
vertex $-1 $404 $405 #
straight-curve $-1 26.492437321407117 25.115556130034033 6.6744995924745965 1 0 0 I I #
coedge $-1 $406 $220 $223 $324 reversed $214 $-1 #
coedge $-1 $220 $406 $313 $399 forward $214 $-1 #
vertex $-1 $221 $407 #
straight-curve $-1 36.366795093911165 30.508087679302381 72.533784908024018 0 0 1 I I #
straight-curve $-1 36.366795093911165 -14.116317566499944 43.258814485132746 0 0.7313536940579346 -0.68199836817093118 I I #
edge $-1 $408 -69.602954191717274 $224 -36.366795093911165 $319 $409 forward 7 unknown #
point $-1 36.366795093911165 30.508087679302381 6.6744995924745929 #
point $-1 36.366795093911165 25.115556130034037 6.6744995924745893 #
edge $-1 $410 1 $410 0 $227 $-1 forward 7 unknown #
vertex $-1 $228 $411 #
ellipse-curve $-1 43.014026913472392 24.390164055776236 0.49091229350203502 0 0.68199836817093118 0.7313536940579346 1.5 0 0 1 I I #
point $-1 44.514026913472392 27.811821904668239 4.1601910255037797 #
edge $-1 $412 1 $412 0 $231 $-1 forward 7 unknown #
vertex $-1 $232 $413 #
ellipse-curve $-1 52.984874642814233 24.390164055776236 0.49091229350203502 0 0.68199836817093118 0.7313536940579346 1.5 0 0 1 I I #
point $-1 54.484874642814233 27.811821904668239 4.1601910255037797 #
edge $-1 $414 1 $414 0 $235 $-1 forward 7 unknown #
vertex $-1 $236 $415 #
ellipse-curve $-1 62.955722372156075 24.390164055776236 0.49091229350203502 0 0.68199836817093118 0.7313536940579346 1.5 0 0 1 I I #
point $-1 64.455722372156075 27.811821904668239 4.1601910255037797 #
plane-surface $-1 0 0 6.6744995924745929 0 0 1 1 0 0 forward_v I I I I #
coedge $-1 $350 $349 $342 $416 forward $240 $-1 #
coedge $-1 $342 $242 $244 $346 reversed $159 $-1 #
coedge $-1 $242 $341 $340 $416 reversed $159 $-1 #
coedge $-1 $250 $245 $242 $344 forward $251 $-1 #
edge $-1 $347 -45.740300795737028 $417 -43.119905840120197 $343 $418 forward 7 unknown #
coedge $-1 $244 $243 $350 $419 reversed $100 $-1 #
edge $-1 $420 -3.2766294840263978e-014 $347 4.8112508403771743 $341 $421 forward 7 unknown #
vertex $-1 $246 $422 #
straight-curve $-1 26.13784783502706 -27.887692723685547 6.6744995924745929 -1 0 0 I I #
coedge $-1 $340 $247 $250 $354 reversed $240 $-1 #
coedge $-1 $247 $340 $345 $419 forward $240 $-1 #
vertex $-1 $248 $423 #
straight-curve $-1 59.713325920644863 -30.508087679302378 39.22820748684385 0 0 1 I I #
straight-curve $-1 59.713325920644863 -30.508087679302363 2.6394450791367632 0 -0.54463902268945019 -0.83867057594974714 I I #
edge $-1 $417 44.838065419463376 $252 59.713325920644863 $349 $424 forward 7 unknown #
point $-1 59.713325920644863 -30.508087679302381 6.6744995924745929 #
point $-1 59.713325920644863 -27.887692723685543 6.6744995924745929 #
edge $-1 $425 1 $425 0 $255 $-1 forward 7 unknown #
vertex $-1 $256 $426 #
ellipse-curve $-1 49.088139848372364 -26.631558750987267 2.9903772588073876 0 -0.83867057594974714 0.54463902268945019 1 0 0 1 I I #
point $-1 50.088139848372364 -29.197890201493973 4.6569723358056816 #
edge $-1 $427 1 $427 0 $259 $-1 forward 7 unknown #
vertex $-1 $260 $428 #
ellipse-curve $-1 55.463251491735861 -26.631558750987267 2.9903772588073876 0 -0.83867057594974714 0.54463902268945019 1 0 0 1 I I #
point $-1 56.463251491735861 -29.197890201493973 4.6569723358056816 #
plane-surface $-1 69.602954191717274 0 0 -1 0 0 0 0 1 forward_v I I I I #
coedge $-1 $268 $266 $270 $370 reversed $181 $-1 #
edge $-1 $281 -6.6744995924745929 $372 6.6744995924745929 $280 $429 forward 7 unknown #
vertex $-1 $370 $430 #
straight-curve $-1 -69.602954191717274 -30.508087679302381 0 0 0 -1 I I #
edge $-1 $368 -30.508087679302381 $372 30.508087679302381 $366 $431 forward 7 unknown #
straight-curve $-1 0 -30.508087679302381 -6.6744995924745929 -1 0 0 I I #
vertex $-1 $273 $432 #
straight-curve $-1 0 30.508087679302381 -6.6744995924745929 1 0 0 I I #
point $-1 69.602954191717274 30.508087679302381 -6.6744995924745929 #
point $-1 69.602954191717274 -30.508087679302381 -6.6744995924745929 #
straight-curve $-1 -69.602954191717274 0 6.6744995924745929 0 -1 0 I I #
point $-1 -69.602954191717274 30.508087679302381 6.6744995924745929 #
point $-1 -69.602954191717274 -30.508087679302381 6.6744995924745929 #
straight-curve $-1 69.602954191717274 -30.508087679302381 0 0 0 -1 I I #
straight-curve $-1 69.602954191717274 30.508087679302381 0 0 0 -1 I I #
plane-surface $-1 0 -30.508087679302381 0 0 1 0 0 0 1 forward_v I I I I #
coedge $-1 $433 $293 $307 $396 reversed $200 $-1 #
coedge $-1 $293 $433 $387 $434 reversed $200 $-1 #
edge $-1 $388 -1.5 $385 1.5 $294 $435 forward 7 unknown #
vertex $-1 $295 $436 #
straight-curve $-1 -73.02564214552369 30.508087679302381 3.6744995924745929 1 0 0 I I #
coedge $-1 $391 $296 $383 $434 forward $291 $-1 #
vertex $-1 $297 $437 #
straight-curve $-1 0 30.508087679302381 6.6744995924745929 -1 0 0 I I #
point $-1 -69.602954191717274 30.508087679302381 6.6744995924745929 #
coedge $-1 $300 $387 $302 $394 forward $291 $-1 #
straight-curve $-1 -69.602954191717274 0 6.6744995924745929 0 1 0 I I #
coedge $-1 $303 $302 $433 $438 forward $304 $-1 #
edge $-1 $439 -76.448330099330107 $305 -69.602954191717274 $302 $440 forward 7 unknown #
point $-1 -69.602954191717274 -30.508087679302381 6.6744995924745929 #
edge $-1 $397 -30.508087679302381 $385 30.508087679302381 $382 $441 forward 7 unknown #
vertex $-1 $396 $442 #
straight-curve $-1 -73.02564214552369 -30.508087679302381 3.6744995924745929 -1 0 0 I I #
edge $-1 $402 -43.110516870310185 $321 -9.8743577725040481 $320 $443 forward 7 unknown #
coedge $-1 $401 $314 $406 $444 reversed $311 $-1 #
coedge $-1 $314 $400 $316 $404 reversed $311 $-1 #
vertex $-1 $315 $445 #
straight-curve $-1 69.602954191717274 0.44729744452013698 29.678023476782993 0 0.7313536940579346 -0.68199836817093118 I I #
edge $-1 $317 25.115556130034037 $408 30.508087679302381 $401 $446 forward 7 unknown #
point $-1 69.602954191717302 25.115556130034037 6.6744995924745893 #
coedge $-1 $320 $319 $400 $444 forward $214 $-1 #
point $-1 36.366795093911165 30.508087679302378 1.6458824585329097 #
vertex $-1 $404 $447 #
straight-curve $-1 0 30.508087679302381 6.6744995924745929 -1 0 0 I I #
vertex $-1 $327 $448 #
point $-1 44.514026913472392 24.390164055776236 0.49091229350203502 #
vertex $-1 $331 $449 #
point $-1 54.484874642814233 24.390164055776236 0.49091229350203502 #
vertex $-1 $335 $450 #
point $-1 64.455722372156075 24.390164055776236 0.49091229350203502 #
edge $-1 $417 32.553707894369253 $420 36.588762407707115 $340 $451 forward 7 unknown #
vertex $-1 $354 $452 #
straight-curve $-1 44.838065419463376 -73.627993519422574 6.6744995924745893 0 -1 0 I I #
edge $-1 $420 18.700217584436317 $351 33.575478085617803 $350 $453 forward 7 unknown #
vertex $-1 $419 $454 #
straight-curve $-1 44.838065419463376 -30.508087679302363 2.6394450791367632 0 0.54463902268945019 0.83867057594974714 I I #
point $-1 44.838065419463376 -27.887692723685543 6.6744995924745929 #
point $-1 59.713325920644863 -30.508087679302381 2.6394450791367357 #
straight-curve $-1 0 -30.508087679302381 6.6744995924745929 1 0 0 I I #
vertex $-1 $357 $455 #
point $-1 50.088139848372364 -26.631558750987267 2.9903772588073876 #
vertex $-1 $361 $456 #
point $-1 56.463251491735861 -26.631558750987267 2.9903772588073876 #
straight-curve $-1 -69.602954191717274 30.508087679302381 0 0 0 -1 I I #
point $-1 -69.602954191717274 -30.508087679302381 -6.6744995924745929 #
straight-curve $-1 -69.602954191717274 0 -6.6744995924745929 0 1 0 I I #
point $-1 -69.602954191717274 30.508087679302381 -6.6744995924745929 #
coedge $-1 $383 $382 $393 $438 reversed $200 $-1 #
edge $-1 $388 -30.508087679302381 $439 30.508087679302381 $383 $457 forward 7 unknown #
straight-curve $-1 -76.448330099330107 30.508087679302381 5.1744995924745929 0 0 -1 I I #
point $-1 -76.448330099330107 30.508087679302381 3.6744995924745929 #
point $-1 -76.448330099330107 30.508087679302381 6.6744995924745929 #
edge $-1 $439 -1.5 $397 1.5 $433 $458 forward 7 unknown #
vertex $-1 $434 $459 #
straight-curve $-1 0 -30.508087679302381 6.6744995924745929 1 0 0 I I #
straight-curve $-1 -76.448330099330107 0 3.6744995924745929 0 1 0 I I #
point $-1 -76.448330099330107 -30.508087679302381 3.6744995924745929 #
straight-curve $-1 26.492437321407117 30.508087679302378 1.6458824585329062 -1 0 0 I I #
edge $-1 $408 -6.6744995924745929 $402 -1.6458824585329097 $400 $460 forward 7 unknown #
point $-1 69.602954191717302 30.508087679302378 1.6458824585329097 #
straight-curve $-1 69.602954191717274 0 6.6744995924745929 0 1 0 I I #
point $-1 69.602954191717274 30.508087679302381 6.6744995924745929 #
point $-1 43.014026913472392 23.367166503519837 -0.60611824758486688 #
point $-1 52.984874642814233 23.367166503519837 -0.60611824758486688 #
point $-1 62.955722372156075 23.367166503519837 -0.60611824758486688 #
straight-curve $-1 44.838065419463376 -30.508087679302378 39.22820748684385 0 0 -1 I I #
point $-1 44.838065419463376 -30.508087679302381 6.6744995924745929 #
straight-curve $-1 26.13784783502706 -30.508087679302381 2.6394450791367317 1 0 0 I I #
point $-1 44.838065419463376 -30.508087679302381 2.6394450791367357 #
point $-1 49.088139848372364 -25.792888175037518 2.4457382361179372 #
point $-1 55.463251491735861 -25.792888175037518 2.4457382361179372 #
straight-curve $-1 -76.448330099330107 0 6.6744995924745929 0 -1 0 I I #
straight-curve $-1 -76.448330099330107 -30.508087679302381 5.1744995924745929 0 0 -1 I I #
point $-1 -76.448330099330107 -30.508087679302381 6.6744995924745929 #
straight-curve $-1 69.602954191717274 30.508087679302381 0 0 0 -1 I I #
End-of-ACIS-data 