500 0 8 0           
7 Unknown 11 ACIS 5.0 NT 24 Thu Mar 25 18:32:08 1999 
-1 9.9999999999999995e-007 1e-010 
body $-1 $8 $-1 $9 #
body $-1 $10 $-1 $11 #
body $-1 $12 $-1 $13 #
body $-1 $14 $-1 $15 #
body $-1 $16 $-1 $17 #
body $-1 $18 $-1 $19 #
body $-1 $20 $-1 $21 #
body $-1 $22 $-1 $23 #
lump $-1 $-1 $24 $0 #
transform $-1 1 0 0 0 1 0 0 0 1 72.388683736686289 49.655407200670695 14.751445976546183 1 rotate no_reflect no_shear #
lump $-1 $-1 $25 $1 #
transform $-1 1 0 0 0 1 0 0 0 1 72.388683736686289 49.655407200670695 14.751445976546183 1 rotate no_reflect no_shear #
lump $-1 $-1 $26 $2 #
transform $-1 1 0 0 0 1 0 0 0 1 72.388683736686289 49.655407200670695 14.751445976546183 1 rotate no_reflect no_shear #
lump $-1 $-1 $27 $3 #
transform $-1 1 0 0 0 1 0 0 0 1 72.388683736686289 49.655407200670695 14.751445976546183 1 rotate no_reflect no_shear #
lump $-1 $-1 $28 $4 #
transform $-1 1 0 0 0 1 0 0 0 1 72.388683736686289 49.655407200670695 14.751445976546183 1 rotate no_reflect no_shear #
lump $-1 $-1 $29 $5 #
transform $-1 1 0 0 0 1 0 0 0 1 72.388683736686289 49.655407200670695 14.751445976546183 1 rotate no_reflect no_shear #
lump $-1 $-1 $30 $6 #
transform $-1 1 0 0 0 1 0 0 0 1 72.388683736686289 49.655407200670695 14.751445976546183 1 rotate no_reflect no_shear #
lump $-1 $-1 $31 $7 #
transform $-1 1 0 0 0 1 0 0 0 1 72.388683736686289 49.655407200670695 14.751445976546183 1 rotate no_reflect no_shear #
shell $-1 $-1 $-1 $32 $-1 $8 #
shell $-1 $-1 $-1 $33 $-1 $10 #
shell $-1 $-1 $-1 $34 $-1 $12 #
shell $-1 $-1 $-1 $35 $-1 $14 #
shell $-1 $-1 $-1 $36 $-1 $16 #
shell $-1 $-1 $-1 $37 $-1 $18 #
shell $-1 $-1 $-1 $38 $-1 $20 #
shell $-1 $-1 $-1 $39 $-1 $22 #
face $-1 $40 $41 $24 $-1 $42 forward single #
face $-1 $43 $44 $25 $-1 $45 forward single #
face $-1 $46 $47 $26 $-1 $48 reversed single #
face $-1 $49 $50 $27 $-1 $51 forward single #
face $-1 $52 $53 $28 $-1 $54 forward single #
face $-1 $55 $56 $29 $-1 $57 reversed single #
face $-1 $58 $59 $30 $-1 $60 forward single #
face $-1 $61 $62 $31 $-1 $63 forward single #
face $-1 $64 $65 $24 $-1 $66 reversed single #
loop $-1 $-1 $67 $32 #
plane-surface $-1 0 0 14.751445976546183 0 0 1 1 0 0 forward_v I I I I #
face $-1 $68 $69 $25 $-1 $70 reversed single #
loop $-1 $-1 $71 $33 #
plane-surface $-1 0 -49.655407200670695 0 0 1 0 0 0 1 forward_v I I I I #
face $-1 $72 $73 $26 $-1 $74 reversed single #
loop $-1 $-1 $75 $34 #
plane-surface $-1 61.673102151274236 32.310545567923775 211.66945297798961 0 1 0 0.66913061440640931 0 0.74314481823134659 forward_v I I I I #
face $-1 $76 $77 $27 $-1 $78 forward single #
loop $-1 $79 $80 $35 #
cone-surface $-1 65.917288376190186 37.26622032013718 8.4452549599797297 -0.66913061440640931 0 -0.74314481823134659 1.4862896364626932 0 -1.3382612288128186 1 I I 0 1 2 forward I I I I #
face $-1 $81 $82 $28 $-1 $83 forward single #
loop $-1 $84 $85 $36 #
cone-surface $-1 65.917288376190186 44.699732448457283 8.4452549599797297 -0.66913061440640931 0 -0.74314481823134659 1.4862896364626932 0 -1.3382612288128186 1 I I 0 1 2 forward I I I I #
face $-1 $86 $87 $29 $-1 $88 reversed single #
loop $-1 $-1 $89 $37 #
plane-surface $-1 -169.26365258628658 32.310545567923775 114.79448412838933 0 1 0 -0.66913061440640931 0 0.74314481823134659 forward_v I I I I #
face $-1 $90 $91 $30 $-1 $92 forward single #
loop $-1 $93 $94 $38 #
cone-surface $-1 -65.9172883761902 37.26622032013718 8.4452549599797262 0.66913061440640931 0 -0.74314481823134659 1.4862896364626932 0 1.3382612288128186 1 I I 0 1 2 forward I I I I #
face $-1 $95 $96 $31 $-1 $97 forward single #
loop $-1 $98 $99 $39 #
cone-surface $-1 -65.9172883761902 44.699732448457283 8.4452549599797262 0.66913061440640931 0 -0.74314481823134659 1.4862896364626932 0 1.3382612288128186 1 I I 0 1 2 forward I I I I #
face $-1 $100 $101 $24 $-1 $102 reversed single #
loop $-1 $-1 $103 $40 #
plane-surface $-1 0 0 -14.751445976546183 0 0 1 1 0 0 forward_v I I I I #
coedge $-1 $104 $105 $106 $107 forward $41 $-1 #
face $-1 $108 $109 $25 $-1 $110 reversed single #
loop $-1 $-1 $111 $43 #
plane-surface $-1 0 0 -14.751445976546183 0 0 1 1 0 0 forward_v I I I I #
coedge $-1 $112 $113 $114 $115 forward $44 $-1 #
face $-1 $116 $117 $26 $-1 $118 forward single #
loop $-1 $-1 $119 $46 #
plane-surface $-1 -35.201866698326057 40.982976384297231 104.07890254297727 0.66913061440640931 0 0.74314481823134659 0.74314481823134659 0 -0.66913061440640931 forward_v I I I I #
coedge $-1 $120 $121 $122 $123 reversed $47 $-1 #
face $-1 $-1 $124 $27 $-1 $125 forward single #
loop $-1 $126 $127 $49 #
cone-surface $-1 62.96794310877209 37.26622032013718 5.1696752667665287 -0.66913061440640931 0 -0.74314481823134659 0.74314481823134659 0 -0.66913061440640931 1 I I -0.70710678118654746 0.70710678118654746 1 forward I I I I #
loop $-1 $-1 $128 $35 #
coedge $-1 $80 $80 $129 $130 reversed $50 $-1 #
face $-1 $-1 $131 $28 $-1 $132 forward single #
loop $-1 $133 $134 $52 #
cone-surface $-1 62.96794310877209 44.699732448457283 5.1696752667665287 -0.66913061440640931 0 -0.74314481823134659 0.74314481823134659 0 -0.66913061440640931 1 I I -0.70710678118654746 0.70710678118654746 1 forward I I I I #
loop $-1 $-1 $135 $36 #
coedge $-1 $85 $85 $136 $137 reversed $53 $-1 #
face $-1 $138 $139 $29 $-1 $140 reversed single #
loop $-1 $-1 $141 $55 #
plane-surface $-1 -72.388683736686289 40.982976384297231 7.203933693376996 -0.66913061440640931 0 0.74314481823134659 0.74314481823134659 0 0.66913061440640931 forward_v I I I I #
coedge $-1 $142 $143 $144 $145 reversed $56 $-1 #
face $-1 $-1 $146 $30 $-1 $147 forward single #
loop $-1 $148 $149 $58 #
cone-surface $-1 -62.967943108772104 37.26622032013718 5.1696752667665251 0.66913061440640931 0 -0.74314481823134659 0.74314481823134659 0 0.66913061440640931 1 I I -0.70710678118654746 0.70710678118654746 1 forward I I I I #
loop $-1 $-1 $150 $38 #
coedge $-1 $94 $94 $151 $152 reversed $59 $-1 #
face $-1 $-1 $153 $31 $-1 $154 forward single #
loop $-1 $155 $156 $61 #
cone-surface $-1 -62.967943108772104 44.699732448457283 5.1696752667665251 0.66913061440640931 0 -0.74314481823134659 0.74314481823134659 0 0.66913061440640931 1 I I -0.70710678118654746 0.70710678118654746 1 forward I I I I #
loop $-1 $-1 $157 $39 #
coedge $-1 $99 $99 $158 $159 reversed $62 $-1 #
face $-1 $160 $161 $24 $-1 $162 reversed single #
loop $-1 $-1 $163 $64 #
plane-surface $-1 0 -49.655407200670695 0 0 1 0 0 0 1 forward_v I I I I #
coedge $-1 $164 $165 $166 $167 forward $65 $-1 #
coedge $-1 $168 $67 $169 $170 forward $41 $-1 #
coedge $-1 $67 $168 $171 $172 forward $41 $-1 #
coedge $-1 $173 $174 $67 $107 reversed $175 $-1 #
edge $-1 $176 -49.655407200670695 $177 49.655407200670695 $106 $178 forward 7 unknown #
face $-1 $179 $180 $25 $-1 $181 forward single #
loop $-1 $-1 $182 $68 #
plane-surface $-1 72.388683736686289 0 0 -1 0 0 0 0 1 forward_v I I I I #
coedge $-1 $183 $184 $185 $186 forward $69 $-1 #
coedge $-1 $185 $71 $182 $187 reversed $44 $-1 #
coedge $-1 $71 $185 $188 $189 reversed $44 $-1 #
coedge $-1 $190 $191 $71 $115 reversed $180 $-1 #
edge $-1 $192 -72.388683736686289 $193 72.388683736686289 $114 $194 forward 7 unknown #
face $-1 $195 $196 $26 $-1 $197 reversed single #
loop $-1 $-1 $198 $72 #
plane-surface $-1 0 0 14.751445976546183 0 0 1 1 0 0 forward_v I I I I #
coedge $-1 $199 $200 $201 $202 reversed $73 $-1 #
coedge $-1 $121 $75 $203 $204 reversed $47 $-1 #
coedge $-1 $75 $120 $199 $205 reversed $47 $-1 #
coedge $-1 $201 $206 $75 $123 forward $207 $-1 #
edge $-1 $208 91.083280512448624 $209 98.630792795617836 $122 $210 forward 7 unknown #
loop $-1 $-1 $129 $76 #
plane-surface $-1 -35.201866698326057 40.982976384297231 104.07890254297727 0.66913061440640931 0 0.74314481823134659 0.74314481823134659 0 -0.66913061440640931 forward_v I I I I #
loop $-1 $-1 $211 $49 #
coedge $-1 $127 $127 $128 $212 reversed $77 $-1 #
coedge $-1 $128 $128 $127 $212 forward $79 $-1 #
coedge $-1 $129 $129 $80 $130 forward $124 $-1 #
edge $-1 $213 0 $213 6.2831853071796004 $129 $214 forward 7 unknown #
loop $-1 $-1 $136 $81 #
plane-surface $-1 -35.201866698326057 40.982976384297231 104.07890254297727 0.66913061440640931 0 0.74314481823134659 0.74314481823134659 0 -0.66913061440640931 forward_v I I I I #
loop $-1 $-1 $215 $52 #
coedge $-1 $134 $134 $135 $216 reversed $82 $-1 #
coedge $-1 $135 $135 $134 $216 forward $84 $-1 #
coedge $-1 $136 $136 $85 $137 forward $131 $-1 #
edge $-1 $217 0 $217 6.2831853071796004 $136 $218 forward 7 unknown #
face $-1 $219 $220 $29 $-1 $221 reversed single #
loop $-1 $-1 $222 $86 #
plane-surface $-1 0 49.655407200670695 0 0 -1 0 0 0 -1 forward_v I I I I #
coedge $-1 $223 $224 $225 $226 reversed $87 $-1 #
coedge $-1 $143 $89 $227 $228 reversed $56 $-1 #
coedge $-1 $89 $142 $223 $229 reversed $56 $-1 #
coedge $-1 $225 $230 $89 $145 forward $231 $-1 #
edge $-1 $232 12.243142556457002 $233 20.625503971425758 $144 $234 forward 7 unknown #
loop $-1 $-1 $151 $90 #
plane-surface $-1 -72.388683736686289 40.982976384297231 7.203933693376996 -0.66913061440640931 0 0.74314481823134659 0.74314481823134659 0 0.66913061440640931 forward_v I I I I #
loop $-1 $-1 $235 $58 #
coedge $-1 $149 $149 $150 $236 reversed $91 $-1 #
coedge $-1 $150 $150 $149 $236 forward $93 $-1 #
coedge $-1 $151 $151 $94 $152 forward $146 $-1 #
edge $-1 $237 0 $237 6.2831853071796004 $151 $238 forward 7 unknown #
loop $-1 $-1 $158 $95 #
plane-surface $-1 -72.388683736686289 40.982976384297231 7.203933693376996 -0.66913061440640931 0 0.74314481823134659 0.74314481823134659 0 0.66913061440640931 forward_v I I I I #
loop $-1 $-1 $239 $61 #
coedge $-1 $156 $156 $157 $240 reversed $96 $-1 #
coedge $-1 $157 $157 $156 $240 forward $98 $-1 #
coedge $-1 $158 $158 $99 $159 forward $153 $-1 #
edge $-1 $241 0 $241 6.2831853071796004 $158 $242 forward 7 unknown #
face $-1 $243 $244 $24 $-1 $245 reversed single #
loop $-1 $-1 $246 $100 #
plane-surface $-1 -72.388683736686289 0 0 1 0 0 0 0 -1 forward_v I I I I #
coedge $-1 $247 $171 $248 $249 forward $101 $-1 #
coedge $-1 $250 $103 $247 $251 forward $65 $-1 #
coedge $-1 $103 $250 $252 $253 forward $65 $-1 #
coedge $-1 $174 $173 $103 $167 reversed $175 $-1 #
edge $-1 $254 -49.655407200670695 $255 49.655407200670695 $166 $256 forward 7 unknown #
coedge $-1 $105 $104 $257 $258 forward $41 $-1 #
coedge $-1 $259 $260 $104 $170 reversed $244 $-1 #
edge $-1 $177 -72.388683736686289 $261 72.388683736686289 $169 $262 forward 7 unknown #
coedge $-1 $163 $263 $105 $172 reversed $101 $-1 #
edge $-1 $264 -72.388683736686289 $176 72.388683736686289 $171 $265 forward 7 unknown #
coedge $-1 $166 $106 $263 $266 forward $175 $-1 #
coedge $-1 $106 $166 $259 $267 reversed $175 $-1 #
loop $-1 $-1 $173 $243 #
vertex $-1 $107 $268 #
vertex $-1 $107 $269 #
straight-curve $-1 72.388683736686289 0 14.751445976546183 0 1 0 I I #
face $-1 $270 $271 $25 $-1 $272 reversed single #
loop $-1 $-1 $191 $108 #
plane-surface $-1 0 -58.586593566977314 -10.514507634199713 0 0 1 1 0 0 forward_v I I I I #
coedge $-1 $273 $274 $112 $187 forward $109 $-1 #
coedge $-1 $275 $111 $274 $276 forward $69 $-1 #
coedge $-1 $111 $275 $277 $278 forward $69 $-1 #
coedge $-1 $113 $112 $111 $186 reversed $44 $-1 #
edge $-1 $279 -72.388683736686289 $280 72.388683736686289 $111 $281 forward 7 unknown #
edge $-1 $280 -14.751445976546183 $193 -10.514507634199713 $182 $282 forward 7 unknown #
coedge $-1 $277 $283 $113 $189 forward $284 $-1 #
edge $-1 $192 10.514507634199713 $279 14.751445976546183 $188 $285 forward 7 unknown #
coedge $-1 $286 $114 $283 $287 forward $180 $-1 #
coedge $-1 $114 $286 $273 $288 forward $180 $-1 #
vertex $-1 $189 $289 #
vertex $-1 $288 $290 #
straight-curve $-1 0 -49.655407200670695 -10.514507634199713 1 0 0 I I #
face $-1 $-1 $207 $26 $-1 $291 reversed single #
loop $-1 $-1 $292 $116 #
plane-surface $-1 0 49.655407200670695 0 0 -1 0 0 0 -1 forward_v I I I I #
coedge $-1 $203 $293 $294 $295 forward $117 $-1 #
coedge $-1 $294 $119 $121 $205 forward $73 $-1 #
coedge $-1 $119 $294 $292 $296 reversed $73 $-1 #
coedge $-1 $297 $122 $119 $202 forward $207 $-1 #
edge $-1 $209 11.819057375775159 $298 29.163919008522079 $201 $299 forward 7 unknown #
coedge $-1 $300 $198 $120 $204 forward $117 $-1 #
edge $-1 $301 33.169771246080387 $208 41.552132661049171 $203 $302 forward 7 unknown #
edge $-1 $209 -144.77736747337261 $301 -133.49778749201923 $121 $303 forward 7 unknown #
coedge $-1 $122 $297 $300 $304 reversed $207 $-1 #
loop $-1 $-1 $201 $195 #
vertex $-1 $304 $305 #
vertex $-1 $123 $306 #
straight-curve $-1 72.388683736686289 32.310545567923775 105.8347264889948 0 0 -1 I I #
coedge $-1 $211 $211 $-1 $307 reversed $126 $-1 #
edge $-1 $308 0 $308 6.2831853071796004 $127 $309 forward 7 unknown #
vertex $-1 $130 $310 #
ellipse-curve $-1 68.197503029201883 37.26622032013718 10.977689834961584 0.66913061440640931 0 0.74314481823134659 1.4862896364626932 0 -1.3382612288128186 1 I I #
coedge $-1 $215 $215 $-1 $311 reversed $133 $-1 #
edge $-1 $312 0 $312 6.2831853071796004 $134 $313 forward 7 unknown #
vertex $-1 $137 $314 #
ellipse-curve $-1 68.197503029201883 44.699732448457283 10.977689834961584 0.66913061440640931 0 0.74314481823134659 1.4862896364626932 0 -1.3382612288128186 1 I I #
face $-1 $-1 $231 $29 $-1 $315 forward single #
loop $-1 $-1 $316 $138 #
plane-surface $-1 -72.388683736686289 0 0 1 0 0 0 0 -1 forward_v I I I I #
coedge $-1 $317 $318 $224 $319 forward $139 $-1 #
coedge $-1 $320 $141 $143 $229 forward $87 $-1 #
coedge $-1 $141 $320 $222 $319 reversed $87 $-1 #
coedge $-1 $321 $144 $141 $226 forward $231 $-1 #
edge $-1 $233 11.819057375775159 $322 29.163919008522072 $225 $323 forward 7 unknown #
coedge $-1 $324 $316 $142 $228 forward $220 $-1 #
edge $-1 $325 -50.193308370817668 $232 -42.645796087648478 $227 $326 forward 7 unknown #
edge $-1 $233 -11.279579981353329 $325 0 $143 $327 forward 7 unknown #
coedge $-1 $144 $321 $324 $328 forward $231 $-1 #
loop $-1 $-1 $225 $219 #
vertex $-1 $228 $329 #
vertex $-1 $145 $330 #
straight-curve $-1 -84.631826293143291 32.310545567923775 14.751445976546179 1 0 0 I I #
coedge $-1 $235 $235 $-1 $331 reversed $148 $-1 #
edge $-1 $332 0 $332 6.2831853071796004 $149 $333 forward 7 unknown #
vertex $-1 $152 $334 #
ellipse-curve $-1 -68.197503029201911 37.26622032013718 10.977689834961595 -0.66913061440640931 0 0.74314481823134659 1.4862896364626932 0 1.3382612288128186 1 I I #
coedge $-1 $239 $239 $-1 $335 reversed $155 $-1 #
edge $-1 $336 0 $336 6.2831853071796004 $156 $337 forward 7 unknown #
vertex $-1 $159 $338 #
ellipse-curve $-1 -68.197503029201911 44.699732448457283 10.977689834961595 -0.66913061440640931 0 0.74314481823134659 1.4862896364626932 0 1.3382612288128186 1 I I #
face $-1 $-1 $175 $24 $-1 $339 reversed single #
loop $-1 $-1 $259 $160 #
plane-surface $-1 0 49.655407200670695 0 0 -1 0 0 0 -1 forward_v I I I I #
coedge $-1 $340 $257 $260 $341 forward $161 $-1 #
coedge $-1 $263 $163 $164 $251 reversed $101 $-1 #
coedge $-1 $257 $340 $163 $249 reversed $161 $-1 #
edge $-1 $264 -14.751445976546183 $342 14.751445976546183 $248 $343 forward 7 unknown #
coedge $-1 $165 $164 $340 $344 forward $65 $-1 #
edge $-1 $255 -72.388683736686289 $342 72.388683736686289 $247 $345 forward 7 unknown #
coedge $-1 $260 $259 $165 $253 reversed $244 $-1 #
edge $-1 $346 -72.388683736686289 $254 72.388683736686289 $252 $347 forward 7 unknown #
vertex $-1 $167 $348 #
vertex $-1 $266 $349 #
straight-curve $-1 72.388683736686289 0 -14.751445976546183 0 -1 0 I I #
coedge $-1 $246 $248 $168 $258 reversed $161 $-1 #
edge $-1 $261 -49.655407200670695 $264 49.655407200670695 $257 $350 forward 7 unknown #
coedge $-1 $252 $169 $174 $267 forward $244 $-1 #
coedge $-1 $169 $252 $246 $341 reversed $244 $-1 #
vertex $-1 $170 $351 #
straight-curve $-1 0 49.655407200670695 14.751445976546183 -1 0 0 I I #
coedge $-1 $171 $247 $173 $266 reversed $101 $-1 #
vertex $-1 $258 $352 #
straight-curve $-1 0 -49.655407200670695 14.751445976546183 1 0 0 I I #
edge $-1 $176 -14.751445976546183 $255 14.751445976546183 $173 $353 forward 7 unknown #
edge $-1 $177 -14.751445976546183 $254 14.751445976546183 $174 $354 forward 7 unknown #
point $-1 72.388683736686289 -49.655407200670695 14.751445976546183 #
point $-1 72.388683736686289 49.655407200670695 14.751445976546183 #
face $-1 $-1 $284 $25 $-1 $355 reversed single #
loop $-1 $-1 $356 $179 #
plane-surface $-1 0 -67.517779933283933 -12.632976805372948 0 1 0 0 0 1 forward_v I I I I #
coedge $-1 $357 $182 $191 $288 reversed $109 $-1 #
coedge $-1 $182 $357 $183 $276 reversed $109 $-1 #
coedge $-1 $184 $183 $358 $359 forward $69 $-1 #
edge $-1 $280 49.655407200670695 $360 67.517779933283933 $274 $361 forward 7 unknown #
coedge $-1 $362 $188 $184 $278 reversed $284 $-1 #
edge $-1 $363 -67.517779933283933 $279 -49.655407200670695 $277 $364 forward 7 unknown #
vertex $-1 $189 $365 #
vertex $-1 $276 $366 #
straight-curve $-1 0 -49.655407200670695 -14.751445976546183 1 0 0 I I #
straight-curve $-1 72.388683736686289 -49.655407200670695 0 0 0 1 I I #
coedge $-1 $188 $362 $190 $287 reversed $284 $-1 #
loop $-1 $-1 $188 $270 #
straight-curve $-1 -72.388683736686289 -49.655407200670695 0 0 0 -1 I I #
coedge $-1 $191 $190 $367 $368 forward $180 $-1 #
edge $-1 $192 -8.9311863663066191 $369 8.9311863663066191 $283 $370 forward 7 unknown #
edge $-1 $371 -8.9311863663066191 $193 8.9311863663066191 $273 $372 forward 7 unknown #
point $-1 -72.388683736686289 -49.655407200670695 -10.514507634199713 #
point $-1 72.388683736686289 -49.655407200670695 -10.514507634199713 #
plane-surface $-1 72.388683736686289 0 0 -1 0 0 0 0 1 forward_v I I I I #
coedge $-1 $373 $374 $200 $296 forward $196 $-1 #
coedge $-1 $198 $300 $373 $375 forward $117 $-1 #
coedge $-1 $200 $199 $198 $295 reversed $73 $-1 #
edge $-1 $376 -29.163919008522072 $301 -11.819057375775159 $198 $377 forward 7 unknown #
edge $-1 $298 -96.8761350562432 $376 -85.596555074889835 $292 $378 forward 7 unknown #
coedge $-1 $206 $201 $374 $379 reversed $207 $-1 #
vertex $-1 $202 $380 #
straight-curve $-1 72.388683736686289 20.491488192148616 7.2039336933769746 0 1 0 I I #
coedge $-1 $293 $203 $206 $304 forward $117 $-1 #
vertex $-1 $204 $381 #
straight-curve $-1 30.836551075637118 32.310545567923775 14.751445976546179 1 0 0 I I #
straight-curve $-1 -35.201866698326057 32.310545567923775 104.07890254297727 -0.74314481823134659 0 0.66913061440640931 I I #
edge $-1 $208 32.310545567923775 $382 49.655407200670695 $206 $383 forward 7 unknown #
point $-1 72.388683736686289 32.310545567923775 14.751445976546183 #
point $-1 72.388683736686303 32.310545567923775 7.2039336933769675 #
edge $-1 $384 1 $384 0 $211 $-1 forward 7 unknown #
vertex $-1 $212 $385 #
ellipse-curve $-1 63.637073723178503 37.26622032013718 5.9128200849978754 0.66913061440640931 0 0.74314481823134659 1.4862896364626932 0 -1.3382612288128186 1 I I #
point $-1 69.683792665664569 37.26622032013718 9.6394286061487637 #
edge $-1 $386 1 $386 0 $215 $-1 forward 7 unknown #
vertex $-1 $216 $387 #
ellipse-curve $-1 63.637073723178503 44.699732448457283 5.9128200849978754 0.66913061440640931 0 0.74314481823134659 1.4862896364626932 0 -1.3382612288128186 1 I I #
point $-1 69.683792665664569 44.699732448457283 9.6394286061487637 #
plane-surface $-1 0 0 14.751445976546183 0 0 1 1 0 0 forward_v I I I I #
coedge $-1 $227 $388 $320 $389 forward $220 $-1 #
coedge $-1 $318 $222 $388 $390 reversed $139 $-1 #
coedge $-1 $222 $317 $321 $391 reversed $139 $-1 #
edge $-1 $322 13.207871338203567 $392 24.487451319556897 $222 $393 forward 7 unknown #
coedge $-1 $224 $223 $316 $389 reversed $87 $-1 #
coedge $-1 $230 $225 $318 $391 forward $231 $-1 #
vertex $-1 $391 $394 #
straight-curve $-1 -64.006322321717533 20.491488192148616 14.751445976546183 0 1 0 I I #
coedge $-1 $388 $227 $230 $328 reversed $220 $-1 #
vertex $-1 $228 $395 #
straight-curve $-1 -72.388683736686289 32.310545567923775 57.397242064194664 0 0 1 I I #
straight-curve $-1 -72.388683736686289 32.310545567923775 7.203933693376996 -0.74314481823134659 0 -0.66913061440640931 I I #
edge $-1 $396 -49.655407200670695 $232 -32.310545567923775 $324 $397 forward 7 unknown #
point $-1 -72.388683736686289 32.310545567923775 14.751445976546183 #
point $-1 -64.006322321717533 32.310545567923775 14.751445976546183 #
edge $-1 $398 1 $398 0 $235 $-1 forward 7 unknown #
vertex $-1 $236 $399 #
ellipse-curve $-1 -63.637073723178517 37.26622032013718 5.9128200849978718 -0.66913061440640931 0 0.74314481823134659 1.4862896364626932 0 1.3382612288128186 1 I I #
point $-1 -66.711213392739197 37.26622032013718 12.315951063774397 #
edge $-1 $400 1 $400 0 $239 $-1 forward 7 unknown #
vertex $-1 $240 $401 #
ellipse-curve $-1 -63.637073723178517 44.699732448457283 5.9128200849978718 -0.66913061440640931 0 0.74314481823134659 1.4862896364626932 0 1.3382612288128186 1 I I #
point $-1 -66.711213392739197 44.699732448457283 12.315951063774397 #
plane-surface $-1 72.388683736686289 0 0 -1 0 0 0 0 1 forward_v I I I I #
coedge $-1 $248 $246 $250 $344 reversed $161 $-1 #
edge $-1 $261 -14.751445976546183 $346 14.751445976546183 $260 $402 forward 7 unknown #
vertex $-1 $344 $403 #
straight-curve $-1 -72.388683736686289 -49.655407200670695 0 0 0 -1 I I #
edge $-1 $342 -49.655407200670695 $346 49.655407200670695 $340 $404 forward 7 unknown #
straight-curve $-1 0 -49.655407200670695 -14.751445976546183 -1 0 0 I I #
vertex $-1 $253 $405 #
straight-curve $-1 0 49.655407200670695 -14.751445976546183 1 0 0 I I #
point $-1 72.388683736686289 49.655407200670695 -14.751445976546183 #
point $-1 72.388683736686289 -49.655407200670695 -14.751445976546183 #
straight-curve $-1 -72.388683736686289 0 14.751445976546183 0 -1 0 I I #
point $-1 -72.388683736686289 49.655407200670695 14.751445976546183 #
point $-1 -72.388683736686289 -49.655407200670695 14.751445976546183 #
straight-curve $-1 72.388683736686289 -49.655407200670695 0 0 0 -1 I I #
straight-curve $-1 72.388683736686289 49.655407200670695 0 0 0 -1 I I #
plane-surface $-1 -72.388683736686289 0 0 1 0 0 0 0 -1 forward_v I I I I #
coedge $-1 $358 $367 $362 $406 forward $271 $-1 #
coedge $-1 $274 $273 $407 $408 forward $109 $-1 #
coedge $-1 $407 $356 $275 $359 reversed $271 $-1 #
edge $-1 $360 -72.388683736686289 $363 72.388683736686289 $358 $409 forward 7 unknown #
vertex $-1 $408 $410 #
straight-curve $-1 72.388683736686289 0 -14.751445976546183 0 -1 0 I I #
coedge $-1 $283 $277 $356 $406 reversed $284 $-1 #
vertex $-1 $278 $411 #
straight-curve $-1 -72.388683736686289 0 -14.751445976546183 0 1 0 I I #
point $-1 -72.388683736686289 -49.655407200670695 -14.751445976546183 #
point $-1 72.388683736686289 -49.655407200670695 -14.751445976546183 #
coedge $-1 $356 $407 $286 $368 reversed $271 $-1 #
edge $-1 $369 -72.388683736686289 $371 72.388683736686289 $367 $412 forward 7 unknown #
vertex $-1 $287 $413 #
straight-curve $-1 -72.388683736686289 -58.586593566977314 -10.514507634199713 0 -1 0 I I #
vertex $-1 $288 $414 #
straight-curve $-1 72.388683736686289 -58.586593566977314 -10.514507634199713 0 1 0 I I #
coedge $-1 $374 $292 $293 $375 reversed $196 $-1 #
coedge $-1 $292 $373 $297 $379 forward $196 $-1 #
edge $-1 $382 -72.388683736686289 $376 -64.006322321717505 $373 $415 forward 7 unknown #
vertex $-1 $295 $416 #
straight-curve $-1 64.006322321717533 20.491488192148616 14.751445976546172 0 -1 0 I I #
straight-curve $-1 0.39568595935905293 49.655407200670695 72.026721464879273 -0.74314481823134659 0 0.66913061440640931 I I #
edge $-1 $382 -14.751445976546183 $298 -7.2039336933769729 $297 $417 forward 7 unknown #
point $-1 72.388683736686289 49.655407200670695 7.2039336933769729 #
point $-1 64.006322321717505 32.310545567923775 14.751445976546179 #
vertex $-1 $304 $418 #
straight-curve $-1 72.388683736686289 0 14.751445976546183 0 1 0 I I #
vertex $-1 $307 $419 #
point $-1 65.123363359641189 37.26622032013718 4.5745588561850568 #
vertex $-1 $311 $420 #
point $-1 65.123363359641189 44.699732448457283 4.5745588561850568 #
coedge $-1 $316 $324 $317 $390 forward $220 $-1 #
edge $-1 $392 -29.163919008522072 $325 -11.819057375775159 $316 $421 forward 7 unknown #
edge $-1 $396 -14.751445976546183 $392 -7.203933693376996 $317 $422 forward 7 unknown #
edge $-1 $322 64.006322321717533 $396 72.388683736686289 $318 $423 forward 7 unknown #
vertex $-1 $389 $424 #
straight-curve $-1 -54.19096117686523 49.655407200670695 23.589237040079137 -0.74314481823134659 0 -0.66913061440640931 I I #
point $-1 -64.006322321717533 49.655407200670687 14.751445976546183 #
point $-1 -72.388683736686289 32.310545567923775 7.203933693376996 #
vertex $-1 $391 $425 #
straight-curve $-1 -72.388683736686289 0 14.751445976546183 0 -1 0 I I #
vertex $-1 $331 $426 #
point $-1 -62.150784086715824 37.26622032013718 7.2510813138106904 #
vertex $-1 $335 $427 #
point $-1 -62.150784086715824 44.699732448457283 7.2510813138106904 #
straight-curve $-1 -72.388683736686289 49.655407200670695 0 0 0 -1 I I #
point $-1 -72.388683736686289 -49.655407200670695 -14.751445976546183 #
straight-curve $-1 -72.388683736686289 0 -14.751445976546183 0 1 0 I I #
point $-1 -72.388683736686289 49.655407200670695 -14.751445976546183 #
edge $-1 $369 -2.1184691711732349 $363 2.1184691711732349 $362 $428 forward 7 unknown #
coedge $-1 $367 $358 $357 $408 reversed $271 $-1 #
edge $-1 $371 -2.1184691711732349 $360 2.1184691711732349 $357 $429 forward 7 unknown #
straight-curve $-1 0 -67.517779933283933 -14.751445976546183 -1 0 0 I I #
point $-1 72.388683736686289 -67.517779933283933 -14.751445976546183 #
point $-1 -72.388683736686289 -67.517779933283933 -14.751445976546183 #
straight-curve $-1 0 -67.517779933283933 -10.514507634199713 1 0 0 I I #
point $-1 -72.388683736686289 -67.517779933283933 -10.514507634199713 #
point $-1 72.388683736686289 -67.517779933283933 -10.514507634199713 #
straight-curve $-1 0 49.655407200670695 14.751445976546183 -1 0 0 I I #
point $-1 64.006322321717505 49.655407200670687 14.751445976546179 #
straight-curve $-1 72.388683736686289 49.655407200670695 0 0 0 -1 I I #
point $-1 72.388683736686289 49.655407200670695 14.751445976546183 #
point $-1 62.298812494365677 37.26622032013718 4.426530448535182 #
point $-1 62.298812494365677 44.699732448457283 4.426530448535182 #
straight-curve $-1 -72.388683736686289 20.491488192148616 7.2039336933769906 0 -1 0 I I #
straight-curve $-1 -72.388683736686289 49.655407200670695 0 0 0 -1 I I #
straight-curve $-1 0 49.655407200670695 14.751445976546183 -1 0 0 I I #
point $-1 -72.388683736686289 49.655407200670687 7.203933693376996 #
point $-1 -72.388683736686289 49.655407200670695 14.751445976546183 #
point $-1 -62.298812494365691 37.26622032013718 4.4265304485351784 #
point $-1 -62.298812494365691 44.699732448457283 4.4265304485351784 #
straight-curve $-1 -72.388683736686289 -67.517779933283933 -12.632976805372948 0 0 -1 I I #
straight-curve $-1 72.388683736686289 -67.517779933283933 -12.632976805372948 0 0 -1 I I #
End-of-ACIS-data 