500 0 11 0           
7 Unknown 11 ACIS 5.0 NT 24 Fri Mar 26 15:06:49 1999 
-1 9.9999999999999995e-007 1e-010 
body $-1 $11 $-1 $12 #
body $-1 $13 $-1 $14 #
body $-1 $15 $-1 $16 #
body $-1 $17 $-1 $18 #
body $-1 $19 $-1 $20 #
body $-1 $21 $-1 $22 #
body $-1 $23 $-1 $24 #
body $-1 $25 $-1 $26 #
body $-1 $27 $-1 $28 #
body $-1 $29 $-1 $30 #
body $-1 $31 $-1 $32 #
lump $-1 $-1 $33 $0 #
transform $-1 1 0 0 0 1 0 0 0 1 74.294259468367557 40.820010098965682 12.662960864710422 1 rotate no_reflect no_shear #
lump $-1 $-1 $34 $1 #
transform $-1 1 0 0 0 1 0 0 0 1 74.294259468367557 40.820010098965682 12.662960864710422 1 rotate no_reflect no_shear #
lump $-1 $-1 $35 $2 #
transform $-1 1 0 0 0 1 0 0 0 1 74.294259468367557 40.820010098965682 12.662960864710422 1 rotate no_reflect no_shear #
lump $-1 $-1 $36 $3 #
transform $-1 1 0 0 0 1 0 0 0 1 74.294259468367557 40.820010098965682 12.662960864710422 1 rotate no_reflect no_shear #
lump $-1 $-1 $37 $4 #
transform $-1 1 0 0 0 1 0 0 0 1 74.294259468367557 40.820010098965682 12.662960864710422 1 rotate no_reflect no_shear #
lump $-1 $-1 $38 $5 #
transform $-1 1 0 0 0 1 0 0 0 1 74.294259468367557 40.820010098965682 12.662960864710422 1 rotate no_reflect no_shear #
lump $-1 $-1 $39 $6 #
transform $-1 1 0 0 0 1 0 0 0 1 74.294259468367557 40.820010098965682 12.662960864710422 1 rotate no_reflect no_shear #
lump $-1 $-1 $40 $7 #
transform $-1 1 0 0 0 1 0 0 0 1 74.294259468367557 40.820010098965682 12.662960864710422 1 rotate no_reflect no_shear #
lump $-1 $-1 $41 $8 #
transform $-1 1 0 0 0 1 0 0 0 1 74.294259468367557 40.820010098965682 12.662960864710422 1 rotate no_reflect no_shear #
lump $-1 $-1 $42 $9 #
transform $-1 1 0 0 0 1 0 0 0 1 74.294259468367557 40.820010098965682 12.662960864710422 1 rotate no_reflect no_shear #
lump $-1 $-1 $43 $10 #
transform $-1 1 0 0 0 1 0 0 0 1 74.294259468367557 40.820010098965682 12.662960864710422 1 rotate no_reflect no_shear #
shell $-1 $-1 $-1 $44 $-1 $11 #
shell $-1 $-1 $-1 $45 $-1 $13 #
shell $-1 $-1 $-1 $46 $-1 $15 #
shell $-1 $-1 $-1 $47 $-1 $17 #
shell $-1 $-1 $-1 $48 $-1 $19 #
shell $-1 $-1 $-1 $49 $-1 $21 #
shell $-1 $-1 $-1 $50 $-1 $23 #
shell $-1 $-1 $-1 $51 $-1 $25 #
shell $-1 $-1 $-1 $52 $-1 $27 #
shell $-1 $-1 $-1 $53 $-1 $29 #
shell $-1 $-1 $-1 $54 $-1 $31 #
face $-1 $55 $56 $33 $-1 $57 forward single #
face $-1 $58 $59 $34 $-1 $60 reversed single #
face $-1 $61 $62 $35 $-1 $63 reversed single #
face $-1 $64 $65 $36 $-1 $66 forward single #
face $-1 $67 $68 $37 $-1 $69 forward single #
face $-1 $70 $71 $38 $-1 $72 reversed single #
face $-1 $73 $74 $39 $-1 $75 forward single #
face $-1 $76 $77 $40 $-1 $78 forward single #
face $-1 $79 $80 $41 $-1 $81 reversed single #
face $-1 $82 $83 $42 $-1 $84 forward single #
face $-1 $85 $86 $43 $-1 $87 forward single #
face $-1 $88 $89 $33 $-1 $90 reversed single #
loop $-1 $-1 $91 $44 #
plane-surface $-1 0 0 12.662960864710422 0 0 1 1 0 0 forward_v I I I I #
face $-1 $92 $93 $34 $-1 $94 reversed single #
loop $-1 $-1 $95 $45 #
plane-surface $-1 -68.419460273630847 -23.283262309002865 0 0 1 0 0 0 1 forward_v I I I I #
face $-1 $96 $97 $35 $-1 $98 reversed single #
loop $-1 $-1 $99 $46 #
plane-surface $-1 5.8747991947366955 -144.03826974506126 107.37900067280859 -1 0 0 0 -0.69465837861970381 0.71933979245794832 forward_v I I I I #
face $-1 $100 $101 $36 $-1 $102 forward single #
loop $-1 $103 $104 $47 #
cone-surface $-1 -12.161862624887412 -32.019587875537781 3.9899277699852362 0 0.69465837861970381 -0.71933979245794832 2 0 0 1 I I 0 1 2 forward I I I I #
face $-1 $105 $106 $37 $-1 $107 forward single #
loop $-1 $108 $109 $48 #
cone-surface $-1 -1.3398655331129419 -32.019587875537781 3.9899277699852362 0 0.69465837861970381 -0.71933979245794832 2 0 0 1 I I 0 1 2 forward I I I I #
face $-1 $110 $111 $38 $-1 $112 reversed single #
loop $-1 $-1 $113 $49 #
plane-surface $-1 -6.7508640790001806 -40.820010098965682 0.49336629922362363 0 -0.69465837861970381 0.71933979245794832 1 0 0 forward_v I I I I #
face $-1 $114 $115 $39 $-1 $116 forward single #
loop $-1 $117 $118 $50 #
cone-surface $-1 13.089463922586333 -32.019587875537781 3.9899277699852362 0 0.69465837861970381 -0.71933979245794832 2 0 0 1 I I 0 1 2 forward I I I I #
face $-1 $119 $120 $40 $-1 $121 forward single #
loop $-1 $122 $123 $51 #
cone-surface $-1 23.91146101436081 -32.019587875537781 3.9899277699852362 0 0.69465837861970381 -0.71933979245794832 2 0 0 1 I I 0 1 2 forward I I I I #
face $-1 $124 $125 $41 $-1 $126 reversed single #
loop $-1 $-1 $127 $52 #
plane-surface $-1 45.805187167535472 102.16822794148813 159.15897298555541 1 0 0 0 -0.7660444514056185 -0.64278759981090561 forward_v I I I I #
face $-1 $128 $129 $42 $-1 $130 forward single #
loop $-1 $131 $132 $53 #
cone-surface $-1 53.94492211063033 34.742368415497062 5.85362338997228 0 -0.7660444514056185 -0.64278759981090561 2.5 0 0 1 I I 0 1 2.5 forward I I I I #
face $-1 $133 $134 $43 $-1 $135 forward single #
loop $-1 $136 $137 $54 #
cone-surface $-1 66.154524525272649 34.742368415497062 5.85362338997228 0 -0.7660444514056185 -0.64278759981090561 2.5 0 0 1 I I 0 1 2.5 forward I I I I #
face $-1 $138 $139 $33 $-1 $140 reversed single #
loop $-1 $-1 $141 $55 #
plane-surface $-1 0 0 -12.662960864710422 0 0 1 1 0 0 forward_v I I I I #
coedge $-1 $142 $143 $144 $145 forward $56 $-1 #
face $-1 $146 $147 $34 $-1 $148 reversed single #
loop $-1 $-1 $149 $58 #
plane-surface $-1 -68.419460273630847 -18.01271594024486 0 0 -1 0 0 0 -1 forward_v I I I I #
coedge $-1 $150 $151 $152 $153 reversed $59 $-1 #
face $-1 $154 $155 $35 $-1 $156 reversed single #
loop $-1 $-1 $157 $61 #
plane-surface $-1 -6.7508640790001806 -40.820010098965682 0.49336629922362363 0 -0.69465837861970381 0.71933979245794832 1 0 0 forward_v I I I I #
coedge $-1 $158 $159 $160 $161 reversed $62 $-1 #
face $-1 $-1 $162 $36 $-1 $163 forward single #
loop $-1 $164 $165 $64 #
cone-surface $-1 -12.161862624887412 -28.825499169988369 0.68235216554550249 0 0.69465837861970381 -0.71933979245794832 1 0 0 1 I I -0.70710678118654746 0.70710678118654746 1 forward I I I I #
loop $-1 $-1 $166 $47 #
coedge $-1 $104 $104 $167 $168 reversed $65 $-1 #
face $-1 $-1 $169 $37 $-1 $170 forward single #
loop $-1 $171 $172 $67 #
cone-surface $-1 -1.3398655331129419 -28.825499169988369 0.68235216554550249 0 0.69465837861970381 -0.71933979245794832 1 0 0 1 I I -0.70710678118654746 0.70710678118654746 1 forward I I I I #
loop $-1 $-1 $173 $48 #
coedge $-1 $109 $109 $174 $175 reversed $68 $-1 #
face $-1 $176 $177 $38 $-1 $178 reversed single #
loop $-1 $-1 $179 $70 #
plane-surface $-1 31.126125742210448 -144.03826974506126 107.37900067280859 -1 0 0 0 -0.69465837861970381 0.71933979245794832 forward_v I I I I #
coedge $-1 $180 $181 $182 $183 reversed $71 $-1 #
face $-1 $-1 $184 $39 $-1 $185 forward single #
loop $-1 $186 $187 $73 #
cone-surface $-1 13.089463922586333 -28.825499169988369 0.68235216554550249 0 0.69465837861970381 -0.71933979245794832 1 0 0 1 I I -0.70710678118654746 0.70710678118654746 1 forward I I I I #
loop $-1 $-1 $188 $50 #
coedge $-1 $118 $118 $189 $190 reversed $74 $-1 #
face $-1 $-1 $191 $40 $-1 $192 forward single #
loop $-1 $193 $194 $76 #
cone-surface $-1 23.91146101436081 -28.825499169988369 0.68235216554550249 0 0.69465837861970381 -0.71933979245794832 1 0 0 1 I I -0.70710678118654746 0.70710678118654746 1 forward I I I I #
loop $-1 $-1 $195 $51 #
coedge $-1 $123 $123 $196 $197 reversed $77 $-1 #
face $-1 $198 $199 $41 $-1 $200 forward single #
loop $-1 $-1 $201 $79 #
plane-surface $-1 60.049723317951504 -11.657182532576485 63.648115538754155 0 0.7660444514056185 0.64278759981090561 1 0 0 forward_v I I I I #
coedge $-1 $202 $203 $204 $205 reversed $80 $-1 #
face $-1 $-1 $206 $42 $-1 $207 forward single #
loop $-1 $208 $209 $82 #
cone-surface $-1 53.94492211063033 32.55495580232629 4.0181663210826226 0 -0.7660444514056185 -0.64278759981090561 1.25 0 0 1 I I -0.70710678118654746 0.70710678118654746 1.25 forward I I I I #
loop $-1 $-1 $210 $53 #
coedge $-1 $132 $132 $211 $212 reversed $83 $-1 #
face $-1 $-1 $213 $43 $-1 $214 forward single #
loop $-1 $215 $216 $85 #
cone-surface $-1 66.154524525272649 32.55495580232629 4.0181663210826226 0 -0.7660444514056185 -0.64278759981090561 1.25 0 0 1 I I -0.70710678118654746 0.70710678118654746 1.25 forward I I I I #
loop $-1 $-1 $217 $54 #
coedge $-1 $137 $137 $218 $219 reversed $86 $-1 #
face $-1 $220 $221 $33 $-1 $222 reversed single #
loop $-1 $-1 $223 $88 #
plane-surface $-1 0 -40.820010098965682 0 0 1 0 0 0 1 forward_v I I I I #
coedge $-1 $224 $225 $226 $227 forward $89 $-1 #
coedge $-1 $228 $91 $229 $230 forward $56 $-1 #
coedge $-1 $91 $228 $231 $232 forward $56 $-1 #
coedge $-1 $233 $234 $91 $145 reversed $235 $-1 #
edge $-1 $236 -40.820010098965682 $237 40.820010098965682 $144 $238 forward 7 unknown #
face $-1 $239 $240 $34 $-1 $241 reversed single #
loop $-1 $-1 $242 $92 #
plane-surface $-1 -62.544661078894144 -20.647989124623862 0 -1 0 0 0 0 1 forward_v I I I I #
coedge $-1 $243 $244 $245 $246 forward $93 $-1 #
coedge $-1 $247 $95 $248 $249 reversed $59 $-1 #
coedge $-1 $95 $247 $250 $251 reversed $59 $-1 #
coedge $-1 $252 $253 $95 $153 forward $254 $-1 #
edge $-1 $255 -12.662960864710422 $256 12.662960864710422 $152 $257 forward 7 unknown #
face $-1 $258 $259 $35 $-1 $260 reversed single #
loop $-1 $-1 $261 $96 #
plane-surface $-1 -19.376527352737057 -144.03826974506126 107.37900067280859 1 0 0 0 0.69465837861970381 -0.71933979245794832 forward_v I I I I #
coedge $-1 $262 $263 $264 $265 reversed $97 $-1 #
coedge $-1 $159 $99 $266 $267 reversed $62 $-1 #
coedge $-1 $99 $158 $262 $268 reversed $62 $-1 #
coedge $-1 $264 $269 $99 $161 forward $270 $-1 #
edge $-1 $271 31.199124773564947 $272 43.801108566561325 $160 $273 forward 7 unknown #
loop $-1 $-1 $167 $100 #
plane-surface $-1 -6.7508640790001806 -40.820010098965682 0.49336629922362363 0 -0.69465837861970381 0.71933979245794832 1 0 0 forward_v I I I I #
loop $-1 $-1 $274 $64 #
coedge $-1 $165 $165 $166 $275 reversed $101 $-1 #
coedge $-1 $166 $166 $165 $275 forward $103 $-1 #
coedge $-1 $167 $167 $104 $168 forward $162 $-1 #
edge $-1 $276 -3.084902904769499e-016 $276 6.2831853071796004 $167 $277 forward 7 unknown #
loop $-1 $-1 $174 $105 #
plane-surface $-1 -6.7508640790001806 -40.820010098965682 0.49336629922362363 0 -0.69465837861970381 0.71933979245794832 1 0 0 forward_v I I I I #
loop $-1 $-1 $278 $67 #
coedge $-1 $172 $172 $173 $279 reversed $106 $-1 #
coedge $-1 $173 $173 $172 $279 forward $108 $-1 #
coedge $-1 $174 $174 $109 $175 forward $169 $-1 #
edge $-1 $280 -3.084902904769499e-016 $280 6.2831853071796004 $174 $281 forward 7 unknown #
face $-1 $282 $283 $38 $-1 $284 forward single #
loop $-1 $-1 $285 $110 #
plane-surface $-1 0 -40.820010098965682 0 0 1 0 0 0 1 forward_v I I I I #
coedge $-1 $286 $287 $288 $289 reversed $111 $-1 #
coedge $-1 $290 $113 $291 $292 reversed $71 $-1 #
coedge $-1 $113 $290 $285 $293 reversed $71 $-1 #
coedge $-1 $294 $295 $113 $183 forward $283 $-1 #
edge $-1 $296 -17.518819235532661 $297 0 $182 $298 forward 7 unknown #
loop $-1 $-1 $189 $114 #
plane-surface $-1 -6.7508640790001806 -40.820010098965682 0.49336629922362363 0 -0.69465837861970381 0.71933979245794832 1 0 0 forward_v I I I I #
loop $-1 $-1 $299 $73 #
coedge $-1 $187 $187 $188 $300 reversed $115 $-1 #
coedge $-1 $188 $188 $187 $300 forward $117 $-1 #
coedge $-1 $189 $189 $118 $190 forward $184 $-1 #
edge $-1 $301 -3.084902904769499e-016 $301 6.2831853071796004 $189 $302 forward 7 unknown #
loop $-1 $-1 $196 $119 #
plane-surface $-1 -6.7508640790001806 -40.820010098965682 0.49336629922362363 0 -0.69465837861970381 0.71933979245794832 1 0 0 forward_v I I I I #
loop $-1 $-1 $303 $76 #
coedge $-1 $194 $194 $195 $304 reversed $120 $-1 #
coedge $-1 $195 $195 $194 $304 forward $122 $-1 #
coedge $-1 $196 $196 $123 $197 forward $191 $-1 #
edge $-1 $305 -3.084902904769499e-016 $305 6.2831853071796004 $196 $306 forward 7 unknown #
face $-1 $307 $308 $41 $-1 $309 reversed single #
loop $-1 $-1 $204 $124 #
plane-surface $-1 0 0 12.662960864710422 0 0 1 1 0 0 forward_v I I I I #
coedge $-1 $310 $311 $312 $313 reversed $125 $-1 #
coedge $-1 $203 $127 $314 $315 reversed $80 $-1 #
coedge $-1 $127 $202 $310 $316 reversed $80 $-1 #
coedge $-1 $312 $317 $127 $205 forward $199 $-1 #
edge $-1 $318 10.264103871778381 $319 19.959673140888114 $204 $320 forward 7 unknown #
loop $-1 $-1 $211 $128 #
plane-surface $-1 60.049723317951504 -11.657182532576485 63.648115538754155 0 0.7660444514056185 0.64278759981090561 1 0 0 forward_v I I I I #
loop $-1 $-1 $321 $82 #
coedge $-1 $209 $209 $210 $322 reversed $129 $-1 #
coedge $-1 $210 $210 $209 $322 forward $131 $-1 #
coedge $-1 $211 $211 $132 $212 forward $206 $-1 #
edge $-1 $323 8.1646098032338996e-016 $323 6.2831853071796013 $211 $324 forward 7 unknown #
loop $-1 $-1 $218 $133 #
plane-surface $-1 60.049723317951504 -11.657182532576485 63.648115538754155 0 0.7660444514056185 0.64278759981090561 1 0 0 forward_v I I I I #
loop $-1 $-1 $325 $85 #
coedge $-1 $216 $216 $217 $326 reversed $134 $-1 #
coedge $-1 $217 $217 $216 $326 forward $136 $-1 #
coedge $-1 $218 $218 $137 $219 forward $213 $-1 #
edge $-1 $327 8.1646098032338996e-016 $327 6.2831853071796013 $218 $328 forward 7 unknown #
face $-1 $329 $330 $33 $-1 $331 reversed single #
loop $-1 $-1 $332 $138 #
plane-surface $-1 -74.294259468367557 0 0 1 0 0 0 0 -1 forward_v I I I I #
coedge $-1 $333 $231 $334 $335 forward $139 $-1 #
coedge $-1 $336 $141 $333 $337 forward $89 $-1 #
coedge $-1 $141 $336 $338 $339 forward $89 $-1 #
coedge $-1 $234 $233 $141 $227 reversed $235 $-1 #
edge $-1 $340 -40.820010098965682 $341 40.820010098965682 $226 $342 forward 7 unknown #
coedge $-1 $143 $142 $343 $344 forward $56 $-1 #
coedge $-1 $345 $346 $142 $230 reversed $330 $-1 #
edge $-1 $237 -74.294259468367557 $347 74.294259468367557 $229 $348 forward 7 unknown #
coedge $-1 $223 $349 $143 $232 reversed $139 $-1 #
edge $-1 $350 -74.294259468367557 $236 74.294259468367557 $231 $351 forward 7 unknown #
coedge $-1 $226 $144 $349 $352 forward $235 $-1 #
coedge $-1 $144 $226 $345 $353 reversed $235 $-1 #
loop $-1 $-1 $233 $329 #
vertex $-1 $145 $354 #
vertex $-1 $145 $355 #
straight-curve $-1 74.294259468367557 0 12.662960864710422 0 1 0 I I #
face $-1 $356 $357 $34 $-1 $358 forward single #
loop $-1 $-1 $359 $146 #
plane-surface $-1 0 0 -12.662960864710422 0 0 1 1 0 0 forward_v I I I I #
coedge $-1 $360 $361 $247 $362 forward $147 $-1 #
coedge $-1 $363 $149 $359 $364 reversed $93 $-1 #
coedge $-1 $149 $363 $365 $366 reversed $93 $-1 #
coedge $-1 $361 $360 $149 $246 reversed $147 $-1 #
edge $-1 $367 -12.662960864710422 $368 12.662960864710422 $245 $369 forward 7 unknown #
coedge $-1 $151 $150 $242 $362 reversed $59 $-1 #
coedge $-1 $370 $371 $150 $249 forward $240 $-1 #
edge $-1 $372 28.334930942078721 $255 40.084529331552133 $248 $373 forward 7 unknown #
coedge $-1 $374 $375 $151 $251 forward $357 $-1 #
edge $-1 $256 -40.084529331552133 $376 -28.334930942078721 $250 $377 forward 7 unknown #
coedge $-1 $378 $152 $375 $379 reversed $254 $-1 #
coedge $-1 $152 $378 $370 $380 reversed $254 $-1 #
loop $-1 $-1 $378 $356 #
vertex $-1 $380 $381 #
vertex $-1 $153 $382 #
straight-curve $-1 -74.294259468367557 -23.283262309002865 0 0 0 1 I I #
face $-1 $-1 $270 $35 $-1 $383 forward single #
loop $-1 $-1 $384 $154 #
plane-surface $-1 0 -40.820010098965682 0 0 1 0 0 0 1 forward_v I I I I #
coedge $-1 $385 $386 $387 $388 reversed $155 $-1 #
coedge $-1 $389 $157 $159 $268 forward $97 $-1 #
coedge $-1 $157 $389 $385 $390 forward $97 $-1 #
coedge $-1 $387 $160 $157 $265 forward $270 $-1 #
edge $-1 $272 -9.2502312342367858 $391 16.001095313236966 $264 $392 forward 7 unknown #
coedge $-1 $393 $394 $158 $267 forward $259 $-1 #
edge $-1 $395 -53.19613403718067 $271 -41.026539471693873 $266 $396 forward 7 unknown #
edge $-1 $272 -17.518819235532661 $395 0 $159 $397 forward 7 unknown #
coedge $-1 $160 $387 $393 $398 forward $270 $-1 #
loop $-1 $-1 $387 $258 #
vertex $-1 $267 $399 #
vertex $-1 $161 $400 #
straight-curve $-1 5.8747991947366955 -72.019134872530628 12.662960864710421 0 1 0 I I #
coedge $-1 $274 $274 $-1 $401 reversed $164 $-1 #
edge $-1 $402 0 $402 6.2831853071796004 $165 $403 forward 7 unknown #
vertex $-1 $168 $404 #
ellipse-curve $-1 -12.161862624887412 -34.519018202467493 6.578163581967023 0 -0.69465837861970381 0.71933979245794832 2 0 0 1 I I #
coedge $-1 $278 $278 $-1 $405 reversed $171 $-1 #
edge $-1 $406 0 $406 6.2831853071796004 $172 $407 forward 7 unknown #
vertex $-1 $175 $408 #
ellipse-curve $-1 -1.3398655331129419 -34.519018202467493 6.578163581967023 0 -0.69465837861970381 0.71933979245794832 2 0 0 1 I I #
face $-1 $-1 $409 $38 $-1 $410 forward single #
loop $-1 $-1 $295 $176 #
plane-surface $-1 5.8747991947366955 -144.03826974506126 107.37900067280859 -1 0 0 0 -0.69465837861970381 0.71933979245794832 forward_v I I I I #
coedge $-1 $288 $411 $181 $293 forward $177 $-1 #
coedge $-1 $287 $179 $290 $412 reversed $111 $-1 #
coedge $-1 $179 $286 $413 $414 reversed $111 $-1 #
coedge $-1 $415 $285 $179 $289 forward $177 $-1 #
edge $-1 $416 -53.19613403718067 $417 -41.026539471693873 $288 $418 forward 7 unknown #
coedge $-1 $181 $180 $286 $412 forward $71 $-1 #
coedge $-1 $419 $413 $180 $292 forward $409 $-1 #
edge $-1 $420 -34.501557781710538 $296 -9.2502312342367858 $291 $421 forward 7 unknown #
edge $-1 $297 9.2502312342367858 $416 34.501557781710538 $285 $422 forward 7 unknown #
coedge $-1 $295 $182 $411 $423 reversed $283 $-1 #
coedge $-1 $182 $294 $419 $424 reversed $283 $-1 #
vertex $-1 $292 $425 #
vertex $-1 $293 $426 #
straight-curve $-1 5.8747991947366955 -40.820010098965682 0.49336629922362363 0 -0.71933979245794832 -0.69465837861970381 I I #
coedge $-1 $299 $299 $-1 $427 reversed $186 $-1 #
edge $-1 $428 0 $428 6.2831853071796004 $187 $429 forward 7 unknown #
vertex $-1 $190 $430 #
ellipse-curve $-1 13.089463922586333 -34.519018202467493 6.578163581967023 0 -0.69465837861970381 0.71933979245794832 2 0 0 1 I I #
coedge $-1 $303 $303 $-1 $431 reversed $193 $-1 #
edge $-1 $432 0 $432 6.2831853071796004 $194 $433 forward 7 unknown #
vertex $-1 $197 $434 #
ellipse-curve $-1 23.91146101436081 -34.519018202467493 6.578163581967023 0 -0.69465837861970381 0.71933979245794832 2 0 0 1 I I #
face $-1 $-1 $435 $41 $-1 $436 reversed single #
loop $-1 $-1 $437 $198 #
plane-surface $-1 74.294259468367557 0 0 -1 0 0 0 0 1 forward_v I I I I #
coedge $-1 $438 $201 $203 $316 forward $125 $-1 #
coedge $-1 $201 $438 $437 $439 reversed $125 $-1 #
coedge $-1 $440 $204 $201 $313 forward $199 $-1 #
edge $-1 $319 15.78032550855972 $441 44.269397809391776 $312 $442 forward 7 unknown #
coedge $-1 $443 $444 $202 $315 forward $435 $-1 #
edge $-1 $445 -78.471255439291497 $318 -66.916525628067276 $314 $446 forward 7 unknown #
edge $-1 $319 66.55639183926057 $445 81.640020197931406 $203 $447 forward 7 unknown #
coedge $-1 $204 $440 $443 $448 forward $199 $-1 #
vertex $-1 $315 $449 #
vertex $-1 $205 $450 #
straight-curve $-1 45.805187167535472 51.084113970744063 12.662960864710428 0 -1 0 I I #
coedge $-1 $321 $321 $-1 $451 reversed $208 $-1 #
edge $-1 $452 0 $452 6.2831853071796004 $209 $453 forward 7 unknown #
vertex $-1 $212 $454 #
ellipse-curve $-1 53.94492211063033 35.972225464410812 6.8855959590983069 0 0.7660444514056185 0.64278759981090561 2.5 0 0 1 I I #
coedge $-1 $325 $325 $-1 $455 reversed $215 $-1 #
edge $-1 $456 0 $456 6.2831853071796004 $216 $457 forward 7 unknown #
vertex $-1 $219 $458 #
ellipse-curve $-1 66.154524525272649 35.972225464410812 6.8855959590983069 0 0.7660444514056185 0.64278759981090561 2.5 0 0 1 I I #
face $-1 $-1 $235 $33 $-1 $459 reversed single #
loop $-1 $-1 $345 $220 #
plane-surface $-1 0 40.820010098965682 0 0 -1 0 0 0 -1 forward_v I I I I #
coedge $-1 $460 $343 $346 $461 forward $221 $-1 #
coedge $-1 $349 $223 $224 $337 reversed $139 $-1 #
coedge $-1 $343 $460 $223 $335 reversed $221 $-1 #
edge $-1 $350 -12.662960864710422 $462 12.662960864710422 $334 $463 forward 7 unknown #
coedge $-1 $225 $224 $460 $464 forward $89 $-1 #
edge $-1 $341 -74.294259468367557 $462 74.294259468367557 $333 $465 forward 7 unknown #
coedge $-1 $346 $345 $225 $339 reversed $330 $-1 #
edge $-1 $466 -74.294259468367557 $340 74.294259468367557 $338 $467 forward 7 unknown #
vertex $-1 $227 $468 #
vertex $-1 $352 $469 #
straight-curve $-1 74.294259468367557 0 -12.662960864710422 0 -1 0 I I #
coedge $-1 $332 $334 $228 $344 reversed $221 $-1 #
edge $-1 $347 -40.820010098965682 $350 40.820010098965682 $343 $470 forward 7 unknown #
coedge $-1 $338 $229 $234 $353 forward $330 $-1 #
coedge $-1 $229 $338 $332 $461 reversed $330 $-1 #
vertex $-1 $230 $471 #
straight-curve $-1 0 40.820010098965682 12.662960864710422 -1 0 0 I I #
coedge $-1 $231 $333 $233 $352 reversed $139 $-1 #
vertex $-1 $344 $472 #
straight-curve $-1 0 -40.820010098965682 12.662960864710422 1 0 0 I I #
edge $-1 $236 -12.662960864710422 $341 12.662960864710422 $233 $473 forward 7 unknown #
edge $-1 $237 -12.662960864710422 $340 12.662960864710422 $234 $474 forward 7 unknown #
point $-1 74.294259468367557 -40.820010098965682 12.662960864710422 #
point $-1 74.294259468367557 40.820010098965682 12.662960864710422 #
face $-1 $-1 $254 $34 $-1 $475 reversed single #
loop $-1 $-1 $365 $239 #
plane-surface $-1 0 0 12.662960864710422 0 0 1 1 0 0 forward_v I I I I #
coedge $-1 $371 $370 $243 $364 forward $240 $-1 #
coedge $-1 $245 $242 $371 $476 reversed $147 $-1 #
coedge $-1 $242 $245 $374 $477 reversed $147 $-1 #
edge $-1 $376 -12.662960864710422 $372 12.662960864710422 $242 $478 forward 7 unknown #
coedge $-1 $244 $243 $378 $479 reversed $93 $-1 #
edge $-1 $480 -40.084529331552133 $368 -28.334930942078721 $359 $481 forward 7 unknown #
coedge $-1 $375 $374 $244 $366 forward $357 $-1 #
edge $-1 $367 28.334930942078721 $482 40.084529331552133 $365 $483 forward 7 unknown #
vertex $-1 $366 $484 #
vertex $-1 $364 $485 #
straight-curve $-1 -62.544661078894144 -18.01271594024486 0 0 0 -1 I I #
coedge $-1 $359 $248 $253 $380 forward $240 $-1 #
coedge $-1 $248 $359 $360 $476 forward $240 $-1 #
vertex $-1 $249 $486 #
straight-curve $-1 -34.209730136815423 -23.283262309002865 -12.662960864710422 -1 0 0 I I #
coedge $-1 $365 $250 $361 $477 forward $357 $-1 #
coedge $-1 $250 $365 $252 $379 forward $357 $-1 #
vertex $-1 $251 $487 #
straight-curve $-1 -34.209730136815423 -23.283262309002865 12.662960864710422 1 0 0 I I #
coedge $-1 $253 $252 $363 $479 forward $254 $-1 #
edge $-1 $482 18.01271594024486 $256 23.283262309002865 $252 $488 forward 7 unknown #
edge $-1 $255 -23.283262309002865 $480 -18.01271594024486 $253 $489 forward 7 unknown #
point $-1 -74.294259468367557 -23.283262309002865 -12.662960864710422 #
point $-1 -74.294259468367557 -23.283262309002865 12.662960864710422 #
plane-surface $-1 0 0 12.662960864710422 0 0 1 1 0 0 forward_v I I I I #
coedge $-1 $394 $393 $386 $490 forward $259 $-1 #
coedge $-1 $386 $261 $263 $390 reversed $155 $-1 #
coedge $-1 $261 $385 $384 $490 reversed $155 $-1 #
coedge $-1 $269 $264 $261 $388 forward $270 $-1 #
edge $-1 $391 -43.801108566561325 $491 -31.199124773564947 $387 $492 forward 7 unknown #
coedge $-1 $263 $262 $394 $493 reversed $97 $-1 #
edge $-1 $494 0 $391 17.518819235532661 $385 $495 forward 7 unknown #
vertex $-1 $265 $496 #
straight-curve $-1 -3.3754320395000903 -28.218026305969303 12.662960864710422 -1 0 0 I I #
coedge $-1 $384 $266 $269 $398 reversed $259 $-1 #
coedge $-1 $266 $384 $389 $493 forward $259 $-1 #
vertex $-1 $267 $497 #
straight-curve $-1 5.8747991947366955 -40.820010098965682 53.689500336404294 0 0 1 I I #
straight-curve $-1 5.8747991947366955 -40.820010098965682 0.49336629922362363 0 -0.71933979245794832 -0.69465837861970381 I I #
edge $-1 $491 -19.376527352737057 $271 5.8747991947366955 $393 $498 forward 7 unknown #
point $-1 5.8747991947366955 -40.820010098965682 12.662960864710422 #
point $-1 5.8747991947366955 -28.218026305969303 12.662960864710422 #
edge $-1 $499 1 $499 0 $274 $-1 forward 7 unknown #
vertex $-1 $275 $500 #
ellipse-curve $-1 -12.161862624887412 -29.520157548608072 1.4016919580034508 0 -0.69465837861970381 0.71933979245794832 2 0 0 1 I I #
point $-1 -10.161862624887412 -34.519018202467493 6.5781635819670221 #
edge $-1 $501 1 $501 0 $278 $-1 forward 7 unknown #
vertex $-1 $279 $502 #
ellipse-curve $-1 -1.3398655331129419 -29.520157548608072 1.4016919580034508 0 -0.69465837861970381 0.71933979245794832 2 0 0 1 I I #
point $-1 0.66013446688705812 -34.519018202467493 6.5781635819670221 #
loop $-1 $-1 $291 $282 #
plane-surface $-1 0 0 12.662960864710422 0 0 1 1 0 0 forward_v I I I I #
coedge $-1 $285 $415 $294 $423 forward $177 $-1 #
edge $-1 $420 -17.518819235532661 $416 0 $286 $503 forward 7 unknown #
coedge $-1 $291 $504 $287 $414 forward $409 $-1 #
edge $-1 $417 31.199124773564947 $420 43.801108566561325 $413 $505 forward 7 unknown #
coedge $-1 $411 $288 $504 $506 reversed $177 $-1 #
vertex $-1 $289 $507 #
vertex $-1 $289 $508 #
straight-curve $-1 31.126125742210448 -40.820010098965682 53.689500336404294 0 0 1 I I #
coedge $-1 $504 $291 $295 $424 forward $409 $-1 #
vertex $-1 $414 $509 #
straight-curve $-1 -3.3754320395000903 -28.218026305969303 12.662960864710422 -1 0 0 I I #
straight-curve $-1 -3.3754320395000903 -40.820010098965682 0.4933662992236259 1 0 0 I I #
edge $-1 $510 41.026539471693873 $297 53.19613403718067 $411 $511 forward 7 unknown #
edge $-1 $296 -43.801108566561325 $510 -31.199124773564947 $419 $512 forward 7 unknown #
point $-1 5.8747991947366955 -28.218026305969303 12.662960864710422 #
point $-1 5.8747991947366955 -40.820010098965682 0.49336629922362363 #
edge $-1 $513 1 $513 0 $299 $-1 forward 7 unknown #
vertex $-1 $300 $514 #
ellipse-curve $-1 13.089463922586333 -29.520157548608072 1.4016919580034508 0 -0.69465837861970381 0.71933979245794832 2 0 0 1 I I #
point $-1 15.089463922586333 -34.519018202467493 6.5781635819670221 #
edge $-1 $515 1 $515 0 $303 $-1 forward 7 unknown #
vertex $-1 $304 $516 #
ellipse-curve $-1 23.91146101436081 -29.520157548608072 1.4016919580034508 0 -0.69465837861970381 0.71933979245794832 2 0 0 1 I I #
point $-1 25.91146101436081 -34.519018202467493 6.5781635819670221 #
loop $-1 $-1 $314 $307 #
plane-surface $-1 0 40.820010098965682 0 0 -1 0 0 0 -1 forward_v I I I I #
coedge $-1 $517 $518 $311 $439 forward $308 $-1 #
coedge $-1 $311 $310 $444 $519 reversed $125 $-1 #
edge $-1 $441 38.431202773481154 $520 53.514831132151983 $437 $521 forward 7 unknown #
coedge $-1 $317 $312 $518 $522 forward $199 $-1 #
vertex $-1 $522 $523 #
straight-curve $-1 30.024861658975752 31.124440829855956 12.662960864710421 1 0 0 I I #
coedge $-1 $524 $314 $317 $448 reversed $435 $-1 #
coedge $-1 $314 $524 $438 $519 forward $435 $-1 #
vertex $-1 $315 $525 #
straight-curve $-1 45.805187167535472 40.820010098965682 79.579486492777704 0 0 1 I I #
straight-curve $-1 45.805187167535472 -11.657182532576485 63.648115538754155 0 0.64278759981090561 -0.7660444514056185 I I #
edge $-1 $526 -74.294259468367557 $318 -45.805187167535472 $443 $527 forward 7 unknown #
point $-1 45.805187167535472 40.820010098965682 12.662960864710422 #
point $-1 45.805187167535472 31.124440829855949 12.662960864710421 #
edge $-1 $528 1 $528 0 $321 $-1 forward 7 unknown #
vertex $-1 $322 $529 #
ellipse-curve $-1 53.94492211063033 33.512511366583311 4.821650820846255 0 0.7660444514056185 0.64278759981090561 2.5 0 0 1 I I #
point $-1 56.44492211063033 35.972225464410812 6.8855959590983042 #
edge $-1 $530 1 $530 0 $325 $-1 forward 7 unknown #
vertex $-1 $326 $531 #
ellipse-curve $-1 66.154524525272649 33.512511366583311 4.821650820846255 0 0.7660444514056185 0.64278759981090561 2.5 0 0 1 I I #
point $-1 68.654524525272649 35.972225464410812 6.8855959590983042 #
plane-surface $-1 74.294259468367557 0 0 -1 0 0 0 0 1 forward_v I I I I #
coedge $-1 $334 $332 $336 $464 reversed $221 $-1 #
edge $-1 $347 -12.662960864710422 $466 12.662960864710422 $346 $532 forward 7 unknown #
vertex $-1 $464 $533 #
straight-curve $-1 -74.294259468367557 -40.820010098965682 0 0 0 -1 I I #
edge $-1 $462 -40.820010098965682 $466 40.820010098965682 $460 $534 forward 7 unknown #
straight-curve $-1 0 -40.820010098965682 -12.662960864710422 -1 0 0 I I #
vertex $-1 $339 $535 #
straight-curve $-1 0 40.820010098965682 -12.662960864710422 1 0 0 I I #
point $-1 74.294259468367557 40.820010098965682 -12.662960864710422 #
point $-1 74.294259468367557 -40.820010098965682 -12.662960864710422 #
straight-curve $-1 -74.294259468367557 0 12.662960864710422 0 -1 0 I I #
point $-1 -74.294259468367557 40.820010098965682 12.662960864710422 #
point $-1 -74.294259468367557 -40.820010098965682 12.662960864710422 #
straight-curve $-1 74.294259468367557 -40.820010098965682 0 0 0 -1 I I #
straight-curve $-1 74.294259468367557 40.820010098965682 0 0 0 -1 I I #
plane-surface $-1 -74.294259468367557 0 0 1 0 0 0 0 -1 forward_v I I I I #
edge $-1 $368 7.6887213779329286 $372 12.959267746690934 $371 $536 forward 7 unknown #
edge $-1 $376 -12.959267746690934 $367 -7.6887213779329286 $374 $537 forward 7 unknown #
straight-curve $-1 -62.544661078894144 -23.283262309002865 0 0 0 -1 I I #
edge $-1 $482 -12.662960864710422 $480 12.662960864710422 $378 $538 forward 7 unknown #
vertex $-1 $479 $539 #
straight-curve $-1 -34.209730136815423 -18.01271594024486 -12.662960864710422 1 0 0 I I #
vertex $-1 $379 $540 #
straight-curve $-1 -34.209730136815423 -18.01271594024486 12.662960864710422 -1 0 0 I I #
point $-1 -62.544661078894144 -18.01271594024486 12.662960864710422 #
point $-1 -62.544661078894144 -18.01271594024486 -12.662960864710422 #
point $-1 -62.544661078894144 -23.283262309002865 -12.662960864710422 #
point $-1 -62.544661078894144 -23.283262309002865 12.662960864710422 #
straight-curve $-1 -74.294259468367557 0 12.662960864710422 0 -1 0 I I #
straight-curve $-1 -74.294259468367557 0 -12.662960864710422 0 1 0 I I #
edge $-1 $491 41.026539471693873 $494 53.19613403718067 $384 $541 forward 7 unknown #
vertex $-1 $398 $542 #
straight-curve $-1 -19.376527352737057 -72.019134872530628 12.662960864710421 0 -1 0 I I #
edge $-1 $494 -16.001095313236966 $395 9.2502312342367858 $394 $543 forward 7 unknown #
vertex $-1 $493 $544 #
straight-curve $-1 -19.376527352737057 -40.820010098965682 0.49336629922362363 0 0.71933979245794832 0.69465837861970381 I I #
point $-1 -19.376527352737057 -28.218026305969303 12.662960864710422 #
point $-1 5.8747991947366955 -40.820010098965682 0.49336629922362363 #
straight-curve $-1 0 -40.820010098965682 12.662960864710422 1 0 0 I I #
vertex $-1 $401 $545 #
point $-1 -10.161862624887412 -29.520157548608072 1.4016919580034508 #
vertex $-1 $405 $546 #
point $-1 0.66013446688705812 -29.520157548608072 1.4016919580034508 #
straight-curve $-1 31.126125742210448 -40.820010098965682 0.49336629922362363 0 -0.71933979245794832 -0.69465837861970381 I I #
coedge $-1 $413 $419 $415 $506 forward $409 $-1 #
straight-curve $-1 31.126125742210448 -72.019134872530628 12.662960864710421 0 1 0 I I #
edge $-1 $510 5.8747991947366955 $417 31.126125742210448 $415 $547 forward 7 unknown #
point $-1 31.126125742210448 -40.820010098965682 0.49336629922362363 #
point $-1 31.126125742210448 -40.820010098965682 12.662960864710422 #
point $-1 31.126125742210448 -28.218026305969303 12.662960864710422 #
vertex $-1 $506 $548 #
straight-curve $-1 5.8747991947366955 -40.820010098965682 53.689500336404294 0 0 -1 I I #
straight-curve $-1 5.8747991947366955 -72.019134872530628 12.662960864710421 0 -1 0 I I #
vertex $-1 $427 $549 #
point $-1 15.089463922586333 -29.520157548608072 1.4016919580034508 #
vertex $-1 $431 $550 #
point $-1 25.91146101436081 -29.520157548608072 1.4016919580034508 #
coedge $-1 $518 $437 $524 $551 reversed $308 $-1 #
coedge $-1 $437 $517 $440 $522 reversed $308 $-1 #
edge $-1 $520 -44.269397809391776 $445 -15.78032550855972 $444 $552 forward 7 unknown #
vertex $-1 $439 $553 #
straight-curve $-1 74.294259468367557 6.421340241243783 42.102970510179873 0 0.64278759981090572 -0.76604445140561861 I I #
edge $-1 $441 31.124440829855949 $526 40.820010098965682 $518 $554 forward 7 unknown #
point $-1 74.294259468367528 31.124440829855949 12.662960864710421 #
coedge $-1 $444 $443 $517 $551 forward $435 $-1 #
point $-1 45.805187167535472 40.820010098965682 1.1082310534862003 #
vertex $-1 $522 $555 #
straight-curve $-1 0 40.820010098965682 12.662960864710422 -1 0 0 I I #
vertex $-1 $451 $556 #
point $-1 56.44492211063033 33.512511366583311 4.821650820846255 #
vertex $-1 $455 $557 #
point $-1 68.654524525272649 33.512511366583311 4.821650820846255 #
straight-curve $-1 -74.294259468367557 40.820010098965682 0 0 0 -1 I I #
point $-1 -74.294259468367557 -40.820010098965682 -12.662960864710422 #
straight-curve $-1 -74.294259468367557 0 -12.662960864710422 0 1 0 I I #
point $-1 -74.294259468367557 40.820010098965682 -12.662960864710422 #
straight-curve $-1 -62.544661078894144 -10.323994562311931 -12.662960864710422 0 -1 0 I I #
straight-curve $-1 -62.544661078894144 -10.323994562311931 12.662960864710422 0 1 0 I I #
straight-curve $-1 -74.294259468367557 -18.01271594024486 0 0 0 -1 I I #
point $-1 -74.294259468367557 -18.01271594024486 -12.662960864710422 #
point $-1 -74.294259468367557 -18.01271594024486 12.662960864710422 #
straight-curve $-1 -19.376527352737057 -40.820010098965682 53.689500336404294 0 0 -1 I I #
point $-1 -19.376527352737057 -40.820010098965682 12.662960864710422 #
straight-curve $-1 -3.3754320395000903 -40.820010098965682 0.4933662992236259 1 0 0 I I #
point $-1 -19.376527352737057 -40.820010098965682 0.49336629922362363 #
point $-1 -12.161862624887412 -28.130840791368666 -0.036987626912445837 #
point $-1 -1.3398655331129419 -28.130840791368666 -0.036987626912445837 #
straight-curve $-1 0 -40.820010098965682 12.662960864710422 1 0 0 I I #
point $-1 5.8747991947366955 -40.820010098965682 12.662960864710422 #
point $-1 13.089463922586333 -28.130840791368666 -0.036987626912445837 #
point $-1 23.91146101436081 -28.130840791368666 -0.036987626912445837 #
edge $-1 $526 -12.662960864710422 $520 -1.1082310534862003 $517 $558 forward 7 unknown #
straight-curve $-1 30.024861658975752 40.820010098965682 1.1082310534861932 -1 0 0 I I #
point $-1 74.294259468367528 40.820010098965682 1.1082310534862003 #
straight-curve $-1 74.294259468367557 0 12.662960864710422 0 1 0 I I #
point $-1 74.294259468367557 40.820010098965682 12.662960864710422 #
point $-1 53.94492211063033 31.597400238069266 3.2146818213189907 #
point $-1 66.154524525272649 31.597400238069266 3.2146818213189907 #
straight-curve $-1 74.294259468367557 40.820010098965682 0 0 0 -1 I I #
End-of-ACIS-data 