500 0 14 0           
7 Unknown 11 ACIS 5.0 NT 24 Fri Mar 26 17:32:37 1999 
-1 9.9999999999999995e-007 1e-010 
body $-1 $14 $-1 $15 #
body $-1 $16 $-1 $17 #
body $-1 $18 $-1 $19 #
body $-1 $20 $-1 $21 #
body $-1 $22 $-1 $23 #
body $-1 $24 $-1 $25 #
body $-1 $26 $-1 $27 #
body $-1 $28 $-1 $29 #
body $-1 $30 $-1 $31 #
body $-1 $32 $-1 $33 #
body $-1 $34 $-1 $35 #
body $-1 $36 $-1 $37 #
body $-1 $38 $-1 $39 #
body $-1 $40 $-1 $41 #
lump $-1 $-1 $42 $0 #
transform $-1 1 0 0 0 1 0 0 0 1 47.942136906033511 22.051451654996921 8.3312587680704802 1 rotate no_reflect no_shear #
lump $-1 $-1 $43 $1 #
transform $-1 1 0 0 0 1 0 0 0 1 47.942136906033511 22.051451654996921 8.3312587680704802 1 rotate no_reflect no_shear #
lump $-1 $-1 $44 $2 #
transform $-1 1 0 0 0 1 0 0 0 1 47.942136906033511 22.051451654996921 8.3312587680704802 1 rotate no_reflect no_shear #
lump $-1 $-1 $45 $3 #
transform $-1 1 0 0 0 1 0 0 0 1 47.942136906033511 22.051451654996921 8.3312587680704802 1 rotate no_reflect no_shear #
lump $-1 $-1 $46 $4 #
transform $-1 1 0 0 0 1 0 0 0 1 47.942136906033511 22.051451654996921 8.3312587680704802 1 rotate no_reflect no_shear #
lump $-1 $-1 $47 $5 #
transform $-1 1 0 0 0 1 0 0 0 1 47.942136906033511 22.051451654996921 8.3312587680704802 1 rotate no_reflect no_shear #
lump $-1 $-1 $48 $6 #
transform $-1 1 0 0 0 1 0 0 0 1 47.942136906033511 22.051451654996921 8.3312587680704802 1 rotate no_reflect no_shear #
lump $-1 $-1 $49 $7 #
transform $-1 1 0 0 0 1 0 0 0 1 47.942136906033511 22.051451654996921 8.3312587680704802 1 rotate no_reflect no_shear #
lump $-1 $-1 $50 $8 #
transform $-1 1 0 0 0 1 0 0 0 1 47.942136906033511 22.051451654996921 8.3312587680704802 1 rotate no_reflect no_shear #
lump $-1 $-1 $51 $9 #
transform $-1 1 0 0 0 1 0 0 0 1 47.942136906033511 22.051451654996921 8.3312587680704802 1 rotate no_reflect no_shear #
lump $-1 $-1 $52 $10 #
transform $-1 1 0 0 0 1 0 0 0 1 47.942136906033511 22.051451654996921 8.3312587680704802 1 rotate no_reflect no_shear #
lump $-1 $-1 $53 $11 #
transform $-1 1 0 0 0 1 0 0 0 1 47.942136906033511 22.051451654996921 8.3312587680704802 1 rotate no_reflect no_shear #
lump $-1 $-1 $54 $12 #
transform $-1 1 0 0 0 1 0 0 0 1 47.942136906033511 22.051451654996921 8.3312587680704802 1 rotate no_reflect no_shear #
lump $-1 $-1 $55 $13 #
transform $-1 1 0 0 0 1 0 0 0 1 47.942136906033511 22.051451654996921 8.3312587680704802 1 rotate no_reflect no_shear #
shell $-1 $-1 $-1 $56 $-1 $14 #
shell $-1 $-1 $-1 $57 $-1 $16 #
shell $-1 $-1 $-1 $58 $-1 $18 #
shell $-1 $-1 $-1 $59 $-1 $20 #
shell $-1 $-1 $-1 $60 $-1 $22 #
shell $-1 $-1 $-1 $61 $-1 $24 #
shell $-1 $-1 $-1 $62 $-1 $26 #
shell $-1 $-1 $-1 $63 $-1 $28 #
shell $-1 $-1 $-1 $64 $-1 $30 #
shell $-1 $-1 $-1 $65 $-1 $32 #
shell $-1 $-1 $-1 $66 $-1 $34 #
shell $-1 $-1 $-1 $67 $-1 $36 #
shell $-1 $-1 $-1 $68 $-1 $38 #
shell $-1 $-1 $-1 $69 $-1 $40 #
face $-1 $70 $71 $42 $-1 $72 forward single #
face $-1 $73 $74 $43 $-1 $75 forward single #
face $-1 $76 $77 $44 $-1 $78 reversed single #
face $-1 $79 $80 $45 $-1 $81 forward single #
face $-1 $82 $83 $46 $-1 $84 forward single #
face $-1 $85 $86 $47 $-1 $87 reversed single #
face $-1 $88 $89 $48 $-1 $90 forward single #
face $-1 $91 $92 $49 $-1 $93 forward single #
face $-1 $94 $95 $50 $-1 $96 reversed single #
face $-1 $97 $98 $51 $-1 $99 forward single #
face $-1 $100 $101 $52 $-1 $102 forward single #
face $-1 $103 $104 $53 $-1 $105 reversed single #
face $-1 $106 $107 $54 $-1 $108 forward single #
face $-1 $109 $110 $55 $-1 $111 forward single #
face $-1 $112 $113 $42 $-1 $114 reversed single #
loop $-1 $-1 $115 $56 #
plane-surface $-1 0 0 8.3312587680704802 0 0 1 1 0 0 forward_v I I I I #
face $-1 $116 $117 $43 $-1 $118 reversed single #
loop $-1 $-1 $119 $57 #
plane-surface $-1 0 -17.640397580313536 0.014591384821548203 0 0 1 1 0 0 forward_v I I I I #
face $-1 $120 $121 $44 $-1 $122 reversed single #
loop $-1 $-1 $123 $58 #
plane-surface $-1 -106.97439112199388 -7.7028758907812689 77.118151150417532 0 1 0 -0.61566148304635926 0 0.78801074757464917 forward_v I I I I #
face $-1 $124 $125 $45 $-1 $126 forward single #
loop $-1 $127 $128 $59 #
cone-surface $-1 -43.144764011855344 -5.4957387087529916 4.3516814573044993 0.61566148304635926 0 -0.78801074757464917 0.78801074757464917 0 0.61566148304635926 1 I I 0 1 1 forward I I I I #
face $-1 $129 $130 $46 $-1 $131 forward single #
loop $-1 $132 $133 $60 #
cone-surface $-1 -43.144764011855344 -2.1850329357105771 4.3516814573044993 0.61566148304635926 0 -0.78801074757464917 0.78801074757464917 0 0.61566148304635926 1 I I 0 1 1 forward I I I I #
face $-1 $134 $135 $47 $-1 $136 reversed single #
loop $-1 $-1 $137 $61 #
plane-surface $-1 -106.97439112199388 9.9375216895322716 77.118151150417532 0 1 0 -0.61566148304635926 0 0.78801074757464917 forward_v I I I I #
face $-1 $138 $139 $48 $-1 $140 forward single #
loop $-1 $141 $142 $62 #
cone-surface $-1 -43.144764011855344 12.144658871560541 4.3516814573044993 0.61566148304635926 0 -0.78801074757464917 0.78801074757464917 0 0.61566148304635926 1 I I 0 1 1 forward I I I I #
face $-1 $143 $144 $49 $-1 $145 forward single #
loop $-1 $146 $147 $63 #
cone-surface $-1 -43.144764011855344 15.455364644602955 4.3516814573044993 0.61566148304635926 0 -0.78801074757464917 0.78801074757464917 0 0.61566148304635926 1 I I 0 1 1 forward I I I I #
face $-1 $148 $149 $50 $-1 $150 reversed single #
loop $-1 $-1 $151 $64 #
plane-surface $-1 57.401175081092205 -4.110917547419926 139.76972386755884 0 -1 0 -0.75470958851134928 0 -0.65605901945558964 forward_v I I I I #
face $-1 $152 $153 $51 $-1 $154 forward single #
loop $-1 $155 $156 $65 #
cone-surface $-1 45.899203384802746 -8.7325439701147243 6.0872000622015587 -0.75470958851134928 0 -0.65605901945558964 0.32802950972779482 0 -0.37735479425567464 1 I I 0 1 0.5 forward I I I I #
face $-1 $157 $158 $52 $-1 $159 forward single #
loop $-1 $160 $161 $66 #
cone-surface $-1 45.899203384802746 -5.9595681164978451 6.0872000622015587 -0.75470958851134928 0 -0.65605901945558964 0.32802950972779482 0 -0.37735479425567464 1 I I 0 1 0.5 forward I I I I #
face $-1 $162 $163 $53 $-1 $164 reversed single #
loop $-1 $-1 $165 $67 #
plane-surface $-1 57.401175081092205 13.529480032893609 139.76972386755884 0 -1 0 -0.75470958851134928 0 -0.65605901945558964 forward_v I I I I #
face $-1 $166 $167 $54 $-1 $168 forward single #
loop $-1 $169 $170 $68 #
cone-surface $-1 45.899203384802746 8.9078536101988099 6.0872000622015587 -0.75470958851134928 0 -0.65605901945558964 0.32802950972779482 0 -0.37735479425567464 1 I I 0 1 0.5 forward I I I I #
face $-1 $171 $172 $55 $-1 $173 forward single #
loop $-1 $174 $175 $69 #
cone-surface $-1 45.899203384802746 11.680829463815687 6.0872000622015587 -0.75470958851134928 0 -0.65605901945558964 0.32802950972779482 0 -0.37735479425567464 1 I I 0 1 0.5 forward I I I I #
face $-1 $176 $177 $42 $-1 $178 reversed single #
loop $-1 $-1 $179 $70 #
plane-surface $-1 0 0 -8.3312587680704802 0 0 1 1 0 0 forward_v I I I I #
coedge $-1 $180 $181 $182 $183 forward $71 $-1 #
face $-1 $184 $185 $43 $-1 $186 reversed single #
loop $-1 $-1 $187 $73 #
plane-surface $-1 0 -17.640397580313536 -4.400185021120862 0 0 1 1 0 0 forward_v I I I I #
coedge $-1 $188 $189 $190 $191 reversed $74 $-1 #
face $-1 $192 $193 $44 $-1 $194 reversed single #
loop $-1 $-1 $195 $76 #
plane-surface $-1 -47.942136906033504 -3.8403858222317844 1.5603128631182415 -0.61566148304635926 0 0.78801074757464917 0.78801074757464917 0 0.61566148304635926 forward_v I I I I #
coedge $-1 $196 $197 $198 $199 reversed $77 $-1 #
face $-1 $-1 $200 $45 $-1 $201 forward single #
loop $-1 $202 $203 $79 #
cone-surface $-1 -42.372768065181333 -5.4957387087529916 3.3635717252273061 0.61566148304635926 0 -0.78801074757464917 0.39400537378732459 0 0.30783074152317963 1 I I -0.70710678118654746 0.70710678118654746 0.5 forward I I I I #
loop $-1 $-1 $204 $59 #
coedge $-1 $128 $128 $205 $206 reversed $80 $-1 #
face $-1 $-1 $207 $46 $-1 $208 forward single #
loop $-1 $209 $210 $82 #
cone-surface $-1 -42.372768065181333 -2.1850329357105771 3.3635717252273061 0.61566148304635926 0 -0.78801074757464917 0.39400537378732459 0 0.30783074152317963 1 I I -0.70710678118654746 0.70710678118654746 0.5 forward I I I I #
loop $-1 $-1 $211 $60 #
coedge $-1 $133 $133 $212 $213 reversed $83 $-1 #
face $-1 $214 $215 $47 $-1 $216 reversed single #
loop $-1 $-1 $217 $85 #
plane-surface $-1 -47.942136906033504 13.800011758081755 1.5603128631182415 -0.61566148304635926 0 0.78801074757464917 0.78801074757464917 0 0.61566148304635926 forward_v I I I I #
coedge $-1 $218 $219 $220 $221 reversed $86 $-1 #
face $-1 $-1 $222 $48 $-1 $223 forward single #
loop $-1 $224 $225 $88 #
cone-surface $-1 -42.372768065181333 12.144658871560541 3.3635717252273061 0.61566148304635926 0 -0.78801074757464917 0.39400537378732459 0 0.30783074152317963 1 I I -0.70710678118654746 0.70710678118654746 0.5 forward I I I I #
loop $-1 $-1 $226 $62 #
coedge $-1 $142 $142 $227 $228 reversed $89 $-1 #
face $-1 $-1 $229 $49 $-1 $230 forward single #
loop $-1 $231 $232 $91 #
cone-surface $-1 -42.372768065181333 15.455364644602955 3.3635717252273061 0.61566148304635926 0 -0.78801074757464917 0.39400537378732459 0 0.30783074152317963 1 I I -0.70710678118654746 0.70710678118654746 0.5 forward I I I I #
loop $-1 $-1 $233 $63 #
coedge $-1 $147 $147 $234 $235 reversed $92 $-1 #
face $-1 $236 $237 $50 $-1 $238 reversed single #
loop $-1 $-1 $239 $94 #
plane-surface $-1 -14.963605752322437 -7.3460560433062838 76.863981209202876 0.75470958851134928 0 0.65605901945558964 0.65605901945558964 0 -0.75470958851134928 forward_v I I I I #
coedge $-1 $240 $241 $242 $243 reversed $95 $-1 #
face $-1 $-1 $244 $51 $-1 $245 forward single #
loop $-1 $246 $247 $97 #
cone-surface $-1 45.333171193419233 -8.7325439701147243 5.5951557976098663 -0.75470958851134928 0 -0.65605901945558964 0.16401475486389741 0 -0.18867739712783732 1 I I -0.70710678118654746 0.70710678118654746 0.25 forward I I I I #
loop $-1 $-1 $248 $65 #
coedge $-1 $156 $156 $249 $250 reversed $98 $-1 #
face $-1 $-1 $251 $52 $-1 $252 forward single #
loop $-1 $253 $254 $100 #
cone-surface $-1 45.333171193419233 -5.9595681164978451 5.5951557976098663 -0.75470958851134928 0 -0.65605901945558964 0.16401475486389741 0 -0.18867739712783732 1 I I -0.70710678118654746 0.70710678118654746 0.25 forward I I I I #
loop $-1 $-1 $255 $66 #
coedge $-1 $161 $161 $256 $257 reversed $101 $-1 #
face $-1 $258 $259 $53 $-1 $260 reversed single #
loop $-1 $-1 $261 $103 #
plane-surface $-1 -14.963605752322437 10.294341537007252 76.863981209202876 0.75470958851134928 0 0.65605901945558964 0.65605901945558964 0 -0.75470958851134928 forward_v I I I I #
coedge $-1 $262 $263 $264 $265 reversed $104 $-1 #
face $-1 $-1 $266 $54 $-1 $267 forward single #
loop $-1 $268 $269 $106 #
cone-surface $-1 45.333171193419233 8.9078536101988099 5.5951557976098663 -0.75470958851134928 0 -0.65605901945558964 0.16401475486389741 0 -0.18867739712783732 1 I I -0.70710678118654746 0.70710678118654746 0.25 forward I I I I #
loop $-1 $-1 $270 $68 #
coedge $-1 $170 $170 $271 $272 reversed $107 $-1 #
face $-1 $-1 $273 $55 $-1 $274 forward single #
loop $-1 $275 $276 $109 #
cone-surface $-1 45.333171193419233 11.680829463815687 5.5951557976098663 -0.75470958851134928 0 -0.65605901945558964 0.16401475486389741 0 -0.18867739712783732 1 I I -0.70710678118654746 0.70710678118654746 0.25 forward I I I I #
loop $-1 $-1 $277 $69 #
coedge $-1 $175 $175 $278 $279 reversed $110 $-1 #
face $-1 $280 $281 $42 $-1 $282 reversed single #
loop $-1 $-1 $283 $112 #
plane-surface $-1 0 -22.051451654996921 0 0 1 0 0 0 1 forward_v I I I I #
coedge $-1 $284 $285 $286 $287 forward $113 $-1 #
coedge $-1 $288 $115 $289 $290 forward $71 $-1 #
coedge $-1 $115 $288 $291 $292 forward $71 $-1 #
coedge $-1 $293 $294 $115 $183 reversed $295 $-1 #
edge $-1 $296 -22.051451654996921 $297 22.051451654996921 $182 $298 forward 7 unknown #
face $-1 $299 $300 $43 $-1 $301 reversed single #
loop $-1 $-1 $302 $116 #
plane-surface $-1 0 -13.229343505630151 -2.1927968181496569 0 -1 0 0 0 -1 forward_v I I I I #
coedge $-1 $303 $304 $305 $306 reversed $117 $-1 #
coedge $-1 $307 $119 $308 $309 forward $74 $-1 #
coedge $-1 $119 $307 $310 $311 reversed $74 $-1 #
coedge $-1 $312 $313 $119 $191 forward $314 $-1 #
edge $-1 $315 4.4091447154733832 $316 13.231252864840153 $190 $317 forward 7 unknown #
face $-1 $318 $319 $44 $-1 $320 reversed single #
loop $-1 $-1 $321 $120 #
plane-surface $-1 -106.97439112199388 0.022104246317700138 77.118151150417532 0 -1 0 0.61566148304635926 0 -0.78801074757464917 forward_v I I I I #
coedge $-1 $322 $323 $324 $325 reversed $121 $-1 #
coedge $-1 $197 $123 $326 $327 reversed $77 $-1 #
coedge $-1 $123 $196 $322 $328 reversed $77 $-1 #
coedge $-1 $324 $329 $123 $199 forward $330 $-1 #
edge $-1 $331 5.5450586549634266 $332 14.211474033018121 $198 $333 forward 7 unknown #
loop $-1 $-1 $205 $124 #
plane-surface $-1 -47.942136906033504 -3.8403858222317844 1.5603128631182415 -0.61566148304635926 0 0.78801074757464917 0.78801074757464917 0 0.61566148304635926 forward_v I I I I #
loop $-1 $-1 $334 $79 #
coedge $-1 $203 $203 $204 $335 reversed $125 $-1 #
coedge $-1 $204 $204 $203 $335 forward $127 $-1 #
coedge $-1 $205 $205 $128 $206 forward $200 $-1 #
edge $-1 $336 0 $336 6.2831853071796004 $205 $337 forward 7 unknown #
loop $-1 $-1 $212 $129 #
plane-surface $-1 -47.942136906033504 -3.8403858222317844 1.5603128631182415 -0.61566148304635926 0 0.78801074757464917 0.78801074757464917 0 0.61566148304635926 forward_v I I I I #
loop $-1 $-1 $338 $82 #
coedge $-1 $210 $210 $211 $339 reversed $130 $-1 #
coedge $-1 $211 $211 $210 $339 forward $132 $-1 #
coedge $-1 $212 $212 $133 $213 forward $207 $-1 #
edge $-1 $340 0 $340 6.2831853071796004 $212 $341 forward 7 unknown #
face $-1 $342 $343 $47 $-1 $344 forward single #
loop $-1 $-1 $345 $134 #
plane-surface $-1 -106.97439112199388 17.662501826631239 77.118151150417532 0 -1 0 0.61566148304635926 0 -0.78801074757464917 forward_v I I I I #
coedge $-1 $346 $347 $348 $349 reversed $135 $-1 #
coedge $-1 $219 $137 $350 $351 reversed $86 $-1 #
coedge $-1 $137 $218 $346 $352 reversed $86 $-1 #
coedge $-1 $348 $353 $137 $221 forward $343 $-1 #
edge $-1 $354 5.5450586549634266 $355 14.211474033018121 $220 $356 forward 7 unknown #
loop $-1 $-1 $227 $138 #
plane-surface $-1 -47.942136906033504 13.800011758081755 1.5603128631182415 -0.61566148304635926 0 0.78801074757464917 0.78801074757464917 0 0.61566148304635926 forward_v I I I I #
loop $-1 $-1 $357 $88 #
coedge $-1 $225 $225 $226 $358 reversed $139 $-1 #
coedge $-1 $226 $226 $225 $358 forward $141 $-1 #
coedge $-1 $227 $227 $142 $228 forward $222 $-1 #
edge $-1 $359 0 $359 6.2831853071796004 $227 $360 forward 7 unknown #
loop $-1 $-1 $234 $143 #
plane-surface $-1 -47.942136906033504 13.800011758081755 1.5603128631182415 -0.61566148304635926 0 0.78801074757464917 0.78801074757464917 0 0.61566148304635926 forward_v I I I I #
loop $-1 $-1 $361 $91 #
coedge $-1 $232 $232 $233 $362 reversed $144 $-1 #
coedge $-1 $233 $233 $232 $362 forward $146 $-1 #
coedge $-1 $234 $234 $147 $235 forward $229 $-1 #
edge $-1 $363 0 $363 6.2831853071796004 $234 $364 forward 7 unknown #
face $-1 $365 $366 $50 $-1 $367 forward single #
loop $-1 $-1 $368 $148 #
plane-surface $-1 57.401175081092205 -10.581194539192641 139.76972386755884 0 1 0 0.75470958851134928 0 0.65605901945558964 forward_v I I I I #
coedge $-1 $369 $370 $371 $372 reversed $149 $-1 #
coedge $-1 $241 $151 $373 $374 reversed $95 $-1 #
coedge $-1 $151 $240 $369 $375 reversed $95 $-1 #
coedge $-1 $371 $376 $151 $243 forward $366 $-1 #
edge $-1 $377 -19.241549365487408 $378 -15.910391911537246 $242 $379 forward 7 unknown #
loop $-1 $-1 $249 $152 #
plane-surface $-1 -14.963605752322437 -7.3460560433062838 76.863981209202876 0.75470958851134928 0 0.65605901945558964 0.65605901945558964 0 -0.75470958851134928 forward_v I I I I #
loop $-1 $-1 $380 $97 #
coedge $-1 $247 $247 $248 $381 reversed $153 $-1 #
coedge $-1 $248 $248 $247 $381 forward $155 $-1 #
coedge $-1 $249 $249 $156 $250 forward $244 $-1 #
edge $-1 $382 0 $382 6.2831853071796004 $249 $383 forward 7 unknown #
loop $-1 $-1 $256 $157 #
plane-surface $-1 -14.963605752322437 -7.3460560433062838 76.863981209202876 0.75470958851134928 0 0.65605901945558964 0.65605901945558964 0 -0.75470958851134928 forward_v I I I I #
loop $-1 $-1 $384 $100 #
coedge $-1 $254 $254 $255 $385 reversed $158 $-1 #
coedge $-1 $255 $255 $254 $385 forward $160 $-1 #
coedge $-1 $256 $256 $161 $257 forward $251 $-1 #
edge $-1 $386 0 $386 6.2831853071796004 $256 $387 forward 7 unknown #
face $-1 $388 $389 $53 $-1 $390 reversed single #
loop $-1 $-1 $391 $162 #
plane-surface $-1 57.401175081092205 7.0592030411208944 139.76972386755884 0 1 0 0.75470958851134928 0 0.65605901945558964 forward_v I I I I #
coedge $-1 $392 $393 $394 $395 reversed $163 $-1 #
coedge $-1 $263 $165 $396 $397 reversed $104 $-1 #
coedge $-1 $165 $262 $392 $398 reversed $104 $-1 #
coedge $-1 $394 $399 $165 $265 forward $400 $-1 #
edge $-1 $401 -19.241549365487408 $402 -15.910391911537246 $264 $403 forward 7 unknown #
loop $-1 $-1 $271 $166 #
plane-surface $-1 -14.963605752322437 10.294341537007252 76.863981209202876 0.75470958851134928 0 0.65605901945558964 0.65605901945558964 0 -0.75470958851134928 forward_v I I I I #
loop $-1 $-1 $404 $106 #
coedge $-1 $269 $269 $270 $405 reversed $167 $-1 #
coedge $-1 $270 $270 $269 $405 forward $169 $-1 #
coedge $-1 $271 $271 $170 $272 forward $266 $-1 #
edge $-1 $406 0 $406 6.2831853071796004 $271 $407 forward 7 unknown #
loop $-1 $-1 $278 $171 #
plane-surface $-1 -14.963605752322437 10.294341537007252 76.863981209202876 0.75470958851134928 0 0.65605901945558964 0.65605901945558964 0 -0.75470958851134928 forward_v I I I I #
loop $-1 $-1 $408 $109 #
coedge $-1 $276 $276 $277 $409 reversed $172 $-1 #
coedge $-1 $277 $277 $276 $409 forward $174 $-1 #
coedge $-1 $278 $278 $175 $279 forward $273 $-1 #
edge $-1 $410 0 $410 6.2831853071796004 $278 $411 forward 7 unknown #
face $-1 $412 $413 $42 $-1 $414 reversed single #
loop $-1 $-1 $415 $176 #
plane-surface $-1 -47.942136906033511 0 0 1 0 0 0 0 -1 forward_v I I I I #
coedge $-1 $416 $291 $417 $418 forward $177 $-1 #
coedge $-1 $419 $179 $416 $420 forward $113 $-1 #
coedge $-1 $179 $419 $421 $422 forward $113 $-1 #
coedge $-1 $294 $293 $179 $287 reversed $295 $-1 #
edge $-1 $423 -22.051451654996921 $424 22.051451654996921 $286 $425 forward 7 unknown #
coedge $-1 $181 $180 $426 $427 forward $71 $-1 #
coedge $-1 $428 $429 $180 $290 reversed $413 $-1 #
edge $-1 $297 -47.942136906033511 $430 47.942136906033511 $289 $431 forward 7 unknown #
coedge $-1 $283 $432 $181 $292 reversed $177 $-1 #
edge $-1 $433 -47.942136906033511 $296 47.942136906033511 $291 $434 forward 7 unknown #
coedge $-1 $286 $182 $432 $435 forward $295 $-1 #
coedge $-1 $182 $286 $428 $436 reversed $295 $-1 #
loop $-1 $-1 $293 $412 #
vertex $-1 $183 $437 #
vertex $-1 $183 $438 #
straight-curve $-1 47.942136906033511 0 8.3312587680704802 0 1 0 I I #
face $-1 $439 $440 $43 $-1 $441 reversed single #
loop $-1 $-1 $442 $184 #
plane-surface $-1 -47.942136906033511 0 0 1 0 0 0 0 -1 forward_v I I I I #
coedge $-1 $443 $308 $313 $444 reversed $185 $-1 #
coedge $-1 $445 $187 $446 $447 reversed $117 $-1 #
coedge $-1 $187 $445 $443 $448 forward $117 $-1 #
coedge $-1 $313 $312 $187 $306 forward $314 $-1 #
edge $-1 $449 -13.231252864840153 $450 -4.4091447154733832 $305 $451 forward 7 unknown #
coedge $-1 $189 $188 $442 $452 reversed $74 $-1 #
coedge $-1 $302 $453 $188 $309 reversed $185 $-1 #
edge $-1 $315 -47.942136906033511 $454 47.942136906033511 $308 $455 forward 7 unknown #
coedge $-1 $456 $457 $189 $311 forward $440 $-1 #
edge $-1 $316 -47.942136906033511 $458 47.942136906033511 $310 $459 forward 7 unknown #
coedge $-1 $305 $190 $457 $460 forward $314 $-1 #
coedge $-1 $190 $305 $302 $444 forward $314 $-1 #
loop $-1 $-1 $190 $439 #
vertex $-1 $191 $461 #
vertex $-1 $460 $462 #
straight-curve $-1 47.942136906033511 -8.820198790156768 0.014591384821548203 0 -1 0 I I #
face $-1 $-1 $330 $44 $-1 $463 forward single #
loop $-1 $-1 $464 $192 #
plane-surface $-1 -47.942136906033511 0 0 1 0 0 0 0 -1 forward_v I I I I #
coedge $-1 $465 $466 $467 $468 reversed $193 $-1 #
coedge $-1 $469 $195 $197 $328 forward $121 $-1 #
coedge $-1 $195 $469 $465 $470 forward $121 $-1 #
coedge $-1 $467 $198 $195 $325 forward $330 $-1 #
edge $-1 $332 -5.7826829796653767 $471 1.9422971574335923 $324 $472 forward 7 unknown #
coedge $-1 $473 $474 $196 $327 forward $319 $-1 #
edge $-1 $475 -36.998762712090532 $331 -30.227816807138286 $326 $476 forward 7 unknown #
edge $-1 $332 -10.997839058322878 $475 9.0167608931652224e-015 $197 $477 forward 7 unknown #
coedge $-1 $198 $467 $473 $478 forward $330 $-1 #
loop $-1 $-1 $467 $318 #
vertex $-1 $327 $479 #
vertex $-1 $199 $480 #
straight-curve $-1 -53.487195560996938 -7.7028758907812689 8.3312587680704837 1 0 0 I I #
coedge $-1 $334 $334 $-1 $481 reversed $202 $-1 #
edge $-1 $482 0 $482 6.2831853071796004 $203 $483 forward 7 unknown #
vertex $-1 $206 $484 #
ellipse-curve $-1 -43.608929217006164 -5.4957387087529916 4.9457858155943573 -0.61566148304635926 0 0.78801074757464917 0.78801074757464917 0 0.61566148304635926 1 I I #
coedge $-1 $338 $338 $-1 $485 reversed $209 $-1 #
edge $-1 $486 0 $486 6.2831853071796004 $210 $487 forward 7 unknown #
vertex $-1 $213 $488 #
ellipse-curve $-1 -43.608929217006164 -2.1850329357105771 4.9457858155943573 -0.61566148304635926 0 0.78801074757464917 0.78801074757464917 0 0.61566148304635926 1 I I #
face $-1 $-1 $489 $47 $-1 $490 reversed single #
loop $-1 $-1 $220 $214 #
plane-surface $-1 0 0 8.3312587680704802 0 0 1 1 0 0 forward_v I I I I #
coedge $-1 $491 $492 $493 $494 reversed $215 $-1 #
coedge $-1 $495 $217 $219 $352 forward $135 $-1 #
coedge $-1 $217 $495 $491 $496 forward $135 $-1 #
coedge $-1 $493 $220 $217 $349 forward $343 $-1 #
edge $-1 $355 3.037515810491394 $497 10.762495947590361 $348 $498 forward 7 unknown #
coedge $-1 $499 $500 $218 $351 forward $489 $-1 #
edge $-1 $501 -36.998762712090532 $354 -30.227816807138286 $350 $502 forward 7 unknown #
edge $-1 $355 -10.997839058322878 $501 9.0167608931652224e-015 $219 $503 forward 7 unknown #
coedge $-1 $220 $493 $499 $504 forward $343 $-1 #
vertex $-1 $221 $505 #
vertex $-1 $221 $506 #
straight-curve $-1 -53.487195560996938 9.9375216895322716 8.3312587680704837 1 0 0 I I #
coedge $-1 $357 $357 $-1 $507 reversed $224 $-1 #
edge $-1 $508 0 $508 6.2831853071796004 $225 $509 forward 7 unknown #
vertex $-1 $228 $510 #
ellipse-curve $-1 -43.608929217006164 12.144658871560541 4.9457858155943573 -0.61566148304635926 0 0.78801074757464917 0.78801074757464917 0 0.61566148304635926 1 I I #
coedge $-1 $361 $361 $-1 $511 reversed $231 $-1 #
edge $-1 $512 0 $512 6.2831853071796004 $232 $513 forward 7 unknown #
vertex $-1 $235 $514 #
ellipse-curve $-1 -43.608929217006164 15.455364644602955 4.9457858155943573 -0.61566148304635926 0 0.78801074757464917 0.78801074757464917 0 0.61566148304635926 1 I I #
face $-1 $-1 $515 $50 $-1 $516 reversed single #
loop $-1 $-1 $242 $236 #
plane-surface $-1 0 0 8.3312587680704802 0 0 1 1 0 0 forward_v I I I I #
coedge $-1 $517 $518 $519 $520 reversed $237 $-1 #
coedge $-1 $521 $239 $241 $375 forward $149 $-1 #
coedge $-1 $239 $521 $517 $522 forward $149 $-1 #
coedge $-1 $519 $242 $239 $372 forward $366 $-1 #
edge $-1 $378 0.43788952576678408 $523 6.9081665175394988 $371 $524 forward 7 unknown #
coedge $-1 $525 $526 $240 $374 forward $515 $-1 #
edge $-1 $527 -65.38566155799117 $377 -61.553603165708935 $373 $528 forward 7 unknown #
edge $-1 $378 90.806746706785503 $527 95.884273812067008 $241 $529 forward 7 unknown #
coedge $-1 $242 $519 $525 $530 forward $366 $-1 #
vertex $-1 $374 $531 #
vertex $-1 $243 $532 #
straight-curve $-1 28.700587540546103 -4.110917547419926 8.3312587680704837 -1 0 0 I I #
coedge $-1 $380 $380 $-1 $533 reversed $246 $-1 #
edge $-1 $534 0 $534 6.2831853071796004 $247 $535 forward 7 unknown #
vertex $-1 $250 $536 #
ellipse-curve $-1 46.276558179058426 -8.7325439701147243 6.4152295719293582 0.75470958851134928 0 0.65605901945558964 0.32802950972779482 0 -0.37735479425567464 1 I I #
coedge $-1 $384 $384 $-1 $537 reversed $253 $-1 #
edge $-1 $538 0 $538 6.2831853071796004 $254 $539 forward 7 unknown #
vertex $-1 $257 $540 #
ellipse-curve $-1 46.276558179058426 -5.9595681164978451 6.4152295719293582 0.75470958851134928 0 0.65605901945558964 0.32802950972779482 0 -0.37735479425567464 1 I I #
face $-1 $-1 $400 $53 $-1 $541 forward single #
loop $-1 $-1 $542 $258 #
plane-surface $-1 47.942136906033511 0 0 -1 0 0 0 0 1 forward_v I I I I #
coedge $-1 $543 $544 $545 $546 reversed $259 $-1 #
coedge $-1 $547 $261 $263 $398 forward $163 $-1 #
coedge $-1 $261 $547 $543 $548 forward $163 $-1 #
coedge $-1 $545 $264 $261 $395 forward $400 $-1 #
edge $-1 $402 -8.382309264389983 $549 -1.9120322726172683 $394 $550 forward 7 unknown #
coedge $-1 $551 $552 $262 $397 forward $389 $-1 #
edge $-1 $553 -65.38566155799117 $401 -61.553603165708935 $396 $554 forward 7 unknown #
edge $-1 $402 90.806746706785503 $553 95.884273812067008 $263 $555 forward 7 unknown #
coedge $-1 $264 $545 $551 $556 forward $400 $-1 #
loop $-1 $-1 $545 $388 #
vertex $-1 $397 $557 #
vertex $-1 $265 $558 #
straight-curve $-1 28.700587540546103 13.529480032893609 8.3312587680704837 -1 0 0 I I #
coedge $-1 $404 $404 $-1 $559 reversed $268 $-1 #
edge $-1 $560 0 $560 6.2831853071796004 $269 $561 forward 7 unknown #
vertex $-1 $272 $562 #
ellipse-curve $-1 46.276558179058426 8.9078536101988099 6.4152295719293582 0.75470958851134928 0 0.65605901945558964 0.32802950972779482 0 -0.37735479425567464 1 I I #
coedge $-1 $408 $408 $-1 $563 reversed $275 $-1 #
edge $-1 $564 0 $564 6.2831853071796004 $276 $565 forward 7 unknown #
vertex $-1 $279 $566 #
ellipse-curve $-1 46.276558179058426 11.680829463815687 6.4152295719293582 0.75470958851134928 0 0.65605901945558964 0.32802950972779482 0 -0.37735479425567464 1 I I #
face $-1 $-1 $295 $42 $-1 $567 reversed single #
loop $-1 $-1 $428 $280 #
plane-surface $-1 0 22.051451654996921 0 0 -1 0 0 0 -1 forward_v I I I I #
coedge $-1 $568 $426 $429 $569 forward $281 $-1 #
coedge $-1 $432 $283 $284 $420 reversed $177 $-1 #
coedge $-1 $426 $568 $283 $418 reversed $281 $-1 #
edge $-1 $433 -8.3312587680704802 $570 8.3312587680704802 $417 $571 forward 7 unknown #
coedge $-1 $285 $284 $568 $572 forward $113 $-1 #
edge $-1 $424 -47.942136906033511 $570 47.942136906033511 $416 $573 forward 7 unknown #
coedge $-1 $429 $428 $285 $422 reversed $413 $-1 #
edge $-1 $574 -47.942136906033511 $423 47.942136906033511 $421 $575 forward 7 unknown #
vertex $-1 $287 $576 #
vertex $-1 $435 $577 #
straight-curve $-1 47.942136906033511 0 -8.3312587680704802 0 -1 0 I I #
coedge $-1 $415 $417 $288 $427 reversed $281 $-1 #
edge $-1 $430 -22.051451654996921 $433 22.051451654996921 $426 $578 forward 7 unknown #
coedge $-1 $421 $289 $294 $436 forward $413 $-1 #
coedge $-1 $289 $421 $415 $569 reversed $413 $-1 #
vertex $-1 $290 $579 #
straight-curve $-1 0 22.051451654996921 8.3312587680704802 -1 0 0 I I #
coedge $-1 $291 $416 $293 $435 reversed $177 $-1 #
vertex $-1 $427 $580 #
straight-curve $-1 0 -22.051451654996921 8.3312587680704802 1 0 0 I I #
edge $-1 $296 -8.3312587680704802 $424 8.3312587680704802 $293 $581 forward 7 unknown #
edge $-1 $297 -8.3312587680704802 $423 8.3312587680704802 $294 $582 forward 7 unknown #
point $-1 47.942136906033511 -22.051451654996921 8.3312587680704802 #
point $-1 47.942136906033511 22.051451654996921 8.3312587680704802 #
face $-1 $-1 $314 $43 $-1 $583 reversed single #
loop $-1 $-1 $310 $299 #
plane-surface $-1 0 -22.051451654996921 0 0 1 0 0 0 1 forward_v I I I I #
coedge $-1 $584 $585 $307 $452 forward $300 $-1 #
coedge $-1 $453 $302 $304 $448 reversed $185 $-1 #
edge $-1 $450 -3.3037866120460335 $315 1.1109897938963766 $313 $586 forward 7 unknown #
coedge $-1 $304 $303 $587 $588 reversed $117 $-1 #
coedge $-1 $457 $456 $303 $447 forward $440 $-1 #
edge $-1 $589 -47.942136906033511 $449 47.942136906033511 $446 $590 forward 7 unknown #
edge $-1 $591 -47.942136906033511 $450 47.942136906033511 $443 $592 forward 7 unknown #
vertex $-1 $447 $593 #
vertex $-1 $306 $594 #
straight-curve $-1 47.942136906033511 -8.820198790156768 -4.400185021120862 0 1 0 I I #
edge $-1 $458 -13.231252864840153 $454 -4.4091447154733832 $442 $595 forward 7 unknown #
coedge $-1 $308 $443 $584 $596 reversed $185 $-1 #
vertex $-1 $452 $597 #
straight-curve $-1 0 -13.229343505630151 0.014591384821548203 -1 0 0 I I #
coedge $-1 $446 $310 $585 $598 forward $440 $-1 #
coedge $-1 $310 $446 $312 $460 reversed $440 $-1 #
vertex $-1 $598 $599 #
straight-curve $-1 0 -22.051451654996921 0.014591384821548203 -1 0 0 I I #
edge $-1 $316 -0.014591384821548203 $449 4.400185021120862 $312 $600 forward 7 unknown #
point $-1 47.942136906033511 -13.229343505630151 0.014591384821548203 #
point $-1 47.942136906033511 -22.051451654996921 0.014591384821548203 #
plane-surface $-1 0 0 8.3312587680704802 0 0 1 1 0 0 forward_v I I I I #
coedge $-1 $474 $473 $466 $601 forward $319 $-1 #
coedge $-1 $466 $321 $323 $470 reversed $193 $-1 #
coedge $-1 $321 $465 $464 $601 reversed $193 $-1 #
coedge $-1 $329 $324 $321 $468 forward $330 $-1 #
edge $-1 $471 -14.211474033018121 $602 -5.5450586549634266 $467 $603 forward 7 unknown #
coedge $-1 $323 $322 $474 $604 reversed $121 $-1 #
edge $-1 $605 -9.0167608931652224e-015 $471 10.997839058322878 $465 $606 forward 7 unknown #
vertex $-1 $325 $607 #
straight-curve $-1 -39.275721527978817 -1.9201929111158922 8.3312587680704802 0 1 0 I I #
coedge $-1 $464 $326 $329 $478 reversed $319 $-1 #
coedge $-1 $326 $464 $469 $604 forward $319 $-1 #
vertex $-1 $327 $608 #
straight-curve $-1 -47.942136906033511 -7.7028758907812689 38.559075575208766 0 0 1 I I #
straight-curve $-1 -47.942136906033504 -7.7028758907812689 1.5603128631182415 -0.78801074757464917 0 -0.61566148304635926 I I #
edge $-1 $602 -0.022104246317700138 $331 7.7028758907812689 $473 $609 forward 7 unknown #
point $-1 -47.942136906033511 -7.7028758907812689 8.3312587680704802 #
point $-1 -39.275721527978817 -7.7028758907812689 8.3312587680704802 #
edge $-1 $610 1 $610 0 $334 $-1 forward 7 unknown #
vertex $-1 $335 $611 #
ellipse-curve $-1 -42.680598806704509 -5.4957387087529916 3.7575770990146307 -0.61566148304635926 0 0.78801074757464917 0.78801074757464917 0 0.61566148304635926 1 I I #
point $-1 -42.820918469431525 -5.4957387087529916 5.5614472986407275 #
edge $-1 $612 1 $612 0 $338 $-1 forward 7 unknown #
vertex $-1 $339 $613 #
ellipse-curve $-1 -42.680598806704509 -2.1850329357105771 3.7575770990146307 -0.61566148304635926 0 0.78801074757464917 0.78801074757464917 0 0.61566148304635926 1 I I #
point $-1 -42.820918469431525 -2.1850329357105771 5.5614472986407275 #
loop $-1 $-1 $350 $342 #
plane-surface $-1 -47.942136906033511 0 0 1 0 0 0 0 -1 forward_v I I I I #
coedge $-1 $492 $345 $347 $496 reversed $215 $-1 #
coedge $-1 $345 $491 $614 $615 reversed $215 $-1 #
coedge $-1 $353 $348 $345 $494 forward $343 $-1 #
edge $-1 $497 -14.211474033018121 $616 -5.5450586549634266 $493 $617 forward 7 unknown #
coedge $-1 $347 $346 $500 $618 reversed $135 $-1 #
edge $-1 $619 -9.0167608931652224e-015 $497 10.997839058322878 $491 $620 forward 7 unknown #
vertex $-1 $349 $621 #
straight-curve $-1 -39.275721527978817 6.9000058790408776 8.3312587680704802 0 1 0 I I #
coedge $-1 $614 $350 $353 $504 reversed $489 $-1 #
coedge $-1 $350 $614 $495 $618 forward $489 $-1 #
vertex $-1 $351 $622 #
straight-curve $-1 -47.942136906033511 9.9375216895322716 38.559075575208766 0 0 1 I I #
straight-curve $-1 -47.942136906033504 9.9375216895322716 1.5603128631182415 -0.78801074757464917 0 -0.61566148304635926 I I #
edge $-1 $616 -17.662501826631239 $354 -9.9375216895322716 $499 $623 forward 7 unknown #
point $-1 -47.942136906033511 9.9375216895322716 8.3312587680704802 #
point $-1 -39.275721527978817 9.9375216895322716 8.3312587680704802 #
edge $-1 $624 1 $624 0 $357 $-1 forward 7 unknown #
vertex $-1 $358 $625 #
ellipse-curve $-1 -42.680598806704509 12.144658871560541 3.7575770990146307 -0.61566148304635926 0 0.78801074757464917 0.78801074757464917 0 0.61566148304635926 1 I I #
point $-1 -42.820918469431525 12.144658871560541 5.5614472986407275 #
edge $-1 $626 1 $626 0 $361 $-1 forward 7 unknown #
vertex $-1 $362 $627 #
ellipse-curve $-1 -42.680598806704509 15.455364644602955 3.7575770990146307 -0.61566148304635926 0 0.78801074757464917 0.78801074757464917 0 0.61566148304635926 1 I I #
point $-1 -42.820918469431525 15.455364644602955 5.5614472986407275 #
loop $-1 $-1 $373 $365 #
plane-surface $-1 47.942136906033511 0 0 -1 0 0 0 0 1 forward_v I I I I #
coedge $-1 $518 $368 $370 $522 reversed $237 $-1 #
coedge $-1 $368 $517 $628 $629 reversed $237 $-1 #
coedge $-1 $376 $371 $368 $520 forward $366 $-1 #
edge $-1 $523 15.910391911537246 $630 19.241549365487408 $519 $631 forward 7 unknown #
coedge $-1 $370 $369 $526 $632 reversed $149 $-1 #
edge $-1 $633 -95.884273812067008 $523 -90.806746706785503 $517 $634 forward 7 unknown #
vertex $-1 $372 $635 #
straight-curve $-1 44.610979452083342 -3.6730280216531419 8.3312587680704766 0 -1 0 I I #
coedge $-1 $628 $373 $376 $530 reversed $515 $-1 #
coedge $-1 $373 $628 $521 $632 forward $515 $-1 #
vertex $-1 $374 $636 #
straight-curve $-1 47.942136906033511 -4.110917547419926 69.884861933779419 0 0 1 I I #
straight-curve $-1 -14.963605752322437 -4.110917547419926 76.863981209202876 0.65605901945558964 0 -0.75470958851134928 I I #
edge $-1 $630 -10.581194539192641 $377 -4.110917547419926 $525 $637 forward 7 unknown #
point $-1 47.942136906033511 -4.110917547419926 8.3312587680704802 #
point $-1 44.610979452083349 -4.110917547419926 8.3312587680704837 #
edge $-1 $638 1 $638 0 $380 $-1 forward 7 unknown #
vertex $-1 $381 $639 #
ellipse-curve $-1 45.521848590547073 -8.7325439701147243 5.7591705524737637 0.75470958851134928 0 0.65605901945558964 0.32802950972779482 0 -0.37735479425567464 1 I I #
point $-1 46.604587688786211 -8.7325439701147243 6.0378747776736788 #
edge $-1 $640 1 $640 0 $384 $-1 forward 7 unknown #
vertex $-1 $385 $641 #
ellipse-curve $-1 45.521848590547073 -5.9595681164978451 5.7591705524737637 0.75470958851134928 0 0.65605901945558964 0.32802950972779482 0 -0.37735479425567464 1 I I #
point $-1 46.604587688786211 -5.9595681164978451 6.0378747776736788 #
plane-surface $-1 0 0 8.3312587680704802 0 0 1 1 0 0 forward_v I I I I #
coedge $-1 $552 $551 $544 $642 forward $389 $-1 #
coedge $-1 $544 $391 $393 $548 reversed $259 $-1 #
coedge $-1 $391 $543 $542 $642 reversed $259 $-1 #
coedge $-1 $399 $394 $391 $546 forward $400 $-1 #
edge $-1 $549 15.910391911537246 $643 19.241549365487408 $545 $644 forward 7 unknown #
coedge $-1 $393 $392 $552 $645 reversed $163 $-1 #
edge $-1 $646 -95.884273812067008 $549 -90.806746706785503 $543 $647 forward 7 unknown #
vertex $-1 $395 $648 #
straight-curve $-1 44.610979452083342 5.1471707685036261 8.3312587680704766 0 -1 0 I I #
coedge $-1 $542 $396 $399 $556 reversed $389 $-1 #
coedge $-1 $396 $542 $547 $645 forward $389 $-1 #
vertex $-1 $397 $649 #
straight-curve $-1 47.942136906033511 13.529480032893609 69.884861933779419 0 0 1 I I #
straight-curve $-1 -14.963605752322437 13.529480032893609 76.863981209202876 0.65605901945558964 0 -0.75470958851134928 I I #
edge $-1 $643 7.0592030411208944 $401 13.529480032893609 $551 $650 forward 7 unknown #
point $-1 47.942136906033511 13.529480032893609 8.3312587680704802 #
point $-1 44.610979452083349 13.529480032893609 8.3312587680704837 #
edge $-1 $651 1 $651 0 $404 $-1 forward 7 unknown #
vertex $-1 $405 $652 #
ellipse-curve $-1 45.521848590547073 8.9078536101988099 5.7591705524737637 0.75470958851134928 0 0.65605901945558964 0.32802950972779482 0 -0.37735479425567464 1 I I #
point $-1 46.604587688786211 8.9078536101988099 6.0378747776736788 #
edge $-1 $653 1 $653 0 $408 $-1 forward 7 unknown #
vertex $-1 $409 $654 #
ellipse-curve $-1 45.521848590547073 11.680829463815687 5.7591705524737637 0.75470958851134928 0 0.65605901945558964 0.32802950972779482 0 -0.37735479425567464 1 I I #
point $-1 46.604587688786211 11.680829463815687 6.0378747776736788 #
plane-surface $-1 47.942136906033511 0 0 -1 0 0 0 0 1 forward_v I I I I #
coedge $-1 $417 $415 $419 $572 reversed $281 $-1 #
edge $-1 $430 -8.3312587680704802 $574 8.3312587680704802 $429 $655 forward 7 unknown #
vertex $-1 $572 $656 #
straight-curve $-1 -47.942136906033511 -22.051451654996921 0 0 0 -1 I I #
edge $-1 $570 -22.051451654996921 $574 22.051451654996921 $568 $657 forward 7 unknown #
straight-curve $-1 0 -22.051451654996921 -8.3312587680704802 -1 0 0 I I #
vertex $-1 $422 $658 #
straight-curve $-1 0 22.051451654996921 -8.3312587680704802 1 0 0 I I #
point $-1 47.942136906033511 22.051451654996921 -8.3312587680704802 #
point $-1 47.942136906033511 -22.051451654996921 -8.3312587680704802 #
straight-curve $-1 -47.942136906033511 0 8.3312587680704802 0 -1 0 I I #
point $-1 -47.942136906033511 22.051451654996921 8.3312587680704802 #
point $-1 -47.942136906033511 -22.051451654996921 8.3312587680704802 #
straight-curve $-1 47.942136906033511 -22.051451654996921 0 0 0 -1 I I #
straight-curve $-1 47.942136906033511 22.051451654996921 0 0 0 -1 I I #
plane-surface $-1 47.942136906033511 0 0 -1 0 0 0 0 1 forward_v I I I I #
coedge $-1 $587 $442 $453 $596 forward $300 $-1 #
coedge $-1 $442 $587 $456 $598 reversed $300 $-1 #
straight-curve $-1 47.942136906033511 -13.229343505630151 -1.0963984090748284 0 0 1 I I #
coedge $-1 $585 $584 $445 $588 forward $300 $-1 #
edge $-1 $591 4.4091447154733832 $589 13.231252864840153 $587 $659 forward 7 unknown #
vertex $-1 $447 $660 #
straight-curve $-1 0 -22.051451654996921 -4.400185021120862 1 0 0 I I #
vertex $-1 $588 $661 #
straight-curve $-1 0 -13.229343505630151 -4.400185021120862 1 0 0 I I #
point $-1 47.942136906033511 -22.051451654996921 -4.400185021120862 #
point $-1 47.942136906033511 -13.229343505630151 -4.400185021120862 #
straight-curve $-1 -47.942136906033511 -8.820198790156768 0.014591384821548203 0 1 0 I I #
edge $-1 $454 -1.1109897938963766 $591 3.3037866120460335 $584 $662 forward 7 unknown #
point $-1 -47.942136906033511 -13.229343505630151 0.014591384821548203 #
edge $-1 $458 -0.014591384821548203 $589 4.400185021120862 $585 $663 forward 7 unknown #
point $-1 -47.942136906033511 -22.051451654996921 0.014591384821548203 #
straight-curve $-1 47.942136906033511 -22.051451654996921 0 0 0 -1 I I #
edge $-1 $602 30.227816807138286 $605 36.998762712090532 $464 $664 forward 7 unknown #
vertex $-1 $478 $665 #
straight-curve $-1 -53.487195560996938 0.022104246317700138 8.3312587680704837 -1 0 0 I I #
edge $-1 $605 -1.9422971574335923 $475 5.7826829796653767 $474 $666 forward 7 unknown #
vertex $-1 $604 $667 #
straight-curve $-1 -47.942136906033504 0.022104246317700138 1.5603128631182415 0.78801074757464917 0 0.61566148304635926 I I #
point $-1 -39.275721527978817 0.022104246317700138 8.3312587680704802 #
point $-1 -47.942136906033511 -7.7028758907812689 1.5603128631182359 #
straight-curve $-1 -47.942136906033511 0 8.3312587680704802 0 -1 0 I I #
vertex $-1 $481 $668 #
point $-1 -41.892588059129864 -5.4957387087529916 4.3732385820609903 #
vertex $-1 $485 $669 #
point $-1 -41.892588059129864 -2.1850329357105771 4.3732385820609903 #
coedge $-1 $500 $499 $492 $615 forward $489 $-1 #
edge $-1 $616 30.227816807138286 $619 36.998762712090532 $614 $670 forward 7 unknown #
vertex $-1 $504 $671 #
straight-curve $-1 -53.487195560996938 17.662501826631239 8.3312587680704837 -1 0 0 I I #
edge $-1 $619 -10.762495947590361 $501 -3.037515810491394 $500 $672 forward 7 unknown #
vertex $-1 $618 $673 #
straight-curve $-1 -47.942136906033504 17.662501826631239 1.5603128631182415 0.78801074757464917 0 0.61566148304635926 I I #
point $-1 -39.275721527978817 17.662501826631239 8.3312587680704802 #
point $-1 -47.942136906033511 9.9375216895322716 1.5603128631182359 #
straight-curve $-1 -47.942136906033511 0 8.3312587680704802 0 -1 0 I I #
vertex $-1 $507 $674 #
point $-1 -41.892588059129864 12.144658871560541 4.3732385820609903 #
vertex $-1 $511 $675 #
point $-1 -41.892588059129864 15.455364644602955 4.3732385820609903 #
coedge $-1 $526 $525 $518 $629 forward $515 $-1 #
edge $-1 $630 61.553603165708935 $633 65.38566155799117 $628 $676 forward 7 unknown #
vertex $-1 $530 $677 #
straight-curve $-1 28.700587540546103 -10.581194539192641 8.3312587680704837 1 0 0 I I #
edge $-1 $633 -6.9081665175394988 $527 -0.43788952576678408 $526 $678 forward 7 unknown #
vertex $-1 $632 $679 #
straight-curve $-1 -14.963605752322437 -10.581194539192641 76.863981209202876 -0.65605901945558964 0 0.75470958851134928 I I #
point $-1 44.610979452083349 -10.581194539192641 8.3312587680704837 #
point $-1 47.942136906033511 -4.110917547419926 4.4992003757882486 #
straight-curve $-1 47.942136906033511 0 8.3312587680704802 0 1 0 I I #
vertex $-1 $533 $680 #
point $-1 45.849878100274864 -8.7325439701147243 5.3818157582180888 #
vertex $-1 $537 $681 #
point $-1 45.849878100274864 -5.9595681164978451 5.3818157582180888 #
edge $-1 $643 61.553603165708935 $646 65.38566155799117 $542 $682 forward 7 unknown #
vertex $-1 $556 $683 #
straight-curve $-1 28.700587540546103 7.0592030411208944 8.3312587680704837 1 0 0 I I #
edge $-1 $646 1.9120322726172683 $553 8.382309264389983 $552 $684 forward 7 unknown #
vertex $-1 $645 $685 #
straight-curve $-1 -14.963605752322437 7.0592030411208944 76.863981209202876 -0.65605901945558964 0 0.75470958851134928 I I #
point $-1 44.610979452083349 7.0592030411208944 8.3312587680704837 #
point $-1 47.942136906033511 13.529480032893609 4.4992003757882486 #
straight-curve $-1 47.942136906033511 0 8.3312587680704802 0 1 0 I I #
vertex $-1 $559 $686 #
point $-1 45.849878100274864 8.9078536101988099 5.3818157582180888 #
vertex $-1 $563 $687 #
point $-1 45.849878100274864 11.680829463815687 5.3818157582180888 #
straight-curve $-1 -47.942136906033511 22.051451654996921 0 0 0 -1 I I #
point $-1 -47.942136906033511 -22.051451654996921 -8.3312587680704802 #
straight-curve $-1 -47.942136906033511 0 -8.3312587680704802 0 1 0 I I #
point $-1 -47.942136906033511 22.051451654996921 -8.3312587680704802 #
straight-curve $-1 -47.942136906033511 -8.820198790156768 -4.400185021120862 0 -1 0 I I #
point $-1 -47.942136906033511 -22.051451654996921 -4.400185021120862 #
point $-1 -47.942136906033511 -13.229343505630151 -4.400185021120862 #
straight-curve $-1 -47.942136906033511 -13.229343505630151 -1.0963984090748284 0 0 -1 I I #
straight-curve $-1 -47.942136906033511 -22.051451654996921 0 0 0 -1 I I #
straight-curve $-1 -47.942136906033511 0.022104246317700138 38.559075575208766 0 0 -1 I I #
point $-1 -47.942136906033511 0.022104246317700138 8.3312587680704802 #
straight-curve $-1 -47.942136906033511 -1.9201929111158922 1.5603128631182366 0 -1 0 I I #
point $-1 -47.942136906033511 0.022104246317700138 1.5603128631182359 #
point $-1 -42.064937323658157 -5.4957387087529916 2.9695663514399815 #
point $-1 -42.064937323658157 -2.1850329357105771 2.9695663514399815 #
straight-curve $-1 -47.942136906033511 17.662501826631239 38.559075575208766 0 0 -1 I I #
point $-1 -47.942136906033511 17.662501826631239 8.3312587680704802 #
straight-curve $-1 -47.942136906033511 6.9000058790408776 1.5603128631182366 0 -1 0 I I #
point $-1 -47.942136906033511 17.662501826631239 1.5603128631182359 #
point $-1 -42.064937323658157 12.144658871560541 2.9695663514399815 #
point $-1 -42.064937323658157 15.455364644602955 2.9695663514399815 #
straight-curve $-1 47.942136906033511 -10.581194539192641 69.884861933779419 0 0 -1 I I #
point $-1 47.942136906033511 -10.581194539192641 8.3312587680704802 #
straight-curve $-1 47.942136906033511 -3.6730280216531419 4.4992003757882486 0 1 0 I I #
point $-1 47.942136906033511 -10.581194539192641 4.4992003757882486 #
point $-1 45.144493796291393 -8.7325439701147243 5.4311410427459688 #
point $-1 45.144493796291393 -5.9595681164978451 5.4311410427459688 #
straight-curve $-1 47.942136906033511 7.0592030411208944 69.884861933779419 0 0 -1 I I #
point $-1 47.942136906033511 7.0592030411208944 8.3312587680704802 #
straight-curve $-1 47.942136906033511 5.1471707685036261 4.4992003757882486 0 1 0 I I #
point $-1 47.942136906033511 7.0592030411208944 4.4992003757882486 #
point $-1 45.144493796291393 8.9078536101988099 5.4311410427459688 #
point $-1 45.144493796291393 11.680829463815687 5.4311410427459688 #
End-of-ACIS-data 