500 0 5 0           
7 Unknown 11 ACIS 5.0 NT 24 Fri Mar 26 20:28:52 1999 
-1 9.9999999999999995e-007 1e-010 
body $-1 $5 $-1 $6 #
body $-1 $7 $-1 $8 #
body $-1 $9 $-1 $10 #
body $-1 $11 $-1 $12 #
body $-1 $13 $-1 $14 #
lump $-1 $-1 $15 $0 #
transform $-1 1 0 0 0 1 0 0 0 1 64.291512802514717 29.025262551923596 10.904647728482933 1 rotate no_reflect no_shear #
lump $-1 $-1 $16 $1 #
transform $-1 1 0 0 0 1 0 0 0 1 64.291512802514717 29.025262551923596 10.904647728482933 1 rotate no_reflect no_shear #
lump $-1 $-1 $17 $2 #
transform $-1 1 0 0 0 1 0 0 0 1 64.291512802514717 29.025262551923596 10.904647728482933 1 rotate no_reflect no_shear #
lump $-1 $-1 $18 $3 #
transform $-1 1 0 0 0 1 0 0 0 1 64.291512802514717 29.025262551923596 10.904647728482933 1 rotate no_reflect no_shear #
lump $-1 $-1 $19 $4 #
transform $-1 1 0 0 0 1 0 0 0 1 64.291512802514717 29.025262551923596 10.904647728482933 1 rotate no_reflect no_shear #
shell $-1 $-1 $-1 $20 $-1 $5 #
shell $-1 $-1 $-1 $21 $-1 $7 #
shell $-1 $-1 $-1 $22 $-1 $9 #
shell $-1 $-1 $-1 $23 $-1 $11 #
shell $-1 $-1 $-1 $24 $-1 $13 #
face $-1 $25 $26 $15 $-1 $27 forward single #
face $-1 $28 $29 $16 $-1 $30 forward single #
face $-1 $31 $32 $17 $-1 $33 reversed single #
face $-1 $34 $35 $18 $-1 $36 forward single #
face $-1 $37 $38 $19 $-1 $39 forward single #
face $-1 $40 $41 $15 $-1 $42 reversed single #
loop $-1 $-1 $43 $20 #
plane-surface $-1 0 0 10.904647728482933 0 0 1 1 0 0 forward_v I I I I #
face $-1 $44 $45 $16 $-1 $46 reversed single #
loop $-1 $-1 $47 $21 #
plane-surface $-1 0 -22.659107443334143 -7.9046477284829333 0 0 1 1 0 0 forward_v I I I I #
face $-1 $48 $49 $17 $-1 $50 reversed single #
loop $-1 $-1 $51 $22 #
plane-surface $-1 -169.62056213361058 -13.98397832616236 76.073384784991916 0 1 0 -0.81915205242281985 0 0.57357642473473569 forward_v I I I I #
face $-1 $52 $53 $18 $-1 $54 forward single #
loop $-1 $55 $56 $23 #
cone-surface $-1 -59.939356913890876 -10.56316441586555 5.6697014558864458 0.81915205242281985 0 -0.57357642473473569 0.86036463710210354 0 1.2287280786342298 1 I I 0 1 1.5 forward I I I I #
face $-1 $57 $58 $19 $-1 $59 forward single #
loop $-1 $60 $61 $24 #
cone-surface $-1 -59.939356913890876 -5.4319435504203355 5.6697014558864458 0.81915205242281985 0 -0.57357642473473569 0.86036463710210354 0 1.2287280786342298 1 I I 0 1 1.5 forward I I I I #
face $-1 $62 $63 $15 $-1 $64 reversed single #
loop $-1 $-1 $65 $25 #
plane-surface $-1 0 0 -10.904647728482933 0 0 1 1 0 0 forward_v I I I I #
coedge $-1 $66 $67 $68 $69 forward $26 $-1 #
face $-1 $70 $71 $16 $-1 $72 reversed single #
loop $-1 $-1 $73 $28 #
plane-surface $-1 0 -16.29295233474469 -9.4046477284829333 0 -1 0 0 0 -1 forward_v I I I I #
coedge $-1 $74 $75 $76 $77 reversed $29 $-1 #
face $-1 $78 $79 $17 $-1 $80 reversed single #
loop $-1 $-1 $81 $31 #
plane-surface $-1 -64.291512802514717 -7.997553983142943 2.3211926768841522 -0.81915205242281985 0 0.57357642473473569 0.57357642473473569 0 0.81915205242281985 forward_v I I I I #
coedge $-1 $82 $83 $84 $85 reversed $32 $-1 #
face $-1 $-1 $86 $18 $-1 $87 forward single #
loop $-1 $88 $89 $34 #
cone-surface $-1 -57.97793686075687 -10.56316441586555 4.2963003905383026 0.81915205242281985 0 -0.57357642473473569 0.43018231855105177 0 0.61436403931711492 1 I I -0.70710678118654757 0.70710678118654757 0.75 forward I I I I #
loop $-1 $-1 $90 $23 #
coedge $-1 $56 $56 $91 $92 reversed $35 $-1 #
face $-1 $-1 $93 $19 $-1 $94 forward single #
loop $-1 $95 $96 $37 #
cone-surface $-1 -57.97793686075687 -5.4319435504203355 4.2963003905383026 0.81915205242281985 0 -0.57357642473473569 0.43018231855105177 0 0.61436403931711492 1 I I -0.70710678118654757 0.70710678118654757 0.75 forward I I I I #
loop $-1 $-1 $97 $24 #
coedge $-1 $61 $61 $98 $99 reversed $38 $-1 #
face $-1 $100 $101 $15 $-1 $102 reversed single #
loop $-1 $-1 $103 $40 #
plane-surface $-1 0 -29.025262551923596 0 0 1 0 0 0 1 forward_v I I I I #
coedge $-1 $104 $105 $106 $107 forward $41 $-1 #
coedge $-1 $108 $43 $109 $110 forward $26 $-1 #
coedge $-1 $43 $108 $111 $112 forward $26 $-1 #
coedge $-1 $113 $114 $43 $69 reversed $115 $-1 #
edge $-1 $116 -29.025262551923596 $117 29.025262551923596 $68 $118 forward 7 unknown #
face $-1 $119 $120 $16 $-1 $121 reversed single #
loop $-1 $-1 $122 $44 #
plane-surface $-1 0 0 -10.904647728482933 0 0 1 1 0 0 forward_v I I I I #
coedge $-1 $123 $124 $125 $126 reversed $45 $-1 #
coedge $-1 $127 $47 $124 $128 forward $29 $-1 #
coedge $-1 $47 $127 $129 $130 reversed $29 $-1 #
coedge $-1 $131 $125 $47 $77 forward $120 $-1 #
edge $-1 $132 4.9633986130776186 $133 17.695708830256525 $76 $134 forward 7 unknown #
face $-1 $135 $136 $17 $-1 $137 forward single #
loop $-1 $-1 $138 $48 #
plane-surface $-1 -169.62056213361058 -2.0111296401235261 76.073384784991916 0 -1 0 0.81915205242281985 0 -0.57357642473473569 forward_v I I I I #
coedge $-1 $139 $140 $141 $142 reversed $49 $-1 #
coedge $-1 $83 $51 $143 $144 reversed $32 $-1 #
coedge $-1 $51 $82 $139 $145 reversed $32 $-1 #
coedge $-1 $141 $146 $51 $85 forward $136 $-1 #
edge $-1 $147 20.518768264290571 $148 26.528968013904461 $84 $149 forward 7 unknown #
loop $-1 $-1 $91 $52 #
plane-surface $-1 -64.291512802514717 -7.997553983142943 2.3211926768841522 -0.81915205242281985 0 0.57357642473473569 0.57357642473473569 0 0.81915205242281985 forward_v I I I I #
loop $-1 $-1 $150 $34 #
coedge $-1 $89 $89 $90 $151 reversed $53 $-1 #
coedge $-1 $90 $90 $89 $151 forward $55 $-1 #
coedge $-1 $91 $91 $56 $92 forward $86 $-1 #
edge $-1 $152 0 $152 6.2831853071796004 $91 $153 forward 7 unknown #
loop $-1 $-1 $98 $57 #
plane-surface $-1 -64.291512802514717 -7.997553983142943 2.3211926768841522 -0.81915205242281985 0 0.57357642473473569 0.57357642473473569 0 0.81915205242281985 forward_v I I I I #
loop $-1 $-1 $154 $37 #
coedge $-1 $96 $96 $97 $155 reversed $58 $-1 #
coedge $-1 $97 $97 $96 $155 forward $60 $-1 #
coedge $-1 $98 $98 $61 $99 forward $93 $-1 #
edge $-1 $156 0 $156 6.2831853071796004 $98 $157 forward 7 unknown #
face $-1 $158 $159 $15 $-1 $160 reversed single #
loop $-1 $-1 $161 $62 #
plane-surface $-1 -64.291512802514717 0 0 1 0 0 0 0 -1 forward_v I I I I #
coedge $-1 $162 $111 $163 $164 forward $63 $-1 #
coedge $-1 $165 $65 $162 $166 forward $41 $-1 #
coedge $-1 $65 $165 $167 $168 forward $41 $-1 #
coedge $-1 $114 $113 $65 $107 reversed $115 $-1 #
edge $-1 $169 -29.025262551923596 $170 29.025262551923596 $106 $171 forward 7 unknown #
coedge $-1 $67 $66 $172 $173 forward $26 $-1 #
coedge $-1 $174 $175 $66 $110 reversed $159 $-1 #
edge $-1 $117 -64.291512802514717 $176 64.291512802514717 $109 $177 forward 7 unknown #
coedge $-1 $103 $178 $67 $112 reversed $63 $-1 #
edge $-1 $179 -64.291512802514717 $116 64.291512802514717 $111 $180 forward 7 unknown #
coedge $-1 $106 $68 $178 $181 forward $115 $-1 #
coedge $-1 $68 $106 $174 $182 reversed $115 $-1 #
loop $-1 $-1 $113 $158 #
vertex $-1 $69 $183 #
vertex $-1 $69 $184 #
straight-curve $-1 64.291512802514717 0 10.904647728482933 0 1 0 I I #
face $-1 $185 $186 $16 $-1 $187 reversed single #
loop $-1 $-1 $125 $70 #
plane-surface $-1 64.291512802514717 0 0 -1 0 0 0 0 1 forward_v I I I I #
coedge $-1 $188 $189 $123 $190 forward $71 $-1 #
coedge $-1 $191 $73 $122 $190 reversed $45 $-1 #
coedge $-1 $73 $191 $74 $128 reversed $45 $-1 #
coedge $-1 $76 $192 $73 $126 forward $120 $-1 #
edge $-1 $193 -6.2023238642414666 $132 -3.2023238642414666 $125 $194 forward 7 unknown #
coedge $-1 $75 $74 $195 $196 reversed $29 $-1 #
edge $-1 $132 -64.291512802514717 $197 64.291512802514717 $124 $198 forward 7 unknown #
coedge $-1 $199 $200 $75 $130 forward $186 $-1 #
edge $-1 $133 -64.291512802514717 $201 64.291512802514717 $129 $202 forward 7 unknown #
coedge $-1 $192 $76 $200 $203 forward $120 $-1 #
vertex $-1 $77 $204 #
vertex $-1 $203 $205 #
straight-curve $-1 64.291512802514717 -11.329553721667072 -7.9046477284829333 0 -1 0 I I #
face $-1 $-1 $206 $17 $-1 $207 reversed single #
loop $-1 $-1 $84 $78 #
plane-surface $-1 0 0 10.904647728482933 0 0 1 1 0 0 forward_v I I I I #
coedge $-1 $208 $209 $210 $211 reversed $79 $-1 #
coedge $-1 $212 $81 $83 $145 forward $49 $-1 #
coedge $-1 $81 $212 $208 $213 forward $49 $-1 #
coedge $-1 $210 $84 $81 $142 forward $136 $-1 #
edge $-1 $148 -9.9852013345908883 $214 1.9876473514479454 $141 $215 forward 7 unknown #
coedge $-1 $216 $217 $82 $144 forward $206 $-1 #
edge $-1 $218 -35.715499715611806 $147 -27.132044664013023 $143 $219 forward 7 unknown #
edge $-1 $148 -10.4784637067213 $218 0 $83 $220 forward 7 unknown #
coedge $-1 $84 $210 $216 $221 forward $136 $-1 #
vertex $-1 $144 $222 #
vertex $-1 $85 $223 #
straight-curve $-1 -84.810281066805288 -13.98397832616236 10.904647728482935 1 0 0 I I #
coedge $-1 $150 $150 $-1 $224 reversed $88 $-1 #
edge $-1 $225 0 $225 6.2831853071796004 $89 $226 forward 7 unknown #
vertex $-1 $92 $227 #
ellipse-curve $-1 -61.286412927707772 -10.56316441586555 6.612920202683541 -0.81915205242281985 0 0.57357642473473569 0.86036463710210354 0 1.2287280786342298 1 I I #
coedge $-1 $154 $154 $-1 $228 reversed $95 $-1 #
edge $-1 $229 0 $229 6.2831853071796004 $96 $230 forward 7 unknown #
vertex $-1 $99 $231 #
ellipse-curve $-1 -61.286412927707772 -5.4319435504203355 6.612920202683541 -0.81915205242281985 0 0.57357642473473569 0.86036463710210354 0 1.2287280786342298 1 I I #
face $-1 $-1 $115 $15 $-1 $232 reversed single #
loop $-1 $-1 $174 $100 #
plane-surface $-1 0 29.025262551923596 0 0 -1 0 0 0 -1 forward_v I I I I #
coedge $-1 $233 $172 $175 $234 forward $101 $-1 #
coedge $-1 $178 $103 $104 $166 reversed $63 $-1 #
coedge $-1 $172 $233 $103 $164 reversed $101 $-1 #
edge $-1 $179 -10.904647728482933 $235 10.904647728482933 $163 $236 forward 7 unknown #
coedge $-1 $105 $104 $233 $237 forward $41 $-1 #
edge $-1 $170 -64.291512802514717 $235 64.291512802514717 $162 $238 forward 7 unknown #
coedge $-1 $175 $174 $105 $168 reversed $159 $-1 #
edge $-1 $239 -64.291512802514717 $169 64.291512802514717 $167 $240 forward 7 unknown #
vertex $-1 $107 $241 #
vertex $-1 $181 $242 #
straight-curve $-1 64.291512802514717 0 -10.904647728482933 0 -1 0 I I #
coedge $-1 $161 $163 $108 $173 reversed $101 $-1 #
edge $-1 $176 -29.025262551923596 $179 29.025262551923596 $172 $243 forward 7 unknown #
coedge $-1 $167 $109 $114 $182 forward $159 $-1 #
coedge $-1 $109 $167 $161 $234 reversed $159 $-1 #
vertex $-1 $110 $244 #
straight-curve $-1 0 29.025262551923596 10.904647728482933 -1 0 0 I I #
coedge $-1 $111 $162 $113 $181 reversed $63 $-1 #
vertex $-1 $173 $245 #
straight-curve $-1 0 -29.025262551923596 10.904647728482933 1 0 0 I I #
edge $-1 $116 -10.904647728482933 $170 10.904647728482933 $113 $246 forward 7 unknown #
edge $-1 $117 -10.904647728482933 $169 10.904647728482933 $114 $247 forward 7 unknown #
point $-1 64.291512802514717 -29.025262551923596 10.904647728482933 #
point $-1 64.291512802514717 29.025262551923596 10.904647728482933 #
face $-1 $-1 $248 $16 $-1 $249 reversed single #
loop $-1 $-1 $129 $119 #
plane-surface $-1 0 -29.025262551923596 0 0 1 0 0 0 1 forward_v I I I I #
coedge $-1 $250 $122 $192 $251 forward $71 $-1 #
coedge $-1 $122 $250 $252 $253 forward $71 $-1 #
edge $-1 $254 -64.291512802514717 $193 64.291512802514717 $122 $255 forward 7 unknown #
coedge $-1 $124 $123 $256 $257 reversed $45 $-1 #
coedge $-1 $125 $131 $188 $251 reversed $120 $-1 #
vertex $-1 $251 $258 #
straight-curve $-1 64.291512802514717 -16.29295233474469 -4.7023238642414666 0 0 1 I I #
coedge $-1 $256 $259 $127 $196 forward $248 $-1 #
edge $-1 $201 -17.695708830256525 $197 -4.9633986130776186 $195 $260 forward 7 unknown #
vertex $-1 $196 $261 #
straight-curve $-1 0 -16.29295233474469 -7.9046477284829333 -1 0 0 I I #
coedge $-1 $262 $129 $259 $263 forward $186 $-1 #
coedge $-1 $129 $262 $131 $203 reversed $186 $-1 #
vertex $-1 $263 $264 #
straight-curve $-1 0 -29.025262551923596 -7.9046477284829333 -1 0 0 I I #
edge $-1 $133 7.9046477284829333 $265 10.904647728482933 $131 $266 forward 7 unknown #
point $-1 64.291512802514717 -16.29295233474469 -7.9046477284829333 #
point $-1 64.291512802514717 -29.025262551923596 -7.9046477284829333 #
loop $-1 $-1 $143 $135 #
plane-surface $-1 -64.291512802514717 0 0 1 0 0 0 0 -1 forward_v I I I I #
coedge $-1 $209 $138 $140 $213 reversed $79 $-1 #
coedge $-1 $138 $208 $267 $268 reversed $79 $-1 #
coedge $-1 $146 $141 $138 $211 forward $136 $-1 #
edge $-1 $214 -26.528968013904461 $269 -20.518768264290571 $210 $270 forward 7 unknown #
coedge $-1 $140 $139 $217 $271 reversed $49 $-1 #
edge $-1 $272 0 $214 10.4784637067213 $208 $273 forward 7 unknown #
vertex $-1 $142 $274 #
straight-curve $-1 -58.281313052900828 -3.9987769915714715 10.904647728482933 0 1 0 I I #
coedge $-1 $267 $143 $146 $221 reversed $206 $-1 #
coedge $-1 $143 $267 $212 $271 forward $206 $-1 #
vertex $-1 $144 $275 #
straight-curve $-1 -64.291512802514717 -13.98397832616236 38.036692392495958 0 0 1 I I #
straight-curve $-1 -64.291512802514717 -13.98397832616236 2.3211926768841522 -0.57357642473473569 0 -0.81915205242281985 I I #
edge $-1 $269 2.0111296401235261 $147 13.98397832616236 $216 $276 forward 7 unknown #
point $-1 -64.291512802514717 -13.98397832616236 10.904647728482933 #
point $-1 -58.281313052900828 -13.98397832616236 10.904647728482933 #
edge $-1 $277 1 $277 0 $150 $-1 forward 7 unknown #
vertex $-1 $151 $278 #
ellipse-curve $-1 -58.592300900073987 -10.56316441586555 4.7264827090893542 -0.81915205242281985 0 0.57357642473473569 0.86036463710210354 0 1.2287280786342298 1 I I #
point $-1 -60.426048290605664 -10.56316441586555 7.8416482813177684 #
edge $-1 $279 1 $279 0 $154 $-1 forward 7 unknown #
vertex $-1 $155 $280 #
ellipse-curve $-1 -58.592300900073987 -5.4319435504203355 4.7264827090893542 -0.81915205242281985 0 0.57357642473473569 0.86036463710210354 0 1.2287280786342298 1 I I #
point $-1 -60.426048290605664 -5.4319435504203355 7.8416482813177684 #
plane-surface $-1 64.291512802514717 0 0 -1 0 0 0 0 1 forward_v I I I I #
coedge $-1 $163 $161 $165 $237 reversed $101 $-1 #
edge $-1 $176 -10.904647728482933 $239 10.904647728482933 $175 $281 forward 7 unknown #
vertex $-1 $237 $282 #
straight-curve $-1 -64.291512802514717 -29.025262551923596 0 0 0 -1 I I #
edge $-1 $235 -29.025262551923596 $239 29.025262551923596 $233 $283 forward 7 unknown #
straight-curve $-1 0 -29.025262551923596 -10.904647728482933 -1 0 0 I I #
vertex $-1 $168 $284 #
straight-curve $-1 0 29.025262551923596 -10.904647728482933 1 0 0 I I #
point $-1 64.291512802514717 29.025262551923596 -10.904647728482933 #
point $-1 64.291512802514717 -29.025262551923596 -10.904647728482933 #
straight-curve $-1 -64.291512802514717 0 10.904647728482933 0 -1 0 I I #
point $-1 -64.291512802514717 29.025262551923596 10.904647728482933 #
point $-1 -64.291512802514717 -29.025262551923596 10.904647728482933 #
straight-curve $-1 64.291512802514717 -29.025262551923596 0 0 0 -1 I I #
straight-curve $-1 64.291512802514717 29.025262551923596 0 0 0 -1 I I #
loop $-1 $-1 $256 $185 #
plane-surface $-1 -64.291512802514717 0 0 1 0 0 0 0 -1 forward_v I I I I #
coedge $-1 $189 $188 $262 $285 forward $71 $-1 #
edge $-1 $193 16.29295233474469 $265 29.025262551923596 $192 $286 forward 7 unknown #
coedge $-1 $259 $256 $189 $253 reversed $248 $-1 #
edge $-1 $287 -29.025262551923596 $254 -16.29295233474469 $252 $288 forward 7 unknown #
vertex $-1 $257 $289 #
straight-curve $-1 0 -16.29295233474469 -10.904647728482933 1 0 0 I I #
coedge $-1 $252 $195 $191 $257 forward $248 $-1 #
edge $-1 $197 3.2023238642414666 $254 6.2023238642414666 $256 $290 forward 7 unknown #
point $-1 64.291512802514717 -16.29295233474469 -10.904647728482933 #
coedge $-1 $195 $252 $199 $263 reversed $248 $-1 #
straight-curve $-1 -64.291512802514717 -11.329553721667072 -7.9046477284829333 0 1 0 I I #
point $-1 -64.291512802514717 -16.29295233474469 -7.9046477284829333 #
coedge $-1 $200 $199 $250 $285 reversed $186 $-1 #
edge $-1 $201 7.9046477284829333 $287 10.904647728482933 $259 $291 forward 7 unknown #
point $-1 -64.291512802514717 -29.025262551923596 -7.9046477284829333 #
vertex $-1 $203 $292 #
straight-curve $-1 64.291512802514717 -29.025262551923596 0 0 0 -1 I I #
coedge $-1 $217 $216 $209 $268 forward $206 $-1 #
edge $-1 $269 27.132044664013023 $272 35.715499715611806 $267 $293 forward 7 unknown #
vertex $-1 $221 $294 #
straight-curve $-1 -84.810281066805288 -2.0111296401235261 10.904647728482935 -1 0 0 I I #
edge $-1 $272 -1.9876473514479454 $218 9.9852013345908883 $217 $295 forward 7 unknown #
vertex $-1 $271 $296 #
straight-curve $-1 -64.291512802514717 -2.0111296401235261 2.3211926768841522 0.57357642473473569 0 0.81915205242281985 I I #
point $-1 -58.281313052900828 -2.0111296401235261 10.904647728482933 #
point $-1 -64.291512802514717 -13.98397832616236 2.3211926768841522 #
straight-curve $-1 -64.291512802514717 0 10.904647728482933 0 -1 0 I I #
vertex $-1 $224 $297 #
point $-1 -57.731936262971878 -10.56316441586555 5.9552107877235843 #
vertex $-1 $228 $298 #
point $-1 -57.731936262971878 -5.4319435504203355 5.9552107877235843 #
straight-curve $-1 -64.291512802514717 29.025262551923596 0 0 0 -1 I I #
point $-1 -64.291512802514717 -29.025262551923596 -10.904647728482933 #
straight-curve $-1 -64.291512802514717 0 -10.904647728482933 0 1 0 I I #
point $-1 -64.291512802514717 29.025262551923596 -10.904647728482933 #
edge $-1 $265 -64.291512802514717 $287 64.291512802514717 $262 $299 forward 7 unknown #
straight-curve $-1 64.291512802514717 0 -10.904647728482933 0 -1 0 I I #
vertex $-1 $253 $300 #
straight-curve $-1 -64.291512802514717 0 -10.904647728482933 0 1 0 I I #
point $-1 -64.291512802514717 -16.29295233474469 -10.904647728482933 #
straight-curve $-1 -64.291512802514717 -16.29295233474469 -4.7023238642414666 0 0 -1 I I #
straight-curve $-1 -64.291512802514717 -29.025262551923596 0 0 0 -1 I I #
point $-1 64.291512802514717 -29.025262551923596 -10.904647728482933 #
straight-curve $-1 -64.291512802514717 -2.0111296401235261 38.036692392495958 0 0 -1 I I #
point $-1 -64.291512802514717 -2.0111296401235261 10.904647728482933 #
straight-curve $-1 -64.291512802514717 -3.9987769915714715 2.3211926768841566 0 -1 0 I I #
point $-1 -64.291512802514717 -2.0111296401235261 2.3211926768841522 #
point $-1 -57.363572821439753 -10.56316441586555 3.866118071987251 #
point $-1 -57.363572821439753 -5.4319435504203355 3.866118071987251 #
straight-curve $-1 0 -29.025262551923596 -10.904647728482933 -1 0 0 I I #
point $-1 -64.291512802514717 -29.025262551923596 -10.904647728482933 #
End-of-ACIS-data 