500 0 17 0           
7 Unknown 11 ACIS 5.0 NT 24 Fri Mar 26 03:36:22 1999 
-1 9.9999999999999995e-007 1e-010 
body $-1 $17 $-1 $18 #
body $-1 $19 $-1 $20 #
body $-1 $21 $-1 $22 #
body $-1 $23 $-1 $24 #
body $-1 $25 $-1 $26 #
body $-1 $27 $-1 $28 #
body $-1 $29 $-1 $30 #
body $-1 $31 $-1 $32 #
body $-1 $33 $-1 $34 #
body $-1 $35 $-1 $36 #
body $-1 $37 $-1 $38 #
body $-1 $39 $-1 $40 #
body $-1 $41 $-1 $42 #
body $-1 $43 $-1 $44 #
body $-1 $45 $-1 $46 #
body $-1 $47 $-1 $48 #
body $-1 $49 $-1 $50 #
lump $-1 $-1 $51 $0 #
transform $-1 1 0 0 0 1 0 0 0 1 57.184362315744501 34.934345258694634 8.520517406932635 1 rotate no_reflect no_shear #
lump $-1 $-1 $52 $1 #
transform $-1 1 0 0 0 1 0 0 0 1 57.184362315744501 34.934345258694634 8.520517406932635 1 rotate no_reflect no_shear #
lump $-1 $-1 $53 $2 #
transform $-1 1 0 0 0 1 0 0 0 1 57.184362315744501 34.934345258694634 8.520517406932635 1 rotate no_reflect no_shear #
lump $-1 $-1 $54 $3 #
transform $-1 1 0 0 0 1 0 0 0 1 57.184362315744501 34.934345258694634 8.520517406932635 1 rotate no_reflect no_shear #
lump $-1 $-1 $55 $4 #
transform $-1 1 0 0 0 1 0 0 0 1 57.184362315744501 34.934345258694634 8.520517406932635 1 rotate no_reflect no_shear #
lump $-1 $-1 $56 $5 #
transform $-1 1 0 0 0 1 0 0 0 1 57.184362315744501 34.934345258694634 8.520517406932635 1 rotate no_reflect no_shear #
lump $-1 $-1 $57 $6 #
transform $-1 1 0 0 0 1 0 0 0 1 57.184362315744501 34.934345258694634 8.520517406932635 1 rotate no_reflect no_shear #
lump $-1 $-1 $58 $7 #
transform $-1 1 0 0 0 1 0 0 0 1 57.184362315744501 34.934345258694634 8.520517406932635 1 rotate no_reflect no_shear #
lump $-1 $-1 $59 $8 #
transform $-1 1 0 0 0 1 0 0 0 1 57.184362315744501 34.934345258694634 8.520517406932635 1 rotate no_reflect no_shear #
lump $-1 $-1 $60 $9 #
transform $-1 1 0 0 0 1 0 0 0 1 57.184362315744501 34.934345258694634 8.520517406932635 1 rotate no_reflect no_shear #
lump $-1 $-1 $61 $10 #
transform $-1 1 0 0 0 1 0 0 0 1 57.184362315744501 34.934345258694634 8.520517406932635 1 rotate no_reflect no_shear #
lump $-1 $-1 $62 $11 #
transform $-1 1 0 0 0 1 0 0 0 1 57.184362315744501 34.934345258694634 8.520517406932635 1 rotate no_reflect no_shear #
lump $-1 $-1 $63 $12 #
transform $-1 1 0 0 0 1 0 0 0 1 57.184362315744501 34.934345258694634 8.520517406932635 1 rotate no_reflect no_shear #
lump $-1 $-1 $64 $13 #
transform $-1 1 0 0 0 1 0 0 0 1 57.184362315744501 34.934345258694634 8.520517406932635 1 rotate no_reflect no_shear #
lump $-1 $-1 $65 $14 #
transform $-1 1 0 0 0 1 0 0 0 1 57.184362315744501 34.934345258694634 8.520517406932635 1 rotate no_reflect no_shear #
lump $-1 $-1 $66 $15 #
transform $-1 1 0 0 0 1 0 0 0 1 57.184362315744501 34.934345258694634 8.520517406932635 1 rotate no_reflect no_shear #
lump $-1 $-1 $67 $16 #
transform $-1 1 0 0 0 1 0 0 0 1 57.184362315744501 34.934345258694634 8.520517406932635 1 rotate no_reflect no_shear #
shell $-1 $-1 $-1 $68 $-1 $17 #
shell $-1 $-1 $-1 $69 $-1 $19 #
shell $-1 $-1 $-1 $70 $-1 $21 #
shell $-1 $-1 $-1 $71 $-1 $23 #
shell $-1 $-1 $-1 $72 $-1 $25 #
shell $-1 $-1 $-1 $73 $-1 $27 #
shell $-1 $-1 $-1 $74 $-1 $29 #
shell $-1 $-1 $-1 $75 $-1 $31 #
shell $-1 $-1 $-1 $76 $-1 $33 #
shell $-1 $-1 $-1 $77 $-1 $35 #
shell $-1 $-1 $-1 $78 $-1 $37 #
shell $-1 $-1 $-1 $79 $-1 $39 #
shell $-1 $-1 $-1 $80 $-1 $41 #
shell $-1 $-1 $-1 $81 $-1 $43 #
shell $-1 $-1 $-1 $82 $-1 $45 #
shell $-1 $-1 $-1 $83 $-1 $47 #
shell $-1 $-1 $-1 $84 $-1 $49 #
face $-1 $85 $86 $51 $-1 $87 forward single #
face $-1 $88 $89 $52 $-1 $90 reversed single #
face $-1 $91 $92 $53 $-1 $93 forward single #
face $-1 $94 $95 $54 $-1 $96 reversed single #
face $-1 $97 $98 $55 $-1 $99 forward single #
face $-1 $100 $101 $56 $-1 $102 reversed single #
face $-1 $103 $104 $57 $-1 $105 forward single #
face $-1 $106 $107 $58 $-1 $108 reversed single #
face $-1 $109 $110 $59 $-1 $111 forward single #
face $-1 $112 $113 $60 $-1 $114 reversed single #
face $-1 $115 $116 $61 $-1 $117 forward single #
face $-1 $118 $119 $62 $-1 $120 reversed single #
face $-1 $121 $122 $63 $-1 $123 forward single #
face $-1 $124 $125 $64 $-1 $126 reversed single #
face $-1 $127 $128 $65 $-1 $129 forward single #
face $-1 $130 $131 $66 $-1 $132 reversed single #
face $-1 $133 $134 $67 $-1 $135 forward single #
face $-1 $136 $137 $51 $-1 $138 reversed single #
loop $-1 $-1 $139 $68 #
plane-surface $-1 0 0 8.520517406932635 0 0 1 1 0 0 forward_v I I I I #
face $-1 $140 $141 $52 $-1 $142 reversed single #
loop $-1 $-1 $143 $69 #
plane-surface $-1 -55.027815038458044 99.046222750006422 122.82072295068519 1 0 0 0 -0.86602541151947299 -0.49999998660252726 forward_v I I I I #
face $-1 $144 $145 $53 $-1 $146 forward single #
loop $-1 $147 $148 $70 #
cone-surface $-1 -48.041853481100787 33.522083976226639 6.5744090649369697 0 -0.86602541151947299 -0.49999998660252726 0.25 0 0 1 I I 0 1 0.25 forward I I I I #
face $-1 $149 $150 $54 $-1 $151 reversed single #
loop $-1 $-1 $152 $71 #
plane-surface $-1 -26.435633880585797 99.046222750006422 122.82072295068519 1 0 0 0 -0.86602541151947299 -0.49999998660252726 forward_v I I I I #
face $-1 $153 $154 $55 $-1 $155 forward single #
loop $-1 $156 $157 $72 #
cone-surface $-1 -19.44967232322854 33.522083976226639 6.5744090649369697 0 -0.86602541151947299 -0.49999998660252726 0.25 0 0 1 I I 0 1 0.25 forward I I I I #
face $-1 $158 $159 $56 $-1 $160 reversed single #
loop $-1 $-1 $161 $73 #
plane-surface $-1 2.1565472772864567 99.046222750006422 122.82072295068519 1 0 0 0 -0.86602541151947299 -0.49999998660252726 forward_v I I I I #
face $-1 $162 $163 $57 $-1 $164 forward single #
loop $-1 $165 $166 $74 #
cone-surface $-1 9.1425088346437136 33.522083976226639 6.5744090649369697 0 -0.86602541151947299 -0.49999998660252726 0.25 0 0 1 I I 0 1 0.25 forward I I I I #
face $-1 $167 $168 $58 $-1 $169 reversed single #
loop $-1 $-1 $170 $75 #
plane-surface $-1 30.748728435158704 99.046222750006422 122.82072295068519 1 0 0 0 -0.86602541151947299 -0.49999998660252726 forward_v I I I I #
face $-1 $171 $172 $59 $-1 $173 forward single #
loop $-1 $174 $175 $76 #
cone-surface $-1 37.73468999251596 33.522083976226639 6.5744090649369697 0 -0.86602541151947299 -0.49999998660252726 0.25 0 0 1 I I 0 1 0.25 forward I I I I #
face $-1 $176 $177 $60 $-1 $178 reversed single #
loop $-1 $-1 $179 $77 #
plane-surface $-1 -41.05589192374353 -133.98056707263717 62.312661493036451 -1 0 0 0 -0.86602541151947299 0.49999998660252726 forward_v I I I I #
face $-1 $180 $181 $61 $-1 $182 forward single #
loop $-1 $183 $184 $78 #
cone-surface $-1 -48.041853481100787 -33.522083976226625 6.5744090649369662 0 0.86602541151947299 -0.49999998660252726 0.25 0 0 1 I I 0 1 0.25 forward I I I I #
face $-1 $185 $186 $62 $-1 $187 reversed single #
loop $-1 $-1 $188 $79 #
plane-surface $-1 -12.463710765871284 -133.98056707263717 62.312661493036451 -1 0 0 0 -0.86602541151947299 0.49999998660252726 forward_v I I I I #
face $-1 $189 $190 $63 $-1 $191 forward single #
loop $-1 $192 $193 $80 #
cone-surface $-1 -19.44967232322854 -33.522083976226625 6.5744090649369662 0 0.86602541151947299 -0.49999998660252726 0.25 0 0 1 I I 0 1 0.25 forward I I I I #
face $-1 $194 $195 $64 $-1 $196 reversed single #
loop $-1 $-1 $197 $81 #
plane-surface $-1 16.12847039200097 -133.98056707263717 62.312661493036451 -1 0 0 0 -0.86602541151947299 0.49999998660252726 forward_v I I I I #
face $-1 $198 $199 $65 $-1 $200 forward single #
loop $-1 $201 $202 $82 #
cone-surface $-1 9.1425088346437136 -33.522083976226625 6.5744090649369662 0 0.86602541151947299 -0.49999998660252726 0.25 0 0 1 I I 0 1 0.25 forward I I I I #
face $-1 $203 $204 $66 $-1 $205 reversed single #
loop $-1 $-1 $206 $83 #
plane-surface $-1 44.720651549873217 -133.98056707263717 62.312661493036451 -1 0 0 0 -0.86602541151947299 0.49999998660252726 forward_v I I I I #
face $-1 $207 $208 $67 $-1 $209 forward single #
loop $-1 $210 $211 $84 #
cone-surface $-1 37.73468999251596 -33.522083976226625 6.5744090649369662 0 0.86602541151947299 -0.49999998660252726 0.25 0 0 1 I I 0 1 0.25 forward I I I I #
face $-1 $212 $213 $51 $-1 $214 reversed single #
loop $-1 $-1 $215 $85 #
plane-surface $-1 0 0 -8.520517406932635 0 0 1 1 0 0 forward_v I I I I #
coedge $-1 $216 $217 $218 $219 forward $86 $-1 #
face $-1 $220 $221 $52 $-1 $222 reversed single #
loop $-1 $-1 $223 $88 #
plane-surface $-1 -48.041853481100787 9.360638699718038e-007 65.636362167192573 0 0.86602541151947299 0.49999998660252726 1 0 0 forward_v I I I I #
coedge $-1 $224 $225 $226 $227 reversed $89 $-1 #
face $-1 $-1 $228 $53 $-1 $229 forward single #
loop $-1 $230 $231 $91 #
cone-surface $-1 -48.041853481100787 32.980818094026972 6.2619090733103899 0 -0.86602541151947299 -0.49999998660252726 0.125 0 0 1 I I -0.70710678118654746 0.70710678118654746 0.125 forward I I I I #
loop $-1 $-1 $232 $70 #
coedge $-1 $148 $148 $233 $234 reversed $92 $-1 #
face $-1 $235 $236 $54 $-1 $237 reversed single #
loop $-1 $-1 $238 $94 #
plane-surface $-1 -19.44967232322854 9.360638699718038e-007 65.636362167192573 0 0.86602541151947299 0.49999998660252726 1 0 0 forward_v I I I I #
coedge $-1 $239 $240 $241 $242 reversed $95 $-1 #
face $-1 $-1 $243 $55 $-1 $244 forward single #
loop $-1 $245 $246 $97 #
cone-surface $-1 -19.44967232322854 32.980818094026972 6.2619090733103899 0 -0.86602541151947299 -0.49999998660252726 0.125 0 0 1 I I -0.70710678118654746 0.70710678118654746 0.125 forward I I I I #
loop $-1 $-1 $247 $72 #
coedge $-1 $157 $157 $248 $249 reversed $98 $-1 #
face $-1 $250 $251 $56 $-1 $252 reversed single #
loop $-1 $-1 $253 $100 #
plane-surface $-1 9.1425088346437136 9.360638699718038e-007 65.636362167192573 0 0.86602541151947299 0.49999998660252726 1 0 0 forward_v I I I I #
coedge $-1 $254 $255 $256 $257 reversed $101 $-1 #
face $-1 $-1 $258 $57 $-1 $259 forward single #
loop $-1 $260 $261 $103 #
cone-surface $-1 9.1425088346437136 32.980818094026972 6.2619090733103899 0 -0.86602541151947299 -0.49999998660252726 0.125 0 0 1 I I -0.70710678118654746 0.70710678118654746 0.125 forward I I I I #
loop $-1 $-1 $262 $74 #
coedge $-1 $166 $166 $263 $264 reversed $104 $-1 #
face $-1 $265 $266 $58 $-1 $267 reversed single #
loop $-1 $-1 $268 $106 #
plane-surface $-1 37.73468999251596 9.360638699718038e-007 65.636362167192573 0 0.86602541151947299 0.49999998660252726 1 0 0 forward_v I I I I #
coedge $-1 $269 $270 $271 $272 reversed $107 $-1 #
face $-1 $-1 $273 $59 $-1 $274 forward single #
loop $-1 $275 $276 $109 #
cone-surface $-1 37.73468999251596 32.980818094026972 6.2619090733103899 0 -0.86602541151947299 -0.49999998660252726 0.125 0 0 1 I I -0.70710678118654746 0.70710678118654746 0.125 forward I I I I #
loop $-1 $-1 $277 $76 #
coedge $-1 $175 $175 $278 $279 reversed $110 $-1 #
face $-1 $280 $281 $60 $-1 $282 reversed single #
loop $-1 $-1 $283 $112 #
plane-surface $-1 -48.041853481100787 -34.93434525869462 5.1283007095438222 0 -0.86602541151947299 0.49999998660252726 1 0 0 forward_v I I I I #
coedge $-1 $284 $285 $286 $287 reversed $113 $-1 #
face $-1 $-1 $288 $61 $-1 $289 forward single #
loop $-1 $290 $291 $115 #
cone-surface $-1 -48.041853481100787 -32.980818094026958 6.2619090733103864 0 0.86602541151947299 -0.49999998660252726 0.125 0 0 1 I I -0.70710678118654746 0.70710678118654746 0.125 forward I I I I #
loop $-1 $-1 $292 $78 #
coedge $-1 $184 $184 $293 $294 reversed $116 $-1 #
face $-1 $295 $296 $62 $-1 $297 reversed single #
loop $-1 $-1 $298 $118 #
plane-surface $-1 -19.44967232322854 -34.93434525869462 5.1283007095438222 0 -0.86602541151947299 0.49999998660252726 1 0 0 forward_v I I I I #
coedge $-1 $299 $300 $301 $302 reversed $119 $-1 #
face $-1 $-1 $303 $63 $-1 $304 forward single #
loop $-1 $305 $306 $121 #
cone-surface $-1 -19.44967232322854 -32.980818094026958 6.2619090733103864 0 0.86602541151947299 -0.49999998660252726 0.125 0 0 1 I I -0.70710678118654746 0.70710678118654746 0.125 forward I I I I #
loop $-1 $-1 $307 $80 #
coedge $-1 $193 $193 $308 $309 reversed $122 $-1 #
face $-1 $310 $311 $64 $-1 $312 reversed single #
loop $-1 $-1 $313 $124 #
plane-surface $-1 9.1425088346437136 -34.93434525869462 5.1283007095438222 0 -0.86602541151947299 0.49999998660252726 1 0 0 forward_v I I I I #
coedge $-1 $314 $315 $316 $317 reversed $125 $-1 #
face $-1 $-1 $318 $65 $-1 $319 forward single #
loop $-1 $320 $321 $127 #
cone-surface $-1 9.1425088346437136 -32.980818094026958 6.2619090733103864 0 0.86602541151947299 -0.49999998660252726 0.125 0 0 1 I I -0.70710678118654746 0.70710678118654746 0.125 forward I I I I #
loop $-1 $-1 $322 $82 #
coedge $-1 $202 $202 $323 $324 reversed $128 $-1 #
face $-1 $325 $326 $66 $-1 $327 reversed single #
loop $-1 $-1 $328 $130 #
plane-surface $-1 37.73468999251596 -34.93434525869462 5.1283007095438222 0 -0.86602541151947299 0.49999998660252726 1 0 0 forward_v I I I I #
coedge $-1 $329 $330 $331 $332 reversed $131 $-1 #
face $-1 $-1 $333 $67 $-1 $334 forward single #
loop $-1 $335 $336 $133 #
cone-surface $-1 37.73468999251596 -32.980818094026958 6.2619090733103864 0 0.86602541151947299 -0.49999998660252726 0.125 0 0 1 I I -0.70710678118654746 0.70710678118654746 0.125 forward I I I I #
loop $-1 $-1 $337 $84 #
coedge $-1 $211 $211 $338 $339 reversed $134 $-1 #
face $-1 $340 $341 $51 $-1 $342 reversed single #
loop $-1 $-1 $343 $136 #
plane-surface $-1 0 -34.934345258694634 0 0 1 0 0 0 1 forward_v I I I I #
coedge $-1 $344 $345 $346 $347 forward $137 $-1 #
coedge $-1 $348 $139 $349 $350 forward $86 $-1 #
coedge $-1 $139 $348 $351 $352 forward $86 $-1 #
coedge $-1 $353 $354 $139 $219 reversed $355 $-1 #
edge $-1 $356 -34.934345258694634 $357 34.934345258694634 $218 $358 forward 7 unknown #
face $-1 $359 $360 $52 $-1 $361 reversed single #
loop $-1 $-1 $362 $140 #
plane-surface $-1 -41.05589192374353 99.046222750006422 122.82072295068519 -1 0 0 0 0.86602541151947299 0.49999998660252726 forward_v I I I I #
coedge $-1 $363 $364 $365 $366 reversed $141 $-1 #
coedge $-1 $225 $143 $367 $368 reversed $89 $-1 #
coedge $-1 $143 $224 $363 $369 reversed $89 $-1 #
coedge $-1 $365 $370 $143 $227 forward $371 $-1 #
edge $-1 $372 14.588766116308577 $373 16.547263269725121 $226 $374 forward 7 unknown #
loop $-1 $-1 $233 $144 #
plane-surface $-1 -48.041853481100787 9.360638699718038e-007 65.636362167192573 0 0.86602541151947299 0.49999998660252726 1 0 0 forward_v I I I I #
loop $-1 $-1 $375 $91 #
coedge $-1 $231 $231 $232 $376 reversed $145 $-1 #
coedge $-1 $232 $232 $231 $376 forward $147 $-1 #
coedge $-1 $233 $233 $148 $234 forward $228 $-1 #
edge $-1 $377 3.8077860632933375e-015 $377 6.283185307179604 $233 $378 forward 7 unknown #
face $-1 $379 $380 $54 $-1 $381 forward single #
loop $-1 $-1 $382 $149 #
plane-surface $-1 -12.463710765871284 99.046222750006422 122.82072295068519 -1 0 0 0 0.86602541151947299 0.49999998660252726 forward_v I I I I #
coedge $-1 $383 $384 $385 $386 reversed $150 $-1 #
coedge $-1 $240 $152 $387 $388 reversed $95 $-1 #
coedge $-1 $152 $239 $383 $389 reversed $95 $-1 #
coedge $-1 $385 $390 $152 $242 forward $380 $-1 #
edge $-1 $391 14.588766116308577 $392 16.547263269725121 $241 $393 forward 7 unknown #
loop $-1 $-1 $248 $153 #
plane-surface $-1 -19.44967232322854 9.360638699718038e-007 65.636362167192573 0 0.86602541151947299 0.49999998660252726 1 0 0 forward_v I I I I #
loop $-1 $-1 $394 $97 #
coedge $-1 $246 $246 $247 $395 reversed $154 $-1 #
coedge $-1 $247 $247 $246 $395 forward $156 $-1 #
coedge $-1 $248 $248 $157 $249 forward $243 $-1 #
edge $-1 $396 3.8077860632933375e-015 $396 6.283185307179604 $248 $397 forward 7 unknown #
face $-1 $398 $399 $56 $-1 $400 forward single #
loop $-1 $-1 $401 $158 #
plane-surface $-1 16.12847039200097 99.046222750006422 122.82072295068519 -1 0 0 0 0.86602541151947299 0.49999998660252726 forward_v I I I I #
coedge $-1 $402 $403 $404 $405 reversed $159 $-1 #
coedge $-1 $255 $161 $406 $407 reversed $101 $-1 #
coedge $-1 $161 $254 $402 $408 reversed $101 $-1 #
coedge $-1 $404 $409 $161 $257 forward $399 $-1 #
edge $-1 $410 14.588766116308577 $411 16.547263269725121 $256 $412 forward 7 unknown #
loop $-1 $-1 $263 $162 #
plane-surface $-1 9.1425088346437136 9.360638699718038e-007 65.636362167192573 0 0.86602541151947299 0.49999998660252726 1 0 0 forward_v I I I I #
loop $-1 $-1 $413 $103 #
coedge $-1 $261 $261 $262 $414 reversed $163 $-1 #
coedge $-1 $262 $262 $261 $414 forward $165 $-1 #
coedge $-1 $263 $263 $166 $264 forward $258 $-1 #
edge $-1 $415 3.8077860632933375e-015 $415 6.283185307179604 $263 $416 forward 7 unknown #
face $-1 $417 $418 $58 $-1 $419 forward single #
loop $-1 $-1 $420 $167 #
plane-surface $-1 44.720651549873217 99.046222750006422 122.82072295068519 -1 0 0 0 0.86602541151947299 0.49999998660252726 forward_v I I I I #
coedge $-1 $421 $422 $423 $424 reversed $168 $-1 #
coedge $-1 $270 $170 $425 $426 reversed $107 $-1 #
coedge $-1 $170 $269 $421 $427 reversed $107 $-1 #
coedge $-1 $423 $428 $170 $272 forward $418 $-1 #
edge $-1 $429 14.588766116308577 $430 16.547263269725121 $271 $431 forward 7 unknown #
loop $-1 $-1 $278 $171 #
plane-surface $-1 37.73468999251596 9.360638699718038e-007 65.636362167192573 0 0.86602541151947299 0.49999998660252726 1 0 0 forward_v I I I I #
loop $-1 $-1 $432 $109 #
coedge $-1 $276 $276 $277 $433 reversed $172 $-1 #
coedge $-1 $277 $277 $276 $433 forward $174 $-1 #
coedge $-1 $278 $278 $175 $279 forward $273 $-1 #
edge $-1 $434 3.8077860632933375e-015 $434 6.283185307179604 $278 $435 forward 7 unknown #
face $-1 $436 $437 $60 $-1 $438 reversed single #
loop $-1 $-1 $439 $176 #
plane-surface $-1 -55.027815038458044 -133.98056707263717 62.312661493036451 1 0 0 0 0.86602541151947299 -0.49999998660252726 forward_v I I I I #
coedge $-1 $440 $441 $442 $443 reversed $177 $-1 #
coedge $-1 $285 $179 $444 $445 reversed $113 $-1 #
coedge $-1 $179 $284 $440 $446 reversed $113 $-1 #
coedge $-1 $442 $447 $179 $287 forward $448 $-1 #
edge $-1 $449 32.055938277623952 $450 34.014435431040503 $286 $451 forward 7 unknown #
loop $-1 $-1 $293 $180 #
plane-surface $-1 -48.041853481100787 -34.93434525869462 5.1283007095438222 0 -0.86602541151947299 0.49999998660252726 1 0 0 forward_v I I I I #
loop $-1 $-1 $452 $115 #
coedge $-1 $291 $291 $292 $453 reversed $181 $-1 #
coedge $-1 $292 $292 $291 $453 forward $183 $-1 #
coedge $-1 $293 $293 $184 $294 forward $288 $-1 #
edge $-1 $454 4.249587619741462e-015 $454 6.2831853071796049 $293 $455 forward 7 unknown #
face $-1 $456 $457 $62 $-1 $458 reversed single #
loop $-1 $-1 $459 $185 #
plane-surface $-1 -26.435633880585797 -133.98056707263717 62.312661493036451 1 0 0 0 0.86602541151947299 -0.49999998660252726 forward_v I I I I #
coedge $-1 $460 $461 $462 $463 reversed $186 $-1 #
coedge $-1 $300 $188 $464 $465 reversed $119 $-1 #
coedge $-1 $188 $299 $460 $466 reversed $119 $-1 #
coedge $-1 $462 $467 $188 $302 forward $468 $-1 #
edge $-1 $469 32.055938277623952 $470 34.014435431040503 $301 $471 forward 7 unknown #
loop $-1 $-1 $308 $189 #
plane-surface $-1 -19.44967232322854 -34.93434525869462 5.1283007095438222 0 -0.86602541151947299 0.49999998660252726 1 0 0 forward_v I I I I #
loop $-1 $-1 $472 $121 #
coedge $-1 $306 $306 $307 $473 reversed $190 $-1 #
coedge $-1 $307 $307 $306 $473 forward $192 $-1 #
coedge $-1 $308 $308 $193 $309 forward $303 $-1 #
edge $-1 $474 4.249587619741462e-015 $474 6.2831853071796049 $308 $475 forward 7 unknown #
face $-1 $476 $477 $64 $-1 $478 reversed single #
loop $-1 $-1 $479 $194 #
plane-surface $-1 2.1565472772864567 -133.98056707263717 62.312661493036451 1 0 0 0 0.86602541151947299 -0.49999998660252726 forward_v I I I I #
coedge $-1 $480 $481 $482 $483 reversed $195 $-1 #
coedge $-1 $315 $197 $484 $485 reversed $125 $-1 #
coedge $-1 $197 $314 $480 $486 reversed $125 $-1 #
coedge $-1 $482 $487 $197 $317 forward $488 $-1 #
edge $-1 $489 32.055938277623952 $490 34.014435431040503 $316 $491 forward 7 unknown #
loop $-1 $-1 $323 $198 #
plane-surface $-1 9.1425088346437136 -34.93434525869462 5.1283007095438222 0 -0.86602541151947299 0.49999998660252726 1 0 0 forward_v I I I I #
loop $-1 $-1 $492 $127 #
coedge $-1 $321 $321 $322 $493 reversed $199 $-1 #
coedge $-1 $322 $322 $321 $493 forward $201 $-1 #
coedge $-1 $323 $323 $202 $324 forward $318 $-1 #
edge $-1 $494 4.249587619741462e-015 $494 6.2831853071796049 $323 $495 forward 7 unknown #
face $-1 $496 $497 $66 $-1 $498 reversed single #
loop $-1 $-1 $499 $203 #
plane-surface $-1 30.748728435158704 -133.98056707263717 62.312661493036451 1 0 0 0 0.86602541151947299 -0.49999998660252726 forward_v I I I I #
coedge $-1 $500 $501 $502 $503 reversed $204 $-1 #
coedge $-1 $330 $206 $504 $505 reversed $131 $-1 #
coedge $-1 $206 $329 $500 $506 reversed $131 $-1 #
coedge $-1 $502 $507 $206 $332 forward $508 $-1 #
edge $-1 $509 32.055938277623952 $510 34.014435431040503 $331 $511 forward 7 unknown #
loop $-1 $-1 $338 $207 #
plane-surface $-1 37.73468999251596 -34.93434525869462 5.1283007095438222 0 -0.86602541151947299 0.49999998660252726 1 0 0 forward_v I I I I #
loop $-1 $-1 $512 $133 #
coedge $-1 $336 $336 $337 $513 reversed $208 $-1 #
coedge $-1 $337 $337 $336 $513 forward $210 $-1 #
coedge $-1 $338 $338 $211 $339 forward $333 $-1 #
edge $-1 $514 4.249587619741462e-015 $514 6.2831853071796049 $338 $515 forward 7 unknown #
face $-1 $516 $517 $51 $-1 $518 reversed single #
loop $-1 $-1 $519 $212 #
plane-surface $-1 -57.184362315744501 0 0 1 0 0 0 0 -1 forward_v I I I I #
coedge $-1 $520 $351 $521 $522 forward $213 $-1 #
coedge $-1 $523 $215 $520 $524 forward $137 $-1 #
coedge $-1 $215 $523 $525 $526 forward $137 $-1 #
coedge $-1 $354 $353 $215 $347 reversed $355 $-1 #
edge $-1 $527 -34.934345258694634 $528 34.934345258694634 $346 $529 forward 7 unknown #
coedge $-1 $217 $216 $530 $531 forward $86 $-1 #
coedge $-1 $532 $533 $216 $350 reversed $517 $-1 #
edge $-1 $357 -57.184362315744501 $534 57.184362315744501 $349 $535 forward 7 unknown #
coedge $-1 $343 $536 $217 $352 reversed $213 $-1 #
edge $-1 $537 -57.184362315744501 $356 57.184362315744501 $351 $538 forward 7 unknown #
coedge $-1 $346 $218 $536 $539 forward $355 $-1 #
coedge $-1 $218 $346 $532 $540 reversed $355 $-1 #
loop $-1 $-1 $353 $516 #
vertex $-1 $219 $541 #
vertex $-1 $219 $542 #
straight-curve $-1 57.184362315744501 0 8.520517406932635 0 1 0 I I #
face $-1 $-1 $371 $52 $-1 $543 forward single #
loop $-1 $-1 $544 $220 #
plane-surface $-1 0 34.934345258694634 0 0 -1 0 0 0 -1 forward_v I I I I #
coedge $-1 $545 $546 $547 $548 reversed $221 $-1 #
coedge $-1 $549 $223 $225 $369 forward $141 $-1 #
coedge $-1 $223 $549 $545 $550 forward $141 $-1 #
coedge $-1 $547 $226 $223 $366 forward $371 $-1 #
edge $-1 $373 -31.006888297907651 $551 -17.034965183193137 $365 $552 forward 7 unknown #
coedge $-1 $553 $554 $224 $368 forward $360 $-1 #
edge $-1 $555 -56.282060765798775 $372 -52.889844068409964 $367 $556 forward 7 unknown #
edge $-1 $373 65.951696105600547 $555 69.868690517389282 $225 $557 forward 7 unknown #
coedge $-1 $226 $547 $553 $558 forward $371 $-1 #
loop $-1 $-1 $547 $359 #
vertex $-1 $368 $559 #
vertex $-1 $227 $560 #
straight-curve $-1 -55.027815038458044 49.523111375003211 8.5205174069326333 0 -1 0 I I #
coedge $-1 $375 $375 $-1 $561 reversed $230 $-1 #
edge $-1 $562 0 $562 6.2831853071796004 $231 $563 forward 7 unknown #
vertex $-1 $234 $564 #
ellipse-curve $-1 -48.041853481100787 33.955096681986362 6.824409058238226 0 0.86602541151947299 0.49999998660252726 0.25 0 0 1 I I #
face $-1 $-1 $565 $54 $-1 $566 reversed single #
loop $-1 $-1 $241 $235 #
plane-surface $-1 0 0 8.520517406932635 0 0 1 1 0 0 forward_v I I I I #
coedge $-1 $567 $568 $569 $570 reversed $236 $-1 #
coedge $-1 $571 $238 $240 $389 forward $150 $-1 #
coedge $-1 $238 $571 $567 $572 forward $150 $-1 #
coedge $-1 $569 $241 $238 $386 forward $380 $-1 #
edge $-1 $392 -16.710797718971527 $573 -2.7388746042570133 $385 $574 forward 7 unknown #
coedge $-1 $575 $576 $239 $388 forward $565 $-1 #
edge $-1 $577 -56.282060765798775 $391 -52.889844068409964 $387 $578 forward 7 unknown #
edge $-1 $392 65.951696105600547 $577 69.868690517389282 $240 $579 forward 7 unknown #
coedge $-1 $241 $569 $575 $580 forward $380 $-1 #
vertex $-1 $242 $581 #
vertex $-1 $242 $582 #
straight-curve $-1 -26.435633880585797 49.523111375003211 8.5205174069326333 0 -1 0 I I #
coedge $-1 $394 $394 $-1 $583 reversed $245 $-1 #
edge $-1 $584 0 $584 6.2831853071796004 $246 $585 forward 7 unknown #
vertex $-1 $249 $586 #
ellipse-curve $-1 -19.44967232322854 33.955096681986362 6.824409058238226 0 0.86602541151947299 0.49999998660252726 0.25 0 0 1 I I #
face $-1 $-1 $587 $56 $-1 $588 reversed single #
loop $-1 $-1 $256 $250 #
plane-surface $-1 0 0 8.520517406932635 0 0 1 1 0 0 forward_v I I I I #
coedge $-1 $589 $590 $591 $592 reversed $251 $-1 #
coedge $-1 $593 $253 $255 $408 forward $159 $-1 #
coedge $-1 $253 $593 $589 $594 forward $159 $-1 #
coedge $-1 $591 $256 $253 $405 forward $399 $-1 #
edge $-1 $411 -2.4147071400354001 $595 11.557215974679114 $404 $596 forward 7 unknown #
coedge $-1 $597 $598 $254 $407 forward $587 $-1 #
edge $-1 $599 -56.282060765798775 $410 -52.889844068409964 $406 $600 forward 7 unknown #
edge $-1 $411 65.951696105600547 $599 69.868690517389282 $255 $601 forward 7 unknown #
coedge $-1 $256 $591 $597 $602 forward $399 $-1 #
vertex $-1 $257 $603 #
vertex $-1 $257 $604 #
straight-curve $-1 2.1565472772864567 49.523111375003211 8.5205174069326333 0 -1 0 I I #
coedge $-1 $413 $413 $-1 $605 reversed $260 $-1 #
edge $-1 $606 0 $606 6.2831853071796004 $261 $607 forward 7 unknown #
vertex $-1 $264 $608 #
ellipse-curve $-1 9.1425088346437136 33.955096681986362 6.824409058238226 0 0.86602541151947299 0.49999998660252726 0.25 0 0 1 I I #
face $-1 $-1 $609 $58 $-1 $610 reversed single #
loop $-1 $-1 $271 $265 #
plane-surface $-1 0 0 8.520517406932635 0 0 1 1 0 0 forward_v I I I I #
coedge $-1 $611 $612 $613 $614 reversed $266 $-1 #
coedge $-1 $615 $268 $270 $427 forward $168 $-1 #
coedge $-1 $268 $615 $611 $616 forward $168 $-1 #
coedge $-1 $613 $271 $268 $424 forward $418 $-1 #
edge $-1 $430 11.881383438900723 $617 25.853306553615237 $423 $618 forward 7 unknown #
coedge $-1 $619 $620 $269 $426 forward $609 $-1 #
edge $-1 $621 -56.282060765798775 $429 -52.889844068409964 $425 $622 forward 7 unknown #
edge $-1 $430 65.951696105600547 $621 69.868690517389282 $270 $623 forward 7 unknown #
coedge $-1 $271 $613 $619 $624 forward $418 $-1 #
vertex $-1 $272 $625 #
vertex $-1 $272 $626 #
straight-curve $-1 30.748728435158704 49.523111375003211 8.5205174069326333 0 -1 0 I I #
coedge $-1 $432 $432 $-1 $627 reversed $275 $-1 #
edge $-1 $628 0 $628 6.2831853071796004 $276 $629 forward 7 unknown #
vertex $-1 $279 $630 #
ellipse-curve $-1 37.73468999251596 33.955096681986362 6.824409058238226 0 0.86602541151947299 0.49999998660252726 0.25 0 0 1 I I #
face $-1 $-1 $448 $60 $-1 $631 forward single #
loop $-1 $-1 $632 $280 #
plane-surface $-1 0 -34.934345258694634 0 0 1 0 0 0 1 forward_v I I I I #
coedge $-1 $633 $634 $635 $636 reversed $281 $-1 #
coedge $-1 $637 $283 $285 $446 forward $177 $-1 #
coedge $-1 $283 $637 $633 $638 forward $177 $-1 #
coedge $-1 $635 $286 $283 $443 forward $448 $-1 #
edge $-1 $450 17.034965183193137 $639 31.006888297907651 $442 $640 forward 7 unknown #
coedge $-1 $641 $642 $284 $445 forward $437 $-1 #
edge $-1 $643 -26.028030036974428 $449 -22.635813339585589 $444 $644 forward 7 unknown #
edge $-1 $450 -3.9169944117887305 $643 2.8642609447069912e-014 $285 $645 forward 7 unknown #
coedge $-1 $286 $635 $641 $646 forward $448 $-1 #
loop $-1 $-1 $635 $436 #
vertex $-1 $445 $647 #
vertex $-1 $287 $648 #
straight-curve $-1 -41.05589192374353 -66.990283536318586 8.5205174069326333 0 1 0 I I #
coedge $-1 $452 $452 $-1 $649 reversed $290 $-1 #
edge $-1 $650 0 $650 6.2831853071796004 $291 $651 forward 7 unknown #
vertex $-1 $294 $652 #
ellipse-curve $-1 -48.041853481100787 -33.955096681986355 6.8244090582382242 0 -0.86602541151947299 0.49999998660252726 0.25 0 0 1 I I #
face $-1 $-1 $468 $62 $-1 $653 forward single #
loop $-1 $-1 $654 $295 #
plane-surface $-1 0 -34.934345258694634 0 0 1 0 0 0 1 forward_v I I I I #
coedge $-1 $655 $656 $657 $658 reversed $296 $-1 #
coedge $-1 $659 $298 $300 $466 forward $186 $-1 #
coedge $-1 $298 $659 $655 $660 forward $186 $-1 #
coedge $-1 $657 $301 $298 $463 forward $468 $-1 #
edge $-1 $470 2.7388746042570133 $661 16.710797718971527 $462 $662 forward 7 unknown #
coedge $-1 $663 $664 $299 $465 forward $457 $-1 #
edge $-1 $665 -26.028030036974428 $469 -22.635813339585589 $464 $666 forward 7 unknown #
edge $-1 $470 -3.9169944117887305 $665 2.8642609447069912e-014 $300 $667 forward 7 unknown #
coedge $-1 $301 $657 $663 $668 forward $468 $-1 #
loop $-1 $-1 $657 $456 #
vertex $-1 $465 $669 #
vertex $-1 $302 $670 #
straight-curve $-1 -12.463710765871284 -66.990283536318586 8.5205174069326333 0 1 0 I I #
coedge $-1 $472 $472 $-1 $671 reversed $305 $-1 #
edge $-1 $672 0 $672 6.2831853071796004 $306 $673 forward 7 unknown #
vertex $-1 $309 $674 #
ellipse-curve $-1 -19.44967232322854 -33.955096681986355 6.8244090582382242 0 -0.86602541151947299 0.49999998660252726 0.25 0 0 1 I I #
face $-1 $-1 $488 $64 $-1 $675 forward single #
loop $-1 $-1 $676 $310 #
plane-surface $-1 0 -34.934345258694634 0 0 1 0 0 0 1 forward_v I I I I #
coedge $-1 $677 $678 $679 $680 reversed $311 $-1 #
coedge $-1 $681 $313 $315 $486 forward $195 $-1 #
coedge $-1 $313 $681 $677 $682 forward $195 $-1 #
coedge $-1 $679 $316 $313 $483 forward $488 $-1 #
edge $-1 $490 -11.557215974679114 $683 2.4147071400354001 $482 $684 forward 7 unknown #
coedge $-1 $685 $686 $314 $485 forward $477 $-1 #
edge $-1 $687 -26.028030036974428 $489 -22.635813339585589 $484 $688 forward 7 unknown #
edge $-1 $490 -3.9169944117887305 $687 2.8642609447069912e-014 $315 $689 forward 7 unknown #
coedge $-1 $316 $679 $685 $690 forward $488 $-1 #
loop $-1 $-1 $679 $476 #
vertex $-1 $485 $691 #
vertex $-1 $317 $692 #
straight-curve $-1 16.12847039200097 -66.990283536318586 8.5205174069326333 0 1 0 I I #
coedge $-1 $492 $492 $-1 $693 reversed $320 $-1 #
edge $-1 $694 0 $694 6.2831853071796004 $321 $695 forward 7 unknown #
vertex $-1 $324 $696 #
ellipse-curve $-1 9.1425088346437136 -33.955096681986355 6.8244090582382242 0 -0.86602541151947299 0.49999998660252726 0.25 0 0 1 I I #
face $-1 $-1 $508 $66 $-1 $697 forward single #
loop $-1 $-1 $698 $325 #
plane-surface $-1 0 -34.934345258694634 0 0 1 0 0 0 1 forward_v I I I I #
coedge $-1 $699 $700 $701 $702 reversed $326 $-1 #
coedge $-1 $703 $328 $330 $506 forward $204 $-1 #
coedge $-1 $328 $703 $699 $704 forward $204 $-1 #
coedge $-1 $701 $331 $328 $503 forward $508 $-1 #
edge $-1 $510 -25.853306553615237 $705 -11.881383438900723 $502 $706 forward 7 unknown #
coedge $-1 $707 $708 $329 $505 forward $497 $-1 #
edge $-1 $709 -26.028030036974428 $509 -22.635813339585589 $504 $710 forward 7 unknown #
edge $-1 $510 -3.9169944117887305 $709 2.8642609447069912e-014 $330 $711 forward 7 unknown #
coedge $-1 $331 $701 $707 $712 forward $508 $-1 #
loop $-1 $-1 $701 $496 #
vertex $-1 $505 $713 #
vertex $-1 $332 $714 #
straight-curve $-1 44.720651549873217 -66.990283536318586 8.5205174069326333 0 1 0 I I #
coedge $-1 $512 $512 $-1 $715 reversed $335 $-1 #
edge $-1 $716 0 $716 6.2831853071796004 $336 $717 forward 7 unknown #
vertex $-1 $339 $718 #
ellipse-curve $-1 37.73468999251596 -33.955096681986355 6.8244090582382242 0 -0.86602541151947299 0.49999998660252726 0.25 0 0 1 I I #
face $-1 $-1 $355 $51 $-1 $719 reversed single #
loop $-1 $-1 $532 $340 #
plane-surface $-1 0 34.934345258694634 0 0 -1 0 0 0 -1 forward_v I I I I #
coedge $-1 $720 $530 $533 $721 forward $341 $-1 #
coedge $-1 $536 $343 $344 $524 reversed $213 $-1 #
coedge $-1 $530 $720 $343 $522 reversed $341 $-1 #
edge $-1 $537 -8.520517406932635 $722 8.520517406932635 $521 $723 forward 7 unknown #
coedge $-1 $345 $344 $720 $724 forward $137 $-1 #
edge $-1 $528 -57.184362315744501 $722 57.184362315744501 $520 $725 forward 7 unknown #
coedge $-1 $533 $532 $345 $526 reversed $517 $-1 #
edge $-1 $726 -57.184362315744501 $527 57.184362315744501 $525 $727 forward 7 unknown #
vertex $-1 $347 $728 #
vertex $-1 $539 $729 #
straight-curve $-1 57.184362315744501 0 -8.520517406932635 0 -1 0 I I #
coedge $-1 $519 $521 $348 $531 reversed $341 $-1 #
edge $-1 $534 -34.934345258694634 $537 34.934345258694634 $530 $730 forward 7 unknown #
coedge $-1 $525 $349 $354 $540 forward $517 $-1 #
coedge $-1 $349 $525 $519 $721 reversed $517 $-1 #
vertex $-1 $350 $731 #
straight-curve $-1 0 34.934345258694634 8.520517406932635 -1 0 0 I I #
coedge $-1 $351 $520 $353 $539 reversed $213 $-1 #
vertex $-1 $531 $732 #
straight-curve $-1 0 -34.934345258694634 8.520517406932635 1 0 0 I I #
edge $-1 $356 -8.520517406932635 $528 8.520517406932635 $353 $733 forward 7 unknown #
edge $-1 $357 -8.520517406932635 $527 8.520517406932635 $354 $734 forward 7 unknown #
point $-1 57.184362315744501 -34.934345258694634 8.520517406932635 #
point $-1 57.184362315744501 34.934345258694634 8.520517406932635 #
plane-surface $-1 0 0 8.520517406932635 0 0 1 1 0 0 forward_v I I I I #
coedge $-1 $554 $553 $546 $735 forward $360 $-1 #
coedge $-1 $546 $362 $364 $550 reversed $221 $-1 #
coedge $-1 $362 $545 $544 $735 reversed $221 $-1 #
coedge $-1 $370 $365 $362 $548 forward $371 $-1 #
edge $-1 $551 -16.547263269725121 $736 -14.588766116308577 $547 $737 forward 7 unknown #
coedge $-1 $364 $363 $554 $738 reversed $141 $-1 #
edge $-1 $739 -69.868690517389282 $551 -65.951696105600547 $545 $740 forward 7 unknown #
vertex $-1 $366 $741 #
straight-curve $-1 -24.020926740550394 32.975848105278097 8.5205174069326333 1 0 0 I I #
coedge $-1 $544 $367 $370 $558 reversed $360 $-1 #
coedge $-1 $367 $544 $549 $738 forward $360 $-1 #
vertex $-1 $368 $742 #
straight-curve $-1 -55.027815038458044 34.934345258694634 61.410361475342597 0 0 1 I I #
straight-curve $-1 -55.027815038458044 9.360638699718038e-007 65.636362167192573 0 0.49999998660252726 -0.86602541151947299 I I #
edge $-1 $736 41.05589192374353 $372 55.027815038458044 $553 $743 forward 7 unknown #
point $-1 -55.027815038458044 34.934345258694634 8.520517406932635 #
point $-1 -55.027815038458044 32.975848105278089 8.5205174069326333 #
edge $-1 $744 1 $744 0 $375 $-1 forward 7 unknown #
vertex $-1 $376 $745 #
ellipse-curve $-1 -48.041853481100787 33.089071270466903 6.3244090716357055 0 0.86602541151947299 0.49999998660252726 0.25 0 0 1 I I #
point $-1 -47.791853481100787 33.955096681986376 6.8244090582382331 #
loop $-1 $-1 $387 $379 #
plane-surface $-1 0 34.934345258694634 0 0 -1 0 0 0 -1 forward_v I I I I #
coedge $-1 $568 $382 $384 $572 reversed $236 $-1 #
coedge $-1 $382 $567 $746 $747 reversed $236 $-1 #
coedge $-1 $390 $385 $382 $570 forward $380 $-1 #
edge $-1 $573 -16.547263269725121 $748 -14.588766116308577 $569 $749 forward 7 unknown #
coedge $-1 $384 $383 $576 $750 reversed $150 $-1 #
edge $-1 $751 -69.868690517389282 $573 -65.951696105600547 $567 $752 forward 7 unknown #
vertex $-1 $386 $753 #
straight-curve $-1 -9.7248361616142702 32.975848105278097 8.5205174069326333 1 0 0 I I #
coedge $-1 $746 $387 $390 $580 reversed $565 $-1 #
coedge $-1 $387 $746 $571 $750 forward $565 $-1 #
vertex $-1 $388 $754 #
straight-curve $-1 -26.435633880585797 34.934345258694634 61.410361475342597 0 0 1 I I #
straight-curve $-1 -26.435633880585797 9.360638699718038e-007 65.636362167192573 0 0.49999998660252726 -0.86602541151947299 I I #
edge $-1 $748 12.463710765871284 $391 26.435633880585797 $575 $755 forward 7 unknown #
point $-1 -26.435633880585797 34.934345258694634 8.520517406932635 #
point $-1 -26.435633880585797 32.975848105278089 8.5205174069326333 #
edge $-1 $756 1 $756 0 $394 $-1 forward 7 unknown #
vertex $-1 $395 $757 #
ellipse-curve $-1 -19.44967232322854 33.089071270466903 6.3244090716357055 0 0.86602541151947299 0.49999998660252726 0.25 0 0 1 I I #
point $-1 -19.19967232322854 33.955096681986376 6.8244090582382331 #
loop $-1 $-1 $406 $398 #
plane-surface $-1 0 34.934345258694634 0 0 -1 0 0 0 -1 forward_v I I I I #
coedge $-1 $590 $401 $403 $594 reversed $251 $-1 #
coedge $-1 $401 $589 $758 $759 reversed $251 $-1 #
coedge $-1 $409 $404 $401 $592 forward $399 $-1 #
edge $-1 $595 -16.547263269725121 $760 -14.588766116308577 $591 $761 forward 7 unknown #
coedge $-1 $403 $402 $598 $762 reversed $159 $-1 #
edge $-1 $763 -69.868690517389282 $595 -65.951696105600547 $589 $764 forward 7 unknown #
vertex $-1 $405 $765 #
straight-curve $-1 4.5712544173218568 32.975848105278097 8.5205174069326333 1 0 0 I I #
coedge $-1 $758 $406 $409 $602 reversed $587 $-1 #
coedge $-1 $406 $758 $593 $762 forward $587 $-1 #
vertex $-1 $407 $766 #
straight-curve $-1 2.1565472772864567 34.934345258694634 61.410361475342597 0 0 1 I I #
straight-curve $-1 2.1565472772864567 9.360638699718038e-007 65.636362167192573 0 0.49999998660252726 -0.86602541151947299 I I #
edge $-1 $760 -16.12847039200097 $410 -2.1565472772864567 $597 $767 forward 7 unknown #
point $-1 2.1565472772864567 34.934345258694634 8.520517406932635 #
point $-1 2.1565472772864567 32.975848105278089 8.5205174069326333 #
edge $-1 $768 1 $768 0 $413 $-1 forward 7 unknown #
vertex $-1 $414 $769 #
ellipse-curve $-1 9.1425088346437136 33.089071270466903 6.3244090716357055 0 0.86602541151947299 0.49999998660252726 0.25 0 0 1 I I #
point $-1 9.3925088346437136 33.955096681986376 6.8244090582382331 #
loop $-1 $-1 $425 $417 #
plane-surface $-1 0 34.934345258694634 0 0 -1 0 0 0 -1 forward_v I I I I #
coedge $-1 $612 $420 $422 $616 reversed $266 $-1 #
coedge $-1 $420 $611 $770 $771 reversed $266 $-1 #
coedge $-1 $428 $423 $420 $614 forward $418 $-1 #
edge $-1 $617 -16.547263269725121 $772 -14.588766116308577 $613 $773 forward 7 unknown #
coedge $-1 $422 $421 $620 $774 reversed $168 $-1 #
edge $-1 $775 -69.868690517389282 $617 -65.951696105600547 $611 $776 forward 7 unknown #
vertex $-1 $424 $777 #
straight-curve $-1 18.86734499625798 32.975848105278097 8.5205174069326333 1 0 0 I I #
coedge $-1 $770 $425 $428 $624 reversed $609 $-1 #
coedge $-1 $425 $770 $615 $774 forward $609 $-1 #
vertex $-1 $426 $778 #
straight-curve $-1 30.748728435158704 34.934345258694634 61.410361475342597 0 0 1 I I #
straight-curve $-1 30.748728435158704 9.360638699718038e-007 65.636362167192573 0 0.49999998660252726 -0.86602541151947299 I I #
edge $-1 $772 -44.720651549873217 $429 -30.748728435158704 $619 $779 forward 7 unknown #
point $-1 30.748728435158704 34.934345258694634 8.520517406932635 #
point $-1 30.748728435158704 32.975848105278089 8.5205174069326333 #
edge $-1 $780 1 $780 0 $432 $-1 forward 7 unknown #
vertex $-1 $433 $781 #
ellipse-curve $-1 37.73468999251596 33.089071270466903 6.3244090716357055 0 0.86602541151947299 0.49999998660252726 0.25 0 0 1 I I #
point $-1 37.98468999251596 33.955096681986376 6.8244090582382331 #
plane-surface $-1 0 0 8.520517406932635 0 0 1 1 0 0 forward_v I I I I #
coedge $-1 $642 $641 $634 $782 forward $437 $-1 #
coedge $-1 $634 $439 $441 $638 reversed $281 $-1 #
coedge $-1 $439 $633 $632 $782 reversed $281 $-1 #
coedge $-1 $447 $442 $439 $636 forward $448 $-1 #
edge $-1 $639 -34.014435431040503 $783 -32.055938277623952 $635 $784 forward 7 unknown #
coedge $-1 $441 $440 $642 $785 reversed $177 $-1 #
edge $-1 $786 -2.8642609447069912e-014 $639 3.9169944117887305 $633 $787 forward 7 unknown #
vertex $-1 $443 $788 #
straight-curve $-1 -24.020926740550394 -32.975848105278082 8.520517406932635 -1 0 0 I I #
coedge $-1 $632 $444 $447 $646 reversed $437 $-1 #
coedge $-1 $444 $632 $637 $785 forward $437 $-1 #
vertex $-1 $445 $789 #
straight-curve $-1 -41.05589192374353 -34.934345258694634 31.156330746518226 0 0 1 I I #
straight-curve $-1 -41.05589192374353 -34.93434525869462 5.1283007095438222 0 -0.49999998660252726 -0.86602541151947299 I I #
edge $-1 $783 -55.027815038458044 $449 -41.05589192374353 $641 $790 forward 7 unknown #
point $-1 -41.05589192374353 -34.934345258694634 8.520517406932635 #
point $-1 -41.05589192374353 -32.975848105278082 8.520517406932635 #
edge $-1 $791 1 $791 0 $452 $-1 forward 7 unknown #
vertex $-1 $453 $792 #
ellipse-curve $-1 -48.041853481100787 -33.089071270466889 6.324409071635702 0 -0.86602541151947299 0.49999998660252726 0.25 0 0 1 I I #
point $-1 -47.791853481100787 -33.955096681986362 6.8244090582382295 #
plane-surface $-1 0 0 8.520517406932635 0 0 1 1 0 0 forward_v I I I I #
coedge $-1 $664 $663 $656 $793 forward $457 $-1 #
coedge $-1 $656 $459 $461 $660 reversed $296 $-1 #
coedge $-1 $459 $655 $654 $793 reversed $296 $-1 #
coedge $-1 $467 $462 $459 $658 forward $468 $-1 #
edge $-1 $661 -34.014435431040503 $794 -32.055938277623952 $657 $795 forward 7 unknown #
coedge $-1 $461 $460 $664 $796 reversed $186 $-1 #
edge $-1 $797 -2.8642609447069912e-014 $661 3.9169944117887305 $655 $798 forward 7 unknown #
vertex $-1 $463 $799 #
straight-curve $-1 -9.7248361616142702 -32.975848105278082 8.520517406932635 -1 0 0 I I #
coedge $-1 $654 $464 $467 $668 reversed $457 $-1 #
coedge $-1 $464 $654 $659 $796 forward $457 $-1 #
vertex $-1 $465 $800 #
straight-curve $-1 -12.463710765871284 -34.934345258694634 31.156330746518226 0 0 1 I I #
straight-curve $-1 -12.463710765871284 -34.93434525869462 5.1283007095438222 0 -0.49999998660252726 -0.86602541151947299 I I #
edge $-1 $794 -26.435633880585797 $469 -12.463710765871284 $663 $801 forward 7 unknown #
point $-1 -12.463710765871284 -34.934345258694634 8.520517406932635 #
point $-1 -12.463710765871284 -32.975848105278082 8.520517406932635 #
edge $-1 $802 1 $802 0 $472 $-1 forward 7 unknown #
vertex $-1 $473 $803 #
ellipse-curve $-1 -19.44967232322854 -33.089071270466889 6.324409071635702 0 -0.86602541151947299 0.49999998660252726 0.25 0 0 1 I I #
point $-1 -19.19967232322854 -33.955096681986362 6.8244090582382295 #
plane-surface $-1 0 0 8.520517406932635 0 0 1 1 0 0 forward_v I I I I #
coedge $-1 $686 $685 $678 $804 forward $477 $-1 #
coedge $-1 $678 $479 $481 $682 reversed $311 $-1 #
coedge $-1 $479 $677 $676 $804 reversed $311 $-1 #
coedge $-1 $487 $482 $479 $680 forward $488 $-1 #
edge $-1 $683 -34.014435431040503 $805 -32.055938277623952 $679 $806 forward 7 unknown #
coedge $-1 $481 $480 $686 $807 reversed $195 $-1 #
edge $-1 $808 -2.8642609447069912e-014 $683 3.9169944117887305 $677 $809 forward 7 unknown #
vertex $-1 $483 $810 #
straight-curve $-1 4.5712544173218568 -32.975848105278082 8.520517406932635 -1 0 0 I I #
coedge $-1 $676 $484 $487 $690 reversed $477 $-1 #
coedge $-1 $484 $676 $681 $807 forward $477 $-1 #
vertex $-1 $485 $811 #
straight-curve $-1 16.12847039200097 -34.934345258694634 31.156330746518226 0 0 1 I I #
straight-curve $-1 16.12847039200097 -34.93434525869462 5.1283007095438222 0 -0.49999998660252726 -0.86602541151947299 I I #
edge $-1 $805 2.1565472772864567 $489 16.12847039200097 $685 $812 forward 7 unknown #
point $-1 16.12847039200097 -34.934345258694634 8.520517406932635 #
point $-1 16.12847039200097 -32.975848105278082 8.520517406932635 #
edge $-1 $813 1 $813 0 $492 $-1 forward 7 unknown #
vertex $-1 $493 $814 #
ellipse-curve $-1 9.1425088346437136 -33.089071270466889 6.324409071635702 0 -0.86602541151947299 0.49999998660252726 0.25 0 0 1 I I #
point $-1 9.3925088346437136 -33.955096681986362 6.8244090582382295 #
plane-surface $-1 0 0 8.520517406932635 0 0 1 1 0 0 forward_v I I I I #
coedge $-1 $708 $707 $700 $815 forward $497 $-1 #
coedge $-1 $700 $499 $501 $704 reversed $326 $-1 #
coedge $-1 $499 $699 $698 $815 reversed $326 $-1 #
coedge $-1 $507 $502 $499 $702 forward $508 $-1 #
edge $-1 $705 -34.014435431040503 $816 -32.055938277623952 $701 $817 forward 7 unknown #
coedge $-1 $501 $500 $708 $818 reversed $204 $-1 #
edge $-1 $819 -2.8642609447069912e-014 $705 3.9169944117887305 $699 $820 forward 7 unknown #
vertex $-1 $503 $821 #
straight-curve $-1 18.86734499625798 -32.975848105278082 8.520517406932635 -1 0 0 I I #
coedge $-1 $698 $504 $507 $712 reversed $497 $-1 #
coedge $-1 $504 $698 $703 $818 forward $497 $-1 #
vertex $-1 $505 $822 #
straight-curve $-1 44.720651549873217 -34.934345258694634 31.156330746518226 0 0 1 I I #
straight-curve $-1 44.720651549873217 -34.93434525869462 5.1283007095438222 0 -0.49999998660252726 -0.86602541151947299 I I #
edge $-1 $816 30.748728435158704 $509 44.720651549873217 $707 $823 forward 7 unknown #
point $-1 44.720651549873217 -34.934345258694634 8.520517406932635 #
point $-1 44.720651549873217 -32.975848105278082 8.520517406932635 #
edge $-1 $824 1 $824 0 $512 $-1 forward 7 unknown #
vertex $-1 $513 $825 #
ellipse-curve $-1 37.73468999251596 -33.089071270466889 6.324409071635702 0 -0.86602541151947299 0.49999998660252726 0.25 0 0 1 I I #
point $-1 37.98468999251596 -33.955096681986362 6.8244090582382295 #
plane-surface $-1 57.184362315744501 0 0 -1 0 0 0 0 1 forward_v I I I I #
coedge $-1 $521 $519 $523 $724 reversed $341 $-1 #
edge $-1 $534 -8.520517406932635 $726 8.520517406932635 $533 $826 forward 7 unknown #
vertex $-1 $724 $827 #
straight-curve $-1 -57.184362315744501 -34.934345258694634 0 0 0 -1 I I #
edge $-1 $722 -34.934345258694634 $726 34.934345258694634 $720 $828 forward 7 unknown #
straight-curve $-1 0 -34.934345258694634 -8.520517406932635 -1 0 0 I I #
vertex $-1 $526 $829 #
straight-curve $-1 0 34.934345258694634 -8.520517406932635 1 0 0 I I #
point $-1 57.184362315744501 34.934345258694634 -8.520517406932635 #
point $-1 57.184362315744501 -34.934345258694634 -8.520517406932635 #
straight-curve $-1 -57.184362315744501 0 8.520517406932635 0 -1 0 I I #
point $-1 -57.184362315744501 34.934345258694634 8.520517406932635 #
point $-1 -57.184362315744501 -34.934345258694634 8.520517406932635 #
straight-curve $-1 57.184362315744501 -34.934345258694634 0 0 0 -1 I I #
straight-curve $-1 57.184362315744501 34.934345258694634 0 0 0 -1 I I #
edge $-1 $736 52.889844068409964 $739 56.282060765798775 $544 $830 forward 7 unknown #
vertex $-1 $558 $831 #
straight-curve $-1 -41.05589192374353 49.523111375003211 8.5205174069326333 0 1 0 I I #
edge $-1 $739 17.034965183193137 $555 31.006888297907651 $554 $832 forward 7 unknown #
vertex $-1 $738 $833 #
straight-curve $-1 -41.05589192374353 9.360638699718038e-007 65.636362167192573 0 -0.49999998660252726 0.86602541151947299 I I #
point $-1 -41.05589192374353 32.975848105278089 8.5205174069326333 #
point $-1 -55.027815038458044 34.934345258694634 5.1283007095438222 #
straight-curve $-1 0 34.934345258694634 8.520517406932635 -1 0 0 I I #
vertex $-1 $561 $834 #
point $-1 -47.791853481100787 33.089071270466903 6.3244090716357055 #
coedge $-1 $576 $575 $568 $747 forward $565 $-1 #
edge $-1 $748 52.889844068409964 $751 56.282060765798775 $746 $835 forward 7 unknown #
vertex $-1 $580 $836 #
straight-curve $-1 -12.463710765871284 49.523111375003211 8.5205174069326333 0 1 0 I I #
edge $-1 $751 2.7388746042570133 $577 16.710797718971527 $576 $837 forward 7 unknown #
vertex $-1 $750 $838 #
straight-curve $-1 -12.463710765871284 9.360638699718038e-007 65.636362167192573 0 -0.49999998660252726 0.86602541151947299 I I #
point $-1 -12.463710765871284 32.975848105278089 8.5205174069326333 #
point $-1 -26.435633880585797 34.934345258694634 5.1283007095438222 #
straight-curve $-1 0 34.934345258694634 8.520517406932635 -1 0 0 I I #
vertex $-1 $583 $839 #
point $-1 -19.19967232322854 33.089071270466903 6.3244090716357055 #
coedge $-1 $598 $597 $590 $759 forward $587 $-1 #
edge $-1 $760 52.889844068409964 $763 56.282060765798775 $758 $840 forward 7 unknown #
vertex $-1 $602 $841 #
straight-curve $-1 16.12847039200097 49.523111375003211 8.5205174069326333 0 1 0 I I #
edge $-1 $763 -11.557215974679114 $599 2.4147071400354001 $598 $842 forward 7 unknown #
vertex $-1 $762 $843 #
straight-curve $-1 16.12847039200097 9.360638699718038e-007 65.636362167192573 0 -0.49999998660252726 0.86602541151947299 I I #
point $-1 16.12847039200097 32.975848105278089 8.5205174069326333 #
point $-1 2.1565472772864567 34.934345258694634 5.1283007095438222 #
straight-curve $-1 0 34.934345258694634 8.520517406932635 -1 0 0 I I #
vertex $-1 $605 $844 #
point $-1 9.3925088346437136 33.089071270466903 6.3244090716357055 #
coedge $-1 $620 $619 $612 $771 forward $609 $-1 #
edge $-1 $772 52.889844068409964 $775 56.282060765798775 $770 $845 forward 7 unknown #
vertex $-1 $624 $846 #
straight-curve $-1 44.720651549873217 49.523111375003211 8.5205174069326333 0 1 0 I I #
edge $-1 $775 -25.853306553615237 $621 -11.881383438900723 $620 $847 forward 7 unknown #
vertex $-1 $774 $848 #
straight-curve $-1 44.720651549873217 9.360638699718038e-007 65.636362167192573 0 -0.49999998660252726 0.86602541151947299 I I #
point $-1 44.720651549873217 32.975848105278089 8.5205174069326333 #
point $-1 30.748728435158704 34.934345258694634 5.1283007095438222 #
straight-curve $-1 0 34.934345258694634 8.520517406932635 -1 0 0 I I #
vertex $-1 $627 $849 #
point $-1 37.98468999251596 33.089071270466903 6.3244090716357055 #
edge $-1 $783 22.635813339585589 $786 26.028030036974428 $632 $850 forward 7 unknown #
vertex $-1 $646 $851 #
straight-curve $-1 -55.027815038458044 -66.990283536318586 8.5205174069326333 0 -1 0 I I #
edge $-1 $786 -31.006888297907651 $643 -17.034965183193137 $642 $852 forward 7 unknown #
vertex $-1 $785 $853 #
straight-curve $-1 -55.027815038458044 -34.93434525869462 5.1283007095438222 0 0.49999998660252726 0.86602541151947299 I I #
point $-1 -55.027815038458044 -32.975848105278082 8.520517406932635 #
point $-1 -41.05589192374353 -34.934345258694634 5.1283007095437974 #
straight-curve $-1 0 -34.934345258694634 8.520517406932635 1 0 0 I I #
vertex $-1 $649 $854 #
point $-1 -47.791853481100787 -33.089071270466889 6.324409071635702 #
edge $-1 $794 22.635813339585589 $797 26.028030036974428 $654 $855 forward 7 unknown #
vertex $-1 $668 $856 #
straight-curve $-1 -26.435633880585797 -66.990283536318586 8.5205174069326333 0 -1 0 I I #
edge $-1 $797 -16.710797718971527 $665 -2.7388746042570133 $664 $857 forward 7 unknown #
vertex $-1 $796 $858 #
straight-curve $-1 -26.435633880585797 -34.93434525869462 5.1283007095438222 0 0.49999998660252726 0.86602541151947299 I I #
point $-1 -26.435633880585797 -32.975848105278082 8.520517406932635 #
point $-1 -12.463710765871284 -34.934345258694634 5.1283007095437974 #
straight-curve $-1 0 -34.934345258694634 8.520517406932635 1 0 0 I I #
vertex $-1 $671 $859 #
point $-1 -19.19967232322854 -33.089071270466889 6.324409071635702 #
edge $-1 $805 22.635813339585589 $808 26.028030036974428 $676 $860 forward 7 unknown #
vertex $-1 $690 $861 #
straight-curve $-1 2.1565472772864567 -66.990283536318586 8.5205174069326333 0 -1 0 I I #
edge $-1 $808 -2.4147071400354001 $687 11.557215974679114 $686 $862 forward 7 unknown #
vertex $-1 $807 $863 #
straight-curve $-1 2.1565472772864567 -34.93434525869462 5.1283007095438222 0 0.49999998660252726 0.86602541151947299 I I #
point $-1 2.1565472772864567 -32.975848105278082 8.520517406932635 #
point $-1 16.12847039200097 -34.934345258694634 5.1283007095437974 #
straight-curve $-1 0 -34.934345258694634 8.520517406932635 1 0 0 I I #
vertex $-1 $693 $864 #
point $-1 9.3925088346437136 -33.089071270466889 6.324409071635702 #
edge $-1 $816 22.635813339585589 $819 26.028030036974428 $698 $865 forward 7 unknown #
vertex $-1 $712 $866 #
straight-curve $-1 30.748728435158704 -66.990283536318586 8.5205174069326333 0 -1 0 I I #
edge $-1 $819 11.881383438900723 $709 25.853306553615237 $708 $867 forward 7 unknown #
vertex $-1 $818 $868 #
straight-curve $-1 30.748728435158704 -34.93434525869462 5.1283007095438222 0 0.49999998660252726 0.86602541151947299 I I #
point $-1 30.748728435158704 -32.975848105278082 8.520517406932635 #
point $-1 44.720651549873217 -34.934345258694634 5.1283007095437974 #
straight-curve $-1 0 -34.934345258694634 8.520517406932635 1 0 0 I I #
vertex $-1 $715 $869 #
point $-1 37.98468999251596 -33.089071270466889 6.324409071635702 #
straight-curve $-1 -57.184362315744501 34.934345258694634 0 0 0 -1 I I #
point $-1 -57.184362315744501 -34.934345258694634 -8.520517406932635 #
straight-curve $-1 -57.184362315744501 0 -8.520517406932635 0 1 0 I I #
point $-1 -57.184362315744501 34.934345258694634 -8.520517406932635 #
straight-curve $-1 -41.05589192374353 34.934345258694634 61.410361475342597 0 0 -1 I I #
point $-1 -41.05589192374353 34.934345258694634 8.520517406932635 #
straight-curve $-1 -24.020926740550394 34.934345258694634 5.1283007095438258 -1 0 0 I I #
point $-1 -41.05589192374353 34.934345258694634 5.1283007095438222 #
point $-1 -48.041853481100787 32.872564917587042 6.1994090749850743 #
straight-curve $-1 -12.463710765871284 34.934345258694634 61.410361475342597 0 0 -1 I I #
point $-1 -12.463710765871284 34.934345258694634 8.520517406932635 #
straight-curve $-1 -9.7248361616142702 34.934345258694634 5.1283007095438258 -1 0 0 I I #
point $-1 -12.463710765871284 34.934345258694634 5.1283007095438222 #
point $-1 -19.44967232322854 32.872564917587042 6.1994090749850743 #
straight-curve $-1 16.12847039200097 34.934345258694634 61.410361475342597 0 0 -1 I I #
point $-1 16.12847039200097 34.934345258694634 8.520517406932635 #
straight-curve $-1 4.5712544173218568 34.934345258694634 5.1283007095438258 -1 0 0 I I #
point $-1 16.12847039200097 34.934345258694634 5.1283007095438222 #
point $-1 9.1425088346437136 32.872564917587042 6.1994090749850743 #
straight-curve $-1 44.720651549873217 34.934345258694634 61.410361475342597 0 0 -1 I I #
point $-1 44.720651549873217 34.934345258694634 8.520517406932635 #
straight-curve $-1 18.86734499625798 34.934345258694634 5.1283007095438258 -1 0 0 I I #
point $-1 44.720651549873217 34.934345258694634 5.1283007095438222 #
point $-1 37.73468999251596 32.872564917587042 6.1994090749850743 #
straight-curve $-1 -55.027815038458044 -34.934345258694634 31.156330746518226 0 0 -1 I I #
point $-1 -55.027815038458044 -34.934345258694634 8.520517406932635 #
straight-curve $-1 -24.020926740550394 -34.934345258694634 5.1283007095438018 1 0 0 I I #
point $-1 -55.027815038458044 -34.934345258694634 5.1283007095437974 #
point $-1 -48.041853481100787 -32.872564917587027 6.1994090749850708 #
straight-curve $-1 -26.435633880585797 -34.934345258694634 31.156330746518226 0 0 -1 I I #
point $-1 -26.435633880585797 -34.934345258694634 8.520517406932635 #
straight-curve $-1 -9.7248361616142702 -34.934345258694634 5.1283007095438018 1 0 0 I I #
point $-1 -26.435633880585797 -34.934345258694634 5.1283007095437974 #
point $-1 -19.44967232322854 -32.872564917587027 6.1994090749850708 #
straight-curve $-1 2.1565472772864567 -34.934345258694634 31.156330746518226 0 0 -1 I I #
point $-1 2.1565472772864567 -34.934345258694634 8.520517406932635 #
straight-curve $-1 4.5712544173218568 -34.934345258694634 5.1283007095438018 1 0 0 I I #
point $-1 2.1565472772864567 -34.934345258694634 5.1283007095437974 #
point $-1 9.1425088346437136 -32.872564917587027 6.1994090749850708 #
straight-curve $-1 30.748728435158704 -34.934345258694634 31.156330746518226 0 0 -1 I I #
point $-1 30.748728435158704 -34.934345258694634 8.520517406932635 #
straight-curve $-1 18.86734499625798 -34.934345258694634 5.1283007095438018 1 0 0 I I #
point $-1 30.748728435158704 -34.934345258694634 5.1283007095437974 #
point $-1 37.73468999251596 -32.872564917587027 6.1994090749850708 #
End-of-ACIS-data 