500 0 10 0           
7 Unknown 11 ACIS 5.0 NT 24 Fri Mar 26 20:30:32 1999 
-1 9.9999999999999995e-007 1e-010 
body $-1 $10 $-1 $11 #
body $-1 $12 $-1 $13 #
body $-1 $14 $-1 $15 #
body $-1 $16 $-1 $17 #
body $-1 $18 $-1 $19 #
body $-1 $20 $-1 $21 #
body $-1 $22 $-1 $23 #
body $-1 $24 $-1 $25 #
body $-1 $26 $-1 $27 #
body $-1 $28 $-1 $29 #
lump $-1 $-1 $30 $0 #
transform $-1 1 0 0 0 1 0 0 0 1 72.044434949797051 37.931558803381563 12.982763912955248 1 rotate no_reflect no_shear #
lump $-1 $-1 $31 $1 #
transform $-1 1 0 0 0 1 0 0 0 1 22.61271665283703 7.7022692548247127 12.982763912955248 1 rotate no_reflect no_shear #
lump $-1 $-1 $32 $2 #
transform $-1 0.69465836192734942 0 -0.71933980857756763 0 1 0 0.71933980857756763 0 0.69465836192734942 147.64519165491117 21.481301940155394 221.15299131545549 1 rotate no_reflect no_shear #
lump $-1 $-1 $33 $3 #
transform $-1 0.69465836192734942 0 -0.71933980857756763 0 -1 0 -0.71933980857756763 0 -0.69465836192734942 136.17862597185098 21.481301940155394 18.038233166380493 1 rotate no_reflect no_shear #
lump $-1 $-1 $34 $4 #
transform $-1 0.69465836192734942 0 -0.71933980857756763 0 1 0 0.71933980857756763 0 0.69465836192734942 147.64519165491117 51.71059148871224 221.15299131545549 1 rotate no_reflect no_shear #
lump $-1 $-1 $35 $5 #
transform $-1 0.69465836192734942 0 -0.71933980857756763 0 -1 0 -0.71933980857756763 0 -0.69465836192734942 136.17862597185098 51.71059148871224 18.038233166380493 1 rotate no_reflect no_shear #
lump $-1 $-1 $36 $6 #
transform $-1 0.60181501223851219 0 0.79863551827123203 0 1 0 -0.79863551827123203 0 0.60181501223851219 -115.07448928937845 27.323464761970694 101.81255221417773 1 rotate no_reflect no_shear #
lump $-1 $-1 $37 $7 #
transform $-1 0.60181501223851219 0 0.79863551827123203 0 -1 0 0.79863551827123203 0 -0.60181501223851219 8.0769242035995958 27.323464761970694 17.530830339663396 1 rotate no_reflect no_shear #
lump $-1 $-1 $38 $8 #
transform $-1 0.60181501223851219 0 0.79863551827123203 0 1 0 -0.79863551827123203 0 0.60181501223851219 -115.07448928937845 57.552754310527547 101.81255221417773 1 rotate no_reflect no_shear #
lump $-1 $-1 $39 $9 #
transform $-1 0.60181501223851219 0 0.79863551827123203 0 -1 0 0.79863551827123203 0 -0.60181501223851219 8.0769242035995958 57.552754310527547 17.530830339663396 1 rotate no_reflect no_shear #
shell $-1 $-1 $-1 $40 $-1 $10 #
shell $-1 $-1 $-1 $41 $-1 $12 #
shell $-1 $-1 $-1 $42 $-1 $14 #
shell $-1 $-1 $-1 $43 $-1 $16 #
shell $-1 $-1 $-1 $44 $-1 $18 #
shell $-1 $-1 $-1 $45 $-1 $20 #
shell $-1 $-1 $-1 $46 $-1 $22 #
shell $-1 $-1 $-1 $47 $-1 $24 #
shell $-1 $-1 $-1 $48 $-1 $26 #
shell $-1 $-1 $-1 $49 $-1 $28 #
face $-1 $50 $51 $30 $-1 $52 forward single #
face $-1 $53 $54 $31 $-1 $55 forward single #
face $-1 $56 $57 $32 $-1 $58 forward single #
face $-1 $59 $60 $33 $-1 $61 forward single #
face $-1 $62 $63 $34 $-1 $64 forward single #
face $-1 $65 $66 $35 $-1 $67 forward single #
face $-1 $68 $69 $36 $-1 $70 forward single #
face $-1 $71 $72 $37 $-1 $73 forward single #
face $-1 $74 $75 $38 $-1 $76 forward single #
face $-1 $77 $78 $39 $-1 $79 forward single #
face $-1 $80 $81 $30 $-1 $82 reversed single #
loop $-1 $-1 $83 $40 #
plane-surface $-1 0 0 12.982763912955248 0 0 1 1 0 0 forward_v I I I I #
face $-1 $84 $85 $31 $-1 $86 reversed single #
loop $-1 $-1 $87 $41 #
plane-surface $-1 0 0 12.982763912955248 0 0 1 1 0 0 forward_v I I I I #
face $-1 $88 $89 $32 $-1 $90 reversed single #
loop $-1 $-1 $91 $42 #
plane-surface $-1 0 0 144.0888698995941 0 0 1 1 0 0 forward_v I I I I #
face $-1 $92 $93 $33 $-1 $94 forward single #
loop $-1 $95 $96 $43 #
cone-surface $-1 0 0 -3.0024262215033417 0 0 1 1.5 0 0 1 I I 0 1 1.5 forward I I I I #
face $-1 $97 $98 $34 $-1 $99 reversed single #
loop $-1 $-1 $100 $44 #
plane-surface $-1 0 0 144.0888698995941 0 0 1 1 0 0 forward_v I I I I #
face $-1 $101 $102 $35 $-1 $103 forward single #
loop $-1 $104 $105 $45 #
cone-surface $-1 0 0 -3.0024262215033417 0 0 1 1.5 0 0 1 I I 0 1 1.5 forward I I I I #
face $-1 $106 $107 $36 $-1 $108 reversed single #
loop $-1 $-1 $109 $46 #
plane-surface $-1 0 0 144.0888698995941 0 0 1 1 0 0 forward_v I I I I #
face $-1 $110 $111 $37 $-1 $112 forward single #
loop $-1 $113 $114 $47 #
cone-surface $-1 0 0 -2.8681142612994783 0 0 1 1.5 0 0 1 I I 0 1 1.5 forward I I I I #
face $-1 $115 $116 $38 $-1 $117 reversed single #
loop $-1 $-1 $118 $48 #
plane-surface $-1 0 0 144.0888698995941 0 0 1 1 0 0 forward_v I I I I #
face $-1 $119 $120 $39 $-1 $121 forward single #
loop $-1 $122 $123 $49 #
cone-surface $-1 0 0 -2.8681142612994783 0 0 1 1.5 0 0 1 I I 0 1 1.5 forward I I I I #
face $-1 $124 $125 $30 $-1 $126 reversed single #
loop $-1 $-1 $127 $50 #
plane-surface $-1 0 0 -12.982763912955248 0 0 1 1 0 0 forward_v I I I I #
coedge $-1 $128 $129 $130 $131 forward $51 $-1 #
face $-1 $132 $133 $31 $-1 $134 reversed single #
loop $-1 $-1 $135 $53 #
plane-surface $-1 0 0 -12.982763912955248 0 0 1 1 0 0 forward_v I I I I #
coedge $-1 $136 $137 $138 $139 forward $54 $-1 #
face $-1 $140 $141 $32 $-1 $142 reversed single #
loop $-1 $-1 $143 $56 #
plane-surface $-1 0 0 -144.0888698995941 0 0 1 1 0 0 forward_v I I I I #
coedge $-1 $144 $145 $146 $147 forward $57 $-1 #
face $-1 $-1 $148 $33 $-1 $149 forward single #
loop $-1 $-1 $150 $59 #
plane-surface $-1 0 0 -5.2548524430066834 0 0 -1 -1 0 0 forward_v I I I I #
loop $-1 $-1 $151 $43 #
coedge $-1 $96 $96 $150 $152 reversed $60 $-1 #
face $-1 $153 $154 $34 $-1 $155 reversed single #
loop $-1 $-1 $156 $62 #
plane-surface $-1 0 0 -144.0888698995941 0 0 1 1 0 0 forward_v I I I I #
coedge $-1 $157 $158 $159 $160 forward $63 $-1 #
face $-1 $-1 $161 $35 $-1 $162 forward single #
loop $-1 $-1 $163 $65 #
plane-surface $-1 0 0 -5.2548524430066834 0 0 -1 -1 0 0 forward_v I I I I #
loop $-1 $-1 $164 $45 #
coedge $-1 $105 $105 $163 $165 reversed $66 $-1 #
face $-1 $166 $167 $36 $-1 $168 reversed single #
loop $-1 $-1 $169 $68 #
plane-surface $-1 0 0 -144.0888698995941 0 0 1 1 0 0 forward_v I I I I #
coedge $-1 $170 $171 $172 $173 forward $69 $-1 #
face $-1 $-1 $174 $37 $-1 $175 forward single #
loop $-1 $-1 $176 $71 #
plane-surface $-1 0 0 -4.9862285225989567 0 0 -1 -1 0 0 forward_v I I I I #
loop $-1 $-1 $177 $47 #
coedge $-1 $114 $114 $176 $178 reversed $72 $-1 #
face $-1 $179 $180 $38 $-1 $181 reversed single #
loop $-1 $-1 $182 $74 #
plane-surface $-1 0 0 -144.0888698995941 0 0 1 1 0 0 forward_v I I I I #
coedge $-1 $183 $184 $185 $186 forward $75 $-1 #
face $-1 $-1 $187 $39 $-1 $188 forward single #
loop $-1 $-1 $189 $77 #
plane-surface $-1 0 0 -4.9862285225989567 0 0 -1 -1 0 0 forward_v I I I I #
loop $-1 $-1 $190 $49 #
coedge $-1 $123 $123 $189 $191 reversed $78 $-1 #
face $-1 $192 $193 $30 $-1 $194 reversed single #
loop $-1 $-1 $195 $80 #
plane-surface $-1 0 -37.931558803381563 0 0 1 0 0 0 1 forward_v I I I I #
coedge $-1 $196 $197 $198 $199 forward $81 $-1 #
coedge $-1 $200 $83 $201 $202 forward $51 $-1 #
coedge $-1 $83 $200 $203 $204 forward $51 $-1 #
coedge $-1 $205 $206 $83 $131 reversed $207 $-1 #
edge $-1 $208 -37.931558803381563 $209 37.931558803381563 $130 $210 forward 7 unknown #
face $-1 $211 $212 $31 $-1 $213 reversed single #
loop $-1 $-1 $214 $84 #
plane-surface $-1 0 -7.7022692548247127 0 0 1 0 0 0 1 forward_v I I I I #
coedge $-1 $215 $216 $217 $218 forward $85 $-1 #
coedge $-1 $219 $87 $220 $221 forward $54 $-1 #
coedge $-1 $87 $219 $222 $223 forward $54 $-1 #
coedge $-1 $224 $225 $87 $139 reversed $226 $-1 #
edge $-1 $227 -7.7022692548247127 $228 7.7022692548247127 $138 $229 forward 7 unknown #
face $-1 $230 $231 $32 $-1 $232 reversed single #
loop $-1 $-1 $233 $88 #
plane-surface $-1 0 -6.0767634305059692 0 0 1 0 0 0 1 forward_v I I I I #
coedge $-1 $234 $235 $236 $237 forward $89 $-1 #
coedge $-1 $238 $91 $239 $240 forward $57 $-1 #
coedge $-1 $91 $238 $241 $242 forward $57 $-1 #
coedge $-1 $243 $244 $91 $147 reversed $245 $-1 #
edge $-1 $246 -6.0767634305059692 $247 6.0767634305059692 $146 $248 forward 7 unknown #
loop $-1 $249 $250 $92 #
cone-surface $-1 0 0 0 0 0 1 0.75 0 0 1 I I -0.70710678118654757 0.70710678118654757 0.75 forward I I I I #
coedge $-1 $150 $150 $96 $152 forward $93 $-1 #
coedge $-1 $151 $151 $250 $251 forward $95 $-1 #
edge $-1 $252 0 $252 6.2831853071796004 $150 $253 forward 7 unknown #
face $-1 $254 $255 $34 $-1 $256 reversed single #
loop $-1 $-1 $257 $97 #
plane-surface $-1 0 -6.0767634305059692 0 0 1 0 0 0 1 forward_v I I I I #
coedge $-1 $258 $259 $260 $261 forward $98 $-1 #
coedge $-1 $262 $100 $263 $264 forward $63 $-1 #
coedge $-1 $100 $262 $265 $266 forward $63 $-1 #
coedge $-1 $267 $268 $100 $160 reversed $269 $-1 #
edge $-1 $270 -6.0767634305059692 $271 6.0767634305059692 $159 $272 forward 7 unknown #
loop $-1 $273 $274 $101 #
cone-surface $-1 0 0 0 0 0 1 0.75 0 0 1 I I -0.70710678118654757 0.70710678118654757 0.75 forward I I I I #
coedge $-1 $163 $163 $105 $165 forward $102 $-1 #
coedge $-1 $164 $164 $274 $275 forward $104 $-1 #
edge $-1 $276 0 $276 6.2831853071796004 $163 $277 forward 7 unknown #
face $-1 $278 $279 $36 $-1 $280 reversed single #
loop $-1 $-1 $281 $106 #
plane-surface $-1 0 -3.8290095158790187 0 0 1 0 0 0 1 forward_v I I I I #
coedge $-1 $282 $283 $284 $285 forward $107 $-1 #
coedge $-1 $286 $109 $287 $288 forward $69 $-1 #
coedge $-1 $109 $286 $289 $290 forward $69 $-1 #
coedge $-1 $291 $292 $109 $173 reversed $293 $-1 #
edge $-1 $294 -3.8290095158790187 $295 3.8290095158790187 $172 $296 forward 7 unknown #
loop $-1 $297 $298 $110 #
cone-surface $-1 0 0 0 0 0 1 0.75 0 0 1 I I -0.70710678118654757 0.70710678118654757 0.75 forward I I I I #
coedge $-1 $176 $176 $114 $178 forward $111 $-1 #
coedge $-1 $177 $177 $298 $299 forward $113 $-1 #
edge $-1 $300 0 $300 6.2831853071796004 $176 $301 forward 7 unknown #
face $-1 $302 $303 $38 $-1 $304 reversed single #
loop $-1 $-1 $305 $115 #
plane-surface $-1 0 -3.8290095158790187 0 0 1 0 0 0 1 forward_v I I I I #
coedge $-1 $306 $307 $308 $309 forward $116 $-1 #
coedge $-1 $310 $118 $311 $312 forward $75 $-1 #
coedge $-1 $118 $310 $313 $314 forward $75 $-1 #
coedge $-1 $315 $316 $118 $186 reversed $317 $-1 #
edge $-1 $318 -3.8290095158790187 $319 3.8290095158790187 $185 $320 forward 7 unknown #
loop $-1 $321 $322 $119 #
cone-surface $-1 0 0 0 0 0 1 0.75 0 0 1 I I -0.70710678118654757 0.70710678118654757 0.75 forward I I I I #
coedge $-1 $189 $189 $123 $191 forward $120 $-1 #
coedge $-1 $190 $190 $322 $323 forward $122 $-1 #
edge $-1 $324 0 $324 6.2831853071796004 $189 $325 forward 7 unknown #
face $-1 $326 $327 $30 $-1 $328 reversed single #
loop $-1 $-1 $329 $124 #
plane-surface $-1 -72.044434949797051 0 0 1 0 0 0 0 -1 forward_v I I I I #
coedge $-1 $330 $203 $331 $332 forward $125 $-1 #
coedge $-1 $333 $127 $330 $334 forward $81 $-1 #
coedge $-1 $127 $333 $335 $336 forward $81 $-1 #
coedge $-1 $206 $205 $127 $199 reversed $207 $-1 #
edge $-1 $337 -37.931558803381563 $338 37.931558803381563 $198 $339 forward 7 unknown #
coedge $-1 $129 $128 $340 $341 forward $51 $-1 #
coedge $-1 $342 $343 $128 $202 reversed $327 $-1 #
edge $-1 $209 -72.044434949797051 $344 72.044434949797051 $201 $345 forward 7 unknown #
coedge $-1 $195 $346 $129 $204 reversed $125 $-1 #
edge $-1 $347 -72.044434949797051 $208 72.044434949797051 $203 $348 forward 7 unknown #
coedge $-1 $198 $130 $346 $349 forward $207 $-1 #
coedge $-1 $130 $198 $342 $350 reversed $207 $-1 #
loop $-1 $-1 $205 $326 #
vertex $-1 $131 $351 #
vertex $-1 $131 $352 #
straight-curve $-1 72.044434949797051 0 12.982763912955248 0 1 0 I I #
face $-1 $353 $354 $31 $-1 $355 reversed single #
loop $-1 $-1 $356 $132 #
plane-surface $-1 -1.5603327300518526 0 0 1 0 0 0 0 -1 forward_v I I I I #
coedge $-1 $357 $222 $358 $359 forward $133 $-1 #
coedge $-1 $360 $135 $357 $361 forward $85 $-1 #
coedge $-1 $135 $360 $362 $363 forward $85 $-1 #
coedge $-1 $225 $224 $135 $218 reversed $226 $-1 #
edge $-1 $364 -7.7022692548247127 $365 7.7022692548247127 $217 $366 forward 7 unknown #
coedge $-1 $137 $136 $367 $368 forward $54 $-1 #
coedge $-1 $369 $370 $136 $221 reversed $354 $-1 #
edge $-1 $228 -1.5603327300518526 $371 1.5603327300518526 $220 $372 forward 7 unknown #
coedge $-1 $214 $373 $137 $223 reversed $133 $-1 #
edge $-1 $374 -1.5603327300518526 $227 1.5603327300518526 $222 $375 forward 7 unknown #
coedge $-1 $217 $138 $373 $376 forward $226 $-1 #
coedge $-1 $138 $217 $369 $377 reversed $226 $-1 #
loop $-1 $-1 $224 $353 #
vertex $-1 $139 $378 #
vertex $-1 $139 $379 #
straight-curve $-1 1.5603327300518526 0 12.982763912955248 0 1 0 I I #
face $-1 $380 $381 $32 $-1 $382 reversed single #
loop $-1 $-1 $383 $140 #
plane-surface $-1 -288.1777397991882 0 0 1 0 0 0 0 -1 forward_v I I I I #
coedge $-1 $384 $241 $385 $386 forward $141 $-1 #
coedge $-1 $387 $143 $384 $388 forward $89 $-1 #
coedge $-1 $143 $387 $389 $390 forward $89 $-1 #
coedge $-1 $244 $243 $143 $237 reversed $245 $-1 #
edge $-1 $391 -6.0767634305059692 $392 6.0767634305059692 $236 $393 forward 7 unknown #
coedge $-1 $145 $144 $394 $395 forward $57 $-1 #
coedge $-1 $396 $397 $144 $240 reversed $381 $-1 #
edge $-1 $247 -288.1777397991882 $398 288.1777397991882 $239 $399 forward 7 unknown #
coedge $-1 $233 $400 $145 $242 reversed $141 $-1 #
edge $-1 $401 -288.1777397991882 $246 288.1777397991882 $241 $402 forward 7 unknown #
coedge $-1 $236 $146 $400 $403 forward $245 $-1 #
coedge $-1 $146 $236 $396 $404 reversed $245 $-1 #
loop $-1 $-1 $243 $380 #
vertex $-1 $147 $405 #
vertex $-1 $147 $406 #
straight-curve $-1 288.1777397991882 0 144.0888698995941 0 1 0 I I #
loop $-1 $-1 $407 $92 #
coedge $-1 $250 $250 $151 $251 reversed $148 $-1 #
edge $-1 $408 0 $408 6.2831853071796004 $250 $409 forward 7 unknown #
vertex $-1 $152 $410 #
ellipse-curve $-1 0 0 -5.2548524430066834 0 0 -1 1.5 0 0 1 I I #
face $-1 $411 $412 $34 $-1 $413 reversed single #
loop $-1 $-1 $414 $153 #
plane-surface $-1 -288.1777397991882 0 0 1 0 0 0 0 -1 forward_v I I I I #
coedge $-1 $415 $265 $416 $417 forward $154 $-1 #
coedge $-1 $418 $156 $415 $419 forward $98 $-1 #
coedge $-1 $156 $418 $420 $421 forward $98 $-1 #
coedge $-1 $268 $267 $156 $261 reversed $269 $-1 #
edge $-1 $422 -6.0767634305059692 $423 6.0767634305059692 $260 $424 forward 7 unknown #
coedge $-1 $158 $157 $425 $426 forward $63 $-1 #
coedge $-1 $427 $428 $157 $264 reversed $412 $-1 #
edge $-1 $271 -288.1777397991882 $429 288.1777397991882 $263 $430 forward 7 unknown #
coedge $-1 $257 $431 $158 $266 reversed $154 $-1 #
edge $-1 $432 -288.1777397991882 $270 288.1777397991882 $265 $433 forward 7 unknown #
coedge $-1 $260 $159 $431 $434 forward $269 $-1 #
coedge $-1 $159 $260 $427 $435 reversed $269 $-1 #
loop $-1 $-1 $267 $411 #
vertex $-1 $160 $436 #
vertex $-1 $160 $437 #
straight-curve $-1 288.1777397991882 0 144.0888698995941 0 1 0 I I #
loop $-1 $-1 $438 $101 #
coedge $-1 $274 $274 $164 $275 reversed $161 $-1 #
edge $-1 $439 0 $439 6.2831853071796004 $274 $440 forward 7 unknown #
vertex $-1 $165 $441 #
ellipse-curve $-1 0 0 -5.2548524430066834 0 0 -1 1.5 0 0 1 I I #
face $-1 $442 $443 $36 $-1 $444 reversed single #
loop $-1 $-1 $445 $166 #
plane-surface $-1 -288.1777397991882 0 0 1 0 0 0 0 -1 forward_v I I I I #
coedge $-1 $446 $289 $447 $448 forward $167 $-1 #
coedge $-1 $449 $169 $446 $450 forward $107 $-1 #
coedge $-1 $169 $449 $451 $452 forward $107 $-1 #
coedge $-1 $292 $291 $169 $285 reversed $293 $-1 #
edge $-1 $453 -3.8290095158790187 $454 3.8290095158790187 $284 $455 forward 7 unknown #
coedge $-1 $171 $170 $456 $457 forward $69 $-1 #
coedge $-1 $458 $459 $170 $288 reversed $443 $-1 #
edge $-1 $295 -288.1777397991882 $460 288.1777397991882 $287 $461 forward 7 unknown #
coedge $-1 $281 $462 $171 $290 reversed $167 $-1 #
edge $-1 $463 -288.1777397991882 $294 288.1777397991882 $289 $464 forward 7 unknown #
coedge $-1 $284 $172 $462 $465 forward $293 $-1 #
coedge $-1 $172 $284 $458 $466 reversed $293 $-1 #
loop $-1 $-1 $291 $442 #
vertex $-1 $173 $467 #
vertex $-1 $173 $468 #
straight-curve $-1 288.1777397991882 0 144.0888698995941 0 1 0 I I #
loop $-1 $-1 $469 $110 #
coedge $-1 $298 $298 $177 $299 reversed $174 $-1 #
edge $-1 $470 0 $470 6.2831853071796004 $298 $471 forward 7 unknown #
vertex $-1 $178 $472 #
ellipse-curve $-1 0 0 -4.9862285225989567 0 0 -1 1.5 0 0 1 I I #
face $-1 $473 $474 $38 $-1 $475 reversed single #
loop $-1 $-1 $476 $179 #
plane-surface $-1 -288.1777397991882 0 0 1 0 0 0 0 -1 forward_v I I I I #
coedge $-1 $477 $313 $478 $479 forward $180 $-1 #
coedge $-1 $480 $182 $477 $481 forward $116 $-1 #
coedge $-1 $182 $480 $482 $483 forward $116 $-1 #
coedge $-1 $316 $315 $182 $309 reversed $317 $-1 #
edge $-1 $484 -3.8290095158790187 $485 3.8290095158790187 $308 $486 forward 7 unknown #
coedge $-1 $184 $183 $487 $488 forward $75 $-1 #
coedge $-1 $489 $490 $183 $312 reversed $474 $-1 #
edge $-1 $319 -288.1777397991882 $491 288.1777397991882 $311 $492 forward 7 unknown #
coedge $-1 $305 $493 $184 $314 reversed $180 $-1 #
edge $-1 $494 -288.1777397991882 $318 288.1777397991882 $313 $495 forward 7 unknown #
coedge $-1 $308 $185 $493 $496 forward $317 $-1 #
coedge $-1 $185 $308 $489 $497 reversed $317 $-1 #
loop $-1 $-1 $315 $473 #
vertex $-1 $186 $498 #
vertex $-1 $186 $499 #
straight-curve $-1 288.1777397991882 0 144.0888698995941 0 1 0 I I #
loop $-1 $-1 $500 $119 #
coedge $-1 $322 $322 $190 $323 reversed $187 $-1 #
edge $-1 $501 0 $501 6.2831853071796004 $322 $502 forward 7 unknown #
vertex $-1 $191 $503 #
ellipse-curve $-1 0 0 -4.9862285225989567 0 0 -1 1.5 0 0 1 I I #
face $-1 $-1 $207 $30 $-1 $504 reversed single #
loop $-1 $-1 $342 $192 #
plane-surface $-1 0 37.931558803381563 0 0 -1 0 0 0 -1 forward_v I I I I #
coedge $-1 $505 $340 $343 $506 forward $193 $-1 #
coedge $-1 $346 $195 $196 $334 reversed $125 $-1 #
coedge $-1 $340 $505 $195 $332 reversed $193 $-1 #
edge $-1 $347 -12.982763912955248 $507 12.982763912955248 $331 $508 forward 7 unknown #
coedge $-1 $197 $196 $505 $509 forward $81 $-1 #
edge $-1 $338 -72.044434949797051 $507 72.044434949797051 $330 $510 forward 7 unknown #
coedge $-1 $343 $342 $197 $336 reversed $327 $-1 #
edge $-1 $511 -72.044434949797051 $337 72.044434949797051 $335 $512 forward 7 unknown #
vertex $-1 $199 $513 #
vertex $-1 $349 $514 #
straight-curve $-1 72.044434949797051 0 -12.982763912955248 0 -1 0 I I #
coedge $-1 $329 $331 $200 $341 reversed $193 $-1 #
edge $-1 $344 -37.931558803381563 $347 37.931558803381563 $340 $515 forward 7 unknown #
coedge $-1 $335 $201 $206 $350 forward $327 $-1 #
coedge $-1 $201 $335 $329 $506 reversed $327 $-1 #
vertex $-1 $202 $516 #
straight-curve $-1 0 37.931558803381563 12.982763912955248 -1 0 0 I I #
coedge $-1 $203 $330 $205 $349 reversed $125 $-1 #
vertex $-1 $341 $517 #
straight-curve $-1 0 -37.931558803381563 12.982763912955248 1 0 0 I I #
edge $-1 $208 -12.982763912955248 $338 12.982763912955248 $205 $518 forward 7 unknown #
edge $-1 $209 -12.982763912955248 $337 12.982763912955248 $206 $519 forward 7 unknown #
point $-1 72.044434949797051 -37.931558803381563 12.982763912955248 #
point $-1 72.044434949797051 37.931558803381563 12.982763912955248 #
face $-1 $-1 $226 $31 $-1 $520 reversed single #
loop $-1 $-1 $369 $211 #
plane-surface $-1 0 7.7022692548247127 0 0 -1 0 0 0 -1 forward_v I I I I #
coedge $-1 $521 $367 $370 $522 forward $212 $-1 #
coedge $-1 $373 $214 $215 $361 reversed $133 $-1 #
coedge $-1 $367 $521 $214 $359 reversed $212 $-1 #
edge $-1 $374 -12.982763912955248 $523 12.982763912955248 $358 $524 forward 7 unknown #
coedge $-1 $216 $215 $521 $525 forward $85 $-1 #
edge $-1 $365 -1.5603327300518526 $523 1.5603327300518526 $357 $526 forward 7 unknown #
coedge $-1 $370 $369 $216 $363 reversed $354 $-1 #
edge $-1 $527 -1.5603327300518526 $364 1.5603327300518526 $362 $528 forward 7 unknown #
vertex $-1 $218 $529 #
vertex $-1 $376 $530 #
straight-curve $-1 1.5603327300518526 0 -12.982763912955248 0 -1 0 I I #
coedge $-1 $356 $358 $219 $368 reversed $212 $-1 #
edge $-1 $371 -7.7022692548247127 $374 7.7022692548247127 $367 $531 forward 7 unknown #
coedge $-1 $362 $220 $225 $377 forward $354 $-1 #
coedge $-1 $220 $362 $356 $522 reversed $354 $-1 #
vertex $-1 $221 $532 #
straight-curve $-1 0 7.7022692548247127 12.982763912955248 -1 0 0 I I #
coedge $-1 $222 $357 $224 $376 reversed $133 $-1 #
vertex $-1 $368 $533 #
straight-curve $-1 0 -7.7022692548247127 12.982763912955248 1 0 0 I I #
edge $-1 $227 -12.982763912955248 $365 12.982763912955248 $224 $534 forward 7 unknown #
edge $-1 $228 -12.982763912955248 $364 12.982763912955248 $225 $535 forward 7 unknown #
point $-1 1.5603327300518526 -7.7022692548247127 12.982763912955248 #
point $-1 1.5603327300518526 7.7022692548247127 12.982763912955248 #
face $-1 $-1 $245 $32 $-1 $536 reversed single #
loop $-1 $-1 $396 $230 #
plane-surface $-1 0 6.0767634305059692 0 0 -1 0 0 0 -1 forward_v I I I I #
coedge $-1 $537 $394 $397 $538 forward $231 $-1 #
coedge $-1 $400 $233 $234 $388 reversed $141 $-1 #
coedge $-1 $394 $537 $233 $386 reversed $231 $-1 #
edge $-1 $401 -144.0888698995941 $539 144.0888698995941 $385 $540 forward 7 unknown #
coedge $-1 $235 $234 $537 $541 forward $89 $-1 #
edge $-1 $392 -288.1777397991882 $539 288.1777397991882 $384 $542 forward 7 unknown #
coedge $-1 $397 $396 $235 $390 reversed $381 $-1 #
edge $-1 $543 -288.1777397991882 $391 288.1777397991882 $389 $544 forward 7 unknown #
vertex $-1 $237 $545 #
vertex $-1 $403 $546 #
straight-curve $-1 288.1777397991882 0 -144.0888698995941 0 -1 0 I I #
coedge $-1 $383 $385 $238 $395 reversed $231 $-1 #
edge $-1 $398 -6.0767634305059692 $401 6.0767634305059692 $394 $547 forward 7 unknown #
coedge $-1 $389 $239 $244 $404 forward $381 $-1 #
coedge $-1 $239 $389 $383 $538 reversed $381 $-1 #
vertex $-1 $240 $548 #
straight-curve $-1 0 6.0767634305059692 144.0888698995941 -1 0 0 I I #
coedge $-1 $241 $384 $243 $403 reversed $141 $-1 #
vertex $-1 $395 $549 #
straight-curve $-1 0 -6.0767634305059692 144.0888698995941 1 0 0 I I #
edge $-1 $246 -144.0888698995941 $392 144.0888698995941 $243 $550 forward 7 unknown #
edge $-1 $247 -144.0888698995941 $391 144.0888698995941 $244 $551 forward 7 unknown #
point $-1 288.1777397991882 -6.0767634305059692 144.0888698995941 #
point $-1 288.1777397991882 6.0767634305059692 144.0888698995941 #
coedge $-1 $407 $407 $-1 $552 reversed $249 $-1 #
vertex $-1 $251 $553 #
ellipse-curve $-1 0 0 -0.75 0 0 -1 1.5 0 0 1 I I #
point $-1 1.5 0 -5.2548524430066834 #
face $-1 $-1 $269 $34 $-1 $554 reversed single #
loop $-1 $-1 $427 $254 #
plane-surface $-1 0 6.0767634305059692 0 0 -1 0 0 0 -1 forward_v I I I I #
coedge $-1 $555 $425 $428 $556 forward $255 $-1 #
coedge $-1 $431 $257 $258 $419 reversed $154 $-1 #
coedge $-1 $425 $555 $257 $417 reversed $255 $-1 #
edge $-1 $432 -144.0888698995941 $557 144.0888698995941 $416 $558 forward 7 unknown #
coedge $-1 $259 $258 $555 $559 forward $98 $-1 #
edge $-1 $423 -288.1777397991882 $557 288.1777397991882 $415 $560 forward 7 unknown #
coedge $-1 $428 $427 $259 $421 reversed $412 $-1 #
edge $-1 $561 -288.1777397991882 $422 288.1777397991882 $420 $562 forward 7 unknown #
vertex $-1 $261 $563 #
vertex $-1 $434 $564 #
straight-curve $-1 288.1777397991882 0 -144.0888698995941 0 -1 0 I I #
coedge $-1 $414 $416 $262 $426 reversed $255 $-1 #
edge $-1 $429 -6.0767634305059692 $432 6.0767634305059692 $425 $565 forward 7 unknown #
coedge $-1 $420 $263 $268 $435 forward $412 $-1 #
coedge $-1 $263 $420 $414 $556 reversed $412 $-1 #
vertex $-1 $264 $566 #
straight-curve $-1 0 6.0767634305059692 144.0888698995941 -1 0 0 I I #
coedge $-1 $265 $415 $267 $434 reversed $154 $-1 #
vertex $-1 $426 $567 #
straight-curve $-1 0 -6.0767634305059692 144.0888698995941 1 0 0 I I #
edge $-1 $270 -144.0888698995941 $423 144.0888698995941 $267 $568 forward 7 unknown #
edge $-1 $271 -144.0888698995941 $422 144.0888698995941 $268 $569 forward 7 unknown #
point $-1 288.1777397991882 -6.0767634305059692 144.0888698995941 #
point $-1 288.1777397991882 6.0767634305059692 144.0888698995941 #
coedge $-1 $438 $438 $-1 $570 reversed $273 $-1 #
vertex $-1 $275 $571 #
ellipse-curve $-1 0 0 -0.75 0 0 -1 1.5 0 0 1 I I #
point $-1 1.5 0 -5.2548524430066834 #
face $-1 $-1 $293 $36 $-1 $572 reversed single #
loop $-1 $-1 $458 $278 #
plane-surface $-1 0 3.8290095158790187 0 0 -1 0 0 0 -1 forward_v I I I I #
coedge $-1 $573 $456 $459 $574 forward $279 $-1 #
coedge $-1 $462 $281 $282 $450 reversed $167 $-1 #
coedge $-1 $456 $573 $281 $448 reversed $279 $-1 #
edge $-1 $463 -144.0888698995941 $575 144.0888698995941 $447 $576 forward 7 unknown #
coedge $-1 $283 $282 $573 $577 forward $107 $-1 #
edge $-1 $454 -288.1777397991882 $575 288.1777397991882 $446 $578 forward 7 unknown #
coedge $-1 $459 $458 $283 $452 reversed $443 $-1 #
edge $-1 $579 -288.1777397991882 $453 288.1777397991882 $451 $580 forward 7 unknown #
vertex $-1 $285 $581 #
vertex $-1 $465 $582 #
straight-curve $-1 288.1777397991882 0 -144.0888698995941 0 -1 0 I I #
coedge $-1 $445 $447 $286 $457 reversed $279 $-1 #
edge $-1 $460 -3.8290095158790187 $463 3.8290095158790187 $456 $583 forward 7 unknown #
coedge $-1 $451 $287 $292 $466 forward $443 $-1 #
coedge $-1 $287 $451 $445 $574 reversed $443 $-1 #
vertex $-1 $288 $584 #
straight-curve $-1 0 3.8290095158790187 144.0888698995941 -1 0 0 I I #
coedge $-1 $289 $446 $291 $465 reversed $167 $-1 #
vertex $-1 $457 $585 #
straight-curve $-1 0 -3.8290095158790187 144.0888698995941 1 0 0 I I #
edge $-1 $294 -144.0888698995941 $454 144.0888698995941 $291 $586 forward 7 unknown #
edge $-1 $295 -144.0888698995941 $453 144.0888698995941 $292 $587 forward 7 unknown #
point $-1 288.1777397991882 -3.8290095158790187 144.0888698995941 #
point $-1 288.1777397991882 3.8290095158790187 144.0888698995941 #
coedge $-1 $469 $469 $-1 $588 reversed $297 $-1 #
vertex $-1 $299 $589 #
ellipse-curve $-1 0 0 -0.75 0 0 -1 1.5 0 0 1 I I #
point $-1 1.5 0 -4.9862285225989567 #
face $-1 $-1 $317 $38 $-1 $590 reversed single #
loop $-1 $-1 $489 $302 #
plane-surface $-1 0 3.8290095158790187 0 0 -1 0 0 0 -1 forward_v I I I I #
coedge $-1 $591 $487 $490 $592 forward $303 $-1 #
coedge $-1 $493 $305 $306 $481 reversed $180 $-1 #
coedge $-1 $487 $591 $305 $479 reversed $303 $-1 #
edge $-1 $494 -144.0888698995941 $593 144.0888698995941 $478 $594 forward 7 unknown #
coedge $-1 $307 $306 $591 $595 forward $116 $-1 #
edge $-1 $485 -288.1777397991882 $593 288.1777397991882 $477 $596 forward 7 unknown #
coedge $-1 $490 $489 $307 $483 reversed $474 $-1 #
edge $-1 $597 -288.1777397991882 $484 288.1777397991882 $482 $598 forward 7 unknown #
vertex $-1 $309 $599 #
vertex $-1 $496 $600 #
straight-curve $-1 288.1777397991882 0 -144.0888698995941 0 -1 0 I I #
coedge $-1 $476 $478 $310 $488 reversed $303 $-1 #
edge $-1 $491 -3.8290095158790187 $494 3.8290095158790187 $487 $601 forward 7 unknown #
coedge $-1 $482 $311 $316 $497 forward $474 $-1 #
coedge $-1 $311 $482 $476 $592 reversed $474 $-1 #
vertex $-1 $312 $602 #
straight-curve $-1 0 3.8290095158790187 144.0888698995941 -1 0 0 I I #
coedge $-1 $313 $477 $315 $496 reversed $180 $-1 #
vertex $-1 $488 $603 #
straight-curve $-1 0 -3.8290095158790187 144.0888698995941 1 0 0 I I #
edge $-1 $318 -144.0888698995941 $485 144.0888698995941 $315 $604 forward 7 unknown #
edge $-1 $319 -144.0888698995941 $484 144.0888698995941 $316 $605 forward 7 unknown #
point $-1 288.1777397991882 -3.8290095158790187 144.0888698995941 #
point $-1 288.1777397991882 3.8290095158790187 144.0888698995941 #
coedge $-1 $500 $500 $-1 $606 reversed $321 $-1 #
vertex $-1 $323 $607 #
ellipse-curve $-1 0 0 -0.75 0 0 -1 1.5 0 0 1 I I #
point $-1 1.5 0 -4.9862285225989567 #
plane-surface $-1 72.044434949797051 0 0 -1 0 0 0 0 1 forward_v I I I I #
coedge $-1 $331 $329 $333 $509 reversed $193 $-1 #
edge $-1 $344 -12.982763912955248 $511 12.982763912955248 $343 $608 forward 7 unknown #
vertex $-1 $509 $609 #
straight-curve $-1 -72.044434949797051 -37.931558803381563 0 0 0 -1 I I #
edge $-1 $507 -37.931558803381563 $511 37.931558803381563 $505 $610 forward 7 unknown #
straight-curve $-1 0 -37.931558803381563 -12.982763912955248 -1 0 0 I I #
vertex $-1 $336 $611 #
straight-curve $-1 0 37.931558803381563 -12.982763912955248 1 0 0 I I #
point $-1 72.044434949797051 37.931558803381563 -12.982763912955248 #
point $-1 72.044434949797051 -37.931558803381563 -12.982763912955248 #
straight-curve $-1 -72.044434949797051 0 12.982763912955248 0 -1 0 I I #
point $-1 -72.044434949797051 37.931558803381563 12.982763912955248 #
point $-1 -72.044434949797051 -37.931558803381563 12.982763912955248 #
straight-curve $-1 72.044434949797051 -37.931558803381563 0 0 0 -1 I I #
straight-curve $-1 72.044434949797051 37.931558803381563 0 0 0 -1 I I #
plane-surface $-1 1.5603327300518526 0 0 -1 0 0 0 0 1 forward_v I I I I #
coedge $-1 $358 $356 $360 $525 reversed $212 $-1 #
edge $-1 $371 -12.982763912955248 $527 12.982763912955248 $370 $612 forward 7 unknown #
vertex $-1 $525 $613 #
straight-curve $-1 -1.5603327300518526 -7.7022692548247127 0 0 0 -1 I I #
edge $-1 $523 -7.7022692548247127 $527 7.7022692548247127 $521 $614 forward 7 unknown #
straight-curve $-1 0 -7.7022692548247127 -12.982763912955248 -1 0 0 I I #
vertex $-1 $363 $615 #
straight-curve $-1 0 7.7022692548247127 -12.982763912955248 1 0 0 I I #
point $-1 1.5603327300518526 7.7022692548247127 -12.982763912955248 #
point $-1 1.5603327300518526 -7.7022692548247127 -12.982763912955248 #
straight-curve $-1 -1.5603327300518526 0 12.982763912955248 0 -1 0 I I #
point $-1 -1.5603327300518526 7.7022692548247127 12.982763912955248 #
point $-1 -1.5603327300518526 -7.7022692548247127 12.982763912955248 #
straight-curve $-1 1.5603327300518526 -7.7022692548247127 0 0 0 -1 I I #
straight-curve $-1 1.5603327300518526 7.7022692548247127 0 0 0 -1 I I #
plane-surface $-1 288.1777397991882 0 0 -1 0 0 0 0 1 forward_v I I I I #
coedge $-1 $385 $383 $387 $541 reversed $231 $-1 #
edge $-1 $398 -144.0888698995941 $543 144.0888698995941 $397 $616 forward 7 unknown #
vertex $-1 $541 $617 #
straight-curve $-1 -288.1777397991882 -6.0767634305059692 0 0 0 -1 I I #
edge $-1 $539 -6.0767634305059692 $543 6.0767634305059692 $537 $618 forward 7 unknown #
straight-curve $-1 0 -6.0767634305059692 -144.0888698995941 -1 0 0 I I #
vertex $-1 $390 $619 #
straight-curve $-1 0 6.0767634305059692 -144.0888698995941 1 0 0 I I #
point $-1 288.1777397991882 6.0767634305059692 -144.0888698995941 #
point $-1 288.1777397991882 -6.0767634305059692 -144.0888698995941 #
straight-curve $-1 -288.1777397991882 0 144.0888698995941 0 -1 0 I I #
point $-1 -288.1777397991882 6.0767634305059692 144.0888698995941 #
point $-1 -288.1777397991882 -6.0767634305059692 144.0888698995941 #
straight-curve $-1 288.1777397991882 -6.0767634305059692 0 0 0 -1 I I #
straight-curve $-1 288.1777397991882 6.0767634305059692 0 0 0 -1 I I #
edge $-1 $620 1 $620 0 $407 $-1 forward 7 unknown #
point $-1 1.5 0 -0.75 #
plane-surface $-1 288.1777397991882 0 0 -1 0 0 0 0 1 forward_v I I I I #
coedge $-1 $416 $414 $418 $559 reversed $255 $-1 #
edge $-1 $429 -144.0888698995941 $561 144.0888698995941 $428 $621 forward 7 unknown #
vertex $-1 $559 $622 #
straight-curve $-1 -288.1777397991882 -6.0767634305059692 0 0 0 -1 I I #
edge $-1 $557 -6.0767634305059692 $561 6.0767634305059692 $555 $623 forward 7 unknown #
straight-curve $-1 0 -6.0767634305059692 -144.0888698995941 -1 0 0 I I #
vertex $-1 $421 $624 #
straight-curve $-1 0 6.0767634305059692 -144.0888698995941 1 0 0 I I #
point $-1 288.1777397991882 6.0767634305059692 -144.0888698995941 #
point $-1 288.1777397991882 -6.0767634305059692 -144.0888698995941 #
straight-curve $-1 -288.1777397991882 0 144.0888698995941 0 -1 0 I I #
point $-1 -288.1777397991882 6.0767634305059692 144.0888698995941 #
point $-1 -288.1777397991882 -6.0767634305059692 144.0888698995941 #
straight-curve $-1 288.1777397991882 -6.0767634305059692 0 0 0 -1 I I #
straight-curve $-1 288.1777397991882 6.0767634305059692 0 0 0 -1 I I #
edge $-1 $625 1 $625 0 $438 $-1 forward 7 unknown #
point $-1 1.5 0 -0.75 #
plane-surface $-1 288.1777397991882 0 0 -1 0 0 0 0 1 forward_v I I I I #
coedge $-1 $447 $445 $449 $577 reversed $279 $-1 #
edge $-1 $460 -144.0888698995941 $579 144.0888698995941 $459 $626 forward 7 unknown #
vertex $-1 $577 $627 #
straight-curve $-1 -288.1777397991882 -3.8290095158790187 0 0 0 -1 I I #
edge $-1 $575 -3.8290095158790187 $579 3.8290095158790187 $573 $628 forward 7 unknown #
straight-curve $-1 0 -3.8290095158790187 -144.0888698995941 -1 0 0 I I #
vertex $-1 $452 $629 #
straight-curve $-1 0 3.8290095158790187 -144.0888698995941 1 0 0 I I #
point $-1 288.1777397991882 3.8290095158790187 -144.0888698995941 #
point $-1 288.1777397991882 -3.8290095158790187 -144.0888698995941 #
straight-curve $-1 -288.1777397991882 0 144.0888698995941 0 -1 0 I I #
point $-1 -288.1777397991882 3.8290095158790187 144.0888698995941 #
point $-1 -288.1777397991882 -3.8290095158790187 144.0888698995941 #
straight-curve $-1 288.1777397991882 -3.8290095158790187 0 0 0 -1 I I #
straight-curve $-1 288.1777397991882 3.8290095158790187 0 0 0 -1 I I #
edge $-1 $630 1 $630 0 $469 $-1 forward 7 unknown #
point $-1 1.5 0 -0.75 #
plane-surface $-1 288.1777397991882 0 0 -1 0 0 0 0 1 forward_v I I I I #
coedge $-1 $478 $476 $480 $595 reversed $303 $-1 #
edge $-1 $491 -144.0888698995941 $597 144.0888698995941 $490 $631 forward 7 unknown #
vertex $-1 $595 $632 #
straight-curve $-1 -288.1777397991882 -3.8290095158790187 0 0 0 -1 I I #
edge $-1 $593 -3.8290095158790187 $597 3.8290095158790187 $591 $633 forward 7 unknown #
straight-curve $-1 0 -3.8290095158790187 -144.0888698995941 -1 0 0 I I #
vertex $-1 $483 $634 #
straight-curve $-1 0 3.8290095158790187 -144.0888698995941 1 0 0 I I #
point $-1 288.1777397991882 3.8290095158790187 -144.0888698995941 #
point $-1 288.1777397991882 -3.8290095158790187 -144.0888698995941 #
straight-curve $-1 -288.1777397991882 0 144.0888698995941 0 -1 0 I I #
point $-1 -288.1777397991882 3.8290095158790187 144.0888698995941 #
point $-1 -288.1777397991882 -3.8290095158790187 144.0888698995941 #
straight-curve $-1 288.1777397991882 -3.8290095158790187 0 0 0 -1 I I #
straight-curve $-1 288.1777397991882 3.8290095158790187 0 0 0 -1 I I #
edge $-1 $635 1 $635 0 $500 $-1 forward 7 unknown #
point $-1 1.5 0 -0.75 #
straight-curve $-1 -72.044434949797051 37.931558803381563 0 0 0 -1 I I #
point $-1 -72.044434949797051 -37.931558803381563 -12.982763912955248 #
straight-curve $-1 -72.044434949797051 0 -12.982763912955248 0 1 0 I I #
point $-1 -72.044434949797051 37.931558803381563 -12.982763912955248 #
straight-curve $-1 -1.5603327300518526 7.7022692548247127 0 0 0 -1 I I #
point $-1 -1.5603327300518526 -7.7022692548247127 -12.982763912955248 #
straight-curve $-1 -1.5603327300518526 0 -12.982763912955248 0 1 0 I I #
point $-1 -1.5603327300518526 7.7022692548247127 -12.982763912955248 #
straight-curve $-1 -288.1777397991882 6.0767634305059692 0 0 0 -1 I I #
point $-1 -288.1777397991882 -6.0767634305059692 -144.0888698995941 #
straight-curve $-1 -288.1777397991882 0 -144.0888698995941 0 1 0 I I #
point $-1 -288.1777397991882 6.0767634305059692 -144.0888698995941 #
vertex $-1 $552 $636 #
straight-curve $-1 -288.1777397991882 6.0767634305059692 0 0 0 -1 I I #
point $-1 -288.1777397991882 -6.0767634305059692 -144.0888698995941 #
straight-curve $-1 -288.1777397991882 0 -144.0888698995941 0 1 0 I I #
point $-1 -288.1777397991882 6.0767634305059692 -144.0888698995941 #
vertex $-1 $570 $637 #
straight-curve $-1 -288.1777397991882 3.8290095158790187 0 0 0 -1 I I #
point $-1 -288.1777397991882 -3.8290095158790187 -144.0888698995941 #
straight-curve $-1 -288.1777397991882 0 -144.0888698995941 0 1 0 I I #
point $-1 -288.1777397991882 3.8290095158790187 -144.0888698995941 #
vertex $-1 $588 $638 #
straight-curve $-1 -288.1777397991882 3.8290095158790187 0 0 0 -1 I I #
point $-1 -288.1777397991882 -3.8290095158790187 -144.0888698995941 #
straight-curve $-1 -288.1777397991882 0 -144.0888698995941 0 1 0 I I #
point $-1 -288.1777397991882 3.8290095158790187 -144.0888698995941 #
vertex $-1 $606 $639 #
point $-1 0 0 0.75 #
point $-1 0 0 0.75 #
point $-1 0 0 0.75 #
point $-1 0 0 0.75 #
End-of-ACIS-data 