500 0 7 0           
7 Unknown 11 ACIS 5.0 NT 24 Fri Mar 26 01:04:36 1999 
-1 9.9999999999999995e-007 1e-010 
body $-1 $7 $-1 $8 #
body $-1 $9 $-1 $10 #
body $-1 $11 $-1 $12 #
body $-1 $13 $-1 $14 #
body $-1 $15 $-1 $16 #
body $-1 $17 $-1 $18 #
body $-1 $19 $-1 $20 #
lump $-1 $-1 $21 $0 #
transform $-1 1 0 0 0 1 0 0 0 1 58.366039002655114 32.452137558567244 8.151312996674454 1 rotate no_reflect no_shear #
lump $-1 $-1 $22 $1 #
transform $-1 1 0 0 0 1 0 0 0 1 58.366039002655114 32.452137558567244 8.151312996674454 1 rotate no_reflect no_shear #
lump $-1 $-1 $23 $2 #
transform $-1 1 0 0 0 1 0 0 0 1 58.366039002655114 32.452137558567244 8.151312996674454 1 rotate no_reflect no_shear #
lump $-1 $-1 $24 $3 #
transform $-1 1 0 0 0 1 0 0 0 1 58.366039002655114 32.452137558567244 8.151312996674454 1 rotate no_reflect no_shear #
lump $-1 $-1 $25 $4 #
transform $-1 1 0 0 0 1 0 0 0 1 58.366039002655114 32.452137558567244 8.151312996674454 1 rotate no_reflect no_shear #
lump $-1 $-1 $26 $5 #
transform $-1 1 0 0 0 1 0 0 0 1 58.366039002655114 32.452137558567244 8.151312996674454 1 rotate no_reflect no_shear #
lump $-1 $-1 $27 $6 #
transform $-1 1 0 0 0 1 0 0 0 1 58.366039002655114 32.452137558567244 8.151312996674454 1 rotate no_reflect no_shear #
shell $-1 $-1 $-1 $28 $-1 $7 #
shell $-1 $-1 $-1 $29 $-1 $9 #
shell $-1 $-1 $-1 $30 $-1 $11 #
shell $-1 $-1 $-1 $31 $-1 $13 #
shell $-1 $-1 $-1 $32 $-1 $15 #
shell $-1 $-1 $-1 $33 $-1 $17 #
shell $-1 $-1 $-1 $34 $-1 $19 #
face $-1 $35 $36 $21 $-1 $37 forward single #
face $-1 $38 $39 $22 $-1 $40 reversed single #
face $-1 $41 $42 $23 $-1 $43 reversed single #
face $-1 $44 $45 $24 $-1 $46 forward single #
face $-1 $47 $48 $25 $-1 $49 forward single #
face $-1 $50 $51 $26 $-1 $52 reversed single #
face $-1 $53 $54 $27 $-1 $55 forward single #
face $-1 $56 $57 $21 $-1 $58 reversed single #
loop $-1 $-1 $59 $28 #
plane-surface $-1 0 0 8.151312996674454 0 0 1 1 0 0 forward_v I I I I #
face $-1 $60 $61 $22 $-1 $62 reversed single #
loop $-1 $-1 $63 $29 #
plane-surface $-1 -56.362285324759199 -29.289760467130591 0 1 0 0 0 0 -1 forward_v I I I I #
face $-1 $64 $65 $23 $-1 $66 reversed single #
loop $-1 $-1 $67 $30 #
plane-surface $-1 -120.22461670841577 -9.0862478069445061 101.76100452487088 0 1 0 -0.52991927123019833 0 0.84804809178421925 forward_v I I I I #
face $-1 $68 $69 $24 $-1 $70 forward single #
loop $-1 $71 $72 $31 #
cone-surface $-1 -53.141757400139809 -5.0305381028542584 3.9936822049735383 0.52991927123019833 0 -0.84804809178421925 1.2720721376763289 0 0.79487890684529749 1 I I 0 1 1.5 forward I I I I #
face $-1 $73 $74 $25 $-1 $75 forward single #
loop $-1 $76 $77 $32 #
cone-surface $-1 -53.141757400139809 1.0530264532811131 3.9936822049735383 0.52991927123019833 0 -0.84804809178421925 1.2720721376763289 0 0.79487890684529749 1 I I 0 1 1.5 forward I I I I #
face $-1 $78 $79 $26 $-1 $80 reversed single #
loop $-1 $-1 $81 $33 #
plane-surface $-1 18.428584809901025 12.37784096057632 164.98174792299145 0 -1 0 -0.51503808176128008 0 -0.85716729658548041 forward_v I I I I #
face $-1 $82 $83 $27 $-1 $84 forward single #
loop $-1 $85 $86 $34 #
cone-surface $-1 54.2697192946993 4.6120627122882354 4.2983070398526095 -0.51503808176128008 0 -0.85716729658548041 1.2857509448782207 0 -0.77255712264192011 1 I I 0 1 1.5 forward I I I I #
face $-1 $87 $88 $21 $-1 $89 reversed single #
loop $-1 $-1 $90 $35 #
plane-surface $-1 0 0 -8.151312996674454 0 0 1 1 0 0 forward_v I I I I #
coedge $-1 $91 $92 $93 $94 forward $36 $-1 #
face $-1 $95 $96 $22 $-1 $97 reversed single #
loop $-1 $-1 $98 $38 #
plane-surface $-1 -54.150631886942669 -26.127383375693938 0 0 -1 0 0 0 -1 forward_v I I I I #
coedge $-1 $99 $100 $101 $102 forward $39 $-1 #
face $-1 $103 $104 $23 $-1 $105 reversed single #
loop $-1 $-1 $106 $41 #
plane-surface $-1 -58.366039002655107 -1.9887558247865691 2.7665885224609212 -0.52991927123019833 0 0.84804809178421925 0.84804809178421925 0 0.52991927123019833 forward_v I I I I #
coedge $-1 $107 $108 $109 $110 reversed $42 $-1 #
face $-1 $-1 $111 $24 $-1 $112 forward single #
loop $-1 $113 $114 $44 #
cone-surface $-1 -51.828716517824816 -5.0305381028542584 1.8923775815412238 0.52991927123019833 0 -0.84804809178421925 0.63603606883816444 0 0.39743945342264875 1 I I -0.70710678118654757 0.70710678118654757 0.75 forward I I I I #
loop $-1 $-1 $115 $31 #
coedge $-1 $72 $72 $116 $117 reversed $45 $-1 #
face $-1 $-1 $118 $25 $-1 $119 forward single #
loop $-1 $120 $121 $47 #
cone-surface $-1 -51.828716517824816 1.0530264532811131 1.8923775815412238 0.52991927123019833 0 -0.84804809178421925 0.63603606883816444 0 0.39743945342264875 1 I I -0.70710678118654757 0.70710678118654757 0.75 forward I I I I #
loop $-1 $-1 $122 $32 #
coedge $-1 $77 $77 $123 $124 reversed $48 $-1 #
face $-1 $125 $126 $26 $-1 $127 reversed single #
loop $-1 $-1 $128 $50 #
plane-surface $-1 -41.69288072596207 4.6120627122882354 64.922828194374262 0.51503808176128008 0 0.85716729658548041 0.85716729658548041 0 -0.51503808176128008 forward_v I I I I #
coedge $-1 $129 $130 $131 $132 reversed $51 $-1 #
face $-1 $-1 $133 $27 $-1 $134 forward single #
loop $-1 $135 $136 $53 #
cone-surface $-1 52.574747782301841 4.6120627122882354 1.4774007796733049 -0.51503808176128008 0 -0.85716729658548041 0.64287547243911036 0 -0.38627856132096006 1 I I -0.70710678118654757 0.70710678118654757 0.75 forward I I I I #
loop $-1 $-1 $137 $34 #
coedge $-1 $86 $86 $138 $139 reversed $54 $-1 #
face $-1 $140 $141 $21 $-1 $142 reversed single #
loop $-1 $-1 $143 $56 #
plane-surface $-1 0 -32.452137558567244 0 0 1 0 0 0 1 forward_v I I I I #
coedge $-1 $144 $145 $146 $147 forward $57 $-1 #
coedge $-1 $148 $59 $149 $150 forward $36 $-1 #
coedge $-1 $59 $148 $151 $152 forward $36 $-1 #
coedge $-1 $153 $154 $59 $94 reversed $155 $-1 #
edge $-1 $156 -32.452137558567244 $157 32.452137558567244 $93 $158 forward 7 unknown #
face $-1 $159 $160 $22 $-1 $161 forward single #
loop $-1 $-1 $162 $60 #
plane-surface $-1 -51.938978449126139 -29.289760467130591 0 -1 0 0 0 0 1 forward_v I I I I #
coedge $-1 $163 $164 $165 $166 forward $61 $-1 #
coedge $-1 $167 $63 $168 $169 reversed $39 $-1 #
coedge $-1 $63 $167 $170 $171 reversed $39 $-1 #
coedge $-1 $164 $163 $63 $102 reversed $61 $-1 #
edge $-1 $172 -8.151312996674454 $173 8.151312996674454 $101 $174 forward 7 unknown #
face $-1 $175 $176 $23 $-1 $177 reversed single #
loop $-1 $-1 $178 $64 #
plane-surface $-1 -120.22461670841577 5.1087361573713679 101.76100452487088 0 -1 0 0.52991927123019833 0 -0.84804809178421925 forward_v I I I I #
coedge $-1 $179 $180 $181 $182 reversed $65 $-1 #
coedge $-1 $108 $67 $183 $184 reversed $42 $-1 #
coedge $-1 $67 $107 $179 $185 reversed $42 $-1 #
coedge $-1 $181 $186 $67 $110 forward $187 $-1 #
edge $-1 $188 1.746269351552769 $189 10.363629698798704 $109 $190 forward 7 unknown #
loop $-1 $-1 $116 $68 #
plane-surface $-1 -58.366039002655107 -1.9887558247865691 2.7665885224609212 -0.52991927123019833 0 0.84804809178421925 0.84804809178421925 0 0.52991927123019833 forward_v I I I I #
loop $-1 $-1 $191 $44 #
coedge $-1 $114 $114 $115 $192 reversed $69 $-1 #
coedge $-1 $115 $115 $114 $192 forward $71 $-1 #
coedge $-1 $116 $116 $72 $117 forward $111 $-1 #
edge $-1 $193 0 $193 6.2831853071796004 $116 $194 forward 7 unknown #
loop $-1 $-1 $123 $73 #
plane-surface $-1 -58.366039002655107 -1.9887558247865691 2.7665885224609212 -0.52991927123019833 0 0.84804809178421925 0.84804809178421925 0 0.52991927123019833 forward_v I I I I #
loop $-1 $-1 $195 $47 #
coedge $-1 $121 $121 $122 $196 reversed $74 $-1 #
coedge $-1 $122 $122 $121 $196 forward $76 $-1 #
coedge $-1 $123 $123 $77 $124 forward $118 $-1 #
edge $-1 $197 0 $197 6.2831853071796004 $123 $198 forward 7 unknown #
face $-1 $199 $200 $26 $-1 $201 forward single #
loop $-1 $-1 $202 $78 #
plane-surface $-1 18.428584809901025 -3.153715535999849 164.98174792299145 0 1 0 0.51503808176128008 0 0.85716729658548041 forward_v I I I I #
coedge $-1 $203 $204 $205 $206 reversed $79 $-1 #
coedge $-1 $130 $81 $207 $208 reversed $51 $-1 #
coedge $-1 $81 $129 $203 $209 reversed $51 $-1 #
coedge $-1 $205 $210 $81 $132 forward $200 $-1 #
edge $-1 $211 -49.151746597704602 $212 -43.576493083946048 $131 $213 forward 7 unknown #
loop $-1 $-1 $138 $82 #
plane-surface $-1 -41.69288072596207 4.6120627122882354 64.922828194374262 0.51503808176128008 0 0.85716729658548041 0.85716729658548041 0 -0.51503808176128008 forward_v I I I I #
loop $-1 $-1 $214 $53 #
coedge $-1 $136 $136 $137 $215 reversed $83 $-1 #
coedge $-1 $137 $137 $136 $215 forward $85 $-1 #
coedge $-1 $138 $138 $86 $139 forward $133 $-1 #
edge $-1 $216 0 $216 6.2831853071796004 $138 $217 forward 7 unknown #
face $-1 $218 $219 $21 $-1 $220 reversed single #
loop $-1 $-1 $221 $87 #
plane-surface $-1 -58.366039002655114 0 0 1 0 0 0 0 -1 forward_v I I I I #
coedge $-1 $222 $151 $223 $224 forward $88 $-1 #
coedge $-1 $225 $90 $222 $226 forward $57 $-1 #
coedge $-1 $90 $225 $227 $228 forward $57 $-1 #
coedge $-1 $154 $153 $90 $147 reversed $155 $-1 #
edge $-1 $229 -32.452137558567244 $230 32.452137558567244 $146 $231 forward 7 unknown #
coedge $-1 $92 $91 $232 $233 forward $36 $-1 #
coedge $-1 $234 $235 $91 $150 reversed $219 $-1 #
edge $-1 $157 -58.366039002655114 $236 58.366039002655114 $149 $237 forward 7 unknown #
coedge $-1 $143 $238 $92 $152 reversed $88 $-1 #
edge $-1 $239 -58.366039002655114 $156 58.366039002655114 $151 $240 forward 7 unknown #
coedge $-1 $146 $93 $238 $241 forward $155 $-1 #
coedge $-1 $93 $146 $234 $242 reversed $155 $-1 #
loop $-1 $-1 $153 $218 #
vertex $-1 $94 $243 #
vertex $-1 $94 $244 #
straight-curve $-1 58.366039002655114 0 8.151312996674454 0 1 0 I I #
face $-1 $245 $246 $22 $-1 $247 reversed single #
loop $-1 $-1 $248 $95 #
plane-surface $-1 0 0 8.151312996674454 0 0 1 1 0 0 forward_v I I I I #
coedge $-1 $249 $250 $251 $252 reversed $96 $-1 #
coedge $-1 $101 $98 $253 $254 reversed $61 $-1 #
coedge $-1 $98 $101 $255 $256 reversed $61 $-1 #
coedge $-1 $250 $249 $98 $166 reversed $96 $-1 #
edge $-1 $257 -8.151312996674454 $258 8.151312996674454 $165 $259 forward 7 unknown #
coedge $-1 $100 $99 $260 $261 reversed $39 $-1 #
coedge $-1 $253 $262 $99 $169 forward $246 $-1 #
edge $-1 $263 -17.807257325001949 $173 -11.482503142128643 $168 $264 forward 7 unknown #
coedge $-1 $265 $255 $100 $171 forward $160 $-1 #
edge $-1 $172 11.482503142128643 $266 17.807257325001949 $170 $267 forward 7 unknown #
vertex $-1 $171 $268 #
vertex $-1 $169 $269 #
straight-curve $-1 -56.362285324759199 -26.127383375693938 0 0 0 -1 I I #
face $-1 $-1 $187 $23 $-1 $270 forward single #
loop $-1 $-1 $271 $103 #
plane-surface $-1 -58.366039002655114 0 0 1 0 0 0 0 -1 forward_v I I I I #
coedge $-1 $272 $273 $274 $275 reversed $104 $-1 #
coedge $-1 $276 $106 $108 $185 forward $65 $-1 #
coedge $-1 $106 $276 $272 $277 forward $65 $-1 #
coedge $-1 $274 $109 $106 $182 forward $187 $-1 #
edge $-1 $189 -8.0918698945512215 $278 6.1031140697646524 $181 $279 forward 7 unknown #
coedge $-1 $280 $281 $107 $184 forward $176 $-1 #
edge $-1 $282 -48.113913739974528 $188 -42.729189265760986 $183 $283 forward 7 unknown #
edge $-1 $189 -10.161405267849554 $282 8.3790584163743152e-015 $108 $284 forward 7 unknown #
coedge $-1 $109 $274 $280 $285 forward $187 $-1 #
loop $-1 $-1 $274 $175 #
vertex $-1 $184 $286 #
vertex $-1 $110 $287 #
straight-curve $-1 -60.112308354207883 -9.0862478069445061 8.1513129966744557 1 0 0 I I #
coedge $-1 $191 $191 $-1 $288 reversed $113 $-1 #
edge $-1 $289 0 $289 6.2831853071796004 $114 $290 forward 7 unknown #
vertex $-1 $117 $291 #
ellipse-curve $-1 -54.057358829032154 -5.0305381028542584 5.4589507595676832 -0.52991927123019833 0 0.84804809178421925 1.2720721376763289 0 0.79487890684529749 1 I I #
coedge $-1 $195 $195 $-1 $292 reversed $120 $-1 #
edge $-1 $293 0 $293 6.2831853071796004 $121 $294 forward 7 unknown #
vertex $-1 $124 $295 #
ellipse-curve $-1 -54.057358829032154 1.0530264532811131 5.4589507595676832 -0.52991927123019833 0 0.84804809178421925 1.2720721376763289 0 0.79487890684529749 1 I I #
face $-1 $-1 $296 $26 $-1 $297 reversed single #
loop $-1 $-1 $131 $125 #
plane-surface $-1 0 0 8.151312996674454 0 0 1 1 0 0 forward_v I I I I #
coedge $-1 $298 $299 $300 $301 reversed $126 $-1 #
coedge $-1 $302 $128 $130 $209 forward $79 $-1 #
coedge $-1 $128 $302 $298 $303 forward $79 $-1 #
coedge $-1 $300 $131 $128 $206 forward $200 $-1 #
edge $-1 $212 -10.071809604432202 $304 5.4597468921439667 $205 $305 forward 7 unknown #
coedge $-1 $306 $307 $129 $208 forward $296 $-1 #
edge $-1 $308 -77.689511302984556 $211 -74.339560964821274 $207 $309 forward 7 unknown #
edge $-1 $212 110.22780102697993 $308 116.73207800531023 $130 $310 forward 7 unknown #
coedge $-1 $131 $300 $306 $311 forward $200 $-1 #
vertex $-1 $208 $312 #
vertex $-1 $132 $313 #
straight-curve $-1 9.2142924049505126 12.37784096057632 8.1513129966744486 -1 0 0 I I #
coedge $-1 $214 $214 $-1 $314 reversed $135 $-1 #
edge $-1 $315 0 $315 6.2831853071796004 $136 $316 forward 7 unknown #
vertex $-1 $139 $317 #
ellipse-curve $-1 55.578412245775816 4.6120627122882354 6.4763378275928272 0.51503808176128008 0 0.85716729658548041 1.2857509448782207 0 -0.77255712264192011 1 I I #
face $-1 $-1 $155 $21 $-1 $318 reversed single #
loop $-1 $-1 $234 $140 #
plane-surface $-1 0 32.452137558567244 0 0 -1 0 0 0 -1 forward_v I I I I #
coedge $-1 $319 $232 $235 $320 forward $141 $-1 #
coedge $-1 $238 $143 $144 $226 reversed $88 $-1 #
coedge $-1 $232 $319 $143 $224 reversed $141 $-1 #
edge $-1 $239 -8.151312996674454 $321 8.151312996674454 $223 $322 forward 7 unknown #
coedge $-1 $145 $144 $319 $323 forward $57 $-1 #
edge $-1 $230 -58.366039002655114 $321 58.366039002655114 $222 $324 forward 7 unknown #
coedge $-1 $235 $234 $145 $228 reversed $219 $-1 #
edge $-1 $325 -58.366039002655114 $229 58.366039002655114 $227 $326 forward 7 unknown #
vertex $-1 $147 $327 #
vertex $-1 $241 $328 #
straight-curve $-1 58.366039002655114 0 -8.151312996674454 0 -1 0 I I #
coedge $-1 $221 $223 $148 $233 reversed $141 $-1 #
edge $-1 $236 -32.452137558567244 $239 32.452137558567244 $232 $329 forward 7 unknown #
coedge $-1 $227 $149 $154 $242 forward $219 $-1 #
coedge $-1 $149 $227 $221 $320 reversed $219 $-1 #
vertex $-1 $150 $330 #
straight-curve $-1 0 32.452137558567244 8.151312996674454 -1 0 0 I I #
coedge $-1 $151 $222 $153 $241 reversed $88 $-1 #
vertex $-1 $233 $331 #
straight-curve $-1 0 -32.452137558567244 8.151312996674454 1 0 0 I I #
edge $-1 $156 -8.151312996674454 $230 8.151312996674454 $153 $332 forward 7 unknown #
edge $-1 $157 -8.151312996674454 $229 8.151312996674454 $154 $333 forward 7 unknown #
point $-1 58.366039002655114 -32.452137558567244 8.151312996674454 #
point $-1 58.366039002655114 32.452137558567244 8.151312996674454 #
face $-1 $-1 $334 $22 $-1 $335 reversed single #
loop $-1 $-1 $336 $159 #
plane-surface $-1 0 0 -8.151312996674454 0 0 1 1 0 0 forward_v I I I I #
coedge $-1 $255 $265 $250 $337 forward $160 $-1 #
coedge $-1 $165 $162 $336 $338 reversed $96 $-1 #
coedge $-1 $162 $165 $248 $337 reversed $96 $-1 #
coedge $-1 $339 $340 $162 $252 forward $334 $-1 #
edge $-1 $341 -8.151312996674454 $342 8.151312996674454 $251 $343 forward 7 unknown #
coedge $-1 $336 $168 $163 $254 forward $246 $-1 #
edge $-1 $173 -29.286969381287864 $258 -24.863662505654805 $253 $344 forward 7 unknown #
coedge $-1 $170 $248 $164 $256 forward $160 $-1 #
edge $-1 $257 24.863662505654805 $172 29.286969381287864 $255 $345 forward 7 unknown #
vertex $-1 $256 $346 #
vertex $-1 $254 $347 #
straight-curve $-1 -51.938978449126139 -26.127383375693938 0 0 0 -1 I I #
coedge $-1 $340 $339 $167 $261 forward $334 $-1 #
edge $-1 $266 -8.151312996674454 $263 8.151312996674454 $260 $348 forward 7 unknown #
coedge $-1 $168 $336 $340 $349 forward $246 $-1 #
vertex $-1 $169 $350 #
straight-curve $-1 -56.362285324759199 -14.644880233565296 -8.151312996674454 0 1 0 I I #
coedge $-1 $248 $170 $339 $351 forward $160 $-1 #
vertex $-1 $351 $352 #
straight-curve $-1 -56.362285324759199 -14.644880233565296 8.151312996674454 0 -1 0 I I #
point $-1 -56.362285324759199 -26.127383375693938 8.151312996674454 #
point $-1 -56.362285324759199 -26.127383375693938 -8.151312996674454 #
plane-surface $-1 0 0 8.151312996674454 0 0 1 1 0 0 forward_v I I I I #
coedge $-1 $281 $280 $273 $353 forward $176 $-1 #
coedge $-1 $273 $178 $180 $277 reversed $104 $-1 #
coedge $-1 $178 $272 $271 $353 reversed $104 $-1 #
coedge $-1 $186 $181 $178 $275 forward $187 $-1 #
edge $-1 $278 -10.363629698798704 $354 -1.746269351552769 $274 $355 forward 7 unknown #
coedge $-1 $180 $179 $281 $356 reversed $65 $-1 #
edge $-1 $357 -8.3790584163743152e-015 $278 10.161405267849554 $272 $358 forward 7 unknown #
vertex $-1 $182 $359 #
straight-curve $-1 -49.748678655409179 -0.99437791239328455 8.151312996674454 0 1 0 I I #
coedge $-1 $271 $183 $186 $285 reversed $176 $-1 #
coedge $-1 $183 $271 $276 $356 forward $176 $-1 #
vertex $-1 $184 $360 #
straight-curve $-1 -58.366039002655114 -9.0862478069445061 50.880502262435442 0 0 1 I I #
straight-curve $-1 -58.366039002655107 -9.0862478069445061 2.7665885224609212 -0.84804809178421925 0 -0.52991927123019833 I I #
edge $-1 $354 -5.1087361573713679 $188 9.0862478069445061 $280 $361 forward 7 unknown #
point $-1 -58.366039002655114 -9.0862478069445061 8.151312996674454 #
point $-1 -49.748678655409179 -9.0862478069445061 8.151312996674454 #
edge $-1 $362 1 $362 0 $191 $-1 forward 7 unknown #
vertex $-1 $192 $363 #
ellipse-curve $-1 -52.226155971247465 -5.0305381028542584 2.5284136503793881 -0.52991927123019833 0 0.84804809178421925 1.2720721376763289 0 0.79487890684529749 1 I I #
point $-1 -52.785286691355829 -5.0305381028542584 6.2538296664129858 #
edge $-1 $364 1 $364 0 $195 $-1 forward 7 unknown #
vertex $-1 $196 $365 #
ellipse-curve $-1 -52.226155971247465 1.0530264532811131 2.5284136503793881 -0.52991927123019833 0 0.84804809178421925 1.2720721376763289 0 0.79487890684529749 1 I I #
point $-1 -52.785286691355829 1.0530264532811131 6.2538296664129858 #
loop $-1 $-1 $207 $199 #
plane-surface $-1 58.366039002655114 0 0 -1 0 0 0 0 1 forward_v I I I I #
coedge $-1 $299 $202 $204 $303 reversed $126 $-1 #
coedge $-1 $202 $298 $366 $367 reversed $126 $-1 #
coedge $-1 $210 $205 $202 $301 forward $200 $-1 #
edge $-1 $304 43.576493083946048 $368 49.151746597704602 $300 $369 forward 7 unknown #
coedge $-1 $204 $203 $307 $370 reversed $79 $-1 #
edge $-1 $371 -116.73207800531023 $304 -110.22780102697993 $298 $372 forward 7 unknown #
vertex $-1 $206 $373 #
straight-curve $-1 52.79078548889656 2.3060313561441177 8.1513129966744557 0 -1 0 I I #
coedge $-1 $366 $207 $210 $311 reversed $296 $-1 #
coedge $-1 $207 $366 $302 $370 forward $296 $-1 #
vertex $-1 $208 $374 #
straight-curve $-1 58.366039002655114 12.37784096057632 82.490873961495723 0 0 1 I I #
straight-curve $-1 -41.69288072596207 12.37784096057632 64.922828194374262 0.85716729658548041 0 -0.51503808176128008 I I #
edge $-1 $368 -3.153715535999849 $211 12.37784096057632 $306 $375 forward 7 unknown #
point $-1 58.366039002655114 12.37784096057632 8.151312996674454 #
point $-1 52.79078548889656 12.37784096057632 8.1513129966744557 #
edge $-1 $376 1 $376 0 $214 $-1 forward 7 unknown #
vertex $-1 $215 $377 #
ellipse-curve $-1 52.961026343622798 4.6120627122882354 2.120276252112415 0.51503808176128008 0 0.85716729658548041 1.2857509448782207 0 -0.77255712264192011 1 I I #
point $-1 56.864163190654025 4.6120627122882354 5.7037807049508835 #
plane-surface $-1 58.366039002655114 0 0 -1 0 0 0 0 1 forward_v I I I I #
coedge $-1 $223 $221 $225 $323 reversed $141 $-1 #
edge $-1 $236 -8.151312996674454 $325 8.151312996674454 $235 $378 forward 7 unknown #
vertex $-1 $323 $379 #
straight-curve $-1 -58.366039002655114 -32.452137558567244 0 0 0 -1 I I #
edge $-1 $321 -32.452137558567244 $325 32.452137558567244 $319 $380 forward 7 unknown #
straight-curve $-1 0 -32.452137558567244 -8.151312996674454 -1 0 0 I I #
vertex $-1 $228 $381 #
straight-curve $-1 0 32.452137558567244 -8.151312996674454 1 0 0 I I #
point $-1 58.366039002655114 32.452137558567244 -8.151312996674454 #
point $-1 58.366039002655114 -32.452137558567244 -8.151312996674454 #
straight-curve $-1 -58.366039002655114 0 8.151312996674454 0 -1 0 I I #
point $-1 -58.366039002655114 32.452137558567244 8.151312996674454 #
point $-1 -58.366039002655114 -32.452137558567244 8.151312996674454 #
straight-curve $-1 58.366039002655114 -32.452137558567244 0 0 0 -1 I I #
straight-curve $-1 58.366039002655114 32.452137558567244 0 0 0 -1 I I #
loop $-1 $-1 $251 $245 #
plane-surface $-1 0 -32.452137558567244 0 0 1 0 0 0 1 forward_v I I I I #
coedge $-1 $262 $253 $249 $338 forward $246 $-1 #
edge $-1 $342 -17.807257325001949 $257 -11.482503142128643 $248 $382 forward 7 unknown #
edge $-1 $258 11.482503142128643 $341 17.807257325001949 $336 $383 forward 7 unknown #
coedge $-1 $260 $251 $265 $351 reversed $334 $-1 #
coedge $-1 $251 $260 $262 $349 reversed $334 $-1 #
vertex $-1 $349 $384 #
vertex $-1 $252 $385 #
straight-curve $-1 -51.938978449126139 -32.452137558567244 0 0 0 1 I I #
straight-curve $-1 -27.075315943471335 -26.127383375693938 -8.151312996674454 1 0 0 I I #
straight-curve $-1 -27.075315943471335 -26.127383375693938 8.151312996674454 -1 0 0 I I #
point $-1 -51.938978449126139 -26.127383375693938 8.151312996674454 #
point $-1 -51.938978449126139 -26.127383375693938 -8.151312996674454 #
straight-curve $-1 -56.362285324759199 -32.452137558567244 0 0 0 -1 I I #
edge $-1 $341 51.938978449126139 $263 56.362285324759199 $340 $386 forward 7 unknown #
point $-1 -56.362285324759199 -32.452137558567244 -8.151312996674454 #
edge $-1 $266 -56.362285324759199 $342 -51.938978449126139 $339 $387 forward 7 unknown #
point $-1 -56.362285324759199 -32.452137558567244 8.151312996674454 #
edge $-1 $354 42.729189265760986 $357 48.113913739974528 $271 $388 forward 7 unknown #
vertex $-1 $285 $389 #
straight-curve $-1 -60.112308354207883 5.1087361573713679 8.1513129966744557 -1 0 0 I I #
edge $-1 $357 -6.1031140697646524 $282 8.0918698945512215 $281 $390 forward 7 unknown #
vertex $-1 $356 $391 #
straight-curve $-1 -58.366039002655107 5.1087361573713679 2.7665885224609212 0.84804809178421925 0 0.52991927123019833 I I #
point $-1 -49.748678655409179 5.1087361573713679 8.151312996674454 #
point $-1 -58.366039002655114 -9.0862478069445061 2.7665885224609168 #
straight-curve $-1 -58.366039002655114 0 8.151312996674454 0 -1 0 I I #
vertex $-1 $288 $392 #
point $-1 -50.954083833571133 -5.0305381028542584 3.3232925572246859 #
vertex $-1 $292 $393 #
point $-1 -50.954083833571133 1.0530264532811131 3.3232925572246859 #
coedge $-1 $307 $306 $299 $367 forward $296 $-1 #
edge $-1 $368 74.339560964821274 $371 77.689511302984556 $366 $394 forward 7 unknown #
vertex $-1 $311 $395 #
straight-curve $-1 9.2142924049505126 -3.153715535999849 8.1513129966744486 1 0 0 I I #
edge $-1 $371 -5.4597468921439667 $308 10.071809604432202 $307 $396 forward 7 unknown #
vertex $-1 $370 $397 #
straight-curve $-1 -41.69288072596207 -3.153715535999849 64.922828194374262 -0.85716729658548041 0 0.51503808176128008 I I #
point $-1 52.79078548889656 -3.153715535999849 8.1513129966744557 #
point $-1 58.366039002655114 12.37784096057632 4.8013626585111666 #
straight-curve $-1 58.366039002655114 0 8.151312996674454 0 1 0 I I #
vertex $-1 $314 $398 #
point $-1 54.246777288501022 4.6120627122882354 1.3477191294704951 #
straight-curve $-1 -58.366039002655114 32.452137558567244 0 0 0 -1 I I #
point $-1 -58.366039002655114 -32.452137558567244 -8.151312996674454 #
straight-curve $-1 -58.366039002655114 0 -8.151312996674454 0 1 0 I I #
point $-1 -58.366039002655114 32.452137558567244 -8.151312996674454 #
straight-curve $-1 -51.938978449126139 -14.644880233565296 8.151312996674454 0 1 0 I I #
straight-curve $-1 -51.938978449126139 -14.644880233565296 -8.151312996674454 0 -1 0 I I #
point $-1 -51.938978449126139 -32.452137558567244 -8.151312996674454 #
point $-1 -51.938978449126139 -32.452137558567244 8.151312996674454 #
straight-curve $-1 0 -32.452137558567244 -8.151312996674454 -1 0 0 I I #
straight-curve $-1 0 -32.452137558567244 8.151312996674454 1 0 0 I I #
straight-curve $-1 -58.366039002655114 5.1087361573713679 50.880502262435442 0 0 -1 I I #
point $-1 -58.366039002655114 5.1087361573713679 8.151312996674454 #
straight-curve $-1 -58.366039002655114 -0.99437791239328455 2.7665885224609208 0 -1 0 I I #
point $-1 -58.366039002655114 5.1087361573713679 2.7665885224609168 #
point $-1 -51.431277064402167 -5.0305381028542584 1.2563415127030595 #
point $-1 -51.431277064402167 1.0530264532811131 1.2563415127030595 #
straight-curve $-1 58.366039002655114 -3.153715535999849 82.490873961495723 0 0 -1 I I #
point $-1 58.366039002655114 -3.153715535999849 8.151312996674454 #
straight-curve $-1 58.366039002655114 2.3060313561441177 4.8013626585111666 0 1 0 I I #
point $-1 58.366039002655114 -3.153715535999849 4.8013626585111666 #
point $-1 52.188469220980885 4.6120627122882354 0.83452530723419449 #
End-of-ACIS-data 