500 0 3 0           
7 Unknown 11 ACIS 5.0 NT 24 Fri Mar 26 18:25:58 1999 
-1 9.9999999999999995e-007 1e-010 
body $-1 $3 $-1 $4 #
body $-1 $5 $-1 $6 #
body $-1 $7 $-1 $8 #
lump $-1 $-1 $9 $0 #
transform $-1 1 0 0 0 1 0 0 0 1 53.586840418713948 29.302272770969239 8.1276762148963329 1 rotate no_reflect no_shear #
lump $-1 $-1 $10 $1 #
transform $-1 1 0 0 0 1 0 0 0 1 53.586840418713948 29.302272770969239 8.1276762148963329 1 rotate no_reflect no_shear #
lump $-1 $-1 $11 $2 #
transform $-1 1 0 0 0 1 0 0 0 1 53.586840418713948 29.302272770969239 8.1276762148963329 1 rotate no_reflect no_shear #
shell $-1 $-1 $-1 $12 $-1 $3 #
shell $-1 $-1 $-1 $13 $-1 $5 #
shell $-1 $-1 $-1 $14 $-1 $7 #
face $-1 $15 $16 $9 $-1 $17 forward single #
face $-1 $18 $19 $10 $-1 $20 reversed single #
face $-1 $21 $22 $11 $-1 $23 reversed single #
face $-1 $24 $25 $9 $-1 $26 reversed single #
loop $-1 $-1 $27 $12 #
plane-surface $-1 0 0 8.1276762148963329 0 0 1 1 0 0 forward_v I I I I #
face $-1 $28 $29 $10 $-1 $30 reversed single #
loop $-1 $-1 $31 $13 #
plane-surface $-1 0 -26.461668909272085 5.1276762148963329 0 0 1 1 0 0 forward_v I I I I #
face $-1 $32 $33 $11 $-1 $34 reversed single #
loop $-1 $-1 $35 $14 #
plane-surface $-1 0 26.461668909272085 5.1276762148963329 0 0 1 1 0 0 forward_v I I I I #
face $-1 $36 $37 $9 $-1 $38 reversed single #
loop $-1 $-1 $39 $15 #
plane-surface $-1 0 0 -8.1276762148963329 0 0 1 1 0 0 forward_v I I I I #
coedge $-1 $40 $41 $42 $43 forward $16 $-1 #
face $-1 $44 $45 $10 $-1 $46 reversed single #
loop $-1 $-1 $47 $18 #
plane-surface $-1 0 -23.62106504757493 6.6276762148963329 0 -1 0 0 0 -1 forward_v I I I I #
coedge $-1 $48 $49 $50 $51 reversed $19 $-1 #
face $-1 $52 $53 $11 $-1 $54 forward single #
loop $-1 $-1 $55 $21 #
plane-surface $-1 0 23.62106504757493 6.6276762148963329 0 1 0 0 0 1 forward_v I I I I #
coedge $-1 $56 $57 $58 $59 reversed $22 $-1 #
face $-1 $60 $61 $9 $-1 $62 reversed single #
loop $-1 $-1 $63 $24 #
plane-surface $-1 0 -29.302272770969239 0 0 1 0 0 0 1 forward_v I I I I #
coedge $-1 $64 $65 $66 $67 forward $25 $-1 #
coedge $-1 $68 $27 $69 $70 forward $16 $-1 #
coedge $-1 $27 $68 $71 $72 forward $16 $-1 #
coedge $-1 $73 $74 $27 $43 reversed $75 $-1 #
edge $-1 $76 -29.302272770969239 $77 29.302272770969239 $42 $78 forward 7 unknown #
face $-1 $79 $80 $10 $-1 $81 reversed single #
loop $-1 $-1 $82 $28 #
plane-surface $-1 -53.586840418713948 0 0 1 0 0 0 0 -1 forward_v I I I I #
coedge $-1 $83 $84 $85 $86 reversed $29 $-1 #
coedge $-1 $87 $31 $88 $89 reversed $19 $-1 #
coedge $-1 $31 $87 $83 $90 forward $19 $-1 #
coedge $-1 $85 $91 $31 $51 forward $92 $-1 #
edge $-1 $93 -16.071438316333197 $94 -10.390230592938888 $50 $95 forward 7 unknown #
face $-1 $96 $97 $11 $-1 $98 reversed single #
loop $-1 $-1 $99 $32 #
plane-surface $-1 0 0 8.1276762148963329 0 0 1 1 0 0 forward_v I I I I #
coedge $-1 $100 $101 $102 $103 reversed $33 $-1 #
coedge $-1 $104 $35 $100 $105 forward $22 $-1 #
coedge $-1 $35 $104 $106 $107 reversed $22 $-1 #
coedge $-1 $108 $109 $35 $59 forward $97 $-1 #
edge $-1 $110 10.390230592938888 $111 16.071438316333197 $58 $112 forward 7 unknown #
face $-1 $113 $114 $9 $-1 $115 reversed single #
loop $-1 $-1 $116 $36 #
plane-surface $-1 -53.586840418713948 0 0 1 0 0 0 0 -1 forward_v I I I I #
coedge $-1 $117 $71 $118 $119 forward $37 $-1 #
coedge $-1 $120 $39 $117 $121 forward $25 $-1 #
coedge $-1 $39 $120 $122 $123 forward $25 $-1 #
coedge $-1 $74 $73 $39 $67 reversed $75 $-1 #
edge $-1 $124 -29.302272770969239 $125 29.302272770969239 $66 $126 forward 7 unknown #
coedge $-1 $41 $40 $127 $128 forward $16 $-1 #
coedge $-1 $129 $130 $40 $70 reversed $114 $-1 #
edge $-1 $77 -53.586840418713948 $131 53.586840418713948 $69 $132 forward 7 unknown #
coedge $-1 $63 $133 $41 $72 reversed $37 $-1 #
edge $-1 $134 -53.586840418713948 $76 53.586840418713948 $71 $135 forward 7 unknown #
coedge $-1 $66 $42 $133 $136 forward $75 $-1 #
coedge $-1 $42 $66 $129 $137 reversed $75 $-1 #
loop $-1 $-1 $73 $113 #
vertex $-1 $43 $138 #
vertex $-1 $43 $139 #
straight-curve $-1 53.586840418713948 0 8.1276762148963329 0 1 0 I I #
face $-1 $140 $141 $10 $-1 $142 forward single #
loop $-1 $-1 $88 $44 #
plane-surface $-1 0 -29.302272770969239 0 0 1 0 0 0 1 forward_v I I I I #
coedge $-1 $143 $144 $145 $146 forward $45 $-1 #
coedge $-1 $145 $47 $49 $90 reversed $29 $-1 #
coedge $-1 $47 $145 $147 $148 reversed $29 $-1 #
coedge $-1 $149 $50 $47 $86 forward $92 $-1 #
edge $-1 $94 1.8138381074481664 $150 4.8138381074481664 $85 $151 forward 7 unknown #
coedge $-1 $49 $48 $143 $152 reversed $19 $-1 #
coedge $-1 $153 $154 $48 $89 forward $80 $-1 #
edge $-1 $155 -53.586840418713948 $93 53.586840418713948 $88 $156 forward 7 unknown #
edge $-1 $157 -53.586840418713948 $94 53.586840418713948 $83 $158 forward 7 unknown #
coedge $-1 $50 $149 $153 $159 forward $92 $-1 #
loop $-1 $-1 $85 $140 #
vertex $-1 $89 $160 #
vertex $-1 $51 $161 #
straight-curve $-1 53.586840418713948 -13.230834454636042 5.1276762148963329 0 1 0 I I #
face $-1 $162 $163 $11 $-1 $164 reversed single #
loop $-1 $-1 $109 $52 #
plane-surface $-1 53.586840418713948 0 0 -1 0 0 0 0 1 forward_v I I I I #
coedge $-1 $165 $166 $101 $167 forward $53 $-1 #
coedge $-1 $168 $55 $56 $105 reversed $33 $-1 #
coedge $-1 $55 $168 $99 $167 reversed $33 $-1 #
coedge $-1 $169 $170 $55 $103 forward $163 $-1 #
edge $-1 $171 1.8138381074481664 $172 4.8138381074481664 $102 $173 forward 7 unknown #
coedge $-1 $57 $56 $170 $174 reversed $22 $-1 #
edge $-1 $110 -53.586840418713948 $171 53.586840418713948 $100 $175 forward 7 unknown #
coedge $-1 $176 $177 $57 $107 forward $178 $-1 #
edge $-1 $111 -53.586840418713948 $179 53.586840418713948 $106 $180 forward 7 unknown #
coedge $-1 $181 $58 $177 $182 reversed $97 $-1 #
coedge $-1 $58 $181 $168 $183 forward $97 $-1 #
vertex $-1 $59 $184 #
vertex $-1 $107 $185 #
straight-curve $-1 53.586840418713948 13.230834454636042 5.1276762148963329 0 1 0 I I #
face $-1 $-1 $75 $9 $-1 $186 reversed single #
loop $-1 $-1 $129 $60 #
plane-surface $-1 0 29.302272770969239 0 0 -1 0 0 0 -1 forward_v I I I I #
coedge $-1 $187 $127 $130 $188 forward $61 $-1 #
coedge $-1 $133 $63 $64 $121 reversed $37 $-1 #
coedge $-1 $127 $187 $63 $119 reversed $61 $-1 #
edge $-1 $134 -8.1276762148963329 $189 8.1276762148963329 $118 $190 forward 7 unknown #
coedge $-1 $65 $64 $187 $191 forward $25 $-1 #
edge $-1 $125 -53.586840418713948 $189 53.586840418713948 $117 $192 forward 7 unknown #
coedge $-1 $130 $129 $65 $123 reversed $114 $-1 #
edge $-1 $193 -53.586840418713948 $124 53.586840418713948 $122 $194 forward 7 unknown #
vertex $-1 $67 $195 #
vertex $-1 $136 $196 #
straight-curve $-1 53.586840418713948 0 -8.1276762148963329 0 -1 0 I I #
coedge $-1 $116 $118 $68 $128 reversed $61 $-1 #
edge $-1 $131 -29.302272770969239 $134 29.302272770969239 $127 $197 forward 7 unknown #
coedge $-1 $122 $69 $74 $137 forward $114 $-1 #
coedge $-1 $69 $122 $116 $188 reversed $114 $-1 #
vertex $-1 $70 $198 #
straight-curve $-1 0 29.302272770969239 8.1276762148963329 -1 0 0 I I #
coedge $-1 $71 $117 $73 $136 reversed $37 $-1 #
vertex $-1 $128 $199 #
straight-curve $-1 0 -29.302272770969239 8.1276762148963329 1 0 0 I I #
edge $-1 $76 -8.1276762148963329 $125 8.1276762148963329 $73 $200 forward 7 unknown #
edge $-1 $77 -8.1276762148963329 $124 8.1276762148963329 $74 $201 forward 7 unknown #
point $-1 53.586840418713948 -29.302272770969239 8.1276762148963329 #
point $-1 53.586840418713948 29.302272770969239 8.1276762148963329 #
face $-1 $-1 $92 $10 $-1 $202 reversed single #
loop $-1 $-1 $147 $79 #
plane-surface $-1 0 0 8.1276762148963329 0 0 1 1 0 0 forward_v I I I I #
coedge $-1 $203 $82 $87 $152 forward $45 $-1 #
coedge $-1 $82 $203 $204 $205 reversed $45 $-1 #
coedge $-1 $84 $83 $82 $146 reversed $29 $-1 #
edge $-1 $206 -4.8138381074481664 $157 -1.8138381074481664 $82 $207 forward 7 unknown #
coedge $-1 $204 $208 $84 $148 forward $141 $-1 #
edge $-1 $150 -53.586840418713948 $206 53.586840418713948 $147 $209 forward 7 unknown #
coedge $-1 $91 $85 $208 $210 reversed $92 $-1 #
vertex $-1 $86 $211 #
straight-curve $-1 53.586840418713948 -23.62106504757493 3.3138381074481664 0 0 1 I I #
edge $-1 $157 10.390230592938888 $155 16.071438316333197 $143 $212 forward 7 unknown #
coedge $-1 $213 $88 $91 $159 reversed $80 $-1 #
coedge $-1 $88 $213 $203 $214 forward $80 $-1 #
vertex $-1 $89 $215 #
straight-curve $-1 0 -29.302272770969239 5.1276762148963329 1 0 0 I I #
vertex $-1 $152 $216 #
straight-curve $-1 0 -23.62106504757493 5.1276762148963329 1 0 0 I I #
edge $-1 $217 -8.1276762148963329 $93 -5.1276762148963329 $91 $218 forward 7 unknown #
point $-1 53.586840418713948 -29.302272770969239 5.1276762148963329 #
point $-1 53.586840418713948 -23.62106504757493 5.1276762148963329 #
face $-1 $-1 $178 $11 $-1 $219 reversed single #
loop $-1 $-1 $102 $96 #
plane-surface $-1 -53.586840418713948 0 0 1 0 0 0 0 -1 forward_v I I I I #
coedge $-1 $220 $99 $181 $221 forward $53 $-1 #
coedge $-1 $99 $220 $169 $222 forward $53 $-1 #
edge $-1 $172 -53.586840418713948 $223 53.586840418713948 $99 $224 forward 7 unknown #
coedge $-1 $101 $100 $109 $183 reversed $33 $-1 #
coedge $-1 $225 $102 $166 $222 reversed $163 $-1 #
coedge $-1 $102 $225 $104 $174 forward $163 $-1 #
vertex $-1 $174 $226 #
vertex $-1 $103 $227 #
straight-curve $-1 -53.586840418713948 23.62106504757493 3.3138381074481664 0 0 1 I I #
edge $-1 $179 -16.071438316333197 $171 -10.390230592938888 $170 $228 forward 7 unknown #
straight-curve $-1 0 23.62106504757493 5.1276762148963329 -1 0 0 I I #
coedge $-1 $229 $106 $225 $230 reversed $178 $-1 #
coedge $-1 $106 $229 $108 $182 forward $178 $-1 #
loop $-1 $-1 $106 $162 #
vertex $-1 $107 $231 #
straight-curve $-1 0 29.302272770969239 5.1276762148963329 -1 0 0 I I #
coedge $-1 $109 $108 $165 $221 reversed $97 $-1 #
edge $-1 $232 -8.1276762148963329 $111 -5.1276762148963329 $108 $233 forward 7 unknown #
edge $-1 $223 -4.8138381074481664 $110 -1.8138381074481664 $109 $234 forward 7 unknown #
point $-1 53.586840418713948 23.62106504757493 5.1276762148963329 #
point $-1 53.586840418713948 29.302272770969239 5.1276762148963329 #
plane-surface $-1 53.586840418713948 0 0 -1 0 0 0 0 1 forward_v I I I I #
coedge $-1 $118 $116 $120 $191 reversed $61 $-1 #
edge $-1 $131 -8.1276762148963329 $193 8.1276762148963329 $130 $235 forward 7 unknown #
vertex $-1 $191 $236 #
straight-curve $-1 -53.586840418713948 -29.302272770969239 0 0 0 -1 I I #
edge $-1 $189 -29.302272770969239 $193 29.302272770969239 $187 $237 forward 7 unknown #
straight-curve $-1 0 -29.302272770969239 -8.1276762148963329 -1 0 0 I I #
vertex $-1 $123 $238 #
straight-curve $-1 0 29.302272770969239 -8.1276762148963329 1 0 0 I I #
point $-1 53.586840418713948 29.302272770969239 -8.1276762148963329 #
point $-1 53.586840418713948 -29.302272770969239 -8.1276762148963329 #
straight-curve $-1 -53.586840418713948 0 8.1276762148963329 0 -1 0 I I #
point $-1 -53.586840418713948 29.302272770969239 8.1276762148963329 #
point $-1 -53.586840418713948 -29.302272770969239 8.1276762148963329 #
straight-curve $-1 53.586840418713948 -29.302272770969239 0 0 0 -1 I I #
straight-curve $-1 53.586840418713948 29.302272770969239 0 0 0 -1 I I #
plane-surface $-1 53.586840418713948 0 0 -1 0 0 0 0 1 forward_v I I I I #
coedge $-1 $144 $143 $154 $214 reversed $45 $-1 #
coedge $-1 $239 $147 $144 $205 forward $141 $-1 #
edge $-1 $206 23.62106504757493 $240 29.302272770969239 $144 $241 forward 7 unknown #
vertex $-1 $205 $242 #
straight-curve $-1 -53.586840418713948 -23.62106504757493 3.3138381074481664 0 0 -1 I I #
coedge $-1 $147 $239 $149 $210 forward $141 $-1 #
straight-curve $-1 0 -23.62106504757493 8.1276762148963329 -1 0 0 I I #
edge $-1 $217 -29.302272770969239 $150 -23.62106504757493 $149 $243 forward 7 unknown #
point $-1 53.586840418713948 -23.62106504757493 8.1276762148963329 #
straight-curve $-1 -53.586840418713948 -13.230834454636042 5.1276762148963329 0 -1 0 I I #
coedge $-1 $154 $153 $239 $244 reversed $80 $-1 #
edge $-1 $240 -8.1276762148963329 $155 -5.1276762148963329 $203 $245 forward 7 unknown #
point $-1 -53.586840418713948 -29.302272770969239 5.1276762148963329 #
point $-1 -53.586840418713948 -23.62106504757493 5.1276762148963329 #
vertex $-1 $210 $246 #
straight-curve $-1 53.586840418713948 -29.302272770969239 0 0 0 -1 I I #
plane-surface $-1 0 29.302272770969239 0 0 -1 0 0 0 -1 forward_v I I I I #
coedge $-1 $166 $165 $229 $247 forward $53 $-1 #
edge $-1 $223 23.62106504757493 $232 29.302272770969239 $181 $248 forward 7 unknown #
edge $-1 $249 -29.302272770969239 $172 -23.62106504757493 $169 $250 forward 7 unknown #
vertex $-1 $221 $251 #
straight-curve $-1 0 23.62106504757493 8.1276762148963329 1 0 0 I I #
coedge $-1 $170 $169 $176 $230 forward $163 $-1 #
point $-1 -53.586840418713948 23.62106504757493 5.1276762148963329 #
point $-1 -53.586840418713948 23.62106504757493 8.1276762148963329 #
straight-curve $-1 -53.586840418713948 13.230834454636042 5.1276762148963329 0 -1 0 I I #
coedge $-1 $177 $176 $220 $247 reversed $178 $-1 #
edge $-1 $249 -8.1276762148963329 $179 -5.1276762148963329 $176 $252 forward 7 unknown #
point $-1 -53.586840418713948 29.302272770969239 5.1276762148963329 #
vertex $-1 $221 $253 #
straight-curve $-1 53.586840418713948 29.302272770969239 0 0 0 -1 I I #
straight-curve $-1 53.586840418713948 23.62106504757493 3.3138381074481664 0 0 -1 I I #
straight-curve $-1 -53.586840418713948 29.302272770969239 0 0 0 -1 I I #
point $-1 -53.586840418713948 -29.302272770969239 -8.1276762148963329 #
straight-curve $-1 -53.586840418713948 0 -8.1276762148963329 0 1 0 I I #
point $-1 -53.586840418713948 29.302272770969239 -8.1276762148963329 #
coedge $-1 $208 $204 $213 $244 forward $141 $-1 #
vertex $-1 $205 $254 #
straight-curve $-1 -53.586840418713948 0 8.1276762148963329 0 -1 0 I I #
point $-1 -53.586840418713948 -23.62106504757493 8.1276762148963329 #
straight-curve $-1 53.586840418713948 0 8.1276762148963329 0 1 0 I I #
edge $-1 $240 -53.586840418713948 $217 53.586840418713948 $213 $255 forward 7 unknown #
straight-curve $-1 -53.586840418713948 -29.302272770969239 0 0 0 -1 I I #
point $-1 53.586840418713948 -29.302272770969239 8.1276762148963329 #
edge $-1 $232 -53.586840418713948 $249 53.586840418713948 $229 $256 forward 7 unknown #
straight-curve $-1 53.586840418713948 0 8.1276762148963329 0 1 0 I I #
vertex $-1 $247 $257 #
straight-curve $-1 -53.586840418713948 0 8.1276762148963329 0 -1 0 I I #
point $-1 53.586840418713948 23.62106504757493 8.1276762148963329 #
straight-curve $-1 -53.586840418713948 29.302272770969239 0 0 0 -1 I I #
point $-1 53.586840418713948 29.302272770969239 8.1276762148963329 #
point $-1 -53.586840418713948 -29.302272770969239 8.1276762148963329 #
straight-curve $-1 0 -29.302272770969239 8.1276762148963329 1 0 0 I I #
straight-curve $-1 0 29.302272770969239 8.1276762148963329 -1 0 0 I I #
point $-1 -53.586840418713948 29.302272770969239 8.1276762148963329 #
End-of-ACIS-data 