500 0 15 0           
7 Unknown 11 ACIS 5.0 NT 24 Fri Mar 26 18:39:05 1999 
-1 9.9999999999999995e-007 1e-010 
body $-1 $15 $-1 $16 #
body $-1 $17 $-1 $18 #
body $-1 $19 $-1 $20 #
body $-1 $21 $-1 $22 #
body $-1 $23 $-1 $24 #
body $-1 $25 $-1 $26 #
body $-1 $27 $-1 $28 #
body $-1 $29 $-1 $30 #
body $-1 $31 $-1 $32 #
body $-1 $33 $-1 $34 #
body $-1 $35 $-1 $36 #
body $-1 $37 $-1 $38 #
body $-1 $39 $-1 $40 #
body $-1 $41 $-1 $42 #
body $-1 $43 $-1 $44 #
lump $-1 $-1 $45 $0 #
transform $-1 1 0 0 0 1 0 0 0 1 53.324381237220379 35.226769419697973 11.621275431777434 1 rotate no_reflect no_shear #
lump $-1 $-1 $46 $1 #
transform $-1 1 0 0 0 1 0 0 0 1 53.324381237220379 35.226769419697973 11.621275431777434 1 rotate no_reflect no_shear #
lump $-1 $-1 $47 $2 #
transform $-1 1 0 0 0 1 0 0 0 1 53.324381237220379 35.226769419697973 11.621275431777434 1 rotate no_reflect no_shear #
lump $-1 $-1 $48 $3 #
transform $-1 1 0 0 0 1 0 0 0 1 53.324381237220379 35.226769419697973 11.621275431777434 1 rotate no_reflect no_shear #
lump $-1 $-1 $49 $4 #
transform $-1 1 0 0 0 1 0 0 0 1 53.324381237220379 35.226769419697973 11.621275431777434 1 rotate no_reflect no_shear #
lump $-1 $-1 $50 $5 #
transform $-1 1 0 0 0 1 0 0 0 1 53.324381237220379 35.226769419697973 11.621275431777434 1 rotate no_reflect no_shear #
lump $-1 $-1 $51 $6 #
transform $-1 1 0 0 0 1 0 0 0 1 53.324381237220379 35.226769419697973 11.621275431777434 1 rotate no_reflect no_shear #
lump $-1 $-1 $52 $7 #
transform $-1 1 0 0 0 1 0 0 0 1 53.324381237220379 35.226769419697973 11.621275431777434 1 rotate no_reflect no_shear #
lump $-1 $-1 $53 $8 #
transform $-1 1 0 0 0 1 0 0 0 1 53.324381237220379 35.226769419697973 11.621275431777434 1 rotate no_reflect no_shear #
lump $-1 $-1 $54 $9 #
transform $-1 1 0 0 0 1 0 0 0 1 53.324381237220379 35.226769419697973 11.621275431777434 1 rotate no_reflect no_shear #
lump $-1 $-1 $55 $10 #
transform $-1 1 0 0 0 1 0 0 0 1 53.324381237220379 35.226769419697973 11.621275431777434 1 rotate no_reflect no_shear #
lump $-1 $-1 $56 $11 #
transform $-1 1 0 0 0 1 0 0 0 1 53.324381237220379 35.226769419697973 11.621275431777434 1 rotate no_reflect no_shear #
lump $-1 $-1 $57 $12 #
transform $-1 1 0 0 0 1 0 0 0 1 53.324381237220379 35.226769419697973 11.621275431777434 1 rotate no_reflect no_shear #
lump $-1 $-1 $58 $13 #
transform $-1 1 0 0 0 1 0 0 0 1 53.324381237220379 35.226769419697973 11.621275431777434 1 rotate no_reflect no_shear #
lump $-1 $-1 $59 $14 #
transform $-1 1 0 0 0 1 0 0 0 1 53.324381237220379 35.226769419697973 11.621275431777434 1 rotate no_reflect no_shear #
shell $-1 $-1 $-1 $60 $-1 $15 #
shell $-1 $-1 $-1 $61 $-1 $17 #
shell $-1 $-1 $-1 $62 $-1 $19 #
shell $-1 $-1 $-1 $63 $-1 $21 #
shell $-1 $-1 $-1 $64 $-1 $23 #
shell $-1 $-1 $-1 $65 $-1 $25 #
shell $-1 $-1 $-1 $66 $-1 $27 #
shell $-1 $-1 $-1 $67 $-1 $29 #
shell $-1 $-1 $-1 $68 $-1 $31 #
shell $-1 $-1 $-1 $69 $-1 $33 #
shell $-1 $-1 $-1 $70 $-1 $35 #
shell $-1 $-1 $-1 $71 $-1 $37 #
shell $-1 $-1 $-1 $72 $-1 $39 #
shell $-1 $-1 $-1 $73 $-1 $41 #
shell $-1 $-1 $-1 $74 $-1 $43 #
face $-1 $75 $76 $45 $-1 $77 reversed single #
face $-1 $78 $79 $46 $-1 $80 forward single #
face $-1 $81 $82 $47 $-1 $83 reversed single #
face $-1 $84 $85 $48 $-1 $86 reversed single #
face $-1 $87 $88 $49 $-1 $89 forward single #
face $-1 $90 $91 $50 $-1 $92 forward single #
face $-1 $93 $94 $51 $-1 $95 forward single #
face $-1 $96 $97 $52 $-1 $98 reversed single #
face $-1 $99 $100 $53 $-1 $101 forward single #
face $-1 $102 $103 $54 $-1 $104 forward single #
face $-1 $105 $106 $55 $-1 $107 forward single #
face $-1 $108 $109 $56 $-1 $110 reversed single #
face $-1 $111 $112 $57 $-1 $113 forward single #
face $-1 $114 $115 $58 $-1 $116 forward single #
face $-1 $117 $118 $59 $-1 $119 forward single #
face $-1 $120 $121 $45 $-1 $122 forward single #
loop $-1 $-1 $123 $60 #
plane-surface $-1 0 -35.226769419697973 0 0 1 0 0 0 1 forward_v I I I I #
face $-1 $124 $125 $46 $-1 $126 reversed single #
loop $-1 $-1 $127 $61 #
plane-surface $-1 0 -35.226769419697973 0 0 1 0 0 0 1 forward_v I I I I #
face $-1 $128 $129 $47 $-1 $130 reversed single #
loop $-1 $-1 $131 $62 #
plane-surface $-1 0 30.864955441573983 8.3407043239904866 0 0 1 1 0 0 forward_v I I I I #
face $-1 $132 $133 $48 $-1 $134 reversed single #
loop $-1 $-1 $135 $63 #
plane-surface $-1 -111.4094610778773 -7.8180602888926671 94.500911934273574 0 1 0 -0.54463904215088732 0 0.83867056331134215 forward_v I I I I #
face $-1 $136 $137 $49 $-1 $138 forward single #
loop $-1 $139 $140 $64 #
cone-surface $-1 -47.256541416815274 -5.6459618387059933 6.7775330581723896 0.54463904215088732 0 -0.83867056331134215 0.83867056331134215 0 0.54463904215088732 1 I I 0 1 1 forward I I I I #
face $-1 $141 $142 $50 $-1 $143 forward single #
loop $-1 $144 $145 $65 #
cone-surface $-1 -47.256541416815274 -2.3878141634259791 6.7775330581723896 0.54463904215088732 0 -0.83867056331134215 0.83867056331134215 0 0.54463904215088732 1 I I 0 1 1 forward I I I I #
face $-1 $146 $147 $51 $-1 $148 forward single #
loop $-1 $149 $150 $66 #
cone-surface $-1 -47.256541416815274 0.87033351185403518 6.7775330581723896 0.54463904215088732 0 -0.83867056331134215 0.83867056331134215 0 0.54463904215088732 1 I I 0 1 1 forward I I I I #
face $-1 $151 $152 $52 $-1 $153 reversed single #
loop $-1 $-1 $154 $67 #
plane-surface $-1 -111.4094610778773 15.642649212516609 94.500911934273574 0 1 0 -0.54463904215088732 0 0.83867056331134215 forward_v I I I I #
face $-1 $155 $156 $53 $-1 $157 forward single #
loop $-1 $158 $159 $68 #
cone-surface $-1 -47.256541416815274 17.814747662703283 6.7775330581723896 0.54463904215088732 0 -0.83867056331134215 0.83867056331134215 0 0.54463904215088732 1 I I 0 1 1 forward I I I I #
face $-1 $160 $161 $54 $-1 $162 forward single #
loop $-1 $163 $164 $69 #
cone-surface $-1 -47.256541416815274 21.072895337983297 6.7775330581723896 0.54463904215088732 0 -0.83867056331134215 0.83867056331134215 0 0.54463904215088732 1 I I 0 1 1 forward I I I I #
face $-1 $165 $166 $55 $-1 $167 forward single #
loop $-1 $168 $169 $70 #
cone-surface $-1 -47.256541416815274 24.331043013263312 6.7775330581723896 0.54463904215088732 0 -0.83867056331134215 0.83867056331134215 0 0.54463904215088732 1 I I 0 1 1 forward I I I I #
face $-1 $170 $171 $56 $-1 $172 reversed single #
loop $-1 $-1 $173 $71 #
plane-surface $-1 -10.858445056557372 21.335838653075669 86.074636221923114 0.79863551827123203 0 0.60181501223851219 0.60181501223851219 0 -0.79863551827123203 forward_v I I I I #
face $-1 $174 $175 $57 $-1 $176 forward single #
loop $-1 $177 $178 $72 #
cone-surface $-1 48.667143036159736 18.235456966851082 5.7954090634039606 -0.79863551827123203 0 -0.60181501223851219 0.3009075061192561 0 -0.39931775913561601 1 I I 0 1 0.5 forward I I I I #
face $-1 $179 $180 $58 $-1 $181 forward single #
loop $-1 $182 $183 $73 #
cone-surface $-1 48.667143036159736 21.335838653075669 5.7954090634039606 -0.79863551827123203 0 -0.60181501223851219 0.3009075061192561 0 -0.39931775913561601 1 I I 0 1 0.5 forward I I I I #
face $-1 $184 $185 $59 $-1 $186 forward single #
loop $-1 $187 $188 $74 #
cone-surface $-1 48.667143036159736 24.436220339300256 5.7954090634039606 -0.79863551827123203 0 -0.60181501223851219 0.3009075061192561 0 -0.39931775913561601 1 I I 0 1 0.5 forward I I I I #
face $-1 $189 $190 $45 $-1 $191 reversed single #
loop $-1 $-1 $192 $75 #
plane-surface $-1 0 0 11.621275431777434 0 0 1 1 0 0 forward_v I I I I #
coedge $-1 $193 $194 $195 $196 reversed $76 $-1 #
face $-1 $197 $198 $46 $-1 $199 reversed single #
loop $-1 $-1 $200 $78 #
plane-surface $-1 0 0 -11.621275431777434 0 0 1 1 0 0 forward_v I I I I #
coedge $-1 $201 $202 $203 $204 forward $79 $-1 #
face $-1 $205 $206 $47 $-1 $207 reversed single #
loop $-1 $-1 $208 $81 #
plane-surface $-1 0 26.503141463449989 9.9809898778839603 0 1 0 0 0 1 forward_v I I I I #
coedge $-1 $209 $210 $211 $212 reversed $82 $-1 #
face $-1 $213 $214 $48 $-1 $215 reversed single #
loop $-1 $-1 $216 $84 #
plane-surface $-1 -53.324381237220386 -2.3878141634259791 5.05773423337682 -0.54463904215088732 0 0.83867056331134215 0.83867056331134215 0 0.54463904215088732 forward_v I I I I #
coedge $-1 $217 $218 $219 $220 reversed $85 $-1 #
face $-1 $-1 $221 $49 $-1 $222 forward single #
loop $-1 $223 $224 $87 #
cone-surface $-1 -45.969865546186284 -5.6459618387059933 4.7962260021119931 0.54463904215088732 0 -0.83867056331134215 0.41933528165567108 0 0.27231952107544366 1 I I -0.70710678118654746 0.70710678118654746 0.5 forward I I I I #
loop $-1 $-1 $225 $64 #
coedge $-1 $140 $140 $226 $227 reversed $88 $-1 #
face $-1 $-1 $228 $50 $-1 $229 forward single #
loop $-1 $230 $231 $90 #
cone-surface $-1 -45.969865546186284 -2.3878141634259791 4.7962260021119931 0.54463904215088732 0 -0.83867056331134215 0.41933528165567108 0 0.27231952107544366 1 I I -0.70710678118654746 0.70710678118654746 0.5 forward I I I I #
loop $-1 $-1 $232 $65 #
coedge $-1 $145 $145 $233 $234 reversed $91 $-1 #
face $-1 $-1 $235 $51 $-1 $236 forward single #
loop $-1 $237 $238 $93 #
cone-surface $-1 -45.969865546186284 0.87033351185403518 4.7962260021119931 0.54463904215088732 0 -0.83867056331134215 0.41933528165567108 0 0.27231952107544366 1 I I -0.70710678118654746 0.70710678118654746 0.5 forward I I I I #
loop $-1 $-1 $239 $66 #
coedge $-1 $150 $150 $240 $241 reversed $94 $-1 #
face $-1 $242 $243 $52 $-1 $244 forward single #
loop $-1 $-1 $245 $96 #
plane-surface $-1 -53.324381237220386 21.072895337983297 5.05773423337682 -0.54463904215088732 0 0.83867056331134215 0.83867056331134215 0 0.54463904215088732 forward_v I I I I #
coedge $-1 $246 $247 $248 $249 reversed $97 $-1 #
face $-1 $-1 $250 $53 $-1 $251 forward single #
loop $-1 $252 $253 $99 #
cone-surface $-1 -45.969865546186284 17.814747662703283 4.7962260021119931 0.54463904215088732 0 -0.83867056331134215 0.41933528165567108 0 0.27231952107544366 1 I I -0.70710678118654746 0.70710678118654746 0.5 forward I I I I #
loop $-1 $-1 $254 $68 #
coedge $-1 $159 $159 $255 $256 reversed $100 $-1 #
face $-1 $-1 $257 $54 $-1 $258 forward single #
loop $-1 $259 $260 $102 #
cone-surface $-1 -45.969865546186284 21.072895337983297 4.7962260021119931 0.54463904215088732 0 -0.83867056331134215 0.41933528165567108 0 0.27231952107544366 1 I I -0.70710678118654746 0.70710678118654746 0.5 forward I I I I #
loop $-1 $-1 $261 $69 #
coedge $-1 $164 $164 $262 $263 reversed $103 $-1 #
face $-1 $-1 $264 $55 $-1 $265 forward single #
loop $-1 $266 $267 $105 #
cone-surface $-1 -45.969865546186284 24.331043013263312 4.7962260021119931 0.54463904215088732 0 -0.83867056331134215 0.41933528165567108 0 0.27231952107544366 1 I I -0.70710678118654746 0.70710678118654746 0.5 forward I I I I #
loop $-1 $-1 $268 $70 #
coedge $-1 $169 $169 $269 $270 reversed $106 $-1 #
face $-1 $271 $272 $56 $-1 $273 forward single #
loop $-1 $-1 $274 $108 #
plane-surface $-1 74.315044635203151 16.168535842701356 150.25746251570087 0 1 0 0.79863551827123203 0 0.60181501223851219 forward_v I I I I #
coedge $-1 $275 $276 $277 $278 reversed $109 $-1 #
face $-1 $-1 $279 $57 $-1 $280 forward single #
loop $-1 $281 $282 $111 #
cone-surface $-1 47.849344116410165 18.235456966851082 5.1791533927782751 -0.79863551827123203 0 -0.60181501223851219 0.15045375305962805 0 -0.19965887956780801 1 I I -0.70710678118654746 0.70710678118654746 0.25 forward I I I I #
loop $-1 $-1 $283 $72 #
coedge $-1 $178 $178 $284 $285 reversed $112 $-1 #
face $-1 $-1 $286 $58 $-1 $287 forward single #
loop $-1 $288 $289 $114 #
cone-surface $-1 47.849344116410165 21.335838653075669 5.1791533927782751 -0.79863551827123203 0 -0.60181501223851219 0.15045375305962805 0 -0.19965887956780801 1 I I -0.70710678118654746 0.70710678118654746 0.25 forward I I I I #
loop $-1 $-1 $290 $73 #
coedge $-1 $183 $183 $291 $292 reversed $115 $-1 #
face $-1 $-1 $293 $59 $-1 $294 forward single #
loop $-1 $295 $296 $117 #
cone-surface $-1 47.849344116410165 24.436220339300256 5.1791533927782751 -0.79863551827123203 0 -0.60181501223851219 0.15045375305962805 0 -0.19965887956780801 1 I I -0.70710678118654746 0.70710678118654746 0.25 forward I I I I #
loop $-1 $-1 $297 $74 #
coedge $-1 $188 $188 $298 $299 reversed $118 $-1 #
face $-1 $300 $301 $45 $-1 $302 reversed single #
loop $-1 $-1 $303 $120 #
plane-surface $-1 0 0 -11.621275431777434 0 0 1 1 0 0 forward_v I I I I #
coedge $-1 $304 $305 $306 $307 forward $121 $-1 #
coedge $-1 $308 $123 $309 $310 reversed $76 $-1 #
coedge $-1 $123 $308 $311 $312 forward $76 $-1 #
coedge $-1 $313 $303 $123 $196 forward $190 $-1 #
edge $-1 $314 -53.324381237220379 $315 53.324381237220379 $123 $316 forward 7 unknown #
face $-1 $317 $318 $46 $-1 $319 reversed single #
loop $-1 $-1 $320 $124 #
plane-surface $-1 -47.08075624860593 -50.035261300027386 0 0 1 0 0 0 1 forward_v I I I I #
coedge $-1 $321 $322 $202 $323 forward $125 $-1 #
coedge $-1 $324 $127 $325 $326 reversed $79 $-1 #
coedge $-1 $127 $324 $200 $323 reversed $79 $-1 #
coedge $-1 $327 $328 $127 $204 reversed $318 $-1 #
edge $-1 $329 -11.621275431777434 $330 11.621275431777434 $203 $331 forward 7 unknown #
face $-1 $332 $333 $47 $-1 $334 forward single #
loop $-1 $-1 $335 $128 #
plane-surface $-1 -53.324381237220379 0 0 1 0 0 0 0 -1 forward_v I I I I #
coedge $-1 $336 $337 $338 $339 reversed $129 $-1 #
coedge $-1 $340 $131 $341 $342 forward $82 $-1 #
coedge $-1 $131 $340 $343 $344 reversed $82 $-1 #
coedge $-1 $345 $346 $131 $212 forward $347 $-1 #
edge $-1 $348 11.070663742662997 $349 19.794291698910982 $211 $350 forward 7 unknown #
face $-1 $351 $352 $48 $-1 $353 forward single #
loop $-1 $-1 $354 $132 #
plane-surface $-1 -111.4094610778773 3.042431962040709 94.500911934273574 0 -1 0 0.54463904215088732 0 -0.83867056331134215 forward_v I I I I #
coedge $-1 $355 $356 $357 $358 reversed $133 $-1 #
coedge $-1 $218 $135 $359 $360 reversed $85 $-1 #
coedge $-1 $135 $217 $355 $361 reversed $85 $-1 #
coedge $-1 $357 $362 $135 $220 forward $352 $-1 #
edge $-1 $363 2.3803493017182689 $364 12.487316243421333 $219 $365 forward 7 unknown #
loop $-1 $-1 $226 $136 #
plane-surface $-1 -53.324381237220386 -2.3878141634259791 5.05773423337682 -0.54463904215088732 0 0.83867056331134215 0.83867056331134215 0 0.54463904215088732 forward_v I I I I #
loop $-1 $-1 $366 $87 #
coedge $-1 $224 $224 $225 $367 reversed $137 $-1 #
coedge $-1 $225 $225 $224 $367 forward $139 $-1 #
coedge $-1 $226 $226 $140 $227 forward $221 $-1 #
edge $-1 $368 0 $368 6.2831853071796004 $226 $369 forward 7 unknown #
loop $-1 $-1 $233 $141 #
plane-surface $-1 -53.324381237220386 -2.3878141634259791 5.05773423337682 -0.54463904215088732 0 0.83867056331134215 0.83867056331134215 0 0.54463904215088732 forward_v I I I I #
loop $-1 $-1 $370 $90 #
coedge $-1 $231 $231 $232 $371 reversed $142 $-1 #
coedge $-1 $232 $232 $231 $371 forward $144 $-1 #
coedge $-1 $233 $233 $145 $234 forward $228 $-1 #
edge $-1 $372 0 $372 6.2831853071796004 $233 $373 forward 7 unknown #
loop $-1 $-1 $240 $146 #
plane-surface $-1 -53.324381237220386 -2.3878141634259791 5.05773423337682 -0.54463904215088732 0 0.83867056331134215 0.83867056331134215 0 0.54463904215088732 forward_v I I I I #
loop $-1 $-1 $374 $93 #
coedge $-1 $238 $238 $239 $375 reversed $147 $-1 #
coedge $-1 $239 $239 $238 $375 forward $149 $-1 #
coedge $-1 $240 $240 $150 $241 forward $235 $-1 #
edge $-1 $376 0 $376 6.2831853071796004 $240 $377 forward 7 unknown #
face $-1 $378 $379 $52 $-1 $380 forward single #
loop $-1 $-1 $248 $151 #
plane-surface $-1 0 0 11.621275431777434 0 0 1 1 0 0 forward_v I I I I #
coedge $-1 $381 $382 $383 $384 reversed $152 $-1 #
coedge $-1 $247 $154 $385 $386 reversed $97 $-1 #
coedge $-1 $154 $246 $381 $387 reversed $97 $-1 #
coedge $-1 $383 $388 $154 $249 forward $243 $-1 #
edge $-1 $389 2.3803493017182689 $390 12.487316243421333 $248 $391 forward 7 unknown #
loop $-1 $-1 $255 $155 #
plane-surface $-1 -53.324381237220386 21.072895337983297 5.05773423337682 -0.54463904215088732 0 0.83867056331134215 0.83867056331134215 0 0.54463904215088732 forward_v I I I I #
loop $-1 $-1 $392 $99 #
coedge $-1 $253 $253 $254 $393 reversed $156 $-1 #
coedge $-1 $254 $254 $253 $393 forward $158 $-1 #
coedge $-1 $255 $255 $159 $256 forward $250 $-1 #
edge $-1 $394 0 $394 6.2831853071796004 $255 $395 forward 7 unknown #
loop $-1 $-1 $262 $160 #
plane-surface $-1 -53.324381237220386 21.072895337983297 5.05773423337682 -0.54463904215088732 0 0.83867056331134215 0.83867056331134215 0 0.54463904215088732 forward_v I I I I #
loop $-1 $-1 $396 $102 #
coedge $-1 $260 $260 $261 $397 reversed $161 $-1 #
coedge $-1 $261 $261 $260 $397 forward $163 $-1 #
coedge $-1 $262 $262 $164 $263 forward $257 $-1 #
edge $-1 $398 0 $398 6.2831853071796004 $262 $399 forward 7 unknown #
loop $-1 $-1 $269 $165 #
plane-surface $-1 -53.324381237220386 21.072895337983297 5.05773423337682 -0.54463904215088732 0 0.83867056331134215 0.83867056331134215 0 0.54463904215088732 forward_v I I I I #
loop $-1 $-1 $400 $105 #
coedge $-1 $267 $267 $268 $401 reversed $166 $-1 #
coedge $-1 $268 $268 $267 $401 forward $168 $-1 #
coedge $-1 $269 $269 $169 $270 forward $264 $-1 #
edge $-1 $402 0 $402 6.2831853071796004 $269 $403 forward 7 unknown #
face $-1 $404 $405 $56 $-1 $406 forward single #
loop $-1 $-1 $407 $170 #
plane-surface $-1 0 26.503141463449989 9.9809898778839603 0 1 0 0 0 1 forward_v I I I I #
coedge $-1 $408 $409 $410 $411 reversed $171 $-1 #
coedge $-1 $412 $173 $407 $413 reversed $109 $-1 #
coedge $-1 $173 $412 $408 $414 forward $109 $-1 #
coedge $-1 $410 $415 $173 $278 forward $405 $-1 #
edge $-1 $416 -15.835222136912147 $417 -5.5006165161635217 $277 $418 forward 7 unknown #
loop $-1 $-1 $284 $174 #
plane-surface $-1 -10.858445056557372 21.335838653075669 86.074636221923114 0.79863551827123203 0 0.60181501223851219 0.60181501223851219 0 -0.79863551827123203 forward_v I I I I #
loop $-1 $-1 $419 $111 #
coedge $-1 $282 $282 $283 $420 reversed $175 $-1 #
coedge $-1 $283 $283 $282 $420 forward $177 $-1 #
coedge $-1 $284 $284 $178 $285 forward $279 $-1 #
edge $-1 $421 0 $421 6.2831853071796004 $284 $422 forward 7 unknown #
loop $-1 $-1 $291 $179 #
plane-surface $-1 -10.858445056557372 21.335838653075669 86.074636221923114 0.79863551827123203 0 0.60181501223851219 0.60181501223851219 0 -0.79863551827123203 forward_v I I I I #
loop $-1 $-1 $423 $114 #
coedge $-1 $289 $289 $290 $424 reversed $180 $-1 #
coedge $-1 $290 $290 $289 $424 forward $182 $-1 #
coedge $-1 $291 $291 $183 $292 forward $286 $-1 #
edge $-1 $425 0 $425 6.2831853071796004 $291 $426 forward 7 unknown #
loop $-1 $-1 $298 $184 #
plane-surface $-1 -10.858445056557372 21.335838653075669 86.074636221923114 0.79863551827123203 0 0.60181501223851219 0.60181501223851219 0 -0.79863551827123203 forward_v I I I I #
loop $-1 $-1 $427 $117 #
coedge $-1 $296 $296 $297 $428 reversed $185 $-1 #
coedge $-1 $297 $297 $296 $428 forward $187 $-1 #
coedge $-1 $298 $298 $188 $299 forward $293 $-1 #
edge $-1 $429 0 $429 6.2831853071796004 $298 $430 forward 7 unknown #
face $-1 $431 $432 $45 $-1 $433 reversed single #
loop $-1 $-1 $434 $189 #
plane-surface $-1 -53.324381237220379 0 0 1 0 0 0 0 -1 forward_v I I I I #
coedge $-1 $195 $435 $436 $437 forward $190 $-1 #
coedge $-1 $438 $192 $439 $440 forward $121 $-1 #
coedge $-1 $192 $438 $308 $441 forward $121 $-1 #
coedge $-1 $309 $442 $192 $307 reversed $443 $-1 #
edge $-1 $444 -35.226769419697973 $445 35.226769419697973 $306 $446 forward 7 unknown #
coedge $-1 $194 $193 $305 $441 reversed $76 $-1 #
coedge $-1 $436 $306 $193 $310 forward $443 $-1 #
edge $-1 $444 -11.621275431777434 $314 11.621275431777434 $309 $447 forward 7 unknown #
coedge $-1 $448 $449 $194 $312 reversed $301 $-1 #
edge $-1 $450 -11.621275431777434 $315 11.621275431777434 $311 $451 forward 7 unknown #
coedge $-1 $435 $195 $449 $452 forward $190 $-1 #
vertex $-1 $310 $453 #
vertex $-1 $452 $454 #
straight-curve $-1 0 -35.226769419697973 -11.621275431777434 -1 0 0 I I #
face $-1 $455 $456 $46 $-1 $457 reversed single #
loop $-1 $-1 $203 $197 #
plane-surface $-1 -49.235020877658307 -42.63101535986268 0 1 0 0 0 0 -1 forward_v I I I I #
coedge $-1 $458 $459 $460 $461 forward $198 $-1 #
coedge $-1 $462 $200 $463 $464 forward $125 $-1 #
coedge $-1 $200 $462 $327 $465 forward $125 $-1 #
edge $-1 $329 -49.235020877658307 $466 -44.926491619553552 $200 $467 forward 7 unknown #
coedge $-1 $202 $201 $468 $469 forward $79 $-1 #
coedge $-1 $470 $471 $201 $326 forward $472 $-1 #
edge $-1 $473 44.926491619553552 $330 49.235020877658307 $325 $474 forward 7 unknown #
coedge $-1 $460 $203 $322 $465 reversed $318 $-1 #
coedge $-1 $203 $460 $470 $475 reversed $318 $-1 #
vertex $-1 $323 $476 #
vertex $-1 $475 $477 #
straight-curve $-1 -49.235020877658307 -35.226769419697973 0 0 0 1 I I #
face $-1 $478 $479 $47 $-1 $480 reversed single #
loop $-1 $-1 $338 $205 #
plane-surface $-1 0 0 11.621275431777434 0 0 1 1 0 0 forward_v I I I I #
coedge $-1 $481 $482 $340 $483 forward $206 $-1 #
coedge $-1 $341 $208 $481 $484 reversed $129 $-1 #
coedge $-1 $208 $341 $346 $485 reversed $129 $-1 #
coedge $-1 $486 $487 $208 $339 forward $333 $-1 #
edge $-1 $488 -53.324381237220379 $489 53.324381237220379 $338 $490 forward 7 unknown #
coedge $-1 $210 $209 $335 $483 reversed $82 $-1 #
coedge $-1 $337 $336 $209 $342 reversed $129 $-1 #
edge $-1 $348 -53.324381237220379 $491 53.324381237220379 $341 $492 forward 7 unknown #
coedge $-1 $493 $494 $210 $344 forward $479 $-1 #
edge $-1 $349 -53.324381237220379 $495 53.324381237220379 $343 $496 forward 7 unknown #
coedge $-1 $497 $211 $494 $498 reversed $347 $-1 #
coedge $-1 $211 $497 $337 $485 forward $347 $-1 #
loop $-1 $-1 $211 $478 #
vertex $-1 $212 $499 #
vertex $-1 $212 $500 #
straight-curve $-1 53.324381237220379 15.432477720786991 8.3407043239904866 0 1 0 I I #
face $-1 $-1 $501 $48 $-1 $502 reversed single #
loop $-1 $-1 $219 $213 #
plane-surface $-1 0 0 11.621275431777434 0 0 1 1 0 0 forward_v I I I I #
coedge $-1 $503 $504 $505 $506 reversed $214 $-1 #
coedge $-1 $507 $216 $218 $361 forward $133 $-1 #
coedge $-1 $216 $507 $503 $508 forward $133 $-1 #
coedge $-1 $505 $219 $216 $358 forward $352 $-1 #
edge $-1 $364 -6.6241532071796776 $509 4.2363390437536985 $357 $510 forward 7 unknown #
coedge $-1 $511 $512 $217 $360 forward $501 $-1 #
edge $-1 $513 -42.19272173375996 $363 -35.629180535359353 $359 $514 forward 7 unknown #
edge $-1 $364 -12.051176449782025 $513 -8.3777959833898778e-015 $218 $515 forward 7 unknown #
coedge $-1 $219 $505 $511 $516 forward $352 $-1 #
vertex $-1 $220 $517 #
vertex $-1 $220 $518 #
straight-curve $-1 -55.704730538938648 -7.8180602888926671 11.621275431777434 1 0 0 I I #
coedge $-1 $366 $366 $-1 $519 reversed $223 $-1 #
edge $-1 $520 0 $520 6.2831853071796004 $224 $521 forward 7 unknown #
vertex $-1 $227 $522 #
ellipse-curve $-1 -48.270897766368833 -5.6459618387059933 8.3395048325771359 -0.54463904215088732 0 0.83867056331134215 0.83867056331134215 0 0.54463904215088732 1 I I #
coedge $-1 $370 $370 $-1 $523 reversed $230 $-1 #
edge $-1 $524 0 $524 6.2831853071796004 $231 $525 forward 7 unknown #
vertex $-1 $234 $526 #
ellipse-curve $-1 -48.270897766368833 -2.3878141634259791 8.3395048325771359 -0.54463904215088732 0 0.83867056331134215 0.83867056331134215 0 0.54463904215088732 1 I I #
coedge $-1 $374 $374 $-1 $527 reversed $237 $-1 #
edge $-1 $528 0 $528 6.2831853071796004 $238 $529 forward 7 unknown #
vertex $-1 $241 $530 #
ellipse-curve $-1 -48.270897766368833 0.87033351185403518 8.3395048325771359 -0.54463904215088732 0 0.83867056331134215 0.83867056331134215 0 0.54463904215088732 1 I I #
face $-1 $-1 $531 $52 $-1 $532 reversed single #
loop $-1 $-1 $533 $242 #
plane-surface $-1 0 26.503141463449989 9.9809898778839603 0 1 0 0 0 1 forward_v I I I I #
coedge $-1 $534 $245 $247 $387 forward $152 $-1 #
coedge $-1 $245 $534 $533 $535 forward $152 $-1 #
coedge $-1 $536 $248 $245 $384 forward $243 $-1 #
edge $-1 $390 5.1062015435249606 $537 15.966693794458337 $383 $538 forward 7 unknown #
coedge $-1 $539 $540 $246 $386 forward $531 $-1 #
edge $-1 $541 -42.19272173375996 $389 -35.629180535359353 $385 $542 forward 7 unknown #
edge $-1 $390 -12.051176449782025 $541 -8.3777959833898778e-015 $247 $543 forward 7 unknown #
coedge $-1 $248 $536 $539 $544 forward $243 $-1 #
vertex $-1 $249 $545 #
vertex $-1 $249 $546 #
straight-curve $-1 -55.704730538938648 15.642649212516609 11.621275431777434 1 0 0 I I #
coedge $-1 $392 $392 $-1 $547 reversed $252 $-1 #
edge $-1 $548 0 $548 6.2831853071796004 $253 $549 forward 7 unknown #
vertex $-1 $256 $550 #
ellipse-curve $-1 -48.270897766368833 17.814747662703283 8.3395048325771359 -0.54463904215088732 0 0.83867056331134215 0.83867056331134215 0 0.54463904215088732 1 I I #
coedge $-1 $396 $396 $-1 $551 reversed $259 $-1 #
edge $-1 $552 0 $552 6.2831853071796004 $260 $553 forward 7 unknown #
vertex $-1 $263 $554 #
ellipse-curve $-1 -48.270897766368833 21.072895337983297 8.3395048325771359 -0.54463904215088732 0 0.83867056331134215 0.83867056331134215 0 0.54463904215088732 1 I I #
coedge $-1 $400 $400 $-1 $555 reversed $266 $-1 #
edge $-1 $556 0 $556 6.2831853071796004 $267 $557 forward 7 unknown #
vertex $-1 $270 $558 #
ellipse-curve $-1 -48.270897766368833 24.331043013263312 8.3395048325771359 -0.54463904215088732 0 0.83867056331134215 0.83867056331134215 0 0.54463904215088732 1 I I #
face $-1 $-1 $559 $56 $-1 $560 reversed single #
loop $-1 $-1 $277 $271 #
plane-surface $-1 0 0 11.621275431777434 0 0 1 1 0 0 forward_v I I I I #
coedge $-1 $561 $562 $275 $413 forward $272 $-1 #
coedge $-1 $409 $274 $276 $414 reversed $171 $-1 #
coedge $-1 $274 $408 $563 $564 reversed $171 $-1 #
coedge $-1 $565 $277 $274 $411 forward $405 $-1 #
edge $-1 $417 8.0886625978610454 $566 16.166858919618804 $410 $567 forward 7 unknown #
coedge $-1 $276 $275 $568 $569 reversed $109 $-1 #
edge $-1 $570 -72.995830509579335 $416 -59.572774990060005 $407 $571 forward 7 unknown #
edge $-1 $572 -106.64876247444076 $417 -93.225706954921435 $408 $573 forward 7 unknown #
coedge $-1 $277 $565 $561 $574 forward $405 $-1 #
vertex $-1 $278 $575 #
vertex $-1 $278 $576 #
straight-curve $-1 45.246184915462621 10.667919326537834 11.621275431777441 0 -1 0 I I #
coedge $-1 $419 $419 $-1 $577 reversed $281 $-1 #
edge $-1 $578 0 $578 6.2831853071796004 $282 $579 forward 7 unknown #
vertex $-1 $285 $580 #
ellipse-curve $-1 49.285283076341493 18.235456966851082 6.2612109809700138 0.79863551827123203 0 0.60181501223851219 0.3009075061192561 0 -0.39931775913561601 1 I I #
coedge $-1 $423 $423 $-1 $581 reversed $288 $-1 #
edge $-1 $582 0 $582 6.2831853071796004 $289 $583 forward 7 unknown #
vertex $-1 $292 $584 #
ellipse-curve $-1 49.285283076341493 21.335838653075669 6.2612109809700138 0.79863551827123203 0 0.60181501223851219 0.3009075061192561 0 -0.39931775913561601 1 I I #
coedge $-1 $427 $427 $-1 $585 reversed $295 $-1 #
edge $-1 $586 0 $586 6.2831853071796004 $296 $587 forward 7 unknown #
vertex $-1 $299 $588 #
ellipse-curve $-1 49.285283076341493 24.436220339300256 6.2612109809700138 0.79863551827123203 0 0.60181501223851219 0.3009075061192561 0 -0.39931775913561601 1 I I #
face $-1 $-1 $443 $45 $-1 $589 reversed single #
loop $-1 $-1 $590 $300 #
plane-surface $-1 0 35.226769419697973 0 0 -1 0 0 0 -1 forward_v I I I I #
coedge $-1 $449 $448 $591 $592 forward $301 $-1 #
coedge $-1 $303 $313 $593 $594 forward $190 $-1 #
coedge $-1 $442 $309 $303 $437 reversed $443 $-1 #
edge $-1 $595 -35.226769419697973 $314 35.226769419697973 $436 $596 forward 7 unknown #
coedge $-1 $305 $304 $448 $597 forward $121 $-1 #
coedge $-1 $590 $591 $304 $440 reversed $432 $-1 #
edge $-1 $445 -53.324381237220379 $598 53.324381237220379 $439 $599 forward 7 unknown #
edge $-1 $450 -53.324381237220379 $444 53.324381237220379 $308 $600 forward 7 unknown #
coedge $-1 $306 $436 $590 $601 reversed $443 $-1 #
loop $-1 $-1 $309 $431 #
vertex $-1 $307 $602 #
vertex $-1 $307 $603 #
straight-curve $-1 53.324381237220379 0 11.621275431777434 0 1 0 I I #
straight-curve $-1 53.324381237220379 -35.226769419697973 0 0 0 -1 I I #
coedge $-1 $434 $311 $438 $597 reversed $301 $-1 #
coedge $-1 $311 $434 $313 $452 reversed $301 $-1 #
vertex $-1 $597 $604 #
straight-curve $-1 -53.324381237220379 -35.226769419697973 0 0 0 -1 I I #
edge $-1 $315 -35.226769419697973 $605 35.226769419697973 $449 $606 forward 7 unknown #
point $-1 53.324381237220379 -35.226769419697973 -11.621275431777434 #
point $-1 -53.324381237220379 -35.226769419697973 -11.621275431777434 #
face $-1 $-1 $472 $46 $-1 $607 forward single #
loop $-1 $-1 $608 $317 #
plane-surface $-1 -44.926491619553552 -42.63101535986268 0 -1 0 0 0 0 1 forward_v I I I I #
coedge $-1 $609 $320 $462 $610 reversed $198 $-1 #
coedge $-1 $320 $609 $611 $612 reversed $198 $-1 #
coedge $-1 $328 $327 $320 $461 reversed $318 $-1 #
edge $-1 $613 -11.621275431777434 $614 11.621275431777434 $460 $615 forward 7 unknown #
coedge $-1 $322 $321 $458 $610 forward $125 $-1 #
coedge $-1 $468 $608 $321 $464 reversed $456 $-1 #
edge $-1 $466 -7.4042459401647065 $616 7.4042459401647065 $463 $617 forward 7 unknown #
edge $-1 $614 -7.4042459401647065 $329 7.4042459401647065 $327 $618 forward 7 unknown #
vertex $-1 $464 $619 #
straight-curve $-1 0 -35.226769419697973 -11.621275431777434 1 0 0 I I #
coedge $-1 $620 $463 $324 $469 reversed $456 $-1 #
edge $-1 $473 -11.621275431777434 $466 11.621275431777434 $468 $621 forward 7 unknown #
coedge $-1 $611 $325 $328 $475 forward $472 $-1 #
coedge $-1 $325 $611 $620 $622 forward $472 $-1 #
loop $-1 $-1 $325 $455 #
vertex $-1 $326 $623 #
straight-curve $-1 0 -35.226769419697973 11.621275431777434 -1 0 0 I I #
edge $-1 $330 -7.4042459401647065 $613 7.4042459401647065 $328 $624 forward 7 unknown #
point $-1 -49.235020877658307 -35.226769419697973 -11.621275431777434 #
point $-1 -49.235020877658307 -35.226769419697973 11.621275431777434 #
face $-1 $-1 $347 $47 $-1 $625 reversed single #
loop $-1 $-1 $343 $332 #
plane-surface $-1 0 35.226769419697973 0 0 -1 0 0 0 -1 forward_v I I I I #
coedge $-1 $626 $335 $336 $484 forward $206 $-1 #
coedge $-1 $335 $626 $493 $627 forward $206 $-1 #
edge $-1 $495 -19.794291698910982 $491 -11.070663742662997 $335 $628 forward 7 unknown #
edge $-1 $491 3.3502093850485064 $488 6.6307804928354539 $481 $629 forward 7 unknown #
edge $-1 $489 -6.6307804928354539 $348 -3.3502093850485064 $346 $630 forward 7 unknown #
coedge $-1 $631 $338 $497 $632 forward $333 $-1 #
coedge $-1 $338 $631 $626 $633 forward $333 $-1 #
vertex $-1 $339 $634 #
vertex $-1 $632 $635 #
straight-curve $-1 0 26.503141463449989 11.621275431777434 1 0 0 I I #
vertex $-1 $483 $636 #
straight-curve $-1 0 26.503141463449989 8.3407043239904866 -1 0 0 I I #
coedge $-1 $637 $343 $482 $627 reversed $479 $-1 #
coedge $-1 $343 $637 $345 $498 forward $479 $-1 #
vertex $-1 $483 $638 #
straight-curve $-1 0 35.226769419697973 8.3407043239904866 -1 0 0 I I #
coedge $-1 $346 $345 $486 $632 reversed $347 $-1 #
edge $-1 $639 -11.621275431777434 $349 -8.3407043239904866 $345 $640 forward 7 unknown #
point $-1 53.324381237220379 26.503141463449989 8.3407043239904866 #
point $-1 53.324381237220379 35.226769419697973 8.3407043239904866 #
loop $-1 $-1 $359 $351 #
plane-surface $-1 -53.324381237220379 0 0 1 0 0 0 0 -1 forward_v I I I I #
coedge $-1 $504 $354 $356 $508 reversed $214 $-1 #
coedge $-1 $354 $503 $641 $642 reversed $214 $-1 #
coedge $-1 $362 $357 $354 $506 forward $352 $-1 #
edge $-1 $509 -12.487316243421333 $643 -2.3803493017182689 $505 $644 forward 7 unknown #
coedge $-1 $356 $355 $512 $645 reversed $133 $-1 #
edge $-1 $646 8.3777959833898778e-015 $509 12.051176449782025 $503 $647 forward 7 unknown #
vertex $-1 $358 $648 #
straight-curve $-1 -43.217414295517315 -1.1939070817129895 11.621275431777434 0 1 0 I I #
coedge $-1 $641 $359 $362 $516 reversed $501 $-1 #
coedge $-1 $359 $641 $507 $645 forward $501 $-1 #
vertex $-1 $360 $649 #
straight-curve $-1 -53.324381237220379 -7.8180602888926671 47.250455967136787 0 0 1 I I #
straight-curve $-1 -53.324381237220386 -7.8180602888926671 5.05773423337682 -0.83867056331134215 0 -0.54463904215088732 I I #
edge $-1 $643 -3.042431962040709 $363 7.8180602888926671 $511 $650 forward 7 unknown #
point $-1 -53.324381237220379 -7.8180602888926671 11.621275431777434 #
point $-1 -43.217414295517315 -7.8180602888926671 11.621275431777434 #
edge $-1 $651 1 $651 0 $366 $-1 forward 7 unknown #
vertex $-1 $367 $652 #
ellipse-curve $-1 -46.24218506726173 -5.6459618387059933 5.2155612837676646 -0.54463904215088732 0 0.83867056331134215 0.83867056331134215 0 0.54463904215088732 1 I I #
point $-1 -47.432227203057487 -5.6459618387059933 8.8841438747280019 #
edge $-1 $653 1 $653 0 $370 $-1 forward 7 unknown #
vertex $-1 $371 $654 #
ellipse-curve $-1 -46.24218506726173 -2.3878141634259791 5.2155612837676646 -0.54463904215088732 0 0.83867056331134215 0.83867056331134215 0 0.54463904215088732 1 I I #
point $-1 -47.432227203057487 -2.3878141634259791 8.8841438747280019 #
edge $-1 $655 1 $655 0 $374 $-1 forward 7 unknown #
vertex $-1 $375 $656 #
ellipse-curve $-1 -46.24218506726173 0.87033351185403518 5.2155612837676646 -0.54463904215088732 0 0.83867056331134215 0.83867056331134215 0 0.54463904215088732 1 I I #
point $-1 -47.432227203057487 0.87033351185403518 8.8841438747280019 #
loop $-1 $-1 $385 $378 #
plane-surface $-1 -53.324381237220379 0 0 1 0 0 0 0 -1 forward_v I I I I #
coedge $-1 $657 $658 $382 $535 reversed $379 $-1 #
coedge $-1 $382 $381 $540 $659 reversed $152 $-1 #
edge $-1 $660 8.3777959833898778e-015 $537 12.051176449782025 $533 $661 forward 7 unknown #
coedge $-1 $388 $383 $658 $662 forward $243 $-1 #
vertex $-1 $662 $663 #
straight-curve $-1 -43.217414295517315 10.536447668991649 11.621275431777434 0 1 0 I I #
coedge $-1 $664 $385 $388 $544 reversed $531 $-1 #
coedge $-1 $385 $664 $534 $659 forward $531 $-1 #
vertex $-1 $386 $665 #
straight-curve $-1 -53.324381237220379 15.642649212516609 47.250455967136787 0 0 1 I I #
straight-curve $-1 -53.324381237220386 15.642649212516609 5.05773423337682 -0.83867056331134215 0 -0.54463904215088732 I I #
edge $-1 $666 -26.503141463449989 $389 -15.642649212516609 $539 $667 forward 7 unknown #
point $-1 -53.324381237220379 15.642649212516609 11.621275431777434 #
point $-1 -43.217414295517315 15.642649212516609 11.621275431777434 #
edge $-1 $668 1 $668 0 $392 $-1 forward 7 unknown #
vertex $-1 $393 $669 #
ellipse-curve $-1 -46.24218506726173 17.814747662703283 5.2155612837676646 -0.54463904215088732 0 0.83867056331134215 0.83867056331134215 0 0.54463904215088732 1 I I #
point $-1 -47.432227203057487 17.814747662703283 8.8841438747280019 #
edge $-1 $670 1 $670 0 $396 $-1 forward 7 unknown #
vertex $-1 $397 $671 #
ellipse-curve $-1 -46.24218506726173 21.072895337983297 5.2155612837676646 -0.54463904215088732 0 0.83867056331134215 0.83867056331134215 0 0.54463904215088732 1 I I #
point $-1 -47.432227203057487 21.072895337983297 8.8841438747280019 #
edge $-1 $672 1 $672 0 $400 $-1 forward 7 unknown #
vertex $-1 $401 $673 #
ellipse-curve $-1 -46.24218506726173 24.331043013263312 5.2155612837676646 -0.54463904215088732 0 0.83867056331134215 0.83867056331134215 0 0.54463904215088732 1 I I #
point $-1 -47.432227203057487 24.331043013263312 8.8841438747280019 #
loop $-1 $-1 $674 $404 #
plane-surface $-1 53.324381237220379 0 0 -1 0 0 0 0 1 forward_v I I I I #
coedge $-1 $562 $407 $415 $574 reversed $272 $-1 #
coedge $-1 $407 $561 $674 $675 reversed $272 $-1 #
coedge $-1 $568 $676 $409 $564 forward $559 $-1 #
edge $-1 $566 63.507455826072999 $572 74.227584727687841 $563 $677 forward 7 unknown #
coedge $-1 $415 $410 $676 $678 forward $405 $-1 #
vertex $-1 $678 $679 #
straight-curve $-1 37.157522317601575 16.168535842701356 11.621275431777434 1 0 0 I I #
coedge $-1 $674 $563 $412 $569 forward $559 $-1 #
edge $-1 $572 5.5006165161635217 $570 15.835222136912147 $568 $680 forward 7 unknown #
vertex $-1 $675 $681 #
straight-curve $-1 9.3943946057375225 26.503141463449989 59.198209460819498 -0.60181501223851219 0 0.79863551827123203 I I #
vertex $-1 $569 $682 #
straight-curve $-1 -10.858445056557372 16.168535842701356 86.074636221923114 -0.60181501223851219 0 0.79863551827123203 I I #
edge $-1 $683 -53.324381237220379 $416 -45.246184915462621 $415 $684 forward 7 unknown #
point $-1 45.246184915462621 26.503141463449982 11.621275431777434 #
point $-1 45.246184915462621 16.168535842701356 11.621275431777434 #
edge $-1 $685 1 $685 0 $419 $-1 forward 7 unknown #
vertex $-1 $420 $686 #
ellipse-curve $-1 48.049002995977972 18.235456966851082 5.3296071458379028 0.79863551827123203 0 0.60181501223851219 0.3009075061192561 0 -0.39931775913561601 1 I I #
point $-1 49.586190582460759 18.235456966851082 5.8618932218344035 #
edge $-1 $687 1 $687 0 $423 $-1 forward 7 unknown #
vertex $-1 $424 $688 #
ellipse-curve $-1 48.049002995977972 21.335838653075669 5.3296071458379028 0.79863551827123203 0 0.60181501223851219 0.3009075061192561 0 -0.39931775913561601 1 I I #
point $-1 49.586190582460759 21.335838653075669 5.8618932218344035 #
edge $-1 $689 1 $689 0 $427 $-1 forward 7 unknown #
vertex $-1 $428 $690 #
ellipse-curve $-1 48.049002995977972 24.436220339300256 5.3296071458379028 0.79863551827123203 0 0.60181501223851219 0.3009075061192561 0 -0.39931775913561601 1 I I #
point $-1 49.586190582460759 24.436220339300256 5.8618932218344035 #
plane-surface $-1 53.324381237220379 0 0 -1 0 0 0 0 1 forward_v I I I I #
coedge $-1 $593 $439 $442 $601 forward $432 $-1 #
coedge $-1 $439 $593 $434 $592 reversed $432 $-1 #
edge $-1 $598 -11.621275431777434 $605 11.621275431777434 $591 $691 forward 7 unknown #
coedge $-1 $591 $590 $435 $594 reversed $432 $-1 #
edge $-1 $605 -53.324381237220379 $595 53.324381237220379 $593 $692 forward 7 unknown #
vertex $-1 $437 $693 #
straight-curve $-1 53.324381237220379 0 -11.621275431777434 0 -1 0 I I #
edge $-1 $598 -35.226769419697973 $450 35.226769419697973 $448 $694 forward 7 unknown #
vertex $-1 $440 $695 #
straight-curve $-1 0 35.226769419697973 11.621275431777434 -1 0 0 I I #
straight-curve $-1 0 -35.226769419697973 11.621275431777434 1 0 0 I I #
edge $-1 $445 -11.621275431777434 $595 11.621275431777434 $442 $696 forward 7 unknown #
point $-1 53.324381237220379 -35.226769419697973 11.621275431777434 #
point $-1 53.324381237220379 35.226769419697973 11.621275431777434 #
point $-1 -53.324381237220379 -35.226769419697973 11.621275431777434 #
vertex $-1 $594 $697 #
straight-curve $-1 -53.324381237220379 0 -11.621275431777434 0 1 0 I I #
plane-surface $-1 0 0 11.621275431777434 0 0 1 1 0 0 forward_v I I I I #
coedge $-1 $463 $620 $609 $698 forward $456 $-1 #
coedge $-1 $459 $458 $608 $698 reversed $198 $-1 #
edge $-1 $616 -2.1542646290523777 $614 2.1542646290523777 $458 $699 forward 7 unknown #
coedge $-1 $471 $470 $459 $612 forward $472 $-1 #
edge $-1 $613 -2.1542646290523777 $700 2.1542646290523777 $459 $701 forward 7 unknown #
vertex $-1 $475 $702 #
vertex $-1 $465 $703 #
straight-curve $-1 -49.235020877658307 -50.035261300027386 0 0 0 -1 I I #
vertex $-1 $698 $704 #
straight-curve $-1 -44.926491619553552 -42.63101535986268 -11.621275431777434 0 -1 0 I I #
straight-curve $-1 -49.235020877658307 -42.63101535986268 -11.621275431777434 0 1 0 I I #
point $-1 -44.926491619553552 -35.226769419697973 -11.621275431777434 #
coedge $-1 $608 $468 $471 $622 reversed $456 $-1 #
straight-curve $-1 -44.926491619553552 -35.226769419697973 0 0 0 -1 I I #
edge $-1 $700 -7.4042459401647065 $473 7.4042459401647065 $620 $705 forward 7 unknown #
point $-1 -44.926491619553552 -35.226769419697973 11.621275431777434 #
straight-curve $-1 -49.235020877658307 -42.63101535986268 11.621275431777434 0 -1 0 I I #
plane-surface $-1 53.324381237220379 0 0 -1 0 0 0 0 1 forward_v I I I I #
coedge $-1 $482 $481 $487 $633 reversed $206 $-1 #
edge $-1 $706 -11.621275431777434 $495 -8.3407043239904866 $493 $707 forward 7 unknown #
straight-curve $-1 -53.324381237220379 15.432477720786991 8.3407043239904866 0 -1 0 I I #
straight-curve $-1 -53.324381237220379 26.503141463449989 4.9904949389419802 0 0 1 I I #
straight-curve $-1 53.324381237220379 26.503141463449989 4.9904949389419802 0 0 -1 I I #
coedge $-1 $487 $486 $637 $708 forward $333 $-1 #
edge $-1 $489 26.503141463449989 $639 35.226769419697973 $497 $709 forward 7 unknown #
edge $-1 $706 -35.226769419697973 $488 -26.503141463449989 $626 $710 forward 7 unknown #
point $-1 -53.324381237220379 26.503141463449989 11.621275431777434 #
point $-1 53.324381237220379 26.503141463449989 11.621275431777434 #
point $-1 -53.324381237220379 26.503141463449989 8.3407043239904866 #
coedge $-1 $494 $493 $631 $708 reversed $479 $-1 #
point $-1 -53.324381237220379 35.226769419697973 8.3407043239904866 #
vertex $-1 $632 $711 #
straight-curve $-1 53.324381237220379 35.226769419697973 0 0 0 -1 I I #
coedge $-1 $512 $511 $504 $642 forward $501 $-1 #
edge $-1 $643 35.629180535359353 $646 42.19272173375996 $641 $712 forward 7 unknown #
vertex $-1 $516 $713 #
straight-curve $-1 -55.704730538938648 3.042431962040709 11.621275431777434 -1 0 0 I I #
edge $-1 $646 -4.2363390437536985 $513 6.6241532071796776 $512 $714 forward 7 unknown #
vertex $-1 $645 $715 #
straight-curve $-1 -53.324381237220386 3.042431962040709 5.05773423337682 0.83867056331134215 0 0.54463904215088732 I I #
point $-1 -43.217414295517315 3.042431962040709 11.621275431777434 #
point $-1 -53.324381237220379 -7.8180602888926671 5.0577342333768245 #
straight-curve $-1 -53.324381237220379 0 11.621275431777434 0 -1 0 I I #
vertex $-1 $519 $716 #
point $-1 -45.403514503950383 -5.6459618387059933 5.7602003259185519 #
vertex $-1 $523 $717 #
point $-1 -45.403514503950383 -2.3878141634259791 5.7602003259185519 #
vertex $-1 $527 $718 #
point $-1 -45.403514503950383 0.87033351185403518 5.7602003259185519 #
coedge $-1 $658 $533 $664 $719 reversed $379 $-1 #
coedge $-1 $533 $657 $536 $662 reversed $379 $-1 #
edge $-1 $660 -15.966693794458337 $541 -5.1062015435249606 $540 $720 forward 7 unknown #
vertex $-1 $719 $721 #
straight-curve $-1 -53.324381237220386 26.503141463449985 5.05773423337682 0.83867056331134215 0 0.54463904215088732 I I #
edge $-1 $537 43.217414295517315 $666 53.324381237220379 $536 $722 forward 7 unknown #
point $-1 -43.217414295517315 26.503141463449985 11.621275431777434 #
coedge $-1 $540 $539 $657 $719 forward $531 $-1 #
point $-1 -53.324381237220379 15.642649212516609 5.0577342333768245 #
vertex $-1 $544 $723 #
straight-curve $-1 -53.324381237220379 0 11.621275431777434 0 -1 0 I I #
vertex $-1 $547 $724 #
point $-1 -45.403514503950383 17.814747662703283 5.7602003259185519 #
vertex $-1 $551 $725 #
point $-1 -45.403514503950383 21.072895337983297 5.7602003259185519 #
vertex $-1 $555 $726 #
point $-1 -45.403514503950383 24.331043013263312 5.7602003259185519 #
coedge $-1 $676 $568 $562 $675 forward $559 $-1 #
edge $-1 $570 -74.227584727687841 $683 -63.507455826072999 $674 $727 forward 7 unknown #
coedge $-1 $563 $674 $565 $678 reversed $559 $-1 #
straight-curve $-1 53.324381237220379 16.168535842701356 75.128731257850433 0 0 -1 I I #
edge $-1 $566 16.168535842701356 $683 26.503141463449989 $676 $728 forward 7 unknown #
point $-1 53.324381237220379 16.168535842701356 11.621275431777434 #
straight-curve $-1 53.324381237220379 10.667919326537834 0.90114653016259183 0 1 0 I I #
point $-1 53.324381237220379 26.503141463449982 0.90114653016259183 #
point $-1 53.324381237220379 16.168535842701356 0.90114653016259183 #
vertex $-1 $574 $729 #
straight-curve $-1 0 26.503141463449989 11.621275431777434 -1 0 0 I I #
vertex $-1 $577 $730 #
point $-1 48.349910502097231 18.235456966851082 4.9302893867022872 #
vertex $-1 $581 $731 #
point $-1 48.349910502097231 21.335838653075669 4.9302893867022872 #
vertex $-1 $585 $732 #
point $-1 48.349910502097231 24.436220339300256 4.9302893867022872 #
straight-curve $-1 -53.324381237220379 35.226769419697973 0 0 0 -1 I I #
straight-curve $-1 0 35.226769419697973 -11.621275431777434 1 0 0 I I #
point $-1 53.324381237220379 35.226769419697973 -11.621275431777434 #
straight-curve $-1 -53.324381237220379 0 11.621275431777434 0 -1 0 I I #
point $-1 -53.324381237220379 35.226769419697973 11.621275431777434 #
straight-curve $-1 53.324381237220379 35.226769419697973 0 0 0 -1 I I #
point $-1 -53.324381237220379 35.226769419697973 -11.621275431777434 #
edge $-1 $700 -11.621275431777434 $616 11.621275431777434 $608 $733 forward 7 unknown #
straight-curve $-1 -47.08075624860593 -50.035261300027386 -11.621275431777434 -1 0 0 I I #
vertex $-1 $622 $734 #
straight-curve $-1 -47.08075624860593 -50.035261300027386 11.621275431777434 1 0 0 I I #
point $-1 -49.235020877658307 -50.035261300027386 11.621275431777434 #
point $-1 -49.235020877658307 -50.035261300027386 -11.621275431777434 #
point $-1 -44.926491619553552 -50.035261300027386 -11.621275431777434 #
straight-curve $-1 -44.926491619553552 -42.63101535986268 11.621275431777434 0 1 0 I I #
vertex $-1 $708 $735 #
straight-curve $-1 -53.324381237220379 35.226769419697973 0 0 0 -1 I I #
edge $-1 $639 -53.324381237220379 $706 53.324381237220379 $637 $736 forward 7 unknown #
straight-curve $-1 53.324381237220379 0 11.621275431777434 0 1 0 I I #
straight-curve $-1 -53.324381237220379 0 11.621275431777434 0 -1 0 I I #
point $-1 53.324381237220379 35.226769419697973 11.621275431777434 #
straight-curve $-1 -53.324381237220379 3.042431962040709 47.250455967136787 0 0 -1 I I #
point $-1 -53.324381237220379 3.042431962040709 11.621275431777434 #
straight-curve $-1 -53.324381237220379 -1.1939070817129895 5.0577342333768209 0 -1 0 I I #
point $-1 -53.324381237220379 3.042431962040709 5.0577342333768245 #
point $-1 -45.697546025110839 -5.6459618387059933 4.3768907204563217 #
point $-1 -45.697546025110839 -2.3878141634259791 4.3768907204563217 #
point $-1 -45.697546025110839 0.87033351185403518 4.3768907204563217 #
edge $-1 $666 35.629180535359353 $660 42.19272173375996 $664 $737 forward 7 unknown #
straight-curve $-1 -53.324381237220379 10.536447668991649 5.0577342333768209 0 -1 0 I I #
point $-1 -53.324381237220379 26.503141463449985 5.0577342333768245 #
straight-curve $-1 0 26.503141463449989 11.621275431777434 -1 0 0 I I #
point $-1 -53.324381237220379 26.503141463449989 11.621275431777434 #
point $-1 -45.697546025110839 17.814747662703283 4.3768907204563217 #
point $-1 -45.697546025110839 21.072895337983297 4.3768907204563217 #
point $-1 -45.697546025110839 24.331043013263312 4.3768907204563217 #
straight-curve $-1 53.324381237220379 26.503141463449982 75.128731257850433 0 0 1 I I #
straight-curve $-1 53.324381237220379 0 11.621275431777434 0 1 0 I I #
point $-1 53.324381237220379 26.503141463449989 11.621275431777434 #
point $-1 47.649685236842359 18.235456966851082 5.0286996397186474 #
point $-1 47.649685236842359 21.335838653075669 5.0286996397186474 #
point $-1 47.649685236842359 24.436220339300256 5.0286996397186474 #
straight-curve $-1 -44.926491619553552 -50.035261300027386 0 0 0 -1 I I #
point $-1 -44.926491619553552 -50.035261300027386 11.621275431777434 #
point $-1 -53.324381237220379 35.226769419697973 11.621275431777434 #
straight-curve $-1 0 35.226769419697973 11.621275431777434 -1 0 0 I I #
straight-curve $-1 -53.324381237220379 26.503141463449985 47.250455967136787 0 0 -1 I I #
End-of-ACIS-data 