500 0 12 0           
7 Unknown 11 ACIS 5.0 NT 24 Thu Mar 25 22:05:11 1999 
-1 9.9999999999999995e-007 1e-010 
body $-1 $12 $-1 $13 #
body $-1 $14 $-1 $15 #
body $-1 $16 $-1 $17 #
body $-1 $18 $-1 $19 #
body $-1 $20 $-1 $21 #
body $-1 $22 $-1 $23 #
body $-1 $24 $-1 $25 #
body $-1 $26 $-1 $27 #
body $-1 $28 $-1 $29 #
body $-1 $30 $-1 $31 #
body $-1 $32 $-1 $33 #
body $-1 $34 $-1 $35 #
lump $-1 $-1 $36 $0 #
transform $-1 1 0 0 0 1 0 0 0 1 48.332773827326271 21.06333639635773 9.8713618183961973 1 rotate no_reflect no_shear #
lump $-1 $-1 $37 $1 #
transform $-1 1 0 0 0 1 0 0 0 1 48.332773827326271 21.06333639635773 9.8713618183961973 1 rotate no_reflect no_shear #
lump $-1 $-1 $38 $2 #
transform $-1 1 0 0 0 1 0 0 0 1 48.332773827326271 21.06333639635773 9.8713618183961973 1 rotate no_reflect no_shear #
lump $-1 $-1 $39 $3 #
transform $-1 1 0 0 0 1 0 0 0 1 48.332773827326271 21.06333639635773 9.8713618183961973 1 rotate no_reflect no_shear #
lump $-1 $-1 $40 $4 #
transform $-1 1 0 0 0 1 0 0 0 1 48.332773827326271 21.06333639635773 9.8713618183961973 1 rotate no_reflect no_shear #
lump $-1 $-1 $41 $5 #
transform $-1 1 0 0 0 1 0 0 0 1 48.332773827326271 21.06333639635773 9.8713618183961973 1 rotate no_reflect no_shear #
lump $-1 $-1 $42 $6 #
transform $-1 1 0 0 0 1 0 0 0 1 48.332773827326271 21.06333639635773 9.8713618183961973 1 rotate no_reflect no_shear #
lump $-1 $-1 $43 $7 #
transform $-1 1 0 0 0 1 0 0 0 1 48.332773827326271 21.06333639635773 9.8713618183961973 1 rotate no_reflect no_shear #
lump $-1 $-1 $44 $8 #
transform $-1 1 0 0 0 1 0 0 0 1 48.332773827326271 21.06333639635773 9.8713618183961973 1 rotate no_reflect no_shear #
lump $-1 $-1 $45 $9 #
transform $-1 1 0 0 0 1 0 0 0 1 48.332773827326271 21.06333639635773 9.8713618183961973 1 rotate no_reflect no_shear #
lump $-1 $-1 $46 $10 #
transform $-1 1 0 0 0 1 0 0 0 1 48.332773827326271 21.06333639635773 9.8713618183961973 1 rotate no_reflect no_shear #
lump $-1 $-1 $47 $11 #
transform $-1 1 0 0 0 1 0 0 0 1 48.332773827326271 21.06333639635773 9.8713618183961973 1 rotate no_reflect no_shear #
shell $-1 $-1 $-1 $48 $-1 $12 #
shell $-1 $-1 $-1 $49 $-1 $14 #
shell $-1 $-1 $-1 $50 $-1 $16 #
shell $-1 $-1 $-1 $51 $-1 $18 #
shell $-1 $-1 $-1 $52 $-1 $20 #
shell $-1 $-1 $-1 $53 $-1 $22 #
shell $-1 $-1 $-1 $54 $-1 $24 #
shell $-1 $-1 $-1 $55 $-1 $26 #
shell $-1 $-1 $-1 $56 $-1 $28 #
shell $-1 $-1 $-1 $57 $-1 $30 #
shell $-1 $-1 $-1 $58 $-1 $32 #
shell $-1 $-1 $-1 $59 $-1 $34 #
face $-1 $60 $61 $36 $-1 $62 forward single #
face $-1 $63 $64 $37 $-1 $65 reversed single #
face $-1 $66 $67 $38 $-1 $68 reversed single #
face $-1 $69 $70 $39 $-1 $71 forward single #
face $-1 $72 $73 $40 $-1 $74 reversed single #
face $-1 $75 $76 $41 $-1 $77 forward single #
face $-1 $78 $79 $42 $-1 $80 reversed single #
face $-1 $81 $82 $43 $-1 $83 forward single #
face $-1 $84 $85 $44 $-1 $86 forward single #
face $-1 $87 $88 $45 $-1 $89 reversed single #
face $-1 $90 $91 $46 $-1 $92 forward single #
face $-1 $93 $94 $47 $-1 $95 forward single #
face $-1 $96 $97 $36 $-1 $98 reversed single #
loop $-1 $-1 $99 $48 #
plane-surface $-1 0 0 9.8713618183961973 0 0 1 1 0 0 forward_v I I I I #
face $-1 $100 $101 $37 $-1 $102 reversed single #
loop $-1 $-1 $103 $49 #
plane-surface $-1 -42.259676572419757 -6.638139767119009 0 0 1 0 0 0 1 forward_v I I I I #
face $-1 $104 $105 $38 $-1 $106 reversed single #
loop $-1 $-1 $107 $50 #
plane-surface $-1 -11.834161794525347 36.562828487498678 110.77809750254704 1 0 0 0 -0.52991927123019833 -0.84804809178421925 forward_v I I I I #
face $-1 $108 $109 $39 $-1 $110 forward single #
loop $-1 $111 $112 $51 #
cone-surface $-1 -2.8805322698094145 17.358489929106295 6.5915308427917587 0 -0.52991927123019833 -0.84804809178421925 1 0 0 1 I I 0 1 1 forward I I I I #
face $-1 $113 $114 $40 $-1 $115 reversed single #
loop $-1 $-1 $116 $52 #
plane-surface $-1 -2.8805322698094145 -14.662108078722802 28.801064272742437 0 0.52991927123019833 0.84804809178421925 1 0 0 forward_v I I I I #
face $-1 $117 $118 $41 $-1 $119 forward single #
loop $-1 $120 $121 $53 #
cone-surface $-1 15.026726779622457 17.358489929106295 6.5915308427917587 0 -0.52991927123019833 -0.84804809178421925 1 0 0 1 I I 0 1 1 forward I I I I #
face $-1 $122 $123 $42 $-1 $124 reversed single #
loop $-1 $-1 $125 $54 #
plane-surface $-1 -19.850034598651558 -70.849774632813578 87.237998660606706 -1 0 0 0 -0.51503808176128008 0.85716729658548041 forward_v I I I I #
face $-1 $126 $127 $43 $-1 $128 forward single #
loop $-1 $129 $130 $55 #
cone-surface $-1 -26.421344385371686 -15.997509331585922 6.3002721337577325 0 0.51503808176128008 -0.85716729658548041 1 0 0 1 I I 0 1 1 forward I I I I #
face $-1 $131 $132 $44 $-1 $133 forward single #
loop $-1 $134 $135 $56 #
cone-surface $-1 -22.478558513339607 -15.997509331585922 6.3002721337577325 0 0.51503808176128008 -0.85716729658548041 1 0 0 1 I I 0 1 1 forward I I I I #
face $-1 $136 $137 $45 $-1 $138 reversed single #
loop $-1 $-1 $139 $57 #
plane-surface $-1 22.409641973768196 -70.849774632813578 87.237998660606706 -1 0 0 0 -0.51503808176128008 0.85716729658548041 forward_v I I I I #
face $-1 $140 $141 $46 $-1 $142 forward single #
loop $-1 $143 $144 $58 #
cone-surface $-1 15.838332187048074 -15.997509331585922 6.3002721337577325 0 0.51503808176128008 -0.85716729658548041 1 0 0 1 I I 0 1 1 forward I I I I #
face $-1 $145 $146 $47 $-1 $147 forward single #
loop $-1 $148 $149 $59 #
cone-surface $-1 19.78111805908015 -15.997509331585922 6.3002721337577325 0 0.51503808176128008 -0.85716729658548041 1 0 0 1 I I 0 1 1 forward I I I I #
face $-1 $150 $151 $36 $-1 $152 reversed single #
loop $-1 $-1 $153 $60 #
plane-surface $-1 0 0 -9.8713618183961973 0 0 1 1 0 0 forward_v I I I I #
coedge $-1 $154 $155 $156 $157 forward $61 $-1 #
face $-1 $158 $159 $37 $-1 $160 reversed single #
loop $-1 $-1 $161 $63 #
plane-surface $-1 -42.259676572419757 -1.3206127595653339 0 0 -1 0 0 0 -1 forward_v I I I I #
coedge $-1 $162 $163 $164 $165 reversed $64 $-1 #
face $-1 $166 $167 $38 $-1 $168 reversed single #
loop $-1 $-1 $169 $66 #
plane-surface $-1 -2.8805322698094145 -14.662108078722802 28.801064272742437 0 0.52991927123019833 0.84804809178421925 1 0 0 forward_v I I I I #
coedge $-1 $170 $171 $172 $173 reversed $67 $-1 #
face $-1 $-1 $174 $39 $-1 $175 forward single #
loop $-1 $176 $177 $69 #
cone-surface $-1 -2.8805322698094145 16.104478110788317 4.5846924669564899 0 -0.52991927123019833 -0.84804809178421925 0.5 0 0 1 I I -0.70710678118654746 0.70710678118654746 0.5 forward I I I I #
loop $-1 $-1 $178 $51 #
coedge $-1 $112 $112 $179 $180 reversed $70 $-1 #
face $-1 $181 $182 $40 $-1 $183 reversed single #
loop $-1 $-1 $184 $72 #
plane-surface $-1 23.98035630433839 36.562828487498678 110.77809750254704 -1 0 0 0 0.52991927123019833 0.84804809178421925 forward_v I I I I #
coedge $-1 $185 $186 $187 $188 reversed $73 $-1 #
face $-1 $-1 $189 $41 $-1 $190 forward single #
loop $-1 $191 $192 $75 #
cone-surface $-1 15.026726779622457 16.104478110788317 4.5846924669564899 0 -0.52991927123019833 -0.84804809178421925 0.5 0 0 1 I I -0.70710678118654746 0.70710678118654746 0.5 forward I I I I #
loop $-1 $-1 $193 $53 #
coedge $-1 $121 $121 $194 $195 reversed $76 $-1 #
face $-1 $196 $197 $42 $-1 $198 reversed single #
loop $-1 $-1 $199 $78 #
plane-surface $-1 -24.449951449355648 -21.063336396357727 4.3794525045132673 0 -0.51503808176128008 0.85716729658548041 1 0 0 forward_v I I I I #
coedge $-1 $200 $201 $202 $203 reversed $79 $-1 #
face $-1 $-1 $204 $43 $-1 $205 forward single #
loop $-1 $206 $207 $81 #
cone-surface $-1 -26.421344385371686 -15.244199138205659 5.0465534577679954 0 0.51503808176128008 -0.85716729658548041 0.5 0 0 1 I I -0.70710678118654746 0.70710678118654746 0.5 forward I I I I #
loop $-1 $-1 $208 $55 #
coedge $-1 $130 $130 $209 $210 reversed $82 $-1 #
face $-1 $-1 $211 $44 $-1 $212 forward single #
loop $-1 $213 $214 $84 #
cone-surface $-1 -22.478558513339607 -15.244199138205659 5.0465534577679954 0 0.51503808176128008 -0.85716729658548041 0.5 0 0 1 I I -0.70710678118654746 0.70710678118654746 0.5 forward I I I I #
loop $-1 $-1 $215 $56 #
coedge $-1 $135 $135 $216 $217 reversed $85 $-1 #
face $-1 $218 $219 $45 $-1 $220 reversed single #
loop $-1 $-1 $221 $87 #
plane-surface $-1 17.809725123064105 -21.063336396357727 4.3794525045132673 0 -0.51503808176128008 0.85716729658548041 1 0 0 forward_v I I I I #
coedge $-1 $222 $223 $224 $225 reversed $88 $-1 #
face $-1 $-1 $226 $46 $-1 $227 forward single #
loop $-1 $228 $229 $90 #
cone-surface $-1 15.838332187048074 -15.244199138205659 5.0465534577679954 0 0.51503808176128008 -0.85716729658548041 0.5 0 0 1 I I -0.70710678118654746 0.70710678118654746 0.5 forward I I I I #
loop $-1 $-1 $230 $58 #
coedge $-1 $144 $144 $231 $232 reversed $91 $-1 #
face $-1 $-1 $233 $47 $-1 $234 forward single #
loop $-1 $235 $236 $93 #
cone-surface $-1 19.78111805908015 -15.244199138205659 5.0465534577679954 0 0.51503808176128008 -0.85716729658548041 0.5 0 0 1 I I -0.70710678118654746 0.70710678118654746 0.5 forward I I I I #
loop $-1 $-1 $237 $59 #
coedge $-1 $149 $149 $238 $239 reversed $94 $-1 #
face $-1 $240 $241 $36 $-1 $242 reversed single #
loop $-1 $-1 $243 $96 #
plane-surface $-1 0 -21.06333639635773 0 0 1 0 0 0 1 forward_v I I I I #
coedge $-1 $244 $245 $246 $247 forward $97 $-1 #
coedge $-1 $248 $99 $249 $250 forward $61 $-1 #
coedge $-1 $99 $248 $251 $252 forward $61 $-1 #
coedge $-1 $253 $254 $99 $157 reversed $255 $-1 #
edge $-1 $256 -21.06333639635773 $257 21.06333639635773 $156 $258 forward 7 unknown #
face $-1 $259 $260 $37 $-1 $261 reversed single #
loop $-1 $-1 $262 $100 #
plane-surface $-1 -36.186579317513242 -3.9793762633421714 0 -1 0 0 0 0 1 forward_v I I I I #
coedge $-1 $263 $264 $265 $266 forward $101 $-1 #
coedge $-1 $267 $103 $268 $269 reversed $64 $-1 #
coedge $-1 $103 $267 $270 $271 reversed $64 $-1 #
coedge $-1 $272 $273 $103 $165 forward $274 $-1 #
edge $-1 $275 -9.8713618183961973 $276 9.8713618183961973 $164 $277 forward 7 unknown #
face $-1 $278 $279 $38 $-1 $280 reversed single #
loop $-1 $-1 $281 $104 #
plane-surface $-1 6.0730972549065179 36.562828487498678 110.77809750254704 -1 0 0 0 0.52991927123019833 0.84804809178421925 forward_v I I I I #
coedge $-1 $282 $283 $284 $285 reversed $105 $-1 #
coedge $-1 $171 $107 $286 $287 reversed $67 $-1 #
coedge $-1 $107 $170 $282 $288 reversed $67 $-1 #
coedge $-1 $284 $289 $107 $173 forward $290 $-1 #
edge $-1 $291 -2.7819221526083915 $292 2.64966641648871 $172 $293 forward 7 unknown #
loop $-1 $-1 $179 $108 #
plane-surface $-1 -2.8805322698094145 -14.662108078722802 28.801064272742437 0 0.52991927123019833 0.84804809178421925 1 0 0 forward_v I I I I #
loop $-1 $-1 $294 $69 #
coedge $-1 $177 $177 $178 $295 reversed $109 $-1 #
coedge $-1 $178 $178 $177 $295 forward $111 $-1 #
coedge $-1 $179 $179 $112 $180 forward $174 $-1 #
edge $-1 $296 9.4132572177975918e-016 $296 6.2831853071796013 $179 $297 forward 7 unknown #
face $-1 $298 $299 $40 $-1 $300 forward single #
loop $-1 $-1 $301 $113 #
plane-surface $-1 0 21.06333639635773 0 0 -1 0 0 0 -1 forward_v I I I I #
coedge $-1 $302 $303 $304 $305 reversed $114 $-1 #
coedge $-1 $306 $116 $307 $308 reversed $73 $-1 #
coedge $-1 $116 $306 $309 $310 reversed $73 $-1 #
coedge $-1 $311 $312 $116 $188 forward $299 $-1 #
edge $-1 $313 -42.126672792715468 $314 -35.721860823067004 $187 $315 forward 7 unknown #
loop $-1 $-1 $194 $117 #
plane-surface $-1 -2.8805322698094145 -14.662108078722802 28.801064272742437 0 0.52991927123019833 0.84804809178421925 1 0 0 forward_v I I I I #
loop $-1 $-1 $316 $75 #
coedge $-1 $192 $192 $193 $317 reversed $118 $-1 #
coedge $-1 $193 $193 $192 $317 forward $120 $-1 #
coedge $-1 $194 $194 $121 $195 forward $189 $-1 #
edge $-1 $318 9.4132572177975918e-016 $318 6.2831853071796013 $194 $319 forward 7 unknown #
face $-1 $320 $321 $42 $-1 $322 forward single #
loop $-1 $-1 $323 $122 #
plane-surface $-1 -29.049868300059739 -70.849774632813578 87.237998660606706 1 0 0 0 0.51503808176128008 -0.85716729658548041 forward_v I I I I #
coedge $-1 $324 $325 $326 $327 reversed $123 $-1 #
coedge $-1 $201 $125 $328 $329 reversed $79 $-1 #
coedge $-1 $125 $200 $324 $330 reversed $79 $-1 #
coedge $-1 $326 $331 $125 $203 forward $321 $-1 #
edge $-1 $332 14.361550920049059 $333 23.501622744593426 $202 $334 forward 7 unknown #
loop $-1 $-1 $209 $126 #
plane-surface $-1 -24.449951449355648 -21.063336396357727 4.3794525045132673 0 -0.51503808176128008 0.85716729658548041 1 0 0 forward_v I I I I #
loop $-1 $-1 $335 $81 #
coedge $-1 $207 $207 $208 $336 reversed $127 $-1 #
coedge $-1 $208 $208 $207 $336 forward $129 $-1 #
coedge $-1 $209 $209 $130 $210 forward $204 $-1 #
edge $-1 $337 2.1303785605114469e-015 $337 6.2831853071796022 $209 $338 forward 7 unknown #
loop $-1 $-1 $216 $131 #
plane-surface $-1 -24.449951449355648 -21.063336396357727 4.3794525045132673 0 -0.51503808176128008 0.85716729658548041 1 0 0 forward_v I I I I #
loop $-1 $-1 $339 $84 #
coedge $-1 $214 $214 $215 $340 reversed $132 $-1 #
coedge $-1 $215 $215 $214 $340 forward $134 $-1 #
coedge $-1 $216 $216 $135 $217 forward $211 $-1 #
edge $-1 $341 2.1303785605114469e-015 $341 6.2831853071796022 $216 $342 forward 7 unknown #
face $-1 $343 $344 $45 $-1 $345 reversed single #
loop $-1 $-1 $346 $136 #
plane-surface $-1 13.209808272360014 -70.849774632813578 87.237998660606706 1 0 0 0 0.51503808176128008 -0.85716729658548041 forward_v I I I I #
coedge $-1 $347 $348 $349 $350 reversed $137 $-1 #
coedge $-1 $223 $139 $351 $352 reversed $88 $-1 #
coedge $-1 $139 $222 $347 $353 reversed $88 $-1 #
coedge $-1 $349 $354 $139 $225 forward $355 $-1 #
edge $-1 $356 14.361550920049059 $357 23.501622744593426 $224 $358 forward 7 unknown #
loop $-1 $-1 $231 $140 #
plane-surface $-1 17.809725123064105 -21.063336396357727 4.3794525045132673 0 -0.51503808176128008 0.85716729658548041 1 0 0 forward_v I I I I #
loop $-1 $-1 $359 $90 #
coedge $-1 $229 $229 $230 $360 reversed $141 $-1 #
coedge $-1 $230 $230 $229 $360 forward $143 $-1 #
coedge $-1 $231 $231 $144 $232 forward $226 $-1 #
edge $-1 $361 2.1303785605114469e-015 $361 6.2831853071796022 $231 $362 forward 7 unknown #
loop $-1 $-1 $238 $145 #
plane-surface $-1 17.809725123064105 -21.063336396357727 4.3794525045132673 0 -0.51503808176128008 0.85716729658548041 1 0 0 forward_v I I I I #
loop $-1 $-1 $363 $93 #
coedge $-1 $236 $236 $237 $364 reversed $146 $-1 #
coedge $-1 $237 $237 $236 $364 forward $148 $-1 #
coedge $-1 $238 $238 $149 $239 forward $233 $-1 #
edge $-1 $365 2.1303785605114469e-015 $365 6.2831853071796022 $238 $366 forward 7 unknown #
face $-1 $367 $368 $36 $-1 $369 reversed single #
loop $-1 $-1 $370 $150 #
plane-surface $-1 -48.332773827326271 0 0 1 0 0 0 0 -1 forward_v I I I I #
coedge $-1 $371 $251 $372 $373 forward $151 $-1 #
coedge $-1 $374 $153 $371 $375 forward $97 $-1 #
coedge $-1 $153 $374 $376 $377 forward $97 $-1 #
coedge $-1 $254 $253 $153 $247 reversed $255 $-1 #
edge $-1 $378 -21.06333639635773 $379 21.06333639635773 $246 $380 forward 7 unknown #
coedge $-1 $155 $154 $381 $382 forward $61 $-1 #
coedge $-1 $383 $384 $154 $250 reversed $368 $-1 #
edge $-1 $257 -48.332773827326271 $385 48.332773827326271 $249 $386 forward 7 unknown #
coedge $-1 $243 $387 $155 $252 reversed $151 $-1 #
edge $-1 $388 -48.332773827326271 $256 48.332773827326271 $251 $389 forward 7 unknown #
coedge $-1 $246 $156 $387 $390 forward $255 $-1 #
coedge $-1 $156 $246 $383 $391 reversed $255 $-1 #
loop $-1 $-1 $253 $367 #
vertex $-1 $157 $392 #
vertex $-1 $157 $393 #
straight-curve $-1 48.332773827326271 0 9.8713618183961973 0 1 0 I I #
face $-1 $394 $395 $37 $-1 $396 forward single #
loop $-1 $-1 $397 $158 #
plane-surface $-1 0 0 -9.8713618183961973 0 0 1 1 0 0 forward_v I I I I #
coedge $-1 $398 $399 $267 $400 forward $159 $-1 #
coedge $-1 $401 $161 $397 $402 reversed $101 $-1 #
coedge $-1 $161 $401 $403 $404 reversed $101 $-1 #
coedge $-1 $399 $398 $161 $266 reversed $159 $-1 #
edge $-1 $405 -9.8713618183961973 $406 9.8713618183961973 $265 $407 forward 7 unknown #
coedge $-1 $163 $162 $262 $400 reversed $64 $-1 #
coedge $-1 $408 $409 $162 $269 forward $260 $-1 #
edge $-1 $410 15.056741031303364 $275 27.202935541116393 $268 $411 forward 7 unknown #
coedge $-1 $412 $413 $163 $271 forward $395 $-1 #
edge $-1 $276 -27.202935541116393 $414 -15.056741031303364 $270 $415 forward 7 unknown #
coedge $-1 $416 $164 $413 $417 reversed $274 $-1 #
coedge $-1 $164 $416 $408 $418 reversed $274 $-1 #
loop $-1 $-1 $416 $394 #
vertex $-1 $418 $419 #
vertex $-1 $165 $420 #
straight-curve $-1 -48.332773827326271 -6.638139767119009 0 0 0 1 I I #
face $-1 $-1 $290 $38 $-1 $421 forward single #
loop $-1 $-1 $422 $166 #
plane-surface $-1 0 21.06333639635773 0 0 -1 0 0 0 -1 forward_v I I I I #
coedge $-1 $423 $424 $425 $426 reversed $167 $-1 #
coedge $-1 $427 $169 $171 $288 forward $105 $-1 #
coedge $-1 $169 $427 $423 $428 forward $105 $-1 #
coedge $-1 $425 $172 $169 $285 forward $290 $-1 #
edge $-1 $292 -10.39389565962064 $429 7.5133633898112251 $284 $430 forward 7 unknown #
coedge $-1 $431 $432 $170 $287 forward $279 $-1 #
edge $-1 $433 -48.91172022419989 $291 -45.517686932877325 $286 $434 forward 7 unknown #
edge $-1 $292 35.721860823067004 $433 42.126672792715468 $171 $435 forward 7 unknown #
coedge $-1 $172 $425 $431 $436 forward $290 $-1 #
loop $-1 $-1 $425 $278 #
vertex $-1 $287 $437 #
vertex $-1 $173 $438 #
straight-curve $-1 -11.834161794525347 18.281414243749339 9.8713618183961955 0 -1 0 I I #
coedge $-1 $294 $294 $-1 $439 reversed $176 $-1 #
edge $-1 $440 0 $440 6.2831853071796004 $177 $441 forward 7 unknown #
vertex $-1 $180 $442 #
ellipse-curve $-1 -2.8805322698094145 18.347542111809176 8.1743451727349203 0 0.52991927123019833 0.84804809178421925 1 0 0 1 I I #
face $-1 $-1 $443 $40 $-1 $444 forward single #
loop $-1 $-1 $311 $181 #
plane-surface $-1 6.0730972549065179 36.562828487498678 110.77809750254704 -1 0 0 0 0.52991927123019833 0.84804809178421925 forward_v I I I I #
coedge $-1 $307 $445 $303 $446 forward $182 $-1 #
coedge $-1 $303 $184 $306 $447 reversed $114 $-1 #
coedge $-1 $184 $302 $301 $446 reversed $114 $-1 #
coedge $-1 $448 $309 $184 $305 forward $443 $-1 #
edge $-1 $449 -2.64966641648871 $450 2.7819221526083915 $304 $451 forward 7 unknown #
coedge $-1 $186 $185 $302 $447 forward $73 $-1 #
coedge $-1 $452 $301 $185 $308 forward $182 $-1 #
edge $-1 $453 -25.420622439243097 $313 -7.5133633898112251 $307 $454 forward 7 unknown #
coedge $-1 $304 $455 $186 $310 forward $443 $-1 #
edge $-1 $314 7.5133633898112251 $449 25.420622439243097 $309 $456 forward 7 unknown #
coedge $-1 $312 $187 $455 $457 reversed $299 $-1 #
coedge $-1 $187 $311 $452 $458 reversed $299 $-1 #
vertex $-1 $308 $459 #
vertex $-1 $310 $460 #
straight-curve $-1 6.0730972549065179 -14.662108078722802 28.801064272742437 0 -0.84804809178421925 0.52991927123019833 I I #
coedge $-1 $316 $316 $-1 $461 reversed $191 $-1 #
edge $-1 $462 0 $462 6.2831853071796004 $192 $463 forward 7 unknown #
vertex $-1 $195 $464 #
ellipse-curve $-1 15.026726779622457 18.347542111809176 8.1743451727349203 0 0.52991927123019833 0.84804809178421925 1 0 0 1 I I #
face $-1 $-1 $465 $42 $-1 $466 reversed single #
loop $-1 $-1 $202 $196 #
plane-surface $-1 0 0 9.8713618183961973 0 0 1 1 0 0 forward_v I I I I #
coedge $-1 $467 $468 $469 $470 reversed $197 $-1 #
coedge $-1 $471 $199 $201 $330 forward $123 $-1 #
coedge $-1 $199 $471 $467 $472 forward $123 $-1 #
coedge $-1 $469 $202 $199 $327 forward $321 $-1 #
edge $-1 $333 7.6250588739737335 $473 16.824892575381917 $326 $474 forward 7 unknown #
coedge $-1 $475 $476 $200 $329 forward $465 $-1 #
edge $-1 $477 -39.239546825790086 $332 -33.747637511907158 $328 $478 forward 7 unknown #
edge $-1 $333 -10.663113094670983 $477 3.9601613986879174e-015 $201 $479 forward 7 unknown #
coedge $-1 $202 $469 $475 $480 forward $321 $-1 #
vertex $-1 $329 $481 #
vertex $-1 $203 $482 #
straight-curve $-1 -19.850034598651558 -35.424887316406789 9.8713618183961955 0 1 0 I I #
coedge $-1 $335 $335 $-1 $483 reversed $206 $-1 #
edge $-1 $484 0 $484 6.2831853071796004 $207 $485 forward 7 unknown #
vertex $-1 $210 $486 #
ellipse-curve $-1 -26.421344385371686 -16.493300484085548 7.1254071614547314 0 -0.51503808176128008 0.85716729658548041 1 0 0 1 I I #
coedge $-1 $339 $339 $-1 $487 reversed $213 $-1 #
edge $-1 $488 0 $488 6.2831853071796004 $214 $489 forward 7 unknown #
vertex $-1 $217 $490 #
ellipse-curve $-1 -22.478558513339607 -16.493300484085548 7.1254071614547314 0 -0.51503808176128008 0.85716729658548041 1 0 0 1 I I #
face $-1 $-1 $355 $45 $-1 $491 forward single #
loop $-1 $-1 $492 $218 #
plane-surface $-1 0 -21.06333639635773 0 0 1 0 0 0 1 forward_v I I I I #
coedge $-1 $493 $494 $495 $496 reversed $219 $-1 #
coedge $-1 $497 $221 $223 $353 forward $137 $-1 #
coedge $-1 $221 $497 $493 $498 forward $137 $-1 #
coedge $-1 $495 $224 $221 $350 forward $355 $-1 #
edge $-1 $357 -13.504779412236143 $499 -4.3049457108279618 $349 $500 forward 7 unknown #
coedge $-1 $501 $502 $222 $352 forward $344 $-1 #
edge $-1 $503 -39.239546825790086 $356 -33.747637511907158 $351 $504 forward 7 unknown #
edge $-1 $357 -10.663113094670983 $503 3.9601613986879174e-015 $223 $505 forward 7 unknown #
coedge $-1 $224 $495 $501 $506 forward $355 $-1 #
loop $-1 $-1 $495 $343 #
vertex $-1 $352 $507 #
vertex $-1 $225 $508 #
straight-curve $-1 22.409641973768196 -35.424887316406789 9.8713618183961955 0 1 0 I I #
coedge $-1 $359 $359 $-1 $509 reversed $228 $-1 #
edge $-1 $510 0 $510 6.2831853071796004 $229 $511 forward 7 unknown #
vertex $-1 $232 $512 #
ellipse-curve $-1 15.838332187048074 -16.493300484085548 7.1254071614547314 0 -0.51503808176128008 0.85716729658548041 1 0 0 1 I I #
coedge $-1 $363 $363 $-1 $513 reversed $235 $-1 #
edge $-1 $514 0 $514 6.2831853071796004 $236 $515 forward 7 unknown #
vertex $-1 $239 $516 #
ellipse-curve $-1 19.78111805908015 -16.493300484085548 7.1254071614547314 0 -0.51503808176128008 0.85716729658548041 1 0 0 1 I I #
face $-1 $-1 $255 $36 $-1 $517 reversed single #
loop $-1 $-1 $383 $240 #
plane-surface $-1 0 21.06333639635773 0 0 -1 0 0 0 -1 forward_v I I I I #
coedge $-1 $518 $381 $384 $519 forward $241 $-1 #
coedge $-1 $387 $243 $244 $375 reversed $151 $-1 #
coedge $-1 $381 $518 $243 $373 reversed $241 $-1 #
edge $-1 $388 -9.8713618183961973 $520 9.8713618183961973 $372 $521 forward 7 unknown #
coedge $-1 $245 $244 $518 $522 forward $97 $-1 #
edge $-1 $379 -48.332773827326271 $520 48.332773827326271 $371 $523 forward 7 unknown #
coedge $-1 $384 $383 $245 $377 reversed $368 $-1 #
edge $-1 $524 -48.332773827326271 $378 48.332773827326271 $376 $525 forward 7 unknown #
vertex $-1 $247 $526 #
vertex $-1 $390 $527 #
straight-curve $-1 48.332773827326271 0 -9.8713618183961973 0 -1 0 I I #
coedge $-1 $370 $372 $248 $382 reversed $241 $-1 #
edge $-1 $385 -21.06333639635773 $388 21.06333639635773 $381 $528 forward 7 unknown #
coedge $-1 $376 $249 $254 $391 forward $368 $-1 #
coedge $-1 $249 $376 $370 $519 reversed $368 $-1 #
vertex $-1 $250 $529 #
straight-curve $-1 0 21.06333639635773 9.8713618183961973 -1 0 0 I I #
coedge $-1 $251 $371 $253 $390 reversed $151 $-1 #
vertex $-1 $382 $530 #
straight-curve $-1 0 -21.06333639635773 9.8713618183961973 1 0 0 I I #
edge $-1 $256 -9.8713618183961973 $379 9.8713618183961973 $253 $531 forward 7 unknown #
edge $-1 $257 -9.8713618183961973 $378 9.8713618183961973 $254 $532 forward 7 unknown #
point $-1 48.332773827326271 -21.06333639635773 9.8713618183961973 #
point $-1 48.332773827326271 21.06333639635773 9.8713618183961973 #
face $-1 $-1 $274 $37 $-1 $533 reversed single #
loop $-1 $-1 $403 $259 #
plane-surface $-1 0 0 9.8713618183961973 0 0 1 1 0 0 forward_v I I I I #
coedge $-1 $409 $408 $263 $402 forward $260 $-1 #
coedge $-1 $265 $262 $409 $534 reversed $159 $-1 #
coedge $-1 $262 $265 $412 $535 reversed $159 $-1 #
edge $-1 $414 -9.8713618183961973 $410 9.8713618183961973 $262 $536 forward 7 unknown #
coedge $-1 $264 $263 $416 $537 reversed $101 $-1 #
edge $-1 $538 -27.202935541116393 $406 -15.056741031303364 $397 $539 forward 7 unknown #
coedge $-1 $413 $412 $264 $404 forward $395 $-1 #
edge $-1 $405 15.056741031303364 $540 27.202935541116393 $403 $541 forward 7 unknown #
vertex $-1 $404 $542 #
vertex $-1 $402 $543 #
straight-curve $-1 -36.186579317513242 -1.3206127595653339 0 0 0 -1 I I #
coedge $-1 $397 $268 $273 $418 forward $260 $-1 #
coedge $-1 $268 $397 $398 $534 forward $260 $-1 #
vertex $-1 $269 $544 #
straight-curve $-1 -21.129838286209878 -6.638139767119009 -9.8713618183961973 -1 0 0 I I #
coedge $-1 $403 $270 $399 $535 forward $395 $-1 #
coedge $-1 $270 $403 $272 $417 forward $395 $-1 #
vertex $-1 $271 $545 #
straight-curve $-1 -21.129838286209878 -6.638139767119009 9.8713618183961973 1 0 0 I I #
coedge $-1 $273 $272 $401 $537 forward $274 $-1 #
edge $-1 $540 1.3206127595653339 $276 6.638139767119009 $272 $546 forward 7 unknown #
edge $-1 $275 -6.638139767119009 $538 -1.3206127595653339 $273 $547 forward 7 unknown #
point $-1 -48.332773827326271 -6.638139767119009 -9.8713618183961973 #
point $-1 -48.332773827326271 -6.638139767119009 9.8713618183961973 #
plane-surface $-1 0 0 9.8713618183961973 0 0 1 1 0 0 forward_v I I I I #
coedge $-1 $432 $431 $424 $548 forward $279 $-1 #
coedge $-1 $424 $281 $283 $428 reversed $167 $-1 #
coedge $-1 $281 $423 $422 $548 reversed $167 $-1 #
coedge $-1 $289 $284 $281 $426 forward $290 $-1 #
edge $-1 $429 -2.64966641648871 $549 2.7819221526083915 $425 $550 forward 7 unknown #
coedge $-1 $283 $282 $432 $551 reversed $105 $-1 #
edge $-1 $552 -42.126672792715468 $429 -35.721860823067004 $423 $553 forward 7 unknown #
vertex $-1 $285 $554 #
straight-curve $-1 -1.4402661349047072 15.631747827260636 9.8713618183961955 1 0 0 I I #
coedge $-1 $422 $286 $289 $436 reversed $279 $-1 #
coedge $-1 $286 $422 $427 $551 forward $279 $-1 #
vertex $-1 $287 $555 #
straight-curve $-1 -11.834161794525347 21.06333639635773 55.389048751273521 0 0 1 I I #
straight-curve $-1 -11.834161794525347 -14.662108078722802 28.801064272742437 0 0.84804809178421925 -0.52991927123019833 I I #
edge $-1 $549 -6.0730972549065179 $291 11.834161794525347 $431 $556 forward 7 unknown #
point $-1 -11.834161794525347 21.06333639635773 9.8713618183961973 #
point $-1 -11.834161794525347 15.631747827260629 9.8713618183961955 #
edge $-1 $557 1 $557 0 $294 $-1 forward 7 unknown #
vertex $-1 $295 $558 #
ellipse-curve $-1 -2.8805322698094145 16.369437746403417 5.0087165128485998 0 0.52991927123019833 0.84804809178421925 1 0 0 1 I I #
point $-1 -1.8805322698094145 18.347542111809176 8.1743451727349186 #
loop $-1 $-1 $304 $298 #
plane-surface $-1 0 0 9.8713618183961973 0 0 1 1 0 0 forward_v I I I I #
coedge $-1 $301 $452 $448 $559 reversed $182 $-1 #
edge $-1 $450 45.517686932877325 $453 48.91172022419989 $301 $560 forward 7 unknown #
edge $-1 $453 -42.126672792715468 $449 -35.721860823067004 $302 $561 forward 7 unknown #
coedge $-1 $455 $304 $445 $559 forward $443 $-1 #
vertex $-1 $305 $562 #
vertex $-1 $559 $563 #
straight-curve $-1 23.98035630433839 18.281414243749339 9.8713618183961955 0 1 0 I I #
coedge $-1 $445 $307 $312 $458 forward $182 $-1 #
vertex $-1 $446 $564 #
straight-curve $-1 -1.4402661349047072 21.063336396357734 6.4773285270736363 -1 0 0 I I #
coedge $-1 $309 $448 $311 $457 forward $443 $-1 #
straight-curve $-1 -1.4402661349047072 15.631747827260636 9.8713618183961955 1 0 0 I I #
edge $-1 $565 -2.7819221526083915 $314 2.64966641648871 $455 $566 forward 7 unknown #
edge $-1 $313 -48.91172022419989 $565 -45.517686932877325 $452 $567 forward 7 unknown #
point $-1 6.0730972549065179 21.063336396357734 6.4773285270736309 #
point $-1 6.0730972549065179 15.631747827260629 9.8713618183961955 #
edge $-1 $568 1 $568 0 $316 $-1 forward 7 unknown #
vertex $-1 $317 $569 #
ellipse-curve $-1 15.026726779622457 16.369437746403417 5.0087165128485998 0 0.52991927123019833 0.84804809178421925 1 0 0 1 I I #
point $-1 16.026726779622457 18.347542111809176 8.1743451727349186 #
loop $-1 $-1 $328 $320 #
plane-surface $-1 0 -21.06333639635773 0 0 1 0 0 0 1 forward_v I I I I #
coedge $-1 $468 $323 $325 $472 reversed $197 $-1 #
coedge $-1 $323 $467 $570 $571 reversed $197 $-1 #
coedge $-1 $331 $326 $323 $470 forward $321 $-1 #
edge $-1 $473 -23.501622744593426 $572 -14.361550920049059 $469 $573 forward 7 unknown #
coedge $-1 $325 $324 $476 $574 reversed $123 $-1 #
edge $-1 $575 -3.9601613986879174e-015 $473 10.663113094670983 $467 $576 forward 7 unknown #
vertex $-1 $327 $577 #
straight-curve $-1 -12.224975724677824 -11.923264571813363 9.8713618183961973 -1 0 0 I I #
coedge $-1 $570 $328 $331 $480 reversed $465 $-1 #
coedge $-1 $328 $570 $471 $574 forward $465 $-1 #
vertex $-1 $329 $578 #
straight-curve $-1 -19.850034598651558 -21.06333639635773 43.618999330303353 0 0 1 I I #
straight-curve $-1 -19.850034598651558 -21.063336396357727 4.3794525045132673 0 -0.85716729658548041 -0.51503808176128008 I I #
edge $-1 $572 -29.049868300059739 $332 -19.850034598651558 $475 $579 forward 7 unknown #
point $-1 -19.850034598651558 -21.06333639635773 9.8713618183961973 #
point $-1 -19.850034598651558 -11.923264571813364 9.8713618183961973 #
edge $-1 $580 1 $580 0 $335 $-1 forward 7 unknown #
vertex $-1 $336 $581 #
ellipse-curve $-1 -26.421344385371686 -15.501718179086298 5.4751371060607354 0 -0.51503808176128008 0.85716729658548041 1 0 0 1 I I #
point $-1 -25.421344385371686 -16.493300484085545 7.1254071614547296 #
edge $-1 $582 1 $582 0 $339 $-1 forward 7 unknown #
vertex $-1 $340 $583 #
ellipse-curve $-1 -22.478558513339607 -15.501718179086298 5.4751371060607354 0 -0.51503808176128008 0.85716729658548041 1 0 0 1 I I #
point $-1 -21.478558513339607 -16.493300484085545 7.1254071614547296 #
plane-surface $-1 0 0 9.8713618183961973 0 0 1 1 0 0 forward_v I I I I #
coedge $-1 $502 $501 $494 $584 forward $344 $-1 #
coedge $-1 $494 $346 $348 $498 reversed $219 $-1 #
coedge $-1 $346 $493 $492 $584 reversed $219 $-1 #
coedge $-1 $354 $349 $346 $496 forward $355 $-1 #
edge $-1 $499 -23.501622744593426 $585 -14.361550920049059 $495 $586 forward 7 unknown #
coedge $-1 $348 $347 $502 $587 reversed $137 $-1 #
edge $-1 $588 -3.9601613986879174e-015 $499 10.663113094670983 $493 $589 forward 7 unknown #
vertex $-1 $350 $590 #
straight-curve $-1 8.9048625615320525 -11.923264571813363 9.8713618183961973 -1 0 0 I I #
coedge $-1 $492 $351 $354 $506 reversed $344 $-1 #
coedge $-1 $351 $492 $497 $587 forward $344 $-1 #
vertex $-1 $352 $591 #
straight-curve $-1 22.409641973768196 -21.06333639635773 43.618999330303353 0 0 1 I I #
straight-curve $-1 22.409641973768196 -21.063336396357727 4.3794525045132673 0 -0.85716729658548041 -0.51503808176128008 I I #
edge $-1 $585 13.209808272360014 $356 22.409641973768196 $501 $592 forward 7 unknown #
point $-1 22.409641973768196 -21.06333639635773 9.8713618183961973 #
point $-1 22.409641973768196 -11.923264571813364 9.8713618183961973 #
edge $-1 $593 1 $593 0 $359 $-1 forward 7 unknown #
vertex $-1 $360 $594 #
ellipse-curve $-1 15.838332187048074 -15.501718179086298 5.4751371060607354 0 -0.51503808176128008 0.85716729658548041 1 0 0 1 I I #
point $-1 16.838332187048074 -16.493300484085545 7.1254071614547296 #
edge $-1 $595 1 $595 0 $363 $-1 forward 7 unknown #
vertex $-1 $364 $596 #
ellipse-curve $-1 19.78111805908015 -15.501718179086298 5.4751371060607354 0 -0.51503808176128008 0.85716729658548041 1 0 0 1 I I #
point $-1 20.78111805908015 -16.493300484085545 7.1254071614547296 #
plane-surface $-1 48.332773827326271 0 0 -1 0 0 0 0 1 forward_v I I I I #
coedge $-1 $372 $370 $374 $522 reversed $241 $-1 #
edge $-1 $385 -9.8713618183961973 $524 9.8713618183961973 $384 $597 forward 7 unknown #
vertex $-1 $522 $598 #
straight-curve $-1 -48.332773827326271 -21.06333639635773 0 0 0 -1 I I #
edge $-1 $520 -21.06333639635773 $524 21.06333639635773 $518 $599 forward 7 unknown #
straight-curve $-1 0 -21.06333639635773 -9.8713618183961973 -1 0 0 I I #
vertex $-1 $377 $600 #
straight-curve $-1 0 21.06333639635773 -9.8713618183961973 1 0 0 I I #
point $-1 48.332773827326271 21.06333639635773 -9.8713618183961973 #
point $-1 48.332773827326271 -21.06333639635773 -9.8713618183961973 #
straight-curve $-1 -48.332773827326271 0 9.8713618183961973 0 -1 0 I I #
point $-1 -48.332773827326271 21.06333639635773 9.8713618183961973 #
point $-1 -48.332773827326271 -21.06333639635773 9.8713618183961973 #
straight-curve $-1 48.332773827326271 -21.06333639635773 0 0 0 -1 I I #
straight-curve $-1 48.332773827326271 21.06333639635773 0 0 0 -1 I I #
plane-surface $-1 -48.332773827326271 0 0 1 0 0 0 0 -1 forward_v I I I I #
edge $-1 $406 -0.66907537210575185 $410 4.6484516354479233 $409 $601 forward 7 unknown #
edge $-1 $414 -4.6484516354479233 $405 0.66907537210575185 $412 $602 forward 7 unknown #
straight-curve $-1 -36.186579317513242 -6.638139767119009 0 0 0 -1 I I #
edge $-1 $540 -9.8713618183961973 $538 9.8713618183961973 $416 $603 forward 7 unknown #
vertex $-1 $537 $604 #
straight-curve $-1 -21.129838286209878 -1.3206127595653339 -9.8713618183961973 1 0 0 I I #
vertex $-1 $417 $605 #
straight-curve $-1 -21.129838286209878 -1.3206127595653339 9.8713618183961973 -1 0 0 I I #
point $-1 -36.186579317513242 -1.3206127595653339 9.8713618183961973 #
point $-1 -36.186579317513242 -1.3206127595653339 -9.8713618183961973 #
point $-1 -36.186579317513242 -6.638139767119009 -9.8713618183961973 #
point $-1 -36.186579317513242 -6.638139767119009 9.8713618183961973 #
straight-curve $-1 -48.332773827326271 0 9.8713618183961973 0 -1 0 I I #
straight-curve $-1 -48.332773827326271 0 -9.8713618183961973 0 1 0 I I #
edge $-1 $549 45.517686932877325 $552 48.91172022419989 $422 $606 forward 7 unknown #
vertex $-1 $436 $607 #
straight-curve $-1 6.0730972549065179 18.281414243749339 9.8713618183961955 0 1 0 I I #
edge $-1 $552 -7.5133633898112251 $433 10.39389565962064 $432 $608 forward 7 unknown #
vertex $-1 $551 $609 #
straight-curve $-1 6.0730972549065179 -14.662108078722802 28.801064272742437 0 -0.84804809178421925 0.52991927123019833 I I #
point $-1 6.0730972549065179 15.631747827260629 9.8713618183961955 #
point $-1 -11.834161794525347 21.063336396357734 6.4773285270736309 #
straight-curve $-1 0 21.06333639635773 9.8713618183961973 -1 0 0 I I #
vertex $-1 $439 $610 #
point $-1 -1.8805322698094145 16.369437746403417 5.0087165128485998 #
edge $-1 $450 -23.98035630433839 $565 -6.0730972549065179 $445 $611 forward 7 unknown #
straight-curve $-1 23.98035630433839 21.06333639635773 55.389048751273521 0 0 -1 I I #
straight-curve $-1 23.98035630433839 -14.662108078722802 28.801064272742437 0 -0.84804809178421925 0.52991927123019833 I I #
point $-1 23.98035630433839 15.631747827260629 9.8713618183961955 #
point $-1 23.98035630433839 21.06333639635773 9.8713618183961973 #
point $-1 23.98035630433839 21.063336396357734 6.4773285270736309 #
vertex $-1 $458 $612 #
straight-curve $-1 6.0730972549065179 18.281414243749339 9.8713618183961955 0 -1 0 I I #
straight-curve $-1 6.0730972549065179 21.06333639635773 55.389048751273521 0 0 1 I I #
vertex $-1 $461 $613 #
point $-1 16.026726779622457 16.369437746403417 5.0087165128485998 #
coedge $-1 $476 $475 $468 $571 forward $465 $-1 #
edge $-1 $572 33.747637511907158 $575 39.239546825790086 $570 $614 forward 7 unknown #
vertex $-1 $480 $615 #
straight-curve $-1 -29.049868300059739 -35.424887316406789 9.8713618183961955 0 -1 0 I I #
edge $-1 $575 -16.824892575381917 $477 -7.6250588739737335 $476 $616 forward 7 unknown #
vertex $-1 $574 $617 #
straight-curve $-1 -29.049868300059739 -21.063336396357727 4.3794525045132673 0 0.85716729658548041 0.51503808176128008 I I #
point $-1 -29.049868300059739 -11.923264571813364 9.8713618183961973 #
point $-1 -19.850034598651558 -21.06333639635773 4.3794525045132655 #
straight-curve $-1 0 -21.06333639635773 9.8713618183961973 1 0 0 I I #
vertex $-1 $483 $618 #
point $-1 -25.421344385371686 -15.501718179086298 5.4751371060607354 #
vertex $-1 $487 $619 #
point $-1 -21.478558513339607 -15.501718179086298 5.4751371060607354 #
edge $-1 $585 33.747637511907158 $588 39.239546825790086 $492 $620 forward 7 unknown #
vertex $-1 $506 $621 #
straight-curve $-1 13.209808272360014 -35.424887316406789 9.8713618183961955 0 -1 0 I I #
edge $-1 $588 4.3049457108279618 $503 13.504779412236143 $502 $622 forward 7 unknown #
vertex $-1 $587 $623 #
straight-curve $-1 13.209808272360014 -21.063336396357727 4.3794525045132673 0 0.85716729658548041 0.51503808176128008 I I #
point $-1 13.209808272360014 -11.923264571813364 9.8713618183961973 #
point $-1 22.409641973768196 -21.06333639635773 4.3794525045132655 #
straight-curve $-1 0 -21.06333639635773 9.8713618183961973 1 0 0 I I #
vertex $-1 $509 $624 #
point $-1 16.838332187048074 -15.501718179086298 5.4751371060607354 #
vertex $-1 $513 $625 #
point $-1 20.78111805908015 -15.501718179086298 5.4751371060607354 #
straight-curve $-1 -48.332773827326271 21.06333639635773 0 0 0 -1 I I #
point $-1 -48.332773827326271 -21.06333639635773 -9.8713618183961973 #
straight-curve $-1 -48.332773827326271 0 -9.8713618183961973 0 1 0 I I #
point $-1 -48.332773827326271 21.06333639635773 -9.8713618183961973 #
straight-curve $-1 -36.186579317513242 -1.9896881316710857 -9.8713618183961973 0 -1 0 I I #
straight-curve $-1 -36.186579317513242 -1.9896881316710857 9.8713618183961973 0 1 0 I I #
straight-curve $-1 -48.332773827326271 -1.3206127595653339 0 0 0 -1 I I #
point $-1 -48.332773827326271 -1.3206127595653339 -9.8713618183961973 #
point $-1 -48.332773827326271 -1.3206127595653339 9.8713618183961973 #
straight-curve $-1 6.0730972549065179 21.06333639635773 55.389048751273521 0 0 -1 I I #
point $-1 6.0730972549065179 21.06333639635773 9.8713618183961973 #
straight-curve $-1 -1.4402661349047072 21.063336396357734 6.4773285270736363 -1 0 0 I I #
point $-1 6.0730972549065179 21.063336396357734 6.4773285270736309 #
point $-1 -2.8805322698094145 15.839518475173218 4.1606684210643801 #
straight-curve $-1 0 21.06333639635773 9.8713618183961973 -1 0 0 I I #
point $-1 6.0730972549065179 21.06333639635773 9.8713618183961973 #
point $-1 15.026726779622457 15.839518475173218 4.1606684210643801 #
straight-curve $-1 -29.049868300059739 -21.06333639635773 43.618999330303353 0 0 -1 I I #
point $-1 -29.049868300059739 -21.06333639635773 9.8713618183961973 #
straight-curve $-1 -12.224975724677824 -21.06333639635773 4.3794525045132646 1 0 0 I I #
point $-1 -29.049868300059739 -21.06333639635773 4.3794525045132655 #
point $-1 -26.421344385371686 -14.986680097325019 4.6179698094752553 #
point $-1 -22.478558513339607 -14.986680097325019 4.6179698094752553 #
straight-curve $-1 13.209808272360014 -21.06333639635773 43.618999330303353 0 0 -1 I I #
point $-1 13.209808272360014 -21.06333639635773 9.8713618183961973 #
straight-curve $-1 8.9048625615320525 -21.06333639635773 4.3794525045132646 1 0 0 I I #
point $-1 13.209808272360014 -21.06333639635773 4.3794525045132655 #
point $-1 15.838332187048074 -14.986680097325019 4.6179698094752553 #
point $-1 19.78111805908015 -14.986680097325019 4.6179698094752553 #
End-of-ACIS-data 